0, 0, Header, 1, 5, 240
1, 0, Start_track
1, 0, Time_signature, 4, 2, 24, 8
1, 0, Tempo, 375000
1, 65520, Tempo, 394737
1, 65760, Tempo, 413793
1, 66000, Tempo, 437956
1, 66240, Tempo, 461538
1, 66480, Tempo, 491803
1, 66720, Tempo, 521739
1, 66960, Tempo, 560748
1, 67200, Time_signature, 3, 1, 48, 8
1, 67200, Tempo, 240000
1, 207360, Tempo, 256410
1, 207840, Tempo, 272727
1, 208320, Tempo, 294118
1, 208800, Tempo, 315789
1, 209280, Tempo, 344828
1, 209280, End_track
2, 0, Start_track
2, 0, Title_t, "Canzona\015\012J.S. Bach BWV 588"
2, 13920, Note_on_c, 0, 62, 96
2, 14304, Note_off_c, 0, 62, 64
2, 14400, Note_on_c, 0, 69, 96
2, 14976, Note_off_c, 0, 69, 64
2, 15120, Note_on_c, 0, 69, 96
2, 15312, Note_off_c, 0, 69, 64
2, 15360, Note_on_c, 0, 70, 96
2, 15552, Note_off_c, 0, 70, 64
2, 15600, Note_on_c, 0, 69, 96
2, 15696, Note_off_c, 0, 69, 64
2, 15720, Note_on_c, 0, 67, 96
2, 15816, Note_off_c, 0, 67, 64
2, 15840, Note_on_c, 0, 65, 96
2, 16032, Note_off_c, 0, 65, 64
2, 16080, Note_on_c, 0, 67, 96
2, 16272, Note_off_c, 0, 67, 64
2, 16320, Note_on_c, 0, 69, 96
2, 16512, Note_off_c, 0, 69, 64
2, 16560, Note_on_c, 0, 67, 96
2, 16656, Note_off_c, 0, 67, 64
2, 16680, Note_on_c, 0, 65, 96
2, 16776, Note_off_c, 0, 65, 64
2, 16800, Note_on_c, 0, 64, 96
2, 16992, Note_off_c, 0, 64, 64
2, 17040, Note_on_c, 0, 65, 96
2, 17232, Note_off_c, 0, 65, 64
2, 17280, Note_on_c, 0, 67, 96
2, 17472, Note_off_c, 0, 67, 64
2, 17520, Note_on_c, 0, 62, 96
2, 17745, Note_off_c, 0, 62, 64
2, 17760, Note_on_c, 0, 67, 96
2, 18432, Note_off_c, 0, 67, 64
2, 18480, Note_on_c, 0, 65, 96
2, 18576, Note_off_c, 0, 65, 64
2, 18600, Note_on_c, 0, 64, 96
2, 18696, Note_off_c, 0, 64, 64
2, 18720, Note_on_c, 0, 65, 96
2, 19392, Note_off_c, 0, 65, 64
2, 19440, Note_on_c, 0, 64, 96
2, 19536, Note_off_c, 0, 64, 64
2, 19560, Note_on_c, 0, 62, 96
2, 19656, Note_off_c, 0, 62, 64
2, 19680, Note_on_c, 0, 64, 96
2, 20352, Note_off_c, 0, 64, 64
2, 20400, Note_on_c, 0, 57, 96
2, 20592, Note_off_c, 0, 57, 64
2, 20640, Note_on_c, 0, 62, 96
2, 20640, Note_on_c, 0, 69, 96
2, 20832, Note_off_c, 0, 62, 64
2, 20880, Note_on_c, 0, 64, 96
2, 21024, Note_off_c, 0, 69, 64
2, 21072, Note_off_c, 0, 64, 64
2, 21120, Note_on_c, 0, 65, 96
2, 21120, Note_on_c, 0, 74, 96
2, 21312, Note_off_c, 0, 65, 64
2, 21360, Note_on_c, 0, 64, 96
2, 21552, Note_off_c, 0, 64, 64
2, 21600, Note_on_c, 0, 65, 96
2, 21696, Note_off_c, 0, 74, 64
2, 21792, Note_off_c, 0, 65, 64
2, 21840, Note_on_c, 0, 67, 96
2, 21840, Note_on_c, 0, 74, 96
2, 22032, Note_off_c, 0, 74, 64
2, 22032, Note_off_c, 0, 67, 64
2, 22080, Note_on_c, 0, 69, 96
2, 22080, Note_on_c, 0, 77, 96
2, 22272, Note_off_c, 0, 77, 64
2, 22320, Note_on_c, 0, 76, 96
2, 22416, Note_off_c, 0, 76, 64
2, 22440, Note_on_c, 0, 74, 96
2, 22464, Note_off_c, 0, 69, 64
2, 22536, Note_off_c, 0, 74, 64
2, 22560, Note_on_c, 0, 72, 96
2, 22560, Note_on_c, 0, 69, 96
2, 22752, Note_off_c, 0, 72, 64
2, 22800, Note_on_c, 0, 74, 96
2, 22944, Note_off_c, 0, 69, 64
2, 22992, Note_off_c, 0, 74, 64
2, 23040, Note_on_c, 0, 76, 96
2, 23040, Note_on_c, 0, 68, 96
2, 23232, Note_off_c, 0, 76, 64
2, 23280, Note_on_c, 0, 74, 96
2, 23376, Note_off_c, 0, 74, 64
2, 23400, Note_on_c, 0, 72, 96
2, 23424, Note_off_c, 0, 68, 64
2, 23496, Note_off_c, 0, 72, 64
2, 23520, Note_on_c, 0, 67, 96
2, 23520, Note_on_c, 0, 71, 96
2, 23712, Note_off_c, 0, 71, 64
2, 23760, Note_on_c, 0, 73, 96
2, 23904, Note_off_c, 0, 67, 64
2, 23952, Note_off_c, 0, 73, 64
2, 24000, Note_on_c, 0, 74, 96
2, 24000, Note_on_c, 0, 66, 96
2, 24192, Note_off_c, 0, 74, 64
2, 24240, Note_on_c, 0, 69, 96
2, 24384, Note_off_c, 0, 66, 64
2, 24432, Note_off_c, 0, 69, 64
2, 24480, Note_on_c, 0, 74, 96
2, 24480, Note_on_c, 0, 65, 96
2, 24672, Note_off_c, 0, 65, 64
2, 24720, Note_on_c, 0, 64, 96
2, 24816, Note_off_c, 0, 64, 64
2, 24840, Note_on_c, 0, 62, 96
2, 24936, Note_off_c, 0, 62, 64
2, 24960, Note_on_c, 0, 64, 96
2, 25185, Note_off_c, 0, 74, 64
2, 25200, Note_on_c, 0, 72, 96
2, 25313, Note_off_c, 0, 72, 64
2, 25320, Note_on_c, 0, 71, 96
2, 25433, Note_off_c, 0, 71, 64
2, 25440, Note_on_c, 0, 72, 96
2, 25536, Note_off_c, 0, 64, 64
2, 25680, Note_on_c, 0, 69, 96
2, 25872, Note_off_c, 0, 69, 64
2, 25920, Note_on_c, 0, 65, 96
2, 26112, Note_off_c, 0, 72, 64
2, 26160, Note_on_c, 0, 71, 96
2, 26256, Note_off_c, 0, 71, 64
2, 26280, Note_on_c, 0, 69, 96
2, 26304, Note_off_c, 0, 65, 64
2, 26376, Note_off_c, 0, 69, 64
2, 26400, Note_on_c, 0, 71, 96
2, 26400, Note_on_c, 0, 64, 96
2, 27072, Note_off_c, 0, 71, 64
2, 27120, Note_on_c, 0, 69, 96
2, 27216, Note_off_c, 0, 69, 64
2, 27240, Note_on_c, 0, 68, 96
2, 27336, Note_off_c, 0, 68, 64
2, 27360, Note_on_c, 0, 69, 96
2, 27456, Note_off_c, 0, 64, 64
2, 27600, Note_on_c, 0, 63, 96
2, 27792, Note_off_c, 0, 63, 64
2, 27840, Note_on_c, 0, 64, 96
2, 27936, Note_off_c, 0, 69, 64
2, 27960, Note_on_c, 0, 68, 96
2, 28056, Note_off_c, 0, 68, 64
2, 28080, Note_on_c, 0, 69, 96
2, 28176, Note_off_c, 0, 69, 64
2, 28200, Note_on_c, 0, 71, 96
2, 28296, Note_off_c, 0, 71, 64
2, 28320, Note_on_c, 0, 68, 96
2, 28416, Note_off_c, 0, 64, 64
2, 28560, Note_on_c, 0, 62, 96
2, 28608, Note_off_c, 0, 68, 64
2, 28680, Note_on_c, 0, 69, 96
2, 28752, Note_off_c, 0, 62, 64
2, 28776, Note_off_c, 0, 69, 64
2, 28800, Note_on_c, 0, 69, 96
2, 28800, Note_on_c, 0, 61, 96
2, 28992, Note_off_c, 0, 61, 64
2, 28992, Note_off_c, 0, 69, 64
2, 29040, Note_on_c, 0, 71, 96
2, 29040, Note_on_c, 0, 62, 96
2, 29232, Note_off_c, 0, 62, 64
2, 29232, Note_off_c, 0, 71, 64
2, 29280, Note_on_c, 0, 73, 96
2, 29280, Note_on_c, 0, 64, 96
2, 29472, Note_off_c, 0, 73, 64
2, 29520, Note_on_c, 0, 71, 96
2, 29616, Note_off_c, 0, 71, 64
2, 29640, Note_on_c, 0, 73, 96
2, 29664, Note_off_c, 0, 64, 64
2, 29736, Note_off_c, 0, 73, 64
2, 29760, Note_on_c, 0, 62, 96
2, 29760, Note_on_c, 0, 74, 96
2, 29952, Note_off_c, 0, 62, 64
2, 30000, Note_on_c, 0, 64, 96
2, 30144, Note_off_c, 0, 74, 64
2, 30192, Note_off_c, 0, 64, 64
2, 30240, Note_on_c, 0, 66, 96
2, 30240, Note_on_c, 0, 72, 96
2, 30432, Note_off_c, 0, 66, 64
2, 30480, Note_on_c, 0, 64, 96
2, 30576, Note_off_c, 0, 64, 64
2, 30600, Note_on_c, 0, 66, 96
2, 30624, Note_off_c, 0, 72, 64
2, 30696, Note_off_c, 0, 66, 64
2, 30720, Note_on_c, 0, 67, 96
2, 30720, Note_on_c, 0, 70, 96
2, 31104, Note_off_c, 0, 70, 64
2, 31104, Note_off_c, 0, 67, 64
2, 31200, Note_on_c, 0, 65, 96
2, 31200, Note_on_c, 0, 69, 96
2, 31584, Note_off_c, 0, 69, 64
2, 31584, Note_off_c, 0, 65, 64
2, 31680, Note_on_c, 0, 64, 96
2, 31680, Note_on_c, 0, 67, 96
2, 31872, Note_off_c, 0, 67, 64
2, 31872, Note_off_c, 0, 64, 64
2, 31920, Note_on_c, 0, 69, 96
2, 31920, Note_on_c, 0, 65, 96
2, 32112, Note_off_c, 0, 65, 64
2, 32112, Note_off_c, 0, 69, 64
2, 32160, Note_on_c, 0, 70, 96
2, 32160, Note_on_c, 0, 67, 96
2, 32352, Note_off_c, 0, 67, 64
2, 32352, Note_off_c, 0, 70, 64
2, 32400, Note_on_c, 0, 69, 96
2, 32400, Note_on_c, 0, 65, 96
2, 32496, Note_off_c, 0, 65, 64
2, 32496, Note_off_c, 0, 69, 64
2, 32520, Note_on_c, 0, 67, 96
2, 32520, Note_on_c, 0, 70, 96
2, 32616, Note_off_c, 0, 70, 64
2, 32616, Note_off_c, 0, 67, 64
2, 32640, Note_on_c, 0, 69, 96
2, 32640, Note_on_c, 0, 72, 96
2, 32832, Note_off_c, 0, 72, 64
2, 32832, Note_off_c, 0, 69, 64
2, 32880, Note_on_c, 0, 77, 96
2, 32880, Note_on_c, 0, 67, 96
2, 32976, Note_off_c, 0, 77, 64
2, 33000, Note_on_c, 0, 76, 96
2, 33072, Note_off_c, 0, 67, 64
2, 33096, Note_off_c, 0, 76, 64
2, 33120, Note_on_c, 0, 65, 96
2, 33120, Note_on_c, 0, 74, 96
2, 33312, Note_off_c, 0, 74, 64
2, 33312, Note_off_c, 0, 65, 64
2, 33360, Note_on_c, 0, 70, 96
2, 33360, Note_on_c, 0, 79, 96
2, 33456, Note_off_c, 0, 79, 64
2, 33480, Note_on_c, 0, 77, 96
2, 33576, Note_off_c, 0, 77, 64
2, 33600, Note_on_c, 0, 76, 96
2, 33696, Note_off_c, 0, 76, 64
2, 33720, Note_on_c, 0, 72, 96
2, 33792, Note_off_c, 0, 70, 64
2, 33816, Note_off_c, 0, 72, 64
2, 33840, Note_on_c, 0, 69, 96
2, 33840, Note_on_c, 0, 77, 96
2, 34032, Note_off_c, 0, 69, 64
2, 34080, Note_on_c, 0, 67, 96
2, 34224, Note_off_c, 0, 77, 64
2, 34272, Note_off_c, 0, 67, 64
2, 34320, Note_on_c, 0, 75, 96
2, 34320, Note_on_c, 0, 72, 96
2, 34512, Note_off_c, 0, 75, 64
2, 34560, Note_on_c, 0, 74, 96
2, 34752, Note_off_c, 0, 72, 64
2, 34800, Note_on_c, 0, 70, 96
2, 34944, Note_off_c, 0, 74, 64
2, 35040, Note_on_c, 0, 72, 96
2, 35184, Note_off_c, 0, 70, 64
2, 35280, Note_on_c, 0, 69, 96
2, 35424, Note_off_c, 0, 72, 64
2, 35520, Note_on_c, 0, 70, 96
2, 35712, Note_off_c, 0, 69, 64
2, 35760, Note_on_c, 0, 67, 96
2, 35856, Note_off_c, 0, 67, 64
2, 35880, Note_on_c, 0, 65, 96
2, 35976, Note_off_c, 0, 65, 64
2, 36000, Note_on_c, 0, 64, 96
2, 36192, Note_off_c, 0, 64, 64
2, 36240, Note_on_c, 0, 65, 96
2, 36288, Note_off_c, 0, 70, 64
2, 36336, Note_off_c, 0, 65, 64
2, 36360, Note_on_c, 0, 67, 96
2, 36456, Note_off_c, 0, 67, 64
2, 36480, Note_on_c, 0, 69, 96
2, 36480, Note_on_c, 0, 61, 96
2, 36864, Note_off_c, 0, 61, 64
2, 36864, Note_off_c, 0, 69, 64
2, 36960, Note_on_c, 0, 62, 96
2, 37152, Note_off_c, 0, 62, 64
2, 37200, Note_on_c, 0, 64, 96
2, 37296, Note_off_c, 0, 64, 64
2, 37320, Note_on_c, 0, 65, 96
2, 37416, Note_off_c, 0, 65, 64
2, 37440, Note_on_c, 0, 64, 96
2, 37632, Note_off_c, 0, 64, 64
2, 37680, Note_on_c, 0, 66, 96
2, 37776, Note_off_c, 0, 66, 64
2, 37800, Note_on_c, 0, 67, 96
2, 37896, Note_off_c, 0, 67, 64
2, 37920, Note_on_c, 0, 66, 96
2, 38208, Note_off_c, 0, 66, 64
2, 38280, Note_on_c, 0, 67, 96
2, 38376, Note_off_c, 0, 67, 64
2, 38400, Note_on_c, 0, 67, 96
2, 38592, Note_off_c, 0, 67, 64
2, 38640, Note_on_c, 0, 65, 96
2, 38736, Note_off_c, 0, 65, 64
2, 38760, Note_on_c, 0, 64, 96
2, 38856, Note_off_c, 0, 64, 64
2, 38880, Note_on_c, 0, 62, 96
2, 38880, Note_on_c, 0, 74, 96
2, 39072, Note_off_c, 0, 62, 64
2, 39264, Note_off_c, 0, 74, 64
2, 39360, Note_on_c, 0, 73, 96
2, 39744, Note_off_c, 0, 73, 64
2, 39840, Note_on_c, 0, 72, 96
2, 40224, Note_off_c, 0, 72, 64
2, 40320, Note_on_c, 0, 71, 96
2, 40704, Note_off_c, 0, 71, 64
2, 40800, Note_on_c, 0, 70, 96
2, 40992, Note_off_c, 0, 70, 64
2, 41040, Note_on_c, 0, 69, 96
2, 41136, Note_off_c, 0, 69, 64
2, 41160, Note_on_c, 0, 67, 96
2, 41256, Note_off_c, 0, 67, 64
2, 41280, Note_on_c, 0, 69, 96
2, 41856, Note_off_c, 0, 69, 64
2, 42000, Note_on_c, 0, 74, 96
2, 42192, Note_off_c, 0, 74, 64
2, 42240, Note_on_c, 0, 67, 96
2, 42816, Note_off_c, 0, 67, 64
2, 42960, Note_on_c, 0, 69, 96
2, 43056, Note_off_c, 0, 69, 64
2, 43080, Note_on_c, 0, 67, 96
2, 43176, Note_off_c, 0, 67, 64
2, 43200, Note_on_c, 0, 66, 96
2, 43392, Note_off_c, 0, 66, 64
2, 43440, Note_on_c, 0, 64, 96
2, 43536, Note_off_c, 0, 64, 64
2, 43560, Note_on_c, 0, 62, 96
2, 43656, Note_off_c, 0, 62, 64
2, 43680, Note_on_c, 0, 62, 96
2, 43680, Note_on_c, 0, 67, 96
2, 44064, Note_off_c, 0, 62, 64
2, 44160, Note_on_c, 0, 69, 96
2, 44352, Note_off_c, 0, 67, 64
2, 44400, Note_on_c, 0, 66, 96
2, 44496, Note_off_c, 0, 66, 64
2, 44520, Note_on_c, 0, 64, 96
2, 44616, Note_off_c, 0, 64, 64
2, 44640, Note_on_c, 0, 66, 96
2, 44736, Note_off_c, 0, 69, 64
2, 44880, Note_on_c, 0, 69, 96
2, 45024, Note_off_c, 0, 66, 64
2, 45072, Note_off_c, 0, 69, 64
2, 45120, Note_on_c, 0, 70, 96
2, 45120, Note_on_c, 0, 67, 96
2, 45312, Note_off_c, 0, 70, 64
2, 45360, Note_on_c, 0, 69, 96
2, 45456, Note_off_c, 0, 69, 64
2, 45480, Note_on_c, 0, 67, 96
2, 45504, Note_off_c, 0, 67, 64
2, 45576, Note_off_c, 0, 67, 64
2, 45600, Note_on_c, 0, 65, 96
2, 45792, Note_off_c, 0, 65, 64
2, 45840, Note_on_c, 0, 77, 96
2, 45840, Note_on_c, 0, 67, 96
2, 46032, Note_off_c, 0, 67, 64
2, 46032, Note_off_c, 0, 77, 64
2, 46080, Note_on_c, 0, 69, 96
2, 46272, Note_off_c, 0, 69, 64
2, 46320, Note_on_c, 0, 67, 96
2, 46416, Note_off_c, 0, 67, 64
2, 46440, Note_on_c, 0, 65, 96
2, 46464, Note_off_c, 0, 76, 64
2, 46536, Note_off_c, 0, 65, 64
2, 46560, Note_on_c, 0, 81, 96
2, 46560, Note_on_c, 0, 64, 96
2, 46656, Note_off_c, 0, 81, 64
2, 46680, Note_on_c, 0, 79, 96
2, 46752, Note_off_c, 0, 64, 64
2, 46776, Note_off_c, 0, 79, 64
2, 46800, Note_on_c, 0, 65, 96
2, 46800, Note_on_c, 0, 77, 96
2, 46896, Note_off_c, 0, 77, 64
2, 46920, Note_on_c, 0, 76, 96
2, 46992, Note_off_c, 0, 65, 64
2, 47016, Note_off_c, 0, 76, 64
2, 47040, Note_on_c, 0, 67, 96
2, 47040, Note_on_c, 0, 74, 96
2, 47232, Note_off_c, 0, 67, 64
2, 47280, Note_on_c, 0, 62, 96
2, 47472, Note_off_c, 0, 62, 64
2, 47520, Note_on_c, 0, 67, 96
2, 47616, Note_off_c, 0, 74, 64
2, 47640, Note_on_c, 0, 82, 96
2, 47736, Note_off_c, 0, 82, 64
2, 47760, Note_on_c, 0, 81, 96
2, 47856, Note_off_c, 0, 81, 64
2, 47880, Note_on_c, 0, 79, 96
2, 47976, Note_off_c, 0, 79, 64
2, 48000, Note_on_c, 0, 84, 96
2, 48192, Note_off_c, 0, 67, 64
2, 48240, Note_on_c, 0, 65, 96
2, 48336, Note_off_c, 0, 65, 64
2, 48360, Note_on_c, 0, 64, 96
2, 48456, Note_off_c, 0, 64, 64
2, 48480, Note_on_c, 0, 65, 96
2, 48576, Note_off_c, 0, 84, 64
2, 48600, Note_on_c, 0, 84, 96
2, 48696, Note_off_c, 0, 84, 64
2, 48720, Note_on_c, 0, 82, 96
2, 48816, Note_off_c, 0, 82, 64
2, 48840, Note_on_c, 0, 81, 96
2, 48936, Note_off_c, 0, 81, 64
2, 48960, Note_on_c, 0, 82, 96
2, 49152, Note_off_c, 0, 65, 64
2, 49200, Note_on_c, 0, 64, 96
2, 49296, Note_off_c, 0, 64, 64
2, 49320, Note_on_c, 0, 62, 96
2, 49416, Note_off_c, 0, 62, 64
2, 49440, Note_on_c, 0, 64, 96
2, 49536, Note_off_c, 0, 82, 64
2, 49560, Note_on_c, 0, 82, 96
2, 49656, Note_off_c, 0, 82, 64
2, 49680, Note_on_c, 0, 81, 96
2, 49776, Note_off_c, 0, 81, 64
2, 49800, Note_on_c, 0, 79, 96
2, 49896, Note_off_c, 0, 79, 64
2, 49920, Note_on_c, 0, 81, 96
2, 50016, Note_off_c, 0, 81, 64
2, 50040, Note_on_c, 0, 69, 96
2, 50112, Note_off_c, 0, 64, 64
2, 50136, Note_off_c, 0, 69, 64
2, 50160, Note_on_c, 0, 57, 96
2, 50160, Note_on_c, 0, 71, 96
2, 50256, Note_off_c, 0, 71, 64
2, 50280, Note_on_c, 0, 73, 96
2, 50352, Note_off_c, 0, 57, 64
2, 50376, Note_off_c, 0, 73, 64
2, 50400, Note_on_c, 0, 62, 96
2, 50400, Note_on_c, 0, 74, 96
2, 50448, Note_off_c, 0, 74, 64
2, 50460, Note_on_c, 0, 76, 96
2, 50508, Note_off_c, 0, 76, 64
2, 50520, Note_on_c, 0, 77, 96
2, 50616, Note_off_c, 0, 77, 64
2, 50640, Note_on_c, 0, 76, 96
2, 50736, Note_off_c, 0, 76, 64
2, 50760, Note_on_c, 0, 74, 96
2, 50856, Note_off_c, 0, 74, 64
2, 50880, Note_on_c, 0, 79, 96
2, 51072, Note_off_c, 0, 62, 64
2, 51120, Note_on_c, 0, 61, 96
2, 51216, Note_off_c, 0, 61, 64
2, 51240, Note_on_c, 0, 59, 96
2, 51336, Note_off_c, 0, 59, 64
2, 51360, Note_on_c, 0, 61, 96
2, 51456, Note_off_c, 0, 79, 64
2, 51600, Note_on_c, 0, 77, 96
2, 51696, Note_off_c, 0, 77, 64
2, 51720, Note_on_c, 0, 76, 96
2, 51744, Note_off_c, 0, 61, 64
2, 51816, Note_off_c, 0, 76, 64
2, 51840, Note_on_c, 0, 77, 96
2, 51840, Note_on_c, 0, 62, 96
2, 52032, Note_off_c, 0, 77, 64
2, 52080, Note_on_c, 0, 81, 96
2, 52176, Note_off_c, 0, 81, 64
2, 52200, Note_on_c, 0, 79, 96
2, 52224, Note_off_c, 0, 62, 64
2, 52296, Note_off_c, 0, 79, 64
2, 52320, Note_on_c, 0, 77, 96
2, 52416, Note_off_c, 0, 77, 64
2, 52440, Note_on_c, 0, 79, 96
2, 52536, Note_off_c, 0, 79, 64
2, 52560, Note_on_c, 0, 77, 96
2, 52656, Note_off_c, 0, 77, 64
2, 52680, Note_on_c, 0, 76, 96
2, 52776, Note_off_c, 0, 76, 64
2, 52800, Note_on_c, 0, 74, 96
2, 52992, Note_off_c, 0, 74, 64
2, 53040, Note_on_c, 0, 72, 96
2, 53136, Note_off_c, 0, 72, 64
2, 53160, Note_on_c, 0, 74, 96
2, 53256, Note_off_c, 0, 74, 64
2, 53280, Note_on_c, 0, 69, 96
2, 53280, Note_on_c, 0, 76, 96
2, 53472, Note_off_c, 0, 76, 64
2, 53520, Note_on_c, 0, 74, 96
2, 53616, Note_off_c, 0, 74, 64
2, 53640, Note_on_c, 0, 72, 96
2, 53664, Note_off_c, 0, 69, 64
2, 53736, Note_off_c, 0, 72, 64
2, 53760, Note_on_c, 0, 71, 96
2, 53760, Note_on_c, 0, 68, 96
2, 54048, Note_off_c, 0, 71, 64
2, 54120, Note_on_c, 0, 72, 96
2, 54144, Note_off_c, 0, 68, 64
2, 54216, Note_off_c, 0, 72, 64
2, 54240, Note_on_c, 0, 67, 96
2, 54240, Note_on_c, 0, 74, 96
2, 54336, Note_off_c, 0, 74, 64
2, 54360, Note_on_c, 0, 73, 96
2, 54456, Note_off_c, 0, 73, 64
2, 54480, Note_on_c, 0, 74, 96
2, 54576, Note_off_c, 0, 74, 64
2, 54600, Note_on_c, 0, 76, 96
2, 54624, Note_off_c, 0, 67, 64
2, 54696, Note_off_c, 0, 76, 64
2, 54720, Note_on_c, 0, 66, 96
2, 54720, Note_on_c, 0, 69, 96
2, 54912, Note_off_c, 0, 69, 64
2, 54960, Note_on_c, 0, 71, 96
2, 55056, Note_off_c, 0, 71, 64
2, 55080, Note_on_c, 0, 72, 96
2, 55104, Note_off_c, 0, 66, 64
2, 55176, Note_off_c, 0, 72, 64
2, 55200, Note_on_c, 0, 65, 96
2, 55200, Note_on_c, 0, 71, 96
2, 55392, Note_off_c, 0, 71, 64
2, 55440, Note_on_c, 0, 72, 96
2, 55536, Note_off_c, 0, 72, 64
2, 55560, Note_on_c, 0, 74, 96
2, 55584, Note_off_c, 0, 65, 64
2, 55656, Note_off_c, 0, 74, 64
2, 55680, Note_on_c, 0, 68, 96
2, 55680, Note_on_c, 0, 64, 96
2, 55872, Note_off_c, 0, 68, 64
2, 55920, Note_on_c, 0, 66, 96
2, 56016, Note_off_c, 0, 66, 64
2, 56040, Note_on_c, 0, 64, 96
2, 56136, Note_off_c, 0, 64, 64
2, 56160, Note_on_c, 0, 69, 96
2, 56256, Note_off_c, 0, 64, 64
2, 56400, Note_on_c, 0, 57, 96
2, 56448, Note_off_c, 0, 69, 64
2, 56520, Note_on_c, 0, 67, 96
2, 56592, Note_off_c, 0, 57, 64
2, 56616, Note_off_c, 0, 67, 64
2, 56640, Note_on_c, 0, 62, 96
2, 56640, Note_on_c, 0, 66, 96
2, 56832, Note_off_c, 0, 66, 64
2, 56880, Note_on_c, 0, 68, 96
2, 56976, Note_off_c, 0, 68, 64
2, 57000, Note_on_c, 0, 69, 96
2, 57096, Note_off_c, 0, 69, 64
2, 57120, Note_on_c, 0, 68, 96
2, 57312, Note_off_c, 0, 68, 64
2, 57360, Note_on_c, 0, 74, 96
2, 57408, Note_off_c, 0, 62, 64
2, 57600, Note_on_c, 0, 64, 96
2, 57792, Note_off_c, 0, 74, 64
2, 57840, Note_on_c, 0, 72, 96
2, 57936, Note_off_c, 0, 72, 64
2, 57960, Note_on_c, 0, 71, 96
2, 58056, Note_off_c, 0, 71, 64
2, 58080, Note_on_c, 0, 72, 96
2, 58176, Note_off_c, 0, 64, 64
2, 58272, Note_off_c, 0, 72, 64
2, 58320, Note_on_c, 0, 66, 96
2, 58320, Note_on_c, 0, 74, 96
2, 58512, Note_off_c, 0, 66, 64
2, 58560, Note_on_c, 0, 67, 96
2, 58752, Note_off_c, 0, 74, 64
2, 58800, Note_on_c, 0, 76, 96
2, 58944, Note_off_c, 0, 67, 64
2, 58992, Note_off_c, 0, 76, 64
2, 59040, Note_on_c, 0, 69, 96
2, 59040, Note_on_c, 0, 77, 96
2, 59424, Note_off_c, 0, 69, 64
2, 59520, Note_on_c, 0, 69, 96
2, 59712, Note_off_c, 0, 77, 64
2, 59760, Note_on_c, 0, 76, 96
2, 59856, Note_off_c, 0, 76, 64
2, 59880, Note_on_c, 0, 74, 96
2, 59976, Note_off_c, 0, 74, 64
2, 60000, Note_on_c, 0, 76, 96
2, 60288, Note_off_c, 0, 69, 64
2, 60480, Note_on_c, 0, 67, 96
2, 60672, Note_off_c, 0, 76, 64
2, 60720, Note_on_c, 0, 74, 96
2, 60816, Note_off_c, 0, 74, 64
2, 60840, Note_on_c, 0, 73, 96
2, 60936, Note_off_c, 0, 73, 64
2, 60960, Note_on_c, 0, 74, 96
2, 61056, Note_off_c, 0, 67, 64
2, 61200, Note_on_c, 0, 69, 96
2, 61296, Note_off_c, 0, 69, 64
2, 61320, Note_on_c, 0, 70, 96
2, 61344, Note_off_c, 0, 74, 64
2, 61416, Note_off_c, 0, 70, 64
2, 61440, Note_on_c, 0, 64, 96
2, 61440, Note_on_c, 0, 73, 96
2, 61632, Note_off_c, 0, 64, 64
2, 61824, Note_off_c, 0, 73, 64
2, 61920, Note_on_c, 0, 72, 96
2, 62160, Note_on_c, 0, 69, 96
2, 62304, Note_off_c, 0, 72, 64
2, 62352, Note_off_c, 0, 69, 64
2, 62400, Note_on_c, 0, 67, 96
2, 62400, Note_on_c, 0, 71, 96
2, 62592, Note_off_c, 0, 67, 64
2, 62640, Note_on_c, 0, 65, 96
2, 62736, Note_off_c, 0, 65, 64
2, 62760, Note_on_c, 0, 64, 96
2, 62784, Note_off_c, 0, 71, 64
2, 62856, Note_off_c, 0, 64, 64
2, 62880, Note_on_c, 0, 70, 96
2, 62880, Note_on_c, 0, 62, 96
2, 63072, Note_off_c, 0, 62, 64
2, 63120, Note_on_c, 0, 64, 96
2, 63264, Note_off_c, 0, 70, 64
2, 63312, Note_off_c, 0, 64, 64
2, 63360, Note_on_c, 0, 65, 96
2, 63360, Note_on_c, 0, 69, 96
2, 63936, Note_off_c, 0, 69, 64
2, 64080, Note_on_c, 0, 72, 96
2, 64176, Note_off_c, 0, 72, 64
2, 64200, Note_on_c, 0, 69, 96
2, 64296, Note_off_c, 0, 69, 64
2, 64320, Note_on_c, 0, 69, 92
2, 64320, Note_on_c, 0, 74, 96
2, 64512, Note_off_c, 0, 74, 64
2, 64560, Note_on_c, 0, 77, 96
2, 64656, Note_off_c, 0, 77, 64
2, 64680, Note_on_c, 0, 74, 96
2, 64704, Note_off_c, 0, 65, 64
2, 64704, Note_off_c, 0, 69, 64
2, 64776, Note_off_c, 0, 74, 64
2, 64800, Note_on_c, 0, 79, 96
2, 64800, Note_on_c, 0, 67, 92
2, 64800, Note_on_c, 0, 64, 96
2, 64992, Note_off_c, 0, 79, 64
2, 65040, Note_on_c, 0, 81, 96
2, 65136, Note_off_c, 0, 81, 64
2, 65160, Note_on_c, 0, 82, 96
2, 65184, Note_off_c, 0, 64, 64
2, 65184, Note_off_c, 0, 67, 64
2, 65256, Note_off_c, 0, 82, 64
2, 65280, Note_on_c, 0, 65, 96
2, 65280, Note_on_c, 0, 74, 96
2, 65280, Note_on_c, 0, 68, 96
2, 65568, Note_off_c, 0, 68, 64
2, 65568, Note_off_c, 0, 74, 64
2, 65568, Note_off_c, 0, 65, 64
2, 65640, Note_on_c, 0, 74, 96
2, 65640, Note_on_c, 0, 68, 96
2, 65640, Note_on_c, 0, 65, 96
2, 65736, Note_off_c, 0, 65, 64
2, 65736, Note_off_c, 0, 68, 64
2, 65736, Note_off_c, 0, 74, 64
2, 65760, Note_on_c, 0, 74, 96
2, 65760, Note_on_c, 0, 65, 96
2, 65760, Note_on_c, 0, 68, 96
2, 65952, Note_off_c, 0, 68, 64
2, 65952, Note_off_c, 0, 65, 64
2, 65952, Note_off_c, 0, 74, 64
2, 66000, Note_on_c, 0, 76, 96
2, 66000, Note_on_c, 0, 68, 96
2, 66000, Note_on_c, 0, 64, 96
2, 66096, Note_off_c, 0, 64, 64
2, 66096, Note_off_c, 0, 76, 64
2, 66120, Note_on_c, 0, 62, 96
2, 66120, Note_on_c, 0, 77, 96
2, 66168, Note_off_c, 0, 77, 64
2, 66180, Note_on_c, 0, 79, 96
2, 66192, Note_off_c, 0, 68, 64
2, 66216, Note_off_c, 0, 62, 64
2, 66228, Note_off_c, 0, 79, 64
2, 66240, Note_on_c, 0, 64, 96
2, 66240, Note_on_c, 0, 74, 92
2, 66240, Note_on_c, 0, 69, 96
2, 66270, Note_off_c, 0, 74, 64
2, 66360, Note_on_c, 0, 73, 96
2, 67008, Note_off_c, 0, 69, 64
2, 67008, Note_off_c, 0, 64, 64
2, 67128, Note_off_c, 0, 73, 64
2, 67440, Note_on_c, 0, 62, 110
2, 67632, Note_off_c, 0, 62, 64
2, 67680, Note_on_c, 0, 69, 110
2, 68256, Note_off_c, 0, 69, 64
2, 68400, Note_on_c, 0, 69, 110
2, 68592, Note_off_c, 0, 69, 64
2, 68640, Note_on_c, 0, 70, 110
2, 68832, Note_off_c, 0, 70, 64
2, 68880, Note_on_c, 0, 70, 110
2, 69072, Note_off_c, 0, 70, 64
2, 69120, Note_on_c, 0, 65, 110
2, 69696, Note_off_c, 0, 65, 64
2, 69840, Note_on_c, 0, 67, 110
2, 70032, Note_off_c, 0, 67, 64
2, 70080, Note_on_c, 0, 69, 110
2, 70272, Note_off_c, 0, 69, 64
2, 70320, Note_on_c, 0, 69, 110
2, 70512, Note_off_c, 0, 69, 64
2, 70560, Note_on_c, 0, 64, 110
2, 71136, Note_off_c, 0, 64, 64
2, 71280, Note_on_c, 0, 66, 110
2, 71472, Note_off_c, 0, 66, 64
2, 71520, Note_on_c, 0, 67, 110
2, 71712, Note_off_c, 0, 67, 64
2, 71760, Note_on_c, 0, 62, 110
2, 71952, Note_off_c, 0, 62, 64
2, 72000, Note_on_c, 0, 67, 110
2, 73152, Note_off_c, 0, 67, 64
2, 73200, Note_on_c, 0, 60, 110
2, 73392, Note_off_c, 0, 60, 64
2, 73440, Note_on_c, 0, 65, 110
2, 74592, Note_off_c, 0, 65, 64
2, 74640, Note_on_c, 0, 59, 110
2, 74832, Note_off_c, 0, 59, 64
2, 74880, Note_on_c, 0, 64, 110
2, 76032, Note_off_c, 0, 64, 64
2, 76080, Note_on_c, 0, 57, 110
2, 76272, Note_off_c, 0, 57, 64
2, 76320, Note_on_c, 0, 62, 110
2, 77520, Note_on_c, 0, 69, 110
2, 77712, Note_off_c, 0, 69, 64
2, 77760, Note_on_c, 0, 76, 110
2, 78048, Note_off_c, 0, 62, 64
2, 78240, Note_on_c, 0, 61, 110
2, 78336, Note_off_c, 0, 76, 64
2, 78480, Note_on_c, 0, 76, 110
2, 78624, Note_off_c, 0, 61, 64
2, 78672, Note_off_c, 0, 76, 64
2, 78720, Note_on_c, 0, 62, 110
2, 78720, Note_on_c, 0, 77, 110
2, 78912, Note_off_c, 0, 77, 64
2, 78960, Note_on_c, 0, 77, 110
2, 79104, Note_off_c, 0, 62, 64
2, 79152, Note_off_c, 0, 77, 64
2, 79200, Note_on_c, 0, 72, 110
2, 79200, Note_on_c, 0, 64, 110
2, 79776, Note_off_c, 0, 72, 64
2, 79920, Note_on_c, 0, 74, 110
2, 80112, Note_off_c, 0, 74, 64
2, 80160, Note_on_c, 0, 76, 110
2, 80352, Note_off_c, 0, 76, 64
2, 80400, Note_on_c, 0, 76, 110
2, 80592, Note_off_c, 0, 76, 64
2, 80640, Note_on_c, 0, 71, 110
2, 80928, Note_off_c, 0, 64, 64
2, 81216, Note_off_c, 0, 71, 64
2, 81360, Note_on_c, 0, 73, 110
2, 81552, Note_off_c, 0, 73, 64
2, 81600, Note_on_c, 0, 74, 110
2, 81792, Note_off_c, 0, 74, 64
2, 81840, Note_on_c, 0, 69, 110
2, 82032, Note_off_c, 0, 69, 64
2, 82080, Note_on_c, 0, 74, 110
2, 83232, Note_off_c, 0, 74, 64
2, 83280, Note_on_c, 0, 67, 110
2, 83472, Note_off_c, 0, 67, 64
2, 83520, Note_on_c, 0, 72, 110
2, 84672, Note_off_c, 0, 72, 64
2, 84720, Note_on_c, 0, 66, 110
2, 84912, Note_off_c, 0, 66, 64
2, 84960, Note_on_c, 0, 71, 110
2, 86112, Note_off_c, 0, 71, 64
2, 86160, Note_on_c, 0, 64, 110
2, 86352, Note_off_c, 0, 64, 64
2, 86400, Note_on_c, 0, 69, 110
2, 88128, Note_off_c, 0, 69, 64
2, 88320, Note_on_c, 0, 68, 110
2, 88704, Note_off_c, 0, 68, 64
2, 88800, Note_on_c, 0, 69, 110
2, 88992, Note_off_c, 0, 69, 64
2, 89040, Note_on_c, 0, 71, 110
2, 89232, Note_off_c, 0, 71, 64
2, 89280, Note_on_c, 0, 72, 110
2, 89472, Note_off_c, 0, 72, 64
2, 89520, Note_on_c, 0, 74, 110
2, 89712, Note_off_c, 0, 74, 64
2, 89760, Note_on_c, 0, 76, 110
2, 89760, Note_on_c, 0, 69, 110
2, 89952, Note_off_c, 0, 76, 64
2, 90000, Note_on_c, 0, 77, 110
2, 90144, Note_off_c, 0, 69, 64
2, 90192, Note_off_c, 0, 77, 64
2, 90240, Note_on_c, 0, 68, 110
2, 90240, Note_on_c, 0, 71, 110
2, 90816, Note_off_c, 0, 71, 64
2, 90960, Note_on_c, 0, 73, 110
2, 91008, Note_off_c, 0, 68, 64
2, 91152, Note_off_c, 0, 73, 64
2, 91200, Note_on_c, 0, 67, 110
2, 91200, Note_on_c, 0, 74, 110
2, 91392, Note_off_c, 0, 74, 64
2, 91440, Note_on_c, 0, 76, 110
2, 91584, Note_off_c, 0, 67, 64
2, 91632, Note_off_c, 0, 76, 64
2, 91680, Note_on_c, 0, 69, 110
2, 91680, Note_on_c, 0, 66, 110
2, 92256, Note_off_c, 0, 66, 64
2, 92400, Note_on_c, 0, 64, 110
2, 92448, Note_off_c, 0, 69, 64
2, 92592, Note_off_c, 0, 64, 64
2, 92640, Note_on_c, 0, 71, 110
2, 92640, Note_on_c, 0, 65, 110
2, 92832, Note_off_c, 0, 65, 64
2, 92880, Note_on_c, 0, 62, 110
2, 93120, Note_on_c, 0, 64, 110
2, 93264, Note_off_c, 0, 62, 64
2, 93504, Note_off_c, 0, 71, 64
2, 93600, Note_on_c, 0, 69, 110
2, 93696, Note_off_c, 0, 64, 64
2, 93840, Note_on_c, 0, 62, 110
2, 94032, Note_off_c, 0, 62, 64
2, 94080, Note_on_c, 0, 64, 110
2, 94272, Note_off_c, 0, 64, 64
2, 94320, Note_on_c, 0, 60, 110
2, 94512, Note_off_c, 0, 60, 64
2, 94560, Note_on_c, 0, 62, 110
2, 94944, Note_off_c, 0, 69, 64
2, 95040, Note_on_c, 0, 67, 110
2, 95136, Note_off_c, 0, 62, 64
2, 95280, Note_on_c, 0, 60, 110
2, 95472, Note_off_c, 0, 60, 64
2, 95520, Note_on_c, 0, 62, 110
2, 95712, Note_off_c, 0, 62, 64
2, 95760, Note_on_c, 0, 59, 110
2, 95952, Note_off_c, 0, 59, 64
2, 96000, Note_on_c, 0, 60, 110
2, 96384, Note_off_c, 0, 67, 64
2, 96480, Note_on_c, 0, 65, 110
2, 96576, Note_off_c, 0, 60, 64
2, 96720, Note_on_c, 0, 59, 110
2, 96912, Note_off_c, 0, 59, 64
2, 96960, Note_on_c, 0, 60, 110
2, 97152, Note_off_c, 0, 60, 64
2, 97200, Note_on_c, 0, 57, 110
2, 97248, Note_off_c, 0, 65, 64
2, 97392, Note_off_c, 0, 57, 64
2, 97440, Note_on_c, 0, 62, 110
2, 97440, Note_on_c, 0, 59, 110
2, 97632, Note_off_c, 0, 62, 64
2, 97680, Note_on_c, 0, 65, 110
2, 97872, Note_off_c, 0, 65, 64
2, 97920, Note_on_c, 0, 64, 110
2, 98208, Note_off_c, 0, 59, 64
2, 98400, Note_on_c, 0, 58, 110
2, 98496, Note_off_c, 0, 64, 64
2, 98640, Note_on_c, 0, 62, 110
2, 98784, Note_off_c, 0, 58, 64
2, 98832, Note_off_c, 0, 62, 64
2, 98880, Note_on_c, 0, 61, 110
2, 98880, Note_on_c, 0, 57, 110
2, 99072, Note_off_c, 0, 57, 64
2, 99120, Note_on_c, 0, 64, 110
2, 99312, Note_off_c, 0, 64, 64
2, 99360, Note_on_c, 0, 69, 110
2, 99456, Note_off_c, 0, 61, 64
2, 99600, Note_on_c, 0, 57, 105
2, 99792, Note_off_c, 0, 57, 64
2, 99840, Note_on_c, 0, 62, 110
2, 99936, Note_off_c, 0, 69, 64
2, 100080, Note_on_c, 0, 70, 110
2, 100272, Note_off_c, 0, 70, 64
2, 100320, Note_on_c, 0, 67, 110
2, 100704, Note_off_c, 0, 67, 64
2, 100800, Note_on_c, 0, 64, 110
2, 100992, Note_off_c, 0, 64, 64
2, 101040, Note_on_c, 0, 65, 110
2, 101088, Note_off_c, 0, 62, 64
2, 101232, Note_off_c, 0, 65, 64
2, 101280, Note_on_c, 0, 67, 110
2, 101280, Note_on_c, 0, 61, 110
2, 101472, Note_off_c, 0, 67, 64
2, 101520, Note_on_c, 0, 69, 110
2, 101664, Note_off_c, 0, 61, 64
2, 101712, Note_off_c, 0, 69, 64
2, 101760, Note_on_c, 0, 65, 110
2, 101760, Note_on_c, 0, 62, 110
2, 102144, Note_off_c, 0, 62, 64
2, 102144, Note_off_c, 0, 65, 64
2, 102240, Note_on_c, 0, 66, 110
2, 102816, Note_off_c, 0, 66, 64
2, 102960, Note_on_c, 0, 66, 110
2, 103152, Note_off_c, 0, 66, 64
2, 103200, Note_on_c, 0, 67, 110
2, 103584, Note_off_c, 0, 67, 64
2, 103680, Note_on_c, 0, 62, 110
2, 104064, Note_off_c, 0, 62, 64
2, 104160, Note_on_c, 0, 70, 110
2, 104160, Note_on_c, 0, 74, 110
2, 104544, Note_off_c, 0, 74, 64
2, 104544, Note_off_c, 0, 70, 64
2, 104640, Note_on_c, 0, 64, 110
2, 104640, Note_on_c, 0, 73, 110
2, 105408, Note_off_c, 0, 73, 64
2, 105408, Note_off_c, 0, 64, 64
2, 105600, Note_on_c, 0, 69, 110
2, 105600, Note_on_c, 0, 72, 110
2, 105984, Note_off_c, 0, 72, 64
2, 105984, Note_off_c, 0, 69, 64
2, 106080, Note_on_c, 0, 71, 110
2, 106080, Note_on_c, 0, 62, 110
2, 106656, Note_off_c, 0, 71, 64
2, 106800, Note_on_c, 0, 69, 110
2, 106848, Note_off_c, 0, 62, 64
2, 106992, Note_off_c, 0, 69, 64
2, 107040, Note_on_c, 0, 70, 110
2, 107040, Note_on_c, 0, 64, 110
2, 107232, Note_off_c, 0, 70, 64
2, 107280, Note_on_c, 0, 67, 110
2, 107424, Note_off_c, 0, 64, 64
2, 107472, Note_off_c, 0, 67, 64
2, 107520, Note_on_c, 0, 69, 110
2, 107520, Note_on_c, 0, 60, 110
2, 107904, Note_off_c, 0, 60, 64
2, 108096, Note_off_c, 0, 69, 64
2, 108240, Note_on_c, 0, 79, 110
2, 108432, Note_off_c, 0, 79, 64
2, 108480, Note_on_c, 0, 81, 110
2, 108672, Note_off_c, 0, 81, 64
2, 108720, Note_on_c, 0, 77, 110
2, 108912, Note_off_c, 0, 77, 64
2, 108960, Note_on_c, 0, 79, 110
2, 109536, Note_off_c, 0, 79, 64
2, 109680, Note_on_c, 0, 77, 110
2, 109872, Note_off_c, 0, 77, 64
2, 109920, Note_on_c, 0, 79, 110
2, 110112, Note_off_c, 0, 79, 64
2, 110160, Note_on_c, 0, 76, 110
2, 110352, Note_off_c, 0, 76, 64
2, 110400, Note_on_c, 0, 77, 110
2, 110976, Note_off_c, 0, 77, 64
2, 111120, Note_on_c, 0, 76, 110
2, 111312, Note_off_c, 0, 76, 64
2, 111360, Note_on_c, 0, 77, 110
2, 111552, Note_off_c, 0, 77, 64
2, 111600, Note_on_c, 0, 79, 110
2, 111792, Note_off_c, 0, 79, 64
2, 111840, Note_on_c, 0, 77, 110
2, 112032, Note_off_c, 0, 77, 64
2, 112080, Note_on_c, 0, 76, 110
2, 112272, Note_off_c, 0, 76, 64
2, 112320, Note_on_c, 0, 76, 110
2, 112896, Note_off_c, 0, 76, 64
2, 113040, Note_on_c, 0, 74, 110
2, 113232, Note_off_c, 0, 74, 64
2, 113280, Note_on_c, 0, 74, 110
2, 113664, Note_off_c, 0, 74, 64
2, 113760, Note_on_c, 0, 69, 110
2, 114240, Note_on_c, 0, 62, 110
2, 114336, Note_off_c, 0, 69, 64
2, 114480, Note_on_c, 0, 70, 110
2, 114624, Note_off_c, 0, 62, 64
2, 114672, Note_off_c, 0, 70, 64
2, 114720, Note_on_c, 0, 61, 110
2, 114720, Note_on_c, 0, 69, 110
2, 115104, Note_off_c, 0, 69, 64
2, 115488, Note_off_c, 0, 61, 64
2, 115680, Note_on_c, 0, 60, 110
2, 116064, Note_off_c, 0, 60, 64
2, 116160, Note_on_c, 0, 59, 110
2, 116736, Note_off_c, 0, 59, 64
2, 116880, Note_on_c, 0, 57, 110
2, 117072, Note_off_c, 0, 57, 64
2, 117120, Note_on_c, 0, 58, 110
2, 117312, Note_off_c, 0, 58, 64
2, 117360, Note_on_c, 0, 55, 110
2, 117552, Note_off_c, 0, 55, 64
2, 117600, Note_on_c, 0, 57, 110
2, 117984, Note_off_c, 0, 57, 64
2, 118080, Note_on_c, 0, 59, 110
2, 118464, Note_off_c, 0, 59, 64
2, 118560, Note_on_c, 0, 61, 110
2, 118944, Note_off_c, 0, 61, 64
2, 119040, Note_on_c, 0, 62, 110
2, 119424, Note_off_c, 0, 62, 64
2, 119520, Note_on_c, 0, 62, 110
2, 119712, Note_off_c, 0, 62, 64
2, 119760, Note_on_c, 0, 65, 110
2, 120336, Note_off_c, 0, 65, 64
2, 120960, Note_on_c, 0, 64, 110
2, 121152, Note_off_c, 0, 64, 64
2, 121200, Note_on_c, 0, 67, 110
2, 122112, Note_off_c, 0, 67, 64
2, 122160, Note_on_c, 0, 60, 110
2, 122352, Note_off_c, 0, 60, 64
2, 122400, Note_on_c, 0, 65, 110
2, 122592, Note_off_c, 0, 65, 64
2, 122640, Note_on_c, 0, 69, 110
2, 123552, Note_off_c, 0, 69, 64
2, 123600, Note_on_c, 0, 62, 110
2, 123792, Note_off_c, 0, 62, 64
2, 123840, Note_on_c, 0, 67, 110
2, 124032, Note_off_c, 0, 67, 64
2, 124080, Note_on_c, 0, 70, 110
2, 124992, Note_off_c, 0, 70, 64
2, 125040, Note_on_c, 0, 69, 110
2, 125424, Note_off_c, 0, 69, 64
2, 125520, Note_on_c, 0, 69, 110
2, 125712, Note_off_c, 0, 69, 64
2, 125760, Note_on_c, 0, 74, 110
2, 125952, Note_off_c, 0, 74, 64
2, 126000, Note_on_c, 0, 68, 110
2, 126192, Note_off_c, 0, 68, 64
2, 126240, Note_on_c, 0, 69, 110
2, 126432, Note_off_c, 0, 69, 64
2, 126480, Note_on_c, 0, 76, 110
2, 127872, Note_off_c, 0, 76, 64
2, 127920, Note_on_c, 0, 69, 110
2, 128112, Note_off_c, 0, 69, 64
2, 128160, Note_on_c, 0, 74, 110
2, 128352, Note_off_c, 0, 74, 64
2, 128400, Note_on_c, 0, 72, 110
2, 128592, Note_off_c, 0, 72, 64
2, 128640, Note_on_c, 0, 70, 110
2, 128832, Note_off_c, 0, 70, 64
2, 128880, Note_on_c, 0, 69, 110
2, 129072, Note_off_c, 0, 69, 64
2, 129120, Note_on_c, 0, 67, 110
2, 129312, Note_off_c, 0, 67, 64
2, 129360, Note_on_c, 0, 65, 110
2, 129360, Note_on_c, 0, 74, 110
2, 129552, Note_off_c, 0, 74, 64
2, 129552, Note_off_c, 0, 65, 64
2, 129600, Note_on_c, 0, 64, 110
2, 129600, Note_on_c, 0, 81, 110
2, 129792, Note_off_c, 0, 64, 64
2, 129840, Note_on_c, 0, 65, 110
2, 130032, Note_off_c, 0, 65, 64
2, 130080, Note_on_c, 0, 64, 110
2, 130176, Note_off_c, 0, 81, 64
2, 130320, Note_on_c, 0, 81, 110
2, 130464, Note_off_c, 0, 64, 64
2, 130512, Note_off_c, 0, 81, 64
2, 130560, Note_on_c, 0, 65, 110
2, 130560, Note_on_c, 0, 82, 110
2, 130752, Note_off_c, 0, 82, 64
2, 130800, Note_on_c, 0, 82, 110
2, 130944, Note_off_c, 0, 65, 64
2, 130992, Note_off_c, 0, 82, 64
2, 131040, Note_on_c, 0, 77, 110
2, 131616, Note_off_c, 0, 77, 64
2, 131760, Note_on_c, 0, 79, 110
2, 131952, Note_off_c, 0, 79, 64
2, 132000, Note_on_c, 0, 81, 110
2, 132192, Note_off_c, 0, 81, 64
2, 132240, Note_on_c, 0, 81, 110
2, 132432, Note_off_c, 0, 81, 64
2, 132480, Note_on_c, 0, 76, 110
2, 133056, Note_off_c, 0, 76, 64
2, 133200, Note_on_c, 0, 78, 110
2, 133392, Note_off_c, 0, 78, 64
2, 133440, Note_on_c, 0, 79, 110
2, 133632, Note_off_c, 0, 79, 64
2, 133680, Note_on_c, 0, 74, 110
2, 133872, Note_off_c, 0, 74, 64
2, 133920, Note_on_c, 0, 79, 110
2, 135072, Note_off_c, 0, 79, 64
2, 135120, Note_on_c, 0, 73, 110
2, 135312, Note_off_c, 0, 73, 64
2, 135360, Note_on_c, 0, 77, 110
2, 136512, Note_off_c, 0, 77, 64
2, 136560, Note_on_c, 0, 71, 110
2, 136752, Note_off_c, 0, 71, 64
2, 136800, Note_on_c, 0, 76, 110
2, 137952, Note_off_c, 0, 76, 64
2, 138000, Note_on_c, 0, 69, 110
2, 138192, Note_off_c, 0, 69, 64
2, 138240, Note_on_c, 0, 74, 110
2, 139392, Note_off_c, 0, 74, 64
2, 139440, Note_on_c, 0, 76, 110
2, 139440, Note_on_c, 0, 62, 110
2, 139632, Note_off_c, 0, 62, 64
2, 139632, Note_off_c, 0, 76, 64
2, 139680, Note_on_c, 0, 73, 110
2, 139680, Note_on_c, 0, 69, 110
2, 140256, Note_off_c, 0, 69, 64
2, 140256, Note_off_c, 0, 73, 64
2, 140400, Note_on_c, 0, 69, 110
2, 140400, Note_on_c, 0, 73, 110
2, 140592, Note_off_c, 0, 73, 64
2, 140592, Note_off_c, 0, 69, 64
2, 140640, Note_on_c, 0, 74, 110
2, 140640, Note_on_c, 0, 70, 110
2, 140832, Note_off_c, 0, 70, 64
2, 140880, Note_on_c, 0, 70, 110
2, 141024, Note_off_c, 0, 74, 64
2, 141072, Note_off_c, 0, 70, 64
2, 141120, Note_on_c, 0, 65, 110
2, 141600, Note_on_c, 0, 74, 110
2, 141696, Note_off_c, 0, 65, 64
2, 141840, Note_on_c, 0, 67, 110
2, 141984, Note_off_c, 0, 74, 64
2, 142032, Note_off_c, 0, 67, 64
2, 142080, Note_on_c, 0, 69, 110
2, 142080, Note_on_c, 0, 73, 110
2, 142272, Note_off_c, 0, 69, 64
2, 142320, Note_on_c, 0, 69, 110
2, 142512, Note_off_c, 0, 69, 64
2, 142560, Note_on_c, 0, 64, 110
2, 142848, Note_off_c, 0, 73, 64
2, 143040, Note_on_c, 0, 72, 110
2, 143136, Note_off_c, 0, 64, 64
2, 143280, Note_on_c, 0, 66, 110
2, 143424, Note_off_c, 0, 72, 64
2, 143472, Note_off_c, 0, 66, 64
2, 143520, Note_on_c, 0, 71, 110
2, 143520, Note_on_c, 0, 67, 110
2, 143712, Note_off_c, 0, 67, 64
2, 143760, Note_on_c, 0, 62, 110
2, 143952, Note_off_c, 0, 62, 64
2, 144000, Note_on_c, 0, 67, 110
2, 144096, Note_off_c, 0, 71, 64
2, 144240, Note_on_c, 0, 69, 110
2, 144432, Note_off_c, 0, 69, 64
2, 144480, Note_on_c, 0, 70, 110
2, 144672, Note_off_c, 0, 70, 64
2, 144720, Note_on_c, 0, 67, 110
2, 144912, Note_off_c, 0, 67, 64
2, 144960, Note_on_c, 0, 69, 110
2, 145152, Note_off_c, 0, 67, 64
2, 145200, Note_on_c, 0, 61, 110
2, 145392, Note_off_c, 0, 61, 64
2, 145440, Note_on_c, 0, 65, 110
2, 145536, Note_off_c, 0, 69, 64
2, 145680, Note_on_c, 0, 69, 110
2, 145872, Note_off_c, 0, 69, 64
2, 145920, Note_on_c, 0, 74, 110
2, 146016, Note_off_c, 0, 65, 64
2, 146160, Note_on_c, 0, 67, 110
2, 146352, Note_off_c, 0, 67, 64
2, 146400, Note_on_c, 0, 69, 110
2, 146592, Note_off_c, 0, 74, 64
2, 146640, Note_on_c, 0, 74, 110
2, 146784, Note_off_c, 0, 69, 64
2, 146832, Note_off_c, 0, 74, 64
2, 146880, Note_on_c, 0, 76, 110
2, 147072, Note_off_c, 0, 76, 64
2, 147120, Note_on_c, 0, 74, 110
2, 147312, Note_off_c, 0, 74, 64
2, 147360, Note_on_c, 0, 76, 110
2, 147360, Note_on_c, 0, 69, 110
2, 147552, Note_off_c, 0, 76, 64
2, 147600, Note_on_c, 0, 77, 110
2, 147744, Note_off_c, 0, 69, 64
2, 147792, Note_off_c, 0, 77, 64
2, 147840, Note_on_c, 0, 68, 110
2, 147840, Note_on_c, 0, 71, 110
2, 148032, Note_off_c, 0, 71, 64
2, 148080, Note_on_c, 0, 72, 110
2, 148272, Note_off_c, 0, 72, 64
2, 148320, Note_on_c, 0, 74, 110
2, 148512, Note_off_c, 0, 74, 64
2, 148560, Note_on_c, 0, 72, 110
2, 148608, Note_off_c, 0, 68, 64
2, 148752, Note_off_c, 0, 72, 64
2, 148800, Note_on_c, 0, 67, 110
2, 148800, Note_on_c, 0, 74, 110
2, 148992, Note_off_c, 0, 74, 64
2, 149040, Note_on_c, 0, 76, 110
2, 149250, Note_off_c, 0, 67, 64
2, 149280, Note_on_c, 0, 66, 110
2, 149664, Note_off_c, 0, 76, 64
2, 149760, Note_on_c, 0, 74, 110
2, 149856, Note_off_c, 0, 66, 64
2, 150000, Note_on_c, 0, 64, 110
2, 150144, Note_off_c, 0, 74, 64
2, 150192, Note_off_c, 0, 64, 64
2, 150240, Note_on_c, 0, 71, 110
2, 150240, Note_on_c, 0, 65, 110
2, 150432, Note_off_c, 0, 65, 64
2, 150480, Note_on_c, 0, 62, 110
2, 150624, Note_off_c, 0, 71, 64
2, 150672, Note_off_c, 0, 62, 64
2, 150720, Note_on_c, 0, 64, 110
2, 150720, Note_on_c, 0, 68, 110
2, 151104, Note_off_c, 0, 68, 64
2, 151200, Note_on_c, 0, 69, 110
2, 151296, Note_off_c, 0, 64, 64
2, 151440, Note_on_c, 0, 62, 110
2, 151584, Note_off_c, 0, 69, 64
2, 151632, Note_off_c, 0, 62, 64
2, 151680, Note_on_c, 0, 64, 110
2, 151680, Note_on_c, 0, 72, 110
2, 151872, Note_off_c, 0, 64, 64
2, 151920, Note_on_c, 0, 60, 110
2, 152064, Note_off_c, 0, 72, 64
2, 152112, Note_off_c, 0, 60, 64
2, 152160, Note_on_c, 0, 62, 110
2, 152160, Note_on_c, 0, 66, 110
2, 152544, Note_off_c, 0, 66, 64
2, 152640, Note_on_c, 0, 67, 110
2, 152736, Note_off_c, 0, 62, 64
2, 152880, Note_on_c, 0, 60, 110
2, 153024, Note_off_c, 0, 67, 64
2, 153072, Note_off_c, 0, 60, 64
2, 153120, Note_on_c, 0, 71, 110
2, 153120, Note_on_c, 0, 62, 110
2, 153312, Note_off_c, 0, 62, 64
2, 153360, Note_on_c, 0, 59, 110
2, 153504, Note_off_c, 0, 71, 64
2, 153552, Note_off_c, 0, 59, 64
2, 153600, Note_on_c, 0, 60, 110
2, 153600, Note_on_c, 0, 64, 110
2, 153984, Note_off_c, 0, 64, 64
2, 154080, Note_on_c, 0, 66, 110
2, 154176, Note_off_c, 0, 60, 64
2, 154320, Note_on_c, 0, 59, 110
2, 154464, Note_off_c, 0, 66, 64
2, 154512, Note_off_c, 0, 59, 64
2, 154560, Note_on_c, 0, 69, 110
2, 154560, Note_on_c, 0, 60, 110
2, 154752, Note_off_c, 0, 60, 64
2, 154800, Note_on_c, 0, 57, 110
2, 154944, Note_off_c, 0, 69, 64
2, 154992, Note_off_c, 0, 57, 64
2, 155040, Note_on_c, 0, 63, 110
2, 155040, Note_on_c, 0, 59, 110
2, 155424, Note_off_c, 0, 63, 64
2, 155520, Note_on_c, 0, 64, 110
2, 155712, Note_off_c, 0, 64, 64
2, 155760, Note_on_c, 0, 66, 110
2, 155952, Note_off_c, 0, 66, 64
2, 156000, Note_on_c, 0, 67, 110
2, 156192, Note_off_c, 0, 67, 64
2, 156192, Note_off_c, 0, 59, 64
2, 156240, Note_on_c, 0, 66, 110
2, 156336, Note_off_c, 0, 66, 64
2, 156360, Note_on_c, 0, 64, 110
2, 156456, Note_off_c, 0, 64, 64
2, 156480, Note_on_c, 0, 69, 110
2, 156480, Note_on_c, 0, 64, 110
2, 156672, Note_off_c, 0, 69, 64
2, 156720, Note_on_c, 0, 71, 110
2, 156912, Note_off_c, 0, 71, 64
2, 156960, Note_on_c, 0, 72, 110
2, 157152, Note_off_c, 0, 72, 64
2, 157200, Note_on_c, 0, 66, 110
2, 157248, Note_off_c, 0, 64, 64
2, 157392, Note_off_c, 0, 66, 64
2, 157440, Note_on_c, 0, 68, 110
2, 157440, Note_on_c, 0, 62, 110
2, 157632, Note_off_c, 0, 68, 64
2, 157680, Note_on_c, 0, 69, 110
2, 157824, Note_off_c, 0, 62, 64
2, 157872, Note_off_c, 0, 69, 64
2, 157920, Note_on_c, 0, 64, 110
2, 157920, Note_on_c, 0, 68, 110
2, 158112, Note_off_c, 0, 68, 64
2, 158160, Note_on_c, 0, 64, 110
2, 158352, Note_off_c, 0, 64, 64
2, 158400, Note_on_c, 0, 76, 110
2, 158496, Note_off_c, 0, 64, 64
2, 158640, Note_on_c, 0, 62, 110
2, 158832, Note_off_c, 0, 62, 64
2, 158880, Note_on_c, 0, 61, 110
2, 158976, Note_off_c, 0, 76, 64
2, 159072, Note_off_c, 0, 61, 64
2, 159120, Note_on_c, 0, 74, 110
2, 159120, Note_on_c, 0, 59, 110
2, 159312, Note_off_c, 0, 59, 64
2, 159312, Note_off_c, 0, 74, 64
2, 159360, Note_on_c, 0, 73, 110
2, 159552, Note_off_c, 0, 73, 64
2, 159600, Note_on_c, 0, 76, 110
2, 159792, Note_off_c, 0, 76, 64
2, 159840, Note_on_c, 0, 81, 110
2, 160416, Note_off_c, 0, 81, 64
2, 160560, Note_on_c, 0, 79, 110
2, 160752, Note_off_c, 0, 79, 64
2, 160800, Note_on_c, 0, 77, 110
2, 160992, Note_off_c, 0, 77, 64
2, 161040, Note_on_c, 0, 69, 110
2, 161232, Note_off_c, 0, 69, 64
2, 161280, Note_on_c, 0, 74, 110
2, 161856, Note_off_c, 0, 74, 64
2, 162000, Note_on_c, 0, 72, 110
2, 162192, Note_off_c, 0, 72, 64
2, 162240, Note_on_c, 0, 70, 110
2, 162432, Note_off_c, 0, 70, 64
2, 162480, Note_on_c, 0, 67, 110
2, 162672, Note_off_c, 0, 67, 64
2, 162720, Note_on_c, 0, 74, 110
2, 163296, Note_off_c, 0, 74, 64
2, 163440, Note_on_c, 0, 72, 110
2, 163872, Note_off_c, 0, 72, 64
2, 163920, Note_on_c, 0, 70, 110
2, 164304, Note_off_c, 0, 70, 64
2, 164400, Note_on_c, 0, 69, 110
2, 164784, Note_off_c, 0, 69, 64
2, 164880, Note_on_c, 0, 67, 110
2, 165312, Note_off_c, 0, 67, 64
2, 165360, Note_on_c, 0, 69, 110
2, 165552, Note_off_c, 0, 69, 64
2, 165600, Note_on_c, 0, 66, 110
2, 166176, Note_off_c, 0, 66, 64
2, 166320, Note_on_c, 0, 67, 110
2, 166512, Note_off_c, 0, 67, 64
2, 166560, Note_on_c, 0, 67, 110
2, 166752, Note_off_c, 0, 67, 64
2, 166800, Note_on_c, 0, 67, 110
2, 166992, Note_off_c, 0, 67, 64
2, 167040, Note_on_c, 0, 74, 110
2, 167280, Note_on_c, 0, 62, 110
2, 167472, Note_off_c, 0, 62, 64
2, 167520, Note_on_c, 0, 67, 110
2, 167616, Note_off_c, 0, 74, 64
2, 167760, Note_on_c, 0, 74, 110
2, 167952, Note_off_c, 0, 74, 64
2, 168000, Note_on_c, 0, 75, 110
2, 168192, Note_off_c, 0, 75, 64
2, 168240, Note_on_c, 0, 75, 110
2, 168384, Note_off_c, 0, 67, 64
2, 168432, Note_off_c, 0, 75, 64
2, 168480, Note_on_c, 0, 70, 110
2, 168720, Note_on_c, 0, 58, 110
2, 168912, Note_off_c, 0, 58, 64
2, 168960, Note_on_c, 0, 63, 110
2, 169056, Note_off_c, 0, 70, 64
2, 169200, Note_on_c, 0, 72, 110
2, 169344, Note_off_c, 0, 63, 64
2, 169392, Note_off_c, 0, 72, 64
2, 169440, Note_on_c, 0, 62, 110
2, 169440, Note_on_c, 0, 74, 110
2, 169632, Note_off_c, 0, 74, 64
2, 169680, Note_on_c, 0, 74, 110
2, 169824, Note_off_c, 0, 62, 64
2, 169872, Note_off_c, 0, 74, 64
2, 169920, Note_on_c, 0, 69, 110
2, 170160, Note_on_c, 0, 57, 110
2, 170352, Note_off_c, 0, 57, 64
2, 170400, Note_on_c, 0, 62, 110
2, 170496, Note_off_c, 0, 69, 64
2, 170640, Note_on_c, 0, 70, 110
2, 170784, Note_off_c, 0, 62, 64
2, 170832, Note_off_c, 0, 70, 64
2, 170880, Note_on_c, 0, 60, 110
2, 170880, Note_on_c, 0, 72, 110
2, 171072, Note_off_c, 0, 72, 64
2, 171120, Note_on_c, 0, 72, 110
2, 171264, Note_off_c, 0, 60, 64
2, 171312, Note_off_c, 0, 72, 64
2, 171360, Note_on_c, 0, 67, 110
2, 171600, Note_on_c, 0, 55, 110
2, 171792, Note_off_c, 0, 55, 64
2, 171840, Note_on_c, 0, 60, 110
2, 171936, Note_off_c, 0, 67, 64
2, 172080, Note_on_c, 0, 69, 110
2, 172224, Note_off_c, 0, 60, 64
2, 172272, Note_off_c, 0, 69, 64
2, 172320, Note_on_c, 0, 70, 110
2, 172560, Note_on_c, 0, 62, 110
2, 172752, Note_off_c, 0, 62, 64
2, 172800, Note_on_c, 0, 67, 110
2, 172896, Note_off_c, 0, 70, 64
2, 173040, Note_on_c, 0, 69, 110
2, 173232, Note_off_c, 0, 69, 64
2, 173280, Note_on_c, 0, 70, 110
2, 173376, Note_off_c, 0, 67, 64
2, 173472, Note_off_c, 0, 70, 64
2, 173520, Note_on_c, 0, 69, 110
2, 173520, Note_on_c, 0, 72, 110
2, 173712, Note_off_c, 0, 72, 64
2, 173712, Note_off_c, 0, 69, 64
2, 173760, Note_on_c, 0, 70, 110
2, 173760, Note_on_c, 0, 74, 110
2, 173952, Note_off_c, 0, 74, 64
2, 173952, Note_off_c, 0, 70, 64
2, 174000, Note_on_c, 0, 76, 110
2, 174000, Note_on_c, 0, 70, 110
2, 174192, Note_off_c, 0, 70, 64
2, 174192, Note_off_c, 0, 76, 64
2, 174240, Note_on_c, 0, 77, 110
2, 174240, Note_on_c, 0, 65, 110
2, 174432, Note_off_c, 0, 77, 64
2, 174480, Note_on_c, 0, 81, 110
2, 174672, Note_off_c, 0, 81, 64
2, 174720, Note_on_c, 0, 79, 110
2, 174816, Note_off_c, 0, 65, 64
2, 174912, Note_off_c, 0, 79, 64
2, 174960, Note_on_c, 0, 67, 110
2, 174960, Note_on_c, 0, 77, 110
2, 175152, Note_off_c, 0, 77, 64
2, 175152, Note_off_c, 0, 67, 64
2, 175200, Note_on_c, 0, 76, 110
2, 175200, Note_on_c, 0, 69, 110
2, 175392, Note_off_c, 0, 69, 64
2, 175440, Note_on_c, 0, 69, 110
2, 175632, Note_off_c, 0, 69, 64
2, 175680, Note_on_c, 0, 64, 110
2, 175776, Note_off_c, 0, 76, 64
2, 175920, Note_on_c, 0, 79, 110
2, 176112, Note_off_c, 0, 79, 64
2, 176160, Note_on_c, 0, 77, 110
2, 176256, Note_off_c, 0, 64, 64
2, 176352, Note_off_c, 0, 77, 64
2, 176400, Note_on_c, 0, 76, 110
2, 176400, Note_on_c, 0, 65, 110
2, 176592, Note_off_c, 0, 65, 64
2, 176592, Note_off_c, 0, 76, 64
2, 176640, Note_on_c, 0, 67, 110
2, 176640, Note_on_c, 0, 74, 110
2, 176832, Note_off_c, 0, 67, 64
2, 176880, Note_on_c, 0, 62, 110
2, 177072, Note_off_c, 0, 62, 64
2, 177120, Note_on_c, 0, 67, 110
2, 177216, Note_off_c, 0, 74, 64
2, 177360, Note_on_c, 0, 73, 110
2, 177552, Note_off_c, 0, 73, 64
2, 177600, Note_on_c, 0, 74, 110
2, 177792, Note_off_c, 0, 74, 64
2, 177840, Note_on_c, 0, 76, 110
2, 178032, Note_off_c, 0, 76, 64
2, 178080, Note_on_c, 0, 73, 110
2, 178272, Note_off_c, 0, 67, 64
2, 178320, Note_on_c, 0, 61, 110
2, 178512, Note_off_c, 0, 61, 64
2, 178560, Note_on_c, 0, 65, 110
2, 178656, Note_off_c, 0, 73, 64
2, 178800, Note_on_c, 0, 69, 110
2, 178992, Note_off_c, 0, 69, 64
2, 179040, Note_on_c, 0, 74, 110
2, 179232, Note_off_c, 0, 74, 64
2, 179280, Note_on_c, 0, 77, 110
2, 179472, Note_off_c, 0, 77, 64
2, 179520, Note_on_c, 0, 79, 110
2, 179712, Note_off_c, 0, 65, 64
2, 179760, Note_on_c, 0, 64, 110
2, 179904, Note_off_c, 0, 79, 64
2, 180000, Note_on_c, 0, 77, 110
2, 180144, Note_off_c, 0, 64, 64
2, 180240, Note_on_c, 0, 62, 110
2, 180384, Note_off_c, 0, 77, 64
2, 180480, Note_on_c, 0, 76, 110
2, 180624, Note_off_c, 0, 62, 64
2, 180720, Note_on_c, 0, 61, 110
2, 180864, Note_off_c, 0, 76, 64
2, 180945, Note_off_c, 0, 61, 64
2, 180960, Note_on_c, 0, 62, 110
2, 180960, Note_on_c, 0, 77, 110
2, 181344, Note_off_c, 0, 77, 64
2, 181344, Note_off_c, 0, 62, 64
2, 181440, Note_on_c, 0, 73, 110
2, 181680, Note_on_c, 0, 64, 110
2, 181872, Note_off_c, 0, 64, 64
2, 181920, Note_on_c, 0, 69, 110
2, 182112, Note_off_c, 0, 69, 64
2, 182160, Note_on_c, 0, 67, 110
2, 182208, Note_off_c, 0, 73, 64
2, 182352, Note_off_c, 0, 67, 64
2, 182400, Note_on_c, 0, 65, 110
2, 182400, Note_on_c, 0, 74, 110
2, 182592, Note_off_c, 0, 65, 64
2, 182640, Note_on_c, 0, 67, 110
2, 182784, Note_off_c, 0, 74, 64
2, 182832, Note_off_c, 0, 67, 64
2, 182880, Note_on_c, 0, 69, 110
2, 183072, Note_off_c, 0, 69, 64
2, 183120, Note_on_c, 0, 70, 110
2, 183312, Note_off_c, 0, 70, 64
2, 183360, Note_on_c, 0, 67, 110
2, 183360, Note_on_c, 0, 74, 110
2, 183552, Note_off_c, 0, 67, 64
2, 183600, Note_on_c, 0, 65, 110
2, 183744, Note_off_c, 0, 74, 64
2, 183792, Note_off_c, 0, 65, 64
2, 183840, Note_on_c, 0, 73, 110
2, 183840, Note_on_c, 0, 64, 110
2, 184032, Note_off_c, 0, 64, 64
2, 184080, Note_on_c, 0, 65, 110
2, 184272, Note_off_c, 0, 65, 64
2, 184320, Note_on_c, 0, 67, 110
2, 184512, Note_off_c, 0, 67, 64
2, 184560, Note_on_c, 0, 66, 110
2, 184608, Note_off_c, 0, 73, 64
2, 184752, Note_off_c, 0, 66, 64
2, 184800, Note_on_c, 0, 72, 110
2, 184800, Note_on_c, 0, 67, 110
2, 184992, Note_off_c, 0, 67, 64
2, 185040, Note_on_c, 0, 69, 110
2, 185184, Note_off_c, 0, 72, 64
2, 185232, Note_off_c, 0, 69, 64
2, 185280, Note_on_c, 0, 71, 110
2, 185280, Note_on_c, 0, 62, 110
2, 185664, Note_off_c, 0, 62, 64
2, 185760, Note_on_c, 0, 64, 110
2, 185856, Note_off_c, 0, 71, 64
2, 186000, Note_on_c, 0, 69, 110
2, 186192, Note_off_c, 0, 69, 64
2, 186240, Note_on_c, 0, 70, 110
2, 186432, Note_off_c, 0, 70, 64
2, 186480, Note_on_c, 0, 67, 110
2, 186528, Note_off_c, 0, 64, 64
2, 186672, Note_off_c, 0, 67, 64
2, 186720, Note_on_c, 0, 61, 110
2, 186720, Note_on_c, 0, 69, 110
2, 187104, Note_off_c, 0, 61, 64
2, 187200, Note_on_c, 0, 62, 110
2, 187296, Note_off_c, 0, 69, 64
2, 187440, Note_on_c, 0, 67, 110
2, 187632, Note_off_c, 0, 67, 64
2, 187680, Note_on_c, 0, 69, 110
2, 187872, Note_off_c, 0, 69, 64
2, 187920, Note_on_c, 0, 65, 110
2, 187968, Note_off_c, 0, 62, 64
2, 188112, Note_off_c, 0, 65, 64
2, 188160, Note_on_c, 0, 59, 110
2, 188160, Note_on_c, 0, 67, 110
2, 188544, Note_off_c, 0, 59, 64
2, 188640, Note_on_c, 0, 61, 110
2, 188736, Note_off_c, 0, 67, 64
2, 188880, Note_on_c, 0, 65, 110
2, 189072, Note_off_c, 0, 65, 64
2, 189120, Note_on_c, 0, 67, 110
2, 189312, Note_off_c, 0, 67, 64
2, 189360, Note_on_c, 0, 64, 110
2, 189408, Note_off_c, 0, 61, 64
2, 189552, Note_off_c, 0, 64, 64
2, 189600, Note_on_c, 0, 65, 110
2, 189600, Note_on_c, 0, 62, 110
2, 190176, Note_off_c, 0, 62, 64
2, 190320, Note_on_c, 0, 64, 110
2, 190368, Note_off_c, 0, 65, 64
2, 190512, Note_off_c, 0, 64, 64
2, 190560, Note_on_c, 0, 67, 110
2, 190560, Note_on_c, 0, 70, 110
2, 190944, Note_off_c, 0, 70, 64
2, 191040, Note_on_c, 0, 72, 110
2, 191232, Note_off_c, 0, 67, 64
2, 191280, Note_on_c, 0, 60, 110
2, 191472, Note_off_c, 0, 60, 64
2, 191520, Note_on_c, 0, 65, 110
2, 191616, Note_off_c, 0, 72, 64
2, 191760, Note_on_c, 0, 72, 110
2, 191952, Note_off_c, 0, 72, 64
2, 192000, Note_on_c, 0, 77, 110
2, 192192, Note_off_c, 0, 77, 64
2, 192240, Note_on_c, 0, 69, 110
2, 192432, Note_off_c, 0, 69, 64
2, 192480, Note_on_c, 0, 70, 110
2, 192672, Note_off_c, 0, 65, 64
2, 192720, Note_on_c, 0, 62, 110
2, 192912, Note_off_c, 0, 62, 64
2, 192960, Note_on_c, 0, 64, 110
2, 193056, Note_off_c, 0, 70, 64
2, 193200, Note_on_c, 0, 70, 110
2, 193392, Note_off_c, 0, 70, 64
2, 193440, Note_on_c, 0, 76, 110
2, 193632, Note_off_c, 0, 76, 64
2, 193680, Note_on_c, 0, 67, 110
2, 193872, Note_off_c, 0, 67, 64
2, 193920, Note_on_c, 0, 69, 110
2, 194112, Note_off_c, 0, 64, 64
2, 194160, Note_on_c, 0, 57, 110
2, 194352, Note_off_c, 0, 57, 64
2, 194400, Note_on_c, 0, 62, 110
2, 194496, Note_off_c, 0, 69, 64
2, 194640, Note_on_c, 0, 69, 110
2, 194832, Note_off_c, 0, 69, 64
2, 194880, Note_on_c, 0, 74, 110
2, 195072, Note_off_c, 0, 74, 64
2, 195120, Note_on_c, 0, 65, 110
2, 195312, Note_off_c, 0, 65, 64
2, 195360, Note_on_c, 0, 67, 110
2, 195552, Note_off_c, 0, 67, 64
2, 195552, Note_off_c, 0, 62, 64
2, 195600, Note_on_c, 0, 69, 110
2, 195600, Note_on_c, 0, 61, 110
2, 195792, Note_off_c, 0, 61, 64
2, 195792, Note_off_c, 0, 69, 64
2, 195840, Note_on_c, 0, 62, 110
2, 195840, Note_on_c, 0, 65, 110
2, 196416, Note_off_c, 0, 65, 64
2, 196416, Note_off_c, 0, 62, 64
2, 196560, Note_on_c, 0, 61, 110
2, 196560, Note_on_c, 0, 64, 110
2, 196656, Note_off_c, 0, 64, 64
2, 196656, Note_off_c, 0, 61, 64
2, 196680, Note_on_c, 0, 65, 110
2, 196680, Note_on_c, 0, 62, 110
2, 196776, Note_off_c, 0, 62, 64
2, 196776, Note_off_c, 0, 65, 64
2, 196800, Note_on_c, 0, 61, 110
2, 196800, Note_on_c, 0, 64, 110
2, 196992, Note_off_c, 0, 64, 64
2, 196992, Note_off_c, 0, 61, 64
2, 197040, Note_on_c, 0, 73, 110
2, 197040, Note_on_c, 0, 76, 110
2, 197232, Note_off_c, 0, 76, 64
2, 197232, Note_off_c, 0, 73, 64
2, 197280, Note_on_c, 0, 74, 110
2, 197280, Note_on_c, 0, 77, 110
2, 197856, Note_off_c, 0, 77, 64
2, 198000, Note_on_c, 0, 76, 110
2, 198096, Note_off_c, 0, 76, 64
2, 198120, Note_on_c, 0, 77, 110
2, 198216, Note_off_c, 0, 77, 64
2, 198240, Note_on_c, 0, 76, 110
2, 198816, Note_off_c, 0, 74, 64
2, 198960, Note_on_c, 0, 73, 110
2, 199056, Note_off_c, 0, 73, 64
2, 199080, Note_on_c, 0, 71, 110
2, 199176, Note_off_c, 0, 71, 64
2, 199200, Note_on_c, 0, 73, 110
2, 199392, Note_off_c, 0, 76, 64
2, 199440, Note_on_c, 0, 82, 110
2, 199584, Note_off_c, 0, 73, 64
2, 199632, Note_off_c, 0, 82, 64
2, 199680, Note_on_c, 0, 81, 110
2, 199680, Note_on_c, 0, 74, 110
2, 199872, Note_off_c, 0, 81, 64
2, 199920, Note_on_c, 0, 80, 110
2, 200064, Note_off_c, 0, 74, 64
2, 200112, Note_off_c, 0, 80, 64
2, 200160, Note_on_c, 0, 81, 110
2, 200160, Note_on_c, 0, 76, 110
2, 200352, Note_off_c, 0, 76, 64
2, 200400, Note_on_c, 0, 74, 110
2, 200592, Note_off_c, 0, 74, 64
2, 200640, Note_on_c, 0, 76, 110
2, 200736, Note_off_c, 0, 81, 64
2, 200832, Note_off_c, 0, 76, 64
2, 200880, Note_on_c, 0, 77, 110
2, 200880, Note_on_c, 0, 83, 110
2, 201072, Note_off_c, 0, 83, 64
2, 201072, Note_off_c, 0, 77, 64
2, 201120, Note_on_c, 0, 71, 110
2, 201120, Note_on_c, 0, 80, 110
2, 201312, Note_off_c, 0, 71, 64
2, 201360, Note_on_c, 0, 73, 110
2, 201552, Note_off_c, 0, 73, 64
2, 201600, Note_on_c, 0, 74, 110
2, 201696, Note_off_c, 0, 80, 64
2, 201840, Note_on_c, 0, 78, 110
2, 202032, Note_off_c, 0, 78, 64
2, 202080, Note_on_c, 0, 79, 110
2, 202176, Note_off_c, 0, 74, 64
2, 202272, Note_off_c, 0, 79, 64
2, 202320, Note_on_c, 0, 76, 110
2, 202320, Note_on_c, 0, 81, 110
2, 202512, Note_off_c, 0, 81, 64
2, 202512, Note_off_c, 0, 76, 64
2, 202560, Note_on_c, 0, 69, 110
2, 202560, Note_on_c, 0, 78, 110
2, 203136, Note_off_c, 0, 78, 64
2, 203280, Note_on_c, 0, 76, 110
2, 203460, Note_off_c, 0, 69, 64
2, 203472, Note_off_c, 0, 76, 64
2, 203520, Note_on_c, 0, 77, 110
2, 203712, Note_off_c, 0, 77, 64
2, 203760, Note_on_c, 0, 79, 110
2, 203952, Note_off_c, 0, 79, 64
2, 204000, Note_on_c, 0, 76, 110
2, 204000, Note_on_c, 0, 70, 110
2, 204384, Note_off_c, 0, 70, 64
2, 204384, Note_off_c, 0, 76, 64
2, 204480, Note_on_c, 0, 76, 110
2, 204480, Note_on_c, 0, 69, 110
2, 205056, Note_off_c, 0, 69, 64
2, 205056, Note_off_c, 0, 76, 64
2, 205200, Note_on_c, 0, 77, 110
2, 205200, Note_on_c, 0, 67, 110
2, 205392, Note_off_c, 0, 67, 64
2, 205392, Note_off_c, 0, 77, 64
2, 205440, Note_on_c, 0, 74, 110
2, 205440, Note_on_c, 0, 65, 110
2, 205824, Note_off_c, 0, 65, 64
2, 205824, Note_off_c, 0, 74, 64
2, 206880, Note_on_c, 0, 65, 110
2, 206880, Note_on_c, 0, 74, 110
2, 207072, Note_off_c, 0, 65, 64
2, 207120, Note_on_c, 0, 64, 110
2, 207264, Note_off_c, 0, 74, 64
2, 207312, Note_off_c, 0, 64, 64
2, 207360, Note_on_c, 0, 64, 110
2, 207360, Note_on_c, 0, 74, 110
2, 207936, Note_off_c, 0, 74, 64
2, 208080, Note_on_c, 0, 73, 110
2, 208128, Note_off_c, 0, 64, 64
2, 208272, Note_off_c, 0, 73, 64
2, 208320, Note_on_c, 0, 74, 110
2, 208320, Note_on_c, 0, 66, 110
2, 209472, Note_off_c, 0, 66, 64
2, 209472, Note_off_c, 0, 74, 64
2, 209472, End_track
3, 0, Start_track
3, 0, Title_t, "Midi by \015\012Gary Bricault\015\012"
3, 7200, Note_on_c, 0, 57, 96
3, 7584, Note_off_c, 0, 57, 64
3, 7680, Note_on_c, 0, 62, 96
3, 8256, Note_off_c, 0, 62, 64
3, 8400, Note_on_c, 0, 62, 96
3, 8592, Note_off_c, 0, 62, 64
3, 8640, Note_on_c, 0, 65, 96
3, 8832, Note_off_c, 0, 65, 64
3, 8880, Note_on_c, 0, 64, 96
3, 8976, Note_off_c, 0, 64, 64
3, 9000, Note_on_c, 0, 62, 96
3, 9096, Note_off_c, 0, 62, 64
3, 9120, Note_on_c, 0, 60, 96
3, 9312, Note_off_c, 0, 60, 64
3, 9360, Note_on_c, 0, 62, 96
3, 9552, Note_off_c, 0, 62, 64
3, 9600, Note_on_c, 0, 64, 96
3, 9792, Note_off_c, 0, 64, 64
3, 9840, Note_on_c, 0, 62, 96
3, 9936, Note_off_c, 0, 62, 64
3, 9960, Note_on_c, 0, 60, 96
3, 10056, Note_off_c, 0, 60, 64
3, 10080, Note_on_c, 0, 59, 96
3, 10272, Note_off_c, 0, 59, 64
3, 10320, Note_on_c, 0, 60, 96
3, 10512, Note_off_c, 0, 60, 64
3, 10560, Note_on_c, 0, 62, 96
3, 10752, Note_off_c, 0, 62, 64
3, 10800, Note_on_c, 0, 57, 96
3, 10992, Note_off_c, 0, 57, 64
3, 11040, Note_on_c, 0, 62, 96
3, 11712, Note_off_c, 0, 62, 64
3, 11760, Note_on_c, 0, 60, 96
3, 11856, Note_off_c, 0, 60, 64
3, 11880, Note_on_c, 0, 59, 96
3, 11976, Note_off_c, 0, 59, 64
3, 12000, Note_on_c, 0, 60, 96
3, 12672, Note_off_c, 0, 60, 64
3, 12720, Note_on_c, 0, 59, 96
3, 12816, Note_off_c, 0, 59, 64
3, 12840, Note_on_c, 0, 57, 96
3, 12936, Note_off_c, 0, 57, 64
3, 12960, Note_on_c, 0, 59, 96
3, 13344, Note_off_c, 0, 59, 64
3, 13440, Note_on_c, 0, 57, 96
3, 13632, Note_off_c, 0, 57, 64
3, 13680, Note_on_c, 0, 59, 96
3, 13776, Note_off_c, 0, 59, 64
3, 13800, Note_on_c, 0, 61, 96
3, 13896, Note_off_c, 0, 61, 64
3, 13920, Note_on_c, 0, 62, 96
3, 14304, Note_off_c, 0, 62, 64
3, 14640, Note_on_c, 0, 64, 96
3, 14832, Note_off_c, 0, 64, 64
3, 14880, Note_on_c, 0, 65, 96
3, 15264, Note_off_c, 0, 65, 64
3, 15840, Note_on_c, 0, 62, 96
3, 16224, Note_off_c, 0, 62, 64
3, 16320, Note_on_c, 0, 61, 96
3, 16704, Note_off_c, 0, 61, 64
3, 16800, Note_on_c, 0, 60, 96
3, 17184, Note_off_c, 0, 60, 64
3, 17280, Note_on_c, 0, 59, 96
3, 17664, Note_off_c, 0, 59, 64
3, 17760, Note_on_c, 0, 58, 96
3, 17952, Note_off_c, 0, 58, 64
3, 18000, Note_on_c, 0, 57, 96
3, 18096, Note_off_c, 0, 57, 64
3, 18120, Note_on_c, 0, 55, 96
3, 18216, Note_off_c, 0, 55, 64
3, 18240, Note_on_c, 0, 57, 96
3, 18816, Note_off_c, 0, 57, 64
3, 18960, Note_on_c, 0, 62, 96
3, 19152, Note_off_c, 0, 62, 64
3, 19200, Note_on_c, 0, 55, 96
3, 19776, Note_off_c, 0, 55, 64
3, 19920, Note_on_c, 0, 57, 96
3, 20016, Note_off_c, 0, 57, 64
3, 20040, Note_on_c, 0, 55, 96
3, 20136, Note_off_c, 0, 55, 64
3, 20160, Note_on_c, 0, 53, 96
3, 20736, Note_off_c, 0, 53, 64
3, 20880, Note_on_c, 0, 55, 96
3, 21072, Note_off_c, 0, 55, 64
3, 21120, Note_on_c, 0, 57, 96
3, 21312, Note_off_c, 0, 57, 64
3, 21360, Note_on_c, 0, 58, 96
3, 21552, Note_off_c, 0, 58, 64
3, 21600, Note_on_c, 0, 57, 96
3, 21792, Note_off_c, 0, 57, 64
3, 21840, Note_on_c, 0, 55, 96
3, 22032, Note_off_c, 0, 55, 64
3, 22080, Note_on_c, 0, 53, 96
3, 22272, Note_off_c, 0, 53, 64
3, 22320, Note_on_c, 0, 55, 96
3, 22512, Note_off_c, 0, 55, 64
3, 22560, Note_on_c, 0, 57, 96
3, 22944, Note_off_c, 0, 57, 64
3, 23040, Note_on_c, 0, 59, 96
3, 23616, Note_off_c, 0, 59, 64
3, 23760, Note_on_c, 0, 57, 96
3, 23856, Note_off_c, 0, 57, 64
3, 23880, Note_on_c, 0, 55, 96
3, 23976, Note_off_c, 0, 55, 64
3, 24000, Note_on_c, 0, 57, 96
3, 24384, Note_off_c, 0, 57, 64
3, 24480, Note_on_c, 0, 59, 96
3, 25152, Note_off_c, 0, 59, 64
3, 25200, Note_on_c, 0, 56, 96
3, 25392, Note_off_c, 0, 56, 64
3, 25440, Note_on_c, 0, 57, 96
3, 25632, Note_off_c, 0, 57, 64
3, 25680, Note_on_c, 0, 65, 96
3, 25776, Note_off_c, 0, 65, 64
3, 25800, Note_on_c, 0, 64, 96
3, 25896, Note_off_c, 0, 64, 64
3, 25920, Note_on_c, 0, 62, 96
3, 26496, Note_off_c, 0, 62, 64
3, 26640, Note_on_c, 0, 60, 96
3, 26736, Note_off_c, 0, 60, 64
3, 26760, Note_on_c, 0, 59, 96
3, 26856, Note_off_c, 0, 59, 64
3, 26880, Note_on_c, 0, 60, 96
3, 27456, Note_off_c, 0, 60, 64
3, 27600, Note_on_c, 0, 59, 96
3, 27696, Note_off_c, 0, 59, 64
3, 27720, Note_on_c, 0, 57, 96
3, 27816, Note_off_c, 0, 57, 64
3, 27840, Note_on_c, 0, 59, 96
3, 28608, Note_off_c, 0, 59, 64
3, 28800, Note_on_c, 0, 57, 92
3, 29760, Note_off_c, 0, 57, 64
3, 36960, Note_on_c, 0, 50, 96
3, 37344, Note_off_c, 0, 50, 64
3, 37440, Note_on_c, 0, 57, 96
3, 38016, Note_off_c, 0, 57, 64
3, 38160, Note_on_c, 0, 57, 96
3, 38352, Note_off_c, 0, 57, 64
3, 38400, Note_on_c, 0, 58, 96
3, 38592, Note_off_c, 0, 58, 64
3, 38640, Note_on_c, 0, 57, 96
3, 38736, Note_off_c, 0, 57, 64
3, 38760, Note_on_c, 0, 55, 96
3, 38856, Note_off_c, 0, 55, 64
3, 38880, Note_on_c, 0, 53, 96
3, 39072, Note_off_c, 0, 53, 64
3, 39120, Note_on_c, 0, 55, 96
3, 39312, Note_off_c, 0, 55, 64
3, 39360, Note_on_c, 0, 57, 96
3, 39552, Note_off_c, 0, 57, 64
3, 39600, Note_on_c, 0, 55, 96
3, 39696, Note_off_c, 0, 55, 64
3, 39720, Note_on_c, 0, 53, 96
3, 39816, Note_off_c, 0, 53, 64
3, 39840, Note_on_c, 0, 52, 96
3, 40032, Note_off_c, 0, 52, 64
3, 40080, Note_on_c, 0, 54, 96
3, 40272, Note_off_c, 0, 54, 64
3, 40320, Note_on_c, 0, 55, 96
3, 40512, Note_off_c, 0, 55, 64
3, 40560, Note_on_c, 0, 50, 96
3, 40752, Note_off_c, 0, 50, 64
3, 40800, Note_on_c, 0, 55, 96
3, 41472, Note_off_c, 0, 55, 64
3, 41520, Note_on_c, 0, 53, 96
3, 41616, Note_off_c, 0, 53, 64
3, 41640, Note_on_c, 0, 52, 96
3, 41736, Note_off_c, 0, 52, 64
3, 41760, Note_on_c, 0, 53, 96
3, 42432, Note_off_c, 0, 53, 64
3, 42480, Note_on_c, 0, 52, 96
3, 42576, Note_off_c, 0, 52, 64
3, 42600, Note_on_c, 0, 50, 96
3, 42696, Note_off_c, 0, 50, 64
3, 42720, Note_on_c, 0, 51, 96
3, 43104, Note_off_c, 0, 51, 64
3, 43200, Note_on_c, 0, 50, 96
3, 43776, Note_off_c, 0, 50, 64
3, 43920, Note_on_c, 0, 51, 96
3, 44016, Note_off_c, 0, 51, 64
3, 44040, Note_on_c, 0, 50, 96
3, 44136, Note_off_c, 0, 50, 64
3, 44160, Note_on_c, 0, 48, 96
3, 44544, Note_off_c, 0, 48, 64
3, 44640, Note_on_c, 0, 50, 96
3, 45504, Note_off_c, 0, 50, 64
3, 45600, Note_on_c, 0, 62, 96
3, 45984, Note_off_c, 0, 62, 64
3, 46080, Note_on_c, 0, 61, 96
3, 46464, Note_off_c, 0, 61, 64
3, 46560, Note_on_c, 0, 60, 96
3, 46944, Note_off_c, 0, 60, 64
3, 47040, Note_on_c, 0, 59, 96
3, 47424, Note_off_c, 0, 59, 64
3, 47520, Note_on_c, 0, 58, 96
3, 47904, Note_off_c, 0, 58, 64
3, 48000, Note_on_c, 0, 57, 96
3, 48576, Note_off_c, 0, 57, 64
3, 48720, Note_on_c, 0, 62, 96
3, 48912, Note_off_c, 0, 62, 64
3, 48960, Note_on_c, 0, 55, 96
3, 49728, Note_off_c, 0, 55, 64
3, 49920, Note_on_c, 0, 53, 96
3, 50496, Note_off_c, 0, 53, 64
3, 50640, Note_on_c, 0, 58, 96
3, 50832, Note_off_c, 0, 58, 64
3, 50880, Note_on_c, 0, 52, 96
3, 51264, Note_off_c, 0, 52, 64
3, 51360, Note_on_c, 0, 57, 96
3, 52224, Note_off_c, 0, 57, 64
3, 57120, Note_on_c, 0, 50, 96
3, 57504, Note_off_c, 0, 50, 64
3, 57600, Note_on_c, 0, 57, 96
3, 58176, Note_off_c, 0, 57, 64
3, 58320, Note_on_c, 0, 57, 96
3, 58512, Note_off_c, 0, 57, 64
3, 58560, Note_on_c, 0, 58, 96
3, 58752, Note_off_c, 0, 58, 64
3, 58800, Note_on_c, 0, 57, 96
3, 58896, Note_off_c, 0, 57, 64
3, 58920, Note_on_c, 0, 55, 96
3, 59016, Note_off_c, 0, 55, 64
3, 59040, Note_on_c, 0, 53, 96
3, 59232, Note_off_c, 0, 53, 64
3, 59280, Note_on_c, 0, 55, 96
3, 59472, Note_off_c, 0, 55, 64
3, 59520, Note_on_c, 0, 57, 96
3, 59712, Note_off_c, 0, 57, 64
3, 59760, Note_on_c, 0, 55, 96
3, 59856, Note_off_c, 0, 55, 64
3, 59880, Note_on_c, 0, 53, 96
3, 59976, Note_off_c, 0, 53, 64
3, 60000, Note_on_c, 0, 52, 96
3, 60192, Note_off_c, 0, 52, 64
3, 60240, Note_on_c, 0, 53, 96
3, 60432, Note_off_c, 0, 53, 64
3, 60480, Note_on_c, 0, 55, 96
3, 60672, Note_off_c, 0, 55, 64
3, 60720, Note_on_c, 0, 50, 96
3, 60912, Note_off_c, 0, 50, 64
3, 60960, Note_on_c, 0, 55, 96
3, 61632, Note_off_c, 0, 55, 64
3, 61680, Note_on_c, 0, 54, 96
3, 61776, Note_off_c, 0, 54, 64
3, 61800, Note_on_c, 0, 52, 96
3, 61896, Note_off_c, 0, 52, 64
3, 61920, Note_on_c, 0, 54, 96
3, 62304, Note_off_c, 0, 54, 64
3, 62400, Note_on_c, 0, 55, 96
3, 62592, Note_off_c, 0, 55, 64
3, 62640, Note_on_c, 0, 57, 96
3, 62832, Note_off_c, 0, 57, 64
3, 62880, Note_on_c, 0, 58, 96
3, 63072, Note_off_c, 0, 58, 64
3, 63120, Note_on_c, 0, 60, 96
3, 63312, Note_off_c, 0, 60, 64
3, 63360, Note_on_c, 0, 62, 96
3, 65568, Note_off_c, 0, 62, 64
3, 65640, Note_on_c, 0, 62, 96
3, 65736, Note_off_c, 0, 62, 64
3, 65760, Note_on_c, 0, 62, 96
3, 66144, Note_off_c, 0, 62, 64
3, 66240, Note_on_c, 0, 64, 96
3, 67008, Note_off_c, 0, 64, 64
3, 69600, Note_on_c, 0, 62, 110
3, 69984, Note_off_c, 0, 62, 64
3, 70080, Note_on_c, 0, 61, 110
3, 70848, Note_off_c, 0, 61, 64
3, 71040, Note_on_c, 0, 60, 110
3, 71424, Note_off_c, 0, 60, 64
3, 71520, Note_on_c, 0, 59, 110
3, 72096, Note_off_c, 0, 59, 64
3, 72240, Note_on_c, 0, 57, 110
3, 72432, Note_off_c, 0, 57, 64
3, 72480, Note_on_c, 0, 58, 110
3, 72672, Note_off_c, 0, 58, 64
3, 72720, Note_on_c, 0, 55, 110
3, 72912, Note_off_c, 0, 55, 64
3, 72960, Note_on_c, 0, 57, 110
3, 73536, Note_off_c, 0, 57, 64
3, 73680, Note_on_c, 0, 55, 110
3, 73872, Note_off_c, 0, 55, 64
3, 73920, Note_on_c, 0, 57, 110
3, 74112, Note_off_c, 0, 57, 64
3, 74160, Note_on_c, 0, 53, 110
3, 74352, Note_off_c, 0, 53, 64
3, 74400, Note_on_c, 0, 55, 110
3, 74976, Note_off_c, 0, 55, 64
3, 75120, Note_on_c, 0, 53, 110
3, 75312, Note_off_c, 0, 53, 64
3, 75360, Note_on_c, 0, 55, 110
3, 75552, Note_off_c, 0, 55, 64
3, 75600, Note_on_c, 0, 52, 110
3, 75792, Note_off_c, 0, 52, 64
3, 75840, Note_on_c, 0, 53, 110
3, 76416, Note_off_c, 0, 53, 64
3, 76560, Note_on_c, 0, 52, 110
3, 76752, Note_off_c, 0, 52, 64
3, 76800, Note_on_c, 0, 53, 110
3, 76992, Note_off_c, 0, 53, 64
3, 77040, Note_on_c, 0, 55, 110
3, 77232, Note_off_c, 0, 55, 64
3, 77280, Note_on_c, 0, 57, 110
3, 78432, Note_off_c, 0, 57, 64
3, 78720, Note_on_c, 0, 50, 110
3, 79104, Note_off_c, 0, 50, 64
3, 79200, Note_on_c, 0, 45, 110
3, 79584, Note_off_c, 0, 45, 64
3, 79680, Note_on_c, 0, 60, 110
3, 80064, Note_off_c, 0, 60, 64
3, 80160, Note_on_c, 0, 59, 110
3, 80928, Note_off_c, 0, 59, 64
3, 81120, Note_on_c, 0, 64, 110
3, 81504, Note_off_c, 0, 64, 64
3, 81600, Note_on_c, 0, 57, 110
3, 82752, Note_off_c, 0, 57, 64
3, 83040, Note_on_c, 0, 55, 110
3, 84192, Note_off_c, 0, 55, 64
3, 84480, Note_on_c, 0, 54, 110
3, 85632, Note_off_c, 0, 54, 64
3, 85920, Note_on_c, 0, 52, 110
3, 86496, Note_off_c, 0, 52, 64
3, 86640, Note_on_c, 0, 65, 110
3, 86832, Note_off_c, 0, 65, 64
3, 86880, Note_on_c, 0, 64, 110
3, 87072, Note_off_c, 0, 64, 64
3, 87120, Note_on_c, 0, 62, 110
3, 87312, Note_off_c, 0, 62, 64
3, 87360, Note_on_c, 0, 64, 110
3, 87552, Note_off_c, 0, 64, 64
3, 87600, Note_on_c, 0, 60, 110
3, 87792, Note_off_c, 0, 60, 64
3, 87840, Note_on_c, 0, 59, 110
3, 88608, Note_off_c, 0, 59, 64
3, 88800, Note_on_c, 0, 57, 110
3, 89952, Note_off_c, 0, 57, 64
3, 102000, Note_on_c, 0, 50, 110
3, 102192, Note_off_c, 0, 50, 64
3, 102240, Note_on_c, 0, 57, 110
3, 102816, Note_off_c, 0, 57, 64
3, 102960, Note_on_c, 0, 57, 110
3, 103152, Note_off_c, 0, 57, 64
3, 103200, Note_on_c, 0, 58, 110
3, 103392, Note_off_c, 0, 58, 64
3, 103440, Note_on_c, 0, 58, 110
3, 103632, Note_off_c, 0, 58, 64
3, 103680, Note_on_c, 0, 53, 110
3, 104256, Note_off_c, 0, 53, 64
3, 104400, Note_on_c, 0, 55, 110
3, 104592, Note_off_c, 0, 55, 64
3, 104640, Note_on_c, 0, 57, 110
3, 104832, Note_off_c, 0, 57, 64
3, 104880, Note_on_c, 0, 57, 110
3, 105072, Note_off_c, 0, 57, 64
3, 105120, Note_on_c, 0, 52, 110
3, 105696, Note_off_c, 0, 52, 64
3, 105840, Note_on_c, 0, 54, 110
3, 106032, Note_off_c, 0, 54, 64
3, 106080, Note_on_c, 0, 55, 110
3, 106272, Note_off_c, 0, 55, 64
3, 106320, Note_on_c, 0, 50, 110
3, 106512, Note_off_c, 0, 50, 64
3, 106560, Note_on_c, 0, 55, 110
3, 107712, Note_off_c, 0, 55, 64
3, 107760, Note_on_c, 0, 48, 110
3, 107952, Note_off_c, 0, 48, 64
3, 108000, Note_on_c, 0, 53, 110
3, 109152, Note_off_c, 0, 53, 64
3, 109200, Note_on_c, 0, 47, 110
3, 109392, Note_off_c, 0, 47, 64
3, 109440, Note_on_c, 0, 52, 110
3, 110592, Note_off_c, 0, 52, 64
3, 110640, Note_on_c, 0, 45, 110
3, 110832, Note_off_c, 0, 45, 64
3, 110880, Note_on_c, 0, 50, 110
3, 112608, Note_off_c, 0, 50, 64
3, 112800, Note_on_c, 0, 49, 110
3, 113184, Note_off_c, 0, 49, 64
3, 113280, Note_on_c, 0, 50, 110
3, 114432, Note_off_c, 0, 50, 64
3, 114480, Note_on_c, 0, 55, 110
3, 114672, Note_off_c, 0, 55, 64
3, 114720, Note_on_c, 0, 52, 110
3, 115104, Note_off_c, 0, 52, 64
3, 115200, Note_on_c, 0, 55, 110
3, 115776, Note_off_c, 0, 55, 64
3, 115920, Note_on_c, 0, 57, 110
3, 116112, Note_off_c, 0, 57, 64
3, 116160, Note_on_c, 0, 50, 110
3, 117312, Note_off_c, 0, 50, 64
3, 117360, Note_on_c, 0, 52, 110
3, 117552, Note_off_c, 0, 52, 64
3, 117600, Note_on_c, 0, 49, 110
3, 118050, Note_off_c, 0, 49, 64
3, 118080, Note_on_c, 0, 50, 110
3, 118530, Note_off_c, 0, 50, 64
3, 118560, Note_on_c, 0, 52, 110
3, 119010, Note_off_c, 0, 52, 64
3, 119040, Note_on_c, 0, 53, 110
3, 119232, Note_off_c, 0, 53, 64
3, 119280, Note_on_c, 0, 58, 110
3, 119856, Note_off_c, 0, 58, 64
3, 120000, Note_on_c, 0, 53, 110
3, 120192, Note_off_c, 0, 53, 64
3, 120240, Note_on_c, 0, 58, 110
3, 120432, Note_off_c, 0, 58, 64
3, 120480, Note_on_c, 0, 55, 110
3, 120672, Note_off_c, 0, 55, 64
3, 120720, Note_on_c, 0, 60, 110
3, 121296, Note_off_c, 0, 60, 64
3, 121440, Note_on_c, 0, 55, 110
3, 121632, Note_off_c, 0, 55, 64
3, 121680, Note_on_c, 0, 58, 110
3, 121872, Note_off_c, 0, 58, 64
3, 121920, Note_on_c, 0, 57, 110
3, 122496, Note_off_c, 0, 57, 64
3, 122880, Note_on_c, 0, 57, 110
3, 123072, Note_off_c, 0, 57, 64
3, 123120, Note_on_c, 0, 60, 110
3, 123312, Note_off_c, 0, 60, 64
3, 123360, Note_on_c, 0, 58, 110
3, 123936, Note_off_c, 0, 58, 64
3, 124320, Note_on_c, 0, 63, 110
3, 124512, Note_off_c, 0, 63, 64
3, 124560, Note_on_c, 0, 62, 110
3, 124752, Note_off_c, 0, 62, 64
3, 124800, Note_on_c, 0, 61, 110
3, 125184, Note_off_c, 0, 61, 64
3, 125280, Note_on_c, 0, 62, 110
3, 126048, Note_off_c, 0, 62, 64
3, 126240, Note_on_c, 0, 64, 110
3, 126624, Note_off_c, 0, 64, 64
3, 126720, Note_on_c, 0, 67, 110
3, 126912, Note_off_c, 0, 67, 64
3, 126960, Note_on_c, 0, 70, 110
3, 127152, Note_off_c, 0, 70, 64
3, 127200, Note_on_c, 0, 64, 110
3, 127392, Note_off_c, 0, 64, 64
3, 127440, Note_on_c, 0, 67, 110
3, 127632, Note_off_c, 0, 67, 64
3, 127680, Note_on_c, 0, 65, 110
3, 128064, Note_off_c, 0, 65, 64
3, 128160, Note_on_c, 0, 66, 110
3, 128544, Note_off_c, 0, 66, 64
3, 128640, Note_on_c, 0, 67, 110
3, 128832, Note_off_c, 0, 67, 64
3, 128880, Note_on_c, 0, 65, 110
3, 129072, Note_off_c, 0, 65, 64
3, 129120, Note_on_c, 0, 64, 110
3, 129312, Note_off_c, 0, 64, 64
3, 129360, Note_on_c, 0, 62, 110
3, 129552, Note_off_c, 0, 62, 64
3, 129600, Note_on_c, 0, 61, 110
3, 129792, Note_off_c, 0, 61, 64
3, 129840, Note_on_c, 0, 62, 110
3, 130224, Note_off_c, 0, 62, 64
3, 130320, Note_on_c, 0, 61, 110
3, 130512, Note_off_c, 0, 61, 64
3, 130560, Note_on_c, 0, 62, 110
3, 130944, Note_off_c, 0, 62, 64
3, 131280, Note_on_c, 0, 65, 110
3, 131472, Note_off_c, 0, 65, 64
3, 131520, Note_on_c, 0, 70, 110
3, 131904, Note_off_c, 0, 70, 64
3, 132000, Note_on_c, 0, 64, 110
3, 132384, Note_off_c, 0, 64, 64
3, 132720, Note_on_c, 0, 64, 110
3, 132912, Note_off_c, 0, 64, 64
3, 132960, Note_on_c, 0, 69, 110
3, 133344, Note_off_c, 0, 69, 64
3, 133440, Note_on_c, 0, 62, 110
3, 133824, Note_off_c, 0, 62, 64
3, 134400, Note_on_c, 0, 62, 110
3, 134784, Note_off_c, 0, 62, 64
3, 134880, Note_on_c, 0, 61, 110
3, 135264, Note_off_c, 0, 61, 64
3, 135840, Note_on_c, 0, 60, 110
3, 136224, Note_off_c, 0, 60, 64
3, 136320, Note_on_c, 0, 59, 110
3, 136704, Note_off_c, 0, 59, 64
3, 137280, Note_on_c, 0, 58, 110
3, 137664, Note_off_c, 0, 58, 64
3, 137760, Note_on_c, 0, 57, 110
3, 138528, Note_off_c, 0, 57, 64
3, 138720, Note_on_c, 0, 69, 110
3, 139392, Note_off_c, 0, 69, 64
3, 139440, Note_on_c, 0, 67, 110
3, 139824, Note_off_c, 0, 67, 64
3, 139920, Note_on_c, 0, 67, 110
3, 140112, Note_off_c, 0, 67, 64
3, 140160, Note_on_c, 0, 65, 110
3, 140352, Note_off_c, 0, 65, 64
3, 140400, Note_on_c, 0, 64, 110
3, 140592, Note_off_c, 0, 64, 64
3, 140640, Note_on_c, 0, 65, 110
3, 141024, Note_off_c, 0, 65, 64
3, 145200, Note_on_c, 0, 57, 110
3, 145392, Note_off_c, 0, 57, 64
3, 145440, Note_on_c, 0, 62, 110
3, 146016, Note_off_c, 0, 62, 64
3, 146160, Note_on_c, 0, 64, 110
3, 146352, Note_off_c, 0, 64, 64
3, 146400, Note_on_c, 0, 65, 110
3, 146592, Note_off_c, 0, 65, 64
3, 146640, Note_on_c, 0, 65, 110
3, 146832, Note_off_c, 0, 65, 64
3, 146880, Note_on_c, 0, 60, 110
3, 147456, Note_off_c, 0, 60, 64
3, 147600, Note_on_c, 0, 62, 110
3, 147825, Note_off_c, 0, 62, 64
3, 147840, Note_on_c, 0, 64, 110
3, 148065, Note_off_c, 0, 64, 64
3, 148080, Note_on_c, 0, 64, 110
3, 148305, Note_off_c, 0, 64, 64
3, 148320, Note_on_c, 0, 59, 110
3, 148896, Note_off_c, 0, 59, 64
3, 149040, Note_on_c, 0, 61, 110
3, 149232, Note_off_c, 0, 61, 64
3, 149280, Note_on_c, 0, 62, 110
3, 149472, Note_off_c, 0, 62, 64
3, 149520, Note_on_c, 0, 57, 110
3, 149712, Note_off_c, 0, 57, 64
3, 149760, Note_on_c, 0, 62, 110
3, 150912, Note_off_c, 0, 62, 64
3, 150960, Note_on_c, 0, 56, 110
3, 151152, Note_off_c, 0, 56, 64
3, 151200, Note_on_c, 0, 60, 110
3, 152352, Note_off_c, 0, 60, 64
3, 152400, Note_on_c, 0, 54, 110
3, 152592, Note_off_c, 0, 54, 64
3, 152640, Note_on_c, 0, 59, 110
3, 153792, Note_off_c, 0, 59, 64
3, 153840, Note_on_c, 0, 52, 110
3, 154032, Note_off_c, 0, 52, 64
3, 154080, Note_on_c, 0, 57, 110
3, 155232, Note_off_c, 0, 57, 64
3, 155280, Note_on_c, 0, 57, 110
3, 155472, Note_off_c, 0, 57, 64
3, 155520, Note_on_c, 0, 55, 110
3, 155712, Note_off_c, 0, 55, 64
3, 155760, Note_on_c, 0, 54, 110
3, 155856, Note_off_c, 0, 54, 64
3, 155880, Note_on_c, 0, 52, 110
3, 155976, Note_off_c, 0, 52, 64
3, 156000, Note_on_c, 0, 51, 110
3, 156192, Note_off_c, 0, 51, 64
3, 156240, Note_on_c, 0, 52, 110
3, 156432, Note_off_c, 0, 52, 64
3, 156480, Note_on_c, 0, 48, 110
3, 156768, Note_off_c, 0, 48, 64
3, 156840, Note_on_c, 0, 47, 110
3, 156936, Note_off_c, 0, 47, 64
3, 156960, Note_on_c, 0, 45, 110
3, 157152, Note_off_c, 0, 45, 64
3, 157200, Note_on_c, 0, 57, 110
3, 157392, Note_off_c, 0, 57, 64
3, 157440, Note_on_c, 0, 59, 110
3, 157632, Note_off_c, 0, 59, 64
3, 157680, Note_on_c, 0, 47, 110
3, 157872, Note_off_c, 0, 47, 64
3, 157920, Note_on_c, 0, 52, 110
3, 158304, Note_off_c, 0, 52, 64
3, 159360, Note_on_c, 0, 57, 110
3, 159744, Note_off_c, 0, 57, 64
3, 160080, Note_on_c, 0, 55, 110
3, 160272, Note_off_c, 0, 55, 64
3, 160320, Note_on_c, 0, 53, 110
3, 160512, Note_off_c, 0, 53, 64
3, 160560, Note_on_c, 0, 52, 110
3, 160752, Note_off_c, 0, 52, 64
3, 160800, Note_on_c, 0, 50, 105
3, 161280, Note_off_c, 0, 50, 64
3, 161520, Note_on_c, 0, 60, 110
3, 161712, Note_off_c, 0, 60, 64
3, 161760, Note_on_c, 0, 58, 110
3, 161952, Note_off_c, 0, 58, 64
3, 162000, Note_on_c, 0, 57, 110
3, 162192, Note_off_c, 0, 57, 64
3, 162240, Note_on_c, 0, 55, 110
3, 162624, Note_off_c, 0, 55, 64
3, 162960, Note_on_c, 0, 58, 110
3, 163152, Note_off_c, 0, 58, 64
3, 163200, Note_on_c, 0, 63, 110
3, 163392, Note_off_c, 0, 63, 64
3, 163440, Note_on_c, 0, 57, 110
3, 163632, Note_off_c, 0, 57, 64
3, 163680, Note_on_c, 0, 62, 110
3, 163872, Note_off_c, 0, 62, 64
3, 163920, Note_on_c, 0, 55, 110
3, 164112, Note_off_c, 0, 55, 64
3, 164160, Note_on_c, 0, 60, 110
3, 164352, Note_off_c, 0, 60, 64
3, 164400, Note_on_c, 0, 62, 110
3, 164592, Note_off_c, 0, 62, 64
3, 164640, Note_on_c, 0, 63, 110
3, 164832, Note_off_c, 0, 63, 64
3, 164880, Note_on_c, 0, 58, 110
3, 165072, Note_off_c, 0, 58, 64
3, 165120, Note_on_c, 0, 60, 110
3, 165312, Note_off_c, 0, 60, 64
3, 165360, Note_on_c, 0, 57, 110
3, 165552, Note_off_c, 0, 57, 64
3, 165600, Note_on_c, 0, 62, 110
3, 165984, Note_off_c, 0, 62, 64
3, 166080, Note_on_c, 0, 50, 110
3, 166464, Note_off_c, 0, 50, 64
3, 166560, Note_on_c, 0, 55, 110
3, 166944, Note_off_c, 0, 55, 64
3, 167760, Note_on_c, 0, 55, 110
3, 167952, Note_off_c, 0, 55, 64
3, 168000, Note_on_c, 0, 60, 110
3, 168192, Note_off_c, 0, 60, 64
3, 168240, Note_on_c, 0, 60, 110
3, 168432, Note_off_c, 0, 60, 64
3, 168480, Note_on_c, 0, 55, 110
3, 169056, Note_off_c, 0, 55, 64
3, 169200, Note_on_c, 0, 57, 110
3, 169392, Note_off_c, 0, 57, 64
3, 169440, Note_on_c, 0, 58, 110
3, 169632, Note_off_c, 0, 58, 64
3, 169680, Note_on_c, 0, 58, 110
3, 169872, Note_off_c, 0, 58, 64
3, 169920, Note_on_c, 0, 54, 110
3, 170496, Note_off_c, 0, 54, 64
3, 170640, Note_on_c, 0, 55, 110
3, 170832, Note_off_c, 0, 55, 64
3, 170880, Note_on_c, 0, 57, 110
3, 171072, Note_off_c, 0, 57, 64
3, 171120, Note_on_c, 0, 57, 110
3, 171312, Note_off_c, 0, 57, 64
3, 171360, Note_on_c, 0, 52, 110
3, 171936, Note_off_c, 0, 52, 64
3, 172080, Note_on_c, 0, 54, 110
3, 172272, Note_off_c, 0, 54, 64
3, 172320, Note_on_c, 0, 55, 110
3, 173952, Note_off_c, 0, 55, 64
3, 174000, Note_on_c, 0, 55, 110
3, 174192, Note_off_c, 0, 55, 64
3, 174240, Note_on_c, 0, 62, 110
3, 174816, Note_off_c, 0, 62, 64
3, 174960, Note_on_c, 0, 62, 110
3, 175152, Note_off_c, 0, 62, 64
3, 175200, Note_on_c, 0, 61, 110
3, 175968, Note_off_c, 0, 61, 64
3, 176160, Note_on_c, 0, 60, 110
3, 176544, Note_off_c, 0, 60, 64
3, 176640, Note_on_c, 0, 59, 110
3, 177216, Note_off_c, 0, 59, 64
3, 177360, Note_on_c, 0, 57, 110
3, 177552, Note_off_c, 0, 57, 64
3, 177600, Note_on_c, 0, 58, 110
3, 177792, Note_off_c, 0, 58, 64
3, 177840, Note_on_c, 0, 55, 110
3, 178032, Note_off_c, 0, 55, 64
3, 178080, Note_on_c, 0, 57, 110
3, 180672, Note_off_c, 0, 57, 64
3, 198480, Note_on_c, 0, 57, 110
3, 198672, Note_off_c, 0, 57, 64
3, 198720, Note_on_c, 0, 64, 110
3, 199296, Note_off_c, 0, 64, 64
3, 199440, Note_on_c, 0, 64, 110
3, 199632, Note_off_c, 0, 64, 64
3, 199680, Note_on_c, 0, 65, 110
3, 199872, Note_off_c, 0, 65, 64
3, 199920, Note_on_c, 0, 65, 110
3, 200112, Note_off_c, 0, 65, 64
3, 200160, Note_on_c, 0, 60, 110
3, 200736, Note_off_c, 0, 60, 64
3, 200880, Note_on_c, 0, 62, 110
3, 201072, Note_off_c, 0, 62, 64
3, 201120, Note_on_c, 0, 64, 110
3, 201312, Note_off_c, 0, 64, 64
3, 201360, Note_on_c, 0, 64, 110
3, 201552, Note_off_c, 0, 64, 64
3, 201600, Note_on_c, 0, 59, 110
3, 202176, Note_off_c, 0, 59, 64
3, 202320, Note_on_c, 0, 61, 110
3, 202512, Note_off_c, 0, 61, 64
3, 202560, Note_on_c, 0, 62, 110
3, 202752, Note_off_c, 0, 62, 64
3, 202800, Note_on_c, 0, 57, 110
3, 202992, Note_off_c, 0, 57, 64
3, 203040, Note_on_c, 0, 62, 110
3, 204192, Note_off_c, 0, 62, 64
3, 204240, Note_on_c, 0, 64, 110
3, 204432, Note_off_c, 0, 64, 64
3, 204480, Note_on_c, 0, 61, 110
3, 205056, Note_off_c, 0, 61, 64
3, 205200, Note_on_c, 0, 61, 110
3, 205392, Note_off_c, 0, 61, 64
3, 205440, Note_on_c, 0, 62, 110
3, 206016, Note_off_c, 0, 62, 64
3, 206880, Note_on_c, 0, 59, 110
3, 207264, Note_off_c, 0, 59, 64
3, 207360, Note_on_c, 0, 57, 110
3, 208128, Note_off_c, 0, 57, 64
3, 208320, Note_on_c, 0, 57, 110
3, 209472, Note_off_c, 0, 57, 64
3, 209472, End_track
4, 0, Start_track
4, 0, Title_t, "gsbusat@worldnet.att.net"
4, 28320, Note_on_c, 0, 69, 127
4, 28344, Note_off_c, 0, 69, 64
4, 28350, Note_on_c, 0, 68, 127
4, 28374, Note_off_c, 0, 68, 64
4, 28380, Note_on_c, 0, 69, 127
4, 28404, Note_off_c, 0, 69, 64
4, 28410, Note_on_c, 0, 68, 127
4, 28434, Note_off_c, 0, 68, 64
4, 28440, Note_on_c, 0, 69, 127
4, 28464, Note_off_c, 0, 69, 64
4, 28470, Note_on_c, 0, 68, 127
4, 28494, Note_off_c, 0, 68, 64
4, 28500, Note_on_c, 0, 69, 127
4, 28524, Note_off_c, 0, 69, 64
4, 28530, Note_on_c, 0, 68, 127
4, 28554, Note_off_c, 0, 68, 64
4, 28560, Note_on_c, 0, 69, 127
4, 28584, Note_off_c, 0, 69, 64
4, 28590, Note_on_c, 0, 68, 127
4, 28614, Note_off_c, 0, 68, 64
4, 28620, Note_on_c, 0, 69, 127
4, 28644, Note_off_c, 0, 69, 64
4, 28650, Note_on_c, 0, 68, 127
4, 28674, Note_off_c, 0, 68, 64
4, 28680, Note_on_c, 0, 69, 127
4, 28776, Note_off_c, 0, 69, 64
4, 37920, Note_on_c, 0, 67, 127
4, 37944, Note_off_c, 0, 67, 64
4, 37950, Note_on_c, 0, 66, 127
4, 37974, Note_off_c, 0, 66, 64
4, 37980, Note_on_c, 0, 67, 127
4, 38004, Note_off_c, 0, 67, 64
4, 38010, Note_on_c, 0, 66, 127
4, 38034, Note_off_c, 0, 66, 64
4, 38040, Note_on_c, 0, 67, 127
4, 38064, Note_off_c, 0, 67, 64
4, 38070, Note_on_c, 0, 66, 127
4, 38094, Note_off_c, 0, 66, 64
4, 38100, Note_on_c, 0, 67, 127
4, 38124, Note_off_c, 0, 67, 64
4, 38130, Note_on_c, 0, 66, 127
4, 38154, Note_off_c, 0, 66, 64
4, 38160, Note_on_c, 0, 67, 127
4, 38184, Note_off_c, 0, 67, 64
4, 38190, Note_on_c, 0, 66, 127
4, 38214, Note_off_c, 0, 66, 64
4, 38220, Note_on_c, 0, 67, 127
4, 38244, Note_off_c, 0, 67, 64
4, 38250, Note_on_c, 0, 66, 127
4, 38274, Note_off_c, 0, 66, 64
4, 38280, Note_on_c, 0, 67, 127
4, 38376, Note_off_c, 0, 67, 64
4, 97920, Note_on_c, 0, 65, 127
4, 97977, Note_off_c, 0, 65, 64
4, 97980, Note_on_c, 0, 64, 127
4, 98037, Note_off_c, 0, 64, 64
4, 98040, Note_on_c, 0, 65, 127
4, 98097, Note_off_c, 0, 65, 64
4, 98100, Note_on_c, 0, 64, 127
4, 98157, Note_off_c, 0, 64, 64
4, 98160, Note_on_c, 0, 65, 127
4, 98217, Note_off_c, 0, 65, 64
4, 98220, Note_on_c, 0, 64, 127
4, 98277, Note_off_c, 0, 64, 64
4, 98280, Note_on_c, 0, 65, 127
4, 98337, Note_off_c, 0, 65, 64
4, 98340, Note_on_c, 0, 64, 127
4, 98397, Note_off_c, 0, 64, 64
4, 98400, Note_on_c, 0, 65, 127
4, 98457, Note_off_c, 0, 65, 64
4, 98460, Note_on_c, 0, 64, 127
4, 98517, Note_off_c, 0, 64, 64
4, 98520, Note_on_c, 0, 65, 127
4, 98577, Note_off_c, 0, 65, 64
4, 98580, Note_on_c, 0, 64, 127
4, 98637, Note_off_c, 0, 64, 64
4, 98640, Note_on_c, 0, 65, 127
4, 98697, Note_off_c, 0, 65, 64
4, 98700, Note_on_c, 0, 64, 127
4, 98757, Note_off_c, 0, 64, 64
4, 98760, Note_on_c, 0, 65, 127
4, 98817, Note_off_c, 0, 65, 64
4, 98820, Note_on_c, 0, 64, 127
4, 98877, Note_off_c, 0, 64, 64
4, 111840, Note_on_c, 0, 77, 127
4, 112032, Note_off_c, 0, 77, 64
4, 112080, Note_on_c, 0, 76, 127
4, 112272, Note_off_c, 0, 76, 64
4, 112320, Note_on_c, 0, 77, 127
4, 112377, Note_off_c, 0, 77, 64
4, 112380, Note_on_c, 0, 76, 127
4, 112437, Note_off_c, 0, 76, 64
4, 112440, Note_on_c, 0, 77, 127
4, 112497, Note_off_c, 0, 77, 64
4, 112500, Note_on_c, 0, 76, 127
4, 112557, Note_off_c, 0, 76, 64
4, 112560, Note_on_c, 0, 77, 127
4, 112617, Note_off_c, 0, 77, 64
4, 112620, Note_on_c, 0, 76, 127
4, 112677, Note_off_c, 0, 76, 64
4, 112680, Note_on_c, 0, 77, 127
4, 112737, Note_off_c, 0, 77, 64
4, 112740, Note_on_c, 0, 76, 127
4, 112797, Note_off_c, 0, 76, 64
4, 112800, Note_on_c, 0, 77, 127
4, 112857, Note_off_c, 0, 77, 64
4, 112860, Note_on_c, 0, 76, 127
4, 112917, Note_off_c, 0, 76, 64
4, 112920, Note_on_c, 0, 77, 127
4, 112977, Note_off_c, 0, 77, 64
4, 112980, Note_on_c, 0, 76, 127
4, 113037, Note_off_c, 0, 76, 64
4, 113040, Note_on_c, 0, 77, 127
4, 113097, Note_off_c, 0, 77, 64
4, 113100, Note_on_c, 0, 76, 127
4, 113157, Note_off_c, 0, 76, 64
4, 113160, Note_on_c, 0, 77, 127
4, 113217, Note_off_c, 0, 77, 64
4, 113220, Note_on_c, 0, 76, 127
4, 113277, Note_off_c, 0, 76, 64
4, 165600, Note_on_c, 0, 67, 127
4, 165657, Note_off_c, 0, 67, 64
4, 165660, Note_on_c, 0, 66, 127
4, 165717, Note_off_c, 0, 66, 64
4, 165720, Note_on_c, 0, 67, 127
4, 165777, Note_off_c, 0, 67, 64
4, 165780, Note_on_c, 0, 66, 127
4, 165837, Note_off_c, 0, 66, 64
4, 165840, Note_on_c, 0, 67, 127
4, 165897, Note_off_c, 0, 67, 64
4, 165900, Note_on_c, 0, 66, 127
4, 165957, Note_off_c, 0, 66, 64
4, 165960, Note_on_c, 0, 67, 127
4, 166017, Note_off_c, 0, 67, 64
4, 166020, Note_on_c, 0, 66, 127
4, 166077, Note_off_c, 0, 66, 64
4, 166080, Note_on_c, 0, 67, 127
4, 166137, Note_off_c, 0, 67, 64
4, 166140, Note_on_c, 0, 66, 127
4, 166197, Note_off_c, 0, 66, 64
4, 166200, Note_on_c, 0, 67, 127
4, 166257, Note_off_c, 0, 67, 64
4, 166260, Note_on_c, 0, 66, 127
4, 166317, Note_off_c, 0, 66, 64
4, 166320, Note_on_c, 0, 67, 127
4, 166377, Note_off_c, 0, 67, 64
4, 166380, Note_on_c, 0, 66, 127
4, 166437, Note_off_c, 0, 66, 64
4, 166440, Note_on_c, 0, 67, 127
4, 166497, Note_off_c, 0, 67, 64
4, 166500, Note_on_c, 0, 66, 127
4, 166557, Note_off_c, 0, 66, 64
4, 195840, Note_on_c, 0, 67, 127
4, 195897, Note_off_c, 0, 67, 64
4, 195900, Note_on_c, 0, 65, 127
4, 195957, Note_off_c, 0, 65, 64
4, 195960, Note_on_c, 0, 67, 127
4, 196017, Note_off_c, 0, 67, 64
4, 196020, Note_on_c, 0, 65, 127
4, 196077, Note_off_c, 0, 65, 64
4, 196080, Note_on_c, 0, 67, 127
4, 196137, Note_off_c, 0, 67, 64
4, 196140, Note_on_c, 0, 65, 127
4, 196197, Note_off_c, 0, 65, 64
4, 196200, Note_on_c, 0, 67, 127
4, 196257, Note_off_c, 0, 67, 64
4, 196260, Note_on_c, 0, 65, 127
4, 196317, Note_off_c, 0, 65, 64
4, 196320, Note_on_c, 0, 67, 127
4, 196377, Note_off_c, 0, 67, 64
4, 196380, Note_on_c, 0, 65, 127
4, 196437, Note_off_c, 0, 65, 64
4, 196440, Note_on_c, 0, 67, 127
4, 196497, Note_off_c, 0, 67, 64
4, 196500, Note_on_c, 0, 65, 127
4, 196557, Note_off_c, 0, 65, 64
4, 196560, Note_on_c, 0, 67, 127
4, 196617, Note_off_c, 0, 67, 64
4, 196620, Note_on_c, 0, 65, 127
4, 196677, Note_off_c, 0, 65, 64
4, 196680, Note_on_c, 0, 67, 127
4, 196737, Note_off_c, 0, 67, 64
4, 196740, Note_on_c, 0, 65, 127
4, 196797, Note_off_c, 0, 65, 64
4, 197280, Note_on_c, 0, 77, 127
4, 197337, Note_off_c, 0, 77, 64
4, 197340, Note_on_c, 0, 76, 127
4, 197397, Note_off_c, 0, 76, 64
4, 197400, Note_on_c, 0, 77, 127
4, 197457, Note_off_c, 0, 77, 64
4, 197460, Note_on_c, 0, 76, 127
4, 197517, Note_off_c, 0, 76, 64
4, 197520, Note_on_c, 0, 77, 127
4, 197577, Note_off_c, 0, 77, 64
4, 197580, Note_on_c, 0, 76, 127
4, 197637, Note_off_c, 0, 76, 64
4, 197640, Note_on_c, 0, 77, 127
4, 197697, Note_off_c, 0, 77, 64
4, 197700, Note_on_c, 0, 76, 127
4, 197757, Note_off_c, 0, 76, 64
4, 197760, Note_on_c, 0, 77, 127
4, 197817, Note_off_c, 0, 77, 64
4, 197820, Note_on_c, 0, 76, 127
4, 197877, Note_off_c, 0, 76, 64
4, 197880, Note_on_c, 0, 77, 127
4, 197937, Note_off_c, 0, 77, 64
4, 197940, Note_on_c, 0, 76, 127
4, 197997, Note_off_c, 0, 76, 64
4, 198000, Note_on_c, 0, 77, 127
4, 198057, Note_off_c, 0, 77, 64
4, 198060, Note_on_c, 0, 76, 127
4, 198117, Note_off_c, 0, 76, 64
4, 198120, Note_on_c, 0, 77, 127
4, 198177, Note_off_c, 0, 77, 64
4, 198180, Note_on_c, 0, 76, 127
4, 198237, Note_off_c, 0, 76, 64
4, 198237, End_track
5, 0, Start_track
5, 0, Title_t, "Copyright(c) 2000,\015\012All Rights Reserved"
5, 480, Note_on_c, 0, 50, 96
5, 864, Note_off_c, 0, 50, 64
5, 960, Note_on_c, 0, 57, 96
5, 1536, Note_off_c, 0, 57, 64
5, 1680, Note_on_c, 0, 57, 96
5, 1872, Note_off_c, 0, 57, 64
5, 1920, Note_on_c, 0, 58, 96
5, 2112, Note_off_c, 0, 58, 64
5, 2160, Note_on_c, 0, 57, 96
5, 2256, Note_off_c, 0, 57, 64
5, 2280, Note_on_c, 0, 55, 96
5, 2376, Note_off_c, 0, 55, 64
5, 2400, Note_on_c, 0, 53, 96
5, 2592, Note_off_c, 0, 53, 64
5, 2640, Note_on_c, 0, 55, 96
5, 2832, Note_off_c, 0, 55, 64
5, 2880, Note_on_c, 0, 57, 96
5, 3072, Note_off_c, 0, 57, 64
5, 3120, Note_on_c, 0, 55, 96
5, 3216, Note_off_c, 0, 55, 64
5, 3240, Note_on_c, 0, 53, 96
5, 3353, Note_off_c, 0, 53, 64
5, 3360, Note_on_c, 0, 52, 96
5, 3552, Note_off_c, 0, 52, 64
5, 3600, Note_on_c, 0, 53, 96
5, 3792, Note_off_c, 0, 53, 64
5, 3840, Note_on_c, 0, 55, 96
5, 4032, Note_off_c, 0, 55, 64
5, 4080, Note_on_c, 0, 50, 96
5, 4272, Note_off_c, 0, 50, 64
5, 4320, Note_on_c, 0, 55, 96
5, 4992, Note_off_c, 0, 55, 64
5, 5040, Note_on_c, 0, 53, 96
5, 5136, Note_off_c, 0, 53, 64
5, 5160, Note_on_c, 0, 52, 96
5, 5256, Note_off_c, 0, 52, 64
5, 5280, Note_on_c, 0, 53, 96
5, 5952, Note_off_c, 0, 53, 64
5, 6000, Note_on_c, 0, 52, 96
5, 6096, Note_off_c, 0, 52, 64
5, 6120, Note_on_c, 0, 50, 96
5, 6216, Note_off_c, 0, 50, 64
5, 6240, Note_on_c, 0, 52, 96
5, 6624, Note_off_c, 0, 52, 64
5, 6720, Note_on_c, 0, 50, 96
5, 7296, Note_off_c, 0, 50, 64
5, 7440, Note_on_c, 0, 52, 96
5, 7632, Note_off_c, 0, 52, 64
5, 7680, Note_on_c, 0, 53, 96
5, 7872, Note_off_c, 0, 53, 64
5, 7920, Note_on_c, 0, 52, 96
5, 8112, Note_off_c, 0, 52, 64
5, 8160, Note_on_c, 0, 53, 96
5, 8352, Note_off_c, 0, 53, 64
5, 8400, Note_on_c, 0, 55, 96
5, 8592, Note_off_c, 0, 55, 64
5, 8640, Note_on_c, 0, 57, 96
5, 9024, Note_off_c, 0, 57, 64
5, 9120, Note_on_c, 0, 57, 96
5, 9504, Note_off_c, 0, 57, 64
5, 9600, Note_on_c, 0, 56, 96
5, 9984, Note_off_c, 0, 56, 64
5, 10080, Note_on_c, 0, 55, 96
5, 10464, Note_off_c, 0, 55, 64
5, 10560, Note_on_c, 0, 54, 96
5, 10944, Note_off_c, 0, 54, 64
5, 11040, Note_on_c, 0, 53, 96
5, 11232, Note_off_c, 0, 53, 64
5, 11280, Note_on_c, 0, 52, 96
5, 11376, Note_off_c, 0, 52, 64
5, 11400, Note_on_c, 0, 50, 96
5, 11496, Note_off_c, 0, 50, 64
5, 11520, Note_on_c, 0, 52, 96
5, 12096, Note_off_c, 0, 52, 64
5, 12240, Note_on_c, 0, 57, 96
5, 12432, Note_off_c, 0, 57, 64
5, 12480, Note_on_c, 0, 50, 96
5, 12672, Note_off_c, 0, 50, 64
5, 12720, Note_on_c, 0, 48, 96
5, 12912, Note_off_c, 0, 48, 64
5, 12960, Note_on_c, 0, 50, 96
5, 13152, Note_off_c, 0, 50, 64
5, 13200, Note_on_c, 0, 52, 96
5, 13392, Note_off_c, 0, 52, 64
5, 13440, Note_on_c, 0, 53, 96
5, 14016, Note_off_c, 0, 53, 64
5, 14160, Note_on_c, 0, 52, 96
5, 14256, Note_off_c, 0, 52, 64
5, 14280, Note_on_c, 0, 50, 96
5, 14376, Note_off_c, 0, 50, 64
5, 14400, Note_on_c, 0, 49, 96
5, 14784, Note_off_c, 0, 49, 64
5, 14880, Note_on_c, 0, 50, 96
5, 15264, Note_off_c, 0, 50, 64
5, 15360, Note_on_c, 0, 43, 96
5, 15552, Note_off_c, 0, 43, 64
5, 15600, Note_on_c, 0, 45, 96
5, 15792, Note_off_c, 0, 45, 64
5, 15840, Note_on_c, 0, 46, 96
5, 16224, Note_off_c, 0, 46, 64
5, 16320, Note_on_c, 0, 45, 96
5, 16704, Note_off_c, 0, 45, 64
5, 16800, Note_on_c, 0, 57, 96
5, 17184, Note_off_c, 0, 57, 64
5, 17280, Note_on_c, 0, 55, 96
5, 17664, Note_off_c, 0, 55, 64
5, 17760, Note_on_c, 0, 52, 96
5, 18144, Note_off_c, 0, 52, 64
5, 18240, Note_on_c, 0, 49, 96
5, 18624, Note_off_c, 0, 49, 64
5, 18720, Note_on_c, 0, 50, 96
5, 19104, Note_off_c, 0, 50, 64
5, 19200, Note_on_c, 0, 47, 96
5, 19584, Note_off_c, 0, 47, 64
5, 19680, Note_on_c, 0, 49, 96
5, 20064, Note_off_c, 0, 49, 64
5, 20160, Note_on_c, 0, 50, 96
5, 22272, Note_off_c, 0, 50, 64
5, 22320, Note_on_c, 0, 52, 96
5, 22512, Note_off_c, 0, 52, 64
5, 22560, Note_on_c, 0, 53, 96
5, 22944, Note_off_c, 0, 53, 64
5, 23040, Note_on_c, 0, 52, 96
5, 23808, Note_off_c, 0, 52, 64
5, 24000, Note_on_c, 0, 50, 96
5, 24192, Note_off_c, 0, 50, 64
5, 24240, Note_on_c, 0, 48, 96
5, 24432, Note_off_c, 0, 48, 64
5, 24480, Note_on_c, 0, 47, 96
5, 24672, Note_off_c, 0, 47, 64
5, 24720, Note_on_c, 0, 57, 96
5, 24912, Note_off_c, 0, 57, 64
5, 24960, Note_on_c, 0, 56, 96
5, 25152, Note_off_c, 0, 56, 64
5, 25200, Note_on_c, 0, 52, 96
5, 25392, Note_off_c, 0, 52, 64
5, 25440, Note_on_c, 0, 57, 96
5, 26304, Note_off_c, 0, 57, 64
5, 26400, Note_on_c, 0, 56, 96
5, 26784, Note_off_c, 0, 56, 64
5, 26880, Note_on_c, 0, 57, 96
5, 27264, Note_off_c, 0, 57, 64
5, 27360, Note_on_c, 0, 54, 96
5, 27744, Note_off_c, 0, 54, 64
5, 27840, Note_on_c, 0, 52, 96
5, 28608, Note_off_c, 0, 52, 64
5, 28800, Note_on_c, 0, 45, 96
5, 29184, Note_off_c, 0, 45, 64
5, 29280, Note_on_c, 0, 57, 96
5, 29664, Note_off_c, 0, 57, 64
5, 29760, Note_on_c, 0, 58, 96
5, 30144, Note_off_c, 0, 58, 64
5, 30240, Note_on_c, 0, 57, 96
5, 30624, Note_off_c, 0, 57, 64
5, 30720, Note_on_c, 0, 55, 96
5, 30912, Note_off_c, 0, 55, 64
5, 30960, Note_on_c, 0, 57, 96
5, 31152, Note_off_c, 0, 57, 64
5, 31200, Note_on_c, 0, 58, 96
5, 31392, Note_off_c, 0, 58, 64
5, 31440, Note_on_c, 0, 57, 96
5, 31536, Note_off_c, 0, 57, 64
5, 31560, Note_on_c, 0, 58, 96
5, 31656, Note_off_c, 0, 58, 64
5, 31680, Note_on_c, 0, 60, 96
5, 32064, Note_off_c, 0, 60, 64
5, 32160, Note_on_c, 0, 58, 96
5, 32544, Note_off_c, 0, 58, 64
5, 32640, Note_on_c, 0, 57, 96
5, 33024, Note_off_c, 0, 57, 64
5, 33120, Note_on_c, 0, 58, 96
5, 33504, Note_off_c, 0, 58, 64
5, 33600, Note_on_c, 0, 60, 96
5, 34368, Note_off_c, 0, 60, 64
5, 34440, Note_on_c, 0, 48, 96
5, 34536, Note_off_c, 0, 48, 64
5, 34560, Note_on_c, 0, 50, 96
5, 34848, Note_off_c, 0, 50, 64
5, 34920, Note_on_c, 0, 52, 96
5, 35016, Note_off_c, 0, 52, 64
5, 35040, Note_on_c, 0, 54, 96
5, 35232, Note_off_c, 0, 54, 64
5, 35280, Note_on_c, 0, 52, 96
5, 35376, Note_off_c, 0, 52, 64
5, 35400, Note_on_c, 0, 54, 96
5, 35496, Note_off_c, 0, 54, 64
5, 35520, Note_on_c, 0, 55, 96
5, 36672, Note_off_c, 0, 55, 64
5, 36720, Note_on_c, 0, 57, 96
5, 36816, Note_off_c, 0, 57, 64
5, 36840, Note_on_c, 0, 55, 96
5, 36936, Note_off_c, 0, 55, 64
5, 36960, Note_on_c, 0, 53, 96
5, 37152, Note_off_c, 0, 53, 64
5, 37200, Note_on_c, 0, 52, 96
5, 37296, Note_off_c, 0, 52, 64
5, 37320, Note_on_c, 0, 50, 96
5, 37416, Note_off_c, 0, 50, 64
5, 37440, Note_on_c, 0, 49, 96
5, 37824, Note_off_c, 0, 49, 64
5, 37920, Note_on_c, 0, 50, 96
5, 38304, Note_off_c, 0, 50, 64
5, 38400, Note_on_c, 0, 43, 96
5, 38592, Note_off_c, 0, 43, 64
5, 38640, Note_on_c, 0, 45, 96
5, 38832, Note_off_c, 0, 45, 64
5, 38880, Note_on_c, 0, 46, 96
5, 39264, Note_off_c, 0, 46, 64
5, 39360, Note_on_c, 0, 45, 96
5, 40128, Note_off_c, 0, 45, 64
5, 40320, Note_on_c, 0, 43, 96
5, 40896, Note_off_c, 0, 43, 64
5, 41040, Note_on_c, 0, 52, 96
5, 41232, Note_off_c, 0, 52, 64
5, 41280, Note_on_c, 0, 49, 96
5, 41472, Note_off_c, 0, 49, 64
5, 41520, Note_on_c, 0, 45, 96
5, 41712, Note_off_c, 0, 45, 64
5, 41760, Note_on_c, 0, 50, 96
5, 42048, Note_off_c, 0, 50, 64
5, 42120, Note_on_c, 0, 48, 96
5, 42216, Note_off_c, 0, 48, 64
5, 42240, Note_on_c, 0, 47, 96
5, 42624, Note_off_c, 0, 47, 64
5, 42720, Note_on_c, 0, 48, 96
5, 43584, Note_off_c, 0, 48, 64
5, 43680, Note_on_c, 0, 46, 96
5, 44064, Note_off_c, 0, 46, 64
5, 44160, Note_on_c, 0, 45, 96
5, 44544, Note_off_c, 0, 45, 64
5, 44640, Note_on_c, 0, 38, 96
5, 45024, Note_off_c, 0, 38, 64
5, 45120, Note_on_c, 0, 43, 96
5, 45504, Note_off_c, 0, 43, 64
5, 51600, Note_on_c, 0, 45, 96
5, 51792, Note_off_c, 0, 45, 64
5, 51840, Note_on_c, 0, 50, 96
5, 52416, Note_off_c, 0, 50, 64
5, 52560, Note_on_c, 0, 50, 96
5, 52752, Note_off_c, 0, 50, 64
5, 52800, Note_on_c, 0, 53, 96
5, 52992, Note_off_c, 0, 53, 64
5, 53040, Note_on_c, 0, 52, 96
5, 53136, Note_off_c, 0, 52, 64
5, 53160, Note_on_c, 0, 50, 96
5, 53256, Note_off_c, 0, 50, 64
5, 53280, Note_on_c, 0, 48, 96
5, 53472, Note_off_c, 0, 48, 64
5, 53520, Note_on_c, 0, 50, 96
5, 53712, Note_off_c, 0, 50, 64
5, 53760, Note_on_c, 0, 52, 96
5, 53952, Note_off_c, 0, 52, 64
5, 54000, Note_on_c, 0, 50, 96
5, 54096, Note_off_c, 0, 50, 64
5, 54120, Note_on_c, 0, 48, 96
5, 54216, Note_off_c, 0, 48, 64
5, 54240, Note_on_c, 0, 47, 96
5, 54432, Note_off_c, 0, 47, 64
5, 54480, Note_on_c, 0, 49, 96
5, 54672, Note_off_c, 0, 49, 64
5, 54720, Note_on_c, 0, 50, 96
5, 54912, Note_off_c, 0, 50, 64
5, 54960, Note_on_c, 0, 45, 96
5, 55152, Note_off_c, 0, 45, 64
5, 55200, Note_on_c, 0, 50, 96
5, 55872, Note_off_c, 0, 50, 64
5, 55920, Note_on_c, 0, 48, 96
5, 56016, Note_off_c, 0, 48, 64
5, 56040, Note_on_c, 0, 47, 96
5, 56136, Note_off_c, 0, 47, 64
5, 56160, Note_on_c, 0, 48, 96
5, 56832, Note_off_c, 0, 48, 64
5, 56880, Note_on_c, 0, 47, 96
5, 56976, Note_off_c, 0, 47, 64
5, 57000, Note_on_c, 0, 45, 96
5, 57096, Note_off_c, 0, 45, 64
5, 57120, Note_on_c, 0, 47, 96
5, 57504, Note_off_c, 0, 47, 64
5, 57600, Note_on_c, 0, 45, 96
5, 58176, Note_off_c, 0, 45, 64
5, 58320, Note_on_c, 0, 50, 96
5, 58512, Note_off_c, 0, 50, 64
5, 58560, Note_on_c, 0, 43, 96
5, 58944, Note_off_c, 0, 43, 64
5, 59040, Note_on_c, 0, 50, 96
5, 59424, Note_off_c, 0, 50, 64
5, 59520, Note_on_c, 0, 49, 96
5, 59904, Note_off_c, 0, 49, 64
5, 60000, Note_on_c, 0, 48, 96
5, 60384, Note_off_c, 0, 48, 64
5, 60480, Note_on_c, 0, 47, 96
5, 60864, Note_off_c, 0, 47, 64
5, 60960, Note_on_c, 0, 46, 96
5, 61344, Note_off_c, 0, 46, 64
5, 61440, Note_on_c, 0, 45, 96
5, 61824, Note_off_c, 0, 45, 64
5, 61920, Note_on_c, 0, 50, 96
5, 62304, Note_off_c, 0, 50, 64
5, 62400, Note_on_c, 0, 43, 96
5, 62784, Note_off_c, 0, 43, 64
5, 62880, Note_on_c, 0, 55, 96
5, 63264, Note_off_c, 0, 55, 64
5, 63360, Note_on_c, 0, 53, 96
5, 63552, Note_off_c, 0, 53, 64
5, 63600, Note_on_c, 0, 57, 96
5, 63696, Note_off_c, 0, 57, 64
5, 63720, Note_on_c, 0, 53, 96
5, 63816, Note_off_c, 0, 53, 64
5, 63840, Note_on_c, 0, 58, 96
5, 65088, Note_off_c, 0, 58, 64
5, 65280, Note_on_c, 0, 59, 96
5, 65568, Note_off_c, 0, 59, 64
5, 65640, Note_on_c, 0, 59, 96
5, 65736, Note_off_c, 0, 59, 64
5, 65760, Note_on_c, 0, 59, 96
5, 66144, Note_off_c, 0, 59, 64
5, 66240, Note_on_c, 0, 57, 96
5, 67008, Note_off_c, 0, 57, 64
5, 79680, Note_on_c, 0, 57, 110
5, 80064, Note_off_c, 0, 57, 64
5, 80160, Note_on_c, 0, 56, 110
5, 80928, Note_off_c, 0, 56, 64
5, 81120, Note_on_c, 0, 55, 110
5, 81504, Note_off_c, 0, 55, 64
5, 81600, Note_on_c, 0, 54, 110
5, 82176, Note_off_c, 0, 54, 64
5, 82320, Note_on_c, 0, 52, 110
5, 82512, Note_off_c, 0, 52, 64
5, 82560, Note_on_c, 0, 53, 110
5, 82752, Note_off_c, 0, 53, 64
5, 82800, Note_on_c, 0, 50, 110
5, 82992, Note_off_c, 0, 50, 64
5, 83040, Note_on_c, 0, 52, 110
5, 83616, Note_off_c, 0, 52, 64
5, 83760, Note_on_c, 0, 50, 110
5, 83952, Note_off_c, 0, 50, 64
5, 84000, Note_on_c, 0, 52, 110
5, 84192, Note_off_c, 0, 52, 64
5, 84240, Note_on_c, 0, 48, 110
5, 84432, Note_off_c, 0, 48, 64
5, 84480, Note_on_c, 0, 50, 110
5, 85056, Note_off_c, 0, 50, 64
5, 85200, Note_on_c, 0, 48, 110
5, 85392, Note_off_c, 0, 48, 64
5, 85440, Note_on_c, 0, 50, 110
5, 85632, Note_off_c, 0, 50, 64
5, 85680, Note_on_c, 0, 47, 110
5, 85872, Note_off_c, 0, 47, 64
5, 85920, Note_on_c, 0, 48, 110
5, 86496, Note_off_c, 0, 48, 64
5, 86640, Note_on_c, 0, 50, 110
5, 86832, Note_off_c, 0, 50, 64
5, 86880, Note_on_c, 0, 48, 110
5, 87072, Note_off_c, 0, 48, 64
5, 87120, Note_on_c, 0, 47, 110
5, 87312, Note_off_c, 0, 47, 64
5, 87360, Note_on_c, 0, 48, 110
5, 87552, Note_off_c, 0, 48, 64
5, 87600, Note_on_c, 0, 45, 110
5, 87792, Note_off_c, 0, 45, 64
5, 87840, Note_on_c, 0, 52, 110
5, 88416, Note_off_c, 0, 52, 64
5, 88560, Note_on_c, 0, 52, 110
5, 88752, Note_off_c, 0, 52, 64
5, 88800, Note_on_c, 0, 53, 110
5, 88992, Note_off_c, 0, 53, 64
5, 89040, Note_on_c, 0, 53, 110
5, 89232, Note_off_c, 0, 53, 64
5, 89280, Note_on_c, 0, 48, 110
5, 89856, Note_off_c, 0, 48, 64
5, 90000, Note_on_c, 0, 50, 110
5, 90192, Note_off_c, 0, 50, 64
5, 90240, Note_on_c, 0, 52, 110
5, 90432, Note_off_c, 0, 52, 64
5, 90480, Note_on_c, 0, 52, 110
5, 90672, Note_off_c, 0, 52, 64
5, 90720, Note_on_c, 0, 47, 110
5, 91296, Note_off_c, 0, 47, 64
5, 91440, Note_on_c, 0, 49, 110
5, 91632, Note_off_c, 0, 49, 64
5, 91680, Note_on_c, 0, 50, 110
5, 91872, Note_off_c, 0, 50, 64
5, 91920, Note_on_c, 0, 45, 110
5, 92112, Note_off_c, 0, 45, 64
5, 92160, Note_on_c, 0, 50, 110
5, 93312, Note_off_c, 0, 50, 64
5, 93360, Note_on_c, 0, 44, 110
5, 93552, Note_off_c, 0, 44, 64
5, 93600, Note_on_c, 0, 48, 110
5, 94752, Note_off_c, 0, 48, 64
5, 94800, Note_on_c, 0, 42, 110
5, 94992, Note_off_c, 0, 42, 64
5, 95040, Note_on_c, 0, 47, 110
5, 96192, Note_off_c, 0, 47, 64
5, 96240, Note_on_c, 0, 40, 110
5, 96432, Note_off_c, 0, 40, 64
5, 96480, Note_on_c, 0, 45, 110
5, 97824, Note_off_c, 0, 45, 64
5, 97920, Note_on_c, 0, 43, 110
5, 99264, Note_off_c, 0, 43, 64
5, 99360, Note_on_c, 0, 43, 110
5, 99744, Note_off_c, 0, 43, 64
5, 99840, Note_on_c, 0, 41, 110
5, 100224, Note_off_c, 0, 41, 64
5, 100320, Note_on_c, 0, 40, 110
5, 100704, Note_off_c, 0, 40, 64
5, 100800, Note_on_c, 0, 45, 110
5, 101568, Note_off_c, 0, 45, 64
5, 101760, Note_on_c, 0, 38, 110
5, 102336, Note_off_c, 0, 38, 64
5, 102480, Note_on_c, 0, 50, 110
5, 102672, Note_off_c, 0, 50, 64
5, 102720, Note_on_c, 0, 48, 110
5, 102912, Note_off_c, 0, 48, 64
5, 102960, Note_on_c, 0, 50, 110
5, 103152, Note_off_c, 0, 50, 64
5, 103200, Note_on_c, 0, 43, 110
5, 103584, Note_off_c, 0, 43, 64
5, 103680, Note_on_c, 0, 46, 110
5, 104448, Note_off_c, 0, 46, 64
5, 104640, Note_on_c, 0, 45, 110
5, 105792, Note_off_c, 0, 45, 64
5, 106080, Note_on_c, 0, 43, 110
5, 106848, Note_off_c, 0, 43, 64
5, 107040, Note_on_c, 0, 48, 110
5, 107424, Note_off_c, 0, 48, 64
5, 107520, Note_on_c, 0, 41, 110
5, 108288, Note_off_c, 0, 41, 64
5, 112080, Note_on_c, 0, 38, 110
5, 112272, Note_off_c, 0, 38, 64
5, 112320, Note_on_c, 0, 45, 110
5, 112896, Note_off_c, 0, 45, 64
5, 113040, Note_on_c, 0, 45, 110
5, 113232, Note_off_c, 0, 45, 64
5, 113280, Note_on_c, 0, 46, 110
5, 113472, Note_off_c, 0, 46, 64
5, 113520, Note_on_c, 0, 46, 110
5, 113712, Note_off_c, 0, 46, 64
5, 113760, Note_on_c, 0, 41, 110
5, 114336, Note_off_c, 0, 41, 64
5, 114480, Note_on_c, 0, 43, 110
5, 114672, Note_off_c, 0, 43, 64
5, 114720, Note_on_c, 0, 45, 110
5, 114912, Note_off_c, 0, 45, 64
5, 114960, Note_on_c, 0, 45, 110
5, 115152, Note_off_c, 0, 45, 64
5, 115200, Note_on_c, 0, 40, 110
5, 115776, Note_off_c, 0, 40, 64
5, 115920, Note_on_c, 0, 42, 110
5, 116112, Note_off_c, 0, 42, 64
5, 116160, Note_on_c, 0, 43, 110
5, 116352, Note_off_c, 0, 43, 64
5, 116400, Note_on_c, 0, 38, 110
5, 116592, Note_off_c, 0, 38, 64
5, 116640, Note_on_c, 0, 43, 110
5, 117792, Note_off_c, 0, 43, 64
5, 117840, Note_on_c, 0, 45, 110
5, 118032, Note_off_c, 0, 45, 64
5, 118080, Note_on_c, 0, 41, 110
5, 118272, Note_off_c, 0, 41, 64
5, 118320, Note_on_c, 0, 43, 110
5, 118512, Note_off_c, 0, 43, 64
5, 118560, Note_on_c, 0, 40, 110
5, 118752, Note_off_c, 0, 40, 64
5, 118800, Note_on_c, 0, 41, 110
5, 118992, Note_off_c, 0, 41, 64
5, 119040, Note_on_c, 0, 38, 110
5, 119424, Note_off_c, 0, 38, 64
5, 120000, Note_on_c, 0, 38, 110
5, 120384, Note_off_c, 0, 38, 64
5, 120480, Note_on_c, 0, 40, 110
5, 120864, Note_off_c, 0, 40, 64
5, 121440, Note_on_c, 0, 40, 110
5, 121824, Note_off_c, 0, 40, 64
5, 121920, Note_on_c, 0, 41, 110
5, 122304, Note_off_c, 0, 41, 64
5, 122880, Note_on_c, 0, 42, 110
5, 123264, Note_off_c, 0, 42, 64
5, 123360, Note_on_c, 0, 43, 110
5, 123744, Note_off_c, 0, 43, 64
5, 124320, Note_on_c, 0, 55, 110
5, 124704, Note_off_c, 0, 55, 64
5, 124800, Note_on_c, 0, 57, 110
5, 125184, Note_off_c, 0, 57, 64
5, 125280, Note_on_c, 0, 58, 110
5, 125664, Note_off_c, 0, 58, 64
5, 125760, Note_on_c, 0, 59, 110
5, 126144, Note_off_c, 0, 59, 64
5, 126240, Note_on_c, 0, 60, 110
5, 127008, Note_off_c, 0, 60, 64
5, 127200, Note_on_c, 0, 61, 110
5, 127584, Note_off_c, 0, 61, 64
5, 127680, Note_on_c, 0, 62, 110
5, 128448, Note_off_c, 0, 62, 64
5, 128640, Note_on_c, 0, 55, 110
5, 129504, Note_off_c, 0, 55, 64
5, 129600, Note_on_c, 0, 57, 110
5, 130368, Note_off_c, 0, 57, 64
5, 130560, Note_on_c, 0, 50, 110
5, 130944, Note_off_c, 0, 50, 64
5, 131520, Note_on_c, 0, 62, 110
5, 131904, Note_off_c, 0, 62, 64
5, 132000, Note_on_c, 0, 61, 110
5, 132384, Note_off_c, 0, 61, 64
5, 132960, Note_on_c, 0, 60, 110
5, 133344, Note_off_c, 0, 60, 64
5, 133440, Note_on_c, 0, 59, 110
5, 134016, Note_off_c, 0, 59, 64
5, 134160, Note_on_c, 0, 57, 110
5, 134352, Note_off_c, 0, 57, 64
5, 134400, Note_on_c, 0, 58, 110
5, 134592, Note_off_c, 0, 58, 64
5, 134640, Note_on_c, 0, 55, 110
5, 134832, Note_off_c, 0, 55, 64
5, 134880, Note_on_c, 0, 57, 110
5, 135456, Note_off_c, 0, 57, 64
5, 135600, Note_on_c, 0, 55, 110
5, 135792, Note_off_c, 0, 55, 64
5, 135840, Note_on_c, 0, 57, 110
5, 136032, Note_off_c, 0, 57, 64
5, 136080, Note_on_c, 0, 50, 110
5, 136272, Note_off_c, 0, 50, 64
5, 136320, Note_on_c, 0, 55, 110
5, 136896, Note_off_c, 0, 55, 64
5, 137040, Note_on_c, 0, 53, 110
5, 137232, Note_off_c, 0, 53, 64
5, 137280, Note_on_c, 0, 55, 110
5, 137472, Note_off_c, 0, 55, 64
5, 137520, Note_on_c, 0, 48, 110
5, 137712, Note_off_c, 0, 48, 64
5, 137760, Note_on_c, 0, 53, 110
5, 138336, Note_off_c, 0, 53, 64
5, 138480, Note_on_c, 0, 52, 110
5, 138672, Note_off_c, 0, 52, 64
5, 138720, Note_on_c, 0, 53, 110
5, 138912, Note_off_c, 0, 53, 64
5, 138960, Note_on_c, 0, 50, 110
5, 139152, Note_off_c, 0, 50, 64
5, 139200, Note_on_c, 0, 58, 110
5, 139584, Note_off_c, 0, 58, 64
5, 139680, Note_on_c, 0, 57, 110
5, 140448, Note_off_c, 0, 57, 64
5, 140640, Note_on_c, 0, 50, 110
5, 141408, Note_off_c, 0, 50, 64
5, 181200, Note_on_c, 0, 50, 110
5, 181392, Note_off_c, 0, 50, 64
5, 181440, Note_on_c, 0, 57, 110
5, 182016, Note_off_c, 0, 57, 64
5, 182160, Note_on_c, 0, 57, 110
5, 182352, Note_off_c, 0, 57, 64
5, 182400, Note_on_c, 0, 58, 110
5, 182592, Note_off_c, 0, 58, 64
5, 182640, Note_on_c, 0, 58, 110
5, 182865, Note_off_c, 0, 58, 64
5, 182880, Note_on_c, 0, 53, 110
5, 183456, Note_off_c, 0, 53, 64
5, 183600, Note_on_c, 0, 55, 110
5, 183792, Note_off_c, 0, 55, 64
5, 183840, Note_on_c, 0, 57, 110
5, 184032, Note_off_c, 0, 57, 64
5, 184080, Note_on_c, 0, 57, 110
5, 184272, Note_off_c, 0, 57, 64
5, 184320, Note_on_c, 0, 52, 110
5, 184896, Note_off_c, 0, 52, 64
5, 185040, Note_on_c, 0, 54, 110
5, 185232, Note_off_c, 0, 54, 64
5, 185280, Note_on_c, 0, 55, 110
5, 185472, Note_off_c, 0, 55, 64
5, 185520, Note_on_c, 0, 50, 110
5, 185712, Note_off_c, 0, 50, 64
5, 185760, Note_on_c, 0, 55, 110
5, 186912, Note_off_c, 0, 55, 64
5, 186960, Note_on_c, 0, 49, 110
5, 187152, Note_off_c, 0, 49, 64
5, 187200, Note_on_c, 0, 53, 110
5, 188352, Note_off_c, 0, 53, 64
5, 188400, Note_on_c, 0, 47, 110
5, 188592, Note_off_c, 0, 47, 64
5, 188640, Note_on_c, 0, 52, 110
5, 189024, Note_off_c, 0, 52, 64
5, 189120, Note_on_c, 0, 45, 110
5, 189504, Note_off_c, 0, 45, 64
5, 189600, Note_on_c, 0, 50, 110
5, 189792, Note_off_c, 0, 50, 64
5, 189840, Note_on_c, 0, 48, 110
5, 190032, Note_off_c, 0, 48, 64
5, 190080, Note_on_c, 0, 46, 110
5, 190656, Note_off_c, 0, 46, 64
5, 190800, Note_on_c, 0, 58, 110
5, 190992, Note_off_c, 0, 58, 64
5, 191040, Note_on_c, 0, 57, 110
5, 191616, Note_off_c, 0, 57, 64
5, 191760, Note_on_c, 0, 57, 110
5, 191952, Note_off_c, 0, 57, 64
5, 192000, Note_on_c, 0, 55, 110
5, 192192, Note_off_c, 0, 55, 64
5, 192240, Note_on_c, 0, 53, 110
5, 192432, Note_off_c, 0, 53, 64
5, 192480, Note_on_c, 0, 55, 110
5, 192864, Note_off_c, 0, 55, 64
5, 193440, Note_on_c, 0, 48, 110
5, 193824, Note_off_c, 0, 48, 64
5, 193920, Note_on_c, 0, 53, 110
5, 194496, Note_off_c, 0, 53, 64
5, 194640, Note_on_c, 0, 53, 110
5, 194832, Note_off_c, 0, 53, 64
5, 194880, Note_on_c, 0, 52, 110
5, 195072, Note_off_c, 0, 52, 64
5, 195120, Note_on_c, 0, 50, 110
5, 195312, Note_off_c, 0, 50, 64
5, 195360, Note_on_c, 0, 52, 110
5, 195552, Note_off_c, 0, 52, 64
5, 195600, Note_on_c, 0, 45, 110
5, 195792, Note_off_c, 0, 45, 64
5, 195840, Note_on_c, 0, 50, 110
5, 196224, Note_off_c, 0, 50, 64
5, 196320, Note_on_c, 0, 44, 110
5, 196704, Note_off_c, 0, 44, 64
5, 196800, Note_on_c, 0, 45, 110
5, 197184, Note_off_c, 0, 45, 64
5, 197760, Note_on_c, 0, 56, 110
5, 198144, Note_off_c, 0, 56, 64
5, 198240, Note_on_c, 0, 57, 110
5, 203712, Note_off_c, 0, 57, 64
5, 204000, Note_on_c, 0, 55, 110
5, 204384, Note_off_c, 0, 55, 64
5, 204480, Note_on_c, 0, 57, 110
5, 205056, Note_off_c, 0, 57, 64
5, 205200, Note_on_c, 0, 57, 110
5, 205392, Note_off_c, 0, 57, 64
5, 205440, Note_on_c, 0, 58, 110
5, 205824, Note_off_c, 0, 58, 64
5, 206880, Note_on_c, 0, 56, 110
5, 207264, Note_off_c, 0, 56, 64
5, 207360, Note_on_c, 0, 57, 110
5, 207744, Note_off_c, 0, 57, 64
5, 207840, Note_on_c, 0, 45, 110
5, 208224, Note_off_c, 0, 45, 64
5, 208320, Note_on_c, 0, 50, 110
5, 209472, Note_off_c, 0, 50, 64
5, 209472, End_track
0, 0, End_of_file
