0, 0, Header, 1, 5, 192
1, 0, Start_track
1, 0, Tempo, 500000
1, 0, Time_signature, 6, 2, 24, 8
1, 0, Key_signature, -3, "major"
1, 55296, Tempo, 352941
1, 55296, Time_signature, 4, 2, 24, 8
1, 133680, Tempo, 355029
1, 133728, Tempo, 357142
1, 133776, Tempo, 359281
1, 133824, Tempo, 361445
1, 133872, Tempo, 363636
1, 133920, Tempo, 365853
1, 133968, Tempo, 368098
1, 134016, Tempo, 370370
1, 134064, Tempo, 372670
1, 134112, Tempo, 375000
1, 134160, Tempo, 377358
1, 134208, Tempo, 379746
1, 134256, Tempo, 382165
1, 134304, Tempo, 384615
1, 134352, Tempo, 387096
1, 134400, Tempo, 400000
1, 134496, Tempo, 413793
1, 134592, Tempo, 428571
1, 134688, Tempo, 444444
1, 134784, Tempo, 461538
1, 134880, Tempo, 480000
1, 134976, Tempo, 500000
1, 135072, Tempo, 545454
1, 135168, Tempo, 600000
1, 135360, Tempo, 967741
1, 135456, Tempo, 759493
1, 135552, Tempo, 444444
1, 135936, Tempo, 392156
1, 136128, Tempo, 363636
1, 136320, Tempo, 352941
1, 154368, Tempo, 372670
1, 154560, Tempo, 392156
1, 154752, Tempo, 419580
1, 154848, Tempo, 447761
1, 154944, Tempo, 491803
1, 155136, Tempo, 530973
1, 155520, Tempo, 1500000
1, 155520, End_track
2, 0, Start_track
2, 0, Title_t, "By Me"
2, 0, End_track
3, 0, Start_track
3, 0, Title_t, "Right Hand"
3, 0, Channel_prefix, 0
3, 0, Control_c, 0, 7, 127
3, 0, Control_c, 0, 10, 64
3, 0, Program_c, 0, 19
3, 384, Note_on_c, 0, 67, 110
3, 544, Note_off_c, 0, 67, 64
3, 576, Note_on_c, 0, 75, 110
3, 832, Note_off_c, 0, 75, 64
3, 864, Note_on_c, 0, 74, 110
3, 958, Note_off_c, 0, 74, 64
3, 960, Note_on_c, 0, 75, 110
3, 1120, Note_off_c, 0, 75, 64
3, 1152, Note_on_c, 0, 72, 110
3, 1312, Note_off_c, 0, 72, 64
3, 1344, Note_on_c, 0, 77, 110
3, 1822, Note_off_c, 0, 77, 64
3, 1824, Note_on_c, 0, 75, 110
3, 1870, Note_off_c, 0, 75, 64
3, 1872, Note_on_c, 0, 74, 110
3, 1918, Note_off_c, 0, 74, 64
3, 1920, Note_on_c, 0, 75, 110
3, 2014, Note_off_c, 0, 75, 64
3, 2016, Note_on_c, 0, 80, 110
3, 2110, Note_off_c, 0, 80, 64
3, 2112, Note_on_c, 0, 79, 110
3, 2206, Note_off_c, 0, 79, 64
3, 2208, Note_on_c, 0, 80, 110
3, 2302, Note_off_c, 0, 80, 64
3, 2304, Note_on_c, 0, 74, 110
3, 2464, Note_off_c, 0, 74, 64
3, 2496, Note_on_c, 0, 79, 110
3, 2974, Note_off_c, 0, 79, 64
3, 2976, Note_on_c, 0, 77, 110
3, 3022, Note_off_c, 0, 77, 64
3, 3024, Note_on_c, 0, 75, 110
3, 3070, Note_off_c, 0, 75, 64
3, 3072, Note_on_c, 0, 74, 110
3, 3072, Note_on_c, 0, 77, 110
3, 3166, Note_off_c, 0, 77, 64
3, 3168, Note_on_c, 0, 72, 110
3, 3262, Note_off_c, 0, 72, 64
3, 3264, Note_on_c, 0, 71, 110
3, 3358, Note_off_c, 0, 71, 64
3, 3360, Note_on_c, 0, 77, 110
3, 3550, Note_off_c, 0, 74, 64
3, 3550, Note_off_c, 0, 77, 64
3, 3552, Note_on_c, 0, 72, 110
3, 3552, Note_on_c, 0, 75, 110
3, 3646, Note_off_c, 0, 75, 64
3, 3648, Note_on_c, 0, 80, 110
3, 3712, Note_off_c, 0, 72, 64
3, 3744, Note_on_c, 0, 71, 110
3, 3838, Note_off_c, 0, 71, 64
3, 3840, Note_on_c, 0, 72, 110
3, 3934, Note_off_c, 0, 72, 64
3, 3936, Note_on_c, 0, 74, 110
3, 4030, Note_off_c, 0, 74, 64
3, 4032, Note_on_c, 0, 72, 110
3, 4126, Note_off_c, 0, 80, 64
3, 4128, Note_on_c, 0, 79, 110
3, 4174, Note_off_c, 0, 79, 64
3, 4176, Note_on_c, 0, 77, 110
3, 4222, Note_off_c, 0, 77, 64
3, 4224, Note_on_c, 0, 75, 110
3, 4318, Note_off_c, 0, 75, 64
3, 4320, Note_on_c, 0, 74, 110
3, 4368, Note_off_c, 0, 72, 64
3, 4414, Note_off_c, 0, 74, 64
3, 4416, Note_on_c, 0, 70, 110
3, 4416, Note_on_c, 0, 76, 110
3, 4510, Note_off_c, 0, 76, 64
3, 4512, Note_on_c, 0, 79, 110
3, 4576, Note_off_c, 0, 70, 64
3, 4606, Note_off_c, 0, 79, 64
3, 4608, Note_on_c, 0, 73, 110
3, 4608, Note_on_c, 0, 82, 110
3, 4702, Note_off_c, 0, 73, 64
3, 4704, Note_on_c, 0, 72, 110
3, 4768, Note_off_c, 0, 82, 64
3, 4800, Note_on_c, 0, 80, 110
3, 4894, Note_off_c, 0, 80, 64
3, 4896, Note_on_c, 0, 79, 110
3, 4990, Note_off_c, 0, 79, 64
3, 4992, Note_on_c, 0, 77, 110
3, 5152, Note_off_c, 0, 77, 64
3, 5184, Note_on_c, 0, 84, 110
3, 5278, Note_off_c, 0, 72, 64
3, 5280, Note_on_c, 0, 74, 110
3, 5374, Note_off_c, 0, 74, 64
3, 5376, Note_on_c, 0, 76, 110
3, 5470, Note_off_c, 0, 76, 64
3, 5472, Note_on_c, 0, 77, 110
3, 5566, Note_off_c, 0, 77, 64
3, 5568, Note_on_c, 0, 79, 110
3, 5662, Note_off_c, 0, 79, 64
3, 5664, Note_on_c, 0, 76, 110
3, 5758, Note_off_c, 0, 76, 64
3, 5760, Note_on_c, 0, 77, 110
3, 5854, Note_off_c, 0, 77, 64
3, 5856, Note_on_c, 0, 72, 110
3, 5950, Note_off_c, 0, 72, 64
3, 5952, Note_on_c, 0, 77, 110
3, 6016, Note_off_c, 0, 84, 64
3, 6048, Note_on_c, 0, 84, 110
3, 6142, Note_off_c, 0, 84, 64
3, 6144, Note_on_c, 0, 83, 110
3, 6238, Note_off_c, 0, 83, 64
3, 6240, Note_on_c, 0, 84, 110
3, 6334, Note_off_c, 0, 84, 64
3, 6336, Note_on_c, 0, 83, 110
3, 6430, Note_off_c, 0, 77, 64
3, 6432, Note_on_c, 0, 75, 110
3, 6478, Note_off_c, 0, 75, 64
3, 6480, Note_on_c, 0, 74, 110
3, 6496, Note_off_c, 0, 83, 64
3, 6526, Note_off_c, 0, 74, 64
3, 6528, Note_on_c, 0, 75, 110
3, 6528, Note_on_c, 0, 84, 110
3, 6622, Note_off_c, 0, 84, 64
3, 6624, Note_on_c, 0, 82, 110
3, 6718, Note_off_c, 0, 82, 64
3, 6720, Note_on_c, 0, 80, 110
3, 6814, Note_off_c, 0, 80, 64
3, 6816, Note_on_c, 0, 79, 110
3, 6910, Note_off_c, 0, 79, 64
3, 6912, Note_on_c, 0, 80, 110
3, 7006, Note_off_c, 0, 75, 64
3, 7008, Note_on_c, 0, 74, 110
3, 7054, Note_off_c, 0, 74, 64
3, 7056, Note_on_c, 0, 72, 110
3, 7102, Note_off_c, 0, 72, 64
3, 7104, Note_on_c, 0, 71, 110
3, 7150, Note_off_c, 0, 71, 64
3, 7152, Note_on_c, 0, 72, 110
3, 7198, Note_off_c, 0, 72, 64
3, 7200, Note_on_c, 0, 71, 110
3, 7246, Note_off_c, 0, 71, 64
3, 7248, Note_on_c, 0, 72, 110
3, 7294, Note_off_c, 0, 72, 64
3, 7296, Note_on_c, 0, 74, 110
3, 7440, Note_off_c, 0, 80, 64
3, 7488, Note_on_c, 0, 79, 110
3, 7582, Note_off_c, 0, 74, 64
3, 7584, Note_on_c, 0, 72, 110
3, 7630, Note_off_c, 0, 72, 64
3, 7632, Note_on_c, 0, 71, 110
3, 7678, Note_off_c, 0, 71, 64
3, 7680, Note_on_c, 0, 72, 110
3, 7744, Note_off_c, 0, 79, 64
3, 7776, Note_on_c, 0, 74, 110
3, 7870, Note_off_c, 0, 74, 64
3, 7872, Note_on_c, 0, 75, 110
3, 7936, Note_off_c, 0, 72, 64
3, 7968, Note_on_c, 0, 71, 110
3, 8062, Note_off_c, 0, 71, 64
3, 8064, Note_on_c, 0, 72, 110
3, 8320, Note_off_c, 0, 75, 64
3, 8352, Note_on_c, 0, 77, 110
3, 8398, Note_off_c, 0, 77, 64
3, 8400, Note_on_c, 0, 75, 110
3, 8446, Note_off_c, 0, 75, 64
3, 8448, Note_on_c, 0, 74, 110
3, 8494, Note_off_c, 0, 74, 64
3, 8496, Note_on_c, 0, 75, 110
3, 8542, Note_off_c, 0, 75, 64
3, 8544, Note_on_c, 0, 77, 110
3, 8638, Note_off_c, 0, 77, 64
3, 8640, Note_on_c, 0, 77, 110
3, 8734, Note_off_c, 0, 72, 64
3, 8736, Note_on_c, 0, 71, 110
3, 8800, Note_off_c, 0, 77, 64
3, 8830, Note_off_c, 0, 71, 64
3, 8832, Note_on_c, 0, 72, 110
3, 8832, Note_on_c, 0, 75, 110
3, 9088, Note_off_c, 0, 72, 64
3, 9120, Note_on_c, 0, 70, 110
3, 9168, Note_off_c, 0, 75, 64
3, 9214, Note_off_c, 0, 70, 64
3, 9216, Note_on_c, 0, 68, 110
3, 9216, Note_on_c, 0, 74, 110
3, 9376, Note_off_c, 0, 68, 64
3, 9408, Note_on_c, 0, 67, 110
3, 9454, Note_off_c, 0, 74, 64
3, 9456, Note_on_c, 0, 77, 110
3, 9502, Note_off_c, 0, 77, 64
3, 9504, Note_on_c, 0, 75, 110
3, 9550, Note_off_c, 0, 75, 64
3, 9552, Note_on_c, 0, 74, 110
3, 9598, Note_off_c, 0, 74, 64
3, 9600, Note_on_c, 0, 79, 110
3, 9646, Note_off_c, 0, 79, 64
3, 9648, Note_on_c, 0, 77, 110
3, 9694, Note_off_c, 0, 77, 64
3, 9696, Note_on_c, 0, 75, 110
3, 9742, Note_off_c, 0, 75, 64
3, 9744, Note_on_c, 0, 74, 110
3, 9790, Note_off_c, 0, 74, 64
3, 9792, Note_on_c, 0, 72, 110
3, 9838, Note_off_c, 0, 67, 64
3, 9840, Note_on_c, 0, 70, 110
3, 9886, Note_off_c, 0, 70, 64
3, 9888, Note_on_c, 0, 68, 110
3, 9934, Note_off_c, 0, 68, 64
3, 9936, Note_on_c, 0, 67, 110
3, 9982, Note_off_c, 0, 67, 64
3, 9984, Note_on_c, 0, 65, 110
3, 10128, Note_off_c, 0, 72, 64
3, 10176, Note_on_c, 0, 77, 110
3, 10336, Note_off_c, 0, 65, 64
3, 10462, Note_off_c, 0, 77, 64
3, 10464, Note_on_c, 0, 75, 110
3, 10510, Note_off_c, 0, 75, 64
3, 10512, Note_on_c, 0, 74, 110
3, 10558, Note_off_c, 0, 74, 64
3, 10560, Note_on_c, 0, 75, 110
3, 10656, Note_on_c, 0, 71, 110
3, 10750, Note_off_c, 0, 71, 64
3, 10752, Note_on_c, 0, 72, 110
3, 11104, Note_off_c, 0, 72, 64
3, 11136, Note_on_c, 0, 69, 110
3, 11200, Note_off_c, 0, 75, 64
3, 11232, Note_on_c, 0, 72, 110
3, 11326, Note_off_c, 0, 72, 64
3, 11328, Note_on_c, 0, 75, 110
3, 11422, Note_off_c, 0, 75, 64
3, 11424, Note_on_c, 0, 74, 110
3, 11472, Note_off_c, 0, 69, 64
3, 11518, Note_off_c, 0, 74, 64
3, 11520, Note_on_c, 0, 67, 110
3, 11520, Note_on_c, 0, 72, 110
3, 11680, Note_off_c, 0, 72, 64
3, 11712, Note_on_c, 0, 71, 110
3, 12624, Note_off_c, 0, 67, 64
3, 12624, Note_off_c, 0, 71, 64
3, 12768, Note_on_c, 0, 67, 110
3, 12862, Note_off_c, 0, 67, 64
3, 12864, Note_on_c, 0, 79, 110
3, 12960, Note_off_c, 0, 79, 64
3, 12960, Note_on_c, 0, 77, 110
3, 13054, Note_off_c, 0, 77, 64
3, 13056, Note_on_c, 0, 77, 110
3, 13152, Note_off_c, 0, 77, 64
3, 13152, Note_on_c, 0, 75, 110
3, 13246, Note_off_c, 0, 75, 64
3, 13248, Note_on_c, 0, 77, 110
3, 13342, Note_off_c, 0, 77, 64
3, 13344, Note_on_c, 0, 65, 110
3, 13438, Note_off_c, 0, 65, 64
3, 13440, Note_on_c, 0, 77, 110
3, 13534, Note_off_c, 0, 77, 64
3, 13536, Note_on_c, 0, 75, 110
3, 13630, Note_off_c, 0, 75, 64
3, 13632, Note_on_c, 0, 75, 110
3, 13726, Note_off_c, 0, 75, 64
3, 13728, Note_on_c, 0, 74, 110
3, 13822, Note_off_c, 0, 74, 64
3, 13824, Note_on_c, 0, 75, 110
3, 13984, Note_off_c, 0, 75, 64
3, 14016, Note_on_c, 0, 80, 110
3, 14560, Note_off_c, 0, 80, 64
3, 14592, Note_on_c, 0, 79, 110
3, 15072, Note_off_c, 0, 79, 64
3, 15072, Note_on_c, 0, 77, 110
3, 15166, Note_off_c, 0, 77, 64
3, 15168, Note_on_c, 0, 77, 110
3, 15264, Note_off_c, 0, 77, 64
3, 15264, Note_on_c, 0, 75, 110
3, 15358, Note_off_c, 0, 75, 64
3, 15360, Note_on_c, 0, 75, 110
3, 15456, Note_off_c, 0, 75, 64
3, 15456, Note_on_c, 0, 74, 110
3, 15550, Note_off_c, 0, 74, 64
3, 15552, Note_on_c, 0, 75, 110
3, 15712, Note_off_c, 0, 75, 64
3, 15744, Note_on_c, 0, 69, 110
3, 15904, Note_off_c, 0, 69, 64
3, 15936, Note_on_c, 0, 74, 110
3, 16128, Note_off_c, 0, 74, 64
3, 16128, Note_on_c, 0, 70, 110
3, 16128, Note_on_c, 0, 74, 110
3, 16288, Note_off_c, 0, 74, 64
3, 16320, Note_on_c, 0, 75, 110
3, 16384, Note_off_c, 0, 70, 64
3, 16416, Note_on_c, 0, 68, 110
3, 16510, Note_off_c, 0, 68, 64
3, 16512, Note_on_c, 0, 68, 110
3, 16608, Note_off_c, 0, 68, 64
3, 16608, Note_on_c, 0, 67, 110
3, 16702, Note_off_c, 0, 67, 64
3, 16704, Note_on_c, 0, 68, 110
3, 16864, Note_off_c, 0, 75, 64
3, 16896, Note_on_c, 0, 74, 110
3, 16960, Note_off_c, 0, 68, 64
3, 16992, Note_on_c, 0, 67, 110
3, 17086, Note_off_c, 0, 67, 64
3, 17088, Note_on_c, 0, 67, 110
3, 17184, Note_off_c, 0, 67, 64
3, 17184, Note_on_c, 0, 65, 110
3, 17278, Note_off_c, 0, 65, 64
3, 17280, Note_on_c, 0, 67, 110
3, 17326, Note_off_c, 0, 74, 64
3, 17328, Note_on_c, 0, 72, 110
3, 17374, Note_off_c, 0, 72, 64
3, 17376, Note_on_c, 0, 71, 110
3, 17422, Note_off_c, 0, 71, 64
3, 17424, Note_on_c, 0, 74, 110
3, 17470, Note_off_c, 0, 74, 64
3, 17472, Note_on_c, 0, 72, 110
3, 17518, Note_off_c, 0, 67, 64
3, 17520, Note_on_c, 0, 70, 110
3, 17566, Note_off_c, 0, 70, 64
3, 17568, Note_on_c, 0, 68, 110
3, 17614, Note_off_c, 0, 68, 64
3, 17616, Note_on_c, 0, 67, 110
3, 17662, Note_off_c, 0, 67, 64
3, 17664, Note_on_c, 0, 65, 110
3, 17758, Note_off_c, 0, 65, 64
3, 17760, Note_on_c, 0, 67, 110
3, 17854, Note_off_c, 0, 67, 64
3, 17856, Note_on_c, 0, 68, 110
3, 17902, Note_off_c, 0, 72, 64
3, 17904, Note_on_c, 0, 72, 110
3, 17950, Note_off_c, 0, 72, 64
3, 17952, Note_on_c, 0, 74, 110
3, 17998, Note_off_c, 0, 74, 64
3, 18000, Note_on_c, 0, 75, 110
3, 18046, Note_off_c, 0, 75, 64
3, 18048, Note_on_c, 0, 77, 110
3, 18094, Note_off_c, 0, 68, 64
3, 18096, Note_on_c, 0, 68, 110
3, 18142, Note_off_c, 0, 68, 64
3, 18144, Note_on_c, 0, 67, 110
3, 18190, Note_off_c, 0, 67, 64
3, 18192, Note_on_c, 0, 65, 110
3, 18238, Note_off_c, 0, 65, 64
3, 18240, Note_on_c, 0, 67, 110
3, 18286, Note_off_c, 0, 77, 64
3, 18288, Note_on_c, 0, 77, 110
3, 18334, Note_off_c, 0, 77, 64
3, 18336, Note_on_c, 0, 75, 110
3, 18382, Note_off_c, 0, 75, 64
3, 18384, Note_on_c, 0, 74, 110
3, 18430, Note_off_c, 0, 74, 64
3, 18432, Note_on_c, 0, 75, 110
3, 18526, Note_off_c, 0, 67, 64
3, 18528, Note_on_c, 0, 69, 110
3, 18574, Note_off_c, 0, 69, 64
3, 18576, Note_on_c, 0, 70, 110
3, 18622, Note_off_c, 0, 70, 64
3, 18624, Note_on_c, 0, 69, 110
3, 18718, Note_off_c, 0, 69, 64
3, 18720, Note_on_c, 0, 67, 110
3, 18814, Note_off_c, 0, 67, 64
3, 18816, Note_on_c, 0, 67, 110
3, 18910, Note_off_c, 0, 67, 64
3, 18912, Note_on_c, 0, 66, 110
3, 19006, Note_off_c, 0, 66, 64
3, 19008, Note_on_c, 0, 66, 110
3, 19102, Note_off_c, 0, 75, 64
3, 19104, Note_on_c, 0, 74, 110
3, 19168, Note_off_c, 0, 66, 64
3, 19198, Note_off_c, 0, 74, 64
3, 19200, Note_on_c, 0, 67, 110
3, 19200, Note_on_c, 0, 74, 110
3, 19294, Note_off_c, 0, 67, 64
3, 19296, Note_on_c, 0, 72, 110
3, 19390, Note_off_c, 0, 72, 64
3, 19392, Note_on_c, 0, 70, 110
3, 19486, Note_off_c, 0, 70, 64
3, 19488, Note_on_c, 0, 69, 110
3, 19582, Note_off_c, 0, 69, 64
3, 19584, Note_on_c, 0, 67, 110
3, 19680, Note_off_c, 0, 74, 64
3, 19680, Note_on_c, 0, 72, 110
3, 19744, Note_off_c, 0, 67, 64
3, 19774, Note_off_c, 0, 72, 64
3, 19776, Note_on_c, 0, 66, 110
3, 19776, Note_on_c, 0, 72, 110
3, 19872, Note_off_c, 0, 72, 64
3, 19872, Note_on_c, 0, 70, 110
3, 19966, Note_off_c, 0, 70, 64
3, 19968, Note_on_c, 0, 72, 110
3, 20032, Note_off_c, 0, 66, 64
3, 20064, Note_on_c, 0, 67, 110
3, 20158, Note_off_c, 0, 67, 64
3, 20160, Note_on_c, 0, 69, 110
3, 20254, Note_off_c, 0, 72, 64
3, 20254, Note_off_c, 0, 69, 64
3, 20256, Note_on_c, 0, 75, 110
3, 20350, Note_off_c, 0, 75, 64
3, 20352, Note_on_c, 0, 66, 110
3, 20352, Note_on_c, 0, 75, 110
3, 20446, Note_off_c, 0, 66, 64
3, 20448, Note_off_c, 0, 75, 64
3, 20448, Note_on_c, 0, 74, 110
3, 20542, Note_off_c, 0, 74, 64
3, 20544, Note_on_c, 0, 74, 110
3, 20640, Note_off_c, 0, 74, 64
3, 20640, Note_on_c, 0, 72, 110
3, 20734, Note_off_c, 0, 72, 64
3, 20736, Note_on_c, 0, 70, 110
3, 20784, Note_on_c, 0, 62, 110
3, 20830, Note_off_c, 0, 62, 64
3, 20832, Note_on_c, 0, 64, 110
3, 20878, Note_off_c, 0, 64, 64
3, 20880, Note_on_c, 0, 66, 110
3, 20926, Note_off_c, 0, 66, 64
3, 20928, Note_on_c, 0, 67, 110
3, 20974, Note_off_c, 0, 70, 64
3, 20976, Note_on_c, 0, 69, 110
3, 21022, Note_off_c, 0, 69, 64
3, 21024, Note_on_c, 0, 70, 110
3, 21070, Note_off_c, 0, 70, 64
3, 21072, Note_on_c, 0, 72, 110
3, 21118, Note_off_c, 0, 72, 64
3, 21120, Note_on_c, 0, 74, 110
3, 21214, Note_off_c, 0, 74, 64
3, 21216, Note_on_c, 0, 79, 110
3, 21264, Note_off_c, 0, 67, 64
3, 21312, Note_on_c, 0, 69, 110
3, 21358, Note_off_c, 0, 79, 64
3, 21360, Note_on_c, 0, 77, 110
3, 21406, Note_off_c, 0, 77, 64
3, 21408, Note_on_c, 0, 75, 110
3, 21454, Note_off_c, 0, 75, 64
3, 21456, Note_on_c, 0, 74, 110
3, 21472, Note_off_c, 0, 69, 64
3, 21502, Note_off_c, 0, 74, 64
3, 21504, Note_on_c, 0, 69, 110
3, 21504, Note_on_c, 0, 72, 110
3, 21550, Note_off_c, 0, 69, 64
3, 21552, Note_on_c, 0, 70, 110
3, 21598, Note_off_c, 0, 70, 64
3, 21600, Note_on_c, 0, 69, 110
3, 21646, Note_off_c, 0, 69, 64
3, 21648, Note_on_c, 0, 67, 110
3, 21694, Note_off_c, 0, 67, 64
3, 21696, Note_on_c, 0, 66, 110
3, 21742, Note_off_c, 0, 72, 64
3, 21744, Note_on_c, 0, 72, 110
3, 21790, Note_off_c, 0, 72, 64
3, 21792, Note_on_c, 0, 70, 110
3, 21838, Note_off_c, 0, 70, 64
3, 21840, Note_on_c, 0, 69, 110
3, 21856, Note_off_c, 0, 66, 64
3, 21886, Note_off_c, 0, 69, 64
3, 21888, Note_on_c, 0, 67, 110
3, 21888, Note_on_c, 0, 67, 110
3, 22048, Note_off_c, 0, 67, 64
3, 22048, Note_off_c, 0, 67, 64
3, 22080, Note_on_c, 0, 69, 110
3, 22080, Note_on_c, 0, 78, 110
3, 22240, Note_off_c, 0, 78, 64
3, 22240, Note_off_c, 0, 69, 64
3, 22272, Note_on_c, 0, 74, 110
3, 22272, Note_on_c, 0, 79, 110
3, 22432, Note_off_c, 0, 74, 64
3, 22464, Note_on_c, 0, 75, 110
3, 22606, Note_off_c, 0, 79, 64
3, 22608, Note_on_c, 0, 81, 110
3, 22624, Note_off_c, 0, 75, 64
3, 22654, Note_off_c, 0, 81, 64
3, 22656, Note_on_c, 0, 74, 110
3, 22656, Note_on_c, 0, 79, 110
3, 22816, Note_off_c, 0, 79, 64
3, 22816, Note_off_c, 0, 74, 64
3, 22848, Note_on_c, 0, 72, 110
3, 22848, Note_on_c, 0, 78, 110
3, 22870, Note_off_c, 0, 78, 64
3, 22872, Note_on_c, 0, 75, 110
3, 22894, Note_off_c, 0, 75, 64
3, 22896, Note_on_c, 0, 78, 110
3, 22918, Note_off_c, 0, 78, 64
3, 22920, Note_on_c, 0, 75, 110
3, 22942, Note_off_c, 0, 75, 64
3, 22944, Note_on_c, 0, 78, 110
3, 22966, Note_off_c, 0, 78, 64
3, 22968, Note_on_c, 0, 75, 110
3, 22990, Note_off_c, 0, 75, 64
3, 22992, Note_on_c, 0, 78, 110
3, 23008, Note_off_c, 0, 72, 64
3, 23014, Note_off_c, 0, 78, 64
3, 23016, Note_on_c, 0, 75, 110
3, 23038, Note_off_c, 0, 75, 64
3, 23040, Note_on_c, 0, 70, 110
3, 23040, Note_on_c, 0, 79, 110
3, 23376, Note_off_c, 0, 79, 64
3, 23376, Note_off_c, 0, 70, 64
3, 24000, Note_on_c, 0, 67, 110
3, 24160, Note_off_c, 0, 67, 64
3, 24192, Note_on_c, 0, 75, 110
3, 24448, Note_off_c, 0, 75, 64
3, 24480, Note_on_c, 0, 74, 110
3, 24574, Note_off_c, 0, 74, 64
3, 24576, Note_on_c, 0, 75, 110
3, 24736, Note_off_c, 0, 75, 64
3, 24768, Note_on_c, 0, 74, 110
3, 24928, Note_off_c, 0, 74, 64
3, 24960, Note_on_c, 0, 79, 110
3, 25438, Note_off_c, 0, 79, 64
3, 25440, Note_on_c, 0, 77, 110
3, 25486, Note_off_c, 0, 77, 64
3, 25488, Note_on_c, 0, 75, 110
3, 25534, Note_off_c, 0, 75, 64
3, 25536, Note_on_c, 0, 77, 110
3, 25630, Note_off_c, 0, 77, 64
3, 25632, Note_on_c, 0, 82, 110
3, 25726, Note_off_c, 0, 82, 64
3, 25728, Note_on_c, 0, 81, 110
3, 25822, Note_off_c, 0, 81, 64
3, 25824, Note_on_c, 0, 82, 110
3, 25918, Note_off_c, 0, 82, 64
3, 25920, Note_on_c, 0, 76, 110
3, 26080, Note_off_c, 0, 76, 64
3, 26112, Note_on_c, 0, 81, 110
3, 26496, Note_on_c, 0, 70, 110
3, 26592, Note_on_c, 0, 79, 110
3, 26752, Note_off_c, 0, 70, 64
3, 26782, Note_off_c, 0, 79, 64
3, 26784, Note_on_c, 0, 68, 110
3, 26784, Note_on_c, 0, 78, 110
3, 26878, Note_off_c, 0, 78, 64
3, 26878, Note_off_c, 0, 68, 64
3, 26880, Note_on_c, 0, 70, 110
3, 26880, Note_on_c, 0, 79, 110
3, 26974, Note_off_c, 0, 79, 64
3, 26976, Note_on_c, 0, 81, 110
3, 27040, Note_off_c, 0, 70, 64
3, 27070, Note_off_c, 0, 81, 64
3, 27072, Note_on_c, 0, 69, 110
3, 27072, Note_on_c, 0, 78, 110
3, 27232, Note_off_c, 0, 69, 64
3, 27264, Note_on_c, 0, 74, 110
3, 27408, Note_off_c, 0, 78, 64
3, 27456, Note_on_c, 0, 77, 110
3, 27616, Note_off_c, 0, 77, 64
3, 27648, Note_on_c, 0, 80, 110
3, 27742, Note_off_c, 0, 74, 64
3, 27742, Note_off_c, 0, 80, 64
3, 27744, Note_on_c, 0, 72, 110
3, 27744, Note_on_c, 0, 79, 110
3, 27790, Note_off_c, 0, 72, 64
3, 27792, Note_on_c, 0, 71, 110
3, 27838, Note_off_c, 0, 71, 64
3, 27840, Note_on_c, 0, 72, 110
3, 27934, Note_off_c, 0, 72, 64
3, 27936, Note_on_c, 0, 77, 110
3, 28030, Note_off_c, 0, 77, 64
3, 28032, Note_on_c, 0, 75, 110
3, 28126, Note_off_c, 0, 75, 64
3, 28128, Note_on_c, 0, 77, 110
3, 28222, Note_off_c, 0, 77, 64
3, 28224, Note_on_c, 0, 71, 110
3, 28318, Note_off_c, 0, 79, 64
3, 28320, Note_on_c, 0, 81, 110
3, 28366, Note_off_c, 0, 81, 64
3, 28368, Note_on_c, 0, 83, 110
3, 28384, Note_off_c, 0, 71, 64
3, 28414, Note_off_c, 0, 83, 64
3, 28416, Note_on_c, 0, 77, 110
3, 28416, Note_on_c, 0, 84, 110
3, 28510, Note_off_c, 0, 84, 64
3, 28512, Note_on_c, 0, 83, 110
3, 28606, Note_off_c, 0, 83, 64
3, 28608, Note_on_c, 0, 81, 110
3, 28702, Note_off_c, 0, 81, 64
3, 28704, Note_on_c, 0, 83, 110
3, 28798, Note_off_c, 0, 83, 64
3, 28800, Note_on_c, 0, 84, 110
3, 28894, Note_off_c, 0, 77, 64
3, 28894, Note_off_c, 0, 84, 64
3, 28896, Note_on_c, 0, 75, 110
3, 28896, Note_on_c, 0, 79, 110
3, 28942, Note_off_c, 0, 75, 64
3, 28944, Note_on_c, 0, 74, 110
3, 28990, Note_off_c, 0, 79, 64
3, 28990, Note_off_c, 0, 74, 64
3, 28992, Note_on_c, 0, 75, 110
3, 28992, Note_on_c, 0, 84, 110
3, 29086, Note_off_c, 0, 75, 64
3, 29088, Note_on_c, 0, 75, 110
3, 29470, Note_off_c, 0, 84, 64
3, 29470, Note_off_c, 0, 75, 64
3, 29472, Note_on_c, 0, 74, 110
3, 29472, Note_on_c, 0, 82, 110
3, 29518, Note_off_c, 0, 82, 64
3, 29518, Note_off_c, 0, 74, 64
3, 29520, Note_on_c, 0, 72, 110
3, 29520, Note_on_c, 0, 81, 110
3, 29566, Note_off_c, 0, 81, 64
3, 29566, Note_off_c, 0, 72, 64
3, 29568, Note_on_c, 0, 74, 110
3, 29568, Note_on_c, 0, 82, 110
3, 29662, Note_off_c, 0, 74, 64
3, 29856, Note_on_c, 0, 74, 110
3, 30046, Note_off_c, 0, 82, 64
3, 30046, Note_off_c, 0, 74, 64
3, 30048, Note_on_c, 0, 72, 110
3, 30048, Note_on_c, 0, 81, 110
3, 30094, Note_off_c, 0, 81, 64
3, 30094, Note_off_c, 0, 72, 64
3, 30096, Note_on_c, 0, 70, 110
3, 30096, Note_on_c, 0, 79, 110
3, 30142, Note_off_c, 0, 79, 64
3, 30142, Note_off_c, 0, 70, 64
3, 30144, Note_on_c, 0, 72, 110
3, 30144, Note_on_c, 0, 78, 110
3, 30190, Note_off_c, 0, 78, 64
3, 30192, Note_on_c, 0, 79, 110
3, 30238, Note_off_c, 0, 72, 64
3, 30238, Note_off_c, 0, 79, 64
3, 30240, Note_on_c, 0, 78, 110
3, 30286, Note_off_c, 0, 78, 64
3, 30288, Note_on_c, 0, 79, 110
3, 30334, Note_off_c, 0, 79, 64
3, 30336, Note_on_c, 0, 81, 110
3, 30622, Note_off_c, 0, 81, 64
3, 30624, Note_on_c, 0, 79, 110
3, 30670, Note_off_c, 0, 79, 64
3, 30672, Note_on_c, 0, 78, 110
3, 30718, Note_off_c, 0, 78, 64
3, 30720, Note_on_c, 0, 70, 110
3, 30720, Note_on_c, 0, 79, 110
3, 30814, Note_off_c, 0, 70, 64
3, 30816, Note_on_c, 0, 72, 110
3, 30910, Note_off_c, 0, 72, 64
3, 30912, Note_on_c, 0, 74, 110
3, 30976, Note_off_c, 0, 79, 64
3, 31008, Note_on_c, 0, 78, 110
3, 31102, Note_off_c, 0, 78, 64
3, 31104, Note_on_c, 0, 79, 110
3, 31198, Note_off_c, 0, 74, 64
3, 31200, Note_on_c, 0, 67, 110
3, 31294, Note_off_c, 0, 67, 64
3, 31296, Note_on_c, 0, 72, 110
3, 31552, Note_off_c, 0, 72, 64
3, 31584, Note_on_c, 0, 67, 110
3, 31678, Note_off_c, 0, 67, 64
3, 31680, Note_on_c, 0, 69, 110
3, 31776, Note_on_c, 0, 78, 110
3, 31840, Note_off_c, 0, 69, 64
3, 31870, Note_off_c, 0, 78, 64
3, 31872, Note_on_c, 0, 80, 110
3, 31968, Note_on_c, 0, 70, 110
3, 32062, Note_off_c, 0, 70, 64
3, 32064, Note_on_c, 0, 75, 110
3, 32128, Note_off_c, 0, 80, 64
3, 32158, Note_off_c, 0, 75, 64
3, 32160, Note_on_c, 0, 74, 110
3, 32160, Note_on_c, 0, 77, 110
3, 32254, Note_off_c, 0, 77, 64
3, 32254, Note_off_c, 0, 74, 64
3, 32256, Note_on_c, 0, 72, 110
3, 32256, Note_on_c, 0, 75, 110
3, 32350, Note_off_c, 0, 72, 64
3, 32352, Note_on_c, 0, 70, 110
3, 32416, Note_off_c, 0, 75, 64
3, 32446, Note_off_c, 0, 70, 64
3, 32448, Note_on_c, 0, 69, 110
3, 32448, Note_on_c, 0, 74, 110
3, 32784, Note_off_c, 0, 69, 64
3, 32832, Note_on_c, 0, 70, 110
3, 32878, Note_off_c, 0, 74, 64
3, 32880, Note_on_c, 0, 77, 110
3, 32926, Note_off_c, 0, 77, 64
3, 32928, Note_on_c, 0, 75, 110
3, 32974, Note_off_c, 0, 75, 64
3, 32976, Note_on_c, 0, 74, 110
3, 33022, Note_off_c, 0, 74, 64
3, 33024, Note_on_c, 0, 72, 110
3, 33070, Note_off_c, 0, 70, 64
3, 33072, Note_on_c, 0, 70, 110
3, 33118, Note_off_c, 0, 70, 64
3, 33120, Note_on_c, 0, 69, 110
3, 33166, Note_off_c, 0, 69, 64
3, 33168, Note_on_c, 0, 67, 110
3, 33214, Note_off_c, 0, 67, 64
3, 33216, Note_on_c, 0, 66, 110
3, 33262, Note_off_c, 0, 66, 64
3, 33264, Note_on_c, 0, 67, 110
3, 33310, Note_off_c, 0, 67, 64
3, 33312, Note_on_c, 0, 66, 110
3, 33358, Note_off_c, 0, 66, 64
3, 33360, Note_off_c, 0, 72, 64
3, 33360, Note_on_c, 0, 67, 110
3, 33406, Note_off_c, 0, 67, 64
3, 33408, Note_on_c, 0, 66, 110
3, 33408, Note_on_c, 0, 74, 110
3, 33568, Note_off_c, 0, 66, 64
3, 33694, Note_off_c, 0, 74, 64
3, 33696, Note_on_c, 0, 76, 110
3, 33742, Note_off_c, 0, 76, 64
3, 33744, Note_on_c, 0, 78, 110
3, 33790, Note_off_c, 0, 78, 64
3, 33792, Note_on_c, 0, 79, 110
3, 33838, Note_off_c, 0, 79, 64
3, 33840, Note_on_c, 0, 81, 110
3, 33886, Note_off_c, 0, 81, 64
3, 33888, Note_on_c, 0, 82, 110
3, 33934, Note_off_c, 0, 82, 64
3, 33936, Note_on_c, 0, 81, 110
3, 33982, Note_off_c, 0, 81, 64
3, 33984, Note_on_c, 0, 79, 110
3, 34030, Note_off_c, 0, 79, 64
3, 34032, Note_on_c, 0, 76, 110
3, 34078, Note_off_c, 0, 76, 64
3, 34080, Note_on_c, 0, 77, 110
3, 34126, Note_off_c, 0, 77, 64
3, 34128, Note_on_c, 0, 74, 110
3, 34174, Note_off_c, 0, 74, 64
3, 34176, Note_on_c, 0, 67, 110
3, 34176, Note_on_c, 0, 73, 110
3, 34512, Note_off_c, 0, 73, 64
3, 34512, Note_off_c, 0, 67, 64
3, 34560, Note_on_c, 0, 69, 110
3, 34560, Note_on_c, 0, 74, 110
3, 34654, Note_off_c, 0, 69, 64
3, 34656, Note_on_c, 0, 70, 110
3, 34702, Note_off_c, 0, 70, 64
3, 34704, Note_on_c, 0, 72, 110
3, 34752, Note_off_c, 0, 72, 64
3, 34752, Note_on_c, 0, 70, 110
3, 34848, Note_off_c, 0, 70, 64
3, 34848, Note_on_c, 0, 69, 110
3, 34896, Note_off_c, 0, 74, 64
3, 34942, Note_off_c, 0, 69, 64
3, 34944, Note_on_c, 0, 69, 110
3, 35040, Note_off_c, 0, 69, 64
3, 35040, Note_on_c, 0, 67, 110
3, 35136, Note_off_c, 0, 67, 64
3, 35136, Note_on_c, 0, 69, 110
3, 35808, Note_on_c, 0, 67, 110
3, 35808, Note_on_c, 0, 79, 110
3, 35902, Note_off_c, 0, 67, 64
3, 35902, Note_off_c, 0, 79, 64
3, 35904, Note_on_c, 0, 67, 110
3, 35998, Note_off_c, 0, 67, 64
3, 36000, Note_on_c, 0, 69, 110
3, 36094, Note_off_c, 0, 69, 64
3, 36096, Note_on_c, 0, 69, 110
3, 36190, Note_off_c, 0, 69, 64
3, 36192, Note_on_c, 0, 70, 110
3, 36286, Note_off_c, 0, 70, 64
3, 36288, Note_on_c, 0, 69, 110
3, 36382, Note_off_c, 0, 69, 64
3, 36384, Note_on_c, 0, 77, 110
3, 36478, Note_off_c, 0, 77, 64
3, 36480, Note_on_c, 0, 69, 110
3, 36574, Note_off_c, 0, 69, 64
3, 36576, Note_on_c, 0, 71, 110
3, 36670, Note_off_c, 0, 71, 64
3, 36672, Note_on_c, 0, 71, 110
3, 36766, Note_off_c, 0, 71, 64
3, 36768, Note_on_c, 0, 72, 110
3, 36862, Note_off_c, 0, 72, 64
3, 36864, Note_on_c, 0, 72, 110
3, 36910, Note_off_c, 0, 72, 64
3, 36912, Note_on_c, 0, 71, 110
3, 36958, Note_off_c, 0, 71, 64
3, 36960, Note_on_c, 0, 69, 110
3, 37006, Note_off_c, 0, 69, 64
3, 37008, Note_on_c, 0, 67, 110
3, 37054, Note_off_c, 0, 67, 64
3, 37056, Note_on_c, 0, 75, 110
3, 37150, Note_off_c, 0, 75, 64
3, 37152, Note_on_c, 0, 74, 110
3, 37246, Note_off_c, 0, 74, 64
3, 37248, Note_on_c, 0, 74, 110
3, 37342, Note_off_c, 0, 74, 64
3, 37344, Note_on_c, 0, 72, 110
3, 37438, Note_off_c, 0, 72, 64
3, 37440, Note_on_c, 0, 74, 110
3, 37534, Note_off_c, 0, 74, 64
3, 37536, Note_on_c, 0, 75, 110
3, 37582, Note_off_c, 0, 75, 64
3, 37584, Note_on_c, 0, 77, 110
3, 37630, Note_off_c, 0, 77, 64
3, 37632, Note_on_c, 0, 75, 110
3, 37654, Note_off_c, 0, 75, 64
3, 37656, Note_on_c, 0, 74, 110
3, 37678, Note_off_c, 0, 74, 64
3, 37680, Note_on_c, 0, 75, 110
3, 37702, Note_off_c, 0, 75, 64
3, 37704, Note_on_c, 0, 74, 110
3, 37726, Note_off_c, 0, 74, 64
3, 37728, Note_on_c, 0, 75, 110
3, 37750, Note_off_c, 0, 75, 64
3, 37752, Note_on_c, 0, 74, 110
3, 37774, Note_off_c, 0, 74, 64
3, 37776, Note_on_c, 0, 75, 110
3, 37798, Note_off_c, 0, 75, 64
3, 37800, Note_on_c, 0, 74, 110
3, 37822, Note_off_c, 0, 74, 64
3, 37824, Note_on_c, 0, 75, 110
3, 37846, Note_off_c, 0, 75, 64
3, 37848, Note_on_c, 0, 74, 110
3, 37870, Note_off_c, 0, 74, 64
3, 37872, Note_on_c, 0, 75, 110
3, 37894, Note_off_c, 0, 75, 64
3, 37896, Note_on_c, 0, 74, 110
3, 37918, Note_off_c, 0, 74, 64
3, 37920, Note_on_c, 0, 75, 110
3, 37942, Note_off_c, 0, 75, 64
3, 37944, Note_on_c, 0, 74, 110
3, 37966, Note_off_c, 0, 74, 64
3, 37968, Note_on_c, 0, 75, 110
3, 37990, Note_off_c, 0, 75, 64
3, 37992, Note_on_c, 0, 74, 110
3, 38014, Note_off_c, 0, 74, 64
3, 38016, Note_on_c, 0, 75, 110
3, 38038, Note_off_c, 0, 75, 64
3, 38040, Note_on_c, 0, 74, 110
3, 38062, Note_off_c, 0, 74, 64
3, 38064, Note_on_c, 0, 75, 110
3, 38086, Note_off_c, 0, 75, 64
3, 38088, Note_on_c, 0, 74, 110
3, 38110, Note_off_c, 0, 74, 64
3, 38112, Note_on_c, 0, 75, 110
3, 38134, Note_off_c, 0, 75, 64
3, 38136, Note_on_c, 0, 74, 110
3, 38158, Note_off_c, 0, 74, 64
3, 38160, Note_on_c, 0, 75, 110
3, 38206, Note_off_c, 0, 75, 64
3, 38208, Note_on_c, 0, 74, 110
3, 38254, Note_off_c, 0, 74, 64
3, 38256, Note_on_c, 0, 75, 110
3, 38302, Note_off_c, 0, 75, 64
3, 38304, Note_on_c, 0, 67, 110
3, 38304, Note_on_c, 0, 72, 110
3, 38398, Note_off_c, 0, 67, 64
3, 38400, Note_on_c, 0, 65, 110
3, 38494, Note_off_c, 0, 65, 64
3, 38496, Note_on_c, 0, 65, 110
3, 38590, Note_off_c, 0, 65, 64
3, 38592, Note_on_c, 0, 63, 110
3, 38686, Note_off_c, 0, 63, 64
3, 38688, Note_on_c, 0, 65, 110
3, 38782, Note_off_c, 0, 65, 64
3, 38784, Note_on_c, 0, 65, 110
3, 38784, Note_on_c, 0, 71, 110
3, 38848, Note_off_c, 0, 72, 64
3, 38878, Note_off_c, 0, 65, 64
3, 38880, Note_on_c, 0, 63, 110
3, 38974, Note_off_c, 0, 63, 64
3, 38976, Note_on_c, 0, 63, 110
3, 39070, Note_off_c, 0, 63, 64
3, 39072, Note_on_c, 0, 62, 110
3, 39120, Note_off_c, 0, 71, 64
3, 39166, Note_off_c, 0, 62, 64
3, 39168, Note_on_c, 0, 63, 110
3, 39168, Note_on_c, 0, 72, 110
3, 39328, Note_off_c, 0, 63, 64
3, 39360, Note_on_c, 0, 64, 110
3, 39520, Note_off_c, 0, 64, 64
3, 39552, Note_on_c, 0, 65, 110
3, 39838, Note_off_c, 0, 72, 64
3, 39838, Note_off_c, 0, 65, 64
3, 39840, Note_on_c, 0, 62, 110
3, 39840, Note_on_c, 0, 65, 110
3, 39934, Note_off_c, 0, 65, 64
3, 39934, Note_off_c, 0, 62, 64
3, 39936, Note_on_c, 0, 58, 110
3, 39936, Note_on_c, 0, 70, 110
3, 40030, Note_off_c, 0, 58, 64
3, 40032, Note_on_c, 0, 60, 110
3, 40126, Note_off_c, 0, 60, 64
3, 40128, Note_on_c, 0, 60, 110
3, 40222, Note_off_c, 0, 60, 64
3, 40224, Note_on_c, 0, 61, 110
3, 40318, Note_off_c, 0, 61, 64
3, 40320, Note_on_c, 0, 60, 110
3, 40414, Note_off_c, 0, 60, 64
3, 40416, Note_on_c, 0, 72, 110
3, 40480, Note_off_c, 0, 70, 64
3, 40510, Note_off_c, 0, 72, 64
3, 40512, Note_on_c, 0, 60, 110
3, 40512, Note_on_c, 0, 68, 110
3, 40606, Note_off_c, 0, 68, 64
3, 40606, Note_off_c, 0, 60, 64
3, 40608, Note_on_c, 0, 62, 110
3, 40608, Note_on_c, 0, 70, 110
3, 40702, Note_off_c, 0, 70, 64
3, 40702, Note_off_c, 0, 62, 64
3, 40704, Note_on_c, 0, 62, 110
3, 40704, Note_on_c, 0, 70, 110
3, 40798, Note_off_c, 0, 70, 64
3, 40798, Note_off_c, 0, 62, 64
3, 40800, Note_on_c, 0, 63, 110
3, 40800, Note_on_c, 0, 72, 110
3, 40894, Note_off_c, 0, 72, 64
3, 40894, Note_off_c, 0, 63, 64
3, 40896, Note_on_c, 0, 62, 110
3, 40896, Note_on_c, 0, 65, 110
3, 40990, Note_off_c, 0, 62, 64
3, 40992, Note_on_c, 0, 70, 110
3, 41056, Note_off_c, 0, 65, 64
3, 41086, Note_off_c, 0, 70, 64
3, 41088, Note_on_c, 0, 62, 110
3, 41088, Note_on_c, 0, 70, 110
3, 41182, Note_off_c, 0, 62, 64
3, 41184, Note_on_c, 0, 64, 110
3, 41278, Note_off_c, 0, 64, 64
3, 41280, Note_on_c, 0, 64, 110
3, 41374, Note_off_c, 0, 64, 64
3, 41376, Note_on_c, 0, 65, 110
3, 41470, Note_off_c, 0, 65, 64
3, 41472, Note_on_c, 0, 65, 110
3, 41566, Note_off_c, 0, 70, 64
3, 41568, Note_on_c, 0, 68, 110
3, 41662, Note_off_c, 0, 68, 64
3, 41664, Note_on_c, 0, 68, 110
3, 41728, Note_off_c, 0, 65, 64
3, 41758, Note_off_c, 0, 68, 64
3, 41760, Note_on_c, 0, 64, 110
3, 41760, Note_on_c, 0, 67, 110
3, 41854, Note_off_c, 0, 67, 64
3, 41854, Note_off_c, 0, 64, 64
3, 41856, Note_on_c, 0, 64, 110
3, 41856, Note_on_c, 0, 67, 110
3, 41950, Note_off_c, 0, 67, 64
3, 41950, Note_off_c, 0, 64, 64
3, 41952, Note_on_c, 0, 65, 110
3, 42046, Note_off_c, 0, 65, 64
3, 42048, Note_on_c, 0, 61, 110
3, 42048, Note_on_c, 0, 67, 110
3, 42208, Note_off_c, 0, 61, 64
3, 42240, Note_on_c, 0, 60, 110
3, 42576, Note_off_c, 0, 60, 64
3, 42624, Note_on_c, 0, 60, 110
3, 42718, Note_off_c, 0, 60, 64
3, 42720, Note_on_c, 0, 60, 110
3, 42784, Note_off_c, 0, 67, 64
3, 42814, Note_off_c, 0, 60, 64
3, 42816, Note_on_c, 0, 65, 110
3, 42816, Note_on_c, 0, 72, 110
3, 42910, Note_off_c, 0, 72, 64
3, 42912, Note_on_c, 0, 70, 110
3, 42976, Note_off_c, 0, 65, 64
3, 43006, Note_off_c, 0, 70, 64
3, 43008, Note_on_c, 0, 70, 110
3, 43008, Note_on_c, 0, 77, 110
3, 43102, Note_off_c, 0, 70, 64
3, 43104, Note_on_c, 0, 68, 110
3, 43198, Note_off_c, 0, 68, 64
3, 43200, Note_on_c, 0, 70, 110
3, 43294, Note_off_c, 0, 70, 64
3, 43360, Note_off_c, 0, 77, 64
3, 43392, Note_on_c, 0, 70, 110
3, 43392, Note_on_c, 0, 76, 110
3, 43486, Note_off_c, 0, 70, 64
3, 43488, Note_on_c, 0, 68, 110
3, 43582, Note_off_c, 0, 68, 64
3, 43584, Note_on_c, 0, 68, 110
3, 43678, Note_off_c, 0, 68, 64
3, 43680, Note_on_c, 0, 67, 110
3, 43728, Note_off_c, 0, 76, 64
3, 43774, Note_off_c, 0, 67, 64
3, 43776, Note_on_c, 0, 68, 110
3, 43776, Note_on_c, 0, 77, 110
3, 43936, Note_off_c, 0, 68, 64
3, 43968, Note_on_c, 0, 69, 110
3, 44128, Note_off_c, 0, 69, 64
3, 44160, Note_on_c, 0, 70, 110
3, 44446, Note_off_c, 0, 70, 64
3, 44448, Note_on_c, 0, 69, 110
3, 44494, Note_off_c, 0, 69, 64
3, 44496, Note_on_c, 0, 67, 110
3, 44542, Note_off_c, 0, 67, 64
3, 44544, Note_on_c, 0, 69, 110
3, 44638, Note_off_c, 0, 69, 64
3, 44640, Note_on_c, 0, 70, 110
3, 44734, Note_off_c, 0, 70, 64
3, 44736, Note_on_c, 0, 70, 110
3, 44830, Note_off_c, 0, 70, 64
3, 44832, Note_on_c, 0, 72, 110
3, 44926, Note_off_c, 0, 72, 64
3, 44928, Note_on_c, 0, 65, 110
3, 45022, Note_off_c, 0, 65, 64
3, 45024, Note_on_c, 0, 70, 110
3, 45118, Note_off_c, 0, 70, 64
3, 45120, Note_on_c, 0, 70, 110
3, 45214, Note_off_c, 0, 70, 64
3, 45216, Note_on_c, 0, 68, 110
3, 45310, Note_off_c, 0, 68, 64
3, 45312, Note_on_c, 0, 68, 110
3, 45406, Note_off_c, 0, 68, 64
3, 45408, Note_on_c, 0, 67, 110
3, 45502, Note_off_c, 0, 67, 64
3, 45504, Note_on_c, 0, 68, 110
3, 45598, Note_off_c, 0, 77, 64
3, 45600, Note_on_c, 0, 65, 110
3, 45664, Note_off_c, 0, 68, 64
3, 45694, Note_off_c, 0, 65, 64
3, 45696, Note_on_c, 0, 67, 110
3, 45696, Note_on_c, 0, 77, 110
3, 45790, Note_off_c, 0, 77, 64
3, 45792, Note_on_c, 0, 75, 110
3, 45886, Note_off_c, 0, 75, 64
3, 45888, Note_on_c, 0, 75, 110
3, 45982, Note_off_c, 0, 75, 64
3, 45984, Note_on_c, 0, 74, 110
3, 46078, Note_off_c, 0, 74, 64
3, 46080, Note_on_c, 0, 75, 110
3, 46174, Note_off_c, 0, 67, 64
3, 46176, Note_on_c, 0, 68, 110
3, 46270, Note_off_c, 0, 68, 64
3, 46272, Note_on_c, 0, 72, 110
3, 46336, Note_off_c, 0, 75, 64
3, 46366, Note_off_c, 0, 72, 64
3, 46368, Note_on_c, 0, 70, 110
3, 46368, Note_on_c, 0, 73, 110
3, 46462, Note_off_c, 0, 73, 64
3, 46462, Note_off_c, 0, 70, 64
3, 46464, Note_on_c, 0, 70, 110
3, 46464, Note_on_c, 0, 73, 110
3, 46558, Note_off_c, 0, 73, 64
3, 46558, Note_off_c, 0, 70, 64
3, 46560, Note_on_c, 0, 68, 110
3, 46560, Note_on_c, 0, 72, 110
3, 46654, Note_off_c, 0, 72, 64
3, 46654, Note_off_c, 0, 68, 64
3, 46656, Note_on_c, 0, 70, 110
3, 46656, Note_on_c, 0, 73, 110
3, 46750, Note_off_c, 0, 70, 64
3, 46848, Note_on_c, 0, 70, 110
3, 46912, Note_off_c, 0, 73, 64
3, 46942, Note_off_c, 0, 70, 64
3, 46944, Note_on_c, 0, 68, 110
3, 46944, Note_on_c, 0, 72, 110
3, 47038, Note_off_c, 0, 72, 64
3, 47038, Note_off_c, 0, 68, 64
3, 47040, Note_on_c, 0, 68, 110
3, 47040, Note_on_c, 0, 72, 110
3, 47134, Note_off_c, 0, 72, 64
3, 47134, Note_off_c, 0, 68, 64
3, 47136, Note_on_c, 0, 67, 110
3, 47136, Note_on_c, 0, 70, 110
3, 47230, Note_off_c, 0, 70, 64
3, 47230, Note_off_c, 0, 67, 64
3, 47232, Note_on_c, 0, 68, 110
3, 47232, Note_on_c, 0, 72, 110
3, 47470, Note_off_c, 0, 72, 64
3, 47472, Note_on_c, 0, 75, 110
3, 47488, Note_off_c, 0, 68, 64
3, 47518, Note_off_c, 0, 75, 64
3, 47520, Note_on_c, 0, 73, 110
3, 47566, Note_off_c, 0, 73, 64
3, 47568, Note_on_c, 0, 72, 110
3, 47614, Note_off_c, 0, 72, 64
3, 47616, Note_on_c, 0, 70, 110
3, 47662, Note_off_c, 0, 70, 64
3, 47664, Note_on_c, 0, 68, 110
3, 47710, Note_off_c, 0, 68, 64
3, 47712, Note_on_c, 0, 67, 110
3, 47758, Note_off_c, 0, 67, 64
3, 47760, Note_on_c, 0, 65, 110
3, 47806, Note_off_c, 0, 65, 64
3, 47808, Note_on_c, 0, 64, 110
3, 47854, Note_off_c, 0, 64, 64
3, 47856, Note_on_c, 0, 65, 110
3, 47902, Note_off_c, 0, 65, 64
3, 47904, Note_on_c, 0, 64, 110
3, 47950, Note_off_c, 0, 64, 64
3, 47952, Note_on_c, 0, 65, 110
3, 47998, Note_off_c, 0, 65, 64
3, 48000, Note_on_c, 0, 67, 110
3, 48046, Note_off_c, 0, 67, 64
3, 48048, Note_on_c, 0, 68, 110
3, 48094, Note_off_c, 0, 68, 64
3, 48096, Note_on_c, 0, 70, 110
3, 48142, Note_off_c, 0, 70, 64
3, 48144, Note_on_c, 0, 72, 110
3, 48190, Note_off_c, 0, 72, 64
3, 48192, Note_on_c, 0, 73, 110
3, 48238, Note_off_c, 0, 73, 64
3, 48240, Note_on_c, 0, 70, 110
3, 48286, Note_off_c, 0, 70, 64
3, 48288, Note_on_c, 0, 72, 110
3, 48384, Note_on_c, 0, 65, 110
3, 48430, Note_off_c, 0, 72, 64
3, 48432, Note_on_c, 0, 74, 110
3, 48478, Note_off_c, 0, 65, 64
3, 48478, Note_off_c, 0, 74, 64
3, 48480, Note_on_c, 0, 67, 110
3, 48574, Note_off_c, 0, 67, 64
3, 48576, Note_on_c, 0, 65, 110
3, 48576, Note_on_c, 0, 75, 110
3, 48670, Note_off_c, 0, 75, 64
3, 48670, Note_off_c, 0, 65, 64
3, 48672, Note_on_c, 0, 63, 110
3, 48672, Note_on_c, 0, 74, 110
3, 48766, Note_off_c, 0, 74, 64
3, 48766, Note_off_c, 0, 63, 64
3, 48768, Note_on_c, 0, 63, 110
3, 48768, Note_on_c, 0, 72, 110
3, 48862, Note_off_c, 0, 72, 64
3, 48862, Note_off_c, 0, 63, 64
3, 48864, Note_on_c, 0, 62, 110
3, 48864, Note_on_c, 0, 72, 110
3, 48958, Note_off_c, 0, 72, 64
3, 48958, Note_off_c, 0, 62, 64
3, 48960, Note_on_c, 0, 62, 110
3, 48960, Note_on_c, 0, 72, 110
3, 49120, Note_off_c, 0, 72, 64
3, 49120, Note_off_c, 0, 62, 64
3, 49152, Note_on_c, 0, 72, 110
3, 49198, Note_off_c, 0, 72, 64
3, 49200, Note_on_c, 0, 67, 110
3, 49246, Note_off_c, 0, 67, 64
3, 49248, Note_on_c, 0, 69, 110
3, 49294, Note_off_c, 0, 69, 64
3, 49296, Note_on_c, 0, 70, 110
3, 49342, Note_off_c, 0, 70, 64
3, 49344, Note_on_c, 0, 72, 110
3, 49390, Note_off_c, 0, 72, 64
3, 49392, Note_on_c, 0, 74, 110
3, 49438, Note_off_c, 0, 74, 64
3, 49440, Note_on_c, 0, 75, 110
3, 49486, Note_off_c, 0, 75, 64
3, 49488, Note_on_c, 0, 72, 110
3, 49534, Note_off_c, 0, 72, 64
3, 49536, Note_on_c, 0, 68, 110
3, 49536, Note_on_c, 0, 77, 110
3, 49630, Note_off_c, 0, 68, 64
3, 49632, Note_on_c, 0, 65, 110
3, 49726, Note_off_c, 0, 65, 64
3, 49728, Note_on_c, 0, 71, 110
3, 49984, Note_off_c, 0, 71, 64
3, 50016, Note_on_c, 0, 72, 110
3, 50110, Note_off_c, 0, 72, 64
3, 50112, Note_on_c, 0, 74, 110
3, 50158, Note_off_c, 0, 77, 64
3, 50160, Note_on_c, 0, 79, 110
3, 50206, Note_off_c, 0, 79, 64
3, 50208, Note_on_c, 0, 80, 110
3, 50272, Note_off_c, 0, 74, 64
3, 50302, Note_off_c, 0, 80, 64
3, 50304, Note_on_c, 0, 71, 110
3, 50304, Note_on_c, 0, 80, 110
3, 50398, Note_off_c, 0, 80, 64
3, 50400, Note_on_c, 0, 79, 110
3, 50464, Note_off_c, 0, 71, 64
3, 50494, Note_off_c, 0, 79, 64
3, 50496, Note_on_c, 0, 74, 110
3, 50496, Note_on_c, 0, 79, 110
3, 50590, Note_off_c, 0, 79, 64
3, 50592, Note_on_c, 0, 77, 110
3, 50686, Note_off_c, 0, 77, 64
3, 50688, Note_on_c, 0, 75, 110
3, 50782, Note_off_c, 0, 74, 64
3, 50784, Note_on_c, 0, 67, 110
3, 50878, Note_off_c, 0, 67, 64
3, 50880, Note_on_c, 0, 72, 110
3, 50974, Note_off_c, 0, 72, 64
3, 50976, Note_on_c, 0, 71, 110
3, 51070, Note_off_c, 0, 71, 64
3, 51072, Note_on_c, 0, 72, 110
3, 51166, Note_off_c, 0, 72, 64
3, 51168, Note_on_c, 0, 67, 110
3, 51262, Note_off_c, 0, 67, 64
3, 51264, Note_on_c, 0, 68, 110
3, 51358, Note_off_c, 0, 75, 64
3, 51360, Note_on_c, 0, 74, 110
3, 51424, Note_off_c, 0, 68, 64
3, 51456, Note_on_c, 0, 67, 110
3, 51550, Note_off_c, 0, 74, 64
3, 51552, Note_on_c, 0, 72, 110
3, 51712, Note_off_c, 0, 72, 64
3, 51744, Note_on_c, 0, 71, 110
3, 51838, Note_off_c, 0, 71, 64
3, 51840, Note_on_c, 0, 72, 110
3, 51934, Note_off_c, 0, 67, 64
3, 51936, Note_on_c, 0, 65, 110
3, 52030, Note_off_c, 0, 65, 64
3, 52032, Note_on_c, 0, 65, 110
3, 52126, Note_off_c, 0, 65, 64
3, 52128, Note_on_c, 0, 63, 110
3, 52222, Note_off_c, 0, 63, 64
3, 52224, Note_on_c, 0, 63, 110
3, 52318, Note_off_c, 0, 63, 64
3, 52320, Note_on_c, 0, 62, 110
3, 52414, Note_off_c, 0, 62, 64
3, 52416, Note_on_c, 0, 62, 110
3, 52462, Note_off_c, 0, 72, 64
3, 52464, Note_on_c, 0, 71, 110
3, 52510, Note_off_c, 0, 71, 64
3, 52512, Note_on_c, 0, 72, 110
3, 52558, Note_off_c, 0, 72, 64
3, 52560, Note_on_c, 0, 69, 110
3, 52576, Note_off_c, 0, 62, 64
3, 52606, Note_off_c, 0, 69, 64
3, 52608, Note_on_c, 0, 74, 110
3, 52608, Note_on_c, 0, 72, 110
3, 52630, Note_off_c, 0, 72, 64
3, 52630, Note_off_c, 0, 74, 64
3, 52632, Note_on_c, 0, 62, 110
3, 52632, Note_on_c, 0, 71, 110
3, 52654, Note_off_c, 0, 71, 64
3, 52656, Note_on_c, 0, 72, 110
3, 52678, Note_off_c, 0, 72, 64
3, 52680, Note_on_c, 0, 71, 110
3, 52702, Note_off_c, 0, 62, 64
3, 52702, Note_off_c, 0, 71, 64
3, 52704, Note_on_c, 0, 63, 110
3, 52704, Note_on_c, 0, 72, 110
3, 52726, Note_off_c, 0, 72, 64
3, 52728, Note_on_c, 0, 71, 110
3, 52750, Note_off_c, 0, 71, 64
3, 52752, Note_on_c, 0, 72, 110
3, 52774, Note_off_c, 0, 72, 64
3, 52776, Note_on_c, 0, 71, 110
3, 52798, Note_off_c, 0, 63, 64
3, 52798, Note_off_c, 0, 71, 64
3, 52800, Note_on_c, 0, 65, 110
3, 52800, Note_on_c, 0, 72, 110
3, 52822, Note_off_c, 0, 72, 64
3, 52824, Note_on_c, 0, 71, 110
3, 52846, Note_off_c, 0, 71, 64
3, 52848, Note_on_c, 0, 72, 110
3, 52870, Note_off_c, 0, 72, 64
3, 52872, Note_on_c, 0, 71, 110
3, 52894, Note_off_c, 0, 71, 64
3, 52896, Note_on_c, 0, 72, 110
3, 52990, Note_off_c, 0, 72, 64
3, 52992, Note_on_c, 0, 72, 110
3, 53086, Note_off_c, 0, 65, 64
3, 53088, Note_on_c, 0, 63, 110
3, 53182, Note_off_c, 0, 63, 64
3, 53184, Note_on_c, 0, 68, 110
3, 53230, Note_off_c, 0, 72, 64
3, 53232, Note_on_c, 0, 71, 110
3, 53278, Note_off_c, 0, 71, 64
3, 53280, Note_on_c, 0, 72, 110
3, 53326, Note_off_c, 0, 72, 64
3, 53328, Note_on_c, 0, 74, 110
3, 53374, Note_off_c, 0, 74, 64
3, 53376, Note_on_c, 0, 75, 110
3, 53422, Note_off_c, 0, 75, 64
3, 53424, Note_on_c, 0, 77, 110
3, 53470, Note_off_c, 0, 77, 64
3, 53472, Note_on_c, 0, 79, 110
3, 53518, Note_off_c, 0, 79, 64
3, 53520, Note_on_c, 0, 80, 110
3, 53566, Note_off_c, 0, 80, 64
3, 53568, Note_on_c, 0, 74, 110
3, 53728, Note_off_c, 0, 68, 64
3, 53728, Note_off_c, 0, 74, 64
3, 53760, Note_on_c, 0, 79, 110
3, 53856, Note_on_c, 0, 74, 110
3, 53950, Note_off_c, 0, 74, 64
3, 53952, Note_on_c, 0, 70, 110
3, 54112, Note_off_c, 0, 70, 64
3, 54190, Note_off_c, 0, 79, 64
3, 54192, Note_on_c, 0, 77, 110
3, 54238, Note_off_c, 0, 77, 64
3, 54240, Note_on_c, 0, 75, 110
3, 54286, Note_off_c, 0, 75, 64
3, 54288, Note_on_c, 0, 74, 110
3, 54334, Note_off_c, 0, 74, 64
3, 54336, Note_on_c, 0, 72, 110
3, 54382, Note_off_c, 0, 72, 64
3, 54384, Note_on_c, 0, 71, 110
3, 54430, Note_off_c, 0, 71, 64
3, 54432, Note_on_c, 0, 72, 110
3, 54478, Note_off_c, 0, 72, 64
3, 54480, Note_on_c, 0, 77, 110
3, 54526, Note_off_c, 0, 77, 64
3, 54528, Note_on_c, 0, 75, 110
3, 54574, Note_off_c, 0, 75, 64
3, 54576, Note_on_c, 0, 74, 110
3, 54622, Note_off_c, 0, 74, 64
3, 54624, Note_on_c, 0, 75, 110
3, 54670, Note_off_c, 0, 75, 64
3, 54672, Note_on_c, 0, 72, 110
3, 54718, Note_off_c, 0, 72, 64
3, 54720, Note_on_c, 0, 71, 110
3, 55248, Note_off_c, 0, 71, 64
3, 58944, Note_on_c, 0, 67, 110
3, 59104, Note_off_c, 0, 67, 64
3, 59136, Note_on_c, 0, 72, 110
3, 59296, Note_off_c, 0, 72, 64
3, 59328, Note_on_c, 0, 72, 110
3, 59488, Note_off_c, 0, 72, 64
3, 59520, Note_on_c, 0, 72, 110
3, 59680, Note_off_c, 0, 72, 64
3, 59712, Note_on_c, 0, 72, 110
3, 59872, Note_off_c, 0, 72, 64
3, 59904, Note_on_c, 0, 75, 110
3, 60382, Note_off_c, 0, 75, 64
3, 60384, Note_on_c, 0, 72, 110
3, 60478, Note_off_c, 0, 72, 64
3, 60480, Note_on_c, 0, 69, 110
3, 60574, Note_off_c, 0, 69, 64
3, 60576, Note_on_c, 0, 72, 110
3, 60670, Note_off_c, 0, 72, 64
3, 60672, Note_on_c, 0, 66, 110
3, 60832, Note_off_c, 0, 66, 64
3, 60864, Note_on_c, 0, 75, 110
3, 61024, Note_off_c, 0, 75, 64
3, 61056, Note_on_c, 0, 74, 110
3, 61216, Note_off_c, 0, 74, 64
3, 61248, Note_on_c, 0, 72, 110
3, 61408, Note_off_c, 0, 72, 64
3, 61440, Note_on_c, 0, 70, 110
3, 61600, Note_off_c, 0, 70, 64
3, 61632, Note_on_c, 0, 69, 110
3, 61726, Note_off_c, 0, 69, 64
3, 61728, Note_on_c, 0, 70, 110
3, 61822, Note_off_c, 0, 70, 64
3, 61824, Note_on_c, 0, 67, 110
3, 61918, Note_off_c, 0, 67, 64
3, 61920, Note_on_c, 0, 79, 110
3, 62014, Note_off_c, 0, 79, 64
3, 62016, Note_on_c, 0, 77, 110
3, 62110, Note_off_c, 0, 77, 64
3, 62112, Note_on_c, 0, 79, 110
3, 62206, Note_off_c, 0, 79, 64
3, 62208, Note_on_c, 0, 68, 110
3, 62368, Note_off_c, 0, 68, 64
3, 62400, Note_on_c, 0, 79, 110
3, 62560, Note_off_c, 0, 79, 64
3, 62592, Note_on_c, 0, 77, 110
3, 62752, Note_off_c, 0, 77, 64
3, 62784, Note_on_c, 0, 74, 110
3, 62944, Note_off_c, 0, 74, 64
3, 62976, Note_on_c, 0, 67, 110
3, 63136, Note_off_c, 0, 67, 64
3, 63168, Note_on_c, 0, 77, 110
3, 63328, Note_off_c, 0, 77, 64
3, 63360, Note_on_c, 0, 75, 110
3, 63520, Note_off_c, 0, 75, 64
3, 63552, Note_on_c, 0, 72, 110
3, 63838, Note_off_c, 0, 72, 64
3, 63840, Note_on_c, 0, 75, 110
3, 63934, Note_off_c, 0, 75, 64
3, 63936, Note_on_c, 0, 74, 110
3, 64030, Note_off_c, 0, 74, 64
3, 64032, Note_on_c, 0, 72, 110
3, 64126, Note_off_c, 0, 72, 64
3, 64128, Note_on_c, 0, 71, 110
3, 64222, Note_off_c, 0, 71, 64
3, 64224, Note_on_c, 0, 69, 110
3, 64318, Note_off_c, 0, 69, 64
3, 64320, Note_on_c, 0, 67, 110
3, 64414, Note_off_c, 0, 67, 64
3, 64416, Note_on_c, 0, 65, 110
3, 64510, Note_off_c, 0, 65, 64
3, 64512, Note_on_c, 0, 63, 110
3, 64672, Note_off_c, 0, 63, 64
3, 64704, Note_on_c, 0, 72, 110
3, 65040, Note_off_c, 0, 72, 64
3, 65088, Note_on_c, 0, 77, 110
3, 65248, Note_off_c, 0, 77, 64
3, 65280, Note_on_c, 0, 67, 110
3, 65440, Note_off_c, 0, 67, 64
3, 65472, Note_on_c, 0, 71, 110
3, 65632, Note_off_c, 0, 71, 64
3, 65664, Note_on_c, 0, 72, 110
3, 65824, Note_off_c, 0, 72, 64
3, 65856, Note_on_c, 0, 71, 110
3, 66016, Note_off_c, 0, 71, 64
3, 66048, Note_on_c, 0, 72, 110
3, 66142, Note_off_c, 0, 72, 64
3, 66144, Note_on_c, 0, 79, 110
3, 66238, Note_off_c, 0, 79, 64
3, 66240, Note_on_c, 0, 77, 110
3, 66334, Note_off_c, 0, 77, 64
3, 66336, Note_on_c, 0, 79, 110
3, 66430, Note_off_c, 0, 79, 64
3, 66432, Note_on_c, 0, 75, 110
3, 66526, Note_off_c, 0, 75, 64
3, 66528, Note_on_c, 0, 77, 110
3, 66622, Note_off_c, 0, 77, 64
3, 66624, Note_on_c, 0, 67, 110
3, 66624, Note_on_c, 0, 74, 110
3, 66718, Note_off_c, 0, 74, 64
3, 66720, Note_on_c, 0, 75, 110
3, 66814, Note_off_c, 0, 75, 64
3, 66816, Note_on_c, 0, 72, 110
3, 66910, Note_off_c, 0, 67, 64
3, 66912, Note_on_c, 0, 70, 110
3, 67006, Note_off_c, 0, 70, 64
3, 67008, Note_on_c, 0, 69, 110
3, 67102, Note_off_c, 0, 69, 64
3, 67104, Note_on_c, 0, 67, 110
3, 67198, Note_off_c, 0, 67, 64
3, 67200, Note_on_c, 0, 66, 110
3, 67294, Note_off_c, 0, 66, 64
3, 67296, Note_on_c, 0, 67, 110
3, 67390, Note_off_c, 0, 67, 64
3, 67392, Note_on_c, 0, 64, 110
3, 67486, Note_off_c, 0, 64, 64
3, 67488, Note_on_c, 0, 66, 110
3, 67582, Note_off_c, 0, 66, 64
3, 67584, Note_on_c, 0, 67, 110
3, 67678, Note_off_c, 0, 72, 64
3, 67680, Note_on_c, 0, 71, 110
3, 67774, Note_off_c, 0, 71, 64
3, 67776, Note_on_c, 0, 72, 110
3, 67870, Note_off_c, 0, 72, 64
3, 67872, Note_on_c, 0, 74, 110
3, 67966, Note_off_c, 0, 74, 64
3, 67968, Note_on_c, 0, 75, 110
3, 67968, Note_on_c, 0, 75, 110
3, 68112, Note_off_c, 0, 67, 64
3, 68128, Note_off_c, 0, 75, 64
3, 68160, Note_on_c, 0, 72, 110
3, 68320, Note_off_c, 0, 72, 64
3, 68352, Note_on_c, 0, 69, 110
3, 68512, Note_off_c, 0, 75, 64
3, 68544, Note_on_c, 0, 72, 110
3, 68704, Note_off_c, 0, 72, 64
3, 68736, Note_on_c, 0, 81, 110
3, 68830, Note_off_c, 0, 69, 64
3, 68832, Note_on_c, 0, 72, 110
3, 68926, Note_off_c, 0, 72, 64
3, 68928, Note_on_c, 0, 74, 110
3, 69022, Note_off_c, 0, 74, 64
3, 69024, Note_on_c, 0, 75, 110
3, 69072, Note_off_c, 0, 81, 64
3, 69118, Note_off_c, 0, 75, 64
3, 69120, Note_on_c, 0, 74, 110
3, 69120, Note_on_c, 0, 80, 110
3, 69214, Note_off_c, 0, 80, 64
3, 69216, Note_on_c, 0, 79, 110
3, 69310, Note_off_c, 0, 79, 64
3, 69312, Note_on_c, 0, 78, 110
3, 69406, Note_off_c, 0, 78, 64
3, 69408, Note_on_c, 0, 79, 110
3, 69502, Note_off_c, 0, 79, 64
3, 69504, Note_on_c, 0, 82, 110
3, 69504, Note_on_c, 0, 82, 110
3, 69648, Note_off_c, 0, 74, 64
3, 69664, Note_off_c, 0, 82, 64
3, 69696, Note_on_c, 0, 74, 110
3, 69856, Note_off_c, 0, 74, 64
3, 69888, Note_on_c, 0, 72, 110
3, 69982, Note_off_c, 0, 82, 64
3, 69984, Note_on_c, 0, 77, 110
3, 70078, Note_off_c, 0, 77, 64
3, 70080, Note_on_c, 0, 76, 110
3, 70174, Note_off_c, 0, 76, 64
3, 70176, Note_on_c, 0, 74, 110
3, 70224, Note_off_c, 0, 72, 64
3, 70270, Note_off_c, 0, 74, 64
3, 70272, Note_on_c, 0, 76, 110
3, 70366, Note_off_c, 0, 76, 64
3, 70368, Note_on_c, 0, 79, 110
3, 70462, Note_off_c, 0, 79, 64
3, 70464, Note_on_c, 0, 72, 110
3, 70558, Note_off_c, 0, 72, 64
3, 70560, Note_on_c, 0, 70, 110
3, 70654, Note_off_c, 0, 70, 64
3, 70656, Note_on_c, 0, 68, 110
3, 70750, Note_off_c, 0, 68, 64
3, 70752, Note_on_c, 0, 72, 110
3, 70846, Note_off_c, 0, 72, 64
3, 70848, Note_on_c, 0, 77, 110
3, 70942, Note_off_c, 0, 77, 64
3, 70944, Note_on_c, 0, 79, 110
3, 71038, Note_off_c, 0, 79, 64
3, 71040, Note_on_c, 0, 80, 110
3, 71040, Note_on_c, 0, 80, 110
3, 71200, Note_off_c, 0, 80, 64
3, 71232, Note_on_c, 0, 72, 110
3, 71392, Note_off_c, 0, 72, 64
3, 71424, Note_on_c, 0, 70, 110
3, 71518, Note_off_c, 0, 80, 64
3, 71520, Note_on_c, 0, 75, 110
3, 71614, Note_off_c, 0, 75, 64
3, 71616, Note_on_c, 0, 74, 110
3, 71710, Note_off_c, 0, 74, 64
3, 71712, Note_on_c, 0, 72, 110
3, 71760, Note_off_c, 0, 70, 64
3, 71806, Note_off_c, 0, 72, 64
3, 71808, Note_on_c, 0, 74, 110
3, 71902, Note_off_c, 0, 74, 64
3, 71904, Note_on_c, 0, 77, 110
3, 71998, Note_off_c, 0, 77, 64
3, 72000, Note_on_c, 0, 70, 110
3, 72094, Note_off_c, 0, 70, 64
3, 72096, Note_on_c, 0, 68, 110
3, 72190, Note_off_c, 0, 68, 64
3, 72192, Note_on_c, 0, 67, 110
3, 72286, Note_off_c, 0, 67, 64
3, 72288, Note_on_c, 0, 70, 110
3, 72382, Note_off_c, 0, 70, 64
3, 72384, Note_on_c, 0, 75, 110
3, 72478, Note_off_c, 0, 75, 64
3, 72480, Note_on_c, 0, 77, 110
3, 72574, Note_off_c, 0, 77, 64
3, 72576, Note_on_c, 0, 79, 110
3, 73054, Note_off_c, 0, 79, 64
3, 73056, Note_on_c, 0, 72, 110
3, 73150, Note_off_c, 0, 72, 64
3, 73152, Note_on_c, 0, 74, 110
3, 73246, Note_off_c, 0, 74, 64
3, 73248, Note_on_c, 0, 75, 110
3, 73342, Note_off_c, 0, 75, 64
3, 73344, Note_on_c, 0, 77, 110
3, 73822, Note_off_c, 0, 77, 64
3, 73824, Note_on_c, 0, 75, 110
3, 73918, Note_off_c, 0, 75, 64
3, 73920, Note_on_c, 0, 77, 110
3, 74014, Note_off_c, 0, 77, 64
3, 74016, Note_on_c, 0, 79, 110
3, 74110, Note_off_c, 0, 79, 64
3, 74112, Note_on_c, 0, 77, 110
3, 74206, Note_off_c, 0, 77, 64
3, 74208, Note_on_c, 0, 75, 110
3, 74302, Note_off_c, 0, 75, 64
3, 74304, Note_on_c, 0, 74, 110
3, 74398, Note_off_c, 0, 74, 64
3, 74400, Note_on_c, 0, 72, 110
3, 74494, Note_off_c, 0, 72, 64
3, 74496, Note_on_c, 0, 67, 110
3, 74496, Note_on_c, 0, 74, 110
3, 74656, Note_off_c, 0, 67, 64
3, 74688, Note_on_c, 0, 67, 110
3, 74848, Note_off_c, 0, 67, 64
3, 74880, Note_on_c, 0, 67, 110
3, 75040, Note_off_c, 0, 67, 64
3, 75072, Note_on_c, 0, 67, 110
3, 75232, Note_off_c, 0, 67, 64
3, 75264, Note_on_c, 0, 68, 110
3, 75358, Note_off_c, 0, 74, 64
3, 75360, Note_on_c, 0, 72, 110
3, 75454, Note_off_c, 0, 72, 64
3, 75456, Note_on_c, 0, 74, 110
3, 75550, Note_off_c, 0, 74, 64
3, 75552, Note_on_c, 0, 75, 110
3, 75646, Note_off_c, 0, 75, 64
3, 75648, Note_on_c, 0, 74, 110
3, 75742, Note_off_c, 0, 68, 64
3, 75742, Note_off_c, 0, 74, 64
3, 75744, Note_on_c, 0, 65, 110
3, 75744, Note_on_c, 0, 72, 110
3, 75838, Note_off_c, 0, 72, 64
3, 75838, Note_off_c, 0, 65, 64
3, 75840, Note_on_c, 0, 71, 110
3, 75934, Note_off_c, 0, 71, 64
3, 75936, Note_on_c, 0, 65, 110
3, 75936, Note_on_c, 0, 72, 110
3, 76030, Note_off_c, 0, 72, 64
3, 76030, Note_off_c, 0, 65, 64
3, 76032, Note_on_c, 0, 74, 110
3, 76192, Note_off_c, 0, 74, 64
3, 76224, Note_on_c, 0, 68, 110
3, 76224, Note_on_c, 0, 71, 110
3, 76384, Note_off_c, 0, 71, 64
3, 76384, Note_off_c, 0, 68, 64
3, 76416, Note_on_c, 0, 67, 110
3, 76416, Note_on_c, 0, 72, 110
3, 76576, Note_off_c, 0, 72, 64
3, 76576, Note_off_c, 0, 67, 64
3, 76608, Note_on_c, 0, 65, 110
3, 76608, Note_on_c, 0, 74, 110
3, 76768, Note_off_c, 0, 74, 64
3, 76768, Note_off_c, 0, 65, 64
3, 76800, Note_on_c, 0, 63, 110
3, 76800, Note_on_c, 0, 67, 110
3, 76960, Note_off_c, 0, 63, 64
3, 76992, Note_on_c, 0, 62, 110
3, 77086, Note_off_c, 0, 62, 64
3, 77088, Note_on_c, 0, 63, 110
3, 77182, Note_off_c, 0, 63, 64
3, 77184, Note_on_c, 0, 60, 110
3, 77278, Note_off_c, 0, 60, 64
3, 77280, Note_on_c, 0, 59, 110
3, 77344, Note_off_c, 0, 67, 64
3, 77374, Note_off_c, 0, 59, 64
3, 77376, Note_on_c, 0, 60, 110
3, 77376, Note_on_c, 0, 65, 110
3, 77470, Note_off_c, 0, 60, 64
3, 77472, Note_on_c, 0, 62, 110
3, 77536, Note_off_c, 0, 65, 64
3, 77566, Note_off_c, 0, 62, 64
3, 77568, Note_on_c, 0, 64, 110
3, 77568, Note_on_c, 0, 70, 110
3, 77662, Note_off_c, 0, 64, 64
3, 77664, Note_on_c, 0, 62, 110
3, 77758, Note_off_c, 0, 62, 64
3, 77760, Note_on_c, 0, 64, 110
3, 77854, Note_off_c, 0, 64, 64
3, 77856, Note_on_c, 0, 65, 110
3, 77950, Note_off_c, 0, 65, 64
3, 77952, Note_on_c, 0, 67, 110
3, 78046, Note_off_c, 0, 70, 64
3, 78048, Note_on_c, 0, 68, 110
3, 78142, Note_off_c, 0, 68, 64
3, 78144, Note_on_c, 0, 70, 110
3, 78238, Note_off_c, 0, 70, 64
3, 78240, Note_on_c, 0, 72, 110
3, 78334, Note_off_c, 0, 72, 64
3, 78336, Note_on_c, 0, 68, 110
3, 78496, Note_off_c, 0, 67, 64
3, 78496, Note_off_c, 0, 68, 64
3, 78528, Note_on_c, 0, 65, 110
3, 78528, Note_on_c, 0, 73, 110
3, 78688, Note_off_c, 0, 73, 64
3, 78720, Note_on_c, 0, 72, 110
3, 78814, Note_off_c, 0, 65, 64
3, 78816, Note_on_c, 0, 64, 110
3, 78910, Note_off_c, 0, 64, 64
3, 78912, Note_on_c, 0, 65, 110
3, 79006, Note_off_c, 0, 65, 64
3, 79008, Note_on_c, 0, 67, 110
3, 79102, Note_off_c, 0, 67, 64
3, 79104, Note_on_c, 0, 68, 110
3, 79198, Note_off_c, 0, 72, 64
3, 79200, Note_on_c, 0, 72, 110
3, 79294, Note_off_c, 0, 72, 64
3, 79296, Note_on_c, 0, 74, 110
3, 79390, Note_off_c, 0, 74, 64
3, 79392, Note_on_c, 0, 75, 110
3, 79486, Note_off_c, 0, 75, 64
3, 79488, Note_on_c, 0, 77, 110
3, 79582, Note_off_c, 0, 68, 64
3, 79584, Note_on_c, 0, 67, 110
3, 79678, Note_off_c, 0, 67, 64
3, 79680, Note_on_c, 0, 68, 110
3, 79774, Note_off_c, 0, 68, 64
3, 79776, Note_on_c, 0, 65, 110
3, 79870, Note_off_c, 0, 65, 64
3, 79872, Note_on_c, 0, 67, 110
3, 79968, Note_off_c, 0, 77, 64
3, 79968, Note_on_c, 0, 71, 110
3, 80062, Note_off_c, 0, 71, 64
3, 80064, Note_on_c, 0, 72, 110
3, 80158, Note_off_c, 0, 72, 64
3, 80160, Note_on_c, 0, 74, 110
3, 80208, Note_off_c, 0, 67, 64
3, 80254, Note_off_c, 0, 74, 64
3, 80256, Note_on_c, 0, 67, 110
3, 80256, Note_on_c, 0, 75, 110
3, 80350, Note_off_c, 0, 67, 64
3, 80352, Note_on_c, 0, 67, 110
3, 80446, Note_off_c, 0, 67, 64
3, 80448, Note_on_c, 0, 69, 110
3, 80542, Note_off_c, 0, 69, 64
3, 80544, Note_on_c, 0, 70, 110
3, 80638, Note_off_c, 0, 70, 64
3, 80640, Note_on_c, 0, 72, 110
3, 80734, Note_off_c, 0, 75, 64
3, 80736, Note_on_c, 0, 74, 110
3, 80830, Note_off_c, 0, 74, 64
3, 80832, Note_on_c, 0, 75, 110
3, 80926, Note_off_c, 0, 75, 64
3, 80928, Note_on_c, 0, 72, 110
3, 81022, Note_off_c, 0, 72, 64
3, 81024, Note_on_c, 0, 74, 110
3, 81024, Note_on_c, 0, 74, 110
3, 81168, Note_off_c, 0, 72, 64
3, 81184, Note_off_c, 0, 74, 64
3, 81216, Note_on_c, 0, 72, 110
3, 81376, Note_off_c, 0, 72, 64
3, 81408, Note_on_c, 0, 70, 110
3, 81568, Note_off_c, 0, 74, 64
3, 81600, Note_on_c, 0, 79, 110
3, 81744, Note_off_c, 0, 70, 64
3, 81886, Note_off_c, 0, 79, 64
3, 81888, Note_on_c, 0, 68, 110
3, 81888, Note_on_c, 0, 78, 110
3, 81984, Note_off_c, 0, 78, 64
3, 81984, Note_on_c, 0, 79, 110
3, 82080, Note_off_c, 0, 79, 64
3, 82080, Note_on_c, 0, 80, 110
3, 82176, Note_off_c, 0, 80, 64
3, 82176, Note_on_c, 0, 68, 110
3, 82176, Note_on_c, 0, 74, 110
3, 82224, Note_off_c, 0, 68, 64
3, 82272, Note_off_c, 0, 68, 64
3, 82272, Note_on_c, 0, 72, 110
3, 82366, Note_off_c, 0, 72, 64
3, 82368, Note_on_c, 0, 70, 110
3, 82462, Note_off_c, 0, 70, 64
3, 82464, Note_on_c, 0, 69, 110
3, 82558, Note_off_c, 0, 69, 64
3, 82720, Note_off_c, 0, 74, 64
3, 82752, Note_on_c, 0, 82, 110
3, 83038, Note_off_c, 0, 82, 64
3, 83040, Note_on_c, 0, 79, 110
3, 83134, Note_off_c, 0, 79, 64
3, 83136, Note_on_c, 0, 81, 110
3, 83230, Note_off_c, 0, 81, 64
3, 83232, Note_on_c, 0, 82, 110
3, 83326, Note_off_c, 0, 82, 64
3, 83328, Note_on_c, 0, 81, 110
3, 83422, Note_off_c, 0, 81, 64
3, 83424, Note_on_c, 0, 79, 110
3, 83518, Note_off_c, 0, 79, 64
3, 83520, Note_on_c, 0, 78, 110
3, 83614, Note_off_c, 0, 78, 64
3, 83616, Note_on_c, 0, 79, 110
3, 83710, Note_off_c, 0, 79, 64
3, 83712, Note_on_c, 0, 81, 110
3, 83712, Note_on_c, 0, 81, 110
3, 83806, Note_off_c, 0, 81, 64
3, 83808, Note_on_c, 0, 75, 110
3, 83902, Note_off_c, 0, 75, 64
3, 83904, Note_on_c, 0, 74, 110
3, 83998, Note_off_c, 0, 74, 64
3, 84000, Note_on_c, 0, 72, 110
3, 84094, Note_off_c, 0, 72, 64
3, 84096, Note_on_c, 0, 70, 110
3, 84096, Note_on_c, 0, 70, 110
3, 84240, Note_off_c, 0, 81, 64
3, 84256, Note_off_c, 0, 70, 64
3, 84288, Note_on_c, 0, 79, 110
3, 84432, Note_off_c, 0, 70, 64
3, 84480, Note_on_c, 0, 69, 110
3, 84574, Note_off_c, 0, 79, 64
3, 84576, Note_on_c, 0, 79, 110
3, 84670, Note_off_c, 0, 79, 64
3, 84672, Note_on_c, 0, 77, 110
3, 84766, Note_off_c, 0, 77, 64
3, 84768, Note_on_c, 0, 75, 110
3, 84862, Note_off_c, 0, 75, 64
3, 84864, Note_on_c, 0, 77, 110
3, 84958, Note_off_c, 0, 69, 64
3, 84960, Note_on_c, 0, 75, 110
3, 85054, Note_off_c, 0, 75, 64
3, 85056, Note_on_c, 0, 74, 110
3, 85150, Note_off_c, 0, 74, 64
3, 85152, Note_on_c, 0, 72, 110
3, 85246, Note_off_c, 0, 72, 64
3, 85248, Note_on_c, 0, 71, 110
3, 85342, Note_off_c, 0, 71, 64
3, 85344, Note_on_c, 0, 74, 110
3, 85438, Note_off_c, 0, 74, 64
3, 85440, Note_on_c, 0, 71, 110
3, 85534, Note_off_c, 0, 71, 64
3, 85536, Note_on_c, 0, 67, 110
3, 85584, Note_off_c, 0, 77, 64
3, 85630, Note_off_c, 0, 67, 64
3, 85632, Note_on_c, 0, 72, 110
3, 85632, Note_on_c, 0, 75, 110
3, 85968, Note_off_c, 0, 75, 64
3, 86016, Note_on_c, 0, 74, 110
3, 86110, Note_off_c, 0, 72, 64
3, 86112, Note_on_c, 0, 70, 110
3, 86176, Note_off_c, 0, 74, 64
3, 86208, Note_on_c, 0, 72, 110
3, 86302, Note_off_c, 0, 70, 64
3, 86304, Note_on_c, 0, 69, 110
3, 86398, Note_off_c, 0, 72, 64
3, 86400, Note_on_c, 0, 70, 110
3, 86494, Note_off_c, 0, 69, 64
3, 86496, Note_on_c, 0, 67, 110
3, 86590, Note_off_c, 0, 70, 64
3, 86592, Note_on_c, 0, 69, 110
3, 86686, Note_off_c, 0, 67, 64
3, 86688, Note_on_c, 0, 66, 110
3, 86782, Note_off_c, 0, 69, 64
3, 86782, Note_off_c, 0, 66, 64
3, 86784, Note_on_c, 0, 67, 110
3, 86784, Note_on_c, 0, 67, 110
3, 86878, Note_off_c, 0, 67, 64
3, 86880, Note_on_c, 0, 74, 110
3, 86974, Note_off_c, 0, 74, 64
3, 86976, Note_on_c, 0, 72, 110
3, 87070, Note_off_c, 0, 72, 64
3, 87072, Note_on_c, 0, 74, 110
3, 87120, Note_off_c, 0, 67, 64
3, 87166, Note_off_c, 0, 74, 64
3, 87168, Note_on_c, 0, 70, 110
3, 87328, Note_off_c, 0, 70, 64
3, 87360, Note_on_c, 0, 79, 110
3, 87520, Note_off_c, 0, 79, 64
3, 87552, Note_on_c, 0, 77, 110
3, 87552, Note_on_c, 0, 77, 110
3, 87712, Note_off_c, 0, 77, 64
3, 87744, Note_on_c, 0, 74, 110
3, 87904, Note_off_c, 0, 74, 64
3, 87936, Note_on_c, 0, 71, 110
3, 88030, Note_off_c, 0, 77, 64
3, 88032, Note_on_c, 0, 80, 110
3, 88126, Note_off_c, 0, 80, 64
3, 88128, Note_on_c, 0, 79, 110
3, 88222, Note_off_c, 0, 79, 64
3, 88224, Note_on_c, 0, 77, 110
3, 88272, Note_off_c, 0, 71, 64
3, 88318, Note_off_c, 0, 77, 64
3, 88320, Note_on_c, 0, 75, 110
3, 88320, Note_on_c, 0, 75, 110
3, 88414, Note_off_c, 0, 75, 64
3, 88416, Note_on_c, 0, 67, 110
3, 88510, Note_off_c, 0, 67, 64
3, 88512, Note_on_c, 0, 72, 110
3, 88606, Note_off_c, 0, 72, 64
3, 88608, Note_on_c, 0, 70, 110
3, 88702, Note_off_c, 0, 70, 64
3, 88704, Note_on_c, 0, 68, 110
3, 88798, Note_off_c, 0, 75, 64
3, 88800, Note_on_c, 0, 72, 110
3, 88894, Note_off_c, 0, 72, 64
3, 88896, Note_on_c, 0, 77, 110
3, 88990, Note_off_c, 0, 77, 64
3, 88992, Note_on_c, 0, 75, 110
3, 89086, Note_off_c, 0, 75, 64
3, 89088, Note_on_c, 0, 74, 110
3, 89182, Note_off_c, 0, 68, 64
3, 89184, Note_on_c, 0, 72, 110
3, 89278, Note_off_c, 0, 72, 64
3, 89280, Note_on_c, 0, 70, 110
3, 89374, Note_off_c, 0, 70, 64
3, 89376, Note_on_c, 0, 68, 110
3, 89470, Note_off_c, 0, 68, 64
3, 89472, Note_on_c, 0, 67, 110
3, 89566, Note_off_c, 0, 74, 64
3, 89568, Note_on_c, 0, 77, 110
3, 89662, Note_off_c, 0, 77, 64
3, 89664, Note_on_c, 0, 75, 110
3, 89758, Note_off_c, 0, 75, 64
3, 89760, Note_on_c, 0, 74, 110
3, 89854, Note_off_c, 0, 74, 64
3, 89856, Note_on_c, 0, 72, 110
3, 89950, Note_off_c, 0, 67, 64
3, 90334, Note_off_c, 0, 72, 64
3, 90336, Note_on_c, 0, 74, 110
3, 90430, Note_off_c, 0, 74, 64
3, 90432, Note_on_c, 0, 75, 110
3, 90526, Note_off_c, 0, 75, 64
3, 90528, Note_on_c, 0, 77, 110
3, 90622, Note_off_c, 0, 77, 64
3, 90624, Note_on_c, 0, 79, 110
3, 90624, Note_on_c, 0, 79, 110
3, 90718, Note_off_c, 0, 79, 64
3, 90720, Note_on_c, 0, 70, 110
3, 90784, Note_off_c, 0, 79, 64
3, 90814, Note_off_c, 0, 70, 64
3, 90816, Note_on_c, 0, 73, 110
3, 90816, Note_on_c, 0, 79, 110
3, 90910, Note_off_c, 0, 73, 64
3, 90912, Note_on_c, 0, 70, 110
3, 91006, Note_off_c, 0, 79, 64
3, 91006, Note_off_c, 0, 70, 64
3, 91008, Note_on_c, 0, 79, 110
3, 91168, Note_off_c, 0, 79, 64
3, 91200, Note_on_c, 0, 79, 110
3, 91360, Note_off_c, 0, 79, 64
3, 91392, Note_on_c, 0, 80, 110
3, 91870, Note_off_c, 0, 80, 64
3, 91872, Note_on_c, 0, 77, 110
3, 91966, Note_off_c, 0, 77, 64
3, 91968, Note_on_c, 0, 74, 110
3, 92062, Note_off_c, 0, 74, 64
3, 92064, Note_on_c, 0, 77, 110
3, 92158, Note_off_c, 0, 77, 64
3, 92160, Note_on_c, 0, 67, 110
3, 92160, Note_on_c, 0, 71, 110
3, 92320, Note_off_c, 0, 71, 64
3, 92320, Note_off_c, 0, 67, 64
3, 92352, Note_on_c, 0, 71, 110
3, 92352, Note_on_c, 0, 80, 110
3, 92512, Note_off_c, 0, 80, 64
3, 92512, Note_off_c, 0, 71, 64
3, 92544, Note_on_c, 0, 72, 110
3, 92544, Note_on_c, 0, 79, 110
3, 92704, Note_off_c, 0, 79, 64
3, 92704, Note_off_c, 0, 72, 64
3, 92736, Note_on_c, 0, 74, 110
3, 92736, Note_on_c, 0, 77, 110
3, 92896, Note_off_c, 0, 77, 64
3, 92928, Note_on_c, 0, 75, 110
3, 93022, Note_off_c, 0, 74, 64
3, 93024, Note_on_c, 0, 74, 110
3, 93118, Note_off_c, 0, 74, 64
3, 93120, Note_on_c, 0, 72, 110
3, 93214, Note_off_c, 0, 72, 64
3, 93216, Note_on_c, 0, 74, 110
3, 93264, Note_off_c, 0, 75, 64
3, 93310, Note_off_c, 0, 74, 64
3, 93312, Note_on_c, 0, 75, 110
3, 93312, Note_on_c, 0, 75, 110
3, 93406, Note_off_c, 0, 75, 64
3, 93408, Note_on_c, 0, 77, 110
3, 93502, Note_off_c, 0, 77, 64
3, 93504, Note_on_c, 0, 79, 110
3, 93598, Note_off_c, 0, 79, 64
3, 93600, Note_on_c, 0, 81, 110
3, 93648, Note_off_c, 0, 75, 64
3, 93694, Note_off_c, 0, 81, 64
3, 93696, Note_on_c, 0, 83, 110
3, 93696, Note_on_c, 0, 83, 110
3, 93790, Note_off_c, 0, 83, 64
3, 93792, Note_on_c, 0, 74, 110
3, 93856, Note_off_c, 0, 83, 64
3, 93886, Note_off_c, 0, 74, 64
3, 93888, Note_on_c, 0, 75, 110
3, 93982, Note_off_c, 0, 75, 64
3, 93984, Note_on_c, 0, 77, 110
3, 94078, Note_off_c, 0, 77, 64
3, 94080, Note_on_c, 0, 75, 110
3, 94174, Note_off_c, 0, 75, 64
3, 94176, Note_on_c, 0, 74, 110
3, 94270, Note_off_c, 0, 74, 64
3, 94272, Note_on_c, 0, 72, 110
3, 94272, Note_on_c, 0, 79, 110
3, 94366, Note_off_c, 0, 72, 64
3, 94368, Note_on_c, 0, 71, 110
3, 94462, Note_off_c, 0, 71, 64
3, 94464, Note_on_c, 0, 72, 110
3, 94558, Note_off_c, 0, 79, 64
3, 94560, Note_on_c, 0, 82, 110
3, 94654, Note_off_c, 0, 82, 64
3, 94656, Note_on_c, 0, 80, 110
3, 94750, Note_off_c, 0, 80, 64
3, 94752, Note_on_c, 0, 79, 110
3, 94846, Note_off_c, 0, 79, 64
3, 94848, Note_on_c, 0, 77, 110
3, 94848, Note_on_c, 0, 77, 110
3, 94992, Note_off_c, 0, 72, 64
3, 95008, Note_off_c, 0, 77, 64
3, 95040, Note_on_c, 0, 71, 110
3, 95134, Note_off_c, 0, 71, 64
3, 95136, Note_on_c, 0, 72, 110
3, 95230, Note_off_c, 0, 72, 64
3, 95232, Note_on_c, 0, 74, 110
3, 95392, Note_off_c, 0, 77, 64
3, 95392, Note_off_c, 0, 74, 64
3, 95424, Note_on_c, 0, 71, 110
3, 95424, Note_on_c, 0, 74, 110
3, 95584, Note_off_c, 0, 74, 64
3, 95584, Note_off_c, 0, 71, 64
3, 95616, Note_on_c, 0, 72, 110
3, 95616, Note_on_c, 0, 79, 110
3, 95776, Note_off_c, 0, 79, 64
3, 95776, Note_off_c, 0, 72, 64
3, 95808, Note_on_c, 0, 71, 110
3, 95808, Note_on_c, 0, 80, 110
3, 95968, Note_off_c, 0, 80, 64
3, 95968, Note_off_c, 0, 71, 64
3, 96000, Note_on_c, 0, 70, 110
3, 96000, Note_on_c, 0, 79, 110
3, 96094, Note_off_c, 0, 70, 64
3, 96096, Note_on_c, 0, 72, 110
3, 96096, Note_on_c, 0, 72, 110
3, 96160, Note_off_c, 0, 79, 64
3, 96190, Note_off_c, 0, 72, 64
3, 96192, Note_on_c, 0, 77, 110
3, 96192, Note_on_c, 0, 77, 110
3, 96256, Note_off_c, 0, 72, 64
3, 96286, Note_off_c, 0, 77, 64
3, 96288, Note_on_c, 0, 71, 110
3, 96352, Note_off_c, 0, 77, 64
3, 96382, Note_off_c, 0, 71, 64
3, 96384, Note_on_c, 0, 72, 110
3, 96384, Note_on_c, 0, 75, 110
3, 96862, Note_off_c, 0, 75, 64
3, 96864, Note_on_c, 0, 75, 110
3, 96928, Note_off_c, 0, 72, 64
3, 96958, Note_off_c, 0, 75, 64
3, 96960, Note_on_c, 0, 77, 110
3, 97054, Note_off_c, 0, 77, 64
3, 97056, Note_on_c, 0, 79, 110
3, 97150, Note_off_c, 0, 79, 64
3, 97152, Note_on_c, 0, 77, 110
3, 97246, Note_off_c, 0, 77, 64
3, 97248, Note_on_c, 0, 75, 110
3, 97342, Note_off_c, 0, 75, 64
3, 97344, Note_on_c, 0, 74, 110
3, 97438, Note_off_c, 0, 74, 64
3, 97440, Note_on_c, 0, 72, 110
3, 97534, Note_off_c, 0, 72, 64
3, 97536, Note_on_c, 0, 74, 110
3, 97630, Note_off_c, 0, 74, 64
3, 97632, Note_on_c, 0, 71, 110
3, 97726, Note_off_c, 0, 71, 64
3, 97728, Note_on_c, 0, 72, 110
3, 97822, Note_off_c, 0, 72, 64
3, 97824, Note_on_c, 0, 74, 110
3, 97918, Note_off_c, 0, 74, 64
3, 97920, Note_on_c, 0, 75, 110
3, 98014, Note_off_c, 0, 75, 64
3, 98016, Note_on_c, 0, 77, 110
3, 98110, Note_off_c, 0, 77, 64
3, 98112, Note_on_c, 0, 79, 110
3, 98398, Note_off_c, 0, 79, 64
3, 98400, Note_on_c, 0, 77, 110
3, 98494, Note_off_c, 0, 77, 64
3, 98496, Note_on_c, 0, 80, 110
3, 98590, Note_off_c, 0, 80, 64
3, 98592, Note_on_c, 0, 79, 110
3, 98686, Note_off_c, 0, 79, 64
3, 98688, Note_on_c, 0, 77, 110
3, 98782, Note_off_c, 0, 77, 64
3, 98784, Note_on_c, 0, 75, 110
3, 98878, Note_off_c, 0, 75, 64
3, 98880, Note_on_c, 0, 74, 110
3, 98974, Note_off_c, 0, 74, 64
3, 98976, Note_on_c, 0, 72, 110
3, 99070, Note_off_c, 0, 72, 64
3, 99072, Note_on_c, 0, 71, 110
3, 99072, Note_on_c, 0, 71, 110
3, 99166, Note_off_c, 0, 71, 64
3, 99168, Note_on_c, 0, 62, 110
3, 99262, Note_off_c, 0, 62, 64
3, 99264, Note_on_c, 0, 63, 110
3, 99358, Note_off_c, 0, 63, 64
3, 99360, Note_on_c, 0, 65, 110
3, 99408, Note_off_c, 0, 71, 64
3, 99454, Note_off_c, 0, 65, 64
3, 99456, Note_on_c, 0, 63, 110
3, 99550, Note_off_c, 0, 63, 64
3, 99552, Note_on_c, 0, 62, 110
3, 99646, Note_off_c, 0, 62, 64
3, 99648, Note_on_c, 0, 60, 110
3, 99742, Note_off_c, 0, 60, 64
3, 99744, Note_on_c, 0, 59, 110
3, 99838, Note_off_c, 0, 59, 64
3, 99840, Note_on_c, 0, 60, 110
3, 99934, Note_off_c, 0, 60, 64
3, 99936, Note_on_c, 0, 64, 110
3, 100030, Note_off_c, 0, 64, 64
3, 100032, Note_on_c, 0, 65, 110
3, 100126, Note_off_c, 0, 65, 64
3, 100128, Note_on_c, 0, 67, 110
3, 100222, Note_off_c, 0, 67, 64
3, 100224, Note_on_c, 0, 65, 110
3, 100318, Note_off_c, 0, 65, 64
3, 100320, Note_on_c, 0, 63, 110
3, 100414, Note_off_c, 0, 63, 64
3, 100416, Note_on_c, 0, 62, 110
3, 100510, Note_off_c, 0, 62, 64
3, 100512, Note_on_c, 0, 60, 110
3, 100606, Note_off_c, 0, 60, 64
3, 100608, Note_on_c, 0, 62, 110
3, 100702, Note_off_c, 0, 62, 64
3, 100704, Note_on_c, 0, 66, 110
3, 100798, Note_off_c, 0, 66, 64
3, 100800, Note_on_c, 0, 67, 110
3, 100894, Note_off_c, 0, 67, 64
3, 100896, Note_on_c, 0, 68, 110
3, 100990, Note_off_c, 0, 68, 64
3, 100992, Note_on_c, 0, 67, 110
3, 101086, Note_off_c, 0, 67, 64
3, 101088, Note_on_c, 0, 65, 110
3, 101182, Note_off_c, 0, 65, 64
3, 101184, Note_on_c, 0, 63, 110
3, 101278, Note_off_c, 0, 63, 64
3, 101280, Note_on_c, 0, 62, 110
3, 101374, Note_off_c, 0, 62, 64
3, 101472, Note_on_c, 0, 71, 110
3, 101566, Note_off_c, 0, 71, 64
3, 101568, Note_on_c, 0, 72, 110
3, 101662, Note_off_c, 0, 72, 64
3, 101664, Note_on_c, 0, 74, 110
3, 101758, Note_off_c, 0, 74, 64
3, 101760, Note_on_c, 0, 72, 110
3, 101854, Note_off_c, 0, 72, 64
3, 101856, Note_on_c, 0, 70, 110
3, 101950, Note_off_c, 0, 70, 64
3, 101952, Note_on_c, 0, 69, 110
3, 102046, Note_off_c, 0, 69, 64
3, 102048, Note_on_c, 0, 67, 110
3, 102142, Note_off_c, 0, 67, 64
3, 102144, Note_on_c, 0, 69, 110
3, 102238, Note_off_c, 0, 69, 64
3, 102240, Note_on_c, 0, 73, 110
3, 102334, Note_off_c, 0, 73, 64
3, 102336, Note_on_c, 0, 74, 110
3, 102430, Note_off_c, 0, 74, 64
3, 102432, Note_on_c, 0, 75, 110
3, 102526, Note_off_c, 0, 75, 64
3, 102528, Note_on_c, 0, 66, 110
3, 102528, Note_on_c, 0, 74, 110
3, 102622, Note_off_c, 0, 74, 64
3, 102624, Note_on_c, 0, 72, 110
3, 102718, Note_off_c, 0, 72, 64
3, 102720, Note_on_c, 0, 70, 110
3, 102814, Note_off_c, 0, 70, 64
3, 102816, Note_on_c, 0, 69, 110
3, 102864, Note_off_c, 0, 66, 64
3, 102910, Note_off_c, 0, 69, 64
3, 102912, Note_on_c, 0, 67, 110
3, 102912, Note_on_c, 0, 70, 110
3, 103072, Note_off_c, 0, 70, 64
3, 103072, Note_off_c, 0, 67, 64
3, 103104, Note_on_c, 0, 69, 110
3, 103104, Note_on_c, 0, 72, 110
3, 103264, Note_off_c, 0, 72, 64
3, 103264, Note_off_c, 0, 69, 64
3, 103296, Note_on_c, 0, 70, 110
3, 103296, Note_on_c, 0, 74, 110
3, 103390, Note_off_c, 0, 70, 64
3, 103392, Note_on_c, 0, 72, 110
3, 103486, Note_off_c, 0, 72, 64
3, 103488, Note_on_c, 0, 74, 110
3, 103632, Note_off_c, 0, 74, 64
3, 103680, Note_on_c, 0, 75, 110
3, 103840, Note_off_c, 0, 74, 64
3, 103872, Note_on_c, 0, 67, 110
3, 104016, Note_off_c, 0, 75, 64
3, 104064, Note_on_c, 0, 76, 110
3, 104158, Note_off_c, 0, 67, 64
3, 104160, Note_on_c, 0, 74, 110
3, 104254, Note_off_c, 0, 74, 64
3, 104256, Note_on_c, 0, 72, 110
3, 104350, Note_off_c, 0, 72, 64
3, 104352, Note_on_c, 0, 70, 110
3, 104400, Note_off_c, 0, 76, 64
3, 104446, Note_off_c, 0, 70, 64
3, 104448, Note_on_c, 0, 69, 110
3, 104448, Note_on_c, 0, 77, 110
3, 104608, Note_off_c, 0, 69, 64
3, 104640, Note_on_c, 0, 70, 110
3, 104784, Note_off_c, 0, 77, 64
3, 104800, Note_off_c, 0, 70, 64
3, 104832, Note_on_c, 0, 72, 110
3, 104832, Note_on_c, 0, 78, 110
3, 105168, Note_off_c, 0, 78, 64
3, 105168, Note_off_c, 0, 72, 64
3, 105216, Note_on_c, 0, 74, 110
3, 105216, Note_on_c, 0, 79, 110
3, 105310, Note_off_c, 0, 79, 64
3, 105312, Note_on_c, 0, 78, 110
3, 105406, Note_off_c, 0, 78, 64
3, 105408, Note_on_c, 0, 79, 110
3, 105502, Note_off_c, 0, 79, 64
3, 105504, Note_on_c, 0, 80, 110
3, 105598, Note_off_c, 0, 80, 64
3, 105600, Note_on_c, 0, 79, 110
3, 105694, Note_off_c, 0, 79, 64
3, 105696, Note_on_c, 0, 77, 110
3, 105790, Note_off_c, 0, 77, 64
3, 105792, Note_on_c, 0, 75, 110
3, 105886, Note_off_c, 0, 75, 64
3, 105888, Note_on_c, 0, 74, 110
3, 105936, Note_off_c, 0, 74, 64
3, 105982, Note_off_c, 0, 74, 64
3, 105984, Note_on_c, 0, 74, 110
3, 105984, Note_on_c, 0, 75, 110
3, 106078, Note_off_c, 0, 74, 64
3, 106080, Note_on_c, 0, 71, 110
3, 106174, Note_off_c, 0, 71, 64
3, 106176, Note_on_c, 0, 72, 110
3, 106270, Note_off_c, 0, 72, 64
3, 106272, Note_on_c, 0, 74, 110
3, 106320, Note_off_c, 0, 75, 64
3, 106366, Note_off_c, 0, 74, 64
3, 106368, Note_on_c, 0, 72, 110
3, 106368, Note_on_c, 0, 76, 110
3, 106462, Note_off_c, 0, 72, 64
3, 106464, Note_on_c, 0, 70, 110
3, 106558, Note_off_c, 0, 70, 64
3, 106560, Note_on_c, 0, 68, 110
3, 106654, Note_off_c, 0, 68, 64
3, 106656, Note_on_c, 0, 67, 110
3, 106704, Note_off_c, 0, 76, 64
3, 106750, Note_off_c, 0, 67, 64
3, 106752, Note_on_c, 0, 65, 110
3, 106752, Note_on_c, 0, 77, 110
3, 106912, Note_off_c, 0, 77, 64
3, 106912, Note_off_c, 0, 65, 64
3, 106944, Note_on_c, 0, 79, 110
3, 107104, Note_off_c, 0, 79, 64
3, 107136, Note_on_c, 0, 80, 110
3, 107136, Note_on_c, 0, 80, 110
3, 107296, Note_off_c, 0, 80, 64
3, 107328, Note_on_c, 0, 70, 110
3, 107472, Note_off_c, 0, 80, 64
3, 107520, Note_on_c, 0, 79, 110
3, 107614, Note_off_c, 0, 70, 64
3, 107616, Note_on_c, 0, 71, 110
3, 107710, Note_off_c, 0, 71, 64
3, 107712, Note_on_c, 0, 72, 110
3, 107806, Note_off_c, 0, 72, 64
3, 107808, Note_on_c, 0, 73, 110
3, 107902, Note_off_c, 0, 73, 64
3, 107904, Note_on_c, 0, 72, 110
3, 107998, Note_off_c, 0, 72, 64
3, 108382, Note_off_c, 0, 79, 64
3, 108384, Note_on_c, 0, 76, 110
3, 108478, Note_off_c, 0, 76, 64
3, 108480, Note_on_c, 0, 77, 110
3, 108574, Note_off_c, 0, 77, 64
3, 108576, Note_on_c, 0, 78, 110
3, 108670, Note_off_c, 0, 78, 64
3, 108672, Note_on_c, 0, 77, 110
3, 108766, Note_off_c, 0, 77, 64
3, 108768, Note_on_c, 0, 75, 110
3, 108862, Note_off_c, 0, 75, 64
3, 108864, Note_on_c, 0, 73, 110
3, 108958, Note_off_c, 0, 73, 64
3, 108960, Note_on_c, 0, 72, 110
3, 109054, Note_off_c, 0, 72, 64
3, 109056, Note_on_c, 0, 70, 110
3, 109056, Note_on_c, 0, 73, 110
3, 109392, Note_off_c, 0, 73, 64
3, 109440, Note_on_c, 0, 72, 110
3, 109918, Note_off_c, 0, 70, 64
3, 109920, Note_on_c, 0, 67, 110
3, 110014, Note_off_c, 0, 67, 64
3, 110016, Note_on_c, 0, 68, 110
3, 110110, Note_off_c, 0, 68, 64
3, 110112, Note_on_c, 0, 70, 110
3, 110206, Note_off_c, 0, 70, 64
3, 110208, Note_on_c, 0, 68, 110
3, 110302, Note_off_c, 0, 68, 64
3, 110304, Note_on_c, 0, 67, 110
3, 110398, Note_off_c, 0, 67, 64
3, 110400, Note_on_c, 0, 65, 110
3, 110494, Note_off_c, 0, 65, 64
3, 110496, Note_on_c, 0, 63, 110
3, 110544, Note_off_c, 0, 72, 64
3, 110590, Note_off_c, 0, 63, 64
3, 110592, Note_on_c, 0, 65, 110
3, 110592, Note_on_c, 0, 65, 110
3, 110686, Note_off_c, 0, 65, 64
3, 110688, Note_on_c, 0, 74, 110
3, 110782, Note_off_c, 0, 74, 64
3, 110784, Note_on_c, 0, 75, 110
3, 110878, Note_off_c, 0, 75, 64
3, 110880, Note_on_c, 0, 77, 110
3, 110928, Note_off_c, 0, 65, 64
3, 110974, Note_off_c, 0, 77, 64
3, 110976, Note_on_c, 0, 67, 110
3, 110976, Note_on_c, 0, 75, 110
3, 111070, Note_off_c, 0, 75, 64
3, 111072, Note_on_c, 0, 74, 110
3, 111166, Note_off_c, 0, 74, 64
3, 111168, Note_on_c, 0, 72, 110
3, 111262, Note_off_c, 0, 72, 64
3, 111264, Note_on_c, 0, 70, 110
3, 111358, Note_off_c, 0, 70, 64
3, 111360, Note_on_c, 0, 68, 110
3, 111454, Note_off_c, 0, 67, 64
3, 111456, Note_on_c, 0, 63, 110
3, 111550, Note_off_c, 0, 63, 64
3, 111552, Note_on_c, 0, 65, 110
3, 111646, Note_off_c, 0, 65, 64
3, 111648, Note_on_c, 0, 67, 110
3, 111742, Note_off_c, 0, 67, 64
3, 111744, Note_on_c, 0, 65, 110
3, 111838, Note_off_c, 0, 65, 64
3, 111840, Note_on_c, 0, 63, 110
3, 111934, Note_off_c, 0, 63, 64
3, 111936, Note_on_c, 0, 62, 110
3, 112030, Note_off_c, 0, 62, 64
3, 112032, Note_on_c, 0, 60, 110
3, 112126, Note_off_c, 0, 60, 64
3, 112222, Note_off_c, 0, 68, 64
3, 112224, Note_on_c, 0, 66, 110
3, 112318, Note_off_c, 0, 66, 64
3, 112320, Note_on_c, 0, 67, 110
3, 112414, Note_off_c, 0, 67, 64
3, 112416, Note_on_c, 0, 68, 110
3, 112510, Note_off_c, 0, 68, 64
3, 112512, Note_on_c, 0, 67, 110
3, 112606, Note_off_c, 0, 67, 64
3, 112608, Note_on_c, 0, 65, 110
3, 112702, Note_off_c, 0, 65, 64
3, 112704, Note_on_c, 0, 63, 110
3, 112798, Note_off_c, 0, 63, 64
3, 112800, Note_on_c, 0, 62, 110
3, 112894, Note_off_c, 0, 62, 64
3, 112896, Note_on_c, 0, 60, 110
3, 112990, Note_off_c, 0, 60, 64
3, 112992, Note_on_c, 0, 69, 110
3, 113086, Note_off_c, 0, 69, 64
3, 113088, Note_on_c, 0, 70, 110
3, 113182, Note_off_c, 0, 70, 64
3, 113184, Note_on_c, 0, 72, 110
3, 113278, Note_off_c, 0, 72, 64
3, 113280, Note_on_c, 0, 70, 110
3, 113374, Note_off_c, 0, 70, 64
3, 113376, Note_on_c, 0, 69, 110
3, 113470, Note_off_c, 0, 69, 64
3, 113472, Note_on_c, 0, 67, 110
3, 113566, Note_off_c, 0, 67, 64
3, 113568, Note_on_c, 0, 66, 110
3, 113662, Note_off_c, 0, 66, 64
3, 113664, Note_on_c, 0, 67, 110
3, 113758, Note_off_c, 0, 67, 64
3, 113760, Note_on_c, 0, 79, 110
3, 113854, Note_off_c, 0, 79, 64
3, 113856, Note_on_c, 0, 81, 110
3, 113950, Note_off_c, 0, 81, 64
3, 113952, Note_on_c, 0, 82, 110
3, 114046, Note_off_c, 0, 82, 64
3, 114048, Note_on_c, 0, 81, 110
3, 114142, Note_off_c, 0, 81, 64
3, 114144, Note_on_c, 0, 79, 110
3, 114238, Note_off_c, 0, 79, 64
3, 114240, Note_on_c, 0, 69, 110
3, 114240, Note_on_c, 0, 78, 110
3, 114334, Note_off_c, 0, 78, 64
3, 114336, Note_on_c, 0, 79, 110
3, 114400, Note_off_c, 0, 69, 64
3, 114430, Note_off_c, 0, 79, 64
3, 114432, Note_on_c, 0, 68, 110
3, 114432, Note_on_c, 0, 70, 110
3, 114526, Note_off_c, 0, 68, 64
3, 114528, Note_on_c, 0, 66, 110
3, 114622, Note_off_c, 0, 66, 64
3, 114624, Note_on_c, 0, 67, 110
3, 114624, Note_on_c, 0, 67, 110
3, 114688, Note_off_c, 0, 70, 64
3, 114718, Note_off_c, 0, 67, 64
3, 114720, Note_on_c, 0, 72, 110
3, 114814, Note_off_c, 0, 72, 64
3, 114816, Note_on_c, 0, 69, 110
3, 114910, Note_off_c, 0, 67, 64
3, 114912, Note_on_c, 0, 64, 110
3, 115006, Note_off_c, 0, 64, 64
3, 115008, Note_on_c, 0, 66, 110
3, 115152, Note_off_c, 0, 69, 64
3, 115168, Note_off_c, 0, 66, 64
3, 115200, Note_on_c, 0, 67, 110
3, 115536, Note_off_c, 0, 67, 64
3, 115584, Note_on_c, 0, 74, 110
3, 115920, Note_off_c, 0, 74, 64
3, 115968, Note_on_c, 0, 75, 110
3, 116304, Note_off_c, 0, 75, 64
3, 116352, Note_on_c, 0, 67, 110
3, 116352, Note_on_c, 0, 76, 110
3, 116688, Note_off_c, 0, 76, 64
3, 116688, Note_off_c, 0, 67, 64
3, 116736, Note_on_c, 0, 68, 110
3, 116736, Note_on_c, 0, 77, 110
3, 117072, Note_off_c, 0, 68, 64
3, 117120, Note_on_c, 0, 69, 110
3, 117456, Note_off_c, 0, 69, 64
3, 117504, Note_on_c, 0, 70, 110
3, 117598, Note_off_c, 0, 77, 64
3, 117600, Note_on_c, 0, 75, 110
3, 117694, Note_off_c, 0, 75, 64
3, 117696, Note_on_c, 0, 77, 110
3, 117790, Note_off_c, 0, 77, 64
3, 117792, Note_on_c, 0, 78, 110
3, 117886, Note_off_c, 0, 78, 64
3, 117888, Note_on_c, 0, 77, 110
3, 117982, Note_off_c, 0, 77, 64
3, 117984, Note_on_c, 0, 75, 110
3, 118078, Note_off_c, 0, 75, 64
3, 118080, Note_on_c, 0, 73, 110
3, 118174, Note_off_c, 0, 73, 64
3, 118176, Note_on_c, 0, 72, 110
3, 118270, Note_off_c, 0, 72, 64
3, 118272, Note_on_c, 0, 73, 110
3, 118366, Note_off_c, 0, 70, 64
3, 118368, Note_on_c, 0, 69, 110
3, 118462, Note_off_c, 0, 69, 64
3, 118464, Note_on_c, 0, 70, 110
3, 118558, Note_off_c, 0, 70, 64
3, 118560, Note_on_c, 0, 71, 110
3, 118608, Note_off_c, 0, 73, 64
3, 118654, Note_off_c, 0, 71, 64
3, 118656, Note_on_c, 0, 70, 110
3, 118656, Note_on_c, 0, 74, 110
3, 118750, Note_off_c, 0, 70, 64
3, 118752, Note_on_c, 0, 68, 110
3, 118846, Note_off_c, 0, 68, 64
3, 118848, Note_on_c, 0, 66, 110
3, 118942, Note_off_c, 0, 66, 64
3, 118944, Note_on_c, 0, 65, 110
3, 118992, Note_off_c, 0, 74, 64
3, 119038, Note_off_c, 0, 65, 64
3, 119040, Note_on_c, 0, 66, 110
3, 119040, Note_on_c, 0, 75, 110
3, 119376, Note_off_c, 0, 66, 64
3, 119424, Note_on_c, 0, 67, 110
3, 119760, Note_off_c, 0, 67, 64
3, 119808, Note_on_c, 0, 68, 110
3, 119902, Note_off_c, 0, 75, 64
3, 119904, Note_on_c, 0, 73, 110
3, 119998, Note_off_c, 0, 73, 64
3, 120000, Note_on_c, 0, 75, 110
3, 120094, Note_off_c, 0, 75, 64
3, 120096, Note_on_c, 0, 77, 110
3, 120190, Note_off_c, 0, 77, 64
3, 120192, Note_on_c, 0, 75, 110
3, 120286, Note_off_c, 0, 75, 64
3, 120288, Note_on_c, 0, 73, 110
3, 120382, Note_off_c, 0, 73, 64
3, 120384, Note_on_c, 0, 72, 110
3, 120478, Note_off_c, 0, 72, 64
3, 120480, Note_on_c, 0, 71, 110
3, 120574, Note_off_c, 0, 71, 64
3, 120576, Note_on_c, 0, 72, 110
3, 120670, Note_off_c, 0, 68, 64
3, 120672, Note_on_c, 0, 67, 110
3, 120766, Note_off_c, 0, 67, 64
3, 120768, Note_on_c, 0, 68, 110
3, 120862, Note_off_c, 0, 68, 64
3, 120864, Note_on_c, 0, 70, 110
3, 120958, Note_off_c, 0, 70, 64
3, 120960, Note_on_c, 0, 68, 110
3, 121054, Note_off_c, 0, 68, 64
3, 121056, Note_on_c, 0, 67, 110
3, 121150, Note_off_c, 0, 67, 64
3, 121152, Note_on_c, 0, 65, 110
3, 121246, Note_off_c, 0, 65, 64
3, 121248, Note_on_c, 0, 64, 110
3, 121342, Note_off_c, 0, 64, 64
3, 121344, Note_on_c, 0, 65, 110
3, 121504, Note_off_c, 0, 72, 64
3, 121536, Note_on_c, 0, 77, 110
3, 121536, Note_on_c, 0, 77, 110
3, 121600, Note_off_c, 0, 65, 64
3, 121632, Note_off_c, 0, 77, 64
3, 121632, Note_on_c, 0, 67, 110
3, 121696, Note_off_c, 0, 77, 64
3, 121728, Note_off_c, 0, 67, 64
3, 121728, Note_on_c, 0, 68, 110
3, 121728, Note_on_c, 0, 77, 110
3, 121824, Note_off_c, 0, 68, 64
3, 121824, Note_on_c, 0, 75, 110
3, 121918, Note_off_c, 0, 75, 64
3, 121920, Note_on_c, 0, 74, 110
3, 122014, Note_off_c, 0, 74, 64
3, 122016, Note_on_c, 0, 72, 110
3, 122110, Note_off_c, 0, 72, 64
3, 122112, Note_on_c, 0, 71, 110
3, 122206, Note_off_c, 0, 77, 64
3, 122208, Note_on_c, 0, 77, 110
3, 122302, Note_off_c, 0, 77, 64
3, 122304, Note_on_c, 0, 79, 110
3, 122398, Note_off_c, 0, 79, 64
3, 122400, Note_on_c, 0, 80, 110
3, 122494, Note_off_c, 0, 80, 64
3, 122496, Note_on_c, 0, 79, 110
3, 122590, Note_off_c, 0, 79, 64
3, 122592, Note_on_c, 0, 77, 110
3, 122686, Note_off_c, 0, 77, 64
3, 122688, Note_on_c, 0, 75, 110
3, 122782, Note_off_c, 0, 75, 64
3, 122784, Note_on_c, 0, 74, 110
3, 122832, Note_off_c, 0, 71, 64
3, 122878, Note_off_c, 0, 74, 64
3, 122880, Note_on_c, 0, 72, 110
3, 122880, Note_on_c, 0, 72, 110
3, 122974, Note_off_c, 0, 72, 64
3, 122976, Note_on_c, 0, 76, 110
3, 123070, Note_off_c, 0, 76, 64
3, 123072, Note_on_c, 0, 77, 110
3, 123166, Note_off_c, 0, 77, 64
3, 123168, Note_on_c, 0, 79, 110
3, 123216, Note_off_c, 0, 72, 64
3, 123262, Note_off_c, 0, 79, 64
3, 123264, Note_on_c, 0, 77, 110
3, 123358, Note_off_c, 0, 77, 64
3, 123360, Note_on_c, 0, 75, 110
3, 123454, Note_off_c, 0, 75, 64
3, 123456, Note_on_c, 0, 74, 110
3, 123550, Note_off_c, 0, 74, 64
3, 123552, Note_on_c, 0, 72, 110
3, 123646, Note_off_c, 0, 72, 64
3, 123648, Note_on_c, 0, 74, 110
3, 123742, Note_off_c, 0, 74, 64
3, 123744, Note_on_c, 0, 78, 110
3, 123838, Note_off_c, 0, 78, 64
3, 123840, Note_on_c, 0, 79, 110
3, 123934, Note_off_c, 0, 79, 64
3, 123936, Note_on_c, 0, 80, 110
3, 124030, Note_off_c, 0, 80, 64
3, 124032, Note_on_c, 0, 79, 110
3, 124126, Note_off_c, 0, 79, 64
3, 124128, Note_on_c, 0, 77, 110
3, 124222, Note_off_c, 0, 77, 64
3, 124224, Note_on_c, 0, 75, 110
3, 124318, Note_off_c, 0, 75, 64
3, 124320, Note_on_c, 0, 74, 110
3, 124414, Note_off_c, 0, 74, 64
3, 124416, Note_on_c, 0, 72, 110
3, 124510, Note_off_c, 0, 72, 64
3, 124512, Note_on_c, 0, 70, 110
3, 124606, Note_off_c, 0, 70, 64
3, 124608, Note_on_c, 0, 72, 110
3, 124702, Note_off_c, 0, 72, 64
3, 124704, Note_on_c, 0, 73, 110
3, 124798, Note_off_c, 0, 73, 64
3, 124800, Note_on_c, 0, 72, 110
3, 124894, Note_off_c, 0, 72, 64
3, 124896, Note_on_c, 0, 70, 110
3, 124990, Note_off_c, 0, 70, 64
3, 124992, Note_on_c, 0, 68, 110
3, 125086, Note_off_c, 0, 68, 64
3, 125088, Note_on_c, 0, 67, 110
3, 125182, Note_off_c, 0, 67, 64
3, 125184, Note_on_c, 0, 68, 110
3, 125278, Note_off_c, 0, 68, 64
3, 125280, Note_on_c, 0, 72, 110
3, 125374, Note_off_c, 0, 72, 64
3, 125376, Note_on_c, 0, 77, 110
3, 125470, Note_off_c, 0, 77, 64
3, 125472, Note_on_c, 0, 79, 110
3, 125566, Note_off_c, 0, 79, 64
3, 125568, Note_on_c, 0, 81, 110
3, 125662, Note_off_c, 0, 81, 64
3, 125664, Note_on_c, 0, 75, 110
3, 125758, Note_off_c, 0, 75, 64
3, 125760, Note_on_c, 0, 74, 110
3, 125854, Note_off_c, 0, 74, 64
3, 125856, Note_on_c, 0, 72, 110
3, 125950, Note_off_c, 0, 72, 64
3, 125952, Note_on_c, 0, 71, 110
3, 126430, Note_off_c, 0, 71, 64
3, 126432, Note_on_c, 0, 80, 110
3, 126526, Note_off_c, 0, 80, 64
3, 126528, Note_on_c, 0, 79, 110
3, 126622, Note_off_c, 0, 79, 64
3, 126624, Note_on_c, 0, 77, 110
3, 126718, Note_off_c, 0, 77, 64
3, 126720, Note_on_c, 0, 75, 110
3, 126814, Note_off_c, 0, 75, 64
3, 126816, Note_on_c, 0, 74, 110
3, 126910, Note_off_c, 0, 74, 64
3, 126912, Note_on_c, 0, 72, 110
3, 127006, Note_off_c, 0, 72, 64
3, 127008, Note_on_c, 0, 70, 110
3, 127102, Note_off_c, 0, 70, 64
3, 127104, Note_on_c, 0, 69, 110
3, 127104, Note_on_c, 0, 69, 110
3, 127198, Note_off_c, 0, 69, 64
3, 127200, Note_on_c, 0, 75, 110
3, 127294, Note_off_c, 0, 75, 64
3, 127296, Note_on_c, 0, 74, 110
3, 127390, Note_off_c, 0, 74, 64
3, 127392, Note_on_c, 0, 78, 110
3, 127440, Note_off_c, 0, 69, 64
3, 127486, Note_off_c, 0, 78, 64
3, 127488, Note_on_c, 0, 70, 110
3, 127488, Note_on_c, 0, 79, 110
3, 127824, Note_off_c, 0, 79, 64
3, 127824, Note_off_c, 0, 70, 64
3, 127872, Note_on_c, 0, 71, 110
3, 127872, Note_on_c, 0, 74, 110
3, 128208, Note_off_c, 0, 74, 64
3, 128208, Note_off_c, 0, 71, 64
3, 128256, Note_on_c, 0, 72, 110
3, 128256, Note_on_c, 0, 75, 110
3, 128350, Note_off_c, 0, 72, 64
3, 128352, Note_on_c, 0, 71, 110
3, 128446, Note_off_c, 0, 71, 64
3, 128448, Note_on_c, 0, 72, 110
3, 128542, Note_off_c, 0, 72, 64
3, 128544, Note_on_c, 0, 73, 110
3, 128592, Note_off_c, 0, 75, 64
3, 128638, Note_off_c, 0, 73, 64
3, 128640, Note_on_c, 0, 72, 110
3, 128640, Note_on_c, 0, 76, 110
3, 128734, Note_off_c, 0, 72, 64
3, 128736, Note_on_c, 0, 70, 110
3, 128830, Note_off_c, 0, 70, 64
3, 128832, Note_on_c, 0, 68, 110
3, 128926, Note_off_c, 0, 68, 64
3, 128928, Note_on_c, 0, 67, 110
3, 128976, Note_off_c, 0, 76, 64
3, 129022, Note_off_c, 0, 67, 64
3, 129024, Note_on_c, 0, 68, 110
3, 129024, Note_on_c, 0, 77, 110
3, 129360, Note_off_c, 0, 77, 64
3, 129360, Note_off_c, 0, 68, 64
3, 129408, Note_on_c, 0, 69, 110
3, 129408, Note_on_c, 0, 78, 110
3, 129744, Note_off_c, 0, 78, 64
3, 129744, Note_off_c, 0, 69, 64
3, 129792, Note_on_c, 0, 71, 110
3, 129792, Note_on_c, 0, 79, 110
3, 129886, Note_off_c, 0, 79, 64
3, 129888, Note_on_c, 0, 77, 110
3, 129982, Note_off_c, 0, 77, 64
3, 129984, Note_on_c, 0, 79, 110
3, 130078, Note_off_c, 0, 79, 64
3, 130080, Note_on_c, 0, 80, 110
3, 130174, Note_off_c, 0, 80, 64
3, 130176, Note_on_c, 0, 79, 110
3, 130270, Note_off_c, 0, 79, 64
3, 130272, Note_on_c, 0, 77, 110
3, 130366, Note_off_c, 0, 77, 64
3, 130368, Note_on_c, 0, 75, 110
3, 130462, Note_off_c, 0, 75, 64
3, 130464, Note_on_c, 0, 74, 110
3, 130512, Note_off_c, 0, 71, 64
3, 130558, Note_off_c, 0, 74, 64
3, 130560, Note_on_c, 0, 72, 110
3, 130560, Note_on_c, 0, 72, 110
3, 130654, Note_off_c, 0, 72, 64
3, 130656, Note_on_c, 0, 70, 110
3, 130750, Note_off_c, 0, 70, 64
3, 130752, Note_on_c, 0, 68, 110
3, 130846, Note_off_c, 0, 68, 64
3, 130848, Note_on_c, 0, 67, 110
3, 130896, Note_off_c, 0, 72, 64
3, 130942, Note_off_c, 0, 67, 64
3, 130944, Note_on_c, 0, 65, 110
3, 130944, Note_on_c, 0, 72, 110
3, 131038, Note_off_c, 0, 72, 64
3, 131040, Note_on_c, 0, 72, 110
3, 131134, Note_off_c, 0, 72, 64
3, 131136, Note_on_c, 0, 77, 110
3, 131230, Note_off_c, 0, 77, 64
3, 131232, Note_on_c, 0, 75, 110
3, 131326, Note_off_c, 0, 75, 64
3, 131328, Note_on_c, 0, 74, 110
3, 131422, Note_off_c, 0, 65, 64
3, 131424, Note_on_c, 0, 65, 110
3, 131518, Note_off_c, 0, 65, 64
3, 131520, Note_on_c, 0, 70, 110
3, 131614, Note_off_c, 0, 70, 64
3, 131616, Note_on_c, 0, 68, 110
3, 131710, Note_off_c, 0, 68, 64
3, 131712, Note_on_c, 0, 67, 110
3, 131806, Note_off_c, 0, 74, 64
3, 131808, Note_on_c, 0, 74, 110
3, 131902, Note_off_c, 0, 74, 64
3, 131904, Note_on_c, 0, 79, 110
3, 131998, Note_off_c, 0, 79, 64
3, 132000, Note_on_c, 0, 77, 110
3, 132048, Note_off_c, 0, 67, 64
3, 132094, Note_off_c, 0, 77, 64
3, 132096, Note_on_c, 0, 67, 110
3, 132096, Note_on_c, 0, 75, 110
3, 132190, Note_off_c, 0, 75, 64
3, 132192, Note_on_c, 0, 79, 110
3, 132256, Note_off_c, 0, 67, 64
3, 132286, Note_off_c, 0, 79, 64
3, 132288, Note_on_c, 0, 67, 110
3, 132288, Note_on_c, 0, 71, 110
3, 132382, Note_off_c, 0, 71, 64
3, 132384, Note_on_c, 0, 74, 110
3, 132448, Note_off_c, 0, 67, 64
3, 132478, Note_off_c, 0, 74, 64
3, 132480, Note_on_c, 0, 67, 110
3, 132480, Note_on_c, 0, 72, 110
3, 132574, Note_off_c, 0, 72, 64
3, 132576, Note_on_c, 0, 75, 110
3, 132640, Note_off_c, 0, 67, 64
3, 132670, Note_off_c, 0, 75, 64
3, 132672, Note_on_c, 0, 67, 110
3, 132672, Note_on_c, 0, 74, 110
3, 132766, Note_off_c, 0, 74, 64
3, 132768, Note_on_c, 0, 77, 110
3, 132832, Note_off_c, 0, 67, 64
3, 132862, Note_off_c, 0, 77, 64
3, 132864, Note_on_c, 0, 67, 110
3, 132864, Note_on_c, 0, 75, 110
3, 132910, Note_off_c, 0, 75, 64
3, 132910, Note_off_c, 0, 67, 64
3, 132912, Note_on_c, 0, 66, 110
3, 132912, Note_on_c, 0, 74, 110
3, 132958, Note_off_c, 0, 74, 64
3, 132958, Note_off_c, 0, 66, 64
3, 132960, Note_on_c, 0, 67, 110
3, 132960, Note_on_c, 0, 75, 110
3, 133006, Note_off_c, 0, 75, 64
3, 133006, Note_off_c, 0, 67, 64
3, 133008, Note_on_c, 0, 66, 110
3, 133008, Note_on_c, 0, 74, 110
3, 133054, Note_off_c, 0, 74, 64
3, 133054, Note_off_c, 0, 66, 64
3, 133056, Note_on_c, 0, 67, 110
3, 133056, Note_on_c, 0, 75, 110
3, 133102, Note_off_c, 0, 75, 64
3, 133102, Note_off_c, 0, 67, 64
3, 133104, Note_on_c, 0, 66, 110
3, 133104, Note_on_c, 0, 74, 110
3, 133150, Note_off_c, 0, 74, 64
3, 133150, Note_off_c, 0, 66, 64
3, 133152, Note_on_c, 0, 67, 110
3, 133152, Note_on_c, 0, 75, 110
3, 133198, Note_off_c, 0, 75, 64
3, 133198, Note_off_c, 0, 67, 64
3, 133200, Note_on_c, 0, 66, 110
3, 133200, Note_on_c, 0, 74, 110
3, 133246, Note_off_c, 0, 74, 64
3, 133246, Note_off_c, 0, 66, 64
3, 133248, Note_on_c, 0, 67, 110
3, 133248, Note_on_c, 0, 75, 110
3, 133294, Note_off_c, 0, 75, 64
3, 133294, Note_off_c, 0, 67, 64
3, 133296, Note_on_c, 0, 66, 110
3, 133296, Note_on_c, 0, 74, 110
3, 133342, Note_off_c, 0, 74, 64
3, 133342, Note_off_c, 0, 66, 64
3, 133344, Note_on_c, 0, 67, 110
3, 133344, Note_on_c, 0, 75, 110
3, 133390, Note_off_c, 0, 75, 64
3, 133390, Note_off_c, 0, 67, 64
3, 133392, Note_on_c, 0, 66, 110
3, 133392, Note_on_c, 0, 74, 110
3, 133438, Note_off_c, 0, 74, 64
3, 133438, Note_off_c, 0, 66, 64
3, 133440, Note_on_c, 0, 67, 110
3, 133440, Note_on_c, 0, 75, 110
3, 133486, Note_off_c, 0, 75, 64
3, 133486, Note_off_c, 0, 67, 64
3, 133488, Note_on_c, 0, 66, 110
3, 133488, Note_on_c, 0, 74, 110
3, 133534, Note_off_c, 0, 74, 64
3, 133534, Note_off_c, 0, 66, 64
3, 133536, Note_on_c, 0, 67, 110
3, 133536, Note_on_c, 0, 75, 110
3, 133582, Note_off_c, 0, 75, 64
3, 133582, Note_off_c, 0, 67, 64
3, 133584, Note_on_c, 0, 66, 110
3, 133584, Note_on_c, 0, 74, 110
3, 133630, Note_off_c, 0, 74, 64
3, 133630, Note_off_c, 0, 66, 64
3, 133632, Note_on_c, 0, 67, 110
3, 133632, Note_on_c, 0, 75, 110
3, 133678, Note_off_c, 0, 75, 64
3, 133678, Note_off_c, 0, 67, 64
3, 133680, Note_on_c, 0, 66, 110
3, 133680, Note_on_c, 0, 74, 110
3, 133726, Note_off_c, 0, 74, 64
3, 133726, Note_off_c, 0, 66, 64
3, 133728, Note_on_c, 0, 67, 110
3, 133728, Note_on_c, 0, 75, 110
3, 133774, Note_off_c, 0, 75, 64
3, 133774, Note_off_c, 0, 67, 64
3, 133776, Note_on_c, 0, 66, 110
3, 133776, Note_on_c, 0, 74, 110
3, 133822, Note_off_c, 0, 74, 64
3, 133822, Note_off_c, 0, 66, 64
3, 133824, Note_on_c, 0, 67, 110
3, 133824, Note_on_c, 0, 75, 110
3, 133870, Note_off_c, 0, 75, 64
3, 133870, Note_off_c, 0, 67, 64
3, 133872, Note_on_c, 0, 66, 110
3, 133872, Note_on_c, 0, 74, 110
3, 133918, Note_off_c, 0, 74, 64
3, 133918, Note_off_c, 0, 66, 64
3, 133920, Note_on_c, 0, 67, 110
3, 133920, Note_on_c, 0, 75, 110
3, 133966, Note_off_c, 0, 75, 64
3, 133966, Note_off_c, 0, 67, 64
3, 133968, Note_on_c, 0, 66, 110
3, 133968, Note_on_c, 0, 74, 110
3, 134014, Note_off_c, 0, 74, 64
3, 134014, Note_off_c, 0, 66, 64
3, 134016, Note_on_c, 0, 67, 110
3, 134016, Note_on_c, 0, 75, 110
3, 134062, Note_off_c, 0, 75, 64
3, 134062, Note_off_c, 0, 67, 64
3, 134064, Note_on_c, 0, 66, 110
3, 134064, Note_on_c, 0, 74, 110
3, 134110, Note_off_c, 0, 74, 64
3, 134110, Note_off_c, 0, 66, 64
3, 134112, Note_on_c, 0, 67, 110
3, 134112, Note_on_c, 0, 75, 110
3, 134158, Note_off_c, 0, 75, 64
3, 134158, Note_off_c, 0, 67, 64
3, 134160, Note_on_c, 0, 66, 110
3, 134160, Note_on_c, 0, 74, 110
3, 134206, Note_off_c, 0, 74, 64
3, 134206, Note_off_c, 0, 66, 64
3, 134208, Note_on_c, 0, 67, 110
3, 134208, Note_on_c, 0, 75, 110
3, 134254, Note_off_c, 0, 75, 64
3, 134254, Note_off_c, 0, 67, 64
3, 134256, Note_on_c, 0, 66, 110
3, 134256, Note_on_c, 0, 74, 110
3, 134302, Note_off_c, 0, 74, 64
3, 134302, Note_off_c, 0, 66, 64
3, 134304, Note_on_c, 0, 67, 110
3, 134304, Note_on_c, 0, 75, 110
3, 134350, Note_off_c, 0, 75, 64
3, 134350, Note_off_c, 0, 67, 64
3, 134352, Note_on_c, 0, 66, 110
3, 134352, Note_on_c, 0, 74, 110
3, 134398, Note_off_c, 0, 74, 64
3, 134398, Note_off_c, 0, 66, 64
3, 134400, Note_on_c, 0, 65, 110
3, 134400, Note_on_c, 0, 75, 110
3, 134494, Note_off_c, 0, 75, 64
3, 134496, Note_on_c, 0, 74, 110
3, 134590, Note_off_c, 0, 74, 64
3, 134592, Note_on_c, 0, 77, 110
3, 134686, Note_off_c, 0, 77, 64
3, 134688, Note_on_c, 0, 75, 110
3, 134736, Note_off_c, 0, 65, 64
3, 134782, Note_off_c, 0, 75, 64
3, 134784, Note_on_c, 0, 66, 110
3, 134784, Note_on_c, 0, 74, 110
3, 134878, Note_off_c, 0, 74, 64
3, 134880, Note_on_c, 0, 72, 110
3, 134974, Note_off_c, 0, 72, 64
3, 134976, Note_on_c, 0, 71, 110
3, 135070, Note_off_c, 0, 71, 64
3, 135072, Note_on_c, 0, 72, 110
3, 135120, Note_off_c, 0, 66, 64
3, 135166, Note_off_c, 0, 72, 64
3, 135168, Note_on_c, 0, 67, 110
3, 135168, Note_on_c, 0, 72, 110
3, 135328, Note_off_c, 0, 72, 64
3, 135360, Note_on_c, 0, 71, 110
3, 135504, Note_off_c, 0, 67, 64
3, 135520, Note_off_c, 0, 71, 64
3, 135744, Note_on_c, 0, 67, 108
3, 135904, Note_off_c, 0, 67, 64
3, 135936, Note_on_c, 0, 72, 108
3, 136096, Note_off_c, 0, 72, 64
3, 136128, Note_on_c, 0, 72, 108
3, 136288, Note_off_c, 0, 72, 64
3, 136320, Note_on_c, 0, 72, 108
3, 136480, Note_off_c, 0, 72, 64
3, 136512, Note_on_c, 0, 72, 108
3, 136606, Note_off_c, 0, 72, 64
3, 136608, Note_on_c, 0, 74, 108
3, 136702, Note_off_c, 0, 74, 64
3, 136704, Note_on_c, 0, 75, 108
3, 137182, Note_off_c, 0, 75, 64
3, 137184, Note_on_c, 0, 72, 108
3, 137278, Note_off_c, 0, 72, 64
3, 137280, Note_on_c, 0, 69, 108
3, 137374, Note_off_c, 0, 69, 64
3, 137376, Note_on_c, 0, 72, 108
3, 137470, Note_off_c, 0, 72, 64
3, 137472, Note_on_c, 0, 66, 108
3, 137632, Note_off_c, 0, 66, 64
3, 137664, Note_on_c, 0, 75, 108
3, 137824, Note_off_c, 0, 75, 64
3, 137856, Note_on_c, 0, 74, 108
3, 138016, Note_off_c, 0, 74, 64
3, 138048, Note_on_c, 0, 72, 108
3, 138208, Note_off_c, 0, 72, 64
3, 138240, Note_on_c, 0, 70, 108
3, 138400, Note_off_c, 0, 70, 64
3, 138432, Note_on_c, 0, 69, 108
3, 138526, Note_off_c, 0, 69, 64
3, 138528, Note_on_c, 0, 70, 108
3, 138622, Note_off_c, 0, 70, 64
3, 138624, Note_on_c, 0, 67, 108
3, 138718, Note_off_c, 0, 67, 64
3, 138720, Note_on_c, 0, 79, 108
3, 138814, Note_off_c, 0, 79, 64
3, 138816, Note_on_c, 0, 77, 108
3, 138910, Note_off_c, 0, 77, 64
3, 138912, Note_on_c, 0, 79, 108
3, 139006, Note_off_c, 0, 79, 64
3, 139008, Note_on_c, 0, 68, 108
3, 139168, Note_off_c, 0, 68, 64
3, 139200, Note_on_c, 0, 79, 108
3, 139360, Note_off_c, 0, 79, 64
3, 139392, Note_on_c, 0, 77, 108
3, 139552, Note_off_c, 0, 77, 64
3, 139584, Note_on_c, 0, 74, 108
3, 139744, Note_off_c, 0, 74, 64
3, 139776, Note_on_c, 0, 67, 108
3, 139936, Note_off_c, 0, 67, 64
3, 139968, Note_on_c, 0, 77, 108
3, 140128, Note_off_c, 0, 77, 64
3, 140160, Note_on_c, 0, 75, 108
3, 140320, Note_off_c, 0, 75, 64
3, 140352, Note_on_c, 0, 72, 108
3, 140638, Note_off_c, 0, 72, 64
3, 140640, Note_on_c, 0, 75, 108
3, 140734, Note_off_c, 0, 75, 64
3, 140736, Note_on_c, 0, 74, 108
3, 140830, Note_off_c, 0, 74, 64
3, 140832, Note_on_c, 0, 72, 108
3, 140926, Note_off_c, 0, 72, 64
3, 140928, Note_on_c, 0, 71, 108
3, 141022, Note_off_c, 0, 71, 64
3, 141024, Note_on_c, 0, 69, 108
3, 141118, Note_off_c, 0, 69, 64
3, 141120, Note_on_c, 0, 67, 108
3, 141214, Note_off_c, 0, 67, 64
3, 141216, Note_on_c, 0, 65, 108
3, 141310, Note_off_c, 0, 65, 64
3, 141312, Note_on_c, 0, 63, 108
3, 141472, Note_off_c, 0, 63, 64
3, 141504, Note_on_c, 0, 72, 108
3, 141840, Note_off_c, 0, 72, 64
3, 141888, Note_on_c, 0, 77, 108
3, 142048, Note_off_c, 0, 77, 64
3, 142080, Note_on_c, 0, 67, 108
3, 142240, Note_off_c, 0, 67, 64
3, 142272, Note_on_c, 0, 71, 108
3, 142432, Note_off_c, 0, 71, 64
3, 142464, Note_on_c, 0, 72, 108
3, 142624, Note_off_c, 0, 72, 64
3, 142656, Note_on_c, 0, 71, 108
3, 142816, Note_off_c, 0, 71, 64
3, 142848, Note_on_c, 0, 72, 108
3, 142942, Note_off_c, 0, 72, 64
3, 142944, Note_on_c, 0, 79, 108
3, 143038, Note_off_c, 0, 79, 64
3, 143040, Note_on_c, 0, 77, 108
3, 143134, Note_off_c, 0, 77, 64
3, 143136, Note_on_c, 0, 79, 108
3, 143230, Note_off_c, 0, 79, 64
3, 143232, Note_on_c, 0, 75, 108
3, 143326, Note_off_c, 0, 75, 64
3, 143328, Note_on_c, 0, 77, 108
3, 143422, Note_off_c, 0, 77, 64
3, 143424, Note_on_c, 0, 74, 108
3, 143518, Note_off_c, 0, 74, 64
3, 143520, Note_on_c, 0, 75, 108
3, 143614, Note_off_c, 0, 75, 64
3, 143616, Note_on_c, 0, 72, 108
3, 143616, Note_on_c, 0, 72, 108
3, 143710, Note_off_c, 0, 72, 64
3, 143712, Note_on_c, 0, 70, 108
3, 143806, Note_off_c, 0, 70, 64
3, 143808, Note_on_c, 0, 69, 108
3, 143902, Note_off_c, 0, 69, 64
3, 143904, Note_on_c, 0, 67, 108
3, 143998, Note_off_c, 0, 67, 64
3, 144000, Note_on_c, 0, 66, 108
3, 144094, Note_off_c, 0, 66, 64
3, 144096, Note_on_c, 0, 67, 108
3, 144190, Note_off_c, 0, 67, 64
3, 144192, Note_on_c, 0, 64, 108
3, 144286, Note_off_c, 0, 64, 64
3, 144288, Note_on_c, 0, 66, 108
3, 144382, Note_off_c, 0, 66, 64
3, 144384, Note_on_c, 0, 67, 108
3, 144478, Note_off_c, 0, 72, 64
3, 144480, Note_on_c, 0, 71, 108
3, 144574, Note_off_c, 0, 71, 64
3, 144576, Note_on_c, 0, 72, 108
3, 144670, Note_off_c, 0, 72, 64
3, 144672, Note_on_c, 0, 74, 108
3, 144766, Note_off_c, 0, 74, 64
3, 144768, Note_on_c, 0, 75, 108
3, 144928, Note_off_c, 0, 67, 64
3, 144960, Note_on_c, 0, 72, 108
3, 145120, Note_off_c, 0, 72, 64
3, 145152, Note_on_c, 0, 69, 108
3, 145312, Note_off_c, 0, 75, 64
3, 145344, Note_on_c, 0, 72, 108
3, 145504, Note_off_c, 0, 72, 64
3, 145536, Note_on_c, 0, 81, 108
3, 145630, Note_off_c, 0, 69, 64
3, 145632, Note_on_c, 0, 72, 108
3, 145726, Note_off_c, 0, 72, 64
3, 145728, Note_on_c, 0, 74, 108
3, 145822, Note_off_c, 0, 74, 64
3, 145824, Note_on_c, 0, 75, 108
3, 145872, Note_off_c, 0, 81, 64
3, 145918, Note_off_c, 0, 75, 64
3, 145920, Note_on_c, 0, 74, 108
3, 145920, Note_on_c, 0, 80, 108
3, 146014, Note_off_c, 0, 80, 64
3, 146016, Note_on_c, 0, 79, 108
3, 146110, Note_off_c, 0, 79, 64
3, 146112, Note_on_c, 0, 78, 108
3, 146206, Note_off_c, 0, 78, 64
3, 146208, Note_on_c, 0, 79, 108
3, 146302, Note_off_c, 0, 79, 64
3, 146304, Note_on_c, 0, 82, 108
3, 146304, Note_on_c, 0, 82, 108
3, 146448, Note_off_c, 0, 74, 64
3, 146464, Note_off_c, 0, 82, 64
3, 146496, Note_on_c, 0, 74, 108
3, 146656, Note_off_c, 0, 74, 64
3, 146688, Note_on_c, 0, 72, 108
3, 146782, Note_off_c, 0, 82, 64
3, 146784, Note_on_c, 0, 77, 108
3, 146878, Note_off_c, 0, 77, 64
3, 146880, Note_on_c, 0, 76, 108
3, 146974, Note_off_c, 0, 76, 64
3, 146976, Note_on_c, 0, 74, 108
3, 147024, Note_off_c, 0, 72, 64
3, 147070, Note_off_c, 0, 74, 64
3, 147072, Note_on_c, 0, 76, 108
3, 147166, Note_off_c, 0, 76, 64
3, 147168, Note_on_c, 0, 74, 108
3, 147168, Note_on_c, 0, 79, 108
3, 147262, Note_off_c, 0, 74, 64
3, 147264, Note_on_c, 0, 72, 108
3, 147358, Note_off_c, 0, 72, 64
3, 147360, Note_on_c, 0, 70, 108
3, 147454, Note_off_c, 0, 70, 64
3, 147456, Note_on_c, 0, 68, 108
3, 147550, Note_off_c, 0, 79, 64
3, 147552, Note_on_c, 0, 72, 108
3, 147616, Note_off_c, 0, 68, 64
3, 147646, Note_off_c, 0, 72, 64
3, 147648, Note_on_c, 0, 77, 108
3, 147742, Note_off_c, 0, 77, 64
3, 147744, Note_on_c, 0, 79, 108
3, 147838, Note_off_c, 0, 79, 64
3, 147840, Note_on_c, 0, 80, 108
3, 147840, Note_on_c, 0, 80, 108
3, 148000, Note_off_c, 0, 80, 64
3, 148032, Note_on_c, 0, 72, 108
3, 148192, Note_off_c, 0, 72, 64
3, 148224, Note_on_c, 0, 70, 108
3, 148318, Note_off_c, 0, 80, 64
3, 148320, Note_on_c, 0, 77, 108
3, 148414, Note_off_c, 0, 77, 64
3, 148416, Note_on_c, 0, 75, 108
3, 148510, Note_off_c, 0, 75, 64
3, 148512, Note_on_c, 0, 74, 108
3, 148560, Note_off_c, 0, 70, 64
3, 148606, Note_off_c, 0, 74, 64
3, 148608, Note_on_c, 0, 75, 108
3, 148702, Note_off_c, 0, 75, 64
3, 148704, Note_on_c, 0, 72, 108
3, 148704, Note_on_c, 0, 77, 108
3, 148798, Note_off_c, 0, 72, 64
3, 148800, Note_on_c, 0, 70, 108
3, 148894, Note_off_c, 0, 70, 64
3, 148896, Note_on_c, 0, 68, 108
3, 148990, Note_off_c, 0, 68, 64
3, 149086, Note_off_c, 0, 77, 64
3, 149088, Note_on_c, 0, 70, 108
3, 149182, Note_off_c, 0, 70, 64
3, 149184, Note_on_c, 0, 75, 108
3, 149278, Note_off_c, 0, 75, 64
3, 149280, Note_on_c, 0, 77, 108
3, 149374, Note_off_c, 0, 77, 64
3, 149376, Note_on_c, 0, 79, 108
3, 149854, Note_off_c, 0, 79, 64
3, 149856, Note_on_c, 0, 72, 108
3, 149950, Note_off_c, 0, 72, 64
3, 149952, Note_on_c, 0, 74, 108
3, 150046, Note_off_c, 0, 74, 64
3, 150048, Note_on_c, 0, 75, 108
3, 150142, Note_off_c, 0, 75, 64
3, 150144, Note_on_c, 0, 77, 108
3, 150622, Note_off_c, 0, 77, 64
3, 150624, Note_on_c, 0, 67, 108
3, 150718, Note_off_c, 0, 67, 64
3, 150720, Note_on_c, 0, 69, 108
3, 150814, Note_off_c, 0, 69, 64
3, 150816, Note_on_c, 0, 71, 108
3, 150910, Note_off_c, 0, 71, 64
3, 150912, Note_on_c, 0, 72, 108
3, 151006, Note_off_c, 0, 72, 64
3, 151008, Note_on_c, 0, 74, 108
3, 151102, Note_off_c, 0, 74, 64
3, 151104, Note_on_c, 0, 75, 108
3, 151198, Note_off_c, 0, 75, 64
3, 151200, Note_on_c, 0, 66, 108
3, 151294, Note_off_c, 0, 66, 64
3, 151296, Note_on_c, 0, 67, 108
3, 151296, Note_on_c, 0, 67, 108
3, 151390, Note_off_c, 0, 67, 64
3, 151392, Note_on_c, 0, 74, 108
3, 151456, Note_off_c, 0, 67, 64
3, 151486, Note_off_c, 0, 74, 64
3, 151488, Note_on_c, 0, 67, 108
3, 151488, Note_on_c, 0, 72, 108
3, 151582, Note_off_c, 0, 72, 64
3, 151584, Note_on_c, 0, 71, 108
3, 151648, Note_off_c, 0, 67, 64
3, 151678, Note_off_c, 0, 71, 64
3, 151680, Note_on_c, 0, 67, 108
3, 151680, Note_on_c, 0, 72, 108
3, 151774, Note_off_c, 0, 72, 64
3, 151776, Note_on_c, 0, 71, 108
3, 151840, Note_off_c, 0, 67, 64
3, 151870, Note_off_c, 0, 71, 64
3, 151872, Note_on_c, 0, 67, 108
3, 151872, Note_on_c, 0, 72, 108
3, 151966, Note_off_c, 0, 72, 64
3, 151968, Note_on_c, 0, 75, 108
3, 152032, Note_off_c, 0, 67, 64
3, 152064, Note_on_c, 0, 68, 108
3, 152158, Note_off_c, 0, 75, 64
3, 152160, Note_on_c, 0, 74, 108
3, 152254, Note_off_c, 0, 74, 64
3, 152256, Note_on_c, 0, 75, 108
3, 152350, Note_off_c, 0, 75, 64
3, 152352, Note_on_c, 0, 72, 108
3, 152446, Note_off_c, 0, 72, 64
3, 152448, Note_on_c, 0, 74, 108
3, 152542, Note_off_c, 0, 68, 64
3, 152544, Note_on_c, 0, 65, 108
3, 152638, Note_off_c, 0, 65, 64
3, 152926, Note_off_c, 0, 74, 64
3, 152928, Note_on_c, 0, 77, 108
3, 153088, Note_off_c, 0, 77, 64
3, 153120, Note_on_c, 0, 77, 108
3, 153280, Note_off_c, 0, 77, 64
3, 153312, Note_on_c, 0, 75, 108
3, 153472, Note_off_c, 0, 75, 64
3, 153504, Note_on_c, 0, 74, 108
3, 153598, Note_off_c, 0, 74, 64
3, 153600, Note_on_c, 0, 72, 108
3, 153760, Note_off_c, 0, 72, 64
3, 153792, Note_on_c, 0, 71, 108
3, 153792, Note_on_c, 0, 80, 108
3, 153952, Note_off_c, 0, 80, 64
3, 153952, Note_off_c, 0, 71, 64
3, 153984, Note_on_c, 0, 72, 108
3, 153984, Note_on_c, 0, 79, 108
3, 154144, Note_off_c, 0, 79, 64
3, 154144, Note_off_c, 0, 72, 64
3, 154176, Note_on_c, 0, 72, 108
3, 154176, Note_on_c, 0, 77, 108
3, 154222, Note_off_c, 0, 77, 64
3, 154224, Note_on_c, 0, 75, 108
3, 154270, Note_off_c, 0, 75, 64
3, 154272, Note_on_c, 0, 74, 108
3, 154336, Note_off_c, 0, 72, 64
3, 154366, Note_off_c, 0, 74, 64
3, 154368, Note_on_c, 0, 72, 108
3, 154368, Note_on_c, 0, 72, 108
3, 154528, Note_off_c, 0, 72, 64
3, 154560, Note_on_c, 0, 75, 108
3, 154704, Note_off_c, 0, 72, 64
3, 154720, Note_off_c, 0, 75, 64
3, 154752, Note_on_c, 0, 71, 108
3, 154752, Note_on_c, 0, 74, 108
3, 154846, Note_off_c, 0, 74, 64
3, 154846, Note_off_c, 0, 71, 64
3, 154848, Note_on_c, 0, 69, 108
3, 154848, Note_on_c, 0, 72, 108
3, 154942, Note_off_c, 0, 72, 64
3, 154942, Note_off_c, 0, 69, 64
3, 154944, Note_on_c, 0, 67, 108
3, 154944, Note_on_c, 0, 71, 108
3, 154944, Note_on_c, 0, 74, 108
3, 155104, Note_off_c, 0, 74, 64
3, 155104, Note_off_c, 0, 71, 64
3, 155104, Note_off_c, 0, 67, 64
3, 155136, Note_on_c, 0, 67, 108
3, 155136, Note_on_c, 0, 71, 108
3, 155136, Note_on_c, 0, 74, 108
3, 155520, Note_off_c, 0, 74, 64
3, 155520, Note_off_c, 0, 71, 64
3, 155520, Note_off_c, 0, 67, 64
3, 155520, Note_on_c, 0, 67, 108
3, 155520, Note_on_c, 0, 72, 108
3, 155712, Note_off_c, 0, 72, 64
3, 155712, Note_off_c, 0, 81, 64
3, 155712, Note_off_c, 0, 79, 64
3, 155712, Note_off_c, 0, 69, 64
3, 155712, Note_off_c, 0, 67, 64
3, 155712, End_track
4, 0, Start_track
4, 0, Title_t, "Left Hand"
4, 0, Channel_prefix, 1
4, 0, Control_c, 1, 7, 127
4, 0, Control_c, 1, 10, 64
4, 0, Program_c, 1, 19
4, 960, Note_on_c, 1, 60, 110
4, 1120, Note_off_c, 1, 60, 64
4, 1152, Note_on_c, 1, 68, 110
4, 1408, Note_off_c, 1, 68, 64
4, 1440, Note_on_c, 1, 67, 110
4, 1534, Note_off_c, 1, 67, 64
4, 1536, Note_on_c, 1, 68, 110
4, 1696, Note_off_c, 1, 68, 64
4, 1728, Note_on_c, 1, 67, 110
4, 1888, Note_off_c, 1, 67, 64
4, 1920, Note_on_c, 1, 72, 110
4, 2398, Note_off_c, 1, 72, 64
4, 2400, Note_on_c, 1, 70, 110
4, 2446, Note_off_c, 1, 70, 64
4, 2448, Note_on_c, 1, 68, 110
4, 2494, Note_off_c, 1, 68, 64
4, 2496, Note_on_c, 1, 70, 110
4, 2590, Note_off_c, 1, 70, 64
4, 2592, Note_on_c, 1, 75, 110
4, 2686, Note_off_c, 1, 75, 64
4, 2688, Note_on_c, 1, 74, 110
4, 2782, Note_off_c, 1, 74, 64
4, 2784, Note_on_c, 1, 75, 110
4, 2878, Note_off_c, 1, 75, 64
4, 2880, Note_on_c, 1, 69, 110
4, 3040, Note_off_c, 1, 69, 64
4, 3264, Note_on_c, 1, 55, 110
4, 3424, Note_off_c, 1, 55, 64
4, 3456, Note_on_c, 1, 63, 110
4, 3712, Note_off_c, 1, 63, 64
4, 3744, Note_on_c, 1, 62, 110
4, 3838, Note_off_c, 1, 62, 64
4, 3840, Note_on_c, 1, 63, 110
4, 4000, Note_off_c, 1, 63, 64
4, 4032, Note_on_c, 1, 62, 110
4, 4192, Note_off_c, 1, 62, 64
4, 4224, Note_on_c, 1, 67, 110
4, 4702, Note_off_c, 1, 67, 64
4, 4704, Note_on_c, 1, 65, 110
4, 4750, Note_off_c, 1, 65, 64
4, 4752, Note_on_c, 1, 64, 110
4, 4798, Note_off_c, 1, 64, 64
4, 4800, Note_on_c, 1, 65, 110
4, 4894, Note_off_c, 1, 65, 64
4, 4896, Note_on_c, 1, 70, 110
4, 4990, Note_off_c, 1, 70, 64
4, 4992, Note_on_c, 1, 68, 110
4, 5086, Note_off_c, 1, 68, 64
4, 5088, Note_on_c, 1, 70, 110
4, 5182, Note_off_c, 1, 70, 64
4, 5184, Note_on_c, 1, 64, 110
4, 5344, Note_off_c, 1, 64, 64
4, 5376, Note_on_c, 1, 70, 110
4, 5854, Note_off_c, 1, 70, 64
4, 5856, Note_on_c, 1, 68, 110
4, 5902, Note_off_c, 1, 68, 64
4, 5904, Note_on_c, 1, 67, 110
4, 5950, Note_off_c, 1, 67, 64
4, 5952, Note_on_c, 1, 68, 110
4, 6046, Note_off_c, 1, 68, 64
4, 6048, Note_on_c, 1, 63, 110
4, 6142, Note_off_c, 1, 63, 64
4, 6144, Note_on_c, 1, 62, 110
4, 6238, Note_off_c, 1, 62, 64
4, 6240, Note_on_c, 1, 68, 110
4, 6430, Note_off_c, 1, 68, 64
4, 6432, Note_on_c, 1, 67, 110
4, 6478, Note_off_c, 1, 67, 64
4, 6480, Note_on_c, 1, 65, 110
4, 6526, Note_off_c, 1, 65, 64
4, 6528, Note_on_c, 1, 67, 110
4, 6622, Note_off_c, 1, 67, 64
4, 6624, Note_on_c, 1, 62, 110
4, 6718, Note_off_c, 1, 62, 64
4, 6720, Note_on_c, 1, 60, 110
4, 6814, Note_off_c, 1, 60, 64
4, 6816, Note_on_c, 1, 67, 110
4, 7006, Note_off_c, 1, 67, 64
4, 7008, Note_on_c, 1, 65, 110
4, 7054, Note_off_c, 1, 65, 64
4, 7056, Note_on_c, 1, 63, 110
4, 7102, Note_off_c, 1, 63, 64
4, 7104, Note_on_c, 1, 65, 110
4, 7198, Note_off_c, 1, 65, 64
4, 7200, Note_on_c, 1, 60, 110
4, 7294, Note_off_c, 1, 60, 64
4, 7296, Note_on_c, 1, 59, 110
4, 7390, Note_off_c, 1, 59, 64
4, 7392, Note_on_c, 1, 65, 110
4, 7486, Note_off_c, 1, 65, 64
4, 7488, Note_on_c, 1, 63, 110
4, 7582, Note_off_c, 1, 63, 64
4, 7584, Note_on_c, 1, 62, 110
4, 7678, Note_off_c, 1, 62, 64
4, 7680, Note_on_c, 1, 63, 110
4, 7774, Note_off_c, 1, 63, 64
4, 7776, Note_on_c, 1, 65, 110
4, 7870, Note_off_c, 1, 65, 64
4, 7872, Note_on_c, 1, 67, 110
4, 8064, Note_off_c, 1, 67, 64
4, 8064, Note_on_c, 1, 67, 110
4, 8158, Note_off_c, 1, 67, 64
4, 8160, Note_on_c, 1, 60, 110
4, 8254, Note_off_c, 1, 60, 64
4, 8256, Note_on_c, 1, 65, 110
4, 8512, Note_off_c, 1, 65, 64
4, 8544, Note_on_c, 1, 60, 110
4, 8638, Note_off_c, 1, 60, 64
4, 8640, Note_on_c, 1, 62, 110
4, 8640, Note_on_c, 1, 67, 110
4, 8800, Note_off_c, 1, 62, 64
4, 8832, Note_on_c, 1, 60, 110
4, 8926, Note_off_c, 1, 67, 64
4, 8926, Note_off_c, 1, 60, 64
4, 8928, Note_on_c, 1, 63, 110
4, 9022, Note_off_c, 1, 63, 64
4, 9024, Note_on_c, 1, 68, 110
4, 9118, Note_off_c, 1, 68, 64
4, 9120, Note_on_c, 1, 67, 110
4, 9214, Note_off_c, 1, 67, 64
4, 9216, Note_on_c, 1, 65, 110
4, 9310, Note_off_c, 1, 65, 64
4, 9312, Note_on_c, 1, 63, 110
4, 9406, Note_off_c, 1, 63, 64
4, 9408, Note_on_c, 1, 62, 110
4, 9744, Note_off_c, 1, 62, 64
4, 9792, Note_on_c, 1, 63, 110
4, 10030, Note_off_c, 1, 63, 64
4, 10032, Note_on_c, 1, 63, 110
4, 10078, Note_off_c, 1, 63, 64
4, 10080, Note_on_c, 1, 62, 110
4, 10126, Note_off_c, 1, 62, 64
4, 10128, Note_on_c, 1, 60, 110
4, 10174, Note_off_c, 1, 60, 64
4, 10176, Note_on_c, 1, 59, 110
4, 10222, Note_off_c, 1, 59, 64
4, 10224, Note_on_c, 1, 60, 110
4, 10270, Note_off_c, 1, 60, 64
4, 10272, Note_on_c, 1, 59, 110
4, 10318, Note_off_c, 1, 59, 64
4, 10320, Note_on_c, 1, 60, 110
4, 10366, Note_off_c, 1, 60, 64
4, 10368, Note_on_c, 1, 59, 110
4, 10368, Note_on_c, 1, 67, 110
4, 10528, Note_off_c, 1, 59, 64
4, 10560, Note_on_c, 1, 60, 110
4, 10704, Note_off_c, 1, 67, 64
4, 10848, Note_on_c, 1, 68, 110
4, 10942, Note_off_c, 1, 68, 64
4, 10944, Note_on_c, 1, 67, 110
4, 11038, Note_off_c, 1, 67, 64
4, 11040, Note_on_c, 1, 66, 110
4, 11472, Note_off_c, 1, 60, 64
4, 11472, Note_off_c, 1, 66, 64
4, 11520, Note_on_c, 1, 62, 110
4, 12624, Note_off_c, 1, 62, 64
4, 13920, Note_on_c, 1, 60, 110
4, 14014, Note_off_c, 1, 60, 64
4, 14016, Note_on_c, 1, 72, 110
4, 14112, Note_off_c, 1, 72, 64
4, 14112, Note_on_c, 1, 70, 110
4, 14206, Note_off_c, 1, 70, 64
4, 14208, Note_on_c, 1, 70, 110
4, 14304, Note_off_c, 1, 70, 64
4, 14304, Note_on_c, 1, 68, 110
4, 14398, Note_off_c, 1, 68, 64
4, 14400, Note_on_c, 1, 70, 110
4, 14494, Note_off_c, 1, 70, 64
4, 14496, Note_on_c, 1, 58, 110
4, 14590, Note_off_c, 1, 58, 64
4, 14592, Note_on_c, 1, 70, 110
4, 14688, Note_off_c, 1, 70, 64
4, 14688, Note_on_c, 1, 68, 110
4, 14782, Note_off_c, 1, 68, 64
4, 14784, Note_on_c, 1, 68, 110
4, 14880, Note_off_c, 1, 68, 64
4, 14880, Note_on_c, 1, 67, 110
4, 14974, Note_off_c, 1, 67, 64
4, 14976, Note_on_c, 1, 68, 110
4, 15136, Note_off_c, 1, 68, 64
4, 15168, Note_on_c, 1, 62, 110
4, 15328, Note_off_c, 1, 62, 64
4, 15360, Note_on_c, 1, 67, 110
4, 15646, Note_off_c, 1, 67, 64
4, 15648, Note_on_c, 1, 72, 110
4, 15742, Note_off_c, 1, 72, 64
4, 15744, Note_on_c, 1, 72, 110
4, 15840, Note_off_c, 1, 72, 64
4, 15840, Note_on_c, 1, 70, 110
4, 15934, Note_off_c, 1, 70, 64
4, 15936, Note_on_c, 1, 70, 110
4, 16032, Note_off_c, 1, 70, 64
4, 16032, Note_on_c, 1, 68, 110
4, 16126, Note_off_c, 1, 68, 64
4, 16224, Note_on_c, 1, 55, 110
4, 16318, Note_off_c, 1, 55, 64
4, 16320, Note_on_c, 1, 67, 110
4, 16416, Note_off_c, 1, 67, 64
4, 16416, Note_on_c, 1, 65, 110
4, 16510, Note_off_c, 1, 65, 64
4, 16512, Note_on_c, 1, 65, 110
4, 16608, Note_off_c, 1, 65, 64
4, 16608, Note_on_c, 1, 63, 110
4, 16702, Note_off_c, 1, 63, 64
4, 16704, Note_on_c, 1, 65, 110
4, 16798, Note_off_c, 1, 65, 64
4, 16800, Note_on_c, 1, 53, 110
4, 16894, Note_off_c, 1, 53, 64
4, 16896, Note_on_c, 1, 65, 110
4, 16992, Note_off_c, 1, 65, 64
4, 16992, Note_on_c, 1, 63, 110
4, 17086, Note_off_c, 1, 63, 64
4, 17088, Note_on_c, 1, 63, 110
4, 17184, Note_off_c, 1, 63, 64
4, 17184, Note_on_c, 1, 62, 110
4, 17278, Note_off_c, 1, 62, 64
4, 17280, Note_on_c, 1, 63, 110
4, 17710, Note_off_c, 1, 63, 64
4, 17712, Note_on_c, 1, 63, 110
4, 17758, Note_off_c, 1, 63, 64
4, 17760, Note_on_c, 1, 62, 110
4, 17806, Note_off_c, 1, 62, 64
4, 17808, Note_on_c, 1, 60, 110
4, 17854, Note_off_c, 1, 60, 64
4, 17856, Note_on_c, 1, 65, 110
4, 18016, Note_off_c, 1, 65, 64
4, 18048, Note_on_c, 1, 59, 110
4, 18384, Note_off_c, 1, 59, 64
4, 18432, Note_on_c, 1, 60, 110
4, 18526, Note_off_c, 1, 60, 64
4, 18528, Note_on_c, 1, 55, 110
4, 18622, Note_off_c, 1, 55, 64
4, 18624, Note_on_c, 1, 60, 110
4, 18720, Note_off_c, 1, 60, 64
4, 18720, Note_on_c, 1, 58, 110
4, 18814, Note_off_c, 1, 58, 64
4, 18816, Note_on_c, 1, 58, 110
4, 18912, Note_off_c, 1, 58, 64
4, 18912, Note_on_c, 1, 57, 110
4, 19006, Note_off_c, 1, 57, 64
4, 19008, Note_on_c, 1, 57, 110
4, 19168, Note_off_c, 1, 57, 64
4, 19248, Note_on_c, 1, 55, 110
4, 19294, Note_off_c, 1, 55, 64
4, 19296, Note_on_c, 1, 54, 110
4, 19342, Note_off_c, 1, 54, 64
4, 19344, Note_on_c, 1, 55, 110
4, 19390, Note_off_c, 1, 55, 64
4, 19392, Note_on_c, 1, 57, 110
4, 19438, Note_off_c, 1, 57, 64
4, 19440, Note_on_c, 1, 58, 110
4, 19486, Note_off_c, 1, 58, 64
4, 19488, Note_on_c, 1, 60, 110
4, 19534, Note_off_c, 1, 60, 64
4, 19536, Note_on_c, 1, 62, 110
4, 19582, Note_off_c, 1, 62, 64
4, 19584, Note_on_c, 1, 63, 110
4, 20206, Note_off_c, 1, 63, 64
4, 20208, Note_on_c, 1, 62, 110
4, 20254, Note_off_c, 1, 62, 64
4, 20256, Note_on_c, 1, 60, 110
4, 20302, Note_off_c, 1, 60, 64
4, 20304, Note_on_c, 1, 58, 110
4, 20350, Note_off_c, 1, 58, 64
4, 20352, Note_on_c, 1, 60, 110
4, 20398, Note_off_c, 1, 60, 64
4, 20400, Note_on_c, 1, 58, 110
4, 20446, Note_off_c, 1, 58, 64
4, 20448, Note_on_c, 1, 57, 110
4, 20494, Note_off_c, 1, 57, 64
4, 20496, Note_on_c, 1, 55, 110
4, 20542, Note_off_c, 1, 55, 64
4, 20544, Note_on_c, 1, 57, 110
4, 20928, Note_on_c, 1, 55, 110
4, 21022, Note_off_c, 1, 55, 64
4, 21024, Note_on_c, 1, 57, 110
4, 21118, Note_off_c, 1, 57, 64
4, 21120, Note_on_c, 1, 58, 110
4, 21214, Note_off_c, 1, 58, 64
4, 21216, Note_on_c, 1, 62, 110
4, 21310, Note_off_c, 1, 62, 64
4, 21312, Note_on_c, 1, 63, 110
4, 21472, Note_off_c, 1, 63, 64
4, 21504, Note_on_c, 1, 54, 110
4, 21664, Note_off_c, 1, 54, 64
4, 21696, Note_on_c, 1, 62, 110
4, 21982, Note_off_c, 1, 62, 64
4, 21984, Note_on_c, 1, 60, 110
4, 22078, Note_off_c, 1, 60, 64
4, 22080, Note_on_c, 1, 60, 110
4, 22174, Note_off_c, 1, 60, 64
4, 22176, Note_on_c, 1, 58, 110
4, 22270, Note_off_c, 1, 58, 64
4, 22272, Note_on_c, 1, 58, 110
4, 22366, Note_off_c, 1, 58, 64
4, 22368, Note_on_c, 1, 57, 110
4, 22462, Note_off_c, 1, 57, 64
4, 22464, Note_on_c, 1, 57, 110
4, 22510, Note_off_c, 1, 57, 64
4, 22512, Note_on_c, 1, 60, 110
4, 22534, Note_off_c, 1, 60, 64
4, 22536, Note_on_c, 1, 58, 110
4, 22558, Note_off_c, 1, 58, 64
4, 22560, Note_on_c, 1, 57, 110
4, 22606, Note_off_c, 1, 57, 64
4, 22608, Note_on_c, 1, 55, 110
4, 22654, Note_off_c, 1, 55, 64
4, 22656, Note_on_c, 1, 62, 110
4, 22752, Note_on_c, 1, 58, 110
4, 22774, Note_off_c, 1, 58, 64
4, 22776, Note_on_c, 1, 57, 110
4, 22798, Note_off_c, 1, 57, 64
4, 22800, Note_on_c, 1, 58, 110
4, 22822, Note_off_c, 1, 58, 64
4, 22824, Note_on_c, 1, 57, 110
4, 22846, Note_off_c, 1, 57, 64
4, 22848, Note_on_c, 1, 58, 110
4, 22870, Note_off_c, 1, 58, 64
4, 22872, Note_on_c, 1, 57, 110
4, 22894, Note_off_c, 1, 57, 64
4, 22896, Note_on_c, 1, 58, 110
4, 22918, Note_off_c, 1, 58, 64
4, 22920, Note_on_c, 1, 57, 110
4, 22942, Note_off_c, 1, 57, 64
4, 22944, Note_on_c, 1, 55, 110
4, 23038, Note_off_c, 1, 55, 64
4, 23040, Note_on_c, 1, 55, 110
4, 23376, Note_off_c, 1, 62, 64
4, 23376, Note_off_c, 1, 55, 64
4, 23424, Note_on_c, 1, 50, 110
4, 23584, Note_off_c, 1, 50, 64
4, 23616, Note_on_c, 1, 58, 110
4, 23872, Note_off_c, 1, 58, 64
4, 23904, Note_on_c, 1, 57, 110
4, 23998, Note_off_c, 1, 57, 64
4, 24000, Note_on_c, 1, 58, 110
4, 24160, Note_off_c, 1, 58, 64
4, 24192, Note_on_c, 1, 55, 110
4, 24352, Note_off_c, 1, 55, 64
4, 24384, Note_on_c, 1, 60, 110
4, 24862, Note_off_c, 1, 60, 64
4, 24864, Note_on_c, 1, 58, 110
4, 24910, Note_off_c, 1, 58, 64
4, 24912, Note_on_c, 1, 56, 110
4, 24958, Note_off_c, 1, 56, 64
4, 24960, Note_on_c, 1, 58, 110
4, 25054, Note_off_c, 1, 58, 64
4, 25056, Note_on_c, 1, 63, 110
4, 25150, Note_off_c, 1, 63, 64
4, 25152, Note_on_c, 1, 62, 110
4, 25246, Note_off_c, 1, 62, 64
4, 25248, Note_on_c, 1, 63, 110
4, 25342, Note_off_c, 1, 63, 64
4, 25344, Note_on_c, 1, 57, 110
4, 25504, Note_off_c, 1, 57, 64
4, 25536, Note_on_c, 1, 62, 110
4, 26014, Note_off_c, 1, 62, 64
4, 26016, Note_on_c, 1, 60, 110
4, 26062, Note_off_c, 1, 60, 64
4, 26064, Note_on_c, 1, 58, 110
4, 26110, Note_off_c, 1, 58, 64
4, 26112, Note_on_c, 1, 60, 110
4, 26206, Note_off_c, 1, 60, 64
4, 26208, Note_on_c, 1, 55, 110
4, 26302, Note_off_c, 1, 55, 64
4, 26304, Note_on_c, 1, 54, 110
4, 26304, Note_on_c, 1, 62, 110
4, 26398, Note_off_c, 1, 54, 64
4, 26400, Note_on_c, 1, 50, 110
4, 26464, Note_off_c, 1, 62, 64
4, 26494, Note_off_c, 1, 50, 64
4, 26496, Note_on_c, 1, 55, 110
4, 26590, Note_off_c, 1, 55, 64
4, 26592, Note_on_c, 1, 58, 110
4, 26686, Note_off_c, 1, 58, 64
4, 26688, Note_on_c, 1, 63, 110
4, 27166, Note_off_c, 1, 63, 64
4, 27168, Note_on_c, 1, 62, 110
4, 27214, Note_off_c, 1, 62, 64
4, 27216, Note_on_c, 1, 60, 110
4, 27262, Note_off_c, 1, 60, 64
4, 27264, Note_on_c, 1, 58, 110
4, 27358, Note_off_c, 1, 58, 64
4, 27360, Note_on_c, 1, 57, 110
4, 27454, Note_off_c, 1, 57, 64
4, 27456, Note_on_c, 1, 59, 110
4, 27550, Note_off_c, 1, 59, 64
4, 27552, Note_on_c, 1, 62, 110
4, 27646, Note_off_c, 1, 62, 64
4, 27648, Note_on_c, 1, 65, 110
4, 27808, Note_off_c, 1, 65, 64
4, 27840, Note_on_c, 1, 63, 110
4, 27934, Note_off_c, 1, 63, 64
4, 27936, Note_on_c, 1, 62, 110
4, 28030, Note_off_c, 1, 62, 64
4, 28032, Note_on_c, 1, 60, 110
4, 28192, Note_off_c, 1, 60, 64
4, 28224, Note_on_c, 1, 67, 110
4, 29056, Note_off_c, 1, 67, 64
4, 29088, Note_on_c, 1, 67, 110
4, 29088, Note_on_c, 1, 70, 110
4, 29182, Note_off_c, 1, 70, 64
4, 29182, Note_off_c, 1, 67, 64
4, 29184, Note_on_c, 1, 66, 110
4, 29184, Note_on_c, 1, 69, 110
4, 29278, Note_off_c, 1, 69, 64
4, 29278, Note_off_c, 1, 66, 64
4, 29280, Note_on_c, 1, 67, 110
4, 29374, Note_off_c, 1, 67, 64
4, 29376, Note_on_c, 1, 66, 110
4, 29470, Note_off_c, 1, 66, 64
4, 29472, Note_on_c, 1, 67, 110
4, 29662, Note_off_c, 1, 67, 64
4, 29664, Note_on_c, 1, 65, 110
4, 29664, Note_on_c, 1, 69, 110
4, 29758, Note_off_c, 1, 69, 64
4, 29758, Note_off_c, 1, 65, 64
4, 29760, Note_on_c, 1, 63, 110
4, 29760, Note_on_c, 1, 67, 110
4, 29854, Note_off_c, 1, 67, 64
4, 29854, Note_off_c, 1, 63, 64
4, 29856, Note_on_c, 1, 62, 110
4, 29950, Note_off_c, 1, 62, 64
4, 29952, Note_on_c, 1, 63, 110
4, 30336, Note_on_c, 1, 67, 110
4, 30430, Note_off_c, 1, 67, 64
4, 30432, Note_on_c, 1, 66, 110
4, 30480, Note_off_c, 1, 63, 64
4, 30526, Note_off_c, 1, 66, 64
4, 30528, Note_on_c, 1, 62, 110
4, 30528, Note_on_c, 1, 72, 110
4, 30622, Note_off_c, 1, 72, 64
4, 30624, Note_on_c, 1, 70, 110
4, 30718, Note_off_c, 1, 70, 64
4, 30720, Note_on_c, 1, 69, 110
4, 30784, Note_off_c, 1, 62, 64
4, 30814, Note_off_c, 1, 69, 64
4, 30816, Note_on_c, 1, 57, 110
4, 30910, Note_off_c, 1, 57, 64
4, 30912, Note_on_c, 1, 58, 110
4, 31360, Note_off_c, 1, 58, 64
4, 31392, Note_on_c, 1, 60, 110
4, 31438, Note_off_c, 1, 60, 64
4, 31440, Note_on_c, 1, 58, 110
4, 31486, Note_off_c, 1, 58, 64
4, 31488, Note_on_c, 1, 57, 110
4, 31534, Note_off_c, 1, 57, 64
4, 31536, Note_on_c, 1, 58, 110
4, 31582, Note_off_c, 1, 58, 64
4, 31584, Note_on_c, 1, 60, 110
4, 31678, Note_off_c, 1, 60, 64
4, 31680, Note_on_c, 1, 60, 110
4, 31840, Note_off_c, 1, 60, 64
4, 31872, Note_on_c, 1, 58, 110
4, 31968, Note_on_c, 1, 62, 110
4, 32062, Note_off_c, 1, 62, 64
4, 32064, Note_on_c, 1, 67, 110
4, 32208, Note_off_c, 1, 58, 64
4, 32224, Note_off_c, 1, 67, 64
4, 32256, Note_on_c, 1, 60, 110
4, 32256, Note_on_c, 1, 69, 110
4, 32416, Note_off_c, 1, 69, 64
4, 32494, Note_off_c, 1, 60, 64
4, 32496, Note_on_c, 1, 63, 110
4, 32542, Note_off_c, 1, 63, 64
4, 32544, Note_on_c, 1, 62, 110
4, 32590, Note_off_c, 1, 62, 64
4, 32592, Note_on_c, 1, 60, 110
4, 32638, Note_off_c, 1, 60, 64
4, 32640, Note_on_c, 1, 62, 110
4, 32686, Note_off_c, 1, 62, 64
4, 32688, Note_on_c, 1, 60, 110
4, 32734, Note_off_c, 1, 60, 64
4, 32736, Note_on_c, 1, 58, 110
4, 32782, Note_off_c, 1, 58, 64
4, 32784, Note_on_c, 1, 57, 110
4, 32830, Note_off_c, 1, 57, 64
4, 32832, Note_on_c, 1, 55, 110
4, 33168, Note_off_c, 1, 55, 64
4, 33216, Note_on_c, 1, 60, 110
4, 33502, Note_off_c, 1, 60, 64
4, 33504, Note_on_c, 1, 58, 110
4, 33550, Note_off_c, 1, 58, 64
4, 33552, Note_on_c, 1, 57, 110
4, 33598, Note_off_c, 1, 57, 64
4, 33600, Note_on_c, 1, 58, 110
4, 33600, Note_on_c, 1, 67, 110
4, 33792, Note_on_c, 1, 62, 110
4, 34144, Note_off_c, 1, 62, 64
4, 34144, Note_off_c, 1, 67, 64
4, 34176, Note_on_c, 1, 64, 110
4, 34240, Note_off_c, 1, 58, 64
4, 34272, Note_on_c, 1, 55, 110
4, 34366, Note_off_c, 1, 55, 64
4, 34368, Note_on_c, 1, 58, 110
4, 34462, Note_off_c, 1, 58, 64
4, 34464, Note_on_c, 1, 57, 110
4, 34512, Note_off_c, 1, 64, 64
4, 34558, Note_off_c, 1, 57, 64
4, 34560, Note_on_c, 1, 54, 110
4, 34560, Note_on_c, 1, 57, 110
4, 34654, Note_off_c, 1, 54, 64
4, 34656, Note_on_c, 1, 50, 110
4, 34720, Note_off_c, 1, 57, 64
4, 34750, Note_off_c, 1, 50, 64
4, 34752, Note_on_c, 1, 62, 110
4, 34848, Note_off_c, 1, 62, 64
4, 34848, Note_on_c, 1, 60, 110
4, 34942, Note_off_c, 1, 60, 64
4, 34944, Note_on_c, 1, 60, 110
4, 35040, Note_off_c, 1, 60, 64
4, 35040, Note_on_c, 1, 58, 110
4, 35134, Note_off_c, 1, 58, 64
4, 35136, Note_on_c, 1, 60, 110
4, 35230, Note_off_c, 1, 60, 64
4, 35232, Note_on_c, 1, 50, 110
4, 35326, Note_off_c, 1, 50, 64
4, 35328, Note_on_c, 1, 60, 110
4, 35424, Note_off_c, 1, 60, 64
4, 35424, Note_on_c, 1, 58, 110
4, 35518, Note_off_c, 1, 58, 64
4, 35520, Note_on_c, 1, 58, 110
4, 35616, Note_off_c, 1, 58, 64
4, 35616, Note_on_c, 1, 57, 110
4, 35710, Note_off_c, 1, 57, 64
4, 35712, Note_on_c, 1, 58, 110
4, 35806, Note_off_c, 1, 58, 64
4, 35808, Note_on_c, 1, 60, 110
4, 35902, Note_off_c, 1, 60, 64
4, 35904, Note_on_c, 1, 59, 110
4, 35904, Note_on_c, 1, 62, 110
4, 36064, Note_off_c, 1, 62, 64
4, 36064, Note_off_c, 1, 59, 64
4, 36096, Note_on_c, 1, 60, 110
4, 36096, Note_on_c, 1, 63, 110
4, 36448, Note_off_c, 1, 63, 64
4, 36448, Note_off_c, 1, 60, 64
4, 36480, Note_on_c, 1, 62, 110
4, 36480, Note_on_c, 1, 65, 110
4, 36640, Note_off_c, 1, 65, 64
4, 36640, Note_off_c, 1, 62, 64
4, 36672, Note_on_c, 1, 63, 110
4, 36672, Note_on_c, 1, 67, 110
4, 36832, Note_off_c, 1, 67, 64
4, 36832, Note_off_c, 1, 63, 64
4, 36864, Note_on_c, 1, 62, 110
4, 36864, Note_on_c, 1, 65, 110
4, 37024, Note_off_c, 1, 65, 64
4, 37024, Note_off_c, 1, 62, 64
4, 37056, Note_on_c, 1, 60, 110
4, 37248, Note_on_c, 1, 67, 110
4, 37408, Note_off_c, 1, 67, 64
4, 37440, Note_on_c, 1, 68, 110
4, 37600, Note_off_c, 1, 60, 64
4, 37600, Note_off_c, 1, 68, 64
4, 37632, Note_on_c, 1, 59, 110
4, 37632, Note_on_c, 1, 67, 110
4, 37968, Note_off_c, 1, 67, 64
4, 38016, Note_on_c, 1, 67, 110
4, 38112, Note_on_c, 1, 55, 110
4, 38176, Note_off_c, 1, 67, 64
4, 38206, Note_off_c, 1, 55, 64
4, 38208, Note_on_c, 1, 60, 110
4, 38544, Note_off_c, 1, 60, 64
4, 38592, Note_on_c, 1, 62, 110
4, 38752, Note_off_c, 1, 62, 64
4, 38784, Note_on_c, 1, 53, 110
4, 38944, Note_off_c, 1, 53, 64
4, 39264, Note_on_c, 1, 60, 110
4, 39358, Note_off_c, 1, 60, 64
4, 39360, Note_on_c, 1, 48, 110
4, 39456, Note_off_c, 1, 48, 64
4, 39456, Note_on_c, 1, 50, 110
4, 39550, Note_off_c, 1, 50, 64
4, 39552, Note_on_c, 1, 50, 110
4, 39648, Note_off_c, 1, 50, 64
4, 39648, Note_on_c, 1, 51, 110
4, 39742, Note_off_c, 1, 51, 64
4, 39744, Note_on_c, 1, 50, 110
4, 39838, Note_off_c, 1, 50, 64
4, 39840, Note_on_c, 1, 58, 110
4, 39934, Note_off_c, 1, 58, 64
4, 39936, Note_on_c, 1, 50, 110
4, 40032, Note_off_c, 1, 50, 64
4, 40032, Note_on_c, 1, 52, 110
4, 40126, Note_off_c, 1, 52, 64
4, 40128, Note_on_c, 1, 52, 110
4, 40222, Note_off_c, 1, 52, 64
4, 40224, Note_on_c, 1, 53, 110
4, 40318, Note_off_c, 1, 53, 64
4, 40320, Note_on_c, 1, 52, 110
4, 40414, Note_off_c, 1, 52, 64
4, 40416, Note_on_c, 1, 48, 110
4, 40510, Note_off_c, 1, 48, 64
4, 40512, Note_on_c, 1, 53, 110
4, 40942, Note_off_c, 1, 53, 64
4, 40944, Note_on_c, 1, 55, 110
4, 40990, Note_off_c, 1, 55, 64
4, 40992, Note_on_c, 1, 53, 110
4, 41038, Note_off_c, 1, 53, 64
4, 41040, Note_on_c, 1, 51, 110
4, 41086, Note_off_c, 1, 51, 64
4, 41088, Note_on_c, 1, 53, 110
4, 41184, Note_off_c, 1, 53, 64
4, 41184, Note_on_c, 1, 55, 110
4, 41278, Note_off_c, 1, 55, 64
4, 41280, Note_on_c, 1, 55, 110
4, 41374, Note_off_c, 1, 55, 64
4, 41376, Note_on_c, 1, 48, 110
4, 41470, Note_off_c, 1, 48, 64
4, 41472, Note_on_c, 1, 48, 110
4, 41566, Note_off_c, 1, 48, 64
4, 41568, Note_on_c, 1, 53, 110
4, 41662, Note_off_c, 1, 53, 64
4, 41664, Note_on_c, 1, 60, 110
4, 41760, Note_off_c, 1, 60, 64
4, 41760, Note_on_c, 1, 58, 110
4, 41854, Note_off_c, 1, 58, 64
4, 41856, Note_on_c, 1, 58, 110
4, 41952, Note_off_c, 1, 58, 64
4, 41952, Note_on_c, 1, 56, 110
4, 42046, Note_off_c, 1, 56, 64
4, 42048, Note_on_c, 1, 58, 110
4, 42142, Note_off_c, 1, 58, 64
4, 42144, Note_on_c, 1, 46, 110
4, 42238, Note_off_c, 1, 46, 64
4, 42240, Note_on_c, 1, 58, 110
4, 42336, Note_off_c, 1, 58, 64
4, 42336, Note_on_c, 1, 56, 110
4, 42430, Note_off_c, 1, 56, 64
4, 42432, Note_on_c, 1, 56, 110
4, 42528, Note_off_c, 1, 56, 64
4, 42528, Note_on_c, 1, 55, 110
4, 42622, Note_off_c, 1, 55, 64
4, 42624, Note_on_c, 1, 56, 110
4, 42960, Note_off_c, 1, 56, 64
4, 43008, Note_on_c, 1, 61, 110
4, 43168, Note_off_c, 1, 61, 64
4, 43200, Note_on_c, 1, 55, 110
4, 43392, Note_on_c, 1, 58, 110
4, 43536, Note_off_c, 1, 55, 64
4, 43552, Note_off_c, 1, 58, 64
4, 43584, Note_on_c, 1, 60, 110
4, 43744, Note_off_c, 1, 60, 64
4, 43776, Note_on_c, 1, 53, 110
4, 43936, Note_off_c, 1, 53, 64
4, 43968, Note_on_c, 1, 61, 110
4, 44304, Note_off_c, 1, 61, 64
4, 44352, Note_on_c, 1, 60, 110
4, 45088, Note_off_c, 1, 60, 64
4, 45120, Note_on_c, 1, 53, 110
4, 45280, Note_off_c, 1, 53, 64
4, 45312, Note_on_c, 1, 60, 110
4, 45472, Note_off_c, 1, 60, 64
4, 45504, Note_on_c, 1, 62, 110
4, 45840, Note_off_c, 1, 62, 64
4, 45888, Note_on_c, 1, 59, 110
4, 46048, Note_off_c, 1, 59, 64
4, 46080, Note_on_c, 1, 55, 110
4, 46240, Note_off_c, 1, 55, 64
4, 46272, Note_on_c, 1, 56, 110
4, 46750, Note_off_c, 1, 56, 64
4, 46752, Note_on_c, 1, 58, 110
4, 46846, Note_off_c, 1, 58, 64
4, 46848, Note_on_c, 1, 55, 110
4, 47278, Note_off_c, 1, 55, 64
4, 47280, Note_on_c, 1, 53, 110
4, 47326, Note_off_c, 1, 53, 64
4, 47328, Note_on_c, 1, 52, 110
4, 47374, Note_off_c, 1, 52, 64
4, 47376, Note_on_c, 1, 55, 110
4, 47422, Note_off_c, 1, 55, 64
4, 47424, Note_on_c, 1, 53, 110
4, 47520, Note_on_c, 1, 58, 110
4, 47614, Note_off_c, 1, 58, 64
4, 47616, Note_on_c, 1, 60, 110
4, 47710, Note_off_c, 1, 60, 64
4, 47712, Note_on_c, 1, 58, 110
4, 47712, Note_on_c, 1, 61, 110
4, 47760, Note_off_c, 1, 53, 64
4, 47902, Note_off_c, 1, 61, 64
4, 47904, Note_on_c, 1, 60, 110
4, 47998, Note_off_c, 1, 60, 64
4, 48000, Note_on_c, 1, 64, 110
4, 48256, Note_off_c, 1, 64, 64
4, 48286, Note_off_c, 1, 58, 64
4, 48288, Note_on_c, 1, 58, 110
4, 48382, Note_off_c, 1, 58, 64
4, 48384, Note_on_c, 1, 56, 110
4, 49054, Note_off_c, 1, 56, 64
4, 49056, Note_on_c, 1, 55, 110
4, 49150, Note_off_c, 1, 55, 64
4, 49152, Note_on_c, 1, 55, 110
4, 49248, Note_on_c, 1, 60, 110
4, 49342, Note_off_c, 1, 60, 64
4, 49344, Note_on_c, 1, 63, 110
4, 49408, Note_off_c, 1, 55, 64
4, 49438, Note_off_c, 1, 63, 64
4, 49440, Note_on_c, 1, 60, 110
4, 49440, Note_on_c, 1, 67, 110
4, 49534, Note_off_c, 1, 67, 64
4, 49582, Note_off_c, 1, 60, 64
4, 49584, Note_on_c, 1, 58, 110
4, 49630, Note_off_c, 1, 58, 64
4, 49632, Note_on_c, 1, 56, 110
4, 49678, Note_off_c, 1, 56, 64
4, 49680, Note_on_c, 1, 55, 110
4, 49726, Note_off_c, 1, 55, 64
4, 49728, Note_on_c, 1, 53, 110
4, 49774, Note_off_c, 1, 53, 64
4, 49776, Note_on_c, 1, 51, 110
4, 49822, Note_off_c, 1, 51, 64
4, 49824, Note_on_c, 1, 53, 110
4, 49870, Note_off_c, 1, 53, 64
4, 49872, Note_on_c, 1, 55, 110
4, 49918, Note_off_c, 1, 55, 64
4, 49920, Note_on_c, 1, 56, 110
4, 50158, Note_off_c, 1, 56, 64
4, 50160, Note_on_c, 1, 55, 110
4, 50206, Note_off_c, 1, 55, 64
4, 50208, Note_on_c, 1, 53, 110
4, 50254, Note_off_c, 1, 53, 64
4, 50256, Note_on_c, 1, 51, 110
4, 50302, Note_off_c, 1, 51, 64
4, 50304, Note_on_c, 1, 53, 110
4, 50350, Note_off_c, 1, 53, 64
4, 50352, Note_on_c, 1, 51, 110
4, 50398, Note_off_c, 1, 51, 64
4, 50400, Note_on_c, 1, 50, 110
4, 50446, Note_off_c, 1, 50, 64
4, 50448, Note_on_c, 1, 48, 110
4, 50494, Note_off_c, 1, 48, 64
4, 50496, Note_on_c, 1, 55, 110
4, 50734, Note_off_c, 1, 55, 64
4, 50736, Note_on_c, 1, 59, 110
4, 50782, Note_off_c, 1, 59, 64
4, 50784, Note_on_c, 1, 60, 110
4, 50830, Note_off_c, 1, 60, 64
4, 50832, Note_on_c, 1, 62, 110
4, 50878, Note_off_c, 1, 62, 64
4, 50880, Note_on_c, 1, 63, 110
4, 50926, Note_off_c, 1, 63, 64
4, 50928, Note_on_c, 1, 65, 110
4, 50974, Note_off_c, 1, 65, 64
4, 50976, Note_on_c, 1, 67, 110
4, 51022, Note_off_c, 1, 67, 64
4, 51024, Note_on_c, 1, 68, 110
4, 51070, Note_off_c, 1, 68, 64
4, 51072, Note_on_c, 1, 67, 110
4, 51118, Note_off_c, 1, 67, 64
4, 51120, Note_on_c, 1, 65, 110
4, 51166, Note_off_c, 1, 65, 64
4, 51168, Note_on_c, 1, 63, 110
4, 51214, Note_off_c, 1, 63, 64
4, 51216, Note_on_c, 1, 62, 110
4, 51262, Note_off_c, 1, 62, 64
4, 51264, Note_on_c, 1, 60, 110
4, 51310, Note_off_c, 1, 60, 64
4, 51312, Note_on_c, 1, 59, 110
4, 51358, Note_off_c, 1, 59, 64
4, 51360, Note_on_c, 1, 60, 110
4, 51406, Note_off_c, 1, 60, 64
4, 51408, Note_on_c, 1, 62, 110
4, 51454, Note_off_c, 1, 62, 64
4, 51456, Note_on_c, 1, 63, 110
4, 51502, Note_off_c, 1, 63, 64
4, 51504, Note_on_c, 1, 62, 110
4, 51550, Note_off_c, 1, 62, 64
4, 51552, Note_on_c, 1, 63, 110
4, 51598, Note_off_c, 1, 63, 64
4, 51600, Note_on_c, 1, 65, 110
4, 51646, Note_off_c, 1, 65, 64
4, 51648, Note_on_c, 1, 62, 110
4, 51694, Note_off_c, 1, 62, 64
4, 51696, Note_on_c, 1, 60, 110
4, 51742, Note_off_c, 1, 60, 64
4, 51744, Note_on_c, 1, 62, 110
4, 51790, Note_off_c, 1, 62, 64
4, 51792, Note_on_c, 1, 63, 110
4, 51838, Note_off_c, 1, 63, 64
4, 51840, Note_on_c, 1, 60, 110
4, 52078, Note_off_c, 1, 60, 64
4, 52080, Note_on_c, 1, 62, 110
4, 52126, Note_off_c, 1, 62, 64
4, 52128, Note_on_c, 1, 60, 110
4, 52174, Note_off_c, 1, 60, 64
4, 52176, Note_on_c, 1, 59, 110
4, 52222, Note_off_c, 1, 59, 64
4, 52224, Note_on_c, 1, 60, 110
4, 52270, Note_off_c, 1, 60, 64
4, 52272, Note_on_c, 1, 58, 110
4, 52318, Note_off_c, 1, 58, 64
4, 52320, Note_on_c, 1, 57, 110
4, 52366, Note_off_c, 1, 57, 64
4, 52368, Note_on_c, 1, 55, 110
4, 52414, Note_off_c, 1, 55, 64
4, 52416, Note_on_c, 1, 57, 110
4, 52576, Note_off_c, 1, 57, 64
4, 52608, Note_on_c, 1, 55, 110
4, 53152, Note_off_c, 1, 55, 64
4, 53280, Note_on_c, 1, 63, 110
4, 53374, Note_off_c, 1, 63, 64
4, 53376, Note_on_c, 1, 60, 110
4, 53470, Note_off_c, 1, 60, 64
4, 53472, Note_on_c, 1, 63, 110
4, 53566, Note_off_c, 1, 63, 64
4, 53568, Note_on_c, 1, 65, 110
4, 53614, Note_off_c, 1, 65, 64
4, 53616, Note_on_c, 1, 67, 110
4, 53662, Note_off_c, 1, 67, 64
4, 53664, Note_on_c, 1, 65, 110
4, 53710, Note_off_c, 1, 65, 64
4, 53712, Note_on_c, 1, 63, 110
4, 53758, Note_off_c, 1, 63, 64
4, 53760, Note_on_c, 1, 62, 110
4, 53806, Note_off_c, 1, 62, 64
4, 53808, Note_on_c, 1, 60, 110
4, 53854, Note_off_c, 1, 60, 64
4, 53856, Note_on_c, 1, 58, 110
4, 53902, Note_off_c, 1, 58, 64
4, 53904, Note_on_c, 1, 60, 110
4, 53950, Note_off_c, 1, 60, 64
4, 53952, Note_on_c, 1, 62, 110
4, 53998, Note_off_c, 1, 62, 64
4, 54000, Note_on_c, 1, 60, 110
4, 54046, Note_off_c, 1, 60, 64
4, 54048, Note_on_c, 1, 62, 110
4, 54094, Note_off_c, 1, 62, 64
4, 54096, Note_on_c, 1, 58, 110
4, 54142, Note_off_c, 1, 58, 64
4, 54144, Note_on_c, 1, 60, 110
4, 54144, Note_on_c, 1, 63, 110
4, 54238, Note_off_c, 1, 63, 64
4, 54240, Note_on_c, 1, 62, 110
4, 54334, Note_off_c, 1, 62, 64
4, 54336, Note_on_c, 1, 63, 110
4, 54430, Note_off_c, 1, 63, 64
4, 54432, Note_on_c, 1, 64, 110
4, 54526, Note_off_c, 1, 64, 64
4, 54528, Note_on_c, 1, 65, 110
4, 54622, Note_off_c, 1, 65, 64
4, 54624, Note_on_c, 1, 66, 110
4, 54672, Note_off_c, 1, 60, 64
4, 54718, Note_off_c, 1, 66, 64
4, 54720, Note_on_c, 1, 62, 110
4, 54720, Note_on_c, 1, 67, 110
4, 55248, Note_off_c, 1, 67, 64
4, 55248, Note_off_c, 1, 62, 64
4, 55872, Note_on_c, 1, 60, 75
4, 56032, Note_off_c, 1, 60, 64
4, 56064, Note_on_c, 1, 67, 75
4, 56224, Note_off_c, 1, 67, 64
4, 56256, Note_on_c, 1, 67, 75
4, 56416, Note_off_c, 1, 67, 64
4, 56448, Note_on_c, 1, 67, 75
4, 56608, Note_off_c, 1, 67, 64
4, 56640, Note_on_c, 1, 67, 75
4, 56800, Note_off_c, 1, 67, 64
4, 56832, Note_on_c, 1, 68, 75
4, 57310, Note_off_c, 1, 68, 64
4, 57312, Note_on_c, 1, 65, 75
4, 57406, Note_off_c, 1, 65, 64
4, 57408, Note_on_c, 1, 62, 75
4, 57502, Note_off_c, 1, 62, 64
4, 57504, Note_on_c, 1, 65, 75
4, 57598, Note_off_c, 1, 65, 64
4, 57600, Note_on_c, 1, 59, 75
4, 57760, Note_off_c, 1, 59, 64
4, 57792, Note_on_c, 1, 68, 75
4, 57952, Note_off_c, 1, 68, 64
4, 57984, Note_on_c, 1, 67, 75
4, 58144, Note_off_c, 1, 67, 64
4, 58176, Note_on_c, 1, 65, 75
4, 58336, Note_off_c, 1, 65, 64
4, 58368, Note_on_c, 1, 63, 75
4, 58528, Note_off_c, 1, 63, 64
4, 58560, Note_on_c, 1, 62, 75
4, 58654, Note_off_c, 1, 62, 64
4, 58656, Note_on_c, 1, 63, 75
4, 58750, Note_off_c, 1, 63, 64
4, 58752, Note_on_c, 1, 60, 75
4, 58846, Note_off_c, 1, 60, 64
4, 58848, Note_on_c, 1, 59, 75
4, 58942, Note_off_c, 1, 59, 64
4, 58944, Note_on_c, 1, 60, 75
4, 59038, Note_off_c, 1, 60, 64
4, 59040, Note_on_c, 1, 62, 75
4, 59134, Note_off_c, 1, 62, 64
4, 59136, Note_on_c, 1, 63, 75
4, 59230, Note_off_c, 1, 63, 64
4, 59232, Note_on_c, 1, 60, 75
4, 59326, Note_off_c, 1, 60, 64
4, 59328, Note_on_c, 1, 62, 75
4, 59422, Note_off_c, 1, 62, 64
4, 59424, Note_on_c, 1, 63, 75
4, 59518, Note_off_c, 1, 63, 64
4, 59520, Note_on_c, 1, 65, 75
4, 59614, Note_off_c, 1, 65, 64
4, 59616, Note_on_c, 1, 67, 75
4, 59710, Note_off_c, 1, 67, 64
4, 59712, Note_on_c, 1, 69, 75
4, 59806, Note_off_c, 1, 69, 64
4, 59808, Note_on_c, 1, 71, 75
4, 59902, Note_off_c, 1, 71, 64
4, 59904, Note_on_c, 1, 72, 75
4, 59998, Note_off_c, 1, 72, 64
4, 60000, Note_on_c, 1, 67, 75
4, 60094, Note_off_c, 1, 67, 64
4, 60096, Note_on_c, 1, 63, 75
4, 60190, Note_off_c, 1, 63, 64
4, 60192, Note_on_c, 1, 67, 75
4, 60286, Note_off_c, 1, 67, 64
4, 60288, Note_on_c, 1, 60, 75
4, 60766, Note_off_c, 1, 60, 64
4, 60768, Note_on_c, 1, 58, 75
4, 60862, Note_off_c, 1, 58, 64
4, 60864, Note_on_c, 1, 57, 75
4, 60958, Note_off_c, 1, 57, 64
4, 60960, Note_on_c, 1, 60, 75
4, 61054, Note_off_c, 1, 60, 64
4, 61056, Note_on_c, 1, 58, 75
4, 61150, Note_off_c, 1, 58, 64
4, 61152, Note_on_c, 1, 57, 75
4, 61246, Note_off_c, 1, 57, 64
4, 61248, Note_on_c, 1, 55, 75
4, 61342, Note_off_c, 1, 55, 64
4, 61344, Note_on_c, 1, 54, 75
4, 61438, Note_off_c, 1, 54, 64
4, 61440, Note_on_c, 1, 55, 75
4, 61534, Note_off_c, 1, 55, 64
4, 61536, Note_on_c, 1, 58, 75
4, 61630, Note_off_c, 1, 58, 64
4, 61632, Note_on_c, 1, 60, 75
4, 61726, Note_off_c, 1, 60, 64
4, 61728, Note_on_c, 1, 62, 75
4, 61822, Note_off_c, 1, 62, 64
4, 61824, Note_on_c, 1, 63, 75
4, 62302, Note_off_c, 1, 63, 64
4, 62304, Note_on_c, 1, 62, 75
4, 62398, Note_off_c, 1, 62, 64
4, 62400, Note_on_c, 1, 60, 75
4, 62494, Note_off_c, 1, 60, 64
4, 62496, Note_on_c, 1, 63, 75
4, 62590, Note_off_c, 1, 63, 64
4, 62592, Note_on_c, 1, 62, 75
4, 62686, Note_off_c, 1, 62, 64
4, 62688, Note_on_c, 1, 60, 75
4, 62782, Note_off_c, 1, 60, 64
4, 62784, Note_on_c, 1, 59, 75
4, 62878, Note_off_c, 1, 59, 64
4, 62880, Note_on_c, 1, 57, 75
4, 62974, Note_off_c, 1, 57, 64
4, 62976, Note_on_c, 1, 59, 75
4, 63070, Note_off_c, 1, 59, 64
4, 63072, Note_on_c, 1, 55, 75
4, 63166, Note_off_c, 1, 55, 64
4, 63168, Note_on_c, 1, 57, 75
4, 63262, Note_off_c, 1, 57, 64
4, 63264, Note_on_c, 1, 59, 75
4, 63358, Note_off_c, 1, 59, 64
4, 63360, Note_on_c, 1, 60, 75
4, 63454, Note_off_c, 1, 60, 64
4, 63456, Note_on_c, 1, 62, 75
4, 63550, Note_off_c, 1, 62, 64
4, 63552, Note_on_c, 1, 63, 75
4, 63646, Note_off_c, 1, 63, 64
4, 63648, Note_on_c, 1, 65, 75
4, 63742, Note_off_c, 1, 65, 64
4, 63744, Note_on_c, 1, 63, 75
4, 63838, Note_off_c, 1, 63, 64
4, 63840, Note_on_c, 1, 60, 75
4, 63934, Note_off_c, 1, 60, 64
4, 63936, Note_on_c, 1, 62, 75
4, 64030, Note_off_c, 1, 62, 64
4, 64032, Note_on_c, 1, 63, 75
4, 64126, Note_off_c, 1, 63, 64
4, 64128, Note_on_c, 1, 62, 75
4, 64222, Note_off_c, 1, 62, 64
4, 64224, Note_on_c, 1, 65, 75
4, 64318, Note_off_c, 1, 65, 64
4, 64320, Note_on_c, 1, 63, 75
4, 64414, Note_off_c, 1, 63, 64
4, 64416, Note_on_c, 1, 62, 75
4, 64510, Note_off_c, 1, 62, 64
4, 64512, Note_on_c, 1, 60, 75
4, 64606, Note_off_c, 1, 60, 64
4, 64608, Note_on_c, 1, 62, 75
4, 64702, Note_off_c, 1, 62, 64
4, 64704, Note_on_c, 1, 63, 75
4, 64798, Note_off_c, 1, 63, 64
4, 64800, Note_on_c, 1, 60, 75
4, 64894, Note_off_c, 1, 60, 64
4, 64896, Note_on_c, 1, 65, 75
4, 65374, Note_off_c, 1, 65, 64
4, 65376, Note_on_c, 1, 63, 75
4, 65470, Note_off_c, 1, 63, 64
4, 65472, Note_on_c, 1, 62, 75
4, 65566, Note_off_c, 1, 62, 64
4, 65568, Note_on_c, 1, 65, 75
4, 65662, Note_off_c, 1, 65, 64
4, 65664, Note_on_c, 1, 63, 75
4, 65758, Note_off_c, 1, 63, 64
4, 65760, Note_on_c, 1, 65, 75
4, 65854, Note_off_c, 1, 65, 64
4, 65856, Note_on_c, 1, 62, 75
4, 65950, Note_off_c, 1, 62, 64
4, 65952, Note_on_c, 1, 63, 75
4, 66046, Note_off_c, 1, 63, 64
4, 66048, Note_on_c, 1, 55, 75
4, 66208, Note_off_c, 1, 55, 64
4, 66240, Note_on_c, 1, 59, 75
4, 66400, Note_off_c, 1, 59, 64
4, 66432, Note_on_c, 1, 60, 75
4, 66592, Note_off_c, 1, 60, 64
4, 66624, Note_on_c, 1, 55, 75
4, 66784, Note_off_c, 1, 55, 64
4, 66816, Note_on_c, 1, 60, 75
4, 66976, Note_off_c, 1, 60, 64
4, 67008, Note_on_c, 1, 60, 75
4, 67168, Note_off_c, 1, 60, 64
4, 67200, Note_on_c, 1, 60, 75
4, 67360, Note_off_c, 1, 60, 64
4, 67392, Note_on_c, 1, 60, 75
4, 67552, Note_off_c, 1, 60, 64
4, 67584, Note_on_c, 1, 63, 75
4, 68062, Note_off_c, 1, 63, 64
4, 68064, Note_on_c, 1, 60, 75
4, 68158, Note_off_c, 1, 60, 64
4, 68160, Note_on_c, 1, 57, 75
4, 68254, Note_off_c, 1, 57, 64
4, 68256, Note_on_c, 1, 60, 75
4, 68350, Note_off_c, 1, 60, 64
4, 68352, Note_on_c, 1, 54, 75
4, 68512, Note_off_c, 1, 54, 64
4, 68544, Note_on_c, 1, 63, 75
4, 68704, Note_off_c, 1, 63, 64
4, 68736, Note_on_c, 1, 62, 75
4, 68896, Note_off_c, 1, 62, 64
4, 68928, Note_on_c, 1, 60, 75
4, 69088, Note_off_c, 1, 60, 64
4, 69120, Note_on_c, 1, 58, 75
4, 69280, Note_off_c, 1, 58, 64
4, 69312, Note_on_c, 1, 57, 75
4, 69406, Note_off_c, 1, 57, 64
4, 69408, Note_on_c, 1, 58, 75
4, 69502, Note_off_c, 1, 58, 64
4, 69504, Note_on_c, 1, 55, 75
4, 69664, Note_off_c, 1, 55, 64
4, 69696, Note_on_c, 1, 65, 75
4, 69856, Note_off_c, 1, 65, 64
4, 69888, Note_on_c, 1, 67, 75
4, 70224, Note_off_c, 1, 67, 64
4, 70464, Note_on_c, 1, 60, 75
4, 70464, Note_on_c, 1, 67, 75
4, 70624, Note_off_c, 1, 67, 64
4, 70656, Note_on_c, 1, 65, 75
4, 70750, Note_off_c, 1, 60, 64
4, 70752, Note_on_c, 1, 58, 75
4, 70816, Note_off_c, 1, 65, 64
4, 70846, Note_off_c, 1, 58, 64
4, 70848, Note_on_c, 1, 56, 75
4, 70942, Note_off_c, 1, 56, 64
4, 70944, Note_on_c, 1, 55, 75
4, 71038, Note_off_c, 1, 55, 64
4, 71040, Note_on_c, 1, 53, 75
4, 71200, Note_off_c, 1, 53, 64
4, 71232, Note_on_c, 1, 63, 75
4, 71392, Note_off_c, 1, 63, 64
4, 71424, Note_on_c, 1, 65, 75
4, 71760, Note_off_c, 1, 65, 64
4, 72000, Note_on_c, 1, 58, 75
4, 72000, Note_on_c, 1, 65, 75
4, 72160, Note_off_c, 1, 65, 64
4, 72192, Note_on_c, 1, 63, 75
4, 72286, Note_off_c, 1, 58, 64
4, 72288, Note_on_c, 1, 56, 75
4, 72352, Note_off_c, 1, 63, 64
4, 72382, Note_off_c, 1, 56, 64
4, 72384, Note_on_c, 1, 55, 75
4, 72478, Note_off_c, 1, 55, 64
4, 72480, Note_on_c, 1, 53, 75
4, 72574, Note_off_c, 1, 53, 64
4, 72576, Note_on_c, 1, 51, 75
4, 72736, Note_off_c, 1, 51, 64
4, 72768, Note_on_c, 1, 63, 75
4, 72928, Note_off_c, 1, 63, 64
4, 72960, Note_on_c, 1, 60, 75
4, 73054, Note_off_c, 1, 60, 64
4, 73056, Note_on_c, 1, 63, 75
4, 73150, Note_off_c, 1, 63, 64
4, 73152, Note_on_c, 1, 65, 75
4, 73246, Note_off_c, 1, 65, 64
4, 73248, Note_on_c, 1, 67, 75
4, 73342, Note_off_c, 1, 67, 64
4, 73344, Note_on_c, 1, 68, 75
4, 73504, Note_off_c, 1, 68, 64
4, 73536, Note_on_c, 1, 56, 75
4, 73696, Note_off_c, 1, 56, 64
4, 73728, Note_on_c, 1, 55, 75
4, 73888, Note_off_c, 1, 55, 64
4, 73920, Note_on_c, 1, 59, 75
4, 74080, Note_off_c, 1, 59, 64
4, 74112, Note_on_c, 1, 60, 75
4, 74272, Note_off_c, 1, 60, 64
4, 74304, Note_on_c, 1, 60, 75
4, 74304, Note_on_c, 1, 63, 75
4, 74464, Note_off_c, 1, 63, 64
4, 74464, Note_off_c, 1, 60, 64
4, 74496, Note_on_c, 1, 62, 75
4, 74590, Note_off_c, 1, 62, 64
4, 74592, Note_on_c, 1, 53, 75
4, 74686, Note_off_c, 1, 53, 64
4, 74688, Note_on_c, 1, 55, 75
4, 74782, Note_off_c, 1, 55, 64
4, 74784, Note_on_c, 1, 56, 75
4, 74878, Note_off_c, 1, 56, 64
4, 74880, Note_on_c, 1, 55, 75
4, 74974, Note_off_c, 1, 55, 64
4, 74976, Note_on_c, 1, 53, 75
4, 75070, Note_off_c, 1, 53, 64
4, 75072, Note_on_c, 1, 51, 75
4, 75166, Note_off_c, 1, 51, 64
4, 75168, Note_on_c, 1, 50, 75
4, 75262, Note_off_c, 1, 50, 64
4, 75264, Note_on_c, 1, 51, 75
4, 75600, Note_off_c, 1, 51, 64
4, 75648, Note_on_c, 1, 53, 75
4, 76032, Note_on_c, 1, 59, 75
4, 76126, Note_off_c, 1, 53, 64
4, 76128, Note_on_c, 1, 50, 75
4, 76192, Note_off_c, 1, 59, 64
4, 76222, Note_off_c, 1, 50, 64
4, 76224, Note_on_c, 1, 51, 75
4, 76318, Note_off_c, 1, 51, 64
4, 76320, Note_on_c, 1, 53, 75
4, 76414, Note_off_c, 1, 53, 64
4, 76416, Note_on_c, 1, 51, 75
4, 76510, Note_off_c, 1, 51, 64
4, 76512, Note_on_c, 1, 50, 75
4, 76606, Note_off_c, 1, 50, 64
4, 76608, Note_on_c, 1, 48, 75
4, 76702, Note_off_c, 1, 48, 64
4, 76704, Note_on_c, 1, 47, 75
4, 76798, Note_off_c, 1, 47, 64
4, 76800, Note_on_c, 1, 48, 75
4, 76894, Note_off_c, 1, 48, 64
4, 76896, Note_on_c, 1, 51, 75
4, 76990, Note_off_c, 1, 51, 64
4, 76992, Note_on_c, 1, 53, 75
4, 77086, Note_off_c, 1, 53, 64
4, 77088, Note_on_c, 1, 55, 75
4, 77182, Note_off_c, 1, 55, 64
4, 77184, Note_on_c, 1, 56, 75
4, 77520, Note_off_c, 1, 56, 64
4, 77568, Note_on_c, 1, 55, 75
4, 77728, Note_off_c, 1, 55, 64
4, 77760, Note_on_c, 1, 53, 75
4, 77920, Note_off_c, 1, 53, 64
4, 77952, Note_on_c, 1, 52, 75
4, 78112, Note_off_c, 1, 52, 64
4, 78144, Note_on_c, 1, 48, 75
4, 78304, Note_off_c, 1, 48, 64
4, 78336, Note_on_c, 1, 53, 75
4, 78430, Note_off_c, 1, 53, 64
4, 78432, Note_on_c, 1, 52, 75
4, 78526, Note_off_c, 1, 52, 64
4, 78528, Note_on_c, 1, 53, 75
4, 78622, Note_off_c, 1, 53, 64
4, 78624, Note_on_c, 1, 55, 75
4, 78718, Note_off_c, 1, 55, 64
4, 78720, Note_on_c, 1, 56, 75
4, 78880, Note_off_c, 1, 56, 64
4, 78912, Note_on_c, 1, 55, 75
4, 79072, Note_off_c, 1, 55, 64
4, 79104, Note_on_c, 1, 53, 75
4, 79264, Note_off_c, 1, 53, 64
4, 79296, Note_on_c, 1, 51, 75
4, 79456, Note_off_c, 1, 51, 64
4, 79488, Note_on_c, 1, 50, 75
4, 79648, Note_off_c, 1, 50, 64
4, 79680, Note_on_c, 1, 48, 75
4, 79840, Note_off_c, 1, 48, 64
4, 79872, Note_on_c, 1, 47, 75
4, 79966, Note_off_c, 1, 47, 64
4, 79968, Note_on_c, 1, 55, 75
4, 80062, Note_off_c, 1, 55, 64
4, 80064, Note_on_c, 1, 57, 75
4, 80158, Note_off_c, 1, 57, 64
4, 80160, Note_on_c, 1, 59, 75
4, 80254, Note_off_c, 1, 59, 64
4, 80256, Note_on_c, 1, 60, 75
4, 80416, Note_off_c, 1, 60, 64
4, 80448, Note_on_c, 1, 58, 75
4, 80608, Note_off_c, 1, 58, 64
4, 80640, Note_on_c, 1, 57, 75
4, 80800, Note_off_c, 1, 57, 64
4, 80832, Note_on_c, 1, 55, 75
4, 80992, Note_off_c, 1, 55, 64
4, 81024, Note_on_c, 1, 54, 75
4, 81118, Note_off_c, 1, 54, 64
4, 81120, Note_on_c, 1, 50, 75
4, 81214, Note_off_c, 1, 50, 64
4, 81216, Note_on_c, 1, 52, 75
4, 81310, Note_off_c, 1, 52, 64
4, 81312, Note_on_c, 1, 54, 75
4, 81406, Note_off_c, 1, 54, 64
4, 81408, Note_on_c, 1, 55, 75
4, 81502, Note_off_c, 1, 55, 64
4, 81504, Note_on_c, 1, 57, 75
4, 81598, Note_off_c, 1, 57, 64
4, 81600, Note_on_c, 1, 58, 75
4, 81694, Note_off_c, 1, 58, 64
4, 81696, Note_on_c, 1, 60, 75
4, 81790, Note_off_c, 1, 60, 64
4, 81792, Note_on_c, 1, 62, 75
4, 81886, Note_off_c, 1, 62, 64
4, 81888, Note_on_c, 1, 63, 75
4, 81982, Note_off_c, 1, 63, 64
4, 81984, Note_on_c, 1, 62, 75
4, 82078, Note_off_c, 1, 62, 64
4, 82080, Note_on_c, 1, 60, 75
4, 82174, Note_off_c, 1, 60, 64
4, 82176, Note_on_c, 1, 58, 75
4, 82176, Note_on_c, 1, 58, 75
4, 82512, Note_off_c, 1, 58, 64
4, 82560, Note_on_c, 1, 67, 75
4, 82654, Note_off_c, 1, 67, 64
4, 82656, Note_on_c, 1, 65, 75
4, 82750, Note_off_c, 1, 65, 64
4, 82752, Note_on_c, 1, 63, 75
4, 82846, Note_off_c, 1, 63, 64
4, 82848, Note_on_c, 1, 62, 75
4, 82896, Note_off_c, 1, 58, 64
4, 82942, Note_off_c, 1, 62, 64
4, 82944, Note_on_c, 1, 60, 75
4, 82944, Note_on_c, 1, 63, 75
4, 83664, Note_off_c, 1, 60, 64
4, 83712, Note_on_c, 1, 54, 75
4, 83806, Note_off_c, 1, 63, 64
4, 84048, Note_off_c, 1, 54, 64
4, 84096, Note_on_c, 1, 55, 75
4, 84190, Note_off_c, 1, 55, 64
4, 84192, Note_on_c, 1, 57, 75
4, 84286, Note_off_c, 1, 57, 64
4, 84288, Note_on_c, 1, 58, 75
4, 84382, Note_off_c, 1, 58, 64
4, 84384, Note_on_c, 1, 60, 75
4, 84478, Note_off_c, 1, 60, 64
4, 84480, Note_on_c, 1, 62, 75
4, 84640, Note_off_c, 1, 62, 64
4, 84672, Note_on_c, 1, 62, 75
4, 84832, Note_off_c, 1, 62, 64
4, 84864, Note_on_c, 1, 62, 75
4, 85024, Note_off_c, 1, 62, 64
4, 85056, Note_on_c, 1, 62, 75
4, 85216, Note_off_c, 1, 62, 64
4, 85248, Note_on_c, 1, 63, 75
4, 85726, Note_off_c, 1, 63, 64
4, 85728, Note_on_c, 1, 60, 75
4, 85822, Note_off_c, 1, 60, 64
4, 85824, Note_on_c, 1, 57, 75
4, 85918, Note_off_c, 1, 57, 64
4, 85920, Note_on_c, 1, 60, 75
4, 86014, Note_off_c, 1, 60, 64
4, 86016, Note_on_c, 1, 54, 75
4, 86176, Note_off_c, 1, 54, 64
4, 86208, Note_on_c, 1, 63, 75
4, 86368, Note_off_c, 1, 63, 64
4, 86400, Note_on_c, 1, 62, 75
4, 86560, Note_off_c, 1, 62, 64
4, 86592, Note_on_c, 1, 60, 75
4, 86752, Note_off_c, 1, 60, 64
4, 86784, Note_on_c, 1, 58, 75
4, 86944, Note_off_c, 1, 58, 64
4, 86976, Note_on_c, 1, 57, 75
4, 87070, Note_off_c, 1, 57, 64
4, 87072, Note_on_c, 1, 58, 75
4, 87166, Note_off_c, 1, 58, 64
4, 87168, Note_on_c, 1, 55, 75
4, 87262, Note_off_c, 1, 55, 64
4, 87264, Note_on_c, 1, 57, 75
4, 87358, Note_off_c, 1, 57, 64
4, 87360, Note_on_c, 1, 58, 75
4, 87454, Note_off_c, 1, 58, 64
4, 87456, Note_on_c, 1, 60, 75
4, 87550, Note_off_c, 1, 60, 64
4, 87552, Note_on_c, 1, 62, 75
4, 87646, Note_off_c, 1, 62, 64
4, 87648, Note_on_c, 1, 63, 75
4, 87742, Note_off_c, 1, 63, 64
4, 87744, Note_on_c, 1, 65, 75
4, 87838, Note_off_c, 1, 65, 64
4, 87840, Note_on_c, 1, 62, 75
4, 87934, Note_off_c, 1, 62, 64
4, 87936, Note_on_c, 1, 67, 75
4, 88030, Note_off_c, 1, 67, 64
4, 88032, Note_on_c, 1, 65, 75
4, 88126, Note_off_c, 1, 65, 64
4, 88128, Note_on_c, 1, 63, 75
4, 88222, Note_off_c, 1, 63, 64
4, 88224, Note_on_c, 1, 62, 75
4, 88318, Note_off_c, 1, 62, 64
4, 88320, Note_on_c, 1, 60, 75
4, 88414, Note_off_c, 1, 60, 64
4, 88416, Note_on_c, 1, 62, 75
4, 88510, Note_off_c, 1, 62, 64
4, 88512, Note_on_c, 1, 63, 75
4, 88606, Note_off_c, 1, 63, 64
4, 88608, Note_on_c, 1, 60, 75
4, 88702, Note_off_c, 1, 60, 64
4, 88704, Note_on_c, 1, 65, 75
4, 88798, Note_off_c, 1, 65, 64
4, 88800, Note_on_c, 1, 63, 75
4, 88894, Note_off_c, 1, 63, 64
4, 88896, Note_on_c, 1, 62, 75
4, 88990, Note_off_c, 1, 62, 64
4, 88992, Note_on_c, 1, 60, 75
4, 89086, Note_off_c, 1, 60, 64
4, 89088, Note_on_c, 1, 58, 75
4, 89182, Note_off_c, 1, 58, 64
4, 89184, Note_on_c, 1, 60, 75
4, 89278, Note_off_c, 1, 60, 64
4, 89280, Note_on_c, 1, 62, 75
4, 89374, Note_off_c, 1, 62, 64
4, 89376, Note_on_c, 1, 58, 75
4, 89470, Note_off_c, 1, 58, 64
4, 89472, Note_on_c, 1, 63, 75
4, 89566, Note_off_c, 1, 63, 64
4, 89568, Note_on_c, 1, 62, 75
4, 89662, Note_off_c, 1, 62, 64
4, 89664, Note_on_c, 1, 60, 75
4, 89758, Note_off_c, 1, 60, 64
4, 89760, Note_on_c, 1, 58, 75
4, 89854, Note_off_c, 1, 58, 64
4, 89856, Note_on_c, 1, 57, 75
4, 89856, Note_on_c, 1, 57, 75
4, 89950, Note_off_c, 1, 57, 64
4, 89952, Note_on_c, 1, 60, 75
4, 90046, Note_off_c, 1, 60, 64
4, 90048, Note_on_c, 1, 62, 75
4, 90142, Note_off_c, 1, 62, 64
4, 90144, Note_on_c, 1, 63, 75
4, 90192, Note_off_c, 1, 57, 64
4, 90238, Note_off_c, 1, 63, 64
4, 90240, Note_on_c, 1, 56, 75
4, 90240, Note_on_c, 1, 65, 75
4, 90576, Note_off_c, 1, 56, 64
4, 90624, Note_on_c, 1, 55, 75
4, 90718, Note_off_c, 1, 65, 64
4, 90720, Note_on_c, 1, 64, 75
4, 90960, Note_off_c, 1, 55, 64
4, 91056, Note_off_c, 1, 64, 64
4, 91104, Note_on_c, 1, 60, 75
4, 91198, Note_off_c, 1, 60, 64
4, 91200, Note_on_c, 1, 56, 75
4, 91294, Note_off_c, 1, 56, 64
4, 91296, Note_on_c, 1, 60, 75
4, 91390, Note_off_c, 1, 60, 64
4, 91392, Note_on_c, 1, 53, 75
4, 91392, Note_on_c, 1, 53, 75
4, 91486, Note_off_c, 1, 53, 64
4, 91488, Note_on_c, 1, 60, 75
4, 91582, Note_off_c, 1, 60, 64
4, 91584, Note_on_c, 1, 62, 75
4, 91678, Note_off_c, 1, 62, 64
4, 91680, Note_on_c, 1, 64, 75
4, 91728, Note_off_c, 1, 53, 64
4, 91774, Note_off_c, 1, 64, 64
4, 91776, Note_on_c, 1, 65, 75
4, 91870, Note_off_c, 1, 65, 64
4, 91872, Note_on_c, 1, 67, 75
4, 91966, Note_off_c, 1, 67, 64
4, 91968, Note_on_c, 1, 65, 75
4, 91968, Note_on_c, 1, 68, 75
4, 92128, Note_off_c, 1, 68, 64
4, 92254, Note_off_c, 1, 65, 64
4, 92256, Note_on_c, 1, 63, 75
4, 92350, Note_off_c, 1, 63, 64
4, 92352, Note_on_c, 1, 62, 75
4, 92446, Note_off_c, 1, 62, 64
4, 92448, Note_on_c, 1, 65, 75
4, 92542, Note_off_c, 1, 65, 64
4, 92544, Note_on_c, 1, 63, 75
4, 92638, Note_off_c, 1, 63, 64
4, 92640, Note_on_c, 1, 62, 75
4, 92734, Note_off_c, 1, 62, 64
4, 92736, Note_on_c, 1, 60, 75
4, 92830, Note_off_c, 1, 60, 64
4, 92832, Note_on_c, 1, 59, 75
4, 92926, Note_off_c, 1, 59, 64
4, 92928, Note_on_c, 1, 60, 75
4, 93022, Note_off_c, 1, 60, 64
4, 93024, Note_on_c, 1, 55, 75
4, 93118, Note_off_c, 1, 55, 64
4, 93120, Note_on_c, 1, 57, 75
4, 93214, Note_off_c, 1, 57, 64
4, 93216, Note_on_c, 1, 59, 75
4, 93310, Note_off_c, 1, 59, 64
4, 93312, Note_on_c, 1, 60, 75
4, 93406, Note_off_c, 1, 60, 64
4, 93408, Note_on_c, 1, 62, 75
4, 93502, Note_off_c, 1, 62, 64
4, 93504, Note_on_c, 1, 63, 75
4, 93598, Note_off_c, 1, 63, 64
4, 93600, Note_on_c, 1, 65, 75
4, 93694, Note_off_c, 1, 65, 64
4, 93696, Note_on_c, 1, 67, 75
4, 93856, Note_off_c, 1, 67, 64
4, 94176, Note_on_c, 1, 62, 75
4, 94270, Note_off_c, 1, 62, 64
4, 94272, Note_on_c, 1, 63, 75
4, 94366, Note_off_c, 1, 63, 64
4, 94368, Note_on_c, 1, 65, 75
4, 94462, Note_off_c, 1, 65, 64
4, 94464, Note_on_c, 1, 63, 75
4, 94558, Note_off_c, 1, 63, 64
4, 94560, Note_on_c, 1, 62, 75
4, 94654, Note_off_c, 1, 62, 64
4, 94656, Note_on_c, 1, 60, 75
4, 94750, Note_off_c, 1, 60, 64
4, 94752, Note_on_c, 1, 59, 75
4, 94846, Note_off_c, 1, 59, 64
4, 94848, Note_on_c, 1, 60, 75
4, 95008, Note_off_c, 1, 60, 64
4, 95040, Note_on_c, 1, 68, 75
4, 95326, Note_off_c, 1, 68, 64
4, 95328, Note_on_c, 1, 67, 75
4, 95488, Note_off_c, 1, 67, 64
4, 95520, Note_on_c, 1, 65, 75
4, 95680, Note_off_c, 1, 65, 64
4, 95712, Note_on_c, 1, 63, 75
4, 95872, Note_off_c, 1, 63, 64
4, 95904, Note_on_c, 1, 62, 75
4, 95998, Note_off_c, 1, 62, 64
4, 96000, Note_on_c, 1, 63, 75
4, 96160, Note_off_c, 1, 63, 64
4, 96192, Note_on_c, 1, 65, 75
4, 96352, Note_off_c, 1, 65, 64
4, 96384, Note_on_c, 1, 67, 75
4, 96478, Note_off_c, 1, 67, 64
4, 96480, Note_on_c, 1, 63, 75
4, 96574, Note_off_c, 1, 63, 64
4, 96576, Note_on_c, 1, 60, 75
4, 96670, Note_off_c, 1, 60, 64
4, 96672, Note_on_c, 1, 63, 75
4, 96766, Note_off_c, 1, 63, 64
4, 96768, Note_on_c, 1, 56, 75
4, 96768, Note_on_c, 1, 56, 75
4, 96928, Note_off_c, 1, 56, 64
4, 96960, Note_on_c, 1, 60, 75
4, 97120, Note_off_c, 1, 60, 64
4, 97152, Note_on_c, 1, 65, 75
4, 97630, Note_off_c, 1, 56, 64
4, 97632, Note_on_c, 1, 55, 75
4, 97726, Note_off_c, 1, 55, 64
4, 97728, Note_on_c, 1, 57, 75
4, 97822, Note_off_c, 1, 57, 64
4, 97824, Note_on_c, 1, 59, 75
4, 97872, Note_off_c, 1, 65, 64
4, 97918, Note_off_c, 1, 59, 64
4, 97920, Note_on_c, 1, 60, 75
4, 97920, Note_on_c, 1, 60, 75
4, 98014, Note_off_c, 1, 60, 64
4, 98016, Note_on_c, 1, 62, 75
4, 98110, Note_off_c, 1, 62, 64
4, 98112, Note_on_c, 1, 63, 75
4, 98176, Note_off_c, 1, 60, 64
4, 98208, Note_on_c, 1, 59, 75
4, 98302, Note_off_c, 1, 59, 64
4, 98304, Note_on_c, 1, 60, 75
4, 98464, Note_off_c, 1, 63, 64
4, 98496, Note_on_c, 1, 64, 75
4, 98656, Note_off_c, 1, 64, 64
4, 98688, Note_on_c, 1, 65, 75
4, 98848, Note_off_c, 1, 65, 64
4, 98880, Note_on_c, 1, 66, 75
4, 99024, Note_off_c, 1, 60, 64
4, 99040, Note_off_c, 1, 66, 64
4, 99072, Note_on_c, 1, 62, 75
4, 99072, Note_on_c, 1, 67, 75
4, 99166, Note_off_c, 1, 67, 64
4, 99232, Note_off_c, 1, 62, 64
4, 99456, Note_on_c, 1, 55, 75
4, 99792, Note_off_c, 1, 55, 64
4, 99840, Note_on_c, 1, 56, 75
4, 100176, Note_off_c, 1, 56, 64
4, 100224, Note_on_c, 1, 57, 75
4, 100560, Note_off_c, 1, 57, 64
4, 100608, Note_on_c, 1, 58, 75
4, 100944, Note_off_c, 1, 58, 64
4, 100992, Note_on_c, 1, 59, 75
4, 101328, Note_off_c, 1, 59, 64
4, 101376, Note_on_c, 1, 60, 75
4, 101376, Note_on_c, 1, 63, 75
4, 101712, Note_off_c, 1, 63, 64
4, 101712, Note_off_c, 1, 60, 64
4, 101760, Note_on_c, 1, 64, 75
4, 102096, Note_off_c, 1, 64, 64
4, 102144, Note_on_c, 1, 65, 75
4, 102480, Note_off_c, 1, 65, 64
4, 103008, Note_on_c, 1, 63, 75
4, 103102, Note_off_c, 1, 63, 64
4, 103104, Note_on_c, 1, 62, 75
4, 103198, Note_off_c, 1, 62, 64
4, 103200, Note_on_c, 1, 60, 75
4, 103294, Note_off_c, 1, 60, 64
4, 103296, Note_on_c, 1, 58, 75
4, 103390, Note_off_c, 1, 58, 64
4, 103392, Note_on_c, 1, 57, 75
4, 103486, Note_off_c, 1, 57, 64
4, 103488, Note_on_c, 1, 55, 75
4, 103582, Note_off_c, 1, 55, 64
4, 103584, Note_on_c, 1, 54, 75
4, 103678, Note_off_c, 1, 54, 64
4, 103680, Note_on_c, 1, 55, 75
4, 103774, Note_off_c, 1, 55, 64
4, 103776, Note_on_c, 1, 59, 75
4, 103870, Note_off_c, 1, 59, 64
4, 103872, Note_on_c, 1, 60, 75
4, 103966, Note_off_c, 1, 60, 64
4, 103968, Note_on_c, 1, 62, 75
4, 104062, Note_off_c, 1, 62, 64
4, 104064, Note_on_c, 1, 60, 75
4, 104158, Note_off_c, 1, 60, 64
4, 104160, Note_on_c, 1, 58, 75
4, 104254, Note_off_c, 1, 58, 64
4, 104256, Note_on_c, 1, 57, 75
4, 104350, Note_off_c, 1, 57, 64
4, 104352, Note_on_c, 1, 55, 75
4, 104446, Note_off_c, 1, 55, 64
4, 104448, Note_on_c, 1, 57, 75
4, 104542, Note_off_c, 1, 57, 64
4, 104544, Note_on_c, 1, 61, 75
4, 104638, Note_off_c, 1, 61, 64
4, 104640, Note_on_c, 1, 62, 75
4, 104734, Note_off_c, 1, 62, 64
4, 104736, Note_on_c, 1, 63, 75
4, 104830, Note_off_c, 1, 63, 64
4, 104832, Note_on_c, 1, 62, 75
4, 104926, Note_off_c, 1, 62, 64
4, 104928, Note_on_c, 1, 60, 75
4, 105022, Note_off_c, 1, 60, 64
4, 105024, Note_on_c, 1, 58, 75
4, 105118, Note_off_c, 1, 58, 64
4, 105120, Note_on_c, 1, 57, 75
4, 105214, Note_off_c, 1, 57, 64
4, 105216, Note_on_c, 1, 58, 75
4, 105552, Note_off_c, 1, 58, 64
4, 105600, Note_on_c, 1, 59, 75
4, 105936, Note_off_c, 1, 59, 64
4, 105984, Note_on_c, 1, 60, 75
4, 106846, Note_off_c, 1, 60, 64
4, 106848, Note_on_c, 1, 57, 75
4, 106942, Note_off_c, 1, 57, 64
4, 106944, Note_on_c, 1, 58, 75
4, 107038, Note_off_c, 1, 58, 64
4, 107040, Note_on_c, 1, 60, 75
4, 107134, Note_off_c, 1, 60, 64
4, 107136, Note_on_c, 1, 58, 75
4, 107230, Note_off_c, 1, 58, 64
4, 107232, Note_on_c, 1, 56, 75
4, 107326, Note_off_c, 1, 56, 64
4, 107328, Note_on_c, 1, 55, 75
4, 107422, Note_off_c, 1, 55, 64
4, 107424, Note_on_c, 1, 53, 75
4, 107518, Note_off_c, 1, 53, 64
4, 107520, Note_on_c, 1, 55, 75
4, 107856, Note_off_c, 1, 55, 64
4, 108000, Note_on_c, 1, 70, 75
4, 108094, Note_off_c, 1, 70, 64
4, 108096, Note_on_c, 1, 68, 75
4, 108190, Note_off_c, 1, 68, 64
4, 108192, Note_on_c, 1, 67, 75
4, 108286, Note_off_c, 1, 67, 64
4, 108288, Note_on_c, 1, 68, 75
4, 108624, Note_off_c, 1, 68, 64
4, 108672, Note_on_c, 1, 69, 75
4, 109008, Note_off_c, 1, 69, 64
4, 109152, Note_on_c, 1, 65, 75
4, 109246, Note_off_c, 1, 65, 64
4, 109248, Note_on_c, 1, 67, 75
4, 109342, Note_off_c, 1, 67, 64
4, 109344, Note_on_c, 1, 68, 75
4, 109438, Note_off_c, 1, 68, 64
4, 109440, Note_on_c, 1, 67, 75
4, 109534, Note_off_c, 1, 67, 64
4, 109536, Note_on_c, 1, 65, 75
4, 109630, Note_off_c, 1, 65, 64
4, 109632, Note_on_c, 1, 64, 75
4, 109726, Note_off_c, 1, 64, 64
4, 109728, Note_on_c, 1, 62, 75
4, 109822, Note_off_c, 1, 62, 64
4, 109824, Note_on_c, 1, 60, 75
4, 109918, Note_off_c, 1, 60, 64
4, 109920, Note_on_c, 1, 64, 75
4, 110014, Note_off_c, 1, 64, 64
4, 110016, Note_on_c, 1, 65, 75
4, 110110, Note_off_c, 1, 65, 64
4, 110112, Note_on_c, 1, 67, 75
4, 110206, Note_off_c, 1, 67, 64
4, 110208, Note_on_c, 1, 65, 75
4, 110302, Note_off_c, 1, 65, 64
4, 110304, Note_on_c, 1, 63, 75
4, 110398, Note_off_c, 1, 63, 64
4, 110400, Note_on_c, 1, 62, 75
4, 110494, Note_off_c, 1, 62, 64
4, 110496, Note_on_c, 1, 60, 75
4, 110590, Note_off_c, 1, 60, 64
4, 110592, Note_on_c, 1, 58, 75
4, 111312, Note_off_c, 1, 58, 64
4, 111360, Note_on_c, 1, 51, 75
4, 111520, Note_off_c, 1, 51, 64
4, 111552, Note_on_c, 1, 56, 75
4, 111712, Note_off_c, 1, 56, 64
4, 111744, Note_on_c, 1, 58, 75
4, 111904, Note_off_c, 1, 58, 64
4, 111936, Note_on_c, 1, 53, 75
4, 112096, Note_off_c, 1, 53, 64
4, 112128, Note_on_c, 1, 55, 75
4, 112128, Note_on_c, 1, 58, 75
4, 112464, Note_off_c, 1, 58, 64
4, 112512, Note_on_c, 1, 59, 75
4, 112848, Note_off_c, 1, 59, 64
4, 112896, Note_on_c, 1, 60, 75
4, 113232, Note_off_c, 1, 60, 64
4, 113280, Note_on_c, 1, 61, 75
4, 113280, Note_on_c, 1, 61, 75
4, 113424, Note_off_c, 1, 55, 64
4, 113440, Note_off_c, 1, 61, 64
4, 113472, Note_on_c, 1, 57, 75
4, 113616, Note_off_c, 1, 61, 64
4, 113632, Note_off_c, 1, 57, 64
4, 113664, Note_on_c, 1, 58, 75
4, 113664, Note_on_c, 1, 62, 75
4, 113824, Note_off_c, 1, 62, 64
4, 113824, Note_off_c, 1, 58, 64
4, 113856, Note_on_c, 1, 55, 75
4, 114016, Note_off_c, 1, 55, 64
4, 114048, Note_on_c, 1, 64, 75
4, 114384, Note_off_c, 1, 64, 64
4, 114432, Note_on_c, 1, 62, 75
4, 115072, Note_off_c, 1, 62, 64
4, 115104, Note_on_c, 1, 60, 75
4, 115294, Note_off_c, 1, 60, 64
4, 115296, Note_on_c, 1, 60, 75
4, 115390, Note_off_c, 1, 60, 64
4, 115392, Note_on_c, 1, 59, 75
4, 115486, Note_off_c, 1, 59, 64
4, 115488, Note_on_c, 1, 57, 75
4, 115582, Note_off_c, 1, 57, 64
4, 115584, Note_on_c, 1, 55, 75
4, 115678, Note_off_c, 1, 55, 64
4, 115680, Note_on_c, 1, 53, 75
4, 115774, Note_off_c, 1, 53, 64
4, 115776, Note_on_c, 1, 51, 75
4, 115870, Note_off_c, 1, 51, 64
4, 115872, Note_on_c, 1, 50, 75
4, 115966, Note_off_c, 1, 50, 64
4, 115968, Note_on_c, 1, 48, 75
4, 116062, Note_off_c, 1, 48, 64
4, 116064, Note_on_c, 1, 59, 75
4, 116158, Note_off_c, 1, 59, 64
4, 116160, Note_on_c, 1, 60, 75
4, 116254, Note_off_c, 1, 60, 64
4, 116256, Note_on_c, 1, 61, 75
4, 116350, Note_off_c, 1, 61, 64
4, 116352, Note_on_c, 1, 60, 75
4, 116446, Note_off_c, 1, 60, 64
4, 116448, Note_on_c, 1, 58, 75
4, 116542, Note_off_c, 1, 58, 64
4, 116544, Note_on_c, 1, 56, 75
4, 116638, Note_off_c, 1, 56, 64
4, 116640, Note_on_c, 1, 55, 75
4, 116734, Note_off_c, 1, 55, 64
4, 116736, Note_on_c, 1, 53, 75
4, 116830, Note_off_c, 1, 53, 64
4, 116832, Note_on_c, 1, 52, 75
4, 116926, Note_off_c, 1, 52, 64
4, 116928, Note_on_c, 1, 53, 75
4, 117022, Note_off_c, 1, 53, 64
4, 117024, Note_on_c, 1, 54, 75
4, 117118, Note_off_c, 1, 54, 64
4, 117120, Note_on_c, 1, 53, 75
4, 117214, Note_off_c, 1, 53, 64
4, 117216, Note_on_c, 1, 51, 75
4, 117310, Note_off_c, 1, 51, 64
4, 117312, Note_on_c, 1, 49, 75
4, 117406, Note_off_c, 1, 49, 64
4, 117408, Note_on_c, 1, 48, 75
4, 117502, Note_off_c, 1, 48, 64
4, 117504, Note_on_c, 1, 49, 75
4, 117598, Note_off_c, 1, 49, 64
4, 117600, Note_on_c, 1, 48, 75
4, 117694, Note_off_c, 1, 48, 64
4, 117696, Note_on_c, 1, 49, 75
4, 117790, Note_off_c, 1, 49, 64
4, 117792, Note_on_c, 1, 51, 75
4, 117886, Note_off_c, 1, 51, 64
4, 117888, Note_on_c, 1, 49, 75
4, 117982, Note_off_c, 1, 49, 64
4, 117984, Note_on_c, 1, 48, 75
4, 118078, Note_off_c, 1, 48, 64
4, 118080, Note_on_c, 1, 46, 75
4, 118174, Note_off_c, 1, 46, 64
4, 118176, Note_on_c, 1, 45, 75
4, 118270, Note_off_c, 1, 45, 64
4, 118272, Note_on_c, 1, 46, 75
4, 118366, Note_off_c, 1, 46, 64
4, 118368, Note_on_c, 1, 48, 75
4, 118462, Note_off_c, 1, 48, 64
4, 118464, Note_on_c, 1, 49, 75
4, 118558, Note_off_c, 1, 49, 64
4, 118560, Note_on_c, 1, 51, 75
4, 118654, Note_off_c, 1, 51, 64
4, 118656, Note_on_c, 1, 53, 75
4, 118750, Note_off_c, 1, 53, 64
4, 118752, Note_on_c, 1, 54, 75
4, 118846, Note_off_c, 1, 54, 64
4, 118848, Note_on_c, 1, 56, 75
4, 118942, Note_off_c, 1, 56, 64
4, 118944, Note_on_c, 1, 58, 75
4, 119038, Note_off_c, 1, 58, 64
4, 119040, Note_on_c, 1, 51, 75
4, 119134, Note_off_c, 1, 51, 64
4, 119136, Note_on_c, 1, 50, 75
4, 119230, Note_off_c, 1, 50, 64
4, 119232, Note_on_c, 1, 51, 75
4, 119326, Note_off_c, 1, 51, 64
4, 119328, Note_on_c, 1, 53, 75
4, 119422, Note_off_c, 1, 53, 64
4, 119424, Note_on_c, 1, 51, 75
4, 119518, Note_off_c, 1, 51, 64
4, 119520, Note_on_c, 1, 49, 75
4, 119614, Note_off_c, 1, 49, 64
4, 119616, Note_on_c, 1, 48, 75
4, 119710, Note_off_c, 1, 48, 64
4, 119712, Note_on_c, 1, 46, 75
4, 119806, Note_off_c, 1, 46, 64
4, 119808, Note_on_c, 1, 48, 75
4, 119902, Note_off_c, 1, 48, 64
4, 119904, Note_on_c, 1, 46, 75
4, 119998, Note_off_c, 1, 46, 64
4, 120000, Note_on_c, 1, 48, 75
4, 120094, Note_off_c, 1, 48, 64
4, 120096, Note_on_c, 1, 49, 75
4, 120190, Note_off_c, 1, 49, 64
4, 120192, Note_on_c, 1, 48, 75
4, 120286, Note_off_c, 1, 48, 64
4, 120288, Note_on_c, 1, 46, 75
4, 120382, Note_off_c, 1, 46, 64
4, 120384, Note_on_c, 1, 44, 75
4, 120478, Note_off_c, 1, 44, 64
4, 120480, Note_on_c, 1, 43, 75
4, 120574, Note_off_c, 1, 43, 64
4, 120576, Note_on_c, 1, 44, 75
4, 120670, Note_off_c, 1, 44, 64
4, 120672, Note_on_c, 1, 46, 75
4, 120766, Note_off_c, 1, 46, 64
4, 120768, Note_on_c, 1, 48, 75
4, 120862, Note_off_c, 1, 48, 64
4, 120864, Note_on_c, 1, 49, 75
4, 120958, Note_off_c, 1, 49, 64
4, 120960, Note_on_c, 1, 51, 75
4, 121054, Note_off_c, 1, 51, 64
4, 121056, Note_on_c, 1, 53, 75
4, 121150, Note_off_c, 1, 53, 64
4, 121152, Note_on_c, 1, 55, 75
4, 121246, Note_off_c, 1, 55, 64
4, 121248, Note_on_c, 1, 56, 75
4, 121342, Note_off_c, 1, 56, 64
4, 121344, Note_on_c, 1, 50, 75
4, 121438, Note_off_c, 1, 50, 64
4, 121440, Note_on_c, 1, 48, 75
4, 121534, Note_off_c, 1, 48, 64
4, 121536, Note_on_c, 1, 50, 75
4, 121630, Note_off_c, 1, 50, 64
4, 121632, Note_on_c, 1, 51, 75
4, 121726, Note_off_c, 1, 51, 64
4, 121728, Note_on_c, 1, 50, 75
4, 121822, Note_off_c, 1, 50, 64
4, 121824, Note_on_c, 1, 48, 75
4, 121918, Note_off_c, 1, 48, 64
4, 121920, Note_on_c, 1, 47, 75
4, 122014, Note_off_c, 1, 47, 64
4, 122016, Note_on_c, 1, 45, 75
4, 122110, Note_off_c, 1, 45, 64
4, 122112, Note_on_c, 1, 43, 75
4, 122206, Note_off_c, 1, 43, 64
4, 122208, Note_on_c, 1, 45, 75
4, 122302, Note_off_c, 1, 45, 64
4, 122304, Note_on_c, 1, 47, 75
4, 122398, Note_off_c, 1, 47, 64
4, 122400, Note_on_c, 1, 48, 75
4, 122494, Note_off_c, 1, 48, 64
4, 122496, Note_on_c, 1, 50, 75
4, 122590, Note_off_c, 1, 50, 64
4, 122592, Note_on_c, 1, 51, 75
4, 122686, Note_off_c, 1, 51, 64
4, 122688, Note_on_c, 1, 53, 75
4, 122782, Note_off_c, 1, 53, 64
4, 122784, Note_on_c, 1, 55, 75
4, 122878, Note_off_c, 1, 55, 64
4, 122880, Note_on_c, 1, 51, 75
4, 122974, Note_off_c, 1, 51, 64
4, 122976, Note_on_c, 1, 55, 75
4, 123070, Note_off_c, 1, 55, 64
4, 123072, Note_on_c, 1, 56, 75
4, 123166, Note_off_c, 1, 56, 64
4, 123168, Note_on_c, 1, 58, 75
4, 123262, Note_off_c, 1, 58, 64
4, 123264, Note_on_c, 1, 60, 75
4, 123264, Note_on_c, 1, 60, 75
4, 123358, Note_off_c, 1, 60, 64
4, 123360, Note_on_c, 1, 67, 75
4, 123454, Note_off_c, 1, 67, 64
4, 123456, Note_on_c, 1, 65, 75
4, 123550, Note_off_c, 1, 65, 64
4, 123552, Note_on_c, 1, 63, 75
4, 123600, Note_off_c, 1, 60, 64
4, 123646, Note_off_c, 1, 63, 64
4, 123648, Note_on_c, 1, 60, 75
4, 123648, Note_on_c, 1, 62, 75
4, 123742, Note_off_c, 1, 60, 64
4, 123744, Note_on_c, 1, 57, 75
4, 123838, Note_off_c, 1, 57, 64
4, 123840, Note_on_c, 1, 58, 75
4, 123934, Note_off_c, 1, 58, 64
4, 123936, Note_on_c, 1, 60, 75
4, 123984, Note_off_c, 1, 62, 64
4, 124030, Note_off_c, 1, 60, 64
4, 124032, Note_on_c, 1, 62, 75
4, 124032, Note_on_c, 1, 62, 75
4, 124126, Note_off_c, 1, 62, 64
4, 124128, Note_on_c, 1, 68, 75
4, 124222, Note_off_c, 1, 68, 64
4, 124224, Note_on_c, 1, 67, 75
4, 124318, Note_off_c, 1, 67, 64
4, 124320, Note_on_c, 1, 65, 75
4, 124368, Note_off_c, 1, 62, 64
4, 124414, Note_off_c, 1, 65, 64
4, 124416, Note_on_c, 1, 63, 75
4, 124752, Note_off_c, 1, 63, 64
4, 124800, Note_on_c, 1, 64, 75
4, 125136, Note_off_c, 1, 64, 64
4, 125184, Note_on_c, 1, 65, 75
4, 125520, Note_off_c, 1, 65, 64
4, 125568, Note_on_c, 1, 66, 75
4, 125904, Note_off_c, 1, 66, 64
4, 125952, Note_on_c, 1, 67, 75
4, 126046, Note_off_c, 1, 67, 64
4, 126048, Note_on_c, 1, 65, 75
4, 126142, Note_off_c, 1, 65, 64
4, 126144, Note_on_c, 1, 67, 75
4, 126238, Note_off_c, 1, 67, 64
4, 126240, Note_on_c, 1, 68, 75
4, 126334, Note_off_c, 1, 68, 64
4, 126336, Note_on_c, 1, 67, 75
4, 126336, Note_on_c, 1, 67, 75
4, 126430, Note_off_c, 1, 67, 64
4, 126432, Note_on_c, 1, 65, 75
4, 126526, Note_off_c, 1, 65, 64
4, 126528, Note_on_c, 1, 63, 75
4, 126622, Note_off_c, 1, 63, 64
4, 126624, Note_on_c, 1, 62, 75
4, 126672, Note_off_c, 1, 67, 64
4, 126718, Note_off_c, 1, 62, 64
4, 126720, Note_on_c, 1, 60, 75
4, 126720, Note_on_c, 1, 68, 75
4, 127056, Note_off_c, 1, 68, 64
4, 127198, Note_off_c, 1, 60, 64
4, 127200, Note_on_c, 1, 60, 75
4, 127294, Note_off_c, 1, 60, 64
4, 127296, Note_on_c, 1, 58, 75
4, 127390, Note_off_c, 1, 58, 64
4, 127392, Note_on_c, 1, 57, 75
4, 127486, Note_off_c, 1, 57, 64
4, 127488, Note_on_c, 1, 55, 75
4, 127582, Note_off_c, 1, 55, 64
4, 127584, Note_on_c, 1, 54, 75
4, 127678, Note_off_c, 1, 54, 64
4, 127680, Note_on_c, 1, 55, 75
4, 127774, Note_off_c, 1, 55, 64
4, 127776, Note_on_c, 1, 56, 75
4, 127870, Note_off_c, 1, 56, 64
4, 127872, Note_on_c, 1, 55, 75
4, 127966, Note_off_c, 1, 55, 64
4, 127968, Note_on_c, 1, 53, 75
4, 128062, Note_off_c, 1, 53, 64
4, 128064, Note_on_c, 1, 51, 75
4, 128158, Note_off_c, 1, 51, 64
4, 128160, Note_on_c, 1, 50, 75
4, 128254, Note_off_c, 1, 50, 64
4, 128256, Note_on_c, 1, 48, 75
4, 128416, Note_off_c, 1, 48, 64
4, 128448, Note_on_c, 1, 55, 75
4, 128608, Note_off_c, 1, 55, 64
4, 128640, Note_on_c, 1, 60, 75
4, 128800, Note_off_c, 1, 60, 64
4, 128832, Note_on_c, 1, 48, 75
4, 128992, Note_off_c, 1, 48, 64
4, 129024, Note_on_c, 1, 53, 75
4, 129118, Note_off_c, 1, 53, 64
4, 129120, Note_on_c, 1, 56, 75
4, 129214, Note_off_c, 1, 56, 64
4, 129216, Note_on_c, 1, 60, 75
4, 129310, Note_off_c, 1, 60, 64
4, 129312, Note_on_c, 1, 63, 75
4, 129406, Note_off_c, 1, 63, 64
4, 129408, Note_on_c, 1, 62, 75
4, 129502, Note_off_c, 1, 62, 64
4, 129504, Note_on_c, 1, 60, 75
4, 129598, Note_off_c, 1, 60, 64
4, 129600, Note_on_c, 1, 58, 75
4, 129694, Note_off_c, 1, 58, 64
4, 129696, Note_on_c, 1, 57, 75
4, 129790, Note_off_c, 1, 57, 64
4, 129792, Note_on_c, 1, 55, 75
4, 129886, Note_off_c, 1, 55, 64
4, 129888, Note_on_c, 1, 62, 75
4, 129982, Note_off_c, 1, 62, 64
4, 129984, Note_on_c, 1, 63, 75
4, 130078, Note_off_c, 1, 63, 64
4, 130080, Note_on_c, 1, 65, 75
4, 130174, Note_off_c, 1, 65, 64
4, 130176, Note_on_c, 1, 63, 75
4, 130270, Note_off_c, 1, 63, 64
4, 130272, Note_on_c, 1, 62, 75
4, 130366, Note_off_c, 1, 62, 64
4, 130368, Note_on_c, 1, 67, 75
4, 130462, Note_off_c, 1, 67, 64
4, 130464, Note_on_c, 1, 65, 75
4, 130558, Note_off_c, 1, 65, 64
4, 130560, Note_on_c, 1, 63, 75
4, 131038, Note_off_c, 1, 63, 64
4, 131040, Note_on_c, 1, 63, 75
4, 131134, Note_off_c, 1, 63, 64
4, 131136, Note_on_c, 1, 62, 75
4, 131230, Note_off_c, 1, 62, 64
4, 131232, Note_on_c, 1, 60, 75
4, 131326, Note_off_c, 1, 60, 64
4, 131328, Note_on_c, 1, 58, 75
4, 131488, Note_off_c, 1, 58, 64
4, 131520, Note_on_c, 1, 65, 75
4, 131806, Note_off_c, 1, 65, 64
4, 131808, Note_on_c, 1, 65, 75
4, 131902, Note_off_c, 1, 65, 64
4, 131904, Note_on_c, 1, 63, 75
4, 131998, Note_off_c, 1, 63, 64
4, 132000, Note_on_c, 1, 62, 75
4, 132094, Note_off_c, 1, 62, 64
4, 132096, Note_on_c, 1, 60, 75
4, 132190, Note_off_c, 1, 60, 64
4, 132192, Note_on_c, 1, 63, 75
4, 132286, Note_off_c, 1, 63, 64
4, 132288, Note_on_c, 1, 62, 75
4, 132382, Note_off_c, 1, 62, 64
4, 132384, Note_on_c, 1, 65, 75
4, 132478, Note_off_c, 1, 65, 64
4, 132480, Note_on_c, 1, 63, 75
4, 132574, Note_off_c, 1, 63, 64
4, 132576, Note_on_c, 1, 67, 75
4, 132670, Note_off_c, 1, 67, 64
4, 132672, Note_on_c, 1, 59, 75
4, 132766, Note_off_c, 1, 59, 64
4, 132768, Note_on_c, 1, 62, 75
4, 132862, Note_off_c, 1, 62, 64
4, 132864, Note_on_c, 1, 60, 75
4, 132910, Note_off_c, 1, 60, 64
4, 132912, Note_on_c, 1, 58, 75
4, 132958, Note_off_c, 1, 58, 64
4, 132960, Note_on_c, 1, 60, 75
4, 133006, Note_off_c, 1, 60, 64
4, 133008, Note_on_c, 1, 58, 75
4, 133054, Note_off_c, 1, 58, 64
4, 133056, Note_on_c, 1, 60, 75
4, 133102, Note_off_c, 1, 60, 64
4, 133104, Note_on_c, 1, 58, 75
4, 133150, Note_off_c, 1, 58, 64
4, 133152, Note_on_c, 1, 60, 75
4, 133198, Note_off_c, 1, 60, 64
4, 133200, Note_on_c, 1, 58, 75
4, 133246, Note_off_c, 1, 58, 64
4, 133248, Note_on_c, 1, 60, 75
4, 133294, Note_off_c, 1, 60, 64
4, 133296, Note_on_c, 1, 58, 75
4, 133342, Note_off_c, 1, 58, 64
4, 133344, Note_on_c, 1, 60, 75
4, 133390, Note_off_c, 1, 60, 64
4, 133392, Note_on_c, 1, 58, 75
4, 133438, Note_off_c, 1, 58, 64
4, 133440, Note_on_c, 1, 60, 75
4, 133486, Note_off_c, 1, 60, 64
4, 133488, Note_on_c, 1, 58, 75
4, 133534, Note_off_c, 1, 58, 64
4, 133536, Note_on_c, 1, 60, 75
4, 133582, Note_off_c, 1, 60, 64
4, 133584, Note_on_c, 1, 58, 75
4, 133630, Note_off_c, 1, 58, 64
4, 133632, Note_on_c, 1, 60, 75
4, 133678, Note_off_c, 1, 60, 64
4, 133680, Note_on_c, 1, 58, 75
4, 133726, Note_off_c, 1, 58, 64
4, 133728, Note_on_c, 1, 60, 75
4, 133774, Note_off_c, 1, 60, 64
4, 133776, Note_on_c, 1, 58, 75
4, 133822, Note_off_c, 1, 58, 64
4, 133824, Note_on_c, 1, 60, 75
4, 133870, Note_off_c, 1, 60, 64
4, 133872, Note_on_c, 1, 58, 75
4, 133918, Note_off_c, 1, 58, 64
4, 133920, Note_on_c, 1, 60, 75
4, 133966, Note_off_c, 1, 60, 64
4, 133968, Note_on_c, 1, 58, 75
4, 134014, Note_off_c, 1, 58, 64
4, 134016, Note_on_c, 1, 60, 75
4, 134062, Note_off_c, 1, 60, 64
4, 134064, Note_on_c, 1, 58, 75
4, 134110, Note_off_c, 1, 58, 64
4, 134112, Note_on_c, 1, 60, 75
4, 134158, Note_off_c, 1, 60, 64
4, 134160, Note_on_c, 1, 58, 75
4, 134206, Note_off_c, 1, 58, 64
4, 134208, Note_on_c, 1, 60, 75
4, 134254, Note_off_c, 1, 60, 64
4, 134256, Note_on_c, 1, 58, 75
4, 134302, Note_off_c, 1, 58, 64
4, 134304, Note_on_c, 1, 60, 75
4, 134350, Note_off_c, 1, 60, 64
4, 134352, Note_on_c, 1, 58, 75
4, 134398, Note_off_c, 1, 58, 64
4, 134400, Note_on_c, 1, 60, 75
4, 134446, Note_off_c, 1, 60, 64
4, 134448, Note_on_c, 1, 58, 75
4, 134494, Note_off_c, 1, 58, 64
4, 134496, Note_on_c, 1, 60, 75
4, 134542, Note_off_c, 1, 60, 64
4, 134544, Note_on_c, 1, 58, 75
4, 134590, Note_off_c, 1, 58, 64
4, 134592, Note_on_c, 1, 60, 75
4, 134638, Note_off_c, 1, 60, 64
4, 134640, Note_on_c, 1, 58, 75
4, 134686, Note_off_c, 1, 58, 64
4, 134688, Note_on_c, 1, 60, 75
4, 134734, Note_off_c, 1, 60, 64
4, 134736, Note_on_c, 1, 58, 75
4, 134782, Note_off_c, 1, 58, 64
4, 134784, Note_on_c, 1, 60, 75
4, 134830, Note_off_c, 1, 60, 64
4, 134832, Note_on_c, 1, 58, 75
4, 134878, Note_off_c, 1, 58, 64
4, 134880, Note_on_c, 1, 60, 75
4, 134926, Note_off_c, 1, 60, 64
4, 134928, Note_on_c, 1, 58, 75
4, 134974, Note_off_c, 1, 58, 64
4, 134976, Note_on_c, 1, 60, 75
4, 135022, Note_off_c, 1, 60, 64
4, 135024, Note_on_c, 1, 58, 75
4, 135070, Note_off_c, 1, 58, 64
4, 135072, Note_on_c, 1, 60, 75
4, 135118, Note_off_c, 1, 60, 64
4, 135120, Note_on_c, 1, 58, 75
4, 135166, Note_off_c, 1, 58, 64
4, 135168, Note_on_c, 1, 62, 75
4, 135504, Note_off_c, 1, 62, 64
4, 135744, Note_on_c, 1, 65, 75
4, 135838, Note_off_c, 1, 65, 64
4, 135840, Note_on_c, 1, 67, 75
4, 135934, Note_off_c, 1, 67, 64
4, 135936, Note_on_c, 1, 63, 75
4, 136030, Note_off_c, 1, 63, 64
4, 136032, Note_on_c, 1, 60, 75
4, 136126, Note_off_c, 1, 60, 64
4, 136128, Note_on_c, 1, 62, 75
4, 136222, Note_off_c, 1, 62, 64
4, 136224, Note_on_c, 1, 63, 75
4, 136318, Note_off_c, 1, 63, 64
4, 136320, Note_on_c, 1, 65, 75
4, 136414, Note_off_c, 1, 65, 64
4, 136416, Note_on_c, 1, 67, 75
4, 136510, Note_off_c, 1, 67, 64
4, 136512, Note_on_c, 1, 69, 75
4, 136606, Note_off_c, 1, 69, 64
4, 136608, Note_on_c, 1, 71, 75
4, 136702, Note_off_c, 1, 71, 64
4, 136704, Note_on_c, 1, 72, 75
4, 136798, Note_off_c, 1, 72, 64
4, 136800, Note_on_c, 1, 67, 75
4, 136894, Note_off_c, 1, 67, 64
4, 136896, Note_on_c, 1, 63, 75
4, 136990, Note_off_c, 1, 63, 64
4, 136992, Note_on_c, 1, 67, 75
4, 137086, Note_off_c, 1, 67, 64
4, 137088, Note_on_c, 1, 60, 75
4, 137566, Note_off_c, 1, 60, 64
4, 137568, Note_on_c, 1, 58, 75
4, 137662, Note_off_c, 1, 58, 64
4, 137664, Note_on_c, 1, 57, 75
4, 137758, Note_off_c, 1, 57, 64
4, 137760, Note_on_c, 1, 60, 75
4, 137854, Note_off_c, 1, 60, 64
4, 137856, Note_on_c, 1, 58, 75
4, 137950, Note_off_c, 1, 58, 64
4, 137952, Note_on_c, 1, 57, 75
4, 138046, Note_off_c, 1, 57, 64
4, 138048, Note_on_c, 1, 55, 75
4, 138142, Note_off_c, 1, 55, 64
4, 138144, Note_on_c, 1, 54, 75
4, 138238, Note_off_c, 1, 54, 64
4, 138240, Note_on_c, 1, 55, 75
4, 138334, Note_off_c, 1, 55, 64
4, 138336, Note_on_c, 1, 58, 75
4, 138430, Note_off_c, 1, 58, 64
4, 138432, Note_on_c, 1, 60, 75
4, 138526, Note_off_c, 1, 60, 64
4, 138528, Note_on_c, 1, 62, 75
4, 138622, Note_off_c, 1, 62, 64
4, 138624, Note_on_c, 1, 63, 75
4, 139102, Note_off_c, 1, 63, 64
4, 139104, Note_on_c, 1, 62, 75
4, 139198, Note_off_c, 1, 62, 64
4, 139200, Note_on_c, 1, 60, 75
4, 139294, Note_off_c, 1, 60, 64
4, 139296, Note_on_c, 1, 63, 75
4, 139390, Note_off_c, 1, 63, 64
4, 139392, Note_on_c, 1, 62, 75
4, 139486, Note_off_c, 1, 62, 64
4, 139488, Note_on_c, 1, 60, 75
4, 139582, Note_off_c, 1, 60, 64
4, 139584, Note_on_c, 1, 59, 75
4, 139678, Note_off_c, 1, 59, 64
4, 139680, Note_on_c, 1, 57, 75
4, 139774, Note_off_c, 1, 57, 64
4, 139776, Note_on_c, 1, 59, 75
4, 139870, Note_off_c, 1, 59, 64
4, 139872, Note_on_c, 1, 55, 75
4, 139966, Note_off_c, 1, 55, 64
4, 139968, Note_on_c, 1, 57, 75
4, 140062, Note_off_c, 1, 57, 64
4, 140064, Note_on_c, 1, 59, 75
4, 140158, Note_off_c, 1, 59, 64
4, 140160, Note_on_c, 1, 60, 75
4, 140254, Note_off_c, 1, 60, 64
4, 140256, Note_on_c, 1, 62, 75
4, 140350, Note_off_c, 1, 62, 64
4, 140352, Note_on_c, 1, 63, 75
4, 140446, Note_off_c, 1, 63, 64
4, 140448, Note_on_c, 1, 65, 75
4, 140542, Note_off_c, 1, 65, 64
4, 140544, Note_on_c, 1, 63, 75
4, 140638, Note_off_c, 1, 63, 64
4, 140640, Note_on_c, 1, 60, 75
4, 140734, Note_off_c, 1, 60, 64
4, 140736, Note_on_c, 1, 62, 75
4, 140830, Note_off_c, 1, 62, 64
4, 140832, Note_on_c, 1, 63, 75
4, 140926, Note_off_c, 1, 63, 64
4, 140928, Note_on_c, 1, 62, 75
4, 141022, Note_off_c, 1, 62, 64
4, 141024, Note_on_c, 1, 65, 75
4, 141118, Note_off_c, 1, 65, 64
4, 141120, Note_on_c, 1, 63, 75
4, 141214, Note_off_c, 1, 63, 64
4, 141216, Note_on_c, 1, 62, 75
4, 141310, Note_off_c, 1, 62, 64
4, 141312, Note_on_c, 1, 60, 75
4, 141406, Note_off_c, 1, 60, 64
4, 141408, Note_on_c, 1, 62, 75
4, 141502, Note_off_c, 1, 62, 64
4, 141504, Note_on_c, 1, 63, 75
4, 141598, Note_off_c, 1, 63, 64
4, 141600, Note_on_c, 1, 60, 75
4, 141694, Note_off_c, 1, 60, 64
4, 141696, Note_on_c, 1, 65, 75
4, 142174, Note_off_c, 1, 65, 64
4, 142176, Note_on_c, 1, 63, 75
4, 142270, Note_off_c, 1, 63, 64
4, 142272, Note_on_c, 1, 62, 75
4, 142366, Note_off_c, 1, 62, 64
4, 142368, Note_on_c, 1, 65, 75
4, 142462, Note_off_c, 1, 65, 64
4, 142464, Note_on_c, 1, 63, 75
4, 142558, Note_off_c, 1, 63, 64
4, 142560, Note_on_c, 1, 65, 75
4, 142654, Note_off_c, 1, 65, 64
4, 142656, Note_on_c, 1, 62, 75
4, 142750, Note_off_c, 1, 62, 64
4, 142752, Note_on_c, 1, 63, 75
4, 142846, Note_off_c, 1, 63, 64
4, 142848, Note_on_c, 1, 55, 75
4, 143008, Note_off_c, 1, 55, 64
4, 143040, Note_on_c, 1, 59, 75
4, 143200, Note_off_c, 1, 59, 64
4, 143232, Note_on_c, 1, 60, 75
4, 143392, Note_off_c, 1, 60, 64
4, 143424, Note_on_c, 1, 55, 75
4, 143424, Note_on_c, 1, 67, 75
4, 143584, Note_off_c, 1, 55, 64
4, 143616, Note_on_c, 1, 60, 75
4, 143710, Note_off_c, 1, 67, 64
4, 143776, Note_off_c, 1, 60, 64
4, 143808, Note_on_c, 1, 60, 75
4, 143968, Note_off_c, 1, 60, 64
4, 144000, Note_on_c, 1, 60, 75
4, 144160, Note_off_c, 1, 60, 64
4, 144192, Note_on_c, 1, 60, 75
4, 144352, Note_off_c, 1, 60, 64
4, 144384, Note_on_c, 1, 63, 75
4, 144862, Note_off_c, 1, 63, 64
4, 144864, Note_on_c, 1, 60, 75
4, 144958, Note_off_c, 1, 60, 64
4, 144960, Note_on_c, 1, 57, 75
4, 145054, Note_off_c, 1, 57, 64
4, 145056, Note_on_c, 1, 60, 75
4, 145150, Note_off_c, 1, 60, 64
4, 145152, Note_on_c, 1, 54, 75
4, 145312, Note_off_c, 1, 54, 64
4, 145344, Note_on_c, 1, 63, 75
4, 145504, Note_off_c, 1, 63, 64
4, 145536, Note_on_c, 1, 62, 75
4, 145696, Note_off_c, 1, 62, 64
4, 145728, Note_on_c, 1, 60, 75
4, 145888, Note_off_c, 1, 60, 64
4, 145920, Note_on_c, 1, 58, 75
4, 146080, Note_off_c, 1, 58, 64
4, 146112, Note_on_c, 1, 57, 75
4, 146206, Note_off_c, 1, 57, 64
4, 146208, Note_on_c, 1, 58, 75
4, 146302, Note_off_c, 1, 58, 64
4, 146304, Note_on_c, 1, 55, 75
4, 146464, Note_off_c, 1, 55, 64
4, 146496, Note_on_c, 1, 65, 75
4, 146656, Note_off_c, 1, 65, 64
4, 146688, Note_on_c, 1, 67, 75
4, 147024, Note_off_c, 1, 67, 64
4, 147264, Note_on_c, 1, 67, 75
4, 147424, Note_off_c, 1, 67, 64
4, 147456, Note_on_c, 1, 60, 75
4, 147550, Note_off_c, 1, 60, 64
4, 147552, Note_on_c, 1, 58, 75
4, 147646, Note_off_c, 1, 58, 64
4, 147648, Note_on_c, 1, 56, 75
4, 147742, Note_off_c, 1, 56, 64
4, 147744, Note_on_c, 1, 60, 75
4, 147838, Note_off_c, 1, 60, 64
4, 147840, Note_on_c, 1, 53, 75
4, 148000, Note_off_c, 1, 53, 64
4, 148032, Note_on_c, 1, 63, 75
4, 148192, Note_off_c, 1, 63, 64
4, 148224, Note_on_c, 1, 65, 75
4, 148560, Note_off_c, 1, 65, 64
4, 148800, Note_on_c, 1, 65, 75
4, 148960, Note_off_c, 1, 65, 64
4, 148992, Note_on_c, 1, 58, 75
4, 149086, Note_off_c, 1, 58, 64
4, 149088, Note_on_c, 1, 56, 75
4, 149182, Note_off_c, 1, 56, 64
4, 149184, Note_on_c, 1, 55, 75
4, 149278, Note_off_c, 1, 55, 64
4, 149280, Note_on_c, 1, 58, 75
4, 149374, Note_off_c, 1, 58, 64
4, 149376, Note_on_c, 1, 51, 75
4, 149536, Note_off_c, 1, 51, 64
4, 149568, Note_on_c, 1, 63, 75
4, 149728, Note_off_c, 1, 63, 64
4, 149760, Note_on_c, 1, 60, 75
4, 149854, Note_off_c, 1, 60, 64
4, 149856, Note_on_c, 1, 63, 75
4, 149950, Note_off_c, 1, 63, 64
4, 149952, Note_on_c, 1, 65, 75
4, 150046, Note_off_c, 1, 65, 64
4, 150048, Note_on_c, 1, 67, 75
4, 150142, Note_off_c, 1, 67, 64
4, 150144, Note_on_c, 1, 65, 75
4, 150238, Note_off_c, 1, 65, 64
4, 150240, Note_on_c, 1, 63, 75
4, 150334, Note_off_c, 1, 63, 64
4, 150336, Note_on_c, 1, 62, 75
4, 150430, Note_off_c, 1, 62, 64
4, 150432, Note_on_c, 1, 60, 75
4, 150526, Note_off_c, 1, 60, 64
4, 150528, Note_on_c, 1, 59, 75
4, 150622, Note_off_c, 1, 59, 64
4, 150624, Note_on_c, 1, 65, 75
4, 150718, Note_off_c, 1, 65, 64
4, 150720, Note_on_c, 1, 63, 75
4, 150814, Note_off_c, 1, 63, 64
4, 150816, Note_on_c, 1, 62, 75
4, 150910, Note_off_c, 1, 62, 64
4, 150912, Note_on_c, 1, 63, 75
4, 151072, Note_off_c, 1, 63, 64
4, 151104, Note_on_c, 1, 57, 75
4, 151104, Note_on_c, 1, 60, 75
4, 151264, Note_off_c, 1, 60, 64
4, 151264, Note_off_c, 1, 57, 64
4, 151296, Note_on_c, 1, 59, 75
4, 151390, Note_off_c, 1, 59, 64
4, 151392, Note_on_c, 1, 65, 75
4, 151486, Note_off_c, 1, 65, 64
4, 151488, Note_on_c, 1, 63, 75
4, 151582, Note_off_c, 1, 63, 64
4, 151584, Note_on_c, 1, 62, 75
4, 151678, Note_off_c, 1, 62, 64
4, 151680, Note_on_c, 1, 63, 75
4, 151774, Note_off_c, 1, 63, 64
4, 151776, Note_on_c, 1, 62, 75
4, 151870, Note_off_c, 1, 62, 64
4, 151872, Note_on_c, 1, 63, 75
4, 151966, Note_off_c, 1, 63, 64
4, 151968, Note_on_c, 1, 60, 75
4, 152062, Note_off_c, 1, 60, 64
4, 152064, Note_on_c, 1, 65, 75
4, 152400, Note_off_c, 1, 65, 64
4, 152448, Note_on_c, 1, 59, 75
4, 152448, Note_on_c, 1, 59, 75
4, 152608, Note_off_c, 1, 59, 64
4, 152640, Note_on_c, 1, 62, 75
4, 152734, Note_off_c, 1, 62, 64
4, 152736, Note_on_c, 1, 65, 75
4, 152784, Note_off_c, 1, 59, 64
4, 152830, Note_off_c, 1, 65, 64
4, 152832, Note_on_c, 1, 59, 75
4, 152832, Note_on_c, 1, 59, 75
4, 152992, Note_off_c, 1, 59, 64
4, 153024, Note_on_c, 1, 68, 75
4, 153184, Note_off_c, 1, 68, 64
4, 153216, Note_on_c, 1, 67, 75
4, 153376, Note_off_c, 1, 67, 64
4, 153408, Note_on_c, 1, 65, 75
4, 153552, Note_off_c, 1, 59, 64
4, 153568, Note_off_c, 1, 65, 64
4, 153600, Note_on_c, 1, 55, 75
4, 153600, Note_on_c, 1, 63, 75
4, 153760, Note_off_c, 1, 63, 64
4, 153760, Note_off_c, 1, 55, 64
4, 153792, Note_on_c, 1, 53, 75
4, 153792, Note_on_c, 1, 62, 75
4, 153886, Note_off_c, 1, 62, 64
4, 153888, Note_on_c, 1, 63, 75
4, 153952, Note_off_c, 1, 53, 64
4, 153982, Note_off_c, 1, 63, 64
4, 153984, Note_on_c, 1, 55, 75
4, 153984, Note_on_c, 1, 60, 75
4, 154078, Note_off_c, 1, 60, 64
4, 154080, Note_on_c, 1, 63, 75
4, 154144, Note_off_c, 1, 55, 64
4, 154174, Note_off_c, 1, 63, 64
4, 154176, Note_on_c, 1, 56, 75
4, 154176, Note_on_c, 1, 62, 75
4, 154336, Note_off_c, 1, 62, 64
4, 154336, Note_off_c, 1, 56, 64
4, 154368, Note_on_c, 1, 55, 75
4, 154368, Note_on_c, 1, 63, 75
4, 154528, Note_off_c, 1, 63, 64
4, 154560, Note_on_c, 1, 67, 75
4, 154720, Note_off_c, 1, 67, 64
4, 154752, Note_on_c, 1, 65, 75
4, 154846, Note_off_c, 1, 65, 64
4, 154848, Note_on_c, 1, 63, 75
4, 154942, Note_off_c, 1, 63, 64
4, 154944, Note_on_c, 1, 65, 75
4, 155088, Note_off_c, 1, 55, 64
4, 155104, Note_off_c, 1, 65, 64
4, 155136, Note_on_c, 1, 55, 75
4, 155136, Note_on_c, 1, 65, 75
4, 155472, Note_off_c, 1, 65, 64
4, 155520, Note_on_c, 1, 63, 75
4, 155664, Note_off_c, 1, 55, 64
4, 155680, Note_off_c, 1, 57, 64
4, 155680, Note_off_c, 1, 59, 64
4, 155680, Note_off_c, 1, 63, 64
4, 155680, End_track
5, 0, Start_track
5, 0, Title_t, "Pedal --- made by LordBlaa@aol.com"
5, 0, Channel_prefix, 2
5, 0, Control_c, 2, 7, 127
5, 0, Control_c, 2, 10, 64
5, 0, Program_c, 2, 19
5, 0, Note_on_c, 2, 36, 110
5, 7824, Note_off_c, 2, 36, 64
5, 7872, Note_on_c, 2, 48, 110
5, 8032, Note_off_c, 2, 48, 64
5, 8064, Note_on_c, 2, 56, 110
5, 8320, Note_off_c, 2, 56, 64
5, 8352, Note_on_c, 2, 55, 110
5, 8446, Note_off_c, 2, 55, 64
5, 8448, Note_on_c, 2, 56, 110
5, 8608, Note_off_c, 2, 56, 64
5, 8640, Note_on_c, 2, 55, 110
5, 8800, Note_off_c, 2, 55, 64
5, 8832, Note_on_c, 2, 60, 110
5, 9376, Note_off_c, 2, 60, 64
5, 9408, Note_on_c, 2, 58, 110
5, 9952, Note_off_c, 2, 58, 64
5, 9984, Note_on_c, 2, 56, 110
5, 10320, Note_off_c, 2, 56, 64
5, 10368, Note_on_c, 2, 55, 110
5, 11614, Note_off_c, 2, 55, 64
5, 11616, Note_on_c, 2, 43, 110
5, 11710, Note_off_c, 2, 43, 64
5, 11712, Note_on_c, 2, 55, 110
5, 11808, Note_off_c, 2, 55, 64
5, 11808, Note_on_c, 2, 53, 110
5, 11902, Note_off_c, 2, 53, 64
5, 11904, Note_on_c, 2, 53, 110
5, 12000, Note_off_c, 2, 53, 64
5, 12000, Note_on_c, 2, 51, 110
5, 12094, Note_off_c, 2, 51, 64
5, 12096, Note_on_c, 2, 53, 110
5, 12190, Note_off_c, 2, 53, 64
5, 12192, Note_on_c, 2, 43, 110
5, 12286, Note_off_c, 2, 43, 64
5, 12288, Note_on_c, 2, 53, 110
5, 12384, Note_off_c, 2, 53, 64
5, 12384, Note_on_c, 2, 51, 110
5, 12478, Note_off_c, 2, 51, 64
5, 12480, Note_on_c, 2, 51, 110
5, 12576, Note_off_c, 2, 51, 64
5, 12576, Note_on_c, 2, 50, 110
5, 12670, Note_off_c, 2, 50, 64
5, 12672, Note_on_c, 2, 51, 110
5, 13008, Note_off_c, 2, 51, 64
5, 13056, Note_on_c, 2, 56, 110
5, 13216, Note_off_c, 2, 56, 64
5, 13248, Note_on_c, 2, 50, 110
5, 13584, Note_off_c, 2, 50, 64
5, 13632, Note_on_c, 2, 55, 110
5, 13792, Note_off_c, 2, 55, 64
5, 13824, Note_on_c, 2, 48, 110
5, 14160, Note_off_c, 2, 48, 64
5, 14208, Note_on_c, 2, 53, 110
5, 14368, Note_off_c, 2, 53, 64
5, 14400, Note_on_c, 2, 50, 110
5, 14560, Note_off_c, 2, 50, 64
5, 14592, Note_on_c, 2, 52, 110
5, 14752, Note_off_c, 2, 52, 64
5, 14784, Note_on_c, 2, 48, 110
5, 14944, Note_off_c, 2, 48, 64
5, 14976, Note_on_c, 2, 53, 110
5, 15136, Note_off_c, 2, 53, 64
5, 15168, Note_on_c, 2, 47, 110
5, 15504, Note_off_c, 2, 47, 64
5, 15552, Note_on_c, 2, 48, 110
5, 15712, Note_off_c, 2, 48, 64
5, 15744, Note_on_c, 2, 42, 110
5, 16080, Note_off_c, 2, 42, 64
5, 16128, Note_on_c, 2, 43, 110
5, 16464, Note_off_c, 2, 43, 64
5, 16512, Note_on_c, 2, 48, 110
5, 16672, Note_off_c, 2, 48, 64
5, 16704, Note_on_c, 2, 41, 110
5, 17040, Note_off_c, 2, 41, 64
5, 17088, Note_on_c, 2, 46, 110
5, 17248, Note_off_c, 2, 46, 64
5, 17280, Note_on_c, 2, 39, 110
5, 17440, Note_off_c, 2, 39, 64
5, 17472, Note_on_c, 2, 51, 110
5, 18016, Note_off_c, 2, 51, 64
5, 18048, Note_on_c, 2, 50, 110
5, 18208, Note_off_c, 2, 50, 64
5, 18240, Note_on_c, 2, 55, 110
5, 18400, Note_off_c, 2, 55, 64
5, 18432, Note_on_c, 2, 48, 110
5, 19168, Note_off_c, 2, 48, 64
5, 19200, Note_on_c, 2, 46, 110
5, 19744, Note_off_c, 2, 46, 64
5, 19776, Note_on_c, 2, 45, 110
5, 19936, Note_off_c, 2, 45, 64
5, 19968, Note_on_c, 2, 43, 110
5, 20128, Note_off_c, 2, 43, 64
5, 20160, Note_on_c, 2, 42, 110
5, 20320, Note_off_c, 2, 42, 64
5, 20352, Note_on_c, 2, 38, 110
5, 20512, Note_off_c, 2, 38, 64
5, 20544, Note_on_c, 2, 42, 110
5, 20704, Note_off_c, 2, 42, 64
5, 20736, Note_on_c, 2, 43, 110
5, 20896, Note_off_c, 2, 43, 64
5, 20928, Note_on_c, 2, 51, 110
5, 21088, Note_off_c, 2, 51, 64
5, 21120, Note_on_c, 2, 46, 110
5, 21280, Note_off_c, 2, 46, 64
5, 21312, Note_on_c, 2, 48, 110
5, 21472, Note_off_c, 2, 48, 64
5, 21504, Note_on_c, 2, 50, 110
5, 21664, Note_off_c, 2, 50, 64
5, 21696, Note_on_c, 2, 38, 110
5, 21856, Note_off_c, 2, 38, 64
5, 21888, Note_on_c, 2, 39, 110
5, 22224, Note_off_c, 2, 39, 64
5, 22272, Note_on_c, 2, 38, 110
5, 22432, Note_off_c, 2, 38, 64
5, 22464, Note_on_c, 2, 36, 110
5, 22624, Note_off_c, 2, 36, 64
5, 22656, Note_on_c, 2, 38, 110
5, 22992, Note_off_c, 2, 38, 64
5, 23040, Note_on_c, 2, 43, 110
5, 30864, Note_off_c, 2, 43, 64
5, 30912, Note_on_c, 2, 43, 110
5, 31072, Note_off_c, 2, 43, 64
5, 31104, Note_on_c, 2, 51, 110
5, 31360, Note_off_c, 2, 51, 64
5, 31392, Note_on_c, 2, 50, 110
5, 31486, Note_off_c, 2, 50, 64
5, 31488, Note_on_c, 2, 51, 110
5, 31648, Note_off_c, 2, 51, 64
5, 31680, Note_on_c, 2, 50, 110
5, 31840, Note_off_c, 2, 50, 64
5, 31872, Note_on_c, 2, 55, 110
5, 32416, Note_off_c, 2, 55, 64
5, 32448, Note_on_c, 2, 53, 110
5, 32992, Note_off_c, 2, 53, 64
5, 33024, Note_on_c, 2, 51, 110
5, 33360, Note_off_c, 2, 51, 64
5, 33408, Note_on_c, 2, 50, 110
5, 34720, Note_off_c, 2, 50, 64
5, 34752, Note_on_c, 2, 55, 110
5, 35296, Note_off_c, 2, 55, 64
5, 35328, Note_on_c, 2, 54, 110
5, 35664, Note_off_c, 2, 54, 64
5, 35712, Note_on_c, 2, 55, 110
5, 36958, Note_off_c, 2, 55, 64
5, 36960, Note_on_c, 2, 43, 110
5, 37054, Note_off_c, 2, 43, 64
5, 37056, Note_on_c, 2, 55, 110
5, 37150, Note_off_c, 2, 55, 64
5, 37152, Note_on_c, 2, 53, 110
5, 37246, Note_off_c, 2, 53, 64
5, 37248, Note_on_c, 2, 53, 110
5, 37342, Note_off_c, 2, 53, 64
5, 37344, Note_on_c, 2, 51, 110
5, 37438, Note_off_c, 2, 51, 64
5, 37440, Note_on_c, 2, 53, 110
5, 37534, Note_off_c, 2, 53, 64
5, 37536, Note_on_c, 2, 43, 110
5, 37630, Note_off_c, 2, 43, 64
5, 37632, Note_on_c, 2, 53, 110
5, 37726, Note_off_c, 2, 53, 64
5, 37728, Note_on_c, 2, 51, 110
5, 37822, Note_off_c, 2, 51, 64
5, 37824, Note_on_c, 2, 51, 110
5, 37918, Note_off_c, 2, 51, 64
5, 37920, Note_on_c, 2, 50, 110
5, 38014, Note_off_c, 2, 50, 64
5, 38016, Note_on_c, 2, 51, 110
5, 38352, Note_off_c, 2, 51, 64
5, 38400, Note_on_c, 2, 56, 110
5, 38560, Note_off_c, 2, 56, 64
5, 38592, Note_on_c, 2, 50, 110
5, 38928, Note_off_c, 2, 50, 64
5, 38976, Note_on_c, 2, 55, 110
5, 39136, Note_off_c, 2, 55, 64
5, 39168, Note_on_c, 2, 48, 110
5, 39328, Note_off_c, 2, 48, 64
5, 39360, Note_on_c, 2, 46, 110
5, 39520, Note_off_c, 2, 46, 64
5, 39552, Note_on_c, 2, 45, 110
5, 39712, Note_off_c, 2, 45, 64
5, 39744, Note_on_c, 2, 46, 110
5, 39904, Note_off_c, 2, 46, 64
5, 39936, Note_on_c, 2, 44, 110
5, 40096, Note_off_c, 2, 44, 64
5, 40128, Note_on_c, 2, 43, 110
5, 40288, Note_off_c, 2, 43, 64
5, 40320, Note_on_c, 2, 44, 110
5, 41232, Note_off_c, 2, 44, 64
5, 41280, Note_on_c, 2, 43, 110
5, 41440, Note_off_c, 2, 43, 64
5, 41472, Note_on_c, 2, 41, 110
5, 42208, Note_off_c, 2, 41, 64
5, 42240, Note_on_c, 2, 40, 110
5, 42576, Note_off_c, 2, 40, 64
5, 42624, Note_on_c, 2, 41, 110
5, 42784, Note_off_c, 2, 41, 64
5, 43872, Note_on_c, 2, 41, 110
5, 43966, Note_off_c, 2, 41, 64
5, 43968, Note_on_c, 2, 53, 110
5, 44064, Note_off_c, 2, 53, 64
5, 44064, Note_on_c, 2, 51, 110
5, 44158, Note_off_c, 2, 51, 64
5, 44160, Note_on_c, 2, 51, 110
5, 44256, Note_off_c, 2, 51, 64
5, 44256, Note_on_c, 2, 49, 110
5, 44350, Note_off_c, 2, 49, 64
5, 44352, Note_on_c, 2, 51, 110
5, 44446, Note_off_c, 2, 51, 64
5, 44448, Note_on_c, 2, 41, 110
5, 44542, Note_off_c, 2, 41, 64
5, 44544, Note_on_c, 2, 51, 110
5, 44640, Note_off_c, 2, 51, 64
5, 44640, Note_on_c, 2, 49, 110
5, 44734, Note_off_c, 2, 49, 64
5, 44736, Note_on_c, 2, 49, 110
5, 44832, Note_off_c, 2, 49, 64
5, 44832, Note_on_c, 2, 48, 110
5, 44926, Note_off_c, 2, 48, 64
5, 44928, Note_on_c, 2, 49, 110
5, 45264, Note_off_c, 2, 49, 64
5, 45312, Note_on_c, 2, 48, 110
5, 45472, Note_off_c, 2, 48, 64
5, 45504, Note_on_c, 2, 46, 110
5, 45840, Note_off_c, 2, 46, 64
5, 45888, Note_on_c, 2, 43, 110
5, 46048, Note_off_c, 2, 43, 64
5, 46080, Note_on_c, 2, 48, 110
5, 46416, Note_off_c, 2, 48, 64
5, 46464, Note_on_c, 2, 53, 110
5, 46624, Note_off_c, 2, 53, 64
5, 46656, Note_on_c, 2, 46, 110
5, 46992, Note_off_c, 2, 46, 64
5, 47040, Note_on_c, 2, 51, 110
5, 47200, Note_off_c, 2, 51, 64
5, 47232, Note_on_c, 2, 44, 110
5, 47968, Note_off_c, 2, 44, 64
5, 48000, Note_on_c, 2, 43, 110
5, 48160, Note_off_c, 2, 43, 64
5, 48192, Note_on_c, 2, 48, 110
5, 48352, Note_off_c, 2, 48, 64
5, 48384, Note_on_c, 2, 41, 110
5, 48544, Note_off_c, 2, 41, 64
5, 48576, Note_on_c, 2, 53, 110
5, 49120, Note_off_c, 2, 53, 64
5, 49152, Note_on_c, 2, 51, 110
5, 49696, Note_off_c, 2, 51, 64
5, 49728, Note_on_c, 2, 50, 110
5, 49888, Note_off_c, 2, 50, 64
5, 49920, Note_on_c, 2, 48, 110
5, 50080, Note_off_c, 2, 48, 64
5, 50112, Note_on_c, 2, 47, 110
5, 50272, Note_off_c, 2, 47, 64
5, 50304, Note_on_c, 2, 43, 110
5, 50464, Note_off_c, 2, 43, 64
5, 50496, Note_on_c, 2, 47, 110
5, 50656, Note_off_c, 2, 47, 64
5, 50688, Note_on_c, 2, 48, 110
5, 50848, Note_off_c, 2, 48, 64
5, 50880, Note_on_c, 2, 56, 110
5, 51040, Note_off_c, 2, 56, 64
5, 51072, Note_on_c, 2, 51, 110
5, 51232, Note_off_c, 2, 51, 64
5, 51264, Note_on_c, 2, 53, 110
5, 51424, Note_off_c, 2, 53, 64
5, 51456, Note_on_c, 2, 55, 110
5, 51616, Note_off_c, 2, 55, 64
5, 51648, Note_on_c, 2, 43, 110
5, 51808, Note_off_c, 2, 43, 64
5, 51840, Note_on_c, 2, 44, 110
5, 52176, Note_off_c, 2, 44, 64
5, 52224, Note_on_c, 2, 43, 110
5, 52384, Note_off_c, 2, 43, 64
5, 52416, Note_on_c, 2, 42, 110
5, 52576, Note_off_c, 2, 42, 64
5, 52608, Note_on_c, 2, 43, 110
5, 52944, Note_off_c, 2, 43, 64
5, 52992, Note_on_c, 2, 36, 110
5, 53328, Note_off_c, 2, 36, 64
5, 53376, Note_on_c, 2, 48, 110
5, 53728, Note_off_c, 2, 48, 64
5, 53760, Note_on_c, 2, 46, 110
5, 54304, Note_off_c, 2, 46, 64
5, 54336, Note_on_c, 2, 44, 110
5, 54672, Note_off_c, 2, 44, 64
5, 54720, Note_on_c, 2, 43, 110
5, 55248, Note_off_c, 2, 43, 64
5, 63552, Note_on_c, 2, 48, 110
5, 63712, Note_off_c, 2, 48, 64
5, 63744, Note_on_c, 2, 55, 110
5, 63904, Note_off_c, 2, 55, 64
5, 63936, Note_on_c, 2, 55, 110
5, 64096, Note_off_c, 2, 55, 64
5, 64128, Note_on_c, 2, 55, 110
5, 64288, Note_off_c, 2, 55, 64
5, 64320, Note_on_c, 2, 55, 110
5, 64480, Note_off_c, 2, 55, 64
5, 64512, Note_on_c, 2, 56, 110
5, 64990, Note_off_c, 2, 56, 64
5, 64992, Note_on_c, 2, 53, 110
5, 65086, Note_off_c, 2, 53, 64
5, 65088, Note_on_c, 2, 50, 110
5, 65182, Note_off_c, 2, 50, 64
5, 65184, Note_on_c, 2, 53, 110
5, 65278, Note_off_c, 2, 53, 64
5, 65280, Note_on_c, 2, 47, 110
5, 65440, Note_off_c, 2, 47, 64
5, 65472, Note_on_c, 2, 56, 110
5, 65632, Note_off_c, 2, 56, 64
5, 65664, Note_on_c, 2, 55, 110
5, 65824, Note_off_c, 2, 55, 64
5, 65856, Note_on_c, 2, 53, 110
5, 66016, Note_off_c, 2, 53, 64
5, 66048, Note_on_c, 2, 51, 110
5, 66208, Note_off_c, 2, 51, 64
5, 66240, Note_on_c, 2, 50, 110
5, 66334, Note_off_c, 2, 50, 64
5, 66336, Note_on_c, 2, 51, 110
5, 66430, Note_off_c, 2, 51, 64
5, 66432, Note_on_c, 2, 48, 110
5, 66592, Note_off_c, 2, 48, 64
5, 66624, Note_on_c, 2, 46, 110
5, 66784, Note_off_c, 2, 46, 64
5, 66816, Note_on_c, 2, 45, 110
5, 67536, Note_off_c, 2, 45, 64
5, 67584, Note_on_c, 2, 43, 110
5, 67678, Note_off_c, 2, 43, 64
5, 67680, Note_on_c, 2, 55, 110
5, 67774, Note_off_c, 2, 55, 64
5, 67776, Note_on_c, 2, 51, 110
5, 67870, Note_off_c, 2, 51, 64
5, 67872, Note_on_c, 2, 55, 110
5, 67966, Note_off_c, 2, 55, 64
5, 67968, Note_on_c, 2, 48, 110
5, 68446, Note_off_c, 2, 48, 64
5, 68448, Note_on_c, 2, 60, 110
5, 68542, Note_off_c, 2, 60, 64
5, 68544, Note_on_c, 2, 57, 110
5, 68638, Note_off_c, 2, 57, 64
5, 68640, Note_on_c, 2, 60, 110
5, 68734, Note_off_c, 2, 60, 64
5, 68736, Note_on_c, 2, 54, 110
5, 69072, Note_off_c, 2, 54, 64
5, 69120, Note_on_c, 2, 55, 110
5, 69598, Note_off_c, 2, 55, 64
5, 69600, Note_on_c, 2, 55, 110
5, 69694, Note_off_c, 2, 55, 64
5, 69696, Note_on_c, 2, 50, 110
5, 69790, Note_off_c, 2, 50, 64
5, 69792, Note_on_c, 2, 53, 110
5, 69886, Note_off_c, 2, 53, 64
5, 69888, Note_on_c, 2, 52, 110
5, 70048, Note_off_c, 2, 52, 64
5, 70080, Note_on_c, 2, 55, 110
5, 70240, Note_off_c, 2, 55, 64
5, 70272, Note_on_c, 2, 48, 110
5, 70432, Note_off_c, 2, 48, 64
5, 70464, Note_on_c, 2, 52, 110
5, 70624, Note_off_c, 2, 52, 64
5, 70656, Note_on_c, 2, 53, 110
5, 71134, Note_off_c, 2, 53, 64
5, 71136, Note_on_c, 2, 53, 110
5, 71230, Note_off_c, 2, 53, 64
5, 71232, Note_on_c, 2, 48, 110
5, 71326, Note_off_c, 2, 48, 64
5, 71328, Note_on_c, 2, 51, 110
5, 71422, Note_off_c, 2, 51, 64
5, 71424, Note_on_c, 2, 50, 110
5, 71584, Note_off_c, 2, 50, 64
5, 71616, Note_on_c, 2, 53, 110
5, 71776, Note_off_c, 2, 53, 64
5, 71808, Note_on_c, 2, 46, 110
5, 71968, Note_off_c, 2, 46, 64
5, 72000, Note_on_c, 2, 50, 110
5, 72160, Note_off_c, 2, 50, 64
5, 72192, Note_on_c, 2, 51, 110
5, 72670, Note_off_c, 2, 51, 64
5, 72672, Note_on_c, 2, 51, 110
5, 72766, Note_off_c, 2, 51, 64
5, 72768, Note_on_c, 2, 48, 110
5, 72862, Note_off_c, 2, 48, 64
5, 72864, Note_on_c, 2, 51, 110
5, 72958, Note_off_c, 2, 51, 64
5, 72960, Note_on_c, 2, 44, 110
5, 73438, Note_off_c, 2, 44, 64
5, 73440, Note_on_c, 2, 56, 110
5, 73534, Note_off_c, 2, 56, 64
5, 73536, Note_on_c, 2, 53, 110
5, 73630, Note_off_c, 2, 53, 64
5, 73632, Note_on_c, 2, 56, 110
5, 73726, Note_off_c, 2, 56, 64
5, 73728, Note_on_c, 2, 47, 110
5, 73888, Note_off_c, 2, 47, 64
5, 73920, Note_on_c, 2, 43, 110
5, 74080, Note_off_c, 2, 43, 64
5, 74112, Note_on_c, 2, 48, 110
5, 74832, Note_off_c, 2, 48, 64
5, 74880, Note_on_c, 2, 47, 110
5, 75216, Note_off_c, 2, 47, 64
5, 75264, Note_on_c, 2, 48, 110
5, 75600, Note_off_c, 2, 48, 64
5, 93504, Note_on_c, 2, 48, 110
5, 93664, Note_off_c, 2, 48, 64
5, 93696, Note_on_c, 2, 55, 110
5, 93856, Note_off_c, 2, 55, 64
5, 93888, Note_on_c, 2, 55, 110
5, 94048, Note_off_c, 2, 55, 64
5, 94080, Note_on_c, 2, 55, 110
5, 94240, Note_off_c, 2, 55, 64
5, 94272, Note_on_c, 2, 55, 110
5, 94432, Note_off_c, 2, 55, 64
5, 94464, Note_on_c, 2, 56, 110
5, 94942, Note_off_c, 2, 56, 64
5, 94944, Note_on_c, 2, 53, 110
5, 95038, Note_off_c, 2, 53, 64
5, 95040, Note_on_c, 2, 50, 110
5, 95134, Note_off_c, 2, 50, 64
5, 95136, Note_on_c, 2, 53, 110
5, 95230, Note_off_c, 2, 53, 64
5, 95232, Note_on_c, 2, 47, 110
5, 95392, Note_off_c, 2, 47, 64
5, 95424, Note_on_c, 2, 56, 110
5, 95584, Note_off_c, 2, 56, 64
5, 95616, Note_on_c, 2, 55, 110
5, 95776, Note_off_c, 2, 55, 64
5, 95808, Note_on_c, 2, 53, 110
5, 95968, Note_off_c, 2, 53, 64
5, 96000, Note_on_c, 2, 51, 110
5, 96160, Note_off_c, 2, 51, 64
5, 96192, Note_on_c, 2, 50, 110
5, 96286, Note_off_c, 2, 50, 64
5, 96288, Note_on_c, 2, 51, 110
5, 96382, Note_off_c, 2, 51, 64
5, 96384, Note_on_c, 2, 48, 110
5, 96478, Note_off_c, 2, 48, 64
5, 96480, Note_on_c, 2, 51, 110
5, 96574, Note_off_c, 2, 51, 64
5, 96576, Note_on_c, 2, 44, 110
5, 96670, Note_off_c, 2, 44, 64
5, 96672, Note_on_c, 2, 48, 110
5, 96766, Note_off_c, 2, 48, 64
5, 96768, Note_on_c, 2, 41, 110
5, 96928, Note_off_c, 2, 41, 64
5, 96960, Note_on_c, 2, 51, 110
5, 97120, Note_off_c, 2, 51, 64
5, 97152, Note_on_c, 2, 50, 110
5, 97312, Note_off_c, 2, 50, 64
5, 97344, Note_on_c, 2, 48, 110
5, 97504, Note_off_c, 2, 48, 64
5, 97536, Note_on_c, 2, 47, 110
5, 97696, Note_off_c, 2, 47, 64
5, 97728, Note_on_c, 2, 43, 110
5, 97888, Note_off_c, 2, 43, 64
5, 97920, Note_on_c, 2, 48, 110
5, 98080, Note_off_c, 2, 48, 64
5, 98112, Note_on_c, 2, 39, 110
5, 98272, Note_off_c, 2, 39, 64
5, 98304, Note_on_c, 2, 44, 110
5, 99024, Note_off_c, 2, 44, 64
5, 99072, Note_on_c, 2, 43, 110
5, 99408, Note_off_c, 2, 43, 64
5, 106368, Note_on_c, 2, 48, 110
5, 106704, Note_off_c, 2, 48, 64
5, 106752, Note_on_c, 2, 49, 110
5, 107088, Note_off_c, 2, 49, 64
5, 107136, Note_on_c, 2, 50, 110
5, 107472, Note_off_c, 2, 50, 64
5, 107520, Note_on_c, 2, 51, 110
5, 107856, Note_off_c, 2, 51, 64
5, 107904, Note_on_c, 2, 52, 110
5, 108240, Note_off_c, 2, 52, 64
5, 108288, Note_on_c, 2, 53, 110
5, 109392, Note_off_c, 2, 53, 64
5, 109440, Note_on_c, 2, 52, 110
5, 109776, Note_off_c, 2, 52, 64
5, 109824, Note_on_c, 2, 56, 110
5, 110928, Note_off_c, 2, 56, 64
5, 110976, Note_on_c, 2, 55, 110
5, 111312, Note_off_c, 2, 55, 64
5, 111360, Note_on_c, 2, 48, 110
5, 111696, Note_off_c, 2, 48, 64
5, 111744, Note_on_c, 2, 50, 110
5, 112080, Note_off_c, 2, 50, 64
5, 112128, Note_on_c, 2, 51, 110
5, 113232, Note_off_c, 2, 51, 64
5, 113280, Note_on_c, 2, 52, 110
5, 113616, Note_off_c, 2, 52, 64
5, 113664, Note_on_c, 2, 50, 110
5, 114000, Note_off_c, 2, 50, 64
5, 114048, Note_on_c, 2, 49, 110
5, 114384, Note_off_c, 2, 49, 64
5, 114432, Note_on_c, 2, 50, 110
5, 114768, Note_off_c, 2, 50, 64
5, 114816, Note_on_c, 2, 38, 110
5, 115152, Note_off_c, 2, 38, 64
5, 115200, Note_on_c, 2, 43, 110
5, 115536, Note_off_c, 2, 43, 64
5, 122496, Note_on_c, 2, 43, 110
5, 122832, Note_off_c, 2, 43, 64
5, 122880, Note_on_c, 2, 44, 110
5, 123216, Note_off_c, 2, 44, 64
5, 123264, Note_on_c, 2, 45, 110
5, 123600, Note_off_c, 2, 45, 64
5, 123648, Note_on_c, 2, 46, 110
5, 123984, Note_off_c, 2, 46, 64
5, 124032, Note_on_c, 2, 47, 110
5, 124368, Note_off_c, 2, 47, 64
5, 124416, Note_on_c, 2, 48, 110
5, 124576, Note_off_c, 2, 48, 64
5, 124608, Note_on_c, 2, 46, 110
5, 124768, Note_off_c, 2, 46, 64
5, 124800, Note_on_c, 2, 44, 110
5, 124960, Note_off_c, 2, 44, 64
5, 124992, Note_on_c, 2, 48, 110
5, 125152, Note_off_c, 2, 48, 64
5, 125184, Note_on_c, 2, 41, 110
5, 125344, Note_off_c, 2, 41, 64
5, 125376, Note_on_c, 2, 44, 110
5, 125536, Note_off_c, 2, 44, 64
5, 125568, Note_on_c, 2, 38, 110
5, 125728, Note_off_c, 2, 38, 64
5, 125760, Note_on_c, 2, 50, 110
5, 125920, Note_off_c, 2, 50, 64
5, 125952, Note_on_c, 2, 43, 110
5, 126112, Note_off_c, 2, 43, 64
5, 126144, Note_on_c, 2, 50, 110
5, 126304, Note_off_c, 2, 50, 64
5, 126336, Note_on_c, 2, 55, 110
5, 126496, Note_off_c, 2, 55, 64
5, 126528, Note_on_c, 2, 43, 110
5, 126688, Note_off_c, 2, 43, 64
5, 126720, Note_on_c, 2, 48, 110
5, 126880, Note_off_c, 2, 48, 64
5, 126912, Note_on_c, 2, 51, 110
5, 127072, Note_off_c, 2, 51, 64
5, 127104, Note_on_c, 2, 42, 110
5, 127264, Note_off_c, 2, 42, 64
5, 127296, Note_on_c, 2, 50, 110
5, 127456, Note_off_c, 2, 50, 64
5, 127488, Note_on_c, 2, 43, 110
5, 127824, Note_off_c, 2, 43, 64
5, 130176, Note_on_c, 2, 43, 110
5, 130512, Note_off_c, 2, 43, 64
5, 130560, Note_on_c, 2, 44, 110
5, 130896, Note_off_c, 2, 44, 64
5, 130944, Note_on_c, 2, 45, 110
5, 131280, Note_off_c, 2, 45, 64
5, 131328, Note_on_c, 2, 46, 110
5, 131664, Note_off_c, 2, 46, 64
5, 131712, Note_on_c, 2, 47, 110
5, 132048, Note_off_c, 2, 47, 64
5, 132096, Note_on_c, 2, 48, 110
5, 132958, Note_off_c, 2, 48, 64
5, 132960, Note_on_c, 2, 51, 110
5, 133054, Note_off_c, 2, 51, 64
5, 133056, Note_on_c, 2, 50, 110
5, 133150, Note_off_c, 2, 50, 64
5, 133152, Note_on_c, 2, 53, 110
5, 133246, Note_off_c, 2, 53, 64
5, 133248, Note_on_c, 2, 51, 110
5, 133342, Note_off_c, 2, 51, 64
5, 133344, Note_on_c, 2, 55, 110
5, 133438, Note_off_c, 2, 55, 64
5, 133440, Note_on_c, 2, 47, 110
5, 133534, Note_off_c, 2, 47, 64
5, 133536, Note_on_c, 2, 50, 110
5, 133630, Note_off_c, 2, 50, 64
5, 133632, Note_on_c, 2, 48, 110
5, 133726, Note_off_c, 2, 48, 64
5, 133728, Note_on_c, 2, 51, 110
5, 133822, Note_off_c, 2, 51, 64
5, 133824, Note_on_c, 2, 47, 110
5, 133918, Note_off_c, 2, 47, 64
5, 133920, Note_on_c, 2, 50, 110
5, 134014, Note_off_c, 2, 50, 64
5, 134016, Note_on_c, 2, 48, 110
5, 134110, Note_off_c, 2, 48, 64
5, 134112, Note_on_c, 2, 51, 110
5, 134206, Note_off_c, 2, 51, 64
5, 134208, Note_on_c, 2, 43, 110
5, 134302, Note_off_c, 2, 43, 64
5, 134304, Note_on_c, 2, 46, 110
5, 134398, Note_off_c, 2, 46, 64
5, 134400, Note_on_c, 2, 44, 110
5, 135120, Note_off_c, 2, 44, 64
5, 135168, Note_on_c, 2, 43, 110
5, 135262, Note_off_c, 2, 43, 64
5, 135264, Note_on_c, 2, 55, 110
5, 135358, Note_off_c, 2, 55, 64
5, 135360, Note_on_c, 2, 53, 110
5, 135454, Note_off_c, 2, 53, 64
5, 135456, Note_on_c, 2, 55, 110
5, 135550, Note_off_c, 2, 55, 64
5, 135552, Note_on_c, 2, 51, 110
5, 135646, Note_off_c, 2, 51, 64
5, 135648, Note_on_c, 2, 53, 110
5, 135742, Note_off_c, 2, 53, 64
5, 135744, Note_on_c, 2, 50, 110
5, 135838, Note_off_c, 2, 50, 64
5, 135840, Note_on_c, 2, 51, 110
5, 135934, Note_off_c, 2, 51, 64
5, 135936, Note_on_c, 2, 48, 110
5, 136096, Note_off_c, 2, 48, 64
5, 136128, Note_on_c, 2, 53, 110
5, 136288, Note_off_c, 2, 53, 64
5, 136320, Note_on_c, 2, 51, 110
5, 136480, Note_off_c, 2, 51, 64
5, 136512, Note_on_c, 2, 50, 110
5, 136672, Note_off_c, 2, 50, 64
5, 136704, Note_on_c, 2, 48, 110
5, 137182, Note_off_c, 2, 48, 64
5, 137184, Note_on_c, 2, 57, 110
5, 137278, Note_off_c, 2, 57, 64
5, 137280, Note_on_c, 2, 54, 110
5, 137374, Note_off_c, 2, 54, 64
5, 137376, Note_on_c, 2, 57, 110
5, 137470, Note_off_c, 2, 57, 64
5, 137472, Note_on_c, 2, 50, 110
5, 137632, Note_off_c, 2, 50, 64
5, 137664, Note_on_c, 2, 48, 110
5, 137824, Note_off_c, 2, 48, 64
5, 137856, Note_on_c, 2, 50, 110
5, 138016, Note_off_c, 2, 50, 64
5, 138048, Note_on_c, 2, 38, 110
5, 138208, Note_off_c, 2, 38, 64
5, 138240, Note_on_c, 2, 43, 110
5, 138576, Note_off_c, 2, 43, 64
5, 138816, Note_on_c, 2, 48, 110
5, 138976, Note_off_c, 2, 48, 64
5, 139008, Note_on_c, 2, 41, 110
5, 139344, Note_off_c, 2, 41, 64
5, 139584, Note_on_c, 2, 41, 110
5, 139744, Note_off_c, 2, 41, 64
5, 139776, Note_on_c, 2, 43, 110
5, 140112, Note_off_c, 2, 43, 64
5, 140352, Note_on_c, 2, 48, 110
5, 140512, Note_off_c, 2, 48, 64
5, 140544, Note_on_c, 2, 55, 110
5, 140704, Note_off_c, 2, 55, 64
5, 140736, Note_on_c, 2, 55, 110
5, 140896, Note_off_c, 2, 55, 64
5, 140928, Note_on_c, 2, 55, 110
5, 141088, Note_off_c, 2, 55, 64
5, 141120, Note_on_c, 2, 55, 110
5, 141280, Note_off_c, 2, 55, 64
5, 141312, Note_on_c, 2, 56, 110
5, 141790, Note_off_c, 2, 56, 64
5, 141792, Note_on_c, 2, 53, 110
5, 141886, Note_off_c, 2, 53, 64
5, 141888, Note_on_c, 2, 50, 110
5, 141982, Note_off_c, 2, 50, 64
5, 141984, Note_on_c, 2, 53, 110
5, 142078, Note_off_c, 2, 53, 64
5, 142080, Note_on_c, 2, 47, 110
5, 142240, Note_off_c, 2, 47, 64
5, 142272, Note_on_c, 2, 56, 110
5, 142432, Note_off_c, 2, 56, 64
5, 142464, Note_on_c, 2, 55, 110
5, 142624, Note_off_c, 2, 55, 64
5, 142656, Note_on_c, 2, 53, 110
5, 142816, Note_off_c, 2, 53, 64
5, 142848, Note_on_c, 2, 51, 110
5, 143008, Note_off_c, 2, 51, 64
5, 143040, Note_on_c, 2, 50, 110
5, 143134, Note_off_c, 2, 50, 64
5, 143136, Note_on_c, 2, 51, 110
5, 143230, Note_off_c, 2, 51, 64
5, 143232, Note_on_c, 2, 48, 110
5, 143326, Note_off_c, 2, 48, 64
5, 143328, Note_on_c, 2, 50, 110
5, 143422, Note_off_c, 2, 50, 64
5, 143424, Note_on_c, 2, 46, 110
5, 143518, Note_off_c, 2, 46, 64
5, 143520, Note_on_c, 2, 48, 110
5, 143614, Note_off_c, 2, 48, 64
5, 143616, Note_on_c, 2, 45, 110
5, 144336, Note_off_c, 2, 45, 64
5, 144384, Note_on_c, 2, 43, 110
5, 144478, Note_off_c, 2, 43, 64
5, 144480, Note_on_c, 2, 55, 110
5, 144574, Note_off_c, 2, 55, 64
5, 144576, Note_on_c, 2, 51, 110
5, 144670, Note_off_c, 2, 51, 64
5, 144672, Note_on_c, 2, 55, 110
5, 144766, Note_off_c, 2, 55, 64
5, 144768, Note_on_c, 2, 48, 110
5, 145246, Note_off_c, 2, 48, 64
5, 145248, Note_on_c, 2, 60, 110
5, 145342, Note_off_c, 2, 60, 64
5, 145344, Note_on_c, 2, 57, 110
5, 145438, Note_off_c, 2, 57, 64
5, 145440, Note_on_c, 2, 60, 110
5, 145534, Note_off_c, 2, 60, 64
5, 145536, Note_on_c, 2, 54, 110
5, 145872, Note_off_c, 2, 54, 64
5, 145920, Note_on_c, 2, 55, 110
5, 146398, Note_off_c, 2, 55, 64
5, 146400, Note_on_c, 2, 55, 110
5, 146494, Note_off_c, 2, 55, 64
5, 146496, Note_on_c, 2, 50, 110
5, 146590, Note_off_c, 2, 50, 64
5, 146592, Note_on_c, 2, 53, 110
5, 146686, Note_off_c, 2, 53, 64
5, 146688, Note_on_c, 2, 52, 110
5, 146848, Note_off_c, 2, 52, 64
5, 146880, Note_on_c, 2, 55, 110
5, 147040, Note_off_c, 2, 55, 64
5, 147072, Note_on_c, 2, 48, 110
5, 147232, Note_off_c, 2, 48, 64
5, 147264, Note_on_c, 2, 52, 110
5, 147424, Note_off_c, 2, 52, 64
5, 147456, Note_on_c, 2, 53, 110
5, 147934, Note_off_c, 2, 53, 64
5, 147936, Note_on_c, 2, 53, 110
5, 148030, Note_off_c, 2, 53, 64
5, 148032, Note_on_c, 2, 48, 110
5, 148126, Note_off_c, 2, 48, 64
5, 148128, Note_on_c, 2, 51, 110
5, 148222, Note_off_c, 2, 51, 64
5, 148224, Note_on_c, 2, 50, 110
5, 148384, Note_off_c, 2, 50, 64
5, 148416, Note_on_c, 2, 53, 110
5, 148576, Note_off_c, 2, 53, 64
5, 148608, Note_on_c, 2, 46, 110
5, 148768, Note_off_c, 2, 46, 64
5, 148800, Note_on_c, 2, 50, 110
5, 148960, Note_off_c, 2, 50, 64
5, 148992, Note_on_c, 2, 51, 110
5, 149470, Note_off_c, 2, 51, 64
5, 149472, Note_on_c, 2, 51, 110
5, 149566, Note_off_c, 2, 51, 64
5, 149568, Note_on_c, 2, 48, 110
5, 149662, Note_off_c, 2, 48, 64
5, 149664, Note_on_c, 2, 51, 110
5, 149758, Note_off_c, 2, 51, 64
5, 149760, Note_on_c, 2, 44, 110
5, 150480, Note_off_c, 2, 44, 64
5, 150528, Note_on_c, 2, 43, 110
5, 153552, Note_off_c, 2, 43, 64
5, 153600, Note_on_c, 2, 48, 110
5, 153760, Note_off_c, 2, 48, 64
5, 153792, Note_on_c, 2, 50, 110
5, 153952, Note_off_c, 2, 50, 64
5, 153984, Note_on_c, 2, 51, 110
5, 154144, Note_off_c, 2, 51, 64
5, 154176, Note_on_c, 2, 53, 110
5, 154336, Note_off_c, 2, 53, 64
5, 154368, Note_on_c, 2, 55, 110
5, 154704, Note_off_c, 2, 55, 64
5, 154752, Note_on_c, 2, 43, 110
5, 155088, Note_off_c, 2, 43, 64
5, 155136, Note_on_c, 2, 36, 110
5, 155664, Note_off_c, 2, 36, 64
5, 155664, End_track
0, 0, End_of_file
