0, 0, Header, 1, 4, 240
1, 0, Start_track
1, 0, Time_signature, 3, 2, 24, 8
1, 0, Tempo, 666667
1, 23040, Time_signature, 3, 2, 24, 8
1, 23040, End_track
2, 0, Start_track
2, 0, Title_t, "Trio Sonata 5, Allegro"
2, 0, Program_c, 0, 19
2, 0, Control_c, 0, 7, 127
2, 0, Note_on_c, 0, 63, 100
2, 96, Note_off_c, 0, 63, 64
2, 120, Note_on_c, 0, 75, 100
2, 216, Note_off_c, 0, 75, 64
2, 240, Note_on_c, 0, 65, 100
2, 336, Note_off_c, 0, 65, 64
2, 360, Note_on_c, 0, 75, 100
2, 456, Note_off_c, 0, 75, 64
2, 480, Note_on_c, 0, 67, 100
2, 576, Note_off_c, 0, 67, 64
2, 600, Note_on_c, 0, 75, 100
2, 696, Note_off_c, 0, 75, 64
2, 720, Note_on_c, 0, 68, 100
2, 816, Note_off_c, 0, 68, 64
2, 840, Note_on_c, 0, 75, 100
2, 936, Note_off_c, 0, 75, 64
2, 960, Note_on_c, 0, 70, 100
2, 1056, Note_off_c, 0, 70, 64
2, 1080, Note_on_c, 0, 75, 100
2, 1176, Note_off_c, 0, 75, 64
2, 1200, Note_on_c, 0, 72, 100
2, 1296, Note_off_c, 0, 72, 64
2, 1320, Note_on_c, 0, 75, 100
2, 1416, Note_off_c, 0, 75, 64
2, 1440, Note_on_c, 0, 70, 100
2, 1488, Note_off_c, 0, 70, 64
2, 1500, Note_on_c, 0, 75, 100
2, 1548, Note_off_c, 0, 75, 64
2, 1560, Note_on_c, 0, 74, 100
2, 1608, Note_off_c, 0, 74, 64
2, 1620, Note_on_c, 0, 72, 100
2, 1668, Note_off_c, 0, 72, 64
2, 1680, Note_on_c, 0, 70, 100
2, 1728, Note_off_c, 0, 70, 64
2, 1740, Note_on_c, 0, 79, 100
2, 1788, Note_off_c, 0, 79, 64
2, 1800, Note_on_c, 0, 77, 100
2, 1848, Note_off_c, 0, 77, 64
2, 1860, Note_on_c, 0, 75, 100
2, 1908, Note_off_c, 0, 75, 64
2, 1920, Note_on_c, 0, 74, 100
2, 1968, Note_off_c, 0, 74, 64
2, 1980, Note_on_c, 0, 72, 100
2, 2028, Note_off_c, 0, 72, 64
2, 2040, Note_on_c, 0, 70, 100
2, 2088, Note_off_c, 0, 70, 64
2, 2100, Note_on_c, 0, 68, 100
2, 2148, Note_off_c, 0, 68, 64
2, 2160, Note_on_c, 0, 67, 100
2, 2208, Note_off_c, 0, 67, 64
2, 2220, Note_on_c, 0, 68, 100
2, 2268, Note_off_c, 0, 68, 64
2, 2280, Note_on_c, 0, 70, 100
2, 2328, Note_off_c, 0, 70, 64
2, 2340, Note_on_c, 0, 67, 100
2, 2388, Note_off_c, 0, 67, 64
2, 2400, Note_on_c, 0, 63, 100
2, 2448, Note_off_c, 0, 63, 64
2, 2460, Note_on_c, 0, 67, 100
2, 2508, Note_off_c, 0, 67, 64
2, 2520, Note_on_c, 0, 70, 100
2, 2568, Note_off_c, 0, 70, 64
2, 2580, Note_on_c, 0, 75, 100
2, 2628, Note_off_c, 0, 75, 64
2, 2640, Note_on_c, 0, 65, 100
2, 2688, Note_off_c, 0, 65, 64
2, 2700, Note_on_c, 0, 69, 100
2, 2748, Note_off_c, 0, 69, 64
2, 2760, Note_on_c, 0, 72, 100
2, 2808, Note_off_c, 0, 72, 64
2, 2820, Note_on_c, 0, 75, 100
2, 2868, Note_off_c, 0, 75, 64
2, 2880, Note_on_c, 0, 74, 100
2, 2928, Note_off_c, 0, 74, 64
2, 2940, Note_on_c, 0, 72, 100
2, 2988, Note_off_c, 0, 72, 64
2, 3000, Note_on_c, 0, 74, 100
2, 3048, Note_off_c, 0, 74, 64
2, 3060, Note_on_c, 0, 77, 100
2, 3108, Note_off_c, 0, 77, 64
2, 3120, Note_on_c, 0, 75, 100
2, 3168, Note_off_c, 0, 75, 64
2, 3180, Note_on_c, 0, 74, 100
2, 3228, Note_off_c, 0, 74, 64
2, 3240, Note_on_c, 0, 75, 100
2, 3288, Note_off_c, 0, 75, 64
2, 3300, Note_on_c, 0, 79, 100
2, 3348, Note_off_c, 0, 79, 64
2, 3360, Note_on_c, 0, 77, 100
2, 3408, Note_off_c, 0, 77, 64
2, 3420, Note_on_c, 0, 75, 100
2, 3468, Note_off_c, 0, 75, 64
2, 3480, Note_on_c, 0, 77, 100
2, 3528, Note_off_c, 0, 77, 64
2, 3540, Note_on_c, 0, 80, 100
2, 3588, Note_off_c, 0, 80, 64
2, 3600, Note_on_c, 0, 79, 100
2, 3648, Note_off_c, 0, 79, 64
2, 3660, Note_on_c, 0, 77, 100
2, 3708, Note_off_c, 0, 77, 64
2, 3720, Note_on_c, 0, 79, 100
2, 3768, Note_off_c, 0, 79, 64
2, 3780, Note_on_c, 0, 82, 100
2, 3828, Note_off_c, 0, 82, 64
2, 3840, Note_on_c, 0, 74, 100
2, 3888, Note_off_c, 0, 74, 64
2, 3900, Note_on_c, 0, 72, 100
2, 3948, Note_off_c, 0, 72, 64
2, 3960, Note_on_c, 0, 74, 100
2, 4008, Note_off_c, 0, 74, 64
2, 4020, Note_on_c, 0, 82, 100
2, 4068, Note_off_c, 0, 82, 64
2, 4080, Note_on_c, 0, 75, 100
2, 4128, Note_off_c, 0, 75, 64
2, 4140, Note_on_c, 0, 74, 100
2, 4188, Note_off_c, 0, 74, 64
2, 4200, Note_on_c, 0, 75, 100
2, 4248, Note_off_c, 0, 75, 64
2, 4260, Note_on_c, 0, 82, 100
2, 4308, Note_off_c, 0, 82, 64
2, 4320, Note_on_c, 0, 74, 100
2, 4416, Note_off_c, 0, 74, 64
2, 4440, Note_on_c, 0, 77, 100
2, 4536, Note_off_c, 0, 77, 64
2, 4560, Note_on_c, 0, 82, 100
2, 4656, Note_off_c, 0, 82, 64
2, 4680, Note_on_c, 0, 74, 100
2, 4776, Note_off_c, 0, 74, 64
2, 4800, Note_on_c, 0, 72, 100
2, 4896, Note_off_c, 0, 72, 64
2, 4920, Note_on_c, 0, 81, 100
2, 5016, Note_off_c, 0, 81, 64
2, 5040, Note_on_c, 0, 82, 100
2, 5136, Note_off_c, 0, 82, 64
2, 5160, Note_on_c, 0, 74, 100
2, 5256, Note_off_c, 0, 74, 64
2, 5280, Note_on_c, 0, 77, 100
2, 5376, Note_off_c, 0, 77, 64
2, 5400, Note_on_c, 0, 74, 100
2, 5496, Note_off_c, 0, 74, 64
2, 5520, Note_on_c, 0, 70, 100
2, 5616, Note_off_c, 0, 70, 64
2, 5640, Note_on_c, 0, 74, 100
2, 5736, Note_off_c, 0, 74, 64
2, 5760, Note_on_c, 0, 75, 100
2, 5856, Note_off_c, 0, 75, 64
2, 6000, Note_on_c, 0, 75, 100
2, 6096, Note_off_c, 0, 75, 64
2, 6240, Note_on_c, 0, 75, 100
2, 6336, Note_off_c, 0, 75, 64
2, 6480, Note_on_c, 0, 75, 100
2, 6576, Note_off_c, 0, 75, 64
2, 6720, Note_on_c, 0, 75, 100
2, 6816, Note_off_c, 0, 75, 64
2, 6960, Note_on_c, 0, 75, 100
2, 7056, Note_off_c, 0, 75, 64
2, 7260, Note_on_c, 0, 75, 100
2, 7308, Note_off_c, 0, 75, 64
2, 7320, Note_on_c, 0, 77, 100
2, 7368, Note_off_c, 0, 77, 64
2, 7380, Note_on_c, 0, 79, 100
2, 7428, Note_off_c, 0, 79, 64
2, 7440, Note_on_c, 0, 80, 100
2, 7488, Note_off_c, 0, 80, 64
2, 7500, Note_on_c, 0, 82, 100
2, 7548, Note_off_c, 0, 82, 64
2, 7560, Note_on_c, 0, 84, 100
2, 7608, Note_off_c, 0, 84, 64
2, 7620, Note_on_c, 0, 82, 100
2, 7668, Note_off_c, 0, 82, 64
2, 7680, Note_on_c, 0, 80, 100
2, 7728, Note_off_c, 0, 80, 64
2, 7740, Note_on_c, 0, 79, 100
2, 7788, Note_off_c, 0, 79, 64
2, 7800, Note_on_c, 0, 77, 100
2, 7848, Note_off_c, 0, 77, 64
2, 7860, Note_on_c, 0, 80, 100
2, 7908, Note_off_c, 0, 80, 64
2, 7920, Note_on_c, 0, 79, 100
2, 8016, Note_off_c, 0, 79, 64
2, 8040, Note_on_c, 0, 70, 100
2, 8136, Note_off_c, 0, 70, 64
2, 8160, Note_on_c, 0, 72, 100
2, 8256, Note_off_c, 0, 72, 64
2, 8280, Note_on_c, 0, 68, 100
2, 8376, Note_off_c, 0, 68, 64
2, 8400, Note_on_c, 0, 77, 100
2, 8688, Note_off_c, 0, 77, 64
2, 8700, Note_on_c, 0, 80, 100
2, 8748, Note_off_c, 0, 80, 64
2, 8760, Note_on_c, 0, 79, 100
2, 8808, Note_off_c, 0, 79, 64
2, 8820, Note_on_c, 0, 77, 100
2, 8868, Note_off_c, 0, 77, 64
2, 8880, Note_on_c, 0, 75, 100
2, 8928, Note_off_c, 0, 75, 64
2, 8940, Note_on_c, 0, 74, 100
2, 8988, Note_off_c, 0, 74, 64
2, 9000, Note_on_c, 0, 72, 100
2, 9048, Note_off_c, 0, 72, 64
2, 9060, Note_on_c, 0, 70, 100
2, 9108, Note_off_c, 0, 70, 64
2, 9120, Note_on_c, 0, 68, 100
2, 9168, Note_off_c, 0, 68, 64
2, 9180, Note_on_c, 0, 67, 100
2, 9228, Note_off_c, 0, 67, 64
2, 9240, Note_on_c, 0, 68, 100
2, 9288, Note_off_c, 0, 68, 64
2, 9300, Note_on_c, 0, 77, 100
2, 9348, Note_off_c, 0, 77, 64
2, 9360, Note_on_c, 0, 67, 100
2, 9408, Note_off_c, 0, 67, 64
2, 9420, Note_on_c, 0, 77, 100
2, 9468, Note_off_c, 0, 77, 64
2, 9480, Note_on_c, 0, 75, 100
2, 9528, Note_off_c, 0, 75, 64
2, 9540, Note_on_c, 0, 74, 100
2, 9588, Note_off_c, 0, 74, 64
2, 9600, Note_on_c, 0, 72, 100
2, 9648, Note_off_c, 0, 72, 64
2, 9660, Note_on_c, 0, 70, 100
2, 9708, Note_off_c, 0, 70, 64
2, 9720, Note_on_c, 0, 68, 100
2, 9768, Note_off_c, 0, 68, 64
2, 9780, Note_on_c, 0, 67, 100
2, 9828, Note_off_c, 0, 67, 64
2, 9840, Note_on_c, 0, 65, 100
2, 10128, Note_off_c, 0, 65, 64
2, 10140, Note_on_c, 0, 68, 100
2, 10188, Note_off_c, 0, 68, 64
2, 10200, Note_on_c, 0, 67, 100
2, 10248, Note_off_c, 0, 67, 64
2, 10260, Note_on_c, 0, 65, 100
2, 10308, Note_off_c, 0, 65, 64
2, 10320, Note_on_c, 0, 63, 100
2, 10608, Note_off_c, 0, 63, 64
2, 10620, Note_on_c, 0, 62, 100
2, 10668, Note_off_c, 0, 62, 64
2, 10680, Note_on_c, 0, 63, 100
2, 10728, Note_off_c, 0, 63, 64
2, 10740, Note_on_c, 0, 65, 100
2, 10788, Note_off_c, 0, 65, 64
2, 10800, Note_on_c, 0, 59, 100
2, 10896, Note_off_c, 0, 59, 64
2, 10920, Note_on_c, 0, 62, 100
2, 11016, Note_off_c, 0, 62, 64
2, 11040, Note_on_c, 0, 67, 100
2, 11136, Note_off_c, 0, 67, 64
2, 11160, Note_on_c, 0, 71, 100
2, 11256, Note_off_c, 0, 71, 64
2, 11280, Note_on_c, 0, 72, 100
2, 11376, Note_off_c, 0, 72, 64
2, 11400, Note_on_c, 0, 74, 100
2, 11496, Note_off_c, 0, 74, 64
2, 11520, Note_on_c, 0, 75, 100
2, 11568, Note_off_c, 0, 75, 64
2, 11580, Note_on_c, 0, 72, 100
2, 11628, Note_off_c, 0, 72, 64
2, 11640, Note_on_c, 0, 71, 100
2, 11688, Note_off_c, 0, 71, 64
2, 11700, Note_on_c, 0, 72, 100
2, 11748, Note_off_c, 0, 72, 64
2, 11760, Note_on_c, 0, 67, 100
2, 11808, Note_off_c, 0, 67, 64
2, 11820, Note_on_c, 0, 72, 100
2, 11868, Note_off_c, 0, 72, 64
2, 11880, Note_on_c, 0, 71, 100
2, 11928, Note_off_c, 0, 71, 64
2, 11940, Note_on_c, 0, 72, 100
2, 11988, Note_off_c, 0, 72, 64
2, 12000, Note_on_c, 0, 75, 100
2, 12048, Note_off_c, 0, 75, 64
2, 12060, Note_on_c, 0, 72, 100
2, 12108, Note_off_c, 0, 72, 64
2, 12120, Note_on_c, 0, 71, 100
2, 12168, Note_off_c, 0, 71, 64
2, 12180, Note_on_c, 0, 72, 100
2, 12228, Note_off_c, 0, 72, 64
2, 12240, Note_on_c, 0, 68, 100
2, 12336, Note_off_c, 0, 68, 64
2, 12480, Note_on_c, 0, 75, 100
2, 12576, Note_off_c, 0, 75, 64
2, 12720, Note_on_c, 0, 75, 100
2, 12816, Note_off_c, 0, 75, 64
2, 13020, Note_on_c, 0, 70, 100
2, 13068, Note_off_c, 0, 70, 64
2, 13080, Note_on_c, 0, 68, 100
2, 13128, Note_off_c, 0, 68, 64
2, 13140, Note_on_c, 0, 70, 100
2, 13188, Note_off_c, 0, 70, 64
2, 13200, Note_on_c, 0, 65, 100
2, 13248, Note_off_c, 0, 65, 64
2, 13260, Note_on_c, 0, 70, 100
2, 13308, Note_off_c, 0, 70, 64
2, 13320, Note_on_c, 0, 68, 100
2, 13368, Note_off_c, 0, 68, 64
2, 13380, Note_on_c, 0, 70, 100
2, 13428, Note_off_c, 0, 70, 64
2, 13440, Note_on_c, 0, 74, 100
2, 13488, Note_off_c, 0, 74, 64
2, 13500, Note_on_c, 0, 70, 100
2, 13548, Note_off_c, 0, 70, 64
2, 13560, Note_on_c, 0, 68, 100
2, 13608, Note_off_c, 0, 68, 64
2, 13620, Note_on_c, 0, 70, 100
2, 13668, Note_off_c, 0, 70, 64
2, 13680, Note_on_c, 0, 67, 100
2, 13776, Note_off_c, 0, 67, 64
2, 13920, Note_on_c, 0, 73, 100
2, 14016, Note_off_c, 0, 73, 64
2, 14160, Note_on_c, 0, 73, 100
2, 14256, Note_off_c, 0, 73, 64
2, 14460, Note_on_c, 0, 68, 100
2, 14508, Note_off_c, 0, 68, 64
2, 14520, Note_on_c, 0, 67, 100
2, 14568, Note_off_c, 0, 67, 64
2, 14580, Note_on_c, 0, 68, 100
2, 14628, Note_off_c, 0, 68, 64
2, 14640, Note_on_c, 0, 65, 100
2, 14688, Note_off_c, 0, 65, 64
2, 14700, Note_on_c, 0, 68, 100
2, 14748, Note_off_c, 0, 68, 64
2, 14760, Note_on_c, 0, 67, 100
2, 14808, Note_off_c, 0, 67, 64
2, 14820, Note_on_c, 0, 68, 100
2, 14868, Note_off_c, 0, 68, 64
2, 14880, Note_on_c, 0, 72, 100
2, 14928, Note_off_c, 0, 72, 64
2, 14940, Note_on_c, 0, 68, 100
2, 14988, Note_off_c, 0, 68, 64
2, 15000, Note_on_c, 0, 67, 100
2, 15048, Note_off_c, 0, 67, 64
2, 15060, Note_on_c, 0, 68, 100
2, 15108, Note_off_c, 0, 68, 64
2, 15120, Note_on_c, 0, 65, 100
2, 15168, Note_off_c, 0, 65, 64
2, 15180, Note_on_c, 0, 70, 100
2, 15228, Note_off_c, 0, 70, 64
2, 15240, Note_on_c, 0, 68, 100
2, 15288, Note_off_c, 0, 68, 64
2, 15300, Note_on_c, 0, 70, 100
2, 15348, Note_off_c, 0, 70, 64
2, 15360, Note_on_c, 0, 74, 100
2, 15408, Note_off_c, 0, 74, 64
2, 15420, Note_on_c, 0, 70, 100
2, 15468, Note_off_c, 0, 70, 64
2, 15480, Note_on_c, 0, 68, 100
2, 15528, Note_off_c, 0, 68, 64
2, 15540, Note_on_c, 0, 70, 100
2, 15588, Note_off_c, 0, 70, 64
2, 15600, Note_on_c, 0, 77, 100
2, 15648, Note_off_c, 0, 77, 64
2, 15660, Note_on_c, 0, 74, 100
2, 15708, Note_off_c, 0, 74, 64
2, 15720, Note_on_c, 0, 72, 100
2, 15768, Note_off_c, 0, 72, 64
2, 15780, Note_on_c, 0, 74, 100
2, 15828, Note_off_c, 0, 74, 64
2, 15840, Note_on_c, 0, 82, 100
2, 15936, Note_off_c, 0, 82, 64
2, 15960, Note_on_c, 0, 79, 100
2, 16056, Note_off_c, 0, 79, 64
2, 16080, Note_on_c, 0, 75, 100
2, 16608, Note_off_c, 0, 75, 64
2, 16620, Note_on_c, 0, 74, 100
2, 16668, Note_off_c, 0, 74, 64
2, 16680, Note_on_c, 0, 72, 100
2, 16728, Note_off_c, 0, 72, 64
2, 16740, Note_on_c, 0, 70, 100
2, 16788, Note_off_c, 0, 70, 64
2, 16800, Note_on_c, 0, 69, 100
2, 16848, Note_off_c, 0, 69, 64
2, 16860, Note_on_c, 0, 70, 100
2, 16908, Note_off_c, 0, 70, 64
2, 16920, Note_on_c, 0, 69, 100
2, 16968, Note_off_c, 0, 69, 64
2, 16980, Note_on_c, 0, 67, 100
2, 17028, Note_off_c, 0, 67, 64
2, 17040, Note_on_c, 0, 65, 100
2, 17088, Note_off_c, 0, 65, 64
2, 17100, Note_on_c, 0, 75, 100
2, 17148, Note_off_c, 0, 75, 64
2, 17160, Note_on_c, 0, 74, 100
2, 17208, Note_off_c, 0, 74, 64
2, 17220, Note_on_c, 0, 72, 100
2, 17268, Note_off_c, 0, 72, 64
2, 17280, Note_on_c, 0, 70, 100
2, 18048, Note_off_c, 0, 70, 64
2, 18060, Note_on_c, 0, 69, 100
2, 18108, Note_off_c, 0, 69, 64
2, 18120, Note_on_c, 0, 70, 100
2, 18168, Note_off_c, 0, 70, 64
2, 18180, Note_on_c, 0, 75, 100
2, 18228, Note_off_c, 0, 75, 64
2, 18240, Note_on_c, 0, 70, 100
2, 18288, Note_off_c, 0, 70, 64
2, 18300, Note_on_c, 0, 69, 100
2, 18348, Note_off_c, 0, 69, 64
2, 18360, Note_on_c, 0, 70, 100
2, 18408, Note_off_c, 0, 70, 64
2, 18420, Note_on_c, 0, 74, 100
2, 18468, Note_off_c, 0, 74, 64
2, 18480, Note_on_c, 0, 72, 100
2, 18768, Note_off_c, 0, 72, 64
2, 18780, Note_on_c, 0, 79, 100
2, 18828, Note_off_c, 0, 79, 64
2, 18840, Note_on_c, 0, 77, 100
2, 18888, Note_off_c, 0, 77, 64
2, 18900, Note_on_c, 0, 75, 100
2, 18948, Note_off_c, 0, 75, 64
2, 18960, Note_on_c, 0, 74, 100
2, 19008, Note_off_c, 0, 74, 64
2, 19020, Note_on_c, 0, 82, 100
2, 19068, Note_off_c, 0, 82, 64
2, 19080, Note_on_c, 0, 81, 100
2, 19128, Note_off_c, 0, 81, 64
2, 19140, Note_on_c, 0, 79, 100
2, 19188, Note_off_c, 0, 79, 64
2, 19200, Note_on_c, 0, 77, 100
2, 19248, Note_off_c, 0, 77, 64
2, 19260, Note_on_c, 0, 75, 100
2, 19308, Note_off_c, 0, 75, 64
2, 19320, Note_on_c, 0, 74, 100
2, 19368, Note_off_c, 0, 74, 64
2, 19380, Note_on_c, 0, 72, 100
2, 19428, Note_off_c, 0, 72, 64
2, 19440, Note_on_c, 0, 70, 100
2, 19536, Note_off_c, 0, 70, 64
2, 19560, Note_on_c, 0, 77, 100
2, 19656, Note_off_c, 0, 77, 64
2, 19680, Note_on_c, 0, 79, 100
2, 19776, Note_off_c, 0, 79, 64
2, 19800, Note_on_c, 0, 77, 100
2, 19896, Note_off_c, 0, 77, 64
2, 19920, Note_on_c, 0, 79, 100
2, 20016, Note_off_c, 0, 79, 64
2, 20040, Note_on_c, 0, 75, 100
2, 20136, Note_off_c, 0, 75, 64
2, 20160, Note_on_c, 0, 77, 100
2, 20208, Note_off_c, 0, 77, 64
2, 20220, Note_on_c, 0, 82, 100
2, 20268, Note_off_c, 0, 82, 64
2, 20280, Note_on_c, 0, 81, 100
2, 20328, Note_off_c, 0, 81, 64
2, 20340, Note_on_c, 0, 82, 100
2, 20388, Note_off_c, 0, 82, 64
2, 20400, Note_on_c, 0, 75, 100
2, 20448, Note_off_c, 0, 75, 64
2, 20460, Note_on_c, 0, 82, 100
2, 20508, Note_off_c, 0, 82, 64
2, 20520, Note_on_c, 0, 74, 100
2, 20568, Note_off_c, 0, 74, 64
2, 20580, Note_on_c, 0, 82, 100
2, 20628, Note_off_c, 0, 82, 64
2, 20640, Note_on_c, 0, 75, 100
2, 20688, Note_off_c, 0, 75, 64
2, 20700, Note_on_c, 0, 82, 100
2, 20748, Note_off_c, 0, 82, 64
2, 20760, Note_on_c, 0, 72, 100
2, 20808, Note_off_c, 0, 72, 64
2, 20820, Note_on_c, 0, 82, 100
2, 20868, Note_off_c, 0, 82, 64
2, 20880, Note_on_c, 0, 74, 100
2, 21168, Note_off_c, 0, 74, 64
2, 21180, Note_on_c, 0, 70, 100
2, 21228, Note_off_c, 0, 70, 64
2, 21240, Note_on_c, 0, 72, 100
2, 21288, Note_off_c, 0, 72, 64
2, 21300, Note_on_c, 0, 74, 100
2, 21348, Note_off_c, 0, 74, 64
2, 21360, Note_on_c, 0, 75, 100
2, 21408, Note_off_c, 0, 75, 64
2, 21420, Note_on_c, 0, 77, 100
2, 21468, Note_off_c, 0, 77, 64
2, 21480, Note_on_c, 0, 79, 100
2, 21528, Note_off_c, 0, 79, 64
2, 21540, Note_on_c, 0, 81, 100
2, 21588, Note_off_c, 0, 81, 64
2, 21600, Note_on_c, 0, 82, 100
2, 21696, Note_off_c, 0, 82, 64
2, 21720, Note_on_c, 0, 70, 100
2, 21816, Note_off_c, 0, 70, 64
2, 21840, Note_on_c, 0, 72, 100
2, 21930, Note_off_c, 0, 72, 64
2, 22080, Note_on_c, 0, 69, 100
2, 22272, Note_off_c, 0, 69, 64
2, 22320, Note_on_c, 0, 70, 100
2, 22896, Note_off_c, 0, 70, 64
2, 23040, Note_on_c, 0, 63, 100
2, 23136, Note_off_c, 0, 63, 64
2, 23160, Note_on_c, 0, 75, 100
2, 23256, Note_off_c, 0, 75, 64
2, 23280, Note_on_c, 0, 65, 100
2, 23376, Note_off_c, 0, 65, 64
2, 23400, Note_on_c, 0, 75, 100
2, 23496, Note_off_c, 0, 75, 64
2, 23520, Note_on_c, 0, 67, 100
2, 23616, Note_off_c, 0, 67, 64
2, 23640, Note_on_c, 0, 75, 100
2, 23736, Note_off_c, 0, 75, 64
2, 23760, Note_on_c, 0, 68, 100
2, 23856, Note_off_c, 0, 68, 64
2, 23880, Note_on_c, 0, 75, 100
2, 23976, Note_off_c, 0, 75, 64
2, 24000, Note_on_c, 0, 70, 100
2, 24096, Note_off_c, 0, 70, 64
2, 24120, Note_on_c, 0, 75, 100
2, 24216, Note_off_c, 0, 75, 64
2, 24240, Note_on_c, 0, 72, 100
2, 24336, Note_off_c, 0, 72, 64
2, 24360, Note_on_c, 0, 75, 100
2, 24456, Note_off_c, 0, 75, 64
2, 24480, Note_on_c, 0, 70, 100
2, 24528, Note_off_c, 0, 70, 64
2, 24540, Note_on_c, 0, 75, 100
2, 24588, Note_off_c, 0, 75, 64
2, 24600, Note_on_c, 0, 74, 100
2, 24648, Note_off_c, 0, 74, 64
2, 24660, Note_on_c, 0, 72, 100
2, 24708, Note_off_c, 0, 72, 64
2, 24720, Note_on_c, 0, 70, 100
2, 24768, Note_off_c, 0, 70, 64
2, 24780, Note_on_c, 0, 79, 100
2, 24828, Note_off_c, 0, 79, 64
2, 24840, Note_on_c, 0, 77, 100
2, 24888, Note_off_c, 0, 77, 64
2, 24900, Note_on_c, 0, 75, 100
2, 24948, Note_off_c, 0, 75, 64
2, 24960, Note_on_c, 0, 74, 100
2, 25008, Note_off_c, 0, 74, 64
2, 25020, Note_on_c, 0, 72, 100
2, 25068, Note_off_c, 0, 72, 64
2, 25080, Note_on_c, 0, 70, 100
2, 25128, Note_off_c, 0, 70, 64
2, 25140, Note_on_c, 0, 68, 100
2, 25188, Note_off_c, 0, 68, 64
2, 25200, Note_on_c, 0, 67, 100
2, 25248, Note_off_c, 0, 67, 64
2, 25260, Note_on_c, 0, 68, 100
2, 25308, Note_off_c, 0, 68, 64
2, 25320, Note_on_c, 0, 70, 100
2, 25368, Note_off_c, 0, 70, 64
2, 25380, Note_on_c, 0, 67, 100
2, 25428, Note_off_c, 0, 67, 64
2, 25440, Note_on_c, 0, 63, 100
2, 25488, Note_off_c, 0, 63, 64
2, 25500, Note_on_c, 0, 67, 100
2, 25548, Note_off_c, 0, 67, 64
2, 25560, Note_on_c, 0, 70, 100
2, 25608, Note_off_c, 0, 70, 64
2, 25620, Note_on_c, 0, 75, 100
2, 25668, Note_off_c, 0, 75, 64
2, 25680, Note_on_c, 0, 65, 100
2, 25728, Note_off_c, 0, 65, 64
2, 25740, Note_on_c, 0, 69, 100
2, 25788, Note_off_c, 0, 69, 64
2, 25800, Note_on_c, 0, 72, 100
2, 25848, Note_off_c, 0, 72, 64
2, 25860, Note_on_c, 0, 75, 100
2, 25908, Note_off_c, 0, 75, 64
2, 25920, Note_on_c, 0, 74, 100
2, 25968, Note_off_c, 0, 74, 64
2, 25980, Note_on_c, 0, 72, 100
2, 26028, Note_off_c, 0, 72, 64
2, 26040, Note_on_c, 0, 74, 100
2, 26088, Note_off_c, 0, 74, 64
2, 26100, Note_on_c, 0, 77, 100
2, 26148, Note_off_c, 0, 77, 64
2, 26160, Note_on_c, 0, 75, 100
2, 26208, Note_off_c, 0, 75, 64
2, 26220, Note_on_c, 0, 74, 100
2, 26268, Note_off_c, 0, 74, 64
2, 26280, Note_on_c, 0, 75, 100
2, 26328, Note_off_c, 0, 75, 64
2, 26340, Note_on_c, 0, 79, 100
2, 26388, Note_off_c, 0, 79, 64
2, 26400, Note_on_c, 0, 77, 100
2, 26448, Note_off_c, 0, 77, 64
2, 26460, Note_on_c, 0, 75, 100
2, 26508, Note_off_c, 0, 75, 64
2, 26520, Note_on_c, 0, 77, 100
2, 26568, Note_off_c, 0, 77, 64
2, 26580, Note_on_c, 0, 80, 100
2, 26628, Note_off_c, 0, 80, 64
2, 26640, Note_on_c, 0, 79, 100
2, 26688, Note_off_c, 0, 79, 64
2, 26700, Note_on_c, 0, 77, 100
2, 26748, Note_off_c, 0, 77, 64
2, 26760, Note_on_c, 0, 79, 100
2, 26808, Note_off_c, 0, 79, 64
2, 26820, Note_on_c, 0, 82, 100
2, 26868, Note_off_c, 0, 82, 64
2, 26880, Note_on_c, 0, 74, 100
2, 26928, Note_off_c, 0, 74, 64
2, 26940, Note_on_c, 0, 72, 100
2, 26988, Note_off_c, 0, 72, 64
2, 27000, Note_on_c, 0, 74, 100
2, 27048, Note_off_c, 0, 74, 64
2, 27060, Note_on_c, 0, 82, 100
2, 27108, Note_off_c, 0, 82, 64
2, 27120, Note_on_c, 0, 75, 100
2, 27168, Note_off_c, 0, 75, 64
2, 27180, Note_on_c, 0, 74, 100
2, 27228, Note_off_c, 0, 74, 64
2, 27240, Note_on_c, 0, 75, 100
2, 27288, Note_off_c, 0, 75, 64
2, 27300, Note_on_c, 0, 82, 100
2, 27348, Note_off_c, 0, 82, 64
2, 27360, Note_on_c, 0, 74, 100
2, 27456, Note_off_c, 0, 74, 64
2, 27480, Note_on_c, 0, 77, 100
2, 27576, Note_off_c, 0, 77, 64
2, 27600, Note_on_c, 0, 82, 100
2, 27696, Note_off_c, 0, 82, 64
2, 27720, Note_on_c, 0, 74, 100
2, 27816, Note_off_c, 0, 74, 64
2, 27840, Note_on_c, 0, 72, 100
2, 27936, Note_off_c, 0, 72, 64
2, 27960, Note_on_c, 0, 81, 100
2, 28056, Note_off_c, 0, 81, 64
2, 28080, Note_on_c, 0, 82, 100
2, 28176, Note_off_c, 0, 82, 64
2, 28200, Note_on_c, 0, 74, 100
2, 28296, Note_off_c, 0, 74, 64
2, 28320, Note_on_c, 0, 77, 100
2, 28416, Note_off_c, 0, 77, 64
2, 28440, Note_on_c, 0, 74, 100
2, 28536, Note_off_c, 0, 74, 64
2, 28560, Note_on_c, 0, 70, 100
2, 28656, Note_off_c, 0, 70, 64
2, 28680, Note_on_c, 0, 74, 100
2, 28776, Note_off_c, 0, 74, 64
2, 28800, Note_on_c, 0, 75, 100
2, 28896, Note_off_c, 0, 75, 64
2, 29040, Note_on_c, 0, 75, 100
2, 29136, Note_off_c, 0, 75, 64
2, 29280, Note_on_c, 0, 75, 100
2, 29376, Note_off_c, 0, 75, 64
2, 29520, Note_on_c, 0, 75, 100
2, 29616, Note_off_c, 0, 75, 64
2, 29760, Note_on_c, 0, 75, 100
2, 29856, Note_off_c, 0, 75, 64
2, 30000, Note_on_c, 0, 75, 100
2, 30096, Note_off_c, 0, 75, 64
2, 30300, Note_on_c, 0, 75, 100
2, 30348, Note_off_c, 0, 75, 64
2, 30360, Note_on_c, 0, 77, 100
2, 30408, Note_off_c, 0, 77, 64
2, 30420, Note_on_c, 0, 79, 100
2, 30468, Note_off_c, 0, 79, 64
2, 30480, Note_on_c, 0, 80, 100
2, 30528, Note_off_c, 0, 80, 64
2, 30540, Note_on_c, 0, 82, 100
2, 30588, Note_off_c, 0, 82, 64
2, 30600, Note_on_c, 0, 84, 100
2, 30648, Note_off_c, 0, 84, 64
2, 30660, Note_on_c, 0, 82, 100
2, 30708, Note_off_c, 0, 82, 64
2, 30720, Note_on_c, 0, 80, 100
2, 30768, Note_off_c, 0, 80, 64
2, 30780, Note_on_c, 0, 79, 100
2, 30828, Note_off_c, 0, 79, 64
2, 30840, Note_on_c, 0, 77, 100
2, 30888, Note_off_c, 0, 77, 64
2, 30900, Note_on_c, 0, 80, 100
2, 30948, Note_off_c, 0, 80, 64
2, 30960, Note_on_c, 0, 79, 100
2, 31056, Note_off_c, 0, 79, 64
2, 31080, Note_on_c, 0, 70, 100
2, 31176, Note_off_c, 0, 70, 64
2, 31200, Note_on_c, 0, 72, 100
2, 31296, Note_off_c, 0, 72, 64
2, 31320, Note_on_c, 0, 68, 100
2, 31416, Note_off_c, 0, 68, 64
2, 31440, Note_on_c, 0, 77, 100
2, 31728, Note_off_c, 0, 77, 64
2, 31740, Note_on_c, 0, 80, 100
2, 31788, Note_off_c, 0, 80, 64
2, 31800, Note_on_c, 0, 79, 100
2, 31848, Note_off_c, 0, 79, 64
2, 31860, Note_on_c, 0, 77, 100
2, 31908, Note_off_c, 0, 77, 64
2, 31920, Note_on_c, 0, 75, 100
2, 31968, Note_off_c, 0, 75, 64
2, 31980, Note_on_c, 0, 74, 100
2, 32028, Note_off_c, 0, 74, 64
2, 32040, Note_on_c, 0, 72, 100
2, 32088, Note_off_c, 0, 72, 64
2, 32100, Note_on_c, 0, 70, 100
2, 32148, Note_off_c, 0, 70, 64
2, 32160, Note_on_c, 0, 68, 100
2, 32208, Note_off_c, 0, 68, 64
2, 32220, Note_on_c, 0, 67, 100
2, 32268, Note_off_c, 0, 67, 64
2, 32280, Note_on_c, 0, 68, 100
2, 32328, Note_off_c, 0, 68, 64
2, 32340, Note_on_c, 0, 77, 100
2, 32388, Note_off_c, 0, 77, 64
2, 32400, Note_on_c, 0, 67, 100
2, 32448, Note_off_c, 0, 67, 64
2, 32460, Note_on_c, 0, 77, 100
2, 32508, Note_off_c, 0, 77, 64
2, 32520, Note_on_c, 0, 75, 100
2, 32568, Note_off_c, 0, 75, 64
2, 32580, Note_on_c, 0, 74, 100
2, 32628, Note_off_c, 0, 74, 64
2, 32640, Note_on_c, 0, 72, 100
2, 32688, Note_off_c, 0, 72, 64
2, 32700, Note_on_c, 0, 70, 100
2, 32748, Note_off_c, 0, 70, 64
2, 32760, Note_on_c, 0, 68, 100
2, 32808, Note_off_c, 0, 68, 64
2, 32820, Note_on_c, 0, 67, 100
2, 32868, Note_off_c, 0, 67, 64
2, 32880, Note_on_c, 0, 65, 100
2, 33168, Note_off_c, 0, 65, 64
2, 33180, Note_on_c, 0, 68, 100
2, 33228, Note_off_c, 0, 68, 64
2, 33240, Note_on_c, 0, 67, 100
2, 33288, Note_off_c, 0, 67, 64
2, 33300, Note_on_c, 0, 65, 100
2, 33348, Note_off_c, 0, 65, 64
2, 33360, Note_on_c, 0, 63, 100
2, 33648, Note_off_c, 0, 63, 64
2, 33660, Note_on_c, 0, 62, 100
2, 33708, Note_off_c, 0, 62, 64
2, 33720, Note_on_c, 0, 63, 100
2, 33768, Note_off_c, 0, 63, 64
2, 33780, Note_on_c, 0, 65, 100
2, 33828, Note_off_c, 0, 65, 64
2, 33840, Note_on_c, 0, 59, 100
2, 33936, Note_off_c, 0, 59, 64
2, 33960, Note_on_c, 0, 62, 100
2, 34056, Note_off_c, 0, 62, 64
2, 34080, Note_on_c, 0, 67, 100
2, 34176, Note_off_c, 0, 67, 64
2, 34200, Note_on_c, 0, 71, 100
2, 34296, Note_off_c, 0, 71, 64
2, 34320, Note_on_c, 0, 72, 100
2, 34416, Note_off_c, 0, 72, 64
2, 34440, Note_on_c, 0, 74, 100
2, 34536, Note_off_c, 0, 74, 64
2, 34560, Note_on_c, 0, 75, 100
2, 34608, Note_off_c, 0, 75, 64
2, 34620, Note_on_c, 0, 72, 100
2, 34668, Note_off_c, 0, 72, 64
2, 34680, Note_on_c, 0, 71, 100
2, 34728, Note_off_c, 0, 71, 64
2, 34740, Note_on_c, 0, 72, 100
2, 34788, Note_off_c, 0, 72, 64
2, 34800, Note_on_c, 0, 67, 100
2, 34848, Note_off_c, 0, 67, 64
2, 34860, Note_on_c, 0, 72, 100
2, 34908, Note_off_c, 0, 72, 64
2, 34920, Note_on_c, 0, 71, 100
2, 34968, Note_off_c, 0, 71, 64
2, 34980, Note_on_c, 0, 72, 100
2, 35028, Note_off_c, 0, 72, 64
2, 35040, Note_on_c, 0, 75, 100
2, 35088, Note_off_c, 0, 75, 64
2, 35100, Note_on_c, 0, 72, 100
2, 35148, Note_off_c, 0, 72, 64
2, 35160, Note_on_c, 0, 71, 100
2, 35208, Note_off_c, 0, 71, 64
2, 35220, Note_on_c, 0, 72, 100
2, 35268, Note_off_c, 0, 72, 64
2, 35280, Note_on_c, 0, 68, 100
2, 35376, Note_off_c, 0, 68, 64
2, 35520, Note_on_c, 0, 75, 100
2, 35616, Note_off_c, 0, 75, 64
2, 35760, Note_on_c, 0, 75, 100
2, 35856, Note_off_c, 0, 75, 64
2, 36060, Note_on_c, 0, 70, 100
2, 36108, Note_off_c, 0, 70, 64
2, 36120, Note_on_c, 0, 68, 100
2, 36168, Note_off_c, 0, 68, 64
2, 36180, Note_on_c, 0, 70, 100
2, 36228, Note_off_c, 0, 70, 64
2, 36240, Note_on_c, 0, 65, 100
2, 36288, Note_off_c, 0, 65, 64
2, 36300, Note_on_c, 0, 70, 100
2, 36348, Note_off_c, 0, 70, 64
2, 36360, Note_on_c, 0, 68, 100
2, 36408, Note_off_c, 0, 68, 64
2, 36420, Note_on_c, 0, 70, 100
2, 36468, Note_off_c, 0, 70, 64
2, 36480, Note_on_c, 0, 74, 100
2, 36528, Note_off_c, 0, 74, 64
2, 36540, Note_on_c, 0, 70, 100
2, 36588, Note_off_c, 0, 70, 64
2, 36600, Note_on_c, 0, 68, 100
2, 36648, Note_off_c, 0, 68, 64
2, 36660, Note_on_c, 0, 70, 100
2, 36708, Note_off_c, 0, 70, 64
2, 36720, Note_on_c, 0, 67, 100
2, 36816, Note_off_c, 0, 67, 64
2, 36960, Note_on_c, 0, 73, 100
2, 37056, Note_off_c, 0, 73, 64
2, 37200, Note_on_c, 0, 73, 100
2, 37296, Note_off_c, 0, 73, 64
2, 37500, Note_on_c, 0, 68, 100
2, 37548, Note_off_c, 0, 68, 64
2, 37560, Note_on_c, 0, 67, 100
2, 37608, Note_off_c, 0, 67, 64
2, 37620, Note_on_c, 0, 68, 100
2, 37668, Note_off_c, 0, 68, 64
2, 37680, Note_on_c, 0, 65, 100
2, 37728, Note_off_c, 0, 65, 64
2, 37740, Note_on_c, 0, 68, 100
2, 37788, Note_off_c, 0, 68, 64
2, 37800, Note_on_c, 0, 67, 100
2, 37848, Note_off_c, 0, 67, 64
2, 37860, Note_on_c, 0, 68, 100
2, 37908, Note_off_c, 0, 68, 64
2, 37920, Note_on_c, 0, 72, 100
2, 37968, Note_off_c, 0, 72, 64
2, 37980, Note_on_c, 0, 68, 100
2, 38028, Note_off_c, 0, 68, 64
2, 38040, Note_on_c, 0, 67, 100
2, 38088, Note_off_c, 0, 67, 64
2, 38100, Note_on_c, 0, 68, 100
2, 38148, Note_off_c, 0, 68, 64
2, 38160, Note_on_c, 0, 65, 100
2, 38208, Note_off_c, 0, 65, 64
2, 38220, Note_on_c, 0, 70, 100
2, 38268, Note_off_c, 0, 70, 64
2, 38280, Note_on_c, 0, 68, 100
2, 38328, Note_off_c, 0, 68, 64
2, 38340, Note_on_c, 0, 70, 100
2, 38388, Note_off_c, 0, 70, 64
2, 38400, Note_on_c, 0, 74, 100
2, 38448, Note_off_c, 0, 74, 64
2, 38460, Note_on_c, 0, 70, 100
2, 38508, Note_off_c, 0, 70, 64
2, 38520, Note_on_c, 0, 68, 100
2, 38568, Note_off_c, 0, 68, 64
2, 38580, Note_on_c, 0, 70, 100
2, 38628, Note_off_c, 0, 70, 64
2, 38640, Note_on_c, 0, 77, 100
2, 38688, Note_off_c, 0, 77, 64
2, 38700, Note_on_c, 0, 74, 100
2, 38748, Note_off_c, 0, 74, 64
2, 38760, Note_on_c, 0, 72, 100
2, 38808, Note_off_c, 0, 72, 64
2, 38820, Note_on_c, 0, 74, 100
2, 38868, Note_off_c, 0, 74, 64
2, 38880, Note_on_c, 0, 82, 100
2, 38976, Note_off_c, 0, 82, 64
2, 39000, Note_on_c, 0, 79, 100
2, 39096, Note_off_c, 0, 79, 64
2, 39120, Note_on_c, 0, 75, 100
2, 39648, Note_off_c, 0, 75, 64
2, 39660, Note_on_c, 0, 74, 100
2, 39708, Note_off_c, 0, 74, 64
2, 39720, Note_on_c, 0, 72, 100
2, 39768, Note_off_c, 0, 72, 64
2, 39780, Note_on_c, 0, 70, 100
2, 39828, Note_off_c, 0, 70, 64
2, 39840, Note_on_c, 0, 69, 100
2, 39888, Note_off_c, 0, 69, 64
2, 39900, Note_on_c, 0, 70, 100
2, 39948, Note_off_c, 0, 70, 64
2, 39960, Note_on_c, 0, 69, 100
2, 40008, Note_off_c, 0, 69, 64
2, 40020, Note_on_c, 0, 67, 100
2, 40068, Note_off_c, 0, 67, 64
2, 40080, Note_on_c, 0, 65, 100
2, 40128, Note_off_c, 0, 65, 64
2, 40140, Note_on_c, 0, 75, 100
2, 40188, Note_off_c, 0, 75, 64
2, 40200, Note_on_c, 0, 74, 100
2, 40248, Note_off_c, 0, 74, 64
2, 40260, Note_on_c, 0, 72, 100
2, 40308, Note_off_c, 0, 72, 64
2, 40320, Note_on_c, 0, 70, 100
2, 41088, Note_off_c, 0, 70, 64
2, 41100, Note_on_c, 0, 69, 100
2, 41148, Note_off_c, 0, 69, 64
2, 41160, Note_on_c, 0, 70, 100
2, 41208, Note_off_c, 0, 70, 64
2, 41220, Note_on_c, 0, 75, 100
2, 41268, Note_off_c, 0, 75, 64
2, 41280, Note_on_c, 0, 70, 100
2, 41328, Note_off_c, 0, 70, 64
2, 41340, Note_on_c, 0, 69, 100
2, 41388, Note_off_c, 0, 69, 64
2, 41400, Note_on_c, 0, 70, 100
2, 41448, Note_off_c, 0, 70, 64
2, 41460, Note_on_c, 0, 74, 100
2, 41508, Note_off_c, 0, 74, 64
2, 41520, Note_on_c, 0, 72, 100
2, 41808, Note_off_c, 0, 72, 64
2, 41820, Note_on_c, 0, 79, 100
2, 41868, Note_off_c, 0, 79, 64
2, 41880, Note_on_c, 0, 77, 100
2, 41928, Note_off_c, 0, 77, 64
2, 41940, Note_on_c, 0, 75, 100
2, 41988, Note_off_c, 0, 75, 64
2, 42000, Note_on_c, 0, 74, 100
2, 42048, Note_off_c, 0, 74, 64
2, 42060, Note_on_c, 0, 82, 100
2, 42108, Note_off_c, 0, 82, 64
2, 42120, Note_on_c, 0, 81, 100
2, 42168, Note_off_c, 0, 81, 64
2, 42180, Note_on_c, 0, 79, 100
2, 42228, Note_off_c, 0, 79, 64
2, 42240, Note_on_c, 0, 77, 100
2, 42288, Note_off_c, 0, 77, 64
2, 42300, Note_on_c, 0, 75, 100
2, 42348, Note_off_c, 0, 75, 64
2, 42360, Note_on_c, 0, 74, 100
2, 42408, Note_off_c, 0, 74, 64
2, 42420, Note_on_c, 0, 72, 100
2, 42468, Note_off_c, 0, 72, 64
2, 42480, Note_on_c, 0, 70, 100
2, 42576, Note_off_c, 0, 70, 64
2, 42600, Note_on_c, 0, 77, 100
2, 42696, Note_off_c, 0, 77, 64
2, 42720, Note_on_c, 0, 79, 100
2, 42816, Note_off_c, 0, 79, 64
2, 42840, Note_on_c, 0, 77, 100
2, 42936, Note_off_c, 0, 77, 64
2, 42960, Note_on_c, 0, 79, 100
2, 43056, Note_off_c, 0, 79, 64
2, 43080, Note_on_c, 0, 75, 100
2, 43176, Note_off_c, 0, 75, 64
2, 43200, Note_on_c, 0, 77, 100
2, 43248, Note_off_c, 0, 77, 64
2, 43260, Note_on_c, 0, 82, 100
2, 43308, Note_off_c, 0, 82, 64
2, 43320, Note_on_c, 0, 81, 100
2, 43368, Note_off_c, 0, 81, 64
2, 43380, Note_on_c, 0, 82, 100
2, 43428, Note_off_c, 0, 82, 64
2, 43440, Note_on_c, 0, 75, 100
2, 43488, Note_off_c, 0, 75, 64
2, 43500, Note_on_c, 0, 82, 100
2, 43548, Note_off_c, 0, 82, 64
2, 43560, Note_on_c, 0, 74, 100
2, 43608, Note_off_c, 0, 74, 64
2, 43620, Note_on_c, 0, 82, 100
2, 43668, Note_off_c, 0, 82, 64
2, 43680, Note_on_c, 0, 75, 100
2, 43728, Note_off_c, 0, 75, 64
2, 43740, Note_on_c, 0, 82, 100
2, 43788, Note_off_c, 0, 82, 64
2, 43800, Note_on_c, 0, 72, 100
2, 43848, Note_off_c, 0, 72, 64
2, 43860, Note_on_c, 0, 82, 100
2, 43908, Note_off_c, 0, 82, 64
2, 43920, Note_on_c, 0, 74, 100
2, 44208, Note_off_c, 0, 74, 64
2, 44220, Note_on_c, 0, 70, 100
2, 44268, Note_off_c, 0, 70, 64
2, 44280, Note_on_c, 0, 72, 100
2, 44328, Note_off_c, 0, 72, 64
2, 44340, Note_on_c, 0, 74, 100
2, 44388, Note_off_c, 0, 74, 64
2, 44400, Note_on_c, 0, 75, 100
2, 44448, Note_off_c, 0, 75, 64
2, 44460, Note_on_c, 0, 77, 100
2, 44508, Note_off_c, 0, 77, 64
2, 44520, Note_on_c, 0, 79, 100
2, 44568, Note_off_c, 0, 79, 64
2, 44580, Note_on_c, 0, 81, 100
2, 44628, Note_off_c, 0, 81, 64
2, 44640, Note_on_c, 0, 82, 100
2, 44736, Note_off_c, 0, 82, 64
2, 44760, Note_on_c, 0, 70, 100
2, 44856, Note_off_c, 0, 70, 64
2, 44880, Note_on_c, 0, 72, 100
2, 44970, Note_off_c, 0, 72, 64
2, 45120, Note_on_c, 0, 69, 100
2, 45312, Note_off_c, 0, 69, 64
2, 45360, Note_on_c, 0, 70, 100
2, 45936, Note_off_c, 0, 70, 64
2, 48960, Note_on_c, 0, 82, 127
2, 49056, Note_off_c, 0, 82, 64
2, 49080, Note_on_c, 0, 70, 127
2, 49176, Note_off_c, 0, 70, 64
2, 49200, Note_on_c, 0, 80, 127
2, 49296, Note_off_c, 0, 80, 64
2, 49320, Note_on_c, 0, 70, 127
2, 49416, Note_off_c, 0, 70, 64
2, 49440, Note_on_c, 0, 79, 127
2, 49536, Note_off_c, 0, 79, 64
2, 49560, Note_on_c, 0, 70, 127
2, 49656, Note_off_c, 0, 70, 64
2, 49680, Note_on_c, 0, 77, 127
2, 49776, Note_off_c, 0, 77, 64
2, 49800, Note_on_c, 0, 70, 127
2, 49896, Note_off_c, 0, 70, 64
2, 49920, Note_on_c, 0, 75, 127
2, 50016, Note_off_c, 0, 75, 64
2, 50040, Note_on_c, 0, 70, 127
2, 50136, Note_off_c, 0, 70, 64
2, 50160, Note_on_c, 0, 74, 127
2, 50256, Note_off_c, 0, 74, 64
2, 50280, Note_on_c, 0, 70, 127
2, 50376, Note_off_c, 0, 70, 64
2, 50400, Note_on_c, 0, 75, 127
2, 50448, Note_off_c, 0, 75, 64
2, 50460, Note_on_c, 0, 70, 127
2, 50508, Note_off_c, 0, 70, 64
2, 50520, Note_on_c, 0, 72, 127
2, 50568, Note_off_c, 0, 72, 64
2, 50580, Note_on_c, 0, 74, 127
2, 50628, Note_off_c, 0, 74, 64
2, 50640, Note_on_c, 0, 75, 127
2, 50688, Note_off_c, 0, 75, 64
2, 50700, Note_on_c, 0, 67, 127
2, 50748, Note_off_c, 0, 67, 64
2, 50760, Note_on_c, 0, 68, 127
2, 50808, Note_off_c, 0, 68, 64
2, 50820, Note_on_c, 0, 70, 127
2, 50868, Note_off_c, 0, 70, 64
2, 50880, Note_on_c, 0, 72, 127
2, 50928, Note_off_c, 0, 72, 64
2, 50940, Note_on_c, 0, 74, 127
2, 50988, Note_off_c, 0, 74, 64
2, 51000, Note_on_c, 0, 75, 127
2, 51048, Note_off_c, 0, 75, 64
2, 51060, Note_on_c, 0, 77, 127
2, 51108, Note_off_c, 0, 77, 64
2, 51120, Note_on_c, 0, 79, 127
2, 51168, Note_off_c, 0, 79, 64
2, 51180, Note_on_c, 0, 77, 127
2, 51228, Note_off_c, 0, 77, 64
2, 51240, Note_on_c, 0, 75, 127
2, 51288, Note_off_c, 0, 75, 64
2, 51300, Note_on_c, 0, 79, 127
2, 51348, Note_off_c, 0, 79, 64
2, 51360, Note_on_c, 0, 82, 127
2, 51408, Note_off_c, 0, 82, 64
2, 51420, Note_on_c, 0, 79, 127
2, 51468, Note_off_c, 0, 79, 64
2, 51480, Note_on_c, 0, 75, 127
2, 51528, Note_off_c, 0, 75, 64
2, 51540, Note_on_c, 0, 70, 127
2, 51588, Note_off_c, 0, 70, 64
2, 51600, Note_on_c, 0, 79, 127
2, 51648, Note_off_c, 0, 79, 64
2, 51660, Note_on_c, 0, 75, 127
2, 51708, Note_off_c, 0, 75, 64
2, 51720, Note_on_c, 0, 73, 127
2, 51768, Note_off_c, 0, 73, 64
2, 51780, Note_on_c, 0, 70, 127
2, 51828, Note_off_c, 0, 70, 64
2, 51840, Note_on_c, 0, 72, 127
2, 51888, Note_off_c, 0, 72, 64
2, 51900, Note_on_c, 0, 73, 127
2, 51948, Note_off_c, 0, 73, 64
2, 51960, Note_on_c, 0, 72, 127
2, 52008, Note_off_c, 0, 72, 64
2, 52020, Note_on_c, 0, 68, 127
2, 52068, Note_off_c, 0, 68, 64
2, 52080, Note_on_c, 0, 70, 127
2, 52128, Note_off_c, 0, 70, 64
2, 52140, Note_on_c, 0, 72, 127
2, 52188, Note_off_c, 0, 72, 64
2, 52200, Note_on_c, 0, 70, 127
2, 52248, Note_off_c, 0, 70, 64
2, 52260, Note_on_c, 0, 67, 127
2, 52308, Note_off_c, 0, 67, 64
2, 52320, Note_on_c, 0, 68, 127
2, 52368, Note_off_c, 0, 68, 64
2, 52380, Note_on_c, 0, 70, 127
2, 52428, Note_off_c, 0, 70, 64
2, 52440, Note_on_c, 0, 68, 127
2, 52488, Note_off_c, 0, 68, 64
2, 52500, Note_on_c, 0, 65, 127
2, 52548, Note_off_c, 0, 65, 64
2, 52560, Note_on_c, 0, 67, 127
2, 52608, Note_off_c, 0, 67, 64
2, 52620, Note_on_c, 0, 68, 127
2, 52668, Note_off_c, 0, 68, 64
2, 52680, Note_on_c, 0, 67, 127
2, 52728, Note_off_c, 0, 67, 64
2, 52740, Note_on_c, 0, 63, 127
2, 52788, Note_off_c, 0, 63, 64
2, 52800, Note_on_c, 0, 72, 127
2, 52848, Note_off_c, 0, 72, 64
2, 52860, Note_on_c, 0, 73, 127
2, 52908, Note_off_c, 0, 73, 64
2, 52920, Note_on_c, 0, 72, 127
2, 52968, Note_off_c, 0, 72, 64
2, 52980, Note_on_c, 0, 63, 127
2, 53028, Note_off_c, 0, 63, 64
2, 53040, Note_on_c, 0, 70, 127
2, 53088, Note_off_c, 0, 70, 64
2, 53100, Note_on_c, 0, 72, 127
2, 53148, Note_off_c, 0, 72, 64
2, 53160, Note_on_c, 0, 70, 127
2, 53208, Note_off_c, 0, 70, 64
2, 53220, Note_on_c, 0, 63, 127
2, 53268, Note_off_c, 0, 63, 64
2, 53280, Note_on_c, 0, 72, 127
2, 53376, Note_off_c, 0, 72, 64
2, 53400, Note_on_c, 0, 68, 127
2, 53496, Note_off_c, 0, 68, 64
2, 53520, Note_on_c, 0, 72, 127
2, 53616, Note_off_c, 0, 72, 64
2, 53640, Note_on_c, 0, 63, 127
2, 53736, Note_off_c, 0, 63, 64
2, 53760, Note_on_c, 0, 65, 127
2, 53856, Note_off_c, 0, 65, 64
2, 53880, Note_on_c, 0, 74, 127
2, 53976, Note_off_c, 0, 74, 64
2, 54060, Note_on_c, 0, 75, 127
2, 54108, Note_off_c, 0, 75, 64
2, 54120, Note_on_c, 0, 77, 127
2, 54168, Note_off_c, 0, 77, 64
2, 54180, Note_on_c, 0, 79, 127
2, 54228, Note_off_c, 0, 79, 64
2, 54240, Note_on_c, 0, 80, 127
2, 54288, Note_off_c, 0, 80, 64
2, 54300, Note_on_c, 0, 82, 127
2, 54348, Note_off_c, 0, 82, 64
2, 54360, Note_on_c, 0, 84, 127
2, 54408, Note_off_c, 0, 84, 64
2, 54420, Note_on_c, 0, 82, 127
2, 54468, Note_off_c, 0, 82, 64
2, 54480, Note_on_c, 0, 80, 127
2, 54528, Note_off_c, 0, 80, 64
2, 54540, Note_on_c, 0, 79, 127
2, 54588, Note_off_c, 0, 79, 64
2, 54600, Note_on_c, 0, 77, 127
2, 54648, Note_off_c, 0, 77, 64
2, 54660, Note_on_c, 0, 80, 127
2, 54708, Note_off_c, 0, 80, 64
2, 54720, Note_on_c, 0, 79, 127
2, 54816, Note_off_c, 0, 79, 64
2, 54840, Note_on_c, 0, 72, 127
2, 54936, Note_off_c, 0, 72, 64
2, 54960, Note_on_c, 0, 77, 127
2, 55056, Note_off_c, 0, 77, 64
2, 55080, Note_on_c, 0, 68, 127
2, 55272, Note_off_c, 0, 68, 64
2, 55320, Note_on_c, 0, 77, 127
2, 55416, Note_off_c, 0, 77, 64
2, 55440, Note_on_c, 0, 67, 127
2, 55488, Note_off_c, 0, 67, 64
2, 55500, Note_on_c, 0, 71, 127
2, 55548, Note_off_c, 0, 71, 64
2, 55560, Note_on_c, 0, 72, 127
2, 55608, Note_off_c, 0, 72, 64
2, 55620, Note_on_c, 0, 74, 127
2, 55668, Note_off_c, 0, 74, 64
2, 55680, Note_on_c, 0, 75, 127
2, 55728, Note_off_c, 0, 75, 64
2, 55740, Note_on_c, 0, 77, 127
2, 55788, Note_off_c, 0, 77, 64
2, 55800, Note_on_c, 0, 79, 127
2, 55848, Note_off_c, 0, 79, 64
2, 55860, Note_on_c, 0, 80, 127
2, 55908, Note_off_c, 0, 80, 64
2, 55920, Note_on_c, 0, 82, 127
2, 55968, Note_off_c, 0, 82, 64
2, 55980, Note_on_c, 0, 84, 127
2, 56028, Note_off_c, 0, 84, 64
2, 56040, Note_on_c, 0, 82, 127
2, 56088, Note_off_c, 0, 82, 64
2, 56100, Note_on_c, 0, 72, 127
2, 56148, Note_off_c, 0, 72, 64
2, 56160, Note_on_c, 0, 80, 127
2, 56208, Note_off_c, 0, 80, 64
2, 56220, Note_on_c, 0, 79, 127
2, 56268, Note_off_c, 0, 79, 64
2, 56280, Note_on_c, 0, 77, 127
2, 56328, Note_off_c, 0, 77, 64
2, 56340, Note_on_c, 0, 76, 127
2, 56388, Note_off_c, 0, 76, 64
2, 56400, Note_on_c, 0, 77, 127
2, 56448, Note_off_c, 0, 77, 64
2, 56460, Note_on_c, 0, 75, 127
2, 56508, Note_off_c, 0, 75, 64
2, 56520, Note_on_c, 0, 73, 127
2, 56568, Note_off_c, 0, 73, 64
2, 56580, Note_on_c, 0, 72, 127
2, 56628, Note_off_c, 0, 72, 64
2, 56640, Note_on_c, 0, 70, 127
2, 56928, Note_off_c, 0, 70, 64
2, 56940, Note_on_c, 0, 68, 127
2, 56988, Note_off_c, 0, 68, 64
2, 57000, Note_on_c, 0, 67, 127
2, 57048, Note_off_c, 0, 67, 64
2, 57060, Note_on_c, 0, 65, 127
2, 57108, Note_off_c, 0, 65, 64
2, 57120, Note_on_c, 0, 64, 127
2, 57216, Note_off_c, 0, 64, 64
2, 57240, Note_on_c, 0, 72, 127
2, 57336, Note_off_c, 0, 72, 64
2, 57360, Note_on_c, 0, 74, 127
2, 57456, Note_off_c, 0, 74, 64
2, 57480, Note_on_c, 0, 76, 127
2, 57576, Note_off_c, 0, 76, 64
2, 57600, Note_on_c, 0, 77, 127
2, 57696, Note_off_c, 0, 77, 64
2, 58380, Note_on_c, 0, 70, 127
2, 58428, Note_off_c, 0, 70, 64
2, 58440, Note_on_c, 0, 68, 127
2, 58488, Note_off_c, 0, 68, 64
2, 58500, Note_on_c, 0, 70, 127
2, 58548, Note_off_c, 0, 70, 64
2, 58560, Note_on_c, 0, 65, 127
2, 58608, Note_off_c, 0, 65, 64
2, 58620, Note_on_c, 0, 70, 127
2, 58668, Note_off_c, 0, 70, 64
2, 58680, Note_on_c, 0, 68, 127
2, 58728, Note_off_c, 0, 68, 64
2, 58740, Note_on_c, 0, 70, 127
2, 58788, Note_off_c, 0, 70, 64
2, 58800, Note_on_c, 0, 73, 127
2, 58848, Note_off_c, 0, 73, 64
2, 58860, Note_on_c, 0, 70, 127
2, 58908, Note_off_c, 0, 70, 64
2, 58920, Note_on_c, 0, 68, 127
2, 58968, Note_off_c, 0, 68, 64
2, 58980, Note_on_c, 0, 70, 127
2, 59028, Note_off_c, 0, 70, 64
2, 59040, Note_on_c, 0, 67, 127
2, 59136, Note_off_c, 0, 67, 64
2, 59280, Note_on_c, 0, 73, 127
2, 59376, Note_off_c, 0, 73, 64
2, 59520, Note_on_c, 0, 73, 127
2, 59616, Note_off_c, 0, 73, 64
2, 59820, Note_on_c, 0, 68, 127
2, 59868, Note_off_c, 0, 68, 64
2, 59880, Note_on_c, 0, 66, 127
2, 59928, Note_off_c, 0, 66, 64
2, 59940, Note_on_c, 0, 68, 127
2, 59988, Note_off_c, 0, 68, 64
2, 60000, Note_on_c, 0, 63, 127
2, 60048, Note_off_c, 0, 63, 64
2, 60060, Note_on_c, 0, 68, 127
2, 60108, Note_off_c, 0, 68, 64
2, 60120, Note_on_c, 0, 66, 127
2, 60168, Note_off_c, 0, 66, 64
2, 60180, Note_on_c, 0, 68, 127
2, 60228, Note_off_c, 0, 68, 64
2, 60240, Note_on_c, 0, 72, 127
2, 60288, Note_off_c, 0, 72, 64
2, 60300, Note_on_c, 0, 68, 127
2, 60348, Note_off_c, 0, 68, 64
2, 60360, Note_on_c, 0, 66, 127
2, 60408, Note_off_c, 0, 66, 64
2, 60420, Note_on_c, 0, 68, 127
2, 60468, Note_off_c, 0, 68, 64
2, 60480, Note_on_c, 0, 65, 127
2, 60528, Note_off_c, 0, 65, 64
2, 60540, Note_on_c, 0, 70, 127
2, 60588, Note_off_c, 0, 70, 64
2, 60600, Note_on_c, 0, 69, 127
2, 60648, Note_off_c, 0, 69, 64
2, 60660, Note_on_c, 0, 70, 127
2, 60708, Note_off_c, 0, 70, 64
2, 60720, Note_on_c, 0, 65, 127
2, 60768, Note_off_c, 0, 65, 64
2, 60780, Note_on_c, 0, 70, 127
2, 60828, Note_off_c, 0, 70, 64
2, 60840, Note_on_c, 0, 69, 127
2, 60888, Note_off_c, 0, 69, 64
2, 60900, Note_on_c, 0, 70, 127
2, 60948, Note_off_c, 0, 70, 64
2, 60960, Note_on_c, 0, 73, 127
2, 61008, Note_off_c, 0, 73, 64
2, 61020, Note_on_c, 0, 70, 127
2, 61068, Note_off_c, 0, 70, 64
2, 61080, Note_on_c, 0, 68, 127
2, 61128, Note_off_c, 0, 68, 64
2, 61140, Note_on_c, 0, 70, 127
2, 61188, Note_off_c, 0, 70, 64
2, 61200, Note_on_c, 0, 67, 127
2, 61296, Note_off_c, 0, 67, 64
2, 61320, Note_on_c, 0, 70, 127
2, 61416, Note_off_c, 0, 70, 64
2, 61440, Note_on_c, 0, 75, 127
2, 61968, Note_off_c, 0, 75, 64
2, 61980, Note_on_c, 0, 63, 127
2, 62028, Note_off_c, 0, 63, 64
2, 62040, Note_on_c, 0, 61, 127
2, 62088, Note_off_c, 0, 61, 64
2, 62100, Note_on_c, 0, 63, 127
2, 62148, Note_off_c, 0, 63, 64
2, 62160, Note_on_c, 0, 68, 127
2, 62208, Note_off_c, 0, 68, 64
2, 62220, Note_on_c, 0, 63, 127
2, 62268, Note_off_c, 0, 63, 64
2, 62280, Note_on_c, 0, 61, 127
2, 62328, Note_off_c, 0, 61, 64
2, 62340, Note_on_c, 0, 63, 127
2, 62388, Note_off_c, 0, 63, 64
2, 62400, Note_on_c, 0, 72, 127
2, 62448, Note_off_c, 0, 72, 64
2, 62460, Note_on_c, 0, 68, 127
2, 62508, Note_off_c, 0, 68, 64
2, 62520, Note_on_c, 0, 67, 127
2, 62568, Note_off_c, 0, 67, 64
2, 62580, Note_on_c, 0, 68, 127
2, 62628, Note_off_c, 0, 68, 64
2, 62640, Note_on_c, 0, 74, 127
2, 62688, Note_off_c, 0, 74, 64
2, 62700, Note_on_c, 0, 75, 127
2, 62748, Note_off_c, 0, 75, 64
2, 62760, Note_on_c, 0, 74, 127
2, 62808, Note_off_c, 0, 74, 64
2, 62820, Note_on_c, 0, 72, 127
2, 62868, Note_off_c, 0, 72, 64
2, 62880, Note_on_c, 0, 70, 127
2, 62928, Note_off_c, 0, 70, 64
2, 62940, Note_on_c, 0, 79, 127
2, 62988, Note_off_c, 0, 79, 64
2, 63000, Note_on_c, 0, 77, 127
2, 63048, Note_off_c, 0, 77, 64
2, 63060, Note_on_c, 0, 75, 127
2, 63108, Note_off_c, 0, 75, 64
2, 63120, Note_on_c, 0, 74, 127
2, 63168, Note_off_c, 0, 74, 64
2, 63180, Note_on_c, 0, 72, 127
2, 63228, Note_off_c, 0, 72, 64
2, 63240, Note_on_c, 0, 70, 127
2, 63288, Note_off_c, 0, 70, 64
2, 63300, Note_on_c, 0, 68, 127
2, 63348, Note_off_c, 0, 68, 64
2, 63360, Note_on_c, 0, 67, 127
2, 63408, Note_off_c, 0, 67, 64
2, 63420, Note_on_c, 0, 65, 127
2, 63468, Note_off_c, 0, 65, 64
2, 63480, Note_on_c, 0, 67, 127
2, 63528, Note_off_c, 0, 67, 64
2, 63540, Note_on_c, 0, 70, 127
2, 63588, Note_off_c, 0, 70, 64
2, 63600, Note_on_c, 0, 68, 127
2, 63648, Note_off_c, 0, 68, 64
2, 63660, Note_on_c, 0, 67, 127
2, 63708, Note_off_c, 0, 67, 64
2, 63720, Note_on_c, 0, 68, 127
2, 63768, Note_off_c, 0, 68, 64
2, 63780, Note_on_c, 0, 72, 127
2, 63828, Note_off_c, 0, 72, 64
2, 63840, Note_on_c, 0, 70, 127
2, 63888, Note_off_c, 0, 70, 64
2, 63900, Note_on_c, 0, 68, 127
2, 63948, Note_off_c, 0, 68, 64
2, 63960, Note_on_c, 0, 70, 127
2, 64008, Note_off_c, 0, 70, 64
2, 64020, Note_on_c, 0, 73, 127
2, 64068, Note_off_c, 0, 73, 64
2, 64080, Note_on_c, 0, 72, 127
2, 64128, Note_off_c, 0, 72, 64
2, 64140, Note_on_c, 0, 70, 127
2, 64188, Note_off_c, 0, 70, 64
2, 64200, Note_on_c, 0, 72, 127
2, 64248, Note_off_c, 0, 72, 64
2, 64260, Note_on_c, 0, 75, 127
2, 64308, Note_off_c, 0, 75, 64
2, 64320, Note_on_c, 0, 67, 127
2, 64368, Note_off_c, 0, 67, 64
2, 64380, Note_on_c, 0, 65, 127
2, 64428, Note_off_c, 0, 65, 64
2, 64440, Note_on_c, 0, 67, 127
2, 64488, Note_off_c, 0, 67, 64
2, 64500, Note_on_c, 0, 75, 127
2, 64548, Note_off_c, 0, 75, 64
2, 64560, Note_on_c, 0, 68, 127
2, 64608, Note_off_c, 0, 68, 64
2, 64620, Note_on_c, 0, 67, 127
2, 64668, Note_off_c, 0, 67, 64
2, 64680, Note_on_c, 0, 68, 127
2, 64728, Note_off_c, 0, 68, 64
2, 64740, Note_on_c, 0, 75, 127
2, 64788, Note_off_c, 0, 75, 64
2, 64800, Note_on_c, 0, 67, 127
2, 64992, Note_off_c, 0, 67, 64
2, 65100, Note_on_c, 0, 79, 127
2, 65148, Note_off_c, 0, 79, 64
2, 65160, Note_on_c, 0, 77, 127
2, 65208, Note_off_c, 0, 77, 64
2, 65220, Note_on_c, 0, 75, 127
2, 65268, Note_off_c, 0, 75, 64
2, 65280, Note_on_c, 0, 74, 127
2, 65328, Note_off_c, 0, 74, 64
2, 65340, Note_on_c, 0, 72, 127
2, 65388, Note_off_c, 0, 72, 64
2, 65400, Note_on_c, 0, 70, 127
2, 65448, Note_off_c, 0, 70, 64
2, 65460, Note_on_c, 0, 68, 127
2, 65508, Note_off_c, 0, 68, 64
2, 65520, Note_on_c, 0, 67, 127
2, 65568, Note_off_c, 0, 67, 64
2, 65580, Note_on_c, 0, 75, 127
2, 65628, Note_off_c, 0, 75, 64
2, 65640, Note_on_c, 0, 74, 127
2, 65688, Note_off_c, 0, 74, 64
2, 65700, Note_on_c, 0, 75, 127
2, 65748, Note_off_c, 0, 75, 64
2, 65760, Note_on_c, 0, 68, 127
2, 65808, Note_off_c, 0, 68, 64
2, 65820, Note_on_c, 0, 75, 127
2, 65868, Note_off_c, 0, 75, 64
2, 65880, Note_on_c, 0, 67, 127
2, 65928, Note_off_c, 0, 67, 64
2, 65940, Note_on_c, 0, 75, 127
2, 65988, Note_off_c, 0, 75, 64
2, 66000, Note_on_c, 0, 68, 127
2, 66048, Note_off_c, 0, 68, 64
2, 66060, Note_on_c, 0, 75, 127
2, 66108, Note_off_c, 0, 75, 64
2, 66120, Note_on_c, 0, 65, 127
2, 66168, Note_off_c, 0, 65, 64
2, 66180, Note_on_c, 0, 75, 127
2, 66228, Note_off_c, 0, 75, 64
2, 66240, Note_on_c, 0, 67, 127
2, 66336, Note_off_c, 0, 67, 64
2, 66360, Note_on_c, 0, 82, 127
2, 66456, Note_off_c, 0, 82, 64
2, 66480, Note_on_c, 0, 84, 127
2, 66576, Note_off_c, 0, 84, 64
2, 66600, Note_on_c, 0, 82, 127
2, 66696, Note_off_c, 0, 82, 64
2, 66720, Note_on_c, 0, 84, 127
2, 66816, Note_off_c, 0, 84, 64
2, 66840, Note_on_c, 0, 80, 127
2, 66936, Note_off_c, 0, 80, 64
2, 66960, Note_on_c, 0, 82, 127
2, 67008, Note_off_c, 0, 82, 64
2, 67020, Note_on_c, 0, 75, 127
2, 67068, Note_off_c, 0, 75, 64
2, 67080, Note_on_c, 0, 77, 127
2, 67128, Note_off_c, 0, 77, 64
2, 67140, Note_on_c, 0, 79, 127
2, 67188, Note_off_c, 0, 79, 64
2, 67200, Note_on_c, 0, 80, 127
2, 67488, Note_off_c, 0, 80, 64
2, 67500, Note_on_c, 0, 79, 127
2, 67548, Note_off_c, 0, 79, 64
2, 67560, Note_on_c, 0, 80, 127
2, 67608, Note_off_c, 0, 80, 64
2, 67620, Note_on_c, 0, 77, 127
2, 67668, Note_off_c, 0, 77, 64
2, 67680, Note_on_c, 0, 82, 127
2, 67776, Note_off_c, 0, 82, 64
2, 67800, Note_on_c, 0, 75, 127
2, 67896, Note_off_c, 0, 75, 64
2, 67920, Note_on_c, 0, 77, 127
2, 68010, Note_off_c, 0, 77, 64
2, 68160, Note_on_c, 0, 75, 80
2, 68184, Note_off_c, 0, 75, 64
2, 68190, Note_on_c, 0, 74, 80
2, 68214, Note_off_c, 0, 74, 64
2, 68220, Note_on_c, 0, 75, 80
2, 68244, Note_off_c, 0, 75, 64
2, 68250, Note_on_c, 0, 74, 80
2, 68274, Note_off_c, 0, 74, 64
2, 68280, Note_on_c, 0, 75, 80
2, 68304, Note_off_c, 0, 75, 64
2, 68310, Note_on_c, 0, 74, 80
2, 68334, Note_off_c, 0, 74, 64
2, 68340, Note_on_c, 0, 75, 80
2, 68364, Note_off_c, 0, 75, 64
2, 68370, Note_on_c, 0, 74, 80
2, 68394, Note_off_c, 0, 74, 64
2, 68400, Note_on_c, 0, 75, 127
2, 68976, Note_off_c, 0, 75, 64
2, 72000, Note_on_c, 0, 82, 127
2, 72096, Note_off_c, 0, 82, 64
2, 72120, Note_on_c, 0, 70, 127
2, 72216, Note_off_c, 0, 70, 64
2, 72240, Note_on_c, 0, 80, 127
2, 72336, Note_off_c, 0, 80, 64
2, 72360, Note_on_c, 0, 70, 127
2, 72456, Note_off_c, 0, 70, 64
2, 72480, Note_on_c, 0, 79, 127
2, 72576, Note_off_c, 0, 79, 64
2, 72600, Note_on_c, 0, 70, 127
2, 72696, Note_off_c, 0, 70, 64
2, 72720, Note_on_c, 0, 77, 127
2, 72816, Note_off_c, 0, 77, 64
2, 72840, Note_on_c, 0, 70, 127
2, 72936, Note_off_c, 0, 70, 64
2, 72960, Note_on_c, 0, 75, 127
2, 73056, Note_off_c, 0, 75, 64
2, 73080, Note_on_c, 0, 70, 127
2, 73176, Note_off_c, 0, 70, 64
2, 73200, Note_on_c, 0, 74, 127
2, 73296, Note_off_c, 0, 74, 64
2, 73320, Note_on_c, 0, 70, 127
2, 73416, Note_off_c, 0, 70, 64
2, 73440, Note_on_c, 0, 75, 127
2, 73488, Note_off_c, 0, 75, 64
2, 73500, Note_on_c, 0, 70, 127
2, 73548, Note_off_c, 0, 70, 64
2, 73560, Note_on_c, 0, 72, 127
2, 73608, Note_off_c, 0, 72, 64
2, 73620, Note_on_c, 0, 74, 127
2, 73668, Note_off_c, 0, 74, 64
2, 73680, Note_on_c, 0, 75, 127
2, 73728, Note_off_c, 0, 75, 64
2, 73740, Note_on_c, 0, 67, 127
2, 73788, Note_off_c, 0, 67, 64
2, 73800, Note_on_c, 0, 68, 127
2, 73848, Note_off_c, 0, 68, 64
2, 73860, Note_on_c, 0, 70, 127
2, 73908, Note_off_c, 0, 70, 64
2, 73920, Note_on_c, 0, 72, 127
2, 73968, Note_off_c, 0, 72, 64
2, 73980, Note_on_c, 0, 74, 127
2, 74028, Note_off_c, 0, 74, 64
2, 74040, Note_on_c, 0, 75, 127
2, 74088, Note_off_c, 0, 75, 64
2, 74100, Note_on_c, 0, 77, 127
2, 74148, Note_off_c, 0, 77, 64
2, 74160, Note_on_c, 0, 79, 127
2, 74208, Note_off_c, 0, 79, 64
2, 74220, Note_on_c, 0, 77, 127
2, 74268, Note_off_c, 0, 77, 64
2, 74280, Note_on_c, 0, 75, 127
2, 74328, Note_off_c, 0, 75, 64
2, 74340, Note_on_c, 0, 79, 127
2, 74388, Note_off_c, 0, 79, 64
2, 74400, Note_on_c, 0, 82, 127
2, 74448, Note_off_c, 0, 82, 64
2, 74460, Note_on_c, 0, 79, 127
2, 74508, Note_off_c, 0, 79, 64
2, 74520, Note_on_c, 0, 75, 127
2, 74568, Note_off_c, 0, 75, 64
2, 74580, Note_on_c, 0, 70, 127
2, 74628, Note_off_c, 0, 70, 64
2, 74640, Note_on_c, 0, 79, 127
2, 74688, Note_off_c, 0, 79, 64
2, 74700, Note_on_c, 0, 75, 127
2, 74748, Note_off_c, 0, 75, 64
2, 74760, Note_on_c, 0, 73, 127
2, 74808, Note_off_c, 0, 73, 64
2, 74820, Note_on_c, 0, 70, 127
2, 74868, Note_off_c, 0, 70, 64
2, 74880, Note_on_c, 0, 72, 127
2, 74928, Note_off_c, 0, 72, 64
2, 74940, Note_on_c, 0, 73, 127
2, 74988, Note_off_c, 0, 73, 64
2, 75000, Note_on_c, 0, 72, 127
2, 75048, Note_off_c, 0, 72, 64
2, 75060, Note_on_c, 0, 68, 127
2, 75108, Note_off_c, 0, 68, 64
2, 75120, Note_on_c, 0, 70, 127
2, 75168, Note_off_c, 0, 70, 64
2, 75180, Note_on_c, 0, 72, 127
2, 75228, Note_off_c, 0, 72, 64
2, 75240, Note_on_c, 0, 70, 127
2, 75288, Note_off_c, 0, 70, 64
2, 75300, Note_on_c, 0, 67, 127
2, 75348, Note_off_c, 0, 67, 64
2, 75360, Note_on_c, 0, 68, 127
2, 75408, Note_off_c, 0, 68, 64
2, 75420, Note_on_c, 0, 70, 127
2, 75468, Note_off_c, 0, 70, 64
2, 75480, Note_on_c, 0, 68, 127
2, 75528, Note_off_c, 0, 68, 64
2, 75540, Note_on_c, 0, 65, 127
2, 75588, Note_off_c, 0, 65, 64
2, 75600, Note_on_c, 0, 67, 127
2, 75648, Note_off_c, 0, 67, 64
2, 75660, Note_on_c, 0, 68, 127
2, 75708, Note_off_c, 0, 68, 64
2, 75720, Note_on_c, 0, 67, 127
2, 75768, Note_off_c, 0, 67, 64
2, 75780, Note_on_c, 0, 63, 127
2, 75828, Note_off_c, 0, 63, 64
2, 75840, Note_on_c, 0, 72, 127
2, 75888, Note_off_c, 0, 72, 64
2, 75900, Note_on_c, 0, 73, 127
2, 75948, Note_off_c, 0, 73, 64
2, 75960, Note_on_c, 0, 72, 127
2, 76008, Note_off_c, 0, 72, 64
2, 76020, Note_on_c, 0, 63, 127
2, 76068, Note_off_c, 0, 63, 64
2, 76080, Note_on_c, 0, 70, 127
2, 76128, Note_off_c, 0, 70, 64
2, 76140, Note_on_c, 0, 72, 127
2, 76188, Note_off_c, 0, 72, 64
2, 76200, Note_on_c, 0, 70, 127
2, 76248, Note_off_c, 0, 70, 64
2, 76260, Note_on_c, 0, 63, 127
2, 76308, Note_off_c, 0, 63, 64
2, 76320, Note_on_c, 0, 72, 127
2, 76416, Note_off_c, 0, 72, 64
2, 76440, Note_on_c, 0, 68, 127
2, 76536, Note_off_c, 0, 68, 64
2, 76560, Note_on_c, 0, 72, 127
2, 76656, Note_off_c, 0, 72, 64
2, 76680, Note_on_c, 0, 63, 127
2, 76776, Note_off_c, 0, 63, 64
2, 76800, Note_on_c, 0, 65, 127
2, 76896, Note_off_c, 0, 65, 64
2, 76920, Note_on_c, 0, 74, 127
2, 77016, Note_off_c, 0, 74, 64
2, 77100, Note_on_c, 0, 75, 127
2, 77148, Note_off_c, 0, 75, 64
2, 77160, Note_on_c, 0, 77, 127
2, 77208, Note_off_c, 0, 77, 64
2, 77220, Note_on_c, 0, 79, 127
2, 77268, Note_off_c, 0, 79, 64
2, 77280, Note_on_c, 0, 80, 127
2, 77328, Note_off_c, 0, 80, 64
2, 77340, Note_on_c, 0, 82, 127
2, 77388, Note_off_c, 0, 82, 64
2, 77400, Note_on_c, 0, 84, 127
2, 77448, Note_off_c, 0, 84, 64
2, 77460, Note_on_c, 0, 82, 127
2, 77508, Note_off_c, 0, 82, 64
2, 77520, Note_on_c, 0, 80, 127
2, 77568, Note_off_c, 0, 80, 64
2, 77580, Note_on_c, 0, 79, 127
2, 77628, Note_off_c, 0, 79, 64
2, 77640, Note_on_c, 0, 77, 127
2, 77688, Note_off_c, 0, 77, 64
2, 77700, Note_on_c, 0, 80, 127
2, 77748, Note_off_c, 0, 80, 64
2, 77760, Note_on_c, 0, 79, 127
2, 77856, Note_off_c, 0, 79, 64
2, 77880, Note_on_c, 0, 72, 127
2, 77976, Note_off_c, 0, 72, 64
2, 78000, Note_on_c, 0, 77, 127
2, 78096, Note_off_c, 0, 77, 64
2, 78120, Note_on_c, 0, 68, 127
2, 78312, Note_off_c, 0, 68, 64
2, 78360, Note_on_c, 0, 77, 127
2, 78456, Note_off_c, 0, 77, 64
2, 78480, Note_on_c, 0, 67, 127
2, 78528, Note_off_c, 0, 67, 64
2, 78540, Note_on_c, 0, 71, 127
2, 78588, Note_off_c, 0, 71, 64
2, 78600, Note_on_c, 0, 72, 127
2, 78648, Note_off_c, 0, 72, 64
2, 78660, Note_on_c, 0, 74, 127
2, 78708, Note_off_c, 0, 74, 64
2, 78720, Note_on_c, 0, 75, 127
2, 78768, Note_off_c, 0, 75, 64
2, 78780, Note_on_c, 0, 77, 127
2, 78828, Note_off_c, 0, 77, 64
2, 78840, Note_on_c, 0, 79, 127
2, 78888, Note_off_c, 0, 79, 64
2, 78900, Note_on_c, 0, 80, 127
2, 78948, Note_off_c, 0, 80, 64
2, 78960, Note_on_c, 0, 82, 127
2, 79008, Note_off_c, 0, 82, 64
2, 79020, Note_on_c, 0, 84, 127
2, 79068, Note_off_c, 0, 84, 64
2, 79080, Note_on_c, 0, 82, 127
2, 79128, Note_off_c, 0, 82, 64
2, 79140, Note_on_c, 0, 72, 127
2, 79188, Note_off_c, 0, 72, 64
2, 79200, Note_on_c, 0, 80, 127
2, 79248, Note_off_c, 0, 80, 64
2, 79260, Note_on_c, 0, 79, 127
2, 79308, Note_off_c, 0, 79, 64
2, 79320, Note_on_c, 0, 77, 127
2, 79368, Note_off_c, 0, 77, 64
2, 79380, Note_on_c, 0, 76, 127
2, 79428, Note_off_c, 0, 76, 64
2, 79440, Note_on_c, 0, 77, 127
2, 79488, Note_off_c, 0, 77, 64
2, 79500, Note_on_c, 0, 75, 127
2, 79548, Note_off_c, 0, 75, 64
2, 79560, Note_on_c, 0, 73, 127
2, 79608, Note_off_c, 0, 73, 64
2, 79620, Note_on_c, 0, 72, 127
2, 79668, Note_off_c, 0, 72, 64
2, 79680, Note_on_c, 0, 70, 127
2, 79968, Note_off_c, 0, 70, 64
2, 79980, Note_on_c, 0, 68, 127
2, 80028, Note_off_c, 0, 68, 64
2, 80040, Note_on_c, 0, 67, 127
2, 80088, Note_off_c, 0, 67, 64
2, 80100, Note_on_c, 0, 65, 127
2, 80148, Note_off_c, 0, 65, 64
2, 80160, Note_on_c, 0, 64, 127
2, 80256, Note_off_c, 0, 64, 64
2, 80280, Note_on_c, 0, 72, 127
2, 80376, Note_off_c, 0, 72, 64
2, 80400, Note_on_c, 0, 74, 127
2, 80496, Note_off_c, 0, 74, 64
2, 80520, Note_on_c, 0, 76, 127
2, 80616, Note_off_c, 0, 76, 64
2, 80640, Note_on_c, 0, 77, 127
2, 80736, Note_off_c, 0, 77, 64
2, 81420, Note_on_c, 0, 70, 127
2, 81468, Note_off_c, 0, 70, 64
2, 81480, Note_on_c, 0, 68, 127
2, 81528, Note_off_c, 0, 68, 64
2, 81540, Note_on_c, 0, 70, 127
2, 81588, Note_off_c, 0, 70, 64
2, 81600, Note_on_c, 0, 65, 127
2, 81648, Note_off_c, 0, 65, 64
2, 81660, Note_on_c, 0, 70, 127
2, 81708, Note_off_c, 0, 70, 64
2, 81720, Note_on_c, 0, 68, 127
2, 81768, Note_off_c, 0, 68, 64
2, 81780, Note_on_c, 0, 70, 127
2, 81828, Note_off_c, 0, 70, 64
2, 81840, Note_on_c, 0, 73, 127
2, 81888, Note_off_c, 0, 73, 64
2, 81900, Note_on_c, 0, 70, 127
2, 81948, Note_off_c, 0, 70, 64
2, 81960, Note_on_c, 0, 68, 127
2, 82008, Note_off_c, 0, 68, 64
2, 82020, Note_on_c, 0, 70, 127
2, 82068, Note_off_c, 0, 70, 64
2, 82080, Note_on_c, 0, 67, 127
2, 82176, Note_off_c, 0, 67, 64
2, 82320, Note_on_c, 0, 73, 127
2, 82416, Note_off_c, 0, 73, 64
2, 82560, Note_on_c, 0, 73, 127
2, 82656, Note_off_c, 0, 73, 64
2, 82860, Note_on_c, 0, 68, 127
2, 82908, Note_off_c, 0, 68, 64
2, 82920, Note_on_c, 0, 66, 127
2, 82968, Note_off_c, 0, 66, 64
2, 82980, Note_on_c, 0, 68, 127
2, 83028, Note_off_c, 0, 68, 64
2, 83040, Note_on_c, 0, 63, 127
2, 83088, Note_off_c, 0, 63, 64
2, 83100, Note_on_c, 0, 68, 127
2, 83148, Note_off_c, 0, 68, 64
2, 83160, Note_on_c, 0, 66, 127
2, 83208, Note_off_c, 0, 66, 64
2, 83220, Note_on_c, 0, 68, 127
2, 83268, Note_off_c, 0, 68, 64
2, 83280, Note_on_c, 0, 72, 127
2, 83328, Note_off_c, 0, 72, 64
2, 83340, Note_on_c, 0, 68, 127
2, 83388, Note_off_c, 0, 68, 64
2, 83400, Note_on_c, 0, 66, 127
2, 83448, Note_off_c, 0, 66, 64
2, 83460, Note_on_c, 0, 68, 127
2, 83508, Note_off_c, 0, 68, 64
2, 83520, Note_on_c, 0, 65, 127
2, 83568, Note_off_c, 0, 65, 64
2, 83580, Note_on_c, 0, 70, 127
2, 83628, Note_off_c, 0, 70, 64
2, 83640, Note_on_c, 0, 69, 127
2, 83688, Note_off_c, 0, 69, 64
2, 83700, Note_on_c, 0, 70, 127
2, 83748, Note_off_c, 0, 70, 64
2, 83760, Note_on_c, 0, 65, 127
2, 83808, Note_off_c, 0, 65, 64
2, 83820, Note_on_c, 0, 70, 127
2, 83868, Note_off_c, 0, 70, 64
2, 83880, Note_on_c, 0, 69, 127
2, 83928, Note_off_c, 0, 69, 64
2, 83940, Note_on_c, 0, 70, 127
2, 83988, Note_off_c, 0, 70, 64
2, 84000, Note_on_c, 0, 73, 127
2, 84048, Note_off_c, 0, 73, 64
2, 84060, Note_on_c, 0, 70, 127
2, 84108, Note_off_c, 0, 70, 64
2, 84120, Note_on_c, 0, 68, 127
2, 84168, Note_off_c, 0, 68, 64
2, 84180, Note_on_c, 0, 70, 127
2, 84228, Note_off_c, 0, 70, 64
2, 84240, Note_on_c, 0, 67, 127
2, 84336, Note_off_c, 0, 67, 64
2, 84360, Note_on_c, 0, 70, 127
2, 84456, Note_off_c, 0, 70, 64
2, 84480, Note_on_c, 0, 75, 127
2, 85008, Note_off_c, 0, 75, 64
2, 85020, Note_on_c, 0, 63, 127
2, 85068, Note_off_c, 0, 63, 64
2, 85080, Note_on_c, 0, 61, 127
2, 85128, Note_off_c, 0, 61, 64
2, 85140, Note_on_c, 0, 63, 127
2, 85188, Note_off_c, 0, 63, 64
2, 85200, Note_on_c, 0, 68, 127
2, 85248, Note_off_c, 0, 68, 64
2, 85260, Note_on_c, 0, 63, 127
2, 85308, Note_off_c, 0, 63, 64
2, 85320, Note_on_c, 0, 61, 127
2, 85368, Note_off_c, 0, 61, 64
2, 85380, Note_on_c, 0, 63, 127
2, 85428, Note_off_c, 0, 63, 64
2, 85440, Note_on_c, 0, 72, 127
2, 85488, Note_off_c, 0, 72, 64
2, 85500, Note_on_c, 0, 68, 127
2, 85548, Note_off_c, 0, 68, 64
2, 85560, Note_on_c, 0, 67, 127
2, 85608, Note_off_c, 0, 67, 64
2, 85620, Note_on_c, 0, 68, 127
2, 85668, Note_off_c, 0, 68, 64
2, 85680, Note_on_c, 0, 74, 127
2, 85728, Note_off_c, 0, 74, 64
2, 85740, Note_on_c, 0, 75, 127
2, 85788, Note_off_c, 0, 75, 64
2, 85800, Note_on_c, 0, 74, 127
2, 85848, Note_off_c, 0, 74, 64
2, 85860, Note_on_c, 0, 72, 127
2, 85908, Note_off_c, 0, 72, 64
2, 85920, Note_on_c, 0, 70, 127
2, 85968, Note_off_c, 0, 70, 64
2, 85980, Note_on_c, 0, 79, 127
2, 86028, Note_off_c, 0, 79, 64
2, 86040, Note_on_c, 0, 77, 127
2, 86088, Note_off_c, 0, 77, 64
2, 86100, Note_on_c, 0, 75, 127
2, 86148, Note_off_c, 0, 75, 64
2, 86160, Note_on_c, 0, 74, 127
2, 86208, Note_off_c, 0, 74, 64
2, 86220, Note_on_c, 0, 72, 127
2, 86268, Note_off_c, 0, 72, 64
2, 86280, Note_on_c, 0, 70, 127
2, 86328, Note_off_c, 0, 70, 64
2, 86340, Note_on_c, 0, 68, 127
2, 86388, Note_off_c, 0, 68, 64
2, 86400, Note_on_c, 0, 67, 127
2, 86448, Note_off_c, 0, 67, 64
2, 86460, Note_on_c, 0, 65, 127
2, 86508, Note_off_c, 0, 65, 64
2, 86520, Note_on_c, 0, 67, 127
2, 86568, Note_off_c, 0, 67, 64
2, 86580, Note_on_c, 0, 70, 127
2, 86628, Note_off_c, 0, 70, 64
2, 86640, Note_on_c, 0, 68, 127
2, 86688, Note_off_c, 0, 68, 64
2, 86700, Note_on_c, 0, 67, 127
2, 86748, Note_off_c, 0, 67, 64
2, 86760, Note_on_c, 0, 68, 127
2, 86808, Note_off_c, 0, 68, 64
2, 86820, Note_on_c, 0, 72, 127
2, 86868, Note_off_c, 0, 72, 64
2, 86880, Note_on_c, 0, 70, 127
2, 86928, Note_off_c, 0, 70, 64
2, 86940, Note_on_c, 0, 68, 127
2, 86988, Note_off_c, 0, 68, 64
2, 87000, Note_on_c, 0, 70, 127
2, 87048, Note_off_c, 0, 70, 64
2, 87060, Note_on_c, 0, 73, 127
2, 87108, Note_off_c, 0, 73, 64
2, 87120, Note_on_c, 0, 72, 127
2, 87168, Note_off_c, 0, 72, 64
2, 87180, Note_on_c, 0, 70, 127
2, 87228, Note_off_c, 0, 70, 64
2, 87240, Note_on_c, 0, 72, 127
2, 87288, Note_off_c, 0, 72, 64
2, 87300, Note_on_c, 0, 75, 127
2, 87348, Note_off_c, 0, 75, 64
2, 87360, Note_on_c, 0, 67, 127
2, 87408, Note_off_c, 0, 67, 64
2, 87420, Note_on_c, 0, 65, 127
2, 87468, Note_off_c, 0, 65, 64
2, 87480, Note_on_c, 0, 67, 127
2, 87528, Note_off_c, 0, 67, 64
2, 87540, Note_on_c, 0, 75, 127
2, 87588, Note_off_c, 0, 75, 64
2, 87600, Note_on_c, 0, 68, 127
2, 87648, Note_off_c, 0, 68, 64
2, 87660, Note_on_c, 0, 67, 127
2, 87708, Note_off_c, 0, 67, 64
2, 87720, Note_on_c, 0, 68, 127
2, 87768, Note_off_c, 0, 68, 64
2, 87780, Note_on_c, 0, 75, 127
2, 87828, Note_off_c, 0, 75, 64
2, 87840, Note_on_c, 0, 67, 127
2, 88032, Note_off_c, 0, 67, 64
2, 88140, Note_on_c, 0, 79, 127
2, 88188, Note_off_c, 0, 79, 64
2, 88200, Note_on_c, 0, 77, 127
2, 88248, Note_off_c, 0, 77, 64
2, 88260, Note_on_c, 0, 75, 127
2, 88308, Note_off_c, 0, 75, 64
2, 88320, Note_on_c, 0, 74, 127
2, 88368, Note_off_c, 0, 74, 64
2, 88380, Note_on_c, 0, 72, 127
2, 88428, Note_off_c, 0, 72, 64
2, 88440, Note_on_c, 0, 70, 127
2, 88488, Note_off_c, 0, 70, 64
2, 88500, Note_on_c, 0, 68, 127
2, 88548, Note_off_c, 0, 68, 64
2, 88560, Note_on_c, 0, 67, 127
2, 88608, Note_off_c, 0, 67, 64
2, 88620, Note_on_c, 0, 75, 127
2, 88668, Note_off_c, 0, 75, 64
2, 88680, Note_on_c, 0, 74, 127
2, 88728, Note_off_c, 0, 74, 64
2, 88740, Note_on_c, 0, 75, 127
2, 88788, Note_off_c, 0, 75, 64
2, 88800, Note_on_c, 0, 68, 127
2, 88848, Note_off_c, 0, 68, 64
2, 88860, Note_on_c, 0, 75, 127
2, 88908, Note_off_c, 0, 75, 64
2, 88920, Note_on_c, 0, 67, 127
2, 88968, Note_off_c, 0, 67, 64
2, 88980, Note_on_c, 0, 75, 127
2, 89028, Note_off_c, 0, 75, 64
2, 89040, Note_on_c, 0, 68, 127
2, 89088, Note_off_c, 0, 68, 64
2, 89100, Note_on_c, 0, 75, 127
2, 89148, Note_off_c, 0, 75, 64
2, 89160, Note_on_c, 0, 65, 127
2, 89208, Note_off_c, 0, 65, 64
2, 89220, Note_on_c, 0, 75, 127
2, 89268, Note_off_c, 0, 75, 64
2, 89280, Note_on_c, 0, 67, 127
2, 89376, Note_off_c, 0, 67, 64
2, 89400, Note_on_c, 0, 82, 127
2, 89496, Note_off_c, 0, 82, 64
2, 89520, Note_on_c, 0, 84, 127
2, 89616, Note_off_c, 0, 84, 64
2, 89640, Note_on_c, 0, 82, 127
2, 89736, Note_off_c, 0, 82, 64
2, 89760, Note_on_c, 0, 84, 127
2, 89856, Note_off_c, 0, 84, 64
2, 89880, Note_on_c, 0, 80, 127
2, 89976, Note_off_c, 0, 80, 64
2, 90000, Note_on_c, 0, 82, 127
2, 90048, Note_off_c, 0, 82, 64
2, 90060, Note_on_c, 0, 75, 127
2, 90108, Note_off_c, 0, 75, 64
2, 90120, Note_on_c, 0, 77, 127
2, 90168, Note_off_c, 0, 77, 64
2, 90180, Note_on_c, 0, 79, 127
2, 90228, Note_off_c, 0, 79, 64
2, 90240, Note_on_c, 0, 80, 127
2, 90528, Note_off_c, 0, 80, 64
2, 90540, Note_on_c, 0, 79, 127
2, 90588, Note_off_c, 0, 79, 64
2, 90600, Note_on_c, 0, 80, 127
2, 90648, Note_off_c, 0, 80, 64
2, 90660, Note_on_c, 0, 77, 127
2, 90708, Note_off_c, 0, 77, 64
2, 90720, Note_on_c, 0, 82, 127
2, 90816, Note_off_c, 0, 82, 64
2, 90840, Note_on_c, 0, 75, 127
2, 90936, Note_off_c, 0, 75, 64
2, 90960, Note_on_c, 0, 77, 127
2, 91050, Note_off_c, 0, 77, 64
2, 91200, Note_on_c, 0, 75, 80
2, 91224, Note_off_c, 0, 75, 64
2, 91230, Note_on_c, 0, 74, 80
2, 91254, Note_off_c, 0, 74, 64
2, 91260, Note_on_c, 0, 75, 80
2, 91284, Note_off_c, 0, 75, 64
2, 91290, Note_on_c, 0, 74, 80
2, 91314, Note_off_c, 0, 74, 64
2, 91320, Note_on_c, 0, 75, 80
2, 91344, Note_off_c, 0, 75, 64
2, 91350, Note_on_c, 0, 74, 80
2, 91374, Note_off_c, 0, 74, 64
2, 91380, Note_on_c, 0, 75, 80
2, 91404, Note_off_c, 0, 75, 64
2, 91410, Note_on_c, 0, 74, 80
2, 91434, Note_off_c, 0, 74, 64
2, 91440, Note_on_c, 0, 75, 127
2, 92016, Note_off_c, 0, 75, 64
2, 92016, End_track
3, 0, Start_track
3, 0, Title_t, "J.S. Bach, Edition Peters"
3, 0, Program_c, 1, 19
3, 0, Control_c, 1, 7, 127
3, 2880, Note_on_c, 1, 58, 100
3, 2976, Note_off_c, 1, 58, 64
3, 3000, Note_on_c, 1, 70, 100
3, 3096, Note_off_c, 1, 70, 64
3, 3120, Note_on_c, 1, 60, 100
3, 3216, Note_off_c, 1, 60, 64
3, 3240, Note_on_c, 1, 70, 100
3, 3336, Note_off_c, 1, 70, 64
3, 3360, Note_on_c, 1, 62, 100
3, 3456, Note_off_c, 1, 62, 64
3, 3480, Note_on_c, 1, 70, 100
3, 3576, Note_off_c, 1, 70, 64
3, 3600, Note_on_c, 1, 63, 100
3, 3696, Note_off_c, 1, 63, 64
3, 3720, Note_on_c, 1, 70, 100
3, 3816, Note_off_c, 1, 70, 64
3, 3840, Note_on_c, 1, 65, 100
3, 3936, Note_off_c, 1, 65, 64
3, 3960, Note_on_c, 1, 70, 100
3, 4056, Note_off_c, 1, 70, 64
3, 4080, Note_on_c, 1, 67, 100
3, 4176, Note_off_c, 1, 67, 64
3, 4200, Note_on_c, 1, 70, 100
3, 4296, Note_off_c, 1, 70, 64
3, 4320, Note_on_c, 1, 65, 100
3, 4368, Note_off_c, 1, 65, 64
3, 4380, Note_on_c, 1, 70, 100
3, 4428, Note_off_c, 1, 70, 64
3, 4440, Note_on_c, 1, 69, 100
3, 4488, Note_off_c, 1, 69, 64
3, 4500, Note_on_c, 1, 67, 100
3, 4548, Note_off_c, 1, 67, 64
3, 4560, Note_on_c, 1, 65, 100
3, 4608, Note_off_c, 1, 65, 64
3, 4620, Note_on_c, 1, 74, 100
3, 4668, Note_off_c, 1, 74, 64
3, 4680, Note_on_c, 1, 72, 100
3, 4728, Note_off_c, 1, 72, 64
3, 4740, Note_on_c, 1, 70, 100
3, 4788, Note_off_c, 1, 70, 64
3, 4800, Note_on_c, 1, 69, 100
3, 4848, Note_off_c, 1, 69, 64
3, 4860, Note_on_c, 1, 67, 100
3, 4908, Note_off_c, 1, 67, 64
3, 4920, Note_on_c, 1, 65, 100
3, 4968, Note_off_c, 1, 65, 64
3, 4980, Note_on_c, 1, 63, 100
3, 5028, Note_off_c, 1, 63, 64
3, 5040, Note_on_c, 1, 62, 100
3, 5088, Note_off_c, 1, 62, 64
3, 5100, Note_on_c, 1, 63, 100
3, 5148, Note_off_c, 1, 63, 64
3, 5160, Note_on_c, 1, 65, 100
3, 5208, Note_off_c, 1, 65, 64
3, 5220, Note_on_c, 1, 62, 100
3, 5268, Note_off_c, 1, 62, 64
3, 5280, Note_on_c, 1, 58, 100
3, 5328, Note_off_c, 1, 58, 64
3, 5340, Note_on_c, 1, 62, 100
3, 5388, Note_off_c, 1, 62, 64
3, 5400, Note_on_c, 1, 65, 100
3, 5448, Note_off_c, 1, 65, 64
3, 5460, Note_on_c, 1, 70, 100
3, 5508, Note_off_c, 1, 70, 64
3, 5520, Note_on_c, 1, 62, 100
3, 5568, Note_off_c, 1, 62, 64
3, 5580, Note_on_c, 1, 65, 100
3, 5628, Note_off_c, 1, 65, 64
3, 5640, Note_on_c, 1, 68, 100
3, 5688, Note_off_c, 1, 68, 64
3, 5700, Note_on_c, 1, 70, 100
3, 5748, Note_off_c, 1, 70, 64
3, 5760, Note_on_c, 1, 67, 100
3, 5808, Note_off_c, 1, 67, 64
3, 5820, Note_on_c, 1, 65, 100
3, 5868, Note_off_c, 1, 65, 64
3, 5880, Note_on_c, 1, 67, 100
3, 5928, Note_off_c, 1, 67, 64
3, 5940, Note_on_c, 1, 70, 100
3, 5988, Note_off_c, 1, 70, 64
3, 6000, Note_on_c, 1, 68, 100
3, 6048, Note_off_c, 1, 68, 64
3, 6060, Note_on_c, 1, 67, 100
3, 6108, Note_off_c, 1, 67, 64
3, 6120, Note_on_c, 1, 68, 100
3, 6168, Note_off_c, 1, 68, 64
3, 6180, Note_on_c, 1, 72, 100
3, 6228, Note_off_c, 1, 72, 64
3, 6240, Note_on_c, 1, 70, 100
3, 6288, Note_off_c, 1, 70, 64
3, 6300, Note_on_c, 1, 68, 100
3, 6348, Note_off_c, 1, 68, 64
3, 6360, Note_on_c, 1, 70, 100
3, 6408, Note_off_c, 1, 70, 64
3, 6420, Note_on_c, 1, 73, 100
3, 6468, Note_off_c, 1, 73, 64
3, 6480, Note_on_c, 1, 72, 100
3, 6528, Note_off_c, 1, 72, 64
3, 6540, Note_on_c, 1, 70, 100
3, 6588, Note_off_c, 1, 70, 64
3, 6600, Note_on_c, 1, 72, 100
3, 6648, Note_off_c, 1, 72, 64
3, 6660, Note_on_c, 1, 75, 100
3, 6708, Note_off_c, 1, 75, 64
3, 6720, Note_on_c, 1, 67, 100
3, 6768, Note_off_c, 1, 67, 64
3, 6780, Note_on_c, 1, 65, 100
3, 6828, Note_off_c, 1, 65, 64
3, 6840, Note_on_c, 1, 67, 100
3, 6888, Note_off_c, 1, 67, 64
3, 6900, Note_on_c, 1, 75, 100
3, 6948, Note_off_c, 1, 75, 64
3, 6960, Note_on_c, 1, 68, 100
3, 7008, Note_off_c, 1, 68, 64
3, 7020, Note_on_c, 1, 67, 100
3, 7068, Note_off_c, 1, 67, 64
3, 7080, Note_on_c, 1, 68, 100
3, 7128, Note_off_c, 1, 68, 64
3, 7140, Note_on_c, 1, 75, 100
3, 7188, Note_off_c, 1, 75, 64
3, 7200, Note_on_c, 1, 67, 100
3, 7296, Note_off_c, 1, 67, 64
3, 7320, Note_on_c, 1, 70, 100
3, 7416, Note_off_c, 1, 70, 64
3, 7440, Note_on_c, 1, 75, 100
3, 7536, Note_off_c, 1, 75, 64
3, 7560, Note_on_c, 1, 67, 100
3, 7656, Note_off_c, 1, 67, 64
3, 7680, Note_on_c, 1, 65, 100
3, 7776, Note_off_c, 1, 65, 64
3, 7800, Note_on_c, 1, 70, 100
3, 7896, Note_off_c, 1, 70, 64
3, 7980, Note_on_c, 1, 63, 100
3, 8028, Note_off_c, 1, 63, 64
3, 8040, Note_on_c, 1, 65, 100
3, 8088, Note_off_c, 1, 65, 64
3, 8100, Note_on_c, 1, 67, 100
3, 8148, Note_off_c, 1, 67, 64
3, 8160, Note_on_c, 1, 68, 100
3, 8208, Note_off_c, 1, 68, 64
3, 8220, Note_on_c, 1, 70, 100
3, 8268, Note_off_c, 1, 70, 64
3, 8280, Note_on_c, 1, 72, 100
3, 8328, Note_off_c, 1, 72, 64
3, 8340, Note_on_c, 1, 70, 100
3, 8388, Note_off_c, 1, 70, 64
3, 8400, Note_on_c, 1, 68, 100
3, 8448, Note_off_c, 1, 68, 64
3, 8460, Note_on_c, 1, 67, 100
3, 8508, Note_off_c, 1, 67, 64
3, 8520, Note_on_c, 1, 65, 100
3, 8568, Note_off_c, 1, 65, 64
3, 8580, Note_on_c, 1, 68, 100
3, 8628, Note_off_c, 1, 68, 64
3, 8640, Note_on_c, 1, 67, 100
3, 8736, Note_off_c, 1, 67, 64
3, 8760, Note_on_c, 1, 70, 100
3, 8856, Note_off_c, 1, 70, 64
3, 8880, Note_on_c, 1, 72, 100
3, 8976, Note_off_c, 1, 72, 64
3, 9000, Note_on_c, 1, 68, 100
3, 9096, Note_off_c, 1, 68, 64
3, 9120, Note_on_c, 1, 77, 100
3, 9408, Note_off_c, 1, 77, 64
3, 9420, Note_on_c, 1, 80, 100
3, 9468, Note_off_c, 1, 80, 64
3, 9480, Note_on_c, 1, 79, 100
3, 9528, Note_off_c, 1, 79, 64
3, 9540, Note_on_c, 1, 77, 100
3, 9588, Note_off_c, 1, 77, 64
3, 9600, Note_on_c, 1, 75, 100
3, 9648, Note_off_c, 1, 75, 64
3, 9660, Note_on_c, 1, 74, 100
3, 9708, Note_off_c, 1, 74, 64
3, 9720, Note_on_c, 1, 72, 100
3, 9768, Note_off_c, 1, 72, 64
3, 9780, Note_on_c, 1, 70, 100
3, 9828, Note_off_c, 1, 70, 64
3, 9840, Note_on_c, 1, 68, 100
3, 9888, Note_off_c, 1, 68, 64
3, 9900, Note_on_c, 1, 67, 100
3, 9948, Note_off_c, 1, 67, 64
3, 9960, Note_on_c, 1, 68, 100
3, 10008, Note_off_c, 1, 68, 64
3, 10020, Note_on_c, 1, 77, 100
3, 10068, Note_off_c, 1, 77, 64
3, 10080, Note_on_c, 1, 67, 100
3, 10128, Note_off_c, 1, 67, 64
3, 10140, Note_on_c, 1, 77, 100
3, 10188, Note_off_c, 1, 77, 64
3, 10200, Note_on_c, 1, 75, 100
3, 10248, Note_off_c, 1, 75, 64
3, 10260, Note_on_c, 1, 74, 100
3, 10308, Note_off_c, 1, 74, 64
3, 10320, Note_on_c, 1, 72, 100
3, 10368, Note_off_c, 1, 72, 64
3, 10380, Note_on_c, 1, 70, 100
3, 10428, Note_off_c, 1, 70, 64
3, 10440, Note_on_c, 1, 68, 100
3, 10488, Note_off_c, 1, 68, 64
3, 10500, Note_on_c, 1, 67, 100
3, 10548, Note_off_c, 1, 67, 64
3, 10560, Note_on_c, 1, 65, 100
3, 10848, Note_off_c, 1, 65, 64
3, 10860, Note_on_c, 1, 68, 100
3, 10908, Note_off_c, 1, 68, 64
3, 10920, Note_on_c, 1, 67, 100
3, 10968, Note_off_c, 1, 67, 64
3, 10980, Note_on_c, 1, 65, 100
3, 11028, Note_off_c, 1, 65, 64
3, 11040, Note_on_c, 1, 63, 100
3, 11136, Note_off_c, 1, 63, 64
3, 11160, Note_on_c, 1, 67, 100
3, 11256, Note_off_c, 1, 67, 64
3, 11280, Note_on_c, 1, 69, 100
3, 11376, Note_off_c, 1, 69, 64
3, 11400, Note_on_c, 1, 71, 100
3, 11496, Note_off_c, 1, 71, 64
3, 11520, Note_on_c, 1, 72, 100
3, 11616, Note_off_c, 1, 72, 64
3, 12300, Note_on_c, 1, 65, 100
3, 12348, Note_off_c, 1, 65, 64
3, 12360, Note_on_c, 1, 63, 100
3, 12408, Note_off_c, 1, 63, 64
3, 12420, Note_on_c, 1, 65, 100
3, 12468, Note_off_c, 1, 65, 64
3, 12480, Note_on_c, 1, 60, 100
3, 12528, Note_off_c, 1, 60, 64
3, 12540, Note_on_c, 1, 65, 100
3, 12588, Note_off_c, 1, 65, 64
3, 12600, Note_on_c, 1, 63, 100
3, 12648, Note_off_c, 1, 63, 64
3, 12660, Note_on_c, 1, 65, 100
3, 12708, Note_off_c, 1, 65, 64
3, 12720, Note_on_c, 1, 68, 100
3, 12768, Note_off_c, 1, 68, 64
3, 12780, Note_on_c, 1, 65, 100
3, 12828, Note_off_c, 1, 65, 64
3, 12840, Note_on_c, 1, 63, 100
3, 12888, Note_off_c, 1, 63, 64
3, 12900, Note_on_c, 1, 65, 100
3, 12948, Note_off_c, 1, 65, 64
3, 12960, Note_on_c, 1, 62, 100
3, 13056, Note_off_c, 1, 62, 64
3, 13200, Note_on_c, 1, 68, 100
3, 13296, Note_off_c, 1, 68, 64
3, 13440, Note_on_c, 1, 68, 100
3, 13536, Note_off_c, 1, 68, 64
3, 13740, Note_on_c, 1, 63, 100
3, 13788, Note_off_c, 1, 63, 64
3, 13800, Note_on_c, 1, 61, 100
3, 13848, Note_off_c, 1, 61, 64
3, 13860, Note_on_c, 1, 63, 100
3, 13908, Note_off_c, 1, 63, 64
3, 13920, Note_on_c, 1, 58, 100
3, 13968, Note_off_c, 1, 58, 64
3, 13980, Note_on_c, 1, 63, 100
3, 14028, Note_off_c, 1, 63, 64
3, 14040, Note_on_c, 1, 61, 100
3, 14088, Note_off_c, 1, 61, 64
3, 14100, Note_on_c, 1, 63, 100
3, 14148, Note_off_c, 1, 63, 64
3, 14160, Note_on_c, 1, 67, 100
3, 14208, Note_off_c, 1, 67, 64
3, 14220, Note_on_c, 1, 63, 100
3, 14268, Note_off_c, 1, 63, 64
3, 14280, Note_on_c, 1, 61, 100
3, 14328, Note_off_c, 1, 61, 64
3, 14340, Note_on_c, 1, 63, 100
3, 14388, Note_off_c, 1, 63, 64
3, 14400, Note_on_c, 1, 60, 100
3, 14448, Note_off_c, 1, 60, 64
3, 14460, Note_on_c, 1, 65, 100
3, 14508, Note_off_c, 1, 65, 64
3, 14520, Note_on_c, 1, 64, 100
3, 14568, Note_off_c, 1, 64, 64
3, 14580, Note_on_c, 1, 65, 100
3, 14628, Note_off_c, 1, 65, 64
3, 14640, Note_on_c, 1, 60, 100
3, 14688, Note_off_c, 1, 60, 64
3, 14700, Note_on_c, 1, 65, 100
3, 14748, Note_off_c, 1, 65, 64
3, 14760, Note_on_c, 1, 64, 100
3, 14808, Note_off_c, 1, 64, 64
3, 14820, Note_on_c, 1, 65, 100
3, 14868, Note_off_c, 1, 65, 64
3, 14880, Note_on_c, 1, 68, 100
3, 14928, Note_off_c, 1, 68, 64
3, 14940, Note_on_c, 1, 65, 100
3, 14988, Note_off_c, 1, 65, 64
3, 15000, Note_on_c, 1, 64, 100
3, 15048, Note_off_c, 1, 64, 64
3, 15060, Note_on_c, 1, 65, 100
3, 15108, Note_off_c, 1, 65, 64
3, 15120, Note_on_c, 1, 62, 100
3, 15216, Note_off_c, 1, 62, 64
3, 15240, Note_on_c, 1, 65, 100
3, 15336, Note_off_c, 1, 65, 64
3, 15360, Note_on_c, 1, 70, 100
3, 15888, Note_off_c, 1, 70, 64
3, 15900, Note_on_c, 1, 70, 100
3, 15948, Note_off_c, 1, 70, 64
3, 15960, Note_on_c, 1, 68, 100
3, 16008, Note_off_c, 1, 68, 64
3, 16020, Note_on_c, 1, 70, 100
3, 16068, Note_off_c, 1, 70, 64
3, 16080, Note_on_c, 1, 75, 100
3, 16128, Note_off_c, 1, 75, 64
3, 16140, Note_on_c, 1, 70, 100
3, 16188, Note_off_c, 1, 70, 64
3, 16200, Note_on_c, 1, 68, 100
3, 16248, Note_off_c, 1, 68, 64
3, 16260, Note_on_c, 1, 70, 100
3, 16308, Note_off_c, 1, 70, 64
3, 16320, Note_on_c, 1, 67, 100
3, 16368, Note_off_c, 1, 67, 64
3, 16380, Note_on_c, 1, 63, 100
3, 16428, Note_off_c, 1, 63, 64
3, 16440, Note_on_c, 1, 62, 100
3, 16488, Note_off_c, 1, 62, 64
3, 16500, Note_on_c, 1, 63, 100
3, 16548, Note_off_c, 1, 63, 64
3, 16560, Note_on_c, 1, 69, 100
3, 16608, Note_off_c, 1, 69, 64
3, 16620, Note_on_c, 1, 70, 100
3, 16668, Note_off_c, 1, 70, 64
3, 16680, Note_on_c, 1, 69, 100
3, 16728, Note_off_c, 1, 69, 64
3, 16740, Note_on_c, 1, 67, 100
3, 16788, Note_off_c, 1, 67, 64
3, 16800, Note_on_c, 1, 65, 100
3, 16848, Note_off_c, 1, 65, 64
3, 16860, Note_on_c, 1, 74, 100
3, 16908, Note_off_c, 1, 74, 64
3, 16920, Note_on_c, 1, 72, 100
3, 16968, Note_off_c, 1, 72, 64
3, 16980, Note_on_c, 1, 70, 100
3, 17028, Note_off_c, 1, 70, 64
3, 17040, Note_on_c, 1, 69, 100
3, 17088, Note_off_c, 1, 69, 64
3, 17100, Note_on_c, 1, 67, 100
3, 17148, Note_off_c, 1, 67, 64
3, 17160, Note_on_c, 1, 65, 100
3, 17208, Note_off_c, 1, 65, 64
3, 17220, Note_on_c, 1, 63, 100
3, 17268, Note_off_c, 1, 63, 64
3, 17280, Note_on_c, 1, 62, 100
3, 17328, Note_off_c, 1, 62, 64
3, 17340, Note_on_c, 1, 60, 100
3, 17388, Note_off_c, 1, 60, 64
3, 17400, Note_on_c, 1, 62, 100
3, 17448, Note_off_c, 1, 62, 64
3, 17460, Note_on_c, 1, 65, 100
3, 17508, Note_off_c, 1, 65, 64
3, 17520, Note_on_c, 1, 63, 100
3, 17568, Note_off_c, 1, 63, 64
3, 17580, Note_on_c, 1, 62, 100
3, 17628, Note_off_c, 1, 62, 64
3, 17640, Note_on_c, 1, 63, 100
3, 17688, Note_off_c, 1, 63, 64
3, 17700, Note_on_c, 1, 67, 100
3, 17748, Note_off_c, 1, 67, 64
3, 17760, Note_on_c, 1, 65, 100
3, 17808, Note_off_c, 1, 65, 64
3, 17820, Note_on_c, 1, 63, 100
3, 17868, Note_off_c, 1, 63, 64
3, 17880, Note_on_c, 1, 65, 100
3, 17928, Note_off_c, 1, 65, 64
3, 17940, Note_on_c, 1, 68, 100
3, 17988, Note_off_c, 1, 68, 64
3, 18000, Note_on_c, 1, 67, 100
3, 18048, Note_off_c, 1, 67, 64
3, 18060, Note_on_c, 1, 65, 100
3, 18108, Note_off_c, 1, 65, 64
3, 18120, Note_on_c, 1, 67, 100
3, 18168, Note_off_c, 1, 67, 64
3, 18180, Note_on_c, 1, 70, 100
3, 18228, Note_off_c, 1, 70, 64
3, 18240, Note_on_c, 1, 62, 100
3, 18288, Note_off_c, 1, 62, 64
3, 18300, Note_on_c, 1, 60, 100
3, 18348, Note_off_c, 1, 60, 64
3, 18360, Note_on_c, 1, 62, 100
3, 18408, Note_off_c, 1, 62, 64
3, 18420, Note_on_c, 1, 70, 100
3, 18468, Note_off_c, 1, 70, 64
3, 18480, Note_on_c, 1, 63, 100
3, 18528, Note_off_c, 1, 63, 64
3, 18540, Note_on_c, 1, 62, 100
3, 18588, Note_off_c, 1, 62, 64
3, 18600, Note_on_c, 1, 63, 100
3, 18648, Note_off_c, 1, 63, 64
3, 18660, Note_on_c, 1, 70, 100
3, 18708, Note_off_c, 1, 70, 64
3, 18720, Note_on_c, 1, 62, 100
3, 18912, Note_off_c, 1, 62, 64
3, 19020, Note_on_c, 1, 74, 100
3, 19068, Note_off_c, 1, 74, 64
3, 19080, Note_on_c, 1, 72, 100
3, 19128, Note_off_c, 1, 72, 64
3, 19140, Note_on_c, 1, 70, 100
3, 19188, Note_off_c, 1, 70, 64
3, 19200, Note_on_c, 1, 69, 100
3, 19248, Note_off_c, 1, 69, 64
3, 19260, Note_on_c, 1, 67, 100
3, 19308, Note_off_c, 1, 67, 64
3, 19320, Note_on_c, 1, 65, 100
3, 19368, Note_off_c, 1, 65, 64
3, 19380, Note_on_c, 1, 63, 100
3, 19428, Note_off_c, 1, 63, 64
3, 19440, Note_on_c, 1, 62, 100
3, 19488, Note_off_c, 1, 62, 64
3, 19500, Note_on_c, 1, 70, 100
3, 19548, Note_off_c, 1, 70, 64
3, 19560, Note_on_c, 1, 69, 100
3, 19608, Note_off_c, 1, 69, 64
3, 19620, Note_on_c, 1, 70, 100
3, 19668, Note_off_c, 1, 70, 64
3, 19680, Note_on_c, 1, 63, 100
3, 19728, Note_off_c, 1, 63, 64
3, 19740, Note_on_c, 1, 70, 100
3, 19788, Note_off_c, 1, 70, 64
3, 19800, Note_on_c, 1, 62, 100
3, 19848, Note_off_c, 1, 62, 64
3, 19860, Note_on_c, 1, 70, 100
3, 19908, Note_off_c, 1, 70, 64
3, 19920, Note_on_c, 1, 63, 100
3, 19968, Note_off_c, 1, 63, 64
3, 19980, Note_on_c, 1, 70, 100
3, 20028, Note_off_c, 1, 70, 64
3, 20040, Note_on_c, 1, 60, 100
3, 20088, Note_off_c, 1, 60, 64
3, 20100, Note_on_c, 1, 70, 100
3, 20148, Note_off_c, 1, 70, 64
3, 20160, Note_on_c, 1, 62, 100
3, 20256, Note_off_c, 1, 62, 64
3, 20280, Note_on_c, 1, 65, 100
3, 20376, Note_off_c, 1, 65, 64
3, 20400, Note_on_c, 1, 67, 100
3, 20496, Note_off_c, 1, 67, 64
3, 20520, Note_on_c, 1, 65, 100
3, 20616, Note_off_c, 1, 65, 64
3, 20640, Note_on_c, 1, 67, 100
3, 20736, Note_off_c, 1, 67, 64
3, 20760, Note_on_c, 1, 63, 100
3, 20856, Note_off_c, 1, 63, 64
3, 20880, Note_on_c, 1, 65, 100
3, 20928, Note_off_c, 1, 65, 64
3, 20940, Note_on_c, 1, 58, 100
3, 20988, Note_off_c, 1, 58, 64
3, 21000, Note_on_c, 1, 60, 100
3, 21048, Note_off_c, 1, 60, 64
3, 21060, Note_on_c, 1, 62, 100
3, 21108, Note_off_c, 1, 62, 64
3, 21120, Note_on_c, 1, 63, 100
3, 21408, Note_off_c, 1, 63, 64
3, 21420, Note_on_c, 1, 62, 100
3, 21468, Note_off_c, 1, 62, 64
3, 21480, Note_on_c, 1, 63, 100
3, 21528, Note_off_c, 1, 63, 64
3, 21540, Note_on_c, 1, 60, 100
3, 21588, Note_off_c, 1, 60, 64
3, 21600, Note_on_c, 1, 65, 100
3, 21696, Note_off_c, 1, 65, 64
3, 21720, Note_on_c, 1, 62, 100
3, 21816, Note_off_c, 1, 62, 64
3, 21840, Note_on_c, 1, 63, 100
3, 21930, Note_off_c, 1, 63, 64
3, 22080, Note_on_c, 1, 60, 100
3, 22320, Note_off_c, 1, 60, 0
3, 22320, Note_on_c, 1, 62, 100
3, 22896, Note_off_c, 1, 62, 64
3, 25920, Note_on_c, 1, 58, 100
3, 26016, Note_off_c, 1, 58, 64
3, 26040, Note_on_c, 1, 70, 100
3, 26136, Note_off_c, 1, 70, 64
3, 26160, Note_on_c, 1, 60, 100
3, 26256, Note_off_c, 1, 60, 64
3, 26280, Note_on_c, 1, 70, 100
3, 26376, Note_off_c, 1, 70, 64
3, 26400, Note_on_c, 1, 62, 100
3, 26496, Note_off_c, 1, 62, 64
3, 26520, Note_on_c, 1, 70, 100
3, 26616, Note_off_c, 1, 70, 64
3, 26640, Note_on_c, 1, 63, 100
3, 26736, Note_off_c, 1, 63, 64
3, 26760, Note_on_c, 1, 70, 100
3, 26856, Note_off_c, 1, 70, 64
3, 26880, Note_on_c, 1, 65, 100
3, 26976, Note_off_c, 1, 65, 64
3, 27000, Note_on_c, 1, 70, 100
3, 27096, Note_off_c, 1, 70, 64
3, 27120, Note_on_c, 1, 67, 100
3, 27216, Note_off_c, 1, 67, 64
3, 27240, Note_on_c, 1, 70, 100
3, 27336, Note_off_c, 1, 70, 64
3, 27360, Note_on_c, 1, 65, 100
3, 27408, Note_off_c, 1, 65, 64
3, 27420, Note_on_c, 1, 70, 100
3, 27468, Note_off_c, 1, 70, 64
3, 27480, Note_on_c, 1, 69, 100
3, 27528, Note_off_c, 1, 69, 64
3, 27540, Note_on_c, 1, 67, 100
3, 27588, Note_off_c, 1, 67, 64
3, 27600, Note_on_c, 1, 65, 100
3, 27648, Note_off_c, 1, 65, 64
3, 27660, Note_on_c, 1, 74, 100
3, 27708, Note_off_c, 1, 74, 64
3, 27720, Note_on_c, 1, 72, 100
3, 27768, Note_off_c, 1, 72, 64
3, 27780, Note_on_c, 1, 70, 100
3, 27828, Note_off_c, 1, 70, 64
3, 27840, Note_on_c, 1, 69, 100
3, 27888, Note_off_c, 1, 69, 64
3, 27900, Note_on_c, 1, 67, 100
3, 27948, Note_off_c, 1, 67, 64
3, 27960, Note_on_c, 1, 65, 100
3, 28008, Note_off_c, 1, 65, 64
3, 28020, Note_on_c, 1, 63, 100
3, 28068, Note_off_c, 1, 63, 64
3, 28080, Note_on_c, 1, 62, 100
3, 28128, Note_off_c, 1, 62, 64
3, 28140, Note_on_c, 1, 63, 100
3, 28188, Note_off_c, 1, 63, 64
3, 28200, Note_on_c, 1, 65, 100
3, 28248, Note_off_c, 1, 65, 64
3, 28260, Note_on_c, 1, 62, 100
3, 28308, Note_off_c, 1, 62, 64
3, 28320, Note_on_c, 1, 58, 100
3, 28368, Note_off_c, 1, 58, 64
3, 28380, Note_on_c, 1, 62, 100
3, 28428, Note_off_c, 1, 62, 64
3, 28440, Note_on_c, 1, 65, 100
3, 28488, Note_off_c, 1, 65, 64
3, 28500, Note_on_c, 1, 70, 100
3, 28548, Note_off_c, 1, 70, 64
3, 28560, Note_on_c, 1, 62, 100
3, 28608, Note_off_c, 1, 62, 64
3, 28620, Note_on_c, 1, 65, 100
3, 28668, Note_off_c, 1, 65, 64
3, 28680, Note_on_c, 1, 68, 100
3, 28728, Note_off_c, 1, 68, 64
3, 28740, Note_on_c, 1, 70, 100
3, 28788, Note_off_c, 1, 70, 64
3, 28800, Note_on_c, 1, 67, 100
3, 28848, Note_off_c, 1, 67, 64
3, 28860, Note_on_c, 1, 65, 100
3, 28908, Note_off_c, 1, 65, 64
3, 28920, Note_on_c, 1, 67, 100
3, 28968, Note_off_c, 1, 67, 64
3, 28980, Note_on_c, 1, 70, 100
3, 29028, Note_off_c, 1, 70, 64
3, 29040, Note_on_c, 1, 68, 100
3, 29088, Note_off_c, 1, 68, 64
3, 29100, Note_on_c, 1, 67, 100
3, 29148, Note_off_c, 1, 67, 64
3, 29160, Note_on_c, 1, 68, 100
3, 29208, Note_off_c, 1, 68, 64
3, 29220, Note_on_c, 1, 72, 100
3, 29268, Note_off_c, 1, 72, 64
3, 29280, Note_on_c, 1, 70, 100
3, 29328, Note_off_c, 1, 70, 64
3, 29340, Note_on_c, 1, 68, 100
3, 29388, Note_off_c, 1, 68, 64
3, 29400, Note_on_c, 1, 70, 100
3, 29448, Note_off_c, 1, 70, 64
3, 29460, Note_on_c, 1, 73, 100
3, 29508, Note_off_c, 1, 73, 64
3, 29520, Note_on_c, 1, 72, 100
3, 29568, Note_off_c, 1, 72, 64
3, 29580, Note_on_c, 1, 70, 100
3, 29628, Note_off_c, 1, 70, 64
3, 29640, Note_on_c, 1, 72, 100
3, 29688, Note_off_c, 1, 72, 64
3, 29700, Note_on_c, 1, 75, 100
3, 29748, Note_off_c, 1, 75, 64
3, 29760, Note_on_c, 1, 67, 100
3, 29808, Note_off_c, 1, 67, 64
3, 29820, Note_on_c, 1, 65, 100
3, 29868, Note_off_c, 1, 65, 64
3, 29880, Note_on_c, 1, 67, 100
3, 29928, Note_off_c, 1, 67, 64
3, 29940, Note_on_c, 1, 75, 100
3, 29988, Note_off_c, 1, 75, 64
3, 30000, Note_on_c, 1, 68, 100
3, 30048, Note_off_c, 1, 68, 64
3, 30060, Note_on_c, 1, 67, 100
3, 30108, Note_off_c, 1, 67, 64
3, 30120, Note_on_c, 1, 68, 100
3, 30168, Note_off_c, 1, 68, 64
3, 30180, Note_on_c, 1, 75, 100
3, 30228, Note_off_c, 1, 75, 64
3, 30240, Note_on_c, 1, 67, 100
3, 30336, Note_off_c, 1, 67, 64
3, 30360, Note_on_c, 1, 70, 100
3, 30456, Note_off_c, 1, 70, 64
3, 30480, Note_on_c, 1, 75, 100
3, 30576, Note_off_c, 1, 75, 64
3, 30600, Note_on_c, 1, 67, 100
3, 30696, Note_off_c, 1, 67, 64
3, 30720, Note_on_c, 1, 65, 100
3, 30816, Note_off_c, 1, 65, 64
3, 30840, Note_on_c, 1, 70, 100
3, 30936, Note_off_c, 1, 70, 64
3, 31020, Note_on_c, 1, 63, 100
3, 31068, Note_off_c, 1, 63, 64
3, 31080, Note_on_c, 1, 65, 100
3, 31128, Note_off_c, 1, 65, 64
3, 31140, Note_on_c, 1, 67, 100
3, 31188, Note_off_c, 1, 67, 64
3, 31200, Note_on_c, 1, 68, 100
3, 31248, Note_off_c, 1, 68, 64
3, 31260, Note_on_c, 1, 70, 100
3, 31308, Note_off_c, 1, 70, 64
3, 31320, Note_on_c, 1, 72, 100
3, 31368, Note_off_c, 1, 72, 64
3, 31380, Note_on_c, 1, 70, 100
3, 31428, Note_off_c, 1, 70, 64
3, 31440, Note_on_c, 1, 68, 100
3, 31488, Note_off_c, 1, 68, 64
3, 31500, Note_on_c, 1, 67, 100
3, 31548, Note_off_c, 1, 67, 64
3, 31560, Note_on_c, 1, 65, 100
3, 31608, Note_off_c, 1, 65, 64
3, 31620, Note_on_c, 1, 68, 100
3, 31668, Note_off_c, 1, 68, 64
3, 31680, Note_on_c, 1, 67, 100
3, 31776, Note_off_c, 1, 67, 64
3, 31800, Note_on_c, 1, 70, 100
3, 31896, Note_off_c, 1, 70, 64
3, 31920, Note_on_c, 1, 72, 100
3, 32016, Note_off_c, 1, 72, 64
3, 32040, Note_on_c, 1, 68, 100
3, 32136, Note_off_c, 1, 68, 64
3, 32160, Note_on_c, 1, 77, 100
3, 32448, Note_off_c, 1, 77, 64
3, 32460, Note_on_c, 1, 80, 100
3, 32508, Note_off_c, 1, 80, 64
3, 32520, Note_on_c, 1, 79, 100
3, 32568, Note_off_c, 1, 79, 64
3, 32580, Note_on_c, 1, 77, 100
3, 32628, Note_off_c, 1, 77, 64
3, 32640, Note_on_c, 1, 75, 100
3, 32688, Note_off_c, 1, 75, 64
3, 32700, Note_on_c, 1, 74, 100
3, 32748, Note_off_c, 1, 74, 64
3, 32760, Note_on_c, 1, 72, 100
3, 32808, Note_off_c, 1, 72, 64
3, 32820, Note_on_c, 1, 70, 100
3, 32868, Note_off_c, 1, 70, 64
3, 32880, Note_on_c, 1, 68, 100
3, 32928, Note_off_c, 1, 68, 64
3, 32940, Note_on_c, 1, 67, 100
3, 32988, Note_off_c, 1, 67, 64
3, 33000, Note_on_c, 1, 68, 100
3, 33048, Note_off_c, 1, 68, 64
3, 33060, Note_on_c, 1, 77, 100
3, 33108, Note_off_c, 1, 77, 64
3, 33120, Note_on_c, 1, 67, 100
3, 33168, Note_off_c, 1, 67, 64
3, 33180, Note_on_c, 1, 77, 100
3, 33228, Note_off_c, 1, 77, 64
3, 33240, Note_on_c, 1, 75, 100
3, 33288, Note_off_c, 1, 75, 64
3, 33300, Note_on_c, 1, 74, 100
3, 33348, Note_off_c, 1, 74, 64
3, 33360, Note_on_c, 1, 72, 100
3, 33408, Note_off_c, 1, 72, 64
3, 33420, Note_on_c, 1, 70, 100
3, 33468, Note_off_c, 1, 70, 64
3, 33480, Note_on_c, 1, 68, 100
3, 33528, Note_off_c, 1, 68, 64
3, 33540, Note_on_c, 1, 67, 100
3, 33588, Note_off_c, 1, 67, 64
3, 33600, Note_on_c, 1, 65, 100
3, 33888, Note_off_c, 1, 65, 64
3, 33900, Note_on_c, 1, 68, 100
3, 33948, Note_off_c, 1, 68, 64
3, 33960, Note_on_c, 1, 67, 100
3, 34008, Note_off_c, 1, 67, 64
3, 34020, Note_on_c, 1, 65, 100
3, 34068, Note_off_c, 1, 65, 64
3, 34080, Note_on_c, 1, 63, 100
3, 34176, Note_off_c, 1, 63, 64
3, 34200, Note_on_c, 1, 67, 100
3, 34296, Note_off_c, 1, 67, 64
3, 34320, Note_on_c, 1, 69, 100
3, 34416, Note_off_c, 1, 69, 64
3, 34440, Note_on_c, 1, 71, 100
3, 34536, Note_off_c, 1, 71, 64
3, 34560, Note_on_c, 1, 72, 100
3, 34656, Note_off_c, 1, 72, 64
3, 35340, Note_on_c, 1, 65, 100
3, 35388, Note_off_c, 1, 65, 64
3, 35400, Note_on_c, 1, 63, 100
3, 35448, Note_off_c, 1, 63, 64
3, 35460, Note_on_c, 1, 65, 100
3, 35508, Note_off_c, 1, 65, 64
3, 35520, Note_on_c, 1, 60, 100
3, 35568, Note_off_c, 1, 60, 64
3, 35580, Note_on_c, 1, 65, 100
3, 35628, Note_off_c, 1, 65, 64
3, 35640, Note_on_c, 1, 63, 100
3, 35688, Note_off_c, 1, 63, 64
3, 35700, Note_on_c, 1, 65, 100
3, 35748, Note_off_c, 1, 65, 64
3, 35760, Note_on_c, 1, 68, 100
3, 35808, Note_off_c, 1, 68, 64
3, 35820, Note_on_c, 1, 65, 100
3, 35868, Note_off_c, 1, 65, 64
3, 35880, Note_on_c, 1, 63, 100
3, 35928, Note_off_c, 1, 63, 64
3, 35940, Note_on_c, 1, 65, 100
3, 35988, Note_off_c, 1, 65, 64
3, 36000, Note_on_c, 1, 62, 100
3, 36096, Note_off_c, 1, 62, 64
3, 36240, Note_on_c, 1, 68, 100
3, 36336, Note_off_c, 1, 68, 64
3, 36480, Note_on_c, 1, 68, 100
3, 36576, Note_off_c, 1, 68, 64
3, 36780, Note_on_c, 1, 63, 100
3, 36828, Note_off_c, 1, 63, 64
3, 36840, Note_on_c, 1, 61, 100
3, 36888, Note_off_c, 1, 61, 64
3, 36900, Note_on_c, 1, 63, 100
3, 36948, Note_off_c, 1, 63, 64
3, 36960, Note_on_c, 1, 58, 100
3, 37008, Note_off_c, 1, 58, 64
3, 37020, Note_on_c, 1, 63, 100
3, 37068, Note_off_c, 1, 63, 64
3, 37080, Note_on_c, 1, 61, 100
3, 37128, Note_off_c, 1, 61, 64
3, 37140, Note_on_c, 1, 63, 100
3, 37188, Note_off_c, 1, 63, 64
3, 37200, Note_on_c, 1, 67, 100
3, 37248, Note_off_c, 1, 67, 64
3, 37260, Note_on_c, 1, 63, 100
3, 37308, Note_off_c, 1, 63, 64
3, 37320, Note_on_c, 1, 61, 100
3, 37368, Note_off_c, 1, 61, 64
3, 37380, Note_on_c, 1, 63, 100
3, 37428, Note_off_c, 1, 63, 64
3, 37440, Note_on_c, 1, 60, 100
3, 37488, Note_off_c, 1, 60, 64
3, 37500, Note_on_c, 1, 65, 100
3, 37548, Note_off_c, 1, 65, 64
3, 37560, Note_on_c, 1, 64, 100
3, 37608, Note_off_c, 1, 64, 64
3, 37620, Note_on_c, 1, 65, 100
3, 37668, Note_off_c, 1, 65, 64
3, 37680, Note_on_c, 1, 60, 100
3, 37728, Note_off_c, 1, 60, 64
3, 37740, Note_on_c, 1, 65, 100
3, 37788, Note_off_c, 1, 65, 64
3, 37800, Note_on_c, 1, 64, 100
3, 37848, Note_off_c, 1, 64, 64
3, 37860, Note_on_c, 1, 65, 100
3, 37908, Note_off_c, 1, 65, 64
3, 37920, Note_on_c, 1, 68, 100
3, 37968, Note_off_c, 1, 68, 64
3, 37980, Note_on_c, 1, 65, 100
3, 38028, Note_off_c, 1, 65, 64
3, 38040, Note_on_c, 1, 64, 100
3, 38088, Note_off_c, 1, 64, 64
3, 38100, Note_on_c, 1, 65, 100
3, 38148, Note_off_c, 1, 65, 64
3, 38160, Note_on_c, 1, 62, 100
3, 38256, Note_off_c, 1, 62, 64
3, 38280, Note_on_c, 1, 65, 100
3, 38376, Note_off_c, 1, 65, 64
3, 38400, Note_on_c, 1, 70, 100
3, 38928, Note_off_c, 1, 70, 64
3, 38940, Note_on_c, 1, 70, 100
3, 38988, Note_off_c, 1, 70, 64
3, 39000, Note_on_c, 1, 68, 100
3, 39048, Note_off_c, 1, 68, 64
3, 39060, Note_on_c, 1, 70, 100
3, 39108, Note_off_c, 1, 70, 64
3, 39120, Note_on_c, 1, 75, 100
3, 39168, Note_off_c, 1, 75, 64
3, 39180, Note_on_c, 1, 70, 100
3, 39228, Note_off_c, 1, 70, 64
3, 39240, Note_on_c, 1, 68, 100
3, 39288, Note_off_c, 1, 68, 64
3, 39300, Note_on_c, 1, 70, 100
3, 39348, Note_off_c, 1, 70, 64
3, 39360, Note_on_c, 1, 67, 100
3, 39408, Note_off_c, 1, 67, 64
3, 39420, Note_on_c, 1, 63, 100
3, 39468, Note_off_c, 1, 63, 64
3, 39480, Note_on_c, 1, 62, 100
3, 39528, Note_off_c, 1, 62, 64
3, 39540, Note_on_c, 1, 63, 100
3, 39588, Note_off_c, 1, 63, 64
3, 39600, Note_on_c, 1, 69, 100
3, 39648, Note_off_c, 1, 69, 64
3, 39660, Note_on_c, 1, 70, 100
3, 39708, Note_off_c, 1, 70, 64
3, 39720, Note_on_c, 1, 69, 100
3, 39768, Note_off_c, 1, 69, 64
3, 39780, Note_on_c, 1, 67, 100
3, 39828, Note_off_c, 1, 67, 64
3, 39840, Note_on_c, 1, 65, 100
3, 39888, Note_off_c, 1, 65, 64
3, 39900, Note_on_c, 1, 74, 100
3, 39948, Note_off_c, 1, 74, 64
3, 39960, Note_on_c, 1, 72, 100
3, 40008, Note_off_c, 1, 72, 64
3, 40020, Note_on_c, 1, 70, 100
3, 40068, Note_off_c, 1, 70, 64
3, 40080, Note_on_c, 1, 69, 100
3, 40128, Note_off_c, 1, 69, 64
3, 40140, Note_on_c, 1, 67, 100
3, 40188, Note_off_c, 1, 67, 64
3, 40200, Note_on_c, 1, 65, 100
3, 40248, Note_off_c, 1, 65, 64
3, 40260, Note_on_c, 1, 63, 100
3, 40308, Note_off_c, 1, 63, 64
3, 40320, Note_on_c, 1, 62, 100
3, 40368, Note_off_c, 1, 62, 64
3, 40380, Note_on_c, 1, 60, 100
3, 40428, Note_off_c, 1, 60, 64
3, 40440, Note_on_c, 1, 62, 100
3, 40488, Note_off_c, 1, 62, 64
3, 40500, Note_on_c, 1, 65, 100
3, 40548, Note_off_c, 1, 65, 64
3, 40560, Note_on_c, 1, 63, 100
3, 40608, Note_off_c, 1, 63, 64
3, 40620, Note_on_c, 1, 62, 100
3, 40668, Note_off_c, 1, 62, 64
3, 40680, Note_on_c, 1, 63, 100
3, 40728, Note_off_c, 1, 63, 64
3, 40740, Note_on_c, 1, 67, 100
3, 40788, Note_off_c, 1, 67, 64
3, 40800, Note_on_c, 1, 65, 100
3, 40848, Note_off_c, 1, 65, 64
3, 40860, Note_on_c, 1, 63, 100
3, 40908, Note_off_c, 1, 63, 64
3, 40920, Note_on_c, 1, 65, 100
3, 40968, Note_off_c, 1, 65, 64
3, 40980, Note_on_c, 1, 68, 100
3, 41028, Note_off_c, 1, 68, 64
3, 41040, Note_on_c, 1, 67, 100
3, 41088, Note_off_c, 1, 67, 64
3, 41100, Note_on_c, 1, 65, 100
3, 41148, Note_off_c, 1, 65, 64
3, 41160, Note_on_c, 1, 67, 100
3, 41208, Note_off_c, 1, 67, 64
3, 41220, Note_on_c, 1, 70, 100
3, 41268, Note_off_c, 1, 70, 64
3, 41280, Note_on_c, 1, 62, 100
3, 41328, Note_off_c, 1, 62, 64
3, 41340, Note_on_c, 1, 60, 100
3, 41388, Note_off_c, 1, 60, 64
3, 41400, Note_on_c, 1, 62, 100
3, 41448, Note_off_c, 1, 62, 64
3, 41460, Note_on_c, 1, 70, 100
3, 41508, Note_off_c, 1, 70, 64
3, 41520, Note_on_c, 1, 63, 100
3, 41568, Note_off_c, 1, 63, 64
3, 41580, Note_on_c, 1, 62, 100
3, 41628, Note_off_c, 1, 62, 64
3, 41640, Note_on_c, 1, 63, 100
3, 41688, Note_off_c, 1, 63, 64
3, 41700, Note_on_c, 1, 70, 100
3, 41748, Note_off_c, 1, 70, 64
3, 41760, Note_on_c, 1, 62, 100
3, 41952, Note_off_c, 1, 62, 64
3, 42060, Note_on_c, 1, 74, 100
3, 42108, Note_off_c, 1, 74, 64
3, 42120, Note_on_c, 1, 72, 100
3, 42168, Note_off_c, 1, 72, 64
3, 42180, Note_on_c, 1, 70, 100
3, 42228, Note_off_c, 1, 70, 64
3, 42240, Note_on_c, 1, 69, 100
3, 42288, Note_off_c, 1, 69, 64
3, 42300, Note_on_c, 1, 67, 100
3, 42348, Note_off_c, 1, 67, 64
3, 42360, Note_on_c, 1, 65, 100
3, 42408, Note_off_c, 1, 65, 64
3, 42420, Note_on_c, 1, 63, 100
3, 42468, Note_off_c, 1, 63, 64
3, 42480, Note_on_c, 1, 62, 100
3, 42528, Note_off_c, 1, 62, 64
3, 42540, Note_on_c, 1, 70, 100
3, 42588, Note_off_c, 1, 70, 64
3, 42600, Note_on_c, 1, 69, 100
3, 42648, Note_off_c, 1, 69, 64
3, 42660, Note_on_c, 1, 70, 100
3, 42708, Note_off_c, 1, 70, 64
3, 42720, Note_on_c, 1, 63, 100
3, 42768, Note_off_c, 1, 63, 64
3, 42780, Note_on_c, 1, 70, 100
3, 42828, Note_off_c, 1, 70, 64
3, 42840, Note_on_c, 1, 62, 100
3, 42888, Note_off_c, 1, 62, 64
3, 42900, Note_on_c, 1, 70, 100
3, 42948, Note_off_c, 1, 70, 64
3, 42960, Note_on_c, 1, 63, 100
3, 43008, Note_off_c, 1, 63, 64
3, 43020, Note_on_c, 1, 70, 100
3, 43068, Note_off_c, 1, 70, 64
3, 43080, Note_on_c, 1, 60, 100
3, 43128, Note_off_c, 1, 60, 64
3, 43140, Note_on_c, 1, 70, 100
3, 43188, Note_off_c, 1, 70, 64
3, 43200, Note_on_c, 1, 62, 100
3, 43296, Note_off_c, 1, 62, 64
3, 43320, Note_on_c, 1, 65, 100
3, 43416, Note_off_c, 1, 65, 64
3, 43440, Note_on_c, 1, 67, 100
3, 43536, Note_off_c, 1, 67, 64
3, 43560, Note_on_c, 1, 65, 100
3, 43656, Note_off_c, 1, 65, 64
3, 43680, Note_on_c, 1, 67, 100
3, 43776, Note_off_c, 1, 67, 64
3, 43800, Note_on_c, 1, 63, 100
3, 43896, Note_off_c, 1, 63, 64
3, 43920, Note_on_c, 1, 65, 100
3, 43968, Note_off_c, 1, 65, 64
3, 43980, Note_on_c, 1, 58, 100
3, 44028, Note_off_c, 1, 58, 64
3, 44040, Note_on_c, 1, 60, 100
3, 44088, Note_off_c, 1, 60, 64
3, 44100, Note_on_c, 1, 62, 100
3, 44148, Note_off_c, 1, 62, 64
3, 44160, Note_on_c, 1, 63, 100
3, 44448, Note_off_c, 1, 63, 64
3, 44460, Note_on_c, 1, 62, 100
3, 44508, Note_off_c, 1, 62, 64
3, 44520, Note_on_c, 1, 63, 100
3, 44568, Note_off_c, 1, 63, 64
3, 44580, Note_on_c, 1, 60, 100
3, 44628, Note_off_c, 1, 60, 64
3, 44640, Note_on_c, 1, 65, 100
3, 44736, Note_off_c, 1, 65, 64
3, 44760, Note_on_c, 1, 62, 100
3, 44856, Note_off_c, 1, 62, 64
3, 44880, Note_on_c, 1, 63, 100
3, 44970, Note_off_c, 1, 63, 64
3, 45120, Note_on_c, 1, 60, 100
3, 45360, Note_off_c, 1, 60, 0
3, 45360, Note_on_c, 1, 62, 100
3, 45936, Note_off_c, 1, 62, 64
3, 46080, Note_on_c, 1, 77, 127
3, 46176, Note_off_c, 1, 77, 64
3, 46200, Note_on_c, 1, 65, 127
3, 46296, Note_off_c, 1, 65, 64
3, 46320, Note_on_c, 1, 75, 127
3, 46416, Note_off_c, 1, 75, 64
3, 46440, Note_on_c, 1, 65, 127
3, 46536, Note_off_c, 1, 65, 64
3, 46560, Note_on_c, 1, 74, 127
3, 46656, Note_off_c, 1, 74, 64
3, 46680, Note_on_c, 1, 65, 127
3, 46776, Note_off_c, 1, 65, 64
3, 46800, Note_on_c, 1, 72, 127
3, 46896, Note_off_c, 1, 72, 64
3, 46920, Note_on_c, 1, 65, 127
3, 47016, Note_off_c, 1, 65, 64
3, 47040, Note_on_c, 1, 70, 127
3, 47136, Note_off_c, 1, 70, 64
3, 47160, Note_on_c, 1, 65, 127
3, 47256, Note_off_c, 1, 65, 64
3, 47280, Note_on_c, 1, 69, 127
3, 47376, Note_off_c, 1, 69, 64
3, 47400, Note_on_c, 1, 65, 127
3, 47496, Note_off_c, 1, 65, 64
3, 47520, Note_on_c, 1, 70, 127
3, 47568, Note_off_c, 1, 70, 64
3, 47580, Note_on_c, 1, 65, 127
3, 47628, Note_off_c, 1, 65, 64
3, 47640, Note_on_c, 1, 67, 127
3, 47688, Note_off_c, 1, 67, 64
3, 47700, Note_on_c, 1, 69, 127
3, 47748, Note_off_c, 1, 69, 64
3, 47760, Note_on_c, 1, 70, 127
3, 47808, Note_off_c, 1, 70, 64
3, 47820, Note_on_c, 1, 62, 127
3, 47868, Note_off_c, 1, 62, 64
3, 47880, Note_on_c, 1, 63, 127
3, 47928, Note_off_c, 1, 63, 64
3, 47940, Note_on_c, 1, 65, 127
3, 47988, Note_off_c, 1, 65, 64
3, 48000, Note_on_c, 1, 67, 127
3, 48048, Note_off_c, 1, 67, 64
3, 48060, Note_on_c, 1, 69, 127
3, 48108, Note_off_c, 1, 69, 64
3, 48120, Note_on_c, 1, 70, 127
3, 48168, Note_off_c, 1, 70, 64
3, 48180, Note_on_c, 1, 72, 127
3, 48228, Note_off_c, 1, 72, 64
3, 48240, Note_on_c, 1, 74, 127
3, 48288, Note_off_c, 1, 74, 64
3, 48300, Note_on_c, 1, 72, 127
3, 48348, Note_off_c, 1, 72, 64
3, 48360, Note_on_c, 1, 70, 127
3, 48408, Note_off_c, 1, 70, 64
3, 48420, Note_on_c, 1, 74, 127
3, 48468, Note_off_c, 1, 74, 64
3, 48480, Note_on_c, 1, 77, 127
3, 48528, Note_off_c, 1, 77, 64
3, 48540, Note_on_c, 1, 74, 127
3, 48588, Note_off_c, 1, 74, 64
3, 48600, Note_on_c, 1, 70, 127
3, 48648, Note_off_c, 1, 70, 64
3, 48660, Note_on_c, 1, 65, 127
3, 48708, Note_off_c, 1, 65, 64
3, 48720, Note_on_c, 1, 74, 127
3, 48768, Note_off_c, 1, 74, 64
3, 48780, Note_on_c, 1, 70, 127
3, 48828, Note_off_c, 1, 70, 64
3, 48840, Note_on_c, 1, 68, 127
3, 48888, Note_off_c, 1, 68, 64
3, 48900, Note_on_c, 1, 65, 127
3, 48948, Note_off_c, 1, 65, 64
3, 48960, Note_on_c, 1, 67, 127
3, 49008, Note_off_c, 1, 67, 64
3, 49020, Note_on_c, 1, 68, 127
3, 49068, Note_off_c, 1, 68, 64
3, 49080, Note_on_c, 1, 67, 127
3, 49128, Note_off_c, 1, 67, 64
3, 49140, Note_on_c, 1, 63, 127
3, 49188, Note_off_c, 1, 63, 64
3, 49200, Note_on_c, 1, 65, 127
3, 49248, Note_off_c, 1, 65, 64
3, 49260, Note_on_c, 1, 67, 127
3, 49308, Note_off_c, 1, 67, 64
3, 49320, Note_on_c, 1, 65, 127
3, 49368, Note_off_c, 1, 65, 64
3, 49380, Note_on_c, 1, 62, 127
3, 49428, Note_off_c, 1, 62, 64
3, 49440, Note_on_c, 1, 63, 127
3, 49488, Note_off_c, 1, 63, 64
3, 49500, Note_on_c, 1, 65, 127
3, 49548, Note_off_c, 1, 65, 64
3, 49560, Note_on_c, 1, 63, 127
3, 49608, Note_off_c, 1, 63, 64
3, 49620, Note_on_c, 1, 60, 127
3, 49668, Note_off_c, 1, 60, 64
3, 49680, Note_on_c, 1, 62, 127
3, 49728, Note_off_c, 1, 62, 64
3, 49740, Note_on_c, 1, 63, 127
3, 49788, Note_off_c, 1, 63, 64
3, 49800, Note_on_c, 1, 62, 127
3, 49848, Note_off_c, 1, 62, 64
3, 49860, Note_on_c, 1, 58, 127
3, 49908, Note_off_c, 1, 58, 64
3, 49920, Note_on_c, 1, 67, 127
3, 49968, Note_off_c, 1, 67, 64
3, 49980, Note_on_c, 1, 68, 127
3, 50028, Note_off_c, 1, 68, 64
3, 50040, Note_on_c, 1, 67, 127
3, 50088, Note_off_c, 1, 67, 64
3, 50100, Note_on_c, 1, 58, 127
3, 50148, Note_off_c, 1, 58, 64
3, 50160, Note_on_c, 1, 65, 127
3, 50208, Note_off_c, 1, 65, 64
3, 50220, Note_on_c, 1, 67, 127
3, 50268, Note_off_c, 1, 67, 64
3, 50280, Note_on_c, 1, 65, 127
3, 50328, Note_off_c, 1, 65, 64
3, 50340, Note_on_c, 1, 58, 127
3, 50388, Note_off_c, 1, 58, 64
3, 50400, Note_on_c, 1, 67, 127
3, 50496, Note_off_c, 1, 67, 64
3, 50520, Note_on_c, 1, 63, 127
3, 50616, Note_off_c, 1, 63, 64
3, 50640, Note_on_c, 1, 58, 127
3, 50736, Note_off_c, 1, 58, 64
3, 50760, Note_on_c, 1, 67, 127
3, 50856, Note_off_c, 1, 67, 64
3, 50880, Note_on_c, 1, 65, 127
3, 50976, Note_off_c, 1, 65, 64
3, 51000, Note_on_c, 1, 62, 127
3, 51096, Note_off_c, 1, 62, 64
3, 51120, Note_on_c, 1, 63, 127
3, 51216, Note_off_c, 1, 63, 64
3, 51240, Note_on_c, 1, 70, 127
3, 51336, Note_off_c, 1, 70, 64
3, 51360, Note_on_c, 1, 67, 127
3, 51456, Note_off_c, 1, 67, 64
3, 51480, Note_on_c, 1, 70, 127
3, 51576, Note_off_c, 1, 70, 64
3, 51600, Note_on_c, 1, 73, 127
3, 51696, Note_off_c, 1, 73, 64
3, 51720, Note_on_c, 1, 67, 127
3, 51816, Note_off_c, 1, 67, 64
3, 51840, Note_on_c, 1, 68, 127
3, 51936, Note_off_c, 1, 68, 64
3, 52080, Note_on_c, 1, 67, 127
3, 52176, Note_off_c, 1, 67, 64
3, 52320, Note_on_c, 1, 63, 127
3, 52416, Note_off_c, 1, 63, 64
3, 52560, Note_on_c, 1, 63, 127
3, 52656, Note_off_c, 1, 63, 64
3, 52800, Note_on_c, 1, 63, 127
3, 52896, Note_off_c, 1, 63, 64
3, 53040, Note_on_c, 1, 63, 127
3, 53136, Note_off_c, 1, 63, 64
3, 53340, Note_on_c, 1, 63, 127
3, 53388, Note_off_c, 1, 63, 64
3, 53400, Note_on_c, 1, 65, 127
3, 53448, Note_off_c, 1, 65, 64
3, 53460, Note_on_c, 1, 67, 127
3, 53508, Note_off_c, 1, 67, 64
3, 53520, Note_on_c, 1, 68, 127
3, 53568, Note_off_c, 1, 68, 64
3, 53580, Note_on_c, 1, 70, 127
3, 53628, Note_off_c, 1, 70, 64
3, 53640, Note_on_c, 1, 72, 127
3, 53688, Note_off_c, 1, 72, 64
3, 53700, Note_on_c, 1, 70, 127
3, 53748, Note_off_c, 1, 70, 64
3, 53760, Note_on_c, 1, 68, 127
3, 53808, Note_off_c, 1, 68, 64
3, 53820, Note_on_c, 1, 67, 127
3, 53868, Note_off_c, 1, 67, 64
3, 53880, Note_on_c, 1, 65, 127
3, 53928, Note_off_c, 1, 65, 64
3, 53940, Note_on_c, 1, 68, 127
3, 53988, Note_off_c, 1, 68, 64
3, 54000, Note_on_c, 1, 67, 127
3, 54096, Note_off_c, 1, 67, 64
3, 54120, Note_on_c, 1, 70, 127
3, 54216, Note_off_c, 1, 70, 64
3, 54240, Note_on_c, 1, 72, 127
3, 54336, Note_off_c, 1, 72, 64
3, 54360, Note_on_c, 1, 68, 127
3, 54456, Note_off_c, 1, 68, 64
3, 54480, Note_on_c, 1, 65, 127
3, 54768, Note_off_c, 1, 65, 64
3, 54780, Note_on_c, 1, 63, 127
3, 54828, Note_off_c, 1, 63, 64
3, 54840, Note_on_c, 1, 65, 127
3, 54888, Note_off_c, 1, 65, 64
3, 54900, Note_on_c, 1, 67, 127
3, 54948, Note_off_c, 1, 67, 64
3, 54960, Note_on_c, 1, 69, 127
3, 55008, Note_off_c, 1, 69, 64
3, 55020, Note_on_c, 1, 71, 127
3, 55068, Note_off_c, 1, 71, 64
3, 55080, Note_on_c, 1, 72, 127
3, 55128, Note_off_c, 1, 72, 64
3, 55140, Note_on_c, 1, 74, 127
3, 55188, Note_off_c, 1, 74, 64
3, 55200, Note_on_c, 1, 75, 127
3, 55248, Note_off_c, 1, 75, 64
3, 55260, Note_on_c, 1, 77, 127
3, 55308, Note_off_c, 1, 77, 64
3, 55320, Note_on_c, 1, 75, 127
3, 55368, Note_off_c, 1, 75, 64
3, 55380, Note_on_c, 1, 68, 127
3, 55428, Note_off_c, 1, 68, 64
3, 55440, Note_on_c, 1, 77, 127
3, 55488, Note_off_c, 1, 77, 64
3, 55500, Note_on_c, 1, 67, 127
3, 55548, Note_off_c, 1, 67, 64
3, 55560, Note_on_c, 1, 69, 127
3, 55608, Note_off_c, 1, 69, 64
3, 55620, Note_on_c, 1, 71, 127
3, 55668, Note_off_c, 1, 71, 64
3, 55680, Note_on_c, 1, 72, 127
3, 55728, Note_off_c, 1, 72, 64
3, 55740, Note_on_c, 1, 74, 127
3, 55788, Note_off_c, 1, 74, 64
3, 55800, Note_on_c, 1, 75, 127
3, 55848, Note_off_c, 1, 75, 64
3, 55860, Note_on_c, 1, 77, 127
3, 55908, Note_off_c, 1, 77, 64
3, 55920, Note_on_c, 1, 79, 127
3, 56208, Note_off_c, 1, 79, 64
3, 56220, Note_on_c, 1, 70, 127
3, 56268, Note_off_c, 1, 70, 64
3, 56280, Note_on_c, 1, 68, 127
3, 56328, Note_off_c, 1, 68, 64
3, 56340, Note_on_c, 1, 67, 127
3, 56388, Note_off_c, 1, 67, 64
3, 56400, Note_on_c, 1, 68, 127
3, 56688, Note_off_c, 1, 68, 64
3, 56700, Note_on_c, 1, 68, 127
3, 56748, Note_off_c, 1, 68, 64
3, 56760, Note_on_c, 1, 67, 127
3, 56808, Note_off_c, 1, 67, 64
3, 56820, Note_on_c, 1, 65, 127
3, 56868, Note_off_c, 1, 65, 64
3, 56880, Note_on_c, 1, 64, 127
3, 56928, Note_off_c, 1, 64, 64
3, 56940, Note_on_c, 1, 65, 127
3, 56988, Note_off_c, 1, 65, 64
3, 57000, Note_on_c, 1, 64, 127
3, 57048, Note_off_c, 1, 64, 64
3, 57060, Note_on_c, 1, 62, 127
3, 57108, Note_off_c, 1, 62, 64
3, 57120, Note_on_c, 1, 60, 127
3, 57216, Note_off_c, 1, 60, 64
3, 57240, Note_on_c, 1, 64, 127
3, 57336, Note_off_c, 1, 64, 64
3, 57360, Note_on_c, 1, 65, 127
3, 57456, Note_off_c, 1, 65, 64
3, 57480, Note_on_c, 1, 67, 127
3, 57576, Note_off_c, 1, 67, 64
3, 57600, Note_on_c, 1, 68, 127
3, 57648, Note_off_c, 1, 68, 64
3, 57660, Note_on_c, 1, 65, 127
3, 57708, Note_off_c, 1, 65, 64
3, 57720, Note_on_c, 1, 64, 127
3, 57768, Note_off_c, 1, 64, 64
3, 57780, Note_on_c, 1, 65, 127
3, 57828, Note_off_c, 1, 65, 64
3, 57840, Note_on_c, 1, 60, 127
3, 57888, Note_off_c, 1, 60, 64
3, 57900, Note_on_c, 1, 65, 127
3, 57948, Note_off_c, 1, 65, 64
3, 57960, Note_on_c, 1, 64, 127
3, 58008, Note_off_c, 1, 64, 64
3, 58020, Note_on_c, 1, 65, 127
3, 58068, Note_off_c, 1, 65, 64
3, 58080, Note_on_c, 1, 68, 127
3, 58128, Note_off_c, 1, 68, 64
3, 58140, Note_on_c, 1, 65, 127
3, 58188, Note_off_c, 1, 65, 64
3, 58200, Note_on_c, 1, 63, 127
3, 58248, Note_off_c, 1, 63, 64
3, 58260, Note_on_c, 1, 65, 127
3, 58308, Note_off_c, 1, 65, 64
3, 58320, Note_on_c, 1, 61, 127
3, 58416, Note_off_c, 1, 61, 64
3, 58560, Note_on_c, 1, 68, 127
3, 58656, Note_off_c, 1, 68, 64
3, 58800, Note_on_c, 1, 68, 127
3, 58896, Note_off_c, 1, 68, 64
3, 59100, Note_on_c, 1, 63, 127
3, 59148, Note_off_c, 1, 63, 64
3, 59160, Note_on_c, 1, 61, 127
3, 59208, Note_off_c, 1, 61, 64
3, 59220, Note_on_c, 1, 63, 127
3, 59268, Note_off_c, 1, 63, 64
3, 59280, Note_on_c, 1, 58, 127
3, 59328, Note_off_c, 1, 58, 64
3, 59340, Note_on_c, 1, 63, 127
3, 59388, Note_off_c, 1, 63, 64
3, 59400, Note_on_c, 1, 61, 127
3, 59448, Note_off_c, 1, 61, 64
3, 59460, Note_on_c, 1, 63, 127
3, 59508, Note_off_c, 1, 63, 64
3, 59520, Note_on_c, 1, 67, 127
3, 59568, Note_off_c, 1, 67, 64
3, 59580, Note_on_c, 1, 63, 127
3, 59628, Note_off_c, 1, 63, 64
3, 59640, Note_on_c, 1, 61, 127
3, 59688, Note_off_c, 1, 61, 64
3, 59700, Note_on_c, 1, 63, 127
3, 59748, Note_off_c, 1, 63, 64
3, 59760, Note_on_c, 1, 60, 127
3, 59856, Note_off_c, 1, 60, 64
3, 60000, Note_on_c, 1, 66, 127
3, 60096, Note_off_c, 1, 66, 64
3, 60240, Note_on_c, 1, 66, 127
3, 60336, Note_off_c, 1, 66, 64
3, 60540, Note_on_c, 1, 61, 127
3, 60588, Note_off_c, 1, 61, 64
3, 60600, Note_on_c, 1, 60, 127
3, 60648, Note_off_c, 1, 60, 64
3, 60660, Note_on_c, 1, 61, 127
3, 60708, Note_off_c, 1, 61, 64
3, 60720, Note_on_c, 1, 58, 127
3, 60768, Note_off_c, 1, 58, 64
3, 60780, Note_on_c, 1, 61, 127
3, 60828, Note_off_c, 1, 61, 64
3, 60840, Note_on_c, 1, 60, 127
3, 60888, Note_off_c, 1, 60, 64
3, 60900, Note_on_c, 1, 61, 127
3, 60948, Note_off_c, 1, 61, 64
3, 60960, Note_on_c, 1, 65, 127
3, 61008, Note_off_c, 1, 65, 64
3, 61020, Note_on_c, 1, 61, 127
3, 61068, Note_off_c, 1, 61, 64
3, 61080, Note_on_c, 1, 60, 127
3, 61128, Note_off_c, 1, 60, 64
3, 61140, Note_on_c, 1, 61, 127
3, 61188, Note_off_c, 1, 61, 64
3, 61200, Note_on_c, 1, 58, 127
3, 61248, Note_off_c, 1, 58, 64
3, 61260, Note_on_c, 1, 63, 127
3, 61308, Note_off_c, 1, 63, 64
3, 61320, Note_on_c, 1, 61, 127
3, 61368, Note_off_c, 1, 61, 64
3, 61380, Note_on_c, 1, 63, 127
3, 61428, Note_off_c, 1, 63, 64
3, 61440, Note_on_c, 1, 67, 127
3, 61488, Note_off_c, 1, 67, 64
3, 61500, Note_on_c, 1, 63, 127
3, 61548, Note_off_c, 1, 63, 64
3, 61560, Note_on_c, 1, 61, 127
3, 61608, Note_off_c, 1, 61, 64
3, 61620, Note_on_c, 1, 63, 127
3, 61668, Note_off_c, 1, 63, 64
3, 61680, Note_on_c, 1, 70, 127
3, 61728, Note_off_c, 1, 70, 64
3, 61740, Note_on_c, 1, 67, 127
3, 61788, Note_off_c, 1, 67, 64
3, 61800, Note_on_c, 1, 65, 127
3, 61848, Note_off_c, 1, 65, 64
3, 61860, Note_on_c, 1, 67, 127
3, 61908, Note_off_c, 1, 67, 64
3, 61920, Note_on_c, 1, 75, 127
3, 62016, Note_off_c, 1, 75, 64
3, 62040, Note_on_c, 1, 72, 127
3, 62136, Note_off_c, 1, 72, 64
3, 62160, Note_on_c, 1, 68, 127
3, 62688, Note_off_c, 1, 68, 64
3, 62700, Note_on_c, 1, 67, 127
3, 62748, Note_off_c, 1, 67, 64
3, 62760, Note_on_c, 1, 65, 127
3, 62808, Note_off_c, 1, 65, 64
3, 62820, Note_on_c, 1, 63, 127
3, 62868, Note_off_c, 1, 63, 64
3, 62880, Note_on_c, 1, 62, 127
3, 62928, Note_off_c, 1, 62, 64
3, 62940, Note_on_c, 1, 63, 127
3, 62988, Note_off_c, 1, 63, 64
3, 63000, Note_on_c, 1, 62, 127
3, 63048, Note_off_c, 1, 62, 64
3, 63060, Note_on_c, 1, 60, 127
3, 63108, Note_off_c, 1, 60, 64
3, 63120, Note_on_c, 1, 58, 127
3, 63168, Note_off_c, 1, 58, 64
3, 63180, Note_on_c, 1, 68, 127
3, 63228, Note_off_c, 1, 68, 64
3, 63240, Note_on_c, 1, 67, 127
3, 63288, Note_off_c, 1, 67, 64
3, 63300, Note_on_c, 1, 65, 127
3, 63348, Note_off_c, 1, 65, 64
3, 63360, Note_on_c, 1, 63, 127
3, 64128, Note_off_c, 1, 63, 64
3, 64140, Note_on_c, 1, 62, 127
3, 64188, Note_off_c, 1, 62, 64
3, 64200, Note_on_c, 1, 63, 127
3, 64248, Note_off_c, 1, 63, 64
3, 64260, Note_on_c, 1, 68, 127
3, 64308, Note_off_c, 1, 68, 64
3, 64320, Note_on_c, 1, 63, 127
3, 64368, Note_off_c, 1, 63, 64
3, 64380, Note_on_c, 1, 62, 127
3, 64428, Note_off_c, 1, 62, 64
3, 64440, Note_on_c, 1, 63, 127
3, 64488, Note_off_c, 1, 63, 64
3, 64500, Note_on_c, 1, 67, 127
3, 64548, Note_off_c, 1, 67, 64
3, 64560, Note_on_c, 1, 65, 127
3, 64848, Note_off_c, 1, 65, 64
3, 64860, Note_on_c, 1, 72, 127
3, 64908, Note_off_c, 1, 72, 64
3, 64920, Note_on_c, 1, 70, 127
3, 64968, Note_off_c, 1, 70, 64
3, 64980, Note_on_c, 1, 68, 127
3, 65028, Note_off_c, 1, 68, 64
3, 65040, Note_on_c, 1, 67, 127
3, 65088, Note_off_c, 1, 67, 64
3, 65100, Note_on_c, 1, 75, 127
3, 65148, Note_off_c, 1, 75, 64
3, 65160, Note_on_c, 1, 74, 127
3, 65208, Note_off_c, 1, 74, 64
3, 65220, Note_on_c, 1, 72, 127
3, 65268, Note_off_c, 1, 72, 64
3, 65280, Note_on_c, 1, 70, 127
3, 65328, Note_off_c, 1, 70, 64
3, 65340, Note_on_c, 1, 68, 127
3, 65388, Note_off_c, 1, 68, 64
3, 65400, Note_on_c, 1, 67, 127
3, 65448, Note_off_c, 1, 67, 64
3, 65460, Note_on_c, 1, 65, 127
3, 65508, Note_off_c, 1, 65, 64
3, 65520, Note_on_c, 1, 63, 127
3, 65616, Note_off_c, 1, 63, 64
3, 65640, Note_on_c, 1, 70, 127
3, 65736, Note_off_c, 1, 70, 64
3, 65760, Note_on_c, 1, 72, 127
3, 65856, Note_off_c, 1, 72, 64
3, 65880, Note_on_c, 1, 70, 127
3, 65976, Note_off_c, 1, 70, 64
3, 66000, Note_on_c, 1, 72, 127
3, 66096, Note_off_c, 1, 72, 64
3, 66120, Note_on_c, 1, 68, 127
3, 66216, Note_off_c, 1, 68, 64
3, 66240, Note_on_c, 1, 70, 127
3, 66288, Note_off_c, 1, 70, 64
3, 66300, Note_on_c, 1, 75, 127
3, 66348, Note_off_c, 1, 75, 64
3, 66360, Note_on_c, 1, 74, 127
3, 66408, Note_off_c, 1, 74, 64
3, 66420, Note_on_c, 1, 75, 127
3, 66468, Note_off_c, 1, 75, 64
3, 66480, Note_on_c, 1, 68, 127
3, 66528, Note_off_c, 1, 68, 64
3, 66540, Note_on_c, 1, 75, 127
3, 66588, Note_off_c, 1, 75, 64
3, 66600, Note_on_c, 1, 67, 80
3, 66648, Note_off_c, 1, 67, 64
3, 66660, Note_on_c, 1, 75, 127
3, 66708, Note_off_c, 1, 75, 64
3, 66720, Note_on_c, 1, 68, 127
3, 66768, Note_off_c, 1, 68, 64
3, 66780, Note_on_c, 1, 75, 127
3, 66828, Note_off_c, 1, 75, 64
3, 66840, Note_on_c, 1, 65, 127
3, 66888, Note_off_c, 1, 65, 64
3, 66900, Note_on_c, 1, 75, 127
3, 66948, Note_off_c, 1, 75, 64
3, 66960, Note_on_c, 1, 67, 80
3, 67248, Note_off_c, 1, 67, 64
3, 67260, Note_on_c, 1, 63, 127
3, 67308, Note_off_c, 1, 63, 64
3, 67320, Note_on_c, 1, 65, 127
3, 67368, Note_off_c, 1, 65, 64
3, 67380, Note_on_c, 1, 67, 127
3, 67428, Note_off_c, 1, 67, 64
3, 67440, Note_on_c, 1, 68, 127
3, 67488, Note_off_c, 1, 68, 64
3, 67500, Note_on_c, 1, 70, 127
3, 67548, Note_off_c, 1, 70, 64
3, 67560, Note_on_c, 1, 72, 127
3, 67608, Note_off_c, 1, 72, 64
3, 67620, Note_on_c, 1, 74, 127
3, 67668, Note_off_c, 1, 74, 64
3, 67680, Note_on_c, 1, 75, 127
3, 67776, Note_off_c, 1, 75, 64
3, 67800, Note_on_c, 1, 67, 127
3, 67896, Note_off_c, 1, 67, 64
3, 67920, Note_on_c, 1, 68, 127
3, 68010, Note_off_c, 1, 68, 64
3, 68160, Note_on_c, 1, 67, 80
3, 68184, Note_off_c, 1, 67, 64
3, 68190, Note_on_c, 1, 65, 80
3, 68214, Note_off_c, 1, 65, 64
3, 68220, Note_on_c, 1, 67, 80
3, 68244, Note_off_c, 1, 67, 64
3, 68250, Note_on_c, 1, 65, 80
3, 68274, Note_off_c, 1, 65, 64
3, 68280, Note_on_c, 1, 67, 80
3, 68304, Note_off_c, 1, 67, 64
3, 68310, Note_on_c, 1, 65, 80
3, 68334, Note_off_c, 1, 65, 64
3, 68340, Note_on_c, 1, 67, 80
3, 68364, Note_off_c, 1, 67, 64
3, 68370, Note_on_c, 1, 65, 80
3, 68394, Note_off_c, 1, 65, 64
3, 68400, Note_on_c, 1, 67, 127
3, 68976, Note_off_c, 1, 67, 64
3, 69120, Note_on_c, 1, 77, 127
3, 69216, Note_off_c, 1, 77, 64
3, 69240, Note_on_c, 1, 65, 127
3, 69336, Note_off_c, 1, 65, 64
3, 69360, Note_on_c, 1, 75, 127
3, 69456, Note_off_c, 1, 75, 64
3, 69480, Note_on_c, 1, 65, 127
3, 69576, Note_off_c, 1, 65, 64
3, 69600, Note_on_c, 1, 74, 127
3, 69696, Note_off_c, 1, 74, 64
3, 69720, Note_on_c, 1, 65, 127
3, 69816, Note_off_c, 1, 65, 64
3, 69840, Note_on_c, 1, 72, 127
3, 69936, Note_off_c, 1, 72, 64
3, 69960, Note_on_c, 1, 65, 127
3, 70056, Note_off_c, 1, 65, 64
3, 70080, Note_on_c, 1, 70, 127
3, 70176, Note_off_c, 1, 70, 64
3, 70200, Note_on_c, 1, 65, 127
3, 70296, Note_off_c, 1, 65, 64
3, 70320, Note_on_c, 1, 69, 127
3, 70416, Note_off_c, 1, 69, 64
3, 70440, Note_on_c, 1, 65, 127
3, 70536, Note_off_c, 1, 65, 64
3, 70560, Note_on_c, 1, 70, 127
3, 70608, Note_off_c, 1, 70, 64
3, 70620, Note_on_c, 1, 65, 127
3, 70668, Note_off_c, 1, 65, 64
3, 70680, Note_on_c, 1, 67, 127
3, 70728, Note_off_c, 1, 67, 64
3, 70740, Note_on_c, 1, 69, 127
3, 70788, Note_off_c, 1, 69, 64
3, 70800, Note_on_c, 1, 70, 127
3, 70848, Note_off_c, 1, 70, 64
3, 70860, Note_on_c, 1, 62, 127
3, 70908, Note_off_c, 1, 62, 64
3, 70920, Note_on_c, 1, 63, 127
3, 70968, Note_off_c, 1, 63, 64
3, 70980, Note_on_c, 1, 65, 127
3, 71028, Note_off_c, 1, 65, 64
3, 71040, Note_on_c, 1, 67, 127
3, 71088, Note_off_c, 1, 67, 64
3, 71100, Note_on_c, 1, 69, 127
3, 71148, Note_off_c, 1, 69, 64
3, 71160, Note_on_c, 1, 70, 127
3, 71208, Note_off_c, 1, 70, 64
3, 71220, Note_on_c, 1, 72, 127
3, 71268, Note_off_c, 1, 72, 64
3, 71280, Note_on_c, 1, 74, 127
3, 71328, Note_off_c, 1, 74, 64
3, 71340, Note_on_c, 1, 72, 127
3, 71388, Note_off_c, 1, 72, 64
3, 71400, Note_on_c, 1, 70, 127
3, 71448, Note_off_c, 1, 70, 64
3, 71460, Note_on_c, 1, 74, 127
3, 71508, Note_off_c, 1, 74, 64
3, 71520, Note_on_c, 1, 77, 127
3, 71568, Note_off_c, 1, 77, 64
3, 71580, Note_on_c, 1, 74, 127
3, 71628, Note_off_c, 1, 74, 64
3, 71640, Note_on_c, 1, 70, 127
3, 71688, Note_off_c, 1, 70, 64
3, 71700, Note_on_c, 1, 65, 127
3, 71748, Note_off_c, 1, 65, 64
3, 71760, Note_on_c, 1, 74, 127
3, 71808, Note_off_c, 1, 74, 64
3, 71820, Note_on_c, 1, 70, 127
3, 71868, Note_off_c, 1, 70, 64
3, 71880, Note_on_c, 1, 68, 127
3, 71928, Note_off_c, 1, 68, 64
3, 71940, Note_on_c, 1, 65, 127
3, 71988, Note_off_c, 1, 65, 64
3, 72000, Note_on_c, 1, 67, 127
3, 72048, Note_off_c, 1, 67, 64
3, 72060, Note_on_c, 1, 68, 127
3, 72108, Note_off_c, 1, 68, 64
3, 72120, Note_on_c, 1, 67, 127
3, 72168, Note_off_c, 1, 67, 64
3, 72180, Note_on_c, 1, 63, 127
3, 72228, Note_off_c, 1, 63, 64
3, 72240, Note_on_c, 1, 65, 127
3, 72288, Note_off_c, 1, 65, 64
3, 72300, Note_on_c, 1, 67, 127
3, 72348, Note_off_c, 1, 67, 64
3, 72360, Note_on_c, 1, 65, 127
3, 72408, Note_off_c, 1, 65, 64
3, 72420, Note_on_c, 1, 62, 127
3, 72468, Note_off_c, 1, 62, 64
3, 72480, Note_on_c, 1, 63, 127
3, 72528, Note_off_c, 1, 63, 64
3, 72540, Note_on_c, 1, 65, 127
3, 72588, Note_off_c, 1, 65, 64
3, 72600, Note_on_c, 1, 63, 127
3, 72648, Note_off_c, 1, 63, 64
3, 72660, Note_on_c, 1, 60, 127
3, 72708, Note_off_c, 1, 60, 64
3, 72720, Note_on_c, 1, 62, 127
3, 72768, Note_off_c, 1, 62, 64
3, 72780, Note_on_c, 1, 63, 127
3, 72828, Note_off_c, 1, 63, 64
3, 72840, Note_on_c, 1, 62, 127
3, 72888, Note_off_c, 1, 62, 64
3, 72900, Note_on_c, 1, 58, 127
3, 72948, Note_off_c, 1, 58, 64
3, 72960, Note_on_c, 1, 67, 127
3, 73008, Note_off_c, 1, 67, 64
3, 73020, Note_on_c, 1, 68, 127
3, 73068, Note_off_c, 1, 68, 64
3, 73080, Note_on_c, 1, 67, 127
3, 73128, Note_off_c, 1, 67, 64
3, 73140, Note_on_c, 1, 58, 127
3, 73188, Note_off_c, 1, 58, 64
3, 73200, Note_on_c, 1, 65, 127
3, 73248, Note_off_c, 1, 65, 64
3, 73260, Note_on_c, 1, 67, 127
3, 73308, Note_off_c, 1, 67, 64
3, 73320, Note_on_c, 1, 65, 127
3, 73368, Note_off_c, 1, 65, 64
3, 73380, Note_on_c, 1, 58, 127
3, 73428, Note_off_c, 1, 58, 64
3, 73440, Note_on_c, 1, 67, 127
3, 73536, Note_off_c, 1, 67, 64
3, 73560, Note_on_c, 1, 63, 127
3, 73656, Note_off_c, 1, 63, 64
3, 73680, Note_on_c, 1, 58, 127
3, 73776, Note_off_c, 1, 58, 64
3, 73800, Note_on_c, 1, 67, 127
3, 73896, Note_off_c, 1, 67, 64
3, 73920, Note_on_c, 1, 65, 127
3, 74016, Note_off_c, 1, 65, 64
3, 74040, Note_on_c, 1, 62, 127
3, 74136, Note_off_c, 1, 62, 64
3, 74160, Note_on_c, 1, 63, 127
3, 74256, Note_off_c, 1, 63, 64
3, 74280, Note_on_c, 1, 70, 127
3, 74376, Note_off_c, 1, 70, 64
3, 74400, Note_on_c, 1, 67, 127
3, 74496, Note_off_c, 1, 67, 64
3, 74520, Note_on_c, 1, 70, 127
3, 74616, Note_off_c, 1, 70, 64
3, 74640, Note_on_c, 1, 73, 127
3, 74736, Note_off_c, 1, 73, 64
3, 74760, Note_on_c, 1, 67, 127
3, 74856, Note_off_c, 1, 67, 64
3, 74880, Note_on_c, 1, 68, 127
3, 74976, Note_off_c, 1, 68, 64
3, 75120, Note_on_c, 1, 67, 127
3, 75216, Note_off_c, 1, 67, 64
3, 75360, Note_on_c, 1, 63, 127
3, 75456, Note_off_c, 1, 63, 64
3, 75600, Note_on_c, 1, 63, 127
3, 75696, Note_off_c, 1, 63, 64
3, 75840, Note_on_c, 1, 63, 127
3, 75936, Note_off_c, 1, 63, 64
3, 76080, Note_on_c, 1, 63, 127
3, 76176, Note_off_c, 1, 63, 64
3, 76380, Note_on_c, 1, 63, 127
3, 76428, Note_off_c, 1, 63, 64
3, 76440, Note_on_c, 1, 65, 127
3, 76488, Note_off_c, 1, 65, 64
3, 76500, Note_on_c, 1, 67, 127
3, 76548, Note_off_c, 1, 67, 64
3, 76560, Note_on_c, 1, 68, 127
3, 76608, Note_off_c, 1, 68, 64
3, 76620, Note_on_c, 1, 70, 127
3, 76668, Note_off_c, 1, 70, 64
3, 76680, Note_on_c, 1, 72, 127
3, 76728, Note_off_c, 1, 72, 64
3, 76740, Note_on_c, 1, 70, 127
3, 76788, Note_off_c, 1, 70, 64
3, 76800, Note_on_c, 1, 68, 127
3, 76848, Note_off_c, 1, 68, 64
3, 76860, Note_on_c, 1, 67, 127
3, 76908, Note_off_c, 1, 67, 64
3, 76920, Note_on_c, 1, 65, 127
3, 76968, Note_off_c, 1, 65, 64
3, 76980, Note_on_c, 1, 68, 127
3, 77028, Note_off_c, 1, 68, 64
3, 77040, Note_on_c, 1, 67, 127
3, 77136, Note_off_c, 1, 67, 64
3, 77160, Note_on_c, 1, 70, 127
3, 77256, Note_off_c, 1, 70, 64
3, 77280, Note_on_c, 1, 72, 127
3, 77376, Note_off_c, 1, 72, 64
3, 77400, Note_on_c, 1, 68, 127
3, 77496, Note_off_c, 1, 68, 64
3, 77520, Note_on_c, 1, 65, 127
3, 77808, Note_off_c, 1, 65, 64
3, 77820, Note_on_c, 1, 63, 127
3, 77868, Note_off_c, 1, 63, 64
3, 77880, Note_on_c, 1, 65, 127
3, 77928, Note_off_c, 1, 65, 64
3, 77940, Note_on_c, 1, 67, 127
3, 77988, Note_off_c, 1, 67, 64
3, 78000, Note_on_c, 1, 69, 127
3, 78048, Note_off_c, 1, 69, 64
3, 78060, Note_on_c, 1, 71, 127
3, 78108, Note_off_c, 1, 71, 64
3, 78120, Note_on_c, 1, 72, 127
3, 78168, Note_off_c, 1, 72, 64
3, 78180, Note_on_c, 1, 74, 127
3, 78228, Note_off_c, 1, 74, 64
3, 78240, Note_on_c, 1, 75, 127
3, 78288, Note_off_c, 1, 75, 64
3, 78300, Note_on_c, 1, 77, 127
3, 78348, Note_off_c, 1, 77, 64
3, 78360, Note_on_c, 1, 75, 127
3, 78408, Note_off_c, 1, 75, 64
3, 78420, Note_on_c, 1, 68, 127
3, 78468, Note_off_c, 1, 68, 64
3, 78480, Note_on_c, 1, 77, 127
3, 78528, Note_off_c, 1, 77, 64
3, 78540, Note_on_c, 1, 67, 127
3, 78588, Note_off_c, 1, 67, 64
3, 78600, Note_on_c, 1, 69, 127
3, 78648, Note_off_c, 1, 69, 64
3, 78660, Note_on_c, 1, 71, 127
3, 78708, Note_off_c, 1, 71, 64
3, 78720, Note_on_c, 1, 72, 127
3, 78768, Note_off_c, 1, 72, 64
3, 78780, Note_on_c, 1, 74, 127
3, 78828, Note_off_c, 1, 74, 64
3, 78840, Note_on_c, 1, 75, 127
3, 78888, Note_off_c, 1, 75, 64
3, 78900, Note_on_c, 1, 77, 127
3, 78948, Note_off_c, 1, 77, 64
3, 78960, Note_on_c, 1, 79, 127
3, 79248, Note_off_c, 1, 79, 64
3, 79260, Note_on_c, 1, 70, 127
3, 79308, Note_off_c, 1, 70, 64
3, 79320, Note_on_c, 1, 68, 127
3, 79368, Note_off_c, 1, 68, 64
3, 79380, Note_on_c, 1, 67, 127
3, 79428, Note_off_c, 1, 67, 64
3, 79440, Note_on_c, 1, 68, 127
3, 79728, Note_off_c, 1, 68, 64
3, 79740, Note_on_c, 1, 68, 127
3, 79788, Note_off_c, 1, 68, 64
3, 79800, Note_on_c, 1, 67, 127
3, 79848, Note_off_c, 1, 67, 64
3, 79860, Note_on_c, 1, 65, 127
3, 79908, Note_off_c, 1, 65, 64
3, 79920, Note_on_c, 1, 64, 127
3, 79968, Note_off_c, 1, 64, 64
3, 79980, Note_on_c, 1, 65, 127
3, 80028, Note_off_c, 1, 65, 64
3, 80040, Note_on_c, 1, 64, 127
3, 80088, Note_off_c, 1, 64, 64
3, 80100, Note_on_c, 1, 62, 127
3, 80148, Note_off_c, 1, 62, 64
3, 80160, Note_on_c, 1, 60, 127
3, 80256, Note_off_c, 1, 60, 64
3, 80280, Note_on_c, 1, 64, 127
3, 80376, Note_off_c, 1, 64, 64
3, 80400, Note_on_c, 1, 65, 127
3, 80496, Note_off_c, 1, 65, 64
3, 80520, Note_on_c, 1, 67, 127
3, 80616, Note_off_c, 1, 67, 64
3, 80640, Note_on_c, 1, 68, 127
3, 80688, Note_off_c, 1, 68, 64
3, 80700, Note_on_c, 1, 65, 127
3, 80748, Note_off_c, 1, 65, 64
3, 80760, Note_on_c, 1, 64, 127
3, 80808, Note_off_c, 1, 64, 64
3, 80820, Note_on_c, 1, 65, 127
3, 80868, Note_off_c, 1, 65, 64
3, 80880, Note_on_c, 1, 60, 127
3, 80928, Note_off_c, 1, 60, 64
3, 80940, Note_on_c, 1, 65, 127
3, 80988, Note_off_c, 1, 65, 64
3, 81000, Note_on_c, 1, 64, 127
3, 81048, Note_off_c, 1, 64, 64
3, 81060, Note_on_c, 1, 65, 127
3, 81108, Note_off_c, 1, 65, 64
3, 81120, Note_on_c, 1, 68, 127
3, 81168, Note_off_c, 1, 68, 64
3, 81180, Note_on_c, 1, 65, 127
3, 81228, Note_off_c, 1, 65, 64
3, 81240, Note_on_c, 1, 63, 127
3, 81288, Note_off_c, 1, 63, 64
3, 81300, Note_on_c, 1, 65, 127
3, 81348, Note_off_c, 1, 65, 64
3, 81360, Note_on_c, 1, 61, 127
3, 81456, Note_off_c, 1, 61, 64
3, 81600, Note_on_c, 1, 68, 127
3, 81696, Note_off_c, 1, 68, 64
3, 81840, Note_on_c, 1, 68, 127
3, 81936, Note_off_c, 1, 68, 64
3, 82140, Note_on_c, 1, 63, 127
3, 82188, Note_off_c, 1, 63, 64
3, 82200, Note_on_c, 1, 61, 127
3, 82248, Note_off_c, 1, 61, 64
3, 82260, Note_on_c, 1, 63, 127
3, 82308, Note_off_c, 1, 63, 64
3, 82320, Note_on_c, 1, 58, 127
3, 82368, Note_off_c, 1, 58, 64
3, 82380, Note_on_c, 1, 63, 127
3, 82428, Note_off_c, 1, 63, 64
3, 82440, Note_on_c, 1, 61, 127
3, 82488, Note_off_c, 1, 61, 64
3, 82500, Note_on_c, 1, 63, 127
3, 82548, Note_off_c, 1, 63, 64
3, 82560, Note_on_c, 1, 67, 127
3, 82608, Note_off_c, 1, 67, 64
3, 82620, Note_on_c, 1, 63, 127
3, 82668, Note_off_c, 1, 63, 64
3, 82680, Note_on_c, 1, 61, 127
3, 82728, Note_off_c, 1, 61, 64
3, 82740, Note_on_c, 1, 63, 127
3, 82788, Note_off_c, 1, 63, 64
3, 82800, Note_on_c, 1, 60, 127
3, 82896, Note_off_c, 1, 60, 64
3, 83040, Note_on_c, 1, 66, 127
3, 83136, Note_off_c, 1, 66, 64
3, 83280, Note_on_c, 1, 66, 127
3, 83376, Note_off_c, 1, 66, 64
3, 83580, Note_on_c, 1, 61, 127
3, 83628, Note_off_c, 1, 61, 64
3, 83640, Note_on_c, 1, 60, 127
3, 83688, Note_off_c, 1, 60, 64
3, 83700, Note_on_c, 1, 61, 127
3, 83748, Note_off_c, 1, 61, 64
3, 83760, Note_on_c, 1, 58, 127
3, 83808, Note_off_c, 1, 58, 64
3, 83820, Note_on_c, 1, 61, 127
3, 83868, Note_off_c, 1, 61, 64
3, 83880, Note_on_c, 1, 60, 127
3, 83928, Note_off_c, 1, 60, 64
3, 83940, Note_on_c, 1, 61, 127
3, 83988, Note_off_c, 1, 61, 64
3, 84000, Note_on_c, 1, 65, 127
3, 84048, Note_off_c, 1, 65, 64
3, 84060, Note_on_c, 1, 61, 127
3, 84108, Note_off_c, 1, 61, 64
3, 84120, Note_on_c, 1, 60, 127
3, 84168, Note_off_c, 1, 60, 64
3, 84180, Note_on_c, 1, 61, 127
3, 84228, Note_off_c, 1, 61, 64
3, 84240, Note_on_c, 1, 58, 127
3, 84288, Note_off_c, 1, 58, 64
3, 84300, Note_on_c, 1, 63, 127
3, 84348, Note_off_c, 1, 63, 64
3, 84360, Note_on_c, 1, 61, 127
3, 84408, Note_off_c, 1, 61, 64
3, 84420, Note_on_c, 1, 63, 127
3, 84468, Note_off_c, 1, 63, 64
3, 84480, Note_on_c, 1, 67, 127
3, 84528, Note_off_c, 1, 67, 64
3, 84540, Note_on_c, 1, 63, 127
3, 84588, Note_off_c, 1, 63, 64
3, 84600, Note_on_c, 1, 61, 127
3, 84648, Note_off_c, 1, 61, 64
3, 84660, Note_on_c, 1, 63, 127
3, 84708, Note_off_c, 1, 63, 64
3, 84720, Note_on_c, 1, 70, 127
3, 84768, Note_off_c, 1, 70, 64
3, 84780, Note_on_c, 1, 67, 127
3, 84828, Note_off_c, 1, 67, 64
3, 84840, Note_on_c, 1, 65, 127
3, 84888, Note_off_c, 1, 65, 64
3, 84900, Note_on_c, 1, 67, 127
3, 84948, Note_off_c, 1, 67, 64
3, 84960, Note_on_c, 1, 75, 127
3, 85056, Note_off_c, 1, 75, 64
3, 85080, Note_on_c, 1, 72, 127
3, 85176, Note_off_c, 1, 72, 64
3, 85200, Note_on_c, 1, 68, 127
3, 85728, Note_off_c, 1, 68, 64
3, 85740, Note_on_c, 1, 67, 127
3, 85788, Note_off_c, 1, 67, 64
3, 85800, Note_on_c, 1, 65, 127
3, 85848, Note_off_c, 1, 65, 64
3, 85860, Note_on_c, 1, 63, 127
3, 85908, Note_off_c, 1, 63, 64
3, 85920, Note_on_c, 1, 62, 127
3, 85968, Note_off_c, 1, 62, 64
3, 85980, Note_on_c, 1, 63, 127
3, 86028, Note_off_c, 1, 63, 64
3, 86040, Note_on_c, 1, 62, 127
3, 86088, Note_off_c, 1, 62, 64
3, 86100, Note_on_c, 1, 60, 127
3, 86148, Note_off_c, 1, 60, 64
3, 86160, Note_on_c, 1, 58, 127
3, 86208, Note_off_c, 1, 58, 64
3, 86220, Note_on_c, 1, 68, 127
3, 86268, Note_off_c, 1, 68, 64
3, 86280, Note_on_c, 1, 67, 127
3, 86328, Note_off_c, 1, 67, 64
3, 86340, Note_on_c, 1, 65, 127
3, 86388, Note_off_c, 1, 65, 64
3, 86400, Note_on_c, 1, 63, 127
3, 87168, Note_off_c, 1, 63, 64
3, 87180, Note_on_c, 1, 62, 127
3, 87228, Note_off_c, 1, 62, 64
3, 87240, Note_on_c, 1, 63, 127
3, 87288, Note_off_c, 1, 63, 64
3, 87300, Note_on_c, 1, 68, 127
3, 87348, Note_off_c, 1, 68, 64
3, 87360, Note_on_c, 1, 63, 127
3, 87408, Note_off_c, 1, 63, 64
3, 87420, Note_on_c, 1, 62, 127
3, 87468, Note_off_c, 1, 62, 64
3, 87480, Note_on_c, 1, 63, 127
3, 87528, Note_off_c, 1, 63, 64
3, 87540, Note_on_c, 1, 67, 127
3, 87588, Note_off_c, 1, 67, 64
3, 87600, Note_on_c, 1, 65, 127
3, 87888, Note_off_c, 1, 65, 64
3, 87900, Note_on_c, 1, 72, 127
3, 87948, Note_off_c, 1, 72, 64
3, 87960, Note_on_c, 1, 70, 127
3, 88008, Note_off_c, 1, 70, 64
3, 88020, Note_on_c, 1, 68, 127
3, 88068, Note_off_c, 1, 68, 64
3, 88080, Note_on_c, 1, 67, 127
3, 88128, Note_off_c, 1, 67, 64
3, 88140, Note_on_c, 1, 75, 127
3, 88188, Note_off_c, 1, 75, 64
3, 88200, Note_on_c, 1, 74, 127
3, 88248, Note_off_c, 1, 74, 64
3, 88260, Note_on_c, 1, 72, 127
3, 88308, Note_off_c, 1, 72, 64
3, 88320, Note_on_c, 1, 70, 127
3, 88368, Note_off_c, 1, 70, 64
3, 88380, Note_on_c, 1, 68, 127
3, 88428, Note_off_c, 1, 68, 64
3, 88440, Note_on_c, 1, 67, 127
3, 88488, Note_off_c, 1, 67, 64
3, 88500, Note_on_c, 1, 65, 127
3, 88548, Note_off_c, 1, 65, 64
3, 88560, Note_on_c, 1, 63, 127
3, 88656, Note_off_c, 1, 63, 64
3, 88680, Note_on_c, 1, 70, 127
3, 88776, Note_off_c, 1, 70, 64
3, 88800, Note_on_c, 1, 72, 127
3, 88896, Note_off_c, 1, 72, 64
3, 88920, Note_on_c, 1, 70, 127
3, 89016, Note_off_c, 1, 70, 64
3, 89040, Note_on_c, 1, 72, 127
3, 89136, Note_off_c, 1, 72, 64
3, 89160, Note_on_c, 1, 68, 127
3, 89256, Note_off_c, 1, 68, 64
3, 89280, Note_on_c, 1, 70, 127
3, 89328, Note_off_c, 1, 70, 64
3, 89340, Note_on_c, 1, 75, 127
3, 89388, Note_off_c, 1, 75, 64
3, 89400, Note_on_c, 1, 74, 127
3, 89448, Note_off_c, 1, 74, 64
3, 89460, Note_on_c, 1, 75, 127
3, 89508, Note_off_c, 1, 75, 64
3, 89520, Note_on_c, 1, 68, 127
3, 89568, Note_off_c, 1, 68, 64
3, 89580, Note_on_c, 1, 75, 127
3, 89628, Note_off_c, 1, 75, 64
3, 89640, Note_on_c, 1, 67, 80
3, 89688, Note_off_c, 1, 67, 64
3, 89700, Note_on_c, 1, 75, 127
3, 89748, Note_off_c, 1, 75, 64
3, 89760, Note_on_c, 1, 68, 127
3, 89808, Note_off_c, 1, 68, 64
3, 89820, Note_on_c, 1, 75, 127
3, 89868, Note_off_c, 1, 75, 64
3, 89880, Note_on_c, 1, 65, 127
3, 89928, Note_off_c, 1, 65, 64
3, 89940, Note_on_c, 1, 75, 127
3, 89988, Note_off_c, 1, 75, 64
3, 90000, Note_on_c, 1, 67, 80
3, 90288, Note_off_c, 1, 67, 64
3, 90300, Note_on_c, 1, 63, 127
3, 90348, Note_off_c, 1, 63, 64
3, 90360, Note_on_c, 1, 65, 127
3, 90408, Note_off_c, 1, 65, 64
3, 90420, Note_on_c, 1, 67, 127
3, 90468, Note_off_c, 1, 67, 64
3, 90480, Note_on_c, 1, 68, 127
3, 90528, Note_off_c, 1, 68, 64
3, 90540, Note_on_c, 1, 70, 127
3, 90588, Note_off_c, 1, 70, 64
3, 90600, Note_on_c, 1, 72, 127
3, 90648, Note_off_c, 1, 72, 64
3, 90660, Note_on_c, 1, 74, 127
3, 90708, Note_off_c, 1, 74, 64
3, 90720, Note_on_c, 1, 75, 127
3, 90816, Note_off_c, 1, 75, 64
3, 90840, Note_on_c, 1, 67, 127
3, 90936, Note_off_c, 1, 67, 64
3, 90960, Note_on_c, 1, 68, 127
3, 91050, Note_off_c, 1, 68, 64
3, 91200, Note_on_c, 1, 67, 80
3, 91224, Note_off_c, 1, 67, 64
3, 91230, Note_on_c, 1, 65, 80
3, 91254, Note_off_c, 1, 65, 64
3, 91260, Note_on_c, 1, 67, 80
3, 91284, Note_off_c, 1, 67, 64
3, 91290, Note_on_c, 1, 65, 80
3, 91314, Note_off_c, 1, 65, 64
3, 91320, Note_on_c, 1, 67, 80
3, 91344, Note_off_c, 1, 67, 64
3, 91350, Note_on_c, 1, 65, 80
3, 91374, Note_off_c, 1, 65, 64
3, 91380, Note_on_c, 1, 67, 80
3, 91404, Note_off_c, 1, 67, 64
3, 91410, Note_on_c, 1, 65, 80
3, 91434, Note_off_c, 1, 65, 64
3, 91440, Note_on_c, 1, 67, 127
3, 92016, Note_off_c, 1, 67, 64
3, 92016, End_track
4, 0, Start_track
4, 0, Title_t, "Arr. Gary Bricault, (c) 1997"
4, 0, Program_c, 2, 19
4, 0, Control_c, 2, 7, 127
4, 0, Note_on_c, 2, 51, 100
4, 384, Note_off_c, 2, 51, 64
4, 720, Note_on_c, 2, 48, 100
4, 1104, Note_off_c, 2, 48, 64
4, 1440, Note_on_c, 2, 43, 100
4, 1728, Note_off_c, 2, 43, 64
4, 1800, Note_on_c, 2, 44, 100
4, 1896, Note_off_c, 2, 44, 64
4, 1920, Note_on_c, 2, 46, 100
4, 2112, Note_off_c, 2, 46, 64
4, 2160, Note_on_c, 2, 39, 100
4, 2352, Note_off_c, 2, 39, 64
4, 2400, Note_on_c, 2, 43, 100
4, 2592, Note_off_c, 2, 43, 64
4, 2640, Note_on_c, 2, 45, 100
4, 2832, Note_off_c, 2, 45, 64
4, 2880, Note_on_c, 2, 46, 100
4, 3330, Note_off_c, 2, 46, 64
4, 3600, Note_on_c, 2, 46, 100
4, 3984, Note_off_c, 2, 46, 64
4, 4320, Note_on_c, 2, 46, 100
4, 4560, Note_off_c, 2, 46, 0
4, 4560, Note_on_c, 2, 50, 100
4, 4800, Note_off_c, 2, 50, 0
4, 4800, Note_on_c, 2, 53, 100
4, 5040, Note_off_c, 2, 53, 0
4, 5040, Note_on_c, 2, 58, 100
4, 5520, Note_off_c, 2, 58, 0
4, 5760, Note_on_c, 2, 39, 100
4, 5856, Note_off_c, 2, 39, 64
4, 5880, Note_on_c, 2, 51, 100
4, 5976, Note_off_c, 2, 51, 64
4, 6000, Note_on_c, 2, 41, 100
4, 6096, Note_off_c, 2, 41, 64
4, 6120, Note_on_c, 2, 51, 100
4, 6216, Note_off_c, 2, 51, 64
4, 6240, Note_on_c, 2, 43, 100
4, 6336, Note_off_c, 2, 43, 64
4, 6360, Note_on_c, 2, 51, 100
4, 6456, Note_off_c, 2, 51, 64
4, 6480, Note_on_c, 2, 44, 100
4, 6576, Note_off_c, 2, 44, 64
4, 6600, Note_on_c, 2, 51, 100
4, 6696, Note_off_c, 2, 51, 64
4, 6720, Note_on_c, 2, 46, 100
4, 6816, Note_off_c, 2, 46, 64
4, 6840, Note_on_c, 2, 51, 100
4, 6936, Note_off_c, 2, 51, 64
4, 6960, Note_on_c, 2, 48, 100
4, 7056, Note_off_c, 2, 48, 64
4, 7080, Note_on_c, 2, 51, 100
4, 7176, Note_off_c, 2, 51, 64
4, 7200, Note_on_c, 2, 46, 100
4, 7296, Note_off_c, 2, 46, 64
4, 7440, Note_on_c, 2, 48, 100
4, 7536, Note_off_c, 2, 48, 64
4, 7680, Note_on_c, 2, 50, 100
4, 7776, Note_off_c, 2, 50, 64
4, 7920, Note_on_c, 2, 51, 100
4, 8304, Note_off_c, 2, 51, 64
4, 8400, Note_on_c, 2, 50, 100
4, 8592, Note_off_c, 2, 50, 64
4, 8640, Note_on_c, 2, 51, 100
4, 8832, Note_off_c, 2, 51, 64
4, 8880, Note_on_c, 2, 56, 100
4, 9072, Note_off_c, 2, 56, 64
4, 9360, Note_on_c, 2, 47, 100
4, 9552, Note_off_c, 2, 47, 64
4, 9600, Note_on_c, 2, 48, 100
4, 9792, Note_off_c, 2, 48, 64
4, 9840, Note_on_c, 2, 50, 100
4, 10032, Note_off_c, 2, 50, 64
4, 10080, Note_on_c, 2, 39, 100
4, 10272, Note_off_c, 2, 39, 64
4, 10320, Note_on_c, 2, 44, 100
4, 10704, Note_off_c, 2, 44, 64
4, 10800, Note_on_c, 2, 43, 100
4, 10992, Note_off_c, 2, 43, 64
4, 11100, Note_on_c, 2, 55, 100
4, 11148, Note_off_c, 2, 55, 64
4, 11160, Note_on_c, 2, 53, 100
4, 11208, Note_off_c, 2, 53, 64
4, 11220, Note_on_c, 2, 55, 100
4, 11268, Note_off_c, 2, 55, 64
4, 11280, Note_on_c, 2, 51, 100
4, 11328, Note_off_c, 2, 51, 64
4, 11340, Note_on_c, 2, 53, 100
4, 11388, Note_off_c, 2, 53, 64
4, 11400, Note_on_c, 2, 50, 100
4, 11448, Note_off_c, 2, 50, 64
4, 11460, Note_on_c, 2, 51, 100
4, 11508, Note_off_c, 2, 51, 64
4, 11520, Note_on_c, 2, 48, 100
4, 11616, Note_off_c, 2, 48, 64
4, 11640, Note_on_c, 2, 51, 100
4, 11736, Note_off_c, 2, 51, 64
4, 11760, Note_on_c, 2, 48, 100
4, 11856, Note_off_c, 2, 48, 64
4, 11880, Note_on_c, 2, 51, 100
4, 11976, Note_off_c, 2, 51, 64
4, 12000, Note_on_c, 2, 48, 100
4, 12096, Note_off_c, 2, 48, 64
4, 12120, Note_on_c, 2, 51, 100
4, 12216, Note_off_c, 2, 51, 64
4, 12240, Note_on_c, 2, 41, 100
4, 12336, Note_off_c, 2, 41, 64
4, 12360, Note_on_c, 2, 56, 100
4, 12456, Note_off_c, 2, 56, 64
4, 12480, Note_on_c, 2, 41, 100
4, 12576, Note_off_c, 2, 41, 64
4, 12600, Note_on_c, 2, 56, 100
4, 12696, Note_off_c, 2, 56, 64
4, 12720, Note_on_c, 2, 41, 100
4, 12816, Note_off_c, 2, 41, 64
4, 12840, Note_on_c, 2, 56, 100
4, 12936, Note_off_c, 2, 56, 64
4, 12960, Note_on_c, 2, 46, 100
4, 13056, Note_off_c, 2, 46, 64
4, 13080, Note_on_c, 2, 50, 100
4, 13176, Note_off_c, 2, 50, 64
4, 13200, Note_on_c, 2, 46, 100
4, 13296, Note_off_c, 2, 46, 64
4, 13320, Note_on_c, 2, 50, 100
4, 13416, Note_off_c, 2, 50, 64
4, 13440, Note_on_c, 2, 46, 100
4, 13536, Note_off_c, 2, 46, 64
4, 13560, Note_on_c, 2, 50, 100
4, 13656, Note_off_c, 2, 50, 64
4, 13680, Note_on_c, 2, 39, 100
4, 13776, Note_off_c, 2, 39, 64
4, 13800, Note_on_c, 2, 55, 100
4, 13896, Note_off_c, 2, 55, 64
4, 13920, Note_on_c, 2, 39, 100
4, 14016, Note_off_c, 2, 39, 64
4, 14040, Note_on_c, 2, 55, 100
4, 14136, Note_off_c, 2, 55, 64
4, 14160, Note_on_c, 2, 39, 100
4, 14256, Note_off_c, 2, 39, 64
4, 14280, Note_on_c, 2, 55, 100
4, 14376, Note_off_c, 2, 55, 64
4, 14400, Note_on_c, 2, 44, 100
4, 14496, Note_off_c, 2, 44, 64
4, 14520, Note_on_c, 2, 48, 100
4, 14616, Note_off_c, 2, 48, 64
4, 14640, Note_on_c, 2, 44, 100
4, 14736, Note_off_c, 2, 44, 64
4, 14760, Note_on_c, 2, 48, 100
4, 14856, Note_off_c, 2, 48, 64
4, 14880, Note_on_c, 2, 44, 100
4, 14976, Note_off_c, 2, 44, 64
4, 15000, Note_on_c, 2, 48, 100
4, 15096, Note_off_c, 2, 48, 64
4, 15120, Note_on_c, 2, 44, 100
4, 15216, Note_off_c, 2, 44, 64
4, 15240, Note_on_c, 2, 50, 100
4, 15336, Note_off_c, 2, 50, 64
4, 15360, Note_on_c, 2, 44, 100
4, 15456, Note_off_c, 2, 44, 64
4, 15480, Note_on_c, 2, 50, 100
4, 15576, Note_off_c, 2, 50, 64
4, 15600, Note_on_c, 2, 44, 100
4, 15696, Note_off_c, 2, 44, 64
4, 15720, Note_on_c, 2, 50, 100
4, 15816, Note_off_c, 2, 50, 64
4, 15840, Note_on_c, 2, 43, 100
4, 15936, Note_off_c, 2, 43, 64
4, 15960, Note_on_c, 2, 51, 100
4, 16056, Note_off_c, 2, 51, 64
4, 16080, Note_on_c, 2, 43, 100
4, 16176, Note_off_c, 2, 43, 64
4, 16200, Note_on_c, 2, 51, 100
4, 16296, Note_off_c, 2, 51, 64
4, 16320, Note_on_c, 2, 43, 100
4, 16416, Note_off_c, 2, 43, 64
4, 16440, Note_on_c, 2, 51, 100
4, 16536, Note_off_c, 2, 51, 64
4, 16560, Note_on_c, 2, 41, 100
4, 16752, Note_off_c, 2, 41, 64
4, 17280, Note_on_c, 2, 46, 100
4, 17376, Note_off_c, 2, 46, 64
4, 17400, Note_on_c, 2, 58, 100
4, 17496, Note_off_c, 2, 58, 64
4, 17520, Note_on_c, 2, 48, 100
4, 17616, Note_off_c, 2, 48, 64
4, 17640, Note_on_c, 2, 58, 100
4, 17736, Note_off_c, 2, 58, 64
4, 17760, Note_on_c, 2, 50, 100
4, 17856, Note_off_c, 2, 50, 64
4, 17880, Note_on_c, 2, 58, 100
4, 17976, Note_off_c, 2, 58, 64
4, 18000, Note_on_c, 2, 51, 100
4, 18096, Note_off_c, 2, 51, 64
4, 18120, Note_on_c, 2, 58, 100
4, 18216, Note_off_c, 2, 58, 64
4, 18240, Note_on_c, 2, 53, 100
4, 18336, Note_off_c, 2, 53, 64
4, 18360, Note_on_c, 2, 58, 100
4, 18456, Note_off_c, 2, 58, 64
4, 18480, Note_on_c, 2, 55, 100
4, 18576, Note_off_c, 2, 55, 64
4, 18600, Note_on_c, 2, 58, 100
4, 18696, Note_off_c, 2, 58, 64
4, 18720, Note_on_c, 2, 53, 100
4, 18816, Note_off_c, 2, 53, 64
4, 18840, Note_on_c, 2, 58, 100
4, 18936, Note_off_c, 2, 58, 64
4, 18960, Note_on_c, 2, 51, 100
4, 19056, Note_off_c, 2, 51, 64
4, 19080, Note_on_c, 2, 58, 100
4, 19176, Note_off_c, 2, 58, 64
4, 19200, Note_on_c, 2, 53, 100
4, 19296, Note_off_c, 2, 53, 64
4, 19320, Note_on_c, 2, 57, 100
4, 19416, Note_off_c, 2, 57, 64
4, 19440, Note_on_c, 2, 46, 100
4, 19632, Note_off_c, 2, 46, 64
4, 20160, Note_on_c, 2, 46, 100
4, 20352, Note_off_c, 2, 46, 64
4, 21000, Note_on_c, 2, 53, 100
4, 21096, Note_off_c, 2, 53, 64
4, 21120, Note_on_c, 2, 55, 100
4, 21216, Note_off_c, 2, 55, 64
4, 21240, Note_on_c, 2, 53, 100
4, 21336, Note_off_c, 2, 53, 64
4, 21360, Note_on_c, 2, 55, 100
4, 21456, Note_off_c, 2, 55, 64
4, 21480, Note_on_c, 2, 51, 100
4, 21576, Note_off_c, 2, 51, 64
4, 21600, Note_on_c, 2, 50, 100
4, 21696, Note_off_c, 2, 50, 64
4, 21720, Note_on_c, 2, 55, 100
4, 21816, Note_off_c, 2, 55, 64
4, 21840, Note_on_c, 2, 51, 100
4, 21930, Note_off_c, 2, 51, 64
4, 22080, Note_on_c, 2, 53, 100
4, 22272, Note_off_c, 2, 53, 64
4, 22320, Note_on_c, 2, 46, 100
4, 22896, Note_off_c, 2, 46, 64
4, 23040, Note_on_c, 2, 51, 100
4, 23424, Note_off_c, 2, 51, 64
4, 23760, Note_on_c, 2, 48, 100
4, 24144, Note_off_c, 2, 48, 64
4, 24480, Note_on_c, 2, 43, 100
4, 24768, Note_off_c, 2, 43, 64
4, 24840, Note_on_c, 2, 44, 100
4, 24936, Note_off_c, 2, 44, 64
4, 24960, Note_on_c, 2, 46, 100
4, 25152, Note_off_c, 2, 46, 64
4, 25200, Note_on_c, 2, 39, 100
4, 25392, Note_off_c, 2, 39, 64
4, 25440, Note_on_c, 2, 43, 100
4, 25632, Note_off_c, 2, 43, 64
4, 25680, Note_on_c, 2, 45, 100
4, 25872, Note_off_c, 2, 45, 64
4, 25920, Note_on_c, 2, 46, 100
4, 26370, Note_off_c, 2, 46, 64
4, 26640, Note_on_c, 2, 46, 100
4, 27024, Note_off_c, 2, 46, 64
4, 27360, Note_on_c, 2, 46, 100
4, 27600, Note_off_c, 2, 46, 0
4, 27600, Note_on_c, 2, 50, 100
4, 27840, Note_off_c, 2, 50, 0
4, 27840, Note_on_c, 2, 53, 100
4, 28080, Note_off_c, 2, 53, 0
4, 28080, Note_on_c, 2, 58, 100
4, 28560, Note_off_c, 2, 58, 0
4, 28800, Note_on_c, 2, 39, 100
4, 28896, Note_off_c, 2, 39, 64
4, 28920, Note_on_c, 2, 51, 100
4, 29016, Note_off_c, 2, 51, 64
4, 29040, Note_on_c, 2, 41, 100
4, 29136, Note_off_c, 2, 41, 64
4, 29160, Note_on_c, 2, 51, 100
4, 29256, Note_off_c, 2, 51, 64
4, 29280, Note_on_c, 2, 43, 100
4, 29376, Note_off_c, 2, 43, 64
4, 29400, Note_on_c, 2, 51, 100
4, 29496, Note_off_c, 2, 51, 64
4, 29520, Note_on_c, 2, 44, 100
4, 29616, Note_off_c, 2, 44, 64
4, 29640, Note_on_c, 2, 51, 100
4, 29736, Note_off_c, 2, 51, 64
4, 29760, Note_on_c, 2, 46, 100
4, 29856, Note_off_c, 2, 46, 64
4, 29880, Note_on_c, 2, 51, 100
4, 29976, Note_off_c, 2, 51, 64
4, 30000, Note_on_c, 2, 48, 100
4, 30096, Note_off_c, 2, 48, 64
4, 30120, Note_on_c, 2, 51, 100
4, 30216, Note_off_c, 2, 51, 64
4, 30240, Note_on_c, 2, 46, 100
4, 30336, Note_off_c, 2, 46, 64
4, 30480, Note_on_c, 2, 48, 100
4, 30576, Note_off_c, 2, 48, 64
4, 30720, Note_on_c, 2, 50, 100
4, 30816, Note_off_c, 2, 50, 64
4, 30960, Note_on_c, 2, 51, 100
4, 31344, Note_off_c, 2, 51, 64
4, 31440, Note_on_c, 2, 50, 100
4, 31632, Note_off_c, 2, 50, 64
4, 31680, Note_on_c, 2, 51, 100
4, 31872, Note_off_c, 2, 51, 64
4, 31920, Note_on_c, 2, 56, 100
4, 32112, Note_off_c, 2, 56, 64
4, 32400, Note_on_c, 2, 47, 100
4, 32592, Note_off_c, 2, 47, 64
4, 32640, Note_on_c, 2, 48, 100
4, 32832, Note_off_c, 2, 48, 64
4, 32880, Note_on_c, 2, 50, 100
4, 33072, Note_off_c, 2, 50, 64
4, 33120, Note_on_c, 2, 39, 100
4, 33312, Note_off_c, 2, 39, 64
4, 33360, Note_on_c, 2, 44, 100
4, 33744, Note_off_c, 2, 44, 64
4, 33840, Note_on_c, 2, 43, 100
4, 34032, Note_off_c, 2, 43, 64
4, 34140, Note_on_c, 2, 55, 100
4, 34188, Note_off_c, 2, 55, 64
4, 34200, Note_on_c, 2, 53, 100
4, 34248, Note_off_c, 2, 53, 64
4, 34260, Note_on_c, 2, 55, 100
4, 34308, Note_off_c, 2, 55, 64
4, 34320, Note_on_c, 2, 51, 100
4, 34368, Note_off_c, 2, 51, 64
4, 34380, Note_on_c, 2, 53, 100
4, 34428, Note_off_c, 2, 53, 64
4, 34440, Note_on_c, 2, 50, 100
4, 34488, Note_off_c, 2, 50, 64
4, 34500, Note_on_c, 2, 51, 100
4, 34548, Note_off_c, 2, 51, 64
4, 34560, Note_on_c, 2, 48, 100
4, 34656, Note_off_c, 2, 48, 64
4, 34680, Note_on_c, 2, 51, 100
4, 34776, Note_off_c, 2, 51, 64
4, 34800, Note_on_c, 2, 48, 100
4, 34896, Note_off_c, 2, 48, 64
4, 34920, Note_on_c, 2, 51, 100
4, 35016, Note_off_c, 2, 51, 64
4, 35040, Note_on_c, 2, 48, 100
4, 35136, Note_off_c, 2, 48, 64
4, 35160, Note_on_c, 2, 51, 100
4, 35256, Note_off_c, 2, 51, 64
4, 35280, Note_on_c, 2, 41, 100
4, 35376, Note_off_c, 2, 41, 64
4, 35400, Note_on_c, 2, 56, 100
4, 35496, Note_off_c, 2, 56, 64
4, 35520, Note_on_c, 2, 41, 100
4, 35616, Note_off_c, 2, 41, 64
4, 35640, Note_on_c, 2, 56, 100
4, 35736, Note_off_c, 2, 56, 64
4, 35760, Note_on_c, 2, 41, 100
4, 35856, Note_off_c, 2, 41, 64
4, 35880, Note_on_c, 2, 56, 100
4, 35976, Note_off_c, 2, 56, 64
4, 36000, Note_on_c, 2, 46, 100
4, 36096, Note_off_c, 2, 46, 64
4, 36120, Note_on_c, 2, 50, 100
4, 36216, Note_off_c, 2, 50, 64
4, 36240, Note_on_c, 2, 46, 100
4, 36336, Note_off_c, 2, 46, 64
4, 36360, Note_on_c, 2, 50, 100
4, 36456, Note_off_c, 2, 50, 64
4, 36480, Note_on_c, 2, 46, 100
4, 36576, Note_off_c, 2, 46, 64
4, 36600, Note_on_c, 2, 50, 100
4, 36696, Note_off_c, 2, 50, 64
4, 36720, Note_on_c, 2, 39, 100
4, 36816, Note_off_c, 2, 39, 64
4, 36840, Note_on_c, 2, 55, 100
4, 36936, Note_off_c, 2, 55, 64
4, 36960, Note_on_c, 2, 39, 100
4, 37056, Note_off_c, 2, 39, 64
4, 37080, Note_on_c, 2, 55, 100
4, 37176, Note_off_c, 2, 55, 64
4, 37200, Note_on_c, 2, 39, 100
4, 37296, Note_off_c, 2, 39, 64
4, 37320, Note_on_c, 2, 55, 100
4, 37416, Note_off_c, 2, 55, 64
4, 37440, Note_on_c, 2, 44, 100
4, 37536, Note_off_c, 2, 44, 64
4, 37560, Note_on_c, 2, 48, 100
4, 37656, Note_off_c, 2, 48, 64
4, 37680, Note_on_c, 2, 44, 100
4, 37776, Note_off_c, 2, 44, 64
4, 37800, Note_on_c, 2, 48, 100
4, 37896, Note_off_c, 2, 48, 64
4, 37920, Note_on_c, 2, 44, 100
4, 38016, Note_off_c, 2, 44, 64
4, 38040, Note_on_c, 2, 48, 100
4, 38136, Note_off_c, 2, 48, 64
4, 38160, Note_on_c, 2, 44, 100
4, 38256, Note_off_c, 2, 44, 64
4, 38280, Note_on_c, 2, 50, 100
4, 38376, Note_off_c, 2, 50, 64
4, 38400, Note_on_c, 2, 44, 100
4, 38496, Note_off_c, 2, 44, 64
4, 38520, Note_on_c, 2, 50, 100
4, 38616, Note_off_c, 2, 50, 64
4, 38640, Note_on_c, 2, 44, 100
4, 38736, Note_off_c, 2, 44, 64
4, 38760, Note_on_c, 2, 50, 100
4, 38856, Note_off_c, 2, 50, 64
4, 38880, Note_on_c, 2, 43, 100
4, 38976, Note_off_c, 2, 43, 64
4, 39000, Note_on_c, 2, 51, 100
4, 39096, Note_off_c, 2, 51, 64
4, 39120, Note_on_c, 2, 43, 100
4, 39216, Note_off_c, 2, 43, 64
4, 39240, Note_on_c, 2, 51, 100
4, 39336, Note_off_c, 2, 51, 64
4, 39360, Note_on_c, 2, 43, 100
4, 39456, Note_off_c, 2, 43, 64
4, 39480, Note_on_c, 2, 51, 100
4, 39576, Note_off_c, 2, 51, 64
4, 39600, Note_on_c, 2, 41, 100
4, 39792, Note_off_c, 2, 41, 64
4, 40320, Note_on_c, 2, 46, 100
4, 40416, Note_off_c, 2, 46, 64
4, 40440, Note_on_c, 2, 58, 100
4, 40536, Note_off_c, 2, 58, 64
4, 40560, Note_on_c, 2, 48, 100
4, 40656, Note_off_c, 2, 48, 64
4, 40680, Note_on_c, 2, 58, 100
4, 40776, Note_off_c, 2, 58, 64
4, 40800, Note_on_c, 2, 50, 100
4, 40896, Note_off_c, 2, 50, 64
4, 40920, Note_on_c, 2, 58, 100
4, 41016, Note_off_c, 2, 58, 64
4, 41040, Note_on_c, 2, 51, 100
4, 41136, Note_off_c, 2, 51, 64
4, 41160, Note_on_c, 2, 58, 100
4, 41256, Note_off_c, 2, 58, 64
4, 41280, Note_on_c, 2, 53, 100
4, 41376, Note_off_c, 2, 53, 64
4, 41400, Note_on_c, 2, 58, 100
4, 41496, Note_off_c, 2, 58, 64
4, 41520, Note_on_c, 2, 55, 100
4, 41616, Note_off_c, 2, 55, 64
4, 41640, Note_on_c, 2, 58, 100
4, 41736, Note_off_c, 2, 58, 64
4, 41760, Note_on_c, 2, 53, 100
4, 41856, Note_off_c, 2, 53, 64
4, 41880, Note_on_c, 2, 58, 100
4, 41976, Note_off_c, 2, 58, 64
4, 42000, Note_on_c, 2, 51, 100
4, 42096, Note_off_c, 2, 51, 64
4, 42120, Note_on_c, 2, 58, 100
4, 42216, Note_off_c, 2, 58, 64
4, 42240, Note_on_c, 2, 53, 100
4, 42336, Note_off_c, 2, 53, 64
4, 42360, Note_on_c, 2, 57, 100
4, 42456, Note_off_c, 2, 57, 64
4, 42480, Note_on_c, 2, 46, 100
4, 42672, Note_off_c, 2, 46, 64
4, 43200, Note_on_c, 2, 46, 100
4, 43392, Note_off_c, 2, 46, 64
4, 44040, Note_on_c, 2, 53, 100
4, 44136, Note_off_c, 2, 53, 64
4, 44160, Note_on_c, 2, 55, 100
4, 44256, Note_off_c, 2, 55, 64
4, 44280, Note_on_c, 2, 53, 100
4, 44376, Note_off_c, 2, 53, 64
4, 44400, Note_on_c, 2, 55, 100
4, 44496, Note_off_c, 2, 55, 64
4, 44520, Note_on_c, 2, 51, 100
4, 44616, Note_off_c, 2, 51, 64
4, 44640, Note_on_c, 2, 50, 100
4, 44736, Note_off_c, 2, 50, 64
4, 44760, Note_on_c, 2, 55, 100
4, 44856, Note_off_c, 2, 55, 64
4, 44880, Note_on_c, 2, 51, 100
4, 44970, Note_off_c, 2, 51, 64
4, 45120, Note_on_c, 2, 53, 100
4, 45312, Note_off_c, 2, 53, 64
4, 45360, Note_on_c, 2, 46, 100
4, 45936, Note_off_c, 2, 46, 64
4, 46080, Note_on_c, 2, 46, 127
4, 46464, Note_off_c, 2, 46, 64
4, 46800, Note_on_c, 2, 51, 127
4, 47184, Note_off_c, 2, 51, 64
4, 47520, Note_on_c, 2, 50, 127
4, 47712, Note_off_c, 2, 50, 64
4, 47760, Note_on_c, 2, 55, 127
4, 47952, Note_off_c, 2, 55, 64
4, 48000, Note_on_c, 2, 53, 127
4, 48192, Note_off_c, 2, 53, 64
4, 48240, Note_on_c, 2, 58, 127
4, 48432, Note_off_c, 2, 58, 64
4, 48480, Note_on_c, 2, 50, 127
4, 48672, Note_off_c, 2, 50, 64
4, 48720, Note_on_c, 2, 46, 127
4, 48912, Note_off_c, 2, 46, 64
4, 48960, Note_on_c, 2, 51, 127
4, 49344, Note_off_c, 2, 51, 64
4, 49680, Note_on_c, 2, 58, 127
4, 50064, Note_off_c, 2, 58, 64
4, 50160, Note_on_c, 2, 56, 127
4, 50352, Note_off_c, 2, 56, 64
4, 50400, Note_on_c, 2, 55, 127
4, 50592, Note_off_c, 2, 55, 64
4, 50640, Note_on_c, 2, 43, 127
4, 50832, Note_off_c, 2, 43, 64
4, 50880, Note_on_c, 2, 46, 127
4, 51072, Note_off_c, 2, 46, 64
4, 51120, Note_on_c, 2, 39, 127
4, 51504, Note_off_c, 2, 39, 64
4, 51960, Note_on_c, 2, 51, 127
4, 52056, Note_off_c, 2, 51, 64
4, 52080, Note_on_c, 2, 61, 127
4, 52176, Note_off_c, 2, 61, 64
4, 52200, Note_on_c, 2, 51, 127
4, 52296, Note_off_c, 2, 51, 64
4, 52320, Note_on_c, 2, 60, 127
4, 52416, Note_off_c, 2, 60, 64
4, 52440, Note_on_c, 2, 51, 127
4, 52536, Note_off_c, 2, 51, 64
4, 52560, Note_on_c, 2, 58, 127
4, 52656, Note_off_c, 2, 58, 64
4, 52680, Note_on_c, 2, 51, 127
4, 52776, Note_off_c, 2, 51, 64
4, 52800, Note_on_c, 2, 56, 127
4, 52896, Note_off_c, 2, 56, 64
4, 52920, Note_on_c, 2, 51, 127
4, 53016, Note_off_c, 2, 51, 64
4, 53040, Note_on_c, 2, 55, 127
4, 53136, Note_off_c, 2, 55, 64
4, 53160, Note_on_c, 2, 51, 127
4, 53256, Note_off_c, 2, 51, 64
4, 53280, Note_on_c, 2, 56, 127
4, 53376, Note_off_c, 2, 56, 64
4, 53520, Note_on_c, 2, 55, 127
4, 53616, Note_off_c, 2, 55, 64
4, 53760, Note_on_c, 2, 53, 127
4, 53856, Note_off_c, 2, 53, 64
4, 54000, Note_on_c, 2, 51, 127
4, 54384, Note_off_c, 2, 51, 64
4, 54480, Note_on_c, 2, 50, 127
4, 54672, Note_off_c, 2, 50, 64
4, 54720, Note_on_c, 2, 51, 127
4, 54912, Note_off_c, 2, 51, 64
4, 54960, Note_on_c, 2, 50, 127
4, 55152, Note_off_c, 2, 50, 64
4, 55200, Note_on_c, 2, 48, 127
4, 55392, Note_off_c, 2, 48, 64
4, 55440, Note_on_c, 2, 47, 127
4, 55536, Note_off_c, 2, 47, 64
4, 55560, Note_on_c, 2, 53, 127
4, 55656, Note_off_c, 2, 53, 64
4, 55680, Note_on_c, 2, 51, 127
4, 55776, Note_off_c, 2, 51, 64
4, 55800, Note_on_c, 2, 50, 127
4, 55896, Note_off_c, 2, 50, 64
4, 55920, Note_on_c, 2, 48, 127
4, 56016, Note_off_c, 2, 48, 64
4, 56040, Note_on_c, 2, 52, 127
4, 56136, Note_off_c, 2, 52, 64
4, 56160, Note_on_c, 2, 41, 127
4, 56352, Note_off_c, 2, 41, 64
4, 56400, Note_on_c, 2, 49, 127
4, 56784, Note_off_c, 2, 49, 64
4, 56880, Note_on_c, 2, 48, 127
4, 57072, Note_off_c, 2, 48, 64
4, 57180, Note_on_c, 2, 60, 127
4, 57228, Note_off_c, 2, 60, 64
4, 57240, Note_on_c, 2, 58, 127
4, 57288, Note_off_c, 2, 58, 64
4, 57300, Note_on_c, 2, 60, 127
4, 57348, Note_off_c, 2, 60, 64
4, 57360, Note_on_c, 2, 56, 127
4, 57408, Note_off_c, 2, 56, 64
4, 57420, Note_on_c, 2, 58, 127
4, 57468, Note_off_c, 2, 58, 64
4, 57480, Note_on_c, 2, 55, 127
4, 57528, Note_off_c, 2, 55, 64
4, 57540, Note_on_c, 2, 56, 127
4, 57588, Note_off_c, 2, 56, 64
4, 57600, Note_on_c, 2, 53, 127
4, 57696, Note_off_c, 2, 53, 64
4, 57720, Note_on_c, 2, 56, 127
4, 57816, Note_off_c, 2, 56, 64
4, 57840, Note_on_c, 2, 53, 127
4, 57936, Note_off_c, 2, 53, 64
4, 57960, Note_on_c, 2, 56, 127
4, 58056, Note_off_c, 2, 56, 64
4, 58080, Note_on_c, 2, 53, 127
4, 58176, Note_off_c, 2, 53, 64
4, 58200, Note_on_c, 2, 56, 127
4, 58296, Note_off_c, 2, 56, 64
4, 58320, Note_on_c, 2, 46, 127
4, 58416, Note_off_c, 2, 46, 64
4, 58440, Note_on_c, 2, 61, 127
4, 58536, Note_off_c, 2, 61, 64
4, 58560, Note_on_c, 2, 46, 127
4, 58656, Note_off_c, 2, 46, 64
4, 58680, Note_on_c, 2, 61, 127
4, 58776, Note_off_c, 2, 61, 64
4, 58800, Note_on_c, 2, 46, 127
4, 58896, Note_off_c, 2, 46, 64
4, 58920, Note_on_c, 2, 61, 127
4, 59016, Note_off_c, 2, 61, 64
4, 59040, Note_on_c, 2, 51, 127
4, 59136, Note_off_c, 2, 51, 64
4, 59160, Note_on_c, 2, 55, 127
4, 59256, Note_off_c, 2, 55, 64
4, 59280, Note_on_c, 2, 51, 127
4, 59376, Note_off_c, 2, 51, 64
4, 59400, Note_on_c, 2, 55, 127
4, 59496, Note_off_c, 2, 55, 64
4, 59520, Note_on_c, 2, 51, 127
4, 59616, Note_off_c, 2, 51, 64
4, 59640, Note_on_c, 2, 55, 127
4, 59736, Note_off_c, 2, 55, 64
4, 59760, Note_on_c, 2, 44, 127
4, 59856, Note_off_c, 2, 44, 64
4, 59880, Note_on_c, 2, 60, 127
4, 59976, Note_off_c, 2, 60, 64
4, 60000, Note_on_c, 2, 44, 127
4, 60096, Note_off_c, 2, 44, 64
4, 60120, Note_on_c, 2, 60, 127
4, 60216, Note_off_c, 2, 60, 64
4, 60240, Note_on_c, 2, 44, 127
4, 60336, Note_off_c, 2, 44, 64
4, 60360, Note_on_c, 2, 60, 127
4, 60456, Note_off_c, 2, 60, 64
4, 60480, Note_on_c, 2, 49, 127
4, 60576, Note_off_c, 2, 49, 64
4, 60600, Note_on_c, 2, 53, 127
4, 60696, Note_off_c, 2, 53, 64
4, 60720, Note_on_c, 2, 49, 127
4, 60816, Note_off_c, 2, 49, 64
4, 60840, Note_on_c, 2, 53, 127
4, 60936, Note_off_c, 2, 53, 64
4, 60960, Note_on_c, 2, 49, 127
4, 61056, Note_off_c, 2, 49, 64
4, 61080, Note_on_c, 2, 53, 127
4, 61176, Note_off_c, 2, 53, 64
4, 61200, Note_on_c, 2, 49, 127
4, 61296, Note_off_c, 2, 49, 64
4, 61320, Note_on_c, 2, 55, 127
4, 61416, Note_off_c, 2, 55, 64
4, 61440, Note_on_c, 2, 49, 127
4, 61536, Note_off_c, 2, 49, 64
4, 61560, Note_on_c, 2, 55, 127
4, 61656, Note_off_c, 2, 55, 64
4, 61680, Note_on_c, 2, 49, 127
4, 61776, Note_off_c, 2, 49, 64
4, 61800, Note_on_c, 2, 55, 127
4, 61896, Note_off_c, 2, 55, 64
4, 61920, Note_on_c, 2, 48, 127
4, 62016, Note_off_c, 2, 48, 64
4, 62040, Note_on_c, 2, 56, 127
4, 62136, Note_off_c, 2, 56, 64
4, 62160, Note_on_c, 2, 48, 127
4, 62256, Note_off_c, 2, 48, 64
4, 62280, Note_on_c, 2, 56, 127
4, 62376, Note_off_c, 2, 56, 64
4, 62400, Note_on_c, 2, 48, 127
4, 62496, Note_off_c, 2, 48, 64
4, 62520, Note_on_c, 2, 56, 127
4, 62616, Note_off_c, 2, 56, 64
4, 62640, Note_on_c, 2, 46, 127
4, 62832, Note_off_c, 2, 46, 64
4, 63360, Note_on_c, 2, 39, 127
4, 63456, Note_off_c, 2, 39, 64
4, 63480, Note_on_c, 2, 51, 127
4, 63576, Note_off_c, 2, 51, 64
4, 63600, Note_on_c, 2, 41, 127
4, 63696, Note_off_c, 2, 41, 64
4, 63720, Note_on_c, 2, 51, 127
4, 63816, Note_off_c, 2, 51, 64
4, 63840, Note_on_c, 2, 43, 127
4, 63936, Note_off_c, 2, 43, 64
4, 63960, Note_on_c, 2, 51, 127
4, 64056, Note_off_c, 2, 51, 64
4, 64080, Note_on_c, 2, 44, 127
4, 64176, Note_off_c, 2, 44, 64
4, 64200, Note_on_c, 2, 51, 127
4, 64296, Note_off_c, 2, 51, 64
4, 64320, Note_on_c, 2, 46, 127
4, 64416, Note_off_c, 2, 46, 64
4, 64440, Note_on_c, 2, 51, 127
4, 64536, Note_off_c, 2, 51, 64
4, 64560, Note_on_c, 2, 48, 127
4, 64656, Note_off_c, 2, 48, 64
4, 64680, Note_on_c, 2, 51, 127
4, 64776, Note_off_c, 2, 51, 64
4, 64800, Note_on_c, 2, 46, 127
4, 64896, Note_off_c, 2, 46, 64
4, 64920, Note_on_c, 2, 51, 127
4, 65016, Note_off_c, 2, 51, 64
4, 65040, Note_on_c, 2, 44, 127
4, 65136, Note_off_c, 2, 44, 64
4, 65160, Note_on_c, 2, 51, 127
4, 65256, Note_off_c, 2, 51, 64
4, 65280, Note_on_c, 2, 46, 127
4, 65376, Note_off_c, 2, 46, 64
4, 65400, Note_on_c, 2, 50, 127
4, 65496, Note_off_c, 2, 50, 64
4, 65520, Note_on_c, 2, 39, 127
4, 65712, Note_off_c, 2, 39, 64
4, 66240, Note_on_c, 2, 39, 127
4, 66432, Note_off_c, 2, 39, 64
4, 67080, Note_on_c, 2, 58, 127
4, 67176, Note_off_c, 2, 58, 64
4, 67200, Note_on_c, 2, 60, 127
4, 67296, Note_off_c, 2, 60, 64
4, 67320, Note_on_c, 2, 58, 127
4, 67416, Note_off_c, 2, 58, 64
4, 67440, Note_on_c, 2, 60, 127
4, 67536, Note_off_c, 2, 60, 64
4, 67560, Note_on_c, 2, 56, 127
4, 67656, Note_off_c, 2, 56, 64
4, 67680, Note_on_c, 2, 55, 127
4, 67776, Note_off_c, 2, 55, 64
4, 67800, Note_on_c, 2, 60, 127
4, 67896, Note_off_c, 2, 60, 64
4, 67920, Note_on_c, 2, 56, 127
4, 68010, Note_off_c, 2, 56, 64
4, 68160, Note_on_c, 2, 58, 127
4, 68352, Note_off_c, 2, 58, 64
4, 68400, Note_on_c, 2, 51, 80
4, 68976, Note_off_c, 2, 51, 64
4, 69120, Note_on_c, 2, 46, 127
4, 69504, Note_off_c, 2, 46, 64
4, 69840, Note_on_c, 2, 51, 127
4, 70224, Note_off_c, 2, 51, 64
4, 70560, Note_on_c, 2, 50, 127
4, 70752, Note_off_c, 2, 50, 64
4, 70800, Note_on_c, 2, 55, 127
4, 70992, Note_off_c, 2, 55, 64
4, 71040, Note_on_c, 2, 53, 127
4, 71232, Note_off_c, 2, 53, 64
4, 71280, Note_on_c, 2, 58, 127
4, 71472, Note_off_c, 2, 58, 64
4, 71520, Note_on_c, 2, 50, 127
4, 71712, Note_off_c, 2, 50, 64
4, 71760, Note_on_c, 2, 46, 127
4, 71952, Note_off_c, 2, 46, 64
4, 72000, Note_on_c, 2, 51, 127
4, 72384, Note_off_c, 2, 51, 64
4, 72720, Note_on_c, 2, 58, 127
4, 73104, Note_off_c, 2, 58, 64
4, 73200, Note_on_c, 2, 56, 127
4, 73392, Note_off_c, 2, 56, 64
4, 73440, Note_on_c, 2, 55, 127
4, 73632, Note_off_c, 2, 55, 64
4, 73680, Note_on_c, 2, 43, 127
4, 73872, Note_off_c, 2, 43, 64
4, 73920, Note_on_c, 2, 46, 127
4, 74112, Note_off_c, 2, 46, 64
4, 74160, Note_on_c, 2, 39, 127
4, 74544, Note_off_c, 2, 39, 64
4, 75000, Note_on_c, 2, 51, 127
4, 75096, Note_off_c, 2, 51, 64
4, 75120, Note_on_c, 2, 61, 127
4, 75216, Note_off_c, 2, 61, 64
4, 75240, Note_on_c, 2, 51, 127
4, 75336, Note_off_c, 2, 51, 64
4, 75360, Note_on_c, 2, 60, 127
4, 75456, Note_off_c, 2, 60, 64
4, 75480, Note_on_c, 2, 51, 127
4, 75576, Note_off_c, 2, 51, 64
4, 75600, Note_on_c, 2, 58, 127
4, 75696, Note_off_c, 2, 58, 64
4, 75720, Note_on_c, 2, 51, 127
4, 75816, Note_off_c, 2, 51, 64
4, 75840, Note_on_c, 2, 56, 127
4, 75936, Note_off_c, 2, 56, 64
4, 75960, Note_on_c, 2, 51, 127
4, 76056, Note_off_c, 2, 51, 64
4, 76080, Note_on_c, 2, 55, 127
4, 76176, Note_off_c, 2, 55, 64
4, 76200, Note_on_c, 2, 51, 127
4, 76296, Note_off_c, 2, 51, 64
4, 76320, Note_on_c, 2, 56, 127
4, 76416, Note_off_c, 2, 56, 64
4, 76560, Note_on_c, 2, 55, 127
4, 76656, Note_off_c, 2, 55, 64
4, 76800, Note_on_c, 2, 53, 127
4, 76896, Note_off_c, 2, 53, 64
4, 77040, Note_on_c, 2, 51, 127
4, 77424, Note_off_c, 2, 51, 64
4, 77520, Note_on_c, 2, 50, 127
4, 77712, Note_off_c, 2, 50, 64
4, 77760, Note_on_c, 2, 51, 127
4, 77952, Note_off_c, 2, 51, 64
4, 78000, Note_on_c, 2, 50, 127
4, 78192, Note_off_c, 2, 50, 64
4, 78240, Note_on_c, 2, 48, 127
4, 78432, Note_off_c, 2, 48, 64
4, 78480, Note_on_c, 2, 47, 127
4, 78576, Note_off_c, 2, 47, 64
4, 78600, Note_on_c, 2, 53, 127
4, 78696, Note_off_c, 2, 53, 64
4, 78720, Note_on_c, 2, 51, 127
4, 78816, Note_off_c, 2, 51, 64
4, 78840, Note_on_c, 2, 50, 127
4, 78936, Note_off_c, 2, 50, 64
4, 78960, Note_on_c, 2, 48, 127
4, 79056, Note_off_c, 2, 48, 64
4, 79080, Note_on_c, 2, 52, 127
4, 79176, Note_off_c, 2, 52, 64
4, 79200, Note_on_c, 2, 41, 127
4, 79392, Note_off_c, 2, 41, 64
4, 79440, Note_on_c, 2, 49, 127
4, 79824, Note_off_c, 2, 49, 64
4, 79920, Note_on_c, 2, 48, 127
4, 80112, Note_off_c, 2, 48, 64
4, 80220, Note_on_c, 2, 60, 127
4, 80268, Note_off_c, 2, 60, 64
4, 80280, Note_on_c, 2, 58, 127
4, 80328, Note_off_c, 2, 58, 64
4, 80340, Note_on_c, 2, 60, 127
4, 80388, Note_off_c, 2, 60, 64
4, 80400, Note_on_c, 2, 56, 127
4, 80448, Note_off_c, 2, 56, 64
4, 80460, Note_on_c, 2, 58, 127
4, 80508, Note_off_c, 2, 58, 64
4, 80520, Note_on_c, 2, 55, 127
4, 80568, Note_off_c, 2, 55, 64
4, 80580, Note_on_c, 2, 56, 127
4, 80628, Note_off_c, 2, 56, 64
4, 80640, Note_on_c, 2, 53, 127
4, 80736, Note_off_c, 2, 53, 64
4, 80760, Note_on_c, 2, 56, 127
4, 80856, Note_off_c, 2, 56, 64
4, 80880, Note_on_c, 2, 53, 127
4, 80976, Note_off_c, 2, 53, 64
4, 81000, Note_on_c, 2, 56, 127
4, 81096, Note_off_c, 2, 56, 64
4, 81120, Note_on_c, 2, 53, 127
4, 81216, Note_off_c, 2, 53, 64
4, 81240, Note_on_c, 2, 56, 127
4, 81336, Note_off_c, 2, 56, 64
4, 81360, Note_on_c, 2, 46, 127
4, 81456, Note_off_c, 2, 46, 64
4, 81480, Note_on_c, 2, 61, 127
4, 81576, Note_off_c, 2, 61, 64
4, 81600, Note_on_c, 2, 46, 127
4, 81696, Note_off_c, 2, 46, 64
4, 81720, Note_on_c, 2, 61, 127
4, 81816, Note_off_c, 2, 61, 64
4, 81840, Note_on_c, 2, 46, 127
4, 81936, Note_off_c, 2, 46, 64
4, 81960, Note_on_c, 2, 61, 127
4, 82056, Note_off_c, 2, 61, 64
4, 82080, Note_on_c, 2, 51, 127
4, 82176, Note_off_c, 2, 51, 64
4, 82200, Note_on_c, 2, 55, 127
4, 82296, Note_off_c, 2, 55, 64
4, 82320, Note_on_c, 2, 51, 127
4, 82416, Note_off_c, 2, 51, 64
4, 82440, Note_on_c, 2, 55, 127
4, 82536, Note_off_c, 2, 55, 64
4, 82560, Note_on_c, 2, 51, 127
4, 82656, Note_off_c, 2, 51, 64
4, 82680, Note_on_c, 2, 55, 127
4, 82776, Note_off_c, 2, 55, 64
4, 82800, Note_on_c, 2, 44, 127
4, 82896, Note_off_c, 2, 44, 64
4, 82920, Note_on_c, 2, 60, 127
4, 83016, Note_off_c, 2, 60, 64
4, 83040, Note_on_c, 2, 44, 127
4, 83136, Note_off_c, 2, 44, 64
4, 83160, Note_on_c, 2, 60, 127
4, 83256, Note_off_c, 2, 60, 64
4, 83280, Note_on_c, 2, 44, 127
4, 83376, Note_off_c, 2, 44, 64
4, 83400, Note_on_c, 2, 60, 127
4, 83496, Note_off_c, 2, 60, 64
4, 83520, Note_on_c, 2, 49, 127
4, 83616, Note_off_c, 2, 49, 64
4, 83640, Note_on_c, 2, 53, 127
4, 83736, Note_off_c, 2, 53, 64
4, 83760, Note_on_c, 2, 49, 127
4, 83856, Note_off_c, 2, 49, 64
4, 83880, Note_on_c, 2, 53, 127
4, 83976, Note_off_c, 2, 53, 64
4, 84000, Note_on_c, 2, 49, 127
4, 84096, Note_off_c, 2, 49, 64
4, 84120, Note_on_c, 2, 53, 127
4, 84216, Note_off_c, 2, 53, 64
4, 84240, Note_on_c, 2, 49, 127
4, 84336, Note_off_c, 2, 49, 64
4, 84360, Note_on_c, 2, 55, 127
4, 84456, Note_off_c, 2, 55, 64
4, 84480, Note_on_c, 2, 49, 127
4, 84576, Note_off_c, 2, 49, 64
4, 84600, Note_on_c, 2, 55, 127
4, 84696, Note_off_c, 2, 55, 64
4, 84720, Note_on_c, 2, 49, 127
4, 84816, Note_off_c, 2, 49, 64
4, 84840, Note_on_c, 2, 55, 127
4, 84936, Note_off_c, 2, 55, 64
4, 84960, Note_on_c, 2, 48, 127
4, 85056, Note_off_c, 2, 48, 64
4, 85080, Note_on_c, 2, 56, 127
4, 85176, Note_off_c, 2, 56, 64
4, 85200, Note_on_c, 2, 48, 127
4, 85296, Note_off_c, 2, 48, 64
4, 85320, Note_on_c, 2, 56, 127
4, 85416, Note_off_c, 2, 56, 64
4, 85440, Note_on_c, 2, 48, 127
4, 85536, Note_off_c, 2, 48, 64
4, 85560, Note_on_c, 2, 56, 127
4, 85656, Note_off_c, 2, 56, 64
4, 85680, Note_on_c, 2, 46, 127
4, 85872, Note_off_c, 2, 46, 64
4, 86400, Note_on_c, 2, 39, 127
4, 86496, Note_off_c, 2, 39, 64
4, 86520, Note_on_c, 2, 51, 127
4, 86616, Note_off_c, 2, 51, 64
4, 86640, Note_on_c, 2, 41, 127
4, 86736, Note_off_c, 2, 41, 64
4, 86760, Note_on_c, 2, 51, 127
4, 86856, Note_off_c, 2, 51, 64
4, 86880, Note_on_c, 2, 43, 127
4, 86976, Note_off_c, 2, 43, 64
4, 87000, Note_on_c, 2, 51, 127
4, 87096, Note_off_c, 2, 51, 64
4, 87120, Note_on_c, 2, 44, 127
4, 87216, Note_off_c, 2, 44, 64
4, 87240, Note_on_c, 2, 51, 127
4, 87336, Note_off_c, 2, 51, 64
4, 87360, Note_on_c, 2, 46, 127
4, 87456, Note_off_c, 2, 46, 64
4, 87480, Note_on_c, 2, 51, 127
4, 87576, Note_off_c, 2, 51, 64
4, 87600, Note_on_c, 2, 48, 127
4, 87696, Note_off_c, 2, 48, 64
4, 87720, Note_on_c, 2, 51, 127
4, 87816, Note_off_c, 2, 51, 64
4, 87840, Note_on_c, 2, 46, 127
4, 87936, Note_off_c, 2, 46, 64
4, 87960, Note_on_c, 2, 51, 127
4, 88056, Note_off_c, 2, 51, 64
4, 88080, Note_on_c, 2, 44, 127
4, 88176, Note_off_c, 2, 44, 64
4, 88200, Note_on_c, 2, 51, 127
4, 88296, Note_off_c, 2, 51, 64
4, 88320, Note_on_c, 2, 46, 127
4, 88416, Note_off_c, 2, 46, 64
4, 88440, Note_on_c, 2, 50, 127
4, 88536, Note_off_c, 2, 50, 64
4, 88560, Note_on_c, 2, 39, 127
4, 88752, Note_off_c, 2, 39, 64
4, 89280, Note_on_c, 2, 39, 127
4, 89472, Note_off_c, 2, 39, 64
4, 90120, Note_on_c, 2, 58, 127
4, 90216, Note_off_c, 2, 58, 64
4, 90240, Note_on_c, 2, 60, 127
4, 90336, Note_off_c, 2, 60, 64
4, 90360, Note_on_c, 2, 58, 127
4, 90456, Note_off_c, 2, 58, 64
4, 90480, Note_on_c, 2, 60, 127
4, 90576, Note_off_c, 2, 60, 64
4, 90600, Note_on_c, 2, 56, 127
4, 90696, Note_off_c, 2, 56, 64
4, 90720, Note_on_c, 2, 55, 127
4, 90816, Note_off_c, 2, 55, 64
4, 90840, Note_on_c, 2, 60, 127
4, 90936, Note_off_c, 2, 60, 64
4, 90960, Note_on_c, 2, 56, 127
4, 91050, Note_off_c, 2, 56, 64
4, 91200, Note_on_c, 2, 58, 127
4, 91392, Note_off_c, 2, 58, 64
4, 91440, Note_on_c, 2, 51, 80
4, 92016, Note_off_c, 2, 51, 64
4, 92016, End_track
0, 0, End_of_file
