0, 0, Header, 1, 4, 240
1, 0, Start_track
1, 0, Time_signature, 1, 3, 12, 8
1, 0, Tempo, 1333333
1, 120, Time_signature, 6, 3, 12, 8
1, 10920, Time_signature, 5, 3, 12, 8
1, 11520, Time_signature, 1, 3, 12, 8
1, 11640, Time_signature, 6, 3, 12, 8
1, 22440, Time_signature, 5, 3, 12, 8
1, 23040, Time_signature, 6, 3, 12, 8
1, 23040, End_track
2, 0, Start_track
2, 0, Title_t, "Trio Sonata 6, 2. Lento"
2, 0, Program_c, 0, 19
2, 0, Control_c, 0, 7, 127
2, 0, Note_on_c, 0, 71, 127
2, 96, Note_off_c, 0, 71, 64
2, 120, Note_on_c, 0, 76, 127
2, 168, Note_off_c, 0, 76, 64
2, 180, Note_on_c, 0, 78, 127
2, 228, Note_off_c, 0, 78, 64
2, 240, Note_on_c, 0, 79, 127
2, 297, Note_off_c, 0, 79, 64
2, 300, Note_on_c, 0, 78, 127
2, 348, Note_off_c, 0, 78, 64
2, 360, Note_on_c, 0, 76, 127
2, 456, Note_off_c, 0, 76, 64
2, 480, Note_on_c, 0, 75, 127
2, 570, Note_off_c, 0, 75, 64
2, 600, Note_on_c, 0, 76, 127
2, 690, Note_off_c, 0, 76, 64
2, 840, Note_on_c, 0, 69, 127
2, 888, Note_off_c, 0, 69, 64
2, 900, Note_on_c, 0, 68, 127
2, 1013, Note_off_c, 0, 68, 64
2, 1020, Note_on_c, 0, 69, 127
2, 1044, Note_off_c, 0, 69, 64
2, 1050, Note_on_c, 0, 71, 127
2, 1074, Note_off_c, 0, 71, 64
2, 1080, Note_on_c, 0, 69, 127
2, 1104, Note_off_c, 0, 69, 64
2, 1110, Note_on_c, 0, 68, 127
2, 1134, Note_off_c, 0, 68, 64
2, 1140, Note_on_c, 0, 66, 127
2, 1164, Note_off_c, 0, 66, 64
2, 1170, Note_on_c, 0, 64, 127
2, 1194, Note_off_c, 0, 64, 64
2, 1200, Note_on_c, 0, 74, 127
2, 1224, Note_off_c, 0, 74, 64
2, 1230, Note_on_c, 0, 73, 127
2, 1254, Note_off_c, 0, 73, 64
2, 1260, Note_on_c, 0, 71, 127
2, 1317, Note_off_c, 0, 71, 64
2, 1320, Note_on_c, 0, 73, 127
2, 1410, Note_off_c, 0, 73, 64
2, 1560, Note_on_c, 0, 74, 127
2, 1589, Note_off_c, 0, 74, 64
2, 1590, Note_on_c, 0, 72, 127
2, 1605, Note_off_c, 0, 72, 64
2, 1605, Note_on_c, 0, 71, 127
2, 1620, Note_off_c, 0, 71, 64
2, 1620, Note_on_c, 0, 72, 127
2, 1716, Note_off_c, 0, 72, 64
2, 1740, Note_on_c, 0, 75, 127
2, 1836, Note_off_c, 0, 75, 64
2, 1860, Note_on_c, 0, 78, 127
2, 1908, Note_off_c, 0, 78, 64
2, 1920, Note_on_c, 0, 81, 127
2, 1968, Note_off_c, 0, 81, 64
2, 1980, Note_on_c, 0, 72, 127
2, 2028, Note_off_c, 0, 72, 64
2, 2040, Note_on_c, 0, 72, 127
2, 2088, Note_off_c, 0, 72, 64
2, 2100, Note_on_c, 0, 71, 127
2, 2213, Note_off_c, 0, 71, 64
2, 2220, Note_on_c, 0, 70, 127
2, 2268, Note_off_c, 0, 70, 64
2, 2280, Note_on_c, 0, 71, 127
2, 2304, Note_off_c, 0, 71, 64
2, 2310, Note_on_c, 0, 75, 127
2, 2334, Note_off_c, 0, 75, 64
2, 2340, Note_on_c, 0, 76, 127
2, 2388, Note_off_c, 0, 76, 64
2, 2400, Note_on_c, 0, 64, 127
2, 2448, Note_off_c, 0, 64, 64
2, 2460, Note_on_c, 0, 69, 127
2, 2556, Note_off_c, 0, 69, 64
2, 2580, Note_on_c, 0, 67, 127
2, 2604, Note_off_c, 0, 67, 64
2, 2610, Note_on_c, 0, 66, 127
2, 2634, Note_off_c, 0, 66, 64
2, 2640, Note_on_c, 0, 67, 127
2, 2688, Note_off_c, 0, 67, 64
2, 2700, Note_on_c, 0, 79, 127
2, 2748, Note_off_c, 0, 79, 64
2, 2760, Note_on_c, 0, 78, 127
2, 2873, Note_off_c, 0, 78, 64
2, 2880, Note_on_c, 0, 71, 127
2, 2928, Note_off_c, 0, 71, 64
2, 2940, Note_on_c, 0, 70, 127
2, 2988, Note_off_c, 0, 70, 64
2, 3000, Note_on_c, 0, 71, 127
2, 3024, Note_off_c, 0, 71, 64
2, 3030, Note_on_c, 0, 69, 127
2, 3054, Note_off_c, 0, 69, 64
2, 3060, Note_on_c, 0, 67, 127
2, 3108, Note_off_c, 0, 67, 64
2, 3120, Note_on_c, 0, 66, 127
2, 3504, Note_off_c, 0, 66, 64
2, 3540, Note_on_c, 0, 78, 127
2, 3588, Note_off_c, 0, 78, 64
2, 3600, Note_on_c, 0, 76, 127
2, 3624, Note_off_c, 0, 76, 64
2, 3630, Note_on_c, 0, 75, 127
2, 3654, Note_off_c, 0, 75, 64
2, 3660, Note_on_c, 0, 73, 127
2, 3684, Note_off_c, 0, 73, 64
2, 3690, Note_on_c, 0, 75, 127
2, 3714, Note_off_c, 0, 75, 64
2, 3720, Note_on_c, 0, 81, 127
2, 3768, Note_off_c, 0, 81, 64
2, 3780, Note_on_c, 0, 72, 127
2, 3828, Note_off_c, 0, 72, 64
2, 3840, Note_on_c, 0, 71, 127
2, 3936, Note_off_c, 0, 71, 64
2, 4020, Note_on_c, 0, 79, 127
2, 4068, Note_off_c, 0, 79, 64
2, 4080, Note_on_c, 0, 78, 127
2, 4104, Note_off_c, 0, 78, 64
2, 4110, Note_on_c, 0, 76, 127
2, 4134, Note_off_c, 0, 76, 64
2, 4140, Note_on_c, 0, 75, 127
2, 4188, Note_off_c, 0, 75, 64
2, 4200, Note_on_c, 0, 76, 127
2, 4248, Note_off_c, 0, 76, 64
2, 4260, Note_on_c, 0, 74, 127
2, 4284, Note_off_c, 0, 74, 64
2, 4290, Note_on_c, 0, 73, 127
2, 4314, Note_off_c, 0, 73, 64
2, 4320, Note_on_c, 0, 71, 127
2, 4344, Note_off_c, 0, 71, 64
2, 4350, Note_on_c, 0, 70, 127
2, 4374, Note_off_c, 0, 70, 64
2, 4380, Note_on_c, 0, 71, 127
2, 4428, Note_off_c, 0, 71, 64
2, 4440, Note_on_c, 0, 64, 127
2, 4488, Note_off_c, 0, 64, 64
2, 4500, Note_on_c, 0, 71, 127
2, 4548, Note_off_c, 0, 71, 64
2, 4560, Note_on_c, 0, 70, 127
2, 4650, Note_off_c, 0, 70, 64
2, 4800, Note_on_c, 0, 73, 127
2, 4857, Note_off_c, 0, 73, 64
2, 4860, Note_on_c, 0, 64, 127
2, 4917, Note_off_c, 0, 64, 64
2, 4920, Note_on_c, 0, 63, 127
2, 4977, Note_off_c, 0, 63, 64
2, 4980, Note_on_c, 0, 66, 127
2, 5037, Note_off_c, 0, 66, 64
2, 5040, Note_on_c, 0, 70, 127
2, 5136, Note_off_c, 0, 70, 64
2, 5220, Note_on_c, 0, 78, 127
2, 5268, Note_off_c, 0, 78, 64
2, 5280, Note_on_c, 0, 79, 127
2, 5328, Note_off_c, 0, 79, 64
2, 5340, Note_on_c, 0, 76, 127
2, 5388, Note_off_c, 0, 76, 64
2, 5400, Note_on_c, 0, 73, 127
2, 5448, Note_off_c, 0, 73, 64
2, 5460, Note_on_c, 0, 82, 127
2, 5508, Note_off_c, 0, 82, 64
2, 5520, Note_on_c, 0, 83, 127
2, 5568, Note_off_c, 0, 83, 64
2, 5580, Note_on_c, 0, 71, 127
2, 5676, Note_off_c, 0, 71, 64
2, 5700, Note_on_c, 0, 69, 127
2, 5784, Note_off_c, 0, 69, 64
2, 5790, Note_on_c, 0, 68, 127
2, 5814, Note_off_c, 0, 68, 64
2, 5820, Note_on_c, 0, 69, 127
2, 5868, Note_off_c, 0, 69, 64
2, 5880, Note_on_c, 0, 68, 127
2, 5904, Note_off_c, 0, 68, 64
2, 5910, Note_on_c, 0, 69, 127
2, 5934, Note_off_c, 0, 69, 64
2, 5940, Note_on_c, 0, 71, 127
2, 5997, Note_off_c, 0, 71, 64
2, 6120, Note_on_c, 0, 83, 127
2, 6288, Note_off_c, 0, 83, 64
2, 6300, Note_on_c, 0, 81, 127
2, 6396, Note_off_c, 0, 81, 64
2, 6420, Note_on_c, 0, 79, 127
2, 6504, Note_off_c, 0, 79, 64
2, 6510, Note_on_c, 0, 78, 127
2, 6534, Note_off_c, 0, 78, 64
2, 6540, Note_on_c, 0, 76, 127
2, 6588, Note_off_c, 0, 76, 64
2, 6600, Note_on_c, 0, 78, 127
2, 6624, Note_off_c, 0, 78, 64
2, 6630, Note_on_c, 0, 79, 127
2, 6654, Note_off_c, 0, 79, 64
2, 6660, Note_on_c, 0, 81, 127
2, 6708, Note_off_c, 0, 81, 64
2, 6840, Note_on_c, 0, 69, 127
2, 7008, Note_off_c, 0, 69, 64
2, 7020, Note_on_c, 0, 67, 127
2, 7116, Note_off_c, 0, 67, 64
2, 7140, Note_on_c, 0, 65, 127
2, 7224, Note_off_c, 0, 65, 64
2, 7230, Note_on_c, 0, 64, 127
2, 7254, Note_off_c, 0, 64, 64
2, 7260, Note_on_c, 0, 62, 127
2, 7308, Note_off_c, 0, 62, 64
2, 7320, Note_on_c, 0, 64, 127
2, 7416, Note_off_c, 0, 64, 64
2, 7440, Note_on_c, 0, 69, 127
2, 7488, Note_off_c, 0, 69, 64
2, 7500, Note_on_c, 0, 67, 127
2, 7548, Note_off_c, 0, 67, 64
2, 7560, Note_on_c, 0, 69, 127
2, 7704, Note_off_c, 0, 69, 64
2, 7710, Note_on_c, 0, 67, 127
2, 7734, Note_off_c, 0, 67, 64
2, 7740, Note_on_c, 0, 66, 127
2, 7788, Note_off_c, 0, 66, 64
2, 7800, Note_on_c, 0, 67, 127
2, 7896, Note_off_c, 0, 67, 64
2, 7920, Note_on_c, 0, 81, 127
2, 8064, Note_off_c, 0, 81, 64
2, 8070, Note_on_c, 0, 79, 127
2, 8094, Note_off_c, 0, 79, 64
2, 8100, Note_on_c, 0, 78, 127
2, 8148, Note_off_c, 0, 78, 64
2, 8160, Note_on_c, 0, 79, 127
2, 8544, Note_off_c, 0, 79, 64
2, 8580, Note_on_c, 0, 78, 127
2, 8604, Note_off_c, 0, 78, 64
2, 8610, Note_on_c, 0, 76, 127
2, 8634, Note_off_c, 0, 76, 64
2, 8640, Note_on_c, 0, 74, 127
2, 8664, Note_off_c, 0, 74, 64
2, 8670, Note_on_c, 0, 73, 127
2, 8694, Note_off_c, 0, 73, 64
2, 8700, Note_on_c, 0, 71, 127
2, 8748, Note_off_c, 0, 71, 64
2, 8760, Note_on_c, 0, 70, 127
2, 8856, Note_off_c, 0, 70, 64
2, 8880, Note_on_c, 0, 71, 127
2, 8904, Note_off_c, 0, 71, 64
2, 8910, Note_on_c, 0, 70, 127
2, 8934, Note_off_c, 0, 70, 64
2, 8940, Note_on_c, 0, 71, 127
2, 8997, Note_off_c, 0, 71, 64
2, 9000, Note_on_c, 0, 83, 127
2, 9144, Note_off_c, 0, 83, 64
2, 9150, Note_on_c, 0, 82, 127
2, 9174, Note_off_c, 0, 82, 64
2, 9180, Note_on_c, 0, 80, 127
2, 9228, Note_off_c, 0, 80, 64
2, 9240, Note_on_c, 0, 82, 127
2, 9330, Note_off_c, 0, 82, 64
2, 9360, Note_on_c, 0, 81, 127
2, 9504, Note_off_c, 0, 81, 64
2, 9510, Note_on_c, 0, 80, 127
2, 9534, Note_off_c, 0, 80, 64
2, 9540, Note_on_c, 0, 78, 127
2, 9588, Note_off_c, 0, 78, 64
2, 9600, Note_on_c, 0, 80, 127
2, 9690, Note_off_c, 0, 80, 64
2, 9720, Note_on_c, 0, 79, 127
2, 9864, Note_off_c, 0, 79, 64
2, 9870, Note_on_c, 0, 78, 127
2, 9894, Note_off_c, 0, 78, 64
2, 9900, Note_on_c, 0, 77, 127
2, 9948, Note_off_c, 0, 77, 64
2, 9960, Note_on_c, 0, 78, 127
2, 10050, Note_off_c, 0, 78, 64
2, 10080, Note_on_c, 0, 77, 127
2, 10224, Note_off_c, 0, 77, 64
2, 10230, Note_on_c, 0, 76, 127
2, 10254, Note_off_c, 0, 76, 64
2, 10260, Note_on_c, 0, 75, 127
2, 10308, Note_off_c, 0, 75, 64
2, 10320, Note_on_c, 0, 76, 127
2, 10410, Note_off_c, 0, 76, 64
2, 10440, Note_on_c, 0, 64, 127
2, 10584, Note_off_c, 0, 64, 64
2, 10590, Note_on_c, 0, 62, 127
2, 10614, Note_off_c, 0, 62, 64
2, 10620, Note_on_c, 0, 61, 127
2, 10668, Note_off_c, 0, 61, 64
2, 10680, Note_on_c, 0, 62, 127
2, 10770, Note_off_c, 0, 62, 64
2, 10800, Note_on_c, 0, 74, 127
2, 10944, Note_off_c, 0, 74, 64
2, 10950, Note_on_c, 0, 73, 127
2, 10974, Note_off_c, 0, 73, 64
2, 10980, Note_on_c, 0, 71, 127
2, 11028, Note_off_c, 0, 71, 64
2, 11040, Note_on_c, 0, 73, 127
2, 11130, Note_off_c, 0, 73, 64
2, 11160, Note_on_c, 0, 71, 127
2, 11172, Note_off_c, 0, 71, 64
2, 11175, Note_on_c, 0, 70, 127
2, 11187, Note_off_c, 0, 70, 64
2, 11190, Note_on_c, 0, 71, 127
2, 11202, Note_off_c, 0, 71, 64
2, 11205, Note_on_c, 0, 70, 127
2, 11217, Note_off_c, 0, 70, 64
2, 11220, Note_on_c, 0, 71, 127
2, 11235, Note_off_c, 0, 71, 64
2, 11235, Note_on_c, 0, 70, 127
2, 11250, Note_off_c, 0, 70, 64
2, 11250, Note_on_c, 0, 71, 127
2, 11265, Note_off_c, 0, 71, 64
2, 11265, Note_on_c, 0, 70, 127
2, 11280, Note_off_c, 0, 70, 64
2, 11280, Note_on_c, 0, 71, 127
2, 11472, Note_off_c, 0, 71, 64
2, 11520, Note_on_c, 0, 71, 127
2, 11616, Note_off_c, 0, 71, 64
2, 11640, Note_on_c, 0, 76, 127
2, 11688, Note_off_c, 0, 76, 64
2, 11700, Note_on_c, 0, 78, 127
2, 11748, Note_off_c, 0, 78, 64
2, 11760, Note_on_c, 0, 79, 127
2, 11817, Note_off_c, 0, 79, 64
2, 11820, Note_on_c, 0, 78, 127
2, 11868, Note_off_c, 0, 78, 64
2, 11880, Note_on_c, 0, 76, 127
2, 11976, Note_off_c, 0, 76, 64
2, 12000, Note_on_c, 0, 75, 127
2, 12090, Note_off_c, 0, 75, 64
2, 12120, Note_on_c, 0, 76, 127
2, 12210, Note_off_c, 0, 76, 64
2, 12360, Note_on_c, 0, 69, 127
2, 12408, Note_off_c, 0, 69, 64
2, 12420, Note_on_c, 0, 68, 127
2, 12533, Note_off_c, 0, 68, 64
2, 12540, Note_on_c, 0, 69, 127
2, 12564, Note_off_c, 0, 69, 64
2, 12570, Note_on_c, 0, 71, 127
2, 12594, Note_off_c, 0, 71, 64
2, 12600, Note_on_c, 0, 69, 127
2, 12624, Note_off_c, 0, 69, 64
2, 12630, Note_on_c, 0, 68, 127
2, 12654, Note_off_c, 0, 68, 64
2, 12660, Note_on_c, 0, 66, 127
2, 12684, Note_off_c, 0, 66, 64
2, 12690, Note_on_c, 0, 64, 127
2, 12714, Note_off_c, 0, 64, 64
2, 12720, Note_on_c, 0, 74, 127
2, 12744, Note_off_c, 0, 74, 64
2, 12750, Note_on_c, 0, 73, 127
2, 12774, Note_off_c, 0, 73, 64
2, 12780, Note_on_c, 0, 71, 127
2, 12837, Note_off_c, 0, 71, 64
2, 12840, Note_on_c, 0, 73, 127
2, 12930, Note_off_c, 0, 73, 64
2, 13080, Note_on_c, 0, 74, 127
2, 13109, Note_off_c, 0, 74, 64
2, 13110, Note_on_c, 0, 72, 127
2, 13125, Note_off_c, 0, 72, 64
2, 13125, Note_on_c, 0, 71, 127
2, 13140, Note_off_c, 0, 71, 64
2, 13140, Note_on_c, 0, 72, 127
2, 13236, Note_off_c, 0, 72, 64
2, 13260, Note_on_c, 0, 75, 127
2, 13356, Note_off_c, 0, 75, 64
2, 13380, Note_on_c, 0, 78, 127
2, 13428, Note_off_c, 0, 78, 64
2, 13440, Note_on_c, 0, 81, 127
2, 13488, Note_off_c, 0, 81, 64
2, 13500, Note_on_c, 0, 72, 127
2, 13548, Note_off_c, 0, 72, 64
2, 13560, Note_on_c, 0, 72, 127
2, 13608, Note_off_c, 0, 72, 64
2, 13620, Note_on_c, 0, 71, 127
2, 13733, Note_off_c, 0, 71, 64
2, 13740, Note_on_c, 0, 70, 127
2, 13788, Note_off_c, 0, 70, 64
2, 13800, Note_on_c, 0, 71, 127
2, 13824, Note_off_c, 0, 71, 64
2, 13830, Note_on_c, 0, 75, 127
2, 13854, Note_off_c, 0, 75, 64
2, 13860, Note_on_c, 0, 76, 127
2, 13908, Note_off_c, 0, 76, 64
2, 13920, Note_on_c, 0, 64, 127
2, 13968, Note_off_c, 0, 64, 64
2, 13980, Note_on_c, 0, 69, 127
2, 14076, Note_off_c, 0, 69, 64
2, 14100, Note_on_c, 0, 67, 127
2, 14124, Note_off_c, 0, 67, 64
2, 14130, Note_on_c, 0, 66, 127
2, 14154, Note_off_c, 0, 66, 64
2, 14160, Note_on_c, 0, 67, 127
2, 14208, Note_off_c, 0, 67, 64
2, 14220, Note_on_c, 0, 79, 127
2, 14268, Note_off_c, 0, 79, 64
2, 14280, Note_on_c, 0, 78, 127
2, 14393, Note_off_c, 0, 78, 64
2, 14400, Note_on_c, 0, 71, 127
2, 14448, Note_off_c, 0, 71, 64
2, 14460, Note_on_c, 0, 70, 127
2, 14508, Note_off_c, 0, 70, 64
2, 14520, Note_on_c, 0, 71, 127
2, 14544, Note_off_c, 0, 71, 64
2, 14550, Note_on_c, 0, 69, 127
2, 14574, Note_off_c, 0, 69, 64
2, 14580, Note_on_c, 0, 67, 127
2, 14628, Note_off_c, 0, 67, 64
2, 14640, Note_on_c, 0, 66, 127
2, 15024, Note_off_c, 0, 66, 64
2, 15060, Note_on_c, 0, 78, 127
2, 15108, Note_off_c, 0, 78, 64
2, 15120, Note_on_c, 0, 76, 127
2, 15144, Note_off_c, 0, 76, 64
2, 15150, Note_on_c, 0, 75, 127
2, 15174, Note_off_c, 0, 75, 64
2, 15180, Note_on_c, 0, 73, 127
2, 15204, Note_off_c, 0, 73, 64
2, 15210, Note_on_c, 0, 75, 127
2, 15234, Note_off_c, 0, 75, 64
2, 15240, Note_on_c, 0, 81, 127
2, 15288, Note_off_c, 0, 81, 64
2, 15300, Note_on_c, 0, 72, 127
2, 15348, Note_off_c, 0, 72, 64
2, 15360, Note_on_c, 0, 71, 127
2, 15456, Note_off_c, 0, 71, 64
2, 15540, Note_on_c, 0, 79, 127
2, 15588, Note_off_c, 0, 79, 64
2, 15600, Note_on_c, 0, 78, 127
2, 15624, Note_off_c, 0, 78, 64
2, 15630, Note_on_c, 0, 76, 127
2, 15654, Note_off_c, 0, 76, 64
2, 15660, Note_on_c, 0, 75, 127
2, 15708, Note_off_c, 0, 75, 64
2, 15720, Note_on_c, 0, 76, 127
2, 15768, Note_off_c, 0, 76, 64
2, 15780, Note_on_c, 0, 74, 127
2, 15804, Note_off_c, 0, 74, 64
2, 15810, Note_on_c, 0, 73, 127
2, 15834, Note_off_c, 0, 73, 64
2, 15840, Note_on_c, 0, 71, 127
2, 15864, Note_off_c, 0, 71, 64
2, 15870, Note_on_c, 0, 70, 127
2, 15894, Note_off_c, 0, 70, 64
2, 15900, Note_on_c, 0, 71, 127
2, 15948, Note_off_c, 0, 71, 64
2, 15960, Note_on_c, 0, 64, 127
2, 16008, Note_off_c, 0, 64, 64
2, 16020, Note_on_c, 0, 71, 127
2, 16068, Note_off_c, 0, 71, 64
2, 16080, Note_on_c, 0, 70, 127
2, 16170, Note_off_c, 0, 70, 64
2, 16320, Note_on_c, 0, 73, 127
2, 16377, Note_off_c, 0, 73, 64
2, 16380, Note_on_c, 0, 64, 127
2, 16437, Note_off_c, 0, 64, 64
2, 16440, Note_on_c, 0, 63, 127
2, 16497, Note_off_c, 0, 63, 64
2, 16500, Note_on_c, 0, 66, 127
2, 16557, Note_off_c, 0, 66, 64
2, 16560, Note_on_c, 0, 70, 127
2, 16656, Note_off_c, 0, 70, 64
2, 16740, Note_on_c, 0, 78, 127
2, 16788, Note_off_c, 0, 78, 64
2, 16800, Note_on_c, 0, 79, 127
2, 16848, Note_off_c, 0, 79, 64
2, 16860, Note_on_c, 0, 76, 127
2, 16908, Note_off_c, 0, 76, 64
2, 16920, Note_on_c, 0, 73, 127
2, 16968, Note_off_c, 0, 73, 64
2, 16980, Note_on_c, 0, 82, 127
2, 17028, Note_off_c, 0, 82, 64
2, 17040, Note_on_c, 0, 83, 127
2, 17088, Note_off_c, 0, 83, 64
2, 17100, Note_on_c, 0, 71, 127
2, 17196, Note_off_c, 0, 71, 64
2, 17220, Note_on_c, 0, 69, 127
2, 17304, Note_off_c, 0, 69, 64
2, 17310, Note_on_c, 0, 68, 127
2, 17334, Note_off_c, 0, 68, 64
2, 17340, Note_on_c, 0, 69, 127
2, 17388, Note_off_c, 0, 69, 64
2, 17400, Note_on_c, 0, 68, 127
2, 17424, Note_off_c, 0, 68, 64
2, 17430, Note_on_c, 0, 69, 127
2, 17454, Note_off_c, 0, 69, 64
2, 17460, Note_on_c, 0, 71, 127
2, 17517, Note_off_c, 0, 71, 64
2, 17640, Note_on_c, 0, 83, 127
2, 17808, Note_off_c, 0, 83, 64
2, 17820, Note_on_c, 0, 81, 127
2, 17916, Note_off_c, 0, 81, 64
2, 17940, Note_on_c, 0, 79, 127
2, 18024, Note_off_c, 0, 79, 64
2, 18030, Note_on_c, 0, 78, 127
2, 18054, Note_off_c, 0, 78, 64
2, 18060, Note_on_c, 0, 76, 127
2, 18108, Note_off_c, 0, 76, 64
2, 18120, Note_on_c, 0, 78, 127
2, 18144, Note_off_c, 0, 78, 64
2, 18150, Note_on_c, 0, 79, 127
2, 18174, Note_off_c, 0, 79, 64
2, 18180, Note_on_c, 0, 81, 127
2, 18228, Note_off_c, 0, 81, 64
2, 18360, Note_on_c, 0, 69, 127
2, 18528, Note_off_c, 0, 69, 64
2, 18540, Note_on_c, 0, 67, 127
2, 18636, Note_off_c, 0, 67, 64
2, 18660, Note_on_c, 0, 65, 127
2, 18744, Note_off_c, 0, 65, 64
2, 18750, Note_on_c, 0, 64, 127
2, 18774, Note_off_c, 0, 64, 64
2, 18780, Note_on_c, 0, 62, 127
2, 18828, Note_off_c, 0, 62, 64
2, 18840, Note_on_c, 0, 64, 127
2, 18936, Note_off_c, 0, 64, 64
2, 18960, Note_on_c, 0, 69, 127
2, 19008, Note_off_c, 0, 69, 64
2, 19020, Note_on_c, 0, 67, 127
2, 19068, Note_off_c, 0, 67, 64
2, 19080, Note_on_c, 0, 69, 127
2, 19224, Note_off_c, 0, 69, 64
2, 19230, Note_on_c, 0, 67, 127
2, 19254, Note_off_c, 0, 67, 64
2, 19260, Note_on_c, 0, 66, 127
2, 19308, Note_off_c, 0, 66, 64
2, 19320, Note_on_c, 0, 67, 127
2, 19416, Note_off_c, 0, 67, 64
2, 19440, Note_on_c, 0, 81, 127
2, 19584, Note_off_c, 0, 81, 64
2, 19590, Note_on_c, 0, 79, 127
2, 19614, Note_off_c, 0, 79, 64
2, 19620, Note_on_c, 0, 78, 127
2, 19668, Note_off_c, 0, 78, 64
2, 19680, Note_on_c, 0, 79, 127
2, 20064, Note_off_c, 0, 79, 64
2, 20100, Note_on_c, 0, 78, 127
2, 20124, Note_off_c, 0, 78, 64
2, 20130, Note_on_c, 0, 76, 127
2, 20154, Note_off_c, 0, 76, 64
2, 20160, Note_on_c, 0, 74, 127
2, 20184, Note_off_c, 0, 74, 64
2, 20190, Note_on_c, 0, 73, 127
2, 20214, Note_off_c, 0, 73, 64
2, 20220, Note_on_c, 0, 71, 127
2, 20268, Note_off_c, 0, 71, 64
2, 20280, Note_on_c, 0, 70, 127
2, 20376, Note_off_c, 0, 70, 64
2, 20400, Note_on_c, 0, 71, 127
2, 20424, Note_off_c, 0, 71, 64
2, 20430, Note_on_c, 0, 70, 127
2, 20454, Note_off_c, 0, 70, 64
2, 20460, Note_on_c, 0, 71, 127
2, 20517, Note_off_c, 0, 71, 64
2, 20520, Note_on_c, 0, 83, 127
2, 20664, Note_off_c, 0, 83, 64
2, 20670, Note_on_c, 0, 82, 127
2, 20694, Note_off_c, 0, 82, 64
2, 20700, Note_on_c, 0, 80, 127
2, 20748, Note_off_c, 0, 80, 64
2, 20760, Note_on_c, 0, 82, 127
2, 20850, Note_off_c, 0, 82, 64
2, 20880, Note_on_c, 0, 81, 127
2, 21024, Note_off_c, 0, 81, 64
2, 21030, Note_on_c, 0, 80, 127
2, 21054, Note_off_c, 0, 80, 64
2, 21060, Note_on_c, 0, 78, 127
2, 21108, Note_off_c, 0, 78, 64
2, 21120, Note_on_c, 0, 80, 127
2, 21210, Note_off_c, 0, 80, 64
2, 21240, Note_on_c, 0, 79, 127
2, 21384, Note_off_c, 0, 79, 64
2, 21390, Note_on_c, 0, 78, 127
2, 21414, Note_off_c, 0, 78, 64
2, 21420, Note_on_c, 0, 77, 127
2, 21468, Note_off_c, 0, 77, 64
2, 21480, Note_on_c, 0, 78, 127
2, 21570, Note_off_c, 0, 78, 64
2, 21600, Note_on_c, 0, 77, 127
2, 21744, Note_off_c, 0, 77, 64
2, 21750, Note_on_c, 0, 76, 127
2, 21774, Note_off_c, 0, 76, 64
2, 21780, Note_on_c, 0, 75, 127
2, 21828, Note_off_c, 0, 75, 64
2, 21840, Note_on_c, 0, 76, 127
2, 21930, Note_off_c, 0, 76, 64
2, 21960, Note_on_c, 0, 64, 127
2, 22104, Note_off_c, 0, 64, 64
2, 22110, Note_on_c, 0, 62, 127
2, 22134, Note_off_c, 0, 62, 64
2, 22140, Note_on_c, 0, 61, 127
2, 22188, Note_off_c, 0, 61, 64
2, 22200, Note_on_c, 0, 62, 127
2, 22290, Note_off_c, 0, 62, 64
2, 22320, Note_on_c, 0, 74, 127
2, 22464, Note_off_c, 0, 74, 64
2, 22470, Note_on_c, 0, 73, 127
2, 22494, Note_off_c, 0, 73, 64
2, 22500, Note_on_c, 0, 71, 127
2, 22548, Note_off_c, 0, 71, 64
2, 22560, Note_on_c, 0, 73, 127
2, 22650, Note_off_c, 0, 73, 64
2, 22680, Note_on_c, 0, 71, 127
2, 22692, Note_off_c, 0, 71, 64
2, 22695, Note_on_c, 0, 70, 127
2, 22707, Note_off_c, 0, 70, 64
2, 22710, Note_on_c, 0, 71, 127
2, 22722, Note_off_c, 0, 71, 64
2, 22725, Note_on_c, 0, 70, 127
2, 22737, Note_off_c, 0, 70, 64
2, 22740, Note_on_c, 0, 71, 127
2, 22755, Note_off_c, 0, 71, 64
2, 22755, Note_on_c, 0, 70, 127
2, 22770, Note_off_c, 0, 70, 64
2, 22770, Note_on_c, 0, 71, 127
2, 22785, Note_off_c, 0, 71, 64
2, 22785, Note_on_c, 0, 70, 127
2, 22800, Note_off_c, 0, 70, 64
2, 22800, Note_on_c, 0, 71, 127
2, 22992, Note_off_c, 0, 71, 64
2, 23064, Note_off_c, 0, 74, 64
2, 23070, Note_on_c, 0, 73, 127
2, 23094, Note_off_c, 0, 73, 64
2, 23100, Note_on_c, 0, 71, 127
2, 23148, Note_off_c, 0, 71, 64
2, 23160, Note_on_c, 0, 73, 127
2, 23250, Note_off_c, 0, 73, 64
2, 23280, Note_on_c, 0, 71, 127
2, 23295, Note_off_c, 0, 71, 64
2, 23295, Note_on_c, 0, 70, 127
2, 23310, Note_off_c, 0, 70, 64
2, 23310, Note_on_c, 0, 71, 127
2, 23325, Note_off_c, 0, 71, 64
2, 23325, Note_on_c, 0, 70, 127
2, 23340, Note_off_c, 0, 70, 64
2, 23340, Note_on_c, 0, 71, 127
2, 23352, Note_off_c, 0, 71, 64
2, 23355, Note_on_c, 0, 70, 127
2, 23367, Note_off_c, 0, 70, 64
2, 23370, Note_on_c, 0, 71, 127
2, 23382, Note_off_c, 0, 71, 64
2, 23385, Note_on_c, 0, 70, 127
2, 23397, Note_off_c, 0, 70, 64
2, 23400, Note_on_c, 0, 71, 127
2, 23592, Note_off_c, 0, 71, 64
2, 25080, Note_on_c, 0, 71, 127
2, 25176, Note_off_c, 0, 71, 64
2, 25200, Note_on_c, 0, 69, 127
2, 25248, Note_off_c, 0, 69, 64
2, 25260, Note_on_c, 0, 68, 127
2, 25373, Note_off_c, 0, 68, 64
2, 25380, Note_on_c, 0, 64, 127
2, 25404, Note_off_c, 0, 64, 64
2, 25410, Note_on_c, 0, 66, 127
2, 25434, Note_off_c, 0, 66, 64
2, 25440, Note_on_c, 0, 68, 127
2, 25464, Note_off_c, 0, 68, 64
2, 25470, Note_on_c, 0, 69, 127
2, 25494, Note_off_c, 0, 69, 64
2, 25500, Note_on_c, 0, 71, 127
2, 25557, Note_off_c, 0, 71, 64
2, 25560, Note_on_c, 0, 74, 127
2, 25704, Note_off_c, 0, 74, 64
2, 25740, Note_on_c, 0, 68, 127
2, 25764, Note_off_c, 0, 68, 64
2, 25770, Note_on_c, 0, 69, 127
2, 25794, Note_off_c, 0, 69, 64
2, 25800, Note_on_c, 0, 71, 127
2, 25824, Note_off_c, 0, 71, 64
2, 25830, Note_on_c, 0, 72, 127
2, 25854, Note_off_c, 0, 72, 64
2, 25860, Note_on_c, 0, 74, 127
2, 25908, Note_off_c, 0, 74, 64
2, 25920, Note_on_c, 0, 77, 127
2, 25968, Note_off_c, 0, 77, 64
2, 25980, Note_on_c, 0, 76, 127
2, 26076, Note_off_c, 0, 76, 64
2, 26100, Note_on_c, 0, 74, 127
2, 26124, Note_off_c, 0, 74, 64
2, 26130, Note_on_c, 0, 72, 127
2, 26154, Note_off_c, 0, 72, 64
2, 26160, Note_on_c, 0, 71, 127
2, 26184, Note_off_c, 0, 71, 64
2, 26190, Note_on_c, 0, 72, 127
2, 26214, Note_off_c, 0, 72, 64
2, 26220, Note_on_c, 0, 74, 127
2, 26328, Note_off_c, 0, 74, 64
2, 26340, Note_on_c, 0, 72, 127
2, 26436, Note_off_c, 0, 72, 64
2, 26460, Note_on_c, 0, 71, 127
2, 26484, Note_off_c, 0, 71, 64
2, 26490, Note_on_c, 0, 69, 127
2, 26514, Note_off_c, 0, 69, 64
2, 26520, Note_on_c, 0, 68, 127
2, 26544, Note_off_c, 0, 68, 64
2, 26550, Note_on_c, 0, 69, 127
2, 26574, Note_off_c, 0, 69, 64
2, 26580, Note_on_c, 0, 71, 127
2, 26628, Note_off_c, 0, 71, 64
2, 26640, Note_on_c, 0, 69, 127
2, 26736, Note_off_c, 0, 69, 64
2, 26880, Note_on_c, 0, 76, 127
2, 27024, Note_off_c, 0, 76, 64
2, 27030, Note_on_c, 0, 70, 127
2, 27054, Note_off_c, 0, 70, 64
2, 27060, Note_on_c, 0, 69, 127
2, 27084, Note_off_c, 0, 69, 64
2, 27090, Note_on_c, 0, 67, 127
2, 27114, Note_off_c, 0, 67, 64
2, 27120, Note_on_c, 0, 69, 127
2, 27143, Note_off_c, 0, 69, 64
2, 27150, Note_on_c, 0, 75, 127
2, 27174, Note_off_c, 0, 75, 64
2, 27180, Note_on_c, 0, 74, 127
2, 27204, Note_off_c, 0, 74, 64
2, 27210, Note_on_c, 0, 73, 127
2, 27234, Note_off_c, 0, 73, 64
2, 27240, Note_on_c, 0, 74, 127
2, 27263, Note_off_c, 0, 74, 64
2, 27270, Note_on_c, 0, 82, 127
2, 27294, Note_off_c, 0, 82, 64
2, 27300, Note_on_c, 0, 81, 127
2, 27324, Note_off_c, 0, 81, 64
2, 27330, Note_on_c, 0, 80, 127
2, 27354, Note_off_c, 0, 80, 64
2, 27360, Note_on_c, 0, 81, 127
2, 27450, Note_off_c, 0, 81, 64
2, 27480, Note_on_c, 0, 75, 127
2, 27570, Note_off_c, 0, 75, 64
2, 27600, Note_on_c, 0, 78, 127
2, 27744, Note_off_c, 0, 78, 64
2, 27750, Note_on_c, 0, 72, 127
2, 27774, Note_off_c, 0, 72, 64
2, 27780, Note_on_c, 0, 71, 127
2, 27804, Note_off_c, 0, 71, 64
2, 27810, Note_on_c, 0, 69, 127
2, 27834, Note_off_c, 0, 69, 64
2, 27840, Note_on_c, 0, 71, 127
2, 27863, Note_off_c, 0, 71, 64
2, 27870, Note_on_c, 0, 77, 127
2, 27894, Note_off_c, 0, 77, 64
2, 27900, Note_on_c, 0, 76, 127
2, 27924, Note_off_c, 0, 76, 64
2, 27930, Note_on_c, 0, 75, 127
2, 27954, Note_off_c, 0, 75, 64
2, 27960, Note_on_c, 0, 76, 127
2, 27983, Note_off_c, 0, 76, 64
2, 27990, Note_on_c, 0, 84, 127
2, 28014, Note_off_c, 0, 84, 64
2, 28020, Note_on_c, 0, 83, 127
2, 28044, Note_off_c, 0, 83, 64
2, 28050, Note_on_c, 0, 82, 127
2, 28074, Note_off_c, 0, 82, 64
2, 28080, Note_on_c, 0, 83, 127
2, 28176, Note_off_c, 0, 83, 64
2, 28260, Note_on_c, 0, 77, 127
2, 28284, Note_off_c, 0, 77, 64
2, 28290, Note_on_c, 0, 76, 127
2, 28314, Note_off_c, 0, 76, 64
2, 28320, Note_on_c, 0, 74, 127
2, 28344, Note_off_c, 0, 74, 64
2, 28350, Note_on_c, 0, 72, 127
2, 28374, Note_off_c, 0, 72, 64
2, 28380, Note_on_c, 0, 71, 127
2, 28404, Note_off_c, 0, 71, 64
2, 28410, Note_on_c, 0, 69, 127
2, 28434, Note_off_c, 0, 69, 64
2, 28440, Note_on_c, 0, 69, 127
2, 28452, Note_off_c, 0, 69, 64
2, 28455, Note_on_c, 0, 68, 127
2, 28467, Note_off_c, 0, 68, 64
2, 28470, Note_on_c, 0, 69, 127
2, 28482, Note_off_c, 0, 69, 64
2, 28485, Note_on_c, 0, 68, 127
2, 28497, Note_off_c, 0, 68, 64
2, 28500, Note_on_c, 0, 69, 127
2, 28512, Note_off_c, 0, 69, 64
2, 28515, Note_on_c, 0, 68, 127
2, 28527, Note_off_c, 0, 68, 64
2, 28530, Note_on_c, 0, 69, 127
2, 28542, Note_off_c, 0, 69, 64
2, 28545, Note_on_c, 0, 68, 127
2, 28557, Note_off_c, 0, 68, 64
2, 28560, Note_on_c, 0, 69, 127
2, 28572, Note_off_c, 0, 69, 64
2, 28575, Note_on_c, 0, 68, 127
2, 28587, Note_off_c, 0, 68, 64
2, 28590, Note_on_c, 0, 69, 127
2, 28602, Note_off_c, 0, 69, 64
2, 28605, Note_on_c, 0, 68, 127
2, 28617, Note_off_c, 0, 68, 64
2, 28620, Note_on_c, 0, 69, 127
2, 28632, Note_off_c, 0, 69, 64
2, 28635, Note_on_c, 0, 68, 127
2, 28647, Note_off_c, 0, 68, 64
2, 28650, Note_on_c, 0, 69, 127
2, 28662, Note_off_c, 0, 69, 64
2, 28665, Note_on_c, 0, 68, 127
2, 28677, Note_off_c, 0, 68, 64
2, 28680, Note_on_c, 0, 69, 127
2, 28692, Note_off_c, 0, 69, 64
2, 28695, Note_on_c, 0, 68, 127
2, 28707, Note_off_c, 0, 68, 64
2, 28710, Note_on_c, 0, 69, 127
2, 28722, Note_off_c, 0, 69, 64
2, 28725, Note_on_c, 0, 68, 127
2, 28737, Note_off_c, 0, 68, 64
2, 28740, Note_on_c, 0, 69, 127
2, 28752, Note_off_c, 0, 69, 64
2, 28755, Note_on_c, 0, 68, 127
2, 28767, Note_off_c, 0, 68, 64
2, 28770, Note_on_c, 0, 69, 127
2, 28782, Note_off_c, 0, 69, 64
2, 28785, Note_on_c, 0, 68, 127
2, 28797, Note_off_c, 0, 68, 64
2, 28800, Note_on_c, 0, 68, 127
2, 28824, Note_off_c, 0, 68, 64
2, 28830, Note_on_c, 0, 71, 127
2, 28854, Note_off_c, 0, 71, 64
2, 28860, Note_on_c, 0, 69, 127
2, 28884, Note_off_c, 0, 69, 64
2, 28890, Note_on_c, 0, 68, 127
2, 28914, Note_off_c, 0, 68, 64
2, 28920, Note_on_c, 0, 69, 127
2, 28944, Note_off_c, 0, 69, 64
2, 28950, Note_on_c, 0, 73, 127
2, 28974, Note_off_c, 0, 73, 64
2, 28980, Note_on_c, 0, 76, 127
2, 29004, Note_off_c, 0, 76, 64
2, 29010, Note_on_c, 0, 80, 127
2, 29034, Note_off_c, 0, 80, 64
2, 29040, Note_on_c, 0, 81, 127
2, 29256, Note_off_c, 0, 81, 64
2, 29280, Note_on_c, 0, 79, 127
2, 29370, Note_off_c, 0, 79, 64
2, 32280, Note_on_c, 0, 69, 127
2, 32376, Note_off_c, 0, 69, 64
2, 32400, Note_on_c, 0, 76, 127
2, 32448, Note_off_c, 0, 76, 64
2, 32460, Note_on_c, 0, 78, 127
2, 32508, Note_off_c, 0, 78, 64
2, 32520, Note_on_c, 0, 79, 127
2, 32577, Note_off_c, 0, 79, 64
2, 32580, Note_on_c, 0, 78, 127
2, 32628, Note_off_c, 0, 78, 64
2, 32640, Note_on_c, 0, 76, 127
2, 32736, Note_off_c, 0, 76, 64
2, 32760, Note_on_c, 0, 75, 127
2, 32856, Note_off_c, 0, 75, 64
2, 32880, Note_on_c, 0, 76, 127
2, 32976, Note_off_c, 0, 76, 64
2, 33120, Note_on_c, 0, 68, 127
2, 33264, Note_off_c, 0, 68, 64
2, 33300, Note_on_c, 0, 69, 127
2, 33324, Note_off_c, 0, 69, 64
2, 33330, Note_on_c, 0, 71, 127
2, 33354, Note_off_c, 0, 71, 64
2, 33360, Note_on_c, 0, 69, 127
2, 33384, Note_off_c, 0, 69, 64
2, 33390, Note_on_c, 0, 68, 127
2, 33414, Note_off_c, 0, 68, 64
2, 33420, Note_on_c, 0, 66, 127
2, 33444, Note_off_c, 0, 66, 64
2, 33450, Note_on_c, 0, 64, 127
2, 33474, Note_off_c, 0, 64, 64
2, 33480, Note_on_c, 0, 74, 127
2, 33504, Note_off_c, 0, 74, 64
2, 33510, Note_on_c, 0, 73, 127
2, 33534, Note_off_c, 0, 73, 64
2, 33540, Note_on_c, 0, 71, 127
2, 33588, Note_off_c, 0, 71, 64
2, 33600, Note_on_c, 0, 73, 127
2, 33696, Note_off_c, 0, 73, 64
2, 33840, Note_on_c, 0, 72, 127
2, 33864, Note_off_c, 0, 72, 64
2, 33870, Note_on_c, 0, 71, 127
2, 33894, Note_off_c, 0, 71, 64
2, 33900, Note_on_c, 0, 72, 127
2, 33996, Note_off_c, 0, 72, 64
2, 34020, Note_on_c, 0, 75, 127
2, 34116, Note_off_c, 0, 75, 64
2, 34140, Note_on_c, 0, 78, 127
2, 34188, Note_off_c, 0, 78, 64
2, 34200, Note_on_c, 0, 81, 127
2, 34248, Note_off_c, 0, 81, 64
2, 34260, Note_on_c, 0, 72, 127
2, 34308, Note_off_c, 0, 72, 64
2, 34320, Note_on_c, 0, 71, 127
2, 34464, Note_off_c, 0, 71, 64
2, 34500, Note_on_c, 0, 70, 127
2, 34548, Note_off_c, 0, 70, 64
2, 34560, Note_on_c, 0, 71, 127
2, 34584, Note_off_c, 0, 71, 64
2, 34590, Note_on_c, 0, 75, 127
2, 34614, Note_off_c, 0, 75, 64
2, 34620, Note_on_c, 0, 76, 127
2, 34668, Note_off_c, 0, 76, 64
2, 34680, Note_on_c, 0, 64, 127
2, 34728, Note_off_c, 0, 64, 64
2, 34740, Note_on_c, 0, 69, 127
2, 34836, Note_off_c, 0, 69, 64
2, 34860, Note_on_c, 0, 67, 127
2, 34884, Note_off_c, 0, 67, 64
2, 34890, Note_on_c, 0, 66, 127
2, 34914, Note_off_c, 0, 66, 64
2, 34920, Note_on_c, 0, 67, 127
2, 35016, Note_off_c, 0, 67, 64
2, 35160, Note_on_c, 0, 82, 127
2, 35328, Note_off_c, 0, 82, 64
2, 35340, Note_on_c, 0, 81, 127
2, 35436, Note_off_c, 0, 81, 64
2, 35460, Note_on_c, 0, 79, 127
2, 35544, Note_off_c, 0, 79, 64
2, 35550, Note_on_c, 0, 77, 127
2, 35574, Note_off_c, 0, 77, 64
2, 35580, Note_on_c, 0, 76, 127
2, 35628, Note_off_c, 0, 76, 64
2, 35640, Note_on_c, 0, 77, 127
2, 35664, Note_off_c, 0, 77, 64
2, 35670, Note_on_c, 0, 79, 127
2, 35694, Note_off_c, 0, 79, 64
2, 35700, Note_on_c, 0, 81, 127
2, 35748, Note_off_c, 0, 81, 64
2, 35880, Note_on_c, 0, 69, 127
2, 36048, Note_off_c, 0, 69, 64
2, 36060, Note_on_c, 0, 67, 127
2, 36156, Note_off_c, 0, 67, 64
2, 36180, Note_on_c, 0, 65, 127
2, 36264, Note_off_c, 0, 65, 64
2, 36270, Note_on_c, 0, 64, 127
2, 36294, Note_off_c, 0, 64, 64
2, 36300, Note_on_c, 0, 62, 127
2, 36348, Note_off_c, 0, 62, 64
2, 36360, Note_on_c, 0, 64, 127
2, 36384, Note_off_c, 0, 64, 64
2, 36390, Note_on_c, 0, 65, 127
2, 36414, Note_off_c, 0, 65, 64
2, 36420, Note_on_c, 0, 67, 127
2, 36468, Note_off_c, 0, 67, 64
2, 36600, Note_on_c, 0, 79, 127
2, 36749, Note_off_c, 0, 79, 64
2, 36750, Note_on_c, 0, 77, 127
2, 36779, Note_off_c, 0, 77, 64
2, 36780, Note_on_c, 0, 76, 127
2, 36837, Note_off_c, 0, 76, 64
2, 36840, Note_on_c, 0, 79, 127
2, 36869, Note_off_c, 0, 79, 64
2, 36870, Note_on_c, 0, 77, 127
2, 36899, Note_off_c, 0, 77, 64
2, 36900, Note_on_c, 0, 79, 127
2, 36929, Note_off_c, 0, 79, 64
2, 36930, Note_on_c, 0, 77, 127
2, 37104, Note_off_c, 0, 77, 64
2, 37140, Note_on_c, 0, 76, 127
2, 37164, Note_off_c, 0, 76, 64
2, 37170, Note_on_c, 0, 78, 127
2, 37194, Note_off_c, 0, 78, 64
2, 37200, Note_on_c, 0, 80, 127
2, 37224, Note_off_c, 0, 80, 64
2, 37230, Note_on_c, 0, 81, 127
2, 37254, Note_off_c, 0, 81, 64
2, 37260, Note_on_c, 0, 83, 127
2, 37308, Note_off_c, 0, 83, 64
2, 37440, Note_on_c, 0, 76, 127
2, 37536, Note_off_c, 0, 76, 64
2, 37560, Note_on_c, 0, 83, 127
2, 37584, Note_off_c, 0, 83, 64
2, 37590, Note_on_c, 0, 81, 127
2, 37614, Note_off_c, 0, 81, 64
2, 37620, Note_on_c, 0, 83, 127
2, 37644, Note_off_c, 0, 83, 64
2, 37650, Note_on_c, 0, 81, 127
2, 37704, Note_off_c, 0, 81, 64
2, 37710, Note_on_c, 0, 79, 127
2, 37734, Note_off_c, 0, 79, 64
2, 37740, Note_on_c, 0, 78, 127
2, 37788, Note_off_c, 0, 78, 64
2, 37800, Note_on_c, 0, 79, 127
2, 37824, Note_off_c, 0, 79, 64
2, 37830, Note_on_c, 0, 78, 127
2, 37854, Note_off_c, 0, 78, 64
2, 37860, Note_on_c, 0, 79, 127
2, 37917, Note_off_c, 0, 79, 64
2, 37920, Note_on_c, 0, 69, 127
2, 38184, Note_off_c, 0, 69, 64
2, 38190, Note_on_c, 0, 67, 127
2, 38214, Note_off_c, 0, 67, 64
2, 38220, Note_on_c, 0, 66, 127
2, 38268, Note_off_c, 0, 66, 64
2, 38280, Note_on_c, 0, 67, 127
2, 38304, Note_off_c, 0, 67, 64
2, 38310, Note_on_c, 0, 66, 127
2, 38334, Note_off_c, 0, 66, 64
2, 38340, Note_on_c, 0, 67, 127
2, 38388, Note_off_c, 0, 67, 64
2, 38400, Note_on_c, 0, 67, 127
2, 38664, Note_off_c, 0, 67, 64
2, 38700, Note_on_c, 0, 66, 127
2, 38724, Note_off_c, 0, 66, 64
2, 38730, Note_on_c, 0, 64, 127
2, 38754, Note_off_c, 0, 64, 64
2, 38760, Note_on_c, 0, 66, 127
2, 38784, Note_off_c, 0, 66, 64
2, 38790, Note_on_c, 0, 68, 127
2, 38814, Note_off_c, 0, 68, 64
2, 38820, Note_on_c, 0, 69, 127
2, 38868, Note_off_c, 0, 69, 64
2, 38880, Note_on_c, 0, 71, 127
2, 39024, Note_off_c, 0, 71, 64
2, 39060, Note_on_c, 0, 69, 127
2, 39084, Note_off_c, 0, 69, 64
2, 39090, Note_on_c, 0, 68, 127
2, 39114, Note_off_c, 0, 68, 64
2, 39120, Note_on_c, 0, 69, 127
2, 39144, Note_off_c, 0, 69, 64
2, 39150, Note_on_c, 0, 71, 127
2, 39174, Note_off_c, 0, 71, 64
2, 39180, Note_on_c, 0, 72, 127
2, 39228, Note_off_c, 0, 72, 64
2, 39240, Note_on_c, 0, 75, 127
2, 39384, Note_off_c, 0, 75, 64
2, 39420, Note_on_c, 0, 76, 127
2, 39444, Note_off_c, 0, 76, 64
2, 39450, Note_on_c, 0, 75, 127
2, 39474, Note_off_c, 0, 75, 64
2, 39480, Note_on_c, 0, 76, 127
2, 39504, Note_off_c, 0, 76, 64
2, 39510, Note_on_c, 0, 78, 127
2, 39534, Note_off_c, 0, 78, 64
2, 39540, Note_on_c, 0, 79, 127
2, 39588, Note_off_c, 0, 79, 64
2, 39600, Note_on_c, 0, 73, 127
2, 39744, Note_off_c, 0, 73, 64
2, 39780, Note_on_c, 0, 74, 127
2, 39804, Note_off_c, 0, 74, 64
2, 39810, Note_on_c, 0, 76, 127
2, 39834, Note_off_c, 0, 76, 64
2, 39840, Note_on_c, 0, 74, 127
2, 39864, Note_off_c, 0, 74, 64
2, 39870, Note_on_c, 0, 72, 127
2, 39894, Note_off_c, 0, 72, 64
2, 39900, Note_on_c, 0, 71, 127
2, 39948, Note_off_c, 0, 71, 64
2, 39960, Note_on_c, 0, 72, 127
2, 40104, Note_off_c, 0, 72, 64
2, 40140, Note_on_c, 0, 71, 127
2, 40164, Note_off_c, 0, 71, 64
2, 40170, Note_on_c, 0, 70, 127
2, 40194, Note_off_c, 0, 70, 64
2, 40200, Note_on_c, 0, 71, 127
2, 40224, Note_off_c, 0, 71, 64
2, 40230, Note_on_c, 0, 75, 127
2, 40254, Note_off_c, 0, 75, 64
2, 40260, Note_on_c, 0, 76, 127
2, 40308, Note_off_c, 0, 76, 64
2, 40320, Note_on_c, 0, 64, 127
2, 40410, Note_off_c, 0, 64, 64
2, 40440, Note_on_c, 0, 69, 127
2, 40530, Note_off_c, 0, 69, 64
2, 40560, Note_on_c, 0, 67, 127
2, 40584, Note_off_c, 0, 67, 64
2, 40590, Note_on_c, 0, 66, 127
2, 40614, Note_off_c, 0, 66, 64
2, 40620, Note_on_c, 0, 67, 127
2, 40644, Note_off_c, 0, 67, 64
2, 40650, Note_on_c, 0, 66, 127
2, 40679, Note_off_c, 0, 66, 64
2, 40680, Note_on_c, 0, 64, 127
2, 40872, Note_off_c, 0, 64, 64
2, 42360, Note_on_c, 0, 71, 127
2, 42456, Note_off_c, 0, 71, 64
2, 42480, Note_on_c, 0, 69, 127
2, 42528, Note_off_c, 0, 69, 64
2, 42540, Note_on_c, 0, 68, 127
2, 42653, Note_off_c, 0, 68, 64
2, 42660, Note_on_c, 0, 64, 127
2, 42684, Note_off_c, 0, 64, 64
2, 42690, Note_on_c, 0, 66, 127
2, 42714, Note_off_c, 0, 66, 64
2, 42720, Note_on_c, 0, 68, 127
2, 42744, Note_off_c, 0, 68, 64
2, 42750, Note_on_c, 0, 69, 127
2, 42774, Note_off_c, 0, 69, 64
2, 42780, Note_on_c, 0, 71, 127
2, 42837, Note_off_c, 0, 71, 64
2, 42840, Note_on_c, 0, 74, 127
2, 42984, Note_off_c, 0, 74, 64
2, 43020, Note_on_c, 0, 68, 127
2, 43044, Note_off_c, 0, 68, 64
2, 43050, Note_on_c, 0, 69, 127
2, 43074, Note_off_c, 0, 69, 64
2, 43080, Note_on_c, 0, 71, 127
2, 43104, Note_off_c, 0, 71, 64
2, 43110, Note_on_c, 0, 72, 127
2, 43134, Note_off_c, 0, 72, 64
2, 43140, Note_on_c, 0, 74, 127
2, 43188, Note_off_c, 0, 74, 64
2, 43200, Note_on_c, 0, 77, 127
2, 43248, Note_off_c, 0, 77, 64
2, 43260, Note_on_c, 0, 76, 127
2, 43356, Note_off_c, 0, 76, 64
2, 43380, Note_on_c, 0, 74, 127
2, 43404, Note_off_c, 0, 74, 64
2, 43410, Note_on_c, 0, 72, 127
2, 43434, Note_off_c, 0, 72, 64
2, 43440, Note_on_c, 0, 71, 127
2, 43464, Note_off_c, 0, 71, 64
2, 43470, Note_on_c, 0, 72, 127
2, 43494, Note_off_c, 0, 72, 64
2, 43500, Note_on_c, 0, 74, 127
2, 43608, Note_off_c, 0, 74, 64
2, 43620, Note_on_c, 0, 72, 127
2, 43716, Note_off_c, 0, 72, 64
2, 43740, Note_on_c, 0, 71, 127
2, 43764, Note_off_c, 0, 71, 64
2, 43770, Note_on_c, 0, 69, 127
2, 43794, Note_off_c, 0, 69, 64
2, 43800, Note_on_c, 0, 68, 127
2, 43824, Note_off_c, 0, 68, 64
2, 43830, Note_on_c, 0, 69, 127
2, 43854, Note_off_c, 0, 69, 64
2, 43860, Note_on_c, 0, 71, 127
2, 43908, Note_off_c, 0, 71, 64
2, 43920, Note_on_c, 0, 69, 127
2, 44016, Note_off_c, 0, 69, 64
2, 44160, Note_on_c, 0, 76, 127
2, 44304, Note_off_c, 0, 76, 64
2, 44310, Note_on_c, 0, 70, 127
2, 44334, Note_off_c, 0, 70, 64
2, 44340, Note_on_c, 0, 69, 127
2, 44364, Note_off_c, 0, 69, 64
2, 44370, Note_on_c, 0, 67, 127
2, 44394, Note_off_c, 0, 67, 64
2, 44400, Note_on_c, 0, 69, 127
2, 44423, Note_off_c, 0, 69, 64
2, 44430, Note_on_c, 0, 75, 127
2, 44454, Note_off_c, 0, 75, 64
2, 44460, Note_on_c, 0, 74, 127
2, 44484, Note_off_c, 0, 74, 64
2, 44490, Note_on_c, 0, 73, 127
2, 44514, Note_off_c, 0, 73, 64
2, 44520, Note_on_c, 0, 74, 127
2, 44543, Note_off_c, 0, 74, 64
2, 44550, Note_on_c, 0, 82, 127
2, 44574, Note_off_c, 0, 82, 64
2, 44580, Note_on_c, 0, 81, 127
2, 44604, Note_off_c, 0, 81, 64
2, 44610, Note_on_c, 0, 80, 127
2, 44634, Note_off_c, 0, 80, 64
2, 44640, Note_on_c, 0, 81, 127
2, 44730, Note_off_c, 0, 81, 64
2, 44760, Note_on_c, 0, 75, 127
2, 44850, Note_off_c, 0, 75, 64
2, 44880, Note_on_c, 0, 78, 127
2, 45024, Note_off_c, 0, 78, 64
2, 45030, Note_on_c, 0, 72, 127
2, 45054, Note_off_c, 0, 72, 64
2, 45060, Note_on_c, 0, 71, 127
2, 45084, Note_off_c, 0, 71, 64
2, 45090, Note_on_c, 0, 69, 127
2, 45114, Note_off_c, 0, 69, 64
2, 45120, Note_on_c, 0, 71, 127
2, 45143, Note_off_c, 0, 71, 64
2, 45150, Note_on_c, 0, 77, 127
2, 45174, Note_off_c, 0, 77, 64
2, 45180, Note_on_c, 0, 76, 127
2, 45204, Note_off_c, 0, 76, 64
2, 45210, Note_on_c, 0, 75, 127
2, 45234, Note_off_c, 0, 75, 64
2, 45240, Note_on_c, 0, 76, 127
2, 45263, Note_off_c, 0, 76, 64
2, 45270, Note_on_c, 0, 84, 127
2, 45294, Note_off_c, 0, 84, 64
2, 45300, Note_on_c, 0, 83, 127
2, 45324, Note_off_c, 0, 83, 64
2, 45330, Note_on_c, 0, 82, 127
2, 45354, Note_off_c, 0, 82, 64
2, 45360, Note_on_c, 0, 83, 127
2, 45456, Note_off_c, 0, 83, 64
2, 45540, Note_on_c, 0, 77, 127
2, 45564, Note_off_c, 0, 77, 64
2, 45570, Note_on_c, 0, 76, 127
2, 45594, Note_off_c, 0, 76, 64
2, 45600, Note_on_c, 0, 74, 127
2, 45624, Note_off_c, 0, 74, 64
2, 45630, Note_on_c, 0, 72, 127
2, 45654, Note_off_c, 0, 72, 64
2, 45660, Note_on_c, 0, 71, 127
2, 45684, Note_off_c, 0, 71, 64
2, 45690, Note_on_c, 0, 69, 127
2, 45714, Note_off_c, 0, 69, 64
2, 45720, Note_on_c, 0, 69, 127
2, 45732, Note_off_c, 0, 69, 64
2, 45735, Note_on_c, 0, 68, 127
2, 45747, Note_off_c, 0, 68, 64
2, 45750, Note_on_c, 0, 69, 127
2, 45762, Note_off_c, 0, 69, 64
2, 45765, Note_on_c, 0, 68, 127
2, 45777, Note_off_c, 0, 68, 64
2, 45780, Note_on_c, 0, 69, 127
2, 45792, Note_off_c, 0, 69, 64
2, 45795, Note_on_c, 0, 68, 127
2, 45807, Note_off_c, 0, 68, 64
2, 45810, Note_on_c, 0, 69, 127
2, 45822, Note_off_c, 0, 69, 64
2, 45825, Note_on_c, 0, 68, 127
2, 45837, Note_off_c, 0, 68, 64
2, 45840, Note_on_c, 0, 69, 127
2, 45852, Note_off_c, 0, 69, 64
2, 45855, Note_on_c, 0, 68, 127
2, 45867, Note_off_c, 0, 68, 64
2, 45870, Note_on_c, 0, 69, 127
2, 45882, Note_off_c, 0, 69, 64
2, 45885, Note_on_c, 0, 68, 127
2, 45897, Note_off_c, 0, 68, 64
2, 45900, Note_on_c, 0, 69, 127
2, 45912, Note_off_c, 0, 69, 64
2, 45915, Note_on_c, 0, 68, 127
2, 45927, Note_off_c, 0, 68, 64
2, 45930, Note_on_c, 0, 69, 127
2, 45942, Note_off_c, 0, 69, 64
2, 45945, Note_on_c, 0, 68, 127
2, 45957, Note_off_c, 0, 68, 64
2, 45960, Note_on_c, 0, 69, 127
2, 45972, Note_off_c, 0, 69, 64
2, 45975, Note_on_c, 0, 68, 127
2, 45987, Note_off_c, 0, 68, 64
2, 45990, Note_on_c, 0, 69, 127
2, 46002, Note_off_c, 0, 69, 64
2, 46005, Note_on_c, 0, 68, 127
2, 46017, Note_off_c, 0, 68, 64
2, 46020, Note_on_c, 0, 69, 127
2, 46032, Note_off_c, 0, 69, 64
2, 46035, Note_on_c, 0, 68, 127
2, 46047, Note_off_c, 0, 68, 64
2, 46050, Note_on_c, 0, 69, 127
2, 46062, Note_off_c, 0, 69, 64
2, 46065, Note_on_c, 0, 68, 127
2, 46077, Note_off_c, 0, 68, 64
2, 46080, Note_on_c, 0, 68, 127
2, 46104, Note_off_c, 0, 68, 64
2, 46110, Note_on_c, 0, 71, 127
2, 46134, Note_off_c, 0, 71, 64
2, 46140, Note_on_c, 0, 69, 127
2, 46164, Note_off_c, 0, 69, 64
2, 46170, Note_on_c, 0, 68, 127
2, 46194, Note_off_c, 0, 68, 64
2, 46200, Note_on_c, 0, 69, 127
2, 46224, Note_off_c, 0, 69, 64
2, 46230, Note_on_c, 0, 73, 127
2, 46254, Note_off_c, 0, 73, 64
2, 46260, Note_on_c, 0, 76, 127
2, 46284, Note_off_c, 0, 76, 64
2, 46290, Note_on_c, 0, 80, 127
2, 46314, Note_off_c, 0, 80, 64
2, 46320, Note_on_c, 0, 81, 127
2, 46536, Note_off_c, 0, 81, 64
2, 46560, Note_on_c, 0, 79, 127
2, 46650, Note_off_c, 0, 79, 64
2, 49560, Note_on_c, 0, 69, 127
2, 49656, Note_off_c, 0, 69, 64
2, 49680, Note_on_c, 0, 76, 127
2, 49728, Note_off_c, 0, 76, 64
2, 49740, Note_on_c, 0, 78, 127
2, 49788, Note_off_c, 0, 78, 64
2, 49800, Note_on_c, 0, 79, 127
2, 49857, Note_off_c, 0, 79, 64
2, 49860, Note_on_c, 0, 78, 127
2, 49908, Note_off_c, 0, 78, 64
2, 49920, Note_on_c, 0, 76, 127
2, 50016, Note_off_c, 0, 76, 64
2, 50040, Note_on_c, 0, 75, 127
2, 50136, Note_off_c, 0, 75, 64
2, 50160, Note_on_c, 0, 76, 127
2, 50256, Note_off_c, 0, 76, 64
2, 50400, Note_on_c, 0, 68, 127
2, 50544, Note_off_c, 0, 68, 64
2, 50580, Note_on_c, 0, 69, 127
2, 50604, Note_off_c, 0, 69, 64
2, 50610, Note_on_c, 0, 71, 127
2, 50634, Note_off_c, 0, 71, 64
2, 50640, Note_on_c, 0, 69, 127
2, 50664, Note_off_c, 0, 69, 64
2, 50670, Note_on_c, 0, 68, 127
2, 50694, Note_off_c, 0, 68, 64
2, 50700, Note_on_c, 0, 66, 127
2, 50724, Note_off_c, 0, 66, 64
2, 50730, Note_on_c, 0, 64, 127
2, 50754, Note_off_c, 0, 64, 64
2, 50760, Note_on_c, 0, 74, 127
2, 50784, Note_off_c, 0, 74, 64
2, 50790, Note_on_c, 0, 73, 127
2, 50814, Note_off_c, 0, 73, 64
2, 50820, Note_on_c, 0, 71, 127
2, 50868, Note_off_c, 0, 71, 64
2, 50880, Note_on_c, 0, 73, 127
2, 50976, Note_off_c, 0, 73, 64
2, 51120, Note_on_c, 0, 72, 127
2, 51144, Note_off_c, 0, 72, 64
2, 51150, Note_on_c, 0, 71, 127
2, 51174, Note_off_c, 0, 71, 64
2, 51180, Note_on_c, 0, 72, 127
2, 51276, Note_off_c, 0, 72, 64
2, 51300, Note_on_c, 0, 75, 127
2, 51396, Note_off_c, 0, 75, 64
2, 51420, Note_on_c, 0, 78, 127
2, 51468, Note_off_c, 0, 78, 64
2, 51480, Note_on_c, 0, 81, 127
2, 51528, Note_off_c, 0, 81, 64
2, 51540, Note_on_c, 0, 72, 127
2, 51588, Note_off_c, 0, 72, 64
2, 51600, Note_on_c, 0, 71, 127
2, 51744, Note_off_c, 0, 71, 64
2, 51780, Note_on_c, 0, 70, 127
2, 51828, Note_off_c, 0, 70, 64
2, 51840, Note_on_c, 0, 71, 127
2, 51864, Note_off_c, 0, 71, 64
2, 51870, Note_on_c, 0, 75, 127
2, 51894, Note_off_c, 0, 75, 64
2, 51900, Note_on_c, 0, 76, 127
2, 51948, Note_off_c, 0, 76, 64
2, 51960, Note_on_c, 0, 64, 127
2, 52008, Note_off_c, 0, 64, 64
2, 52020, Note_on_c, 0, 69, 127
2, 52116, Note_off_c, 0, 69, 64
2, 52140, Note_on_c, 0, 67, 127
2, 52164, Note_off_c, 0, 67, 64
2, 52170, Note_on_c, 0, 66, 127
2, 52194, Note_off_c, 0, 66, 64
2, 52200, Note_on_c, 0, 67, 127
2, 52296, Note_off_c, 0, 67, 64
2, 52440, Note_on_c, 0, 82, 127
2, 52608, Note_off_c, 0, 82, 64
2, 52620, Note_on_c, 0, 81, 127
2, 52716, Note_off_c, 0, 81, 64
2, 52740, Note_on_c, 0, 79, 127
2, 52824, Note_off_c, 0, 79, 64
2, 52830, Note_on_c, 0, 77, 127
2, 52854, Note_off_c, 0, 77, 64
2, 52860, Note_on_c, 0, 76, 127
2, 52908, Note_off_c, 0, 76, 64
2, 52920, Note_on_c, 0, 77, 127
2, 52944, Note_off_c, 0, 77, 64
2, 52950, Note_on_c, 0, 79, 127
2, 52974, Note_off_c, 0, 79, 64
2, 52980, Note_on_c, 0, 81, 127
2, 53028, Note_off_c, 0, 81, 64
2, 53160, Note_on_c, 0, 69, 127
2, 53328, Note_off_c, 0, 69, 64
2, 53340, Note_on_c, 0, 67, 127
2, 53436, Note_off_c, 0, 67, 64
2, 53460, Note_on_c, 0, 65, 127
2, 53544, Note_off_c, 0, 65, 64
2, 53550, Note_on_c, 0, 64, 127
2, 53574, Note_off_c, 0, 64, 64
2, 53580, Note_on_c, 0, 62, 127
2, 53628, Note_off_c, 0, 62, 64
2, 53640, Note_on_c, 0, 64, 127
2, 53664, Note_off_c, 0, 64, 64
2, 53670, Note_on_c, 0, 65, 127
2, 53694, Note_off_c, 0, 65, 64
2, 53700, Note_on_c, 0, 67, 127
2, 53748, Note_off_c, 0, 67, 64
2, 53880, Note_on_c, 0, 79, 127
2, 54029, Note_off_c, 0, 79, 64
2, 54030, Note_on_c, 0, 77, 127
2, 54059, Note_off_c, 0, 77, 64
2, 54060, Note_on_c, 0, 76, 127
2, 54117, Note_off_c, 0, 76, 64
2, 54120, Note_on_c, 0, 79, 127
2, 54149, Note_off_c, 0, 79, 64
2, 54150, Note_on_c, 0, 77, 127
2, 54179, Note_off_c, 0, 77, 64
2, 54180, Note_on_c, 0, 79, 127
2, 54209, Note_off_c, 0, 79, 64
2, 54210, Note_on_c, 0, 77, 127
2, 54384, Note_off_c, 0, 77, 64
2, 54420, Note_on_c, 0, 76, 127
2, 54444, Note_off_c, 0, 76, 64
2, 54450, Note_on_c, 0, 78, 127
2, 54474, Note_off_c, 0, 78, 64
2, 54480, Note_on_c, 0, 80, 127
2, 54504, Note_off_c, 0, 80, 64
2, 54510, Note_on_c, 0, 81, 127
2, 54534, Note_off_c, 0, 81, 64
2, 54540, Note_on_c, 0, 83, 127
2, 54588, Note_off_c, 0, 83, 64
2, 54720, Note_on_c, 0, 76, 127
2, 54816, Note_off_c, 0, 76, 64
2, 54840, Note_on_c, 0, 83, 127
2, 54864, Note_off_c, 0, 83, 64
2, 54870, Note_on_c, 0, 81, 127
2, 54894, Note_off_c, 0, 81, 64
2, 54900, Note_on_c, 0, 83, 127
2, 54924, Note_off_c, 0, 83, 64
2, 54930, Note_on_c, 0, 81, 127
2, 54984, Note_off_c, 0, 81, 64
2, 54990, Note_on_c, 0, 79, 127
2, 55014, Note_off_c, 0, 79, 64
2, 55020, Note_on_c, 0, 78, 127
2, 55068, Note_off_c, 0, 78, 64
2, 55080, Note_on_c, 0, 79, 127
2, 55104, Note_off_c, 0, 79, 64
2, 55110, Note_on_c, 0, 78, 127
2, 55134, Note_off_c, 0, 78, 64
2, 55140, Note_on_c, 0, 79, 127
2, 55197, Note_off_c, 0, 79, 64
2, 55200, Note_on_c, 0, 69, 127
2, 55464, Note_off_c, 0, 69, 64
2, 55470, Note_on_c, 0, 67, 127
2, 55494, Note_off_c, 0, 67, 64
2, 55500, Note_on_c, 0, 66, 127
2, 55548, Note_off_c, 0, 66, 64
2, 55560, Note_on_c, 0, 67, 127
2, 55584, Note_off_c, 0, 67, 64
2, 55590, Note_on_c, 0, 66, 127
2, 55614, Note_off_c, 0, 66, 64
2, 55620, Note_on_c, 0, 67, 127
2, 55668, Note_off_c, 0, 67, 64
2, 55680, Note_on_c, 0, 67, 127
2, 55944, Note_off_c, 0, 67, 64
2, 55980, Note_on_c, 0, 66, 127
2, 56004, Note_off_c, 0, 66, 64
2, 56010, Note_on_c, 0, 64, 127
2, 56034, Note_off_c, 0, 64, 64
2, 56040, Note_on_c, 0, 66, 127
2, 56064, Note_off_c, 0, 66, 64
2, 56070, Note_on_c, 0, 68, 127
2, 56094, Note_off_c, 0, 68, 64
2, 56100, Note_on_c, 0, 69, 127
2, 56148, Note_off_c, 0, 69, 64
2, 56160, Note_on_c, 0, 71, 127
2, 56304, Note_off_c, 0, 71, 64
2, 56340, Note_on_c, 0, 69, 127
2, 56364, Note_off_c, 0, 69, 64
2, 56370, Note_on_c, 0, 68, 127
2, 56394, Note_off_c, 0, 68, 64
2, 56400, Note_on_c, 0, 69, 127
2, 56424, Note_off_c, 0, 69, 64
2, 56430, Note_on_c, 0, 71, 127
2, 56454, Note_off_c, 0, 71, 64
2, 56460, Note_on_c, 0, 72, 127
2, 56508, Note_off_c, 0, 72, 64
2, 56520, Note_on_c, 0, 75, 127
2, 56664, Note_off_c, 0, 75, 64
2, 56700, Note_on_c, 0, 76, 127
2, 56724, Note_off_c, 0, 76, 64
2, 56730, Note_on_c, 0, 75, 127
2, 56754, Note_off_c, 0, 75, 64
2, 56760, Note_on_c, 0, 76, 127
2, 56784, Note_off_c, 0, 76, 64
2, 56790, Note_on_c, 0, 78, 127
2, 56814, Note_off_c, 0, 78, 64
2, 56820, Note_on_c, 0, 79, 127
2, 56868, Note_off_c, 0, 79, 64
2, 56880, Note_on_c, 0, 73, 127
2, 57024, Note_off_c, 0, 73, 64
2, 57060, Note_on_c, 0, 74, 127
2, 57084, Note_off_c, 0, 74, 64
2, 57090, Note_on_c, 0, 76, 127
2, 57114, Note_off_c, 0, 76, 64
2, 57120, Note_on_c, 0, 74, 127
2, 57144, Note_off_c, 0, 74, 64
2, 57150, Note_on_c, 0, 72, 127
2, 57174, Note_off_c, 0, 72, 64
2, 57180, Note_on_c, 0, 71, 127
2, 57228, Note_off_c, 0, 71, 64
2, 57240, Note_on_c, 0, 72, 127
2, 57384, Note_off_c, 0, 72, 64
2, 57420, Note_on_c, 0, 71, 127
2, 57444, Note_off_c, 0, 71, 64
2, 57450, Note_on_c, 0, 70, 127
2, 57474, Note_off_c, 0, 70, 64
2, 57480, Note_on_c, 0, 71, 127
2, 57504, Note_off_c, 0, 71, 64
2, 57510, Note_on_c, 0, 75, 127
2, 57534, Note_off_c, 0, 75, 64
2, 57540, Note_on_c, 0, 76, 127
2, 57588, Note_off_c, 0, 76, 64
2, 57600, Note_on_c, 0, 64, 127
2, 57690, Note_off_c, 0, 64, 64
2, 57720, Note_on_c, 0, 69, 127
2, 57810, Note_off_c, 0, 69, 64
2, 57840, Note_on_c, 0, 67, 127
2, 57864, Note_off_c, 0, 67, 64
2, 57870, Note_on_c, 0, 66, 127
2, 57894, Note_off_c, 0, 66, 64
2, 57900, Note_on_c, 0, 67, 127
2, 57924, Note_off_c, 0, 67, 64
2, 57930, Note_on_c, 0, 66, 127
2, 57959, Note_off_c, 0, 66, 64
2, 57960, Note_on_c, 0, 64, 127
2, 58248, Note_off_c, 0, 64, 64
2, 58248, End_track
3, 0, Start_track
3, 0, Title_t, "J.S. Bach, Edition Peters"
3, 0, Program_c, 1, 19
3, 0, Control_c, 1, 7, 127
3, 2880, Note_on_c, 1, 64, 127
3, 2976, Note_off_c, 1, 64, 64
3, 3000, Note_on_c, 1, 71, 127
3, 3048, Note_off_c, 1, 71, 64
3, 3060, Note_on_c, 1, 73, 127
3, 3108, Note_off_c, 1, 73, 64
3, 3120, Note_on_c, 1, 74, 127
3, 3177, Note_off_c, 1, 74, 64
3, 3180, Note_on_c, 1, 73, 127
3, 3228, Note_off_c, 1, 73, 64
3, 3240, Note_on_c, 1, 71, 127
3, 3336, Note_off_c, 1, 71, 64
3, 3360, Note_on_c, 1, 71, 127
3, 3417, Note_off_c, 1, 71, 64
3, 3420, Note_on_c, 1, 70, 127
3, 3465, Note_off_c, 1, 70, 64
3, 3480, Note_on_c, 1, 71, 127
3, 3570, Note_off_c, 1, 71, 64
3, 3720, Note_on_c, 1, 64, 127
3, 3768, Note_off_c, 1, 64, 64
3, 3780, Note_on_c, 1, 63, 127
3, 3893, Note_off_c, 1, 63, 64
3, 3900, Note_on_c, 1, 64, 127
3, 3929, Note_off_c, 1, 64, 64
3, 3930, Note_on_c, 1, 66, 127
3, 3959, Note_off_c, 1, 66, 64
3, 3960, Note_on_c, 1, 64, 127
3, 3989, Note_off_c, 1, 64, 64
3, 3990, Note_on_c, 1, 63, 127
3, 4019, Note_off_c, 1, 63, 64
3, 4020, Note_on_c, 1, 61, 127
3, 4049, Note_off_c, 1, 61, 64
3, 4050, Note_on_c, 1, 59, 127
3, 4079, Note_off_c, 1, 59, 64
3, 4080, Note_on_c, 1, 69, 127
3, 4109, Note_off_c, 1, 69, 64
3, 4110, Note_on_c, 1, 68, 127
3, 4139, Note_off_c, 1, 68, 64
3, 4140, Note_on_c, 1, 66, 127
3, 4197, Note_off_c, 1, 66, 64
3, 4200, Note_on_c, 1, 68, 127
3, 4290, Note_off_c, 1, 68, 64
3, 4440, Note_on_c, 1, 69, 127
3, 4469, Note_off_c, 1, 69, 64
3, 4470, Note_on_c, 1, 67, 127
3, 4485, Note_off_c, 1, 67, 64
3, 4485, Note_on_c, 1, 66, 127
3, 4500, Note_off_c, 1, 66, 64
3, 4500, Note_on_c, 1, 67, 127
3, 4596, Note_off_c, 1, 67, 64
3, 4620, Note_on_c, 1, 70, 127
3, 4716, Note_off_c, 1, 70, 64
3, 4740, Note_on_c, 1, 73, 127
3, 4788, Note_off_c, 1, 73, 64
3, 4800, Note_on_c, 1, 76, 127
3, 4848, Note_off_c, 1, 76, 64
3, 4860, Note_on_c, 1, 67, 127
3, 4908, Note_off_c, 1, 67, 64
3, 4920, Note_on_c, 1, 66, 127
3, 5064, Note_off_c, 1, 66, 64
3, 5100, Note_on_c, 1, 65, 127
3, 5148, Note_off_c, 1, 65, 64
3, 5160, Note_on_c, 1, 66, 127
3, 5184, Note_off_c, 1, 66, 64
3, 5190, Note_on_c, 1, 70, 127
3, 5214, Note_off_c, 1, 70, 64
3, 5220, Note_on_c, 1, 71, 127
3, 5268, Note_off_c, 1, 71, 64
3, 5280, Note_on_c, 1, 59, 127
3, 5328, Note_off_c, 1, 59, 64
3, 5340, Note_on_c, 1, 64, 127
3, 5436, Note_off_c, 1, 64, 64
3, 5460, Note_on_c, 1, 62, 127
3, 5484, Note_off_c, 1, 62, 64
3, 5490, Note_on_c, 1, 61, 127
3, 5514, Note_off_c, 1, 61, 64
3, 5520, Note_on_c, 1, 62, 127
3, 5616, Note_off_c, 1, 62, 64
3, 5760, Note_on_c, 1, 77, 127
3, 5928, Note_off_c, 1, 77, 64
3, 5940, Note_on_c, 1, 76, 127
3, 6036, Note_off_c, 1, 76, 64
3, 6060, Note_on_c, 1, 74, 127
3, 6144, Note_off_c, 1, 74, 64
3, 6150, Note_on_c, 1, 72, 127
3, 6174, Note_off_c, 1, 72, 64
3, 6180, Note_on_c, 1, 71, 127
3, 6228, Note_off_c, 1, 71, 64
3, 6240, Note_on_c, 1, 72, 127
3, 6264, Note_off_c, 1, 72, 64
3, 6270, Note_on_c, 1, 74, 127
3, 6294, Note_off_c, 1, 74, 64
3, 6300, Note_on_c, 1, 76, 127
3, 6348, Note_off_c, 1, 76, 64
3, 6480, Note_on_c, 1, 64, 127
3, 6648, Note_off_c, 1, 64, 64
3, 6660, Note_on_c, 1, 62, 127
3, 6756, Note_off_c, 1, 62, 64
3, 6780, Note_on_c, 1, 60, 127
3, 6864, Note_off_c, 1, 60, 64
3, 6870, Note_on_c, 1, 59, 127
3, 6894, Note_off_c, 1, 59, 64
3, 6900, Note_on_c, 1, 57, 127
3, 6948, Note_off_c, 1, 57, 64
3, 6960, Note_on_c, 1, 59, 127
3, 6984, Note_off_c, 1, 59, 64
3, 6990, Note_on_c, 1, 60, 127
3, 7014, Note_off_c, 1, 60, 64
3, 7020, Note_on_c, 1, 62, 127
3, 7068, Note_off_c, 1, 62, 64
3, 7200, Note_on_c, 1, 74, 127
3, 7344, Note_off_c, 1, 74, 64
3, 7350, Note_on_c, 1, 72, 127
3, 7374, Note_off_c, 1, 72, 64
3, 7380, Note_on_c, 1, 71, 127
3, 7428, Note_off_c, 1, 71, 64
3, 7440, Note_on_c, 1, 71, 127
3, 7455, Note_off_c, 1, 71, 64
3, 7500, Note_on_c, 1, 72, 127
3, 7824, Note_off_c, 1, 72, 64
3, 7860, Note_on_c, 1, 71, 127
3, 7884, Note_off_c, 1, 71, 64
3, 7890, Note_on_c, 1, 73, 127
3, 7914, Note_off_c, 1, 73, 64
3, 7920, Note_on_c, 1, 75, 127
3, 7944, Note_off_c, 1, 75, 64
3, 7950, Note_on_c, 1, 76, 127
3, 7974, Note_off_c, 1, 76, 64
3, 7980, Note_on_c, 1, 78, 127
3, 8028, Note_off_c, 1, 78, 64
3, 8040, Note_on_c, 1, 71, 127
3, 8136, Note_off_c, 1, 71, 64
3, 8160, Note_on_c, 1, 76, 127
3, 8424, Note_off_c, 1, 76, 64
3, 8430, Note_on_c, 1, 74, 127
3, 8454, Note_off_c, 1, 74, 64
3, 8460, Note_on_c, 1, 73, 127
3, 8508, Note_off_c, 1, 73, 64
3, 8520, Note_on_c, 1, 74, 127
3, 8616, Note_off_c, 1, 74, 64
3, 8640, Note_on_c, 1, 64, 127
3, 8784, Note_off_c, 1, 64, 64
3, 8790, Note_on_c, 1, 62, 127
3, 8814, Note_off_c, 1, 62, 64
3, 8820, Note_on_c, 1, 61, 127
3, 8868, Note_off_c, 1, 61, 64
3, 8880, Note_on_c, 1, 62, 127
3, 9264, Note_off_c, 1, 62, 64
3, 9300, Note_on_c, 1, 61, 127
3, 9324, Note_off_c, 1, 61, 64
3, 9330, Note_on_c, 1, 59, 127
3, 9354, Note_off_c, 1, 59, 64
3, 9360, Note_on_c, 1, 61, 127
3, 9384, Note_off_c, 1, 61, 64
3, 9390, Note_on_c, 1, 63, 127
3, 9414, Note_off_c, 1, 63, 64
3, 9420, Note_on_c, 1, 64, 127
3, 9468, Note_off_c, 1, 64, 64
3, 9480, Note_on_c, 1, 66, 127
3, 9624, Note_off_c, 1, 66, 64
3, 9660, Note_on_c, 1, 64, 127
3, 9684, Note_off_c, 1, 64, 64
3, 9690, Note_on_c, 1, 63, 127
3, 9714, Note_off_c, 1, 63, 64
3, 9720, Note_on_c, 1, 64, 127
3, 9744, Note_off_c, 1, 64, 64
3, 9750, Note_on_c, 1, 66, 127
3, 9774, Note_off_c, 1, 66, 64
3, 9780, Note_on_c, 1, 67, 127
3, 9828, Note_off_c, 1, 67, 64
3, 9840, Note_on_c, 1, 70, 127
3, 9984, Note_off_c, 1, 70, 64
3, 10020, Note_on_c, 1, 71, 127
3, 10044, Note_off_c, 1, 71, 64
3, 10050, Note_on_c, 1, 70, 127
3, 10074, Note_off_c, 1, 70, 64
3, 10080, Note_on_c, 1, 71, 127
3, 10104, Note_off_c, 1, 71, 64
3, 10110, Note_on_c, 1, 73, 127
3, 10134, Note_off_c, 1, 73, 64
3, 10140, Note_on_c, 1, 74, 127
3, 10188, Note_off_c, 1, 74, 64
3, 10200, Note_on_c, 1, 68, 127
3, 10344, Note_off_c, 1, 68, 64
3, 10380, Note_on_c, 1, 69, 127
3, 10404, Note_off_c, 1, 69, 64
3, 10410, Note_on_c, 1, 71, 127
3, 10434, Note_off_c, 1, 71, 64
3, 10440, Note_on_c, 1, 69, 127
3, 10464, Note_off_c, 1, 69, 64
3, 10470, Note_on_c, 1, 67, 127
3, 10494, Note_off_c, 1, 67, 64
3, 10500, Note_on_c, 1, 66, 127
3, 10548, Note_off_c, 1, 66, 64
3, 10560, Note_on_c, 1, 67, 127
3, 10704, Note_off_c, 1, 67, 64
3, 10740, Note_on_c, 1, 66, 127
3, 10764, Note_off_c, 1, 66, 64
3, 10770, Note_on_c, 1, 65, 127
3, 10794, Note_off_c, 1, 65, 64
3, 10800, Note_on_c, 1, 66, 127
3, 10824, Note_off_c, 1, 66, 64
3, 10830, Note_on_c, 1, 70, 127
3, 10854, Note_off_c, 1, 70, 64
3, 10860, Note_on_c, 1, 71, 127
3, 10908, Note_off_c, 1, 71, 64
3, 10920, Note_on_c, 1, 59, 127
3, 11016, Note_off_c, 1, 59, 64
3, 11040, Note_on_c, 1, 64, 127
3, 11130, Note_off_c, 1, 64, 64
3, 11160, Note_on_c, 1, 62, 127
3, 11172, Note_off_c, 1, 62, 64
3, 11175, Note_on_c, 1, 61, 127
3, 11187, Note_off_c, 1, 61, 64
3, 11190, Note_on_c, 1, 62, 127
3, 11202, Note_off_c, 1, 62, 64
3, 11205, Note_on_c, 1, 61, 127
3, 11217, Note_off_c, 1, 61, 64
3, 11220, Note_on_c, 1, 62, 127
3, 11235, Note_off_c, 1, 62, 64
3, 11235, Note_on_c, 1, 61, 127
3, 11250, Note_off_c, 1, 61, 64
3, 11250, Note_on_c, 1, 62, 127
3, 11265, Note_off_c, 1, 62, 64
3, 11265, Note_on_c, 1, 61, 127
3, 11280, Note_off_c, 1, 61, 64
3, 11280, Note_on_c, 1, 59, 127
3, 11472, Note_off_c, 1, 59, 64
3, 14400, Note_on_c, 1, 64, 127
3, 14496, Note_off_c, 1, 64, 64
3, 14520, Note_on_c, 1, 71, 127
3, 14568, Note_off_c, 1, 71, 64
3, 14580, Note_on_c, 1, 73, 127
3, 14628, Note_off_c, 1, 73, 64
3, 14640, Note_on_c, 1, 74, 127
3, 14697, Note_off_c, 1, 74, 64
3, 14700, Note_on_c, 1, 73, 127
3, 14748, Note_off_c, 1, 73, 64
3, 14760, Note_on_c, 1, 71, 127
3, 14856, Note_off_c, 1, 71, 64
3, 14880, Note_on_c, 1, 71, 127
3, 14937, Note_off_c, 1, 71, 64
3, 14940, Note_on_c, 1, 70, 127
3, 14985, Note_off_c, 1, 70, 64
3, 15000, Note_on_c, 1, 71, 127
3, 15090, Note_off_c, 1, 71, 64
3, 15240, Note_on_c, 1, 64, 127
3, 15288, Note_off_c, 1, 64, 64
3, 15300, Note_on_c, 1, 63, 127
3, 15413, Note_off_c, 1, 63, 64
3, 15420, Note_on_c, 1, 64, 127
3, 15449, Note_off_c, 1, 64, 64
3, 15450, Note_on_c, 1, 66, 127
3, 15479, Note_off_c, 1, 66, 64
3, 15480, Note_on_c, 1, 64, 127
3, 15509, Note_off_c, 1, 64, 64
3, 15510, Note_on_c, 1, 63, 127
3, 15539, Note_off_c, 1, 63, 64
3, 15540, Note_on_c, 1, 61, 127
3, 15569, Note_off_c, 1, 61, 64
3, 15570, Note_on_c, 1, 59, 127
3, 15599, Note_off_c, 1, 59, 64
3, 15600, Note_on_c, 1, 69, 127
3, 15629, Note_off_c, 1, 69, 64
3, 15630, Note_on_c, 1, 68, 127
3, 15659, Note_off_c, 1, 68, 64
3, 15660, Note_on_c, 1, 66, 127
3, 15717, Note_off_c, 1, 66, 64
3, 15720, Note_on_c, 1, 68, 127
3, 15810, Note_off_c, 1, 68, 64
3, 15960, Note_on_c, 1, 69, 127
3, 15989, Note_off_c, 1, 69, 64
3, 15990, Note_on_c, 1, 67, 127
3, 16005, Note_off_c, 1, 67, 64
3, 16005, Note_on_c, 1, 66, 127
3, 16020, Note_off_c, 1, 66, 64
3, 16020, Note_on_c, 1, 67, 127
3, 16116, Note_off_c, 1, 67, 64
3, 16140, Note_on_c, 1, 70, 127
3, 16236, Note_off_c, 1, 70, 64
3, 16260, Note_on_c, 1, 73, 127
3, 16308, Note_off_c, 1, 73, 64
3, 16320, Note_on_c, 1, 76, 127
3, 16368, Note_off_c, 1, 76, 64
3, 16380, Note_on_c, 1, 67, 127
3, 16428, Note_off_c, 1, 67, 64
3, 16440, Note_on_c, 1, 66, 127
3, 16584, Note_off_c, 1, 66, 64
3, 16620, Note_on_c, 1, 65, 127
3, 16668, Note_off_c, 1, 65, 64
3, 16680, Note_on_c, 1, 66, 127
3, 16704, Note_off_c, 1, 66, 64
3, 16710, Note_on_c, 1, 70, 127
3, 16734, Note_off_c, 1, 70, 64
3, 16740, Note_on_c, 1, 71, 127
3, 16788, Note_off_c, 1, 71, 64
3, 16800, Note_on_c, 1, 59, 127
3, 16848, Note_off_c, 1, 59, 64
3, 16860, Note_on_c, 1, 64, 127
3, 16956, Note_off_c, 1, 64, 64
3, 16980, Note_on_c, 1, 62, 127
3, 17004, Note_off_c, 1, 62, 64
3, 17010, Note_on_c, 1, 61, 127
3, 17034, Note_off_c, 1, 61, 64
3, 17040, Note_on_c, 1, 62, 127
3, 17136, Note_off_c, 1, 62, 64
3, 17280, Note_on_c, 1, 77, 127
3, 17448, Note_off_c, 1, 77, 64
3, 17460, Note_on_c, 1, 76, 127
3, 17556, Note_off_c, 1, 76, 64
3, 17580, Note_on_c, 1, 74, 127
3, 17664, Note_off_c, 1, 74, 64
3, 17670, Note_on_c, 1, 72, 127
3, 17694, Note_off_c, 1, 72, 64
3, 17700, Note_on_c, 1, 71, 127
3, 17748, Note_off_c, 1, 71, 64
3, 17760, Note_on_c, 1, 72, 127
3, 17784, Note_off_c, 1, 72, 64
3, 17790, Note_on_c, 1, 74, 127
3, 17814, Note_off_c, 1, 74, 64
3, 17820, Note_on_c, 1, 76, 127
3, 17868, Note_off_c, 1, 76, 64
3, 18000, Note_on_c, 1, 64, 127
3, 18168, Note_off_c, 1, 64, 64
3, 18180, Note_on_c, 1, 62, 127
3, 18276, Note_off_c, 1, 62, 64
3, 18300, Note_on_c, 1, 60, 127
3, 18384, Note_off_c, 1, 60, 64
3, 18390, Note_on_c, 1, 59, 127
3, 18414, Note_off_c, 1, 59, 64
3, 18420, Note_on_c, 1, 57, 127
3, 18468, Note_off_c, 1, 57, 64
3, 18480, Note_on_c, 1, 59, 127
3, 18504, Note_off_c, 1, 59, 64
3, 18510, Note_on_c, 1, 60, 127
3, 18534, Note_off_c, 1, 60, 64
3, 18540, Note_on_c, 1, 62, 127
3, 18588, Note_off_c, 1, 62, 64
3, 18720, Note_on_c, 1, 74, 127
3, 18864, Note_off_c, 1, 74, 64
3, 18870, Note_on_c, 1, 72, 127
3, 18894, Note_off_c, 1, 72, 64
3, 18900, Note_on_c, 1, 71, 127
3, 18948, Note_off_c, 1, 71, 64
3, 18960, Note_on_c, 1, 71, 127
3, 18975, Note_off_c, 1, 71, 64
3, 19020, Note_on_c, 1, 72, 127
3, 19344, Note_off_c, 1, 72, 64
3, 19380, Note_on_c, 1, 71, 127
3, 19404, Note_off_c, 1, 71, 64
3, 19410, Note_on_c, 1, 73, 127
3, 19434, Note_off_c, 1, 73, 64
3, 19440, Note_on_c, 1, 75, 127
3, 19464, Note_off_c, 1, 75, 64
3, 19470, Note_on_c, 1, 76, 127
3, 19494, Note_off_c, 1, 76, 64
3, 19500, Note_on_c, 1, 78, 127
3, 19548, Note_off_c, 1, 78, 64
3, 19560, Note_on_c, 1, 71, 127
3, 19656, Note_off_c, 1, 71, 64
3, 19680, Note_on_c, 1, 76, 127
3, 19944, Note_off_c, 1, 76, 64
3, 19950, Note_on_c, 1, 74, 127
3, 19974, Note_off_c, 1, 74, 64
3, 19980, Note_on_c, 1, 73, 127
3, 20028, Note_off_c, 1, 73, 64
3, 20040, Note_on_c, 1, 74, 127
3, 20136, Note_off_c, 1, 74, 64
3, 20160, Note_on_c, 1, 64, 127
3, 20304, Note_off_c, 1, 64, 64
3, 20310, Note_on_c, 1, 62, 127
3, 20334, Note_off_c, 1, 62, 64
3, 20340, Note_on_c, 1, 61, 127
3, 20388, Note_off_c, 1, 61, 64
3, 20400, Note_on_c, 1, 62, 127
3, 20784, Note_off_c, 1, 62, 64
3, 20820, Note_on_c, 1, 61, 127
3, 20844, Note_off_c, 1, 61, 64
3, 20850, Note_on_c, 1, 59, 127
3, 20874, Note_off_c, 1, 59, 64
3, 20880, Note_on_c, 1, 61, 127
3, 20904, Note_off_c, 1, 61, 64
3, 20910, Note_on_c, 1, 63, 127
3, 20934, Note_off_c, 1, 63, 64
3, 20940, Note_on_c, 1, 64, 127
3, 20988, Note_off_c, 1, 64, 64
3, 21000, Note_on_c, 1, 66, 127
3, 21144, Note_off_c, 1, 66, 64
3, 21180, Note_on_c, 1, 64, 127
3, 21204, Note_off_c, 1, 64, 64
3, 21210, Note_on_c, 1, 63, 127
3, 21234, Note_off_c, 1, 63, 64
3, 21240, Note_on_c, 1, 64, 127
3, 21264, Note_off_c, 1, 64, 64
3, 21270, Note_on_c, 1, 66, 127
3, 21294, Note_off_c, 1, 66, 64
3, 21300, Note_on_c, 1, 67, 127
3, 21348, Note_off_c, 1, 67, 64
3, 21360, Note_on_c, 1, 70, 127
3, 21504, Note_off_c, 1, 70, 64
3, 21540, Note_on_c, 1, 71, 127
3, 21564, Note_off_c, 1, 71, 64
3, 21570, Note_on_c, 1, 70, 127
3, 21594, Note_off_c, 1, 70, 64
3, 21600, Note_on_c, 1, 71, 127
3, 21624, Note_off_c, 1, 71, 64
3, 21630, Note_on_c, 1, 73, 127
3, 21654, Note_off_c, 1, 73, 64
3, 21660, Note_on_c, 1, 74, 127
3, 21708, Note_off_c, 1, 74, 64
3, 21720, Note_on_c, 1, 68, 127
3, 21864, Note_off_c, 1, 68, 64
3, 21900, Note_on_c, 1, 69, 127
3, 21924, Note_off_c, 1, 69, 64
3, 21930, Note_on_c, 1, 71, 127
3, 21954, Note_off_c, 1, 71, 64
3, 21960, Note_on_c, 1, 69, 127
3, 21984, Note_off_c, 1, 69, 64
3, 21990, Note_on_c, 1, 67, 127
3, 22014, Note_off_c, 1, 67, 64
3, 22020, Note_on_c, 1, 66, 127
3, 22068, Note_off_c, 1, 66, 64
3, 22080, Note_on_c, 1, 67, 127
3, 22224, Note_off_c, 1, 67, 64
3, 22260, Note_on_c, 1, 66, 127
3, 22284, Note_off_c, 1, 66, 64
3, 22290, Note_on_c, 1, 65, 127
3, 22314, Note_off_c, 1, 65, 64
3, 22320, Note_on_c, 1, 66, 127
3, 22344, Note_off_c, 1, 66, 64
3, 22350, Note_on_c, 1, 70, 127
3, 22374, Note_off_c, 1, 70, 64
3, 22380, Note_on_c, 1, 71, 127
3, 22428, Note_off_c, 1, 71, 64
3, 22440, Note_on_c, 1, 59, 127
3, 22536, Note_off_c, 1, 59, 64
3, 22560, Note_on_c, 1, 64, 127
3, 22650, Note_off_c, 1, 64, 64
3, 22680, Note_on_c, 1, 62, 127
3, 22692, Note_off_c, 1, 62, 64
3, 22695, Note_on_c, 1, 61, 127
3, 22707, Note_off_c, 1, 61, 64
3, 22710, Note_on_c, 1, 62, 127
3, 22722, Note_off_c, 1, 62, 64
3, 22725, Note_on_c, 1, 61, 127
3, 22737, Note_off_c, 1, 61, 64
3, 22740, Note_on_c, 1, 62, 127
3, 22755, Note_off_c, 1, 62, 64
3, 22755, Note_on_c, 1, 61, 127
3, 22770, Note_off_c, 1, 61, 64
3, 22770, Note_on_c, 1, 62, 127
3, 22785, Note_off_c, 1, 62, 64
3, 22785, Note_on_c, 1, 61, 127
3, 22800, Note_off_c, 1, 61, 64
3, 22800, Note_on_c, 1, 59, 127
3, 22992, Note_off_c, 1, 59, 64
3, 23040, Note_on_c, 1, 59, 127
3, 23136, Note_off_c, 1, 59, 64
3, 23160, Note_on_c, 1, 64, 127
3, 23250, Note_off_c, 1, 64, 64
3, 23280, Note_on_c, 1, 62, 127
3, 23295, Note_off_c, 1, 62, 64
3, 23295, Note_on_c, 1, 61, 127
3, 23310, Note_off_c, 1, 61, 64
3, 23310, Note_on_c, 1, 62, 127
3, 23325, Note_off_c, 1, 62, 64
3, 23325, Note_on_c, 1, 61, 127
3, 23340, Note_off_c, 1, 61, 64
3, 23340, Note_on_c, 1, 62, 127
3, 23352, Note_off_c, 1, 62, 64
3, 23355, Note_on_c, 1, 61, 127
3, 23367, Note_off_c, 1, 61, 64
3, 23370, Note_on_c, 1, 62, 127
3, 23382, Note_off_c, 1, 62, 64
3, 23385, Note_on_c, 1, 61, 127
3, 23397, Note_off_c, 1, 61, 64
3, 23400, Note_on_c, 1, 59, 127
3, 23513, Note_off_c, 1, 59, 64
3, 23640, Note_on_c, 1, 66, 127
3, 23736, Note_off_c, 1, 66, 64
3, 23760, Note_on_c, 1, 63, 127
3, 23760, Note_on_c, 1, 64, 127
3, 23775, Note_off_c, 1, 64, 64
3, 23904, Note_off_c, 1, 63, 64
3, 23940, Note_on_c, 1, 59, 127
3, 23964, Note_off_c, 1, 59, 64
3, 23970, Note_on_c, 1, 61, 127
3, 23994, Note_off_c, 1, 61, 64
3, 24000, Note_on_c, 1, 63, 127
3, 24024, Note_off_c, 1, 63, 64
3, 24030, Note_on_c, 1, 64, 127
3, 24054, Note_off_c, 1, 64, 64
3, 24060, Note_on_c, 1, 66, 127
3, 24108, Note_off_c, 1, 66, 64
3, 24120, Note_on_c, 1, 69, 127
3, 24264, Note_off_c, 1, 69, 64
3, 24300, Note_on_c, 1, 63, 127
3, 24324, Note_off_c, 1, 63, 64
3, 24330, Note_on_c, 1, 64, 127
3, 24354, Note_off_c, 1, 64, 64
3, 24360, Note_on_c, 1, 66, 127
3, 24384, Note_off_c, 1, 66, 64
3, 24390, Note_on_c, 1, 67, 127
3, 24414, Note_off_c, 1, 67, 64
3, 24420, Note_on_c, 1, 69, 127
3, 24468, Note_off_c, 1, 69, 64
3, 24480, Note_on_c, 1, 72, 127
3, 24528, Note_off_c, 1, 72, 64
3, 24540, Note_on_c, 1, 71, 127
3, 24636, Note_off_c, 1, 71, 64
3, 24660, Note_on_c, 1, 69, 127
3, 24684, Note_off_c, 1, 69, 64
3, 24690, Note_on_c, 1, 67, 127
3, 24714, Note_off_c, 1, 67, 64
3, 24720, Note_on_c, 1, 66, 127
3, 24744, Note_off_c, 1, 66, 64
3, 24750, Note_on_c, 1, 67, 127
3, 24774, Note_off_c, 1, 67, 64
3, 24780, Note_on_c, 1, 69, 127
3, 24888, Note_off_c, 1, 69, 64
3, 24900, Note_on_c, 1, 67, 127
3, 25013, Note_off_c, 1, 67, 64
3, 25020, Note_on_c, 1, 66, 127
3, 25044, Note_off_c, 1, 66, 64
3, 25050, Note_on_c, 1, 64, 127
3, 25074, Note_off_c, 1, 64, 64
3, 25080, Note_on_c, 1, 63, 127
3, 25104, Note_off_c, 1, 63, 64
3, 25110, Note_on_c, 1, 64, 127
3, 25134, Note_off_c, 1, 64, 64
3, 25140, Note_on_c, 1, 66, 127
3, 25188, Note_off_c, 1, 66, 64
3, 25200, Note_on_c, 1, 64, 127
3, 25248, Note_off_c, 1, 64, 64
3, 25260, Note_on_c, 1, 68, 127
3, 25308, Note_off_c, 1, 68, 64
3, 25320, Note_on_c, 1, 71, 127
3, 25416, Note_off_c, 1, 71, 64
3, 25560, Note_on_c, 1, 68, 127
3, 25608, Note_off_c, 1, 68, 64
3, 25620, Note_on_c, 1, 71, 127
3, 25668, Note_off_c, 1, 71, 64
3, 25680, Note_on_c, 1, 74, 127
3, 25776, Note_off_c, 1, 74, 64
3, 26040, Note_on_c, 1, 71, 127
3, 26088, Note_off_c, 1, 71, 64
3, 26100, Note_on_c, 1, 74, 127
3, 26148, Note_off_c, 1, 74, 64
3, 26160, Note_on_c, 1, 77, 127
3, 26256, Note_off_c, 1, 77, 64
3, 26280, Note_on_c, 1, 76, 127
3, 26376, Note_off_c, 1, 76, 64
3, 26400, Note_on_c, 1, 69, 127
3, 26496, Note_off_c, 1, 69, 64
3, 26520, Note_on_c, 1, 71, 127
3, 26616, Note_off_c, 1, 71, 64
3, 26640, Note_on_c, 1, 72, 127
3, 26663, Note_off_c, 1, 72, 64
3, 26670, Note_on_c, 1, 77, 127
3, 26694, Note_off_c, 1, 77, 64
3, 26700, Note_on_c, 1, 76, 127
3, 26724, Note_off_c, 1, 76, 64
3, 26730, Note_on_c, 1, 74, 127
3, 26754, Note_off_c, 1, 74, 64
3, 26760, Note_on_c, 1, 76, 127
3, 26783, Note_off_c, 1, 76, 64
3, 26790, Note_on_c, 1, 81, 127
3, 26814, Note_off_c, 1, 81, 64
3, 26820, Note_on_c, 1, 79, 127
3, 26844, Note_off_c, 1, 79, 64
3, 26850, Note_on_c, 1, 77, 127
3, 26874, Note_off_c, 1, 77, 64
3, 26880, Note_on_c, 1, 79, 127
3, 26903, Note_off_c, 1, 79, 64
3, 26910, Note_on_c, 1, 70, 127
3, 26934, Note_off_c, 1, 70, 64
3, 26940, Note_on_c, 1, 69, 127
3, 26964, Note_off_c, 1, 69, 64
3, 26970, Note_on_c, 1, 67, 127
3, 26994, Note_off_c, 1, 67, 64
3, 27000, Note_on_c, 1, 73, 127
3, 27090, Note_off_c, 1, 73, 64
3, 27120, Note_on_c, 1, 74, 127
3, 27210, Note_off_c, 1, 74, 64
3, 27360, Note_on_c, 1, 75, 127
3, 27383, Note_off_c, 1, 75, 64
3, 27390, Note_on_c, 1, 79, 127
3, 27414, Note_off_c, 1, 79, 64
3, 27420, Note_on_c, 1, 78, 127
3, 27444, Note_off_c, 1, 78, 64
3, 27450, Note_on_c, 1, 76, 127
3, 27474, Note_off_c, 1, 76, 64
3, 27480, Note_on_c, 1, 78, 127
3, 27503, Note_off_c, 1, 78, 64
3, 27510, Note_on_c, 1, 83, 127
3, 27534, Note_off_c, 1, 83, 64
3, 27540, Note_on_c, 1, 81, 127
3, 27564, Note_off_c, 1, 81, 64
3, 27570, Note_on_c, 1, 79, 127
3, 27594, Note_off_c, 1, 79, 64
3, 27600, Note_on_c, 1, 81, 127
3, 27623, Note_off_c, 1, 81, 64
3, 27630, Note_on_c, 1, 72, 127
3, 27654, Note_off_c, 1, 72, 64
3, 27660, Note_on_c, 1, 71, 127
3, 27684, Note_off_c, 1, 71, 64
3, 27690, Note_on_c, 1, 69, 127
3, 27714, Note_off_c, 1, 69, 64
3, 27720, Note_on_c, 1, 75, 127
3, 27810, Note_off_c, 1, 75, 64
3, 27840, Note_on_c, 1, 76, 127
3, 27930, Note_off_c, 1, 76, 64
3, 28140, Note_on_c, 1, 64, 127
3, 28164, Note_off_c, 1, 64, 64
3, 28170, Note_on_c, 1, 66, 127
3, 28194, Note_off_c, 1, 66, 64
3, 28200, Note_on_c, 1, 68, 127
3, 28224, Note_off_c, 1, 68, 64
3, 28230, Note_on_c, 1, 69, 127
3, 28254, Note_off_c, 1, 69, 64
3, 28260, Note_on_c, 1, 71, 127
3, 28284, Note_off_c, 1, 71, 64
3, 28290, Note_on_c, 1, 72, 127
3, 28314, Note_off_c, 1, 72, 64
3, 28320, Note_on_c, 1, 74, 127
3, 28464, Note_off_c, 1, 74, 64
3, 28470, Note_on_c, 1, 71, 127
3, 28494, Note_off_c, 1, 71, 64
3, 28500, Note_on_c, 1, 68, 127
3, 28524, Note_off_c, 1, 68, 64
3, 28530, Note_on_c, 1, 69, 127
3, 28554, Note_off_c, 1, 69, 64
3, 28560, Note_on_c, 1, 71, 127
3, 28584, Note_off_c, 1, 71, 64
3, 28590, Note_on_c, 1, 72, 127
3, 28614, Note_off_c, 1, 72, 64
3, 28620, Note_on_c, 1, 74, 127
3, 28644, Note_off_c, 1, 74, 64
3, 28650, Note_on_c, 1, 76, 127
3, 28674, Note_off_c, 1, 76, 64
3, 28680, Note_on_c, 1, 77, 127
3, 28704, Note_off_c, 1, 77, 64
3, 28710, Note_on_c, 1, 76, 127
3, 28734, Note_off_c, 1, 76, 64
3, 28740, Note_on_c, 1, 75, 127
3, 28764, Note_off_c, 1, 75, 64
3, 28770, Note_on_c, 1, 76, 127
3, 28794, Note_off_c, 1, 76, 64
3, 28800, Note_on_c, 1, 74, 127
3, 28815, Note_off_c, 1, 74, 64
3, 28815, Note_on_c, 1, 73, 127
3, 28827, Note_off_c, 1, 73, 64
3, 28830, Note_on_c, 1, 74, 127
3, 28842, Note_off_c, 1, 74, 64
3, 28845, Note_on_c, 1, 73, 127
3, 28857, Note_off_c, 1, 73, 64
3, 28860, Note_on_c, 1, 74, 127
3, 28872, Note_off_c, 1, 74, 64
3, 28875, Note_on_c, 1, 73, 127
3, 28887, Note_off_c, 1, 73, 64
3, 28890, Note_on_c, 1, 74, 127
3, 28902, Note_off_c, 1, 74, 64
3, 28905, Note_on_c, 1, 73, 127
3, 28917, Note_off_c, 1, 73, 64
3, 28920, Note_on_c, 1, 74, 127
3, 28932, Note_off_c, 1, 74, 64
3, 28935, Note_on_c, 1, 73, 127
3, 28947, Note_off_c, 1, 73, 64
3, 28950, Note_on_c, 1, 74, 127
3, 28962, Note_off_c, 1, 74, 64
3, 28965, Note_on_c, 1, 73, 127
3, 28977, Note_off_c, 1, 73, 64
3, 28980, Note_on_c, 1, 74, 127
3, 28992, Note_off_c, 1, 74, 64
3, 28995, Note_on_c, 1, 73, 127
3, 29007, Note_off_c, 1, 73, 64
3, 29010, Note_on_c, 1, 74, 127
3, 29022, Note_off_c, 1, 74, 64
3, 29025, Note_on_c, 1, 73, 127
3, 29256, Note_off_c, 1, 73, 64
3, 29280, Note_on_c, 1, 71, 127
3, 29370, Note_off_c, 1, 71, 64
3, 29400, Note_on_c, 1, 64, 127
3, 29496, Note_off_c, 1, 64, 64
3, 29520, Note_on_c, 1, 69, 127
3, 29568, Note_off_c, 1, 69, 64
3, 29580, Note_on_c, 1, 71, 127
3, 29628, Note_off_c, 1, 71, 64
3, 29640, Note_on_c, 1, 72, 127
3, 29697, Note_off_c, 1, 72, 64
3, 29700, Note_on_c, 1, 71, 127
3, 29757, Note_off_c, 1, 71, 64
3, 29760, Note_on_c, 1, 69, 127
3, 29856, Note_off_c, 1, 69, 64
3, 29880, Note_on_c, 1, 69, 127
3, 29904, Note_off_c, 1, 69, 64
3, 29910, Note_on_c, 1, 68, 127
3, 29934, Note_off_c, 1, 68, 64
3, 29940, Note_on_c, 1, 69, 127
3, 29964, Note_off_c, 1, 69, 64
3, 29970, Note_on_c, 1, 68, 127
3, 29999, Note_off_c, 1, 68, 64
3, 30000, Note_on_c, 1, 69, 127
3, 30090, Note_off_c, 1, 69, 64
3, 30240, Note_on_c, 1, 62, 127
3, 30288, Note_off_c, 1, 62, 64
3, 30300, Note_on_c, 1, 61, 127
3, 30413, Note_off_c, 1, 61, 64
3, 30420, Note_on_c, 1, 62, 127
3, 30444, Note_off_c, 1, 62, 64
3, 30450, Note_on_c, 1, 64, 127
3, 30474, Note_off_c, 1, 64, 64
3, 30480, Note_on_c, 1, 62, 127
3, 30504, Note_off_c, 1, 62, 64
3, 30510, Note_on_c, 1, 61, 127
3, 30534, Note_off_c, 1, 61, 64
3, 30540, Note_on_c, 1, 59, 127
3, 30564, Note_off_c, 1, 59, 64
3, 30570, Note_on_c, 1, 57, 127
3, 30594, Note_off_c, 1, 57, 64
3, 30600, Note_on_c, 1, 67, 127
3, 30624, Note_off_c, 1, 67, 64
3, 30630, Note_on_c, 1, 66, 127
3, 30654, Note_off_c, 1, 66, 64
3, 30660, Note_on_c, 1, 64, 127
3, 30708, Note_off_c, 1, 64, 64
3, 30720, Note_on_c, 1, 66, 127
3, 30816, Note_off_c, 1, 66, 64
3, 30960, Note_on_c, 1, 67, 127
3, 30967, Note_off_c, 1, 67, 64
3, 30967, Note_on_c, 1, 65, 127
3, 30974, Note_off_c, 1, 65, 64
3, 30974, Note_on_c, 1, 67, 127
3, 30981, Note_off_c, 1, 67, 64
3, 30981, Note_on_c, 1, 65, 127
3, 30988, Note_off_c, 1, 65, 64
3, 30988, Note_on_c, 1, 64, 127
3, 31012, Note_off_c, 1, 64, 64
3, 31018, Note_on_c, 1, 65, 127
3, 31114, Note_off_c, 1, 65, 64
3, 31138, Note_on_c, 1, 68, 127
3, 31234, Note_off_c, 1, 68, 64
3, 31258, Note_on_c, 1, 71, 127
3, 31306, Note_off_c, 1, 71, 64
3, 31318, Note_on_c, 1, 74, 127
3, 31366, Note_off_c, 1, 74, 64
3, 31378, Note_on_c, 1, 65, 127
3, 31426, Note_off_c, 1, 65, 64
3, 31438, Note_on_c, 1, 64, 127
3, 31582, Note_off_c, 1, 64, 64
3, 31618, Note_on_c, 1, 63, 127
3, 31666, Note_off_c, 1, 63, 64
3, 31680, Note_on_c, 1, 64, 127
3, 31704, Note_off_c, 1, 64, 64
3, 31710, Note_on_c, 1, 68, 127
3, 31734, Note_off_c, 1, 68, 64
3, 31740, Note_on_c, 1, 69, 127
3, 31788, Note_off_c, 1, 69, 64
3, 31800, Note_on_c, 1, 57, 127
3, 31848, Note_off_c, 1, 57, 64
3, 31860, Note_on_c, 1, 62, 127
3, 31956, Note_off_c, 1, 62, 64
3, 31980, Note_on_c, 1, 60, 127
3, 32004, Note_off_c, 1, 60, 64
3, 32010, Note_on_c, 1, 59, 127
3, 32034, Note_off_c, 1, 59, 64
3, 32040, Note_on_c, 1, 60, 127
3, 32088, Note_off_c, 1, 60, 64
3, 32100, Note_on_c, 1, 72, 127
3, 32148, Note_off_c, 1, 72, 64
3, 32160, Note_on_c, 1, 71, 127
3, 32208, Note_off_c, 1, 71, 64
3, 32220, Note_on_c, 1, 64, 127
3, 32316, Note_off_c, 1, 64, 64
3, 32340, Note_on_c, 1, 63, 127
3, 32388, Note_off_c, 1, 63, 64
3, 32400, Note_on_c, 1, 64, 127
3, 32424, Note_off_c, 1, 64, 64
3, 32430, Note_on_c, 1, 62, 127
3, 32454, Note_off_c, 1, 62, 64
3, 32460, Note_on_c, 1, 60, 127
3, 32508, Note_off_c, 1, 60, 64
3, 32520, Note_on_c, 1, 59, 127
3, 32712, Note_off_c, 1, 59, 64
3, 32760, Note_on_c, 1, 59, 127
3, 32904, Note_off_c, 1, 59, 64
3, 32940, Note_on_c, 1, 71, 127
3, 32988, Note_off_c, 1, 71, 64
3, 33000, Note_on_c, 1, 69, 127
3, 33024, Note_off_c, 1, 69, 64
3, 33030, Note_on_c, 1, 68, 127
3, 33054, Note_off_c, 1, 68, 64
3, 33060, Note_on_c, 1, 66, 127
3, 33084, Note_off_c, 1, 66, 64
3, 33090, Note_on_c, 1, 68, 127
3, 33114, Note_off_c, 1, 68, 64
3, 33120, Note_on_c, 1, 74, 127
3, 33168, Note_off_c, 1, 74, 64
3, 33180, Note_on_c, 1, 65, 127
3, 33228, Note_off_c, 1, 65, 64
3, 33240, Note_on_c, 1, 64, 127
3, 33336, Note_off_c, 1, 64, 64
3, 33420, Note_on_c, 1, 72, 127
3, 33468, Note_off_c, 1, 72, 64
3, 33480, Note_on_c, 1, 71, 127
3, 33504, Note_off_c, 1, 71, 64
3, 33510, Note_on_c, 1, 69, 127
3, 33534, Note_off_c, 1, 69, 64
3, 33540, Note_on_c, 1, 68, 127
3, 33588, Note_off_c, 1, 68, 64
3, 33600, Note_on_c, 1, 69, 127
3, 33648, Note_off_c, 1, 69, 64
3, 33660, Note_on_c, 1, 67, 127
3, 33684, Note_off_c, 1, 67, 64
3, 33690, Note_on_c, 1, 66, 127
3, 33714, Note_off_c, 1, 66, 64
3, 33720, Note_on_c, 1, 64, 127
3, 33744, Note_off_c, 1, 64, 64
3, 33750, Note_on_c, 1, 63, 127
3, 33774, Note_off_c, 1, 63, 64
3, 33780, Note_on_c, 1, 64, 127
3, 33828, Note_off_c, 1, 64, 64
3, 33840, Note_on_c, 1, 57, 127
3, 33888, Note_off_c, 1, 57, 64
3, 33900, Note_on_c, 1, 64, 127
3, 33948, Note_off_c, 1, 64, 64
3, 33960, Note_on_c, 1, 63, 127
3, 34056, Note_off_c, 1, 63, 64
3, 34200, Note_on_c, 1, 66, 127
3, 34248, Note_off_c, 1, 66, 64
3, 34260, Note_on_c, 1, 57, 127
3, 34308, Note_off_c, 1, 57, 64
3, 34320, Note_on_c, 1, 55, 127
3, 34368, Note_off_c, 1, 55, 64
3, 34380, Note_on_c, 1, 59, 127
3, 34428, Note_off_c, 1, 59, 64
3, 34440, Note_on_c, 1, 63, 127
3, 34536, Note_off_c, 1, 63, 64
3, 34620, Note_on_c, 1, 71, 127
3, 34668, Note_off_c, 1, 71, 64
3, 34680, Note_on_c, 1, 72, 127
3, 34728, Note_off_c, 1, 72, 64
3, 34740, Note_on_c, 1, 69, 127
3, 34788, Note_off_c, 1, 69, 64
3, 34800, Note_on_c, 1, 66, 127
3, 34848, Note_off_c, 1, 66, 64
3, 34860, Note_on_c, 1, 75, 127
3, 34908, Note_off_c, 1, 75, 64
3, 34920, Note_on_c, 1, 76, 127
3, 34968, Note_off_c, 1, 76, 64
3, 34980, Note_on_c, 1, 64, 127
3, 35076, Note_off_c, 1, 64, 64
3, 35100, Note_on_c, 1, 62, 127
3, 35184, Note_off_c, 1, 62, 64
3, 35190, Note_on_c, 1, 61, 127
3, 35214, Note_off_c, 1, 61, 64
3, 35220, Note_on_c, 1, 62, 127
3, 35268, Note_off_c, 1, 62, 64
3, 35280, Note_on_c, 1, 61, 127
3, 35304, Note_off_c, 1, 61, 64
3, 35310, Note_on_c, 1, 62, 127
3, 35334, Note_off_c, 1, 62, 64
3, 35340, Note_on_c, 1, 64, 127
3, 35388, Note_off_c, 1, 64, 64
3, 35520, Note_on_c, 1, 76, 127
3, 35688, Note_off_c, 1, 76, 64
3, 35700, Note_on_c, 1, 74, 127
3, 35796, Note_off_c, 1, 74, 64
3, 35820, Note_on_c, 1, 72, 127
3, 35904, Note_off_c, 1, 72, 64
3, 35910, Note_on_c, 1, 71, 127
3, 35934, Note_off_c, 1, 71, 64
3, 35940, Note_on_c, 1, 69, 127
3, 35988, Note_off_c, 1, 69, 64
3, 36000, Note_on_c, 1, 71, 127
3, 36024, Note_off_c, 1, 71, 64
3, 36030, Note_on_c, 1, 72, 127
3, 36054, Note_off_c, 1, 72, 64
3, 36060, Note_on_c, 1, 74, 127
3, 36108, Note_off_c, 1, 74, 64
3, 36240, Note_on_c, 1, 62, 127
3, 36408, Note_off_c, 1, 62, 64
3, 36420, Note_on_c, 1, 60, 127
3, 36516, Note_off_c, 1, 60, 64
3, 36540, Note_on_c, 1, 58, 127
3, 36624, Note_off_c, 1, 58, 64
3, 36630, Note_on_c, 1, 57, 127
3, 36654, Note_off_c, 1, 57, 64
3, 36660, Note_on_c, 1, 55, 127
3, 36708, Note_off_c, 1, 55, 64
3, 36720, Note_on_c, 1, 57, 127
3, 36816, Note_off_c, 1, 57, 64
3, 36840, Note_on_c, 1, 64, 127
3, 36864, Note_off_c, 1, 64, 64
3, 36870, Note_on_c, 1, 62, 127
3, 36894, Note_off_c, 1, 62, 64
3, 36900, Note_on_c, 1, 64, 127
3, 36924, Note_off_c, 1, 64, 64
3, 36930, Note_on_c, 1, 62, 127
3, 36954, Note_off_c, 1, 62, 64
3, 36960, Note_on_c, 1, 64, 127
3, 36984, Note_off_c, 1, 64, 64
3, 36990, Note_on_c, 1, 62, 127
3, 37014, Note_off_c, 1, 62, 64
3, 37020, Note_on_c, 1, 64, 127
3, 37044, Note_off_c, 1, 64, 64
3, 37050, Note_on_c, 1, 62, 127
3, 37104, Note_off_c, 1, 62, 64
3, 37110, Note_on_c, 1, 60, 127
3, 37134, Note_off_c, 1, 60, 64
3, 37140, Note_on_c, 1, 59, 127
3, 37188, Note_off_c, 1, 59, 64
3, 37200, Note_on_c, 1, 60, 127
3, 37296, Note_off_c, 1, 60, 64
3, 37320, Note_on_c, 1, 74, 127
3, 37464, Note_off_c, 1, 74, 64
3, 37470, Note_on_c, 1, 72, 127
3, 37494, Note_off_c, 1, 72, 64
3, 37500, Note_on_c, 1, 71, 127
3, 37548, Note_off_c, 1, 71, 64
3, 37560, Note_on_c, 1, 74, 127
3, 37584, Note_off_c, 1, 74, 64
3, 37590, Note_on_c, 1, 72, 127
3, 37614, Note_off_c, 1, 72, 64
3, 37620, Note_on_c, 1, 74, 127
3, 37644, Note_off_c, 1, 74, 64
3, 37650, Note_on_c, 1, 72, 127
3, 37674, Note_off_c, 1, 72, 64
3, 37680, Note_on_c, 1, 74, 127
3, 37704, Note_off_c, 1, 74, 64
3, 37710, Note_on_c, 1, 72, 127
3, 37734, Note_off_c, 1, 72, 64
3, 37740, Note_on_c, 1, 74, 127
3, 37764, Note_off_c, 1, 74, 64
3, 37770, Note_on_c, 1, 72, 127
3, 37944, Note_off_c, 1, 72, 64
3, 37980, Note_on_c, 1, 71, 127
3, 38004, Note_off_c, 1, 71, 64
3, 38010, Note_on_c, 1, 69, 127
3, 38034, Note_off_c, 1, 69, 64
3, 38040, Note_on_c, 1, 67, 127
3, 38064, Note_off_c, 1, 67, 64
3, 38070, Note_on_c, 1, 65, 127
3, 38094, Note_off_c, 1, 65, 64
3, 38100, Note_on_c, 1, 64, 127
3, 38148, Note_off_c, 1, 64, 64
3, 38160, Note_on_c, 1, 63, 127
3, 38256, Note_off_c, 1, 63, 64
3, 38280, Note_on_c, 1, 64, 127
3, 38304, Note_off_c, 1, 64, 64
3, 38310, Note_on_c, 1, 63, 127
3, 38334, Note_off_c, 1, 63, 64
3, 38340, Note_on_c, 1, 64, 127
3, 38397, Note_off_c, 1, 64, 64
3, 38400, Note_on_c, 1, 76, 127
3, 38544, Note_off_c, 1, 76, 64
3, 38550, Note_on_c, 1, 75, 127
3, 38574, Note_off_c, 1, 75, 64
3, 38580, Note_on_c, 1, 73, 127
3, 38628, Note_off_c, 1, 73, 64
3, 38640, Note_on_c, 1, 75, 127
3, 38730, Note_off_c, 1, 75, 64
3, 38760, Note_on_c, 1, 74, 127
3, 38904, Note_off_c, 1, 74, 64
3, 38910, Note_on_c, 1, 73, 127
3, 38934, Note_off_c, 1, 73, 64
3, 38940, Note_on_c, 1, 71, 127
3, 38988, Note_off_c, 1, 71, 64
3, 39000, Note_on_c, 1, 73, 127
3, 39090, Note_off_c, 1, 73, 64
3, 39120, Note_on_c, 1, 72, 127
3, 39264, Note_off_c, 1, 72, 64
3, 39270, Note_on_c, 1, 71, 127
3, 39294, Note_off_c, 1, 71, 64
3, 39300, Note_on_c, 1, 70, 127
3, 39348, Note_off_c, 1, 70, 64
3, 39360, Note_on_c, 1, 71, 127
3, 39450, Note_off_c, 1, 71, 64
3, 39480, Note_on_c, 1, 70, 127
3, 39624, Note_off_c, 1, 70, 64
3, 39630, Note_on_c, 1, 69, 127
3, 39654, Note_off_c, 1, 69, 64
3, 39660, Note_on_c, 1, 68, 127
3, 39708, Note_off_c, 1, 68, 64
3, 39720, Note_on_c, 1, 69, 127
3, 39810, Note_off_c, 1, 69, 64
3, 39840, Note_on_c, 1, 57, 127
3, 39984, Note_off_c, 1, 57, 64
3, 39990, Note_on_c, 1, 55, 127
3, 40014, Note_off_c, 1, 55, 64
3, 40020, Note_on_c, 1, 54, 127
3, 40068, Note_off_c, 1, 54, 64
3, 40080, Note_on_c, 1, 55, 127
3, 40170, Note_off_c, 1, 55, 64
3, 40200, Note_on_c, 1, 67, 127
3, 40344, Note_off_c, 1, 67, 64
3, 40350, Note_on_c, 1, 66, 127
3, 40374, Note_off_c, 1, 66, 64
3, 40380, Note_on_c, 1, 64, 127
3, 40428, Note_off_c, 1, 64, 64
3, 40440, Note_on_c, 1, 66, 127
3, 40530, Note_off_c, 1, 66, 64
3, 40560, Note_on_c, 1, 64, 127
3, 40584, Note_off_c, 1, 64, 64
3, 40590, Note_on_c, 1, 63, 127
3, 40614, Note_off_c, 1, 63, 64
3, 40620, Note_on_c, 1, 64, 127
3, 40644, Note_off_c, 1, 64, 64
3, 40650, Note_on_c, 1, 63, 127
3, 40679, Note_off_c, 1, 63, 64
3, 40680, Note_on_c, 1, 64, 127
3, 40776, Note_off_c, 1, 64, 64
3, 40920, Note_on_c, 1, 66, 127
3, 41016, Note_off_c, 1, 66, 64
3, 41040, Note_on_c, 1, 63, 127
3, 41040, Note_on_c, 1, 64, 127
3, 41055, Note_off_c, 1, 64, 64
3, 41184, Note_off_c, 1, 63, 64
3, 41220, Note_on_c, 1, 59, 127
3, 41244, Note_off_c, 1, 59, 64
3, 41250, Note_on_c, 1, 61, 127
3, 41274, Note_off_c, 1, 61, 64
3, 41280, Note_on_c, 1, 63, 127
3, 41304, Note_off_c, 1, 63, 64
3, 41310, Note_on_c, 1, 64, 127
3, 41334, Note_off_c, 1, 64, 64
3, 41340, Note_on_c, 1, 66, 127
3, 41388, Note_off_c, 1, 66, 64
3, 41400, Note_on_c, 1, 69, 127
3, 41544, Note_off_c, 1, 69, 64
3, 41580, Note_on_c, 1, 63, 127
3, 41604, Note_off_c, 1, 63, 64
3, 41610, Note_on_c, 1, 64, 127
3, 41634, Note_off_c, 1, 64, 64
3, 41640, Note_on_c, 1, 66, 127
3, 41664, Note_off_c, 1, 66, 64
3, 41670, Note_on_c, 1, 67, 127
3, 41694, Note_off_c, 1, 67, 64
3, 41700, Note_on_c, 1, 69, 127
3, 41748, Note_off_c, 1, 69, 64
3, 41760, Note_on_c, 1, 72, 127
3, 41808, Note_off_c, 1, 72, 64
3, 41820, Note_on_c, 1, 71, 127
3, 41916, Note_off_c, 1, 71, 64
3, 41940, Note_on_c, 1, 69, 127
3, 41964, Note_off_c, 1, 69, 64
3, 41970, Note_on_c, 1, 67, 127
3, 41994, Note_off_c, 1, 67, 64
3, 42000, Note_on_c, 1, 66, 127
3, 42024, Note_off_c, 1, 66, 64
3, 42030, Note_on_c, 1, 67, 127
3, 42054, Note_off_c, 1, 67, 64
3, 42060, Note_on_c, 1, 69, 127
3, 42168, Note_off_c, 1, 69, 64
3, 42180, Note_on_c, 1, 67, 127
3, 42293, Note_off_c, 1, 67, 64
3, 42300, Note_on_c, 1, 66, 127
3, 42324, Note_off_c, 1, 66, 64
3, 42330, Note_on_c, 1, 64, 127
3, 42354, Note_off_c, 1, 64, 64
3, 42360, Note_on_c, 1, 63, 127
3, 42384, Note_off_c, 1, 63, 64
3, 42390, Note_on_c, 1, 64, 127
3, 42414, Note_off_c, 1, 64, 64
3, 42420, Note_on_c, 1, 66, 127
3, 42468, Note_off_c, 1, 66, 64
3, 42480, Note_on_c, 1, 64, 127
3, 42528, Note_off_c, 1, 64, 64
3, 42540, Note_on_c, 1, 68, 127
3, 42588, Note_off_c, 1, 68, 64
3, 42600, Note_on_c, 1, 71, 127
3, 42696, Note_off_c, 1, 71, 64
3, 42840, Note_on_c, 1, 68, 127
3, 42888, Note_off_c, 1, 68, 64
3, 42900, Note_on_c, 1, 71, 127
3, 42948, Note_off_c, 1, 71, 64
3, 42960, Note_on_c, 1, 74, 127
3, 43056, Note_off_c, 1, 74, 64
3, 43320, Note_on_c, 1, 71, 127
3, 43368, Note_off_c, 1, 71, 64
3, 43380, Note_on_c, 1, 74, 127
3, 43428, Note_off_c, 1, 74, 64
3, 43440, Note_on_c, 1, 77, 127
3, 43536, Note_off_c, 1, 77, 64
3, 43560, Note_on_c, 1, 76, 127
3, 43656, Note_off_c, 1, 76, 64
3, 43680, Note_on_c, 1, 69, 127
3, 43776, Note_off_c, 1, 69, 64
3, 43800, Note_on_c, 1, 71, 127
3, 43896, Note_off_c, 1, 71, 64
3, 43920, Note_on_c, 1, 72, 127
3, 43943, Note_off_c, 1, 72, 64
3, 43950, Note_on_c, 1, 77, 127
3, 43974, Note_off_c, 1, 77, 64
3, 43980, Note_on_c, 1, 76, 127
3, 44004, Note_off_c, 1, 76, 64
3, 44010, Note_on_c, 1, 74, 127
3, 44034, Note_off_c, 1, 74, 64
3, 44040, Note_on_c, 1, 76, 127
3, 44063, Note_off_c, 1, 76, 64
3, 44070, Note_on_c, 1, 81, 127
3, 44094, Note_off_c, 1, 81, 64
3, 44100, Note_on_c, 1, 79, 127
3, 44124, Note_off_c, 1, 79, 64
3, 44130, Note_on_c, 1, 77, 127
3, 44154, Note_off_c, 1, 77, 64
3, 44160, Note_on_c, 1, 79, 127
3, 44183, Note_off_c, 1, 79, 64
3, 44190, Note_on_c, 1, 70, 127
3, 44214, Note_off_c, 1, 70, 64
3, 44220, Note_on_c, 1, 69, 127
3, 44244, Note_off_c, 1, 69, 64
3, 44250, Note_on_c, 1, 67, 127
3, 44274, Note_off_c, 1, 67, 64
3, 44280, Note_on_c, 1, 73, 127
3, 44370, Note_off_c, 1, 73, 64
3, 44400, Note_on_c, 1, 74, 127
3, 44490, Note_off_c, 1, 74, 64
3, 44640, Note_on_c, 1, 75, 127
3, 44663, Note_off_c, 1, 75, 64
3, 44670, Note_on_c, 1, 79, 127
3, 44694, Note_off_c, 1, 79, 64
3, 44700, Note_on_c, 1, 78, 127
3, 44724, Note_off_c, 1, 78, 64
3, 44730, Note_on_c, 1, 76, 127
3, 44754, Note_off_c, 1, 76, 64
3, 44760, Note_on_c, 1, 78, 127
3, 44783, Note_off_c, 1, 78, 64
3, 44790, Note_on_c, 1, 83, 127
3, 44814, Note_off_c, 1, 83, 64
3, 44820, Note_on_c, 1, 81, 127
3, 44844, Note_off_c, 1, 81, 64
3, 44850, Note_on_c, 1, 79, 127
3, 44874, Note_off_c, 1, 79, 64
3, 44880, Note_on_c, 1, 81, 127
3, 44903, Note_off_c, 1, 81, 64
3, 44910, Note_on_c, 1, 72, 127
3, 44934, Note_off_c, 1, 72, 64
3, 44940, Note_on_c, 1, 71, 127
3, 44964, Note_off_c, 1, 71, 64
3, 44970, Note_on_c, 1, 69, 127
3, 44994, Note_off_c, 1, 69, 64
3, 45000, Note_on_c, 1, 75, 127
3, 45090, Note_off_c, 1, 75, 64
3, 45120, Note_on_c, 1, 76, 127
3, 45210, Note_off_c, 1, 76, 64
3, 45420, Note_on_c, 1, 64, 127
3, 45444, Note_off_c, 1, 64, 64
3, 45450, Note_on_c, 1, 66, 127
3, 45474, Note_off_c, 1, 66, 64
3, 45480, Note_on_c, 1, 68, 127
3, 45504, Note_off_c, 1, 68, 64
3, 45510, Note_on_c, 1, 69, 127
3, 45534, Note_off_c, 1, 69, 64
3, 45540, Note_on_c, 1, 71, 127
3, 45564, Note_off_c, 1, 71, 64
3, 45570, Note_on_c, 1, 72, 127
3, 45594, Note_off_c, 1, 72, 64
3, 45600, Note_on_c, 1, 74, 127
3, 45744, Note_off_c, 1, 74, 64
3, 45750, Note_on_c, 1, 71, 127
3, 45774, Note_off_c, 1, 71, 64
3, 45780, Note_on_c, 1, 68, 127
3, 45804, Note_off_c, 1, 68, 64
3, 45810, Note_on_c, 1, 69, 127
3, 45834, Note_off_c, 1, 69, 64
3, 45840, Note_on_c, 1, 71, 127
3, 45864, Note_off_c, 1, 71, 64
3, 45870, Note_on_c, 1, 72, 127
3, 45894, Note_off_c, 1, 72, 64
3, 45900, Note_on_c, 1, 74, 127
3, 45924, Note_off_c, 1, 74, 64
3, 45930, Note_on_c, 1, 76, 127
3, 45954, Note_off_c, 1, 76, 64
3, 45960, Note_on_c, 1, 77, 127
3, 45984, Note_off_c, 1, 77, 64
3, 45990, Note_on_c, 1, 76, 127
3, 46014, Note_off_c, 1, 76, 64
3, 46020, Note_on_c, 1, 75, 127
3, 46044, Note_off_c, 1, 75, 64
3, 46050, Note_on_c, 1, 76, 127
3, 46074, Note_off_c, 1, 76, 64
3, 46080, Note_on_c, 1, 74, 127
3, 46095, Note_off_c, 1, 74, 64
3, 46095, Note_on_c, 1, 73, 127
3, 46107, Note_off_c, 1, 73, 64
3, 46110, Note_on_c, 1, 74, 127
3, 46122, Note_off_c, 1, 74, 64
3, 46125, Note_on_c, 1, 73, 127
3, 46137, Note_off_c, 1, 73, 64
3, 46140, Note_on_c, 1, 74, 127
3, 46152, Note_off_c, 1, 74, 64
3, 46155, Note_on_c, 1, 73, 127
3, 46167, Note_off_c, 1, 73, 64
3, 46170, Note_on_c, 1, 74, 127
3, 46182, Note_off_c, 1, 74, 64
3, 46185, Note_on_c, 1, 73, 127
3, 46197, Note_off_c, 1, 73, 64
3, 46200, Note_on_c, 1, 74, 127
3, 46212, Note_off_c, 1, 74, 64
3, 46215, Note_on_c, 1, 73, 127
3, 46227, Note_off_c, 1, 73, 64
3, 46230, Note_on_c, 1, 74, 127
3, 46242, Note_off_c, 1, 74, 64
3, 46245, Note_on_c, 1, 73, 127
3, 46257, Note_off_c, 1, 73, 64
3, 46260, Note_on_c, 1, 74, 127
3, 46272, Note_off_c, 1, 74, 64
3, 46275, Note_on_c, 1, 73, 127
3, 46287, Note_off_c, 1, 73, 64
3, 46290, Note_on_c, 1, 74, 127
3, 46302, Note_off_c, 1, 74, 64
3, 46305, Note_on_c, 1, 73, 127
3, 46536, Note_off_c, 1, 73, 64
3, 46560, Note_on_c, 1, 71, 127
3, 46650, Note_off_c, 1, 71, 64
3, 46680, Note_on_c, 1, 64, 127
3, 46776, Note_off_c, 1, 64, 64
3, 46800, Note_on_c, 1, 69, 127
3, 46848, Note_off_c, 1, 69, 64
3, 46860, Note_on_c, 1, 71, 127
3, 46908, Note_off_c, 1, 71, 64
3, 46920, Note_on_c, 1, 72, 127
3, 46977, Note_off_c, 1, 72, 64
3, 46980, Note_on_c, 1, 71, 127
3, 47037, Note_off_c, 1, 71, 64
3, 47040, Note_on_c, 1, 69, 127
3, 47136, Note_off_c, 1, 69, 64
3, 47160, Note_on_c, 1, 69, 127
3, 47184, Note_off_c, 1, 69, 64
3, 47190, Note_on_c, 1, 68, 127
3, 47214, Note_off_c, 1, 68, 64
3, 47220, Note_on_c, 1, 69, 127
3, 47244, Note_off_c, 1, 69, 64
3, 47250, Note_on_c, 1, 68, 127
3, 47279, Note_off_c, 1, 68, 64
3, 47280, Note_on_c, 1, 69, 127
3, 47370, Note_off_c, 1, 69, 64
3, 47520, Note_on_c, 1, 62, 127
3, 47568, Note_off_c, 1, 62, 64
3, 47580, Note_on_c, 1, 61, 127
3, 47693, Note_off_c, 1, 61, 64
3, 47700, Note_on_c, 1, 62, 127
3, 47724, Note_off_c, 1, 62, 64
3, 47730, Note_on_c, 1, 64, 127
3, 47754, Note_off_c, 1, 64, 64
3, 47760, Note_on_c, 1, 62, 127
3, 47784, Note_off_c, 1, 62, 64
3, 47790, Note_on_c, 1, 61, 127
3, 47814, Note_off_c, 1, 61, 64
3, 47820, Note_on_c, 1, 59, 127
3, 47844, Note_off_c, 1, 59, 64
3, 47850, Note_on_c, 1, 57, 127
3, 47874, Note_off_c, 1, 57, 64
3, 47880, Note_on_c, 1, 67, 127
3, 47904, Note_off_c, 1, 67, 64
3, 47910, Note_on_c, 1, 66, 127
3, 47934, Note_off_c, 1, 66, 64
3, 47940, Note_on_c, 1, 64, 127
3, 47988, Note_off_c, 1, 64, 64
3, 48000, Note_on_c, 1, 66, 127
3, 48096, Note_off_c, 1, 66, 64
3, 48240, Note_on_c, 1, 67, 127
3, 48247, Note_off_c, 1, 67, 64
3, 48247, Note_on_c, 1, 65, 127
3, 48254, Note_off_c, 1, 65, 64
3, 48254, Note_on_c, 1, 67, 127
3, 48261, Note_off_c, 1, 67, 64
3, 48261, Note_on_c, 1, 65, 127
3, 48268, Note_off_c, 1, 65, 64
3, 48268, Note_on_c, 1, 64, 127
3, 48292, Note_off_c, 1, 64, 64
3, 48298, Note_on_c, 1, 65, 127
3, 48394, Note_off_c, 1, 65, 64
3, 48418, Note_on_c, 1, 68, 127
3, 48514, Note_off_c, 1, 68, 64
3, 48538, Note_on_c, 1, 71, 127
3, 48586, Note_off_c, 1, 71, 64
3, 48598, Note_on_c, 1, 74, 127
3, 48646, Note_off_c, 1, 74, 64
3, 48658, Note_on_c, 1, 65, 127
3, 48706, Note_off_c, 1, 65, 64
3, 48718, Note_on_c, 1, 64, 127
3, 48862, Note_off_c, 1, 64, 64
3, 48898, Note_on_c, 1, 63, 127
3, 48946, Note_off_c, 1, 63, 64
3, 48960, Note_on_c, 1, 64, 127
3, 48984, Note_off_c, 1, 64, 64
3, 48990, Note_on_c, 1, 68, 127
3, 49014, Note_off_c, 1, 68, 64
3, 49020, Note_on_c, 1, 69, 127
3, 49068, Note_off_c, 1, 69, 64
3, 49080, Note_on_c, 1, 57, 127
3, 49128, Note_off_c, 1, 57, 64
3, 49140, Note_on_c, 1, 62, 127
3, 49236, Note_off_c, 1, 62, 64
3, 49260, Note_on_c, 1, 60, 127
3, 49284, Note_off_c, 1, 60, 64
3, 49290, Note_on_c, 1, 59, 127
3, 49314, Note_off_c, 1, 59, 64
3, 49320, Note_on_c, 1, 60, 127
3, 49368, Note_off_c, 1, 60, 64
3, 49380, Note_on_c, 1, 72, 127
3, 49428, Note_off_c, 1, 72, 64
3, 49440, Note_on_c, 1, 71, 127
3, 49488, Note_off_c, 1, 71, 64
3, 49500, Note_on_c, 1, 64, 127
3, 49596, Note_off_c, 1, 64, 64
3, 49620, Note_on_c, 1, 63, 127
3, 49668, Note_off_c, 1, 63, 64
3, 49680, Note_on_c, 1, 64, 127
3, 49704, Note_off_c, 1, 64, 64
3, 49710, Note_on_c, 1, 62, 127
3, 49734, Note_off_c, 1, 62, 64
3, 49740, Note_on_c, 1, 60, 127
3, 49788, Note_off_c, 1, 60, 64
3, 49800, Note_on_c, 1, 59, 127
3, 49992, Note_off_c, 1, 59, 64
3, 50040, Note_on_c, 1, 59, 127
3, 50184, Note_off_c, 1, 59, 64
3, 50220, Note_on_c, 1, 71, 127
3, 50268, Note_off_c, 1, 71, 64
3, 50280, Note_on_c, 1, 69, 127
3, 50304, Note_off_c, 1, 69, 64
3, 50310, Note_on_c, 1, 68, 127
3, 50334, Note_off_c, 1, 68, 64
3, 50340, Note_on_c, 1, 66, 127
3, 50364, Note_off_c, 1, 66, 64
3, 50370, Note_on_c, 1, 68, 127
3, 50394, Note_off_c, 1, 68, 64
3, 50400, Note_on_c, 1, 74, 127
3, 50448, Note_off_c, 1, 74, 64
3, 50460, Note_on_c, 1, 65, 127
3, 50508, Note_off_c, 1, 65, 64
3, 50520, Note_on_c, 1, 64, 127
3, 50616, Note_off_c, 1, 64, 64
3, 50700, Note_on_c, 1, 72, 127
3, 50748, Note_off_c, 1, 72, 64
3, 50760, Note_on_c, 1, 71, 127
3, 50784, Note_off_c, 1, 71, 64
3, 50790, Note_on_c, 1, 69, 127
3, 50814, Note_off_c, 1, 69, 64
3, 50820, Note_on_c, 1, 68, 127
3, 50868, Note_off_c, 1, 68, 64
3, 50880, Note_on_c, 1, 69, 127
3, 50928, Note_off_c, 1, 69, 64
3, 50940, Note_on_c, 1, 67, 127
3, 50964, Note_off_c, 1, 67, 64
3, 50970, Note_on_c, 1, 66, 127
3, 50994, Note_off_c, 1, 66, 64
3, 51000, Note_on_c, 1, 64, 127
3, 51024, Note_off_c, 1, 64, 64
3, 51030, Note_on_c, 1, 63, 127
3, 51054, Note_off_c, 1, 63, 64
3, 51060, Note_on_c, 1, 64, 127
3, 51108, Note_off_c, 1, 64, 64
3, 51120, Note_on_c, 1, 57, 127
3, 51168, Note_off_c, 1, 57, 64
3, 51180, Note_on_c, 1, 64, 127
3, 51228, Note_off_c, 1, 64, 64
3, 51240, Note_on_c, 1, 63, 127
3, 51336, Note_off_c, 1, 63, 64
3, 51480, Note_on_c, 1, 66, 127
3, 51528, Note_off_c, 1, 66, 64
3, 51540, Note_on_c, 1, 57, 127
3, 51588, Note_off_c, 1, 57, 64
3, 51600, Note_on_c, 1, 55, 127
3, 51648, Note_off_c, 1, 55, 64
3, 51660, Note_on_c, 1, 59, 127
3, 51708, Note_off_c, 1, 59, 64
3, 51720, Note_on_c, 1, 63, 127
3, 51816, Note_off_c, 1, 63, 64
3, 51900, Note_on_c, 1, 71, 127
3, 51948, Note_off_c, 1, 71, 64
3, 51960, Note_on_c, 1, 72, 127
3, 52008, Note_off_c, 1, 72, 64
3, 52020, Note_on_c, 1, 69, 127
3, 52068, Note_off_c, 1, 69, 64
3, 52080, Note_on_c, 1, 66, 127
3, 52128, Note_off_c, 1, 66, 64
3, 52140, Note_on_c, 1, 75, 127
3, 52188, Note_off_c, 1, 75, 64
3, 52200, Note_on_c, 1, 76, 127
3, 52248, Note_off_c, 1, 76, 64
3, 52260, Note_on_c, 1, 64, 127
3, 52356, Note_off_c, 1, 64, 64
3, 52380, Note_on_c, 1, 62, 127
3, 52464, Note_off_c, 1, 62, 64
3, 52470, Note_on_c, 1, 61, 127
3, 52494, Note_off_c, 1, 61, 64
3, 52500, Note_on_c, 1, 62, 127
3, 52548, Note_off_c, 1, 62, 64
3, 52560, Note_on_c, 1, 61, 127
3, 52584, Note_off_c, 1, 61, 64
3, 52590, Note_on_c, 1, 62, 127
3, 52614, Note_off_c, 1, 62, 64
3, 52620, Note_on_c, 1, 64, 127
3, 52668, Note_off_c, 1, 64, 64
3, 52800, Note_on_c, 1, 76, 127
3, 52968, Note_off_c, 1, 76, 64
3, 52980, Note_on_c, 1, 74, 127
3, 53076, Note_off_c, 1, 74, 64
3, 53100, Note_on_c, 1, 72, 127
3, 53184, Note_off_c, 1, 72, 64
3, 53190, Note_on_c, 1, 71, 127
3, 53214, Note_off_c, 1, 71, 64
3, 53220, Note_on_c, 1, 69, 127
3, 53268, Note_off_c, 1, 69, 64
3, 53280, Note_on_c, 1, 71, 127
3, 53304, Note_off_c, 1, 71, 64
3, 53310, Note_on_c, 1, 72, 127
3, 53334, Note_off_c, 1, 72, 64
3, 53340, Note_on_c, 1, 74, 127
3, 53388, Note_off_c, 1, 74, 64
3, 53520, Note_on_c, 1, 62, 127
3, 53688, Note_off_c, 1, 62, 64
3, 53700, Note_on_c, 1, 60, 127
3, 53796, Note_off_c, 1, 60, 64
3, 53820, Note_on_c, 1, 58, 127
3, 53904, Note_off_c, 1, 58, 64
3, 53910, Note_on_c, 1, 57, 127
3, 53934, Note_off_c, 1, 57, 64
3, 53940, Note_on_c, 1, 55, 127
3, 53988, Note_off_c, 1, 55, 64
3, 54000, Note_on_c, 1, 57, 127
3, 54096, Note_off_c, 1, 57, 64
3, 54120, Note_on_c, 1, 64, 127
3, 54144, Note_off_c, 1, 64, 64
3, 54150, Note_on_c, 1, 62, 127
3, 54174, Note_off_c, 1, 62, 64
3, 54180, Note_on_c, 1, 64, 127
3, 54204, Note_off_c, 1, 64, 64
3, 54210, Note_on_c, 1, 62, 127
3, 54234, Note_off_c, 1, 62, 64
3, 54240, Note_on_c, 1, 64, 127
3, 54264, Note_off_c, 1, 64, 64
3, 54270, Note_on_c, 1, 62, 127
3, 54294, Note_off_c, 1, 62, 64
3, 54300, Note_on_c, 1, 64, 127
3, 54324, Note_off_c, 1, 64, 64
3, 54330, Note_on_c, 1, 62, 127
3, 54384, Note_off_c, 1, 62, 64
3, 54390, Note_on_c, 1, 60, 127
3, 54414, Note_off_c, 1, 60, 64
3, 54420, Note_on_c, 1, 59, 127
3, 54468, Note_off_c, 1, 59, 64
3, 54480, Note_on_c, 1, 60, 127
3, 54576, Note_off_c, 1, 60, 64
3, 54600, Note_on_c, 1, 74, 127
3, 54744, Note_off_c, 1, 74, 64
3, 54750, Note_on_c, 1, 72, 127
3, 54774, Note_off_c, 1, 72, 64
3, 54780, Note_on_c, 1, 71, 127
3, 54828, Note_off_c, 1, 71, 64
3, 54840, Note_on_c, 1, 74, 127
3, 54864, Note_off_c, 1, 74, 64
3, 54870, Note_on_c, 1, 72, 127
3, 54894, Note_off_c, 1, 72, 64
3, 54900, Note_on_c, 1, 74, 127
3, 54924, Note_off_c, 1, 74, 64
3, 54930, Note_on_c, 1, 72, 127
3, 54954, Note_off_c, 1, 72, 64
3, 54960, Note_on_c, 1, 74, 127
3, 54984, Note_off_c, 1, 74, 64
3, 54990, Note_on_c, 1, 72, 127
3, 55014, Note_off_c, 1, 72, 64
3, 55020, Note_on_c, 1, 74, 127
3, 55044, Note_off_c, 1, 74, 64
3, 55050, Note_on_c, 1, 72, 127
3, 55224, Note_off_c, 1, 72, 64
3, 55260, Note_on_c, 1, 71, 127
3, 55284, Note_off_c, 1, 71, 64
3, 55290, Note_on_c, 1, 69, 127
3, 55314, Note_off_c, 1, 69, 64
3, 55320, Note_on_c, 1, 67, 127
3, 55344, Note_off_c, 1, 67, 64
3, 55350, Note_on_c, 1, 65, 127
3, 55374, Note_off_c, 1, 65, 64
3, 55380, Note_on_c, 1, 64, 127
3, 55428, Note_off_c, 1, 64, 64
3, 55440, Note_on_c, 1, 63, 127
3, 55536, Note_off_c, 1, 63, 64
3, 55560, Note_on_c, 1, 64, 127
3, 55584, Note_off_c, 1, 64, 64
3, 55590, Note_on_c, 1, 63, 127
3, 55614, Note_off_c, 1, 63, 64
3, 55620, Note_on_c, 1, 64, 127
3, 55677, Note_off_c, 1, 64, 64
3, 55680, Note_on_c, 1, 76, 127
3, 55824, Note_off_c, 1, 76, 64
3, 55830, Note_on_c, 1, 75, 127
3, 55854, Note_off_c, 1, 75, 64
3, 55860, Note_on_c, 1, 73, 127
3, 55908, Note_off_c, 1, 73, 64
3, 55920, Note_on_c, 1, 75, 127
3, 56010, Note_off_c, 1, 75, 64
3, 56040, Note_on_c, 1, 74, 127
3, 56184, Note_off_c, 1, 74, 64
3, 56190, Note_on_c, 1, 73, 127
3, 56214, Note_off_c, 1, 73, 64
3, 56220, Note_on_c, 1, 71, 127
3, 56268, Note_off_c, 1, 71, 64
3, 56280, Note_on_c, 1, 73, 127
3, 56370, Note_off_c, 1, 73, 64
3, 56400, Note_on_c, 1, 72, 127
3, 56544, Note_off_c, 1, 72, 64
3, 56550, Note_on_c, 1, 71, 127
3, 56574, Note_off_c, 1, 71, 64
3, 56580, Note_on_c, 1, 70, 127
3, 56628, Note_off_c, 1, 70, 64
3, 56640, Note_on_c, 1, 71, 127
3, 56730, Note_off_c, 1, 71, 64
3, 56760, Note_on_c, 1, 70, 127
3, 56904, Note_off_c, 1, 70, 64
3, 56910, Note_on_c, 1, 69, 127
3, 56934, Note_off_c, 1, 69, 64
3, 56940, Note_on_c, 1, 68, 127
3, 56988, Note_off_c, 1, 68, 64
3, 57000, Note_on_c, 1, 69, 127
3, 57090, Note_off_c, 1, 69, 64
3, 57120, Note_on_c, 1, 57, 127
3, 57264, Note_off_c, 1, 57, 64
3, 57270, Note_on_c, 1, 55, 127
3, 57294, Note_off_c, 1, 55, 64
3, 57300, Note_on_c, 1, 54, 127
3, 57348, Note_off_c, 1, 54, 64
3, 57360, Note_on_c, 1, 55, 127
3, 57450, Note_off_c, 1, 55, 64
3, 57480, Note_on_c, 1, 67, 127
3, 57600, Note_on_c, 1, 67, 127
3, 57624, Note_off_c, 1, 67, 64
3, 57630, Note_on_c, 1, 66, 127
3, 57654, Note_off_c, 1, 66, 64
3, 57660, Note_on_c, 1, 64, 127
3, 57708, Note_off_c, 1, 64, 64
3, 57720, Note_on_c, 1, 66, 127
3, 57810, Note_off_c, 1, 66, 64
3, 57840, Note_on_c, 1, 64, 127
3, 57864, Note_off_c, 1, 64, 64
3, 57870, Note_on_c, 1, 63, 127
3, 57894, Note_off_c, 1, 63, 64
3, 57900, Note_on_c, 1, 64, 127
3, 57924, Note_off_c, 1, 64, 64
3, 57930, Note_on_c, 1, 63, 127
3, 57959, Note_off_c, 1, 63, 64
3, 57960, Note_on_c, 1, 64, 127
3, 58248, Note_off_c, 1, 64, 64
3, 58248, End_track
4, 0, Start_track
4, 0, Title_t, "Arr. Gary Bricault, (c) 1997"
4, 0, Program_c, 2, 19
4, 0, Control_c, 2, 7, 127
4, 120, Note_on_c, 2, 52, 127
4, 216, Note_off_c, 2, 52, 64
4, 240, Note_on_c, 2, 54, 127
4, 336, Note_off_c, 2, 54, 64
4, 360, Note_on_c, 2, 55, 127
4, 456, Note_off_c, 2, 55, 64
4, 480, Note_on_c, 2, 57, 127
4, 576, Note_off_c, 2, 57, 64
4, 600, Note_on_c, 2, 55, 127
4, 696, Note_off_c, 2, 55, 64
4, 720, Note_on_c, 2, 57, 127
4, 816, Note_off_c, 2, 57, 64
4, 840, Note_on_c, 2, 59, 127
4, 936, Note_off_c, 2, 59, 64
4, 960, Note_on_c, 2, 60, 127
4, 1056, Note_off_c, 2, 60, 64
4, 1080, Note_on_c, 2, 62, 127
4, 1176, Note_off_c, 2, 62, 64
4, 1200, Note_on_c, 2, 52, 127
4, 1296, Note_off_c, 2, 52, 64
4, 1320, Note_on_c, 2, 57, 127
4, 1416, Note_off_c, 2, 57, 64
4, 1440, Note_on_c, 2, 55, 127
4, 1536, Note_off_c, 2, 55, 64
4, 1560, Note_on_c, 2, 54, 127
4, 1656, Note_off_c, 2, 54, 64
4, 1680, Note_on_c, 2, 57, 127
4, 1776, Note_off_c, 2, 57, 64
4, 1800, Note_on_c, 2, 60, 127
4, 1896, Note_off_c, 2, 60, 64
4, 1920, Note_on_c, 2, 51, 127
4, 2016, Note_off_c, 2, 51, 64
4, 2040, Note_on_c, 2, 52, 127
4, 2136, Note_off_c, 2, 52, 64
4, 2160, Note_on_c, 2, 54, 127
4, 2256, Note_off_c, 2, 54, 64
4, 2280, Note_on_c, 2, 55, 127
4, 2376, Note_off_c, 2, 55, 64
4, 2400, Note_on_c, 2, 57, 127
4, 2496, Note_off_c, 2, 57, 64
4, 2520, Note_on_c, 2, 59, 127
4, 2616, Note_off_c, 2, 59, 64
4, 2640, Note_on_c, 2, 52, 127
4, 2736, Note_off_c, 2, 52, 64
4, 2760, Note_on_c, 2, 50, 127
4, 2856, Note_off_c, 2, 50, 64
4, 2880, Note_on_c, 2, 49, 127
4, 2976, Note_off_c, 2, 49, 64
4, 3000, Note_on_c, 2, 47, 127
4, 3096, Note_off_c, 2, 47, 64
4, 3120, Note_on_c, 2, 49, 127
4, 3216, Note_off_c, 2, 49, 64
4, 3240, Note_on_c, 2, 50, 127
4, 3336, Note_off_c, 2, 50, 64
4, 3360, Note_on_c, 2, 52, 127
4, 3456, Note_off_c, 2, 52, 64
4, 3480, Note_on_c, 2, 50, 127
4, 3576, Note_off_c, 2, 50, 64
4, 3600, Note_on_c, 2, 52, 127
4, 3696, Note_off_c, 2, 52, 64
4, 3720, Note_on_c, 2, 54, 127
4, 3816, Note_off_c, 2, 54, 64
4, 3840, Note_on_c, 2, 55, 127
4, 3936, Note_off_c, 2, 55, 64
4, 3960, Note_on_c, 2, 57, 127
4, 4056, Note_off_c, 2, 57, 64
4, 4080, Note_on_c, 2, 47, 127
4, 4176, Note_off_c, 2, 47, 64
4, 4200, Note_on_c, 2, 52, 127
4, 4296, Note_off_c, 2, 52, 64
4, 4320, Note_on_c, 2, 50, 127
4, 4416, Note_off_c, 2, 50, 64
4, 4440, Note_on_c, 2, 49, 127
4, 4536, Note_off_c, 2, 49, 64
4, 4560, Note_on_c, 2, 52, 127
4, 4656, Note_off_c, 2, 52, 64
4, 4680, Note_on_c, 2, 55, 127
4, 4776, Note_off_c, 2, 55, 64
4, 4800, Note_on_c, 2, 46, 127
4, 4896, Note_off_c, 2, 46, 64
4, 4920, Note_on_c, 2, 47, 127
4, 5016, Note_off_c, 2, 47, 64
4, 5040, Note_on_c, 2, 49, 127
4, 5136, Note_off_c, 2, 49, 64
4, 5160, Note_on_c, 2, 50, 127
4, 5256, Note_off_c, 2, 50, 64
4, 5280, Note_on_c, 2, 52, 127
4, 5376, Note_off_c, 2, 52, 64
4, 5400, Note_on_c, 2, 54, 127
4, 5496, Note_off_c, 2, 54, 64
4, 5520, Note_on_c, 2, 47, 127
4, 5616, Note_off_c, 2, 47, 64
4, 5640, Note_on_c, 2, 48, 127
4, 5736, Note_off_c, 2, 48, 64
4, 5760, Note_on_c, 2, 50, 127
4, 5856, Note_off_c, 2, 50, 64
4, 5880, Note_on_c, 2, 52, 127
4, 5976, Note_off_c, 2, 52, 64
4, 6000, Note_on_c, 2, 54, 127
4, 6096, Note_off_c, 2, 54, 64
4, 6120, Note_on_c, 2, 56, 127
4, 6216, Note_off_c, 2, 56, 64
4, 6240, Note_on_c, 2, 45, 127
4, 6336, Note_off_c, 2, 45, 64
4, 6360, Note_on_c, 2, 47, 127
4, 6456, Note_off_c, 2, 47, 64
4, 6480, Note_on_c, 2, 48, 127
4, 6576, Note_off_c, 2, 48, 64
4, 6600, Note_on_c, 2, 50, 127
4, 6696, Note_off_c, 2, 50, 64
4, 6720, Note_on_c, 2, 52, 127
4, 6816, Note_off_c, 2, 52, 64
4, 6840, Note_on_c, 2, 54, 127
4, 6936, Note_off_c, 2, 54, 64
4, 6960, Note_on_c, 2, 43, 127
4, 7056, Note_off_c, 2, 43, 64
4, 7080, Note_on_c, 2, 45, 127
4, 7176, Note_off_c, 2, 45, 64
4, 7200, Note_on_c, 2, 47, 127
4, 7296, Note_off_c, 2, 47, 64
4, 7320, Note_on_c, 2, 48, 127
4, 7464, Note_off_c, 2, 48, 64
4, 7500, Note_on_c, 2, 47, 127
4, 7548, Note_off_c, 2, 47, 64
4, 7560, Note_on_c, 2, 45, 127
4, 7656, Note_off_c, 2, 45, 64
4, 7680, Note_on_c, 2, 51, 127
4, 7776, Note_off_c, 2, 51, 64
4, 7800, Note_on_c, 2, 52, 127
4, 7896, Note_off_c, 2, 52, 64
4, 7920, Note_on_c, 2, 54, 127
4, 8016, Note_off_c, 2, 54, 64
4, 8040, Note_on_c, 2, 55, 127
4, 8184, Note_off_c, 2, 55, 64
4, 8220, Note_on_c, 2, 54, 127
4, 8268, Note_off_c, 2, 54, 64
4, 8280, Note_on_c, 2, 52, 127
4, 8376, Note_off_c, 2, 52, 64
4, 8400, Note_on_c, 2, 58, 127
4, 8496, Note_off_c, 2, 58, 64
4, 8520, Note_on_c, 2, 59, 127
4, 8616, Note_off_c, 2, 59, 64
4, 8640, Note_on_c, 2, 49, 127
4, 8736, Note_off_c, 2, 49, 64
4, 8760, Note_on_c, 2, 50, 127
4, 8904, Note_off_c, 2, 50, 64
4, 8940, Note_on_c, 2, 49, 127
4, 8988, Note_off_c, 2, 49, 64
4, 9000, Note_on_c, 2, 47, 127
4, 9096, Note_off_c, 2, 47, 64
4, 9120, Note_on_c, 2, 53, 127
4, 9216, Note_off_c, 2, 53, 64
4, 9240, Note_on_c, 2, 54, 127
4, 9336, Note_off_c, 2, 54, 64
4, 9480, Note_on_c, 2, 51, 127
4, 9576, Note_off_c, 2, 51, 64
4, 9600, Note_on_c, 2, 52, 127
4, 9696, Note_off_c, 2, 52, 64
4, 9840, Note_on_c, 2, 49, 127
4, 9936, Note_off_c, 2, 49, 64
4, 9960, Note_on_c, 2, 50, 127
4, 10056, Note_off_c, 2, 50, 64
4, 10200, Note_on_c, 2, 47, 127
4, 10296, Note_off_c, 2, 47, 64
4, 10320, Note_on_c, 2, 48, 127
4, 10416, Note_off_c, 2, 48, 64
4, 10560, Note_on_c, 2, 46, 127
4, 10656, Note_off_c, 2, 46, 64
4, 10680, Note_on_c, 2, 47, 127
4, 10776, Note_off_c, 2, 47, 64
4, 10920, Note_on_c, 2, 43, 127
4, 11016, Note_off_c, 2, 43, 64
4, 11040, Note_on_c, 2, 40, 127
4, 11136, Note_off_c, 2, 40, 64
4, 11160, Note_on_c, 2, 42, 127
4, 11256, Note_off_c, 2, 42, 64
4, 11280, Note_on_c, 2, 47, 127
4, 11505, Note_off_c, 2, 47, 64
4, 11640, Note_on_c, 2, 52, 127
4, 11736, Note_off_c, 2, 52, 64
4, 11760, Note_on_c, 2, 54, 127
4, 11856, Note_off_c, 2, 54, 64
4, 11880, Note_on_c, 2, 55, 127
4, 11976, Note_off_c, 2, 55, 64
4, 12000, Note_on_c, 2, 57, 127
4, 12096, Note_off_c, 2, 57, 64
4, 12120, Note_on_c, 2, 55, 127
4, 12216, Note_off_c, 2, 55, 64
4, 12240, Note_on_c, 2, 57, 127
4, 12336, Note_off_c, 2, 57, 64
4, 12360, Note_on_c, 2, 59, 127
4, 12456, Note_off_c, 2, 59, 64
4, 12480, Note_on_c, 2, 60, 127
4, 12576, Note_off_c, 2, 60, 64
4, 12600, Note_on_c, 2, 62, 127
4, 12696, Note_off_c, 2, 62, 64
4, 12720, Note_on_c, 2, 52, 127
4, 12816, Note_off_c, 2, 52, 64
4, 12840, Note_on_c, 2, 57, 127
4, 12936, Note_off_c, 2, 57, 64
4, 12960, Note_on_c, 2, 55, 127
4, 13056, Note_off_c, 2, 55, 64
4, 13080, Note_on_c, 2, 54, 127
4, 13176, Note_off_c, 2, 54, 64
4, 13200, Note_on_c, 2, 57, 127
4, 13296, Note_off_c, 2, 57, 64
4, 13320, Note_on_c, 2, 60, 127
4, 13416, Note_off_c, 2, 60, 64
4, 13440, Note_on_c, 2, 51, 127
4, 13536, Note_off_c, 2, 51, 64
4, 13560, Note_on_c, 2, 52, 127
4, 13656, Note_off_c, 2, 52, 64
4, 13680, Note_on_c, 2, 54, 127
4, 13776, Note_off_c, 2, 54, 64
4, 13800, Note_on_c, 2, 55, 127
4, 13896, Note_off_c, 2, 55, 64
4, 13920, Note_on_c, 2, 57, 127
4, 14016, Note_off_c, 2, 57, 64
4, 14040, Note_on_c, 2, 59, 127
4, 14136, Note_off_c, 2, 59, 64
4, 14160, Note_on_c, 2, 52, 127
4, 14256, Note_off_c, 2, 52, 64
4, 14280, Note_on_c, 2, 50, 127
4, 14376, Note_off_c, 2, 50, 64
4, 14400, Note_on_c, 2, 49, 127
4, 14496, Note_off_c, 2, 49, 64
4, 14520, Note_on_c, 2, 47, 127
4, 14616, Note_off_c, 2, 47, 64
4, 14640, Note_on_c, 2, 49, 127
4, 14736, Note_off_c, 2, 49, 64
4, 14760, Note_on_c, 2, 50, 127
4, 14856, Note_off_c, 2, 50, 64
4, 14880, Note_on_c, 2, 52, 127
4, 14976, Note_off_c, 2, 52, 64
4, 15000, Note_on_c, 2, 50, 127
4, 15096, Note_off_c, 2, 50, 64
4, 15120, Note_on_c, 2, 52, 127
4, 15216, Note_off_c, 2, 52, 64
4, 15240, Note_on_c, 2, 54, 127
4, 15336, Note_off_c, 2, 54, 64
4, 15360, Note_on_c, 2, 55, 127
4, 15456, Note_off_c, 2, 55, 64
4, 15480, Note_on_c, 2, 57, 127
4, 15576, Note_off_c, 2, 57, 64
4, 15600, Note_on_c, 2, 47, 127
4, 15696, Note_off_c, 2, 47, 64
4, 15720, Note_on_c, 2, 52, 127
4, 15816, Note_off_c, 2, 52, 64
4, 15840, Note_on_c, 2, 50, 127
4, 15936, Note_off_c, 2, 50, 64
4, 15960, Note_on_c, 2, 49, 127
4, 16056, Note_off_c, 2, 49, 64
4, 16080, Note_on_c, 2, 52, 127
4, 16176, Note_off_c, 2, 52, 64
4, 16200, Note_on_c, 2, 55, 127
4, 16296, Note_off_c, 2, 55, 64
4, 16320, Note_on_c, 2, 46, 127
4, 16416, Note_off_c, 2, 46, 64
4, 16440, Note_on_c, 2, 47, 127
4, 16536, Note_off_c, 2, 47, 64
4, 16560, Note_on_c, 2, 49, 127
4, 16656, Note_off_c, 2, 49, 64
4, 16680, Note_on_c, 2, 50, 127
4, 16776, Note_off_c, 2, 50, 64
4, 16800, Note_on_c, 2, 52, 127
4, 16896, Note_off_c, 2, 52, 64
4, 16920, Note_on_c, 2, 54, 127
4, 17016, Note_off_c, 2, 54, 64
4, 17040, Note_on_c, 2, 47, 127
4, 17136, Note_off_c, 2, 47, 64
4, 17160, Note_on_c, 2, 48, 127
4, 17256, Note_off_c, 2, 48, 64
4, 17280, Note_on_c, 2, 50, 127
4, 17376, Note_off_c, 2, 50, 64
4, 17400, Note_on_c, 2, 52, 127
4, 17496, Note_off_c, 2, 52, 64
4, 17520, Note_on_c, 2, 54, 127
4, 17616, Note_off_c, 2, 54, 64
4, 17640, Note_on_c, 2, 56, 127
4, 17736, Note_off_c, 2, 56, 64
4, 17760, Note_on_c, 2, 45, 127
4, 17856, Note_off_c, 2, 45, 64
4, 17880, Note_on_c, 2, 47, 127
4, 17976, Note_off_c, 2, 47, 64
4, 18000, Note_on_c, 2, 48, 127
4, 18096, Note_off_c, 2, 48, 64
4, 18120, Note_on_c, 2, 50, 127
4, 18216, Note_off_c, 2, 50, 64
4, 18240, Note_on_c, 2, 52, 127
4, 18336, Note_off_c, 2, 52, 64
4, 18360, Note_on_c, 2, 54, 127
4, 18456, Note_off_c, 2, 54, 64
4, 18480, Note_on_c, 2, 43, 127
4, 18576, Note_off_c, 2, 43, 64
4, 18600, Note_on_c, 2, 45, 127
4, 18696, Note_off_c, 2, 45, 64
4, 18720, Note_on_c, 2, 47, 127
4, 18816, Note_off_c, 2, 47, 64
4, 18840, Note_on_c, 2, 48, 127
4, 18984, Note_off_c, 2, 48, 64
4, 19020, Note_on_c, 2, 47, 127
4, 19068, Note_off_c, 2, 47, 64
4, 19080, Note_on_c, 2, 45, 127
4, 19176, Note_off_c, 2, 45, 64
4, 19200, Note_on_c, 2, 51, 127
4, 19296, Note_off_c, 2, 51, 64
4, 19320, Note_on_c, 2, 52, 127
4, 19416, Note_off_c, 2, 52, 64
4, 19440, Note_on_c, 2, 54, 127
4, 19536, Note_off_c, 2, 54, 64
4, 19560, Note_on_c, 2, 55, 127
4, 19704, Note_off_c, 2, 55, 64
4, 19740, Note_on_c, 2, 54, 127
4, 19788, Note_off_c, 2, 54, 64
4, 19800, Note_on_c, 2, 52, 127
4, 19896, Note_off_c, 2, 52, 64
4, 19920, Note_on_c, 2, 58, 127
4, 20016, Note_off_c, 2, 58, 64
4, 20040, Note_on_c, 2, 59, 127
4, 20136, Note_off_c, 2, 59, 64
4, 20160, Note_on_c, 2, 49, 127
4, 20256, Note_off_c, 2, 49, 64
4, 20280, Note_on_c, 2, 50, 127
4, 20424, Note_off_c, 2, 50, 64
4, 20460, Note_on_c, 2, 49, 127
4, 20508, Note_off_c, 2, 49, 64
4, 20520, Note_on_c, 2, 47, 127
4, 20616, Note_off_c, 2, 47, 64
4, 20640, Note_on_c, 2, 53, 127
4, 20736, Note_off_c, 2, 53, 64
4, 20760, Note_on_c, 2, 54, 127
4, 20856, Note_off_c, 2, 54, 64
4, 21000, Note_on_c, 2, 51, 127
4, 21096, Note_off_c, 2, 51, 64
4, 21120, Note_on_c, 2, 52, 127
4, 21216, Note_off_c, 2, 52, 64
4, 21360, Note_on_c, 2, 49, 127
4, 21456, Note_off_c, 2, 49, 64
4, 21480, Note_on_c, 2, 50, 127
4, 21576, Note_off_c, 2, 50, 64
4, 21720, Note_on_c, 2, 47, 127
4, 21816, Note_off_c, 2, 47, 64
4, 21840, Note_on_c, 2, 48, 127
4, 21936, Note_off_c, 2, 48, 64
4, 22080, Note_on_c, 2, 46, 127
4, 22176, Note_off_c, 2, 46, 64
4, 22200, Note_on_c, 2, 47, 127
4, 22296, Note_off_c, 2, 47, 64
4, 22440, Note_on_c, 2, 43, 127
4, 22536, Note_off_c, 2, 43, 64
4, 22560, Note_on_c, 2, 40, 127
4, 22656, Note_off_c, 2, 40, 64
4, 22680, Note_on_c, 2, 42, 127
4, 22776, Note_off_c, 2, 42, 64
4, 22800, Note_on_c, 2, 47, 127
4, 23025, Note_off_c, 2, 47, 64
4, 23040, Note_on_c, 2, 43, 127
4, 23136, Note_off_c, 2, 43, 64
4, 23160, Note_on_c, 2, 40, 127
4, 23256, Note_off_c, 2, 40, 64
4, 23280, Note_on_c, 2, 42, 127
4, 23376, Note_off_c, 2, 42, 64
4, 23400, Note_on_c, 2, 47, 127
4, 23496, Note_off_c, 2, 47, 64
4, 23520, Note_on_c, 2, 50, 127
4, 23616, Note_off_c, 2, 50, 64
4, 23640, Note_on_c, 2, 54, 127
4, 23736, Note_off_c, 2, 54, 64
4, 23760, Note_on_c, 2, 57, 127
4, 23856, Note_off_c, 2, 57, 64
4, 23880, Note_on_c, 2, 57, 127
4, 23976, Note_off_c, 2, 57, 64
4, 24000, Note_on_c, 2, 57, 127
4, 24096, Note_off_c, 2, 57, 64
4, 24120, Note_on_c, 2, 54, 127
4, 24216, Note_off_c, 2, 54, 64
4, 24240, Note_on_c, 2, 54, 127
4, 24336, Note_off_c, 2, 54, 64
4, 24360, Note_on_c, 2, 54, 127
4, 24456, Note_off_c, 2, 54, 64
4, 24480, Note_on_c, 2, 51, 127
4, 24576, Note_off_c, 2, 51, 64
4, 24600, Note_on_c, 2, 51, 127
4, 24696, Note_off_c, 2, 51, 64
4, 24720, Note_on_c, 2, 51, 127
4, 24816, Note_off_c, 2, 51, 64
4, 24840, Note_on_c, 2, 52, 127
4, 24936, Note_off_c, 2, 52, 64
4, 24960, Note_on_c, 2, 55, 127
4, 25056, Note_off_c, 2, 55, 64
4, 25080, Note_on_c, 2, 59, 127
4, 25176, Note_off_c, 2, 59, 64
4, 25200, Note_on_c, 2, 62, 127
4, 25296, Note_off_c, 2, 62, 64
4, 25320, Note_on_c, 2, 62, 127
4, 25416, Note_off_c, 2, 62, 64
4, 25440, Note_on_c, 2, 62, 127
4, 25536, Note_off_c, 2, 62, 64
4, 25560, Note_on_c, 2, 59, 127
4, 25656, Note_off_c, 2, 59, 64
4, 25680, Note_on_c, 2, 59, 127
4, 25776, Note_off_c, 2, 59, 64
4, 25800, Note_on_c, 2, 59, 127
4, 25896, Note_off_c, 2, 59, 64
4, 25920, Note_on_c, 2, 56, 127
4, 26016, Note_off_c, 2, 56, 64
4, 26040, Note_on_c, 2, 56, 127
4, 26136, Note_off_c, 2, 56, 64
4, 26160, Note_on_c, 2, 56, 127
4, 26256, Note_off_c, 2, 56, 64
4, 26280, Note_on_c, 2, 57, 127
4, 26376, Note_off_c, 2, 57, 64
4, 26400, Note_on_c, 2, 48, 127
4, 26496, Note_off_c, 2, 48, 64
4, 26520, Note_on_c, 2, 52, 127
4, 26616, Note_off_c, 2, 52, 64
4, 26640, Note_on_c, 2, 45, 127
4, 26784, Note_off_c, 2, 45, 64
4, 26820, Note_on_c, 2, 47, 127
4, 26868, Note_off_c, 2, 47, 64
4, 26880, Note_on_c, 2, 49, 127
4, 26976, Note_off_c, 2, 49, 64
4, 27000, Note_on_c, 2, 43, 127
4, 27096, Note_off_c, 2, 43, 64
4, 27120, Note_on_c, 2, 41, 127
4, 27216, Note_off_c, 2, 41, 64
4, 27360, Note_on_c, 2, 47, 127
4, 27504, Note_off_c, 2, 47, 64
4, 27540, Note_on_c, 2, 49, 127
4, 27588, Note_off_c, 2, 49, 64
4, 27600, Note_on_c, 2, 51, 127
4, 27696, Note_off_c, 2, 51, 64
4, 27720, Note_on_c, 2, 45, 127
4, 27816, Note_off_c, 2, 45, 64
4, 27840, Note_on_c, 2, 43, 127
4, 27936, Note_off_c, 2, 43, 64
4, 28080, Note_on_c, 2, 56, 127
4, 28224, Note_off_c, 2, 56, 64
4, 28260, Note_on_c, 2, 57, 127
4, 28308, Note_off_c, 2, 57, 64
4, 28320, Note_on_c, 2, 59, 127
4, 28416, Note_off_c, 2, 59, 64
4, 28440, Note_on_c, 2, 53, 127
4, 28536, Note_off_c, 2, 53, 64
4, 28560, Note_on_c, 2, 52, 127
4, 28656, Note_off_c, 2, 52, 64
4, 28800, Note_on_c, 2, 52, 127
4, 28896, Note_off_c, 2, 52, 64
4, 28920, Note_on_c, 2, 51, 127
4, 29016, Note_off_c, 2, 51, 64
4, 29160, Note_on_c, 2, 52, 127
4, 29256, Note_off_c, 2, 52, 64
4, 29280, Note_on_c, 2, 40, 127
4, 29376, Note_off_c, 2, 40, 64
4, 29400, Note_on_c, 2, 44, 127
4, 29496, Note_off_c, 2, 44, 64
4, 29520, Note_on_c, 2, 45, 127
4, 29616, Note_off_c, 2, 45, 64
4, 29640, Note_on_c, 2, 47, 127
4, 29736, Note_off_c, 2, 47, 64
4, 29760, Note_on_c, 2, 48, 127
4, 29856, Note_off_c, 2, 48, 64
4, 29880, Note_on_c, 2, 50, 127
4, 29976, Note_off_c, 2, 50, 64
4, 30000, Note_on_c, 2, 48, 127
4, 30096, Note_off_c, 2, 48, 64
4, 30120, Note_on_c, 2, 50, 127
4, 30216, Note_off_c, 2, 50, 64
4, 30240, Note_on_c, 2, 52, 127
4, 30336, Note_off_c, 2, 52, 64
4, 30360, Note_on_c, 2, 53, 127
4, 30456, Note_off_c, 2, 53, 64
4, 30480, Note_on_c, 2, 55, 127
4, 30576, Note_off_c, 2, 55, 64
4, 30600, Note_on_c, 2, 45, 127
4, 30696, Note_off_c, 2, 45, 64
4, 30720, Note_on_c, 2, 50, 127
4, 30816, Note_off_c, 2, 50, 64
4, 30840, Note_on_c, 2, 48, 127
4, 30936, Note_off_c, 2, 48, 64
4, 30960, Note_on_c, 2, 47, 127
4, 31056, Note_off_c, 2, 47, 64
4, 31080, Note_on_c, 2, 50, 127
4, 31176, Note_off_c, 2, 50, 64
4, 31200, Note_on_c, 2, 53, 127
4, 31296, Note_off_c, 2, 53, 64
4, 31320, Note_on_c, 2, 44, 127
4, 31416, Note_off_c, 2, 44, 64
4, 31440, Note_on_c, 2, 45, 127
4, 31536, Note_off_c, 2, 45, 64
4, 31560, Note_on_c, 2, 47, 127
4, 31656, Note_off_c, 2, 47, 64
4, 31680, Note_on_c, 2, 48, 127
4, 31776, Note_off_c, 2, 48, 64
4, 31800, Note_on_c, 2, 50, 127
4, 31896, Note_off_c, 2, 50, 64
4, 31920, Note_on_c, 2, 52, 127
4, 32016, Note_off_c, 2, 52, 64
4, 32040, Note_on_c, 2, 45, 127
4, 32136, Note_off_c, 2, 45, 64
4, 32160, Note_on_c, 2, 43, 127
4, 32256, Note_off_c, 2, 43, 64
4, 32280, Note_on_c, 2, 42, 127
4, 32376, Note_off_c, 2, 42, 64
4, 32400, Note_on_c, 2, 40, 127
4, 32496, Note_off_c, 2, 40, 64
4, 32520, Note_on_c, 2, 42, 127
4, 32616, Note_off_c, 2, 42, 64
4, 32640, Note_on_c, 2, 43, 127
4, 32736, Note_off_c, 2, 43, 64
4, 32760, Note_on_c, 2, 45, 127
4, 32856, Note_off_c, 2, 45, 64
4, 32880, Note_on_c, 2, 43, 127
4, 32976, Note_off_c, 2, 43, 64
4, 33000, Note_on_c, 2, 45, 127
4, 33096, Note_off_c, 2, 45, 64
4, 33120, Note_on_c, 2, 47, 127
4, 33216, Note_off_c, 2, 47, 64
4, 33240, Note_on_c, 2, 48, 127
4, 33336, Note_off_c, 2, 48, 64
4, 33360, Note_on_c, 2, 50, 127
4, 33456, Note_off_c, 2, 50, 64
4, 33480, Note_on_c, 2, 40, 127
4, 33576, Note_off_c, 2, 40, 64
4, 33600, Note_on_c, 2, 45, 127
4, 33696, Note_off_c, 2, 45, 64
4, 33720, Note_on_c, 2, 43, 127
4, 33816, Note_off_c, 2, 43, 64
4, 33840, Note_on_c, 2, 42, 127
4, 33936, Note_off_c, 2, 42, 64
4, 33960, Note_on_c, 2, 45, 127
4, 34056, Note_off_c, 2, 45, 64
4, 34080, Note_on_c, 2, 48, 127
4, 34176, Note_off_c, 2, 48, 64
4, 34200, Note_on_c, 2, 39, 127
4, 34296, Note_off_c, 2, 39, 64
4, 34320, Note_on_c, 2, 40, 127
4, 34416, Note_off_c, 2, 40, 64
4, 34440, Note_on_c, 2, 42, 127
4, 34536, Note_off_c, 2, 42, 64
4, 34560, Note_on_c, 2, 43, 127
4, 34656, Note_off_c, 2, 43, 64
4, 34680, Note_on_c, 2, 45, 127
4, 34776, Note_off_c, 2, 45, 64
4, 34800, Note_on_c, 2, 47, 127
4, 34896, Note_off_c, 2, 47, 64
4, 34920, Note_on_c, 2, 40, 127
4, 35016, Note_off_c, 2, 40, 64
4, 35040, Note_on_c, 2, 41, 127
4, 35136, Note_off_c, 2, 41, 64
4, 35160, Note_on_c, 2, 43, 127
4, 35256, Note_off_c, 2, 43, 64
4, 35280, Note_on_c, 2, 45, 127
4, 35376, Note_off_c, 2, 45, 64
4, 35400, Note_on_c, 2, 47, 127
4, 35496, Note_off_c, 2, 47, 64
4, 35520, Note_on_c, 2, 49, 127
4, 35616, Note_off_c, 2, 49, 64
4, 35640, Note_on_c, 2, 50, 127
4, 35736, Note_off_c, 2, 50, 64
4, 35760, Note_on_c, 2, 52, 127
4, 35856, Note_off_c, 2, 52, 64
4, 35880, Note_on_c, 2, 53, 127
4, 35976, Note_off_c, 2, 53, 64
4, 36000, Note_on_c, 2, 55, 127
4, 36096, Note_off_c, 2, 55, 64
4, 36120, Note_on_c, 2, 57, 127
4, 36216, Note_off_c, 2, 57, 64
4, 36240, Note_on_c, 2, 59, 127
4, 36336, Note_off_c, 2, 59, 64
4, 36360, Note_on_c, 2, 48, 127
4, 36456, Note_off_c, 2, 48, 64
4, 36480, Note_on_c, 2, 50, 127
4, 36576, Note_off_c, 2, 50, 64
4, 36600, Note_on_c, 2, 52, 127
4, 36696, Note_off_c, 2, 52, 64
4, 36720, Note_on_c, 2, 41, 127
4, 36864, Note_off_c, 2, 41, 64
4, 36900, Note_on_c, 2, 40, 127
4, 36948, Note_off_c, 2, 40, 64
4, 36960, Note_on_c, 2, 38, 127
4, 37056, Note_off_c, 2, 38, 64
4, 37080, Note_on_c, 2, 44, 127
4, 37176, Note_off_c, 2, 44, 64
4, 37200, Note_on_c, 2, 45, 127
4, 37296, Note_off_c, 2, 45, 64
4, 37320, Note_on_c, 2, 47, 127
4, 37416, Note_off_c, 2, 47, 64
4, 37440, Note_on_c, 2, 48, 127
4, 37584, Note_off_c, 2, 48, 64
4, 37620, Note_on_c, 2, 47, 127
4, 37668, Note_off_c, 2, 47, 64
4, 37680, Note_on_c, 2, 45, 127
4, 37776, Note_off_c, 2, 45, 64
4, 37800, Note_on_c, 2, 51, 127
4, 37896, Note_off_c, 2, 51, 64
4, 37920, Note_on_c, 2, 52, 127
4, 38016, Note_off_c, 2, 52, 64
4, 38040, Note_on_c, 2, 54, 127
4, 38136, Note_off_c, 2, 54, 64
4, 38160, Note_on_c, 2, 55, 127
4, 38304, Note_off_c, 2, 55, 64
4, 38340, Note_on_c, 2, 54, 127
4, 38388, Note_off_c, 2, 54, 64
4, 38400, Note_on_c, 2, 52, 127
4, 38496, Note_off_c, 2, 52, 64
4, 38520, Note_on_c, 2, 58, 127
4, 38616, Note_off_c, 2, 58, 64
4, 38640, Note_on_c, 2, 59, 127
4, 38736, Note_off_c, 2, 59, 64
4, 38880, Note_on_c, 2, 56, 127
4, 38976, Note_off_c, 2, 56, 64
4, 39000, Note_on_c, 2, 57, 127
4, 39096, Note_off_c, 2, 57, 64
4, 39240, Note_on_c, 2, 54, 127
4, 39336, Note_off_c, 2, 54, 64
4, 39360, Note_on_c, 2, 55, 127
4, 39456, Note_off_c, 2, 55, 64
4, 39600, Note_on_c, 2, 52, 127
4, 39696, Note_off_c, 2, 52, 64
4, 39720, Note_on_c, 2, 53, 127
4, 39816, Note_off_c, 2, 53, 64
4, 39960, Note_on_c, 2, 51, 127
4, 40056, Note_off_c, 2, 51, 64
4, 40080, Note_on_c, 2, 52, 127
4, 40176, Note_off_c, 2, 52, 64
4, 40320, Note_on_c, 2, 48, 127
4, 40416, Note_off_c, 2, 48, 64
4, 40440, Note_on_c, 2, 45, 127
4, 40536, Note_off_c, 2, 45, 64
4, 40560, Note_on_c, 2, 47, 127
4, 40656, Note_off_c, 2, 47, 64
4, 40680, Note_on_c, 2, 52, 127
4, 40776, Note_off_c, 2, 52, 64
4, 40800, Note_on_c, 2, 55, 127
4, 40896, Note_off_c, 2, 55, 64
4, 40920, Note_on_c, 2, 59, 127
4, 41016, Note_off_c, 2, 59, 64
4, 41040, Note_on_c, 2, 57, 127
4, 41136, Note_off_c, 2, 57, 64
4, 41160, Note_on_c, 2, 57, 127
4, 41256, Note_off_c, 2, 57, 64
4, 41280, Note_on_c, 2, 57, 127
4, 41376, Note_off_c, 2, 57, 64
4, 41400, Note_on_c, 2, 54, 127
4, 41496, Note_off_c, 2, 54, 64
4, 41520, Note_on_c, 2, 54, 127
4, 41616, Note_off_c, 2, 54, 64
4, 41640, Note_on_c, 2, 54, 127
4, 41736, Note_off_c, 2, 54, 64
4, 41760, Note_on_c, 2, 51, 127
4, 41856, Note_off_c, 2, 51, 64
4, 41880, Note_on_c, 2, 51, 127
4, 41976, Note_off_c, 2, 51, 64
4, 42000, Note_on_c, 2, 51, 127
4, 42096, Note_off_c, 2, 51, 64
4, 42120, Note_on_c, 2, 52, 127
4, 42216, Note_off_c, 2, 52, 64
4, 42240, Note_on_c, 2, 55, 127
4, 42336, Note_off_c, 2, 55, 64
4, 42360, Note_on_c, 2, 59, 127
4, 42456, Note_off_c, 2, 59, 64
4, 42480, Note_on_c, 2, 62, 127
4, 42576, Note_off_c, 2, 62, 64
4, 42600, Note_on_c, 2, 62, 127
4, 42696, Note_off_c, 2, 62, 64
4, 42720, Note_on_c, 2, 62, 127
4, 42816, Note_off_c, 2, 62, 64
4, 42840, Note_on_c, 2, 59, 127
4, 42936, Note_off_c, 2, 59, 64
4, 42960, Note_on_c, 2, 59, 127
4, 43056, Note_off_c, 2, 59, 64
4, 43080, Note_on_c, 2, 59, 127
4, 43176, Note_off_c, 2, 59, 64
4, 43200, Note_on_c, 2, 56, 127
4, 43296, Note_off_c, 2, 56, 64
4, 43320, Note_on_c, 2, 56, 127
4, 43416, Note_off_c, 2, 56, 64
4, 43440, Note_on_c, 2, 56, 127
4, 43536, Note_off_c, 2, 56, 64
4, 43560, Note_on_c, 2, 57, 127
4, 43656, Note_off_c, 2, 57, 64
4, 43680, Note_on_c, 2, 48, 127
4, 43776, Note_off_c, 2, 48, 64
4, 43800, Note_on_c, 2, 52, 127
4, 43896, Note_off_c, 2, 52, 64
4, 43920, Note_on_c, 2, 45, 127
4, 44064, Note_off_c, 2, 45, 64
4, 44100, Note_on_c, 2, 47, 127
4, 44148, Note_off_c, 2, 47, 64
4, 44160, Note_on_c, 2, 49, 127
4, 44256, Note_off_c, 2, 49, 64
4, 44280, Note_on_c, 2, 43, 127
4, 44376, Note_off_c, 2, 43, 64
4, 44400, Note_on_c, 2, 41, 127
4, 44496, Note_off_c, 2, 41, 64
4, 44640, Note_on_c, 2, 47, 127
4, 44784, Note_off_c, 2, 47, 64
4, 44820, Note_on_c, 2, 49, 127
4, 44868, Note_off_c, 2, 49, 64
4, 44880, Note_on_c, 2, 51, 127
4, 44976, Note_off_c, 2, 51, 64
4, 45000, Note_on_c, 2, 45, 127
4, 45096, Note_off_c, 2, 45, 64
4, 45120, Note_on_c, 2, 43, 127
4, 45216, Note_off_c, 2, 43, 64
4, 45360, Note_on_c, 2, 56, 127
4, 45504, Note_off_c, 2, 56, 64
4, 45540, Note_on_c, 2, 57, 127
4, 45588, Note_off_c, 2, 57, 64
4, 45600, Note_on_c, 2, 59, 127
4, 45696, Note_off_c, 2, 59, 64
4, 45720, Note_on_c, 2, 53, 127
4, 45816, Note_off_c, 2, 53, 64
4, 45840, Note_on_c, 2, 52, 127
4, 45936, Note_off_c, 2, 52, 64
4, 46080, Note_on_c, 2, 52, 127
4, 46176, Note_off_c, 2, 52, 64
4, 46200, Note_on_c, 2, 51, 127
4, 46296, Note_off_c, 2, 51, 64
4, 46440, Note_on_c, 2, 52, 127
4, 46536, Note_off_c, 2, 52, 64
4, 46560, Note_on_c, 2, 40, 127
4, 46656, Note_off_c, 2, 40, 64
4, 46680, Note_on_c, 2, 44, 127
4, 46776, Note_off_c, 2, 44, 64
4, 46800, Note_on_c, 2, 45, 127
4, 46896, Note_off_c, 2, 45, 64
4, 46920, Note_on_c, 2, 47, 127
4, 47016, Note_off_c, 2, 47, 64
4, 47040, Note_on_c, 2, 48, 127
4, 47136, Note_off_c, 2, 48, 64
4, 47160, Note_on_c, 2, 50, 127
4, 47256, Note_off_c, 2, 50, 64
4, 47280, Note_on_c, 2, 48, 127
4, 47376, Note_off_c, 2, 48, 64
4, 47400, Note_on_c, 2, 50, 127
4, 47496, Note_off_c, 2, 50, 64
4, 47520, Note_on_c, 2, 52, 127
4, 47616, Note_off_c, 2, 52, 64
4, 47640, Note_on_c, 2, 53, 127
4, 47736, Note_off_c, 2, 53, 64
4, 47760, Note_on_c, 2, 55, 127
4, 47856, Note_off_c, 2, 55, 64
4, 47880, Note_on_c, 2, 45, 127
4, 47976, Note_off_c, 2, 45, 64
4, 48000, Note_on_c, 2, 50, 127
4, 48096, Note_off_c, 2, 50, 64
4, 48120, Note_on_c, 2, 48, 127
4, 48216, Note_off_c, 2, 48, 64
4, 48240, Note_on_c, 2, 47, 127
4, 48336, Note_off_c, 2, 47, 64
4, 48360, Note_on_c, 2, 50, 127
4, 48456, Note_off_c, 2, 50, 64
4, 48480, Note_on_c, 2, 53, 127
4, 48576, Note_off_c, 2, 53, 64
4, 48600, Note_on_c, 2, 44, 127
4, 48696, Note_off_c, 2, 44, 64
4, 48720, Note_on_c, 2, 45, 127
4, 48816, Note_off_c, 2, 45, 64
4, 48840, Note_on_c, 2, 47, 127
4, 48936, Note_off_c, 2, 47, 64
4, 48960, Note_on_c, 2, 48, 127
4, 49056, Note_off_c, 2, 48, 64
4, 49080, Note_on_c, 2, 50, 127
4, 49176, Note_off_c, 2, 50, 64
4, 49200, Note_on_c, 2, 52, 127
4, 49296, Note_off_c, 2, 52, 64
4, 49320, Note_on_c, 2, 45, 127
4, 49416, Note_off_c, 2, 45, 64
4, 49440, Note_on_c, 2, 43, 127
4, 49536, Note_off_c, 2, 43, 64
4, 49560, Note_on_c, 2, 42, 127
4, 49656, Note_off_c, 2, 42, 64
4, 49680, Note_on_c, 2, 40, 127
4, 49776, Note_off_c, 2, 40, 64
4, 49800, Note_on_c, 2, 42, 127
4, 49896, Note_off_c, 2, 42, 64
4, 49920, Note_on_c, 2, 43, 127
4, 50016, Note_off_c, 2, 43, 64
4, 50040, Note_on_c, 2, 45, 127
4, 50136, Note_off_c, 2, 45, 64
4, 50160, Note_on_c, 2, 43, 127
4, 50256, Note_off_c, 2, 43, 64
4, 50280, Note_on_c, 2, 45, 127
4, 50376, Note_off_c, 2, 45, 64
4, 50400, Note_on_c, 2, 47, 127
4, 50496, Note_off_c, 2, 47, 64
4, 50520, Note_on_c, 2, 48, 127
4, 50616, Note_off_c, 2, 48, 64
4, 50640, Note_on_c, 2, 50, 127
4, 50736, Note_off_c, 2, 50, 64
4, 50760, Note_on_c, 2, 40, 127
4, 50856, Note_off_c, 2, 40, 64
4, 50880, Note_on_c, 2, 45, 127
4, 50976, Note_off_c, 2, 45, 64
4, 51000, Note_on_c, 2, 43, 127
4, 51096, Note_off_c, 2, 43, 64
4, 51120, Note_on_c, 2, 42, 127
4, 51216, Note_off_c, 2, 42, 64
4, 51240, Note_on_c, 2, 45, 127
4, 51336, Note_off_c, 2, 45, 64
4, 51360, Note_on_c, 2, 48, 127
4, 51456, Note_off_c, 2, 48, 64
4, 51480, Note_on_c, 2, 39, 127
4, 51576, Note_off_c, 2, 39, 64
4, 51600, Note_on_c, 2, 40, 127
4, 51696, Note_off_c, 2, 40, 64
4, 51720, Note_on_c, 2, 42, 127
4, 51816, Note_off_c, 2, 42, 64
4, 51840, Note_on_c, 2, 43, 127
4, 51936, Note_off_c, 2, 43, 64
4, 51960, Note_on_c, 2, 45, 127
4, 52056, Note_off_c, 2, 45, 64
4, 52080, Note_on_c, 2, 47, 127
4, 52176, Note_off_c, 2, 47, 64
4, 52200, Note_on_c, 2, 40, 127
4, 52296, Note_off_c, 2, 40, 64
4, 52320, Note_on_c, 2, 41, 127
4, 52416, Note_off_c, 2, 41, 64
4, 52440, Note_on_c, 2, 43, 127
4, 52536, Note_off_c, 2, 43, 64
4, 52560, Note_on_c, 2, 45, 127
4, 52656, Note_off_c, 2, 45, 64
4, 52680, Note_on_c, 2, 47, 127
4, 52776, Note_off_c, 2, 47, 64
4, 52800, Note_on_c, 2, 49, 127
4, 52896, Note_off_c, 2, 49, 64
4, 52920, Note_on_c, 2, 50, 127
4, 53016, Note_off_c, 2, 50, 64
4, 53040, Note_on_c, 2, 52, 127
4, 53136, Note_off_c, 2, 52, 64
4, 53160, Note_on_c, 2, 53, 127
4, 53256, Note_off_c, 2, 53, 64
4, 53280, Note_on_c, 2, 55, 127
4, 53376, Note_off_c, 2, 55, 64
4, 53400, Note_on_c, 2, 57, 127
4, 53496, Note_off_c, 2, 57, 64
4, 53520, Note_on_c, 2, 59, 127
4, 53616, Note_off_c, 2, 59, 64
4, 53640, Note_on_c, 2, 48, 127
4, 53736, Note_off_c, 2, 48, 64
4, 53760, Note_on_c, 2, 50, 127
4, 53856, Note_off_c, 2, 50, 64
4, 53880, Note_on_c, 2, 52, 127
4, 53976, Note_off_c, 2, 52, 64
4, 54000, Note_on_c, 2, 41, 127
4, 54144, Note_off_c, 2, 41, 64
4, 54180, Note_on_c, 2, 40, 127
4, 54228, Note_off_c, 2, 40, 64
4, 54240, Note_on_c, 2, 38, 127
4, 54336, Note_off_c, 2, 38, 64
4, 54360, Note_on_c, 2, 44, 127
4, 54456, Note_off_c, 2, 44, 64
4, 54480, Note_on_c, 2, 45, 127
4, 54576, Note_off_c, 2, 45, 64
4, 54600, Note_on_c, 2, 47, 127
4, 54696, Note_off_c, 2, 47, 64
4, 54720, Note_on_c, 2, 48, 127
4, 54864, Note_off_c, 2, 48, 64
4, 54900, Note_on_c, 2, 47, 127
4, 54948, Note_off_c, 2, 47, 64
4, 54960, Note_on_c, 2, 45, 127
4, 55056, Note_off_c, 2, 45, 64
4, 55080, Note_on_c, 2, 51, 127
4, 55176, Note_off_c, 2, 51, 64
4, 55200, Note_on_c, 2, 52, 127
4, 55296, Note_off_c, 2, 52, 64
4, 55320, Note_on_c, 2, 54, 127
4, 55416, Note_off_c, 2, 54, 64
4, 55440, Note_on_c, 2, 55, 127
4, 55584, Note_off_c, 2, 55, 64
4, 55620, Note_on_c, 2, 54, 127
4, 55668, Note_off_c, 2, 54, 64
4, 55680, Note_on_c, 2, 52, 127
4, 55776, Note_off_c, 2, 52, 64
4, 55800, Note_on_c, 2, 58, 127
4, 55896, Note_off_c, 2, 58, 64
4, 55920, Note_on_c, 2, 59, 127
4, 56016, Note_off_c, 2, 59, 64
4, 56160, Note_on_c, 2, 56, 127
4, 56256, Note_off_c, 2, 56, 64
4, 56280, Note_on_c, 2, 57, 127
4, 56376, Note_off_c, 2, 57, 64
4, 56520, Note_on_c, 2, 54, 127
4, 56616, Note_off_c, 2, 54, 64
4, 56640, Note_on_c, 2, 55, 127
4, 56736, Note_off_c, 2, 55, 64
4, 56880, Note_on_c, 2, 52, 127
4, 56976, Note_off_c, 2, 52, 64
4, 57000, Note_on_c, 2, 53, 127
4, 57096, Note_off_c, 2, 53, 64
4, 57240, Note_on_c, 2, 51, 127
4, 57336, Note_off_c, 2, 51, 64
4, 57360, Note_on_c, 2, 52, 127
4, 57456, Note_off_c, 2, 52, 64
4, 57600, Note_on_c, 2, 48, 127
4, 57696, Note_off_c, 2, 48, 64
4, 57720, Note_on_c, 2, 45, 127
4, 57816, Note_off_c, 2, 45, 64
4, 57840, Note_on_c, 2, 47, 127
4, 57936, Note_off_c, 2, 47, 64
4, 57960, Note_on_c, 2, 40, 127
4, 58248, Note_off_c, 2, 40, 64
4, 58248, End_track
0, 0, End_of_file
