0, 0, Header, 1, 4, 240
1, 0, Start_track
1, 0, Time_signature, 6, 3, 12, 8
1, 0, Tempo, 2000000
1, 37560, Tempo, 2000000
1, 37680, Tempo, 2068966
1, 37800, Tempo, 2142857
1, 37920, Tempo, 2142857
1, 38040, Tempo, 2222222
1, 38160, Tempo, 2400000
1, 38160, End_track
2, 0, Start_track
2, 0, Title_t, "Trio Sonata 5, 2nd Mov. BWV 529"
2, 0, Program_c, 0, 19
2, 0, Note_on_c, 0, 69, 93
2, 48, Note_off_c, 0, 69, 64
2, 60, Note_on_c, 0, 72, 93
2, 84, Note_off_c, 0, 72, 64
2, 90, Note_on_c, 0, 76, 93
2, 114, Note_off_c, 0, 76, 64
2, 120, Note_on_c, 0, 77, 93
2, 216, Note_off_c, 0, 77, 64
2, 360, Note_on_c, 0, 69, 93
2, 456, Note_off_c, 0, 69, 64
2, 480, Note_on_c, 0, 68, 93
2, 576, Note_off_c, 0, 68, 64
2, 720, Note_on_c, 0, 69, 93
2, 768, Note_off_c, 0, 69, 64
2, 780, Note_on_c, 0, 72, 93
2, 804, Note_off_c, 0, 72, 64
2, 810, Note_on_c, 0, 76, 93
2, 834, Note_off_c, 0, 76, 64
2, 840, Note_on_c, 0, 81, 93
2, 888, Note_off_c, 0, 81, 64
2, 900, Note_on_c, 0, 81, 93
2, 948, Note_off_c, 0, 81, 64
2, 960, Note_on_c, 0, 81, 93
2, 1008, Note_off_c, 0, 81, 64
2, 1020, Note_on_c, 0, 81, 93
2, 1128, Note_off_c, 0, 81, 64
2, 1140, Note_on_c, 0, 79, 93
2, 1164, Note_off_c, 0, 79, 64
2, 1170, Note_on_c, 0, 77, 93
2, 1194, Note_off_c, 0, 77, 64
2, 1200, Note_on_c, 0, 79, 93
2, 1248, Note_off_c, 0, 79, 64
2, 1260, Note_on_c, 0, 70, 93
2, 1308, Note_off_c, 0, 70, 64
2, 1320, Note_on_c, 0, 69, 93
2, 1368, Note_off_c, 0, 69, 64
2, 1380, Note_on_c, 0, 79, 93
2, 1488, Note_off_c, 0, 79, 64
2, 1500, Note_on_c, 0, 77, 93
2, 1524, Note_off_c, 0, 77, 64
2, 1530, Note_on_c, 0, 76, 93
2, 1554, Note_off_c, 0, 76, 64
2, 1560, Note_on_c, 0, 77, 93
2, 1608, Note_off_c, 0, 77, 64
2, 1620, Note_on_c, 0, 69, 93
2, 1668, Note_off_c, 0, 69, 64
2, 1680, Note_on_c, 0, 68, 93
2, 1728, Note_off_c, 0, 68, 64
2, 1740, Note_on_c, 0, 77, 93
2, 1788, Note_off_c, 0, 77, 64
2, 1800, Note_on_c, 0, 76, 93
2, 1824, Note_off_c, 0, 76, 64
2, 1830, Note_on_c, 0, 74, 93
2, 1854, Note_off_c, 0, 74, 64
2, 1860, Note_on_c, 0, 77, 93
2, 1884, Note_off_c, 0, 77, 64
2, 1890, Note_on_c, 0, 76, 93
2, 1914, Note_off_c, 0, 76, 64
2, 1920, Note_on_c, 0, 74, 93
2, 1944, Note_off_c, 0, 74, 64
2, 1950, Note_on_c, 0, 72, 93
2, 1974, Note_off_c, 0, 72, 64
2, 1980, Note_on_c, 0, 71, 93
2, 2004, Note_off_c, 0, 71, 64
2, 2010, Note_on_c, 0, 69, 93
2, 2034, Note_off_c, 0, 69, 64
2, 2040, Note_on_c, 0, 68, 93
2, 2064, Note_off_c, 0, 68, 64
2, 2070, Note_on_c, 0, 74, 93
2, 2094, Note_off_c, 0, 74, 64
2, 2100, Note_on_c, 0, 72, 93
2, 2124, Note_off_c, 0, 72, 64
2, 2130, Note_on_c, 0, 71, 93
2, 2154, Note_off_c, 0, 71, 64
2, 2160, Note_on_c, 0, 72, 93
2, 2184, Note_off_c, 0, 72, 64
2, 2190, Note_on_c, 0, 71, 93
2, 2214, Note_off_c, 0, 71, 64
2, 2220, Note_on_c, 0, 69, 93
2, 2316, Note_off_c, 0, 69, 64
2, 2340, Note_on_c, 0, 71, 93
2, 2388, Note_off_c, 0, 71, 64
2, 2400, Note_on_c, 0, 72, 93
2, 2448, Note_off_c, 0, 72, 64
2, 2460, Note_on_c, 0, 73, 93
2, 2508, Note_off_c, 0, 73, 64
2, 2520, Note_on_c, 0, 74, 93
2, 2568, Note_off_c, 0, 74, 64
2, 2580, Note_on_c, 0, 75, 93
2, 2664, Note_off_c, 0, 75, 64
2, 2670, Note_on_c, 0, 76, 93
2, 2694, Note_off_c, 0, 76, 64
2, 2700, Note_on_c, 0, 78, 93
2, 2724, Note_off_c, 0, 78, 64
2, 2730, Note_on_c, 0, 79, 93
2, 2754, Note_off_c, 0, 79, 64
2, 2760, Note_on_c, 0, 81, 93
2, 2784, Note_off_c, 0, 81, 64
2, 2790, Note_on_c, 0, 79, 93
2, 2814, Note_off_c, 0, 79, 64
2, 2820, Note_on_c, 0, 78, 93
2, 2844, Note_off_c, 0, 78, 64
2, 2850, Note_on_c, 0, 81, 93
2, 2874, Note_off_c, 0, 81, 64
2, 2880, Note_on_c, 0, 79, 93
2, 3024, Note_off_c, 0, 79, 64
2, 3030, Note_on_c, 0, 78, 93
2, 3054, Note_off_c, 0, 78, 64
2, 3060, Note_on_c, 0, 76, 93
2, 3084, Note_off_c, 0, 76, 64
2, 3090, Note_on_c, 0, 78, 93
2, 3114, Note_off_c, 0, 78, 64
2, 3120, Note_on_c, 0, 79, 93
2, 3168, Note_off_c, 0, 79, 64
2, 3180, Note_on_c, 0, 80, 93
2, 3228, Note_off_c, 0, 80, 64
2, 3240, Note_on_c, 0, 81, 93
2, 3384, Note_off_c, 0, 81, 64
2, 3390, Note_on_c, 0, 79, 93
2, 3414, Note_off_c, 0, 79, 64
2, 3420, Note_on_c, 0, 78, 93
2, 3444, Note_off_c, 0, 78, 64
2, 3450, Note_on_c, 0, 79, 93
2, 3474, Note_off_c, 0, 79, 64
2, 3480, Note_on_c, 0, 81, 93
2, 3528, Note_off_c, 0, 81, 64
2, 3540, Note_on_c, 0, 82, 93
2, 3588, Note_off_c, 0, 82, 64
2, 3600, Note_on_c, 0, 83, 93
2, 3744, Note_off_c, 0, 83, 64
2, 3750, Note_on_c, 0, 81, 93
2, 3774, Note_off_c, 0, 81, 64
2, 3780, Note_on_c, 0, 84, 93
2, 3804, Note_off_c, 0, 84, 64
2, 3810, Note_on_c, 0, 83, 93
2, 3834, Note_off_c, 0, 83, 64
2, 3840, Note_on_c, 0, 81, 93
2, 3864, Note_off_c, 0, 81, 64
2, 3870, Note_on_c, 0, 79, 93
2, 3894, Note_off_c, 0, 79, 64
2, 3900, Note_on_c, 0, 78, 93
2, 3924, Note_off_c, 0, 78, 64
2, 3930, Note_on_c, 0, 76, 93
2, 3954, Note_off_c, 0, 76, 64
2, 3960, Note_on_c, 0, 79, 93
2, 4008, Note_off_c, 0, 79, 64
2, 4020, Note_on_c, 0, 78, 93
2, 4068, Note_off_c, 0, 78, 64
2, 4200, Note_on_c, 0, 83, 93
2, 4296, Note_off_c, 0, 83, 64
2, 4320, Note_on_c, 0, 76, 93
2, 4416, Note_off_c, 0, 76, 64
2, 4560, Note_on_c, 0, 81, 93
2, 4728, Note_off_c, 0, 81, 64
2, 4740, Note_on_c, 0, 79, 93
2, 4788, Note_off_c, 0, 79, 64
2, 4800, Note_on_c, 0, 78, 93
2, 4824, Note_off_c, 0, 78, 64
2, 4830, Note_on_c, 0, 79, 93
2, 4854, Note_off_c, 0, 79, 64
2, 4860, Note_on_c, 0, 81, 93
2, 4956, Note_off_c, 0, 81, 64
2, 4980, Note_on_c, 0, 75, 93
2, 5028, Note_off_c, 0, 75, 64
2, 5040, Note_on_c, 0, 76, 93
2, 5064, Note_off_c, 0, 76, 64
2, 5070, Note_on_c, 0, 78, 93
2, 5094, Note_off_c, 0, 78, 64
2, 5100, Note_on_c, 0, 79, 93
2, 5124, Note_off_c, 0, 79, 64
2, 5130, Note_on_c, 0, 81, 93
2, 5154, Note_off_c, 0, 81, 64
2, 5160, Note_on_c, 0, 82, 93
2, 5256, Note_off_c, 0, 82, 64
2, 5340, Note_on_c, 0, 73, 93
2, 5388, Note_off_c, 0, 73, 64
2, 5400, Note_on_c, 0, 74, 93
2, 5424, Note_off_c, 0, 74, 64
2, 5430, Note_on_c, 0, 76, 93
2, 5454, Note_off_c, 0, 76, 64
2, 5460, Note_on_c, 0, 77, 93
2, 5484, Note_off_c, 0, 77, 64
2, 5490, Note_on_c, 0, 79, 93
2, 5514, Note_off_c, 0, 79, 64
2, 5520, Note_on_c, 0, 80, 93
2, 5616, Note_off_c, 0, 80, 64
2, 5700, Note_on_c, 0, 71, 93
2, 5748, Note_off_c, 0, 71, 64
2, 5760, Note_on_c, 0, 72, 93
2, 5808, Note_off_c, 0, 72, 64
2, 5820, Note_on_c, 0, 76, 93
2, 5844, Note_off_c, 0, 76, 64
2, 5850, Note_on_c, 0, 79, 93
2, 5874, Note_off_c, 0, 79, 64
2, 5880, Note_on_c, 0, 84, 93
2, 5976, Note_off_c, 0, 84, 64
2, 6030, Note_on_c, 0, 72, 93
2, 6054, Note_off_c, 0, 72, 64
2, 6060, Note_on_c, 0, 74, 93
2, 6084, Note_off_c, 0, 74, 64
2, 6090, Note_on_c, 0, 76, 93
2, 6114, Note_off_c, 0, 76, 64
2, 6120, Note_on_c, 0, 74, 93
2, 6144, Note_off_c, 0, 74, 64
2, 6150, Note_on_c, 0, 72, 93
2, 6174, Note_off_c, 0, 72, 64
2, 6180, Note_on_c, 0, 71, 93
2, 6204, Note_off_c, 0, 71, 64
2, 6210, Note_on_c, 0, 74, 93
2, 6234, Note_off_c, 0, 74, 64
2, 6240, Note_on_c, 0, 83, 93
2, 6504, Note_off_c, 0, 83, 64
2, 6510, Note_on_c, 0, 76, 93
2, 6534, Note_off_c, 0, 76, 64
2, 6540, Note_on_c, 0, 74, 93
2, 6564, Note_off_c, 0, 74, 64
2, 6570, Note_on_c, 0, 76, 93
2, 6594, Note_off_c, 0, 76, 64
2, 6600, Note_on_c, 0, 81, 93
2, 6648, Note_off_c, 0, 81, 64
2, 6660, Note_on_c, 0, 79, 93
2, 6744, Note_off_c, 0, 79, 64
2, 6750, Note_on_c, 0, 77, 93
2, 6774, Note_off_c, 0, 77, 64
2, 6780, Note_on_c, 0, 76, 93
2, 6804, Note_off_c, 0, 76, 64
2, 6810, Note_on_c, 0, 79, 93
2, 6834, Note_off_c, 0, 79, 64
2, 6840, Note_on_c, 0, 77, 93
2, 6936, Note_off_c, 0, 77, 64
2, 7080, Note_on_c, 0, 81, 93
2, 7224, Note_off_c, 0, 81, 64
2, 7230, Note_on_c, 0, 74, 93
2, 7254, Note_off_c, 0, 74, 64
2, 7260, Note_on_c, 0, 73, 93
2, 7284, Note_off_c, 0, 73, 64
2, 7290, Note_on_c, 0, 74, 93
2, 7314, Note_off_c, 0, 74, 64
2, 7320, Note_on_c, 0, 79, 93
2, 7368, Note_off_c, 0, 79, 64
2, 7380, Note_on_c, 0, 77, 93
2, 7464, Note_off_c, 0, 77, 64
2, 7470, Note_on_c, 0, 76, 93
2, 7494, Note_off_c, 0, 76, 64
2, 7500, Note_on_c, 0, 74, 93
2, 7524, Note_off_c, 0, 74, 64
2, 7530, Note_on_c, 0, 77, 93
2, 7554, Note_off_c, 0, 77, 64
2, 7560, Note_on_c, 0, 71, 93
2, 7584, Note_off_c, 0, 71, 64
2, 7590, Note_on_c, 0, 77, 93
2, 7614, Note_off_c, 0, 77, 64
2, 7620, Note_on_c, 0, 76, 93
2, 7644, Note_off_c, 0, 76, 64
2, 7650, Note_on_c, 0, 71, 93
2, 7674, Note_off_c, 0, 71, 64
2, 7680, Note_on_c, 0, 72, 93
2, 7704, Note_off_c, 0, 72, 64
2, 7710, Note_on_c, 0, 77, 93
2, 7734, Note_off_c, 0, 77, 64
2, 7740, Note_on_c, 0, 76, 93
2, 7764, Note_off_c, 0, 76, 64
2, 7770, Note_on_c, 0, 72, 93
2, 7794, Note_off_c, 0, 72, 64
2, 7800, Note_on_c, 0, 74, 93
2, 7824, Note_off_c, 0, 74, 64
2, 7830, Note_on_c, 0, 77, 93
2, 7854, Note_off_c, 0, 77, 64
2, 7860, Note_on_c, 0, 76, 93
2, 7884, Note_off_c, 0, 76, 64
2, 7890, Note_on_c, 0, 74, 93
2, 7914, Note_off_c, 0, 74, 64
2, 7920, Note_on_c, 0, 72, 93
2, 7944, Note_off_c, 0, 72, 64
2, 7950, Note_on_c, 0, 71, 93
2, 7974, Note_off_c, 0, 71, 64
2, 7980, Note_on_c, 0, 69, 93
2, 8004, Note_off_c, 0, 69, 64
2, 8010, Note_on_c, 0, 71, 93
2, 8034, Note_off_c, 0, 71, 64
2, 8040, Note_on_c, 0, 72, 93
2, 8088, Note_off_c, 0, 72, 64
2, 8100, Note_on_c, 0, 73, 93
2, 8148, Note_off_c, 0, 73, 64
2, 8160, Note_on_c, 0, 74, 93
2, 8208, Note_off_c, 0, 74, 64
2, 8220, Note_on_c, 0, 75, 93
2, 8268, Note_off_c, 0, 75, 64
2, 8280, Note_on_c, 0, 76, 93
2, 8304, Note_off_c, 0, 76, 64
2, 8310, Note_on_c, 0, 74, 93
2, 8334, Note_off_c, 0, 74, 64
2, 8340, Note_on_c, 0, 76, 93
2, 8364, Note_off_c, 0, 76, 64
2, 8370, Note_on_c, 0, 77, 93
2, 8394, Note_off_c, 0, 77, 64
2, 8400, Note_on_c, 0, 72, 93
2, 8415, Note_off_c, 0, 72, 64
2, 8415, Note_on_c, 0, 71, 93
2, 8430, Note_off_c, 0, 71, 64
2, 8430, Note_on_c, 0, 72, 93
2, 8445, Note_off_c, 0, 72, 64
2, 8445, Note_on_c, 0, 71, 93
2, 8460, Note_off_c, 0, 71, 64
2, 8460, Note_on_c, 0, 72, 93
2, 8472, Note_off_c, 0, 72, 64
2, 8475, Note_on_c, 0, 71, 93
2, 8487, Note_off_c, 0, 71, 64
2, 8490, Note_on_c, 0, 72, 93
2, 8502, Note_off_c, 0, 72, 64
2, 8505, Note_on_c, 0, 71, 93
2, 8517, Note_off_c, 0, 71, 64
2, 8520, Note_on_c, 0, 72, 93
2, 8532, Note_off_c, 0, 72, 64
2, 8535, Note_on_c, 0, 71, 93
2, 8547, Note_off_c, 0, 71, 64
2, 8550, Note_on_c, 0, 72, 93
2, 8562, Note_off_c, 0, 72, 64
2, 8565, Note_on_c, 0, 71, 93
2, 8580, Note_off_c, 0, 71, 64
2, 8580, Note_on_c, 0, 69, 93
2, 8628, Note_off_c, 0, 69, 64
2, 8640, Note_on_c, 0, 69, 93
2, 8664, Note_off_c, 0, 69, 64
2, 8670, Note_on_c, 0, 71, 93
2, 8694, Note_off_c, 0, 71, 64
2, 8700, Note_on_c, 0, 72, 93
2, 8724, Note_off_c, 0, 72, 64
2, 8730, Note_on_c, 0, 69, 93
2, 8754, Note_off_c, 0, 69, 64
2, 8760, Note_on_c, 0, 68, 93
2, 8784, Note_off_c, 0, 68, 64
2, 8790, Note_on_c, 0, 69, 93
2, 8814, Note_off_c, 0, 69, 64
2, 8820, Note_on_c, 0, 74, 93
2, 8844, Note_off_c, 0, 74, 64
2, 8850, Note_on_c, 0, 69, 93
2, 8874, Note_off_c, 0, 69, 64
2, 8880, Note_on_c, 0, 68, 93
2, 8904, Note_off_c, 0, 68, 64
2, 8910, Note_on_c, 0, 69, 93
2, 8934, Note_off_c, 0, 69, 64
2, 8940, Note_on_c, 0, 76, 93
2, 8964, Note_off_c, 0, 76, 64
2, 8970, Note_on_c, 0, 69, 93
2, 8994, Note_off_c, 0, 69, 64
2, 9000, Note_on_c, 0, 68, 93
2, 9024, Note_off_c, 0, 68, 64
2, 9030, Note_on_c, 0, 69, 93
2, 9054, Note_off_c, 0, 69, 64
2, 9060, Note_on_c, 0, 77, 93
2, 9084, Note_off_c, 0, 77, 64
2, 9090, Note_on_c, 0, 69, 93
2, 9114, Note_off_c, 0, 69, 64
2, 9120, Note_on_c, 0, 68, 93
2, 9144, Note_off_c, 0, 68, 64
2, 9150, Note_on_c, 0, 69, 93
2, 9174, Note_off_c, 0, 69, 64
2, 9180, Note_on_c, 0, 76, 93
2, 9204, Note_off_c, 0, 76, 64
2, 9210, Note_on_c, 0, 69, 93
2, 9234, Note_off_c, 0, 69, 64
2, 9240, Note_on_c, 0, 68, 93
2, 9264, Note_off_c, 0, 68, 64
2, 9270, Note_on_c, 0, 69, 93
2, 9294, Note_off_c, 0, 69, 64
2, 9300, Note_on_c, 0, 74, 93
2, 9324, Note_off_c, 0, 74, 64
2, 9330, Note_on_c, 0, 71, 93
2, 9354, Note_off_c, 0, 71, 64
2, 9360, Note_on_c, 0, 72, 93
2, 9408, Note_off_c, 0, 72, 64
2, 9420, Note_on_c, 0, 81, 93
2, 9468, Note_off_c, 0, 81, 64
2, 9480, Note_on_c, 0, 71, 93
2, 9528, Note_off_c, 0, 71, 64
2, 9540, Note_on_c, 0, 81, 93
2, 9588, Note_off_c, 0, 81, 64
2, 9600, Note_on_c, 0, 72, 93
2, 9648, Note_off_c, 0, 72, 64
2, 9660, Note_on_c, 0, 81, 93
2, 9708, Note_off_c, 0, 81, 64
2, 9720, Note_on_c, 0, 74, 93
2, 9768, Note_off_c, 0, 74, 64
2, 9780, Note_on_c, 0, 81, 93
2, 9828, Note_off_c, 0, 81, 64
2, 9840, Note_on_c, 0, 72, 93
2, 9888, Note_off_c, 0, 72, 64
2, 9900, Note_on_c, 0, 81, 93
2, 9948, Note_off_c, 0, 81, 64
2, 9960, Note_on_c, 0, 71, 93
2, 10008, Note_off_c, 0, 71, 64
2, 10020, Note_on_c, 0, 81, 93
2, 10068, Note_off_c, 0, 81, 64
2, 10080, Note_on_c, 0, 69, 93
2, 10128, Note_off_c, 0, 69, 64
2, 10140, Note_on_c, 0, 76, 93
2, 10224, Note_off_c, 0, 76, 64
2, 10230, Note_on_c, 0, 74, 93
2, 10254, Note_off_c, 0, 74, 64
2, 10260, Note_on_c, 0, 72, 93
2, 10284, Note_off_c, 0, 72, 64
2, 10290, Note_on_c, 0, 71, 93
2, 10314, Note_off_c, 0, 71, 64
2, 10320, Note_on_c, 0, 69, 93
2, 10344, Note_off_c, 0, 69, 64
2, 10350, Note_on_c, 0, 67, 93
2, 10374, Note_off_c, 0, 67, 64
2, 10380, Note_on_c, 0, 66, 93
2, 10404, Note_off_c, 0, 66, 64
2, 10410, Note_on_c, 0, 64, 93
2, 10434, Note_off_c, 0, 64, 64
2, 10440, Note_on_c, 0, 66, 93
2, 10536, Note_off_c, 0, 66, 64
2, 10560, Note_on_c, 0, 72, 93
2, 10656, Note_off_c, 0, 72, 64
2, 10860, Note_on_c, 0, 74, 93
2, 10944, Note_off_c, 0, 74, 64
2, 10950, Note_on_c, 0, 72, 93
2, 10974, Note_off_c, 0, 72, 64
2, 10980, Note_on_c, 0, 71, 93
2, 11004, Note_off_c, 0, 71, 64
2, 11010, Note_on_c, 0, 69, 93
2, 11034, Note_off_c, 0, 69, 64
2, 11040, Note_on_c, 0, 67, 93
2, 11064, Note_off_c, 0, 67, 64
2, 11070, Note_on_c, 0, 65, 93
2, 11094, Note_off_c, 0, 65, 64
2, 11100, Note_on_c, 0, 64, 93
2, 11124, Note_off_c, 0, 64, 64
2, 11130, Note_on_c, 0, 62, 93
2, 11154, Note_off_c, 0, 62, 64
2, 11160, Note_on_c, 0, 64, 93
2, 11256, Note_off_c, 0, 64, 64
2, 11280, Note_on_c, 0, 70, 93
2, 11376, Note_off_c, 0, 70, 64
2, 11550, Note_on_c, 0, 69, 93
2, 11574, Note_off_c, 0, 69, 64
2, 11580, Note_on_c, 0, 67, 93
2, 11604, Note_off_c, 0, 67, 64
2, 11610, Note_on_c, 0, 69, 93
2, 11634, Note_off_c, 0, 69, 64
2, 11640, Note_on_c, 0, 74, 93
2, 11688, Note_off_c, 0, 74, 64
2, 11700, Note_on_c, 0, 72, 93
2, 11784, Note_off_c, 0, 72, 64
2, 11790, Note_on_c, 0, 71, 93
2, 11814, Note_off_c, 0, 71, 64
2, 11820, Note_on_c, 0, 69, 93
2, 11844, Note_off_c, 0, 69, 64
2, 11850, Note_on_c, 0, 72, 93
2, 11874, Note_off_c, 0, 72, 64
2, 11880, Note_on_c, 0, 71, 93
2, 11976, Note_off_c, 0, 71, 64
2, 12030, Note_on_c, 0, 67, 93
2, 12054, Note_off_c, 0, 67, 64
2, 12060, Note_on_c, 0, 66, 93
2, 12084, Note_off_c, 0, 66, 64
2, 12090, Note_on_c, 0, 67, 93
2, 12114, Note_off_c, 0, 67, 64
2, 12120, Note_on_c, 0, 71, 93
2, 12168, Note_off_c, 0, 71, 64
2, 12180, Note_on_c, 0, 76, 93
2, 12264, Note_off_c, 0, 76, 64
2, 12270, Note_on_c, 0, 72, 93
2, 12294, Note_off_c, 0, 72, 64
2, 12300, Note_on_c, 0, 71, 93
2, 12324, Note_off_c, 0, 71, 64
2, 12330, Note_on_c, 0, 72, 93
2, 12354, Note_off_c, 0, 72, 64
2, 12360, Note_on_c, 0, 77, 93
2, 12408, Note_off_c, 0, 77, 64
2, 12420, Note_on_c, 0, 76, 93
2, 12504, Note_off_c, 0, 76, 64
2, 12510, Note_on_c, 0, 74, 93
2, 12534, Note_off_c, 0, 74, 64
2, 12540, Note_on_c, 0, 72, 93
2, 12564, Note_off_c, 0, 72, 64
2, 12570, Note_on_c, 0, 76, 93
2, 12594, Note_off_c, 0, 76, 64
2, 12600, Note_on_c, 0, 74, 93
2, 12696, Note_off_c, 0, 74, 64
2, 12750, Note_on_c, 0, 71, 93
2, 12774, Note_off_c, 0, 71, 64
2, 12780, Note_on_c, 0, 69, 93
2, 12804, Note_off_c, 0, 69, 64
2, 12810, Note_on_c, 0, 71, 93
2, 12834, Note_off_c, 0, 71, 64
2, 12840, Note_on_c, 0, 74, 93
2, 12888, Note_off_c, 0, 74, 64
2, 12900, Note_on_c, 0, 79, 93
2, 13008, Note_off_c, 0, 79, 64
2, 13020, Note_on_c, 0, 84, 93
2, 13068, Note_off_c, 0, 84, 64
2, 13080, Note_on_c, 0, 74, 93
2, 13128, Note_off_c, 0, 74, 64
2, 13140, Note_on_c, 0, 84, 93
2, 13188, Note_off_c, 0, 84, 64
2, 13200, Note_on_c, 0, 76, 93
2, 13248, Note_off_c, 0, 76, 64
2, 13260, Note_on_c, 0, 84, 93
2, 13308, Note_off_c, 0, 84, 64
2, 13320, Note_on_c, 0, 77, 93
2, 13368, Note_off_c, 0, 77, 64
2, 13380, Note_on_c, 0, 84, 93
2, 13428, Note_off_c, 0, 84, 64
2, 13440, Note_on_c, 0, 76, 93
2, 13488, Note_off_c, 0, 76, 64
2, 13500, Note_on_c, 0, 84, 93
2, 13548, Note_off_c, 0, 84, 64
2, 13560, Note_on_c, 0, 74, 93
2, 13608, Note_off_c, 0, 74, 64
2, 13620, Note_on_c, 0, 84, 93
2, 13668, Note_off_c, 0, 84, 64
2, 13680, Note_on_c, 0, 72, 93
2, 13704, Note_off_c, 0, 72, 64
2, 13710, Note_on_c, 0, 74, 93
2, 13734, Note_off_c, 0, 74, 64
2, 13740, Note_on_c, 0, 76, 93
2, 13764, Note_off_c, 0, 76, 64
2, 13770, Note_on_c, 0, 72, 93
2, 13794, Note_off_c, 0, 72, 64
2, 13800, Note_on_c, 0, 71, 93
2, 13824, Note_off_c, 0, 71, 64
2, 13830, Note_on_c, 0, 72, 93
2, 13854, Note_off_c, 0, 72, 64
2, 13860, Note_on_c, 0, 77, 93
2, 13884, Note_off_c, 0, 77, 64
2, 13890, Note_on_c, 0, 72, 93
2, 13914, Note_off_c, 0, 72, 64
2, 13920, Note_on_c, 0, 71, 93
2, 13944, Note_off_c, 0, 71, 64
2, 13950, Note_on_c, 0, 72, 93
2, 13974, Note_off_c, 0, 72, 64
2, 13980, Note_on_c, 0, 79, 93
2, 14004, Note_off_c, 0, 79, 64
2, 14010, Note_on_c, 0, 72, 93
2, 14034, Note_off_c, 0, 72, 64
2, 14040, Note_on_c, 0, 71, 93
2, 14064, Note_off_c, 0, 71, 64
2, 14070, Note_on_c, 0, 72, 93
2, 14094, Note_off_c, 0, 72, 64
2, 14100, Note_on_c, 0, 81, 93
2, 14124, Note_off_c, 0, 81, 64
2, 14130, Note_on_c, 0, 72, 93
2, 14154, Note_off_c, 0, 72, 64
2, 14160, Note_on_c, 0, 71, 93
2, 14184, Note_off_c, 0, 71, 64
2, 14190, Note_on_c, 0, 72, 93
2, 14214, Note_off_c, 0, 72, 64
2, 14220, Note_on_c, 0, 79, 93
2, 14244, Note_off_c, 0, 79, 64
2, 14250, Note_on_c, 0, 72, 93
2, 14274, Note_off_c, 0, 72, 64
2, 14280, Note_on_c, 0, 71, 93
2, 14304, Note_off_c, 0, 71, 64
2, 14310, Note_on_c, 0, 72, 93
2, 14334, Note_off_c, 0, 72, 64
2, 14340, Note_on_c, 0, 77, 93
2, 14364, Note_off_c, 0, 77, 64
2, 14370, Note_on_c, 0, 74, 93
2, 14394, Note_off_c, 0, 74, 64
2, 14400, Note_on_c, 0, 76, 93
2, 14544, Note_off_c, 0, 76, 64
2, 14550, Note_on_c, 0, 74, 93
2, 14574, Note_off_c, 0, 74, 64
2, 14580, Note_on_c, 0, 72, 93
2, 14604, Note_off_c, 0, 72, 64
2, 14610, Note_on_c, 0, 74, 93
2, 14634, Note_off_c, 0, 74, 64
2, 14640, Note_on_c, 0, 76, 93
2, 14664, Note_off_c, 0, 76, 64
2, 14670, Note_on_c, 0, 77, 93
2, 14694, Note_off_c, 0, 77, 64
2, 14700, Note_on_c, 0, 79, 93
2, 14724, Note_off_c, 0, 79, 64
2, 14730, Note_on_c, 0, 81, 93
2, 14754, Note_off_c, 0, 81, 64
2, 14760, Note_on_c, 0, 77, 93
2, 14904, Note_off_c, 0, 77, 64
2, 14910, Note_on_c, 0, 76, 93
2, 14934, Note_off_c, 0, 76, 64
2, 14940, Note_on_c, 0, 74, 93
2, 14964, Note_off_c, 0, 74, 64
2, 14970, Note_on_c, 0, 76, 93
2, 14994, Note_off_c, 0, 76, 64
2, 15000, Note_on_c, 0, 77, 93
2, 15024, Note_off_c, 0, 77, 64
2, 15030, Note_on_c, 0, 79, 93
2, 15054, Note_off_c, 0, 79, 64
2, 15060, Note_on_c, 0, 81, 93
2, 15084, Note_off_c, 0, 81, 64
2, 15090, Note_on_c, 0, 83, 93
2, 15114, Note_off_c, 0, 83, 64
2, 15120, Note_on_c, 0, 79, 93
2, 15264, Note_off_c, 0, 79, 64
2, 15270, Note_on_c, 0, 77, 93
2, 15294, Note_off_c, 0, 77, 64
2, 15300, Note_on_c, 0, 81, 93
2, 15324, Note_off_c, 0, 81, 64
2, 15330, Note_on_c, 0, 79, 93
2, 15354, Note_off_c, 0, 79, 64
2, 15360, Note_on_c, 0, 77, 93
2, 15384, Note_off_c, 0, 77, 64
2, 15390, Note_on_c, 0, 76, 93
2, 15414, Note_off_c, 0, 76, 64
2, 15420, Note_on_c, 0, 74, 93
2, 15444, Note_off_c, 0, 74, 64
2, 15450, Note_on_c, 0, 72, 93
2, 15474, Note_off_c, 0, 72, 64
2, 15480, Note_on_c, 0, 76, 93
2, 15528, Note_off_c, 0, 76, 64
2, 15540, Note_on_c, 0, 74, 93
2, 15588, Note_off_c, 0, 74, 64
2, 15720, Note_on_c, 0, 79, 93
2, 15816, Note_off_c, 0, 79, 64
2, 15840, Note_on_c, 0, 72, 93
2, 15936, Note_off_c, 0, 72, 64
2, 16080, Note_on_c, 0, 77, 93
2, 16248, Note_off_c, 0, 77, 64
2, 16260, Note_on_c, 0, 76, 93
2, 16308, Note_off_c, 0, 76, 64
2, 16320, Note_on_c, 0, 74, 93
2, 16344, Note_off_c, 0, 74, 64
2, 16350, Note_on_c, 0, 76, 93
2, 16374, Note_off_c, 0, 76, 64
2, 16380, Note_on_c, 0, 77, 93
2, 16476, Note_off_c, 0, 77, 64
2, 16500, Note_on_c, 0, 71, 93
2, 16548, Note_off_c, 0, 71, 64
2, 16560, Note_on_c, 0, 72, 93
2, 16656, Note_off_c, 0, 72, 64
2, 17280, Note_on_c, 0, 67, 93
2, 17328, Note_off_c, 0, 67, 64
2, 17340, Note_on_c, 0, 71, 93
2, 17364, Note_off_c, 0, 71, 64
2, 17370, Note_on_c, 0, 74, 93
2, 17394, Note_off_c, 0, 74, 64
2, 17400, Note_on_c, 0, 76, 93
2, 17496, Note_off_c, 0, 76, 64
2, 17640, Note_on_c, 0, 67, 93
2, 17736, Note_off_c, 0, 67, 64
2, 17760, Note_on_c, 0, 66, 93
2, 17856, Note_off_c, 0, 66, 64
2, 18000, Note_on_c, 0, 67, 93
2, 18048, Note_off_c, 0, 67, 64
2, 18060, Note_on_c, 0, 71, 93
2, 18084, Note_off_c, 0, 71, 64
2, 18090, Note_on_c, 0, 74, 93
2, 18114, Note_off_c, 0, 74, 64
2, 18120, Note_on_c, 0, 79, 93
2, 18168, Note_off_c, 0, 79, 64
2, 18180, Note_on_c, 0, 79, 93
2, 18228, Note_off_c, 0, 79, 64
2, 18240, Note_on_c, 0, 79, 93
2, 18288, Note_off_c, 0, 79, 64
2, 18300, Note_on_c, 0, 79, 93
2, 18408, Note_off_c, 0, 79, 64
2, 18420, Note_on_c, 0, 78, 93
2, 18444, Note_off_c, 0, 78, 64
2, 18450, Note_on_c, 0, 76, 93
2, 18474, Note_off_c, 0, 76, 64
2, 18480, Note_on_c, 0, 78, 93
2, 18528, Note_off_c, 0, 78, 64
2, 18540, Note_on_c, 0, 69, 93
2, 18588, Note_off_c, 0, 69, 64
2, 18600, Note_on_c, 0, 67, 93
2, 18648, Note_off_c, 0, 67, 64
2, 18660, Note_on_c, 0, 77, 93
2, 18768, Note_off_c, 0, 77, 64
2, 18780, Note_on_c, 0, 76, 93
2, 18804, Note_off_c, 0, 76, 64
2, 18810, Note_on_c, 0, 74, 93
2, 18834, Note_off_c, 0, 74, 64
2, 18840, Note_on_c, 0, 76, 93
2, 18888, Note_off_c, 0, 76, 64
2, 18900, Note_on_c, 0, 67, 93
2, 18948, Note_off_c, 0, 67, 64
2, 18960, Note_on_c, 0, 66, 93
2, 19008, Note_off_c, 0, 66, 64
2, 19020, Note_on_c, 0, 76, 93
2, 19068, Note_off_c, 0, 76, 64
2, 19080, Note_on_c, 0, 74, 93
2, 19104, Note_off_c, 0, 74, 64
2, 19110, Note_on_c, 0, 72, 93
2, 19134, Note_off_c, 0, 72, 64
2, 19140, Note_on_c, 0, 76, 93
2, 19164, Note_off_c, 0, 76, 64
2, 19170, Note_on_c, 0, 74, 93
2, 19194, Note_off_c, 0, 74, 64
2, 19200, Note_on_c, 0, 72, 93
2, 19224, Note_off_c, 0, 72, 64
2, 19230, Note_on_c, 0, 71, 93
2, 19254, Note_off_c, 0, 71, 64
2, 19260, Note_on_c, 0, 69, 93
2, 19284, Note_off_c, 0, 69, 64
2, 19290, Note_on_c, 0, 67, 93
2, 19314, Note_off_c, 0, 67, 64
2, 19320, Note_on_c, 0, 66, 93
2, 19344, Note_off_c, 0, 66, 64
2, 19350, Note_on_c, 0, 72, 93
2, 19374, Note_off_c, 0, 72, 64
2, 19380, Note_on_c, 0, 71, 93
2, 19404, Note_off_c, 0, 71, 64
2, 19410, Note_on_c, 0, 69, 93
2, 19434, Note_off_c, 0, 69, 64
2, 19440, Note_on_c, 0, 71, 93
2, 19464, Note_off_c, 0, 71, 64
2, 19470, Note_on_c, 0, 69, 93
2, 19494, Note_off_c, 0, 69, 64
2, 19500, Note_on_c, 0, 67, 93
2, 19596, Note_off_c, 0, 67, 64
2, 19620, Note_on_c, 0, 69, 93
2, 19668, Note_off_c, 0, 69, 64
2, 19680, Note_on_c, 0, 70, 93
2, 19728, Note_off_c, 0, 70, 64
2, 19740, Note_on_c, 0, 71, 93
2, 19788, Note_off_c, 0, 71, 64
2, 19800, Note_on_c, 0, 72, 93
2, 19848, Note_off_c, 0, 72, 64
2, 19860, Note_on_c, 0, 73, 93
2, 19944, Note_off_c, 0, 73, 64
2, 19950, Note_on_c, 0, 74, 93
2, 19974, Note_off_c, 0, 74, 64
2, 19980, Note_on_c, 0, 76, 93
2, 20004, Note_off_c, 0, 76, 64
2, 20010, Note_on_c, 0, 77, 93
2, 20034, Note_off_c, 0, 77, 64
2, 20040, Note_on_c, 0, 79, 93
2, 20064, Note_off_c, 0, 79, 64
2, 20070, Note_on_c, 0, 77, 93
2, 20094, Note_off_c, 0, 77, 64
2, 20100, Note_on_c, 0, 76, 93
2, 20124, Note_off_c, 0, 76, 64
2, 20130, Note_on_c, 0, 79, 93
2, 20154, Note_off_c, 0, 79, 64
2, 20160, Note_on_c, 0, 77, 93
2, 20184, Note_off_c, 0, 77, 64
2, 20190, Note_on_c, 0, 62, 93
2, 20214, Note_off_c, 0, 62, 64
2, 20220, Note_on_c, 0, 64, 93
2, 20244, Note_off_c, 0, 64, 64
2, 20250, Note_on_c, 0, 65, 93
2, 20274, Note_off_c, 0, 65, 64
2, 20280, Note_on_c, 0, 67, 93
2, 20304, Note_off_c, 0, 67, 64
2, 20310, Note_on_c, 0, 69, 93
2, 20334, Note_off_c, 0, 69, 64
2, 20340, Note_on_c, 0, 71, 93
2, 20364, Note_off_c, 0, 71, 64
2, 20370, Note_on_c, 0, 73, 93
2, 20394, Note_off_c, 0, 73, 64
2, 20400, Note_on_c, 0, 74, 93
2, 20544, Note_off_c, 0, 74, 64
2, 20550, Note_on_c, 0, 72, 93
2, 20574, Note_off_c, 0, 72, 64
2, 20580, Note_on_c, 0, 70, 93
2, 20604, Note_off_c, 0, 70, 64
2, 20610, Note_on_c, 0, 69, 93
2, 20634, Note_off_c, 0, 69, 64
2, 20640, Note_on_c, 0, 70, 93
2, 20664, Note_off_c, 0, 70, 64
2, 20670, Note_on_c, 0, 74, 93
2, 20694, Note_off_c, 0, 74, 64
2, 20700, Note_on_c, 0, 67, 93
2, 20724, Note_off_c, 0, 67, 64
2, 20730, Note_on_c, 0, 70, 93
2, 20754, Note_off_c, 0, 70, 64
2, 20760, Note_on_c, 0, 62, 93
2, 20784, Note_off_c, 0, 62, 64
2, 20790, Note_on_c, 0, 65, 93
2, 20814, Note_off_c, 0, 65, 64
2, 20820, Note_on_c, 0, 64, 93
2, 20844, Note_off_c, 0, 64, 64
2, 20850, Note_on_c, 0, 62, 93
2, 20874, Note_off_c, 0, 62, 64
2, 20880, Note_on_c, 0, 64, 93
2, 20904, Note_off_c, 0, 64, 64
2, 20910, Note_on_c, 0, 60, 93
2, 20934, Note_off_c, 0, 60, 64
2, 20940, Note_on_c, 0, 62, 93
2, 20964, Note_off_c, 0, 62, 64
2, 20970, Note_on_c, 0, 64, 93
2, 20994, Note_off_c, 0, 64, 64
2, 21000, Note_on_c, 0, 65, 93
2, 21024, Note_off_c, 0, 65, 64
2, 21030, Note_on_c, 0, 67, 93
2, 21054, Note_off_c, 0, 67, 64
2, 21060, Note_on_c, 0, 69, 93
2, 21084, Note_off_c, 0, 69, 64
2, 21090, Note_on_c, 0, 71, 93
2, 21114, Note_off_c, 0, 71, 64
2, 21120, Note_on_c, 0, 72, 93
2, 21264, Note_off_c, 0, 72, 64
2, 21270, Note_on_c, 0, 70, 93
2, 21294, Note_off_c, 0, 70, 64
2, 21300, Note_on_c, 0, 69, 93
2, 21324, Note_off_c, 0, 69, 64
2, 21330, Note_on_c, 0, 67, 93
2, 21354, Note_off_c, 0, 67, 64
2, 21360, Note_on_c, 0, 69, 93
2, 21384, Note_off_c, 0, 69, 64
2, 21390, Note_on_c, 0, 72, 93
2, 21414, Note_off_c, 0, 72, 64
2, 21420, Note_on_c, 0, 65, 93
2, 21444, Note_off_c, 0, 65, 64
2, 21450, Note_on_c, 0, 69, 93
2, 21474, Note_off_c, 0, 69, 64
2, 21480, Note_on_c, 0, 60, 93
2, 21504, Note_off_c, 0, 60, 64
2, 21510, Note_on_c, 0, 63, 93
2, 21534, Note_off_c, 0, 63, 64
2, 21540, Note_on_c, 0, 62, 93
2, 21564, Note_off_c, 0, 62, 64
2, 21570, Note_on_c, 0, 60, 93
2, 21594, Note_off_c, 0, 60, 64
2, 21600, Note_on_c, 0, 62, 93
2, 21696, Note_off_c, 0, 62, 64
2, 21750, Note_on_c, 0, 70, 93
2, 21774, Note_off_c, 0, 70, 64
2, 21780, Note_on_c, 0, 69, 93
2, 21804, Note_off_c, 0, 69, 64
2, 21810, Note_on_c, 0, 70, 93
2, 21834, Note_off_c, 0, 70, 64
2, 21840, Note_on_c, 0, 74, 93
2, 21888, Note_off_c, 0, 74, 64
2, 21900, Note_on_c, 0, 79, 93
2, 21984, Note_off_c, 0, 79, 64
2, 21990, Note_on_c, 0, 76, 93
2, 22014, Note_off_c, 0, 76, 64
2, 22020, Note_on_c, 0, 74, 93
2, 22044, Note_off_c, 0, 74, 64
2, 22050, Note_on_c, 0, 76, 93
2, 22074, Note_off_c, 0, 76, 64
2, 22080, Note_on_c, 0, 81, 93
2, 22128, Note_off_c, 0, 81, 64
2, 22140, Note_on_c, 0, 79, 93
2, 22224, Note_off_c, 0, 79, 64
2, 22230, Note_on_c, 0, 77, 93
2, 22254, Note_off_c, 0, 77, 64
2, 22260, Note_on_c, 0, 76, 93
2, 22284, Note_off_c, 0, 76, 64
2, 22290, Note_on_c, 0, 79, 93
2, 22314, Note_off_c, 0, 79, 64
2, 22320, Note_on_c, 0, 77, 93
2, 22704, Note_off_c, 0, 77, 64
2, 22710, Note_on_c, 0, 74, 93
2, 22734, Note_off_c, 0, 74, 64
2, 22740, Note_on_c, 0, 73, 93
2, 22764, Note_off_c, 0, 73, 64
2, 22770, Note_on_c, 0, 74, 93
2, 22794, Note_off_c, 0, 74, 64
2, 22800, Note_on_c, 0, 79, 93
2, 22848, Note_off_c, 0, 79, 64
2, 22860, Note_on_c, 0, 77, 93
2, 22944, Note_off_c, 0, 77, 64
2, 22950, Note_on_c, 0, 76, 93
2, 22974, Note_off_c, 0, 76, 64
2, 22980, Note_on_c, 0, 74, 93
2, 23004, Note_off_c, 0, 74, 64
2, 23010, Note_on_c, 0, 76, 93
2, 23034, Note_off_c, 0, 76, 64
2, 23040, Note_on_c, 0, 73, 93
2, 23088, Note_off_c, 0, 73, 64
2, 23100, Note_on_c, 0, 81, 93
2, 23148, Note_off_c, 0, 81, 64
2, 23160, Note_on_c, 0, 74, 93
2, 23208, Note_off_c, 0, 74, 64
2, 23220, Note_on_c, 0, 81, 93
2, 23268, Note_off_c, 0, 81, 64
2, 23280, Note_on_c, 0, 76, 93
2, 23328, Note_off_c, 0, 76, 64
2, 23340, Note_on_c, 0, 81, 93
2, 23388, Note_off_c, 0, 81, 64
2, 23400, Note_on_c, 0, 77, 93
2, 23448, Note_off_c, 0, 77, 64
2, 23460, Note_on_c, 0, 81, 93
2, 23508, Note_off_c, 0, 81, 64
2, 23520, Note_on_c, 0, 79, 93
2, 23568, Note_off_c, 0, 79, 64
2, 23580, Note_on_c, 0, 81, 93
2, 23628, Note_off_c, 0, 81, 64
2, 23640, Note_on_c, 0, 77, 93
2, 23688, Note_off_c, 0, 77, 64
2, 23700, Note_on_c, 0, 81, 93
2, 23748, Note_off_c, 0, 81, 64
2, 23760, Note_on_c, 0, 76, 93
2, 23784, Note_off_c, 0, 76, 64
2, 23790, Note_on_c, 0, 81, 93
2, 23814, Note_off_c, 0, 81, 64
2, 23820, Note_on_c, 0, 79, 93
2, 23844, Note_off_c, 0, 79, 64
2, 23850, Note_on_c, 0, 76, 93
2, 23874, Note_off_c, 0, 76, 64
2, 23880, Note_on_c, 0, 77, 93
2, 23904, Note_off_c, 0, 77, 64
2, 23910, Note_on_c, 0, 81, 93
2, 23934, Note_off_c, 0, 81, 64
2, 23940, Note_on_c, 0, 77, 93
2, 23964, Note_off_c, 0, 77, 64
2, 23970, Note_on_c, 0, 74, 93
2, 23994, Note_off_c, 0, 74, 64
2, 24000, Note_on_c, 0, 73, 93
2, 24024, Note_off_c, 0, 73, 64
2, 24030, Note_on_c, 0, 76, 93
2, 24054, Note_off_c, 0, 76, 64
2, 24060, Note_on_c, 0, 73, 93
2, 24084, Note_off_c, 0, 73, 64
2, 24090, Note_on_c, 0, 69, 93
2, 24114, Note_off_c, 0, 69, 64
2, 24120, Note_on_c, 0, 74, 93
2, 24144, Note_off_c, 0, 74, 64
2, 24150, Note_on_c, 0, 76, 93
2, 24174, Note_off_c, 0, 76, 64
2, 24180, Note_on_c, 0, 74, 93
2, 24204, Note_off_c, 0, 74, 64
2, 24210, Note_on_c, 0, 69, 93
2, 24234, Note_off_c, 0, 69, 64
2, 24240, Note_on_c, 0, 76, 93
2, 24264, Note_off_c, 0, 76, 64
2, 24270, Note_on_c, 0, 77, 93
2, 24294, Note_off_c, 0, 77, 64
2, 24300, Note_on_c, 0, 76, 93
2, 24324, Note_off_c, 0, 76, 64
2, 24330, Note_on_c, 0, 69, 93
2, 24354, Note_off_c, 0, 69, 64
2, 24360, Note_on_c, 0, 74, 93
2, 24384, Note_off_c, 0, 74, 64
2, 24390, Note_on_c, 0, 76, 93
2, 24414, Note_off_c, 0, 76, 64
2, 24420, Note_on_c, 0, 74, 93
2, 24444, Note_off_c, 0, 74, 64
2, 24450, Note_on_c, 0, 69, 93
2, 24474, Note_off_c, 0, 69, 64
2, 24480, Note_on_c, 0, 73, 93
2, 24504, Note_off_c, 0, 73, 64
2, 24510, Note_on_c, 0, 71, 93
2, 24534, Note_off_c, 0, 71, 64
2, 24540, Note_on_c, 0, 69, 93
2, 24744, Note_off_c, 0, 69, 64
2, 24750, Note_on_c, 0, 67, 93
2, 24774, Note_off_c, 0, 67, 64
2, 24780, Note_on_c, 0, 69, 93
2, 24804, Note_off_c, 0, 69, 64
2, 24810, Note_on_c, 0, 71, 93
2, 24834, Note_off_c, 0, 71, 64
2, 24840, Note_on_c, 0, 72, 93
2, 24888, Note_off_c, 0, 72, 64
2, 24900, Note_on_c, 0, 73, 93
2, 24984, Note_off_c, 0, 73, 64
2, 24990, Note_on_c, 0, 74, 93
2, 25014, Note_off_c, 0, 74, 64
2, 25020, Note_on_c, 0, 76, 93
2, 25044, Note_off_c, 0, 76, 64
2, 25050, Note_on_c, 0, 77, 93
2, 25074, Note_off_c, 0, 77, 64
2, 25080, Note_on_c, 0, 79, 93
2, 25104, Note_off_c, 0, 79, 64
2, 25110, Note_on_c, 0, 77, 93
2, 25134, Note_off_c, 0, 77, 64
2, 25140, Note_on_c, 0, 76, 93
2, 25164, Note_off_c, 0, 76, 64
2, 25170, Note_on_c, 0, 79, 93
2, 25194, Note_off_c, 0, 79, 64
2, 25200, Note_on_c, 0, 77, 93
2, 25296, Note_off_c, 0, 77, 64
2, 25440, Note_on_c, 0, 81, 93
2, 25584, Note_off_c, 0, 81, 64
2, 25590, Note_on_c, 0, 74, 93
2, 25614, Note_off_c, 0, 74, 64
2, 25620, Note_on_c, 0, 73, 93
2, 25644, Note_off_c, 0, 73, 64
2, 25650, Note_on_c, 0, 74, 93
2, 25674, Note_off_c, 0, 74, 64
2, 25680, Note_on_c, 0, 79, 93
2, 25728, Note_off_c, 0, 79, 64
2, 25740, Note_on_c, 0, 77, 93
2, 25824, Note_off_c, 0, 77, 64
2, 25830, Note_on_c, 0, 75, 93
2, 25854, Note_off_c, 0, 75, 64
2, 25860, Note_on_c, 0, 74, 93
2, 25884, Note_off_c, 0, 74, 64
2, 25890, Note_on_c, 0, 77, 93
2, 25914, Note_off_c, 0, 77, 64
2, 25920, Note_on_c, 0, 75, 93
2, 26016, Note_off_c, 0, 75, 64
2, 26160, Note_on_c, 0, 74, 93
2, 26256, Note_off_c, 0, 74, 64
2, 26280, Note_on_c, 0, 73, 93
2, 26376, Note_off_c, 0, 73, 64
2, 26400, Note_on_c, 0, 76, 93
2, 26412, Note_off_c, 0, 76, 64
2, 26415, Note_on_c, 0, 74, 93
2, 26427, Note_off_c, 0, 74, 64
2, 26430, Note_on_c, 0, 76, 93
2, 26442, Note_off_c, 0, 76, 64
2, 26445, Note_on_c, 0, 74, 93
2, 26457, Note_off_c, 0, 74, 64
2, 26460, Note_on_c, 0, 76, 93
2, 26472, Note_off_c, 0, 76, 64
2, 26475, Note_on_c, 0, 74, 93
2, 26487, Note_off_c, 0, 74, 64
2, 26490, Note_on_c, 0, 76, 93
2, 26502, Note_off_c, 0, 76, 64
2, 26505, Note_on_c, 0, 74, 93
2, 26517, Note_off_c, 0, 74, 64
2, 26520, Note_on_c, 0, 76, 93
2, 26616, Note_off_c, 0, 76, 64
2, 26640, Note_on_c, 0, 69, 93
2, 26784, Note_off_c, 0, 69, 64
2, 26790, Note_on_c, 0, 67, 93
2, 26814, Note_off_c, 0, 67, 64
2, 26820, Note_on_c, 0, 69, 93
2, 26844, Note_off_c, 0, 69, 64
2, 26850, Note_on_c, 0, 74, 93
2, 26874, Note_off_c, 0, 74, 64
2, 26880, Note_on_c, 0, 62, 93
2, 27144, Note_off_c, 0, 62, 64
2, 27150, Note_on_c, 0, 61, 93
2, 27174, Note_off_c, 0, 61, 64
2, 27180, Note_on_c, 0, 59, 93
2, 27204, Note_off_c, 0, 59, 64
2, 27210, Note_on_c, 0, 61, 93
2, 27234, Note_off_c, 0, 61, 64
2, 27240, Note_on_c, 0, 62, 93
2, 27252, Note_off_c, 0, 62, 64
2, 27255, Note_on_c, 0, 61, 93
2, 27267, Note_off_c, 0, 61, 64
2, 27270, Note_on_c, 0, 62, 93
2, 27282, Note_off_c, 0, 62, 64
2, 27285, Note_on_c, 0, 61, 93
2, 27297, Note_off_c, 0, 61, 64
2, 27300, Note_on_c, 0, 62, 93
2, 27312, Note_off_c, 0, 62, 64
2, 27315, Note_on_c, 0, 61, 93
2, 27327, Note_off_c, 0, 61, 64
2, 27330, Note_on_c, 0, 62, 93
2, 27408, Note_off_c, 0, 62, 64
2, 27420, Note_on_c, 0, 77, 93
2, 27504, Note_off_c, 0, 77, 64
2, 27510, Note_on_c, 0, 76, 93
2, 27534, Note_off_c, 0, 76, 64
2, 27540, Note_on_c, 0, 74, 93
2, 27564, Note_off_c, 0, 74, 64
2, 27570, Note_on_c, 0, 72, 93
2, 27594, Note_off_c, 0, 72, 64
2, 27600, Note_on_c, 0, 71, 93
2, 27624, Note_off_c, 0, 71, 64
2, 27630, Note_on_c, 0, 69, 93
2, 27654, Note_off_c, 0, 69, 64
2, 27660, Note_on_c, 0, 71, 93
2, 27684, Note_off_c, 0, 71, 64
2, 27690, Note_on_c, 0, 74, 93
2, 27714, Note_off_c, 0, 74, 64
2, 27720, Note_on_c, 0, 68, 93
2, 27816, Note_off_c, 0, 68, 64
2, 27840, Note_on_c, 0, 69, 93
2, 27888, Note_off_c, 0, 69, 64
2, 27900, Note_on_c, 0, 71, 93
2, 27948, Note_off_c, 0, 71, 64
2, 27960, Note_on_c, 0, 72, 93
2, 28008, Note_off_c, 0, 72, 64
2, 28020, Note_on_c, 0, 69, 93
2, 28068, Note_off_c, 0, 69, 64
2, 28080, Note_on_c, 0, 74, 93
2, 28464, Note_off_c, 0, 74, 64
2, 28470, Note_on_c, 0, 81, 93
2, 28494, Note_off_c, 0, 81, 64
2, 28500, Note_on_c, 0, 83, 93
2, 28524, Note_off_c, 0, 83, 64
2, 28530, Note_on_c, 0, 84, 93
2, 28554, Note_off_c, 0, 84, 64
2, 28560, Note_on_c, 0, 83, 93
2, 28584, Note_off_c, 0, 83, 64
2, 28590, Note_on_c, 0, 81, 93
2, 28614, Note_off_c, 0, 81, 64
2, 28620, Note_on_c, 0, 80, 93
2, 28644, Note_off_c, 0, 80, 64
2, 28650, Note_on_c, 0, 78, 93
2, 28674, Note_off_c, 0, 78, 64
2, 28680, Note_on_c, 0, 76, 93
2, 28704, Note_off_c, 0, 76, 64
2, 28710, Note_on_c, 0, 74, 93
2, 28734, Note_off_c, 0, 74, 64
2, 28740, Note_on_c, 0, 72, 93
2, 28764, Note_off_c, 0, 72, 64
2, 28770, Note_on_c, 0, 71, 93
2, 28794, Note_off_c, 0, 71, 64
2, 28800, Note_on_c, 0, 72, 93
2, 28824, Note_off_c, 0, 72, 64
2, 28830, Note_on_c, 0, 69, 93
2, 28854, Note_off_c, 0, 69, 64
2, 28860, Note_on_c, 0, 72, 93
2, 28884, Note_off_c, 0, 72, 64
2, 28890, Note_on_c, 0, 76, 93
2, 28914, Note_off_c, 0, 76, 64
2, 28920, Note_on_c, 0, 77, 93
2, 29016, Note_off_c, 0, 77, 64
2, 29160, Note_on_c, 0, 69, 93
2, 29256, Note_off_c, 0, 69, 64
2, 29280, Note_on_c, 0, 68, 93
2, 29376, Note_off_c, 0, 68, 64
2, 29520, Note_on_c, 0, 69, 93
2, 29568, Note_off_c, 0, 69, 64
2, 29580, Note_on_c, 0, 72, 93
2, 29604, Note_off_c, 0, 72, 64
2, 29610, Note_on_c, 0, 76, 93
2, 29634, Note_off_c, 0, 76, 64
2, 29640, Note_on_c, 0, 81, 93
2, 29688, Note_off_c, 0, 81, 64
2, 29700, Note_on_c, 0, 81, 93
2, 29748, Note_off_c, 0, 81, 64
2, 29760, Note_on_c, 0, 81, 93
2, 29808, Note_off_c, 0, 81, 64
2, 29820, Note_on_c, 0, 81, 93
2, 29928, Note_off_c, 0, 81, 64
2, 29940, Note_on_c, 0, 79, 93
2, 29964, Note_off_c, 0, 79, 64
2, 29970, Note_on_c, 0, 77, 93
2, 29994, Note_off_c, 0, 77, 64
2, 30000, Note_on_c, 0, 79, 93
2, 30048, Note_off_c, 0, 79, 64
2, 30060, Note_on_c, 0, 70, 93
2, 30108, Note_off_c, 0, 70, 64
2, 30120, Note_on_c, 0, 69, 93
2, 30168, Note_off_c, 0, 69, 64
2, 30180, Note_on_c, 0, 79, 93
2, 30228, Note_off_c, 0, 79, 64
2, 30240, Note_on_c, 0, 79, 93
2, 30288, Note_off_c, 0, 79, 64
2, 30300, Note_on_c, 0, 77, 93
2, 30324, Note_off_c, 0, 77, 64
2, 30330, Note_on_c, 0, 76, 93
2, 30354, Note_off_c, 0, 76, 64
2, 30360, Note_on_c, 0, 77, 93
2, 30408, Note_off_c, 0, 77, 64
2, 30420, Note_on_c, 0, 69, 93
2, 30468, Note_off_c, 0, 69, 64
2, 30480, Note_on_c, 0, 68, 93
2, 30528, Note_off_c, 0, 68, 64
2, 30540, Note_on_c, 0, 77, 93
2, 30588, Note_off_c, 0, 77, 64
2, 30600, Note_on_c, 0, 76, 93
2, 30624, Note_off_c, 0, 76, 64
2, 30630, Note_on_c, 0, 74, 93
2, 30654, Note_off_c, 0, 74, 64
2, 30660, Note_on_c, 0, 77, 93
2, 30684, Note_off_c, 0, 77, 64
2, 30690, Note_on_c, 0, 76, 93
2, 30714, Note_off_c, 0, 76, 64
2, 30720, Note_on_c, 0, 74, 93
2, 30744, Note_off_c, 0, 74, 64
2, 30750, Note_on_c, 0, 72, 93
2, 30774, Note_off_c, 0, 72, 64
2, 30780, Note_on_c, 0, 71, 93
2, 30804, Note_off_c, 0, 71, 64
2, 30810, Note_on_c, 0, 69, 93
2, 30834, Note_off_c, 0, 69, 64
2, 30840, Note_on_c, 0, 68, 93
2, 30864, Note_off_c, 0, 68, 64
2, 30870, Note_on_c, 0, 74, 93
2, 30894, Note_off_c, 0, 74, 64
2, 30900, Note_on_c, 0, 72, 93
2, 30924, Note_off_c, 0, 72, 64
2, 30930, Note_on_c, 0, 71, 93
2, 30954, Note_off_c, 0, 71, 64
2, 30960, Note_on_c, 0, 72, 93
2, 30984, Note_off_c, 0, 72, 64
2, 30990, Note_on_c, 0, 71, 93
2, 31014, Note_off_c, 0, 71, 64
2, 31020, Note_on_c, 0, 69, 93
2, 31116, Note_off_c, 0, 69, 64
2, 31140, Note_on_c, 0, 71, 93
2, 31188, Note_off_c, 0, 71, 64
2, 31200, Note_on_c, 0, 72, 93
2, 31248, Note_off_c, 0, 72, 64
2, 31260, Note_on_c, 0, 73, 93
2, 31308, Note_off_c, 0, 73, 64
2, 31320, Note_on_c, 0, 74, 93
2, 31368, Note_off_c, 0, 74, 64
2, 31380, Note_on_c, 0, 75, 93
2, 31464, Note_off_c, 0, 75, 64
2, 31470, Note_on_c, 0, 76, 93
2, 31494, Note_off_c, 0, 76, 64
2, 31500, Note_on_c, 0, 78, 93
2, 31524, Note_off_c, 0, 78, 64
2, 31530, Note_on_c, 0, 79, 93
2, 31554, Note_off_c, 0, 79, 64
2, 31560, Note_on_c, 0, 81, 93
2, 31584, Note_off_c, 0, 81, 64
2, 31590, Note_on_c, 0, 79, 93
2, 31614, Note_off_c, 0, 79, 64
2, 31620, Note_on_c, 0, 78, 93
2, 31644, Note_off_c, 0, 78, 64
2, 31650, Note_on_c, 0, 81, 93
2, 31674, Note_off_c, 0, 81, 64
2, 31680, Note_on_c, 0, 79, 93
2, 31824, Note_off_c, 0, 79, 64
2, 31830, Note_on_c, 0, 78, 93
2, 31854, Note_off_c, 0, 78, 64
2, 31860, Note_on_c, 0, 76, 93
2, 31884, Note_off_c, 0, 76, 64
2, 31890, Note_on_c, 0, 78, 93
2, 31914, Note_off_c, 0, 78, 64
2, 31920, Note_on_c, 0, 79, 93
2, 31968, Note_off_c, 0, 79, 64
2, 31980, Note_on_c, 0, 80, 93
2, 32028, Note_off_c, 0, 80, 64
2, 32040, Note_on_c, 0, 81, 93
2, 32184, Note_off_c, 0, 81, 64
2, 32190, Note_on_c, 0, 79, 93
2, 32214, Note_off_c, 0, 79, 64
2, 32220, Note_on_c, 0, 78, 93
2, 32244, Note_off_c, 0, 78, 64
2, 32250, Note_on_c, 0, 79, 93
2, 32274, Note_off_c, 0, 79, 64
2, 32280, Note_on_c, 0, 81, 93
2, 32328, Note_off_c, 0, 81, 64
2, 32340, Note_on_c, 0, 82, 93
2, 32388, Note_off_c, 0, 82, 64
2, 32400, Note_on_c, 0, 83, 93
2, 32544, Note_off_c, 0, 83, 64
2, 32550, Note_on_c, 0, 81, 93
2, 32574, Note_off_c, 0, 81, 64
2, 32580, Note_on_c, 0, 84, 93
2, 32604, Note_off_c, 0, 84, 64
2, 32610, Note_on_c, 0, 83, 93
2, 32634, Note_off_c, 0, 83, 64
2, 32640, Note_on_c, 0, 81, 93
2, 32664, Note_off_c, 0, 81, 64
2, 32670, Note_on_c, 0, 79, 93
2, 32694, Note_off_c, 0, 79, 64
2, 32700, Note_on_c, 0, 78, 93
2, 32724, Note_off_c, 0, 78, 64
2, 32730, Note_on_c, 0, 76, 93
2, 32754, Note_off_c, 0, 76, 64
2, 32760, Note_on_c, 0, 79, 93
2, 32808, Note_off_c, 0, 79, 64
2, 32820, Note_on_c, 0, 78, 93
2, 32868, Note_off_c, 0, 78, 64
2, 33000, Note_on_c, 0, 83, 93
2, 33096, Note_off_c, 0, 83, 64
2, 33120, Note_on_c, 0, 76, 93
2, 33216, Note_off_c, 0, 76, 64
2, 33360, Note_on_c, 0, 81, 93
2, 33528, Note_off_c, 0, 81, 64
2, 33540, Note_on_c, 0, 79, 93
2, 33588, Note_off_c, 0, 79, 64
2, 33600, Note_on_c, 0, 78, 93
2, 33624, Note_off_c, 0, 78, 64
2, 33630, Note_on_c, 0, 79, 93
2, 33654, Note_off_c, 0, 79, 64
2, 33660, Note_on_c, 0, 81, 93
2, 33756, Note_off_c, 0, 81, 64
2, 33780, Note_on_c, 0, 75, 93
2, 33828, Note_off_c, 0, 75, 64
2, 33840, Note_on_c, 0, 76, 93
2, 33864, Note_off_c, 0, 76, 64
2, 33870, Note_on_c, 0, 78, 93
2, 33894, Note_off_c, 0, 78, 64
2, 33900, Note_on_c, 0, 79, 93
2, 33924, Note_off_c, 0, 79, 64
2, 33930, Note_on_c, 0, 81, 93
2, 33954, Note_off_c, 0, 81, 64
2, 33960, Note_on_c, 0, 82, 93
2, 34056, Note_off_c, 0, 82, 64
2, 34140, Note_on_c, 0, 73, 93
2, 34188, Note_off_c, 0, 73, 64
2, 34200, Note_on_c, 0, 74, 93
2, 34224, Note_off_c, 0, 74, 64
2, 34230, Note_on_c, 0, 76, 93
2, 34254, Note_off_c, 0, 76, 64
2, 34260, Note_on_c, 0, 77, 93
2, 34284, Note_off_c, 0, 77, 64
2, 34290, Note_on_c, 0, 79, 93
2, 34314, Note_off_c, 0, 79, 64
2, 34320, Note_on_c, 0, 80, 93
2, 34416, Note_off_c, 0, 80, 64
2, 34500, Note_on_c, 0, 71, 93
2, 34548, Note_off_c, 0, 71, 64
2, 34560, Note_on_c, 0, 72, 93
2, 34608, Note_off_c, 0, 72, 64
2, 34620, Note_on_c, 0, 76, 93
2, 34644, Note_off_c, 0, 76, 64
2, 34650, Note_on_c, 0, 79, 93
2, 34674, Note_off_c, 0, 79, 64
2, 34680, Note_on_c, 0, 84, 93
2, 34776, Note_off_c, 0, 84, 64
2, 34830, Note_on_c, 0, 72, 93
2, 34854, Note_off_c, 0, 72, 64
2, 34860, Note_on_c, 0, 74, 93
2, 34884, Note_off_c, 0, 74, 64
2, 34890, Note_on_c, 0, 76, 93
2, 34914, Note_off_c, 0, 76, 64
2, 34920, Note_on_c, 0, 74, 93
2, 34944, Note_off_c, 0, 74, 64
2, 34950, Note_on_c, 0, 72, 93
2, 34974, Note_off_c, 0, 72, 64
2, 34980, Note_on_c, 0, 71, 93
2, 35004, Note_off_c, 0, 71, 64
2, 35010, Note_on_c, 0, 74, 93
2, 35034, Note_off_c, 0, 74, 64
2, 35040, Note_on_c, 0, 83, 93
2, 35304, Note_off_c, 0, 83, 64
2, 35310, Note_on_c, 0, 76, 93
2, 35334, Note_off_c, 0, 76, 64
2, 35340, Note_on_c, 0, 74, 93
2, 35364, Note_off_c, 0, 74, 64
2, 35370, Note_on_c, 0, 76, 93
2, 35394, Note_off_c, 0, 76, 64
2, 35400, Note_on_c, 0, 81, 93
2, 35448, Note_off_c, 0, 81, 64
2, 35460, Note_on_c, 0, 79, 93
2, 35544, Note_off_c, 0, 79, 64
2, 35550, Note_on_c, 0, 77, 93
2, 35574, Note_off_c, 0, 77, 64
2, 35580, Note_on_c, 0, 76, 93
2, 35604, Note_off_c, 0, 76, 64
2, 35610, Note_on_c, 0, 79, 93
2, 35634, Note_off_c, 0, 79, 64
2, 35640, Note_on_c, 0, 77, 93
2, 35736, Note_off_c, 0, 77, 64
2, 35880, Note_on_c, 0, 81, 93
2, 36024, Note_off_c, 0, 81, 64
2, 36030, Note_on_c, 0, 74, 93
2, 36054, Note_off_c, 0, 74, 64
2, 36060, Note_on_c, 0, 73, 93
2, 36084, Note_off_c, 0, 73, 64
2, 36090, Note_on_c, 0, 74, 93
2, 36114, Note_off_c, 0, 74, 64
2, 36120, Note_on_c, 0, 79, 93
2, 36168, Note_off_c, 0, 79, 64
2, 36180, Note_on_c, 0, 77, 93
2, 36264, Note_off_c, 0, 77, 64
2, 36270, Note_on_c, 0, 76, 93
2, 36294, Note_off_c, 0, 76, 64
2, 36300, Note_on_c, 0, 74, 93
2, 36324, Note_off_c, 0, 74, 64
2, 36330, Note_on_c, 0, 77, 93
2, 36354, Note_off_c, 0, 77, 64
2, 36360, Note_on_c, 0, 71, 93
2, 36384, Note_off_c, 0, 71, 64
2, 36390, Note_on_c, 0, 77, 93
2, 36414, Note_off_c, 0, 77, 64
2, 36420, Note_on_c, 0, 76, 93
2, 36444, Note_off_c, 0, 76, 64
2, 36450, Note_on_c, 0, 71, 93
2, 36474, Note_off_c, 0, 71, 64
2, 36480, Note_on_c, 0, 72, 93
2, 36504, Note_off_c, 0, 72, 64
2, 36510, Note_on_c, 0, 77, 93
2, 36534, Note_off_c, 0, 77, 64
2, 36540, Note_on_c, 0, 76, 93
2, 36564, Note_off_c, 0, 76, 64
2, 36570, Note_on_c, 0, 72, 93
2, 36594, Note_off_c, 0, 72, 64
2, 36600, Note_on_c, 0, 74, 93
2, 36624, Note_off_c, 0, 74, 64
2, 36630, Note_on_c, 0, 77, 93
2, 36654, Note_off_c, 0, 77, 64
2, 36660, Note_on_c, 0, 76, 93
2, 36684, Note_off_c, 0, 76, 64
2, 36690, Note_on_c, 0, 74, 93
2, 36714, Note_off_c, 0, 74, 64
2, 36720, Note_on_c, 0, 72, 93
2, 36744, Note_off_c, 0, 72, 64
2, 36750, Note_on_c, 0, 71, 93
2, 36774, Note_off_c, 0, 71, 64
2, 36780, Note_on_c, 0, 69, 93
2, 36804, Note_off_c, 0, 69, 64
2, 36810, Note_on_c, 0, 71, 93
2, 36834, Note_off_c, 0, 71, 64
2, 36840, Note_on_c, 0, 72, 93
2, 36888, Note_off_c, 0, 72, 64
2, 36900, Note_on_c, 0, 73, 93
2, 36948, Note_off_c, 0, 73, 64
2, 36960, Note_on_c, 0, 74, 93
2, 37008, Note_off_c, 0, 74, 64
2, 37020, Note_on_c, 0, 75, 93
2, 37068, Note_off_c, 0, 75, 64
2, 37080, Note_on_c, 0, 76, 93
2, 37104, Note_off_c, 0, 76, 64
2, 37110, Note_on_c, 0, 74, 93
2, 37134, Note_off_c, 0, 74, 64
2, 37140, Note_on_c, 0, 76, 93
2, 37164, Note_off_c, 0, 76, 64
2, 37170, Note_on_c, 0, 77, 93
2, 37194, Note_off_c, 0, 77, 64
2, 37200, Note_on_c, 0, 72, 93
2, 37212, Note_off_c, 0, 72, 64
2, 37215, Note_on_c, 0, 71, 93
2, 37227, Note_off_c, 0, 71, 64
2, 37230, Note_on_c, 0, 72, 93
2, 37242, Note_off_c, 0, 72, 64
2, 37245, Note_on_c, 0, 71, 93
2, 37257, Note_off_c, 0, 71, 64
2, 37260, Note_on_c, 0, 72, 93
2, 37272, Note_off_c, 0, 72, 64
2, 37275, Note_on_c, 0, 71, 93
2, 37287, Note_off_c, 0, 71, 64
2, 37290, Note_on_c, 0, 72, 93
2, 37302, Note_off_c, 0, 72, 64
2, 37305, Note_on_c, 0, 71, 93
2, 37317, Note_off_c, 0, 71, 64
2, 37320, Note_on_c, 0, 72, 93
2, 37332, Note_off_c, 0, 72, 64
2, 37335, Note_on_c, 0, 71, 93
2, 37347, Note_off_c, 0, 71, 64
2, 37350, Note_on_c, 0, 72, 93
2, 37362, Note_off_c, 0, 72, 64
2, 37365, Note_on_c, 0, 71, 93
2, 37377, Note_off_c, 0, 71, 64
2, 37380, Note_on_c, 0, 69, 93
2, 37488, Note_off_c, 0, 69, 64
2, 37500, Note_on_c, 0, 77, 93
2, 37596, Note_off_c, 0, 77, 64
2, 37620, Note_on_c, 0, 75, 93
2, 37716, Note_off_c, 0, 75, 64
2, 37740, Note_on_c, 0, 76, 93
2, 37824, Note_off_c, 0, 76, 64
2, 37830, Note_on_c, 0, 74, 93
2, 37854, Note_off_c, 0, 74, 64
2, 37860, Note_on_c, 0, 72, 93
2, 37884, Note_off_c, 0, 72, 64
2, 37890, Note_on_c, 0, 71, 93
2, 37914, Note_off_c, 0, 71, 64
2, 37920, Note_on_c, 0, 72, 93
2, 37968, Note_off_c, 0, 72, 64
2, 37980, Note_on_c, 0, 71, 93
2, 38028, Note_off_c, 0, 71, 64
2, 38040, Note_on_c, 0, 72, 93
2, 38064, Note_off_c, 0, 72, 64
2, 38070, Note_on_c, 0, 71, 93
2, 38094, Note_off_c, 0, 71, 64
2, 38100, Note_on_c, 0, 72, 93
2, 38124, Note_off_c, 0, 72, 64
2, 38130, Note_on_c, 0, 69, 93
2, 38154, Note_off_c, 0, 69, 64
2, 38160, Note_on_c, 0, 68, 93
2, 38736, Note_off_c, 0, 68, 64
2, 38736, End_track
3, 0, Start_track
3, 0, Title_t, "J.S. Bach, Edition Peters"
3, 0, Program_c, 1, 19
3, 2880, Note_on_c, 1, 64, 93
3, 2928, Note_off_c, 1, 64, 64
3, 2940, Note_on_c, 1, 67, 93
3, 2964, Note_off_c, 1, 67, 64
3, 2970, Note_on_c, 1, 71, 93
3, 2994, Note_off_c, 1, 71, 64
3, 3000, Note_on_c, 1, 72, 93
3, 3096, Note_off_c, 1, 72, 64
3, 3240, Note_on_c, 1, 64, 93
3, 3336, Note_off_c, 1, 64, 64
3, 3360, Note_on_c, 1, 63, 93
3, 3456, Note_off_c, 1, 63, 64
3, 3600, Note_on_c, 1, 64, 93
3, 3648, Note_off_c, 1, 64, 64
3, 3660, Note_on_c, 1, 67, 93
3, 3684, Note_off_c, 1, 67, 64
3, 3690, Note_on_c, 1, 71, 93
3, 3714, Note_off_c, 1, 71, 64
3, 3720, Note_on_c, 1, 76, 93
3, 3768, Note_off_c, 1, 76, 64
3, 3780, Note_on_c, 1, 76, 93
3, 3828, Note_off_c, 1, 76, 64
3, 3840, Note_on_c, 1, 76, 93
3, 3888, Note_off_c, 1, 76, 64
3, 3900, Note_on_c, 1, 76, 93
3, 4008, Note_off_c, 1, 76, 64
3, 4020, Note_on_c, 1, 74, 93
3, 4044, Note_off_c, 1, 74, 64
3, 4050, Note_on_c, 1, 72, 93
3, 4074, Note_off_c, 1, 72, 64
3, 4080, Note_on_c, 1, 74, 93
3, 4128, Note_off_c, 1, 74, 64
3, 4140, Note_on_c, 1, 65, 93
3, 4188, Note_off_c, 1, 65, 64
3, 4200, Note_on_c, 1, 64, 93
3, 4248, Note_off_c, 1, 64, 64
3, 4260, Note_on_c, 1, 74, 93
3, 4368, Note_off_c, 1, 74, 64
3, 4380, Note_on_c, 1, 72, 93
3, 4404, Note_off_c, 1, 72, 64
3, 4410, Note_on_c, 1, 71, 93
3, 4434, Note_off_c, 1, 71, 64
3, 4440, Note_on_c, 1, 72, 93
3, 4488, Note_off_c, 1, 72, 64
3, 4500, Note_on_c, 1, 64, 93
3, 4548, Note_off_c, 1, 64, 64
3, 4560, Note_on_c, 1, 63, 93
3, 4608, Note_off_c, 1, 63, 64
3, 4620, Note_on_c, 1, 72, 93
3, 4668, Note_off_c, 1, 72, 64
3, 4680, Note_on_c, 1, 71, 93
3, 4704, Note_off_c, 1, 71, 64
3, 4710, Note_on_c, 1, 69, 93
3, 4734, Note_off_c, 1, 69, 64
3, 4740, Note_on_c, 1, 72, 93
3, 4764, Note_off_c, 1, 72, 64
3, 4770, Note_on_c, 1, 71, 93
3, 4794, Note_off_c, 1, 71, 64
3, 4800, Note_on_c, 1, 69, 93
3, 4824, Note_off_c, 1, 69, 64
3, 4830, Note_on_c, 1, 67, 93
3, 4854, Note_off_c, 1, 67, 64
3, 4860, Note_on_c, 1, 66, 93
3, 4884, Note_off_c, 1, 66, 64
3, 4890, Note_on_c, 1, 64, 93
3, 4914, Note_off_c, 1, 64, 64
3, 4920, Note_on_c, 1, 63, 93
3, 4944, Note_off_c, 1, 63, 64
3, 4950, Note_on_c, 1, 69, 93
3, 4974, Note_off_c, 1, 69, 64
3, 4980, Note_on_c, 1, 67, 93
3, 5004, Note_off_c, 1, 67, 64
3, 5010, Note_on_c, 1, 66, 93
3, 5034, Note_off_c, 1, 66, 64
3, 5040, Note_on_c, 1, 67, 93
3, 5064, Note_off_c, 1, 67, 64
3, 5070, Note_on_c, 1, 66, 93
3, 5094, Note_off_c, 1, 66, 64
3, 5100, Note_on_c, 1, 64, 93
3, 5196, Note_off_c, 1, 64, 64
3, 5220, Note_on_c, 1, 62, 93
3, 5268, Note_off_c, 1, 62, 64
3, 5280, Note_on_c, 1, 61, 93
3, 5328, Note_off_c, 1, 61, 64
3, 5340, Note_on_c, 1, 67, 93
3, 5388, Note_off_c, 1, 67, 64
3, 5400, Note_on_c, 1, 65, 93
3, 5424, Note_off_c, 1, 65, 64
3, 5430, Note_on_c, 1, 64, 93
3, 5454, Note_off_c, 1, 64, 64
3, 5460, Note_on_c, 1, 62, 93
3, 5556, Note_off_c, 1, 62, 64
3, 5580, Note_on_c, 1, 60, 93
3, 5628, Note_off_c, 1, 60, 64
3, 5640, Note_on_c, 1, 59, 93
3, 5688, Note_off_c, 1, 59, 64
3, 5700, Note_on_c, 1, 65, 93
3, 5748, Note_off_c, 1, 65, 64
3, 5760, Note_on_c, 1, 64, 93
3, 5784, Note_off_c, 1, 64, 64
3, 5790, Note_on_c, 1, 62, 93
3, 5814, Note_off_c, 1, 62, 64
3, 5820, Note_on_c, 1, 60, 93
3, 5916, Note_off_c, 1, 60, 64
3, 5940, Note_on_c, 1, 62, 93
3, 5964, Note_off_c, 1, 62, 64
3, 5970, Note_on_c, 1, 64, 93
3, 5994, Note_off_c, 1, 64, 64
3, 6000, Note_on_c, 1, 65, 93
3, 6048, Note_off_c, 1, 65, 64
3, 6060, Note_on_c, 1, 66, 93
3, 6108, Note_off_c, 1, 66, 64
3, 6120, Note_on_c, 1, 67, 93
3, 6168, Note_off_c, 1, 67, 64
3, 6180, Note_on_c, 1, 68, 93
3, 6264, Note_off_c, 1, 68, 64
3, 6270, Note_on_c, 1, 69, 93
3, 6294, Note_off_c, 1, 69, 64
3, 6300, Note_on_c, 1, 71, 93
3, 6324, Note_off_c, 1, 71, 64
3, 6330, Note_on_c, 1, 72, 93
3, 6354, Note_off_c, 1, 72, 64
3, 6360, Note_on_c, 1, 74, 93
3, 6384, Note_off_c, 1, 74, 64
3, 6390, Note_on_c, 1, 72, 93
3, 6414, Note_off_c, 1, 72, 64
3, 6420, Note_on_c, 1, 71, 93
3, 6444, Note_off_c, 1, 71, 64
3, 6450, Note_on_c, 1, 74, 93
3, 6474, Note_off_c, 1, 74, 64
3, 6480, Note_on_c, 1, 72, 93
3, 6576, Note_off_c, 1, 72, 64
3, 6720, Note_on_c, 1, 76, 93
3, 6864, Note_off_c, 1, 76, 64
3, 6870, Note_on_c, 1, 69, 93
3, 6894, Note_off_c, 1, 69, 64
3, 6900, Note_on_c, 1, 67, 93
3, 6924, Note_off_c, 1, 67, 64
3, 6930, Note_on_c, 1, 69, 93
3, 6954, Note_off_c, 1, 69, 64
3, 6960, Note_on_c, 1, 74, 93
3, 7008, Note_off_c, 1, 74, 64
3, 7020, Note_on_c, 1, 72, 93
3, 7104, Note_off_c, 1, 72, 64
3, 7110, Note_on_c, 1, 70, 93
3, 7134, Note_off_c, 1, 70, 64
3, 7140, Note_on_c, 1, 69, 93
3, 7164, Note_off_c, 1, 69, 64
3, 7170, Note_on_c, 1, 72, 93
3, 7194, Note_off_c, 1, 72, 64
3, 7200, Note_on_c, 1, 70, 93
3, 7296, Note_off_c, 1, 70, 64
3, 7440, Note_on_c, 1, 69, 93
3, 7536, Note_off_c, 1, 69, 64
3, 7560, Note_on_c, 1, 68, 93
3, 7656, Note_off_c, 1, 68, 64
3, 7680, Note_on_c, 1, 69, 93
3, 7776, Note_off_c, 1, 69, 64
3, 7800, Note_on_c, 1, 71, 93
3, 7896, Note_off_c, 1, 71, 64
3, 7920, Note_on_c, 1, 64, 93
3, 8016, Note_off_c, 1, 64, 64
3, 8040, Note_on_c, 1, 64, 93
3, 8064, Note_off_c, 1, 64, 64
3, 8070, Note_on_c, 1, 62, 93
3, 8094, Note_off_c, 1, 62, 64
3, 8100, Note_on_c, 1, 64, 93
3, 8124, Note_off_c, 1, 64, 64
3, 8130, Note_on_c, 1, 69, 93
3, 8154, Note_off_c, 1, 69, 64
3, 8160, Note_on_c, 1, 57, 93
3, 8376, Note_off_c, 1, 57, 64
3, 8400, Note_on_c, 1, 57, 93
3, 8424, Note_off_c, 1, 57, 64
3, 8430, Note_on_c, 1, 56, 93
3, 8454, Note_off_c, 1, 56, 64
3, 8460, Note_on_c, 1, 54, 93
3, 8484, Note_off_c, 1, 54, 64
3, 8490, Note_on_c, 1, 56, 93
3, 8514, Note_off_c, 1, 56, 64
3, 8520, Note_on_c, 1, 57, 93
3, 8532, Note_off_c, 1, 57, 64
3, 8535, Note_on_c, 1, 56, 93
3, 8547, Note_off_c, 1, 56, 64
3, 8550, Note_on_c, 1, 57, 93
3, 8562, Note_off_c, 1, 57, 64
3, 8565, Note_on_c, 1, 56, 93
3, 8577, Note_off_c, 1, 56, 64
3, 8580, Note_on_c, 1, 57, 93
3, 8592, Note_off_c, 1, 57, 64
3, 8595, Note_on_c, 1, 56, 93
3, 8607, Note_off_c, 1, 56, 64
3, 8610, Note_on_c, 1, 57, 93
3, 8634, Note_off_c, 1, 57, 64
3, 8640, Note_on_c, 1, 57, 93
3, 8688, Note_off_c, 1, 57, 64
3, 8700, Note_on_c, 1, 69, 93
3, 8748, Note_off_c, 1, 69, 64
3, 8760, Note_on_c, 1, 59, 93
3, 8808, Note_off_c, 1, 59, 64
3, 8820, Note_on_c, 1, 69, 93
3, 8868, Note_off_c, 1, 69, 64
3, 8880, Note_on_c, 1, 60, 93
3, 8928, Note_off_c, 1, 60, 64
3, 8940, Note_on_c, 1, 69, 93
3, 8988, Note_off_c, 1, 69, 64
3, 9000, Note_on_c, 1, 62, 93
3, 9048, Note_off_c, 1, 62, 64
3, 9060, Note_on_c, 1, 69, 93
3, 9108, Note_off_c, 1, 69, 64
3, 9120, Note_on_c, 1, 60, 93
3, 9168, Note_off_c, 1, 60, 64
3, 9180, Note_on_c, 1, 69, 93
3, 9228, Note_off_c, 1, 69, 64
3, 9240, Note_on_c, 1, 59, 93
3, 9288, Note_off_c, 1, 59, 64
3, 9300, Note_on_c, 1, 69, 93
3, 9348, Note_off_c, 1, 69, 64
3, 9360, Note_on_c, 1, 57, 93
3, 9384, Note_off_c, 1, 57, 64
3, 9390, Note_on_c, 1, 59, 93
3, 9414, Note_off_c, 1, 59, 64
3, 9420, Note_on_c, 1, 60, 93
3, 9444, Note_off_c, 1, 60, 64
3, 9450, Note_on_c, 1, 57, 93
3, 9474, Note_off_c, 1, 57, 64
3, 9480, Note_on_c, 1, 56, 93
3, 9504, Note_off_c, 1, 56, 64
3, 9510, Note_on_c, 1, 57, 93
3, 9534, Note_off_c, 1, 57, 64
3, 9540, Note_on_c, 1, 62, 93
3, 9564, Note_off_c, 1, 62, 64
3, 9570, Note_on_c, 1, 57, 93
3, 9594, Note_off_c, 1, 57, 64
3, 9600, Note_on_c, 1, 56, 93
3, 9624, Note_off_c, 1, 56, 64
3, 9630, Note_on_c, 1, 57, 93
3, 9654, Note_off_c, 1, 57, 64
3, 9660, Note_on_c, 1, 64, 93
3, 9684, Note_off_c, 1, 64, 64
3, 9690, Note_on_c, 1, 57, 93
3, 9714, Note_off_c, 1, 57, 64
3, 9720, Note_on_c, 1, 56, 93
3, 9744, Note_off_c, 1, 56, 64
3, 9750, Note_on_c, 1, 57, 93
3, 9774, Note_off_c, 1, 57, 64
3, 9780, Note_on_c, 1, 65, 93
3, 9804, Note_off_c, 1, 65, 64
3, 9810, Note_on_c, 1, 57, 93
3, 9834, Note_off_c, 1, 57, 64
3, 9840, Note_on_c, 1, 56, 93
3, 9864, Note_off_c, 1, 56, 64
3, 9870, Note_on_c, 1, 57, 93
3, 9894, Note_off_c, 1, 57, 64
3, 9900, Note_on_c, 1, 64, 93
3, 9924, Note_off_c, 1, 64, 64
3, 9930, Note_on_c, 1, 57, 93
3, 9954, Note_off_c, 1, 57, 64
3, 9960, Note_on_c, 1, 56, 93
3, 9984, Note_off_c, 1, 56, 64
3, 9990, Note_on_c, 1, 57, 93
3, 10014, Note_off_c, 1, 57, 64
3, 10020, Note_on_c, 1, 62, 93
3, 10044, Note_off_c, 1, 62, 64
3, 10050, Note_on_c, 1, 59, 93
3, 10074, Note_off_c, 1, 59, 64
3, 10080, Note_on_c, 1, 64, 93
3, 10104, Note_off_c, 1, 64, 64
3, 10110, Note_on_c, 1, 57, 93
3, 10134, Note_off_c, 1, 57, 64
3, 10140, Note_on_c, 1, 59, 93
3, 10164, Note_off_c, 1, 59, 64
3, 10170, Note_on_c, 1, 60, 93
3, 10194, Note_off_c, 1, 60, 64
3, 10200, Note_on_c, 1, 62, 93
3, 10224, Note_off_c, 1, 62, 64
3, 10230, Note_on_c, 1, 64, 93
3, 10254, Note_off_c, 1, 64, 64
3, 10260, Note_on_c, 1, 66, 93
3, 10284, Note_off_c, 1, 66, 64
3, 10290, Note_on_c, 1, 68, 93
3, 10314, Note_off_c, 1, 68, 64
3, 10320, Note_on_c, 1, 69, 93
3, 10464, Note_off_c, 1, 69, 64
3, 10470, Note_on_c, 1, 67, 93
3, 10494, Note_off_c, 1, 67, 64
3, 10500, Note_on_c, 1, 66, 93
3, 10524, Note_off_c, 1, 66, 64
3, 10530, Note_on_c, 1, 64, 93
3, 10554, Note_off_c, 1, 64, 64
3, 10560, Note_on_c, 1, 66, 93
3, 10584, Note_off_c, 1, 66, 64
3, 10590, Note_on_c, 1, 69, 93
3, 10614, Note_off_c, 1, 69, 64
3, 10620, Note_on_c, 1, 62, 93
3, 10644, Note_off_c, 1, 62, 64
3, 10650, Note_on_c, 1, 66, 93
3, 10674, Note_off_c, 1, 66, 64
3, 10680, Note_on_c, 1, 57, 93
3, 10704, Note_off_c, 1, 57, 64
3, 10710, Note_on_c, 1, 60, 93
3, 10734, Note_off_c, 1, 60, 64
3, 10740, Note_on_c, 1, 59, 93
3, 10764, Note_off_c, 1, 59, 64
3, 10770, Note_on_c, 1, 57, 93
3, 10794, Note_off_c, 1, 57, 64
3, 10800, Note_on_c, 1, 59, 93
3, 10824, Note_off_c, 1, 59, 64
3, 10830, Note_on_c, 1, 55, 93
3, 10854, Note_off_c, 1, 55, 64
3, 10860, Note_on_c, 1, 57, 93
3, 10884, Note_off_c, 1, 57, 64
3, 10890, Note_on_c, 1, 59, 93
3, 10914, Note_off_c, 1, 59, 64
3, 10920, Note_on_c, 1, 60, 93
3, 10944, Note_off_c, 1, 60, 64
3, 10950, Note_on_c, 1, 62, 93
3, 10974, Note_off_c, 1, 62, 64
3, 10980, Note_on_c, 1, 64, 93
3, 11004, Note_off_c, 1, 64, 64
3, 11010, Note_on_c, 1, 65, 93
3, 11034, Note_off_c, 1, 65, 64
3, 11040, Note_on_c, 1, 67, 93
3, 11184, Note_off_c, 1, 67, 64
3, 11190, Note_on_c, 1, 65, 93
3, 11214, Note_off_c, 1, 65, 64
3, 11220, Note_on_c, 1, 64, 93
3, 11244, Note_off_c, 1, 64, 64
3, 11250, Note_on_c, 1, 62, 93
3, 11274, Note_off_c, 1, 62, 64
3, 11280, Note_on_c, 1, 64, 93
3, 11304, Note_off_c, 1, 64, 64
3, 11310, Note_on_c, 1, 67, 93
3, 11334, Note_off_c, 1, 67, 64
3, 11340, Note_on_c, 1, 60, 93
3, 11364, Note_off_c, 1, 60, 64
3, 11370, Note_on_c, 1, 64, 93
3, 11394, Note_off_c, 1, 64, 64
3, 11400, Note_on_c, 1, 55, 93
3, 11424, Note_off_c, 1, 55, 64
3, 11430, Note_on_c, 1, 58, 93
3, 11454, Note_off_c, 1, 58, 64
3, 11460, Note_on_c, 1, 57, 93
3, 11484, Note_off_c, 1, 57, 64
3, 11490, Note_on_c, 1, 55, 93
3, 11514, Note_off_c, 1, 55, 64
3, 11520, Note_on_c, 1, 57, 93
3, 11616, Note_off_c, 1, 57, 64
3, 11670, Note_on_c, 1, 53, 93
3, 11694, Note_off_c, 1, 53, 64
3, 11700, Note_on_c, 1, 52, 93
3, 11724, Note_off_c, 1, 52, 64
3, 11730, Note_on_c, 1, 53, 93
3, 11754, Note_off_c, 1, 53, 64
3, 11760, Note_on_c, 1, 57, 93
3, 11808, Note_off_c, 1, 57, 64
3, 11820, Note_on_c, 1, 62, 93
3, 11904, Note_off_c, 1, 62, 64
3, 11910, Note_on_c, 1, 59, 93
3, 11934, Note_off_c, 1, 59, 64
3, 11940, Note_on_c, 1, 57, 93
3, 11964, Note_off_c, 1, 57, 64
3, 11970, Note_on_c, 1, 59, 93
3, 11994, Note_off_c, 1, 59, 64
3, 12000, Note_on_c, 1, 64, 93
3, 12048, Note_off_c, 1, 64, 64
3, 12060, Note_on_c, 1, 62, 93
3, 12144, Note_off_c, 1, 62, 64
3, 12150, Note_on_c, 1, 60, 93
3, 12174, Note_off_c, 1, 60, 64
3, 12180, Note_on_c, 1, 59, 93
3, 12204, Note_off_c, 1, 59, 64
3, 12210, Note_on_c, 1, 62, 93
3, 12234, Note_off_c, 1, 62, 64
3, 12240, Note_on_c, 1, 60, 93
3, 12336, Note_off_c, 1, 60, 64
3, 12390, Note_on_c, 1, 57, 93
3, 12414, Note_off_c, 1, 57, 64
3, 12420, Note_on_c, 1, 55, 93
3, 12444, Note_off_c, 1, 55, 64
3, 12450, Note_on_c, 1, 57, 93
3, 12474, Note_off_c, 1, 57, 64
3, 12480, Note_on_c, 1, 60, 93
3, 12528, Note_off_c, 1, 60, 64
3, 12540, Note_on_c, 1, 65, 93
3, 12624, Note_off_c, 1, 65, 64
3, 12630, Note_on_c, 1, 62, 93
3, 12654, Note_off_c, 1, 62, 64
3, 12660, Note_on_c, 1, 60, 93
3, 12684, Note_off_c, 1, 60, 64
3, 12690, Note_on_c, 1, 62, 93
3, 12714, Note_off_c, 1, 62, 64
3, 12720, Note_on_c, 1, 67, 93
3, 12768, Note_off_c, 1, 67, 64
3, 12780, Note_on_c, 1, 65, 93
3, 12864, Note_off_c, 1, 65, 64
3, 12870, Note_on_c, 1, 64, 93
3, 12894, Note_off_c, 1, 64, 64
3, 12900, Note_on_c, 1, 62, 93
3, 12924, Note_off_c, 1, 62, 64
3, 12930, Note_on_c, 1, 65, 93
3, 12954, Note_off_c, 1, 65, 64
3, 12960, Note_on_c, 1, 64, 93
3, 12984, Note_off_c, 1, 64, 64
3, 12990, Note_on_c, 1, 62, 93
3, 13014, Note_off_c, 1, 62, 64
3, 13020, Note_on_c, 1, 64, 93
3, 13044, Note_off_c, 1, 64, 64
3, 13050, Note_on_c, 1, 60, 93
3, 13074, Note_off_c, 1, 60, 64
3, 13080, Note_on_c, 1, 59, 93
3, 13104, Note_off_c, 1, 59, 64
3, 13110, Note_on_c, 1, 60, 93
3, 13134, Note_off_c, 1, 60, 64
3, 13140, Note_on_c, 1, 65, 93
3, 13164, Note_off_c, 1, 65, 64
3, 13170, Note_on_c, 1, 60, 93
3, 13194, Note_off_c, 1, 60, 64
3, 13200, Note_on_c, 1, 59, 93
3, 13224, Note_off_c, 1, 59, 64
3, 13230, Note_on_c, 1, 60, 93
3, 13254, Note_off_c, 1, 60, 64
3, 13260, Note_on_c, 1, 67, 93
3, 13284, Note_off_c, 1, 67, 64
3, 13290, Note_on_c, 1, 60, 93
3, 13314, Note_off_c, 1, 60, 64
3, 13320, Note_on_c, 1, 59, 93
3, 13344, Note_off_c, 1, 59, 64
3, 13350, Note_on_c, 1, 60, 93
3, 13374, Note_off_c, 1, 60, 64
3, 13380, Note_on_c, 1, 69, 93
3, 13404, Note_off_c, 1, 69, 64
3, 13410, Note_on_c, 1, 60, 93
3, 13434, Note_off_c, 1, 60, 64
3, 13440, Note_on_c, 1, 59, 93
3, 13464, Note_off_c, 1, 59, 64
3, 13470, Note_on_c, 1, 60, 93
3, 13494, Note_off_c, 1, 60, 64
3, 13500, Note_on_c, 1, 67, 93
3, 13524, Note_off_c, 1, 67, 64
3, 13530, Note_on_c, 1, 60, 93
3, 13554, Note_off_c, 1, 60, 64
3, 13560, Note_on_c, 1, 59, 93
3, 13584, Note_off_c, 1, 59, 64
3, 13590, Note_on_c, 1, 60, 93
3, 13614, Note_off_c, 1, 60, 64
3, 13620, Note_on_c, 1, 65, 93
3, 13644, Note_off_c, 1, 65, 64
3, 13650, Note_on_c, 1, 62, 93
3, 13674, Note_off_c, 1, 62, 64
3, 13680, Note_on_c, 1, 64, 93
3, 13728, Note_off_c, 1, 64, 64
3, 13740, Note_on_c, 1, 72, 93
3, 13788, Note_off_c, 1, 72, 64
3, 13800, Note_on_c, 1, 62, 93
3, 13848, Note_off_c, 1, 62, 64
3, 13860, Note_on_c, 1, 72, 93
3, 13908, Note_off_c, 1, 72, 64
3, 13920, Note_on_c, 1, 64, 93
3, 13968, Note_off_c, 1, 64, 64
3, 13980, Note_on_c, 1, 72, 93
3, 14028, Note_off_c, 1, 72, 64
3, 14040, Note_on_c, 1, 65, 93
3, 14088, Note_off_c, 1, 65, 64
3, 14100, Note_on_c, 1, 72, 93
3, 14148, Note_off_c, 1, 72, 64
3, 14160, Note_on_c, 1, 64, 93
3, 14208, Note_off_c, 1, 64, 64
3, 14220, Note_on_c, 1, 72, 93
3, 14268, Note_off_c, 1, 72, 64
3, 14280, Note_on_c, 1, 62, 93
3, 14328, Note_off_c, 1, 62, 64
3, 14340, Note_on_c, 1, 72, 93
3, 14388, Note_off_c, 1, 72, 64
3, 14400, Note_on_c, 1, 60, 93
3, 14448, Note_off_c, 1, 60, 64
3, 14460, Note_on_c, 1, 64, 93
3, 14484, Note_off_c, 1, 64, 64
3, 14490, Note_on_c, 1, 67, 93
3, 14514, Note_off_c, 1, 67, 64
3, 14520, Note_on_c, 1, 69, 93
3, 14633, Note_off_c, 1, 69, 64
3, 14760, Note_on_c, 1, 60, 93
3, 14856, Note_off_c, 1, 60, 64
3, 14880, Note_on_c, 1, 59, 93
3, 14976, Note_off_c, 1, 59, 64
3, 15120, Note_on_c, 1, 60, 93
3, 15168, Note_off_c, 1, 60, 64
3, 15180, Note_on_c, 1, 64, 93
3, 15204, Note_off_c, 1, 64, 64
3, 15210, Note_on_c, 1, 67, 93
3, 15234, Note_off_c, 1, 67, 64
3, 15240, Note_on_c, 1, 72, 93
3, 15288, Note_off_c, 1, 72, 64
3, 15300, Note_on_c, 1, 72, 93
3, 15348, Note_off_c, 1, 72, 64
3, 15360, Note_on_c, 1, 72, 93
3, 15408, Note_off_c, 1, 72, 64
3, 15420, Note_on_c, 1, 72, 93
3, 15528, Note_off_c, 1, 72, 64
3, 15540, Note_on_c, 1, 71, 93
3, 15564, Note_off_c, 1, 71, 64
3, 15570, Note_on_c, 1, 69, 93
3, 15594, Note_off_c, 1, 69, 64
3, 15600, Note_on_c, 1, 71, 93
3, 15648, Note_off_c, 1, 71, 64
3, 15660, Note_on_c, 1, 62, 93
3, 15708, Note_off_c, 1, 62, 64
3, 15720, Note_on_c, 1, 60, 93
3, 15768, Note_off_c, 1, 60, 64
3, 15780, Note_on_c, 1, 70, 93
3, 15888, Note_off_c, 1, 70, 64
3, 15900, Note_on_c, 1, 69, 93
3, 15924, Note_off_c, 1, 69, 64
3, 15930, Note_on_c, 1, 67, 93
3, 15954, Note_off_c, 1, 67, 64
3, 15960, Note_on_c, 1, 69, 93
3, 16008, Note_off_c, 1, 69, 64
3, 16020, Note_on_c, 1, 60, 93
3, 16068, Note_off_c, 1, 60, 64
3, 16080, Note_on_c, 1, 59, 93
3, 16128, Note_off_c, 1, 59, 64
3, 16140, Note_on_c, 1, 69, 93
3, 16188, Note_off_c, 1, 69, 64
3, 16200, Note_on_c, 1, 67, 93
3, 16224, Note_off_c, 1, 67, 64
3, 16230, Note_on_c, 1, 65, 93
3, 16254, Note_off_c, 1, 65, 64
3, 16260, Note_on_c, 1, 69, 93
3, 16284, Note_off_c, 1, 69, 64
3, 16290, Note_on_c, 1, 67, 93
3, 16314, Note_off_c, 1, 67, 64
3, 16320, Note_on_c, 1, 65, 93
3, 16344, Note_off_c, 1, 65, 64
3, 16350, Note_on_c, 1, 64, 93
3, 16374, Note_off_c, 1, 64, 64
3, 16380, Note_on_c, 1, 62, 93
3, 16404, Note_off_c, 1, 62, 64
3, 16410, Note_on_c, 1, 60, 93
3, 16434, Note_off_c, 1, 60, 64
3, 16440, Note_on_c, 1, 59, 93
3, 16464, Note_off_c, 1, 59, 64
3, 16470, Note_on_c, 1, 65, 93
3, 16494, Note_off_c, 1, 65, 64
3, 16500, Note_on_c, 1, 64, 93
3, 16524, Note_off_c, 1, 64, 64
3, 16530, Note_on_c, 1, 62, 93
3, 16554, Note_off_c, 1, 62, 64
3, 16560, Note_on_c, 1, 64, 93
3, 16584, Note_off_c, 1, 64, 64
3, 16590, Note_on_c, 1, 62, 93
3, 16614, Note_off_c, 1, 62, 64
3, 16620, Note_on_c, 1, 60, 93
3, 16716, Note_off_c, 1, 60, 64
3, 16740, Note_on_c, 1, 62, 93
3, 16788, Note_off_c, 1, 62, 64
3, 16800, Note_on_c, 1, 63, 93
3, 16848, Note_off_c, 1, 63, 64
3, 16860, Note_on_c, 1, 64, 93
3, 16908, Note_off_c, 1, 64, 64
3, 16920, Note_on_c, 1, 65, 93
3, 16968, Note_off_c, 1, 65, 64
3, 16980, Note_on_c, 1, 66, 93
3, 17064, Note_off_c, 1, 66, 64
3, 17070, Note_on_c, 1, 67, 93
3, 17094, Note_off_c, 1, 67, 64
3, 17100, Note_on_c, 1, 69, 93
3, 17124, Note_off_c, 1, 69, 64
3, 17130, Note_on_c, 1, 71, 93
3, 17154, Note_off_c, 1, 71, 64
3, 17160, Note_on_c, 1, 72, 93
3, 17184, Note_off_c, 1, 72, 64
3, 17190, Note_on_c, 1, 71, 93
3, 17214, Note_off_c, 1, 71, 64
3, 17220, Note_on_c, 1, 69, 93
3, 17244, Note_off_c, 1, 69, 64
3, 17250, Note_on_c, 1, 72, 93
3, 17274, Note_off_c, 1, 72, 64
3, 17280, Note_on_c, 1, 71, 93
3, 17424, Note_off_c, 1, 71, 64
3, 17430, Note_on_c, 1, 69, 93
3, 17454, Note_off_c, 1, 69, 64
3, 17460, Note_on_c, 1, 67, 93
3, 17484, Note_off_c, 1, 67, 64
3, 17490, Note_on_c, 1, 69, 93
3, 17514, Note_off_c, 1, 69, 64
3, 17520, Note_on_c, 1, 71, 93
3, 17544, Note_off_c, 1, 71, 64
3, 17550, Note_on_c, 1, 72, 93
3, 17574, Note_off_c, 1, 72, 64
3, 17580, Note_on_c, 1, 74, 93
3, 17604, Note_off_c, 1, 74, 64
3, 17610, Note_on_c, 1, 76, 93
3, 17634, Note_off_c, 1, 76, 64
3, 17640, Note_on_c, 1, 72, 93
3, 17784, Note_off_c, 1, 72, 64
3, 17790, Note_on_c, 1, 71, 93
3, 17814, Note_off_c, 1, 71, 64
3, 17820, Note_on_c, 1, 69, 93
3, 17844, Note_off_c, 1, 69, 64
3, 17850, Note_on_c, 1, 71, 93
3, 17874, Note_off_c, 1, 71, 64
3, 17880, Note_on_c, 1, 72, 93
3, 17904, Note_off_c, 1, 72, 64
3, 17910, Note_on_c, 1, 74, 93
3, 17934, Note_off_c, 1, 74, 64
3, 17940, Note_on_c, 1, 76, 93
3, 17964, Note_off_c, 1, 76, 64
3, 17970, Note_on_c, 1, 78, 93
3, 17994, Note_off_c, 1, 78, 64
3, 18000, Note_on_c, 1, 74, 93
3, 18144, Note_off_c, 1, 74, 64
3, 18150, Note_on_c, 1, 72, 93
3, 18174, Note_off_c, 1, 72, 64
3, 18180, Note_on_c, 1, 76, 93
3, 18204, Note_off_c, 1, 76, 64
3, 18210, Note_on_c, 1, 74, 93
3, 18234, Note_off_c, 1, 74, 64
3, 18240, Note_on_c, 1, 72, 93
3, 18264, Note_off_c, 1, 72, 64
3, 18270, Note_on_c, 1, 71, 93
3, 18294, Note_off_c, 1, 71, 64
3, 18300, Note_on_c, 1, 69, 93
3, 18324, Note_off_c, 1, 69, 64
3, 18330, Note_on_c, 1, 67, 93
3, 18354, Note_off_c, 1, 67, 64
3, 18360, Note_on_c, 1, 71, 93
3, 18408, Note_off_c, 1, 71, 64
3, 18420, Note_on_c, 1, 69, 93
3, 18468, Note_off_c, 1, 69, 64
3, 18600, Note_on_c, 1, 74, 93
3, 18696, Note_off_c, 1, 74, 64
3, 18720, Note_on_c, 1, 67, 93
3, 18816, Note_off_c, 1, 67, 64
3, 18960, Note_on_c, 1, 72, 93
3, 19128, Note_off_c, 1, 72, 64
3, 19140, Note_on_c, 1, 71, 93
3, 19188, Note_off_c, 1, 71, 64
3, 19200, Note_on_c, 1, 69, 93
3, 19224, Note_off_c, 1, 69, 64
3, 19230, Note_on_c, 1, 71, 93
3, 19254, Note_off_c, 1, 71, 64
3, 19260, Note_on_c, 1, 72, 93
3, 19356, Note_off_c, 1, 72, 64
3, 19380, Note_on_c, 1, 66, 93
3, 19428, Note_off_c, 1, 66, 64
3, 19440, Note_on_c, 1, 67, 93
3, 19536, Note_off_c, 1, 67, 64
3, 20220, Note_on_c, 1, 69, 93
3, 20304, Note_off_c, 1, 69, 64
3, 20310, Note_on_c, 1, 67, 93
3, 20334, Note_off_c, 1, 67, 64
3, 20340, Note_on_c, 1, 65, 93
3, 20364, Note_off_c, 1, 65, 64
3, 20370, Note_on_c, 1, 64, 93
3, 20394, Note_off_c, 1, 64, 64
3, 20400, Note_on_c, 1, 62, 93
3, 20424, Note_off_c, 1, 62, 64
3, 20430, Note_on_c, 1, 60, 93
3, 20454, Note_off_c, 1, 60, 64
3, 20460, Note_on_c, 1, 58, 93
3, 20484, Note_off_c, 1, 58, 64
3, 20490, Note_on_c, 1, 57, 93
3, 20514, Note_off_c, 1, 57, 64
3, 20520, Note_on_c, 1, 58, 93
3, 20616, Note_off_c, 1, 58, 64
3, 20640, Note_on_c, 1, 65, 93
3, 20736, Note_off_c, 1, 65, 64
3, 20940, Note_on_c, 1, 67, 93
3, 21024, Note_off_c, 1, 67, 64
3, 21030, Note_on_c, 1, 65, 93
3, 21054, Note_off_c, 1, 65, 64
3, 21060, Note_on_c, 1, 64, 93
3, 21084, Note_off_c, 1, 64, 64
3, 21090, Note_on_c, 1, 62, 93
3, 21114, Note_off_c, 1, 62, 64
3, 21120, Note_on_c, 1, 60, 93
3, 21144, Note_off_c, 1, 60, 64
3, 21150, Note_on_c, 1, 58, 93
3, 21174, Note_off_c, 1, 58, 64
3, 21180, Note_on_c, 1, 57, 93
3, 21204, Note_off_c, 1, 57, 64
3, 21210, Note_on_c, 1, 55, 93
3, 21234, Note_off_c, 1, 55, 64
3, 21240, Note_on_c, 1, 57, 93
3, 21336, Note_off_c, 1, 57, 64
3, 21360, Note_on_c, 1, 63, 93
3, 21456, Note_off_c, 1, 63, 64
3, 21630, Note_on_c, 1, 62, 93
3, 21654, Note_off_c, 1, 62, 64
3, 21660, Note_on_c, 1, 60, 93
3, 21684, Note_off_c, 1, 60, 64
3, 21690, Note_on_c, 1, 62, 93
3, 21714, Note_off_c, 1, 62, 64
3, 21720, Note_on_c, 1, 67, 93
3, 21768, Note_off_c, 1, 67, 64
3, 21780, Note_on_c, 1, 65, 93
3, 21864, Note_off_c, 1, 65, 64
3, 21870, Note_on_c, 1, 64, 93
3, 21894, Note_off_c, 1, 64, 64
3, 21900, Note_on_c, 1, 62, 93
3, 21924, Note_off_c, 1, 62, 64
3, 21930, Note_on_c, 1, 65, 93
3, 21954, Note_off_c, 1, 65, 64
3, 21960, Note_on_c, 1, 64, 93
3, 22056, Note_off_c, 1, 64, 64
3, 22110, Note_on_c, 1, 60, 93
3, 22134, Note_off_c, 1, 60, 64
3, 22140, Note_on_c, 1, 59, 93
3, 22164, Note_off_c, 1, 59, 64
3, 22170, Note_on_c, 1, 60, 93
3, 22194, Note_off_c, 1, 60, 64
3, 22200, Note_on_c, 1, 64, 93
3, 22248, Note_off_c, 1, 64, 64
3, 22260, Note_on_c, 1, 69, 93
3, 22344, Note_off_c, 1, 69, 64
3, 22350, Note_on_c, 1, 65, 93
3, 22374, Note_off_c, 1, 65, 64
3, 22380, Note_on_c, 1, 64, 93
3, 22404, Note_off_c, 1, 64, 64
3, 22410, Note_on_c, 1, 65, 93
3, 22434, Note_off_c, 1, 65, 64
3, 22440, Note_on_c, 1, 70, 93
3, 22488, Note_off_c, 1, 70, 64
3, 22500, Note_on_c, 1, 69, 93
3, 22584, Note_off_c, 1, 69, 64
3, 22590, Note_on_c, 1, 67, 93
3, 22614, Note_off_c, 1, 67, 64
3, 22620, Note_on_c, 1, 65, 93
3, 22644, Note_off_c, 1, 65, 64
3, 22650, Note_on_c, 1, 69, 93
3, 22674, Note_off_c, 1, 69, 64
3, 22680, Note_on_c, 1, 67, 93
3, 23064, Note_off_c, 1, 67, 64
3, 23070, Note_on_c, 1, 69, 93
3, 23094, Note_off_c, 1, 69, 64
3, 23100, Note_on_c, 1, 67, 93
3, 23124, Note_off_c, 1, 67, 64
3, 23130, Note_on_c, 1, 64, 93
3, 23154, Note_off_c, 1, 64, 64
3, 23160, Note_on_c, 1, 65, 93
3, 23184, Note_off_c, 1, 65, 64
3, 23190, Note_on_c, 1, 69, 93
3, 23214, Note_off_c, 1, 69, 64
3, 23220, Note_on_c, 1, 65, 93
3, 23244, Note_off_c, 1, 65, 64
3, 23250, Note_on_c, 1, 62, 93
3, 23274, Note_off_c, 1, 62, 64
3, 23280, Note_on_c, 1, 61, 93
3, 23304, Note_off_c, 1, 61, 64
3, 23310, Note_on_c, 1, 64, 93
3, 23334, Note_off_c, 1, 64, 64
3, 23340, Note_on_c, 1, 61, 93
3, 23364, Note_off_c, 1, 61, 64
3, 23370, Note_on_c, 1, 57, 93
3, 23394, Note_off_c, 1, 57, 64
3, 23400, Note_on_c, 1, 62, 93
3, 23424, Note_off_c, 1, 62, 64
3, 23430, Note_on_c, 1, 64, 93
3, 23454, Note_off_c, 1, 64, 64
3, 23460, Note_on_c, 1, 62, 93
3, 23484, Note_off_c, 1, 62, 64
3, 23490, Note_on_c, 1, 57, 93
3, 23514, Note_off_c, 1, 57, 64
3, 23520, Note_on_c, 1, 64, 93
3, 23544, Note_off_c, 1, 64, 64
3, 23550, Note_on_c, 1, 65, 93
3, 23574, Note_off_c, 1, 65, 64
3, 23580, Note_on_c, 1, 64, 93
3, 23604, Note_off_c, 1, 64, 64
3, 23610, Note_on_c, 1, 57, 93
3, 23634, Note_off_c, 1, 57, 64
3, 23640, Note_on_c, 1, 62, 93
3, 23664, Note_off_c, 1, 62, 64
3, 23670, Note_on_c, 1, 64, 93
3, 23694, Note_off_c, 1, 64, 64
3, 23700, Note_on_c, 1, 62, 93
3, 23724, Note_off_c, 1, 62, 64
3, 23730, Note_on_c, 1, 57, 93
3, 23754, Note_off_c, 1, 57, 64
3, 23760, Note_on_c, 1, 61, 93
3, 23808, Note_off_c, 1, 61, 64
3, 23820, Note_on_c, 1, 69, 93
3, 23868, Note_off_c, 1, 69, 64
3, 23880, Note_on_c, 1, 62, 93
3, 23928, Note_off_c, 1, 62, 64
3, 23940, Note_on_c, 1, 69, 93
3, 23988, Note_off_c, 1, 69, 64
3, 24000, Note_on_c, 1, 64, 93
3, 24048, Note_off_c, 1, 64, 64
3, 24060, Note_on_c, 1, 69, 93
3, 24108, Note_off_c, 1, 69, 64
3, 24120, Note_on_c, 1, 65, 93
3, 24168, Note_off_c, 1, 65, 64
3, 24180, Note_on_c, 1, 69, 93
3, 24228, Note_off_c, 1, 69, 64
3, 24240, Note_on_c, 1, 67, 93
3, 24288, Note_off_c, 1, 67, 64
3, 24300, Note_on_c, 1, 69, 93
3, 24348, Note_off_c, 1, 69, 64
3, 24360, Note_on_c, 1, 65, 93
3, 24408, Note_off_c, 1, 65, 64
3, 24420, Note_on_c, 1, 69, 93
3, 24468, Note_off_c, 1, 69, 64
3, 24480, Note_on_c, 1, 64, 93
3, 24552, Note_off_c, 1, 64, 64
3, 24570, Note_on_c, 1, 65, 93
3, 24594, Note_off_c, 1, 65, 64
3, 24600, Note_on_c, 1, 64, 93
3, 24624, Note_off_c, 1, 64, 64
3, 24630, Note_on_c, 1, 62, 93
3, 24654, Note_off_c, 1, 62, 64
3, 24660, Note_on_c, 1, 61, 93
3, 24684, Note_off_c, 1, 61, 64
3, 24690, Note_on_c, 1, 59, 93
3, 24714, Note_off_c, 1, 59, 64
3, 24720, Note_on_c, 1, 57, 93
3, 24816, Note_off_c, 1, 57, 64
3, 24960, Note_on_c, 1, 64, 93
3, 25224, Note_off_c, 1, 64, 64
3, 25230, Note_on_c, 1, 57, 93
3, 25254, Note_off_c, 1, 57, 64
3, 25260, Note_on_c, 1, 56, 93
3, 25284, Note_off_c, 1, 56, 64
3, 25290, Note_on_c, 1, 57, 93
3, 25314, Note_off_c, 1, 57, 64
3, 25320, Note_on_c, 1, 62, 93
3, 25368, Note_off_c, 1, 62, 64
3, 25380, Note_on_c, 1, 60, 93
3, 25464, Note_off_c, 1, 60, 64
3, 25470, Note_on_c, 1, 58, 93
3, 25494, Note_off_c, 1, 58, 64
3, 25500, Note_on_c, 1, 57, 93
3, 25524, Note_off_c, 1, 57, 64
3, 25530, Note_on_c, 1, 60, 93
3, 25554, Note_off_c, 1, 60, 64
3, 25560, Note_on_c, 1, 58, 93
3, 25656, Note_off_c, 1, 58, 64
3, 25800, Note_on_c, 1, 62, 93
3, 25944, Note_off_c, 1, 62, 64
3, 25950, Note_on_c, 1, 55, 93
3, 25974, Note_off_c, 1, 55, 64
3, 25980, Note_on_c, 1, 54, 93
3, 26004, Note_off_c, 1, 54, 64
3, 26010, Note_on_c, 1, 55, 93
3, 26034, Note_off_c, 1, 55, 64
3, 26040, Note_on_c, 1, 60, 93
3, 26088, Note_off_c, 1, 60, 64
3, 26100, Note_on_c, 1, 58, 93
3, 26184, Note_off_c, 1, 58, 64
3, 26190, Note_on_c, 1, 57, 93
3, 26214, Note_off_c, 1, 57, 64
3, 26220, Note_on_c, 1, 55, 93
3, 26244, Note_off_c, 1, 55, 64
3, 26250, Note_on_c, 1, 58, 93
3, 26274, Note_off_c, 1, 58, 64
3, 26280, Note_on_c, 1, 52, 93
3, 26304, Note_off_c, 1, 52, 64
3, 26310, Note_on_c, 1, 58, 93
3, 26334, Note_off_c, 1, 58, 64
3, 26340, Note_on_c, 1, 57, 93
3, 26364, Note_off_c, 1, 57, 64
3, 26370, Note_on_c, 1, 52, 93
3, 26394, Note_off_c, 1, 52, 64
3, 26400, Note_on_c, 1, 53, 93
3, 26424, Note_off_c, 1, 53, 64
3, 26430, Note_on_c, 1, 58, 93
3, 26454, Note_off_c, 1, 58, 64
3, 26460, Note_on_c, 1, 57, 93
3, 26484, Note_off_c, 1, 57, 64
3, 26490, Note_on_c, 1, 53, 93
3, 26514, Note_off_c, 1, 53, 64
3, 26520, Note_on_c, 1, 55, 93
3, 26544, Note_off_c, 1, 55, 64
3, 26550, Note_on_c, 1, 58, 93
3, 26574, Note_off_c, 1, 58, 64
3, 26580, Note_on_c, 1, 57, 93
3, 26604, Note_off_c, 1, 57, 64
3, 26610, Note_on_c, 1, 55, 93
3, 26634, Note_off_c, 1, 55, 64
3, 26640, Note_on_c, 1, 53, 93
3, 26664, Note_off_c, 1, 53, 64
3, 26670, Note_on_c, 1, 52, 93
3, 26694, Note_off_c, 1, 52, 64
3, 26700, Note_on_c, 1, 50, 93
3, 26724, Note_off_c, 1, 50, 64
3, 26730, Note_on_c, 1, 52, 93
3, 26754, Note_off_c, 1, 52, 64
3, 26760, Note_on_c, 1, 53, 93
3, 26808, Note_off_c, 1, 53, 64
3, 26820, Note_on_c, 1, 54, 93
3, 26868, Note_off_c, 1, 54, 64
3, 26880, Note_on_c, 1, 55, 93
3, 26928, Note_off_c, 1, 55, 64
3, 26940, Note_on_c, 1, 56, 93
3, 26988, Note_off_c, 1, 56, 64
3, 27000, Note_on_c, 1, 57, 93
3, 27024, Note_off_c, 1, 57, 64
3, 27030, Note_on_c, 1, 55, 93
3, 27054, Note_off_c, 1, 55, 64
3, 27060, Note_on_c, 1, 57, 93
3, 27084, Note_off_c, 1, 57, 64
3, 27090, Note_on_c, 1, 58, 93
3, 27114, Note_off_c, 1, 58, 64
3, 27120, Note_on_c, 1, 53, 93
3, 27132, Note_off_c, 1, 53, 64
3, 27135, Note_on_c, 1, 52, 93
3, 27147, Note_off_c, 1, 52, 64
3, 27150, Note_on_c, 1, 53, 93
3, 27162, Note_off_c, 1, 53, 64
3, 27165, Note_on_c, 1, 52, 93
3, 27177, Note_off_c, 1, 52, 64
3, 27180, Note_on_c, 1, 53, 93
3, 27192, Note_off_c, 1, 53, 64
3, 27195, Note_on_c, 1, 52, 93
3, 27207, Note_off_c, 1, 52, 64
3, 27210, Note_on_c, 1, 53, 93
3, 27222, Note_off_c, 1, 53, 64
3, 27225, Note_on_c, 1, 52, 93
3, 27237, Note_off_c, 1, 52, 64
3, 27240, Note_on_c, 1, 53, 93
3, 27252, Note_off_c, 1, 53, 64
3, 27255, Note_on_c, 1, 52, 93
3, 27267, Note_off_c, 1, 52, 64
3, 27270, Note_on_c, 1, 53, 93
3, 27282, Note_off_c, 1, 53, 64
3, 27285, Note_on_c, 1, 52, 93
3, 27297, Note_off_c, 1, 52, 64
3, 27300, Note_on_c, 1, 50, 93
3, 27348, Note_off_c, 1, 50, 64
3, 27360, Note_on_c, 1, 50, 93
3, 27456, Note_off_c, 1, 50, 64
3, 27600, Note_on_c, 1, 65, 93
3, 27696, Note_off_c, 1, 65, 64
3, 27720, Note_on_c, 1, 59, 93
3, 27768, Note_off_c, 1, 59, 64
3, 27780, Note_on_c, 1, 64, 93
3, 27864, Note_off_c, 1, 64, 64
3, 27870, Note_on_c, 1, 62, 93
3, 27894, Note_off_c, 1, 62, 64
3, 27900, Note_on_c, 1, 60, 93
3, 27924, Note_off_c, 1, 60, 64
3, 27930, Note_on_c, 1, 59, 93
3, 27954, Note_off_c, 1, 59, 64
3, 27960, Note_on_c, 1, 57, 93
3, 27984, Note_off_c, 1, 57, 64
3, 27990, Note_on_c, 1, 56, 93
3, 28014, Note_off_c, 1, 56, 64
3, 28020, Note_on_c, 1, 57, 93
3, 28044, Note_off_c, 1, 57, 64
3, 28050, Note_on_c, 1, 60, 93
3, 28074, Note_off_c, 1, 60, 64
3, 28080, Note_on_c, 1, 54, 93
3, 28104, Note_off_c, 1, 54, 64
3, 28110, Note_on_c, 1, 57, 93
3, 28134, Note_off_c, 1, 57, 64
3, 28140, Note_on_c, 1, 56, 93
3, 28164, Note_off_c, 1, 56, 64
3, 28170, Note_on_c, 1, 54, 93
3, 28194, Note_off_c, 1, 54, 64
3, 28200, Note_on_c, 1, 56, 93
3, 28224, Note_off_c, 1, 56, 64
3, 28230, Note_on_c, 1, 57, 93
3, 28254, Note_off_c, 1, 57, 64
3, 28260, Note_on_c, 1, 59, 93
3, 28284, Note_off_c, 1, 59, 64
3, 28290, Note_on_c, 1, 60, 93
3, 28314, Note_off_c, 1, 60, 64
3, 28320, Note_on_c, 1, 62, 93
3, 28344, Note_off_c, 1, 62, 64
3, 28350, Note_on_c, 1, 64, 93
3, 28374, Note_off_c, 1, 64, 64
3, 28380, Note_on_c, 1, 65, 93
3, 28404, Note_off_c, 1, 65, 64
3, 28410, Note_on_c, 1, 62, 93
3, 28434, Note_off_c, 1, 62, 64
3, 28440, Note_on_c, 1, 64, 93
3, 28944, Note_off_c, 1, 64, 64
3, 28950, Note_on_c, 1, 56, 93
3, 28974, Note_off_c, 1, 56, 64
3, 28980, Note_on_c, 1, 57, 93
3, 29004, Note_off_c, 1, 57, 64
3, 29010, Note_on_c, 1, 59, 93
3, 29034, Note_off_c, 1, 59, 64
3, 29040, Note_on_c, 1, 60, 93
3, 29088, Note_off_c, 1, 60, 64
3, 29100, Note_on_c, 1, 61, 93
3, 29148, Note_off_c, 1, 61, 64
3, 29160, Note_on_c, 1, 62, 93
3, 29304, Note_off_c, 1, 62, 64
3, 29310, Note_on_c, 1, 60, 93
3, 29334, Note_off_c, 1, 60, 64
3, 29340, Note_on_c, 1, 59, 93
3, 29364, Note_off_c, 1, 59, 64
3, 29370, Note_on_c, 1, 60, 93
3, 29394, Note_off_c, 1, 60, 64
3, 29400, Note_on_c, 1, 62, 93
3, 29448, Note_off_c, 1, 62, 64
3, 29460, Note_on_c, 1, 63, 93
3, 29508, Note_off_c, 1, 63, 64
3, 29520, Note_on_c, 1, 64, 93
3, 29664, Note_off_c, 1, 64, 64
3, 29670, Note_on_c, 1, 62, 93
3, 29694, Note_off_c, 1, 62, 64
3, 29700, Note_on_c, 1, 65, 93
3, 29724, Note_off_c, 1, 65, 64
3, 29730, Note_on_c, 1, 64, 93
3, 29754, Note_off_c, 1, 64, 64
3, 29760, Note_on_c, 1, 62, 93
3, 29784, Note_off_c, 1, 62, 64
3, 29790, Note_on_c, 1, 60, 93
3, 29814, Note_off_c, 1, 60, 64
3, 29820, Note_on_c, 1, 59, 93
3, 29844, Note_off_c, 1, 59, 64
3, 29850, Note_on_c, 1, 57, 93
3, 29874, Note_off_c, 1, 57, 64
3, 29880, Note_on_c, 1, 60, 93
3, 29928, Note_off_c, 1, 60, 64
3, 29940, Note_on_c, 1, 59, 93
3, 29988, Note_off_c, 1, 59, 64
3, 30120, Note_on_c, 1, 64, 93
3, 30216, Note_off_c, 1, 64, 64
3, 30240, Note_on_c, 1, 57, 93
3, 30336, Note_off_c, 1, 57, 64
3, 30480, Note_on_c, 1, 62, 93
3, 30648, Note_off_c, 1, 62, 64
3, 30660, Note_on_c, 1, 60, 93
3, 30708, Note_off_c, 1, 60, 64
3, 30720, Note_on_c, 1, 59, 93
3, 30744, Note_off_c, 1, 59, 64
3, 30750, Note_on_c, 1, 60, 93
3, 30774, Note_off_c, 1, 60, 64
3, 30780, Note_on_c, 1, 62, 93
3, 30876, Note_off_c, 1, 62, 64
3, 30900, Note_on_c, 1, 56, 93
3, 30948, Note_off_c, 1, 56, 64
3, 30960, Note_on_c, 1, 57, 93
3, 31056, Note_off_c, 1, 57, 64
3, 31680, Note_on_c, 1, 64, 93
3, 31728, Note_off_c, 1, 64, 64
3, 31740, Note_on_c, 1, 67, 93
3, 31764, Note_off_c, 1, 67, 64
3, 31770, Note_on_c, 1, 71, 93
3, 31794, Note_off_c, 1, 71, 64
3, 31800, Note_on_c, 1, 72, 93
3, 31896, Note_off_c, 1, 72, 64
3, 32040, Note_on_c, 1, 64, 93
3, 32136, Note_off_c, 1, 64, 64
3, 32160, Note_on_c, 1, 63, 93
3, 32256, Note_off_c, 1, 63, 64
3, 32400, Note_on_c, 1, 64, 93
3, 32448, Note_off_c, 1, 64, 64
3, 32460, Note_on_c, 1, 67, 93
3, 32484, Note_off_c, 1, 67, 64
3, 32490, Note_on_c, 1, 71, 93
3, 32514, Note_off_c, 1, 71, 64
3, 32520, Note_on_c, 1, 76, 93
3, 32568, Note_off_c, 1, 76, 64
3, 32580, Note_on_c, 1, 76, 93
3, 32628, Note_off_c, 1, 76, 64
3, 32640, Note_on_c, 1, 76, 93
3, 32688, Note_off_c, 1, 76, 64
3, 32700, Note_on_c, 1, 76, 93
3, 32808, Note_off_c, 1, 76, 64
3, 32820, Note_on_c, 1, 74, 93
3, 32844, Note_off_c, 1, 74, 64
3, 32850, Note_on_c, 1, 72, 93
3, 32874, Note_off_c, 1, 72, 64
3, 32880, Note_on_c, 1, 74, 93
3, 32928, Note_off_c, 1, 74, 64
3, 32940, Note_on_c, 1, 65, 93
3, 32988, Note_off_c, 1, 65, 64
3, 33000, Note_on_c, 1, 64, 93
3, 33048, Note_off_c, 1, 64, 64
3, 33060, Note_on_c, 1, 74, 93
3, 33168, Note_off_c, 1, 74, 64
3, 33180, Note_on_c, 1, 72, 93
3, 33204, Note_off_c, 1, 72, 64
3, 33210, Note_on_c, 1, 71, 93
3, 33234, Note_off_c, 1, 71, 64
3, 33240, Note_on_c, 1, 72, 93
3, 33288, Note_off_c, 1, 72, 64
3, 33300, Note_on_c, 1, 64, 93
3, 33348, Note_off_c, 1, 64, 64
3, 33360, Note_on_c, 1, 63, 93
3, 33408, Note_off_c, 1, 63, 64
3, 33420, Note_on_c, 1, 72, 93
3, 33468, Note_off_c, 1, 72, 64
3, 33480, Note_on_c, 1, 71, 93
3, 33509, Note_off_c, 1, 71, 64
3, 33510, Note_on_c, 1, 69, 93
3, 33539, Note_off_c, 1, 69, 64
3, 33540, Note_on_c, 1, 72, 93
3, 33569, Note_off_c, 1, 72, 64
3, 33570, Note_on_c, 1, 71, 93
3, 33599, Note_off_c, 1, 71, 64
3, 33600, Note_on_c, 1, 69, 93
3, 33629, Note_off_c, 1, 69, 64
3, 33630, Note_on_c, 1, 67, 93
3, 33659, Note_off_c, 1, 67, 64
3, 33660, Note_on_c, 1, 66, 93
3, 33684, Note_off_c, 1, 66, 64
3, 33690, Note_on_c, 1, 64, 93
3, 33714, Note_off_c, 1, 64, 64
3, 33720, Note_on_c, 1, 63, 93
3, 33744, Note_off_c, 1, 63, 64
3, 33750, Note_on_c, 1, 69, 93
3, 33774, Note_off_c, 1, 69, 64
3, 33780, Note_on_c, 1, 67, 93
3, 33804, Note_off_c, 1, 67, 64
3, 33810, Note_on_c, 1, 66, 93
3, 33834, Note_off_c, 1, 66, 64
3, 33840, Note_on_c, 1, 67, 93
3, 33864, Note_off_c, 1, 67, 64
3, 33870, Note_on_c, 1, 66, 93
3, 33894, Note_off_c, 1, 66, 64
3, 33900, Note_on_c, 1, 64, 93
3, 33996, Note_off_c, 1, 64, 64
3, 34020, Note_on_c, 1, 62, 93
3, 34068, Note_off_c, 1, 62, 64
3, 34080, Note_on_c, 1, 61, 93
3, 34128, Note_off_c, 1, 61, 64
3, 34140, Note_on_c, 1, 67, 93
3, 34188, Note_off_c, 1, 67, 64
3, 34200, Note_on_c, 1, 65, 93
3, 34224, Note_off_c, 1, 65, 64
3, 34230, Note_on_c, 1, 64, 93
3, 34254, Note_off_c, 1, 64, 64
3, 34260, Note_on_c, 1, 62, 93
3, 34356, Note_off_c, 1, 62, 64
3, 34380, Note_on_c, 1, 60, 93
3, 34428, Note_off_c, 1, 60, 64
3, 34440, Note_on_c, 1, 59, 93
3, 34488, Note_off_c, 1, 59, 64
3, 34500, Note_on_c, 1, 65, 93
3, 34548, Note_off_c, 1, 65, 64
3, 34560, Note_on_c, 1, 64, 93
3, 34584, Note_off_c, 1, 64, 64
3, 34590, Note_on_c, 1, 62, 93
3, 34614, Note_off_c, 1, 62, 64
3, 34620, Note_on_c, 1, 60, 93
3, 34716, Note_off_c, 1, 60, 64
3, 34740, Note_on_c, 1, 62, 93
3, 34764, Note_off_c, 1, 62, 64
3, 34770, Note_on_c, 1, 64, 93
3, 34794, Note_off_c, 1, 64, 64
3, 34800, Note_on_c, 1, 65, 93
3, 34848, Note_off_c, 1, 65, 64
3, 34860, Note_on_c, 1, 66, 93
3, 34908, Note_off_c, 1, 66, 64
3, 34920, Note_on_c, 1, 67, 93
3, 34968, Note_off_c, 1, 67, 64
3, 34980, Note_on_c, 1, 68, 93
3, 35064, Note_off_c, 1, 68, 64
3, 35070, Note_on_c, 1, 69, 93
3, 35094, Note_off_c, 1, 69, 64
3, 35100, Note_on_c, 1, 71, 93
3, 35124, Note_off_c, 1, 71, 64
3, 35130, Note_on_c, 1, 72, 93
3, 35154, Note_off_c, 1, 72, 64
3, 35160, Note_on_c, 1, 74, 93
3, 35184, Note_off_c, 1, 74, 64
3, 35190, Note_on_c, 1, 72, 93
3, 35214, Note_off_c, 1, 72, 64
3, 35220, Note_on_c, 1, 71, 93
3, 35244, Note_off_c, 1, 71, 64
3, 35250, Note_on_c, 1, 74, 93
3, 35274, Note_off_c, 1, 74, 64
3, 35280, Note_on_c, 1, 72, 93
3, 35376, Note_off_c, 1, 72, 64
3, 35520, Note_on_c, 1, 76, 93
3, 35664, Note_off_c, 1, 76, 64
3, 35670, Note_on_c, 1, 69, 93
3, 35694, Note_off_c, 1, 69, 64
3, 35700, Note_on_c, 1, 67, 93
3, 35724, Note_off_c, 1, 67, 64
3, 35730, Note_on_c, 1, 69, 93
3, 35754, Note_off_c, 1, 69, 64
3, 35760, Note_on_c, 1, 74, 93
3, 35808, Note_off_c, 1, 74, 64
3, 35820, Note_on_c, 1, 72, 93
3, 35904, Note_off_c, 1, 72, 64
3, 35910, Note_on_c, 1, 70, 93
3, 35934, Note_off_c, 1, 70, 64
3, 35940, Note_on_c, 1, 69, 93
3, 35964, Note_off_c, 1, 69, 64
3, 35970, Note_on_c, 1, 72, 93
3, 35994, Note_off_c, 1, 72, 64
3, 36000, Note_on_c, 1, 70, 93
3, 36096, Note_off_c, 1, 70, 64
3, 36240, Note_on_c, 1, 69, 93
3, 36336, Note_off_c, 1, 69, 64
3, 36360, Note_on_c, 1, 68, 93
3, 36456, Note_off_c, 1, 68, 64
3, 36480, Note_on_c, 1, 69, 93
3, 36576, Note_off_c, 1, 69, 64
3, 36600, Note_on_c, 1, 71, 93
3, 36696, Note_off_c, 1, 71, 64
3, 36720, Note_on_c, 1, 64, 93
3, 36864, Note_off_c, 1, 64, 64
3, 36870, Note_on_c, 1, 62, 93
3, 36894, Note_off_c, 1, 62, 64
3, 36900, Note_on_c, 1, 64, 93
3, 36924, Note_off_c, 1, 64, 64
3, 36930, Note_on_c, 1, 69, 93
3, 36954, Note_off_c, 1, 69, 64
3, 36960, Note_on_c, 1, 57, 93
3, 37224, Note_off_c, 1, 57, 64
3, 37230, Note_on_c, 1, 56, 93
3, 37254, Note_off_c, 1, 56, 64
3, 37260, Note_on_c, 1, 54, 93
3, 37284, Note_off_c, 1, 54, 64
3, 37290, Note_on_c, 1, 56, 93
3, 37314, Note_off_c, 1, 56, 64
3, 37320, Note_on_c, 1, 57, 93
3, 37332, Note_off_c, 1, 57, 64
3, 37335, Note_on_c, 1, 56, 93
3, 37347, Note_off_c, 1, 56, 64
3, 37350, Note_on_c, 1, 57, 93
3, 37362, Note_off_c, 1, 57, 64
3, 37365, Note_on_c, 1, 56, 93
3, 37377, Note_off_c, 1, 56, 64
3, 37380, Note_on_c, 1, 57, 93
3, 37392, Note_off_c, 1, 57, 64
3, 37395, Note_on_c, 1, 56, 93
3, 37407, Note_off_c, 1, 56, 64
3, 37410, Note_on_c, 1, 57, 93
3, 37434, Note_off_c, 1, 57, 64
3, 37440, Note_on_c, 1, 57, 93
3, 37536, Note_off_c, 1, 57, 64
3, 37560, Note_on_c, 1, 60, 93
3, 37656, Note_off_c, 1, 60, 64
3, 37680, Note_on_c, 1, 59, 93
3, 37776, Note_off_c, 1, 59, 64
3, 37800, Note_on_c, 1, 60, 93
3, 37848, Note_off_c, 1, 60, 64
3, 37860, Note_on_c, 1, 57, 93
3, 37908, Note_off_c, 1, 57, 64
3, 37920, Note_on_c, 1, 64, 93
3, 38016, Note_off_c, 1, 64, 64
3, 38040, Note_on_c, 1, 64, 93
3, 38052, Note_off_c, 1, 64, 64
3, 38055, Note_on_c, 1, 62, 93
3, 38067, Note_off_c, 1, 62, 64
3, 38070, Note_on_c, 1, 64, 93
3, 38082, Note_off_c, 1, 64, 64
3, 38085, Note_on_c, 1, 62, 93
3, 38097, Note_off_c, 1, 62, 64
3, 38100, Note_on_c, 1, 64, 93
3, 38112, Note_off_c, 1, 64, 64
3, 38115, Note_on_c, 1, 62, 93
3, 38127, Note_off_c, 1, 62, 64
3, 38130, Note_on_c, 1, 64, 93
3, 38142, Note_off_c, 1, 64, 64
3, 38145, Note_on_c, 1, 62, 93
3, 38157, Note_off_c, 1, 62, 64
3, 38160, Note_on_c, 1, 64, 93
3, 38736, Note_off_c, 1, 64, 64
3, 38736, End_track
4, 0, Start_track
4, 0, Title_t, "Arr. Gary Bricault, (c) 1997"
4, 0, Program_c, 2, 19
4, 0, Note_on_c, 2, 45, 93
4, 192, Note_off_c, 2, 45, 64
4, 240, Note_on_c, 2, 57, 93
4, 336, Note_off_c, 2, 57, 64
4, 360, Note_on_c, 2, 59, 93
4, 585, Note_off_c, 2, 59, 64
4, 600, Note_on_c, 2, 47, 93
4, 696, Note_off_c, 2, 47, 64
4, 720, Note_on_c, 2, 48, 93
4, 912, Note_off_c, 2, 48, 64
4, 960, Note_on_c, 2, 50, 93
4, 1056, Note_off_c, 2, 50, 64
4, 1080, Note_on_c, 2, 52, 93
4, 1176, Note_off_c, 2, 52, 64
4, 1200, Note_on_c, 2, 50, 93
4, 1296, Note_off_c, 2, 50, 64
4, 1320, Note_on_c, 2, 49, 93
4, 1416, Note_off_c, 2, 49, 64
4, 1440, Note_on_c, 2, 50, 93
4, 1536, Note_off_c, 2, 50, 64
4, 1560, Note_on_c, 2, 48, 93
4, 1656, Note_off_c, 2, 48, 64
4, 1680, Note_on_c, 2, 47, 93
4, 1776, Note_off_c, 2, 47, 64
4, 1800, Note_on_c, 2, 48, 93
4, 1896, Note_off_c, 2, 48, 64
4, 1920, Note_on_c, 2, 50, 93
4, 2016, Note_off_c, 2, 50, 64
4, 2040, Note_on_c, 2, 52, 93
4, 2136, Note_off_c, 2, 52, 64
4, 2160, Note_on_c, 2, 45, 93
4, 2256, Note_off_c, 2, 45, 64
4, 2280, Note_on_c, 2, 57, 93
4, 2376, Note_off_c, 2, 57, 64
4, 2400, Note_on_c, 2, 55, 93
4, 2496, Note_off_c, 2, 55, 64
4, 2520, Note_on_c, 2, 54, 93
4, 2616, Note_off_c, 2, 54, 64
4, 2640, Note_on_c, 2, 59, 93
4, 2736, Note_off_c, 2, 59, 64
4, 2760, Note_on_c, 2, 47, 93
4, 2856, Note_off_c, 2, 47, 64
4, 2880, Note_on_c, 2, 52, 93
4, 3072, Note_off_c, 2, 52, 64
4, 3120, Note_on_c, 2, 40, 93
4, 3216, Note_off_c, 2, 40, 64
4, 3240, Note_on_c, 2, 42, 93
4, 3432, Note_off_c, 2, 42, 64
4, 3480, Note_on_c, 2, 54, 93
4, 3576, Note_off_c, 2, 54, 64
4, 3600, Note_on_c, 2, 55, 93
4, 3792, Note_off_c, 2, 55, 64
4, 3840, Note_on_c, 2, 57, 93
4, 3936, Note_off_c, 2, 57, 64
4, 3960, Note_on_c, 2, 59, 93
4, 4056, Note_off_c, 2, 59, 64
4, 4080, Note_on_c, 2, 57, 93
4, 4176, Note_off_c, 2, 57, 64
4, 4200, Note_on_c, 2, 56, 93
4, 4296, Note_off_c, 2, 56, 64
4, 4320, Note_on_c, 2, 57, 93
4, 4416, Note_off_c, 2, 57, 64
4, 4440, Note_on_c, 2, 55, 93
4, 4536, Note_off_c, 2, 55, 64
4, 4560, Note_on_c, 2, 54, 93
4, 4656, Note_off_c, 2, 54, 64
4, 4680, Note_on_c, 2, 55, 93
4, 4776, Note_off_c, 2, 55, 64
4, 4800, Note_on_c, 2, 57, 93
4, 4896, Note_off_c, 2, 57, 64
4, 4920, Note_on_c, 2, 59, 93
4, 5016, Note_off_c, 2, 59, 64
4, 5040, Note_on_c, 2, 52, 93
4, 5136, Note_off_c, 2, 52, 64
4, 5160, Note_on_c, 2, 55, 93
4, 5256, Note_off_c, 2, 55, 64
4, 5280, Note_on_c, 2, 57, 93
4, 5376, Note_off_c, 2, 57, 64
4, 5400, Note_on_c, 2, 50, 93
4, 5496, Note_off_c, 2, 50, 64
4, 5520, Note_on_c, 2, 53, 93
4, 5616, Note_off_c, 2, 53, 64
4, 5640, Note_on_c, 2, 55, 93
4, 5736, Note_off_c, 2, 55, 64
4, 5760, Note_on_c, 2, 48, 93
4, 5856, Note_off_c, 2, 48, 64
4, 5880, Note_on_c, 2, 47, 93
4, 5976, Note_off_c, 2, 47, 64
4, 6000, Note_on_c, 2, 45, 93
4, 6096, Note_off_c, 2, 45, 64
4, 6120, Note_on_c, 2, 47, 93
4, 6216, Note_off_c, 2, 47, 64
4, 6240, Note_on_c, 2, 52, 93
4, 6336, Note_off_c, 2, 52, 64
4, 6360, Note_on_c, 2, 40, 93
4, 6456, Note_off_c, 2, 40, 64
4, 6480, Note_on_c, 2, 45, 93
4, 6576, Note_off_c, 2, 45, 64
4, 6600, Note_on_c, 2, 47, 93
4, 6696, Note_off_c, 2, 47, 64
4, 6720, Note_on_c, 2, 49, 93
4, 6816, Note_off_c, 2, 49, 64
4, 6840, Note_on_c, 2, 50, 93
4, 7032, Note_off_c, 2, 50, 64
4, 7200, Note_on_c, 2, 38, 93
4, 7296, Note_off_c, 2, 38, 64
4, 7440, Note_on_c, 2, 50, 93
4, 7656, Note_off_c, 2, 50, 64
4, 7680, Note_on_c, 2, 48, 93
4, 7776, Note_off_c, 2, 48, 64
4, 7800, Note_on_c, 2, 44, 93
4, 7896, Note_off_c, 2, 44, 64
4, 7920, Note_on_c, 2, 45, 93
4, 8016, Note_off_c, 2, 45, 64
4, 8040, Note_on_c, 2, 43, 93
4, 8136, Note_off_c, 2, 43, 64
4, 8160, Note_on_c, 2, 41, 93
4, 8256, Note_off_c, 2, 41, 64
4, 8280, Note_on_c, 2, 48, 93
4, 8328, Note_off_c, 2, 48, 64
4, 8340, Note_on_c, 2, 50, 93
4, 8388, Note_off_c, 2, 50, 64
4, 8400, Note_on_c, 2, 52, 93
4, 8496, Note_off_c, 2, 52, 64
4, 8520, Note_on_c, 2, 40, 93
4, 8616, Note_off_c, 2, 40, 64
4, 8640, Note_on_c, 2, 45, 93
4, 8832, Note_off_c, 2, 45, 64
4, 9360, Note_on_c, 2, 45, 93
4, 9473, Note_off_c, 2, 45, 64
4, 10080, Note_on_c, 2, 45, 93
4, 10176, Note_off_c, 2, 45, 64
4, 10200, Note_on_c, 2, 47, 93
4, 10296, Note_off_c, 2, 47, 64
4, 10320, Note_on_c, 2, 48, 93
4, 10416, Note_off_c, 2, 48, 64
4, 10440, Note_on_c, 2, 50, 93
4, 10536, Note_off_c, 2, 50, 64
4, 10560, Note_on_c, 2, 38, 93
4, 10656, Note_off_c, 2, 38, 64
4, 10800, Note_on_c, 2, 43, 93
4, 10896, Note_off_c, 2, 43, 64
4, 10920, Note_on_c, 2, 45, 93
4, 11016, Note_off_c, 2, 45, 64
4, 11040, Note_on_c, 2, 47, 93
4, 11136, Note_off_c, 2, 47, 64
4, 11160, Note_on_c, 2, 48, 93
4, 11256, Note_off_c, 2, 48, 64
4, 11280, Note_on_c, 2, 36, 93
4, 11376, Note_off_c, 2, 36, 64
4, 11520, Note_on_c, 2, 41, 93
4, 11616, Note_off_c, 2, 41, 64
4, 11760, Note_on_c, 2, 42, 93
4, 11856, Note_off_c, 2, 42, 64
4, 11880, Note_on_c, 2, 43, 93
4, 11976, Note_off_c, 2, 43, 64
4, 12120, Note_on_c, 2, 44, 93
4, 12216, Note_off_c, 2, 44, 64
4, 12240, Note_on_c, 2, 45, 93
4, 12336, Note_off_c, 2, 45, 64
4, 12480, Note_on_c, 2, 57, 93
4, 12576, Note_off_c, 2, 57, 64
4, 12600, Note_on_c, 2, 59, 93
4, 12696, Note_off_c, 2, 59, 64
4, 12840, Note_on_c, 2, 47, 93
4, 12936, Note_off_c, 2, 47, 64
4, 12960, Note_on_c, 2, 48, 93
4, 13056, Note_off_c, 2, 48, 64
4, 13680, Note_on_c, 2, 36, 93
4, 13872, Note_off_c, 2, 36, 64
4, 14400, Note_on_c, 2, 48, 93
4, 14592, Note_off_c, 2, 48, 64
4, 14640, Note_on_c, 2, 36, 93
4, 14736, Note_off_c, 2, 36, 64
4, 14760, Note_on_c, 2, 38, 93
4, 14952, Note_off_c, 2, 38, 64
4, 15000, Note_on_c, 2, 50, 93
4, 15096, Note_off_c, 2, 50, 64
4, 15120, Note_on_c, 2, 52, 93
4, 15312, Note_off_c, 2, 52, 64
4, 15360, Note_on_c, 2, 53, 93
4, 15456, Note_off_c, 2, 53, 64
4, 15480, Note_on_c, 2, 55, 93
4, 15576, Note_off_c, 2, 55, 64
4, 15600, Note_on_c, 2, 53, 93
4, 15696, Note_off_c, 2, 53, 64
4, 15720, Note_on_c, 2, 52, 93
4, 15816, Note_off_c, 2, 52, 64
4, 15840, Note_on_c, 2, 53, 93
4, 15936, Note_off_c, 2, 53, 64
4, 15960, Note_on_c, 2, 52, 93
4, 16056, Note_off_c, 2, 52, 64
4, 16080, Note_on_c, 2, 50, 93
4, 16176, Note_off_c, 2, 50, 64
4, 16200, Note_on_c, 2, 52, 93
4, 16296, Note_off_c, 2, 52, 64
4, 16320, Note_on_c, 2, 53, 93
4, 16416, Note_off_c, 2, 53, 64
4, 16440, Note_on_c, 2, 55, 93
4, 16536, Note_off_c, 2, 55, 64
4, 16560, Note_on_c, 2, 48, 93
4, 16656, Note_off_c, 2, 48, 64
4, 16680, Note_on_c, 2, 60, 93
4, 16776, Note_off_c, 2, 60, 64
4, 16800, Note_on_c, 2, 58, 93
4, 16896, Note_off_c, 2, 58, 64
4, 16920, Note_on_c, 2, 57, 93
4, 17016, Note_off_c, 2, 57, 64
4, 17040, Note_on_c, 2, 62, 93
4, 17136, Note_off_c, 2, 62, 64
4, 17160, Note_on_c, 2, 50, 93
4, 17256, Note_off_c, 2, 50, 64
4, 17280, Note_on_c, 2, 55, 93
4, 17472, Note_off_c, 2, 55, 64
4, 17520, Note_on_c, 2, 43, 93
4, 17616, Note_off_c, 2, 43, 64
4, 17640, Note_on_c, 2, 45, 93
4, 17832, Note_off_c, 2, 45, 64
4, 17880, Note_on_c, 2, 57, 93
4, 17976, Note_off_c, 2, 57, 64
4, 18000, Note_on_c, 2, 59, 93
4, 18096, Note_off_c, 2, 59, 64
4, 18120, Note_on_c, 2, 47, 93
4, 18216, Note_off_c, 2, 47, 64
4, 18240, Note_on_c, 2, 48, 93
4, 18336, Note_off_c, 2, 48, 64
4, 18360, Note_on_c, 2, 50, 93
4, 18456, Note_off_c, 2, 50, 64
4, 18480, Note_on_c, 2, 48, 93
4, 18576, Note_off_c, 2, 48, 64
4, 18600, Note_on_c, 2, 47, 93
4, 18696, Note_off_c, 2, 47, 64
4, 18720, Note_on_c, 2, 48, 93
4, 18816, Note_off_c, 2, 48, 64
4, 18840, Note_on_c, 2, 47, 93
4, 18936, Note_off_c, 2, 47, 64
4, 18960, Note_on_c, 2, 45, 93
4, 19056, Note_off_c, 2, 45, 64
4, 19080, Note_on_c, 2, 47, 93
4, 19176, Note_off_c, 2, 47, 64
4, 19200, Note_on_c, 2, 48, 93
4, 19296, Note_off_c, 2, 48, 64
4, 19320, Note_on_c, 2, 50, 93
4, 19416, Note_off_c, 2, 50, 64
4, 19440, Note_on_c, 2, 43, 93
4, 19536, Note_off_c, 2, 43, 64
4, 19560, Note_on_c, 2, 55, 93
4, 19656, Note_off_c, 2, 55, 64
4, 19680, Note_on_c, 2, 53, 93
4, 19776, Note_off_c, 2, 53, 64
4, 19800, Note_on_c, 2, 52, 93
4, 19896, Note_off_c, 2, 52, 64
4, 19920, Note_on_c, 2, 57, 93
4, 20016, Note_off_c, 2, 57, 64
4, 20040, Note_on_c, 2, 45, 93
4, 20136, Note_off_c, 2, 45, 64
4, 20160, Note_on_c, 2, 50, 93
4, 20256, Note_off_c, 2, 50, 64
4, 20280, Note_on_c, 2, 52, 93
4, 20376, Note_off_c, 2, 52, 64
4, 20400, Note_on_c, 2, 53, 93
4, 20496, Note_off_c, 2, 53, 64
4, 20520, Note_on_c, 2, 55, 93
4, 20616, Note_off_c, 2, 55, 64
4, 20640, Note_on_c, 2, 43, 93
4, 20736, Note_off_c, 2, 43, 64
4, 20880, Note_on_c, 2, 48, 93
4, 20976, Note_off_c, 2, 48, 64
4, 21000, Note_on_c, 2, 50, 93
4, 21096, Note_off_c, 2, 50, 64
4, 21120, Note_on_c, 2, 52, 93
4, 21216, Note_off_c, 2, 52, 64
4, 21240, Note_on_c, 2, 53, 93
4, 21336, Note_off_c, 2, 53, 64
4, 21360, Note_on_c, 2, 41, 93
4, 21456, Note_off_c, 2, 41, 64
4, 21600, Note_on_c, 2, 46, 93
4, 21696, Note_off_c, 2, 46, 64
4, 21840, Note_on_c, 2, 47, 93
4, 21936, Note_off_c, 2, 47, 64
4, 21960, Note_on_c, 2, 48, 93
4, 22056, Note_off_c, 2, 48, 64
4, 22200, Note_on_c, 2, 49, 93
4, 22296, Note_off_c, 2, 49, 64
4, 22320, Note_on_c, 2, 50, 93
4, 22416, Note_off_c, 2, 50, 64
4, 22560, Note_on_c, 2, 48, 93
4, 22656, Note_off_c, 2, 48, 64
4, 22680, Note_on_c, 2, 46, 93
4, 22776, Note_off_c, 2, 46, 64
4, 22920, Note_on_c, 2, 58, 93
4, 23016, Note_off_c, 2, 58, 64
4, 23040, Note_on_c, 2, 57, 93
4, 23232, Note_off_c, 2, 57, 64
4, 23760, Note_on_c, 2, 45, 93
4, 23952, Note_off_c, 2, 45, 64
4, 24480, Note_on_c, 2, 57, 93
4, 24576, Note_off_c, 2, 57, 64
4, 24600, Note_on_c, 2, 55, 93
4, 24696, Note_off_c, 2, 55, 64
4, 24720, Note_on_c, 2, 53, 93
4, 24816, Note_off_c, 2, 53, 64
4, 24840, Note_on_c, 2, 52, 93
4, 24936, Note_off_c, 2, 52, 64
4, 24960, Note_on_c, 2, 57, 93
4, 25056, Note_off_c, 2, 57, 64
4, 25080, Note_on_c, 2, 45, 93
4, 25176, Note_off_c, 2, 45, 64
4, 25200, Note_on_c, 2, 50, 93
4, 25296, Note_off_c, 2, 50, 64
4, 25320, Note_on_c, 2, 52, 93
4, 25416, Note_off_c, 2, 52, 64
4, 25440, Note_on_c, 2, 54, 93
4, 25536, Note_off_c, 2, 54, 64
4, 25560, Note_on_c, 2, 55, 93
4, 25752, Note_off_c, 2, 55, 64
4, 25920, Note_on_c, 2, 43, 93
4, 26016, Note_off_c, 2, 43, 64
4, 26160, Note_on_c, 2, 55, 93
4, 26376, Note_off_c, 2, 55, 64
4, 26400, Note_on_c, 2, 53, 93
4, 26496, Note_off_c, 2, 53, 64
4, 26520, Note_on_c, 2, 49, 93
4, 26616, Note_off_c, 2, 49, 64
4, 26640, Note_on_c, 2, 50, 93
4, 26736, Note_off_c, 2, 50, 64
4, 26760, Note_on_c, 2, 48, 93
4, 26856, Note_off_c, 2, 48, 64
4, 26880, Note_on_c, 2, 46, 93
4, 26976, Note_off_c, 2, 46, 64
4, 27000, Note_on_c, 2, 41, 93
4, 27048, Note_off_c, 2, 41, 64
4, 27060, Note_on_c, 2, 43, 93
4, 27108, Note_off_c, 2, 43, 64
4, 27120, Note_on_c, 2, 45, 93
4, 27312, Note_off_c, 2, 45, 64
4, 27360, Note_on_c, 2, 38, 93
4, 27473, Note_off_c, 2, 38, 64
4, 27480, Note_on_c, 2, 50, 93
4, 27816, Note_off_c, 2, 50, 64
4, 27840, Note_on_c, 2, 48, 93
4, 28176, Note_off_c, 2, 48, 64
4, 28200, Note_on_c, 2, 47, 93
4, 28296, Note_off_c, 2, 47, 64
4, 28320, Note_on_c, 2, 45, 93
4, 28416, Note_off_c, 2, 45, 64
4, 28440, Note_on_c, 2, 44, 93
4, 28536, Note_off_c, 2, 44, 64
4, 28560, Note_on_c, 2, 40, 93
4, 28656, Note_off_c, 2, 40, 64
4, 28680, Note_on_c, 2, 44, 93
4, 28776, Note_off_c, 2, 44, 64
4, 28800, Note_on_c, 2, 45, 93
4, 28992, Note_off_c, 2, 45, 64
4, 29040, Note_on_c, 2, 57, 93
4, 29136, Note_off_c, 2, 57, 64
4, 29160, Note_on_c, 2, 59, 93
4, 29352, Note_off_c, 2, 59, 64
4, 29400, Note_on_c, 2, 47, 93
4, 29496, Note_off_c, 2, 47, 64
4, 29520, Note_on_c, 2, 48, 93
4, 29712, Note_off_c, 2, 48, 64
4, 29760, Note_on_c, 2, 50, 93
4, 29856, Note_off_c, 2, 50, 64
4, 29880, Note_on_c, 2, 52, 93
4, 29976, Note_off_c, 2, 52, 64
4, 30000, Note_on_c, 2, 50, 93
4, 30096, Note_off_c, 2, 50, 64
4, 30120, Note_on_c, 2, 49, 93
4, 30216, Note_off_c, 2, 49, 64
4, 30240, Note_on_c, 2, 50, 93
4, 30336, Note_off_c, 2, 50, 64
4, 30360, Note_on_c, 2, 48, 93
4, 30456, Note_off_c, 2, 48, 64
4, 30480, Note_on_c, 2, 47, 93
4, 30576, Note_off_c, 2, 47, 64
4, 30600, Note_on_c, 2, 48, 93
4, 30696, Note_off_c, 2, 48, 64
4, 30720, Note_on_c, 2, 50, 93
4, 30816, Note_off_c, 2, 50, 64
4, 30840, Note_on_c, 2, 52, 93
4, 30936, Note_off_c, 2, 52, 64
4, 30960, Note_on_c, 2, 45, 93
4, 31056, Note_off_c, 2, 45, 64
4, 31080, Note_on_c, 2, 57, 93
4, 31176, Note_off_c, 2, 57, 64
4, 31200, Note_on_c, 2, 55, 93
4, 31296, Note_off_c, 2, 55, 64
4, 31320, Note_on_c, 2, 54, 93
4, 31416, Note_off_c, 2, 54, 64
4, 31440, Note_on_c, 2, 59, 93
4, 31536, Note_off_c, 2, 59, 64
4, 31560, Note_on_c, 2, 47, 93
4, 31656, Note_off_c, 2, 47, 64
4, 31680, Note_on_c, 2, 52, 93
4, 31872, Note_off_c, 2, 52, 64
4, 31920, Note_on_c, 2, 40, 93
4, 32016, Note_off_c, 2, 40, 64
4, 32040, Note_on_c, 2, 42, 93
4, 32232, Note_off_c, 2, 42, 64
4, 32280, Note_on_c, 2, 54, 93
4, 32376, Note_off_c, 2, 54, 64
4, 32400, Note_on_c, 2, 55, 93
4, 32592, Note_off_c, 2, 55, 64
4, 32640, Note_on_c, 2, 57, 93
4, 32736, Note_off_c, 2, 57, 64
4, 32760, Note_on_c, 2, 59, 93
4, 32856, Note_off_c, 2, 59, 64
4, 32880, Note_on_c, 2, 57, 93
4, 32976, Note_off_c, 2, 57, 64
4, 33000, Note_on_c, 2, 56, 93
4, 33096, Note_off_c, 2, 56, 64
4, 33120, Note_on_c, 2, 57, 93
4, 33216, Note_off_c, 2, 57, 64
4, 33240, Note_on_c, 2, 55, 93
4, 33336, Note_off_c, 2, 55, 64
4, 33360, Note_on_c, 2, 54, 93
4, 33456, Note_off_c, 2, 54, 64
4, 33480, Note_on_c, 2, 55, 93
4, 33576, Note_off_c, 2, 55, 64
4, 33600, Note_on_c, 2, 57, 93
4, 33696, Note_off_c, 2, 57, 64
4, 33720, Note_on_c, 2, 59, 93
4, 33816, Note_off_c, 2, 59, 64
4, 33840, Note_on_c, 2, 52, 93
4, 33936, Note_off_c, 2, 52, 64
4, 33960, Note_on_c, 2, 55, 93
4, 34056, Note_off_c, 2, 55, 64
4, 34080, Note_on_c, 2, 57, 93
4, 34176, Note_off_c, 2, 57, 64
4, 34200, Note_on_c, 2, 50, 93
4, 34296, Note_off_c, 2, 50, 64
4, 34320, Note_on_c, 2, 53, 93
4, 34416, Note_off_c, 2, 53, 64
4, 34440, Note_on_c, 2, 55, 93
4, 34536, Note_off_c, 2, 55, 64
4, 34560, Note_on_c, 2, 48, 93
4, 34656, Note_off_c, 2, 48, 64
4, 34680, Note_on_c, 2, 47, 93
4, 34776, Note_off_c, 2, 47, 64
4, 34800, Note_on_c, 2, 45, 93
4, 34896, Note_off_c, 2, 45, 64
4, 34920, Note_on_c, 2, 47, 93
4, 35016, Note_off_c, 2, 47, 64
4, 35040, Note_on_c, 2, 52, 93
4, 35136, Note_off_c, 2, 52, 64
4, 35160, Note_on_c, 2, 40, 93
4, 35256, Note_off_c, 2, 40, 64
4, 35280, Note_on_c, 2, 45, 93
4, 35376, Note_off_c, 2, 45, 64
4, 35400, Note_on_c, 2, 47, 93
4, 35496, Note_off_c, 2, 47, 64
4, 35520, Note_on_c, 2, 49, 93
4, 35616, Note_off_c, 2, 49, 64
4, 35640, Note_on_c, 2, 50, 93
4, 35832, Note_off_c, 2, 50, 64
4, 36000, Note_on_c, 2, 38, 93
4, 36096, Note_off_c, 2, 38, 64
4, 36240, Note_on_c, 2, 50, 93
4, 36456, Note_off_c, 2, 50, 64
4, 36480, Note_on_c, 2, 48, 93
4, 36576, Note_off_c, 2, 48, 64
4, 36600, Note_on_c, 2, 44, 93
4, 36696, Note_off_c, 2, 44, 64
4, 36720, Note_on_c, 2, 45, 93
4, 36816, Note_off_c, 2, 45, 64
4, 36840, Note_on_c, 2, 43, 93
4, 36936, Note_off_c, 2, 43, 64
4, 36960, Note_on_c, 2, 41, 93
4, 37056, Note_off_c, 2, 41, 64
4, 37080, Note_on_c, 2, 48, 93
4, 37128, Note_off_c, 2, 48, 64
4, 37140, Note_on_c, 2, 50, 93
4, 37188, Note_off_c, 2, 50, 64
4, 37200, Note_on_c, 2, 52, 93
4, 37296, Note_off_c, 2, 52, 64
4, 37320, Note_on_c, 2, 40, 93
4, 37416, Note_off_c, 2, 40, 64
4, 37440, Note_on_c, 2, 45, 93
4, 37632, Note_off_c, 2, 45, 64
4, 37680, Note_on_c, 2, 43, 93
4, 37776, Note_off_c, 2, 43, 64
4, 37800, Note_on_c, 2, 41, 93
4, 38088, Note_off_c, 2, 41, 64
4, 38160, Note_on_c, 2, 40, 93
4, 38736, Note_off_c, 2, 40, 64
4, 38736, End_track
0, 0, End_of_file
