0, 0, Header, 1, 17, 240
1, 0, Start_track
1, 0, Title_t, "Fugue in d minor"
1, 0, Title_t, "BWV 539.2"
1, 0, Copyright_t, "Copyright © 1996 by Jim Michmerhuizen.  All rights reserved."
1, 0, Text_t, "J.S.Bach: Fugue in d minor, BWV 539.2\012"
1, 0, Text_t, "Copyright c 1996 by Jim Michmerhuizen.  All rights reserved.\012"
1, 0, Text_t, "Send comments to: jamzen@world.std.com\012"
1, 0, Text_t, "More files at http://world.std.com/~jamzen/jsbach.html\012"
1, 0, Text_t, "96.02.27   score file\012"
1, 0, Text_t, "97.01.23   global agogics\012"
1, 0, Text_t, "97.01.25   sectional and cadential agogics\012"
1, 0, SMPTE_offset, 96, 0, 3, 0, 0
1, 0, Time_signature, 4, 2, 24, 8
1, 0, Key_signature, -1, "major"
1, 0, Tempo, 666667
1, 360, Tempo, 727273
1, 480, Tempo, 666667
1, 840, Tempo, 754717
1, 960, Tempo, 666667
1, 1320, Tempo, 727273
1, 1440, Tempo, 666667
1, 1800, Tempo, 754717
1, 1920, Tempo, 666667
1, 2280, Tempo, 727273
1, 2400, Tempo, 666667
1, 2760, Tempo, 754717
1, 2880, Tempo, 666667
1, 3240, Tempo, 727273
1, 3360, Tempo, 666667
1, 3720, Tempo, 754717
1, 3840, Tempo, 666667
1, 4200, Tempo, 727273
1, 4320, Tempo, 666667
1, 4680, Tempo, 720721
1, 4800, Tempo, 666667
1, 5160, Tempo, 727273
1, 5280, Tempo, 666667
1, 5640, Tempo, 754717
1, 5760, Tempo, 666667
1, 6120, Tempo, 727273
1, 6240, Tempo, 666667
1, 6600, Tempo, 754717
1, 6720, Tempo, 666667
1, 7080, Tempo, 727273
1, 7200, Tempo, 666667
1, 7560, Tempo, 754717
1, 7680, Tempo, 666667
1, 8040, Tempo, 727273
1, 8160, Tempo, 666667
1, 8520, Tempo, 754717
1, 8640, Tempo, 666667
1, 9000, Tempo, 727273
1, 9120, Tempo, 666667
1, 9480, Tempo, 754717
1, 9600, Tempo, 666667
1, 9960, Tempo, 727273
1, 10080, Tempo, 666667
1, 10560, Tempo, 800000
1, 10680, Tempo, 666667
1, 10920, Tempo, 727273
1, 11040, Tempo, 666667
1, 11400, Tempo, 754717
1, 11520, Tempo, 666667
1, 11880, Tempo, 727273
1, 12000, Tempo, 666667
1, 12360, Tempo, 754717
1, 12480, Tempo, 666667
1, 12840, Tempo, 727273
1, 12960, Tempo, 666667
1, 13320, Tempo, 754717
1, 13440, Tempo, 842105
1, 13560, Tempo, 666667
1, 13800, Tempo, 727273
1, 13920, Tempo, 666667
1, 14280, Tempo, 754717
1, 14400, Tempo, 666667
1, 14760, Tempo, 727273
1, 14880, Tempo, 666667
1, 15240, Tempo, 754717
1, 15360, Tempo, 666667
1, 15720, Tempo, 727273
1, 15840, Tempo, 666667
1, 16200, Tempo, 754717
1, 16320, Tempo, 666667
1, 16680, Tempo, 727273
1, 16800, Tempo, 666667
1, 17160, Tempo, 754717
1, 17280, Tempo, 666667
1, 17640, Tempo, 727273
1, 17760, Tempo, 666667
1, 18120, Tempo, 754717
1, 18240, Tempo, 666667
1, 18600, Tempo, 727273
1, 18720, Tempo, 666667
1, 19080, Tempo, 754717
1, 19200, Tempo, 666667
1, 19560, Tempo, 727273
1, 19680, Tempo, 666667
1, 20040, Tempo, 754717
1, 20160, Tempo, 666667
1, 20520, Tempo, 727273
1, 20640, Tempo, 666667
1, 21000, Tempo, 714286
1, 21120, Tempo, 666667
1, 21480, Tempo, 727273
1, 21600, Tempo, 666667
1, 21960, Tempo, 720721
1, 22080, Tempo, 666667
1, 22440, Tempo, 727273
1, 22560, Tempo, 666667
1, 22920, Tempo, 714286
1, 23040, Tempo, 666667
1, 23280, Tempo, 711069
1, 23400, Tempo, 769231
1, 23520, Tempo, 919540
1, 23640, Tempo, 666667
1, 23880, Tempo, 754717
1, 24000, Tempo, 666667
1, 24360, Tempo, 727273
1, 24480, Tempo, 666667
1, 24840, Tempo, 754717
1, 24960, Tempo, 666667
1, 25320, Tempo, 727273
1, 25440, Tempo, 666667
1, 25800, Tempo, 754717
1, 25920, Tempo, 666667
1, 26280, Tempo, 727273
1, 26400, Tempo, 666667
1, 26760, Tempo, 754717
1, 26880, Tempo, 666667
1, 27240, Tempo, 727273
1, 27360, Tempo, 666667
1, 27720, Tempo, 754717
1, 27840, Tempo, 666667
1, 28200, Tempo, 727273
1, 28320, Tempo, 666667
1, 28680, Tempo, 754717
1, 28800, Tempo, 666667
1, 29160, Tempo, 727273
1, 29280, Tempo, 666667
1, 29640, Tempo, 754717
1, 29760, Tempo, 666667
1, 30120, Tempo, 727273
1, 30240, Tempo, 666667
1, 30600, Tempo, 707965
1, 30720, Tempo, 666667
1, 31080, Tempo, 727273
1, 31200, Tempo, 666667
1, 31560, Tempo, 711069
1, 31680, Tempo, 666667
1, 32040, Tempo, 727273
1, 32160, Tempo, 666667
1, 32520, Tempo, 754717
1, 32640, Tempo, 666667
1, 33000, Tempo, 727273
1, 33120, Tempo, 666667
1, 33480, Tempo, 754717
1, 33600, Tempo, 666667
1, 33960, Tempo, 727273
1, 34080, Tempo, 666667
1, 34440, Tempo, 754717
1, 34560, Tempo, 666667
1, 34920, Tempo, 727273
1, 35040, Tempo, 666667
1, 35400, Tempo, 754717
1, 35520, Tempo, 666667
1, 35880, Tempo, 727273
1, 36000, Tempo, 666667
1, 36360, Tempo, 754717
1, 36480, Tempo, 666667
1, 36840, Tempo, 727273
1, 36960, Tempo, 666667
1, 37320, Tempo, 754717
1, 37440, Tempo, 666667
1, 37800, Tempo, 727273
1, 37920, Tempo, 666667
1, 38280, Tempo, 754717
1, 38400, Tempo, 666667
1, 38760, Tempo, 727273
1, 38880, Tempo, 666667
1, 39240, Tempo, 754717
1, 39360, Tempo, 666667
1, 39720, Tempo, 727273
1, 39840, Tempo, 666667
1, 40200, Tempo, 754717
1, 40320, Tempo, 666667
1, 40680, Tempo, 727273
1, 40800, Tempo, 683761
1, 41160, Tempo, 754717
1, 41280, Tempo, 851064
1, 41400, Tempo, 744140
1, 41520, Tempo, 695652
1, 41640, Tempo, 666667
1, 41760, Tempo, 666667
1, 42120, Tempo, 720721
1, 42240, Tempo, 666667
1, 42600, Tempo, 727273
1, 42720, Tempo, 666667
1, 43080, Tempo, 720721
1, 43200, Tempo, 666667
1, 43560, Tempo, 727273
1, 43680, Tempo, 666667
1, 44040, Tempo, 723938
1, 44160, Tempo, 666667
1, 44520, Tempo, 727273
1, 44640, Tempo, 666667
1, 45000, Tempo, 754717
1, 45120, Tempo, 666667
1, 45480, Tempo, 727273
1, 45600, Tempo, 666667
1, 45960, Tempo, 754717
1, 46080, Tempo, 666667
1, 46440, Tempo, 727273
1, 46560, Tempo, 666667
1, 46920, Tempo, 754717
1, 47040, Tempo, 666667
1, 47400, Tempo, 727273
1, 47520, Tempo, 666667
1, 47880, Tempo, 754717
1, 48000, Tempo, 666667
1, 48360, Tempo, 727273
1, 48480, Tempo, 666667
1, 48840, Tempo, 754717
1, 48960, Tempo, 666667
1, 49320, Tempo, 727273
1, 49440, Tempo, 666667
1, 49800, Tempo, 754717
1, 49920, Tempo, 666667
1, 50280, Tempo, 727273
1, 50400, Tempo, 888889
1, 50460, Tempo, 666667
1, 50760, Tempo, 754717
1, 50880, Tempo, 666667
1, 51240, Tempo, 727273
1, 51360, Tempo, 666667
1, 51720, Tempo, 754717
1, 51840, Tempo, 666667
1, 52200, Tempo, 727273
1, 52320, Tempo, 666667
1, 52680, Tempo, 754717
1, 52800, Tempo, 666667
1, 53160, Tempo, 727273
1, 53280, Tempo, 666667
1, 53520, Tempo, 701754
1, 53640, Tempo, 754717
1, 53760, Tempo, 842105
1, 53880, Tempo, 711069
1, 54000, Tempo, 666667
1, 54120, Tempo, 727273
1, 54240, Tempo, 666667
1, 54600, Tempo, 754717
1, 54720, Tempo, 666667
1, 55080, Tempo, 727273
1, 55200, Tempo, 666667
1, 55560, Tempo, 754717
1, 55680, Tempo, 666667
1, 56040, Tempo, 727273
1, 56160, Tempo, 666667
1, 56520, Tempo, 754717
1, 56640, Tempo, 666667
1, 57000, Tempo, 727273
1, 57120, Tempo, 666667
1, 57480, Tempo, 754717
1, 57600, Tempo, 666667
1, 57960, Tempo, 727273
1, 58080, Tempo, 666667
1, 58440, Tempo, 754717
1, 58560, Tempo, 666667
1, 58920, Tempo, 727273
1, 59040, Tempo, 666667
1, 59400, Tempo, 754717
1, 59520, Tempo, 666667
1, 59880, Tempo, 727273
1, 60000, Tempo, 666667
1, 60360, Tempo, 754717
1, 60480, Tempo, 666667
1, 60840, Tempo, 727273
1, 60960, Tempo, 666667
1, 61320, Tempo, 754717
1, 61440, Tempo, 666667
1, 61800, Tempo, 765501
1, 61920, Tempo, 701754
1, 62280, Tempo, 803966
1, 62400, Tempo, 975610
1, 62460, Tempo, 683761
1, 62760, Tempo, 727273
1, 62880, Tempo, 666667
1, 63240, Tempo, 754717
1, 63360, Tempo, 941176
1, 63420, Tempo, 666667
1, 63720, Tempo, 727273
1, 63840, Tempo, 666667
1, 64200, Tempo, 754717
1, 64320, Tempo, 677966
1, 64680, Tempo, 727273
1, 64800, Tempo, 666667
1, 65160, Tempo, 754717
1, 65280, Tempo, 677966
1, 65640, Tempo, 727273
1, 65760, Tempo, 666667
1, 66120, Tempo, 754717
1, 66240, Tempo, 677966
1, 66600, Tempo, 727273
1, 66720, Tempo, 666667
1, 67080, Tempo, 754717
1, 67200, Tempo, 898876
1, 67260, Tempo, 666667
1, 67560, Tempo, 727273
1, 67680, Tempo, 666667
1, 68040, Tempo, 754717
1, 68160, Tempo, 842105
1, 68220, Tempo, 666667
1, 68520, Tempo, 727273
1, 68640, Tempo, 666667
1, 69000, Tempo, 754717
1, 69120, Tempo, 800000
1, 69180, Tempo, 666667
1, 69480, Tempo, 727273
1, 69600, Tempo, 666667
1, 69960, Tempo, 754717
1, 70080, Tempo, 666667
1, 70440, Tempo, 727273
1, 70560, Tempo, 666667
1, 70920, Tempo, 754717
1, 71040, Tempo, 666667
1, 71400, Tempo, 727273
1, 71520, Tempo, 666667
1, 71880, Tempo, 754717
1, 72000, Tempo, 666667
1, 72360, Tempo, 727273
1, 72480, Tempo, 666667
1, 72840, Tempo, 754717
1, 72960, Tempo, 666667
1, 73320, Tempo, 727273
1, 73440, Tempo, 666667
1, 73800, Tempo, 754717
1, 73920, Tempo, 666667
1, 74280, Tempo, 727273
1, 74400, Tempo, 666667
1, 74760, Tempo, 754717
1, 74880, Tempo, 666667
1, 75240, Tempo, 727273
1, 75360, Tempo, 666667
1, 75720, Tempo, 754717
1, 75840, Tempo, 666667
1, 76200, Tempo, 727273
1, 76320, Tempo, 666667
1, 76680, Tempo, 754717
1, 76800, Tempo, 666667
1, 77160, Tempo, 727273
1, 77280, Tempo, 689655
1, 77640, Tempo, 754717
1, 77760, Tempo, 808081
1, 77880, Tempo, 683761
1, 78120, Tempo, 727273
1, 78240, Tempo, 677966
1, 78720, Tempo, 754717
1, 78840, Tempo, 666667
1, 79200, Tempo, 733945
1, 79320, Tempo, 666667
1, 79560, Tempo, 754717
1, 79680, Tempo, 666667
1, 80040, Tempo, 727273
1, 80160, Tempo, 666667
1, 80520, Tempo, 754717
1, 80640, Tempo, 666667
1, 81000, Tempo, 727273
1, 81120, Tempo, 666667
1, 81480, Tempo, 754717
1, 81600, Tempo, 666667
1, 81960, Tempo, 727273
1, 82080, Tempo, 666667
1, 82440, Tempo, 754717
1, 82560, Tempo, 666667
1, 82920, Tempo, 727273
1, 83040, Tempo, 677966
1, 83400, Tempo, 754717
1, 83520, Tempo, 683761
1, 83880, Tempo, 754717
1, 84000, Tempo, 689655
1, 84180, Tempo, 888889
1, 84240, Tempo, 704804
1, 84360, Tempo, 800000
1, 84480, Tempo, 993871
1, 84540, Tempo, 747664
1, 84600, Tempo, 666667
1, 84840, Tempo, 727273
1, 84960, Tempo, 683761
1, 85320, Tempo, 754717
1, 85440, Tempo, 683761
1, 85800, Tempo, 727273
1, 85920, Tempo, 683761
1, 86280, Tempo, 754717
1, 86400, Tempo, 683761
1, 86760, Tempo, 727273
1, 86880, Tempo, 683761
1, 87240, Tempo, 754717
1, 87360, Tempo, 683761
1, 87720, Tempo, 727273
1, 87840, Tempo, 683761
1, 88200, Tempo, 754717
1, 88320, Tempo, 666667
1, 88680, Tempo, 727273
1, 88800, Tempo, 666667
1, 89160, Tempo, 754717
1, 89280, Tempo, 686656
1, 89760, Tempo, 707965
1, 90000, Tempo, 883913
1, 90060, Tempo, 727273
1, 90240, Tempo, 1000000
1, 90480, Tempo, 1331853
1, 91200, Tempo, 1739130
1, 91380, Tempo, 2285714
1, 91440, Tempo, 1333333
1, 91650, Tempo, 3821656
1, 91680, Tempo, 1777778
1, 91680, End_track
2, 0, Start_track
2, 0, MIDI_port, 0
2, 0, Title_t, "soprano"
2, 0, Program_c, 0, 19
2, 0, Control_c, 0, 7, 127
2, 0, Control_c, 0, 10, 64
2, 3480, Note_on_c, 0, 81, 64
2, 3536, Note_on_c, 0, 81, 0
2, 3600, Note_on_c, 0, 81, 64
2, 3647, Note_on_c, 0, 81, 0
2, 3720, Note_on_c, 0, 81, 64
2, 3764, Note_on_c, 0, 81, 0
2, 3840, Note_on_c, 0, 81, 64
2, 3960, Note_on_c, 0, 79, 64
2, 3972, Note_on_c, 0, 81, 0
2, 4010, Note_on_c, 0, 79, 0
2, 4020, Note_on_c, 0, 77, 64
2, 4058, Note_on_c, 0, 77, 0
2, 4080, Note_on_c, 0, 79, 64
2, 4153, Note_on_c, 0, 79, 0
2, 4200, Note_on_c, 0, 76, 64
2, 4278, Note_on_c, 0, 76, 0
2, 4320, Note_on_c, 0, 77, 64
2, 4440, Note_on_c, 0, 77, 0
2, 4560, Note_on_c, 0, 77, 64
2, 4643, Note_on_c, 0, 77, 0
2, 4800, Note_on_c, 0, 76, 64
2, 4896, Note_on_c, 0, 76, 0
2, 5040, Note_on_c, 0, 76, 64
2, 5113, Note_on_c, 0, 76, 0
2, 5400, Note_on_c, 0, 77, 64
2, 5455, Note_on_c, 0, 77, 0
2, 5520, Note_on_c, 0, 77, 64
2, 5563, Note_on_c, 0, 77, 0
2, 5640, Note_on_c, 0, 77, 64
2, 5677, Note_on_c, 0, 77, 0
2, 5760, Note_on_c, 0, 77, 64
2, 5880, Note_on_c, 0, 76, 64
2, 5890, Note_on_c, 0, 77, 0
2, 5925, Note_on_c, 0, 76, 0
2, 5940, Note_on_c, 0, 74, 64
2, 5980, Note_on_c, 0, 74, 0
2, 6000, Note_on_c, 0, 76, 64
2, 6060, Note_on_c, 0, 79, 64
2, 6064, Note_on_c, 0, 76, 0
2, 6120, Note_on_c, 0, 73, 64
2, 6129, Note_on_c, 0, 79, 0
2, 6152, Note_on_c, 0, 73, 0
2, 6180, Note_on_c, 0, 74, 64
2, 6228, Note_on_c, 0, 74, 0
2, 6240, Note_on_c, 0, 73, 64
2, 6308, Note_on_c, 0, 73, 0
2, 6540, Note_on_c, 0, 74, 64
2, 6600, Note_on_c, 0, 74, 0
2, 6780, Note_on_c, 0, 64, 64
2, 6839, Note_on_c, 0, 64, 0
2, 6840, Note_on_c, 0, 68, 64
2, 6870, Note_on_c, 0, 68, 0
2, 6900, Note_on_c, 0, 71, 64
2, 6952, Note_on_c, 0, 71, 0
2, 6960, Note_on_c, 0, 72, 64
2, 7020, Note_on_c, 0, 76, 64
2, 7029, Note_on_c, 0, 72, 0
2, 7080, Note_on_c, 0, 69, 64
2, 7083, Note_on_c, 0, 76, 0
2, 7128, Note_on_c, 0, 69, 0
2, 7140, Note_on_c, 0, 67, 64
2, 7181, Note_on_c, 0, 67, 0
2, 7200, Note_on_c, 0, 66, 64
2, 7316, Note_on_c, 0, 66, 0
2, 7440, Note_on_c, 0, 66, 64
2, 7552, Note_on_c, 0, 66, 0
2, 7680, Note_on_c, 0, 67, 64
2, 7784, Note_on_c, 0, 67, 0
2, 8220, Note_on_c, 0, 67, 64
2, 8280, Note_on_c, 0, 70, 64
2, 8290, Note_on_c, 0, 67, 0
2, 8338, Note_on_c, 0, 70, 0
2, 8340, Note_on_c, 0, 74, 64
2, 8381, Note_on_c, 0, 74, 0
2, 8400, Note_on_c, 0, 72, 64
2, 8460, Note_on_c, 0, 70, 64
2, 8469, Note_on_c, 0, 72, 0
2, 8520, Note_on_c, 0, 69, 64
2, 8534, Note_on_c, 0, 70, 0
2, 8569, Note_on_c, 0, 69, 0
2, 8580, Note_on_c, 0, 67, 64
2, 8638, Note_on_c, 0, 67, 0
2, 8640, Note_on_c, 0, 69, 64
2, 8700, Note_on_c, 0, 64, 64
2, 8712, Note_on_c, 0, 69, 0
2, 8760, Note_on_c, 0, 65, 64
2, 8762, Note_on_c, 0, 64, 0
2, 8798, Note_on_c, 0, 65, 0
2, 8820, Note_on_c, 0, 61, 64
2, 8876, Note_on_c, 0, 61, 0
2, 8880, Note_on_c, 0, 62, 64
2, 8937, Note_on_c, 0, 62, 0
2, 8940, Note_on_c, 0, 65, 64
2, 8998, Note_on_c, 0, 65, 0
2, 9000, Note_on_c, 0, 69, 64
2, 9060, Note_on_c, 0, 60, 64
2, 9119, Note_on_c, 0, 60, 0
2, 9120, Note_on_c, 0, 58, 64
2, 9129, Note_on_c, 0, 69, 0
2, 9239, Note_on_c, 0, 58, 0
2, 13020, Note_on_c, 0, 62, 64
2, 13080, Note_on_c, 0, 67, 64
2, 13084, Note_on_c, 0, 62, 0
2, 13130, Note_on_c, 0, 67, 0
2, 13140, Note_on_c, 0, 70, 64
2, 13201, Note_on_c, 0, 70, 0
2, 13260, Note_on_c, 0, 62, 64
2, 13317, Note_on_c, 0, 62, 0
2, 13320, Note_on_c, 0, 64, 64
2, 13380, Note_on_c, 0, 61, 64
2, 13384, Note_on_c, 0, 64, 0
2, 13440, Note_on_c, 0, 62, 64
2, 13442, Note_on_c, 0, 61, 0
2, 13502, Note_on_c, 0, 62, 0
2, 13560, Note_on_c, 0, 81, 64
2, 13613, Note_on_c, 0, 81, 0
2, 13680, Note_on_c, 0, 81, 64
2, 13730, Note_on_c, 0, 81, 0
2, 13800, Note_on_c, 0, 81, 64
2, 13839, Note_on_c, 0, 81, 0
2, 13920, Note_on_c, 0, 81, 64
2, 14040, Note_on_c, 0, 79, 64
2, 14053, Note_on_c, 0, 81, 0
2, 14092, Note_on_c, 0, 79, 0
2, 14100, Note_on_c, 0, 77, 64
2, 14143, Note_on_c, 0, 77, 0
2, 14160, Note_on_c, 0, 79, 64
2, 14232, Note_on_c, 0, 79, 0
2, 14280, Note_on_c, 0, 76, 64
2, 14332, Note_on_c, 0, 76, 0
2, 14400, Note_on_c, 0, 77, 64
2, 14488, Note_on_c, 0, 77, 0
2, 14640, Note_on_c, 0, 82, 64
2, 14729, Note_on_c, 0, 82, 0
2, 14880, Note_on_c, 0, 76, 64
2, 14985, Note_on_c, 0, 76, 0
2, 15120, Note_on_c, 0, 81, 64
2, 15480, Note_on_c, 0, 79, 64
2, 15497, Note_on_c, 0, 81, 0
2, 15549, Note_on_c, 0, 79, 0
2, 15600, Note_on_c, 0, 79, 64
2, 15687, Note_on_c, 0, 79, 0
2, 15720, Note_on_c, 0, 79, 64
2, 15789, Note_on_c, 0, 79, 0
2, 15840, Note_on_c, 0, 79, 64
2, 15960, Note_on_c, 0, 77, 64
2, 15975, Note_on_c, 0, 79, 0
2, 16016, Note_on_c, 0, 77, 0
2, 16020, Note_on_c, 0, 76, 64
2, 16048, Note_on_c, 0, 76, 0
2, 16080, Note_on_c, 0, 77, 64
2, 16190, Note_on_c, 0, 77, 0
2, 16200, Note_on_c, 0, 74, 64
2, 16285, Note_on_c, 0, 74, 0
2, 16320, Note_on_c, 0, 76, 64
2, 16448, Note_on_c, 0, 76, 0
2, 16560, Note_on_c, 0, 81, 64
2, 16679, Note_on_c, 0, 81, 0
2, 16800, Note_on_c, 0, 74, 64
2, 16922, Note_on_c, 0, 74, 0
2, 17040, Note_on_c, 0, 79, 64
2, 17400, Note_on_c, 0, 77, 64
2, 17409, Note_on_c, 0, 79, 0
2, 17439, Note_on_c, 0, 77, 0
2, 17520, Note_on_c, 0, 77, 64
2, 17626, Note_on_c, 0, 77, 0
2, 17640, Note_on_c, 0, 77, 64
2, 17691, Note_on_c, 0, 77, 0
2, 17760, Note_on_c, 0, 77, 64
2, 17880, Note_on_c, 0, 76, 64
2, 17882, Note_on_c, 0, 77, 0
2, 17919, Note_on_c, 0, 76, 0
2, 17940, Note_on_c, 0, 74, 64
2, 17976, Note_on_c, 0, 74, 0
2, 18000, Note_on_c, 0, 76, 64
2, 18120, Note_on_c, 0, 77, 64
2, 18125, Note_on_c, 0, 76, 0
2, 18178, Note_on_c, 0, 77, 0
2, 18180, Note_on_c, 0, 76, 64
2, 18217, Note_on_c, 0, 76, 0
2, 18240, Note_on_c, 0, 74, 64
2, 18375, Note_on_c, 0, 74, 0
2, 18480, Note_on_c, 0, 79, 64
2, 18840, Note_on_c, 0, 77, 64
2, 18858, Note_on_c, 0, 79, 0
2, 18893, Note_on_c, 0, 77, 0
2, 18900, Note_on_c, 0, 76, 64
2, 18941, Note_on_c, 0, 76, 0
2, 18960, Note_on_c, 0, 77, 64
2, 19080, Note_on_c, 0, 79, 64
2, 19090, Note_on_c, 0, 77, 0
2, 19129, Note_on_c, 0, 79, 0
2, 19140, Note_on_c, 0, 77, 64
2, 19173, Note_on_c, 0, 77, 0
2, 19200, Note_on_c, 0, 76, 64
2, 19318, Note_on_c, 0, 76, 0
2, 19440, Note_on_c, 0, 81, 64
2, 19554, Note_on_c, 0, 81, 0
2, 19680, Note_on_c, 0, 81, 64
2, 19810, Note_on_c, 0, 81, 0
2, 19920, Note_on_c, 0, 79, 64
2, 20034, Note_on_c, 0, 79, 0
2, 20160, Note_on_c, 0, 72, 64
2, 20293, Note_on_c, 0, 72, 0
2, 20400, Note_on_c, 0, 77, 64
2, 20526, Note_on_c, 0, 77, 0
2, 20640, Note_on_c, 0, 76, 64
2, 20754, Note_on_c, 0, 76, 0
2, 20760, Note_on_c, 0, 72, 64
2, 20880, Note_on_c, 0, 74, 64
2, 20884, Note_on_c, 0, 72, 0
2, 21000, Note_on_c, 0, 76, 64
2, 21006, Note_on_c, 0, 74, 0
2, 21120, Note_on_c, 0, 77, 64
2, 21128, Note_on_c, 0, 76, 0
2, 21240, Note_on_c, 0, 76, 64
2, 21259, Note_on_c, 0, 77, 0
2, 21360, Note_on_c, 0, 76, 0
2, 21360, Note_on_c, 0, 74, 64
2, 21600, Note_on_c, 0, 74, 0
2, 21660, Note_on_c, 0, 74, 64
2, 21717, Note_on_c, 0, 74, 0
2, 21720, Note_on_c, 0, 72, 64
2, 21777, Note_on_c, 0, 72, 0
2, 21780, Note_on_c, 0, 71, 64
2, 21837, Note_on_c, 0, 71, 0
2, 21840, Note_on_c, 0, 72, 64
2, 22083, Note_on_c, 0, 72, 0
2, 22140, Note_on_c, 0, 72, 64
2, 22199, Note_on_c, 0, 72, 0
2, 22200, Note_on_c, 0, 71, 64
2, 22253, Note_on_c, 0, 71, 0
2, 22260, Note_on_c, 0, 69, 64
2, 22306, Note_on_c, 0, 69, 0
2, 22320, Note_on_c, 0, 71, 64
2, 22440, Note_on_c, 0, 68, 64
2, 22453, Note_on_c, 0, 71, 0
2, 22555, Note_on_c, 0, 68, 0
2, 22560, Note_on_c, 0, 69, 64
2, 22782, Note_on_c, 0, 69, 0
2, 22860, Note_on_c, 0, 69, 64
2, 22930, Note_on_c, 0, 69, 0
2, 22980, Note_on_c, 0, 69, 64
2, 23089, Note_on_c, 0, 69, 0
2, 23100, Note_on_c, 0, 68, 64
2, 23160, Note_on_c, 0, 66, 64
2, 23163, Note_on_c, 0, 68, 0
2, 23203, Note_on_c, 0, 66, 0
2, 23220, Note_on_c, 0, 68, 64
2, 23260, Note_on_c, 0, 68, 0
2, 23280, Note_on_c, 0, 68, 64
2, 23433, Note_on_c, 0, 68, 0
2, 23460, Note_on_c, 0, 69, 64
2, 23494, Note_on_c, 0, 69, 0
2, 23520, Note_on_c, 0, 69, 64
2, 23654, Note_on_c, 0, 69, 0
2, 28440, Note_on_c, 0, 76, 64
2, 28503, Note_on_c, 0, 76, 0
2, 28560, Note_on_c, 0, 76, 64
2, 28604, Note_on_c, 0, 76, 0
2, 28680, Note_on_c, 0, 76, 64
2, 28721, Note_on_c, 0, 76, 0
2, 28800, Note_on_c, 0, 76, 64
2, 28920, Note_on_c, 0, 76, 0
2, 28920, Note_on_c, 0, 74, 64
2, 28954, Note_on_c, 0, 74, 0
2, 28980, Note_on_c, 0, 72, 64
2, 29014, Note_on_c, 0, 72, 0
2, 29040, Note_on_c, 0, 74, 64
2, 29102, Note_on_c, 0, 74, 0
2, 29160, Note_on_c, 0, 74, 64
2, 29201, Note_on_c, 0, 74, 0
2, 29280, Note_on_c, 0, 74, 64
2, 29400, Note_on_c, 0, 72, 64
2, 29418, Note_on_c, 0, 74, 0
2, 29444, Note_on_c, 0, 72, 0
2, 29460, Note_on_c, 0, 71, 64
2, 29503, Note_on_c, 0, 71, 0
2, 29520, Note_on_c, 0, 72, 64
2, 29576, Note_on_c, 0, 72, 0
2, 29640, Note_on_c, 0, 72, 64
2, 29700, Note_on_c, 0, 72, 0
2, 29760, Note_on_c, 0, 77, 64
2, 29820, Note_on_c, 0, 79, 64
2, 29831, Note_on_c, 0, 77, 0
2, 29875, Note_on_c, 0, 79, 0
2, 29880, Note_on_c, 0, 77, 64
2, 29926, Note_on_c, 0, 77, 0
2, 29940, Note_on_c, 0, 76, 64
2, 29962, Note_on_c, 0, 76, 0
2, 30000, Note_on_c, 0, 76, 64
2, 30056, Note_on_c, 0, 76, 0
2, 30060, Note_on_c, 0, 77, 64
2, 30118, Note_on_c, 0, 77, 0
2, 30120, Note_on_c, 0, 76, 64
2, 30164, Note_on_c, 0, 76, 0
2, 30180, Note_on_c, 0, 75, 64
2, 30206, Note_on_c, 0, 75, 0
2, 30240, Note_on_c, 0, 75, 64
2, 30360, Note_on_c, 0, 76, 64
2, 30366, Note_on_c, 0, 75, 0
2, 30540, Note_on_c, 0, 74, 64
2, 30551, Note_on_c, 0, 76, 0
2, 30596, Note_on_c, 0, 74, 0
2, 30600, Note_on_c, 0, 73, 64
2, 30646, Note_on_c, 0, 73, 0
2, 30660, Note_on_c, 0, 71, 64
2, 30711, Note_on_c, 0, 71, 0
2, 30720, Note_on_c, 0, 73, 64
2, 30840, Note_on_c, 0, 74, 64
2, 30849, Note_on_c, 0, 73, 0
2, 31020, Note_on_c, 0, 72, 64
2, 31025, Note_on_c, 0, 74, 0
2, 31060, Note_on_c, 0, 72, 0
2, 31080, Note_on_c, 0, 71, 64
2, 31128, Note_on_c, 0, 71, 0
2, 31140, Note_on_c, 0, 69, 64
2, 31186, Note_on_c, 0, 69, 0
2, 31200, Note_on_c, 0, 71, 64
2, 31260, Note_on_c, 0, 74, 64
2, 31268, Note_on_c, 0, 71, 0
2, 31301, Note_on_c, 0, 74, 0
2, 31320, Note_on_c, 0, 72, 64
2, 31500, Note_on_c, 0, 71, 64
2, 31517, Note_on_c, 0, 72, 0
2, 31560, Note_on_c, 0, 69, 64
2, 31567, Note_on_c, 0, 71, 0
2, 31618, Note_on_c, 0, 69, 0
2, 31620, Note_on_c, 0, 68, 64
2, 31680, Note_on_c, 0, 69, 64
2, 31689, Note_on_c, 0, 68, 0
2, 31726, Note_on_c, 0, 69, 0
2, 31740, Note_on_c, 0, 77, 64
2, 31780, Note_on_c, 0, 77, 0
2, 31800, Note_on_c, 0, 70, 64
2, 31980, Note_on_c, 0, 69, 64
2, 31990, Note_on_c, 0, 70, 0
2, 32035, Note_on_c, 0, 69, 0
2, 32040, Note_on_c, 0, 68, 64
2, 32100, Note_on_c, 0, 68, 0
2, 32100, Note_on_c, 0, 69, 64
2, 32160, Note_on_c, 0, 68, 64
2, 32162, Note_on_c, 0, 69, 0
2, 32250, Note_on_c, 0, 68, 0
2, 32280, Note_on_c, 0, 77, 64
2, 32319, Note_on_c, 0, 77, 0
2, 32340, Note_on_c, 0, 74, 64
2, 32383, Note_on_c, 0, 74, 0
2, 32400, Note_on_c, 0, 76, 64
2, 32713, Note_on_c, 0, 76, 0
2, 32760, Note_on_c, 0, 77, 64
2, 32790, Note_on_c, 0, 76, 64
2, 32804, Note_on_c, 0, 77, 0
2, 32816, Note_on_c, 0, 76, 0
2, 32820, Note_on_c, 0, 75, 64
2, 32880, Note_on_c, 0, 76, 64
2, 32886, Note_on_c, 0, 75, 0
2, 32991, Note_on_c, 0, 76, 0
2, 33000, Note_on_c, 0, 80, 64
2, 33087, Note_on_c, 0, 80, 0
2, 33120, Note_on_c, 0, 81, 64
2, 33180, Note_on_c, 0, 82, 64
2, 33185, Note_on_c, 0, 81, 0
2, 33240, Note_on_c, 0, 81, 64
2, 33248, Note_on_c, 0, 82, 0
2, 33284, Note_on_c, 0, 81, 0
2, 33300, Note_on_c, 0, 79, 64
2, 33325, Note_on_c, 0, 79, 0
2, 33360, Note_on_c, 0, 79, 64
2, 33417, Note_on_c, 0, 79, 0
2, 33420, Note_on_c, 0, 81, 64
2, 33480, Note_on_c, 0, 79, 64
2, 33485, Note_on_c, 0, 81, 0
2, 33535, Note_on_c, 0, 79, 0
2, 33540, Note_on_c, 0, 77, 64
2, 33579, Note_on_c, 0, 77, 0
2, 33600, Note_on_c, 0, 77, 64
2, 33660, Note_on_c, 0, 79, 64
2, 33672, Note_on_c, 0, 77, 0
2, 33713, Note_on_c, 0, 79, 0
2, 33720, Note_on_c, 0, 77, 64
2, 33769, Note_on_c, 0, 77, 0
2, 33780, Note_on_c, 0, 76, 64
2, 33818, Note_on_c, 0, 76, 0
2, 33840, Note_on_c, 0, 76, 64
2, 33914, Note_on_c, 0, 76, 0
2, 33960, Note_on_c, 0, 80, 64
2, 34004, Note_on_c, 0, 80, 0
2, 34080, Note_on_c, 0, 80, 64
2, 34200, Note_on_c, 0, 81, 64
2, 34213, Note_on_c, 0, 80, 0
2, 34267, Note_on_c, 0, 81, 0
2, 34320, Note_on_c, 0, 81, 64
2, 34435, Note_on_c, 0, 81, 0
2, 34440, Note_on_c, 0, 74, 64
2, 34490, Note_on_c, 0, 74, 0
2, 34560, Note_on_c, 0, 74, 64
2, 34727, Note_on_c, 0, 74, 0
2, 34740, Note_on_c, 0, 76, 64
2, 34785, Note_on_c, 0, 76, 0
2, 34800, Note_on_c, 0, 72, 64
2, 34920, Note_on_c, 0, 71, 64
2, 34928, Note_on_c, 0, 72, 0
2, 35034, Note_on_c, 0, 71, 0
2, 35040, Note_on_c, 0, 71, 64
2, 35984, Note_on_c, 0, 71, 0
2, 36000, Note_on_c, 0, 76, 64
2, 36103, Note_on_c, 0, 76, 0
2, 36120, Note_on_c, 0, 74, 64
2, 36234, Note_on_c, 0, 74, 0
2, 36240, Note_on_c, 0, 76, 64
2, 36360, Note_on_c, 0, 72, 64
2, 36382, Note_on_c, 0, 76, 0
2, 36480, Note_on_c, 0, 74, 64
2, 36481, Note_on_c, 0, 72, 0
2, 37080, Note_on_c, 0, 72, 64
2, 37091, Note_on_c, 0, 74, 0
2, 37186, Note_on_c, 0, 72, 0
2, 37200, Note_on_c, 0, 74, 64
2, 37320, Note_on_c, 0, 71, 64
2, 37330, Note_on_c, 0, 74, 0
2, 37440, Note_on_c, 0, 72, 64
2, 37449, Note_on_c, 0, 71, 0
2, 37560, Note_on_c, 0, 71, 64
2, 37561, Note_on_c, 0, 72, 0
2, 37678, Note_on_c, 0, 71, 0
2, 37680, Note_on_c, 0, 72, 64
2, 37800, Note_on_c, 0, 74, 64
2, 37817, Note_on_c, 0, 72, 0
2, 37920, Note_on_c, 0, 76, 64
2, 37936, Note_on_c, 0, 74, 0
2, 38040, Note_on_c, 0, 77, 64
2, 38053, Note_on_c, 0, 76, 0
2, 38160, Note_on_c, 0, 76, 64
2, 38162, Note_on_c, 0, 77, 0
2, 38280, Note_on_c, 0, 74, 64
2, 38284, Note_on_c, 0, 76, 0
2, 38400, Note_on_c, 0, 72, 64
2, 38401, Note_on_c, 0, 74, 0
2, 38520, Note_on_c, 0, 71, 64
2, 38527, Note_on_c, 0, 72, 0
2, 38640, Note_on_c, 0, 72, 64
2, 38642, Note_on_c, 0, 71, 0
2, 38760, Note_on_c, 0, 74, 64
2, 38765, Note_on_c, 0, 72, 0
2, 38880, Note_on_c, 0, 76, 64
2, 38890, Note_on_c, 0, 74, 0
2, 39000, Note_on_c, 0, 76, 0
2, 39000, Note_on_c, 0, 74, 64
2, 39120, Note_on_c, 0, 76, 64
2, 39122, Note_on_c, 0, 74, 0
2, 39240, Note_on_c, 0, 78, 64
2, 39250, Note_on_c, 0, 76, 0
2, 39360, Note_on_c, 0, 78, 0
2, 39360, Note_on_c, 0, 80, 64
2, 39480, Note_on_c, 0, 78, 64
2, 39481, Note_on_c, 0, 80, 0
2, 39600, Note_on_c, 0, 80, 64
2, 39601, Note_on_c, 0, 78, 0
2, 39720, Note_on_c, 0, 81, 64
2, 39724, Note_on_c, 0, 80, 0
2, 39840, Note_on_c, 0, 83, 64
2, 39849, Note_on_c, 0, 81, 0
2, 39960, Note_on_c, 0, 83, 0
2, 39960, Note_on_c, 0, 84, 64
2, 40080, Note_on_c, 0, 83, 64
2, 40093, Note_on_c, 0, 84, 0
2, 40200, Note_on_c, 0, 81, 64
2, 40203, Note_on_c, 0, 83, 0
2, 40320, Note_on_c, 0, 80, 64
2, 40327, Note_on_c, 0, 81, 0
2, 40434, Note_on_c, 0, 80, 0
2, 40440, Note_on_c, 0, 78, 64
2, 40551, Note_on_c, 0, 78, 0
2, 40560, Note_on_c, 0, 80, 64
2, 40680, Note_on_c, 0, 81, 64
2, 40687, Note_on_c, 0, 80, 0
2, 40800, Note_on_c, 0, 83, 64
2, 40804, Note_on_c, 0, 81, 0
2, 40910, Note_on_c, 0, 83, 0
2, 40920, Note_on_c, 0, 81, 64
2, 41038, Note_on_c, 0, 81, 0
2, 41040, Note_on_c, 0, 83, 64
2, 41160, Note_on_c, 0, 80, 64
2, 41171, Note_on_c, 0, 83, 0
2, 41280, Note_on_c, 0, 81, 64
2, 41291, Note_on_c, 0, 80, 0
2, 41368, Note_on_c, 0, 81, 0
2, 50880, Note_on_c, 0, 78, 64
2, 50990, Note_on_c, 0, 78, 0
2, 51120, Note_on_c, 0, 79, 64
2, 51236, Note_on_c, 0, 79, 0
2, 51360, Note_on_c, 0, 79, 64
2, 51501, Note_on_c, 0, 79, 0
2, 51600, Note_on_c, 0, 78, 64
2, 51713, Note_on_c, 0, 78, 0
2, 51720, Note_on_c, 0, 81, 64
2, 51838, Note_on_c, 0, 81, 0
2, 51840, Note_on_c, 0, 74, 64
2, 51968, Note_on_c, 0, 74, 0
2, 52200, Note_on_c, 0, 74, 64
2, 52250, Note_on_c, 0, 74, 0
2, 52320, Note_on_c, 0, 74, 64
2, 52440, Note_on_c, 0, 72, 64
2, 52449, Note_on_c, 0, 74, 0
2, 52465, Note_on_c, 0, 72, 0
2, 52500, Note_on_c, 0, 70, 64
2, 52531, Note_on_c, 0, 70, 0
2, 52560, Note_on_c, 0, 74, 64
2, 52620, Note_on_c, 0, 72, 64
2, 52630, Note_on_c, 0, 74, 0
2, 52664, Note_on_c, 0, 72, 0
2, 52680, Note_on_c, 0, 70, 64
2, 52734, Note_on_c, 0, 70, 0
2, 52740, Note_on_c, 0, 69, 64
2, 52785, Note_on_c, 0, 69, 0
2, 52800, Note_on_c, 0, 72, 64
2, 52860, Note_on_c, 0, 70, 64
2, 52873, Note_on_c, 0, 72, 0
2, 52920, Note_on_c, 0, 69, 64
2, 52935, Note_on_c, 0, 70, 0
2, 52971, Note_on_c, 0, 69, 0
2, 52980, Note_on_c, 0, 67, 64
2, 53020, Note_on_c, 0, 67, 0
2, 53040, Note_on_c, 0, 70, 64
2, 53100, Note_on_c, 0, 68, 64
2, 53122, Note_on_c, 0, 70, 0
2, 53157, Note_on_c, 0, 68, 0
2, 53160, Note_on_c, 0, 67, 64
2, 53213, Note_on_c, 0, 67, 0
2, 53220, Note_on_c, 0, 66, 64
2, 53272, Note_on_c, 0, 66, 0
2, 53280, Note_on_c, 0, 67, 64
2, 53431, Note_on_c, 0, 67, 0
2, 53460, Note_on_c, 0, 69, 64
2, 53513, Note_on_c, 0, 69, 0
2, 53520, Note_on_c, 0, 66, 64
2, 53692, Note_on_c, 0, 66, 0
2, 53700, Note_on_c, 0, 67, 64
2, 53729, Note_on_c, 0, 67, 0
2, 53760, Note_on_c, 0, 67, 64
2, 53892, Note_on_c, 0, 67, 0
2, 55800, Note_on_c, 0, 72, 64
2, 55860, Note_on_c, 0, 72, 0
2, 55920, Note_on_c, 0, 72, 64
2, 55979, Note_on_c, 0, 72, 0
2, 56040, Note_on_c, 0, 72, 64
2, 56085, Note_on_c, 0, 72, 0
2, 56160, Note_on_c, 0, 72, 64
2, 56280, Note_on_c, 0, 70, 64
2, 56289, Note_on_c, 0, 72, 0
2, 56327, Note_on_c, 0, 70, 0
2, 56340, Note_on_c, 0, 69, 64
2, 56374, Note_on_c, 0, 69, 0
2, 56400, Note_on_c, 0, 70, 64
2, 56505, Note_on_c, 0, 70, 0
2, 56520, Note_on_c, 0, 67, 64
2, 56580, Note_on_c, 0, 69, 64
2, 56602, Note_on_c, 0, 67, 0
2, 56610, Note_on_c, 0, 70, 64
2, 56612, Note_on_c, 0, 69, 0
2, 56640, Note_on_c, 0, 69, 64
2, 56649, Note_on_c, 0, 70, 0
2, 56740, Note_on_c, 0, 69, 0
2, 56760, Note_on_c, 0, 77, 64
2, 56795, Note_on_c, 0, 77, 0
2, 56880, Note_on_c, 0, 77, 64
2, 56946, Note_on_c, 0, 77, 0
2, 57000, Note_on_c, 0, 77, 64
2, 57038, Note_on_c, 0, 77, 0
2, 57120, Note_on_c, 0, 77, 64
2, 57240, Note_on_c, 0, 76, 64
2, 57246, Note_on_c, 0, 77, 0
2, 57277, Note_on_c, 0, 76, 0
2, 57300, Note_on_c, 0, 74, 64
2, 57331, Note_on_c, 0, 74, 0
2, 57360, Note_on_c, 0, 76, 64
2, 57480, Note_on_c, 0, 78, 64
2, 57503, Note_on_c, 0, 76, 0
2, 57600, Note_on_c, 0, 78, 0
2, 57600, Note_on_c, 0, 79, 64
2, 57686, Note_on_c, 0, 79, 0
2, 57720, Note_on_c, 0, 79, 64
2, 57768, Note_on_c, 0, 79, 0
2, 57840, Note_on_c, 0, 79, 64
2, 57890, Note_on_c, 0, 79, 0
2, 57960, Note_on_c, 0, 79, 64
2, 57993, Note_on_c, 0, 79, 0
2, 58080, Note_on_c, 0, 79, 64
2, 58200, Note_on_c, 0, 77, 64
2, 58214, Note_on_c, 0, 79, 0
2, 58249, Note_on_c, 0, 77, 0
2, 58260, Note_on_c, 0, 76, 64
2, 58297, Note_on_c, 0, 76, 0
2, 58320, Note_on_c, 0, 77, 64
2, 58433, Note_on_c, 0, 77, 0
2, 58440, Note_on_c, 0, 79, 64
2, 58485, Note_on_c, 0, 79, 0
2, 58500, Note_on_c, 0, 74, 64
2, 58545, Note_on_c, 0, 74, 0
2, 58560, Note_on_c, 0, 76, 64
2, 58680, Note_on_c, 0, 76, 0
2, 58680, Note_on_c, 0, 77, 64
2, 58724, Note_on_c, 0, 77, 0
2, 58740, Note_on_c, 0, 72, 64
2, 58783, Note_on_c, 0, 72, 0
2, 58800, Note_on_c, 0, 74, 64
2, 58918, Note_on_c, 0, 74, 0
2, 58920, Note_on_c, 0, 76, 64
2, 58968, Note_on_c, 0, 76, 0
2, 58980, Note_on_c, 0, 74, 64
2, 59014, Note_on_c, 0, 74, 0
2, 59040, Note_on_c, 0, 72, 64
2, 59160, Note_on_c, 0, 74, 64
2, 59168, Note_on_c, 0, 72, 0
2, 59203, Note_on_c, 0, 74, 0
2, 59220, Note_on_c, 0, 69, 64
2, 59269, Note_on_c, 0, 69, 0
2, 59280, Note_on_c, 0, 70, 64
2, 59640, Note_on_c, 0, 69, 64
2, 59654, Note_on_c, 0, 70, 0
2, 59692, Note_on_c, 0, 69, 0
2, 59760, Note_on_c, 0, 69, 64
2, 59813, Note_on_c, 0, 69, 0
2, 59880, Note_on_c, 0, 69, 64
2, 59914, Note_on_c, 0, 69, 0
2, 60000, Note_on_c, 0, 69, 64
2, 60120, Note_on_c, 0, 70, 64
2, 60127, Note_on_c, 0, 69, 0
2, 60178, Note_on_c, 0, 70, 0
2, 60180, Note_on_c, 0, 69, 64
2, 60222, Note_on_c, 0, 69, 0
2, 60240, Note_on_c, 0, 67, 64
2, 60300, Note_on_c, 0, 74, 64
2, 60304, Note_on_c, 0, 67, 0
2, 60356, Note_on_c, 0, 74, 0
2, 60360, Note_on_c, 0, 65, 64
2, 60410, Note_on_c, 0, 65, 0
2, 60420, Note_on_c, 0, 74, 64
2, 60471, Note_on_c, 0, 74, 0
2, 60480, Note_on_c, 0, 64, 64
2, 60592, Note_on_c, 0, 64, 0
2, 60600, Note_on_c, 0, 72, 64
2, 60659, Note_on_c, 0, 72, 0
2, 60720, Note_on_c, 0, 72, 64
2, 60762, Note_on_c, 0, 72, 0
2, 60840, Note_on_c, 0, 72, 64
2, 60879, Note_on_c, 0, 72, 0
2, 60960, Note_on_c, 0, 72, 64
2, 61079, Note_on_c, 0, 72, 0
2, 61080, Note_on_c, 0, 74, 64
2, 61118, Note_on_c, 0, 74, 0
2, 61140, Note_on_c, 0, 72, 64
2, 61174, Note_on_c, 0, 72, 0
2, 61200, Note_on_c, 0, 70, 64
2, 61260, Note_on_c, 0, 69, 64
2, 61269, Note_on_c, 0, 70, 0
2, 61320, Note_on_c, 0, 67, 64
2, 61324, Note_on_c, 0, 69, 0
2, 61372, Note_on_c, 0, 67, 0
2, 61380, Note_on_c, 0, 69, 64
2, 61424, Note_on_c, 0, 69, 0
2, 61440, Note_on_c, 0, 69, 64
2, 61500, Note_on_c, 0, 74, 64
2, 61502, Note_on_c, 0, 69, 0
2, 61556, Note_on_c, 0, 74, 0
2, 61560, Note_on_c, 0, 76, 64
2, 61604, Note_on_c, 0, 76, 0
2, 61620, Note_on_c, 0, 77, 64
2, 61652, Note_on_c, 0, 77, 0
2, 61680, Note_on_c, 0, 77, 64
2, 61740, Note_on_c, 0, 76, 64
2, 61755, Note_on_c, 0, 77, 0
2, 61795, Note_on_c, 0, 76, 0
2, 61800, Note_on_c, 0, 74, 64
2, 61847, Note_on_c, 0, 74, 0
2, 61860, Note_on_c, 0, 72, 64
2, 61909, Note_on_c, 0, 72, 0
2, 61920, Note_on_c, 0, 77, 64
2, 61996, Note_on_c, 0, 77, 0
2, 62040, Note_on_c, 0, 72, 64
2, 62104, Note_on_c, 0, 72, 0
2, 62160, Note_on_c, 0, 70, 64
2, 62219, Note_on_c, 0, 70, 0
2, 62220, Note_on_c, 0, 69, 64
2, 62280, Note_on_c, 0, 67, 64
2, 62283, Note_on_c, 0, 69, 0
2, 62334, Note_on_c, 0, 67, 0
2, 62340, Note_on_c, 0, 65, 64
2, 62364, Note_on_c, 0, 65, 0
2, 62400, Note_on_c, 0, 65, 64
2, 62457, Note_on_c, 0, 65, 0
2, 62460, Note_on_c, 0, 69, 64
2, 62518, Note_on_c, 0, 69, 0
2, 62520, Note_on_c, 0, 67, 64
2, 62580, Note_on_c, 0, 69, 64
2, 62584, Note_on_c, 0, 67, 0
2, 62632, Note_on_c, 0, 69, 0
2, 62700, Note_on_c, 0, 69, 64
2, 62757, Note_on_c, 0, 69, 0
2, 62820, Note_on_c, 0, 69, 64
2, 62873, Note_on_c, 0, 69, 0
2, 62940, Note_on_c, 0, 69, 64
2, 62991, Note_on_c, 0, 69, 0
2, 63060, Note_on_c, 0, 69, 64
2, 63109, Note_on_c, 0, 69, 0
2, 63180, Note_on_c, 0, 69, 64
2, 63228, Note_on_c, 0, 69, 0
2, 63300, Note_on_c, 0, 69, 64
2, 63348, Note_on_c, 0, 69, 0
2, 63420, Note_on_c, 0, 69, 64
2, 63468, Note_on_c, 0, 69, 0
2, 63480, Note_on_c, 0, 74, 64
2, 63540, Note_on_c, 0, 72, 64
2, 63552, Note_on_c, 0, 74, 0
2, 63592, Note_on_c, 0, 72, 0
2, 63600, Note_on_c, 0, 70, 64
2, 63660, Note_on_c, 0, 69, 64
2, 63676, Note_on_c, 0, 70, 0
2, 63720, Note_on_c, 0, 67, 64
2, 63721, Note_on_c, 0, 69, 0
2, 63780, Note_on_c, 0, 65, 64
2, 63783, Note_on_c, 0, 67, 0
2, 63834, Note_on_c, 0, 65, 0
2, 63900, Note_on_c, 0, 67, 64
2, 63959, Note_on_c, 0, 67, 0
2, 64020, Note_on_c, 0, 67, 64
2, 64072, Note_on_c, 0, 67, 0
2, 64140, Note_on_c, 0, 67, 64
2, 64184, Note_on_c, 0, 67, 0
2, 64260, Note_on_c, 0, 67, 64
2, 64315, Note_on_c, 0, 67, 0
2, 64380, Note_on_c, 0, 67, 64
2, 64437, Note_on_c, 0, 67, 0
2, 64440, Note_on_c, 0, 76, 64
2, 64488, Note_on_c, 0, 76, 0
2, 64500, Note_on_c, 0, 67, 64
2, 64543, Note_on_c, 0, 67, 0
2, 64560, Note_on_c, 0, 65, 64
2, 64620, Note_on_c, 0, 64, 64
2, 64635, Note_on_c, 0, 65, 0
2, 64680, Note_on_c, 0, 65, 64
2, 64681, Note_on_c, 0, 64, 0
2, 64734, Note_on_c, 0, 65, 0
2, 64740, Note_on_c, 0, 62, 64
2, 64797, Note_on_c, 0, 62, 0
2, 64800, Note_on_c, 0, 64, 64
2, 64860, Note_on_c, 0, 74, 64
2, 64871, Note_on_c, 0, 64, 0
2, 64920, Note_on_c, 0, 72, 64
2, 64923, Note_on_c, 0, 74, 0
2, 64980, Note_on_c, 0, 63, 64
2, 64984, Note_on_c, 0, 72, 0
2, 65028, Note_on_c, 0, 63, 0
2, 65040, Note_on_c, 0, 62, 64
2, 65100, Note_on_c, 0, 60, 64
2, 65107, Note_on_c, 0, 62, 0
2, 65151, Note_on_c, 0, 60, 0
2, 65160, Note_on_c, 0, 62, 64
2, 65220, Note_on_c, 0, 58, 64
2, 65221, Note_on_c, 0, 62, 0
2, 65267, Note_on_c, 0, 58, 0
2, 65280, Note_on_c, 0, 60, 64
2, 65340, Note_on_c, 0, 70, 64
2, 65351, Note_on_c, 0, 60, 0
2, 65400, Note_on_c, 0, 69, 64
2, 65403, Note_on_c, 0, 70, 0
2, 65459, Note_on_c, 0, 69, 0
2, 65460, Note_on_c, 0, 60, 64
2, 65514, Note_on_c, 0, 60, 0
2, 65520, Note_on_c, 0, 58, 64
2, 65580, Note_on_c, 0, 57, 64
2, 65582, Note_on_c, 0, 58, 0
2, 65640, Note_on_c, 0, 58, 64
2, 65648, Note_on_c, 0, 57, 0
2, 65688, Note_on_c, 0, 58, 0
2, 65700, Note_on_c, 0, 55, 64
2, 65756, Note_on_c, 0, 55, 0
2, 65760, Note_on_c, 0, 57, 64
2, 65820, Note_on_c, 0, 67, 64
2, 65824, Note_on_c, 0, 57, 0
2, 65880, Note_on_c, 0, 65, 64
2, 65896, Note_on_c, 0, 67, 0
2, 65940, Note_on_c, 0, 57, 64
2, 65947, Note_on_c, 0, 65, 0
2, 65994, Note_on_c, 0, 57, 0
2, 66005, Note_on_c, 0, 58, 64
2, 66060, Note_on_c, 0, 69, 64
2, 66064, Note_on_c, 0, 58, 0
2, 66120, Note_on_c, 0, 67, 64
2, 66121, Note_on_c, 0, 69, 0
2, 66180, Note_on_c, 0, 59, 64
2, 66183, Note_on_c, 0, 67, 0
2, 66228, Note_on_c, 0, 59, 0
2, 66240, Note_on_c, 0, 61, 64
2, 66270, Note_on_c, 0, 59, 64
2, 66278, Note_on_c, 0, 61, 0
2, 66298, Note_on_c, 0, 59, 0
2, 66300, Note_on_c, 0, 57, 64
2, 66347, Note_on_c, 0, 57, 0
2, 66360, Note_on_c, 0, 64, 64
2, 66390, Note_on_c, 0, 62, 64
2, 66405, Note_on_c, 0, 64, 0
2, 66420, Note_on_c, 0, 61, 64
2, 66436, Note_on_c, 0, 62, 0
2, 66466, Note_on_c, 0, 61, 0
2, 66480, Note_on_c, 0, 67, 64
2, 66510, Note_on_c, 0, 65, 64
2, 66523, Note_on_c, 0, 67, 0
2, 66537, Note_on_c, 0, 65, 0
2, 66540, Note_on_c, 0, 64, 64
2, 66572, Note_on_c, 0, 64, 0
2, 66600, Note_on_c, 0, 70, 64
2, 66630, Note_on_c, 0, 69, 64
2, 66634, Note_on_c, 0, 70, 0
2, 66660, Note_on_c, 0, 67, 64
2, 66667, Note_on_c, 0, 69, 0
2, 66709, Note_on_c, 0, 67, 0
2, 66720, Note_on_c, 0, 73, 64
2, 66780, Note_on_c, 0, 67, 64
2, 66783, Note_on_c, 0, 73, 0
2, 66821, Note_on_c, 0, 67, 0
2, 66840, Note_on_c, 0, 76, 64
2, 66893, Note_on_c, 0, 76, 0
2, 66900, Note_on_c, 0, 73, 64
2, 66941, Note_on_c, 0, 73, 0
2, 66960, Note_on_c, 0, 70, 64
2, 67017, Note_on_c, 0, 70, 0
2, 67020, Note_on_c, 0, 69, 64
2, 67067, Note_on_c, 0, 69, 0
2, 67080, Note_on_c, 0, 67, 64
2, 67132, Note_on_c, 0, 67, 0
2, 67140, Note_on_c, 0, 65, 64
2, 67179, Note_on_c, 0, 65, 0
2, 67260, Note_on_c, 0, 67, 64
2, 67315, Note_on_c, 0, 67, 0
2, 67320, Note_on_c, 0, 73, 64
2, 67368, Note_on_c, 0, 73, 0
2, 67380, Note_on_c, 0, 67, 64
2, 67420, Note_on_c, 0, 67, 0
2, 67440, Note_on_c, 0, 73, 64
2, 67498, Note_on_c, 0, 73, 0
2, 67500, Note_on_c, 0, 67, 64
2, 67543, Note_on_c, 0, 67, 0
2, 67560, Note_on_c, 0, 76, 64
2, 67604, Note_on_c, 0, 76, 0
2, 67620, Note_on_c, 0, 67, 64
2, 67671, Note_on_c, 0, 67, 0
2, 67740, Note_on_c, 0, 67, 64
2, 67790, Note_on_c, 0, 67, 0
2, 67800, Note_on_c, 0, 73, 64
2, 67843, Note_on_c, 0, 73, 0
2, 67860, Note_on_c, 0, 67, 64
2, 67901, Note_on_c, 0, 67, 0
2, 67920, Note_on_c, 0, 73, 64
2, 67978, Note_on_c, 0, 73, 0
2, 67980, Note_on_c, 0, 67, 64
2, 68021, Note_on_c, 0, 67, 0
2, 68040, Note_on_c, 0, 76, 64
2, 68087, Note_on_c, 0, 76, 0
2, 68100, Note_on_c, 0, 67, 64
2, 68136, Note_on_c, 0, 67, 0
2, 68220, Note_on_c, 0, 65, 64
2, 68273, Note_on_c, 0, 65, 0
2, 68280, Note_on_c, 0, 69, 64
2, 68327, Note_on_c, 0, 69, 0
2, 68340, Note_on_c, 0, 65, 64
2, 68381, Note_on_c, 0, 65, 0
2, 68400, Note_on_c, 0, 69, 64
2, 68459, Note_on_c, 0, 69, 0
2, 68460, Note_on_c, 0, 65, 64
2, 68502, Note_on_c, 0, 65, 0
2, 68520, Note_on_c, 0, 74, 64
2, 68566, Note_on_c, 0, 74, 0
2, 68580, Note_on_c, 0, 65, 64
2, 68621, Note_on_c, 0, 65, 0
2, 68700, Note_on_c, 0, 65, 64
2, 68752, Note_on_c, 0, 65, 0
2, 68760, Note_on_c, 0, 69, 64
2, 68802, Note_on_c, 0, 69, 0
2, 68820, Note_on_c, 0, 65, 64
2, 68859, Note_on_c, 0, 65, 0
2, 68880, Note_on_c, 0, 69, 64
2, 68940, Note_on_c, 0, 65, 64
2, 68941, Note_on_c, 0, 69, 0
2, 68987, Note_on_c, 0, 65, 0
2, 69000, Note_on_c, 0, 74, 64
2, 69051, Note_on_c, 0, 74, 0
2, 69060, Note_on_c, 0, 65, 64
2, 69097, Note_on_c, 0, 65, 0
2, 69180, Note_on_c, 0, 64, 64
2, 69228, Note_on_c, 0, 64, 0
2, 69240, Note_on_c, 0, 73, 64
2, 69288, Note_on_c, 0, 73, 0
2, 69300, Note_on_c, 0, 69, 64
2, 69340, Note_on_c, 0, 69, 0
2, 69360, Note_on_c, 0, 73, 64
2, 69414, Note_on_c, 0, 73, 0
2, 69420, Note_on_c, 0, 69, 64
2, 69468, Note_on_c, 0, 69, 0
2, 69480, Note_on_c, 0, 79, 64
2, 69525, Note_on_c, 0, 79, 0
2, 69540, Note_on_c, 0, 69, 64
2, 69581, Note_on_c, 0, 69, 0
2, 69660, Note_on_c, 0, 69, 64
2, 69718, Note_on_c, 0, 69, 0
2, 69720, Note_on_c, 0, 73, 64
2, 69765, Note_on_c, 0, 73, 0
2, 69780, Note_on_c, 0, 69, 64
2, 69824, Note_on_c, 0, 69, 0
2, 69840, Note_on_c, 0, 73, 64
2, 69897, Note_on_c, 0, 73, 0
2, 69900, Note_on_c, 0, 69, 64
2, 69947, Note_on_c, 0, 69, 0
2, 69960, Note_on_c, 0, 79, 64
2, 70013, Note_on_c, 0, 79, 0
2, 70020, Note_on_c, 0, 69, 64
2, 70062, Note_on_c, 0, 69, 0
2, 70140, Note_on_c, 0, 69, 64
2, 70192, Note_on_c, 0, 69, 0
2, 70200, Note_on_c, 0, 74, 64
2, 70242, Note_on_c, 0, 74, 0
2, 70260, Note_on_c, 0, 69, 64
2, 70301, Note_on_c, 0, 69, 0
2, 70320, Note_on_c, 0, 74, 64
2, 70379, Note_on_c, 0, 74, 0
2, 70380, Note_on_c, 0, 69, 64
2, 70427, Note_on_c, 0, 69, 0
2, 70440, Note_on_c, 0, 77, 64
2, 70486, Note_on_c, 0, 77, 0
2, 70500, Note_on_c, 0, 69, 64
2, 70541, Note_on_c, 0, 69, 0
2, 70620, Note_on_c, 0, 69, 64
2, 70668, Note_on_c, 0, 69, 0
2, 70680, Note_on_c, 0, 74, 64
2, 70727, Note_on_c, 0, 74, 0
2, 70740, Note_on_c, 0, 69, 64
2, 70782, Note_on_c, 0, 69, 0
2, 70800, Note_on_c, 0, 74, 64
2, 70857, Note_on_c, 0, 74, 0
2, 70860, Note_on_c, 0, 69, 64
2, 70908, Note_on_c, 0, 69, 0
2, 70920, Note_on_c, 0, 77, 64
2, 70980, Note_on_c, 0, 69, 64
2, 70982, Note_on_c, 0, 77, 0
2, 71015, Note_on_c, 0, 69, 0
2, 71100, Note_on_c, 0, 68, 64
2, 71158, Note_on_c, 0, 68, 0
2, 71160, Note_on_c, 0, 71, 64
2, 71207, Note_on_c, 0, 71, 0
2, 71220, Note_on_c, 0, 68, 64
2, 71272, Note_on_c, 0, 68, 0
2, 71280, Note_on_c, 0, 71, 64
2, 71340, Note_on_c, 0, 68, 64
2, 71350, Note_on_c, 0, 71, 0
2, 71399, Note_on_c, 0, 68, 0
2, 71400, Note_on_c, 0, 77, 64
2, 71448, Note_on_c, 0, 77, 0
2, 71460, Note_on_c, 0, 68, 64
2, 71504, Note_on_c, 0, 68, 0
2, 71580, Note_on_c, 0, 68, 64
2, 71640, Note_on_c, 0, 71, 64
2, 71642, Note_on_c, 0, 68, 0
2, 71684, Note_on_c, 0, 71, 0
2, 71700, Note_on_c, 0, 68, 64
2, 71754, Note_on_c, 0, 68, 0
2, 71760, Note_on_c, 0, 71, 64
2, 71820, Note_on_c, 0, 68, 64
2, 71829, Note_on_c, 0, 71, 0
2, 71875, Note_on_c, 0, 68, 0
2, 71880, Note_on_c, 0, 77, 64
2, 71940, Note_on_c, 0, 74, 64
2, 71942, Note_on_c, 0, 77, 0
2, 71970, Note_on_c, 0, 74, 0
2, 72000, Note_on_c, 0, 74, 64
2, 72060, Note_on_c, 0, 73, 64
2, 72066, Note_on_c, 0, 74, 0
2, 72115, Note_on_c, 0, 73, 0
2, 72120, Note_on_c, 0, 71, 64
2, 72165, Note_on_c, 0, 71, 0
2, 72180, Note_on_c, 0, 69, 64
2, 72221, Note_on_c, 0, 69, 0
2, 72240, Note_on_c, 0, 81, 64
2, 72295, Note_on_c, 0, 81, 0
2, 72360, Note_on_c, 0, 81, 64
2, 72402, Note_on_c, 0, 81, 0
2, 72480, Note_on_c, 0, 81, 64
2, 72600, Note_on_c, 0, 79, 64
2, 72614, Note_on_c, 0, 81, 0
2, 72656, Note_on_c, 0, 79, 0
2, 72660, Note_on_c, 0, 77, 64
2, 72698, Note_on_c, 0, 77, 0
2, 72720, Note_on_c, 0, 79, 64
2, 72769, Note_on_c, 0, 79, 0
2, 72840, Note_on_c, 0, 79, 64
2, 72880, Note_on_c, 0, 79, 0
2, 72960, Note_on_c, 0, 79, 64
2, 73080, Note_on_c, 0, 77, 64
2, 73086, Note_on_c, 0, 79, 0
2, 73122, Note_on_c, 0, 77, 0
2, 73140, Note_on_c, 0, 76, 64
2, 73177, Note_on_c, 0, 76, 0
2, 73200, Note_on_c, 0, 77, 64
2, 73254, Note_on_c, 0, 77, 0
2, 73320, Note_on_c, 0, 77, 64
2, 73362, Note_on_c, 0, 77, 0
2, 73440, Note_on_c, 0, 77, 64
2, 73500, Note_on_c, 0, 79, 64
2, 73507, Note_on_c, 0, 77, 0
2, 73557, Note_on_c, 0, 79, 0
2, 73560, Note_on_c, 0, 77, 64
2, 73604, Note_on_c, 0, 77, 0
2, 73620, Note_on_c, 0, 76, 64
2, 73648, Note_on_c, 0, 76, 0
2, 73680, Note_on_c, 0, 76, 64
2, 73737, Note_on_c, 0, 76, 0
2, 73740, Note_on_c, 0, 77, 64
2, 73800, Note_on_c, 0, 76, 64
2, 73805, Note_on_c, 0, 77, 0
2, 73860, Note_on_c, 0, 74, 64
2, 73867, Note_on_c, 0, 76, 0
2, 73903, Note_on_c, 0, 74, 0
2, 73920, Note_on_c, 0, 73, 64
2, 73978, Note_on_c, 0, 73, 0
2, 73980, Note_on_c, 0, 76, 64
2, 74016, Note_on_c, 0, 76, 0
2, 74040, Note_on_c, 0, 74, 64
2, 74220, Note_on_c, 0, 72, 64
2, 74227, Note_on_c, 0, 74, 0
2, 74270, Note_on_c, 0, 72, 0
2, 74280, Note_on_c, 0, 71, 64
2, 74328, Note_on_c, 0, 71, 0
2, 74340, Note_on_c, 0, 69, 64
2, 74392, Note_on_c, 0, 69, 0
2, 74400, Note_on_c, 0, 71, 64
2, 74448, Note_on_c, 0, 71, 0
2, 74460, Note_on_c, 0, 79, 64
2, 74510, Note_on_c, 0, 79, 0
2, 74520, Note_on_c, 0, 72, 64
2, 74700, Note_on_c, 0, 70, 64
2, 74706, Note_on_c, 0, 72, 0
2, 74755, Note_on_c, 0, 70, 0
2, 74760, Note_on_c, 0, 69, 64
2, 74809, Note_on_c, 0, 69, 0
2, 74820, Note_on_c, 0, 67, 64
2, 74853, Note_on_c, 0, 67, 0
2, 74880, Note_on_c, 0, 69, 64
2, 74937, Note_on_c, 0, 69, 0
2, 74940, Note_on_c, 0, 65, 64
2, 74985, Note_on_c, 0, 65, 0
2, 75000, Note_on_c, 0, 70, 64
2, 75048, Note_on_c, 0, 70, 0
2, 75060, Note_on_c, 0, 69, 64
2, 75105, Note_on_c, 0, 69, 0
2, 75120, Note_on_c, 0, 70, 64
2, 75180, Note_on_c, 0, 74, 64
2, 75196, Note_on_c, 0, 70, 0
2, 75239, Note_on_c, 0, 74, 0
2, 75240, Note_on_c, 0, 77, 64
2, 75285, Note_on_c, 0, 77, 0
2, 75300, Note_on_c, 0, 69, 64
2, 75343, Note_on_c, 0, 69, 0
2, 75360, Note_on_c, 0, 68, 64
2, 75420, Note_on_c, 0, 71, 64
2, 75443, Note_on_c, 0, 68, 0
2, 75465, Note_on_c, 0, 71, 0
2, 75480, Note_on_c, 0, 76, 64
2, 75528, Note_on_c, 0, 76, 0
2, 75540, Note_on_c, 0, 68, 64
2, 75591, Note_on_c, 0, 68, 0
2, 75600, Note_on_c, 0, 69, 64
2, 75660, Note_on_c, 0, 72, 64
2, 75666, Note_on_c, 0, 69, 0
2, 75709, Note_on_c, 0, 72, 0
2, 75720, Note_on_c, 0, 76, 64
2, 75766, Note_on_c, 0, 76, 0
2, 75780, Note_on_c, 0, 67, 64
2, 75823, Note_on_c, 0, 67, 0
2, 75840, Note_on_c, 0, 66, 64
2, 75893, Note_on_c, 0, 66, 0
2, 75900, Note_on_c, 0, 75, 64
2, 75953, Note_on_c, 0, 75, 0
2, 75960, Note_on_c, 0, 74, 64
2, 76003, Note_on_c, 0, 74, 0
2, 76020, Note_on_c, 0, 72, 64
2, 76064, Note_on_c, 0, 72, 0
2, 76080, Note_on_c, 0, 74, 64
2, 76140, Note_on_c, 0, 69, 64
2, 76141, Note_on_c, 0, 74, 0
2, 76178, Note_on_c, 0, 69, 0
2, 76200, Note_on_c, 0, 70, 64
2, 76244, Note_on_c, 0, 70, 0
2, 76260, Note_on_c, 0, 66, 64
2, 76312, Note_on_c, 0, 66, 0
2, 76320, Note_on_c, 0, 67, 64
2, 76374, Note_on_c, 0, 67, 0
2, 76380, Note_on_c, 0, 75, 64
2, 76426, Note_on_c, 0, 75, 0
2, 76440, Note_on_c, 0, 74, 64
2, 76485, Note_on_c, 0, 74, 0
2, 76500, Note_on_c, 0, 72, 64
2, 76548, Note_on_c, 0, 72, 0
2, 76560, Note_on_c, 0, 74, 64
2, 76620, Note_on_c, 0, 74, 0
2, 76620, Note_on_c, 0, 69, 64
2, 76663, Note_on_c, 0, 69, 0
2, 76680, Note_on_c, 0, 70, 64
2, 76737, Note_on_c, 0, 70, 0
2, 76740, Note_on_c, 0, 67, 64
2, 76800, Note_on_c, 0, 61, 64
2, 76801, Note_on_c, 0, 67, 0
2, 76860, Note_on_c, 0, 64, 64
2, 76864, Note_on_c, 0, 61, 0
2, 76920, Note_on_c, 0, 67, 64
2, 76929, Note_on_c, 0, 64, 0
2, 76969, Note_on_c, 0, 67, 0
2, 76980, Note_on_c, 0, 70, 64
2, 77014, Note_on_c, 0, 70, 0
2, 77040, Note_on_c, 0, 69, 64
2, 77100, Note_on_c, 0, 67, 64
2, 77101, Note_on_c, 0, 69, 0
2, 77142, Note_on_c, 0, 67, 0
2, 77160, Note_on_c, 0, 76, 64
2, 77204, Note_on_c, 0, 76, 0
2, 77220, Note_on_c, 0, 67, 64
2, 77259, Note_on_c, 0, 67, 0
2, 77280, Note_on_c, 0, 69, 64
2, 77340, Note_on_c, 0, 70, 64
2, 77349, Note_on_c, 0, 69, 0
2, 77385, Note_on_c, 0, 70, 0
2, 77400, Note_on_c, 0, 64, 64
2, 77455, Note_on_c, 0, 64, 0
2, 77460, Note_on_c, 0, 65, 64
2, 77499, Note_on_c, 0, 65, 0
2, 77520, Note_on_c, 0, 67, 64
2, 77552, Note_on_c, 0, 67, 0
2, 77580, Note_on_c, 0, 61, 64
2, 77640, Note_on_c, 0, 61, 0
2, 77640, Note_on_c, 0, 62, 64
2, 77697, Note_on_c, 0, 62, 0
2, 77700, Note_on_c, 0, 64, 64
2, 77739, Note_on_c, 0, 64, 0
2, 77760, Note_on_c, 0, 57, 64
2, 77875, Note_on_c, 0, 57, 0
2, 77880, Note_on_c, 0, 69, 64
2, 77920, Note_on_c, 0, 69, 0
2, 78000, Note_on_c, 0, 69, 64
2, 78059, Note_on_c, 0, 69, 0
2, 78120, Note_on_c, 0, 69, 64
2, 78164, Note_on_c, 0, 69, 0
2, 78240, Note_on_c, 0, 69, 64
2, 78360, Note_on_c, 0, 67, 64
2, 78365, Note_on_c, 0, 69, 0
2, 78400, Note_on_c, 0, 67, 0
2, 78420, Note_on_c, 0, 66, 64
2, 78472, Note_on_c, 0, 66, 0
2, 78480, Note_on_c, 0, 67, 64
2, 78579, Note_on_c, 0, 67, 0
2, 78600, Note_on_c, 0, 76, 64
2, 78660, Note_on_c, 0, 73, 64
2, 78661, Note_on_c, 0, 76, 0
2, 78706, Note_on_c, 0, 73, 0
2, 78720, Note_on_c, 0, 67, 64
2, 78770, Note_on_c, 0, 67, 0
2, 78840, Note_on_c, 0, 67, 64
2, 78872, Note_on_c, 0, 67, 0
2, 78900, Note_on_c, 0, 65, 64
2, 78945, Note_on_c, 0, 65, 0
2, 78960, Note_on_c, 0, 67, 64
2, 79051, Note_on_c, 0, 67, 0
2, 79080, Note_on_c, 0, 76, 64
2, 79136, Note_on_c, 0, 76, 0
2, 79140, Note_on_c, 0, 73, 64
2, 79178, Note_on_c, 0, 73, 0
2, 79200, Note_on_c, 0, 65, 64
2, 79251, Note_on_c, 0, 65, 0
2, 79320, Note_on_c, 0, 65, 64
2, 79377, Note_on_c, 0, 65, 0
2, 79380, Note_on_c, 0, 64, 64
2, 79423, Note_on_c, 0, 64, 0
2, 79440, Note_on_c, 0, 65, 64
2, 79479, Note_on_c, 0, 65, 0
2, 79500, Note_on_c, 0, 69, 64
2, 79551, Note_on_c, 0, 69, 0
2, 79560, Note_on_c, 0, 74, 64
2, 79612, Note_on_c, 0, 74, 0
2, 79620, Note_on_c, 0, 76, 64
2, 79659, Note_on_c, 0, 76, 0
2, 79680, Note_on_c, 0, 77, 64
2, 79835, Note_on_c, 0, 77, 0
2, 79860, Note_on_c, 0, 76, 64
2, 79905, Note_on_c, 0, 76, 0
2, 79920, Note_on_c, 0, 74, 64
2, 79980, Note_on_c, 0, 73, 64
2, 79985, Note_on_c, 0, 74, 0
2, 80040, Note_on_c, 0, 74, 64
2, 80045, Note_on_c, 0, 73, 0
2, 80083, Note_on_c, 0, 74, 0
2, 80100, Note_on_c, 0, 76, 64
2, 80137, Note_on_c, 0, 76, 0
2, 80160, Note_on_c, 0, 73, 64
2, 80395, Note_on_c, 0, 73, 0
2, 80400, Note_on_c, 0, 74, 64
2, 80880, Note_on_c, 0, 73, 64
2, 80885, Note_on_c, 0, 74, 0
2, 81120, Note_on_c, 0, 72, 64
2, 81127, Note_on_c, 0, 73, 0
2, 81360, Note_on_c, 0, 71, 64
2, 81366, Note_on_c, 0, 72, 0
2, 81600, Note_on_c, 0, 70, 64
2, 81622, Note_on_c, 0, 71, 0
2, 81840, Note_on_c, 0, 70, 0
2, 81840, Note_on_c, 0, 69, 64
2, 81926, Note_on_c, 0, 69, 0
2, 81960, Note_on_c, 0, 77, 64
2, 82050, Note_on_c, 0, 77, 0
2, 82080, Note_on_c, 0, 74, 64
2, 82200, Note_on_c, 0, 75, 64
2, 82204, Note_on_c, 0, 74, 0
2, 82258, Note_on_c, 0, 75, 0
2, 82260, Note_on_c, 0, 74, 64
2, 82294, Note_on_c, 0, 74, 0
2, 82320, Note_on_c, 0, 75, 64
2, 82361, Note_on_c, 0, 75, 0
2, 82380, Note_on_c, 0, 73, 64
2, 82420, Note_on_c, 0, 73, 0
2, 82440, Note_on_c, 0, 74, 64
2, 82560, Note_on_c, 0, 73, 64
2, 82574, Note_on_c, 0, 74, 0
2, 82684, Note_on_c, 0, 73, 0
2, 82920, Note_on_c, 0, 73, 64
2, 82983, Note_on_c, 0, 73, 0
2, 83040, Note_on_c, 0, 74, 64
2, 83160, Note_on_c, 0, 76, 64
2, 83171, Note_on_c, 0, 74, 0
2, 83274, Note_on_c, 0, 76, 0
2, 83280, Note_on_c, 0, 77, 64
2, 83400, Note_on_c, 0, 73, 64
2, 83421, Note_on_c, 0, 77, 0
2, 83454, Note_on_c, 0, 73, 0
2, 83520, Note_on_c, 0, 73, 64
2, 83640, Note_on_c, 0, 74, 64
2, 83642, Note_on_c, 0, 73, 0
2, 83696, Note_on_c, 0, 74, 0
2, 83760, Note_on_c, 0, 74, 64
2, 83812, Note_on_c, 0, 74, 0
2, 83880, Note_on_c, 0, 74, 64
2, 83923, Note_on_c, 0, 74, 0
2, 84000, Note_on_c, 0, 74, 64
2, 84180, Note_on_c, 0, 76, 64
2, 84182, Note_on_c, 0, 74, 0
2, 84229, Note_on_c, 0, 76, 0
2, 84240, Note_on_c, 0, 73, 64
2, 84412, Note_on_c, 0, 73, 0
2, 84420, Note_on_c, 0, 74, 64
2, 84451, Note_on_c, 0, 74, 0
2, 84480, Note_on_c, 0, 74, 64
2, 84540, Note_on_c, 0, 62, 64
2, 84566, Note_on_c, 0, 74, 0
2, 84584, Note_on_c, 0, 62, 0
2, 84600, Note_on_c, 0, 65, 64
2, 84660, Note_on_c, 0, 69, 64
2, 84665, Note_on_c, 0, 65, 0
2, 84703, Note_on_c, 0, 69, 0
2, 84720, Note_on_c, 0, 74, 64
2, 84780, Note_on_c, 0, 69, 64
2, 84787, Note_on_c, 0, 74, 0
2, 84836, Note_on_c, 0, 69, 0
2, 84840, Note_on_c, 0, 65, 64
2, 84896, Note_on_c, 0, 65, 0
2, 84900, Note_on_c, 0, 62, 64
2, 84941, Note_on_c, 0, 62, 0
2, 84960, Note_on_c, 0, 64, 64
2, 85020, Note_on_c, 0, 74, 64
2, 85025, Note_on_c, 0, 64, 0
2, 85078, Note_on_c, 0, 74, 0
2, 85080, Note_on_c, 0, 72, 64
2, 85124, Note_on_c, 0, 72, 0
2, 85140, Note_on_c, 0, 70, 64
2, 85187, Note_on_c, 0, 70, 0
2, 85200, Note_on_c, 0, 72, 64
2, 85260, Note_on_c, 0, 69, 64
2, 85267, Note_on_c, 0, 72, 0
2, 85320, Note_on_c, 0, 69, 0
2, 85320, Note_on_c, 0, 66, 64
2, 85368, Note_on_c, 0, 66, 0
2, 85380, Note_on_c, 0, 62, 64
2, 85431, Note_on_c, 0, 62, 0
2, 85500, Note_on_c, 0, 62, 64
2, 85553, Note_on_c, 0, 62, 0
2, 85560, Note_on_c, 0, 67, 64
2, 85603, Note_on_c, 0, 67, 0
2, 85620, Note_on_c, 0, 69, 64
2, 85656, Note_on_c, 0, 69, 0
2, 85680, Note_on_c, 0, 70, 64
2, 85740, Note_on_c, 0, 67, 64
2, 85776, Note_on_c, 0, 70, 0
2, 85785, Note_on_c, 0, 67, 0
2, 85800, Note_on_c, 0, 63, 64
2, 85847, Note_on_c, 0, 63, 0
2, 85860, Note_on_c, 0, 62, 64
2, 85902, Note_on_c, 0, 62, 0
2, 85920, Note_on_c, 0, 61, 64
2, 85980, Note_on_c, 0, 70, 64
2, 85986, Note_on_c, 0, 61, 0
2, 86032, Note_on_c, 0, 70, 0
2, 86040, Note_on_c, 0, 69, 64
2, 86084, Note_on_c, 0, 69, 0
2, 86100, Note_on_c, 0, 67, 64
2, 86146, Note_on_c, 0, 67, 0
2, 86160, Note_on_c, 0, 69, 64
2, 86220, Note_on_c, 0, 65, 64
2, 86228, Note_on_c, 0, 69, 0
2, 86270, Note_on_c, 0, 65, 0
2, 86280, Note_on_c, 0, 62, 64
2, 86340, Note_on_c, 0, 60, 64
2, 86342, Note_on_c, 0, 62, 0
2, 86386, Note_on_c, 0, 60, 0
2, 86460, Note_on_c, 0, 58, 64
2, 86520, Note_on_c, 0, 62, 64
2, 86540, Note_on_c, 0, 58, 0
2, 86580, Note_on_c, 0, 66, 64
2, 86589, Note_on_c, 0, 62, 0
2, 86609, Note_on_c, 0, 66, 0
2, 86640, Note_on_c, 0, 67, 64
2, 86700, Note_on_c, 0, 70, 64
2, 86711, Note_on_c, 0, 67, 0
2, 86749, Note_on_c, 0, 70, 0
2, 86760, Note_on_c, 0, 63, 64
2, 86814, Note_on_c, 0, 63, 0
2, 86820, Note_on_c, 0, 62, 64
2, 86873, Note_on_c, 0, 62, 0
2, 86880, Note_on_c, 0, 52, 64
2, 86940, Note_on_c, 0, 55, 64
2, 86944, Note_on_c, 0, 52, 0
2, 86999, Note_on_c, 0, 55, 0
2, 87000, Note_on_c, 0, 60, 64
2, 87059, Note_on_c, 0, 60, 0
2, 87060, Note_on_c, 0, 64, 64
2, 87109, Note_on_c, 0, 64, 0
2, 87125, Note_on_c, 0, 67, 64
2, 87185, Note_on_c, 0, 70, 64
2, 87192, Note_on_c, 0, 67, 0
2, 87240, Note_on_c, 0, 73, 64
2, 87252, Note_on_c, 0, 70, 0
2, 87294, Note_on_c, 0, 73, 0
2, 87300, Note_on_c, 0, 76, 64
2, 87349, Note_on_c, 0, 76, 0
2, 87840, Note_on_c, 0, 55, 64
2, 87897, Note_on_c, 0, 55, 0
2, 87900, Note_on_c, 0, 58, 64
2, 87955, Note_on_c, 0, 58, 0
2, 87960, Note_on_c, 0, 62, 64
2, 88009, Note_on_c, 0, 62, 0
2, 88020, Note_on_c, 0, 67, 64
2, 88069, Note_on_c, 0, 67, 0
2, 88080, Note_on_c, 0, 70, 64
2, 88129, Note_on_c, 0, 70, 0
2, 88140, Note_on_c, 0, 74, 64
2, 88189, Note_on_c, 0, 74, 0
2, 88200, Note_on_c, 0, 76, 64
2, 88249, Note_on_c, 0, 76, 0
2, 88260, Note_on_c, 0, 79, 64
2, 88309, Note_on_c, 0, 79, 0
2, 91080, Note_on_c, 0, 74, 64
2, 91154, Note_on_c, 0, 74, 0
2, 91200, Note_on_c, 0, 74, 64
2, 91274, Note_on_c, 0, 74, 0
2, 91290, Note_on_c, 0, 76, 64
2, 91319, Note_on_c, 0, 76, 0
2, 91320, Note_on_c, 0, 74, 64
2, 91349, Note_on_c, 0, 74, 0
2, 91350, Note_on_c, 0, 73, 64
2, 91379, Note_on_c, 0, 73, 0
2, 91380, Note_on_c, 0, 74, 64
2, 91395, Note_on_c, 0, 71, 64
2, 91409, Note_on_c, 0, 74, 0
2, 91410, Note_on_c, 0, 73, 64
2, 91424, Note_on_c, 0, 71, 0
2, 91429, Note_on_c, 0, 73, 0
2, 91440, Note_on_c, 0, 73, 64
2, 91619, Note_on_c, 0, 73, 0
2, 91620, Note_on_c, 0, 74, 64
2, 91659, Note_on_c, 0, 74, 0
2, 91680, Note_on_c, 0, 74, 64
2, 92160, Note_on_c, 0, 74, 0
2, 92160, End_track
3, 0, Start_track
3, 0, MIDI_port, 0
3, 0, Title_t, "soprano 2"
3, 0, Program_c, 1, 19
3, 0, Control_c, 1, 7, 127
3, 0, Control_c, 1, 10, 64
3, 9000, Note_on_c, 1, 57, 64
3, 9099, Note_on_c, 1, 57, 0
3, 9120, Note_on_c, 1, 55, 64
3, 9218, Note_on_c, 1, 55, 0
3, 9480, Note_on_c, 1, 58, 64
3, 9595, Note_on_c, 1, 58, 0
3, 9600, Note_on_c, 1, 57, 64
3, 9704, Note_on_c, 1, 57, 0
3, 9960, Note_on_c, 1, 57, 64
3, 10019, Note_on_c, 1, 57, 0
3, 10080, Note_on_c, 1, 57, 64
3, 10187, Note_on_c, 1, 57, 0
3, 10260, Note_on_c, 1, 64, 64
3, 10289, Note_on_c, 1, 64, 0
3, 10320, Note_on_c, 1, 65, 64
3, 10488, Note_on_c, 1, 65, 0
3, 10500, Note_on_c, 1, 67, 64
3, 10530, Note_on_c, 1, 67, 0
3, 10560, Note_on_c, 1, 69, 64
3, 10773, Note_on_c, 1, 69, 0
3, 10920, Note_on_c, 1, 74, 64
3, 10980, Note_on_c, 1, 74, 0
3, 11040, Note_on_c, 1, 74, 64
3, 11207, Note_on_c, 1, 74, 0
3, 11400, Note_on_c, 1, 72, 64
3, 11462, Note_on_c, 1, 72, 0
3, 11520, Note_on_c, 1, 72, 64
3, 11746, Note_on_c, 1, 72, 0
3, 27960, Note_on_c, 1, 71, 64
3, 28012, Note_on_c, 1, 71, 0
3, 28080, Note_on_c, 1, 71, 64
3, 28133, Note_on_c, 1, 71, 0
3, 28200, Note_on_c, 1, 71, 64
3, 28241, Note_on_c, 1, 71, 0
3, 28320, Note_on_c, 1, 69, 64
3, 28492, Note_on_c, 1, 69, 0
3, 28500, Note_on_c, 1, 74, 64
3, 28557, Note_on_c, 1, 74, 0
3, 28560, Note_on_c, 1, 72, 64
3, 28615, Note_on_c, 1, 72, 0
3, 28620, Note_on_c, 1, 71, 64
3, 28675, Note_on_c, 1, 71, 0
3, 28680, Note_on_c, 1, 69, 64
3, 28738, Note_on_c, 1, 69, 0
3, 28740, Note_on_c, 1, 68, 64
3, 28792, Note_on_c, 1, 68, 0
3, 28800, Note_on_c, 1, 69, 64
3, 28937, Note_on_c, 1, 69, 0
3, 29160, Note_on_c, 1, 69, 64
3, 29265, Note_on_c, 1, 69, 0
3, 29280, Note_on_c, 1, 68, 64
3, 29414, Note_on_c, 1, 68, 0
3, 29640, Note_on_c, 1, 69, 64
3, 29701, Note_on_c, 1, 69, 0
3, 29760, Note_on_c, 1, 69, 64
3, 29904, Note_on_c, 1, 69, 0
3, 30000, Note_on_c, 1, 69, 64
3, 30112, Note_on_c, 1, 69, 0
3, 30240, Note_on_c, 1, 69, 64
3, 30376, Note_on_c, 1, 69, 0
3, 30480, Note_on_c, 1, 68, 64
3, 30586, Note_on_c, 1, 68, 0
3, 30720, Note_on_c, 1, 67, 64
3, 30838, Note_on_c, 1, 67, 0
3, 30960, Note_on_c, 1, 65, 64
3, 31076, Note_on_c, 1, 65, 0
3, 31200, Note_on_c, 1, 65, 64
3, 31316, Note_on_c, 1, 65, 0
3, 31440, Note_on_c, 1, 64, 64
3, 31568, Note_on_c, 1, 64, 0
3, 31680, Note_on_c, 1, 64, 64
3, 31795, Note_on_c, 1, 64, 0
3, 31920, Note_on_c, 1, 62, 64
3, 32039, Note_on_c, 1, 62, 0
3, 32160, Note_on_c, 1, 62, 64
3, 32291, Note_on_c, 1, 62, 0
3, 32520, Note_on_c, 1, 68, 64
3, 32610, Note_on_c, 1, 68, 0
3, 32640, Note_on_c, 1, 69, 64
3, 32774, Note_on_c, 1, 69, 0
3, 38760, Note_on_c, 1, 65, 64
3, 38875, Note_on_c, 1, 65, 0
3, 38880, Note_on_c, 1, 69, 64
3, 39003, Note_on_c, 1, 69, 0
3, 45120, Note_on_c, 1, 60, 64
3, 45360, Note_on_c, 1, 58, 64
3, 45377, Note_on_c, 1, 60, 0
3, 45600, Note_on_c, 1, 56, 64
3, 45611, Note_on_c, 1, 58, 0
3, 45840, Note_on_c, 1, 55, 64
3, 45847, Note_on_c, 1, 56, 0
3, 46077, Note_on_c, 1, 55, 0
3, 56760, Note_on_c, 1, 72, 64
3, 56816, Note_on_c, 1, 72, 0
3, 56880, Note_on_c, 1, 72, 64
3, 56941, Note_on_c, 1, 72, 0
3, 57000, Note_on_c, 1, 72, 64
3, 57104, Note_on_c, 1, 72, 0
3, 57120, Note_on_c, 1, 71, 64
3, 57240, Note_on_c, 1, 72, 64
3, 57247, Note_on_c, 1, 71, 0
3, 57326, Note_on_c, 1, 72, 0
3, 57720, Note_on_c, 1, 74, 64
3, 57782, Note_on_c, 1, 74, 0
3, 57840, Note_on_c, 1, 74, 64
3, 57888, Note_on_c, 1, 74, 0
3, 57960, Note_on_c, 1, 74, 64
3, 58073, Note_on_c, 1, 74, 0
3, 58080, Note_on_c, 1, 73, 64
3, 58200, Note_on_c, 1, 74, 64
3, 58209, Note_on_c, 1, 73, 0
3, 58294, Note_on_c, 1, 74, 0
3, 79680, Note_on_c, 1, 74, 64
3, 79794, Note_on_c, 1, 74, 0
3, 82560, Note_on_c, 1, 64, 64
3, 82695, Note_on_c, 1, 64, 0
3, 82920, Note_on_c, 1, 57, 64
3, 82980, Note_on_c, 1, 57, 0
3, 83040, Note_on_c, 1, 57, 64
3, 83166, Note_on_c, 1, 57, 0
3, 90240, Note_on_c, 1, 67, 64
3, 90509, Note_on_c, 1, 67, 0
3, 91080, Note_on_c, 1, 65, 64
3, 91187, Note_on_c, 1, 65, 0
3, 91200, Note_on_c, 1, 64, 64
3, 91675, Note_on_c, 1, 64, 0
3, 91680, Note_on_c, 1, 62, 64
3, 92160, Note_on_c, 1, 62, 0
3, 92160, End_track
4, 0, Start_track
4, 0, MIDI_port, 0
4, 0, Title_t, "alto"
4, 0, Program_c, 2, 19
4, 0, Control_c, 2, 7, 127
4, 0, Control_c, 2, 10, 64
4, 2040, Note_on_c, 2, 74, 64
4, 2100, Note_on_c, 2, 74, 0
4, 2160, Note_on_c, 2, 74, 64
4, 2201, Note_on_c, 2, 74, 0
4, 2280, Note_on_c, 2, 74, 64
4, 2320, Note_on_c, 2, 74, 0
4, 2400, Note_on_c, 2, 74, 64
4, 2520, Note_on_c, 2, 72, 64
4, 2528, Note_on_c, 2, 74, 0
4, 2556, Note_on_c, 2, 72, 0
4, 2580, Note_on_c, 2, 70, 64
4, 2627, Note_on_c, 2, 70, 0
4, 2640, Note_on_c, 2, 72, 64
4, 2747, Note_on_c, 2, 72, 0
4, 2760, Note_on_c, 2, 69, 64
4, 2853, Note_on_c, 2, 69, 0
4, 2880, Note_on_c, 2, 70, 64
4, 3360, Note_on_c, 2, 69, 64
4, 3370, Note_on_c, 2, 70, 0
4, 3445, Note_on_c, 2, 69, 0
4, 3600, Note_on_c, 2, 69, 64
4, 3658, Note_on_c, 2, 69, 0
4, 3840, Note_on_c, 2, 70, 64
4, 3912, Note_on_c, 2, 70, 0
4, 4080, Note_on_c, 2, 69, 64
4, 4139, Note_on_c, 2, 69, 0
4, 4320, Note_on_c, 2, 76, 64
4, 4440, Note_on_c, 2, 74, 64
4, 4454, Note_on_c, 2, 76, 0
4, 4493, Note_on_c, 2, 74, 0
4, 4500, Note_on_c, 2, 73, 64
4, 4528, Note_on_c, 2, 73, 0
4, 4560, Note_on_c, 2, 74, 64
4, 4677, Note_on_c, 2, 74, 0
4, 4800, Note_on_c, 2, 74, 64
4, 4893, Note_on_c, 2, 74, 0
4, 5040, Note_on_c, 2, 73, 64
4, 5125, Note_on_c, 2, 73, 0
4, 5280, Note_on_c, 2, 76, 64
4, 5400, Note_on_c, 2, 74, 64
4, 5410, Note_on_c, 2, 76, 0
4, 5448, Note_on_c, 2, 74, 0
4, 5460, Note_on_c, 2, 73, 64
4, 5505, Note_on_c, 2, 73, 0
4, 5520, Note_on_c, 2, 74, 64
4, 5592, Note_on_c, 2, 74, 0
4, 5640, Note_on_c, 2, 69, 64
4, 5700, Note_on_c, 2, 69, 0
4, 5760, Note_on_c, 2, 70, 64
4, 5851, Note_on_c, 2, 70, 0
4, 6000, Note_on_c, 2, 67, 64
4, 6081, Note_on_c, 2, 67, 0
4, 6240, Note_on_c, 2, 67, 64
4, 6278, Note_on_c, 2, 67, 0
4, 6300, Note_on_c, 2, 70, 64
4, 6355, Note_on_c, 2, 70, 0
4, 6360, Note_on_c, 2, 69, 64
4, 6411, Note_on_c, 2, 69, 0
4, 6420, Note_on_c, 2, 67, 64
4, 6470, Note_on_c, 2, 67, 0
4, 6480, Note_on_c, 2, 65, 64
4, 6588, Note_on_c, 2, 65, 0
4, 6600, Note_on_c, 2, 64, 64
4, 6645, Note_on_c, 2, 64, 0
4, 6660, Note_on_c, 2, 62, 64
4, 6707, Note_on_c, 2, 62, 0
4, 7260, Note_on_c, 2, 69, 64
4, 7307, Note_on_c, 2, 69, 0
4, 7320, Note_on_c, 2, 72, 64
4, 7365, Note_on_c, 2, 72, 0
4, 7380, Note_on_c, 2, 75, 64
4, 7419, Note_on_c, 2, 75, 0
4, 7440, Note_on_c, 2, 74, 64
4, 7500, Note_on_c, 2, 72, 64
4, 7502, Note_on_c, 2, 74, 0
4, 7560, Note_on_c, 2, 70, 64
4, 7563, Note_on_c, 2, 72, 0
4, 7604, Note_on_c, 2, 70, 0
4, 7620, Note_on_c, 2, 69, 64
4, 7671, Note_on_c, 2, 69, 0
4, 7680, Note_on_c, 2, 70, 64
4, 7740, Note_on_c, 2, 62, 64
4, 7763, Note_on_c, 2, 70, 0
4, 7792, Note_on_c, 2, 62, 0
4, 7800, Note_on_c, 2, 67, 64
4, 7840, Note_on_c, 2, 67, 0
4, 7860, Note_on_c, 2, 69, 64
4, 7902, Note_on_c, 2, 69, 0
4, 7920, Note_on_c, 2, 70, 64
4, 7980, Note_on_c, 2, 74, 64
4, 7985, Note_on_c, 2, 70, 0
4, 8030, Note_on_c, 2, 74, 0
4, 8040, Note_on_c, 2, 67, 64
4, 8088, Note_on_c, 2, 67, 0
4, 8100, Note_on_c, 2, 65, 64
4, 8141, Note_on_c, 2, 65, 0
4, 8160, Note_on_c, 2, 64, 64
4, 8234, Note_on_c, 2, 64, 0
4, 8400, Note_on_c, 2, 64, 64
4, 8474, Note_on_c, 2, 64, 0
4, 8640, Note_on_c, 2, 60, 64
4, 8640, Note_on_c, 2, 60, 64
4, 8728, Note_on_c, 2, 60, 0
4, 8730, Note_on_c, 2, 60, 0
4, 9180, Note_on_c, 2, 62, 64
4, 9240, Note_on_c, 2, 65, 64
4, 9244, Note_on_c, 2, 62, 0
4, 9281, Note_on_c, 2, 65, 0
4, 9300, Note_on_c, 2, 69, 64
4, 9338, Note_on_c, 2, 69, 0
4, 9360, Note_on_c, 2, 67, 64
4, 9420, Note_on_c, 2, 64, 64
4, 9421, Note_on_c, 2, 67, 0
4, 9480, Note_on_c, 2, 65, 64
4, 9482, Note_on_c, 2, 64, 0
4, 9532, Note_on_c, 2, 65, 0
4, 9540, Note_on_c, 2, 62, 64
4, 9600, Note_on_c, 2, 61, 64
4, 9602, Note_on_c, 2, 62, 0
4, 9660, Note_on_c, 2, 64, 64
4, 9661, Note_on_c, 2, 61, 0
4, 9720, Note_on_c, 2, 67, 64
4, 9721, Note_on_c, 2, 64, 0
4, 9764, Note_on_c, 2, 67, 0
4, 9780, Note_on_c, 2, 70, 64
4, 9833, Note_on_c, 2, 70, 0
4, 9840, Note_on_c, 2, 69, 64
4, 9890, Note_on_c, 2, 69, 0
4, 9900, Note_on_c, 2, 67, 64
4, 9945, Note_on_c, 2, 67, 0
4, 9960, Note_on_c, 2, 65, 64
4, 10018, Note_on_c, 2, 65, 0
4, 10020, Note_on_c, 2, 64, 64
4, 10070, Note_on_c, 2, 64, 0
4, 10080, Note_on_c, 2, 65, 64
4, 10134, Note_on_c, 2, 65, 0
4, 10140, Note_on_c, 2, 62, 64
4, 10190, Note_on_c, 2, 62, 0
4, 10200, Note_on_c, 2, 69, 64
4, 10330, Note_on_c, 2, 69, 0
4, 10380, Note_on_c, 2, 69, 64
4, 10425, Note_on_c, 2, 69, 0
4, 10440, Note_on_c, 2, 74, 64
4, 10560, Note_on_c, 2, 73, 64
4, 10576, Note_on_c, 2, 74, 0
4, 10606, Note_on_c, 2, 73, 0
4, 10620, Note_on_c, 2, 71, 64
4, 10668, Note_on_c, 2, 71, 0
4, 10680, Note_on_c, 2, 73, 64
4, 10719, Note_on_c, 2, 73, 0
4, 10740, Note_on_c, 2, 76, 64
4, 10778, Note_on_c, 2, 76, 0
4, 10800, Note_on_c, 2, 77, 64
4, 10851, Note_on_c, 2, 77, 0
4, 10920, Note_on_c, 2, 77, 64
4, 10970, Note_on_c, 2, 77, 0
4, 11040, Note_on_c, 2, 77, 64
4, 11160, Note_on_c, 2, 76, 64
4, 11171, Note_on_c, 2, 77, 0
4, 11204, Note_on_c, 2, 76, 0
4, 11220, Note_on_c, 2, 74, 64
4, 11253, Note_on_c, 2, 74, 0
4, 11280, Note_on_c, 2, 76, 64
4, 11331, Note_on_c, 2, 76, 0
4, 11400, Note_on_c, 2, 76, 64
4, 11458, Note_on_c, 2, 76, 0
4, 11520, Note_on_c, 2, 75, 64
4, 11578, Note_on_c, 2, 75, 0
4, 11580, Note_on_c, 2, 74, 64
4, 11623, Note_on_c, 2, 74, 0
4, 11640, Note_on_c, 2, 75, 64
4, 11686, Note_on_c, 2, 75, 0
4, 11700, Note_on_c, 2, 73, 64
4, 11739, Note_on_c, 2, 73, 0
4, 11760, Note_on_c, 2, 74, 64
4, 11875, Note_on_c, 2, 74, 0
4, 11880, Note_on_c, 2, 72, 64
4, 11973, Note_on_c, 2, 72, 0
4, 12000, Note_on_c, 2, 70, 64
4, 12060, Note_on_c, 2, 70, 0
4, 12060, Note_on_c, 2, 69, 64
4, 12087, Note_on_c, 2, 69, 0
4, 12120, Note_on_c, 2, 69, 64
4, 12177, Note_on_c, 2, 69, 0
4, 12180, Note_on_c, 2, 67, 64
4, 12208, Note_on_c, 2, 67, 0
4, 12240, Note_on_c, 2, 67, 64
4, 12300, Note_on_c, 2, 65, 64
4, 12301, Note_on_c, 2, 67, 0
4, 12325, Note_on_c, 2, 65, 0
4, 12360, Note_on_c, 2, 65, 64
4, 12420, Note_on_c, 2, 63, 64
4, 12422, Note_on_c, 2, 65, 0
4, 12443, Note_on_c, 2, 63, 0
4, 12480, Note_on_c, 2, 63, 64
4, 12480, Note_on_c, 2, 63, 64
4, 12540, Note_on_c, 2, 61, 64
4, 12543, Note_on_c, 2, 63, 0
4, 12547, Note_on_c, 2, 63, 0
4, 12565, Note_on_c, 2, 61, 0
4, 12600, Note_on_c, 2, 61, 64
4, 12660, Note_on_c, 2, 62, 64
4, 12668, Note_on_c, 2, 61, 0
4, 12687, Note_on_c, 2, 62, 0
4, 12720, Note_on_c, 2, 62, 64
4, 12780, Note_on_c, 2, 57, 64
4, 12789, Note_on_c, 2, 62, 0
4, 12825, Note_on_c, 2, 57, 0
4, 12840, Note_on_c, 2, 55, 64
4, 12895, Note_on_c, 2, 55, 0
4, 12900, Note_on_c, 2, 53, 64
4, 12960, Note_on_c, 2, 52, 64
4, 12964, Note_on_c, 2, 53, 0
4, 13070, Note_on_c, 2, 52, 0
4, 13080, Note_on_c, 2, 53, 64
4, 13200, Note_on_c, 2, 55, 64
4, 13201, Note_on_c, 2, 53, 0
4, 13440, Note_on_c, 2, 53, 64
4, 13459, Note_on_c, 2, 55, 0
4, 13542, Note_on_c, 2, 53, 0
4, 14520, Note_on_c, 2, 74, 64
4, 14571, Note_on_c, 2, 74, 0
4, 14640, Note_on_c, 2, 74, 64
4, 14697, Note_on_c, 2, 74, 0
4, 14760, Note_on_c, 2, 74, 64
4, 14805, Note_on_c, 2, 74, 0
4, 14880, Note_on_c, 2, 74, 64
4, 15000, Note_on_c, 2, 72, 64
4, 15025, Note_on_c, 2, 74, 0
4, 15048, Note_on_c, 2, 72, 0
4, 15060, Note_on_c, 2, 70, 64
4, 15083, Note_on_c, 2, 70, 0
4, 15120, Note_on_c, 2, 72, 64
4, 15214, Note_on_c, 2, 72, 0
4, 15240, Note_on_c, 2, 69, 64
4, 15348, Note_on_c, 2, 69, 0
4, 15360, Note_on_c, 2, 70, 64
4, 15426, Note_on_c, 2, 70, 0
4, 15480, Note_on_c, 2, 70, 64
4, 15533, Note_on_c, 2, 70, 0
4, 15540, Note_on_c, 2, 69, 64
4, 15586, Note_on_c, 2, 69, 0
4, 15600, Note_on_c, 2, 70, 64
4, 15715, Note_on_c, 2, 70, 0
4, 15720, Note_on_c, 2, 67, 64
4, 15831, Note_on_c, 2, 67, 0
4, 15840, Note_on_c, 2, 69, 64
4, 15939, Note_on_c, 2, 69, 0
4, 16080, Note_on_c, 2, 74, 64
4, 16163, Note_on_c, 2, 74, 0
4, 16320, Note_on_c, 2, 74, 64
4, 16427, Note_on_c, 2, 74, 0
4, 16440, Note_on_c, 2, 72, 64
4, 16483, Note_on_c, 2, 72, 0
4, 16560, Note_on_c, 2, 72, 64
4, 16613, Note_on_c, 2, 72, 0
4, 16680, Note_on_c, 2, 72, 64
4, 16726, Note_on_c, 2, 72, 0
4, 16800, Note_on_c, 2, 72, 64
4, 16915, Note_on_c, 2, 72, 0
4, 16920, Note_on_c, 2, 70, 64
4, 16977, Note_on_c, 2, 70, 0
4, 16980, Note_on_c, 2, 69, 64
4, 17024, Note_on_c, 2, 69, 0
4, 17040, Note_on_c, 2, 70, 64
4, 17149, Note_on_c, 2, 70, 0
4, 17160, Note_on_c, 2, 67, 64
4, 17280, Note_on_c, 2, 69, 64
4, 17281, Note_on_c, 2, 67, 0
4, 17331, Note_on_c, 2, 69, 0
4, 17400, Note_on_c, 2, 69, 64
4, 17450, Note_on_c, 2, 69, 0
4, 17460, Note_on_c, 2, 67, 64
4, 17512, Note_on_c, 2, 67, 0
4, 17520, Note_on_c, 2, 69, 64
4, 17640, Note_on_c, 2, 70, 64
4, 17645, Note_on_c, 2, 69, 0
4, 17695, Note_on_c, 2, 70, 0
4, 17700, Note_on_c, 2, 69, 64
4, 17748, Note_on_c, 2, 69, 0
4, 17760, Note_on_c, 2, 67, 64
4, 17834, Note_on_c, 2, 67, 0
4, 18000, Note_on_c, 2, 72, 64
4, 18095, Note_on_c, 2, 72, 0
4, 18240, Note_on_c, 2, 72, 64
4, 18354, Note_on_c, 2, 72, 0
4, 18360, Note_on_c, 2, 70, 64
4, 18406, Note_on_c, 2, 70, 0
4, 18420, Note_on_c, 2, 69, 64
4, 18453, Note_on_c, 2, 69, 0
4, 18480, Note_on_c, 2, 70, 64
4, 18597, Note_on_c, 2, 70, 0
4, 18600, Note_on_c, 2, 72, 64
4, 18656, Note_on_c, 2, 72, 0
4, 18660, Note_on_c, 2, 70, 64
4, 18701, Note_on_c, 2, 70, 0
4, 18720, Note_on_c, 2, 69, 64
4, 18832, Note_on_c, 2, 69, 0
4, 18960, Note_on_c, 2, 74, 64
4, 19320, Note_on_c, 2, 72, 64
4, 19328, Note_on_c, 2, 74, 0
4, 19369, Note_on_c, 2, 72, 0
4, 19380, Note_on_c, 2, 71, 64
4, 19426, Note_on_c, 2, 71, 0
4, 19440, Note_on_c, 2, 72, 64
4, 19560, Note_on_c, 2, 72, 0
4, 19560, Note_on_c, 2, 74, 64
4, 19617, Note_on_c, 2, 74, 0
4, 19620, Note_on_c, 2, 72, 64
4, 19668, Note_on_c, 2, 72, 0
4, 19680, Note_on_c, 2, 71, 64
4, 19778, Note_on_c, 2, 71, 0
4, 19920, Note_on_c, 2, 71, 64
4, 20005, Note_on_c, 2, 71, 0
4, 20160, Note_on_c, 2, 69, 64
4, 20272, Note_on_c, 2, 69, 0
4, 20400, Note_on_c, 2, 68, 64
4, 20509, Note_on_c, 2, 68, 0
4, 20700, Note_on_c, 2, 69, 64
4, 20769, Note_on_c, 2, 69, 0
4, 20820, Note_on_c, 2, 69, 64
4, 20875, Note_on_c, 2, 69, 0
4, 20940, Note_on_c, 2, 69, 64
4, 21006, Note_on_c, 2, 69, 0
4, 21060, Note_on_c, 2, 69, 64
4, 21115, Note_on_c, 2, 69, 0
4, 21180, Note_on_c, 2, 69, 64
4, 21242, Note_on_c, 2, 69, 0
4, 21300, Note_on_c, 2, 69, 64
4, 21357, Note_on_c, 2, 69, 0
4, 21420, Note_on_c, 2, 69, 64
4, 21477, Note_on_c, 2, 69, 0
4, 21480, Note_on_c, 2, 68, 64
4, 21530, Note_on_c, 2, 68, 0
4, 21540, Note_on_c, 2, 66, 64
4, 21574, Note_on_c, 2, 66, 0
4, 21600, Note_on_c, 2, 68, 64
4, 21726, Note_on_c, 2, 68, 0
4, 21900, Note_on_c, 2, 68, 64
4, 21940, Note_on_c, 2, 68, 0
4, 21960, Note_on_c, 2, 69, 64
4, 22009, Note_on_c, 2, 69, 0
4, 22020, Note_on_c, 2, 64, 64
4, 22076, Note_on_c, 2, 64, 0
4, 22080, Note_on_c, 2, 65, 64
4, 22255, Note_on_c, 2, 65, 0
4, 22380, Note_on_c, 2, 65, 64
4, 22494, Note_on_c, 2, 65, 0
4, 22500, Note_on_c, 2, 64, 64
4, 22579, Note_on_c, 2, 64, 0
4, 22620, Note_on_c, 2, 64, 64
4, 22678, Note_on_c, 2, 64, 0
4, 22680, Note_on_c, 2, 62, 64
4, 22728, Note_on_c, 2, 62, 0
4, 22740, Note_on_c, 2, 60, 64
4, 22789, Note_on_c, 2, 60, 0
4, 22800, Note_on_c, 2, 62, 64
4, 22920, Note_on_c, 2, 59, 64
4, 22921, Note_on_c, 2, 62, 0
4, 23028, Note_on_c, 2, 59, 0
4, 23040, Note_on_c, 2, 60, 64
4, 23100, Note_on_c, 2, 59, 64
4, 23101, Note_on_c, 2, 60, 0
4, 23153, Note_on_c, 2, 59, 0
4, 23160, Note_on_c, 2, 57, 64
4, 23211, Note_on_c, 2, 57, 0
4, 23220, Note_on_c, 2, 59, 64
4, 23251, Note_on_c, 2, 59, 0
4, 23280, Note_on_c, 2, 59, 64
4, 23455, Note_on_c, 2, 59, 0
4, 23460, Note_on_c, 2, 57, 64
4, 23485, Note_on_c, 2, 57, 0
4, 23520, Note_on_c, 2, 57, 64
4, 23628, Note_on_c, 2, 57, 0
4, 25560, Note_on_c, 2, 67, 64
4, 25612, Note_on_c, 2, 67, 0
4, 25680, Note_on_c, 2, 67, 64
4, 25729, Note_on_c, 2, 67, 0
4, 25800, Note_on_c, 2, 67, 64
4, 25840, Note_on_c, 2, 67, 0
4, 25920, Note_on_c, 2, 67, 64
4, 26040, Note_on_c, 2, 65, 64
4, 26054, Note_on_c, 2, 67, 0
4, 26075, Note_on_c, 2, 65, 0
4, 26100, Note_on_c, 2, 64, 64
4, 26132, Note_on_c, 2, 64, 0
4, 26160, Note_on_c, 2, 65, 64
4, 26271, Note_on_c, 2, 65, 0
4, 26280, Note_on_c, 2, 67, 64
4, 26333, Note_on_c, 2, 67, 0
4, 26340, Note_on_c, 2, 65, 64
4, 26372, Note_on_c, 2, 65, 0
4, 26400, Note_on_c, 2, 64, 64
4, 26547, Note_on_c, 2, 64, 0
4, 26640, Note_on_c, 2, 69, 64
4, 26737, Note_on_c, 2, 69, 0
4, 26880, Note_on_c, 2, 69, 64
4, 26998, Note_on_c, 2, 69, 0
4, 27000, Note_on_c, 2, 71, 64
4, 27040, Note_on_c, 2, 71, 0
4, 27060, Note_on_c, 2, 72, 64
4, 27102, Note_on_c, 2, 72, 0
4, 27120, Note_on_c, 2, 71, 64
4, 27180, Note_on_c, 2, 69, 64
4, 27181, Note_on_c, 2, 71, 0
4, 27240, Note_on_c, 2, 68, 64
4, 27250, Note_on_c, 2, 69, 0
4, 27287, Note_on_c, 2, 68, 0
4, 27300, Note_on_c, 2, 69, 64
4, 27344, Note_on_c, 2, 69, 0
4, 27360, Note_on_c, 2, 68, 64
4, 27473, Note_on_c, 2, 68, 0
4, 27600, Note_on_c, 2, 69, 64
4, 27696, Note_on_c, 2, 69, 0
4, 27840, Note_on_c, 2, 69, 64
4, 27942, Note_on_c, 2, 69, 0
4, 28080, Note_on_c, 2, 68, 64
4, 28192, Note_on_c, 2, 68, 0
4, 28320, Note_on_c, 2, 64, 64
4, 28434, Note_on_c, 2, 64, 0
4, 33960, Note_on_c, 2, 74, 64
4, 34014, Note_on_c, 2, 74, 0
4, 34080, Note_on_c, 2, 74, 64
4, 34200, Note_on_c, 2, 72, 64
4, 34204, Note_on_c, 2, 74, 0
4, 34246, Note_on_c, 2, 72, 0
4, 34320, Note_on_c, 2, 72, 64
4, 34440, Note_on_c, 2, 71, 64
4, 34472, Note_on_c, 2, 72, 0
4, 34485, Note_on_c, 2, 71, 0
4, 34560, Note_on_c, 2, 71, 64
4, 34800, Note_on_c, 2, 69, 64
4, 34808, Note_on_c, 2, 71, 0
4, 34857, Note_on_c, 2, 69, 0
4, 34920, Note_on_c, 2, 69, 64
4, 34968, Note_on_c, 2, 69, 0
4, 35040, Note_on_c, 2, 69, 64
4, 35520, Note_on_c, 2, 68, 64
4, 35526, Note_on_c, 2, 69, 0
4, 36000, Note_on_c, 2, 69, 64
4, 36015, Note_on_c, 2, 68, 0
4, 36600, Note_on_c, 2, 68, 64
4, 36606, Note_on_c, 2, 69, 0
4, 36698, Note_on_c, 2, 68, 0
4, 36720, Note_on_c, 2, 69, 64
4, 36840, Note_on_c, 2, 66, 64
4, 36849, Note_on_c, 2, 69, 0
4, 36960, Note_on_c, 2, 68, 64
4, 36963, Note_on_c, 2, 66, 0
4, 37432, Note_on_c, 2, 68, 0
4, 37440, Note_on_c, 2, 69, 64
4, 37560, Note_on_c, 2, 68, 64
4, 37563, Note_on_c, 2, 69, 0
4, 37672, Note_on_c, 2, 68, 0
4, 37680, Note_on_c, 2, 69, 64
4, 37795, Note_on_c, 2, 69, 0
4, 37800, Note_on_c, 2, 71, 64
4, 37920, Note_on_c, 2, 72, 64
4, 37935, Note_on_c, 2, 71, 0
4, 38037, Note_on_c, 2, 72, 0
4, 38040, Note_on_c, 2, 74, 64
4, 38158, Note_on_c, 2, 74, 0
4, 38160, Note_on_c, 2, 72, 64
4, 38280, Note_on_c, 2, 71, 64
4, 38281, Note_on_c, 2, 72, 0
4, 38400, Note_on_c, 2, 69, 64
4, 38412, Note_on_c, 2, 71, 0
4, 38520, Note_on_c, 2, 68, 64
4, 38524, Note_on_c, 2, 69, 0
4, 38634, Note_on_c, 2, 68, 0
4, 38640, Note_on_c, 2, 69, 64
4, 38758, Note_on_c, 2, 69, 0
4, 38760, Note_on_c, 2, 71, 64
4, 38880, Note_on_c, 2, 72, 64
4, 38885, Note_on_c, 2, 71, 0
4, 39000, Note_on_c, 2, 71, 64
4, 39004, Note_on_c, 2, 72, 0
4, 39119, Note_on_c, 2, 71, 0
4, 39120, Note_on_c, 2, 72, 64
4, 39221, Note_on_c, 2, 72, 0
4, 39240, Note_on_c, 2, 69, 64
4, 39360, Note_on_c, 2, 71, 64
4, 39361, Note_on_c, 2, 69, 0
4, 39480, Note_on_c, 2, 69, 64
4, 39486, Note_on_c, 2, 71, 0
4, 39599, Note_on_c, 2, 69, 0
4, 39600, Note_on_c, 2, 71, 64
4, 39717, Note_on_c, 2, 71, 0
4, 39720, Note_on_c, 2, 72, 64
4, 39840, Note_on_c, 2, 74, 64
4, 39846, Note_on_c, 2, 72, 0
4, 39960, Note_on_c, 2, 76, 64
4, 39961, Note_on_c, 2, 74, 0
4, 40080, Note_on_c, 2, 74, 64
4, 40089, Note_on_c, 2, 76, 0
4, 40200, Note_on_c, 2, 72, 64
4, 40212, Note_on_c, 2, 74, 0
4, 40320, Note_on_c, 2, 71, 64
4, 40329, Note_on_c, 2, 72, 0
4, 40434, Note_on_c, 2, 71, 0
4, 40440, Note_on_c, 2, 69, 64
4, 40538, Note_on_c, 2, 69, 0
4, 40560, Note_on_c, 2, 71, 64
4, 40685, Note_on_c, 2, 72, 64
4, 40688, Note_on_c, 2, 71, 0
4, 40800, Note_on_c, 2, 74, 64
4, 40809, Note_on_c, 2, 72, 0
4, 40920, Note_on_c, 2, 72, 64
4, 40928, Note_on_c, 2, 74, 0
4, 41032, Note_on_c, 2, 72, 0
4, 41040, Note_on_c, 2, 74, 64
4, 41160, Note_on_c, 2, 71, 64
4, 41168, Note_on_c, 2, 74, 0
4, 41280, Note_on_c, 2, 72, 64
4, 41280, Note_on_c, 2, 72, 64
4, 41296, Note_on_c, 2, 71, 0
4, 41340, Note_on_c, 2, 69, 64
4, 41347, Note_on_c, 2, 72, 0
4, 41352, Note_on_c, 2, 72, 0
4, 41389, Note_on_c, 2, 69, 0
4, 41400, Note_on_c, 2, 72, 64
4, 41455, Note_on_c, 2, 72, 0
4, 41460, Note_on_c, 2, 76, 64
4, 41515, Note_on_c, 2, 76, 0
4, 41520, Note_on_c, 2, 81, 64
4, 41578, Note_on_c, 2, 81, 0
4, 41580, Note_on_c, 2, 76, 64
4, 41632, Note_on_c, 2, 76, 0
4, 41640, Note_on_c, 2, 72, 64
4, 41694, Note_on_c, 2, 72, 0
4, 41700, Note_on_c, 2, 69, 64
4, 41760, Note_on_c, 2, 64, 64
4, 41766, Note_on_c, 2, 69, 0
4, 41820, Note_on_c, 2, 81, 64
4, 41837, Note_on_c, 2, 64, 0
4, 41880, Note_on_c, 2, 79, 64
4, 41882, Note_on_c, 2, 81, 0
4, 41940, Note_on_c, 2, 77, 64
4, 41945, Note_on_c, 2, 79, 0
4, 41987, Note_on_c, 2, 77, 0
4, 42000, Note_on_c, 2, 79, 64
4, 42060, Note_on_c, 2, 76, 64
4, 42074, Note_on_c, 2, 79, 0
4, 42119, Note_on_c, 2, 76, 0
4, 42120, Note_on_c, 2, 73, 64
4, 42180, Note_on_c, 2, 69, 64
4, 42189, Note_on_c, 2, 73, 0
4, 42236, Note_on_c, 2, 69, 0
4, 42240, Note_on_c, 2, 77, 64
4, 42240, Note_on_c, 2, 77, 64
4, 42294, Note_on_c, 2, 77, 0
4, 42300, Note_on_c, 2, 62, 64
4, 42313, Note_on_c, 2, 77, 0
4, 42350, Note_on_c, 2, 62, 0
4, 42360, Note_on_c, 2, 65, 64
4, 42420, Note_on_c, 2, 69, 64
4, 42424, Note_on_c, 2, 65, 0
4, 42480, Note_on_c, 2, 74, 64
4, 42483, Note_on_c, 2, 69, 0
4, 42540, Note_on_c, 2, 69, 64
4, 42543, Note_on_c, 2, 74, 0
4, 42592, Note_on_c, 2, 69, 0
4, 42600, Note_on_c, 2, 65, 64
4, 42660, Note_on_c, 2, 62, 64
4, 42661, Note_on_c, 2, 65, 0
4, 42720, Note_on_c, 2, 57, 64
4, 42722, Note_on_c, 2, 62, 0
4, 42780, Note_on_c, 2, 74, 64
4, 42791, Note_on_c, 2, 57, 0
4, 42833, Note_on_c, 2, 74, 0
4, 42840, Note_on_c, 2, 72, 64
4, 42890, Note_on_c, 2, 72, 0
4, 42900, Note_on_c, 2, 70, 64
4, 42953, Note_on_c, 2, 70, 0
4, 42960, Note_on_c, 2, 72, 64
4, 43020, Note_on_c, 2, 69, 64
4, 43024, Note_on_c, 2, 72, 0
4, 43080, Note_on_c, 2, 66, 64
4, 43081, Note_on_c, 2, 69, 0
4, 43140, Note_on_c, 2, 62, 64
4, 43143, Note_on_c, 2, 66, 0
4, 43191, Note_on_c, 2, 62, 0
4, 43200, Note_on_c, 2, 70, 64
4, 43255, Note_on_c, 2, 70, 0
4, 43260, Note_on_c, 2, 67, 64
4, 43320, Note_on_c, 2, 70, 64
4, 43326, Note_on_c, 2, 67, 0
4, 43380, Note_on_c, 2, 74, 64
4, 43400, Note_on_c, 2, 70, 0
4, 43437, Note_on_c, 2, 74, 0
4, 43440, Note_on_c, 2, 79, 64
4, 43500, Note_on_c, 2, 74, 64
4, 43502, Note_on_c, 2, 79, 0
4, 43543, Note_on_c, 2, 74, 0
4, 43560, Note_on_c, 2, 70, 64
4, 43620, Note_on_c, 2, 67, 64
4, 43622, Note_on_c, 2, 70, 0
4, 43674, Note_on_c, 2, 67, 0
4, 43680, Note_on_c, 2, 62, 64
4, 43734, Note_on_c, 2, 62, 0
4, 43740, Note_on_c, 2, 79, 64
4, 43800, Note_on_c, 2, 77, 64
4, 43813, Note_on_c, 2, 79, 0
4, 43858, Note_on_c, 2, 77, 0
4, 43860, Note_on_c, 2, 76, 64
4, 43908, Note_on_c, 2, 76, 0
4, 43920, Note_on_c, 2, 77, 64
4, 43980, Note_on_c, 2, 74, 64
4, 43989, Note_on_c, 2, 77, 0
4, 44024, Note_on_c, 2, 74, 0
4, 44040, Note_on_c, 2, 71, 64
4, 44100, Note_on_c, 2, 67, 64
4, 44107, Note_on_c, 2, 71, 0
4, 44160, Note_on_c, 2, 76, 64
4, 44169, Note_on_c, 2, 67, 0
4, 44220, Note_on_c, 2, 67, 64
4, 44221, Note_on_c, 2, 76, 0
4, 44280, Note_on_c, 2, 72, 64
4, 44282, Note_on_c, 2, 67, 0
4, 44330, Note_on_c, 2, 72, 0
4, 44340, Note_on_c, 2, 74, 64
4, 44391, Note_on_c, 2, 74, 0
4, 44400, Note_on_c, 2, 75, 64
4, 44449, Note_on_c, 2, 75, 0
4, 44460, Note_on_c, 2, 72, 64
4, 44507, Note_on_c, 2, 72, 0
4, 44520, Note_on_c, 2, 69, 64
4, 44580, Note_on_c, 2, 65, 64
4, 44586, Note_on_c, 2, 69, 0
4, 44640, Note_on_c, 2, 74, 64
4, 44648, Note_on_c, 2, 65, 0
4, 44699, Note_on_c, 2, 74, 0
4, 44700, Note_on_c, 2, 65, 64
4, 44760, Note_on_c, 2, 70, 64
4, 44766, Note_on_c, 2, 65, 0
4, 44820, Note_on_c, 2, 72, 64
4, 44836, Note_on_c, 2, 70, 0
4, 44873, Note_on_c, 2, 72, 0
4, 44880, Note_on_c, 2, 74, 64
4, 44940, Note_on_c, 2, 70, 64
4, 44947, Note_on_c, 2, 74, 0
4, 45000, Note_on_c, 2, 67, 64
4, 45010, Note_on_c, 2, 70, 0
4, 45057, Note_on_c, 2, 67, 0
4, 45060, Note_on_c, 2, 63, 64
4, 45105, Note_on_c, 2, 63, 0
4, 45120, Note_on_c, 2, 72, 64
4, 45180, Note_on_c, 2, 69, 64
4, 45185, Note_on_c, 2, 72, 0
4, 45236, Note_on_c, 2, 69, 0
4, 45240, Note_on_c, 2, 66, 64
4, 45295, Note_on_c, 2, 66, 0
4, 45300, Note_on_c, 2, 62, 64
4, 45360, Note_on_c, 2, 70, 64
4, 45373, Note_on_c, 2, 62, 0
4, 45420, Note_on_c, 2, 67, 64
4, 45429, Note_on_c, 2, 70, 0
4, 45474, Note_on_c, 2, 67, 0
4, 45480, Note_on_c, 2, 63, 64
4, 45535, Note_on_c, 2, 63, 0
4, 45540, Note_on_c, 2, 60, 64
4, 45600, Note_on_c, 2, 68, 64
4, 45602, Note_on_c, 2, 60, 0
4, 45649, Note_on_c, 2, 68, 0
4, 45660, Note_on_c, 2, 65, 64
4, 45710, Note_on_c, 2, 65, 0
4, 45720, Note_on_c, 2, 62, 64
4, 45779, Note_on_c, 2, 62, 0
4, 45780, Note_on_c, 2, 58, 64
4, 45835, Note_on_c, 2, 58, 0
4, 45840, Note_on_c, 2, 67, 64
4, 45899, Note_on_c, 2, 67, 0
4, 45900, Note_on_c, 2, 63, 64
4, 45952, Note_on_c, 2, 63, 0
4, 45960, Note_on_c, 2, 60, 64
4, 46015, Note_on_c, 2, 60, 0
4, 46020, Note_on_c, 2, 57, 64
4, 46065, Note_on_c, 2, 57, 0
4, 46140, Note_on_c, 2, 57, 64
4, 46200, Note_on_c, 2, 60, 64
4, 46203, Note_on_c, 2, 57, 0
4, 46257, Note_on_c, 2, 60, 0
4, 46260, Note_on_c, 2, 66, 64
4, 46306, Note_on_c, 2, 66, 0
4, 46320, Note_on_c, 2, 69, 64
4, 46380, Note_on_c, 2, 66, 64
4, 46391, Note_on_c, 2, 69, 0
4, 46438, Note_on_c, 2, 66, 0
4, 46440, Note_on_c, 2, 60, 64
4, 46487, Note_on_c, 2, 60, 0
4, 46500, Note_on_c, 2, 57, 64
4, 46542, Note_on_c, 2, 57, 0
4, 46620, Note_on_c, 2, 57, 64
4, 46680, Note_on_c, 2, 57, 0
4, 46680, Note_on_c, 2, 60, 64
4, 46725, Note_on_c, 2, 60, 0
4, 46740, Note_on_c, 2, 66, 64
4, 46774, Note_on_c, 2, 66, 0
4, 46800, Note_on_c, 2, 69, 64
4, 46859, Note_on_c, 2, 69, 0
4, 46860, Note_on_c, 2, 66, 64
4, 46902, Note_on_c, 2, 66, 0
4, 46920, Note_on_c, 2, 60, 64
4, 46963, Note_on_c, 2, 60, 0
4, 46980, Note_on_c, 2, 57, 64
4, 47031, Note_on_c, 2, 57, 0
4, 47100, Note_on_c, 2, 57, 64
4, 47149, Note_on_c, 2, 57, 0
4, 47160, Note_on_c, 2, 58, 64
4, 47205, Note_on_c, 2, 58, 0
4, 47220, Note_on_c, 2, 62, 64
4, 47259, Note_on_c, 2, 62, 0
4, 47280, Note_on_c, 2, 67, 64
4, 47334, Note_on_c, 2, 67, 0
4, 47340, Note_on_c, 2, 62, 64
4, 47376, Note_on_c, 2, 62, 0
4, 47400, Note_on_c, 2, 58, 64
4, 47455, Note_on_c, 2, 58, 0
4, 47460, Note_on_c, 2, 57, 64
4, 47504, Note_on_c, 2, 57, 0
4, 47580, Note_on_c, 2, 57, 64
4, 47633, Note_on_c, 2, 57, 0
4, 47640, Note_on_c, 2, 58, 64
4, 47686, Note_on_c, 2, 58, 0
4, 47700, Note_on_c, 2, 62, 64
4, 47746, Note_on_c, 2, 62, 0
4, 47760, Note_on_c, 2, 67, 64
4, 47814, Note_on_c, 2, 67, 0
4, 47820, Note_on_c, 2, 62, 64
4, 47851, Note_on_c, 2, 62, 0
4, 47880, Note_on_c, 2, 58, 64
4, 47926, Note_on_c, 2, 58, 0
4, 47940, Note_on_c, 2, 57, 64
4, 47975, Note_on_c, 2, 57, 0
4, 48060, Note_on_c, 2, 57, 64
4, 48115, Note_on_c, 2, 57, 0
4, 48120, Note_on_c, 2, 58, 64
4, 48163, Note_on_c, 2, 58, 0
4, 48180, Note_on_c, 2, 62, 64
4, 48228, Note_on_c, 2, 62, 0
4, 48240, Note_on_c, 2, 67, 64
4, 48295, Note_on_c, 2, 67, 0
4, 48300, Note_on_c, 2, 62, 64
4, 48335, Note_on_c, 2, 62, 0
4, 48360, Note_on_c, 2, 58, 64
4, 48417, Note_on_c, 2, 58, 0
4, 48420, Note_on_c, 2, 57, 64
4, 48461, Note_on_c, 2, 57, 0
4, 48540, Note_on_c, 2, 57, 64
4, 48599, Note_on_c, 2, 57, 0
4, 48600, Note_on_c, 2, 58, 64
4, 48645, Note_on_c, 2, 58, 0
4, 48660, Note_on_c, 2, 62, 64
4, 48704, Note_on_c, 2, 62, 0
4, 48720, Note_on_c, 2, 67, 64
4, 48766, Note_on_c, 2, 67, 0
4, 48780, Note_on_c, 2, 62, 64
4, 48813, Note_on_c, 2, 62, 0
4, 48840, Note_on_c, 2, 58, 64
4, 48894, Note_on_c, 2, 58, 0
4, 48900, Note_on_c, 2, 57, 64
4, 48943, Note_on_c, 2, 57, 0
4, 49020, Note_on_c, 2, 57, 64
4, 49074, Note_on_c, 2, 57, 0
4, 49080, Note_on_c, 2, 61, 64
4, 49122, Note_on_c, 2, 61, 0
4, 49140, Note_on_c, 2, 64, 64
4, 49182, Note_on_c, 2, 64, 0
4, 49200, Note_on_c, 2, 67, 64
4, 49259, Note_on_c, 2, 67, 0
4, 49260, Note_on_c, 2, 64, 64
4, 49304, Note_on_c, 2, 64, 0
4, 49320, Note_on_c, 2, 61, 64
4, 49350, Note_on_c, 2, 61, 0
4, 49380, Note_on_c, 2, 57, 64
4, 49425, Note_on_c, 2, 57, 0
4, 49500, Note_on_c, 2, 57, 64
4, 49560, Note_on_c, 2, 61, 64
4, 49561, Note_on_c, 2, 57, 0
4, 49607, Note_on_c, 2, 61, 0
4, 49620, Note_on_c, 2, 64, 64
4, 49659, Note_on_c, 2, 64, 0
4, 49680, Note_on_c, 2, 67, 64
4, 49740, Note_on_c, 2, 64, 64
4, 49743, Note_on_c, 2, 67, 0
4, 49783, Note_on_c, 2, 64, 0
4, 49800, Note_on_c, 2, 61, 64
4, 49852, Note_on_c, 2, 61, 0
4, 49860, Note_on_c, 2, 57, 64
4, 49893, Note_on_c, 2, 57, 0
4, 49980, Note_on_c, 2, 57, 64
4, 50040, Note_on_c, 2, 58, 64
4, 50044, Note_on_c, 2, 57, 0
4, 50100, Note_on_c, 2, 62, 64
4, 50102, Note_on_c, 2, 58, 0
4, 50138, Note_on_c, 2, 62, 0
4, 50160, Note_on_c, 2, 67, 64
4, 50220, Note_on_c, 2, 70, 64
4, 50229, Note_on_c, 2, 67, 0
4, 50280, Note_on_c, 2, 68, 64
4, 50289, Note_on_c, 2, 70, 0
4, 50327, Note_on_c, 2, 68, 0
4, 50340, Note_on_c, 2, 66, 64
4, 50400, Note_on_c, 2, 67, 64
4, 50401, Note_on_c, 2, 66, 0
4, 50452, Note_on_c, 2, 67, 0
4, 50460, Note_on_c, 2, 77, 64
4, 50520, Note_on_c, 2, 75, 64
4, 50525, Note_on_c, 2, 77, 0
4, 50567, Note_on_c, 2, 75, 0
4, 50580, Note_on_c, 2, 73, 64
4, 50630, Note_on_c, 2, 73, 0
4, 50640, Note_on_c, 2, 74, 64
4, 50700, Note_on_c, 2, 72, 64
4, 50702, Note_on_c, 2, 74, 0
4, 50756, Note_on_c, 2, 72, 0
4, 50760, Note_on_c, 2, 71, 64
4, 50817, Note_on_c, 2, 71, 0
4, 50820, Note_on_c, 2, 72, 64
4, 50864, Note_on_c, 2, 72, 0
4, 50880, Note_on_c, 2, 72, 64
4, 50976, Note_on_c, 2, 72, 0
4, 51120, Note_on_c, 2, 70, 64
4, 51197, Note_on_c, 2, 70, 0
4, 51360, Note_on_c, 2, 69, 64
4, 51440, Note_on_c, 2, 69, 0
4, 51600, Note_on_c, 2, 69, 64
4, 51670, Note_on_c, 2, 69, 0
4, 51720, Note_on_c, 2, 72, 64
4, 51900, Note_on_c, 2, 69, 64
4, 51904, Note_on_c, 2, 72, 0
4, 51951, Note_on_c, 2, 69, 0
4, 51960, Note_on_c, 2, 70, 64
4, 52009, Note_on_c, 2, 70, 0
4, 52020, Note_on_c, 2, 66, 64
4, 52071, Note_on_c, 2, 66, 0
4, 52080, Note_on_c, 2, 67, 64
4, 52135, Note_on_c, 2, 67, 0
4, 52200, Note_on_c, 2, 67, 64
4, 52248, Note_on_c, 2, 67, 0
4, 52320, Note_on_c, 2, 67, 64
4, 52437, Note_on_c, 2, 67, 0
4, 52680, Note_on_c, 2, 66, 64
4, 52734, Note_on_c, 2, 66, 0
4, 52800, Note_on_c, 2, 67, 64
4, 52900, Note_on_c, 2, 67, 0
4, 53160, Note_on_c, 2, 62, 64
4, 53210, Note_on_c, 2, 62, 0
4, 53220, Note_on_c, 2, 60, 64
4, 53260, Note_on_c, 2, 60, 0
4, 53280, Note_on_c, 2, 58, 64
4, 53389, Note_on_c, 2, 58, 0
4, 53400, Note_on_c, 2, 57, 64
4, 53635, Note_on_c, 2, 57, 0
4, 53640, Note_on_c, 2, 60, 64
4, 53759, Note_on_c, 2, 60, 0
4, 53760, Note_on_c, 2, 58, 64
4, 53864, Note_on_c, 2, 58, 0
4, 54960, Note_on_c, 2, 64, 64
4, 55043, Note_on_c, 2, 64, 0
4, 55200, Note_on_c, 2, 65, 64
4, 55278, Note_on_c, 2, 65, 0
4, 55560, Note_on_c, 2, 67, 64
4, 55608, Note_on_c, 2, 67, 0
4, 55680, Note_on_c, 2, 67, 64
4, 55795, Note_on_c, 2, 67, 0
4, 55800, Note_on_c, 2, 65, 64
4, 55848, Note_on_c, 2, 65, 0
4, 55860, Note_on_c, 2, 64, 64
4, 55901, Note_on_c, 2, 64, 0
4, 55920, Note_on_c, 2, 65, 64
4, 55981, Note_on_c, 2, 65, 0
4, 56160, Note_on_c, 2, 65, 64
4, 56263, Note_on_c, 2, 65, 0
4, 56520, Note_on_c, 2, 64, 64
4, 56587, Note_on_c, 2, 64, 0
4, 56640, Note_on_c, 2, 65, 64
4, 56728, Note_on_c, 2, 65, 0
4, 56760, Note_on_c, 2, 69, 64
4, 56805, Note_on_c, 2, 69, 0
4, 56880, Note_on_c, 2, 69, 64
4, 56923, Note_on_c, 2, 69, 0
4, 57000, Note_on_c, 2, 69, 64
4, 57040, Note_on_c, 2, 69, 0
4, 57120, Note_on_c, 2, 68, 64
4, 57240, Note_on_c, 2, 67, 64
4, 57250, Note_on_c, 2, 68, 0
4, 57284, Note_on_c, 2, 67, 0
4, 57300, Note_on_c, 2, 65, 64
4, 57347, Note_on_c, 2, 65, 0
4, 57360, Note_on_c, 2, 67, 64
4, 57437, Note_on_c, 2, 67, 0
4, 57480, Note_on_c, 2, 69, 64
4, 57517, Note_on_c, 2, 69, 0
4, 57600, Note_on_c, 2, 70, 64
4, 57666, Note_on_c, 2, 70, 0
4, 57720, Note_on_c, 2, 70, 64
4, 57760, Note_on_c, 2, 70, 0
4, 57840, Note_on_c, 2, 70, 64
4, 57881, Note_on_c, 2, 70, 0
4, 57960, Note_on_c, 2, 70, 64
4, 57996, Note_on_c, 2, 70, 0
4, 58080, Note_on_c, 2, 70, 64
4, 58200, Note_on_c, 2, 69, 64
4, 58221, Note_on_c, 2, 70, 0
4, 58246, Note_on_c, 2, 69, 0
4, 58260, Note_on_c, 2, 67, 64
4, 58315, Note_on_c, 2, 67, 0
4, 58320, Note_on_c, 2, 69, 64
4, 58361, Note_on_c, 2, 69, 0
4, 58380, Note_on_c, 2, 65, 64
4, 58430, Note_on_c, 2, 65, 0
4, 58440, Note_on_c, 2, 70, 64
4, 58620, Note_on_c, 2, 67, 64
4, 58632, Note_on_c, 2, 70, 0
4, 58660, Note_on_c, 2, 67, 0
4, 58680, Note_on_c, 2, 69, 64
4, 58853, Note_on_c, 2, 69, 0
4, 58860, Note_on_c, 2, 65, 64
4, 58904, Note_on_c, 2, 65, 0
4, 58920, Note_on_c, 2, 67, 64
4, 59094, Note_on_c, 2, 67, 0
4, 59100, Note_on_c, 2, 64, 64
4, 59142, Note_on_c, 2, 64, 0
4, 59160, Note_on_c, 2, 65, 64
4, 59335, Note_on_c, 2, 65, 0
4, 59340, Note_on_c, 2, 67, 64
4, 59384, Note_on_c, 2, 67, 0
4, 59400, Note_on_c, 2, 64, 64
4, 59452, Note_on_c, 2, 64, 0
4, 59460, Note_on_c, 2, 60, 64
4, 59630, Note_on_c, 2, 60, 0
4, 59640, Note_on_c, 2, 65, 64
4, 59682, Note_on_c, 2, 65, 0
4, 59760, Note_on_c, 2, 65, 64
4, 59811, Note_on_c, 2, 65, 0
4, 59880, Note_on_c, 2, 65, 64
4, 59922, Note_on_c, 2, 65, 0
4, 60000, Note_on_c, 2, 65, 64
4, 60130, Note_on_c, 2, 65, 0
4, 60600, Note_on_c, 2, 72, 64
4, 60647, Note_on_c, 2, 72, 0
4, 60660, Note_on_c, 2, 70, 64
4, 60708, Note_on_c, 2, 70, 0
4, 60720, Note_on_c, 2, 69, 64
4, 60766, Note_on_c, 2, 69, 0
4, 60780, Note_on_c, 2, 67, 64
4, 60835, Note_on_c, 2, 67, 0
4, 60840, Note_on_c, 2, 65, 64
4, 60900, Note_on_c, 2, 64, 64
4, 60905, Note_on_c, 2, 65, 0
4, 60950, Note_on_c, 2, 64, 0
4, 60960, Note_on_c, 2, 65, 64
4, 61144, Note_on_c, 2, 65, 0
4, 62640, Note_on_c, 2, 65, 64
4, 62760, Note_on_c, 2, 64, 64
4, 62763, Note_on_c, 2, 65, 0
4, 62879, Note_on_c, 2, 64, 0
4, 62880, Note_on_c, 2, 62, 64
4, 62996, Note_on_c, 2, 62, 0
4, 63000, Note_on_c, 2, 60, 64
4, 63117, Note_on_c, 2, 60, 0
4, 63120, Note_on_c, 2, 58, 64
4, 63240, Note_on_c, 2, 57, 64
4, 63247, Note_on_c, 2, 58, 0
4, 63360, Note_on_c, 2, 62, 64
4, 63362, Note_on_c, 2, 57, 0
4, 63463, Note_on_c, 2, 62, 0
4, 63840, Note_on_c, 2, 64, 64
4, 63960, Note_on_c, 2, 62, 64
4, 63961, Note_on_c, 2, 64, 0
4, 64080, Note_on_c, 2, 62, 0
4, 64080, Note_on_c, 2, 61, 64
4, 64199, Note_on_c, 2, 61, 0
4, 64200, Note_on_c, 2, 59, 64
4, 64320, Note_on_c, 2, 59, 0
4, 64320, Note_on_c, 2, 57, 64
4, 64430, Note_on_c, 2, 57, 0
4, 64680, Note_on_c, 2, 57, 64
4, 64734, Note_on_c, 2, 57, 0
4, 64800, Note_on_c, 2, 57, 64
4, 64932, Note_on_c, 2, 57, 0
4, 65160, Note_on_c, 2, 53, 64
4, 65210, Note_on_c, 2, 53, 0
4, 65280, Note_on_c, 2, 53, 64
4, 65402, Note_on_c, 2, 53, 0
4, 65640, Note_on_c, 2, 50, 64
4, 65691, Note_on_c, 2, 50, 0
4, 65760, Note_on_c, 2, 50, 64
4, 65857, Note_on_c, 2, 50, 0
4, 72600, Note_on_c, 2, 74, 64
4, 72645, Note_on_c, 2, 74, 0
4, 72720, Note_on_c, 2, 74, 64
4, 72840, Note_on_c, 2, 74, 0
4, 72840, Note_on_c, 2, 73, 64
4, 72882, Note_on_c, 2, 73, 0
4, 72900, Note_on_c, 2, 71, 64
4, 72947, Note_on_c, 2, 71, 0
4, 72960, Note_on_c, 2, 73, 64
4, 73017, Note_on_c, 2, 73, 0
4, 73080, Note_on_c, 2, 73, 64
4, 73195, Note_on_c, 2, 73, 0
4, 73200, Note_on_c, 2, 74, 64
4, 73263, Note_on_c, 2, 74, 0
4, 73320, Note_on_c, 2, 74, 64
4, 73358, Note_on_c, 2, 74, 0
4, 73440, Note_on_c, 2, 74, 64
4, 73565, Note_on_c, 2, 74, 0
4, 73680, Note_on_c, 2, 68, 64
4, 73773, Note_on_c, 2, 68, 0
4, 73920, Note_on_c, 2, 67, 64
4, 74039, Note_on_c, 2, 67, 0
4, 74040, Note_on_c, 2, 65, 64
4, 74078, Note_on_c, 2, 65, 0
4, 74100, Note_on_c, 2, 64, 64
4, 74137, Note_on_c, 2, 64, 0
4, 74160, Note_on_c, 2, 65, 64
4, 74224, Note_on_c, 2, 65, 0
4, 74280, Note_on_c, 2, 65, 64
4, 74320, Note_on_c, 2, 65, 0
4, 74400, Note_on_c, 2, 65, 64
4, 74518, Note_on_c, 2, 65, 0
4, 74520, Note_on_c, 2, 64, 64
4, 74565, Note_on_c, 2, 64, 0
4, 74580, Note_on_c, 2, 62, 64
4, 74628, Note_on_c, 2, 62, 0
4, 74640, Note_on_c, 2, 64, 64
4, 74688, Note_on_c, 2, 64, 0
4, 74760, Note_on_c, 2, 64, 64
4, 74818, Note_on_c, 2, 64, 0
4, 74880, Note_on_c, 2, 63, 64
4, 74994, Note_on_c, 2, 63, 0
4, 75000, Note_on_c, 2, 62, 64
4, 75046, Note_on_c, 2, 62, 0
4, 75060, Note_on_c, 2, 60, 64
4, 75103, Note_on_c, 2, 60, 0
4, 75120, Note_on_c, 2, 62, 64
4, 75176, Note_on_c, 2, 62, 0
4, 75240, Note_on_c, 2, 62, 64
4, 75283, Note_on_c, 2, 62, 0
4, 75360, Note_on_c, 2, 62, 64
4, 75480, Note_on_c, 2, 60, 64
4, 75488, Note_on_c, 2, 62, 0
4, 75516, Note_on_c, 2, 60, 0
4, 75540, Note_on_c, 2, 59, 64
4, 75572, Note_on_c, 2, 59, 0
4, 75600, Note_on_c, 2, 60, 64
4, 75652, Note_on_c, 2, 60, 0
4, 75720, Note_on_c, 2, 60, 64
4, 75774, Note_on_c, 2, 60, 0
4, 75840, Note_on_c, 2, 60, 64
4, 75946, Note_on_c, 2, 60, 0
4, 76320, Note_on_c, 2, 58, 64
4, 76409, Note_on_c, 2, 58, 0
4, 76800, Note_on_c, 2, 55, 64
4, 76908, Note_on_c, 2, 55, 0
4, 77760, Note_on_c, 2, 57, 64
4, 77876, Note_on_c, 2, 57, 0
4, 78000, Note_on_c, 2, 60, 64
4, 78093, Note_on_c, 2, 60, 0
4, 78240, Note_on_c, 2, 58, 64
4, 78301, Note_on_c, 2, 58, 0
4, 78360, Note_on_c, 2, 58, 64
4, 78400, Note_on_c, 2, 58, 0
4, 78420, Note_on_c, 2, 57, 64
4, 78458, Note_on_c, 2, 57, 0
4, 78480, Note_on_c, 2, 58, 64
4, 78579, Note_on_c, 2, 58, 0
4, 78720, Note_on_c, 2, 57, 64
4, 78803, Note_on_c, 2, 57, 0
4, 78840, Note_on_c, 2, 64, 64
4, 78887, Note_on_c, 2, 64, 0
4, 78900, Note_on_c, 2, 62, 64
4, 78934, Note_on_c, 2, 62, 0
4, 78960, Note_on_c, 2, 64, 64
4, 79041, Note_on_c, 2, 64, 0
4, 79200, Note_on_c, 2, 64, 64
4, 79320, Note_on_c, 2, 62, 64
4, 79321, Note_on_c, 2, 64, 0
4, 79357, Note_on_c, 2, 62, 0
4, 79380, Note_on_c, 2, 61, 64
4, 79416, Note_on_c, 2, 61, 0
4, 79440, Note_on_c, 2, 62, 64
4, 79515, Note_on_c, 2, 62, 0
4, 79680, Note_on_c, 2, 62, 64
4, 79750, Note_on_c, 2, 62, 0
4, 80040, Note_on_c, 2, 67, 64
4, 80107, Note_on_c, 2, 67, 0
4, 80160, Note_on_c, 2, 69, 64
4, 81480, Note_on_c, 2, 67, 64
4, 81493, Note_on_c, 2, 69, 0
4, 81526, Note_on_c, 2, 67, 0
4, 81540, Note_on_c, 2, 66, 64
4, 81588, Note_on_c, 2, 66, 0
4, 81600, Note_on_c, 2, 67, 64
4, 81840, Note_on_c, 2, 65, 64
4, 81851, Note_on_c, 2, 67, 0
4, 81893, Note_on_c, 2, 65, 0
4, 81960, Note_on_c, 2, 65, 64
4, 82011, Note_on_c, 2, 65, 0
4, 82080, Note_on_c, 2, 65, 64
4, 82187, Note_on_c, 2, 65, 0
4, 82440, Note_on_c, 2, 67, 64
4, 82485, Note_on_c, 2, 67, 0
4, 82560, Note_on_c, 2, 67, 64
4, 82678, Note_on_c, 2, 67, 0
4, 82680, Note_on_c, 2, 70, 64
4, 82731, Note_on_c, 2, 70, 0
4, 82740, Note_on_c, 2, 67, 64
4, 82778, Note_on_c, 2, 67, 0
4, 82800, Note_on_c, 2, 69, 64
4, 82899, Note_on_c, 2, 69, 0
4, 82925, Note_on_c, 2, 64, 64
4, 83024, Note_on_c, 2, 64, 0
4, 83040, Note_on_c, 2, 65, 64
4, 83123, Note_on_c, 2, 65, 0
4, 83160, Note_on_c, 2, 70, 64
4, 83198, Note_on_c, 2, 70, 0
4, 83220, Note_on_c, 2, 67, 64
4, 83255, Note_on_c, 2, 67, 0
4, 83280, Note_on_c, 2, 69, 64
4, 83393, Note_on_c, 2, 69, 0
4, 83400, Note_on_c, 2, 64, 64
4, 83450, Note_on_c, 2, 64, 0
4, 83520, Note_on_c, 2, 64, 64
4, 83639, Note_on_c, 2, 64, 0
4, 83640, Note_on_c, 2, 65, 64
4, 83692, Note_on_c, 2, 65, 0
4, 83760, Note_on_c, 2, 65, 64
4, 83875, Note_on_c, 2, 65, 0
4, 83880, Note_on_c, 2, 64, 64
4, 83980, Note_on_c, 2, 64, 0
4, 84000, Note_on_c, 2, 65, 64
4, 84180, Note_on_c, 2, 67, 64
4, 84196, Note_on_c, 2, 65, 0
4, 84216, Note_on_c, 2, 67, 0
4, 84240, Note_on_c, 2, 64, 64
4, 84472, Note_on_c, 2, 64, 0
4, 84480, Note_on_c, 2, 65, 64
4, 84605, Note_on_c, 2, 65, 0
4, 87360, Note_on_c, 2, 53, 64
4, 87420, Note_on_c, 2, 57, 64
4, 87434, Note_on_c, 2, 53, 0
4, 87455, Note_on_c, 2, 57, 0
4, 87480, Note_on_c, 2, 62, 64
4, 87521, Note_on_c, 2, 62, 0
4, 87540, Note_on_c, 2, 65, 64
4, 87577, Note_on_c, 2, 65, 0
4, 87600, Note_on_c, 2, 69, 64
4, 87660, Note_on_c, 2, 73, 64
4, 87667, Note_on_c, 2, 69, 0
4, 87704, Note_on_c, 2, 73, 0
4, 87720, Note_on_c, 2, 74, 64
4, 87760, Note_on_c, 2, 74, 0
4, 87780, Note_on_c, 2, 77, 64
4, 87823, Note_on_c, 2, 77, 0
4, 88380, Note_on_c, 2, 79, 64
4, 88440, Note_on_c, 2, 77, 64
4, 88454, Note_on_c, 2, 79, 0
4, 88479, Note_on_c, 2, 77, 0
4, 88500, Note_on_c, 2, 69, 64
4, 88531, Note_on_c, 2, 69, 0
4, 88560, Note_on_c, 2, 68, 64
4, 88610, Note_on_c, 2, 68, 0
4, 88620, Note_on_c, 2, 77, 64
4, 88667, Note_on_c, 2, 77, 0
4, 88680, Note_on_c, 2, 76, 64
4, 88723, Note_on_c, 2, 76, 0
4, 88740, Note_on_c, 2, 67, 64
4, 88780, Note_on_c, 2, 67, 0
4, 88800, Note_on_c, 2, 66, 64
4, 88858, Note_on_c, 2, 66, 0
4, 88860, Note_on_c, 2, 76, 64
4, 88910, Note_on_c, 2, 76, 0
4, 88920, Note_on_c, 2, 74, 64
4, 88965, Note_on_c, 2, 74, 0
4, 88980, Note_on_c, 2, 65, 64
4, 89024, Note_on_c, 2, 65, 0
4, 89040, Note_on_c, 2, 64, 64
4, 89095, Note_on_c, 2, 64, 0
4, 89100, Note_on_c, 2, 74, 64
4, 89149, Note_on_c, 2, 74, 0
4, 89160, Note_on_c, 2, 72, 64
4, 89214, Note_on_c, 2, 72, 0
4, 89220, Note_on_c, 2, 63, 64
4, 89262, Note_on_c, 2, 63, 0
4, 89280, Note_on_c, 2, 62, 64
4, 89340, Note_on_c, 2, 72, 64
4, 89341, Note_on_c, 2, 62, 0
4, 89393, Note_on_c, 2, 72, 0
4, 89400, Note_on_c, 2, 70, 64
4, 89452, Note_on_c, 2, 70, 0
4, 89460, Note_on_c, 2, 62, 64
4, 89502, Note_on_c, 2, 62, 0
4, 89520, Note_on_c, 2, 61, 64
4, 89580, Note_on_c, 2, 70, 64
4, 89585, Note_on_c, 2, 61, 0
4, 89633, Note_on_c, 2, 70, 0
4, 89640, Note_on_c, 2, 69, 64
4, 89691, Note_on_c, 2, 69, 0
4, 89700, Note_on_c, 2, 60, 64
4, 89747, Note_on_c, 2, 60, 0
4, 89760, Note_on_c, 2, 59, 64
4, 89820, Note_on_c, 2, 59, 0
4, 89820, Note_on_c, 2, 69, 64
4, 89865, Note_on_c, 2, 69, 0
4, 89880, Note_on_c, 2, 67, 64
4, 89932, Note_on_c, 2, 67, 0
4, 89940, Note_on_c, 2, 66, 64
4, 89982, Note_on_c, 2, 66, 0
4, 90000, Note_on_c, 2, 67, 64
4, 90060, Note_on_c, 2, 58, 64
4, 90068, Note_on_c, 2, 67, 0
4, 90102, Note_on_c, 2, 58, 0
4, 90120, Note_on_c, 2, 57, 64
4, 90161, Note_on_c, 2, 57, 0
4, 90180, Note_on_c, 2, 55, 64
4, 90230, Note_on_c, 2, 55, 0
4, 90240, Note_on_c, 2, 57, 64
4, 90477, Note_on_c, 2, 57, 0
4, 91080, Note_on_c, 2, 71, 64
4, 91150, Note_on_c, 2, 71, 0
4, 91200, Note_on_c, 2, 69, 64
4, 91619, Note_on_c, 2, 69, 0
4, 91680, Note_on_c, 2, 69, 64
4, 92160, Note_on_c, 2, 69, 0
4, 92160, End_track
5, 0, Start_track
5, 0, MIDI_port, 0
5, 0, Title_t, "alto 2"
5, 0, Program_c, 3, 19
5, 0, Control_c, 3, 7, 127
5, 0, Control_c, 3, 10, 64
5, 28083, Note_on_c, 3, 64, 55
5, 28201, Note_on_c, 3, 64, 0
5, 57966, Note_on_c, 3, 58, 80
5, 58075, Note_on_c, 3, 58, 0
5, 58547, Note_on_c, 3, 60, 58
5, 58672, Note_on_c, 3, 60, 0
5, 58789, Note_on_c, 3, 58, 58
5, 58906, Note_on_c, 3, 58, 0
5, 59035, Note_on_c, 3, 57, 80
5, 59153, Note_on_c, 3, 57, 0
5, 59273, Note_on_c, 3, 55, 58
5, 59379, Note_on_c, 3, 55, 0
5, 62042, Note_on_c, 3, 53, 58
5, 62158, Note_on_c, 3, 53, 0
5, 62166, Note_on_c, 3, 55, 62
5, 62280, Note_on_c, 3, 55, 0
5, 62284, Note_on_c, 3, 58, 66
5, 62407, Note_on_c, 3, 57, 80
5, 62413, Note_on_c, 3, 58, 0
5, 62538, Note_on_c, 3, 57, 0
5, 79692, Note_on_c, 3, 53, 58
5, 79804, Note_on_c, 3, 53, 0
5, 90240, Note_on_c, 3, 64, 43
5, 90485, Note_on_c, 3, 64, 0
5, 90485, End_track
6, 0, Start_track
6, 0, MIDI_port, 0
6, 0, Title_t, "tenor"
6, 0, Program_c, 4, 19
6, 0, Control_c, 4, 7, 127
6, 0, Control_c, 4, 10, 64
6, 120, Note_on_c, 4, 69, 64
6, 176, Note_on_c, 4, 69, 0
6, 240, Note_on_c, 4, 69, 64
6, 294, Note_on_c, 4, 69, 0
6, 360, Note_on_c, 4, 69, 64
6, 408, Note_on_c, 4, 69, 0
6, 480, Note_on_c, 4, 69, 64
6, 600, Note_on_c, 4, 67, 64
6, 603, Note_on_c, 4, 69, 0
6, 640, Note_on_c, 4, 67, 0
6, 660, Note_on_c, 4, 65, 64
6, 707, Note_on_c, 4, 65, 0
6, 720, Note_on_c, 4, 67, 64
6, 815, Note_on_c, 4, 67, 0
6, 840, Note_on_c, 4, 64, 64
6, 908, Note_on_c, 4, 64, 0
6, 960, Note_on_c, 4, 65, 64
6, 1030, Note_on_c, 4, 65, 0
6, 1200, Note_on_c, 4, 70, 64
6, 1271, Note_on_c, 4, 70, 0
6, 1440, Note_on_c, 4, 64, 64
6, 1515, Note_on_c, 4, 64, 0
6, 1680, Note_on_c, 4, 69, 64
6, 1750, Note_on_c, 4, 69, 0
6, 1920, Note_on_c, 4, 69, 64
6, 2036, Note_on_c, 4, 69, 0
6, 2040, Note_on_c, 4, 67, 64
6, 2077, Note_on_c, 4, 67, 0
6, 2100, Note_on_c, 4, 65, 64
6, 2136, Note_on_c, 4, 65, 0
6, 2160, Note_on_c, 4, 67, 64
6, 2222, Note_on_c, 4, 67, 0
6, 2280, Note_on_c, 4, 64, 64
6, 2327, Note_on_c, 4, 64, 0
6, 2400, Note_on_c, 4, 65, 64
6, 2485, Note_on_c, 4, 65, 0
6, 2640, Note_on_c, 4, 64, 64
6, 2704, Note_on_c, 4, 64, 0
6, 2880, Note_on_c, 4, 62, 64
6, 3172, Note_on_c, 4, 62, 0
6, 3180, Note_on_c, 4, 65, 64
6, 3214, Note_on_c, 4, 65, 0
6, 3240, Note_on_c, 4, 64, 64
6, 3300, Note_on_c, 4, 64, 0
6, 3300, Note_on_c, 4, 65, 64
6, 3329, Note_on_c, 4, 65, 0
6, 3330, Note_on_c, 4, 67, 64
6, 3365, Note_on_c, 4, 61, 64
6, 3370, Note_on_c, 4, 67, 0
6, 3459, Note_on_c, 4, 61, 0
6, 3600, Note_on_c, 4, 62, 64
6, 3649, Note_on_c, 4, 62, 0
6, 3840, Note_on_c, 4, 62, 64
6, 3892, Note_on_c, 4, 62, 0
6, 4080, Note_on_c, 4, 61, 64
6, 4144, Note_on_c, 4, 61, 0
6, 4320, Note_on_c, 4, 62, 64
6, 4387, Note_on_c, 4, 62, 0
6, 4560, Note_on_c, 4, 62, 64
6, 4626, Note_on_c, 4, 62, 0
6, 4800, Note_on_c, 4, 64, 64
6, 4883, Note_on_c, 4, 64, 0
6, 5040, Note_on_c, 4, 64, 64
6, 5131, Note_on_c, 4, 64, 0
6, 5280, Note_on_c, 4, 69, 64
6, 5351, Note_on_c, 4, 69, 0
6, 5520, Note_on_c, 4, 69, 64
6, 5588, Note_on_c, 4, 69, 0
6, 5760, Note_on_c, 4, 67, 64
6, 5828, Note_on_c, 4, 67, 0
6, 6000, Note_on_c, 4, 64, 64
6, 6058, Note_on_c, 4, 64, 0
6, 6240, Note_on_c, 4, 64, 64
6, 6307, Note_on_c, 4, 64, 0
6, 6720, Note_on_c, 4, 57, 64
6, 6720, Note_on_c, 4, 57, 64
6, 6794, Note_on_c, 4, 57, 0
6, 6822, Note_on_c, 4, 57, 0
6, 7200, Note_on_c, 4, 57, 64
6, 7281, Note_on_c, 4, 57, 0
6, 7440, Note_on_c, 4, 57, 64
6, 7517, Note_on_c, 4, 57, 0
6, 7680, Note_on_c, 4, 55, 64
6, 7768, Note_on_c, 4, 55, 0
6, 8160, Note_on_c, 4, 55, 64
6, 8247, Note_on_c, 4, 55, 0
6, 8400, Note_on_c, 4, 55, 64
6, 8465, Note_on_c, 4, 55, 0
6, 8640, Note_on_c, 4, 53, 64
6, 8722, Note_on_c, 4, 53, 0
6, 9000, Note_on_c, 4, 50, 64
6, 9047, Note_on_c, 4, 50, 0
6, 9120, Note_on_c, 4, 50, 64
6, 9210, Note_on_c, 4, 50, 0
6, 9480, Note_on_c, 4, 55, 64
6, 9530, Note_on_c, 4, 55, 0
6, 9600, Note_on_c, 4, 52, 64
6, 9683, Note_on_c, 4, 52, 0
6, 9960, Note_on_c, 4, 52, 64
6, 10006, Note_on_c, 4, 52, 0
6, 10080, Note_on_c, 4, 50, 64
6, 10200, Note_on_c, 4, 52, 64
6, 10201, Note_on_c, 4, 50, 0
6, 10299, Note_on_c, 4, 52, 0
6, 10320, Note_on_c, 4, 50, 64
6, 10411, Note_on_c, 4, 50, 0
6, 10440, Note_on_c, 4, 58, 64
6, 10509, Note_on_c, 4, 58, 0
6, 10560, Note_on_c, 4, 52, 64
6, 10799, Note_on_c, 4, 52, 0
6, 10920, Note_on_c, 4, 69, 64
6, 10982, Note_on_c, 4, 69, 0
6, 11040, Note_on_c, 4, 67, 64
6, 11163, Note_on_c, 4, 67, 0
6, 11400, Note_on_c, 4, 67, 64
6, 11450, Note_on_c, 4, 67, 0
6, 11520, Note_on_c, 4, 65, 64
6, 11789, Note_on_c, 4, 65, 0
6, 11820, Note_on_c, 4, 65, 64
6, 11920, Note_on_c, 4, 65, 0
6, 11940, Note_on_c, 4, 66, 64
6, 11966, Note_on_c, 4, 66, 0
6, 12000, Note_on_c, 4, 67, 64
6, 12110, Note_on_c, 4, 67, 0
6, 12240, Note_on_c, 4, 62, 64
6, 12314, Note_on_c, 4, 62, 0
6, 12480, Note_on_c, 4, 58, 64
6, 12480, Note_on_c, 4, 58, 64
6, 12565, Note_on_c, 4, 58, 0
6, 12631, Note_on_c, 4, 58, 0
6, 13080, Note_on_c, 4, 58, 64
6, 13135, Note_on_c, 4, 58, 0
6, 13200, Note_on_c, 4, 58, 64
6, 13311, Note_on_c, 4, 58, 0
6, 13320, Note_on_c, 4, 57, 64
6, 13361, Note_on_c, 4, 57, 0
6, 13440, Note_on_c, 4, 57, 64
6, 13556, Note_on_c, 4, 57, 0
6, 15960, Note_on_c, 4, 57, 64
6, 16011, Note_on_c, 4, 57, 0
6, 16080, Note_on_c, 4, 57, 64
6, 16137, Note_on_c, 4, 57, 0
6, 16200, Note_on_c, 4, 57, 64
6, 16243, Note_on_c, 4, 57, 0
6, 16320, Note_on_c, 4, 57, 64
6, 16440, Note_on_c, 4, 55, 64
6, 16441, Note_on_c, 4, 57, 0
6, 16476, Note_on_c, 4, 55, 0
6, 16500, Note_on_c, 4, 54, 64
6, 16534, Note_on_c, 4, 54, 0
6, 16560, Note_on_c, 4, 55, 64
6, 16675, Note_on_c, 4, 55, 0
6, 16680, Note_on_c, 4, 52, 64
6, 16799, Note_on_c, 4, 52, 0
6, 16800, Note_on_c, 4, 54, 64
6, 16869, Note_on_c, 4, 54, 0
6, 16920, Note_on_c, 4, 55, 64
6, 16951, Note_on_c, 4, 55, 0
6, 16980, Note_on_c, 4, 54, 64
6, 17013, Note_on_c, 4, 54, 0
6, 17040, Note_on_c, 4, 55, 64
6, 17160, Note_on_c, 4, 58, 64
6, 17171, Note_on_c, 4, 55, 0
6, 17280, Note_on_c, 4, 52, 64
6, 17285, Note_on_c, 4, 58, 0
6, 17400, Note_on_c, 4, 49, 64
6, 17401, Note_on_c, 4, 52, 0
6, 17505, Note_on_c, 4, 49, 0
6, 17520, Note_on_c, 4, 50, 64
6, 17636, Note_on_c, 4, 50, 0
6, 18120, Note_on_c, 4, 69, 64
6, 18219, Note_on_c, 4, 69, 0
6, 18240, Note_on_c, 4, 66, 64
6, 18349, Note_on_c, 4, 66, 0
6, 18360, Note_on_c, 4, 62, 64
6, 18450, Note_on_c, 4, 62, 0
6, 18600, Note_on_c, 4, 64, 64
6, 18700, Note_on_c, 4, 64, 0
6, 18720, Note_on_c, 4, 61, 64
6, 18835, Note_on_c, 4, 61, 0
6, 18840, Note_on_c, 4, 57, 64
6, 18912, Note_on_c, 4, 57, 0
6, 19080, Note_on_c, 4, 71, 64
6, 19163, Note_on_c, 4, 71, 0
6, 19200, Note_on_c, 4, 68, 64
6, 19299, Note_on_c, 4, 68, 0
6, 19320, Note_on_c, 4, 64, 64
6, 19405, Note_on_c, 4, 64, 0
6, 19440, Note_on_c, 4, 60, 64
6, 19534, Note_on_c, 4, 60, 0
6, 19560, Note_on_c, 4, 57, 64
6, 19680, Note_on_c, 4, 64, 64
6, 19686, Note_on_c, 4, 57, 0
6, 19735, Note_on_c, 4, 64, 0
6, 19920, Note_on_c, 4, 64, 64
6, 19997, Note_on_c, 4, 64, 0
6, 20160, Note_on_c, 4, 64, 64
6, 20245, Note_on_c, 4, 64, 0
6, 20400, Note_on_c, 4, 59, 64
6, 20507, Note_on_c, 4, 59, 0
6, 20760, Note_on_c, 4, 67, 64
6, 20861, Note_on_c, 4, 67, 0
6, 20880, Note_on_c, 4, 65, 64
6, 21000, Note_on_c, 4, 64, 64
6, 21002, Note_on_c, 4, 65, 0
6, 21115, Note_on_c, 4, 64, 0
6, 21120, Note_on_c, 4, 62, 64
6, 21240, Note_on_c, 4, 64, 64
6, 21241, Note_on_c, 4, 62, 0
6, 21351, Note_on_c, 4, 64, 0
6, 21360, Note_on_c, 4, 65, 64
6, 21480, Note_on_c, 4, 64, 64
6, 21486, Note_on_c, 4, 65, 0
6, 21535, Note_on_c, 4, 64, 0
6, 21540, Note_on_c, 4, 63, 64
6, 21579, Note_on_c, 4, 63, 0
6, 21600, Note_on_c, 4, 64, 64
6, 21660, Note_on_c, 4, 59, 64
6, 21669, Note_on_c, 4, 64, 0
6, 21720, Note_on_c, 4, 57, 64
6, 21722, Note_on_c, 4, 59, 0
6, 21766, Note_on_c, 4, 57, 0
6, 21780, Note_on_c, 4, 56, 64
6, 21808, Note_on_c, 4, 56, 0
6, 21840, Note_on_c, 4, 57, 64
6, 21900, Note_on_c, 4, 59, 64
6, 21912, Note_on_c, 4, 57, 0
6, 21949, Note_on_c, 4, 59, 0
6, 21960, Note_on_c, 4, 60, 64
6, 22140, Note_on_c, 4, 57, 64
6, 22152, Note_on_c, 4, 60, 0
6, 22183, Note_on_c, 4, 57, 0
6, 22200, Note_on_c, 4, 62, 64
6, 22253, Note_on_c, 4, 62, 0
6, 22260, Note_on_c, 4, 60, 64
6, 22299, Note_on_c, 4, 60, 0
6, 22320, Note_on_c, 4, 62, 64
6, 22427, Note_on_c, 4, 62, 0
6, 22440, Note_on_c, 4, 60, 64
6, 22600, Note_on_c, 4, 60, 0
6, 22620, Note_on_c, 4, 60, 64
6, 22671, Note_on_c, 4, 60, 0
6, 22680, Note_on_c, 4, 59, 64
6, 22729, Note_on_c, 4, 59, 0
6, 22740, Note_on_c, 4, 57, 64
6, 22786, Note_on_c, 4, 57, 0
6, 22800, Note_on_c, 4, 59, 64
6, 22893, Note_on_c, 4, 59, 0
6, 22920, Note_on_c, 4, 54, 64
6, 23030, Note_on_c, 4, 54, 0
6, 23040, Note_on_c, 4, 52, 64
6, 23377, Note_on_c, 4, 52, 0
6, 23400, Note_on_c, 4, 50, 64
6, 23466, Note_on_c, 4, 50, 0
6, 23520, Note_on_c, 4, 48, 64
6, 23655, Note_on_c, 4, 48, 0
6, 24000, Note_on_c, 4, 59, 64
6, 24111, Note_on_c, 4, 59, 0
6, 24360, Note_on_c, 4, 61, 64
6, 24466, Note_on_c, 4, 61, 0
6, 24480, Note_on_c, 4, 62, 64
6, 24547, Note_on_c, 4, 62, 0
6, 24600, Note_on_c, 4, 62, 64
6, 24640, Note_on_c, 4, 62, 0
6, 24720, Note_on_c, 4, 62, 64
6, 24767, Note_on_c, 4, 62, 0
6, 24840, Note_on_c, 4, 62, 64
6, 24883, Note_on_c, 4, 62, 0
6, 24960, Note_on_c, 4, 62, 64
6, 25080, Note_on_c, 4, 60, 64
6, 25091, Note_on_c, 4, 62, 0
6, 25118, Note_on_c, 4, 60, 0
6, 25140, Note_on_c, 4, 58, 64
6, 25182, Note_on_c, 4, 58, 0
6, 25200, Note_on_c, 4, 60, 64
6, 25309, Note_on_c, 4, 60, 0
6, 25320, Note_on_c, 4, 57, 64
6, 25420, Note_on_c, 4, 57, 0
6, 25440, Note_on_c, 4, 58, 64
6, 25524, Note_on_c, 4, 58, 0
6, 25680, Note_on_c, 4, 59, 64
6, 25758, Note_on_c, 4, 59, 0
6, 25920, Note_on_c, 4, 61, 64
6, 25992, Note_on_c, 4, 61, 0
6, 26160, Note_on_c, 4, 62, 64
6, 26236, Note_on_c, 4, 62, 0
6, 26400, Note_on_c, 4, 62, 64
6, 26520, Note_on_c, 4, 60, 64
6, 26534, Note_on_c, 4, 62, 0
6, 26558, Note_on_c, 4, 60, 0
6, 26580, Note_on_c, 4, 59, 64
6, 26623, Note_on_c, 4, 59, 0
6, 26640, Note_on_c, 4, 60, 64
6, 26750, Note_on_c, 4, 60, 0
6, 26760, Note_on_c, 4, 62, 64
6, 26813, Note_on_c, 4, 62, 0
6, 26820, Note_on_c, 4, 60, 64
6, 26856, Note_on_c, 4, 60, 0
6, 26880, Note_on_c, 4, 59, 64
6, 26991, Note_on_c, 4, 59, 0
6, 27360, Note_on_c, 4, 59, 64
6, 27459, Note_on_c, 4, 59, 0
6, 27600, Note_on_c, 4, 64, 64
6, 27689, Note_on_c, 4, 64, 0
6, 27840, Note_on_c, 4, 64, 64
6, 27933, Note_on_c, 4, 64, 0
6, 28080, Note_on_c, 4, 59, 64
6, 28180, Note_on_c, 4, 59, 0
6, 28320, Note_on_c, 4, 60, 64
6, 28426, Note_on_c, 4, 60, 0
6, 28680, Note_on_c, 4, 64, 64
6, 28738, Note_on_c, 4, 64, 0
6, 28800, Note_on_c, 4, 60, 64
6, 28883, Note_on_c, 4, 60, 0
6, 29160, Note_on_c, 4, 62, 64
6, 29219, Note_on_c, 4, 62, 0
6, 29280, Note_on_c, 4, 64, 64
6, 29387, Note_on_c, 4, 64, 0
6, 29640, Note_on_c, 4, 64, 64
6, 29701, Note_on_c, 4, 64, 0
6, 29760, Note_on_c, 4, 62, 64
6, 29848, Note_on_c, 4, 62, 0
6, 30000, Note_on_c, 4, 64, 64
6, 30074, Note_on_c, 4, 64, 0
6, 30240, Note_on_c, 4, 66, 64
6, 30310, Note_on_c, 4, 66, 0
6, 30480, Note_on_c, 4, 64, 64
6, 30547, Note_on_c, 4, 64, 0
6, 30720, Note_on_c, 4, 64, 64
6, 30804, Note_on_c, 4, 64, 0
6, 30960, Note_on_c, 4, 62, 64
6, 31033, Note_on_c, 4, 62, 0
6, 31200, Note_on_c, 4, 62, 64
6, 31286, Note_on_c, 4, 62, 0
6, 31440, Note_on_c, 4, 60, 64
6, 31514, Note_on_c, 4, 60, 0
6, 31680, Note_on_c, 4, 60, 64
6, 31781, Note_on_c, 4, 60, 0
6, 31920, Note_on_c, 4, 57, 64
6, 31998, Note_on_c, 4, 57, 0
6, 32160, Note_on_c, 4, 59, 64
6, 32225, Note_on_c, 4, 59, 0
6, 32520, Note_on_c, 4, 62, 64
6, 32599, Note_on_c, 4, 62, 0
6, 32640, Note_on_c, 4, 60, 64
6, 32715, Note_on_c, 4, 60, 0
6, 33000, Note_on_c, 4, 62, 64
6, 33056, Note_on_c, 4, 62, 0
6, 33120, Note_on_c, 4, 60, 64
6, 33200, Note_on_c, 4, 60, 0
6, 33360, Note_on_c, 4, 61, 64
6, 33420, Note_on_c, 4, 61, 0
6, 33600, Note_on_c, 4, 62, 64
6, 33653, Note_on_c, 4, 62, 0
6, 33660, Note_on_c, 4, 64, 64
6, 33715, Note_on_c, 4, 64, 0
6, 33720, Note_on_c, 4, 62, 64
6, 33758, Note_on_c, 4, 62, 0
6, 33780, Note_on_c, 4, 60, 64
6, 33811, Note_on_c, 4, 60, 0
6, 33840, Note_on_c, 4, 60, 64
6, 33892, Note_on_c, 4, 60, 0
6, 33900, Note_on_c, 4, 62, 64
6, 33960, Note_on_c, 4, 60, 64
6, 33964, Note_on_c, 4, 62, 0
6, 34003, Note_on_c, 4, 60, 0
6, 34020, Note_on_c, 4, 59, 64
6, 34058, Note_on_c, 4, 59, 0
6, 34080, Note_on_c, 4, 59, 64
6, 34145, Note_on_c, 4, 60, 64
6, 34146, Note_on_c, 4, 59, 0
6, 34200, Note_on_c, 4, 59, 64
6, 34205, Note_on_c, 4, 60, 0
6, 34260, Note_on_c, 4, 59, 0
6, 34260, Note_on_c, 4, 57, 64
6, 34290, Note_on_c, 4, 57, 0
6, 34320, Note_on_c, 4, 57, 64
6, 34380, Note_on_c, 4, 59, 64
6, 34392, Note_on_c, 4, 57, 0
6, 34440, Note_on_c, 4, 59, 0
6, 34440, Note_on_c, 4, 57, 64
6, 34495, Note_on_c, 4, 57, 0
6, 34500, Note_on_c, 4, 56, 64
6, 34539, Note_on_c, 4, 56, 0
6, 34560, Note_on_c, 4, 56, 64
6, 34560, Note_on_c, 4, 56, 64
6, 34662, Note_on_c, 4, 56, 0
6, 34680, Note_on_c, 4, 52, 64
6, 34683, Note_on_c, 4, 56, 0
6, 34759, Note_on_c, 4, 52, 0
6, 34800, Note_on_c, 4, 64, 64
6, 34915, Note_on_c, 4, 64, 0
6, 34920, Note_on_c, 4, 65, 64
6, 35036, Note_on_c, 4, 65, 0
6, 35040, Note_on_c, 4, 64, 64
6, 36349, Note_on_c, 4, 64, 0
6, 36360, Note_on_c, 4, 65, 64
6, 36600, Note_on_c, 4, 64, 64
6, 36620, Note_on_c, 4, 65, 0
6, 36703, Note_on_c, 4, 64, 0
6, 36720, Note_on_c, 4, 65, 64
6, 36840, Note_on_c, 4, 62, 64
6, 36845, Note_on_c, 4, 65, 0
6, 36906, Note_on_c, 4, 62, 0
6, 36960, Note_on_c, 4, 62, 64
6, 37222, Note_on_c, 4, 62, 0
6, 37320, Note_on_c, 4, 62, 64
6, 37421, Note_on_c, 4, 62, 0
6, 37440, Note_on_c, 4, 60, 64
6, 37571, Note_on_c, 4, 60, 0
6, 37800, Note_on_c, 4, 68, 64
6, 37903, Note_on_c, 4, 68, 0
6, 37920, Note_on_c, 4, 69, 64
6, 38024, Note_on_c, 4, 69, 0
6, 38280, Note_on_c, 4, 65, 64
6, 38383, Note_on_c, 4, 65, 0
6, 38400, Note_on_c, 4, 64, 64
6, 38477, Note_on_c, 4, 64, 0
6, 38760, Note_on_c, 4, 62, 64
6, 38867, Note_on_c, 4, 62, 0
6, 38880, Note_on_c, 4, 60, 64
6, 38963, Note_on_c, 4, 60, 0
6, 39240, Note_on_c, 4, 60, 64
6, 39338, Note_on_c, 4, 60, 0
6, 39360, Note_on_c, 4, 62, 64
6, 39448, Note_on_c, 4, 62, 0
6, 39720, Note_on_c, 4, 64, 64
6, 39817, Note_on_c, 4, 64, 0
6, 39840, Note_on_c, 4, 65, 64
6, 39929, Note_on_c, 4, 65, 0
6, 40200, Note_on_c, 4, 64, 64
6, 40298, Note_on_c, 4, 64, 0
6, 40320, Note_on_c, 4, 62, 64
6, 40401, Note_on_c, 4, 62, 0
6, 40680, Note_on_c, 4, 64, 64
6, 40771, Note_on_c, 4, 64, 0
6, 40800, Note_on_c, 4, 65, 64
6, 40887, Note_on_c, 4, 65, 0
6, 41160, Note_on_c, 4, 65, 64
6, 41225, Note_on_c, 4, 65, 0
6, 41280, Note_on_c, 4, 64, 64
6, 41368, Note_on_c, 4, 64, 0
6, 42120, Note_on_c, 4, 64, 64
6, 42184, Note_on_c, 4, 64, 0
6, 42240, Note_on_c, 4, 62, 64
6, 42359, Note_on_c, 4, 62, 0
6, 42360, Note_on_c, 4, 57, 64
6, 42420, Note_on_c, 4, 57, 0
6, 42480, Note_on_c, 4, 53, 64
6, 42583, Note_on_c, 4, 53, 0
6, 42600, Note_on_c, 4, 50, 64
6, 42676, Note_on_c, 4, 50, 0
6, 42720, Note_on_c, 4, 52, 64
6, 42835, Note_on_c, 4, 52, 0
6, 42840, Note_on_c, 4, 57, 64
6, 42919, Note_on_c, 4, 57, 0
6, 42960, Note_on_c, 4, 54, 64
6, 43053, Note_on_c, 4, 54, 0
6, 43080, Note_on_c, 4, 50, 64
6, 43151, Note_on_c, 4, 50, 0
6, 43200, Note_on_c, 4, 55, 64
6, 43295, Note_on_c, 4, 55, 0
6, 44040, Note_on_c, 4, 62, 64
6, 44116, Note_on_c, 4, 62, 0
6, 44160, Note_on_c, 4, 60, 64
6, 44280, Note_on_c, 4, 58, 64
6, 44283, Note_on_c, 4, 60, 0
6, 44389, Note_on_c, 4, 58, 0
6, 44400, Note_on_c, 4, 57, 64
6, 44506, Note_on_c, 4, 57, 0
6, 44520, Note_on_c, 4, 60, 64
6, 44606, Note_on_c, 4, 60, 0
6, 44640, Note_on_c, 4, 58, 64
6, 44756, Note_on_c, 4, 58, 0
6, 44760, Note_on_c, 4, 57, 64
6, 44865, Note_on_c, 4, 57, 0
6, 44880, Note_on_c, 4, 55, 64
6, 44990, Note_on_c, 4, 55, 0
6, 45000, Note_on_c, 4, 58, 64
6, 45092, Note_on_c, 4, 58, 0
6, 45240, Note_on_c, 4, 57, 64
6, 45358, Note_on_c, 4, 57, 0
6, 45360, Note_on_c, 4, 55, 64
6, 45599, Note_on_c, 4, 55, 0
6, 45600, Note_on_c, 4, 53, 64
6, 45840, Note_on_c, 4, 55, 64
6, 45850, Note_on_c, 4, 53, 0
6, 46080, Note_on_c, 4, 54, 64
6, 46084, Note_on_c, 4, 55, 0
6, 46179, Note_on_c, 4, 54, 0
6, 46560, Note_on_c, 4, 54, 64
6, 46643, Note_on_c, 4, 54, 0
6, 47040, Note_on_c, 4, 55, 64
6, 47143, Note_on_c, 4, 55, 0
6, 47520, Note_on_c, 4, 55, 64
6, 47619, Note_on_c, 4, 55, 0
6, 48000, Note_on_c, 4, 55, 64
6, 48089, Note_on_c, 4, 55, 0
6, 48480, Note_on_c, 4, 55, 64
6, 48567, Note_on_c, 4, 55, 0
6, 48960, Note_on_c, 4, 55, 64
6, 49040, Note_on_c, 4, 55, 0
6, 49440, Note_on_c, 4, 55, 64
6, 49506, Note_on_c, 4, 55, 0
6, 49920, Note_on_c, 4, 55, 64
6, 50015, Note_on_c, 4, 55, 0
6, 51000, Note_on_c, 4, 62, 64
6, 51056, Note_on_c, 4, 62, 0
6, 51120, Note_on_c, 4, 62, 64
6, 51172, Note_on_c, 4, 62, 0
6, 51240, Note_on_c, 4, 62, 64
6, 51278, Note_on_c, 4, 62, 0
6, 51360, Note_on_c, 4, 62, 64
6, 51475, Note_on_c, 4, 62, 0
6, 51480, Note_on_c, 4, 60, 64
6, 51525, Note_on_c, 4, 60, 0
6, 51540, Note_on_c, 4, 58, 64
6, 51571, Note_on_c, 4, 58, 0
6, 51600, Note_on_c, 4, 60, 64
6, 51698, Note_on_c, 4, 60, 0
6, 51720, Note_on_c, 4, 57, 64
6, 51786, Note_on_c, 4, 57, 0
6, 51840, Note_on_c, 4, 58, 64
6, 51937, Note_on_c, 4, 58, 0
6, 52200, Note_on_c, 4, 62, 64
6, 52255, Note_on_c, 4, 62, 0
6, 52320, Note_on_c, 4, 62, 64
6, 52414, Note_on_c, 4, 62, 0
6, 52680, Note_on_c, 4, 62, 64
6, 52729, Note_on_c, 4, 62, 0
6, 52800, Note_on_c, 4, 62, 64
6, 52903, Note_on_c, 4, 62, 0
6, 53160, Note_on_c, 4, 58, 64
6, 53220, Note_on_c, 4, 58, 0
6, 53220, Note_on_c, 4, 57, 64
6, 53273, Note_on_c, 4, 57, 0
6, 53280, Note_on_c, 4, 55, 64
6, 53340, Note_on_c, 4, 53, 64
6, 53352, Note_on_c, 4, 55, 0
6, 53382, Note_on_c, 4, 53, 0
6, 53400, Note_on_c, 4, 52, 64
6, 53520, Note_on_c, 4, 50, 64
6, 53522, Note_on_c, 4, 52, 0
6, 53896, Note_on_c, 4, 50, 0
6, 54240, Note_on_c, 4, 57, 64
6, 54351, Note_on_c, 4, 57, 0
6, 54600, Note_on_c, 4, 59, 64
6, 54720, Note_on_c, 4, 60, 64
6, 54728, Note_on_c, 4, 59, 0
6, 54771, Note_on_c, 4, 60, 0
6, 54840, Note_on_c, 4, 60, 64
6, 54877, Note_on_c, 4, 60, 0
6, 54960, Note_on_c, 4, 60, 64
6, 55007, Note_on_c, 4, 60, 0
6, 55080, Note_on_c, 4, 60, 64
6, 55120, Note_on_c, 4, 60, 0
6, 55200, Note_on_c, 4, 60, 64
6, 55309, Note_on_c, 4, 60, 0
6, 55320, Note_on_c, 4, 58, 64
6, 55354, Note_on_c, 4, 58, 0
6, 55380, Note_on_c, 4, 57, 64
6, 55412, Note_on_c, 4, 57, 0
6, 55440, Note_on_c, 4, 58, 64
6, 55540, Note_on_c, 4, 58, 0
6, 55560, Note_on_c, 4, 55, 64
6, 55674, Note_on_c, 4, 55, 0
6, 55680, Note_on_c, 4, 57, 64
6, 55725, Note_on_c, 4, 57, 0
6, 55800, Note_on_c, 4, 57, 64
6, 55845, Note_on_c, 4, 57, 0
6, 55860, Note_on_c, 4, 55, 64
6, 55902, Note_on_c, 4, 55, 0
6, 55920, Note_on_c, 4, 57, 64
6, 55976, Note_on_c, 4, 57, 0
6, 56040, Note_on_c, 4, 57, 64
6, 56083, Note_on_c, 4, 57, 0
6, 56160, Note_on_c, 4, 57, 64
6, 56279, Note_on_c, 4, 57, 0
6, 56280, Note_on_c, 4, 55, 64
6, 56319, Note_on_c, 4, 55, 0
6, 56340, Note_on_c, 4, 53, 64
6, 56385, Note_on_c, 4, 53, 0
6, 56400, Note_on_c, 4, 55, 64
6, 56496, Note_on_c, 4, 55, 0
6, 56520, Note_on_c, 4, 60, 64
6, 56575, Note_on_c, 4, 60, 0
6, 56640, Note_on_c, 4, 60, 64
6, 56640, Note_on_c, 4, 60, 64
6, 56727, Note_on_c, 4, 60, 0
6, 56771, Note_on_c, 4, 60, 0
6, 57000, Note_on_c, 4, 60, 64
6, 57103, Note_on_c, 4, 60, 0
6, 57120, Note_on_c, 4, 62, 64
6, 57238, Note_on_c, 4, 62, 0
6, 57240, Note_on_c, 4, 64, 64
6, 57346, Note_on_c, 4, 64, 0
6, 57600, Note_on_c, 4, 62, 64
6, 57717, Note_on_c, 4, 62, 0
6, 57960, Note_on_c, 4, 62, 64
6, 58063, Note_on_c, 4, 62, 0
6, 58080, Note_on_c, 4, 64, 64
6, 58195, Note_on_c, 4, 64, 0
6, 58200, Note_on_c, 4, 65, 64
6, 58312, Note_on_c, 4, 65, 0
6, 58320, Note_on_c, 4, 62, 64
6, 58407, Note_on_c, 4, 62, 0
6, 59640, Note_on_c, 4, 60, 64
6, 59706, Note_on_c, 4, 60, 0
6, 59760, Note_on_c, 4, 60, 64
6, 59829, Note_on_c, 4, 60, 0
6, 59880, Note_on_c, 4, 60, 64
6, 59939, Note_on_c, 4, 60, 0
6, 60000, Note_on_c, 4, 60, 64
6, 60116, Note_on_c, 4, 60, 0
6, 60120, Note_on_c, 4, 62, 64
6, 60180, Note_on_c, 4, 60, 64
6, 60183, Note_on_c, 4, 62, 0
6, 60219, Note_on_c, 4, 60, 0
6, 60240, Note_on_c, 4, 58, 64
6, 60328, Note_on_c, 4, 58, 0
6, 60360, Note_on_c, 4, 57, 64
6, 60418, Note_on_c, 4, 57, 0
6, 60480, Note_on_c, 4, 55, 64
6, 60590, Note_on_c, 4, 55, 0
6, 60600, Note_on_c, 4, 53, 64
6, 60693, Note_on_c, 4, 53, 0
6, 60720, Note_on_c, 4, 57, 64
6, 60829, Note_on_c, 4, 57, 0
6, 60840, Note_on_c, 4, 60, 64
6, 60934, Note_on_c, 4, 60, 0
6, 60960, Note_on_c, 4, 62, 64
6, 61075, Note_on_c, 4, 62, 0
6, 61080, Note_on_c, 4, 58, 64
6, 61182, Note_on_c, 4, 58, 0
6, 61200, Note_on_c, 4, 60, 64
6, 61247, Note_on_c, 4, 60, 0
6, 61320, Note_on_c, 4, 60, 64
6, 61370, Note_on_c, 4, 60, 0
6, 61440, Note_on_c, 4, 62, 64
6, 61560, Note_on_c, 4, 60, 64
6, 61565, Note_on_c, 4, 62, 0
6, 61680, Note_on_c, 4, 60, 0
6, 61680, Note_on_c, 4, 58, 64
6, 61772, Note_on_c, 4, 58, 0
6, 61800, Note_on_c, 4, 67, 64
6, 61884, Note_on_c, 4, 67, 0
6, 61920, Note_on_c, 4, 60, 64
6, 62030, Note_on_c, 4, 60, 0
6, 62040, Note_on_c, 4, 65, 64
6, 62094, Note_on_c, 4, 65, 0
6, 62160, Note_on_c, 4, 65, 64
6, 62277, Note_on_c, 4, 65, 0
6, 62280, Note_on_c, 4, 64, 64
6, 62392, Note_on_c, 4, 64, 0
6, 62400, Note_on_c, 4, 65, 64
6, 62529, Note_on_c, 4, 65, 0
6, 65880, Note_on_c, 4, 50, 64
6, 66111, Note_on_c, 4, 50, 0
6, 66120, Note_on_c, 4, 52, 64
6, 66357, Note_on_c, 4, 52, 0
6, 66360, Note_on_c, 4, 55, 64
6, 66458, Note_on_c, 4, 55, 0
6, 66480, Note_on_c, 4, 58, 64
6, 66595, Note_on_c, 4, 58, 0
6, 66600, Note_on_c, 4, 61, 64
6, 66706, Note_on_c, 4, 61, 0
6, 66720, Note_on_c, 4, 64, 64
6, 66819, Note_on_c, 4, 64, 0
6, 66840, Note_on_c, 4, 67, 64
6, 66951, Note_on_c, 4, 67, 0
6, 66960, Note_on_c, 4, 61, 64
6, 67075, Note_on_c, 4, 61, 0
6, 67080, Note_on_c, 4, 64, 64
6, 67191, Note_on_c, 4, 64, 0
6, 67200, Note_on_c, 4, 57, 64
6, 67278, Note_on_c, 4, 57, 0
6, 67320, Note_on_c, 4, 64, 64
6, 67379, Note_on_c, 4, 64, 0
6, 67440, Note_on_c, 4, 57, 64
6, 67508, Note_on_c, 4, 57, 0
6, 67560, Note_on_c, 4, 61, 64
6, 67617, Note_on_c, 4, 61, 0
6, 67680, Note_on_c, 4, 57, 64
6, 67747, Note_on_c, 4, 57, 0
6, 67800, Note_on_c, 4, 64, 64
6, 67861, Note_on_c, 4, 64, 0
6, 67920, Note_on_c, 4, 57, 64
6, 67979, Note_on_c, 4, 57, 0
6, 68040, Note_on_c, 4, 61, 64
6, 68086, Note_on_c, 4, 61, 0
6, 68160, Note_on_c, 4, 62, 64
6, 68256, Note_on_c, 4, 62, 0
6, 68280, Note_on_c, 4, 50, 64
6, 68351, Note_on_c, 4, 50, 0
6, 68400, Note_on_c, 4, 53, 64
6, 68450, Note_on_c, 4, 53, 0
6, 68520, Note_on_c, 4, 57, 64
6, 68554, Note_on_c, 4, 57, 0
6, 68640, Note_on_c, 4, 62, 64
6, 68731, Note_on_c, 4, 62, 0
6, 68760, Note_on_c, 4, 50, 64
6, 68819, Note_on_c, 4, 50, 0
6, 68880, Note_on_c, 4, 53, 64
6, 68934, Note_on_c, 4, 53, 0
6, 69000, Note_on_c, 4, 57, 64
6, 69039, Note_on_c, 4, 57, 0
6, 69120, Note_on_c, 4, 61, 64
6, 69206, Note_on_c, 4, 61, 0
6, 69240, Note_on_c, 4, 64, 64
6, 69296, Note_on_c, 4, 64, 0
6, 69360, Note_on_c, 4, 67, 64
6, 69417, Note_on_c, 4, 67, 0
6, 69480, Note_on_c, 4, 64, 64
6, 69526, Note_on_c, 4, 64, 0
6, 69600, Note_on_c, 4, 61, 64
6, 69687, Note_on_c, 4, 61, 0
6, 69720, Note_on_c, 4, 64, 64
6, 69800, Note_on_c, 4, 64, 0
6, 69840, Note_on_c, 4, 57, 64
6, 69913, Note_on_c, 4, 57, 0
6, 69960, Note_on_c, 4, 61, 64
6, 70016, Note_on_c, 4, 61, 0
6, 70080, Note_on_c, 4, 62, 64
6, 70159, Note_on_c, 4, 62, 0
6, 70200, Note_on_c, 4, 65, 64
6, 70270, Note_on_c, 4, 65, 0
6, 70320, Note_on_c, 4, 62, 64
6, 70378, Note_on_c, 4, 62, 0
6, 70440, Note_on_c, 4, 57, 64
6, 70489, Note_on_c, 4, 57, 0
6, 70560, Note_on_c, 4, 62, 64
6, 70634, Note_on_c, 4, 62, 0
6, 70680, Note_on_c, 4, 65, 64
6, 70745, Note_on_c, 4, 65, 0
6, 70800, Note_on_c, 4, 62, 64
6, 70855, Note_on_c, 4, 62, 0
6, 70920, Note_on_c, 4, 57, 64
6, 70963, Note_on_c, 4, 57, 0
6, 71040, Note_on_c, 4, 59, 64
6, 71118, Note_on_c, 4, 59, 0
6, 71160, Note_on_c, 4, 62, 64
6, 71220, Note_on_c, 4, 62, 0
6, 71280, Note_on_c, 4, 65, 64
6, 71332, Note_on_c, 4, 65, 0
6, 71400, Note_on_c, 4, 62, 64
6, 71452, Note_on_c, 4, 62, 0
6, 71520, Note_on_c, 4, 59, 64
6, 71605, Note_on_c, 4, 59, 0
6, 71640, Note_on_c, 4, 62, 64
6, 71698, Note_on_c, 4, 62, 0
6, 71760, Note_on_c, 4, 65, 64
6, 71834, Note_on_c, 4, 65, 0
6, 71885, Note_on_c, 4, 56, 64
6, 71964, Note_on_c, 4, 56, 0
6, 72000, Note_on_c, 4, 57, 64
6, 72087, Note_on_c, 4, 57, 0
6, 72360, Note_on_c, 4, 62, 64
6, 72411, Note_on_c, 4, 62, 0
6, 72480, Note_on_c, 4, 62, 64
6, 72570, Note_on_c, 4, 62, 0
6, 72840, Note_on_c, 4, 64, 64
6, 72881, Note_on_c, 4, 64, 0
6, 72960, Note_on_c, 4, 64, 64
6, 73045, Note_on_c, 4, 64, 0
6, 73080, Note_on_c, 4, 69, 64
6, 73149, Note_on_c, 4, 69, 0
6, 73200, Note_on_c, 4, 69, 64
6, 73319, Note_on_c, 4, 69, 0
6, 73320, Note_on_c, 4, 67, 64
6, 73354, Note_on_c, 4, 67, 0
6, 73380, Note_on_c, 4, 65, 64
6, 73417, Note_on_c, 4, 65, 0
6, 73440, Note_on_c, 4, 67, 64
6, 73557, Note_on_c, 4, 67, 0
6, 73680, Note_on_c, 4, 62, 64
6, 73762, Note_on_c, 4, 62, 0
6, 73920, Note_on_c, 4, 64, 64
6, 74005, Note_on_c, 4, 64, 0
6, 74280, Note_on_c, 4, 62, 64
6, 74331, Note_on_c, 4, 62, 0
6, 74400, Note_on_c, 4, 62, 64
6, 74497, Note_on_c, 4, 62, 0
6, 74760, Note_on_c, 4, 60, 64
6, 74812, Note_on_c, 4, 60, 0
6, 74880, Note_on_c, 4, 60, 64
6, 74965, Note_on_c, 4, 60, 0
6, 75240, Note_on_c, 4, 58, 64
6, 75299, Note_on_c, 4, 58, 0
6, 75360, Note_on_c, 4, 59, 64
6, 75452, Note_on_c, 4, 59, 0
6, 75720, Note_on_c, 4, 57, 64
6, 75772, Note_on_c, 4, 57, 0
6, 75840, Note_on_c, 4, 57, 64
6, 75922, Note_on_c, 4, 57, 0
6, 76320, Note_on_c, 4, 55, 64
6, 76408, Note_on_c, 4, 55, 0
6, 76800, Note_on_c, 4, 52, 64
6, 76882, Note_on_c, 4, 52, 0
6, 77760, Note_on_c, 4, 50, 64
6, 77841, Note_on_c, 4, 50, 0
6, 78000, Note_on_c, 4, 57, 64
6, 78069, Note_on_c, 4, 57, 0
6, 78960, Note_on_c, 4, 61, 64
6, 79045, Note_on_c, 4, 61, 0
6, 79200, Note_on_c, 4, 57, 64
6, 79280, Note_on_c, 4, 57, 0
6, 79440, Note_on_c, 4, 57, 64
6, 79507, Note_on_c, 4, 57, 0
6, 79680, Note_on_c, 4, 59, 64
6, 79760, Note_on_c, 4, 59, 0
6, 80040, Note_on_c, 4, 62, 64
6, 80130, Note_on_c, 4, 62, 0
6, 80160, Note_on_c, 4, 64, 64
6, 80389, Note_on_c, 4, 64, 0
6, 80400, Note_on_c, 4, 65, 64
6, 80640, Note_on_c, 4, 64, 64
6, 80651, Note_on_c, 4, 65, 0
6, 81120, Note_on_c, 4, 62, 64
6, 81139, Note_on_c, 4, 64, 0
6, 81600, Note_on_c, 4, 60, 64
6, 81619, Note_on_c, 4, 62, 0
6, 81876, Note_on_c, 4, 60, 0
6, 81960, Note_on_c, 4, 60, 64
6, 82067, Note_on_c, 4, 60, 0
6, 82080, Note_on_c, 4, 62, 64
6, 82167, Note_on_c, 4, 62, 0
6, 82440, Note_on_c, 4, 62, 64
6, 82497, Note_on_c, 4, 62, 0
6, 82560, Note_on_c, 4, 57, 64
6, 82655, Note_on_c, 4, 57, 0
6, 82920, Note_on_c, 4, 55, 64
6, 83019, Note_on_c, 4, 55, 0
6, 83040, Note_on_c, 4, 53, 64
6, 83159, Note_on_c, 4, 53, 0
6, 83400, Note_on_c, 4, 57, 64
6, 83492, Note_on_c, 4, 57, 0
6, 83520, Note_on_c, 4, 55, 64
6, 83640, Note_on_c, 4, 57, 64
6, 83642, Note_on_c, 4, 55, 0
6, 83683, Note_on_c, 4, 57, 0
6, 83760, Note_on_c, 4, 57, 64
6, 83877, Note_on_c, 4, 57, 0
6, 83880, Note_on_c, 4, 59, 64
6, 84000, Note_on_c, 4, 57, 64
6, 84005, Note_on_c, 4, 59, 0
6, 84603, Note_on_c, 4, 57, 0
6, 84720, Note_on_c, 4, 57, 64
6, 84790, Note_on_c, 4, 57, 0
6, 84960, Note_on_c, 4, 55, 64
6, 85041, Note_on_c, 4, 55, 0
6, 85200, Note_on_c, 4, 57, 64
6, 85275, Note_on_c, 4, 57, 0
6, 85440, Note_on_c, 4, 58, 64
6, 85506, Note_on_c, 4, 58, 0
6, 85680, Note_on_c, 4, 62, 64
6, 85751, Note_on_c, 4, 62, 0
6, 85920, Note_on_c, 4, 55, 64
6, 85990, Note_on_c, 4, 55, 0
6, 86160, Note_on_c, 4, 62, 64
6, 86222, Note_on_c, 4, 62, 0
6, 86400, Note_on_c, 4, 58, 64
6, 86461, Note_on_c, 4, 58, 0
6, 86640, Note_on_c, 4, 62, 64
6, 86700, Note_on_c, 4, 62, 0
6, 88320, Note_on_c, 4, 57, 64
6, 88423, Note_on_c, 4, 57, 0
6, 88440, Note_on_c, 4, 45, 64
6, 88547, Note_on_c, 4, 45, 0
6, 88560, Note_on_c, 4, 47, 64
6, 88671, Note_on_c, 4, 47, 0
6, 88680, Note_on_c, 4, 49, 64
6, 88785, Note_on_c, 4, 49, 0
6, 88800, Note_on_c, 4, 50, 64
6, 88917, Note_on_c, 4, 50, 0
6, 88920, Note_on_c, 4, 53, 64
6, 89037, Note_on_c, 4, 53, 0
6, 89040, Note_on_c, 4, 55, 64
6, 89153, Note_on_c, 4, 55, 0
6, 89160, Note_on_c, 4, 57, 64
6, 89278, Note_on_c, 4, 57, 0
6, 89280, Note_on_c, 4, 58, 64
6, 89395, Note_on_c, 4, 58, 0
6, 89400, Note_on_c, 4, 55, 64
6, 89512, Note_on_c, 4, 55, 0
6, 89520, Note_on_c, 4, 52, 64
6, 89640, Note_on_c, 4, 52, 0
6, 89640, Note_on_c, 4, 54, 64
6, 89755, Note_on_c, 4, 54, 0
6, 89760, Note_on_c, 4, 55, 64
6, 89880, Note_on_c, 4, 52, 64
6, 89883, Note_on_c, 4, 55, 0
6, 89998, Note_on_c, 4, 52, 0
6, 90000, Note_on_c, 4, 49, 64
6, 90107, Note_on_c, 4, 49, 0
6, 90120, Note_on_c, 4, 52, 64
6, 90168, Note_on_c, 4, 52, 0
6, 90240, Note_on_c, 4, 73, 64
6, 90240, Note_on_c, 4, 52, 64
6, 90448, Note_on_c, 4, 52, 0
6, 90604, Note_on_c, 4, 73, 0
6, 90615, Note_on_c, 4, 74, 64
6, 90629, Note_on_c, 4, 74, 0
6, 90630, Note_on_c, 4, 76, 64
6, 90644, Note_on_c, 4, 76, 0
6, 90645, Note_on_c, 4, 73, 64
6, 90659, Note_on_c, 4, 73, 0
6, 90660, Note_on_c, 4, 74, 64
6, 90674, Note_on_c, 4, 74, 0
6, 90675, Note_on_c, 4, 76, 64
6, 90689, Note_on_c, 4, 76, 0
6, 90690, Note_on_c, 4, 67, 64
6, 90704, Note_on_c, 4, 67, 0
6, 90705, Note_on_c, 4, 69, 64
6, 90719, Note_on_c, 4, 69, 0
6, 90720, Note_on_c, 4, 70, 64
6, 90734, Note_on_c, 4, 70, 0
6, 90735, Note_on_c, 4, 67, 64
6, 90749, Note_on_c, 4, 67, 0
6, 90750, Note_on_c, 4, 69, 64
6, 90764, Note_on_c, 4, 69, 0
6, 90765, Note_on_c, 4, 70, 64
6, 90779, Note_on_c, 4, 70, 0
6, 90780, Note_on_c, 4, 64, 64
6, 90794, Note_on_c, 4, 64, 0
6, 90795, Note_on_c, 4, 65, 64
6, 90809, Note_on_c, 4, 65, 0
6, 90810, Note_on_c, 4, 67, 64
6, 90824, Note_on_c, 4, 67, 0
6, 90825, Note_on_c, 4, 64, 64
6, 90839, Note_on_c, 4, 64, 0
6, 90840, Note_on_c, 4, 65, 64
6, 90854, Note_on_c, 4, 65, 0
6, 90855, Note_on_c, 4, 67, 64
6, 90869, Note_on_c, 4, 67, 0
6, 90870, Note_on_c, 4, 61, 64
6, 90884, Note_on_c, 4, 61, 0
6, 90885, Note_on_c, 4, 62, 64
6, 90899, Note_on_c, 4, 62, 0
6, 90900, Note_on_c, 4, 64, 64
6, 90914, Note_on_c, 4, 64, 0
6, 90915, Note_on_c, 4, 61, 64
6, 90929, Note_on_c, 4, 61, 0
6, 90930, Note_on_c, 4, 62, 64
6, 90944, Note_on_c, 4, 62, 0
6, 90945, Note_on_c, 4, 64, 64
6, 90959, Note_on_c, 4, 64, 0
6, 90960, Note_on_c, 4, 57, 64
6, 91074, Note_on_c, 4, 57, 0
6, 91080, Note_on_c, 4, 59, 64
6, 91198, Note_on_c, 4, 59, 0
6, 91200, Note_on_c, 4, 52, 64
6, 91320, Note_on_c, 4, 53, 64
6, 91344, Note_on_c, 4, 52, 0
6, 91434, Note_on_c, 4, 53, 0
6, 91440, Note_on_c, 4, 55, 64
6, 91800, Note_on_c, 4, 54, 64
6, 91808, Note_on_c, 4, 55, 0
6, 91855, Note_on_c, 4, 54, 0
6, 91860, Note_on_c, 4, 52, 64
6, 91909, Note_on_c, 4, 52, 0
6, 91920, Note_on_c, 4, 54, 64
6, 92160, Note_on_c, 4, 54, 0
6, 92160, End_track
7, 0, Start_track
7, 0, MIDI_port, 0
7, 0, Title_t, "bass"
7, 0, Program_c, 5, 19
7, 0, Control_c, 5, 7, 127
7, 0, Control_c, 5, 10, 64
7, 1080, Note_on_c, 5, 62, 64
7, 1128, Note_on_c, 5, 62, 0
7, 1200, Note_on_c, 5, 62, 64
7, 1250, Note_on_c, 5, 62, 0
7, 1320, Note_on_c, 5, 62, 64
7, 1351, Note_on_c, 5, 62, 0
7, 1440, Note_on_c, 5, 62, 64
7, 1560, Note_on_c, 5, 60, 64
7, 1565, Note_on_c, 5, 62, 0
7, 1605, Note_on_c, 5, 60, 0
7, 1620, Note_on_c, 5, 58, 64
7, 1674, Note_on_c, 5, 58, 0
7, 1680, Note_on_c, 5, 60, 64
7, 1791, Note_on_c, 5, 60, 0
7, 1800, Note_on_c, 5, 57, 64
7, 1916, Note_on_c, 5, 57, 0
7, 1920, Note_on_c, 5, 58, 64
7, 1981, Note_on_c, 5, 58, 0
7, 2160, Note_on_c, 5, 58, 64
7, 2224, Note_on_c, 5, 58, 0
7, 2400, Note_on_c, 5, 57, 64
7, 2456, Note_on_c, 5, 57, 0
7, 2640, Note_on_c, 5, 57, 64
7, 2975, Note_on_c, 5, 57, 0
7, 3000, Note_on_c, 5, 50, 64
7, 3099, Note_on_c, 5, 50, 0
7, 3120, Note_on_c, 5, 55, 64
7, 3408, Note_on_c, 5, 55, 0
7, 3600, Note_on_c, 5, 53, 64
7, 3646, Note_on_c, 5, 53, 0
7, 3840, Note_on_c, 5, 52, 64
7, 3901, Note_on_c, 5, 52, 0
7, 4080, Note_on_c, 5, 57, 64
7, 4140, Note_on_c, 5, 57, 0
7, 4320, Note_on_c, 5, 50, 64
7, 4382, Note_on_c, 5, 50, 0
7, 4560, Note_on_c, 5, 53, 64
7, 4625, Note_on_c, 5, 53, 0
7, 4800, Note_on_c, 5, 57, 64
7, 4873, Note_on_c, 5, 57, 0
7, 5040, Note_on_c, 5, 57, 64
7, 5094, Note_on_c, 5, 57, 0
7, 5280, Note_on_c, 5, 57, 64
7, 5337, Note_on_c, 5, 57, 0
7, 5520, Note_on_c, 5, 62, 64
7, 5577, Note_on_c, 5, 62, 0
7, 5760, Note_on_c, 5, 62, 64
7, 5819, Note_on_c, 5, 62, 0
7, 6000, Note_on_c, 5, 58, 64
7, 6078, Note_on_c, 5, 58, 0
7, 6240, Note_on_c, 5, 57, 64
7, 6300, Note_on_c, 5, 57, 0
7, 10920, Note_on_c, 5, 62, 64
7, 10968, Note_on_c, 5, 62, 0
7, 11040, Note_on_c, 5, 55, 64
7, 11217, Note_on_c, 5, 55, 0
7, 11400, Note_on_c, 5, 60, 64
7, 11449, Note_on_c, 5, 60, 0
7, 11520, Note_on_c, 5, 53, 64
7, 11750, Note_on_c, 5, 53, 0
7, 11760, Note_on_c, 5, 58, 64
7, 11829, Note_on_c, 5, 58, 0
7, 11880, Note_on_c, 5, 60, 64
7, 11926, Note_on_c, 5, 60, 0
7, 12000, Note_on_c, 5, 62, 64
7, 12060, Note_on_c, 5, 60, 64
7, 12063, Note_on_c, 5, 62, 0
7, 12091, Note_on_c, 5, 60, 0
7, 12120, Note_on_c, 5, 60, 64
7, 12177, Note_on_c, 5, 60, 0
7, 12180, Note_on_c, 5, 58, 64
7, 12217, Note_on_c, 5, 58, 0
7, 12240, Note_on_c, 5, 58, 64
7, 12300, Note_on_c, 5, 57, 64
7, 12307, Note_on_c, 5, 58, 0
7, 12329, Note_on_c, 5, 57, 0
7, 12360, Note_on_c, 5, 57, 64
7, 12420, Note_on_c, 5, 55, 64
7, 12430, Note_on_c, 5, 57, 0
7, 12456, Note_on_c, 5, 55, 0
7, 12480, Note_on_c, 5, 55, 64
7, 12480, Note_on_c, 5, 55, 64
7, 12540, Note_on_c, 5, 52, 64
7, 12545, Note_on_c, 5, 55, 0
7, 12545, Note_on_c, 5, 55, 0
7, 12577, Note_on_c, 5, 52, 0
7, 12600, Note_on_c, 5, 52, 64
7, 12660, Note_on_c, 5, 53, 64
7, 12666, Note_on_c, 5, 52, 0
7, 12691, Note_on_c, 5, 53, 0
7, 12720, Note_on_c, 5, 53, 64
7, 12840, Note_on_c, 5, 52, 64
7, 12849, Note_on_c, 5, 53, 0
7, 12885, Note_on_c, 5, 52, 0
7, 12900, Note_on_c, 5, 50, 64
7, 12960, Note_on_c, 5, 57, 64
7, 12961, Note_on_c, 5, 50, 0
7, 13039, Note_on_c, 5, 57, 0
7, 13080, Note_on_c, 5, 50, 64
7, 13149, Note_on_c, 5, 50, 0
7, 13200, Note_on_c, 5, 52, 64
7, 13440, Note_on_c, 5, 50, 64
7, 13453, Note_on_c, 5, 52, 0
7, 13551, Note_on_c, 5, 50, 0
7, 23640, Note_on_c, 5, 57, 64
7, 23691, Note_on_c, 5, 57, 0
7, 23760, Note_on_c, 5, 57, 64
7, 23802, Note_on_c, 5, 57, 0
7, 23880, Note_on_c, 5, 57, 64
7, 23919, Note_on_c, 5, 57, 0
7, 24000, Note_on_c, 5, 57, 64
7, 24120, Note_on_c, 5, 55, 64
7, 24124, Note_on_c, 5, 57, 0
7, 24168, Note_on_c, 5, 55, 0
7, 24180, Note_on_c, 5, 53, 64
7, 24240, Note_on_c, 5, 55, 64
7, 24241, Note_on_c, 5, 53, 0
7, 24349, Note_on_c, 5, 55, 0
7, 24360, Note_on_c, 5, 52, 64
7, 24475, Note_on_c, 5, 52, 0
7, 24480, Note_on_c, 5, 53, 64
7, 24537, Note_on_c, 5, 53, 0
7, 24720, Note_on_c, 5, 50, 64
7, 24789, Note_on_c, 5, 50, 0
7, 24960, Note_on_c, 5, 52, 64
7, 25027, Note_on_c, 5, 52, 0
7, 25320, Note_on_c, 5, 54, 64
7, 25379, Note_on_c, 5, 54, 0
7, 25440, Note_on_c, 5, 55, 64
7, 25512, Note_on_c, 5, 55, 0
7, 25680, Note_on_c, 5, 52, 64
7, 25740, Note_on_c, 5, 52, 0
7, 25920, Note_on_c, 5, 57, 64
7, 25989, Note_on_c, 5, 57, 0
7, 26400, Note_on_c, 5, 57, 64
7, 26483, Note_on_c, 5, 57, 0
7, 26880, Note_on_c, 5, 51, 64
7, 26977, Note_on_c, 5, 51, 0
7, 27360, Note_on_c, 5, 50, 64
7, 27445, Note_on_c, 5, 50, 0
7, 27600, Note_on_c, 5, 48, 64
7, 27686, Note_on_c, 5, 48, 0
7, 27840, Note_on_c, 5, 47, 64
7, 27918, Note_on_c, 5, 47, 0
7, 28080, Note_on_c, 5, 52, 64
7, 28161, Note_on_c, 5, 52, 0
7, 28320, Note_on_c, 5, 52, 64
7, 28400, Note_on_c, 5, 52, 0
7, 28680, Note_on_c, 5, 60, 64
7, 28733, Note_on_c, 5, 60, 0
7, 28800, Note_on_c, 5, 57, 64
7, 28885, Note_on_c, 5, 57, 0
7, 29160, Note_on_c, 5, 59, 64
7, 29203, Note_on_c, 5, 59, 0
7, 29280, Note_on_c, 5, 59, 64
7, 29394, Note_on_c, 5, 59, 0
7, 29640, Note_on_c, 5, 57, 64
7, 29689, Note_on_c, 5, 57, 0
7, 29760, Note_on_c, 5, 57, 64
7, 29845, Note_on_c, 5, 57, 0
7, 30000, Note_on_c, 5, 60, 64
7, 30065, Note_on_c, 5, 60, 0
7, 30240, Note_on_c, 5, 54, 64
7, 30318, Note_on_c, 5, 54, 0
7, 30480, Note_on_c, 5, 59, 64
7, 30544, Note_on_c, 5, 59, 0
7, 30720, Note_on_c, 5, 57, 64
7, 30781, Note_on_c, 5, 57, 0
7, 32520, Note_on_c, 5, 59, 64
7, 32569, Note_on_c, 5, 59, 0
7, 32640, Note_on_c, 5, 57, 64
7, 32747, Note_on_c, 5, 57, 0
7, 33000, Note_on_c, 5, 59, 64
7, 33059, Note_on_c, 5, 59, 0
7, 33120, Note_on_c, 5, 57, 64
7, 33208, Note_on_c, 5, 57, 0
7, 33360, Note_on_c, 5, 57, 64
7, 33425, Note_on_c, 5, 57, 0
7, 33600, Note_on_c, 5, 57, 64
7, 33687, Note_on_c, 5, 57, 0
7, 35040, Note_on_c, 5, 59, 64
7, 35880, Note_on_c, 5, 62, 64
7, 35888, Note_on_c, 5, 59, 0
7, 35997, Note_on_c, 5, 62, 0
7, 36000, Note_on_c, 5, 60, 64
7, 36480, Note_on_c, 5, 59, 64
7, 36493, Note_on_c, 5, 60, 0
7, 37067, Note_on_c, 5, 59, 0
7, 37080, Note_on_c, 5, 57, 64
7, 37182, Note_on_c, 5, 57, 0
7, 37200, Note_on_c, 5, 59, 64
7, 37308, Note_on_c, 5, 59, 0
7, 37320, Note_on_c, 5, 52, 64
7, 37378, Note_on_c, 5, 52, 0
7, 37440, Note_on_c, 5, 52, 64
7, 37548, Note_on_c, 5, 52, 0
7, 37800, Note_on_c, 5, 65, 64
7, 37906, Note_on_c, 5, 65, 0
7, 37920, Note_on_c, 5, 64, 64
7, 38017, Note_on_c, 5, 64, 0
7, 38280, Note_on_c, 5, 56, 64
7, 38385, Note_on_c, 5, 56, 0
7, 38400, Note_on_c, 5, 57, 64
7, 38485, Note_on_c, 5, 57, 0
7, 38760, Note_on_c, 5, 53, 64
7, 38857, Note_on_c, 5, 53, 0
7, 38880, Note_on_c, 5, 52, 64
7, 38949, Note_on_c, 5, 52, 0
7, 39240, Note_on_c, 5, 57, 64
7, 39321, Note_on_c, 5, 57, 0
7, 39360, Note_on_c, 5, 53, 64
7, 39446, Note_on_c, 5, 53, 0
7, 39720, Note_on_c, 5, 52, 64
7, 39810, Note_on_c, 5, 52, 0
7, 39840, Note_on_c, 5, 56, 64
7, 39932, Note_on_c, 5, 56, 0
7, 40200, Note_on_c, 5, 57, 64
7, 40266, Note_on_c, 5, 57, 0
7, 40320, Note_on_c, 5, 59, 64
7, 40398, Note_on_c, 5, 59, 0
7, 40680, Note_on_c, 5, 57, 64
7, 40755, Note_on_c, 5, 57, 0
7, 40800, Note_on_c, 5, 56, 64
7, 40876, Note_on_c, 5, 56, 0
7, 41160, Note_on_c, 5, 62, 64
7, 41247, Note_on_c, 5, 62, 0
7, 41280, Note_on_c, 5, 60, 64
7, 41392, Note_on_c, 5, 60, 0
7, 41400, Note_on_c, 5, 64, 64
7, 41504, Note_on_c, 5, 64, 0
7, 41520, Note_on_c, 5, 60, 64
7, 41632, Note_on_c, 5, 60, 0
7, 41640, Note_on_c, 5, 57, 64
7, 41751, Note_on_c, 5, 57, 0
7, 41760, Note_on_c, 5, 59, 64
7, 41860, Note_on_c, 5, 59, 0
7, 41880, Note_on_c, 5, 64, 64
7, 41970, Note_on_c, 5, 64, 0
7, 42000, Note_on_c, 5, 61, 64
7, 42108, Note_on_c, 5, 61, 0
7, 42120, Note_on_c, 5, 57, 64
7, 42177, Note_on_c, 5, 57, 0
7, 42240, Note_on_c, 5, 57, 64
7, 42329, Note_on_c, 5, 57, 0
7, 43080, Note_on_c, 5, 57, 64
7, 43134, Note_on_c, 5, 57, 0
7, 43200, Note_on_c, 5, 55, 64
7, 43320, Note_on_c, 5, 62, 64
7, 43321, Note_on_c, 5, 55, 0
7, 43387, Note_on_c, 5, 62, 0
7, 43440, Note_on_c, 5, 58, 64
7, 43537, Note_on_c, 5, 58, 0
7, 43560, Note_on_c, 5, 55, 64
7, 43629, Note_on_c, 5, 55, 0
7, 43680, Note_on_c, 5, 57, 64
7, 43782, Note_on_c, 5, 57, 0
7, 43800, Note_on_c, 5, 62, 64
7, 43895, Note_on_c, 5, 62, 0
7, 43920, Note_on_c, 5, 59, 64
7, 44021, Note_on_c, 5, 59, 0
7, 44040, Note_on_c, 5, 55, 64
7, 44114, Note_on_c, 5, 55, 0
7, 44160, Note_on_c, 5, 55, 64
7, 44245, Note_on_c, 5, 55, 0
7, 44520, Note_on_c, 5, 53, 64
7, 44566, Note_on_c, 5, 53, 0
7, 44640, Note_on_c, 5, 53, 64
7, 44726, Note_on_c, 5, 53, 0
7, 45000, Note_on_c, 5, 51, 64
7, 45230, Note_on_c, 5, 51, 0
7, 45240, Note_on_c, 5, 50, 64
7, 45440, Note_on_c, 5, 50, 0
7, 45480, Note_on_c, 5, 48, 64
7, 45703, Note_on_c, 5, 48, 0
7, 45720, Note_on_c, 5, 46, 64
7, 45960, Note_on_c, 5, 48, 64
7, 45972, Note_on_c, 5, 46, 0
7, 46075, Note_on_c, 5, 48, 0
7, 46080, Note_on_c, 5, 50, 64
7, 46162, Note_on_c, 5, 50, 0
7, 46560, Note_on_c, 5, 50, 64
7, 46651, Note_on_c, 5, 50, 0
7, 47040, Note_on_c, 5, 50, 64
7, 47119, Note_on_c, 5, 50, 0
7, 47520, Note_on_c, 5, 50, 64
7, 47587, Note_on_c, 5, 50, 0
7, 48000, Note_on_c, 5, 50, 64
7, 48082, Note_on_c, 5, 50, 0
7, 48480, Note_on_c, 5, 50, 64
7, 48573, Note_on_c, 5, 50, 0
7, 48960, Note_on_c, 5, 49, 64
7, 49047, Note_on_c, 5, 49, 0
7, 49440, Note_on_c, 5, 49, 64
7, 49509, Note_on_c, 5, 49, 0
7, 49920, Note_on_c, 5, 50, 64
7, 50008, Note_on_c, 5, 50, 0
7, 50880, Note_on_c, 5, 57, 64
7, 50966, Note_on_c, 5, 57, 0
7, 51240, Note_on_c, 5, 55, 64
7, 51306, Note_on_c, 5, 55, 0
7, 51360, Note_on_c, 5, 57, 64
7, 51441, Note_on_c, 5, 57, 0
7, 51720, Note_on_c, 5, 54, 64
7, 51778, Note_on_c, 5, 54, 0
7, 51840, Note_on_c, 5, 55, 64
7, 51926, Note_on_c, 5, 55, 0
7, 52200, Note_on_c, 5, 58, 64
7, 52270, Note_on_c, 5, 58, 0
7, 52320, Note_on_c, 5, 57, 64
7, 52401, Note_on_c, 5, 57, 0
7, 52680, Note_on_c, 5, 57, 64
7, 52738, Note_on_c, 5, 57, 0
7, 52800, Note_on_c, 5, 55, 64
7, 52895, Note_on_c, 5, 55, 0
7, 53880, Note_on_c, 5, 55, 64
7, 53930, Note_on_c, 5, 55, 0
7, 54000, Note_on_c, 5, 55, 64
7, 54049, Note_on_c, 5, 55, 0
7, 54120, Note_on_c, 5, 55, 64
7, 54165, Note_on_c, 5, 55, 0
7, 54240, Note_on_c, 5, 55, 64
7, 54360, Note_on_c, 5, 53, 64
7, 54363, Note_on_c, 5, 55, 0
7, 54408, Note_on_c, 5, 53, 0
7, 54420, Note_on_c, 5, 52, 64
7, 54471, Note_on_c, 5, 52, 0
7, 54480, Note_on_c, 5, 53, 64
7, 54581, Note_on_c, 5, 53, 0
7, 54600, Note_on_c, 5, 50, 64
7, 54699, Note_on_c, 5, 50, 0
7, 54720, Note_on_c, 5, 52, 64
7, 54788, Note_on_c, 5, 52, 0
7, 54960, Note_on_c, 5, 48, 64
7, 55019, Note_on_c, 5, 48, 0
7, 55200, Note_on_c, 5, 50, 64
7, 55264, Note_on_c, 5, 50, 0
7, 55560, Note_on_c, 5, 52, 64
7, 55608, Note_on_c, 5, 52, 0
7, 55680, Note_on_c, 5, 53, 64
7, 55859, Note_on_c, 5, 53, 0
7, 55920, Note_on_c, 5, 53, 64
7, 56009, Note_on_c, 5, 53, 0
7, 56160, Note_on_c, 5, 50, 64
7, 56253, Note_on_c, 5, 50, 0
7, 56520, Note_on_c, 5, 55, 64
7, 56584, Note_on_c, 5, 55, 0
7, 56640, Note_on_c, 5, 53, 64
7, 56711, Note_on_c, 5, 53, 0
7, 57000, Note_on_c, 5, 53, 64
7, 57038, Note_on_c, 5, 53, 0
7, 57120, Note_on_c, 5, 53, 64
7, 57236, Note_on_c, 5, 53, 0
7, 57240, Note_on_c, 5, 55, 64
7, 57321, Note_on_c, 5, 55, 0
7, 57600, Note_on_c, 5, 55, 64
7, 57655, Note_on_c, 5, 55, 0
7, 57960, Note_on_c, 5, 55, 64
7, 58004, Note_on_c, 5, 55, 0
7, 58080, Note_on_c, 5, 55, 64
7, 58200, Note_on_c, 5, 57, 64
7, 58202, Note_on_c, 5, 55, 0
7, 58268, Note_on_c, 5, 57, 0
7, 59400, Note_on_c, 5, 48, 64
7, 59479, Note_on_c, 5, 48, 0
7, 59520, Note_on_c, 5, 53, 64
7, 59574, Note_on_c, 5, 53, 0
7, 59580, Note_on_c, 5, 55, 64
7, 59631, Note_on_c, 5, 55, 0
7, 59640, Note_on_c, 5, 57, 64
7, 59700, Note_on_c, 5, 55, 64
7, 59701, Note_on_c, 5, 57, 0
7, 59745, Note_on_c, 5, 55, 0
7, 59760, Note_on_c, 5, 53, 64
7, 59820, Note_on_c, 5, 52, 64
7, 59824, Note_on_c, 5, 53, 0
7, 59875, Note_on_c, 5, 52, 0
7, 59880, Note_on_c, 5, 50, 64
7, 59932, Note_on_c, 5, 50, 0
7, 59940, Note_on_c, 5, 48, 64
7, 60000, Note_on_c, 5, 50, 64
7, 60008, Note_on_c, 5, 48, 0
7, 60240, Note_on_c, 5, 52, 64
7, 60261, Note_on_c, 5, 50, 0
7, 60333, Note_on_c, 5, 52, 0
7, 60360, Note_on_c, 5, 53, 64
7, 60476, Note_on_c, 5, 53, 0
7, 60480, Note_on_c, 5, 48, 64
7, 60537, Note_on_c, 5, 48, 0
7, 60600, Note_on_c, 5, 48, 64
7, 60693, Note_on_c, 5, 48, 0
7, 60720, Note_on_c, 5, 53, 64
7, 60826, Note_on_c, 5, 53, 0
7, 60840, Note_on_c, 5, 57, 64
7, 60887, Note_on_c, 5, 57, 0
7, 60960, Note_on_c, 5, 57, 64
7, 61079, Note_on_c, 5, 57, 0
7, 61080, Note_on_c, 5, 53, 64
7, 61200, Note_on_c, 5, 55, 64
7, 61204, Note_on_c, 5, 53, 0
7, 61310, Note_on_c, 5, 55, 0
7, 61320, Note_on_c, 5, 57, 64
7, 61429, Note_on_c, 5, 57, 0
7, 61440, Note_on_c, 5, 58, 64
7, 61556, Note_on_c, 5, 58, 0
7, 61560, Note_on_c, 5, 57, 64
7, 61671, Note_on_c, 5, 57, 0
7, 61680, Note_on_c, 5, 55, 64
7, 61790, Note_on_c, 5, 55, 0
7, 61800, Note_on_c, 5, 58, 64
7, 61920, Note_on_c, 5, 58, 0
7, 61920, Note_on_c, 5, 57, 64
7, 62022, Note_on_c, 5, 57, 0
7, 62040, Note_on_c, 5, 60, 64
7, 62081, Note_on_c, 5, 60, 0
7, 62160, Note_on_c, 5, 60, 64
7, 62208, Note_on_c, 5, 60, 0
7, 62280, Note_on_c, 5, 60, 64
7, 62318, Note_on_c, 5, 60, 0
7, 62400, Note_on_c, 5, 60, 64
7, 62514, Note_on_c, 5, 60, 0
7, 62700, Note_on_c, 5, 57, 64
7, 62754, Note_on_c, 5, 57, 0
7, 62760, Note_on_c, 5, 55, 64
7, 62806, Note_on_c, 5, 55, 0
7, 62820, Note_on_c, 5, 57, 64
7, 62880, Note_on_c, 5, 53, 64
7, 62887, Note_on_c, 5, 57, 0
7, 62990, Note_on_c, 5, 53, 0
7, 63000, Note_on_c, 5, 52, 64
7, 63120, Note_on_c, 5, 50, 64
7, 63121, Note_on_c, 5, 52, 0
7, 63238, Note_on_c, 5, 50, 0
7, 63240, Note_on_c, 5, 48, 64
7, 63349, Note_on_c, 5, 48, 0
7, 63360, Note_on_c, 5, 53, 64
7, 63360, Note_on_c, 5, 53, 64
7, 63455, Note_on_c, 5, 53, 0
7, 63474, Note_on_c, 5, 53, 0
7, 63540, Note_on_c, 5, 57, 64
7, 63599, Note_on_c, 5, 57, 0
7, 63605, Note_on_c, 5, 62, 64
7, 63660, Note_on_c, 5, 60, 64
7, 63664, Note_on_c, 5, 62, 0
7, 63720, Note_on_c, 5, 58, 64
7, 63723, Note_on_c, 5, 60, 0
7, 63772, Note_on_c, 5, 58, 0
7, 63780, Note_on_c, 5, 57, 64
7, 63824, Note_on_c, 5, 57, 0
7, 63840, Note_on_c, 5, 55, 64
7, 63949, Note_on_c, 5, 55, 0
7, 63960, Note_on_c, 5, 53, 64
7, 64066, Note_on_c, 5, 53, 0
7, 64080, Note_on_c, 5, 52, 64
7, 64180, Note_on_c, 5, 52, 0
7, 64200, Note_on_c, 5, 50, 64
7, 64302, Note_on_c, 5, 50, 0
7, 64320, Note_on_c, 5, 49, 64
7, 64448, Note_on_c, 5, 49, 0
7, 64680, Note_on_c, 5, 50, 64
7, 64745, Note_on_c, 5, 50, 0
7, 64800, Note_on_c, 5, 45, 64
7, 64905, Note_on_c, 5, 45, 0
7, 65160, Note_on_c, 5, 46, 64
7, 65220, Note_on_c, 5, 46, 0
7, 65280, Note_on_c, 5, 41, 64
7, 65381, Note_on_c, 5, 41, 0
7, 65640, Note_on_c, 5, 43, 64
7, 65702, Note_on_c, 5, 43, 0
7, 65760, Note_on_c, 5, 38, 64
7, 65840, Note_on_c, 5, 38, 0
7, 66000, Note_on_c, 5, 43, 64
7, 66076, Note_on_c, 5, 43, 0
7, 66240, Note_on_c, 5, 45, 64
7, 66347, Note_on_c, 5, 45, 0
7, 67200, Note_on_c, 5, 52, 64
7, 67288, Note_on_c, 5, 52, 0
7, 67680, Note_on_c, 5, 52, 64
7, 67762, Note_on_c, 5, 52, 0
7, 68160, Note_on_c, 5, 57, 64
7, 68233, Note_on_c, 5, 57, 0
7, 68640, Note_on_c, 5, 57, 64
7, 68712, Note_on_c, 5, 57, 0
7, 69120, Note_on_c, 5, 57, 64
7, 69205, Note_on_c, 5, 57, 0
7, 69600, Note_on_c, 5, 57, 64
7, 69672, Note_on_c, 5, 57, 0
7, 70080, Note_on_c, 5, 57, 64
7, 70164, Note_on_c, 5, 57, 0
7, 70560, Note_on_c, 5, 57, 64
7, 70646, Note_on_c, 5, 57, 0
7, 71040, Note_on_c, 5, 53, 64
7, 71120, Note_on_c, 5, 53, 0
7, 71520, Note_on_c, 5, 53, 64
7, 71588, Note_on_c, 5, 53, 0
7, 72000, Note_on_c, 5, 52, 64
7, 72072, Note_on_c, 5, 52, 0
7, 72360, Note_on_c, 5, 57, 64
7, 72419, Note_on_c, 5, 57, 0
7, 72480, Note_on_c, 5, 58, 64
7, 72585, Note_on_c, 5, 58, 0
7, 72840, Note_on_c, 5, 55, 64
7, 72895, Note_on_c, 5, 55, 0
7, 72960, Note_on_c, 5, 57, 64
7, 73030, Note_on_c, 5, 57, 0
7, 73320, Note_on_c, 5, 57, 64
7, 73376, Note_on_c, 5, 57, 0
7, 73440, Note_on_c, 5, 62, 64
7, 73544, Note_on_c, 5, 62, 0
7, 73680, Note_on_c, 5, 59, 64
7, 73769, Note_on_c, 5, 59, 0
7, 73920, Note_on_c, 5, 52, 64
7, 74011, Note_on_c, 5, 52, 0
7, 74280, Note_on_c, 5, 53, 64
7, 74338, Note_on_c, 5, 53, 0
7, 74400, Note_on_c, 5, 55, 64
7, 74485, Note_on_c, 5, 55, 0
7, 74760, Note_on_c, 5, 55, 64
7, 74807, Note_on_c, 5, 55, 0
7, 74880, Note_on_c, 5, 53, 64
7, 74963, Note_on_c, 5, 53, 0
7, 75240, Note_on_c, 5, 53, 64
7, 75290, Note_on_c, 5, 53, 0
7, 75360, Note_on_c, 5, 52, 64
7, 75439, Note_on_c, 5, 52, 0
7, 75720, Note_on_c, 5, 52, 64
7, 75771, Note_on_c, 5, 52, 0
7, 75840, Note_on_c, 5, 50, 64
7, 75915, Note_on_c, 5, 50, 0
7, 76320, Note_on_c, 5, 50, 64
7, 76399, Note_on_c, 5, 50, 0
7, 76800, Note_on_c, 5, 46, 64
7, 76890, Note_on_c, 5, 46, 0
7, 77760, Note_on_c, 5, 45, 64
7, 77830, Note_on_c, 5, 45, 0
7, 78000, Note_on_c, 5, 50, 64
7, 78071, Note_on_c, 5, 50, 0
7, 78240, Note_on_c, 5, 50, 64
7, 78296, Note_on_c, 5, 50, 0
7, 78480, Note_on_c, 5, 55, 64
7, 78567, Note_on_c, 5, 55, 0
7, 78720, Note_on_c, 5, 52, 64
7, 78782, Note_on_c, 5, 52, 0
7, 78960, Note_on_c, 5, 52, 64
7, 79022, Note_on_c, 5, 52, 0
7, 79200, Note_on_c, 5, 53, 64
7, 79277, Note_on_c, 5, 53, 0
7, 79440, Note_on_c, 5, 53, 64
7, 79505, Note_on_c, 5, 53, 0
7, 79680, Note_on_c, 5, 50, 64
7, 79680, Note_on_c, 5, 50, 64
7, 79754, Note_on_c, 5, 50, 0
7, 79785, Note_on_c, 5, 50, 0
7, 80040, Note_on_c, 5, 55, 64
7, 80073, Note_on_c, 5, 55, 0
7, 80160, Note_on_c, 5, 55, 64
7, 80277, Note_on_c, 5, 55, 0
7, 80280, Note_on_c, 5, 57, 64
7, 80323, Note_on_c, 5, 57, 0
7, 80340, Note_on_c, 5, 55, 64
7, 80383, Note_on_c, 5, 55, 0
7, 80400, Note_on_c, 5, 53, 64
7, 80454, Note_on_c, 5, 53, 0
7, 80460, Note_on_c, 5, 52, 64
7, 80520, Note_on_c, 5, 53, 64
7, 80523, Note_on_c, 5, 52, 0
7, 80571, Note_on_c, 5, 53, 0
7, 80580, Note_on_c, 5, 50, 64
7, 80637, Note_on_c, 5, 50, 0
7, 80640, Note_on_c, 5, 57, 64
7, 81224, Note_on_c, 5, 57, 0
7, 81240, Note_on_c, 5, 50, 64
7, 81279, Note_on_c, 5, 50, 0
7, 81360, Note_on_c, 5, 55, 64
7, 81709, Note_on_c, 5, 55, 0
7, 81720, Note_on_c, 5, 48, 64
7, 81798, Note_on_c, 5, 48, 0
7, 81840, Note_on_c, 5, 53, 64
7, 81942, Note_on_c, 5, 53, 0
7, 81960, Note_on_c, 5, 57, 64
7, 82022, Note_on_c, 5, 57, 0
7, 82080, Note_on_c, 5, 57, 64
7, 82164, Note_on_c, 5, 57, 0
7, 82440, Note_on_c, 5, 55, 64
7, 82498, Note_on_c, 5, 55, 0
7, 82560, Note_on_c, 5, 52, 64
7, 82652, Note_on_c, 5, 52, 0
7, 82920, Note_on_c, 5, 52, 64
7, 82981, Note_on_c, 5, 52, 0
7, 83040, Note_on_c, 5, 50, 64
7, 83130, Note_on_c, 5, 50, 0
7, 83400, Note_on_c, 5, 52, 64
7, 83450, Note_on_c, 5, 52, 0
7, 83520, Note_on_c, 5, 52, 64
7, 83634, Note_on_c, 5, 52, 0
7, 83640, Note_on_c, 5, 50, 64
7, 83686, Note_on_c, 5, 50, 0
7, 83760, Note_on_c, 5, 50, 64
7, 83860, Note_on_c, 5, 50, 0
7, 83880, Note_on_c, 5, 47, 64
7, 83965, Note_on_c, 5, 47, 0
7, 84000, Note_on_c, 5, 53, 64
7, 84101, Note_on_c, 5, 53, 0
7, 84120, Note_on_c, 5, 50, 64
7, 84232, Note_on_c, 5, 50, 0
7, 84240, Note_on_c, 5, 45, 64
7, 84357, Note_on_c, 5, 45, 0
7, 84360, Note_on_c, 5, 55, 64
7, 84460, Note_on_c, 5, 55, 0
7, 84480, Note_on_c, 5, 53, 64
7, 84565, Note_on_c, 5, 53, 0
7, 84720, Note_on_c, 5, 53, 64
7, 84787, Note_on_c, 5, 53, 0
7, 84960, Note_on_c, 5, 52, 64
7, 85022, Note_on_c, 5, 52, 0
7, 85200, Note_on_c, 5, 54, 64
7, 85271, Note_on_c, 5, 54, 0
7, 85440, Note_on_c, 5, 55, 64
7, 85512, Note_on_c, 5, 55, 0
7, 85680, Note_on_c, 5, 53, 64
7, 85751, Note_on_c, 5, 53, 0
7, 85920, Note_on_c, 5, 52, 64
7, 85986, Note_on_c, 5, 52, 0
7, 86160, Note_on_c, 5, 53, 64
7, 86220, Note_on_c, 5, 53, 0
7, 86400, Note_on_c, 5, 55, 64
7, 86474, Note_on_c, 5, 55, 0
7, 86640, Note_on_c, 5, 53, 64
7, 86702, Note_on_c, 5, 53, 0
7, 91080, Note_on_c, 5, 62, 64
7, 91194, Note_on_c, 5, 62, 0
7, 91200, Note_on_c, 5, 57, 64
7, 92160, Note_on_c, 5, 57, 0
7, 92160, End_track
8, 0, Start_track
8, 0, MIDI_port, 0
8, 0, Title_t, "pedal"
8, 0, Program_c, 6, 19
8, 0, Control_c, 6, 7, 127
8, 0, Control_c, 6, 10, 64
8, 4440, Note_on_c, 6, 45, 64
8, 4483, Note_on_c, 6, 45, 0
8, 4560, Note_on_c, 6, 45, 64
8, 4610, Note_on_c, 6, 45, 0
8, 4680, Note_on_c, 6, 45, 64
8, 4716, Note_on_c, 6, 45, 0
8, 4800, Note_on_c, 6, 45, 64
8, 4920, Note_on_c, 6, 43, 64
8, 4934, Note_on_c, 6, 45, 0
8, 4974, Note_on_c, 6, 43, 0
8, 4980, Note_on_c, 6, 41, 64
8, 5040, Note_on_c, 6, 43, 64
8, 5046, Note_on_c, 6, 41, 0
8, 5149, Note_on_c, 6, 43, 0
8, 5160, Note_on_c, 6, 40, 64
8, 5278, Note_on_c, 6, 40, 0
8, 5280, Note_on_c, 6, 41, 64
8, 5360, Note_on_c, 6, 41, 0
8, 5520, Note_on_c, 6, 38, 64
8, 5582, Note_on_c, 6, 38, 0
8, 5760, Note_on_c, 6, 43, 64
8, 5839, Note_on_c, 6, 43, 0
8, 6000, Note_on_c, 6, 31, 64
8, 6072, Note_on_c, 6, 31, 0
8, 6240, Note_on_c, 6, 33, 64
8, 6307, Note_on_c, 6, 33, 0
8, 6720, Note_on_c, 6, 33, 64
8, 6792, Note_on_c, 6, 33, 0
8, 7200, Note_on_c, 6, 38, 64
8, 7276, Note_on_c, 6, 38, 0
8, 7440, Note_on_c, 6, 26, 64
8, 7516, Note_on_c, 6, 26, 0
8, 7680, Note_on_c, 6, 31, 64
8, 7747, Note_on_c, 6, 31, 0
8, 8160, Note_on_c, 6, 36, 64
8, 8243, Note_on_c, 6, 36, 0
8, 8400, Note_on_c, 6, 24, 64
8, 8472, Note_on_c, 6, 24, 0
8, 8640, Note_on_c, 6, 29, 64
8, 8713, Note_on_c, 6, 29, 0
8, 9000, Note_on_c, 6, 29, 64
8, 9054, Note_on_c, 6, 29, 0
8, 9120, Note_on_c, 6, 31, 64
8, 9207, Note_on_c, 6, 31, 0
8, 9480, Note_on_c, 6, 31, 64
8, 9537, Note_on_c, 6, 31, 0
8, 9600, Note_on_c, 6, 33, 64
8, 9688, Note_on_c, 6, 33, 0
8, 9960, Note_on_c, 6, 37, 64
8, 10028, Note_on_c, 6, 37, 0
8, 10080, Note_on_c, 6, 38, 64
8, 10169, Note_on_c, 6, 38, 0
8, 10200, Note_on_c, 6, 36, 64
8, 10254, Note_on_c, 6, 36, 0
8, 10320, Note_on_c, 6, 34, 64
8, 10560, Note_on_c, 6, 33, 64
8, 10570, Note_on_c, 6, 34, 0
8, 10765, Note_on_c, 6, 33, 0
8, 10920, Note_on_c, 6, 38, 64
8, 10975, Note_on_c, 6, 38, 0
8, 11040, Note_on_c, 6, 34, 64
8, 11202, Note_on_c, 6, 34, 0
8, 11400, Note_on_c, 6, 36, 64
8, 11452, Note_on_c, 6, 36, 0
8, 11520, Note_on_c, 6, 33, 64
8, 11760, Note_on_c, 6, 34, 64
8, 11768, Note_on_c, 6, 33, 0
8, 11830, Note_on_c, 6, 34, 0
8, 11880, Note_on_c, 6, 33, 64
8, 11933, Note_on_c, 6, 33, 0
8, 12000, Note_on_c, 6, 31, 64
8, 12720, Note_on_c, 6, 29, 64
8, 12736, Note_on_c, 6, 31, 0
8, 12808, Note_on_c, 6, 29, 0
8, 12840, Note_on_c, 6, 31, 64
8, 12899, Note_on_c, 6, 31, 0
8, 12960, Note_on_c, 6, 33, 64
8, 13440, Note_on_c, 6, 26, 64
8, 13446, Note_on_c, 6, 33, 0
8, 13528, Note_on_c, 6, 26, 0
8, 13680, Note_on_c, 6, 38, 64
8, 13772, Note_on_c, 6, 38, 0
8, 13920, Note_on_c, 6, 37, 64
8, 14003, Note_on_c, 6, 37, 0
8, 14160, Note_on_c, 6, 33, 64
8, 14228, Note_on_c, 6, 33, 0
8, 14400, Note_on_c, 6, 38, 64
8, 14472, Note_on_c, 6, 38, 0
8, 14640, Note_on_c, 6, 43, 64
8, 14713, Note_on_c, 6, 43, 0
8, 14880, Note_on_c, 6, 45, 64
8, 14952, Note_on_c, 6, 45, 0
8, 15120, Note_on_c, 6, 42, 64
8, 15183, Note_on_c, 6, 42, 0
8, 15360, Note_on_c, 6, 43, 64
8, 15433, Note_on_c, 6, 43, 0
8, 15600, Note_on_c, 6, 40, 64
8, 15660, Note_on_c, 6, 40, 0
8, 15840, Note_on_c, 6, 37, 64
8, 15907, Note_on_c, 6, 37, 0
8, 16080, Note_on_c, 6, 38, 64
8, 16139, Note_on_c, 6, 38, 0
8, 16320, Note_on_c, 6, 33, 64
8, 16391, Note_on_c, 6, 33, 0
8, 16560, Note_on_c, 6, 36, 64
8, 16624, Note_on_c, 6, 36, 0
8, 16800, Note_on_c, 6, 38, 64
8, 16868, Note_on_c, 6, 38, 0
8, 17280, Note_on_c, 6, 37, 64
8, 17376, Note_on_c, 6, 37, 0
8, 17400, Note_on_c, 6, 33, 64
8, 17493, Note_on_c, 6, 33, 0
8, 17520, Note_on_c, 6, 38, 64
8, 17615, Note_on_c, 6, 38, 0
8, 17640, Note_on_c, 6, 36, 64
8, 17748, Note_on_c, 6, 36, 0
8, 17760, Note_on_c, 6, 35, 64
8, 17866, Note_on_c, 6, 35, 0
8, 17880, Note_on_c, 6, 36, 64
8, 17918, Note_on_c, 6, 36, 0
8, 17940, Note_on_c, 6, 35, 64
8, 17987, Note_on_c, 6, 35, 0
8, 18000, Note_on_c, 6, 36, 64
8, 18088, Note_on_c, 6, 36, 0
8, 18360, Note_on_c, 6, 43, 64
8, 18403, Note_on_c, 6, 43, 0
8, 18420, Note_on_c, 6, 42, 64
8, 18453, Note_on_c, 6, 42, 0
8, 18480, Note_on_c, 6, 43, 64
8, 18584, Note_on_c, 6, 43, 0
8, 18840, Note_on_c, 6, 38, 64
8, 18881, Note_on_c, 6, 38, 0
8, 18900, Note_on_c, 6, 37, 64
8, 18940, Note_on_c, 6, 37, 0
8, 18960, Note_on_c, 6, 38, 64
8, 19061, Note_on_c, 6, 38, 0
8, 19320, Note_on_c, 6, 45, 64
8, 19363, Note_on_c, 6, 45, 0
8, 19380, Note_on_c, 6, 44, 64
8, 19415, Note_on_c, 6, 44, 0
8, 19440, Note_on_c, 6, 45, 64
8, 19525, Note_on_c, 6, 45, 0
8, 19800, Note_on_c, 6, 40, 64
8, 19850, Note_on_c, 6, 40, 0
8, 19920, Note_on_c, 6, 40, 64
8, 19973, Note_on_c, 6, 40, 0
8, 20040, Note_on_c, 6, 40, 64
8, 20076, Note_on_c, 6, 40, 0
8, 20160, Note_on_c, 6, 40, 64
8, 20280, Note_on_c, 6, 38, 64
8, 20282, Note_on_c, 6, 40, 0
8, 20320, Note_on_c, 6, 38, 0
8, 20340, Note_on_c, 6, 36, 64
8, 20379, Note_on_c, 6, 36, 0
8, 20400, Note_on_c, 6, 38, 64
8, 20509, Note_on_c, 6, 38, 0
8, 20520, Note_on_c, 6, 35, 64
8, 20622, Note_on_c, 6, 35, 0
8, 20640, Note_on_c, 6, 36, 64
8, 20758, Note_on_c, 6, 36, 0
8, 20760, Note_on_c, 6, 33, 64
8, 20862, Note_on_c, 6, 33, 0
8, 20880, Note_on_c, 6, 35, 64
8, 20986, Note_on_c, 6, 35, 0
8, 21000, Note_on_c, 6, 37, 64
8, 21100, Note_on_c, 6, 37, 0
8, 21120, Note_on_c, 6, 38, 64
8, 21219, Note_on_c, 6, 38, 0
8, 21240, Note_on_c, 6, 36, 64
8, 21348, Note_on_c, 6, 36, 0
8, 21360, Note_on_c, 6, 35, 64
8, 21460, Note_on_c, 6, 35, 0
8, 21600, Note_on_c, 6, 40, 64
8, 21677, Note_on_c, 6, 40, 0
8, 21960, Note_on_c, 6, 33, 64
8, 22018, Note_on_c, 6, 33, 0
8, 22080, Note_on_c, 6, 38, 64
8, 22165, Note_on_c, 6, 38, 0
8, 22440, Note_on_c, 6, 40, 64
8, 22500, Note_on_c, 6, 40, 0
8, 22560, Note_on_c, 6, 41, 64
8, 22763, Note_on_c, 6, 41, 0
8, 22920, Note_on_c, 6, 39, 64
8, 22979, Note_on_c, 6, 39, 0
8, 23040, Note_on_c, 6, 40, 64
8, 23278, Note_on_c, 6, 40, 0
8, 23280, Note_on_c, 6, 28, 64
8, 23507, Note_on_c, 6, 28, 0
8, 23520, Note_on_c, 6, 33, 64
8, 23637, Note_on_c, 6, 33, 0
8, 27480, Note_on_c, 6, 40, 64
8, 27532, Note_on_c, 6, 40, 0
8, 27600, Note_on_c, 6, 40, 64
8, 27641, Note_on_c, 6, 40, 0
8, 27720, Note_on_c, 6, 40, 64
8, 27754, Note_on_c, 6, 40, 0
8, 27840, Note_on_c, 6, 40, 64
8, 27960, Note_on_c, 6, 38, 64
8, 27975, Note_on_c, 6, 40, 0
8, 28010, Note_on_c, 6, 38, 0
8, 28020, Note_on_c, 6, 36, 64
8, 28077, Note_on_c, 6, 36, 0
8, 28080, Note_on_c, 6, 38, 64
8, 28193, Note_on_c, 6, 38, 0
8, 28200, Note_on_c, 6, 35, 64
8, 28313, Note_on_c, 6, 35, 0
8, 28320, Note_on_c, 6, 36, 64
8, 28400, Note_on_c, 6, 36, 0
8, 28680, Note_on_c, 6, 36, 64
8, 28734, Note_on_c, 6, 36, 0
8, 28800, Note_on_c, 6, 41, 64
8, 28879, Note_on_c, 6, 41, 0
8, 29160, Note_on_c, 6, 35, 64
8, 29216, Note_on_c, 6, 35, 0
8, 29280, Note_on_c, 6, 40, 64
8, 29365, Note_on_c, 6, 40, 0
8, 29640, Note_on_c, 6, 33, 64
8, 29688, Note_on_c, 6, 33, 0
8, 29760, Note_on_c, 6, 38, 64
8, 29838, Note_on_c, 6, 38, 0
8, 30000, Note_on_c, 6, 36, 64
8, 30090, Note_on_c, 6, 36, 0
8, 30240, Note_on_c, 6, 35, 64
8, 30312, Note_on_c, 6, 35, 0
8, 30480, Note_on_c, 6, 28, 64
8, 30552, Note_on_c, 6, 28, 0
8, 30720, Note_on_c, 6, 33, 64
8, 30802, Note_on_c, 6, 33, 0
8, 30960, Note_on_c, 6, 45, 64
8, 31030, Note_on_c, 6, 45, 0
8, 31200, Note_on_c, 6, 44, 64
8, 31264, Note_on_c, 6, 44, 0
8, 31440, Note_on_c, 6, 45, 64
8, 31499, Note_on_c, 6, 45, 0
8, 31680, Note_on_c, 6, 41, 64
8, 31757, Note_on_c, 6, 41, 0
8, 31920, Note_on_c, 6, 41, 64
8, 31998, Note_on_c, 6, 41, 0
8, 32160, Note_on_c, 6, 40, 64
8, 32229, Note_on_c, 6, 40, 0
8, 32520, Note_on_c, 6, 40, 64
8, 32580, Note_on_c, 6, 40, 0
8, 32640, Note_on_c, 6, 28, 64
8, 32734, Note_on_c, 6, 28, 0
8, 33000, Note_on_c, 6, 40, 64
8, 33057, Note_on_c, 6, 40, 0
8, 33120, Note_on_c, 6, 41, 64
8, 33214, Note_on_c, 6, 41, 0
8, 33360, Note_on_c, 6, 40, 64
8, 33424, Note_on_c, 6, 40, 0
8, 33600, Note_on_c, 6, 38, 64
8, 33687, Note_on_c, 6, 38, 0
8, 33960, Note_on_c, 6, 40, 64
8, 34016, Note_on_c, 6, 40, 0
8, 34080, Note_on_c, 6, 41, 64
8, 34161, Note_on_c, 6, 41, 0
8, 34440, Note_on_c, 6, 29, 64
8, 34488, Note_on_c, 6, 29, 0
8, 34560, Note_on_c, 6, 28, 64
8, 34662, Note_on_c, 6, 28, 0
8, 34680, Note_on_c, 6, 32, 64
8, 34784, Note_on_c, 6, 32, 0
8, 34800, Note_on_c, 6, 33, 64
8, 34914, Note_on_c, 6, 33, 0
8, 34920, Note_on_c, 6, 38, 64
8, 35021, Note_on_c, 6, 38, 0
8, 35040, Note_on_c, 6, 40, 64
8, 35154, Note_on_c, 6, 40, 0
8, 35160, Note_on_c, 6, 38, 64
8, 35267, Note_on_c, 6, 38, 0
8, 35280, Note_on_c, 6, 40, 64
8, 35395, Note_on_c, 6, 40, 0
8, 35400, Note_on_c, 6, 36, 64
8, 35501, Note_on_c, 6, 36, 0
8, 35520, Note_on_c, 6, 38, 64
8, 35640, Note_on_c, 6, 36, 64
8, 35658, Note_on_c, 6, 38, 0
8, 35747, Note_on_c, 6, 36, 0
8, 35760, Note_on_c, 6, 38, 64
8, 35872, Note_on_c, 6, 38, 0
8, 35880, Note_on_c, 6, 35, 64
8, 35985, Note_on_c, 6, 35, 0
8, 36000, Note_on_c, 6, 36, 64
8, 36108, Note_on_c, 6, 36, 0
8, 36120, Note_on_c, 6, 35, 64
8, 36240, Note_on_c, 6, 36, 64
8, 36242, Note_on_c, 6, 35, 0
8, 36347, Note_on_c, 6, 36, 0
8, 36360, Note_on_c, 6, 33, 64
8, 36459, Note_on_c, 6, 33, 0
8, 36480, Note_on_c, 6, 35, 64
8, 36584, Note_on_c, 6, 35, 0
8, 36840, Note_on_c, 6, 35, 64
8, 36898, Note_on_c, 6, 35, 0
8, 36960, Note_on_c, 6, 40, 64
8, 37063, Note_on_c, 6, 40, 0
8, 37320, Note_on_c, 6, 28, 64
8, 37383, Note_on_c, 6, 28, 0
8, 37440, Note_on_c, 6, 33, 64
8, 41318, Note_on_c, 6, 33, 0
8, 41640, Note_on_c, 6, 33, 64
8, 41716, Note_on_c, 6, 33, 0
8, 41760, Note_on_c, 6, 40, 64
8, 41833, Note_on_c, 6, 40, 0
8, 42120, Note_on_c, 6, 33, 64
8, 42187, Note_on_c, 6, 33, 0
8, 42240, Note_on_c, 6, 38, 64
8, 42321, Note_on_c, 6, 38, 0
8, 42600, Note_on_c, 6, 26, 64
8, 42664, Note_on_c, 6, 26, 0
8, 42720, Note_on_c, 6, 33, 64
8, 42805, Note_on_c, 6, 33, 0
8, 43080, Note_on_c, 6, 26, 64
8, 43150, Note_on_c, 6, 26, 0
8, 43200, Note_on_c, 6, 31, 64
8, 43292, Note_on_c, 6, 31, 0
8, 43560, Note_on_c, 6, 31, 64
8, 43623, Note_on_c, 6, 31, 0
8, 43680, Note_on_c, 6, 38, 64
8, 43779, Note_on_c, 6, 38, 0
8, 44040, Note_on_c, 6, 31, 64
8, 44101, Note_on_c, 6, 31, 0
8, 44160, Note_on_c, 6, 36, 64
8, 44264, Note_on_c, 6, 36, 0
8, 44520, Note_on_c, 6, 29, 64
8, 44578, Note_on_c, 6, 29, 0
8, 44640, Note_on_c, 6, 34, 64
8, 44742, Note_on_c, 6, 34, 0
8, 45000, Note_on_c, 6, 39, 64
8, 45062, Note_on_c, 6, 39, 0
8, 45120, Note_on_c, 6, 33, 64
8, 45240, Note_on_c, 6, 38, 64
8, 45243, Note_on_c, 6, 33, 0
8, 45335, Note_on_c, 6, 38, 0
8, 45360, Note_on_c, 6, 31, 64
8, 45466, Note_on_c, 6, 31, 0
8, 45480, Note_on_c, 6, 36, 64
8, 45577, Note_on_c, 6, 36, 0
8, 45600, Note_on_c, 6, 29, 64
8, 45720, Note_on_c, 6, 34, 64
8, 45721, Note_on_c, 6, 29, 0
8, 45840, Note_on_c, 6, 27, 64
8, 45842, Note_on_c, 6, 34, 0
8, 46080, Note_on_c, 6, 26, 64
8, 46100, Note_on_c, 6, 27, 0
8, 46166, Note_on_c, 6, 26, 0
8, 46560, Note_on_c, 6, 26, 64
8, 46636, Note_on_c, 6, 26, 0
8, 47040, Note_on_c, 6, 26, 64
8, 47116, Note_on_c, 6, 26, 0
8, 47520, Note_on_c, 6, 26, 64
8, 47594, Note_on_c, 6, 26, 0
8, 48000, Note_on_c, 6, 27, 64
8, 48092, Note_on_c, 6, 27, 0
8, 48480, Note_on_c, 6, 27, 64
8, 48553, Note_on_c, 6, 27, 0
8, 48960, Note_on_c, 6, 28, 64
8, 49039, Note_on_c, 6, 28, 0
8, 49440, Note_on_c, 6, 28, 64
8, 49503, Note_on_c, 6, 28, 0
8, 49920, Note_on_c, 6, 26, 64
8, 49977, Note_on_c, 6, 26, 0
8, 50880, Note_on_c, 6, 26, 64
8, 50950, Note_on_c, 6, 26, 0
8, 51360, Note_on_c, 6, 26, 64
8, 51422, Note_on_c, 6, 26, 0
8, 51840, Note_on_c, 6, 26, 64
8, 51911, Note_on_c, 6, 26, 0
8, 52320, Note_on_c, 6, 26, 64
8, 52395, Note_on_c, 6, 26, 0
8, 52680, Note_on_c, 6, 38, 64
8, 52742, Note_on_c, 6, 38, 0
8, 52800, Note_on_c, 6, 31, 64
8, 52900, Note_on_c, 6, 31, 0
8, 52920, Note_on_c, 6, 34, 64
8, 53027, Note_on_c, 6, 34, 0
8, 53040, Note_on_c, 6, 36, 64
8, 53152, Note_on_c, 6, 36, 0
8, 53160, Note_on_c, 6, 38, 64
8, 53277, Note_on_c, 6, 38, 0
8, 53280, Note_on_c, 6, 39, 64
8, 53400, Note_on_c, 6, 37, 64
8, 53402, Note_on_c, 6, 39, 0
8, 53511, Note_on_c, 6, 37, 0
8, 53520, Note_on_c, 6, 38, 64
8, 53627, Note_on_c, 6, 38, 0
8, 53640, Note_on_c, 6, 26, 64
8, 53755, Note_on_c, 6, 26, 0
8, 53760, Note_on_c, 6, 31, 64
8, 53889, Note_on_c, 6, 31, 0
8, 55920, Note_on_c, 6, 33, 64
8, 55990, Note_on_c, 6, 33, 0
8, 56160, Note_on_c, 6, 34, 64
8, 56242, Note_on_c, 6, 34, 0
8, 56520, Note_on_c, 6, 36, 64
8, 56590, Note_on_c, 6, 36, 0
8, 56640, Note_on_c, 6, 29, 64
8, 56698, Note_on_c, 6, 29, 0
8, 56700, Note_on_c, 6, 41, 64
8, 56751, Note_on_c, 6, 41, 0
8, 56760, Note_on_c, 6, 36, 64
8, 56820, Note_on_c, 6, 41, 64
8, 56828, Note_on_c, 6, 36, 0
8, 56871, Note_on_c, 6, 41, 0
8, 56880, Note_on_c, 6, 33, 64
8, 56940, Note_on_c, 6, 36, 64
8, 56942, Note_on_c, 6, 33, 0
8, 56991, Note_on_c, 6, 36, 0
8, 57000, Note_on_c, 6, 29, 64
8, 57060, Note_on_c, 6, 29, 0
8, 57060, Note_on_c, 6, 33, 64
8, 57109, Note_on_c, 6, 33, 0
8, 57120, Note_on_c, 6, 24, 64
8, 57229, Note_on_c, 6, 24, 0
8, 57660, Note_on_c, 6, 43, 64
8, 57708, Note_on_c, 6, 43, 0
8, 57720, Note_on_c, 6, 38, 64
8, 57773, Note_on_c, 6, 38, 0
8, 57780, Note_on_c, 6, 43, 64
8, 57836, Note_on_c, 6, 43, 0
8, 57840, Note_on_c, 6, 34, 64
8, 57895, Note_on_c, 6, 34, 0
8, 57900, Note_on_c, 6, 38, 64
8, 57960, Note_on_c, 6, 38, 0
8, 57960, Note_on_c, 6, 31, 64
8, 58020, Note_on_c, 6, 34, 64
8, 58022, Note_on_c, 6, 31, 0
8, 58072, Note_on_c, 6, 34, 0
8, 58080, Note_on_c, 6, 26, 64
8, 58240, Note_on_c, 6, 26, 0
8, 59640, Note_on_c, 6, 29, 64
8, 59737, Note_on_c, 6, 29, 0
8, 59760, Note_on_c, 6, 33, 64
8, 59880, Note_on_c, 6, 33, 0
8, 59880, Note_on_c, 6, 29, 64
8, 59992, Note_on_c, 6, 29, 0
8, 60000, Note_on_c, 6, 34, 64
8, 60585, Note_on_c, 6, 34, 0
8, 60600, Note_on_c, 6, 33, 64
8, 60710, Note_on_c, 6, 33, 0
8, 60720, Note_on_c, 6, 36, 64
8, 60840, Note_on_c, 6, 36, 0
8, 60840, Note_on_c, 6, 33, 64
8, 60954, Note_on_c, 6, 33, 0
8, 60960, Note_on_c, 6, 38, 64
8, 61054, Note_on_c, 6, 38, 0
8, 61080, Note_on_c, 6, 26, 64
8, 61188, Note_on_c, 6, 26, 0
8, 61200, Note_on_c, 6, 40, 64
8, 61264, Note_on_c, 6, 40, 0
8, 61320, Note_on_c, 6, 41, 64
8, 61384, Note_on_c, 6, 41, 0
8, 61440, Note_on_c, 6, 34, 64
8, 61603, Note_on_c, 6, 34, 0
8, 62040, Note_on_c, 6, 33, 64
8, 62149, Note_on_c, 6, 33, 0
8, 62160, Note_on_c, 6, 36, 64
8, 62280, Note_on_c, 6, 24, 64
8, 62282, Note_on_c, 6, 36, 0
8, 62400, Note_on_c, 6, 29, 64
8, 62405, Note_on_c, 6, 24, 0
8, 62515, Note_on_c, 6, 29, 0
8, 63360, Note_on_c, 6, 34, 64
8, 63489, Note_on_c, 6, 34, 0
8, 64320, Note_on_c, 6, 33, 64
8, 64437, Note_on_c, 6, 33, 0
8, 67200, Note_on_c, 6, 33, 64
8, 67278, Note_on_c, 6, 33, 0
8, 67680, Note_on_c, 6, 33, 64
8, 67767, Note_on_c, 6, 33, 0
8, 68160, Note_on_c, 6, 33, 64
8, 68236, Note_on_c, 6, 33, 0
8, 68640, Note_on_c, 6, 33, 64
8, 68707, Note_on_c, 6, 33, 0
8, 69120, Note_on_c, 6, 33, 64
8, 69187, Note_on_c, 6, 33, 0
8, 69600, Note_on_c, 6, 33, 64
8, 69664, Note_on_c, 6, 33, 0
8, 70080, Note_on_c, 6, 33, 64
8, 70148, Note_on_c, 6, 33, 0
8, 70560, Note_on_c, 6, 33, 64
8, 70622, Note_on_c, 6, 33, 0
8, 71040, Note_on_c, 6, 33, 64
8, 71095, Note_on_c, 6, 33, 0
8, 71520, Note_on_c, 6, 33, 64
8, 71590, Note_on_c, 6, 33, 0
8, 72000, Note_on_c, 6, 33, 64
8, 72079, Note_on_c, 6, 33, 0
8, 72360, Note_on_c, 6, 41, 64
8, 72426, Note_on_c, 6, 41, 0
8, 72480, Note_on_c, 6, 34, 64
8, 72564, Note_on_c, 6, 34, 0
8, 72840, Note_on_c, 6, 40, 64
8, 72903, Note_on_c, 6, 40, 0
8, 72960, Note_on_c, 6, 33, 64
8, 73041, Note_on_c, 6, 33, 0
8, 73320, Note_on_c, 6, 38, 64
8, 73378, Note_on_c, 6, 38, 0
8, 73440, Note_on_c, 6, 34, 64
8, 73515, Note_on_c, 6, 34, 0
8, 73680, Note_on_c, 6, 35, 64
8, 73751, Note_on_c, 6, 35, 0
8, 73920, Note_on_c, 6, 33, 64
8, 73990, Note_on_c, 6, 33, 0
8, 74280, Note_on_c, 6, 26, 64
8, 74334, Note_on_c, 6, 26, 0
8, 74400, Note_on_c, 6, 31, 64
8, 74472, Note_on_c, 6, 31, 0
8, 74760, Note_on_c, 6, 24, 64
8, 74819, Note_on_c, 6, 24, 0
8, 74880, Note_on_c, 6, 29, 64
8, 74952, Note_on_c, 6, 29, 0
8, 75240, Note_on_c, 6, 34, 64
8, 75304, Note_on_c, 6, 34, 0
8, 75360, Note_on_c, 6, 28, 64
8, 75430, Note_on_c, 6, 28, 0
8, 75720, Note_on_c, 6, 33, 64
8, 75774, Note_on_c, 6, 33, 0
8, 75840, Note_on_c, 6, 26, 64
8, 75900, Note_on_c, 6, 26, 0
8, 76320, Note_on_c, 6, 26, 64
8, 76396, Note_on_c, 6, 26, 0
8, 76800, Note_on_c, 6, 28, 64
8, 76870, Note_on_c, 6, 28, 0
8, 77760, Note_on_c, 6, 29, 64
8, 77830, Note_on_c, 6, 29, 0
8, 78000, Note_on_c, 6, 30, 64
8, 78081, Note_on_c, 6, 30, 0
8, 78240, Note_on_c, 6, 31, 64
8, 78319, Note_on_c, 6, 31, 0
8, 78480, Note_on_c, 6, 40, 64
8, 78550, Note_on_c, 6, 40, 0
8, 78720, Note_on_c, 6, 37, 64
8, 78786, Note_on_c, 6, 37, 0
8, 78960, Note_on_c, 6, 33, 64
8, 79025, Note_on_c, 6, 33, 0
8, 79200, Note_on_c, 6, 38, 64
8, 79271, Note_on_c, 6, 38, 0
8, 79440, Note_on_c, 6, 36, 64
8, 79504, Note_on_c, 6, 36, 0
8, 79680, Note_on_c, 6, 35, 64
8, 79756, Note_on_c, 6, 35, 0
8, 80040, Note_on_c, 6, 34, 64
8, 80100, Note_on_c, 6, 34, 0
8, 80160, Note_on_c, 6, 33, 64
8, 80257, Note_on_c, 6, 33, 0
8, 80280, Note_on_c, 6, 45, 64
8, 80327, Note_on_c, 6, 45, 0
8, 80400, Note_on_c, 6, 45, 64
8, 80448, Note_on_c, 6, 45, 0
8, 80520, Note_on_c, 6, 45, 64
8, 80553, Note_on_c, 6, 45, 0
8, 80640, Note_on_c, 6, 45, 64
8, 80753, Note_on_c, 6, 45, 0
8, 80760, Note_on_c, 6, 43, 64
8, 80808, Note_on_c, 6, 43, 0
8, 80820, Note_on_c, 6, 41, 64
8, 80876, Note_on_c, 6, 41, 0
8, 80880, Note_on_c, 6, 43, 64
8, 80991, Note_on_c, 6, 43, 0
8, 81000, Note_on_c, 6, 40, 64
8, 81120, Note_on_c, 6, 42, 64
8, 81129, Note_on_c, 6, 40, 0
8, 81211, Note_on_c, 6, 42, 0
8, 81240, Note_on_c, 6, 43, 64
8, 81281, Note_on_c, 6, 43, 0
8, 81300, Note_on_c, 6, 42, 64
8, 81351, Note_on_c, 6, 42, 0
8, 81360, Note_on_c, 6, 43, 64
8, 81477, Note_on_c, 6, 43, 0
8, 81480, Note_on_c, 6, 38, 64
8, 81597, Note_on_c, 6, 38, 0
8, 81600, Note_on_c, 6, 40, 64
8, 81663, Note_on_c, 6, 40, 0
8, 81720, Note_on_c, 6, 41, 64
8, 81765, Note_on_c, 6, 41, 0
8, 81780, Note_on_c, 6, 40, 64
8, 81824, Note_on_c, 6, 40, 0
8, 81840, Note_on_c, 6, 41, 64
8, 81953, Note_on_c, 6, 41, 0
8, 81960, Note_on_c, 6, 33, 64
8, 82062, Note_on_c, 6, 33, 0
8, 82080, Note_on_c, 6, 34, 64
8, 82169, Note_on_c, 6, 34, 0
8, 82440, Note_on_c, 6, 34, 64
8, 82490, Note_on_c, 6, 34, 0
8, 82560, Note_on_c, 6, 33, 64
8, 82644, Note_on_c, 6, 33, 0
8, 82920, Note_on_c, 6, 33, 64
8, 82969, Note_on_c, 6, 33, 0
8, 83040, Note_on_c, 6, 33, 64
8, 83136, Note_on_c, 6, 33, 0
8, 83400, Note_on_c, 6, 33, 64
8, 83442, Note_on_c, 6, 33, 0
8, 83520, Note_on_c, 6, 34, 64
8, 83625, Note_on_c, 6, 34, 0
8, 83640, Note_on_c, 6, 33, 64
8, 83685, Note_on_c, 6, 33, 0
8, 83760, Note_on_c, 6, 33, 64
8, 83880, Note_on_c, 6, 32, 64
8, 83892, Note_on_c, 6, 33, 0
8, 84000, Note_on_c, 6, 33, 64
8, 84009, Note_on_c, 6, 32, 0
8, 84480, Note_on_c, 6, 26, 64
8, 84494, Note_on_c, 6, 33, 0
8, 84546, Note_on_c, 6, 26, 0
8, 84720, Note_on_c, 6, 29, 64
8, 84772, Note_on_c, 6, 29, 0
8, 84960, Note_on_c, 6, 31, 64
8, 85022, Note_on_c, 6, 31, 0
8, 85200, Note_on_c, 6, 26, 64
8, 85261, Note_on_c, 6, 26, 0
8, 85440, Note_on_c, 6, 26, 64
8, 85502, Note_on_c, 6, 26, 0
8, 86400, Note_on_c, 6, 26, 64
8, 86457, Note_on_c, 6, 26, 0
8, 86880, Note_on_c, 6, 28, 64
8, 86941, Note_on_c, 6, 28, 0
8, 87360, Note_on_c, 6, 29, 64
8, 87428, Note_on_c, 6, 29, 0
8, 87840, Note_on_c, 6, 31, 64
8, 87895, Note_on_c, 6, 31, 0
8, 88320, Note_on_c, 6, 33, 64
8, 88412, Note_on_c, 6, 33, 0
8, 90240, Note_on_c, 6, 33, 64
8, 90240, Note_on_c, 6, 33, 64
8, 90462, Note_on_c, 6, 33, 0
8, 90508, Note_on_c, 6, 33, 0
8, 91080, Note_on_c, 6, 32, 64
8, 91150, Note_on_c, 6, 32, 0
8, 91200, Note_on_c, 6, 33, 64
8, 91680, Note_on_c, 6, 26, 64
8, 91684, Note_on_c, 6, 33, 0
8, 92160, Note_on_c, 6, 26, 0
8, 92160, End_track
9, 0, Start_track
9, 0, MIDI_port, 0
9, 0, Title_t, "Johann Sebastian Bach   (1685-1750)"
9, 0, End_track
10, 0, Start_track
10, 0, MIDI_port, 0
10, 0, Title_t, "Prelude and Fugue in D minor - BWV 539"
10, 0, End_track
11, 0, Start_track
11, 0, MIDI_port, 0
11, 0, Title_t, "2nd Movement: Fugue"
11, 0, End_track
12, 0, Start_track
12, 0, MIDI_port, 0
12, 0, Title_t, "Copyright c 1996 by Jim Michmerhuizen.  All rights reserved."
12, 0, End_track
13, 0, Start_track
13, 0, MIDI_port, 0
13, 0, Title_t, "Send comments to: jamzen@world.std.com"
13, 0, End_track
14, 0, Start_track
14, 0, MIDI_port, 0
14, 0, Title_t, "More files at http://world.std.com/~jamzen/jsbach.html"
14, 0, End_track
15, 0, Start_track
15, 0, MIDI_port, 0
15, 0, Title_t, "courtesy of Dave's J.S. Bach Page"
15, 0, End_track
16, 0, Start_track
16, 0, MIDI_port, 0
16, 0, Title_t, "http://www.unpronounceable.com/bach"
16, 0, End_track
17, 0, Start_track
17, 0, MIDI_port, 0
17, 0, Title_t, "Original Filename: bwv539_2.mid"
17, 0, End_track
0, 0, End_of_file
