0, 0, Header, 1, 13, 120
1, 0, Start_track
1, 0, Sequencer_specific, 10, 0, 0, 91, 35, 1, 0, 5, 4, 35, 0
1, 0, Instrument_name_t, "Conductor Track"
1, 0, SMPTE_offset, 96, 0, 3, 0, 0
1, 0, MIDI_port, 0
1, 0, Tempo, 923076
1, 0, Time_signature, 4, 2, 24, 8
1, 6443, Tempo, 923076
1, 6476, Tempo, 937500
1, 6509, Tempo, 952380
1, 6542, Tempo, 967741
1, 6575, Tempo, 983606
1, 6608, Tempo, 1000000
1, 6640, Tempo, 1016949
1, 6673, Tempo, 1034482
1, 6706, Tempo, 1052631
1, 6739, Tempo, 1071428
1, 6772, Tempo, 1090909
1, 6777, Tempo, 909090
1, 19252, Tempo, 937500
1, 19308, Tempo, 952380
1, 19364, Tempo, 967741
1, 19420, Tempo, 983606
1, 19476, Tempo, 1000000
1, 19532, Tempo, 1016949
1, 19588, Tempo, 1034482
1, 19644, Tempo, 1052631
1, 19701, Tempo, 1071428
1, 19757, Tempo, 1090909
1, 19805, Tempo, 1111111
1, 19805, End_track
2, 0, Start_track
2, 0, Title_t, "RH"
2, 0, MIDI_port, 0
2, 0, Control_c, 0, 7, 125
2, 0, Control_c, 0, 93, 0
2, 0, Control_c, 0, 91, 68
2, 0, Control_c, 0, 10, 25
2, 0, Program_c, 0, 68
2, 3118, Note_on_c, 0, 67, 90
2, 3127, Note_on_c, 0, 65, 90
2, 3128, Note_on_c, 0, 67, 0
2, 3134, Note_on_c, 0, 67, 90
2, 3137, Note_on_c, 0, 65, 0
2, 3325, Note_on_c, 0, 67, 0
2, 3356, Note_on_c, 0, 67, 90
2, 3496, Note_on_c, 0, 70, 90
2, 3498, Note_on_c, 0, 67, 0
2, 3523, Note_on_c, 0, 70, 0
2, 3523, Note_on_c, 0, 69, 90
2, 3537, Note_on_c, 0, 70, 90
2, 3538, Note_on_c, 0, 69, 0
2, 3555, Note_on_c, 0, 70, 0
2, 3555, Note_on_c, 0, 67, 90
2, 3585, Note_on_c, 0, 66, 90
2, 3588, Note_on_c, 0, 67, 0
2, 3756, Note_on_c, 0, 66, 0
2, 3766, Note_on_c, 0, 67, 90
2, 3779, Note_on_c, 0, 66, 90
2, 3783, Note_on_c, 0, 67, 0
2, 3793, Note_on_c, 0, 66, 0
2, 3793, Note_on_c, 0, 64, 90
2, 3808, Note_on_c, 0, 64, 0
2, 3808, Note_on_c, 0, 62, 90
2, 3822, Note_on_c, 0, 70, 90
2, 3825, Note_on_c, 0, 62, 0
2, 3971, Note_on_c, 0, 70, 0
2, 3972, Note_on_c, 0, 69, 90
2, 4002, Note_on_c, 0, 70, 90
2, 4006, Note_on_c, 0, 69, 0
2, 4033, Note_on_c, 0, 72, 90
2, 4034, Note_on_c, 0, 70, 0
2, 4060, Note_on_c, 0, 72, 0
2, 4061, Note_on_c, 0, 69, 90
2, 4092, Note_on_c, 0, 72, 90
2, 4096, Note_on_c, 0, 69, 0
2, 4126, Note_on_c, 0, 70, 90
2, 4129, Note_on_c, 0, 72, 0
2, 4155, Note_on_c, 0, 70, 0
2, 4156, Note_on_c, 0, 69, 90
2, 4189, Note_on_c, 0, 67, 90
2, 4191, Note_on_c, 0, 69, 0
2, 4220, Note_on_c, 0, 67, 0
2, 4222, Note_on_c, 0, 66, 90
2, 4252, Note_on_c, 0, 67, 90
2, 4253, Note_on_c, 0, 66, 0
2, 4279, Note_on_c, 0, 69, 90
2, 4282, Note_on_c, 0, 67, 0
2, 4290, Note_on_c, 0, 69, 0
2, 4314, Note_on_c, 0, 70, 90
2, 4328, Note_on_c, 0, 70, 0
2, 4329, Note_on_c, 0, 69, 90
2, 4343, Note_on_c, 0, 69, 0
2, 4343, Note_on_c, 0, 70, 90
2, 4353, Note_on_c, 0, 70, 0
2, 4355, Note_on_c, 0, 69, 90
2, 4368, Note_on_c, 0, 69, 0
2, 4368, Note_on_c, 0, 70, 90
2, 4376, Note_on_c, 0, 70, 0
2, 4379, Note_on_c, 0, 69, 90
2, 4389, Note_on_c, 0, 70, 90
2, 4390, Note_on_c, 0, 69, 0
2, 4398, Note_on_c, 0, 70, 0
2, 4403, Note_on_c, 0, 69, 90
2, 4410, Note_on_c, 0, 70, 90
2, 4411, Note_on_c, 0, 69, 0
2, 4419, Note_on_c, 0, 70, 0
2, 4422, Note_on_c, 0, 69, 90
2, 4432, Note_on_c, 0, 70, 90
2, 4433, Note_on_c, 0, 69, 0
2, 4441, Note_on_c, 0, 70, 0
2, 4444, Note_on_c, 0, 69, 90
2, 4454, Note_on_c, 0, 70, 90
2, 4455, Note_on_c, 0, 69, 0
2, 4463, Note_on_c, 0, 70, 0
2, 4466, Note_on_c, 0, 69, 90
2, 4475, Note_on_c, 0, 70, 90
2, 4477, Note_on_c, 0, 69, 0
2, 4486, Note_on_c, 0, 70, 0
2, 4488, Note_on_c, 0, 69, 90
2, 4497, Note_on_c, 0, 70, 90
2, 4499, Note_on_c, 0, 69, 0
2, 4508, Note_on_c, 0, 70, 0
2, 4510, Note_on_c, 0, 69, 90
2, 4519, Note_on_c, 0, 70, 90
2, 4521, Note_on_c, 0, 69, 0
2, 4530, Note_on_c, 0, 70, 0
2, 4532, Note_on_c, 0, 69, 90
2, 4542, Note_on_c, 0, 70, 90
2, 4544, Note_on_c, 0, 69, 0
2, 4552, Note_on_c, 0, 70, 0
2, 4556, Note_on_c, 0, 69, 90
2, 4567, Note_on_c, 0, 69, 0
2, 4567, Note_on_c, 0, 70, 90
2, 4577, Note_on_c, 0, 70, 0
2, 4580, Note_on_c, 0, 69, 90
2, 4590, Note_on_c, 0, 70, 90
2, 4591, Note_on_c, 0, 69, 0
2, 4602, Note_on_c, 0, 70, 0
2, 4604, Note_on_c, 0, 69, 90
2, 4615, Note_on_c, 0, 70, 90
2, 4616, Note_on_c, 0, 69, 0
2, 4626, Note_on_c, 0, 70, 0
2, 4629, Note_on_c, 0, 69, 90
2, 4639, Note_on_c, 0, 70, 90
2, 4640, Note_on_c, 0, 69, 0
2, 4650, Note_on_c, 0, 70, 0
2, 4652, Note_on_c, 0, 69, 90
2, 4662, Note_on_c, 0, 70, 90
2, 4663, Note_on_c, 0, 69, 0
2, 4672, Note_on_c, 0, 70, 0
2, 4673, Note_on_c, 0, 69, 90
2, 4683, Note_on_c, 0, 70, 90
2, 4685, Note_on_c, 0, 69, 0
2, 4692, Note_on_c, 0, 70, 0
2, 4692, Note_on_c, 0, 69, 90
2, 4703, Note_on_c, 0, 70, 90
2, 4704, Note_on_c, 0, 69, 0
2, 4713, Note_on_c, 0, 70, 0
2, 4714, Note_on_c, 0, 69, 90
2, 4722, Note_on_c, 0, 70, 90
2, 4724, Note_on_c, 0, 69, 0
2, 4735, Note_on_c, 0, 69, 90
2, 4741, Note_on_c, 0, 70, 0
2, 4758, Note_on_c, 0, 67, 90
2, 4760, Note_on_c, 0, 69, 0
2, 4774, Note_on_c, 0, 67, 0
2, 4774, Note_on_c, 0, 69, 90
2, 4797, Note_on_c, 0, 67, 90
2, 4798, Note_on_c, 0, 69, 0
2, 4920, Note_on_c, 0, 67, 0
2, 7664, Note_on_c, 0, 67, 90
2, 7671, Note_on_c, 0, 65, 90
2, 7673, Note_on_c, 0, 67, 0
2, 7682, Note_on_c, 0, 67, 90
2, 7684, Note_on_c, 0, 65, 0
2, 7758, Note_on_c, 0, 69, 90
2, 7759, Note_on_c, 0, 67, 0
2, 7780, Note_on_c, 0, 69, 0
2, 7780, Note_on_c, 0, 70, 90
2, 7795, Note_on_c, 0, 69, 90
2, 7797, Note_on_c, 0, 70, 0
2, 7813, Note_on_c, 0, 69, 0
2, 7814, Note_on_c, 0, 70, 90
2, 7824, Note_on_c, 0, 70, 0
2, 7827, Note_on_c, 0, 69, 90
2, 7838, Note_on_c, 0, 69, 0
2, 7838, Note_on_c, 0, 70, 90
2, 7846, Note_on_c, 0, 70, 0
2, 7849, Note_on_c, 0, 69, 90
2, 7852, Note_on_c, 0, 70, 90
2, 7853, Note_on_c, 0, 69, 0
2, 7860, Note_on_c, 0, 69, 90
2, 7861, Note_on_c, 0, 70, 0
2, 7870, Note_on_c, 0, 67, 90
2, 7873, Note_on_c, 0, 69, 0
2, 7886, Note_on_c, 0, 67, 0
2, 7886, Note_on_c, 0, 69, 90
2, 7892, Note_on_c, 0, 70, 90
2, 7896, Note_on_c, 0, 69, 0
2, 8058, Note_on_c, 0, 70, 0
2, 8060, Note_on_c, 0, 69, 90
2, 8092, Note_on_c, 0, 70, 90
2, 8094, Note_on_c, 0, 69, 0
2, 8122, Note_on_c, 0, 70, 0
2, 8122, Note_on_c, 0, 72, 90
2, 8150, Note_on_c, 0, 74, 90
2, 8153, Note_on_c, 0, 72, 0
2, 8169, Note_on_c, 0, 72, 90
2, 8182, Note_on_c, 0, 74, 0
2, 8193, Note_on_c, 0, 72, 0
2, 8196, Note_on_c, 0, 70, 90
2, 8202, Note_on_c, 0, 70, 0
2, 8205, Note_on_c, 0, 72, 90
2, 8216, Note_on_c, 0, 74, 90
2, 8217, Note_on_c, 0, 72, 0
2, 8228, Note_on_c, 0, 72, 90
2, 8229, Note_on_c, 0, 74, 0
2, 8238, Note_on_c, 0, 74, 90
2, 8239, Note_on_c, 0, 72, 0
2, 8246, Note_on_c, 0, 74, 0
2, 8248, Note_on_c, 0, 72, 90
2, 8258, Note_on_c, 0, 72, 0
2, 8263, Note_on_c, 0, 74, 90
2, 8281, Note_on_c, 0, 74, 0
2, 8281, Note_on_c, 0, 72, 90
2, 8289, Note_on_c, 0, 72, 0
2, 8292, Note_on_c, 0, 74, 90
2, 8302, Note_on_c, 0, 72, 90
2, 8314, Note_on_c, 0, 74, 0
2, 8323, Note_on_c, 0, 70, 90
2, 8326, Note_on_c, 0, 72, 0
2, 8348, Note_on_c, 0, 70, 0
2, 8351, Note_on_c, 0, 72, 90
2, 8384, Note_on_c, 0, 70, 90
2, 8386, Note_on_c, 0, 72, 0
2, 8591, Note_on_c, 0, 70, 0
2, 8624, Note_on_c, 0, 72, 90
2, 8631, Note_on_c, 0, 70, 90
2, 8632, Note_on_c, 0, 72, 0
2, 8641, Note_on_c, 0, 72, 90
2, 8643, Note_on_c, 0, 70, 0
2, 8804, Note_on_c, 0, 75, 90
2, 8807, Note_on_c, 0, 72, 0
2, 8835, Note_on_c, 0, 74, 90
2, 8839, Note_on_c, 0, 75, 0
2, 8848, Note_on_c, 0, 74, 0
2, 8865, Note_on_c, 0, 74, 90
2, 9022, Note_on_c, 0, 74, 0
2, 9044, Note_on_c, 0, 74, 90
2, 9049, Note_on_c, 0, 72, 90
2, 9054, Note_on_c, 0, 74, 0
2, 9058, Note_on_c, 0, 74, 90
2, 9066, Note_on_c, 0, 74, 0
2, 9082, Note_on_c, 0, 70, 90
2, 9085, Note_on_c, 0, 72, 0
2, 9089, Note_on_c, 0, 70, 0
2, 9113, Note_on_c, 0, 70, 90
2, 9185, Note_on_c, 0, 70, 0
2, 11024, Note_on_c, 0, 70, 90
2, 11033, Note_on_c, 0, 70, 0
2, 11035, Note_on_c, 0, 69, 90
2, 11043, Note_on_c, 0, 70, 90
2, 11046, Note_on_c, 0, 69, 0
2, 11176, Note_on_c, 0, 70, 0
2, 11176, Note_on_c, 0, 72, 90
2, 11206, Note_on_c, 0, 72, 0
2, 11207, Note_on_c, 0, 70, 90
2, 11235, Note_on_c, 0, 72, 90
2, 11238, Note_on_c, 0, 70, 0
2, 11248, Note_on_c, 0, 72, 0
2, 11269, Note_on_c, 0, 74, 90
2, 11286, Note_on_c, 0, 72, 90
2, 11287, Note_on_c, 0, 74, 0
2, 11301, Note_on_c, 0, 72, 0
2, 11302, Note_on_c, 0, 74, 90
2, 11312, Note_on_c, 0, 72, 90
2, 11314, Note_on_c, 0, 74, 0
2, 11326, Note_on_c, 0, 72, 0
2, 11327, Note_on_c, 0, 74, 90
2, 11337, Note_on_c, 0, 72, 90
2, 11339, Note_on_c, 0, 74, 0
2, 11349, Note_on_c, 0, 72, 0
2, 11350, Note_on_c, 0, 74, 90
2, 11360, Note_on_c, 0, 72, 90
2, 11362, Note_on_c, 0, 74, 0
2, 11371, Note_on_c, 0, 72, 0
2, 11373, Note_on_c, 0, 74, 90
2, 11379, Note_on_c, 0, 72, 90
2, 11383, Note_on_c, 0, 74, 0
2, 11391, Note_on_c, 0, 72, 0
2, 11394, Note_on_c, 0, 74, 90
2, 11399, Note_on_c, 0, 72, 90
2, 11404, Note_on_c, 0, 74, 0
2, 11408, Note_on_c, 0, 72, 0
2, 11411, Note_on_c, 0, 74, 90
2, 11420, Note_on_c, 0, 72, 90
2, 11425, Note_on_c, 0, 72, 0
2, 11431, Note_on_c, 0, 72, 90
2, 11436, Note_on_c, 0, 74, 0
2, 11472, Note_on_c, 0, 72, 0
2, 11472, Note_on_c, 0, 70, 90
2, 11484, Note_on_c, 0, 70, 0
2, 11484, Note_on_c, 0, 72, 90
2, 11498, Note_on_c, 0, 72, 0
2, 11498, Note_on_c, 0, 74, 90
2, 11665, Note_on_c, 0, 75, 90
2, 11666, Note_on_c, 0, 74, 0
2, 11690, Note_on_c, 0, 75, 0
2, 11692, Note_on_c, 0, 74, 90
2, 11717, Note_on_c, 0, 72, 90
2, 11719, Note_on_c, 0, 74, 0
2, 11736, Note_on_c, 0, 72, 0
2, 11747, Note_on_c, 0, 72, 90
2, 11752, Note_on_c, 0, 70, 90
2, 11753, Note_on_c, 0, 72, 0
2, 11760, Note_on_c, 0, 72, 90
2, 11768, Note_on_c, 0, 72, 0
2, 11770, Note_on_c, 0, 69, 90
2, 11774, Note_on_c, 0, 70, 0
2, 11796, Note_on_c, 0, 69, 0
2, 11796, Note_on_c, 0, 70, 90
2, 11895, Note_on_c, 0, 70, 0
2, 11896, Note_on_c, 0, 69, 90
2, 11925, Note_on_c, 0, 70, 90
2, 11927, Note_on_c, 0, 69, 0
2, 11953, Note_on_c, 0, 70, 0
2, 11955, Note_on_c, 0, 67, 90
2, 11983, Note_on_c, 0, 67, 0
2, 11985, Note_on_c, 0, 72, 90
2, 12019, Note_on_c, 0, 74, 90
2, 12022, Note_on_c, 0, 72, 0
2, 12031, Note_on_c, 0, 75, 90
2, 12033, Note_on_c, 0, 74, 0
2, 12044, Note_on_c, 0, 74, 90
2, 12045, Note_on_c, 0, 75, 0
2, 12072, Note_on_c, 0, 74, 0
2, 12072, Note_on_c, 0, 72, 90
2, 12105, Note_on_c, 0, 72, 0
2, 12107, Note_on_c, 0, 70, 90
2, 12130, Note_on_c, 0, 70, 0
2, 12137, Note_on_c, 0, 78, 90
2, 12166, Note_on_c, 0, 78, 0
2, 12166, Note_on_c, 0, 79, 90
2, 12197, Note_on_c, 0, 72, 90
2, 12198, Note_on_c, 0, 79, 0
2, 12211, Note_on_c, 0, 72, 0
2, 12228, Note_on_c, 0, 70, 90
2, 12252, Note_on_c, 0, 69, 90
2, 12253, Note_on_c, 0, 70, 0
2, 12267, Note_on_c, 0, 69, 0
2, 12267, Note_on_c, 0, 70, 90
2, 12278, Note_on_c, 0, 70, 0
2, 12281, Note_on_c, 0, 69, 90
2, 12291, Note_on_c, 0, 70, 90
2, 12292, Note_on_c, 0, 69, 0
2, 12299, Note_on_c, 0, 70, 0
2, 12302, Note_on_c, 0, 69, 90
2, 12311, Note_on_c, 0, 69, 0
2, 12311, Note_on_c, 0, 70, 90
2, 12318, Note_on_c, 0, 70, 0
2, 12319, Note_on_c, 0, 69, 90
2, 12328, Note_on_c, 0, 70, 90
2, 12329, Note_on_c, 0, 69, 0
2, 12335, Note_on_c, 0, 70, 0
2, 12338, Note_on_c, 0, 69, 90
2, 12345, Note_on_c, 0, 70, 90
2, 12347, Note_on_c, 0, 69, 0
2, 12351, Note_on_c, 0, 70, 0
2, 12353, Note_on_c, 0, 69, 90
2, 12360, Note_on_c, 0, 70, 90
2, 12362, Note_on_c, 0, 69, 0
2, 12366, Note_on_c, 0, 70, 0
2, 12368, Note_on_c, 0, 69, 90
2, 12375, Note_on_c, 0, 70, 90
2, 12377, Note_on_c, 0, 69, 0
2, 12382, Note_on_c, 0, 70, 0
2, 12384, Note_on_c, 0, 69, 90
2, 12389, Note_on_c, 0, 70, 90
2, 12390, Note_on_c, 0, 69, 0
2, 12396, Note_on_c, 0, 70, 0
2, 12398, Note_on_c, 0, 69, 90
2, 12404, Note_on_c, 0, 70, 90
2, 12406, Note_on_c, 0, 69, 0
2, 12413, Note_on_c, 0, 69, 90
2, 12422, Note_on_c, 0, 70, 0
2, 12438, Note_on_c, 0, 69, 0
2, 12438, Note_on_c, 0, 67, 90
2, 12452, Note_on_c, 0, 67, 0
2, 12454, Note_on_c, 0, 69, 90
2, 12470, Note_on_c, 0, 69, 0
2, 12470, Note_on_c, 0, 67, 90
2, 12596, Note_on_c, 0, 67, 0
2, 15597, Note_on_c, 0, 67, 90
2, 15606, Note_on_c, 0, 65, 90
2, 15607, Note_on_c, 0, 67, 0
2, 15615, Note_on_c, 0, 67, 90
2, 15618, Note_on_c, 0, 65, 0
2, 15793, Note_on_c, 0, 67, 0
2, 15841, Note_on_c, 0, 67, 90
2, 15991, Note_on_c, 0, 69, 90
2, 15992, Note_on_c, 0, 67, 0
2, 16004, Note_on_c, 0, 67, 90
2, 16008, Note_on_c, 0, 69, 0
2, 16017, Note_on_c, 0, 67, 0
2, 16017, Note_on_c, 0, 66, 90
2, 16029, Note_on_c, 0, 67, 90
2, 16032, Note_on_c, 0, 66, 0
2, 16065, Note_on_c, 0, 67, 0
2, 16066, Note_on_c, 0, 69, 90
2, 16083, Note_on_c, 0, 67, 90
2, 16084, Note_on_c, 0, 69, 0
2, 16095, Note_on_c, 0, 67, 0
2, 16095, Note_on_c, 0, 66, 90
2, 16108, Note_on_c, 0, 66, 0
2, 16109, Note_on_c, 0, 67, 90
2, 16120, Note_on_c, 0, 67, 0
2, 16122, Note_on_c, 0, 66, 90
2, 16133, Note_on_c, 0, 66, 0
2, 16134, Note_on_c, 0, 67, 90
2, 16144, Note_on_c, 0, 67, 0
2, 16146, Note_on_c, 0, 66, 90
2, 16157, Note_on_c, 0, 66, 0
2, 16157, Note_on_c, 0, 67, 90
2, 16167, Note_on_c, 0, 67, 0
2, 16168, Note_on_c, 0, 66, 90
2, 16178, Note_on_c, 0, 66, 0
2, 16178, Note_on_c, 0, 67, 90
2, 16189, Note_on_c, 0, 67, 0
2, 16191, Note_on_c, 0, 66, 90
2, 16201, Note_on_c, 0, 66, 0
2, 16201, Note_on_c, 0, 67, 90
2, 16212, Note_on_c, 0, 67, 0
2, 16214, Note_on_c, 0, 66, 90
2, 16223, Note_on_c, 0, 67, 90
2, 16224, Note_on_c, 0, 66, 0
2, 16233, Note_on_c, 0, 67, 0
2, 16236, Note_on_c, 0, 66, 90
2, 16243, Note_on_c, 0, 66, 0
2, 16243, Note_on_c, 0, 67, 90
2, 16251, Note_on_c, 0, 66, 90
2, 16252, Note_on_c, 0, 67, 0
2, 16308, Note_on_c, 0, 70, 90
2, 16309, Note_on_c, 0, 66, 0
2, 16449, Note_on_c, 0, 70, 0
2, 16451, Note_on_c, 0, 69, 90
2, 16483, Note_on_c, 0, 70, 90
2, 16488, Note_on_c, 0, 69, 0
2, 16513, Note_on_c, 0, 72, 90
2, 16515, Note_on_c, 0, 70, 0
2, 16549, Note_on_c, 0, 72, 0
2, 16549, Note_on_c, 0, 69, 90
2, 16579, Note_on_c, 0, 72, 90
2, 16582, Note_on_c, 0, 69, 0
2, 16610, Note_on_c, 0, 70, 90
2, 16613, Note_on_c, 0, 72, 0
2, 16639, Note_on_c, 0, 70, 0
2, 16639, Note_on_c, 0, 69, 90
2, 16669, Note_on_c, 0, 67, 90
2, 16670, Note_on_c, 0, 69, 0
2, 16697, Note_on_c, 0, 67, 0
2, 16700, Note_on_c, 0, 66, 90
2, 16730, Note_on_c, 0, 66, 0
2, 16731, Note_on_c, 0, 67, 90
2, 16761, Note_on_c, 0, 69, 90
2, 16766, Note_on_c, 0, 67, 0
2, 16776, Note_on_c, 0, 69, 0
2, 16795, Note_on_c, 0, 70, 90
2, 16811, Note_on_c, 0, 70, 0
2, 16811, Note_on_c, 0, 69, 90
2, 16825, Note_on_c, 0, 69, 0
2, 16826, Note_on_c, 0, 70, 90
2, 16836, Note_on_c, 0, 70, 0
2, 16837, Note_on_c, 0, 69, 90
2, 16849, Note_on_c, 0, 69, 0
2, 16850, Note_on_c, 0, 70, 90
2, 16858, Note_on_c, 0, 70, 0
2, 16861, Note_on_c, 0, 69, 90
2, 16871, Note_on_c, 0, 69, 0
2, 16871, Note_on_c, 0, 70, 90
2, 16880, Note_on_c, 0, 70, 0
2, 16883, Note_on_c, 0, 69, 90
2, 16892, Note_on_c, 0, 69, 0
2, 16894, Note_on_c, 0, 70, 90
2, 16902, Note_on_c, 0, 70, 0
2, 16905, Note_on_c, 0, 69, 90
2, 16915, Note_on_c, 0, 69, 0
2, 16915, Note_on_c, 0, 70, 90
2, 16923, Note_on_c, 0, 70, 0
2, 16926, Note_on_c, 0, 69, 90
2, 16936, Note_on_c, 0, 69, 0
2, 16937, Note_on_c, 0, 70, 90
2, 16945, Note_on_c, 0, 70, 0
2, 16947, Note_on_c, 0, 69, 90
2, 16956, Note_on_c, 0, 70, 90
2, 16957, Note_on_c, 0, 69, 0
2, 16965, Note_on_c, 0, 70, 0
2, 16969, Note_on_c, 0, 69, 90
2, 16978, Note_on_c, 0, 70, 90
2, 16979, Note_on_c, 0, 69, 0
2, 16986, Note_on_c, 0, 70, 0
2, 16990, Note_on_c, 0, 69, 90
2, 16998, Note_on_c, 0, 70, 90
2, 16999, Note_on_c, 0, 69, 0
2, 17007, Note_on_c, 0, 70, 0
2, 17010, Note_on_c, 0, 69, 90
2, 17017, Note_on_c, 0, 70, 90
2, 17019, Note_on_c, 0, 69, 0
2, 17027, Note_on_c, 0, 70, 0
2, 17029, Note_on_c, 0, 69, 90
2, 17039, Note_on_c, 0, 70, 90
2, 17040, Note_on_c, 0, 69, 0
2, 17048, Note_on_c, 0, 70, 0
2, 17051, Note_on_c, 0, 69, 90
2, 17061, Note_on_c, 0, 70, 90
2, 17062, Note_on_c, 0, 69, 0
2, 17070, Note_on_c, 0, 70, 0
2, 17073, Note_on_c, 0, 69, 90
2, 17083, Note_on_c, 0, 69, 0
2, 17083, Note_on_c, 0, 70, 90
2, 17092, Note_on_c, 0, 70, 0
2, 17095, Note_on_c, 0, 69, 90
2, 17105, Note_on_c, 0, 70, 90
2, 17106, Note_on_c, 0, 69, 0
2, 17114, Note_on_c, 0, 70, 0
2, 17117, Note_on_c, 0, 69, 90
2, 17126, Note_on_c, 0, 70, 90
2, 17127, Note_on_c, 0, 69, 0
2, 17135, Note_on_c, 0, 70, 0
2, 17139, Note_on_c, 0, 69, 90
2, 17149, Note_on_c, 0, 70, 90
2, 17150, Note_on_c, 0, 69, 0
2, 17159, Note_on_c, 0, 70, 0
2, 17161, Note_on_c, 0, 69, 90
2, 17170, Note_on_c, 0, 70, 90
2, 17171, Note_on_c, 0, 69, 0
2, 17179, Note_on_c, 0, 70, 0
2, 17182, Note_on_c, 0, 69, 90
2, 17204, Note_on_c, 0, 70, 90
2, 17205, Note_on_c, 0, 69, 0
2, 17218, Note_on_c, 0, 69, 90
2, 17220, Note_on_c, 0, 70, 0
2, 17238, Note_on_c, 0, 67, 90
2, 17242, Note_on_c, 0, 69, 0
2, 17253, Note_on_c, 0, 69, 90
2, 17254, Note_on_c, 0, 67, 0
2, 17273, Note_on_c, 0, 67, 90
2, 17274, Note_on_c, 0, 69, 0
2, 17875, Note_on_c, 0, 67, 0
2, 17875, End_track
3, 0, Start_track
3, 0, Title_t, "LH"
3, 0, MIDI_port, 0
3, 0, Control_c, 1, 7, 121
3, 0, Control_c, 1, 93, 0
3, 0, Control_c, 1, 91, 93
3, 0, Control_c, 1, 10, 119
3, 0, Program_c, 1, 70
3, 60, Note_on_c, 1, 55, 90
3, 84, Note_on_c, 1, 55, 0
3, 123, Note_on_c, 1, 55, 90
3, 178, Note_on_c, 1, 54, 90
3, 179, Note_on_c, 1, 55, 0
3, 237, Note_on_c, 1, 54, 0
3, 237, Note_on_c, 1, 58, 90
3, 339, Note_on_c, 1, 58, 0
3, 339, Note_on_c, 1, 57, 90
3, 510, Note_on_c, 1, 57, 0
3, 516, Note_on_c, 1, 55, 90
3, 609, Note_on_c, 1, 55, 0
3, 643, Note_on_c, 1, 54, 90
3, 670, Note_on_c, 1, 54, 0
3, 671, Note_on_c, 1, 57, 90
3, 689, Note_on_c, 1, 57, 0
3, 701, Note_on_c, 1, 46, 90
3, 732, Note_on_c, 1, 46, 0
3, 732, Note_on_c, 1, 51, 90
3, 761, Note_on_c, 1, 51, 0
3, 762, Note_on_c, 1, 50, 90
3, 794, Note_on_c, 1, 51, 90
3, 795, Note_on_c, 1, 50, 0
3, 826, Note_on_c, 1, 45, 90
3, 827, Note_on_c, 1, 51, 0
3, 858, Note_on_c, 1, 50, 90
3, 861, Note_on_c, 1, 45, 0
3, 888, Note_on_c, 1, 48, 90
3, 889, Note_on_c, 1, 50, 0
3, 914, Note_on_c, 1, 50, 90
3, 915, Note_on_c, 1, 48, 0
3, 941, Note_on_c, 1, 43, 90
3, 942, Note_on_c, 1, 50, 0
3, 966, Note_on_c, 1, 48, 90
3, 969, Note_on_c, 1, 43, 0
3, 992, Note_on_c, 1, 46, 90
3, 994, Note_on_c, 1, 48, 0
3, 1015, Note_on_c, 1, 46, 0
3, 1018, Note_on_c, 1, 48, 90
3, 1049, Note_on_c, 1, 42, 90
3, 1052, Note_on_c, 1, 48, 0
3, 1067, Note_on_c, 1, 42, 0
3, 1116, Note_on_c, 1, 57, 90
3, 1146, Note_on_c, 1, 57, 0
3, 1174, Note_on_c, 1, 58, 90
3, 1204, Note_on_c, 1, 58, 0
3, 1205, Note_on_c, 1, 63, 90
3, 1234, Note_on_c, 1, 63, 0
3, 1235, Note_on_c, 1, 62, 90
3, 1273, Note_on_c, 1, 62, 0
3, 1273, Note_on_c, 1, 63, 90
3, 1299, Note_on_c, 1, 57, 90
3, 1301, Note_on_c, 1, 63, 0
3, 1336, Note_on_c, 1, 62, 90
3, 1338, Note_on_c, 1, 57, 0
3, 1366, Note_on_c, 1, 62, 0
3, 1366, Note_on_c, 1, 60, 90
3, 1399, Note_on_c, 1, 60, 0
3, 1399, Note_on_c, 1, 62, 90
3, 1432, Note_on_c, 1, 62, 0
3, 1432, Note_on_c, 1, 58, 90
3, 1462, Note_on_c, 1, 62, 90
3, 1466, Note_on_c, 1, 58, 0
3, 1496, Note_on_c, 1, 55, 90
3, 1499, Note_on_c, 1, 62, 0
3, 1523, Note_on_c, 1, 58, 90
3, 1524, Note_on_c, 1, 55, 0
3, 1552, Note_on_c, 1, 58, 0
3, 1552, Note_on_c, 1, 51, 90
3, 1580, Note_on_c, 1, 51, 0
3, 1583, Note_on_c, 1, 60, 90
3, 1613, Note_on_c, 1, 58, 90
3, 1615, Note_on_c, 1, 60, 0
3, 1642, Note_on_c, 1, 58, 0
3, 1643, Note_on_c, 1, 60, 90
3, 1672, Note_on_c, 1, 57, 90
3, 1673, Note_on_c, 1, 60, 0
3, 1703, Note_on_c, 1, 60, 90
3, 1707, Note_on_c, 1, 57, 0
3, 1732, Note_on_c, 1, 53, 90
3, 1736, Note_on_c, 1, 60, 0
3, 1760, Note_on_c, 1, 53, 0
3, 1760, Note_on_c, 1, 57, 90
3, 1788, Note_on_c, 1, 50, 90
3, 1791, Note_on_c, 1, 57, 0
3, 1809, Note_on_c, 1, 50, 0
3, 1818, Note_on_c, 1, 58, 90
3, 1847, Note_on_c, 1, 57, 90
3, 1848, Note_on_c, 1, 58, 0
3, 1876, Note_on_c, 1, 57, 0
3, 1877, Note_on_c, 1, 58, 90
3, 1905, Note_on_c, 1, 58, 0
3, 1908, Note_on_c, 1, 55, 90
3, 1940, Note_on_c, 1, 58, 90
3, 1944, Note_on_c, 1, 55, 0
3, 1971, Note_on_c, 1, 51, 90
3, 1973, Note_on_c, 1, 58, 0
3, 2001, Note_on_c, 1, 55, 90
3, 2002, Note_on_c, 1, 51, 0
3, 2034, Note_on_c, 1, 48, 90
3, 2037, Note_on_c, 1, 55, 0
3, 2058, Note_on_c, 1, 48, 0
3, 2067, Note_on_c, 1, 57, 90
3, 2096, Note_on_c, 1, 55, 90
3, 2097, Note_on_c, 1, 57, 0
3, 2126, Note_on_c, 1, 55, 0
3, 2126, Note_on_c, 1, 57, 90
3, 2155, Note_on_c, 1, 57, 0
3, 2155, Note_on_c, 1, 54, 90
3, 2184, Note_on_c, 1, 57, 90
3, 2185, Note_on_c, 1, 54, 0
3, 2213, Note_on_c, 1, 50, 90
3, 2215, Note_on_c, 1, 57, 0
3, 2241, Note_on_c, 1, 54, 90
3, 2243, Note_on_c, 1, 50, 0
3, 2270, Note_on_c, 1, 54, 0
3, 2270, Note_on_c, 1, 46, 90
3, 2295, Note_on_c, 1, 46, 0
3, 2299, Note_on_c, 1, 55, 90
3, 2329, Note_on_c, 1, 53, 90
3, 2330, Note_on_c, 1, 55, 0
3, 2357, Note_on_c, 1, 53, 0
3, 2357, Note_on_c, 1, 55, 90
3, 2386, Note_on_c, 1, 55, 0
3, 2387, Note_on_c, 1, 51, 90
3, 2421, Note_on_c, 1, 55, 90
3, 2425, Note_on_c, 1, 51, 0
3, 2450, Note_on_c, 1, 48, 90
3, 2454, Note_on_c, 1, 55, 0
3, 2475, Note_on_c, 1, 51, 90
3, 2479, Note_on_c, 1, 48, 0
3, 2502, Note_on_c, 1, 51, 0
3, 2503, Note_on_c, 1, 45, 90
3, 2532, Note_on_c, 1, 45, 0
3, 2533, Note_on_c, 1, 48, 90
3, 2560, Note_on_c, 1, 42, 90
3, 2562, Note_on_c, 1, 48, 0
3, 2586, Note_on_c, 1, 42, 0
3, 2587, Note_on_c, 1, 45, 90
3, 2615, Note_on_c, 1, 45, 0
3, 2616, Note_on_c, 1, 38, 90
3, 2646, Note_on_c, 1, 38, 0
3, 2646, Note_on_c, 1, 50, 90
3, 2672, Note_on_c, 1, 52, 90
3, 2676, Note_on_c, 1, 50, 0
3, 2706, Note_on_c, 1, 54, 90
3, 2710, Note_on_c, 1, 52, 0
3, 2748, Note_on_c, 1, 54, 0
3, 2750, Note_on_c, 1, 55, 90
3, 2778, Note_on_c, 1, 54, 90
3, 2779, Note_on_c, 1, 55, 0
3, 2808, Note_on_c, 1, 55, 90
3, 2809, Note_on_c, 1, 54, 0
3, 2837, Note_on_c, 1, 55, 0
3, 2837, Note_on_c, 1, 57, 90
3, 2864, Note_on_c, 1, 58, 90
3, 2865, Note_on_c, 1, 57, 0
3, 2894, Note_on_c, 1, 57, 90
3, 2896, Note_on_c, 1, 58, 0
3, 2923, Note_on_c, 1, 55, 90
3, 2925, Note_on_c, 1, 57, 0
3, 2949, Note_on_c, 1, 55, 0
3, 2950, Note_on_c, 1, 57, 90
3, 2981, Note_on_c, 1, 57, 0
3, 2983, Note_on_c, 1, 50, 90
3, 3027, Note_on_c, 1, 50, 0
3, 3045, Note_on_c, 1, 55, 90
3, 3055, Note_on_c, 1, 54, 90
3, 3058, Note_on_c, 1, 55, 0
3, 3068, Note_on_c, 1, 52, 90
3, 3069, Note_on_c, 1, 54, 0
3, 3079, Note_on_c, 1, 54, 90
3, 3084, Note_on_c, 1, 52, 0
3, 3111, Note_on_c, 1, 54, 0
3, 3113, Note_on_c, 1, 55, 90
3, 3202, Note_on_c, 1, 55, 0
3, 3383, Note_on_c, 1, 55, 90
3, 3412, Note_on_c, 1, 55, 0
3, 3412, Note_on_c, 1, 53, 90
3, 3442, Note_on_c, 1, 53, 0
3, 3442, Note_on_c, 1, 55, 90
3, 3474, Note_on_c, 1, 55, 0
3, 3474, Note_on_c, 1, 51, 90
3, 3501, Note_on_c, 1, 55, 90
3, 3504, Note_on_c, 1, 51, 0
3, 3530, Note_on_c, 1, 48, 90
3, 3534, Note_on_c, 1, 55, 0
3, 3559, Note_on_c, 1, 51, 90
3, 3560, Note_on_c, 1, 48, 0
3, 3585, Note_on_c, 1, 45, 90
3, 3589, Note_on_c, 1, 51, 0
3, 3623, Note_on_c, 1, 45, 0
3, 3647, Note_on_c, 1, 42, 90
3, 3676, Note_on_c, 1, 42, 0
3, 3706, Note_on_c, 1, 50, 90
3, 3740, Note_on_c, 1, 50, 0
3, 3763, Note_on_c, 1, 38, 90
3, 3798, Note_on_c, 1, 38, 0
3, 3822, Note_on_c, 1, 43, 90
3, 3839, Note_on_c, 1, 43, 0
3, 3854, Note_on_c, 1, 55, 90
3, 3885, Note_on_c, 1, 53, 90
3, 3886, Note_on_c, 1, 55, 0
3, 3913, Note_on_c, 1, 53, 0
3, 3914, Note_on_c, 1, 55, 90
3, 3938, Note_on_c, 1, 55, 0
3, 3942, Note_on_c, 1, 51, 90
3, 3974, Note_on_c, 1, 51, 0
3, 3974, Note_on_c, 1, 53, 90
3, 4004, Note_on_c, 1, 50, 90
3, 4005, Note_on_c, 1, 53, 0
3, 4032, Note_on_c, 1, 51, 90
3, 4034, Note_on_c, 1, 50, 0
3, 4063, Note_on_c, 1, 48, 90
3, 4064, Note_on_c, 1, 51, 0
3, 4084, Note_on_c, 1, 48, 0
3, 4134, Note_on_c, 1, 57, 90
3, 4154, Note_on_c, 1, 57, 0
3, 4194, Note_on_c, 1, 62, 90
3, 4240, Note_on_c, 1, 62, 0
3, 4255, Note_on_c, 1, 62, 90
3, 4280, Note_on_c, 1, 62, 0
3, 4319, Note_on_c, 1, 62, 90
3, 4380, Note_on_c, 1, 61, 90
3, 4381, Note_on_c, 1, 62, 0
3, 4435, Note_on_c, 1, 61, 0
3, 4438, Note_on_c, 1, 65, 90
3, 4528, Note_on_c, 1, 65, 0
3, 4549, Note_on_c, 1, 65, 90
3, 4560, Note_on_c, 1, 64, 90
3, 4561, Note_on_c, 1, 65, 0
3, 4569, Note_on_c, 1, 64, 0
3, 4571, Note_on_c, 1, 65, 90
3, 4578, Note_on_c, 1, 64, 90
3, 4581, Note_on_c, 1, 65, 0
3, 4585, Note_on_c, 1, 65, 90
3, 4587, Note_on_c, 1, 64, 0
3, 4591, Note_on_c, 1, 64, 90
3, 4595, Note_on_c, 1, 65, 0
3, 4674, Note_on_c, 1, 64, 0
3, 4703, Note_on_c, 1, 64, 90
3, 4735, Note_on_c, 1, 62, 90
3, 4737, Note_on_c, 1, 64, 0
3, 4767, Note_on_c, 1, 62, 0
3, 4768, Note_on_c, 1, 65, 90
3, 4782, Note_on_c, 1, 65, 0
3, 4796, Note_on_c, 1, 58, 90
3, 4835, Note_on_c, 1, 58, 0
3, 4853, Note_on_c, 1, 55, 90
3, 4882, Note_on_c, 1, 55, 0
3, 4910, Note_on_c, 1, 57, 90
3, 4946, Note_on_c, 1, 57, 0
3, 4973, Note_on_c, 1, 49, 90
3, 5001, Note_on_c, 1, 49, 0
3, 5026, Note_on_c, 1, 50, 90
3, 5075, Note_on_c, 1, 50, 0
3, 5087, Note_on_c, 1, 53, 90
3, 5117, Note_on_c, 1, 53, 0
3, 5143, Note_on_c, 1, 55, 90
3, 5196, Note_on_c, 1, 55, 0
3, 5204, Note_on_c, 1, 46, 90
3, 5237, Note_on_c, 1, 46, 0
3, 5260, Note_on_c, 1, 48, 90
3, 5308, Note_on_c, 1, 48, 0
3, 5321, Note_on_c, 1, 52, 90
3, 5359, Note_on_c, 1, 52, 0
3, 5384, Note_on_c, 1, 53, 90
3, 5423, Note_on_c, 1, 53, 0
3, 5447, Note_on_c, 1, 45, 90
3, 5481, Note_on_c, 1, 45, 0
3, 5506, Note_on_c, 1, 46, 90
3, 5555, Note_on_c, 1, 46, 0
3, 5567, Note_on_c, 1, 50, 90
3, 5602, Note_on_c, 1, 50, 0
3, 5622, Note_on_c, 1, 52, 90
3, 5671, Note_on_c, 1, 52, 0
3, 5688, Note_on_c, 1, 43, 90
3, 5732, Note_on_c, 1, 43, 0
3, 5747, Note_on_c, 1, 45, 90
3, 5800, Note_on_c, 1, 45, 0
3, 5812, Note_on_c, 1, 49, 90
3, 5851, Note_on_c, 1, 49, 0
3, 5868, Note_on_c, 1, 50, 90
3, 5913, Note_on_c, 1, 50, 0
3, 5931, Note_on_c, 1, 41, 90
3, 5966, Note_on_c, 1, 41, 0
3, 5992, Note_on_c, 1, 43, 90
3, 6214, Note_on_c, 1, 43, 0
3, 6257, Note_on_c, 1, 58, 90
3, 6285, Note_on_c, 1, 57, 90
3, 6286, Note_on_c, 1, 58, 0
3, 6317, Note_on_c, 1, 57, 0
3, 6318, Note_on_c, 1, 55, 90
3, 6349, Note_on_c, 1, 53, 90
3, 6352, Note_on_c, 1, 55, 0
3, 6379, Note_on_c, 1, 52, 90
3, 6383, Note_on_c, 1, 53, 0
3, 6409, Note_on_c, 1, 50, 90
3, 6412, Note_on_c, 1, 52, 0
3, 6441, Note_on_c, 1, 49, 90
3, 6444, Note_on_c, 1, 50, 0
3, 6467, Note_on_c, 1, 49, 0
3, 6468, Note_on_c, 1, 50, 90
3, 6501, Note_on_c, 1, 62, 90
3, 6502, Note_on_c, 1, 50, 0
3, 6533, Note_on_c, 1, 58, 90
3, 6534, Note_on_c, 1, 62, 0
3, 6564, Note_on_c, 1, 55, 90
3, 6569, Note_on_c, 1, 58, 0
3, 6584, Note_on_c, 1, 55, 0
3, 6591, Note_on_c, 1, 53, 90
3, 6625, Note_on_c, 1, 53, 0
3, 6625, Note_on_c, 1, 62, 90
3, 6644, Note_on_c, 1, 62, 0
3, 6654, Note_on_c, 1, 52, 90
3, 6684, Note_on_c, 1, 52, 0
3, 6685, Note_on_c, 1, 61, 90
3, 6697, Note_on_c, 1, 61, 0
3, 6698, Note_on_c, 1, 50, 90
3, 6707, Note_on_c, 1, 54, 90
3, 6717, Note_on_c, 1, 57, 90
3, 6722, Note_on_c, 1, 62, 90
3, 6780, Note_on_c, 1, 54, 0
3, 6780, Note_on_c, 1, 57, 0
3, 6782, Note_on_c, 1, 50, 0
3, 6782, Note_on_c, 1, 62, 0
3, 7014, Note_on_c, 1, 55, 90
3, 7038, Note_on_c, 1, 55, 0
3, 7075, Note_on_c, 1, 55, 90
3, 7133, Note_on_c, 1, 54, 90
3, 7134, Note_on_c, 1, 55, 0
3, 7192, Note_on_c, 1, 54, 0
3, 7192, Note_on_c, 1, 58, 90
3, 7317, Note_on_c, 1, 58, 0
3, 7317, Note_on_c, 1, 57, 90
3, 7489, Note_on_c, 1, 55, 90
3, 7491, Note_on_c, 1, 57, 0
3, 7560, Note_on_c, 1, 55, 0
3, 7605, Note_on_c, 1, 54, 90
3, 7636, Note_on_c, 1, 57, 90
3, 7637, Note_on_c, 1, 54, 0
3, 7654, Note_on_c, 1, 57, 0
3, 7664, Note_on_c, 1, 46, 90
3, 7694, Note_on_c, 1, 46, 0
3, 7694, Note_on_c, 1, 51, 90
3, 7728, Note_on_c, 1, 51, 0
3, 7728, Note_on_c, 1, 50, 90
3, 7756, Note_on_c, 1, 51, 90
3, 7759, Note_on_c, 1, 50, 0
3, 7784, Note_on_c, 1, 51, 0
3, 7786, Note_on_c, 1, 45, 90
3, 7817, Note_on_c, 1, 45, 0
3, 7817, Note_on_c, 1, 50, 90
3, 7845, Note_on_c, 1, 50, 0
3, 7846, Note_on_c, 1, 48, 90
3, 7874, Note_on_c, 1, 50, 90
3, 7876, Note_on_c, 1, 48, 0
3, 7902, Note_on_c, 1, 43, 90
3, 7904, Note_on_c, 1, 50, 0
3, 8033, Note_on_c, 1, 43, 0
3, 8181, Note_on_c, 1, 57, 90
3, 8211, Note_on_c, 1, 55, 90
3, 8213, Note_on_c, 1, 57, 0
3, 8238, Note_on_c, 1, 57, 90
3, 8242, Note_on_c, 1, 55, 0
3, 8266, Note_on_c, 1, 53, 90
3, 8267, Note_on_c, 1, 57, 0
3, 8296, Note_on_c, 1, 55, 90
3, 8297, Note_on_c, 1, 53, 0
3, 8324, Note_on_c, 1, 51, 90
3, 8328, Note_on_c, 1, 55, 0
3, 8354, Note_on_c, 1, 51, 0
3, 8354, Note_on_c, 1, 53, 90
3, 8387, Note_on_c, 1, 50, 90
3, 8388, Note_on_c, 1, 53, 0
3, 8420, Note_on_c, 1, 50, 0
3, 8449, Note_on_c, 1, 62, 90
3, 8481, Note_on_c, 1, 62, 0
3, 8509, Note_on_c, 1, 62, 90
3, 8566, Note_on_c, 1, 58, 90
3, 8569, Note_on_c, 1, 62, 0
3, 8618, Note_on_c, 1, 58, 0
3, 8655, Note_on_c, 1, 63, 90
3, 8684, Note_on_c, 1, 62, 90
3, 8685, Note_on_c, 1, 63, 0
3, 8715, Note_on_c, 1, 63, 90
3, 8716, Note_on_c, 1, 62, 0
3, 8743, Note_on_c, 1, 63, 0
3, 8745, Note_on_c, 1, 60, 90
3, 8776, Note_on_c, 1, 63, 90
3, 8780, Note_on_c, 1, 60, 0
3, 8806, Note_on_c, 1, 57, 90
3, 8808, Note_on_c, 1, 63, 0
3, 8834, Note_on_c, 1, 60, 90
3, 8835, Note_on_c, 1, 57, 0
3, 8863, Note_on_c, 1, 60, 0
3, 8865, Note_on_c, 1, 54, 90
3, 8903, Note_on_c, 1, 54, 0
3, 8930, Note_on_c, 1, 57, 90
3, 8987, Note_on_c, 1, 57, 0
3, 8988, Note_on_c, 1, 58, 90
3, 9022, Note_on_c, 1, 58, 0
3, 9047, Note_on_c, 1, 50, 90
3, 9106, Note_on_c, 1, 50, 0
3, 9139, Note_on_c, 1, 51, 90
3, 9167, Note_on_c, 1, 48, 90
3, 9168, Note_on_c, 1, 51, 0
3, 9198, Note_on_c, 1, 48, 0
3, 9198, Note_on_c, 1, 50, 90
3, 9228, Note_on_c, 1, 46, 90
3, 9229, Note_on_c, 1, 50, 0
3, 9259, Note_on_c, 1, 46, 0
3, 9260, Note_on_c, 1, 48, 90
3, 9289, Note_on_c, 1, 45, 90
3, 9290, Note_on_c, 1, 48, 0
3, 9320, Note_on_c, 1, 46, 90
3, 9323, Note_on_c, 1, 45, 0
3, 9348, Note_on_c, 1, 46, 0
3, 9351, Note_on_c, 1, 43, 90
3, 9378, Note_on_c, 1, 43, 0
3, 9414, Note_on_c, 1, 55, 90
3, 9442, Note_on_c, 1, 55, 0
3, 9475, Note_on_c, 1, 55, 90
3, 9536, Note_on_c, 1, 54, 90
3, 9538, Note_on_c, 1, 55, 0
3, 9594, Note_on_c, 1, 58, 90
3, 9595, Note_on_c, 1, 54, 0
3, 9714, Note_on_c, 1, 57, 90
3, 9716, Note_on_c, 1, 58, 0
3, 9869, Note_on_c, 1, 57, 0
3, 9893, Note_on_c, 1, 55, 90
3, 9997, Note_on_c, 1, 55, 0
3, 10014, Note_on_c, 1, 54, 90
3, 10039, Note_on_c, 1, 54, 0
3, 10041, Note_on_c, 1, 57, 90
3, 10057, Note_on_c, 1, 57, 0
3, 10072, Note_on_c, 1, 46, 90
3, 10099, Note_on_c, 1, 46, 0
3, 10135, Note_on_c, 1, 58, 90
3, 10159, Note_on_c, 1, 58, 0
3, 10196, Note_on_c, 1, 58, 90
3, 10252, Note_on_c, 1, 58, 0
3, 10252, Note_on_c, 1, 57, 90
3, 10311, Note_on_c, 1, 62, 90
3, 10313, Note_on_c, 1, 57, 0
3, 10430, Note_on_c, 1, 60, 90
3, 10433, Note_on_c, 1, 62, 0
3, 10610, Note_on_c, 1, 58, 90
3, 10612, Note_on_c, 1, 60, 0
3, 10698, Note_on_c, 1, 58, 0
3, 10729, Note_on_c, 1, 57, 90
3, 10758, Note_on_c, 1, 60, 90
3, 10759, Note_on_c, 1, 57, 0
3, 10783, Note_on_c, 1, 60, 0
3, 10790, Note_on_c, 1, 50, 90
3, 10821, Note_on_c, 1, 55, 90
3, 10822, Note_on_c, 1, 50, 0
3, 10850, Note_on_c, 1, 55, 0
3, 10850, Note_on_c, 1, 53, 90
3, 10880, Note_on_c, 1, 55, 90
3, 10882, Note_on_c, 1, 53, 0
3, 10902, Note_on_c, 1, 55, 0
3, 10906, Note_on_c, 1, 48, 90
3, 10928, Note_on_c, 1, 48, 0
3, 10937, Note_on_c, 1, 53, 90
3, 10966, Note_on_c, 1, 51, 90
3, 10967, Note_on_c, 1, 53, 0
3, 10993, Note_on_c, 1, 51, 0
3, 10996, Note_on_c, 1, 53, 90
3, 11025, Note_on_c, 1, 53, 0
3, 11025, Note_on_c, 1, 46, 90
3, 11036, Note_on_c, 1, 46, 0
3, 11055, Note_on_c, 1, 62, 90
3, 11084, Note_on_c, 1, 62, 0
3, 11085, Note_on_c, 1, 60, 90
3, 11116, Note_on_c, 1, 60, 0
3, 11117, Note_on_c, 1, 62, 90
3, 11149, Note_on_c, 1, 62, 0
3, 11150, Note_on_c, 1, 58, 90
3, 11181, Note_on_c, 1, 62, 90
3, 11185, Note_on_c, 1, 58, 0
3, 11211, Note_on_c, 1, 55, 90
3, 11214, Note_on_c, 1, 62, 0
3, 11240, Note_on_c, 1, 58, 90
3, 11241, Note_on_c, 1, 55, 0
3, 11269, Note_on_c, 1, 51, 90
3, 11270, Note_on_c, 1, 58, 0
3, 11295, Note_on_c, 1, 51, 0
3, 11304, Note_on_c, 1, 60, 90
3, 11331, Note_on_c, 1, 60, 0
3, 11331, Note_on_c, 1, 58, 90
3, 11361, Note_on_c, 1, 58, 0
3, 11361, Note_on_c, 1, 60, 90
3, 11390, Note_on_c, 1, 60, 0
3, 11390, Note_on_c, 1, 57, 90
3, 11421, Note_on_c, 1, 60, 90
3, 11426, Note_on_c, 1, 57, 0
3, 11450, Note_on_c, 1, 53, 90
3, 11454, Note_on_c, 1, 60, 0
3, 11477, Note_on_c, 1, 57, 90
3, 11479, Note_on_c, 1, 53, 0
3, 11507, Note_on_c, 1, 57, 0
3, 11507, Note_on_c, 1, 50, 90
3, 11534, Note_on_c, 1, 50, 0
3, 11576, Note_on_c, 1, 46, 90
3, 11609, Note_on_c, 1, 46, 0
3, 11636, Note_on_c, 1, 50, 90
3, 11675, Note_on_c, 1, 50, 0
3, 11689, Note_on_c, 1, 54, 90
3, 11722, Note_on_c, 1, 54, 0
3, 11749, Note_on_c, 1, 55, 90
3, 11821, Note_on_c, 1, 55, 0
3, 11838, Note_on_c, 1, 54, 90
3, 11852, Note_on_c, 1, 54, 0
3, 11870, Note_on_c, 1, 55, 90
3, 12021, Note_on_c, 1, 57, 90
3, 12023, Note_on_c, 1, 55, 0
3, 12052, Note_on_c, 1, 54, 90
3, 12053, Note_on_c, 1, 57, 0
3, 12079, Note_on_c, 1, 54, 0
3, 12080, Note_on_c, 1, 57, 90
3, 12105, Note_on_c, 1, 57, 0
3, 12110, Note_on_c, 1, 55, 90
3, 12256, Note_on_c, 1, 55, 0
3, 12288, Note_on_c, 1, 55, 90
3, 12317, Note_on_c, 1, 55, 0
3, 12349, Note_on_c, 1, 55, 90
3, 12408, Note_on_c, 1, 54, 90
3, 12409, Note_on_c, 1, 55, 0
3, 12467, Note_on_c, 1, 58, 90
3, 12469, Note_on_c, 1, 54, 0
3, 12589, Note_on_c, 1, 58, 0
3, 12595, Note_on_c, 1, 57, 90
3, 12779, Note_on_c, 1, 57, 0
3, 12779, Note_on_c, 1, 55, 90
3, 12894, Note_on_c, 1, 55, 0
3, 12899, Note_on_c, 1, 53, 90
3, 12929, Note_on_c, 1, 56, 90
3, 12934, Note_on_c, 1, 53, 0
3, 12953, Note_on_c, 1, 56, 0
3, 12959, Note_on_c, 1, 47, 90
3, 12991, Note_on_c, 1, 51, 90
3, 12995, Note_on_c, 1, 47, 0
3, 13021, Note_on_c, 1, 50, 90
3, 13022, Note_on_c, 1, 51, 0
3, 13048, Note_on_c, 1, 51, 90
3, 13050, Note_on_c, 1, 50, 0
3, 13075, Note_on_c, 1, 51, 0
3, 13075, Note_on_c, 1, 45, 90
3, 13104, Note_on_c, 1, 50, 90
3, 13106, Note_on_c, 1, 45, 0
3, 13133, Note_on_c, 1, 50, 0
3, 13133, Note_on_c, 1, 48, 90
3, 13159, Note_on_c, 1, 50, 90
3, 13161, Note_on_c, 1, 48, 0
3, 13187, Note_on_c, 1, 43, 90
3, 13189, Note_on_c, 1, 50, 0
3, 13216, Note_on_c, 1, 48, 90
3, 13219, Note_on_c, 1, 43, 0
3, 13247, Note_on_c, 1, 47, 90
3, 13248, Note_on_c, 1, 48, 0
3, 13274, Note_on_c, 1, 47, 0
3, 13274, Note_on_c, 1, 48, 90
3, 13306, Note_on_c, 1, 48, 0
3, 13307, Note_on_c, 1, 41, 90
3, 13341, Note_on_c, 1, 41, 0
3, 13369, Note_on_c, 1, 53, 90
3, 13491, Note_on_c, 1, 51, 90
3, 13495, Note_on_c, 1, 53, 0
3, 13580, Note_on_c, 1, 50, 90
3, 13582, Note_on_c, 1, 51, 0
3, 13610, Note_on_c, 1, 51, 90
3, 13611, Note_on_c, 1, 50, 0
3, 13635, Note_on_c, 1, 48, 90
3, 13636, Note_on_c, 1, 51, 0
3, 13653, Note_on_c, 1, 48, 0
3, 13668, Note_on_c, 1, 47, 90
3, 13710, Note_on_c, 1, 47, 0
3, 13730, Note_on_c, 1, 43, 90
3, 13775, Note_on_c, 1, 43, 0
3, 13815, Note_on_c, 1, 67, 90
3, 13845, Note_on_c, 1, 67, 0
3, 13846, Note_on_c, 1, 65, 90
3, 13876, Note_on_c, 1, 65, 0
3, 13876, Note_on_c, 1, 67, 90
3, 13901, Note_on_c, 1, 67, 0
3, 13905, Note_on_c, 1, 63, 90
3, 13938, Note_on_c, 1, 67, 90
3, 13942, Note_on_c, 1, 63, 0
3, 13967, Note_on_c, 1, 60, 90
3, 13971, Note_on_c, 1, 67, 0
3, 13994, Note_on_c, 1, 60, 0
3, 13996, Note_on_c, 1, 63, 90
3, 14024, Note_on_c, 1, 63, 0
3, 14025, Note_on_c, 1, 56, 90
3, 14049, Note_on_c, 1, 56, 0
3, 14055, Note_on_c, 1, 65, 90
3, 14086, Note_on_c, 1, 65, 0
3, 14086, Note_on_c, 1, 63, 90
3, 14117, Note_on_c, 1, 65, 90
3, 14118, Note_on_c, 1, 63, 0
3, 14145, Note_on_c, 1, 65, 0
3, 14146, Note_on_c, 1, 62, 90
3, 14177, Note_on_c, 1, 65, 90
3, 14179, Note_on_c, 1, 62, 0
3, 14207, Note_on_c, 1, 58, 90
3, 14210, Note_on_c, 1, 65, 0
3, 14236, Note_on_c, 1, 58, 0
3, 14236, Note_on_c, 1, 62, 90
3, 14265, Note_on_c, 1, 55, 90
3, 14268, Note_on_c, 1, 62, 0
3, 14293, Note_on_c, 1, 55, 0
3, 14295, Note_on_c, 1, 63, 90
3, 14325, Note_on_c, 1, 62, 90
3, 14327, Note_on_c, 1, 63, 0
3, 14356, Note_on_c, 1, 63, 90
3, 14357, Note_on_c, 1, 62, 0
3, 14385, Note_on_c, 1, 63, 0
3, 14387, Note_on_c, 1, 60, 90
3, 14418, Note_on_c, 1, 63, 90
3, 14422, Note_on_c, 1, 60, 0
3, 14448, Note_on_c, 1, 56, 90
3, 14451, Note_on_c, 1, 63, 0
3, 14479, Note_on_c, 1, 60, 90
3, 14481, Note_on_c, 1, 56, 0
3, 14509, Note_on_c, 1, 53, 90
3, 14510, Note_on_c, 1, 60, 0
3, 14536, Note_on_c, 1, 53, 0
3, 14539, Note_on_c, 1, 62, 90
3, 14567, Note_on_c, 1, 60, 90
3, 14568, Note_on_c, 1, 62, 0
3, 14598, Note_on_c, 1, 60, 0
3, 14598, Note_on_c, 1, 62, 90
3, 14626, Note_on_c, 1, 62, 0
3, 14626, Note_on_c, 1, 59, 90
3, 14657, Note_on_c, 1, 62, 90
3, 14662, Note_on_c, 1, 59, 0
3, 14685, Note_on_c, 1, 55, 90
3, 14689, Note_on_c, 1, 62, 0
3, 14714, Note_on_c, 1, 59, 90
3, 14715, Note_on_c, 1, 55, 0
3, 14744, Note_on_c, 1, 59, 0
3, 14744, Note_on_c, 1, 51, 90
3, 14776, Note_on_c, 1, 51, 0
3, 14777, Note_on_c, 1, 60, 90
3, 14806, Note_on_c, 1, 60, 0
3, 14806, Note_on_c, 1, 58, 90
3, 14834, Note_on_c, 1, 58, 0
3, 14835, Note_on_c, 1, 60, 90
3, 14862, Note_on_c, 1, 60, 0
3, 14863, Note_on_c, 1, 56, 90
3, 14895, Note_on_c, 1, 60, 90
3, 14899, Note_on_c, 1, 56, 0
3, 14929, Note_on_c, 1, 53, 90
3, 14932, Note_on_c, 1, 60, 0
3, 14956, Note_on_c, 1, 56, 90
3, 14959, Note_on_c, 1, 53, 0
3, 14981, Note_on_c, 1, 56, 0
3, 14983, Note_on_c, 1, 50, 90
3, 15011, Note_on_c, 1, 53, 90
3, 15013, Note_on_c, 1, 50, 0
3, 15040, Note_on_c, 1, 47, 90
3, 15041, Note_on_c, 1, 53, 0
3, 15066, Note_on_c, 1, 50, 90
3, 15067, Note_on_c, 1, 47, 0
3, 15098, Note_on_c, 1, 50, 0
3, 15099, Note_on_c, 1, 43, 90
3, 15130, Note_on_c, 1, 43, 0
3, 15130, Note_on_c, 1, 55, 90
3, 15161, Note_on_c, 1, 57, 90
3, 15162, Note_on_c, 1, 55, 0
3, 15191, Note_on_c, 1, 59, 90
3, 15193, Note_on_c, 1, 57, 0
3, 15223, Note_on_c, 1, 60, 90
3, 15226, Note_on_c, 1, 59, 0
3, 15256, Note_on_c, 1, 59, 90
3, 15257, Note_on_c, 1, 60, 0
3, 15284, Note_on_c, 1, 60, 90
3, 15286, Note_on_c, 1, 59, 0
3, 15314, Note_on_c, 1, 62, 90
3, 15315, Note_on_c, 1, 60, 0
3, 15345, Note_on_c, 1, 63, 90
3, 15346, Note_on_c, 1, 62, 0
3, 15374, Note_on_c, 1, 62, 90
3, 15376, Note_on_c, 1, 63, 0
3, 15401, Note_on_c, 1, 60, 90
3, 15402, Note_on_c, 1, 62, 0
3, 15431, Note_on_c, 1, 60, 0
3, 15432, Note_on_c, 1, 62, 90
3, 15454, Note_on_c, 1, 62, 0
3, 15466, Note_on_c, 1, 55, 90
3, 15498, Note_on_c, 1, 55, 0
3, 15529, Note_on_c, 1, 59, 90
3, 15554, Note_on_c, 1, 59, 0
3, 15592, Note_on_c, 1, 60, 90
3, 15625, Note_on_c, 1, 60, 0
3, 15625, Note_on_c, 1, 63, 90
3, 15652, Note_on_c, 1, 62, 90
3, 15653, Note_on_c, 1, 63, 0
3, 15684, Note_on_c, 1, 62, 0
3, 15686, Note_on_c, 1, 63, 90
3, 15701, Note_on_c, 1, 63, 0
3, 15715, Note_on_c, 1, 53, 90
3, 15749, Note_on_c, 1, 62, 90
3, 15750, Note_on_c, 1, 53, 0
3, 15780, Note_on_c, 1, 62, 0
3, 15781, Note_on_c, 1, 60, 90
3, 15809, Note_on_c, 1, 62, 90
3, 15810, Note_on_c, 1, 60, 0
3, 15865, Note_on_c, 1, 62, 0
3, 15868, Note_on_c, 1, 55, 90
3, 15884, Note_on_c, 1, 55, 0
3, 15902, Note_on_c, 1, 60, 90
3, 15926, Note_on_c, 1, 60, 0
3, 15962, Note_on_c, 1, 60, 90
3, 16021, Note_on_c, 1, 59, 90
3, 16022, Note_on_c, 1, 60, 0
3, 16078, Note_on_c, 1, 59, 0
3, 16078, Note_on_c, 1, 63, 90
3, 16186, Note_on_c, 1, 63, 0
3, 16188, Note_on_c, 1, 62, 90
3, 16302, Note_on_c, 1, 62, 0
3, 16335, Note_on_c, 1, 55, 90
3, 16365, Note_on_c, 1, 53, 90
3, 16366, Note_on_c, 1, 55, 0
3, 16395, Note_on_c, 1, 55, 90
3, 16400, Note_on_c, 1, 53, 0
3, 16424, Note_on_c, 1, 51, 90
3, 16428, Note_on_c, 1, 55, 0
3, 16455, Note_on_c, 1, 51, 0
3, 16455, Note_on_c, 1, 53, 90
3, 16482, Note_on_c, 1, 50, 90
3, 16485, Note_on_c, 1, 53, 0
3, 16515, Note_on_c, 1, 51, 90
3, 16518, Note_on_c, 1, 50, 0
3, 16547, Note_on_c, 1, 51, 0
3, 16547, Note_on_c, 1, 48, 90
3, 16576, Note_on_c, 1, 48, 0
3, 16612, Note_on_c, 1, 57, 90
3, 16640, Note_on_c, 1, 57, 0
3, 16673, Note_on_c, 1, 62, 90
3, 16719, Note_on_c, 1, 62, 0
3, 16739, Note_on_c, 1, 62, 90
3, 16764, Note_on_c, 1, 62, 0
3, 16799, Note_on_c, 1, 62, 90
3, 16857, Note_on_c, 1, 61, 90
3, 16858, Note_on_c, 1, 62, 0
3, 16889, Note_on_c, 1, 61, 0
3, 16915, Note_on_c, 1, 65, 90
3, 17032, Note_on_c, 1, 65, 0
3, 17033, Note_on_c, 1, 64, 90
3, 17182, Note_on_c, 1, 63, 90
3, 17183, Note_on_c, 1, 64, 0
3, 17213, Note_on_c, 1, 63, 0
3, 17213, Note_on_c, 1, 62, 90
3, 17241, Note_on_c, 1, 62, 0
3, 17242, Note_on_c, 1, 65, 90
3, 17272, Note_on_c, 1, 65, 0
3, 17274, Note_on_c, 1, 59, 90
3, 17327, Note_on_c, 1, 59, 0
3, 17328, Note_on_c, 1, 60, 90
3, 17339, Note_on_c, 1, 60, 0
3, 17339, Note_on_c, 1, 59, 90
3, 17352, Note_on_c, 1, 60, 90
3, 17357, Note_on_c, 1, 59, 0
3, 17382, Note_on_c, 1, 60, 0
3, 17383, Note_on_c, 1, 62, 90
3, 17414, Note_on_c, 1, 62, 0
3, 17416, Note_on_c, 1, 55, 90
3, 17442, Note_on_c, 1, 55, 0
3, 17443, Note_on_c, 1, 52, 90
3, 17472, Note_on_c, 1, 52, 0
3, 17473, Note_on_c, 1, 53, 90
3, 17504, Note_on_c, 1, 53, 0
3, 17506, Note_on_c, 1, 51, 90
3, 17546, Note_on_c, 1, 51, 0
3, 17575, Note_on_c, 1, 47, 90
3, 17609, Note_on_c, 1, 47, 0
3, 17633, Note_on_c, 1, 48, 90
3, 17665, Note_on_c, 1, 48, 0
3, 17665, Note_on_c, 1, 51, 90
3, 17696, Note_on_c, 1, 51, 0
3, 17696, Note_on_c, 1, 50, 90
3, 17718, Note_on_c, 1, 50, 0
3, 17725, Note_on_c, 1, 53, 90
3, 17743, Note_on_c, 1, 53, 0
3, 17752, Note_on_c, 1, 51, 90
3, 17782, Note_on_c, 1, 51, 0
3, 17783, Note_on_c, 1, 60, 90
3, 17815, Note_on_c, 1, 60, 0
3, 17815, Note_on_c, 1, 59, 90
3, 17841, Note_on_c, 1, 62, 90
3, 17842, Note_on_c, 1, 59, 0
3, 17853, Note_on_c, 1, 62, 0
3, 17871, Note_on_c, 1, 60, 90
3, 17901, Note_on_c, 1, 58, 90
3, 17903, Note_on_c, 1, 60, 0
3, 17929, Note_on_c, 1, 58, 0
3, 17929, Note_on_c, 1, 57, 90
3, 17957, Note_on_c, 1, 57, 0
3, 17957, Note_on_c, 1, 55, 90
3, 17987, Note_on_c, 1, 55, 0
3, 17988, Note_on_c, 1, 54, 90
3, 18015, Note_on_c, 1, 54, 0
3, 18015, Note_on_c, 1, 55, 90
3, 18046, Note_on_c, 1, 55, 0
3, 18047, Note_on_c, 1, 54, 90
3, 18076, Note_on_c, 1, 52, 90
3, 18077, Note_on_c, 1, 54, 0
3, 18109, Note_on_c, 1, 52, 0
3, 18109, Note_on_c, 1, 50, 90
3, 18134, Note_on_c, 1, 50, 0
3, 18172, Note_on_c, 1, 54, 90
3, 18199, Note_on_c, 1, 54, 0
3, 18229, Note_on_c, 1, 55, 90
3, 18275, Note_on_c, 1, 55, 0
3, 18288, Note_on_c, 1, 58, 90
3, 18315, Note_on_c, 1, 58, 0
3, 18348, Note_on_c, 1, 60, 90
3, 18384, Note_on_c, 1, 60, 0
3, 18411, Note_on_c, 1, 51, 90
3, 18439, Note_on_c, 1, 51, 0
3, 18474, Note_on_c, 1, 53, 90
3, 18513, Note_on_c, 1, 53, 0
3, 18525, Note_on_c, 1, 57, 90
3, 18561, Note_on_c, 1, 57, 0
3, 18585, Note_on_c, 1, 58, 90
3, 18624, Note_on_c, 1, 58, 0
3, 18647, Note_on_c, 1, 50, 90
3, 18681, Note_on_c, 1, 50, 0
3, 18708, Note_on_c, 1, 51, 90
3, 18747, Note_on_c, 1, 51, 0
3, 18767, Note_on_c, 1, 55, 90
3, 18801, Note_on_c, 1, 55, 0
3, 18827, Note_on_c, 1, 57, 90
3, 18866, Note_on_c, 1, 57, 0
3, 18889, Note_on_c, 1, 48, 90
3, 18924, Note_on_c, 1, 48, 0
3, 18949, Note_on_c, 1, 50, 90
3, 18988, Note_on_c, 1, 50, 0
3, 19007, Note_on_c, 1, 54, 90
3, 19036, Note_on_c, 1, 54, 0
3, 19066, Note_on_c, 1, 55, 90
3, 19102, Note_on_c, 1, 55, 0
3, 19129, Note_on_c, 1, 46, 90
3, 19160, Note_on_c, 1, 46, 0
3, 19188, Note_on_c, 1, 48, 90
3, 19424, Note_on_c, 1, 48, 0
3, 19449, Note_on_c, 1, 51, 90
3, 19480, Note_on_c, 1, 51, 0
3, 19480, Note_on_c, 1, 50, 90
3, 19511, Note_on_c, 1, 50, 0
3, 19513, Note_on_c, 1, 48, 90
3, 19542, Note_on_c, 1, 48, 0
3, 19542, Note_on_c, 1, 46, 90
3, 19572, Note_on_c, 1, 46, 0
3, 19572, Note_on_c, 1, 45, 90
3, 19603, Note_on_c, 1, 43, 90
3, 19604, Note_on_c, 1, 45, 0
3, 19634, Note_on_c, 1, 42, 90
3, 19639, Note_on_c, 1, 43, 0
3, 19658, Note_on_c, 1, 42, 0
3, 19661, Note_on_c, 1, 43, 90
3, 19679, Note_on_c, 1, 43, 0
3, 19696, Note_on_c, 1, 55, 90
3, 19727, Note_on_c, 1, 51, 90
3, 19728, Note_on_c, 1, 55, 0
3, 19757, Note_on_c, 1, 48, 90
3, 19758, Note_on_c, 1, 51, 0
3, 19782, Note_on_c, 1, 48, 0
3, 19796, Note_on_c, 1, 46, 90
3, 19822, Note_on_c, 1, 46, 0
3, 19830, Note_on_c, 1, 55, 90
3, 19854, Note_on_c, 1, 55, 0
3, 19860, Note_on_c, 1, 45, 90
3, 19886, Note_on_c, 1, 45, 0
3, 19888, Note_on_c, 1, 54, 90
3, 19909, Note_on_c, 1, 54, 0
3, 19910, Note_on_c, 1, 43, 90
3, 19914, Note_on_c, 1, 46, 90
3, 19922, Note_on_c, 1, 50, 90
3, 19924, Note_on_c, 1, 55, 90
3, 20005, Note_on_c, 1, 46, 0
3, 20006, Note_on_c, 1, 50, 0
3, 20006, Note_on_c, 1, 55, 0
3, 20007, Note_on_c, 1, 43, 0
3, 20007, End_track
4, 0, Start_track
4, 0, Title_t, "Ped"
4, 0, MIDI_port, 0
4, 0, Control_c, 2, 7, 97
4, 0, Control_c, 2, 93, 0
4, 0, Control_c, 2, 91, 127
4, 0, Control_c, 2, 10, 76
4, 0, Program_c, 2, 42
4, 286, Note_on_c, 2, 55, 90
4, 308, Note_on_c, 2, 55, 0
4, 343, Note_on_c, 2, 55, 90
4, 405, Note_on_c, 2, 54, 90
4, 406, Note_on_c, 2, 55, 0
4, 462, Note_on_c, 2, 58, 90
4, 463, Note_on_c, 2, 54, 0
4, 583, Note_on_c, 2, 58, 0
4, 586, Note_on_c, 2, 57, 90
4, 769, Note_on_c, 2, 55, 90
4, 771, Note_on_c, 2, 57, 0
4, 845, Note_on_c, 2, 55, 0
4, 881, Note_on_c, 2, 54, 90
4, 910, Note_on_c, 2, 57, 90
4, 911, Note_on_c, 2, 54, 0
4, 926, Note_on_c, 2, 57, 0
4, 937, Note_on_c, 2, 46, 90
4, 963, Note_on_c, 2, 51, 90
4, 964, Note_on_c, 2, 46, 0
4, 993, Note_on_c, 2, 51, 0
4, 994, Note_on_c, 2, 50, 90
4, 1029, Note_on_c, 2, 51, 90
4, 1030, Note_on_c, 2, 50, 0
4, 1056, Note_on_c, 2, 51, 0
4, 1058, Note_on_c, 2, 45, 90
4, 1090, Note_on_c, 2, 50, 90
4, 1092, Note_on_c, 2, 45, 0
4, 1120, Note_on_c, 2, 50, 0
4, 1120, Note_on_c, 2, 48, 90
4, 1148, Note_on_c, 2, 50, 90
4, 1151, Note_on_c, 2, 48, 0
4, 1180, Note_on_c, 2, 50, 0
4, 1181, Note_on_c, 2, 43, 90
4, 1217, Note_on_c, 2, 48, 90
4, 1220, Note_on_c, 2, 43, 0
4, 1248, Note_on_c, 2, 46, 90
4, 1249, Note_on_c, 2, 48, 0
4, 1274, Note_on_c, 2, 46, 0
4, 1277, Note_on_c, 2, 48, 90
4, 1305, Note_on_c, 2, 48, 0
4, 1308, Note_on_c, 2, 42, 90
4, 1345, Note_on_c, 2, 42, 0
4, 1374, Note_on_c, 2, 54, 90
4, 1399, Note_on_c, 2, 54, 0
4, 1437, Note_on_c, 2, 55, 90
4, 1483, Note_on_c, 2, 55, 0
4, 1496, Note_on_c, 2, 58, 90
4, 1525, Note_on_c, 2, 58, 0
4, 1554, Note_on_c, 2, 60, 90
4, 1601, Note_on_c, 2, 60, 0
4, 1615, Note_on_c, 2, 51, 90
4, 1639, Note_on_c, 2, 51, 0
4, 1677, Note_on_c, 2, 53, 90
4, 1726, Note_on_c, 2, 53, 0
4, 1732, Note_on_c, 2, 57, 90
4, 1754, Note_on_c, 2, 57, 0
4, 1792, Note_on_c, 2, 58, 90
4, 1849, Note_on_c, 2, 58, 0
4, 1853, Note_on_c, 2, 50, 90
4, 1877, Note_on_c, 2, 50, 0
4, 1916, Note_on_c, 2, 51, 90
4, 1975, Note_on_c, 2, 51, 0
4, 1979, Note_on_c, 2, 55, 90
4, 2021, Note_on_c, 2, 55, 0
4, 2041, Note_on_c, 2, 57, 90
4, 2095, Note_on_c, 2, 57, 0
4, 2097, Note_on_c, 2, 48, 90
4, 2124, Note_on_c, 2, 48, 0
4, 2156, Note_on_c, 2, 50, 90
4, 2214, Note_on_c, 2, 50, 0
4, 2216, Note_on_c, 2, 54, 90
4, 2243, Note_on_c, 2, 54, 0
4, 2269, Note_on_c, 2, 55, 90
4, 2311, Note_on_c, 2, 55, 0
4, 2334, Note_on_c, 2, 46, 90
4, 2362, Note_on_c, 2, 46, 0
4, 2396, Note_on_c, 2, 48, 90
4, 2654, Note_on_c, 2, 48, 0
4, 2692, Note_on_c, 2, 48, 90
4, 2743, Note_on_c, 2, 48, 0
4, 2750, Note_on_c, 2, 46, 90
4, 2787, Note_on_c, 2, 46, 0
4, 2807, Note_on_c, 2, 45, 90
4, 2839, Note_on_c, 2, 45, 0
4, 2866, Note_on_c, 2, 43, 90
4, 2909, Note_on_c, 2, 43, 0
4, 2930, Note_on_c, 2, 48, 90
4, 2958, Note_on_c, 2, 48, 0
4, 2988, Note_on_c, 2, 50, 90
4, 3038, Note_on_c, 2, 50, 0
4, 3054, Note_on_c, 2, 38, 90
4, 3092, Note_on_c, 2, 38, 0
4, 3125, Note_on_c, 2, 43, 90
4, 3157, Note_on_c, 2, 55, 90
4, 3159, Note_on_c, 2, 43, 0
4, 3186, Note_on_c, 2, 55, 0
4, 3186, Note_on_c, 2, 53, 90
4, 3213, Note_on_c, 2, 55, 90
4, 3214, Note_on_c, 2, 53, 0
4, 3243, Note_on_c, 2, 51, 90
4, 3244, Note_on_c, 2, 55, 0
4, 3271, Note_on_c, 2, 55, 90
4, 3274, Note_on_c, 2, 51, 0
4, 3298, Note_on_c, 2, 48, 90
4, 3299, Note_on_c, 2, 55, 0
4, 3324, Note_on_c, 2, 51, 90
4, 3325, Note_on_c, 2, 48, 0
4, 3343, Note_on_c, 2, 51, 0
4, 3354, Note_on_c, 2, 47, 90
4, 3396, Note_on_c, 2, 47, 0
4, 3413, Note_on_c, 2, 43, 90
4, 3452, Note_on_c, 2, 43, 0
4, 3469, Note_on_c, 2, 48, 90
4, 3513, Note_on_c, 2, 48, 0
4, 3528, Note_on_c, 2, 36, 90
4, 3557, Note_on_c, 2, 36, 0
4, 3590, Note_on_c, 2, 38, 90
4, 3614, Note_on_c, 2, 38, 0
4, 3624, Note_on_c, 2, 50, 90
4, 3653, Note_on_c, 2, 50, 0
4, 3653, Note_on_c, 2, 48, 90
4, 3680, Note_on_c, 2, 50, 90
4, 3683, Note_on_c, 2, 48, 0
4, 3708, Note_on_c, 2, 46, 90
4, 3709, Note_on_c, 2, 50, 0
4, 3739, Note_on_c, 2, 46, 0
4, 3739, Note_on_c, 2, 48, 90
4, 3767, Note_on_c, 2, 45, 90
4, 3770, Note_on_c, 2, 48, 0
4, 3796, Note_on_c, 2, 46, 90
4, 3800, Note_on_c, 2, 45, 0
4, 3818, Note_on_c, 2, 46, 0
4, 3829, Note_on_c, 2, 43, 90
4, 3865, Note_on_c, 2, 43, 0
4, 3889, Note_on_c, 2, 50, 90
4, 3926, Note_on_c, 2, 50, 0
4, 3948, Note_on_c, 2, 55, 90
4, 3985, Note_on_c, 2, 55, 0
4, 4006, Note_on_c, 2, 55, 90
4, 4037, Note_on_c, 2, 55, 0
4, 4071, Note_on_c, 2, 55, 90
4, 4130, Note_on_c, 2, 54, 90
4, 4131, Note_on_c, 2, 55, 0
4, 4158, Note_on_c, 2, 54, 0
4, 4190, Note_on_c, 2, 58, 90
4, 4312, Note_on_c, 2, 58, 0
4, 4317, Note_on_c, 2, 57, 90
4, 4363, Note_on_c, 2, 57, 0
4, 4375, Note_on_c, 2, 45, 90
4, 4431, Note_on_c, 2, 50, 90
4, 4432, Note_on_c, 2, 45, 0
4, 4469, Note_on_c, 2, 50, 0
4, 4490, Note_on_c, 2, 50, 90
4, 4517, Note_on_c, 2, 50, 0
4, 4553, Note_on_c, 2, 50, 90
4, 4613, Note_on_c, 2, 49, 90
4, 4617, Note_on_c, 2, 50, 0
4, 4675, Note_on_c, 2, 49, 0
4, 4675, Note_on_c, 2, 53, 90
4, 4805, Note_on_c, 2, 53, 0
4, 4824, Note_on_c, 2, 53, 90
4, 4854, Note_on_c, 2, 52, 90
4, 4856, Note_on_c, 2, 53, 0
4, 4880, Note_on_c, 2, 52, 0
4, 4882, Note_on_c, 2, 55, 90
4, 4913, Note_on_c, 2, 55, 0
4, 4913, Note_on_c, 2, 49, 90
4, 4941, Note_on_c, 2, 49, 0
4, 4941, Note_on_c, 2, 57, 90
4, 4969, Note_on_c, 2, 55, 90
4, 4971, Note_on_c, 2, 57, 0
4, 4996, Note_on_c, 2, 55, 0
4, 4996, Note_on_c, 2, 57, 90
4, 5025, Note_on_c, 2, 57, 0
4, 5030, Note_on_c, 2, 53, 90
4, 5059, Note_on_c, 2, 57, 90
4, 5060, Note_on_c, 2, 53, 0
4, 5087, Note_on_c, 2, 50, 90
4, 5090, Note_on_c, 2, 57, 0
4, 5115, Note_on_c, 2, 50, 0
4, 5116, Note_on_c, 2, 53, 90
4, 5146, Note_on_c, 2, 46, 90
4, 5148, Note_on_c, 2, 53, 0
4, 5172, Note_on_c, 2, 46, 0
4, 5177, Note_on_c, 2, 55, 90
4, 5206, Note_on_c, 2, 53, 90
4, 5207, Note_on_c, 2, 55, 0
4, 5233, Note_on_c, 2, 53, 0
4, 5233, Note_on_c, 2, 55, 90
4, 5259, Note_on_c, 2, 55, 0
4, 5261, Note_on_c, 2, 52, 90
4, 5300, Note_on_c, 2, 55, 90
4, 5305, Note_on_c, 2, 52, 0
4, 5330, Note_on_c, 2, 48, 90
4, 5331, Note_on_c, 2, 55, 0
4, 5355, Note_on_c, 2, 52, 90
4, 5356, Note_on_c, 2, 48, 0
4, 5390, Note_on_c, 2, 45, 90
4, 5392, Note_on_c, 2, 52, 0
4, 5421, Note_on_c, 2, 53, 90
4, 5423, Note_on_c, 2, 45, 0
4, 5451, Note_on_c, 2, 53, 0
4, 5451, Note_on_c, 2, 52, 90
4, 5478, Note_on_c, 2, 53, 90
4, 5480, Note_on_c, 2, 52, 0
4, 5508, Note_on_c, 2, 50, 90
4, 5509, Note_on_c, 2, 53, 0
4, 5540, Note_on_c, 2, 53, 90
4, 5545, Note_on_c, 2, 50, 0
4, 5568, Note_on_c, 2, 46, 90
4, 5573, Note_on_c, 2, 53, 0
4, 5595, Note_on_c, 2, 46, 0
4, 5596, Note_on_c, 2, 50, 90
4, 5627, Note_on_c, 2, 43, 90
4, 5630, Note_on_c, 2, 50, 0
4, 5661, Note_on_c, 2, 52, 90
4, 5665, Note_on_c, 2, 43, 0
4, 5690, Note_on_c, 2, 52, 0
4, 5690, Note_on_c, 2, 50, 90
4, 5721, Note_on_c, 2, 52, 90
4, 5722, Note_on_c, 2, 50, 0
4, 5737, Note_on_c, 2, 52, 0
4, 5753, Note_on_c, 2, 49, 90
4, 5783, Note_on_c, 2, 49, 0
4, 5783, Note_on_c, 2, 52, 90
4, 5812, Note_on_c, 2, 45, 90
4, 5814, Note_on_c, 2, 52, 0
4, 5841, Note_on_c, 2, 49, 90
4, 5843, Note_on_c, 2, 45, 0
4, 5849, Note_on_c, 2, 49, 0
4, 5872, Note_on_c, 2, 41, 90
4, 5906, Note_on_c, 2, 62, 90
4, 5908, Note_on_c, 2, 41, 0
4, 5934, Note_on_c, 2, 60, 90
4, 5936, Note_on_c, 2, 62, 0
4, 5964, Note_on_c, 2, 62, 90
4, 5966, Note_on_c, 2, 60, 0
4, 5989, Note_on_c, 2, 58, 90
4, 5992, Note_on_c, 2, 62, 0
4, 6021, Note_on_c, 2, 62, 90
4, 6022, Note_on_c, 2, 58, 0
4, 6051, Note_on_c, 2, 62, 0
4, 6053, Note_on_c, 2, 55, 90
4, 6081, Note_on_c, 2, 58, 90
4, 6083, Note_on_c, 2, 55, 0
4, 6103, Note_on_c, 2, 58, 0
4, 6114, Note_on_c, 2, 51, 90
4, 6141, Note_on_c, 2, 51, 0
4, 6144, Note_on_c, 2, 55, 90
4, 6171, Note_on_c, 2, 55, 0
4, 6171, Note_on_c, 2, 48, 90
4, 6198, Note_on_c, 2, 48, 0
4, 6199, Note_on_c, 2, 51, 90
4, 6230, Note_on_c, 2, 51, 0
4, 6231, Note_on_c, 2, 45, 90
4, 6272, Note_on_c, 2, 45, 0
4, 6293, Note_on_c, 2, 49, 90
4, 6354, Note_on_c, 2, 49, 0
4, 6355, Note_on_c, 2, 50, 90
4, 6416, Note_on_c, 2, 52, 90
4, 6417, Note_on_c, 2, 50, 0
4, 6460, Note_on_c, 2, 52, 0
4, 6473, Note_on_c, 2, 53, 90
4, 6536, Note_on_c, 2, 53, 0
4, 6537, Note_on_c, 2, 55, 90
4, 6597, Note_on_c, 2, 55, 0
4, 6598, Note_on_c, 2, 57, 90
4, 6655, Note_on_c, 2, 57, 0
4, 6655, Note_on_c, 2, 45, 90
4, 6676, Note_on_c, 2, 45, 0
4, 6716, Note_on_c, 2, 38, 90
4, 6740, Note_on_c, 2, 38, 0
4, 6777, Note_on_c, 2, 55, 90
4, 6800, Note_on_c, 2, 55, 0
4, 6841, Note_on_c, 2, 55, 90
4, 6898, Note_on_c, 2, 55, 0
4, 6898, Note_on_c, 2, 54, 90
4, 6958, Note_on_c, 2, 54, 0
4, 6958, Note_on_c, 2, 58, 90
4, 7069, Note_on_c, 2, 58, 0
4, 7069, Note_on_c, 2, 57, 90
4, 7256, Note_on_c, 2, 55, 90
4, 7259, Note_on_c, 2, 57, 0
4, 7353, Note_on_c, 2, 55, 0
4, 7370, Note_on_c, 2, 54, 90
4, 7397, Note_on_c, 2, 54, 0
4, 7399, Note_on_c, 2, 57, 90
4, 7430, Note_on_c, 2, 46, 90
4, 7431, Note_on_c, 2, 57, 0
4, 7462, Note_on_c, 2, 46, 0
4, 7463, Note_on_c, 2, 51, 90
4, 7490, Note_on_c, 2, 50, 90
4, 7491, Note_on_c, 2, 51, 0
4, 7519, Note_on_c, 2, 51, 90
4, 7520, Note_on_c, 2, 50, 0
4, 7548, Note_on_c, 2, 51, 0
4, 7550, Note_on_c, 2, 45, 90
4, 7582, Note_on_c, 2, 50, 90
4, 7584, Note_on_c, 2, 45, 0
4, 7612, Note_on_c, 2, 50, 0
4, 7613, Note_on_c, 2, 48, 90
4, 7639, Note_on_c, 2, 50, 90
4, 7641, Note_on_c, 2, 48, 0
4, 7674, Note_on_c, 2, 43, 90
4, 7675, Note_on_c, 2, 50, 0
4, 7710, Note_on_c, 2, 43, 0
4, 7946, Note_on_c, 2, 55, 90
4, 7974, Note_on_c, 2, 55, 0
4, 7974, Note_on_c, 2, 53, 90
4, 8002, Note_on_c, 2, 55, 90
4, 8006, Note_on_c, 2, 53, 0
4, 8033, Note_on_c, 2, 51, 90
4, 8034, Note_on_c, 2, 55, 0
4, 8061, Note_on_c, 2, 53, 90
4, 8062, Note_on_c, 2, 51, 0
4, 8089, Note_on_c, 2, 50, 90
4, 8094, Note_on_c, 2, 53, 0
4, 8119, Note_on_c, 2, 51, 90
4, 8122, Note_on_c, 2, 50, 0
4, 8152, Note_on_c, 2, 51, 0
4, 8153, Note_on_c, 2, 48, 90
4, 8178, Note_on_c, 2, 48, 0
4, 8210, Note_on_c, 2, 58, 90
4, 8235, Note_on_c, 2, 58, 0
4, 8270, Note_on_c, 2, 58, 90
4, 8331, Note_on_c, 2, 58, 0
4, 8331, Note_on_c, 2, 57, 90
4, 8394, Note_on_c, 2, 57, 0
4, 8425, Note_on_c, 2, 62, 90
4, 8453, Note_on_c, 2, 60, 90
4, 8454, Note_on_c, 2, 62, 0
4, 8480, Note_on_c, 2, 60, 0
4, 8481, Note_on_c, 2, 62, 90
4, 8506, Note_on_c, 2, 62, 0
4, 8509, Note_on_c, 2, 58, 90
4, 8538, Note_on_c, 2, 62, 90
4, 8542, Note_on_c, 2, 58, 0
4, 8566, Note_on_c, 2, 55, 90
4, 8569, Note_on_c, 2, 62, 0
4, 8593, Note_on_c, 2, 58, 90
4, 8594, Note_on_c, 2, 55, 0
4, 8613, Note_on_c, 2, 58, 0
4, 8628, Note_on_c, 2, 51, 90
4, 8681, Note_on_c, 2, 51, 0
4, 8691, Note_on_c, 2, 55, 90
4, 8711, Note_on_c, 2, 55, 0
4, 8747, Note_on_c, 2, 57, 90
4, 8785, Note_on_c, 2, 57, 0
4, 8810, Note_on_c, 2, 48, 90
4, 8883, Note_on_c, 2, 48, 0
4, 8903, Note_on_c, 2, 50, 90
4, 8933, Note_on_c, 2, 50, 0
4, 8933, Note_on_c, 2, 48, 90
4, 8962, Note_on_c, 2, 50, 90
4, 8965, Note_on_c, 2, 48, 0
4, 8991, Note_on_c, 2, 46, 90
4, 8993, Note_on_c, 2, 50, 0
4, 9019, Note_on_c, 2, 46, 0
4, 9021, Note_on_c, 2, 48, 90
4, 9050, Note_on_c, 2, 45, 90
4, 9052, Note_on_c, 2, 48, 0
4, 9080, Note_on_c, 2, 46, 90
4, 9083, Note_on_c, 2, 45, 0
4, 9110, Note_on_c, 2, 46, 0
4, 9113, Note_on_c, 2, 43, 90
4, 9142, Note_on_c, 2, 43, 0
4, 9173, Note_on_c, 2, 55, 90
4, 9202, Note_on_c, 2, 55, 0
4, 9234, Note_on_c, 2, 55, 90
4, 9290, Note_on_c, 2, 55, 0
4, 9291, Note_on_c, 2, 54, 90
4, 9355, Note_on_c, 2, 54, 0
4, 9356, Note_on_c, 2, 58, 90
4, 9475, Note_on_c, 2, 57, 90
4, 9476, Note_on_c, 2, 58, 0
4, 9655, Note_on_c, 2, 55, 90
4, 9659, Note_on_c, 2, 57, 0
4, 9749, Note_on_c, 2, 55, 0
4, 9767, Note_on_c, 2, 54, 90
4, 9794, Note_on_c, 2, 54, 0
4, 9796, Note_on_c, 2, 57, 90
4, 9823, Note_on_c, 2, 57, 0
4, 9834, Note_on_c, 2, 46, 90
4, 9871, Note_on_c, 2, 46, 0
4, 9895, Note_on_c, 2, 58, 90
4, 9919, Note_on_c, 2, 58, 0
4, 9957, Note_on_c, 2, 58, 90
4, 10012, Note_on_c, 2, 58, 0
4, 10013, Note_on_c, 2, 57, 90
4, 10077, Note_on_c, 2, 57, 0
4, 10077, Note_on_c, 2, 62, 90
4, 10190, Note_on_c, 2, 60, 90
4, 10192, Note_on_c, 2, 62, 0
4, 10371, Note_on_c, 2, 58, 90
4, 10376, Note_on_c, 2, 60, 0
4, 10470, Note_on_c, 2, 58, 0
4, 10491, Note_on_c, 2, 57, 90
4, 10520, Note_on_c, 2, 57, 0
4, 10521, Note_on_c, 2, 60, 90
4, 10553, Note_on_c, 2, 60, 0
4, 10554, Note_on_c, 2, 50, 90
4, 10583, Note_on_c, 2, 55, 90
4, 10585, Note_on_c, 2, 50, 0
4, 10615, Note_on_c, 2, 55, 0
4, 10615, Note_on_c, 2, 53, 90
4, 10646, Note_on_c, 2, 55, 90
4, 10648, Note_on_c, 2, 53, 0
4, 10675, Note_on_c, 2, 48, 90
4, 10676, Note_on_c, 2, 55, 0
4, 10704, Note_on_c, 2, 53, 90
4, 10707, Note_on_c, 2, 48, 0
4, 10733, Note_on_c, 2, 53, 0
4, 10733, Note_on_c, 2, 51, 90
4, 10765, Note_on_c, 2, 53, 90
4, 10767, Note_on_c, 2, 51, 0
4, 10786, Note_on_c, 2, 53, 0
4, 10794, Note_on_c, 2, 46, 90
4, 10822, Note_on_c, 2, 51, 90
4, 10826, Note_on_c, 2, 46, 0
4, 10853, Note_on_c, 2, 51, 0
4, 10854, Note_on_c, 2, 50, 90
4, 10879, Note_on_c, 2, 50, 0
4, 10879, Note_on_c, 2, 51, 90
4, 10909, Note_on_c, 2, 51, 0
4, 10911, Note_on_c, 2, 45, 90
4, 10935, Note_on_c, 2, 45, 0
4, 10970, Note_on_c, 2, 57, 90
4, 11009, Note_on_c, 2, 57, 0
4, 11029, Note_on_c, 2, 58, 90
4, 11094, Note_on_c, 2, 58, 0
4, 11094, Note_on_c, 2, 57, 90
4, 11154, Note_on_c, 2, 55, 90
4, 11159, Note_on_c, 2, 57, 0
4, 11216, Note_on_c, 2, 51, 90
4, 11220, Note_on_c, 2, 55, 0
4, 11276, Note_on_c, 2, 51, 0
4, 11332, Note_on_c, 2, 48, 90
4, 11365, Note_on_c, 2, 48, 0
4, 11392, Note_on_c, 2, 53, 90
4, 11439, Note_on_c, 2, 53, 0
4, 11452, Note_on_c, 2, 41, 90
4, 11491, Note_on_c, 2, 41, 0
4, 11517, Note_on_c, 2, 46, 90
4, 11548, Note_on_c, 2, 46, 0
4, 11548, Note_on_c, 2, 53, 90
4, 11578, Note_on_c, 2, 51, 90
4, 11582, Note_on_c, 2, 53, 0
4, 11606, Note_on_c, 2, 53, 90
4, 11607, Note_on_c, 2, 51, 0
4, 11635, Note_on_c, 2, 50, 90
4, 11636, Note_on_c, 2, 53, 0
4, 11662, Note_on_c, 2, 53, 90
4, 11665, Note_on_c, 2, 50, 0
4, 11688, Note_on_c, 2, 53, 0
4, 11692, Note_on_c, 2, 46, 90
4, 11721, Note_on_c, 2, 50, 90
4, 11722, Note_on_c, 2, 46, 0
4, 11739, Note_on_c, 2, 50, 0
4, 11753, Note_on_c, 2, 43, 90
4, 11782, Note_on_c, 2, 50, 90
4, 11787, Note_on_c, 2, 43, 0
4, 11812, Note_on_c, 2, 48, 90
4, 11815, Note_on_c, 2, 50, 0
4, 11839, Note_on_c, 2, 50, 90
4, 11842, Note_on_c, 2, 48, 0
4, 11868, Note_on_c, 2, 46, 90
4, 11869, Note_on_c, 2, 50, 0
4, 11899, Note_on_c, 2, 50, 90
4, 11900, Note_on_c, 2, 46, 0
4, 11928, Note_on_c, 2, 50, 0
4, 11928, Note_on_c, 2, 43, 90
4, 11956, Note_on_c, 2, 46, 90
4, 11958, Note_on_c, 2, 43, 0
4, 11989, Note_on_c, 2, 46, 0
4, 11993, Note_on_c, 2, 39, 90
4, 12127, Note_on_c, 2, 39, 0
4, 12144, Note_on_c, 2, 51, 90
4, 12174, Note_on_c, 2, 50, 90
4, 12176, Note_on_c, 2, 51, 0
4, 12202, Note_on_c, 2, 51, 90
4, 12204, Note_on_c, 2, 50, 0
4, 12223, Note_on_c, 2, 51, 0
4, 12228, Note_on_c, 2, 48, 90
4, 12259, Note_on_c, 2, 50, 90
4, 12265, Note_on_c, 2, 48, 0
4, 12288, Note_on_c, 2, 46, 90
4, 12290, Note_on_c, 2, 50, 0
4, 12317, Note_on_c, 2, 46, 0
4, 12317, Note_on_c, 2, 48, 90
4, 12348, Note_on_c, 2, 45, 90
4, 12351, Note_on_c, 2, 48, 0
4, 12379, Note_on_c, 2, 50, 90
4, 12380, Note_on_c, 2, 45, 0
4, 12410, Note_on_c, 2, 50, 0
4, 12410, Note_on_c, 2, 48, 90
4, 12439, Note_on_c, 2, 50, 90
4, 12442, Note_on_c, 2, 48, 0
4, 12460, Note_on_c, 2, 50, 0
4, 12474, Note_on_c, 2, 43, 90
4, 12502, Note_on_c, 2, 43, 0
4, 12535, Note_on_c, 2, 55, 90
4, 12562, Note_on_c, 2, 55, 0
4, 12599, Note_on_c, 2, 55, 90
4, 12655, Note_on_c, 2, 54, 90
4, 12656, Note_on_c, 2, 55, 0
4, 12718, Note_on_c, 2, 54, 0
4, 12719, Note_on_c, 2, 58, 90
4, 12840, Note_on_c, 2, 56, 90
4, 12842, Note_on_c, 2, 58, 0
4, 13017, Note_on_c, 2, 55, 90
4, 13018, Note_on_c, 2, 56, 0
4, 13107, Note_on_c, 2, 55, 0
4, 13130, Note_on_c, 2, 53, 90
4, 13162, Note_on_c, 2, 56, 90
4, 13165, Note_on_c, 2, 53, 0
4, 13183, Note_on_c, 2, 56, 0
4, 13192, Note_on_c, 2, 47, 90
4, 13222, Note_on_c, 2, 51, 90
4, 13224, Note_on_c, 2, 47, 0
4, 13253, Note_on_c, 2, 50, 90
4, 13254, Note_on_c, 2, 51, 0
4, 13282, Note_on_c, 2, 51, 90
4, 13284, Note_on_c, 2, 50, 0
4, 13313, Note_on_c, 2, 51, 0
4, 13313, Note_on_c, 2, 45, 90
4, 13342, Note_on_c, 2, 50, 90
4, 13343, Note_on_c, 2, 45, 0
4, 13371, Note_on_c, 2, 50, 0
4, 13372, Note_on_c, 2, 48, 90
4, 13400, Note_on_c, 2, 50, 90
4, 13403, Note_on_c, 2, 48, 0
4, 13434, Note_on_c, 2, 50, 0
4, 13434, Note_on_c, 2, 43, 90
4, 13462, Note_on_c, 2, 48, 90
4, 13468, Note_on_c, 2, 43, 0
4, 13493, Note_on_c, 2, 47, 90
4, 13494, Note_on_c, 2, 48, 0
4, 13520, Note_on_c, 2, 47, 0
4, 13520, Note_on_c, 2, 48, 90
4, 13553, Note_on_c, 2, 48, 0
4, 13553, Note_on_c, 2, 41, 90
4, 13577, Note_on_c, 2, 41, 0
4, 13614, Note_on_c, 2, 56, 90
4, 13703, Note_on_c, 2, 55, 90
4, 13705, Note_on_c, 2, 56, 0
4, 13732, Note_on_c, 2, 56, 90
4, 13733, Note_on_c, 2, 55, 0
4, 13759, Note_on_c, 2, 56, 0
4, 13760, Note_on_c, 2, 53, 90
4, 13787, Note_on_c, 2, 53, 0
4, 13789, Note_on_c, 2, 55, 90
4, 13822, Note_on_c, 2, 55, 0
4, 13850, Note_on_c, 2, 47, 90
4, 13876, Note_on_c, 2, 47, 0
4, 13911, Note_on_c, 2, 48, 90
4, 13967, Note_on_c, 2, 48, 0
4, 13971, Note_on_c, 2, 51, 90
4, 13997, Note_on_c, 2, 51, 0
4, 14030, Note_on_c, 2, 53, 90
4, 14075, Note_on_c, 2, 53, 0
4, 14093, Note_on_c, 2, 44, 90
4, 14115, Note_on_c, 2, 44, 0
4, 14151, Note_on_c, 2, 46, 90
4, 14210, Note_on_c, 2, 50, 90
4, 14211, Note_on_c, 2, 46, 0
4, 14232, Note_on_c, 2, 50, 0
4, 14269, Note_on_c, 2, 51, 90
4, 14324, Note_on_c, 2, 51, 0
4, 14332, Note_on_c, 2, 43, 90
4, 14357, Note_on_c, 2, 43, 0
4, 14391, Note_on_c, 2, 44, 90
4, 14449, Note_on_c, 2, 44, 0
4, 14453, Note_on_c, 2, 48, 90
4, 14480, Note_on_c, 2, 48, 0
4, 14512, Note_on_c, 2, 50, 90
4, 14563, Note_on_c, 2, 50, 0
4, 14570, Note_on_c, 2, 41, 90
4, 14598, Note_on_c, 2, 41, 0
4, 14631, Note_on_c, 2, 43, 90
4, 14684, Note_on_c, 2, 43, 0
4, 14692, Note_on_c, 2, 47, 90
4, 14721, Note_on_c, 2, 47, 0
4, 14747, Note_on_c, 2, 48, 90
4, 14798, Note_on_c, 2, 48, 0
4, 14809, Note_on_c, 2, 39, 90
4, 14840, Note_on_c, 2, 39, 0
4, 14876, Note_on_c, 2, 41, 90
4, 15123, Note_on_c, 2, 41, 0
4, 15171, Note_on_c, 2, 53, 90
4, 15230, Note_on_c, 2, 51, 90
4, 15234, Note_on_c, 2, 53, 0
4, 15260, Note_on_c, 2, 51, 0
4, 15288, Note_on_c, 2, 50, 90
4, 15311, Note_on_c, 2, 50, 0
4, 15348, Note_on_c, 2, 48, 90
4, 15398, Note_on_c, 2, 48, 0
4, 15412, Note_on_c, 2, 53, 90
4, 15448, Note_on_c, 2, 53, 0
4, 15473, Note_on_c, 2, 55, 90
4, 15494, Note_on_c, 2, 55, 0
4, 15532, Note_on_c, 2, 43, 90
4, 15558, Note_on_c, 2, 43, 0
4, 15594, Note_on_c, 2, 36, 90
4, 15636, Note_on_c, 2, 36, 0
4, 15659, Note_on_c, 2, 48, 90
4, 15682, Note_on_c, 2, 48, 0
4, 15721, Note_on_c, 2, 48, 90
4, 15779, Note_on_c, 2, 47, 90
4, 15780, Note_on_c, 2, 48, 0
4, 15815, Note_on_c, 2, 47, 0
4, 15840, Note_on_c, 2, 51, 90
4, 15954, Note_on_c, 2, 50, 90
4, 15957, Note_on_c, 2, 51, 0
4, 16071, Note_on_c, 2, 50, 0
4, 16100, Note_on_c, 2, 50, 90
4, 16132, Note_on_c, 2, 50, 0
4, 16132, Note_on_c, 2, 48, 90
4, 16159, Note_on_c, 2, 50, 90
4, 16163, Note_on_c, 2, 48, 0
4, 16189, Note_on_c, 2, 46, 90
4, 16190, Note_on_c, 2, 50, 0
4, 16217, Note_on_c, 2, 46, 0
4, 16218, Note_on_c, 2, 48, 90
4, 16249, Note_on_c, 2, 45, 90
4, 16252, Note_on_c, 2, 48, 0
4, 16276, Note_on_c, 2, 46, 90
4, 16280, Note_on_c, 2, 45, 0
4, 16307, Note_on_c, 2, 46, 0
4, 16309, Note_on_c, 2, 43, 90
4, 16337, Note_on_c, 2, 43, 0
4, 16368, Note_on_c, 2, 50, 90
4, 16406, Note_on_c, 2, 50, 0
4, 16429, Note_on_c, 2, 55, 90
4, 16466, Note_on_c, 2, 55, 0
4, 16491, Note_on_c, 2, 55, 90
4, 16514, Note_on_c, 2, 55, 0
4, 16554, Note_on_c, 2, 55, 90
4, 16605, Note_on_c, 2, 55, 0
4, 16614, Note_on_c, 2, 54, 90
4, 16638, Note_on_c, 2, 54, 0
4, 16678, Note_on_c, 2, 58, 90
4, 16795, Note_on_c, 2, 58, 0
4, 16796, Note_on_c, 2, 57, 90
4, 16823, Note_on_c, 2, 57, 0
4, 16855, Note_on_c, 2, 45, 90
4, 16897, Note_on_c, 2, 45, 0
4, 16916, Note_on_c, 2, 50, 90
4, 16947, Note_on_c, 2, 50, 0
4, 16976, Note_on_c, 2, 50, 90
4, 17001, Note_on_c, 2, 50, 0
4, 17039, Note_on_c, 2, 50, 90
4, 17098, Note_on_c, 2, 49, 90
4, 17099, Note_on_c, 2, 50, 0
4, 17157, Note_on_c, 2, 49, 0
4, 17157, Note_on_c, 2, 53, 90
4, 17268, Note_on_c, 2, 53, 0
4, 17300, Note_on_c, 2, 53, 90
4, 17331, Note_on_c, 2, 51, 90
4, 17332, Note_on_c, 2, 53, 0
4, 17358, Note_on_c, 2, 51, 0
4, 17360, Note_on_c, 2, 55, 90
4, 17391, Note_on_c, 2, 55, 0
4, 17393, Note_on_c, 2, 47, 90
4, 17454, Note_on_c, 2, 43, 90
4, 17456, Note_on_c, 2, 47, 0
4, 17492, Note_on_c, 2, 43, 0
4, 17515, Note_on_c, 2, 48, 90
4, 17546, Note_on_c, 2, 55, 90
4, 17547, Note_on_c, 2, 48, 0
4, 17575, Note_on_c, 2, 55, 0
4, 17575, Note_on_c, 2, 50, 90
4, 17602, Note_on_c, 2, 53, 90
4, 17603, Note_on_c, 2, 50, 0
4, 17636, Note_on_c, 2, 53, 0
4, 17637, Note_on_c, 2, 51, 90
4, 17681, Note_on_c, 2, 51, 0
4, 17694, Note_on_c, 2, 47, 90
4, 17727, Note_on_c, 2, 47, 0
4, 17755, Note_on_c, 2, 48, 90
4, 17786, Note_on_c, 2, 48, 0
4, 17786, Note_on_c, 2, 51, 90
4, 17814, Note_on_c, 2, 51, 0
4, 17814, Note_on_c, 2, 50, 90
4, 17842, Note_on_c, 2, 50, 0
4, 17843, Note_on_c, 2, 53, 90
4, 17872, Note_on_c, 2, 53, 0
4, 17874, Note_on_c, 2, 51, 90
4, 17923, Note_on_c, 2, 51, 0
4, 17933, Note_on_c, 2, 48, 90
4, 17976, Note_on_c, 2, 48, 0
4, 17990, Note_on_c, 2, 50, 90
4, 18035, Note_on_c, 2, 50, 0
4, 18053, Note_on_c, 2, 38, 90
4, 18093, Note_on_c, 2, 38, 0
4, 18146, Note_on_c, 2, 62, 90
4, 18174, Note_on_c, 2, 62, 0
4, 18176, Note_on_c, 2, 60, 90
4, 18203, Note_on_c, 2, 62, 90
4, 18204, Note_on_c, 2, 60, 0
4, 18229, Note_on_c, 2, 62, 0
4, 18232, Note_on_c, 2, 58, 90
4, 18260, Note_on_c, 2, 62, 90
4, 18263, Note_on_c, 2, 58, 0
4, 18293, Note_on_c, 2, 55, 90
4, 18294, Note_on_c, 2, 62, 0
4, 18320, Note_on_c, 2, 58, 90
4, 18322, Note_on_c, 2, 55, 0
4, 18353, Note_on_c, 2, 51, 90
4, 18354, Note_on_c, 2, 58, 0
4, 18378, Note_on_c, 2, 51, 0
4, 18386, Note_on_c, 2, 60, 90
4, 18416, Note_on_c, 2, 58, 90
4, 18417, Note_on_c, 2, 60, 0
4, 18444, Note_on_c, 2, 58, 0
4, 18444, Note_on_c, 2, 60, 90
4, 18469, Note_on_c, 2, 60, 0
4, 18471, Note_on_c, 2, 57, 90
4, 18500, Note_on_c, 2, 60, 90
4, 18505, Note_on_c, 2, 57, 0
4, 18528, Note_on_c, 2, 53, 90
4, 18532, Note_on_c, 2, 60, 0
4, 18557, Note_on_c, 2, 57, 90
4, 18558, Note_on_c, 2, 53, 0
4, 18587, Note_on_c, 2, 50, 90
4, 18591, Note_on_c, 2, 57, 0
4, 18609, Note_on_c, 2, 50, 0
4, 18622, Note_on_c, 2, 58, 90
4, 18652, Note_on_c, 2, 57, 90
4, 18653, Note_on_c, 2, 58, 0
4, 18678, Note_on_c, 2, 57, 0
4, 18679, Note_on_c, 2, 58, 90
4, 18706, Note_on_c, 2, 58, 0
4, 18708, Note_on_c, 2, 55, 90
4, 18738, Note_on_c, 2, 58, 90
4, 18743, Note_on_c, 2, 55, 0
4, 18770, Note_on_c, 2, 51, 90
4, 18772, Note_on_c, 2, 58, 0
4, 18796, Note_on_c, 2, 55, 90
4, 18798, Note_on_c, 2, 51, 0
4, 18830, Note_on_c, 2, 48, 90
4, 18832, Note_on_c, 2, 55, 0
4, 18857, Note_on_c, 2, 48, 0
4, 18866, Note_on_c, 2, 57, 90
4, 18895, Note_on_c, 2, 57, 0
4, 18895, Note_on_c, 2, 55, 90
4, 18921, Note_on_c, 2, 55, 0
4, 18921, Note_on_c, 2, 57, 90
4, 18950, Note_on_c, 2, 57, 0
4, 18952, Note_on_c, 2, 54, 90
4, 18978, Note_on_c, 2, 57, 90
4, 18981, Note_on_c, 2, 54, 0
4, 19010, Note_on_c, 2, 50, 90
4, 19022, Note_on_c, 2, 57, 0
4, 19038, Note_on_c, 2, 54, 90
4, 19040, Note_on_c, 2, 50, 0
4, 19070, Note_on_c, 2, 54, 0
4, 19070, Note_on_c, 2, 46, 90
4, 19096, Note_on_c, 2, 46, 0
4, 19103, Note_on_c, 2, 55, 90
4, 19132, Note_on_c, 2, 55, 0
4, 19133, Note_on_c, 2, 53, 90
4, 19159, Note_on_c, 2, 53, 0
4, 19159, Note_on_c, 2, 55, 90
4, 19186, Note_on_c, 2, 55, 0
4, 19190, Note_on_c, 2, 51, 90
4, 19220, Note_on_c, 2, 55, 90
4, 19224, Note_on_c, 2, 51, 0
4, 19250, Note_on_c, 2, 48, 90
4, 19253, Note_on_c, 2, 55, 0
4, 19277, Note_on_c, 2, 51, 90
4, 19280, Note_on_c, 2, 48, 0
4, 19302, Note_on_c, 2, 51, 0
4, 19305, Note_on_c, 2, 45, 90
4, 19335, Note_on_c, 2, 48, 90
4, 19336, Note_on_c, 2, 45, 0
4, 19363, Note_on_c, 2, 42, 90
4, 19365, Note_on_c, 2, 48, 0
4, 19389, Note_on_c, 2, 45, 90
4, 19390, Note_on_c, 2, 42, 0
4, 19406, Note_on_c, 2, 45, 0
4, 19423, Note_on_c, 2, 38, 90
4, 19465, Note_on_c, 2, 38, 0
4, 19484, Note_on_c, 2, 42, 90
4, 19531, Note_on_c, 2, 42, 0
4, 19546, Note_on_c, 2, 43, 90
4, 19609, Note_on_c, 2, 43, 0
4, 19609, Note_on_c, 2, 45, 90
4, 19649, Note_on_c, 2, 45, 0
4, 19670, Note_on_c, 2, 46, 90
4, 19731, Note_on_c, 2, 48, 90
4, 19733, Note_on_c, 2, 46, 0
4, 19777, Note_on_c, 2, 48, 0
4, 19793, Note_on_c, 2, 50, 90
4, 19827, Note_on_c, 2, 50, 0
4, 19860, Note_on_c, 2, 38, 90
4, 19889, Note_on_c, 2, 38, 0
4, 19918, Note_on_c, 2, 43, 90
4, 20155, Note_on_c, 2, 43, 0
4, 20155, End_track
5, 0, Start_track
5, 0, MIDI_port, 0
5, 0, End_track
6, 0, Start_track
6, 0, Title_t, "Nun komm' der Heiden Heiland"
6, 0, MIDI_port, 0
6, 0, End_track
7, 0, Start_track
7, 0, Title_t, "(Trio)"
7, 0, MIDI_port, 0
7, 0, End_track
8, 0, Start_track
8, 0, Title_t, "by J S Bach (BWV 660)"
8, 0, MIDI_port, 0
8, 0, End_track
9, 0, Start_track
9, 0, MIDI_port, 0
9, 0, End_track
10, 0, Start_track
10, 0, MIDI_port, 0
10, 0, End_track
11, 0, Start_track
11, 0, Title_t, "Sequenced using WinJammer Professional"
11, 0, MIDI_port, 0
11, 0, End_track
12, 0, Start_track
12, 0, Title_t, "on Windows NT by Martin Robinson."
12, 0, MIDI_port, 0
12, 0, End_track
13, 0, Start_track
13, 0, Title_t, "(c) Martin Robinson 1997"
13, 0, MIDI_port, 0
13, 0, End_track
0, 0, End_of_file
