0, 0, Header, 1, 15, 120
1, 0, Start_track
1, 0, Sequencer_specific, 10, 0, 0, 91, 35, 1, 0, 5, 3, 24, 0
1, 0, Instrument_name_t, "Conductor Track"
1, 0, SMPTE_offset, 96, 0, 3, 0, 0
1, 0, MIDI_port, 0
1, 0, Tempo, 397350
1, 0, Time_signature, 2, 1, 48, 8
1, 42960, Tempo, 454545
1, 43020, Tempo, 517241
1, 43200, Tempo, 618556
1, 43260, Tempo, 722891
1, 43260, End_track
2, 0, Start_track
2, 0, Title_t, "Man 8"
2, 0, MIDI_port, 0
2, 0, Program_c, 0, 19
2, 0, Control_c, 0, 91, 91
2, 9, Note_on_c, 0, 67, 80
2, 65, Note_on_c, 0, 66, 80
2, 66, Note_on_c, 0, 67, 0
2, 126, Note_on_c, 0, 66, 0
2, 127, Note_on_c, 0, 67, 80
2, 178, Note_on_c, 0, 67, 0
2, 182, Note_on_c, 0, 62, 80
2, 239, Note_on_c, 0, 74, 80
2, 240, Note_on_c, 0, 62, 0
2, 296, Note_on_c, 0, 69, 80
2, 298, Note_on_c, 0, 74, 0
2, 347, Note_on_c, 0, 70, 80
2, 354, Note_on_c, 0, 69, 0
2, 404, Note_on_c, 0, 70, 0
2, 406, Note_on_c, 0, 67, 80
2, 434, Note_on_c, 0, 67, 0
2, 463, Note_on_c, 0, 66, 80
2, 528, Note_on_c, 0, 66, 0
2, 529, Note_on_c, 0, 64, 80
2, 588, Note_on_c, 0, 66, 80
2, 592, Note_on_c, 0, 64, 0
2, 642, Note_on_c, 0, 66, 0
2, 645, Note_on_c, 0, 62, 80
2, 682, Note_on_c, 0, 62, 0
2, 706, Note_on_c, 0, 74, 80
2, 770, Note_on_c, 0, 69, 80
2, 777, Note_on_c, 0, 74, 0
2, 825, Note_on_c, 0, 70, 80
2, 833, Note_on_c, 0, 69, 0
2, 880, Note_on_c, 0, 70, 0
2, 884, Note_on_c, 0, 67, 80
2, 918, Note_on_c, 0, 67, 0
2, 953, Note_on_c, 0, 75, 80
2, 1014, Note_on_c, 0, 69, 80
2, 1022, Note_on_c, 0, 75, 0
2, 1069, Note_on_c, 0, 70, 80
2, 1072, Note_on_c, 0, 69, 0
2, 1131, Note_on_c, 0, 70, 0
2, 1131, Note_on_c, 0, 67, 80
2, 1166, Note_on_c, 0, 67, 0
2, 1191, Note_on_c, 0, 66, 80
2, 1251, Note_on_c, 0, 74, 80
2, 1254, Note_on_c, 0, 66, 0
2, 1307, Note_on_c, 0, 69, 80
2, 1310, Note_on_c, 0, 74, 0
2, 1361, Note_on_c, 0, 69, 0
2, 1363, Note_on_c, 0, 72, 80
2, 1401, Note_on_c, 0, 72, 0
2, 1424, Note_on_c, 0, 62, 80
2, 1428, Note_on_c, 0, 70, 80
2, 1485, Note_on_c, 0, 60, 80
2, 1486, Note_on_c, 0, 62, 0
2, 1498, Note_on_c, 0, 70, 0
2, 1543, Note_on_c, 0, 62, 80
2, 1543, Note_on_c, 0, 74, 80
2, 1544, Note_on_c, 0, 60, 0
2, 1598, Note_on_c, 0, 55, 80
2, 1603, Note_on_c, 0, 62, 0
2, 1649, Note_on_c, 0, 55, 0
2, 1656, Note_on_c, 0, 74, 0
2, 1658, Note_on_c, 0, 67, 80
2, 1662, Note_on_c, 0, 73, 80
2, 1715, Note_on_c, 0, 64, 80
2, 1720, Note_on_c, 0, 67, 0
2, 1774, Note_on_c, 0, 73, 0
2, 1775, Note_on_c, 0, 64, 0
2, 1775, Note_on_c, 0, 65, 80
2, 1780, Note_on_c, 0, 74, 80
2, 1830, Note_on_c, 0, 62, 80
2, 1833, Note_on_c, 0, 65, 0
2, 1870, Note_on_c, 0, 62, 0
2, 1895, Note_on_c, 0, 61, 80
2, 1896, Note_on_c, 0, 74, 0
2, 1897, Note_on_c, 0, 76, 80
2, 1961, Note_on_c, 0, 59, 80
2, 1962, Note_on_c, 0, 61, 0
2, 1984, Note_on_c, 0, 76, 0
2, 2019, Note_on_c, 0, 81, 80
2, 2024, Note_on_c, 0, 61, 80
2, 2029, Note_on_c, 0, 59, 0
2, 2080, Note_on_c, 0, 61, 0
2, 2081, Note_on_c, 0, 57, 80
2, 2133, Note_on_c, 0, 57, 0
2, 2139, Note_on_c, 0, 69, 80
2, 2141, Note_on_c, 0, 73, 80
2, 2144, Note_on_c, 0, 81, 0
2, 2203, Note_on_c, 0, 64, 80
2, 2208, Note_on_c, 0, 69, 0
2, 2209, Note_on_c, 0, 73, 0
2, 2259, Note_on_c, 0, 65, 80
2, 2260, Note_on_c, 0, 74, 80
2, 2264, Note_on_c, 0, 64, 0
2, 2313, Note_on_c, 0, 65, 0
2, 2315, Note_on_c, 0, 62, 80
2, 2319, Note_on_c, 0, 74, 0
2, 2374, Note_on_c, 0, 62, 0
2, 2377, Note_on_c, 0, 70, 80
2, 2381, Note_on_c, 0, 79, 80
2, 2437, Note_on_c, 0, 64, 80
2, 2439, Note_on_c, 0, 70, 0
2, 2500, Note_on_c, 0, 64, 0
2, 2500, Note_on_c, 0, 65, 80
2, 2506, Note_on_c, 0, 81, 80
2, 2507, Note_on_c, 0, 79, 0
2, 2561, Note_on_c, 0, 62, 80
2, 2562, Note_on_c, 0, 82, 80
2, 2563, Note_on_c, 0, 65, 0
2, 2565, Note_on_c, 0, 81, 0
2, 2595, Note_on_c, 0, 62, 0
2, 2618, Note_on_c, 0, 61, 80
2, 2619, Note_on_c, 0, 82, 0
2, 2624, Note_on_c, 0, 81, 80
2, 2677, Note_on_c, 0, 61, 0
2, 2678, Note_on_c, 0, 69, 80
2, 2685, Note_on_c, 0, 77, 80
2, 2687, Note_on_c, 0, 81, 0
2, 2714, Note_on_c, 0, 69, 0
2, 2735, Note_on_c, 0, 64, 80
2, 2742, Note_on_c, 0, 79, 80
2, 2748, Note_on_c, 0, 77, 0
2, 2787, Note_on_c, 0, 67, 80
2, 2788, Note_on_c, 0, 64, 0
2, 2799, Note_on_c, 0, 79, 0
2, 2800, Note_on_c, 0, 76, 80
2, 2814, Note_on_c, 0, 67, 0
2, 2828, Note_on_c, 0, 76, 0
2, 2858, Note_on_c, 0, 65, 80
2, 2868, Note_on_c, 0, 74, 80
2, 2920, Note_on_c, 0, 65, 0
2, 2931, Note_on_c, 0, 76, 80
2, 2940, Note_on_c, 0, 74, 0
2, 2976, Note_on_c, 0, 74, 80
2, 2991, Note_on_c, 0, 77, 80
2, 2995, Note_on_c, 0, 76, 0
2, 3045, Note_on_c, 0, 74, 0
2, 3051, Note_on_c, 0, 79, 80
2, 3054, Note_on_c, 0, 77, 0
2, 3106, Note_on_c, 0, 62, 80
2, 3114, Note_on_c, 0, 77, 80
2, 3118, Note_on_c, 0, 79, 0
2, 3173, Note_on_c, 0, 75, 80
2, 3176, Note_on_c, 0, 77, 0
2, 3178, Note_on_c, 0, 62, 0
2, 3231, Note_on_c, 0, 75, 0
2, 3231, Note_on_c, 0, 74, 80
2, 3232, Note_on_c, 0, 65, 80
2, 3283, Note_on_c, 0, 65, 0
2, 3287, Note_on_c, 0, 72, 80
2, 3290, Note_on_c, 0, 74, 0
2, 3308, Note_on_c, 0, 72, 0
2, 3350, Note_on_c, 0, 67, 80
2, 3351, Note_on_c, 0, 71, 80
2, 3410, Note_on_c, 0, 69, 80
2, 3421, Note_on_c, 0, 67, 0
2, 3453, Note_on_c, 0, 69, 0
2, 3455, Note_on_c, 0, 71, 0
2, 3466, Note_on_c, 0, 79, 80
2, 3467, Note_on_c, 0, 71, 80
2, 3523, Note_on_c, 0, 72, 80
2, 3526, Note_on_c, 0, 71, 0
2, 3550, Note_on_c, 0, 79, 0
2, 3582, Note_on_c, 0, 67, 80
2, 3584, Note_on_c, 0, 72, 0
2, 3590, Note_on_c, 0, 71, 80
2, 3632, Note_on_c, 0, 71, 0
2, 3645, Note_on_c, 0, 69, 80
2, 3679, Note_on_c, 0, 67, 0
2, 3697, Note_on_c, 0, 69, 0
2, 3712, Note_on_c, 0, 71, 80
2, 3712, Note_on_c, 0, 67, 80
2, 3763, Note_on_c, 0, 65, 80
2, 3770, Note_on_c, 0, 67, 0
2, 3773, Note_on_c, 0, 71, 0
2, 3804, Note_on_c, 0, 65, 0
2, 3818, Note_on_c, 0, 63, 80
2, 3832, Note_on_c, 0, 72, 80
2, 3896, Note_on_c, 0, 74, 80
2, 3903, Note_on_c, 0, 72, 0
2, 3919, Note_on_c, 0, 63, 0
2, 3952, Note_on_c, 0, 72, 80
2, 3954, Note_on_c, 0, 75, 80
2, 3966, Note_on_c, 0, 74, 0
2, 4006, Note_on_c, 0, 75, 0
2, 4013, Note_on_c, 0, 77, 80
2, 4017, Note_on_c, 0, 72, 0
2, 4046, Note_on_c, 0, 77, 0
2, 4069, Note_on_c, 0, 60, 80
2, 4074, Note_on_c, 0, 75, 80
2, 4134, Note_on_c, 0, 74, 80
2, 4135, Note_on_c, 0, 75, 0
2, 4171, Note_on_c, 0, 60, 0
2, 4190, Note_on_c, 0, 72, 80
2, 4192, Note_on_c, 0, 74, 0
2, 4196, Note_on_c, 0, 63, 80
2, 4248, Note_on_c, 0, 70, 80
2, 4250, Note_on_c, 0, 72, 0
2, 4255, Note_on_c, 0, 63, 0
2, 4288, Note_on_c, 0, 70, 0
2, 4310, Note_on_c, 0, 65, 80
2, 4316, Note_on_c, 0, 69, 80
2, 4370, Note_on_c, 0, 67, 80
2, 4372, Note_on_c, 0, 65, 0
2, 4421, Note_on_c, 0, 69, 0
2, 4430, Note_on_c, 0, 69, 80
2, 4432, Note_on_c, 0, 77, 80
2, 4433, Note_on_c, 0, 67, 0
2, 4489, Note_on_c, 0, 70, 80
2, 4490, Note_on_c, 0, 69, 0
2, 4518, Note_on_c, 0, 77, 0
2, 4547, Note_on_c, 0, 70, 0
2, 4549, Note_on_c, 0, 65, 80
2, 4551, Note_on_c, 0, 69, 80
2, 4610, Note_on_c, 0, 67, 80
2, 4617, Note_on_c, 0, 69, 0
2, 4648, Note_on_c, 0, 65, 0
2, 4655, Note_on_c, 0, 65, 80
2, 4667, Note_on_c, 0, 67, 0
2, 4671, Note_on_c, 0, 69, 80
2, 4717, Note_on_c, 0, 63, 80
2, 4721, Note_on_c, 0, 65, 0
2, 4724, Note_on_c, 0, 69, 0
2, 4783, Note_on_c, 0, 63, 0
2, 4786, Note_on_c, 0, 62, 80
2, 4798, Note_on_c, 0, 70, 80
2, 4837, Note_on_c, 0, 62, 0
2, 4860, Note_on_c, 0, 72, 80
2, 4861, Note_on_c, 0, 70, 0
2, 4912, Note_on_c, 0, 72, 0
2, 4912, Note_on_c, 0, 70, 80
2, 4917, Note_on_c, 0, 74, 80
2, 4971, Note_on_c, 0, 70, 0
2, 4972, Note_on_c, 0, 74, 0
2, 4972, Note_on_c, 0, 75, 80
2, 5031, Note_on_c, 0, 75, 0
2, 5032, Note_on_c, 0, 58, 80
2, 5033, Note_on_c, 0, 74, 80
2, 5090, Note_on_c, 0, 72, 80
2, 5093, Note_on_c, 0, 74, 0
2, 5111, Note_on_c, 0, 58, 0
2, 5149, Note_on_c, 0, 70, 80
2, 5153, Note_on_c, 0, 72, 0
2, 5153, Note_on_c, 0, 62, 80
2, 5205, Note_on_c, 0, 70, 0
2, 5207, Note_on_c, 0, 69, 80
2, 5220, Note_on_c, 0, 62, 0
2, 5258, Note_on_c, 0, 63, 80
2, 5262, Note_on_c, 0, 69, 0
2, 5270, Note_on_c, 0, 67, 80
2, 5324, Note_on_c, 0, 63, 0
2, 5327, Note_on_c, 0, 67, 0
2, 5335, Note_on_c, 0, 70, 80
2, 5384, Note_on_c, 0, 57, 80
2, 5394, Note_on_c, 0, 72, 80
2, 5396, Note_on_c, 0, 70, 0
2, 5453, Note_on_c, 0, 74, 80
2, 5463, Note_on_c, 0, 72, 0
2, 5497, Note_on_c, 0, 74, 0
2, 5509, Note_on_c, 0, 58, 80
2, 5511, Note_on_c, 0, 57, 0
2, 5518, Note_on_c, 0, 72, 80
2, 5577, Note_on_c, 0, 70, 80
2, 5583, Note_on_c, 0, 72, 0
2, 5587, Note_on_c, 0, 58, 0
2, 5630, Note_on_c, 0, 70, 0
2, 5633, Note_on_c, 0, 69, 80
2, 5635, Note_on_c, 0, 60, 80
2, 5685, Note_on_c, 0, 60, 0
2, 5695, Note_on_c, 0, 67, 80
2, 5698, Note_on_c, 0, 69, 0
2, 5753, Note_on_c, 0, 62, 80
2, 5756, Note_on_c, 0, 67, 0
2, 5764, Note_on_c, 0, 66, 80
2, 5816, Note_on_c, 0, 64, 80
2, 5821, Note_on_c, 0, 66, 0
2, 5823, Note_on_c, 0, 62, 0
2, 5873, Note_on_c, 0, 64, 0
2, 5874, Note_on_c, 0, 66, 80
2, 5882, Note_on_c, 0, 74, 80
2, 5932, Note_on_c, 0, 66, 0
2, 5934, Note_on_c, 0, 67, 80
2, 5947, Note_on_c, 0, 74, 0
2, 5992, Note_on_c, 0, 66, 80
2, 5996, Note_on_c, 0, 67, 0
2, 5998, Note_on_c, 0, 62, 80
2, 6051, Note_on_c, 0, 64, 80
2, 6052, Note_on_c, 0, 66, 0
2, 6099, Note_on_c, 0, 62, 0
2, 6108, Note_on_c, 0, 64, 0
2, 6112, Note_on_c, 0, 62, 80
2, 6115, Note_on_c, 0, 66, 80
2, 6166, Note_on_c, 0, 60, 80
2, 6171, Note_on_c, 0, 66, 0
2, 6173, Note_on_c, 0, 62, 0
2, 6225, Note_on_c, 0, 60, 0
2, 6227, Note_on_c, 0, 58, 80
2, 6231, Note_on_c, 0, 67, 80
2, 6285, Note_on_c, 0, 58, 0
2, 6287, Note_on_c, 0, 62, 80
2, 6316, Note_on_c, 0, 67, 0
2, 6345, Note_on_c, 0, 67, 80
2, 6345, Note_on_c, 0, 75, 80
2, 6347, Note_on_c, 0, 62, 0
2, 6347, Note_on_c, 0, 67, 80
2, 6401, Note_on_c, 0, 69, 80
2, 6403, Note_on_c, 0, 67, 0
2, 6404, Note_on_c, 0, 69, 80
2, 6409, Note_on_c, 0, 67, 0
2, 6418, Note_on_c, 0, 75, 0
2, 6426, Note_on_c, 0, 69, 0
2, 6449, Note_on_c, 0, 69, 0
2, 6462, Note_on_c, 0, 67, 80
2, 6466, Note_on_c, 0, 69, 80
2, 6469, Note_on_c, 0, 67, 80
2, 6521, Note_on_c, 0, 66, 80
2, 6524, Note_on_c, 0, 66, 80
2, 6525, Note_on_c, 0, 67, 0
2, 6530, Note_on_c, 0, 67, 0
2, 6545, Note_on_c, 0, 69, 0
2, 6579, Note_on_c, 0, 66, 0
2, 6580, Note_on_c, 0, 64, 80
2, 6585, Note_on_c, 0, 64, 80
2, 6586, Note_on_c, 0, 66, 0
2, 6586, Note_on_c, 0, 74, 80
2, 6642, Note_on_c, 0, 66, 80
2, 6645, Note_on_c, 0, 64, 0
2, 6646, Note_on_c, 0, 66, 80
2, 6647, Note_on_c, 0, 64, 0
2, 6651, Note_on_c, 0, 74, 0
2, 6668, Note_on_c, 0, 66, 0
2, 6704, Note_on_c, 0, 55, 80
2, 6708, Note_on_c, 0, 70, 80
2, 6710, Note_on_c, 0, 66, 0
2, 6712, Note_on_c, 0, 67, 80
2, 6764, Note_on_c, 0, 54, 80
2, 6766, Note_on_c, 0, 55, 0
2, 6775, Note_on_c, 0, 67, 0
2, 6818, Note_on_c, 0, 54, 0
2, 6821, Note_on_c, 0, 55, 80
2, 6827, Note_on_c, 0, 62, 80
2, 6876, Note_on_c, 0, 50, 80
2, 6882, Note_on_c, 0, 62, 0
2, 6883, Note_on_c, 0, 67, 80
2, 6887, Note_on_c, 0, 55, 0
2, 6919, Note_on_c, 0, 50, 0
2, 6934, Note_on_c, 0, 67, 0
2, 6943, Note_on_c, 0, 70, 0
2, 6943, Note_on_c, 0, 62, 80
2, 6947, Note_on_c, 0, 69, 80
2, 6948, Note_on_c, 0, 66, 80
2, 7003, Note_on_c, 0, 57, 80
2, 7010, Note_on_c, 0, 62, 0
2, 7030, Note_on_c, 0, 69, 0
2, 7050, Note_on_c, 0, 66, 0
2, 7059, Note_on_c, 0, 58, 80
2, 7061, Note_on_c, 0, 57, 0
2, 7066, Note_on_c, 0, 74, 80
2, 7068, Note_on_c, 0, 67, 80
2, 7113, Note_on_c, 0, 55, 80
2, 7121, Note_on_c, 0, 58, 0
2, 7135, Note_on_c, 0, 55, 0
2, 7143, Note_on_c, 0, 74, 0
2, 7155, Note_on_c, 0, 67, 0
2, 7177, Note_on_c, 0, 54, 80
2, 7185, Note_on_c, 0, 72, 80
2, 7186, Note_on_c, 0, 69, 80
2, 7239, Note_on_c, 0, 52, 80
2, 7242, Note_on_c, 0, 54, 0
2, 7292, Note_on_c, 0, 72, 0
2, 7299, Note_on_c, 0, 54, 80
2, 7301, Note_on_c, 0, 74, 80
2, 7302, Note_on_c, 0, 69, 0
2, 7303, Note_on_c, 0, 52, 0
2, 7356, Note_on_c, 0, 50, 80
2, 7357, Note_on_c, 0, 54, 0
2, 7397, Note_on_c, 0, 74, 0
2, 7401, Note_on_c, 0, 50, 0
2, 7412, Note_on_c, 0, 62, 80
2, 7417, Note_on_c, 0, 66, 80
2, 7471, Note_on_c, 0, 57, 80
2, 7476, Note_on_c, 0, 62, 0
2, 7493, Note_on_c, 0, 66, 0
2, 7530, Note_on_c, 0, 58, 80
2, 7531, Note_on_c, 0, 57, 0
2, 7531, Note_on_c, 0, 67, 80
2, 7532, Note_on_c, 0, 70, 80
2, 7583, Note_on_c, 0, 55, 80
2, 7586, Note_on_c, 0, 58, 0
2, 7600, Note_on_c, 0, 70, 0
2, 7604, Note_on_c, 0, 67, 0
2, 7640, Note_on_c, 0, 55, 0
2, 7649, Note_on_c, 0, 72, 80
2, 7651, Note_on_c, 0, 63, 80
2, 7651, Note_on_c, 0, 66, 80
2, 7705, Note_on_c, 0, 57, 80
2, 7708, Note_on_c, 0, 63, 0
2, 7766, Note_on_c, 0, 74, 80
2, 7769, Note_on_c, 0, 72, 0
2, 7769, Note_on_c, 0, 66, 0
2, 7771, Note_on_c, 0, 58, 80
2, 7772, Note_on_c, 0, 57, 0
2, 7821, Note_on_c, 0, 55, 80
2, 7825, Note_on_c, 0, 58, 0
2, 7826, Note_on_c, 0, 75, 80
2, 7827, Note_on_c, 0, 74, 0
2, 7869, Note_on_c, 0, 55, 0
2, 7878, Note_on_c, 0, 54, 80
2, 7884, Note_on_c, 0, 75, 0
2, 7886, Note_on_c, 0, 74, 80
2, 7931, Note_on_c, 0, 54, 0
2, 7935, Note_on_c, 0, 62, 80
2, 7937, Note_on_c, 0, 74, 0
2, 7944, Note_on_c, 0, 70, 80
2, 7977, Note_on_c, 0, 62, 0
2, 7993, Note_on_c, 0, 57, 80
2, 8008, Note_on_c, 0, 70, 0
2, 8009, Note_on_c, 0, 78, 80
2, 8014, Note_on_c, 0, 72, 80
2, 8050, Note_on_c, 0, 57, 0
2, 8053, Note_on_c, 0, 60, 80
2, 8066, Note_on_c, 0, 78, 0
2, 8069, Note_on_c, 0, 69, 80
2, 8072, Note_on_c, 0, 72, 0
2, 8085, Note_on_c, 0, 60, 0
2, 8116, Note_on_c, 0, 58, 80
2, 8117, Note_on_c, 0, 62, 80
2, 8121, Note_on_c, 0, 69, 0
2, 8134, Note_on_c, 0, 79, 80
2, 8167, Note_on_c, 0, 62, 0
2, 8208, Note_on_c, 0, 79, 0
2, 8208, Note_on_c, 0, 81, 80
2, 8239, Note_on_c, 0, 58, 0
2, 8244, Note_on_c, 0, 67, 80
2, 8266, Note_on_c, 0, 82, 80
2, 8269, Note_on_c, 0, 81, 0
2, 8323, Note_on_c, 0, 82, 0
2, 8326, Note_on_c, 0, 84, 80
2, 8340, Note_on_c, 0, 67, 0
2, 8373, Note_on_c, 0, 55, 80
2, 8385, Note_on_c, 0, 82, 80
2, 8388, Note_on_c, 0, 84, 0
2, 8440, Note_on_c, 0, 55, 0
2, 8449, Note_on_c, 0, 81, 80
2, 8450, Note_on_c, 0, 82, 0
2, 8502, Note_on_c, 0, 58, 80
2, 8503, Note_on_c, 0, 62, 80
2, 8506, Note_on_c, 0, 79, 80
2, 8507, Note_on_c, 0, 81, 0
2, 8564, Note_on_c, 0, 77, 80
2, 8566, Note_on_c, 0, 58, 0
2, 8567, Note_on_c, 0, 62, 0
2, 8574, Note_on_c, 0, 79, 0
2, 8588, Note_on_c, 0, 77, 0
2, 8623, Note_on_c, 0, 67, 80
2, 8625, Note_on_c, 0, 60, 80
2, 8631, Note_on_c, 0, 75, 80
2, 8690, Note_on_c, 0, 62, 80
2, 8691, Note_on_c, 0, 60, 0
2, 8716, Note_on_c, 0, 75, 0
2, 8746, Note_on_c, 0, 62, 0
2, 8748, Note_on_c, 0, 84, 80
2, 8748, Note_on_c, 0, 63, 80
2, 8798, Note_on_c, 0, 84, 0
2, 8802, Note_on_c, 0, 63, 0
2, 8804, Note_on_c, 0, 65, 80
2, 8841, Note_on_c, 0, 67, 0
2, 8863, Note_on_c, 0, 65, 0
2, 8864, Note_on_c, 0, 72, 80
2, 8864, Note_on_c, 0, 63, 80
2, 8918, Note_on_c, 0, 62, 80
2, 8919, Note_on_c, 0, 63, 0
2, 8920, Note_on_c, 0, 72, 0
2, 8976, Note_on_c, 0, 60, 80
2, 8977, Note_on_c, 0, 62, 0
2, 8985, Note_on_c, 0, 76, 80
2, 8986, Note_on_c, 0, 67, 80
2, 9029, Note_on_c, 0, 67, 0
2, 9033, Note_on_c, 0, 58, 80
2, 9034, Note_on_c, 0, 76, 0
2, 9036, Note_on_c, 0, 60, 0
2, 9063, Note_on_c, 0, 58, 0
2, 9099, Note_on_c, 0, 57, 80
2, 9106, Note_on_c, 0, 72, 80
2, 9107, Note_on_c, 0, 77, 80
2, 9171, Note_on_c, 0, 79, 80
2, 9177, Note_on_c, 0, 77, 0
2, 9190, Note_on_c, 0, 57, 0
2, 9225, Note_on_c, 0, 81, 80
2, 9228, Note_on_c, 0, 79, 0
2, 9229, Note_on_c, 0, 72, 0
2, 9231, Note_on_c, 0, 65, 80
2, 9281, Note_on_c, 0, 81, 0
2, 9282, Note_on_c, 0, 82, 80
2, 9297, Note_on_c, 0, 65, 0
2, 9342, Note_on_c, 0, 53, 80
2, 9344, Note_on_c, 0, 82, 0
2, 9345, Note_on_c, 0, 81, 80
2, 9408, Note_on_c, 0, 81, 0
2, 9409, Note_on_c, 0, 79, 80
2, 9422, Note_on_c, 0, 53, 0
2, 9465, Note_on_c, 0, 60, 80
2, 9466, Note_on_c, 0, 57, 80
2, 9468, Note_on_c, 0, 77, 80
2, 9469, Note_on_c, 0, 79, 0
2, 9522, Note_on_c, 0, 57, 0
2, 9526, Note_on_c, 0, 77, 0
2, 9529, Note_on_c, 0, 75, 80
2, 9557, Note_on_c, 0, 60, 0
2, 9590, Note_on_c, 0, 58, 80
2, 9590, Note_on_c, 0, 65, 80
2, 9595, Note_on_c, 0, 75, 0
2, 9596, Note_on_c, 0, 74, 80
2, 9646, Note_on_c, 0, 58, 0
2, 9650, Note_on_c, 0, 60, 80
2, 9681, Note_on_c, 0, 74, 0
2, 9699, Note_on_c, 0, 65, 0
2, 9712, Note_on_c, 0, 62, 80
2, 9713, Note_on_c, 0, 60, 0
2, 9714, Note_on_c, 0, 82, 80
2, 9769, Note_on_c, 0, 63, 80
2, 9771, Note_on_c, 0, 62, 0
2, 9794, Note_on_c, 0, 82, 0
2, 9823, Note_on_c, 0, 63, 0
2, 9828, Note_on_c, 0, 62, 80
2, 9830, Note_on_c, 0, 70, 80
2, 9886, Note_on_c, 0, 60, 80
2, 9889, Note_on_c, 0, 62, 0
2, 9901, Note_on_c, 0, 70, 0
2, 9944, Note_on_c, 0, 58, 80
2, 9947, Note_on_c, 0, 60, 0
2, 9948, Note_on_c, 0, 65, 80
2, 9949, Note_on_c, 0, 74, 80
2, 9999, Note_on_c, 0, 65, 0
2, 10001, Note_on_c, 0, 74, 0
2, 10005, Note_on_c, 0, 56, 80
2, 10012, Note_on_c, 0, 58, 0
2, 10060, Note_on_c, 0, 56, 0
2, 10069, Note_on_c, 0, 55, 80
2, 10072, Note_on_c, 0, 75, 80
2, 10073, Note_on_c, 0, 70, 80
2, 10124, Note_on_c, 0, 55, 0
2, 10133, Note_on_c, 0, 58, 80
2, 10189, Note_on_c, 0, 58, 0
2, 10191, Note_on_c, 0, 60, 80
2, 10193, Note_on_c, 0, 75, 0
2, 10199, Note_on_c, 0, 79, 80
2, 10203, Note_on_c, 0, 70, 0
2, 10251, Note_on_c, 0, 79, 0
2, 10254, Note_on_c, 0, 62, 80
2, 10256, Note_on_c, 0, 60, 0
2, 10317, Note_on_c, 0, 62, 0
2, 10317, Note_on_c, 0, 60, 80
2, 10320, Note_on_c, 0, 72, 80
2, 10386, Note_on_c, 0, 58, 80
2, 10396, Note_on_c, 0, 72, 0
2, 10404, Note_on_c, 0, 60, 0
2, 10431, Note_on_c, 0, 57, 80
2, 10433, Note_on_c, 0, 58, 0
2, 10435, Note_on_c, 0, 76, 80
2, 10436, Note_on_c, 0, 70, 80
2, 10480, Note_on_c, 0, 76, 0
2, 10487, Note_on_c, 0, 70, 0
2, 10489, Note_on_c, 0, 55, 80
2, 10495, Note_on_c, 0, 57, 0
2, 10542, Note_on_c, 0, 55, 0
2, 10545, Note_on_c, 0, 57, 80
2, 10558, Note_on_c, 0, 72, 80
2, 10559, Note_on_c, 0, 77, 80
2, 10588, Note_on_c, 0, 57, 0
2, 10609, Note_on_c, 0, 60, 80
2, 10670, Note_on_c, 0, 62, 80
2, 10671, Note_on_c, 0, 60, 0
2, 10680, Note_on_c, 0, 77, 0
2, 10680, Note_on_c, 0, 81, 80
2, 10690, Note_on_c, 0, 72, 0
2, 10728, Note_on_c, 0, 63, 80
2, 10734, Note_on_c, 0, 62, 0
2, 10746, Note_on_c, 0, 81, 0
2, 10789, Note_on_c, 0, 62, 80
2, 10790, Note_on_c, 0, 63, 0
2, 10795, Note_on_c, 0, 74, 80
2, 10847, Note_on_c, 0, 60, 80
2, 10853, Note_on_c, 0, 62, 0
2, 10864, Note_on_c, 0, 74, 0
2, 10905, Note_on_c, 0, 58, 80
2, 10906, Note_on_c, 0, 60, 0
2, 10915, Note_on_c, 0, 78, 80
2, 10964, Note_on_c, 0, 57, 80
2, 10968, Note_on_c, 0, 58, 0
2, 10972, Note_on_c, 0, 78, 0
2, 10988, Note_on_c, 0, 57, 0
2, 11032, Note_on_c, 0, 58, 80
2, 11045, Note_on_c, 0, 79, 80
2, 11046, Note_on_c, 0, 74, 80
2, 11097, Note_on_c, 0, 57, 80
2, 11104, Note_on_c, 0, 58, 0
2, 11106, Note_on_c, 0, 72, 80
2, 11108, Note_on_c, 0, 74, 0
2, 11162, Note_on_c, 0, 55, 80
2, 11165, Note_on_c, 0, 57, 0
2, 11167, Note_on_c, 0, 74, 80
2, 11171, Note_on_c, 0, 72, 0
2, 11178, Note_on_c, 0, 79, 0
2, 11218, Note_on_c, 0, 57, 80
2, 11225, Note_on_c, 0, 67, 80
2, 11229, Note_on_c, 0, 74, 0
2, 11236, Note_on_c, 0, 55, 0
2, 11277, Note_on_c, 0, 58, 80
2, 11278, Note_on_c, 0, 57, 0
2, 11280, Note_on_c, 0, 67, 0
2, 11285, Note_on_c, 0, 79, 80
2, 11335, Note_on_c, 0, 58, 0
2, 11337, Note_on_c, 0, 62, 80
2, 11343, Note_on_c, 0, 74, 80
2, 11349, Note_on_c, 0, 79, 0
2, 11390, Note_on_c, 0, 60, 80
2, 11397, Note_on_c, 0, 74, 0
2, 11398, Note_on_c, 0, 62, 0
2, 11399, Note_on_c, 0, 75, 80
2, 11447, Note_on_c, 0, 63, 80
2, 11455, Note_on_c, 0, 75, 0
2, 11456, Note_on_c, 0, 60, 0
2, 11456, Note_on_c, 0, 72, 80
2, 11486, Note_on_c, 0, 63, 0
2, 11494, Note_on_c, 0, 72, 0
2, 11509, Note_on_c, 0, 62, 80
2, 11514, Note_on_c, 0, 74, 80
2, 11515, Note_on_c, 0, 70, 80
2, 11571, Note_on_c, 0, 70, 0
2, 11575, Note_on_c, 0, 69, 80
2, 11576, Note_on_c, 0, 74, 0
2, 11576, Note_on_c, 0, 72, 80
2, 11610, Note_on_c, 0, 72, 0
2, 11631, Note_on_c, 0, 70, 80
2, 11632, Note_on_c, 0, 74, 80
2, 11636, Note_on_c, 0, 69, 0
2, 11665, Note_on_c, 0, 74, 0
2, 11685, Note_on_c, 0, 67, 80
2, 11687, Note_on_c, 0, 70, 0
2, 11688, Note_on_c, 0, 75, 80
2, 11732, Note_on_c, 0, 67, 0
2, 11734, Note_on_c, 0, 75, 0
2, 11755, Note_on_c, 0, 74, 80
2, 11767, Note_on_c, 0, 69, 80
2, 11776, Note_on_c, 0, 62, 0
2, 11809, Note_on_c, 0, 70, 80
2, 11818, Note_on_c, 0, 74, 0
2, 11837, Note_on_c, 0, 70, 0
2, 11861, Note_on_c, 0, 69, 0
2, 11868, Note_on_c, 0, 62, 80
2, 11869, Note_on_c, 0, 62, 80
2, 11869, Note_on_c, 0, 72, 80
2, 11926, Note_on_c, 0, 72, 0
2, 11927, Note_on_c, 0, 69, 80
2, 11950, Note_on_c, 0, 69, 0
2, 11976, Note_on_c, 0, 62, 0
2, 11990, Note_on_c, 0, 62, 0
2, 11991, Note_on_c, 0, 67, 80
2, 12050, Note_on_c, 0, 66, 80
2, 12052, Note_on_c, 0, 67, 0
2, 12105, Note_on_c, 0, 55, 80
2, 12107, Note_on_c, 0, 66, 0
2, 12107, Note_on_c, 0, 67, 80
2, 12108, Note_on_c, 0, 70, 80
2, 12161, Note_on_c, 0, 62, 80
2, 12167, Note_on_c, 0, 67, 0
2, 12168, Note_on_c, 0, 70, 0
2, 12207, Note_on_c, 0, 55, 0
2, 12220, Note_on_c, 0, 72, 80
2, 12221, Note_on_c, 0, 54, 80
2, 12222, Note_on_c, 0, 74, 80
2, 12225, Note_on_c, 0, 62, 0
2, 12278, Note_on_c, 0, 72, 0
2, 12280, Note_on_c, 0, 69, 80
2, 12281, Note_on_c, 0, 74, 0
2, 12317, Note_on_c, 0, 54, 0
2, 12334, Note_on_c, 0, 55, 80
2, 12338, Note_on_c, 0, 75, 80
2, 12339, Note_on_c, 0, 69, 0
2, 12340, Note_on_c, 0, 70, 80
2, 12395, Note_on_c, 0, 67, 80
2, 12399, Note_on_c, 0, 70, 0
2, 12413, Note_on_c, 0, 55, 0
2, 12416, Note_on_c, 0, 75, 0
2, 12434, Note_on_c, 0, 67, 0
2, 12448, Note_on_c, 0, 74, 80
2, 12449, Note_on_c, 0, 66, 80
2, 12450, Note_on_c, 0, 60, 80
2, 12508, Note_on_c, 0, 66, 0
2, 12509, Note_on_c, 0, 69, 80
2, 12565, Note_on_c, 0, 60, 0
2, 12565, Note_on_c, 0, 62, 80
2, 12568, Note_on_c, 0, 69, 0
2, 12571, Note_on_c, 0, 70, 80
2, 12622, Note_on_c, 0, 62, 0
2, 12624, Note_on_c, 0, 63, 80
2, 12630, Note_on_c, 0, 67, 80
2, 12631, Note_on_c, 0, 70, 0
2, 12639, Note_on_c, 0, 74, 0
2, 12682, Note_on_c, 0, 62, 80
2, 12683, Note_on_c, 0, 63, 0
2, 12686, Note_on_c, 0, 67, 0
2, 12686, Note_on_c, 0, 66, 80
2, 12739, Note_on_c, 0, 58, 80
2, 12745, Note_on_c, 0, 62, 0
2, 12749, Note_on_c, 0, 74, 80
2, 12750, Note_on_c, 0, 66, 0
2, 12796, Note_on_c, 0, 74, 0
2, 12797, Note_on_c, 0, 58, 0
2, 12799, Note_on_c, 0, 60, 80
2, 12807, Note_on_c, 0, 69, 80
2, 12852, Note_on_c, 0, 69, 0
2, 12856, Note_on_c, 0, 57, 80
2, 12862, Note_on_c, 0, 60, 0
2, 12865, Note_on_c, 0, 72, 80
2, 12896, Note_on_c, 0, 57, 0
2, 12896, Note_on_c, 0, 72, 0
2, 12917, Note_on_c, 0, 58, 80
2, 12925, Note_on_c, 0, 74, 80
2, 12925, Note_on_c, 0, 70, 80
2, 12977, Note_on_c, 0, 57, 80
2, 12981, Note_on_c, 0, 58, 0
2, 12991, Note_on_c, 0, 74, 0
2, 12992, Note_on_c, 0, 72, 80
2, 13015, Note_on_c, 0, 70, 0
2, 13043, Note_on_c, 0, 55, 80
2, 13046, Note_on_c, 0, 72, 0
2, 13050, Note_on_c, 0, 57, 0
2, 13054, Note_on_c, 0, 74, 80
2, 13083, Note_on_c, 0, 74, 0
2, 13098, Note_on_c, 0, 57, 80
2, 13103, Note_on_c, 0, 55, 0
2, 13112, Note_on_c, 0, 67, 80
2, 13146, Note_on_c, 0, 67, 0
2, 13157, Note_on_c, 0, 57, 0
2, 13164, Note_on_c, 0, 59, 80
2, 13167, Note_on_c, 0, 79, 80
2, 13235, Note_on_c, 0, 74, 80
2, 13248, Note_on_c, 0, 79, 0
2, 13271, Note_on_c, 0, 59, 0
2, 13283, Note_on_c, 0, 60, 80
2, 13291, Note_on_c, 0, 74, 0
2, 13292, Note_on_c, 0, 75, 80
2, 13353, Note_on_c, 0, 75, 0
2, 13359, Note_on_c, 0, 72, 80
2, 13366, Note_on_c, 0, 60, 0
2, 13398, Note_on_c, 0, 72, 0
2, 13406, Note_on_c, 0, 62, 80
2, 13425, Note_on_c, 0, 71, 80
2, 13489, Note_on_c, 0, 69, 80
2, 13492, Note_on_c, 0, 71, 0
2, 13522, Note_on_c, 0, 62, 0
2, 13547, Note_on_c, 0, 67, 80
2, 13551, Note_on_c, 0, 71, 80
2, 13553, Note_on_c, 0, 69, 0
2, 13604, Note_on_c, 0, 71, 0
2, 13607, Note_on_c, 0, 67, 80
2, 13620, Note_on_c, 0, 67, 0
2, 13649, Note_on_c, 0, 67, 0
2, 13666, Note_on_c, 0, 59, 80
2, 13669, Note_on_c, 0, 79, 80
2, 13733, Note_on_c, 0, 74, 80
2, 13735, Note_on_c, 0, 79, 0
2, 13759, Note_on_c, 0, 59, 0
2, 13787, Note_on_c, 0, 75, 80
2, 13791, Note_on_c, 0, 60, 80
2, 13795, Note_on_c, 0, 74, 0
2, 13834, Note_on_c, 0, 60, 0
2, 13843, Note_on_c, 0, 75, 0
2, 13846, Note_on_c, 0, 72, 80
2, 13893, Note_on_c, 0, 72, 0
2, 13908, Note_on_c, 0, 65, 80
2, 13918, Note_on_c, 0, 80, 80
2, 13982, Note_on_c, 0, 74, 80
2, 13988, Note_on_c, 0, 80, 0
2, 14030, Note_on_c, 0, 67, 80
2, 14032, Note_on_c, 0, 65, 0
2, 14037, Note_on_c, 0, 75, 80
2, 14039, Note_on_c, 0, 74, 0
2, 14091, Note_on_c, 0, 68, 80
2, 14094, Note_on_c, 0, 67, 0
2, 14094, Note_on_c, 0, 75, 0
2, 14094, Note_on_c, 0, 72, 80
2, 14136, Note_on_c, 0, 72, 0
2, 14148, Note_on_c, 0, 67, 80
2, 14150, Note_on_c, 0, 68, 0
2, 14159, Note_on_c, 0, 71, 80
2, 14211, Note_on_c, 0, 63, 80
2, 14215, Note_on_c, 0, 79, 80
2, 14217, Note_on_c, 0, 67, 0
2, 14219, Note_on_c, 0, 71, 0
2, 14267, Note_on_c, 0, 63, 0
2, 14269, Note_on_c, 0, 65, 80
2, 14273, Note_on_c, 0, 74, 80
2, 14277, Note_on_c, 0, 79, 0
2, 14327, Note_on_c, 0, 62, 80
2, 14333, Note_on_c, 0, 65, 0
2, 14334, Note_on_c, 0, 77, 80
2, 14335, Note_on_c, 0, 74, 0
2, 14347, Note_on_c, 0, 62, 0
2, 14392, Note_on_c, 0, 60, 80
2, 14393, Note_on_c, 0, 75, 80
2, 14394, Note_on_c, 0, 77, 0
2, 14452, Note_on_c, 0, 71, 80
2, 14454, Note_on_c, 0, 60, 0
2, 14507, Note_on_c, 0, 71, 0
2, 14508, Note_on_c, 0, 72, 80
2, 14512, Note_on_c, 0, 55, 80
2, 14566, Note_on_c, 0, 74, 80
2, 14568, Note_on_c, 0, 72, 0
2, 14611, Note_on_c, 0, 55, 0
2, 14622, Note_on_c, 0, 48, 80
2, 14624, Note_on_c, 0, 72, 80
2, 14629, Note_on_c, 0, 74, 0
2, 14672, Note_on_c, 0, 48, 0
2, 14687, Note_on_c, 0, 70, 80
2, 14692, Note_on_c, 0, 72, 0
2, 14738, Note_on_c, 0, 51, 80
2, 14750, Note_on_c, 0, 69, 80
2, 14752, Note_on_c, 0, 70, 0
2, 14792, Note_on_c, 0, 51, 0
2, 14808, Note_on_c, 0, 67, 80
2, 14810, Note_on_c, 0, 69, 0
2, 14860, Note_on_c, 0, 53, 80
2, 14862, Note_on_c, 0, 67, 0
2, 14870, Note_on_c, 0, 69, 80
2, 14919, Note_on_c, 0, 75, 0
2, 14924, Note_on_c, 0, 51, 80
2, 14929, Note_on_c, 0, 53, 0
2, 14933, Note_on_c, 0, 69, 0
2, 14958, Note_on_c, 0, 51, 0
2, 14981, Note_on_c, 0, 53, 80
2, 14988, Note_on_c, 0, 69, 80
2, 14989, Note_on_c, 0, 72, 80
2, 15041, Note_on_c, 0, 69, 0
2, 15041, Note_on_c, 0, 72, 0
2, 15042, Note_on_c, 0, 55, 80
2, 15044, Note_on_c, 0, 53, 0
2, 15099, Note_on_c, 0, 53, 80
2, 15101, Note_on_c, 0, 55, 0
2, 15105, Note_on_c, 0, 65, 80
2, 15107, Note_on_c, 0, 69, 80
2, 15157, Note_on_c, 0, 51, 80
2, 15160, Note_on_c, 0, 53, 0
2, 15200, Note_on_c, 0, 69, 0
2, 15212, Note_on_c, 0, 51, 0
2, 15214, Note_on_c, 0, 50, 80
2, 15221, Note_on_c, 0, 65, 0
2, 15225, Note_on_c, 0, 69, 80
2, 15226, Note_on_c, 0, 72, 80
2, 15274, Note_on_c, 0, 72, 0
2, 15275, Note_on_c, 0, 48, 80
2, 15279, Note_on_c, 0, 50, 0
2, 15284, Note_on_c, 0, 69, 0
2, 15329, Note_on_c, 0, 48, 0
2, 15343, Note_on_c, 0, 70, 80
2, 15343, Note_on_c, 0, 46, 80
2, 15345, Note_on_c, 0, 74, 80
2, 15410, Note_on_c, 0, 46, 0
2, 15411, Note_on_c, 0, 69, 80
2, 15414, Note_on_c, 0, 70, 0
2, 15467, Note_on_c, 0, 70, 80
2, 15468, Note_on_c, 0, 69, 0
2, 15472, Note_on_c, 0, 58, 80
2, 15524, Note_on_c, 0, 72, 80
2, 15525, Note_on_c, 0, 70, 0
2, 15528, Note_on_c, 0, 58, 0
2, 15584, Note_on_c, 0, 70, 80
2, 15585, Note_on_c, 0, 46, 80
2, 15587, Note_on_c, 0, 72, 0
2, 15649, Note_on_c, 0, 69, 80
2, 15651, Note_on_c, 0, 46, 0
2, 15653, Note_on_c, 0, 70, 0
2, 15705, Note_on_c, 0, 67, 80
2, 15706, Note_on_c, 0, 50, 80
2, 15707, Note_on_c, 0, 69, 0
2, 15758, Note_on_c, 0, 67, 0
2, 15760, Note_on_c, 0, 66, 80
2, 15761, Note_on_c, 0, 50, 0
2, 15821, Note_on_c, 0, 51, 80
2, 15822, Note_on_c, 0, 66, 0
2, 15827, Note_on_c, 0, 67, 80
2, 15885, Note_on_c, 0, 50, 80
2, 15887, Note_on_c, 0, 51, 0
2, 15892, Note_on_c, 0, 67, 0
2, 15900, Note_on_c, 0, 74, 0
2, 15939, Note_on_c, 0, 67, 80
2, 15940, Note_on_c, 0, 50, 0
2, 15941, Note_on_c, 0, 70, 80
2, 15944, Note_on_c, 0, 51, 80
2, 15997, Note_on_c, 0, 53, 80
2, 15998, Note_on_c, 0, 51, 0
2, 16029, Note_on_c, 0, 67, 0
2, 16047, Note_on_c, 0, 70, 0
2, 16057, Note_on_c, 0, 67, 80
2, 16057, Note_on_c, 0, 51, 80
2, 16058, Note_on_c, 0, 53, 0
2, 16058, Note_on_c, 0, 63, 80
2, 16112, Note_on_c, 0, 50, 80
2, 16113, Note_on_c, 0, 63, 0
2, 16114, Note_on_c, 0, 51, 0
2, 16116, Note_on_c, 0, 67, 0
2, 16172, Note_on_c, 0, 48, 80
2, 16175, Note_on_c, 0, 50, 0
2, 16175, Note_on_c, 0, 70, 80
2, 16176, Note_on_c, 0, 67, 80
2, 16230, Note_on_c, 0, 46, 80
2, 16234, Note_on_c, 0, 70, 0
2, 16235, Note_on_c, 0, 48, 0
2, 16289, Note_on_c, 0, 46, 0
2, 16291, Note_on_c, 0, 45, 80
2, 16299, Note_on_c, 0, 72, 80
2, 16354, Note_on_c, 0, 43, 80
2, 16357, Note_on_c, 0, 45, 0
2, 16416, Note_on_c, 0, 45, 80
2, 16418, Note_on_c, 0, 66, 80
2, 16423, Note_on_c, 0, 43, 0
2, 16431, Note_on_c, 0, 67, 0
2, 16473, Note_on_c, 0, 46, 80
2, 16475, Note_on_c, 0, 45, 0
2, 16479, Note_on_c, 0, 64, 80
2, 16480, Note_on_c, 0, 66, 0
2, 16531, Note_on_c, 0, 46, 0
2, 16532, Note_on_c, 0, 45, 80
2, 16542, Note_on_c, 0, 66, 80
2, 16555, Note_on_c, 0, 64, 0
2, 16595, Note_on_c, 0, 43, 80
2, 16599, Note_on_c, 0, 45, 0
2, 16654, Note_on_c, 0, 42, 80
2, 16659, Note_on_c, 0, 43, 0
2, 16664, Note_on_c, 0, 66, 0
2, 16665, Note_on_c, 0, 67, 80
2, 16712, Note_on_c, 0, 40, 80
2, 16717, Note_on_c, 0, 42, 0
2, 16745, Note_on_c, 0, 67, 0
2, 16773, Note_on_c, 0, 40, 0
2, 16777, Note_on_c, 0, 42, 80
2, 16798, Note_on_c, 0, 69, 80
2, 16828, Note_on_c, 0, 42, 0
2, 16856, Note_on_c, 0, 67, 80
2, 16863, Note_on_c, 0, 69, 0
2, 16909, Note_on_c, 0, 50, 80
2, 16919, Note_on_c, 0, 66, 80
2, 16929, Note_on_c, 0, 67, 0
2, 16977, Note_on_c, 0, 50, 0
2, 16979, Note_on_c, 0, 64, 80
2, 16980, Note_on_c, 0, 66, 0
2, 17036, Note_on_c, 0, 62, 80
2, 17037, Note_on_c, 0, 54, 80
2, 17045, Note_on_c, 0, 64, 0
2, 17096, Note_on_c, 0, 69, 80
2, 17098, Note_on_c, 0, 72, 0
2, 17111, Note_on_c, 0, 54, 0
2, 17153, Note_on_c, 0, 50, 80
2, 17156, Note_on_c, 0, 70, 80
2, 17163, Note_on_c, 0, 69, 0
2, 17216, Note_on_c, 0, 70, 0
2, 17219, Note_on_c, 0, 72, 80
2, 17268, Note_on_c, 0, 50, 0
2, 17269, Note_on_c, 0, 55, 80
2, 17275, Note_on_c, 0, 70, 80
2, 17282, Note_on_c, 0, 72, 0
2, 17331, Note_on_c, 0, 60, 80
2, 17332, Note_on_c, 0, 69, 80
2, 17335, Note_on_c, 0, 60, 80
2, 17336, Note_on_c, 0, 70, 0
2, 17337, Note_on_c, 0, 62, 0
2, 17386, Note_on_c, 0, 60, 0
2, 17386, Note_on_c, 0, 58, 80
2, 17391, Note_on_c, 0, 67, 80
2, 17392, Note_on_c, 0, 58, 80
2, 17393, Note_on_c, 0, 69, 0
2, 17395, Note_on_c, 0, 60, 0
2, 17444, Note_on_c, 0, 57, 80
2, 17446, Note_on_c, 0, 58, 0
2, 17449, Note_on_c, 0, 67, 0
2, 17451, Note_on_c, 0, 58, 0
2, 17451, Note_on_c, 0, 57, 80
2, 17452, Note_on_c, 0, 66, 80
2, 17506, Note_on_c, 0, 58, 80
2, 17507, Note_on_c, 0, 58, 80
2, 17508, Note_on_c, 0, 66, 0
2, 17509, Note_on_c, 0, 67, 80
2, 17510, Note_on_c, 0, 57, 0
2, 17513, Note_on_c, 0, 57, 0
2, 17552, Note_on_c, 0, 58, 0
2, 17572, Note_on_c, 0, 67, 0
2, 17573, Note_on_c, 0, 62, 80
2, 17621, Note_on_c, 0, 59, 80
2, 17629, Note_on_c, 0, 59, 80
2, 17630, Note_on_c, 0, 63, 80
2, 17633, Note_on_c, 0, 62, 0
2, 17646, Note_on_c, 0, 58, 0
2, 17694, Note_on_c, 0, 65, 80
2, 17695, Note_on_c, 0, 63, 0
2, 17756, Note_on_c, 0, 63, 80
2, 17757, Note_on_c, 0, 65, 0
2, 17770, Note_on_c, 0, 59, 0
2, 17780, Note_on_c, 0, 59, 0
2, 17812, Note_on_c, 0, 62, 80
2, 17818, Note_on_c, 0, 62, 80
2, 17869, Note_on_c, 0, 60, 80
2, 17870, Note_on_c, 0, 60, 80
2, 17874, Note_on_c, 0, 62, 0
2, 17875, Note_on_c, 0, 62, 0
2, 17921, Note_on_c, 0, 59, 80
2, 17922, Note_on_c, 0, 60, 0
2, 17930, Note_on_c, 0, 59, 80
2, 17935, Note_on_c, 0, 60, 0
2, 17980, Note_on_c, 0, 59, 0
2, 17982, Note_on_c, 0, 60, 80
2, 17988, Note_on_c, 0, 59, 0
2, 17991, Note_on_c, 0, 60, 80
2, 18047, Note_on_c, 0, 63, 0
2, 18047, Note_on_c, 0, 67, 80
2, 18097, Note_on_c, 0, 55, 0
2, 18109, Note_on_c, 0, 65, 80
2, 18110, Note_on_c, 0, 67, 0
2, 18166, Note_on_c, 0, 63, 80
2, 18168, Note_on_c, 0, 65, 0
2, 18227, Note_on_c, 0, 63, 0
2, 18227, Note_on_c, 0, 55, 80
2, 18229, Note_on_c, 0, 62, 80
2, 18248, Note_on_c, 0, 60, 0
2, 18286, Note_on_c, 0, 55, 0
2, 18288, Note_on_c, 0, 54, 80
2, 18339, Note_on_c, 0, 54, 0
2, 18343, Note_on_c, 0, 64, 80
2, 18343, Note_on_c, 0, 55, 80
2, 18344, Note_on_c, 0, 58, 80
2, 18346, Note_on_c, 0, 58, 80
2, 18352, Note_on_c, 0, 60, 0
2, 18352, Note_on_c, 0, 62, 0
2, 18395, Note_on_c, 0, 55, 0
2, 18395, Note_on_c, 0, 50, 80
2, 18396, Note_on_c, 0, 58, 0
2, 18397, Note_on_c, 0, 57, 80
2, 18399, Note_on_c, 0, 57, 80
2, 18401, Note_on_c, 0, 58, 0
2, 18403, Note_on_c, 0, 66, 80
2, 18411, Note_on_c, 0, 64, 0
2, 18450, Note_on_c, 0, 50, 0
2, 18458, Note_on_c, 0, 55, 80
2, 18459, Note_on_c, 0, 57, 0
2, 18462, Note_on_c, 0, 62, 80
2, 18465, Note_on_c, 0, 67, 80
2, 18470, Note_on_c, 0, 66, 0
2, 18477, Note_on_c, 0, 57, 0
2, 18513, Note_on_c, 0, 62, 0
2, 18519, Note_on_c, 0, 57, 80
2, 18569, Note_on_c, 0, 55, 0
2, 18572, Note_on_c, 0, 58, 80
2, 18577, Note_on_c, 0, 57, 0
2, 18631, Note_on_c, 0, 58, 0
2, 18632, Note_on_c, 0, 55, 80
2, 18694, Note_on_c, 0, 55, 0
2, 18705, Note_on_c, 0, 63, 80
2, 18768, Note_on_c, 0, 63, 0
2, 18770, Note_on_c, 0, 60, 80
2, 18772, Note_on_c, 0, 69, 80
2, 18777, Note_on_c, 0, 67, 0
2, 18816, Note_on_c, 0, 60, 0
2, 18825, Note_on_c, 0, 62, 80
2, 18835, Note_on_c, 0, 70, 80
2, 18837, Note_on_c, 0, 69, 0
2, 18881, Note_on_c, 0, 62, 0
2, 18892, Note_on_c, 0, 70, 0
2, 18892, Note_on_c, 0, 69, 80
2, 18895, Note_on_c, 0, 63, 80
2, 18946, Note_on_c, 0, 63, 0
2, 18948, Note_on_c, 0, 62, 80
2, 18951, Note_on_c, 0, 70, 80
2, 18955, Note_on_c, 0, 69, 0
2, 19008, Note_on_c, 0, 60, 80
2, 19011, Note_on_c, 0, 72, 80
2, 19015, Note_on_c, 0, 62, 0
2, 19017, Note_on_c, 0, 70, 0
2, 19067, Note_on_c, 0, 72, 0
2, 19069, Note_on_c, 0, 58, 80
2, 19070, Note_on_c, 0, 60, 0
2, 19071, Note_on_c, 0, 74, 80
2, 19122, Note_on_c, 0, 70, 80
2, 19123, Note_on_c, 0, 74, 0
2, 19124, Note_on_c, 0, 58, 0
2, 19125, Note_on_c, 0, 57, 80
2, 19176, Note_on_c, 0, 70, 0
2, 19180, Note_on_c, 0, 55, 80
2, 19183, Note_on_c, 0, 57, 0
2, 19184, Note_on_c, 0, 67, 80
2, 19186, Note_on_c, 0, 75, 80
2, 19237, Note_on_c, 0, 67, 0
2, 19238, Note_on_c, 0, 60, 80
2, 19247, Note_on_c, 0, 75, 0
2, 19247, Note_on_c, 0, 79, 80
2, 19296, Note_on_c, 0, 60, 0
2, 19302, Note_on_c, 0, 62, 80
2, 19307, Note_on_c, 0, 77, 80
2, 19313, Note_on_c, 0, 79, 0
2, 19333, Note_on_c, 0, 55, 0
2, 19355, Note_on_c, 0, 58, 80
2, 19357, Note_on_c, 0, 62, 0
2, 19363, Note_on_c, 0, 75, 80
2, 19368, Note_on_c, 0, 77, 0
2, 19389, Note_on_c, 0, 58, 0
2, 19413, Note_on_c, 0, 53, 80
2, 19417, Note_on_c, 0, 57, 80
2, 19426, Note_on_c, 0, 75, 0
2, 19426, Note_on_c, 0, 74, 80
2, 19473, Note_on_c, 0, 65, 80
2, 19477, Note_on_c, 0, 57, 0
2, 19488, Note_on_c, 0, 72, 80
2, 19490, Note_on_c, 0, 74, 0
2, 19500, Note_on_c, 0, 65, 0
2, 19540, Note_on_c, 0, 60, 80
2, 19546, Note_on_c, 0, 70, 80
2, 19551, Note_on_c, 0, 72, 0
2, 19595, Note_on_c, 0, 63, 80
2, 19599, Note_on_c, 0, 60, 0
2, 19599, Note_on_c, 0, 69, 80
2, 19603, Note_on_c, 0, 70, 0
2, 19620, Note_on_c, 0, 63, 0
2, 19621, Note_on_c, 0, 69, 0
2, 19661, Note_on_c, 0, 62, 80
2, 19670, Note_on_c, 0, 70, 80
2, 19731, Note_on_c, 0, 69, 80
2, 19732, Note_on_c, 0, 70, 0
2, 19734, Note_on_c, 0, 53, 0
2, 19785, Note_on_c, 0, 58, 80
2, 19792, Note_on_c, 0, 70, 80
2, 19798, Note_on_c, 0, 69, 0
2, 19847, Note_on_c, 0, 70, 0
2, 19850, Note_on_c, 0, 65, 80
2, 19876, Note_on_c, 0, 65, 0
2, 19877, Note_on_c, 0, 58, 0
2, 19885, Note_on_c, 0, 62, 0
2, 19900, Note_on_c, 0, 57, 80
2, 19902, Note_on_c, 0, 63, 80
2, 19908, Note_on_c, 0, 77, 80
2, 19969, Note_on_c, 0, 72, 80
2, 19971, Note_on_c, 0, 77, 0
2, 20011, Note_on_c, 0, 63, 0
2, 20020, Note_on_c, 0, 62, 80
2, 20021, Note_on_c, 0, 57, 0
2, 20022, Note_on_c, 0, 58, 80
2, 20030, Note_on_c, 0, 74, 80
2, 20031, Note_on_c, 0, 72, 0
2, 20089, Note_on_c, 0, 70, 80
2, 20094, Note_on_c, 0, 74, 0
2, 20098, Note_on_c, 0, 62, 0
2, 20110, Note_on_c, 0, 70, 0
2, 20134, Note_on_c, 0, 58, 0
2, 20138, Note_on_c, 0, 63, 80
2, 20139, Note_on_c, 0, 60, 80
2, 20159, Note_on_c, 0, 69, 80
2, 20218, Note_on_c, 0, 67, 80
2, 20220, Note_on_c, 0, 69, 0
2, 20230, Note_on_c, 0, 60, 0
2, 20260, Note_on_c, 0, 65, 80
2, 20276, Note_on_c, 0, 69, 80
2, 20281, Note_on_c, 0, 67, 0
2, 20327, Note_on_c, 0, 69, 0
2, 20330, Note_on_c, 0, 65, 80
2, 20348, Note_on_c, 0, 65, 0
2, 20355, Note_on_c, 0, 65, 0
2, 20382, Note_on_c, 0, 57, 80
2, 20395, Note_on_c, 0, 77, 80
2, 20457, Note_on_c, 0, 72, 80
2, 20463, Note_on_c, 0, 77, 0
2, 20510, Note_on_c, 0, 63, 0
2, 20510, Note_on_c, 0, 57, 0
2, 20511, Note_on_c, 0, 72, 0
2, 20512, Note_on_c, 0, 62, 80
2, 20513, Note_on_c, 0, 58, 80
2, 20515, Note_on_c, 0, 74, 80
2, 20569, Note_on_c, 0, 74, 0
2, 20572, Note_on_c, 0, 70, 80
2, 20619, Note_on_c, 0, 70, 0
2, 20628, Note_on_c, 0, 69, 80
2, 20629, Note_on_c, 0, 62, 0
2, 20629, Note_on_c, 0, 79, 80
2, 20630, Note_on_c, 0, 58, 0
2, 20631, Note_on_c, 0, 63, 80
2, 20664, Note_on_c, 0, 79, 0
2, 20686, Note_on_c, 0, 72, 80
2, 20713, Note_on_c, 0, 72, 0
2, 20745, Note_on_c, 0, 70, 80
2, 20746, Note_on_c, 0, 74, 80
2, 20747, Note_on_c, 0, 65, 80
2, 20750, Note_on_c, 0, 69, 0
2, 20750, Note_on_c, 0, 63, 0
2, 20803, Note_on_c, 0, 70, 0
2, 20803, Note_on_c, 0, 67, 80
2, 20803, Note_on_c, 0, 70, 80
2, 20804, Note_on_c, 0, 74, 0
2, 20809, Note_on_c, 0, 65, 0
2, 20851, Note_on_c, 0, 70, 0
2, 20859, Note_on_c, 0, 65, 80
2, 20862, Note_on_c, 0, 69, 80
2, 20870, Note_on_c, 0, 67, 0
2, 20918, Note_on_c, 0, 62, 80
2, 20920, Note_on_c, 0, 65, 0
2, 20921, Note_on_c, 0, 77, 80
2, 20940, Note_on_c, 0, 69, 0
2, 20950, Note_on_c, 0, 77, 0
2, 20978, Note_on_c, 0, 63, 80
2, 20981, Note_on_c, 0, 69, 80
2, 20981, Note_on_c, 0, 72, 80
2, 20984, Note_on_c, 0, 62, 0
2, 21024, Note_on_c, 0, 69, 0
2, 21033, Note_on_c, 0, 63, 0
2, 21034, Note_on_c, 0, 60, 80
2, 21039, Note_on_c, 0, 72, 0
2, 21041, Note_on_c, 0, 75, 80
2, 21079, Note_on_c, 0, 75, 0
2, 21080, Note_on_c, 0, 60, 0
2, 21097, Note_on_c, 0, 58, 80
2, 21101, Note_on_c, 0, 70, 80
2, 21104, Note_on_c, 0, 74, 80
2, 21153, Note_on_c, 0, 74, 0
2, 21156, Note_on_c, 0, 58, 0
2, 21162, Note_on_c, 0, 70, 0
2, 21163, Note_on_c, 0, 72, 80
2, 21215, Note_on_c, 0, 72, 0
2, 21216, Note_on_c, 0, 65, 80
2, 21216, Note_on_c, 0, 62, 80
2, 21216, Note_on_c, 0, 70, 80
2, 21271, Note_on_c, 0, 70, 0
2, 21271, Note_on_c, 0, 77, 80
2, 21306, Note_on_c, 0, 77, 0
2, 21311, Note_on_c, 0, 65, 0
2, 21331, Note_on_c, 0, 60, 80
2, 21332, Note_on_c, 0, 63, 80
2, 21336, Note_on_c, 0, 62, 0
2, 21337, Note_on_c, 0, 65, 80
2, 21373, Note_on_c, 0, 63, 0
2, 21380, Note_on_c, 0, 60, 0
2, 21409, Note_on_c, 0, 69, 80
2, 21411, Note_on_c, 0, 65, 0
2, 21448, Note_on_c, 0, 58, 80
2, 21449, Note_on_c, 0, 62, 80
2, 21463, Note_on_c, 0, 67, 80
2, 21464, Note_on_c, 0, 69, 0
2, 21511, Note_on_c, 0, 58, 0
2, 21513, Note_on_c, 0, 62, 0
2, 21520, Note_on_c, 0, 70, 80
2, 21525, Note_on_c, 0, 67, 0
2, 21554, Note_on_c, 0, 70, 0
2, 21576, Note_on_c, 0, 60, 80
2, 21577, Note_on_c, 0, 57, 80
2, 21589, Note_on_c, 0, 72, 80
2, 21642, Note_on_c, 0, 60, 0
2, 21644, Note_on_c, 0, 57, 0
2, 21654, Note_on_c, 0, 72, 0
2, 21656, Note_on_c, 0, 74, 80
2, 21704, Note_on_c, 0, 53, 80
2, 21705, Note_on_c, 0, 57, 80
2, 21715, Note_on_c, 0, 72, 80
2, 21717, Note_on_c, 0, 74, 0
2, 21768, Note_on_c, 0, 77, 80
2, 21772, Note_on_c, 0, 72, 0
2, 21793, Note_on_c, 0, 77, 0
2, 21820, Note_on_c, 0, 57, 0
2, 21823, Note_on_c, 0, 62, 80
2, 21826, Note_on_c, 0, 53, 0
2, 21827, Note_on_c, 0, 65, 80
2, 21889, Note_on_c, 0, 70, 80
2, 21894, Note_on_c, 0, 65, 0
2, 21929, Note_on_c, 0, 62, 0
2, 21938, Note_on_c, 0, 60, 80
2, 21939, Note_on_c, 0, 53, 80
2, 21943, Note_on_c, 0, 69, 80
2, 21950, Note_on_c, 0, 70, 0
2, 21971, Note_on_c, 0, 53, 0
2, 21979, Note_on_c, 0, 60, 0
2, 22000, Note_on_c, 0, 69, 0
2, 22004, Note_on_c, 0, 72, 80
2, 22057, Note_on_c, 0, 55, 80
2, 22058, Note_on_c, 0, 58, 80
2, 22066, Note_on_c, 0, 64, 80
2, 22070, Note_on_c, 0, 72, 0
2, 22128, Note_on_c, 0, 70, 80
2, 22134, Note_on_c, 0, 64, 0
2, 22184, Note_on_c, 0, 69, 80
2, 22186, Note_on_c, 0, 70, 0
2, 22198, Note_on_c, 0, 58, 0
2, 22217, Note_on_c, 0, 55, 0
2, 22236, Note_on_c, 0, 57, 80
2, 22241, Note_on_c, 0, 72, 80
2, 22243, Note_on_c, 0, 69, 0
2, 22281, Note_on_c, 0, 72, 0
2, 22297, Note_on_c, 0, 58, 80
2, 22299, Note_on_c, 0, 57, 0
2, 22304, Note_on_c, 0, 74, 80
2, 22349, Note_on_c, 0, 74, 0
2, 22354, Note_on_c, 0, 58, 0
2, 22356, Note_on_c, 0, 60, 80
2, 22358, Note_on_c, 0, 65, 80
2, 22418, Note_on_c, 0, 60, 0
2, 22418, Note_on_c, 0, 62, 80
2, 22424, Note_on_c, 0, 70, 80
2, 22425, Note_on_c, 0, 65, 0
2, 22466, Note_on_c, 0, 62, 0
2, 22473, Note_on_c, 0, 64, 80
2, 22477, Note_on_c, 0, 67, 80
2, 22480, Note_on_c, 0, 70, 0
2, 22521, Note_on_c, 0, 64, 0
2, 22533, Note_on_c, 0, 67, 0
2, 22536, Note_on_c, 0, 65, 80
2, 22539, Note_on_c, 0, 53, 80
2, 22541, Note_on_c, 0, 69, 80
2, 22586, Note_on_c, 0, 69, 0
2, 22590, Note_on_c, 0, 55, 80
2, 22591, Note_on_c, 0, 53, 0
2, 22592, Note_on_c, 0, 65, 0
2, 22651, Note_on_c, 0, 53, 80
2, 22653, Note_on_c, 0, 55, 0
2, 22659, Note_on_c, 0, 77, 80
2, 22660, Note_on_c, 0, 74, 80
2, 22708, Note_on_c, 0, 58, 80
2, 22710, Note_on_c, 0, 53, 0
2, 22755, Note_on_c, 0, 74, 0
2, 22761, Note_on_c, 0, 58, 0
2, 22764, Note_on_c, 0, 77, 0
2, 22775, Note_on_c, 0, 46, 80
2, 22779, Note_on_c, 0, 75, 80
2, 22780, Note_on_c, 0, 79, 80
2, 22823, Note_on_c, 0, 75, 0
2, 22827, Note_on_c, 0, 79, 0
2, 22834, Note_on_c, 0, 51, 80
2, 22836, Note_on_c, 0, 46, 0
2, 22887, Note_on_c, 0, 50, 80
2, 22889, Note_on_c, 0, 51, 0
2, 22897, Note_on_c, 0, 70, 80
2, 22899, Note_on_c, 0, 77, 80
2, 22950, Note_on_c, 0, 50, 0
2, 22952, Note_on_c, 0, 53, 80
2, 22964, Note_on_c, 0, 77, 0
2, 22979, Note_on_c, 0, 53, 0
2, 23015, Note_on_c, 0, 55, 80
2, 23019, Note_on_c, 0, 75, 80
2, 23028, Note_on_c, 0, 70, 0
2, 23083, Note_on_c, 0, 57, 80
2, 23085, Note_on_c, 0, 55, 0
2, 23088, Note_on_c, 0, 75, 0
2, 23140, Note_on_c, 0, 55, 80
2, 23143, Note_on_c, 0, 57, 0
2, 23147, Note_on_c, 0, 70, 80
2, 23190, Note_on_c, 0, 55, 0
2, 23203, Note_on_c, 0, 58, 80
2, 23228, Note_on_c, 0, 58, 0
2, 23261, Note_on_c, 0, 46, 80
2, 23269, Note_on_c, 0, 79, 80
2, 23307, Note_on_c, 0, 46, 0
2, 23322, Note_on_c, 0, 51, 80
2, 23330, Note_on_c, 0, 70, 0
2, 23345, Note_on_c, 0, 79, 0
2, 23376, Note_on_c, 0, 51, 0
2, 23379, Note_on_c, 0, 50, 80
2, 23387, Note_on_c, 0, 70, 80
2, 23388, Note_on_c, 0, 77, 80
2, 23437, Note_on_c, 0, 50, 0
2, 23440, Note_on_c, 0, 53, 80
2, 23487, Note_on_c, 0, 53, 0
2, 23498, Note_on_c, 0, 45, 80
2, 23503, Note_on_c, 0, 77, 0
2, 23513, Note_on_c, 0, 70, 0
2, 23513, Note_on_c, 0, 75, 80
2, 23516, Note_on_c, 0, 72, 80
2, 23563, Note_on_c, 0, 51, 80
2, 23571, Note_on_c, 0, 45, 0
2, 23620, Note_on_c, 0, 51, 0
2, 23624, Note_on_c, 0, 50, 80
2, 23626, Note_on_c, 0, 70, 80
2, 23631, Note_on_c, 0, 72, 0
2, 23683, Note_on_c, 0, 50, 0
2, 23683, Note_on_c, 0, 69, 80
2, 23684, Note_on_c, 0, 70, 0
2, 23684, Note_on_c, 0, 53, 80
2, 23733, Note_on_c, 0, 53, 0
2, 23739, Note_on_c, 0, 70, 80
2, 23741, Note_on_c, 0, 57, 80
2, 23745, Note_on_c, 0, 69, 0
2, 23750, Note_on_c, 0, 75, 0
2, 23795, Note_on_c, 0, 46, 80
2, 23796, Note_on_c, 0, 57, 0
2, 23801, Note_on_c, 0, 75, 80
2, 23829, Note_on_c, 0, 75, 0
2, 23850, Note_on_c, 0, 70, 0
2, 23853, Note_on_c, 0, 51, 80
2, 23854, Note_on_c, 0, 46, 0
2, 23857, Note_on_c, 0, 69, 80
2, 23860, Note_on_c, 0, 72, 80
2, 23903, Note_on_c, 0, 51, 0
2, 23906, Note_on_c, 0, 48, 80
2, 23918, Note_on_c, 0, 75, 80
2, 23922, Note_on_c, 0, 72, 0
2, 23939, Note_on_c, 0, 75, 0
2, 23966, Note_on_c, 0, 48, 0
2, 23971, Note_on_c, 0, 50, 80
2, 23978, Note_on_c, 0, 70, 80
2, 23978, Note_on_c, 0, 77, 80
2, 23987, Note_on_c, 0, 69, 0
2, 24043, Note_on_c, 0, 75, 80
2, 24047, Note_on_c, 0, 50, 0
2, 24048, Note_on_c, 0, 77, 0
2, 24096, Note_on_c, 0, 46, 80
2, 24097, Note_on_c, 0, 75, 0
2, 24104, Note_on_c, 0, 74, 80
2, 24159, Note_on_c, 0, 72, 80
2, 24162, Note_on_c, 0, 74, 0
2, 24192, Note_on_c, 0, 46, 0
2, 24215, Note_on_c, 0, 58, 80
2, 24218, Note_on_c, 0, 74, 80
2, 24221, Note_on_c, 0, 72, 0
2, 24228, Note_on_c, 0, 70, 0
2, 24269, Note_on_c, 0, 58, 0
2, 24282, Note_on_c, 0, 76, 80
2, 24283, Note_on_c, 0, 74, 0
2, 24331, Note_on_c, 0, 76, 0
2, 24336, Note_on_c, 0, 55, 80
2, 24336, Note_on_c, 0, 77, 80
2, 24337, Note_on_c, 0, 64, 80
2, 24377, Note_on_c, 0, 77, 0
2, 24382, Note_on_c, 0, 64, 0
2, 24389, Note_on_c, 0, 79, 80
2, 24397, Note_on_c, 0, 55, 0
2, 24423, Note_on_c, 0, 79, 0
2, 24452, Note_on_c, 0, 65, 80
2, 24453, Note_on_c, 0, 53, 80
2, 24454, Note_on_c, 0, 81, 80
2, 24481, Note_on_c, 0, 65, 0
2, 24515, Note_on_c, 0, 58, 80
2, 24532, Note_on_c, 0, 81, 0
2, 24569, Note_on_c, 0, 58, 0
2, 24575, Note_on_c, 0, 57, 80
2, 24583, Note_on_c, 0, 72, 80
2, 24628, Note_on_c, 0, 55, 80
2, 24630, Note_on_c, 0, 57, 0
2, 24631, Note_on_c, 0, 53, 0
2, 24639, Note_on_c, 0, 72, 0
2, 24691, Note_on_c, 0, 57, 80
2, 24692, Note_on_c, 0, 55, 0
2, 24701, Note_on_c, 0, 84, 80
2, 24750, Note_on_c, 0, 58, 80
2, 24755, Note_on_c, 0, 57, 0
2, 24810, Note_on_c, 0, 58, 0
2, 24813, Note_on_c, 0, 60, 80
2, 24814, Note_on_c, 0, 53, 80
2, 24815, Note_on_c, 0, 84, 0
2, 24825, Note_on_c, 0, 81, 80
2, 24857, Note_on_c, 0, 53, 0
2, 24873, Note_on_c, 0, 60, 0
2, 24874, Note_on_c, 0, 62, 80
2, 24878, Note_on_c, 0, 81, 0
2, 24911, Note_on_c, 0, 62, 0
2, 24938, Note_on_c, 0, 60, 80
2, 24939, Note_on_c, 0, 63, 80
2, 24948, Note_on_c, 0, 79, 80
2, 25013, Note_on_c, 0, 77, 80
2, 25015, Note_on_c, 0, 79, 0
2, 25043, Note_on_c, 0, 63, 0
2, 25058, Note_on_c, 0, 60, 0
2, 25073, Note_on_c, 0, 55, 80
2, 25078, Note_on_c, 0, 75, 80
2, 25081, Note_on_c, 0, 77, 0
2, 25133, Note_on_c, 0, 75, 0
2, 25135, Note_on_c, 0, 74, 80
2, 25194, Note_on_c, 0, 67, 80
2, 25198, Note_on_c, 0, 75, 80
2, 25200, Note_on_c, 0, 55, 0
2, 25206, Note_on_c, 0, 74, 0
2, 25254, Note_on_c, 0, 75, 0
2, 25259, Note_on_c, 0, 77, 80
2, 25276, Note_on_c, 0, 67, 0
2, 25308, Note_on_c, 0, 77, 0
2, 25309, Note_on_c, 0, 79, 80
2, 25313, Note_on_c, 0, 60, 80
2, 25314, Note_on_c, 0, 63, 80
2, 25363, Note_on_c, 0, 79, 0
2, 25369, Note_on_c, 0, 81, 80
2, 25376, Note_on_c, 0, 60, 0
2, 25377, Note_on_c, 0, 63, 0
2, 25400, Note_on_c, 0, 81, 0
2, 25426, Note_on_c, 0, 55, 80
2, 25430, Note_on_c, 0, 62, 80
2, 25438, Note_on_c, 0, 82, 80
2, 25494, Note_on_c, 0, 60, 80
2, 25495, Note_on_c, 0, 62, 0
2, 25496, Note_on_c, 0, 82, 0
2, 25497, Note_on_c, 0, 81, 80
2, 25549, Note_on_c, 0, 60, 0
2, 25555, Note_on_c, 0, 81, 0
2, 25555, Note_on_c, 0, 79, 80
2, 25555, Note_on_c, 0, 58, 80
2, 25609, Note_on_c, 0, 79, 0
2, 25609, Note_on_c, 0, 57, 80
2, 25611, Note_on_c, 0, 58, 0
2, 25614, Note_on_c, 0, 78, 80
2, 25665, Note_on_c, 0, 58, 80
2, 25667, Note_on_c, 0, 57, 0
2, 25673, Note_on_c, 0, 55, 0
2, 25673, Note_on_c, 0, 78, 0
2, 25676, Note_on_c, 0, 79, 80
2, 25725, Note_on_c, 0, 60, 80
2, 25728, Note_on_c, 0, 58, 0
2, 25736, Note_on_c, 0, 79, 0
2, 25736, Note_on_c, 0, 82, 80
2, 25786, Note_on_c, 0, 55, 80
2, 25787, Note_on_c, 0, 62, 80
2, 25788, Note_on_c, 0, 60, 0
2, 25797, Note_on_c, 0, 82, 0
2, 25798, Note_on_c, 0, 81, 80
2, 25846, Note_on_c, 0, 62, 0
2, 25849, Note_on_c, 0, 63, 80
2, 25855, Note_on_c, 0, 81, 0
2, 25858, Note_on_c, 0, 79, 80
2, 25872, Note_on_c, 0, 55, 0
2, 25908, Note_on_c, 0, 63, 0
2, 25912, Note_on_c, 0, 65, 80
2, 25913, Note_on_c, 0, 79, 0
2, 25913, Note_on_c, 0, 62, 80
2, 25914, Note_on_c, 0, 77, 80
2, 25973, Note_on_c, 0, 77, 0
2, 25973, Note_on_c, 0, 75, 80
2, 25990, Note_on_c, 0, 65, 0
2, 26009, Note_on_c, 0, 62, 0
2, 26026, Note_on_c, 0, 65, 80
2, 26035, Note_on_c, 0, 75, 0
2, 26035, Note_on_c, 0, 74, 80
2, 26089, Note_on_c, 0, 74, 0
2, 26089, Note_on_c, 0, 72, 80
2, 26121, Note_on_c, 0, 72, 0
2, 26127, Note_on_c, 0, 65, 0
2, 26145, Note_on_c, 0, 55, 80
2, 26152, Note_on_c, 0, 71, 80
2, 26211, Note_on_c, 0, 68, 80
2, 26218, Note_on_c, 0, 71, 0
2, 26222, Note_on_c, 0, 55, 0
2, 26269, Note_on_c, 0, 59, 80
2, 26271, Note_on_c, 0, 67, 80
2, 26272, Note_on_c, 0, 68, 0
2, 26328, Note_on_c, 0, 65, 80
2, 26332, Note_on_c, 0, 67, 0
2, 26352, Note_on_c, 0, 59, 0
2, 26360, Note_on_c, 0, 65, 0
2, 26391, Note_on_c, 0, 60, 80
2, 26392, Note_on_c, 0, 63, 80
2, 26455, Note_on_c, 0, 74, 80
2, 26474, Note_on_c, 0, 60, 0
2, 26514, Note_on_c, 0, 72, 80
2, 26517, Note_on_c, 0, 63, 80
2, 26524, Note_on_c, 0, 74, 0
2, 26573, Note_on_c, 0, 63, 0
2, 26573, Note_on_c, 0, 70, 80
2, 26576, Note_on_c, 0, 63, 0
2, 26579, Note_on_c, 0, 72, 0
2, 26615, Note_on_c, 0, 70, 0
2, 26628, Note_on_c, 0, 53, 80
2, 26634, Note_on_c, 0, 69, 80
2, 26694, Note_on_c, 0, 67, 80
2, 26704, Note_on_c, 0, 69, 0
2, 26726, Note_on_c, 0, 53, 0
2, 26749, Note_on_c, 0, 67, 0
2, 26752, Note_on_c, 0, 65, 80
2, 26757, Note_on_c, 0, 57, 80
2, 26788, Note_on_c, 0, 65, 0
2, 26796, Note_on_c, 0, 57, 0
2, 26803, Note_on_c, 0, 63, 80
2, 26821, Note_on_c, 0, 63, 0
2, 26866, Note_on_c, 0, 62, 80
2, 26867, Note_on_c, 0, 58, 80
2, 26928, Note_on_c, 0, 58, 0
2, 26929, Note_on_c, 0, 60, 80
2, 26974, Note_on_c, 0, 62, 0
2, 26979, Note_on_c, 0, 74, 80
2, 26985, Note_on_c, 0, 58, 80
2, 26993, Note_on_c, 0, 60, 0
2, 27033, Note_on_c, 0, 58, 0
2, 27034, Note_on_c, 0, 74, 0
2, 27041, Note_on_c, 0, 65, 80
2, 27085, Note_on_c, 0, 65, 0
2, 27097, Note_on_c, 0, 53, 80
2, 27098, Note_on_c, 0, 75, 80
2, 27098, Note_on_c, 0, 69, 80
2, 27156, Note_on_c, 0, 58, 80
2, 27161, Note_on_c, 0, 74, 80
2, 27162, Note_on_c, 0, 53, 0
2, 27164, Note_on_c, 0, 75, 0
2, 27215, Note_on_c, 0, 57, 80
2, 27219, Note_on_c, 0, 74, 0
2, 27221, Note_on_c, 0, 58, 0
2, 27221, Note_on_c, 0, 75, 80
2, 27274, Note_on_c, 0, 57, 0
2, 27277, Note_on_c, 0, 75, 0
2, 27279, Note_on_c, 0, 60, 80
2, 27280, Note_on_c, 0, 72, 80
2, 27291, Note_on_c, 0, 69, 0
2, 27314, Note_on_c, 0, 72, 0
2, 27332, Note_on_c, 0, 60, 0
2, 27338, Note_on_c, 0, 58, 80
2, 27339, Note_on_c, 0, 65, 80
2, 27342, Note_on_c, 0, 77, 80
2, 27400, Note_on_c, 0, 67, 80
2, 27401, Note_on_c, 0, 65, 0
2, 27402, Note_on_c, 0, 75, 80
2, 27408, Note_on_c, 0, 77, 0
2, 27456, Note_on_c, 0, 67, 0
2, 27458, Note_on_c, 0, 65, 80
2, 27463, Note_on_c, 0, 75, 0
2, 27466, Note_on_c, 0, 77, 80
2, 27472, Note_on_c, 0, 58, 0
2, 27515, Note_on_c, 0, 65, 0
2, 27522, Note_on_c, 0, 70, 80
2, 27523, Note_on_c, 0, 74, 80
2, 27524, Note_on_c, 0, 77, 0
2, 27543, Note_on_c, 0, 74, 0
2, 27572, Note_on_c, 0, 58, 80
2, 27579, Note_on_c, 0, 70, 0
2, 27584, Note_on_c, 0, 79, 80
2, 27585, Note_on_c, 0, 74, 80
2, 27633, Note_on_c, 0, 63, 80
2, 27636, Note_on_c, 0, 58, 0
2, 27646, Note_on_c, 0, 72, 80
2, 27647, Note_on_c, 0, 74, 0
2, 27687, Note_on_c, 0, 63, 0
2, 27688, Note_on_c, 0, 62, 80
2, 27706, Note_on_c, 0, 74, 80
2, 27709, Note_on_c, 0, 72, 0
2, 27748, Note_on_c, 0, 62, 0
2, 27753, Note_on_c, 0, 65, 80
2, 27762, Note_on_c, 0, 74, 0
2, 27763, Note_on_c, 0, 70, 80
2, 27781, Note_on_c, 0, 70, 0
2, 27800, Note_on_c, 0, 65, 0
2, 27809, Note_on_c, 0, 57, 80
2, 27823, Note_on_c, 0, 69, 80
2, 27874, Note_on_c, 0, 63, 80
2, 27879, Note_on_c, 0, 57, 0
2, 27891, Note_on_c, 0, 78, 80
2, 27892, Note_on_c, 0, 79, 0
2, 27933, Note_on_c, 0, 63, 0
2, 27936, Note_on_c, 0, 62, 80
2, 27950, Note_on_c, 0, 78, 0
2, 27951, Note_on_c, 0, 79, 80
2, 27962, Note_on_c, 0, 69, 0
2, 28000, Note_on_c, 0, 62, 0
2, 28004, Note_on_c, 0, 67, 80
2, 28005, Note_on_c, 0, 70, 80
2, 28044, Note_on_c, 0, 70, 0
2, 28064, Note_on_c, 0, 67, 0
2, 28064, Note_on_c, 0, 69, 80
2, 28070, Note_on_c, 0, 72, 80
2, 28120, Note_on_c, 0, 62, 80
2, 28126, Note_on_c, 0, 69, 0
2, 28128, Note_on_c, 0, 81, 80
2, 28133, Note_on_c, 0, 79, 0
2, 28153, Note_on_c, 0, 81, 0
2, 28181, Note_on_c, 0, 62, 0
2, 28182, Note_on_c, 0, 63, 80
2, 28193, Note_on_c, 0, 78, 80
2, 28242, Note_on_c, 0, 60, 80
2, 28245, Note_on_c, 0, 63, 0
2, 28297, Note_on_c, 0, 78, 0
2, 28299, Note_on_c, 0, 60, 0
2, 28305, Note_on_c, 0, 79, 80
2, 28305, Note_on_c, 0, 62, 80
2, 28368, Note_on_c, 0, 62, 0
2, 28368, Note_on_c, 0, 63, 80
2, 28406, Note_on_c, 0, 72, 0
2, 28426, Note_on_c, 0, 79, 0
2, 28426, Note_on_c, 0, 74, 80
2, 28427, Note_on_c, 0, 62, 80
2, 28428, Note_on_c, 0, 63, 0
2, 28430, Note_on_c, 0, 70, 80
2, 28477, Note_on_c, 0, 62, 0
2, 28484, Note_on_c, 0, 69, 80
2, 28485, Note_on_c, 0, 67, 80
2, 28489, Note_on_c, 0, 70, 0
2, 28507, Note_on_c, 0, 74, 0
2, 28537, Note_on_c, 0, 67, 0
2, 28544, Note_on_c, 0, 55, 80
2, 28547, Note_on_c, 0, 67, 80
2, 28548, Note_on_c, 0, 69, 0
2, 28550, Note_on_c, 0, 75, 80
2, 28606, Note_on_c, 0, 60, 80
2, 28613, Note_on_c, 0, 55, 0
2, 28664, Note_on_c, 0, 58, 80
2, 28666, Note_on_c, 0, 60, 0
2, 28675, Note_on_c, 0, 75, 0
2, 28680, Note_on_c, 0, 74, 80
2, 28727, Note_on_c, 0, 58, 0
2, 28730, Note_on_c, 0, 62, 80
2, 28773, Note_on_c, 0, 62, 0
2, 28792, Note_on_c, 0, 63, 80
2, 28795, Note_on_c, 0, 74, 0
2, 28795, Note_on_c, 0, 72, 80
2, 28808, Note_on_c, 0, 67, 0
2, 28855, Note_on_c, 0, 65, 80
2, 28857, Note_on_c, 0, 63, 0
2, 28869, Note_on_c, 0, 72, 0
2, 28917, Note_on_c, 0, 65, 0
2, 28917, Note_on_c, 0, 67, 80
2, 28918, Note_on_c, 0, 63, 80
2, 28972, Note_on_c, 0, 67, 80
2, 28977, Note_on_c, 0, 63, 0
2, 29001, Note_on_c, 0, 67, 0
2, 29032, Note_on_c, 0, 55, 80
2, 29038, Note_on_c, 0, 67, 0
2, 29039, Note_on_c, 0, 75, 80
2, 29090, Note_on_c, 0, 60, 80
2, 29097, Note_on_c, 0, 55, 0
2, 29145, Note_on_c, 0, 75, 0
2, 29149, Note_on_c, 0, 58, 80
2, 29152, Note_on_c, 0, 60, 0
2, 29152, Note_on_c, 0, 74, 80
2, 29204, Note_on_c, 0, 74, 0
2, 29205, Note_on_c, 0, 58, 0
2, 29208, Note_on_c, 0, 62, 80
2, 29264, Note_on_c, 0, 62, 0
2, 29264, Note_on_c, 0, 54, 80
2, 29265, Note_on_c, 0, 69, 80
2, 29326, Note_on_c, 0, 60, 80
2, 29328, Note_on_c, 0, 54, 0
2, 29352, Note_on_c, 0, 69, 0
2, 29383, Note_on_c, 0, 60, 0
2, 29384, Note_on_c, 0, 58, 80
2, 29393, Note_on_c, 0, 67, 80
2, 29442, Note_on_c, 0, 62, 80
2, 29443, Note_on_c, 0, 58, 0
2, 29458, Note_on_c, 0, 66, 80
2, 29460, Note_on_c, 0, 67, 0
2, 29503, Note_on_c, 0, 62, 0
2, 29510, Note_on_c, 0, 63, 80
2, 29513, Note_on_c, 0, 66, 0
2, 29520, Note_on_c, 0, 67, 80
2, 29566, Note_on_c, 0, 63, 0
2, 29567, Note_on_c, 0, 55, 80
2, 29576, Note_on_c, 0, 70, 80
2, 29577, Note_on_c, 0, 67, 0
2, 29627, Note_on_c, 0, 60, 80
2, 29631, Note_on_c, 0, 55, 0
2, 29632, Note_on_c, 0, 69, 80
2, 29633, Note_on_c, 0, 70, 0
2, 29682, Note_on_c, 0, 57, 80
2, 29684, Note_on_c, 0, 60, 0
2, 29689, Note_on_c, 0, 69, 0
2, 29689, Note_on_c, 0, 72, 80
2, 29716, Note_on_c, 0, 72, 0
2, 29743, Note_on_c, 0, 57, 0
2, 29745, Note_on_c, 0, 58, 80
2, 29746, Note_on_c, 0, 55, 80
2, 29752, Note_on_c, 0, 74, 80
2, 29802, Note_on_c, 0, 57, 80
2, 29807, Note_on_c, 0, 58, 0
2, 29817, Note_on_c, 0, 55, 0
2, 29861, Note_on_c, 0, 57, 0
2, 29863, Note_on_c, 0, 67, 80
2, 29865, Note_on_c, 0, 58, 80
2, 29911, Note_on_c, 0, 58, 0
2, 29926, Note_on_c, 0, 62, 80
2, 29956, Note_on_c, 0, 62, 0
2, 29980, Note_on_c, 0, 70, 80
2, 29984, Note_on_c, 0, 67, 0
2, 29984, Note_on_c, 0, 50, 80
2, 30038, Note_on_c, 0, 55, 80
2, 30044, Note_on_c, 0, 50, 0
2, 30095, Note_on_c, 0, 54, 80
2, 30096, Note_on_c, 0, 55, 0
2, 30103, Note_on_c, 0, 69, 80
2, 30104, Note_on_c, 0, 70, 0
2, 30146, Note_on_c, 0, 54, 0
2, 30149, Note_on_c, 0, 57, 80
2, 30196, Note_on_c, 0, 57, 0
2, 30213, Note_on_c, 0, 58, 80
2, 30218, Note_on_c, 0, 67, 80
2, 30228, Note_on_c, 0, 69, 0
2, 30278, Note_on_c, 0, 58, 0
2, 30278, Note_on_c, 0, 60, 80
2, 30293, Note_on_c, 0, 67, 0
2, 30339, Note_on_c, 0, 60, 0
2, 30345, Note_on_c, 0, 58, 80
2, 30350, Note_on_c, 0, 62, 80
2, 30404, Note_on_c, 0, 58, 0
2, 30412, Note_on_c, 0, 62, 80
2, 30455, Note_on_c, 0, 50, 80
2, 30471, Note_on_c, 0, 62, 0
2, 30472, Note_on_c, 0, 70, 80
2, 30476, Note_on_c, 0, 62, 0
2, 30477, Note_on_c, 0, 74, 0
2, 30519, Note_on_c, 0, 55, 80
2, 30524, Note_on_c, 0, 50, 0
2, 30574, Note_on_c, 0, 53, 80
2, 30577, Note_on_c, 0, 55, 0
2, 30590, Note_on_c, 0, 70, 0
2, 30592, Note_on_c, 0, 69, 80
2, 30632, Note_on_c, 0, 53, 0
2, 30636, Note_on_c, 0, 57, 80
2, 30684, Note_on_c, 0, 57, 0
2, 30704, Note_on_c, 0, 64, 80
2, 30705, Note_on_c, 0, 69, 0
2, 30711, Note_on_c, 0, 49, 80
2, 30754, Note_on_c, 0, 49, 0
2, 30762, Note_on_c, 0, 55, 80
2, 30792, Note_on_c, 0, 64, 0
2, 30820, Note_on_c, 0, 55, 0
2, 30822, Note_on_c, 0, 54, 80
2, 30828, Note_on_c, 0, 62, 80
2, 30877, Note_on_c, 0, 54, 0
2, 30877, Note_on_c, 0, 57, 80
2, 30888, Note_on_c, 0, 61, 80
2, 30893, Note_on_c, 0, 62, 0
2, 30933, Note_on_c, 0, 57, 0
2, 30936, Note_on_c, 0, 58, 80
2, 30949, Note_on_c, 0, 61, 0
2, 30950, Note_on_c, 0, 62, 80
2, 30992, Note_on_c, 0, 50, 80
2, 30995, Note_on_c, 0, 58, 0
2, 31009, Note_on_c, 0, 65, 80
2, 31012, Note_on_c, 0, 62, 0
2, 31056, Note_on_c, 0, 55, 80
2, 31058, Note_on_c, 0, 50, 0
2, 31066, Note_on_c, 0, 64, 80
2, 31067, Note_on_c, 0, 65, 0
2, 31114, Note_on_c, 0, 52, 80
2, 31115, Note_on_c, 0, 55, 0
2, 31122, Note_on_c, 0, 64, 0
2, 31123, Note_on_c, 0, 67, 80
2, 31170, Note_on_c, 0, 52, 0
2, 31173, Note_on_c, 0, 53, 80
2, 31185, Note_on_c, 0, 69, 80
2, 31186, Note_on_c, 0, 67, 0
2, 31234, Note_on_c, 0, 52, 80
2, 31235, Note_on_c, 0, 53, 0
2, 31259, Note_on_c, 0, 69, 0
2, 31294, Note_on_c, 0, 50, 80
2, 31296, Note_on_c, 0, 52, 0
2, 31302, Note_on_c, 0, 57, 80
2, 31351, Note_on_c, 0, 49, 80
2, 31356, Note_on_c, 0, 50, 0
2, 31412, Note_on_c, 0, 50, 80
2, 31413, Note_on_c, 0, 49, 0
2, 31416, Note_on_c, 0, 65, 80
2, 31420, Note_on_c, 0, 57, 0
2, 31469, Note_on_c, 0, 52, 80
2, 31470, Note_on_c, 0, 50, 0
2, 31528, Note_on_c, 0, 53, 80
2, 31532, Note_on_c, 0, 52, 0
2, 31543, Note_on_c, 0, 62, 80
2, 31544, Note_on_c, 0, 65, 0
2, 31561, Note_on_c, 0, 53, 0
2, 31586, Note_on_c, 0, 55, 80
2, 31619, Note_on_c, 0, 55, 0
2, 31623, Note_on_c, 0, 62, 0
2, 31652, Note_on_c, 0, 57, 80
2, 31665, Note_on_c, 0, 61, 80
2, 31718, Note_on_c, 0, 57, 0
2, 31731, Note_on_c, 0, 59, 80
2, 31736, Note_on_c, 0, 61, 0
2, 31780, Note_on_c, 0, 45, 80
2, 31791, Note_on_c, 0, 57, 80
2, 31796, Note_on_c, 0, 59, 0
2, 31833, Note_on_c, 0, 45, 0
2, 31847, Note_on_c, 0, 59, 80
2, 31853, Note_on_c, 0, 57, 0
2, 31916, Note_on_c, 0, 61, 80
2, 31917, Note_on_c, 0, 59, 0
2, 31972, Note_on_c, 0, 61, 0
2, 31972, Note_on_c, 0, 57, 80
2, 31973, Note_on_c, 0, 62, 80
2, 32033, Note_on_c, 0, 55, 80
2, 32033, Note_on_c, 0, 64, 80
2, 32036, Note_on_c, 0, 57, 0
2, 32038, Note_on_c, 0, 62, 0
2, 32091, Note_on_c, 0, 53, 80
2, 32093, Note_on_c, 0, 55, 0
2, 32093, Note_on_c, 0, 65, 80
2, 32095, Note_on_c, 0, 64, 0
2, 32110, Note_on_c, 0, 53, 0
2, 32152, Note_on_c, 0, 52, 80
2, 32157, Note_on_c, 0, 65, 0
2, 32157, Note_on_c, 0, 67, 80
2, 32211, Note_on_c, 0, 52, 0
2, 32212, Note_on_c, 0, 50, 80
2, 32214, Note_on_c, 0, 65, 80
2, 32223, Note_on_c, 0, 67, 0
2, 32269, Note_on_c, 0, 50, 0
2, 32270, Note_on_c, 0, 49, 80
2, 32274, Note_on_c, 0, 64, 80
2, 32278, Note_on_c, 0, 65, 0
2, 32328, Note_on_c, 0, 49, 0
2, 32328, Note_on_c, 0, 50, 80
2, 32334, Note_on_c, 0, 65, 80
2, 32348, Note_on_c, 0, 64, 0
2, 32387, Note_on_c, 0, 52, 80
2, 32391, Note_on_c, 0, 50, 0
2, 32394, Note_on_c, 0, 65, 0
2, 32396, Note_on_c, 0, 67, 80
2, 32447, Note_on_c, 0, 52, 0
2, 32452, Note_on_c, 0, 53, 80
2, 32453, Note_on_c, 0, 69, 80
2, 32454, Note_on_c, 0, 67, 0
2, 32506, Note_on_c, 0, 53, 0
2, 32507, Note_on_c, 0, 55, 80
2, 32510, Note_on_c, 0, 69, 0
2, 32513, Note_on_c, 0, 70, 80
2, 32559, Note_on_c, 0, 70, 0
2, 32560, Note_on_c, 0, 57, 80
2, 32561, Note_on_c, 0, 55, 0
2, 32565, Note_on_c, 0, 61, 80
2, 32569, Note_on_c, 0, 61, 80
2, 32589, Note_on_c, 0, 61, 0
2, 32617, Note_on_c, 0, 57, 0
2, 32625, Note_on_c, 0, 61, 0
2, 32625, Note_on_c, 0, 58, 80
2, 32627, Note_on_c, 0, 62, 80
2, 32630, Note_on_c, 0, 74, 80
2, 32631, Note_on_c, 0, 62, 80
2, 32676, Note_on_c, 0, 58, 0
2, 32692, Note_on_c, 0, 76, 80
2, 32693, Note_on_c, 0, 74, 0
2, 32710, Note_on_c, 0, 62, 0
2, 32748, Note_on_c, 0, 76, 0
2, 32749, Note_on_c, 0, 53, 80
2, 32749, Note_on_c, 0, 74, 80
2, 32795, Note_on_c, 0, 53, 0
2, 32805, Note_on_c, 0, 55, 80
2, 32806, Note_on_c, 0, 81, 80
2, 32811, Note_on_c, 0, 74, 0
2, 32830, Note_on_c, 0, 81, 0
2, 32853, Note_on_c, 0, 55, 0
2, 32858, Note_on_c, 0, 62, 0
2, 32865, Note_on_c, 0, 57, 80
2, 32866, Note_on_c, 0, 61, 80
2, 32869, Note_on_c, 0, 69, 80
2, 32929, Note_on_c, 0, 73, 80
2, 32932, Note_on_c, 0, 69, 0
2, 32986, Note_on_c, 0, 62, 80
2, 32987, Note_on_c, 0, 61, 0
2, 32988, Note_on_c, 0, 73, 0
2, 32989, Note_on_c, 0, 71, 80
2, 33024, Note_on_c, 0, 62, 0
2, 33041, Note_on_c, 0, 59, 80
2, 33046, Note_on_c, 0, 74, 80
2, 33048, Note_on_c, 0, 71, 0
2, 33074, Note_on_c, 0, 59, 0
2, 33076, Note_on_c, 0, 74, 0
2, 33108, Note_on_c, 0, 76, 80
2, 33110, Note_on_c, 0, 61, 80
2, 33169, Note_on_c, 0, 77, 80
2, 33179, Note_on_c, 0, 76, 0
2, 33216, Note_on_c, 0, 57, 0
2, 33225, Note_on_c, 0, 55, 80
2, 33228, Note_on_c, 0, 77, 0
2, 33232, Note_on_c, 0, 76, 80
2, 33288, Note_on_c, 0, 81, 80
2, 33295, Note_on_c, 0, 76, 0
2, 33326, Note_on_c, 0, 81, 0
2, 33329, Note_on_c, 0, 61, 0
2, 33339, Note_on_c, 0, 55, 0
2, 33342, Note_on_c, 0, 53, 80
2, 33344, Note_on_c, 0, 62, 80
2, 33349, Note_on_c, 0, 69, 80
2, 33410, Note_on_c, 0, 74, 80
2, 33413, Note_on_c, 0, 69, 0
2, 33446, Note_on_c, 0, 74, 0
2, 33461, Note_on_c, 0, 52, 80
2, 33463, Note_on_c, 0, 55, 80
2, 33464, Note_on_c, 0, 53, 0
2, 33464, Note_on_c, 0, 62, 0
2, 33469, Note_on_c, 0, 73, 80
2, 33523, Note_on_c, 0, 76, 80
2, 33526, Note_on_c, 0, 73, 0
2, 33539, Note_on_c, 0, 76, 0
2, 33575, Note_on_c, 0, 55, 0
2, 33580, Note_on_c, 0, 57, 80
2, 33581, Note_on_c, 0, 50, 80
2, 33585, Note_on_c, 0, 52, 0
2, 33586, Note_on_c, 0, 77, 80
2, 33650, Note_on_c, 0, 79, 80
2, 33655, Note_on_c, 0, 77, 0
2, 33684, Note_on_c, 0, 57, 0
2, 33700, Note_on_c, 0, 62, 80
2, 33707, Note_on_c, 0, 79, 0
2, 33711, Note_on_c, 0, 77, 80
2, 33767, Note_on_c, 0, 81, 80
2, 33773, Note_on_c, 0, 77, 0
2, 33791, Note_on_c, 0, 81, 0
2, 33802, Note_on_c, 0, 62, 0
2, 33819, Note_on_c, 0, 50, 0
2, 33820, Note_on_c, 0, 55, 80
2, 33821, Note_on_c, 0, 61, 80
2, 33827, Note_on_c, 0, 69, 80
2, 33885, Note_on_c, 0, 76, 80
2, 33892, Note_on_c, 0, 69, 0
2, 33912, Note_on_c, 0, 76, 0
2, 33946, Note_on_c, 0, 55, 0
2, 33948, Note_on_c, 0, 61, 0
2, 33948, Note_on_c, 0, 62, 80
2, 33950, Note_on_c, 0, 53, 80
2, 33950, Note_on_c, 0, 74, 80
2, 34007, Note_on_c, 0, 77, 80
2, 34014, Note_on_c, 0, 74, 0
2, 34033, Note_on_c, 0, 77, 0
2, 34049, Note_on_c, 0, 53, 0
2, 34063, Note_on_c, 0, 58, 80
2, 34064, Note_on_c, 0, 64, 80
2, 34068, Note_on_c, 0, 62, 0
2, 34069, Note_on_c, 0, 73, 80
2, 34128, Note_on_c, 0, 79, 80
2, 34134, Note_on_c, 0, 64, 0
2, 34135, Note_on_c, 0, 73, 0
2, 34158, Note_on_c, 0, 79, 0
2, 34182, Note_on_c, 0, 62, 80
2, 34186, Note_on_c, 0, 57, 80
2, 34187, Note_on_c, 0, 58, 0
2, 34187, Note_on_c, 0, 77, 80
2, 34248, Note_on_c, 0, 81, 80
2, 34249, Note_on_c, 0, 77, 0
2, 34304, Note_on_c, 0, 55, 80
2, 34306, Note_on_c, 0, 57, 0
2, 34306, Note_on_c, 0, 82, 80
2, 34308, Note_on_c, 0, 81, 0
2, 34360, Note_on_c, 0, 82, 0
2, 34365, Note_on_c, 0, 74, 80
2, 34399, Note_on_c, 0, 74, 0
2, 34401, Note_on_c, 0, 62, 0
2, 34426, Note_on_c, 0, 57, 80
2, 34427, Note_on_c, 0, 62, 80
2, 34428, Note_on_c, 0, 79, 80
2, 34429, Note_on_c, 0, 55, 0
2, 34439, Note_on_c, 0, 62, 0
2, 34440, Note_on_c, 0, 61, 80
2, 34454, Note_on_c, 0, 62, 80
2, 34458, Note_on_c, 0, 61, 0
2, 34469, Note_on_c, 0, 61, 80
2, 34470, Note_on_c, 0, 62, 0
2, 34480, Note_on_c, 0, 62, 80
2, 34487, Note_on_c, 0, 79, 0
2, 34488, Note_on_c, 0, 76, 80
2, 34493, Note_on_c, 0, 62, 0
2, 34516, Note_on_c, 0, 76, 0
2, 34545, Note_on_c, 0, 62, 80
2, 34547, Note_on_c, 0, 50, 80
2, 34551, Note_on_c, 0, 77, 80
2, 34554, Note_on_c, 0, 57, 0
2, 34556, Note_on_c, 0, 61, 0
2, 34589, Note_on_c, 0, 62, 0
2, 34610, Note_on_c, 0, 70, 80
2, 34670, Note_on_c, 0, 70, 0
2, 34671, Note_on_c, 0, 69, 80
2, 34729, Note_on_c, 0, 67, 80
2, 34734, Note_on_c, 0, 69, 0
2, 34782, Note_on_c, 0, 65, 80
2, 34785, Note_on_c, 0, 67, 0
2, 34786, Note_on_c, 0, 50, 0
2, 34846, Note_on_c, 0, 63, 80
2, 34847, Note_on_c, 0, 65, 0
2, 34905, Note_on_c, 0, 63, 0
2, 34905, Note_on_c, 0, 62, 80
2, 34912, Note_on_c, 0, 50, 80
2, 34965, Note_on_c, 0, 62, 0
2, 34965, Note_on_c, 0, 60, 80
2, 34994, Note_on_c, 0, 60, 0
2, 35009, Note_on_c, 0, 50, 0
2, 35015, Note_on_c, 0, 55, 80
2, 35016, Note_on_c, 0, 59, 80
2, 35025, Note_on_c, 0, 59, 80
2, 35085, Note_on_c, 0, 75, 80
2, 35086, Note_on_c, 0, 77, 0
2, 35087, Note_on_c, 0, 59, 0
2, 35132, Note_on_c, 0, 55, 0
2, 35134, Note_on_c, 0, 59, 0
2, 35137, Note_on_c, 0, 57, 80
2, 35140, Note_on_c, 0, 53, 80
2, 35143, Note_on_c, 0, 75, 0
2, 35144, Note_on_c, 0, 74, 80
2, 35202, Note_on_c, 0, 75, 80
2, 35207, Note_on_c, 0, 74, 0
2, 35253, Note_on_c, 0, 57, 0
2, 35255, Note_on_c, 0, 51, 80
2, 35256, Note_on_c, 0, 55, 80
2, 35259, Note_on_c, 0, 53, 0
2, 35260, Note_on_c, 0, 75, 0
2, 35262, Note_on_c, 0, 77, 80
2, 35322, Note_on_c, 0, 79, 80
2, 35324, Note_on_c, 0, 77, 0
2, 35366, Note_on_c, 0, 51, 0
2, 35369, Note_on_c, 0, 79, 0
2, 35371, Note_on_c, 0, 55, 0
2, 35374, Note_on_c, 0, 50, 80
2, 35375, Note_on_c, 0, 53, 80
2, 35379, Note_on_c, 0, 81, 80
2, 35413, Note_on_c, 0, 81, 0
2, 35429, Note_on_c, 0, 83, 80
2, 35431, Note_on_c, 0, 53, 0
2, 35440, Note_on_c, 0, 50, 0
2, 35462, Note_on_c, 0, 83, 0
2, 35488, Note_on_c, 0, 51, 80
2, 35490, Note_on_c, 0, 48, 80
2, 35497, Note_on_c, 0, 84, 80
2, 35574, Note_on_c, 0, 80, 80
2, 35575, Note_on_c, 0, 84, 0
2, 35621, Note_on_c, 0, 80, 0
2, 35622, Note_on_c, 0, 46, 80
2, 35623, Note_on_c, 0, 48, 0
2, 35631, Note_on_c, 0, 79, 80
2, 35687, Note_on_c, 0, 79, 0
2, 35687, Note_on_c, 0, 77, 80
2, 35738, Note_on_c, 0, 46, 0
2, 35743, Note_on_c, 0, 45, 80
2, 35747, Note_on_c, 0, 75, 80
2, 35748, Note_on_c, 0, 77, 0
2, 35812, Note_on_c, 0, 74, 80
2, 35815, Note_on_c, 0, 75, 0
2, 35858, Note_on_c, 0, 45, 0
2, 35861, Note_on_c, 0, 43, 80
2, 35873, Note_on_c, 0, 72, 80
2, 35874, Note_on_c, 0, 74, 0
2, 35930, Note_on_c, 0, 72, 0
2, 35931, Note_on_c, 0, 70, 80
2, 35951, Note_on_c, 0, 43, 0
2, 35962, Note_on_c, 0, 70, 0
2, 35986, Note_on_c, 0, 41, 80
2, 35991, Note_on_c, 0, 69, 80
2, 36047, Note_on_c, 0, 70, 80
2, 36048, Note_on_c, 0, 51, 0
2, 36050, Note_on_c, 0, 50, 80
2, 36055, Note_on_c, 0, 69, 0
2, 36110, Note_on_c, 0, 72, 80
2, 36111, Note_on_c, 0, 70, 0
2, 36111, Note_on_c, 0, 48, 80
2, 36116, Note_on_c, 0, 50, 0
2, 36168, Note_on_c, 0, 70, 80
2, 36168, Note_on_c, 0, 50, 80
2, 36170, Note_on_c, 0, 72, 0
2, 36173, Note_on_c, 0, 48, 0
2, 36224, Note_on_c, 0, 70, 0
2, 36224, Note_on_c, 0, 51, 80
2, 36225, Note_on_c, 0, 69, 80
2, 36235, Note_on_c, 0, 50, 0
2, 36282, Note_on_c, 0, 51, 0
2, 36282, Note_on_c, 0, 53, 80
2, 36285, Note_on_c, 0, 67, 80
2, 36286, Note_on_c, 0, 69, 0
2, 36340, Note_on_c, 0, 67, 0
2, 36342, Note_on_c, 0, 55, 80
2, 36343, Note_on_c, 0, 53, 0
2, 36343, Note_on_c, 0, 65, 80
2, 36354, Note_on_c, 0, 41, 0
2, 36397, Note_on_c, 0, 65, 0
2, 36399, Note_on_c, 0, 57, 80
2, 36402, Note_on_c, 0, 63, 80
2, 36405, Note_on_c, 0, 55, 0
2, 36426, Note_on_c, 0, 63, 0
2, 36457, Note_on_c, 0, 46, 80
2, 36458, Note_on_c, 0, 57, 0
2, 36459, Note_on_c, 0, 58, 80
2, 36464, Note_on_c, 0, 62, 80
2, 36516, Note_on_c, 0, 46, 0
2, 36517, Note_on_c, 0, 48, 80
2, 36530, Note_on_c, 0, 62, 0
2, 36581, Note_on_c, 0, 50, 80
2, 36582, Note_on_c, 0, 48, 0
2, 36587, Note_on_c, 0, 70, 80
2, 36636, Note_on_c, 0, 70, 0
2, 36640, Note_on_c, 0, 51, 80
2, 36647, Note_on_c, 0, 50, 0
2, 36659, Note_on_c, 0, 58, 0
2, 36698, Note_on_c, 0, 51, 0
2, 36700, Note_on_c, 0, 50, 80
2, 36703, Note_on_c, 0, 58, 80
2, 36760, Note_on_c, 0, 48, 80
2, 36767, Note_on_c, 0, 50, 0
2, 36775, Note_on_c, 0, 58, 0
2, 36822, Note_on_c, 0, 46, 80
2, 36824, Note_on_c, 0, 48, 0
2, 36824, Note_on_c, 0, 53, 80
2, 36828, Note_on_c, 0, 62, 80
2, 36868, Note_on_c, 0, 62, 0
2, 36881, Note_on_c, 0, 45, 80
2, 36882, Note_on_c, 0, 46, 0
2, 36882, Note_on_c, 0, 53, 0
2, 36945, Note_on_c, 0, 43, 80
2, 36945, Note_on_c, 0, 51, 80
2, 36950, Note_on_c, 0, 45, 0
2, 36955, Note_on_c, 0, 58, 80
2, 36956, Note_on_c, 0, 63, 80
2, 37004, Note_on_c, 0, 51, 0
2, 37016, Note_on_c, 0, 65, 80
2, 37024, Note_on_c, 0, 63, 0
2, 37071, Note_on_c, 0, 51, 80
2, 37072, Note_on_c, 0, 43, 0
2, 37077, Note_on_c, 0, 67, 80
2, 37078, Note_on_c, 0, 65, 0
2, 37082, Note_on_c, 0, 58, 0
2, 37132, Note_on_c, 0, 51, 0
2, 37137, Note_on_c, 0, 68, 80
2, 37142, Note_on_c, 0, 67, 0
2, 37178, Note_on_c, 0, 68, 0
2, 37186, Note_on_c, 0, 39, 80
2, 37197, Note_on_c, 0, 67, 80
2, 37252, Note_on_c, 0, 65, 80
2, 37259, Note_on_c, 0, 67, 0
2, 37269, Note_on_c, 0, 39, 0
2, 37310, Note_on_c, 0, 65, 0
2, 37312, Note_on_c, 0, 63, 80
2, 37314, Note_on_c, 0, 58, 80
2, 37315, Note_on_c, 0, 43, 80
2, 37364, Note_on_c, 0, 62, 80
2, 37366, Note_on_c, 0, 63, 0
2, 37366, Note_on_c, 0, 43, 0
2, 37399, Note_on_c, 0, 62, 0
2, 37426, Note_on_c, 0, 45, 80
2, 37430, Note_on_c, 0, 60, 80
2, 37438, Note_on_c, 0, 58, 0
2, 37487, Note_on_c, 0, 46, 80
2, 37492, Note_on_c, 0, 58, 80
2, 37498, Note_on_c, 0, 45, 0
2, 37546, Note_on_c, 0, 46, 0
2, 37549, Note_on_c, 0, 48, 80
2, 37554, Note_on_c, 0, 57, 80
2, 37555, Note_on_c, 0, 58, 0
2, 37604, Note_on_c, 0, 50, 80
2, 37608, Note_on_c, 0, 48, 0
2, 37610, Note_on_c, 0, 55, 80
2, 37613, Note_on_c, 0, 57, 0
2, 37662, Note_on_c, 0, 48, 80
2, 37665, Note_on_c, 0, 60, 0
2, 37665, Note_on_c, 0, 50, 0
2, 37667, Note_on_c, 0, 55, 0
2, 37668, Note_on_c, 0, 57, 80
2, 37718, Note_on_c, 0, 46, 80
2, 37723, Note_on_c, 0, 48, 0
2, 37726, Note_on_c, 0, 58, 80
2, 37731, Note_on_c, 0, 57, 0
2, 37756, Note_on_c, 0, 58, 0
2, 37776, Note_on_c, 0, 46, 0
2, 37777, Note_on_c, 0, 45, 80
2, 37785, Note_on_c, 0, 60, 80
2, 37831, Note_on_c, 0, 43, 80
2, 37835, Note_on_c, 0, 45, 0
2, 37892, Note_on_c, 0, 43, 0
2, 37893, Note_on_c, 0, 42, 80
2, 37921, Note_on_c, 0, 60, 0
2, 37947, Note_on_c, 0, 42, 0
2, 37952, Note_on_c, 0, 60, 80
2, 38021, Note_on_c, 0, 60, 0
2, 38022, Note_on_c, 0, 62, 80
2, 38024, Note_on_c, 0, 50, 80
2, 38077, Note_on_c, 0, 62, 0
2, 38094, Note_on_c, 0, 63, 80
2, 38138, Note_on_c, 0, 50, 0
2, 38140, Note_on_c, 0, 38, 80
2, 38153, Note_on_c, 0, 63, 0
2, 38155, Note_on_c, 0, 62, 80
2, 38213, Note_on_c, 0, 60, 80
2, 38219, Note_on_c, 0, 62, 0
2, 38262, Note_on_c, 0, 58, 80
2, 38264, Note_on_c, 0, 38, 0
2, 38267, Note_on_c, 0, 54, 80
2, 38269, Note_on_c, 0, 60, 0
2, 38316, Note_on_c, 0, 58, 0
2, 38320, Note_on_c, 0, 54, 0
2, 38320, Note_on_c, 0, 57, 80
2, 38371, Note_on_c, 0, 57, 0
2, 38382, Note_on_c, 0, 58, 80
2, 38383, Note_on_c, 0, 55, 80
2, 38389, Note_on_c, 0, 67, 80
2, 38436, Note_on_c, 0, 55, 0
2, 38450, Note_on_c, 0, 69, 80
2, 38451, Note_on_c, 0, 67, 0
2, 38453, Note_on_c, 0, 58, 0
2, 38506, Note_on_c, 0, 58, 80
2, 38506, Note_on_c, 0, 67, 80
2, 38507, Note_on_c, 0, 69, 0
2, 38509, Note_on_c, 0, 62, 80
2, 38563, Note_on_c, 0, 74, 80
2, 38564, Note_on_c, 0, 67, 0
2, 38591, Note_on_c, 0, 74, 0
2, 38599, Note_on_c, 0, 62, 0
2, 38605, Note_on_c, 0, 58, 0
2, 38617, Note_on_c, 0, 60, 80
2, 38618, Note_on_c, 0, 57, 80
2, 38620, Note_on_c, 0, 62, 80
2, 38680, Note_on_c, 0, 66, 80
2, 38684, Note_on_c, 0, 62, 0
2, 38721, Note_on_c, 0, 66, 0
2, 38725, Note_on_c, 0, 57, 0
2, 38734, Note_on_c, 0, 58, 80
2, 38735, Note_on_c, 0, 60, 0
2, 38735, Note_on_c, 0, 64, 80
2, 38736, Note_on_c, 0, 55, 80
2, 38794, Note_on_c, 0, 67, 80
2, 38798, Note_on_c, 0, 64, 0
2, 38825, Note_on_c, 0, 55, 0
2, 38831, Note_on_c, 0, 67, 0
2, 38837, Note_on_c, 0, 58, 0
2, 38853, Note_on_c, 0, 57, 80
2, 38853, Note_on_c, 0, 69, 80
2, 38854, Note_on_c, 0, 50, 80
2, 38911, Note_on_c, 0, 48, 80
2, 38913, Note_on_c, 0, 50, 0
2, 38919, Note_on_c, 0, 69, 0
2, 38925, Note_on_c, 0, 70, 80
2, 38977, Note_on_c, 0, 48, 0
2, 38978, Note_on_c, 0, 50, 80
2, 38979, Note_on_c, 0, 70, 0
2, 38982, Note_on_c, 0, 57, 0
2, 38986, Note_on_c, 0, 69, 80
2, 39029, Note_on_c, 0, 43, 80
2, 39040, Note_on_c, 0, 74, 80
2, 39044, Note_on_c, 0, 69, 0
2, 39048, Note_on_c, 0, 50, 0
2, 39061, Note_on_c, 0, 43, 0
2, 39084, Note_on_c, 0, 74, 0
2, 39095, Note_on_c, 0, 57, 80
2, 39101, Note_on_c, 0, 62, 80
2, 39102, Note_on_c, 0, 60, 80
2, 39149, Note_on_c, 0, 57, 0
2, 39152, Note_on_c, 0, 52, 80
2, 39160, Note_on_c, 0, 67, 80
2, 39164, Note_on_c, 0, 62, 0
2, 39194, Note_on_c, 0, 67, 0
2, 39215, Note_on_c, 0, 54, 80
2, 39216, Note_on_c, 0, 66, 80
2, 39217, Note_on_c, 0, 52, 0
2, 39272, Note_on_c, 0, 66, 0
2, 39272, Note_on_c, 0, 50, 80
2, 39273, Note_on_c, 0, 69, 80
2, 39274, Note_on_c, 0, 54, 0
2, 39280, Note_on_c, 0, 60, 0
2, 39321, Note_on_c, 0, 69, 0
2, 39327, Note_on_c, 0, 50, 0
2, 39331, Note_on_c, 0, 55, 80
2, 39333, Note_on_c, 0, 58, 80
2, 39335, Note_on_c, 0, 62, 80
2, 39387, Note_on_c, 0, 62, 0
2, 39389, Note_on_c, 0, 54, 80
2, 39390, Note_on_c, 0, 55, 0
2, 39392, Note_on_c, 0, 58, 0
2, 39446, Note_on_c, 0, 54, 0
2, 39449, Note_on_c, 0, 55, 80
2, 39454, Note_on_c, 0, 62, 80
2, 39456, Note_on_c, 0, 74, 80
2, 39511, Note_on_c, 0, 50, 80
2, 39514, Note_on_c, 0, 55, 0
2, 39519, Note_on_c, 0, 74, 0
2, 39554, Note_on_c, 0, 50, 0
2, 39565, Note_on_c, 0, 62, 0
2, 39568, Note_on_c, 0, 72, 80
2, 39570, Note_on_c, 0, 66, 80
2, 39572, Note_on_c, 0, 62, 80
2, 39625, Note_on_c, 0, 57, 80
2, 39631, Note_on_c, 0, 62, 0
2, 39659, Note_on_c, 0, 72, 0
2, 39683, Note_on_c, 0, 57, 0
2, 39683, Note_on_c, 0, 58, 80
2, 39686, Note_on_c, 0, 66, 0
2, 39690, Note_on_c, 0, 67, 80
2, 39691, Note_on_c, 0, 70, 80
2, 39729, Note_on_c, 0, 70, 0
2, 39736, Note_on_c, 0, 55, 80
2, 39740, Note_on_c, 0, 58, 0
2, 39784, Note_on_c, 0, 55, 0
2, 39798, Note_on_c, 0, 63, 80
2, 39813, Note_on_c, 0, 72, 80
2, 39862, Note_on_c, 0, 57, 80
2, 39867, Note_on_c, 0, 63, 0
2, 39925, Note_on_c, 0, 58, 80
2, 39926, Note_on_c, 0, 57, 0
2, 39933, Note_on_c, 0, 74, 80
2, 39936, Note_on_c, 0, 72, 0
2, 39985, Note_on_c, 0, 58, 0
2, 39985, Note_on_c, 0, 55, 80
2, 39990, Note_on_c, 0, 75, 80
2, 39998, Note_on_c, 0, 74, 0
2, 40040, Note_on_c, 0, 75, 0
2, 40057, Note_on_c, 0, 54, 80
2, 40057, Note_on_c, 0, 74, 80
2, 40061, Note_on_c, 0, 55, 0
2, 40116, Note_on_c, 0, 54, 0
2, 40117, Note_on_c, 0, 62, 80
2, 40126, Note_on_c, 0, 70, 80
2, 40132, Note_on_c, 0, 74, 0
2, 40176, Note_on_c, 0, 70, 0
2, 40177, Note_on_c, 0, 57, 80
2, 40180, Note_on_c, 0, 62, 0
2, 40182, Note_on_c, 0, 66, 80
2, 40183, Note_on_c, 0, 72, 80
2, 40188, Note_on_c, 0, 67, 0
2, 40235, Note_on_c, 0, 72, 0
2, 40235, Note_on_c, 0, 60, 80
2, 40237, Note_on_c, 0, 69, 80
2, 40253, Note_on_c, 0, 57, 0
2, 40267, Note_on_c, 0, 69, 0
2, 40291, Note_on_c, 0, 66, 0
2, 40295, Note_on_c, 0, 60, 0
2, 40296, Note_on_c, 0, 62, 80
2, 40300, Note_on_c, 0, 70, 80
2, 40300, Note_on_c, 0, 67, 80
2, 40342, Note_on_c, 0, 70, 0
2, 40356, Note_on_c, 0, 67, 0
2, 40356, Note_on_c, 0, 63, 80
2, 40358, Note_on_c, 0, 62, 0
2, 40414, Note_on_c, 0, 63, 0
2, 40414, Note_on_c, 0, 62, 80
2, 40418, Note_on_c, 0, 71, 80
2, 40418, Note_on_c, 0, 77, 80
2, 40472, Note_on_c, 0, 62, 0
2, 40473, Note_on_c, 0, 67, 80
2, 40487, Note_on_c, 0, 77, 0
2, 40503, Note_on_c, 0, 67, 0
2, 40507, Note_on_c, 0, 71, 0
2, 40532, Note_on_c, 0, 55, 80
2, 40536, Note_on_c, 0, 72, 80
2, 40537, Note_on_c, 0, 75, 80
2, 40593, Note_on_c, 0, 60, 80
2, 40598, Note_on_c, 0, 55, 0
2, 40613, Note_on_c, 0, 75, 0
2, 40616, Note_on_c, 0, 72, 0
2, 40652, Note_on_c, 0, 59, 80
2, 40655, Note_on_c, 0, 60, 0
2, 40657, Note_on_c, 0, 65, 80
2, 40657, Note_on_c, 0, 74, 80
2, 40708, Note_on_c, 0, 62, 80
2, 40709, Note_on_c, 0, 59, 0
2, 40725, Note_on_c, 0, 74, 0
2, 40739, Note_on_c, 0, 62, 0
2, 40771, Note_on_c, 0, 63, 80
2, 40779, Note_on_c, 0, 63, 80
2, 40781, Note_on_c, 0, 65, 0
2, 40781, Note_on_c, 0, 72, 80
2, 40833, Note_on_c, 0, 63, 0
2, 40834, Note_on_c, 0, 65, 80
2, 40840, Note_on_c, 0, 72, 0
2, 40844, Note_on_c, 0, 71, 80
2, 40881, Note_on_c, 0, 63, 0
2, 40892, Note_on_c, 0, 63, 80
2, 40893, Note_on_c, 0, 65, 0
2, 40900, Note_on_c, 0, 71, 0
2, 40901, Note_on_c, 0, 72, 80
2, 40949, Note_on_c, 0, 67, 80
2, 40950, Note_on_c, 0, 63, 0
2, 40954, Note_on_c, 0, 72, 0
2, 40955, Note_on_c, 0, 67, 80
2, 40971, Note_on_c, 0, 67, 0
2, 40990, Note_on_c, 0, 67, 0
2, 41009, Note_on_c, 0, 55, 80
2, 41017, Note_on_c, 0, 79, 80
2, 41065, Note_on_c, 0, 59, 80
2, 41068, Note_on_c, 0, 55, 0
2, 41077, Note_on_c, 0, 74, 80
2, 41080, Note_on_c, 0, 79, 0
2, 41126, Note_on_c, 0, 57, 80
2, 41127, Note_on_c, 0, 59, 0
2, 41138, Note_on_c, 0, 75, 80
2, 41156, Note_on_c, 0, 74, 0
2, 41184, Note_on_c, 0, 60, 80
2, 41190, Note_on_c, 0, 57, 0
2, 41196, Note_on_c, 0, 72, 80
2, 41198, Note_on_c, 0, 75, 0
2, 41225, Note_on_c, 0, 60, 0
2, 41232, Note_on_c, 0, 72, 0
2, 41253, Note_on_c, 0, 62, 80
2, 41261, Note_on_c, 0, 71, 80
2, 41316, Note_on_c, 0, 63, 80
2, 41318, Note_on_c, 0, 62, 0
2, 41324, Note_on_c, 0, 69, 80
2, 41329, Note_on_c, 0, 71, 0
2, 41376, Note_on_c, 0, 62, 80
2, 41380, Note_on_c, 0, 63, 0
2, 41388, Note_on_c, 0, 71, 80
2, 41390, Note_on_c, 0, 69, 0
2, 41433, Note_on_c, 0, 62, 0
2, 41445, Note_on_c, 0, 71, 0
2, 41446, Note_on_c, 0, 67, 80
2, 41447, Note_on_c, 0, 65, 80
2, 41475, Note_on_c, 0, 67, 0
2, 41487, Note_on_c, 0, 65, 0
2, 41502, Note_on_c, 0, 55, 80
2, 41510, Note_on_c, 0, 79, 80
2, 41559, Note_on_c, 0, 59, 80
2, 41564, Note_on_c, 0, 55, 0
2, 41570, Note_on_c, 0, 74, 80
2, 41574, Note_on_c, 0, 79, 0
2, 41617, Note_on_c, 0, 57, 80
2, 41618, Note_on_c, 0, 59, 0
2, 41627, Note_on_c, 0, 75, 80
2, 41635, Note_on_c, 0, 74, 0
2, 41686, Note_on_c, 0, 57, 0
2, 41686, Note_on_c, 0, 75, 0
2, 41686, Note_on_c, 0, 72, 80
2, 41690, Note_on_c, 0, 60, 80
2, 41722, Note_on_c, 0, 72, 0
2, 41724, Note_on_c, 0, 60, 0
2, 41743, Note_on_c, 0, 59, 80
2, 41750, Note_on_c, 0, 80, 80
2, 41809, Note_on_c, 0, 59, 0
2, 41809, Note_on_c, 0, 74, 80
2, 41809, Note_on_c, 0, 62, 80
2, 41812, Note_on_c, 0, 80, 0
2, 41861, Note_on_c, 0, 62, 0
2, 41863, Note_on_c, 0, 60, 80
2, 41866, Note_on_c, 0, 75, 80
2, 41868, Note_on_c, 0, 74, 0
2, 41921, Note_on_c, 0, 63, 80
2, 41925, Note_on_c, 0, 60, 0
2, 41926, Note_on_c, 0, 75, 0
2, 41926, Note_on_c, 0, 72, 80
2, 41976, Note_on_c, 0, 72, 0
2, 41984, Note_on_c, 0, 62, 80
2, 41985, Note_on_c, 0, 63, 0
2, 41989, Note_on_c, 0, 71, 80
2, 42043, Note_on_c, 0, 60, 80
2, 42051, Note_on_c, 0, 62, 0
2, 42051, Note_on_c, 0, 79, 80
2, 42057, Note_on_c, 0, 71, 0
2, 42099, Note_on_c, 0, 59, 80
2, 42101, Note_on_c, 0, 60, 0
2, 42111, Note_on_c, 0, 74, 80
2, 42116, Note_on_c, 0, 79, 0
2, 42154, Note_on_c, 0, 60, 80
2, 42156, Note_on_c, 0, 59, 0
2, 42172, Note_on_c, 0, 77, 80
2, 42173, Note_on_c, 0, 74, 0
2, 42196, Note_on_c, 0, 60, 0
2, 42219, Note_on_c, 0, 77, 0
2, 42228, Note_on_c, 0, 60, 80
2, 42232, Note_on_c, 0, 67, 80
2, 42233, Note_on_c, 0, 75, 80
2, 42293, Note_on_c, 0, 65, 80
2, 42296, Note_on_c, 0, 67, 0
2, 42347, Note_on_c, 0, 60, 0
2, 42349, Note_on_c, 0, 58, 80
2, 42350, Note_on_c, 0, 65, 0
2, 42352, Note_on_c, 0, 67, 80
2, 42405, Note_on_c, 0, 60, 80
2, 42406, Note_on_c, 0, 60, 80
2, 42413, Note_on_c, 0, 67, 0
2, 42421, Note_on_c, 0, 60, 0
2, 42444, Note_on_c, 0, 58, 0
2, 42461, Note_on_c, 0, 60, 0
2, 42464, Note_on_c, 0, 57, 80
2, 42471, Note_on_c, 0, 72, 80
2, 42532, Note_on_c, 0, 69, 80
2, 42536, Note_on_c, 0, 72, 0
2, 42584, Note_on_c, 0, 69, 0
2, 42586, Note_on_c, 0, 57, 0
2, 42586, Note_on_c, 0, 70, 80
2, 42589, Note_on_c, 0, 55, 80
2, 42641, Note_on_c, 0, 67, 80
2, 42647, Note_on_c, 0, 70, 0
2, 42687, Note_on_c, 0, 67, 0
2, 42690, Note_on_c, 0, 55, 0
2, 42695, Note_on_c, 0, 57, 80
2, 42708, Note_on_c, 0, 66, 80
2, 42759, Note_on_c, 0, 66, 0
2, 42763, Note_on_c, 0, 75, 0
2, 42767, Note_on_c, 0, 64, 80
2, 42770, Note_on_c, 0, 73, 80
2, 42813, Note_on_c, 0, 73, 0
2, 42827, Note_on_c, 0, 64, 0
2, 42828, Note_on_c, 0, 66, 80
2, 42828, Note_on_c, 0, 74, 80
2, 42883, Note_on_c, 0, 62, 80
2, 42886, Note_on_c, 0, 66, 0
2, 42925, Note_on_c, 0, 62, 0
2, 42927, Note_on_c, 0, 74, 0
2, 42936, Note_on_c, 0, 58, 80
2, 42944, Note_on_c, 0, 74, 80
2, 42945, Note_on_c, 0, 57, 0
2, 43001, Note_on_c, 0, 74, 0
2, 43003, Note_on_c, 0, 69, 80
2, 43007, Note_on_c, 0, 78, 80
2, 43052, Note_on_c, 0, 78, 0
2, 43067, Note_on_c, 0, 69, 0
2, 43068, Note_on_c, 0, 70, 80
2, 43069, Note_on_c, 0, 79, 80
2, 43112, Note_on_c, 0, 58, 0
2, 43123, Note_on_c, 0, 70, 0
2, 43127, Note_on_c, 0, 67, 80
2, 43159, Note_on_c, 0, 67, 0
2, 43180, Note_on_c, 0, 60, 80
2, 43188, Note_on_c, 0, 75, 80
2, 43223, Note_on_c, 0, 75, 0
2, 43235, Note_on_c, 0, 79, 0
2, 43249, Note_on_c, 0, 69, 80
2, 43252, Note_on_c, 0, 78, 80
2, 43292, Note_on_c, 0, 78, 0
2, 43296, Note_on_c, 0, 60, 0
2, 43296, Note_on_c, 0, 62, 80
2, 43303, Note_on_c, 0, 69, 0
2, 43304, Note_on_c, 0, 79, 80
2, 43307, Note_on_c, 0, 70, 80
2, 43346, Note_on_c, 0, 70, 0
2, 43363, Note_on_c, 0, 67, 80
2, 43363, Note_on_c, 0, 70, 80
2, 43367, Note_on_c, 0, 79, 0
2, 43398, Note_on_c, 0, 62, 0
2, 43410, Note_on_c, 0, 67, 0
2, 43412, Note_on_c, 0, 70, 0
2, 43421, Note_on_c, 0, 63, 80
2, 43422, Note_on_c, 0, 66, 80
2, 43426, Note_on_c, 0, 72, 80
2, 43475, Note_on_c, 0, 72, 0
2, 43493, Note_on_c, 0, 81, 80
2, 43534, Note_on_c, 0, 81, 0
2, 43559, Note_on_c, 0, 69, 80
2, 43600, Note_on_c, 0, 69, 0
2, 43625, Note_on_c, 0, 72, 80
2, 43674, Note_on_c, 0, 72, 0
2, 43698, Note_on_c, 0, 66, 0
2, 43700, Note_on_c, 0, 63, 0
2, 43703, Note_on_c, 0, 71, 80
2, 43703, Note_on_c, 0, 62, 80
2, 43704, Note_on_c, 0, 67, 80
2, 43704, Note_on_c, 0, 62, 80
2, 43705, Note_on_c, 0, 67, 80
2, 44139, Note_on_c, 0, 62, 0
2, 44140, Note_on_c, 0, 71, 0
2, 44140, Note_on_c, 0, 67, 0
2, 44156, Note_on_c, 0, 67, 0
2, 44157, Note_on_c, 0, 62, 0
2, 44195, Control_c, 0, 7, 127
2, 44195, Control_c, 0, 10, 34
2, 44195, End_track
3, 0, Start_track
3, 0, Title_t, "Man 4"
3, 0, MIDI_port, 0
3, 0, Control_c, 2, 7, 105
3, 0, Control_c, 2, 10, 34
3, 0, Program_c, 2, 19
3, 0, Control_c, 2, 91, 93
3, 9, Note_on_c, 2, 79, 80
3, 65, Note_on_c, 2, 78, 80
3, 66, Note_on_c, 2, 79, 0
3, 126, Note_on_c, 2, 78, 0
3, 127, Note_on_c, 2, 79, 80
3, 178, Note_on_c, 2, 79, 0
3, 182, Note_on_c, 2, 74, 80
3, 239, Note_on_c, 2, 86, 80
3, 240, Note_on_c, 2, 74, 0
3, 296, Note_on_c, 2, 81, 80
3, 298, Note_on_c, 2, 86, 0
3, 347, Note_on_c, 2, 82, 80
3, 354, Note_on_c, 2, 81, 0
3, 404, Note_on_c, 2, 82, 0
3, 406, Note_on_c, 2, 79, 80
3, 434, Note_on_c, 2, 79, 0
3, 463, Note_on_c, 2, 78, 80
3, 528, Note_on_c, 2, 78, 0
3, 529, Note_on_c, 2, 76, 80
3, 588, Note_on_c, 2, 78, 80
3, 592, Note_on_c, 2, 76, 0
3, 642, Note_on_c, 2, 78, 0
3, 645, Note_on_c, 2, 74, 80
3, 682, Note_on_c, 2, 74, 0
3, 706, Note_on_c, 2, 86, 80
3, 770, Note_on_c, 2, 81, 80
3, 777, Note_on_c, 2, 86, 0
3, 825, Note_on_c, 2, 82, 80
3, 833, Note_on_c, 2, 81, 0
3, 880, Note_on_c, 2, 82, 0
3, 884, Note_on_c, 2, 79, 80
3, 918, Note_on_c, 2, 79, 0
3, 953, Note_on_c, 2, 87, 80
3, 1014, Note_on_c, 2, 81, 80
3, 1022, Note_on_c, 2, 87, 0
3, 1069, Note_on_c, 2, 82, 80
3, 1072, Note_on_c, 2, 81, 0
3, 1131, Note_on_c, 2, 82, 0
3, 1131, Note_on_c, 2, 79, 80
3, 1166, Note_on_c, 2, 79, 0
3, 1191, Note_on_c, 2, 78, 80
3, 1251, Note_on_c, 2, 86, 80
3, 1254, Note_on_c, 2, 78, 0
3, 1307, Note_on_c, 2, 81, 80
3, 1310, Note_on_c, 2, 86, 0
3, 1361, Note_on_c, 2, 81, 0
3, 1363, Note_on_c, 2, 84, 80
3, 1401, Note_on_c, 2, 84, 0
3, 1424, Note_on_c, 2, 74, 80
3, 1428, Note_on_c, 2, 82, 80
3, 1485, Note_on_c, 2, 72, 80
3, 1486, Note_on_c, 2, 74, 0
3, 1498, Note_on_c, 2, 82, 0
3, 1543, Note_on_c, 2, 74, 80
3, 1543, Note_on_c, 2, 86, 80
3, 1544, Note_on_c, 2, 72, 0
3, 1598, Note_on_c, 2, 67, 80
3, 1603, Note_on_c, 2, 74, 0
3, 1649, Note_on_c, 2, 67, 0
3, 1656, Note_on_c, 2, 86, 0
3, 1658, Note_on_c, 2, 79, 80
3, 1662, Note_on_c, 2, 85, 80
3, 1715, Note_on_c, 2, 76, 80
3, 1720, Note_on_c, 2, 79, 0
3, 1774, Note_on_c, 2, 85, 0
3, 1775, Note_on_c, 2, 76, 0
3, 1775, Control_c, 2, 7, 105
3, 1775, Control_c, 2, 10, 34
3, 1775, Note_on_c, 2, 77, 80
3, 1780, Note_on_c, 2, 86, 80
3, 1830, Note_on_c, 2, 74, 80
3, 1833, Note_on_c, 2, 77, 0
3, 1870, Note_on_c, 2, 74, 0
3, 1895, Note_on_c, 2, 73, 80
3, 1896, Note_on_c, 2, 86, 0
3, 1897, Note_on_c, 2, 88, 80
3, 1961, Note_on_c, 2, 71, 80
3, 1962, Note_on_c, 2, 73, 0
3, 1984, Note_on_c, 2, 88, 0
3, 2019, Note_on_c, 2, 93, 80
3, 2024, Note_on_c, 2, 73, 80
3, 2029, Note_on_c, 2, 71, 0
3, 2080, Note_on_c, 2, 73, 0
3, 2081, Note_on_c, 2, 69, 80
3, 2133, Note_on_c, 2, 69, 0
3, 2139, Note_on_c, 2, 81, 80
3, 2141, Note_on_c, 2, 85, 80
3, 2144, Note_on_c, 2, 93, 0
3, 2203, Note_on_c, 2, 76, 80
3, 2208, Note_on_c, 2, 81, 0
3, 2209, Note_on_c, 2, 85, 0
3, 2259, Note_on_c, 2, 77, 80
3, 2260, Note_on_c, 2, 86, 80
3, 2264, Note_on_c, 2, 76, 0
3, 2313, Note_on_c, 2, 77, 0
3, 2315, Note_on_c, 2, 74, 80
3, 2319, Note_on_c, 2, 86, 0
3, 2374, Note_on_c, 2, 74, 0
3, 2377, Note_on_c, 2, 82, 80
3, 2381, Note_on_c, 2, 91, 80
3, 2437, Note_on_c, 2, 76, 80
3, 2439, Note_on_c, 2, 82, 0
3, 2500, Note_on_c, 2, 76, 0
3, 2500, Note_on_c, 2, 77, 80
3, 2506, Note_on_c, 2, 93, 80
3, 2507, Note_on_c, 2, 91, 0
3, 2561, Note_on_c, 2, 74, 80
3, 2562, Note_on_c, 2, 94, 80
3, 2563, Note_on_c, 2, 77, 0
3, 2565, Note_on_c, 2, 93, 0
3, 2595, Note_on_c, 2, 74, 0
3, 2618, Note_on_c, 2, 73, 80
3, 2619, Note_on_c, 2, 94, 0
3, 2624, Note_on_c, 2, 93, 80
3, 2677, Note_on_c, 2, 73, 0
3, 2678, Note_on_c, 2, 81, 80
3, 2685, Note_on_c, 2, 89, 80
3, 2687, Note_on_c, 2, 93, 0
3, 2714, Note_on_c, 2, 81, 0
3, 2735, Note_on_c, 2, 76, 80
3, 2742, Note_on_c, 2, 91, 80
3, 2748, Note_on_c, 2, 89, 0
3, 2787, Note_on_c, 2, 79, 80
3, 2788, Note_on_c, 2, 76, 0
3, 2799, Note_on_c, 2, 91, 0
3, 2800, Note_on_c, 2, 88, 80
3, 2814, Note_on_c, 2, 79, 0
3, 2828, Note_on_c, 2, 88, 0
3, 2858, Note_on_c, 2, 77, 80
3, 2868, Note_on_c, 2, 86, 80
3, 2920, Note_on_c, 2, 77, 0
3, 2931, Note_on_c, 2, 88, 80
3, 2940, Note_on_c, 2, 86, 0
3, 2976, Note_on_c, 2, 86, 80
3, 2991, Note_on_c, 2, 89, 80
3, 2995, Note_on_c, 2, 88, 0
3, 3045, Note_on_c, 2, 86, 0
3, 3051, Note_on_c, 2, 91, 80
3, 3054, Note_on_c, 2, 89, 0
3, 3106, Note_on_c, 2, 74, 80
3, 3114, Note_on_c, 2, 89, 80
3, 3118, Note_on_c, 2, 91, 0
3, 3173, Note_on_c, 2, 87, 80
3, 3176, Note_on_c, 2, 89, 0
3, 3178, Note_on_c, 2, 74, 0
3, 3231, Note_on_c, 2, 87, 0
3, 3231, Note_on_c, 2, 86, 80
3, 3232, Note_on_c, 2, 77, 80
3, 3283, Note_on_c, 2, 77, 0
3, 3287, Note_on_c, 2, 84, 80
3, 3290, Note_on_c, 2, 86, 0
3, 3308, Note_on_c, 2, 84, 0
3, 3350, Note_on_c, 2, 79, 80
3, 3351, Note_on_c, 2, 83, 80
3, 3410, Note_on_c, 2, 81, 80
3, 3421, Note_on_c, 2, 79, 0
3, 3453, Note_on_c, 2, 81, 0
3, 3455, Note_on_c, 2, 83, 0
3, 3466, Note_on_c, 2, 91, 80
3, 3467, Note_on_c, 2, 83, 80
3, 3523, Note_on_c, 2, 84, 80
3, 3526, Note_on_c, 2, 83, 0
3, 3550, Note_on_c, 2, 91, 0
3, 3582, Note_on_c, 2, 79, 80
3, 3584, Note_on_c, 2, 84, 0
3, 3590, Note_on_c, 2, 83, 80
3, 3632, Note_on_c, 2, 83, 0
3, 3645, Note_on_c, 2, 81, 80
3, 3679, Note_on_c, 2, 79, 0
3, 3697, Note_on_c, 2, 81, 0
3, 3712, Note_on_c, 2, 83, 80
3, 3712, Note_on_c, 2, 79, 80
3, 3763, Note_on_c, 2, 77, 80
3, 3770, Note_on_c, 2, 79, 0
3, 3773, Note_on_c, 2, 83, 0
3, 3804, Note_on_c, 2, 77, 0
3, 3818, Note_on_c, 2, 75, 80
3, 3832, Note_on_c, 2, 84, 80
3, 3896, Note_on_c, 2, 86, 80
3, 3903, Note_on_c, 2, 84, 0
3, 3919, Note_on_c, 2, 75, 0
3, 3952, Note_on_c, 2, 84, 80
3, 3954, Note_on_c, 2, 87, 80
3, 3966, Note_on_c, 2, 86, 0
3, 4006, Note_on_c, 2, 87, 0
3, 4013, Note_on_c, 2, 89, 80
3, 4017, Note_on_c, 2, 84, 0
3, 4046, Note_on_c, 2, 89, 0
3, 4069, Note_on_c, 2, 72, 80
3, 4074, Note_on_c, 2, 87, 80
3, 4134, Note_on_c, 2, 86, 80
3, 4135, Note_on_c, 2, 87, 0
3, 4171, Note_on_c, 2, 72, 0
3, 4190, Note_on_c, 2, 84, 80
3, 4192, Note_on_c, 2, 86, 0
3, 4196, Note_on_c, 2, 75, 80
3, 4248, Note_on_c, 2, 82, 80
3, 4250, Note_on_c, 2, 84, 0
3, 4255, Note_on_c, 2, 75, 0
3, 4288, Note_on_c, 2, 82, 0
3, 4310, Note_on_c, 2, 77, 80
3, 4316, Note_on_c, 2, 81, 80
3, 4370, Note_on_c, 2, 79, 80
3, 4372, Note_on_c, 2, 77, 0
3, 4421, Note_on_c, 2, 81, 0
3, 4430, Note_on_c, 2, 81, 80
3, 4432, Note_on_c, 2, 89, 80
3, 4433, Note_on_c, 2, 79, 0
3, 4489, Note_on_c, 2, 82, 80
3, 4490, Note_on_c, 2, 81, 0
3, 4518, Note_on_c, 2, 89, 0
3, 4547, Note_on_c, 2, 82, 0
3, 4549, Note_on_c, 2, 77, 80
3, 4551, Note_on_c, 2, 81, 80
3, 4610, Note_on_c, 2, 79, 80
3, 4617, Note_on_c, 2, 81, 0
3, 4648, Note_on_c, 2, 77, 0
3, 4655, Note_on_c, 2, 77, 80
3, 4667, Note_on_c, 2, 79, 0
3, 4671, Note_on_c, 2, 81, 80
3, 4717, Note_on_c, 2, 75, 80
3, 4721, Note_on_c, 2, 77, 0
3, 4724, Note_on_c, 2, 81, 0
3, 4783, Note_on_c, 2, 75, 0
3, 4786, Note_on_c, 2, 74, 80
3, 4798, Note_on_c, 2, 82, 80
3, 4837, Note_on_c, 2, 74, 0
3, 4860, Note_on_c, 2, 84, 80
3, 4861, Note_on_c, 2, 82, 0
3, 4912, Note_on_c, 2, 84, 0
3, 4912, Note_on_c, 2, 82, 80
3, 4917, Note_on_c, 2, 86, 80
3, 4971, Note_on_c, 2, 82, 0
3, 4972, Note_on_c, 2, 86, 0
3, 4972, Note_on_c, 2, 87, 80
3, 5031, Note_on_c, 2, 87, 0
3, 5032, Note_on_c, 2, 70, 80
3, 5033, Note_on_c, 2, 86, 80
3, 5090, Note_on_c, 2, 84, 80
3, 5093, Note_on_c, 2, 86, 0
3, 5111, Note_on_c, 2, 70, 0
3, 5149, Note_on_c, 2, 82, 80
3, 5153, Note_on_c, 2, 84, 0
3, 5153, Note_on_c, 2, 74, 80
3, 5205, Note_on_c, 2, 82, 0
3, 5207, Note_on_c, 2, 81, 80
3, 5220, Note_on_c, 2, 74, 0
3, 5258, Note_on_c, 2, 75, 80
3, 5262, Note_on_c, 2, 81, 0
3, 5270, Note_on_c, 2, 79, 80
3, 5324, Note_on_c, 2, 75, 0
3, 5327, Note_on_c, 2, 79, 0
3, 5335, Note_on_c, 2, 82, 80
3, 5384, Note_on_c, 2, 69, 80
3, 5394, Note_on_c, 2, 84, 80
3, 5396, Note_on_c, 2, 82, 0
3, 5453, Note_on_c, 2, 86, 80
3, 5463, Note_on_c, 2, 84, 0
3, 5497, Note_on_c, 2, 86, 0
3, 5509, Note_on_c, 2, 70, 80
3, 5511, Note_on_c, 2, 69, 0
3, 5518, Note_on_c, 2, 84, 80
3, 5577, Note_on_c, 2, 82, 80
3, 5583, Note_on_c, 2, 84, 0
3, 5587, Note_on_c, 2, 70, 0
3, 5630, Note_on_c, 2, 82, 0
3, 5633, Note_on_c, 2, 81, 80
3, 5635, Note_on_c, 2, 72, 80
3, 5685, Note_on_c, 2, 72, 0
3, 5695, Note_on_c, 2, 79, 80
3, 5698, Note_on_c, 2, 81, 0
3, 5753, Note_on_c, 2, 74, 80
3, 5756, Note_on_c, 2, 79, 0
3, 5764, Note_on_c, 2, 78, 80
3, 5816, Note_on_c, 2, 76, 80
3, 5821, Note_on_c, 2, 78, 0
3, 5823, Note_on_c, 2, 74, 0
3, 5873, Note_on_c, 2, 76, 0
3, 5874, Note_on_c, 2, 78, 80
3, 5882, Note_on_c, 2, 86, 80
3, 5932, Note_on_c, 2, 78, 0
3, 5934, Note_on_c, 2, 79, 80
3, 5947, Note_on_c, 2, 86, 0
3, 5992, Note_on_c, 2, 78, 80
3, 5996, Note_on_c, 2, 79, 0
3, 5998, Note_on_c, 2, 74, 80
3, 6051, Note_on_c, 2, 76, 80
3, 6052, Note_on_c, 2, 78, 0
3, 6099, Note_on_c, 2, 74, 0
3, 6108, Note_on_c, 2, 76, 0
3, 6112, Note_on_c, 2, 74, 80
3, 6115, Note_on_c, 2, 78, 80
3, 6166, Note_on_c, 2, 72, 80
3, 6171, Note_on_c, 2, 78, 0
3, 6173, Note_on_c, 2, 74, 0
3, 6225, Note_on_c, 2, 72, 0
3, 6227, Note_on_c, 2, 70, 80
3, 6231, Note_on_c, 2, 79, 80
3, 6285, Note_on_c, 2, 70, 0
3, 6287, Note_on_c, 2, 74, 80
3, 6316, Note_on_c, 2, 79, 0
3, 6345, Note_on_c, 2, 79, 80
3, 6345, Note_on_c, 2, 87, 80
3, 6347, Note_on_c, 2, 74, 0
3, 6347, Note_on_c, 2, 79, 80
3, 6401, Note_on_c, 2, 81, 80
3, 6403, Note_on_c, 2, 79, 0
3, 6404, Note_on_c, 2, 81, 80
3, 6409, Note_on_c, 2, 79, 0
3, 6418, Note_on_c, 2, 87, 0
3, 6426, Note_on_c, 2, 81, 0
3, 6449, Note_on_c, 2, 81, 0
3, 6462, Note_on_c, 2, 79, 80
3, 6466, Note_on_c, 2, 81, 80
3, 6469, Note_on_c, 2, 79, 80
3, 6521, Note_on_c, 2, 78, 80
3, 6524, Note_on_c, 2, 78, 80
3, 6525, Note_on_c, 2, 79, 0
3, 6530, Note_on_c, 2, 79, 0
3, 6545, Note_on_c, 2, 81, 0
3, 6579, Note_on_c, 2, 78, 0
3, 6580, Note_on_c, 2, 76, 80
3, 6585, Note_on_c, 2, 76, 80
3, 6586, Note_on_c, 2, 78, 0
3, 6586, Note_on_c, 2, 86, 80
3, 6642, Note_on_c, 2, 78, 80
3, 6645, Note_on_c, 2, 76, 0
3, 6646, Note_on_c, 2, 78, 80
3, 6647, Note_on_c, 2, 76, 0
3, 6651, Note_on_c, 2, 86, 0
3, 6668, Note_on_c, 2, 78, 0
3, 6704, Note_on_c, 2, 67, 80
3, 6708, Note_on_c, 2, 82, 80
3, 6710, Note_on_c, 2, 78, 0
3, 6712, Note_on_c, 2, 79, 80
3, 6764, Note_on_c, 2, 66, 80
3, 6766, Note_on_c, 2, 67, 0
3, 6775, Note_on_c, 2, 79, 0
3, 6818, Note_on_c, 2, 66, 0
3, 6821, Note_on_c, 2, 67, 80
3, 6827, Note_on_c, 2, 74, 80
3, 6876, Note_on_c, 2, 62, 80
3, 6882, Note_on_c, 2, 74, 0
3, 6883, Note_on_c, 2, 79, 80
3, 6887, Note_on_c, 2, 67, 0
3, 6919, Note_on_c, 2, 62, 0
3, 6934, Note_on_c, 2, 79, 0
3, 6943, Note_on_c, 2, 82, 0
3, 6943, Note_on_c, 2, 74, 80
3, 6947, Note_on_c, 2, 81, 80
3, 6948, Note_on_c, 2, 78, 80
3, 7003, Note_on_c, 2, 69, 80
3, 7010, Note_on_c, 2, 74, 0
3, 7030, Note_on_c, 2, 81, 0
3, 7050, Note_on_c, 2, 78, 0
3, 7059, Note_on_c, 2, 70, 80
3, 7061, Note_on_c, 2, 69, 0
3, 7066, Note_on_c, 2, 86, 80
3, 7068, Note_on_c, 2, 79, 80
3, 7113, Note_on_c, 2, 67, 80
3, 7121, Note_on_c, 2, 70, 0
3, 7135, Note_on_c, 2, 67, 0
3, 7143, Note_on_c, 2, 86, 0
3, 7155, Note_on_c, 2, 79, 0
3, 7177, Note_on_c, 2, 66, 80
3, 7185, Note_on_c, 2, 84, 80
3, 7186, Note_on_c, 2, 81, 80
3, 7239, Note_on_c, 2, 64, 80
3, 7242, Note_on_c, 2, 66, 0
3, 7292, Note_on_c, 2, 84, 0
3, 7299, Note_on_c, 2, 66, 80
3, 7301, Note_on_c, 2, 86, 80
3, 7302, Note_on_c, 2, 81, 0
3, 7303, Note_on_c, 2, 64, 0
3, 7356, Note_on_c, 2, 62, 80
3, 7357, Note_on_c, 2, 66, 0
3, 7397, Note_on_c, 2, 86, 0
3, 7401, Note_on_c, 2, 62, 0
3, 7412, Note_on_c, 2, 74, 80
3, 7417, Note_on_c, 2, 78, 80
3, 7471, Note_on_c, 2, 69, 80
3, 7476, Note_on_c, 2, 74, 0
3, 7493, Note_on_c, 2, 78, 0
3, 7530, Note_on_c, 2, 70, 80
3, 7531, Note_on_c, 2, 69, 0
3, 7531, Note_on_c, 2, 79, 80
3, 7532, Note_on_c, 2, 82, 80
3, 7583, Note_on_c, 2, 67, 80
3, 7586, Note_on_c, 2, 70, 0
3, 7600, Note_on_c, 2, 82, 0
3, 7604, Note_on_c, 2, 79, 0
3, 7640, Note_on_c, 2, 67, 0
3, 7649, Note_on_c, 2, 84, 80
3, 7651, Note_on_c, 2, 75, 80
3, 7651, Note_on_c, 2, 78, 80
3, 7705, Note_on_c, 2, 69, 80
3, 7708, Note_on_c, 2, 75, 0
3, 7766, Note_on_c, 2, 86, 80
3, 7769, Note_on_c, 2, 84, 0
3, 7769, Note_on_c, 2, 78, 0
3, 7771, Note_on_c, 2, 70, 80
3, 7772, Note_on_c, 2, 69, 0
3, 7821, Note_on_c, 2, 67, 80
3, 7825, Note_on_c, 2, 70, 0
3, 7826, Note_on_c, 2, 87, 80
3, 7827, Note_on_c, 2, 86, 0
3, 7869, Note_on_c, 2, 67, 0
3, 7878, Note_on_c, 2, 66, 80
3, 7884, Note_on_c, 2, 87, 0
3, 7886, Note_on_c, 2, 86, 80
3, 7931, Note_on_c, 2, 66, 0
3, 7935, Note_on_c, 2, 74, 80
3, 7937, Note_on_c, 2, 86, 0
3, 7944, Note_on_c, 2, 82, 80
3, 7977, Note_on_c, 2, 74, 0
3, 7993, Note_on_c, 2, 69, 80
3, 8008, Note_on_c, 2, 82, 0
3, 8009, Note_on_c, 2, 90, 80
3, 8014, Note_on_c, 2, 84, 80
3, 8050, Note_on_c, 2, 69, 0
3, 8053, Note_on_c, 2, 72, 80
3, 8066, Note_on_c, 2, 90, 0
3, 8069, Note_on_c, 2, 81, 80
3, 8072, Note_on_c, 2, 84, 0
3, 8085, Note_on_c, 2, 72, 0
3, 8116, Note_on_c, 2, 70, 80
3, 8117, Note_on_c, 2, 74, 80
3, 8121, Note_on_c, 2, 81, 0
3, 8134, Note_on_c, 2, 91, 80
3, 8167, Note_on_c, 2, 74, 0
3, 8208, Note_on_c, 2, 91, 0
3, 8208, Note_on_c, 2, 93, 80
3, 8239, Note_on_c, 2, 70, 0
3, 8244, Note_on_c, 2, 79, 80
3, 8266, Note_on_c, 2, 94, 80
3, 8269, Note_on_c, 2, 93, 0
3, 8323, Note_on_c, 2, 94, 0
3, 8326, Note_on_c, 2, 96, 80
3, 8340, Note_on_c, 2, 79, 0
3, 8373, Note_on_c, 2, 67, 80
3, 8385, Note_on_c, 2, 94, 80
3, 8388, Note_on_c, 2, 96, 0
3, 8440, Note_on_c, 2, 67, 0
3, 8449, Note_on_c, 2, 93, 80
3, 8450, Note_on_c, 2, 94, 0
3, 8502, Note_on_c, 2, 70, 80
3, 8503, Note_on_c, 2, 74, 80
3, 8506, Note_on_c, 2, 91, 80
3, 8507, Note_on_c, 2, 93, 0
3, 8564, Note_on_c, 2, 89, 80
3, 8566, Note_on_c, 2, 70, 0
3, 8567, Note_on_c, 2, 74, 0
3, 8574, Note_on_c, 2, 91, 0
3, 8588, Note_on_c, 2, 89, 0
3, 8623, Note_on_c, 2, 79, 80
3, 8625, Note_on_c, 2, 72, 80
3, 8631, Note_on_c, 2, 87, 80
3, 8690, Note_on_c, 2, 74, 80
3, 8691, Note_on_c, 2, 72, 0
3, 8716, Note_on_c, 2, 87, 0
3, 8746, Note_on_c, 2, 74, 0
3, 8748, Note_on_c, 2, 96, 80
3, 8748, Note_on_c, 2, 75, 80
3, 8798, Note_on_c, 2, 96, 0
3, 8802, Note_on_c, 2, 75, 0
3, 8804, Note_on_c, 2, 77, 80
3, 8841, Note_on_c, 2, 79, 0
3, 8863, Note_on_c, 2, 77, 0
3, 8864, Note_on_c, 2, 84, 80
3, 8864, Note_on_c, 2, 75, 80
3, 8918, Note_on_c, 2, 74, 80
3, 8919, Note_on_c, 2, 75, 0
3, 8920, Note_on_c, 2, 84, 0
3, 8976, Note_on_c, 2, 72, 80
3, 8977, Note_on_c, 2, 74, 0
3, 8985, Note_on_c, 2, 88, 80
3, 8986, Note_on_c, 2, 79, 80
3, 9029, Note_on_c, 2, 79, 0
3, 9033, Note_on_c, 2, 70, 80
3, 9034, Note_on_c, 2, 88, 0
3, 9036, Note_on_c, 2, 72, 0
3, 9063, Note_on_c, 2, 70, 0
3, 9099, Note_on_c, 2, 69, 80
3, 9106, Note_on_c, 2, 84, 80
3, 9107, Note_on_c, 2, 89, 80
3, 9171, Note_on_c, 2, 91, 80
3, 9177, Note_on_c, 2, 89, 0
3, 9190, Note_on_c, 2, 69, 0
3, 9225, Note_on_c, 2, 93, 80
3, 9228, Note_on_c, 2, 91, 0
3, 9229, Note_on_c, 2, 84, 0
3, 9231, Note_on_c, 2, 77, 80
3, 9281, Note_on_c, 2, 93, 0
3, 9282, Note_on_c, 2, 94, 80
3, 9297, Note_on_c, 2, 77, 0
3, 9342, Note_on_c, 2, 65, 80
3, 9344, Note_on_c, 2, 94, 0
3, 9345, Note_on_c, 2, 93, 80
3, 9408, Note_on_c, 2, 93, 0
3, 9409, Note_on_c, 2, 91, 80
3, 9422, Note_on_c, 2, 65, 0
3, 9465, Note_on_c, 2, 72, 80
3, 9466, Note_on_c, 2, 69, 80
3, 9468, Note_on_c, 2, 89, 80
3, 9469, Note_on_c, 2, 91, 0
3, 9522, Note_on_c, 2, 69, 0
3, 9526, Note_on_c, 2, 89, 0
3, 9529, Note_on_c, 2, 87, 80
3, 9557, Note_on_c, 2, 72, 0
3, 9590, Note_on_c, 2, 70, 80
3, 9590, Note_on_c, 2, 77, 80
3, 9595, Note_on_c, 2, 87, 0
3, 9596, Note_on_c, 2, 86, 80
3, 9646, Note_on_c, 2, 70, 0
3, 9650, Note_on_c, 2, 72, 80
3, 9681, Note_on_c, 2, 86, 0
3, 9699, Note_on_c, 2, 77, 0
3, 9712, Note_on_c, 2, 74, 80
3, 9713, Note_on_c, 2, 72, 0
3, 9714, Note_on_c, 2, 94, 80
3, 9769, Note_on_c, 2, 75, 80
3, 9771, Note_on_c, 2, 74, 0
3, 9794, Note_on_c, 2, 94, 0
3, 9823, Note_on_c, 2, 75, 0
3, 9828, Note_on_c, 2, 74, 80
3, 9830, Note_on_c, 2, 82, 80
3, 9886, Note_on_c, 2, 72, 80
3, 9889, Note_on_c, 2, 74, 0
3, 9901, Note_on_c, 2, 82, 0
3, 9944, Note_on_c, 2, 70, 80
3, 9947, Note_on_c, 2, 72, 0
3, 9948, Note_on_c, 2, 77, 80
3, 9949, Note_on_c, 2, 86, 80
3, 9999, Note_on_c, 2, 77, 0
3, 10001, Note_on_c, 2, 86, 0
3, 10005, Note_on_c, 2, 68, 80
3, 10012, Note_on_c, 2, 70, 0
3, 10060, Note_on_c, 2, 68, 0
3, 10069, Note_on_c, 2, 67, 80
3, 10072, Note_on_c, 2, 87, 80
3, 10073, Note_on_c, 2, 82, 80
3, 10124, Note_on_c, 2, 67, 0
3, 10133, Note_on_c, 2, 70, 80
3, 10189, Note_on_c, 2, 70, 0
3, 10191, Note_on_c, 2, 72, 80
3, 10193, Note_on_c, 2, 87, 0
3, 10199, Note_on_c, 2, 91, 80
3, 10203, Note_on_c, 2, 82, 0
3, 10251, Note_on_c, 2, 91, 0
3, 10254, Note_on_c, 2, 74, 80
3, 10256, Note_on_c, 2, 72, 0
3, 10317, Note_on_c, 2, 74, 0
3, 10317, Note_on_c, 2, 72, 80
3, 10320, Note_on_c, 2, 84, 80
3, 10386, Note_on_c, 2, 70, 80
3, 10396, Note_on_c, 2, 84, 0
3, 10404, Note_on_c, 2, 72, 0
3, 10431, Note_on_c, 2, 69, 80
3, 10433, Note_on_c, 2, 70, 0
3, 10435, Note_on_c, 2, 88, 80
3, 10436, Note_on_c, 2, 82, 80
3, 10480, Note_on_c, 2, 88, 0
3, 10487, Note_on_c, 2, 82, 0
3, 10489, Note_on_c, 2, 67, 80
3, 10495, Note_on_c, 2, 69, 0
3, 10542, Note_on_c, 2, 67, 0
3, 10545, Note_on_c, 2, 69, 80
3, 10558, Note_on_c, 2, 84, 80
3, 10559, Note_on_c, 2, 89, 80
3, 10588, Note_on_c, 2, 69, 0
3, 10609, Note_on_c, 2, 72, 80
3, 10670, Note_on_c, 2, 74, 80
3, 10671, Note_on_c, 2, 72, 0
3, 10680, Note_on_c, 2, 89, 0
3, 10680, Note_on_c, 2, 93, 80
3, 10690, Note_on_c, 2, 84, 0
3, 10728, Note_on_c, 2, 75, 80
3, 10734, Note_on_c, 2, 74, 0
3, 10746, Note_on_c, 2, 93, 0
3, 10789, Note_on_c, 2, 74, 80
3, 10790, Note_on_c, 2, 75, 0
3, 10795, Note_on_c, 2, 86, 80
3, 10847, Note_on_c, 2, 72, 80
3, 10853, Note_on_c, 2, 74, 0
3, 10864, Note_on_c, 2, 86, 0
3, 10905, Note_on_c, 2, 70, 80
3, 10906, Note_on_c, 2, 72, 0
3, 10915, Note_on_c, 2, 90, 80
3, 10964, Note_on_c, 2, 69, 80
3, 10968, Note_on_c, 2, 70, 0
3, 10972, Note_on_c, 2, 90, 0
3, 10988, Note_on_c, 2, 69, 0
3, 11032, Note_on_c, 2, 70, 80
3, 11045, Note_on_c, 2, 91, 80
3, 11046, Note_on_c, 2, 86, 80
3, 11097, Note_on_c, 2, 69, 80
3, 11104, Note_on_c, 2, 70, 0
3, 11106, Note_on_c, 2, 84, 80
3, 11108, Note_on_c, 2, 86, 0
3, 11162, Note_on_c, 2, 67, 80
3, 11165, Note_on_c, 2, 69, 0
3, 11167, Note_on_c, 2, 86, 80
3, 11171, Note_on_c, 2, 84, 0
3, 11178, Note_on_c, 2, 91, 0
3, 11218, Note_on_c, 2, 69, 80
3, 11225, Note_on_c, 2, 79, 80
3, 11229, Note_on_c, 2, 86, 0
3, 11236, Note_on_c, 2, 67, 0
3, 11277, Note_on_c, 2, 70, 80
3, 11278, Note_on_c, 2, 69, 0
3, 11280, Note_on_c, 2, 79, 0
3, 11285, Note_on_c, 2, 91, 80
3, 11335, Note_on_c, 2, 70, 0
3, 11337, Note_on_c, 2, 74, 80
3, 11343, Note_on_c, 2, 86, 80
3, 11349, Note_on_c, 2, 91, 0
3, 11390, Note_on_c, 2, 72, 80
3, 11397, Note_on_c, 2, 86, 0
3, 11398, Note_on_c, 2, 74, 0
3, 11399, Note_on_c, 2, 87, 80
3, 11447, Note_on_c, 2, 75, 80
3, 11455, Note_on_c, 2, 87, 0
3, 11456, Note_on_c, 2, 72, 0
3, 11456, Note_on_c, 2, 84, 80
3, 11486, Note_on_c, 2, 75, 0
3, 11494, Note_on_c, 2, 84, 0
3, 11509, Note_on_c, 2, 74, 80
3, 11514, Note_on_c, 2, 86, 80
3, 11515, Note_on_c, 2, 82, 80
3, 11571, Note_on_c, 2, 82, 0
3, 11575, Note_on_c, 2, 81, 80
3, 11576, Note_on_c, 2, 86, 0
3, 11576, Note_on_c, 2, 84, 80
3, 11610, Note_on_c, 2, 84, 0
3, 11631, Note_on_c, 2, 82, 80
3, 11632, Note_on_c, 2, 86, 80
3, 11636, Note_on_c, 2, 81, 0
3, 11665, Note_on_c, 2, 86, 0
3, 11685, Note_on_c, 2, 79, 80
3, 11687, Note_on_c, 2, 82, 0
3, 11688, Note_on_c, 2, 87, 80
3, 11732, Note_on_c, 2, 79, 0
3, 11734, Note_on_c, 2, 87, 0
3, 11755, Note_on_c, 2, 86, 80
3, 11767, Note_on_c, 2, 81, 80
3, 11776, Note_on_c, 2, 74, 0
3, 11809, Note_on_c, 2, 82, 80
3, 11818, Note_on_c, 2, 86, 0
3, 11837, Note_on_c, 2, 82, 0
3, 11861, Note_on_c, 2, 81, 0
3, 11868, Note_on_c, 2, 74, 80
3, 11869, Note_on_c, 2, 74, 80
3, 11869, Note_on_c, 2, 84, 80
3, 11926, Note_on_c, 2, 84, 0
3, 11927, Note_on_c, 2, 81, 80
3, 11950, Note_on_c, 2, 81, 0
3, 11976, Note_on_c, 2, 74, 0
3, 11990, Note_on_c, 2, 74, 0
3, 11991, Note_on_c, 2, 79, 80
3, 12050, Note_on_c, 2, 78, 80
3, 12052, Note_on_c, 2, 79, 0
3, 12105, Note_on_c, 2, 67, 80
3, 12107, Note_on_c, 2, 78, 0
3, 12107, Note_on_c, 2, 79, 80
3, 12108, Note_on_c, 2, 82, 80
3, 12161, Note_on_c, 2, 74, 80
3, 12167, Note_on_c, 2, 79, 0
3, 12168, Note_on_c, 2, 82, 0
3, 12207, Note_on_c, 2, 67, 0
3, 12220, Note_on_c, 2, 84, 80
3, 12221, Note_on_c, 2, 66, 80
3, 12222, Note_on_c, 2, 86, 80
3, 12225, Note_on_c, 2, 74, 0
3, 12278, Note_on_c, 2, 84, 0
3, 12280, Note_on_c, 2, 81, 80
3, 12281, Note_on_c, 2, 86, 0
3, 12317, Note_on_c, 2, 66, 0
3, 12334, Note_on_c, 2, 67, 80
3, 12338, Note_on_c, 2, 87, 80
3, 12339, Note_on_c, 2, 81, 0
3, 12340, Note_on_c, 2, 82, 80
3, 12395, Note_on_c, 2, 79, 80
3, 12399, Note_on_c, 2, 82, 0
3, 12413, Note_on_c, 2, 67, 0
3, 12416, Note_on_c, 2, 87, 0
3, 12434, Note_on_c, 2, 79, 0
3, 12448, Note_on_c, 2, 86, 80
3, 12449, Note_on_c, 2, 78, 80
3, 12450, Note_on_c, 2, 72, 80
3, 12508, Note_on_c, 2, 78, 0
3, 12509, Note_on_c, 2, 81, 80
3, 12565, Note_on_c, 2, 72, 0
3, 12565, Note_on_c, 2, 74, 80
3, 12568, Note_on_c, 2, 81, 0
3, 12571, Note_on_c, 2, 82, 80
3, 12622, Note_on_c, 2, 74, 0
3, 12624, Note_on_c, 2, 75, 80
3, 12630, Note_on_c, 2, 79, 80
3, 12631, Note_on_c, 2, 82, 0
3, 12639, Note_on_c, 2, 86, 0
3, 12682, Note_on_c, 2, 74, 80
3, 12683, Note_on_c, 2, 75, 0
3, 12686, Note_on_c, 2, 79, 0
3, 12686, Note_on_c, 2, 78, 80
3, 12739, Note_on_c, 2, 70, 80
3, 12745, Note_on_c, 2, 74, 0
3, 12749, Note_on_c, 2, 86, 80
3, 12750, Note_on_c, 2, 78, 0
3, 12796, Note_on_c, 2, 86, 0
3, 12797, Note_on_c, 2, 70, 0
3, 12799, Note_on_c, 2, 72, 80
3, 12807, Note_on_c, 2, 81, 80
3, 12852, Note_on_c, 2, 81, 0
3, 12856, Note_on_c, 2, 69, 80
3, 12862, Note_on_c, 2, 72, 0
3, 12865, Note_on_c, 2, 84, 80
3, 12896, Note_on_c, 2, 69, 0
3, 12896, Note_on_c, 2, 84, 0
3, 12917, Note_on_c, 2, 70, 80
3, 12925, Note_on_c, 2, 86, 80
3, 12925, Note_on_c, 2, 82, 80
3, 12977, Note_on_c, 2, 69, 80
3, 12981, Note_on_c, 2, 70, 0
3, 12991, Note_on_c, 2, 86, 0
3, 12992, Note_on_c, 2, 84, 80
3, 13015, Note_on_c, 2, 82, 0
3, 13043, Note_on_c, 2, 67, 80
3, 13046, Note_on_c, 2, 84, 0
3, 13050, Note_on_c, 2, 69, 0
3, 13054, Note_on_c, 2, 86, 80
3, 13083, Note_on_c, 2, 86, 0
3, 13098, Note_on_c, 2, 69, 80
3, 13103, Note_on_c, 2, 67, 0
3, 13112, Note_on_c, 2, 79, 80
3, 13146, Note_on_c, 2, 79, 0
3, 13157, Note_on_c, 2, 69, 0
3, 13164, Note_on_c, 2, 71, 80
3, 13167, Note_on_c, 2, 91, 80
3, 13235, Note_on_c, 2, 86, 80
3, 13248, Note_on_c, 2, 91, 0
3, 13271, Note_on_c, 2, 71, 0
3, 13283, Note_on_c, 2, 72, 80
3, 13291, Note_on_c, 2, 86, 0
3, 13292, Note_on_c, 2, 87, 80
3, 13353, Note_on_c, 2, 87, 0
3, 13359, Note_on_c, 2, 84, 80
3, 13366, Note_on_c, 2, 72, 0
3, 13398, Note_on_c, 2, 84, 0
3, 13406, Note_on_c, 2, 74, 80
3, 13425, Note_on_c, 2, 83, 80
3, 13489, Note_on_c, 2, 81, 80
3, 13492, Note_on_c, 2, 83, 0
3, 13522, Note_on_c, 2, 74, 0
3, 13547, Note_on_c, 2, 79, 80
3, 13551, Note_on_c, 2, 83, 80
3, 13553, Note_on_c, 2, 81, 0
3, 13604, Note_on_c, 2, 83, 0
3, 13607, Note_on_c, 2, 79, 80
3, 13620, Note_on_c, 2, 79, 0
3, 13649, Note_on_c, 2, 79, 0
3, 13666, Note_on_c, 2, 71, 80
3, 13669, Note_on_c, 2, 91, 80
3, 13733, Note_on_c, 2, 86, 80
3, 13735, Note_on_c, 2, 91, 0
3, 13759, Note_on_c, 2, 71, 0
3, 13787, Note_on_c, 2, 87, 80
3, 13791, Note_on_c, 2, 72, 80
3, 13795, Note_on_c, 2, 86, 0
3, 13834, Note_on_c, 2, 72, 0
3, 13843, Note_on_c, 2, 87, 0
3, 13846, Note_on_c, 2, 84, 80
3, 13893, Note_on_c, 2, 84, 0
3, 13908, Note_on_c, 2, 77, 80
3, 13918, Note_on_c, 2, 92, 80
3, 13982, Note_on_c, 2, 86, 80
3, 13988, Note_on_c, 2, 92, 0
3, 14030, Note_on_c, 2, 79, 80
3, 14032, Note_on_c, 2, 77, 0
3, 14037, Note_on_c, 2, 87, 80
3, 14039, Note_on_c, 2, 86, 0
3, 14091, Note_on_c, 2, 80, 80
3, 14094, Note_on_c, 2, 79, 0
3, 14094, Note_on_c, 2, 87, 0
3, 14094, Note_on_c, 2, 84, 80
3, 14136, Note_on_c, 2, 84, 0
3, 14148, Note_on_c, 2, 79, 80
3, 14150, Note_on_c, 2, 80, 0
3, 14159, Note_on_c, 2, 83, 80
3, 14211, Note_on_c, 2, 75, 80
3, 14215, Note_on_c, 2, 91, 80
3, 14217, Note_on_c, 2, 79, 0
3, 14219, Note_on_c, 2, 83, 0
3, 14267, Note_on_c, 2, 75, 0
3, 14269, Note_on_c, 2, 77, 80
3, 14273, Note_on_c, 2, 86, 80
3, 14277, Note_on_c, 2, 91, 0
3, 14327, Note_on_c, 2, 74, 80
3, 14333, Note_on_c, 2, 77, 0
3, 14334, Note_on_c, 2, 89, 80
3, 14335, Note_on_c, 2, 86, 0
3, 14347, Note_on_c, 2, 74, 0
3, 14392, Note_on_c, 2, 72, 80
3, 14393, Note_on_c, 2, 87, 80
3, 14394, Note_on_c, 2, 89, 0
3, 14452, Note_on_c, 2, 83, 80
3, 14454, Note_on_c, 2, 72, 0
3, 14507, Note_on_c, 2, 83, 0
3, 14508, Note_on_c, 2, 84, 80
3, 14512, Note_on_c, 2, 67, 80
3, 14566, Note_on_c, 2, 86, 80
3, 14568, Note_on_c, 2, 84, 0
3, 14611, Note_on_c, 2, 67, 0
3, 14622, Note_on_c, 2, 60, 80
3, 14624, Note_on_c, 2, 84, 80
3, 14629, Note_on_c, 2, 86, 0
3, 14672, Note_on_c, 2, 60, 0
3, 14687, Note_on_c, 2, 82, 80
3, 14692, Note_on_c, 2, 84, 0
3, 14738, Note_on_c, 2, 63, 80
3, 14750, Note_on_c, 2, 81, 80
3, 14752, Note_on_c, 2, 82, 0
3, 14792, Note_on_c, 2, 63, 0
3, 14808, Note_on_c, 2, 79, 80
3, 14810, Note_on_c, 2, 81, 0
3, 14860, Note_on_c, 2, 65, 80
3, 14862, Note_on_c, 2, 79, 0
3, 14870, Note_on_c, 2, 81, 80
3, 14919, Note_on_c, 2, 87, 0
3, 14924, Note_on_c, 2, 63, 80
3, 14929, Note_on_c, 2, 65, 0
3, 14933, Note_on_c, 2, 81, 0
3, 14958, Note_on_c, 2, 63, 0
3, 14981, Note_on_c, 2, 65, 80
3, 14988, Note_on_c, 2, 81, 80
3, 14989, Note_on_c, 2, 84, 80
3, 15041, Note_on_c, 2, 81, 0
3, 15041, Note_on_c, 2, 84, 0
3, 15042, Note_on_c, 2, 67, 80
3, 15044, Note_on_c, 2, 65, 0
3, 15099, Note_on_c, 2, 65, 80
3, 15101, Note_on_c, 2, 67, 0
3, 15105, Note_on_c, 2, 77, 80
3, 15107, Note_on_c, 2, 81, 80
3, 15157, Note_on_c, 2, 63, 80
3, 15160, Note_on_c, 2, 65, 0
3, 15200, Note_on_c, 2, 81, 0
3, 15212, Note_on_c, 2, 63, 0
3, 15214, Note_on_c, 2, 62, 80
3, 15221, Note_on_c, 2, 77, 0
3, 15225, Note_on_c, 2, 81, 80
3, 15226, Note_on_c, 2, 84, 80
3, 15274, Note_on_c, 2, 84, 0
3, 15275, Note_on_c, 2, 60, 80
3, 15279, Note_on_c, 2, 62, 0
3, 15284, Note_on_c, 2, 81, 0
3, 15329, Note_on_c, 2, 60, 0
3, 15343, Note_on_c, 2, 82, 80
3, 15343, Note_on_c, 2, 58, 80
3, 15345, Note_on_c, 2, 86, 80
3, 15410, Note_on_c, 2, 58, 0
3, 15411, Note_on_c, 2, 81, 80
3, 15414, Note_on_c, 2, 82, 0
3, 15467, Note_on_c, 2, 82, 80
3, 15468, Note_on_c, 2, 81, 0
3, 15472, Note_on_c, 2, 70, 80
3, 15524, Note_on_c, 2, 84, 80
3, 15525, Note_on_c, 2, 82, 0
3, 15528, Note_on_c, 2, 70, 0
3, 15584, Note_on_c, 2, 82, 80
3, 15585, Note_on_c, 2, 58, 80
3, 15587, Note_on_c, 2, 84, 0
3, 15649, Note_on_c, 2, 81, 80
3, 15651, Note_on_c, 2, 58, 0
3, 15653, Note_on_c, 2, 82, 0
3, 15705, Note_on_c, 2, 79, 80
3, 15706, Note_on_c, 2, 62, 80
3, 15707, Note_on_c, 2, 81, 0
3, 15758, Note_on_c, 2, 79, 0
3, 15760, Note_on_c, 2, 78, 80
3, 15761, Note_on_c, 2, 62, 0
3, 15821, Note_on_c, 2, 63, 80
3, 15822, Note_on_c, 2, 78, 0
3, 15827, Note_on_c, 2, 79, 80
3, 15885, Note_on_c, 2, 62, 80
3, 15887, Note_on_c, 2, 63, 0
3, 15892, Note_on_c, 2, 79, 0
3, 15900, Note_on_c, 2, 86, 0
3, 15939, Note_on_c, 2, 79, 80
3, 15940, Note_on_c, 2, 62, 0
3, 15941, Note_on_c, 2, 82, 80
3, 15944, Note_on_c, 2, 63, 80
3, 15997, Note_on_c, 2, 65, 80
3, 15998, Note_on_c, 2, 63, 0
3, 16029, Note_on_c, 2, 79, 0
3, 16047, Note_on_c, 2, 82, 0
3, 16057, Note_on_c, 2, 79, 80
3, 16057, Note_on_c, 2, 63, 80
3, 16058, Note_on_c, 2, 65, 0
3, 16058, Note_on_c, 2, 75, 80
3, 16112, Note_on_c, 2, 62, 80
3, 16113, Note_on_c, 2, 75, 0
3, 16114, Note_on_c, 2, 63, 0
3, 16116, Note_on_c, 2, 79, 0
3, 16172, Note_on_c, 2, 60, 80
3, 16175, Note_on_c, 2, 62, 0
3, 16175, Note_on_c, 2, 82, 80
3, 16176, Note_on_c, 2, 79, 80
3, 16230, Note_on_c, 2, 58, 80
3, 16234, Note_on_c, 2, 82, 0
3, 16235, Note_on_c, 2, 60, 0
3, 16289, Note_on_c, 2, 58, 0
3, 16291, Note_on_c, 2, 57, 80
3, 16299, Note_on_c, 2, 84, 80
3, 16354, Note_on_c, 2, 55, 80
3, 16357, Note_on_c, 2, 57, 0
3, 16416, Note_on_c, 2, 57, 80
3, 16418, Note_on_c, 2, 78, 80
3, 16423, Note_on_c, 2, 55, 0
3, 16431, Note_on_c, 2, 79, 0
3, 16473, Note_on_c, 2, 58, 80
3, 16475, Note_on_c, 2, 57, 0
3, 16479, Note_on_c, 2, 76, 80
3, 16480, Note_on_c, 2, 78, 0
3, 16531, Note_on_c, 2, 58, 0
3, 16532, Note_on_c, 2, 57, 80
3, 16542, Note_on_c, 2, 78, 80
3, 16555, Note_on_c, 2, 76, 0
3, 16595, Note_on_c, 2, 55, 80
3, 16599, Note_on_c, 2, 57, 0
3, 16654, Note_on_c, 2, 54, 80
3, 16659, Note_on_c, 2, 55, 0
3, 16664, Note_on_c, 2, 78, 0
3, 16665, Note_on_c, 2, 79, 80
3, 16712, Note_on_c, 2, 52, 80
3, 16717, Note_on_c, 2, 54, 0
3, 16745, Note_on_c, 2, 79, 0
3, 16773, Note_on_c, 2, 52, 0
3, 16777, Note_on_c, 2, 54, 80
3, 16798, Note_on_c, 2, 81, 80
3, 16828, Note_on_c, 2, 54, 0
3, 16856, Note_on_c, 2, 79, 80
3, 16863, Note_on_c, 2, 81, 0
3, 16909, Note_on_c, 2, 62, 80
3, 16919, Note_on_c, 2, 78, 80
3, 16929, Note_on_c, 2, 79, 0
3, 16977, Note_on_c, 2, 62, 0
3, 16979, Note_on_c, 2, 76, 80
3, 16980, Note_on_c, 2, 78, 0
3, 17036, Note_on_c, 2, 74, 80
3, 17037, Note_on_c, 2, 66, 80
3, 17045, Note_on_c, 2, 76, 0
3, 17096, Note_on_c, 2, 81, 80
3, 17098, Note_on_c, 2, 84, 0
3, 17111, Note_on_c, 2, 66, 0
3, 17153, Note_on_c, 2, 62, 80
3, 17156, Note_on_c, 2, 82, 80
3, 17163, Note_on_c, 2, 81, 0
3, 17216, Note_on_c, 2, 82, 0
3, 17219, Note_on_c, 2, 84, 80
3, 17268, Note_on_c, 2, 62, 0
3, 17269, Note_on_c, 2, 67, 80
3, 17275, Note_on_c, 2, 82, 80
3, 17282, Note_on_c, 2, 84, 0
3, 17331, Note_on_c, 2, 72, 80
3, 17332, Note_on_c, 2, 81, 80
3, 17335, Note_on_c, 2, 72, 80
3, 17336, Note_on_c, 2, 82, 0
3, 17337, Note_on_c, 2, 74, 0
3, 17386, Note_on_c, 2, 72, 0
3, 17386, Note_on_c, 2, 70, 80
3, 17391, Note_on_c, 2, 79, 80
3, 17392, Note_on_c, 2, 70, 80
3, 17393, Note_on_c, 2, 81, 0
3, 17395, Note_on_c, 2, 72, 0
3, 17444, Note_on_c, 2, 69, 80
3, 17446, Note_on_c, 2, 70, 0
3, 17449, Note_on_c, 2, 79, 0
3, 17451, Note_on_c, 2, 70, 0
3, 17451, Note_on_c, 2, 69, 80
3, 17452, Note_on_c, 2, 78, 80
3, 17506, Note_on_c, 2, 70, 80
3, 17507, Note_on_c, 2, 70, 80
3, 17508, Note_on_c, 2, 78, 0
3, 17509, Note_on_c, 2, 79, 80
3, 17510, Note_on_c, 2, 69, 0
3, 17513, Note_on_c, 2, 69, 0
3, 17552, Note_on_c, 2, 70, 0
3, 17572, Note_on_c, 2, 79, 0
3, 17573, Note_on_c, 2, 74, 80
3, 17621, Note_on_c, 2, 71, 80
3, 17629, Note_on_c, 2, 71, 80
3, 17630, Note_on_c, 2, 75, 80
3, 17633, Note_on_c, 2, 74, 0
3, 17646, Note_on_c, 2, 70, 0
3, 17694, Note_on_c, 2, 77, 80
3, 17695, Note_on_c, 2, 75, 0
3, 17756, Note_on_c, 2, 75, 80
3, 17757, Note_on_c, 2, 77, 0
3, 17770, Note_on_c, 2, 71, 0
3, 17780, Note_on_c, 2, 71, 0
3, 17812, Note_on_c, 2, 74, 80
3, 17818, Note_on_c, 2, 74, 80
3, 17869, Note_on_c, 2, 72, 80
3, 17870, Note_on_c, 2, 72, 80
3, 17874, Note_on_c, 2, 74, 0
3, 17875, Note_on_c, 2, 74, 0
3, 17921, Note_on_c, 2, 71, 80
3, 17922, Note_on_c, 2, 72, 0
3, 17930, Note_on_c, 2, 71, 80
3, 17935, Note_on_c, 2, 72, 0
3, 17980, Note_on_c, 2, 71, 0
3, 17982, Note_on_c, 2, 72, 80
3, 17988, Note_on_c, 2, 71, 0
3, 17991, Note_on_c, 2, 72, 80
3, 18047, Note_on_c, 2, 75, 0
3, 18047, Note_on_c, 2, 79, 80
3, 18097, Note_on_c, 2, 67, 0
3, 18109, Note_on_c, 2, 77, 80
3, 18110, Note_on_c, 2, 79, 0
3, 18166, Note_on_c, 2, 75, 80
3, 18168, Note_on_c, 2, 77, 0
3, 18227, Note_on_c, 2, 75, 0
3, 18227, Note_on_c, 2, 67, 80
3, 18229, Note_on_c, 2, 74, 80
3, 18248, Note_on_c, 2, 72, 0
3, 18286, Note_on_c, 2, 67, 0
3, 18288, Note_on_c, 2, 66, 80
3, 18339, Note_on_c, 2, 66, 0
3, 18343, Note_on_c, 2, 76, 80
3, 18343, Note_on_c, 2, 67, 80
3, 18344, Note_on_c, 2, 70, 80
3, 18346, Note_on_c, 2, 70, 80
3, 18352, Note_on_c, 2, 72, 0
3, 18352, Note_on_c, 2, 74, 0
3, 18395, Note_on_c, 2, 67, 0
3, 18395, Note_on_c, 2, 62, 80
3, 18396, Note_on_c, 2, 70, 0
3, 18397, Note_on_c, 2, 69, 80
3, 18399, Note_on_c, 2, 69, 80
3, 18401, Note_on_c, 2, 70, 0
3, 18403, Note_on_c, 2, 78, 80
3, 18411, Note_on_c, 2, 76, 0
3, 18450, Note_on_c, 2, 62, 0
3, 18458, Note_on_c, 2, 67, 80
3, 18459, Note_on_c, 2, 69, 0
3, 18462, Note_on_c, 2, 74, 80
3, 18465, Note_on_c, 2, 79, 80
3, 18470, Note_on_c, 2, 78, 0
3, 18477, Note_on_c, 2, 69, 0
3, 18513, Note_on_c, 2, 74, 0
3, 18519, Note_on_c, 2, 69, 80
3, 18569, Note_on_c, 2, 67, 0
3, 18572, Note_on_c, 2, 70, 80
3, 18577, Note_on_c, 2, 69, 0
3, 18631, Note_on_c, 2, 70, 0
3, 18632, Note_on_c, 2, 67, 80
3, 18694, Note_on_c, 2, 67, 0
3, 18705, Note_on_c, 2, 75, 80
3, 18768, Note_on_c, 2, 75, 0
3, 18770, Note_on_c, 2, 72, 80
3, 18772, Note_on_c, 2, 81, 80
3, 18777, Note_on_c, 2, 79, 0
3, 18816, Note_on_c, 2, 72, 0
3, 18825, Note_on_c, 2, 74, 80
3, 18835, Note_on_c, 2, 82, 80
3, 18837, Note_on_c, 2, 81, 0
3, 18881, Note_on_c, 2, 74, 0
3, 18892, Note_on_c, 2, 82, 0
3, 18892, Note_on_c, 2, 81, 80
3, 18895, Note_on_c, 2, 75, 80
3, 18946, Note_on_c, 2, 75, 0
3, 18948, Note_on_c, 2, 74, 80
3, 18951, Note_on_c, 2, 82, 80
3, 18955, Note_on_c, 2, 81, 0
3, 19008, Note_on_c, 2, 72, 80
3, 19011, Note_on_c, 2, 84, 80
3, 19015, Note_on_c, 2, 74, 0
3, 19017, Note_on_c, 2, 82, 0
3, 19067, Note_on_c, 2, 84, 0
3, 19069, Note_on_c, 2, 70, 80
3, 19070, Note_on_c, 2, 72, 0
3, 19071, Note_on_c, 2, 86, 80
3, 19122, Note_on_c, 2, 82, 80
3, 19123, Note_on_c, 2, 86, 0
3, 19124, Note_on_c, 2, 70, 0
3, 19125, Note_on_c, 2, 69, 80
3, 19176, Note_on_c, 2, 82, 0
3, 19180, Note_on_c, 2, 67, 80
3, 19183, Note_on_c, 2, 69, 0
3, 19184, Note_on_c, 2, 79, 80
3, 19186, Note_on_c, 2, 87, 80
3, 19237, Note_on_c, 2, 79, 0
3, 19238, Note_on_c, 2, 72, 80
3, 19247, Note_on_c, 2, 87, 0
3, 19247, Note_on_c, 2, 91, 80
3, 19296, Note_on_c, 2, 72, 0
3, 19302, Note_on_c, 2, 74, 80
3, 19307, Note_on_c, 2, 89, 80
3, 19313, Note_on_c, 2, 91, 0
3, 19333, Note_on_c, 2, 67, 0
3, 19355, Note_on_c, 2, 70, 80
3, 19357, Note_on_c, 2, 74, 0
3, 19363, Note_on_c, 2, 87, 80
3, 19368, Note_on_c, 2, 89, 0
3, 19389, Note_on_c, 2, 70, 0
3, 19413, Note_on_c, 2, 65, 80
3, 19417, Note_on_c, 2, 69, 80
3, 19426, Note_on_c, 2, 87, 0
3, 19426, Note_on_c, 2, 86, 80
3, 19473, Note_on_c, 2, 77, 80
3, 19477, Note_on_c, 2, 69, 0
3, 19488, Note_on_c, 2, 84, 80
3, 19490, Note_on_c, 2, 86, 0
3, 19500, Note_on_c, 2, 77, 0
3, 19540, Note_on_c, 2, 72, 80
3, 19546, Note_on_c, 2, 82, 80
3, 19551, Note_on_c, 2, 84, 0
3, 19595, Note_on_c, 2, 75, 80
3, 19599, Note_on_c, 2, 72, 0
3, 19599, Note_on_c, 2, 81, 80
3, 19603, Note_on_c, 2, 82, 0
3, 19620, Note_on_c, 2, 75, 0
3, 19621, Note_on_c, 2, 81, 0
3, 19661, Note_on_c, 2, 74, 80
3, 19670, Note_on_c, 2, 82, 80
3, 19731, Note_on_c, 2, 81, 80
3, 19732, Note_on_c, 2, 82, 0
3, 19734, Note_on_c, 2, 65, 0
3, 19785, Note_on_c, 2, 70, 80
3, 19792, Note_on_c, 2, 82, 80
3, 19798, Note_on_c, 2, 81, 0
3, 19847, Note_on_c, 2, 82, 0
3, 19850, Note_on_c, 2, 77, 80
3, 19876, Note_on_c, 2, 77, 0
3, 19877, Note_on_c, 2, 70, 0
3, 19885, Note_on_c, 2, 74, 0
3, 19900, Note_on_c, 2, 69, 80
3, 19902, Note_on_c, 2, 75, 80
3, 19908, Note_on_c, 2, 89, 80
3, 19969, Note_on_c, 2, 84, 80
3, 19971, Note_on_c, 2, 89, 0
3, 20011, Note_on_c, 2, 75, 0
3, 20020, Note_on_c, 2, 74, 80
3, 20021, Note_on_c, 2, 69, 0
3, 20022, Note_on_c, 2, 70, 80
3, 20030, Note_on_c, 2, 86, 80
3, 20031, Note_on_c, 2, 84, 0
3, 20089, Note_on_c, 2, 82, 80
3, 20094, Note_on_c, 2, 86, 0
3, 20098, Note_on_c, 2, 74, 0
3, 20110, Note_on_c, 2, 82, 0
3, 20134, Note_on_c, 2, 70, 0
3, 20138, Note_on_c, 2, 75, 80
3, 20139, Note_on_c, 2, 72, 80
3, 20159, Note_on_c, 2, 81, 80
3, 20218, Note_on_c, 2, 79, 80
3, 20220, Note_on_c, 2, 81, 0
3, 20230, Note_on_c, 2, 72, 0
3, 20260, Note_on_c, 2, 77, 80
3, 20276, Note_on_c, 2, 81, 80
3, 20281, Note_on_c, 2, 79, 0
3, 20327, Note_on_c, 2, 81, 0
3, 20330, Note_on_c, 2, 77, 80
3, 20348, Note_on_c, 2, 77, 0
3, 20355, Note_on_c, 2, 77, 0
3, 20382, Note_on_c, 2, 69, 80
3, 20395, Note_on_c, 2, 89, 80
3, 20457, Note_on_c, 2, 84, 80
3, 20463, Note_on_c, 2, 89, 0
3, 20510, Note_on_c, 2, 75, 0
3, 20510, Note_on_c, 2, 69, 0
3, 20511, Note_on_c, 2, 84, 0
3, 20512, Note_on_c, 2, 74, 80
3, 20513, Note_on_c, 2, 70, 80
3, 20515, Note_on_c, 2, 86, 80
3, 20569, Note_on_c, 2, 86, 0
3, 20572, Note_on_c, 2, 82, 80
3, 20619, Note_on_c, 2, 82, 0
3, 20628, Note_on_c, 2, 81, 80
3, 20629, Note_on_c, 2, 74, 0
3, 20629, Note_on_c, 2, 91, 80
3, 20630, Note_on_c, 2, 70, 0
3, 20631, Note_on_c, 2, 75, 80
3, 20664, Note_on_c, 2, 91, 0
3, 20686, Note_on_c, 2, 84, 80
3, 20713, Note_on_c, 2, 84, 0
3, 20745, Note_on_c, 2, 82, 80
3, 20746, Note_on_c, 2, 86, 80
3, 20747, Note_on_c, 2, 77, 80
3, 20750, Note_on_c, 2, 81, 0
3, 20750, Note_on_c, 2, 75, 0
3, 20803, Note_on_c, 2, 82, 0
3, 20803, Note_on_c, 2, 79, 80
3, 20803, Note_on_c, 2, 82, 80
3, 20804, Note_on_c, 2, 86, 0
3, 20809, Note_on_c, 2, 77, 0
3, 20851, Note_on_c, 2, 82, 0
3, 20859, Note_on_c, 2, 77, 80
3, 20862, Note_on_c, 2, 81, 80
3, 20870, Note_on_c, 2, 79, 0
3, 20918, Note_on_c, 2, 74, 80
3, 20920, Note_on_c, 2, 77, 0
3, 20921, Note_on_c, 2, 89, 80
3, 20940, Note_on_c, 2, 81, 0
3, 20950, Note_on_c, 2, 89, 0
3, 20978, Note_on_c, 2, 75, 80
3, 20981, Note_on_c, 2, 81, 80
3, 20981, Note_on_c, 2, 84, 80
3, 20984, Note_on_c, 2, 74, 0
3, 21024, Note_on_c, 2, 81, 0
3, 21033, Note_on_c, 2, 75, 0
3, 21034, Note_on_c, 2, 72, 80
3, 21039, Note_on_c, 2, 84, 0
3, 21041, Note_on_c, 2, 87, 80
3, 21079, Note_on_c, 2, 87, 0
3, 21080, Note_on_c, 2, 72, 0
3, 21097, Note_on_c, 2, 70, 80
3, 21101, Note_on_c, 2, 82, 80
3, 21104, Note_on_c, 2, 86, 80
3, 21153, Note_on_c, 2, 86, 0
3, 21156, Note_on_c, 2, 70, 0
3, 21162, Note_on_c, 2, 82, 0
3, 21163, Note_on_c, 2, 84, 80
3, 21215, Note_on_c, 2, 84, 0
3, 21216, Note_on_c, 2, 77, 80
3, 21216, Note_on_c, 2, 74, 80
3, 21216, Note_on_c, 2, 82, 80
3, 21271, Note_on_c, 2, 82, 0
3, 21271, Note_on_c, 2, 89, 80
3, 21306, Note_on_c, 2, 89, 0
3, 21311, Note_on_c, 2, 77, 0
3, 21331, Note_on_c, 2, 72, 80
3, 21332, Note_on_c, 2, 75, 80
3, 21336, Note_on_c, 2, 74, 0
3, 21337, Note_on_c, 2, 77, 80
3, 21373, Note_on_c, 2, 75, 0
3, 21380, Note_on_c, 2, 72, 0
3, 21409, Note_on_c, 2, 81, 80
3, 21411, Note_on_c, 2, 77, 0
3, 21448, Note_on_c, 2, 70, 80
3, 21449, Note_on_c, 2, 74, 80
3, 21463, Note_on_c, 2, 79, 80
3, 21464, Note_on_c, 2, 81, 0
3, 21511, Note_on_c, 2, 70, 0
3, 21513, Note_on_c, 2, 74, 0
3, 21520, Note_on_c, 2, 82, 80
3, 21525, Note_on_c, 2, 79, 0
3, 21554, Note_on_c, 2, 82, 0
3, 21576, Note_on_c, 2, 72, 80
3, 21577, Note_on_c, 2, 69, 80
3, 21589, Note_on_c, 2, 84, 80
3, 21642, Note_on_c, 2, 72, 0
3, 21644, Note_on_c, 2, 69, 0
3, 21654, Note_on_c, 2, 84, 0
3, 21656, Note_on_c, 2, 86, 80
3, 21704, Note_on_c, 2, 65, 80
3, 21705, Note_on_c, 2, 69, 80
3, 21715, Note_on_c, 2, 84, 80
3, 21717, Note_on_c, 2, 86, 0
3, 21768, Note_on_c, 2, 89, 80
3, 21772, Note_on_c, 2, 84, 0
3, 21793, Note_on_c, 2, 89, 0
3, 21820, Note_on_c, 2, 69, 0
3, 21823, Note_on_c, 2, 74, 80
3, 21826, Note_on_c, 2, 65, 0
3, 21827, Note_on_c, 2, 77, 80
3, 21889, Note_on_c, 2, 82, 80
3, 21894, Note_on_c, 2, 77, 0
3, 21929, Note_on_c, 2, 74, 0
3, 21938, Note_on_c, 2, 72, 80
3, 21939, Note_on_c, 2, 65, 80
3, 21943, Note_on_c, 2, 81, 80
3, 21950, Note_on_c, 2, 82, 0
3, 21971, Note_on_c, 2, 65, 0
3, 21979, Note_on_c, 2, 72, 0
3, 22000, Note_on_c, 2, 81, 0
3, 22004, Note_on_c, 2, 84, 80
3, 22057, Note_on_c, 2, 67, 80
3, 22058, Note_on_c, 2, 70, 80
3, 22066, Note_on_c, 2, 76, 80
3, 22070, Note_on_c, 2, 84, 0
3, 22128, Note_on_c, 2, 82, 80
3, 22134, Note_on_c, 2, 76, 0
3, 22184, Note_on_c, 2, 81, 80
3, 22186, Note_on_c, 2, 82, 0
3, 22198, Note_on_c, 2, 70, 0
3, 22217, Note_on_c, 2, 67, 0
3, 22236, Note_on_c, 2, 69, 80
3, 22241, Note_on_c, 2, 84, 80
3, 22243, Note_on_c, 2, 81, 0
3, 22281, Note_on_c, 2, 84, 0
3, 22297, Note_on_c, 2, 70, 80
3, 22299, Note_on_c, 2, 69, 0
3, 22304, Note_on_c, 2, 86, 80
3, 22349, Note_on_c, 2, 86, 0
3, 22354, Note_on_c, 2, 70, 0
3, 22356, Note_on_c, 2, 72, 80
3, 22358, Note_on_c, 2, 77, 80
3, 22418, Note_on_c, 2, 72, 0
3, 22418, Note_on_c, 2, 74, 80
3, 22424, Note_on_c, 2, 82, 80
3, 22425, Note_on_c, 2, 77, 0
3, 22466, Note_on_c, 2, 74, 0
3, 22473, Note_on_c, 2, 76, 80
3, 22477, Note_on_c, 2, 79, 80
3, 22480, Note_on_c, 2, 82, 0
3, 22521, Note_on_c, 2, 76, 0
3, 22533, Note_on_c, 2, 79, 0
3, 22536, Note_on_c, 2, 77, 80
3, 22539, Note_on_c, 2, 65, 80
3, 22541, Note_on_c, 2, 81, 80
3, 22586, Note_on_c, 2, 81, 0
3, 22590, Note_on_c, 2, 67, 80
3, 22591, Note_on_c, 2, 65, 0
3, 22592, Note_on_c, 2, 77, 0
3, 22651, Note_on_c, 2, 65, 80
3, 22653, Note_on_c, 2, 67, 0
3, 22659, Note_on_c, 2, 89, 80
3, 22660, Note_on_c, 2, 86, 80
3, 22708, Note_on_c, 2, 70, 80
3, 22710, Note_on_c, 2, 65, 0
3, 22755, Note_on_c, 2, 86, 0
3, 22761, Note_on_c, 2, 70, 0
3, 22764, Note_on_c, 2, 89, 0
3, 22775, Note_on_c, 2, 58, 80
3, 22779, Note_on_c, 2, 87, 80
3, 22780, Note_on_c, 2, 91, 80
3, 22823, Note_on_c, 2, 87, 0
3, 22827, Note_on_c, 2, 91, 0
3, 22834, Note_on_c, 2, 63, 80
3, 22836, Note_on_c, 2, 58, 0
3, 22887, Note_on_c, 2, 62, 80
3, 22889, Note_on_c, 2, 63, 0
3, 22897, Note_on_c, 2, 82, 80
3, 22899, Note_on_c, 2, 89, 80
3, 22950, Note_on_c, 2, 62, 0
3, 22952, Note_on_c, 2, 65, 80
3, 22964, Note_on_c, 2, 89, 0
3, 22979, Note_on_c, 2, 65, 0
3, 23015, Note_on_c, 2, 67, 80
3, 23019, Note_on_c, 2, 87, 80
3, 23028, Note_on_c, 2, 82, 0
3, 23083, Note_on_c, 2, 69, 80
3, 23085, Note_on_c, 2, 67, 0
3, 23088, Note_on_c, 2, 87, 0
3, 23140, Note_on_c, 2, 67, 80
3, 23143, Note_on_c, 2, 69, 0
3, 23147, Note_on_c, 2, 82, 80
3, 23190, Note_on_c, 2, 67, 0
3, 23203, Note_on_c, 2, 70, 80
3, 23228, Note_on_c, 2, 70, 0
3, 23261, Note_on_c, 2, 58, 80
3, 23269, Note_on_c, 2, 91, 80
3, 23307, Note_on_c, 2, 58, 0
3, 23322, Note_on_c, 2, 63, 80
3, 23330, Note_on_c, 2, 82, 0
3, 23345, Note_on_c, 2, 91, 0
3, 23376, Note_on_c, 2, 63, 0
3, 23379, Note_on_c, 2, 62, 80
3, 23387, Note_on_c, 2, 82, 80
3, 23388, Note_on_c, 2, 89, 80
3, 23437, Note_on_c, 2, 62, 0
3, 23440, Note_on_c, 2, 65, 80
3, 23487, Note_on_c, 2, 65, 0
3, 23498, Note_on_c, 2, 57, 80
3, 23503, Note_on_c, 2, 89, 0
3, 23513, Note_on_c, 2, 82, 0
3, 23513, Note_on_c, 2, 87, 80
3, 23516, Note_on_c, 2, 84, 80
3, 23563, Note_on_c, 2, 63, 80
3, 23571, Note_on_c, 2, 57, 0
3, 23620, Note_on_c, 2, 63, 0
3, 23624, Note_on_c, 2, 62, 80
3, 23626, Note_on_c, 2, 82, 80
3, 23631, Note_on_c, 2, 84, 0
3, 23683, Note_on_c, 2, 62, 0
3, 23683, Note_on_c, 2, 81, 80
3, 23684, Note_on_c, 2, 82, 0
3, 23684, Note_on_c, 2, 65, 80
3, 23733, Note_on_c, 2, 65, 0
3, 23739, Note_on_c, 2, 82, 80
3, 23741, Note_on_c, 2, 69, 80
3, 23745, Note_on_c, 2, 81, 0
3, 23750, Note_on_c, 2, 87, 0
3, 23795, Note_on_c, 2, 58, 80
3, 23796, Note_on_c, 2, 69, 0
3, 23801, Note_on_c, 2, 87, 80
3, 23829, Note_on_c, 2, 87, 0
3, 23850, Note_on_c, 2, 82, 0
3, 23853, Note_on_c, 2, 63, 80
3, 23854, Note_on_c, 2, 58, 0
3, 23857, Note_on_c, 2, 81, 80
3, 23860, Note_on_c, 2, 84, 80
3, 23903, Note_on_c, 2, 63, 0
3, 23906, Note_on_c, 2, 60, 80
3, 23918, Note_on_c, 2, 87, 80
3, 23922, Note_on_c, 2, 84, 0
3, 23939, Note_on_c, 2, 87, 0
3, 23966, Note_on_c, 2, 60, 0
3, 23971, Note_on_c, 2, 62, 80
3, 23978, Note_on_c, 2, 82, 80
3, 23978, Note_on_c, 2, 89, 80
3, 23987, Note_on_c, 2, 81, 0
3, 24043, Note_on_c, 2, 87, 80
3, 24047, Note_on_c, 2, 62, 0
3, 24048, Note_on_c, 2, 89, 0
3, 24096, Note_on_c, 2, 58, 80
3, 24097, Note_on_c, 2, 87, 0
3, 24104, Note_on_c, 2, 86, 80
3, 24159, Note_on_c, 2, 84, 80
3, 24162, Note_on_c, 2, 86, 0
3, 24192, Note_on_c, 2, 58, 0
3, 24215, Note_on_c, 2, 70, 80
3, 24218, Note_on_c, 2, 86, 80
3, 24221, Note_on_c, 2, 84, 0
3, 24228, Note_on_c, 2, 82, 0
3, 24269, Note_on_c, 2, 70, 0
3, 24282, Note_on_c, 2, 88, 80
3, 24283, Note_on_c, 2, 86, 0
3, 24331, Note_on_c, 2, 88, 0
3, 24336, Note_on_c, 2, 67, 80
3, 24336, Note_on_c, 2, 89, 80
3, 24337, Note_on_c, 2, 76, 80
3, 24377, Note_on_c, 2, 89, 0
3, 24382, Note_on_c, 2, 76, 0
3, 24389, Note_on_c, 2, 91, 80
3, 24397, Note_on_c, 2, 67, 0
3, 24423, Note_on_c, 2, 91, 0
3, 24452, Note_on_c, 2, 77, 80
3, 24453, Note_on_c, 2, 65, 80
3, 24454, Note_on_c, 2, 93, 80
3, 24481, Note_on_c, 2, 77, 0
3, 24515, Note_on_c, 2, 70, 80
3, 24532, Note_on_c, 2, 93, 0
3, 24569, Note_on_c, 2, 70, 0
3, 24575, Note_on_c, 2, 69, 80
3, 24583, Note_on_c, 2, 84, 80
3, 24628, Note_on_c, 2, 67, 80
3, 24630, Note_on_c, 2, 69, 0
3, 24631, Note_on_c, 2, 65, 0
3, 24639, Note_on_c, 2, 84, 0
3, 24691, Note_on_c, 2, 69, 80
3, 24692, Note_on_c, 2, 67, 0
3, 24701, Note_on_c, 2, 96, 80
3, 24750, Note_on_c, 2, 70, 80
3, 24755, Note_on_c, 2, 69, 0
3, 24810, Note_on_c, 2, 70, 0
3, 24813, Note_on_c, 2, 72, 80
3, 24814, Note_on_c, 2, 65, 80
3, 24815, Note_on_c, 2, 96, 0
3, 24825, Note_on_c, 2, 93, 80
3, 24857, Note_on_c, 2, 65, 0
3, 24873, Note_on_c, 2, 72, 0
3, 24874, Note_on_c, 2, 74, 80
3, 24878, Note_on_c, 2, 93, 0
3, 24911, Note_on_c, 2, 74, 0
3, 24938, Note_on_c, 2, 72, 80
3, 24939, Note_on_c, 2, 75, 80
3, 24948, Note_on_c, 2, 91, 80
3, 25013, Note_on_c, 2, 89, 80
3, 25015, Note_on_c, 2, 91, 0
3, 25043, Note_on_c, 2, 75, 0
3, 25058, Note_on_c, 2, 72, 0
3, 25073, Note_on_c, 2, 67, 80
3, 25078, Note_on_c, 2, 87, 80
3, 25081, Note_on_c, 2, 89, 0
3, 25133, Note_on_c, 2, 87, 0
3, 25135, Note_on_c, 2, 86, 80
3, 25194, Note_on_c, 2, 79, 80
3, 25198, Note_on_c, 2, 87, 80
3, 25200, Note_on_c, 2, 67, 0
3, 25206, Note_on_c, 2, 86, 0
3, 25254, Note_on_c, 2, 87, 0
3, 25259, Note_on_c, 2, 89, 80
3, 25276, Note_on_c, 2, 79, 0
3, 25308, Note_on_c, 2, 89, 0
3, 25309, Note_on_c, 2, 91, 80
3, 25313, Note_on_c, 2, 72, 80
3, 25314, Note_on_c, 2, 75, 80
3, 25363, Note_on_c, 2, 91, 0
3, 25369, Note_on_c, 2, 93, 80
3, 25376, Note_on_c, 2, 72, 0
3, 25377, Note_on_c, 2, 75, 0
3, 25400, Note_on_c, 2, 93, 0
3, 25426, Note_on_c, 2, 67, 80
3, 25430, Note_on_c, 2, 74, 80
3, 25438, Note_on_c, 2, 94, 80
3, 25494, Note_on_c, 2, 72, 80
3, 25495, Note_on_c, 2, 74, 0
3, 25496, Note_on_c, 2, 94, 0
3, 25497, Note_on_c, 2, 93, 80
3, 25549, Note_on_c, 2, 72, 0
3, 25555, Note_on_c, 2, 93, 0
3, 25555, Note_on_c, 2, 91, 80
3, 25555, Note_on_c, 2, 70, 80
3, 25609, Note_on_c, 2, 91, 0
3, 25609, Note_on_c, 2, 69, 80
3, 25611, Note_on_c, 2, 70, 0
3, 25614, Note_on_c, 2, 90, 80
3, 25665, Note_on_c, 2, 70, 80
3, 25667, Note_on_c, 2, 69, 0
3, 25673, Note_on_c, 2, 67, 0
3, 25673, Note_on_c, 2, 90, 0
3, 25676, Note_on_c, 2, 91, 80
3, 25725, Note_on_c, 2, 72, 80
3, 25728, Note_on_c, 2, 70, 0
3, 25736, Note_on_c, 2, 91, 0
3, 25736, Note_on_c, 2, 94, 80
3, 25786, Note_on_c, 2, 67, 80
3, 25787, Note_on_c, 2, 74, 80
3, 25788, Note_on_c, 2, 72, 0
3, 25797, Note_on_c, 2, 94, 0
3, 25798, Note_on_c, 2, 93, 80
3, 25846, Note_on_c, 2, 74, 0
3, 25849, Note_on_c, 2, 75, 80
3, 25855, Note_on_c, 2, 93, 0
3, 25858, Note_on_c, 2, 91, 80
3, 25872, Note_on_c, 2, 67, 0
3, 25908, Note_on_c, 2, 75, 0
3, 25912, Note_on_c, 2, 77, 80
3, 25913, Note_on_c, 2, 91, 0
3, 25913, Note_on_c, 2, 74, 80
3, 25914, Note_on_c, 2, 89, 80
3, 25973, Note_on_c, 2, 89, 0
3, 25973, Note_on_c, 2, 87, 80
3, 25990, Note_on_c, 2, 77, 0
3, 26009, Note_on_c, 2, 74, 0
3, 26026, Note_on_c, 2, 77, 80
3, 26035, Note_on_c, 2, 87, 0
3, 26035, Note_on_c, 2, 86, 80
3, 26089, Note_on_c, 2, 86, 0
3, 26089, Note_on_c, 2, 84, 80
3, 26121, Note_on_c, 2, 84, 0
3, 26127, Note_on_c, 2, 77, 0
3, 26145, Note_on_c, 2, 67, 80
3, 26152, Note_on_c, 2, 83, 80
3, 26211, Note_on_c, 2, 80, 80
3, 26218, Note_on_c, 2, 83, 0
3, 26222, Note_on_c, 2, 67, 0
3, 26269, Note_on_c, 2, 71, 80
3, 26271, Note_on_c, 2, 79, 80
3, 26272, Note_on_c, 2, 80, 0
3, 26328, Note_on_c, 2, 77, 80
3, 26332, Note_on_c, 2, 79, 0
3, 26352, Note_on_c, 2, 71, 0
3, 26360, Note_on_c, 2, 77, 0
3, 26391, Note_on_c, 2, 72, 80
3, 26392, Note_on_c, 2, 75, 80
3, 26455, Note_on_c, 2, 86, 80
3, 26474, Note_on_c, 2, 72, 0
3, 26514, Note_on_c, 2, 84, 80
3, 26517, Note_on_c, 2, 75, 80
3, 26524, Note_on_c, 2, 86, 0
3, 26573, Note_on_c, 2, 75, 0
3, 26573, Note_on_c, 2, 82, 80
3, 26576, Note_on_c, 2, 75, 0
3, 26579, Note_on_c, 2, 84, 0
3, 26615, Note_on_c, 2, 82, 0
3, 26628, Note_on_c, 2, 65, 80
3, 26634, Note_on_c, 2, 81, 80
3, 26694, Note_on_c, 2, 79, 80
3, 26704, Note_on_c, 2, 81, 0
3, 26726, Note_on_c, 2, 65, 0
3, 26749, Note_on_c, 2, 79, 0
3, 26752, Note_on_c, 2, 77, 80
3, 26757, Note_on_c, 2, 69, 80
3, 26788, Note_on_c, 2, 77, 0
3, 26796, Note_on_c, 2, 69, 0
3, 26803, Note_on_c, 2, 75, 80
3, 26821, Note_on_c, 2, 75, 0
3, 26866, Note_on_c, 2, 74, 80
3, 26867, Note_on_c, 2, 70, 80
3, 26928, Note_on_c, 2, 70, 0
3, 26929, Note_on_c, 2, 72, 80
3, 26974, Note_on_c, 2, 74, 0
3, 26979, Note_on_c, 2, 86, 80
3, 26985, Note_on_c, 2, 70, 80
3, 26993, Note_on_c, 2, 72, 0
3, 27033, Note_on_c, 2, 70, 0
3, 27034, Note_on_c, 2, 86, 0
3, 27041, Note_on_c, 2, 77, 80
3, 27085, Note_on_c, 2, 77, 0
3, 27097, Note_on_c, 2, 65, 80
3, 27098, Note_on_c, 2, 87, 80
3, 27098, Note_on_c, 2, 81, 80
3, 27156, Note_on_c, 2, 70, 80
3, 27161, Note_on_c, 2, 86, 80
3, 27162, Note_on_c, 2, 65, 0
3, 27164, Note_on_c, 2, 87, 0
3, 27215, Note_on_c, 2, 69, 80
3, 27219, Note_on_c, 2, 86, 0
3, 27221, Note_on_c, 2, 70, 0
3, 27221, Note_on_c, 2, 87, 80
3, 27274, Note_on_c, 2, 69, 0
3, 27277, Note_on_c, 2, 87, 0
3, 27279, Note_on_c, 2, 72, 80
3, 27280, Note_on_c, 2, 84, 80
3, 27291, Note_on_c, 2, 81, 0
3, 27314, Note_on_c, 2, 84, 0
3, 27332, Note_on_c, 2, 72, 0
3, 27338, Note_on_c, 2, 70, 80
3, 27339, Note_on_c, 2, 77, 80
3, 27342, Note_on_c, 2, 89, 80
3, 27400, Note_on_c, 2, 79, 80
3, 27401, Note_on_c, 2, 77, 0
3, 27402, Note_on_c, 2, 87, 80
3, 27408, Note_on_c, 2, 89, 0
3, 27456, Note_on_c, 2, 79, 0
3, 27458, Note_on_c, 2, 77, 80
3, 27463, Note_on_c, 2, 87, 0
3, 27466, Note_on_c, 2, 89, 80
3, 27472, Note_on_c, 2, 70, 0
3, 27515, Note_on_c, 2, 77, 0
3, 27522, Note_on_c, 2, 82, 80
3, 27523, Note_on_c, 2, 86, 80
3, 27524, Note_on_c, 2, 89, 0
3, 27543, Note_on_c, 2, 86, 0
3, 27572, Note_on_c, 2, 70, 80
3, 27579, Note_on_c, 2, 82, 0
3, 27584, Note_on_c, 2, 91, 80
3, 27585, Note_on_c, 2, 86, 80
3, 27633, Note_on_c, 2, 75, 80
3, 27636, Note_on_c, 2, 70, 0
3, 27646, Note_on_c, 2, 84, 80
3, 27647, Note_on_c, 2, 86, 0
3, 27687, Note_on_c, 2, 75, 0
3, 27688, Note_on_c, 2, 74, 80
3, 27706, Note_on_c, 2, 86, 80
3, 27709, Note_on_c, 2, 84, 0
3, 27748, Note_on_c, 2, 74, 0
3, 27753, Note_on_c, 2, 77, 80
3, 27762, Note_on_c, 2, 86, 0
3, 27763, Note_on_c, 2, 82, 80
3, 27781, Note_on_c, 2, 82, 0
3, 27800, Note_on_c, 2, 77, 0
3, 27809, Note_on_c, 2, 69, 80
3, 27823, Note_on_c, 2, 81, 80
3, 27874, Note_on_c, 2, 75, 80
3, 27879, Note_on_c, 2, 69, 0
3, 27891, Note_on_c, 2, 90, 80
3, 27892, Note_on_c, 2, 91, 0
3, 27933, Note_on_c, 2, 75, 0
3, 27936, Note_on_c, 2, 74, 80
3, 27950, Note_on_c, 2, 90, 0
3, 27951, Note_on_c, 2, 91, 80
3, 27962, Note_on_c, 2, 81, 0
3, 28000, Note_on_c, 2, 74, 0
3, 28004, Note_on_c, 2, 79, 80
3, 28005, Note_on_c, 2, 82, 80
3, 28044, Note_on_c, 2, 82, 0
3, 28064, Note_on_c, 2, 79, 0
3, 28064, Note_on_c, 2, 81, 80
3, 28070, Note_on_c, 2, 84, 80
3, 28120, Note_on_c, 2, 74, 80
3, 28126, Note_on_c, 2, 81, 0
3, 28128, Note_on_c, 2, 93, 80
3, 28133, Note_on_c, 2, 91, 0
3, 28153, Note_on_c, 2, 93, 0
3, 28181, Note_on_c, 2, 74, 0
3, 28182, Note_on_c, 2, 75, 80
3, 28193, Note_on_c, 2, 90, 80
3, 28242, Note_on_c, 2, 72, 80
3, 28245, Note_on_c, 2, 75, 0
3, 28297, Note_on_c, 2, 90, 0
3, 28299, Note_on_c, 2, 72, 0
3, 28305, Note_on_c, 2, 91, 80
3, 28305, Note_on_c, 2, 74, 80
3, 28368, Note_on_c, 2, 74, 0
3, 28368, Note_on_c, 2, 75, 80
3, 28406, Note_on_c, 2, 84, 0
3, 28426, Note_on_c, 2, 91, 0
3, 28426, Note_on_c, 2, 86, 80
3, 28427, Note_on_c, 2, 74, 80
3, 28428, Note_on_c, 2, 75, 0
3, 28430, Note_on_c, 2, 82, 80
3, 28477, Note_on_c, 2, 74, 0
3, 28484, Note_on_c, 2, 81, 80
3, 28485, Note_on_c, 2, 79, 80
3, 28489, Note_on_c, 2, 82, 0
3, 28507, Note_on_c, 2, 86, 0
3, 28537, Note_on_c, 2, 79, 0
3, 28544, Note_on_c, 2, 67, 80
3, 28547, Note_on_c, 2, 79, 80
3, 28548, Note_on_c, 2, 81, 0
3, 28550, Note_on_c, 2, 87, 80
3, 28606, Note_on_c, 2, 72, 80
3, 28613, Note_on_c, 2, 67, 0
3, 28664, Note_on_c, 2, 70, 80
3, 28666, Note_on_c, 2, 72, 0
3, 28675, Note_on_c, 2, 87, 0
3, 28680, Note_on_c, 2, 86, 80
3, 28727, Note_on_c, 2, 70, 0
3, 28730, Note_on_c, 2, 74, 80
3, 28773, Note_on_c, 2, 74, 0
3, 28792, Note_on_c, 2, 75, 80
3, 28795, Note_on_c, 2, 86, 0
3, 28795, Note_on_c, 2, 84, 80
3, 28808, Note_on_c, 2, 79, 0
3, 28855, Note_on_c, 2, 77, 80
3, 28857, Note_on_c, 2, 75, 0
3, 28869, Note_on_c, 2, 84, 0
3, 28917, Note_on_c, 2, 77, 0
3, 28917, Note_on_c, 2, 79, 80
3, 28918, Note_on_c, 2, 75, 80
3, 28972, Note_on_c, 2, 79, 80
3, 28977, Note_on_c, 2, 75, 0
3, 29001, Note_on_c, 2, 79, 0
3, 29032, Note_on_c, 2, 67, 80
3, 29038, Note_on_c, 2, 79, 0
3, 29039, Note_on_c, 2, 87, 80
3, 29090, Note_on_c, 2, 72, 80
3, 29097, Note_on_c, 2, 67, 0
3, 29145, Note_on_c, 2, 87, 0
3, 29149, Note_on_c, 2, 70, 80
3, 29152, Note_on_c, 2, 72, 0
3, 29152, Note_on_c, 2, 86, 80
3, 29204, Note_on_c, 2, 86, 0
3, 29205, Note_on_c, 2, 70, 0
3, 29208, Note_on_c, 2, 74, 80
3, 29264, Note_on_c, 2, 74, 0
3, 29264, Note_on_c, 2, 66, 80
3, 29265, Note_on_c, 2, 81, 80
3, 29326, Note_on_c, 2, 72, 80
3, 29328, Note_on_c, 2, 66, 0
3, 29352, Note_on_c, 2, 81, 0
3, 29383, Note_on_c, 2, 72, 0
3, 29384, Note_on_c, 2, 70, 80
3, 29393, Note_on_c, 2, 79, 80
3, 29442, Note_on_c, 2, 74, 80
3, 29443, Note_on_c, 2, 70, 0
3, 29458, Note_on_c, 2, 78, 80
3, 29460, Note_on_c, 2, 79, 0
3, 29503, Note_on_c, 2, 74, 0
3, 29510, Note_on_c, 2, 75, 80
3, 29513, Note_on_c, 2, 78, 0
3, 29520, Note_on_c, 2, 79, 80
3, 29566, Note_on_c, 2, 75, 0
3, 29567, Note_on_c, 2, 67, 80
3, 29576, Note_on_c, 2, 82, 80
3, 29577, Note_on_c, 2, 79, 0
3, 29627, Note_on_c, 2, 72, 80
3, 29631, Note_on_c, 2, 67, 0
3, 29632, Note_on_c, 2, 81, 80
3, 29633, Note_on_c, 2, 82, 0
3, 29682, Note_on_c, 2, 69, 80
3, 29684, Note_on_c, 2, 72, 0
3, 29689, Note_on_c, 2, 81, 0
3, 29689, Note_on_c, 2, 84, 80
3, 29716, Note_on_c, 2, 84, 0
3, 29743, Note_on_c, 2, 69, 0
3, 29745, Note_on_c, 2, 70, 80
3, 29746, Note_on_c, 2, 67, 80
3, 29752, Note_on_c, 2, 86, 80
3, 29802, Note_on_c, 2, 69, 80
3, 29807, Note_on_c, 2, 70, 0
3, 29817, Note_on_c, 2, 67, 0
3, 29861, Note_on_c, 2, 69, 0
3, 29863, Note_on_c, 2, 79, 80
3, 29865, Note_on_c, 2, 70, 80
3, 29911, Note_on_c, 2, 70, 0
3, 29926, Note_on_c, 2, 74, 80
3, 29956, Note_on_c, 2, 74, 0
3, 29980, Note_on_c, 2, 82, 80
3, 29984, Note_on_c, 2, 79, 0
3, 29984, Note_on_c, 2, 62, 80
3, 30038, Note_on_c, 2, 67, 80
3, 30044, Note_on_c, 2, 62, 0
3, 30095, Note_on_c, 2, 66, 80
3, 30096, Note_on_c, 2, 67, 0
3, 30103, Note_on_c, 2, 81, 80
3, 30104, Note_on_c, 2, 82, 0
3, 30146, Note_on_c, 2, 66, 0
3, 30149, Note_on_c, 2, 69, 80
3, 30196, Note_on_c, 2, 69, 0
3, 30213, Note_on_c, 2, 70, 80
3, 30218, Note_on_c, 2, 79, 80
3, 30228, Note_on_c, 2, 81, 0
3, 30278, Note_on_c, 2, 70, 0
3, 30278, Note_on_c, 2, 72, 80
3, 30293, Note_on_c, 2, 79, 0
3, 30339, Note_on_c, 2, 72, 0
3, 30345, Note_on_c, 2, 70, 80
3, 30350, Note_on_c, 2, 74, 80
3, 30404, Note_on_c, 2, 70, 0
3, 30412, Note_on_c, 2, 74, 80
3, 30455, Note_on_c, 2, 62, 80
3, 30471, Note_on_c, 2, 74, 0
3, 30472, Note_on_c, 2, 82, 80
3, 30476, Note_on_c, 2, 74, 0
3, 30477, Note_on_c, 2, 86, 0
3, 30519, Note_on_c, 2, 67, 80
3, 30524, Note_on_c, 2, 62, 0
3, 30574, Note_on_c, 2, 65, 80
3, 30577, Note_on_c, 2, 67, 0
3, 30590, Note_on_c, 2, 82, 0
3, 30592, Note_on_c, 2, 81, 80
3, 30632, Note_on_c, 2, 65, 0
3, 30636, Note_on_c, 2, 69, 80
3, 30684, Note_on_c, 2, 69, 0
3, 30704, Note_on_c, 2, 76, 80
3, 30705, Note_on_c, 2, 81, 0
3, 30711, Note_on_c, 2, 61, 80
3, 30754, Note_on_c, 2, 61, 0
3, 30762, Note_on_c, 2, 67, 80
3, 30792, Note_on_c, 2, 76, 0
3, 30820, Note_on_c, 2, 67, 0
3, 30822, Note_on_c, 2, 66, 80
3, 30828, Note_on_c, 2, 74, 80
3, 30877, Note_on_c, 2, 66, 0
3, 30877, Note_on_c, 2, 69, 80
3, 30888, Note_on_c, 2, 73, 80
3, 30893, Note_on_c, 2, 74, 0
3, 30933, Note_on_c, 2, 69, 0
3, 30936, Note_on_c, 2, 70, 80
3, 30949, Note_on_c, 2, 73, 0
3, 30950, Note_on_c, 2, 74, 80
3, 30992, Note_on_c, 2, 62, 80
3, 30995, Note_on_c, 2, 70, 0
3, 31009, Note_on_c, 2, 77, 80
3, 31012, Note_on_c, 2, 74, 0
3, 31056, Note_on_c, 2, 67, 80
3, 31058, Note_on_c, 2, 62, 0
3, 31066, Note_on_c, 2, 76, 80
3, 31067, Note_on_c, 2, 77, 0
3, 31114, Note_on_c, 2, 64, 80
3, 31115, Note_on_c, 2, 67, 0
3, 31122, Note_on_c, 2, 76, 0
3, 31123, Note_on_c, 2, 79, 80
3, 31170, Note_on_c, 2, 64, 0
3, 31173, Note_on_c, 2, 65, 80
3, 31185, Note_on_c, 2, 81, 80
3, 31186, Note_on_c, 2, 79, 0
3, 31234, Note_on_c, 2, 64, 80
3, 31235, Note_on_c, 2, 65, 0
3, 31259, Note_on_c, 2, 81, 0
3, 31294, Note_on_c, 2, 62, 80
3, 31296, Note_on_c, 2, 64, 0
3, 31302, Note_on_c, 2, 69, 80
3, 31351, Note_on_c, 2, 61, 80
3, 31356, Note_on_c, 2, 62, 0
3, 31412, Note_on_c, 2, 62, 80
3, 31413, Note_on_c, 2, 61, 0
3, 31416, Note_on_c, 2, 77, 80
3, 31420, Note_on_c, 2, 69, 0
3, 31469, Note_on_c, 2, 64, 80
3, 31470, Note_on_c, 2, 62, 0
3, 31528, Note_on_c, 2, 65, 80
3, 31532, Note_on_c, 2, 64, 0
3, 31543, Note_on_c, 2, 74, 80
3, 31544, Note_on_c, 2, 77, 0
3, 31561, Note_on_c, 2, 65, 0
3, 31586, Note_on_c, 2, 67, 80
3, 31619, Note_on_c, 2, 67, 0
3, 31623, Note_on_c, 2, 74, 0
3, 31652, Note_on_c, 2, 69, 80
3, 31665, Note_on_c, 2, 73, 80
3, 31718, Note_on_c, 2, 69, 0
3, 31731, Note_on_c, 2, 71, 80
3, 31736, Note_on_c, 2, 73, 0
3, 31780, Note_on_c, 2, 57, 80
3, 31791, Note_on_c, 2, 69, 80
3, 31796, Note_on_c, 2, 71, 0
3, 31833, Note_on_c, 2, 57, 0
3, 31847, Note_on_c, 2, 71, 80
3, 31853, Note_on_c, 2, 69, 0
3, 31916, Note_on_c, 2, 73, 80
3, 31917, Note_on_c, 2, 71, 0
3, 31972, Note_on_c, 2, 73, 0
3, 31972, Note_on_c, 2, 69, 80
3, 31973, Note_on_c, 2, 74, 80
3, 32033, Note_on_c, 2, 67, 80
3, 32033, Note_on_c, 2, 76, 80
3, 32036, Note_on_c, 2, 69, 0
3, 32038, Note_on_c, 2, 74, 0
3, 32091, Note_on_c, 2, 65, 80
3, 32093, Note_on_c, 2, 67, 0
3, 32093, Note_on_c, 2, 77, 80
3, 32095, Note_on_c, 2, 76, 0
3, 32110, Note_on_c, 2, 65, 0
3, 32152, Note_on_c, 2, 64, 80
3, 32157, Note_on_c, 2, 77, 0
3, 32157, Note_on_c, 2, 79, 80
3, 32211, Note_on_c, 2, 64, 0
3, 32212, Note_on_c, 2, 62, 80
3, 32214, Note_on_c, 2, 77, 80
3, 32223, Note_on_c, 2, 79, 0
3, 32269, Note_on_c, 2, 62, 0
3, 32270, Note_on_c, 2, 61, 80
3, 32274, Note_on_c, 2, 76, 80
3, 32278, Note_on_c, 2, 77, 0
3, 32328, Note_on_c, 2, 61, 0
3, 32328, Note_on_c, 2, 62, 80
3, 32334, Note_on_c, 2, 77, 80
3, 32348, Note_on_c, 2, 76, 0
3, 32387, Note_on_c, 2, 64, 80
3, 32391, Note_on_c, 2, 62, 0
3, 32394, Note_on_c, 2, 77, 0
3, 32396, Note_on_c, 2, 79, 80
3, 32447, Note_on_c, 2, 64, 0
3, 32452, Note_on_c, 2, 65, 80
3, 32453, Note_on_c, 2, 81, 80
3, 32454, Note_on_c, 2, 79, 0
3, 32506, Note_on_c, 2, 65, 0
3, 32507, Note_on_c, 2, 67, 80
3, 32510, Note_on_c, 2, 81, 0
3, 32513, Note_on_c, 2, 82, 80
3, 32559, Note_on_c, 2, 82, 0
3, 32560, Note_on_c, 2, 69, 80
3, 32561, Note_on_c, 2, 67, 0
3, 32565, Note_on_c, 2, 73, 80
3, 32569, Note_on_c, 2, 73, 80
3, 32589, Note_on_c, 2, 73, 0
3, 32617, Note_on_c, 2, 69, 0
3, 32625, Note_on_c, 2, 73, 0
3, 32625, Note_on_c, 2, 70, 80
3, 32627, Note_on_c, 2, 74, 80
3, 32630, Note_on_c, 2, 86, 80
3, 32631, Note_on_c, 2, 74, 80
3, 32676, Note_on_c, 2, 70, 0
3, 32692, Note_on_c, 2, 88, 80
3, 32693, Note_on_c, 2, 86, 0
3, 32710, Note_on_c, 2, 74, 0
3, 32748, Note_on_c, 2, 88, 0
3, 32749, Note_on_c, 2, 65, 80
3, 32749, Note_on_c, 2, 86, 80
3, 32795, Note_on_c, 2, 65, 0
3, 32805, Note_on_c, 2, 67, 80
3, 32806, Note_on_c, 2, 93, 80
3, 32811, Note_on_c, 2, 86, 0
3, 32830, Note_on_c, 2, 93, 0
3, 32853, Note_on_c, 2, 67, 0
3, 32858, Note_on_c, 2, 74, 0
3, 32865, Note_on_c, 2, 69, 80
3, 32866, Note_on_c, 2, 73, 80
3, 32869, Note_on_c, 2, 81, 80
3, 32929, Note_on_c, 2, 85, 80
3, 32932, Note_on_c, 2, 81, 0
3, 32986, Note_on_c, 2, 74, 80
3, 32987, Note_on_c, 2, 73, 0
3, 32988, Note_on_c, 2, 85, 0
3, 32989, Note_on_c, 2, 83, 80
3, 33024, Note_on_c, 2, 74, 0
3, 33041, Note_on_c, 2, 71, 80
3, 33046, Note_on_c, 2, 86, 80
3, 33048, Note_on_c, 2, 83, 0
3, 33074, Note_on_c, 2, 71, 0
3, 33076, Note_on_c, 2, 86, 0
3, 33108, Note_on_c, 2, 88, 80
3, 33110, Note_on_c, 2, 73, 80
3, 33169, Note_on_c, 2, 89, 80
3, 33179, Note_on_c, 2, 88, 0
3, 33216, Note_on_c, 2, 69, 0
3, 33225, Note_on_c, 2, 67, 80
3, 33228, Note_on_c, 2, 89, 0
3, 33232, Note_on_c, 2, 88, 80
3, 33288, Note_on_c, 2, 93, 80
3, 33295, Note_on_c, 2, 88, 0
3, 33326, Note_on_c, 2, 93, 0
3, 33329, Note_on_c, 2, 73, 0
3, 33339, Note_on_c, 2, 67, 0
3, 33342, Note_on_c, 2, 65, 80
3, 33344, Note_on_c, 2, 74, 80
3, 33349, Note_on_c, 2, 81, 80
3, 33410, Note_on_c, 2, 86, 80
3, 33413, Note_on_c, 2, 81, 0
3, 33446, Note_on_c, 2, 86, 0
3, 33461, Note_on_c, 2, 64, 80
3, 33463, Note_on_c, 2, 67, 80
3, 33464, Note_on_c, 2, 65, 0
3, 33464, Note_on_c, 2, 74, 0
3, 33469, Note_on_c, 2, 85, 80
3, 33523, Note_on_c, 2, 88, 80
3, 33526, Note_on_c, 2, 85, 0
3, 33539, Note_on_c, 2, 88, 0
3, 33575, Note_on_c, 2, 67, 0
3, 33580, Note_on_c, 2, 69, 80
3, 33581, Note_on_c, 2, 62, 80
3, 33585, Note_on_c, 2, 64, 0
3, 33586, Note_on_c, 2, 89, 80
3, 33650, Note_on_c, 2, 91, 80
3, 33655, Note_on_c, 2, 89, 0
3, 33684, Note_on_c, 2, 69, 0
3, 33700, Note_on_c, 2, 74, 80
3, 33707, Note_on_c, 2, 91, 0
3, 33711, Note_on_c, 2, 89, 80
3, 33767, Note_on_c, 2, 93, 80
3, 33773, Note_on_c, 2, 89, 0
3, 33791, Note_on_c, 2, 93, 0
3, 33802, Note_on_c, 2, 74, 0
3, 33819, Note_on_c, 2, 62, 0
3, 33820, Note_on_c, 2, 67, 80
3, 33821, Note_on_c, 2, 73, 80
3, 33827, Note_on_c, 2, 81, 80
3, 33885, Note_on_c, 2, 88, 80
3, 33892, Note_on_c, 2, 81, 0
3, 33912, Note_on_c, 2, 88, 0
3, 33946, Note_on_c, 2, 67, 0
3, 33948, Note_on_c, 2, 73, 0
3, 33948, Note_on_c, 2, 74, 80
3, 33950, Note_on_c, 2, 65, 80
3, 33950, Note_on_c, 2, 86, 80
3, 34007, Note_on_c, 2, 89, 80
3, 34014, Note_on_c, 2, 86, 0
3, 34033, Note_on_c, 2, 89, 0
3, 34049, Note_on_c, 2, 65, 0
3, 34063, Note_on_c, 2, 70, 80
3, 34064, Note_on_c, 2, 76, 80
3, 34068, Note_on_c, 2, 74, 0
3, 34069, Note_on_c, 2, 85, 80
3, 34128, Note_on_c, 2, 91, 80
3, 34134, Note_on_c, 2, 76, 0
3, 34135, Note_on_c, 2, 85, 0
3, 34158, Note_on_c, 2, 91, 0
3, 34182, Note_on_c, 2, 74, 80
3, 34186, Note_on_c, 2, 69, 80
3, 34187, Note_on_c, 2, 70, 0
3, 34187, Note_on_c, 2, 89, 80
3, 34248, Note_on_c, 2, 93, 80
3, 34249, Note_on_c, 2, 89, 0
3, 34304, Note_on_c, 2, 67, 80
3, 34306, Note_on_c, 2, 69, 0
3, 34306, Note_on_c, 2, 94, 80
3, 34308, Note_on_c, 2, 93, 0
3, 34360, Note_on_c, 2, 94, 0
3, 34365, Note_on_c, 2, 86, 80
3, 34399, Note_on_c, 2, 86, 0
3, 34401, Note_on_c, 2, 74, 0
3, 34426, Note_on_c, 2, 69, 80
3, 34427, Note_on_c, 2, 74, 80
3, 34428, Note_on_c, 2, 91, 80
3, 34429, Note_on_c, 2, 67, 0
3, 34439, Note_on_c, 2, 74, 0
3, 34440, Note_on_c, 2, 73, 80
3, 34454, Note_on_c, 2, 74, 80
3, 34458, Note_on_c, 2, 73, 0
3, 34469, Note_on_c, 2, 73, 80
3, 34470, Note_on_c, 2, 74, 0
3, 34480, Note_on_c, 2, 74, 80
3, 34487, Note_on_c, 2, 91, 0
3, 34488, Note_on_c, 2, 88, 80
3, 34493, Note_on_c, 2, 74, 0
3, 34516, Note_on_c, 2, 88, 0
3, 34545, Note_on_c, 2, 74, 80
3, 34547, Note_on_c, 2, 62, 80
3, 34551, Note_on_c, 2, 89, 80
3, 34554, Note_on_c, 2, 69, 0
3, 34556, Note_on_c, 2, 73, 0
3, 34589, Note_on_c, 2, 74, 0
3, 34610, Note_on_c, 2, 82, 80
3, 34670, Note_on_c, 2, 82, 0
3, 34671, Note_on_c, 2, 81, 80
3, 34729, Note_on_c, 2, 79, 80
3, 34734, Note_on_c, 2, 81, 0
3, 34782, Note_on_c, 2, 77, 80
3, 34785, Note_on_c, 2, 79, 0
3, 34786, Note_on_c, 2, 62, 0
3, 34846, Note_on_c, 2, 75, 80
3, 34847, Note_on_c, 2, 77, 0
3, 34905, Note_on_c, 2, 75, 0
3, 34905, Note_on_c, 2, 74, 80
3, 34912, Note_on_c, 2, 62, 80
3, 34965, Note_on_c, 2, 74, 0
3, 34965, Note_on_c, 2, 72, 80
3, 34994, Note_on_c, 2, 72, 0
3, 35009, Note_on_c, 2, 62, 0
3, 35015, Note_on_c, 2, 67, 80
3, 35016, Note_on_c, 2, 71, 80
3, 35025, Note_on_c, 2, 71, 80
3, 35085, Note_on_c, 2, 87, 80
3, 35086, Note_on_c, 2, 89, 0
3, 35087, Note_on_c, 2, 71, 0
3, 35132, Note_on_c, 2, 67, 0
3, 35134, Note_on_c, 2, 71, 0
3, 35137, Note_on_c, 2, 69, 80
3, 35140, Note_on_c, 2, 65, 80
3, 35143, Note_on_c, 2, 87, 0
3, 35144, Note_on_c, 2, 86, 80
3, 35202, Note_on_c, 2, 87, 80
3, 35207, Note_on_c, 2, 86, 0
3, 35253, Note_on_c, 2, 69, 0
3, 35255, Note_on_c, 2, 63, 80
3, 35256, Note_on_c, 2, 67, 80
3, 35259, Note_on_c, 2, 65, 0
3, 35260, Note_on_c, 2, 87, 0
3, 35262, Note_on_c, 2, 89, 80
3, 35322, Note_on_c, 2, 91, 80
3, 35324, Note_on_c, 2, 89, 0
3, 35366, Note_on_c, 2, 63, 0
3, 35369, Note_on_c, 2, 91, 0
3, 35371, Note_on_c, 2, 67, 0
3, 35374, Note_on_c, 2, 62, 80
3, 35375, Note_on_c, 2, 65, 80
3, 35379, Note_on_c, 2, 93, 80
3, 35413, Note_on_c, 2, 93, 0
3, 35429, Note_on_c, 2, 95, 80
3, 35431, Note_on_c, 2, 65, 0
3, 35440, Note_on_c, 2, 62, 0
3, 35462, Note_on_c, 2, 95, 0
3, 35488, Note_on_c, 2, 63, 80
3, 35490, Note_on_c, 2, 60, 80
3, 35497, Note_on_c, 2, 96, 80
3, 35574, Note_on_c, 2, 92, 80
3, 35575, Note_on_c, 2, 96, 0
3, 35621, Note_on_c, 2, 92, 0
3, 35622, Note_on_c, 2, 58, 80
3, 35623, Note_on_c, 2, 60, 0
3, 35631, Note_on_c, 2, 91, 80
3, 35687, Note_on_c, 2, 91, 0
3, 35687, Note_on_c, 2, 89, 80
3, 35738, Note_on_c, 2, 58, 0
3, 35743, Note_on_c, 2, 57, 80
3, 35747, Note_on_c, 2, 87, 80
3, 35748, Note_on_c, 2, 89, 0
3, 35812, Note_on_c, 2, 86, 80
3, 35815, Note_on_c, 2, 87, 0
3, 35858, Note_on_c, 2, 57, 0
3, 35861, Note_on_c, 2, 55, 80
3, 35873, Note_on_c, 2, 84, 80
3, 35874, Note_on_c, 2, 86, 0
3, 35930, Note_on_c, 2, 84, 0
3, 35931, Note_on_c, 2, 82, 80
3, 35951, Note_on_c, 2, 55, 0
3, 35962, Note_on_c, 2, 82, 0
3, 35986, Note_on_c, 2, 53, 80
3, 35991, Note_on_c, 2, 81, 80
3, 36047, Note_on_c, 2, 82, 80
3, 36048, Note_on_c, 2, 63, 0
3, 36050, Note_on_c, 2, 62, 80
3, 36055, Note_on_c, 2, 81, 0
3, 36110, Note_on_c, 2, 84, 80
3, 36111, Note_on_c, 2, 82, 0
3, 36111, Note_on_c, 2, 60, 80
3, 36116, Note_on_c, 2, 62, 0
3, 36168, Note_on_c, 2, 82, 80
3, 36168, Note_on_c, 2, 62, 80
3, 36170, Note_on_c, 2, 84, 0
3, 36173, Note_on_c, 2, 60, 0
3, 36224, Note_on_c, 2, 82, 0
3, 36224, Note_on_c, 2, 63, 80
3, 36225, Note_on_c, 2, 81, 80
3, 36235, Note_on_c, 2, 62, 0
3, 36282, Note_on_c, 2, 63, 0
3, 36282, Note_on_c, 2, 65, 80
3, 36285, Note_on_c, 2, 79, 80
3, 36286, Note_on_c, 2, 81, 0
3, 36340, Note_on_c, 2, 79, 0
3, 36342, Note_on_c, 2, 67, 80
3, 36343, Note_on_c, 2, 65, 0
3, 36343, Note_on_c, 2, 77, 80
3, 36354, Note_on_c, 2, 53, 0
3, 36397, Note_on_c, 2, 77, 0
3, 36399, Note_on_c, 2, 69, 80
3, 36402, Note_on_c, 2, 75, 80
3, 36405, Note_on_c, 2, 67, 0
3, 36426, Note_on_c, 2, 75, 0
3, 36457, Note_on_c, 2, 58, 80
3, 36458, Note_on_c, 2, 69, 0
3, 36459, Note_on_c, 2, 70, 80
3, 36464, Note_on_c, 2, 74, 80
3, 36516, Note_on_c, 2, 58, 0
3, 36517, Note_on_c, 2, 60, 80
3, 36530, Note_on_c, 2, 74, 0
3, 36581, Note_on_c, 2, 62, 80
3, 36582, Note_on_c, 2, 60, 0
3, 36587, Note_on_c, 2, 82, 80
3, 36636, Note_on_c, 2, 82, 0
3, 36640, Note_on_c, 2, 63, 80
3, 36647, Note_on_c, 2, 62, 0
3, 36659, Note_on_c, 2, 70, 0
3, 36698, Note_on_c, 2, 63, 0
3, 36700, Note_on_c, 2, 62, 80
3, 36703, Note_on_c, 2, 70, 80
3, 36760, Note_on_c, 2, 60, 80
3, 36767, Note_on_c, 2, 62, 0
3, 36775, Note_on_c, 2, 70, 0
3, 36822, Note_on_c, 2, 58, 80
3, 36824, Note_on_c, 2, 60, 0
3, 36824, Note_on_c, 2, 65, 80
3, 36828, Note_on_c, 2, 74, 80
3, 36868, Note_on_c, 2, 74, 0
3, 36881, Note_on_c, 2, 57, 80
3, 36882, Note_on_c, 2, 58, 0
3, 36882, Note_on_c, 2, 65, 0
3, 36945, Note_on_c, 2, 55, 80
3, 36945, Note_on_c, 2, 63, 80
3, 36950, Note_on_c, 2, 57, 0
3, 36955, Note_on_c, 2, 70, 80
3, 36956, Note_on_c, 2, 75, 80
3, 37004, Note_on_c, 2, 63, 0
3, 37016, Note_on_c, 2, 77, 80
3, 37024, Note_on_c, 2, 75, 0
3, 37071, Note_on_c, 2, 63, 80
3, 37072, Note_on_c, 2, 55, 0
3, 37077, Note_on_c, 2, 79, 80
3, 37078, Note_on_c, 2, 77, 0
3, 37082, Note_on_c, 2, 70, 0
3, 37132, Note_on_c, 2, 63, 0
3, 37137, Note_on_c, 2, 80, 80
3, 37142, Note_on_c, 2, 79, 0
3, 37178, Note_on_c, 2, 80, 0
3, 37186, Note_on_c, 2, 51, 80
3, 37197, Note_on_c, 2, 79, 80
3, 37252, Note_on_c, 2, 77, 80
3, 37259, Note_on_c, 2, 79, 0
3, 37269, Note_on_c, 2, 51, 0
3, 37310, Note_on_c, 2, 77, 0
3, 37312, Note_on_c, 2, 75, 80
3, 37314, Note_on_c, 2, 70, 80
3, 37315, Note_on_c, 2, 55, 80
3, 37364, Note_on_c, 2, 74, 80
3, 37366, Note_on_c, 2, 75, 0
3, 37366, Note_on_c, 2, 55, 0
3, 37399, Note_on_c, 2, 74, 0
3, 37426, Note_on_c, 2, 57, 80
3, 37430, Note_on_c, 2, 72, 80
3, 37438, Note_on_c, 2, 70, 0
3, 37487, Note_on_c, 2, 58, 80
3, 37492, Note_on_c, 2, 70, 80
3, 37498, Note_on_c, 2, 57, 0
3, 37546, Note_on_c, 2, 58, 0
3, 37549, Note_on_c, 2, 60, 80
3, 37554, Note_on_c, 2, 69, 80
3, 37555, Note_on_c, 2, 70, 0
3, 37604, Note_on_c, 2, 62, 80
3, 37608, Note_on_c, 2, 60, 0
3, 37610, Note_on_c, 2, 67, 80
3, 37613, Note_on_c, 2, 69, 0
3, 37662, Note_on_c, 2, 60, 80
3, 37665, Note_on_c, 2, 72, 0
3, 37665, Note_on_c, 2, 62, 0
3, 37667, Note_on_c, 2, 67, 0
3, 37668, Note_on_c, 2, 69, 80
3, 37718, Note_on_c, 2, 58, 80
3, 37723, Note_on_c, 2, 60, 0
3, 37726, Note_on_c, 2, 70, 80
3, 37731, Note_on_c, 2, 69, 0
3, 37756, Note_on_c, 2, 70, 0
3, 37776, Note_on_c, 2, 58, 0
3, 37777, Note_on_c, 2, 57, 80
3, 37785, Note_on_c, 2, 72, 80
3, 37831, Note_on_c, 2, 55, 80
3, 37835, Note_on_c, 2, 57, 0
3, 37892, Note_on_c, 2, 55, 0
3, 37893, Note_on_c, 2, 54, 80
3, 37921, Note_on_c, 2, 72, 0
3, 37947, Note_on_c, 2, 54, 0
3, 37952, Note_on_c, 2, 72, 80
3, 38021, Note_on_c, 2, 72, 0
3, 38022, Note_on_c, 2, 74, 80
3, 38024, Note_on_c, 2, 62, 80
3, 38077, Note_on_c, 2, 74, 0
3, 38094, Note_on_c, 2, 75, 80
3, 38138, Note_on_c, 2, 62, 0
3, 38140, Note_on_c, 2, 50, 80
3, 38153, Note_on_c, 2, 75, 0
3, 38155, Note_on_c, 2, 74, 80
3, 38213, Note_on_c, 2, 72, 80
3, 38219, Note_on_c, 2, 74, 0
3, 38262, Note_on_c, 2, 70, 80
3, 38264, Note_on_c, 2, 50, 0
3, 38267, Note_on_c, 2, 66, 80
3, 38269, Note_on_c, 2, 72, 0
3, 38316, Note_on_c, 2, 70, 0
3, 38320, Note_on_c, 2, 66, 0
3, 38320, Note_on_c, 2, 69, 80
3, 38371, Note_on_c, 2, 69, 0
3, 38382, Note_on_c, 2, 70, 80
3, 38383, Note_on_c, 2, 67, 80
3, 38389, Note_on_c, 2, 79, 80
3, 38436, Note_on_c, 2, 67, 0
3, 38450, Note_on_c, 2, 81, 80
3, 38451, Note_on_c, 2, 79, 0
3, 38453, Note_on_c, 2, 70, 0
3, 38506, Note_on_c, 2, 70, 80
3, 38506, Note_on_c, 2, 79, 80
3, 38507, Note_on_c, 2, 81, 0
3, 38509, Note_on_c, 2, 74, 80
3, 38563, Note_on_c, 2, 86, 80
3, 38564, Note_on_c, 2, 79, 0
3, 38591, Note_on_c, 2, 86, 0
3, 38599, Note_on_c, 2, 74, 0
3, 38605, Note_on_c, 2, 70, 0
3, 38617, Note_on_c, 2, 72, 80
3, 38618, Note_on_c, 2, 69, 80
3, 38620, Note_on_c, 2, 74, 80
3, 38680, Note_on_c, 2, 78, 80
3, 38684, Note_on_c, 2, 74, 0
3, 38721, Note_on_c, 2, 78, 0
3, 38725, Note_on_c, 2, 69, 0
3, 38734, Note_on_c, 2, 70, 80
3, 38735, Note_on_c, 2, 72, 0
3, 38735, Note_on_c, 2, 76, 80
3, 38736, Note_on_c, 2, 67, 80
3, 38794, Note_on_c, 2, 79, 80
3, 38798, Note_on_c, 2, 76, 0
3, 38825, Note_on_c, 2, 67, 0
3, 38831, Note_on_c, 2, 79, 0
3, 38837, Note_on_c, 2, 70, 0
3, 38853, Note_on_c, 2, 69, 80
3, 38853, Note_on_c, 2, 81, 80
3, 38854, Note_on_c, 2, 62, 80
3, 38911, Note_on_c, 2, 60, 80
3, 38913, Note_on_c, 2, 62, 0
3, 38919, Note_on_c, 2, 81, 0
3, 38925, Note_on_c, 2, 82, 80
3, 38977, Note_on_c, 2, 60, 0
3, 38978, Note_on_c, 2, 62, 80
3, 38979, Note_on_c, 2, 82, 0
3, 38982, Note_on_c, 2, 69, 0
3, 38986, Note_on_c, 2, 81, 80
3, 39029, Note_on_c, 2, 55, 80
3, 39040, Note_on_c, 2, 86, 80
3, 39044, Note_on_c, 2, 81, 0
3, 39048, Note_on_c, 2, 62, 0
3, 39061, Note_on_c, 2, 55, 0
3, 39084, Note_on_c, 2, 86, 0
3, 39095, Note_on_c, 2, 69, 80
3, 39101, Note_on_c, 2, 74, 80
3, 39102, Note_on_c, 2, 72, 80
3, 39149, Note_on_c, 2, 69, 0
3, 39152, Note_on_c, 2, 64, 80
3, 39160, Note_on_c, 2, 79, 80
3, 39164, Note_on_c, 2, 74, 0
3, 39194, Note_on_c, 2, 79, 0
3, 39215, Note_on_c, 2, 66, 80
3, 39216, Note_on_c, 2, 78, 80
3, 39217, Note_on_c, 2, 64, 0
3, 39272, Note_on_c, 2, 78, 0
3, 39272, Note_on_c, 2, 62, 80
3, 39273, Note_on_c, 2, 81, 80
3, 39274, Note_on_c, 2, 66, 0
3, 39280, Note_on_c, 2, 72, 0
3, 39321, Note_on_c, 2, 81, 0
3, 39327, Note_on_c, 2, 62, 0
3, 39331, Note_on_c, 2, 67, 80
3, 39333, Note_on_c, 2, 70, 80
3, 39335, Note_on_c, 2, 74, 80
3, 39387, Note_on_c, 2, 74, 0
3, 39389, Note_on_c, 2, 66, 80
3, 39390, Note_on_c, 2, 67, 0
3, 39392, Note_on_c, 2, 70, 0
3, 39446, Note_on_c, 2, 66, 0
3, 39449, Note_on_c, 2, 67, 80
3, 39454, Note_on_c, 2, 74, 80
3, 39456, Note_on_c, 2, 86, 80
3, 39511, Note_on_c, 2, 62, 80
3, 39514, Note_on_c, 2, 67, 0
3, 39519, Note_on_c, 2, 86, 0
3, 39554, Note_on_c, 2, 62, 0
3, 39565, Note_on_c, 2, 74, 0
3, 39568, Note_on_c, 2, 84, 80
3, 39570, Note_on_c, 2, 78, 80
3, 39572, Note_on_c, 2, 74, 80
3, 39625, Note_on_c, 2, 69, 80
3, 39631, Note_on_c, 2, 74, 0
3, 39659, Note_on_c, 2, 84, 0
3, 39683, Note_on_c, 2, 69, 0
3, 39683, Note_on_c, 2, 70, 80
3, 39686, Note_on_c, 2, 78, 0
3, 39690, Note_on_c, 2, 79, 80
3, 39691, Note_on_c, 2, 82, 80
3, 39729, Note_on_c, 2, 82, 0
3, 39736, Note_on_c, 2, 67, 80
3, 39740, Note_on_c, 2, 70, 0
3, 39784, Note_on_c, 2, 67, 0
3, 39798, Note_on_c, 2, 75, 80
3, 39813, Note_on_c, 2, 84, 80
3, 39862, Note_on_c, 2, 69, 80
3, 39867, Note_on_c, 2, 75, 0
3, 39925, Note_on_c, 2, 70, 80
3, 39926, Note_on_c, 2, 69, 0
3, 39933, Note_on_c, 2, 86, 80
3, 39936, Note_on_c, 2, 84, 0
3, 39985, Note_on_c, 2, 70, 0
3, 39985, Note_on_c, 2, 67, 80
3, 39990, Note_on_c, 2, 87, 80
3, 39998, Note_on_c, 2, 86, 0
3, 40040, Note_on_c, 2, 87, 0
3, 40057, Note_on_c, 2, 66, 80
3, 40057, Note_on_c, 2, 86, 80
3, 40061, Note_on_c, 2, 67, 0
3, 40116, Note_on_c, 2, 66, 0
3, 40117, Note_on_c, 2, 74, 80
3, 40126, Note_on_c, 2, 82, 80
3, 40132, Note_on_c, 2, 86, 0
3, 40176, Note_on_c, 2, 82, 0
3, 40177, Note_on_c, 2, 69, 80
3, 40180, Note_on_c, 2, 74, 0
3, 40182, Note_on_c, 2, 78, 80
3, 40183, Note_on_c, 2, 84, 80
3, 40188, Note_on_c, 2, 79, 0
3, 40235, Note_on_c, 2, 84, 0
3, 40235, Note_on_c, 2, 72, 80
3, 40237, Note_on_c, 2, 81, 80
3, 40253, Note_on_c, 2, 69, 0
3, 40267, Note_on_c, 2, 81, 0
3, 40291, Note_on_c, 2, 78, 0
3, 40295, Note_on_c, 2, 72, 0
3, 40296, Note_on_c, 2, 74, 80
3, 40300, Note_on_c, 2, 82, 80
3, 40300, Note_on_c, 2, 79, 80
3, 40342, Note_on_c, 2, 82, 0
3, 40356, Note_on_c, 2, 79, 0
3, 40356, Note_on_c, 2, 75, 80
3, 40358, Note_on_c, 2, 74, 0
3, 40414, Note_on_c, 2, 75, 0
3, 40414, Note_on_c, 2, 74, 80
3, 40418, Note_on_c, 2, 83, 80
3, 40418, Note_on_c, 2, 89, 80
3, 40472, Note_on_c, 2, 74, 0
3, 40473, Note_on_c, 2, 79, 80
3, 40487, Note_on_c, 2, 89, 0
3, 40503, Note_on_c, 2, 79, 0
3, 40507, Note_on_c, 2, 83, 0
3, 40532, Note_on_c, 2, 67, 80
3, 40536, Note_on_c, 2, 84, 80
3, 40537, Note_on_c, 2, 87, 80
3, 40593, Note_on_c, 2, 72, 80
3, 40598, Note_on_c, 2, 67, 0
3, 40613, Note_on_c, 2, 87, 0
3, 40616, Note_on_c, 2, 84, 0
3, 40652, Note_on_c, 2, 71, 80
3, 40655, Note_on_c, 2, 72, 0
3, 40657, Note_on_c, 2, 77, 80
3, 40657, Note_on_c, 2, 86, 80
3, 40708, Note_on_c, 2, 74, 80
3, 40709, Note_on_c, 2, 71, 0
3, 40725, Note_on_c, 2, 86, 0
3, 40739, Note_on_c, 2, 74, 0
3, 40771, Note_on_c, 2, 75, 80
3, 40779, Note_on_c, 2, 75, 80
3, 40781, Note_on_c, 2, 77, 0
3, 40781, Note_on_c, 2, 84, 80
3, 40833, Note_on_c, 2, 75, 0
3, 40834, Note_on_c, 2, 77, 80
3, 40840, Note_on_c, 2, 84, 0
3, 40844, Note_on_c, 2, 83, 80
3, 40881, Note_on_c, 2, 75, 0
3, 40892, Note_on_c, 2, 75, 80
3, 40893, Note_on_c, 2, 77, 0
3, 40900, Note_on_c, 2, 83, 0
3, 40901, Note_on_c, 2, 84, 80
3, 40949, Note_on_c, 2, 79, 80
3, 40950, Note_on_c, 2, 75, 0
3, 40954, Note_on_c, 2, 84, 0
3, 40955, Note_on_c, 2, 79, 80
3, 40971, Note_on_c, 2, 79, 0
3, 40990, Note_on_c, 2, 79, 0
3, 41009, Note_on_c, 2, 67, 80
3, 41017, Note_on_c, 2, 91, 80
3, 41065, Note_on_c, 2, 71, 80
3, 41068, Note_on_c, 2, 67, 0
3, 41077, Note_on_c, 2, 86, 80
3, 41080, Note_on_c, 2, 91, 0
3, 41126, Note_on_c, 2, 69, 80
3, 41127, Note_on_c, 2, 71, 0
3, 41138, Note_on_c, 2, 87, 80
3, 41156, Note_on_c, 2, 86, 0
3, 41184, Note_on_c, 2, 72, 80
3, 41190, Note_on_c, 2, 69, 0
3, 41196, Note_on_c, 2, 84, 80
3, 41198, Note_on_c, 2, 87, 0
3, 41225, Note_on_c, 2, 72, 0
3, 41232, Note_on_c, 2, 84, 0
3, 41253, Note_on_c, 2, 74, 80
3, 41261, Note_on_c, 2, 83, 80
3, 41316, Note_on_c, 2, 75, 80
3, 41318, Note_on_c, 2, 74, 0
3, 41324, Note_on_c, 2, 81, 80
3, 41329, Note_on_c, 2, 83, 0
3, 41376, Note_on_c, 2, 74, 80
3, 41380, Note_on_c, 2, 75, 0
3, 41388, Note_on_c, 2, 83, 80
3, 41390, Note_on_c, 2, 81, 0
3, 41433, Note_on_c, 2, 74, 0
3, 41445, Note_on_c, 2, 83, 0
3, 41446, Note_on_c, 2, 79, 80
3, 41447, Note_on_c, 2, 77, 80
3, 41475, Note_on_c, 2, 79, 0
3, 41487, Note_on_c, 2, 77, 0
3, 41502, Note_on_c, 2, 67, 80
3, 41510, Note_on_c, 2, 91, 80
3, 41559, Note_on_c, 2, 71, 80
3, 41564, Note_on_c, 2, 67, 0
3, 41570, Note_on_c, 2, 86, 80
3, 41574, Note_on_c, 2, 91, 0
3, 41617, Note_on_c, 2, 69, 80
3, 41618, Note_on_c, 2, 71, 0
3, 41627, Note_on_c, 2, 87, 80
3, 41635, Note_on_c, 2, 86, 0
3, 41686, Note_on_c, 2, 69, 0
3, 41686, Note_on_c, 2, 87, 0
3, 41686, Note_on_c, 2, 84, 80
3, 41690, Note_on_c, 2, 72, 80
3, 41722, Note_on_c, 2, 84, 0
3, 41724, Note_on_c, 2, 72, 0
3, 41743, Note_on_c, 2, 71, 80
3, 41750, Note_on_c, 2, 92, 80
3, 41809, Note_on_c, 2, 71, 0
3, 41809, Note_on_c, 2, 86, 80
3, 41809, Note_on_c, 2, 74, 80
3, 41812, Note_on_c, 2, 92, 0
3, 41861, Note_on_c, 2, 74, 0
3, 41863, Note_on_c, 2, 72, 80
3, 41866, Note_on_c, 2, 87, 80
3, 41868, Note_on_c, 2, 86, 0
3, 41921, Note_on_c, 2, 75, 80
3, 41925, Note_on_c, 2, 72, 0
3, 41926, Note_on_c, 2, 87, 0
3, 41926, Note_on_c, 2, 84, 80
3, 41976, Note_on_c, 2, 84, 0
3, 41984, Note_on_c, 2, 74, 80
3, 41985, Note_on_c, 2, 75, 0
3, 41989, Note_on_c, 2, 83, 80
3, 42043, Note_on_c, 2, 72, 80
3, 42051, Note_on_c, 2, 74, 0
3, 42051, Note_on_c, 2, 91, 80
3, 42057, Note_on_c, 2, 83, 0
3, 42099, Note_on_c, 2, 71, 80
3, 42101, Note_on_c, 2, 72, 0
3, 42111, Note_on_c, 2, 86, 80
3, 42116, Note_on_c, 2, 91, 0
3, 42154, Note_on_c, 2, 72, 80
3, 42156, Note_on_c, 2, 71, 0
3, 42172, Note_on_c, 2, 89, 80
3, 42173, Note_on_c, 2, 86, 0
3, 42196, Note_on_c, 2, 72, 0
3, 42219, Note_on_c, 2, 89, 0
3, 42228, Note_on_c, 2, 72, 80
3, 42232, Note_on_c, 2, 79, 80
3, 42233, Note_on_c, 2, 87, 80
3, 42293, Note_on_c, 2, 77, 80
3, 42296, Note_on_c, 2, 79, 0
3, 42347, Note_on_c, 2, 72, 0
3, 42349, Note_on_c, 2, 70, 80
3, 42350, Note_on_c, 2, 77, 0
3, 42352, Note_on_c, 2, 79, 80
3, 42405, Note_on_c, 2, 72, 80
3, 42406, Note_on_c, 2, 72, 80
3, 42413, Note_on_c, 2, 79, 0
3, 42421, Note_on_c, 2, 72, 0
3, 42444, Note_on_c, 2, 70, 0
3, 42461, Note_on_c, 2, 72, 0
3, 42464, Note_on_c, 2, 69, 80
3, 42471, Note_on_c, 2, 84, 80
3, 42532, Note_on_c, 2, 81, 80
3, 42536, Note_on_c, 2, 84, 0
3, 42584, Note_on_c, 2, 81, 0
3, 42586, Note_on_c, 2, 69, 0
3, 42586, Note_on_c, 2, 82, 80
3, 42589, Note_on_c, 2, 67, 80
3, 42641, Note_on_c, 2, 79, 80
3, 42647, Note_on_c, 2, 82, 0
3, 42687, Note_on_c, 2, 79, 0
3, 42690, Note_on_c, 2, 67, 0
3, 42695, Note_on_c, 2, 69, 80
3, 42708, Note_on_c, 2, 78, 80
3, 42759, Note_on_c, 2, 78, 0
3, 42763, Note_on_c, 2, 87, 0
3, 42767, Note_on_c, 2, 76, 80
3, 42770, Note_on_c, 2, 85, 80
3, 42813, Note_on_c, 2, 85, 0
3, 42827, Note_on_c, 2, 76, 0
3, 42828, Note_on_c, 2, 78, 80
3, 42828, Note_on_c, 2, 86, 80
3, 42883, Note_on_c, 2, 74, 80
3, 42886, Note_on_c, 2, 78, 0
3, 42925, Note_on_c, 2, 74, 0
3, 42927, Note_on_c, 2, 86, 0
3, 42936, Note_on_c, 2, 70, 80
3, 42944, Note_on_c, 2, 86, 80
3, 42945, Note_on_c, 2, 69, 0
3, 43001, Note_on_c, 2, 86, 0
3, 43003, Note_on_c, 2, 81, 80
3, 43007, Note_on_c, 2, 90, 80
3, 43052, Note_on_c, 2, 90, 0
3, 43067, Note_on_c, 2, 81, 0
3, 43068, Note_on_c, 2, 82, 80
3, 43069, Note_on_c, 2, 91, 80
3, 43112, Note_on_c, 2, 70, 0
3, 43123, Note_on_c, 2, 82, 0
3, 43127, Note_on_c, 2, 79, 80
3, 43159, Note_on_c, 2, 79, 0
3, 43180, Note_on_c, 2, 72, 80
3, 43188, Note_on_c, 2, 87, 80
3, 43223, Note_on_c, 2, 87, 0
3, 43235, Note_on_c, 2, 91, 0
3, 43249, Note_on_c, 2, 81, 80
3, 43252, Note_on_c, 2, 90, 80
3, 43292, Note_on_c, 2, 90, 0
3, 43296, Note_on_c, 2, 72, 0
3, 43296, Note_on_c, 2, 74, 80
3, 43303, Note_on_c, 2, 81, 0
3, 43304, Note_on_c, 2, 91, 80
3, 43307, Note_on_c, 2, 82, 80
3, 43346, Note_on_c, 2, 82, 0
3, 43363, Note_on_c, 2, 79, 80
3, 43363, Note_on_c, 2, 82, 80
3, 43367, Note_on_c, 2, 91, 0
3, 43398, Note_on_c, 2, 74, 0
3, 43410, Note_on_c, 2, 79, 0
3, 43412, Note_on_c, 2, 82, 0
3, 43421, Note_on_c, 2, 75, 80
3, 43422, Note_on_c, 2, 78, 80
3, 43426, Note_on_c, 2, 84, 80
3, 43475, Note_on_c, 2, 84, 0
3, 43493, Note_on_c, 2, 93, 80
3, 43534, Note_on_c, 2, 93, 0
3, 43559, Note_on_c, 2, 81, 80
3, 43600, Note_on_c, 2, 81, 0
3, 43625, Note_on_c, 2, 84, 80
3, 43674, Note_on_c, 2, 84, 0
3, 43698, Note_on_c, 2, 78, 0
3, 43700, Note_on_c, 2, 75, 0
3, 43703, Note_on_c, 2, 83, 80
3, 43703, Note_on_c, 2, 74, 80
3, 43704, Note_on_c, 2, 79, 80
3, 43704, Note_on_c, 2, 74, 80
3, 43705, Note_on_c, 2, 79, 80
3, 44139, Note_on_c, 2, 74, 0
3, 44140, Note_on_c, 2, 83, 0
3, 44140, Note_on_c, 2, 79, 0
3, 44156, Note_on_c, 2, 79, 0
3, 44157, Note_on_c, 2, 74, 0
3, 44195, Control_c, 2, 7, 82
3, 44195, Control_c, 2, 10, 34
3, 44195, End_track
4, 0, Start_track
4, 0, Title_t, "Man 2"
4, 0, MIDI_port, 0
4, 0, Control_c, 3, 7, 101
4, 0, Control_c, 3, 10, 76
4, 0, Program_c, 3, 19
4, 0, Control_c, 3, 91, 93
4, 9, Note_on_c, 3, 91, 80
4, 65, Note_on_c, 3, 90, 80
4, 66, Note_on_c, 3, 91, 0
4, 126, Note_on_c, 3, 90, 0
4, 127, Note_on_c, 3, 91, 80
4, 178, Note_on_c, 3, 91, 0
4, 182, Note_on_c, 3, 86, 80
4, 239, Note_on_c, 3, 98, 80
4, 240, Note_on_c, 3, 86, 0
4, 296, Note_on_c, 3, 93, 80
4, 298, Note_on_c, 3, 98, 0
4, 347, Note_on_c, 3, 94, 80
4, 354, Note_on_c, 3, 93, 0
4, 404, Note_on_c, 3, 94, 0
4, 406, Note_on_c, 3, 91, 80
4, 434, Note_on_c, 3, 91, 0
4, 463, Note_on_c, 3, 90, 80
4, 528, Note_on_c, 3, 90, 0
4, 529, Note_on_c, 3, 88, 80
4, 588, Note_on_c, 3, 90, 80
4, 592, Note_on_c, 3, 88, 0
4, 642, Note_on_c, 3, 90, 0
4, 645, Note_on_c, 3, 86, 80
4, 682, Note_on_c, 3, 86, 0
4, 706, Note_on_c, 3, 98, 80
4, 770, Note_on_c, 3, 93, 80
4, 777, Note_on_c, 3, 98, 0
4, 825, Note_on_c, 3, 94, 80
4, 833, Note_on_c, 3, 93, 0
4, 880, Note_on_c, 3, 94, 0
4, 884, Note_on_c, 3, 91, 80
4, 918, Note_on_c, 3, 91, 0
4, 953, Note_on_c, 3, 99, 80
4, 1014, Note_on_c, 3, 93, 80
4, 1022, Note_on_c, 3, 99, 0
4, 1069, Note_on_c, 3, 94, 80
4, 1072, Note_on_c, 3, 93, 0
4, 1131, Note_on_c, 3, 94, 0
4, 1131, Note_on_c, 3, 91, 80
4, 1166, Note_on_c, 3, 91, 0
4, 1191, Note_on_c, 3, 90, 80
4, 1251, Note_on_c, 3, 98, 80
4, 1254, Note_on_c, 3, 90, 0
4, 1307, Note_on_c, 3, 93, 80
4, 1310, Note_on_c, 3, 98, 0
4, 1361, Note_on_c, 3, 93, 0
4, 1363, Note_on_c, 3, 96, 80
4, 1401, Note_on_c, 3, 96, 0
4, 1424, Note_on_c, 3, 86, 80
4, 1428, Note_on_c, 3, 94, 80
4, 1485, Note_on_c, 3, 84, 80
4, 1486, Note_on_c, 3, 86, 0
4, 1498, Note_on_c, 3, 94, 0
4, 1543, Note_on_c, 3, 86, 80
4, 1543, Note_on_c, 3, 98, 80
4, 1544, Note_on_c, 3, 84, 0
4, 1598, Note_on_c, 3, 79, 80
4, 1603, Note_on_c, 3, 86, 0
4, 1649, Note_on_c, 3, 79, 0
4, 1656, Note_on_c, 3, 98, 0
4, 1658, Note_on_c, 3, 91, 80
4, 1662, Note_on_c, 3, 97, 80
4, 1715, Note_on_c, 3, 88, 80
4, 1720, Note_on_c, 3, 91, 0
4, 1774, Note_on_c, 3, 97, 0
4, 1775, Note_on_c, 3, 88, 0
4, 1775, Control_c, 3, 7, 101
4, 1775, Control_c, 3, 10, 76
4, 1775, Note_on_c, 3, 89, 80
4, 1780, Note_on_c, 3, 98, 80
4, 1830, Note_on_c, 3, 86, 80
4, 1833, Note_on_c, 3, 89, 0
4, 1870, Note_on_c, 3, 86, 0
4, 1895, Note_on_c, 3, 85, 80
4, 1896, Note_on_c, 3, 98, 0
4, 1897, Note_on_c, 3, 100, 80
4, 1961, Note_on_c, 3, 83, 80
4, 1962, Note_on_c, 3, 85, 0
4, 1984, Note_on_c, 3, 100, 0
4, 2019, Note_on_c, 3, 105, 80
4, 2024, Note_on_c, 3, 85, 80
4, 2029, Note_on_c, 3, 83, 0
4, 2080, Note_on_c, 3, 85, 0
4, 2081, Note_on_c, 3, 81, 80
4, 2133, Note_on_c, 3, 81, 0
4, 2139, Note_on_c, 3, 93, 80
4, 2141, Note_on_c, 3, 97, 80
4, 2144, Note_on_c, 3, 105, 0
4, 2203, Note_on_c, 3, 88, 80
4, 2208, Note_on_c, 3, 93, 0
4, 2209, Note_on_c, 3, 97, 0
4, 2259, Note_on_c, 3, 89, 80
4, 2260, Note_on_c, 3, 98, 80
4, 2264, Note_on_c, 3, 88, 0
4, 2313, Note_on_c, 3, 89, 0
4, 2315, Note_on_c, 3, 86, 80
4, 2319, Note_on_c, 3, 98, 0
4, 2374, Note_on_c, 3, 86, 0
4, 2377, Note_on_c, 3, 94, 80
4, 2381, Note_on_c, 3, 103, 80
4, 2437, Note_on_c, 3, 88, 80
4, 2439, Note_on_c, 3, 94, 0
4, 2500, Note_on_c, 3, 88, 0
4, 2500, Note_on_c, 3, 89, 80
4, 2506, Note_on_c, 3, 105, 80
4, 2507, Note_on_c, 3, 103, 0
4, 2561, Note_on_c, 3, 86, 80
4, 2562, Note_on_c, 3, 106, 80
4, 2563, Note_on_c, 3, 89, 0
4, 2565, Note_on_c, 3, 105, 0
4, 2595, Note_on_c, 3, 86, 0
4, 2618, Note_on_c, 3, 85, 80
4, 2619, Note_on_c, 3, 106, 0
4, 2624, Note_on_c, 3, 105, 80
4, 2677, Note_on_c, 3, 85, 0
4, 2678, Note_on_c, 3, 93, 80
4, 2685, Note_on_c, 3, 101, 80
4, 2687, Note_on_c, 3, 105, 0
4, 2714, Note_on_c, 3, 93, 0
4, 2735, Note_on_c, 3, 88, 80
4, 2742, Note_on_c, 3, 103, 80
4, 2748, Note_on_c, 3, 101, 0
4, 2787, Note_on_c, 3, 91, 80
4, 2788, Note_on_c, 3, 88, 0
4, 2799, Note_on_c, 3, 103, 0
4, 2800, Note_on_c, 3, 100, 80
4, 2814, Note_on_c, 3, 91, 0
4, 2828, Note_on_c, 3, 100, 0
4, 2858, Note_on_c, 3, 89, 80
4, 2868, Note_on_c, 3, 98, 80
4, 2920, Note_on_c, 3, 89, 0
4, 2931, Note_on_c, 3, 100, 80
4, 2940, Note_on_c, 3, 98, 0
4, 2976, Note_on_c, 3, 98, 80
4, 2991, Note_on_c, 3, 101, 80
4, 2995, Note_on_c, 3, 100, 0
4, 3045, Note_on_c, 3, 98, 0
4, 3051, Note_on_c, 3, 103, 80
4, 3054, Note_on_c, 3, 101, 0
4, 3106, Note_on_c, 3, 86, 80
4, 3114, Note_on_c, 3, 101, 80
4, 3118, Note_on_c, 3, 103, 0
4, 3173, Note_on_c, 3, 99, 80
4, 3176, Note_on_c, 3, 101, 0
4, 3178, Note_on_c, 3, 86, 0
4, 3231, Note_on_c, 3, 99, 0
4, 3231, Note_on_c, 3, 98, 80
4, 3232, Note_on_c, 3, 89, 80
4, 3283, Note_on_c, 3, 89, 0
4, 3287, Note_on_c, 3, 96, 80
4, 3290, Note_on_c, 3, 98, 0
4, 3308, Note_on_c, 3, 96, 0
4, 3350, Note_on_c, 3, 91, 80
4, 3351, Note_on_c, 3, 95, 80
4, 3410, Note_on_c, 3, 93, 80
4, 3421, Note_on_c, 3, 91, 0
4, 3453, Note_on_c, 3, 93, 0
4, 3455, Note_on_c, 3, 95, 0
4, 3466, Note_on_c, 3, 103, 80
4, 3467, Note_on_c, 3, 95, 80
4, 3523, Note_on_c, 3, 96, 80
4, 3526, Note_on_c, 3, 95, 0
4, 3550, Note_on_c, 3, 103, 0
4, 3582, Note_on_c, 3, 91, 80
4, 3584, Note_on_c, 3, 96, 0
4, 3590, Note_on_c, 3, 95, 80
4, 3632, Note_on_c, 3, 95, 0
4, 3645, Note_on_c, 3, 93, 80
4, 3679, Note_on_c, 3, 91, 0
4, 3697, Note_on_c, 3, 93, 0
4, 3712, Note_on_c, 3, 95, 80
4, 3712, Note_on_c, 3, 91, 80
4, 3763, Note_on_c, 3, 89, 80
4, 3770, Note_on_c, 3, 91, 0
4, 3773, Note_on_c, 3, 95, 0
4, 3804, Note_on_c, 3, 89, 0
4, 3818, Note_on_c, 3, 87, 80
4, 3832, Note_on_c, 3, 96, 80
4, 3896, Note_on_c, 3, 98, 80
4, 3903, Note_on_c, 3, 96, 0
4, 3919, Note_on_c, 3, 87, 0
4, 3952, Note_on_c, 3, 96, 80
4, 3954, Note_on_c, 3, 99, 80
4, 3966, Note_on_c, 3, 98, 0
4, 4006, Note_on_c, 3, 99, 0
4, 4013, Note_on_c, 3, 101, 80
4, 4017, Note_on_c, 3, 96, 0
4, 4046, Note_on_c, 3, 101, 0
4, 4069, Note_on_c, 3, 84, 80
4, 4074, Note_on_c, 3, 99, 80
4, 4134, Note_on_c, 3, 98, 80
4, 4135, Note_on_c, 3, 99, 0
4, 4171, Note_on_c, 3, 84, 0
4, 4190, Note_on_c, 3, 96, 80
4, 4192, Note_on_c, 3, 98, 0
4, 4196, Note_on_c, 3, 87, 80
4, 4248, Note_on_c, 3, 94, 80
4, 4250, Note_on_c, 3, 96, 0
4, 4255, Note_on_c, 3, 87, 0
4, 4288, Note_on_c, 3, 94, 0
4, 4310, Note_on_c, 3, 89, 80
4, 4316, Note_on_c, 3, 93, 80
4, 4370, Note_on_c, 3, 91, 80
4, 4372, Note_on_c, 3, 89, 0
4, 4421, Note_on_c, 3, 93, 0
4, 4430, Note_on_c, 3, 93, 80
4, 4432, Note_on_c, 3, 101, 80
4, 4433, Note_on_c, 3, 91, 0
4, 4489, Note_on_c, 3, 94, 80
4, 4490, Note_on_c, 3, 93, 0
4, 4518, Note_on_c, 3, 101, 0
4, 4547, Note_on_c, 3, 94, 0
4, 4549, Note_on_c, 3, 89, 80
4, 4551, Note_on_c, 3, 93, 80
4, 4610, Note_on_c, 3, 91, 80
4, 4617, Note_on_c, 3, 93, 0
4, 4648, Note_on_c, 3, 89, 0
4, 4655, Note_on_c, 3, 89, 80
4, 4667, Note_on_c, 3, 91, 0
4, 4671, Note_on_c, 3, 93, 80
4, 4717, Note_on_c, 3, 87, 80
4, 4721, Note_on_c, 3, 89, 0
4, 4724, Note_on_c, 3, 93, 0
4, 4783, Note_on_c, 3, 87, 0
4, 4786, Note_on_c, 3, 86, 80
4, 4798, Note_on_c, 3, 94, 80
4, 4837, Note_on_c, 3, 86, 0
4, 4860, Note_on_c, 3, 96, 80
4, 4861, Note_on_c, 3, 94, 0
4, 4912, Note_on_c, 3, 96, 0
4, 4912, Note_on_c, 3, 94, 80
4, 4917, Note_on_c, 3, 98, 80
4, 4971, Note_on_c, 3, 94, 0
4, 4972, Note_on_c, 3, 98, 0
4, 4972, Note_on_c, 3, 99, 80
4, 5031, Note_on_c, 3, 99, 0
4, 5032, Note_on_c, 3, 82, 80
4, 5033, Note_on_c, 3, 98, 80
4, 5090, Note_on_c, 3, 96, 80
4, 5093, Note_on_c, 3, 98, 0
4, 5111, Note_on_c, 3, 82, 0
4, 5149, Note_on_c, 3, 94, 80
4, 5153, Note_on_c, 3, 96, 0
4, 5153, Note_on_c, 3, 86, 80
4, 5205, Note_on_c, 3, 94, 0
4, 5207, Note_on_c, 3, 93, 80
4, 5220, Note_on_c, 3, 86, 0
4, 5258, Note_on_c, 3, 87, 80
4, 5262, Note_on_c, 3, 93, 0
4, 5270, Note_on_c, 3, 91, 80
4, 5324, Note_on_c, 3, 87, 0
4, 5327, Note_on_c, 3, 91, 0
4, 5335, Note_on_c, 3, 94, 80
4, 5384, Note_on_c, 3, 81, 80
4, 5394, Note_on_c, 3, 96, 80
4, 5396, Note_on_c, 3, 94, 0
4, 5453, Note_on_c, 3, 98, 80
4, 5463, Note_on_c, 3, 96, 0
4, 5497, Note_on_c, 3, 98, 0
4, 5509, Note_on_c, 3, 82, 80
4, 5511, Note_on_c, 3, 81, 0
4, 5518, Note_on_c, 3, 96, 80
4, 5577, Note_on_c, 3, 94, 80
4, 5583, Note_on_c, 3, 96, 0
4, 5587, Note_on_c, 3, 82, 0
4, 5630, Note_on_c, 3, 94, 0
4, 5633, Note_on_c, 3, 93, 80
4, 5635, Note_on_c, 3, 84, 80
4, 5685, Note_on_c, 3, 84, 0
4, 5695, Note_on_c, 3, 91, 80
4, 5698, Note_on_c, 3, 93, 0
4, 5753, Note_on_c, 3, 86, 80
4, 5756, Note_on_c, 3, 91, 0
4, 5764, Note_on_c, 3, 90, 80
4, 5816, Note_on_c, 3, 88, 80
4, 5821, Note_on_c, 3, 90, 0
4, 5823, Note_on_c, 3, 86, 0
4, 5873, Note_on_c, 3, 88, 0
4, 5874, Note_on_c, 3, 90, 80
4, 5882, Note_on_c, 3, 98, 80
4, 5932, Note_on_c, 3, 90, 0
4, 5934, Note_on_c, 3, 91, 80
4, 5947, Note_on_c, 3, 98, 0
4, 5992, Note_on_c, 3, 90, 80
4, 5996, Note_on_c, 3, 91, 0
4, 5998, Note_on_c, 3, 86, 80
4, 6051, Note_on_c, 3, 88, 80
4, 6052, Note_on_c, 3, 90, 0
4, 6099, Note_on_c, 3, 86, 0
4, 6108, Note_on_c, 3, 88, 0
4, 6112, Note_on_c, 3, 86, 80
4, 6115, Note_on_c, 3, 90, 80
4, 6166, Note_on_c, 3, 84, 80
4, 6171, Note_on_c, 3, 90, 0
4, 6173, Note_on_c, 3, 86, 0
4, 6225, Note_on_c, 3, 84, 0
4, 6227, Note_on_c, 3, 82, 80
4, 6231, Note_on_c, 3, 91, 80
4, 6285, Note_on_c, 3, 82, 0
4, 6287, Note_on_c, 3, 86, 80
4, 6316, Note_on_c, 3, 91, 0
4, 6345, Note_on_c, 3, 91, 80
4, 6345, Note_on_c, 3, 99, 80
4, 6347, Note_on_c, 3, 86, 0
4, 6347, Note_on_c, 3, 91, 80
4, 6401, Note_on_c, 3, 93, 80
4, 6403, Note_on_c, 3, 91, 0
4, 6404, Note_on_c, 3, 93, 80
4, 6409, Note_on_c, 3, 91, 0
4, 6418, Note_on_c, 3, 99, 0
4, 6426, Note_on_c, 3, 93, 0
4, 6449, Note_on_c, 3, 93, 0
4, 6462, Note_on_c, 3, 91, 80
4, 6466, Note_on_c, 3, 93, 80
4, 6469, Note_on_c, 3, 91, 80
4, 6521, Note_on_c, 3, 90, 80
4, 6524, Note_on_c, 3, 90, 80
4, 6525, Note_on_c, 3, 91, 0
4, 6530, Note_on_c, 3, 91, 0
4, 6545, Note_on_c, 3, 93, 0
4, 6579, Note_on_c, 3, 90, 0
4, 6580, Note_on_c, 3, 88, 80
4, 6585, Note_on_c, 3, 88, 80
4, 6586, Note_on_c, 3, 90, 0
4, 6586, Note_on_c, 3, 98, 80
4, 6642, Note_on_c, 3, 90, 80
4, 6645, Note_on_c, 3, 88, 0
4, 6646, Note_on_c, 3, 90, 80
4, 6647, Note_on_c, 3, 88, 0
4, 6651, Note_on_c, 3, 98, 0
4, 6668, Note_on_c, 3, 90, 0
4, 6704, Note_on_c, 3, 79, 80
4, 6708, Note_on_c, 3, 94, 80
4, 6710, Note_on_c, 3, 90, 0
4, 6712, Note_on_c, 3, 91, 80
4, 6764, Note_on_c, 3, 78, 80
4, 6766, Note_on_c, 3, 79, 0
4, 6775, Note_on_c, 3, 91, 0
4, 6818, Note_on_c, 3, 78, 0
4, 6821, Note_on_c, 3, 79, 80
4, 6827, Note_on_c, 3, 86, 80
4, 6876, Note_on_c, 3, 74, 80
4, 6882, Note_on_c, 3, 86, 0
4, 6883, Note_on_c, 3, 91, 80
4, 6887, Note_on_c, 3, 79, 0
4, 6919, Note_on_c, 3, 74, 0
4, 6934, Note_on_c, 3, 91, 0
4, 6943, Note_on_c, 3, 94, 0
4, 6943, Note_on_c, 3, 86, 80
4, 6947, Note_on_c, 3, 93, 80
4, 6948, Note_on_c, 3, 90, 80
4, 7003, Note_on_c, 3, 81, 80
4, 7010, Note_on_c, 3, 86, 0
4, 7030, Note_on_c, 3, 93, 0
4, 7050, Note_on_c, 3, 90, 0
4, 7059, Note_on_c, 3, 82, 80
4, 7061, Note_on_c, 3, 81, 0
4, 7066, Note_on_c, 3, 98, 80
4, 7068, Note_on_c, 3, 91, 80
4, 7113, Note_on_c, 3, 79, 80
4, 7121, Note_on_c, 3, 82, 0
4, 7135, Note_on_c, 3, 79, 0
4, 7143, Note_on_c, 3, 98, 0
4, 7155, Note_on_c, 3, 91, 0
4, 7177, Note_on_c, 3, 78, 80
4, 7185, Note_on_c, 3, 96, 80
4, 7186, Note_on_c, 3, 93, 80
4, 7239, Note_on_c, 3, 76, 80
4, 7242, Note_on_c, 3, 78, 0
4, 7292, Note_on_c, 3, 96, 0
4, 7299, Note_on_c, 3, 78, 80
4, 7301, Note_on_c, 3, 98, 80
4, 7302, Note_on_c, 3, 93, 0
4, 7303, Note_on_c, 3, 76, 0
4, 7356, Note_on_c, 3, 74, 80
4, 7357, Note_on_c, 3, 78, 0
4, 7397, Note_on_c, 3, 98, 0
4, 7401, Note_on_c, 3, 74, 0
4, 7412, Note_on_c, 3, 86, 80
4, 7417, Note_on_c, 3, 90, 80
4, 7471, Note_on_c, 3, 81, 80
4, 7476, Note_on_c, 3, 86, 0
4, 7493, Note_on_c, 3, 90, 0
4, 7530, Note_on_c, 3, 82, 80
4, 7531, Note_on_c, 3, 81, 0
4, 7531, Note_on_c, 3, 91, 80
4, 7532, Note_on_c, 3, 94, 80
4, 7583, Note_on_c, 3, 79, 80
4, 7586, Note_on_c, 3, 82, 0
4, 7600, Note_on_c, 3, 94, 0
4, 7604, Note_on_c, 3, 91, 0
4, 7640, Note_on_c, 3, 79, 0
4, 7649, Note_on_c, 3, 96, 80
4, 7651, Note_on_c, 3, 87, 80
4, 7651, Note_on_c, 3, 90, 80
4, 7705, Note_on_c, 3, 81, 80
4, 7708, Note_on_c, 3, 87, 0
4, 7766, Note_on_c, 3, 98, 80
4, 7769, Note_on_c, 3, 96, 0
4, 7769, Note_on_c, 3, 90, 0
4, 7771, Note_on_c, 3, 82, 80
4, 7772, Note_on_c, 3, 81, 0
4, 7821, Note_on_c, 3, 79, 80
4, 7825, Note_on_c, 3, 82, 0
4, 7826, Note_on_c, 3, 99, 80
4, 7827, Note_on_c, 3, 98, 0
4, 7869, Note_on_c, 3, 79, 0
4, 7878, Note_on_c, 3, 78, 80
4, 7884, Note_on_c, 3, 99, 0
4, 7886, Note_on_c, 3, 98, 80
4, 7931, Note_on_c, 3, 78, 0
4, 7935, Note_on_c, 3, 86, 80
4, 7937, Note_on_c, 3, 98, 0
4, 7944, Note_on_c, 3, 94, 80
4, 7977, Note_on_c, 3, 86, 0
4, 7993, Note_on_c, 3, 81, 80
4, 8008, Note_on_c, 3, 94, 0
4, 8009, Note_on_c, 3, 102, 80
4, 8014, Note_on_c, 3, 96, 80
4, 8050, Note_on_c, 3, 81, 0
4, 8053, Note_on_c, 3, 84, 80
4, 8066, Note_on_c, 3, 102, 0
4, 8069, Note_on_c, 3, 93, 80
4, 8072, Note_on_c, 3, 96, 0
4, 8085, Note_on_c, 3, 84, 0
4, 8116, Note_on_c, 3, 82, 80
4, 8117, Note_on_c, 3, 86, 80
4, 8121, Note_on_c, 3, 93, 0
4, 8134, Note_on_c, 3, 103, 80
4, 8167, Note_on_c, 3, 86, 0
4, 8208, Note_on_c, 3, 103, 0
4, 8208, Note_on_c, 3, 105, 80
4, 8239, Note_on_c, 3, 82, 0
4, 8244, Note_on_c, 3, 91, 80
4, 8266, Note_on_c, 3, 106, 80
4, 8269, Note_on_c, 3, 105, 0
4, 8323, Note_on_c, 3, 106, 0
4, 8326, Note_on_c, 3, 108, 80
4, 8340, Note_on_c, 3, 91, 0
4, 8373, Note_on_c, 3, 79, 80
4, 8385, Note_on_c, 3, 106, 80
4, 8388, Note_on_c, 3, 108, 0
4, 8440, Note_on_c, 3, 79, 0
4, 8449, Note_on_c, 3, 105, 80
4, 8450, Note_on_c, 3, 106, 0
4, 8502, Note_on_c, 3, 82, 80
4, 8503, Note_on_c, 3, 86, 80
4, 8506, Note_on_c, 3, 103, 80
4, 8507, Note_on_c, 3, 105, 0
4, 8564, Note_on_c, 3, 101, 80
4, 8566, Note_on_c, 3, 82, 0
4, 8567, Note_on_c, 3, 86, 0
4, 8574, Note_on_c, 3, 103, 0
4, 8588, Note_on_c, 3, 101, 0
4, 8623, Note_on_c, 3, 91, 80
4, 8625, Note_on_c, 3, 84, 80
4, 8631, Note_on_c, 3, 99, 80
4, 8690, Note_on_c, 3, 86, 80
4, 8691, Note_on_c, 3, 84, 0
4, 8716, Note_on_c, 3, 99, 0
4, 8746, Note_on_c, 3, 86, 0
4, 8748, Note_on_c, 3, 108, 80
4, 8748, Note_on_c, 3, 87, 80
4, 8798, Note_on_c, 3, 108, 0
4, 8802, Note_on_c, 3, 87, 0
4, 8804, Note_on_c, 3, 89, 80
4, 8841, Note_on_c, 3, 91, 0
4, 8863, Note_on_c, 3, 89, 0
4, 8864, Note_on_c, 3, 96, 80
4, 8864, Note_on_c, 3, 87, 80
4, 8918, Note_on_c, 3, 86, 80
4, 8919, Note_on_c, 3, 87, 0
4, 8920, Note_on_c, 3, 96, 0
4, 8976, Note_on_c, 3, 84, 80
4, 8977, Note_on_c, 3, 86, 0
4, 8985, Note_on_c, 3, 100, 80
4, 8986, Note_on_c, 3, 91, 80
4, 9029, Note_on_c, 3, 91, 0
4, 9033, Note_on_c, 3, 82, 80
4, 9034, Note_on_c, 3, 100, 0
4, 9036, Note_on_c, 3, 84, 0
4, 9063, Note_on_c, 3, 82, 0
4, 9099, Note_on_c, 3, 81, 80
4, 9106, Note_on_c, 3, 96, 80
4, 9107, Note_on_c, 3, 101, 80
4, 9171, Note_on_c, 3, 103, 80
4, 9177, Note_on_c, 3, 101, 0
4, 9190, Note_on_c, 3, 81, 0
4, 9225, Note_on_c, 3, 105, 80
4, 9228, Note_on_c, 3, 103, 0
4, 9229, Note_on_c, 3, 96, 0
4, 9231, Note_on_c, 3, 89, 80
4, 9281, Note_on_c, 3, 105, 0
4, 9282, Note_on_c, 3, 106, 80
4, 9297, Note_on_c, 3, 89, 0
4, 9342, Note_on_c, 3, 77, 80
4, 9344, Note_on_c, 3, 106, 0
4, 9345, Note_on_c, 3, 105, 80
4, 9408, Note_on_c, 3, 105, 0
4, 9409, Note_on_c, 3, 103, 80
4, 9422, Note_on_c, 3, 77, 0
4, 9465, Note_on_c, 3, 84, 80
4, 9466, Note_on_c, 3, 81, 80
4, 9468, Note_on_c, 3, 101, 80
4, 9469, Note_on_c, 3, 103, 0
4, 9522, Note_on_c, 3, 81, 0
4, 9526, Note_on_c, 3, 101, 0
4, 9529, Note_on_c, 3, 99, 80
4, 9557, Note_on_c, 3, 84, 0
4, 9590, Note_on_c, 3, 82, 80
4, 9590, Note_on_c, 3, 89, 80
4, 9595, Note_on_c, 3, 99, 0
4, 9596, Note_on_c, 3, 98, 80
4, 9646, Note_on_c, 3, 82, 0
4, 9650, Note_on_c, 3, 84, 80
4, 9681, Note_on_c, 3, 98, 0
4, 9699, Note_on_c, 3, 89, 0
4, 9712, Note_on_c, 3, 86, 80
4, 9713, Note_on_c, 3, 84, 0
4, 9714, Note_on_c, 3, 106, 80
4, 9769, Note_on_c, 3, 87, 80
4, 9771, Note_on_c, 3, 86, 0
4, 9794, Note_on_c, 3, 106, 0
4, 9823, Note_on_c, 3, 87, 0
4, 9828, Note_on_c, 3, 86, 80
4, 9830, Note_on_c, 3, 94, 80
4, 9886, Note_on_c, 3, 84, 80
4, 9889, Note_on_c, 3, 86, 0
4, 9901, Note_on_c, 3, 94, 0
4, 9944, Note_on_c, 3, 82, 80
4, 9947, Note_on_c, 3, 84, 0
4, 9948, Note_on_c, 3, 89, 80
4, 9949, Note_on_c, 3, 98, 80
4, 9999, Note_on_c, 3, 89, 0
4, 10001, Note_on_c, 3, 98, 0
4, 10005, Note_on_c, 3, 80, 80
4, 10012, Note_on_c, 3, 82, 0
4, 10060, Note_on_c, 3, 80, 0
4, 10069, Note_on_c, 3, 79, 80
4, 10072, Note_on_c, 3, 99, 80
4, 10073, Note_on_c, 3, 94, 80
4, 10124, Note_on_c, 3, 79, 0
4, 10133, Note_on_c, 3, 82, 80
4, 10189, Note_on_c, 3, 82, 0
4, 10191, Note_on_c, 3, 84, 80
4, 10193, Note_on_c, 3, 99, 0
4, 10199, Note_on_c, 3, 103, 80
4, 10203, Note_on_c, 3, 94, 0
4, 10251, Note_on_c, 3, 103, 0
4, 10254, Note_on_c, 3, 86, 80
4, 10256, Note_on_c, 3, 84, 0
4, 10317, Note_on_c, 3, 86, 0
4, 10317, Note_on_c, 3, 84, 80
4, 10320, Note_on_c, 3, 96, 80
4, 10386, Note_on_c, 3, 82, 80
4, 10396, Note_on_c, 3, 96, 0
4, 10404, Note_on_c, 3, 84, 0
4, 10431, Note_on_c, 3, 81, 80
4, 10433, Note_on_c, 3, 82, 0
4, 10435, Note_on_c, 3, 100, 80
4, 10436, Note_on_c, 3, 94, 80
4, 10480, Note_on_c, 3, 100, 0
4, 10487, Note_on_c, 3, 94, 0
4, 10489, Note_on_c, 3, 79, 80
4, 10495, Note_on_c, 3, 81, 0
4, 10542, Note_on_c, 3, 79, 0
4, 10545, Note_on_c, 3, 81, 80
4, 10558, Note_on_c, 3, 96, 80
4, 10559, Note_on_c, 3, 101, 80
4, 10588, Note_on_c, 3, 81, 0
4, 10609, Note_on_c, 3, 84, 80
4, 10670, Note_on_c, 3, 86, 80
4, 10671, Note_on_c, 3, 84, 0
4, 10680, Note_on_c, 3, 101, 0
4, 10680, Note_on_c, 3, 105, 80
4, 10690, Note_on_c, 3, 96, 0
4, 10728, Note_on_c, 3, 87, 80
4, 10734, Note_on_c, 3, 86, 0
4, 10746, Note_on_c, 3, 105, 0
4, 10789, Note_on_c, 3, 86, 80
4, 10790, Note_on_c, 3, 87, 0
4, 10795, Note_on_c, 3, 98, 80
4, 10847, Note_on_c, 3, 84, 80
4, 10853, Note_on_c, 3, 86, 0
4, 10864, Note_on_c, 3, 98, 0
4, 10905, Note_on_c, 3, 82, 80
4, 10906, Note_on_c, 3, 84, 0
4, 10915, Note_on_c, 3, 102, 80
4, 10964, Note_on_c, 3, 81, 80
4, 10968, Note_on_c, 3, 82, 0
4, 10972, Note_on_c, 3, 102, 0
4, 10988, Note_on_c, 3, 81, 0
4, 11032, Note_on_c, 3, 82, 80
4, 11045, Note_on_c, 3, 103, 80
4, 11046, Note_on_c, 3, 98, 80
4, 11097, Note_on_c, 3, 81, 80
4, 11104, Note_on_c, 3, 82, 0
4, 11106, Note_on_c, 3, 96, 80
4, 11108, Note_on_c, 3, 98, 0
4, 11162, Note_on_c, 3, 79, 80
4, 11165, Note_on_c, 3, 81, 0
4, 11167, Note_on_c, 3, 98, 80
4, 11171, Note_on_c, 3, 96, 0
4, 11178, Note_on_c, 3, 103, 0
4, 11218, Note_on_c, 3, 81, 80
4, 11225, Note_on_c, 3, 91, 80
4, 11229, Note_on_c, 3, 98, 0
4, 11236, Note_on_c, 3, 79, 0
4, 11277, Note_on_c, 3, 82, 80
4, 11278, Note_on_c, 3, 81, 0
4, 11280, Note_on_c, 3, 91, 0
4, 11285, Note_on_c, 3, 103, 80
4, 11335, Note_on_c, 3, 82, 0
4, 11337, Note_on_c, 3, 86, 80
4, 11343, Note_on_c, 3, 98, 80
4, 11349, Note_on_c, 3, 103, 0
4, 11390, Note_on_c, 3, 84, 80
4, 11397, Note_on_c, 3, 98, 0
4, 11398, Note_on_c, 3, 86, 0
4, 11399, Note_on_c, 3, 99, 80
4, 11447, Note_on_c, 3, 87, 80
4, 11455, Note_on_c, 3, 99, 0
4, 11456, Note_on_c, 3, 84, 0
4, 11456, Note_on_c, 3, 96, 80
4, 11486, Note_on_c, 3, 87, 0
4, 11494, Note_on_c, 3, 96, 0
4, 11509, Note_on_c, 3, 86, 80
4, 11514, Note_on_c, 3, 98, 80
4, 11515, Note_on_c, 3, 94, 80
4, 11571, Note_on_c, 3, 94, 0
4, 11575, Note_on_c, 3, 93, 80
4, 11576, Note_on_c, 3, 98, 0
4, 11576, Note_on_c, 3, 96, 80
4, 11610, Note_on_c, 3, 96, 0
4, 11631, Note_on_c, 3, 94, 80
4, 11632, Note_on_c, 3, 98, 80
4, 11636, Note_on_c, 3, 93, 0
4, 11665, Note_on_c, 3, 98, 0
4, 11685, Note_on_c, 3, 91, 80
4, 11687, Note_on_c, 3, 94, 0
4, 11688, Note_on_c, 3, 99, 80
4, 11732, Note_on_c, 3, 91, 0
4, 11734, Note_on_c, 3, 99, 0
4, 11755, Note_on_c, 3, 98, 80
4, 11767, Note_on_c, 3, 93, 80
4, 11776, Note_on_c, 3, 86, 0
4, 11809, Note_on_c, 3, 94, 80
4, 11818, Note_on_c, 3, 98, 0
4, 11837, Note_on_c, 3, 94, 0
4, 11861, Note_on_c, 3, 93, 0
4, 11868, Note_on_c, 3, 86, 80
4, 11869, Note_on_c, 3, 86, 80
4, 11869, Note_on_c, 3, 96, 80
4, 11926, Note_on_c, 3, 96, 0
4, 11927, Note_on_c, 3, 93, 80
4, 11950, Note_on_c, 3, 93, 0
4, 11976, Note_on_c, 3, 86, 0
4, 11990, Note_on_c, 3, 86, 0
4, 11991, Note_on_c, 3, 91, 80
4, 12050, Note_on_c, 3, 90, 80
4, 12052, Note_on_c, 3, 91, 0
4, 12105, Note_on_c, 3, 79, 80
4, 12107, Note_on_c, 3, 90, 0
4, 12107, Note_on_c, 3, 91, 80
4, 12108, Note_on_c, 3, 94, 80
4, 12161, Note_on_c, 3, 86, 80
4, 12167, Note_on_c, 3, 91, 0
4, 12168, Note_on_c, 3, 94, 0
4, 12207, Note_on_c, 3, 79, 0
4, 12220, Note_on_c, 3, 96, 80
4, 12221, Note_on_c, 3, 78, 80
4, 12222, Note_on_c, 3, 98, 80
4, 12225, Note_on_c, 3, 86, 0
4, 12278, Note_on_c, 3, 96, 0
4, 12280, Note_on_c, 3, 93, 80
4, 12281, Note_on_c, 3, 98, 0
4, 12317, Note_on_c, 3, 78, 0
4, 12334, Note_on_c, 3, 79, 80
4, 12338, Note_on_c, 3, 99, 80
4, 12339, Note_on_c, 3, 93, 0
4, 12340, Note_on_c, 3, 94, 80
4, 12395, Note_on_c, 3, 91, 80
4, 12399, Note_on_c, 3, 94, 0
4, 12413, Note_on_c, 3, 79, 0
4, 12416, Note_on_c, 3, 99, 0
4, 12434, Note_on_c, 3, 91, 0
4, 12448, Note_on_c, 3, 98, 80
4, 12449, Note_on_c, 3, 90, 80
4, 12450, Note_on_c, 3, 84, 80
4, 12508, Note_on_c, 3, 90, 0
4, 12509, Note_on_c, 3, 93, 80
4, 12565, Note_on_c, 3, 84, 0
4, 12565, Note_on_c, 3, 86, 80
4, 12568, Note_on_c, 3, 93, 0
4, 12571, Note_on_c, 3, 94, 80
4, 12622, Note_on_c, 3, 86, 0
4, 12624, Note_on_c, 3, 87, 80
4, 12630, Note_on_c, 3, 91, 80
4, 12631, Note_on_c, 3, 94, 0
4, 12639, Note_on_c, 3, 98, 0
4, 12682, Note_on_c, 3, 86, 80
4, 12683, Note_on_c, 3, 87, 0
4, 12686, Note_on_c, 3, 91, 0
4, 12686, Note_on_c, 3, 90, 80
4, 12739, Note_on_c, 3, 82, 80
4, 12745, Note_on_c, 3, 86, 0
4, 12749, Note_on_c, 3, 98, 80
4, 12750, Note_on_c, 3, 90, 0
4, 12796, Note_on_c, 3, 98, 0
4, 12797, Note_on_c, 3, 82, 0
4, 12799, Note_on_c, 3, 84, 80
4, 12807, Note_on_c, 3, 93, 80
4, 12852, Note_on_c, 3, 93, 0
4, 12856, Note_on_c, 3, 81, 80
4, 12862, Note_on_c, 3, 84, 0
4, 12865, Note_on_c, 3, 96, 80
4, 12896, Note_on_c, 3, 81, 0
4, 12896, Note_on_c, 3, 96, 0
4, 12917, Note_on_c, 3, 82, 80
4, 12925, Note_on_c, 3, 98, 80
4, 12925, Note_on_c, 3, 94, 80
4, 12977, Note_on_c, 3, 81, 80
4, 12981, Note_on_c, 3, 82, 0
4, 12991, Note_on_c, 3, 98, 0
4, 12992, Note_on_c, 3, 96, 80
4, 13015, Note_on_c, 3, 94, 0
4, 13043, Note_on_c, 3, 79, 80
4, 13046, Note_on_c, 3, 96, 0
4, 13050, Note_on_c, 3, 81, 0
4, 13054, Note_on_c, 3, 98, 80
4, 13083, Note_on_c, 3, 98, 0
4, 13098, Note_on_c, 3, 81, 80
4, 13103, Note_on_c, 3, 79, 0
4, 13112, Note_on_c, 3, 91, 80
4, 13146, Note_on_c, 3, 91, 0
4, 13157, Note_on_c, 3, 81, 0
4, 13164, Note_on_c, 3, 83, 80
4, 13167, Note_on_c, 3, 103, 80
4, 13235, Note_on_c, 3, 98, 80
4, 13248, Note_on_c, 3, 103, 0
4, 13271, Note_on_c, 3, 83, 0
4, 13283, Note_on_c, 3, 84, 80
4, 13291, Note_on_c, 3, 98, 0
4, 13292, Note_on_c, 3, 99, 80
4, 13353, Note_on_c, 3, 99, 0
4, 13359, Note_on_c, 3, 96, 80
4, 13366, Note_on_c, 3, 84, 0
4, 13398, Note_on_c, 3, 96, 0
4, 13406, Note_on_c, 3, 86, 80
4, 13425, Note_on_c, 3, 95, 80
4, 13489, Note_on_c, 3, 93, 80
4, 13492, Note_on_c, 3, 95, 0
4, 13522, Note_on_c, 3, 86, 0
4, 13547, Note_on_c, 3, 91, 80
4, 13551, Note_on_c, 3, 95, 80
4, 13553, Note_on_c, 3, 93, 0
4, 13604, Note_on_c, 3, 95, 0
4, 13607, Note_on_c, 3, 91, 80
4, 13620, Note_on_c, 3, 91, 0
4, 13649, Note_on_c, 3, 91, 0
4, 13666, Note_on_c, 3, 83, 80
4, 13669, Note_on_c, 3, 103, 80
4, 13733, Note_on_c, 3, 98, 80
4, 13735, Note_on_c, 3, 103, 0
4, 13759, Note_on_c, 3, 83, 0
4, 13787, Note_on_c, 3, 99, 80
4, 13791, Note_on_c, 3, 84, 80
4, 13795, Note_on_c, 3, 98, 0
4, 13834, Note_on_c, 3, 84, 0
4, 13843, Note_on_c, 3, 99, 0
4, 13846, Note_on_c, 3, 96, 80
4, 13893, Note_on_c, 3, 96, 0
4, 13908, Note_on_c, 3, 89, 80
4, 13918, Note_on_c, 3, 104, 80
4, 13982, Note_on_c, 3, 98, 80
4, 13988, Note_on_c, 3, 104, 0
4, 14030, Note_on_c, 3, 91, 80
4, 14032, Note_on_c, 3, 89, 0
4, 14037, Note_on_c, 3, 99, 80
4, 14039, Note_on_c, 3, 98, 0
4, 14091, Note_on_c, 3, 92, 80
4, 14094, Note_on_c, 3, 91, 0
4, 14094, Note_on_c, 3, 99, 0
4, 14094, Note_on_c, 3, 96, 80
4, 14136, Note_on_c, 3, 96, 0
4, 14148, Note_on_c, 3, 91, 80
4, 14150, Note_on_c, 3, 92, 0
4, 14159, Note_on_c, 3, 95, 80
4, 14211, Note_on_c, 3, 87, 80
4, 14215, Note_on_c, 3, 103, 80
4, 14217, Note_on_c, 3, 91, 0
4, 14219, Note_on_c, 3, 95, 0
4, 14267, Note_on_c, 3, 87, 0
4, 14269, Note_on_c, 3, 89, 80
4, 14273, Note_on_c, 3, 98, 80
4, 14277, Note_on_c, 3, 103, 0
4, 14327, Note_on_c, 3, 86, 80
4, 14333, Note_on_c, 3, 89, 0
4, 14334, Note_on_c, 3, 101, 80
4, 14335, Note_on_c, 3, 98, 0
4, 14347, Note_on_c, 3, 86, 0
4, 14392, Note_on_c, 3, 84, 80
4, 14393, Note_on_c, 3, 99, 80
4, 14394, Note_on_c, 3, 101, 0
4, 14452, Note_on_c, 3, 95, 80
4, 14454, Note_on_c, 3, 84, 0
4, 14507, Note_on_c, 3, 95, 0
4, 14508, Note_on_c, 3, 96, 80
4, 14512, Note_on_c, 3, 79, 80
4, 14566, Note_on_c, 3, 98, 80
4, 14568, Note_on_c, 3, 96, 0
4, 14611, Note_on_c, 3, 79, 0
4, 14622, Note_on_c, 3, 72, 80
4, 14624, Note_on_c, 3, 96, 80
4, 14629, Note_on_c, 3, 98, 0
4, 14672, Note_on_c, 3, 72, 0
4, 14687, Note_on_c, 3, 94, 80
4, 14692, Note_on_c, 3, 96, 0
4, 14738, Note_on_c, 3, 75, 80
4, 14750, Note_on_c, 3, 93, 80
4, 14752, Note_on_c, 3, 94, 0
4, 14792, Note_on_c, 3, 75, 0
4, 14808, Note_on_c, 3, 91, 80
4, 14810, Note_on_c, 3, 93, 0
4, 14860, Note_on_c, 3, 77, 80
4, 14862, Note_on_c, 3, 91, 0
4, 14870, Note_on_c, 3, 93, 80
4, 14919, Note_on_c, 3, 99, 0
4, 14924, Note_on_c, 3, 75, 80
4, 14929, Note_on_c, 3, 77, 0
4, 14933, Note_on_c, 3, 93, 0
4, 14958, Note_on_c, 3, 75, 0
4, 14981, Note_on_c, 3, 77, 80
4, 14988, Note_on_c, 3, 93, 80
4, 14989, Note_on_c, 3, 96, 80
4, 15041, Note_on_c, 3, 93, 0
4, 15041, Note_on_c, 3, 96, 0
4, 15042, Note_on_c, 3, 79, 80
4, 15044, Note_on_c, 3, 77, 0
4, 15099, Note_on_c, 3, 77, 80
4, 15101, Note_on_c, 3, 79, 0
4, 15105, Note_on_c, 3, 89, 80
4, 15107, Note_on_c, 3, 93, 80
4, 15157, Note_on_c, 3, 75, 80
4, 15160, Note_on_c, 3, 77, 0
4, 15200, Note_on_c, 3, 93, 0
4, 15212, Note_on_c, 3, 75, 0
4, 15214, Note_on_c, 3, 74, 80
4, 15221, Note_on_c, 3, 89, 0
4, 15225, Note_on_c, 3, 93, 80
4, 15226, Note_on_c, 3, 96, 80
4, 15274, Note_on_c, 3, 96, 0
4, 15275, Note_on_c, 3, 72, 80
4, 15279, Note_on_c, 3, 74, 0
4, 15284, Note_on_c, 3, 93, 0
4, 15329, Note_on_c, 3, 72, 0
4, 15343, Note_on_c, 3, 94, 80
4, 15343, Note_on_c, 3, 70, 80
4, 15345, Note_on_c, 3, 98, 80
4, 15410, Note_on_c, 3, 70, 0
4, 15411, Note_on_c, 3, 93, 80
4, 15414, Note_on_c, 3, 94, 0
4, 15467, Note_on_c, 3, 94, 80
4, 15468, Note_on_c, 3, 93, 0
4, 15472, Note_on_c, 3, 82, 80
4, 15524, Note_on_c, 3, 96, 80
4, 15525, Note_on_c, 3, 94, 0
4, 15528, Note_on_c, 3, 82, 0
4, 15584, Note_on_c, 3, 94, 80
4, 15585, Note_on_c, 3, 70, 80
4, 15587, Note_on_c, 3, 96, 0
4, 15649, Note_on_c, 3, 93, 80
4, 15651, Note_on_c, 3, 70, 0
4, 15653, Note_on_c, 3, 94, 0
4, 15705, Note_on_c, 3, 91, 80
4, 15706, Note_on_c, 3, 74, 80
4, 15707, Note_on_c, 3, 93, 0
4, 15758, Note_on_c, 3, 91, 0
4, 15760, Note_on_c, 3, 90, 80
4, 15761, Note_on_c, 3, 74, 0
4, 15821, Note_on_c, 3, 75, 80
4, 15822, Note_on_c, 3, 90, 0
4, 15827, Note_on_c, 3, 91, 80
4, 15885, Note_on_c, 3, 74, 80
4, 15887, Note_on_c, 3, 75, 0
4, 15892, Note_on_c, 3, 91, 0
4, 15900, Note_on_c, 3, 98, 0
4, 15939, Note_on_c, 3, 91, 80
4, 15940, Note_on_c, 3, 74, 0
4, 15941, Note_on_c, 3, 94, 80
4, 15944, Note_on_c, 3, 75, 80
4, 15997, Note_on_c, 3, 77, 80
4, 15998, Note_on_c, 3, 75, 0
4, 16029, Note_on_c, 3, 91, 0
4, 16047, Note_on_c, 3, 94, 0
4, 16057, Note_on_c, 3, 91, 80
4, 16057, Note_on_c, 3, 75, 80
4, 16058, Note_on_c, 3, 77, 0
4, 16058, Note_on_c, 3, 87, 80
4, 16112, Note_on_c, 3, 74, 80
4, 16113, Note_on_c, 3, 87, 0
4, 16114, Note_on_c, 3, 75, 0
4, 16116, Note_on_c, 3, 91, 0
4, 16172, Note_on_c, 3, 72, 80
4, 16175, Note_on_c, 3, 74, 0
4, 16175, Note_on_c, 3, 94, 80
4, 16176, Note_on_c, 3, 91, 80
4, 16230, Note_on_c, 3, 70, 80
4, 16234, Note_on_c, 3, 94, 0
4, 16235, Note_on_c, 3, 72, 0
4, 16289, Note_on_c, 3, 70, 0
4, 16291, Note_on_c, 3, 69, 80
4, 16299, Note_on_c, 3, 96, 80
4, 16354, Note_on_c, 3, 67, 80
4, 16357, Note_on_c, 3, 69, 0
4, 16416, Note_on_c, 3, 69, 80
4, 16418, Note_on_c, 3, 90, 80
4, 16423, Note_on_c, 3, 67, 0
4, 16431, Note_on_c, 3, 91, 0
4, 16473, Note_on_c, 3, 70, 80
4, 16475, Note_on_c, 3, 69, 0
4, 16479, Note_on_c, 3, 88, 80
4, 16480, Note_on_c, 3, 90, 0
4, 16531, Note_on_c, 3, 70, 0
4, 16532, Note_on_c, 3, 69, 80
4, 16542, Note_on_c, 3, 90, 80
4, 16555, Note_on_c, 3, 88, 0
4, 16595, Note_on_c, 3, 67, 80
4, 16599, Note_on_c, 3, 69, 0
4, 16654, Note_on_c, 3, 66, 80
4, 16659, Note_on_c, 3, 67, 0
4, 16664, Note_on_c, 3, 90, 0
4, 16665, Note_on_c, 3, 91, 80
4, 16712, Note_on_c, 3, 64, 80
4, 16717, Note_on_c, 3, 66, 0
4, 16745, Note_on_c, 3, 91, 0
4, 16773, Note_on_c, 3, 64, 0
4, 16777, Note_on_c, 3, 66, 80
4, 16798, Note_on_c, 3, 93, 80
4, 16828, Note_on_c, 3, 66, 0
4, 16856, Note_on_c, 3, 91, 80
4, 16863, Note_on_c, 3, 93, 0
4, 16909, Note_on_c, 3, 74, 80
4, 16919, Note_on_c, 3, 90, 80
4, 16929, Note_on_c, 3, 91, 0
4, 16977, Note_on_c, 3, 74, 0
4, 16979, Note_on_c, 3, 88, 80
4, 16980, Note_on_c, 3, 90, 0
4, 17036, Note_on_c, 3, 86, 80
4, 17037, Note_on_c, 3, 78, 80
4, 17045, Note_on_c, 3, 88, 0
4, 17096, Note_on_c, 3, 93, 80
4, 17098, Note_on_c, 3, 96, 0
4, 17111, Note_on_c, 3, 78, 0
4, 17153, Note_on_c, 3, 74, 80
4, 17156, Note_on_c, 3, 94, 80
4, 17163, Note_on_c, 3, 93, 0
4, 17216, Note_on_c, 3, 94, 0
4, 17219, Note_on_c, 3, 96, 80
4, 17268, Note_on_c, 3, 74, 0
4, 17269, Note_on_c, 3, 79, 80
4, 17275, Note_on_c, 3, 94, 80
4, 17282, Note_on_c, 3, 96, 0
4, 17331, Note_on_c, 3, 84, 80
4, 17332, Note_on_c, 3, 93, 80
4, 17335, Note_on_c, 3, 84, 80
4, 17336, Note_on_c, 3, 94, 0
4, 17337, Note_on_c, 3, 86, 0
4, 17386, Note_on_c, 3, 84, 0
4, 17386, Note_on_c, 3, 82, 80
4, 17391, Note_on_c, 3, 91, 80
4, 17392, Note_on_c, 3, 82, 80
4, 17393, Note_on_c, 3, 93, 0
4, 17395, Note_on_c, 3, 84, 0
4, 17444, Note_on_c, 3, 81, 80
4, 17446, Note_on_c, 3, 82, 0
4, 17449, Note_on_c, 3, 91, 0
4, 17451, Note_on_c, 3, 82, 0
4, 17451, Note_on_c, 3, 81, 80
4, 17452, Note_on_c, 3, 90, 80
4, 17506, Note_on_c, 3, 82, 80
4, 17507, Note_on_c, 3, 82, 80
4, 17508, Note_on_c, 3, 90, 0
4, 17509, Note_on_c, 3, 91, 80
4, 17510, Note_on_c, 3, 81, 0
4, 17513, Note_on_c, 3, 81, 0
4, 17552, Note_on_c, 3, 82, 0
4, 17572, Note_on_c, 3, 91, 0
4, 17573, Note_on_c, 3, 86, 80
4, 17621, Note_on_c, 3, 83, 80
4, 17629, Note_on_c, 3, 83, 80
4, 17630, Note_on_c, 3, 87, 80
4, 17633, Note_on_c, 3, 86, 0
4, 17646, Note_on_c, 3, 82, 0
4, 17694, Note_on_c, 3, 89, 80
4, 17695, Note_on_c, 3, 87, 0
4, 17756, Note_on_c, 3, 87, 80
4, 17757, Note_on_c, 3, 89, 0
4, 17770, Note_on_c, 3, 83, 0
4, 17780, Note_on_c, 3, 83, 0
4, 17812, Note_on_c, 3, 86, 80
4, 17818, Note_on_c, 3, 86, 80
4, 17869, Note_on_c, 3, 84, 80
4, 17870, Note_on_c, 3, 84, 80
4, 17874, Note_on_c, 3, 86, 0
4, 17875, Note_on_c, 3, 86, 0
4, 17921, Note_on_c, 3, 83, 80
4, 17922, Note_on_c, 3, 84, 0
4, 17930, Note_on_c, 3, 83, 80
4, 17935, Note_on_c, 3, 84, 0
4, 17980, Note_on_c, 3, 83, 0
4, 17982, Note_on_c, 3, 84, 80
4, 17988, Note_on_c, 3, 83, 0
4, 17991, Note_on_c, 3, 84, 80
4, 18047, Note_on_c, 3, 87, 0
4, 18047, Note_on_c, 3, 91, 80
4, 18097, Note_on_c, 3, 79, 0
4, 18109, Note_on_c, 3, 89, 80
4, 18110, Note_on_c, 3, 91, 0
4, 18166, Note_on_c, 3, 87, 80
4, 18168, Note_on_c, 3, 89, 0
4, 18227, Note_on_c, 3, 87, 0
4, 18227, Note_on_c, 3, 79, 80
4, 18229, Note_on_c, 3, 86, 80
4, 18248, Note_on_c, 3, 84, 0
4, 18286, Note_on_c, 3, 79, 0
4, 18288, Note_on_c, 3, 78, 80
4, 18339, Note_on_c, 3, 78, 0
4, 18343, Note_on_c, 3, 88, 80
4, 18343, Note_on_c, 3, 79, 80
4, 18344, Note_on_c, 3, 82, 80
4, 18346, Note_on_c, 3, 82, 80
4, 18352, Note_on_c, 3, 84, 0
4, 18352, Note_on_c, 3, 86, 0
4, 18395, Note_on_c, 3, 79, 0
4, 18395, Note_on_c, 3, 74, 80
4, 18396, Note_on_c, 3, 82, 0
4, 18397, Note_on_c, 3, 81, 80
4, 18399, Note_on_c, 3, 81, 80
4, 18401, Note_on_c, 3, 82, 0
4, 18403, Note_on_c, 3, 90, 80
4, 18411, Note_on_c, 3, 88, 0
4, 18450, Note_on_c, 3, 74, 0
4, 18458, Note_on_c, 3, 79, 80
4, 18459, Note_on_c, 3, 81, 0
4, 18462, Note_on_c, 3, 86, 80
4, 18465, Note_on_c, 3, 91, 80
4, 18470, Note_on_c, 3, 90, 0
4, 18477, Note_on_c, 3, 81, 0
4, 18513, Note_on_c, 3, 86, 0
4, 18519, Note_on_c, 3, 81, 80
4, 18569, Note_on_c, 3, 79, 0
4, 18572, Note_on_c, 3, 82, 80
4, 18577, Note_on_c, 3, 81, 0
4, 18631, Note_on_c, 3, 82, 0
4, 18632, Note_on_c, 3, 79, 80
4, 18694, Note_on_c, 3, 79, 0
4, 18705, Note_on_c, 3, 87, 80
4, 18768, Note_on_c, 3, 87, 0
4, 18770, Note_on_c, 3, 84, 80
4, 18772, Note_on_c, 3, 93, 80
4, 18777, Note_on_c, 3, 91, 0
4, 18816, Note_on_c, 3, 84, 0
4, 18825, Note_on_c, 3, 86, 80
4, 18835, Note_on_c, 3, 94, 80
4, 18837, Note_on_c, 3, 93, 0
4, 18881, Note_on_c, 3, 86, 0
4, 18892, Note_on_c, 3, 94, 0
4, 18892, Note_on_c, 3, 93, 80
4, 18895, Note_on_c, 3, 87, 80
4, 18946, Note_on_c, 3, 87, 0
4, 18948, Note_on_c, 3, 86, 80
4, 18951, Note_on_c, 3, 94, 80
4, 18955, Note_on_c, 3, 93, 0
4, 19008, Note_on_c, 3, 84, 80
4, 19011, Note_on_c, 3, 96, 80
4, 19015, Note_on_c, 3, 86, 0
4, 19017, Note_on_c, 3, 94, 0
4, 19067, Note_on_c, 3, 96, 0
4, 19069, Note_on_c, 3, 82, 80
4, 19070, Note_on_c, 3, 84, 0
4, 19071, Note_on_c, 3, 98, 80
4, 19122, Note_on_c, 3, 94, 80
4, 19123, Note_on_c, 3, 98, 0
4, 19124, Note_on_c, 3, 82, 0
4, 19125, Note_on_c, 3, 81, 80
4, 19176, Note_on_c, 3, 94, 0
4, 19180, Note_on_c, 3, 79, 80
4, 19183, Note_on_c, 3, 81, 0
4, 19184, Note_on_c, 3, 91, 80
4, 19186, Note_on_c, 3, 99, 80
4, 19237, Note_on_c, 3, 91, 0
4, 19238, Note_on_c, 3, 84, 80
4, 19247, Note_on_c, 3, 99, 0
4, 19247, Note_on_c, 3, 103, 80
4, 19296, Note_on_c, 3, 84, 0
4, 19302, Note_on_c, 3, 86, 80
4, 19307, Note_on_c, 3, 101, 80
4, 19313, Note_on_c, 3, 103, 0
4, 19333, Note_on_c, 3, 79, 0
4, 19355, Note_on_c, 3, 82, 80
4, 19357, Note_on_c, 3, 86, 0
4, 19363, Note_on_c, 3, 99, 80
4, 19368, Note_on_c, 3, 101, 0
4, 19389, Note_on_c, 3, 82, 0
4, 19413, Note_on_c, 3, 77, 80
4, 19417, Note_on_c, 3, 81, 80
4, 19426, Note_on_c, 3, 99, 0
4, 19426, Note_on_c, 3, 98, 80
4, 19473, Note_on_c, 3, 89, 80
4, 19477, Note_on_c, 3, 81, 0
4, 19488, Note_on_c, 3, 96, 80
4, 19490, Note_on_c, 3, 98, 0
4, 19500, Note_on_c, 3, 89, 0
4, 19540, Note_on_c, 3, 84, 80
4, 19546, Note_on_c, 3, 94, 80
4, 19551, Note_on_c, 3, 96, 0
4, 19595, Note_on_c, 3, 87, 80
4, 19599, Note_on_c, 3, 84, 0
4, 19599, Note_on_c, 3, 93, 80
4, 19603, Note_on_c, 3, 94, 0
4, 19620, Note_on_c, 3, 87, 0
4, 19621, Note_on_c, 3, 93, 0
4, 19661, Note_on_c, 3, 86, 80
4, 19670, Note_on_c, 3, 94, 80
4, 19731, Note_on_c, 3, 93, 80
4, 19732, Note_on_c, 3, 94, 0
4, 19734, Note_on_c, 3, 77, 0
4, 19785, Note_on_c, 3, 82, 80
4, 19792, Note_on_c, 3, 94, 80
4, 19798, Note_on_c, 3, 93, 0
4, 19847, Note_on_c, 3, 94, 0
4, 19850, Note_on_c, 3, 89, 80
4, 19876, Note_on_c, 3, 89, 0
4, 19877, Note_on_c, 3, 82, 0
4, 19885, Note_on_c, 3, 86, 0
4, 19900, Note_on_c, 3, 81, 80
4, 19902, Note_on_c, 3, 87, 80
4, 19908, Note_on_c, 3, 101, 80
4, 19969, Note_on_c, 3, 96, 80
4, 19971, Note_on_c, 3, 101, 0
4, 20011, Note_on_c, 3, 87, 0
4, 20020, Note_on_c, 3, 86, 80
4, 20021, Note_on_c, 3, 81, 0
4, 20022, Note_on_c, 3, 82, 80
4, 20030, Note_on_c, 3, 98, 80
4, 20031, Note_on_c, 3, 96, 0
4, 20089, Note_on_c, 3, 94, 80
4, 20094, Note_on_c, 3, 98, 0
4, 20098, Note_on_c, 3, 86, 0
4, 20110, Note_on_c, 3, 94, 0
4, 20134, Note_on_c, 3, 82, 0
4, 20138, Note_on_c, 3, 87, 80
4, 20139, Note_on_c, 3, 84, 80
4, 20159, Note_on_c, 3, 93, 80
4, 20218, Note_on_c, 3, 91, 80
4, 20220, Note_on_c, 3, 93, 0
4, 20230, Note_on_c, 3, 84, 0
4, 20260, Note_on_c, 3, 89, 80
4, 20276, Note_on_c, 3, 93, 80
4, 20281, Note_on_c, 3, 91, 0
4, 20327, Note_on_c, 3, 93, 0
4, 20330, Note_on_c, 3, 89, 80
4, 20348, Note_on_c, 3, 89, 0
4, 20355, Note_on_c, 3, 89, 0
4, 20382, Note_on_c, 3, 81, 80
4, 20395, Note_on_c, 3, 101, 80
4, 20457, Note_on_c, 3, 96, 80
4, 20463, Note_on_c, 3, 101, 0
4, 20510, Note_on_c, 3, 87, 0
4, 20510, Note_on_c, 3, 81, 0
4, 20511, Note_on_c, 3, 96, 0
4, 20512, Note_on_c, 3, 86, 80
4, 20513, Note_on_c, 3, 82, 80
4, 20515, Note_on_c, 3, 98, 80
4, 20569, Note_on_c, 3, 98, 0
4, 20572, Note_on_c, 3, 94, 80
4, 20619, Note_on_c, 3, 94, 0
4, 20628, Note_on_c, 3, 93, 80
4, 20629, Note_on_c, 3, 86, 0
4, 20629, Note_on_c, 3, 103, 80
4, 20630, Note_on_c, 3, 82, 0
4, 20631, Note_on_c, 3, 87, 80
4, 20664, Note_on_c, 3, 103, 0
4, 20686, Note_on_c, 3, 96, 80
4, 20713, Note_on_c, 3, 96, 0
4, 20745, Note_on_c, 3, 94, 80
4, 20746, Note_on_c, 3, 98, 80
4, 20747, Note_on_c, 3, 89, 80
4, 20750, Note_on_c, 3, 93, 0
4, 20750, Note_on_c, 3, 87, 0
4, 20803, Note_on_c, 3, 94, 0
4, 20803, Note_on_c, 3, 91, 80
4, 20803, Note_on_c, 3, 94, 80
4, 20804, Note_on_c, 3, 98, 0
4, 20809, Note_on_c, 3, 89, 0
4, 20851, Note_on_c, 3, 94, 0
4, 20859, Note_on_c, 3, 89, 80
4, 20862, Note_on_c, 3, 93, 80
4, 20870, Note_on_c, 3, 91, 0
4, 20918, Note_on_c, 3, 86, 80
4, 20920, Note_on_c, 3, 89, 0
4, 20921, Note_on_c, 3, 101, 80
4, 20940, Note_on_c, 3, 93, 0
4, 20950, Note_on_c, 3, 101, 0
4, 20978, Note_on_c, 3, 87, 80
4, 20981, Note_on_c, 3, 93, 80
4, 20981, Note_on_c, 3, 96, 80
4, 20984, Note_on_c, 3, 86, 0
4, 21024, Note_on_c, 3, 93, 0
4, 21033, Note_on_c, 3, 87, 0
4, 21034, Note_on_c, 3, 84, 80
4, 21039, Note_on_c, 3, 96, 0
4, 21041, Note_on_c, 3, 99, 80
4, 21079, Note_on_c, 3, 99, 0
4, 21080, Note_on_c, 3, 84, 0
4, 21097, Note_on_c, 3, 82, 80
4, 21101, Note_on_c, 3, 94, 80
4, 21104, Note_on_c, 3, 98, 80
4, 21153, Note_on_c, 3, 98, 0
4, 21156, Note_on_c, 3, 82, 0
4, 21162, Note_on_c, 3, 94, 0
4, 21163, Note_on_c, 3, 96, 80
4, 21215, Note_on_c, 3, 96, 0
4, 21216, Note_on_c, 3, 89, 80
4, 21216, Note_on_c, 3, 86, 80
4, 21216, Note_on_c, 3, 94, 80
4, 21271, Note_on_c, 3, 94, 0
4, 21271, Note_on_c, 3, 101, 80
4, 21306, Note_on_c, 3, 101, 0
4, 21311, Note_on_c, 3, 89, 0
4, 21331, Note_on_c, 3, 84, 80
4, 21332, Note_on_c, 3, 87, 80
4, 21336, Note_on_c, 3, 86, 0
4, 21337, Note_on_c, 3, 89, 80
4, 21373, Note_on_c, 3, 87, 0
4, 21380, Note_on_c, 3, 84, 0
4, 21409, Note_on_c, 3, 93, 80
4, 21411, Note_on_c, 3, 89, 0
4, 21448, Note_on_c, 3, 82, 80
4, 21449, Note_on_c, 3, 86, 80
4, 21463, Note_on_c, 3, 91, 80
4, 21464, Note_on_c, 3, 93, 0
4, 21511, Note_on_c, 3, 82, 0
4, 21513, Note_on_c, 3, 86, 0
4, 21520, Note_on_c, 3, 94, 80
4, 21525, Note_on_c, 3, 91, 0
4, 21554, Note_on_c, 3, 94, 0
4, 21576, Note_on_c, 3, 84, 80
4, 21577, Note_on_c, 3, 81, 80
4, 21589, Note_on_c, 3, 96, 80
4, 21642, Note_on_c, 3, 84, 0
4, 21644, Note_on_c, 3, 81, 0
4, 21654, Note_on_c, 3, 96, 0
4, 21656, Note_on_c, 3, 98, 80
4, 21704, Note_on_c, 3, 77, 80
4, 21705, Note_on_c, 3, 81, 80
4, 21715, Note_on_c, 3, 96, 80
4, 21717, Note_on_c, 3, 98, 0
4, 21768, Note_on_c, 3, 101, 80
4, 21772, Note_on_c, 3, 96, 0
4, 21793, Note_on_c, 3, 101, 0
4, 21820, Note_on_c, 3, 81, 0
4, 21823, Note_on_c, 3, 86, 80
4, 21826, Note_on_c, 3, 77, 0
4, 21827, Note_on_c, 3, 89, 80
4, 21889, Note_on_c, 3, 94, 80
4, 21894, Note_on_c, 3, 89, 0
4, 21929, Note_on_c, 3, 86, 0
4, 21938, Note_on_c, 3, 84, 80
4, 21939, Note_on_c, 3, 77, 80
4, 21943, Note_on_c, 3, 93, 80
4, 21950, Note_on_c, 3, 94, 0
4, 21971, Note_on_c, 3, 77, 0
4, 21979, Note_on_c, 3, 84, 0
4, 22000, Note_on_c, 3, 93, 0
4, 22004, Note_on_c, 3, 96, 80
4, 22057, Note_on_c, 3, 79, 80
4, 22058, Note_on_c, 3, 82, 80
4, 22066, Note_on_c, 3, 88, 80
4, 22070, Note_on_c, 3, 96, 0
4, 22128, Note_on_c, 3, 94, 80
4, 22134, Note_on_c, 3, 88, 0
4, 22184, Note_on_c, 3, 93, 80
4, 22186, Note_on_c, 3, 94, 0
4, 22198, Note_on_c, 3, 82, 0
4, 22217, Note_on_c, 3, 79, 0
4, 22236, Note_on_c, 3, 81, 80
4, 22241, Note_on_c, 3, 96, 80
4, 22243, Note_on_c, 3, 93, 0
4, 22281, Note_on_c, 3, 96, 0
4, 22297, Note_on_c, 3, 82, 80
4, 22299, Note_on_c, 3, 81, 0
4, 22304, Note_on_c, 3, 98, 80
4, 22349, Note_on_c, 3, 98, 0
4, 22354, Note_on_c, 3, 82, 0
4, 22356, Note_on_c, 3, 84, 80
4, 22358, Note_on_c, 3, 89, 80
4, 22418, Note_on_c, 3, 84, 0
4, 22418, Note_on_c, 3, 86, 80
4, 22424, Note_on_c, 3, 94, 80
4, 22425, Note_on_c, 3, 89, 0
4, 22466, Note_on_c, 3, 86, 0
4, 22473, Note_on_c, 3, 88, 80
4, 22477, Note_on_c, 3, 91, 80
4, 22480, Note_on_c, 3, 94, 0
4, 22521, Note_on_c, 3, 88, 0
4, 22533, Note_on_c, 3, 91, 0
4, 22536, Note_on_c, 3, 89, 80
4, 22539, Note_on_c, 3, 77, 80
4, 22541, Note_on_c, 3, 93, 80
4, 22586, Note_on_c, 3, 93, 0
4, 22590, Note_on_c, 3, 79, 80
4, 22591, Note_on_c, 3, 77, 0
4, 22592, Note_on_c, 3, 89, 0
4, 22651, Note_on_c, 3, 77, 80
4, 22653, Note_on_c, 3, 79, 0
4, 22659, Note_on_c, 3, 101, 80
4, 22660, Note_on_c, 3, 98, 80
4, 22708, Note_on_c, 3, 82, 80
4, 22710, Note_on_c, 3, 77, 0
4, 22755, Note_on_c, 3, 98, 0
4, 22761, Note_on_c, 3, 82, 0
4, 22764, Note_on_c, 3, 101, 0
4, 22775, Note_on_c, 3, 70, 80
4, 22779, Note_on_c, 3, 99, 80
4, 22780, Note_on_c, 3, 103, 80
4, 22823, Note_on_c, 3, 99, 0
4, 22827, Note_on_c, 3, 103, 0
4, 22834, Note_on_c, 3, 75, 80
4, 22836, Note_on_c, 3, 70, 0
4, 22887, Note_on_c, 3, 74, 80
4, 22889, Note_on_c, 3, 75, 0
4, 22897, Note_on_c, 3, 94, 80
4, 22899, Note_on_c, 3, 101, 80
4, 22950, Note_on_c, 3, 74, 0
4, 22952, Note_on_c, 3, 77, 80
4, 22964, Note_on_c, 3, 101, 0
4, 22979, Note_on_c, 3, 77, 0
4, 23015, Note_on_c, 3, 79, 80
4, 23019, Note_on_c, 3, 99, 80
4, 23028, Note_on_c, 3, 94, 0
4, 23083, Note_on_c, 3, 81, 80
4, 23085, Note_on_c, 3, 79, 0
4, 23088, Note_on_c, 3, 99, 0
4, 23140, Note_on_c, 3, 79, 80
4, 23143, Note_on_c, 3, 81, 0
4, 23147, Note_on_c, 3, 94, 80
4, 23190, Note_on_c, 3, 79, 0
4, 23203, Note_on_c, 3, 82, 80
4, 23228, Note_on_c, 3, 82, 0
4, 23261, Note_on_c, 3, 70, 80
4, 23269, Note_on_c, 3, 103, 80
4, 23307, Note_on_c, 3, 70, 0
4, 23322, Note_on_c, 3, 75, 80
4, 23330, Note_on_c, 3, 94, 0
4, 23345, Note_on_c, 3, 103, 0
4, 23376, Note_on_c, 3, 75, 0
4, 23379, Note_on_c, 3, 74, 80
4, 23387, Note_on_c, 3, 94, 80
4, 23388, Note_on_c, 3, 101, 80
4, 23437, Note_on_c, 3, 74, 0
4, 23440, Note_on_c, 3, 77, 80
4, 23487, Note_on_c, 3, 77, 0
4, 23498, Note_on_c, 3, 69, 80
4, 23503, Note_on_c, 3, 101, 0
4, 23513, Note_on_c, 3, 94, 0
4, 23513, Note_on_c, 3, 99, 80
4, 23516, Note_on_c, 3, 96, 80
4, 23563, Note_on_c, 3, 75, 80
4, 23571, Note_on_c, 3, 69, 0
4, 23620, Note_on_c, 3, 75, 0
4, 23624, Note_on_c, 3, 74, 80
4, 23626, Note_on_c, 3, 94, 80
4, 23631, Note_on_c, 3, 96, 0
4, 23683, Note_on_c, 3, 74, 0
4, 23683, Note_on_c, 3, 93, 80
4, 23684, Note_on_c, 3, 94, 0
4, 23684, Note_on_c, 3, 77, 80
4, 23733, Note_on_c, 3, 77, 0
4, 23739, Note_on_c, 3, 94, 80
4, 23741, Note_on_c, 3, 81, 80
4, 23745, Note_on_c, 3, 93, 0
4, 23750, Note_on_c, 3, 99, 0
4, 23795, Note_on_c, 3, 70, 80
4, 23796, Note_on_c, 3, 81, 0
4, 23801, Note_on_c, 3, 99, 80
4, 23829, Note_on_c, 3, 99, 0
4, 23850, Note_on_c, 3, 94, 0
4, 23853, Note_on_c, 3, 75, 80
4, 23854, Note_on_c, 3, 70, 0
4, 23857, Note_on_c, 3, 93, 80
4, 23860, Note_on_c, 3, 96, 80
4, 23903, Note_on_c, 3, 75, 0
4, 23906, Note_on_c, 3, 72, 80
4, 23918, Note_on_c, 3, 99, 80
4, 23922, Note_on_c, 3, 96, 0
4, 23939, Note_on_c, 3, 99, 0
4, 23966, Note_on_c, 3, 72, 0
4, 23971, Note_on_c, 3, 74, 80
4, 23978, Note_on_c, 3, 94, 80
4, 23978, Note_on_c, 3, 101, 80
4, 23987, Note_on_c, 3, 93, 0
4, 24043, Note_on_c, 3, 99, 80
4, 24047, Note_on_c, 3, 74, 0
4, 24048, Note_on_c, 3, 101, 0
4, 24096, Note_on_c, 3, 70, 80
4, 24097, Note_on_c, 3, 99, 0
4, 24104, Note_on_c, 3, 98, 80
4, 24159, Note_on_c, 3, 96, 80
4, 24162, Note_on_c, 3, 98, 0
4, 24192, Note_on_c, 3, 70, 0
4, 24215, Note_on_c, 3, 82, 80
4, 24218, Note_on_c, 3, 98, 80
4, 24221, Note_on_c, 3, 96, 0
4, 24228, Note_on_c, 3, 94, 0
4, 24269, Note_on_c, 3, 82, 0
4, 24282, Note_on_c, 3, 100, 80
4, 24283, Note_on_c, 3, 98, 0
4, 24331, Note_on_c, 3, 100, 0
4, 24336, Note_on_c, 3, 79, 80
4, 24336, Note_on_c, 3, 101, 80
4, 24337, Note_on_c, 3, 88, 80
4, 24377, Note_on_c, 3, 101, 0
4, 24382, Note_on_c, 3, 88, 0
4, 24389, Note_on_c, 3, 103, 80
4, 24397, Note_on_c, 3, 79, 0
4, 24423, Note_on_c, 3, 103, 0
4, 24452, Note_on_c, 3, 89, 80
4, 24453, Note_on_c, 3, 77, 80
4, 24454, Note_on_c, 3, 105, 80
4, 24481, Note_on_c, 3, 89, 0
4, 24515, Note_on_c, 3, 82, 80
4, 24532, Note_on_c, 3, 105, 0
4, 24569, Note_on_c, 3, 82, 0
4, 24575, Note_on_c, 3, 81, 80
4, 24583, Note_on_c, 3, 96, 80
4, 24628, Note_on_c, 3, 79, 80
4, 24630, Note_on_c, 3, 81, 0
4, 24631, Note_on_c, 3, 77, 0
4, 24639, Note_on_c, 3, 96, 0
4, 24691, Note_on_c, 3, 81, 80
4, 24692, Note_on_c, 3, 79, 0
4, 24701, Note_on_c, 3, 108, 80
4, 24750, Note_on_c, 3, 82, 80
4, 24755, Note_on_c, 3, 81, 0
4, 24810, Note_on_c, 3, 82, 0
4, 24813, Note_on_c, 3, 84, 80
4, 24814, Note_on_c, 3, 77, 80
4, 24815, Note_on_c, 3, 108, 0
4, 24825, Note_on_c, 3, 105, 80
4, 24857, Note_on_c, 3, 77, 0
4, 24873, Note_on_c, 3, 84, 0
4, 24874, Note_on_c, 3, 86, 80
4, 24878, Note_on_c, 3, 105, 0
4, 24911, Note_on_c, 3, 86, 0
4, 24938, Note_on_c, 3, 84, 80
4, 24939, Note_on_c, 3, 87, 80
4, 24948, Note_on_c, 3, 103, 80
4, 25013, Note_on_c, 3, 101, 80
4, 25015, Note_on_c, 3, 103, 0
4, 25043, Note_on_c, 3, 87, 0
4, 25058, Note_on_c, 3, 84, 0
4, 25073, Note_on_c, 3, 79, 80
4, 25078, Note_on_c, 3, 99, 80
4, 25081, Note_on_c, 3, 101, 0
4, 25133, Note_on_c, 3, 99, 0
4, 25135, Note_on_c, 3, 98, 80
4, 25194, Note_on_c, 3, 91, 80
4, 25198, Note_on_c, 3, 99, 80
4, 25200, Note_on_c, 3, 79, 0
4, 25206, Note_on_c, 3, 98, 0
4, 25254, Note_on_c, 3, 99, 0
4, 25259, Note_on_c, 3, 101, 80
4, 25276, Note_on_c, 3, 91, 0
4, 25308, Note_on_c, 3, 101, 0
4, 25309, Note_on_c, 3, 103, 80
4, 25313, Note_on_c, 3, 84, 80
4, 25314, Note_on_c, 3, 87, 80
4, 25363, Note_on_c, 3, 103, 0
4, 25369, Note_on_c, 3, 105, 80
4, 25376, Note_on_c, 3, 84, 0
4, 25377, Note_on_c, 3, 87, 0
4, 25400, Note_on_c, 3, 105, 0
4, 25426, Note_on_c, 3, 79, 80
4, 25430, Note_on_c, 3, 86, 80
4, 25438, Note_on_c, 3, 106, 80
4, 25494, Note_on_c, 3, 84, 80
4, 25495, Note_on_c, 3, 86, 0
4, 25496, Note_on_c, 3, 106, 0
4, 25497, Note_on_c, 3, 105, 80
4, 25549, Note_on_c, 3, 84, 0
4, 25555, Note_on_c, 3, 105, 0
4, 25555, Note_on_c, 3, 103, 80
4, 25555, Note_on_c, 3, 82, 80
4, 25609, Note_on_c, 3, 103, 0
4, 25609, Note_on_c, 3, 81, 80
4, 25611, Note_on_c, 3, 82, 0
4, 25614, Note_on_c, 3, 102, 80
4, 25665, Note_on_c, 3, 82, 80
4, 25667, Note_on_c, 3, 81, 0
4, 25673, Note_on_c, 3, 79, 0
4, 25673, Note_on_c, 3, 102, 0
4, 25676, Note_on_c, 3, 103, 80
4, 25725, Note_on_c, 3, 84, 80
4, 25728, Note_on_c, 3, 82, 0
4, 25736, Note_on_c, 3, 103, 0
4, 25736, Note_on_c, 3, 106, 80
4, 25786, Note_on_c, 3, 79, 80
4, 25787, Note_on_c, 3, 86, 80
4, 25788, Note_on_c, 3, 84, 0
4, 25797, Note_on_c, 3, 106, 0
4, 25798, Note_on_c, 3, 105, 80
4, 25846, Note_on_c, 3, 86, 0
4, 25849, Note_on_c, 3, 87, 80
4, 25855, Note_on_c, 3, 105, 0
4, 25858, Note_on_c, 3, 103, 80
4, 25872, Note_on_c, 3, 79, 0
4, 25908, Note_on_c, 3, 87, 0
4, 25912, Note_on_c, 3, 89, 80
4, 25913, Note_on_c, 3, 103, 0
4, 25913, Note_on_c, 3, 86, 80
4, 25914, Note_on_c, 3, 101, 80
4, 25973, Note_on_c, 3, 101, 0
4, 25973, Note_on_c, 3, 99, 80
4, 25990, Note_on_c, 3, 89, 0
4, 26009, Note_on_c, 3, 86, 0
4, 26026, Note_on_c, 3, 89, 80
4, 26035, Note_on_c, 3, 99, 0
4, 26035, Note_on_c, 3, 98, 80
4, 26089, Note_on_c, 3, 98, 0
4, 26089, Note_on_c, 3, 96, 80
4, 26121, Note_on_c, 3, 96, 0
4, 26127, Note_on_c, 3, 89, 0
4, 26145, Note_on_c, 3, 79, 80
4, 26152, Note_on_c, 3, 95, 80
4, 26211, Note_on_c, 3, 92, 80
4, 26218, Note_on_c, 3, 95, 0
4, 26222, Note_on_c, 3, 79, 0
4, 26269, Note_on_c, 3, 83, 80
4, 26271, Note_on_c, 3, 91, 80
4, 26272, Note_on_c, 3, 92, 0
4, 26328, Note_on_c, 3, 89, 80
4, 26332, Note_on_c, 3, 91, 0
4, 26352, Note_on_c, 3, 83, 0
4, 26360, Note_on_c, 3, 89, 0
4, 26391, Note_on_c, 3, 84, 80
4, 26392, Note_on_c, 3, 87, 80
4, 26455, Note_on_c, 3, 98, 80
4, 26474, Note_on_c, 3, 84, 0
4, 26514, Note_on_c, 3, 96, 80
4, 26517, Note_on_c, 3, 87, 80
4, 26524, Note_on_c, 3, 98, 0
4, 26573, Note_on_c, 3, 87, 0
4, 26573, Note_on_c, 3, 94, 80
4, 26576, Note_on_c, 3, 87, 0
4, 26579, Note_on_c, 3, 96, 0
4, 26615, Note_on_c, 3, 94, 0
4, 26628, Note_on_c, 3, 77, 80
4, 26634, Note_on_c, 3, 93, 80
4, 26694, Note_on_c, 3, 91, 80
4, 26704, Note_on_c, 3, 93, 0
4, 26726, Note_on_c, 3, 77, 0
4, 26749, Note_on_c, 3, 91, 0
4, 26752, Note_on_c, 3, 89, 80
4, 26757, Note_on_c, 3, 81, 80
4, 26788, Note_on_c, 3, 89, 0
4, 26796, Note_on_c, 3, 81, 0
4, 26803, Note_on_c, 3, 87, 80
4, 26821, Note_on_c, 3, 87, 0
4, 26866, Note_on_c, 3, 86, 80
4, 26867, Note_on_c, 3, 82, 80
4, 26928, Note_on_c, 3, 82, 0
4, 26929, Note_on_c, 3, 84, 80
4, 26974, Note_on_c, 3, 86, 0
4, 26979, Note_on_c, 3, 98, 80
4, 26985, Note_on_c, 3, 82, 80
4, 26993, Note_on_c, 3, 84, 0
4, 27033, Note_on_c, 3, 82, 0
4, 27034, Note_on_c, 3, 98, 0
4, 27041, Note_on_c, 3, 89, 80
4, 27085, Note_on_c, 3, 89, 0
4, 27097, Note_on_c, 3, 77, 80
4, 27098, Note_on_c, 3, 99, 80
4, 27098, Note_on_c, 3, 93, 80
4, 27156, Note_on_c, 3, 82, 80
4, 27161, Note_on_c, 3, 98, 80
4, 27162, Note_on_c, 3, 77, 0
4, 27164, Note_on_c, 3, 99, 0
4, 27215, Note_on_c, 3, 81, 80
4, 27219, Note_on_c, 3, 98, 0
4, 27221, Note_on_c, 3, 82, 0
4, 27221, Note_on_c, 3, 99, 80
4, 27274, Note_on_c, 3, 81, 0
4, 27277, Note_on_c, 3, 99, 0
4, 27279, Note_on_c, 3, 84, 80
4, 27280, Note_on_c, 3, 96, 80
4, 27291, Note_on_c, 3, 93, 0
4, 27314, Note_on_c, 3, 96, 0
4, 27332, Note_on_c, 3, 84, 0
4, 27338, Note_on_c, 3, 82, 80
4, 27339, Note_on_c, 3, 89, 80
4, 27342, Note_on_c, 3, 101, 80
4, 27400, Note_on_c, 3, 91, 80
4, 27401, Note_on_c, 3, 89, 0
4, 27402, Note_on_c, 3, 99, 80
4, 27408, Note_on_c, 3, 101, 0
4, 27456, Note_on_c, 3, 91, 0
4, 27458, Note_on_c, 3, 89, 80
4, 27463, Note_on_c, 3, 99, 0
4, 27466, Note_on_c, 3, 101, 80
4, 27472, Note_on_c, 3, 82, 0
4, 27515, Note_on_c, 3, 89, 0
4, 27522, Note_on_c, 3, 94, 80
4, 27523, Note_on_c, 3, 98, 80
4, 27524, Note_on_c, 3, 101, 0
4, 27543, Note_on_c, 3, 98, 0
4, 27572, Note_on_c, 3, 82, 80
4, 27579, Note_on_c, 3, 94, 0
4, 27584, Note_on_c, 3, 103, 80
4, 27585, Note_on_c, 3, 98, 80
4, 27633, Note_on_c, 3, 87, 80
4, 27636, Note_on_c, 3, 82, 0
4, 27646, Note_on_c, 3, 96, 80
4, 27647, Note_on_c, 3, 98, 0
4, 27687, Note_on_c, 3, 87, 0
4, 27688, Note_on_c, 3, 86, 80
4, 27706, Note_on_c, 3, 98, 80
4, 27709, Note_on_c, 3, 96, 0
4, 27748, Note_on_c, 3, 86, 0
4, 27753, Note_on_c, 3, 89, 80
4, 27762, Note_on_c, 3, 98, 0
4, 27763, Note_on_c, 3, 94, 80
4, 27781, Note_on_c, 3, 94, 0
4, 27800, Note_on_c, 3, 89, 0
4, 27809, Note_on_c, 3, 81, 80
4, 27823, Note_on_c, 3, 93, 80
4, 27874, Note_on_c, 3, 87, 80
4, 27879, Note_on_c, 3, 81, 0
4, 27891, Note_on_c, 3, 102, 80
4, 27892, Note_on_c, 3, 103, 0
4, 27933, Note_on_c, 3, 87, 0
4, 27936, Note_on_c, 3, 86, 80
4, 27950, Note_on_c, 3, 102, 0
4, 27951, Note_on_c, 3, 103, 80
4, 27962, Note_on_c, 3, 93, 0
4, 28000, Note_on_c, 3, 86, 0
4, 28004, Note_on_c, 3, 91, 80
4, 28005, Note_on_c, 3, 94, 80
4, 28044, Note_on_c, 3, 94, 0
4, 28064, Note_on_c, 3, 91, 0
4, 28064, Note_on_c, 3, 93, 80
4, 28070, Note_on_c, 3, 96, 80
4, 28120, Note_on_c, 3, 86, 80
4, 28126, Note_on_c, 3, 93, 0
4, 28128, Note_on_c, 3, 105, 80
4, 28133, Note_on_c, 3, 103, 0
4, 28153, Note_on_c, 3, 105, 0
4, 28181, Note_on_c, 3, 86, 0
4, 28182, Note_on_c, 3, 87, 80
4, 28193, Note_on_c, 3, 102, 80
4, 28242, Note_on_c, 3, 84, 80
4, 28245, Note_on_c, 3, 87, 0
4, 28297, Note_on_c, 3, 102, 0
4, 28299, Note_on_c, 3, 84, 0
4, 28305, Note_on_c, 3, 103, 80
4, 28305, Note_on_c, 3, 86, 80
4, 28368, Note_on_c, 3, 86, 0
4, 28368, Note_on_c, 3, 87, 80
4, 28406, Note_on_c, 3, 96, 0
4, 28426, Note_on_c, 3, 103, 0
4, 28426, Note_on_c, 3, 98, 80
4, 28427, Note_on_c, 3, 86, 80
4, 28428, Note_on_c, 3, 87, 0
4, 28430, Note_on_c, 3, 94, 80
4, 28477, Note_on_c, 3, 86, 0
4, 28484, Note_on_c, 3, 93, 80
4, 28485, Note_on_c, 3, 91, 80
4, 28489, Note_on_c, 3, 94, 0
4, 28507, Note_on_c, 3, 98, 0
4, 28537, Note_on_c, 3, 91, 0
4, 28544, Note_on_c, 3, 79, 80
4, 28547, Note_on_c, 3, 91, 80
4, 28548, Note_on_c, 3, 93, 0
4, 28550, Note_on_c, 3, 99, 80
4, 28606, Note_on_c, 3, 84, 80
4, 28613, Note_on_c, 3, 79, 0
4, 28664, Note_on_c, 3, 82, 80
4, 28666, Note_on_c, 3, 84, 0
4, 28675, Note_on_c, 3, 99, 0
4, 28680, Note_on_c, 3, 98, 80
4, 28727, Note_on_c, 3, 82, 0
4, 28730, Note_on_c, 3, 86, 80
4, 28773, Note_on_c, 3, 86, 0
4, 28792, Note_on_c, 3, 87, 80
4, 28795, Note_on_c, 3, 98, 0
4, 28795, Note_on_c, 3, 96, 80
4, 28808, Note_on_c, 3, 91, 0
4, 28855, Note_on_c, 3, 89, 80
4, 28857, Note_on_c, 3, 87, 0
4, 28869, Note_on_c, 3, 96, 0
4, 28917, Note_on_c, 3, 89, 0
4, 28917, Note_on_c, 3, 91, 80
4, 28918, Note_on_c, 3, 87, 80
4, 28972, Note_on_c, 3, 91, 80
4, 28977, Note_on_c, 3, 87, 0
4, 29001, Note_on_c, 3, 91, 0
4, 29032, Note_on_c, 3, 79, 80
4, 29038, Note_on_c, 3, 91, 0
4, 29039, Note_on_c, 3, 99, 80
4, 29090, Note_on_c, 3, 84, 80
4, 29097, Note_on_c, 3, 79, 0
4, 29145, Note_on_c, 3, 99, 0
4, 29149, Note_on_c, 3, 82, 80
4, 29152, Note_on_c, 3, 84, 0
4, 29152, Note_on_c, 3, 98, 80
4, 29204, Note_on_c, 3, 98, 0
4, 29205, Note_on_c, 3, 82, 0
4, 29208, Note_on_c, 3, 86, 80
4, 29264, Note_on_c, 3, 86, 0
4, 29264, Note_on_c, 3, 78, 80
4, 29265, Note_on_c, 3, 93, 80
4, 29326, Note_on_c, 3, 84, 80
4, 29328, Note_on_c, 3, 78, 0
4, 29352, Note_on_c, 3, 93, 0
4, 29383, Note_on_c, 3, 84, 0
4, 29384, Note_on_c, 3, 82, 80
4, 29393, Note_on_c, 3, 91, 80
4, 29442, Note_on_c, 3, 86, 80
4, 29443, Note_on_c, 3, 82, 0
4, 29458, Note_on_c, 3, 90, 80
4, 29460, Note_on_c, 3, 91, 0
4, 29503, Note_on_c, 3, 86, 0
4, 29510, Note_on_c, 3, 87, 80
4, 29513, Note_on_c, 3, 90, 0
4, 29520, Note_on_c, 3, 91, 80
4, 29566, Note_on_c, 3, 87, 0
4, 29567, Note_on_c, 3, 79, 80
4, 29576, Note_on_c, 3, 94, 80
4, 29577, Note_on_c, 3, 91, 0
4, 29627, Note_on_c, 3, 84, 80
4, 29631, Note_on_c, 3, 79, 0
4, 29632, Note_on_c, 3, 93, 80
4, 29633, Note_on_c, 3, 94, 0
4, 29682, Note_on_c, 3, 81, 80
4, 29684, Note_on_c, 3, 84, 0
4, 29689, Note_on_c, 3, 93, 0
4, 29689, Note_on_c, 3, 96, 80
4, 29716, Note_on_c, 3, 96, 0
4, 29743, Note_on_c, 3, 81, 0
4, 29745, Note_on_c, 3, 82, 80
4, 29746, Note_on_c, 3, 79, 80
4, 29752, Note_on_c, 3, 98, 80
4, 29802, Note_on_c, 3, 81, 80
4, 29807, Note_on_c, 3, 82, 0
4, 29817, Note_on_c, 3, 79, 0
4, 29861, Note_on_c, 3, 81, 0
4, 29863, Note_on_c, 3, 91, 80
4, 29865, Note_on_c, 3, 82, 80
4, 29911, Note_on_c, 3, 82, 0
4, 29926, Note_on_c, 3, 86, 80
4, 29956, Note_on_c, 3, 86, 0
4, 29980, Note_on_c, 3, 94, 80
4, 29984, Note_on_c, 3, 91, 0
4, 29984, Note_on_c, 3, 74, 80
4, 30038, Note_on_c, 3, 79, 80
4, 30044, Note_on_c, 3, 74, 0
4, 30095, Note_on_c, 3, 78, 80
4, 30096, Note_on_c, 3, 79, 0
4, 30103, Note_on_c, 3, 93, 80
4, 30104, Note_on_c, 3, 94, 0
4, 30146, Note_on_c, 3, 78, 0
4, 30149, Note_on_c, 3, 81, 80
4, 30196, Note_on_c, 3, 81, 0
4, 30213, Note_on_c, 3, 82, 80
4, 30218, Note_on_c, 3, 91, 80
4, 30228, Note_on_c, 3, 93, 0
4, 30278, Note_on_c, 3, 82, 0
4, 30278, Note_on_c, 3, 84, 80
4, 30293, Note_on_c, 3, 91, 0
4, 30339, Note_on_c, 3, 84, 0
4, 30345, Note_on_c, 3, 82, 80
4, 30350, Note_on_c, 3, 86, 80
4, 30404, Note_on_c, 3, 82, 0
4, 30412, Note_on_c, 3, 86, 80
4, 30455, Note_on_c, 3, 74, 80
4, 30471, Note_on_c, 3, 86, 0
4, 30472, Note_on_c, 3, 94, 80
4, 30476, Note_on_c, 3, 86, 0
4, 30477, Note_on_c, 3, 98, 0
4, 30519, Note_on_c, 3, 79, 80
4, 30524, Note_on_c, 3, 74, 0
4, 30574, Note_on_c, 3, 77, 80
4, 30577, Note_on_c, 3, 79, 0
4, 30590, Note_on_c, 3, 94, 0
4, 30592, Note_on_c, 3, 93, 80
4, 30632, Note_on_c, 3, 77, 0
4, 30636, Note_on_c, 3, 81, 80
4, 30684, Note_on_c, 3, 81, 0
4, 30704, Note_on_c, 3, 88, 80
4, 30705, Note_on_c, 3, 93, 0
4, 30711, Note_on_c, 3, 73, 80
4, 30754, Note_on_c, 3, 73, 0
4, 30762, Note_on_c, 3, 79, 80
4, 30792, Note_on_c, 3, 88, 0
4, 30820, Note_on_c, 3, 79, 0
4, 30822, Note_on_c, 3, 78, 80
4, 30828, Note_on_c, 3, 86, 80
4, 30877, Note_on_c, 3, 78, 0
4, 30877, Note_on_c, 3, 81, 80
4, 30888, Note_on_c, 3, 85, 80
4, 30893, Note_on_c, 3, 86, 0
4, 30933, Note_on_c, 3, 81, 0
4, 30936, Note_on_c, 3, 82, 80
4, 30949, Note_on_c, 3, 85, 0
4, 30950, Note_on_c, 3, 86, 80
4, 30992, Note_on_c, 3, 74, 80
4, 30995, Note_on_c, 3, 82, 0
4, 31009, Note_on_c, 3, 89, 80
4, 31012, Note_on_c, 3, 86, 0
4, 31056, Note_on_c, 3, 79, 80
4, 31058, Note_on_c, 3, 74, 0
4, 31066, Note_on_c, 3, 88, 80
4, 31067, Note_on_c, 3, 89, 0
4, 31114, Note_on_c, 3, 76, 80
4, 31115, Note_on_c, 3, 79, 0
4, 31122, Note_on_c, 3, 88, 0
4, 31123, Note_on_c, 3, 91, 80
4, 31170, Note_on_c, 3, 76, 0
4, 31173, Note_on_c, 3, 77, 80
4, 31185, Note_on_c, 3, 93, 80
4, 31186, Note_on_c, 3, 91, 0
4, 31234, Note_on_c, 3, 76, 80
4, 31235, Note_on_c, 3, 77, 0
4, 31259, Note_on_c, 3, 93, 0
4, 31294, Note_on_c, 3, 74, 80
4, 31296, Note_on_c, 3, 76, 0
4, 31302, Note_on_c, 3, 81, 80
4, 31351, Note_on_c, 3, 73, 80
4, 31356, Note_on_c, 3, 74, 0
4, 31412, Note_on_c, 3, 74, 80
4, 31413, Note_on_c, 3, 73, 0
4, 31416, Note_on_c, 3, 89, 80
4, 31420, Note_on_c, 3, 81, 0
4, 31469, Note_on_c, 3, 76, 80
4, 31470, Note_on_c, 3, 74, 0
4, 31528, Note_on_c, 3, 77, 80
4, 31532, Note_on_c, 3, 76, 0
4, 31543, Note_on_c, 3, 86, 80
4, 31544, Note_on_c, 3, 89, 0
4, 31561, Note_on_c, 3, 77, 0
4, 31586, Note_on_c, 3, 79, 80
4, 31619, Note_on_c, 3, 79, 0
4, 31623, Note_on_c, 3, 86, 0
4, 31652, Note_on_c, 3, 81, 80
4, 31665, Note_on_c, 3, 85, 80
4, 31718, Note_on_c, 3, 81, 0
4, 31731, Note_on_c, 3, 83, 80
4, 31736, Note_on_c, 3, 85, 0
4, 31780, Note_on_c, 3, 69, 80
4, 31791, Note_on_c, 3, 81, 80
4, 31796, Note_on_c, 3, 83, 0
4, 31833, Note_on_c, 3, 69, 0
4, 31847, Note_on_c, 3, 83, 80
4, 31853, Note_on_c, 3, 81, 0
4, 31916, Note_on_c, 3, 85, 80
4, 31917, Note_on_c, 3, 83, 0
4, 31972, Note_on_c, 3, 85, 0
4, 31972, Note_on_c, 3, 81, 80
4, 31973, Note_on_c, 3, 86, 80
4, 32033, Note_on_c, 3, 79, 80
4, 32033, Note_on_c, 3, 88, 80
4, 32036, Note_on_c, 3, 81, 0
4, 32038, Note_on_c, 3, 86, 0
4, 32091, Note_on_c, 3, 77, 80
4, 32093, Note_on_c, 3, 79, 0
4, 32093, Note_on_c, 3, 89, 80
4, 32095, Note_on_c, 3, 88, 0
4, 32110, Note_on_c, 3, 77, 0
4, 32152, Note_on_c, 3, 76, 80
4, 32157, Note_on_c, 3, 89, 0
4, 32157, Note_on_c, 3, 91, 80
4, 32211, Note_on_c, 3, 76, 0
4, 32212, Note_on_c, 3, 74, 80
4, 32214, Note_on_c, 3, 89, 80
4, 32223, Note_on_c, 3, 91, 0
4, 32269, Note_on_c, 3, 74, 0
4, 32270, Note_on_c, 3, 73, 80
4, 32274, Note_on_c, 3, 88, 80
4, 32278, Note_on_c, 3, 89, 0
4, 32328, Note_on_c, 3, 73, 0
4, 32328, Note_on_c, 3, 74, 80
4, 32334, Note_on_c, 3, 89, 80
4, 32348, Note_on_c, 3, 88, 0
4, 32387, Note_on_c, 3, 76, 80
4, 32391, Note_on_c, 3, 74, 0
4, 32394, Note_on_c, 3, 89, 0
4, 32396, Note_on_c, 3, 91, 80
4, 32447, Note_on_c, 3, 76, 0
4, 32452, Note_on_c, 3, 77, 80
4, 32453, Note_on_c, 3, 93, 80
4, 32454, Note_on_c, 3, 91, 0
4, 32506, Note_on_c, 3, 77, 0
4, 32507, Note_on_c, 3, 79, 80
4, 32510, Note_on_c, 3, 93, 0
4, 32513, Note_on_c, 3, 94, 80
4, 32559, Note_on_c, 3, 94, 0
4, 32560, Note_on_c, 3, 81, 80
4, 32561, Note_on_c, 3, 79, 0
4, 32565, Note_on_c, 3, 85, 80
4, 32569, Note_on_c, 3, 85, 80
4, 32589, Note_on_c, 3, 85, 0
4, 32617, Note_on_c, 3, 81, 0
4, 32625, Note_on_c, 3, 85, 0
4, 32625, Note_on_c, 3, 82, 80
4, 32627, Note_on_c, 3, 86, 80
4, 32630, Note_on_c, 3, 98, 80
4, 32631, Note_on_c, 3, 86, 80
4, 32676, Note_on_c, 3, 82, 0
4, 32692, Note_on_c, 3, 100, 80
4, 32693, Note_on_c, 3, 98, 0
4, 32710, Note_on_c, 3, 86, 0
4, 32748, Note_on_c, 3, 100, 0
4, 32749, Note_on_c, 3, 77, 80
4, 32749, Note_on_c, 3, 98, 80
4, 32795, Note_on_c, 3, 77, 0
4, 32805, Note_on_c, 3, 79, 80
4, 32806, Note_on_c, 3, 105, 80
4, 32811, Note_on_c, 3, 98, 0
4, 32830, Note_on_c, 3, 105, 0
4, 32853, Note_on_c, 3, 79, 0
4, 32858, Note_on_c, 3, 86, 0
4, 32865, Note_on_c, 3, 81, 80
4, 32866, Note_on_c, 3, 85, 80
4, 32869, Note_on_c, 3, 93, 80
4, 32929, Note_on_c, 3, 97, 80
4, 32932, Note_on_c, 3, 93, 0
4, 32986, Note_on_c, 3, 86, 80
4, 32987, Note_on_c, 3, 85, 0
4, 32988, Note_on_c, 3, 97, 0
4, 32989, Note_on_c, 3, 95, 80
4, 33024, Note_on_c, 3, 86, 0
4, 33041, Note_on_c, 3, 83, 80
4, 33046, Note_on_c, 3, 98, 80
4, 33048, Note_on_c, 3, 95, 0
4, 33074, Note_on_c, 3, 83, 0
4, 33076, Note_on_c, 3, 98, 0
4, 33108, Note_on_c, 3, 100, 80
4, 33110, Note_on_c, 3, 85, 80
4, 33169, Note_on_c, 3, 101, 80
4, 33179, Note_on_c, 3, 100, 0
4, 33216, Note_on_c, 3, 81, 0
4, 33225, Note_on_c, 3, 79, 80
4, 33228, Note_on_c, 3, 101, 0
4, 33232, Note_on_c, 3, 100, 80
4, 33288, Note_on_c, 3, 105, 80
4, 33295, Note_on_c, 3, 100, 0
4, 33326, Note_on_c, 3, 105, 0
4, 33329, Note_on_c, 3, 85, 0
4, 33339, Note_on_c, 3, 79, 0
4, 33342, Note_on_c, 3, 77, 80
4, 33344, Note_on_c, 3, 86, 80
4, 33349, Note_on_c, 3, 93, 80
4, 33410, Note_on_c, 3, 98, 80
4, 33413, Note_on_c, 3, 93, 0
4, 33446, Note_on_c, 3, 98, 0
4, 33461, Note_on_c, 3, 76, 80
4, 33463, Note_on_c, 3, 79, 80
4, 33464, Note_on_c, 3, 77, 0
4, 33464, Note_on_c, 3, 86, 0
4, 33469, Note_on_c, 3, 97, 80
4, 33523, Note_on_c, 3, 100, 80
4, 33526, Note_on_c, 3, 97, 0
4, 33539, Note_on_c, 3, 100, 0
4, 33575, Note_on_c, 3, 79, 0
4, 33580, Note_on_c, 3, 81, 80
4, 33581, Note_on_c, 3, 74, 80
4, 33585, Note_on_c, 3, 76, 0
4, 33586, Note_on_c, 3, 101, 80
4, 33650, Note_on_c, 3, 103, 80
4, 33655, Note_on_c, 3, 101, 0
4, 33684, Note_on_c, 3, 81, 0
4, 33700, Note_on_c, 3, 86, 80
4, 33707, Note_on_c, 3, 103, 0
4, 33711, Note_on_c, 3, 101, 80
4, 33767, Note_on_c, 3, 105, 80
4, 33773, Note_on_c, 3, 101, 0
4, 33791, Note_on_c, 3, 105, 0
4, 33802, Note_on_c, 3, 86, 0
4, 33819, Note_on_c, 3, 74, 0
4, 33820, Note_on_c, 3, 79, 80
4, 33821, Note_on_c, 3, 85, 80
4, 33827, Note_on_c, 3, 93, 80
4, 33885, Note_on_c, 3, 100, 80
4, 33892, Note_on_c, 3, 93, 0
4, 33912, Note_on_c, 3, 100, 0
4, 33946, Note_on_c, 3, 79, 0
4, 33948, Note_on_c, 3, 85, 0
4, 33948, Note_on_c, 3, 86, 80
4, 33950, Note_on_c, 3, 77, 80
4, 33950, Note_on_c, 3, 98, 80
4, 34007, Note_on_c, 3, 101, 80
4, 34014, Note_on_c, 3, 98, 0
4, 34033, Note_on_c, 3, 101, 0
4, 34049, Note_on_c, 3, 77, 0
4, 34063, Note_on_c, 3, 82, 80
4, 34064, Note_on_c, 3, 88, 80
4, 34068, Note_on_c, 3, 86, 0
4, 34069, Note_on_c, 3, 97, 80
4, 34128, Note_on_c, 3, 103, 80
4, 34134, Note_on_c, 3, 88, 0
4, 34135, Note_on_c, 3, 97, 0
4, 34158, Note_on_c, 3, 103, 0
4, 34182, Note_on_c, 3, 86, 80
4, 34186, Note_on_c, 3, 81, 80
4, 34187, Note_on_c, 3, 82, 0
4, 34187, Note_on_c, 3, 101, 80
4, 34248, Note_on_c, 3, 105, 80
4, 34249, Note_on_c, 3, 101, 0
4, 34304, Note_on_c, 3, 79, 80
4, 34306, Note_on_c, 3, 81, 0
4, 34306, Note_on_c, 3, 106, 80
4, 34308, Note_on_c, 3, 105, 0
4, 34360, Note_on_c, 3, 106, 0
4, 34365, Note_on_c, 3, 98, 80
4, 34399, Note_on_c, 3, 98, 0
4, 34401, Note_on_c, 3, 86, 0
4, 34426, Note_on_c, 3, 81, 80
4, 34427, Note_on_c, 3, 86, 80
4, 34428, Note_on_c, 3, 103, 80
4, 34429, Note_on_c, 3, 79, 0
4, 34439, Note_on_c, 3, 86, 0
4, 34440, Note_on_c, 3, 85, 80
4, 34454, Note_on_c, 3, 86, 80
4, 34458, Note_on_c, 3, 85, 0
4, 34469, Note_on_c, 3, 85, 80
4, 34470, Note_on_c, 3, 86, 0
4, 34480, Note_on_c, 3, 86, 80
4, 34487, Note_on_c, 3, 103, 0
4, 34488, Note_on_c, 3, 100, 80
4, 34493, Note_on_c, 3, 86, 0
4, 34516, Note_on_c, 3, 100, 0
4, 34545, Note_on_c, 3, 86, 80
4, 34547, Note_on_c, 3, 74, 80
4, 34551, Note_on_c, 3, 101, 80
4, 34554, Note_on_c, 3, 81, 0
4, 34556, Note_on_c, 3, 85, 0
4, 34589, Note_on_c, 3, 86, 0
4, 34610, Note_on_c, 3, 94, 80
4, 34670, Note_on_c, 3, 94, 0
4, 34671, Note_on_c, 3, 93, 80
4, 34729, Note_on_c, 3, 91, 80
4, 34734, Note_on_c, 3, 93, 0
4, 34782, Note_on_c, 3, 89, 80
4, 34785, Note_on_c, 3, 91, 0
4, 34786, Note_on_c, 3, 74, 0
4, 34846, Note_on_c, 3, 87, 80
4, 34847, Note_on_c, 3, 89, 0
4, 34905, Note_on_c, 3, 87, 0
4, 34905, Note_on_c, 3, 86, 80
4, 34912, Note_on_c, 3, 74, 80
4, 34965, Note_on_c, 3, 86, 0
4, 34965, Note_on_c, 3, 84, 80
4, 34994, Note_on_c, 3, 84, 0
4, 35009, Note_on_c, 3, 74, 0
4, 35015, Note_on_c, 3, 79, 80
4, 35016, Note_on_c, 3, 83, 80
4, 35025, Note_on_c, 3, 83, 80
4, 35085, Note_on_c, 3, 99, 80
4, 35086, Note_on_c, 3, 101, 0
4, 35087, Note_on_c, 3, 83, 0
4, 35132, Note_on_c, 3, 79, 0
4, 35134, Note_on_c, 3, 83, 0
4, 35137, Note_on_c, 3, 81, 80
4, 35140, Note_on_c, 3, 77, 80
4, 35143, Note_on_c, 3, 99, 0
4, 35144, Note_on_c, 3, 98, 80
4, 35202, Note_on_c, 3, 99, 80
4, 35207, Note_on_c, 3, 98, 0
4, 35253, Note_on_c, 3, 81, 0
4, 35255, Note_on_c, 3, 75, 80
4, 35256, Note_on_c, 3, 79, 80
4, 35259, Note_on_c, 3, 77, 0
4, 35260, Note_on_c, 3, 99, 0
4, 35262, Note_on_c, 3, 101, 80
4, 35322, Note_on_c, 3, 103, 80
4, 35324, Note_on_c, 3, 101, 0
4, 35366, Note_on_c, 3, 75, 0
4, 35369, Note_on_c, 3, 103, 0
4, 35371, Note_on_c, 3, 79, 0
4, 35374, Note_on_c, 3, 74, 80
4, 35375, Note_on_c, 3, 77, 80
4, 35379, Note_on_c, 3, 105, 80
4, 35413, Note_on_c, 3, 105, 0
4, 35429, Note_on_c, 3, 107, 80
4, 35431, Note_on_c, 3, 77, 0
4, 35440, Note_on_c, 3, 74, 0
4, 35462, Note_on_c, 3, 107, 0
4, 35488, Note_on_c, 3, 75, 80
4, 35490, Note_on_c, 3, 72, 80
4, 35497, Note_on_c, 3, 108, 80
4, 35574, Note_on_c, 3, 104, 80
4, 35575, Note_on_c, 3, 108, 0
4, 35621, Note_on_c, 3, 104, 0
4, 35622, Note_on_c, 3, 70, 80
4, 35623, Note_on_c, 3, 72, 0
4, 35631, Note_on_c, 3, 103, 80
4, 35687, Note_on_c, 3, 103, 0
4, 35687, Note_on_c, 3, 101, 80
4, 35738, Note_on_c, 3, 70, 0
4, 35743, Note_on_c, 3, 69, 80
4, 35747, Note_on_c, 3, 99, 80
4, 35748, Note_on_c, 3, 101, 0
4, 35812, Note_on_c, 3, 98, 80
4, 35815, Note_on_c, 3, 99, 0
4, 35858, Note_on_c, 3, 69, 0
4, 35861, Note_on_c, 3, 67, 80
4, 35873, Note_on_c, 3, 96, 80
4, 35874, Note_on_c, 3, 98, 0
4, 35930, Note_on_c, 3, 96, 0
4, 35931, Note_on_c, 3, 94, 80
4, 35951, Note_on_c, 3, 67, 0
4, 35962, Note_on_c, 3, 94, 0
4, 35986, Note_on_c, 3, 65, 80
4, 35991, Note_on_c, 3, 93, 80
4, 36047, Note_on_c, 3, 94, 80
4, 36048, Note_on_c, 3, 75, 0
4, 36050, Note_on_c, 3, 74, 80
4, 36055, Note_on_c, 3, 93, 0
4, 36110, Note_on_c, 3, 96, 80
4, 36111, Note_on_c, 3, 94, 0
4, 36111, Note_on_c, 3, 72, 80
4, 36116, Note_on_c, 3, 74, 0
4, 36168, Note_on_c, 3, 94, 80
4, 36168, Note_on_c, 3, 74, 80
4, 36170, Note_on_c, 3, 96, 0
4, 36173, Note_on_c, 3, 72, 0
4, 36224, Note_on_c, 3, 94, 0
4, 36224, Note_on_c, 3, 75, 80
4, 36225, Note_on_c, 3, 93, 80
4, 36235, Note_on_c, 3, 74, 0
4, 36282, Note_on_c, 3, 75, 0
4, 36282, Note_on_c, 3, 77, 80
4, 36285, Note_on_c, 3, 91, 80
4, 36286, Note_on_c, 3, 93, 0
4, 36340, Note_on_c, 3, 91, 0
4, 36342, Note_on_c, 3, 79, 80
4, 36343, Note_on_c, 3, 77, 0
4, 36343, Note_on_c, 3, 89, 80
4, 36354, Note_on_c, 3, 65, 0
4, 36397, Note_on_c, 3, 89, 0
4, 36399, Note_on_c, 3, 81, 80
4, 36402, Note_on_c, 3, 87, 80
4, 36405, Note_on_c, 3, 79, 0
4, 36426, Note_on_c, 3, 87, 0
4, 36457, Note_on_c, 3, 70, 80
4, 36458, Note_on_c, 3, 81, 0
4, 36459, Note_on_c, 3, 82, 80
4, 36464, Note_on_c, 3, 86, 80
4, 36516, Note_on_c, 3, 70, 0
4, 36517, Note_on_c, 3, 72, 80
4, 36530, Note_on_c, 3, 86, 0
4, 36581, Note_on_c, 3, 74, 80
4, 36582, Note_on_c, 3, 72, 0
4, 36587, Note_on_c, 3, 94, 80
4, 36636, Note_on_c, 3, 94, 0
4, 36640, Note_on_c, 3, 75, 80
4, 36647, Note_on_c, 3, 74, 0
4, 36659, Note_on_c, 3, 82, 0
4, 36698, Note_on_c, 3, 75, 0
4, 36700, Note_on_c, 3, 74, 80
4, 36703, Note_on_c, 3, 82, 80
4, 36760, Note_on_c, 3, 72, 80
4, 36767, Note_on_c, 3, 74, 0
4, 36775, Note_on_c, 3, 82, 0
4, 36822, Note_on_c, 3, 70, 80
4, 36824, Note_on_c, 3, 72, 0
4, 36824, Note_on_c, 3, 77, 80
4, 36828, Note_on_c, 3, 86, 80
4, 36868, Note_on_c, 3, 86, 0
4, 36881, Note_on_c, 3, 69, 80
4, 36882, Note_on_c, 3, 70, 0
4, 36882, Note_on_c, 3, 77, 0
4, 36945, Note_on_c, 3, 67, 80
4, 36945, Note_on_c, 3, 75, 80
4, 36950, Note_on_c, 3, 69, 0
4, 36955, Note_on_c, 3, 82, 80
4, 36956, Note_on_c, 3, 87, 80
4, 37004, Note_on_c, 3, 75, 0
4, 37016, Note_on_c, 3, 89, 80
4, 37024, Note_on_c, 3, 87, 0
4, 37071, Note_on_c, 3, 75, 80
4, 37072, Note_on_c, 3, 67, 0
4, 37077, Note_on_c, 3, 91, 80
4, 37078, Note_on_c, 3, 89, 0
4, 37082, Note_on_c, 3, 82, 0
4, 37132, Note_on_c, 3, 75, 0
4, 37137, Note_on_c, 3, 92, 80
4, 37142, Note_on_c, 3, 91, 0
4, 37178, Note_on_c, 3, 92, 0
4, 37186, Note_on_c, 3, 63, 80
4, 37197, Note_on_c, 3, 91, 80
4, 37252, Note_on_c, 3, 89, 80
4, 37259, Note_on_c, 3, 91, 0
4, 37269, Note_on_c, 3, 63, 0
4, 37310, Note_on_c, 3, 89, 0
4, 37312, Note_on_c, 3, 87, 80
4, 37314, Note_on_c, 3, 82, 80
4, 37315, Note_on_c, 3, 67, 80
4, 37364, Note_on_c, 3, 86, 80
4, 37366, Note_on_c, 3, 87, 0
4, 37366, Note_on_c, 3, 67, 0
4, 37399, Note_on_c, 3, 86, 0
4, 37426, Note_on_c, 3, 69, 80
4, 37430, Note_on_c, 3, 84, 80
4, 37438, Note_on_c, 3, 82, 0
4, 37487, Note_on_c, 3, 70, 80
4, 37492, Note_on_c, 3, 82, 80
4, 37498, Note_on_c, 3, 69, 0
4, 37546, Note_on_c, 3, 70, 0
4, 37549, Note_on_c, 3, 72, 80
4, 37554, Note_on_c, 3, 81, 80
4, 37555, Note_on_c, 3, 82, 0
4, 37604, Note_on_c, 3, 74, 80
4, 37608, Note_on_c, 3, 72, 0
4, 37610, Note_on_c, 3, 79, 80
4, 37613, Note_on_c, 3, 81, 0
4, 37662, Note_on_c, 3, 72, 80
4, 37665, Note_on_c, 3, 84, 0
4, 37665, Note_on_c, 3, 74, 0
4, 37667, Note_on_c, 3, 79, 0
4, 37668, Note_on_c, 3, 81, 80
4, 37718, Note_on_c, 3, 70, 80
4, 37723, Note_on_c, 3, 72, 0
4, 37726, Note_on_c, 3, 82, 80
4, 37731, Note_on_c, 3, 81, 0
4, 37756, Note_on_c, 3, 82, 0
4, 37776, Note_on_c, 3, 70, 0
4, 37777, Note_on_c, 3, 69, 80
4, 37785, Note_on_c, 3, 84, 80
4, 37831, Note_on_c, 3, 67, 80
4, 37835, Note_on_c, 3, 69, 0
4, 37892, Note_on_c, 3, 67, 0
4, 37893, Note_on_c, 3, 66, 80
4, 37921, Note_on_c, 3, 84, 0
4, 37947, Note_on_c, 3, 66, 0
4, 37952, Note_on_c, 3, 84, 80
4, 38021, Note_on_c, 3, 84, 0
4, 38022, Note_on_c, 3, 86, 80
4, 38024, Note_on_c, 3, 74, 80
4, 38077, Note_on_c, 3, 86, 0
4, 38094, Note_on_c, 3, 87, 80
4, 38138, Note_on_c, 3, 74, 0
4, 38140, Note_on_c, 3, 62, 80
4, 38153, Note_on_c, 3, 87, 0
4, 38155, Note_on_c, 3, 86, 80
4, 38213, Note_on_c, 3, 84, 80
4, 38219, Note_on_c, 3, 86, 0
4, 38262, Note_on_c, 3, 82, 80
4, 38264, Note_on_c, 3, 62, 0
4, 38267, Note_on_c, 3, 78, 80
4, 38269, Note_on_c, 3, 84, 0
4, 38316, Note_on_c, 3, 82, 0
4, 38320, Note_on_c, 3, 78, 0
4, 38320, Note_on_c, 3, 81, 80
4, 38371, Note_on_c, 3, 81, 0
4, 38382, Note_on_c, 3, 82, 80
4, 38383, Note_on_c, 3, 79, 80
4, 38389, Note_on_c, 3, 91, 80
4, 38436, Note_on_c, 3, 79, 0
4, 38450, Note_on_c, 3, 93, 80
4, 38451, Note_on_c, 3, 91, 0
4, 38453, Note_on_c, 3, 82, 0
4, 38506, Note_on_c, 3, 82, 80
4, 38506, Note_on_c, 3, 91, 80
4, 38507, Note_on_c, 3, 93, 0
4, 38509, Note_on_c, 3, 86, 80
4, 38563, Note_on_c, 3, 98, 80
4, 38564, Note_on_c, 3, 91, 0
4, 38591, Note_on_c, 3, 98, 0
4, 38599, Note_on_c, 3, 86, 0
4, 38605, Note_on_c, 3, 82, 0
4, 38617, Note_on_c, 3, 84, 80
4, 38618, Note_on_c, 3, 81, 80
4, 38620, Note_on_c, 3, 86, 80
4, 38680, Note_on_c, 3, 90, 80
4, 38684, Note_on_c, 3, 86, 0
4, 38721, Note_on_c, 3, 90, 0
4, 38725, Note_on_c, 3, 81, 0
4, 38734, Note_on_c, 3, 82, 80
4, 38735, Note_on_c, 3, 84, 0
4, 38735, Note_on_c, 3, 88, 80
4, 38736, Note_on_c, 3, 79, 80
4, 38794, Note_on_c, 3, 91, 80
4, 38798, Note_on_c, 3, 88, 0
4, 38825, Note_on_c, 3, 79, 0
4, 38831, Note_on_c, 3, 91, 0
4, 38837, Note_on_c, 3, 82, 0
4, 38853, Note_on_c, 3, 81, 80
4, 38853, Note_on_c, 3, 93, 80
4, 38854, Note_on_c, 3, 74, 80
4, 38911, Note_on_c, 3, 72, 80
4, 38913, Note_on_c, 3, 74, 0
4, 38919, Note_on_c, 3, 93, 0
4, 38925, Note_on_c, 3, 94, 80
4, 38977, Note_on_c, 3, 72, 0
4, 38978, Note_on_c, 3, 74, 80
4, 38979, Note_on_c, 3, 94, 0
4, 38982, Note_on_c, 3, 81, 0
4, 38986, Note_on_c, 3, 93, 80
4, 39029, Note_on_c, 3, 67, 80
4, 39040, Note_on_c, 3, 98, 80
4, 39044, Note_on_c, 3, 93, 0
4, 39048, Note_on_c, 3, 74, 0
4, 39061, Note_on_c, 3, 67, 0
4, 39084, Note_on_c, 3, 98, 0
4, 39095, Note_on_c, 3, 81, 80
4, 39101, Note_on_c, 3, 86, 80
4, 39102, Note_on_c, 3, 84, 80
4, 39149, Note_on_c, 3, 81, 0
4, 39152, Note_on_c, 3, 76, 80
4, 39160, Note_on_c, 3, 91, 80
4, 39164, Note_on_c, 3, 86, 0
4, 39194, Note_on_c, 3, 91, 0
4, 39215, Note_on_c, 3, 78, 80
4, 39216, Note_on_c, 3, 90, 80
4, 39217, Note_on_c, 3, 76, 0
4, 39272, Note_on_c, 3, 90, 0
4, 39272, Note_on_c, 3, 74, 80
4, 39273, Note_on_c, 3, 93, 80
4, 39274, Note_on_c, 3, 78, 0
4, 39280, Note_on_c, 3, 84, 0
4, 39321, Note_on_c, 3, 93, 0
4, 39327, Note_on_c, 3, 74, 0
4, 39331, Note_on_c, 3, 79, 80
4, 39333, Note_on_c, 3, 82, 80
4, 39335, Note_on_c, 3, 86, 80
4, 39387, Note_on_c, 3, 86, 0
4, 39389, Note_on_c, 3, 78, 80
4, 39390, Note_on_c, 3, 79, 0
4, 39392, Note_on_c, 3, 82, 0
4, 39446, Note_on_c, 3, 78, 0
4, 39449, Note_on_c, 3, 79, 80
4, 39454, Note_on_c, 3, 86, 80
4, 39456, Note_on_c, 3, 98, 80
4, 39511, Note_on_c, 3, 74, 80
4, 39514, Note_on_c, 3, 79, 0
4, 39519, Note_on_c, 3, 98, 0
4, 39554, Note_on_c, 3, 74, 0
4, 39565, Note_on_c, 3, 86, 0
4, 39568, Note_on_c, 3, 96, 80
4, 39570, Note_on_c, 3, 90, 80
4, 39572, Note_on_c, 3, 86, 80
4, 39625, Note_on_c, 3, 81, 80
4, 39631, Note_on_c, 3, 86, 0
4, 39659, Note_on_c, 3, 96, 0
4, 39683, Note_on_c, 3, 81, 0
4, 39683, Note_on_c, 3, 82, 80
4, 39686, Note_on_c, 3, 90, 0
4, 39690, Note_on_c, 3, 91, 80
4, 39691, Note_on_c, 3, 94, 80
4, 39729, Note_on_c, 3, 94, 0
4, 39736, Note_on_c, 3, 79, 80
4, 39740, Note_on_c, 3, 82, 0
4, 39784, Note_on_c, 3, 79, 0
4, 39798, Note_on_c, 3, 87, 80
4, 39813, Note_on_c, 3, 96, 80
4, 39862, Note_on_c, 3, 81, 80
4, 39867, Note_on_c, 3, 87, 0
4, 39925, Note_on_c, 3, 82, 80
4, 39926, Note_on_c, 3, 81, 0
4, 39933, Note_on_c, 3, 98, 80
4, 39936, Note_on_c, 3, 96, 0
4, 39985, Note_on_c, 3, 82, 0
4, 39985, Note_on_c, 3, 79, 80
4, 39990, Note_on_c, 3, 99, 80
4, 39998, Note_on_c, 3, 98, 0
4, 40040, Note_on_c, 3, 99, 0
4, 40057, Note_on_c, 3, 78, 80
4, 40057, Note_on_c, 3, 98, 80
4, 40061, Note_on_c, 3, 79, 0
4, 40116, Note_on_c, 3, 78, 0
4, 40117, Note_on_c, 3, 86, 80
4, 40126, Note_on_c, 3, 94, 80
4, 40132, Note_on_c, 3, 98, 0
4, 40176, Note_on_c, 3, 94, 0
4, 40177, Note_on_c, 3, 81, 80
4, 40180, Note_on_c, 3, 86, 0
4, 40182, Note_on_c, 3, 90, 80
4, 40183, Note_on_c, 3, 96, 80
4, 40188, Note_on_c, 3, 91, 0
4, 40235, Note_on_c, 3, 96, 0
4, 40235, Note_on_c, 3, 84, 80
4, 40237, Note_on_c, 3, 93, 80
4, 40253, Note_on_c, 3, 81, 0
4, 40267, Note_on_c, 3, 93, 0
4, 40291, Note_on_c, 3, 90, 0
4, 40295, Note_on_c, 3, 84, 0
4, 40296, Note_on_c, 3, 86, 80
4, 40300, Note_on_c, 3, 94, 80
4, 40300, Note_on_c, 3, 91, 80
4, 40342, Note_on_c, 3, 94, 0
4, 40356, Note_on_c, 3, 91, 0
4, 40356, Note_on_c, 3, 87, 80
4, 40358, Note_on_c, 3, 86, 0
4, 40414, Note_on_c, 3, 87, 0
4, 40414, Note_on_c, 3, 86, 80
4, 40418, Note_on_c, 3, 95, 80
4, 40418, Note_on_c, 3, 101, 80
4, 40472, Note_on_c, 3, 86, 0
4, 40473, Note_on_c, 3, 91, 80
4, 40487, Note_on_c, 3, 101, 0
4, 40503, Note_on_c, 3, 91, 0
4, 40507, Note_on_c, 3, 95, 0
4, 40532, Note_on_c, 3, 79, 80
4, 40536, Note_on_c, 3, 96, 80
4, 40537, Note_on_c, 3, 99, 80
4, 40593, Note_on_c, 3, 84, 80
4, 40598, Note_on_c, 3, 79, 0
4, 40613, Note_on_c, 3, 99, 0
4, 40616, Note_on_c, 3, 96, 0
4, 40652, Note_on_c, 3, 83, 80
4, 40655, Note_on_c, 3, 84, 0
4, 40657, Note_on_c, 3, 89, 80
4, 40657, Note_on_c, 3, 98, 80
4, 40708, Note_on_c, 3, 86, 80
4, 40709, Note_on_c, 3, 83, 0
4, 40725, Note_on_c, 3, 98, 0
4, 40739, Note_on_c, 3, 86, 0
4, 40771, Note_on_c, 3, 87, 80
4, 40779, Note_on_c, 3, 87, 80
4, 40781, Note_on_c, 3, 89, 0
4, 40781, Note_on_c, 3, 96, 80
4, 40833, Note_on_c, 3, 87, 0
4, 40834, Note_on_c, 3, 89, 80
4, 40840, Note_on_c, 3, 96, 0
4, 40844, Note_on_c, 3, 95, 80
4, 40881, Note_on_c, 3, 87, 0
4, 40892, Note_on_c, 3, 87, 80
4, 40893, Note_on_c, 3, 89, 0
4, 40900, Note_on_c, 3, 95, 0
4, 40901, Note_on_c, 3, 96, 80
4, 40949, Note_on_c, 3, 91, 80
4, 40950, Note_on_c, 3, 87, 0
4, 40954, Note_on_c, 3, 96, 0
4, 40955, Note_on_c, 3, 91, 80
4, 40971, Note_on_c, 3, 91, 0
4, 40990, Note_on_c, 3, 91, 0
4, 41009, Note_on_c, 3, 79, 80
4, 41017, Note_on_c, 3, 103, 80
4, 41065, Note_on_c, 3, 83, 80
4, 41068, Note_on_c, 3, 79, 0
4, 41077, Note_on_c, 3, 98, 80
4, 41080, Note_on_c, 3, 103, 0
4, 41126, Note_on_c, 3, 81, 80
4, 41127, Note_on_c, 3, 83, 0
4, 41138, Note_on_c, 3, 99, 80
4, 41156, Note_on_c, 3, 98, 0
4, 41184, Note_on_c, 3, 84, 80
4, 41190, Note_on_c, 3, 81, 0
4, 41196, Note_on_c, 3, 96, 80
4, 41198, Note_on_c, 3, 99, 0
4, 41225, Note_on_c, 3, 84, 0
4, 41232, Note_on_c, 3, 96, 0
4, 41253, Note_on_c, 3, 86, 80
4, 41261, Note_on_c, 3, 95, 80
4, 41316, Note_on_c, 3, 87, 80
4, 41318, Note_on_c, 3, 86, 0
4, 41324, Note_on_c, 3, 93, 80
4, 41329, Note_on_c, 3, 95, 0
4, 41376, Note_on_c, 3, 86, 80
4, 41380, Note_on_c, 3, 87, 0
4, 41388, Note_on_c, 3, 95, 80
4, 41390, Note_on_c, 3, 93, 0
4, 41433, Note_on_c, 3, 86, 0
4, 41445, Note_on_c, 3, 95, 0
4, 41446, Note_on_c, 3, 91, 80
4, 41447, Note_on_c, 3, 89, 80
4, 41475, Note_on_c, 3, 91, 0
4, 41487, Note_on_c, 3, 89, 0
4, 41502, Note_on_c, 3, 79, 80
4, 41510, Note_on_c, 3, 103, 80
4, 41559, Note_on_c, 3, 83, 80
4, 41564, Note_on_c, 3, 79, 0
4, 41570, Note_on_c, 3, 98, 80
4, 41574, Note_on_c, 3, 103, 0
4, 41617, Note_on_c, 3, 81, 80
4, 41618, Note_on_c, 3, 83, 0
4, 41627, Note_on_c, 3, 99, 80
4, 41635, Note_on_c, 3, 98, 0
4, 41686, Note_on_c, 3, 81, 0
4, 41686, Note_on_c, 3, 99, 0
4, 41686, Note_on_c, 3, 96, 80
4, 41690, Note_on_c, 3, 84, 80
4, 41722, Note_on_c, 3, 96, 0
4, 41724, Note_on_c, 3, 84, 0
4, 41743, Note_on_c, 3, 83, 80
4, 41750, Note_on_c, 3, 104, 80
4, 41809, Note_on_c, 3, 83, 0
4, 41809, Note_on_c, 3, 98, 80
4, 41809, Note_on_c, 3, 86, 80
4, 41812, Note_on_c, 3, 104, 0
4, 41861, Note_on_c, 3, 86, 0
4, 41863, Note_on_c, 3, 84, 80
4, 41866, Note_on_c, 3, 99, 80
4, 41868, Note_on_c, 3, 98, 0
4, 41921, Note_on_c, 3, 87, 80
4, 41925, Note_on_c, 3, 84, 0
4, 41926, Note_on_c, 3, 99, 0
4, 41926, Note_on_c, 3, 96, 80
4, 41976, Note_on_c, 3, 96, 0
4, 41984, Note_on_c, 3, 86, 80
4, 41985, Note_on_c, 3, 87, 0
4, 41989, Note_on_c, 3, 95, 80
4, 42043, Note_on_c, 3, 84, 80
4, 42051, Note_on_c, 3, 86, 0
4, 42051, Note_on_c, 3, 103, 80
4, 42057, Note_on_c, 3, 95, 0
4, 42099, Note_on_c, 3, 83, 80
4, 42101, Note_on_c, 3, 84, 0
4, 42111, Note_on_c, 3, 98, 80
4, 42116, Note_on_c, 3, 103, 0
4, 42154, Note_on_c, 3, 84, 80
4, 42156, Note_on_c, 3, 83, 0
4, 42172, Note_on_c, 3, 101, 80
4, 42173, Note_on_c, 3, 98, 0
4, 42196, Note_on_c, 3, 84, 0
4, 42219, Note_on_c, 3, 101, 0
4, 42228, Note_on_c, 3, 84, 80
4, 42232, Note_on_c, 3, 91, 80
4, 42233, Note_on_c, 3, 99, 80
4, 42293, Note_on_c, 3, 89, 80
4, 42296, Note_on_c, 3, 91, 0
4, 42347, Note_on_c, 3, 84, 0
4, 42349, Note_on_c, 3, 82, 80
4, 42350, Note_on_c, 3, 89, 0
4, 42352, Note_on_c, 3, 91, 80
4, 42405, Note_on_c, 3, 84, 80
4, 42406, Note_on_c, 3, 84, 80
4, 42413, Note_on_c, 3, 91, 0
4, 42421, Note_on_c, 3, 84, 0
4, 42444, Note_on_c, 3, 82, 0
4, 42461, Note_on_c, 3, 84, 0
4, 42464, Note_on_c, 3, 81, 80
4, 42471, Note_on_c, 3, 96, 80
4, 42532, Note_on_c, 3, 93, 80
4, 42536, Note_on_c, 3, 96, 0
4, 42584, Note_on_c, 3, 93, 0
4, 42586, Note_on_c, 3, 81, 0
4, 42586, Note_on_c, 3, 94, 80
4, 42589, Note_on_c, 3, 79, 80
4, 42641, Note_on_c, 3, 91, 80
4, 42647, Note_on_c, 3, 94, 0
4, 42687, Note_on_c, 3, 91, 0
4, 42690, Note_on_c, 3, 79, 0
4, 42695, Note_on_c, 3, 81, 80
4, 42708, Note_on_c, 3, 90, 80
4, 42759, Note_on_c, 3, 90, 0
4, 42763, Note_on_c, 3, 99, 0
4, 42767, Note_on_c, 3, 88, 80
4, 42770, Note_on_c, 3, 97, 80
4, 42813, Note_on_c, 3, 97, 0
4, 42827, Note_on_c, 3, 88, 0
4, 42828, Note_on_c, 3, 90, 80
4, 42828, Note_on_c, 3, 98, 80
4, 42883, Note_on_c, 3, 86, 80
4, 42886, Note_on_c, 3, 90, 0
4, 42925, Note_on_c, 3, 86, 0
4, 42927, Note_on_c, 3, 98, 0
4, 42936, Note_on_c, 3, 82, 80
4, 42944, Note_on_c, 3, 98, 80
4, 42945, Note_on_c, 3, 81, 0
4, 43001, Note_on_c, 3, 98, 0
4, 43003, Note_on_c, 3, 93, 80
4, 43007, Note_on_c, 3, 102, 80
4, 43052, Note_on_c, 3, 102, 0
4, 43067, Note_on_c, 3, 93, 0
4, 43068, Note_on_c, 3, 94, 80
4, 43069, Note_on_c, 3, 103, 80
4, 43112, Note_on_c, 3, 82, 0
4, 43123, Note_on_c, 3, 94, 0
4, 43127, Note_on_c, 3, 91, 80
4, 43159, Note_on_c, 3, 91, 0
4, 43180, Note_on_c, 3, 84, 80
4, 43188, Note_on_c, 3, 99, 80
4, 43223, Note_on_c, 3, 99, 0
4, 43235, Note_on_c, 3, 103, 0
4, 43249, Note_on_c, 3, 93, 80
4, 43252, Note_on_c, 3, 102, 80
4, 43292, Note_on_c, 3, 102, 0
4, 43296, Note_on_c, 3, 84, 0
4, 43296, Note_on_c, 3, 86, 80
4, 43303, Note_on_c, 3, 93, 0
4, 43304, Note_on_c, 3, 103, 80
4, 43307, Note_on_c, 3, 94, 80
4, 43346, Note_on_c, 3, 94, 0
4, 43363, Note_on_c, 3, 91, 80
4, 43363, Note_on_c, 3, 94, 80
4, 43367, Note_on_c, 3, 103, 0
4, 43398, Note_on_c, 3, 86, 0
4, 43410, Note_on_c, 3, 91, 0
4, 43412, Note_on_c, 3, 94, 0
4, 43421, Note_on_c, 3, 87, 80
4, 43422, Note_on_c, 3, 90, 80
4, 43426, Note_on_c, 3, 96, 80
4, 43475, Note_on_c, 3, 96, 0
4, 43493, Note_on_c, 3, 105, 80
4, 43534, Note_on_c, 3, 105, 0
4, 43559, Note_on_c, 3, 93, 80
4, 43600, Note_on_c, 3, 93, 0
4, 43625, Note_on_c, 3, 96, 80
4, 43674, Note_on_c, 3, 96, 0
4, 43698, Note_on_c, 3, 90, 0
4, 43700, Note_on_c, 3, 87, 0
4, 43703, Note_on_c, 3, 95, 80
4, 43703, Note_on_c, 3, 86, 80
4, 43704, Note_on_c, 3, 91, 80
4, 43704, Note_on_c, 3, 86, 80
4, 43705, Note_on_c, 3, 91, 80
4, 44139, Note_on_c, 3, 86, 0
4, 44140, Note_on_c, 3, 95, 0
4, 44140, Note_on_c, 3, 91, 0
4, 44156, Note_on_c, 3, 91, 0
4, 44157, Note_on_c, 3, 86, 0
4, 44195, Control_c, 3, 7, 71
4, 44195, Control_c, 3, 10, 76
4, 44195, End_track
5, 0, Start_track
5, 0, Title_t, "Ped 32"
5, 0, MIDI_port, 0
5, 0, Control_c, 5, 7, 127
5, 0, Control_c, 5, 10, 59
5, 0, Program_c, 5, 57
5, 0, Control_c, 5, 91, 127
5, 1775, Control_c, 5, 7, 127
5, 1775, Control_c, 5, 10, 59
5, 11024, Note_on_c, 5, 19, 100
5, 11426, Note_on_c, 5, 19, 0
5, 11520, Note_on_c, 5, 19, 94
5, 11749, Note_on_c, 5, 18, 96
5, 11755, Note_on_c, 5, 19, 0
5, 11980, Note_on_c, 5, 18, 0
5, 11983, Note_on_c, 5, 22, 97
5, 12196, Note_on_c, 5, 22, 0
5, 12217, Note_on_c, 5, 21, 89
5, 12311, Note_on_c, 5, 21, 0
5, 12330, Note_on_c, 5, 19, 90
5, 12438, Note_on_c, 5, 19, 0
5, 12450, Note_on_c, 5, 21, 94
5, 12899, Note_on_c, 5, 21, 0
5, 12912, Note_on_c, 5, 19, 97
5, 14396, Note_on_c, 5, 19, 0
5, 18223, Note_on_c, 5, 19, 93
5, 18473, Note_on_c, 5, 22, 100
5, 18483, Note_on_c, 5, 19, 0
5, 18693, Note_on_c, 5, 22, 0
5, 18698, Note_on_c, 5, 24, 90
5, 18944, Note_on_c, 5, 22, 97
5, 18949, Note_on_c, 5, 24, 0
5, 19160, Note_on_c, 5, 22, 0
5, 19167, Note_on_c, 5, 24, 86
5, 19415, Note_on_c, 5, 26, 97
5, 19416, Note_on_c, 5, 24, 0
5, 19655, Note_on_c, 5, 22, 100
5, 19658, Note_on_c, 5, 26, 0
5, 21102, Note_on_c, 5, 22, 0
5, 26867, Note_on_c, 5, 22, 98
5, 27101, Note_on_c, 5, 24, 91
5, 27103, Note_on_c, 5, 22, 0
5, 27331, Note_on_c, 5, 26, 95
5, 27336, Note_on_c, 5, 24, 0
5, 27575, Note_on_c, 5, 22, 96
5, 27577, Note_on_c, 5, 26, 0
5, 27815, Note_on_c, 5, 22, 0
5, 27823, Note_on_c, 5, 24, 89
5, 27947, Note_on_c, 5, 22, 97
5, 27963, Note_on_c, 5, 24, 0
5, 28012, Note_on_c, 5, 22, 0
5, 28062, Note_on_c, 5, 21, 88
5, 28251, Note_on_c, 5, 21, 0
5, 28295, Note_on_c, 5, 19, 93
5, 29749, Note_on_c, 5, 19, 0
5, 38379, Note_on_c, 5, 19, 102
5, 38777, Note_on_c, 5, 19, 0
5, 38860, Note_on_c, 5, 19, 93
5, 39107, Note_on_c, 5, 18, 96
5, 39113, Note_on_c, 5, 19, 0
5, 39328, Note_on_c, 5, 18, 0
5, 39335, Note_on_c, 5, 22, 98
5, 39563, Note_on_c, 5, 22, 0
5, 39572, Note_on_c, 5, 21, 89
5, 39673, Note_on_c, 5, 21, 0
5, 39689, Note_on_c, 5, 19, 91
5, 39785, Note_on_c, 5, 19, 0
5, 39799, Note_on_c, 5, 21, 98
5, 40278, Note_on_c, 5, 21, 0
5, 40306, Note_on_c, 5, 19, 97
5, 44195, Control_c, 5, 7, 116
5, 44195, Control_c, 5, 10, 59
5, 44197, Note_on_c, 5, 19, 0
5, 44197, End_track
6, 0, Start_track
6, 0, Title_t, "Ped 16"
6, 0, MIDI_port, 0
6, 0, Control_c, 4, 7, 127
6, 0, Control_c, 4, 10, 51
6, 0, Program_c, 4, 19
6, 0, Control_c, 4, 91, 127
6, 1775, Control_c, 4, 7, 127
6, 1775, Control_c, 4, 10, 51
6, 11024, Note_on_c, 4, 31, 100
6, 11426, Note_on_c, 4, 31, 0
6, 11520, Note_on_c, 4, 31, 94
6, 11749, Note_on_c, 4, 30, 96
6, 11755, Note_on_c, 4, 31, 0
6, 11980, Note_on_c, 4, 30, 0
6, 11983, Note_on_c, 4, 34, 97
6, 12196, Note_on_c, 4, 34, 0
6, 12217, Note_on_c, 4, 33, 89
6, 12311, Note_on_c, 4, 33, 0
6, 12330, Note_on_c, 4, 31, 90
6, 12438, Note_on_c, 4, 31, 0
6, 12450, Note_on_c, 4, 33, 94
6, 12899, Note_on_c, 4, 33, 0
6, 12912, Note_on_c, 4, 31, 97
6, 14396, Note_on_c, 4, 31, 0
6, 18223, Note_on_c, 4, 31, 93
6, 18473, Note_on_c, 4, 34, 100
6, 18483, Note_on_c, 4, 31, 0
6, 18693, Note_on_c, 4, 34, 0
6, 18698, Note_on_c, 4, 36, 90
6, 18944, Note_on_c, 4, 34, 97
6, 18949, Note_on_c, 4, 36, 0
6, 19160, Note_on_c, 4, 34, 0
6, 19167, Note_on_c, 4, 36, 86
6, 19415, Note_on_c, 4, 38, 97
6, 19416, Note_on_c, 4, 36, 0
6, 19655, Note_on_c, 4, 34, 100
6, 19658, Note_on_c, 4, 38, 0
6, 21102, Note_on_c, 4, 34, 0
6, 26867, Note_on_c, 4, 34, 98
6, 27101, Note_on_c, 4, 36, 91
6, 27103, Note_on_c, 4, 34, 0
6, 27331, Note_on_c, 4, 38, 95
6, 27336, Note_on_c, 4, 36, 0
6, 27575, Note_on_c, 4, 34, 96
6, 27577, Note_on_c, 4, 38, 0
6, 27815, Note_on_c, 4, 34, 0
6, 27823, Note_on_c, 4, 36, 89
6, 27947, Note_on_c, 4, 34, 97
6, 27963, Note_on_c, 4, 36, 0
6, 28012, Note_on_c, 4, 34, 0
6, 28062, Note_on_c, 4, 33, 88
6, 28251, Note_on_c, 4, 33, 0
6, 28295, Note_on_c, 4, 31, 93
6, 29749, Note_on_c, 4, 31, 0
6, 38379, Note_on_c, 4, 31, 102
6, 38777, Note_on_c, 4, 31, 0
6, 38860, Note_on_c, 4, 31, 93
6, 39107, Note_on_c, 4, 30, 96
6, 39113, Note_on_c, 4, 31, 0
6, 39328, Note_on_c, 4, 30, 0
6, 39335, Note_on_c, 4, 34, 98
6, 39563, Note_on_c, 4, 34, 0
6, 39572, Note_on_c, 4, 33, 89
6, 39673, Note_on_c, 4, 33, 0
6, 39689, Note_on_c, 4, 31, 91
6, 39785, Note_on_c, 4, 31, 0
6, 39799, Note_on_c, 4, 33, 98
6, 40278, Note_on_c, 4, 33, 0
6, 40306, Note_on_c, 4, 31, 97
6, 44195, Control_c, 4, 7, 97
6, 44195, Control_c, 4, 10, 51
6, 44197, Note_on_c, 4, 31, 0
6, 44197, End_track
7, 0, Start_track
7, 0, Title_t, "Ped 8"
7, 0, MIDI_port, 0
7, 0, Control_c, 1, 7, 121
7, 0, Control_c, 1, 10, 76
7, 0, Program_c, 1, 57
7, 0, Control_c, 1, 91, 127
7, 1775, Control_c, 1, 7, 121
7, 1775, Control_c, 1, 10, 76
7, 11024, Note_on_c, 1, 43, 100
7, 11426, Note_on_c, 1, 43, 0
7, 11520, Note_on_c, 1, 43, 94
7, 11749, Note_on_c, 1, 42, 96
7, 11755, Note_on_c, 1, 43, 0
7, 11980, Note_on_c, 1, 42, 0
7, 11983, Note_on_c, 1, 46, 97
7, 12196, Note_on_c, 1, 46, 0
7, 12217, Note_on_c, 1, 45, 89
7, 12311, Note_on_c, 1, 45, 0
7, 12330, Note_on_c, 1, 43, 90
7, 12438, Note_on_c, 1, 43, 0
7, 12450, Note_on_c, 1, 45, 94
7, 12899, Note_on_c, 1, 45, 0
7, 12912, Note_on_c, 1, 43, 97
7, 14396, Note_on_c, 1, 43, 0
7, 18223, Note_on_c, 1, 43, 93
7, 18473, Note_on_c, 1, 46, 100
7, 18483, Note_on_c, 1, 43, 0
7, 18693, Note_on_c, 1, 46, 0
7, 18698, Note_on_c, 1, 48, 90
7, 18944, Note_on_c, 1, 46, 97
7, 18949, Note_on_c, 1, 48, 0
7, 19160, Note_on_c, 1, 46, 0
7, 19167, Note_on_c, 1, 48, 86
7, 19415, Note_on_c, 1, 50, 97
7, 19416, Note_on_c, 1, 48, 0
7, 19655, Note_on_c, 1, 46, 100
7, 19658, Note_on_c, 1, 50, 0
7, 21102, Note_on_c, 1, 46, 0
7, 26867, Note_on_c, 1, 46, 98
7, 27101, Note_on_c, 1, 48, 91
7, 27103, Note_on_c, 1, 46, 0
7, 27331, Note_on_c, 1, 50, 95
7, 27336, Note_on_c, 1, 48, 0
7, 27575, Note_on_c, 1, 46, 96
7, 27577, Note_on_c, 1, 50, 0
7, 27815, Note_on_c, 1, 46, 0
7, 27823, Note_on_c, 1, 48, 89
7, 27947, Note_on_c, 1, 46, 97
7, 27963, Note_on_c, 1, 48, 0
7, 28012, Note_on_c, 1, 46, 0
7, 28062, Note_on_c, 1, 45, 88
7, 28251, Note_on_c, 1, 45, 0
7, 28295, Note_on_c, 1, 43, 93
7, 29749, Note_on_c, 1, 43, 0
7, 38379, Note_on_c, 1, 43, 102
7, 38777, Note_on_c, 1, 43, 0
7, 38860, Note_on_c, 1, 43, 93
7, 39107, Note_on_c, 1, 42, 96
7, 39113, Note_on_c, 1, 43, 0
7, 39328, Note_on_c, 1, 42, 0
7, 39335, Note_on_c, 1, 46, 98
7, 39563, Note_on_c, 1, 46, 0
7, 39572, Note_on_c, 1, 45, 89
7, 39673, Note_on_c, 1, 45, 0
7, 39689, Note_on_c, 1, 43, 91
7, 39785, Note_on_c, 1, 43, 0
7, 39799, Note_on_c, 1, 45, 98
7, 40278, Note_on_c, 1, 45, 0
7, 40306, Note_on_c, 1, 43, 97
7, 44195, Control_c, 1, 7, 101
7, 44195, Control_c, 1, 10, 76
7, 44197, Note_on_c, 1, 43, 0
7, 44197, End_track
8, 0, Start_track
8, 0, MIDI_port, 0
8, 0, End_track
9, 0, Start_track
9, 0, Title_t, "Nun komm' der Heiden Heiland"
9, 0, MIDI_port, 0
9, 0, End_track
10, 0, Start_track
10, 0, Title_t, "(pro Organo Pleno)"
10, 0, MIDI_port, 0
10, 0, End_track
11, 0, Start_track
11, 0, Title_t, "by J S Bach (BWV 661)"
11, 0, MIDI_port, 0
11, 0, End_track
12, 0, Start_track
12, 0, MIDI_port, 0
12, 0, End_track
13, 0, Start_track
13, 0, Title_t, "Sequenced using WinJammer Professional"
13, 0, MIDI_port, 0
13, 0, End_track
14, 0, Start_track
14, 0, Title_t, "on Windows NT by Martin Robinson."
14, 0, MIDI_port, 0
14, 0, End_track
15, 0, Start_track
15, 0, Title_t, "(c) Martin Robinson 1997"
15, 0, MIDI_port, 0
15, 0, End_track
0, 0, End_of_file
