0, 0, Header, 1, 14, 768
1, 0, Start_track
1, 0, Sequencer_specific, 10, 0, 0, 91, 35, 1, 0, 5, 3, 24, 0
1, 0, Instrument_name_t, "Conductor Track"
1, 0, SMPTE_offset, 96, 0, 3, 0, 0
1, 0, MIDI_port, 0
1, 0, Tempo, 1578947
1, 0, Time_signature, 4, 2, 24, 8
1, 99840, Tempo, 1764705
1, 100608, Tempo, 2068965
1, 101376, Tempo, 2307692
1, 102144, Tempo, 3000000
1, 102144, End_track
2, 0, Start_track
2, 0, Title_t, "Cantus Firmus"
2, 0, MIDI_port, 0
2, 0, Control_c, 2, 7, 86
2, 0, Control_c, 2, 10, 93
2, 0, Program_c, 2, 71
2, 9945, Note_on_c, 2, 67, 64
2, 10649, Note_on_c, 2, 67, 0
2, 10764, Note_on_c, 2, 67, 64
2, 11333, Note_on_c, 2, 67, 0
2, 11456, Note_on_c, 2, 66, 64
2, 11801, Note_on_c, 2, 67, 64
2, 11814, Note_on_c, 2, 66, 0
2, 11993, Note_on_c, 2, 69, 64
2, 12005, Note_on_c, 2, 67, 0
2, 12172, Note_on_c, 2, 70, 64
2, 12185, Note_on_c, 2, 69, 0
2, 13144, Note_on_c, 2, 70, 0
2, 13196, Note_on_c, 2, 67, 64
2, 13349, Note_on_c, 2, 67, 0
2, 13356, Note_on_c, 2, 69, 64
2, 13401, Note_on_c, 2, 67, 64
2, 13420, Note_on_c, 2, 69, 0
2, 13478, Note_on_c, 2, 66, 64
2, 13484, Note_on_c, 2, 67, 0
2, 13561, Note_on_c, 2, 66, 0
2, 13561, Note_on_c, 2, 67, 64
2, 13733, Note_on_c, 2, 67, 0
2, 13740, Note_on_c, 2, 72, 64
2, 14700, Note_on_c, 2, 72, 0
2, 14726, Note_on_c, 2, 69, 64
2, 14886, Note_on_c, 2, 69, 0
2, 14892, Note_on_c, 2, 70, 64
2, 14956, Note_on_c, 2, 70, 0
2, 14956, Note_on_c, 2, 69, 64
2, 15020, Note_on_c, 2, 67, 64
2, 15026, Note_on_c, 2, 69, 0
2, 15091, Note_on_c, 2, 69, 64
2, 15103, Note_on_c, 2, 67, 0
2, 15283, Note_on_c, 2, 74, 64
2, 15289, Note_on_c, 2, 69, 0
2, 16300, Note_on_c, 2, 74, 0
2, 16326, Note_on_c, 2, 67, 64
2, 16409, Note_on_c, 2, 69, 64
2, 16415, Note_on_c, 2, 67, 0
2, 16512, Note_on_c, 2, 70, 64
2, 16530, Note_on_c, 2, 69, 0
2, 16601, Note_on_c, 2, 70, 0
2, 16601, Note_on_c, 2, 72, 64
2, 16703, Note_on_c, 2, 72, 0
2, 16704, Note_on_c, 2, 74, 64
2, 16908, Note_on_c, 2, 74, 0
2, 16908, Note_on_c, 2, 75, 64
2, 17426, Note_on_c, 2, 75, 0
2, 17459, Note_on_c, 2, 74, 64
2, 17644, Note_on_c, 2, 74, 0
2, 17644, Note_on_c, 2, 72, 64
2, 17843, Note_on_c, 2, 70, 64
2, 17855, Note_on_c, 2, 72, 0
2, 17932, Note_on_c, 2, 69, 64
2, 17958, Note_on_c, 2, 70, 0
2, 18002, Note_on_c, 2, 69, 0
2, 18048, Note_on_c, 2, 69, 64
2, 18214, Note_on_c, 2, 70, 64
2, 18233, Note_on_c, 2, 69, 0
2, 18310, Note_on_c, 2, 72, 64
2, 18316, Note_on_c, 2, 70, 0
2, 18432, Note_on_c, 2, 67, 64
2, 18450, Note_on_c, 2, 72, 0
2, 18624, Note_on_c, 2, 66, 64
2, 18643, Note_on_c, 2, 67, 0
2, 18790, Note_on_c, 2, 66, 0
2, 18822, Note_on_c, 2, 64, 64
2, 19008, Note_on_c, 2, 62, 64
2, 19020, Note_on_c, 2, 64, 0
2, 19212, Note_on_c, 2, 62, 0
2, 19219, Note_on_c, 2, 67, 64
2, 20057, Note_on_c, 2, 69, 64
2, 20076, Note_on_c, 2, 67, 0
2, 20140, Note_on_c, 2, 69, 0
2, 20147, Note_on_c, 2, 67, 64
2, 20230, Note_on_c, 2, 67, 0
2, 20230, Note_on_c, 2, 66, 64
2, 20326, Note_on_c, 2, 66, 0
2, 20332, Note_on_c, 2, 67, 64
2, 20498, Note_on_c, 2, 67, 0
2, 20499, Note_on_c, 2, 72, 64
2, 20588, Note_on_c, 2, 69, 64
2, 20601, Note_on_c, 2, 72, 0
2, 20703, Note_on_c, 2, 69, 0
2, 20704, Note_on_c, 2, 67, 64
2, 20979, Note_on_c, 2, 67, 0
2, 21081, Note_on_c, 2, 67, 64
2, 21125, Note_on_c, 2, 67, 0
2, 21126, Note_on_c, 2, 66, 64
2, 21164, Note_on_c, 2, 67, 64
2, 21183, Note_on_c, 2, 66, 0
2, 21196, Note_on_c, 2, 67, 0
2, 21196, Note_on_c, 2, 66, 64
2, 21362, Note_on_c, 2, 66, 0
2, 21376, Note_on_c, 2, 67, 64
2, 21427, Note_on_c, 2, 67, 0
2, 21484, Note_on_c, 2, 67, 64
2, 22994, Note_on_c, 2, 67, 0
2, 30688, Note_on_c, 2, 67, 64
2, 31033, Note_on_c, 2, 70, 64
2, 31040, Note_on_c, 2, 67, 0
2, 31218, Note_on_c, 2, 70, 0
2, 31219, Note_on_c, 2, 69, 64
2, 31359, Note_on_c, 2, 69, 0
2, 31417, Note_on_c, 2, 70, 64
2, 31461, Note_on_c, 2, 70, 0
2, 31462, Note_on_c, 2, 69, 64
2, 31526, Note_on_c, 2, 70, 64
2, 31532, Note_on_c, 2, 69, 0
2, 32114, Note_on_c, 2, 70, 0
2, 32204, Note_on_c, 2, 72, 64
2, 33093, Note_on_c, 2, 72, 0
2, 33164, Note_on_c, 2, 70, 64
2, 33350, Note_on_c, 2, 69, 64
2, 33356, Note_on_c, 2, 70, 0
2, 33536, Note_on_c, 2, 70, 64
2, 33567, Note_on_c, 2, 69, 0
2, 33676, Note_on_c, 2, 70, 0
2, 33721, Note_on_c, 2, 72, 64
2, 33939, Note_on_c, 2, 74, 64
2, 33945, Note_on_c, 2, 72, 0
2, 34131, Note_on_c, 2, 74, 0
2, 34137, Note_on_c, 2, 75, 64
2, 34617, Note_on_c, 2, 75, 0
2, 34694, Note_on_c, 2, 72, 64
2, 34860, Note_on_c, 2, 72, 0
2, 34867, Note_on_c, 2, 70, 64
2, 35072, Note_on_c, 2, 72, 64
2, 35078, Note_on_c, 2, 70, 0
2, 35264, Note_on_c, 2, 74, 64
2, 35270, Note_on_c, 2, 72, 0
2, 35475, Note_on_c, 2, 75, 64
2, 35500, Note_on_c, 2, 74, 0
2, 35680, Note_on_c, 2, 77, 64
2, 35686, Note_on_c, 2, 75, 0
2, 36070, Note_on_c, 2, 77, 0
2, 36211, Note_on_c, 2, 74, 64
2, 36409, Note_on_c, 2, 72, 64
2, 36415, Note_on_c, 2, 74, 0
2, 36595, Note_on_c, 2, 74, 64
2, 36620, Note_on_c, 2, 72, 0
2, 36774, Note_on_c, 2, 74, 0
2, 36800, Note_on_c, 2, 75, 64
2, 36985, Note_on_c, 2, 77, 64
2, 36992, Note_on_c, 2, 75, 0
2, 37222, Note_on_c, 2, 79, 64
2, 37241, Note_on_c, 2, 77, 0
2, 37676, Note_on_c, 2, 79, 0
2, 37804, Note_on_c, 2, 72, 64
2, 37977, Note_on_c, 2, 74, 64
2, 37989, Note_on_c, 2, 72, 0
2, 38169, Note_on_c, 2, 75, 64
2, 38175, Note_on_c, 2, 74, 0
2, 38361, Note_on_c, 2, 75, 0
2, 38368, Note_on_c, 2, 70, 64
2, 38572, Note_on_c, 2, 70, 0
2, 38572, Note_on_c, 2, 69, 64
2, 38752, Note_on_c, 2, 67, 64
2, 38764, Note_on_c, 2, 69, 0
2, 38924, Note_on_c, 2, 65, 64
2, 38956, Note_on_c, 2, 67, 0
2, 39020, Note_on_c, 2, 65, 0
2, 39142, Note_on_c, 2, 77, 64
2, 40051, Note_on_c, 2, 79, 64
2, 40063, Note_on_c, 2, 77, 0
2, 40147, Note_on_c, 2, 77, 64
2, 40159, Note_on_c, 2, 79, 0
2, 40256, Note_on_c, 2, 75, 64
2, 40268, Note_on_c, 2, 77, 0
2, 40345, Note_on_c, 2, 77, 64
2, 40352, Note_on_c, 2, 75, 0
2, 40460, Note_on_c, 2, 74, 64
2, 40466, Note_on_c, 2, 77, 0
2, 40672, Note_on_c, 2, 75, 64
2, 40690, Note_on_c, 2, 74, 0
2, 41516, Note_on_c, 2, 75, 0
2, 41625, Note_on_c, 2, 81, 64
2, 41727, Note_on_c, 2, 81, 0
2, 41728, Note_on_c, 2, 82, 64
2, 41836, Note_on_c, 2, 82, 0
2, 41836, Note_on_c, 2, 84, 64
2, 42015, Note_on_c, 2, 84, 0
2, 42016, Note_on_c, 2, 75, 64
2, 42188, Note_on_c, 2, 75, 0
2, 42208, Note_on_c, 2, 74, 64
2, 43123, Note_on_c, 2, 74, 0
2, 43142, Note_on_c, 2, 67, 64
2, 43295, Note_on_c, 2, 67, 0
2, 43334, Note_on_c, 2, 69, 64
2, 43353, Note_on_c, 2, 69, 0
2, 43360, Note_on_c, 2, 67, 64
2, 43398, Note_on_c, 2, 67, 0
2, 43417, Note_on_c, 2, 67, 64
2, 43494, Note_on_c, 2, 65, 64
2, 43506, Note_on_c, 2, 67, 0
2, 43552, Note_on_c, 2, 67, 64
2, 43570, Note_on_c, 2, 65, 0
2, 43750, Note_on_c, 2, 72, 64
2, 43756, Note_on_c, 2, 67, 0
2, 43846, Note_on_c, 2, 70, 64
2, 43858, Note_on_c, 2, 72, 0
2, 43948, Note_on_c, 2, 69, 64
2, 43954, Note_on_c, 2, 70, 0
2, 44076, Note_on_c, 2, 69, 0
2, 44147, Note_on_c, 2, 70, 64
2, 44249, Note_on_c, 2, 69, 64
2, 44262, Note_on_c, 2, 70, 0
2, 44351, Note_on_c, 2, 69, 0
2, 44352, Note_on_c, 2, 67, 64
2, 44454, Note_on_c, 2, 67, 0
2, 44524, Note_on_c, 2, 65, 64
2, 44716, Note_on_c, 2, 65, 0
2, 44716, Note_on_c, 2, 67, 64
2, 44812, Note_on_c, 2, 69, 64
2, 44818, Note_on_c, 2, 67, 0
2, 44901, Note_on_c, 2, 69, 0
2, 44902, Note_on_c, 2, 70, 64
2, 45004, Note_on_c, 2, 70, 0
2, 45004, Note_on_c, 2, 72, 64
2, 45100, Note_on_c, 2, 72, 0
2, 45100, Note_on_c, 2, 74, 64
2, 45184, Note_on_c, 2, 75, 64
2, 45189, Note_on_c, 2, 74, 0
2, 45292, Note_on_c, 2, 75, 0
2, 45299, Note_on_c, 2, 77, 64
2, 46252, Note_on_c, 2, 79, 64
2, 46259, Note_on_c, 2, 77, 0
2, 46342, Note_on_c, 2, 77, 64
2, 46354, Note_on_c, 2, 79, 0
2, 46444, Note_on_c, 2, 75, 64
2, 46457, Note_on_c, 2, 77, 0
2, 46533, Note_on_c, 2, 75, 0
2, 46534, Note_on_c, 2, 74, 64
2, 46630, Note_on_c, 2, 74, 0
2, 46630, Note_on_c, 2, 72, 64
2, 46713, Note_on_c, 2, 70, 64
2, 46719, Note_on_c, 2, 72, 0
2, 46834, Note_on_c, 2, 70, 0
2, 46841, Note_on_c, 2, 74, 64
2, 47103, Note_on_c, 2, 74, 0
2, 47232, Note_on_c, 2, 74, 64
2, 47276, Note_on_c, 2, 72, 64
2, 47283, Note_on_c, 2, 74, 0
2, 47315, Note_on_c, 2, 74, 64
2, 47320, Note_on_c, 2, 72, 0
2, 47347, Note_on_c, 2, 72, 64
2, 47359, Note_on_c, 2, 74, 0
2, 47526, Note_on_c, 2, 70, 64
2, 47532, Note_on_c, 2, 72, 0
2, 47577, Note_on_c, 2, 70, 0
2, 47635, Note_on_c, 2, 70, 64
2, 49107, Note_on_c, 2, 70, 0
2, 55251, Note_on_c, 2, 70, 64
2, 55667, Note_on_c, 2, 70, 0
2, 55667, Note_on_c, 2, 72, 64
2, 55763, Note_on_c, 2, 70, 64
2, 55775, Note_on_c, 2, 72, 0
2, 55852, Note_on_c, 2, 70, 0
2, 55859, Note_on_c, 2, 69, 64
2, 55948, Note_on_c, 2, 69, 0
2, 55948, Note_on_c, 2, 70, 64
2, 56050, Note_on_c, 2, 70, 0
2, 56064, Note_on_c, 2, 72, 64
2, 56371, Note_on_c, 2, 72, 0
2, 56448, Note_on_c, 2, 74, 64
2, 56524, Note_on_c, 2, 72, 64
2, 56556, Note_on_c, 2, 74, 0
2, 56620, Note_on_c, 2, 70, 64
2, 56632, Note_on_c, 2, 72, 0
2, 56716, Note_on_c, 2, 72, 64
2, 56722, Note_on_c, 2, 70, 0
2, 56825, Note_on_c, 2, 74, 64
2, 56837, Note_on_c, 2, 72, 0
2, 57017, Note_on_c, 2, 70, 64
2, 57023, Note_on_c, 2, 74, 0
2, 57209, Note_on_c, 2, 70, 0
2, 57209, Note_on_c, 2, 69, 64
2, 57382, Note_on_c, 2, 70, 64
2, 57407, Note_on_c, 2, 69, 0
2, 57516, Note_on_c, 2, 70, 0
2, 57574, Note_on_c, 2, 70, 64
2, 57727, Note_on_c, 2, 70, 0
2, 57766, Note_on_c, 2, 77, 64
2, 58092, Note_on_c, 2, 75, 64
2, 58111, Note_on_c, 2, 77, 0
2, 58188, Note_on_c, 2, 75, 0
2, 58188, Note_on_c, 2, 74, 64
2, 58296, Note_on_c, 2, 74, 0
2, 58297, Note_on_c, 2, 72, 64
2, 58437, Note_on_c, 2, 72, 0
2, 58489, Note_on_c, 2, 74, 64
2, 58579, Note_on_c, 2, 72, 64
2, 58585, Note_on_c, 2, 74, 0
2, 58687, Note_on_c, 2, 72, 0
2, 58688, Note_on_c, 2, 71, 64
2, 58880, Note_on_c, 2, 72, 64
2, 58899, Note_on_c, 2, 71, 0
2, 59059, Note_on_c, 2, 72, 0
2, 59059, Note_on_c, 2, 74, 64
2, 59225, Note_on_c, 2, 74, 0
2, 59289, Note_on_c, 2, 75, 64
2, 59372, Note_on_c, 2, 74, 64
2, 59385, Note_on_c, 2, 75, 0
2, 59468, Note_on_c, 2, 72, 64
2, 59487, Note_on_c, 2, 74, 0
2, 59634, Note_on_c, 2, 72, 0
2, 59635, Note_on_c, 2, 74, 64
2, 59833, Note_on_c, 2, 75, 64
2, 59839, Note_on_c, 2, 74, 0
2, 60050, Note_on_c, 2, 75, 0
2, 60051, Note_on_c, 2, 72, 64
2, 60230, Note_on_c, 2, 71, 64
2, 60249, Note_on_c, 2, 72, 0
2, 60416, Note_on_c, 2, 72, 64
2, 60441, Note_on_c, 2, 71, 0
2, 60518, Note_on_c, 2, 72, 0
2, 60595, Note_on_c, 2, 72, 64
2, 60831, Note_on_c, 2, 72, 0
2, 60844, Note_on_c, 2, 79, 64
2, 61183, Note_on_c, 2, 79, 0
2, 61190, Note_on_c, 2, 77, 64
2, 61279, Note_on_c, 2, 77, 0
2, 61286, Note_on_c, 2, 75, 64
2, 61382, Note_on_c, 2, 75, 0
2, 61382, Note_on_c, 2, 74, 64
2, 61529, Note_on_c, 2, 74, 0
2, 61571, Note_on_c, 2, 79, 64
2, 61648, Note_on_c, 2, 79, 0
2, 61658, Note_on_c, 2, 81, 64
2, 61762, Note_on_c, 2, 81, 0
2, 61772, Note_on_c, 2, 82, 64
2, 61962, Note_on_c, 2, 82, 0
2, 61972, Note_on_c, 2, 77, 64
2, 62080, Note_on_c, 2, 77, 0
2, 62172, Note_on_c, 2, 75, 64
2, 62368, Note_on_c, 2, 74, 64
2, 62370, Note_on_c, 2, 75, 0
2, 62441, Note_on_c, 2, 74, 0
2, 62553, Note_on_c, 2, 74, 64
2, 62741, Note_on_c, 2, 72, 64
2, 62763, Note_on_c, 2, 74, 0
2, 62817, Note_on_c, 2, 72, 0
2, 62921, Note_on_c, 2, 72, 64
2, 63140, Note_on_c, 2, 78, 64
2, 63143, Note_on_c, 2, 72, 0
2, 63220, Note_on_c, 2, 78, 0
2, 63224, Note_on_c, 2, 79, 64
2, 63340, Note_on_c, 2, 81, 64
2, 63347, Note_on_c, 2, 79, 0
2, 63538, Note_on_c, 2, 75, 64
2, 63541, Note_on_c, 2, 81, 0
2, 63643, Note_on_c, 2, 75, 0
2, 63732, Note_on_c, 2, 74, 64
2, 63924, Note_on_c, 2, 72, 64
2, 63933, Note_on_c, 2, 74, 0
2, 63990, Note_on_c, 2, 72, 0
2, 64114, Note_on_c, 2, 72, 64
2, 64288, Note_on_c, 2, 70, 64
2, 64301, Note_on_c, 2, 72, 0
2, 64359, Note_on_c, 2, 70, 0
2, 64462, Note_on_c, 2, 70, 64
2, 64637, Note_on_c, 2, 70, 0
2, 64667, Note_on_c, 2, 79, 64
2, 64984, Note_on_c, 2, 77, 64
2, 64991, Note_on_c, 2, 79, 0
2, 65078, Note_on_c, 2, 75, 64
2, 65096, Note_on_c, 2, 77, 0
2, 65169, Note_on_c, 2, 74, 64
2, 65178, Note_on_c, 2, 75, 0
2, 65272, Note_on_c, 2, 72, 64
2, 65284, Note_on_c, 2, 74, 0
2, 65370, Note_on_c, 2, 74, 64
2, 65372, Note_on_c, 2, 72, 0
2, 65467, Note_on_c, 2, 72, 64
2, 65469, Note_on_c, 2, 74, 0
2, 65546, Note_on_c, 2, 71, 64
2, 65548, Note_on_c, 2, 72, 0
2, 65647, Note_on_c, 2, 71, 0
2, 65652, Note_on_c, 2, 72, 64
2, 66229, Note_on_c, 2, 75, 64
2, 66232, Note_on_c, 2, 72, 0
2, 66321, Note_on_c, 2, 75, 0
2, 66321, Note_on_c, 2, 74, 64
2, 66432, Note_on_c, 2, 72, 64
2, 66440, Note_on_c, 2, 74, 0
2, 66518, Note_on_c, 2, 74, 64
2, 66590, Note_on_c, 2, 74, 0
2, 66592, Note_on_c, 2, 75, 64
2, 66597, Note_on_c, 2, 72, 0
2, 66904, Note_on_c, 2, 72, 64
2, 66911, Note_on_c, 2, 75, 0
2, 66994, Note_on_c, 2, 68, 64
2, 67011, Note_on_c, 2, 72, 0
2, 67083, Note_on_c, 2, 68, 0
2, 67085, Note_on_c, 2, 67, 64
2, 67178, Note_on_c, 2, 68, 64
2, 67184, Note_on_c, 2, 67, 0
2, 67615, Note_on_c, 2, 68, 0
2, 67698, Note_on_c, 2, 75, 64
2, 67784, Note_on_c, 2, 75, 0
2, 67793, Note_on_c, 2, 74, 64
2, 67886, Note_on_c, 2, 75, 64
2, 67891, Note_on_c, 2, 74, 0
2, 67978, Note_on_c, 2, 75, 0
2, 67988, Note_on_c, 2, 72, 64
2, 68074, Note_on_c, 2, 72, 0
2, 68076, Note_on_c, 2, 71, 64
2, 68170, Note_on_c, 2, 72, 64
2, 68173, Note_on_c, 2, 71, 0
2, 68211, Note_on_c, 2, 72, 0
2, 68268, Note_on_c, 2, 72, 64
2, 68369, Note_on_c, 2, 68, 64
2, 68385, Note_on_c, 2, 72, 0
2, 68451, Note_on_c, 2, 68, 0
2, 68455, Note_on_c, 2, 67, 64
2, 68549, Note_on_c, 2, 68, 64
2, 68552, Note_on_c, 2, 67, 0
2, 68583, Note_on_c, 2, 68, 0
2, 68654, Note_on_c, 2, 68, 64
2, 68770, Note_on_c, 2, 67, 64
2, 68777, Note_on_c, 2, 68, 0
2, 68866, Note_on_c, 2, 67, 0
2, 68869, Note_on_c, 2, 66, 64
2, 68970, Note_on_c, 2, 66, 0
2, 69072, Note_on_c, 2, 66, 64
2, 69257, Note_on_c, 2, 69, 64
2, 69270, Note_on_c, 2, 66, 0
2, 69348, Note_on_c, 2, 72, 64
2, 69351, Note_on_c, 2, 69, 0
2, 69439, Note_on_c, 2, 72, 0
2, 69448, Note_on_c, 2, 75, 64
2, 69638, Note_on_c, 2, 74, 64
2, 69642, Note_on_c, 2, 75, 0
2, 69718, Note_on_c, 2, 74, 0
2, 69821, Note_on_c, 2, 74, 64
2, 70650, Note_on_c, 2, 74, 0
2, 70721, Note_on_c, 2, 79, 64
2, 70814, Note_on_c, 2, 78, 64
2, 70817, Note_on_c, 2, 79, 0
2, 70912, Note_on_c, 2, 78, 0
2, 70913, Note_on_c, 2, 76, 64
2, 71002, Note_on_c, 2, 76, 0
2, 71014, Note_on_c, 2, 74, 64
2, 71276, Note_on_c, 2, 72, 64
2, 71278, Note_on_c, 2, 74, 0
2, 71390, Note_on_c, 2, 70, 64
2, 71393, Note_on_c, 2, 72, 0
2, 71692, Note_on_c, 2, 70, 0
2, 71786, Note_on_c, 2, 70, 64
2, 71816, Note_on_c, 2, 70, 0
2, 71822, Note_on_c, 2, 69, 64
2, 71859, Note_on_c, 2, 70, 64
2, 71868, Note_on_c, 2, 69, 0
2, 71893, Note_on_c, 2, 69, 64
2, 71905, Note_on_c, 2, 70, 0
2, 71956, Note_on_c, 2, 67, 64
2, 71975, Note_on_c, 2, 69, 0
2, 72041, Note_on_c, 2, 67, 0
2, 72041, Note_on_c, 2, 69, 64
2, 72152, Note_on_c, 2, 67, 64
2, 72156, Note_on_c, 2, 69, 0
2, 73664, Note_on_c, 2, 67, 0
2, 83651, Note_on_c, 2, 67, 64
2, 84305, Note_on_c, 2, 67, 0
2, 84395, Note_on_c, 2, 67, 64
2, 84434, Note_on_c, 2, 67, 0
2, 84447, Note_on_c, 2, 66, 64
2, 84482, Note_on_c, 2, 66, 0
2, 84483, Note_on_c, 2, 67, 64
2, 85090, Note_on_c, 2, 67, 0
2, 85188, Note_on_c, 2, 66, 64
2, 85425, Note_on_c, 2, 66, 0
2, 85430, Note_on_c, 2, 67, 64
2, 85477, Note_on_c, 2, 67, 0
2, 85480, Note_on_c, 2, 66, 64
2, 85520, Note_on_c, 2, 66, 0
2, 85528, Note_on_c, 2, 64, 64
2, 85573, Note_on_c, 2, 66, 64
2, 85587, Note_on_c, 2, 64, 0
2, 85616, Note_on_c, 2, 67, 64
2, 85622, Note_on_c, 2, 66, 0
2, 85813, Note_on_c, 2, 67, 0
2, 85818, Note_on_c, 2, 69, 64
2, 86025, Note_on_c, 2, 70, 64
2, 86037, Note_on_c, 2, 69, 0
2, 86787, Note_on_c, 2, 70, 0
2, 86936, Note_on_c, 2, 67, 64
2, 87089, Note_on_c, 2, 67, 0
2, 87096, Note_on_c, 2, 69, 64
2, 87148, Note_on_c, 2, 67, 64
2, 87160, Note_on_c, 2, 69, 0
2, 87212, Note_on_c, 2, 67, 0
2, 87218, Note_on_c, 2, 66, 64
2, 87269, Note_on_c, 2, 67, 64
2, 87282, Note_on_c, 2, 66, 0
2, 87493, Note_on_c, 2, 67, 0
2, 87506, Note_on_c, 2, 72, 64
2, 88440, Note_on_c, 2, 69, 64
2, 88446, Note_on_c, 2, 72, 0
2, 88619, Note_on_c, 2, 69, 0
2, 88620, Note_on_c, 2, 70, 64
2, 88671, Note_on_c, 2, 70, 0
2, 88677, Note_on_c, 2, 69, 64
2, 88734, Note_on_c, 2, 69, 0
2, 88735, Note_on_c, 2, 67, 64
2, 88792, Note_on_c, 2, 69, 64
2, 88799, Note_on_c, 2, 67, 0
2, 89010, Note_on_c, 2, 74, 64
2, 89016, Note_on_c, 2, 69, 0
2, 89842, Note_on_c, 2, 74, 0
2, 89983, Note_on_c, 2, 67, 64
2, 90079, Note_on_c, 2, 69, 64
2, 90091, Note_on_c, 2, 67, 0
2, 90181, Note_on_c, 2, 69, 0
2, 90181, Note_on_c, 2, 70, 64
2, 90251, Note_on_c, 2, 70, 0
2, 90258, Note_on_c, 2, 72, 64
2, 90348, Note_on_c, 2, 74, 64
2, 90354, Note_on_c, 2, 72, 0
2, 90559, Note_on_c, 2, 74, 0
2, 90565, Note_on_c, 2, 75, 64
2, 91096, Note_on_c, 2, 75, 0
2, 91141, Note_on_c, 2, 74, 64
2, 91333, Note_on_c, 2, 74, 0
2, 91333, Note_on_c, 2, 72, 64
2, 91538, Note_on_c, 2, 70, 64
2, 91544, Note_on_c, 2, 72, 0
2, 91628, Note_on_c, 2, 69, 64
2, 91646, Note_on_c, 2, 70, 0
2, 91704, Note_on_c, 2, 69, 0
2, 91743, Note_on_c, 2, 69, 64
2, 91935, Note_on_c, 2, 70, 64
2, 91941, Note_on_c, 2, 69, 0
2, 92024, Note_on_c, 2, 70, 0
2, 92031, Note_on_c, 2, 72, 64
2, 92140, Note_on_c, 2, 67, 64
2, 92152, Note_on_c, 2, 72, 0
2, 92332, Note_on_c, 2, 66, 64
2, 92338, Note_on_c, 2, 67, 0
2, 92460, Note_on_c, 2, 66, 0
2, 92504, Note_on_c, 2, 64, 64
2, 92703, Note_on_c, 2, 62, 64
2, 92715, Note_on_c, 2, 64, 0
2, 92908, Note_on_c, 2, 67, 64
2, 92914, Note_on_c, 2, 62, 0
2, 93778, Note_on_c, 2, 69, 64
2, 93791, Note_on_c, 2, 67, 0
2, 93854, Note_on_c, 2, 69, 0
2, 93868, Note_on_c, 2, 67, 64
2, 93925, Note_on_c, 2, 67, 0
2, 93925, Note_on_c, 2, 66, 64
2, 94001, Note_on_c, 2, 66, 0
2, 94008, Note_on_c, 2, 67, 64
2, 94092, Note_on_c, 2, 72, 64
2, 94104, Note_on_c, 2, 67, 0
2, 94200, Note_on_c, 2, 69, 64
2, 94207, Note_on_c, 2, 72, 0
2, 94379, Note_on_c, 2, 69, 0
2, 94380, Note_on_c, 2, 67, 64
2, 94668, Note_on_c, 2, 67, 0
2, 94751, Note_on_c, 2, 67, 64
2, 94795, Note_on_c, 2, 67, 0
2, 94796, Note_on_c, 2, 66, 64
2, 94828, Note_on_c, 2, 67, 64
2, 94840, Note_on_c, 2, 66, 0
2, 94866, Note_on_c, 2, 67, 0
2, 94872, Note_on_c, 2, 66, 64
2, 94904, Note_on_c, 2, 67, 64
2, 94923, Note_on_c, 2, 67, 0
2, 95090, Note_on_c, 2, 67, 64
2, 95096, Note_on_c, 2, 66, 0
2, 95147, Note_on_c, 2, 67, 0
2, 95212, Note_on_c, 2, 67, 64
2, 95404, Note_on_c, 2, 67, 0
2, 95410, Note_on_c, 2, 79, 64
2, 95615, Note_on_c, 2, 77, 64
2, 95627, Note_on_c, 2, 79, 0
2, 96133, Note_on_c, 2, 77, 0
2, 96147, Note_on_c, 2, 75, 64
2, 96216, Note_on_c, 2, 74, 64
2, 96245, Note_on_c, 2, 75, 0
2, 96318, Note_on_c, 2, 74, 0
2, 96319, Note_on_c, 2, 79, 64
2, 96421, Note_on_c, 2, 77, 64
2, 96434, Note_on_c, 2, 79, 0
2, 96511, Note_on_c, 2, 75, 64
2, 96523, Note_on_c, 2, 77, 0
2, 96600, Note_on_c, 2, 74, 64
2, 96607, Note_on_c, 2, 75, 0
2, 96722, Note_on_c, 2, 77, 64
2, 96728, Note_on_c, 2, 74, 0
2, 96844, Note_on_c, 2, 75, 64
2, 96850, Note_on_c, 2, 77, 0
2, 96946, Note_on_c, 2, 75, 0
2, 96952, Note_on_c, 2, 74, 64
2, 97022, Note_on_c, 2, 74, 0
2, 97036, Note_on_c, 2, 72, 64
2, 97132, Note_on_c, 2, 82, 64
2, 97138, Note_on_c, 2, 72, 0
2, 97503, Note_on_c, 2, 82, 0
2, 97605, Note_on_c, 2, 81, 64
2, 97695, Note_on_c, 2, 82, 64
2, 97701, Note_on_c, 2, 81, 0
2, 97778, Note_on_c, 2, 82, 0
2, 97784, Note_on_c, 2, 84, 64
2, 97887, Note_on_c, 2, 82, 64
2, 97912, Note_on_c, 2, 84, 0
2, 97976, Note_on_c, 2, 81, 64
2, 97983, Note_on_c, 2, 82, 0
2, 98065, Note_on_c, 2, 81, 0
2, 98071, Note_on_c, 2, 79, 64
2, 98154, Note_on_c, 2, 79, 0
2, 98163, Note_on_c, 2, 81, 64
2, 98239, Note_on_c, 2, 81, 0
2, 98252, Note_on_c, 2, 79, 64
2, 98360, Note_on_c, 2, 78, 64
2, 98367, Note_on_c, 2, 79, 0
2, 98449, Note_on_c, 2, 78, 0
2, 98456, Note_on_c, 2, 79, 64
2, 98552, Note_on_c, 2, 79, 0
2, 98552, Note_on_c, 2, 81, 64
2, 98641, Note_on_c, 2, 81, 0
2, 98648, Note_on_c, 2, 72, 64
2, 99096, Note_on_c, 2, 72, 0
2, 99160, Note_on_c, 2, 75, 64
2, 99249, Note_on_c, 2, 75, 0
2, 99256, Note_on_c, 2, 74, 64
2, 99326, Note_on_c, 2, 74, 0
2, 99327, Note_on_c, 2, 72, 64
2, 99436, Note_on_c, 2, 74, 64
2, 99442, Note_on_c, 2, 72, 0
2, 99525, Note_on_c, 2, 72, 64
2, 99544, Note_on_c, 2, 74, 0
2, 99608, Note_on_c, 2, 70, 64
2, 99621, Note_on_c, 2, 72, 0
2, 99684, Note_on_c, 2, 70, 0
2, 99704, Note_on_c, 2, 69, 64
2, 99800, Note_on_c, 2, 70, 64
2, 99825, Note_on_c, 2, 69, 0
2, 99902, Note_on_c, 2, 70, 0
2, 99992, Note_on_c, 2, 79, 64
2, 100076, Note_on_c, 2, 75, 64
2, 100081, Note_on_c, 2, 79, 0
2, 100172, Note_on_c, 2, 75, 0
2, 100184, Note_on_c, 2, 73, 64
2, 100260, Note_on_c, 2, 73, 0
2, 100274, Note_on_c, 2, 74, 64
2, 100389, Note_on_c, 2, 74, 0
2, 100389, Note_on_c, 2, 67, 64
2, 100588, Note_on_c, 2, 70, 64
2, 100600, Note_on_c, 2, 67, 0
2, 100869, Note_on_c, 2, 70, 0
2, 100972, Note_on_c, 2, 70, 64
2, 101004, Note_on_c, 2, 70, 0
2, 101004, Note_on_c, 2, 69, 64
2, 101042, Note_on_c, 2, 70, 64
2, 101048, Note_on_c, 2, 69, 0
2, 101080, Note_on_c, 2, 69, 64
2, 101106, Note_on_c, 2, 70, 0
2, 101151, Note_on_c, 2, 67, 64
2, 101169, Note_on_c, 2, 69, 0
2, 101234, Note_on_c, 2, 67, 0
2, 101247, Note_on_c, 2, 69, 64
2, 101394, Note_on_c, 2, 69, 0
2, 101394, Note_on_c, 2, 67, 64
2, 104425, Note_on_c, 2, 67, 0
2, 104425, End_track
3, 0, Start_track
3, 0, Title_t, "Accomp 8"
3, 0, MIDI_port, 0
3, 0, Control_c, 1, 7, 82
3, 0, Control_c, 1, 10, 42
3, 0, Program_c, 1, 79
3, 883, Note_on_c, 1, 55, 64
3, 1375, Note_on_c, 1, 55, 0
3, 1542, Note_on_c, 1, 55, 64
3, 2272, Note_on_c, 1, 53, 64
3, 2272, Note_on_c, 1, 62, 64
3, 2278, Note_on_c, 1, 55, 0
3, 2937, Note_on_c, 1, 62, 0
3, 3059, Note_on_c, 1, 62, 64
3, 3059, Note_on_c, 1, 58, 64
3, 3084, Note_on_c, 1, 53, 0
3, 3852, Note_on_c, 1, 62, 0
3, 3852, Note_on_c, 1, 60, 64
3, 4288, Note_on_c, 1, 57, 64
3, 4300, Note_on_c, 1, 58, 0
3, 4428, Note_on_c, 1, 55, 64
3, 4441, Note_on_c, 1, 57, 0
3, 4627, Note_on_c, 1, 57, 64
3, 4633, Note_on_c, 1, 65, 64
3, 4639, Note_on_c, 1, 60, 0
3, 4652, Note_on_c, 1, 55, 0
3, 5369, Note_on_c, 1, 55, 64
3, 5395, Note_on_c, 1, 57, 0
3, 5715, Note_on_c, 1, 63, 64
3, 5740, Note_on_c, 1, 65, 0
3, 5920, Note_on_c, 1, 62, 64
3, 5926, Note_on_c, 1, 63, 0
3, 6131, Note_on_c, 1, 63, 64
3, 6150, Note_on_c, 1, 62, 0
3, 6860, Note_on_c, 1, 60, 64
3, 6873, Note_on_c, 1, 55, 0
3, 7628, Note_on_c, 1, 63, 0
3, 7641, Note_on_c, 1, 62, 64
3, 8064, Control_c, 1, 7, 75
3, 8409, Note_on_c, 1, 58, 64
3, 8421, Note_on_c, 1, 60, 0
3, 8774, Note_on_c, 1, 57, 64
3, 8793, Note_on_c, 1, 58, 0
3, 9151, Note_on_c, 1, 57, 0
3, 9152, Note_on_c, 1, 55, 64
3, 9561, Note_on_c, 1, 54, 64
3, 9568, Note_on_c, 1, 55, 0
3, 9900, Note_on_c, 1, 62, 0
3, 9958, Note_on_c, 1, 55, 64
3, 9964, Note_on_c, 1, 60, 64
3, 9970, Note_on_c, 1, 54, 0
3, 10348, Note_on_c, 1, 55, 0
3, 10348, Note_on_c, 1, 57, 64
3, 10707, Note_on_c, 1, 58, 64
3, 10712, Note_on_c, 1, 57, 0
3, 10713, Note_on_c, 1, 62, 64
3, 10719, Note_on_c, 1, 60, 0
3, 11059, Note_on_c, 1, 57, 64
3, 11071, Note_on_c, 1, 58, 0
3, 11244, Note_on_c, 1, 55, 64
3, 11257, Note_on_c, 1, 57, 0
3, 11443, Note_on_c, 1, 57, 64
3, 11468, Note_on_c, 1, 55, 0
3, 12575, Note_on_c, 1, 57, 0
3, 12601, Note_on_c, 1, 55, 64
3, 12774, Note_on_c, 1, 54, 64
3, 12863, Note_on_c, 1, 55, 0
3, 13043, Note_on_c, 1, 55, 64
3, 13055, Note_on_c, 1, 54, 0
3, 13382, Note_on_c, 1, 58, 64
3, 13394, Note_on_c, 1, 62, 0
3, 13836, Note_on_c, 1, 55, 0
3, 14144, Note_on_c, 1, 57, 64
3, 14169, Note_on_c, 1, 58, 0
3, 14342, Note_on_c, 1, 55, 64
3, 14355, Note_on_c, 1, 57, 0
3, 14547, Note_on_c, 1, 57, 64
3, 14578, Note_on_c, 1, 55, 0
3, 14899, Note_on_c, 1, 60, 64
3, 15686, Note_on_c, 1, 58, 64
3, 15699, Note_on_c, 1, 57, 0
3, 15718, Note_on_c, 1, 60, 0
3, 15878, Note_on_c, 1, 57, 64
3, 15897, Note_on_c, 1, 58, 0
3, 16083, Note_on_c, 1, 58, 64
3, 16102, Note_on_c, 1, 57, 0
3, 16499, Note_on_c, 1, 62, 64
3, 16505, Note_on_c, 1, 67, 64
3, 16511, Note_on_c, 1, 58, 0
3, 17043, Note_on_c, 1, 60, 64
3, 17061, Note_on_c, 1, 67, 0
3, 17068, Note_on_c, 1, 62, 0
3, 17260, Note_on_c, 1, 66, 64
3, 17446, Note_on_c, 1, 58, 64
3, 17452, Note_on_c, 1, 60, 0
3, 17484, Note_on_c, 1, 66, 0
3, 17638, Note_on_c, 1, 58, 0
3, 17651, Note_on_c, 1, 67, 64
3, 17651, Note_on_c, 1, 57, 64
3, 17836, Note_on_c, 1, 55, 64
3, 17849, Note_on_c, 1, 57, 0
3, 18041, Note_on_c, 1, 63, 64
3, 18048, Note_on_c, 1, 60, 64
3, 18053, Note_on_c, 1, 55, 0
3, 18054, Note_on_c, 1, 67, 0
3, 18418, Note_on_c, 1, 63, 0
3, 18419, Note_on_c, 1, 57, 64
3, 18425, Note_on_c, 1, 60, 0
3, 18425, Note_on_c, 1, 62, 64
3, 19148, Note_on_c, 1, 57, 0
3, 19154, Note_on_c, 1, 62, 0
3, 19584, Note_on_c, 1, 58, 64
3, 19584, Note_on_c, 1, 55, 64
3, 19769, Note_on_c, 1, 58, 0
3, 19942, Note_on_c, 1, 63, 64
3, 20300, Note_on_c, 1, 60, 64
3, 20306, Note_on_c, 1, 63, 0
3, 20544, Note_on_c, 1, 55, 0
3, 20684, Note_on_c, 1, 60, 0
3, 20684, Note_on_c, 1, 62, 64
3, 20684, Note_on_c, 1, 57, 64
3, 21055, Note_on_c, 1, 62, 0
3, 21068, Note_on_c, 1, 60, 64
3, 21253, Note_on_c, 1, 57, 0
3, 21452, Note_on_c, 1, 55, 64
3, 21849, Note_on_c, 1, 58, 64
3, 21855, Note_on_c, 1, 60, 0
3, 22054, Note_on_c, 1, 60, 64
3, 22060, Note_on_c, 1, 58, 0
3, 22278, Note_on_c, 1, 62, 64
3, 22284, Note_on_c, 1, 60, 0
3, 22662, Note_on_c, 1, 60, 64
3, 22674, Note_on_c, 1, 62, 0
3, 22828, Note_on_c, 1, 58, 64
3, 22841, Note_on_c, 1, 60, 0
3, 23032, Note_on_c, 1, 58, 0
3, 23040, Note_on_c, 1, 57, 64
3, 23750, Note_on_c, 1, 53, 64
3, 23756, Note_on_c, 1, 55, 0
3, 24102, Note_on_c, 1, 57, 0
3, 24115, Note_on_c, 1, 58, 64
3, 24307, Note_on_c, 1, 58, 0
3, 24313, Note_on_c, 1, 60, 64
3, 24518, Note_on_c, 1, 62, 64
3, 24524, Note_on_c, 1, 60, 0
3, 24889, Note_on_c, 1, 63, 64
3, 24914, Note_on_c, 1, 62, 0
3, 25273, Note_on_c, 1, 58, 64
3, 25280, Note_on_c, 1, 65, 64
3, 25292, Note_on_c, 1, 63, 0
3, 25311, Note_on_c, 1, 53, 0
3, 25664, Note_on_c, 1, 67, 64
3, 25676, Note_on_c, 1, 65, 0
3, 26041, Note_on_c, 1, 60, 64
3, 26048, Note_on_c, 1, 67, 0
3, 26835, Note_on_c, 1, 57, 64
3, 26853, Note_on_c, 1, 58, 0
3, 27219, Note_on_c, 1, 62, 64
3, 27244, Note_on_c, 1, 60, 0
3, 27417, Note_on_c, 1, 63, 64
3, 27455, Note_on_c, 1, 62, 0
3, 27635, Note_on_c, 1, 65, 64
3, 27641, Note_on_c, 1, 63, 0
3, 27993, Note_on_c, 1, 59, 64
3, 28012, Note_on_c, 1, 57, 0
3, 28179, Note_on_c, 1, 60, 64
3, 28185, Note_on_c, 1, 59, 0
3, 28377, Note_on_c, 1, 62, 64
3, 28390, Note_on_c, 1, 60, 0
3, 28774, Note_on_c, 1, 67, 64
3, 28793, Note_on_c, 1, 65, 0
3, 28953, Note_on_c, 1, 65, 64
3, 28978, Note_on_c, 1, 67, 0
3, 29171, Note_on_c, 1, 63, 64
3, 29189, Note_on_c, 1, 65, 0
3, 29478, Note_on_c, 1, 60, 64
3, 29503, Note_on_c, 1, 62, 0
3, 29715, Note_on_c, 1, 59, 64
3, 29727, Note_on_c, 1, 60, 0
3, 29939, Note_on_c, 1, 59, 0
3, 29939, Note_on_c, 1, 60, 64
3, 30451, Note_on_c, 1, 63, 0
3, 30643, Note_on_c, 1, 62, 64
3, 30713, Note_on_c, 1, 60, 0
3, 31027, Note_on_c, 1, 58, 64
3, 31071, Note_on_c, 1, 62, 0
3, 31219, Note_on_c, 1, 60, 64
3, 31244, Note_on_c, 1, 58, 0
3, 31424, Note_on_c, 1, 62, 64
3, 31436, Note_on_c, 1, 60, 0
3, 31814, Note_on_c, 1, 63, 64
3, 32025, Note_on_c, 1, 65, 64
3, 32031, Note_on_c, 1, 63, 0
3, 32115, Note_on_c, 1, 62, 0
3, 32217, Note_on_c, 1, 67, 64
3, 32236, Note_on_c, 1, 65, 0
3, 32428, Note_on_c, 1, 65, 64
3, 32460, Note_on_c, 1, 67, 0
3, 32646, Note_on_c, 1, 55, 64
3, 32646, Note_on_c, 1, 63, 64
3, 32664, Note_on_c, 1, 65, 0
3, 32825, Note_on_c, 1, 63, 0
3, 32825, Note_on_c, 1, 62, 64
3, 33011, Note_on_c, 1, 57, 64
3, 33017, Note_on_c, 1, 60, 64
3, 33023, Note_on_c, 1, 55, 0
3, 33023, Note_on_c, 1, 62, 0
3, 33644, Note_on_c, 1, 60, 0
3, 33676, Note_on_c, 1, 57, 0
3, 34144, Note_on_c, 1, 67, 64
3, 34144, Note_on_c, 1, 58, 64
3, 34528, Note_on_c, 1, 58, 0
3, 34534, Note_on_c, 1, 60, 64
3, 34534, Note_on_c, 1, 65, 64
3, 34553, Note_on_c, 1, 67, 0
3, 34912, Note_on_c, 1, 57, 64
3, 34924, Note_on_c, 1, 60, 0
3, 35283, Note_on_c, 1, 58, 64
3, 35296, Note_on_c, 1, 57, 0
3, 35648, Note_on_c, 1, 62, 64
3, 35654, Note_on_c, 1, 58, 0
3, 35820, Note_on_c, 1, 65, 0
3, 35840, Note_on_c, 1, 60, 64
3, 35846, Note_on_c, 1, 62, 0
3, 36032, Note_on_c, 1, 60, 0
3, 36038, Note_on_c, 1, 62, 64
3, 36390, Note_on_c, 1, 62, 0
3, 36396, Note_on_c, 1, 65, 64
3, 36409, Note_on_c, 1, 70, 64
3, 36620, Note_on_c, 1, 70, 0
3, 36793, Note_on_c, 1, 58, 64
3, 36800, Note_on_c, 1, 70, 64
3, 36812, Note_on_c, 1, 65, 0
3, 37241, Note_on_c, 1, 63, 64
3, 37247, Note_on_c, 1, 58, 0
3, 37401, Note_on_c, 1, 62, 64
3, 37413, Note_on_c, 1, 63, 0
3, 37606, Note_on_c, 1, 60, 64
3, 37632, Note_on_c, 1, 70, 0
3, 37637, Note_on_c, 1, 62, 0
3, 37996, Note_on_c, 1, 67, 64
3, 38380, Note_on_c, 1, 65, 64
3, 38386, Note_on_c, 1, 67, 0
3, 38732, Note_on_c, 1, 58, 64
3, 38745, Note_on_c, 1, 60, 0
3, 38899, Note_on_c, 1, 57, 64
3, 38904, Note_on_c, 1, 58, 0
3, 39091, Note_on_c, 1, 58, 64
3, 39110, Note_on_c, 1, 57, 0
3, 39276, Note_on_c, 1, 58, 0
3, 39276, Note_on_c, 1, 60, 64
3, 39448, Note_on_c, 1, 65, 0
3, 39481, Note_on_c, 1, 68, 64
3, 39481, Note_on_c, 1, 62, 64
3, 39487, Note_on_c, 1, 60, 0
3, 39852, Note_on_c, 1, 68, 0
3, 39878, Note_on_c, 1, 67, 64
3, 40249, Note_on_c, 1, 60, 64
3, 40274, Note_on_c, 1, 62, 0
3, 40435, Note_on_c, 1, 59, 64
3, 40441, Note_on_c, 1, 60, 0
3, 40646, Note_on_c, 1, 59, 0
3, 40646, Note_on_c, 1, 60, 64
3, 40857, Note_on_c, 1, 67, 0
3, 41056, Note_on_c, 1, 67, 64
3, 41433, Note_on_c, 1, 65, 64
3, 41465, Note_on_c, 1, 67, 0
3, 41811, Note_on_c, 1, 58, 64
3, 41836, Note_on_c, 1, 60, 0
3, 41990, Note_on_c, 1, 57, 64
3, 41996, Note_on_c, 1, 58, 0
3, 42201, Note_on_c, 1, 58, 64
3, 42226, Note_on_c, 1, 65, 0
3, 42239, Note_on_c, 1, 57, 0
3, 42566, Note_on_c, 1, 65, 64
3, 42950, Note_on_c, 1, 67, 64
3, 42962, Note_on_c, 1, 65, 0
3, 43353, Note_on_c, 1, 67, 0
3, 43359, Note_on_c, 1, 58, 0
3, 43750, Note_on_c, 1, 63, 64
3, 43750, Note_on_c, 1, 67, 64
3, 44146, Note_on_c, 1, 63, 0
3, 44153, Note_on_c, 1, 67, 0
3, 44512, Note_on_c, 1, 60, 64
3, 44518, Note_on_c, 1, 57, 64
3, 44934, Note_on_c, 1, 60, 0
3, 44940, Note_on_c, 1, 57, 0
3, 45657, Note_on_c, 1, 63, 64
3, 45657, Note_on_c, 1, 57, 64
3, 45823, Note_on_c, 1, 63, 0
3, 45874, Note_on_c, 1, 57, 0
3, 46041, Note_on_c, 1, 62, 64
3, 46048, Note_on_c, 1, 58, 64
3, 46432, Note_on_c, 1, 67, 64
3, 46437, Note_on_c, 1, 62, 0
3, 46835, Note_on_c, 1, 65, 64
3, 46848, Note_on_c, 1, 67, 0
3, 47014, Note_on_c, 1, 62, 64
3, 47020, Note_on_c, 1, 65, 0
3, 47212, Note_on_c, 1, 62, 0
3, 47219, Note_on_c, 1, 57, 64
3, 47232, Note_on_c, 1, 58, 0
3, 47232, Note_on_c, 1, 63, 64
3, 47590, Note_on_c, 1, 53, 64
3, 47615, Note_on_c, 1, 57, 0
3, 47878, Note_on_c, 1, 63, 0
3, 47980, Note_on_c, 1, 62, 64
3, 48172, Note_on_c, 1, 63, 64
3, 48204, Note_on_c, 1, 62, 0
3, 48384, Note_on_c, 1, 58, 64
3, 48384, Note_on_c, 1, 65, 64
3, 48389, Note_on_c, 1, 63, 0
3, 48409, Note_on_c, 1, 53, 0
3, 48710, Note_on_c, 1, 63, 64
3, 48729, Note_on_c, 1, 65, 0
3, 48889, Note_on_c, 1, 63, 0
3, 48889, Note_on_c, 1, 62, 64
3, 49093, Note_on_c, 1, 62, 0
3, 49094, Note_on_c, 1, 60, 64
3, 49836, Note_on_c, 1, 57, 64
3, 49868, Note_on_c, 1, 58, 0
3, 50214, Note_on_c, 1, 62, 64
3, 50246, Note_on_c, 1, 60, 0
3, 50406, Note_on_c, 1, 63, 64
3, 50444, Note_on_c, 1, 62, 0
3, 50611, Note_on_c, 1, 65, 64
3, 50617, Note_on_c, 1, 63, 0
3, 50995, Note_on_c, 1, 59, 64
3, 51013, Note_on_c, 1, 57, 0
3, 51206, Note_on_c, 1, 60, 64
3, 51212, Note_on_c, 1, 59, 0
3, 51404, Note_on_c, 1, 62, 64
3, 51417, Note_on_c, 1, 60, 0
3, 51603, Note_on_c, 1, 60, 64
3, 51615, Note_on_c, 1, 62, 0
3, 51782, Note_on_c, 1, 59, 64
3, 51820, Note_on_c, 1, 60, 0
3, 52006, Note_on_c, 1, 57, 64
3, 52012, Note_on_c, 1, 59, 0
3, 52211, Note_on_c, 1, 55, 64
3, 52223, Note_on_c, 1, 57, 0
3, 52575, Note_on_c, 1, 65, 0
3, 52576, Note_on_c, 1, 63, 64
3, 52761, Note_on_c, 1, 63, 0
3, 52774, Note_on_c, 1, 62, 64
3, 52979, Note_on_c, 1, 63, 64
3, 52985, Note_on_c, 1, 62, 0
3, 53311, Note_on_c, 1, 63, 0
3, 53318, Note_on_c, 1, 55, 0
3, 53318, Note_on_c, 1, 72, 64
3, 53324, Note_on_c, 1, 57, 64
3, 53510, Note_on_c, 1, 58, 64
3, 53522, Note_on_c, 1, 57, 0
3, 53567, Note_on_c, 1, 72, 0
3, 53696, Note_on_c, 1, 66, 64
3, 53702, Note_on_c, 1, 58, 0
3, 53702, Note_on_c, 1, 60, 64
3, 53894, Note_on_c, 1, 60, 0
3, 53894, Note_on_c, 1, 62, 64
3, 54099, Note_on_c, 1, 66, 0
3, 54105, Note_on_c, 1, 67, 64
3, 54105, Note_on_c, 1, 63, 64
3, 54111, Note_on_c, 1, 62, 0
3, 54489, Note_on_c, 1, 69, 64
3, 54495, Note_on_c, 1, 67, 0
3, 54873, Note_on_c, 1, 62, 64
3, 54879, Note_on_c, 1, 63, 0
3, 55052, Note_on_c, 1, 62, 0
3, 55052, Note_on_c, 1, 60, 64
3, 55296, Note_on_c, 1, 58, 64
3, 55320, Note_on_c, 1, 60, 0
3, 55660, Note_on_c, 1, 67, 64
3, 55660, Note_on_c, 1, 63, 64
3, 55666, Note_on_c, 1, 69, 0
3, 55667, Note_on_c, 1, 58, 0
3, 56070, Note_on_c, 1, 65, 64
3, 56076, Note_on_c, 1, 67, 0
3, 56428, Note_on_c, 1, 63, 0
3, 56428, Note_on_c, 1, 62, 64
3, 56595, Note_on_c, 1, 60, 64
3, 56607, Note_on_c, 1, 62, 0
3, 56793, Note_on_c, 1, 58, 64
3, 56806, Note_on_c, 1, 60, 0
3, 57177, Note_on_c, 1, 63, 64
3, 57183, Note_on_c, 1, 65, 0
3, 57561, Note_on_c, 1, 62, 64
3, 57567, Note_on_c, 1, 63, 0
3, 57676, Note_on_c, 1, 58, 0
3, 57887, Note_on_c, 1, 62, 0
3, 57888, Note_on_c, 1, 67, 64
3, 57888, Note_on_c, 1, 58, 64
3, 58163, Note_on_c, 1, 67, 0
3, 58188, Note_on_c, 1, 58, 0
3, 58291, Note_on_c, 1, 69, 64
3, 58291, Note_on_c, 1, 65, 64
3, 58668, Note_on_c, 1, 65, 0
3, 58681, Note_on_c, 1, 69, 0
3, 59456, Note_on_c, 1, 71, 64
3, 59462, Note_on_c, 1, 65, 64
3, 59648, Note_on_c, 1, 71, 0
3, 59660, Note_on_c, 1, 65, 0
3, 59846, Note_on_c, 1, 67, 64
3, 59846, Note_on_c, 1, 72, 64
3, 60230, Note_on_c, 1, 65, 64
3, 60236, Note_on_c, 1, 67, 0
3, 60594, Note_on_c, 1, 65, 0
3, 60595, Note_on_c, 1, 63, 64
3, 60844, Note_on_c, 1, 72, 0
3, 60992, Note_on_c, 1, 69, 64
3, 61177, Note_on_c, 1, 69, 0
3, 61190, Note_on_c, 1, 63, 0
3, 61388, Note_on_c, 1, 70, 64
3, 61740, Note_on_c, 1, 62, 64
3, 62163, Note_on_c, 1, 67, 64
3, 62181, Note_on_c, 1, 70, 0
3, 62188, Note_on_c, 1, 62, 0
3, 62367, Note_on_c, 1, 67, 0
3, 62515, Note_on_c, 1, 70, 64
3, 62521, Note_on_c, 1, 65, 64
3, 62649, Note_on_c, 1, 70, 0
3, 62661, Note_on_c, 1, 65, 0
3, 62944, Note_on_c, 1, 63, 64
3, 62944, Note_on_c, 1, 69, 64
3, 63334, Note_on_c, 1, 62, 64
3, 63379, Note_on_c, 1, 63, 0
3, 63679, Note_on_c, 1, 62, 0
3, 63712, Note_on_c, 1, 69, 0
3, 64051, Note_on_c, 1, 69, 64
3, 64057, Note_on_c, 1, 62, 64
3, 64275, Note_on_c, 1, 69, 0
3, 64293, Note_on_c, 1, 62, 0
3, 64441, Note_on_c, 1, 67, 64
3, 64441, Note_on_c, 1, 62, 64
3, 65202, Note_on_c, 1, 67, 0
3, 65209, Note_on_c, 1, 62, 0
3, 65446, Note_on_c, 1, 62, 64
3, 65446, Note_on_c, 1, 65, 64
3, 65631, Note_on_c, 1, 62, 0
3, 65638, Note_on_c, 1, 67, 64
3, 65638, Note_on_c, 1, 63, 64
3, 65657, Note_on_c, 1, 65, 0
3, 65823, Note_on_c, 1, 63, 0
3, 65824, Note_on_c, 1, 65, 64
3, 65830, Note_on_c, 1, 62, 64
3, 65836, Note_on_c, 1, 67, 0
3, 65913, Note_on_c, 1, 62, 0
3, 65920, Note_on_c, 1, 65, 0
3, 66041, Note_on_c, 1, 67, 64
3, 66048, Note_on_c, 1, 60, 64
3, 66457, Note_on_c, 1, 67, 0
3, 66464, Note_on_c, 1, 60, 0
3, 66937, Note_on_c, 1, 59, 64
3, 66944, Note_on_c, 1, 62, 64
3, 67136, Note_on_c, 1, 63, 64
3, 67141, Note_on_c, 1, 59, 0
3, 67142, Note_on_c, 1, 60, 64
3, 67148, Note_on_c, 1, 62, 0
3, 67244, Note_on_c, 1, 63, 0
3, 67308, Note_on_c, 1, 60, 0
3, 67315, Note_on_c, 1, 59, 64
3, 67321, Note_on_c, 1, 62, 64
3, 67398, Note_on_c, 1, 59, 0
3, 67423, Note_on_c, 1, 62, 0
3, 67526, Note_on_c, 1, 60, 64
3, 67526, Note_on_c, 1, 63, 64
3, 67865, Note_on_c, 1, 60, 0
3, 67865, Note_on_c, 1, 63, 0
3, 68691, Note_on_c, 1, 63, 64
3, 68697, Note_on_c, 1, 60, 64
3, 68889, Note_on_c, 1, 58, 64
3, 68895, Note_on_c, 1, 60, 0
3, 68966, Note_on_c, 1, 63, 0
3, 69061, Note_on_c, 1, 58, 0
3, 69081, Note_on_c, 1, 57, 64
3, 69088, Note_on_c, 1, 62, 64
3, 69254, Note_on_c, 1, 62, 0
3, 69285, Note_on_c, 1, 57, 0
3, 69465, Note_on_c, 1, 66, 64
3, 69472, Note_on_c, 1, 60, 64
3, 69625, Note_on_c, 1, 60, 0
3, 69644, Note_on_c, 1, 66, 0
3, 69836, Note_on_c, 1, 67, 64
3, 69836, Note_on_c, 1, 62, 64
3, 70022, Note_on_c, 1, 60, 64
3, 70053, Note_on_c, 1, 62, 0
3, 70156, Note_on_c, 1, 60, 0
3, 70200, Note_on_c, 1, 67, 0
3, 70227, Note_on_c, 1, 60, 64
3, 70233, Note_on_c, 1, 69, 64
3, 70419, Note_on_c, 1, 58, 64
3, 70476, Note_on_c, 1, 60, 0
3, 70547, Note_on_c, 1, 58, 0
3, 70585, Note_on_c, 1, 69, 0
3, 70617, Note_on_c, 1, 62, 64
3, 70643, Note_on_c, 1, 58, 64
3, 70809, Note_on_c, 1, 62, 0
3, 70815, Note_on_c, 1, 58, 0
3, 70976, Note_on_c, 1, 55, 64
3, 70976, Note_on_c, 1, 67, 64
3, 71430, Note_on_c, 1, 67, 0
3, 71449, Note_on_c, 1, 55, 0
3, 71756, Note_on_c, 1, 54, 64
3, 71756, Note_on_c, 1, 62, 64
3, 71948, Note_on_c, 1, 54, 0
3, 72140, Note_on_c, 1, 55, 64
3, 72421, Note_on_c, 1, 62, 0
3, 72499, Note_on_c, 1, 60, 64
3, 72684, Note_on_c, 1, 59, 64
3, 72703, Note_on_c, 1, 60, 0
3, 72754, Note_on_c, 1, 59, 0
3, 72883, Note_on_c, 1, 60, 64
3, 73088, Note_on_c, 1, 62, 64
3, 73107, Note_on_c, 1, 60, 0
3, 73152, Note_on_c, 1, 62, 0
3, 73273, Note_on_c, 1, 62, 64
3, 73459, Note_on_c, 1, 63, 64
3, 73477, Note_on_c, 1, 62, 0
3, 73523, Note_on_c, 1, 63, 0
3, 73670, Note_on_c, 1, 63, 64
3, 73842, Note_on_c, 1, 55, 0
3, 74035, Note_on_c, 1, 55, 64
3, 74220, Note_on_c, 1, 54, 64
3, 74239, Note_on_c, 1, 55, 0
3, 74309, Note_on_c, 1, 54, 0
3, 74432, Note_on_c, 1, 55, 64
3, 74656, Note_on_c, 1, 55, 0
3, 74656, Note_on_c, 1, 57, 64
3, 74732, Note_on_c, 1, 57, 0
3, 74860, Note_on_c, 1, 57, 64
3, 75014, Note_on_c, 1, 58, 64
3, 75032, Note_on_c, 1, 57, 0
3, 75071, Note_on_c, 1, 58, 0
3, 75187, Note_on_c, 1, 58, 64
3, 75410, Note_on_c, 1, 63, 0
3, 75564, Note_on_c, 1, 62, 64
3, 75776, Note_on_c, 1, 60, 64
3, 75794, Note_on_c, 1, 62, 0
3, 75846, Note_on_c, 1, 60, 0
3, 75968, Note_on_c, 1, 62, 64
3, 76166, Note_on_c, 1, 63, 64
3, 76198, Note_on_c, 1, 62, 0
3, 76236, Note_on_c, 1, 63, 0
3, 76364, Note_on_c, 1, 63, 64
3, 76556, Note_on_c, 1, 65, 64
3, 76562, Note_on_c, 1, 63, 0
3, 76620, Note_on_c, 1, 65, 0
3, 76761, Note_on_c, 1, 65, 64
3, 76972, Note_on_c, 1, 58, 0
3, 77158, Note_on_c, 1, 57, 64
3, 77350, Note_on_c, 1, 55, 64
3, 77382, Note_on_c, 1, 57, 0
3, 77452, Note_on_c, 1, 55, 0
3, 77555, Note_on_c, 1, 57, 64
3, 77740, Note_on_c, 1, 59, 64
3, 77772, Note_on_c, 1, 57, 0
3, 77810, Note_on_c, 1, 59, 0
3, 77932, Note_on_c, 1, 59, 64
3, 78105, Note_on_c, 1, 60, 64
3, 78117, Note_on_c, 1, 59, 0
3, 78175, Note_on_c, 1, 60, 0
3, 78304, Note_on_c, 1, 60, 64
3, 78354, Note_on_c, 1, 65, 0
3, 78483, Note_on_c, 1, 63, 64
3, 78534, Note_on_c, 1, 63, 0
3, 78681, Note_on_c, 1, 67, 64
3, 78873, Note_on_c, 1, 65, 64
3, 78898, Note_on_c, 1, 67, 0
3, 78930, Note_on_c, 1, 65, 0
3, 79065, Note_on_c, 1, 65, 64
3, 79257, Note_on_c, 1, 63, 64
3, 79289, Note_on_c, 1, 65, 0
3, 79321, Note_on_c, 1, 63, 0
3, 79449, Note_on_c, 1, 63, 64
3, 79653, Note_on_c, 1, 63, 0
3, 79654, Note_on_c, 1, 62, 64
3, 79743, Note_on_c, 1, 62, 0
3, 79840, Note_on_c, 1, 62, 64
3, 80038, Note_on_c, 1, 68, 64
3, 80076, Note_on_c, 1, 62, 0
3, 80108, Note_on_c, 1, 68, 0
3, 80243, Note_on_c, 1, 68, 64
3, 80422, Note_on_c, 1, 67, 64
3, 80447, Note_on_c, 1, 68, 0
3, 80498, Note_on_c, 1, 67, 0
3, 80614, Note_on_c, 1, 67, 64
3, 80806, Note_on_c, 1, 65, 64
3, 80831, Note_on_c, 1, 67, 0
3, 80870, Note_on_c, 1, 65, 0
3, 80992, Note_on_c, 1, 65, 64
3, 81171, Note_on_c, 1, 63, 64
3, 81190, Note_on_c, 1, 65, 0
3, 81222, Note_on_c, 1, 63, 0
3, 81382, Note_on_c, 1, 63, 64
3, 81881, Note_on_c, 1, 65, 64
3, 81888, Note_on_c, 1, 62, 64
3, 81894, Note_on_c, 1, 63, 0
3, 81900, Note_on_c, 1, 60, 0
3, 81925, Note_on_c, 1, 65, 0
3, 81939, Note_on_c, 1, 62, 0
3, 82060, Note_on_c, 1, 63, 64
3, 82073, Note_on_c, 1, 60, 64
3, 82117, Note_on_c, 1, 63, 0
3, 82131, Note_on_c, 1, 62, 64
3, 82144, Note_on_c, 1, 59, 64
3, 82149, Note_on_c, 1, 60, 0
3, 82182, Note_on_c, 1, 63, 64
3, 82195, Note_on_c, 1, 62, 0
3, 82208, Note_on_c, 1, 59, 0
3, 82214, Note_on_c, 1, 60, 64
3, 82226, Note_on_c, 1, 63, 0
3, 82240, Note_on_c, 1, 62, 64
3, 82259, Note_on_c, 1, 59, 64
3, 82265, Note_on_c, 1, 60, 0
3, 82265, Note_on_c, 1, 63, 64
3, 82278, Note_on_c, 1, 62, 0
3, 82297, Note_on_c, 1, 59, 0
3, 82303, Note_on_c, 1, 63, 0
3, 82310, Note_on_c, 1, 60, 64
3, 82316, Note_on_c, 1, 62, 64
3, 82342, Note_on_c, 1, 63, 64
3, 82348, Note_on_c, 1, 60, 0
3, 82348, Note_on_c, 1, 62, 0
3, 82348, Note_on_c, 1, 59, 64
3, 82367, Note_on_c, 1, 59, 0
3, 82374, Note_on_c, 1, 63, 0
3, 82380, Note_on_c, 1, 60, 64
3, 82380, Note_on_c, 1, 62, 64
3, 82400, Note_on_c, 1, 59, 64
3, 82400, Note_on_c, 1, 63, 64
3, 82418, Note_on_c, 1, 62, 0
3, 82424, Note_on_c, 1, 60, 0
3, 82438, Note_on_c, 1, 63, 0
3, 82444, Note_on_c, 1, 62, 64
3, 82476, Note_on_c, 1, 67, 64
3, 82495, Note_on_c, 1, 62, 0
3, 82649, Note_on_c, 1, 59, 0
3, 82649, Note_on_c, 1, 57, 64
3, 82739, Note_on_c, 1, 59, 64
3, 82770, Note_on_c, 1, 57, 0
3, 82828, Note_on_c, 1, 67, 0
3, 82847, Note_on_c, 1, 59, 0
3, 82854, Note_on_c, 1, 60, 64
3, 82854, Note_on_c, 1, 63, 64
3, 83078, Note_on_c, 1, 65, 64
3, 83084, Note_on_c, 1, 63, 0
3, 83135, Note_on_c, 1, 65, 0
3, 83257, Note_on_c, 1, 65, 64
3, 83449, Note_on_c, 1, 63, 64
3, 83468, Note_on_c, 1, 65, 0
3, 83506, Note_on_c, 1, 63, 0
3, 83538, Note_on_c, 1, 60, 0
3, 83635, Note_on_c, 1, 63, 64
3, 83840, Note_on_c, 1, 62, 64
3, 83859, Note_on_c, 1, 63, 0
3, 83910, Note_on_c, 1, 62, 0
3, 84032, Note_on_c, 1, 62, 64
3, 84224, Note_on_c, 1, 60, 64
3, 84249, Note_on_c, 1, 62, 0
3, 84288, Note_on_c, 1, 60, 0
3, 84422, Note_on_c, 1, 60, 64
3, 84620, Note_on_c, 1, 58, 64
3, 84639, Note_on_c, 1, 60, 0
3, 84696, Note_on_c, 1, 58, 0
3, 84819, Note_on_c, 1, 58, 64
3, 84998, Note_on_c, 1, 57, 64
3, 85011, Note_on_c, 1, 58, 0
3, 85074, Note_on_c, 1, 57, 0
3, 85216, Note_on_c, 1, 57, 64
3, 85606, Note_on_c, 1, 57, 0
3, 85644, Note_on_c, 1, 58, 64
3, 85816, Note_on_c, 1, 58, 0
3, 85849, Note_on_c, 1, 60, 64
3, 85919, Note_on_c, 1, 60, 0
3, 86028, Note_on_c, 1, 54, 64
3, 86348, Note_on_c, 1, 50, 64
3, 86578, Note_on_c, 1, 50, 0
3, 86616, Note_on_c, 1, 54, 0
3, 86739, Note_on_c, 1, 55, 64
3, 87142, Note_on_c, 1, 58, 64
3, 87532, Note_on_c, 1, 55, 0
3, 87878, Note_on_c, 1, 58, 0
3, 87878, Note_on_c, 1, 57, 64
3, 88064, Note_on_c, 1, 55, 64
3, 88070, Note_on_c, 1, 57, 0
3, 88262, Note_on_c, 1, 55, 0
3, 88275, Note_on_c, 1, 57, 64
3, 88582, Note_on_c, 1, 57, 0
3, 88614, Note_on_c, 1, 60, 64
3, 89382, Note_on_c, 1, 58, 64
3, 89388, Note_on_c, 1, 60, 0
3, 89580, Note_on_c, 1, 57, 64
3, 89586, Note_on_c, 1, 58, 0
3, 89772, Note_on_c, 1, 58, 64
3, 89804, Note_on_c, 1, 57, 0
3, 89932, Note_on_c, 1, 58, 0
3, 90150, Note_on_c, 1, 67, 64
3, 90156, Note_on_c, 1, 62, 64
3, 90757, Note_on_c, 1, 62, 0
3, 90758, Note_on_c, 1, 60, 64
3, 90956, Note_on_c, 1, 66, 64
3, 90962, Note_on_c, 1, 67, 0
3, 91148, Note_on_c, 1, 58, 64
3, 91174, Note_on_c, 1, 60, 0
3, 91352, Note_on_c, 1, 66, 0
3, 91360, Note_on_c, 1, 57, 64
3, 91360, Note_on_c, 1, 67, 64
3, 91365, Note_on_c, 1, 58, 0
3, 91545, Note_on_c, 1, 55, 64
3, 91552, Note_on_c, 1, 57, 0
3, 91737, Note_on_c, 1, 63, 64
3, 91744, Note_on_c, 1, 67, 0
3, 91744, Note_on_c, 1, 60, 64
3, 91749, Note_on_c, 1, 55, 0
3, 91923, Note_on_c, 1, 58, 64
3, 91929, Note_on_c, 1, 60, 0
3, 92114, Note_on_c, 1, 63, 0
3, 92115, Note_on_c, 1, 62, 64
3, 92115, Note_on_c, 1, 57, 64
3, 92121, Note_on_c, 1, 58, 0
3, 92889, Note_on_c, 1, 62, 0
3, 92902, Note_on_c, 1, 57, 0
3, 93286, Note_on_c, 1, 63, 64
3, 93292, Note_on_c, 1, 58, 64
3, 93292, Note_on_c, 1, 55, 64
3, 93439, Note_on_c, 1, 63, 0
3, 93644, Note_on_c, 1, 58, 0
3, 93651, Note_on_c, 1, 63, 64
3, 94022, Note_on_c, 1, 60, 64
3, 94028, Note_on_c, 1, 55, 0
3, 94399, Note_on_c, 1, 63, 0
3, 94406, Note_on_c, 1, 57, 64
3, 94412, Note_on_c, 1, 62, 64
3, 94418, Note_on_c, 1, 60, 0
3, 94771, Note_on_c, 1, 60, 64
3, 94776, Note_on_c, 1, 62, 0
3, 95148, Note_on_c, 1, 60, 0
3, 95161, Note_on_c, 1, 55, 64
3, 95161, Note_on_c, 1, 59, 64
3, 95174, Note_on_c, 1, 57, 0
3, 95557, Note_on_c, 1, 59, 0
3, 95564, Note_on_c, 1, 57, 64
3, 95571, Note_on_c, 1, 60, 64
3, 95577, Note_on_c, 1, 55, 0
3, 95929, Note_on_c, 1, 60, 0
3, 95936, Note_on_c, 1, 59, 64
3, 95936, Note_on_c, 1, 62, 64
3, 95941, Note_on_c, 1, 57, 0
3, 96281, Note_on_c, 1, 59, 0
3, 96281, Note_on_c, 1, 62, 0
3, 96358, Note_on_c, 1, 59, 64
3, 96364, Note_on_c, 1, 55, 64
3, 96742, Note_on_c, 1, 59, 0
3, 96748, Note_on_c, 1, 60, 64
3, 97120, Note_on_c, 1, 53, 64
3, 97125, Note_on_c, 1, 60, 0
3, 97126, Note_on_c, 1, 62, 64
3, 97132, Note_on_c, 1, 55, 0
3, 97529, Note_on_c, 1, 62, 0
3, 97529, Note_on_c, 1, 60, 64
3, 97529, Note_on_c, 1, 51, 64
3, 97548, Note_on_c, 1, 53, 0
3, 97906, Note_on_c, 1, 51, 0
3, 97907, Note_on_c, 1, 62, 64
3, 97907, Note_on_c, 1, 50, 64
3, 97913, Note_on_c, 1, 60, 0
3, 98086, Note_on_c, 1, 51, 64
3, 98092, Note_on_c, 1, 62, 0
3, 98092, Note_on_c, 1, 58, 64
3, 98099, Note_on_c, 1, 50, 0
3, 98284, Note_on_c, 1, 58, 0
3, 98290, Note_on_c, 1, 51, 0
3, 98297, Note_on_c, 1, 57, 64
3, 98297, Note_on_c, 1, 48, 64
3, 98643, Note_on_c, 1, 52, 64
3, 98661, Note_on_c, 1, 57, 0
3, 98662, Note_on_c, 1, 55, 64
3, 98668, Note_on_c, 1, 48, 0
3, 98975, Note_on_c, 1, 52, 0
3, 99027, Note_on_c, 1, 50, 64
3, 99033, Note_on_c, 1, 55, 0
3, 99033, Note_on_c, 1, 54, 64
3, 99314, Note_on_c, 1, 54, 0
3, 99398, Note_on_c, 1, 54, 64
3, 99398, Note_on_c, 1, 57, 64
3, 99423, Note_on_c, 1, 50, 0
3, 99590, Note_on_c, 1, 63, 64
3, 99596, Note_on_c, 1, 57, 0
3, 99775, Note_on_c, 1, 63, 0
3, 99788, Note_on_c, 1, 55, 64
3, 99794, Note_on_c, 1, 54, 0
3, 99808, Note_on_c, 1, 62, 64
3, 100984, Note_on_c, 1, 55, 0
3, 100998, Note_on_c, 1, 54, 64
3, 101184, Note_on_c, 1, 60, 64
3, 101203, Note_on_c, 1, 62, 0
3, 101369, Note_on_c, 1, 54, 0
3, 101376, Note_on_c, 1, 55, 64
3, 101414, Note_on_c, 1, 60, 0
3, 101580, Note_on_c, 1, 59, 64
3, 101785, Note_on_c, 1, 65, 64
3, 101970, Note_on_c, 1, 65, 0
3, 101971, Note_on_c, 1, 62, 64
3, 102169, Note_on_c, 1, 63, 64
3, 102175, Note_on_c, 1, 62, 0
3, 102194, Note_on_c, 1, 59, 0
3, 102361, Note_on_c, 1, 59, 64
3, 102553, Note_on_c, 1, 59, 0
3, 102579, Note_on_c, 1, 60, 64
3, 102777, Note_on_c, 1, 54, 64
3, 102790, Note_on_c, 1, 55, 0
3, 103033, Note_on_c, 1, 62, 64
3, 103040, Note_on_c, 1, 59, 64
3, 103040, Note_on_c, 1, 55, 64
3, 103045, Note_on_c, 1, 54, 0
3, 103065, Note_on_c, 1, 63, 0
3, 103065, Note_on_c, 1, 60, 0
3, 104454, Note_on_c, 1, 62, 0
3, 104454, Note_on_c, 1, 55, 0
3, 104461, Note_on_c, 1, 59, 0
3, 104461, End_track
4, 0, Start_track
4, 0, Title_t, "Accomp 4"
4, 0, MIDI_port, 0
4, 0, Control_c, 4, 7, 82
4, 0, Control_c, 4, 10, 42
4, 0, Program_c, 4, 79
4, 883, Note_on_c, 4, 67, 64
4, 1375, Note_on_c, 4, 67, 0
4, 1542, Note_on_c, 4, 67, 64
4, 2272, Note_on_c, 4, 65, 64
4, 2272, Note_on_c, 4, 74, 64
4, 2278, Note_on_c, 4, 67, 0
4, 2937, Note_on_c, 4, 74, 0
4, 3059, Note_on_c, 4, 74, 64
4, 3059, Note_on_c, 4, 70, 64
4, 3084, Note_on_c, 4, 65, 0
4, 3852, Note_on_c, 4, 74, 0
4, 3852, Note_on_c, 4, 72, 64
4, 4288, Note_on_c, 4, 69, 64
4, 4300, Note_on_c, 4, 70, 0
4, 4428, Note_on_c, 4, 67, 64
4, 4441, Note_on_c, 4, 69, 0
4, 4627, Note_on_c, 4, 69, 64
4, 4633, Note_on_c, 4, 77, 64
4, 4639, Note_on_c, 4, 72, 0
4, 4652, Note_on_c, 4, 67, 0
4, 5369, Note_on_c, 4, 67, 64
4, 5395, Note_on_c, 4, 69, 0
4, 5715, Note_on_c, 4, 75, 64
4, 5740, Note_on_c, 4, 77, 0
4, 5920, Note_on_c, 4, 74, 64
4, 5926, Note_on_c, 4, 75, 0
4, 6131, Note_on_c, 4, 75, 64
4, 6150, Note_on_c, 4, 74, 0
4, 6860, Note_on_c, 4, 72, 64
4, 6873, Note_on_c, 4, 67, 0
4, 7628, Note_on_c, 4, 75, 0
4, 7641, Note_on_c, 4, 74, 64
4, 8064, Control_c, 4, 7, 75
4, 8409, Note_on_c, 4, 70, 64
4, 8421, Note_on_c, 4, 72, 0
4, 8774, Note_on_c, 4, 69, 64
4, 8793, Note_on_c, 4, 70, 0
4, 9151, Note_on_c, 4, 69, 0
4, 9152, Note_on_c, 4, 67, 64
4, 9561, Note_on_c, 4, 66, 64
4, 9568, Note_on_c, 4, 67, 0
4, 9900, Note_on_c, 4, 74, 0
4, 9958, Note_on_c, 4, 67, 64
4, 9964, Note_on_c, 4, 72, 64
4, 9970, Note_on_c, 4, 66, 0
4, 10348, Note_on_c, 4, 67, 0
4, 10348, Note_on_c, 4, 69, 64
4, 10707, Note_on_c, 4, 70, 64
4, 10712, Note_on_c, 4, 69, 0
4, 10713, Note_on_c, 4, 74, 64
4, 10719, Note_on_c, 4, 72, 0
4, 11059, Note_on_c, 4, 69, 64
4, 11071, Note_on_c, 4, 70, 0
4, 11244, Note_on_c, 4, 67, 64
4, 11257, Note_on_c, 4, 69, 0
4, 11443, Note_on_c, 4, 69, 64
4, 11468, Note_on_c, 4, 67, 0
4, 12575, Note_on_c, 4, 69, 0
4, 12601, Note_on_c, 4, 67, 64
4, 12774, Note_on_c, 4, 66, 64
4, 12863, Note_on_c, 4, 67, 0
4, 13043, Note_on_c, 4, 67, 64
4, 13055, Note_on_c, 4, 66, 0
4, 13382, Note_on_c, 4, 70, 64
4, 13394, Note_on_c, 4, 74, 0
4, 13836, Note_on_c, 4, 67, 0
4, 14144, Note_on_c, 4, 69, 64
4, 14169, Note_on_c, 4, 70, 0
4, 14342, Note_on_c, 4, 67, 64
4, 14355, Note_on_c, 4, 69, 0
4, 14547, Note_on_c, 4, 69, 64
4, 14578, Note_on_c, 4, 67, 0
4, 14899, Note_on_c, 4, 72, 64
4, 15686, Note_on_c, 4, 70, 64
4, 15699, Note_on_c, 4, 69, 0
4, 15718, Note_on_c, 4, 72, 0
4, 15878, Note_on_c, 4, 69, 64
4, 15897, Note_on_c, 4, 70, 0
4, 16083, Note_on_c, 4, 70, 64
4, 16102, Note_on_c, 4, 69, 0
4, 16499, Note_on_c, 4, 74, 64
4, 16505, Note_on_c, 4, 79, 64
4, 16511, Note_on_c, 4, 70, 0
4, 17043, Note_on_c, 4, 72, 64
4, 17061, Note_on_c, 4, 79, 0
4, 17068, Note_on_c, 4, 74, 0
4, 17260, Note_on_c, 4, 78, 64
4, 17446, Note_on_c, 4, 70, 64
4, 17452, Note_on_c, 4, 72, 0
4, 17484, Note_on_c, 4, 78, 0
4, 17638, Note_on_c, 4, 70, 0
4, 17651, Note_on_c, 4, 79, 64
4, 17651, Note_on_c, 4, 69, 64
4, 17836, Note_on_c, 4, 67, 64
4, 17849, Note_on_c, 4, 69, 0
4, 18041, Note_on_c, 4, 75, 64
4, 18048, Note_on_c, 4, 72, 64
4, 18053, Note_on_c, 4, 67, 0
4, 18054, Note_on_c, 4, 79, 0
4, 18418, Note_on_c, 4, 75, 0
4, 18419, Note_on_c, 4, 69, 64
4, 18425, Note_on_c, 4, 72, 0
4, 18425, Note_on_c, 4, 74, 64
4, 19148, Note_on_c, 4, 69, 0
4, 19154, Note_on_c, 4, 74, 0
4, 19584, Note_on_c, 4, 70, 64
4, 19584, Note_on_c, 4, 67, 64
4, 19769, Note_on_c, 4, 70, 0
4, 19942, Note_on_c, 4, 75, 64
4, 20300, Note_on_c, 4, 72, 64
4, 20306, Note_on_c, 4, 75, 0
4, 20544, Note_on_c, 4, 67, 0
4, 20684, Note_on_c, 4, 72, 0
4, 20684, Note_on_c, 4, 74, 64
4, 20684, Note_on_c, 4, 69, 64
4, 21055, Note_on_c, 4, 74, 0
4, 21068, Note_on_c, 4, 72, 64
4, 21253, Note_on_c, 4, 69, 0
4, 21452, Note_on_c, 4, 67, 64
4, 21849, Note_on_c, 4, 70, 64
4, 21855, Note_on_c, 4, 72, 0
4, 22054, Note_on_c, 4, 72, 64
4, 22060, Note_on_c, 4, 70, 0
4, 22278, Note_on_c, 4, 74, 64
4, 22284, Note_on_c, 4, 72, 0
4, 22662, Note_on_c, 4, 72, 64
4, 22674, Note_on_c, 4, 74, 0
4, 22828, Note_on_c, 4, 70, 64
4, 22841, Note_on_c, 4, 72, 0
4, 23032, Note_on_c, 4, 70, 0
4, 23040, Note_on_c, 4, 69, 64
4, 23750, Note_on_c, 4, 65, 64
4, 23756, Note_on_c, 4, 67, 0
4, 24102, Note_on_c, 4, 69, 0
4, 24115, Note_on_c, 4, 70, 64
4, 24307, Note_on_c, 4, 70, 0
4, 24313, Note_on_c, 4, 72, 64
4, 24518, Note_on_c, 4, 74, 64
4, 24524, Note_on_c, 4, 72, 0
4, 24889, Note_on_c, 4, 75, 64
4, 24914, Note_on_c, 4, 74, 0
4, 25273, Note_on_c, 4, 70, 64
4, 25280, Note_on_c, 4, 77, 64
4, 25292, Note_on_c, 4, 75, 0
4, 25311, Note_on_c, 4, 65, 0
4, 25664, Note_on_c, 4, 79, 64
4, 25676, Note_on_c, 4, 77, 0
4, 26041, Note_on_c, 4, 72, 64
4, 26048, Note_on_c, 4, 79, 0
4, 26835, Note_on_c, 4, 69, 64
4, 26853, Note_on_c, 4, 70, 0
4, 27219, Note_on_c, 4, 74, 64
4, 27244, Note_on_c, 4, 72, 0
4, 27417, Note_on_c, 4, 75, 64
4, 27455, Note_on_c, 4, 74, 0
4, 27635, Note_on_c, 4, 77, 64
4, 27641, Note_on_c, 4, 75, 0
4, 27993, Note_on_c, 4, 71, 64
4, 28012, Note_on_c, 4, 69, 0
4, 28179, Note_on_c, 4, 72, 64
4, 28185, Note_on_c, 4, 71, 0
4, 28377, Note_on_c, 4, 74, 64
4, 28390, Note_on_c, 4, 72, 0
4, 28774, Note_on_c, 4, 79, 64
4, 28793, Note_on_c, 4, 77, 0
4, 28953, Note_on_c, 4, 77, 64
4, 28978, Note_on_c, 4, 79, 0
4, 29171, Note_on_c, 4, 75, 64
4, 29189, Note_on_c, 4, 77, 0
4, 29478, Note_on_c, 4, 72, 64
4, 29503, Note_on_c, 4, 74, 0
4, 29715, Note_on_c, 4, 71, 64
4, 29727, Note_on_c, 4, 72, 0
4, 29939, Note_on_c, 4, 71, 0
4, 29939, Note_on_c, 4, 72, 64
4, 30451, Note_on_c, 4, 75, 0
4, 30643, Note_on_c, 4, 74, 64
4, 30713, Note_on_c, 4, 72, 0
4, 31027, Note_on_c, 4, 70, 64
4, 31071, Note_on_c, 4, 74, 0
4, 31219, Note_on_c, 4, 72, 64
4, 31244, Note_on_c, 4, 70, 0
4, 31424, Note_on_c, 4, 74, 64
4, 31436, Note_on_c, 4, 72, 0
4, 31814, Note_on_c, 4, 75, 64
4, 32025, Note_on_c, 4, 77, 64
4, 32031, Note_on_c, 4, 75, 0
4, 32115, Note_on_c, 4, 74, 0
4, 32217, Note_on_c, 4, 79, 64
4, 32236, Note_on_c, 4, 77, 0
4, 32428, Note_on_c, 4, 77, 64
4, 32460, Note_on_c, 4, 79, 0
4, 32646, Note_on_c, 4, 67, 64
4, 32646, Note_on_c, 4, 75, 64
4, 32664, Note_on_c, 4, 77, 0
4, 32825, Note_on_c, 4, 75, 0
4, 32825, Note_on_c, 4, 74, 64
4, 33011, Note_on_c, 4, 69, 64
4, 33017, Note_on_c, 4, 72, 64
4, 33023, Note_on_c, 4, 67, 0
4, 33023, Note_on_c, 4, 74, 0
4, 33644, Note_on_c, 4, 72, 0
4, 33676, Note_on_c, 4, 69, 0
4, 34144, Note_on_c, 4, 79, 64
4, 34144, Note_on_c, 4, 70, 64
4, 34528, Note_on_c, 4, 70, 0
4, 34534, Note_on_c, 4, 72, 64
4, 34534, Note_on_c, 4, 77, 64
4, 34553, Note_on_c, 4, 79, 0
4, 34912, Note_on_c, 4, 69, 64
4, 34924, Note_on_c, 4, 72, 0
4, 35283, Note_on_c, 4, 70, 64
4, 35296, Note_on_c, 4, 69, 0
4, 35648, Note_on_c, 4, 74, 64
4, 35654, Note_on_c, 4, 70, 0
4, 35820, Note_on_c, 4, 77, 0
4, 35840, Note_on_c, 4, 72, 64
4, 35846, Note_on_c, 4, 74, 0
4, 36032, Note_on_c, 4, 72, 0
4, 36038, Note_on_c, 4, 74, 64
4, 36390, Note_on_c, 4, 74, 0
4, 36396, Note_on_c, 4, 77, 64
4, 36409, Note_on_c, 4, 82, 64
4, 36620, Note_on_c, 4, 82, 0
4, 36793, Note_on_c, 4, 70, 64
4, 36800, Note_on_c, 4, 82, 64
4, 36812, Note_on_c, 4, 77, 0
4, 37241, Note_on_c, 4, 75, 64
4, 37247, Note_on_c, 4, 70, 0
4, 37401, Note_on_c, 4, 74, 64
4, 37413, Note_on_c, 4, 75, 0
4, 37606, Note_on_c, 4, 72, 64
4, 37632, Note_on_c, 4, 82, 0
4, 37637, Note_on_c, 4, 74, 0
4, 37996, Note_on_c, 4, 79, 64
4, 38380, Note_on_c, 4, 77, 64
4, 38386, Note_on_c, 4, 79, 0
4, 38732, Note_on_c, 4, 70, 64
4, 38745, Note_on_c, 4, 72, 0
4, 38899, Note_on_c, 4, 69, 64
4, 38904, Note_on_c, 4, 70, 0
4, 39091, Note_on_c, 4, 70, 64
4, 39110, Note_on_c, 4, 69, 0
4, 39276, Note_on_c, 4, 70, 0
4, 39276, Note_on_c, 4, 72, 64
4, 39448, Note_on_c, 4, 77, 0
4, 39481, Note_on_c, 4, 80, 64
4, 39481, Note_on_c, 4, 74, 64
4, 39487, Note_on_c, 4, 72, 0
4, 39852, Note_on_c, 4, 80, 0
4, 39878, Note_on_c, 4, 79, 64
4, 40249, Note_on_c, 4, 72, 64
4, 40274, Note_on_c, 4, 74, 0
4, 40435, Note_on_c, 4, 71, 64
4, 40441, Note_on_c, 4, 72, 0
4, 40646, Note_on_c, 4, 71, 0
4, 40646, Note_on_c, 4, 72, 64
4, 40857, Note_on_c, 4, 79, 0
4, 41056, Note_on_c, 4, 79, 64
4, 41433, Note_on_c, 4, 77, 64
4, 41465, Note_on_c, 4, 79, 0
4, 41811, Note_on_c, 4, 70, 64
4, 41836, Note_on_c, 4, 72, 0
4, 41990, Note_on_c, 4, 69, 64
4, 41996, Note_on_c, 4, 70, 0
4, 42201, Note_on_c, 4, 70, 64
4, 42226, Note_on_c, 4, 77, 0
4, 42239, Note_on_c, 4, 69, 0
4, 42566, Note_on_c, 4, 77, 64
4, 42950, Note_on_c, 4, 79, 64
4, 42962, Note_on_c, 4, 77, 0
4, 43353, Note_on_c, 4, 79, 0
4, 43359, Note_on_c, 4, 70, 0
4, 43750, Note_on_c, 4, 75, 64
4, 43750, Note_on_c, 4, 79, 64
4, 44146, Note_on_c, 4, 75, 0
4, 44153, Note_on_c, 4, 79, 0
4, 44512, Note_on_c, 4, 72, 64
4, 44518, Note_on_c, 4, 69, 64
4, 44934, Note_on_c, 4, 72, 0
4, 44940, Note_on_c, 4, 69, 0
4, 45657, Note_on_c, 4, 75, 64
4, 45657, Note_on_c, 4, 69, 64
4, 45823, Note_on_c, 4, 75, 0
4, 45874, Note_on_c, 4, 69, 0
4, 46041, Note_on_c, 4, 74, 64
4, 46048, Note_on_c, 4, 70, 64
4, 46432, Note_on_c, 4, 79, 64
4, 46437, Note_on_c, 4, 74, 0
4, 46835, Note_on_c, 4, 77, 64
4, 46848, Note_on_c, 4, 79, 0
4, 47014, Note_on_c, 4, 74, 64
4, 47020, Note_on_c, 4, 77, 0
4, 47212, Note_on_c, 4, 74, 0
4, 47219, Note_on_c, 4, 69, 64
4, 47232, Note_on_c, 4, 70, 0
4, 47232, Note_on_c, 4, 75, 64
4, 47590, Note_on_c, 4, 65, 64
4, 47615, Note_on_c, 4, 69, 0
4, 47878, Note_on_c, 4, 75, 0
4, 47980, Note_on_c, 4, 74, 64
4, 48172, Note_on_c, 4, 75, 64
4, 48204, Note_on_c, 4, 74, 0
4, 48384, Note_on_c, 4, 70, 64
4, 48384, Note_on_c, 4, 77, 64
4, 48389, Note_on_c, 4, 75, 0
4, 48409, Note_on_c, 4, 65, 0
4, 48710, Note_on_c, 4, 75, 64
4, 48729, Note_on_c, 4, 77, 0
4, 48889, Note_on_c, 4, 75, 0
4, 48889, Note_on_c, 4, 74, 64
4, 49093, Note_on_c, 4, 74, 0
4, 49094, Note_on_c, 4, 72, 64
4, 49836, Note_on_c, 4, 69, 64
4, 49868, Note_on_c, 4, 70, 0
4, 50214, Note_on_c, 4, 74, 64
4, 50246, Note_on_c, 4, 72, 0
4, 50406, Note_on_c, 4, 75, 64
4, 50444, Note_on_c, 4, 74, 0
4, 50611, Note_on_c, 4, 77, 64
4, 50617, Note_on_c, 4, 75, 0
4, 50995, Note_on_c, 4, 71, 64
4, 51013, Note_on_c, 4, 69, 0
4, 51206, Note_on_c, 4, 72, 64
4, 51212, Note_on_c, 4, 71, 0
4, 51404, Note_on_c, 4, 74, 64
4, 51417, Note_on_c, 4, 72, 0
4, 51603, Note_on_c, 4, 72, 64
4, 51615, Note_on_c, 4, 74, 0
4, 51782, Note_on_c, 4, 71, 64
4, 51820, Note_on_c, 4, 72, 0
4, 52006, Note_on_c, 4, 69, 64
4, 52012, Note_on_c, 4, 71, 0
4, 52211, Note_on_c, 4, 67, 64
4, 52223, Note_on_c, 4, 69, 0
4, 52575, Note_on_c, 4, 77, 0
4, 52576, Note_on_c, 4, 75, 64
4, 52761, Note_on_c, 4, 75, 0
4, 52774, Note_on_c, 4, 74, 64
4, 52979, Note_on_c, 4, 75, 64
4, 52985, Note_on_c, 4, 74, 0
4, 53311, Note_on_c, 4, 75, 0
4, 53318, Note_on_c, 4, 67, 0
4, 53318, Note_on_c, 4, 84, 64
4, 53324, Note_on_c, 4, 69, 64
4, 53510, Note_on_c, 4, 70, 64
4, 53522, Note_on_c, 4, 69, 0
4, 53567, Note_on_c, 4, 84, 0
4, 53696, Note_on_c, 4, 78, 64
4, 53702, Note_on_c, 4, 70, 0
4, 53702, Note_on_c, 4, 72, 64
4, 53894, Note_on_c, 4, 72, 0
4, 53894, Note_on_c, 4, 74, 64
4, 54099, Note_on_c, 4, 78, 0
4, 54105, Note_on_c, 4, 79, 64
4, 54105, Note_on_c, 4, 75, 64
4, 54111, Note_on_c, 4, 74, 0
4, 54489, Note_on_c, 4, 81, 64
4, 54495, Note_on_c, 4, 79, 0
4, 54873, Note_on_c, 4, 74, 64
4, 54879, Note_on_c, 4, 75, 0
4, 55052, Note_on_c, 4, 74, 0
4, 55052, Note_on_c, 4, 72, 64
4, 55296, Note_on_c, 4, 70, 64
4, 55320, Note_on_c, 4, 72, 0
4, 55660, Note_on_c, 4, 79, 64
4, 55660, Note_on_c, 4, 75, 64
4, 55666, Note_on_c, 4, 81, 0
4, 55667, Note_on_c, 4, 70, 0
4, 56070, Note_on_c, 4, 77, 64
4, 56076, Note_on_c, 4, 79, 0
4, 56428, Note_on_c, 4, 75, 0
4, 56428, Note_on_c, 4, 74, 64
4, 56595, Note_on_c, 4, 72, 64
4, 56607, Note_on_c, 4, 74, 0
4, 56793, Note_on_c, 4, 70, 64
4, 56806, Note_on_c, 4, 72, 0
4, 57177, Note_on_c, 4, 75, 64
4, 57183, Note_on_c, 4, 77, 0
4, 57561, Note_on_c, 4, 74, 64
4, 57567, Note_on_c, 4, 75, 0
4, 57676, Note_on_c, 4, 70, 0
4, 57887, Note_on_c, 4, 74, 0
4, 57888, Note_on_c, 4, 79, 64
4, 57888, Note_on_c, 4, 70, 64
4, 58163, Note_on_c, 4, 79, 0
4, 58188, Note_on_c, 4, 70, 0
4, 58291, Note_on_c, 4, 81, 64
4, 58291, Note_on_c, 4, 77, 64
4, 58668, Note_on_c, 4, 77, 0
4, 58681, Note_on_c, 4, 81, 0
4, 59456, Note_on_c, 4, 83, 64
4, 59462, Note_on_c, 4, 77, 64
4, 59648, Note_on_c, 4, 83, 0
4, 59660, Note_on_c, 4, 77, 0
4, 59846, Note_on_c, 4, 79, 64
4, 59846, Note_on_c, 4, 84, 64
4, 60230, Note_on_c, 4, 77, 64
4, 60236, Note_on_c, 4, 79, 0
4, 60594, Note_on_c, 4, 77, 0
4, 60595, Note_on_c, 4, 75, 64
4, 60844, Note_on_c, 4, 84, 0
4, 60992, Note_on_c, 4, 81, 64
4, 61177, Note_on_c, 4, 81, 0
4, 61190, Note_on_c, 4, 75, 0
4, 61388, Note_on_c, 4, 82, 64
4, 61740, Note_on_c, 4, 74, 64
4, 62163, Note_on_c, 4, 79, 64
4, 62181, Note_on_c, 4, 82, 0
4, 62188, Note_on_c, 4, 74, 0
4, 62367, Note_on_c, 4, 79, 0
4, 62515, Note_on_c, 4, 82, 64
4, 62521, Note_on_c, 4, 77, 64
4, 62649, Note_on_c, 4, 82, 0
4, 62661, Note_on_c, 4, 77, 0
4, 62944, Note_on_c, 4, 75, 64
4, 62944, Note_on_c, 4, 81, 64
4, 63334, Note_on_c, 4, 74, 64
4, 63379, Note_on_c, 4, 75, 0
4, 63679, Note_on_c, 4, 74, 0
4, 63712, Note_on_c, 4, 81, 0
4, 64051, Note_on_c, 4, 81, 64
4, 64057, Note_on_c, 4, 74, 64
4, 64275, Note_on_c, 4, 81, 0
4, 64293, Note_on_c, 4, 74, 0
4, 64441, Note_on_c, 4, 79, 64
4, 64441, Note_on_c, 4, 74, 64
4, 65202, Note_on_c, 4, 79, 0
4, 65209, Note_on_c, 4, 74, 0
4, 65446, Note_on_c, 4, 74, 64
4, 65446, Note_on_c, 4, 77, 64
4, 65631, Note_on_c, 4, 74, 0
4, 65638, Note_on_c, 4, 79, 64
4, 65638, Note_on_c, 4, 75, 64
4, 65657, Note_on_c, 4, 77, 0
4, 65823, Note_on_c, 4, 75, 0
4, 65824, Note_on_c, 4, 77, 64
4, 65830, Note_on_c, 4, 74, 64
4, 65836, Note_on_c, 4, 79, 0
4, 65913, Note_on_c, 4, 74, 0
4, 65920, Note_on_c, 4, 77, 0
4, 66041, Note_on_c, 4, 79, 64
4, 66048, Note_on_c, 4, 72, 64
4, 66457, Note_on_c, 4, 79, 0
4, 66464, Note_on_c, 4, 72, 0
4, 66937, Note_on_c, 4, 71, 64
4, 66944, Note_on_c, 4, 74, 64
4, 67136, Note_on_c, 4, 75, 64
4, 67141, Note_on_c, 4, 71, 0
4, 67142, Note_on_c, 4, 72, 64
4, 67148, Note_on_c, 4, 74, 0
4, 67244, Note_on_c, 4, 75, 0
4, 67308, Note_on_c, 4, 72, 0
4, 67315, Note_on_c, 4, 71, 64
4, 67321, Note_on_c, 4, 74, 64
4, 67398, Note_on_c, 4, 71, 0
4, 67423, Note_on_c, 4, 74, 0
4, 67526, Note_on_c, 4, 72, 64
4, 67526, Note_on_c, 4, 75, 64
4, 67865, Note_on_c, 4, 72, 0
4, 67865, Note_on_c, 4, 75, 0
4, 68691, Note_on_c, 4, 75, 64
4, 68697, Note_on_c, 4, 72, 64
4, 68889, Note_on_c, 4, 70, 64
4, 68895, Note_on_c, 4, 72, 0
4, 68966, Note_on_c, 4, 75, 0
4, 69061, Note_on_c, 4, 70, 0
4, 69081, Note_on_c, 4, 69, 64
4, 69088, Note_on_c, 4, 74, 64
4, 69254, Note_on_c, 4, 74, 0
4, 69285, Note_on_c, 4, 69, 0
4, 69465, Note_on_c, 4, 78, 64
4, 69472, Note_on_c, 4, 72, 64
4, 69625, Note_on_c, 4, 72, 0
4, 69644, Note_on_c, 4, 78, 0
4, 69836, Note_on_c, 4, 79, 64
4, 69836, Note_on_c, 4, 74, 64
4, 70022, Note_on_c, 4, 72, 64
4, 70053, Note_on_c, 4, 74, 0
4, 70156, Note_on_c, 4, 72, 0
4, 70200, Note_on_c, 4, 79, 0
4, 70227, Note_on_c, 4, 72, 64
4, 70233, Note_on_c, 4, 81, 64
4, 70419, Note_on_c, 4, 70, 64
4, 70476, Note_on_c, 4, 72, 0
4, 70547, Note_on_c, 4, 70, 0
4, 70585, Note_on_c, 4, 81, 0
4, 70617, Note_on_c, 4, 74, 64
4, 70643, Note_on_c, 4, 70, 64
4, 70809, Note_on_c, 4, 74, 0
4, 70815, Note_on_c, 4, 70, 0
4, 70976, Note_on_c, 4, 67, 64
4, 70976, Note_on_c, 4, 79, 64
4, 71430, Note_on_c, 4, 79, 0
4, 71449, Note_on_c, 4, 67, 0
4, 71756, Note_on_c, 4, 66, 64
4, 71756, Note_on_c, 4, 74, 64
4, 71948, Note_on_c, 4, 66, 0
4, 72140, Note_on_c, 4, 67, 64
4, 72421, Note_on_c, 4, 74, 0
4, 72499, Note_on_c, 4, 72, 64
4, 72684, Note_on_c, 4, 71, 64
4, 72703, Note_on_c, 4, 72, 0
4, 72754, Note_on_c, 4, 71, 0
4, 72883, Note_on_c, 4, 72, 64
4, 73088, Note_on_c, 4, 74, 64
4, 73107, Note_on_c, 4, 72, 0
4, 73152, Note_on_c, 4, 74, 0
4, 73273, Note_on_c, 4, 74, 64
4, 73459, Note_on_c, 4, 75, 64
4, 73477, Note_on_c, 4, 74, 0
4, 73523, Note_on_c, 4, 75, 0
4, 73670, Note_on_c, 4, 75, 64
4, 73842, Note_on_c, 4, 67, 0
4, 74035, Note_on_c, 4, 67, 64
4, 74220, Note_on_c, 4, 66, 64
4, 74239, Note_on_c, 4, 67, 0
4, 74309, Note_on_c, 4, 66, 0
4, 74432, Note_on_c, 4, 67, 64
4, 74656, Note_on_c, 4, 67, 0
4, 74656, Note_on_c, 4, 69, 64
4, 74732, Note_on_c, 4, 69, 0
4, 74860, Note_on_c, 4, 69, 64
4, 75014, Note_on_c, 4, 70, 64
4, 75032, Note_on_c, 4, 69, 0
4, 75071, Note_on_c, 4, 70, 0
4, 75187, Note_on_c, 4, 70, 64
4, 75410, Note_on_c, 4, 75, 0
4, 75564, Note_on_c, 4, 74, 64
4, 75776, Note_on_c, 4, 72, 64
4, 75794, Note_on_c, 4, 74, 0
4, 75846, Note_on_c, 4, 72, 0
4, 75968, Note_on_c, 4, 74, 64
4, 76166, Note_on_c, 4, 75, 64
4, 76198, Note_on_c, 4, 74, 0
4, 76236, Note_on_c, 4, 75, 0
4, 76364, Note_on_c, 4, 75, 64
4, 76556, Note_on_c, 4, 77, 64
4, 76562, Note_on_c, 4, 75, 0
4, 76620, Note_on_c, 4, 77, 0
4, 76761, Note_on_c, 4, 77, 64
4, 76972, Note_on_c, 4, 70, 0
4, 77158, Note_on_c, 4, 69, 64
4, 77350, Note_on_c, 4, 67, 64
4, 77382, Note_on_c, 4, 69, 0
4, 77452, Note_on_c, 4, 67, 0
4, 77555, Note_on_c, 4, 69, 64
4, 77740, Note_on_c, 4, 71, 64
4, 77772, Note_on_c, 4, 69, 0
4, 77810, Note_on_c, 4, 71, 0
4, 77932, Note_on_c, 4, 71, 64
4, 78105, Note_on_c, 4, 72, 64
4, 78117, Note_on_c, 4, 71, 0
4, 78175, Note_on_c, 4, 72, 0
4, 78304, Note_on_c, 4, 72, 64
4, 78354, Note_on_c, 4, 77, 0
4, 78483, Note_on_c, 4, 75, 64
4, 78534, Note_on_c, 4, 75, 0
4, 78681, Note_on_c, 4, 79, 64
4, 78873, Note_on_c, 4, 77, 64
4, 78898, Note_on_c, 4, 79, 0
4, 78930, Note_on_c, 4, 77, 0
4, 79065, Note_on_c, 4, 77, 64
4, 79257, Note_on_c, 4, 75, 64
4, 79289, Note_on_c, 4, 77, 0
4, 79321, Note_on_c, 4, 75, 0
4, 79449, Note_on_c, 4, 75, 64
4, 79653, Note_on_c, 4, 75, 0
4, 79654, Note_on_c, 4, 74, 64
4, 79743, Note_on_c, 4, 74, 0
4, 79840, Note_on_c, 4, 74, 64
4, 80038, Note_on_c, 4, 80, 64
4, 80076, Note_on_c, 4, 74, 0
4, 80108, Note_on_c, 4, 80, 0
4, 80243, Note_on_c, 4, 80, 64
4, 80422, Note_on_c, 4, 79, 64
4, 80447, Note_on_c, 4, 80, 0
4, 80498, Note_on_c, 4, 79, 0
4, 80614, Note_on_c, 4, 79, 64
4, 80806, Note_on_c, 4, 77, 64
4, 80831, Note_on_c, 4, 79, 0
4, 80870, Note_on_c, 4, 77, 0
4, 80992, Note_on_c, 4, 77, 64
4, 81171, Note_on_c, 4, 75, 64
4, 81190, Note_on_c, 4, 77, 0
4, 81222, Note_on_c, 4, 75, 0
4, 81382, Note_on_c, 4, 75, 64
4, 81881, Note_on_c, 4, 77, 64
4, 81888, Note_on_c, 4, 74, 64
4, 81894, Note_on_c, 4, 75, 0
4, 81900, Note_on_c, 4, 72, 0
4, 81925, Note_on_c, 4, 77, 0
4, 81939, Note_on_c, 4, 74, 0
4, 82060, Note_on_c, 4, 75, 64
4, 82073, Note_on_c, 4, 72, 64
4, 82117, Note_on_c, 4, 75, 0
4, 82131, Note_on_c, 4, 74, 64
4, 82144, Note_on_c, 4, 71, 64
4, 82149, Note_on_c, 4, 72, 0
4, 82182, Note_on_c, 4, 75, 64
4, 82195, Note_on_c, 4, 74, 0
4, 82208, Note_on_c, 4, 71, 0
4, 82214, Note_on_c, 4, 72, 64
4, 82226, Note_on_c, 4, 75, 0
4, 82240, Note_on_c, 4, 74, 64
4, 82259, Note_on_c, 4, 71, 64
4, 82265, Note_on_c, 4, 72, 0
4, 82265, Note_on_c, 4, 75, 64
4, 82278, Note_on_c, 4, 74, 0
4, 82297, Note_on_c, 4, 71, 0
4, 82303, Note_on_c, 4, 75, 0
4, 82310, Note_on_c, 4, 72, 64
4, 82316, Note_on_c, 4, 74, 64
4, 82342, Note_on_c, 4, 75, 64
4, 82348, Note_on_c, 4, 72, 0
4, 82348, Note_on_c, 4, 74, 0
4, 82348, Note_on_c, 4, 71, 64
4, 82367, Note_on_c, 4, 71, 0
4, 82374, Note_on_c, 4, 75, 0
4, 82380, Note_on_c, 4, 72, 64
4, 82380, Note_on_c, 4, 74, 64
4, 82400, Note_on_c, 4, 71, 64
4, 82400, Note_on_c, 4, 75, 64
4, 82418, Note_on_c, 4, 74, 0
4, 82424, Note_on_c, 4, 72, 0
4, 82438, Note_on_c, 4, 75, 0
4, 82444, Note_on_c, 4, 74, 64
4, 82476, Note_on_c, 4, 79, 64
4, 82495, Note_on_c, 4, 74, 0
4, 82649, Note_on_c, 4, 71, 0
4, 82649, Note_on_c, 4, 69, 64
4, 82739, Note_on_c, 4, 71, 64
4, 82770, Note_on_c, 4, 69, 0
4, 82828, Note_on_c, 4, 79, 0
4, 82847, Note_on_c, 4, 71, 0
4, 82854, Note_on_c, 4, 72, 64
4, 82854, Note_on_c, 4, 75, 64
4, 83078, Note_on_c, 4, 77, 64
4, 83084, Note_on_c, 4, 75, 0
4, 83135, Note_on_c, 4, 77, 0
4, 83257, Note_on_c, 4, 77, 64
4, 83449, Note_on_c, 4, 75, 64
4, 83468, Note_on_c, 4, 77, 0
4, 83506, Note_on_c, 4, 75, 0
4, 83538, Note_on_c, 4, 72, 0
4, 83635, Note_on_c, 4, 75, 64
4, 83840, Note_on_c, 4, 74, 64
4, 83859, Note_on_c, 4, 75, 0
4, 83910, Note_on_c, 4, 74, 0
4, 84032, Note_on_c, 4, 74, 64
4, 84224, Note_on_c, 4, 72, 64
4, 84249, Note_on_c, 4, 74, 0
4, 84288, Note_on_c, 4, 72, 0
4, 84422, Note_on_c, 4, 72, 64
4, 84620, Note_on_c, 4, 70, 64
4, 84639, Note_on_c, 4, 72, 0
4, 84696, Note_on_c, 4, 70, 0
4, 84819, Note_on_c, 4, 70, 64
4, 84998, Note_on_c, 4, 69, 64
4, 85011, Note_on_c, 4, 70, 0
4, 85074, Note_on_c, 4, 69, 0
4, 85216, Note_on_c, 4, 69, 64
4, 85606, Note_on_c, 4, 69, 0
4, 85644, Note_on_c, 4, 70, 64
4, 85816, Note_on_c, 4, 70, 0
4, 85849, Note_on_c, 4, 72, 64
4, 85919, Note_on_c, 4, 72, 0
4, 86028, Note_on_c, 4, 66, 64
4, 86348, Note_on_c, 4, 62, 64
4, 86578, Note_on_c, 4, 62, 0
4, 86616, Note_on_c, 4, 66, 0
4, 86739, Note_on_c, 4, 67, 64
4, 87142, Note_on_c, 4, 70, 64
4, 87532, Note_on_c, 4, 67, 0
4, 87878, Note_on_c, 4, 70, 0
4, 87878, Note_on_c, 4, 69, 64
4, 88064, Note_on_c, 4, 67, 64
4, 88070, Note_on_c, 4, 69, 0
4, 88262, Note_on_c, 4, 67, 0
4, 88275, Note_on_c, 4, 69, 64
4, 88582, Note_on_c, 4, 69, 0
4, 88614, Note_on_c, 4, 72, 64
4, 89382, Note_on_c, 4, 70, 64
4, 89388, Note_on_c, 4, 72, 0
4, 89580, Note_on_c, 4, 69, 64
4, 89586, Note_on_c, 4, 70, 0
4, 89772, Note_on_c, 4, 70, 64
4, 89804, Note_on_c, 4, 69, 0
4, 89932, Note_on_c, 4, 70, 0
4, 90150, Note_on_c, 4, 79, 64
4, 90156, Note_on_c, 4, 74, 64
4, 90757, Note_on_c, 4, 74, 0
4, 90758, Note_on_c, 4, 72, 64
4, 90956, Note_on_c, 4, 78, 64
4, 90962, Note_on_c, 4, 79, 0
4, 91148, Note_on_c, 4, 70, 64
4, 91174, Note_on_c, 4, 72, 0
4, 91352, Note_on_c, 4, 78, 0
4, 91360, Note_on_c, 4, 69, 64
4, 91360, Note_on_c, 4, 79, 64
4, 91365, Note_on_c, 4, 70, 0
4, 91545, Note_on_c, 4, 67, 64
4, 91552, Note_on_c, 4, 69, 0
4, 91737, Note_on_c, 4, 75, 64
4, 91744, Note_on_c, 4, 79, 0
4, 91744, Note_on_c, 4, 72, 64
4, 91749, Note_on_c, 4, 67, 0
4, 91923, Note_on_c, 4, 70, 64
4, 91929, Note_on_c, 4, 72, 0
4, 92114, Note_on_c, 4, 75, 0
4, 92115, Note_on_c, 4, 74, 64
4, 92115, Note_on_c, 4, 69, 64
4, 92121, Note_on_c, 4, 70, 0
4, 92889, Note_on_c, 4, 74, 0
4, 92902, Note_on_c, 4, 69, 0
4, 93286, Note_on_c, 4, 75, 64
4, 93292, Note_on_c, 4, 70, 64
4, 93292, Note_on_c, 4, 67, 64
4, 93439, Note_on_c, 4, 75, 0
4, 93644, Note_on_c, 4, 70, 0
4, 93651, Note_on_c, 4, 75, 64
4, 94022, Note_on_c, 4, 72, 64
4, 94028, Note_on_c, 4, 67, 0
4, 94399, Note_on_c, 4, 75, 0
4, 94406, Note_on_c, 4, 69, 64
4, 94412, Note_on_c, 4, 74, 64
4, 94418, Note_on_c, 4, 72, 0
4, 94771, Note_on_c, 4, 72, 64
4, 94776, Note_on_c, 4, 74, 0
4, 95148, Note_on_c, 4, 72, 0
4, 95161, Note_on_c, 4, 67, 64
4, 95161, Note_on_c, 4, 71, 64
4, 95174, Note_on_c, 4, 69, 0
4, 95557, Note_on_c, 4, 71, 0
4, 95564, Note_on_c, 4, 69, 64
4, 95571, Note_on_c, 4, 72, 64
4, 95577, Note_on_c, 4, 67, 0
4, 95929, Note_on_c, 4, 72, 0
4, 95936, Note_on_c, 4, 71, 64
4, 95936, Note_on_c, 4, 74, 64
4, 95941, Note_on_c, 4, 69, 0
4, 96281, Note_on_c, 4, 71, 0
4, 96281, Note_on_c, 4, 74, 0
4, 96358, Note_on_c, 4, 71, 64
4, 96364, Note_on_c, 4, 67, 64
4, 96742, Note_on_c, 4, 71, 0
4, 96748, Note_on_c, 4, 72, 64
4, 97120, Note_on_c, 4, 65, 64
4, 97125, Note_on_c, 4, 72, 0
4, 97126, Note_on_c, 4, 74, 64
4, 97132, Note_on_c, 4, 67, 0
4, 97529, Note_on_c, 4, 74, 0
4, 97529, Note_on_c, 4, 72, 64
4, 97529, Note_on_c, 4, 63, 64
4, 97548, Note_on_c, 4, 65, 0
4, 97906, Note_on_c, 4, 63, 0
4, 97907, Note_on_c, 4, 74, 64
4, 97907, Note_on_c, 4, 62, 64
4, 97913, Note_on_c, 4, 72, 0
4, 98086, Note_on_c, 4, 63, 64
4, 98092, Note_on_c, 4, 74, 0
4, 98092, Note_on_c, 4, 70, 64
4, 98099, Note_on_c, 4, 62, 0
4, 98284, Note_on_c, 4, 70, 0
4, 98290, Note_on_c, 4, 63, 0
4, 98297, Note_on_c, 4, 69, 64
4, 98297, Note_on_c, 4, 60, 64
4, 98643, Note_on_c, 4, 64, 64
4, 98661, Note_on_c, 4, 69, 0
4, 98662, Note_on_c, 4, 67, 64
4, 98668, Note_on_c, 4, 60, 0
4, 98975, Note_on_c, 4, 64, 0
4, 99027, Note_on_c, 4, 62, 64
4, 99033, Note_on_c, 4, 67, 0
4, 99033, Note_on_c, 4, 66, 64
4, 99314, Note_on_c, 4, 66, 0
4, 99398, Note_on_c, 4, 66, 64
4, 99398, Note_on_c, 4, 69, 64
4, 99423, Note_on_c, 4, 62, 0
4, 99590, Note_on_c, 4, 75, 64
4, 99596, Note_on_c, 4, 69, 0
4, 99775, Note_on_c, 4, 75, 0
4, 99788, Note_on_c, 4, 67, 64
4, 99794, Note_on_c, 4, 66, 0
4, 99808, Note_on_c, 4, 74, 64
4, 100984, Note_on_c, 4, 67, 0
4, 100998, Note_on_c, 4, 66, 64
4, 101184, Note_on_c, 4, 72, 64
4, 101203, Note_on_c, 4, 74, 0
4, 101369, Note_on_c, 4, 66, 0
4, 101376, Note_on_c, 4, 67, 64
4, 101414, Note_on_c, 4, 72, 0
4, 101580, Note_on_c, 4, 71, 64
4, 101785, Note_on_c, 4, 77, 64
4, 101970, Note_on_c, 4, 77, 0
4, 101971, Note_on_c, 4, 74, 64
4, 102169, Note_on_c, 4, 75, 64
4, 102175, Note_on_c, 4, 74, 0
4, 102194, Note_on_c, 4, 71, 0
4, 102361, Note_on_c, 4, 71, 64
4, 102553, Note_on_c, 4, 71, 0
4, 102579, Note_on_c, 4, 72, 64
4, 102777, Note_on_c, 4, 66, 64
4, 102790, Note_on_c, 4, 67, 0
4, 103033, Note_on_c, 4, 74, 64
4, 103040, Note_on_c, 4, 71, 64
4, 103040, Note_on_c, 4, 67, 64
4, 103045, Note_on_c, 4, 66, 0
4, 103065, Note_on_c, 4, 75, 0
4, 103065, Note_on_c, 4, 72, 0
4, 104454, Note_on_c, 4, 74, 0
4, 104454, Note_on_c, 4, 67, 0
4, 104461, Note_on_c, 4, 71, 0
4, 104461, End_track
5, 0, Start_track
5, 0, Title_t, "Ped 16"
5, 0, MIDI_port, 0
5, 0, Control_c, 3, 7, 77
5, 0, Control_c, 3, 10, 102
5, 0, Program_c, 3, 78
5, 25, Note_on_c, 3, 31, 80
5, 467, Note_on_c, 3, 33, 74
5, 517, Note_on_c, 3, 31, 0
5, 870, Note_on_c, 3, 34, 90
5, 908, Note_on_c, 3, 33, 0
5, 1209, Note_on_c, 3, 34, 0
5, 1216, Note_on_c, 3, 36, 69
5, 1542, Note_on_c, 3, 38, 74
5, 1555, Note_on_c, 3, 36, 0
5, 1939, Note_on_c, 3, 39, 76
5, 1951, Note_on_c, 3, 38, 0
5, 2291, Note_on_c, 3, 38, 73
5, 2303, Note_on_c, 3, 39, 0
5, 2688, Note_on_c, 3, 36, 59
5, 2719, Note_on_c, 3, 38, 0
5, 3104, Note_on_c, 3, 34, 83
5, 3129, Note_on_c, 3, 36, 0
5, 3417, Note_on_c, 3, 34, 0
5, 3475, Note_on_c, 3, 38, 73
5, 3891, Note_on_c, 3, 41, 84
5, 3897, Note_on_c, 3, 38, 0
5, 4249, Note_on_c, 3, 39, 77
5, 4268, Note_on_c, 3, 41, 0
5, 4659, Note_on_c, 3, 38, 83
5, 4665, Note_on_c, 3, 39, 0
5, 5004, Note_on_c, 3, 36, 66
5, 5011, Note_on_c, 3, 38, 0
5, 5344, Note_on_c, 3, 35, 81
5, 5368, Note_on_c, 3, 36, 0
5, 5753, Note_on_c, 3, 31, 62
5, 5760, Note_on_c, 3, 35, 0
5, 6060, Note_on_c, 3, 31, 0
5, 6131, Note_on_c, 3, 36, 75
5, 6489, Note_on_c, 3, 36, 0
5, 6489, Note_on_c, 3, 34, 86
5, 6854, Note_on_c, 3, 33, 72
5, 6873, Note_on_c, 3, 34, 0
5, 7231, Note_on_c, 3, 33, 0
5, 7238, Note_on_c, 3, 31, 74
5, 7628, Note_on_c, 3, 30, 91
5, 7654, Note_on_c, 3, 31, 0
5, 8031, Note_on_c, 3, 30, 0
5, 8032, Note_on_c, 3, 26, 80
5, 8320, Note_on_c, 3, 26, 0
5, 8416, Note_on_c, 3, 31, 79
5, 8800, Note_on_c, 3, 29, 75
5, 8832, Note_on_c, 3, 31, 0
5, 9190, Note_on_c, 3, 27, 86
5, 9241, Note_on_c, 3, 29, 0
5, 9568, Note_on_c, 3, 26, 77
5, 9586, Note_on_c, 3, 27, 0
5, 9964, Note_on_c, 3, 27, 85
5, 10009, Note_on_c, 3, 26, 0
5, 10700, Note_on_c, 3, 26, 79
5, 10706, Note_on_c, 3, 27, 0
5, 12344, Note_on_c, 3, 26, 0
5, 12640, Note_on_c, 3, 38, 72
5, 13024, Note_on_c, 3, 39, 77
5, 13043, Note_on_c, 3, 38, 0
5, 13408, Note_on_c, 3, 39, 0
5, 13408, Note_on_c, 3, 38, 65
5, 13651, Note_on_c, 3, 38, 0
5, 13792, Note_on_c, 3, 40, 76
5, 14156, Note_on_c, 3, 36, 68
5, 14163, Note_on_c, 3, 40, 0
5, 14547, Note_on_c, 3, 41, 78
5, 14565, Note_on_c, 3, 36, 0
5, 14931, Note_on_c, 3, 40, 77
5, 14950, Note_on_c, 3, 41, 0
5, 15193, Note_on_c, 3, 40, 0
5, 15328, Note_on_c, 3, 42, 87
5, 15737, Note_on_c, 3, 38, 61
5, 15750, Note_on_c, 3, 42, 0
5, 16114, Note_on_c, 3, 38, 0
5, 16128, Note_on_c, 3, 43, 77
5, 16492, Note_on_c, 3, 43, 0
5, 16499, Note_on_c, 3, 31, 79
5, 16767, Note_on_c, 3, 31, 0
5, 16902, Note_on_c, 3, 36, 71
5, 17286, Note_on_c, 3, 38, 62
5, 17292, Note_on_c, 3, 36, 0
5, 17664, Note_on_c, 3, 39, 82
5, 17695, Note_on_c, 3, 38, 0
5, 18054, Note_on_c, 3, 36, 65
5, 18060, Note_on_c, 3, 39, 0
5, 18342, Note_on_c, 3, 36, 0
5, 18438, Note_on_c, 3, 38, 73
5, 18816, Note_on_c, 3, 36, 72
5, 18834, Note_on_c, 3, 38, 0
5, 19200, Note_on_c, 3, 34, 82
5, 19219, Note_on_c, 3, 36, 0
5, 19564, Note_on_c, 3, 39, 72
5, 19584, Note_on_c, 3, 34, 0
5, 19775, Note_on_c, 3, 39, 0
5, 19948, Note_on_c, 3, 36, 68
5, 20320, Note_on_c, 3, 33, 54
5, 20351, Note_on_c, 3, 36, 0
5, 20697, Note_on_c, 3, 33, 0
5, 20697, Note_on_c, 3, 38, 67
5, 20965, Note_on_c, 3, 38, 0
5, 21094, Note_on_c, 3, 26, 81
5, 21311, Note_on_c, 3, 26, 0
5, 21504, Note_on_c, 3, 31, 76
5, 21894, Note_on_c, 3, 33, 69
5, 21900, Note_on_c, 3, 31, 0
5, 22278, Note_on_c, 3, 34, 88
5, 22316, Note_on_c, 3, 33, 0
5, 22656, Note_on_c, 3, 36, 69
5, 22662, Note_on_c, 3, 34, 0
5, 23027, Note_on_c, 3, 36, 0
5, 23027, Note_on_c, 3, 38, 77
5, 23404, Note_on_c, 3, 38, 0
5, 23404, Note_on_c, 3, 39, 72
5, 23788, Note_on_c, 3, 38, 69
5, 23826, Note_on_c, 3, 39, 0
5, 24153, Note_on_c, 3, 36, 66
5, 24172, Note_on_c, 3, 38, 0
5, 24473, Note_on_c, 3, 36, 0
5, 24531, Note_on_c, 3, 34, 89
5, 24915, Note_on_c, 3, 36, 64
5, 24979, Note_on_c, 3, 34, 0
5, 25273, Note_on_c, 3, 36, 0
5, 25286, Note_on_c, 3, 38, 77
5, 25657, Note_on_c, 3, 38, 0
5, 25670, Note_on_c, 3, 39, 75
5, 26047, Note_on_c, 3, 39, 0
5, 26060, Note_on_c, 3, 41, 78
5, 26464, Note_on_c, 3, 43, 80
5, 26476, Note_on_c, 3, 41, 0
5, 26848, Note_on_c, 3, 41, 73
5, 26873, Note_on_c, 3, 43, 0
5, 27232, Note_on_c, 3, 39, 68
5, 27257, Note_on_c, 3, 41, 0
5, 27577, Note_on_c, 3, 39, 0
5, 27622, Note_on_c, 3, 38, 85
5, 27986, Note_on_c, 3, 38, 0
5, 28000, Note_on_c, 3, 36, 61
5, 28390, Note_on_c, 3, 35, 80
5, 28422, Note_on_c, 3, 36, 0
5, 28684, Note_on_c, 3, 35, 0
5, 28742, Note_on_c, 3, 31, 77
5, 29139, Note_on_c, 3, 36, 68
5, 29151, Note_on_c, 3, 31, 0
5, 29542, Note_on_c, 3, 38, 72
5, 29548, Note_on_c, 3, 36, 0
5, 29926, Note_on_c, 3, 39, 79
5, 29945, Note_on_c, 3, 38, 0
5, 30291, Note_on_c, 3, 36, 58
5, 30316, Note_on_c, 3, 39, 0
5, 30636, Note_on_c, 3, 36, 0
5, 30681, Note_on_c, 3, 43, 87
5, 30956, Note_on_c, 3, 43, 0
5, 31059, Note_on_c, 3, 31, 79
5, 31321, Note_on_c, 3, 31, 0
5, 31462, Note_on_c, 3, 43, 73
5, 31840, Note_on_c, 3, 41, 71
5, 31865, Note_on_c, 3, 43, 0
5, 32243, Note_on_c, 3, 41, 0
5, 32262, Note_on_c, 3, 39, 85
5, 32620, Note_on_c, 3, 39, 0
5, 32620, Note_on_c, 3, 36, 65
5, 32972, Note_on_c, 3, 41, 79
5, 33004, Note_on_c, 3, 36, 0
5, 33369, Note_on_c, 3, 43, 65
5, 33375, Note_on_c, 3, 41, 0
5, 33760, Note_on_c, 3, 45, 88
5, 33785, Note_on_c, 3, 43, 0
5, 34150, Note_on_c, 3, 43, 74
5, 34156, Note_on_c, 3, 45, 0
5, 34534, Note_on_c, 3, 43, 0
5, 34540, Note_on_c, 3, 45, 85
5, 34905, Note_on_c, 3, 41, 69
5, 34917, Note_on_c, 3, 45, 0
5, 35295, Note_on_c, 3, 41, 0
5, 35302, Note_on_c, 3, 46, 86
5, 35558, Note_on_c, 3, 46, 0
5, 35660, Note_on_c, 3, 34, 81
5, 36050, Note_on_c, 3, 34, 0
5, 36057, Note_on_c, 3, 46, 78
5, 36453, Note_on_c, 3, 46, 0
5, 36454, Note_on_c, 3, 44, 70
5, 36863, Note_on_c, 3, 44, 0
5, 36870, Note_on_c, 3, 43, 80
5, 37235, Note_on_c, 3, 41, 73
5, 37260, Note_on_c, 3, 43, 0
5, 37606, Note_on_c, 3, 41, 0
5, 37619, Note_on_c, 3, 39, 90
5, 38483, Note_on_c, 3, 39, 0
5, 38700, Note_on_c, 3, 27, 82
5, 39013, Note_on_c, 3, 27, 0
5, 39104, Note_on_c, 3, 26, 81
5, 39481, Note_on_c, 3, 26, 0
5, 39481, Note_on_c, 3, 36, 64
5, 39743, Note_on_c, 3, 36, 0
5, 39878, Note_on_c, 3, 35, 79
5, 40255, Note_on_c, 3, 35, 0
5, 40268, Note_on_c, 3, 31, 76
5, 40671, Note_on_c, 3, 31, 0
5, 40678, Note_on_c, 3, 36, 73
5, 41036, Note_on_c, 3, 34, 85
5, 41049, Note_on_c, 3, 36, 0
5, 41362, Note_on_c, 3, 34, 0
5, 41427, Note_on_c, 3, 33, 79
5, 41804, Note_on_c, 3, 33, 0
5, 41804, Note_on_c, 3, 29, 81
5, 42176, Note_on_c, 3, 34, 88
5, 42232, Note_on_c, 3, 29, 0
5, 42451, Note_on_c, 3, 34, 0
5, 42566, Note_on_c, 3, 38, 72
5, 42822, Note_on_c, 3, 38, 0
5, 42969, Note_on_c, 3, 39, 81
5, 43366, Note_on_c, 3, 38, 73
5, 43385, Note_on_c, 3, 39, 0
5, 43698, Note_on_c, 3, 38, 0
5, 43769, Note_on_c, 3, 39, 84
5, 44140, Note_on_c, 3, 38, 70
5, 44146, Note_on_c, 3, 39, 0
5, 44428, Note_on_c, 3, 38, 0
5, 44531, Note_on_c, 3, 39, 80
5, 44915, Note_on_c, 3, 38, 76
5, 44934, Note_on_c, 3, 39, 0
5, 45196, Note_on_c, 3, 38, 0
5, 45292, Note_on_c, 3, 39, 77
5, 45573, Note_on_c, 3, 39, 0
5, 45664, Note_on_c, 3, 36, 72
5, 45907, Note_on_c, 3, 36, 0
5, 46054, Note_on_c, 3, 38, 82
5, 46470, Note_on_c, 3, 39, 83
5, 46489, Note_on_c, 3, 38, 0
5, 46738, Note_on_c, 3, 39, 0
5, 46828, Note_on_c, 3, 41, 83
5, 47071, Note_on_c, 3, 41, 0
5, 47206, Note_on_c, 3, 29, 77
5, 47391, Note_on_c, 3, 29, 0
5, 47609, Note_on_c, 3, 34, 89
5, 47980, Note_on_c, 3, 34, 0
5, 47980, Note_on_c, 3, 36, 62
5, 48352, Note_on_c, 3, 38, 68
5, 48357, Note_on_c, 3, 36, 0
5, 48723, Note_on_c, 3, 39, 73
5, 48729, Note_on_c, 3, 38, 0
5, 49087, Note_on_c, 3, 39, 0
5, 49094, Note_on_c, 3, 41, 76
5, 49484, Note_on_c, 3, 43, 75
5, 49503, Note_on_c, 3, 41, 0
5, 49868, Note_on_c, 3, 41, 76
5, 49880, Note_on_c, 3, 43, 0
5, 50252, Note_on_c, 3, 39, 76
5, 50258, Note_on_c, 3, 41, 0
5, 50616, Note_on_c, 3, 39, 0
5, 50636, Note_on_c, 3, 38, 80
5, 51046, Note_on_c, 3, 36, 69
5, 51064, Note_on_c, 3, 38, 0
5, 51430, Note_on_c, 3, 35, 79
5, 51455, Note_on_c, 3, 36, 0
5, 51782, Note_on_c, 3, 35, 0
5, 51827, Note_on_c, 3, 31, 70
5, 52172, Note_on_c, 3, 31, 0
5, 52211, Note_on_c, 3, 36, 74
5, 52595, Note_on_c, 3, 38, 76
5, 52607, Note_on_c, 3, 36, 0
5, 52966, Note_on_c, 3, 36, 69
5, 53004, Note_on_c, 3, 38, 0
5, 53331, Note_on_c, 3, 34, 78
5, 53362, Note_on_c, 3, 36, 0
5, 53715, Note_on_c, 3, 34, 0
5, 53728, Note_on_c, 3, 33, 74
5, 54118, Note_on_c, 3, 31, 77
5, 54124, Note_on_c, 3, 33, 0
5, 54502, Note_on_c, 3, 30, 87
5, 54553, Note_on_c, 3, 31, 0
5, 54790, Note_on_c, 3, 30, 0
5, 54880, Note_on_c, 3, 26, 79
5, 55212, Note_on_c, 3, 26, 0
5, 55276, Note_on_c, 3, 31, 76
5, 55436, Note_on_c, 3, 31, 0
5, 55660, Note_on_c, 3, 43, 80
5, 56037, Note_on_c, 3, 43, 0
5, 56051, Note_on_c, 3, 45, 84
5, 56416, Note_on_c, 3, 41, 68
5, 56428, Note_on_c, 3, 45, 0
5, 56793, Note_on_c, 3, 41, 0
5, 56812, Note_on_c, 3, 34, 80
5, 57177, Note_on_c, 3, 36, 62
5, 57189, Note_on_c, 3, 34, 0
5, 57535, Note_on_c, 3, 36, 0
5, 57536, Note_on_c, 3, 38, 77
5, 57932, Note_on_c, 3, 39, 75
5, 57945, Note_on_c, 3, 38, 0
5, 58316, Note_on_c, 3, 39, 0
5, 58316, Note_on_c, 3, 41, 83
5, 58437, Note_on_c, 3, 41, 0
5, 58707, Note_on_c, 3, 29, 82
5, 59091, Note_on_c, 3, 27, 86
5, 59110, Note_on_c, 3, 29, 0
5, 59462, Note_on_c, 3, 27, 0
5, 59481, Note_on_c, 3, 26, 80
5, 59781, Note_on_c, 3, 26, 0
5, 59859, Note_on_c, 3, 24, 84
5, 60230, Note_on_c, 3, 26, 72
5, 60275, Note_on_c, 3, 24, 0
5, 60620, Note_on_c, 3, 27, 86
5, 60639, Note_on_c, 3, 26, 0
5, 61010, Note_on_c, 3, 27, 0
5, 61011, Note_on_c, 3, 24, 80
5, 61376, Note_on_c, 3, 31, 75
5, 61395, Note_on_c, 3, 24, 0
5, 61574, Note_on_c, 3, 31, 0
5, 61804, Note_on_c, 3, 43, 70
5, 62098, Note_on_c, 3, 43, 0
5, 62547, Note_on_c, 3, 43, 71
5, 62739, Note_on_c, 3, 43, 0
5, 62982, Note_on_c, 3, 43, 81
5, 63340, Note_on_c, 3, 42, 81
5, 63346, Note_on_c, 3, 43, 0
5, 63570, Note_on_c, 3, 42, 0
5, 64070, Note_on_c, 3, 42, 84
5, 64236, Note_on_c, 3, 42, 0
5, 64467, Note_on_c, 3, 43, 78
5, 64870, Note_on_c, 3, 43, 0
5, 64870, Note_on_c, 3, 41, 73
5, 65241, Note_on_c, 3, 39, 82
5, 65260, Note_on_c, 3, 41, 0
5, 66386, Note_on_c, 3, 39, 0
5, 66387, Note_on_c, 3, 38, 74
5, 66758, Note_on_c, 3, 36, 70
5, 66777, Note_on_c, 3, 38, 0
5, 67942, Note_on_c, 3, 24, 77
5, 67954, Note_on_c, 3, 36, 0
5, 68339, Note_on_c, 3, 36, 68
5, 68358, Note_on_c, 3, 24, 0
5, 69459, Note_on_c, 3, 33, 69
5, 69484, Note_on_c, 3, 36, 0
5, 69875, Note_on_c, 3, 34, 86
5, 69887, Note_on_c, 3, 33, 0
5, 70240, Note_on_c, 3, 30, 86
5, 70246, Note_on_c, 3, 34, 0
5, 70611, Note_on_c, 3, 30, 0
5, 70617, Note_on_c, 3, 31, 69
5, 70924, Note_on_c, 3, 31, 0
5, 71001, Note_on_c, 3, 34, 82
5, 71359, Note_on_c, 3, 34, 0
5, 71379, Note_on_c, 3, 36, 65
5, 71756, Note_on_c, 3, 36, 0
5, 71763, Note_on_c, 3, 38, 75
5, 72128, Note_on_c, 3, 39, 76
5, 72134, Note_on_c, 3, 38, 0
5, 72512, Note_on_c, 3, 39, 0
5, 72512, Note_on_c, 3, 41, 69
5, 72902, Note_on_c, 3, 39, 82
5, 72934, Note_on_c, 3, 41, 0
5, 73266, Note_on_c, 3, 39, 0
5, 73267, Note_on_c, 3, 38, 64
5, 73651, Note_on_c, 3, 38, 0
5, 73657, Note_on_c, 3, 36, 65
5, 74028, Note_on_c, 3, 36, 0
5, 74041, Note_on_c, 3, 24, 79
5, 74348, Note_on_c, 3, 24, 0
5, 74822, Note_on_c, 3, 36, 66
5, 75007, Note_on_c, 3, 36, 0
5, 75206, Note_on_c, 3, 31, 75
5, 75545, Note_on_c, 3, 31, 0
5, 75616, Note_on_c, 3, 43, 79
5, 75968, Note_on_c, 3, 43, 0
5, 76000, Note_on_c, 3, 41, 81
5, 76384, Note_on_c, 3, 41, 0
5, 76390, Note_on_c, 3, 39, 75
5, 76761, Note_on_c, 3, 39, 0
5, 76780, Note_on_c, 3, 38, 82
5, 77190, Note_on_c, 3, 26, 79
5, 77202, Note_on_c, 3, 38, 0
5, 77554, Note_on_c, 3, 26, 0
5, 77561, Note_on_c, 3, 38, 79
5, 77925, Note_on_c, 3, 38, 0
5, 77932, Note_on_c, 3, 31, 79
5, 78213, Note_on_c, 3, 31, 0
5, 78297, Note_on_c, 3, 36, 68
5, 78700, Note_on_c, 3, 36, 0
5, 78707, Note_on_c, 3, 39, 72
5, 79084, Note_on_c, 3, 39, 0
5, 79084, Note_on_c, 3, 32, 79
5, 79475, Note_on_c, 3, 36, 60
5, 79487, Note_on_c, 3, 32, 0
5, 79859, Note_on_c, 3, 29, 80
5, 79865, Note_on_c, 3, 36, 0
5, 80108, Note_on_c, 3, 29, 0
5, 80230, Note_on_c, 3, 41, 69
5, 80620, Note_on_c, 3, 39, 72
5, 80658, Note_on_c, 3, 41, 0
5, 80959, Note_on_c, 3, 39, 0
5, 80972, Note_on_c, 3, 44, 72
5, 81272, Note_on_c, 3, 44, 0
5, 81344, Note_on_c, 3, 43, 81
5, 81734, Note_on_c, 3, 41, 81
5, 81760, Note_on_c, 3, 43, 0
5, 82105, Note_on_c, 3, 41, 0
5, 82112, Note_on_c, 3, 43, 71
5, 82451, Note_on_c, 3, 43, 0
5, 82508, Note_on_c, 3, 31, 76
5, 82764, Note_on_c, 3, 31, 0
5, 82918, Note_on_c, 3, 36, 68
5, 83289, Note_on_c, 3, 38, 75
5, 83295, Note_on_c, 3, 36, 0
5, 83673, Note_on_c, 3, 36, 66
5, 83679, Note_on_c, 3, 38, 0
5, 84051, Note_on_c, 3, 34, 79
5, 84057, Note_on_c, 3, 36, 0
5, 84409, Note_on_c, 3, 34, 0
5, 84428, Note_on_c, 3, 33, 73
5, 84832, Note_on_c, 3, 26, 83
5, 84837, Note_on_c, 3, 33, 0
5, 85088, Note_on_c, 3, 26, 0
5, 85216, Note_on_c, 3, 38, 76
5, 86208, Note_on_c, 3, 38, 0
5, 86374, Note_on_c, 3, 34, 69
5, 86758, Note_on_c, 3, 39, 78
5, 86764, Note_on_c, 3, 34, 0
5, 87116, Note_on_c, 3, 39, 0
5, 87142, Note_on_c, 3, 38, 64
5, 87513, Note_on_c, 3, 40, 76
5, 87526, Note_on_c, 3, 38, 0
5, 87884, Note_on_c, 3, 36, 68
5, 87890, Note_on_c, 3, 40, 0
5, 88249, Note_on_c, 3, 41, 79
5, 88255, Note_on_c, 3, 36, 0
5, 88646, Note_on_c, 3, 40, 73
5, 88677, Note_on_c, 3, 41, 0
5, 88966, Note_on_c, 3, 40, 0
5, 89024, Note_on_c, 3, 42, 89
5, 89299, Note_on_c, 3, 42, 0
5, 89408, Note_on_c, 3, 38, 78
5, 89798, Note_on_c, 3, 38, 0
5, 89804, Note_on_c, 3, 43, 89
5, 90098, Note_on_c, 3, 43, 0
5, 90208, Note_on_c, 3, 31, 81
5, 90489, Note_on_c, 3, 31, 0
5, 90585, Note_on_c, 3, 36, 76
5, 90988, Note_on_c, 3, 36, 0
5, 90988, Note_on_c, 3, 38, 70
5, 91372, Note_on_c, 3, 39, 79
5, 91404, Note_on_c, 3, 38, 0
5, 91750, Note_on_c, 3, 36, 64
5, 91768, Note_on_c, 3, 39, 0
5, 92031, Note_on_c, 3, 36, 0
5, 92134, Note_on_c, 3, 38, 77
5, 92518, Note_on_c, 3, 36, 69
5, 92530, Note_on_c, 3, 38, 0
5, 92908, Note_on_c, 3, 36, 0
5, 92908, Note_on_c, 3, 34, 85
5, 93170, Note_on_c, 3, 34, 0
5, 93267, Note_on_c, 3, 39, 80
5, 93465, Note_on_c, 3, 39, 0
5, 93638, Note_on_c, 3, 36, 70
5, 94028, Note_on_c, 3, 33, 69
5, 94034, Note_on_c, 3, 36, 0
5, 94405, Note_on_c, 3, 33, 0
5, 94412, Note_on_c, 3, 38, 79
5, 94674, Note_on_c, 3, 38, 0
5, 94796, Note_on_c, 3, 26, 82
5, 95013, Note_on_c, 3, 26, 0
5, 95219, Note_on_c, 3, 31, 83
5, 100108, Note_on_c, 3, 31, 0
5, 100198, Note_on_c, 3, 34, 86
5, 100466, Note_on_c, 3, 34, 0
5, 100569, Note_on_c, 3, 38, 82
5, 100767, Note_on_c, 3, 38, 0
5, 100947, Note_on_c, 3, 26, 86
5, 101145, Note_on_c, 3, 26, 0
5, 101363, Note_on_c, 3, 31, 85
5, 104415, Note_on_c, 3, 31, 0
5, 104415, End_track
6, 0, Start_track
6, 0, Title_t, "Ped 8"
6, 0, MIDI_port, 0
6, 0, Control_c, 0, 7, 63
6, 0, Control_c, 0, 10, 59
6, 0, Program_c, 0, 78
6, 25, Note_on_c, 0, 43, 80
6, 467, Note_on_c, 0, 45, 74
6, 517, Note_on_c, 0, 43, 0
6, 870, Note_on_c, 0, 46, 90
6, 908, Note_on_c, 0, 45, 0
6, 1209, Note_on_c, 0, 46, 0
6, 1216, Note_on_c, 0, 48, 69
6, 1542, Note_on_c, 0, 50, 74
6, 1555, Note_on_c, 0, 48, 0
6, 1939, Note_on_c, 0, 51, 76
6, 1951, Note_on_c, 0, 50, 0
6, 2291, Note_on_c, 0, 50, 73
6, 2303, Note_on_c, 0, 51, 0
6, 2688, Note_on_c, 0, 48, 59
6, 2719, Note_on_c, 0, 50, 0
6, 3104, Note_on_c, 0, 46, 83
6, 3129, Note_on_c, 0, 48, 0
6, 3417, Note_on_c, 0, 46, 0
6, 3475, Note_on_c, 0, 50, 73
6, 3891, Note_on_c, 0, 53, 84
6, 3897, Note_on_c, 0, 50, 0
6, 4249, Note_on_c, 0, 51, 77
6, 4268, Note_on_c, 0, 53, 0
6, 4659, Note_on_c, 0, 50, 83
6, 4665, Note_on_c, 0, 51, 0
6, 5004, Note_on_c, 0, 48, 66
6, 5011, Note_on_c, 0, 50, 0
6, 5344, Note_on_c, 0, 47, 81
6, 5368, Note_on_c, 0, 48, 0
6, 5753, Note_on_c, 0, 43, 62
6, 5760, Note_on_c, 0, 47, 0
6, 6060, Note_on_c, 0, 43, 0
6, 6131, Note_on_c, 0, 48, 75
6, 6489, Note_on_c, 0, 48, 0
6, 6489, Note_on_c, 0, 46, 86
6, 6854, Note_on_c, 0, 45, 72
6, 6873, Note_on_c, 0, 46, 0
6, 7231, Note_on_c, 0, 45, 0
6, 7238, Note_on_c, 0, 43, 74
6, 7628, Note_on_c, 0, 42, 91
6, 7654, Note_on_c, 0, 43, 0
6, 8031, Note_on_c, 0, 42, 0
6, 8032, Note_on_c, 0, 38, 80
6, 8320, Note_on_c, 0, 38, 0
6, 8416, Note_on_c, 0, 43, 79
6, 8800, Note_on_c, 0, 41, 75
6, 8832, Note_on_c, 0, 43, 0
6, 9190, Note_on_c, 0, 39, 86
6, 9241, Note_on_c, 0, 41, 0
6, 9568, Note_on_c, 0, 38, 77
6, 9586, Note_on_c, 0, 39, 0
6, 9964, Note_on_c, 0, 39, 85
6, 10009, Note_on_c, 0, 38, 0
6, 10700, Note_on_c, 0, 38, 79
6, 10706, Note_on_c, 0, 39, 0
6, 12344, Note_on_c, 0, 38, 0
6, 12640, Note_on_c, 0, 50, 72
6, 13024, Note_on_c, 0, 51, 77
6, 13043, Note_on_c, 0, 50, 0
6, 13408, Note_on_c, 0, 51, 0
6, 13408, Note_on_c, 0, 50, 65
6, 13651, Note_on_c, 0, 50, 0
6, 13792, Note_on_c, 0, 52, 76
6, 14156, Note_on_c, 0, 48, 68
6, 14163, Note_on_c, 0, 52, 0
6, 14547, Note_on_c, 0, 53, 78
6, 14565, Note_on_c, 0, 48, 0
6, 14931, Note_on_c, 0, 52, 77
6, 14950, Note_on_c, 0, 53, 0
6, 15193, Note_on_c, 0, 52, 0
6, 15328, Note_on_c, 0, 54, 87
6, 15737, Note_on_c, 0, 50, 61
6, 15750, Note_on_c, 0, 54, 0
6, 16114, Note_on_c, 0, 50, 0
6, 16128, Note_on_c, 0, 55, 77
6, 16492, Note_on_c, 0, 55, 0
6, 16499, Note_on_c, 0, 43, 79
6, 16767, Note_on_c, 0, 43, 0
6, 16902, Note_on_c, 0, 48, 71
6, 17286, Note_on_c, 0, 50, 62
6, 17292, Note_on_c, 0, 48, 0
6, 17664, Note_on_c, 0, 51, 82
6, 17695, Note_on_c, 0, 50, 0
6, 18054, Note_on_c, 0, 48, 65
6, 18060, Note_on_c, 0, 51, 0
6, 18342, Note_on_c, 0, 48, 0
6, 18438, Note_on_c, 0, 50, 73
6, 18816, Note_on_c, 0, 48, 72
6, 18834, Note_on_c, 0, 50, 0
6, 19200, Note_on_c, 0, 46, 82
6, 19219, Note_on_c, 0, 48, 0
6, 19564, Note_on_c, 0, 51, 72
6, 19584, Note_on_c, 0, 46, 0
6, 19775, Note_on_c, 0, 51, 0
6, 19948, Note_on_c, 0, 48, 68
6, 20320, Note_on_c, 0, 45, 54
6, 20351, Note_on_c, 0, 48, 0
6, 20697, Note_on_c, 0, 45, 0
6, 20697, Note_on_c, 0, 50, 67
6, 20965, Note_on_c, 0, 50, 0
6, 21094, Note_on_c, 0, 38, 81
6, 21311, Note_on_c, 0, 38, 0
6, 21504, Note_on_c, 0, 43, 76
6, 21894, Note_on_c, 0, 45, 69
6, 21900, Note_on_c, 0, 43, 0
6, 22278, Note_on_c, 0, 46, 88
6, 22316, Note_on_c, 0, 45, 0
6, 22656, Note_on_c, 0, 48, 69
6, 22662, Note_on_c, 0, 46, 0
6, 23027, Note_on_c, 0, 48, 0
6, 23027, Note_on_c, 0, 50, 77
6, 23404, Note_on_c, 0, 50, 0
6, 23404, Note_on_c, 0, 51, 72
6, 23788, Note_on_c, 0, 50, 69
6, 23826, Note_on_c, 0, 51, 0
6, 24153, Note_on_c, 0, 48, 66
6, 24172, Note_on_c, 0, 50, 0
6, 24473, Note_on_c, 0, 48, 0
6, 24531, Note_on_c, 0, 46, 89
6, 24915, Note_on_c, 0, 48, 64
6, 24979, Note_on_c, 0, 46, 0
6, 25273, Note_on_c, 0, 48, 0
6, 25286, Note_on_c, 0, 50, 77
6, 25657, Note_on_c, 0, 50, 0
6, 25670, Note_on_c, 0, 51, 75
6, 26047, Note_on_c, 0, 51, 0
6, 26060, Note_on_c, 0, 53, 78
6, 26464, Note_on_c, 0, 55, 80
6, 26476, Note_on_c, 0, 53, 0
6, 26848, Note_on_c, 0, 53, 73
6, 26873, Note_on_c, 0, 55, 0
6, 27232, Note_on_c, 0, 51, 68
6, 27257, Note_on_c, 0, 53, 0
6, 27577, Note_on_c, 0, 51, 0
6, 27622, Note_on_c, 0, 50, 85
6, 27986, Note_on_c, 0, 50, 0
6, 28000, Note_on_c, 0, 48, 61
6, 28390, Note_on_c, 0, 47, 80
6, 28422, Note_on_c, 0, 48, 0
6, 28684, Note_on_c, 0, 47, 0
6, 28742, Note_on_c, 0, 43, 77
6, 29139, Note_on_c, 0, 48, 68
6, 29151, Note_on_c, 0, 43, 0
6, 29542, Note_on_c, 0, 50, 72
6, 29548, Note_on_c, 0, 48, 0
6, 29926, Note_on_c, 0, 51, 79
6, 29945, Note_on_c, 0, 50, 0
6, 30291, Note_on_c, 0, 48, 58
6, 30316, Note_on_c, 0, 51, 0
6, 30636, Note_on_c, 0, 48, 0
6, 30681, Note_on_c, 0, 55, 87
6, 30956, Note_on_c, 0, 55, 0
6, 31059, Note_on_c, 0, 43, 79
6, 31321, Note_on_c, 0, 43, 0
6, 31462, Note_on_c, 0, 55, 73
6, 31840, Note_on_c, 0, 53, 71
6, 31865, Note_on_c, 0, 55, 0
6, 32243, Note_on_c, 0, 53, 0
6, 32262, Note_on_c, 0, 51, 85
6, 32620, Note_on_c, 0, 51, 0
6, 32620, Note_on_c, 0, 48, 65
6, 32972, Note_on_c, 0, 53, 79
6, 33004, Note_on_c, 0, 48, 0
6, 33369, Note_on_c, 0, 55, 65
6, 33375, Note_on_c, 0, 53, 0
6, 33760, Note_on_c, 0, 57, 88
6, 33785, Note_on_c, 0, 55, 0
6, 34156, Note_on_c, 0, 57, 0
6, 34165, Note_on_c, 0, 55, 74
6, 34540, Note_on_c, 0, 57, 85
6, 34549, Note_on_c, 0, 55, 0
6, 34905, Note_on_c, 0, 53, 69
6, 34917, Note_on_c, 0, 57, 0
6, 35295, Note_on_c, 0, 53, 0
6, 35302, Note_on_c, 0, 58, 86
6, 35558, Note_on_c, 0, 58, 0
6, 35660, Note_on_c, 0, 46, 81
6, 36050, Note_on_c, 0, 46, 0
6, 36057, Note_on_c, 0, 58, 78
6, 36453, Note_on_c, 0, 58, 0
6, 36454, Note_on_c, 0, 56, 70
6, 36863, Note_on_c, 0, 56, 0
6, 36870, Note_on_c, 0, 55, 80
6, 37235, Note_on_c, 0, 53, 73
6, 37260, Note_on_c, 0, 55, 0
6, 37606, Note_on_c, 0, 53, 0
6, 37619, Note_on_c, 0, 51, 90
6, 38483, Note_on_c, 0, 51, 0
6, 38700, Note_on_c, 0, 39, 82
6, 39013, Note_on_c, 0, 39, 0
6, 39104, Note_on_c, 0, 38, 81
6, 39481, Note_on_c, 0, 38, 0
6, 39481, Note_on_c, 0, 48, 64
6, 39743, Note_on_c, 0, 48, 0
6, 39878, Note_on_c, 0, 47, 79
6, 40255, Note_on_c, 0, 47, 0
6, 40268, Note_on_c, 0, 43, 76
6, 40671, Note_on_c, 0, 43, 0
6, 40678, Note_on_c, 0, 48, 73
6, 41036, Note_on_c, 0, 46, 85
6, 41049, Note_on_c, 0, 48, 0
6, 41362, Note_on_c, 0, 46, 0
6, 41427, Note_on_c, 0, 45, 79
6, 41804, Note_on_c, 0, 45, 0
6, 41804, Note_on_c, 0, 41, 81
6, 42176, Note_on_c, 0, 46, 88
6, 42232, Note_on_c, 0, 41, 0
6, 42451, Note_on_c, 0, 46, 0
6, 42566, Note_on_c, 0, 50, 72
6, 42822, Note_on_c, 0, 50, 0
6, 42969, Note_on_c, 0, 51, 81
6, 43366, Note_on_c, 0, 50, 73
6, 43385, Note_on_c, 0, 51, 0
6, 43698, Note_on_c, 0, 50, 0
6, 43769, Note_on_c, 0, 51, 84
6, 44140, Note_on_c, 0, 50, 70
6, 44146, Note_on_c, 0, 51, 0
6, 44428, Note_on_c, 0, 50, 0
6, 44531, Note_on_c, 0, 51, 80
6, 44915, Note_on_c, 0, 50, 76
6, 44934, Note_on_c, 0, 51, 0
6, 45196, Note_on_c, 0, 50, 0
6, 45292, Note_on_c, 0, 51, 77
6, 45573, Note_on_c, 0, 51, 0
6, 45664, Note_on_c, 0, 48, 72
6, 45907, Note_on_c, 0, 48, 0
6, 46054, Note_on_c, 0, 50, 82
6, 46470, Note_on_c, 0, 51, 83
6, 46489, Note_on_c, 0, 50, 0
6, 46738, Note_on_c, 0, 51, 0
6, 46828, Note_on_c, 0, 53, 83
6, 47071, Note_on_c, 0, 53, 0
6, 47206, Note_on_c, 0, 41, 77
6, 47391, Note_on_c, 0, 41, 0
6, 47609, Note_on_c, 0, 46, 89
6, 47980, Note_on_c, 0, 46, 0
6, 47980, Note_on_c, 0, 48, 62
6, 48352, Note_on_c, 0, 50, 68
6, 48357, Note_on_c, 0, 48, 0
6, 48723, Note_on_c, 0, 51, 73
6, 48729, Note_on_c, 0, 50, 0
6, 49087, Note_on_c, 0, 51, 0
6, 49094, Note_on_c, 0, 53, 76
6, 49484, Note_on_c, 0, 55, 75
6, 49503, Note_on_c, 0, 53, 0
6, 49868, Note_on_c, 0, 53, 76
6, 49880, Note_on_c, 0, 55, 0
6, 50252, Note_on_c, 0, 51, 76
6, 50258, Note_on_c, 0, 53, 0
6, 50616, Note_on_c, 0, 51, 0
6, 50636, Note_on_c, 0, 50, 80
6, 51046, Note_on_c, 0, 48, 69
6, 51064, Note_on_c, 0, 50, 0
6, 51430, Note_on_c, 0, 47, 79
6, 51455, Note_on_c, 0, 48, 0
6, 51782, Note_on_c, 0, 47, 0
6, 51827, Note_on_c, 0, 43, 70
6, 52172, Note_on_c, 0, 43, 0
6, 52211, Note_on_c, 0, 48, 74
6, 52595, Note_on_c, 0, 50, 76
6, 52607, Note_on_c, 0, 48, 0
6, 52966, Note_on_c, 0, 48, 69
6, 53004, Note_on_c, 0, 50, 0
6, 53331, Note_on_c, 0, 46, 78
6, 53362, Note_on_c, 0, 48, 0
6, 53715, Note_on_c, 0, 46, 0
6, 53728, Note_on_c, 0, 45, 74
6, 54118, Note_on_c, 0, 43, 77
6, 54124, Note_on_c, 0, 45, 0
6, 54502, Note_on_c, 0, 42, 87
6, 54553, Note_on_c, 0, 43, 0
6, 54790, Note_on_c, 0, 42, 0
6, 54880, Note_on_c, 0, 38, 79
6, 55212, Note_on_c, 0, 38, 0
6, 55276, Note_on_c, 0, 43, 76
6, 55436, Note_on_c, 0, 43, 0
6, 55660, Note_on_c, 0, 55, 80
6, 56037, Note_on_c, 0, 55, 0
6, 56051, Note_on_c, 0, 57, 84
6, 56416, Note_on_c, 0, 53, 68
6, 56428, Note_on_c, 0, 57, 0
6, 56793, Note_on_c, 0, 53, 0
6, 56812, Note_on_c, 0, 46, 80
6, 57177, Note_on_c, 0, 48, 62
6, 57189, Note_on_c, 0, 46, 0
6, 57535, Note_on_c, 0, 48, 0
6, 57536, Note_on_c, 0, 50, 77
6, 57932, Note_on_c, 0, 51, 75
6, 57945, Note_on_c, 0, 50, 0
6, 58316, Note_on_c, 0, 51, 0
6, 58316, Note_on_c, 0, 53, 83
6, 58437, Note_on_c, 0, 53, 0
6, 58707, Note_on_c, 0, 41, 82
6, 59091, Note_on_c, 0, 39, 86
6, 59110, Note_on_c, 0, 41, 0
6, 59462, Note_on_c, 0, 39, 0
6, 59481, Note_on_c, 0, 38, 80
6, 59781, Note_on_c, 0, 38, 0
6, 59859, Note_on_c, 0, 36, 84
6, 60230, Note_on_c, 0, 38, 72
6, 60275, Note_on_c, 0, 36, 0
6, 60620, Note_on_c, 0, 39, 86
6, 60639, Note_on_c, 0, 38, 0
6, 61010, Note_on_c, 0, 39, 0
6, 61011, Note_on_c, 0, 36, 80
6, 61376, Note_on_c, 0, 43, 75
6, 61395, Note_on_c, 0, 36, 0
6, 61574, Note_on_c, 0, 43, 0
6, 61804, Note_on_c, 0, 55, 70
6, 62098, Note_on_c, 0, 55, 0
6, 62547, Note_on_c, 0, 55, 71
6, 62739, Note_on_c, 0, 55, 0
6, 62982, Note_on_c, 0, 55, 81
6, 63340, Note_on_c, 0, 54, 81
6, 63346, Note_on_c, 0, 55, 0
6, 63570, Note_on_c, 0, 54, 0
6, 64070, Note_on_c, 0, 54, 84
6, 64236, Note_on_c, 0, 54, 0
6, 64467, Note_on_c, 0, 55, 78
6, 64870, Note_on_c, 0, 55, 0
6, 64870, Note_on_c, 0, 53, 73
6, 65241, Note_on_c, 0, 51, 82
6, 65260, Note_on_c, 0, 53, 0
6, 66386, Note_on_c, 0, 51, 0
6, 66387, Note_on_c, 0, 50, 74
6, 66758, Note_on_c, 0, 48, 70
6, 66777, Note_on_c, 0, 50, 0
6, 67942, Note_on_c, 0, 36, 77
6, 67954, Note_on_c, 0, 48, 0
6, 68339, Note_on_c, 0, 48, 68
6, 68358, Note_on_c, 0, 36, 0
6, 69459, Note_on_c, 0, 45, 69
6, 69484, Note_on_c, 0, 48, 0
6, 69875, Note_on_c, 0, 46, 86
6, 69887, Note_on_c, 0, 45, 0
6, 70240, Note_on_c, 0, 42, 86
6, 70246, Note_on_c, 0, 46, 0
6, 70611, Note_on_c, 0, 42, 0
6, 70617, Note_on_c, 0, 43, 69
6, 70924, Note_on_c, 0, 43, 0
6, 71001, Note_on_c, 0, 46, 82
6, 71359, Note_on_c, 0, 46, 0
6, 71379, Note_on_c, 0, 48, 65
6, 71756, Note_on_c, 0, 48, 0
6, 71763, Note_on_c, 0, 50, 75
6, 72128, Note_on_c, 0, 51, 76
6, 72134, Note_on_c, 0, 50, 0
6, 72512, Note_on_c, 0, 51, 0
6, 72512, Note_on_c, 0, 53, 69
6, 72902, Note_on_c, 0, 51, 82
6, 72934, Note_on_c, 0, 53, 0
6, 73266, Note_on_c, 0, 51, 0
6, 73267, Note_on_c, 0, 50, 64
6, 73651, Note_on_c, 0, 50, 0
6, 73657, Note_on_c, 0, 48, 65
6, 74028, Note_on_c, 0, 48, 0
6, 74041, Note_on_c, 0, 36, 79
6, 74348, Note_on_c, 0, 36, 0
6, 74822, Note_on_c, 0, 48, 66
6, 75007, Note_on_c, 0, 48, 0
6, 75206, Note_on_c, 0, 43, 75
6, 75545, Note_on_c, 0, 43, 0
6, 75616, Note_on_c, 0, 55, 79
6, 75968, Note_on_c, 0, 55, 0
6, 76000, Note_on_c, 0, 53, 81
6, 76384, Note_on_c, 0, 53, 0
6, 76390, Note_on_c, 0, 51, 75
6, 76761, Note_on_c, 0, 51, 0
6, 76780, Note_on_c, 0, 50, 82
6, 77190, Note_on_c, 0, 38, 79
6, 77202, Note_on_c, 0, 50, 0
6, 77554, Note_on_c, 0, 38, 0
6, 77561, Note_on_c, 0, 50, 79
6, 77925, Note_on_c, 0, 50, 0
6, 77932, Note_on_c, 0, 43, 79
6, 78213, Note_on_c, 0, 43, 0
6, 78297, Note_on_c, 0, 48, 68
6, 78700, Note_on_c, 0, 48, 0
6, 78707, Note_on_c, 0, 51, 72
6, 79084, Note_on_c, 0, 51, 0
6, 79084, Note_on_c, 0, 44, 79
6, 79475, Note_on_c, 0, 48, 60
6, 79487, Note_on_c, 0, 44, 0
6, 79859, Note_on_c, 0, 41, 80
6, 79865, Note_on_c, 0, 48, 0
6, 80108, Note_on_c, 0, 41, 0
6, 80230, Note_on_c, 0, 53, 69
6, 80620, Note_on_c, 0, 51, 72
6, 80658, Note_on_c, 0, 53, 0
6, 80959, Note_on_c, 0, 51, 0
6, 80972, Note_on_c, 0, 56, 72
6, 81272, Note_on_c, 0, 56, 0
6, 81344, Note_on_c, 0, 55, 81
6, 81734, Note_on_c, 0, 53, 81
6, 81760, Note_on_c, 0, 55, 0
6, 82105, Note_on_c, 0, 53, 0
6, 82112, Note_on_c, 0, 55, 71
6, 82451, Note_on_c, 0, 55, 0
6, 82508, Note_on_c, 0, 43, 76
6, 82764, Note_on_c, 0, 43, 0
6, 82918, Note_on_c, 0, 48, 68
6, 83289, Note_on_c, 0, 50, 75
6, 83295, Note_on_c, 0, 48, 0
6, 83673, Note_on_c, 0, 48, 66
6, 83679, Note_on_c, 0, 50, 0
6, 84051, Note_on_c, 0, 46, 79
6, 84057, Note_on_c, 0, 48, 0
6, 84409, Note_on_c, 0, 46, 0
6, 84428, Note_on_c, 0, 45, 73
6, 84832, Note_on_c, 0, 38, 83
6, 84837, Note_on_c, 0, 45, 0
6, 85088, Note_on_c, 0, 38, 0
6, 85216, Note_on_c, 0, 50, 76
6, 86208, Note_on_c, 0, 50, 0
6, 86374, Note_on_c, 0, 46, 69
6, 86758, Note_on_c, 0, 51, 78
6, 86764, Note_on_c, 0, 46, 0
6, 87116, Note_on_c, 0, 51, 0
6, 87142, Note_on_c, 0, 50, 64
6, 87513, Note_on_c, 0, 52, 76
6, 87526, Note_on_c, 0, 50, 0
6, 87884, Note_on_c, 0, 48, 68
6, 87890, Note_on_c, 0, 52, 0
6, 88249, Note_on_c, 0, 53, 79
6, 88255, Note_on_c, 0, 48, 0
6, 88646, Note_on_c, 0, 52, 73
6, 88677, Note_on_c, 0, 53, 0
6, 88966, Note_on_c, 0, 52, 0
6, 89024, Note_on_c, 0, 54, 89
6, 89299, Note_on_c, 0, 54, 0
6, 89408, Note_on_c, 0, 50, 78
6, 89798, Note_on_c, 0, 50, 0
6, 89804, Note_on_c, 0, 55, 89
6, 90098, Note_on_c, 0, 55, 0
6, 90208, Note_on_c, 0, 43, 81
6, 90489, Note_on_c, 0, 43, 0
6, 90585, Note_on_c, 0, 48, 76
6, 90988, Note_on_c, 0, 48, 0
6, 90988, Note_on_c, 0, 50, 70
6, 91372, Note_on_c, 0, 51, 79
6, 91404, Note_on_c, 0, 50, 0
6, 91750, Note_on_c, 0, 48, 64
6, 91768, Note_on_c, 0, 51, 0
6, 92031, Note_on_c, 0, 48, 0
6, 92134, Note_on_c, 0, 50, 77
6, 92518, Note_on_c, 0, 48, 69
6, 92530, Note_on_c, 0, 50, 0
6, 92908, Note_on_c, 0, 48, 0
6, 92908, Note_on_c, 0, 46, 85
6, 93170, Note_on_c, 0, 46, 0
6, 93267, Note_on_c, 0, 51, 80
6, 93465, Note_on_c, 0, 51, 0
6, 93638, Note_on_c, 0, 48, 70
6, 94028, Note_on_c, 0, 45, 69
6, 94034, Note_on_c, 0, 48, 0
6, 94405, Note_on_c, 0, 45, 0
6, 94412, Note_on_c, 0, 50, 79
6, 94674, Note_on_c, 0, 50, 0
6, 94796, Note_on_c, 0, 38, 82
6, 95013, Note_on_c, 0, 38, 0
6, 95219, Note_on_c, 0, 43, 83
6, 100108, Note_on_c, 0, 43, 0
6, 100198, Note_on_c, 0, 46, 86
6, 100466, Note_on_c, 0, 46, 0
6, 100569, Note_on_c, 0, 50, 82
6, 100767, Note_on_c, 0, 50, 0
6, 100947, Note_on_c, 0, 38, 86
6, 101145, Note_on_c, 0, 38, 0
6, 101363, Note_on_c, 0, 43, 85
6, 104454, Note_on_c, 0, 43, 0
6, 104454, End_track
7, 0, Start_track
7, 0, MIDI_port, 0
7, 0, End_track
8, 0, Start_track
8, 0, Title_t, "Nun komm' der Heiden Heiland"
8, 0, MIDI_port, 0
8, 0, End_track
9, 0, Start_track
9, 0, Title_t, "(C.F. in Soprano)"
9, 0, MIDI_port, 0
9, 0, End_track
10, 0, Start_track
10, 0, Title_t, "by J S Bach (BWV 659)"
10, 0, MIDI_port, 0
10, 0, End_track
11, 0, Start_track
11, 0, MIDI_port, 0
11, 0, End_track
12, 0, Start_track
12, 0, Title_t, "Sequenced using WinJammer Professional"
12, 0, MIDI_port, 0
12, 0, End_track
13, 0, Start_track
13, 0, Title_t, "on Windows NT by Martin Robinson."
13, 0, MIDI_port, 0
13, 0, End_track
14, 0, Start_track
14, 0, Title_t, "(c) Martin Robinson 1997"
14, 0, MIDI_port, 0
14, 0, End_track
0, 0, End_of_file
