0, 0, Header, 1, 14, 768
1, 0, Start_track
1, 0, Sequencer_specific, 10, 0, 0, 91, 35, 1, 0, 5, 4, 35, 0
1, 0, Instrument_name_t, "Conductor Track"
1, 0, SMPTE_offset, 96, 0, 3, 0, 0
1, 0, MIDI_port, 0
1, 0, Tempo, 857142
1, 0, Time_signature, 4, 2, 24, 8
1, 115968, Tempo, 1000000
1, 117344, Tempo, 2000000
1, 117504, Tempo, 857142
1, 139776, Tempo, 1000000
1, 142080, Tempo, 857142
1, 212736, Tempo, 923076
1, 213504, Tempo, 952380
1, 214272, Tempo, 1000000
1, 215040, Tempo, 1111111
1, 215808, Tempo, 1200000
1, 215808, End_track
2, 0, Start_track
2, 0, Title_t, "Cantus Firmus"
2, 0, MIDI_port, 0
2, 0, Control_c, 0, 7, 127
2, 0, Control_c, 0, 91, 127
2, 0, Program_c, 0, 56
2, 13883, Note_on_c, 0, 74, 120
2, 15361, Note_on_c, 0, 74, 0
2, 15446, Note_on_c, 0, 74, 120
2, 16820, Note_on_c, 0, 74, 0
2, 16903, Note_on_c, 0, 74, 120
2, 18396, Note_on_c, 0, 76, 120
2, 18403, Note_on_c, 0, 74, 0
2, 19823, Note_on_c, 0, 76, 0
2, 19902, Note_on_c, 0, 76, 120
2, 21426, Note_on_c, 0, 74, 120
2, 21448, Note_on_c, 0, 76, 0
2, 24566, Note_on_c, 0, 74, 0
2, 41555, Note_on_c, 0, 71, 120
2, 43061, Note_on_c, 0, 72, 120
2, 43071, Note_on_c, 0, 71, 0
2, 44482, Note_on_c, 0, 71, 120
2, 44498, Note_on_c, 0, 72, 0
2, 45981, Note_on_c, 0, 69, 120
2, 45992, Note_on_c, 0, 71, 0
2, 47482, Note_on_c, 0, 71, 120
2, 47507, Note_on_c, 0, 69, 0
2, 48957, Note_on_c, 0, 71, 0
2, 49054, Note_on_c, 0, 71, 120
2, 49177, Note_on_c, 0, 71, 0
2, 49182, Note_on_c, 0, 69, 120
2, 49291, Note_on_c, 0, 71, 120
2, 49296, Note_on_c, 0, 69, 0
2, 49395, Note_on_c, 0, 71, 0
2, 49403, Note_on_c, 0, 69, 120
2, 49497, Note_on_c, 0, 71, 120
2, 49502, Note_on_c, 0, 69, 0
2, 49588, Note_on_c, 0, 71, 0
2, 49603, Note_on_c, 0, 69, 120
2, 49696, Note_on_c, 0, 69, 0
2, 49697, Note_on_c, 0, 71, 120
2, 49787, Note_on_c, 0, 71, 0
2, 49792, Note_on_c, 0, 69, 120
2, 49865, Note_on_c, 0, 71, 120
2, 49877, Note_on_c, 0, 69, 0
2, 49952, Note_on_c, 0, 71, 0
2, 49974, Note_on_c, 0, 69, 120
2, 50029, Note_on_c, 0, 71, 120
2, 50051, Note_on_c, 0, 69, 0
2, 50115, Note_on_c, 0, 71, 0
2, 50127, Note_on_c, 0, 69, 120
2, 50193, Note_on_c, 0, 71, 120
2, 50200, Note_on_c, 0, 69, 0
2, 50273, Note_on_c, 0, 71, 0
2, 50294, Note_on_c, 0, 69, 120
2, 50334, Note_on_c, 0, 71, 120
2, 50358, Note_on_c, 0, 69, 0
2, 50420, Note_on_c, 0, 69, 120
2, 50425, Note_on_c, 0, 71, 0
2, 50481, Note_on_c, 0, 71, 120
2, 50509, Note_on_c, 0, 69, 0
2, 50573, Note_on_c, 0, 71, 0
2, 50592, Note_on_c, 0, 69, 120
2, 50642, Note_on_c, 0, 71, 120
2, 50668, Note_on_c, 0, 69, 0
2, 50737, Note_on_c, 0, 71, 0
2, 50751, Note_on_c, 0, 69, 120
2, 50823, Note_on_c, 0, 71, 120
2, 50833, Note_on_c, 0, 69, 0
2, 50905, Note_on_c, 0, 71, 0
2, 50924, Note_on_c, 0, 69, 120
2, 50996, Note_on_c, 0, 71, 120
2, 51004, Note_on_c, 0, 69, 0
2, 51098, Note_on_c, 0, 71, 0
2, 51101, Note_on_c, 0, 69, 120
2, 51185, Note_on_c, 0, 71, 120
2, 51202, Note_on_c, 0, 69, 0
2, 51280, Note_on_c, 0, 69, 120
2, 51285, Note_on_c, 0, 71, 0
2, 51360, Note_on_c, 0, 71, 120
2, 51373, Note_on_c, 0, 69, 0
2, 51436, Note_on_c, 0, 69, 120
2, 51442, Note_on_c, 0, 71, 0
2, 51484, Note_on_c, 0, 71, 120
2, 51512, Note_on_c, 0, 69, 0
2, 51563, Note_on_c, 0, 69, 120
2, 51584, Note_on_c, 0, 71, 0
2, 51807, Note_on_c, 0, 67, 120
2, 51821, Note_on_c, 0, 69, 0
2, 52008, Note_on_c, 0, 69, 120
2, 52023, Note_on_c, 0, 67, 0
2, 52214, Note_on_c, 0, 67, 120
2, 52219, Note_on_c, 0, 67, 120
2, 52229, Note_on_c, 0, 69, 0
2, 56079, Note_on_c, 0, 67, 0
2, 56846, Note_on_c, 0, 67, 0
2, 72251, Note_on_c, 0, 74, 120
2, 73729, Note_on_c, 0, 74, 0
2, 73814, Note_on_c, 0, 74, 120
2, 75188, Note_on_c, 0, 74, 0
2, 75271, Note_on_c, 0, 74, 120
2, 76764, Note_on_c, 0, 76, 120
2, 76771, Note_on_c, 0, 74, 0
2, 78191, Note_on_c, 0, 76, 0
2, 78270, Note_on_c, 0, 76, 120
2, 79794, Note_on_c, 0, 74, 120
2, 79816, Note_on_c, 0, 76, 0
2, 82934, Note_on_c, 0, 74, 0
2, 99923, Note_on_c, 0, 71, 120
2, 101429, Note_on_c, 0, 72, 120
2, 101439, Note_on_c, 0, 71, 0
2, 102850, Note_on_c, 0, 71, 120
2, 102866, Note_on_c, 0, 72, 0
2, 104349, Note_on_c, 0, 69, 120
2, 104360, Note_on_c, 0, 71, 0
2, 105850, Note_on_c, 0, 71, 120
2, 105875, Note_on_c, 0, 69, 0
2, 107325, Note_on_c, 0, 71, 0
2, 107422, Note_on_c, 0, 71, 120
2, 107545, Note_on_c, 0, 71, 0
2, 107550, Note_on_c, 0, 69, 120
2, 107659, Note_on_c, 0, 71, 120
2, 107664, Note_on_c, 0, 69, 0
2, 107763, Note_on_c, 0, 71, 0
2, 107771, Note_on_c, 0, 69, 120
2, 107865, Note_on_c, 0, 71, 120
2, 107870, Note_on_c, 0, 69, 0
2, 107956, Note_on_c, 0, 71, 0
2, 107971, Note_on_c, 0, 69, 120
2, 108064, Note_on_c, 0, 69, 0
2, 108065, Note_on_c, 0, 71, 120
2, 108155, Note_on_c, 0, 71, 0
2, 108160, Note_on_c, 0, 69, 120
2, 108233, Note_on_c, 0, 71, 120
2, 108245, Note_on_c, 0, 69, 0
2, 108320, Note_on_c, 0, 71, 0
2, 108342, Note_on_c, 0, 69, 120
2, 108397, Note_on_c, 0, 71, 120
2, 108419, Note_on_c, 0, 69, 0
2, 108483, Note_on_c, 0, 71, 0
2, 108495, Note_on_c, 0, 69, 120
2, 108561, Note_on_c, 0, 71, 120
2, 108568, Note_on_c, 0, 69, 0
2, 108641, Note_on_c, 0, 71, 0
2, 108662, Note_on_c, 0, 69, 120
2, 108702, Note_on_c, 0, 71, 120
2, 108726, Note_on_c, 0, 69, 0
2, 108788, Note_on_c, 0, 69, 120
2, 108793, Note_on_c, 0, 71, 0
2, 108849, Note_on_c, 0, 71, 120
2, 108877, Note_on_c, 0, 69, 0
2, 108941, Note_on_c, 0, 71, 0
2, 108960, Note_on_c, 0, 69, 120
2, 109010, Note_on_c, 0, 71, 120
2, 109036, Note_on_c, 0, 69, 0
2, 109105, Note_on_c, 0, 71, 0
2, 109119, Note_on_c, 0, 69, 120
2, 109191, Note_on_c, 0, 71, 120
2, 109201, Note_on_c, 0, 69, 0
2, 109273, Note_on_c, 0, 71, 0
2, 109292, Note_on_c, 0, 69, 120
2, 109364, Note_on_c, 0, 71, 120
2, 109372, Note_on_c, 0, 69, 0
2, 109466, Note_on_c, 0, 71, 0
2, 109469, Note_on_c, 0, 69, 120
2, 109553, Note_on_c, 0, 71, 120
2, 109570, Note_on_c, 0, 69, 0
2, 109648, Note_on_c, 0, 69, 120
2, 109653, Note_on_c, 0, 71, 0
2, 109728, Note_on_c, 0, 71, 120
2, 109741, Note_on_c, 0, 69, 0
2, 109804, Note_on_c, 0, 69, 120
2, 109810, Note_on_c, 0, 71, 0
2, 109852, Note_on_c, 0, 71, 120
2, 109880, Note_on_c, 0, 69, 0
2, 109931, Note_on_c, 0, 69, 120
2, 109952, Note_on_c, 0, 71, 0
2, 110175, Note_on_c, 0, 67, 120
2, 110189, Note_on_c, 0, 69, 0
2, 110376, Note_on_c, 0, 69, 120
2, 110391, Note_on_c, 0, 67, 0
2, 110582, Note_on_c, 0, 67, 120
2, 110587, Note_on_c, 0, 67, 120
2, 110597, Note_on_c, 0, 69, 0
2, 114447, Note_on_c, 0, 67, 0
2, 116735, Note_on_c, 0, 67, 0
2, 130534, Note_on_c, 0, 69, 120
2, 131827, Note_on_c, 0, 69, 0
2, 132070, Note_on_c, 0, 69, 120
2, 133343, Note_on_c, 0, 69, 0
2, 133542, Note_on_c, 0, 69, 120
2, 135086, Note_on_c, 0, 69, 0
2, 135098, Note_on_c, 0, 71, 120
2, 136516, Note_on_c, 0, 71, 0
2, 136616, Note_on_c, 0, 71, 120
2, 138170, Note_on_c, 0, 69, 120
2, 138178, Note_on_c, 0, 71, 0
2, 141250, Note_on_c, 0, 69, 0
2, 152012, Note_on_c, 0, 69, 120
2, 153530, Note_on_c, 0, 71, 120
2, 153541, Note_on_c, 0, 69, 0
2, 154704, Note_on_c, 0, 73, 120
2, 154748, Note_on_c, 0, 71, 0
2, 155090, Note_on_c, 0, 74, 120
2, 155114, Note_on_c, 0, 73, 0
2, 156325, Note_on_c, 0, 74, 0
2, 156582, Note_on_c, 0, 74, 120
2, 158077, Note_on_c, 0, 73, 120
2, 158087, Note_on_c, 0, 74, 0
2, 159602, Note_on_c, 0, 73, 0
2, 159678, Note_on_c, 0, 74, 120
2, 162803, Note_on_c, 0, 74, 0
2, 173497, Note_on_c, 0, 74, 120
2, 174921, Note_on_c, 0, 74, 0
2, 174999, Note_on_c, 0, 76, 120
2, 177322, Note_on_c, 0, 76, 0
2, 177323, Note_on_c, 0, 74, 120
2, 178101, Note_on_c, 0, 74, 0
2, 178110, Note_on_c, 0, 72, 120
2, 179669, Note_on_c, 0, 71, 120
2, 179680, Note_on_c, 0, 72, 0
2, 181223, Note_on_c, 0, 72, 120
2, 181240, Note_on_c, 0, 71, 0
2, 184276, Note_on_c, 0, 72, 0
2, 198078, Note_on_c, 0, 71, 120
2, 199650, Note_on_c, 0, 69, 120
2, 199651, Note_on_c, 0, 71, 0
2, 201121, Note_on_c, 0, 69, 0
2, 201174, Note_on_c, 0, 71, 120
2, 202613, Note_on_c, 0, 71, 0
2, 202653, Note_on_c, 0, 69, 120
2, 204118, Note_on_c, 0, 69, 0
2, 204219, Note_on_c, 0, 69, 120
2, 205625, Note_on_c, 0, 69, 0
2, 205752, Note_on_c, 0, 67, 120
2, 218235, Note_on_c, 0, 67, 0
2, 218235, End_track
3, 0, Start_track
3, 0, Title_t, "Man 8"
3, 0, MIDI_port, 0
3, 0, Control_c, 1, 7, 108
3, 0, Control_c, 1, 91, 90
3, 0, Control_c, 1, 10, 59
3, 0, Program_c, 1, 19
3, 729, Note_on_c, 1, 62, 80
3, 1381, Note_on_c, 1, 62, 0
3, 1472, Note_on_c, 1, 62, 80
3, 2118, Note_on_c, 1, 62, 0
3, 2233, Note_on_c, 1, 62, 80
3, 2233, Note_on_c, 1, 55, 80
3, 2962, Note_on_c, 1, 55, 0
3, 2981, Note_on_c, 1, 62, 0
3, 3020, Note_on_c, 1, 64, 80
3, 3033, Note_on_c, 1, 55, 80
3, 3692, Note_on_c, 1, 64, 0
3, 3717, Note_on_c, 1, 55, 0
3, 3827, Note_on_c, 1, 55, 80
3, 3833, Note_on_c, 1, 65, 80
3, 3877, Note_on_c, 1, 65, 0
3, 3878, Note_on_c, 1, 64, 80
3, 3942, Note_on_c, 1, 65, 80
3, 3974, Note_on_c, 1, 65, 0
3, 4032, Note_on_c, 1, 62, 80
3, 4044, Note_on_c, 1, 64, 0
3, 4185, Note_on_c, 1, 64, 80
3, 4204, Note_on_c, 1, 62, 0
3, 4352, Note_on_c, 1, 65, 80
3, 4364, Note_on_c, 1, 64, 0
3, 4537, Note_on_c, 1, 65, 0
3, 4543, Note_on_c, 1, 55, 0
3, 4544, Note_on_c, 1, 62, 80
3, 4544, Note_on_c, 1, 59, 80
3, 4928, Note_on_c, 1, 64, 80
3, 4934, Note_on_c, 1, 62, 0
3, 5100, Note_on_c, 1, 66, 80
3, 5139, Note_on_c, 1, 64, 0
3, 5152, Note_on_c, 1, 59, 0
3, 5299, Note_on_c, 1, 60, 80
3, 5304, Note_on_c, 1, 66, 0
3, 5305, Note_on_c, 1, 67, 80
3, 5363, Note_on_c, 1, 59, 80
3, 5414, Note_on_c, 1, 60, 0
3, 5510, Note_on_c, 1, 57, 80
3, 5516, Note_on_c, 1, 59, 0
3, 5708, Note_on_c, 1, 59, 80
3, 5734, Note_on_c, 1, 57, 0
3, 5912, Note_on_c, 1, 59, 0
3, 5913, Note_on_c, 1, 60, 80
3, 6118, Note_on_c, 1, 57, 80
3, 6124, Note_on_c, 1, 60, 0
3, 6489, Note_on_c, 1, 59, 80
3, 6495, Note_on_c, 1, 57, 0
3, 6681, Note_on_c, 1, 61, 80
3, 6687, Note_on_c, 1, 59, 0
3, 6886, Note_on_c, 1, 62, 80
3, 6892, Note_on_c, 1, 61, 0
3, 7078, Note_on_c, 1, 66, 80
3, 7090, Note_on_c, 1, 67, 0
3, 7270, Note_on_c, 1, 64, 80
3, 7276, Note_on_c, 1, 66, 0
3, 7481, Note_on_c, 1, 66, 80
3, 7500, Note_on_c, 1, 64, 0
3, 7686, Note_on_c, 1, 67, 80
3, 7698, Note_on_c, 1, 66, 0
3, 8057, Note_on_c, 1, 69, 80
3, 8063, Note_on_c, 1, 67, 0
3, 8262, Note_on_c, 1, 71, 80
3, 8274, Note_on_c, 1, 69, 0
3, 8460, Note_on_c, 1, 71, 0
3, 8467, Note_on_c, 1, 69, 80
3, 8480, Note_on_c, 1, 60, 80
3, 8505, Note_on_c, 1, 62, 0
3, 8851, Note_on_c, 1, 67, 80
3, 8870, Note_on_c, 1, 69, 0
3, 9235, Note_on_c, 1, 66, 80
3, 9241, Note_on_c, 1, 67, 0
3, 9644, Note_on_c, 1, 67, 80
3, 9663, Note_on_c, 1, 66, 0
3, 9830, Note_on_c, 1, 69, 80
3, 9842, Note_on_c, 1, 67, 0
3, 10054, Note_on_c, 1, 69, 0
3, 10054, Note_on_c, 1, 62, 80
3, 10240, Note_on_c, 1, 59, 80
3, 10272, Note_on_c, 1, 60, 0
3, 10335, Note_on_c, 1, 62, 0
3, 10451, Note_on_c, 1, 57, 80
3, 10451, Note_on_c, 1, 67, 80
3, 10457, Note_on_c, 1, 59, 0
3, 10649, Note_on_c, 1, 59, 80
3, 10681, Note_on_c, 1, 57, 0
3, 10847, Note_on_c, 1, 59, 0
3, 10848, Note_on_c, 1, 60, 80
3, 10848, Note_on_c, 1, 64, 80
3, 10860, Note_on_c, 1, 67, 0
3, 11232, Note_on_c, 1, 66, 80
3, 11238, Note_on_c, 1, 64, 0
3, 11244, Note_on_c, 1, 62, 80
3, 11251, Note_on_c, 1, 60, 0
3, 11424, Note_on_c, 1, 66, 0
3, 11430, Note_on_c, 1, 64, 80
3, 11430, Note_on_c, 1, 67, 80
3, 11442, Note_on_c, 1, 62, 0
3, 11635, Note_on_c, 1, 62, 80
3, 11635, Note_on_c, 1, 69, 80
3, 11641, Note_on_c, 1, 64, 0
3, 11654, Note_on_c, 1, 67, 0
3, 11993, Note_on_c, 1, 60, 80
3, 12006, Note_on_c, 1, 62, 0
3, 12352, Note_on_c, 1, 59, 80
3, 12370, Note_on_c, 1, 60, 0
3, 12710, Note_on_c, 1, 69, 0
3, 12716, Note_on_c, 1, 67, 80
3, 12729, Note_on_c, 1, 60, 80
3, 12748, Note_on_c, 1, 59, 0
3, 12921, Note_on_c, 1, 60, 0
3, 12921, Note_on_c, 1, 62, 80
3, 13126, Note_on_c, 1, 64, 80
3, 13126, Note_on_c, 1, 72, 80
3, 13132, Note_on_c, 1, 67, 0
3, 13138, Note_on_c, 1, 62, 0
3, 13484, Note_on_c, 1, 66, 80
3, 13516, Note_on_c, 1, 64, 0
3, 13695, Note_on_c, 1, 66, 0
3, 13696, Note_on_c, 1, 67, 80
3, 13907, Note_on_c, 1, 67, 0
3, 13907, Note_on_c, 1, 69, 80
3, 14193, Note_on_c, 1, 72, 0
3, 14252, Note_on_c, 1, 69, 0
3, 14259, Note_on_c, 1, 66, 80
3, 14259, Note_on_c, 1, 71, 80
3, 14451, Note_on_c, 1, 69, 80
3, 14463, Note_on_c, 1, 71, 0
3, 14649, Note_on_c, 1, 66, 0
3, 14649, Note_on_c, 1, 71, 80
3, 14655, Note_on_c, 1, 69, 0
3, 14656, Note_on_c, 1, 67, 80
3, 15059, Note_on_c, 1, 72, 80
3, 15065, Note_on_c, 1, 71, 0
3, 15238, Note_on_c, 1, 71, 80
3, 15257, Note_on_c, 1, 72, 0
3, 15308, Note_on_c, 1, 71, 0
3, 15449, Note_on_c, 1, 69, 80
3, 15456, Note_on_c, 1, 67, 0
3, 15827, Note_on_c, 1, 62, 80
3, 16518, Note_on_c, 1, 62, 0
3, 16561, Note_on_c, 1, 60, 80
3, 16909, Note_on_c, 1, 59, 80
3, 16925, Note_on_c, 1, 60, 0
3, 17248, Note_on_c, 1, 67, 80
3, 17273, Note_on_c, 1, 69, 0
3, 17427, Note_on_c, 1, 66, 80
3, 17440, Note_on_c, 1, 67, 0
3, 17631, Note_on_c, 1, 66, 0
3, 17632, Note_on_c, 1, 67, 80
3, 17990, Note_on_c, 1, 57, 80
3, 18041, Note_on_c, 1, 59, 0
3, 18188, Note_on_c, 1, 59, 80
3, 18214, Note_on_c, 1, 57, 0
3, 18386, Note_on_c, 1, 59, 0
3, 18387, Note_on_c, 1, 60, 80
3, 18758, Note_on_c, 1, 60, 0
3, 18758, Note_on_c, 1, 64, 80
3, 18937, Note_on_c, 1, 64, 0
3, 18937, Note_on_c, 1, 62, 80
3, 19142, Note_on_c, 1, 69, 80
3, 19154, Note_on_c, 1, 62, 0
3, 19155, Note_on_c, 1, 67, 0
3, 19155, Note_on_c, 1, 64, 80
3, 19539, Note_on_c, 1, 64, 0
3, 19545, Note_on_c, 1, 71, 80
3, 19552, Note_on_c, 1, 59, 80
3, 19558, Note_on_c, 1, 69, 0
3, 19897, Note_on_c, 1, 71, 0
3, 19910, Note_on_c, 1, 64, 80
3, 19923, Note_on_c, 1, 60, 80
3, 19948, Note_on_c, 1, 59, 0
3, 20096, Note_on_c, 1, 62, 80
3, 20114, Note_on_c, 1, 64, 0
3, 20288, Note_on_c, 1, 64, 80
3, 20307, Note_on_c, 1, 62, 0
3, 20467, Note_on_c, 1, 66, 80
3, 20492, Note_on_c, 1, 64, 0
3, 20659, Note_on_c, 1, 66, 0
3, 20665, Note_on_c, 1, 67, 80
3, 21049, Note_on_c, 1, 67, 0
3, 21062, Note_on_c, 1, 64, 80
3, 21433, Note_on_c, 1, 69, 80
3, 21452, Note_on_c, 1, 64, 0
3, 21817, Note_on_c, 1, 67, 80
3, 21836, Note_on_c, 1, 69, 0
3, 21996, Note_on_c, 1, 66, 80
3, 22009, Note_on_c, 1, 67, 0
3, 22207, Note_on_c, 1, 66, 0
3, 22208, Note_on_c, 1, 67, 80
3, 22208, Note_on_c, 1, 59, 80
3, 22227, Note_on_c, 1, 60, 0
3, 22598, Note_on_c, 1, 60, 80
3, 22624, Note_on_c, 1, 59, 0
3, 22796, Note_on_c, 1, 59, 80
3, 22828, Note_on_c, 1, 60, 0
3, 22988, Note_on_c, 1, 57, 80
3, 23000, Note_on_c, 1, 59, 0
3, 23385, Note_on_c, 1, 55, 80
3, 23416, Note_on_c, 1, 57, 0
3, 23756, Note_on_c, 1, 66, 80
3, 23763, Note_on_c, 1, 57, 80
3, 23776, Note_on_c, 1, 67, 0
3, 23781, Note_on_c, 1, 55, 0
3, 24134, Note_on_c, 1, 59, 80
3, 24172, Note_on_c, 1, 57, 0
3, 24313, Note_on_c, 1, 60, 80
3, 24319, Note_on_c, 1, 59, 0
3, 24524, Note_on_c, 1, 67, 80
3, 24524, Note_on_c, 1, 59, 80
3, 24530, Note_on_c, 1, 60, 0
3, 24536, Note_on_c, 1, 66, 0
3, 25029, Note_on_c, 1, 59, 0
3, 25221, Note_on_c, 1, 67, 0
3, 25312, Note_on_c, 1, 59, 80
3, 25715, Note_on_c, 1, 71, 80
3, 26079, Note_on_c, 1, 71, 0
3, 26092, Note_on_c, 1, 64, 80
3, 26099, Note_on_c, 1, 60, 80
3, 26112, Note_on_c, 1, 59, 0
3, 26437, Note_on_c, 1, 64, 0
3, 26451, Note_on_c, 1, 69, 80
3, 26743, Note_on_c, 1, 69, 0
3, 26816, Note_on_c, 1, 62, 80
3, 26816, Note_on_c, 1, 59, 80
3, 26847, Note_on_c, 1, 60, 0
3, 27206, Note_on_c, 1, 62, 0
3, 27206, Note_on_c, 1, 67, 80
3, 27577, Note_on_c, 1, 57, 80
3, 27596, Note_on_c, 1, 59, 0
3, 27890, Note_on_c, 1, 67, 0
3, 27974, Note_on_c, 1, 66, 80
3, 28345, Note_on_c, 1, 59, 80
3, 28383, Note_on_c, 1, 57, 0
3, 28722, Note_on_c, 1, 66, 0
3, 28723, Note_on_c, 1, 64, 80
3, 29120, Note_on_c, 1, 57, 80
3, 29138, Note_on_c, 1, 59, 0
3, 29510, Note_on_c, 1, 63, 80
3, 29542, Note_on_c, 1, 64, 0
3, 29708, Note_on_c, 1, 61, 80
3, 29721, Note_on_c, 1, 63, 0
3, 29907, Note_on_c, 1, 63, 80
3, 29944, Note_on_c, 1, 61, 0
3, 30099, Note_on_c, 1, 64, 80
3, 30111, Note_on_c, 1, 63, 0
3, 30297, Note_on_c, 1, 61, 80
3, 30303, Note_on_c, 1, 64, 0
3, 30470, Note_on_c, 1, 63, 80
3, 30482, Note_on_c, 1, 61, 0
3, 30662, Note_on_c, 1, 63, 0
3, 30668, Note_on_c, 1, 64, 80
3, 30681, Note_on_c, 1, 55, 80
3, 30707, Note_on_c, 1, 57, 0
3, 30867, Note_on_c, 1, 57, 80
3, 30873, Note_on_c, 1, 66, 80
3, 30879, Note_on_c, 1, 55, 0
3, 30885, Note_on_c, 1, 64, 0
3, 31058, Note_on_c, 1, 66, 0
3, 31059, Note_on_c, 1, 59, 80
3, 31065, Note_on_c, 1, 67, 80
3, 31071, Note_on_c, 1, 57, 0
3, 31264, Note_on_c, 1, 61, 80
3, 31270, Note_on_c, 1, 59, 0
3, 31462, Note_on_c, 1, 61, 0
3, 31468, Note_on_c, 1, 66, 80
3, 31475, Note_on_c, 1, 62, 80
3, 31493, Note_on_c, 1, 67, 0
3, 32146, Note_on_c, 1, 66, 0
3, 32160, Note_on_c, 1, 64, 80
3, 32588, Note_on_c, 1, 61, 80
3, 32620, Note_on_c, 1, 62, 0
3, 32998, Note_on_c, 1, 66, 80
3, 33017, Note_on_c, 1, 64, 0
3, 33190, Note_on_c, 1, 58, 80
3, 33215, Note_on_c, 1, 61, 0
3, 33382, Note_on_c, 1, 59, 80
3, 33426, Note_on_c, 1, 58, 0
3, 33554, Note_on_c, 1, 59, 0
3, 33574, Note_on_c, 1, 62, 80
3, 33785, Note_on_c, 1, 62, 0
3, 33785, Note_on_c, 1, 56, 80
3, 33785, Note_on_c, 1, 64, 80
3, 33791, Note_on_c, 1, 66, 0
3, 34150, Note_on_c, 1, 58, 80
3, 34162, Note_on_c, 1, 56, 0
3, 34335, Note_on_c, 1, 58, 0
3, 34342, Note_on_c, 1, 59, 80
3, 34528, Note_on_c, 1, 58, 80
3, 34534, Note_on_c, 1, 59, 0
3, 34720, Note_on_c, 1, 58, 0
3, 34720, Note_on_c, 1, 59, 80
3, 34912, Note_on_c, 1, 56, 80
3, 34918, Note_on_c, 1, 59, 0
3, 35091, Note_on_c, 1, 58, 80
3, 35116, Note_on_c, 1, 56, 0
3, 35263, Note_on_c, 1, 58, 0
3, 35283, Note_on_c, 1, 59, 80
3, 35283, Note_on_c, 1, 62, 80
3, 35295, Note_on_c, 1, 64, 0
3, 35481, Note_on_c, 1, 54, 80
3, 35487, Note_on_c, 1, 59, 0
3, 35673, Note_on_c, 1, 54, 0
3, 35673, Note_on_c, 1, 59, 80
3, 35859, Note_on_c, 1, 57, 80
3, 35884, Note_on_c, 1, 59, 0
3, 36038, Note_on_c, 1, 55, 80
3, 36070, Note_on_c, 1, 57, 0
3, 36076, Note_on_c, 1, 62, 0
3, 36243, Note_on_c, 1, 62, 80
3, 36441, Note_on_c, 1, 67, 80
3, 36447, Note_on_c, 1, 62, 0
3, 36627, Note_on_c, 1, 66, 80
3, 36633, Note_on_c, 1, 67, 0
3, 36819, Note_on_c, 1, 66, 0
3, 36819, Note_on_c, 1, 64, 80
3, 37017, Note_on_c, 1, 52, 80
3, 37049, Note_on_c, 1, 55, 0
3, 37215, Note_on_c, 1, 52, 0
3, 37216, Note_on_c, 1, 57, 80
3, 37407, Note_on_c, 1, 64, 0
3, 37408, Note_on_c, 1, 72, 80
3, 37536, Note_on_c, 1, 72, 0
3, 37612, Note_on_c, 1, 62, 80
3, 37797, Note_on_c, 1, 62, 0
3, 37804, Note_on_c, 1, 60, 80
3, 37976, Note_on_c, 1, 60, 0
3, 38003, Note_on_c, 1, 62, 80
3, 38009, Note_on_c, 1, 55, 80
3, 38041, Note_on_c, 1, 57, 0
3, 38201, Note_on_c, 1, 64, 80
3, 38214, Note_on_c, 1, 62, 0
3, 38393, Note_on_c, 1, 64, 0
3, 38400, Note_on_c, 1, 60, 80
3, 38598, Note_on_c, 1, 60, 0
3, 38598, Note_on_c, 1, 64, 80
3, 38783, Note_on_c, 1, 64, 0
3, 38784, Note_on_c, 1, 62, 80
3, 38790, Note_on_c, 1, 54, 80
3, 38815, Note_on_c, 1, 55, 0
3, 38988, Note_on_c, 1, 62, 0
3, 38995, Note_on_c, 1, 60, 80
3, 39193, Note_on_c, 1, 60, 0
3, 39193, Note_on_c, 1, 62, 80
3, 39385, Note_on_c, 1, 60, 80
3, 39404, Note_on_c, 1, 62, 0
3, 39577, Note_on_c, 1, 60, 0
3, 39577, Note_on_c, 1, 59, 80
3, 39584, Note_on_c, 1, 55, 80
3, 39609, Note_on_c, 1, 54, 0
3, 39763, Note_on_c, 1, 62, 80
3, 39769, Note_on_c, 1, 59, 0
3, 39833, Note_on_c, 1, 62, 0
3, 39980, Note_on_c, 1, 60, 80
3, 40357, Note_on_c, 1, 60, 0
3, 40364, Note_on_c, 1, 69, 80
3, 40371, Note_on_c, 1, 54, 80
3, 40396, Note_on_c, 1, 55, 0
3, 40569, Note_on_c, 1, 52, 80
3, 40588, Note_on_c, 1, 54, 0
3, 40774, Note_on_c, 1, 54, 80
3, 40812, Note_on_c, 1, 52, 0
3, 41100, Note_on_c, 1, 69, 0
3, 41152, Note_on_c, 1, 60, 80
3, 41536, Note_on_c, 1, 55, 80
3, 41536, Note_on_c, 1, 59, 80
3, 41548, Note_on_c, 1, 60, 0
3, 41554, Note_on_c, 1, 54, 0
3, 41900, Note_on_c, 1, 60, 80
3, 41926, Note_on_c, 1, 59, 0
3, 42092, Note_on_c, 1, 62, 80
3, 42111, Note_on_c, 1, 60, 0
3, 42277, Note_on_c, 1, 62, 0
3, 42291, Note_on_c, 1, 64, 80
3, 42624, Note_on_c, 1, 54, 80
3, 42643, Note_on_c, 1, 55, 0
3, 42809, Note_on_c, 1, 55, 80
3, 42822, Note_on_c, 1, 54, 0
3, 42988, Note_on_c, 1, 57, 80
3, 42994, Note_on_c, 1, 55, 0
3, 43359, Note_on_c, 1, 64, 0
3, 43360, Note_on_c, 1, 62, 80
3, 43552, Note_on_c, 1, 64, 80
3, 43571, Note_on_c, 1, 62, 0
3, 43763, Note_on_c, 1, 64, 0
3, 43763, Note_on_c, 1, 66, 80
3, 44095, Note_on_c, 1, 66, 0
3, 44108, Note_on_c, 1, 64, 80
3, 44108, Note_on_c, 1, 55, 80
3, 44120, Note_on_c, 1, 57, 0
3, 44294, Note_on_c, 1, 57, 80
3, 44294, Note_on_c, 1, 66, 80
3, 44306, Note_on_c, 1, 64, 0
3, 44325, Note_on_c, 1, 55, 0
3, 44518, Note_on_c, 1, 67, 80
3, 44518, Note_on_c, 1, 59, 80
3, 44524, Note_on_c, 1, 57, 0
3, 44537, Note_on_c, 1, 66, 0
3, 44857, Note_on_c, 1, 60, 80
3, 44876, Note_on_c, 1, 59, 0
3, 45049, Note_on_c, 1, 62, 80
3, 45055, Note_on_c, 1, 60, 0
3, 45247, Note_on_c, 1, 62, 0
3, 45248, Note_on_c, 1, 64, 80
3, 45625, Note_on_c, 1, 62, 80
3, 45625, Note_on_c, 1, 66, 80
3, 45632, Note_on_c, 1, 64, 0
3, 45663, Note_on_c, 1, 67, 0
3, 46002, Note_on_c, 1, 66, 0
3, 46015, Note_on_c, 1, 62, 0
3, 46016, Note_on_c, 1, 64, 80
3, 46016, Note_on_c, 1, 60, 80
3, 46764, Note_on_c, 1, 62, 80
3, 46784, Note_on_c, 1, 64, 0
3, 47520, Note_on_c, 1, 59, 80
3, 47545, Note_on_c, 1, 60, 0
3, 47910, Note_on_c, 1, 64, 80
3, 47941, Note_on_c, 1, 62, 0
3, 48102, Note_on_c, 1, 66, 80
3, 48134, Note_on_c, 1, 64, 0
3, 48300, Note_on_c, 1, 66, 0
3, 48313, Note_on_c, 1, 67, 80
3, 48684, Note_on_c, 1, 60, 80
3, 48697, Note_on_c, 1, 59, 0
3, 48889, Note_on_c, 1, 62, 80
3, 48901, Note_on_c, 1, 60, 0
3, 49088, Note_on_c, 1, 64, 80
3, 49093, Note_on_c, 1, 62, 0
3, 49286, Note_on_c, 1, 69, 80
3, 49305, Note_on_c, 1, 67, 0
3, 49478, Note_on_c, 1, 67, 80
3, 49490, Note_on_c, 1, 69, 0
3, 49670, Note_on_c, 1, 66, 80
3, 49689, Note_on_c, 1, 67, 0
3, 49862, Note_on_c, 1, 66, 0
3, 49868, Note_on_c, 1, 67, 80
3, 49900, Note_on_c, 1, 64, 0
3, 50240, Note_on_c, 1, 64, 80
3, 50630, Note_on_c, 1, 57, 80
3, 50656, Note_on_c, 1, 64, 0
3, 50661, Note_on_c, 1, 67, 0
3, 50828, Note_on_c, 1, 67, 80
3, 51039, Note_on_c, 1, 57, 0
3, 51040, Note_on_c, 1, 62, 80
3, 51046, Note_on_c, 1, 66, 80
3, 51064, Note_on_c, 1, 67, 0
3, 51244, Note_on_c, 1, 64, 80
3, 51250, Note_on_c, 1, 66, 0
3, 51436, Note_on_c, 1, 64, 0
3, 51456, Note_on_c, 1, 66, 80
3, 51616, Note_on_c, 1, 62, 0
3, 51820, Note_on_c, 1, 60, 80
3, 52204, Note_on_c, 1, 59, 80
3, 52210, Note_on_c, 1, 60, 0
3, 52256, Note_on_c, 1, 66, 0
3, 52384, Note_on_c, 1, 66, 80
3, 52576, Note_on_c, 1, 64, 80
3, 52582, Note_on_c, 1, 66, 0
3, 52768, Note_on_c, 1, 64, 0
3, 52774, Note_on_c, 1, 63, 80
3, 52959, Note_on_c, 1, 63, 0
3, 52960, Note_on_c, 1, 64, 80
3, 53145, Note_on_c, 1, 57, 80
3, 53164, Note_on_c, 1, 59, 0
3, 53350, Note_on_c, 1, 59, 80
3, 53381, Note_on_c, 1, 57, 0
3, 53529, Note_on_c, 1, 60, 80
3, 53554, Note_on_c, 1, 59, 0
3, 53715, Note_on_c, 1, 64, 0
3, 53721, Note_on_c, 1, 62, 80
3, 53740, Note_on_c, 1, 60, 0
3, 53913, Note_on_c, 1, 60, 80
3, 54099, Note_on_c, 1, 59, 80
3, 54105, Note_on_c, 1, 60, 0
3, 54271, Note_on_c, 1, 59, 0
3, 54278, Note_on_c, 1, 57, 80
3, 54476, Note_on_c, 1, 57, 0
3, 54489, Note_on_c, 1, 55, 80
3, 54527, Note_on_c, 1, 62, 0
3, 54675, Note_on_c, 1, 53, 80
3, 54693, Note_on_c, 1, 55, 0
3, 54873, Note_on_c, 1, 52, 80
3, 54879, Note_on_c, 1, 53, 0
3, 55046, Note_on_c, 1, 50, 80
3, 55058, Note_on_c, 1, 52, 0
3, 55244, Note_on_c, 1, 50, 0
3, 55244, Note_on_c, 1, 52, 80
3, 55628, Note_on_c, 1, 55, 80
3, 55980, Note_on_c, 1, 57, 80
3, 55992, Note_on_c, 1, 55, 0
3, 56005, Note_on_c, 1, 52, 0
3, 56364, Note_on_c, 1, 59, 80
3, 56371, Note_on_c, 1, 50, 80
3, 56389, Note_on_c, 1, 57, 0
3, 56575, Note_on_c, 1, 59, 0
3, 56620, Note_on_c, 1, 50, 0
3, 56774, Note_on_c, 1, 60, 80
3, 56774, Note_on_c, 1, 52, 80
3, 57106, Note_on_c, 1, 60, 0
3, 57152, Note_on_c, 1, 54, 80
3, 57152, Note_on_c, 1, 62, 80
3, 57170, Note_on_c, 1, 52, 0
3, 57516, Note_on_c, 1, 62, 0
3, 57523, Note_on_c, 1, 64, 80
3, 57529, Note_on_c, 1, 55, 80
3, 57542, Note_on_c, 1, 54, 0
3, 57913, Note_on_c, 1, 64, 0
3, 57913, Note_on_c, 1, 66, 80
3, 57913, Note_on_c, 1, 57, 80
3, 57919, Note_on_c, 1, 55, 0
3, 58085, Note_on_c, 1, 57, 0
3, 58098, Note_on_c, 1, 66, 0
3, 58310, Note_on_c, 1, 59, 80
3, 58316, Note_on_c, 1, 67, 80
3, 59026, Note_on_c, 1, 67, 0
3, 59058, Note_on_c, 1, 59, 0
3, 59097, Note_on_c, 1, 62, 80
3, 59749, Note_on_c, 1, 62, 0
3, 59840, Note_on_c, 1, 62, 80
3, 60486, Note_on_c, 1, 62, 0
3, 60601, Note_on_c, 1, 62, 80
3, 60601, Note_on_c, 1, 55, 80
3, 61330, Note_on_c, 1, 55, 0
3, 61349, Note_on_c, 1, 62, 0
3, 61388, Note_on_c, 1, 64, 80
3, 61401, Note_on_c, 1, 55, 80
3, 62060, Note_on_c, 1, 64, 0
3, 62085, Note_on_c, 1, 55, 0
3, 62195, Note_on_c, 1, 55, 80
3, 62201, Note_on_c, 1, 65, 80
3, 62245, Note_on_c, 1, 65, 0
3, 62246, Note_on_c, 1, 64, 80
3, 62310, Note_on_c, 1, 65, 80
3, 62342, Note_on_c, 1, 65, 0
3, 62400, Note_on_c, 1, 62, 80
3, 62412, Note_on_c, 1, 64, 0
3, 62553, Note_on_c, 1, 64, 80
3, 62572, Note_on_c, 1, 62, 0
3, 62720, Note_on_c, 1, 65, 80
3, 62732, Note_on_c, 1, 64, 0
3, 62905, Note_on_c, 1, 65, 0
3, 62911, Note_on_c, 1, 55, 0
3, 62912, Note_on_c, 1, 62, 80
3, 62912, Note_on_c, 1, 59, 80
3, 63296, Note_on_c, 1, 64, 80
3, 63302, Note_on_c, 1, 62, 0
3, 63468, Note_on_c, 1, 66, 80
3, 63507, Note_on_c, 1, 64, 0
3, 63520, Note_on_c, 1, 59, 0
3, 63667, Note_on_c, 1, 60, 80
3, 63672, Note_on_c, 1, 66, 0
3, 63673, Note_on_c, 1, 67, 80
3, 63731, Note_on_c, 1, 59, 80
3, 63782, Note_on_c, 1, 60, 0
3, 63878, Note_on_c, 1, 57, 80
3, 63884, Note_on_c, 1, 59, 0
3, 64076, Note_on_c, 1, 59, 80
3, 64102, Note_on_c, 1, 57, 0
3, 64280, Note_on_c, 1, 59, 0
3, 64281, Note_on_c, 1, 60, 80
3, 64486, Note_on_c, 1, 57, 80
3, 64492, Note_on_c, 1, 60, 0
3, 64857, Note_on_c, 1, 59, 80
3, 64863, Note_on_c, 1, 57, 0
3, 65049, Note_on_c, 1, 61, 80
3, 65055, Note_on_c, 1, 59, 0
3, 65254, Note_on_c, 1, 62, 80
3, 65260, Note_on_c, 1, 61, 0
3, 65446, Note_on_c, 1, 66, 80
3, 65458, Note_on_c, 1, 67, 0
3, 65638, Note_on_c, 1, 64, 80
3, 65644, Note_on_c, 1, 66, 0
3, 65849, Note_on_c, 1, 66, 80
3, 65868, Note_on_c, 1, 64, 0
3, 66054, Note_on_c, 1, 67, 80
3, 66066, Note_on_c, 1, 66, 0
3, 66425, Note_on_c, 1, 69, 80
3, 66431, Note_on_c, 1, 67, 0
3, 66630, Note_on_c, 1, 71, 80
3, 66642, Note_on_c, 1, 69, 0
3, 66828, Note_on_c, 1, 71, 0
3, 66835, Note_on_c, 1, 69, 80
3, 66848, Note_on_c, 1, 60, 80
3, 66873, Note_on_c, 1, 62, 0
3, 67219, Note_on_c, 1, 67, 80
3, 67238, Note_on_c, 1, 69, 0
3, 67603, Note_on_c, 1, 66, 80
3, 67609, Note_on_c, 1, 67, 0
3, 68012, Note_on_c, 1, 67, 80
3, 68031, Note_on_c, 1, 66, 0
3, 68198, Note_on_c, 1, 69, 80
3, 68210, Note_on_c, 1, 67, 0
3, 68422, Note_on_c, 1, 69, 0
3, 68422, Note_on_c, 1, 62, 80
3, 68608, Note_on_c, 1, 59, 80
3, 68640, Note_on_c, 1, 60, 0
3, 68703, Note_on_c, 1, 62, 0
3, 68819, Note_on_c, 1, 57, 80
3, 68819, Note_on_c, 1, 67, 80
3, 68825, Note_on_c, 1, 59, 0
3, 69017, Note_on_c, 1, 59, 80
3, 69049, Note_on_c, 1, 57, 0
3, 69215, Note_on_c, 1, 59, 0
3, 69216, Note_on_c, 1, 60, 80
3, 69216, Note_on_c, 1, 64, 80
3, 69228, Note_on_c, 1, 67, 0
3, 69600, Note_on_c, 1, 66, 80
3, 69606, Note_on_c, 1, 64, 0
3, 69612, Note_on_c, 1, 62, 80
3, 69619, Note_on_c, 1, 60, 0
3, 69792, Note_on_c, 1, 66, 0
3, 69798, Note_on_c, 1, 64, 80
3, 69798, Note_on_c, 1, 67, 80
3, 69810, Note_on_c, 1, 62, 0
3, 70003, Note_on_c, 1, 62, 80
3, 70003, Note_on_c, 1, 69, 80
3, 70009, Note_on_c, 1, 64, 0
3, 70022, Note_on_c, 1, 67, 0
3, 70361, Note_on_c, 1, 60, 80
3, 70374, Note_on_c, 1, 62, 0
3, 70720, Note_on_c, 1, 59, 80
3, 70738, Note_on_c, 1, 60, 0
3, 71078, Note_on_c, 1, 69, 0
3, 71084, Note_on_c, 1, 67, 80
3, 71097, Note_on_c, 1, 60, 80
3, 71116, Note_on_c, 1, 59, 0
3, 71289, Note_on_c, 1, 60, 0
3, 71289, Note_on_c, 1, 62, 80
3, 71494, Note_on_c, 1, 64, 80
3, 71494, Note_on_c, 1, 72, 80
3, 71500, Note_on_c, 1, 67, 0
3, 71506, Note_on_c, 1, 62, 0
3, 71852, Note_on_c, 1, 66, 80
3, 71884, Note_on_c, 1, 64, 0
3, 72063, Note_on_c, 1, 66, 0
3, 72064, Note_on_c, 1, 67, 80
3, 72275, Note_on_c, 1, 67, 0
3, 72275, Note_on_c, 1, 69, 80
3, 72561, Note_on_c, 1, 72, 0
3, 72620, Note_on_c, 1, 69, 0
3, 72627, Note_on_c, 1, 66, 80
3, 72627, Note_on_c, 1, 71, 80
3, 72819, Note_on_c, 1, 69, 80
3, 72831, Note_on_c, 1, 71, 0
3, 73017, Note_on_c, 1, 66, 0
3, 73017, Note_on_c, 1, 71, 80
3, 73023, Note_on_c, 1, 69, 0
3, 73024, Note_on_c, 1, 67, 80
3, 73427, Note_on_c, 1, 72, 80
3, 73433, Note_on_c, 1, 71, 0
3, 73606, Note_on_c, 1, 71, 80
3, 73625, Note_on_c, 1, 72, 0
3, 73676, Note_on_c, 1, 71, 0
3, 73817, Note_on_c, 1, 69, 80
3, 73824, Note_on_c, 1, 67, 0
3, 74195, Note_on_c, 1, 62, 80
3, 74886, Note_on_c, 1, 62, 0
3, 74929, Note_on_c, 1, 60, 80
3, 75277, Note_on_c, 1, 59, 80
3, 75293, Note_on_c, 1, 60, 0
3, 75616, Note_on_c, 1, 67, 80
3, 75641, Note_on_c, 1, 69, 0
3, 75795, Note_on_c, 1, 66, 80
3, 75808, Note_on_c, 1, 67, 0
3, 75999, Note_on_c, 1, 66, 0
3, 76000, Note_on_c, 1, 67, 80
3, 76358, Note_on_c, 1, 57, 80
3, 76409, Note_on_c, 1, 59, 0
3, 76556, Note_on_c, 1, 59, 80
3, 76582, Note_on_c, 1, 57, 0
3, 76754, Note_on_c, 1, 59, 0
3, 76755, Note_on_c, 1, 60, 80
3, 77126, Note_on_c, 1, 60, 0
3, 77126, Note_on_c, 1, 64, 80
3, 77305, Note_on_c, 1, 64, 0
3, 77305, Note_on_c, 1, 62, 80
3, 77510, Note_on_c, 1, 69, 80
3, 77522, Note_on_c, 1, 62, 0
3, 77523, Note_on_c, 1, 67, 0
3, 77523, Note_on_c, 1, 64, 80
3, 77907, Note_on_c, 1, 64, 0
3, 77913, Note_on_c, 1, 71, 80
3, 77920, Note_on_c, 1, 59, 80
3, 77926, Note_on_c, 1, 69, 0
3, 78265, Note_on_c, 1, 71, 0
3, 78278, Note_on_c, 1, 64, 80
3, 78291, Note_on_c, 1, 60, 80
3, 78316, Note_on_c, 1, 59, 0
3, 78464, Note_on_c, 1, 62, 80
3, 78482, Note_on_c, 1, 64, 0
3, 78656, Note_on_c, 1, 64, 80
3, 78675, Note_on_c, 1, 62, 0
3, 78835, Note_on_c, 1, 66, 80
3, 78860, Note_on_c, 1, 64, 0
3, 79027, Note_on_c, 1, 66, 0
3, 79033, Note_on_c, 1, 67, 80
3, 79417, Note_on_c, 1, 67, 0
3, 79430, Note_on_c, 1, 64, 80
3, 79801, Note_on_c, 1, 69, 80
3, 79820, Note_on_c, 1, 64, 0
3, 80185, Note_on_c, 1, 67, 80
3, 80204, Note_on_c, 1, 69, 0
3, 80364, Note_on_c, 1, 66, 80
3, 80377, Note_on_c, 1, 67, 0
3, 80575, Note_on_c, 1, 66, 0
3, 80576, Note_on_c, 1, 67, 80
3, 80576, Note_on_c, 1, 59, 80
3, 80595, Note_on_c, 1, 60, 0
3, 80966, Note_on_c, 1, 60, 80
3, 80992, Note_on_c, 1, 59, 0
3, 81164, Note_on_c, 1, 59, 80
3, 81196, Note_on_c, 1, 60, 0
3, 81356, Note_on_c, 1, 57, 80
3, 81368, Note_on_c, 1, 59, 0
3, 81753, Note_on_c, 1, 55, 80
3, 81784, Note_on_c, 1, 57, 0
3, 82124, Note_on_c, 1, 66, 80
3, 82131, Note_on_c, 1, 57, 80
3, 82144, Note_on_c, 1, 67, 0
3, 82149, Note_on_c, 1, 55, 0
3, 82502, Note_on_c, 1, 59, 80
3, 82540, Note_on_c, 1, 57, 0
3, 82681, Note_on_c, 1, 60, 80
3, 82687, Note_on_c, 1, 59, 0
3, 82892, Note_on_c, 1, 67, 80
3, 82892, Note_on_c, 1, 59, 80
3, 82898, Note_on_c, 1, 60, 0
3, 82904, Note_on_c, 1, 66, 0
3, 83397, Note_on_c, 1, 59, 0
3, 83589, Note_on_c, 1, 67, 0
3, 83680, Note_on_c, 1, 59, 80
3, 84083, Note_on_c, 1, 71, 80
3, 84447, Note_on_c, 1, 71, 0
3, 84460, Note_on_c, 1, 64, 80
3, 84467, Note_on_c, 1, 60, 80
3, 84480, Note_on_c, 1, 59, 0
3, 84805, Note_on_c, 1, 64, 0
3, 84819, Note_on_c, 1, 69, 80
3, 85111, Note_on_c, 1, 69, 0
3, 85184, Note_on_c, 1, 62, 80
3, 85184, Note_on_c, 1, 59, 80
3, 85215, Note_on_c, 1, 60, 0
3, 85574, Note_on_c, 1, 62, 0
3, 85574, Note_on_c, 1, 67, 80
3, 85945, Note_on_c, 1, 57, 80
3, 85964, Note_on_c, 1, 59, 0
3, 86258, Note_on_c, 1, 67, 0
3, 86342, Note_on_c, 1, 66, 80
3, 86713, Note_on_c, 1, 59, 80
3, 86751, Note_on_c, 1, 57, 0
3, 87090, Note_on_c, 1, 66, 0
3, 87091, Note_on_c, 1, 64, 80
3, 87488, Note_on_c, 1, 57, 80
3, 87506, Note_on_c, 1, 59, 0
3, 87878, Note_on_c, 1, 63, 80
3, 87910, Note_on_c, 1, 64, 0
3, 88076, Note_on_c, 1, 61, 80
3, 88089, Note_on_c, 1, 63, 0
3, 88275, Note_on_c, 1, 63, 80
3, 88312, Note_on_c, 1, 61, 0
3, 88467, Note_on_c, 1, 64, 80
3, 88479, Note_on_c, 1, 63, 0
3, 88665, Note_on_c, 1, 61, 80
3, 88671, Note_on_c, 1, 64, 0
3, 88838, Note_on_c, 1, 63, 80
3, 88850, Note_on_c, 1, 61, 0
3, 89030, Note_on_c, 1, 63, 0
3, 89036, Note_on_c, 1, 64, 80
3, 89049, Note_on_c, 1, 55, 80
3, 89075, Note_on_c, 1, 57, 0
3, 89235, Note_on_c, 1, 57, 80
3, 89241, Note_on_c, 1, 66, 80
3, 89247, Note_on_c, 1, 55, 0
3, 89253, Note_on_c, 1, 64, 0
3, 89426, Note_on_c, 1, 66, 0
3, 89427, Note_on_c, 1, 59, 80
3, 89433, Note_on_c, 1, 67, 80
3, 89439, Note_on_c, 1, 57, 0
3, 89632, Note_on_c, 1, 61, 80
3, 89638, Note_on_c, 1, 59, 0
3, 89830, Note_on_c, 1, 61, 0
3, 89836, Note_on_c, 1, 66, 80
3, 89843, Note_on_c, 1, 62, 80
3, 89861, Note_on_c, 1, 67, 0
3, 90514, Note_on_c, 1, 66, 0
3, 90528, Note_on_c, 1, 64, 80
3, 90956, Note_on_c, 1, 61, 80
3, 90988, Note_on_c, 1, 62, 0
3, 91366, Note_on_c, 1, 66, 80
3, 91385, Note_on_c, 1, 64, 0
3, 91558, Note_on_c, 1, 58, 80
3, 91583, Note_on_c, 1, 61, 0
3, 91750, Note_on_c, 1, 59, 80
3, 91794, Note_on_c, 1, 58, 0
3, 91922, Note_on_c, 1, 59, 0
3, 91942, Note_on_c, 1, 62, 80
3, 92153, Note_on_c, 1, 62, 0
3, 92153, Note_on_c, 1, 56, 80
3, 92153, Note_on_c, 1, 64, 80
3, 92159, Note_on_c, 1, 66, 0
3, 92518, Note_on_c, 1, 58, 80
3, 92530, Note_on_c, 1, 56, 0
3, 92703, Note_on_c, 1, 58, 0
3, 92710, Note_on_c, 1, 59, 80
3, 92896, Note_on_c, 1, 58, 80
3, 92902, Note_on_c, 1, 59, 0
3, 93088, Note_on_c, 1, 58, 0
3, 93088, Note_on_c, 1, 59, 80
3, 93280, Note_on_c, 1, 56, 80
3, 93286, Note_on_c, 1, 59, 0
3, 93459, Note_on_c, 1, 58, 80
3, 93484, Note_on_c, 1, 56, 0
3, 93631, Note_on_c, 1, 58, 0
3, 93651, Note_on_c, 1, 59, 80
3, 93651, Note_on_c, 1, 62, 80
3, 93663, Note_on_c, 1, 64, 0
3, 93849, Note_on_c, 1, 54, 80
3, 93855, Note_on_c, 1, 59, 0
3, 94041, Note_on_c, 1, 54, 0
3, 94041, Note_on_c, 1, 59, 80
3, 94227, Note_on_c, 1, 57, 80
3, 94252, Note_on_c, 1, 59, 0
3, 94406, Note_on_c, 1, 55, 80
3, 94438, Note_on_c, 1, 57, 0
3, 94444, Note_on_c, 1, 62, 0
3, 94611, Note_on_c, 1, 62, 80
3, 94809, Note_on_c, 1, 67, 80
3, 94815, Note_on_c, 1, 62, 0
3, 94995, Note_on_c, 1, 66, 80
3, 95001, Note_on_c, 1, 67, 0
3, 95187, Note_on_c, 1, 66, 0
3, 95187, Note_on_c, 1, 64, 80
3, 95385, Note_on_c, 1, 52, 80
3, 95417, Note_on_c, 1, 55, 0
3, 95583, Note_on_c, 1, 52, 0
3, 95584, Note_on_c, 1, 57, 80
3, 95775, Note_on_c, 1, 64, 0
3, 95776, Note_on_c, 1, 72, 80
3, 95904, Note_on_c, 1, 72, 0
3, 95980, Note_on_c, 1, 62, 80
3, 96165, Note_on_c, 1, 62, 0
3, 96172, Note_on_c, 1, 60, 80
3, 96344, Note_on_c, 1, 60, 0
3, 96371, Note_on_c, 1, 62, 80
3, 96377, Note_on_c, 1, 55, 80
3, 96409, Note_on_c, 1, 57, 0
3, 96569, Note_on_c, 1, 64, 80
3, 96582, Note_on_c, 1, 62, 0
3, 96761, Note_on_c, 1, 64, 0
3, 96768, Note_on_c, 1, 60, 80
3, 96966, Note_on_c, 1, 60, 0
3, 96966, Note_on_c, 1, 64, 80
3, 97151, Note_on_c, 1, 64, 0
3, 97152, Note_on_c, 1, 62, 80
3, 97158, Note_on_c, 1, 54, 80
3, 97183, Note_on_c, 1, 55, 0
3, 97356, Note_on_c, 1, 62, 0
3, 97363, Note_on_c, 1, 60, 80
3, 97561, Note_on_c, 1, 60, 0
3, 97561, Note_on_c, 1, 62, 80
3, 97753, Note_on_c, 1, 60, 80
3, 97772, Note_on_c, 1, 62, 0
3, 97945, Note_on_c, 1, 60, 0
3, 97945, Note_on_c, 1, 59, 80
3, 97952, Note_on_c, 1, 55, 80
3, 97977, Note_on_c, 1, 54, 0
3, 98131, Note_on_c, 1, 62, 80
3, 98137, Note_on_c, 1, 59, 0
3, 98201, Note_on_c, 1, 62, 0
3, 98348, Note_on_c, 1, 60, 80
3, 98725, Note_on_c, 1, 60, 0
3, 98732, Note_on_c, 1, 69, 80
3, 98739, Note_on_c, 1, 54, 80
3, 98764, Note_on_c, 1, 55, 0
3, 98937, Note_on_c, 1, 52, 80
3, 98956, Note_on_c, 1, 54, 0
3, 99142, Note_on_c, 1, 54, 80
3, 99180, Note_on_c, 1, 52, 0
3, 99468, Note_on_c, 1, 69, 0
3, 99520, Note_on_c, 1, 60, 80
3, 99904, Note_on_c, 1, 55, 80
3, 99904, Note_on_c, 1, 59, 80
3, 99916, Note_on_c, 1, 60, 0
3, 99922, Note_on_c, 1, 54, 0
3, 100268, Note_on_c, 1, 60, 80
3, 100294, Note_on_c, 1, 59, 0
3, 100460, Note_on_c, 1, 62, 80
3, 100479, Note_on_c, 1, 60, 0
3, 100645, Note_on_c, 1, 62, 0
3, 100659, Note_on_c, 1, 64, 80
3, 100992, Note_on_c, 1, 54, 80
3, 101011, Note_on_c, 1, 55, 0
3, 101177, Note_on_c, 1, 55, 80
3, 101190, Note_on_c, 1, 54, 0
3, 101356, Note_on_c, 1, 57, 80
3, 101362, Note_on_c, 1, 55, 0
3, 101727, Note_on_c, 1, 64, 0
3, 101728, Note_on_c, 1, 62, 80
3, 101920, Note_on_c, 1, 64, 80
3, 101939, Note_on_c, 1, 62, 0
3, 102131, Note_on_c, 1, 64, 0
3, 102131, Note_on_c, 1, 66, 80
3, 102463, Note_on_c, 1, 66, 0
3, 102476, Note_on_c, 1, 64, 80
3, 102476, Note_on_c, 1, 55, 80
3, 102488, Note_on_c, 1, 57, 0
3, 102662, Note_on_c, 1, 57, 80
3, 102662, Note_on_c, 1, 66, 80
3, 102674, Note_on_c, 1, 64, 0
3, 102693, Note_on_c, 1, 55, 0
3, 102886, Note_on_c, 1, 67, 80
3, 102886, Note_on_c, 1, 59, 80
3, 102892, Note_on_c, 1, 57, 0
3, 102905, Note_on_c, 1, 66, 0
3, 103225, Note_on_c, 1, 60, 80
3, 103244, Note_on_c, 1, 59, 0
3, 103417, Note_on_c, 1, 62, 80
3, 103423, Note_on_c, 1, 60, 0
3, 103615, Note_on_c, 1, 62, 0
3, 103616, Note_on_c, 1, 64, 80
3, 103993, Note_on_c, 1, 62, 80
3, 103993, Note_on_c, 1, 66, 80
3, 104000, Note_on_c, 1, 64, 0
3, 104031, Note_on_c, 1, 67, 0
3, 104370, Note_on_c, 1, 66, 0
3, 104383, Note_on_c, 1, 62, 0
3, 104384, Note_on_c, 1, 64, 80
3, 104384, Note_on_c, 1, 60, 80
3, 105132, Note_on_c, 1, 62, 80
3, 105152, Note_on_c, 1, 64, 0
3, 105152, Control_c, 1, 7, 108
3, 105152, Control_c, 1, 10, 59
3, 105888, Note_on_c, 1, 59, 80
3, 105913, Note_on_c, 1, 60, 0
3, 106278, Note_on_c, 1, 64, 80
3, 106309, Note_on_c, 1, 62, 0
3, 106470, Note_on_c, 1, 66, 80
3, 106502, Note_on_c, 1, 64, 0
3, 106668, Note_on_c, 1, 66, 0
3, 106681, Note_on_c, 1, 67, 80
3, 107052, Note_on_c, 1, 60, 80
3, 107065, Note_on_c, 1, 59, 0
3, 107257, Note_on_c, 1, 62, 80
3, 107269, Note_on_c, 1, 60, 0
3, 107456, Note_on_c, 1, 64, 80
3, 107461, Note_on_c, 1, 62, 0
3, 107654, Note_on_c, 1, 69, 80
3, 107673, Note_on_c, 1, 67, 0
3, 107846, Note_on_c, 1, 67, 80
3, 107858, Note_on_c, 1, 69, 0
3, 108038, Note_on_c, 1, 66, 80
3, 108057, Note_on_c, 1, 67, 0
3, 108230, Note_on_c, 1, 66, 0
3, 108236, Note_on_c, 1, 67, 80
3, 108268, Note_on_c, 1, 64, 0
3, 108608, Note_on_c, 1, 64, 80
3, 108998, Note_on_c, 1, 57, 80
3, 109024, Note_on_c, 1, 64, 0
3, 109029, Note_on_c, 1, 67, 0
3, 109196, Note_on_c, 1, 67, 80
3, 109407, Note_on_c, 1, 57, 0
3, 109408, Note_on_c, 1, 62, 80
3, 109414, Note_on_c, 1, 66, 80
3, 109432, Note_on_c, 1, 67, 0
3, 109612, Note_on_c, 1, 64, 80
3, 109618, Note_on_c, 1, 66, 0
3, 109804, Note_on_c, 1, 64, 0
3, 109824, Note_on_c, 1, 66, 80
3, 109984, Note_on_c, 1, 62, 0
3, 110188, Note_on_c, 1, 60, 80
3, 110572, Note_on_c, 1, 59, 80
3, 110578, Note_on_c, 1, 60, 0
3, 110624, Note_on_c, 1, 66, 0
3, 110752, Note_on_c, 1, 66, 80
3, 110944, Note_on_c, 1, 64, 80
3, 110950, Note_on_c, 1, 66, 0
3, 111136, Note_on_c, 1, 64, 0
3, 111142, Note_on_c, 1, 63, 80
3, 111327, Note_on_c, 1, 63, 0
3, 111328, Note_on_c, 1, 64, 80
3, 111513, Note_on_c, 1, 57, 80
3, 111532, Note_on_c, 1, 59, 0
3, 111718, Note_on_c, 1, 59, 80
3, 111749, Note_on_c, 1, 57, 0
3, 111897, Note_on_c, 1, 60, 80
3, 111922, Note_on_c, 1, 59, 0
3, 112083, Note_on_c, 1, 64, 0
3, 112089, Note_on_c, 1, 62, 80
3, 112108, Note_on_c, 1, 60, 0
3, 112281, Note_on_c, 1, 60, 80
3, 112467, Note_on_c, 1, 59, 80
3, 112473, Note_on_c, 1, 60, 0
3, 112639, Note_on_c, 1, 59, 0
3, 112646, Note_on_c, 1, 57, 80
3, 112844, Note_on_c, 1, 57, 0
3, 112857, Note_on_c, 1, 55, 80
3, 112895, Note_on_c, 1, 62, 0
3, 113043, Note_on_c, 1, 53, 80
3, 113061, Note_on_c, 1, 55, 0
3, 113241, Note_on_c, 1, 52, 80
3, 113247, Note_on_c, 1, 53, 0
3, 113414, Note_on_c, 1, 50, 80
3, 113426, Note_on_c, 1, 52, 0
3, 113612, Note_on_c, 1, 50, 0
3, 113612, Note_on_c, 1, 52, 80
3, 113791, Note_on_c, 1, 55, 80
3, 113980, Note_on_c, 1, 57, 80
3, 114016, Note_on_c, 1, 55, 0
3, 114171, Note_on_c, 1, 59, 80
3, 114218, Note_on_c, 1, 57, 0
3, 114338, Note_on_c, 1, 59, 0
3, 114345, Note_on_c, 1, 60, 80
3, 114373, Note_on_c, 1, 52, 0
3, 114535, Note_on_c, 1, 62, 80
3, 114585, Note_on_c, 1, 60, 0
3, 114724, Note_on_c, 1, 62, 0
3, 114729, Note_on_c, 1, 64, 80
3, 114902, Note_on_c, 1, 60, 80
3, 115072, Note_on_c, 1, 62, 80
3, 115095, Note_on_c, 1, 64, 0
3, 115111, Note_on_c, 1, 60, 0
3, 115260, Note_on_c, 1, 60, 80
3, 115465, Note_on_c, 1, 59, 80
3, 115469, Note_on_c, 1, 60, 0
3, 115651, Note_on_c, 1, 59, 0
3, 115655, Note_on_c, 1, 57, 80
3, 115863, Note_on_c, 1, 57, 0
3, 115879, Note_on_c, 1, 59, 80
3, 116064, Note_on_c, 1, 59, 0
3, 116065, Note_on_c, 1, 55, 80
3, 116161, Note_on_c, 1, 55, 0
3, 116265, Note_on_c, 1, 52, 80
3, 116429, Note_on_c, 1, 62, 0
3, 116462, Note_on_c, 1, 61, 80
3, 116570, Note_on_c, 1, 61, 0
3, 116700, Note_on_c, 1, 62, 80
3, 116704, Note_on_c, 1, 54, 80
3, 116723, Note_on_c, 1, 52, 0
3, 117311, Note_on_c, 1, 62, 0
3, 117311, Note_on_c, 1, 54, 0
3, 117504, Note_on_c, 1, 57, 80
3, 118031, Note_on_c, 1, 57, 0
3, 118272, Note_on_c, 1, 57, 80
3, 118790, Note_on_c, 1, 57, 0
3, 119040, Note_on_c, 1, 57, 80
3, 119723, Note_on_c, 1, 57, 0
3, 119808, Note_on_c, 1, 59, 80
3, 120504, Note_on_c, 1, 59, 0
3, 120552, Note_on_c, 1, 60, 80
3, 120595, Note_on_c, 1, 59, 80
3, 120615, Note_on_c, 1, 60, 0
3, 120621, Note_on_c, 1, 59, 0
3, 120630, Note_on_c, 1, 60, 80
3, 120652, Note_on_c, 1, 59, 80
3, 120677, Note_on_c, 1, 60, 0
3, 120727, Note_on_c, 1, 57, 80
3, 120733, Note_on_c, 1, 59, 0
3, 120915, Note_on_c, 1, 59, 80
3, 120930, Note_on_c, 1, 57, 0
3, 121100, Note_on_c, 1, 60, 80
3, 121103, Note_on_c, 1, 59, 0
3, 121308, Note_on_c, 1, 57, 80
3, 121323, Note_on_c, 1, 60, 0
3, 121689, Note_on_c, 1, 59, 80
3, 121698, Note_on_c, 1, 57, 0
3, 121879, Note_on_c, 1, 61, 80
3, 121889, Note_on_c, 1, 59, 0
3, 122071, Note_on_c, 1, 62, 80
3, 122080, Note_on_c, 1, 61, 0
3, 122273, Note_on_c, 1, 57, 80
3, 122291, Note_on_c, 1, 62, 0
3, 122474, Note_on_c, 1, 62, 80
3, 122482, Note_on_c, 1, 57, 0
3, 123217, Note_on_c, 1, 61, 80
3, 123236, Note_on_c, 1, 62, 0
3, 123397, Note_on_c, 1, 61, 0
3, 123401, Note_on_c, 1, 59, 80
3, 123608, Note_on_c, 1, 61, 80
3, 123610, Note_on_c, 1, 64, 80
3, 123621, Note_on_c, 1, 59, 0
3, 124156, Note_on_c, 1, 62, 80
3, 124161, Note_on_c, 1, 61, 0
3, 124175, Note_on_c, 1, 64, 0
3, 124387, Note_on_c, 1, 64, 80
3, 124389, Note_on_c, 1, 59, 80
3, 124402, Note_on_c, 1, 62, 0
3, 124936, Note_on_c, 1, 61, 80
3, 124939, Note_on_c, 1, 59, 0
3, 124973, Note_on_c, 1, 64, 0
3, 125144, Note_on_c, 1, 61, 0
3, 125146, Note_on_c, 1, 64, 80
3, 125154, Note_on_c, 1, 62, 80
3, 125215, Note_on_c, 1, 61, 80
3, 125221, Note_on_c, 1, 62, 0
3, 125276, Note_on_c, 1, 61, 0
3, 125282, Note_on_c, 1, 62, 80
3, 125322, Note_on_c, 1, 61, 80
3, 125344, Note_on_c, 1, 61, 0
3, 125389, Note_on_c, 1, 61, 80
3, 125402, Note_on_c, 1, 62, 0
3, 125429, Note_on_c, 1, 61, 0
3, 125434, Note_on_c, 1, 62, 80
3, 125465, Note_on_c, 1, 61, 80
3, 125496, Note_on_c, 1, 62, 0
3, 125633, Note_on_c, 1, 59, 80
3, 125638, Note_on_c, 1, 61, 0
3, 125700, Note_on_c, 1, 61, 80
3, 125723, Note_on_c, 1, 59, 0
3, 125789, Note_on_c, 1, 64, 0
3, 125827, Note_on_c, 1, 61, 0
3, 125832, Note_on_c, 1, 66, 80
3, 125838, Note_on_c, 1, 62, 80
3, 126458, Note_on_c, 1, 66, 0
3, 126645, Note_on_c, 1, 67, 80
3, 126673, Note_on_c, 1, 67, 0
3, 126674, Note_on_c, 1, 66, 80
3, 126704, Note_on_c, 1, 67, 80
3, 126712, Note_on_c, 1, 66, 0
3, 126734, Note_on_c, 1, 66, 80
3, 126760, Note_on_c, 1, 67, 0
3, 126815, Note_on_c, 1, 64, 80
3, 126829, Note_on_c, 1, 66, 0
3, 127005, Note_on_c, 1, 66, 80
3, 127022, Note_on_c, 1, 64, 0
3, 127181, Note_on_c, 1, 67, 80
3, 127190, Note_on_c, 1, 66, 0
3, 127409, Note_on_c, 1, 64, 80
3, 127411, Note_on_c, 1, 67, 0
3, 127612, Note_on_c, 1, 61, 80
3, 127629, Note_on_c, 1, 62, 0
3, 127816, Note_on_c, 1, 61, 0
3, 127817, Note_on_c, 1, 62, 80
3, 128018, Note_on_c, 1, 59, 80
3, 128028, Note_on_c, 1, 62, 0
3, 128241, Note_on_c, 1, 61, 80
3, 128271, Note_on_c, 1, 59, 0
3, 128429, Note_on_c, 1, 62, 80
3, 128434, Note_on_c, 1, 64, 0
3, 128621, Note_on_c, 1, 64, 80
3, 128649, Note_on_c, 1, 62, 0
3, 128823, Note_on_c, 1, 69, 80
3, 128830, Note_on_c, 1, 64, 0
3, 129014, Note_on_c, 1, 62, 80
3, 129021, Note_on_c, 1, 69, 0
3, 129201, Note_on_c, 1, 59, 80
3, 129206, Note_on_c, 1, 61, 0
3, 129402, Note_on_c, 1, 60, 80
3, 129409, Note_on_c, 1, 59, 0
3, 129598, Note_on_c, 1, 57, 80
3, 129608, Note_on_c, 1, 60, 0
3, 129795, Note_on_c, 1, 59, 80
3, 129822, Note_on_c, 1, 57, 0
3, 129995, Note_on_c, 1, 62, 0
3, 129995, Note_on_c, 1, 61, 80
3, 130173, Note_on_c, 1, 62, 80
3, 130180, Note_on_c, 1, 61, 0
3, 130368, Note_on_c, 1, 67, 80
3, 130388, Note_on_c, 1, 62, 0
3, 130578, Note_on_c, 1, 61, 80
3, 130587, Note_on_c, 1, 67, 0
3, 130973, Note_on_c, 1, 61, 0
3, 131131, Note_on_c, 1, 61, 80
3, 131316, Note_on_c, 1, 61, 0
3, 131317, Note_on_c, 1, 62, 80
3, 131339, Note_on_c, 1, 59, 0
3, 131512, Note_on_c, 1, 66, 80
3, 131534, Note_on_c, 1, 62, 0
3, 131696, Note_on_c, 1, 66, 0
3, 131698, Note_on_c, 1, 64, 80
3, 131869, Note_on_c, 1, 67, 80
3, 131874, Note_on_c, 1, 64, 0
3, 132048, Note_on_c, 1, 66, 80
3, 132062, Note_on_c, 1, 67, 0
3, 132240, Note_on_c, 1, 67, 80
3, 132242, Note_on_c, 1, 66, 0
3, 132433, Note_on_c, 1, 66, 80
3, 132454, Note_on_c, 1, 67, 0
3, 132611, Note_on_c, 1, 64, 80
3, 132616, Note_on_c, 1, 66, 0
3, 132798, Note_on_c, 1, 62, 80
3, 132806, Note_on_c, 1, 64, 0
3, 132986, Note_on_c, 1, 61, 80
3, 133014, Note_on_c, 1, 62, 0
3, 133171, Note_on_c, 1, 59, 80
3, 133194, Note_on_c, 1, 61, 0
3, 133347, Note_on_c, 1, 57, 80
3, 133350, Note_on_c, 1, 59, 0
3, 133544, Note_on_c, 1, 57, 0
3, 133551, Note_on_c, 1, 62, 80
3, 133881, Note_on_c, 1, 62, 0
3, 133933, Note_on_c, 1, 56, 80
3, 133935, Note_on_c, 1, 49, 80
3, 134201, Note_on_c, 1, 56, 0
3, 134337, Note_on_c, 1, 54, 80
3, 134341, Note_on_c, 1, 50, 80
3, 134358, Note_on_c, 1, 49, 0
3, 134510, Note_on_c, 1, 54, 0
3, 134562, Note_on_c, 1, 54, 80
3, 134573, Note_on_c, 1, 50, 0
3, 134733, Note_on_c, 1, 54, 0
3, 134746, Note_on_c, 1, 52, 80
3, 134893, Note_on_c, 1, 52, 0
3, 134914, Note_on_c, 1, 56, 80
3, 135090, Note_on_c, 1, 54, 80
3, 135092, Note_on_c, 1, 56, 0
3, 135284, Note_on_c, 1, 54, 0
3, 135286, Note_on_c, 1, 52, 80
3, 135463, Note_on_c, 1, 54, 80
3, 135479, Note_on_c, 1, 52, 0
3, 135640, Note_on_c, 1, 54, 0
3, 135651, Note_on_c, 1, 57, 80
3, 135845, Note_on_c, 1, 57, 0
3, 135848, Note_on_c, 1, 55, 80
3, 136065, Note_on_c, 1, 54, 80
3, 136069, Note_on_c, 1, 55, 0
3, 136257, Note_on_c, 1, 52, 80
3, 136261, Note_on_c, 1, 54, 0
3, 136445, Note_on_c, 1, 54, 80
3, 136463, Note_on_c, 1, 52, 0
3, 136645, Note_on_c, 1, 54, 0
3, 136646, Note_on_c, 1, 55, 80
3, 136842, Note_on_c, 1, 59, 80
3, 137025, Note_on_c, 1, 59, 0
3, 137027, Note_on_c, 1, 57, 80
3, 137030, Note_on_c, 1, 64, 80
3, 137034, Note_on_c, 1, 55, 0
3, 137216, Note_on_c, 1, 63, 80
3, 137219, Note_on_c, 1, 64, 0
3, 137299, Note_on_c, 1, 63, 0
3, 137416, Note_on_c, 1, 64, 80
3, 137425, Note_on_c, 1, 59, 80
3, 137428, Note_on_c, 1, 57, 0
3, 137629, Note_on_c, 1, 64, 0
3, 137630, Note_on_c, 1, 66, 80
3, 137804, Note_on_c, 1, 67, 80
3, 137809, Note_on_c, 1, 66, 0
3, 137824, Note_on_c, 1, 59, 0
3, 137986, Note_on_c, 1, 59, 80
3, 138184, Note_on_c, 1, 59, 0
3, 138192, Note_on_c, 1, 64, 80
3, 138377, Note_on_c, 1, 62, 80
3, 138393, Note_on_c, 1, 64, 0
3, 138397, Note_on_c, 1, 67, 0
3, 138568, Note_on_c, 1, 62, 0
3, 138570, Note_on_c, 1, 61, 80
3, 138574, Note_on_c, 1, 67, 80
3, 138767, Note_on_c, 1, 61, 0
3, 138774, Note_on_c, 1, 64, 80
3, 138967, Note_on_c, 1, 64, 0
3, 138971, Note_on_c, 1, 62, 80
3, 138974, Note_on_c, 1, 66, 80
3, 138989, Note_on_c, 1, 67, 0
3, 139166, Note_on_c, 1, 66, 0
3, 139168, Note_on_c, 1, 67, 80
3, 139338, Note_on_c, 1, 62, 0
3, 139354, Note_on_c, 1, 56, 80
3, 139356, Note_on_c, 1, 67, 0
3, 139360, Note_on_c, 1, 64, 80
3, 139540, Note_on_c, 1, 66, 80
3, 139545, Note_on_c, 1, 64, 0
3, 139702, Note_on_c, 1, 66, 0
3, 139719, Note_on_c, 1, 56, 0
3, 139721, Note_on_c, 1, 62, 80
3, 139726, Note_on_c, 1, 54, 80
3, 139877, Note_on_c, 1, 62, 0
3, 139912, Note_on_c, 1, 57, 80
3, 140022, Note_on_c, 1, 57, 0
3, 140106, Note_on_c, 1, 62, 80
3, 140118, Note_on_c, 1, 54, 0
3, 140302, Note_on_c, 1, 54, 80
3, 140491, Note_on_c, 1, 54, 0
3, 140496, Note_on_c, 1, 52, 80
3, 140530, Note_on_c, 1, 62, 0
3, 140690, Note_on_c, 1, 62, 80
3, 140796, Note_on_c, 1, 62, 0
3, 140884, Note_on_c, 1, 61, 80
3, 140925, Note_on_c, 1, 52, 0
3, 141068, Note_on_c, 1, 55, 80
3, 141143, Note_on_c, 1, 61, 0
3, 141286, Note_on_c, 1, 55, 0
3, 141294, Note_on_c, 1, 62, 80
3, 141312, Note_on_c, 1, 54, 80
3, 141887, Note_on_c, 1, 62, 0
3, 141887, Note_on_c, 1, 54, 0
3, 142056, Note_on_c, 1, 57, 80
3, 142828, Note_on_c, 1, 59, 80
3, 142829, Note_on_c, 1, 57, 0
3, 143197, Note_on_c, 1, 61, 80
3, 143204, Note_on_c, 1, 59, 0
3, 143562, Note_on_c, 1, 61, 0
3, 143575, Note_on_c, 1, 62, 80
3, 145086, Note_on_c, 1, 61, 80
3, 145104, Note_on_c, 1, 62, 0
3, 145881, Note_on_c, 1, 62, 80
3, 145896, Note_on_c, 1, 61, 0
3, 146257, Note_on_c, 1, 57, 80
3, 146271, Note_on_c, 1, 62, 0
3, 146642, Note_on_c, 1, 62, 80
3, 146663, Note_on_c, 1, 57, 0
3, 147037, Note_on_c, 1, 60, 80
3, 147422, Note_on_c, 1, 64, 80
3, 147424, Note_on_c, 1, 59, 80
3, 147427, Note_on_c, 1, 60, 0
3, 147451, Note_on_c, 1, 62, 0
3, 147813, Note_on_c, 1, 60, 80
3, 147816, Note_on_c, 1, 66, 80
3, 147826, Note_on_c, 1, 59, 0
3, 147837, Note_on_c, 1, 64, 0
3, 148210, Note_on_c, 1, 67, 80
3, 148219, Note_on_c, 1, 62, 80
3, 148221, Note_on_c, 1, 66, 0
3, 148232, Note_on_c, 1, 60, 0
3, 148564, Note_on_c, 1, 62, 0
3, 148566, Note_on_c, 1, 64, 80
3, 148755, Note_on_c, 1, 62, 80
3, 148770, Note_on_c, 1, 64, 0
3, 148945, Note_on_c, 1, 62, 0
3, 148956, Note_on_c, 1, 60, 80
3, 149249, Note_on_c, 1, 60, 0
3, 149328, Note_on_c, 1, 59, 80
3, 149579, Note_on_c, 1, 59, 0
3, 149705, Note_on_c, 1, 60, 80
3, 149711, Note_on_c, 1, 66, 80
3, 149732, Note_on_c, 1, 67, 0
3, 150095, Note_on_c, 1, 62, 80
3, 150097, Note_on_c, 1, 60, 0
3, 150286, Note_on_c, 1, 60, 80
3, 150302, Note_on_c, 1, 62, 0
3, 150490, Note_on_c, 1, 60, 0
3, 150494, Note_on_c, 1, 59, 80
3, 150496, Note_on_c, 1, 67, 80
3, 150501, Note_on_c, 1, 66, 0
3, 150768, Note_on_c, 1, 67, 0
3, 150879, Note_on_c, 1, 59, 0
3, 150882, Note_on_c, 1, 62, 80
3, 150886, Note_on_c, 1, 57, 80
3, 151179, Note_on_c, 1, 62, 0
3, 151297, Note_on_c, 1, 67, 80
3, 151298, Note_on_c, 1, 55, 80
3, 151312, Note_on_c, 1, 57, 0
3, 151663, Note_on_c, 1, 66, 80
3, 151675, Note_on_c, 1, 67, 0
3, 152054, Note_on_c, 1, 64, 80
3, 152078, Note_on_c, 1, 66, 0
3, 152402, Note_on_c, 1, 54, 80
3, 152422, Note_on_c, 1, 55, 0
3, 152599, Note_on_c, 1, 52, 80
3, 152602, Note_on_c, 1, 54, 0
3, 152810, Note_on_c, 1, 54, 80
3, 152832, Note_on_c, 1, 52, 0
3, 153169, Note_on_c, 1, 62, 80
3, 153194, Note_on_c, 1, 64, 0
3, 153355, Note_on_c, 1, 60, 80
3, 153374, Note_on_c, 1, 62, 0
3, 153572, Note_on_c, 1, 59, 80
3, 153580, Note_on_c, 1, 60, 0
3, 153934, Note_on_c, 1, 55, 80
3, 153951, Note_on_c, 1, 54, 0
3, 154046, Note_on_c, 1, 59, 0
3, 154119, Note_on_c, 1, 57, 80
3, 154128, Note_on_c, 1, 55, 0
3, 154348, Note_on_c, 1, 55, 80
3, 154352, Note_on_c, 1, 64, 80
3, 154368, Note_on_c, 1, 57, 0
3, 155063, Note_on_c, 1, 54, 80
3, 155083, Note_on_c, 1, 55, 0
3, 155433, Note_on_c, 1, 66, 80
3, 155441, Note_on_c, 1, 64, 0
3, 155558, Note_on_c, 1, 54, 0
3, 155627, Note_on_c, 1, 64, 80
3, 155639, Note_on_c, 1, 66, 0
3, 155830, Note_on_c, 1, 62, 80
3, 155837, Note_on_c, 1, 64, 0
3, 156197, Note_on_c, 1, 64, 80
3, 156216, Note_on_c, 1, 62, 0
3, 156401, Note_on_c, 1, 66, 80
3, 156409, Note_on_c, 1, 64, 0
3, 156614, Note_on_c, 1, 66, 0
3, 156632, Note_on_c, 1, 64, 80
3, 156997, Note_on_c, 1, 59, 80
3, 157186, Note_on_c, 1, 57, 80
3, 157189, Note_on_c, 1, 59, 0
3, 157385, Note_on_c, 1, 55, 80
3, 157395, Note_on_c, 1, 57, 0
3, 157413, Note_on_c, 1, 64, 0
3, 157747, Note_on_c, 1, 57, 80
3, 157753, Note_on_c, 1, 55, 0
3, 157932, Note_on_c, 1, 57, 0
3, 157942, Note_on_c, 1, 59, 80
3, 158134, Note_on_c, 1, 59, 0
3, 158141, Note_on_c, 1, 52, 80
3, 158507, Note_on_c, 1, 64, 80
3, 158524, Note_on_c, 1, 52, 0
3, 158686, Note_on_c, 1, 66, 80
3, 158717, Note_on_c, 1, 64, 0
3, 158787, Note_on_c, 1, 66, 0
3, 158901, Note_on_c, 1, 67, 80
3, 159296, Note_on_c, 1, 66, 80
3, 159308, Note_on_c, 1, 67, 0
3, 159489, Note_on_c, 1, 64, 80
3, 159495, Note_on_c, 1, 66, 0
3, 159588, Note_on_c, 1, 64, 0
3, 159702, Note_on_c, 1, 69, 80
3, 160070, Note_on_c, 1, 57, 80
3, 160183, Note_on_c, 1, 57, 0
3, 160250, Note_on_c, 1, 59, 80
3, 160258, Note_on_c, 1, 69, 0
3, 160333, Note_on_c, 1, 59, 0
3, 160478, Note_on_c, 1, 60, 80
3, 160834, Note_on_c, 1, 59, 80
3, 160837, Note_on_c, 1, 60, 0
3, 161024, Note_on_c, 1, 57, 80
3, 161036, Note_on_c, 1, 59, 0
3, 161112, Note_on_c, 1, 57, 0
3, 161224, Note_on_c, 1, 59, 80
3, 161431, Note_on_c, 1, 62, 80
3, 161627, Note_on_c, 1, 64, 80
3, 161654, Note_on_c, 1, 62, 0
3, 161814, Note_on_c, 1, 66, 80
3, 161837, Note_on_c, 1, 64, 0
3, 162016, Note_on_c, 1, 66, 0
3, 162016, Note_on_c, 1, 67, 80
3, 162200, Note_on_c, 1, 66, 80
3, 162227, Note_on_c, 1, 67, 0
3, 162394, Note_on_c, 1, 66, 0
3, 162398, Note_on_c, 1, 64, 80
3, 162510, Note_on_c, 1, 64, 0
3, 162592, Note_on_c, 1, 67, 80
3, 162676, Note_on_c, 1, 67, 0
3, 162793, Note_on_c, 1, 66, 80
3, 162797, Note_on_c, 1, 57, 80
3, 162818, Note_on_c, 1, 59, 0
3, 162991, Note_on_c, 1, 64, 80
3, 162993, Note_on_c, 1, 66, 0
3, 163185, Note_on_c, 1, 66, 80
3, 163210, Note_on_c, 1, 64, 0
3, 163372, Note_on_c, 1, 67, 80
3, 163382, Note_on_c, 1, 66, 0
3, 163389, Note_on_c, 1, 57, 0
3, 163523, Note_on_c, 1, 67, 0
3, 163578, Note_on_c, 1, 69, 80
3, 164373, Note_on_c, 1, 71, 80
3, 164383, Note_on_c, 1, 69, 0
3, 165123, Note_on_c, 1, 62, 80
3, 165467, Note_on_c, 1, 69, 80
3, 165486, Note_on_c, 1, 71, 0
3, 165857, Note_on_c, 1, 67, 80
3, 165865, Note_on_c, 1, 64, 80
3, 165874, Note_on_c, 1, 62, 0
3, 165875, Note_on_c, 1, 69, 0
3, 166625, Note_on_c, 1, 66, 80
3, 166630, Note_on_c, 1, 67, 0
3, 167001, Note_on_c, 1, 62, 80
3, 167010, Note_on_c, 1, 64, 0
3, 167414, Note_on_c, 1, 61, 80
3, 167414, Note_on_c, 1, 68, 80
3, 167434, Note_on_c, 1, 62, 0
3, 167435, Note_on_c, 1, 66, 0
3, 167773, Note_on_c, 1, 69, 80
3, 167775, Note_on_c, 1, 68, 0
3, 168161, Note_on_c, 1, 59, 80
3, 168174, Note_on_c, 1, 61, 0
3, 168531, Note_on_c, 1, 67, 80
3, 168548, Note_on_c, 1, 69, 0
3, 168901, Note_on_c, 1, 61, 80
3, 168923, Note_on_c, 1, 59, 0
3, 169294, Note_on_c, 1, 66, 80
3, 169299, Note_on_c, 1, 62, 80
3, 169306, Note_on_c, 1, 67, 0
3, 169309, Note_on_c, 1, 61, 0
3, 169692, Note_on_c, 1, 66, 0
3, 169694, Note_on_c, 1, 64, 80
3, 170079, Note_on_c, 1, 69, 80
3, 170083, Note_on_c, 1, 64, 0
3, 170091, Note_on_c, 1, 61, 80
3, 170099, Note_on_c, 1, 62, 0
3, 170413, Note_on_c, 1, 61, 0
3, 170480, Note_on_c, 1, 62, 80
3, 170657, Note_on_c, 1, 67, 80
3, 170660, Note_on_c, 1, 69, 0
3, 170863, Note_on_c, 1, 66, 80
3, 170870, Note_on_c, 1, 67, 0
3, 171035, Note_on_c, 1, 67, 80
3, 171053, Note_on_c, 1, 66, 0
3, 171081, Note_on_c, 1, 67, 0
3, 171244, Note_on_c, 1, 72, 80
3, 171245, Note_on_c, 1, 62, 0
3, 171290, Note_on_c, 1, 64, 80
3, 171685, Note_on_c, 1, 66, 80
3, 171714, Note_on_c, 1, 64, 0
3, 172076, Note_on_c, 1, 67, 80
3, 172080, Note_on_c, 1, 66, 0
3, 172220, Note_on_c, 1, 55, 80
3, 172319, Note_on_c, 1, 67, 0
3, 172410, Note_on_c, 1, 54, 80
3, 172415, Note_on_c, 1, 72, 0
3, 172421, Note_on_c, 1, 55, 0
3, 172426, Note_on_c, 1, 71, 80
3, 172576, Note_on_c, 1, 54, 0
3, 172577, Note_on_c, 1, 55, 80
3, 172793, Note_on_c, 1, 55, 0
3, 172800, Note_on_c, 1, 60, 80
3, 172983, Note_on_c, 1, 71, 0
3, 173120, Note_on_c, 1, 69, 80
3, 173712, Note_on_c, 1, 69, 0
3, 173717, Note_on_c, 1, 62, 80
3, 173885, Note_on_c, 1, 67, 80
3, 173889, Note_on_c, 1, 59, 80
3, 173893, Note_on_c, 1, 62, 0
3, 173900, Note_on_c, 1, 60, 0
3, 174048, Note_on_c, 1, 69, 80
3, 174054, Note_on_c, 1, 67, 0
3, 174234, Note_on_c, 1, 69, 0
3, 174249, Note_on_c, 1, 67, 80
3, 174616, Note_on_c, 1, 57, 80
3, 174620, Note_on_c, 1, 65, 80
3, 174623, Note_on_c, 1, 59, 0
3, 174624, Note_on_c, 1, 67, 0
3, 175023, Note_on_c, 1, 64, 80
3, 175026, Note_on_c, 1, 65, 0
3, 175031, Note_on_c, 1, 55, 80
3, 175052, Note_on_c, 1, 57, 0
3, 175221, Note_on_c, 1, 65, 80
3, 175232, Note_on_c, 1, 64, 0
3, 175410, Note_on_c, 1, 65, 0
3, 175413, Note_on_c, 1, 64, 80
3, 175581, Note_on_c, 1, 62, 80
3, 175594, Note_on_c, 1, 64, 0
3, 175770, Note_on_c, 1, 60, 80
3, 175785, Note_on_c, 1, 62, 0
3, 175930, Note_on_c, 1, 55, 0
3, 175955, Note_on_c, 1, 59, 80
3, 175958, Note_on_c, 1, 60, 0
3, 176146, Note_on_c, 1, 57, 80
3, 176169, Note_on_c, 1, 59, 0
3, 176524, Note_on_c, 1, 57, 0
3, 176542, Note_on_c, 1, 56, 80
3, 176672, Note_on_c, 1, 56, 0
3, 176769, Note_on_c, 1, 64, 80
3, 176938, Note_on_c, 1, 62, 80
3, 176949, Note_on_c, 1, 64, 0
3, 177127, Note_on_c, 1, 60, 80
3, 177145, Note_on_c, 1, 62, 0
3, 177333, Note_on_c, 1, 60, 0
3, 177334, Note_on_c, 1, 59, 80
3, 177536, Note_on_c, 1, 57, 80
3, 177553, Note_on_c, 1, 59, 0
3, 177735, Note_on_c, 1, 56, 80
3, 177760, Note_on_c, 1, 57, 0
3, 177930, Note_on_c, 1, 56, 0
3, 177938, Note_on_c, 1, 54, 80
3, 178149, Note_on_c, 1, 56, 80
3, 178164, Note_on_c, 1, 54, 0
3, 178330, Note_on_c, 1, 64, 80
3, 178381, Note_on_c, 1, 56, 0
3, 178533, Note_on_c, 1, 66, 80
3, 178551, Note_on_c, 1, 64, 0
3, 178710, Note_on_c, 1, 66, 0
3, 178713, Note_on_c, 1, 68, 80
3, 178911, Note_on_c, 1, 69, 80
3, 178915, Note_on_c, 1, 68, 0
3, 179095, Note_on_c, 1, 60, 80
3, 179299, Note_on_c, 1, 62, 80
3, 179305, Note_on_c, 1, 60, 0
3, 179453, Note_on_c, 1, 64, 80
3, 179456, Note_on_c, 1, 62, 0
3, 179672, Note_on_c, 1, 65, 80
3, 179675, Note_on_c, 1, 64, 0
3, 179861, Note_on_c, 1, 64, 80
3, 179865, Note_on_c, 1, 65, 0
3, 180064, Note_on_c, 1, 62, 80
3, 180072, Note_on_c, 1, 64, 0
3, 180241, Note_on_c, 1, 60, 80
3, 180256, Note_on_c, 1, 62, 0
3, 180488, Note_on_c, 1, 60, 0
3, 180497, Note_on_c, 1, 59, 80
3, 180643, Note_on_c, 1, 68, 80
3, 180662, Note_on_c, 1, 69, 0
3, 180842, Note_on_c, 1, 66, 80
3, 180846, Note_on_c, 1, 68, 0
3, 180848, Note_on_c, 1, 64, 80
3, 180860, Note_on_c, 1, 59, 0
3, 181040, Note_on_c, 1, 68, 80
3, 181059, Note_on_c, 1, 66, 0
3, 181230, Note_on_c, 1, 68, 0
3, 181231, Note_on_c, 1, 69, 80
3, 181246, Note_on_c, 1, 64, 0
3, 181413, Note_on_c, 1, 65, 80
3, 181598, Note_on_c, 1, 65, 0
3, 181601, Note_on_c, 1, 64, 80
3, 181765, Note_on_c, 1, 64, 0
3, 181777, Note_on_c, 1, 62, 80
3, 181958, Note_on_c, 1, 62, 0
3, 181969, Note_on_c, 1, 64, 80
3, 182161, Note_on_c, 1, 60, 80
3, 182164, Note_on_c, 1, 64, 0
3, 182341, Note_on_c, 1, 59, 80
3, 182346, Note_on_c, 1, 60, 0
3, 182526, Note_on_c, 1, 57, 80
3, 182529, Note_on_c, 1, 59, 0
3, 182538, Note_on_c, 1, 69, 0
3, 182721, Note_on_c, 1, 63, 80
3, 182734, Note_on_c, 1, 57, 0
3, 182915, Note_on_c, 1, 71, 80
3, 183095, Note_on_c, 1, 69, 80
3, 183103, Note_on_c, 1, 71, 0
3, 183304, Note_on_c, 1, 67, 80
3, 183331, Note_on_c, 1, 69, 0
3, 183500, Note_on_c, 1, 67, 0
3, 183502, Note_on_c, 1, 69, 80
3, 183681, Note_on_c, 1, 69, 0
3, 183685, Note_on_c, 1, 66, 80
3, 183874, Note_on_c, 1, 66, 0
3, 183878, Note_on_c, 1, 63, 0
3, 183879, Note_on_c, 1, 67, 80
3, 183882, Note_on_c, 1, 64, 80
3, 184032, Note_on_c, 1, 69, 80
3, 184044, Note_on_c, 1, 67, 0
3, 184143, Note_on_c, 1, 69, 0
3, 184252, Note_on_c, 1, 64, 0
3, 184282, Note_on_c, 1, 66, 80
3, 184463, Note_on_c, 1, 59, 80
3, 184661, Note_on_c, 1, 59, 0
3, 184661, Note_on_c, 1, 57, 80
3, 184848, Note_on_c, 1, 55, 80
3, 184855, Note_on_c, 1, 57, 0
3, 184919, Note_on_c, 1, 55, 0
3, 185042, Note_on_c, 1, 57, 80
3, 185232, Note_on_c, 1, 60, 80
3, 185235, Note_on_c, 1, 57, 0
3, 185413, Note_on_c, 1, 60, 0
3, 185423, Note_on_c, 1, 59, 80
3, 185597, Note_on_c, 1, 59, 0
3, 185598, Note_on_c, 1, 57, 80
3, 185786, Note_on_c, 1, 55, 80
3, 185795, Note_on_c, 1, 57, 0
3, 185802, Note_on_c, 1, 64, 80
3, 185805, Note_on_c, 1, 66, 0
3, 185976, Note_on_c, 1, 55, 0
3, 185984, Note_on_c, 1, 62, 80
3, 186181, Note_on_c, 1, 61, 80
3, 186182, Note_on_c, 1, 62, 0
3, 186344, Note_on_c, 1, 59, 80
3, 186355, Note_on_c, 1, 61, 0
3, 186377, Note_on_c, 1, 59, 0
3, 186544, Note_on_c, 1, 58, 80
3, 186564, Note_on_c, 1, 66, 80
3, 186567, Note_on_c, 1, 64, 0
3, 186744, Note_on_c, 1, 54, 80
3, 186748, Note_on_c, 1, 58, 0
3, 186817, Note_on_c, 1, 54, 0
3, 186965, Note_on_c, 1, 59, 80
3, 187390, Note_on_c, 1, 64, 80
3, 187404, Note_on_c, 1, 66, 0
3, 187559, Note_on_c, 1, 58, 80
3, 187564, Note_on_c, 1, 59, 0
3, 187744, Note_on_c, 1, 58, 0
3, 187744, Note_on_c, 1, 59, 80
3, 187925, Note_on_c, 1, 59, 0
3, 187927, Note_on_c, 1, 56, 80
3, 188113, Note_on_c, 1, 56, 0
3, 188127, Note_on_c, 1, 58, 80
3, 188309, Note_on_c, 1, 62, 80
3, 188316, Note_on_c, 1, 64, 0
3, 188486, Note_on_c, 1, 62, 0
3, 188487, Note_on_c, 1, 64, 80
3, 188668, Note_on_c, 1, 64, 0
3, 188673, Note_on_c, 1, 61, 80
3, 188865, Note_on_c, 1, 62, 80
3, 188868, Note_on_c, 1, 61, 0
3, 188872, Note_on_c, 1, 59, 80
3, 188884, Note_on_c, 1, 58, 0
3, 189086, Note_on_c, 1, 66, 80
3, 189114, Note_on_c, 1, 62, 0
3, 189260, Note_on_c, 1, 66, 0
3, 189261, Note_on_c, 1, 64, 80
3, 189422, Note_on_c, 1, 62, 80
3, 189425, Note_on_c, 1, 64, 0
3, 189647, Note_on_c, 1, 67, 80
3, 189661, Note_on_c, 1, 62, 0
3, 190373, Note_on_c, 1, 57, 80
3, 190393, Note_on_c, 1, 59, 0
3, 190958, Note_on_c, 1, 67, 0
3, 190964, Note_on_c, 1, 66, 80
3, 191162, Note_on_c, 1, 66, 0
3, 191189, Note_on_c, 1, 74, 80
3, 191198, Note_on_c, 1, 59, 80
3, 191208, Note_on_c, 1, 57, 0
3, 191753, Note_on_c, 1, 74, 0
3, 191756, Note_on_c, 1, 67, 80
3, 191959, Note_on_c, 1, 72, 80
3, 191968, Note_on_c, 1, 57, 80
3, 191992, Note_on_c, 1, 67, 0
3, 192017, Note_on_c, 1, 59, 0
3, 192287, Note_on_c, 1, 72, 0
3, 192384, Note_on_c, 1, 66, 80
3, 192683, Note_on_c, 1, 66, 0
3, 192733, Note_on_c, 1, 71, 80
3, 192924, Note_on_c, 1, 55, 80
3, 192928, Note_on_c, 1, 57, 0
3, 193116, Note_on_c, 1, 57, 80
3, 193127, Note_on_c, 1, 55, 0
3, 193288, Note_on_c, 1, 57, 0
3, 193296, Note_on_c, 1, 54, 80
3, 193396, Note_on_c, 1, 54, 0
3, 193495, Note_on_c, 1, 55, 80
3, 193670, Note_on_c, 1, 71, 0
3, 193677, Note_on_c, 1, 69, 80
3, 193857, Note_on_c, 1, 71, 80
3, 193862, Note_on_c, 1, 69, 0
3, 194036, Note_on_c, 1, 76, 80
3, 194040, Note_on_c, 1, 71, 0
3, 194159, Note_on_c, 1, 76, 0
3, 194240, Note_on_c, 1, 69, 80
3, 194428, Note_on_c, 1, 54, 80
3, 194436, Note_on_c, 1, 55, 0
3, 194624, Note_on_c, 1, 54, 0
3, 194627, Note_on_c, 1, 55, 80
3, 194820, Note_on_c, 1, 52, 80
3, 194846, Note_on_c, 1, 55, 0
3, 195004, Note_on_c, 1, 54, 80
3, 195032, Note_on_c, 1, 52, 0
3, 195209, Note_on_c, 1, 67, 80
3, 195218, Note_on_c, 1, 69, 0
3, 195395, Note_on_c, 1, 69, 80
3, 195418, Note_on_c, 1, 67, 0
3, 195573, Note_on_c, 1, 74, 80
3, 195580, Note_on_c, 1, 69, 0
3, 195676, Note_on_c, 1, 74, 0
3, 195779, Note_on_c, 1, 67, 80
3, 195972, Note_on_c, 1, 52, 80
3, 195973, Note_on_c, 1, 54, 0
3, 196179, Note_on_c, 1, 52, 0
3, 196184, Note_on_c, 1, 54, 80
3, 196369, Note_on_c, 1, 54, 0
3, 196373, Note_on_c, 1, 51, 80
3, 196551, Note_on_c, 1, 51, 0
3, 196561, Note_on_c, 1, 52, 80
3, 196732, Note_on_c, 1, 67, 0
3, 196745, Note_on_c, 1, 66, 80
3, 196897, Note_on_c, 1, 52, 0
3, 196922, Note_on_c, 1, 66, 0
3, 196931, Note_on_c, 1, 67, 80
3, 197107, Note_on_c, 1, 72, 80
3, 197107, Note_on_c, 1, 64, 80
3, 197108, Note_on_c, 1, 67, 0
3, 197166, Note_on_c, 1, 64, 0
3, 197315, Note_on_c, 1, 72, 0
3, 197326, Note_on_c, 1, 67, 80
3, 197329, Note_on_c, 1, 71, 80
3, 197521, Note_on_c, 1, 71, 0
3, 197521, Note_on_c, 1, 69, 80
3, 197526, Note_on_c, 1, 66, 80
3, 197536, Note_on_c, 1, 67, 0
3, 197683, Note_on_c, 1, 66, 0
3, 197697, Note_on_c, 1, 64, 80
3, 197707, Note_on_c, 1, 69, 0
3, 197709, Note_on_c, 1, 67, 80
3, 197863, Note_on_c, 1, 64, 0
3, 197873, Note_on_c, 1, 67, 0
3, 197882, Note_on_c, 1, 63, 80
3, 197886, Note_on_c, 1, 66, 80
3, 197971, Note_on_c, 1, 66, 0
3, 198104, Note_on_c, 1, 64, 80
3, 198107, Note_on_c, 1, 67, 80
3, 198108, Note_on_c, 1, 63, 0
3, 198282, Note_on_c, 1, 64, 0
3, 198284, Note_on_c, 1, 59, 80
3, 198483, Note_on_c, 1, 57, 80
3, 198489, Note_on_c, 1, 59, 0
3, 198665, Note_on_c, 1, 59, 80
3, 198675, Note_on_c, 1, 57, 0
3, 198743, Note_on_c, 1, 59, 0
3, 198872, Note_on_c, 1, 55, 80
3, 199062, Note_on_c, 1, 67, 0
3, 199073, Note_on_c, 1, 59, 80
3, 199250, Note_on_c, 1, 60, 80
3, 199256, Note_on_c, 1, 59, 0
3, 199440, Note_on_c, 1, 62, 80
3, 199450, Note_on_c, 1, 60, 0
3, 199571, Note_on_c, 1, 62, 0
3, 199653, Note_on_c, 1, 64, 80
3, 199836, Note_on_c, 1, 62, 80
3, 199859, Note_on_c, 1, 64, 0
3, 200026, Note_on_c, 1, 62, 0
3, 200028, Note_on_c, 1, 60, 80
3, 200205, Note_on_c, 1, 60, 0
3, 200206, Note_on_c, 1, 59, 80
3, 200369, Note_on_c, 1, 59, 0
3, 200402, Note_on_c, 1, 57, 80
3, 200403, Note_on_c, 1, 54, 80
3, 200504, Note_on_c, 1, 55, 0
3, 200592, Note_on_c, 1, 62, 80
3, 200607, Note_on_c, 1, 57, 0
3, 200768, Note_on_c, 1, 62, 0
3, 200771, Note_on_c, 1, 60, 80
3, 200942, Note_on_c, 1, 62, 80
3, 200945, Note_on_c, 1, 60, 0
3, 201070, Note_on_c, 1, 62, 0
3, 201132, Note_on_c, 1, 54, 0
3, 201143, Note_on_c, 1, 59, 80
3, 201152, Note_on_c, 1, 55, 80
3, 201359, Note_on_c, 1, 59, 0
3, 201532, Note_on_c, 1, 55, 0
3, 201533, Note_on_c, 1, 59, 80
3, 201917, Note_on_c, 1, 64, 80
3, 201918, Note_on_c, 1, 59, 0
3, 202124, Note_on_c, 1, 67, 80
3, 202295, Note_on_c, 1, 64, 0
3, 202296, Note_on_c, 1, 62, 80
3, 202323, Note_on_c, 1, 66, 80
3, 202327, Note_on_c, 1, 67, 0
3, 202497, Note_on_c, 1, 66, 0
3, 202504, Note_on_c, 1, 67, 80
3, 202706, Note_on_c, 1, 61, 80
3, 202707, Note_on_c, 1, 67, 0
3, 202707, Note_on_c, 1, 64, 80
3, 202738, Note_on_c, 1, 62, 0
3, 203098, Note_on_c, 1, 61, 0
3, 203101, Note_on_c, 1, 57, 80
3, 203461, Note_on_c, 1, 62, 80
3, 203467, Note_on_c, 1, 57, 0
3, 203475, Note_on_c, 1, 64, 0
3, 203658, Note_on_c, 1, 69, 80
3, 203862, Note_on_c, 1, 67, 80
3, 203867, Note_on_c, 1, 64, 80
3, 203873, Note_on_c, 1, 62, 0
3, 203873, Note_on_c, 1, 69, 0
3, 204055, Note_on_c, 1, 67, 0
3, 204056, Note_on_c, 1, 69, 80
3, 204254, Note_on_c, 1, 66, 80
3, 204257, Note_on_c, 1, 69, 0
3, 204291, Note_on_c, 1, 64, 0
3, 204440, Note_on_c, 1, 64, 80
3, 204629, Note_on_c, 1, 64, 0
3, 204630, Note_on_c, 1, 62, 80
3, 204810, Note_on_c, 1, 61, 80
3, 204815, Note_on_c, 1, 62, 0
3, 205016, Note_on_c, 1, 61, 0
3, 205035, Note_on_c, 1, 62, 80
3, 205201, Note_on_c, 1, 67, 80
3, 205206, Note_on_c, 1, 66, 0
3, 205395, Note_on_c, 1, 67, 0
3, 205396, Note_on_c, 1, 64, 80
3, 205578, Note_on_c, 1, 66, 80
3, 205598, Note_on_c, 1, 64, 0
3, 205776, Note_on_c, 1, 66, 0
3, 205781, Note_on_c, 1, 67, 80
3, 205987, Note_on_c, 1, 65, 80
3, 206011, Note_on_c, 1, 67, 0
3, 206160, Note_on_c, 1, 65, 0
3, 206170, Note_on_c, 1, 64, 80
3, 206297, Note_on_c, 1, 62, 0
3, 206350, Note_on_c, 1, 64, 0
3, 206352, Note_on_c, 1, 62, 80
3, 206542, Note_on_c, 1, 62, 0
3, 206551, Note_on_c, 1, 64, 80
3, 206739, Note_on_c, 1, 59, 80
3, 206935, Note_on_c, 1, 59, 0
3, 206937, Note_on_c, 1, 60, 80
3, 207097, Note_on_c, 1, 54, 80
3, 207118, Note_on_c, 1, 60, 0
3, 207292, Note_on_c, 1, 54, 0
3, 207304, Note_on_c, 1, 62, 80
3, 207308, Note_on_c, 1, 64, 0
3, 207308, Note_on_c, 1, 55, 80
3, 207488, Note_on_c, 1, 60, 80
3, 207495, Note_on_c, 1, 62, 0
3, 207683, Note_on_c, 1, 62, 80
3, 207687, Note_on_c, 1, 60, 0
3, 207857, Note_on_c, 1, 64, 80
3, 207863, Note_on_c, 1, 62, 0
3, 207964, Note_on_c, 1, 64, 0
3, 208056, Note_on_c, 1, 62, 80
3, 208250, Note_on_c, 1, 65, 80
3, 208253, Note_on_c, 1, 62, 0
3, 208444, Note_on_c, 1, 65, 0
3, 208453, Note_on_c, 1, 59, 80
3, 208637, Note_on_c, 1, 62, 80
3, 208655, Note_on_c, 1, 59, 0
3, 208828, Note_on_c, 1, 62, 0
3, 208843, Note_on_c, 1, 60, 80
3, 209040, Note_on_c, 1, 60, 0
3, 209048, Note_on_c, 1, 62, 80
3, 209091, Note_on_c, 1, 55, 0
3, 209232, Note_on_c, 1, 64, 80
3, 209235, Note_on_c, 1, 62, 0
3, 209429, Note_on_c, 1, 60, 80
3, 209624, Note_on_c, 1, 62, 80
3, 209632, Note_on_c, 1, 64, 0
3, 209683, Note_on_c, 1, 60, 0
3, 209813, Note_on_c, 1, 60, 80
3, 210005, Note_on_c, 1, 59, 80
3, 210008, Note_on_c, 1, 60, 0
3, 210200, Note_on_c, 1, 57, 80
3, 210202, Note_on_c, 1, 59, 0
3, 210403, Note_on_c, 1, 59, 80
3, 210411, Note_on_c, 1, 57, 0
3, 210576, Note_on_c, 1, 62, 0
3, 210592, Note_on_c, 1, 60, 80
3, 210769, Note_on_c, 1, 62, 80
3, 210796, Note_on_c, 1, 60, 0
3, 210956, Note_on_c, 1, 64, 80
3, 210990, Note_on_c, 1, 62, 0
3, 211153, Note_on_c, 1, 64, 0
3, 211156, Note_on_c, 1, 62, 80
3, 211358, Note_on_c, 1, 62, 0
3, 211360, Note_on_c, 1, 64, 80
3, 211522, Note_on_c, 1, 64, 0
3, 211527, Note_on_c, 1, 65, 80
3, 211540, Note_on_c, 1, 59, 0
3, 211708, Note_on_c, 1, 59, 80
3, 211770, Note_on_c, 1, 59, 0
3, 211919, Note_on_c, 1, 60, 80
3, 212113, Note_on_c, 1, 64, 80
3, 212129, Note_on_c, 1, 65, 0
3, 212254, Note_on_c, 1, 60, 0
3, 212306, Note_on_c, 1, 62, 80
3, 212318, Note_on_c, 1, 64, 0
3, 212468, Note_on_c, 1, 53, 80
3, 212530, Note_on_c, 1, 53, 0
3, 212694, Note_on_c, 1, 52, 80
3, 212885, Note_on_c, 1, 60, 80
3, 212892, Note_on_c, 1, 62, 0
3, 213049, Note_on_c, 1, 50, 80
3, 213056, Note_on_c, 1, 52, 0
3, 213239, Note_on_c, 1, 59, 80
3, 213244, Note_on_c, 1, 60, 0
3, 213438, Note_on_c, 1, 50, 0
3, 213464, Note_on_c, 1, 52, 80
3, 213467, Note_on_c, 1, 60, 80
3, 213477, Note_on_c, 1, 59, 0
3, 213656, Note_on_c, 1, 50, 80
3, 213665, Note_on_c, 1, 52, 0
3, 213852, Note_on_c, 1, 52, 80
3, 213887, Note_on_c, 1, 50, 0
3, 214041, Note_on_c, 1, 53, 80
3, 214048, Note_on_c, 1, 52, 0
3, 214225, Note_on_c, 1, 53, 0
3, 214233, Note_on_c, 1, 55, 80
3, 214415, Note_on_c, 1, 53, 80
3, 214447, Note_on_c, 1, 55, 0
3, 214613, Note_on_c, 1, 52, 80
3, 214617, Note_on_c, 1, 53, 0
3, 214802, Note_on_c, 1, 53, 80
3, 214808, Note_on_c, 1, 52, 0
3, 214977, Note_on_c, 1, 53, 0
3, 214982, Note_on_c, 1, 50, 80
3, 215013, Note_on_c, 1, 60, 0
3, 215193, Note_on_c, 1, 60, 80
3, 215384, Note_on_c, 1, 59, 80
3, 215406, Note_on_c, 1, 60, 0
3, 215575, Note_on_c, 1, 57, 80
3, 215582, Note_on_c, 1, 59, 0
3, 215758, Note_on_c, 1, 57, 0
3, 215765, Note_on_c, 1, 59, 80
3, 215941, Note_on_c, 1, 55, 80
3, 216128, Note_on_c, 1, 50, 0
3, 216131, Note_on_c, 1, 59, 0
3, 216135, Note_on_c, 1, 48, 80
3, 216135, Note_on_c, 1, 57, 80
3, 216152, Note_on_c, 1, 55, 0
3, 216319, Note_on_c, 1, 54, 80
3, 216510, Note_on_c, 1, 54, 0
3, 216535, Note_on_c, 1, 57, 0
3, 216540, Note_on_c, 1, 59, 80
3, 216544, Note_on_c, 1, 55, 80
3, 216549, Note_on_c, 1, 50, 80
3, 216553, Note_on_c, 1, 48, 0
3, 218079, Note_on_c, 1, 59, 0
3, 218084, Note_on_c, 1, 55, 0
3, 218088, Note_on_c, 1, 50, 0
3, 218088, End_track
4, 0, Start_track
4, 0, Title_t, "Man 4"
4, 0, MIDI_port, 0
4, 0, Control_c, 3, 7, 108
4, 0, Control_c, 3, 91, 85
4, 0, Control_c, 3, 10, 93
4, 0, Program_c, 3, 19
4, 729, Note_on_c, 3, 74, 80
4, 1381, Note_on_c, 3, 74, 0
4, 1472, Note_on_c, 3, 74, 80
4, 2118, Note_on_c, 3, 74, 0
4, 2233, Note_on_c, 3, 74, 80
4, 2233, Note_on_c, 3, 67, 80
4, 2962, Note_on_c, 3, 67, 0
4, 2981, Note_on_c, 3, 74, 0
4, 3020, Note_on_c, 3, 76, 80
4, 3033, Note_on_c, 3, 67, 80
4, 3692, Note_on_c, 3, 76, 0
4, 3717, Note_on_c, 3, 67, 0
4, 3827, Note_on_c, 3, 67, 80
4, 3833, Note_on_c, 3, 77, 80
4, 3877, Note_on_c, 3, 77, 0
4, 3878, Note_on_c, 3, 76, 80
4, 3942, Note_on_c, 3, 77, 80
4, 3974, Note_on_c, 3, 77, 0
4, 4032, Note_on_c, 3, 74, 80
4, 4044, Note_on_c, 3, 76, 0
4, 4185, Note_on_c, 3, 76, 80
4, 4204, Note_on_c, 3, 74, 0
4, 4352, Note_on_c, 3, 77, 80
4, 4364, Note_on_c, 3, 76, 0
4, 4537, Note_on_c, 3, 77, 0
4, 4543, Note_on_c, 3, 67, 0
4, 4544, Note_on_c, 3, 74, 80
4, 4544, Note_on_c, 3, 71, 80
4, 4928, Note_on_c, 3, 76, 80
4, 4934, Note_on_c, 3, 74, 0
4, 5100, Note_on_c, 3, 78, 80
4, 5139, Note_on_c, 3, 76, 0
4, 5152, Note_on_c, 3, 71, 0
4, 5299, Note_on_c, 3, 72, 80
4, 5304, Note_on_c, 3, 78, 0
4, 5305, Note_on_c, 3, 79, 80
4, 5363, Note_on_c, 3, 71, 80
4, 5414, Note_on_c, 3, 72, 0
4, 5510, Note_on_c, 3, 69, 80
4, 5516, Note_on_c, 3, 71, 0
4, 5708, Note_on_c, 3, 71, 80
4, 5734, Note_on_c, 3, 69, 0
4, 5912, Note_on_c, 3, 71, 0
4, 5913, Note_on_c, 3, 72, 80
4, 6118, Note_on_c, 3, 69, 80
4, 6124, Note_on_c, 3, 72, 0
4, 6489, Note_on_c, 3, 71, 80
4, 6495, Note_on_c, 3, 69, 0
4, 6681, Note_on_c, 3, 73, 80
4, 6687, Note_on_c, 3, 71, 0
4, 6886, Note_on_c, 3, 74, 80
4, 6892, Note_on_c, 3, 73, 0
4, 7078, Note_on_c, 3, 78, 80
4, 7090, Note_on_c, 3, 79, 0
4, 7270, Note_on_c, 3, 76, 80
4, 7276, Note_on_c, 3, 78, 0
4, 7481, Note_on_c, 3, 78, 80
4, 7500, Note_on_c, 3, 76, 0
4, 7686, Note_on_c, 3, 79, 80
4, 7698, Note_on_c, 3, 78, 0
4, 8057, Note_on_c, 3, 81, 80
4, 8063, Note_on_c, 3, 79, 0
4, 8262, Note_on_c, 3, 83, 80
4, 8274, Note_on_c, 3, 81, 0
4, 8460, Note_on_c, 3, 83, 0
4, 8467, Note_on_c, 3, 81, 80
4, 8480, Note_on_c, 3, 72, 80
4, 8505, Note_on_c, 3, 74, 0
4, 8851, Note_on_c, 3, 79, 80
4, 8870, Note_on_c, 3, 81, 0
4, 9235, Note_on_c, 3, 78, 80
4, 9241, Note_on_c, 3, 79, 0
4, 9644, Note_on_c, 3, 79, 80
4, 9663, Note_on_c, 3, 78, 0
4, 9830, Note_on_c, 3, 81, 80
4, 9842, Note_on_c, 3, 79, 0
4, 10054, Note_on_c, 3, 81, 0
4, 10054, Note_on_c, 3, 74, 80
4, 10240, Note_on_c, 3, 71, 80
4, 10272, Note_on_c, 3, 72, 0
4, 10335, Note_on_c, 3, 74, 0
4, 10451, Note_on_c, 3, 69, 80
4, 10451, Note_on_c, 3, 79, 80
4, 10457, Note_on_c, 3, 71, 0
4, 10649, Note_on_c, 3, 71, 80
4, 10681, Note_on_c, 3, 69, 0
4, 10847, Note_on_c, 3, 71, 0
4, 10848, Note_on_c, 3, 72, 80
4, 10848, Note_on_c, 3, 76, 80
4, 10860, Note_on_c, 3, 79, 0
4, 11232, Note_on_c, 3, 78, 80
4, 11238, Note_on_c, 3, 76, 0
4, 11244, Note_on_c, 3, 74, 80
4, 11251, Note_on_c, 3, 72, 0
4, 11424, Note_on_c, 3, 78, 0
4, 11430, Note_on_c, 3, 76, 80
4, 11430, Note_on_c, 3, 79, 80
4, 11442, Note_on_c, 3, 74, 0
4, 11635, Note_on_c, 3, 74, 80
4, 11635, Note_on_c, 3, 81, 80
4, 11641, Note_on_c, 3, 76, 0
4, 11654, Note_on_c, 3, 79, 0
4, 11993, Note_on_c, 3, 72, 80
4, 12006, Note_on_c, 3, 74, 0
4, 12352, Note_on_c, 3, 71, 80
4, 12370, Note_on_c, 3, 72, 0
4, 12710, Note_on_c, 3, 81, 0
4, 12716, Note_on_c, 3, 79, 80
4, 12729, Note_on_c, 3, 72, 80
4, 12748, Note_on_c, 3, 71, 0
4, 12921, Note_on_c, 3, 72, 0
4, 12921, Note_on_c, 3, 74, 80
4, 13126, Note_on_c, 3, 76, 80
4, 13126, Note_on_c, 3, 84, 80
4, 13132, Note_on_c, 3, 79, 0
4, 13138, Note_on_c, 3, 74, 0
4, 13484, Note_on_c, 3, 78, 80
4, 13516, Note_on_c, 3, 76, 0
4, 13695, Note_on_c, 3, 78, 0
4, 13696, Note_on_c, 3, 79, 80
4, 13907, Note_on_c, 3, 79, 0
4, 13907, Note_on_c, 3, 81, 80
4, 14193, Note_on_c, 3, 84, 0
4, 14252, Note_on_c, 3, 81, 0
4, 14259, Note_on_c, 3, 78, 80
4, 14259, Note_on_c, 3, 83, 80
4, 14451, Note_on_c, 3, 81, 80
4, 14463, Note_on_c, 3, 83, 0
4, 14649, Note_on_c, 3, 78, 0
4, 14649, Note_on_c, 3, 83, 80
4, 14655, Note_on_c, 3, 81, 0
4, 14656, Note_on_c, 3, 79, 80
4, 15059, Note_on_c, 3, 84, 80
4, 15065, Note_on_c, 3, 83, 0
4, 15238, Note_on_c, 3, 83, 80
4, 15257, Note_on_c, 3, 84, 0
4, 15308, Note_on_c, 3, 83, 0
4, 15449, Note_on_c, 3, 81, 80
4, 15456, Note_on_c, 3, 79, 0
4, 15827, Note_on_c, 3, 74, 80
4, 16518, Note_on_c, 3, 74, 0
4, 16561, Note_on_c, 3, 72, 80
4, 16909, Note_on_c, 3, 71, 80
4, 16925, Note_on_c, 3, 72, 0
4, 17248, Note_on_c, 3, 79, 80
4, 17273, Note_on_c, 3, 81, 0
4, 17427, Note_on_c, 3, 78, 80
4, 17440, Note_on_c, 3, 79, 0
4, 17631, Note_on_c, 3, 78, 0
4, 17632, Note_on_c, 3, 79, 80
4, 17990, Note_on_c, 3, 69, 80
4, 18041, Note_on_c, 3, 71, 0
4, 18188, Note_on_c, 3, 71, 80
4, 18214, Note_on_c, 3, 69, 0
4, 18386, Note_on_c, 3, 71, 0
4, 18387, Note_on_c, 3, 72, 80
4, 18758, Note_on_c, 3, 72, 0
4, 18758, Note_on_c, 3, 76, 80
4, 18937, Note_on_c, 3, 76, 0
4, 18937, Note_on_c, 3, 74, 80
4, 19142, Note_on_c, 3, 81, 80
4, 19154, Note_on_c, 3, 74, 0
4, 19155, Note_on_c, 3, 79, 0
4, 19155, Note_on_c, 3, 76, 80
4, 19539, Note_on_c, 3, 76, 0
4, 19545, Note_on_c, 3, 83, 80
4, 19552, Note_on_c, 3, 71, 80
4, 19558, Note_on_c, 3, 81, 0
4, 19897, Note_on_c, 3, 83, 0
4, 19910, Note_on_c, 3, 76, 80
4, 19923, Note_on_c, 3, 72, 80
4, 19948, Note_on_c, 3, 71, 0
4, 20096, Note_on_c, 3, 74, 80
4, 20114, Note_on_c, 3, 76, 0
4, 20288, Note_on_c, 3, 76, 80
4, 20307, Note_on_c, 3, 74, 0
4, 20467, Note_on_c, 3, 78, 80
4, 20492, Note_on_c, 3, 76, 0
4, 20659, Note_on_c, 3, 78, 0
4, 20665, Note_on_c, 3, 79, 80
4, 21049, Note_on_c, 3, 79, 0
4, 21062, Note_on_c, 3, 76, 80
4, 21433, Note_on_c, 3, 81, 80
4, 21452, Note_on_c, 3, 76, 0
4, 21817, Note_on_c, 3, 79, 80
4, 21836, Note_on_c, 3, 81, 0
4, 21996, Note_on_c, 3, 78, 80
4, 22009, Note_on_c, 3, 79, 0
4, 22207, Note_on_c, 3, 78, 0
4, 22208, Note_on_c, 3, 79, 80
4, 22208, Note_on_c, 3, 71, 80
4, 22227, Note_on_c, 3, 72, 0
4, 22598, Note_on_c, 3, 72, 80
4, 22624, Note_on_c, 3, 71, 0
4, 22796, Note_on_c, 3, 71, 80
4, 22828, Note_on_c, 3, 72, 0
4, 22988, Note_on_c, 3, 69, 80
4, 23000, Note_on_c, 3, 71, 0
4, 23385, Note_on_c, 3, 67, 80
4, 23416, Note_on_c, 3, 69, 0
4, 23756, Note_on_c, 3, 78, 80
4, 23763, Note_on_c, 3, 69, 80
4, 23776, Note_on_c, 3, 79, 0
4, 23781, Note_on_c, 3, 67, 0
4, 24134, Note_on_c, 3, 71, 80
4, 24172, Note_on_c, 3, 69, 0
4, 24313, Note_on_c, 3, 72, 80
4, 24319, Note_on_c, 3, 71, 0
4, 24524, Note_on_c, 3, 79, 80
4, 24524, Note_on_c, 3, 71, 80
4, 24530, Note_on_c, 3, 72, 0
4, 24536, Note_on_c, 3, 78, 0
4, 25029, Note_on_c, 3, 71, 0
4, 25221, Note_on_c, 3, 79, 0
4, 25312, Note_on_c, 3, 71, 80
4, 25715, Note_on_c, 3, 83, 80
4, 26079, Note_on_c, 3, 83, 0
4, 26092, Note_on_c, 3, 76, 80
4, 26099, Note_on_c, 3, 72, 80
4, 26112, Note_on_c, 3, 71, 0
4, 26437, Note_on_c, 3, 76, 0
4, 26451, Note_on_c, 3, 81, 80
4, 26743, Note_on_c, 3, 81, 0
4, 26816, Note_on_c, 3, 74, 80
4, 26816, Note_on_c, 3, 71, 80
4, 26847, Note_on_c, 3, 72, 0
4, 27206, Note_on_c, 3, 74, 0
4, 27206, Note_on_c, 3, 79, 80
4, 27577, Note_on_c, 3, 69, 80
4, 27596, Note_on_c, 3, 71, 0
4, 27890, Note_on_c, 3, 79, 0
4, 27974, Note_on_c, 3, 78, 80
4, 28345, Note_on_c, 3, 71, 80
4, 28383, Note_on_c, 3, 69, 0
4, 28722, Note_on_c, 3, 78, 0
4, 28723, Note_on_c, 3, 76, 80
4, 29120, Note_on_c, 3, 69, 80
4, 29138, Note_on_c, 3, 71, 0
4, 29510, Note_on_c, 3, 75, 80
4, 29542, Note_on_c, 3, 76, 0
4, 29708, Note_on_c, 3, 73, 80
4, 29721, Note_on_c, 3, 75, 0
4, 29907, Note_on_c, 3, 75, 80
4, 29944, Note_on_c, 3, 73, 0
4, 30099, Note_on_c, 3, 76, 80
4, 30111, Note_on_c, 3, 75, 0
4, 30297, Note_on_c, 3, 73, 80
4, 30303, Note_on_c, 3, 76, 0
4, 30470, Note_on_c, 3, 75, 80
4, 30482, Note_on_c, 3, 73, 0
4, 30662, Note_on_c, 3, 75, 0
4, 30668, Note_on_c, 3, 76, 80
4, 30681, Note_on_c, 3, 67, 80
4, 30707, Note_on_c, 3, 69, 0
4, 30867, Note_on_c, 3, 69, 80
4, 30873, Note_on_c, 3, 78, 80
4, 30879, Note_on_c, 3, 67, 0
4, 30885, Note_on_c, 3, 76, 0
4, 31058, Note_on_c, 3, 78, 0
4, 31059, Note_on_c, 3, 71, 80
4, 31065, Note_on_c, 3, 79, 80
4, 31071, Note_on_c, 3, 69, 0
4, 31264, Note_on_c, 3, 73, 80
4, 31270, Note_on_c, 3, 71, 0
4, 31462, Note_on_c, 3, 73, 0
4, 31468, Note_on_c, 3, 78, 80
4, 31475, Note_on_c, 3, 74, 80
4, 31493, Note_on_c, 3, 79, 0
4, 32146, Note_on_c, 3, 78, 0
4, 32160, Note_on_c, 3, 76, 80
4, 32588, Note_on_c, 3, 73, 80
4, 32620, Note_on_c, 3, 74, 0
4, 32998, Note_on_c, 3, 78, 80
4, 33017, Note_on_c, 3, 76, 0
4, 33190, Note_on_c, 3, 70, 80
4, 33215, Note_on_c, 3, 73, 0
4, 33382, Note_on_c, 3, 71, 80
4, 33426, Note_on_c, 3, 70, 0
4, 33554, Note_on_c, 3, 71, 0
4, 33574, Note_on_c, 3, 74, 80
4, 33785, Note_on_c, 3, 74, 0
4, 33785, Note_on_c, 3, 68, 80
4, 33785, Note_on_c, 3, 76, 80
4, 33791, Note_on_c, 3, 78, 0
4, 34150, Note_on_c, 3, 70, 80
4, 34162, Note_on_c, 3, 68, 0
4, 34335, Note_on_c, 3, 70, 0
4, 34342, Note_on_c, 3, 71, 80
4, 34528, Note_on_c, 3, 70, 80
4, 34534, Note_on_c, 3, 71, 0
4, 34720, Note_on_c, 3, 70, 0
4, 34720, Note_on_c, 3, 71, 80
4, 34912, Note_on_c, 3, 68, 80
4, 34918, Note_on_c, 3, 71, 0
4, 35091, Note_on_c, 3, 70, 80
4, 35116, Note_on_c, 3, 68, 0
4, 35263, Note_on_c, 3, 70, 0
4, 35283, Note_on_c, 3, 71, 80
4, 35283, Note_on_c, 3, 74, 80
4, 35295, Note_on_c, 3, 76, 0
4, 35481, Note_on_c, 3, 66, 80
4, 35487, Note_on_c, 3, 71, 0
4, 35673, Note_on_c, 3, 66, 0
4, 35673, Note_on_c, 3, 71, 80
4, 35859, Note_on_c, 3, 69, 80
4, 35884, Note_on_c, 3, 71, 0
4, 36038, Note_on_c, 3, 67, 80
4, 36070, Note_on_c, 3, 69, 0
4, 36076, Note_on_c, 3, 74, 0
4, 36243, Note_on_c, 3, 74, 80
4, 36441, Note_on_c, 3, 79, 80
4, 36447, Note_on_c, 3, 74, 0
4, 36627, Note_on_c, 3, 78, 80
4, 36633, Note_on_c, 3, 79, 0
4, 36819, Note_on_c, 3, 78, 0
4, 36819, Note_on_c, 3, 76, 80
4, 37017, Note_on_c, 3, 64, 80
4, 37049, Note_on_c, 3, 67, 0
4, 37215, Note_on_c, 3, 64, 0
4, 37216, Note_on_c, 3, 69, 80
4, 37407, Note_on_c, 3, 76, 0
4, 37408, Note_on_c, 3, 84, 80
4, 37536, Note_on_c, 3, 84, 0
4, 37612, Note_on_c, 3, 74, 80
4, 37797, Note_on_c, 3, 74, 0
4, 37804, Note_on_c, 3, 72, 80
4, 37976, Note_on_c, 3, 72, 0
4, 38003, Note_on_c, 3, 74, 80
4, 38009, Note_on_c, 3, 67, 80
4, 38041, Note_on_c, 3, 69, 0
4, 38201, Note_on_c, 3, 76, 80
4, 38214, Note_on_c, 3, 74, 0
4, 38393, Note_on_c, 3, 76, 0
4, 38400, Note_on_c, 3, 72, 80
4, 38598, Note_on_c, 3, 72, 0
4, 38598, Note_on_c, 3, 76, 80
4, 38783, Note_on_c, 3, 76, 0
4, 38784, Note_on_c, 3, 74, 80
4, 38790, Note_on_c, 3, 66, 80
4, 38815, Note_on_c, 3, 67, 0
4, 38988, Note_on_c, 3, 74, 0
4, 38995, Note_on_c, 3, 72, 80
4, 39193, Note_on_c, 3, 72, 0
4, 39193, Note_on_c, 3, 74, 80
4, 39385, Note_on_c, 3, 72, 80
4, 39404, Note_on_c, 3, 74, 0
4, 39577, Note_on_c, 3, 72, 0
4, 39577, Note_on_c, 3, 71, 80
4, 39584, Note_on_c, 3, 67, 80
4, 39609, Note_on_c, 3, 66, 0
4, 39763, Note_on_c, 3, 74, 80
4, 39769, Note_on_c, 3, 71, 0
4, 39833, Note_on_c, 3, 74, 0
4, 39980, Note_on_c, 3, 72, 80
4, 40357, Note_on_c, 3, 72, 0
4, 40364, Note_on_c, 3, 81, 80
4, 40371, Note_on_c, 3, 66, 80
4, 40396, Note_on_c, 3, 67, 0
4, 40569, Note_on_c, 3, 64, 80
4, 40588, Note_on_c, 3, 66, 0
4, 40774, Note_on_c, 3, 66, 80
4, 40812, Note_on_c, 3, 64, 0
4, 41100, Note_on_c, 3, 81, 0
4, 41152, Note_on_c, 3, 72, 80
4, 41536, Note_on_c, 3, 67, 80
4, 41536, Note_on_c, 3, 71, 80
4, 41548, Note_on_c, 3, 72, 0
4, 41554, Note_on_c, 3, 66, 0
4, 41900, Note_on_c, 3, 72, 80
4, 41926, Note_on_c, 3, 71, 0
4, 42092, Note_on_c, 3, 74, 80
4, 42111, Note_on_c, 3, 72, 0
4, 42277, Note_on_c, 3, 74, 0
4, 42291, Note_on_c, 3, 76, 80
4, 42624, Note_on_c, 3, 66, 80
4, 42643, Note_on_c, 3, 67, 0
4, 42809, Note_on_c, 3, 67, 80
4, 42822, Note_on_c, 3, 66, 0
4, 42988, Note_on_c, 3, 69, 80
4, 42994, Note_on_c, 3, 67, 0
4, 43359, Note_on_c, 3, 76, 0
4, 43360, Note_on_c, 3, 74, 80
4, 43552, Note_on_c, 3, 76, 80
4, 43571, Note_on_c, 3, 74, 0
4, 43763, Note_on_c, 3, 76, 0
4, 43763, Note_on_c, 3, 78, 80
4, 44095, Note_on_c, 3, 78, 0
4, 44108, Note_on_c, 3, 76, 80
4, 44108, Note_on_c, 3, 67, 80
4, 44120, Note_on_c, 3, 69, 0
4, 44294, Note_on_c, 3, 69, 80
4, 44294, Note_on_c, 3, 78, 80
4, 44306, Note_on_c, 3, 76, 0
4, 44325, Note_on_c, 3, 67, 0
4, 44518, Note_on_c, 3, 79, 80
4, 44518, Note_on_c, 3, 71, 80
4, 44524, Note_on_c, 3, 69, 0
4, 44537, Note_on_c, 3, 78, 0
4, 44857, Note_on_c, 3, 72, 80
4, 44876, Note_on_c, 3, 71, 0
4, 45049, Note_on_c, 3, 74, 80
4, 45055, Note_on_c, 3, 72, 0
4, 45247, Note_on_c, 3, 74, 0
4, 45248, Note_on_c, 3, 76, 80
4, 45625, Note_on_c, 3, 74, 80
4, 45625, Note_on_c, 3, 78, 80
4, 45632, Note_on_c, 3, 76, 0
4, 45663, Note_on_c, 3, 79, 0
4, 46002, Note_on_c, 3, 78, 0
4, 46015, Note_on_c, 3, 74, 0
4, 46016, Note_on_c, 3, 76, 80
4, 46016, Note_on_c, 3, 72, 80
4, 46764, Note_on_c, 3, 74, 80
4, 46784, Note_on_c, 3, 76, 0
4, 47520, Note_on_c, 3, 71, 80
4, 47545, Note_on_c, 3, 72, 0
4, 47910, Note_on_c, 3, 76, 80
4, 47941, Note_on_c, 3, 74, 0
4, 48102, Note_on_c, 3, 78, 80
4, 48134, Note_on_c, 3, 76, 0
4, 48300, Note_on_c, 3, 78, 0
4, 48313, Note_on_c, 3, 79, 80
4, 48684, Note_on_c, 3, 72, 80
4, 48697, Note_on_c, 3, 71, 0
4, 48889, Note_on_c, 3, 74, 80
4, 48901, Note_on_c, 3, 72, 0
4, 49088, Note_on_c, 3, 76, 80
4, 49093, Note_on_c, 3, 74, 0
4, 49286, Note_on_c, 3, 81, 80
4, 49305, Note_on_c, 3, 79, 0
4, 49478, Note_on_c, 3, 79, 80
4, 49490, Note_on_c, 3, 81, 0
4, 49670, Note_on_c, 3, 78, 80
4, 49689, Note_on_c, 3, 79, 0
4, 49862, Note_on_c, 3, 78, 0
4, 49868, Note_on_c, 3, 79, 80
4, 49900, Note_on_c, 3, 76, 0
4, 50240, Note_on_c, 3, 76, 80
4, 50630, Note_on_c, 3, 69, 80
4, 50656, Note_on_c, 3, 76, 0
4, 50661, Note_on_c, 3, 79, 0
4, 50828, Note_on_c, 3, 79, 80
4, 51039, Note_on_c, 3, 69, 0
4, 51040, Note_on_c, 3, 74, 80
4, 51046, Note_on_c, 3, 78, 80
4, 51064, Note_on_c, 3, 79, 0
4, 51244, Note_on_c, 3, 76, 80
4, 51250, Note_on_c, 3, 78, 0
4, 51436, Note_on_c, 3, 76, 0
4, 51456, Note_on_c, 3, 78, 80
4, 51616, Note_on_c, 3, 74, 0
4, 51820, Note_on_c, 3, 72, 80
4, 52204, Note_on_c, 3, 71, 80
4, 52210, Note_on_c, 3, 72, 0
4, 52256, Note_on_c, 3, 78, 0
4, 52384, Note_on_c, 3, 78, 80
4, 52576, Note_on_c, 3, 76, 80
4, 52582, Note_on_c, 3, 78, 0
4, 52768, Note_on_c, 3, 76, 0
4, 52774, Note_on_c, 3, 75, 80
4, 52959, Note_on_c, 3, 75, 0
4, 52960, Note_on_c, 3, 76, 80
4, 53145, Note_on_c, 3, 69, 80
4, 53164, Note_on_c, 3, 71, 0
4, 53350, Note_on_c, 3, 71, 80
4, 53381, Note_on_c, 3, 69, 0
4, 53529, Note_on_c, 3, 72, 80
4, 53554, Note_on_c, 3, 71, 0
4, 53715, Note_on_c, 3, 76, 0
4, 53721, Note_on_c, 3, 74, 80
4, 53740, Note_on_c, 3, 72, 0
4, 53913, Note_on_c, 3, 72, 80
4, 54099, Note_on_c, 3, 71, 80
4, 54105, Note_on_c, 3, 72, 0
4, 54271, Note_on_c, 3, 71, 0
4, 54278, Note_on_c, 3, 69, 80
4, 54476, Note_on_c, 3, 69, 0
4, 54489, Note_on_c, 3, 67, 80
4, 54527, Note_on_c, 3, 74, 0
4, 54675, Note_on_c, 3, 65, 80
4, 54693, Note_on_c, 3, 67, 0
4, 54873, Note_on_c, 3, 64, 80
4, 54879, Note_on_c, 3, 65, 0
4, 55046, Note_on_c, 3, 62, 80
4, 55058, Note_on_c, 3, 64, 0
4, 55244, Note_on_c, 3, 62, 0
4, 55244, Note_on_c, 3, 64, 80
4, 55628, Note_on_c, 3, 67, 80
4, 55980, Note_on_c, 3, 69, 80
4, 55992, Note_on_c, 3, 67, 0
4, 56005, Note_on_c, 3, 64, 0
4, 56364, Note_on_c, 3, 71, 80
4, 56371, Note_on_c, 3, 62, 80
4, 56389, Note_on_c, 3, 69, 0
4, 56575, Note_on_c, 3, 71, 0
4, 56620, Note_on_c, 3, 62, 0
4, 56774, Note_on_c, 3, 72, 80
4, 56774, Note_on_c, 3, 64, 80
4, 57106, Note_on_c, 3, 72, 0
4, 57152, Note_on_c, 3, 66, 80
4, 57152, Note_on_c, 3, 74, 80
4, 57170, Note_on_c, 3, 64, 0
4, 57516, Note_on_c, 3, 74, 0
4, 57523, Note_on_c, 3, 76, 80
4, 57529, Note_on_c, 3, 67, 80
4, 57542, Note_on_c, 3, 66, 0
4, 57913, Note_on_c, 3, 76, 0
4, 57913, Note_on_c, 3, 78, 80
4, 57913, Note_on_c, 3, 69, 80
4, 57919, Note_on_c, 3, 67, 0
4, 58085, Note_on_c, 3, 69, 0
4, 58098, Note_on_c, 3, 78, 0
4, 58310, Note_on_c, 3, 71, 80
4, 58316, Note_on_c, 3, 79, 80
4, 59026, Note_on_c, 3, 79, 0
4, 59058, Note_on_c, 3, 71, 0
4, 59097, Note_on_c, 3, 74, 80
4, 59749, Note_on_c, 3, 74, 0
4, 59840, Note_on_c, 3, 74, 80
4, 60486, Note_on_c, 3, 74, 0
4, 60601, Note_on_c, 3, 74, 80
4, 60601, Note_on_c, 3, 67, 80
4, 61330, Note_on_c, 3, 67, 0
4, 61349, Note_on_c, 3, 74, 0
4, 61388, Note_on_c, 3, 76, 80
4, 61401, Note_on_c, 3, 67, 80
4, 62060, Note_on_c, 3, 76, 0
4, 62085, Note_on_c, 3, 67, 0
4, 62195, Note_on_c, 3, 67, 80
4, 62201, Note_on_c, 3, 77, 80
4, 62245, Note_on_c, 3, 77, 0
4, 62246, Note_on_c, 3, 76, 80
4, 62310, Note_on_c, 3, 77, 80
4, 62342, Note_on_c, 3, 77, 0
4, 62400, Note_on_c, 3, 74, 80
4, 62412, Note_on_c, 3, 76, 0
4, 62553, Note_on_c, 3, 76, 80
4, 62572, Note_on_c, 3, 74, 0
4, 62720, Note_on_c, 3, 77, 80
4, 62732, Note_on_c, 3, 76, 0
4, 62905, Note_on_c, 3, 77, 0
4, 62911, Note_on_c, 3, 67, 0
4, 62912, Note_on_c, 3, 74, 80
4, 62912, Note_on_c, 3, 71, 80
4, 63296, Note_on_c, 3, 76, 80
4, 63302, Note_on_c, 3, 74, 0
4, 63468, Note_on_c, 3, 78, 80
4, 63507, Note_on_c, 3, 76, 0
4, 63520, Note_on_c, 3, 71, 0
4, 63667, Note_on_c, 3, 72, 80
4, 63672, Note_on_c, 3, 78, 0
4, 63673, Note_on_c, 3, 79, 80
4, 63731, Note_on_c, 3, 71, 80
4, 63782, Note_on_c, 3, 72, 0
4, 63878, Note_on_c, 3, 69, 80
4, 63884, Note_on_c, 3, 71, 0
4, 64076, Note_on_c, 3, 71, 80
4, 64102, Note_on_c, 3, 69, 0
4, 64280, Note_on_c, 3, 71, 0
4, 64281, Note_on_c, 3, 72, 80
4, 64486, Note_on_c, 3, 69, 80
4, 64492, Note_on_c, 3, 72, 0
4, 64857, Note_on_c, 3, 71, 80
4, 64863, Note_on_c, 3, 69, 0
4, 65049, Note_on_c, 3, 73, 80
4, 65055, Note_on_c, 3, 71, 0
4, 65254, Note_on_c, 3, 74, 80
4, 65260, Note_on_c, 3, 73, 0
4, 65446, Note_on_c, 3, 78, 80
4, 65458, Note_on_c, 3, 79, 0
4, 65638, Note_on_c, 3, 76, 80
4, 65644, Note_on_c, 3, 78, 0
4, 65849, Note_on_c, 3, 78, 80
4, 65868, Note_on_c, 3, 76, 0
4, 66054, Note_on_c, 3, 79, 80
4, 66066, Note_on_c, 3, 78, 0
4, 66425, Note_on_c, 3, 81, 80
4, 66431, Note_on_c, 3, 79, 0
4, 66630, Note_on_c, 3, 83, 80
4, 66642, Note_on_c, 3, 81, 0
4, 66828, Note_on_c, 3, 83, 0
4, 66835, Note_on_c, 3, 81, 80
4, 66848, Note_on_c, 3, 72, 80
4, 66873, Note_on_c, 3, 74, 0
4, 67219, Note_on_c, 3, 79, 80
4, 67238, Note_on_c, 3, 81, 0
4, 67603, Note_on_c, 3, 78, 80
4, 67609, Note_on_c, 3, 79, 0
4, 68012, Note_on_c, 3, 79, 80
4, 68031, Note_on_c, 3, 78, 0
4, 68198, Note_on_c, 3, 81, 80
4, 68210, Note_on_c, 3, 79, 0
4, 68422, Note_on_c, 3, 81, 0
4, 68422, Note_on_c, 3, 74, 80
4, 68608, Note_on_c, 3, 71, 80
4, 68640, Note_on_c, 3, 72, 0
4, 68703, Note_on_c, 3, 74, 0
4, 68819, Note_on_c, 3, 69, 80
4, 68819, Note_on_c, 3, 79, 80
4, 68825, Note_on_c, 3, 71, 0
4, 69017, Note_on_c, 3, 71, 80
4, 69049, Note_on_c, 3, 69, 0
4, 69215, Note_on_c, 3, 71, 0
4, 69216, Note_on_c, 3, 72, 80
4, 69216, Note_on_c, 3, 76, 80
4, 69228, Note_on_c, 3, 79, 0
4, 69600, Note_on_c, 3, 78, 80
4, 69606, Note_on_c, 3, 76, 0
4, 69612, Note_on_c, 3, 74, 80
4, 69619, Note_on_c, 3, 72, 0
4, 69792, Note_on_c, 3, 78, 0
4, 69798, Note_on_c, 3, 76, 80
4, 69798, Note_on_c, 3, 79, 80
4, 69810, Note_on_c, 3, 74, 0
4, 70003, Note_on_c, 3, 74, 80
4, 70003, Note_on_c, 3, 81, 80
4, 70009, Note_on_c, 3, 76, 0
4, 70022, Note_on_c, 3, 79, 0
4, 70361, Note_on_c, 3, 72, 80
4, 70374, Note_on_c, 3, 74, 0
4, 70720, Note_on_c, 3, 71, 80
4, 70738, Note_on_c, 3, 72, 0
4, 71078, Note_on_c, 3, 81, 0
4, 71084, Note_on_c, 3, 79, 80
4, 71097, Note_on_c, 3, 72, 80
4, 71116, Note_on_c, 3, 71, 0
4, 71289, Note_on_c, 3, 72, 0
4, 71289, Note_on_c, 3, 74, 80
4, 71494, Note_on_c, 3, 76, 80
4, 71494, Note_on_c, 3, 84, 80
4, 71500, Note_on_c, 3, 79, 0
4, 71506, Note_on_c, 3, 74, 0
4, 71852, Note_on_c, 3, 78, 80
4, 71884, Note_on_c, 3, 76, 0
4, 72063, Note_on_c, 3, 78, 0
4, 72064, Note_on_c, 3, 79, 80
4, 72275, Note_on_c, 3, 79, 0
4, 72275, Note_on_c, 3, 81, 80
4, 72561, Note_on_c, 3, 84, 0
4, 72620, Note_on_c, 3, 81, 0
4, 72627, Note_on_c, 3, 78, 80
4, 72627, Note_on_c, 3, 83, 80
4, 72819, Note_on_c, 3, 81, 80
4, 72831, Note_on_c, 3, 83, 0
4, 73017, Note_on_c, 3, 78, 0
4, 73017, Note_on_c, 3, 83, 80
4, 73023, Note_on_c, 3, 81, 0
4, 73024, Note_on_c, 3, 79, 80
4, 73427, Note_on_c, 3, 84, 80
4, 73433, Note_on_c, 3, 83, 0
4, 73606, Note_on_c, 3, 83, 80
4, 73625, Note_on_c, 3, 84, 0
4, 73676, Note_on_c, 3, 83, 0
4, 73817, Note_on_c, 3, 81, 80
4, 73824, Note_on_c, 3, 79, 0
4, 74195, Note_on_c, 3, 74, 80
4, 74886, Note_on_c, 3, 74, 0
4, 74929, Note_on_c, 3, 72, 80
4, 75277, Note_on_c, 3, 71, 80
4, 75293, Note_on_c, 3, 72, 0
4, 75616, Note_on_c, 3, 79, 80
4, 75641, Note_on_c, 3, 81, 0
4, 75795, Note_on_c, 3, 78, 80
4, 75808, Note_on_c, 3, 79, 0
4, 75999, Note_on_c, 3, 78, 0
4, 76000, Note_on_c, 3, 79, 80
4, 76358, Note_on_c, 3, 69, 80
4, 76409, Note_on_c, 3, 71, 0
4, 76556, Note_on_c, 3, 71, 80
4, 76582, Note_on_c, 3, 69, 0
4, 76754, Note_on_c, 3, 71, 0
4, 76755, Note_on_c, 3, 72, 80
4, 77126, Note_on_c, 3, 72, 0
4, 77126, Note_on_c, 3, 76, 80
4, 77305, Note_on_c, 3, 76, 0
4, 77305, Note_on_c, 3, 74, 80
4, 77510, Note_on_c, 3, 81, 80
4, 77522, Note_on_c, 3, 74, 0
4, 77523, Note_on_c, 3, 79, 0
4, 77523, Note_on_c, 3, 76, 80
4, 77907, Note_on_c, 3, 76, 0
4, 77913, Note_on_c, 3, 83, 80
4, 77920, Note_on_c, 3, 71, 80
4, 77926, Note_on_c, 3, 81, 0
4, 78265, Note_on_c, 3, 83, 0
4, 78278, Note_on_c, 3, 76, 80
4, 78291, Note_on_c, 3, 72, 80
4, 78316, Note_on_c, 3, 71, 0
4, 78464, Note_on_c, 3, 74, 80
4, 78482, Note_on_c, 3, 76, 0
4, 78656, Note_on_c, 3, 76, 80
4, 78675, Note_on_c, 3, 74, 0
4, 78835, Note_on_c, 3, 78, 80
4, 78860, Note_on_c, 3, 76, 0
4, 79027, Note_on_c, 3, 78, 0
4, 79033, Note_on_c, 3, 79, 80
4, 79417, Note_on_c, 3, 79, 0
4, 79430, Note_on_c, 3, 76, 80
4, 79801, Note_on_c, 3, 81, 80
4, 79820, Note_on_c, 3, 76, 0
4, 80185, Note_on_c, 3, 79, 80
4, 80204, Note_on_c, 3, 81, 0
4, 80364, Note_on_c, 3, 78, 80
4, 80377, Note_on_c, 3, 79, 0
4, 80575, Note_on_c, 3, 78, 0
4, 80576, Note_on_c, 3, 79, 80
4, 80576, Note_on_c, 3, 71, 80
4, 80595, Note_on_c, 3, 72, 0
4, 80966, Note_on_c, 3, 72, 80
4, 80992, Note_on_c, 3, 71, 0
4, 81164, Note_on_c, 3, 71, 80
4, 81196, Note_on_c, 3, 72, 0
4, 81356, Note_on_c, 3, 69, 80
4, 81368, Note_on_c, 3, 71, 0
4, 81753, Note_on_c, 3, 67, 80
4, 81784, Note_on_c, 3, 69, 0
4, 82124, Note_on_c, 3, 78, 80
4, 82131, Note_on_c, 3, 69, 80
4, 82144, Note_on_c, 3, 79, 0
4, 82149, Note_on_c, 3, 67, 0
4, 82502, Note_on_c, 3, 71, 80
4, 82540, Note_on_c, 3, 69, 0
4, 82681, Note_on_c, 3, 72, 80
4, 82687, Note_on_c, 3, 71, 0
4, 82892, Note_on_c, 3, 79, 80
4, 82892, Note_on_c, 3, 71, 80
4, 82898, Note_on_c, 3, 72, 0
4, 82904, Note_on_c, 3, 78, 0
4, 83397, Note_on_c, 3, 71, 0
4, 83589, Note_on_c, 3, 79, 0
4, 83680, Note_on_c, 3, 71, 80
4, 84083, Note_on_c, 3, 83, 80
4, 84447, Note_on_c, 3, 83, 0
4, 84460, Note_on_c, 3, 76, 80
4, 84467, Note_on_c, 3, 72, 80
4, 84480, Note_on_c, 3, 71, 0
4, 84805, Note_on_c, 3, 76, 0
4, 84819, Note_on_c, 3, 81, 80
4, 85111, Note_on_c, 3, 81, 0
4, 85184, Note_on_c, 3, 74, 80
4, 85184, Note_on_c, 3, 71, 80
4, 85215, Note_on_c, 3, 72, 0
4, 85574, Note_on_c, 3, 74, 0
4, 85574, Note_on_c, 3, 79, 80
4, 85945, Note_on_c, 3, 69, 80
4, 85964, Note_on_c, 3, 71, 0
4, 86258, Note_on_c, 3, 79, 0
4, 86342, Note_on_c, 3, 78, 80
4, 86713, Note_on_c, 3, 71, 80
4, 86751, Note_on_c, 3, 69, 0
4, 87090, Note_on_c, 3, 78, 0
4, 87091, Note_on_c, 3, 76, 80
4, 87488, Note_on_c, 3, 69, 80
4, 87506, Note_on_c, 3, 71, 0
4, 87878, Note_on_c, 3, 75, 80
4, 87910, Note_on_c, 3, 76, 0
4, 88076, Note_on_c, 3, 73, 80
4, 88089, Note_on_c, 3, 75, 0
4, 88275, Note_on_c, 3, 75, 80
4, 88312, Note_on_c, 3, 73, 0
4, 88467, Note_on_c, 3, 76, 80
4, 88479, Note_on_c, 3, 75, 0
4, 88665, Note_on_c, 3, 73, 80
4, 88671, Note_on_c, 3, 76, 0
4, 88838, Note_on_c, 3, 75, 80
4, 88850, Note_on_c, 3, 73, 0
4, 89030, Note_on_c, 3, 75, 0
4, 89036, Note_on_c, 3, 76, 80
4, 89049, Note_on_c, 3, 67, 80
4, 89075, Note_on_c, 3, 69, 0
4, 89235, Note_on_c, 3, 69, 80
4, 89241, Note_on_c, 3, 78, 80
4, 89247, Note_on_c, 3, 67, 0
4, 89253, Note_on_c, 3, 76, 0
4, 89426, Note_on_c, 3, 78, 0
4, 89427, Note_on_c, 3, 71, 80
4, 89433, Note_on_c, 3, 79, 80
4, 89439, Note_on_c, 3, 69, 0
4, 89632, Note_on_c, 3, 73, 80
4, 89638, Note_on_c, 3, 71, 0
4, 89830, Note_on_c, 3, 73, 0
4, 89836, Note_on_c, 3, 78, 80
4, 89843, Note_on_c, 3, 74, 80
4, 89861, Note_on_c, 3, 79, 0
4, 90514, Note_on_c, 3, 78, 0
4, 90528, Note_on_c, 3, 76, 80
4, 90956, Note_on_c, 3, 73, 80
4, 90988, Note_on_c, 3, 74, 0
4, 91366, Note_on_c, 3, 78, 80
4, 91385, Note_on_c, 3, 76, 0
4, 91558, Note_on_c, 3, 70, 80
4, 91583, Note_on_c, 3, 73, 0
4, 91750, Note_on_c, 3, 71, 80
4, 91794, Note_on_c, 3, 70, 0
4, 91922, Note_on_c, 3, 71, 0
4, 91942, Note_on_c, 3, 74, 80
4, 92153, Note_on_c, 3, 74, 0
4, 92153, Note_on_c, 3, 68, 80
4, 92153, Note_on_c, 3, 76, 80
4, 92159, Note_on_c, 3, 78, 0
4, 92518, Note_on_c, 3, 70, 80
4, 92530, Note_on_c, 3, 68, 0
4, 92703, Note_on_c, 3, 70, 0
4, 92710, Note_on_c, 3, 71, 80
4, 92896, Note_on_c, 3, 70, 80
4, 92902, Note_on_c, 3, 71, 0
4, 93088, Note_on_c, 3, 70, 0
4, 93088, Note_on_c, 3, 71, 80
4, 93280, Note_on_c, 3, 68, 80
4, 93286, Note_on_c, 3, 71, 0
4, 93459, Note_on_c, 3, 70, 80
4, 93484, Note_on_c, 3, 68, 0
4, 93631, Note_on_c, 3, 70, 0
4, 93651, Note_on_c, 3, 71, 80
4, 93651, Note_on_c, 3, 74, 80
4, 93663, Note_on_c, 3, 76, 0
4, 93849, Note_on_c, 3, 66, 80
4, 93855, Note_on_c, 3, 71, 0
4, 94041, Note_on_c, 3, 66, 0
4, 94041, Note_on_c, 3, 71, 80
4, 94227, Note_on_c, 3, 69, 80
4, 94252, Note_on_c, 3, 71, 0
4, 94406, Note_on_c, 3, 67, 80
4, 94438, Note_on_c, 3, 69, 0
4, 94444, Note_on_c, 3, 74, 0
4, 94611, Note_on_c, 3, 74, 80
4, 94809, Note_on_c, 3, 79, 80
4, 94815, Note_on_c, 3, 74, 0
4, 94995, Note_on_c, 3, 78, 80
4, 95001, Note_on_c, 3, 79, 0
4, 95187, Note_on_c, 3, 78, 0
4, 95187, Note_on_c, 3, 76, 80
4, 95385, Note_on_c, 3, 64, 80
4, 95417, Note_on_c, 3, 67, 0
4, 95583, Note_on_c, 3, 64, 0
4, 95584, Note_on_c, 3, 69, 80
4, 95775, Note_on_c, 3, 76, 0
4, 95776, Note_on_c, 3, 84, 80
4, 95904, Note_on_c, 3, 84, 0
4, 95980, Note_on_c, 3, 74, 80
4, 96165, Note_on_c, 3, 74, 0
4, 96172, Note_on_c, 3, 72, 80
4, 96344, Note_on_c, 3, 72, 0
4, 96371, Note_on_c, 3, 74, 80
4, 96377, Note_on_c, 3, 67, 80
4, 96409, Note_on_c, 3, 69, 0
4, 96569, Note_on_c, 3, 76, 80
4, 96582, Note_on_c, 3, 74, 0
4, 96761, Note_on_c, 3, 76, 0
4, 96768, Note_on_c, 3, 72, 80
4, 96966, Note_on_c, 3, 72, 0
4, 96966, Note_on_c, 3, 76, 80
4, 97151, Note_on_c, 3, 76, 0
4, 97152, Note_on_c, 3, 74, 80
4, 97158, Note_on_c, 3, 66, 80
4, 97183, Note_on_c, 3, 67, 0
4, 97356, Note_on_c, 3, 74, 0
4, 97363, Note_on_c, 3, 72, 80
4, 97561, Note_on_c, 3, 72, 0
4, 97561, Note_on_c, 3, 74, 80
4, 97753, Note_on_c, 3, 72, 80
4, 97772, Note_on_c, 3, 74, 0
4, 97945, Note_on_c, 3, 72, 0
4, 97945, Note_on_c, 3, 71, 80
4, 97952, Note_on_c, 3, 67, 80
4, 97977, Note_on_c, 3, 66, 0
4, 98131, Note_on_c, 3, 74, 80
4, 98137, Note_on_c, 3, 71, 0
4, 98201, Note_on_c, 3, 74, 0
4, 98348, Note_on_c, 3, 72, 80
4, 98725, Note_on_c, 3, 72, 0
4, 98732, Note_on_c, 3, 81, 80
4, 98739, Note_on_c, 3, 66, 80
4, 98764, Note_on_c, 3, 67, 0
4, 98937, Note_on_c, 3, 64, 80
4, 98956, Note_on_c, 3, 66, 0
4, 99142, Note_on_c, 3, 66, 80
4, 99180, Note_on_c, 3, 64, 0
4, 99468, Note_on_c, 3, 81, 0
4, 99520, Note_on_c, 3, 72, 80
4, 99904, Note_on_c, 3, 67, 80
4, 99904, Note_on_c, 3, 71, 80
4, 99916, Note_on_c, 3, 72, 0
4, 99922, Note_on_c, 3, 66, 0
4, 100268, Note_on_c, 3, 72, 80
4, 100294, Note_on_c, 3, 71, 0
4, 100460, Note_on_c, 3, 74, 80
4, 100479, Note_on_c, 3, 72, 0
4, 100645, Note_on_c, 3, 74, 0
4, 100659, Note_on_c, 3, 76, 80
4, 100992, Note_on_c, 3, 66, 80
4, 101011, Note_on_c, 3, 67, 0
4, 101177, Note_on_c, 3, 67, 80
4, 101190, Note_on_c, 3, 66, 0
4, 101356, Note_on_c, 3, 69, 80
4, 101362, Note_on_c, 3, 67, 0
4, 101727, Note_on_c, 3, 76, 0
4, 101728, Note_on_c, 3, 74, 80
4, 101920, Note_on_c, 3, 76, 80
4, 101939, Note_on_c, 3, 74, 0
4, 102131, Note_on_c, 3, 76, 0
4, 102131, Note_on_c, 3, 78, 80
4, 102463, Note_on_c, 3, 78, 0
4, 102476, Note_on_c, 3, 76, 80
4, 102476, Note_on_c, 3, 67, 80
4, 102488, Note_on_c, 3, 69, 0
4, 102662, Note_on_c, 3, 69, 80
4, 102662, Note_on_c, 3, 78, 80
4, 102674, Note_on_c, 3, 76, 0
4, 102693, Note_on_c, 3, 67, 0
4, 102886, Note_on_c, 3, 79, 80
4, 102886, Note_on_c, 3, 71, 80
4, 102892, Note_on_c, 3, 69, 0
4, 102905, Note_on_c, 3, 78, 0
4, 103225, Note_on_c, 3, 72, 80
4, 103244, Note_on_c, 3, 71, 0
4, 103417, Note_on_c, 3, 74, 80
4, 103423, Note_on_c, 3, 72, 0
4, 103615, Note_on_c, 3, 74, 0
4, 103616, Note_on_c, 3, 76, 80
4, 103993, Note_on_c, 3, 74, 80
4, 103993, Note_on_c, 3, 78, 80
4, 104000, Note_on_c, 3, 76, 0
4, 104031, Note_on_c, 3, 79, 0
4, 104370, Note_on_c, 3, 78, 0
4, 104383, Note_on_c, 3, 74, 0
4, 104384, Note_on_c, 3, 76, 80
4, 104384, Note_on_c, 3, 72, 80
4, 105132, Note_on_c, 3, 74, 80
4, 105152, Note_on_c, 3, 76, 0
4, 105152, Control_c, 3, 7, 108
4, 105152, Control_c, 3, 10, 93
4, 105888, Note_on_c, 3, 71, 80
4, 105913, Note_on_c, 3, 72, 0
4, 106278, Note_on_c, 3, 76, 80
4, 106309, Note_on_c, 3, 74, 0
4, 106470, Note_on_c, 3, 78, 80
4, 106502, Note_on_c, 3, 76, 0
4, 106668, Note_on_c, 3, 78, 0
4, 106681, Note_on_c, 3, 79, 80
4, 107052, Note_on_c, 3, 72, 80
4, 107065, Note_on_c, 3, 71, 0
4, 107257, Note_on_c, 3, 74, 80
4, 107269, Note_on_c, 3, 72, 0
4, 107456, Note_on_c, 3, 76, 80
4, 107461, Note_on_c, 3, 74, 0
4, 107654, Note_on_c, 3, 81, 80
4, 107673, Note_on_c, 3, 79, 0
4, 107846, Note_on_c, 3, 79, 80
4, 107858, Note_on_c, 3, 81, 0
4, 108038, Note_on_c, 3, 78, 80
4, 108057, Note_on_c, 3, 79, 0
4, 108230, Note_on_c, 3, 78, 0
4, 108236, Note_on_c, 3, 79, 80
4, 108268, Note_on_c, 3, 76, 0
4, 108608, Note_on_c, 3, 76, 80
4, 108998, Note_on_c, 3, 69, 80
4, 109024, Note_on_c, 3, 76, 0
4, 109029, Note_on_c, 3, 79, 0
4, 109196, Note_on_c, 3, 79, 80
4, 109407, Note_on_c, 3, 69, 0
4, 109408, Note_on_c, 3, 74, 80
4, 109414, Note_on_c, 3, 78, 80
4, 109432, Note_on_c, 3, 79, 0
4, 109612, Note_on_c, 3, 76, 80
4, 109618, Note_on_c, 3, 78, 0
4, 109804, Note_on_c, 3, 76, 0
4, 109824, Note_on_c, 3, 78, 80
4, 109984, Note_on_c, 3, 74, 0
4, 110188, Note_on_c, 3, 72, 80
4, 110572, Note_on_c, 3, 71, 80
4, 110578, Note_on_c, 3, 72, 0
4, 110624, Note_on_c, 3, 78, 0
4, 110752, Note_on_c, 3, 78, 80
4, 110944, Note_on_c, 3, 76, 80
4, 110950, Note_on_c, 3, 78, 0
4, 111136, Note_on_c, 3, 76, 0
4, 111142, Note_on_c, 3, 75, 80
4, 111327, Note_on_c, 3, 75, 0
4, 111328, Note_on_c, 3, 76, 80
4, 111513, Note_on_c, 3, 69, 80
4, 111532, Note_on_c, 3, 71, 0
4, 111718, Note_on_c, 3, 71, 80
4, 111749, Note_on_c, 3, 69, 0
4, 111897, Note_on_c, 3, 72, 80
4, 111922, Note_on_c, 3, 71, 0
4, 112083, Note_on_c, 3, 76, 0
4, 112089, Note_on_c, 3, 74, 80
4, 112108, Note_on_c, 3, 72, 0
4, 112281, Note_on_c, 3, 72, 80
4, 112467, Note_on_c, 3, 71, 80
4, 112473, Note_on_c, 3, 72, 0
4, 112639, Note_on_c, 3, 71, 0
4, 112646, Note_on_c, 3, 69, 80
4, 112844, Note_on_c, 3, 69, 0
4, 112857, Note_on_c, 3, 67, 80
4, 112895, Note_on_c, 3, 74, 0
4, 113043, Note_on_c, 3, 65, 80
4, 113061, Note_on_c, 3, 67, 0
4, 113241, Note_on_c, 3, 64, 80
4, 113247, Note_on_c, 3, 65, 0
4, 113414, Note_on_c, 3, 62, 80
4, 113426, Note_on_c, 3, 64, 0
4, 113612, Note_on_c, 3, 62, 0
4, 113612, Note_on_c, 3, 64, 80
4, 113791, Note_on_c, 3, 67, 80
4, 113980, Note_on_c, 3, 69, 80
4, 114016, Note_on_c, 3, 67, 0
4, 114171, Note_on_c, 3, 71, 80
4, 114218, Note_on_c, 3, 69, 0
4, 114338, Note_on_c, 3, 71, 0
4, 114345, Note_on_c, 3, 72, 80
4, 114373, Note_on_c, 3, 64, 0
4, 114535, Note_on_c, 3, 74, 80
4, 114585, Note_on_c, 3, 72, 0
4, 114724, Note_on_c, 3, 74, 0
4, 114729, Note_on_c, 3, 76, 80
4, 114902, Note_on_c, 3, 72, 80
4, 115072, Note_on_c, 3, 74, 80
4, 115095, Note_on_c, 3, 76, 0
4, 115111, Note_on_c, 3, 72, 0
4, 115260, Note_on_c, 3, 72, 80
4, 115465, Note_on_c, 3, 71, 80
4, 115469, Note_on_c, 3, 72, 0
4, 115651, Note_on_c, 3, 71, 0
4, 115655, Note_on_c, 3, 69, 80
4, 115863, Note_on_c, 3, 69, 0
4, 115879, Note_on_c, 3, 71, 80
4, 116064, Note_on_c, 3, 71, 0
4, 116065, Note_on_c, 3, 67, 80
4, 116161, Note_on_c, 3, 67, 0
4, 116265, Note_on_c, 3, 64, 80
4, 116429, Note_on_c, 3, 74, 0
4, 116462, Note_on_c, 3, 73, 80
4, 116570, Note_on_c, 3, 73, 0
4, 116700, Note_on_c, 3, 74, 80
4, 116704, Note_on_c, 3, 66, 80
4, 116723, Note_on_c, 3, 64, 0
4, 117311, Note_on_c, 3, 74, 0
4, 117311, Note_on_c, 3, 66, 0
4, 117504, Note_on_c, 3, 69, 80
4, 118031, Note_on_c, 3, 69, 0
4, 118272, Note_on_c, 3, 69, 80
4, 118790, Note_on_c, 3, 69, 0
4, 119040, Note_on_c, 3, 69, 80
4, 119723, Note_on_c, 3, 69, 0
4, 119808, Note_on_c, 3, 71, 80
4, 120504, Note_on_c, 3, 71, 0
4, 120552, Note_on_c, 3, 72, 80
4, 120595, Note_on_c, 3, 71, 80
4, 120615, Note_on_c, 3, 72, 0
4, 120621, Note_on_c, 3, 71, 0
4, 120630, Note_on_c, 3, 72, 80
4, 120652, Note_on_c, 3, 71, 80
4, 120677, Note_on_c, 3, 72, 0
4, 120727, Note_on_c, 3, 69, 80
4, 120733, Note_on_c, 3, 71, 0
4, 120915, Note_on_c, 3, 71, 80
4, 120930, Note_on_c, 3, 69, 0
4, 121100, Note_on_c, 3, 72, 80
4, 121103, Note_on_c, 3, 71, 0
4, 121308, Note_on_c, 3, 69, 80
4, 121323, Note_on_c, 3, 72, 0
4, 121689, Note_on_c, 3, 71, 80
4, 121698, Note_on_c, 3, 69, 0
4, 121879, Note_on_c, 3, 73, 80
4, 121889, Note_on_c, 3, 71, 0
4, 122071, Note_on_c, 3, 74, 80
4, 122080, Note_on_c, 3, 73, 0
4, 122273, Note_on_c, 3, 69, 80
4, 122291, Note_on_c, 3, 74, 0
4, 122474, Note_on_c, 3, 74, 80
4, 122482, Note_on_c, 3, 69, 0
4, 123217, Note_on_c, 3, 73, 80
4, 123236, Note_on_c, 3, 74, 0
4, 123397, Note_on_c, 3, 73, 0
4, 123401, Note_on_c, 3, 71, 80
4, 123608, Note_on_c, 3, 73, 80
4, 123610, Note_on_c, 3, 76, 80
4, 123621, Note_on_c, 3, 71, 0
4, 124156, Note_on_c, 3, 74, 80
4, 124161, Note_on_c, 3, 73, 0
4, 124175, Note_on_c, 3, 76, 0
4, 124387, Note_on_c, 3, 76, 80
4, 124389, Note_on_c, 3, 71, 80
4, 124402, Note_on_c, 3, 74, 0
4, 124936, Note_on_c, 3, 73, 80
4, 124939, Note_on_c, 3, 71, 0
4, 124973, Note_on_c, 3, 76, 0
4, 125144, Note_on_c, 3, 73, 0
4, 125146, Note_on_c, 3, 76, 80
4, 125154, Note_on_c, 3, 74, 80
4, 125215, Note_on_c, 3, 73, 80
4, 125221, Note_on_c, 3, 74, 0
4, 125276, Note_on_c, 3, 73, 0
4, 125282, Note_on_c, 3, 74, 80
4, 125322, Note_on_c, 3, 73, 80
4, 125344, Note_on_c, 3, 73, 0
4, 125389, Note_on_c, 3, 73, 80
4, 125402, Note_on_c, 3, 74, 0
4, 125429, Note_on_c, 3, 73, 0
4, 125434, Note_on_c, 3, 74, 80
4, 125465, Note_on_c, 3, 73, 80
4, 125496, Note_on_c, 3, 74, 0
4, 125633, Note_on_c, 3, 71, 80
4, 125638, Note_on_c, 3, 73, 0
4, 125700, Note_on_c, 3, 73, 80
4, 125723, Note_on_c, 3, 71, 0
4, 125789, Note_on_c, 3, 76, 0
4, 125827, Note_on_c, 3, 73, 0
4, 125832, Note_on_c, 3, 78, 80
4, 125838, Note_on_c, 3, 74, 80
4, 126458, Note_on_c, 3, 78, 0
4, 126645, Note_on_c, 3, 79, 80
4, 126673, Note_on_c, 3, 79, 0
4, 126674, Note_on_c, 3, 78, 80
4, 126704, Note_on_c, 3, 79, 80
4, 126712, Note_on_c, 3, 78, 0
4, 126734, Note_on_c, 3, 78, 80
4, 126760, Note_on_c, 3, 79, 0
4, 126815, Note_on_c, 3, 76, 80
4, 126829, Note_on_c, 3, 78, 0
4, 127005, Note_on_c, 3, 78, 80
4, 127022, Note_on_c, 3, 76, 0
4, 127181, Note_on_c, 3, 79, 80
4, 127190, Note_on_c, 3, 78, 0
4, 127409, Note_on_c, 3, 76, 80
4, 127411, Note_on_c, 3, 79, 0
4, 127612, Note_on_c, 3, 73, 80
4, 127629, Note_on_c, 3, 74, 0
4, 127816, Note_on_c, 3, 73, 0
4, 127817, Note_on_c, 3, 74, 80
4, 128018, Note_on_c, 3, 71, 80
4, 128028, Note_on_c, 3, 74, 0
4, 128241, Note_on_c, 3, 73, 80
4, 128271, Note_on_c, 3, 71, 0
4, 128429, Note_on_c, 3, 74, 80
4, 128434, Note_on_c, 3, 76, 0
4, 128621, Note_on_c, 3, 76, 80
4, 128649, Note_on_c, 3, 74, 0
4, 128823, Note_on_c, 3, 81, 80
4, 128830, Note_on_c, 3, 76, 0
4, 129014, Note_on_c, 3, 74, 80
4, 129021, Note_on_c, 3, 81, 0
4, 129201, Note_on_c, 3, 71, 80
4, 129206, Note_on_c, 3, 73, 0
4, 129402, Note_on_c, 3, 72, 80
4, 129409, Note_on_c, 3, 71, 0
4, 129598, Note_on_c, 3, 69, 80
4, 129608, Note_on_c, 3, 72, 0
4, 129795, Note_on_c, 3, 71, 80
4, 129822, Note_on_c, 3, 69, 0
4, 129995, Note_on_c, 3, 74, 0
4, 129995, Note_on_c, 3, 73, 80
4, 130173, Note_on_c, 3, 74, 80
4, 130180, Note_on_c, 3, 73, 0
4, 130368, Note_on_c, 3, 79, 80
4, 130388, Note_on_c, 3, 74, 0
4, 130578, Note_on_c, 3, 73, 80
4, 130587, Note_on_c, 3, 79, 0
4, 130973, Note_on_c, 3, 73, 0
4, 131131, Note_on_c, 3, 73, 80
4, 131316, Note_on_c, 3, 73, 0
4, 131317, Note_on_c, 3, 74, 80
4, 131339, Note_on_c, 3, 71, 0
4, 131512, Note_on_c, 3, 78, 80
4, 131534, Note_on_c, 3, 74, 0
4, 131696, Note_on_c, 3, 78, 0
4, 131698, Note_on_c, 3, 76, 80
4, 131869, Note_on_c, 3, 79, 80
4, 131874, Note_on_c, 3, 76, 0
4, 132048, Note_on_c, 3, 78, 80
4, 132062, Note_on_c, 3, 79, 0
4, 132240, Note_on_c, 3, 79, 80
4, 132242, Note_on_c, 3, 78, 0
4, 132433, Note_on_c, 3, 78, 80
4, 132454, Note_on_c, 3, 79, 0
4, 132611, Note_on_c, 3, 76, 80
4, 132616, Note_on_c, 3, 78, 0
4, 132798, Note_on_c, 3, 74, 80
4, 132806, Note_on_c, 3, 76, 0
4, 132986, Note_on_c, 3, 73, 80
4, 133014, Note_on_c, 3, 74, 0
4, 133171, Note_on_c, 3, 71, 80
4, 133194, Note_on_c, 3, 73, 0
4, 133347, Note_on_c, 3, 69, 80
4, 133350, Note_on_c, 3, 71, 0
4, 133544, Note_on_c, 3, 69, 0
4, 133551, Note_on_c, 3, 74, 80
4, 133881, Note_on_c, 3, 74, 0
4, 133933, Note_on_c, 3, 68, 80
4, 133935, Note_on_c, 3, 61, 80
4, 134201, Note_on_c, 3, 68, 0
4, 134337, Note_on_c, 3, 66, 80
4, 134341, Note_on_c, 3, 62, 80
4, 134358, Note_on_c, 3, 61, 0
4, 134510, Note_on_c, 3, 66, 0
4, 134562, Note_on_c, 3, 66, 80
4, 134573, Note_on_c, 3, 62, 0
4, 134733, Note_on_c, 3, 66, 0
4, 134746, Note_on_c, 3, 64, 80
4, 134893, Note_on_c, 3, 64, 0
4, 134914, Note_on_c, 3, 68, 80
4, 135090, Note_on_c, 3, 66, 80
4, 135092, Note_on_c, 3, 68, 0
4, 135284, Note_on_c, 3, 66, 0
4, 135286, Note_on_c, 3, 64, 80
4, 135463, Note_on_c, 3, 66, 80
4, 135479, Note_on_c, 3, 64, 0
4, 135640, Note_on_c, 3, 66, 0
4, 135651, Note_on_c, 3, 69, 80
4, 135845, Note_on_c, 3, 69, 0
4, 135848, Note_on_c, 3, 67, 80
4, 136065, Note_on_c, 3, 66, 80
4, 136069, Note_on_c, 3, 67, 0
4, 136257, Note_on_c, 3, 64, 80
4, 136261, Note_on_c, 3, 66, 0
4, 136445, Note_on_c, 3, 66, 80
4, 136463, Note_on_c, 3, 64, 0
4, 136645, Note_on_c, 3, 66, 0
4, 136646, Note_on_c, 3, 67, 80
4, 136842, Note_on_c, 3, 71, 80
4, 137025, Note_on_c, 3, 71, 0
4, 137027, Note_on_c, 3, 69, 80
4, 137030, Note_on_c, 3, 76, 80
4, 137034, Note_on_c, 3, 67, 0
4, 137216, Note_on_c, 3, 75, 80
4, 137219, Note_on_c, 3, 76, 0
4, 137299, Note_on_c, 3, 75, 0
4, 137416, Note_on_c, 3, 76, 80
4, 137425, Note_on_c, 3, 71, 80
4, 137428, Note_on_c, 3, 69, 0
4, 137629, Note_on_c, 3, 76, 0
4, 137630, Note_on_c, 3, 78, 80
4, 137804, Note_on_c, 3, 79, 80
4, 137809, Note_on_c, 3, 78, 0
4, 137824, Note_on_c, 3, 71, 0
4, 137986, Note_on_c, 3, 71, 80
4, 138184, Note_on_c, 3, 71, 0
4, 138192, Note_on_c, 3, 76, 80
4, 138377, Note_on_c, 3, 74, 80
4, 138393, Note_on_c, 3, 76, 0
4, 138397, Note_on_c, 3, 79, 0
4, 138568, Note_on_c, 3, 74, 0
4, 138570, Note_on_c, 3, 73, 80
4, 138574, Note_on_c, 3, 79, 80
4, 138767, Note_on_c, 3, 73, 0
4, 138774, Note_on_c, 3, 76, 80
4, 138967, Note_on_c, 3, 76, 0
4, 138971, Note_on_c, 3, 74, 80
4, 138974, Note_on_c, 3, 78, 80
4, 138989, Note_on_c, 3, 79, 0
4, 139166, Note_on_c, 3, 78, 0
4, 139168, Note_on_c, 3, 79, 80
4, 139338, Note_on_c, 3, 74, 0
4, 139354, Note_on_c, 3, 68, 80
4, 139356, Note_on_c, 3, 79, 0
4, 139360, Note_on_c, 3, 76, 80
4, 139540, Note_on_c, 3, 78, 80
4, 139545, Note_on_c, 3, 76, 0
4, 139702, Note_on_c, 3, 78, 0
4, 139719, Note_on_c, 3, 68, 0
4, 139721, Note_on_c, 3, 74, 80
4, 139726, Note_on_c, 3, 66, 80
4, 139877, Note_on_c, 3, 74, 0
4, 139912, Note_on_c, 3, 69, 80
4, 140022, Note_on_c, 3, 69, 0
4, 140106, Note_on_c, 3, 74, 80
4, 140118, Note_on_c, 3, 66, 0
4, 140302, Note_on_c, 3, 66, 80
4, 140491, Note_on_c, 3, 66, 0
4, 140496, Note_on_c, 3, 64, 80
4, 140530, Note_on_c, 3, 74, 0
4, 140690, Note_on_c, 3, 74, 80
4, 140796, Note_on_c, 3, 74, 0
4, 140884, Note_on_c, 3, 73, 80
4, 140925, Note_on_c, 3, 64, 0
4, 141068, Note_on_c, 3, 67, 80
4, 141143, Note_on_c, 3, 73, 0
4, 141286, Note_on_c, 3, 67, 0
4, 141294, Note_on_c, 3, 74, 80
4, 141312, Note_on_c, 3, 66, 80
4, 141887, Note_on_c, 3, 74, 0
4, 141887, Note_on_c, 3, 66, 0
4, 142056, Note_on_c, 3, 69, 80
4, 142828, Note_on_c, 3, 71, 80
4, 142829, Note_on_c, 3, 69, 0
4, 143197, Note_on_c, 3, 73, 80
4, 143204, Note_on_c, 3, 71, 0
4, 143562, Note_on_c, 3, 73, 0
4, 143575, Note_on_c, 3, 74, 80
4, 145086, Note_on_c, 3, 73, 80
4, 145104, Note_on_c, 3, 74, 0
4, 145881, Note_on_c, 3, 74, 80
4, 145896, Note_on_c, 3, 73, 0
4, 146257, Note_on_c, 3, 69, 80
4, 146271, Note_on_c, 3, 74, 0
4, 146642, Note_on_c, 3, 74, 80
4, 146663, Note_on_c, 3, 69, 0
4, 147037, Note_on_c, 3, 72, 80
4, 147422, Note_on_c, 3, 76, 80
4, 147424, Note_on_c, 3, 71, 80
4, 147427, Note_on_c, 3, 72, 0
4, 147451, Note_on_c, 3, 74, 0
4, 147813, Note_on_c, 3, 72, 80
4, 147816, Note_on_c, 3, 78, 80
4, 147826, Note_on_c, 3, 71, 0
4, 147837, Note_on_c, 3, 76, 0
4, 148210, Note_on_c, 3, 79, 80
4, 148219, Note_on_c, 3, 74, 80
4, 148221, Note_on_c, 3, 78, 0
4, 148232, Note_on_c, 3, 72, 0
4, 148564, Note_on_c, 3, 74, 0
4, 148566, Note_on_c, 3, 76, 80
4, 148755, Note_on_c, 3, 74, 80
4, 148770, Note_on_c, 3, 76, 0
4, 148945, Note_on_c, 3, 74, 0
4, 148956, Note_on_c, 3, 72, 80
4, 149249, Note_on_c, 3, 72, 0
4, 149328, Note_on_c, 3, 71, 80
4, 149579, Note_on_c, 3, 71, 0
4, 149705, Note_on_c, 3, 72, 80
4, 149711, Note_on_c, 3, 78, 80
4, 149732, Note_on_c, 3, 79, 0
4, 150095, Note_on_c, 3, 74, 80
4, 150097, Note_on_c, 3, 72, 0
4, 150286, Note_on_c, 3, 72, 80
4, 150302, Note_on_c, 3, 74, 0
4, 150490, Note_on_c, 3, 72, 0
4, 150494, Note_on_c, 3, 71, 80
4, 150496, Note_on_c, 3, 79, 80
4, 150501, Note_on_c, 3, 78, 0
4, 150768, Note_on_c, 3, 79, 0
4, 150879, Note_on_c, 3, 71, 0
4, 150882, Note_on_c, 3, 74, 80
4, 150886, Note_on_c, 3, 69, 80
4, 151179, Note_on_c, 3, 74, 0
4, 151297, Note_on_c, 3, 79, 80
4, 151298, Note_on_c, 3, 67, 80
4, 151312, Note_on_c, 3, 69, 0
4, 151663, Note_on_c, 3, 78, 80
4, 151675, Note_on_c, 3, 79, 0
4, 152054, Note_on_c, 3, 76, 80
4, 152078, Note_on_c, 3, 78, 0
4, 152402, Note_on_c, 3, 66, 80
4, 152422, Note_on_c, 3, 67, 0
4, 152599, Note_on_c, 3, 64, 80
4, 152602, Note_on_c, 3, 66, 0
4, 152810, Note_on_c, 3, 66, 80
4, 152832, Note_on_c, 3, 64, 0
4, 153169, Note_on_c, 3, 74, 80
4, 153194, Note_on_c, 3, 76, 0
4, 153355, Note_on_c, 3, 72, 80
4, 153374, Note_on_c, 3, 74, 0
4, 153572, Note_on_c, 3, 71, 80
4, 153580, Note_on_c, 3, 72, 0
4, 153934, Note_on_c, 3, 67, 80
4, 153951, Note_on_c, 3, 66, 0
4, 154046, Note_on_c, 3, 71, 0
4, 154119, Note_on_c, 3, 69, 80
4, 154128, Note_on_c, 3, 67, 0
4, 154348, Note_on_c, 3, 67, 80
4, 154352, Note_on_c, 3, 76, 80
4, 154368, Note_on_c, 3, 69, 0
4, 155063, Note_on_c, 3, 66, 80
4, 155083, Note_on_c, 3, 67, 0
4, 155433, Note_on_c, 3, 78, 80
4, 155441, Note_on_c, 3, 76, 0
4, 155558, Note_on_c, 3, 66, 0
4, 155627, Note_on_c, 3, 76, 80
4, 155639, Note_on_c, 3, 78, 0
4, 155830, Note_on_c, 3, 74, 80
4, 155837, Note_on_c, 3, 76, 0
4, 156197, Note_on_c, 3, 76, 80
4, 156216, Note_on_c, 3, 74, 0
4, 156401, Note_on_c, 3, 78, 80
4, 156409, Note_on_c, 3, 76, 0
4, 156614, Note_on_c, 3, 78, 0
4, 156632, Note_on_c, 3, 76, 80
4, 156997, Note_on_c, 3, 71, 80
4, 157186, Note_on_c, 3, 69, 80
4, 157189, Note_on_c, 3, 71, 0
4, 157385, Note_on_c, 3, 67, 80
4, 157395, Note_on_c, 3, 69, 0
4, 157413, Note_on_c, 3, 76, 0
4, 157747, Note_on_c, 3, 69, 80
4, 157753, Note_on_c, 3, 67, 0
4, 157932, Note_on_c, 3, 69, 0
4, 157942, Note_on_c, 3, 71, 80
4, 158134, Note_on_c, 3, 71, 0
4, 158141, Note_on_c, 3, 64, 80
4, 158507, Note_on_c, 3, 76, 80
4, 158524, Note_on_c, 3, 64, 0
4, 158686, Note_on_c, 3, 78, 80
4, 158717, Note_on_c, 3, 76, 0
4, 158787, Note_on_c, 3, 78, 0
4, 158901, Note_on_c, 3, 79, 80
4, 159296, Note_on_c, 3, 78, 80
4, 159308, Note_on_c, 3, 79, 0
4, 159489, Note_on_c, 3, 76, 80
4, 159495, Note_on_c, 3, 78, 0
4, 159588, Note_on_c, 3, 76, 0
4, 159702, Note_on_c, 3, 81, 80
4, 160070, Note_on_c, 3, 69, 80
4, 160183, Note_on_c, 3, 69, 0
4, 160250, Note_on_c, 3, 71, 80
4, 160258, Note_on_c, 3, 81, 0
4, 160333, Note_on_c, 3, 71, 0
4, 160478, Note_on_c, 3, 72, 80
4, 160834, Note_on_c, 3, 71, 80
4, 160837, Note_on_c, 3, 72, 0
4, 161024, Note_on_c, 3, 69, 80
4, 161036, Note_on_c, 3, 71, 0
4, 161112, Note_on_c, 3, 69, 0
4, 161224, Note_on_c, 3, 71, 80
4, 161431, Note_on_c, 3, 74, 80
4, 161627, Note_on_c, 3, 76, 80
4, 161654, Note_on_c, 3, 74, 0
4, 161814, Note_on_c, 3, 78, 80
4, 161837, Note_on_c, 3, 76, 0
4, 162016, Note_on_c, 3, 78, 0
4, 162016, Note_on_c, 3, 79, 80
4, 162200, Note_on_c, 3, 78, 80
4, 162227, Note_on_c, 3, 79, 0
4, 162394, Note_on_c, 3, 78, 0
4, 162398, Note_on_c, 3, 76, 80
4, 162510, Note_on_c, 3, 76, 0
4, 162592, Note_on_c, 3, 79, 80
4, 162676, Note_on_c, 3, 79, 0
4, 162793, Note_on_c, 3, 78, 80
4, 162797, Note_on_c, 3, 69, 80
4, 162818, Note_on_c, 3, 71, 0
4, 162991, Note_on_c, 3, 76, 80
4, 162993, Note_on_c, 3, 78, 0
4, 163185, Note_on_c, 3, 78, 80
4, 163210, Note_on_c, 3, 76, 0
4, 163372, Note_on_c, 3, 79, 80
4, 163382, Note_on_c, 3, 78, 0
4, 163389, Note_on_c, 3, 69, 0
4, 163523, Note_on_c, 3, 79, 0
4, 163578, Note_on_c, 3, 81, 80
4, 164373, Note_on_c, 3, 83, 80
4, 164383, Note_on_c, 3, 81, 0
4, 165123, Note_on_c, 3, 74, 80
4, 165467, Note_on_c, 3, 81, 80
4, 165486, Note_on_c, 3, 83, 0
4, 165857, Note_on_c, 3, 79, 80
4, 165865, Note_on_c, 3, 76, 80
4, 165874, Note_on_c, 3, 74, 0
4, 165875, Note_on_c, 3, 81, 0
4, 166625, Note_on_c, 3, 78, 80
4, 166630, Note_on_c, 3, 79, 0
4, 167001, Note_on_c, 3, 74, 80
4, 167010, Note_on_c, 3, 76, 0
4, 167414, Note_on_c, 3, 73, 80
4, 167414, Note_on_c, 3, 80, 80
4, 167434, Note_on_c, 3, 74, 0
4, 167435, Note_on_c, 3, 78, 0
4, 167773, Note_on_c, 3, 81, 80
4, 167775, Note_on_c, 3, 80, 0
4, 168161, Note_on_c, 3, 71, 80
4, 168174, Note_on_c, 3, 73, 0
4, 168531, Note_on_c, 3, 79, 80
4, 168548, Note_on_c, 3, 81, 0
4, 168901, Note_on_c, 3, 73, 80
4, 168923, Note_on_c, 3, 71, 0
4, 169294, Note_on_c, 3, 78, 80
4, 169299, Note_on_c, 3, 74, 80
4, 169306, Note_on_c, 3, 79, 0
4, 169309, Note_on_c, 3, 73, 0
4, 169692, Note_on_c, 3, 78, 0
4, 169694, Note_on_c, 3, 76, 80
4, 170079, Note_on_c, 3, 81, 80
4, 170083, Note_on_c, 3, 76, 0
4, 170091, Note_on_c, 3, 73, 80
4, 170099, Note_on_c, 3, 74, 0
4, 170413, Note_on_c, 3, 73, 0
4, 170480, Note_on_c, 3, 74, 80
4, 170657, Note_on_c, 3, 79, 80
4, 170660, Note_on_c, 3, 81, 0
4, 170863, Note_on_c, 3, 78, 80
4, 170870, Note_on_c, 3, 79, 0
4, 171035, Note_on_c, 3, 79, 80
4, 171053, Note_on_c, 3, 78, 0
4, 171081, Note_on_c, 3, 79, 0
4, 171244, Note_on_c, 3, 84, 80
4, 171245, Note_on_c, 3, 74, 0
4, 171290, Note_on_c, 3, 76, 80
4, 171685, Note_on_c, 3, 78, 80
4, 171714, Note_on_c, 3, 76, 0
4, 172076, Note_on_c, 3, 79, 80
4, 172080, Note_on_c, 3, 78, 0
4, 172220, Note_on_c, 3, 67, 80
4, 172319, Note_on_c, 3, 79, 0
4, 172410, Note_on_c, 3, 66, 80
4, 172415, Note_on_c, 3, 84, 0
4, 172421, Note_on_c, 3, 67, 0
4, 172426, Note_on_c, 3, 83, 80
4, 172576, Note_on_c, 3, 66, 0
4, 172577, Note_on_c, 3, 67, 80
4, 172793, Note_on_c, 3, 67, 0
4, 172800, Note_on_c, 3, 72, 80
4, 172983, Note_on_c, 3, 83, 0
4, 173120, Note_on_c, 3, 81, 80
4, 173712, Note_on_c, 3, 81, 0
4, 173717, Note_on_c, 3, 74, 80
4, 173885, Note_on_c, 3, 79, 80
4, 173889, Note_on_c, 3, 71, 80
4, 173893, Note_on_c, 3, 74, 0
4, 173900, Note_on_c, 3, 72, 0
4, 174048, Note_on_c, 3, 81, 80
4, 174054, Note_on_c, 3, 79, 0
4, 174234, Note_on_c, 3, 81, 0
4, 174249, Note_on_c, 3, 79, 80
4, 174616, Note_on_c, 3, 69, 80
4, 174620, Note_on_c, 3, 77, 80
4, 174623, Note_on_c, 3, 71, 0
4, 174624, Note_on_c, 3, 79, 0
4, 175023, Note_on_c, 3, 76, 80
4, 175026, Note_on_c, 3, 77, 0
4, 175031, Note_on_c, 3, 67, 80
4, 175052, Note_on_c, 3, 69, 0
4, 175221, Note_on_c, 3, 77, 80
4, 175232, Note_on_c, 3, 76, 0
4, 175410, Note_on_c, 3, 77, 0
4, 175413, Note_on_c, 3, 76, 80
4, 175581, Note_on_c, 3, 74, 80
4, 175594, Note_on_c, 3, 76, 0
4, 175770, Note_on_c, 3, 72, 80
4, 175785, Note_on_c, 3, 74, 0
4, 175930, Note_on_c, 3, 67, 0
4, 175955, Note_on_c, 3, 71, 80
4, 175958, Note_on_c, 3, 72, 0
4, 176146, Note_on_c, 3, 69, 80
4, 176169, Note_on_c, 3, 71, 0
4, 176524, Note_on_c, 3, 69, 0
4, 176542, Note_on_c, 3, 68, 80
4, 176672, Note_on_c, 3, 68, 0
4, 176769, Note_on_c, 3, 76, 80
4, 176938, Note_on_c, 3, 74, 80
4, 176949, Note_on_c, 3, 76, 0
4, 177127, Note_on_c, 3, 72, 80
4, 177145, Note_on_c, 3, 74, 0
4, 177333, Note_on_c, 3, 72, 0
4, 177334, Note_on_c, 3, 71, 80
4, 177536, Note_on_c, 3, 69, 80
4, 177553, Note_on_c, 3, 71, 0
4, 177735, Note_on_c, 3, 68, 80
4, 177760, Note_on_c, 3, 69, 0
4, 177930, Note_on_c, 3, 68, 0
4, 177938, Note_on_c, 3, 66, 80
4, 178149, Note_on_c, 3, 68, 80
4, 178164, Note_on_c, 3, 66, 0
4, 178330, Note_on_c, 3, 76, 80
4, 178381, Note_on_c, 3, 68, 0
4, 178533, Note_on_c, 3, 78, 80
4, 178551, Note_on_c, 3, 76, 0
4, 178710, Note_on_c, 3, 78, 0
4, 178713, Note_on_c, 3, 80, 80
4, 178911, Note_on_c, 3, 81, 80
4, 178915, Note_on_c, 3, 80, 0
4, 179095, Note_on_c, 3, 72, 80
4, 179299, Note_on_c, 3, 74, 80
4, 179305, Note_on_c, 3, 72, 0
4, 179453, Note_on_c, 3, 76, 80
4, 179456, Note_on_c, 3, 74, 0
4, 179672, Note_on_c, 3, 77, 80
4, 179675, Note_on_c, 3, 76, 0
4, 179861, Note_on_c, 3, 76, 80
4, 179865, Note_on_c, 3, 77, 0
4, 180064, Note_on_c, 3, 74, 80
4, 180072, Note_on_c, 3, 76, 0
4, 180241, Note_on_c, 3, 72, 80
4, 180256, Note_on_c, 3, 74, 0
4, 180488, Note_on_c, 3, 72, 0
4, 180497, Note_on_c, 3, 71, 80
4, 180643, Note_on_c, 3, 80, 80
4, 180662, Note_on_c, 3, 81, 0
4, 180842, Note_on_c, 3, 78, 80
4, 180846, Note_on_c, 3, 80, 0
4, 180848, Note_on_c, 3, 76, 80
4, 180860, Note_on_c, 3, 71, 0
4, 181040, Note_on_c, 3, 80, 80
4, 181059, Note_on_c, 3, 78, 0
4, 181230, Note_on_c, 3, 80, 0
4, 181231, Note_on_c, 3, 81, 80
4, 181246, Note_on_c, 3, 76, 0
4, 181413, Note_on_c, 3, 77, 80
4, 181598, Note_on_c, 3, 77, 0
4, 181601, Note_on_c, 3, 76, 80
4, 181765, Note_on_c, 3, 76, 0
4, 181777, Note_on_c, 3, 74, 80
4, 181958, Note_on_c, 3, 74, 0
4, 181969, Note_on_c, 3, 76, 80
4, 182161, Note_on_c, 3, 72, 80
4, 182164, Note_on_c, 3, 76, 0
4, 182341, Note_on_c, 3, 71, 80
4, 182346, Note_on_c, 3, 72, 0
4, 182526, Note_on_c, 3, 69, 80
4, 182529, Note_on_c, 3, 71, 0
4, 182538, Note_on_c, 3, 81, 0
4, 182721, Note_on_c, 3, 75, 80
4, 182734, Note_on_c, 3, 69, 0
4, 182915, Note_on_c, 3, 83, 80
4, 183095, Note_on_c, 3, 81, 80
4, 183103, Note_on_c, 3, 83, 0
4, 183304, Note_on_c, 3, 79, 80
4, 183331, Note_on_c, 3, 81, 0
4, 183500, Note_on_c, 3, 79, 0
4, 183502, Note_on_c, 3, 81, 80
4, 183681, Note_on_c, 3, 81, 0
4, 183685, Note_on_c, 3, 78, 80
4, 183874, Note_on_c, 3, 78, 0
4, 183878, Note_on_c, 3, 75, 0
4, 183879, Note_on_c, 3, 79, 80
4, 183882, Note_on_c, 3, 76, 80
4, 184032, Note_on_c, 3, 81, 80
4, 184044, Note_on_c, 3, 79, 0
4, 184143, Note_on_c, 3, 81, 0
4, 184252, Note_on_c, 3, 76, 0
4, 184282, Note_on_c, 3, 78, 80
4, 184463, Note_on_c, 3, 71, 80
4, 184661, Note_on_c, 3, 71, 0
4, 184661, Note_on_c, 3, 69, 80
4, 184848, Note_on_c, 3, 67, 80
4, 184855, Note_on_c, 3, 69, 0
4, 184919, Note_on_c, 3, 67, 0
4, 185042, Note_on_c, 3, 69, 80
4, 185232, Note_on_c, 3, 72, 80
4, 185235, Note_on_c, 3, 69, 0
4, 185413, Note_on_c, 3, 72, 0
4, 185423, Note_on_c, 3, 71, 80
4, 185597, Note_on_c, 3, 71, 0
4, 185598, Note_on_c, 3, 69, 80
4, 185786, Note_on_c, 3, 67, 80
4, 185795, Note_on_c, 3, 69, 0
4, 185802, Note_on_c, 3, 76, 80
4, 185805, Note_on_c, 3, 78, 0
4, 185976, Note_on_c, 3, 67, 0
4, 185984, Note_on_c, 3, 74, 80
4, 186181, Note_on_c, 3, 73, 80
4, 186182, Note_on_c, 3, 74, 0
4, 186344, Note_on_c, 3, 71, 80
4, 186355, Note_on_c, 3, 73, 0
4, 186377, Note_on_c, 3, 71, 0
4, 186544, Note_on_c, 3, 70, 80
4, 186564, Note_on_c, 3, 78, 80
4, 186567, Note_on_c, 3, 76, 0
4, 186744, Note_on_c, 3, 66, 80
4, 186748, Note_on_c, 3, 70, 0
4, 186817, Note_on_c, 3, 66, 0
4, 186965, Note_on_c, 3, 71, 80
4, 187390, Note_on_c, 3, 76, 80
4, 187404, Note_on_c, 3, 78, 0
4, 187559, Note_on_c, 3, 70, 80
4, 187564, Note_on_c, 3, 71, 0
4, 187744, Note_on_c, 3, 70, 0
4, 187744, Note_on_c, 3, 71, 80
4, 187925, Note_on_c, 3, 71, 0
4, 187927, Note_on_c, 3, 68, 80
4, 188113, Note_on_c, 3, 68, 0
4, 188127, Note_on_c, 3, 70, 80
4, 188309, Note_on_c, 3, 74, 80
4, 188316, Note_on_c, 3, 76, 0
4, 188486, Note_on_c, 3, 74, 0
4, 188487, Note_on_c, 3, 76, 80
4, 188668, Note_on_c, 3, 76, 0
4, 188673, Note_on_c, 3, 73, 80
4, 188865, Note_on_c, 3, 74, 80
4, 188868, Note_on_c, 3, 73, 0
4, 188872, Note_on_c, 3, 71, 80
4, 188884, Note_on_c, 3, 70, 0
4, 189086, Note_on_c, 3, 78, 80
4, 189114, Note_on_c, 3, 74, 0
4, 189260, Note_on_c, 3, 78, 0
4, 189261, Note_on_c, 3, 76, 80
4, 189422, Note_on_c, 3, 74, 80
4, 189425, Note_on_c, 3, 76, 0
4, 189647, Note_on_c, 3, 79, 80
4, 189661, Note_on_c, 3, 74, 0
4, 190373, Note_on_c, 3, 69, 80
4, 190393, Note_on_c, 3, 71, 0
4, 190958, Note_on_c, 3, 79, 0
4, 190964, Note_on_c, 3, 78, 80
4, 191162, Note_on_c, 3, 78, 0
4, 191189, Note_on_c, 3, 86, 80
4, 191198, Note_on_c, 3, 71, 80
4, 191208, Note_on_c, 3, 69, 0
4, 191753, Note_on_c, 3, 86, 0
4, 191756, Note_on_c, 3, 79, 80
4, 191959, Note_on_c, 3, 84, 80
4, 191968, Note_on_c, 3, 69, 80
4, 191992, Note_on_c, 3, 79, 0
4, 192017, Note_on_c, 3, 71, 0
4, 192287, Note_on_c, 3, 84, 0
4, 192384, Note_on_c, 3, 78, 80
4, 192683, Note_on_c, 3, 78, 0
4, 192733, Note_on_c, 3, 83, 80
4, 192924, Note_on_c, 3, 67, 80
4, 192928, Note_on_c, 3, 69, 0
4, 193116, Note_on_c, 3, 69, 80
4, 193127, Note_on_c, 3, 67, 0
4, 193288, Note_on_c, 3, 69, 0
4, 193296, Note_on_c, 3, 66, 80
4, 193396, Note_on_c, 3, 66, 0
4, 193495, Note_on_c, 3, 67, 80
4, 193670, Note_on_c, 3, 83, 0
4, 193677, Note_on_c, 3, 81, 80
4, 193857, Note_on_c, 3, 83, 80
4, 193862, Note_on_c, 3, 81, 0
4, 194036, Note_on_c, 3, 88, 80
4, 194040, Note_on_c, 3, 83, 0
4, 194159, Note_on_c, 3, 88, 0
4, 194240, Note_on_c, 3, 81, 80
4, 194428, Note_on_c, 3, 66, 80
4, 194436, Note_on_c, 3, 67, 0
4, 194624, Note_on_c, 3, 66, 0
4, 194627, Note_on_c, 3, 67, 80
4, 194820, Note_on_c, 3, 64, 80
4, 194846, Note_on_c, 3, 67, 0
4, 195004, Note_on_c, 3, 66, 80
4, 195032, Note_on_c, 3, 64, 0
4, 195209, Note_on_c, 3, 79, 80
4, 195218, Note_on_c, 3, 81, 0
4, 195395, Note_on_c, 3, 81, 80
4, 195418, Note_on_c, 3, 79, 0
4, 195573, Note_on_c, 3, 86, 80
4, 195580, Note_on_c, 3, 81, 0
4, 195676, Note_on_c, 3, 86, 0
4, 195779, Note_on_c, 3, 79, 80
4, 195972, Note_on_c, 3, 64, 80
4, 195973, Note_on_c, 3, 66, 0
4, 196179, Note_on_c, 3, 64, 0
4, 196184, Note_on_c, 3, 66, 80
4, 196369, Note_on_c, 3, 66, 0
4, 196373, Note_on_c, 3, 63, 80
4, 196551, Note_on_c, 3, 63, 0
4, 196561, Note_on_c, 3, 64, 80
4, 196732, Note_on_c, 3, 79, 0
4, 196745, Note_on_c, 3, 78, 80
4, 196897, Note_on_c, 3, 64, 0
4, 196922, Note_on_c, 3, 78, 0
4, 196931, Note_on_c, 3, 79, 80
4, 197107, Note_on_c, 3, 84, 80
4, 197107, Note_on_c, 3, 76, 80
4, 197108, Note_on_c, 3, 79, 0
4, 197166, Note_on_c, 3, 76, 0
4, 197315, Note_on_c, 3, 84, 0
4, 197326, Note_on_c, 3, 79, 80
4, 197329, Note_on_c, 3, 83, 80
4, 197521, Note_on_c, 3, 83, 0
4, 197521, Note_on_c, 3, 81, 80
4, 197526, Note_on_c, 3, 78, 80
4, 197536, Note_on_c, 3, 79, 0
4, 197683, Note_on_c, 3, 78, 0
4, 197697, Note_on_c, 3, 76, 80
4, 197707, Note_on_c, 3, 81, 0
4, 197709, Note_on_c, 3, 79, 80
4, 197863, Note_on_c, 3, 76, 0
4, 197873, Note_on_c, 3, 79, 0
4, 197882, Note_on_c, 3, 75, 80
4, 197886, Note_on_c, 3, 78, 80
4, 197971, Note_on_c, 3, 78, 0
4, 198104, Note_on_c, 3, 76, 80
4, 198107, Note_on_c, 3, 79, 80
4, 198108, Note_on_c, 3, 75, 0
4, 198282, Note_on_c, 3, 76, 0
4, 198284, Note_on_c, 3, 71, 80
4, 198483, Note_on_c, 3, 69, 80
4, 198489, Note_on_c, 3, 71, 0
4, 198665, Note_on_c, 3, 71, 80
4, 198675, Note_on_c, 3, 69, 0
4, 198743, Note_on_c, 3, 71, 0
4, 198872, Note_on_c, 3, 67, 80
4, 199062, Note_on_c, 3, 79, 0
4, 199073, Note_on_c, 3, 71, 80
4, 199250, Note_on_c, 3, 72, 80
4, 199256, Note_on_c, 3, 71, 0
4, 199440, Note_on_c, 3, 74, 80
4, 199450, Note_on_c, 3, 72, 0
4, 199571, Note_on_c, 3, 74, 0
4, 199653, Note_on_c, 3, 76, 80
4, 199836, Note_on_c, 3, 74, 80
4, 199859, Note_on_c, 3, 76, 0
4, 200026, Note_on_c, 3, 74, 0
4, 200028, Note_on_c, 3, 72, 80
4, 200205, Note_on_c, 3, 72, 0
4, 200206, Note_on_c, 3, 71, 80
4, 200369, Note_on_c, 3, 71, 0
4, 200402, Note_on_c, 3, 69, 80
4, 200403, Note_on_c, 3, 66, 80
4, 200504, Note_on_c, 3, 67, 0
4, 200592, Note_on_c, 3, 74, 80
4, 200607, Note_on_c, 3, 69, 0
4, 200768, Note_on_c, 3, 74, 0
4, 200771, Note_on_c, 3, 72, 80
4, 200942, Note_on_c, 3, 74, 80
4, 200945, Note_on_c, 3, 72, 0
4, 201070, Note_on_c, 3, 74, 0
4, 201132, Note_on_c, 3, 66, 0
4, 201143, Note_on_c, 3, 71, 80
4, 201152, Note_on_c, 3, 67, 80
4, 201359, Note_on_c, 3, 71, 0
4, 201532, Note_on_c, 3, 67, 0
4, 201533, Note_on_c, 3, 71, 80
4, 201917, Note_on_c, 3, 76, 80
4, 201918, Note_on_c, 3, 71, 0
4, 202124, Note_on_c, 3, 79, 80
4, 202295, Note_on_c, 3, 76, 0
4, 202296, Note_on_c, 3, 74, 80
4, 202323, Note_on_c, 3, 78, 80
4, 202327, Note_on_c, 3, 79, 0
4, 202497, Note_on_c, 3, 78, 0
4, 202504, Note_on_c, 3, 79, 80
4, 202706, Note_on_c, 3, 73, 80
4, 202707, Note_on_c, 3, 79, 0
4, 202707, Note_on_c, 3, 76, 80
4, 202738, Note_on_c, 3, 74, 0
4, 203098, Note_on_c, 3, 73, 0
4, 203101, Note_on_c, 3, 69, 80
4, 203461, Note_on_c, 3, 74, 80
4, 203467, Note_on_c, 3, 69, 0
4, 203475, Note_on_c, 3, 76, 0
4, 203658, Note_on_c, 3, 81, 80
4, 203862, Note_on_c, 3, 79, 80
4, 203867, Note_on_c, 3, 76, 80
4, 203873, Note_on_c, 3, 74, 0
4, 203873, Note_on_c, 3, 81, 0
4, 204055, Note_on_c, 3, 79, 0
4, 204056, Note_on_c, 3, 81, 80
4, 204254, Note_on_c, 3, 78, 80
4, 204257, Note_on_c, 3, 81, 0
4, 204291, Note_on_c, 3, 76, 0
4, 204440, Note_on_c, 3, 76, 80
4, 204629, Note_on_c, 3, 76, 0
4, 204630, Note_on_c, 3, 74, 80
4, 204810, Note_on_c, 3, 73, 80
4, 204815, Note_on_c, 3, 74, 0
4, 205016, Note_on_c, 3, 73, 0
4, 205035, Note_on_c, 3, 74, 80
4, 205201, Note_on_c, 3, 79, 80
4, 205206, Note_on_c, 3, 78, 0
4, 205395, Note_on_c, 3, 79, 0
4, 205396, Note_on_c, 3, 76, 80
4, 205578, Note_on_c, 3, 78, 80
4, 205598, Note_on_c, 3, 76, 0
4, 205776, Note_on_c, 3, 78, 0
4, 205781, Note_on_c, 3, 79, 80
4, 205987, Note_on_c, 3, 77, 80
4, 206011, Note_on_c, 3, 79, 0
4, 206160, Note_on_c, 3, 77, 0
4, 206170, Note_on_c, 3, 76, 80
4, 206297, Note_on_c, 3, 74, 0
4, 206350, Note_on_c, 3, 76, 0
4, 206352, Note_on_c, 3, 74, 80
4, 206542, Note_on_c, 3, 74, 0
4, 206551, Note_on_c, 3, 76, 80
4, 206739, Note_on_c, 3, 71, 80
4, 206935, Note_on_c, 3, 71, 0
4, 206937, Note_on_c, 3, 72, 80
4, 207097, Note_on_c, 3, 66, 80
4, 207118, Note_on_c, 3, 72, 0
4, 207292, Note_on_c, 3, 66, 0
4, 207304, Note_on_c, 3, 74, 80
4, 207308, Note_on_c, 3, 76, 0
4, 207308, Note_on_c, 3, 67, 80
4, 207488, Note_on_c, 3, 72, 80
4, 207495, Note_on_c, 3, 74, 0
4, 207683, Note_on_c, 3, 74, 80
4, 207687, Note_on_c, 3, 72, 0
4, 207857, Note_on_c, 3, 76, 80
4, 207863, Note_on_c, 3, 74, 0
4, 207964, Note_on_c, 3, 76, 0
4, 208056, Note_on_c, 3, 74, 80
4, 208250, Note_on_c, 3, 77, 80
4, 208253, Note_on_c, 3, 74, 0
4, 208444, Note_on_c, 3, 77, 0
4, 208453, Note_on_c, 3, 71, 80
4, 208637, Note_on_c, 3, 74, 80
4, 208655, Note_on_c, 3, 71, 0
4, 208828, Note_on_c, 3, 74, 0
4, 208843, Note_on_c, 3, 72, 80
4, 209040, Note_on_c, 3, 72, 0
4, 209048, Note_on_c, 3, 74, 80
4, 209091, Note_on_c, 3, 67, 0
4, 209232, Note_on_c, 3, 76, 80
4, 209235, Note_on_c, 3, 74, 0
4, 209429, Note_on_c, 3, 72, 80
4, 209624, Note_on_c, 3, 74, 80
4, 209632, Note_on_c, 3, 76, 0
4, 209683, Note_on_c, 3, 72, 0
4, 209813, Note_on_c, 3, 72, 80
4, 210005, Note_on_c, 3, 71, 80
4, 210008, Note_on_c, 3, 72, 0
4, 210200, Note_on_c, 3, 69, 80
4, 210202, Note_on_c, 3, 71, 0
4, 210403, Note_on_c, 3, 71, 80
4, 210411, Note_on_c, 3, 69, 0
4, 210576, Note_on_c, 3, 74, 0
4, 210592, Note_on_c, 3, 72, 80
4, 210769, Note_on_c, 3, 74, 80
4, 210796, Note_on_c, 3, 72, 0
4, 210956, Note_on_c, 3, 76, 80
4, 210990, Note_on_c, 3, 74, 0
4, 211153, Note_on_c, 3, 76, 0
4, 211156, Note_on_c, 3, 74, 80
4, 211358, Note_on_c, 3, 74, 0
4, 211360, Note_on_c, 3, 76, 80
4, 211522, Note_on_c, 3, 76, 0
4, 211527, Note_on_c, 3, 77, 80
4, 211540, Note_on_c, 3, 71, 0
4, 211708, Note_on_c, 3, 71, 80
4, 211770, Note_on_c, 3, 71, 0
4, 211919, Note_on_c, 3, 72, 80
4, 212113, Note_on_c, 3, 76, 80
4, 212129, Note_on_c, 3, 77, 0
4, 212254, Note_on_c, 3, 72, 0
4, 212306, Note_on_c, 3, 74, 80
4, 212318, Note_on_c, 3, 76, 0
4, 212468, Note_on_c, 3, 65, 80
4, 212530, Note_on_c, 3, 65, 0
4, 212694, Note_on_c, 3, 64, 80
4, 212885, Note_on_c, 3, 72, 80
4, 212892, Note_on_c, 3, 74, 0
4, 213049, Note_on_c, 3, 62, 80
4, 213056, Note_on_c, 3, 64, 0
4, 213239, Note_on_c, 3, 71, 80
4, 213244, Note_on_c, 3, 72, 0
4, 213438, Note_on_c, 3, 62, 0
4, 213464, Note_on_c, 3, 64, 80
4, 213467, Note_on_c, 3, 72, 80
4, 213477, Note_on_c, 3, 71, 0
4, 213656, Note_on_c, 3, 62, 80
4, 213665, Note_on_c, 3, 64, 0
4, 213852, Note_on_c, 3, 64, 80
4, 213887, Note_on_c, 3, 62, 0
4, 214041, Note_on_c, 3, 65, 80
4, 214048, Note_on_c, 3, 64, 0
4, 214225, Note_on_c, 3, 65, 0
4, 214233, Note_on_c, 3, 67, 80
4, 214415, Note_on_c, 3, 65, 80
4, 214447, Note_on_c, 3, 67, 0
4, 214613, Note_on_c, 3, 64, 80
4, 214617, Note_on_c, 3, 65, 0
4, 214802, Note_on_c, 3, 65, 80
4, 214808, Note_on_c, 3, 64, 0
4, 214977, Note_on_c, 3, 65, 0
4, 214982, Note_on_c, 3, 62, 80
4, 215013, Note_on_c, 3, 72, 0
4, 215193, Note_on_c, 3, 72, 80
4, 215384, Note_on_c, 3, 71, 80
4, 215406, Note_on_c, 3, 72, 0
4, 215575, Note_on_c, 3, 69, 80
4, 215582, Note_on_c, 3, 71, 0
4, 215758, Note_on_c, 3, 69, 0
4, 215765, Note_on_c, 3, 71, 80
4, 215941, Note_on_c, 3, 67, 80
4, 216128, Note_on_c, 3, 62, 0
4, 216131, Note_on_c, 3, 71, 0
4, 216135, Note_on_c, 3, 60, 80
4, 216135, Note_on_c, 3, 69, 80
4, 216152, Note_on_c, 3, 67, 0
4, 216319, Note_on_c, 3, 66, 80
4, 216510, Note_on_c, 3, 66, 0
4, 216535, Note_on_c, 3, 69, 0
4, 216540, Note_on_c, 3, 71, 80
4, 216544, Note_on_c, 3, 67, 80
4, 216549, Note_on_c, 3, 62, 80
4, 216553, Note_on_c, 3, 60, 0
4, 218079, Note_on_c, 3, 71, 0
4, 218084, Note_on_c, 3, 67, 0
4, 218088, Note_on_c, 3, 62, 0
4, 218088, End_track
5, 0, Start_track
5, 0, Title_t, "Pedal 16"
5, 0, MIDI_port, 0
5, 0, Control_c, 4, 7, 127
5, 0, Control_c, 4, 91, 80
5, 0, Control_c, 4, 10, 34
5, 0, Program_c, 4, 58
5, 5280, Note_on_c, 4, 38, 80
5, 5744, Note_on_c, 4, 38, 0
5, 6085, Note_on_c, 4, 38, 80
5, 6751, Note_on_c, 4, 38, 0
5, 6847, Note_on_c, 4, 38, 80
5, 7623, Note_on_c, 4, 40, 80
5, 7633, Note_on_c, 4, 38, 0
5, 8158, Note_on_c, 4, 40, 0
5, 8432, Note_on_c, 4, 40, 80
5, 9217, Note_on_c, 4, 38, 80
5, 9238, Note_on_c, 4, 40, 0
5, 9605, Note_on_c, 4, 38, 0
5, 9607, Note_on_c, 4, 40, 80
5, 9763, Note_on_c, 4, 40, 0
5, 9792, Note_on_c, 4, 42, 80
5, 9932, Note_on_c, 4, 42, 0
5, 9999, Note_on_c, 4, 43, 80
5, 11617, Note_on_c, 4, 42, 80
5, 11651, Note_on_c, 4, 43, 0
5, 12365, Note_on_c, 4, 42, 0
5, 12377, Note_on_c, 4, 43, 80
5, 12713, Note_on_c, 4, 43, 0
5, 12717, Note_on_c, 4, 45, 80
5, 12887, Note_on_c, 4, 47, 80
5, 12903, Note_on_c, 4, 45, 0
5, 13075, Note_on_c, 4, 45, 80
5, 13087, Note_on_c, 4, 47, 0
5, 13487, Note_on_c, 4, 43, 80
5, 13512, Note_on_c, 4, 45, 0
5, 13850, Note_on_c, 4, 42, 80
5, 13878, Note_on_c, 4, 43, 0
5, 14244, Note_on_c, 4, 42, 0
5, 14252, Note_on_c, 4, 38, 80
5, 14610, Note_on_c, 4, 38, 0
5, 14637, Note_on_c, 4, 43, 80
5, 15597, Note_on_c, 4, 43, 0
5, 15800, Note_on_c, 4, 42, 80
5, 15981, Note_on_c, 4, 42, 0
5, 15984, Note_on_c, 4, 40, 80
5, 16172, Note_on_c, 4, 40, 0
5, 16202, Note_on_c, 4, 42, 80
5, 16552, Note_on_c, 4, 42, 0
5, 16559, Note_on_c, 4, 38, 80
5, 16775, Note_on_c, 4, 38, 0
5, 16963, Note_on_c, 4, 43, 80
5, 17325, Note_on_c, 4, 47, 80
5, 17336, Note_on_c, 4, 43, 0
5, 17661, Note_on_c, 4, 40, 80
5, 17682, Note_on_c, 4, 47, 0
5, 18018, Note_on_c, 4, 43, 80
5, 18029, Note_on_c, 4, 40, 0
5, 18370, Note_on_c, 4, 36, 80
5, 18381, Note_on_c, 4, 43, 0
5, 18747, Note_on_c, 4, 36, 0
5, 18769, Note_on_c, 4, 48, 80
5, 18920, Note_on_c, 4, 48, 0
5, 18958, Note_on_c, 4, 47, 80
5, 19109, Note_on_c, 4, 47, 0
5, 19150, Note_on_c, 4, 48, 80
5, 19494, Note_on_c, 4, 48, 0
5, 19513, Note_on_c, 4, 44, 80
5, 19717, Note_on_c, 4, 44, 0
5, 19911, Note_on_c, 4, 45, 80
5, 20293, Note_on_c, 4, 45, 0
5, 20302, Note_on_c, 4, 48, 80
5, 20628, Note_on_c, 4, 48, 0
5, 20638, Note_on_c, 4, 40, 80
5, 21019, Note_on_c, 4, 43, 80
5, 21023, Note_on_c, 4, 40, 0
5, 21188, Note_on_c, 4, 43, 0
5, 21407, Note_on_c, 4, 42, 80
5, 21777, Note_on_c, 4, 42, 0
5, 21786, Note_on_c, 4, 38, 80
5, 21986, Note_on_c, 4, 38, 0
5, 22159, Note_on_c, 4, 43, 80
5, 22425, Note_on_c, 4, 43, 0
5, 22514, Note_on_c, 4, 31, 80
5, 22700, Note_on_c, 4, 31, 0
5, 22971, Note_on_c, 4, 38, 80
5, 23440, Note_on_c, 4, 38, 0
5, 23773, Note_on_c, 4, 26, 80
5, 24230, Note_on_c, 4, 26, 0
5, 24486, Note_on_c, 4, 31, 80
5, 24818, Note_on_c, 4, 31, 0
5, 24879, Note_on_c, 4, 38, 80
5, 25031, Note_on_c, 4, 38, 0
5, 25260, Note_on_c, 4, 43, 80
5, 26488, Note_on_c, 4, 42, 80
5, 26516, Note_on_c, 4, 43, 0
5, 26840, Note_on_c, 4, 43, 80
5, 26878, Note_on_c, 4, 42, 0
5, 27205, Note_on_c, 4, 40, 80
5, 27213, Note_on_c, 4, 43, 0
5, 27556, Note_on_c, 4, 40, 0
5, 27562, Note_on_c, 4, 36, 80
5, 27947, Note_on_c, 4, 38, 80
5, 27989, Note_on_c, 4, 36, 0
5, 28303, Note_on_c, 4, 31, 80
5, 28322, Note_on_c, 4, 38, 0
5, 28685, Note_on_c, 4, 31, 0
5, 28695, Note_on_c, 4, 36, 80
5, 29079, Note_on_c, 4, 30, 80
5, 29083, Note_on_c, 4, 36, 0
5, 29764, Note_on_c, 4, 30, 0
5, 29884, Note_on_c, 4, 35, 80
5, 30487, Note_on_c, 4, 35, 0
5, 30664, Note_on_c, 4, 28, 80
5, 30986, Note_on_c, 4, 28, 0
5, 31044, Note_on_c, 4, 40, 80
5, 31257, Note_on_c, 4, 40, 0
5, 31412, Note_on_c, 4, 42, 80
5, 31583, Note_on_c, 4, 42, 0
5, 31592, Note_on_c, 4, 40, 80
5, 31779, Note_on_c, 4, 42, 80
5, 31826, Note_on_c, 4, 40, 0
5, 31942, Note_on_c, 4, 42, 0
5, 31969, Note_on_c, 4, 38, 80
5, 32099, Note_on_c, 4, 38, 0
5, 32162, Note_on_c, 4, 45, 80
5, 32495, Note_on_c, 4, 45, 0
5, 32554, Note_on_c, 4, 33, 80
5, 32717, Note_on_c, 4, 33, 0
5, 32951, Note_on_c, 4, 38, 80
5, 34112, Note_on_c, 4, 37, 80
5, 34126, Note_on_c, 4, 38, 0
5, 34293, Note_on_c, 4, 37, 0
5, 34298, Note_on_c, 4, 35, 80
5, 34480, Note_on_c, 4, 35, 0
5, 34506, Note_on_c, 4, 37, 80
5, 34868, Note_on_c, 4, 37, 0
5, 34890, Note_on_c, 4, 30, 80
5, 35049, Note_on_c, 4, 30, 0
5, 35272, Note_on_c, 4, 35, 80
5, 36587, Note_on_c, 4, 35, 0
5, 36807, Note_on_c, 4, 36, 80
5, 37576, Note_on_c, 4, 36, 0
5, 37577, Note_on_c, 4, 35, 80
5, 38379, Note_on_c, 4, 33, 80
5, 38396, Note_on_c, 4, 35, 0
5, 39130, Note_on_c, 4, 33, 0
5, 39136, Note_on_c, 4, 35, 80
5, 39940, Note_on_c, 4, 35, 0
5, 39941, Note_on_c, 4, 33, 80
5, 41536, Note_on_c, 4, 31, 80
5, 41564, Note_on_c, 4, 33, 0
5, 42321, Note_on_c, 4, 31, 0
5, 44884, Note_on_c, 4, 31, 80
5, 45067, Note_on_c, 4, 31, 0
5, 45243, Note_on_c, 4, 43, 80
5, 46400, Note_on_c, 4, 42, 80
5, 46436, Note_on_c, 4, 43, 0
5, 46572, Note_on_c, 4, 40, 80
5, 46577, Note_on_c, 4, 42, 0
5, 46760, Note_on_c, 4, 42, 80
5, 46784, Note_on_c, 4, 40, 0
5, 47147, Note_on_c, 4, 42, 0
5, 47149, Note_on_c, 4, 38, 80
5, 47530, Note_on_c, 4, 43, 80
5, 47540, Note_on_c, 4, 38, 0
5, 47889, Note_on_c, 4, 39, 80
5, 47905, Note_on_c, 4, 43, 0
5, 48235, Note_on_c, 4, 39, 0
5, 48261, Note_on_c, 4, 40, 80
5, 48598, Note_on_c, 4, 40, 0
5, 48612, Note_on_c, 4, 35, 80
5, 48875, Note_on_c, 4, 35, 0
5, 49021, Note_on_c, 4, 36, 80
5, 49946, Note_on_c, 4, 36, 0
5, 50215, Note_on_c, 4, 37, 80
5, 50334, Note_on_c, 4, 37, 0
5, 50618, Note_on_c, 4, 38, 80
5, 51500, Note_on_c, 4, 38, 0
5, 51805, Note_on_c, 4, 39, 80
5, 52101, Note_on_c, 4, 39, 0
5, 52204, Note_on_c, 4, 40, 80
5, 52994, Note_on_c, 4, 40, 0
5, 53302, Note_on_c, 4, 40, 80
5, 53466, Note_on_c, 4, 40, 0
5, 53717, Note_on_c, 4, 35, 80
5, 54585, Note_on_c, 4, 35, 0
5, 54866, Note_on_c, 4, 35, 80
5, 55036, Note_on_c, 4, 35, 0
5, 55254, Note_on_c, 4, 36, 80
5, 56077, Note_on_c, 4, 36, 0
5, 56325, Note_on_c, 4, 31, 80
5, 56484, Note_on_c, 4, 31, 0
5, 56730, Note_on_c, 4, 24, 80
5, 57154, Note_on_c, 4, 24, 0
5, 57321, Note_on_c, 4, 36, 80
5, 57423, Note_on_c, 4, 36, 0
5, 57517, Note_on_c, 4, 35, 80
5, 57698, Note_on_c, 4, 36, 80
5, 57729, Note_on_c, 4, 35, 0
5, 57818, Note_on_c, 4, 36, 0
5, 57889, Note_on_c, 4, 33, 80
5, 58047, Note_on_c, 4, 33, 0
5, 58074, Note_on_c, 4, 35, 80
5, 58191, Note_on_c, 4, 35, 0
5, 58269, Note_on_c, 4, 31, 80
5, 59047, Note_on_c, 4, 31, 0
5, 63648, Note_on_c, 4, 38, 80
5, 64112, Note_on_c, 4, 38, 0
5, 64453, Note_on_c, 4, 38, 80
5, 65119, Note_on_c, 4, 38, 0
5, 65215, Note_on_c, 4, 38, 80
5, 65991, Note_on_c, 4, 40, 80
5, 66001, Note_on_c, 4, 38, 0
5, 66526, Note_on_c, 4, 40, 0
5, 66800, Note_on_c, 4, 40, 80
5, 67585, Note_on_c, 4, 38, 80
5, 67606, Note_on_c, 4, 40, 0
5, 67973, Note_on_c, 4, 38, 0
5, 67975, Note_on_c, 4, 40, 80
5, 68131, Note_on_c, 4, 40, 0
5, 68160, Note_on_c, 4, 42, 80
5, 68300, Note_on_c, 4, 42, 0
5, 68367, Note_on_c, 4, 43, 80
5, 69985, Note_on_c, 4, 42, 80
5, 70019, Note_on_c, 4, 43, 0
5, 70733, Note_on_c, 4, 42, 0
5, 70745, Note_on_c, 4, 43, 80
5, 71081, Note_on_c, 4, 43, 0
5, 71085, Note_on_c, 4, 45, 80
5, 71255, Note_on_c, 4, 47, 80
5, 71271, Note_on_c, 4, 45, 0
5, 71443, Note_on_c, 4, 45, 80
5, 71455, Note_on_c, 4, 47, 0
5, 71855, Note_on_c, 4, 43, 80
5, 71880, Note_on_c, 4, 45, 0
5, 72218, Note_on_c, 4, 42, 80
5, 72246, Note_on_c, 4, 43, 0
5, 72612, Note_on_c, 4, 42, 0
5, 72620, Note_on_c, 4, 38, 80
5, 72978, Note_on_c, 4, 38, 0
5, 73005, Note_on_c, 4, 43, 80
5, 73965, Note_on_c, 4, 43, 0
5, 74168, Note_on_c, 4, 42, 80
5, 74349, Note_on_c, 4, 42, 0
5, 74352, Note_on_c, 4, 40, 80
5, 74540, Note_on_c, 4, 40, 0
5, 74570, Note_on_c, 4, 42, 80
5, 74920, Note_on_c, 4, 42, 0
5, 74927, Note_on_c, 4, 38, 80
5, 75143, Note_on_c, 4, 38, 0
5, 75331, Note_on_c, 4, 43, 80
5, 75693, Note_on_c, 4, 47, 80
5, 75704, Note_on_c, 4, 43, 0
5, 76029, Note_on_c, 4, 40, 80
5, 76050, Note_on_c, 4, 47, 0
5, 76386, Note_on_c, 4, 43, 80
5, 76397, Note_on_c, 4, 40, 0
5, 76738, Note_on_c, 4, 36, 80
5, 76749, Note_on_c, 4, 43, 0
5, 77115, Note_on_c, 4, 36, 0
5, 77137, Note_on_c, 4, 48, 80
5, 77288, Note_on_c, 4, 48, 0
5, 77326, Note_on_c, 4, 47, 80
5, 77477, Note_on_c, 4, 47, 0
5, 77518, Note_on_c, 4, 48, 80
5, 77862, Note_on_c, 4, 48, 0
5, 77881, Note_on_c, 4, 44, 80
5, 78085, Note_on_c, 4, 44, 0
5, 78279, Note_on_c, 4, 45, 80
5, 78661, Note_on_c, 4, 45, 0
5, 78670, Note_on_c, 4, 48, 80
5, 78996, Note_on_c, 4, 48, 0
5, 79006, Note_on_c, 4, 40, 80
5, 79387, Note_on_c, 4, 43, 80
5, 79391, Note_on_c, 4, 40, 0
5, 79556, Note_on_c, 4, 43, 0
5, 79775, Note_on_c, 4, 42, 80
5, 80145, Note_on_c, 4, 42, 0
5, 80154, Note_on_c, 4, 38, 80
5, 80354, Note_on_c, 4, 38, 0
5, 80527, Note_on_c, 4, 43, 80
5, 80793, Note_on_c, 4, 43, 0
5, 80882, Note_on_c, 4, 31, 80
5, 81068, Note_on_c, 4, 31, 0
5, 81339, Note_on_c, 4, 38, 80
5, 81808, Note_on_c, 4, 38, 0
5, 82141, Note_on_c, 4, 26, 80
5, 82598, Note_on_c, 4, 26, 0
5, 82854, Note_on_c, 4, 31, 80
5, 83186, Note_on_c, 4, 31, 0
5, 83247, Note_on_c, 4, 38, 80
5, 83399, Note_on_c, 4, 38, 0
5, 83628, Note_on_c, 4, 43, 80
5, 84856, Note_on_c, 4, 42, 80
5, 84884, Note_on_c, 4, 43, 0
5, 85208, Note_on_c, 4, 43, 80
5, 85246, Note_on_c, 4, 42, 0
5, 85573, Note_on_c, 4, 40, 80
5, 85581, Note_on_c, 4, 43, 0
5, 85924, Note_on_c, 4, 40, 0
5, 85930, Note_on_c, 4, 36, 80
5, 86315, Note_on_c, 4, 38, 80
5, 86357, Note_on_c, 4, 36, 0
5, 86671, Note_on_c, 4, 31, 80
5, 86690, Note_on_c, 4, 38, 0
5, 87053, Note_on_c, 4, 31, 0
5, 87063, Note_on_c, 4, 36, 80
5, 87447, Note_on_c, 4, 30, 80
5, 87451, Note_on_c, 4, 36, 0
5, 88132, Note_on_c, 4, 30, 0
5, 88252, Note_on_c, 4, 35, 80
5, 88855, Note_on_c, 4, 35, 0
5, 89032, Note_on_c, 4, 28, 80
5, 89354, Note_on_c, 4, 28, 0
5, 89412, Note_on_c, 4, 40, 80
5, 89625, Note_on_c, 4, 40, 0
5, 89780, Note_on_c, 4, 42, 80
5, 89951, Note_on_c, 4, 42, 0
5, 89960, Note_on_c, 4, 40, 80
5, 90147, Note_on_c, 4, 42, 80
5, 90194, Note_on_c, 4, 40, 0
5, 90310, Note_on_c, 4, 42, 0
5, 90337, Note_on_c, 4, 38, 80
5, 90467, Note_on_c, 4, 38, 0
5, 90530, Note_on_c, 4, 45, 80
5, 90863, Note_on_c, 4, 45, 0
5, 90922, Note_on_c, 4, 33, 80
5, 91085, Note_on_c, 4, 33, 0
5, 91319, Note_on_c, 4, 38, 80
5, 92480, Note_on_c, 4, 37, 80
5, 92494, Note_on_c, 4, 38, 0
5, 92661, Note_on_c, 4, 37, 0
5, 92666, Note_on_c, 4, 35, 80
5, 92848, Note_on_c, 4, 35, 0
5, 92874, Note_on_c, 4, 37, 80
5, 93236, Note_on_c, 4, 37, 0
5, 93258, Note_on_c, 4, 30, 80
5, 93417, Note_on_c, 4, 30, 0
5, 93640, Note_on_c, 4, 35, 80
5, 94955, Note_on_c, 4, 35, 0
5, 95175, Note_on_c, 4, 36, 80
5, 95944, Note_on_c, 4, 36, 0
5, 95945, Note_on_c, 4, 35, 80
5, 96747, Note_on_c, 4, 33, 80
5, 96764, Note_on_c, 4, 35, 0
5, 97498, Note_on_c, 4, 33, 0
5, 97504, Note_on_c, 4, 35, 80
5, 98308, Note_on_c, 4, 35, 0
5, 98309, Note_on_c, 4, 33, 80
5, 99904, Note_on_c, 4, 31, 80
5, 99932, Note_on_c, 4, 33, 0
5, 100689, Note_on_c, 4, 31, 0
5, 103252, Note_on_c, 4, 31, 80
5, 103435, Note_on_c, 4, 31, 0
5, 103611, Note_on_c, 4, 43, 80
5, 104768, Note_on_c, 4, 42, 80
5, 104804, Note_on_c, 4, 43, 0
5, 104940, Note_on_c, 4, 40, 80
5, 104945, Note_on_c, 4, 42, 0
5, 105128, Note_on_c, 4, 42, 80
5, 105152, Note_on_c, 4, 40, 0
5, 105152, Control_c, 4, 7, 127
5, 105152, Control_c, 4, 10, 34
5, 105515, Note_on_c, 4, 42, 0
5, 105517, Note_on_c, 4, 38, 80
5, 105898, Note_on_c, 4, 43, 80
5, 105908, Note_on_c, 4, 38, 0
5, 106257, Note_on_c, 4, 39, 80
5, 106273, Note_on_c, 4, 43, 0
5, 106603, Note_on_c, 4, 39, 0
5, 106629, Note_on_c, 4, 40, 80
5, 106966, Note_on_c, 4, 40, 0
5, 106980, Note_on_c, 4, 35, 80
5, 107243, Note_on_c, 4, 35, 0
5, 107389, Note_on_c, 4, 36, 80
5, 108314, Note_on_c, 4, 36, 0
5, 108583, Note_on_c, 4, 37, 80
5, 108702, Note_on_c, 4, 37, 0
5, 108986, Note_on_c, 4, 38, 80
5, 109868, Note_on_c, 4, 38, 0
5, 110173, Note_on_c, 4, 39, 80
5, 110469, Note_on_c, 4, 39, 0
5, 110572, Note_on_c, 4, 40, 80
5, 111362, Note_on_c, 4, 40, 0
5, 111670, Note_on_c, 4, 40, 80
5, 111834, Note_on_c, 4, 40, 0
5, 112085, Note_on_c, 4, 35, 80
5, 112953, Note_on_c, 4, 35, 0
5, 113234, Note_on_c, 4, 35, 80
5, 113404, Note_on_c, 4, 35, 0
5, 113608, Note_on_c, 4, 36, 80
5, 113977, Note_on_c, 4, 36, 0
5, 113982, Note_on_c, 4, 31, 80
5, 114210, Note_on_c, 4, 31, 0
5, 114353, Note_on_c, 4, 28, 80
5, 114526, Note_on_c, 4, 28, 0
5, 114714, Note_on_c, 4, 24, 80
5, 114862, Note_on_c, 4, 24, 0
5, 115099, Note_on_c, 4, 31, 80
5, 116669, Note_on_c, 4, 31, 0
5, 116670, Note_on_c, 4, 26, 80
5, 117311, Note_on_c, 4, 26, 0
5, 119040, Note_on_c, 4, 38, 80
5, 119553, Note_on_c, 4, 38, 0
5, 119740, Note_on_c, 4, 38, 80
5, 120327, Note_on_c, 4, 38, 0
5, 120525, Note_on_c, 4, 38, 80
5, 121222, Note_on_c, 4, 38, 0
5, 121313, Note_on_c, 4, 42, 80
5, 121830, Note_on_c, 4, 42, 0
5, 122081, Note_on_c, 4, 42, 80
5, 122845, Note_on_c, 4, 40, 80
5, 122850, Note_on_c, 4, 42, 0
5, 123240, Note_on_c, 4, 42, 80
5, 123272, Note_on_c, 4, 40, 0
5, 123418, Note_on_c, 4, 42, 0
5, 123424, Note_on_c, 4, 43, 80
5, 123605, Note_on_c, 4, 45, 80
5, 123611, Note_on_c, 4, 43, 0
5, 123768, Note_on_c, 4, 40, 80
5, 123788, Note_on_c, 4, 45, 0
5, 123964, Note_on_c, 4, 40, 0
5, 123977, Note_on_c, 4, 45, 80
5, 124741, Note_on_c, 4, 45, 0
5, 124750, Note_on_c, 4, 43, 80
5, 125317, Note_on_c, 4, 42, 80
5, 125332, Note_on_c, 4, 43, 0
5, 125509, Note_on_c, 4, 43, 80
5, 125514, Note_on_c, 4, 42, 0
5, 125681, Note_on_c, 4, 40, 80
5, 125699, Note_on_c, 4, 43, 0
5, 125773, Note_on_c, 4, 40, 0
5, 125875, Note_on_c, 4, 47, 80
5, 126204, Note_on_c, 4, 35, 80
5, 126220, Note_on_c, 4, 47, 0
5, 126585, Note_on_c, 4, 47, 80
5, 126590, Note_on_c, 4, 35, 0
5, 126973, Note_on_c, 4, 45, 80
5, 127005, Note_on_c, 4, 47, 0
5, 127354, Note_on_c, 4, 44, 80
5, 127358, Note_on_c, 4, 45, 0
5, 127756, Note_on_c, 4, 44, 0
5, 127773, Note_on_c, 4, 40, 80
5, 128029, Note_on_c, 4, 40, 0
5, 128138, Note_on_c, 4, 45, 80
5, 128599, Note_on_c, 4, 43, 80
5, 128624, Note_on_c, 4, 45, 0
5, 128984, Note_on_c, 4, 43, 0
5, 128987, Note_on_c, 4, 42, 80
5, 129363, Note_on_c, 4, 42, 0
5, 129391, Note_on_c, 4, 38, 80
5, 129554, Note_on_c, 4, 38, 0
5, 129776, Note_on_c, 4, 43, 80
5, 130733, Note_on_c, 4, 42, 80
5, 130768, Note_on_c, 4, 43, 0
5, 130939, Note_on_c, 4, 43, 80
5, 130943, Note_on_c, 4, 42, 0
5, 131125, Note_on_c, 4, 43, 0
5, 131136, Note_on_c, 4, 40, 80
5, 131328, Note_on_c, 4, 42, 80
5, 131334, Note_on_c, 4, 40, 0
5, 131692, Note_on_c, 4, 42, 0
5, 131719, Note_on_c, 4, 37, 80
5, 131969, Note_on_c, 4, 37, 0
5, 132081, Note_on_c, 4, 38, 80
5, 132440, Note_on_c, 4, 38, 0
5, 132449, Note_on_c, 4, 40, 80
5, 132812, Note_on_c, 4, 42, 80
5, 132841, Note_on_c, 4, 40, 0
5, 133182, Note_on_c, 4, 42, 0
5, 133191, Note_on_c, 4, 43, 80
5, 133571, Note_on_c, 4, 42, 80
5, 133583, Note_on_c, 4, 43, 0
5, 133927, Note_on_c, 4, 42, 0
5, 133928, Note_on_c, 4, 40, 80
5, 134293, Note_on_c, 4, 38, 80
5, 134305, Note_on_c, 4, 40, 0
5, 134677, Note_on_c, 4, 38, 0
5, 134690, Note_on_c, 4, 37, 80
5, 135065, Note_on_c, 4, 37, 0
5, 135080, Note_on_c, 4, 39, 80
5, 135379, Note_on_c, 4, 39, 0
5, 135448, Note_on_c, 4, 35, 80
5, 135829, Note_on_c, 4, 37, 80
5, 135898, Note_on_c, 4, 35, 0
5, 136220, Note_on_c, 4, 39, 80
5, 136232, Note_on_c, 4, 37, 0
5, 136581, Note_on_c, 4, 39, 0
5, 136594, Note_on_c, 4, 40, 80
5, 136965, Note_on_c, 4, 40, 0
5, 136974, Note_on_c, 4, 42, 80
5, 137370, Note_on_c, 4, 42, 0
5, 137385, Note_on_c, 4, 43, 80
5, 137762, Note_on_c, 4, 38, 80
5, 137794, Note_on_c, 4, 43, 0
5, 138144, Note_on_c, 4, 37, 80
5, 138148, Note_on_c, 4, 38, 0
5, 138535, Note_on_c, 4, 37, 0
5, 138538, Note_on_c, 4, 33, 80
5, 138910, Note_on_c, 4, 35, 80
5, 138936, Note_on_c, 4, 33, 0
5, 139304, Note_on_c, 4, 37, 80
5, 139355, Note_on_c, 4, 35, 0
5, 139688, Note_on_c, 4, 37, 0
5, 139703, Note_on_c, 4, 38, 80
5, 139914, Note_on_c, 4, 38, 0
5, 140052, Note_on_c, 4, 30, 80
5, 140209, Note_on_c, 4, 30, 0
5, 140239, Note_on_c, 4, 31, 80
5, 140419, Note_on_c, 4, 31, 0
5, 140437, Note_on_c, 4, 33, 80
5, 140611, Note_on_c, 4, 33, 0
5, 140854, Note_on_c, 4, 33, 80
5, 140993, Note_on_c, 4, 33, 0
5, 141273, Note_on_c, 4, 26, 80
5, 141913, Note_on_c, 4, 26, 0
5, 143577, Note_on_c, 4, 38, 80
5, 144179, Note_on_c, 4, 38, 0
5, 144310, Note_on_c, 4, 40, 80
5, 144667, Note_on_c, 4, 42, 80
5, 144678, Note_on_c, 4, 40, 0
5, 144800, Note_on_c, 4, 42, 0
5, 145029, Note_on_c, 4, 43, 80
5, 146597, Note_on_c, 4, 43, 0
5, 146599, Note_on_c, 4, 42, 80
5, 147195, Note_on_c, 4, 42, 0
5, 147386, Note_on_c, 4, 43, 80
5, 147760, Note_on_c, 4, 45, 80
5, 147765, Note_on_c, 4, 43, 0
5, 148149, Note_on_c, 4, 47, 80
5, 148166, Note_on_c, 4, 45, 0
5, 148569, Note_on_c, 4, 43, 80
5, 148587, Note_on_c, 4, 47, 0
5, 148944, Note_on_c, 4, 43, 0
5, 148953, Note_on_c, 4, 45, 80
5, 149312, Note_on_c, 4, 43, 80
5, 149343, Note_on_c, 4, 45, 0
5, 149692, Note_on_c, 4, 45, 80
5, 149715, Note_on_c, 4, 43, 0
5, 149910, Note_on_c, 4, 45, 0
5, 150069, Note_on_c, 4, 38, 80
5, 150285, Note_on_c, 4, 38, 0
5, 150460, Note_on_c, 4, 43, 80
5, 150838, Note_on_c, 4, 42, 80
5, 150868, Note_on_c, 4, 43, 0
5, 151241, Note_on_c, 4, 40, 80
5, 151263, Note_on_c, 4, 42, 0
5, 151609, Note_on_c, 4, 40, 0
5, 151622, Note_on_c, 4, 38, 80
5, 152010, Note_on_c, 4, 37, 80
5, 152033, Note_on_c, 4, 38, 0
5, 152309, Note_on_c, 4, 37, 0
5, 152365, Note_on_c, 4, 33, 80
5, 152563, Note_on_c, 4, 33, 0
5, 152783, Note_on_c, 4, 38, 80
5, 153911, Note_on_c, 4, 39, 80
5, 153939, Note_on_c, 4, 38, 0
5, 154309, Note_on_c, 4, 40, 80
5, 154325, Note_on_c, 4, 39, 0
5, 154702, Note_on_c, 4, 34, 80
5, 154726, Note_on_c, 4, 40, 0
5, 155026, Note_on_c, 4, 34, 0
5, 155086, Note_on_c, 4, 35, 80
5, 155206, Note_on_c, 4, 35, 0
5, 155469, Note_on_c, 4, 47, 80
5, 156178, Note_on_c, 4, 47, 0
5, 156183, Note_on_c, 4, 45, 80
5, 156573, Note_on_c, 4, 43, 80
5, 156578, Note_on_c, 4, 45, 0
5, 156968, Note_on_c, 4, 42, 80
5, 156998, Note_on_c, 4, 43, 0
5, 157334, Note_on_c, 4, 40, 80
5, 157348, Note_on_c, 4, 42, 0
5, 157742, Note_on_c, 4, 42, 80
5, 157780, Note_on_c, 4, 40, 0
5, 157886, Note_on_c, 4, 42, 0
5, 157908, Note_on_c, 4, 43, 80
5, 158097, Note_on_c, 4, 43, 0
5, 158102, Note_on_c, 4, 45, 80
5, 158447, Note_on_c, 4, 33, 80
5, 158448, Note_on_c, 4, 45, 0
5, 158850, Note_on_c, 4, 45, 80
5, 158855, Note_on_c, 4, 33, 0
5, 159235, Note_on_c, 4, 43, 80
5, 159251, Note_on_c, 4, 45, 0
5, 159632, Note_on_c, 4, 42, 80
5, 159700, Note_on_c, 4, 43, 0
5, 159948, Note_on_c, 4, 42, 0
5, 160039, Note_on_c, 4, 38, 80
5, 160425, Note_on_c, 4, 40, 80
5, 160477, Note_on_c, 4, 38, 0
5, 160811, Note_on_c, 4, 42, 80
5, 160839, Note_on_c, 4, 40, 0
5, 161172, Note_on_c, 4, 42, 0
5, 161183, Note_on_c, 4, 43, 80
5, 161410, Note_on_c, 4, 43, 0
5, 161545, Note_on_c, 4, 31, 80
5, 161719, Note_on_c, 4, 31, 0
5, 161735, Note_on_c, 4, 33, 80
5, 161944, Note_on_c, 4, 35, 80
5, 161949, Note_on_c, 4, 33, 0
5, 162335, Note_on_c, 4, 35, 0
5, 162346, Note_on_c, 4, 37, 80
5, 162608, Note_on_c, 4, 37, 0
5, 162727, Note_on_c, 4, 38, 80
5, 163138, Note_on_c, 4, 40, 80
5, 163142, Note_on_c, 4, 38, 0
5, 163511, Note_on_c, 4, 42, 80
5, 163539, Note_on_c, 4, 40, 0
5, 163901, Note_on_c, 4, 38, 80
5, 163905, Note_on_c, 4, 42, 0
5, 164287, Note_on_c, 4, 43, 80
5, 164292, Note_on_c, 4, 38, 0
5, 164721, Note_on_c, 4, 45, 80
5, 164724, Note_on_c, 4, 43, 0
5, 165116, Note_on_c, 4, 43, 80
5, 165139, Note_on_c, 4, 45, 0
5, 165491, Note_on_c, 4, 42, 80
5, 165525, Note_on_c, 4, 43, 0
5, 165837, Note_on_c, 4, 42, 0
5, 165879, Note_on_c, 4, 40, 80
5, 166101, Note_on_c, 4, 40, 0
5, 166225, Note_on_c, 4, 36, 80
5, 166463, Note_on_c, 4, 36, 0
5, 166610, Note_on_c, 4, 33, 80
5, 166805, Note_on_c, 4, 33, 0
5, 166993, Note_on_c, 4, 35, 80
5, 167231, Note_on_c, 4, 35, 0
5, 167384, Note_on_c, 4, 28, 80
5, 167854, Note_on_c, 4, 28, 0
5, 169683, Note_on_c, 4, 45, 80
5, 170457, Note_on_c, 4, 45, 0
5, 170465, Note_on_c, 4, 47, 80
5, 171614, Note_on_c, 4, 45, 80
5, 171632, Note_on_c, 4, 47, 0
5, 172031, Note_on_c, 4, 45, 0
5, 172032, Note_on_c, 4, 43, 80
5, 172783, Note_on_c, 4, 42, 80
5, 172809, Note_on_c, 4, 43, 0
5, 173485, Note_on_c, 4, 43, 80
5, 173490, Note_on_c, 4, 42, 0
5, 173720, Note_on_c, 4, 43, 0
5, 173882, Note_on_c, 4, 31, 80
5, 174237, Note_on_c, 4, 31, 0
5, 174254, Note_on_c, 4, 33, 80
5, 174602, Note_on_c, 4, 33, 0
5, 174623, Note_on_c, 4, 35, 80
5, 174824, Note_on_c, 4, 35, 0
5, 174996, Note_on_c, 4, 24, 80
5, 175322, Note_on_c, 4, 24, 0
5, 175366, Note_on_c, 4, 36, 80
5, 175748, Note_on_c, 4, 38, 80
5, 175770, Note_on_c, 4, 36, 0
5, 176112, Note_on_c, 4, 38, 0
5, 176150, Note_on_c, 4, 40, 80
5, 176410, Note_on_c, 4, 40, 0
5, 176517, Note_on_c, 4, 41, 80
5, 176923, Note_on_c, 4, 40, 80
5, 176951, Note_on_c, 4, 41, 0
5, 177330, Note_on_c, 4, 41, 80
5, 177355, Note_on_c, 4, 40, 0
5, 177730, Note_on_c, 4, 38, 80
5, 177735, Note_on_c, 4, 41, 0
5, 178131, Note_on_c, 4, 40, 80
5, 178143, Note_on_c, 4, 38, 0
5, 178446, Note_on_c, 4, 40, 0
5, 178515, Note_on_c, 4, 35, 80
5, 178820, Note_on_c, 4, 35, 0
5, 178890, Note_on_c, 4, 36, 80
5, 179199, Note_on_c, 4, 36, 0
5, 179277, Note_on_c, 4, 41, 80
5, 179512, Note_on_c, 4, 41, 0
5, 179654, Note_on_c, 4, 38, 80
5, 180025, Note_on_c, 4, 38, 0
5, 180039, Note_on_c, 4, 35, 80
5, 180239, Note_on_c, 4, 35, 0
5, 180419, Note_on_c, 4, 40, 80
5, 180722, Note_on_c, 4, 40, 0
5, 180825, Note_on_c, 4, 28, 80
5, 181036, Note_on_c, 4, 28, 0
5, 181219, Note_on_c, 4, 33, 80
5, 181449, Note_on_c, 4, 33, 0
5, 181593, Note_on_c, 4, 45, 80
5, 182366, Note_on_c, 4, 43, 80
5, 182411, Note_on_c, 4, 45, 0
5, 182750, Note_on_c, 4, 42, 80
5, 182774, Note_on_c, 4, 43, 0
5, 182939, Note_on_c, 4, 42, 0
5, 183134, Note_on_c, 4, 30, 80
5, 183868, Note_on_c, 4, 30, 0
5, 183878, Note_on_c, 4, 28, 80
5, 184102, Note_on_c, 4, 28, 0
5, 184269, Note_on_c, 4, 27, 80
5, 184447, Note_on_c, 4, 27, 0
5, 184668, Note_on_c, 4, 28, 80
5, 185439, Note_on_c, 4, 27, 80
5, 185466, Note_on_c, 4, 28, 0
5, 185797, Note_on_c, 4, 27, 0
5, 185815, Note_on_c, 4, 28, 80
5, 185976, Note_on_c, 4, 28, 0
5, 186201, Note_on_c, 4, 40, 80
5, 186954, Note_on_c, 4, 38, 80
5, 186958, Note_on_c, 4, 40, 0
5, 187220, Note_on_c, 4, 38, 0
5, 187329, Note_on_c, 4, 37, 80
5, 187716, Note_on_c, 4, 35, 80
5, 187721, Note_on_c, 4, 37, 0
5, 188100, Note_on_c, 4, 37, 80
5, 188113, Note_on_c, 4, 35, 0
5, 188444, Note_on_c, 4, 37, 0
5, 188500, Note_on_c, 4, 30, 80
5, 188655, Note_on_c, 4, 30, 0
5, 188866, Note_on_c, 4, 35, 80
5, 189321, Note_on_c, 4, 35, 0
5, 189825, Note_on_c, 4, 40, 80
5, 190008, Note_on_c, 4, 35, 80
5, 190062, Note_on_c, 4, 40, 0
5, 190165, Note_on_c, 4, 38, 80
5, 190253, Note_on_c, 4, 38, 0
5, 190339, Note_on_c, 4, 35, 0
5, 190389, Note_on_c, 4, 37, 80
5, 190520, Note_on_c, 4, 37, 0
5, 190576, Note_on_c, 4, 33, 80
5, 190719, Note_on_c, 4, 33, 0
5, 190756, Note_on_c, 4, 38, 80
5, 191241, Note_on_c, 4, 38, 0
5, 191319, Note_on_c, 4, 35, 80
5, 191424, Note_on_c, 4, 35, 0
5, 191508, Note_on_c, 4, 40, 80
5, 192121, Note_on_c, 4, 39, 80
5, 192125, Note_on_c, 4, 40, 0
5, 192319, Note_on_c, 4, 40, 80
5, 192323, Note_on_c, 4, 39, 0
5, 192506, Note_on_c, 4, 37, 80
5, 192528, Note_on_c, 4, 40, 0
5, 192626, Note_on_c, 4, 37, 0
5, 192716, Note_on_c, 4, 39, 80
5, 193073, Note_on_c, 4, 39, 0
5, 193117, Note_on_c, 4, 35, 80
5, 193306, Note_on_c, 4, 35, 0
5, 193484, Note_on_c, 4, 40, 80
5, 193876, Note_on_c, 4, 35, 80
5, 193880, Note_on_c, 4, 40, 0
5, 194242, Note_on_c, 4, 37, 80
5, 194270, Note_on_c, 4, 35, 0
5, 194611, Note_on_c, 4, 33, 80
5, 194615, Note_on_c, 4, 37, 0
5, 194783, Note_on_c, 4, 33, 0
5, 194997, Note_on_c, 4, 38, 80
5, 195372, Note_on_c, 4, 33, 80
5, 195385, Note_on_c, 4, 38, 0
5, 195742, Note_on_c, 4, 33, 0
5, 195764, Note_on_c, 4, 35, 80
5, 196121, Note_on_c, 4, 31, 80
5, 196127, Note_on_c, 4, 35, 0
5, 196544, Note_on_c, 4, 36, 80
5, 196562, Note_on_c, 4, 31, 0
5, 196913, Note_on_c, 4, 31, 80
5, 196922, Note_on_c, 4, 36, 0
5, 197272, Note_on_c, 4, 33, 80
5, 197298, Note_on_c, 4, 31, 0
5, 197663, Note_on_c, 4, 33, 0
5, 197671, Note_on_c, 4, 35, 80
5, 198007, Note_on_c, 4, 35, 0
5, 198059, Note_on_c, 4, 28, 80
5, 198268, Note_on_c, 4, 28, 0
5, 198464, Note_on_c, 4, 35, 80
5, 198873, Note_on_c, 4, 40, 80
5, 198885, Note_on_c, 4, 35, 0
5, 199273, Note_on_c, 4, 38, 80
5, 199282, Note_on_c, 4, 40, 0
5, 199620, Note_on_c, 4, 38, 0
5, 199648, Note_on_c, 4, 36, 80
5, 200024, Note_on_c, 4, 33, 80
5, 200029, Note_on_c, 4, 36, 0
5, 200398, Note_on_c, 4, 33, 0
5, 200407, Note_on_c, 4, 38, 80
5, 200759, Note_on_c, 4, 38, 0
5, 200787, Note_on_c, 4, 26, 80
5, 200919, Note_on_c, 4, 26, 0
5, 201168, Note_on_c, 4, 31, 80
5, 201508, Note_on_c, 4, 31, 0
5, 201530, Note_on_c, 4, 38, 80
5, 201689, Note_on_c, 4, 38, 0
5, 201914, Note_on_c, 4, 43, 80
5, 203017, Note_on_c, 4, 43, 0
5, 203069, Note_on_c, 4, 42, 80
5, 203245, Note_on_c, 4, 42, 0
5, 203245, Note_on_c, 4, 40, 80
5, 203444, Note_on_c, 4, 40, 0
5, 203456, Note_on_c, 4, 42, 80
5, 203832, Note_on_c, 4, 42, 0
5, 203840, Note_on_c, 4, 37, 80
5, 203978, Note_on_c, 4, 37, 0
5, 204212, Note_on_c, 4, 38, 80
5, 204593, Note_on_c, 4, 38, 0
5, 204598, Note_on_c, 4, 45, 80
5, 204873, Note_on_c, 4, 45, 0
5, 204999, Note_on_c, 4, 50, 80
5, 205386, Note_on_c, 4, 48, 80
5, 205407, Note_on_c, 4, 50, 0
5, 205757, Note_on_c, 4, 48, 0
5, 205766, Note_on_c, 4, 47, 80
5, 206156, Note_on_c, 4, 47, 0
5, 206159, Note_on_c, 4, 43, 80
5, 206556, Note_on_c, 4, 43, 0
5, 206557, Note_on_c, 4, 48, 80
5, 207527, Note_on_c, 4, 48, 0
5, 207692, Note_on_c, 4, 47, 80
5, 207905, Note_on_c, 4, 47, 0
5, 207915, Note_on_c, 4, 45, 80
5, 208063, Note_on_c, 4, 45, 0
5, 208064, Note_on_c, 4, 47, 80
5, 208286, Note_on_c, 4, 47, 0
5, 208456, Note_on_c, 4, 43, 80
5, 208677, Note_on_c, 4, 43, 0
5, 208836, Note_on_c, 4, 40, 80
5, 209027, Note_on_c, 4, 40, 0
5, 209220, Note_on_c, 4, 36, 80
5, 209414, Note_on_c, 4, 36, 0
5, 209605, Note_on_c, 4, 43, 80
5, 210610, Note_on_c, 4, 43, 0
5, 210747, Note_on_c, 4, 41, 80
5, 210916, Note_on_c, 4, 41, 0
5, 210927, Note_on_c, 4, 40, 80
5, 211129, Note_on_c, 4, 40, 0
5, 211140, Note_on_c, 4, 41, 80
5, 211413, Note_on_c, 4, 41, 0
5, 211531, Note_on_c, 4, 38, 80
5, 211706, Note_on_c, 4, 38, 0
5, 211911, Note_on_c, 4, 40, 80
5, 212325, Note_on_c, 4, 35, 80
5, 212352, Note_on_c, 4, 40, 0
5, 212681, Note_on_c, 4, 35, 0
5, 212695, Note_on_c, 4, 36, 80
5, 212955, Note_on_c, 4, 36, 0
5, 213079, Note_on_c, 4, 31, 80
5, 213292, Note_on_c, 4, 31, 0
5, 213455, Note_on_c, 4, 28, 80
5, 213770, Note_on_c, 4, 28, 0
5, 213854, Note_on_c, 4, 31, 80
5, 214134, Note_on_c, 4, 31, 0
5, 214231, Note_on_c, 4, 28, 80
5, 214497, Note_on_c, 4, 28, 0
5, 214604, Note_on_c, 4, 24, 80
5, 214826, Note_on_c, 4, 24, 0
5, 214994, Note_on_c, 4, 31, 80
5, 218112, Note_on_c, 4, 31, 0
5, 218112, End_track
6, 0, Start_track
6, 0, Title_t, "Pedal 8"
6, 0, MIDI_port, 0
6, 0, Control_c, 2, 7, 106
6, 0, Control_c, 2, 91, 94
6, 0, Control_c, 2, 10, 42
6, 0, Program_c, 2, 19
6, 5280, Note_on_c, 2, 50, 80
6, 5744, Note_on_c, 2, 50, 0
6, 6085, Note_on_c, 2, 50, 80
6, 6751, Note_on_c, 2, 50, 0
6, 6847, Note_on_c, 2, 50, 80
6, 7623, Note_on_c, 2, 52, 80
6, 7633, Note_on_c, 2, 50, 0
6, 8158, Note_on_c, 2, 52, 0
6, 8432, Note_on_c, 2, 52, 80
6, 9217, Note_on_c, 2, 50, 80
6, 9238, Note_on_c, 2, 52, 0
6, 9605, Note_on_c, 2, 50, 0
6, 9607, Note_on_c, 2, 52, 80
6, 9763, Note_on_c, 2, 52, 0
6, 9792, Note_on_c, 2, 54, 80
6, 9932, Note_on_c, 2, 54, 0
6, 9999, Note_on_c, 2, 55, 80
6, 11617, Note_on_c, 2, 54, 80
6, 11651, Note_on_c, 2, 55, 0
6, 12365, Note_on_c, 2, 54, 0
6, 12377, Note_on_c, 2, 55, 80
6, 12713, Note_on_c, 2, 55, 0
6, 12717, Note_on_c, 2, 57, 80
6, 12887, Note_on_c, 2, 59, 80
6, 12903, Note_on_c, 2, 57, 0
6, 13075, Note_on_c, 2, 57, 80
6, 13087, Note_on_c, 2, 59, 0
6, 13487, Note_on_c, 2, 55, 80
6, 13512, Note_on_c, 2, 57, 0
6, 13850, Note_on_c, 2, 54, 80
6, 13878, Note_on_c, 2, 55, 0
6, 14244, Note_on_c, 2, 54, 0
6, 14252, Note_on_c, 2, 50, 80
6, 14610, Note_on_c, 2, 50, 0
6, 14637, Note_on_c, 2, 55, 80
6, 15597, Note_on_c, 2, 55, 0
6, 15800, Note_on_c, 2, 54, 80
6, 15981, Note_on_c, 2, 54, 0
6, 15984, Note_on_c, 2, 52, 80
6, 16172, Note_on_c, 2, 52, 0
6, 16202, Note_on_c, 2, 54, 80
6, 16552, Note_on_c, 2, 54, 0
6, 16559, Note_on_c, 2, 50, 80
6, 16775, Note_on_c, 2, 50, 0
6, 16963, Note_on_c, 2, 55, 80
6, 17325, Note_on_c, 2, 59, 80
6, 17336, Note_on_c, 2, 55, 0
6, 17661, Note_on_c, 2, 52, 80
6, 17682, Note_on_c, 2, 59, 0
6, 18018, Note_on_c, 2, 55, 80
6, 18029, Note_on_c, 2, 52, 0
6, 18370, Note_on_c, 2, 48, 80
6, 18381, Note_on_c, 2, 55, 0
6, 18747, Note_on_c, 2, 48, 0
6, 18769, Note_on_c, 2, 60, 80
6, 18920, Note_on_c, 2, 60, 0
6, 18958, Note_on_c, 2, 59, 80
6, 19109, Note_on_c, 2, 59, 0
6, 19150, Note_on_c, 2, 60, 80
6, 19494, Note_on_c, 2, 60, 0
6, 19513, Note_on_c, 2, 56, 80
6, 19717, Note_on_c, 2, 56, 0
6, 19911, Note_on_c, 2, 57, 80
6, 20293, Note_on_c, 2, 57, 0
6, 20302, Note_on_c, 2, 60, 80
6, 20628, Note_on_c, 2, 60, 0
6, 20638, Note_on_c, 2, 52, 80
6, 21019, Note_on_c, 2, 55, 80
6, 21023, Note_on_c, 2, 52, 0
6, 21188, Note_on_c, 2, 55, 0
6, 21407, Note_on_c, 2, 54, 80
6, 21777, Note_on_c, 2, 54, 0
6, 21786, Note_on_c, 2, 50, 80
6, 21986, Note_on_c, 2, 50, 0
6, 22159, Note_on_c, 2, 55, 80
6, 22425, Note_on_c, 2, 55, 0
6, 22514, Note_on_c, 2, 43, 80
6, 22700, Note_on_c, 2, 43, 0
6, 22971, Note_on_c, 2, 50, 80
6, 23440, Note_on_c, 2, 50, 0
6, 23773, Note_on_c, 2, 38, 80
6, 24230, Note_on_c, 2, 38, 0
6, 24486, Note_on_c, 2, 43, 80
6, 24818, Note_on_c, 2, 43, 0
6, 24879, Note_on_c, 2, 50, 80
6, 25031, Note_on_c, 2, 50, 0
6, 25260, Note_on_c, 2, 55, 80
6, 26488, Note_on_c, 2, 54, 80
6, 26516, Note_on_c, 2, 55, 0
6, 26840, Note_on_c, 2, 55, 80
6, 26878, Note_on_c, 2, 54, 0
6, 27205, Note_on_c, 2, 52, 80
6, 27213, Note_on_c, 2, 55, 0
6, 27556, Note_on_c, 2, 52, 0
6, 27562, Note_on_c, 2, 48, 80
6, 27947, Note_on_c, 2, 50, 80
6, 27989, Note_on_c, 2, 48, 0
6, 28303, Note_on_c, 2, 43, 80
6, 28322, Note_on_c, 2, 50, 0
6, 28685, Note_on_c, 2, 43, 0
6, 28695, Note_on_c, 2, 48, 80
6, 29079, Note_on_c, 2, 42, 80
6, 29083, Note_on_c, 2, 48, 0
6, 29764, Note_on_c, 2, 42, 0
6, 29884, Note_on_c, 2, 47, 80
6, 30487, Note_on_c, 2, 47, 0
6, 30664, Note_on_c, 2, 40, 80
6, 30986, Note_on_c, 2, 40, 0
6, 31044, Note_on_c, 2, 52, 80
6, 31257, Note_on_c, 2, 52, 0
6, 31412, Note_on_c, 2, 54, 80
6, 31583, Note_on_c, 2, 54, 0
6, 31592, Note_on_c, 2, 52, 80
6, 31779, Note_on_c, 2, 54, 80
6, 31826, Note_on_c, 2, 52, 0
6, 31942, Note_on_c, 2, 54, 0
6, 31969, Note_on_c, 2, 50, 80
6, 32099, Note_on_c, 2, 50, 0
6, 32162, Note_on_c, 2, 57, 80
6, 32495, Note_on_c, 2, 57, 0
6, 32554, Note_on_c, 2, 45, 80
6, 32717, Note_on_c, 2, 45, 0
6, 32951, Note_on_c, 2, 50, 80
6, 34112, Note_on_c, 2, 49, 80
6, 34126, Note_on_c, 2, 50, 0
6, 34293, Note_on_c, 2, 49, 0
6, 34298, Note_on_c, 2, 47, 80
6, 34480, Note_on_c, 2, 47, 0
6, 34506, Note_on_c, 2, 49, 80
6, 34868, Note_on_c, 2, 49, 0
6, 34890, Note_on_c, 2, 42, 80
6, 35049, Note_on_c, 2, 42, 0
6, 35272, Note_on_c, 2, 47, 80
6, 36587, Note_on_c, 2, 47, 0
6, 36807, Note_on_c, 2, 48, 80
6, 37576, Note_on_c, 2, 48, 0
6, 37577, Note_on_c, 2, 47, 80
6, 38379, Note_on_c, 2, 45, 80
6, 38396, Note_on_c, 2, 47, 0
6, 39130, Note_on_c, 2, 45, 0
6, 39136, Note_on_c, 2, 47, 80
6, 39940, Note_on_c, 2, 47, 0
6, 39941, Note_on_c, 2, 45, 80
6, 41536, Note_on_c, 2, 43, 80
6, 41564, Note_on_c, 2, 45, 0
6, 42321, Note_on_c, 2, 43, 0
6, 44884, Note_on_c, 2, 43, 80
6, 45067, Note_on_c, 2, 43, 0
6, 45243, Note_on_c, 2, 55, 80
6, 46400, Note_on_c, 2, 54, 80
6, 46436, Note_on_c, 2, 55, 0
6, 46572, Note_on_c, 2, 52, 80
6, 46577, Note_on_c, 2, 54, 0
6, 46760, Note_on_c, 2, 54, 80
6, 46784, Note_on_c, 2, 52, 0
6, 47147, Note_on_c, 2, 54, 0
6, 47149, Note_on_c, 2, 50, 80
6, 47530, Note_on_c, 2, 55, 80
6, 47540, Note_on_c, 2, 50, 0
6, 47889, Note_on_c, 2, 51, 80
6, 47905, Note_on_c, 2, 55, 0
6, 48235, Note_on_c, 2, 51, 0
6, 48261, Note_on_c, 2, 52, 80
6, 48598, Note_on_c, 2, 52, 0
6, 48612, Note_on_c, 2, 47, 80
6, 48875, Note_on_c, 2, 47, 0
6, 49021, Note_on_c, 2, 48, 80
6, 49946, Note_on_c, 2, 48, 0
6, 50215, Note_on_c, 2, 49, 80
6, 50334, Note_on_c, 2, 49, 0
6, 50618, Note_on_c, 2, 50, 80
6, 51500, Note_on_c, 2, 50, 0
6, 51805, Note_on_c, 2, 51, 80
6, 52101, Note_on_c, 2, 51, 0
6, 52204, Note_on_c, 2, 52, 80
6, 52994, Note_on_c, 2, 52, 0
6, 53302, Note_on_c, 2, 52, 80
6, 53466, Note_on_c, 2, 52, 0
6, 53717, Note_on_c, 2, 47, 80
6, 54585, Note_on_c, 2, 47, 0
6, 54866, Note_on_c, 2, 47, 80
6, 55036, Note_on_c, 2, 47, 0
6, 55254, Note_on_c, 2, 48, 80
6, 56077, Note_on_c, 2, 48, 0
6, 56325, Note_on_c, 2, 43, 80
6, 56484, Note_on_c, 2, 43, 0
6, 56730, Note_on_c, 2, 36, 80
6, 57154, Note_on_c, 2, 36, 0
6, 57321, Note_on_c, 2, 48, 80
6, 57423, Note_on_c, 2, 48, 0
6, 57517, Note_on_c, 2, 47, 80
6, 57698, Note_on_c, 2, 48, 80
6, 57729, Note_on_c, 2, 47, 0
6, 57818, Note_on_c, 2, 48, 0
6, 57889, Note_on_c, 2, 45, 80
6, 58047, Note_on_c, 2, 45, 0
6, 58074, Note_on_c, 2, 47, 80
6, 58191, Note_on_c, 2, 47, 0
6, 58269, Note_on_c, 2, 43, 80
6, 59047, Note_on_c, 2, 43, 0
6, 63648, Note_on_c, 2, 50, 80
6, 64112, Note_on_c, 2, 50, 0
6, 64453, Note_on_c, 2, 50, 80
6, 65119, Note_on_c, 2, 50, 0
6, 65215, Note_on_c, 2, 50, 80
6, 65991, Note_on_c, 2, 52, 80
6, 66001, Note_on_c, 2, 50, 0
6, 66526, Note_on_c, 2, 52, 0
6, 66800, Note_on_c, 2, 52, 80
6, 67585, Note_on_c, 2, 50, 80
6, 67606, Note_on_c, 2, 52, 0
6, 67973, Note_on_c, 2, 50, 0
6, 67975, Note_on_c, 2, 52, 80
6, 68131, Note_on_c, 2, 52, 0
6, 68160, Note_on_c, 2, 54, 80
6, 68300, Note_on_c, 2, 54, 0
6, 68367, Note_on_c, 2, 55, 80
6, 69985, Note_on_c, 2, 54, 80
6, 70019, Note_on_c, 2, 55, 0
6, 70733, Note_on_c, 2, 54, 0
6, 70745, Note_on_c, 2, 55, 80
6, 71081, Note_on_c, 2, 55, 0
6, 71085, Note_on_c, 2, 57, 80
6, 71255, Note_on_c, 2, 59, 80
6, 71271, Note_on_c, 2, 57, 0
6, 71443, Note_on_c, 2, 57, 80
6, 71455, Note_on_c, 2, 59, 0
6, 71855, Note_on_c, 2, 55, 80
6, 71880, Note_on_c, 2, 57, 0
6, 72218, Note_on_c, 2, 54, 80
6, 72246, Note_on_c, 2, 55, 0
6, 72612, Note_on_c, 2, 54, 0
6, 72620, Note_on_c, 2, 50, 80
6, 72978, Note_on_c, 2, 50, 0
6, 73005, Note_on_c, 2, 55, 80
6, 73965, Note_on_c, 2, 55, 0
6, 74168, Note_on_c, 2, 54, 80
6, 74349, Note_on_c, 2, 54, 0
6, 74352, Note_on_c, 2, 52, 80
6, 74540, Note_on_c, 2, 52, 0
6, 74570, Note_on_c, 2, 54, 80
6, 74920, Note_on_c, 2, 54, 0
6, 74927, Note_on_c, 2, 50, 80
6, 75143, Note_on_c, 2, 50, 0
6, 75331, Note_on_c, 2, 55, 80
6, 75693, Note_on_c, 2, 59, 80
6, 75704, Note_on_c, 2, 55, 0
6, 76029, Note_on_c, 2, 52, 80
6, 76050, Note_on_c, 2, 59, 0
6, 76386, Note_on_c, 2, 55, 80
6, 76397, Note_on_c, 2, 52, 0
6, 76738, Note_on_c, 2, 48, 80
6, 76749, Note_on_c, 2, 55, 0
6, 77115, Note_on_c, 2, 48, 0
6, 77137, Note_on_c, 2, 60, 80
6, 77288, Note_on_c, 2, 60, 0
6, 77326, Note_on_c, 2, 59, 80
6, 77477, Note_on_c, 2, 59, 0
6, 77518, Note_on_c, 2, 60, 80
6, 77862, Note_on_c, 2, 60, 0
6, 77881, Note_on_c, 2, 56, 80
6, 78085, Note_on_c, 2, 56, 0
6, 78279, Note_on_c, 2, 57, 80
6, 78661, Note_on_c, 2, 57, 0
6, 78670, Note_on_c, 2, 60, 80
6, 78996, Note_on_c, 2, 60, 0
6, 79006, Note_on_c, 2, 52, 80
6, 79387, Note_on_c, 2, 55, 80
6, 79391, Note_on_c, 2, 52, 0
6, 79556, Note_on_c, 2, 55, 0
6, 79775, Note_on_c, 2, 54, 80
6, 80145, Note_on_c, 2, 54, 0
6, 80154, Note_on_c, 2, 50, 80
6, 80354, Note_on_c, 2, 50, 0
6, 80527, Note_on_c, 2, 55, 80
6, 80793, Note_on_c, 2, 55, 0
6, 80882, Note_on_c, 2, 43, 80
6, 81068, Note_on_c, 2, 43, 0
6, 81339, Note_on_c, 2, 50, 80
6, 81808, Note_on_c, 2, 50, 0
6, 82141, Note_on_c, 2, 38, 80
6, 82598, Note_on_c, 2, 38, 0
6, 82854, Note_on_c, 2, 43, 80
6, 83186, Note_on_c, 2, 43, 0
6, 83247, Note_on_c, 2, 50, 80
6, 83399, Note_on_c, 2, 50, 0
6, 83628, Note_on_c, 2, 55, 80
6, 84856, Note_on_c, 2, 54, 80
6, 84884, Note_on_c, 2, 55, 0
6, 85208, Note_on_c, 2, 55, 80
6, 85246, Note_on_c, 2, 54, 0
6, 85573, Note_on_c, 2, 52, 80
6, 85581, Note_on_c, 2, 55, 0
6, 85924, Note_on_c, 2, 52, 0
6, 85930, Note_on_c, 2, 48, 80
6, 86315, Note_on_c, 2, 50, 80
6, 86357, Note_on_c, 2, 48, 0
6, 86671, Note_on_c, 2, 43, 80
6, 86690, Note_on_c, 2, 50, 0
6, 87053, Note_on_c, 2, 43, 0
6, 87063, Note_on_c, 2, 48, 80
6, 87447, Note_on_c, 2, 42, 80
6, 87451, Note_on_c, 2, 48, 0
6, 88132, Note_on_c, 2, 42, 0
6, 88252, Note_on_c, 2, 47, 80
6, 88855, Note_on_c, 2, 47, 0
6, 89032, Note_on_c, 2, 40, 80
6, 89354, Note_on_c, 2, 40, 0
6, 89412, Note_on_c, 2, 52, 80
6, 89625, Note_on_c, 2, 52, 0
6, 89780, Note_on_c, 2, 54, 80
6, 89951, Note_on_c, 2, 54, 0
6, 89960, Note_on_c, 2, 52, 80
6, 90147, Note_on_c, 2, 54, 80
6, 90194, Note_on_c, 2, 52, 0
6, 90310, Note_on_c, 2, 54, 0
6, 90337, Note_on_c, 2, 50, 80
6, 90467, Note_on_c, 2, 50, 0
6, 90530, Note_on_c, 2, 57, 80
6, 90863, Note_on_c, 2, 57, 0
6, 90922, Note_on_c, 2, 45, 80
6, 91085, Note_on_c, 2, 45, 0
6, 91319, Note_on_c, 2, 50, 80
6, 92480, Note_on_c, 2, 49, 80
6, 92494, Note_on_c, 2, 50, 0
6, 92661, Note_on_c, 2, 49, 0
6, 92666, Note_on_c, 2, 47, 80
6, 92848, Note_on_c, 2, 47, 0
6, 92874, Note_on_c, 2, 49, 80
6, 93236, Note_on_c, 2, 49, 0
6, 93258, Note_on_c, 2, 42, 80
6, 93417, Note_on_c, 2, 42, 0
6, 93640, Note_on_c, 2, 47, 80
6, 94955, Note_on_c, 2, 47, 0
6, 95175, Note_on_c, 2, 48, 80
6, 95944, Note_on_c, 2, 48, 0
6, 95945, Note_on_c, 2, 47, 80
6, 96747, Note_on_c, 2, 45, 80
6, 96764, Note_on_c, 2, 47, 0
6, 97498, Note_on_c, 2, 45, 0
6, 97504, Note_on_c, 2, 47, 80
6, 98308, Note_on_c, 2, 47, 0
6, 98309, Note_on_c, 2, 45, 80
6, 99904, Note_on_c, 2, 43, 80
6, 99932, Note_on_c, 2, 45, 0
6, 100689, Note_on_c, 2, 43, 0
6, 103252, Note_on_c, 2, 43, 80
6, 103435, Note_on_c, 2, 43, 0
6, 103611, Note_on_c, 2, 55, 80
6, 104768, Note_on_c, 2, 54, 80
6, 104804, Note_on_c, 2, 55, 0
6, 104940, Note_on_c, 2, 52, 80
6, 104945, Note_on_c, 2, 54, 0
6, 105128, Note_on_c, 2, 54, 80
6, 105152, Note_on_c, 2, 52, 0
6, 105152, Control_c, 2, 7, 106
6, 105152, Control_c, 2, 10, 42
6, 105515, Note_on_c, 2, 54, 0
6, 105517, Note_on_c, 2, 50, 80
6, 105898, Note_on_c, 2, 55, 80
6, 105908, Note_on_c, 2, 50, 0
6, 106257, Note_on_c, 2, 51, 80
6, 106273, Note_on_c, 2, 55, 0
6, 106603, Note_on_c, 2, 51, 0
6, 106629, Note_on_c, 2, 52, 80
6, 106966, Note_on_c, 2, 52, 0
6, 106980, Note_on_c, 2, 47, 80
6, 107243, Note_on_c, 2, 47, 0
6, 107389, Note_on_c, 2, 48, 80
6, 108314, Note_on_c, 2, 48, 0
6, 108583, Note_on_c, 2, 49, 80
6, 108702, Note_on_c, 2, 49, 0
6, 108986, Note_on_c, 2, 50, 80
6, 109868, Note_on_c, 2, 50, 0
6, 110173, Note_on_c, 2, 51, 80
6, 110469, Note_on_c, 2, 51, 0
6, 110572, Note_on_c, 2, 52, 80
6, 111362, Note_on_c, 2, 52, 0
6, 111670, Note_on_c, 2, 52, 80
6, 111834, Note_on_c, 2, 52, 0
6, 112085, Note_on_c, 2, 47, 80
6, 112953, Note_on_c, 2, 47, 0
6, 113234, Note_on_c, 2, 47, 80
6, 113404, Note_on_c, 2, 47, 0
6, 113608, Note_on_c, 2, 48, 80
6, 113977, Note_on_c, 2, 48, 0
6, 113982, Note_on_c, 2, 43, 80
6, 114210, Note_on_c, 2, 43, 0
6, 114353, Note_on_c, 2, 40, 80
6, 114526, Note_on_c, 2, 40, 0
6, 114714, Note_on_c, 2, 36, 80
6, 114862, Note_on_c, 2, 36, 0
6, 115099, Note_on_c, 2, 43, 80
6, 116669, Note_on_c, 2, 43, 0
6, 116670, Note_on_c, 2, 38, 80
6, 117407, Note_on_c, 2, 38, 0
6, 119040, Note_on_c, 2, 50, 80
6, 119553, Note_on_c, 2, 50, 0
6, 119740, Note_on_c, 2, 50, 80
6, 120327, Note_on_c, 2, 50, 0
6, 120525, Note_on_c, 2, 50, 80
6, 121222, Note_on_c, 2, 50, 0
6, 121313, Note_on_c, 2, 54, 80
6, 121830, Note_on_c, 2, 54, 0
6, 122081, Note_on_c, 2, 54, 80
6, 122845, Note_on_c, 2, 52, 80
6, 122850, Note_on_c, 2, 54, 0
6, 123240, Note_on_c, 2, 54, 80
6, 123272, Note_on_c, 2, 52, 0
6, 123418, Note_on_c, 2, 54, 0
6, 123424, Note_on_c, 2, 55, 80
6, 123605, Note_on_c, 2, 57, 80
6, 123611, Note_on_c, 2, 55, 0
6, 123768, Note_on_c, 2, 52, 80
6, 123788, Note_on_c, 2, 57, 0
6, 123964, Note_on_c, 2, 52, 0
6, 123977, Note_on_c, 2, 57, 80
6, 124741, Note_on_c, 2, 57, 0
6, 124750, Note_on_c, 2, 55, 80
6, 125317, Note_on_c, 2, 54, 80
6, 125332, Note_on_c, 2, 55, 0
6, 125509, Note_on_c, 2, 55, 80
6, 125514, Note_on_c, 2, 54, 0
6, 125681, Note_on_c, 2, 52, 80
6, 125699, Note_on_c, 2, 55, 0
6, 125773, Note_on_c, 2, 52, 0
6, 125875, Note_on_c, 2, 59, 80
6, 126204, Note_on_c, 2, 47, 80
6, 126220, Note_on_c, 2, 59, 0
6, 126585, Note_on_c, 2, 59, 80
6, 126590, Note_on_c, 2, 47, 0
6, 126973, Note_on_c, 2, 57, 80
6, 127005, Note_on_c, 2, 59, 0
6, 127354, Note_on_c, 2, 56, 80
6, 127358, Note_on_c, 2, 57, 0
6, 127756, Note_on_c, 2, 56, 0
6, 127773, Note_on_c, 2, 52, 80
6, 128029, Note_on_c, 2, 52, 0
6, 128138, Note_on_c, 2, 57, 80
6, 128599, Note_on_c, 2, 55, 80
6, 128624, Note_on_c, 2, 57, 0
6, 128984, Note_on_c, 2, 55, 0
6, 128987, Note_on_c, 2, 54, 80
6, 129363, Note_on_c, 2, 54, 0
6, 129391, Note_on_c, 2, 50, 80
6, 129554, Note_on_c, 2, 50, 0
6, 129776, Note_on_c, 2, 55, 80
6, 130733, Note_on_c, 2, 54, 80
6, 130768, Note_on_c, 2, 55, 0
6, 130939, Note_on_c, 2, 55, 80
6, 130943, Note_on_c, 2, 54, 0
6, 131125, Note_on_c, 2, 55, 0
6, 131136, Note_on_c, 2, 52, 80
6, 131328, Note_on_c, 2, 54, 80
6, 131334, Note_on_c, 2, 52, 0
6, 131692, Note_on_c, 2, 54, 0
6, 131719, Note_on_c, 2, 49, 80
6, 131969, Note_on_c, 2, 49, 0
6, 132081, Note_on_c, 2, 50, 80
6, 132440, Note_on_c, 2, 50, 0
6, 132449, Note_on_c, 2, 52, 80
6, 132812, Note_on_c, 2, 54, 80
6, 132841, Note_on_c, 2, 52, 0
6, 133182, Note_on_c, 2, 54, 0
6, 133191, Note_on_c, 2, 55, 80
6, 133571, Note_on_c, 2, 54, 80
6, 133583, Note_on_c, 2, 55, 0
6, 133927, Note_on_c, 2, 54, 0
6, 133928, Note_on_c, 2, 52, 80
6, 134293, Note_on_c, 2, 50, 80
6, 134305, Note_on_c, 2, 52, 0
6, 134677, Note_on_c, 2, 50, 0
6, 134690, Note_on_c, 2, 49, 80
6, 135065, Note_on_c, 2, 49, 0
6, 135080, Note_on_c, 2, 51, 80
6, 135379, Note_on_c, 2, 51, 0
6, 135448, Note_on_c, 2, 47, 80
6, 135829, Note_on_c, 2, 49, 80
6, 135898, Note_on_c, 2, 47, 0
6, 136220, Note_on_c, 2, 51, 80
6, 136232, Note_on_c, 2, 49, 0
6, 136581, Note_on_c, 2, 51, 0
6, 136594, Note_on_c, 2, 52, 80
6, 136965, Note_on_c, 2, 52, 0
6, 136974, Note_on_c, 2, 54, 80
6, 137370, Note_on_c, 2, 54, 0
6, 137385, Note_on_c, 2, 55, 80
6, 137762, Note_on_c, 2, 50, 80
6, 137794, Note_on_c, 2, 55, 0
6, 138144, Note_on_c, 2, 49, 80
6, 138148, Note_on_c, 2, 50, 0
6, 138535, Note_on_c, 2, 49, 0
6, 138538, Note_on_c, 2, 45, 80
6, 138910, Note_on_c, 2, 47, 80
6, 138936, Note_on_c, 2, 45, 0
6, 139304, Note_on_c, 2, 49, 80
6, 139355, Note_on_c, 2, 47, 0
6, 139688, Note_on_c, 2, 49, 0
6, 139703, Note_on_c, 2, 50, 80
6, 139914, Note_on_c, 2, 50, 0
6, 140052, Note_on_c, 2, 42, 80
6, 140209, Note_on_c, 2, 42, 0
6, 140239, Note_on_c, 2, 43, 80
6, 140419, Note_on_c, 2, 43, 0
6, 140437, Note_on_c, 2, 45, 80
6, 140611, Note_on_c, 2, 45, 0
6, 140854, Note_on_c, 2, 45, 80
6, 140993, Note_on_c, 2, 45, 0
6, 141273, Note_on_c, 2, 38, 80
6, 141913, Note_on_c, 2, 38, 0
6, 143577, Note_on_c, 2, 50, 80
6, 144179, Note_on_c, 2, 50, 0
6, 144310, Note_on_c, 2, 52, 80
6, 144667, Note_on_c, 2, 54, 80
6, 144678, Note_on_c, 2, 52, 0
6, 144800, Note_on_c, 2, 54, 0
6, 145029, Note_on_c, 2, 55, 80
6, 146597, Note_on_c, 2, 55, 0
6, 146599, Note_on_c, 2, 54, 80
6, 147195, Note_on_c, 2, 54, 0
6, 147386, Note_on_c, 2, 55, 80
6, 147760, Note_on_c, 2, 57, 80
6, 147765, Note_on_c, 2, 55, 0
6, 148149, Note_on_c, 2, 59, 80
6, 148166, Note_on_c, 2, 57, 0
6, 148569, Note_on_c, 2, 55, 80
6, 148587, Note_on_c, 2, 59, 0
6, 148944, Note_on_c, 2, 55, 0
6, 148953, Note_on_c, 2, 57, 80
6, 149312, Note_on_c, 2, 55, 80
6, 149343, Note_on_c, 2, 57, 0
6, 149692, Note_on_c, 2, 57, 80
6, 149715, Note_on_c, 2, 55, 0
6, 149910, Note_on_c, 2, 57, 0
6, 150069, Note_on_c, 2, 50, 80
6, 150285, Note_on_c, 2, 50, 0
6, 150460, Note_on_c, 2, 55, 80
6, 150838, Note_on_c, 2, 54, 80
6, 150868, Note_on_c, 2, 55, 0
6, 151241, Note_on_c, 2, 52, 80
6, 151263, Note_on_c, 2, 54, 0
6, 151609, Note_on_c, 2, 52, 0
6, 151622, Note_on_c, 2, 50, 80
6, 152010, Note_on_c, 2, 49, 80
6, 152033, Note_on_c, 2, 50, 0
6, 152309, Note_on_c, 2, 49, 0
6, 152365, Note_on_c, 2, 45, 80
6, 152563, Note_on_c, 2, 45, 0
6, 152783, Note_on_c, 2, 50, 80
6, 153911, Note_on_c, 2, 51, 80
6, 153939, Note_on_c, 2, 50, 0
6, 154309, Note_on_c, 2, 52, 80
6, 154325, Note_on_c, 2, 51, 0
6, 154702, Note_on_c, 2, 46, 80
6, 154726, Note_on_c, 2, 52, 0
6, 155026, Note_on_c, 2, 46, 0
6, 155086, Note_on_c, 2, 47, 80
6, 155206, Note_on_c, 2, 47, 0
6, 155469, Note_on_c, 2, 59, 80
6, 156178, Note_on_c, 2, 59, 0
6, 156183, Note_on_c, 2, 57, 80
6, 156573, Note_on_c, 2, 55, 80
6, 156578, Note_on_c, 2, 57, 0
6, 156968, Note_on_c, 2, 54, 80
6, 156998, Note_on_c, 2, 55, 0
6, 157334, Note_on_c, 2, 52, 80
6, 157348, Note_on_c, 2, 54, 0
6, 157742, Note_on_c, 2, 54, 80
6, 157780, Note_on_c, 2, 52, 0
6, 157886, Note_on_c, 2, 54, 0
6, 157908, Note_on_c, 2, 55, 80
6, 158097, Note_on_c, 2, 55, 0
6, 158102, Note_on_c, 2, 57, 80
6, 158447, Note_on_c, 2, 45, 80
6, 158448, Note_on_c, 2, 57, 0
6, 158850, Note_on_c, 2, 57, 80
6, 158855, Note_on_c, 2, 45, 0
6, 159235, Note_on_c, 2, 55, 80
6, 159251, Note_on_c, 2, 57, 0
6, 159632, Note_on_c, 2, 54, 80
6, 159700, Note_on_c, 2, 55, 0
6, 159948, Note_on_c, 2, 54, 0
6, 160039, Note_on_c, 2, 50, 80
6, 160425, Note_on_c, 2, 52, 80
6, 160477, Note_on_c, 2, 50, 0
6, 160811, Note_on_c, 2, 54, 80
6, 160839, Note_on_c, 2, 52, 0
6, 161172, Note_on_c, 2, 54, 0
6, 161183, Note_on_c, 2, 55, 80
6, 161410, Note_on_c, 2, 55, 0
6, 161545, Note_on_c, 2, 43, 80
6, 161719, Note_on_c, 2, 43, 0
6, 161735, Note_on_c, 2, 45, 80
6, 161944, Note_on_c, 2, 47, 80
6, 161949, Note_on_c, 2, 45, 0
6, 162335, Note_on_c, 2, 47, 0
6, 162346, Note_on_c, 2, 49, 80
6, 162608, Note_on_c, 2, 49, 0
6, 162727, Note_on_c, 2, 50, 80
6, 163138, Note_on_c, 2, 52, 80
6, 163142, Note_on_c, 2, 50, 0
6, 163511, Note_on_c, 2, 54, 80
6, 163539, Note_on_c, 2, 52, 0
6, 163901, Note_on_c, 2, 50, 80
6, 163905, Note_on_c, 2, 54, 0
6, 164287, Note_on_c, 2, 55, 80
6, 164292, Note_on_c, 2, 50, 0
6, 164721, Note_on_c, 2, 57, 80
6, 164724, Note_on_c, 2, 55, 0
6, 165116, Note_on_c, 2, 55, 80
6, 165139, Note_on_c, 2, 57, 0
6, 165491, Note_on_c, 2, 54, 80
6, 165525, Note_on_c, 2, 55, 0
6, 165837, Note_on_c, 2, 54, 0
6, 165879, Note_on_c, 2, 52, 80
6, 166101, Note_on_c, 2, 52, 0
6, 166225, Note_on_c, 2, 48, 80
6, 166463, Note_on_c, 2, 48, 0
6, 166610, Note_on_c, 2, 45, 80
6, 166805, Note_on_c, 2, 45, 0
6, 166993, Note_on_c, 2, 47, 80
6, 167231, Note_on_c, 2, 47, 0
6, 167384, Note_on_c, 2, 40, 80
6, 167854, Note_on_c, 2, 40, 0
6, 169683, Note_on_c, 2, 57, 80
6, 170457, Note_on_c, 2, 57, 0
6, 170465, Note_on_c, 2, 59, 80
6, 171614, Note_on_c, 2, 57, 80
6, 171632, Note_on_c, 2, 59, 0
6, 172031, Note_on_c, 2, 57, 0
6, 172032, Note_on_c, 2, 55, 80
6, 172783, Note_on_c, 2, 54, 80
6, 172809, Note_on_c, 2, 55, 0
6, 173485, Note_on_c, 2, 55, 80
6, 173490, Note_on_c, 2, 54, 0
6, 173720, Note_on_c, 2, 55, 0
6, 173882, Note_on_c, 2, 43, 80
6, 174237, Note_on_c, 2, 43, 0
6, 174254, Note_on_c, 2, 45, 80
6, 174602, Note_on_c, 2, 45, 0
6, 174623, Note_on_c, 2, 47, 80
6, 174824, Note_on_c, 2, 47, 0
6, 174996, Note_on_c, 2, 36, 80
6, 175322, Note_on_c, 2, 36, 0
6, 175366, Note_on_c, 2, 48, 80
6, 175748, Note_on_c, 2, 50, 80
6, 175770, Note_on_c, 2, 48, 0
6, 176112, Note_on_c, 2, 50, 0
6, 176150, Note_on_c, 2, 52, 80
6, 176410, Note_on_c, 2, 52, 0
6, 176517, Note_on_c, 2, 53, 80
6, 176923, Note_on_c, 2, 52, 80
6, 176951, Note_on_c, 2, 53, 0
6, 177330, Note_on_c, 2, 53, 80
6, 177355, Note_on_c, 2, 52, 0
6, 177730, Note_on_c, 2, 50, 80
6, 177735, Note_on_c, 2, 53, 0
6, 178131, Note_on_c, 2, 52, 80
6, 178143, Note_on_c, 2, 50, 0
6, 178446, Note_on_c, 2, 52, 0
6, 178515, Note_on_c, 2, 47, 80
6, 178820, Note_on_c, 2, 47, 0
6, 178890, Note_on_c, 2, 48, 80
6, 179199, Note_on_c, 2, 48, 0
6, 179277, Note_on_c, 2, 53, 80
6, 179512, Note_on_c, 2, 53, 0
6, 179654, Note_on_c, 2, 50, 80
6, 180025, Note_on_c, 2, 50, 0
6, 180039, Note_on_c, 2, 47, 80
6, 180239, Note_on_c, 2, 47, 0
6, 180419, Note_on_c, 2, 52, 80
6, 180722, Note_on_c, 2, 52, 0
6, 180825, Note_on_c, 2, 40, 80
6, 181036, Note_on_c, 2, 40, 0
6, 181219, Note_on_c, 2, 45, 80
6, 181449, Note_on_c, 2, 45, 0
6, 181593, Note_on_c, 2, 57, 80
6, 182366, Note_on_c, 2, 55, 80
6, 182411, Note_on_c, 2, 57, 0
6, 182750, Note_on_c, 2, 54, 80
6, 182774, Note_on_c, 2, 55, 0
6, 182939, Note_on_c, 2, 54, 0
6, 183134, Note_on_c, 2, 42, 80
6, 183868, Note_on_c, 2, 42, 0
6, 183878, Note_on_c, 2, 40, 80
6, 184102, Note_on_c, 2, 40, 0
6, 184269, Note_on_c, 2, 39, 80
6, 184447, Note_on_c, 2, 39, 0
6, 184668, Note_on_c, 2, 40, 80
6, 185439, Note_on_c, 2, 39, 80
6, 185466, Note_on_c, 2, 40, 0
6, 185797, Note_on_c, 2, 39, 0
6, 185815, Note_on_c, 2, 40, 80
6, 185976, Note_on_c, 2, 40, 0
6, 186201, Note_on_c, 2, 52, 80
6, 186954, Note_on_c, 2, 50, 80
6, 186958, Note_on_c, 2, 52, 0
6, 187220, Note_on_c, 2, 50, 0
6, 187329, Note_on_c, 2, 49, 80
6, 187716, Note_on_c, 2, 47, 80
6, 187721, Note_on_c, 2, 49, 0
6, 188100, Note_on_c, 2, 49, 80
6, 188113, Note_on_c, 2, 47, 0
6, 188444, Note_on_c, 2, 49, 0
6, 188500, Note_on_c, 2, 42, 80
6, 188655, Note_on_c, 2, 42, 0
6, 188866, Note_on_c, 2, 47, 80
6, 189321, Note_on_c, 2, 47, 0
6, 189825, Note_on_c, 2, 52, 80
6, 190008, Note_on_c, 2, 47, 80
6, 190062, Note_on_c, 2, 52, 0
6, 190165, Note_on_c, 2, 50, 80
6, 190253, Note_on_c, 2, 50, 0
6, 190339, Note_on_c, 2, 47, 0
6, 190389, Note_on_c, 2, 49, 80
6, 190520, Note_on_c, 2, 49, 0
6, 190576, Note_on_c, 2, 45, 80
6, 190719, Note_on_c, 2, 45, 0
6, 190756, Note_on_c, 2, 50, 80
6, 191241, Note_on_c, 2, 50, 0
6, 191319, Note_on_c, 2, 47, 80
6, 191424, Note_on_c, 2, 47, 0
6, 191508, Note_on_c, 2, 52, 80
6, 192121, Note_on_c, 2, 51, 80
6, 192125, Note_on_c, 2, 52, 0
6, 192319, Note_on_c, 2, 52, 80
6, 192323, Note_on_c, 2, 51, 0
6, 192506, Note_on_c, 2, 49, 80
6, 192528, Note_on_c, 2, 52, 0
6, 192626, Note_on_c, 2, 49, 0
6, 192716, Note_on_c, 2, 51, 80
6, 193073, Note_on_c, 2, 51, 0
6, 193117, Note_on_c, 2, 47, 80
6, 193306, Note_on_c, 2, 47, 0
6, 193484, Note_on_c, 2, 52, 80
6, 193876, Note_on_c, 2, 47, 80
6, 193880, Note_on_c, 2, 52, 0
6, 194242, Note_on_c, 2, 49, 80
6, 194270, Note_on_c, 2, 47, 0
6, 194611, Note_on_c, 2, 45, 80
6, 194615, Note_on_c, 2, 49, 0
6, 194783, Note_on_c, 2, 45, 0
6, 194997, Note_on_c, 2, 50, 80
6, 195372, Note_on_c, 2, 45, 80
6, 195385, Note_on_c, 2, 50, 0
6, 195742, Note_on_c, 2, 45, 0
6, 195764, Note_on_c, 2, 47, 80
6, 196121, Note_on_c, 2, 43, 80
6, 196127, Note_on_c, 2, 47, 0
6, 196544, Note_on_c, 2, 48, 80
6, 196562, Note_on_c, 2, 43, 0
6, 196913, Note_on_c, 2, 43, 80
6, 196922, Note_on_c, 2, 48, 0
6, 197272, Note_on_c, 2, 45, 80
6, 197298, Note_on_c, 2, 43, 0
6, 197663, Note_on_c, 2, 45, 0
6, 197671, Note_on_c, 2, 47, 80
6, 198007, Note_on_c, 2, 47, 0
6, 198059, Note_on_c, 2, 40, 80
6, 198268, Note_on_c, 2, 40, 0
6, 198464, Note_on_c, 2, 47, 80
6, 198873, Note_on_c, 2, 52, 80
6, 198885, Note_on_c, 2, 47, 0
6, 199273, Note_on_c, 2, 50, 80
6, 199282, Note_on_c, 2, 52, 0
6, 199620, Note_on_c, 2, 50, 0
6, 199648, Note_on_c, 2, 48, 80
6, 200024, Note_on_c, 2, 45, 80
6, 200029, Note_on_c, 2, 48, 0
6, 200398, Note_on_c, 2, 45, 0
6, 200407, Note_on_c, 2, 50, 80
6, 200759, Note_on_c, 2, 50, 0
6, 200787, Note_on_c, 2, 38, 80
6, 200919, Note_on_c, 2, 38, 0
6, 201168, Note_on_c, 2, 43, 80
6, 201508, Note_on_c, 2, 43, 0
6, 201530, Note_on_c, 2, 50, 80
6, 201689, Note_on_c, 2, 50, 0
6, 201914, Note_on_c, 2, 55, 80
6, 203017, Note_on_c, 2, 55, 0
6, 203069, Note_on_c, 2, 54, 80
6, 203245, Note_on_c, 2, 54, 0
6, 203245, Note_on_c, 2, 52, 80
6, 203444, Note_on_c, 2, 52, 0
6, 203456, Note_on_c, 2, 54, 80
6, 203832, Note_on_c, 2, 54, 0
6, 203840, Note_on_c, 2, 49, 80
6, 203978, Note_on_c, 2, 49, 0
6, 204212, Note_on_c, 2, 50, 80
6, 204593, Note_on_c, 2, 50, 0
6, 204598, Note_on_c, 2, 57, 80
6, 204873, Note_on_c, 2, 57, 0
6, 204999, Note_on_c, 2, 62, 80
6, 205386, Note_on_c, 2, 60, 80
6, 205407, Note_on_c, 2, 62, 0
6, 205757, Note_on_c, 2, 60, 0
6, 205766, Note_on_c, 2, 59, 80
6, 206156, Note_on_c, 2, 59, 0
6, 206159, Note_on_c, 2, 55, 80
6, 206556, Note_on_c, 2, 55, 0
6, 206557, Note_on_c, 2, 60, 80
6, 207527, Note_on_c, 2, 60, 0
6, 207692, Note_on_c, 2, 59, 80
6, 207905, Note_on_c, 2, 59, 0
6, 207915, Note_on_c, 2, 57, 80
6, 208063, Note_on_c, 2, 57, 0
6, 208064, Note_on_c, 2, 59, 80
6, 208286, Note_on_c, 2, 59, 0
6, 208456, Note_on_c, 2, 55, 80
6, 208677, Note_on_c, 2, 55, 0
6, 208836, Note_on_c, 2, 52, 80
6, 209027, Note_on_c, 2, 52, 0
6, 209220, Note_on_c, 2, 48, 80
6, 209414, Note_on_c, 2, 48, 0
6, 209605, Note_on_c, 2, 55, 80
6, 210610, Note_on_c, 2, 55, 0
6, 210747, Note_on_c, 2, 53, 80
6, 210916, Note_on_c, 2, 53, 0
6, 210927, Note_on_c, 2, 52, 80
6, 211129, Note_on_c, 2, 52, 0
6, 211140, Note_on_c, 2, 53, 80
6, 211413, Note_on_c, 2, 53, 0
6, 211531, Note_on_c, 2, 50, 80
6, 211706, Note_on_c, 2, 50, 0
6, 211911, Note_on_c, 2, 52, 80
6, 212325, Note_on_c, 2, 47, 80
6, 212352, Note_on_c, 2, 52, 0
6, 212681, Note_on_c, 2, 47, 0
6, 212695, Note_on_c, 2, 48, 80
6, 212955, Note_on_c, 2, 48, 0
6, 213079, Note_on_c, 2, 43, 80
6, 213292, Note_on_c, 2, 43, 0
6, 213455, Note_on_c, 2, 40, 80
6, 213770, Note_on_c, 2, 40, 0
6, 213854, Note_on_c, 2, 43, 80
6, 214134, Note_on_c, 2, 43, 0
6, 214231, Note_on_c, 2, 40, 80
6, 214497, Note_on_c, 2, 40, 0
6, 214604, Note_on_c, 2, 36, 80
6, 214826, Note_on_c, 2, 36, 0
6, 214994, Note_on_c, 2, 43, 80
6, 218112, Note_on_c, 2, 43, 0
6, 218112, End_track
7, 0, Start_track
7, 0, Title_t, "Pedal 4"
7, 0, MIDI_port, 0
7, 0, Control_c, 5, 7, 106
7, 0, Control_c, 5, 91, 122
7, 0, Control_c, 5, 10, 93
7, 0, Program_c, 5, 19
7, 5280, Note_on_c, 5, 62, 80
7, 5744, Note_on_c, 5, 62, 0
7, 6085, Note_on_c, 5, 62, 80
7, 6751, Note_on_c, 5, 62, 0
7, 6847, Note_on_c, 5, 62, 80
7, 7623, Note_on_c, 5, 64, 80
7, 7633, Note_on_c, 5, 62, 0
7, 8158, Note_on_c, 5, 64, 0
7, 8432, Note_on_c, 5, 64, 80
7, 9217, Note_on_c, 5, 62, 80
7, 9238, Note_on_c, 5, 64, 0
7, 9605, Note_on_c, 5, 62, 0
7, 9607, Note_on_c, 5, 64, 80
7, 9763, Note_on_c, 5, 64, 0
7, 9792, Note_on_c, 5, 66, 80
7, 9932, Note_on_c, 5, 66, 0
7, 9999, Note_on_c, 5, 67, 80
7, 11617, Note_on_c, 5, 66, 80
7, 11651, Note_on_c, 5, 67, 0
7, 12365, Note_on_c, 5, 66, 0
7, 12377, Note_on_c, 5, 67, 80
7, 12713, Note_on_c, 5, 67, 0
7, 12717, Note_on_c, 5, 69, 80
7, 12887, Note_on_c, 5, 71, 80
7, 12903, Note_on_c, 5, 69, 0
7, 13075, Note_on_c, 5, 69, 80
7, 13087, Note_on_c, 5, 71, 0
7, 13487, Note_on_c, 5, 67, 80
7, 13512, Note_on_c, 5, 69, 0
7, 13850, Note_on_c, 5, 66, 80
7, 13878, Note_on_c, 5, 67, 0
7, 14244, Note_on_c, 5, 66, 0
7, 14252, Note_on_c, 5, 62, 80
7, 14610, Note_on_c, 5, 62, 0
7, 14637, Note_on_c, 5, 67, 80
7, 15597, Note_on_c, 5, 67, 0
7, 15800, Note_on_c, 5, 66, 80
7, 15981, Note_on_c, 5, 66, 0
7, 15984, Note_on_c, 5, 64, 80
7, 16172, Note_on_c, 5, 64, 0
7, 16202, Note_on_c, 5, 66, 80
7, 16552, Note_on_c, 5, 66, 0
7, 16559, Note_on_c, 5, 62, 80
7, 16775, Note_on_c, 5, 62, 0
7, 16963, Note_on_c, 5, 67, 80
7, 17325, Note_on_c, 5, 71, 80
7, 17336, Note_on_c, 5, 67, 0
7, 17661, Note_on_c, 5, 64, 80
7, 17682, Note_on_c, 5, 71, 0
7, 18018, Note_on_c, 5, 67, 80
7, 18029, Note_on_c, 5, 64, 0
7, 18370, Note_on_c, 5, 60, 80
7, 18381, Note_on_c, 5, 67, 0
7, 18747, Note_on_c, 5, 60, 0
7, 18769, Note_on_c, 5, 72, 80
7, 18920, Note_on_c, 5, 72, 0
7, 18958, Note_on_c, 5, 71, 80
7, 19109, Note_on_c, 5, 71, 0
7, 19150, Note_on_c, 5, 72, 80
7, 19494, Note_on_c, 5, 72, 0
7, 19513, Note_on_c, 5, 68, 80
7, 19717, Note_on_c, 5, 68, 0
7, 19911, Note_on_c, 5, 69, 80
7, 20293, Note_on_c, 5, 69, 0
7, 20302, Note_on_c, 5, 72, 80
7, 20628, Note_on_c, 5, 72, 0
7, 20638, Note_on_c, 5, 64, 80
7, 21019, Note_on_c, 5, 67, 80
7, 21023, Note_on_c, 5, 64, 0
7, 21188, Note_on_c, 5, 67, 0
7, 21407, Note_on_c, 5, 66, 80
7, 21777, Note_on_c, 5, 66, 0
7, 21786, Note_on_c, 5, 62, 80
7, 21986, Note_on_c, 5, 62, 0
7, 22159, Note_on_c, 5, 67, 80
7, 22425, Note_on_c, 5, 67, 0
7, 22514, Note_on_c, 5, 55, 80
7, 22700, Note_on_c, 5, 55, 0
7, 22971, Note_on_c, 5, 62, 80
7, 23440, Note_on_c, 5, 62, 0
7, 23773, Note_on_c, 5, 50, 80
7, 24230, Note_on_c, 5, 50, 0
7, 24486, Note_on_c, 5, 55, 80
7, 24818, Note_on_c, 5, 55, 0
7, 24879, Note_on_c, 5, 62, 80
7, 25031, Note_on_c, 5, 62, 0
7, 25260, Note_on_c, 5, 67, 80
7, 26488, Note_on_c, 5, 66, 80
7, 26516, Note_on_c, 5, 67, 0
7, 26840, Note_on_c, 5, 67, 80
7, 26878, Note_on_c, 5, 66, 0
7, 27205, Note_on_c, 5, 64, 80
7, 27213, Note_on_c, 5, 67, 0
7, 27556, Note_on_c, 5, 64, 0
7, 27562, Note_on_c, 5, 60, 80
7, 27947, Note_on_c, 5, 62, 80
7, 27989, Note_on_c, 5, 60, 0
7, 28303, Note_on_c, 5, 55, 80
7, 28322, Note_on_c, 5, 62, 0
7, 28685, Note_on_c, 5, 55, 0
7, 28695, Note_on_c, 5, 60, 80
7, 29079, Note_on_c, 5, 54, 80
7, 29083, Note_on_c, 5, 60, 0
7, 29764, Note_on_c, 5, 54, 0
7, 29884, Note_on_c, 5, 59, 80
7, 30487, Note_on_c, 5, 59, 0
7, 30664, Note_on_c, 5, 52, 80
7, 30986, Note_on_c, 5, 52, 0
7, 31044, Note_on_c, 5, 64, 80
7, 31257, Note_on_c, 5, 64, 0
7, 31412, Note_on_c, 5, 66, 80
7, 31583, Note_on_c, 5, 66, 0
7, 31592, Note_on_c, 5, 64, 80
7, 31779, Note_on_c, 5, 66, 80
7, 31826, Note_on_c, 5, 64, 0
7, 31942, Note_on_c, 5, 66, 0
7, 31969, Note_on_c, 5, 62, 80
7, 32099, Note_on_c, 5, 62, 0
7, 32162, Note_on_c, 5, 69, 80
7, 32495, Note_on_c, 5, 69, 0
7, 32554, Note_on_c, 5, 57, 80
7, 32717, Note_on_c, 5, 57, 0
7, 32951, Note_on_c, 5, 62, 80
7, 34112, Note_on_c, 5, 61, 80
7, 34126, Note_on_c, 5, 62, 0
7, 34293, Note_on_c, 5, 61, 0
7, 34298, Note_on_c, 5, 59, 80
7, 34480, Note_on_c, 5, 59, 0
7, 34506, Note_on_c, 5, 61, 80
7, 34868, Note_on_c, 5, 61, 0
7, 34890, Note_on_c, 5, 54, 80
7, 35049, Note_on_c, 5, 54, 0
7, 35272, Note_on_c, 5, 59, 80
7, 36587, Note_on_c, 5, 59, 0
7, 36807, Note_on_c, 5, 60, 80
7, 37576, Note_on_c, 5, 60, 0
7, 37577, Note_on_c, 5, 59, 80
7, 38379, Note_on_c, 5, 57, 80
7, 38396, Note_on_c, 5, 59, 0
7, 39130, Note_on_c, 5, 57, 0
7, 39136, Note_on_c, 5, 59, 80
7, 39940, Note_on_c, 5, 59, 0
7, 39941, Note_on_c, 5, 57, 80
7, 41536, Note_on_c, 5, 55, 80
7, 41564, Note_on_c, 5, 57, 0
7, 42321, Note_on_c, 5, 55, 0
7, 44884, Note_on_c, 5, 55, 80
7, 45067, Note_on_c, 5, 55, 0
7, 45243, Note_on_c, 5, 67, 80
7, 46400, Note_on_c, 5, 66, 80
7, 46436, Note_on_c, 5, 67, 0
7, 46572, Note_on_c, 5, 64, 80
7, 46577, Note_on_c, 5, 66, 0
7, 46760, Note_on_c, 5, 66, 80
7, 46784, Note_on_c, 5, 64, 0
7, 47147, Note_on_c, 5, 66, 0
7, 47149, Note_on_c, 5, 62, 80
7, 47530, Note_on_c, 5, 67, 80
7, 47540, Note_on_c, 5, 62, 0
7, 47889, Note_on_c, 5, 63, 80
7, 47905, Note_on_c, 5, 67, 0
7, 48235, Note_on_c, 5, 63, 0
7, 48261, Note_on_c, 5, 64, 80
7, 48598, Note_on_c, 5, 64, 0
7, 48612, Note_on_c, 5, 59, 80
7, 48875, Note_on_c, 5, 59, 0
7, 49021, Note_on_c, 5, 60, 80
7, 49946, Note_on_c, 5, 60, 0
7, 50215, Note_on_c, 5, 61, 80
7, 50334, Note_on_c, 5, 61, 0
7, 50618, Note_on_c, 5, 62, 80
7, 51500, Note_on_c, 5, 62, 0
7, 51805, Note_on_c, 5, 63, 80
7, 52101, Note_on_c, 5, 63, 0
7, 52204, Note_on_c, 5, 64, 80
7, 52994, Note_on_c, 5, 64, 0
7, 53302, Note_on_c, 5, 64, 80
7, 53466, Note_on_c, 5, 64, 0
7, 53717, Note_on_c, 5, 59, 80
7, 54585, Note_on_c, 5, 59, 0
7, 54866, Note_on_c, 5, 59, 80
7, 55036, Note_on_c, 5, 59, 0
7, 55254, Note_on_c, 5, 60, 80
7, 56077, Note_on_c, 5, 60, 0
7, 56325, Note_on_c, 5, 55, 80
7, 56484, Note_on_c, 5, 55, 0
7, 56730, Note_on_c, 5, 48, 80
7, 57154, Note_on_c, 5, 48, 0
7, 57321, Note_on_c, 5, 60, 80
7, 57423, Note_on_c, 5, 60, 0
7, 57517, Note_on_c, 5, 59, 80
7, 57698, Note_on_c, 5, 60, 80
7, 57729, Note_on_c, 5, 59, 0
7, 57818, Note_on_c, 5, 60, 0
7, 57889, Note_on_c, 5, 57, 80
7, 58047, Note_on_c, 5, 57, 0
7, 58074, Note_on_c, 5, 59, 80
7, 58191, Note_on_c, 5, 59, 0
7, 58269, Note_on_c, 5, 55, 80
7, 59047, Note_on_c, 5, 55, 0
7, 63648, Note_on_c, 5, 62, 80
7, 64112, Note_on_c, 5, 62, 0
7, 64453, Note_on_c, 5, 62, 80
7, 65119, Note_on_c, 5, 62, 0
7, 65215, Note_on_c, 5, 62, 80
7, 65991, Note_on_c, 5, 64, 80
7, 66001, Note_on_c, 5, 62, 0
7, 66526, Note_on_c, 5, 64, 0
7, 66800, Note_on_c, 5, 64, 80
7, 67585, Note_on_c, 5, 62, 80
7, 67606, Note_on_c, 5, 64, 0
7, 67973, Note_on_c, 5, 62, 0
7, 67975, Note_on_c, 5, 64, 80
7, 68131, Note_on_c, 5, 64, 0
7, 68160, Note_on_c, 5, 66, 80
7, 68300, Note_on_c, 5, 66, 0
7, 68367, Note_on_c, 5, 67, 80
7, 69985, Note_on_c, 5, 66, 80
7, 70019, Note_on_c, 5, 67, 0
7, 70733, Note_on_c, 5, 66, 0
7, 70745, Note_on_c, 5, 67, 80
7, 71081, Note_on_c, 5, 67, 0
7, 71085, Note_on_c, 5, 69, 80
7, 71255, Note_on_c, 5, 71, 80
7, 71271, Note_on_c, 5, 69, 0
7, 71443, Note_on_c, 5, 69, 80
7, 71455, Note_on_c, 5, 71, 0
7, 71855, Note_on_c, 5, 67, 80
7, 71880, Note_on_c, 5, 69, 0
7, 72218, Note_on_c, 5, 66, 80
7, 72246, Note_on_c, 5, 67, 0
7, 72612, Note_on_c, 5, 66, 0
7, 72620, Note_on_c, 5, 62, 80
7, 72978, Note_on_c, 5, 62, 0
7, 73005, Note_on_c, 5, 67, 80
7, 73965, Note_on_c, 5, 67, 0
7, 74168, Note_on_c, 5, 66, 80
7, 74349, Note_on_c, 5, 66, 0
7, 74352, Note_on_c, 5, 64, 80
7, 74540, Note_on_c, 5, 64, 0
7, 74570, Note_on_c, 5, 66, 80
7, 74920, Note_on_c, 5, 66, 0
7, 74927, Note_on_c, 5, 62, 80
7, 75143, Note_on_c, 5, 62, 0
7, 75331, Note_on_c, 5, 67, 80
7, 75693, Note_on_c, 5, 71, 80
7, 75704, Note_on_c, 5, 67, 0
7, 76029, Note_on_c, 5, 64, 80
7, 76050, Note_on_c, 5, 71, 0
7, 76386, Note_on_c, 5, 67, 80
7, 76397, Note_on_c, 5, 64, 0
7, 76738, Note_on_c, 5, 60, 80
7, 76749, Note_on_c, 5, 67, 0
7, 77115, Note_on_c, 5, 60, 0
7, 77137, Note_on_c, 5, 72, 80
7, 77288, Note_on_c, 5, 72, 0
7, 77326, Note_on_c, 5, 71, 80
7, 77477, Note_on_c, 5, 71, 0
7, 77518, Note_on_c, 5, 72, 80
7, 77862, Note_on_c, 5, 72, 0
7, 77881, Note_on_c, 5, 68, 80
7, 78085, Note_on_c, 5, 68, 0
7, 78279, Note_on_c, 5, 69, 80
7, 78661, Note_on_c, 5, 69, 0
7, 78670, Note_on_c, 5, 72, 80
7, 78996, Note_on_c, 5, 72, 0
7, 79006, Note_on_c, 5, 64, 80
7, 79387, Note_on_c, 5, 67, 80
7, 79391, Note_on_c, 5, 64, 0
7, 79556, Note_on_c, 5, 67, 0
7, 79775, Note_on_c, 5, 66, 80
7, 80145, Note_on_c, 5, 66, 0
7, 80154, Note_on_c, 5, 62, 80
7, 80354, Note_on_c, 5, 62, 0
7, 80527, Note_on_c, 5, 67, 80
7, 80793, Note_on_c, 5, 67, 0
7, 80882, Note_on_c, 5, 55, 80
7, 81068, Note_on_c, 5, 55, 0
7, 81339, Note_on_c, 5, 62, 80
7, 81808, Note_on_c, 5, 62, 0
7, 82141, Note_on_c, 5, 50, 80
7, 82598, Note_on_c, 5, 50, 0
7, 82854, Note_on_c, 5, 55, 80
7, 83186, Note_on_c, 5, 55, 0
7, 83247, Note_on_c, 5, 62, 80
7, 83399, Note_on_c, 5, 62, 0
7, 83628, Note_on_c, 5, 67, 80
7, 84856, Note_on_c, 5, 66, 80
7, 84884, Note_on_c, 5, 67, 0
7, 85208, Note_on_c, 5, 67, 80
7, 85246, Note_on_c, 5, 66, 0
7, 85573, Note_on_c, 5, 64, 80
7, 85581, Note_on_c, 5, 67, 0
7, 85924, Note_on_c, 5, 64, 0
7, 85930, Note_on_c, 5, 60, 80
7, 86315, Note_on_c, 5, 62, 80
7, 86357, Note_on_c, 5, 60, 0
7, 86671, Note_on_c, 5, 55, 80
7, 86690, Note_on_c, 5, 62, 0
7, 87053, Note_on_c, 5, 55, 0
7, 87063, Note_on_c, 5, 60, 80
7, 87447, Note_on_c, 5, 54, 80
7, 87451, Note_on_c, 5, 60, 0
7, 88132, Note_on_c, 5, 54, 0
7, 88252, Note_on_c, 5, 59, 80
7, 88855, Note_on_c, 5, 59, 0
7, 89032, Note_on_c, 5, 52, 80
7, 89354, Note_on_c, 5, 52, 0
7, 89412, Note_on_c, 5, 64, 80
7, 89625, Note_on_c, 5, 64, 0
7, 89780, Note_on_c, 5, 66, 80
7, 89951, Note_on_c, 5, 66, 0
7, 89960, Note_on_c, 5, 64, 80
7, 90147, Note_on_c, 5, 66, 80
7, 90194, Note_on_c, 5, 64, 0
7, 90310, Note_on_c, 5, 66, 0
7, 90337, Note_on_c, 5, 62, 80
7, 90467, Note_on_c, 5, 62, 0
7, 90530, Note_on_c, 5, 69, 80
7, 90863, Note_on_c, 5, 69, 0
7, 90922, Note_on_c, 5, 57, 80
7, 91085, Note_on_c, 5, 57, 0
7, 91319, Note_on_c, 5, 62, 80
7, 92480, Note_on_c, 5, 61, 80
7, 92494, Note_on_c, 5, 62, 0
7, 92661, Note_on_c, 5, 61, 0
7, 92666, Note_on_c, 5, 59, 80
7, 92848, Note_on_c, 5, 59, 0
7, 92874, Note_on_c, 5, 61, 80
7, 93236, Note_on_c, 5, 61, 0
7, 93258, Note_on_c, 5, 54, 80
7, 93417, Note_on_c, 5, 54, 0
7, 93640, Note_on_c, 5, 59, 80
7, 94955, Note_on_c, 5, 59, 0
7, 95175, Note_on_c, 5, 60, 80
7, 95944, Note_on_c, 5, 60, 0
7, 95945, Note_on_c, 5, 59, 80
7, 96747, Note_on_c, 5, 57, 80
7, 96764, Note_on_c, 5, 59, 0
7, 97498, Note_on_c, 5, 57, 0
7, 97504, Note_on_c, 5, 59, 80
7, 98308, Note_on_c, 5, 59, 0
7, 98309, Note_on_c, 5, 57, 80
7, 99904, Note_on_c, 5, 55, 80
7, 99932, Note_on_c, 5, 57, 0
7, 100689, Note_on_c, 5, 55, 0
7, 103252, Note_on_c, 5, 55, 80
7, 103435, Note_on_c, 5, 55, 0
7, 103611, Note_on_c, 5, 67, 80
7, 104768, Note_on_c, 5, 66, 80
7, 104804, Note_on_c, 5, 67, 0
7, 104940, Note_on_c, 5, 64, 80
7, 104945, Note_on_c, 5, 66, 0
7, 105128, Note_on_c, 5, 66, 80
7, 105152, Note_on_c, 5, 64, 0
7, 105152, Control_c, 5, 7, 106
7, 105152, Control_c, 5, 10, 93
7, 105515, Note_on_c, 5, 66, 0
7, 105517, Note_on_c, 5, 62, 80
7, 105898, Note_on_c, 5, 67, 80
7, 105908, Note_on_c, 5, 62, 0
7, 106257, Note_on_c, 5, 63, 80
7, 106273, Note_on_c, 5, 67, 0
7, 106603, Note_on_c, 5, 63, 0
7, 106629, Note_on_c, 5, 64, 80
7, 106966, Note_on_c, 5, 64, 0
7, 106980, Note_on_c, 5, 59, 80
7, 107243, Note_on_c, 5, 59, 0
7, 107389, Note_on_c, 5, 60, 80
7, 108314, Note_on_c, 5, 60, 0
7, 108583, Note_on_c, 5, 61, 80
7, 108702, Note_on_c, 5, 61, 0
7, 108986, Note_on_c, 5, 62, 80
7, 109868, Note_on_c, 5, 62, 0
7, 110173, Note_on_c, 5, 63, 80
7, 110469, Note_on_c, 5, 63, 0
7, 110572, Note_on_c, 5, 64, 80
7, 111362, Note_on_c, 5, 64, 0
7, 111670, Note_on_c, 5, 64, 80
7, 111834, Note_on_c, 5, 64, 0
7, 112085, Note_on_c, 5, 59, 80
7, 112953, Note_on_c, 5, 59, 0
7, 113234, Note_on_c, 5, 59, 80
7, 113404, Note_on_c, 5, 59, 0
7, 113608, Note_on_c, 5, 60, 80
7, 113977, Note_on_c, 5, 60, 0
7, 113982, Note_on_c, 5, 55, 80
7, 114210, Note_on_c, 5, 55, 0
7, 114353, Note_on_c, 5, 52, 80
7, 114526, Note_on_c, 5, 52, 0
7, 114714, Note_on_c, 5, 48, 80
7, 114862, Note_on_c, 5, 48, 0
7, 115099, Note_on_c, 5, 55, 80
7, 116669, Note_on_c, 5, 55, 0
7, 116670, Note_on_c, 5, 50, 80
7, 117311, Note_on_c, 5, 50, 0
7, 119040, Note_on_c, 5, 62, 80
7, 119553, Note_on_c, 5, 62, 0
7, 119740, Note_on_c, 5, 62, 80
7, 120327, Note_on_c, 5, 62, 0
7, 120525, Note_on_c, 5, 62, 80
7, 121222, Note_on_c, 5, 62, 0
7, 121313, Note_on_c, 5, 66, 80
7, 121830, Note_on_c, 5, 66, 0
7, 122081, Note_on_c, 5, 66, 80
7, 122845, Note_on_c, 5, 64, 80
7, 122850, Note_on_c, 5, 66, 0
7, 123240, Note_on_c, 5, 66, 80
7, 123272, Note_on_c, 5, 64, 0
7, 123418, Note_on_c, 5, 66, 0
7, 123424, Note_on_c, 5, 67, 80
7, 123605, Note_on_c, 5, 69, 80
7, 123611, Note_on_c, 5, 67, 0
7, 123768, Note_on_c, 5, 64, 80
7, 123788, Note_on_c, 5, 69, 0
7, 123964, Note_on_c, 5, 64, 0
7, 123977, Note_on_c, 5, 69, 80
7, 124741, Note_on_c, 5, 69, 0
7, 124750, Note_on_c, 5, 67, 80
7, 125317, Note_on_c, 5, 66, 80
7, 125332, Note_on_c, 5, 67, 0
7, 125509, Note_on_c, 5, 67, 80
7, 125514, Note_on_c, 5, 66, 0
7, 125681, Note_on_c, 5, 64, 80
7, 125699, Note_on_c, 5, 67, 0
7, 125773, Note_on_c, 5, 64, 0
7, 125875, Note_on_c, 5, 71, 80
7, 126204, Note_on_c, 5, 59, 80
7, 126220, Note_on_c, 5, 71, 0
7, 126585, Note_on_c, 5, 71, 80
7, 126590, Note_on_c, 5, 59, 0
7, 126973, Note_on_c, 5, 69, 80
7, 127005, Note_on_c, 5, 71, 0
7, 127354, Note_on_c, 5, 68, 80
7, 127358, Note_on_c, 5, 69, 0
7, 127756, Note_on_c, 5, 68, 0
7, 127773, Note_on_c, 5, 64, 80
7, 128029, Note_on_c, 5, 64, 0
7, 128138, Note_on_c, 5, 69, 80
7, 128599, Note_on_c, 5, 67, 80
7, 128624, Note_on_c, 5, 69, 0
7, 128984, Note_on_c, 5, 67, 0
7, 128987, Note_on_c, 5, 66, 80
7, 129363, Note_on_c, 5, 66, 0
7, 129391, Note_on_c, 5, 62, 80
7, 129554, Note_on_c, 5, 62, 0
7, 129776, Note_on_c, 5, 67, 80
7, 130733, Note_on_c, 5, 66, 80
7, 130768, Note_on_c, 5, 67, 0
7, 130939, Note_on_c, 5, 67, 80
7, 130943, Note_on_c, 5, 66, 0
7, 131125, Note_on_c, 5, 67, 0
7, 131136, Note_on_c, 5, 64, 80
7, 131328, Note_on_c, 5, 66, 80
7, 131334, Note_on_c, 5, 64, 0
7, 131692, Note_on_c, 5, 66, 0
7, 131719, Note_on_c, 5, 61, 80
7, 131969, Note_on_c, 5, 61, 0
7, 132081, Note_on_c, 5, 62, 80
7, 132440, Note_on_c, 5, 62, 0
7, 132449, Note_on_c, 5, 64, 80
7, 132812, Note_on_c, 5, 66, 80
7, 132841, Note_on_c, 5, 64, 0
7, 133182, Note_on_c, 5, 66, 0
7, 133191, Note_on_c, 5, 67, 80
7, 133571, Note_on_c, 5, 66, 80
7, 133583, Note_on_c, 5, 67, 0
7, 133927, Note_on_c, 5, 66, 0
7, 133928, Note_on_c, 5, 64, 80
7, 134293, Note_on_c, 5, 62, 80
7, 134305, Note_on_c, 5, 64, 0
7, 134677, Note_on_c, 5, 62, 0
7, 134690, Note_on_c, 5, 61, 80
7, 135065, Note_on_c, 5, 61, 0
7, 135080, Note_on_c, 5, 63, 80
7, 135379, Note_on_c, 5, 63, 0
7, 135448, Note_on_c, 5, 59, 80
7, 135829, Note_on_c, 5, 61, 80
7, 135898, Note_on_c, 5, 59, 0
7, 136220, Note_on_c, 5, 63, 80
7, 136232, Note_on_c, 5, 61, 0
7, 136581, Note_on_c, 5, 63, 0
7, 136594, Note_on_c, 5, 64, 80
7, 136965, Note_on_c, 5, 64, 0
7, 136974, Note_on_c, 5, 66, 80
7, 137370, Note_on_c, 5, 66, 0
7, 137385, Note_on_c, 5, 67, 80
7, 137762, Note_on_c, 5, 62, 80
7, 137794, Note_on_c, 5, 67, 0
7, 138144, Note_on_c, 5, 61, 80
7, 138148, Note_on_c, 5, 62, 0
7, 138535, Note_on_c, 5, 61, 0
7, 138538, Note_on_c, 5, 57, 80
7, 138910, Note_on_c, 5, 59, 80
7, 138936, Note_on_c, 5, 57, 0
7, 139304, Note_on_c, 5, 61, 80
7, 139355, Note_on_c, 5, 59, 0
7, 139688, Note_on_c, 5, 61, 0
7, 139703, Note_on_c, 5, 62, 80
7, 139914, Note_on_c, 5, 62, 0
7, 140052, Note_on_c, 5, 54, 80
7, 140209, Note_on_c, 5, 54, 0
7, 140239, Note_on_c, 5, 55, 80
7, 140419, Note_on_c, 5, 55, 0
7, 140437, Note_on_c, 5, 57, 80
7, 140611, Note_on_c, 5, 57, 0
7, 140854, Note_on_c, 5, 57, 80
7, 140993, Note_on_c, 5, 57, 0
7, 141273, Note_on_c, 5, 50, 80
7, 141913, Note_on_c, 5, 50, 0
7, 143577, Note_on_c, 5, 62, 80
7, 144179, Note_on_c, 5, 62, 0
7, 144310, Note_on_c, 5, 64, 80
7, 144667, Note_on_c, 5, 66, 80
7, 144678, Note_on_c, 5, 64, 0
7, 144800, Note_on_c, 5, 66, 0
7, 145029, Note_on_c, 5, 67, 80
7, 146597, Note_on_c, 5, 67, 0
7, 146599, Note_on_c, 5, 66, 80
7, 147195, Note_on_c, 5, 66, 0
7, 147386, Note_on_c, 5, 67, 80
7, 147760, Note_on_c, 5, 69, 80
7, 147765, Note_on_c, 5, 67, 0
7, 148149, Note_on_c, 5, 71, 80
7, 148166, Note_on_c, 5, 69, 0
7, 148569, Note_on_c, 5, 67, 80
7, 148587, Note_on_c, 5, 71, 0
7, 148944, Note_on_c, 5, 67, 0
7, 148953, Note_on_c, 5, 69, 80
7, 149312, Note_on_c, 5, 67, 80
7, 149343, Note_on_c, 5, 69, 0
7, 149692, Note_on_c, 5, 69, 80
7, 149715, Note_on_c, 5, 67, 0
7, 149910, Note_on_c, 5, 69, 0
7, 150069, Note_on_c, 5, 62, 80
7, 150285, Note_on_c, 5, 62, 0
7, 150460, Note_on_c, 5, 67, 80
7, 150838, Note_on_c, 5, 66, 80
7, 150868, Note_on_c, 5, 67, 0
7, 151241, Note_on_c, 5, 64, 80
7, 151263, Note_on_c, 5, 66, 0
7, 151609, Note_on_c, 5, 64, 0
7, 151622, Note_on_c, 5, 62, 80
7, 152010, Note_on_c, 5, 61, 80
7, 152033, Note_on_c, 5, 62, 0
7, 152309, Note_on_c, 5, 61, 0
7, 152365, Note_on_c, 5, 57, 80
7, 152563, Note_on_c, 5, 57, 0
7, 152783, Note_on_c, 5, 62, 80
7, 153911, Note_on_c, 5, 63, 80
7, 153939, Note_on_c, 5, 62, 0
7, 154309, Note_on_c, 5, 64, 80
7, 154325, Note_on_c, 5, 63, 0
7, 154702, Note_on_c, 5, 58, 80
7, 154726, Note_on_c, 5, 64, 0
7, 155026, Note_on_c, 5, 58, 0
7, 155086, Note_on_c, 5, 59, 80
7, 155206, Note_on_c, 5, 59, 0
7, 155469, Note_on_c, 5, 71, 80
7, 156178, Note_on_c, 5, 71, 0
7, 156183, Note_on_c, 5, 69, 80
7, 156573, Note_on_c, 5, 67, 80
7, 156578, Note_on_c, 5, 69, 0
7, 156968, Note_on_c, 5, 66, 80
7, 156998, Note_on_c, 5, 67, 0
7, 157334, Note_on_c, 5, 64, 80
7, 157348, Note_on_c, 5, 66, 0
7, 157742, Note_on_c, 5, 66, 80
7, 157780, Note_on_c, 5, 64, 0
7, 157886, Note_on_c, 5, 66, 0
7, 157908, Note_on_c, 5, 67, 80
7, 158097, Note_on_c, 5, 67, 0
7, 158102, Note_on_c, 5, 69, 80
7, 158447, Note_on_c, 5, 57, 80
7, 158448, Note_on_c, 5, 69, 0
7, 158850, Note_on_c, 5, 69, 80
7, 158855, Note_on_c, 5, 57, 0
7, 159235, Note_on_c, 5, 67, 80
7, 159251, Note_on_c, 5, 69, 0
7, 159632, Note_on_c, 5, 66, 80
7, 159700, Note_on_c, 5, 67, 0
7, 159948, Note_on_c, 5, 66, 0
7, 160039, Note_on_c, 5, 62, 80
7, 160425, Note_on_c, 5, 64, 80
7, 160477, Note_on_c, 5, 62, 0
7, 160811, Note_on_c, 5, 66, 80
7, 160839, Note_on_c, 5, 64, 0
7, 161172, Note_on_c, 5, 66, 0
7, 161183, Note_on_c, 5, 67, 80
7, 161410, Note_on_c, 5, 67, 0
7, 161545, Note_on_c, 5, 55, 80
7, 161719, Note_on_c, 5, 55, 0
7, 161735, Note_on_c, 5, 57, 80
7, 161944, Note_on_c, 5, 59, 80
7, 161949, Note_on_c, 5, 57, 0
7, 162335, Note_on_c, 5, 59, 0
7, 162346, Note_on_c, 5, 61, 80
7, 162608, Note_on_c, 5, 61, 0
7, 162727, Note_on_c, 5, 62, 80
7, 163138, Note_on_c, 5, 64, 80
7, 163142, Note_on_c, 5, 62, 0
7, 163511, Note_on_c, 5, 66, 80
7, 163539, Note_on_c, 5, 64, 0
7, 163901, Note_on_c, 5, 62, 80
7, 163905, Note_on_c, 5, 66, 0
7, 164287, Note_on_c, 5, 67, 80
7, 164292, Note_on_c, 5, 62, 0
7, 164721, Note_on_c, 5, 69, 80
7, 164724, Note_on_c, 5, 67, 0
7, 165116, Note_on_c, 5, 67, 80
7, 165139, Note_on_c, 5, 69, 0
7, 165491, Note_on_c, 5, 66, 80
7, 165525, Note_on_c, 5, 67, 0
7, 165837, Note_on_c, 5, 66, 0
7, 165879, Note_on_c, 5, 64, 80
7, 166101, Note_on_c, 5, 64, 0
7, 166225, Note_on_c, 5, 60, 80
7, 166463, Note_on_c, 5, 60, 0
7, 166610, Note_on_c, 5, 57, 80
7, 166805, Note_on_c, 5, 57, 0
7, 166993, Note_on_c, 5, 59, 80
7, 167231, Note_on_c, 5, 59, 0
7, 167384, Note_on_c, 5, 52, 80
7, 167854, Note_on_c, 5, 52, 0
7, 169683, Note_on_c, 5, 69, 80
7, 170457, Note_on_c, 5, 69, 0
7, 170465, Note_on_c, 5, 71, 80
7, 171614, Note_on_c, 5, 69, 80
7, 171632, Note_on_c, 5, 71, 0
7, 172031, Note_on_c, 5, 69, 0
7, 172032, Note_on_c, 5, 67, 80
7, 172783, Note_on_c, 5, 66, 80
7, 172809, Note_on_c, 5, 67, 0
7, 173485, Note_on_c, 5, 67, 80
7, 173490, Note_on_c, 5, 66, 0
7, 173720, Note_on_c, 5, 67, 0
7, 173882, Note_on_c, 5, 55, 80
7, 174237, Note_on_c, 5, 55, 0
7, 174254, Note_on_c, 5, 57, 80
7, 174602, Note_on_c, 5, 57, 0
7, 174623, Note_on_c, 5, 59, 80
7, 174824, Note_on_c, 5, 59, 0
7, 174996, Note_on_c, 5, 48, 80
7, 175322, Note_on_c, 5, 48, 0
7, 175366, Note_on_c, 5, 60, 80
7, 175748, Note_on_c, 5, 62, 80
7, 175770, Note_on_c, 5, 60, 0
7, 176112, Note_on_c, 5, 62, 0
7, 176150, Note_on_c, 5, 64, 80
7, 176410, Note_on_c, 5, 64, 0
7, 176517, Note_on_c, 5, 65, 80
7, 176923, Note_on_c, 5, 64, 80
7, 176951, Note_on_c, 5, 65, 0
7, 177330, Note_on_c, 5, 65, 80
7, 177355, Note_on_c, 5, 64, 0
7, 177730, Note_on_c, 5, 62, 80
7, 177735, Note_on_c, 5, 65, 0
7, 178131, Note_on_c, 5, 64, 80
7, 178143, Note_on_c, 5, 62, 0
7, 178446, Note_on_c, 5, 64, 0
7, 178515, Note_on_c, 5, 59, 80
7, 178820, Note_on_c, 5, 59, 0
7, 178890, Note_on_c, 5, 60, 80
7, 179199, Note_on_c, 5, 60, 0
7, 179277, Note_on_c, 5, 65, 80
7, 179512, Note_on_c, 5, 65, 0
7, 179654, Note_on_c, 5, 62, 80
7, 180025, Note_on_c, 5, 62, 0
7, 180039, Note_on_c, 5, 59, 80
7, 180239, Note_on_c, 5, 59, 0
7, 180419, Note_on_c, 5, 64, 80
7, 180722, Note_on_c, 5, 64, 0
7, 180825, Note_on_c, 5, 52, 80
7, 181036, Note_on_c, 5, 52, 0
7, 181219, Note_on_c, 5, 57, 80
7, 181449, Note_on_c, 5, 57, 0
7, 181593, Note_on_c, 5, 69, 80
7, 182366, Note_on_c, 5, 67, 80
7, 182411, Note_on_c, 5, 69, 0
7, 182750, Note_on_c, 5, 66, 80
7, 182774, Note_on_c, 5, 67, 0
7, 182939, Note_on_c, 5, 66, 0
7, 183134, Note_on_c, 5, 54, 80
7, 183868, Note_on_c, 5, 54, 0
7, 183878, Note_on_c, 5, 52, 80
7, 184102, Note_on_c, 5, 52, 0
7, 184269, Note_on_c, 5, 51, 80
7, 184447, Note_on_c, 5, 51, 0
7, 184668, Note_on_c, 5, 52, 80
7, 185439, Note_on_c, 5, 51, 80
7, 185466, Note_on_c, 5, 52, 0
7, 185797, Note_on_c, 5, 51, 0
7, 185815, Note_on_c, 5, 52, 80
7, 185976, Note_on_c, 5, 52, 0
7, 186201, Note_on_c, 5, 64, 80
7, 186954, Note_on_c, 5, 62, 80
7, 186958, Note_on_c, 5, 64, 0
7, 187220, Note_on_c, 5, 62, 0
7, 187329, Note_on_c, 5, 61, 80
7, 187716, Note_on_c, 5, 59, 80
7, 187721, Note_on_c, 5, 61, 0
7, 188100, Note_on_c, 5, 61, 80
7, 188113, Note_on_c, 5, 59, 0
7, 188444, Note_on_c, 5, 61, 0
7, 188500, Note_on_c, 5, 54, 80
7, 188655, Note_on_c, 5, 54, 0
7, 188866, Note_on_c, 5, 59, 80
7, 189321, Note_on_c, 5, 59, 0
7, 189825, Note_on_c, 5, 64, 80
7, 190008, Note_on_c, 5, 59, 80
7, 190062, Note_on_c, 5, 64, 0
7, 190165, Note_on_c, 5, 62, 80
7, 190253, Note_on_c, 5, 62, 0
7, 190339, Note_on_c, 5, 59, 0
7, 190389, Note_on_c, 5, 61, 80
7, 190520, Note_on_c, 5, 61, 0
7, 190576, Note_on_c, 5, 57, 80
7, 190719, Note_on_c, 5, 57, 0
7, 190756, Note_on_c, 5, 62, 80
7, 191241, Note_on_c, 5, 62, 0
7, 191319, Note_on_c, 5, 59, 80
7, 191424, Note_on_c, 5, 59, 0
7, 191508, Note_on_c, 5, 64, 80
7, 192121, Note_on_c, 5, 63, 80
7, 192125, Note_on_c, 5, 64, 0
7, 192319, Note_on_c, 5, 64, 80
7, 192323, Note_on_c, 5, 63, 0
7, 192506, Note_on_c, 5, 61, 80
7, 192528, Note_on_c, 5, 64, 0
7, 192626, Note_on_c, 5, 61, 0
7, 192716, Note_on_c, 5, 63, 80
7, 193073, Note_on_c, 5, 63, 0
7, 193117, Note_on_c, 5, 59, 80
7, 193306, Note_on_c, 5, 59, 0
7, 193484, Note_on_c, 5, 64, 80
7, 193876, Note_on_c, 5, 59, 80
7, 193880, Note_on_c, 5, 64, 0
7, 194242, Note_on_c, 5, 61, 80
7, 194270, Note_on_c, 5, 59, 0
7, 194611, Note_on_c, 5, 57, 80
7, 194615, Note_on_c, 5, 61, 0
7, 194783, Note_on_c, 5, 57, 0
7, 194997, Note_on_c, 5, 62, 80
7, 195372, Note_on_c, 5, 57, 80
7, 195385, Note_on_c, 5, 62, 0
7, 195742, Note_on_c, 5, 57, 0
7, 195764, Note_on_c, 5, 59, 80
7, 196121, Note_on_c, 5, 55, 80
7, 196127, Note_on_c, 5, 59, 0
7, 196544, Note_on_c, 5, 60, 80
7, 196562, Note_on_c, 5, 55, 0
7, 196913, Note_on_c, 5, 55, 80
7, 196922, Note_on_c, 5, 60, 0
7, 197272, Note_on_c, 5, 57, 80
7, 197298, Note_on_c, 5, 55, 0
7, 197663, Note_on_c, 5, 57, 0
7, 197671, Note_on_c, 5, 59, 80
7, 198007, Note_on_c, 5, 59, 0
7, 198059, Note_on_c, 5, 52, 80
7, 198268, Note_on_c, 5, 52, 0
7, 198464, Note_on_c, 5, 59, 80
7, 198873, Note_on_c, 5, 64, 80
7, 198885, Note_on_c, 5, 59, 0
7, 199273, Note_on_c, 5, 62, 80
7, 199282, Note_on_c, 5, 64, 0
7, 199620, Note_on_c, 5, 62, 0
7, 199648, Note_on_c, 5, 60, 80
7, 200024, Note_on_c, 5, 57, 80
7, 200029, Note_on_c, 5, 60, 0
7, 200398, Note_on_c, 5, 57, 0
7, 200407, Note_on_c, 5, 62, 80
7, 200759, Note_on_c, 5, 62, 0
7, 200787, Note_on_c, 5, 50, 80
7, 200919, Note_on_c, 5, 50, 0
7, 201168, Note_on_c, 5, 55, 80
7, 201508, Note_on_c, 5, 55, 0
7, 201530, Note_on_c, 5, 62, 80
7, 201689, Note_on_c, 5, 62, 0
7, 201914, Note_on_c, 5, 67, 80
7, 203017, Note_on_c, 5, 67, 0
7, 203069, Note_on_c, 5, 66, 80
7, 203245, Note_on_c, 5, 66, 0
7, 203245, Note_on_c, 5, 64, 80
7, 203444, Note_on_c, 5, 64, 0
7, 203456, Note_on_c, 5, 66, 80
7, 203832, Note_on_c, 5, 66, 0
7, 203840, Note_on_c, 5, 61, 80
7, 203978, Note_on_c, 5, 61, 0
7, 204212, Note_on_c, 5, 62, 80
7, 204593, Note_on_c, 5, 62, 0
7, 204598, Note_on_c, 5, 69, 80
7, 204873, Note_on_c, 5, 69, 0
7, 204999, Note_on_c, 5, 74, 80
7, 205386, Note_on_c, 5, 72, 80
7, 205407, Note_on_c, 5, 74, 0
7, 205757, Note_on_c, 5, 72, 0
7, 205766, Note_on_c, 5, 71, 80
7, 206156, Note_on_c, 5, 71, 0
7, 206159, Note_on_c, 5, 67, 80
7, 206556, Note_on_c, 5, 67, 0
7, 206557, Note_on_c, 5, 72, 80
7, 207527, Note_on_c, 5, 72, 0
7, 207692, Note_on_c, 5, 71, 80
7, 207905, Note_on_c, 5, 71, 0
7, 207915, Note_on_c, 5, 69, 80
7, 208063, Note_on_c, 5, 69, 0
7, 208064, Note_on_c, 5, 71, 80
7, 208286, Note_on_c, 5, 71, 0
7, 208456, Note_on_c, 5, 67, 80
7, 208677, Note_on_c, 5, 67, 0
7, 208836, Note_on_c, 5, 64, 80
7, 209027, Note_on_c, 5, 64, 0
7, 209220, Note_on_c, 5, 60, 80
7, 209414, Note_on_c, 5, 60, 0
7, 209605, Note_on_c, 5, 67, 80
7, 210610, Note_on_c, 5, 67, 0
7, 210747, Note_on_c, 5, 65, 80
7, 210916, Note_on_c, 5, 65, 0
7, 210927, Note_on_c, 5, 64, 80
7, 211129, Note_on_c, 5, 64, 0
7, 211140, Note_on_c, 5, 65, 80
7, 211413, Note_on_c, 5, 65, 0
7, 211531, Note_on_c, 5, 62, 80
7, 211706, Note_on_c, 5, 62, 0
7, 211911, Note_on_c, 5, 64, 80
7, 212325, Note_on_c, 5, 59, 80
7, 212352, Note_on_c, 5, 64, 0
7, 212681, Note_on_c, 5, 59, 0
7, 212695, Note_on_c, 5, 60, 80
7, 212955, Note_on_c, 5, 60, 0
7, 213079, Note_on_c, 5, 55, 80
7, 213292, Note_on_c, 5, 55, 0
7, 213455, Note_on_c, 5, 52, 80
7, 213770, Note_on_c, 5, 52, 0
7, 213854, Note_on_c, 5, 55, 80
7, 214134, Note_on_c, 5, 55, 0
7, 214231, Note_on_c, 5, 52, 80
7, 214497, Note_on_c, 5, 52, 0
7, 214604, Note_on_c, 5, 48, 80
7, 214826, Note_on_c, 5, 48, 0
7, 214994, Note_on_c, 5, 55, 80
7, 218112, Note_on_c, 5, 55, 0
7, 218112, End_track
8, 0, Start_track
8, 0, MIDI_port, 0
8, 0, End_track
9, 0, Start_track
9, 0, Title_t, "Nun danket alle Gott"
9, 0, MIDI_port, 0
9, 0, End_track
10, 0, Start_track
10, 0, Title_t, "by J S Bach (BWV 657)"
10, 0, MIDI_port, 0
10, 0, End_track
11, 0, Start_track
11, 0, MIDI_port, 0
11, 0, End_track
12, 0, Start_track
12, 0, Title_t, "Sequenced using WinJammer Professional"
12, 0, MIDI_port, 0
12, 0, End_track
13, 0, Start_track
13, 0, Title_t, "on Windows NT by Martin Robinson."
13, 0, MIDI_port, 0
13, 0, End_track
14, 0, Start_track
14, 0, Title_t, "(c) Martin Robinson 1997"
14, 0, MIDI_port, 0
14, 0, End_track
0, 0, End_of_file
