0, 0, Header, 1, 17, 120
1, 0, Start_track
1, 0, Sequencer_specific, 10, 0, 0, 91, 35, 1, 0, 5, 3, 24, 0
1, 0, Instrument_name_t, "Conductor Track"
1, 0, SMPTE_offset, 96, 0, 3, 0, 0
1, 0, MIDI_port, 0
1, 0, Tempo, 857142
1, 0, Time_signature, 3, 3, 36, 8
1, 180, Time_signature, 12, 3, 36, 8
1, 18180, Tempo, 909090
1, 18240, Tempo, 937500
1, 18360, Tempo, 1000000
1, 18480, Tempo, 1090909
1, 18600, Tempo, 1500000
1, 18840, Tempo, 6000000
1, 18840, End_track
2, 0, Start_track
2, 0, Title_t, "Man 8"
2, 0, MIDI_port, 0
2, 0, Control_c, 0, 7, 78
2, 0, Control_c, 0, 93, 0
2, 0, Control_c, 0, 91, 100
2, 0, Control_c, 0, 10, 76
2, 0, Program_c, 0, 19
2, 2, Note_on_c, 0, 67, 90
2, 60, Note_on_c, 0, 62, 90
2, 60, Note_on_c, 0, 59, 90
2, 81, Note_on_c, 0, 59, 0
2, 85, Note_on_c, 0, 62, 0
2, 88, Note_on_c, 0, 57, 90
2, 89, Note_on_c, 0, 60, 90
2, 103, Note_on_c, 0, 60, 0
2, 107, Note_on_c, 0, 57, 0
2, 119, Note_on_c, 0, 62, 90
2, 119, Note_on_c, 0, 59, 90
2, 132, Note_on_c, 0, 67, 0
2, 132, Note_on_c, 0, 59, 0
2, 134, Note_on_c, 0, 62, 0
2, 176, Note_on_c, 0, 69, 90
2, 177, Note_on_c, 0, 64, 90
2, 178, Note_on_c, 0, 60, 90
2, 204, Note_on_c, 0, 60, 0
2, 217, Note_on_c, 0, 64, 0
2, 234, Note_on_c, 0, 60, 90
2, 235, Note_on_c, 0, 57, 90
2, 246, Note_on_c, 0, 60, 0
2, 250, Note_on_c, 0, 57, 0
2, 291, Note_on_c, 0, 65, 90
2, 291, Note_on_c, 0, 62, 90
2, 305, Note_on_c, 0, 69, 0
2, 306, Note_on_c, 0, 62, 0
2, 309, Note_on_c, 0, 65, 0
2, 349, Note_on_c, 0, 67, 90
2, 350, Note_on_c, 0, 62, 90
2, 350, Note_on_c, 0, 59, 90
2, 388, Note_on_c, 0, 59, 0
2, 393, Note_on_c, 0, 62, 0
2, 409, Note_on_c, 0, 59, 90
2, 410, Note_on_c, 0, 55, 90
2, 429, Note_on_c, 0, 59, 0
2, 429, Note_on_c, 0, 55, 0
2, 467, Note_on_c, 0, 64, 90
2, 467, Note_on_c, 0, 60, 90
2, 483, Note_on_c, 0, 60, 0
2, 491, Note_on_c, 0, 64, 0
2, 495, Note_on_c, 0, 67, 0
2, 529, Note_on_c, 0, 57, 90
2, 529, Note_on_c, 0, 60, 90
2, 530, Note_on_c, 0, 65, 90
2, 573, Note_on_c, 0, 60, 0
2, 586, Note_on_c, 0, 57, 0
2, 589, Note_on_c, 0, 62, 90
2, 590, Note_on_c, 0, 59, 90
2, 600, Note_on_c, 0, 59, 0
2, 605, Note_on_c, 0, 62, 0
2, 616, Note_on_c, 0, 60, 90
2, 618, Note_on_c, 0, 57, 90
2, 625, Note_on_c, 0, 60, 0
2, 630, Note_on_c, 0, 57, 0
2, 648, Note_on_c, 0, 62, 90
2, 649, Note_on_c, 0, 59, 90
2, 682, Note_on_c, 0, 59, 0
2, 688, Note_on_c, 0, 62, 0
2, 708, Note_on_c, 0, 67, 90
2, 708, Note_on_c, 0, 55, 90
2, 709, Note_on_c, 0, 65, 0
2, 709, Note_on_c, 0, 59, 90
2, 757, Note_on_c, 0, 59, 0
2, 766, Note_on_c, 0, 55, 0
2, 766, Note_on_c, 0, 60, 90
2, 767, Note_on_c, 0, 64, 90
2, 779, Note_on_c, 0, 60, 0
2, 779, Note_on_c, 0, 64, 0
2, 796, Note_on_c, 0, 59, 90
2, 796, Note_on_c, 0, 62, 90
2, 807, Note_on_c, 0, 62, 0
2, 823, Note_on_c, 0, 64, 90
2, 824, Note_on_c, 0, 59, 0
2, 826, Note_on_c, 0, 60, 90
2, 827, Note_on_c, 0, 67, 0
2, 871, Note_on_c, 0, 60, 0
2, 877, Note_on_c, 0, 72, 90
2, 879, Note_on_c, 0, 57, 90
2, 903, Note_on_c, 0, 64, 0
2, 907, Note_on_c, 0, 55, 90
2, 910, Note_on_c, 0, 57, 0
2, 936, Note_on_c, 0, 55, 0
2, 938, Note_on_c, 0, 65, 90
2, 938, Note_on_c, 0, 57, 90
2, 956, Note_on_c, 0, 65, 0
2, 967, Note_on_c, 0, 67, 90
2, 968, Note_on_c, 0, 59, 90
2, 971, Note_on_c, 0, 57, 0
2, 979, Note_on_c, 0, 59, 0
2, 981, Note_on_c, 0, 67, 0
2, 995, Note_on_c, 0, 69, 90
2, 999, Note_on_c, 0, 60, 90
2, 1024, Note_on_c, 0, 67, 90
2, 1027, Note_on_c, 0, 69, 0
2, 1031, Note_on_c, 0, 72, 0
2, 1043, Note_on_c, 0, 67, 0
2, 1060, Note_on_c, 0, 74, 90
2, 1061, Note_on_c, 0, 65, 90
2, 1121, Note_on_c, 0, 62, 90
2, 1122, Note_on_c, 0, 65, 0
2, 1122, Note_on_c, 0, 59, 90
2, 1124, Note_on_c, 0, 60, 0
2, 1138, Note_on_c, 0, 59, 0
2, 1149, Note_on_c, 0, 62, 0
2, 1153, Note_on_c, 0, 57, 90
2, 1182, Note_on_c, 0, 57, 0
2, 1183, Note_on_c, 0, 67, 90
2, 1184, Note_on_c, 0, 59, 90
2, 1204, Note_on_c, 0, 59, 0
2, 1243, Note_on_c, 0, 67, 0
2, 1243, Note_on_c, 0, 72, 90
2, 1243, Note_on_c, 0, 64, 90
2, 1244, Note_on_c, 0, 74, 0
2, 1245, Note_on_c, 0, 60, 90
2, 1301, Note_on_c, 0, 55, 90
2, 1304, Note_on_c, 0, 60, 0
2, 1331, Note_on_c, 0, 55, 0
2, 1331, Note_on_c, 0, 53, 90
2, 1362, Note_on_c, 0, 53, 0
2, 1365, Note_on_c, 0, 55, 90
2, 1367, Note_on_c, 0, 72, 0
2, 1369, Note_on_c, 0, 64, 0
2, 1381, Note_on_c, 0, 55, 0
2, 1425, Note_on_c, 0, 72, 90
2, 1427, Note_on_c, 0, 48, 90
2, 1454, Note_on_c, 0, 48, 0
2, 1486, Note_on_c, 0, 64, 90
2, 1487, Note_on_c, 0, 67, 90
2, 1500, Note_on_c, 0, 64, 0
2, 1513, Note_on_c, 0, 67, 0
2, 1516, Note_on_c, 0, 65, 90
2, 1516, Note_on_c, 0, 62, 90
2, 1538, Note_on_c, 0, 65, 0
2, 1541, Note_on_c, 0, 62, 0
2, 1547, Note_on_c, 0, 64, 90
2, 1548, Note_on_c, 0, 67, 90
2, 1558, Note_on_c, 0, 72, 0
2, 1564, Note_on_c, 0, 67, 0
2, 1566, Note_on_c, 0, 64, 0
2, 1603, Note_on_c, 0, 67, 90
2, 1604, Note_on_c, 0, 62, 90
2, 1605, Note_on_c, 0, 59, 90
2, 1650, Note_on_c, 0, 62, 0
2, 1651, Note_on_c, 0, 59, 0
2, 1665, Note_on_c, 0, 59, 90
2, 1666, Note_on_c, 0, 55, 90
2, 1683, Note_on_c, 0, 59, 0
2, 1683, Note_on_c, 0, 55, 0
2, 1723, Note_on_c, 0, 64, 90
2, 1724, Note_on_c, 0, 60, 90
2, 1746, Note_on_c, 0, 67, 0
2, 1748, Note_on_c, 0, 64, 0
2, 1748, Note_on_c, 0, 60, 0
2, 1785, Note_on_c, 0, 69, 90
2, 1786, Note_on_c, 0, 60, 90
2, 1786, Note_on_c, 0, 53, 90
2, 1824, Note_on_c, 0, 60, 0
2, 1832, Note_on_c, 0, 53, 0
2, 1842, Note_on_c, 0, 65, 90
2, 1844, Note_on_c, 0, 62, 90
2, 1870, Note_on_c, 0, 64, 90
2, 1871, Note_on_c, 0, 65, 0
2, 1871, Note_on_c, 0, 62, 0
2, 1873, Note_on_c, 0, 60, 90
2, 1878, Note_on_c, 0, 64, 0
2, 1888, Note_on_c, 0, 60, 0
2, 1895, Note_on_c, 0, 69, 0
2, 1904, Note_on_c, 0, 65, 90
2, 1904, Note_on_c, 0, 71, 90
2, 1906, Note_on_c, 0, 62, 90
2, 1929, Note_on_c, 0, 62, 0
2, 1961, Note_on_c, 0, 65, 0
2, 1963, Note_on_c, 0, 72, 90
2, 1964, Note_on_c, 0, 67, 90
2, 1964, Note_on_c, 0, 64, 90
2, 1967, Note_on_c, 0, 71, 0
2, 2004, Note_on_c, 0, 64, 0
2, 2024, Note_on_c, 0, 67, 0
2, 2024, Note_on_c, 0, 52, 90
2, 2024, Note_on_c, 0, 69, 90
2, 2051, Note_on_c, 0, 69, 0
2, 2053, Note_on_c, 0, 67, 90
2, 2054, Note_on_c, 0, 52, 0
2, 2084, Note_on_c, 0, 57, 90
2, 2084, Note_on_c, 0, 65, 90
2, 2085, Note_on_c, 0, 67, 0
2, 2110, Note_on_c, 0, 64, 90
2, 2116, Note_on_c, 0, 65, 0
2, 2120, Note_on_c, 0, 64, 0
2, 2122, Note_on_c, 0, 72, 0
2, 2144, Note_on_c, 0, 74, 90
2, 2145, Note_on_c, 0, 62, 90
2, 2146, Note_on_c, 0, 53, 90
2, 2150, Note_on_c, 0, 57, 0
2, 2187, Note_on_c, 0, 53, 0
2, 2189, Note_on_c, 0, 62, 0
2, 2205, Note_on_c, 0, 67, 90
2, 2206, Note_on_c, 0, 50, 90
2, 2226, Note_on_c, 0, 50, 0
2, 2230, Note_on_c, 0, 67, 0
2, 2235, Note_on_c, 0, 65, 90
2, 2248, Note_on_c, 0, 65, 0
2, 2265, Note_on_c, 0, 67, 90
2, 2267, Note_on_c, 0, 55, 90
2, 2298, Note_on_c, 0, 74, 0
2, 2302, Note_on_c, 0, 55, 0
2, 2328, Note_on_c, 0, 76, 90
2, 2330, Note_on_c, 0, 48, 90
2, 2360, Note_on_c, 0, 52, 90
2, 2362, Note_on_c, 0, 48, 0
2, 2368, Note_on_c, 0, 67, 0
2, 2390, Note_on_c, 0, 52, 0
2, 2391, Note_on_c, 0, 55, 90
2, 2391, Note_on_c, 0, 64, 90
2, 2420, Note_on_c, 0, 53, 90
2, 2422, Note_on_c, 0, 64, 0
2, 2423, Note_on_c, 0, 55, 0
2, 2449, Note_on_c, 0, 53, 0
2, 2449, Note_on_c, 0, 67, 90
2, 2450, Note_on_c, 0, 52, 90
2, 2478, Note_on_c, 0, 67, 0
2, 2480, Note_on_c, 0, 50, 90
2, 2481, Note_on_c, 0, 52, 0
2, 2487, Note_on_c, 0, 76, 0
2, 2509, Note_on_c, 0, 76, 90
2, 2509, Note_on_c, 0, 72, 90
2, 2510, Note_on_c, 0, 52, 90
2, 2514, Note_on_c, 0, 50, 0
2, 2542, Note_on_c, 0, 71, 90
2, 2544, Note_on_c, 0, 72, 0
2, 2570, Note_on_c, 0, 69, 90
2, 2572, Note_on_c, 0, 71, 0
2, 2572, Note_on_c, 0, 48, 90
2, 2573, Note_on_c, 0, 52, 0
2, 2599, Note_on_c, 0, 67, 90
2, 2608, Note_on_c, 0, 69, 0
2, 2616, Note_on_c, 0, 67, 0
2, 2628, Note_on_c, 0, 69, 90
2, 2630, Note_on_c, 0, 48, 0
2, 2630, Note_on_c, 0, 60, 90
2, 2659, Note_on_c, 0, 66, 90
2, 2661, Note_on_c, 0, 76, 0
2, 2661, Note_on_c, 0, 69, 0
2, 2692, Note_on_c, 0, 74, 90
2, 2720, Note_on_c, 0, 60, 0
2, 2750, Note_on_c, 0, 59, 90
2, 2751, Note_on_c, 0, 67, 90
2, 2754, Note_on_c, 0, 66, 0
2, 2777, Note_on_c, 0, 59, 0
2, 2779, Note_on_c, 0, 57, 90
2, 2780, Note_on_c, 0, 67, 0
2, 2781, Note_on_c, 0, 66, 90
2, 2807, Note_on_c, 0, 57, 0
2, 2809, Note_on_c, 0, 59, 90
2, 2810, Note_on_c, 0, 66, 0
2, 2810, Note_on_c, 0, 67, 90
2, 2839, Note_on_c, 0, 69, 90
2, 2843, Note_on_c, 0, 67, 0
2, 2848, Note_on_c, 0, 74, 0
2, 2852, Note_on_c, 0, 69, 0
2, 2853, Note_on_c, 0, 59, 0
2, 2869, Note_on_c, 0, 74, 90
2, 2870, Note_on_c, 0, 71, 90
2, 2871, Note_on_c, 0, 55, 90
2, 2899, Note_on_c, 0, 71, 0
2, 2900, Note_on_c, 0, 69, 90
2, 2902, Note_on_c, 0, 55, 0
2, 2929, Note_on_c, 0, 69, 0
2, 2929, Note_on_c, 0, 67, 90
2, 2930, Note_on_c, 0, 59, 90
2, 2958, Note_on_c, 0, 59, 0
2, 2959, Note_on_c, 0, 67, 0
2, 2959, Note_on_c, 0, 66, 90
2, 2960, Note_on_c, 0, 57, 90
2, 2988, Note_on_c, 0, 66, 0
2, 2989, Note_on_c, 0, 57, 0
2, 2989, Note_on_c, 0, 67, 90
2, 2992, Note_on_c, 0, 59, 90
2, 3019, Note_on_c, 0, 55, 90
2, 3020, Note_on_c, 0, 59, 0
2, 3030, Note_on_c, 0, 55, 0
2, 3053, Note_on_c, 0, 76, 90
2, 3053, Note_on_c, 0, 48, 90
2, 3056, Note_on_c, 0, 74, 0
2, 3087, Note_on_c, 0, 48, 0
2, 3088, Note_on_c, 0, 67, 0
2, 3113, Note_on_c, 0, 67, 90
2, 3114, Note_on_c, 0, 60, 90
2, 3136, Note_on_c, 0, 60, 0
2, 3144, Note_on_c, 0, 59, 90
2, 3154, Note_on_c, 0, 59, 0
2, 3175, Note_on_c, 0, 72, 90
2, 3177, Note_on_c, 0, 60, 90
2, 3182, Note_on_c, 0, 76, 0
2, 3200, Note_on_c, 0, 72, 0
2, 3202, Note_on_c, 0, 60, 0
2, 3234, Note_on_c, 0, 72, 90
2, 3236, Note_on_c, 0, 52, 90
2, 3293, Note_on_c, 0, 67, 0
2, 3293, Note_on_c, 0, 64, 90
2, 3294, Note_on_c, 0, 52, 0
2, 3294, Note_on_c, 0, 60, 90
2, 3320, Note_on_c, 0, 60, 0
2, 3321, Note_on_c, 0, 59, 90
2, 3331, Note_on_c, 0, 64, 0
2, 3336, Note_on_c, 0, 59, 0
2, 3354, Note_on_c, 0, 67, 90
2, 3356, Note_on_c, 0, 60, 90
2, 3390, Note_on_c, 0, 60, 0
2, 3413, Note_on_c, 0, 69, 90
2, 3415, Note_on_c, 0, 53, 90
2, 3418, Note_on_c, 0, 72, 0
2, 3439, Note_on_c, 0, 67, 0
2, 3471, Note_on_c, 0, 65, 90
2, 3472, Note_on_c, 0, 53, 0
2, 3472, Note_on_c, 0, 57, 90
2, 3496, Note_on_c, 0, 65, 0
2, 3500, Note_on_c, 0, 64, 90
2, 3510, Note_on_c, 0, 64, 0
2, 3532, Note_on_c, 0, 57, 0
2, 3533, Note_on_c, 0, 65, 90
2, 3533, Note_on_c, 0, 62, 90
2, 3564, Note_on_c, 0, 62, 0
2, 3589, Note_on_c, 0, 69, 0
2, 3591, Note_on_c, 0, 67, 90
2, 3593, Note_on_c, 0, 59, 90
2, 3635, Note_on_c, 0, 59, 0
2, 3650, Note_on_c, 0, 65, 0
2, 3650, Note_on_c, 0, 64, 90
2, 3652, Note_on_c, 0, 55, 90
2, 3678, Note_on_c, 0, 64, 0
2, 3680, Note_on_c, 0, 62, 90
2, 3690, Note_on_c, 0, 62, 0
2, 3710, Note_on_c, 0, 55, 0
2, 3710, Note_on_c, 0, 64, 90
2, 3711, Note_on_c, 0, 60, 90
2, 3739, Note_on_c, 0, 67, 0
2, 3754, Note_on_c, 0, 60, 0
2, 3771, Note_on_c, 0, 62, 90
2, 3772, Note_on_c, 0, 71, 90
2, 3772, Note_on_c, 0, 55, 90
2, 3773, Note_on_c, 0, 64, 0
2, 3801, Note_on_c, 0, 57, 90
2, 3803, Note_on_c, 0, 55, 0
2, 3811, Note_on_c, 0, 62, 0
2, 3833, Note_on_c, 0, 67, 90
2, 3833, Note_on_c, 0, 59, 90
2, 3834, Note_on_c, 0, 57, 0
2, 3862, Note_on_c, 0, 59, 0
2, 3862, Note_on_c, 0, 60, 90
2, 3863, Note_on_c, 0, 67, 0
2, 3863, Note_on_c, 0, 66, 90
2, 3872, Note_on_c, 0, 66, 0
2, 3890, Note_on_c, 0, 67, 90
2, 3891, Note_on_c, 0, 60, 0
2, 3891, Note_on_c, 0, 62, 90
2, 3911, Note_on_c, 0, 71, 0
2, 3920, Note_on_c, 0, 59, 90
2, 3922, Note_on_c, 0, 62, 0
2, 3948, Note_on_c, 0, 73, 90
2, 3950, Note_on_c, 0, 59, 0
2, 3950, Note_on_c, 0, 64, 90
2, 3979, Note_on_c, 0, 55, 90
2, 3980, Note_on_c, 0, 67, 0
2, 3980, Note_on_c, 0, 64, 0
2, 4008, Note_on_c, 0, 55, 0
2, 4009, Note_on_c, 0, 57, 90
2, 4009, Note_on_c, 0, 67, 90
2, 4035, Note_on_c, 0, 67, 0
2, 4037, Note_on_c, 0, 57, 0
2, 4038, Note_on_c, 0, 58, 90
2, 4039, Note_on_c, 0, 66, 90
2, 4050, Note_on_c, 0, 66, 0
2, 4066, Note_on_c, 0, 58, 0
2, 4068, Note_on_c, 0, 57, 90
2, 4068, Note_on_c, 0, 67, 90
2, 4078, Note_on_c, 0, 73, 0
2, 4094, Note_on_c, 0, 57, 0
2, 4096, Note_on_c, 0, 55, 90
2, 4122, Note_on_c, 0, 74, 90
2, 4125, Note_on_c, 0, 55, 0
2, 4126, Note_on_c, 0, 57, 90
2, 4153, Note_on_c, 0, 57, 0
2, 4184, Note_on_c, 0, 50, 90
2, 4185, Note_on_c, 0, 67, 0
2, 4185, Note_on_c, 0, 65, 90
2, 4206, Note_on_c, 0, 50, 0
2, 4214, Note_on_c, 0, 65, 0
2, 4214, Note_on_c, 0, 64, 90
2, 4223, Note_on_c, 0, 64, 0
2, 4245, Note_on_c, 0, 65, 90
2, 4247, Note_on_c, 0, 62, 90
2, 4265, Note_on_c, 0, 62, 0
2, 4303, Note_on_c, 0, 67, 90
2, 4305, Note_on_c, 0, 74, 0
2, 4305, Note_on_c, 0, 59, 90
2, 4341, Note_on_c, 0, 65, 0
2, 4349, Note_on_c, 0, 59, 0
2, 4364, Note_on_c, 0, 55, 90
2, 4365, Note_on_c, 0, 64, 90
2, 4387, Note_on_c, 0, 55, 0
2, 4392, Note_on_c, 0, 64, 0
2, 4393, Note_on_c, 0, 62, 90
2, 4402, Note_on_c, 0, 62, 0
2, 4424, Note_on_c, 0, 60, 90
2, 4424, Note_on_c, 0, 64, 90
2, 4444, Note_on_c, 0, 67, 0
2, 4452, Note_on_c, 0, 60, 0
2, 4484, Note_on_c, 0, 72, 90
2, 4485, Note_on_c, 0, 48, 90
2, 4515, Note_on_c, 0, 48, 0
2, 4522, Note_on_c, 0, 52, 90
2, 4535, Note_on_c, 0, 64, 0
2, 4549, Note_on_c, 0, 60, 90
2, 4550, Note_on_c, 0, 52, 0
2, 4550, Note_on_c, 0, 53, 90
2, 4577, Note_on_c, 0, 53, 0
2, 4577, Note_on_c, 0, 55, 90
2, 4597, Note_on_c, 0, 60, 0
2, 4602, Note_on_c, 0, 55, 0
2, 4606, Note_on_c, 0, 57, 90
2, 4607, Note_on_c, 0, 65, 90
2, 4635, Note_on_c, 0, 58, 90
2, 4636, Note_on_c, 0, 57, 0
2, 4653, Note_on_c, 0, 58, 0
2, 4663, Note_on_c, 0, 69, 90
2, 4664, Note_on_c, 0, 72, 0
2, 4665, Note_on_c, 0, 60, 90
2, 4695, Note_on_c, 0, 62, 90
2, 4696, Note_on_c, 0, 65, 0
2, 4696, Note_on_c, 0, 60, 0
2, 4723, Note_on_c, 0, 62, 0
2, 4725, Note_on_c, 0, 64, 90
2, 4726, Note_on_c, 0, 60, 90
2, 4741, Note_on_c, 0, 64, 0
2, 4754, Note_on_c, 0, 60, 0
2, 4754, Note_on_c, 0, 58, 90
2, 4754, Note_on_c, 0, 62, 90
2, 4773, Note_on_c, 0, 62, 0
2, 4782, Note_on_c, 0, 58, 0
2, 4785, Note_on_c, 0, 57, 90
2, 4785, Note_on_c, 0, 64, 90
2, 4833, Note_on_c, 0, 69, 0
2, 4844, Note_on_c, 0, 65, 90
2, 4861, Note_on_c, 0, 57, 0
2, 4871, Note_on_c, 0, 50, 90
2, 4898, Note_on_c, 0, 50, 0
2, 4902, Note_on_c, 0, 53, 90
2, 4902, Note_on_c, 0, 62, 90
2, 4903, Note_on_c, 0, 64, 0
2, 4928, Note_on_c, 0, 53, 0
2, 4929, Note_on_c, 0, 62, 0
2, 4930, Note_on_c, 0, 55, 90
2, 4930, Note_on_c, 0, 61, 90
2, 4947, Note_on_c, 0, 55, 0
2, 4958, Note_on_c, 0, 57, 90
2, 4959, Note_on_c, 0, 61, 0
2, 4959, Note_on_c, 0, 62, 90
2, 4981, Note_on_c, 0, 57, 0
2, 4983, Note_on_c, 0, 58, 90
2, 4988, Note_on_c, 0, 64, 90
2, 4991, Note_on_c, 0, 62, 0
2, 4995, Note_on_c, 0, 65, 0
2, 5007, Note_on_c, 0, 64, 0
2, 5016, Note_on_c, 0, 57, 90
2, 5017, Note_on_c, 0, 58, 0
2, 5017, Note_on_c, 0, 65, 90
2, 5017, Note_on_c, 0, 69, 90
2, 5042, Note_on_c, 0, 57, 0
2, 5047, Note_on_c, 0, 67, 90
2, 5047, Note_on_c, 0, 49, 90
2, 5048, Note_on_c, 0, 65, 0
2, 5068, Note_on_c, 0, 49, 0
2, 5077, Note_on_c, 0, 50, 90
2, 5078, Note_on_c, 0, 65, 90
2, 5080, Note_on_c, 0, 67, 0
2, 5106, Note_on_c, 0, 65, 0
2, 5106, Note_on_c, 0, 64, 90
2, 5107, Note_on_c, 0, 52, 90
2, 5108, Note_on_c, 0, 50, 0
2, 5133, Note_on_c, 0, 52, 0
2, 5135, Note_on_c, 0, 53, 90
2, 5136, Note_on_c, 0, 62, 90
2, 5138, Note_on_c, 0, 64, 0
2, 5162, Note_on_c, 0, 60, 90
2, 5166, Note_on_c, 0, 62, 0
2, 5167, Note_on_c, 0, 69, 0
2, 5185, Note_on_c, 0, 60, 0
2, 5197, Note_on_c, 0, 67, 90
2, 5197, Note_on_c, 0, 59, 90
2, 5226, Note_on_c, 0, 59, 0
2, 5228, Note_on_c, 0, 62, 90
2, 5240, Note_on_c, 0, 62, 0
2, 5262, Note_on_c, 0, 55, 90
2, 5265, Note_on_c, 0, 52, 90
2, 5266, Note_on_c, 0, 53, 0
2, 5294, Note_on_c, 0, 50, 90
2, 5295, Note_on_c, 0, 52, 0
2, 5310, Note_on_c, 0, 55, 0
2, 5323, Note_on_c, 0, 50, 0
2, 5324, Note_on_c, 0, 52, 90
2, 5324, Note_on_c, 0, 60, 90
2, 5352, Note_on_c, 0, 62, 90
2, 5353, Note_on_c, 0, 52, 0
2, 5353, Note_on_c, 0, 53, 90
2, 5354, Note_on_c, 0, 60, 0
2, 5373, Note_on_c, 0, 62, 0
2, 5386, Note_on_c, 0, 53, 0
2, 5387, Note_on_c, 0, 64, 90
2, 5387, Note_on_c, 0, 55, 90
2, 5419, Note_on_c, 0, 62, 90
2, 5420, Note_on_c, 0, 64, 0
2, 5423, Note_on_c, 0, 55, 0
2, 5434, Note_on_c, 0, 62, 0
2, 5450, Note_on_c, 0, 64, 90
2, 5451, Note_on_c, 0, 48, 90
2, 5481, Note_on_c, 0, 48, 0
2, 5512, Note_on_c, 0, 60, 90
2, 5540, Note_on_c, 0, 64, 0
2, 5541, Note_on_c, 0, 65, 90
2, 5577, Note_on_c, 0, 65, 0
2, 5577, Note_on_c, 0, 62, 90
2, 5617, Note_on_c, 0, 60, 0
2, 5634, Note_on_c, 0, 59, 90
2, 5648, Note_on_c, 0, 67, 0
2, 5662, Note_on_c, 0, 62, 0
2, 5665, Note_on_c, 0, 66, 90
2, 5666, Note_on_c, 0, 57, 90
2, 5668, Note_on_c, 0, 59, 0
2, 5695, Note_on_c, 0, 66, 0
2, 5695, Note_on_c, 0, 67, 90
2, 5696, Note_on_c, 0, 59, 90
2, 5697, Note_on_c, 0, 57, 0
2, 5726, Note_on_c, 0, 69, 90
2, 5726, Note_on_c, 0, 60, 90
2, 5727, Note_on_c, 0, 67, 0
2, 5728, Note_on_c, 0, 59, 0
2, 5756, Note_on_c, 0, 71, 90
2, 5757, Note_on_c, 0, 60, 0
2, 5757, Note_on_c, 0, 62, 90
2, 5758, Note_on_c, 0, 69, 0
2, 5786, Note_on_c, 0, 67, 90
2, 5787, Note_on_c, 0, 59, 90
2, 5788, Note_on_c, 0, 71, 0
2, 5791, Note_on_c, 0, 62, 0
2, 5816, Note_on_c, 0, 67, 0
2, 5816, Note_on_c, 0, 69, 90
2, 5816, Note_on_c, 0, 60, 90
2, 5817, Note_on_c, 0, 59, 0
2, 5844, Note_on_c, 0, 69, 0
2, 5844, Note_on_c, 0, 60, 0
2, 5844, Note_on_c, 0, 71, 90
2, 5845, Note_on_c, 0, 62, 90
2, 5873, Note_on_c, 0, 64, 90
2, 5874, Note_on_c, 0, 71, 0
2, 5874, Note_on_c, 0, 62, 0
2, 5874, Note_on_c, 0, 72, 90
2, 5902, Note_on_c, 0, 64, 0
2, 5902, Note_on_c, 0, 65, 90
2, 5903, Note_on_c, 0, 72, 0
2, 5904, Note_on_c, 0, 74, 90
2, 5920, Note_on_c, 0, 65, 0
2, 5921, Note_on_c, 0, 74, 0
2, 5933, Note_on_c, 0, 67, 90
2, 5934, Note_on_c, 0, 76, 90
2, 5965, Note_on_c, 0, 74, 90
2, 5997, Note_on_c, 0, 72, 90
2, 5998, Note_on_c, 0, 74, 0
2, 6025, Note_on_c, 0, 72, 0
2, 6026, Note_on_c, 0, 71, 90
2, 6055, Note_on_c, 0, 71, 0
2, 6055, Note_on_c, 0, 72, 90
2, 6056, Note_on_c, 0, 76, 0
2, 6086, Note_on_c, 0, 76, 90
2, 6096, Note_on_c, 0, 76, 0
2, 6117, Note_on_c, 0, 74, 90
2, 6118, Note_on_c, 0, 72, 0
2, 6146, Note_on_c, 0, 72, 90
2, 6174, Note_on_c, 0, 71, 90
2, 6175, Note_on_c, 0, 72, 0
2, 6203, Note_on_c, 0, 69, 90
2, 6204, Note_on_c, 0, 71, 0
2, 6215, Note_on_c, 0, 69, 0
2, 6232, Note_on_c, 0, 71, 90
2, 6257, Note_on_c, 0, 67, 0
2, 6263, Note_on_c, 0, 65, 90
2, 6292, Note_on_c, 0, 64, 90
2, 6292, Note_on_c, 0, 79, 90
2, 6293, Note_on_c, 0, 65, 0
2, 6294, Note_on_c, 0, 74, 0
2, 6295, Note_on_c, 0, 71, 0
2, 6323, Note_on_c, 0, 71, 90
2, 6323, Note_on_c, 0, 67, 90
2, 6352, Note_on_c, 0, 72, 90
2, 6352, Note_on_c, 0, 69, 90
2, 6353, Note_on_c, 0, 71, 0
2, 6353, Note_on_c, 0, 67, 0
2, 6379, Note_on_c, 0, 71, 90
2, 6379, Note_on_c, 0, 74, 90
2, 6380, Note_on_c, 0, 72, 0
2, 6382, Note_on_c, 0, 69, 0
2, 6406, Note_on_c, 0, 71, 0
2, 6407, Note_on_c, 0, 74, 0
2, 6409, Note_on_c, 0, 72, 90
2, 6410, Note_on_c, 0, 76, 90
2, 6429, Note_on_c, 0, 79, 0
2, 6436, Note_on_c, 0, 64, 0
2, 6437, Note_on_c, 0, 81, 90
2, 6463, Note_on_c, 0, 72, 0
2, 6468, Note_on_c, 0, 81, 0
2, 6468, Note_on_c, 0, 83, 90
2, 6469, Note_on_c, 0, 65, 90
2, 6470, Note_on_c, 0, 76, 0
2, 6470, Note_on_c, 0, 62, 90
2, 6500, Note_on_c, 0, 81, 90
2, 6529, Note_on_c, 0, 79, 90
2, 6530, Note_on_c, 0, 81, 0
2, 6557, Note_on_c, 0, 79, 0
2, 6558, Note_on_c, 0, 77, 90
2, 6589, Note_on_c, 0, 76, 90
2, 6590, Note_on_c, 0, 77, 0
2, 6614, Note_on_c, 0, 62, 0
2, 6615, Note_on_c, 0, 74, 90
2, 6616, Note_on_c, 0, 65, 0
2, 6617, Note_on_c, 0, 76, 0
2, 6625, Note_on_c, 0, 74, 0
2, 6628, Note_on_c, 0, 83, 0
2, 6645, Note_on_c, 0, 76, 90
2, 6646, Note_on_c, 0, 60, 90
2, 6647, Note_on_c, 0, 67, 90
2, 6677, Note_on_c, 0, 79, 90
2, 6680, Note_on_c, 0, 76, 0
2, 6705, Note_on_c, 0, 60, 0
2, 6705, Note_on_c, 0, 84, 90
2, 6706, Note_on_c, 0, 79, 0
2, 6707, Note_on_c, 0, 67, 0
2, 6734, Note_on_c, 0, 84, 0
2, 6734, Note_on_c, 0, 83, 90
2, 6735, Note_on_c, 0, 67, 90
2, 6764, Note_on_c, 0, 84, 90
2, 6765, Note_on_c, 0, 83, 0
2, 6765, Note_on_c, 0, 67, 0
2, 6765, Note_on_c, 0, 72, 90
2, 6791, Note_on_c, 0, 71, 90
2, 6792, Note_on_c, 0, 79, 90
2, 6793, Note_on_c, 0, 72, 0
2, 6795, Note_on_c, 0, 84, 0
2, 6822, Note_on_c, 0, 79, 0
2, 6822, Note_on_c, 0, 76, 90
2, 6823, Note_on_c, 0, 71, 0
2, 6825, Note_on_c, 0, 72, 90
2, 6850, Note_on_c, 0, 76, 0
2, 6852, Note_on_c, 0, 79, 90
2, 6853, Note_on_c, 0, 67, 90
2, 6854, Note_on_c, 0, 72, 0
2, 6883, Note_on_c, 0, 79, 0
2, 6883, Note_on_c, 0, 67, 0
2, 6883, Note_on_c, 0, 64, 90
2, 6883, Note_on_c, 0, 72, 90
2, 6911, Note_on_c, 0, 64, 0
2, 6912, Note_on_c, 0, 72, 0
2, 6912, Note_on_c, 0, 76, 90
2, 6912, Note_on_c, 0, 67, 90
2, 6939, Note_on_c, 0, 76, 0
2, 6939, Note_on_c, 0, 67, 0
2, 6940, Note_on_c, 0, 74, 90
2, 6941, Note_on_c, 0, 65, 90
2, 6966, Note_on_c, 0, 74, 0
2, 6966, Note_on_c, 0, 65, 0
2, 6966, Note_on_c, 0, 72, 90
2, 6967, Note_on_c, 0, 64, 90
2, 6998, Note_on_c, 0, 72, 0
2, 6998, Note_on_c, 0, 64, 0
2, 6999, Note_on_c, 0, 74, 90
2, 6999, Note_on_c, 0, 65, 90
2, 7035, Note_on_c, 0, 74, 0
2, 7035, Note_on_c, 0, 65, 0
2, 7035, Note_on_c, 0, 77, 90
2, 7035, Note_on_c, 0, 69, 90
2, 7064, Note_on_c, 0, 77, 0
2, 7064, Note_on_c, 0, 71, 90
2, 7064, Note_on_c, 0, 62, 90
2, 7066, Note_on_c, 0, 69, 0
2, 7093, Note_on_c, 0, 74, 90
2, 7094, Note_on_c, 0, 71, 0
2, 7094, Note_on_c, 0, 62, 0
2, 7094, Note_on_c, 0, 65, 90
2, 7121, Note_on_c, 0, 74, 0
2, 7121, Note_on_c, 0, 72, 90
2, 7123, Note_on_c, 0, 64, 90
2, 7124, Note_on_c, 0, 65, 0
2, 7149, Note_on_c, 0, 71, 90
2, 7150, Note_on_c, 0, 72, 0
2, 7150, Note_on_c, 0, 62, 90
2, 7151, Note_on_c, 0, 64, 0
2, 7180, Note_on_c, 0, 71, 0
2, 7181, Note_on_c, 0, 72, 90
2, 7183, Note_on_c, 0, 64, 90
2, 7185, Note_on_c, 0, 62, 0
2, 7215, Note_on_c, 0, 76, 90
2, 7216, Note_on_c, 0, 72, 0
2, 7217, Note_on_c, 0, 64, 0
2, 7218, Note_on_c, 0, 67, 90
2, 7246, Note_on_c, 0, 69, 90
2, 7246, Note_on_c, 0, 60, 90
2, 7247, Note_on_c, 0, 76, 0
2, 7249, Note_on_c, 0, 67, 0
2, 7275, Note_on_c, 0, 72, 90
2, 7275, Note_on_c, 0, 64, 90
2, 7276, Note_on_c, 0, 69, 0
2, 7276, Note_on_c, 0, 60, 0
2, 7305, Note_on_c, 0, 72, 0
2, 7305, Note_on_c, 0, 64, 0
2, 7305, Note_on_c, 0, 71, 90
2, 7306, Note_on_c, 0, 62, 90
2, 7332, Note_on_c, 0, 69, 90
2, 7333, Note_on_c, 0, 71, 0
2, 7334, Note_on_c, 0, 60, 90
2, 7336, Note_on_c, 0, 62, 0
2, 7354, Note_on_c, 0, 69, 0
2, 7360, Note_on_c, 0, 60, 0
2, 7365, Note_on_c, 0, 71, 90
2, 7365, Note_on_c, 0, 62, 90
2, 7399, Note_on_c, 0, 69, 90
2, 7428, Note_on_c, 0, 67, 90
2, 7430, Note_on_c, 0, 69, 0
2, 7456, Note_on_c, 0, 67, 0
2, 7458, Note_on_c, 0, 65, 90
2, 7487, Note_on_c, 0, 62, 0
2, 7488, Note_on_c, 0, 65, 0
2, 7488, Note_on_c, 0, 64, 90
2, 7514, Note_on_c, 0, 62, 90
2, 7515, Note_on_c, 0, 64, 0
2, 7540, Note_on_c, 0, 71, 0
2, 7551, Note_on_c, 0, 60, 90
2, 7552, Note_on_c, 0, 62, 0
2, 7552, Note_on_c, 0, 64, 90
2, 7582, Note_on_c, 0, 74, 90
2, 7609, Note_on_c, 0, 74, 0
2, 7610, Note_on_c, 0, 72, 90
2, 7639, Note_on_c, 0, 71, 90
2, 7640, Note_on_c, 0, 72, 0
2, 7670, Note_on_c, 0, 71, 0
2, 7670, Note_on_c, 0, 69, 90
2, 7674, Note_on_c, 0, 64, 0
2, 7696, Note_on_c, 0, 69, 0
2, 7697, Note_on_c, 0, 67, 90
2, 7716, Note_on_c, 0, 67, 0
2, 7728, Note_on_c, 0, 66, 90
2, 7761, Note_on_c, 0, 64, 90
2, 7776, Note_on_c, 0, 64, 0
2, 7792, Note_on_c, 0, 60, 0
2, 7792, Note_on_c, 0, 62, 90
2, 7820, Note_on_c, 0, 60, 90
2, 7851, Note_on_c, 0, 60, 0
2, 7851, Note_on_c, 0, 59, 90
2, 7879, Note_on_c, 0, 57, 90
2, 7880, Note_on_c, 0, 59, 0
2, 7897, Note_on_c, 0, 62, 0
2, 7902, Note_on_c, 0, 66, 0
2, 7906, Note_on_c, 0, 57, 0
2, 7910, Note_on_c, 0, 59, 90
2, 7941, Note_on_c, 0, 62, 90
2, 7968, Note_on_c, 0, 67, 90
2, 7976, Note_on_c, 0, 59, 0
2, 7993, Note_on_c, 0, 59, 90
2, 8018, Note_on_c, 0, 62, 0
2, 8020, Note_on_c, 0, 59, 0
2, 8028, Note_on_c, 0, 57, 90
2, 8030, Note_on_c, 0, 60, 90
2, 8056, Note_on_c, 0, 57, 0
2, 8056, Note_on_c, 0, 60, 0
2, 8057, Note_on_c, 0, 65, 90
2, 8061, Note_on_c, 0, 67, 0
2, 8087, Note_on_c, 0, 59, 90
2, 8088, Note_on_c, 0, 55, 90
2, 8091, Note_on_c, 0, 65, 0
2, 8121, Note_on_c, 0, 69, 90
2, 8152, Note_on_c, 0, 69, 0
2, 8152, Note_on_c, 0, 67, 90
2, 8181, Note_on_c, 0, 65, 90
2, 8182, Note_on_c, 0, 67, 0
2, 8208, Note_on_c, 0, 65, 0
2, 8209, Note_on_c, 0, 64, 90
2, 8239, Note_on_c, 0, 62, 90
2, 8240, Note_on_c, 0, 64, 0
2, 8251, Note_on_c, 0, 62, 0
2, 8272, Note_on_c, 0, 64, 90
2, 8300, Note_on_c, 0, 62, 90
2, 8301, Note_on_c, 0, 59, 0
2, 8330, Note_on_c, 0, 60, 90
2, 8331, Note_on_c, 0, 62, 0
2, 8360, Note_on_c, 0, 59, 90
2, 8361, Note_on_c, 0, 60, 0
2, 8391, Note_on_c, 0, 59, 0
2, 8391, Note_on_c, 0, 60, 90
2, 8392, Note_on_c, 0, 64, 0
2, 8418, Note_on_c, 0, 64, 90
2, 8438, Note_on_c, 0, 64, 0
2, 8449, Note_on_c, 0, 62, 90
2, 8453, Note_on_c, 0, 60, 0
2, 8480, Note_on_c, 0, 60, 90
2, 8508, Note_on_c, 0, 59, 90
2, 8511, Note_on_c, 0, 60, 0
2, 8536, Note_on_c, 0, 57, 90
2, 8537, Note_on_c, 0, 59, 0
2, 8567, Note_on_c, 0, 59, 90
2, 8574, Note_on_c, 0, 57, 0
2, 8596, Note_on_c, 0, 64, 90
2, 8597, Note_on_c, 0, 62, 0
2, 8601, Note_on_c, 0, 59, 0
2, 8627, Note_on_c, 0, 57, 90
2, 8628, Note_on_c, 0, 66, 90
2, 8629, Note_on_c, 0, 64, 0
2, 8658, Note_on_c, 0, 66, 0
2, 8659, Note_on_c, 0, 59, 90
2, 8659, Note_on_c, 0, 67, 90
2, 8665, Note_on_c, 0, 57, 0
2, 8688, Note_on_c, 0, 69, 90
2, 8689, Note_on_c, 0, 67, 0
2, 8689, Note_on_c, 0, 60, 90
2, 8690, Note_on_c, 0, 59, 0
2, 8717, Note_on_c, 0, 71, 90
2, 8718, Note_on_c, 0, 62, 90
2, 8719, Note_on_c, 0, 69, 0
2, 8719, Note_on_c, 0, 60, 0
2, 8747, Note_on_c, 0, 71, 0
2, 8747, Note_on_c, 0, 72, 90
2, 8747, Note_on_c, 0, 64, 90
2, 8752, Note_on_c, 0, 62, 0
2, 8775, Note_on_c, 0, 64, 0
2, 8775, Note_on_c, 0, 66, 90
2, 8775, Note_on_c, 0, 60, 90
2, 8778, Note_on_c, 0, 55, 0
2, 8806, Note_on_c, 0, 66, 0
2, 8806, Note_on_c, 0, 60, 0
2, 8809, Note_on_c, 0, 67, 90
2, 8810, Note_on_c, 0, 62, 90
2, 8810, Note_on_c, 0, 55, 90
2, 8811, Note_on_c, 0, 72, 0
2, 8841, Note_on_c, 0, 72, 90
2, 8872, Note_on_c, 0, 71, 90
2, 8873, Note_on_c, 0, 72, 0
2, 8901, Note_on_c, 0, 71, 0
2, 8901, Note_on_c, 0, 69, 90
2, 8929, Note_on_c, 0, 69, 0
2, 8930, Note_on_c, 0, 71, 90
2, 8957, Note_on_c, 0, 71, 0
2, 8958, Note_on_c, 0, 72, 90
2, 8961, Note_on_c, 0, 67, 0
2, 8967, Note_on_c, 0, 72, 0
2, 8989, Note_on_c, 0, 74, 90
2, 8989, Note_on_c, 0, 71, 90
2, 9018, Note_on_c, 0, 74, 0
2, 9018, Note_on_c, 0, 72, 90
2, 9019, Note_on_c, 0, 62, 0
2, 9019, Note_on_c, 0, 57, 90
2, 9045, Note_on_c, 0, 59, 90
2, 9046, Note_on_c, 0, 57, 0
2, 9048, Note_on_c, 0, 74, 90
2, 9049, Note_on_c, 0, 72, 0
2, 9050, Note_on_c, 0, 55, 0
2, 9076, Note_on_c, 0, 76, 90
2, 9076, Note_on_c, 0, 60, 90
2, 9077, Note_on_c, 0, 59, 0
2, 9077, Note_on_c, 0, 74, 0
2, 9085, Note_on_c, 0, 76, 0
2, 9106, Note_on_c, 0, 60, 0
2, 9106, Note_on_c, 0, 62, 90
2, 9106, Note_on_c, 0, 78, 90
2, 9132, Note_on_c, 0, 64, 90
2, 9133, Note_on_c, 0, 62, 0
2, 9133, Note_on_c, 0, 79, 90
2, 9134, Note_on_c, 0, 78, 0
2, 9138, Note_on_c, 0, 71, 0
2, 9142, Note_on_c, 0, 64, 0
2, 9150, Note_on_c, 0, 79, 0
2, 9164, Note_on_c, 0, 79, 90
2, 9165, Note_on_c, 0, 69, 90
2, 9165, Note_on_c, 0, 60, 90
2, 9195, Note_on_c, 0, 60, 0
2, 9196, Note_on_c, 0, 64, 90
2, 9217, Note_on_c, 0, 79, 0
2, 9225, Note_on_c, 0, 57, 90
2, 9225, Note_on_c, 0, 72, 90
2, 9226, Note_on_c, 0, 64, 0
2, 9253, Note_on_c, 0, 60, 90
2, 9255, Note_on_c, 0, 57, 0
2, 9260, Note_on_c, 0, 72, 0
2, 9283, Note_on_c, 0, 77, 90
2, 9285, Note_on_c, 0, 60, 0
2, 9285, Note_on_c, 0, 59, 90
2, 9314, Note_on_c, 0, 59, 0
2, 9314, Note_on_c, 0, 57, 90
2, 9346, Note_on_c, 0, 59, 90
2, 9347, Note_on_c, 0, 57, 0
2, 9374, Note_on_c, 0, 69, 0
2, 9380, Note_on_c, 0, 59, 0
2, 9381, Note_on_c, 0, 62, 90
2, 9409, Note_on_c, 0, 55, 90
2, 9411, Note_on_c, 0, 71, 90
2, 9412, Note_on_c, 0, 77, 0
2, 9412, Note_on_c, 0, 62, 0
2, 9439, Note_on_c, 0, 59, 90
2, 9442, Note_on_c, 0, 55, 0
2, 9468, Note_on_c, 0, 71, 0
2, 9469, Note_on_c, 0, 76, 90
2, 9471, Note_on_c, 0, 59, 0
2, 9471, Note_on_c, 0, 57, 90
2, 9501, Note_on_c, 0, 55, 90
2, 9502, Note_on_c, 0, 57, 0
2, 9529, Note_on_c, 0, 55, 0
2, 9530, Note_on_c, 0, 57, 90
2, 9533, Note_on_c, 0, 76, 0
2, 9561, Note_on_c, 0, 79, 90
2, 9593, Note_on_c, 0, 60, 90
2, 9594, Note_on_c, 0, 77, 90
2, 9595, Note_on_c, 0, 79, 0
2, 9623, Note_on_c, 0, 77, 0
2, 9623, Note_on_c, 0, 76, 90
2, 9650, Note_on_c, 0, 76, 0
2, 9652, Note_on_c, 0, 65, 90
2, 9652, Note_on_c, 0, 74, 90
2, 9653, Note_on_c, 0, 60, 0
2, 9677, Note_on_c, 0, 57, 0
2, 9681, Note_on_c, 0, 74, 0
2, 9681, Note_on_c, 0, 72, 90
2, 9709, Note_on_c, 0, 72, 0
2, 9710, Note_on_c, 0, 71, 90
2, 9710, Note_on_c, 0, 55, 90
2, 9739, Note_on_c, 0, 65, 0
2, 9741, Note_on_c, 0, 71, 0
2, 9741, Note_on_c, 0, 69, 90
2, 9770, Note_on_c, 0, 69, 0
2, 9770, Note_on_c, 0, 59, 90
2, 9770, Note_on_c, 0, 67, 90
2, 9797, Note_on_c, 0, 67, 0
2, 9798, Note_on_c, 0, 65, 90
2, 9799, Note_on_c, 0, 62, 90
2, 9800, Note_on_c, 0, 59, 0
2, 9827, Note_on_c, 0, 65, 0
2, 9828, Note_on_c, 0, 62, 0
2, 9828, Note_on_c, 0, 60, 90
2, 9829, Note_on_c, 0, 64, 90
2, 9852, Note_on_c, 0, 60, 0
2, 9855, Note_on_c, 0, 62, 90
2, 9855, Note_on_c, 0, 59, 90
2, 9856, Note_on_c, 0, 64, 0
2, 9875, Note_on_c, 0, 62, 0
2, 9887, Note_on_c, 0, 59, 0
2, 9889, Note_on_c, 0, 60, 90
2, 9889, Note_on_c, 0, 64, 90
2, 9892, Note_on_c, 0, 55, 0
2, 9920, Note_on_c, 0, 52, 90
2, 9921, Note_on_c, 0, 67, 90
2, 9922, Note_on_c, 0, 64, 0
2, 9950, Note_on_c, 0, 53, 90
2, 9951, Note_on_c, 0, 67, 0
2, 9951, Note_on_c, 0, 69, 90
2, 9954, Note_on_c, 0, 52, 0
2, 9977, Note_on_c, 0, 55, 90
2, 9978, Note_on_c, 0, 69, 0
2, 9979, Note_on_c, 0, 71, 90
2, 9981, Note_on_c, 0, 53, 0
2, 10000, Note_on_c, 0, 55, 0
2, 10006, Note_on_c, 0, 57, 90
2, 10008, Note_on_c, 0, 72, 90
2, 10009, Note_on_c, 0, 71, 0
2, 10018, Note_on_c, 0, 60, 0
2, 10036, Note_on_c, 0, 64, 90
2, 10053, Note_on_c, 0, 64, 0
2, 10068, Note_on_c, 0, 65, 90
2, 10072, Note_on_c, 0, 72, 0
2, 10096, Note_on_c, 0, 72, 90
2, 10109, Note_on_c, 0, 57, 0
2, 10128, Note_on_c, 0, 71, 90
2, 10129, Note_on_c, 0, 72, 0
2, 10129, Note_on_c, 0, 55, 90
2, 10157, Note_on_c, 0, 69, 90
2, 10158, Note_on_c, 0, 71, 0
2, 10186, Note_on_c, 0, 69, 0
2, 10186, Note_on_c, 0, 71, 90
2, 10187, Note_on_c, 0, 53, 90
2, 10189, Note_on_c, 0, 55, 0
2, 10190, Note_on_c, 0, 65, 0
2, 10216, Note_on_c, 0, 65, 90
2, 10248, Note_on_c, 0, 71, 0
2, 10248, Note_on_c, 0, 72, 90
2, 10249, Note_on_c, 0, 55, 90
2, 10250, Note_on_c, 0, 53, 0
2, 10254, Note_on_c, 0, 65, 0
2, 10278, Note_on_c, 0, 65, 90
2, 10308, Note_on_c, 0, 65, 0
2, 10308, Note_on_c, 0, 64, 90
2, 10337, Note_on_c, 0, 62, 90
2, 10338, Note_on_c, 0, 64, 0
2, 10364, Note_on_c, 0, 62, 0
2, 10365, Note_on_c, 0, 64, 90
2, 10396, Note_on_c, 0, 55, 0
2, 10396, Note_on_c, 0, 57, 90
2, 10426, Note_on_c, 0, 57, 0
2, 10427, Note_on_c, 0, 58, 90
2, 10457, Note_on_c, 0, 67, 90
2, 10458, Note_on_c, 0, 64, 0
2, 10485, Note_on_c, 0, 65, 90
2, 10489, Note_on_c, 0, 67, 0
2, 10515, Note_on_c, 0, 64, 90
2, 10516, Note_on_c, 0, 65, 0
2, 10544, Note_on_c, 0, 62, 90
2, 10547, Note_on_c, 0, 64, 0
2, 10563, Note_on_c, 0, 62, 0
2, 10574, Note_on_c, 0, 60, 90
2, 10592, Note_on_c, 0, 60, 0
2, 10606, Note_on_c, 0, 65, 90
2, 10608, Note_on_c, 0, 58, 0
2, 10636, Note_on_c, 0, 58, 90
2, 10664, Note_on_c, 0, 57, 90
2, 10665, Note_on_c, 0, 58, 0
2, 10693, Note_on_c, 0, 55, 90
2, 10695, Note_on_c, 0, 57, 0
2, 10723, Note_on_c, 0, 55, 0
2, 10723, Note_on_c, 0, 57, 90
2, 10754, Note_on_c, 0, 59, 90
2, 10755, Note_on_c, 0, 57, 0
2, 10768, Note_on_c, 0, 59, 0
2, 10784, Note_on_c, 0, 60, 90
2, 10794, Note_on_c, 0, 65, 0
2, 10817, Note_on_c, 0, 69, 90
2, 10848, Note_on_c, 0, 67, 90
2, 10850, Note_on_c, 0, 69, 0
2, 10876, Note_on_c, 0, 65, 90
2, 10877, Note_on_c, 0, 67, 0
2, 10907, Note_on_c, 0, 64, 90
2, 10910, Note_on_c, 0, 65, 0
2, 10919, Note_on_c, 0, 64, 0
2, 10934, Note_on_c, 0, 62, 90
2, 10944, Note_on_c, 0, 62, 0
2, 10966, Note_on_c, 0, 64, 90
2, 10971, Note_on_c, 0, 60, 0
2, 11000, Note_on_c, 0, 62, 90
2, 11031, Note_on_c, 0, 62, 0
2, 11031, Note_on_c, 0, 60, 90
2, 11031, Note_on_c, 0, 65, 90
2, 11033, Note_on_c, 0, 64, 0
2, 11059, Note_on_c, 0, 58, 90
2, 11060, Note_on_c, 0, 60, 0
2, 11087, Note_on_c, 0, 58, 0
2, 11088, Note_on_c, 0, 67, 90
2, 11089, Note_on_c, 0, 65, 0
2, 11089, Note_on_c, 0, 57, 90
2, 11117, Note_on_c, 0, 57, 0
2, 11117, Note_on_c, 0, 55, 90
2, 11146, Note_on_c, 0, 55, 0
2, 11146, Note_on_c, 0, 53, 90
2, 11147, Note_on_c, 0, 67, 0
2, 11147, Note_on_c, 0, 69, 90
2, 11150, Note_on_c, 0, 72, 0
2, 11176, Note_on_c, 0, 53, 0
2, 11177, Note_on_c, 0, 55, 90
2, 11177, Note_on_c, 0, 72, 90
2, 11206, Note_on_c, 0, 74, 90
2, 11207, Note_on_c, 0, 53, 90
2, 11208, Note_on_c, 0, 72, 0
2, 11210, Note_on_c, 0, 55, 0
2, 11234, Note_on_c, 0, 53, 0
2, 11234, Note_on_c, 0, 52, 90
2, 11235, Note_on_c, 0, 76, 90
2, 11236, Note_on_c, 0, 74, 0
2, 11263, Note_on_c, 0, 77, 90
2, 11264, Note_on_c, 0, 52, 0
2, 11264, Note_on_c, 0, 50, 90
2, 11266, Note_on_c, 0, 76, 0
2, 11293, Note_on_c, 0, 71, 90
2, 11293, Note_on_c, 0, 55, 90
2, 11294, Note_on_c, 0, 69, 0
2, 11294, Note_on_c, 0, 50, 0
2, 11328, Note_on_c, 0, 48, 90
2, 11328, Note_on_c, 0, 72, 90
2, 11329, Note_on_c, 0, 71, 0
2, 11330, Note_on_c, 0, 55, 0
2, 11333, Note_on_c, 0, 77, 0
2, 11363, Note_on_c, 0, 81, 90
2, 11380, Note_on_c, 0, 48, 0
2, 11389, Note_on_c, 0, 81, 0
2, 11390, Note_on_c, 0, 79, 90
2, 11392, Note_on_c, 0, 52, 90
2, 11421, Note_on_c, 0, 77, 90
2, 11422, Note_on_c, 0, 72, 0
2, 11423, Note_on_c, 0, 79, 0
2, 11429, Note_on_c, 0, 52, 0
2, 11451, Note_on_c, 0, 77, 0
2, 11451, Note_on_c, 0, 76, 90
2, 11452, Note_on_c, 0, 55, 90
2, 11480, Note_on_c, 0, 74, 90
2, 11481, Note_on_c, 0, 76, 0
2, 11483, Note_on_c, 0, 55, 0
2, 11508, Note_on_c, 0, 74, 0
2, 11512, Note_on_c, 0, 76, 90
2, 11513, Note_on_c, 0, 60, 90
2, 11542, Note_on_c, 0, 79, 90
2, 11545, Note_on_c, 0, 76, 0
2, 11575, Note_on_c, 0, 77, 90
2, 11576, Note_on_c, 0, 79, 0
2, 11606, Note_on_c, 0, 76, 90
2, 11608, Note_on_c, 0, 77, 0
2, 11635, Note_on_c, 0, 74, 90
2, 11636, Note_on_c, 0, 76, 0
2, 11661, Note_on_c, 0, 72, 90
2, 11663, Note_on_c, 0, 74, 0
2, 11676, Note_on_c, 0, 72, 0
2, 11693, Note_on_c, 0, 74, 90
2, 11701, Note_on_c, 0, 60, 0
2, 11724, Note_on_c, 0, 60, 90
2, 11755, Note_on_c, 0, 60, 0
2, 11755, Note_on_c, 0, 59, 90
2, 11755, Note_on_c, 0, 62, 90
2, 11781, Note_on_c, 0, 59, 0
2, 11783, Note_on_c, 0, 57, 90
2, 11788, Note_on_c, 0, 62, 0
2, 11814, Note_on_c, 0, 67, 90
2, 11816, Note_on_c, 0, 74, 0
2, 11816, Note_on_c, 0, 57, 0
2, 11816, Note_on_c, 0, 59, 90
2, 11843, Note_on_c, 0, 74, 90
2, 11850, Note_on_c, 0, 59, 0
2, 11877, Note_on_c, 0, 60, 90
2, 11877, Note_on_c, 0, 72, 90
2, 11883, Note_on_c, 0, 67, 0
2, 11883, Note_on_c, 0, 74, 0
2, 11906, Note_on_c, 0, 67, 90
2, 11935, Note_on_c, 0, 65, 90
2, 11936, Note_on_c, 0, 67, 0
2, 11962, Note_on_c, 0, 65, 0
2, 11964, Note_on_c, 0, 64, 90
2, 11993, Note_on_c, 0, 64, 0
2, 11995, Note_on_c, 0, 65, 90
2, 12053, Note_on_c, 0, 72, 0
2, 12057, Note_on_c, 0, 67, 90
2, 12063, Note_on_c, 0, 65, 0
2, 12086, Note_on_c, 0, 65, 90
2, 12113, Note_on_c, 0, 64, 90
2, 12118, Note_on_c, 0, 65, 0
2, 12134, Note_on_c, 0, 64, 0
2, 12141, Note_on_c, 0, 62, 90
2, 12156, Note_on_c, 0, 62, 0
2, 12170, Note_on_c, 0, 64, 90
2, 12177, Note_on_c, 0, 67, 0
2, 12199, Note_on_c, 0, 64, 0
2, 12199, Note_on_c, 0, 69, 90
2, 12233, Note_on_c, 0, 69, 0
2, 12234, Note_on_c, 0, 65, 90
2, 12234, Note_on_c, 0, 71, 90
2, 12237, Note_on_c, 0, 60, 0
2, 12264, Note_on_c, 0, 64, 90
2, 12294, Note_on_c, 0, 62, 90
2, 12295, Note_on_c, 0, 64, 0
2, 12323, Note_on_c, 0, 62, 0
2, 12323, Note_on_c, 0, 60, 90
2, 12352, Note_on_c, 0, 60, 0
2, 12353, Note_on_c, 0, 59, 90
2, 12377, Note_on_c, 0, 65, 0
2, 12380, Note_on_c, 0, 59, 0
2, 12380, Note_on_c, 0, 57, 90
2, 12406, Note_on_c, 0, 57, 0
2, 12409, Note_on_c, 0, 71, 0
2, 12411, Note_on_c, 0, 67, 90
2, 12415, Note_on_c, 0, 55, 90
2, 12441, Note_on_c, 0, 71, 90
2, 12468, Note_on_c, 0, 73, 90
2, 12470, Note_on_c, 0, 57, 90
2, 12471, Note_on_c, 0, 55, 0
2, 12471, Note_on_c, 0, 71, 0
2, 12496, Note_on_c, 0, 74, 90
2, 12498, Note_on_c, 0, 73, 0
2, 12523, Note_on_c, 0, 76, 90
2, 12526, Note_on_c, 0, 57, 0
2, 12526, Note_on_c, 0, 74, 0
2, 12526, Note_on_c, 0, 58, 90
2, 12550, Note_on_c, 0, 77, 90
2, 12556, Note_on_c, 0, 76, 0
2, 12556, Note_on_c, 0, 58, 0
2, 12569, Note_on_c, 0, 77, 0
2, 12579, Note_on_c, 0, 57, 90
2, 12582, Note_on_c, 0, 73, 90
2, 12611, Note_on_c, 0, 67, 0
2, 12612, Note_on_c, 0, 70, 90
2, 12638, Note_on_c, 0, 58, 90
2, 12640, Note_on_c, 0, 57, 0
2, 12641, Note_on_c, 0, 70, 0
2, 12641, Note_on_c, 0, 69, 90
2, 12668, Note_on_c, 0, 67, 90
2, 12670, Note_on_c, 0, 69, 0
2, 12682, Note_on_c, 0, 58, 0
2, 12697, Note_on_c, 0, 55, 90
2, 12700, Note_on_c, 0, 67, 0
2, 12701, Note_on_c, 0, 66, 90
2, 12724, Note_on_c, 0, 55, 0
2, 12730, Note_on_c, 0, 66, 0
2, 12731, Note_on_c, 0, 67, 90
2, 12758, Note_on_c, 0, 57, 90
2, 12759, Note_on_c, 0, 73, 0
2, 12759, Note_on_c, 0, 74, 90
2, 12767, Note_on_c, 0, 67, 0
2, 12789, Note_on_c, 0, 67, 90
2, 12819, Note_on_c, 0, 66, 90
2, 12820, Note_on_c, 0, 67, 0
2, 12848, Note_on_c, 0, 64, 90
2, 12849, Note_on_c, 0, 66, 0
2, 12877, Note_on_c, 0, 66, 90
2, 12879, Note_on_c, 0, 64, 0
2, 12903, Note_on_c, 0, 72, 90
2, 12904, Note_on_c, 0, 74, 0
2, 12914, Note_on_c, 0, 66, 0
2, 12935, Note_on_c, 0, 72, 0
2, 12936, Note_on_c, 0, 57, 0
2, 12936, Note_on_c, 0, 70, 90
2, 12962, Note_on_c, 0, 54, 90
2, 12964, Note_on_c, 0, 62, 90
2, 12990, Note_on_c, 0, 54, 0
2, 12990, Note_on_c, 0, 55, 90
2, 12993, Note_on_c, 0, 64, 90
2, 12995, Note_on_c, 0, 62, 0
2, 13017, Note_on_c, 0, 57, 90
2, 13018, Note_on_c, 0, 55, 0
2, 13019, Note_on_c, 0, 64, 0
2, 13021, Note_on_c, 0, 66, 90
2, 13043, Note_on_c, 0, 65, 90
2, 13048, Note_on_c, 0, 65, 0
2, 13049, Note_on_c, 0, 58, 90
2, 13050, Note_on_c, 0, 66, 0
2, 13052, Note_on_c, 0, 67, 90
2, 13053, Note_on_c, 0, 57, 0
2, 13077, Note_on_c, 0, 58, 0
2, 13078, Note_on_c, 0, 60, 90
2, 13106, Note_on_c, 0, 70, 0
2, 13108, Note_on_c, 0, 60, 0
2, 13108, Note_on_c, 0, 62, 90
2, 13114, Note_on_c, 0, 69, 90
2, 13116, Note_on_c, 0, 67, 0
2, 13147, Note_on_c, 0, 67, 90
2, 13178, Note_on_c, 0, 66, 90
2, 13179, Note_on_c, 0, 67, 0
2, 13205, Note_on_c, 0, 66, 0
2, 13206, Note_on_c, 0, 64, 90
2, 13238, Note_on_c, 0, 66, 90
2, 13240, Note_on_c, 0, 69, 0
2, 13244, Note_on_c, 0, 64, 0
2, 13269, Note_on_c, 0, 70, 90
2, 13287, Note_on_c, 0, 70, 0
2, 13303, Note_on_c, 0, 72, 90
2, 13311, Note_on_c, 0, 62, 0
2, 13329, Note_on_c, 0, 63, 90
2, 13360, Note_on_c, 0, 63, 0
2, 13361, Note_on_c, 0, 62, 90
2, 13371, Note_on_c, 0, 72, 0
2, 13371, Note_on_c, 0, 69, 90
2, 13389, Note_on_c, 0, 60, 90
2, 13390, Note_on_c, 0, 62, 0
2, 13397, Note_on_c, 0, 69, 0
2, 13422, Note_on_c, 0, 58, 90
2, 13423, Note_on_c, 0, 60, 0
2, 13428, Note_on_c, 0, 74, 90
2, 13452, Note_on_c, 0, 57, 90
2, 13453, Note_on_c, 0, 74, 0
2, 13455, Note_on_c, 0, 58, 0
2, 13464, Note_on_c, 0, 57, 0
2, 13485, Note_on_c, 0, 55, 90
2, 13490, Note_on_c, 0, 70, 90
2, 13517, Note_on_c, 0, 55, 0
2, 13517, Note_on_c, 0, 57, 90
2, 13548, Note_on_c, 0, 55, 90
2, 13549, Note_on_c, 0, 57, 0
2, 13553, Note_on_c, 0, 62, 90
2, 13559, Note_on_c, 0, 66, 0
2, 13572, Note_on_c, 0, 62, 0
2, 13577, Note_on_c, 0, 55, 0
2, 13578, Note_on_c, 0, 53, 90
2, 13608, Note_on_c, 0, 53, 0
2, 13609, Note_on_c, 0, 52, 90
2, 13612, Note_on_c, 0, 67, 90
2, 13639, Note_on_c, 0, 50, 90
2, 13640, Note_on_c, 0, 52, 0
2, 13652, Note_on_c, 0, 50, 0
2, 13673, Note_on_c, 0, 70, 0
2, 13673, Note_on_c, 0, 49, 90
2, 13674, Note_on_c, 0, 67, 0
2, 13674, Note_on_c, 0, 64, 90
2, 13705, Note_on_c, 0, 70, 90
2, 13729, Note_on_c, 0, 70, 0
2, 13734, Note_on_c, 0, 69, 90
2, 13763, Note_on_c, 0, 67, 90
2, 13767, Note_on_c, 0, 69, 0
2, 13791, Note_on_c, 0, 66, 90
2, 13792, Note_on_c, 0, 67, 0
2, 13820, Note_on_c, 0, 67, 90
2, 13821, Note_on_c, 0, 66, 0
2, 13836, Note_on_c, 0, 49, 0
2, 13843, Note_on_c, 0, 67, 0
2, 13848, Note_on_c, 0, 50, 90
2, 13854, Note_on_c, 0, 66, 90
2, 13860, Note_on_c, 0, 64, 0
2, 13885, Note_on_c, 0, 64, 90
2, 13914, Note_on_c, 0, 64, 0
2, 13915, Note_on_c, 0, 62, 90
2, 13945, Note_on_c, 0, 60, 90
2, 13947, Note_on_c, 0, 62, 0
2, 13958, Note_on_c, 0, 60, 0
2, 13974, Note_on_c, 0, 59, 90
2, 13988, Note_on_c, 0, 59, 0
2, 14003, Note_on_c, 0, 57, 90
2, 14016, Note_on_c, 0, 57, 0
2, 14034, Note_on_c, 0, 50, 0
2, 14036, Note_on_c, 0, 59, 90
2, 14042, Note_on_c, 0, 66, 0
2, 14067, Note_on_c, 0, 62, 90
2, 14087, Note_on_c, 0, 62, 0
2, 14095, Note_on_c, 0, 67, 90
2, 14110, Note_on_c, 0, 59, 0
2, 14122, Note_on_c, 0, 59, 90
2, 14133, Note_on_c, 0, 59, 0
2, 14152, Note_on_c, 0, 57, 90
2, 14182, Note_on_c, 0, 66, 90
2, 14184, Note_on_c, 0, 67, 0
2, 14190, Note_on_c, 0, 57, 0
2, 14195, Note_on_c, 0, 66, 0
2, 14217, Note_on_c, 0, 67, 90
2, 14218, Note_on_c, 0, 55, 90
2, 14251, Note_on_c, 0, 43, 90
2, 14279, Note_on_c, 0, 45, 90
2, 14283, Note_on_c, 0, 43, 0
2, 14310, Note_on_c, 0, 47, 90
2, 14311, Note_on_c, 0, 45, 0
2, 14339, Note_on_c, 0, 48, 90
2, 14341, Note_on_c, 0, 47, 0
2, 14367, Note_on_c, 0, 50, 90
2, 14368, Note_on_c, 0, 55, 0
2, 14369, Note_on_c, 0, 48, 0
2, 14372, Note_on_c, 0, 67, 0
2, 14397, Note_on_c, 0, 50, 0
2, 14399, Note_on_c, 0, 52, 90
2, 14428, Note_on_c, 0, 69, 90
2, 14459, Note_on_c, 0, 67, 90
2, 14462, Note_on_c, 0, 69, 0
2, 14487, Note_on_c, 0, 65, 90
2, 14488, Note_on_c, 0, 67, 0
2, 14518, Note_on_c, 0, 64, 90
2, 14519, Note_on_c, 0, 65, 0
2, 14545, Note_on_c, 0, 62, 90
2, 14548, Note_on_c, 0, 64, 0
2, 14555, Note_on_c, 0, 62, 0
2, 14575, Note_on_c, 0, 60, 90
2, 14585, Note_on_c, 0, 52, 0
2, 14605, Note_on_c, 0, 71, 90
2, 14635, Note_on_c, 0, 50, 90
2, 14636, Note_on_c, 0, 71, 0
2, 14636, Note_on_c, 0, 72, 90
2, 14664, Note_on_c, 0, 72, 0
2, 14664, Note_on_c, 0, 74, 90
2, 14668, Note_on_c, 0, 50, 0
2, 14695, Note_on_c, 0, 76, 90
2, 14696, Note_on_c, 0, 74, 0
2, 14696, Note_on_c, 0, 48, 90
2, 14719, Note_on_c, 0, 48, 0
2, 14725, Note_on_c, 0, 76, 0
2, 14725, Note_on_c, 0, 78, 90
2, 14752, Note_on_c, 0, 50, 90
2, 14753, Note_on_c, 0, 78, 0
2, 14753, Note_on_c, 0, 79, 90
2, 14758, Note_on_c, 0, 60, 0
2, 14782, Note_on_c, 0, 60, 90
2, 14802, Note_on_c, 0, 79, 0
2, 14813, Note_on_c, 0, 59, 90
2, 14814, Note_on_c, 0, 60, 0
2, 14814, Note_on_c, 0, 74, 90
2, 14842, Note_on_c, 0, 57, 90
2, 14843, Note_on_c, 0, 59, 0
2, 14850, Note_on_c, 0, 74, 0
2, 14873, Note_on_c, 0, 57, 0
2, 14873, Note_on_c, 0, 59, 90
2, 14874, Note_on_c, 0, 79, 90
2, 14902, Note_on_c, 0, 60, 90
2, 14905, Note_on_c, 0, 59, 0
2, 14916, Note_on_c, 0, 60, 0
2, 14924, Note_on_c, 0, 50, 0
2, 14935, Note_on_c, 0, 62, 90
2, 14936, Note_on_c, 0, 55, 90
2, 14965, Note_on_c, 0, 79, 0
2, 14966, Note_on_c, 0, 77, 90
2, 14994, Note_on_c, 0, 76, 90
2, 14997, Note_on_c, 0, 77, 0
2, 15023, Note_on_c, 0, 76, 0
2, 15024, Note_on_c, 0, 74, 90
2, 15055, Note_on_c, 0, 74, 0
2, 15055, Note_on_c, 0, 73, 90
2, 15082, Note_on_c, 0, 73, 0
2, 15083, Note_on_c, 0, 74, 90
2, 15087, Note_on_c, 0, 62, 0
2, 15110, Note_on_c, 0, 74, 0
2, 15112, Note_on_c, 0, 76, 90
2, 15138, Note_on_c, 0, 76, 0
2, 15139, Note_on_c, 0, 77, 90
2, 15141, Note_on_c, 0, 58, 90
2, 15145, Note_on_c, 0, 55, 0
2, 15166, Note_on_c, 0, 77, 0
2, 15168, Note_on_c, 0, 79, 90
2, 15168, Note_on_c, 0, 57, 90
2, 15169, Note_on_c, 0, 58, 0
2, 15180, Note_on_c, 0, 79, 0
2, 15196, Note_on_c, 0, 55, 90
2, 15197, Note_on_c, 0, 57, 0
2, 15197, Note_on_c, 0, 82, 90
2, 15222, Note_on_c, 0, 82, 0
2, 15226, Note_on_c, 0, 81, 90
2, 15227, Note_on_c, 0, 53, 90
2, 15229, Note_on_c, 0, 55, 0
2, 15254, Note_on_c, 0, 52, 90
2, 15256, Note_on_c, 0, 79, 90
2, 15259, Note_on_c, 0, 81, 0
2, 15259, Note_on_c, 0, 53, 0
2, 15269, Note_on_c, 0, 52, 0
2, 15272, Note_on_c, 0, 79, 0
2, 15285, Note_on_c, 0, 77, 90
2, 15287, Note_on_c, 0, 50, 90
2, 15315, Note_on_c, 0, 76, 90
2, 15338, Note_on_c, 0, 50, 0
2, 15346, Note_on_c, 0, 74, 90
2, 15346, Note_on_c, 0, 57, 90
2, 15347, Note_on_c, 0, 76, 0
2, 15374, Note_on_c, 0, 74, 0
2, 15374, Note_on_c, 0, 72, 90
2, 15379, Note_on_c, 0, 57, 0
2, 15402, Note_on_c, 0, 72, 0
2, 15406, Note_on_c, 0, 70, 90
2, 15407, Note_on_c, 0, 62, 90
2, 15431, Note_on_c, 0, 69, 90
2, 15432, Note_on_c, 0, 70, 0
2, 15439, Note_on_c, 0, 69, 0
2, 15463, Note_on_c, 0, 62, 0
2, 15464, Note_on_c, 0, 70, 90
2, 15465, Note_on_c, 0, 77, 0
2, 15466, Note_on_c, 0, 55, 90
2, 15500, Note_on_c, 0, 77, 90
2, 15522, Note_on_c, 0, 55, 0
2, 15530, Note_on_c, 0, 76, 90
2, 15531, Note_on_c, 0, 77, 0
2, 15559, Note_on_c, 0, 67, 90
2, 15560, Note_on_c, 0, 74, 90
2, 15562, Note_on_c, 0, 76, 0
2, 15591, Note_on_c, 0, 76, 90
2, 15592, Note_on_c, 0, 74, 0
2, 15592, Note_on_c, 0, 65, 90
2, 15594, Note_on_c, 0, 67, 0
2, 15620, Note_on_c, 0, 65, 0
2, 15621, Note_on_c, 0, 64, 90
2, 15644, Note_on_c, 0, 70, 0
2, 15644, Note_on_c, 0, 76, 0
2, 15649, Note_on_c, 0, 64, 0
2, 15650, Note_on_c, 0, 69, 90
2, 15651, Note_on_c, 0, 65, 90
2, 15684, Note_on_c, 0, 79, 90
2, 15685, Note_on_c, 0, 64, 90
2, 15688, Note_on_c, 0, 65, 0
2, 15713, Note_on_c, 0, 79, 0
2, 15713, Note_on_c, 0, 62, 90
2, 15713, Note_on_c, 0, 77, 90
2, 15715, Note_on_c, 0, 64, 0
2, 15743, Note_on_c, 0, 64, 90
2, 15743, Note_on_c, 0, 76, 90
2, 15744, Note_on_c, 0, 77, 0
2, 15745, Note_on_c, 0, 62, 0
2, 15772, Note_on_c, 0, 64, 0
2, 15772, Note_on_c, 0, 65, 90
2, 15774, Note_on_c, 0, 76, 0
2, 15774, Note_on_c, 0, 74, 90
2, 15802, Note_on_c, 0, 72, 90
2, 15804, Note_on_c, 0, 74, 0
2, 15807, Note_on_c, 0, 69, 0
2, 15812, Note_on_c, 0, 72, 0
2, 15831, Note_on_c, 0, 71, 90
2, 15832, Note_on_c, 0, 67, 90
2, 15860, Note_on_c, 0, 74, 90
2, 15863, Note_on_c, 0, 71, 0
2, 15888, Note_on_c, 0, 74, 0
2, 15890, Note_on_c, 0, 76, 90
2, 15891, Note_on_c, 0, 64, 90
2, 15893, Note_on_c, 0, 67, 0
2, 15897, Note_on_c, 0, 65, 0
2, 15916, Note_on_c, 0, 77, 90
2, 15917, Note_on_c, 0, 76, 0
2, 15917, Note_on_c, 0, 69, 90
2, 15930, Note_on_c, 0, 69, 0
2, 15944, Note_on_c, 0, 77, 0
2, 15946, Note_on_c, 0, 71, 90
2, 15948, Note_on_c, 0, 79, 90
2, 15974, Note_on_c, 0, 71, 0
2, 15975, Note_on_c, 0, 73, 90
2, 15979, Note_on_c, 0, 64, 0
2, 15993, Note_on_c, 0, 79, 0
2, 15993, Note_on_c, 0, 73, 0
2, 16007, Note_on_c, 0, 74, 90
2, 16009, Note_on_c, 0, 62, 90
2, 16038, Note_on_c, 0, 62, 0
2, 16039, Note_on_c, 0, 61, 90
2, 16040, Note_on_c, 0, 82, 90
2, 16057, Note_on_c, 0, 82, 0
2, 16068, Note_on_c, 0, 81, 90
2, 16069, Note_on_c, 0, 61, 0
2, 16069, Note_on_c, 0, 62, 90
2, 16096, Note_on_c, 0, 81, 0
2, 16096, Note_on_c, 0, 79, 90
2, 16098, Note_on_c, 0, 62, 0
2, 16098, Note_on_c, 0, 64, 90
2, 16126, Note_on_c, 0, 79, 0
2, 16126, Note_on_c, 0, 77, 90
2, 16127, Note_on_c, 0, 65, 90
2, 16128, Note_on_c, 0, 64, 0
2, 16147, Note_on_c, 0, 74, 0
2, 16156, Note_on_c, 0, 76, 90
2, 16156, Note_on_c, 0, 67, 90
2, 16158, Note_on_c, 0, 77, 0
2, 16158, Note_on_c, 0, 65, 0
2, 16164, Note_on_c, 0, 76, 0
2, 16185, Note_on_c, 0, 77, 90
2, 16186, Note_on_c, 0, 69, 90
2, 16189, Note_on_c, 0, 67, 0
2, 16215, Note_on_c, 0, 76, 90
2, 16216, Note_on_c, 0, 67, 90
2, 16218, Note_on_c, 0, 69, 0
2, 16242, Note_on_c, 0, 76, 0
2, 16244, Note_on_c, 0, 65, 90
2, 16244, Note_on_c, 0, 74, 90
2, 16245, Note_on_c, 0, 67, 0
2, 16272, Note_on_c, 0, 65, 0
2, 16272, Note_on_c, 0, 74, 0
2, 16273, Note_on_c, 0, 72, 90
2, 16273, Note_on_c, 0, 64, 90
2, 16301, Note_on_c, 0, 62, 90
2, 16302, Note_on_c, 0, 72, 0
2, 16302, Note_on_c, 0, 64, 0
2, 16302, Note_on_c, 0, 71, 90
2, 16328, Note_on_c, 0, 60, 90
2, 16329, Note_on_c, 0, 69, 90
2, 16331, Note_on_c, 0, 62, 0
2, 16331, Note_on_c, 0, 71, 0
2, 16335, Note_on_c, 0, 60, 0
2, 16361, Note_on_c, 0, 59, 90
2, 16362, Note_on_c, 0, 67, 90
2, 16363, Note_on_c, 0, 69, 0
2, 16369, Note_on_c, 0, 77, 0
2, 16390, Note_on_c, 0, 79, 90
2, 16391, Note_on_c, 0, 57, 90
2, 16393, Note_on_c, 0, 59, 0
2, 16420, Note_on_c, 0, 57, 0
2, 16421, Note_on_c, 0, 59, 90
2, 16421, Note_on_c, 0, 77, 90
2, 16422, Note_on_c, 0, 79, 0
2, 16451, Note_on_c, 0, 60, 90
2, 16451, Note_on_c, 0, 76, 90
2, 16452, Note_on_c, 0, 59, 0
2, 16452, Note_on_c, 0, 77, 0
2, 16480, Note_on_c, 0, 74, 90
2, 16481, Note_on_c, 0, 67, 0
2, 16481, Note_on_c, 0, 60, 0
2, 16481, Note_on_c, 0, 76, 0
2, 16481, Note_on_c, 0, 62, 90
2, 16506, Note_on_c, 0, 74, 0
2, 16507, Note_on_c, 0, 72, 90
2, 16508, Note_on_c, 0, 62, 0
2, 16508, Note_on_c, 0, 64, 90
2, 16522, Note_on_c, 0, 72, 0
2, 16524, Note_on_c, 0, 64, 0
2, 16537, Note_on_c, 0, 71, 90
2, 16538, Note_on_c, 0, 65, 90
2, 16567, Note_on_c, 0, 71, 0
2, 16568, Note_on_c, 0, 64, 90
2, 16569, Note_on_c, 0, 65, 0
2, 16569, Note_on_c, 0, 72, 90
2, 16599, Note_on_c, 0, 72, 0
2, 16600, Note_on_c, 0, 71, 90
2, 16601, Note_on_c, 0, 64, 0
2, 16601, Note_on_c, 0, 62, 90
2, 16628, Note_on_c, 0, 71, 0
2, 16629, Note_on_c, 0, 62, 0
2, 16629, Note_on_c, 0, 60, 90
2, 16629, Note_on_c, 0, 69, 90
2, 16658, Note_on_c, 0, 60, 0
2, 16658, Note_on_c, 0, 59, 90
2, 16660, Note_on_c, 0, 69, 0
2, 16660, Note_on_c, 0, 67, 90
2, 16684, Note_on_c, 0, 57, 90
2, 16685, Note_on_c, 0, 65, 90
2, 16686, Note_on_c, 0, 59, 0
2, 16689, Note_on_c, 0, 67, 0
2, 16691, Note_on_c, 0, 57, 0
2, 16715, Note_on_c, 0, 55, 90
2, 16715, Note_on_c, 0, 64, 90
2, 16716, Note_on_c, 0, 65, 0
2, 16747, Note_on_c, 0, 55, 0
2, 16747, Note_on_c, 0, 57, 90
2, 16778, Note_on_c, 0, 57, 0
2, 16778, Note_on_c, 0, 55, 90
2, 16808, Note_on_c, 0, 53, 90
2, 16809, Note_on_c, 0, 55, 0
2, 16835, Note_on_c, 0, 53, 0
2, 16836, Note_on_c, 0, 52, 90
2, 16865, Note_on_c, 0, 52, 0
2, 16866, Note_on_c, 0, 50, 90
2, 16882, Note_on_c, 0, 64, 0
2, 16893, Note_on_c, 0, 50, 0
2, 16903, Note_on_c, 0, 48, 90
2, 16941, Note_on_c, 0, 60, 90
2, 16942, Note_on_c, 0, 52, 90
2, 16971, Note_on_c, 0, 60, 0
2, 16972, Note_on_c, 0, 62, 90
2, 16973, Note_on_c, 0, 52, 0
2, 16973, Note_on_c, 0, 53, 90
2, 17000, Note_on_c, 0, 55, 90
2, 17000, Note_on_c, 0, 64, 90
2, 17001, Note_on_c, 0, 62, 0
2, 17001, Note_on_c, 0, 53, 0
2, 17029, Note_on_c, 0, 57, 90
2, 17030, Note_on_c, 0, 55, 0
2, 17031, Note_on_c, 0, 64, 0
2, 17032, Note_on_c, 0, 65, 90
2, 17054, Note_on_c, 0, 57, 0
2, 17057, Note_on_c, 0, 65, 0
2, 17057, Note_on_c, 0, 58, 90
2, 17059, Note_on_c, 0, 67, 90
2, 17076, Note_on_c, 0, 67, 0
2, 17086, Note_on_c, 0, 58, 0
2, 17089, Note_on_c, 0, 60, 90
2, 17090, Note_on_c, 0, 69, 90
2, 17122, Note_on_c, 0, 69, 0
2, 17123, Note_on_c, 0, 67, 90
2, 17151, Note_on_c, 0, 57, 90
2, 17153, Note_on_c, 0, 60, 0
2, 17153, Note_on_c, 0, 65, 90
2, 17154, Note_on_c, 0, 67, 0
2, 17181, Note_on_c, 0, 65, 0
2, 17181, Note_on_c, 0, 67, 90
2, 17211, Note_on_c, 0, 67, 0
2, 17212, Note_on_c, 0, 69, 90
2, 17213, Note_on_c, 0, 53, 90
2, 17214, Note_on_c, 0, 57, 0
2, 17242, Note_on_c, 0, 69, 0
2, 17242, Note_on_c, 0, 53, 0
2, 17242, Note_on_c, 0, 71, 90
2, 17273, Note_on_c, 0, 52, 90
2, 17274, Note_on_c, 0, 72, 90
2, 17275, Note_on_c, 0, 71, 0
2, 17306, Note_on_c, 0, 72, 0
2, 17306, Note_on_c, 0, 71, 90
2, 17335, Note_on_c, 0, 55, 90
2, 17336, Note_on_c, 0, 71, 0
2, 17336, Note_on_c, 0, 69, 90
2, 17340, Note_on_c, 0, 52, 0
2, 17363, Note_on_c, 0, 69, 0
2, 17365, Note_on_c, 0, 71, 90
2, 17375, Note_on_c, 0, 55, 0
2, 17393, Note_on_c, 0, 71, 0
2, 17393, Note_on_c, 0, 54, 90
2, 17394, Note_on_c, 0, 72, 90
2, 17422, Note_on_c, 0, 72, 0
2, 17424, Note_on_c, 0, 74, 90
2, 17426, Note_on_c, 0, 54, 0
2, 17455, Note_on_c, 0, 75, 90
2, 17455, Note_on_c, 0, 55, 90
2, 17456, Note_on_c, 0, 74, 0
2, 17471, Note_on_c, 0, 48, 0
2, 17486, Note_on_c, 0, 74, 90
2, 17487, Note_on_c, 0, 47, 90
2, 17490, Note_on_c, 0, 55, 0
2, 17514, Note_on_c, 0, 48, 90
2, 17515, Note_on_c, 0, 47, 0
2, 17517, Note_on_c, 0, 72, 90
2, 17519, Note_on_c, 0, 74, 0
2, 17547, Note_on_c, 0, 50, 90
2, 17547, Note_on_c, 0, 71, 90
2, 17548, Note_on_c, 0, 48, 0
2, 17551, Note_on_c, 0, 72, 0
2, 17576, Note_on_c, 0, 51, 90
2, 17577, Note_on_c, 0, 50, 0
2, 17577, Note_on_c, 0, 72, 90
2, 17578, Note_on_c, 0, 75, 0
2, 17581, Note_on_c, 0, 71, 0
2, 17604, Note_on_c, 0, 75, 90
2, 17605, Note_on_c, 0, 51, 0
2, 17605, Note_on_c, 0, 53, 90
2, 17624, Note_on_c, 0, 75, 0
2, 17635, Note_on_c, 0, 53, 0
2, 17636, Note_on_c, 0, 55, 90
2, 17636, Note_on_c, 0, 74, 90
2, 17637, Note_on_c, 0, 72, 0
2, 17666, Note_on_c, 0, 72, 90
2, 17666, Note_on_c, 0, 57, 90
2, 17669, Note_on_c, 0, 55, 0
2, 17694, Note_on_c, 0, 71, 90
2, 17696, Note_on_c, 0, 72, 0
2, 17696, Note_on_c, 0, 57, 0
2, 17696, Note_on_c, 0, 59, 90
2, 17723, Note_on_c, 0, 60, 90
2, 17724, Note_on_c, 0, 59, 0
2, 17726, Note_on_c, 0, 69, 90
2, 17727, Note_on_c, 0, 71, 0
2, 17751, Note_on_c, 0, 60, 0
2, 17751, Note_on_c, 0, 62, 90
2, 17751, Note_on_c, 0, 71, 90
2, 17752, Note_on_c, 0, 74, 0
2, 17758, Note_on_c, 0, 69, 0
2, 17780, Note_on_c, 0, 74, 90
2, 17784, Note_on_c, 0, 62, 0
2, 17784, Note_on_c, 0, 55, 90
2, 17816, Note_on_c, 0, 67, 90
2, 17817, Note_on_c, 0, 63, 90
2, 17818, Note_on_c, 0, 71, 0
2, 17818, Note_on_c, 0, 55, 0
2, 17836, Note_on_c, 0, 74, 0
2, 17848, Note_on_c, 0, 74, 90
2, 17878, Note_on_c, 0, 74, 0
2, 17878, Note_on_c, 0, 72, 90
2, 17908, Note_on_c, 0, 71, 90
2, 17909, Note_on_c, 0, 72, 0
2, 17937, Note_on_c, 0, 71, 0
2, 17937, Note_on_c, 0, 72, 90
2, 17943, Note_on_c, 0, 63, 0
2, 17968, Note_on_c, 0, 63, 90
2, 17984, Note_on_c, 0, 63, 0
2, 18000, Note_on_c, 0, 62, 90
2, 18001, Note_on_c, 0, 72, 0
2, 18027, Note_on_c, 0, 72, 90
2, 18056, Note_on_c, 0, 71, 90
2, 18059, Note_on_c, 0, 72, 0
2, 18086, Note_on_c, 0, 69, 90
2, 18088, Note_on_c, 0, 71, 0
2, 18107, Note_on_c, 0, 69, 0
2, 18117, Note_on_c, 0, 71, 90
2, 18145, Note_on_c, 0, 74, 90
2, 18175, Note_on_c, 0, 79, 90
2, 18184, Note_on_c, 0, 62, 0
2, 18205, Note_on_c, 0, 65, 90
2, 18232, Note_on_c, 0, 74, 0
2, 18233, Note_on_c, 0, 77, 90
2, 18235, Note_on_c, 0, 65, 0
2, 18236, Note_on_c, 0, 64, 90
2, 18264, Note_on_c, 0, 77, 0
2, 18264, Note_on_c, 0, 64, 0
2, 18264, Note_on_c, 0, 62, 90
2, 18265, Note_on_c, 0, 67, 0
2, 18265, Note_on_c, 0, 71, 0
2, 18295, Note_on_c, 0, 76, 90
2, 18295, Note_on_c, 0, 70, 90
2, 18296, Note_on_c, 0, 64, 90
2, 18296, Note_on_c, 0, 72, 90
2, 18300, Note_on_c, 0, 62, 0
2, 18326, Note_on_c, 0, 64, 0
2, 18327, Note_on_c, 0, 67, 90
2, 18341, Note_on_c, 0, 67, 0
2, 18357, Note_on_c, 0, 66, 90
2, 18375, Note_on_c, 0, 76, 0
2, 18379, Note_on_c, 0, 70, 0
2, 18380, Note_on_c, 0, 72, 0
2, 18388, Note_on_c, 0, 64, 90
2, 18390, Note_on_c, 0, 66, 0
2, 18418, Note_on_c, 0, 75, 90
2, 18418, Note_on_c, 0, 69, 90
2, 18419, Note_on_c, 0, 72, 90
2, 18419, Note_on_c, 0, 66, 90
2, 18425, Note_on_c, 0, 64, 0
2, 18436, Note_on_c, 0, 69, 0
2, 18450, Note_on_c, 0, 66, 0
2, 18451, Note_on_c, 0, 69, 90
2, 18482, Note_on_c, 0, 67, 90
2, 18510, Note_on_c, 0, 67, 0
2, 18510, Note_on_c, 0, 66, 90
2, 18512, Note_on_c, 0, 75, 0
2, 18534, Note_on_c, 0, 69, 0
2, 18541, Note_on_c, 0, 66, 0
2, 18541, Note_on_c, 0, 74, 90
2, 18543, Note_on_c, 0, 67, 90
2, 18545, Note_on_c, 0, 72, 0
2, 18576, Note_on_c, 0, 72, 90
2, 18606, Note_on_c, 0, 71, 90
2, 18607, Note_on_c, 0, 62, 90
2, 18610, Note_on_c, 0, 72, 0
2, 18630, Note_on_c, 0, 71, 0
2, 18638, Note_on_c, 0, 69, 90
2, 18671, Note_on_c, 0, 69, 0
2, 18686, Note_on_c, 0, 71, 90
2, 18686, Note_on_c, 0, 55, 90
2, 18899, Note_on_c, 0, 55, 0
2, 18901, Note_on_c, 0, 71, 0
2, 18902, Note_on_c, 0, 79, 0
2, 18902, Note_on_c, 0, 74, 0
2, 18902, Note_on_c, 0, 67, 0
2, 18903, Note_on_c, 0, 62, 0
2, 18903, End_track
3, 0, Start_track
3, 0, Title_t, "Man 4"
3, 0, MIDI_port, 0
3, 0, Control_c, 2, 7, 77
3, 0, Control_c, 2, 93, 0
3, 0, Control_c, 2, 91, 100
3, 0, Control_c, 2, 10, 25
3, 0, Program_c, 2, 19
3, 2, Note_on_c, 2, 79, 90
3, 60, Note_on_c, 2, 74, 90
3, 60, Note_on_c, 2, 71, 90
3, 81, Note_on_c, 2, 71, 0
3, 85, Note_on_c, 2, 74, 0
3, 88, Note_on_c, 2, 69, 90
3, 89, Note_on_c, 2, 72, 90
3, 103, Note_on_c, 2, 72, 0
3, 107, Note_on_c, 2, 69, 0
3, 119, Note_on_c, 2, 74, 90
3, 119, Note_on_c, 2, 71, 90
3, 132, Note_on_c, 2, 79, 0
3, 132, Note_on_c, 2, 71, 0
3, 134, Note_on_c, 2, 74, 0
3, 176, Note_on_c, 2, 81, 90
3, 177, Note_on_c, 2, 76, 90
3, 178, Note_on_c, 2, 72, 90
3, 204, Note_on_c, 2, 72, 0
3, 217, Note_on_c, 2, 76, 0
3, 234, Note_on_c, 2, 72, 90
3, 235, Note_on_c, 2, 69, 90
3, 246, Note_on_c, 2, 72, 0
3, 250, Note_on_c, 2, 69, 0
3, 291, Note_on_c, 2, 77, 90
3, 291, Note_on_c, 2, 74, 90
3, 305, Note_on_c, 2, 81, 0
3, 306, Note_on_c, 2, 74, 0
3, 309, Note_on_c, 2, 77, 0
3, 349, Note_on_c, 2, 79, 90
3, 350, Note_on_c, 2, 74, 90
3, 350, Note_on_c, 2, 71, 90
3, 388, Note_on_c, 2, 71, 0
3, 393, Note_on_c, 2, 74, 0
3, 409, Note_on_c, 2, 71, 90
3, 410, Note_on_c, 2, 67, 90
3, 429, Note_on_c, 2, 71, 0
3, 429, Note_on_c, 2, 67, 0
3, 467, Note_on_c, 2, 76, 90
3, 467, Note_on_c, 2, 72, 90
3, 483, Note_on_c, 2, 72, 0
3, 491, Note_on_c, 2, 76, 0
3, 495, Note_on_c, 2, 79, 0
3, 529, Note_on_c, 2, 69, 90
3, 529, Note_on_c, 2, 72, 90
3, 530, Note_on_c, 2, 77, 90
3, 573, Note_on_c, 2, 72, 0
3, 586, Note_on_c, 2, 69, 0
3, 589, Note_on_c, 2, 74, 90
3, 590, Note_on_c, 2, 71, 90
3, 600, Note_on_c, 2, 71, 0
3, 605, Note_on_c, 2, 74, 0
3, 616, Note_on_c, 2, 72, 90
3, 618, Note_on_c, 2, 69, 90
3, 625, Note_on_c, 2, 72, 0
3, 630, Note_on_c, 2, 69, 0
3, 648, Note_on_c, 2, 74, 90
3, 649, Note_on_c, 2, 71, 90
3, 682, Note_on_c, 2, 71, 0
3, 688, Note_on_c, 2, 74, 0
3, 708, Note_on_c, 2, 79, 90
3, 708, Note_on_c, 2, 67, 90
3, 709, Note_on_c, 2, 77, 0
3, 709, Note_on_c, 2, 71, 90
3, 757, Note_on_c, 2, 71, 0
3, 766, Note_on_c, 2, 67, 0
3, 766, Note_on_c, 2, 72, 90
3, 767, Note_on_c, 2, 76, 90
3, 779, Note_on_c, 2, 72, 0
3, 779, Note_on_c, 2, 76, 0
3, 796, Note_on_c, 2, 71, 90
3, 796, Note_on_c, 2, 74, 90
3, 807, Note_on_c, 2, 74, 0
3, 823, Note_on_c, 2, 76, 90
3, 824, Note_on_c, 2, 71, 0
3, 826, Note_on_c, 2, 72, 90
3, 827, Note_on_c, 2, 79, 0
3, 871, Note_on_c, 2, 72, 0
3, 877, Note_on_c, 2, 84, 90
3, 879, Note_on_c, 2, 69, 90
3, 903, Note_on_c, 2, 76, 0
3, 907, Note_on_c, 2, 67, 90
3, 910, Note_on_c, 2, 69, 0
3, 936, Note_on_c, 2, 67, 0
3, 938, Note_on_c, 2, 77, 90
3, 938, Note_on_c, 2, 69, 90
3, 956, Note_on_c, 2, 77, 0
3, 967, Note_on_c, 2, 79, 90
3, 968, Note_on_c, 2, 71, 90
3, 971, Note_on_c, 2, 69, 0
3, 979, Note_on_c, 2, 71, 0
3, 981, Note_on_c, 2, 79, 0
3, 995, Note_on_c, 2, 81, 90
3, 999, Note_on_c, 2, 72, 90
3, 1024, Note_on_c, 2, 79, 90
3, 1027, Note_on_c, 2, 81, 0
3, 1031, Note_on_c, 2, 84, 0
3, 1043, Note_on_c, 2, 79, 0
3, 1060, Note_on_c, 2, 86, 90
3, 1061, Note_on_c, 2, 77, 90
3, 1121, Note_on_c, 2, 74, 90
3, 1122, Note_on_c, 2, 77, 0
3, 1122, Note_on_c, 2, 71, 90
3, 1124, Note_on_c, 2, 72, 0
3, 1138, Note_on_c, 2, 71, 0
3, 1149, Note_on_c, 2, 74, 0
3, 1153, Note_on_c, 2, 69, 90
3, 1182, Note_on_c, 2, 69, 0
3, 1183, Note_on_c, 2, 79, 90
3, 1184, Note_on_c, 2, 71, 90
3, 1204, Note_on_c, 2, 71, 0
3, 1243, Note_on_c, 2, 79, 0
3, 1243, Note_on_c, 2, 84, 90
3, 1243, Note_on_c, 2, 76, 90
3, 1244, Note_on_c, 2, 86, 0
3, 1245, Note_on_c, 2, 72, 90
3, 1301, Note_on_c, 2, 67, 90
3, 1304, Note_on_c, 2, 72, 0
3, 1331, Note_on_c, 2, 67, 0
3, 1331, Note_on_c, 2, 65, 90
3, 1362, Note_on_c, 2, 65, 0
3, 1365, Note_on_c, 2, 67, 90
3, 1367, Note_on_c, 2, 84, 0
3, 1369, Note_on_c, 2, 76, 0
3, 1381, Note_on_c, 2, 67, 0
3, 1425, Note_on_c, 2, 84, 90
3, 1427, Note_on_c, 2, 60, 90
3, 1454, Note_on_c, 2, 60, 0
3, 1486, Note_on_c, 2, 76, 90
3, 1487, Note_on_c, 2, 79, 90
3, 1500, Note_on_c, 2, 76, 0
3, 1513, Note_on_c, 2, 79, 0
3, 1516, Note_on_c, 2, 77, 90
3, 1516, Note_on_c, 2, 74, 90
3, 1538, Note_on_c, 2, 77, 0
3, 1541, Note_on_c, 2, 74, 0
3, 1547, Note_on_c, 2, 76, 90
3, 1548, Note_on_c, 2, 79, 90
3, 1558, Note_on_c, 2, 84, 0
3, 1564, Note_on_c, 2, 79, 0
3, 1566, Note_on_c, 2, 76, 0
3, 1603, Note_on_c, 2, 79, 90
3, 1604, Note_on_c, 2, 74, 90
3, 1605, Note_on_c, 2, 71, 90
3, 1650, Note_on_c, 2, 74, 0
3, 1651, Note_on_c, 2, 71, 0
3, 1665, Note_on_c, 2, 71, 90
3, 1666, Note_on_c, 2, 67, 90
3, 1683, Note_on_c, 2, 71, 0
3, 1683, Note_on_c, 2, 67, 0
3, 1723, Note_on_c, 2, 76, 90
3, 1724, Note_on_c, 2, 72, 90
3, 1746, Note_on_c, 2, 79, 0
3, 1748, Note_on_c, 2, 76, 0
3, 1748, Note_on_c, 2, 72, 0
3, 1785, Note_on_c, 2, 81, 90
3, 1786, Note_on_c, 2, 72, 90
3, 1786, Note_on_c, 2, 65, 90
3, 1824, Note_on_c, 2, 72, 0
3, 1832, Note_on_c, 2, 65, 0
3, 1842, Note_on_c, 2, 77, 90
3, 1844, Note_on_c, 2, 74, 90
3, 1870, Note_on_c, 2, 76, 90
3, 1871, Note_on_c, 2, 77, 0
3, 1871, Note_on_c, 2, 74, 0
3, 1873, Note_on_c, 2, 72, 90
3, 1878, Note_on_c, 2, 76, 0
3, 1888, Note_on_c, 2, 72, 0
3, 1895, Note_on_c, 2, 81, 0
3, 1904, Note_on_c, 2, 77, 90
3, 1904, Note_on_c, 2, 83, 90
3, 1906, Note_on_c, 2, 74, 90
3, 1929, Note_on_c, 2, 74, 0
3, 1961, Note_on_c, 2, 77, 0
3, 1963, Note_on_c, 2, 84, 90
3, 1964, Note_on_c, 2, 79, 90
3, 1964, Note_on_c, 2, 76, 90
3, 1967, Note_on_c, 2, 83, 0
3, 2004, Note_on_c, 2, 76, 0
3, 2024, Note_on_c, 2, 79, 0
3, 2024, Note_on_c, 2, 64, 90
3, 2024, Note_on_c, 2, 81, 90
3, 2051, Note_on_c, 2, 81, 0
3, 2053, Note_on_c, 2, 79, 90
3, 2054, Note_on_c, 2, 64, 0
3, 2084, Note_on_c, 2, 69, 90
3, 2084, Note_on_c, 2, 77, 90
3, 2085, Note_on_c, 2, 79, 0
3, 2110, Note_on_c, 2, 76, 90
3, 2116, Note_on_c, 2, 77, 0
3, 2120, Note_on_c, 2, 76, 0
3, 2122, Note_on_c, 2, 84, 0
3, 2144, Note_on_c, 2, 86, 90
3, 2145, Note_on_c, 2, 74, 90
3, 2146, Note_on_c, 2, 65, 90
3, 2150, Note_on_c, 2, 69, 0
3, 2187, Note_on_c, 2, 65, 0
3, 2189, Note_on_c, 2, 74, 0
3, 2205, Note_on_c, 2, 79, 90
3, 2206, Note_on_c, 2, 62, 90
3, 2226, Note_on_c, 2, 62, 0
3, 2230, Note_on_c, 2, 79, 0
3, 2235, Note_on_c, 2, 77, 90
3, 2248, Note_on_c, 2, 77, 0
3, 2265, Note_on_c, 2, 79, 90
3, 2267, Note_on_c, 2, 67, 90
3, 2298, Note_on_c, 2, 86, 0
3, 2302, Note_on_c, 2, 67, 0
3, 2328, Note_on_c, 2, 88, 90
3, 2330, Note_on_c, 2, 60, 90
3, 2360, Note_on_c, 2, 64, 90
3, 2362, Note_on_c, 2, 60, 0
3, 2368, Note_on_c, 2, 79, 0
3, 2390, Note_on_c, 2, 64, 0
3, 2391, Note_on_c, 2, 67, 90
3, 2391, Note_on_c, 2, 76, 90
3, 2420, Note_on_c, 2, 65, 90
3, 2422, Note_on_c, 2, 76, 0
3, 2423, Note_on_c, 2, 67, 0
3, 2449, Note_on_c, 2, 65, 0
3, 2449, Note_on_c, 2, 79, 90
3, 2450, Note_on_c, 2, 64, 90
3, 2478, Note_on_c, 2, 79, 0
3, 2480, Note_on_c, 2, 62, 90
3, 2481, Note_on_c, 2, 64, 0
3, 2487, Note_on_c, 2, 88, 0
3, 2509, Note_on_c, 2, 88, 90
3, 2509, Note_on_c, 2, 84, 90
3, 2510, Note_on_c, 2, 64, 90
3, 2514, Note_on_c, 2, 62, 0
3, 2542, Note_on_c, 2, 83, 90
3, 2544, Note_on_c, 2, 84, 0
3, 2570, Note_on_c, 2, 81, 90
3, 2572, Note_on_c, 2, 83, 0
3, 2572, Note_on_c, 2, 60, 90
3, 2573, Note_on_c, 2, 64, 0
3, 2599, Note_on_c, 2, 79, 90
3, 2608, Note_on_c, 2, 81, 0
3, 2616, Note_on_c, 2, 79, 0
3, 2628, Note_on_c, 2, 81, 90
3, 2630, Note_on_c, 2, 60, 0
3, 2630, Note_on_c, 2, 72, 90
3, 2659, Note_on_c, 2, 78, 90
3, 2661, Note_on_c, 2, 88, 0
3, 2661, Note_on_c, 2, 81, 0
3, 2692, Note_on_c, 2, 86, 90
3, 2720, Note_on_c, 2, 72, 0
3, 2750, Note_on_c, 2, 71, 90
3, 2751, Note_on_c, 2, 79, 90
3, 2754, Note_on_c, 2, 78, 0
3, 2777, Note_on_c, 2, 71, 0
3, 2779, Note_on_c, 2, 69, 90
3, 2780, Note_on_c, 2, 79, 0
3, 2781, Note_on_c, 2, 78, 90
3, 2807, Note_on_c, 2, 69, 0
3, 2809, Note_on_c, 2, 71, 90
3, 2810, Note_on_c, 2, 78, 0
3, 2810, Note_on_c, 2, 79, 90
3, 2839, Note_on_c, 2, 81, 90
3, 2843, Note_on_c, 2, 79, 0
3, 2848, Note_on_c, 2, 86, 0
3, 2852, Note_on_c, 2, 81, 0
3, 2853, Note_on_c, 2, 71, 0
3, 2869, Note_on_c, 2, 86, 90
3, 2870, Note_on_c, 2, 83, 90
3, 2871, Note_on_c, 2, 67, 90
3, 2899, Note_on_c, 2, 83, 0
3, 2900, Note_on_c, 2, 81, 90
3, 2902, Note_on_c, 2, 67, 0
3, 2929, Note_on_c, 2, 81, 0
3, 2929, Note_on_c, 2, 79, 90
3, 2930, Note_on_c, 2, 71, 90
3, 2958, Note_on_c, 2, 71, 0
3, 2959, Note_on_c, 2, 79, 0
3, 2959, Note_on_c, 2, 78, 90
3, 2960, Note_on_c, 2, 69, 90
3, 2988, Note_on_c, 2, 78, 0
3, 2989, Note_on_c, 2, 69, 0
3, 2989, Note_on_c, 2, 79, 90
3, 2992, Note_on_c, 2, 71, 90
3, 3019, Note_on_c, 2, 67, 90
3, 3020, Note_on_c, 2, 71, 0
3, 3030, Note_on_c, 2, 67, 0
3, 3053, Note_on_c, 2, 88, 90
3, 3053, Note_on_c, 2, 60, 90
3, 3056, Note_on_c, 2, 86, 0
3, 3087, Note_on_c, 2, 60, 0
3, 3088, Note_on_c, 2, 79, 0
3, 3113, Note_on_c, 2, 79, 90
3, 3114, Note_on_c, 2, 72, 90
3, 3136, Note_on_c, 2, 72, 0
3, 3144, Note_on_c, 2, 71, 90
3, 3154, Note_on_c, 2, 71, 0
3, 3175, Note_on_c, 2, 84, 90
3, 3177, Note_on_c, 2, 72, 90
3, 3182, Note_on_c, 2, 88, 0
3, 3200, Note_on_c, 2, 84, 0
3, 3202, Note_on_c, 2, 72, 0
3, 3234, Note_on_c, 2, 84, 90
3, 3236, Note_on_c, 2, 64, 90
3, 3293, Note_on_c, 2, 79, 0
3, 3293, Note_on_c, 2, 76, 90
3, 3294, Note_on_c, 2, 64, 0
3, 3294, Note_on_c, 2, 72, 90
3, 3320, Note_on_c, 2, 72, 0
3, 3321, Note_on_c, 2, 71, 90
3, 3331, Note_on_c, 2, 76, 0
3, 3336, Note_on_c, 2, 71, 0
3, 3354, Note_on_c, 2, 79, 90
3, 3356, Note_on_c, 2, 72, 90
3, 3390, Note_on_c, 2, 72, 0
3, 3413, Note_on_c, 2, 81, 90
3, 3415, Note_on_c, 2, 65, 90
3, 3418, Note_on_c, 2, 84, 0
3, 3439, Note_on_c, 2, 79, 0
3, 3471, Note_on_c, 2, 77, 90
3, 3472, Note_on_c, 2, 65, 0
3, 3472, Note_on_c, 2, 69, 90
3, 3496, Note_on_c, 2, 77, 0
3, 3500, Note_on_c, 2, 76, 90
3, 3510, Note_on_c, 2, 76, 0
3, 3532, Note_on_c, 2, 69, 0
3, 3533, Note_on_c, 2, 77, 90
3, 3533, Note_on_c, 2, 74, 90
3, 3564, Note_on_c, 2, 74, 0
3, 3589, Note_on_c, 2, 81, 0
3, 3591, Note_on_c, 2, 79, 90
3, 3593, Note_on_c, 2, 71, 90
3, 3635, Note_on_c, 2, 71, 0
3, 3650, Note_on_c, 2, 77, 0
3, 3650, Note_on_c, 2, 76, 90
3, 3652, Note_on_c, 2, 67, 90
3, 3678, Note_on_c, 2, 76, 0
3, 3680, Note_on_c, 2, 74, 90
3, 3690, Note_on_c, 2, 74, 0
3, 3710, Note_on_c, 2, 67, 0
3, 3710, Note_on_c, 2, 76, 90
3, 3711, Note_on_c, 2, 72, 90
3, 3739, Note_on_c, 2, 79, 0
3, 3754, Note_on_c, 2, 72, 0
3, 3771, Note_on_c, 2, 74, 90
3, 3772, Note_on_c, 2, 83, 90
3, 3772, Note_on_c, 2, 67, 90
3, 3773, Note_on_c, 2, 76, 0
3, 3801, Note_on_c, 2, 69, 90
3, 3803, Note_on_c, 2, 67, 0
3, 3811, Note_on_c, 2, 74, 0
3, 3833, Note_on_c, 2, 79, 90
3, 3833, Note_on_c, 2, 71, 90
3, 3834, Note_on_c, 2, 69, 0
3, 3862, Note_on_c, 2, 71, 0
3, 3862, Note_on_c, 2, 72, 90
3, 3863, Note_on_c, 2, 79, 0
3, 3863, Note_on_c, 2, 78, 90
3, 3872, Note_on_c, 2, 78, 0
3, 3890, Note_on_c, 2, 79, 90
3, 3891, Note_on_c, 2, 72, 0
3, 3891, Note_on_c, 2, 74, 90
3, 3911, Note_on_c, 2, 83, 0
3, 3920, Note_on_c, 2, 71, 90
3, 3922, Note_on_c, 2, 74, 0
3, 3948, Note_on_c, 2, 85, 90
3, 3950, Note_on_c, 2, 71, 0
3, 3950, Note_on_c, 2, 76, 90
3, 3979, Note_on_c, 2, 67, 90
3, 3980, Note_on_c, 2, 79, 0
3, 3980, Note_on_c, 2, 76, 0
3, 4008, Note_on_c, 2, 67, 0
3, 4009, Note_on_c, 2, 69, 90
3, 4009, Note_on_c, 2, 79, 90
3, 4035, Note_on_c, 2, 79, 0
3, 4037, Note_on_c, 2, 69, 0
3, 4038, Note_on_c, 2, 70, 90
3, 4039, Note_on_c, 2, 78, 90
3, 4050, Note_on_c, 2, 78, 0
3, 4066, Note_on_c, 2, 70, 0
3, 4068, Note_on_c, 2, 69, 90
3, 4068, Note_on_c, 2, 79, 90
3, 4078, Note_on_c, 2, 85, 0
3, 4094, Note_on_c, 2, 69, 0
3, 4096, Note_on_c, 2, 67, 90
3, 4122, Note_on_c, 2, 86, 90
3, 4125, Note_on_c, 2, 67, 0
3, 4126, Note_on_c, 2, 69, 90
3, 4153, Note_on_c, 2, 69, 0
3, 4184, Note_on_c, 2, 62, 90
3, 4185, Note_on_c, 2, 79, 0
3, 4185, Note_on_c, 2, 77, 90
3, 4206, Note_on_c, 2, 62, 0
3, 4214, Note_on_c, 2, 77, 0
3, 4214, Note_on_c, 2, 76, 90
3, 4223, Note_on_c, 2, 76, 0
3, 4245, Note_on_c, 2, 77, 90
3, 4247, Note_on_c, 2, 74, 90
3, 4265, Note_on_c, 2, 74, 0
3, 4303, Note_on_c, 2, 79, 90
3, 4305, Note_on_c, 2, 86, 0
3, 4305, Note_on_c, 2, 71, 90
3, 4341, Note_on_c, 2, 77, 0
3, 4349, Note_on_c, 2, 71, 0
3, 4364, Note_on_c, 2, 67, 90
3, 4365, Note_on_c, 2, 76, 90
3, 4387, Note_on_c, 2, 67, 0
3, 4392, Note_on_c, 2, 76, 0
3, 4393, Note_on_c, 2, 74, 90
3, 4402, Note_on_c, 2, 74, 0
3, 4424, Note_on_c, 2, 72, 90
3, 4424, Note_on_c, 2, 76, 90
3, 4444, Note_on_c, 2, 79, 0
3, 4452, Note_on_c, 2, 72, 0
3, 4484, Note_on_c, 2, 84, 90
3, 4485, Note_on_c, 2, 60, 90
3, 4515, Note_on_c, 2, 60, 0
3, 4522, Note_on_c, 2, 64, 90
3, 4535, Note_on_c, 2, 76, 0
3, 4549, Note_on_c, 2, 72, 90
3, 4550, Note_on_c, 2, 64, 0
3, 4550, Note_on_c, 2, 65, 90
3, 4577, Note_on_c, 2, 65, 0
3, 4577, Note_on_c, 2, 67, 90
3, 4597, Note_on_c, 2, 72, 0
3, 4602, Note_on_c, 2, 67, 0
3, 4606, Note_on_c, 2, 69, 90
3, 4607, Note_on_c, 2, 77, 90
3, 4635, Note_on_c, 2, 70, 90
3, 4636, Note_on_c, 2, 69, 0
3, 4653, Note_on_c, 2, 70, 0
3, 4663, Note_on_c, 2, 81, 90
3, 4664, Note_on_c, 2, 84, 0
3, 4665, Note_on_c, 2, 72, 90
3, 4695, Note_on_c, 2, 74, 90
3, 4696, Note_on_c, 2, 77, 0
3, 4696, Note_on_c, 2, 72, 0
3, 4723, Note_on_c, 2, 74, 0
3, 4725, Note_on_c, 2, 76, 90
3, 4726, Note_on_c, 2, 72, 90
3, 4741, Note_on_c, 2, 76, 0
3, 4754, Note_on_c, 2, 72, 0
3, 4754, Note_on_c, 2, 70, 90
3, 4754, Note_on_c, 2, 74, 90
3, 4773, Note_on_c, 2, 74, 0
3, 4782, Note_on_c, 2, 70, 0
3, 4785, Note_on_c, 2, 69, 90
3, 4785, Note_on_c, 2, 76, 90
3, 4833, Note_on_c, 2, 81, 0
3, 4844, Note_on_c, 2, 77, 90
3, 4861, Note_on_c, 2, 69, 0
3, 4871, Note_on_c, 2, 62, 90
3, 4898, Note_on_c, 2, 62, 0
3, 4902, Note_on_c, 2, 65, 90
3, 4902, Note_on_c, 2, 74, 90
3, 4903, Note_on_c, 2, 76, 0
3, 4928, Note_on_c, 2, 65, 0
3, 4929, Note_on_c, 2, 74, 0
3, 4930, Note_on_c, 2, 67, 90
3, 4930, Note_on_c, 2, 73, 90
3, 4947, Note_on_c, 2, 67, 0
3, 4958, Note_on_c, 2, 69, 90
3, 4959, Note_on_c, 2, 73, 0
3, 4959, Note_on_c, 2, 74, 90
3, 4981, Note_on_c, 2, 69, 0
3, 4983, Note_on_c, 2, 70, 90
3, 4988, Note_on_c, 2, 76, 90
3, 4991, Note_on_c, 2, 74, 0
3, 4995, Note_on_c, 2, 77, 0
3, 5007, Note_on_c, 2, 76, 0
3, 5016, Note_on_c, 2, 69, 90
3, 5017, Note_on_c, 2, 70, 0
3, 5017, Note_on_c, 2, 77, 90
3, 5017, Note_on_c, 2, 81, 90
3, 5042, Note_on_c, 2, 69, 0
3, 5047, Note_on_c, 2, 79, 90
3, 5047, Note_on_c, 2, 61, 90
3, 5048, Note_on_c, 2, 77, 0
3, 5068, Note_on_c, 2, 61, 0
3, 5077, Note_on_c, 2, 62, 90
3, 5078, Note_on_c, 2, 77, 90
3, 5080, Note_on_c, 2, 79, 0
3, 5106, Note_on_c, 2, 77, 0
3, 5106, Note_on_c, 2, 76, 90
3, 5107, Note_on_c, 2, 64, 90
3, 5108, Note_on_c, 2, 62, 0
3, 5133, Note_on_c, 2, 64, 0
3, 5135, Note_on_c, 2, 65, 90
3, 5136, Note_on_c, 2, 74, 90
3, 5138, Note_on_c, 2, 76, 0
3, 5162, Note_on_c, 2, 72, 90
3, 5166, Note_on_c, 2, 74, 0
3, 5167, Note_on_c, 2, 81, 0
3, 5185, Note_on_c, 2, 72, 0
3, 5197, Note_on_c, 2, 79, 90
3, 5197, Note_on_c, 2, 71, 90
3, 5226, Note_on_c, 2, 71, 0
3, 5228, Note_on_c, 2, 74, 90
3, 5240, Note_on_c, 2, 74, 0
3, 5262, Note_on_c, 2, 67, 90
3, 5265, Note_on_c, 2, 64, 90
3, 5266, Note_on_c, 2, 65, 0
3, 5294, Note_on_c, 2, 62, 90
3, 5295, Note_on_c, 2, 64, 0
3, 5310, Note_on_c, 2, 67, 0
3, 5323, Note_on_c, 2, 62, 0
3, 5324, Note_on_c, 2, 64, 90
3, 5324, Note_on_c, 2, 72, 90
3, 5352, Note_on_c, 2, 74, 90
3, 5353, Note_on_c, 2, 64, 0
3, 5353, Note_on_c, 2, 65, 90
3, 5354, Note_on_c, 2, 72, 0
3, 5373, Note_on_c, 2, 74, 0
3, 5386, Note_on_c, 2, 65, 0
3, 5387, Note_on_c, 2, 76, 90
3, 5387, Note_on_c, 2, 67, 90
3, 5419, Note_on_c, 2, 74, 90
3, 5420, Note_on_c, 2, 76, 0
3, 5423, Note_on_c, 2, 67, 0
3, 5434, Note_on_c, 2, 74, 0
3, 5450, Note_on_c, 2, 76, 90
3, 5451, Note_on_c, 2, 60, 90
3, 5481, Note_on_c, 2, 60, 0
3, 5512, Note_on_c, 2, 72, 90
3, 5540, Note_on_c, 2, 76, 0
3, 5541, Note_on_c, 2, 77, 90
3, 5577, Note_on_c, 2, 77, 0
3, 5577, Note_on_c, 2, 74, 90
3, 5617, Note_on_c, 2, 72, 0
3, 5634, Note_on_c, 2, 71, 90
3, 5648, Note_on_c, 2, 79, 0
3, 5662, Note_on_c, 2, 74, 0
3, 5665, Note_on_c, 2, 78, 90
3, 5666, Note_on_c, 2, 69, 90
3, 5668, Note_on_c, 2, 71, 0
3, 5695, Note_on_c, 2, 78, 0
3, 5695, Note_on_c, 2, 79, 90
3, 5696, Note_on_c, 2, 71, 90
3, 5697, Note_on_c, 2, 69, 0
3, 5726, Note_on_c, 2, 81, 90
3, 5726, Note_on_c, 2, 72, 90
3, 5727, Note_on_c, 2, 79, 0
3, 5728, Note_on_c, 2, 71, 0
3, 5756, Note_on_c, 2, 83, 90
3, 5757, Note_on_c, 2, 72, 0
3, 5757, Note_on_c, 2, 74, 90
3, 5758, Note_on_c, 2, 81, 0
3, 5786, Note_on_c, 2, 79, 90
3, 5787, Note_on_c, 2, 71, 90
3, 5788, Note_on_c, 2, 83, 0
3, 5791, Note_on_c, 2, 74, 0
3, 5816, Note_on_c, 2, 79, 0
3, 5816, Note_on_c, 2, 81, 90
3, 5816, Note_on_c, 2, 72, 90
3, 5817, Note_on_c, 2, 71, 0
3, 5844, Note_on_c, 2, 81, 0
3, 5844, Note_on_c, 2, 72, 0
3, 5844, Note_on_c, 2, 83, 90
3, 5845, Note_on_c, 2, 74, 90
3, 5873, Note_on_c, 2, 76, 90
3, 5874, Note_on_c, 2, 83, 0
3, 5874, Note_on_c, 2, 74, 0
3, 5874, Note_on_c, 2, 84, 90
3, 5902, Note_on_c, 2, 76, 0
3, 5902, Note_on_c, 2, 77, 90
3, 5903, Note_on_c, 2, 84, 0
3, 5904, Note_on_c, 2, 86, 90
3, 5920, Note_on_c, 2, 77, 0
3, 5921, Note_on_c, 2, 86, 0
3, 5933, Note_on_c, 2, 79, 90
3, 5934, Note_on_c, 2, 88, 90
3, 5965, Note_on_c, 2, 86, 90
3, 5997, Note_on_c, 2, 84, 90
3, 5998, Note_on_c, 2, 86, 0
3, 6025, Note_on_c, 2, 84, 0
3, 6026, Note_on_c, 2, 83, 90
3, 6055, Note_on_c, 2, 83, 0
3, 6055, Note_on_c, 2, 84, 90
3, 6056, Note_on_c, 2, 88, 0
3, 6086, Note_on_c, 2, 88, 90
3, 6096, Note_on_c, 2, 88, 0
3, 6117, Note_on_c, 2, 86, 90
3, 6118, Note_on_c, 2, 84, 0
3, 6146, Note_on_c, 2, 84, 90
3, 6174, Note_on_c, 2, 83, 90
3, 6175, Note_on_c, 2, 84, 0
3, 6203, Note_on_c, 2, 81, 90
3, 6204, Note_on_c, 2, 83, 0
3, 6215, Note_on_c, 2, 81, 0
3, 6232, Note_on_c, 2, 83, 90
3, 6257, Note_on_c, 2, 79, 0
3, 6263, Note_on_c, 2, 77, 90
3, 6292, Note_on_c, 2, 76, 90
3, 6292, Note_on_c, 2, 91, 90
3, 6293, Note_on_c, 2, 77, 0
3, 6294, Note_on_c, 2, 86, 0
3, 6295, Note_on_c, 2, 83, 0
3, 6323, Note_on_c, 2, 83, 90
3, 6323, Note_on_c, 2, 79, 90
3, 6352, Note_on_c, 2, 84, 90
3, 6352, Note_on_c, 2, 81, 90
3, 6353, Note_on_c, 2, 83, 0
3, 6353, Note_on_c, 2, 79, 0
3, 6379, Note_on_c, 2, 83, 90
3, 6379, Note_on_c, 2, 86, 90
3, 6380, Note_on_c, 2, 84, 0
3, 6382, Note_on_c, 2, 81, 0
3, 6406, Note_on_c, 2, 83, 0
3, 6407, Note_on_c, 2, 86, 0
3, 6409, Note_on_c, 2, 84, 90
3, 6410, Note_on_c, 2, 88, 90
3, 6429, Note_on_c, 2, 91, 0
3, 6436, Note_on_c, 2, 76, 0
3, 6437, Note_on_c, 2, 93, 90
3, 6463, Note_on_c, 2, 84, 0
3, 6468, Note_on_c, 2, 93, 0
3, 6468, Note_on_c, 2, 95, 90
3, 6469, Note_on_c, 2, 77, 90
3, 6470, Note_on_c, 2, 88, 0
3, 6470, Note_on_c, 2, 74, 90
3, 6500, Note_on_c, 2, 93, 90
3, 6529, Note_on_c, 2, 91, 90
3, 6530, Note_on_c, 2, 93, 0
3, 6557, Note_on_c, 2, 91, 0
3, 6558, Note_on_c, 2, 89, 90
3, 6589, Note_on_c, 2, 88, 90
3, 6590, Note_on_c, 2, 89, 0
3, 6614, Note_on_c, 2, 74, 0
3, 6615, Note_on_c, 2, 86, 90
3, 6616, Note_on_c, 2, 77, 0
3, 6617, Note_on_c, 2, 88, 0
3, 6625, Note_on_c, 2, 86, 0
3, 6628, Note_on_c, 2, 95, 0
3, 6645, Note_on_c, 2, 88, 90
3, 6646, Note_on_c, 2, 72, 90
3, 6647, Note_on_c, 2, 79, 90
3, 6677, Note_on_c, 2, 91, 90
3, 6680, Note_on_c, 2, 88, 0
3, 6705, Note_on_c, 2, 72, 0
3, 6705, Note_on_c, 2, 96, 90
3, 6706, Note_on_c, 2, 91, 0
3, 6707, Note_on_c, 2, 79, 0
3, 6734, Note_on_c, 2, 96, 0
3, 6734, Note_on_c, 2, 95, 90
3, 6735, Note_on_c, 2, 79, 90
3, 6764, Note_on_c, 2, 96, 90
3, 6765, Note_on_c, 2, 95, 0
3, 6765, Note_on_c, 2, 79, 0
3, 6765, Note_on_c, 2, 84, 90
3, 6791, Note_on_c, 2, 83, 90
3, 6792, Note_on_c, 2, 91, 90
3, 6793, Note_on_c, 2, 84, 0
3, 6795, Note_on_c, 2, 96, 0
3, 6822, Note_on_c, 2, 91, 0
3, 6822, Note_on_c, 2, 88, 90
3, 6823, Note_on_c, 2, 83, 0
3, 6825, Note_on_c, 2, 84, 90
3, 6850, Note_on_c, 2, 88, 0
3, 6852, Note_on_c, 2, 91, 90
3, 6853, Note_on_c, 2, 79, 90
3, 6854, Note_on_c, 2, 84, 0
3, 6883, Note_on_c, 2, 91, 0
3, 6883, Note_on_c, 2, 79, 0
3, 6883, Note_on_c, 2, 84, 90
3, 6883, Note_on_c, 2, 76, 90
3, 6911, Note_on_c, 2, 76, 0
3, 6912, Note_on_c, 2, 84, 0
3, 6912, Note_on_c, 2, 79, 90
3, 6912, Note_on_c, 2, 88, 90
3, 6939, Note_on_c, 2, 79, 0
3, 6939, Note_on_c, 2, 88, 0
3, 6940, Note_on_c, 2, 86, 90
3, 6941, Note_on_c, 2, 77, 90
3, 6966, Note_on_c, 2, 86, 0
3, 6966, Note_on_c, 2, 77, 0
3, 6966, Note_on_c, 2, 84, 90
3, 6967, Note_on_c, 2, 76, 90
3, 6998, Note_on_c, 2, 84, 0
3, 6998, Note_on_c, 2, 76, 0
3, 6999, Note_on_c, 2, 77, 90
3, 6999, Note_on_c, 2, 86, 90
3, 7035, Note_on_c, 2, 77, 0
3, 7035, Note_on_c, 2, 86, 0
3, 7035, Note_on_c, 2, 89, 90
3, 7035, Note_on_c, 2, 81, 90
3, 7064, Note_on_c, 2, 89, 0
3, 7064, Note_on_c, 2, 83, 90
3, 7064, Note_on_c, 2, 74, 90
3, 7066, Note_on_c, 2, 81, 0
3, 7093, Note_on_c, 2, 86, 90
3, 7094, Note_on_c, 2, 83, 0
3, 7094, Note_on_c, 2, 74, 0
3, 7094, Note_on_c, 2, 77, 90
3, 7121, Note_on_c, 2, 86, 0
3, 7121, Note_on_c, 2, 84, 90
3, 7123, Note_on_c, 2, 76, 90
3, 7124, Note_on_c, 2, 77, 0
3, 7149, Note_on_c, 2, 83, 90
3, 7150, Note_on_c, 2, 84, 0
3, 7150, Note_on_c, 2, 74, 90
3, 7151, Note_on_c, 2, 76, 0
3, 7180, Note_on_c, 2, 83, 0
3, 7181, Note_on_c, 2, 84, 90
3, 7183, Note_on_c, 2, 76, 90
3, 7185, Note_on_c, 2, 74, 0
3, 7215, Note_on_c, 2, 88, 90
3, 7216, Note_on_c, 2, 84, 0
3, 7217, Note_on_c, 2, 76, 0
3, 7218, Note_on_c, 2, 79, 90
3, 7246, Note_on_c, 2, 81, 90
3, 7246, Note_on_c, 2, 72, 90
3, 7247, Note_on_c, 2, 88, 0
3, 7249, Note_on_c, 2, 79, 0
3, 7275, Note_on_c, 2, 76, 90
3, 7275, Note_on_c, 2, 84, 90
3, 7276, Note_on_c, 2, 81, 0
3, 7276, Note_on_c, 2, 72, 0
3, 7305, Note_on_c, 2, 76, 0
3, 7305, Note_on_c, 2, 84, 0
3, 7305, Note_on_c, 2, 83, 90
3, 7306, Note_on_c, 2, 74, 90
3, 7332, Note_on_c, 2, 81, 90
3, 7333, Note_on_c, 2, 83, 0
3, 7334, Note_on_c, 2, 72, 90
3, 7336, Note_on_c, 2, 74, 0
3, 7354, Note_on_c, 2, 81, 0
3, 7360, Note_on_c, 2, 72, 0
3, 7365, Note_on_c, 2, 83, 90
3, 7365, Note_on_c, 2, 74, 90
3, 7399, Note_on_c, 2, 81, 90
3, 7428, Note_on_c, 2, 79, 90
3, 7430, Note_on_c, 2, 81, 0
3, 7456, Note_on_c, 2, 79, 0
3, 7458, Note_on_c, 2, 77, 90
3, 7487, Note_on_c, 2, 74, 0
3, 7488, Note_on_c, 2, 77, 0
3, 7488, Note_on_c, 2, 76, 90
3, 7514, Note_on_c, 2, 74, 90
3, 7515, Note_on_c, 2, 76, 0
3, 7540, Note_on_c, 2, 83, 0
3, 7551, Note_on_c, 2, 72, 90
3, 7552, Note_on_c, 2, 74, 0
3, 7552, Note_on_c, 2, 76, 90
3, 7582, Note_on_c, 2, 86, 90
3, 7609, Note_on_c, 2, 86, 0
3, 7610, Note_on_c, 2, 84, 90
3, 7639, Note_on_c, 2, 83, 90
3, 7640, Note_on_c, 2, 84, 0
3, 7670, Note_on_c, 2, 83, 0
3, 7670, Note_on_c, 2, 81, 90
3, 7674, Note_on_c, 2, 76, 0
3, 7696, Note_on_c, 2, 81, 0
3, 7697, Note_on_c, 2, 79, 90
3, 7716, Note_on_c, 2, 79, 0
3, 7728, Note_on_c, 2, 78, 90
3, 7761, Note_on_c, 2, 76, 90
3, 7776, Note_on_c, 2, 76, 0
3, 7792, Note_on_c, 2, 72, 0
3, 7792, Note_on_c, 2, 74, 90
3, 7820, Note_on_c, 2, 72, 90
3, 7851, Note_on_c, 2, 72, 0
3, 7851, Note_on_c, 2, 71, 90
3, 7879, Note_on_c, 2, 69, 90
3, 7880, Note_on_c, 2, 71, 0
3, 7897, Note_on_c, 2, 74, 0
3, 7902, Note_on_c, 2, 78, 0
3, 7906, Note_on_c, 2, 69, 0
3, 7910, Note_on_c, 2, 71, 90
3, 7941, Note_on_c, 2, 74, 90
3, 7968, Note_on_c, 2, 79, 90
3, 7976, Note_on_c, 2, 71, 0
3, 7993, Note_on_c, 2, 71, 90
3, 8018, Note_on_c, 2, 74, 0
3, 8020, Note_on_c, 2, 71, 0
3, 8028, Note_on_c, 2, 69, 90
3, 8030, Note_on_c, 2, 72, 90
3, 8056, Note_on_c, 2, 69, 0
3, 8056, Note_on_c, 2, 72, 0
3, 8057, Note_on_c, 2, 77, 90
3, 8061, Note_on_c, 2, 79, 0
3, 8087, Note_on_c, 2, 71, 90
3, 8088, Note_on_c, 2, 67, 90
3, 8091, Note_on_c, 2, 77, 0
3, 8121, Note_on_c, 2, 81, 90
3, 8152, Note_on_c, 2, 81, 0
3, 8152, Note_on_c, 2, 79, 90
3, 8181, Note_on_c, 2, 77, 90
3, 8182, Note_on_c, 2, 79, 0
3, 8208, Note_on_c, 2, 77, 0
3, 8209, Note_on_c, 2, 76, 90
3, 8239, Note_on_c, 2, 74, 90
3, 8240, Note_on_c, 2, 76, 0
3, 8251, Note_on_c, 2, 74, 0
3, 8272, Note_on_c, 2, 76, 90
3, 8300, Note_on_c, 2, 74, 90
3, 8301, Note_on_c, 2, 71, 0
3, 8330, Note_on_c, 2, 72, 90
3, 8331, Note_on_c, 2, 74, 0
3, 8360, Note_on_c, 2, 71, 90
3, 8361, Note_on_c, 2, 72, 0
3, 8391, Note_on_c, 2, 71, 0
3, 8391, Note_on_c, 2, 72, 90
3, 8392, Note_on_c, 2, 76, 0
3, 8418, Note_on_c, 2, 76, 90
3, 8438, Note_on_c, 2, 76, 0
3, 8449, Note_on_c, 2, 74, 90
3, 8453, Note_on_c, 2, 72, 0
3, 8480, Note_on_c, 2, 72, 90
3, 8508, Note_on_c, 2, 71, 90
3, 8511, Note_on_c, 2, 72, 0
3, 8536, Note_on_c, 2, 69, 90
3, 8537, Note_on_c, 2, 71, 0
3, 8567, Note_on_c, 2, 71, 90
3, 8574, Note_on_c, 2, 69, 0
3, 8596, Note_on_c, 2, 76, 90
3, 8597, Note_on_c, 2, 74, 0
3, 8601, Note_on_c, 2, 71, 0
3, 8627, Note_on_c, 2, 69, 90
3, 8628, Note_on_c, 2, 78, 90
3, 8629, Note_on_c, 2, 76, 0
3, 8658, Note_on_c, 2, 78, 0
3, 8659, Note_on_c, 2, 71, 90
3, 8659, Note_on_c, 2, 79, 90
3, 8665, Note_on_c, 2, 69, 0
3, 8688, Note_on_c, 2, 81, 90
3, 8689, Note_on_c, 2, 79, 0
3, 8689, Note_on_c, 2, 72, 90
3, 8690, Note_on_c, 2, 71, 0
3, 8717, Note_on_c, 2, 83, 90
3, 8718, Note_on_c, 2, 74, 90
3, 8719, Note_on_c, 2, 81, 0
3, 8719, Note_on_c, 2, 72, 0
3, 8747, Note_on_c, 2, 83, 0
3, 8747, Note_on_c, 2, 76, 90
3, 8747, Note_on_c, 2, 84, 90
3, 8752, Note_on_c, 2, 74, 0
3, 8775, Note_on_c, 2, 76, 0
3, 8775, Note_on_c, 2, 72, 90
3, 8775, Note_on_c, 2, 78, 90
3, 8778, Note_on_c, 2, 67, 0
3, 8806, Note_on_c, 2, 72, 0
3, 8806, Note_on_c, 2, 78, 0
3, 8809, Note_on_c, 2, 79, 90
3, 8810, Note_on_c, 2, 74, 90
3, 8810, Note_on_c, 2, 67, 90
3, 8811, Note_on_c, 2, 84, 0
3, 8841, Note_on_c, 2, 84, 90
3, 8872, Note_on_c, 2, 83, 90
3, 8873, Note_on_c, 2, 84, 0
3, 8901, Note_on_c, 2, 83, 0
3, 8901, Note_on_c, 2, 81, 90
3, 8929, Note_on_c, 2, 81, 0
3, 8930, Note_on_c, 2, 83, 90
3, 8957, Note_on_c, 2, 83, 0
3, 8958, Note_on_c, 2, 84, 90
3, 8961, Note_on_c, 2, 79, 0
3, 8967, Note_on_c, 2, 84, 0
3, 8989, Note_on_c, 2, 86, 90
3, 8989, Note_on_c, 2, 83, 90
3, 9018, Note_on_c, 2, 86, 0
3, 9018, Note_on_c, 2, 84, 90
3, 9019, Note_on_c, 2, 74, 0
3, 9019, Note_on_c, 2, 69, 90
3, 9045, Note_on_c, 2, 71, 90
3, 9046, Note_on_c, 2, 69, 0
3, 9048, Note_on_c, 2, 86, 90
3, 9049, Note_on_c, 2, 84, 0
3, 9050, Note_on_c, 2, 67, 0
3, 9076, Note_on_c, 2, 88, 90
3, 9076, Note_on_c, 2, 72, 90
3, 9077, Note_on_c, 2, 71, 0
3, 9077, Note_on_c, 2, 86, 0
3, 9085, Note_on_c, 2, 88, 0
3, 9106, Note_on_c, 2, 72, 0
3, 9106, Note_on_c, 2, 90, 90
3, 9106, Note_on_c, 2, 74, 90
3, 9132, Note_on_c, 2, 76, 90
3, 9133, Note_on_c, 2, 74, 0
3, 9133, Note_on_c, 2, 91, 90
3, 9134, Note_on_c, 2, 90, 0
3, 9138, Note_on_c, 2, 83, 0
3, 9142, Note_on_c, 2, 76, 0
3, 9150, Note_on_c, 2, 91, 0
3, 9164, Note_on_c, 2, 91, 90
3, 9165, Note_on_c, 2, 72, 90
3, 9165, Note_on_c, 2, 81, 90
3, 9195, Note_on_c, 2, 72, 0
3, 9196, Note_on_c, 2, 76, 90
3, 9217, Note_on_c, 2, 91, 0
3, 9225, Note_on_c, 2, 84, 90
3, 9225, Note_on_c, 2, 69, 90
3, 9226, Note_on_c, 2, 76, 0
3, 9253, Note_on_c, 2, 72, 90
3, 9255, Note_on_c, 2, 69, 0
3, 9260, Note_on_c, 2, 84, 0
3, 9283, Note_on_c, 2, 89, 90
3, 9285, Note_on_c, 2, 72, 0
3, 9285, Note_on_c, 2, 71, 90
3, 9314, Note_on_c, 2, 71, 0
3, 9314, Note_on_c, 2, 69, 90
3, 9346, Note_on_c, 2, 71, 90
3, 9347, Note_on_c, 2, 69, 0
3, 9374, Note_on_c, 2, 81, 0
3, 9380, Note_on_c, 2, 71, 0
3, 9381, Note_on_c, 2, 74, 90
3, 9409, Note_on_c, 2, 67, 90
3, 9411, Note_on_c, 2, 83, 90
3, 9412, Note_on_c, 2, 89, 0
3, 9412, Note_on_c, 2, 74, 0
3, 9439, Note_on_c, 2, 71, 90
3, 9442, Note_on_c, 2, 67, 0
3, 9468, Note_on_c, 2, 83, 0
3, 9469, Note_on_c, 2, 88, 90
3, 9471, Note_on_c, 2, 71, 0
3, 9471, Note_on_c, 2, 69, 90
3, 9501, Note_on_c, 2, 67, 90
3, 9502, Note_on_c, 2, 69, 0
3, 9529, Note_on_c, 2, 67, 0
3, 9530, Note_on_c, 2, 69, 90
3, 9533, Note_on_c, 2, 88, 0
3, 9561, Note_on_c, 2, 91, 90
3, 9593, Note_on_c, 2, 72, 90
3, 9594, Note_on_c, 2, 89, 90
3, 9595, Note_on_c, 2, 91, 0
3, 9623, Note_on_c, 2, 89, 0
3, 9623, Note_on_c, 2, 88, 90
3, 9650, Note_on_c, 2, 88, 0
3, 9652, Note_on_c, 2, 77, 90
3, 9652, Note_on_c, 2, 86, 90
3, 9653, Note_on_c, 2, 72, 0
3, 9677, Note_on_c, 2, 69, 0
3, 9681, Note_on_c, 2, 86, 0
3, 9681, Note_on_c, 2, 84, 90
3, 9709, Note_on_c, 2, 84, 0
3, 9710, Note_on_c, 2, 83, 90
3, 9710, Note_on_c, 2, 67, 90
3, 9739, Note_on_c, 2, 77, 0
3, 9741, Note_on_c, 2, 83, 0
3, 9741, Note_on_c, 2, 81, 90
3, 9770, Note_on_c, 2, 81, 0
3, 9770, Note_on_c, 2, 79, 90
3, 9770, Note_on_c, 2, 71, 90
3, 9797, Note_on_c, 2, 79, 0
3, 9798, Note_on_c, 2, 77, 90
3, 9799, Note_on_c, 2, 74, 90
3, 9800, Note_on_c, 2, 71, 0
3, 9827, Note_on_c, 2, 77, 0
3, 9828, Note_on_c, 2, 74, 0
3, 9828, Note_on_c, 2, 72, 90
3, 9829, Note_on_c, 2, 76, 90
3, 9852, Note_on_c, 2, 72, 0
3, 9855, Note_on_c, 2, 71, 90
3, 9855, Note_on_c, 2, 74, 90
3, 9856, Note_on_c, 2, 76, 0
3, 9875, Note_on_c, 2, 74, 0
3, 9887, Note_on_c, 2, 71, 0
3, 9889, Note_on_c, 2, 72, 90
3, 9889, Note_on_c, 2, 76, 90
3, 9892, Note_on_c, 2, 67, 0
3, 9920, Note_on_c, 2, 64, 90
3, 9921, Note_on_c, 2, 79, 90
3, 9922, Note_on_c, 2, 76, 0
3, 9950, Note_on_c, 2, 65, 90
3, 9951, Note_on_c, 2, 79, 0
3, 9951, Note_on_c, 2, 81, 90
3, 9954, Note_on_c, 2, 64, 0
3, 9977, Note_on_c, 2, 67, 90
3, 9978, Note_on_c, 2, 81, 0
3, 9979, Note_on_c, 2, 83, 90
3, 9981, Note_on_c, 2, 65, 0
3, 10000, Note_on_c, 2, 67, 0
3, 10006, Note_on_c, 2, 69, 90
3, 10008, Note_on_c, 2, 84, 90
3, 10009, Note_on_c, 2, 83, 0
3, 10018, Note_on_c, 2, 72, 0
3, 10036, Note_on_c, 2, 76, 90
3, 10053, Note_on_c, 2, 76, 0
3, 10068, Note_on_c, 2, 77, 90
3, 10072, Note_on_c, 2, 84, 0
3, 10096, Note_on_c, 2, 84, 90
3, 10109, Note_on_c, 2, 69, 0
3, 10128, Note_on_c, 2, 83, 90
3, 10129, Note_on_c, 2, 84, 0
3, 10129, Note_on_c, 2, 67, 90
3, 10157, Note_on_c, 2, 81, 90
3, 10158, Note_on_c, 2, 83, 0
3, 10186, Note_on_c, 2, 81, 0
3, 10186, Note_on_c, 2, 83, 90
3, 10187, Note_on_c, 2, 65, 90
3, 10189, Note_on_c, 2, 67, 0
3, 10190, Note_on_c, 2, 77, 0
3, 10216, Note_on_c, 2, 77, 90
3, 10248, Note_on_c, 2, 83, 0
3, 10248, Note_on_c, 2, 84, 90
3, 10249, Note_on_c, 2, 67, 90
3, 10250, Note_on_c, 2, 65, 0
3, 10254, Note_on_c, 2, 77, 0
3, 10278, Note_on_c, 2, 77, 90
3, 10308, Note_on_c, 2, 77, 0
3, 10308, Note_on_c, 2, 76, 90
3, 10337, Note_on_c, 2, 74, 90
3, 10338, Note_on_c, 2, 76, 0
3, 10364, Note_on_c, 2, 74, 0
3, 10365, Note_on_c, 2, 76, 90
3, 10396, Note_on_c, 2, 67, 0
3, 10396, Note_on_c, 2, 69, 90
3, 10426, Note_on_c, 2, 69, 0
3, 10427, Note_on_c, 2, 70, 90
3, 10457, Note_on_c, 2, 79, 90
3, 10458, Note_on_c, 2, 76, 0
3, 10485, Note_on_c, 2, 77, 90
3, 10489, Note_on_c, 2, 79, 0
3, 10515, Note_on_c, 2, 76, 90
3, 10516, Note_on_c, 2, 77, 0
3, 10544, Note_on_c, 2, 74, 90
3, 10547, Note_on_c, 2, 76, 0
3, 10563, Note_on_c, 2, 74, 0
3, 10574, Note_on_c, 2, 72, 90
3, 10592, Note_on_c, 2, 72, 0
3, 10606, Note_on_c, 2, 77, 90
3, 10608, Note_on_c, 2, 70, 0
3, 10636, Note_on_c, 2, 70, 90
3, 10664, Note_on_c, 2, 69, 90
3, 10665, Note_on_c, 2, 70, 0
3, 10693, Note_on_c, 2, 67, 90
3, 10695, Note_on_c, 2, 69, 0
3, 10723, Note_on_c, 2, 67, 0
3, 10723, Note_on_c, 2, 69, 90
3, 10754, Note_on_c, 2, 71, 90
3, 10755, Note_on_c, 2, 69, 0
3, 10768, Note_on_c, 2, 71, 0
3, 10784, Note_on_c, 2, 72, 90
3, 10794, Note_on_c, 2, 77, 0
3, 10817, Note_on_c, 2, 81, 90
3, 10848, Note_on_c, 2, 79, 90
3, 10850, Note_on_c, 2, 81, 0
3, 10876, Note_on_c, 2, 77, 90
3, 10877, Note_on_c, 2, 79, 0
3, 10907, Note_on_c, 2, 76, 90
3, 10910, Note_on_c, 2, 77, 0
3, 10919, Note_on_c, 2, 76, 0
3, 10934, Note_on_c, 2, 74, 90
3, 10944, Note_on_c, 2, 74, 0
3, 10966, Note_on_c, 2, 76, 90
3, 10971, Note_on_c, 2, 72, 0
3, 11000, Note_on_c, 2, 74, 90
3, 11031, Note_on_c, 2, 74, 0
3, 11031, Note_on_c, 2, 77, 90
3, 11031, Note_on_c, 2, 72, 90
3, 11033, Note_on_c, 2, 76, 0
3, 11059, Note_on_c, 2, 70, 90
3, 11060, Note_on_c, 2, 72, 0
3, 11087, Note_on_c, 2, 70, 0
3, 11088, Note_on_c, 2, 79, 90
3, 11089, Note_on_c, 2, 77, 0
3, 11089, Note_on_c, 2, 69, 90
3, 11117, Note_on_c, 2, 69, 0
3, 11117, Note_on_c, 2, 67, 90
3, 11146, Note_on_c, 2, 67, 0
3, 11146, Note_on_c, 2, 65, 90
3, 11147, Note_on_c, 2, 79, 0
3, 11147, Note_on_c, 2, 81, 90
3, 11150, Note_on_c, 2, 84, 0
3, 11176, Note_on_c, 2, 65, 0
3, 11177, Note_on_c, 2, 84, 90
3, 11177, Note_on_c, 2, 67, 90
3, 11206, Note_on_c, 2, 86, 90
3, 11207, Note_on_c, 2, 65, 90
3, 11208, Note_on_c, 2, 84, 0
3, 11210, Note_on_c, 2, 67, 0
3, 11234, Note_on_c, 2, 65, 0
3, 11234, Note_on_c, 2, 64, 90
3, 11235, Note_on_c, 2, 88, 90
3, 11236, Note_on_c, 2, 86, 0
3, 11263, Note_on_c, 2, 89, 90
3, 11264, Note_on_c, 2, 64, 0
3, 11264, Note_on_c, 2, 62, 90
3, 11266, Note_on_c, 2, 88, 0
3, 11293, Note_on_c, 2, 83, 90
3, 11293, Note_on_c, 2, 67, 90
3, 11294, Note_on_c, 2, 81, 0
3, 11294, Note_on_c, 2, 62, 0
3, 11328, Note_on_c, 2, 84, 90
3, 11328, Note_on_c, 2, 60, 90
3, 11329, Note_on_c, 2, 83, 0
3, 11330, Note_on_c, 2, 67, 0
3, 11333, Note_on_c, 2, 89, 0
3, 11363, Note_on_c, 2, 93, 90
3, 11380, Note_on_c, 2, 60, 0
3, 11389, Note_on_c, 2, 93, 0
3, 11390, Note_on_c, 2, 91, 90
3, 11392, Note_on_c, 2, 64, 90
3, 11421, Note_on_c, 2, 89, 90
3, 11422, Note_on_c, 2, 84, 0
3, 11423, Note_on_c, 2, 91, 0
3, 11429, Note_on_c, 2, 64, 0
3, 11451, Note_on_c, 2, 89, 0
3, 11451, Note_on_c, 2, 88, 90
3, 11452, Note_on_c, 2, 67, 90
3, 11480, Note_on_c, 2, 86, 90
3, 11481, Note_on_c, 2, 88, 0
3, 11483, Note_on_c, 2, 67, 0
3, 11508, Note_on_c, 2, 86, 0
3, 11512, Note_on_c, 2, 88, 90
3, 11513, Note_on_c, 2, 72, 90
3, 11542, Note_on_c, 2, 91, 90
3, 11545, Note_on_c, 2, 88, 0
3, 11575, Note_on_c, 2, 89, 90
3, 11576, Note_on_c, 2, 91, 0
3, 11606, Note_on_c, 2, 88, 90
3, 11608, Note_on_c, 2, 89, 0
3, 11635, Note_on_c, 2, 86, 90
3, 11636, Note_on_c, 2, 88, 0
3, 11661, Note_on_c, 2, 84, 90
3, 11663, Note_on_c, 2, 86, 0
3, 11676, Note_on_c, 2, 84, 0
3, 11693, Note_on_c, 2, 86, 90
3, 11701, Note_on_c, 2, 72, 0
3, 11724, Note_on_c, 2, 72, 90
3, 11755, Note_on_c, 2, 72, 0
3, 11755, Note_on_c, 2, 71, 90
3, 11755, Note_on_c, 2, 74, 90
3, 11781, Note_on_c, 2, 71, 0
3, 11783, Note_on_c, 2, 69, 90
3, 11788, Note_on_c, 2, 74, 0
3, 11814, Note_on_c, 2, 79, 90
3, 11816, Note_on_c, 2, 86, 0
3, 11816, Note_on_c, 2, 69, 0
3, 11816, Note_on_c, 2, 71, 90
3, 11843, Note_on_c, 2, 86, 90
3, 11850, Note_on_c, 2, 71, 0
3, 11877, Note_on_c, 2, 72, 90
3, 11877, Note_on_c, 2, 84, 90
3, 11883, Note_on_c, 2, 79, 0
3, 11883, Note_on_c, 2, 86, 0
3, 11906, Note_on_c, 2, 79, 90
3, 11935, Note_on_c, 2, 77, 90
3, 11936, Note_on_c, 2, 79, 0
3, 11962, Note_on_c, 2, 77, 0
3, 11964, Note_on_c, 2, 76, 90
3, 11993, Note_on_c, 2, 76, 0
3, 11995, Note_on_c, 2, 77, 90
3, 12053, Note_on_c, 2, 84, 0
3, 12057, Note_on_c, 2, 79, 90
3, 12063, Note_on_c, 2, 77, 0
3, 12086, Note_on_c, 2, 77, 90
3, 12113, Note_on_c, 2, 76, 90
3, 12118, Note_on_c, 2, 77, 0
3, 12134, Note_on_c, 2, 76, 0
3, 12141, Note_on_c, 2, 74, 90
3, 12156, Note_on_c, 2, 74, 0
3, 12170, Note_on_c, 2, 76, 90
3, 12177, Note_on_c, 2, 79, 0
3, 12199, Note_on_c, 2, 76, 0
3, 12199, Note_on_c, 2, 81, 90
3, 12233, Note_on_c, 2, 81, 0
3, 12234, Note_on_c, 2, 83, 90
3, 12234, Note_on_c, 2, 77, 90
3, 12237, Note_on_c, 2, 72, 0
3, 12264, Note_on_c, 2, 76, 90
3, 12294, Note_on_c, 2, 74, 90
3, 12295, Note_on_c, 2, 76, 0
3, 12323, Note_on_c, 2, 74, 0
3, 12323, Note_on_c, 2, 72, 90
3, 12352, Note_on_c, 2, 72, 0
3, 12353, Note_on_c, 2, 71, 90
3, 12377, Note_on_c, 2, 77, 0
3, 12380, Note_on_c, 2, 71, 0
3, 12380, Note_on_c, 2, 69, 90
3, 12406, Note_on_c, 2, 69, 0
3, 12409, Note_on_c, 2, 83, 0
3, 12411, Note_on_c, 2, 79, 90
3, 12415, Note_on_c, 2, 67, 90
3, 12441, Note_on_c, 2, 83, 90
3, 12468, Note_on_c, 2, 85, 90
3, 12470, Note_on_c, 2, 69, 90
3, 12471, Note_on_c, 2, 67, 0
3, 12471, Note_on_c, 2, 83, 0
3, 12496, Note_on_c, 2, 86, 90
3, 12498, Note_on_c, 2, 85, 0
3, 12523, Note_on_c, 2, 88, 90
3, 12526, Note_on_c, 2, 69, 0
3, 12526, Note_on_c, 2, 86, 0
3, 12526, Note_on_c, 2, 70, 90
3, 12550, Note_on_c, 2, 89, 90
3, 12556, Note_on_c, 2, 88, 0
3, 12556, Note_on_c, 2, 70, 0
3, 12569, Note_on_c, 2, 89, 0
3, 12579, Note_on_c, 2, 69, 90
3, 12582, Note_on_c, 2, 85, 90
3, 12611, Note_on_c, 2, 79, 0
3, 12612, Note_on_c, 2, 82, 90
3, 12638, Note_on_c, 2, 70, 90
3, 12640, Note_on_c, 2, 69, 0
3, 12641, Note_on_c, 2, 82, 0
3, 12641, Note_on_c, 2, 81, 90
3, 12668, Note_on_c, 2, 79, 90
3, 12670, Note_on_c, 2, 81, 0
3, 12682, Note_on_c, 2, 70, 0
3, 12697, Note_on_c, 2, 67, 90
3, 12700, Note_on_c, 2, 79, 0
3, 12701, Note_on_c, 2, 78, 90
3, 12724, Note_on_c, 2, 67, 0
3, 12730, Note_on_c, 2, 78, 0
3, 12731, Note_on_c, 2, 79, 90
3, 12758, Note_on_c, 2, 69, 90
3, 12759, Note_on_c, 2, 85, 0
3, 12759, Note_on_c, 2, 86, 90
3, 12767, Note_on_c, 2, 79, 0
3, 12789, Note_on_c, 2, 79, 90
3, 12819, Note_on_c, 2, 78, 90
3, 12820, Note_on_c, 2, 79, 0
3, 12848, Note_on_c, 2, 76, 90
3, 12849, Note_on_c, 2, 78, 0
3, 12877, Note_on_c, 2, 78, 90
3, 12879, Note_on_c, 2, 76, 0
3, 12903, Note_on_c, 2, 84, 90
3, 12904, Note_on_c, 2, 86, 0
3, 12914, Note_on_c, 2, 78, 0
3, 12935, Note_on_c, 2, 84, 0
3, 12936, Note_on_c, 2, 69, 0
3, 12936, Note_on_c, 2, 82, 90
3, 12962, Note_on_c, 2, 66, 90
3, 12964, Note_on_c, 2, 74, 90
3, 12990, Note_on_c, 2, 66, 0
3, 12990, Note_on_c, 2, 67, 90
3, 12993, Note_on_c, 2, 76, 90
3, 12995, Note_on_c, 2, 74, 0
3, 13017, Note_on_c, 2, 69, 90
3, 13018, Note_on_c, 2, 67, 0
3, 13019, Note_on_c, 2, 76, 0
3, 13021, Note_on_c, 2, 78, 90
3, 13043, Note_on_c, 2, 77, 90
3, 13048, Note_on_c, 2, 77, 0
3, 13049, Note_on_c, 2, 70, 90
3, 13050, Note_on_c, 2, 78, 0
3, 13052, Note_on_c, 2, 79, 90
3, 13053, Note_on_c, 2, 69, 0
3, 13077, Note_on_c, 2, 70, 0
3, 13078, Note_on_c, 2, 72, 90
3, 13106, Note_on_c, 2, 82, 0
3, 13108, Note_on_c, 2, 72, 0
3, 13108, Note_on_c, 2, 74, 90
3, 13114, Note_on_c, 2, 81, 90
3, 13116, Note_on_c, 2, 79, 0
3, 13147, Note_on_c, 2, 79, 90
3, 13178, Note_on_c, 2, 78, 90
3, 13179, Note_on_c, 2, 79, 0
3, 13205, Note_on_c, 2, 78, 0
3, 13206, Note_on_c, 2, 76, 90
3, 13238, Note_on_c, 2, 78, 90
3, 13240, Note_on_c, 2, 81, 0
3, 13244, Note_on_c, 2, 76, 0
3, 13269, Note_on_c, 2, 82, 90
3, 13287, Note_on_c, 2, 82, 0
3, 13303, Note_on_c, 2, 84, 90
3, 13311, Note_on_c, 2, 74, 0
3, 13329, Note_on_c, 2, 75, 90
3, 13360, Note_on_c, 2, 75, 0
3, 13361, Note_on_c, 2, 74, 90
3, 13371, Note_on_c, 2, 84, 0
3, 13371, Note_on_c, 2, 81, 90
3, 13389, Note_on_c, 2, 72, 90
3, 13390, Note_on_c, 2, 74, 0
3, 13397, Note_on_c, 2, 81, 0
3, 13422, Note_on_c, 2, 70, 90
3, 13423, Note_on_c, 2, 72, 0
3, 13428, Note_on_c, 2, 86, 90
3, 13452, Note_on_c, 2, 69, 90
3, 13453, Note_on_c, 2, 86, 0
3, 13455, Note_on_c, 2, 70, 0
3, 13464, Note_on_c, 2, 69, 0
3, 13485, Note_on_c, 2, 67, 90
3, 13490, Note_on_c, 2, 82, 90
3, 13517, Note_on_c, 2, 67, 0
3, 13517, Note_on_c, 2, 69, 90
3, 13548, Note_on_c, 2, 67, 90
3, 13549, Note_on_c, 2, 69, 0
3, 13553, Note_on_c, 2, 74, 90
3, 13559, Note_on_c, 2, 78, 0
3, 13572, Note_on_c, 2, 74, 0
3, 13577, Note_on_c, 2, 67, 0
3, 13578, Note_on_c, 2, 65, 90
3, 13608, Note_on_c, 2, 65, 0
3, 13609, Note_on_c, 2, 64, 90
3, 13612, Note_on_c, 2, 79, 90
3, 13639, Note_on_c, 2, 62, 90
3, 13640, Note_on_c, 2, 64, 0
3, 13652, Note_on_c, 2, 62, 0
3, 13673, Note_on_c, 2, 82, 0
3, 13673, Note_on_c, 2, 61, 90
3, 13674, Note_on_c, 2, 79, 0
3, 13674, Note_on_c, 2, 76, 90
3, 13705, Note_on_c, 2, 82, 90
3, 13729, Note_on_c, 2, 82, 0
3, 13734, Note_on_c, 2, 81, 90
3, 13763, Note_on_c, 2, 79, 90
3, 13767, Note_on_c, 2, 81, 0
3, 13791, Note_on_c, 2, 78, 90
3, 13792, Note_on_c, 2, 79, 0
3, 13820, Note_on_c, 2, 79, 90
3, 13821, Note_on_c, 2, 78, 0
3, 13836, Note_on_c, 2, 61, 0
3, 13843, Note_on_c, 2, 79, 0
3, 13848, Note_on_c, 2, 62, 90
3, 13854, Note_on_c, 2, 78, 90
3, 13860, Note_on_c, 2, 76, 0
3, 13885, Note_on_c, 2, 76, 90
3, 13914, Note_on_c, 2, 76, 0
3, 13915, Note_on_c, 2, 74, 90
3, 13945, Note_on_c, 2, 72, 90
3, 13947, Note_on_c, 2, 74, 0
3, 13958, Note_on_c, 2, 72, 0
3, 13974, Note_on_c, 2, 71, 90
3, 13988, Note_on_c, 2, 71, 0
3, 14003, Note_on_c, 2, 69, 90
3, 14016, Note_on_c, 2, 69, 0
3, 14034, Note_on_c, 2, 62, 0
3, 14036, Note_on_c, 2, 71, 90
3, 14042, Note_on_c, 2, 78, 0
3, 14067, Note_on_c, 2, 74, 90
3, 14087, Note_on_c, 2, 74, 0
3, 14095, Note_on_c, 2, 79, 90
3, 14110, Note_on_c, 2, 71, 0
3, 14122, Note_on_c, 2, 71, 90
3, 14133, Note_on_c, 2, 71, 0
3, 14152, Note_on_c, 2, 69, 90
3, 14182, Note_on_c, 2, 78, 90
3, 14184, Note_on_c, 2, 79, 0
3, 14190, Note_on_c, 2, 69, 0
3, 14195, Note_on_c, 2, 78, 0
3, 14217, Note_on_c, 2, 79, 90
3, 14218, Note_on_c, 2, 67, 90
3, 14251, Note_on_c, 2, 55, 90
3, 14279, Note_on_c, 2, 57, 90
3, 14283, Note_on_c, 2, 55, 0
3, 14310, Note_on_c, 2, 59, 90
3, 14311, Note_on_c, 2, 57, 0
3, 14339, Note_on_c, 2, 60, 90
3, 14341, Note_on_c, 2, 59, 0
3, 14367, Note_on_c, 2, 62, 90
3, 14368, Note_on_c, 2, 67, 0
3, 14369, Note_on_c, 2, 60, 0
3, 14372, Note_on_c, 2, 79, 0
3, 14397, Note_on_c, 2, 62, 0
3, 14399, Note_on_c, 2, 64, 90
3, 14428, Note_on_c, 2, 81, 90
3, 14459, Note_on_c, 2, 79, 90
3, 14462, Note_on_c, 2, 81, 0
3, 14487, Note_on_c, 2, 77, 90
3, 14488, Note_on_c, 2, 79, 0
3, 14518, Note_on_c, 2, 76, 90
3, 14519, Note_on_c, 2, 77, 0
3, 14545, Note_on_c, 2, 74, 90
3, 14548, Note_on_c, 2, 76, 0
3, 14555, Note_on_c, 2, 74, 0
3, 14575, Note_on_c, 2, 72, 90
3, 14585, Note_on_c, 2, 64, 0
3, 14605, Note_on_c, 2, 83, 90
3, 14635, Note_on_c, 2, 62, 90
3, 14636, Note_on_c, 2, 83, 0
3, 14636, Note_on_c, 2, 84, 90
3, 14664, Note_on_c, 2, 84, 0
3, 14664, Note_on_c, 2, 86, 90
3, 14668, Note_on_c, 2, 62, 0
3, 14695, Note_on_c, 2, 88, 90
3, 14696, Note_on_c, 2, 86, 0
3, 14696, Note_on_c, 2, 60, 90
3, 14719, Note_on_c, 2, 60, 0
3, 14725, Note_on_c, 2, 88, 0
3, 14725, Note_on_c, 2, 90, 90
3, 14752, Note_on_c, 2, 62, 90
3, 14753, Note_on_c, 2, 90, 0
3, 14753, Note_on_c, 2, 91, 90
3, 14758, Note_on_c, 2, 72, 0
3, 14782, Note_on_c, 2, 72, 90
3, 14802, Note_on_c, 2, 91, 0
3, 14813, Note_on_c, 2, 71, 90
3, 14814, Note_on_c, 2, 72, 0
3, 14814, Note_on_c, 2, 86, 90
3, 14842, Note_on_c, 2, 69, 90
3, 14843, Note_on_c, 2, 71, 0
3, 14850, Note_on_c, 2, 86, 0
3, 14873, Note_on_c, 2, 69, 0
3, 14873, Note_on_c, 2, 71, 90
3, 14874, Note_on_c, 2, 91, 90
3, 14902, Note_on_c, 2, 72, 90
3, 14905, Note_on_c, 2, 71, 0
3, 14916, Note_on_c, 2, 72, 0
3, 14924, Note_on_c, 2, 62, 0
3, 14935, Note_on_c, 2, 74, 90
3, 14936, Note_on_c, 2, 67, 90
3, 14965, Note_on_c, 2, 91, 0
3, 14966, Note_on_c, 2, 89, 90
3, 14994, Note_on_c, 2, 88, 90
3, 14997, Note_on_c, 2, 89, 0
3, 15023, Note_on_c, 2, 88, 0
3, 15024, Note_on_c, 2, 86, 90
3, 15055, Note_on_c, 2, 86, 0
3, 15055, Note_on_c, 2, 85, 90
3, 15082, Note_on_c, 2, 85, 0
3, 15083, Note_on_c, 2, 86, 90
3, 15087, Note_on_c, 2, 74, 0
3, 15110, Note_on_c, 2, 86, 0
3, 15112, Note_on_c, 2, 88, 90
3, 15138, Note_on_c, 2, 88, 0
3, 15139, Note_on_c, 2, 89, 90
3, 15141, Note_on_c, 2, 70, 90
3, 15145, Note_on_c, 2, 67, 0
3, 15166, Note_on_c, 2, 89, 0
3, 15168, Note_on_c, 2, 91, 90
3, 15168, Note_on_c, 2, 69, 90
3, 15169, Note_on_c, 2, 70, 0
3, 15180, Note_on_c, 2, 91, 0
3, 15196, Note_on_c, 2, 67, 90
3, 15197, Note_on_c, 2, 69, 0
3, 15197, Note_on_c, 2, 94, 90
3, 15222, Note_on_c, 2, 94, 0
3, 15226, Note_on_c, 2, 93, 90
3, 15227, Note_on_c, 2, 65, 90
3, 15229, Note_on_c, 2, 67, 0
3, 15254, Note_on_c, 2, 64, 90
3, 15256, Note_on_c, 2, 91, 90
3, 15259, Note_on_c, 2, 93, 0
3, 15259, Note_on_c, 2, 65, 0
3, 15269, Note_on_c, 2, 64, 0
3, 15272, Note_on_c, 2, 91, 0
3, 15285, Note_on_c, 2, 89, 90
3, 15287, Note_on_c, 2, 62, 90
3, 15315, Note_on_c, 2, 88, 90
3, 15338, Note_on_c, 2, 62, 0
3, 15346, Note_on_c, 2, 69, 90
3, 15346, Note_on_c, 2, 86, 90
3, 15347, Note_on_c, 2, 88, 0
3, 15374, Note_on_c, 2, 86, 0
3, 15374, Note_on_c, 2, 84, 90
3, 15379, Note_on_c, 2, 69, 0
3, 15402, Note_on_c, 2, 84, 0
3, 15406, Note_on_c, 2, 82, 90
3, 15407, Note_on_c, 2, 74, 90
3, 15431, Note_on_c, 2, 81, 90
3, 15432, Note_on_c, 2, 82, 0
3, 15439, Note_on_c, 2, 81, 0
3, 15463, Note_on_c, 2, 74, 0
3, 15464, Note_on_c, 2, 82, 90
3, 15465, Note_on_c, 2, 89, 0
3, 15466, Note_on_c, 2, 67, 90
3, 15500, Note_on_c, 2, 89, 90
3, 15522, Note_on_c, 2, 67, 0
3, 15530, Note_on_c, 2, 88, 90
3, 15531, Note_on_c, 2, 89, 0
3, 15559, Note_on_c, 2, 79, 90
3, 15560, Note_on_c, 2, 86, 90
3, 15562, Note_on_c, 2, 88, 0
3, 15591, Note_on_c, 2, 88, 90
3, 15592, Note_on_c, 2, 86, 0
3, 15592, Note_on_c, 2, 77, 90
3, 15594, Note_on_c, 2, 79, 0
3, 15620, Note_on_c, 2, 77, 0
3, 15621, Note_on_c, 2, 76, 90
3, 15644, Note_on_c, 2, 82, 0
3, 15644, Note_on_c, 2, 88, 0
3, 15649, Note_on_c, 2, 76, 0
3, 15650, Note_on_c, 2, 81, 90
3, 15651, Note_on_c, 2, 77, 90
3, 15684, Note_on_c, 2, 91, 90
3, 15685, Note_on_c, 2, 76, 90
3, 15688, Note_on_c, 2, 77, 0
3, 15713, Note_on_c, 2, 91, 0
3, 15713, Note_on_c, 2, 89, 90
3, 15713, Note_on_c, 2, 74, 90
3, 15715, Note_on_c, 2, 76, 0
3, 15743, Note_on_c, 2, 88, 90
3, 15743, Note_on_c, 2, 76, 90
3, 15744, Note_on_c, 2, 89, 0
3, 15745, Note_on_c, 2, 74, 0
3, 15772, Note_on_c, 2, 76, 0
3, 15772, Note_on_c, 2, 77, 90
3, 15774, Note_on_c, 2, 88, 0
3, 15774, Note_on_c, 2, 86, 90
3, 15802, Note_on_c, 2, 84, 90
3, 15804, Note_on_c, 2, 86, 0
3, 15807, Note_on_c, 2, 81, 0
3, 15812, Note_on_c, 2, 84, 0
3, 15831, Note_on_c, 2, 83, 90
3, 15832, Note_on_c, 2, 79, 90
3, 15860, Note_on_c, 2, 86, 90
3, 15863, Note_on_c, 2, 83, 0
3, 15888, Note_on_c, 2, 86, 0
3, 15890, Note_on_c, 2, 88, 90
3, 15891, Note_on_c, 2, 76, 90
3, 15893, Note_on_c, 2, 79, 0
3, 15897, Note_on_c, 2, 77, 0
3, 15916, Note_on_c, 2, 89, 90
3, 15917, Note_on_c, 2, 88, 0
3, 15917, Note_on_c, 2, 81, 90
3, 15930, Note_on_c, 2, 81, 0
3, 15944, Note_on_c, 2, 89, 0
3, 15946, Note_on_c, 2, 83, 90
3, 15948, Note_on_c, 2, 91, 90
3, 15974, Note_on_c, 2, 83, 0
3, 15975, Note_on_c, 2, 85, 90
3, 15979, Note_on_c, 2, 76, 0
3, 15993, Note_on_c, 2, 91, 0
3, 15993, Note_on_c, 2, 85, 0
3, 16007, Note_on_c, 2, 86, 90
3, 16009, Note_on_c, 2, 74, 90
3, 16038, Note_on_c, 2, 74, 0
3, 16039, Note_on_c, 2, 73, 90
3, 16040, Note_on_c, 2, 94, 90
3, 16057, Note_on_c, 2, 94, 0
3, 16068, Note_on_c, 2, 93, 90
3, 16069, Note_on_c, 2, 73, 0
3, 16069, Note_on_c, 2, 74, 90
3, 16096, Note_on_c, 2, 93, 0
3, 16096, Note_on_c, 2, 91, 90
3, 16098, Note_on_c, 2, 74, 0
3, 16098, Note_on_c, 2, 76, 90
3, 16126, Note_on_c, 2, 91, 0
3, 16126, Note_on_c, 2, 89, 90
3, 16127, Note_on_c, 2, 77, 90
3, 16128, Note_on_c, 2, 76, 0
3, 16147, Note_on_c, 2, 86, 0
3, 16156, Note_on_c, 2, 79, 90
3, 16156, Note_on_c, 2, 88, 90
3, 16158, Note_on_c, 2, 89, 0
3, 16158, Note_on_c, 2, 77, 0
3, 16164, Note_on_c, 2, 88, 0
3, 16185, Note_on_c, 2, 89, 90
3, 16186, Note_on_c, 2, 81, 90
3, 16189, Note_on_c, 2, 79, 0
3, 16215, Note_on_c, 2, 88, 90
3, 16216, Note_on_c, 2, 79, 90
3, 16218, Note_on_c, 2, 81, 0
3, 16242, Note_on_c, 2, 88, 0
3, 16244, Note_on_c, 2, 77, 90
3, 16244, Note_on_c, 2, 86, 90
3, 16245, Note_on_c, 2, 79, 0
3, 16272, Note_on_c, 2, 77, 0
3, 16272, Note_on_c, 2, 86, 0
3, 16273, Note_on_c, 2, 84, 90
3, 16273, Note_on_c, 2, 76, 90
3, 16301, Note_on_c, 2, 74, 90
3, 16302, Note_on_c, 2, 84, 0
3, 16302, Note_on_c, 2, 76, 0
3, 16302, Note_on_c, 2, 83, 90
3, 16328, Note_on_c, 2, 72, 90
3, 16329, Note_on_c, 2, 81, 90
3, 16331, Note_on_c, 2, 74, 0
3, 16331, Note_on_c, 2, 83, 0
3, 16335, Note_on_c, 2, 72, 0
3, 16361, Note_on_c, 2, 71, 90
3, 16362, Note_on_c, 2, 79, 90
3, 16363, Note_on_c, 2, 81, 0
3, 16369, Note_on_c, 2, 89, 0
3, 16390, Note_on_c, 2, 91, 90
3, 16391, Note_on_c, 2, 69, 90
3, 16393, Note_on_c, 2, 71, 0
3, 16420, Note_on_c, 2, 69, 0
3, 16421, Note_on_c, 2, 71, 90
3, 16421, Note_on_c, 2, 89, 90
3, 16422, Note_on_c, 2, 91, 0
3, 16451, Note_on_c, 2, 72, 90
3, 16451, Note_on_c, 2, 88, 90
3, 16452, Note_on_c, 2, 71, 0
3, 16452, Note_on_c, 2, 89, 0
3, 16480, Note_on_c, 2, 86, 90
3, 16481, Note_on_c, 2, 79, 0
3, 16481, Note_on_c, 2, 72, 0
3, 16481, Note_on_c, 2, 88, 0
3, 16481, Note_on_c, 2, 74, 90
3, 16506, Note_on_c, 2, 86, 0
3, 16507, Note_on_c, 2, 84, 90
3, 16508, Note_on_c, 2, 74, 0
3, 16508, Note_on_c, 2, 76, 90
3, 16522, Note_on_c, 2, 84, 0
3, 16524, Note_on_c, 2, 76, 0
3, 16537, Note_on_c, 2, 83, 90
3, 16538, Note_on_c, 2, 77, 90
3, 16567, Note_on_c, 2, 83, 0
3, 16568, Note_on_c, 2, 76, 90
3, 16569, Note_on_c, 2, 77, 0
3, 16569, Note_on_c, 2, 84, 90
3, 16599, Note_on_c, 2, 84, 0
3, 16600, Note_on_c, 2, 83, 90
3, 16601, Note_on_c, 2, 76, 0
3, 16601, Note_on_c, 2, 74, 90
3, 16628, Note_on_c, 2, 83, 0
3, 16629, Note_on_c, 2, 74, 0
3, 16629, Note_on_c, 2, 81, 90
3, 16629, Note_on_c, 2, 72, 90
3, 16658, Note_on_c, 2, 72, 0
3, 16658, Note_on_c, 2, 71, 90
3, 16660, Note_on_c, 2, 81, 0
3, 16660, Note_on_c, 2, 79, 90
3, 16684, Note_on_c, 2, 69, 90
3, 16685, Note_on_c, 2, 77, 90
3, 16686, Note_on_c, 2, 71, 0
3, 16689, Note_on_c, 2, 79, 0
3, 16691, Note_on_c, 2, 69, 0
3, 16715, Note_on_c, 2, 67, 90
3, 16715, Note_on_c, 2, 76, 90
3, 16716, Note_on_c, 2, 77, 0
3, 16747, Note_on_c, 2, 67, 0
3, 16747, Note_on_c, 2, 69, 90
3, 16778, Note_on_c, 2, 69, 0
3, 16778, Note_on_c, 2, 67, 90
3, 16808, Note_on_c, 2, 65, 90
3, 16809, Note_on_c, 2, 67, 0
3, 16835, Note_on_c, 2, 65, 0
3, 16836, Note_on_c, 2, 64, 90
3, 16865, Note_on_c, 2, 64, 0
3, 16866, Note_on_c, 2, 62, 90
3, 16882, Note_on_c, 2, 76, 0
3, 16893, Note_on_c, 2, 62, 0
3, 16903, Note_on_c, 2, 60, 90
3, 16941, Note_on_c, 2, 72, 90
3, 16942, Note_on_c, 2, 64, 90
3, 16971, Note_on_c, 2, 72, 0
3, 16972, Note_on_c, 2, 74, 90
3, 16973, Note_on_c, 2, 64, 0
3, 16973, Note_on_c, 2, 65, 90
3, 17000, Note_on_c, 2, 76, 90
3, 17000, Note_on_c, 2, 67, 90
3, 17001, Note_on_c, 2, 74, 0
3, 17001, Note_on_c, 2, 65, 0
3, 17029, Note_on_c, 2, 69, 90
3, 17030, Note_on_c, 2, 67, 0
3, 17031, Note_on_c, 2, 76, 0
3, 17032, Note_on_c, 2, 77, 90
3, 17054, Note_on_c, 2, 69, 0
3, 17057, Note_on_c, 2, 77, 0
3, 17057, Note_on_c, 2, 70, 90
3, 17059, Note_on_c, 2, 79, 90
3, 17076, Note_on_c, 2, 79, 0
3, 17086, Note_on_c, 2, 70, 0
3, 17089, Note_on_c, 2, 72, 90
3, 17090, Note_on_c, 2, 81, 90
3, 17122, Note_on_c, 2, 81, 0
3, 17123, Note_on_c, 2, 79, 90
3, 17151, Note_on_c, 2, 69, 90
3, 17153, Note_on_c, 2, 72, 0
3, 17153, Note_on_c, 2, 77, 90
3, 17154, Note_on_c, 2, 79, 0
3, 17181, Note_on_c, 2, 77, 0
3, 17181, Note_on_c, 2, 79, 90
3, 17211, Note_on_c, 2, 79, 0
3, 17212, Note_on_c, 2, 81, 90
3, 17213, Note_on_c, 2, 65, 90
3, 17214, Note_on_c, 2, 69, 0
3, 17242, Note_on_c, 2, 81, 0
3, 17242, Note_on_c, 2, 65, 0
3, 17242, Note_on_c, 2, 83, 90
3, 17273, Note_on_c, 2, 64, 90
3, 17274, Note_on_c, 2, 84, 90
3, 17275, Note_on_c, 2, 83, 0
3, 17306, Note_on_c, 2, 84, 0
3, 17306, Note_on_c, 2, 83, 90
3, 17335, Note_on_c, 2, 67, 90
3, 17336, Note_on_c, 2, 83, 0
3, 17336, Note_on_c, 2, 81, 90
3, 17340, Note_on_c, 2, 64, 0
3, 17363, Note_on_c, 2, 81, 0
3, 17365, Note_on_c, 2, 83, 90
3, 17375, Note_on_c, 2, 67, 0
3, 17393, Note_on_c, 2, 83, 0
3, 17393, Note_on_c, 2, 66, 90
3, 17394, Note_on_c, 2, 84, 90
3, 17422, Note_on_c, 2, 84, 0
3, 17424, Note_on_c, 2, 86, 90
3, 17426, Note_on_c, 2, 66, 0
3, 17455, Note_on_c, 2, 67, 90
3, 17455, Note_on_c, 2, 87, 90
3, 17456, Note_on_c, 2, 86, 0
3, 17471, Note_on_c, 2, 60, 0
3, 17486, Note_on_c, 2, 86, 90
3, 17487, Note_on_c, 2, 59, 90
3, 17490, Note_on_c, 2, 67, 0
3, 17514, Note_on_c, 2, 60, 90
3, 17515, Note_on_c, 2, 59, 0
3, 17517, Note_on_c, 2, 84, 90
3, 17519, Note_on_c, 2, 86, 0
3, 17547, Note_on_c, 2, 83, 90
3, 17547, Note_on_c, 2, 62, 90
3, 17548, Note_on_c, 2, 60, 0
3, 17551, Note_on_c, 2, 84, 0
3, 17576, Note_on_c, 2, 63, 90
3, 17577, Note_on_c, 2, 62, 0
3, 17577, Note_on_c, 2, 84, 90
3, 17578, Note_on_c, 2, 87, 0
3, 17581, Note_on_c, 2, 83, 0
3, 17604, Note_on_c, 2, 87, 90
3, 17605, Note_on_c, 2, 63, 0
3, 17605, Note_on_c, 2, 65, 90
3, 17624, Note_on_c, 2, 87, 0
3, 17635, Note_on_c, 2, 65, 0
3, 17636, Note_on_c, 2, 86, 90
3, 17636, Note_on_c, 2, 67, 90
3, 17637, Note_on_c, 2, 84, 0
3, 17666, Note_on_c, 2, 69, 90
3, 17666, Note_on_c, 2, 84, 90
3, 17669, Note_on_c, 2, 67, 0
3, 17694, Note_on_c, 2, 83, 90
3, 17696, Note_on_c, 2, 69, 0
3, 17696, Note_on_c, 2, 84, 0
3, 17696, Note_on_c, 2, 71, 90
3, 17723, Note_on_c, 2, 72, 90
3, 17724, Note_on_c, 2, 71, 0
3, 17726, Note_on_c, 2, 81, 90
3, 17727, Note_on_c, 2, 83, 0
3, 17751, Note_on_c, 2, 72, 0
3, 17751, Note_on_c, 2, 83, 90
3, 17751, Note_on_c, 2, 74, 90
3, 17752, Note_on_c, 2, 86, 0
3, 17758, Note_on_c, 2, 81, 0
3, 17780, Note_on_c, 2, 86, 90
3, 17784, Note_on_c, 2, 74, 0
3, 17784, Note_on_c, 2, 67, 90
3, 17816, Note_on_c, 2, 79, 90
3, 17817, Note_on_c, 2, 75, 90
3, 17818, Note_on_c, 2, 83, 0
3, 17818, Note_on_c, 2, 67, 0
3, 17836, Note_on_c, 2, 86, 0
3, 17848, Note_on_c, 2, 86, 90
3, 17878, Note_on_c, 2, 86, 0
3, 17878, Note_on_c, 2, 84, 90
3, 17908, Note_on_c, 2, 83, 90
3, 17909, Note_on_c, 2, 84, 0
3, 17937, Note_on_c, 2, 83, 0
3, 17937, Note_on_c, 2, 84, 90
3, 17943, Note_on_c, 2, 75, 0
3, 17968, Note_on_c, 2, 75, 90
3, 17984, Note_on_c, 2, 75, 0
3, 18000, Note_on_c, 2, 74, 90
3, 18001, Note_on_c, 2, 84, 0
3, 18027, Note_on_c, 2, 84, 90
3, 18056, Note_on_c, 2, 83, 90
3, 18059, Note_on_c, 2, 84, 0
3, 18086, Note_on_c, 2, 81, 90
3, 18088, Note_on_c, 2, 83, 0
3, 18107, Note_on_c, 2, 81, 0
3, 18117, Note_on_c, 2, 83, 90
3, 18145, Note_on_c, 2, 86, 90
3, 18175, Note_on_c, 2, 91, 90
3, 18184, Note_on_c, 2, 74, 0
3, 18205, Note_on_c, 2, 77, 90
3, 18232, Note_on_c, 2, 86, 0
3, 18233, Note_on_c, 2, 89, 90
3, 18235, Note_on_c, 2, 77, 0
3, 18236, Note_on_c, 2, 76, 90
3, 18264, Note_on_c, 2, 89, 0
3, 18264, Note_on_c, 2, 76, 0
3, 18264, Note_on_c, 2, 74, 90
3, 18265, Note_on_c, 2, 79, 0
3, 18265, Note_on_c, 2, 83, 0
3, 18295, Note_on_c, 2, 88, 90
3, 18295, Note_on_c, 2, 82, 90
3, 18296, Note_on_c, 2, 84, 90
3, 18296, Note_on_c, 2, 76, 90
3, 18300, Note_on_c, 2, 74, 0
3, 18326, Note_on_c, 2, 76, 0
3, 18327, Note_on_c, 2, 79, 90
3, 18341, Note_on_c, 2, 79, 0
3, 18357, Note_on_c, 2, 78, 90
3, 18375, Note_on_c, 2, 88, 0
3, 18379, Note_on_c, 2, 82, 0
3, 18380, Note_on_c, 2, 84, 0
3, 18388, Note_on_c, 2, 76, 90
3, 18390, Note_on_c, 2, 78, 0
3, 18418, Note_on_c, 2, 87, 90
3, 18418, Note_on_c, 2, 81, 90
3, 18419, Note_on_c, 2, 78, 90
3, 18419, Note_on_c, 2, 84, 90
3, 18425, Note_on_c, 2, 76, 0
3, 18436, Note_on_c, 2, 81, 0
3, 18450, Note_on_c, 2, 78, 0
3, 18451, Note_on_c, 2, 81, 90
3, 18482, Note_on_c, 2, 79, 90
3, 18510, Note_on_c, 2, 79, 0
3, 18510, Note_on_c, 2, 78, 90
3, 18512, Note_on_c, 2, 87, 0
3, 18534, Note_on_c, 2, 81, 0
3, 18541, Note_on_c, 2, 78, 0
3, 18541, Note_on_c, 2, 86, 90
3, 18543, Note_on_c, 2, 79, 90
3, 18545, Note_on_c, 2, 84, 0
3, 18576, Note_on_c, 2, 84, 90
3, 18606, Note_on_c, 2, 83, 90
3, 18607, Note_on_c, 2, 74, 90
3, 18610, Note_on_c, 2, 84, 0
3, 18630, Note_on_c, 2, 83, 0
3, 18638, Note_on_c, 2, 81, 90
3, 18671, Note_on_c, 2, 81, 0
3, 18686, Note_on_c, 2, 83, 90
3, 18686, Note_on_c, 2, 67, 90
3, 18899, Note_on_c, 2, 67, 0
3, 18901, Note_on_c, 2, 83, 0
3, 18902, Note_on_c, 2, 91, 0
3, 18902, Note_on_c, 2, 86, 0
3, 18902, Note_on_c, 2, 79, 0
3, 18903, Note_on_c, 2, 74, 0
3, 18903, End_track
4, 0, Start_track
4, 0, Title_t, "Man 2 2/3"
4, 0, MIDI_port, 0
4, 0, Control_c, 4, 7, 71
4, 0, Control_c, 4, 93, 0
4, 0, Control_c, 4, 91, 100
4, 0, Control_c, 4, 10, 68
4, 0, Program_c, 4, 79
4, 2, Note_on_c, 4, 86, 90
4, 60, Note_on_c, 4, 81, 90
4, 60, Note_on_c, 4, 78, 90
4, 81, Note_on_c, 4, 78, 0
4, 85, Note_on_c, 4, 81, 0
4, 88, Note_on_c, 4, 76, 90
4, 89, Note_on_c, 4, 79, 90
4, 103, Note_on_c, 4, 79, 0
4, 107, Note_on_c, 4, 76, 0
4, 119, Note_on_c, 4, 81, 90
4, 119, Note_on_c, 4, 78, 90
4, 132, Note_on_c, 4, 86, 0
4, 132, Note_on_c, 4, 78, 0
4, 134, Note_on_c, 4, 81, 0
4, 176, Note_on_c, 4, 88, 90
4, 177, Note_on_c, 4, 83, 90
4, 178, Note_on_c, 4, 79, 90
4, 204, Note_on_c, 4, 79, 0
4, 217, Note_on_c, 4, 83, 0
4, 234, Note_on_c, 4, 79, 90
4, 235, Note_on_c, 4, 76, 90
4, 246, Note_on_c, 4, 79, 0
4, 250, Note_on_c, 4, 76, 0
4, 291, Note_on_c, 4, 84, 90
4, 291, Note_on_c, 4, 81, 90
4, 305, Note_on_c, 4, 88, 0
4, 306, Note_on_c, 4, 81, 0
4, 309, Note_on_c, 4, 84, 0
4, 349, Note_on_c, 4, 86, 90
4, 350, Note_on_c, 4, 81, 90
4, 350, Note_on_c, 4, 78, 90
4, 388, Note_on_c, 4, 78, 0
4, 393, Note_on_c, 4, 81, 0
4, 409, Note_on_c, 4, 78, 90
4, 410, Note_on_c, 4, 74, 90
4, 429, Note_on_c, 4, 78, 0
4, 429, Note_on_c, 4, 74, 0
4, 467, Note_on_c, 4, 83, 90
4, 467, Note_on_c, 4, 79, 90
4, 483, Note_on_c, 4, 79, 0
4, 491, Note_on_c, 4, 83, 0
4, 495, Note_on_c, 4, 86, 0
4, 529, Note_on_c, 4, 76, 90
4, 529, Note_on_c, 4, 79, 90
4, 530, Note_on_c, 4, 84, 90
4, 573, Note_on_c, 4, 79, 0
4, 586, Note_on_c, 4, 76, 0
4, 589, Note_on_c, 4, 81, 90
4, 590, Note_on_c, 4, 78, 90
4, 600, Note_on_c, 4, 78, 0
4, 605, Note_on_c, 4, 81, 0
4, 616, Note_on_c, 4, 79, 90
4, 618, Note_on_c, 4, 76, 90
4, 625, Note_on_c, 4, 79, 0
4, 630, Note_on_c, 4, 76, 0
4, 648, Note_on_c, 4, 81, 90
4, 649, Note_on_c, 4, 78, 90
4, 682, Note_on_c, 4, 78, 0
4, 688, Note_on_c, 4, 81, 0
4, 708, Note_on_c, 4, 86, 90
4, 708, Note_on_c, 4, 74, 90
4, 709, Note_on_c, 4, 84, 0
4, 709, Note_on_c, 4, 78, 90
4, 757, Note_on_c, 4, 78, 0
4, 766, Note_on_c, 4, 74, 0
4, 766, Note_on_c, 4, 79, 90
4, 767, Note_on_c, 4, 83, 90
4, 779, Note_on_c, 4, 79, 0
4, 779, Note_on_c, 4, 83, 0
4, 796, Note_on_c, 4, 78, 90
4, 796, Note_on_c, 4, 81, 90
4, 807, Note_on_c, 4, 81, 0
4, 823, Note_on_c, 4, 83, 90
4, 824, Note_on_c, 4, 78, 0
4, 826, Note_on_c, 4, 79, 90
4, 827, Note_on_c, 4, 86, 0
4, 871, Note_on_c, 4, 79, 0
4, 877, Note_on_c, 4, 91, 90
4, 879, Note_on_c, 4, 76, 90
4, 903, Note_on_c, 4, 83, 0
4, 907, Note_on_c, 4, 74, 90
4, 910, Note_on_c, 4, 76, 0
4, 936, Note_on_c, 4, 74, 0
4, 938, Note_on_c, 4, 84, 90
4, 938, Note_on_c, 4, 76, 90
4, 956, Note_on_c, 4, 84, 0
4, 967, Note_on_c, 4, 86, 90
4, 968, Note_on_c, 4, 78, 90
4, 971, Note_on_c, 4, 76, 0
4, 979, Note_on_c, 4, 78, 0
4, 981, Note_on_c, 4, 86, 0
4, 995, Note_on_c, 4, 88, 90
4, 999, Note_on_c, 4, 79, 90
4, 1024, Note_on_c, 4, 86, 90
4, 1027, Note_on_c, 4, 88, 0
4, 1031, Note_on_c, 4, 91, 0
4, 1043, Note_on_c, 4, 86, 0
4, 1060, Note_on_c, 4, 93, 90
4, 1061, Note_on_c, 4, 84, 90
4, 1121, Note_on_c, 4, 81, 90
4, 1122, Note_on_c, 4, 84, 0
4, 1122, Note_on_c, 4, 78, 90
4, 1124, Note_on_c, 4, 79, 0
4, 1138, Note_on_c, 4, 78, 0
4, 1149, Note_on_c, 4, 81, 0
4, 1153, Note_on_c, 4, 76, 90
4, 1182, Note_on_c, 4, 76, 0
4, 1183, Note_on_c, 4, 86, 90
4, 1184, Note_on_c, 4, 78, 90
4, 1204, Note_on_c, 4, 78, 0
4, 1243, Note_on_c, 4, 86, 0
4, 1243, Note_on_c, 4, 91, 90
4, 1243, Note_on_c, 4, 83, 90
4, 1244, Note_on_c, 4, 93, 0
4, 1245, Note_on_c, 4, 79, 90
4, 1301, Note_on_c, 4, 74, 90
4, 1304, Note_on_c, 4, 79, 0
4, 1331, Note_on_c, 4, 74, 0
4, 1331, Note_on_c, 4, 72, 90
4, 1362, Note_on_c, 4, 72, 0
4, 1365, Note_on_c, 4, 74, 90
4, 1367, Note_on_c, 4, 91, 0
4, 1369, Note_on_c, 4, 83, 0
4, 1381, Note_on_c, 4, 74, 0
4, 1425, Note_on_c, 4, 91, 90
4, 1427, Note_on_c, 4, 67, 90
4, 1454, Note_on_c, 4, 67, 0
4, 1486, Note_on_c, 4, 83, 90
4, 1487, Note_on_c, 4, 86, 90
4, 1500, Note_on_c, 4, 83, 0
4, 1513, Note_on_c, 4, 86, 0
4, 1516, Note_on_c, 4, 84, 90
4, 1516, Note_on_c, 4, 81, 90
4, 1538, Note_on_c, 4, 84, 0
4, 1541, Note_on_c, 4, 81, 0
4, 1547, Note_on_c, 4, 83, 90
4, 1548, Note_on_c, 4, 86, 90
4, 1558, Note_on_c, 4, 91, 0
4, 1564, Note_on_c, 4, 86, 0
4, 1566, Note_on_c, 4, 83, 0
4, 1603, Note_on_c, 4, 86, 90
4, 1604, Note_on_c, 4, 81, 90
4, 1605, Note_on_c, 4, 78, 90
4, 1650, Note_on_c, 4, 81, 0
4, 1651, Note_on_c, 4, 78, 0
4, 1665, Note_on_c, 4, 78, 90
4, 1666, Note_on_c, 4, 74, 90
4, 1683, Note_on_c, 4, 78, 0
4, 1683, Note_on_c, 4, 74, 0
4, 1723, Note_on_c, 4, 83, 90
4, 1724, Note_on_c, 4, 79, 90
4, 1746, Note_on_c, 4, 86, 0
4, 1748, Note_on_c, 4, 83, 0
4, 1748, Note_on_c, 4, 79, 0
4, 1785, Note_on_c, 4, 88, 90
4, 1786, Note_on_c, 4, 79, 90
4, 1786, Note_on_c, 4, 72, 90
4, 1824, Note_on_c, 4, 79, 0
4, 1832, Note_on_c, 4, 72, 0
4, 1842, Note_on_c, 4, 84, 90
4, 1844, Note_on_c, 4, 81, 90
4, 1870, Note_on_c, 4, 83, 90
4, 1871, Note_on_c, 4, 84, 0
4, 1871, Note_on_c, 4, 81, 0
4, 1873, Note_on_c, 4, 79, 90
4, 1878, Note_on_c, 4, 83, 0
4, 1888, Note_on_c, 4, 79, 0
4, 1895, Note_on_c, 4, 88, 0
4, 1904, Note_on_c, 4, 84, 90
4, 1904, Note_on_c, 4, 90, 90
4, 1906, Note_on_c, 4, 81, 90
4, 1929, Note_on_c, 4, 81, 0
4, 1961, Note_on_c, 4, 84, 0
4, 1963, Note_on_c, 4, 91, 90
4, 1964, Note_on_c, 4, 86, 90
4, 1964, Note_on_c, 4, 83, 90
4, 1967, Note_on_c, 4, 90, 0
4, 2004, Note_on_c, 4, 83, 0
4, 2024, Note_on_c, 4, 86, 0
4, 2024, Note_on_c, 4, 71, 90
4, 2024, Note_on_c, 4, 88, 90
4, 2051, Note_on_c, 4, 88, 0
4, 2053, Note_on_c, 4, 86, 90
4, 2054, Note_on_c, 4, 71, 0
4, 2084, Note_on_c, 4, 76, 90
4, 2084, Note_on_c, 4, 84, 90
4, 2085, Note_on_c, 4, 86, 0
4, 2110, Note_on_c, 4, 83, 90
4, 2116, Note_on_c, 4, 84, 0
4, 2120, Note_on_c, 4, 83, 0
4, 2122, Note_on_c, 4, 91, 0
4, 2144, Note_on_c, 4, 93, 90
4, 2145, Note_on_c, 4, 81, 90
4, 2146, Note_on_c, 4, 72, 90
4, 2150, Note_on_c, 4, 76, 0
4, 2187, Note_on_c, 4, 72, 0
4, 2189, Note_on_c, 4, 81, 0
4, 2205, Note_on_c, 4, 86, 90
4, 2206, Note_on_c, 4, 69, 90
4, 2226, Note_on_c, 4, 69, 0
4, 2230, Note_on_c, 4, 86, 0
4, 2235, Note_on_c, 4, 84, 90
4, 2248, Note_on_c, 4, 84, 0
4, 2265, Note_on_c, 4, 86, 90
4, 2267, Note_on_c, 4, 74, 90
4, 2298, Note_on_c, 4, 93, 0
4, 2302, Note_on_c, 4, 74, 0
4, 2328, Note_on_c, 4, 95, 90
4, 2330, Note_on_c, 4, 67, 90
4, 2360, Note_on_c, 4, 71, 90
4, 2362, Note_on_c, 4, 67, 0
4, 2368, Note_on_c, 4, 86, 0
4, 2390, Note_on_c, 4, 71, 0
4, 2391, Note_on_c, 4, 74, 90
4, 2391, Note_on_c, 4, 83, 90
4, 2420, Note_on_c, 4, 72, 90
4, 2422, Note_on_c, 4, 83, 0
4, 2423, Note_on_c, 4, 74, 0
4, 2449, Note_on_c, 4, 72, 0
4, 2449, Note_on_c, 4, 86, 90
4, 2450, Note_on_c, 4, 71, 90
4, 2478, Note_on_c, 4, 86, 0
4, 2480, Note_on_c, 4, 69, 90
4, 2481, Note_on_c, 4, 71, 0
4, 2487, Note_on_c, 4, 95, 0
4, 2509, Note_on_c, 4, 95, 90
4, 2509, Note_on_c, 4, 91, 90
4, 2510, Note_on_c, 4, 71, 90
4, 2514, Note_on_c, 4, 69, 0
4, 2542, Note_on_c, 4, 90, 90
4, 2544, Note_on_c, 4, 91, 0
4, 2570, Note_on_c, 4, 88, 90
4, 2572, Note_on_c, 4, 90, 0
4, 2572, Note_on_c, 4, 67, 90
4, 2573, Note_on_c, 4, 71, 0
4, 2599, Note_on_c, 4, 86, 90
4, 2608, Note_on_c, 4, 88, 0
4, 2616, Note_on_c, 4, 86, 0
4, 2628, Note_on_c, 4, 88, 90
4, 2630, Note_on_c, 4, 67, 0
4, 2630, Note_on_c, 4, 79, 90
4, 2659, Note_on_c, 4, 85, 90
4, 2661, Note_on_c, 4, 95, 0
4, 2661, Note_on_c, 4, 88, 0
4, 2692, Note_on_c, 4, 93, 90
4, 2720, Note_on_c, 4, 79, 0
4, 2750, Note_on_c, 4, 78, 90
4, 2751, Note_on_c, 4, 86, 90
4, 2754, Note_on_c, 4, 85, 0
4, 2777, Note_on_c, 4, 78, 0
4, 2779, Note_on_c, 4, 76, 90
4, 2780, Note_on_c, 4, 86, 0
4, 2781, Note_on_c, 4, 85, 90
4, 2807, Note_on_c, 4, 76, 0
4, 2809, Note_on_c, 4, 78, 90
4, 2810, Note_on_c, 4, 85, 0
4, 2810, Note_on_c, 4, 86, 90
4, 2839, Note_on_c, 4, 88, 90
4, 2843, Note_on_c, 4, 86, 0
4, 2848, Note_on_c, 4, 93, 0
4, 2852, Note_on_c, 4, 88, 0
4, 2853, Note_on_c, 4, 78, 0
4, 2869, Note_on_c, 4, 93, 90
4, 2870, Note_on_c, 4, 90, 90
4, 2871, Note_on_c, 4, 74, 90
4, 2899, Note_on_c, 4, 90, 0
4, 2900, Note_on_c, 4, 88, 90
4, 2902, Note_on_c, 4, 74, 0
4, 2929, Note_on_c, 4, 88, 0
4, 2929, Note_on_c, 4, 86, 90
4, 2930, Note_on_c, 4, 78, 90
4, 2958, Note_on_c, 4, 78, 0
4, 2959, Note_on_c, 4, 86, 0
4, 2959, Note_on_c, 4, 85, 90
4, 2960, Note_on_c, 4, 76, 90
4, 2988, Note_on_c, 4, 85, 0
4, 2989, Note_on_c, 4, 76, 0
4, 2989, Note_on_c, 4, 86, 90
4, 2992, Note_on_c, 4, 78, 90
4, 3019, Note_on_c, 4, 74, 90
4, 3020, Note_on_c, 4, 78, 0
4, 3030, Note_on_c, 4, 74, 0
4, 3053, Note_on_c, 4, 95, 90
4, 3053, Note_on_c, 4, 67, 90
4, 3056, Note_on_c, 4, 93, 0
4, 3087, Note_on_c, 4, 67, 0
4, 3088, Note_on_c, 4, 86, 0
4, 3113, Note_on_c, 4, 86, 90
4, 3114, Note_on_c, 4, 79, 90
4, 3136, Note_on_c, 4, 79, 0
4, 3144, Note_on_c, 4, 78, 90
4, 3154, Note_on_c, 4, 78, 0
4, 3175, Note_on_c, 4, 91, 90
4, 3177, Note_on_c, 4, 79, 90
4, 3182, Note_on_c, 4, 95, 0
4, 3200, Note_on_c, 4, 91, 0
4, 3202, Note_on_c, 4, 79, 0
4, 3234, Note_on_c, 4, 91, 90
4, 3236, Note_on_c, 4, 71, 90
4, 3293, Note_on_c, 4, 86, 0
4, 3293, Note_on_c, 4, 83, 90
4, 3294, Note_on_c, 4, 71, 0
4, 3294, Note_on_c, 4, 79, 90
4, 3320, Note_on_c, 4, 79, 0
4, 3321, Note_on_c, 4, 78, 90
4, 3331, Note_on_c, 4, 83, 0
4, 3336, Note_on_c, 4, 78, 0
4, 3354, Note_on_c, 4, 86, 90
4, 3356, Note_on_c, 4, 79, 90
4, 3390, Note_on_c, 4, 79, 0
4, 3413, Note_on_c, 4, 88, 90
4, 3415, Note_on_c, 4, 72, 90
4, 3418, Note_on_c, 4, 91, 0
4, 3439, Note_on_c, 4, 86, 0
4, 3471, Note_on_c, 4, 84, 90
4, 3472, Note_on_c, 4, 72, 0
4, 3472, Note_on_c, 4, 76, 90
4, 3496, Note_on_c, 4, 84, 0
4, 3500, Note_on_c, 4, 83, 90
4, 3510, Note_on_c, 4, 83, 0
4, 3532, Note_on_c, 4, 76, 0
4, 3533, Note_on_c, 4, 84, 90
4, 3533, Note_on_c, 4, 81, 90
4, 3564, Note_on_c, 4, 81, 0
4, 3589, Note_on_c, 4, 88, 0
4, 3591, Note_on_c, 4, 86, 90
4, 3593, Note_on_c, 4, 78, 90
4, 3635, Note_on_c, 4, 78, 0
4, 3650, Note_on_c, 4, 84, 0
4, 3650, Note_on_c, 4, 83, 90
4, 3652, Note_on_c, 4, 74, 90
4, 3678, Note_on_c, 4, 83, 0
4, 3680, Note_on_c, 4, 81, 90
4, 3690, Note_on_c, 4, 81, 0
4, 3710, Note_on_c, 4, 74, 0
4, 3710, Note_on_c, 4, 83, 90
4, 3711, Note_on_c, 4, 79, 90
4, 3739, Note_on_c, 4, 86, 0
4, 3754, Note_on_c, 4, 79, 0
4, 3771, Note_on_c, 4, 81, 90
4, 3772, Note_on_c, 4, 90, 90
4, 3772, Note_on_c, 4, 74, 90
4, 3773, Note_on_c, 4, 83, 0
4, 3801, Note_on_c, 4, 76, 90
4, 3803, Note_on_c, 4, 74, 0
4, 3811, Note_on_c, 4, 81, 0
4, 3833, Note_on_c, 4, 86, 90
4, 3833, Note_on_c, 4, 78, 90
4, 3834, Note_on_c, 4, 76, 0
4, 3862, Note_on_c, 4, 78, 0
4, 3862, Note_on_c, 4, 79, 90
4, 3863, Note_on_c, 4, 86, 0
4, 3863, Note_on_c, 4, 85, 90
4, 3872, Note_on_c, 4, 85, 0
4, 3890, Note_on_c, 4, 86, 90
4, 3891, Note_on_c, 4, 79, 0
4, 3891, Note_on_c, 4, 81, 90
4, 3911, Note_on_c, 4, 90, 0
4, 3920, Note_on_c, 4, 78, 90
4, 3922, Note_on_c, 4, 81, 0
4, 3948, Note_on_c, 4, 92, 90
4, 3950, Note_on_c, 4, 78, 0
4, 3950, Note_on_c, 4, 83, 90
4, 3979, Note_on_c, 4, 74, 90
4, 3980, Note_on_c, 4, 86, 0
4, 3980, Note_on_c, 4, 83, 0
4, 4008, Note_on_c, 4, 74, 0
4, 4009, Note_on_c, 4, 76, 90
4, 4009, Note_on_c, 4, 86, 90
4, 4035, Note_on_c, 4, 86, 0
4, 4037, Note_on_c, 4, 76, 0
4, 4038, Note_on_c, 4, 77, 90
4, 4039, Note_on_c, 4, 85, 90
4, 4050, Note_on_c, 4, 85, 0
4, 4066, Note_on_c, 4, 77, 0
4, 4068, Note_on_c, 4, 76, 90
4, 4068, Note_on_c, 4, 86, 90
4, 4078, Note_on_c, 4, 92, 0
4, 4094, Note_on_c, 4, 76, 0
4, 4096, Note_on_c, 4, 74, 90
4, 4122, Note_on_c, 4, 93, 90
4, 4125, Note_on_c, 4, 74, 0
4, 4126, Note_on_c, 4, 76, 90
4, 4153, Note_on_c, 4, 76, 0
4, 4184, Note_on_c, 4, 69, 90
4, 4185, Note_on_c, 4, 86, 0
4, 4185, Note_on_c, 4, 84, 90
4, 4206, Note_on_c, 4, 69, 0
4, 4214, Note_on_c, 4, 84, 0
4, 4214, Note_on_c, 4, 83, 90
4, 4223, Note_on_c, 4, 83, 0
4, 4245, Note_on_c, 4, 84, 90
4, 4247, Note_on_c, 4, 81, 90
4, 4265, Note_on_c, 4, 81, 0
4, 4303, Note_on_c, 4, 86, 90
4, 4305, Note_on_c, 4, 93, 0
4, 4305, Note_on_c, 4, 78, 90
4, 4341, Note_on_c, 4, 84, 0
4, 4349, Note_on_c, 4, 78, 0
4, 4364, Note_on_c, 4, 74, 90
4, 4365, Note_on_c, 4, 83, 90
4, 4387, Note_on_c, 4, 74, 0
4, 4392, Note_on_c, 4, 83, 0
4, 4393, Note_on_c, 4, 81, 90
4, 4402, Note_on_c, 4, 81, 0
4, 4424, Note_on_c, 4, 79, 90
4, 4424, Note_on_c, 4, 83, 90
4, 4444, Note_on_c, 4, 86, 0
4, 4452, Note_on_c, 4, 79, 0
4, 4484, Note_on_c, 4, 91, 90
4, 4485, Note_on_c, 4, 67, 90
4, 4515, Note_on_c, 4, 67, 0
4, 4522, Note_on_c, 4, 71, 90
4, 4535, Note_on_c, 4, 83, 0
4, 4549, Note_on_c, 4, 79, 90
4, 4550, Note_on_c, 4, 71, 0
4, 4550, Note_on_c, 4, 72, 90
4, 4577, Note_on_c, 4, 72, 0
4, 4577, Note_on_c, 4, 74, 90
4, 4597, Note_on_c, 4, 79, 0
4, 4602, Note_on_c, 4, 74, 0
4, 4606, Note_on_c, 4, 76, 90
4, 4607, Note_on_c, 4, 84, 90
4, 4635, Note_on_c, 4, 77, 90
4, 4636, Note_on_c, 4, 76, 0
4, 4653, Note_on_c, 4, 77, 0
4, 4663, Note_on_c, 4, 88, 90
4, 4664, Note_on_c, 4, 91, 0
4, 4665, Note_on_c, 4, 79, 90
4, 4695, Note_on_c, 4, 81, 90
4, 4696, Note_on_c, 4, 84, 0
4, 4696, Note_on_c, 4, 79, 0
4, 4723, Note_on_c, 4, 81, 0
4, 4725, Note_on_c, 4, 83, 90
4, 4726, Note_on_c, 4, 79, 90
4, 4741, Note_on_c, 4, 83, 0
4, 4754, Note_on_c, 4, 79, 0
4, 4754, Note_on_c, 4, 77, 90
4, 4754, Note_on_c, 4, 81, 90
4, 4773, Note_on_c, 4, 81, 0
4, 4782, Note_on_c, 4, 77, 0
4, 4785, Note_on_c, 4, 76, 90
4, 4785, Note_on_c, 4, 83, 90
4, 4833, Note_on_c, 4, 88, 0
4, 4844, Note_on_c, 4, 84, 90
4, 4861, Note_on_c, 4, 76, 0
4, 4871, Note_on_c, 4, 69, 90
4, 4898, Note_on_c, 4, 69, 0
4, 4902, Note_on_c, 4, 72, 90
4, 4902, Note_on_c, 4, 81, 90
4, 4903, Note_on_c, 4, 83, 0
4, 4928, Note_on_c, 4, 72, 0
4, 4929, Note_on_c, 4, 81, 0
4, 4930, Note_on_c, 4, 74, 90
4, 4930, Note_on_c, 4, 80, 90
4, 4947, Note_on_c, 4, 74, 0
4, 4958, Note_on_c, 4, 76, 90
4, 4959, Note_on_c, 4, 80, 0
4, 4959, Note_on_c, 4, 81, 90
4, 4981, Note_on_c, 4, 76, 0
4, 4983, Note_on_c, 4, 77, 90
4, 4988, Note_on_c, 4, 83, 90
4, 4991, Note_on_c, 4, 81, 0
4, 4995, Note_on_c, 4, 84, 0
4, 5007, Note_on_c, 4, 83, 0
4, 5016, Note_on_c, 4, 76, 90
4, 5017, Note_on_c, 4, 77, 0
4, 5017, Note_on_c, 4, 84, 90
4, 5017, Note_on_c, 4, 88, 90
4, 5042, Note_on_c, 4, 76, 0
4, 5047, Note_on_c, 4, 86, 90
4, 5047, Note_on_c, 4, 68, 90
4, 5048, Note_on_c, 4, 84, 0
4, 5068, Note_on_c, 4, 68, 0
4, 5077, Note_on_c, 4, 69, 90
4, 5078, Note_on_c, 4, 84, 90
4, 5080, Note_on_c, 4, 86, 0
4, 5106, Note_on_c, 4, 84, 0
4, 5106, Note_on_c, 4, 83, 90
4, 5107, Note_on_c, 4, 71, 90
4, 5108, Note_on_c, 4, 69, 0
4, 5133, Note_on_c, 4, 71, 0
4, 5135, Note_on_c, 4, 72, 90
4, 5136, Note_on_c, 4, 81, 90
4, 5138, Note_on_c, 4, 83, 0
4, 5162, Note_on_c, 4, 79, 90
4, 5166, Note_on_c, 4, 81, 0
4, 5167, Note_on_c, 4, 88, 0
4, 5185, Note_on_c, 4, 79, 0
4, 5197, Note_on_c, 4, 86, 90
4, 5197, Note_on_c, 4, 78, 90
4, 5226, Note_on_c, 4, 78, 0
4, 5228, Note_on_c, 4, 81, 90
4, 5240, Note_on_c, 4, 81, 0
4, 5262, Note_on_c, 4, 74, 90
4, 5265, Note_on_c, 4, 71, 90
4, 5266, Note_on_c, 4, 72, 0
4, 5294, Note_on_c, 4, 69, 90
4, 5295, Note_on_c, 4, 71, 0
4, 5310, Note_on_c, 4, 74, 0
4, 5323, Note_on_c, 4, 69, 0
4, 5324, Note_on_c, 4, 71, 90
4, 5324, Note_on_c, 4, 79, 90
4, 5352, Note_on_c, 4, 81, 90
4, 5353, Note_on_c, 4, 71, 0
4, 5353, Note_on_c, 4, 72, 90
4, 5354, Note_on_c, 4, 79, 0
4, 5373, Note_on_c, 4, 81, 0
4, 5386, Note_on_c, 4, 72, 0
4, 5387, Note_on_c, 4, 83, 90
4, 5387, Note_on_c, 4, 74, 90
4, 5419, Note_on_c, 4, 81, 90
4, 5420, Note_on_c, 4, 83, 0
4, 5423, Note_on_c, 4, 74, 0
4, 5434, Note_on_c, 4, 81, 0
4, 5450, Note_on_c, 4, 83, 90
4, 5451, Note_on_c, 4, 67, 90
4, 5481, Note_on_c, 4, 67, 0
4, 5512, Note_on_c, 4, 79, 90
4, 5540, Note_on_c, 4, 83, 0
4, 5541, Note_on_c, 4, 84, 90
4, 5577, Note_on_c, 4, 84, 0
4, 5577, Note_on_c, 4, 81, 90
4, 5617, Note_on_c, 4, 79, 0
4, 5634, Note_on_c, 4, 78, 90
4, 5648, Note_on_c, 4, 86, 0
4, 5662, Note_on_c, 4, 81, 0
4, 5665, Note_on_c, 4, 85, 90
4, 5666, Note_on_c, 4, 76, 90
4, 5668, Note_on_c, 4, 78, 0
4, 5695, Note_on_c, 4, 85, 0
4, 5695, Note_on_c, 4, 86, 90
4, 5696, Note_on_c, 4, 78, 90
4, 5697, Note_on_c, 4, 76, 0
4, 5726, Note_on_c, 4, 79, 90
4, 5726, Note_on_c, 4, 88, 90
4, 5727, Note_on_c, 4, 86, 0
4, 5728, Note_on_c, 4, 78, 0
4, 5756, Note_on_c, 4, 90, 90
4, 5757, Note_on_c, 4, 79, 0
4, 5757, Note_on_c, 4, 81, 90
4, 5758, Note_on_c, 4, 88, 0
4, 5786, Note_on_c, 4, 86, 90
4, 5787, Note_on_c, 4, 78, 90
4, 5788, Note_on_c, 4, 90, 0
4, 5791, Note_on_c, 4, 81, 0
4, 5816, Note_on_c, 4, 86, 0
4, 5816, Note_on_c, 4, 88, 90
4, 5816, Note_on_c, 4, 79, 90
4, 5817, Note_on_c, 4, 78, 0
4, 5844, Note_on_c, 4, 88, 0
4, 5844, Note_on_c, 4, 79, 0
4, 5844, Note_on_c, 4, 90, 90
4, 5845, Note_on_c, 4, 81, 90
4, 5873, Note_on_c, 4, 83, 90
4, 5874, Note_on_c, 4, 90, 0
4, 5874, Note_on_c, 4, 81, 0
4, 5874, Note_on_c, 4, 91, 90
4, 5902, Note_on_c, 4, 83, 0
4, 5902, Note_on_c, 4, 84, 90
4, 5903, Note_on_c, 4, 91, 0
4, 5904, Note_on_c, 4, 93, 90
4, 5920, Note_on_c, 4, 84, 0
4, 5921, Note_on_c, 4, 93, 0
4, 5933, Note_on_c, 4, 86, 90
4, 5934, Note_on_c, 4, 95, 90
4, 5965, Note_on_c, 4, 93, 90
4, 5997, Note_on_c, 4, 91, 90
4, 5998, Note_on_c, 4, 93, 0
4, 6025, Note_on_c, 4, 91, 0
4, 6026, Note_on_c, 4, 90, 90
4, 6055, Note_on_c, 4, 90, 0
4, 6055, Note_on_c, 4, 91, 90
4, 6056, Note_on_c, 4, 95, 0
4, 6086, Note_on_c, 4, 95, 90
4, 6096, Note_on_c, 4, 95, 0
4, 6117, Note_on_c, 4, 93, 90
4, 6118, Note_on_c, 4, 91, 0
4, 6146, Note_on_c, 4, 91, 90
4, 6174, Note_on_c, 4, 90, 90
4, 6175, Note_on_c, 4, 91, 0
4, 6203, Note_on_c, 4, 88, 90
4, 6204, Note_on_c, 4, 90, 0
4, 6215, Note_on_c, 4, 88, 0
4, 6232, Note_on_c, 4, 90, 90
4, 6257, Note_on_c, 4, 86, 0
4, 6263, Note_on_c, 4, 84, 90
4, 6292, Note_on_c, 4, 83, 90
4, 6292, Note_on_c, 4, 98, 90
4, 6293, Note_on_c, 4, 84, 0
4, 6294, Note_on_c, 4, 93, 0
4, 6295, Note_on_c, 4, 90, 0
4, 6323, Note_on_c, 4, 90, 90
4, 6323, Note_on_c, 4, 86, 90
4, 6352, Note_on_c, 4, 91, 90
4, 6352, Note_on_c, 4, 88, 90
4, 6353, Note_on_c, 4, 90, 0
4, 6353, Note_on_c, 4, 86, 0
4, 6379, Note_on_c, 4, 90, 90
4, 6379, Note_on_c, 4, 93, 90
4, 6380, Note_on_c, 4, 91, 0
4, 6382, Note_on_c, 4, 88, 0
4, 6406, Note_on_c, 4, 90, 0
4, 6407, Note_on_c, 4, 93, 0
4, 6409, Note_on_c, 4, 91, 90
4, 6410, Note_on_c, 4, 95, 90
4, 6429, Note_on_c, 4, 98, 0
4, 6436, Note_on_c, 4, 83, 0
4, 6437, Note_on_c, 4, 100, 90
4, 6463, Note_on_c, 4, 91, 0
4, 6468, Note_on_c, 4, 100, 0
4, 6468, Note_on_c, 4, 102, 90
4, 6469, Note_on_c, 4, 84, 90
4, 6470, Note_on_c, 4, 95, 0
4, 6470, Note_on_c, 4, 81, 90
4, 6500, Note_on_c, 4, 100, 90
4, 6529, Note_on_c, 4, 98, 90
4, 6530, Note_on_c, 4, 100, 0
4, 6557, Note_on_c, 4, 98, 0
4, 6558, Note_on_c, 4, 96, 90
4, 6589, Note_on_c, 4, 95, 90
4, 6590, Note_on_c, 4, 96, 0
4, 6614, Note_on_c, 4, 81, 0
4, 6615, Note_on_c, 4, 93, 90
4, 6616, Note_on_c, 4, 84, 0
4, 6617, Note_on_c, 4, 95, 0
4, 6625, Note_on_c, 4, 93, 0
4, 6628, Note_on_c, 4, 102, 0
4, 6645, Note_on_c, 4, 95, 90
4, 6646, Note_on_c, 4, 79, 90
4, 6647, Note_on_c, 4, 86, 90
4, 6677, Note_on_c, 4, 98, 90
4, 6680, Note_on_c, 4, 95, 0
4, 6705, Note_on_c, 4, 79, 0
4, 6705, Note_on_c, 4, 103, 90
4, 6706, Note_on_c, 4, 98, 0
4, 6707, Note_on_c, 4, 86, 0
4, 6734, Note_on_c, 4, 103, 0
4, 6734, Note_on_c, 4, 102, 90
4, 6735, Note_on_c, 4, 86, 90
4, 6764, Note_on_c, 4, 103, 90
4, 6765, Note_on_c, 4, 102, 0
4, 6765, Note_on_c, 4, 86, 0
4, 6765, Note_on_c, 4, 91, 90
4, 6791, Note_on_c, 4, 90, 90
4, 6792, Note_on_c, 4, 98, 90
4, 6793, Note_on_c, 4, 91, 0
4, 6795, Note_on_c, 4, 103, 0
4, 6822, Note_on_c, 4, 98, 0
4, 6822, Note_on_c, 4, 95, 90
4, 6823, Note_on_c, 4, 90, 0
4, 6825, Note_on_c, 4, 91, 90
4, 6850, Note_on_c, 4, 95, 0
4, 6852, Note_on_c, 4, 98, 90
4, 6853, Note_on_c, 4, 86, 90
4, 6854, Note_on_c, 4, 91, 0
4, 6883, Note_on_c, 4, 98, 0
4, 6883, Note_on_c, 4, 86, 0
4, 6883, Note_on_c, 4, 91, 90
4, 6883, Note_on_c, 4, 83, 90
4, 6911, Note_on_c, 4, 83, 0
4, 6912, Note_on_c, 4, 91, 0
4, 6912, Note_on_c, 4, 95, 90
4, 6912, Note_on_c, 4, 86, 90
4, 6939, Note_on_c, 4, 95, 0
4, 6939, Note_on_c, 4, 86, 0
4, 6940, Note_on_c, 4, 93, 90
4, 6941, Note_on_c, 4, 84, 90
4, 6966, Note_on_c, 4, 93, 0
4, 6966, Note_on_c, 4, 84, 0
4, 6966, Note_on_c, 4, 91, 90
4, 6967, Note_on_c, 4, 83, 90
4, 6998, Note_on_c, 4, 91, 0
4, 6998, Note_on_c, 4, 83, 0
4, 6999, Note_on_c, 4, 84, 90
4, 6999, Note_on_c, 4, 93, 90
4, 7035, Note_on_c, 4, 84, 0
4, 7035, Note_on_c, 4, 93, 0
4, 7035, Note_on_c, 4, 96, 90
4, 7035, Note_on_c, 4, 88, 90
4, 7064, Note_on_c, 4, 96, 0
4, 7064, Note_on_c, 4, 81, 90
4, 7064, Note_on_c, 4, 90, 90
4, 7066, Note_on_c, 4, 88, 0
4, 7093, Note_on_c, 4, 93, 90
4, 7094, Note_on_c, 4, 81, 0
4, 7094, Note_on_c, 4, 90, 0
4, 7094, Note_on_c, 4, 84, 90
4, 7121, Note_on_c, 4, 93, 0
4, 7121, Note_on_c, 4, 91, 90
4, 7123, Note_on_c, 4, 83, 90
4, 7124, Note_on_c, 4, 84, 0
4, 7149, Note_on_c, 4, 90, 90
4, 7150, Note_on_c, 4, 91, 0
4, 7150, Note_on_c, 4, 81, 90
4, 7151, Note_on_c, 4, 83, 0
4, 7180, Note_on_c, 4, 90, 0
4, 7181, Note_on_c, 4, 91, 90
4, 7183, Note_on_c, 4, 83, 90
4, 7185, Note_on_c, 4, 81, 0
4, 7215, Note_on_c, 4, 95, 90
4, 7216, Note_on_c, 4, 91, 0
4, 7217, Note_on_c, 4, 83, 0
4, 7218, Note_on_c, 4, 86, 90
4, 7246, Note_on_c, 4, 79, 90
4, 7246, Note_on_c, 4, 88, 90
4, 7247, Note_on_c, 4, 95, 0
4, 7249, Note_on_c, 4, 86, 0
4, 7275, Note_on_c, 4, 91, 90
4, 7275, Note_on_c, 4, 83, 90
4, 7276, Note_on_c, 4, 79, 0
4, 7276, Note_on_c, 4, 88, 0
4, 7305, Note_on_c, 4, 91, 0
4, 7305, Note_on_c, 4, 83, 0
4, 7305, Note_on_c, 4, 90, 90
4, 7306, Note_on_c, 4, 81, 90
4, 7332, Note_on_c, 4, 88, 90
4, 7333, Note_on_c, 4, 90, 0
4, 7334, Note_on_c, 4, 79, 90
4, 7336, Note_on_c, 4, 81, 0
4, 7354, Note_on_c, 4, 88, 0
4, 7360, Note_on_c, 4, 79, 0
4, 7365, Note_on_c, 4, 81, 90
4, 7365, Note_on_c, 4, 90, 90
4, 7399, Note_on_c, 4, 88, 90
4, 7428, Note_on_c, 4, 86, 90
4, 7430, Note_on_c, 4, 88, 0
4, 7456, Note_on_c, 4, 86, 0
4, 7458, Note_on_c, 4, 84, 90
4, 7487, Note_on_c, 4, 81, 0
4, 7488, Note_on_c, 4, 84, 0
4, 7488, Note_on_c, 4, 83, 90
4, 7514, Note_on_c, 4, 81, 90
4, 7515, Note_on_c, 4, 83, 0
4, 7540, Note_on_c, 4, 90, 0
4, 7551, Note_on_c, 4, 79, 90
4, 7552, Note_on_c, 4, 81, 0
4, 7552, Note_on_c, 4, 83, 90
4, 7582, Note_on_c, 4, 93, 90
4, 7609, Note_on_c, 4, 93, 0
4, 7610, Note_on_c, 4, 91, 90
4, 7639, Note_on_c, 4, 90, 90
4, 7640, Note_on_c, 4, 91, 0
4, 7670, Note_on_c, 4, 90, 0
4, 7670, Note_on_c, 4, 88, 90
4, 7674, Note_on_c, 4, 83, 0
4, 7696, Note_on_c, 4, 88, 0
4, 7697, Note_on_c, 4, 86, 90
4, 7716, Note_on_c, 4, 86, 0
4, 7728, Note_on_c, 4, 85, 90
4, 7761, Note_on_c, 4, 83, 90
4, 7776, Note_on_c, 4, 83, 0
4, 7792, Note_on_c, 4, 79, 0
4, 7792, Note_on_c, 4, 81, 90
4, 7820, Note_on_c, 4, 79, 90
4, 7851, Note_on_c, 4, 79, 0
4, 7851, Note_on_c, 4, 78, 90
4, 7879, Note_on_c, 4, 76, 90
4, 7880, Note_on_c, 4, 78, 0
4, 7897, Note_on_c, 4, 81, 0
4, 7902, Note_on_c, 4, 85, 0
4, 7906, Note_on_c, 4, 76, 0
4, 7910, Note_on_c, 4, 78, 90
4, 7941, Note_on_c, 4, 81, 90
4, 7968, Note_on_c, 4, 86, 90
4, 7976, Note_on_c, 4, 78, 0
4, 7993, Note_on_c, 4, 78, 90
4, 8018, Note_on_c, 4, 81, 0
4, 8020, Note_on_c, 4, 78, 0
4, 8028, Note_on_c, 4, 76, 90
4, 8030, Note_on_c, 4, 79, 90
4, 8056, Note_on_c, 4, 76, 0
4, 8056, Note_on_c, 4, 79, 0
4, 8057, Note_on_c, 4, 84, 90
4, 8061, Note_on_c, 4, 86, 0
4, 8087, Note_on_c, 4, 78, 90
4, 8088, Note_on_c, 4, 74, 90
4, 8091, Note_on_c, 4, 84, 0
4, 8121, Note_on_c, 4, 88, 90
4, 8152, Note_on_c, 4, 88, 0
4, 8152, Note_on_c, 4, 86, 90
4, 8181, Note_on_c, 4, 84, 90
4, 8182, Note_on_c, 4, 86, 0
4, 8208, Note_on_c, 4, 84, 0
4, 8209, Note_on_c, 4, 83, 90
4, 8239, Note_on_c, 4, 81, 90
4, 8240, Note_on_c, 4, 83, 0
4, 8251, Note_on_c, 4, 81, 0
4, 8272, Note_on_c, 4, 83, 90
4, 8300, Note_on_c, 4, 81, 90
4, 8301, Note_on_c, 4, 78, 0
4, 8330, Note_on_c, 4, 79, 90
4, 8331, Note_on_c, 4, 81, 0
4, 8360, Note_on_c, 4, 78, 90
4, 8361, Note_on_c, 4, 79, 0
4, 8391, Note_on_c, 4, 78, 0
4, 8391, Note_on_c, 4, 79, 90
4, 8392, Note_on_c, 4, 83, 0
4, 8418, Note_on_c, 4, 83, 90
4, 8438, Note_on_c, 4, 83, 0
4, 8449, Note_on_c, 4, 81, 90
4, 8453, Note_on_c, 4, 79, 0
4, 8480, Note_on_c, 4, 79, 90
4, 8508, Note_on_c, 4, 78, 90
4, 8511, Note_on_c, 4, 79, 0
4, 8536, Note_on_c, 4, 76, 90
4, 8537, Note_on_c, 4, 78, 0
4, 8567, Note_on_c, 4, 78, 90
4, 8574, Note_on_c, 4, 76, 0
4, 8596, Note_on_c, 4, 83, 90
4, 8597, Note_on_c, 4, 81, 0
4, 8601, Note_on_c, 4, 78, 0
4, 8627, Note_on_c, 4, 76, 90
4, 8628, Note_on_c, 4, 85, 90
4, 8629, Note_on_c, 4, 83, 0
4, 8658, Note_on_c, 4, 85, 0
4, 8659, Note_on_c, 4, 78, 90
4, 8659, Note_on_c, 4, 86, 90
4, 8665, Note_on_c, 4, 76, 0
4, 8688, Note_on_c, 4, 88, 90
4, 8689, Note_on_c, 4, 86, 0
4, 8689, Note_on_c, 4, 79, 90
4, 8690, Note_on_c, 4, 78, 0
4, 8717, Note_on_c, 4, 90, 90
4, 8718, Note_on_c, 4, 81, 90
4, 8719, Note_on_c, 4, 88, 0
4, 8719, Note_on_c, 4, 79, 0
4, 8747, Note_on_c, 4, 90, 0
4, 8747, Note_on_c, 4, 83, 90
4, 8747, Note_on_c, 4, 91, 90
4, 8752, Note_on_c, 4, 81, 0
4, 8775, Note_on_c, 4, 83, 0
4, 8775, Note_on_c, 4, 79, 90
4, 8775, Note_on_c, 4, 85, 90
4, 8778, Note_on_c, 4, 74, 0
4, 8806, Note_on_c, 4, 79, 0
4, 8806, Note_on_c, 4, 85, 0
4, 8809, Note_on_c, 4, 86, 90
4, 8810, Note_on_c, 4, 74, 90
4, 8810, Note_on_c, 4, 81, 90
4, 8811, Note_on_c, 4, 91, 0
4, 8841, Note_on_c, 4, 91, 90
4, 8872, Note_on_c, 4, 90, 90
4, 8873, Note_on_c, 4, 91, 0
4, 8901, Note_on_c, 4, 90, 0
4, 8901, Note_on_c, 4, 88, 90
4, 8929, Note_on_c, 4, 88, 0
4, 8930, Note_on_c, 4, 90, 90
4, 8957, Note_on_c, 4, 90, 0
4, 8958, Note_on_c, 4, 91, 90
4, 8961, Note_on_c, 4, 86, 0
4, 8967, Note_on_c, 4, 91, 0
4, 8989, Note_on_c, 4, 90, 90
4, 8989, Note_on_c, 4, 93, 90
4, 9018, Note_on_c, 4, 93, 0
4, 9018, Note_on_c, 4, 91, 90
4, 9019, Note_on_c, 4, 81, 0
4, 9019, Note_on_c, 4, 76, 90
4, 9045, Note_on_c, 4, 78, 90
4, 9046, Note_on_c, 4, 76, 0
4, 9048, Note_on_c, 4, 93, 90
4, 9049, Note_on_c, 4, 91, 0
4, 9050, Note_on_c, 4, 74, 0
4, 9076, Note_on_c, 4, 79, 90
4, 9076, Note_on_c, 4, 95, 90
4, 9077, Note_on_c, 4, 78, 0
4, 9077, Note_on_c, 4, 93, 0
4, 9085, Note_on_c, 4, 95, 0
4, 9106, Note_on_c, 4, 79, 0
4, 9106, Note_on_c, 4, 81, 90
4, 9106, Note_on_c, 4, 97, 90
4, 9132, Note_on_c, 4, 83, 90
4, 9133, Note_on_c, 4, 81, 0
4, 9133, Note_on_c, 4, 98, 90
4, 9134, Note_on_c, 4, 97, 0
4, 9138, Note_on_c, 4, 90, 0
4, 9142, Note_on_c, 4, 83, 0
4, 9150, Note_on_c, 4, 98, 0
4, 9164, Note_on_c, 4, 98, 90
4, 9165, Note_on_c, 4, 79, 90
4, 9165, Note_on_c, 4, 88, 90
4, 9195, Note_on_c, 4, 79, 0
4, 9196, Note_on_c, 4, 83, 90
4, 9217, Note_on_c, 4, 98, 0
4, 9225, Note_on_c, 4, 91, 90
4, 9225, Note_on_c, 4, 76, 90
4, 9226, Note_on_c, 4, 83, 0
4, 9253, Note_on_c, 4, 79, 90
4, 9255, Note_on_c, 4, 76, 0
4, 9260, Note_on_c, 4, 91, 0
4, 9283, Note_on_c, 4, 96, 90
4, 9285, Note_on_c, 4, 79, 0
4, 9285, Note_on_c, 4, 78, 90
4, 9314, Note_on_c, 4, 78, 0
4, 9314, Note_on_c, 4, 76, 90
4, 9346, Note_on_c, 4, 78, 90
4, 9347, Note_on_c, 4, 76, 0
4, 9374, Note_on_c, 4, 88, 0
4, 9380, Note_on_c, 4, 78, 0
4, 9381, Note_on_c, 4, 81, 90
4, 9409, Note_on_c, 4, 74, 90
4, 9411, Note_on_c, 4, 90, 90
4, 9412, Note_on_c, 4, 96, 0
4, 9412, Note_on_c, 4, 81, 0
4, 9439, Note_on_c, 4, 78, 90
4, 9442, Note_on_c, 4, 74, 0
4, 9468, Note_on_c, 4, 90, 0
4, 9469, Note_on_c, 4, 95, 90
4, 9471, Note_on_c, 4, 78, 0
4, 9471, Note_on_c, 4, 76, 90
4, 9501, Note_on_c, 4, 74, 90
4, 9502, Note_on_c, 4, 76, 0
4, 9529, Note_on_c, 4, 74, 0
4, 9530, Note_on_c, 4, 76, 90
4, 9533, Note_on_c, 4, 95, 0
4, 9561, Note_on_c, 4, 98, 90
4, 9593, Note_on_c, 4, 79, 90
4, 9594, Note_on_c, 4, 96, 90
4, 9595, Note_on_c, 4, 98, 0
4, 9623, Note_on_c, 4, 96, 0
4, 9623, Note_on_c, 4, 95, 90
4, 9650, Note_on_c, 4, 95, 0
4, 9652, Note_on_c, 4, 84, 90
4, 9652, Note_on_c, 4, 93, 90
4, 9653, Note_on_c, 4, 79, 0
4, 9677, Note_on_c, 4, 76, 0
4, 9681, Note_on_c, 4, 93, 0
4, 9681, Note_on_c, 4, 91, 90
4, 9709, Note_on_c, 4, 91, 0
4, 9710, Note_on_c, 4, 90, 90
4, 9710, Note_on_c, 4, 74, 90
4, 9739, Note_on_c, 4, 84, 0
4, 9741, Note_on_c, 4, 90, 0
4, 9741, Note_on_c, 4, 88, 90
4, 9770, Note_on_c, 4, 88, 0
4, 9770, Note_on_c, 4, 78, 90
4, 9770, Note_on_c, 4, 86, 90
4, 9797, Note_on_c, 4, 86, 0
4, 9798, Note_on_c, 4, 84, 90
4, 9799, Note_on_c, 4, 81, 90
4, 9800, Note_on_c, 4, 78, 0
4, 9827, Note_on_c, 4, 84, 0
4, 9828, Note_on_c, 4, 81, 0
4, 9828, Note_on_c, 4, 79, 90
4, 9829, Note_on_c, 4, 83, 90
4, 9852, Note_on_c, 4, 79, 0
4, 9855, Note_on_c, 4, 81, 90
4, 9855, Note_on_c, 4, 78, 90
4, 9856, Note_on_c, 4, 83, 0
4, 9875, Note_on_c, 4, 81, 0
4, 9887, Note_on_c, 4, 78, 0
4, 9889, Note_on_c, 4, 79, 90
4, 9889, Note_on_c, 4, 83, 90
4, 9892, Note_on_c, 4, 74, 0
4, 9920, Note_on_c, 4, 71, 90
4, 9921, Note_on_c, 4, 86, 90
4, 9922, Note_on_c, 4, 83, 0
4, 9950, Note_on_c, 4, 72, 90
4, 9951, Note_on_c, 4, 86, 0
4, 9951, Note_on_c, 4, 88, 90
4, 9954, Note_on_c, 4, 71, 0
4, 9977, Note_on_c, 4, 74, 90
4, 9978, Note_on_c, 4, 88, 0
4, 9979, Note_on_c, 4, 90, 90
4, 9981, Note_on_c, 4, 72, 0
4, 10000, Note_on_c, 4, 74, 0
4, 10006, Note_on_c, 4, 76, 90
4, 10008, Note_on_c, 4, 91, 90
4, 10009, Note_on_c, 4, 90, 0
4, 10018, Note_on_c, 4, 79, 0
4, 10036, Note_on_c, 4, 83, 90
4, 10053, Note_on_c, 4, 83, 0
4, 10068, Note_on_c, 4, 84, 90
4, 10072, Note_on_c, 4, 91, 0
4, 10096, Note_on_c, 4, 91, 90
4, 10109, Note_on_c, 4, 76, 0
4, 10128, Note_on_c, 4, 90, 90
4, 10129, Note_on_c, 4, 91, 0
4, 10129, Note_on_c, 4, 74, 90
4, 10157, Note_on_c, 4, 88, 90
4, 10158, Note_on_c, 4, 90, 0
4, 10186, Note_on_c, 4, 88, 0
4, 10186, Note_on_c, 4, 90, 90
4, 10187, Note_on_c, 4, 72, 90
4, 10189, Note_on_c, 4, 74, 0
4, 10190, Note_on_c, 4, 84, 0
4, 10216, Note_on_c, 4, 84, 90
4, 10248, Note_on_c, 4, 90, 0
4, 10248, Note_on_c, 4, 91, 90
4, 10249, Note_on_c, 4, 74, 90
4, 10250, Note_on_c, 4, 72, 0
4, 10254, Note_on_c, 4, 84, 0
4, 10278, Note_on_c, 4, 84, 90
4, 10308, Note_on_c, 4, 84, 0
4, 10308, Note_on_c, 4, 83, 90
4, 10337, Note_on_c, 4, 81, 90
4, 10338, Note_on_c, 4, 83, 0
4, 10364, Note_on_c, 4, 81, 0
4, 10365, Note_on_c, 4, 83, 90
4, 10396, Note_on_c, 4, 74, 0
4, 10396, Note_on_c, 4, 76, 90
4, 10426, Note_on_c, 4, 76, 0
4, 10427, Note_on_c, 4, 77, 90
4, 10457, Note_on_c, 4, 86, 90
4, 10458, Note_on_c, 4, 83, 0
4, 10485, Note_on_c, 4, 84, 90
4, 10489, Note_on_c, 4, 86, 0
4, 10515, Note_on_c, 4, 83, 90
4, 10516, Note_on_c, 4, 84, 0
4, 10544, Note_on_c, 4, 81, 90
4, 10547, Note_on_c, 4, 83, 0
4, 10563, Note_on_c, 4, 81, 0
4, 10574, Note_on_c, 4, 79, 90
4, 10592, Note_on_c, 4, 79, 0
4, 10606, Note_on_c, 4, 84, 90
4, 10608, Note_on_c, 4, 77, 0
4, 10636, Note_on_c, 4, 77, 90
4, 10664, Note_on_c, 4, 76, 90
4, 10665, Note_on_c, 4, 77, 0
4, 10693, Note_on_c, 4, 74, 90
4, 10695, Note_on_c, 4, 76, 0
4, 10723, Note_on_c, 4, 74, 0
4, 10723, Note_on_c, 4, 76, 90
4, 10754, Note_on_c, 4, 78, 90
4, 10755, Note_on_c, 4, 76, 0
4, 10768, Note_on_c, 4, 78, 0
4, 10784, Note_on_c, 4, 79, 90
4, 10794, Note_on_c, 4, 84, 0
4, 10817, Note_on_c, 4, 88, 90
4, 10848, Note_on_c, 4, 86, 90
4, 10850, Note_on_c, 4, 88, 0
4, 10876, Note_on_c, 4, 84, 90
4, 10877, Note_on_c, 4, 86, 0
4, 10907, Note_on_c, 4, 83, 90
4, 10910, Note_on_c, 4, 84, 0
4, 10919, Note_on_c, 4, 83, 0
4, 10934, Note_on_c, 4, 81, 90
4, 10944, Note_on_c, 4, 81, 0
4, 10966, Note_on_c, 4, 83, 90
4, 10971, Note_on_c, 4, 79, 0
4, 11000, Note_on_c, 4, 81, 90
4, 11031, Note_on_c, 4, 81, 0
4, 11031, Note_on_c, 4, 84, 90
4, 11031, Note_on_c, 4, 79, 90
4, 11033, Note_on_c, 4, 83, 0
4, 11059, Note_on_c, 4, 77, 90
4, 11060, Note_on_c, 4, 79, 0
4, 11087, Note_on_c, 4, 77, 0
4, 11088, Note_on_c, 4, 86, 90
4, 11089, Note_on_c, 4, 84, 0
4, 11089, Note_on_c, 4, 76, 90
4, 11117, Note_on_c, 4, 76, 0
4, 11117, Note_on_c, 4, 74, 90
4, 11146, Note_on_c, 4, 74, 0
4, 11146, Note_on_c, 4, 72, 90
4, 11147, Note_on_c, 4, 86, 0
4, 11147, Note_on_c, 4, 88, 90
4, 11150, Note_on_c, 4, 91, 0
4, 11176, Note_on_c, 4, 72, 0
4, 11177, Note_on_c, 4, 74, 90
4, 11177, Note_on_c, 4, 91, 90
4, 11206, Note_on_c, 4, 93, 90
4, 11207, Note_on_c, 4, 72, 90
4, 11208, Note_on_c, 4, 91, 0
4, 11210, Note_on_c, 4, 74, 0
4, 11234, Note_on_c, 4, 72, 0
4, 11234, Note_on_c, 4, 71, 90
4, 11235, Note_on_c, 4, 95, 90
4, 11236, Note_on_c, 4, 93, 0
4, 11263, Note_on_c, 4, 96, 90
4, 11264, Note_on_c, 4, 71, 0
4, 11264, Note_on_c, 4, 69, 90
4, 11266, Note_on_c, 4, 95, 0
4, 11293, Note_on_c, 4, 90, 90
4, 11293, Note_on_c, 4, 74, 90
4, 11294, Note_on_c, 4, 88, 0
4, 11294, Note_on_c, 4, 69, 0
4, 11328, Note_on_c, 4, 91, 90
4, 11328, Note_on_c, 4, 67, 90
4, 11329, Note_on_c, 4, 90, 0
4, 11330, Note_on_c, 4, 74, 0
4, 11333, Note_on_c, 4, 96, 0
4, 11363, Note_on_c, 4, 100, 90
4, 11380, Note_on_c, 4, 67, 0
4, 11389, Note_on_c, 4, 100, 0
4, 11390, Note_on_c, 4, 98, 90
4, 11392, Note_on_c, 4, 71, 90
4, 11421, Note_on_c, 4, 96, 90
4, 11422, Note_on_c, 4, 91, 0
4, 11423, Note_on_c, 4, 98, 0
4, 11429, Note_on_c, 4, 71, 0
4, 11451, Note_on_c, 4, 96, 0
4, 11451, Note_on_c, 4, 95, 90
4, 11452, Note_on_c, 4, 74, 90
4, 11480, Note_on_c, 4, 93, 90
4, 11481, Note_on_c, 4, 95, 0
4, 11483, Note_on_c, 4, 74, 0
4, 11508, Note_on_c, 4, 93, 0
4, 11512, Note_on_c, 4, 95, 90
4, 11513, Note_on_c, 4, 79, 90
4, 11542, Note_on_c, 4, 98, 90
4, 11545, Note_on_c, 4, 95, 0
4, 11575, Note_on_c, 4, 96, 90
4, 11576, Note_on_c, 4, 98, 0
4, 11606, Note_on_c, 4, 95, 90
4, 11608, Note_on_c, 4, 96, 0
4, 11635, Note_on_c, 4, 93, 90
4, 11636, Note_on_c, 4, 95, 0
4, 11661, Note_on_c, 4, 91, 90
4, 11663, Note_on_c, 4, 93, 0
4, 11676, Note_on_c, 4, 91, 0
4, 11693, Note_on_c, 4, 93, 90
4, 11701, Note_on_c, 4, 79, 0
4, 11724, Note_on_c, 4, 79, 90
4, 11755, Note_on_c, 4, 79, 0
4, 11755, Note_on_c, 4, 81, 90
4, 11755, Note_on_c, 4, 78, 90
4, 11781, Note_on_c, 4, 78, 0
4, 11783, Note_on_c, 4, 76, 90
4, 11788, Note_on_c, 4, 81, 0
4, 11814, Note_on_c, 4, 86, 90
4, 11816, Note_on_c, 4, 93, 0
4, 11816, Note_on_c, 4, 76, 0
4, 11816, Note_on_c, 4, 78, 90
4, 11843, Note_on_c, 4, 93, 90
4, 11850, Note_on_c, 4, 78, 0
4, 11877, Note_on_c, 4, 91, 90
4, 11877, Note_on_c, 4, 79, 90
4, 11883, Note_on_c, 4, 86, 0
4, 11883, Note_on_c, 4, 93, 0
4, 11906, Note_on_c, 4, 86, 90
4, 11935, Note_on_c, 4, 84, 90
4, 11936, Note_on_c, 4, 86, 0
4, 11962, Note_on_c, 4, 84, 0
4, 11964, Note_on_c, 4, 83, 90
4, 11993, Note_on_c, 4, 83, 0
4, 11995, Note_on_c, 4, 84, 90
4, 12053, Note_on_c, 4, 91, 0
4, 12057, Note_on_c, 4, 86, 90
4, 12063, Note_on_c, 4, 84, 0
4, 12086, Note_on_c, 4, 84, 90
4, 12113, Note_on_c, 4, 83, 90
4, 12118, Note_on_c, 4, 84, 0
4, 12134, Note_on_c, 4, 83, 0
4, 12141, Note_on_c, 4, 81, 90
4, 12156, Note_on_c, 4, 81, 0
4, 12170, Note_on_c, 4, 83, 90
4, 12177, Note_on_c, 4, 86, 0
4, 12199, Note_on_c, 4, 83, 0
4, 12199, Note_on_c, 4, 88, 90
4, 12233, Note_on_c, 4, 88, 0
4, 12234, Note_on_c, 4, 84, 90
4, 12234, Note_on_c, 4, 90, 90
4, 12237, Note_on_c, 4, 79, 0
4, 12264, Note_on_c, 4, 83, 90
4, 12294, Note_on_c, 4, 81, 90
4, 12295, Note_on_c, 4, 83, 0
4, 12323, Note_on_c, 4, 81, 0
4, 12323, Note_on_c, 4, 79, 90
4, 12352, Note_on_c, 4, 79, 0
4, 12353, Note_on_c, 4, 78, 90
4, 12377, Note_on_c, 4, 84, 0
4, 12380, Note_on_c, 4, 78, 0
4, 12380, Note_on_c, 4, 76, 90
4, 12406, Note_on_c, 4, 76, 0
4, 12409, Note_on_c, 4, 90, 0
4, 12411, Note_on_c, 4, 86, 90
4, 12415, Note_on_c, 4, 74, 90
4, 12441, Note_on_c, 4, 90, 90
4, 12468, Note_on_c, 4, 92, 90
4, 12470, Note_on_c, 4, 76, 90
4, 12471, Note_on_c, 4, 74, 0
4, 12471, Note_on_c, 4, 90, 0
4, 12496, Note_on_c, 4, 93, 90
4, 12498, Note_on_c, 4, 92, 0
4, 12523, Note_on_c, 4, 95, 90
4, 12526, Note_on_c, 4, 76, 0
4, 12526, Note_on_c, 4, 93, 0
4, 12526, Note_on_c, 4, 77, 90
4, 12550, Note_on_c, 4, 96, 90
4, 12556, Note_on_c, 4, 95, 0
4, 12556, Note_on_c, 4, 77, 0
4, 12569, Note_on_c, 4, 96, 0
4, 12579, Note_on_c, 4, 76, 90
4, 12582, Note_on_c, 4, 92, 90
4, 12611, Note_on_c, 4, 86, 0
4, 12612, Note_on_c, 4, 89, 90
4, 12638, Note_on_c, 4, 77, 90
4, 12640, Note_on_c, 4, 76, 0
4, 12641, Note_on_c, 4, 89, 0
4, 12641, Note_on_c, 4, 88, 90
4, 12668, Note_on_c, 4, 86, 90
4, 12670, Note_on_c, 4, 88, 0
4, 12682, Note_on_c, 4, 77, 0
4, 12697, Note_on_c, 4, 74, 90
4, 12700, Note_on_c, 4, 86, 0
4, 12701, Note_on_c, 4, 85, 90
4, 12724, Note_on_c, 4, 74, 0
4, 12730, Note_on_c, 4, 85, 0
4, 12731, Note_on_c, 4, 86, 90
4, 12758, Note_on_c, 4, 76, 90
4, 12759, Note_on_c, 4, 92, 0
4, 12759, Note_on_c, 4, 93, 90
4, 12767, Note_on_c, 4, 86, 0
4, 12789, Note_on_c, 4, 86, 90
4, 12819, Note_on_c, 4, 85, 90
4, 12820, Note_on_c, 4, 86, 0
4, 12848, Note_on_c, 4, 83, 90
4, 12849, Note_on_c, 4, 85, 0
4, 12877, Note_on_c, 4, 85, 90
4, 12879, Note_on_c, 4, 83, 0
4, 12903, Note_on_c, 4, 91, 90
4, 12904, Note_on_c, 4, 93, 0
4, 12914, Note_on_c, 4, 85, 0
4, 12935, Note_on_c, 4, 91, 0
4, 12936, Note_on_c, 4, 76, 0
4, 12936, Note_on_c, 4, 89, 90
4, 12962, Note_on_c, 4, 73, 90
4, 12964, Note_on_c, 4, 81, 90
4, 12990, Note_on_c, 4, 73, 0
4, 12990, Note_on_c, 4, 74, 90
4, 12993, Note_on_c, 4, 83, 90
4, 12995, Note_on_c, 4, 81, 0
4, 13017, Note_on_c, 4, 76, 90
4, 13018, Note_on_c, 4, 74, 0
4, 13019, Note_on_c, 4, 83, 0
4, 13021, Note_on_c, 4, 85, 90
4, 13043, Note_on_c, 4, 84, 90
4, 13048, Note_on_c, 4, 84, 0
4, 13049, Note_on_c, 4, 77, 90
4, 13050, Note_on_c, 4, 85, 0
4, 13052, Note_on_c, 4, 86, 90
4, 13053, Note_on_c, 4, 76, 0
4, 13077, Note_on_c, 4, 77, 0
4, 13078, Note_on_c, 4, 79, 90
4, 13106, Note_on_c, 4, 89, 0
4, 13108, Note_on_c, 4, 79, 0
4, 13108, Note_on_c, 4, 81, 90
4, 13114, Note_on_c, 4, 88, 90
4, 13116, Note_on_c, 4, 86, 0
4, 13147, Note_on_c, 4, 86, 90
4, 13178, Note_on_c, 4, 85, 90
4, 13179, Note_on_c, 4, 86, 0
4, 13205, Note_on_c, 4, 85, 0
4, 13206, Note_on_c, 4, 83, 90
4, 13238, Note_on_c, 4, 85, 90
4, 13240, Note_on_c, 4, 88, 0
4, 13244, Note_on_c, 4, 83, 0
4, 13269, Note_on_c, 4, 89, 90
4, 13287, Note_on_c, 4, 89, 0
4, 13303, Note_on_c, 4, 91, 90
4, 13311, Note_on_c, 4, 81, 0
4, 13329, Note_on_c, 4, 82, 90
4, 13360, Note_on_c, 4, 82, 0
4, 13361, Note_on_c, 4, 81, 90
4, 13371, Note_on_c, 4, 91, 0
4, 13371, Note_on_c, 4, 88, 90
4, 13389, Note_on_c, 4, 79, 90
4, 13390, Note_on_c, 4, 81, 0
4, 13397, Note_on_c, 4, 88, 0
4, 13422, Note_on_c, 4, 77, 90
4, 13423, Note_on_c, 4, 79, 0
4, 13428, Note_on_c, 4, 93, 90
4, 13452, Note_on_c, 4, 76, 90
4, 13453, Note_on_c, 4, 93, 0
4, 13455, Note_on_c, 4, 77, 0
4, 13464, Note_on_c, 4, 76, 0
4, 13485, Note_on_c, 4, 74, 90
4, 13490, Note_on_c, 4, 89, 90
4, 13517, Note_on_c, 4, 74, 0
4, 13517, Note_on_c, 4, 76, 90
4, 13548, Note_on_c, 4, 74, 90
4, 13549, Note_on_c, 4, 76, 0
4, 13553, Note_on_c, 4, 81, 90
4, 13559, Note_on_c, 4, 85, 0
4, 13572, Note_on_c, 4, 81, 0
4, 13577, Note_on_c, 4, 74, 0
4, 13578, Note_on_c, 4, 72, 90
4, 13608, Note_on_c, 4, 72, 0
4, 13609, Note_on_c, 4, 71, 90
4, 13612, Note_on_c, 4, 86, 90
4, 13639, Note_on_c, 4, 69, 90
4, 13640, Note_on_c, 4, 71, 0
4, 13652, Note_on_c, 4, 69, 0
4, 13673, Note_on_c, 4, 89, 0
4, 13673, Note_on_c, 4, 68, 90
4, 13674, Note_on_c, 4, 86, 0
4, 13674, Note_on_c, 4, 83, 90
4, 13705, Note_on_c, 4, 89, 90
4, 13729, Note_on_c, 4, 89, 0
4, 13734, Note_on_c, 4, 88, 90
4, 13763, Note_on_c, 4, 86, 90
4, 13767, Note_on_c, 4, 88, 0
4, 13791, Note_on_c, 4, 85, 90
4, 13792, Note_on_c, 4, 86, 0
4, 13820, Note_on_c, 4, 86, 90
4, 13821, Note_on_c, 4, 85, 0
4, 13836, Note_on_c, 4, 68, 0
4, 13843, Note_on_c, 4, 86, 0
4, 13848, Note_on_c, 4, 69, 90
4, 13854, Note_on_c, 4, 85, 90
4, 13860, Note_on_c, 4, 83, 0
4, 13885, Note_on_c, 4, 83, 90
4, 13914, Note_on_c, 4, 83, 0
4, 13915, Note_on_c, 4, 81, 90
4, 13945, Note_on_c, 4, 79, 90
4, 13947, Note_on_c, 4, 81, 0
4, 13958, Note_on_c, 4, 79, 0
4, 13974, Note_on_c, 4, 78, 90
4, 13988, Note_on_c, 4, 78, 0
4, 14003, Note_on_c, 4, 76, 90
4, 14016, Note_on_c, 4, 76, 0
4, 14034, Note_on_c, 4, 69, 0
4, 14036, Note_on_c, 4, 78, 90
4, 14042, Note_on_c, 4, 85, 0
4, 14067, Note_on_c, 4, 81, 90
4, 14087, Note_on_c, 4, 81, 0
4, 14095, Note_on_c, 4, 86, 90
4, 14110, Note_on_c, 4, 78, 0
4, 14122, Note_on_c, 4, 78, 90
4, 14133, Note_on_c, 4, 78, 0
4, 14152, Note_on_c, 4, 76, 90
4, 14182, Note_on_c, 4, 85, 90
4, 14184, Note_on_c, 4, 86, 0
4, 14190, Note_on_c, 4, 76, 0
4, 14195, Note_on_c, 4, 85, 0
4, 14217, Note_on_c, 4, 86, 90
4, 14218, Note_on_c, 4, 74, 90
4, 14251, Note_on_c, 4, 62, 90
4, 14279, Note_on_c, 4, 64, 90
4, 14283, Note_on_c, 4, 62, 0
4, 14310, Note_on_c, 4, 66, 90
4, 14311, Note_on_c, 4, 64, 0
4, 14339, Note_on_c, 4, 67, 90
4, 14341, Note_on_c, 4, 66, 0
4, 14367, Note_on_c, 4, 69, 90
4, 14368, Note_on_c, 4, 74, 0
4, 14369, Note_on_c, 4, 67, 0
4, 14372, Note_on_c, 4, 86, 0
4, 14397, Note_on_c, 4, 69, 0
4, 14399, Note_on_c, 4, 71, 90
4, 14428, Note_on_c, 4, 88, 90
4, 14459, Note_on_c, 4, 86, 90
4, 14462, Note_on_c, 4, 88, 0
4, 14487, Note_on_c, 4, 84, 90
4, 14488, Note_on_c, 4, 86, 0
4, 14518, Note_on_c, 4, 83, 90
4, 14519, Note_on_c, 4, 84, 0
4, 14545, Note_on_c, 4, 81, 90
4, 14548, Note_on_c, 4, 83, 0
4, 14555, Note_on_c, 4, 81, 0
4, 14575, Note_on_c, 4, 79, 90
4, 14585, Note_on_c, 4, 71, 0
4, 14605, Note_on_c, 4, 90, 90
4, 14635, Note_on_c, 4, 69, 90
4, 14636, Note_on_c, 4, 90, 0
4, 14636, Note_on_c, 4, 91, 90
4, 14664, Note_on_c, 4, 91, 0
4, 14664, Note_on_c, 4, 93, 90
4, 14668, Note_on_c, 4, 69, 0
4, 14695, Note_on_c, 4, 95, 90
4, 14696, Note_on_c, 4, 93, 0
4, 14696, Note_on_c, 4, 67, 90
4, 14719, Note_on_c, 4, 67, 0
4, 14725, Note_on_c, 4, 95, 0
4, 14725, Note_on_c, 4, 97, 90
4, 14752, Note_on_c, 4, 69, 90
4, 14753, Note_on_c, 4, 97, 0
4, 14753, Note_on_c, 4, 98, 90
4, 14758, Note_on_c, 4, 79, 0
4, 14782, Note_on_c, 4, 79, 90
4, 14802, Note_on_c, 4, 98, 0
4, 14813, Note_on_c, 4, 78, 90
4, 14814, Note_on_c, 4, 79, 0
4, 14814, Note_on_c, 4, 93, 90
4, 14842, Note_on_c, 4, 76, 90
4, 14843, Note_on_c, 4, 78, 0
4, 14850, Note_on_c, 4, 93, 0
4, 14873, Note_on_c, 4, 76, 0
4, 14873, Note_on_c, 4, 78, 90
4, 14874, Note_on_c, 4, 98, 90
4, 14902, Note_on_c, 4, 79, 90
4, 14905, Note_on_c, 4, 78, 0
4, 14916, Note_on_c, 4, 79, 0
4, 14924, Note_on_c, 4, 69, 0
4, 14935, Note_on_c, 4, 81, 90
4, 14936, Note_on_c, 4, 74, 90
4, 14965, Note_on_c, 4, 98, 0
4, 14966, Note_on_c, 4, 96, 90
4, 14994, Note_on_c, 4, 95, 90
4, 14997, Note_on_c, 4, 96, 0
4, 15023, Note_on_c, 4, 95, 0
4, 15024, Note_on_c, 4, 93, 90
4, 15055, Note_on_c, 4, 93, 0
4, 15055, Note_on_c, 4, 92, 90
4, 15082, Note_on_c, 4, 92, 0
4, 15083, Note_on_c, 4, 93, 90
4, 15087, Note_on_c, 4, 81, 0
4, 15110, Note_on_c, 4, 93, 0
4, 15112, Note_on_c, 4, 95, 90
4, 15138, Note_on_c, 4, 95, 0
4, 15139, Note_on_c, 4, 96, 90
4, 15141, Note_on_c, 4, 77, 90
4, 15145, Note_on_c, 4, 74, 0
4, 15166, Note_on_c, 4, 96, 0
4, 15168, Note_on_c, 4, 98, 90
4, 15168, Note_on_c, 4, 76, 90
4, 15169, Note_on_c, 4, 77, 0
4, 15180, Note_on_c, 4, 98, 0
4, 15196, Note_on_c, 4, 74, 90
4, 15197, Note_on_c, 4, 76, 0
4, 15197, Note_on_c, 4, 101, 90
4, 15222, Note_on_c, 4, 101, 0
4, 15226, Note_on_c, 4, 100, 90
4, 15227, Note_on_c, 4, 72, 90
4, 15229, Note_on_c, 4, 74, 0
4, 15254, Note_on_c, 4, 71, 90
4, 15256, Note_on_c, 4, 98, 90
4, 15259, Note_on_c, 4, 100, 0
4, 15259, Note_on_c, 4, 72, 0
4, 15269, Note_on_c, 4, 71, 0
4, 15272, Note_on_c, 4, 98, 0
4, 15285, Note_on_c, 4, 96, 90
4, 15287, Note_on_c, 4, 69, 90
4, 15315, Note_on_c, 4, 95, 90
4, 15338, Note_on_c, 4, 69, 0
4, 15346, Note_on_c, 4, 76, 90
4, 15346, Note_on_c, 4, 93, 90
4, 15347, Note_on_c, 4, 95, 0
4, 15374, Note_on_c, 4, 93, 0
4, 15374, Note_on_c, 4, 91, 90
4, 15379, Note_on_c, 4, 76, 0
4, 15402, Note_on_c, 4, 91, 0
4, 15406, Note_on_c, 4, 89, 90
4, 15407, Note_on_c, 4, 81, 90
4, 15431, Note_on_c, 4, 88, 90
4, 15432, Note_on_c, 4, 89, 0
4, 15439, Note_on_c, 4, 88, 0
4, 15463, Note_on_c, 4, 81, 0
4, 15464, Note_on_c, 4, 89, 90
4, 15465, Note_on_c, 4, 96, 0
4, 15466, Note_on_c, 4, 74, 90
4, 15500, Note_on_c, 4, 96, 90
4, 15522, Note_on_c, 4, 74, 0
4, 15530, Note_on_c, 4, 95, 90
4, 15531, Note_on_c, 4, 96, 0
4, 15559, Note_on_c, 4, 86, 90
4, 15560, Note_on_c, 4, 93, 90
4, 15562, Note_on_c, 4, 95, 0
4, 15591, Note_on_c, 4, 95, 90
4, 15592, Note_on_c, 4, 93, 0
4, 15592, Note_on_c, 4, 84, 90
4, 15594, Note_on_c, 4, 86, 0
4, 15620, Note_on_c, 4, 84, 0
4, 15621, Note_on_c, 4, 83, 90
4, 15644, Note_on_c, 4, 89, 0
4, 15644, Note_on_c, 4, 95, 0
4, 15649, Note_on_c, 4, 83, 0
4, 15650, Note_on_c, 4, 88, 90
4, 15651, Note_on_c, 4, 84, 90
4, 15684, Note_on_c, 4, 98, 90
4, 15685, Note_on_c, 4, 83, 90
4, 15688, Note_on_c, 4, 84, 0
4, 15713, Note_on_c, 4, 98, 0
4, 15713, Note_on_c, 4, 81, 90
4, 15713, Note_on_c, 4, 96, 90
4, 15715, Note_on_c, 4, 83, 0
4, 15743, Note_on_c, 4, 83, 90
4, 15743, Note_on_c, 4, 95, 90
4, 15744, Note_on_c, 4, 96, 0
4, 15745, Note_on_c, 4, 81, 0
4, 15772, Note_on_c, 4, 83, 0
4, 15772, Note_on_c, 4, 84, 90
4, 15774, Note_on_c, 4, 95, 0
4, 15774, Note_on_c, 4, 93, 90
4, 15802, Note_on_c, 4, 91, 90
4, 15804, Note_on_c, 4, 93, 0
4, 15807, Note_on_c, 4, 88, 0
4, 15812, Note_on_c, 4, 91, 0
4, 15831, Note_on_c, 4, 90, 90
4, 15832, Note_on_c, 4, 86, 90
4, 15860, Note_on_c, 4, 93, 90
4, 15863, Note_on_c, 4, 90, 0
4, 15888, Note_on_c, 4, 93, 0
4, 15890, Note_on_c, 4, 95, 90
4, 15891, Note_on_c, 4, 83, 90
4, 15893, Note_on_c, 4, 86, 0
4, 15897, Note_on_c, 4, 84, 0
4, 15916, Note_on_c, 4, 96, 90
4, 15917, Note_on_c, 4, 95, 0
4, 15917, Note_on_c, 4, 88, 90
4, 15930, Note_on_c, 4, 88, 0
4, 15944, Note_on_c, 4, 96, 0
4, 15946, Note_on_c, 4, 90, 90
4, 15948, Note_on_c, 4, 98, 90
4, 15974, Note_on_c, 4, 90, 0
4, 15975, Note_on_c, 4, 92, 90
4, 15979, Note_on_c, 4, 83, 0
4, 15993, Note_on_c, 4, 98, 0
4, 15993, Note_on_c, 4, 92, 0
4, 16007, Note_on_c, 4, 93, 90
4, 16009, Note_on_c, 4, 81, 90
4, 16038, Note_on_c, 4, 81, 0
4, 16039, Note_on_c, 4, 80, 90
4, 16040, Note_on_c, 4, 101, 90
4, 16057, Note_on_c, 4, 101, 0
4, 16068, Note_on_c, 4, 100, 90
4, 16069, Note_on_c, 4, 80, 0
4, 16069, Note_on_c, 4, 81, 90
4, 16096, Note_on_c, 4, 100, 0
4, 16096, Note_on_c, 4, 98, 90
4, 16098, Note_on_c, 4, 81, 0
4, 16098, Note_on_c, 4, 83, 90
4, 16126, Note_on_c, 4, 98, 0
4, 16126, Note_on_c, 4, 96, 90
4, 16127, Note_on_c, 4, 84, 90
4, 16128, Note_on_c, 4, 83, 0
4, 16147, Note_on_c, 4, 93, 0
4, 16156, Note_on_c, 4, 95, 90
4, 16156, Note_on_c, 4, 86, 90
4, 16158, Note_on_c, 4, 96, 0
4, 16158, Note_on_c, 4, 84, 0
4, 16164, Note_on_c, 4, 95, 0
4, 16185, Note_on_c, 4, 96, 90
4, 16186, Note_on_c, 4, 88, 90
4, 16189, Note_on_c, 4, 86, 0
4, 16215, Note_on_c, 4, 95, 90
4, 16216, Note_on_c, 4, 86, 90
4, 16218, Note_on_c, 4, 88, 0
4, 16242, Note_on_c, 4, 95, 0
4, 16244, Note_on_c, 4, 84, 90
4, 16244, Note_on_c, 4, 93, 90
4, 16245, Note_on_c, 4, 86, 0
4, 16272, Note_on_c, 4, 84, 0
4, 16272, Note_on_c, 4, 93, 0
4, 16273, Note_on_c, 4, 91, 90
4, 16273, Note_on_c, 4, 83, 90
4, 16301, Note_on_c, 4, 81, 90
4, 16302, Note_on_c, 4, 91, 0
4, 16302, Note_on_c, 4, 83, 0
4, 16302, Note_on_c, 4, 90, 90
4, 16328, Note_on_c, 4, 79, 90
4, 16329, Note_on_c, 4, 88, 90
4, 16331, Note_on_c, 4, 81, 0
4, 16331, Note_on_c, 4, 90, 0
4, 16335, Note_on_c, 4, 79, 0
4, 16361, Note_on_c, 4, 78, 90
4, 16362, Note_on_c, 4, 86, 90
4, 16363, Note_on_c, 4, 88, 0
4, 16369, Note_on_c, 4, 96, 0
4, 16390, Note_on_c, 4, 98, 90
4, 16391, Note_on_c, 4, 76, 90
4, 16393, Note_on_c, 4, 78, 0
4, 16420, Note_on_c, 4, 76, 0
4, 16421, Note_on_c, 4, 96, 90
4, 16421, Note_on_c, 4, 78, 90
4, 16422, Note_on_c, 4, 98, 0
4, 16451, Note_on_c, 4, 79, 90
4, 16451, Note_on_c, 4, 95, 90
4, 16452, Note_on_c, 4, 96, 0
4, 16452, Note_on_c, 4, 78, 0
4, 16480, Note_on_c, 4, 93, 90
4, 16481, Note_on_c, 4, 86, 0
4, 16481, Note_on_c, 4, 79, 0
4, 16481, Note_on_c, 4, 95, 0
4, 16481, Note_on_c, 4, 81, 90
4, 16506, Note_on_c, 4, 93, 0
4, 16507, Note_on_c, 4, 91, 90
4, 16508, Note_on_c, 4, 81, 0
4, 16508, Note_on_c, 4, 83, 90
4, 16522, Note_on_c, 4, 91, 0
4, 16524, Note_on_c, 4, 83, 0
4, 16537, Note_on_c, 4, 90, 90
4, 16538, Note_on_c, 4, 84, 90
4, 16567, Note_on_c, 4, 90, 0
4, 16568, Note_on_c, 4, 83, 90
4, 16569, Note_on_c, 4, 84, 0
4, 16569, Note_on_c, 4, 91, 90
4, 16599, Note_on_c, 4, 91, 0
4, 16600, Note_on_c, 4, 90, 90
4, 16601, Note_on_c, 4, 83, 0
4, 16601, Note_on_c, 4, 81, 90
4, 16628, Note_on_c, 4, 90, 0
4, 16629, Note_on_c, 4, 81, 0
4, 16629, Note_on_c, 4, 79, 90
4, 16629, Note_on_c, 4, 88, 90
4, 16658, Note_on_c, 4, 79, 0
4, 16658, Note_on_c, 4, 78, 90
4, 16660, Note_on_c, 4, 88, 0
4, 16660, Note_on_c, 4, 86, 90
4, 16684, Note_on_c, 4, 76, 90
4, 16685, Note_on_c, 4, 84, 90
4, 16686, Note_on_c, 4, 78, 0
4, 16689, Note_on_c, 4, 86, 0
4, 16691, Note_on_c, 4, 76, 0
4, 16715, Note_on_c, 4, 74, 90
4, 16715, Note_on_c, 4, 83, 90
4, 16716, Note_on_c, 4, 84, 0
4, 16747, Note_on_c, 4, 74, 0
4, 16747, Note_on_c, 4, 76, 90
4, 16778, Note_on_c, 4, 76, 0
4, 16778, Note_on_c, 4, 74, 90
4, 16808, Note_on_c, 4, 72, 90
4, 16809, Note_on_c, 4, 74, 0
4, 16835, Note_on_c, 4, 72, 0
4, 16836, Note_on_c, 4, 71, 90
4, 16865, Note_on_c, 4, 71, 0
4, 16866, Note_on_c, 4, 69, 90
4, 16882, Note_on_c, 4, 83, 0
4, 16893, Note_on_c, 4, 69, 0
4, 16903, Note_on_c, 4, 67, 90
4, 16941, Note_on_c, 4, 79, 90
4, 16942, Note_on_c, 4, 71, 90
4, 16971, Note_on_c, 4, 79, 0
4, 16972, Note_on_c, 4, 81, 90
4, 16973, Note_on_c, 4, 71, 0
4, 16973, Note_on_c, 4, 72, 90
4, 17000, Note_on_c, 4, 74, 90
4, 17000, Note_on_c, 4, 83, 90
4, 17001, Note_on_c, 4, 81, 0
4, 17001, Note_on_c, 4, 72, 0
4, 17029, Note_on_c, 4, 76, 90
4, 17030, Note_on_c, 4, 74, 0
4, 17031, Note_on_c, 4, 83, 0
4, 17032, Note_on_c, 4, 84, 90
4, 17054, Note_on_c, 4, 76, 0
4, 17057, Note_on_c, 4, 84, 0
4, 17057, Note_on_c, 4, 77, 90
4, 17059, Note_on_c, 4, 86, 90
4, 17076, Note_on_c, 4, 86, 0
4, 17086, Note_on_c, 4, 77, 0
4, 17089, Note_on_c, 4, 79, 90
4, 17090, Note_on_c, 4, 88, 90
4, 17122, Note_on_c, 4, 88, 0
4, 17123, Note_on_c, 4, 86, 90
4, 17151, Note_on_c, 4, 76, 90
4, 17153, Note_on_c, 4, 79, 0
4, 17153, Note_on_c, 4, 84, 90
4, 17154, Note_on_c, 4, 86, 0
4, 17181, Note_on_c, 4, 84, 0
4, 17181, Note_on_c, 4, 86, 90
4, 17211, Note_on_c, 4, 86, 0
4, 17212, Note_on_c, 4, 88, 90
4, 17213, Note_on_c, 4, 72, 90
4, 17214, Note_on_c, 4, 76, 0
4, 17242, Note_on_c, 4, 88, 0
4, 17242, Note_on_c, 4, 72, 0
4, 17242, Note_on_c, 4, 90, 90
4, 17273, Note_on_c, 4, 71, 90
4, 17274, Note_on_c, 4, 91, 90
4, 17275, Note_on_c, 4, 90, 0
4, 17306, Note_on_c, 4, 91, 0
4, 17306, Note_on_c, 4, 90, 90
4, 17335, Note_on_c, 4, 74, 90
4, 17336, Note_on_c, 4, 90, 0
4, 17336, Note_on_c, 4, 88, 90
4, 17340, Note_on_c, 4, 71, 0
4, 17363, Note_on_c, 4, 88, 0
4, 17365, Note_on_c, 4, 90, 90
4, 17375, Note_on_c, 4, 74, 0
4, 17393, Note_on_c, 4, 90, 0
4, 17393, Note_on_c, 4, 73, 90
4, 17394, Note_on_c, 4, 91, 90
4, 17422, Note_on_c, 4, 91, 0
4, 17424, Note_on_c, 4, 93, 90
4, 17426, Note_on_c, 4, 73, 0
4, 17455, Note_on_c, 4, 74, 90
4, 17455, Note_on_c, 4, 94, 90
4, 17456, Note_on_c, 4, 93, 0
4, 17471, Note_on_c, 4, 67, 0
4, 17486, Note_on_c, 4, 93, 90
4, 17487, Note_on_c, 4, 66, 90
4, 17490, Note_on_c, 4, 74, 0
4, 17514, Note_on_c, 4, 67, 90
4, 17515, Note_on_c, 4, 66, 0
4, 17517, Note_on_c, 4, 91, 90
4, 17519, Note_on_c, 4, 93, 0
4, 17547, Note_on_c, 4, 69, 90
4, 17547, Note_on_c, 4, 90, 90
4, 17548, Note_on_c, 4, 67, 0
4, 17551, Note_on_c, 4, 91, 0
4, 17576, Note_on_c, 4, 70, 90
4, 17577, Note_on_c, 4, 69, 0
4, 17577, Note_on_c, 4, 91, 90
4, 17578, Note_on_c, 4, 94, 0
4, 17581, Note_on_c, 4, 90, 0
4, 17604, Note_on_c, 4, 94, 90
4, 17605, Note_on_c, 4, 70, 0
4, 17605, Note_on_c, 4, 72, 90
4, 17624, Note_on_c, 4, 94, 0
4, 17635, Note_on_c, 4, 72, 0
4, 17636, Note_on_c, 4, 93, 90
4, 17636, Note_on_c, 4, 74, 90
4, 17637, Note_on_c, 4, 91, 0
4, 17666, Note_on_c, 4, 76, 90
4, 17666, Note_on_c, 4, 91, 90
4, 17669, Note_on_c, 4, 74, 0
4, 17694, Note_on_c, 4, 90, 90
4, 17696, Note_on_c, 4, 76, 0
4, 17696, Note_on_c, 4, 91, 0
4, 17696, Note_on_c, 4, 78, 90
4, 17723, Note_on_c, 4, 79, 90
4, 17724, Note_on_c, 4, 78, 0
4, 17726, Note_on_c, 4, 88, 90
4, 17727, Note_on_c, 4, 90, 0
4, 17751, Note_on_c, 4, 79, 0
4, 17751, Note_on_c, 4, 90, 90
4, 17751, Note_on_c, 4, 81, 90
4, 17752, Note_on_c, 4, 93, 0
4, 17758, Note_on_c, 4, 88, 0
4, 17780, Note_on_c, 4, 93, 90
4, 17784, Note_on_c, 4, 81, 0
4, 17784, Note_on_c, 4, 74, 90
4, 17816, Note_on_c, 4, 86, 90
4, 17817, Note_on_c, 4, 82, 90
4, 17818, Note_on_c, 4, 90, 0
4, 17818, Note_on_c, 4, 74, 0
4, 17836, Note_on_c, 4, 93, 0
4, 17848, Note_on_c, 4, 93, 90
4, 17878, Note_on_c, 4, 93, 0
4, 17878, Note_on_c, 4, 91, 90
4, 17908, Note_on_c, 4, 90, 90
4, 17909, Note_on_c, 4, 91, 0
4, 17937, Note_on_c, 4, 90, 0
4, 17937, Note_on_c, 4, 91, 90
4, 17943, Note_on_c, 4, 82, 0
4, 17968, Note_on_c, 4, 82, 90
4, 17984, Note_on_c, 4, 82, 0
4, 18000, Note_on_c, 4, 81, 90
4, 18001, Note_on_c, 4, 91, 0
4, 18027, Note_on_c, 4, 91, 90
4, 18056, Note_on_c, 4, 90, 90
4, 18059, Note_on_c, 4, 91, 0
4, 18086, Note_on_c, 4, 88, 90
4, 18088, Note_on_c, 4, 90, 0
4, 18107, Note_on_c, 4, 88, 0
4, 18117, Note_on_c, 4, 90, 90
4, 18145, Note_on_c, 4, 93, 90
4, 18175, Note_on_c, 4, 98, 90
4, 18184, Note_on_c, 4, 81, 0
4, 18205, Note_on_c, 4, 84, 90
4, 18232, Note_on_c, 4, 93, 0
4, 18233, Note_on_c, 4, 96, 90
4, 18235, Note_on_c, 4, 84, 0
4, 18236, Note_on_c, 4, 83, 90
4, 18264, Note_on_c, 4, 96, 0
4, 18264, Note_on_c, 4, 83, 0
4, 18264, Note_on_c, 4, 81, 90
4, 18265, Note_on_c, 4, 86, 0
4, 18265, Note_on_c, 4, 90, 0
4, 18295, Note_on_c, 4, 89, 90
4, 18295, Note_on_c, 4, 95, 90
4, 18296, Note_on_c, 4, 83, 90
4, 18296, Note_on_c, 4, 91, 90
4, 18300, Note_on_c, 4, 81, 0
4, 18326, Note_on_c, 4, 83, 0
4, 18327, Note_on_c, 4, 86, 90
4, 18341, Note_on_c, 4, 86, 0
4, 18357, Note_on_c, 4, 85, 90
4, 18375, Note_on_c, 4, 95, 0
4, 18379, Note_on_c, 4, 89, 0
4, 18380, Note_on_c, 4, 91, 0
4, 18388, Note_on_c, 4, 83, 90
4, 18390, Note_on_c, 4, 85, 0
4, 18418, Note_on_c, 4, 94, 90
4, 18418, Note_on_c, 4, 88, 90
4, 18419, Note_on_c, 4, 85, 90
4, 18419, Note_on_c, 4, 91, 90
4, 18425, Note_on_c, 4, 83, 0
4, 18436, Note_on_c, 4, 88, 0
4, 18450, Note_on_c, 4, 85, 0
4, 18451, Note_on_c, 4, 88, 90
4, 18482, Note_on_c, 4, 86, 90
4, 18510, Note_on_c, 4, 86, 0
4, 18510, Note_on_c, 4, 85, 90
4, 18512, Note_on_c, 4, 94, 0
4, 18534, Note_on_c, 4, 88, 0
4, 18541, Note_on_c, 4, 85, 0
4, 18541, Note_on_c, 4, 93, 90
4, 18543, Note_on_c, 4, 86, 90
4, 18545, Note_on_c, 4, 91, 0
4, 18576, Note_on_c, 4, 91, 90
4, 18606, Note_on_c, 4, 90, 90
4, 18607, Note_on_c, 4, 81, 90
4, 18610, Note_on_c, 4, 91, 0
4, 18630, Note_on_c, 4, 90, 0
4, 18638, Note_on_c, 4, 88, 90
4, 18671, Note_on_c, 4, 88, 0
4, 18686, Note_on_c, 4, 74, 90
4, 18686, Note_on_c, 4, 90, 90
4, 18899, Note_on_c, 4, 74, 0
4, 18901, Note_on_c, 4, 90, 0
4, 18902, Note_on_c, 4, 98, 0
4, 18902, Note_on_c, 4, 93, 0
4, 18902, Note_on_c, 4, 86, 0
4, 18903, Note_on_c, 4, 81, 0
4, 18903, End_track
5, 0, Start_track
5, 0, Title_t, "Man 2"
5, 0, MIDI_port, 0
5, 0, Control_c, 3, 7, 73
5, 0, Control_c, 3, 93, 0
5, 0, Control_c, 3, 91, 100
5, 0, Control_c, 3, 10, 76
5, 0, Program_c, 3, 74
5, 2, Note_on_c, 3, 91, 90
5, 60, Note_on_c, 3, 86, 90
5, 60, Note_on_c, 3, 83, 90
5, 81, Note_on_c, 3, 83, 0
5, 85, Note_on_c, 3, 86, 0
5, 88, Note_on_c, 3, 81, 90
5, 89, Note_on_c, 3, 84, 90
5, 103, Note_on_c, 3, 84, 0
5, 107, Note_on_c, 3, 81, 0
5, 119, Note_on_c, 3, 86, 90
5, 119, Note_on_c, 3, 83, 90
5, 132, Note_on_c, 3, 91, 0
5, 132, Note_on_c, 3, 83, 0
5, 134, Note_on_c, 3, 86, 0
5, 176, Note_on_c, 3, 93, 90
5, 177, Note_on_c, 3, 88, 90
5, 178, Note_on_c, 3, 84, 90
5, 204, Note_on_c, 3, 84, 0
5, 217, Note_on_c, 3, 88, 0
5, 234, Note_on_c, 3, 84, 90
5, 235, Note_on_c, 3, 81, 90
5, 246, Note_on_c, 3, 84, 0
5, 250, Note_on_c, 3, 81, 0
5, 291, Note_on_c, 3, 89, 90
5, 291, Note_on_c, 3, 86, 90
5, 305, Note_on_c, 3, 93, 0
5, 306, Note_on_c, 3, 86, 0
5, 309, Note_on_c, 3, 89, 0
5, 349, Note_on_c, 3, 91, 90
5, 350, Note_on_c, 3, 86, 90
5, 350, Note_on_c, 3, 83, 90
5, 388, Note_on_c, 3, 83, 0
5, 393, Note_on_c, 3, 86, 0
5, 409, Note_on_c, 3, 83, 90
5, 410, Note_on_c, 3, 79, 90
5, 429, Note_on_c, 3, 83, 0
5, 429, Note_on_c, 3, 79, 0
5, 467, Note_on_c, 3, 88, 90
5, 467, Note_on_c, 3, 84, 90
5, 483, Note_on_c, 3, 84, 0
5, 491, Note_on_c, 3, 88, 0
5, 495, Note_on_c, 3, 91, 0
5, 529, Note_on_c, 3, 81, 90
5, 529, Note_on_c, 3, 84, 90
5, 530, Note_on_c, 3, 89, 90
5, 573, Note_on_c, 3, 84, 0
5, 586, Note_on_c, 3, 81, 0
5, 589, Note_on_c, 3, 86, 90
5, 590, Note_on_c, 3, 83, 90
5, 600, Note_on_c, 3, 83, 0
5, 605, Note_on_c, 3, 86, 0
5, 616, Note_on_c, 3, 84, 90
5, 618, Note_on_c, 3, 81, 90
5, 625, Note_on_c, 3, 84, 0
5, 630, Note_on_c, 3, 81, 0
5, 648, Note_on_c, 3, 86, 90
5, 649, Note_on_c, 3, 83, 90
5, 682, Note_on_c, 3, 83, 0
5, 688, Note_on_c, 3, 86, 0
5, 708, Note_on_c, 3, 91, 90
5, 708, Note_on_c, 3, 79, 90
5, 709, Note_on_c, 3, 89, 0
5, 709, Note_on_c, 3, 83, 90
5, 757, Note_on_c, 3, 83, 0
5, 766, Note_on_c, 3, 79, 0
5, 766, Note_on_c, 3, 84, 90
5, 767, Note_on_c, 3, 88, 90
5, 779, Note_on_c, 3, 84, 0
5, 779, Note_on_c, 3, 88, 0
5, 796, Note_on_c, 3, 83, 90
5, 796, Note_on_c, 3, 86, 90
5, 807, Note_on_c, 3, 86, 0
5, 823, Note_on_c, 3, 88, 90
5, 824, Note_on_c, 3, 83, 0
5, 826, Note_on_c, 3, 84, 90
5, 827, Note_on_c, 3, 91, 0
5, 871, Note_on_c, 3, 84, 0
5, 877, Note_on_c, 3, 96, 90
5, 879, Note_on_c, 3, 81, 90
5, 903, Note_on_c, 3, 88, 0
5, 907, Note_on_c, 3, 79, 90
5, 910, Note_on_c, 3, 81, 0
5, 936, Note_on_c, 3, 79, 0
5, 938, Note_on_c, 3, 89, 90
5, 938, Note_on_c, 3, 81, 90
5, 956, Note_on_c, 3, 89, 0
5, 967, Note_on_c, 3, 91, 90
5, 968, Note_on_c, 3, 83, 90
5, 971, Note_on_c, 3, 81, 0
5, 979, Note_on_c, 3, 83, 0
5, 981, Note_on_c, 3, 91, 0
5, 995, Note_on_c, 3, 93, 90
5, 999, Note_on_c, 3, 84, 90
5, 1024, Note_on_c, 3, 91, 90
5, 1027, Note_on_c, 3, 93, 0
5, 1031, Note_on_c, 3, 96, 0
5, 1043, Note_on_c, 3, 91, 0
5, 1060, Note_on_c, 3, 98, 90
5, 1061, Note_on_c, 3, 89, 90
5, 1121, Note_on_c, 3, 86, 90
5, 1122, Note_on_c, 3, 89, 0
5, 1122, Note_on_c, 3, 83, 90
5, 1124, Note_on_c, 3, 84, 0
5, 1138, Note_on_c, 3, 83, 0
5, 1149, Note_on_c, 3, 86, 0
5, 1153, Note_on_c, 3, 81, 90
5, 1182, Note_on_c, 3, 81, 0
5, 1183, Note_on_c, 3, 91, 90
5, 1184, Note_on_c, 3, 83, 90
5, 1204, Note_on_c, 3, 83, 0
5, 1243, Note_on_c, 3, 91, 0
5, 1243, Note_on_c, 3, 96, 90
5, 1243, Note_on_c, 3, 88, 90
5, 1244, Note_on_c, 3, 98, 0
5, 1245, Note_on_c, 3, 84, 90
5, 1301, Note_on_c, 3, 79, 90
5, 1304, Note_on_c, 3, 84, 0
5, 1331, Note_on_c, 3, 79, 0
5, 1331, Note_on_c, 3, 77, 90
5, 1362, Note_on_c, 3, 77, 0
5, 1365, Note_on_c, 3, 79, 90
5, 1367, Note_on_c, 3, 96, 0
5, 1369, Note_on_c, 3, 88, 0
5, 1381, Note_on_c, 3, 79, 0
5, 1425, Note_on_c, 3, 96, 90
5, 1427, Note_on_c, 3, 72, 90
5, 1454, Note_on_c, 3, 72, 0
5, 1486, Note_on_c, 3, 88, 90
5, 1487, Note_on_c, 3, 91, 90
5, 1500, Note_on_c, 3, 88, 0
5, 1513, Note_on_c, 3, 91, 0
5, 1516, Note_on_c, 3, 89, 90
5, 1516, Note_on_c, 3, 86, 90
5, 1538, Note_on_c, 3, 89, 0
5, 1541, Note_on_c, 3, 86, 0
5, 1547, Note_on_c, 3, 88, 90
5, 1548, Note_on_c, 3, 91, 90
5, 1558, Note_on_c, 3, 96, 0
5, 1564, Note_on_c, 3, 91, 0
5, 1566, Note_on_c, 3, 88, 0
5, 1603, Note_on_c, 3, 91, 90
5, 1604, Note_on_c, 3, 86, 90
5, 1605, Note_on_c, 3, 83, 90
5, 1650, Note_on_c, 3, 86, 0
5, 1651, Note_on_c, 3, 83, 0
5, 1665, Note_on_c, 3, 83, 90
5, 1666, Note_on_c, 3, 79, 90
5, 1683, Note_on_c, 3, 83, 0
5, 1683, Note_on_c, 3, 79, 0
5, 1723, Note_on_c, 3, 88, 90
5, 1724, Note_on_c, 3, 84, 90
5, 1746, Note_on_c, 3, 91, 0
5, 1748, Note_on_c, 3, 88, 0
5, 1748, Note_on_c, 3, 84, 0
5, 1785, Note_on_c, 3, 93, 90
5, 1786, Note_on_c, 3, 84, 90
5, 1786, Note_on_c, 3, 77, 90
5, 1824, Note_on_c, 3, 84, 0
5, 1832, Note_on_c, 3, 77, 0
5, 1842, Note_on_c, 3, 89, 90
5, 1844, Note_on_c, 3, 86, 90
5, 1870, Note_on_c, 3, 88, 90
5, 1871, Note_on_c, 3, 89, 0
5, 1871, Note_on_c, 3, 86, 0
5, 1873, Note_on_c, 3, 84, 90
5, 1878, Note_on_c, 3, 88, 0
5, 1888, Note_on_c, 3, 84, 0
5, 1895, Note_on_c, 3, 93, 0
5, 1904, Note_on_c, 3, 89, 90
5, 1904, Note_on_c, 3, 95, 90
5, 1906, Note_on_c, 3, 86, 90
5, 1929, Note_on_c, 3, 86, 0
5, 1961, Note_on_c, 3, 89, 0
5, 1963, Note_on_c, 3, 96, 90
5, 1964, Note_on_c, 3, 91, 90
5, 1964, Note_on_c, 3, 88, 90
5, 1967, Note_on_c, 3, 95, 0
5, 2004, Note_on_c, 3, 88, 0
5, 2024, Note_on_c, 3, 91, 0
5, 2024, Note_on_c, 3, 76, 90
5, 2024, Note_on_c, 3, 93, 90
5, 2051, Note_on_c, 3, 93, 0
5, 2053, Note_on_c, 3, 91, 90
5, 2054, Note_on_c, 3, 76, 0
5, 2084, Note_on_c, 3, 81, 90
5, 2084, Note_on_c, 3, 89, 90
5, 2085, Note_on_c, 3, 91, 0
5, 2110, Note_on_c, 3, 88, 90
5, 2116, Note_on_c, 3, 89, 0
5, 2120, Note_on_c, 3, 88, 0
5, 2122, Note_on_c, 3, 96, 0
5, 2144, Note_on_c, 3, 98, 90
5, 2145, Note_on_c, 3, 86, 90
5, 2146, Note_on_c, 3, 77, 90
5, 2150, Note_on_c, 3, 81, 0
5, 2187, Note_on_c, 3, 77, 0
5, 2189, Note_on_c, 3, 86, 0
5, 2205, Note_on_c, 3, 91, 90
5, 2206, Note_on_c, 3, 74, 90
5, 2226, Note_on_c, 3, 74, 0
5, 2230, Note_on_c, 3, 91, 0
5, 2235, Note_on_c, 3, 89, 90
5, 2248, Note_on_c, 3, 89, 0
5, 2265, Note_on_c, 3, 91, 90
5, 2267, Note_on_c, 3, 79, 90
5, 2298, Note_on_c, 3, 98, 0
5, 2302, Note_on_c, 3, 79, 0
5, 2328, Note_on_c, 3, 100, 90
5, 2330, Note_on_c, 3, 72, 90
5, 2360, Note_on_c, 3, 76, 90
5, 2362, Note_on_c, 3, 72, 0
5, 2368, Note_on_c, 3, 91, 0
5, 2390, Note_on_c, 3, 76, 0
5, 2391, Note_on_c, 3, 79, 90
5, 2391, Note_on_c, 3, 88, 90
5, 2420, Note_on_c, 3, 77, 90
5, 2422, Note_on_c, 3, 88, 0
5, 2423, Note_on_c, 3, 79, 0
5, 2449, Note_on_c, 3, 77, 0
5, 2449, Note_on_c, 3, 91, 90
5, 2450, Note_on_c, 3, 76, 90
5, 2478, Note_on_c, 3, 91, 0
5, 2480, Note_on_c, 3, 74, 90
5, 2481, Note_on_c, 3, 76, 0
5, 2487, Note_on_c, 3, 100, 0
5, 2509, Note_on_c, 3, 100, 90
5, 2509, Note_on_c, 3, 96, 90
5, 2510, Note_on_c, 3, 76, 90
5, 2514, Note_on_c, 3, 74, 0
5, 2542, Note_on_c, 3, 95, 90
5, 2544, Note_on_c, 3, 96, 0
5, 2570, Note_on_c, 3, 93, 90
5, 2572, Note_on_c, 3, 95, 0
5, 2572, Note_on_c, 3, 72, 90
5, 2573, Note_on_c, 3, 76, 0
5, 2599, Note_on_c, 3, 91, 90
5, 2608, Note_on_c, 3, 93, 0
5, 2616, Note_on_c, 3, 91, 0
5, 2628, Note_on_c, 3, 93, 90
5, 2630, Note_on_c, 3, 72, 0
5, 2630, Note_on_c, 3, 84, 90
5, 2659, Note_on_c, 3, 90, 90
5, 2661, Note_on_c, 3, 100, 0
5, 2661, Note_on_c, 3, 93, 0
5, 2692, Note_on_c, 3, 98, 90
5, 2720, Note_on_c, 3, 84, 0
5, 2750, Note_on_c, 3, 83, 90
5, 2751, Note_on_c, 3, 91, 90
5, 2754, Note_on_c, 3, 90, 0
5, 2777, Note_on_c, 3, 83, 0
5, 2779, Note_on_c, 3, 81, 90
5, 2780, Note_on_c, 3, 91, 0
5, 2781, Note_on_c, 3, 90, 90
5, 2807, Note_on_c, 3, 81, 0
5, 2809, Note_on_c, 3, 83, 90
5, 2810, Note_on_c, 3, 90, 0
5, 2810, Note_on_c, 3, 91, 90
5, 2839, Note_on_c, 3, 93, 90
5, 2843, Note_on_c, 3, 91, 0
5, 2848, Note_on_c, 3, 98, 0
5, 2852, Note_on_c, 3, 93, 0
5, 2853, Note_on_c, 3, 83, 0
5, 2869, Note_on_c, 3, 98, 90
5, 2870, Note_on_c, 3, 95, 90
5, 2871, Note_on_c, 3, 79, 90
5, 2899, Note_on_c, 3, 95, 0
5, 2900, Note_on_c, 3, 93, 90
5, 2902, Note_on_c, 3, 79, 0
5, 2929, Note_on_c, 3, 93, 0
5, 2929, Note_on_c, 3, 91, 90
5, 2930, Note_on_c, 3, 83, 90
5, 2958, Note_on_c, 3, 83, 0
5, 2959, Note_on_c, 3, 91, 0
5, 2959, Note_on_c, 3, 90, 90
5, 2960, Note_on_c, 3, 81, 90
5, 2988, Note_on_c, 3, 90, 0
5, 2989, Note_on_c, 3, 81, 0
5, 2989, Note_on_c, 3, 91, 90
5, 2992, Note_on_c, 3, 83, 90
5, 3019, Note_on_c, 3, 79, 90
5, 3020, Note_on_c, 3, 83, 0
5, 3030, Note_on_c, 3, 79, 0
5, 3053, Note_on_c, 3, 100, 90
5, 3053, Note_on_c, 3, 72, 90
5, 3056, Note_on_c, 3, 98, 0
5, 3087, Note_on_c, 3, 72, 0
5, 3088, Note_on_c, 3, 91, 0
5, 3113, Note_on_c, 3, 91, 90
5, 3114, Note_on_c, 3, 84, 90
5, 3136, Note_on_c, 3, 84, 0
5, 3144, Note_on_c, 3, 83, 90
5, 3154, Note_on_c, 3, 83, 0
5, 3175, Note_on_c, 3, 96, 90
5, 3177, Note_on_c, 3, 84, 90
5, 3182, Note_on_c, 3, 100, 0
5, 3200, Note_on_c, 3, 96, 0
5, 3202, Note_on_c, 3, 84, 0
5, 3234, Note_on_c, 3, 96, 90
5, 3236, Note_on_c, 3, 76, 90
5, 3293, Note_on_c, 3, 91, 0
5, 3293, Note_on_c, 3, 88, 90
5, 3294, Note_on_c, 3, 76, 0
5, 3294, Note_on_c, 3, 84, 90
5, 3320, Note_on_c, 3, 84, 0
5, 3321, Note_on_c, 3, 83, 90
5, 3331, Note_on_c, 3, 88, 0
5, 3336, Note_on_c, 3, 83, 0
5, 3354, Note_on_c, 3, 91, 90
5, 3356, Note_on_c, 3, 84, 90
5, 3390, Note_on_c, 3, 84, 0
5, 3413, Note_on_c, 3, 93, 90
5, 3415, Note_on_c, 3, 77, 90
5, 3418, Note_on_c, 3, 96, 0
5, 3439, Note_on_c, 3, 91, 0
5, 3471, Note_on_c, 3, 89, 90
5, 3472, Note_on_c, 3, 77, 0
5, 3472, Note_on_c, 3, 81, 90
5, 3496, Note_on_c, 3, 89, 0
5, 3500, Note_on_c, 3, 88, 90
5, 3510, Note_on_c, 3, 88, 0
5, 3532, Note_on_c, 3, 81, 0
5, 3533, Note_on_c, 3, 89, 90
5, 3533, Note_on_c, 3, 86, 90
5, 3564, Note_on_c, 3, 86, 0
5, 3589, Note_on_c, 3, 93, 0
5, 3591, Note_on_c, 3, 91, 90
5, 3593, Note_on_c, 3, 83, 90
5, 3635, Note_on_c, 3, 83, 0
5, 3650, Note_on_c, 3, 89, 0
5, 3650, Note_on_c, 3, 88, 90
5, 3652, Note_on_c, 3, 79, 90
5, 3678, Note_on_c, 3, 88, 0
5, 3680, Note_on_c, 3, 86, 90
5, 3690, Note_on_c, 3, 86, 0
5, 3710, Note_on_c, 3, 79, 0
5, 3710, Note_on_c, 3, 88, 90
5, 3711, Note_on_c, 3, 84, 90
5, 3739, Note_on_c, 3, 91, 0
5, 3754, Note_on_c, 3, 84, 0
5, 3771, Note_on_c, 3, 86, 90
5, 3772, Note_on_c, 3, 95, 90
5, 3772, Note_on_c, 3, 79, 90
5, 3773, Note_on_c, 3, 88, 0
5, 3801, Note_on_c, 3, 81, 90
5, 3803, Note_on_c, 3, 79, 0
5, 3811, Note_on_c, 3, 86, 0
5, 3833, Note_on_c, 3, 91, 90
5, 3833, Note_on_c, 3, 83, 90
5, 3834, Note_on_c, 3, 81, 0
5, 3862, Note_on_c, 3, 83, 0
5, 3862, Note_on_c, 3, 84, 90
5, 3863, Note_on_c, 3, 91, 0
5, 3863, Note_on_c, 3, 90, 90
5, 3872, Note_on_c, 3, 90, 0
5, 3890, Note_on_c, 3, 91, 90
5, 3891, Note_on_c, 3, 84, 0
5, 3891, Note_on_c, 3, 86, 90
5, 3911, Note_on_c, 3, 95, 0
5, 3920, Note_on_c, 3, 83, 90
5, 3922, Note_on_c, 3, 86, 0
5, 3948, Note_on_c, 3, 97, 90
5, 3950, Note_on_c, 3, 83, 0
5, 3950, Note_on_c, 3, 88, 90
5, 3979, Note_on_c, 3, 79, 90
5, 3980, Note_on_c, 3, 91, 0
5, 3980, Note_on_c, 3, 88, 0
5, 4008, Note_on_c, 3, 79, 0
5, 4009, Note_on_c, 3, 81, 90
5, 4009, Note_on_c, 3, 91, 90
5, 4035, Note_on_c, 3, 91, 0
5, 4037, Note_on_c, 3, 81, 0
5, 4038, Note_on_c, 3, 82, 90
5, 4039, Note_on_c, 3, 90, 90
5, 4050, Note_on_c, 3, 90, 0
5, 4066, Note_on_c, 3, 82, 0
5, 4068, Note_on_c, 3, 81, 90
5, 4068, Note_on_c, 3, 91, 90
5, 4078, Note_on_c, 3, 97, 0
5, 4094, Note_on_c, 3, 81, 0
5, 4096, Note_on_c, 3, 79, 90
5, 4122, Note_on_c, 3, 98, 90
5, 4125, Note_on_c, 3, 79, 0
5, 4126, Note_on_c, 3, 81, 90
5, 4153, Note_on_c, 3, 81, 0
5, 4184, Note_on_c, 3, 74, 90
5, 4185, Note_on_c, 3, 91, 0
5, 4185, Note_on_c, 3, 89, 90
5, 4206, Note_on_c, 3, 74, 0
5, 4214, Note_on_c, 3, 89, 0
5, 4214, Note_on_c, 3, 88, 90
5, 4223, Note_on_c, 3, 88, 0
5, 4245, Note_on_c, 3, 89, 90
5, 4247, Note_on_c, 3, 86, 90
5, 4265, Note_on_c, 3, 86, 0
5, 4303, Note_on_c, 3, 91, 90
5, 4305, Note_on_c, 3, 98, 0
5, 4305, Note_on_c, 3, 83, 90
5, 4341, Note_on_c, 3, 89, 0
5, 4349, Note_on_c, 3, 83, 0
5, 4364, Note_on_c, 3, 79, 90
5, 4365, Note_on_c, 3, 88, 90
5, 4387, Note_on_c, 3, 79, 0
5, 4392, Note_on_c, 3, 88, 0
5, 4393, Note_on_c, 3, 86, 90
5, 4402, Note_on_c, 3, 86, 0
5, 4424, Note_on_c, 3, 84, 90
5, 4424, Note_on_c, 3, 88, 90
5, 4444, Note_on_c, 3, 91, 0
5, 4452, Note_on_c, 3, 84, 0
5, 4484, Note_on_c, 3, 96, 90
5, 4485, Note_on_c, 3, 72, 90
5, 4515, Note_on_c, 3, 72, 0
5, 4522, Note_on_c, 3, 76, 90
5, 4535, Note_on_c, 3, 88, 0
5, 4549, Note_on_c, 3, 84, 90
5, 4550, Note_on_c, 3, 76, 0
5, 4550, Note_on_c, 3, 77, 90
5, 4577, Note_on_c, 3, 77, 0
5, 4577, Note_on_c, 3, 79, 90
5, 4597, Note_on_c, 3, 84, 0
5, 4602, Note_on_c, 3, 79, 0
5, 4606, Note_on_c, 3, 81, 90
5, 4607, Note_on_c, 3, 89, 90
5, 4635, Note_on_c, 3, 82, 90
5, 4636, Note_on_c, 3, 81, 0
5, 4653, Note_on_c, 3, 82, 0
5, 4663, Note_on_c, 3, 93, 90
5, 4664, Note_on_c, 3, 96, 0
5, 4665, Note_on_c, 3, 84, 90
5, 4695, Note_on_c, 3, 86, 90
5, 4696, Note_on_c, 3, 89, 0
5, 4696, Note_on_c, 3, 84, 0
5, 4723, Note_on_c, 3, 86, 0
5, 4725, Note_on_c, 3, 88, 90
5, 4726, Note_on_c, 3, 84, 90
5, 4741, Note_on_c, 3, 88, 0
5, 4754, Note_on_c, 3, 84, 0
5, 4754, Note_on_c, 3, 82, 90
5, 4754, Note_on_c, 3, 86, 90
5, 4773, Note_on_c, 3, 86, 0
5, 4782, Note_on_c, 3, 82, 0
5, 4785, Note_on_c, 3, 81, 90
5, 4785, Note_on_c, 3, 88, 90
5, 4833, Note_on_c, 3, 93, 0
5, 4844, Note_on_c, 3, 89, 90
5, 4861, Note_on_c, 3, 81, 0
5, 4871, Note_on_c, 3, 74, 90
5, 4898, Note_on_c, 3, 74, 0
5, 4902, Note_on_c, 3, 77, 90
5, 4902, Note_on_c, 3, 86, 90
5, 4903, Note_on_c, 3, 88, 0
5, 4928, Note_on_c, 3, 77, 0
5, 4929, Note_on_c, 3, 86, 0
5, 4930, Note_on_c, 3, 79, 90
5, 4930, Note_on_c, 3, 85, 90
5, 4947, Note_on_c, 3, 79, 0
5, 4958, Note_on_c, 3, 81, 90
5, 4959, Note_on_c, 3, 85, 0
5, 4959, Note_on_c, 3, 86, 90
5, 4981, Note_on_c, 3, 81, 0
5, 4983, Note_on_c, 3, 82, 90
5, 4988, Note_on_c, 3, 88, 90
5, 4991, Note_on_c, 3, 86, 0
5, 4995, Note_on_c, 3, 89, 0
5, 5007, Note_on_c, 3, 88, 0
5, 5016, Note_on_c, 3, 81, 90
5, 5017, Note_on_c, 3, 82, 0
5, 5017, Note_on_c, 3, 89, 90
5, 5017, Note_on_c, 3, 93, 90
5, 5042, Note_on_c, 3, 81, 0
5, 5047, Note_on_c, 3, 91, 90
5, 5047, Note_on_c, 3, 73, 90
5, 5048, Note_on_c, 3, 89, 0
5, 5068, Note_on_c, 3, 73, 0
5, 5077, Note_on_c, 3, 74, 90
5, 5078, Note_on_c, 3, 89, 90
5, 5080, Note_on_c, 3, 91, 0
5, 5106, Note_on_c, 3, 89, 0
5, 5106, Note_on_c, 3, 88, 90
5, 5107, Note_on_c, 3, 76, 90
5, 5108, Note_on_c, 3, 74, 0
5, 5133, Note_on_c, 3, 76, 0
5, 5135, Note_on_c, 3, 77, 90
5, 5136, Note_on_c, 3, 86, 90
5, 5138, Note_on_c, 3, 88, 0
5, 5162, Note_on_c, 3, 84, 90
5, 5166, Note_on_c, 3, 86, 0
5, 5167, Note_on_c, 3, 93, 0
5, 5185, Note_on_c, 3, 84, 0
5, 5197, Note_on_c, 3, 91, 90
5, 5197, Note_on_c, 3, 83, 90
5, 5226, Note_on_c, 3, 83, 0
5, 5228, Note_on_c, 3, 86, 90
5, 5240, Note_on_c, 3, 86, 0
5, 5262, Note_on_c, 3, 79, 90
5, 5265, Note_on_c, 3, 76, 90
5, 5266, Note_on_c, 3, 77, 0
5, 5294, Note_on_c, 3, 74, 90
5, 5295, Note_on_c, 3, 76, 0
5, 5310, Note_on_c, 3, 79, 0
5, 5323, Note_on_c, 3, 74, 0
5, 5324, Note_on_c, 3, 76, 90
5, 5324, Note_on_c, 3, 84, 90
5, 5352, Note_on_c, 3, 86, 90
5, 5353, Note_on_c, 3, 76, 0
5, 5353, Note_on_c, 3, 77, 90
5, 5354, Note_on_c, 3, 84, 0
5, 5373, Note_on_c, 3, 86, 0
5, 5386, Note_on_c, 3, 77, 0
5, 5387, Note_on_c, 3, 88, 90
5, 5387, Note_on_c, 3, 79, 90
5, 5419, Note_on_c, 3, 86, 90
5, 5420, Note_on_c, 3, 88, 0
5, 5423, Note_on_c, 3, 79, 0
5, 5434, Note_on_c, 3, 86, 0
5, 5450, Note_on_c, 3, 88, 90
5, 5451, Note_on_c, 3, 72, 90
5, 5481, Note_on_c, 3, 72, 0
5, 5512, Note_on_c, 3, 84, 90
5, 5540, Note_on_c, 3, 88, 0
5, 5541, Note_on_c, 3, 89, 90
5, 5577, Note_on_c, 3, 89, 0
5, 5577, Note_on_c, 3, 86, 90
5, 5617, Note_on_c, 3, 84, 0
5, 5634, Note_on_c, 3, 83, 90
5, 5648, Note_on_c, 3, 91, 0
5, 5662, Note_on_c, 3, 86, 0
5, 5665, Note_on_c, 3, 90, 90
5, 5666, Note_on_c, 3, 81, 90
5, 5668, Note_on_c, 3, 83, 0
5, 5695, Note_on_c, 3, 90, 0
5, 5695, Note_on_c, 3, 91, 90
5, 5696, Note_on_c, 3, 83, 90
5, 5697, Note_on_c, 3, 81, 0
5, 5726, Note_on_c, 3, 93, 90
5, 5726, Note_on_c, 3, 84, 90
5, 5727, Note_on_c, 3, 91, 0
5, 5728, Note_on_c, 3, 83, 0
5, 5756, Note_on_c, 3, 95, 90
5, 5757, Note_on_c, 3, 84, 0
5, 5757, Note_on_c, 3, 86, 90
5, 5758, Note_on_c, 3, 93, 0
5, 5786, Note_on_c, 3, 91, 90
5, 5787, Note_on_c, 3, 83, 90
5, 5788, Note_on_c, 3, 95, 0
5, 5791, Note_on_c, 3, 86, 0
5, 5816, Note_on_c, 3, 91, 0
5, 5816, Note_on_c, 3, 93, 90
5, 5816, Note_on_c, 3, 84, 90
5, 5817, Note_on_c, 3, 83, 0
5, 5844, Note_on_c, 3, 93, 0
5, 5844, Note_on_c, 3, 84, 0
5, 5844, Note_on_c, 3, 95, 90
5, 5845, Note_on_c, 3, 86, 90
5, 5873, Note_on_c, 3, 88, 90
5, 5874, Note_on_c, 3, 95, 0
5, 5874, Note_on_c, 3, 86, 0
5, 5874, Note_on_c, 3, 96, 90
5, 5902, Note_on_c, 3, 88, 0
5, 5902, Note_on_c, 3, 89, 90
5, 5903, Note_on_c, 3, 96, 0
5, 5904, Note_on_c, 3, 98, 90
5, 5920, Note_on_c, 3, 89, 0
5, 5921, Note_on_c, 3, 98, 0
5, 5933, Note_on_c, 3, 91, 90
5, 5934, Note_on_c, 3, 100, 90
5, 5965, Note_on_c, 3, 98, 90
5, 5997, Note_on_c, 3, 96, 90
5, 5998, Note_on_c, 3, 98, 0
5, 6025, Note_on_c, 3, 96, 0
5, 6026, Note_on_c, 3, 95, 90
5, 6055, Note_on_c, 3, 95, 0
5, 6055, Note_on_c, 3, 96, 90
5, 6056, Note_on_c, 3, 100, 0
5, 6086, Note_on_c, 3, 100, 90
5, 6096, Note_on_c, 3, 100, 0
5, 6117, Note_on_c, 3, 98, 90
5, 6118, Note_on_c, 3, 96, 0
5, 6146, Note_on_c, 3, 96, 90
5, 6174, Note_on_c, 3, 95, 90
5, 6175, Note_on_c, 3, 96, 0
5, 6203, Note_on_c, 3, 93, 90
5, 6204, Note_on_c, 3, 95, 0
5, 6215, Note_on_c, 3, 93, 0
5, 6232, Note_on_c, 3, 95, 90
5, 6257, Note_on_c, 3, 91, 0
5, 6263, Note_on_c, 3, 89, 90
5, 6292, Note_on_c, 3, 88, 90
5, 6292, Note_on_c, 3, 103, 90
5, 6293, Note_on_c, 3, 89, 0
5, 6294, Note_on_c, 3, 98, 0
5, 6295, Note_on_c, 3, 95, 0
5, 6323, Note_on_c, 3, 95, 90
5, 6323, Note_on_c, 3, 91, 90
5, 6352, Note_on_c, 3, 96, 90
5, 6352, Note_on_c, 3, 93, 90
5, 6353, Note_on_c, 3, 95, 0
5, 6353, Note_on_c, 3, 91, 0
5, 6379, Note_on_c, 3, 95, 90
5, 6379, Note_on_c, 3, 98, 90
5, 6380, Note_on_c, 3, 96, 0
5, 6382, Note_on_c, 3, 93, 0
5, 6406, Note_on_c, 3, 95, 0
5, 6407, Note_on_c, 3, 98, 0
5, 6409, Note_on_c, 3, 96, 90
5, 6410, Note_on_c, 3, 100, 90
5, 6429, Note_on_c, 3, 103, 0
5, 6436, Note_on_c, 3, 88, 0
5, 6437, Note_on_c, 3, 105, 90
5, 6463, Note_on_c, 3, 96, 0
5, 6468, Note_on_c, 3, 105, 0
5, 6468, Note_on_c, 3, 107, 90
5, 6469, Note_on_c, 3, 89, 90
5, 6470, Note_on_c, 3, 100, 0
5, 6470, Note_on_c, 3, 86, 90
5, 6500, Note_on_c, 3, 105, 90
5, 6529, Note_on_c, 3, 103, 90
5, 6530, Note_on_c, 3, 105, 0
5, 6557, Note_on_c, 3, 103, 0
5, 6558, Note_on_c, 3, 101, 90
5, 6589, Note_on_c, 3, 100, 90
5, 6590, Note_on_c, 3, 101, 0
5, 6614, Note_on_c, 3, 86, 0
5, 6615, Note_on_c, 3, 98, 90
5, 6616, Note_on_c, 3, 89, 0
5, 6617, Note_on_c, 3, 100, 0
5, 6625, Note_on_c, 3, 98, 0
5, 6628, Note_on_c, 3, 107, 0
5, 6645, Note_on_c, 3, 100, 90
5, 6646, Note_on_c, 3, 84, 90
5, 6647, Note_on_c, 3, 91, 90
5, 6677, Note_on_c, 3, 103, 90
5, 6680, Note_on_c, 3, 100, 0
5, 6705, Note_on_c, 3, 84, 0
5, 6705, Note_on_c, 3, 108, 90
5, 6706, Note_on_c, 3, 103, 0
5, 6707, Note_on_c, 3, 91, 0
5, 6734, Note_on_c, 3, 108, 0
5, 6734, Note_on_c, 3, 107, 90
5, 6735, Note_on_c, 3, 91, 90
5, 6764, Note_on_c, 3, 108, 90
5, 6765, Note_on_c, 3, 107, 0
5, 6765, Note_on_c, 3, 91, 0
5, 6765, Note_on_c, 3, 96, 90
5, 6791, Note_on_c, 3, 95, 90
5, 6792, Note_on_c, 3, 103, 90
5, 6793, Note_on_c, 3, 96, 0
5, 6795, Note_on_c, 3, 108, 0
5, 6822, Note_on_c, 3, 103, 0
5, 6822, Note_on_c, 3, 100, 90
5, 6823, Note_on_c, 3, 95, 0
5, 6825, Note_on_c, 3, 96, 90
5, 6850, Note_on_c, 3, 100, 0
5, 6852, Note_on_c, 3, 103, 90
5, 6853, Note_on_c, 3, 91, 90
5, 6854, Note_on_c, 3, 96, 0
5, 6883, Note_on_c, 3, 103, 0
5, 6883, Note_on_c, 3, 91, 0
5, 6883, Note_on_c, 3, 88, 90
5, 6883, Note_on_c, 3, 96, 90
5, 6911, Note_on_c, 3, 88, 0
5, 6912, Note_on_c, 3, 96, 0
5, 6912, Note_on_c, 3, 91, 90
5, 6912, Note_on_c, 3, 100, 90
5, 6939, Note_on_c, 3, 91, 0
5, 6939, Note_on_c, 3, 100, 0
5, 6940, Note_on_c, 3, 98, 90
5, 6941, Note_on_c, 3, 89, 90
5, 6966, Note_on_c, 3, 98, 0
5, 6966, Note_on_c, 3, 89, 0
5, 6966, Note_on_c, 3, 96, 90
5, 6967, Note_on_c, 3, 88, 90
5, 6998, Note_on_c, 3, 96, 0
5, 6998, Note_on_c, 3, 88, 0
5, 6999, Note_on_c, 3, 98, 90
5, 6999, Note_on_c, 3, 89, 90
5, 7035, Note_on_c, 3, 98, 0
5, 7035, Note_on_c, 3, 89, 0
5, 7035, Note_on_c, 3, 93, 90
5, 7035, Note_on_c, 3, 101, 90
5, 7064, Note_on_c, 3, 101, 0
5, 7064, Note_on_c, 3, 95, 90
5, 7064, Note_on_c, 3, 86, 90
5, 7066, Note_on_c, 3, 93, 0
5, 7093, Note_on_c, 3, 98, 90
5, 7094, Note_on_c, 3, 95, 0
5, 7094, Note_on_c, 3, 86, 0
5, 7094, Note_on_c, 3, 89, 90
5, 7121, Note_on_c, 3, 98, 0
5, 7121, Note_on_c, 3, 96, 90
5, 7123, Note_on_c, 3, 88, 90
5, 7124, Note_on_c, 3, 89, 0
5, 7149, Note_on_c, 3, 95, 90
5, 7150, Note_on_c, 3, 96, 0
5, 7150, Note_on_c, 3, 86, 90
5, 7151, Note_on_c, 3, 88, 0
5, 7180, Note_on_c, 3, 95, 0
5, 7181, Note_on_c, 3, 96, 90
5, 7183, Note_on_c, 3, 88, 90
5, 7185, Note_on_c, 3, 86, 0
5, 7215, Note_on_c, 3, 100, 90
5, 7216, Note_on_c, 3, 96, 0
5, 7217, Note_on_c, 3, 88, 0
5, 7218, Note_on_c, 3, 91, 90
5, 7246, Note_on_c, 3, 93, 90
5, 7246, Note_on_c, 3, 84, 90
5, 7247, Note_on_c, 3, 100, 0
5, 7249, Note_on_c, 3, 91, 0
5, 7275, Note_on_c, 3, 96, 90
5, 7275, Note_on_c, 3, 88, 90
5, 7276, Note_on_c, 3, 93, 0
5, 7276, Note_on_c, 3, 84, 0
5, 7305, Note_on_c, 3, 96, 0
5, 7305, Note_on_c, 3, 88, 0
5, 7305, Note_on_c, 3, 95, 90
5, 7306, Note_on_c, 3, 86, 90
5, 7332, Note_on_c, 3, 93, 90
5, 7333, Note_on_c, 3, 95, 0
5, 7334, Note_on_c, 3, 84, 90
5, 7336, Note_on_c, 3, 86, 0
5, 7354, Note_on_c, 3, 93, 0
5, 7360, Note_on_c, 3, 84, 0
5, 7365, Note_on_c, 3, 95, 90
5, 7365, Note_on_c, 3, 86, 90
5, 7399, Note_on_c, 3, 93, 90
5, 7428, Note_on_c, 3, 91, 90
5, 7430, Note_on_c, 3, 93, 0
5, 7456, Note_on_c, 3, 91, 0
5, 7458, Note_on_c, 3, 89, 90
5, 7487, Note_on_c, 3, 86, 0
5, 7488, Note_on_c, 3, 89, 0
5, 7488, Note_on_c, 3, 88, 90
5, 7514, Note_on_c, 3, 86, 90
5, 7515, Note_on_c, 3, 88, 0
5, 7540, Note_on_c, 3, 95, 0
5, 7551, Note_on_c, 3, 84, 90
5, 7552, Note_on_c, 3, 86, 0
5, 7552, Note_on_c, 3, 88, 90
5, 7582, Note_on_c, 3, 98, 90
5, 7609, Note_on_c, 3, 98, 0
5, 7610, Note_on_c, 3, 96, 90
5, 7639, Note_on_c, 3, 95, 90
5, 7640, Note_on_c, 3, 96, 0
5, 7670, Note_on_c, 3, 95, 0
5, 7670, Note_on_c, 3, 93, 90
5, 7674, Note_on_c, 3, 88, 0
5, 7696, Note_on_c, 3, 93, 0
5, 7697, Note_on_c, 3, 91, 90
5, 7716, Note_on_c, 3, 91, 0
5, 7728, Note_on_c, 3, 90, 90
5, 7761, Note_on_c, 3, 88, 90
5, 7776, Note_on_c, 3, 88, 0
5, 7792, Note_on_c, 3, 84, 0
5, 7792, Note_on_c, 3, 86, 90
5, 7820, Note_on_c, 3, 84, 90
5, 7851, Note_on_c, 3, 84, 0
5, 7851, Note_on_c, 3, 83, 90
5, 7879, Note_on_c, 3, 81, 90
5, 7880, Note_on_c, 3, 83, 0
5, 7897, Note_on_c, 3, 86, 0
5, 7902, Note_on_c, 3, 90, 0
5, 7906, Note_on_c, 3, 81, 0
5, 7910, Note_on_c, 3, 83, 90
5, 7941, Note_on_c, 3, 86, 90
5, 7968, Note_on_c, 3, 91, 90
5, 7976, Note_on_c, 3, 83, 0
5, 7993, Note_on_c, 3, 83, 90
5, 8018, Note_on_c, 3, 86, 0
5, 8020, Note_on_c, 3, 83, 0
5, 8028, Note_on_c, 3, 81, 90
5, 8030, Note_on_c, 3, 84, 90
5, 8056, Note_on_c, 3, 81, 0
5, 8056, Note_on_c, 3, 84, 0
5, 8057, Note_on_c, 3, 89, 90
5, 8061, Note_on_c, 3, 91, 0
5, 8087, Note_on_c, 3, 83, 90
5, 8088, Note_on_c, 3, 79, 90
5, 8091, Note_on_c, 3, 89, 0
5, 8121, Note_on_c, 3, 93, 90
5, 8152, Note_on_c, 3, 93, 0
5, 8152, Note_on_c, 3, 91, 90
5, 8181, Note_on_c, 3, 89, 90
5, 8182, Note_on_c, 3, 91, 0
5, 8208, Note_on_c, 3, 89, 0
5, 8209, Note_on_c, 3, 88, 90
5, 8239, Note_on_c, 3, 86, 90
5, 8240, Note_on_c, 3, 88, 0
5, 8251, Note_on_c, 3, 86, 0
5, 8272, Note_on_c, 3, 88, 90
5, 8300, Note_on_c, 3, 86, 90
5, 8301, Note_on_c, 3, 83, 0
5, 8330, Note_on_c, 3, 84, 90
5, 8331, Note_on_c, 3, 86, 0
5, 8360, Note_on_c, 3, 83, 90
5, 8361, Note_on_c, 3, 84, 0
5, 8391, Note_on_c, 3, 83, 0
5, 8391, Note_on_c, 3, 84, 90
5, 8392, Note_on_c, 3, 88, 0
5, 8418, Note_on_c, 3, 88, 90
5, 8438, Note_on_c, 3, 88, 0
5, 8449, Note_on_c, 3, 86, 90
5, 8453, Note_on_c, 3, 84, 0
5, 8480, Note_on_c, 3, 84, 90
5, 8508, Note_on_c, 3, 83, 90
5, 8511, Note_on_c, 3, 84, 0
5, 8536, Note_on_c, 3, 81, 90
5, 8537, Note_on_c, 3, 83, 0
5, 8567, Note_on_c, 3, 83, 90
5, 8574, Note_on_c, 3, 81, 0
5, 8596, Note_on_c, 3, 88, 90
5, 8597, Note_on_c, 3, 86, 0
5, 8601, Note_on_c, 3, 83, 0
5, 8627, Note_on_c, 3, 81, 90
5, 8628, Note_on_c, 3, 90, 90
5, 8629, Note_on_c, 3, 88, 0
5, 8658, Note_on_c, 3, 90, 0
5, 8659, Note_on_c, 3, 83, 90
5, 8659, Note_on_c, 3, 91, 90
5, 8665, Note_on_c, 3, 81, 0
5, 8688, Note_on_c, 3, 93, 90
5, 8689, Note_on_c, 3, 91, 0
5, 8689, Note_on_c, 3, 84, 90
5, 8690, Note_on_c, 3, 83, 0
5, 8717, Note_on_c, 3, 95, 90
5, 8718, Note_on_c, 3, 86, 90
5, 8719, Note_on_c, 3, 93, 0
5, 8719, Note_on_c, 3, 84, 0
5, 8747, Note_on_c, 3, 95, 0
5, 8747, Note_on_c, 3, 88, 90
5, 8747, Note_on_c, 3, 96, 90
5, 8752, Note_on_c, 3, 86, 0
5, 8775, Note_on_c, 3, 88, 0
5, 8775, Note_on_c, 3, 90, 90
5, 8775, Note_on_c, 3, 84, 90
5, 8778, Note_on_c, 3, 79, 0
5, 8806, Note_on_c, 3, 90, 0
5, 8806, Note_on_c, 3, 84, 0
5, 8809, Note_on_c, 3, 91, 90
5, 8810, Note_on_c, 3, 79, 90
5, 8810, Note_on_c, 3, 86, 90
5, 8811, Note_on_c, 3, 96, 0
5, 8841, Note_on_c, 3, 96, 90
5, 8872, Note_on_c, 3, 95, 90
5, 8873, Note_on_c, 3, 96, 0
5, 8901, Note_on_c, 3, 95, 0
5, 8901, Note_on_c, 3, 93, 90
5, 8929, Note_on_c, 3, 93, 0
5, 8930, Note_on_c, 3, 95, 90
5, 8957, Note_on_c, 3, 95, 0
5, 8958, Note_on_c, 3, 96, 90
5, 8961, Note_on_c, 3, 91, 0
5, 8967, Note_on_c, 3, 96, 0
5, 8989, Note_on_c, 3, 95, 90
5, 8989, Note_on_c, 3, 98, 90
5, 9018, Note_on_c, 3, 98, 0
5, 9018, Note_on_c, 3, 96, 90
5, 9019, Note_on_c, 3, 86, 0
5, 9019, Note_on_c, 3, 81, 90
5, 9045, Note_on_c, 3, 83, 90
5, 9046, Note_on_c, 3, 81, 0
5, 9048, Note_on_c, 3, 98, 90
5, 9049, Note_on_c, 3, 96, 0
5, 9050, Note_on_c, 3, 79, 0
5, 9076, Note_on_c, 3, 84, 90
5, 9076, Note_on_c, 3, 100, 90
5, 9077, Note_on_c, 3, 83, 0
5, 9077, Note_on_c, 3, 98, 0
5, 9085, Note_on_c, 3, 100, 0
5, 9106, Note_on_c, 3, 84, 0
5, 9106, Note_on_c, 3, 86, 90
5, 9106, Note_on_c, 3, 102, 90
5, 9132, Note_on_c, 3, 88, 90
5, 9133, Note_on_c, 3, 86, 0
5, 9133, Note_on_c, 3, 103, 90
5, 9134, Note_on_c, 3, 102, 0
5, 9138, Note_on_c, 3, 95, 0
5, 9142, Note_on_c, 3, 88, 0
5, 9150, Note_on_c, 3, 103, 0
5, 9164, Note_on_c, 3, 103, 90
5, 9165, Note_on_c, 3, 84, 90
5, 9165, Note_on_c, 3, 93, 90
5, 9195, Note_on_c, 3, 84, 0
5, 9196, Note_on_c, 3, 88, 90
5, 9217, Note_on_c, 3, 103, 0
5, 9225, Note_on_c, 3, 96, 90
5, 9225, Note_on_c, 3, 81, 90
5, 9226, Note_on_c, 3, 88, 0
5, 9253, Note_on_c, 3, 84, 90
5, 9255, Note_on_c, 3, 81, 0
5, 9260, Note_on_c, 3, 96, 0
5, 9283, Note_on_c, 3, 101, 90
5, 9285, Note_on_c, 3, 84, 0
5, 9285, Note_on_c, 3, 83, 90
5, 9314, Note_on_c, 3, 83, 0
5, 9314, Note_on_c, 3, 81, 90
5, 9346, Note_on_c, 3, 83, 90
5, 9347, Note_on_c, 3, 81, 0
5, 9374, Note_on_c, 3, 93, 0
5, 9380, Note_on_c, 3, 83, 0
5, 9381, Note_on_c, 3, 86, 90
5, 9409, Note_on_c, 3, 79, 90
5, 9411, Note_on_c, 3, 95, 90
5, 9412, Note_on_c, 3, 101, 0
5, 9412, Note_on_c, 3, 86, 0
5, 9439, Note_on_c, 3, 83, 90
5, 9442, Note_on_c, 3, 79, 0
5, 9468, Note_on_c, 3, 95, 0
5, 9469, Note_on_c, 3, 100, 90
5, 9471, Note_on_c, 3, 83, 0
5, 9471, Note_on_c, 3, 81, 90
5, 9501, Note_on_c, 3, 79, 90
5, 9502, Note_on_c, 3, 81, 0
5, 9529, Note_on_c, 3, 79, 0
5, 9530, Note_on_c, 3, 81, 90
5, 9533, Note_on_c, 3, 100, 0
5, 9561, Note_on_c, 3, 103, 90
5, 9593, Note_on_c, 3, 84, 90
5, 9594, Note_on_c, 3, 101, 90
5, 9595, Note_on_c, 3, 103, 0
5, 9623, Note_on_c, 3, 101, 0
5, 9623, Note_on_c, 3, 100, 90
5, 9650, Note_on_c, 3, 100, 0
5, 9652, Note_on_c, 3, 89, 90
5, 9652, Note_on_c, 3, 98, 90
5, 9653, Note_on_c, 3, 84, 0
5, 9677, Note_on_c, 3, 81, 0
5, 9681, Note_on_c, 3, 98, 0
5, 9681, Note_on_c, 3, 96, 90
5, 9709, Note_on_c, 3, 96, 0
5, 9710, Note_on_c, 3, 79, 90
5, 9710, Note_on_c, 3, 95, 90
5, 9739, Note_on_c, 3, 89, 0
5, 9741, Note_on_c, 3, 95, 0
5, 9741, Note_on_c, 3, 93, 90
5, 9770, Note_on_c, 3, 93, 0
5, 9770, Note_on_c, 3, 83, 90
5, 9770, Note_on_c, 3, 91, 90
5, 9797, Note_on_c, 3, 91, 0
5, 9798, Note_on_c, 3, 89, 90
5, 9799, Note_on_c, 3, 86, 90
5, 9800, Note_on_c, 3, 83, 0
5, 9827, Note_on_c, 3, 89, 0
5, 9828, Note_on_c, 3, 86, 0
5, 9828, Note_on_c, 3, 84, 90
5, 9829, Note_on_c, 3, 88, 90
5, 9852, Note_on_c, 3, 84, 0
5, 9855, Note_on_c, 3, 83, 90
5, 9855, Note_on_c, 3, 86, 90
5, 9856, Note_on_c, 3, 88, 0
5, 9875, Note_on_c, 3, 86, 0
5, 9887, Note_on_c, 3, 83, 0
5, 9889, Note_on_c, 3, 84, 90
5, 9889, Note_on_c, 3, 88, 90
5, 9892, Note_on_c, 3, 79, 0
5, 9920, Note_on_c, 3, 76, 90
5, 9921, Note_on_c, 3, 91, 90
5, 9922, Note_on_c, 3, 88, 0
5, 9950, Note_on_c, 3, 77, 90
5, 9951, Note_on_c, 3, 91, 0
5, 9951, Note_on_c, 3, 93, 90
5, 9954, Note_on_c, 3, 76, 0
5, 9977, Note_on_c, 3, 79, 90
5, 9978, Note_on_c, 3, 93, 0
5, 9979, Note_on_c, 3, 95, 90
5, 9981, Note_on_c, 3, 77, 0
5, 10000, Note_on_c, 3, 79, 0
5, 10006, Note_on_c, 3, 81, 90
5, 10008, Note_on_c, 3, 96, 90
5, 10009, Note_on_c, 3, 95, 0
5, 10018, Note_on_c, 3, 84, 0
5, 10036, Note_on_c, 3, 88, 90
5, 10053, Note_on_c, 3, 88, 0
5, 10068, Note_on_c, 3, 89, 90
5, 10072, Note_on_c, 3, 96, 0
5, 10096, Note_on_c, 3, 96, 90
5, 10109, Note_on_c, 3, 81, 0
5, 10128, Note_on_c, 3, 95, 90
5, 10129, Note_on_c, 3, 96, 0
5, 10129, Note_on_c, 3, 79, 90
5, 10157, Note_on_c, 3, 93, 90
5, 10158, Note_on_c, 3, 95, 0
5, 10186, Note_on_c, 3, 93, 0
5, 10186, Note_on_c, 3, 95, 90
5, 10187, Note_on_c, 3, 77, 90
5, 10189, Note_on_c, 3, 79, 0
5, 10190, Note_on_c, 3, 89, 0
5, 10216, Note_on_c, 3, 89, 90
5, 10248, Note_on_c, 3, 95, 0
5, 10248, Note_on_c, 3, 96, 90
5, 10249, Note_on_c, 3, 79, 90
5, 10250, Note_on_c, 3, 77, 0
5, 10254, Note_on_c, 3, 89, 0
5, 10278, Note_on_c, 3, 89, 90
5, 10308, Note_on_c, 3, 89, 0
5, 10308, Note_on_c, 3, 88, 90
5, 10337, Note_on_c, 3, 86, 90
5, 10338, Note_on_c, 3, 88, 0
5, 10364, Note_on_c, 3, 86, 0
5, 10365, Note_on_c, 3, 88, 90
5, 10396, Note_on_c, 3, 79, 0
5, 10396, Note_on_c, 3, 81, 90
5, 10426, Note_on_c, 3, 81, 0
5, 10427, Note_on_c, 3, 82, 90
5, 10457, Note_on_c, 3, 91, 90
5, 10458, Note_on_c, 3, 88, 0
5, 10485, Note_on_c, 3, 89, 90
5, 10489, Note_on_c, 3, 91, 0
5, 10515, Note_on_c, 3, 88, 90
5, 10516, Note_on_c, 3, 89, 0
5, 10544, Note_on_c, 3, 86, 90
5, 10547, Note_on_c, 3, 88, 0
5, 10563, Note_on_c, 3, 86, 0
5, 10574, Note_on_c, 3, 84, 90
5, 10592, Note_on_c, 3, 84, 0
5, 10606, Note_on_c, 3, 89, 90
5, 10608, Note_on_c, 3, 82, 0
5, 10636, Note_on_c, 3, 82, 90
5, 10664, Note_on_c, 3, 81, 90
5, 10665, Note_on_c, 3, 82, 0
5, 10693, Note_on_c, 3, 79, 90
5, 10695, Note_on_c, 3, 81, 0
5, 10723, Note_on_c, 3, 79, 0
5, 10723, Note_on_c, 3, 81, 90
5, 10754, Note_on_c, 3, 83, 90
5, 10755, Note_on_c, 3, 81, 0
5, 10768, Note_on_c, 3, 83, 0
5, 10784, Note_on_c, 3, 84, 90
5, 10794, Note_on_c, 3, 89, 0
5, 10817, Note_on_c, 3, 93, 90
5, 10848, Note_on_c, 3, 91, 90
5, 10850, Note_on_c, 3, 93, 0
5, 10876, Note_on_c, 3, 89, 90
5, 10877, Note_on_c, 3, 91, 0
5, 10907, Note_on_c, 3, 88, 90
5, 10910, Note_on_c, 3, 89, 0
5, 10919, Note_on_c, 3, 88, 0
5, 10934, Note_on_c, 3, 86, 90
5, 10944, Note_on_c, 3, 86, 0
5, 10966, Note_on_c, 3, 88, 90
5, 10971, Note_on_c, 3, 84, 0
5, 11000, Note_on_c, 3, 86, 90
5, 11031, Note_on_c, 3, 86, 0
5, 11031, Note_on_c, 3, 84, 90
5, 11031, Note_on_c, 3, 89, 90
5, 11033, Note_on_c, 3, 88, 0
5, 11059, Note_on_c, 3, 82, 90
5, 11060, Note_on_c, 3, 84, 0
5, 11087, Note_on_c, 3, 82, 0
5, 11088, Note_on_c, 3, 91, 90
5, 11089, Note_on_c, 3, 89, 0
5, 11089, Note_on_c, 3, 81, 90
5, 11117, Note_on_c, 3, 81, 0
5, 11117, Note_on_c, 3, 79, 90
5, 11146, Note_on_c, 3, 79, 0
5, 11146, Note_on_c, 3, 77, 90
5, 11147, Note_on_c, 3, 91, 0
5, 11147, Note_on_c, 3, 93, 90
5, 11150, Note_on_c, 3, 96, 0
5, 11176, Note_on_c, 3, 77, 0
5, 11177, Note_on_c, 3, 96, 90
5, 11177, Note_on_c, 3, 79, 90
5, 11206, Note_on_c, 3, 98, 90
5, 11207, Note_on_c, 3, 77, 90
5, 11208, Note_on_c, 3, 96, 0
5, 11210, Note_on_c, 3, 79, 0
5, 11234, Note_on_c, 3, 77, 0
5, 11234, Note_on_c, 3, 76, 90
5, 11235, Note_on_c, 3, 100, 90
5, 11236, Note_on_c, 3, 98, 0
5, 11263, Note_on_c, 3, 101, 90
5, 11264, Note_on_c, 3, 76, 0
5, 11264, Note_on_c, 3, 74, 90
5, 11266, Note_on_c, 3, 100, 0
5, 11293, Note_on_c, 3, 95, 90
5, 11293, Note_on_c, 3, 79, 90
5, 11294, Note_on_c, 3, 93, 0
5, 11294, Note_on_c, 3, 74, 0
5, 11328, Note_on_c, 3, 96, 90
5, 11328, Note_on_c, 3, 72, 90
5, 11329, Note_on_c, 3, 95, 0
5, 11330, Note_on_c, 3, 79, 0
5, 11333, Note_on_c, 3, 101, 0
5, 11363, Note_on_c, 3, 105, 90
5, 11380, Note_on_c, 3, 72, 0
5, 11389, Note_on_c, 3, 105, 0
5, 11390, Note_on_c, 3, 103, 90
5, 11392, Note_on_c, 3, 76, 90
5, 11421, Note_on_c, 3, 101, 90
5, 11422, Note_on_c, 3, 96, 0
5, 11423, Note_on_c, 3, 103, 0
5, 11429, Note_on_c, 3, 76, 0
5, 11451, Note_on_c, 3, 101, 0
5, 11451, Note_on_c, 3, 100, 90
5, 11452, Note_on_c, 3, 79, 90
5, 11480, Note_on_c, 3, 98, 90
5, 11481, Note_on_c, 3, 100, 0
5, 11483, Note_on_c, 3, 79, 0
5, 11508, Note_on_c, 3, 98, 0
5, 11512, Note_on_c, 3, 100, 90
5, 11513, Note_on_c, 3, 84, 90
5, 11542, Note_on_c, 3, 103, 90
5, 11545, Note_on_c, 3, 100, 0
5, 11575, Note_on_c, 3, 101, 90
5, 11576, Note_on_c, 3, 103, 0
5, 11606, Note_on_c, 3, 100, 90
5, 11608, Note_on_c, 3, 101, 0
5, 11635, Note_on_c, 3, 98, 90
5, 11636, Note_on_c, 3, 100, 0
5, 11661, Note_on_c, 3, 96, 90
5, 11663, Note_on_c, 3, 98, 0
5, 11676, Note_on_c, 3, 96, 0
5, 11693, Note_on_c, 3, 98, 90
5, 11701, Note_on_c, 3, 84, 0
5, 11724, Note_on_c, 3, 84, 90
5, 11755, Note_on_c, 3, 84, 0
5, 11755, Note_on_c, 3, 83, 90
5, 11755, Note_on_c, 3, 86, 90
5, 11781, Note_on_c, 3, 83, 0
5, 11783, Note_on_c, 3, 81, 90
5, 11788, Note_on_c, 3, 86, 0
5, 11814, Note_on_c, 3, 91, 90
5, 11816, Note_on_c, 3, 98, 0
5, 11816, Note_on_c, 3, 81, 0
5, 11816, Note_on_c, 3, 83, 90
5, 11843, Note_on_c, 3, 98, 90
5, 11850, Note_on_c, 3, 83, 0
5, 11877, Note_on_c, 3, 96, 90
5, 11877, Note_on_c, 3, 84, 90
5, 11883, Note_on_c, 3, 91, 0
5, 11883, Note_on_c, 3, 98, 0
5, 11906, Note_on_c, 3, 91, 90
5, 11935, Note_on_c, 3, 89, 90
5, 11936, Note_on_c, 3, 91, 0
5, 11962, Note_on_c, 3, 89, 0
5, 11964, Note_on_c, 3, 88, 90
5, 11993, Note_on_c, 3, 88, 0
5, 11995, Note_on_c, 3, 89, 90
5, 12053, Note_on_c, 3, 96, 0
5, 12057, Note_on_c, 3, 91, 90
5, 12063, Note_on_c, 3, 89, 0
5, 12086, Note_on_c, 3, 89, 90
5, 12113, Note_on_c, 3, 88, 90
5, 12118, Note_on_c, 3, 89, 0
5, 12134, Note_on_c, 3, 88, 0
5, 12141, Note_on_c, 3, 86, 90
5, 12156, Note_on_c, 3, 86, 0
5, 12170, Note_on_c, 3, 88, 90
5, 12177, Note_on_c, 3, 91, 0
5, 12199, Note_on_c, 3, 88, 0
5, 12199, Note_on_c, 3, 93, 90
5, 12233, Note_on_c, 3, 93, 0
5, 12234, Note_on_c, 3, 95, 90
5, 12234, Note_on_c, 3, 89, 90
5, 12237, Note_on_c, 3, 84, 0
5, 12264, Note_on_c, 3, 88, 90
5, 12294, Note_on_c, 3, 86, 90
5, 12295, Note_on_c, 3, 88, 0
5, 12323, Note_on_c, 3, 86, 0
5, 12323, Note_on_c, 3, 84, 90
5, 12352, Note_on_c, 3, 84, 0
5, 12353, Note_on_c, 3, 83, 90
5, 12377, Note_on_c, 3, 89, 0
5, 12380, Note_on_c, 3, 83, 0
5, 12380, Note_on_c, 3, 81, 90
5, 12406, Note_on_c, 3, 81, 0
5, 12409, Note_on_c, 3, 95, 0
5, 12411, Note_on_c, 3, 91, 90
5, 12415, Note_on_c, 3, 79, 90
5, 12441, Note_on_c, 3, 95, 90
5, 12468, Note_on_c, 3, 97, 90
5, 12470, Note_on_c, 3, 81, 90
5, 12471, Note_on_c, 3, 79, 0
5, 12471, Note_on_c, 3, 95, 0
5, 12496, Note_on_c, 3, 98, 90
5, 12498, Note_on_c, 3, 97, 0
5, 12523, Note_on_c, 3, 100, 90
5, 12526, Note_on_c, 3, 81, 0
5, 12526, Note_on_c, 3, 98, 0
5, 12526, Note_on_c, 3, 82, 90
5, 12550, Note_on_c, 3, 101, 90
5, 12556, Note_on_c, 3, 100, 0
5, 12556, Note_on_c, 3, 82, 0
5, 12569, Note_on_c, 3, 101, 0
5, 12579, Note_on_c, 3, 81, 90
5, 12582, Note_on_c, 3, 97, 90
5, 12611, Note_on_c, 3, 91, 0
5, 12612, Note_on_c, 3, 94, 90
5, 12638, Note_on_c, 3, 82, 90
5, 12640, Note_on_c, 3, 81, 0
5, 12641, Note_on_c, 3, 94, 0
5, 12641, Note_on_c, 3, 93, 90
5, 12668, Note_on_c, 3, 91, 90
5, 12670, Note_on_c, 3, 93, 0
5, 12682, Note_on_c, 3, 82, 0
5, 12697, Note_on_c, 3, 79, 90
5, 12700, Note_on_c, 3, 91, 0
5, 12701, Note_on_c, 3, 90, 90
5, 12724, Note_on_c, 3, 79, 0
5, 12730, Note_on_c, 3, 90, 0
5, 12731, Note_on_c, 3, 91, 90
5, 12758, Note_on_c, 3, 81, 90
5, 12759, Note_on_c, 3, 97, 0
5, 12759, Note_on_c, 3, 98, 90
5, 12767, Note_on_c, 3, 91, 0
5, 12789, Note_on_c, 3, 91, 90
5, 12819, Note_on_c, 3, 90, 90
5, 12820, Note_on_c, 3, 91, 0
5, 12848, Note_on_c, 3, 88, 90
5, 12849, Note_on_c, 3, 90, 0
5, 12877, Note_on_c, 3, 90, 90
5, 12879, Note_on_c, 3, 88, 0
5, 12903, Note_on_c, 3, 96, 90
5, 12904, Note_on_c, 3, 98, 0
5, 12914, Note_on_c, 3, 90, 0
5, 12935, Note_on_c, 3, 96, 0
5, 12936, Note_on_c, 3, 81, 0
5, 12936, Note_on_c, 3, 94, 90
5, 12962, Note_on_c, 3, 78, 90
5, 12964, Note_on_c, 3, 86, 90
5, 12990, Note_on_c, 3, 78, 0
5, 12990, Note_on_c, 3, 79, 90
5, 12993, Note_on_c, 3, 88, 90
5, 12995, Note_on_c, 3, 86, 0
5, 13017, Note_on_c, 3, 81, 90
5, 13018, Note_on_c, 3, 79, 0
5, 13019, Note_on_c, 3, 88, 0
5, 13021, Note_on_c, 3, 90, 90
5, 13043, Note_on_c, 3, 89, 90
5, 13048, Note_on_c, 3, 89, 0
5, 13049, Note_on_c, 3, 82, 90
5, 13050, Note_on_c, 3, 90, 0
5, 13052, Note_on_c, 3, 91, 90
5, 13053, Note_on_c, 3, 81, 0
5, 13077, Note_on_c, 3, 82, 0
5, 13078, Note_on_c, 3, 84, 90
5, 13106, Note_on_c, 3, 94, 0
5, 13108, Note_on_c, 3, 84, 0
5, 13108, Note_on_c, 3, 86, 90
5, 13114, Note_on_c, 3, 93, 90
5, 13116, Note_on_c, 3, 91, 0
5, 13147, Note_on_c, 3, 91, 90
5, 13178, Note_on_c, 3, 90, 90
5, 13179, Note_on_c, 3, 91, 0
5, 13205, Note_on_c, 3, 90, 0
5, 13206, Note_on_c, 3, 88, 90
5, 13238, Note_on_c, 3, 90, 90
5, 13240, Note_on_c, 3, 93, 0
5, 13244, Note_on_c, 3, 88, 0
5, 13269, Note_on_c, 3, 94, 90
5, 13287, Note_on_c, 3, 94, 0
5, 13303, Note_on_c, 3, 96, 90
5, 13311, Note_on_c, 3, 86, 0
5, 13329, Note_on_c, 3, 87, 90
5, 13360, Note_on_c, 3, 87, 0
5, 13361, Note_on_c, 3, 86, 90
5, 13371, Note_on_c, 3, 96, 0
5, 13371, Note_on_c, 3, 93, 90
5, 13389, Note_on_c, 3, 84, 90
5, 13390, Note_on_c, 3, 86, 0
5, 13397, Note_on_c, 3, 93, 0
5, 13422, Note_on_c, 3, 82, 90
5, 13423, Note_on_c, 3, 84, 0
5, 13428, Note_on_c, 3, 98, 90
5, 13452, Note_on_c, 3, 81, 90
5, 13453, Note_on_c, 3, 98, 0
5, 13455, Note_on_c, 3, 82, 0
5, 13464, Note_on_c, 3, 81, 0
5, 13485, Note_on_c, 3, 79, 90
5, 13490, Note_on_c, 3, 94, 90
5, 13517, Note_on_c, 3, 79, 0
5, 13517, Note_on_c, 3, 81, 90
5, 13548, Note_on_c, 3, 79, 90
5, 13549, Note_on_c, 3, 81, 0
5, 13553, Note_on_c, 3, 86, 90
5, 13559, Note_on_c, 3, 90, 0
5, 13572, Note_on_c, 3, 86, 0
5, 13577, Note_on_c, 3, 79, 0
5, 13578, Note_on_c, 3, 77, 90
5, 13608, Note_on_c, 3, 77, 0
5, 13609, Note_on_c, 3, 76, 90
5, 13612, Note_on_c, 3, 91, 90
5, 13639, Note_on_c, 3, 74, 90
5, 13640, Note_on_c, 3, 76, 0
5, 13652, Note_on_c, 3, 74, 0
5, 13673, Note_on_c, 3, 94, 0
5, 13673, Note_on_c, 3, 73, 90
5, 13674, Note_on_c, 3, 91, 0
5, 13674, Note_on_c, 3, 88, 90
5, 13705, Note_on_c, 3, 94, 90
5, 13729, Note_on_c, 3, 94, 0
5, 13734, Note_on_c, 3, 93, 90
5, 13763, Note_on_c, 3, 91, 90
5, 13767, Note_on_c, 3, 93, 0
5, 13791, Note_on_c, 3, 90, 90
5, 13792, Note_on_c, 3, 91, 0
5, 13820, Note_on_c, 3, 91, 90
5, 13821, Note_on_c, 3, 90, 0
5, 13836, Note_on_c, 3, 73, 0
5, 13843, Note_on_c, 3, 91, 0
5, 13848, Note_on_c, 3, 74, 90
5, 13854, Note_on_c, 3, 90, 90
5, 13860, Note_on_c, 3, 88, 0
5, 13885, Note_on_c, 3, 88, 90
5, 13914, Note_on_c, 3, 88, 0
5, 13915, Note_on_c, 3, 86, 90
5, 13945, Note_on_c, 3, 84, 90
5, 13947, Note_on_c, 3, 86, 0
5, 13958, Note_on_c, 3, 84, 0
5, 13974, Note_on_c, 3, 83, 90
5, 13988, Note_on_c, 3, 83, 0
5, 14003, Note_on_c, 3, 81, 90
5, 14016, Note_on_c, 3, 81, 0
5, 14034, Note_on_c, 3, 74, 0
5, 14036, Note_on_c, 3, 83, 90
5, 14042, Note_on_c, 3, 90, 0
5, 14067, Note_on_c, 3, 86, 90
5, 14087, Note_on_c, 3, 86, 0
5, 14095, Note_on_c, 3, 91, 90
5, 14110, Note_on_c, 3, 83, 0
5, 14122, Note_on_c, 3, 83, 90
5, 14133, Note_on_c, 3, 83, 0
5, 14152, Note_on_c, 3, 81, 90
5, 14182, Note_on_c, 3, 90, 90
5, 14184, Note_on_c, 3, 91, 0
5, 14190, Note_on_c, 3, 81, 0
5, 14195, Note_on_c, 3, 90, 0
5, 14217, Note_on_c, 3, 91, 90
5, 14218, Note_on_c, 3, 79, 90
5, 14251, Note_on_c, 3, 67, 90
5, 14279, Note_on_c, 3, 69, 90
5, 14283, Note_on_c, 3, 67, 0
5, 14310, Note_on_c, 3, 71, 90
5, 14311, Note_on_c, 3, 69, 0
5, 14339, Note_on_c, 3, 72, 90
5, 14341, Note_on_c, 3, 71, 0
5, 14367, Note_on_c, 3, 74, 90
5, 14368, Note_on_c, 3, 79, 0
5, 14369, Note_on_c, 3, 72, 0
5, 14372, Note_on_c, 3, 91, 0
5, 14397, Note_on_c, 3, 74, 0
5, 14399, Note_on_c, 3, 76, 90
5, 14428, Note_on_c, 3, 93, 90
5, 14459, Note_on_c, 3, 91, 90
5, 14462, Note_on_c, 3, 93, 0
5, 14487, Note_on_c, 3, 89, 90
5, 14488, Note_on_c, 3, 91, 0
5, 14518, Note_on_c, 3, 88, 90
5, 14519, Note_on_c, 3, 89, 0
5, 14545, Note_on_c, 3, 86, 90
5, 14548, Note_on_c, 3, 88, 0
5, 14555, Note_on_c, 3, 86, 0
5, 14575, Note_on_c, 3, 84, 90
5, 14585, Note_on_c, 3, 76, 0
5, 14605, Note_on_c, 3, 95, 90
5, 14635, Note_on_c, 3, 74, 90
5, 14636, Note_on_c, 3, 95, 0
5, 14636, Note_on_c, 3, 96, 90
5, 14664, Note_on_c, 3, 96, 0
5, 14664, Note_on_c, 3, 98, 90
5, 14668, Note_on_c, 3, 74, 0
5, 14695, Note_on_c, 3, 100, 90
5, 14696, Note_on_c, 3, 98, 0
5, 14696, Note_on_c, 3, 72, 90
5, 14719, Note_on_c, 3, 72, 0
5, 14725, Note_on_c, 3, 100, 0
5, 14725, Note_on_c, 3, 102, 90
5, 14752, Note_on_c, 3, 74, 90
5, 14753, Note_on_c, 3, 102, 0
5, 14753, Note_on_c, 3, 103, 90
5, 14758, Note_on_c, 3, 84, 0
5, 14782, Note_on_c, 3, 84, 90
5, 14802, Note_on_c, 3, 103, 0
5, 14813, Note_on_c, 3, 83, 90
5, 14814, Note_on_c, 3, 84, 0
5, 14814, Note_on_c, 3, 98, 90
5, 14842, Note_on_c, 3, 81, 90
5, 14843, Note_on_c, 3, 83, 0
5, 14850, Note_on_c, 3, 98, 0
5, 14873, Note_on_c, 3, 81, 0
5, 14873, Note_on_c, 3, 83, 90
5, 14874, Note_on_c, 3, 103, 90
5, 14902, Note_on_c, 3, 84, 90
5, 14905, Note_on_c, 3, 83, 0
5, 14916, Note_on_c, 3, 84, 0
5, 14924, Note_on_c, 3, 74, 0
5, 14935, Note_on_c, 3, 86, 90
5, 14936, Note_on_c, 3, 79, 90
5, 14965, Note_on_c, 3, 103, 0
5, 14966, Note_on_c, 3, 101, 90
5, 14994, Note_on_c, 3, 100, 90
5, 14997, Note_on_c, 3, 101, 0
5, 15023, Note_on_c, 3, 100, 0
5, 15024, Note_on_c, 3, 98, 90
5, 15055, Note_on_c, 3, 98, 0
5, 15055, Note_on_c, 3, 97, 90
5, 15082, Note_on_c, 3, 97, 0
5, 15083, Note_on_c, 3, 98, 90
5, 15087, Note_on_c, 3, 86, 0
5, 15110, Note_on_c, 3, 98, 0
5, 15112, Note_on_c, 3, 100, 90
5, 15138, Note_on_c, 3, 100, 0
5, 15139, Note_on_c, 3, 101, 90
5, 15141, Note_on_c, 3, 82, 90
5, 15145, Note_on_c, 3, 79, 0
5, 15166, Note_on_c, 3, 101, 0
5, 15168, Note_on_c, 3, 103, 90
5, 15168, Note_on_c, 3, 81, 90
5, 15169, Note_on_c, 3, 82, 0
5, 15180, Note_on_c, 3, 103, 0
5, 15196, Note_on_c, 3, 79, 90
5, 15197, Note_on_c, 3, 81, 0
5, 15197, Note_on_c, 3, 106, 90
5, 15222, Note_on_c, 3, 106, 0
5, 15226, Note_on_c, 3, 105, 90
5, 15227, Note_on_c, 3, 77, 90
5, 15229, Note_on_c, 3, 79, 0
5, 15254, Note_on_c, 3, 76, 90
5, 15256, Note_on_c, 3, 103, 90
5, 15259, Note_on_c, 3, 105, 0
5, 15259, Note_on_c, 3, 77, 0
5, 15269, Note_on_c, 3, 76, 0
5, 15272, Note_on_c, 3, 103, 0
5, 15285, Note_on_c, 3, 101, 90
5, 15287, Note_on_c, 3, 74, 90
5, 15315, Note_on_c, 3, 100, 90
5, 15338, Note_on_c, 3, 74, 0
5, 15346, Note_on_c, 3, 98, 90
5, 15346, Note_on_c, 3, 81, 90
5, 15347, Note_on_c, 3, 100, 0
5, 15374, Note_on_c, 3, 98, 0
5, 15374, Note_on_c, 3, 96, 90
5, 15379, Note_on_c, 3, 81, 0
5, 15402, Note_on_c, 3, 96, 0
5, 15406, Note_on_c, 3, 94, 90
5, 15407, Note_on_c, 3, 86, 90
5, 15431, Note_on_c, 3, 93, 90
5, 15432, Note_on_c, 3, 94, 0
5, 15439, Note_on_c, 3, 93, 0
5, 15463, Note_on_c, 3, 86, 0
5, 15464, Note_on_c, 3, 94, 90
5, 15465, Note_on_c, 3, 101, 0
5, 15466, Note_on_c, 3, 79, 90
5, 15500, Note_on_c, 3, 101, 90
5, 15522, Note_on_c, 3, 79, 0
5, 15530, Note_on_c, 3, 100, 90
5, 15531, Note_on_c, 3, 101, 0
5, 15559, Note_on_c, 3, 91, 90
5, 15560, Note_on_c, 3, 98, 90
5, 15562, Note_on_c, 3, 100, 0
5, 15591, Note_on_c, 3, 100, 90
5, 15592, Note_on_c, 3, 98, 0
5, 15592, Note_on_c, 3, 89, 90
5, 15594, Note_on_c, 3, 91, 0
5, 15620, Note_on_c, 3, 89, 0
5, 15621, Note_on_c, 3, 88, 90
5, 15644, Note_on_c, 3, 94, 0
5, 15644, Note_on_c, 3, 100, 0
5, 15649, Note_on_c, 3, 88, 0
5, 15650, Note_on_c, 3, 93, 90
5, 15651, Note_on_c, 3, 89, 90
5, 15684, Note_on_c, 3, 103, 90
5, 15685, Note_on_c, 3, 88, 90
5, 15688, Note_on_c, 3, 89, 0
5, 15713, Note_on_c, 3, 103, 0
5, 15713, Note_on_c, 3, 101, 90
5, 15713, Note_on_c, 3, 86, 90
5, 15715, Note_on_c, 3, 88, 0
5, 15743, Note_on_c, 3, 100, 90
5, 15743, Note_on_c, 3, 88, 90
5, 15744, Note_on_c, 3, 101, 0
5, 15745, Note_on_c, 3, 86, 0
5, 15772, Note_on_c, 3, 88, 0
5, 15772, Note_on_c, 3, 89, 90
5, 15774, Note_on_c, 3, 100, 0
5, 15774, Note_on_c, 3, 98, 90
5, 15802, Note_on_c, 3, 96, 90
5, 15804, Note_on_c, 3, 98, 0
5, 15807, Note_on_c, 3, 93, 0
5, 15812, Note_on_c, 3, 96, 0
5, 15831, Note_on_c, 3, 95, 90
5, 15832, Note_on_c, 3, 91, 90
5, 15860, Note_on_c, 3, 98, 90
5, 15863, Note_on_c, 3, 95, 0
5, 15888, Note_on_c, 3, 98, 0
5, 15890, Note_on_c, 3, 100, 90
5, 15891, Note_on_c, 3, 88, 90
5, 15893, Note_on_c, 3, 91, 0
5, 15897, Note_on_c, 3, 89, 0
5, 15916, Note_on_c, 3, 101, 90
5, 15917, Note_on_c, 3, 100, 0
5, 15917, Note_on_c, 3, 93, 90
5, 15930, Note_on_c, 3, 93, 0
5, 15944, Note_on_c, 3, 101, 0
5, 15946, Note_on_c, 3, 95, 90
5, 15948, Note_on_c, 3, 103, 90
5, 15974, Note_on_c, 3, 95, 0
5, 15975, Note_on_c, 3, 97, 90
5, 15979, Note_on_c, 3, 88, 0
5, 15993, Note_on_c, 3, 103, 0
5, 15993, Note_on_c, 3, 97, 0
5, 16007, Note_on_c, 3, 98, 90
5, 16009, Note_on_c, 3, 86, 90
5, 16038, Note_on_c, 3, 86, 0
5, 16039, Note_on_c, 3, 85, 90
5, 16040, Note_on_c, 3, 106, 90
5, 16057, Note_on_c, 3, 106, 0
5, 16068, Note_on_c, 3, 105, 90
5, 16069, Note_on_c, 3, 85, 0
5, 16069, Note_on_c, 3, 86, 90
5, 16096, Note_on_c, 3, 105, 0
5, 16096, Note_on_c, 3, 103, 90
5, 16098, Note_on_c, 3, 86, 0
5, 16098, Note_on_c, 3, 88, 90
5, 16126, Note_on_c, 3, 103, 0
5, 16126, Note_on_c, 3, 101, 90
5, 16127, Note_on_c, 3, 89, 90
5, 16128, Note_on_c, 3, 88, 0
5, 16147, Note_on_c, 3, 98, 0
5, 16156, Note_on_c, 3, 91, 90
5, 16156, Note_on_c, 3, 100, 90
5, 16158, Note_on_c, 3, 101, 0
5, 16158, Note_on_c, 3, 89, 0
5, 16164, Note_on_c, 3, 100, 0
5, 16185, Note_on_c, 3, 101, 90
5, 16186, Note_on_c, 3, 93, 90
5, 16189, Note_on_c, 3, 91, 0
5, 16215, Note_on_c, 3, 100, 90
5, 16216, Note_on_c, 3, 91, 90
5, 16218, Note_on_c, 3, 93, 0
5, 16242, Note_on_c, 3, 100, 0
5, 16244, Note_on_c, 3, 89, 90
5, 16244, Note_on_c, 3, 98, 90
5, 16245, Note_on_c, 3, 91, 0
5, 16272, Note_on_c, 3, 89, 0
5, 16272, Note_on_c, 3, 98, 0
5, 16273, Note_on_c, 3, 88, 90
5, 16273, Note_on_c, 3, 96, 90
5, 16301, Note_on_c, 3, 86, 90
5, 16302, Note_on_c, 3, 88, 0
5, 16302, Note_on_c, 3, 96, 0
5, 16302, Note_on_c, 3, 95, 90
5, 16328, Note_on_c, 3, 84, 90
5, 16329, Note_on_c, 3, 93, 90
5, 16331, Note_on_c, 3, 86, 0
5, 16331, Note_on_c, 3, 95, 0
5, 16335, Note_on_c, 3, 84, 0
5, 16361, Note_on_c, 3, 83, 90
5, 16362, Note_on_c, 3, 91, 90
5, 16363, Note_on_c, 3, 93, 0
5, 16369, Note_on_c, 3, 101, 0
5, 16390, Note_on_c, 3, 103, 90
5, 16391, Note_on_c, 3, 81, 90
5, 16393, Note_on_c, 3, 83, 0
5, 16420, Note_on_c, 3, 81, 0
5, 16421, Note_on_c, 3, 101, 90
5, 16421, Note_on_c, 3, 83, 90
5, 16422, Note_on_c, 3, 103, 0
5, 16451, Note_on_c, 3, 84, 90
5, 16451, Note_on_c, 3, 100, 90
5, 16452, Note_on_c, 3, 101, 0
5, 16452, Note_on_c, 3, 83, 0
5, 16480, Note_on_c, 3, 98, 90
5, 16481, Note_on_c, 3, 91, 0
5, 16481, Note_on_c, 3, 84, 0
5, 16481, Note_on_c, 3, 100, 0
5, 16481, Note_on_c, 3, 86, 90
5, 16506, Note_on_c, 3, 98, 0
5, 16507, Note_on_c, 3, 96, 90
5, 16508, Note_on_c, 3, 86, 0
5, 16508, Note_on_c, 3, 88, 90
5, 16522, Note_on_c, 3, 96, 0
5, 16524, Note_on_c, 3, 88, 0
5, 16537, Note_on_c, 3, 95, 90
5, 16538, Note_on_c, 3, 89, 90
5, 16567, Note_on_c, 3, 95, 0
5, 16568, Note_on_c, 3, 88, 90
5, 16569, Note_on_c, 3, 89, 0
5, 16569, Note_on_c, 3, 96, 90
5, 16599, Note_on_c, 3, 96, 0
5, 16600, Note_on_c, 3, 95, 90
5, 16601, Note_on_c, 3, 88, 0
5, 16601, Note_on_c, 3, 86, 90
5, 16628, Note_on_c, 3, 95, 0
5, 16629, Note_on_c, 3, 86, 0
5, 16629, Note_on_c, 3, 93, 90
5, 16629, Note_on_c, 3, 84, 90
5, 16658, Note_on_c, 3, 84, 0
5, 16658, Note_on_c, 3, 83, 90
5, 16660, Note_on_c, 3, 93, 0
5, 16660, Note_on_c, 3, 91, 90
5, 16684, Note_on_c, 3, 81, 90
5, 16685, Note_on_c, 3, 89, 90
5, 16686, Note_on_c, 3, 83, 0
5, 16689, Note_on_c, 3, 91, 0
5, 16691, Note_on_c, 3, 81, 0
5, 16715, Note_on_c, 3, 88, 90
5, 16715, Note_on_c, 3, 79, 90
5, 16716, Note_on_c, 3, 89, 0
5, 16747, Note_on_c, 3, 79, 0
5, 16747, Note_on_c, 3, 81, 90
5, 16778, Note_on_c, 3, 81, 0
5, 16778, Note_on_c, 3, 79, 90
5, 16808, Note_on_c, 3, 77, 90
5, 16809, Note_on_c, 3, 79, 0
5, 16835, Note_on_c, 3, 77, 0
5, 16836, Note_on_c, 3, 76, 90
5, 16865, Note_on_c, 3, 76, 0
5, 16866, Note_on_c, 3, 74, 90
5, 16882, Note_on_c, 3, 88, 0
5, 16893, Note_on_c, 3, 74, 0
5, 16903, Note_on_c, 3, 72, 90
5, 16941, Note_on_c, 3, 84, 90
5, 16942, Note_on_c, 3, 76, 90
5, 16971, Note_on_c, 3, 84, 0
5, 16972, Note_on_c, 3, 86, 90
5, 16973, Note_on_c, 3, 76, 0
5, 16973, Note_on_c, 3, 77, 90
5, 17000, Note_on_c, 3, 88, 90
5, 17000, Note_on_c, 3, 79, 90
5, 17001, Note_on_c, 3, 86, 0
5, 17001, Note_on_c, 3, 77, 0
5, 17029, Note_on_c, 3, 81, 90
5, 17030, Note_on_c, 3, 79, 0
5, 17031, Note_on_c, 3, 88, 0
5, 17032, Note_on_c, 3, 89, 90
5, 17054, Note_on_c, 3, 81, 0
5, 17057, Note_on_c, 3, 89, 0
5, 17057, Note_on_c, 3, 82, 90
5, 17059, Note_on_c, 3, 91, 90
5, 17076, Note_on_c, 3, 91, 0
5, 17086, Note_on_c, 3, 82, 0
5, 17089, Note_on_c, 3, 84, 90
5, 17090, Note_on_c, 3, 93, 90
5, 17122, Note_on_c, 3, 93, 0
5, 17123, Note_on_c, 3, 91, 90
5, 17151, Note_on_c, 3, 81, 90
5, 17153, Note_on_c, 3, 84, 0
5, 17153, Note_on_c, 3, 89, 90
5, 17154, Note_on_c, 3, 91, 0
5, 17181, Note_on_c, 3, 89, 0
5, 17181, Note_on_c, 3, 91, 90
5, 17211, Note_on_c, 3, 91, 0
5, 17212, Note_on_c, 3, 93, 90
5, 17213, Note_on_c, 3, 77, 90
5, 17214, Note_on_c, 3, 81, 0
5, 17242, Note_on_c, 3, 93, 0
5, 17242, Note_on_c, 3, 77, 0
5, 17242, Note_on_c, 3, 95, 90
5, 17273, Note_on_c, 3, 76, 90
5, 17274, Note_on_c, 3, 96, 90
5, 17275, Note_on_c, 3, 95, 0
5, 17306, Note_on_c, 3, 96, 0
5, 17306, Note_on_c, 3, 95, 90
5, 17335, Note_on_c, 3, 79, 90
5, 17336, Note_on_c, 3, 95, 0
5, 17336, Note_on_c, 3, 93, 90
5, 17340, Note_on_c, 3, 76, 0
5, 17363, Note_on_c, 3, 93, 0
5, 17365, Note_on_c, 3, 95, 90
5, 17375, Note_on_c, 3, 79, 0
5, 17393, Note_on_c, 3, 95, 0
5, 17393, Note_on_c, 3, 78, 90
5, 17394, Note_on_c, 3, 96, 90
5, 17422, Note_on_c, 3, 96, 0
5, 17424, Note_on_c, 3, 98, 90
5, 17426, Note_on_c, 3, 78, 0
5, 17455, Note_on_c, 3, 99, 90
5, 17455, Note_on_c, 3, 79, 90
5, 17456, Note_on_c, 3, 98, 0
5, 17471, Note_on_c, 3, 72, 0
5, 17486, Note_on_c, 3, 98, 90
5, 17487, Note_on_c, 3, 71, 90
5, 17490, Note_on_c, 3, 79, 0
5, 17514, Note_on_c, 3, 72, 90
5, 17515, Note_on_c, 3, 71, 0
5, 17517, Note_on_c, 3, 96, 90
5, 17519, Note_on_c, 3, 98, 0
5, 17547, Note_on_c, 3, 95, 90
5, 17547, Note_on_c, 3, 74, 90
5, 17548, Note_on_c, 3, 72, 0
5, 17551, Note_on_c, 3, 96, 0
5, 17576, Note_on_c, 3, 75, 90
5, 17577, Note_on_c, 3, 74, 0
5, 17577, Note_on_c, 3, 96, 90
5, 17578, Note_on_c, 3, 99, 0
5, 17581, Note_on_c, 3, 95, 0
5, 17604, Note_on_c, 3, 99, 90
5, 17605, Note_on_c, 3, 75, 0
5, 17605, Note_on_c, 3, 77, 90
5, 17624, Note_on_c, 3, 99, 0
5, 17635, Note_on_c, 3, 77, 0
5, 17636, Note_on_c, 3, 79, 90
5, 17636, Note_on_c, 3, 98, 90
5, 17637, Note_on_c, 3, 96, 0
5, 17666, Note_on_c, 3, 96, 90
5, 17666, Note_on_c, 3, 81, 90
5, 17669, Note_on_c, 3, 79, 0
5, 17694, Note_on_c, 3, 95, 90
5, 17696, Note_on_c, 3, 96, 0
5, 17696, Note_on_c, 3, 81, 0
5, 17696, Note_on_c, 3, 83, 90
5, 17723, Note_on_c, 3, 84, 90
5, 17724, Note_on_c, 3, 83, 0
5, 17726, Note_on_c, 3, 93, 90
5, 17727, Note_on_c, 3, 95, 0
5, 17751, Note_on_c, 3, 84, 0
5, 17751, Note_on_c, 3, 86, 90
5, 17751, Note_on_c, 3, 95, 90
5, 17752, Note_on_c, 3, 98, 0
5, 17758, Note_on_c, 3, 93, 0
5, 17780, Note_on_c, 3, 98, 90
5, 17784, Note_on_c, 3, 86, 0
5, 17784, Note_on_c, 3, 79, 90
5, 17816, Note_on_c, 3, 91, 90
5, 17817, Note_on_c, 3, 87, 90
5, 17818, Note_on_c, 3, 95, 0
5, 17818, Note_on_c, 3, 79, 0
5, 17836, Note_on_c, 3, 98, 0
5, 17848, Note_on_c, 3, 98, 90
5, 17878, Note_on_c, 3, 98, 0
5, 17878, Note_on_c, 3, 96, 90
5, 17908, Note_on_c, 3, 95, 90
5, 17909, Note_on_c, 3, 96, 0
5, 17937, Note_on_c, 3, 95, 0
5, 17937, Note_on_c, 3, 96, 90
5, 17943, Note_on_c, 3, 87, 0
5, 17968, Note_on_c, 3, 87, 90
5, 17984, Note_on_c, 3, 87, 0
5, 18000, Note_on_c, 3, 86, 90
5, 18001, Note_on_c, 3, 96, 0
5, 18027, Note_on_c, 3, 96, 90
5, 18056, Note_on_c, 3, 95, 90
5, 18059, Note_on_c, 3, 96, 0
5, 18086, Note_on_c, 3, 93, 90
5, 18088, Note_on_c, 3, 95, 0
5, 18107, Note_on_c, 3, 93, 0
5, 18117, Note_on_c, 3, 95, 90
5, 18145, Note_on_c, 3, 98, 90
5, 18175, Note_on_c, 3, 103, 90
5, 18184, Note_on_c, 3, 86, 0
5, 18205, Note_on_c, 3, 89, 90
5, 18232, Note_on_c, 3, 98, 0
5, 18233, Note_on_c, 3, 101, 90
5, 18235, Note_on_c, 3, 89, 0
5, 18236, Note_on_c, 3, 88, 90
5, 18264, Note_on_c, 3, 101, 0
5, 18264, Note_on_c, 3, 88, 0
5, 18264, Note_on_c, 3, 86, 90
5, 18265, Note_on_c, 3, 91, 0
5, 18265, Note_on_c, 3, 95, 0
5, 18295, Note_on_c, 3, 100, 90
5, 18295, Note_on_c, 3, 94, 90
5, 18296, Note_on_c, 3, 88, 90
5, 18296, Note_on_c, 3, 96, 90
5, 18300, Note_on_c, 3, 86, 0
5, 18326, Note_on_c, 3, 88, 0
5, 18327, Note_on_c, 3, 91, 90
5, 18341, Note_on_c, 3, 91, 0
5, 18357, Note_on_c, 3, 90, 90
5, 18375, Note_on_c, 3, 100, 0
5, 18379, Note_on_c, 3, 94, 0
5, 18380, Note_on_c, 3, 96, 0
5, 18388, Note_on_c, 3, 88, 90
5, 18390, Note_on_c, 3, 90, 0
5, 18418, Note_on_c, 3, 99, 90
5, 18418, Note_on_c, 3, 93, 90
5, 18419, Note_on_c, 3, 96, 90
5, 18419, Note_on_c, 3, 90, 90
5, 18425, Note_on_c, 3, 88, 0
5, 18436, Note_on_c, 3, 93, 0
5, 18450, Note_on_c, 3, 90, 0
5, 18451, Note_on_c, 3, 93, 90
5, 18482, Note_on_c, 3, 91, 90
5, 18510, Note_on_c, 3, 91, 0
5, 18510, Note_on_c, 3, 90, 90
5, 18512, Note_on_c, 3, 99, 0
5, 18534, Note_on_c, 3, 93, 0
5, 18541, Note_on_c, 3, 90, 0
5, 18541, Note_on_c, 3, 98, 90
5, 18543, Note_on_c, 3, 91, 90
5, 18545, Note_on_c, 3, 96, 0
5, 18576, Note_on_c, 3, 96, 90
5, 18606, Note_on_c, 3, 95, 90
5, 18607, Note_on_c, 3, 86, 90
5, 18610, Note_on_c, 3, 96, 0
5, 18630, Note_on_c, 3, 95, 0
5, 18638, Note_on_c, 3, 93, 90
5, 18671, Note_on_c, 3, 93, 0
5, 18686, Note_on_c, 3, 79, 90
5, 18686, Note_on_c, 3, 95, 90
5, 18899, Note_on_c, 3, 79, 0
5, 18901, Note_on_c, 3, 95, 0
5, 18902, Note_on_c, 3, 103, 0
5, 18902, Note_on_c, 3, 98, 0
5, 18902, Note_on_c, 3, 91, 0
5, 18903, Note_on_c, 3, 86, 0
5, 18903, End_track
6, 0, Start_track
6, 0, Title_t, "Man 1 1/3"
6, 0, MIDI_port, 0
6, 0, Control_c, 5, 7, 67
6, 0, Control_c, 5, 93, 0
6, 0, Control_c, 5, 91, 100
6, 0, Control_c, 5, 10, 68
6, 0, Program_c, 5, 79
6, 2, Note_on_c, 5, 98, 90
6, 60, Note_on_c, 5, 93, 90
6, 60, Note_on_c, 5, 90, 90
6, 81, Note_on_c, 5, 90, 0
6, 85, Note_on_c, 5, 93, 0
6, 88, Note_on_c, 5, 88, 90
6, 89, Note_on_c, 5, 91, 90
6, 103, Note_on_c, 5, 91, 0
6, 107, Note_on_c, 5, 88, 0
6, 119, Note_on_c, 5, 93, 90
6, 119, Note_on_c, 5, 90, 90
6, 132, Note_on_c, 5, 98, 0
6, 132, Note_on_c, 5, 90, 0
6, 134, Note_on_c, 5, 93, 0
6, 176, Note_on_c, 5, 100, 90
6, 177, Note_on_c, 5, 95, 90
6, 178, Note_on_c, 5, 91, 90
6, 204, Note_on_c, 5, 91, 0
6, 217, Note_on_c, 5, 95, 0
6, 234, Note_on_c, 5, 91, 90
6, 235, Note_on_c, 5, 88, 90
6, 246, Note_on_c, 5, 91, 0
6, 250, Note_on_c, 5, 88, 0
6, 291, Note_on_c, 5, 96, 90
6, 291, Note_on_c, 5, 93, 90
6, 305, Note_on_c, 5, 100, 0
6, 306, Note_on_c, 5, 93, 0
6, 309, Note_on_c, 5, 96, 0
6, 349, Note_on_c, 5, 98, 90
6, 350, Note_on_c, 5, 93, 90
6, 350, Note_on_c, 5, 90, 90
6, 388, Note_on_c, 5, 90, 0
6, 393, Note_on_c, 5, 93, 0
6, 409, Note_on_c, 5, 90, 90
6, 410, Note_on_c, 5, 86, 90
6, 429, Note_on_c, 5, 90, 0
6, 429, Note_on_c, 5, 86, 0
6, 467, Note_on_c, 5, 95, 90
6, 467, Note_on_c, 5, 91, 90
6, 483, Note_on_c, 5, 91, 0
6, 491, Note_on_c, 5, 95, 0
6, 495, Note_on_c, 5, 98, 0
6, 529, Note_on_c, 5, 88, 90
6, 529, Note_on_c, 5, 91, 90
6, 530, Note_on_c, 5, 96, 90
6, 573, Note_on_c, 5, 91, 0
6, 586, Note_on_c, 5, 88, 0
6, 589, Note_on_c, 5, 93, 90
6, 590, Note_on_c, 5, 90, 90
6, 600, Note_on_c, 5, 90, 0
6, 605, Note_on_c, 5, 93, 0
6, 616, Note_on_c, 5, 91, 90
6, 618, Note_on_c, 5, 88, 90
6, 625, Note_on_c, 5, 91, 0
6, 630, Note_on_c, 5, 88, 0
6, 648, Note_on_c, 5, 93, 90
6, 649, Note_on_c, 5, 90, 90
6, 682, Note_on_c, 5, 90, 0
6, 688, Note_on_c, 5, 93, 0
6, 708, Note_on_c, 5, 98, 90
6, 708, Note_on_c, 5, 86, 90
6, 709, Note_on_c, 5, 96, 0
6, 709, Note_on_c, 5, 90, 90
6, 757, Note_on_c, 5, 90, 0
6, 766, Note_on_c, 5, 86, 0
6, 766, Note_on_c, 5, 91, 90
6, 767, Note_on_c, 5, 95, 90
6, 779, Note_on_c, 5, 91, 0
6, 779, Note_on_c, 5, 95, 0
6, 796, Note_on_c, 5, 90, 90
6, 796, Note_on_c, 5, 93, 90
6, 807, Note_on_c, 5, 93, 0
6, 823, Note_on_c, 5, 95, 90
6, 824, Note_on_c, 5, 90, 0
6, 826, Note_on_c, 5, 91, 90
6, 827, Note_on_c, 5, 98, 0
6, 871, Note_on_c, 5, 91, 0
6, 877, Note_on_c, 5, 103, 90
6, 879, Note_on_c, 5, 88, 90
6, 903, Note_on_c, 5, 95, 0
6, 907, Note_on_c, 5, 86, 90
6, 910, Note_on_c, 5, 88, 0
6, 936, Note_on_c, 5, 86, 0
6, 938, Note_on_c, 5, 96, 90
6, 938, Note_on_c, 5, 88, 90
6, 956, Note_on_c, 5, 96, 0
6, 967, Note_on_c, 5, 98, 90
6, 968, Note_on_c, 5, 90, 90
6, 971, Note_on_c, 5, 88, 0
6, 979, Note_on_c, 5, 90, 0
6, 981, Note_on_c, 5, 98, 0
6, 995, Note_on_c, 5, 100, 90
6, 999, Note_on_c, 5, 91, 90
6, 1024, Note_on_c, 5, 98, 90
6, 1027, Note_on_c, 5, 100, 0
6, 1031, Note_on_c, 5, 103, 0
6, 1043, Note_on_c, 5, 98, 0
6, 1060, Note_on_c, 5, 105, 90
6, 1061, Note_on_c, 5, 96, 90
6, 1121, Note_on_c, 5, 93, 90
6, 1122, Note_on_c, 5, 96, 0
6, 1122, Note_on_c, 5, 90, 90
6, 1124, Note_on_c, 5, 91, 0
6, 1138, Note_on_c, 5, 90, 0
6, 1149, Note_on_c, 5, 93, 0
6, 1153, Note_on_c, 5, 88, 90
6, 1182, Note_on_c, 5, 88, 0
6, 1183, Note_on_c, 5, 98, 90
6, 1184, Note_on_c, 5, 90, 90
6, 1204, Note_on_c, 5, 90, 0
6, 1243, Note_on_c, 5, 98, 0
6, 1243, Note_on_c, 5, 103, 90
6, 1243, Note_on_c, 5, 95, 90
6, 1244, Note_on_c, 5, 105, 0
6, 1245, Note_on_c, 5, 91, 90
6, 1301, Note_on_c, 5, 86, 90
6, 1304, Note_on_c, 5, 91, 0
6, 1331, Note_on_c, 5, 86, 0
6, 1331, Note_on_c, 5, 84, 90
6, 1362, Note_on_c, 5, 84, 0
6, 1365, Note_on_c, 5, 86, 90
6, 1367, Note_on_c, 5, 103, 0
6, 1369, Note_on_c, 5, 95, 0
6, 1381, Note_on_c, 5, 86, 0
6, 1425, Note_on_c, 5, 103, 90
6, 1427, Note_on_c, 5, 79, 90
6, 1454, Note_on_c, 5, 79, 0
6, 1486, Note_on_c, 5, 95, 90
6, 1487, Note_on_c, 5, 98, 90
6, 1500, Note_on_c, 5, 95, 0
6, 1513, Note_on_c, 5, 98, 0
6, 1516, Note_on_c, 5, 96, 90
6, 1516, Note_on_c, 5, 93, 90
6, 1538, Note_on_c, 5, 96, 0
6, 1541, Note_on_c, 5, 93, 0
6, 1547, Note_on_c, 5, 95, 90
6, 1548, Note_on_c, 5, 98, 90
6, 1558, Note_on_c, 5, 103, 0
6, 1564, Note_on_c, 5, 98, 0
6, 1566, Note_on_c, 5, 95, 0
6, 1603, Note_on_c, 5, 98, 90
6, 1604, Note_on_c, 5, 93, 90
6, 1605, Note_on_c, 5, 90, 90
6, 1650, Note_on_c, 5, 93, 0
6, 1651, Note_on_c, 5, 90, 0
6, 1665, Note_on_c, 5, 90, 90
6, 1666, Note_on_c, 5, 86, 90
6, 1683, Note_on_c, 5, 90, 0
6, 1683, Note_on_c, 5, 86, 0
6, 1723, Note_on_c, 5, 95, 90
6, 1724, Note_on_c, 5, 91, 90
6, 1746, Note_on_c, 5, 98, 0
6, 1748, Note_on_c, 5, 95, 0
6, 1748, Note_on_c, 5, 91, 0
6, 1785, Note_on_c, 5, 100, 90
6, 1786, Note_on_c, 5, 91, 90
6, 1786, Note_on_c, 5, 84, 90
6, 1824, Note_on_c, 5, 91, 0
6, 1832, Note_on_c, 5, 84, 0
6, 1842, Note_on_c, 5, 96, 90
6, 1844, Note_on_c, 5, 93, 90
6, 1870, Note_on_c, 5, 95, 90
6, 1871, Note_on_c, 5, 96, 0
6, 1871, Note_on_c, 5, 93, 0
6, 1873, Note_on_c, 5, 91, 90
6, 1878, Note_on_c, 5, 95, 0
6, 1888, Note_on_c, 5, 91, 0
6, 1895, Note_on_c, 5, 100, 0
6, 1904, Note_on_c, 5, 96, 90
6, 1904, Note_on_c, 5, 102, 90
6, 1906, Note_on_c, 5, 93, 90
6, 1929, Note_on_c, 5, 93, 0
6, 1961, Note_on_c, 5, 96, 0
6, 1963, Note_on_c, 5, 103, 90
6, 1964, Note_on_c, 5, 98, 90
6, 1964, Note_on_c, 5, 95, 90
6, 1967, Note_on_c, 5, 102, 0
6, 2004, Note_on_c, 5, 95, 0
6, 2024, Note_on_c, 5, 98, 0
6, 2024, Note_on_c, 5, 83, 90
6, 2024, Note_on_c, 5, 100, 90
6, 2051, Note_on_c, 5, 100, 0
6, 2053, Note_on_c, 5, 98, 90
6, 2054, Note_on_c, 5, 83, 0
6, 2084, Note_on_c, 5, 88, 90
6, 2084, Note_on_c, 5, 96, 90
6, 2085, Note_on_c, 5, 98, 0
6, 2110, Note_on_c, 5, 95, 90
6, 2116, Note_on_c, 5, 96, 0
6, 2120, Note_on_c, 5, 95, 0
6, 2122, Note_on_c, 5, 103, 0
6, 2144, Note_on_c, 5, 105, 90
6, 2145, Note_on_c, 5, 93, 90
6, 2146, Note_on_c, 5, 84, 90
6, 2150, Note_on_c, 5, 88, 0
6, 2187, Note_on_c, 5, 84, 0
6, 2189, Note_on_c, 5, 93, 0
6, 2205, Note_on_c, 5, 98, 90
6, 2206, Note_on_c, 5, 81, 90
6, 2226, Note_on_c, 5, 81, 0
6, 2230, Note_on_c, 5, 98, 0
6, 2235, Note_on_c, 5, 96, 90
6, 2248, Note_on_c, 5, 96, 0
6, 2265, Note_on_c, 5, 98, 90
6, 2267, Note_on_c, 5, 86, 90
6, 2298, Note_on_c, 5, 105, 0
6, 2302, Note_on_c, 5, 86, 0
6, 2328, Note_on_c, 5, 107, 90
6, 2330, Note_on_c, 5, 79, 90
6, 2360, Note_on_c, 5, 83, 90
6, 2362, Note_on_c, 5, 79, 0
6, 2368, Note_on_c, 5, 98, 0
6, 2390, Note_on_c, 5, 83, 0
6, 2391, Note_on_c, 5, 86, 90
6, 2391, Note_on_c, 5, 95, 90
6, 2420, Note_on_c, 5, 84, 90
6, 2422, Note_on_c, 5, 95, 0
6, 2423, Note_on_c, 5, 86, 0
6, 2449, Note_on_c, 5, 84, 0
6, 2449, Note_on_c, 5, 98, 90
6, 2450, Note_on_c, 5, 83, 90
6, 2478, Note_on_c, 5, 98, 0
6, 2480, Note_on_c, 5, 81, 90
6, 2481, Note_on_c, 5, 83, 0
6, 2487, Note_on_c, 5, 107, 0
6, 2509, Note_on_c, 5, 107, 90
6, 2509, Note_on_c, 5, 103, 90
6, 2510, Note_on_c, 5, 83, 90
6, 2514, Note_on_c, 5, 81, 0
6, 2542, Note_on_c, 5, 102, 90
6, 2544, Note_on_c, 5, 103, 0
6, 2570, Note_on_c, 5, 100, 90
6, 2572, Note_on_c, 5, 102, 0
6, 2572, Note_on_c, 5, 79, 90
6, 2573, Note_on_c, 5, 83, 0
6, 2599, Note_on_c, 5, 98, 90
6, 2608, Note_on_c, 5, 100, 0
6, 2616, Note_on_c, 5, 98, 0
6, 2628, Note_on_c, 5, 100, 90
6, 2630, Note_on_c, 5, 79, 0
6, 2630, Note_on_c, 5, 91, 90
6, 2659, Note_on_c, 5, 97, 90
6, 2661, Note_on_c, 5, 107, 0
6, 2661, Note_on_c, 5, 100, 0
6, 2692, Note_on_c, 5, 105, 90
6, 2720, Note_on_c, 5, 91, 0
6, 2750, Note_on_c, 5, 90, 90
6, 2751, Note_on_c, 5, 98, 90
6, 2754, Note_on_c, 5, 97, 0
6, 2777, Note_on_c, 5, 90, 0
6, 2779, Note_on_c, 5, 88, 90
6, 2780, Note_on_c, 5, 98, 0
6, 2781, Note_on_c, 5, 97, 90
6, 2807, Note_on_c, 5, 88, 0
6, 2809, Note_on_c, 5, 90, 90
6, 2810, Note_on_c, 5, 97, 0
6, 2810, Note_on_c, 5, 98, 90
6, 2839, Note_on_c, 5, 100, 90
6, 2843, Note_on_c, 5, 98, 0
6, 2848, Note_on_c, 5, 105, 0
6, 2852, Note_on_c, 5, 100, 0
6, 2853, Note_on_c, 5, 90, 0
6, 2869, Note_on_c, 5, 105, 90
6, 2870, Note_on_c, 5, 102, 90
6, 2871, Note_on_c, 5, 86, 90
6, 2899, Note_on_c, 5, 102, 0
6, 2900, Note_on_c, 5, 100, 90
6, 2902, Note_on_c, 5, 86, 0
6, 2929, Note_on_c, 5, 100, 0
6, 2929, Note_on_c, 5, 98, 90
6, 2930, Note_on_c, 5, 90, 90
6, 2958, Note_on_c, 5, 90, 0
6, 2959, Note_on_c, 5, 98, 0
6, 2959, Note_on_c, 5, 97, 90
6, 2960, Note_on_c, 5, 88, 90
6, 2988, Note_on_c, 5, 97, 0
6, 2989, Note_on_c, 5, 88, 0
6, 2989, Note_on_c, 5, 98, 90
6, 2992, Note_on_c, 5, 90, 90
6, 3019, Note_on_c, 5, 86, 90
6, 3020, Note_on_c, 5, 90, 0
6, 3030, Note_on_c, 5, 86, 0
6, 3053, Note_on_c, 5, 107, 90
6, 3053, Note_on_c, 5, 79, 90
6, 3056, Note_on_c, 5, 105, 0
6, 3087, Note_on_c, 5, 79, 0
6, 3088, Note_on_c, 5, 98, 0
6, 3113, Note_on_c, 5, 98, 90
6, 3114, Note_on_c, 5, 91, 90
6, 3136, Note_on_c, 5, 91, 0
6, 3144, Note_on_c, 5, 90, 90
6, 3154, Note_on_c, 5, 90, 0
6, 3175, Note_on_c, 5, 103, 90
6, 3177, Note_on_c, 5, 91, 90
6, 3182, Note_on_c, 5, 107, 0
6, 3200, Note_on_c, 5, 103, 0
6, 3202, Note_on_c, 5, 91, 0
6, 3234, Note_on_c, 5, 103, 90
6, 3236, Note_on_c, 5, 83, 90
6, 3293, Note_on_c, 5, 98, 0
6, 3293, Note_on_c, 5, 95, 90
6, 3294, Note_on_c, 5, 83, 0
6, 3294, Note_on_c, 5, 91, 90
6, 3320, Note_on_c, 5, 91, 0
6, 3321, Note_on_c, 5, 90, 90
6, 3331, Note_on_c, 5, 95, 0
6, 3336, Note_on_c, 5, 90, 0
6, 3354, Note_on_c, 5, 98, 90
6, 3356, Note_on_c, 5, 91, 90
6, 3390, Note_on_c, 5, 91, 0
6, 3413, Note_on_c, 5, 100, 90
6, 3415, Note_on_c, 5, 84, 90
6, 3418, Note_on_c, 5, 103, 0
6, 3439, Note_on_c, 5, 98, 0
6, 3471, Note_on_c, 5, 96, 90
6, 3472, Note_on_c, 5, 84, 0
6, 3472, Note_on_c, 5, 88, 90
6, 3496, Note_on_c, 5, 96, 0
6, 3500, Note_on_c, 5, 95, 90
6, 3510, Note_on_c, 5, 95, 0
6, 3532, Note_on_c, 5, 88, 0
6, 3533, Note_on_c, 5, 96, 90
6, 3533, Note_on_c, 5, 93, 90
6, 3564, Note_on_c, 5, 93, 0
6, 3589, Note_on_c, 5, 100, 0
6, 3591, Note_on_c, 5, 98, 90
6, 3593, Note_on_c, 5, 90, 90
6, 3635, Note_on_c, 5, 90, 0
6, 3650, Note_on_c, 5, 96, 0
6, 3650, Note_on_c, 5, 95, 90
6, 3652, Note_on_c, 5, 86, 90
6, 3678, Note_on_c, 5, 95, 0
6, 3680, Note_on_c, 5, 93, 90
6, 3690, Note_on_c, 5, 93, 0
6, 3710, Note_on_c, 5, 86, 0
6, 3710, Note_on_c, 5, 95, 90
6, 3711, Note_on_c, 5, 91, 90
6, 3739, Note_on_c, 5, 98, 0
6, 3754, Note_on_c, 5, 91, 0
6, 3771, Note_on_c, 5, 93, 90
6, 3772, Note_on_c, 5, 102, 90
6, 3772, Note_on_c, 5, 86, 90
6, 3773, Note_on_c, 5, 95, 0
6, 3801, Note_on_c, 5, 88, 90
6, 3803, Note_on_c, 5, 86, 0
6, 3811, Note_on_c, 5, 93, 0
6, 3833, Note_on_c, 5, 98, 90
6, 3833, Note_on_c, 5, 90, 90
6, 3834, Note_on_c, 5, 88, 0
6, 3862, Note_on_c, 5, 90, 0
6, 3862, Note_on_c, 5, 91, 90
6, 3863, Note_on_c, 5, 98, 0
6, 3863, Note_on_c, 5, 97, 90
6, 3872, Note_on_c, 5, 97, 0
6, 3890, Note_on_c, 5, 98, 90
6, 3891, Note_on_c, 5, 91, 0
6, 3891, Note_on_c, 5, 93, 90
6, 3911, Note_on_c, 5, 102, 0
6, 3920, Note_on_c, 5, 90, 90
6, 3922, Note_on_c, 5, 93, 0
6, 3948, Note_on_c, 5, 104, 90
6, 3950, Note_on_c, 5, 90, 0
6, 3950, Note_on_c, 5, 95, 90
6, 3979, Note_on_c, 5, 86, 90
6, 3980, Note_on_c, 5, 98, 0
6, 3980, Note_on_c, 5, 95, 0
6, 4008, Note_on_c, 5, 86, 0
6, 4009, Note_on_c, 5, 88, 90
6, 4009, Note_on_c, 5, 98, 90
6, 4035, Note_on_c, 5, 98, 0
6, 4037, Note_on_c, 5, 88, 0
6, 4038, Note_on_c, 5, 89, 90
6, 4039, Note_on_c, 5, 97, 90
6, 4050, Note_on_c, 5, 97, 0
6, 4066, Note_on_c, 5, 89, 0
6, 4068, Note_on_c, 5, 88, 90
6, 4068, Note_on_c, 5, 98, 90
6, 4078, Note_on_c, 5, 104, 0
6, 4094, Note_on_c, 5, 88, 0
6, 4096, Note_on_c, 5, 86, 90
6, 4122, Note_on_c, 5, 105, 90
6, 4125, Note_on_c, 5, 86, 0
6, 4126, Note_on_c, 5, 88, 90
6, 4153, Note_on_c, 5, 88, 0
6, 4184, Note_on_c, 5, 81, 90
6, 4185, Note_on_c, 5, 98, 0
6, 4185, Note_on_c, 5, 96, 90
6, 4206, Note_on_c, 5, 81, 0
6, 4214, Note_on_c, 5, 96, 0
6, 4214, Note_on_c, 5, 95, 90
6, 4223, Note_on_c, 5, 95, 0
6, 4245, Note_on_c, 5, 96, 90
6, 4247, Note_on_c, 5, 93, 90
6, 4265, Note_on_c, 5, 93, 0
6, 4303, Note_on_c, 5, 98, 90
6, 4305, Note_on_c, 5, 105, 0
6, 4305, Note_on_c, 5, 90, 90
6, 4341, Note_on_c, 5, 96, 0
6, 4349, Note_on_c, 5, 90, 0
6, 4364, Note_on_c, 5, 86, 90
6, 4365, Note_on_c, 5, 95, 90
6, 4387, Note_on_c, 5, 86, 0
6, 4392, Note_on_c, 5, 95, 0
6, 4393, Note_on_c, 5, 93, 90
6, 4402, Note_on_c, 5, 93, 0
6, 4424, Note_on_c, 5, 91, 90
6, 4424, Note_on_c, 5, 95, 90
6, 4444, Note_on_c, 5, 98, 0
6, 4452, Note_on_c, 5, 91, 0
6, 4484, Note_on_c, 5, 103, 90
6, 4485, Note_on_c, 5, 79, 90
6, 4515, Note_on_c, 5, 79, 0
6, 4522, Note_on_c, 5, 83, 90
6, 4535, Note_on_c, 5, 95, 0
6, 4549, Note_on_c, 5, 91, 90
6, 4550, Note_on_c, 5, 83, 0
6, 4550, Note_on_c, 5, 84, 90
6, 4577, Note_on_c, 5, 84, 0
6, 4577, Note_on_c, 5, 86, 90
6, 4597, Note_on_c, 5, 91, 0
6, 4602, Note_on_c, 5, 86, 0
6, 4606, Note_on_c, 5, 88, 90
6, 4607, Note_on_c, 5, 96, 90
6, 4635, Note_on_c, 5, 89, 90
6, 4636, Note_on_c, 5, 88, 0
6, 4653, Note_on_c, 5, 89, 0
6, 4663, Note_on_c, 5, 100, 90
6, 4664, Note_on_c, 5, 103, 0
6, 4665, Note_on_c, 5, 91, 90
6, 4695, Note_on_c, 5, 93, 90
6, 4696, Note_on_c, 5, 96, 0
6, 4696, Note_on_c, 5, 91, 0
6, 4723, Note_on_c, 5, 93, 0
6, 4725, Note_on_c, 5, 95, 90
6, 4726, Note_on_c, 5, 91, 90
6, 4741, Note_on_c, 5, 95, 0
6, 4754, Note_on_c, 5, 91, 0
6, 4754, Note_on_c, 5, 89, 90
6, 4754, Note_on_c, 5, 93, 90
6, 4773, Note_on_c, 5, 93, 0
6, 4782, Note_on_c, 5, 89, 0
6, 4785, Note_on_c, 5, 88, 90
6, 4785, Note_on_c, 5, 95, 90
6, 4833, Note_on_c, 5, 100, 0
6, 4844, Note_on_c, 5, 96, 90
6, 4861, Note_on_c, 5, 88, 0
6, 4871, Note_on_c, 5, 81, 90
6, 4898, Note_on_c, 5, 81, 0
6, 4902, Note_on_c, 5, 84, 90
6, 4902, Note_on_c, 5, 93, 90
6, 4903, Note_on_c, 5, 95, 0
6, 4928, Note_on_c, 5, 84, 0
6, 4929, Note_on_c, 5, 93, 0
6, 4930, Note_on_c, 5, 86, 90
6, 4930, Note_on_c, 5, 92, 90
6, 4947, Note_on_c, 5, 86, 0
6, 4958, Note_on_c, 5, 88, 90
6, 4959, Note_on_c, 5, 92, 0
6, 4959, Note_on_c, 5, 93, 90
6, 4981, Note_on_c, 5, 88, 0
6, 4983, Note_on_c, 5, 89, 90
6, 4988, Note_on_c, 5, 95, 90
6, 4991, Note_on_c, 5, 93, 0
6, 4995, Note_on_c, 5, 96, 0
6, 5007, Note_on_c, 5, 95, 0
6, 5016, Note_on_c, 5, 88, 90
6, 5017, Note_on_c, 5, 89, 0
6, 5017, Note_on_c, 5, 96, 90
6, 5017, Note_on_c, 5, 100, 90
6, 5042, Note_on_c, 5, 88, 0
6, 5047, Note_on_c, 5, 98, 90
6, 5047, Note_on_c, 5, 80, 90
6, 5048, Note_on_c, 5, 96, 0
6, 5068, Note_on_c, 5, 80, 0
6, 5077, Note_on_c, 5, 81, 90
6, 5078, Note_on_c, 5, 96, 90
6, 5080, Note_on_c, 5, 98, 0
6, 5106, Note_on_c, 5, 96, 0
6, 5106, Note_on_c, 5, 95, 90
6, 5107, Note_on_c, 5, 83, 90
6, 5108, Note_on_c, 5, 81, 0
6, 5133, Note_on_c, 5, 83, 0
6, 5135, Note_on_c, 5, 84, 90
6, 5136, Note_on_c, 5, 93, 90
6, 5138, Note_on_c, 5, 95, 0
6, 5162, Note_on_c, 5, 91, 90
6, 5166, Note_on_c, 5, 93, 0
6, 5167, Note_on_c, 5, 100, 0
6, 5185, Note_on_c, 5, 91, 0
6, 5197, Note_on_c, 5, 98, 90
6, 5197, Note_on_c, 5, 90, 90
6, 5226, Note_on_c, 5, 90, 0
6, 5228, Note_on_c, 5, 93, 90
6, 5240, Note_on_c, 5, 93, 0
6, 5262, Note_on_c, 5, 86, 90
6, 5265, Note_on_c, 5, 83, 90
6, 5266, Note_on_c, 5, 84, 0
6, 5294, Note_on_c, 5, 81, 90
6, 5295, Note_on_c, 5, 83, 0
6, 5310, Note_on_c, 5, 86, 0
6, 5323, Note_on_c, 5, 81, 0
6, 5324, Note_on_c, 5, 83, 90
6, 5324, Note_on_c, 5, 91, 90
6, 5352, Note_on_c, 5, 93, 90
6, 5353, Note_on_c, 5, 83, 0
6, 5353, Note_on_c, 5, 84, 90
6, 5354, Note_on_c, 5, 91, 0
6, 5373, Note_on_c, 5, 93, 0
6, 5386, Note_on_c, 5, 84, 0
6, 5387, Note_on_c, 5, 95, 90
6, 5387, Note_on_c, 5, 86, 90
6, 5419, Note_on_c, 5, 93, 90
6, 5420, Note_on_c, 5, 95, 0
6, 5423, Note_on_c, 5, 86, 0
6, 5434, Note_on_c, 5, 93, 0
6, 5450, Note_on_c, 5, 95, 90
6, 5451, Note_on_c, 5, 79, 90
6, 5481, Note_on_c, 5, 79, 0
6, 5512, Note_on_c, 5, 91, 90
6, 5540, Note_on_c, 5, 95, 0
6, 5541, Note_on_c, 5, 96, 90
6, 5577, Note_on_c, 5, 96, 0
6, 5577, Note_on_c, 5, 93, 90
6, 5617, Note_on_c, 5, 91, 0
6, 5634, Note_on_c, 5, 90, 90
6, 5648, Note_on_c, 5, 98, 0
6, 5662, Note_on_c, 5, 93, 0
6, 5665, Note_on_c, 5, 97, 90
6, 5666, Note_on_c, 5, 88, 90
6, 5668, Note_on_c, 5, 90, 0
6, 5695, Note_on_c, 5, 97, 0
6, 5695, Note_on_c, 5, 98, 90
6, 5696, Note_on_c, 5, 90, 90
6, 5697, Note_on_c, 5, 88, 0
6, 5726, Note_on_c, 5, 91, 90
6, 5726, Note_on_c, 5, 100, 90
6, 5727, Note_on_c, 5, 98, 0
6, 5728, Note_on_c, 5, 90, 0
6, 5756, Note_on_c, 5, 102, 90
6, 5757, Note_on_c, 5, 91, 0
6, 5757, Note_on_c, 5, 93, 90
6, 5758, Note_on_c, 5, 100, 0
6, 5786, Note_on_c, 5, 98, 90
6, 5787, Note_on_c, 5, 90, 90
6, 5788, Note_on_c, 5, 102, 0
6, 5791, Note_on_c, 5, 93, 0
6, 5816, Note_on_c, 5, 98, 0
6, 5816, Note_on_c, 5, 100, 90
6, 5816, Note_on_c, 5, 91, 90
6, 5817, Note_on_c, 5, 90, 0
6, 5844, Note_on_c, 5, 100, 0
6, 5844, Note_on_c, 5, 91, 0
6, 5844, Note_on_c, 5, 102, 90
6, 5845, Note_on_c, 5, 93, 90
6, 5873, Note_on_c, 5, 95, 90
6, 5874, Note_on_c, 5, 102, 0
6, 5874, Note_on_c, 5, 93, 0
6, 5874, Note_on_c, 5, 103, 90
6, 5902, Note_on_c, 5, 95, 0
6, 5902, Note_on_c, 5, 96, 90
6, 5903, Note_on_c, 5, 103, 0
6, 5904, Note_on_c, 5, 105, 90
6, 5920, Note_on_c, 5, 96, 0
6, 5921, Note_on_c, 5, 105, 0
6, 5933, Note_on_c, 5, 98, 90
6, 5934, Note_on_c, 5, 107, 90
6, 5965, Note_on_c, 5, 105, 90
6, 5997, Note_on_c, 5, 103, 90
6, 5998, Note_on_c, 5, 105, 0
6, 6025, Note_on_c, 5, 103, 0
6, 6026, Note_on_c, 5, 102, 90
6, 6055, Note_on_c, 5, 102, 0
6, 6055, Note_on_c, 5, 103, 90
6, 6056, Note_on_c, 5, 107, 0
6, 6086, Note_on_c, 5, 107, 90
6, 6096, Note_on_c, 5, 107, 0
6, 6117, Note_on_c, 5, 105, 90
6, 6118, Note_on_c, 5, 103, 0
6, 6146, Note_on_c, 5, 103, 90
6, 6174, Note_on_c, 5, 102, 90
6, 6175, Note_on_c, 5, 103, 0
6, 6203, Note_on_c, 5, 100, 90
6, 6204, Note_on_c, 5, 102, 0
6, 6215, Note_on_c, 5, 100, 0
6, 6232, Note_on_c, 5, 102, 90
6, 6257, Note_on_c, 5, 98, 0
6, 6263, Note_on_c, 5, 96, 90
6, 6292, Note_on_c, 5, 95, 90
6, 6292, Note_on_c, 5, 110, 90
6, 6293, Note_on_c, 5, 96, 0
6, 6294, Note_on_c, 5, 105, 0
6, 6295, Note_on_c, 5, 102, 0
6, 6323, Note_on_c, 5, 102, 90
6, 6323, Note_on_c, 5, 98, 90
6, 6352, Note_on_c, 5, 103, 90
6, 6352, Note_on_c, 5, 100, 90
6, 6353, Note_on_c, 5, 102, 0
6, 6353, Note_on_c, 5, 98, 0
6, 6379, Note_on_c, 5, 102, 90
6, 6379, Note_on_c, 5, 105, 90
6, 6380, Note_on_c, 5, 103, 0
6, 6382, Note_on_c, 5, 100, 0
6, 6406, Note_on_c, 5, 102, 0
6, 6407, Note_on_c, 5, 105, 0
6, 6409, Note_on_c, 5, 103, 90
6, 6410, Note_on_c, 5, 107, 90
6, 6429, Note_on_c, 5, 110, 0
6, 6436, Note_on_c, 5, 95, 0
6, 6437, Note_on_c, 5, 112, 90
6, 6463, Note_on_c, 5, 103, 0
6, 6468, Note_on_c, 5, 112, 0
6, 6468, Note_on_c, 5, 114, 90
6, 6469, Note_on_c, 5, 96, 90
6, 6470, Note_on_c, 5, 107, 0
6, 6470, Note_on_c, 5, 93, 90
6, 6500, Note_on_c, 5, 112, 90
6, 6529, Note_on_c, 5, 110, 90
6, 6530, Note_on_c, 5, 112, 0
6, 6557, Note_on_c, 5, 110, 0
6, 6558, Note_on_c, 5, 108, 90
6, 6589, Note_on_c, 5, 107, 90
6, 6590, Note_on_c, 5, 108, 0
6, 6614, Note_on_c, 5, 93, 0
6, 6615, Note_on_c, 5, 105, 90
6, 6616, Note_on_c, 5, 96, 0
6, 6617, Note_on_c, 5, 107, 0
6, 6625, Note_on_c, 5, 105, 0
6, 6628, Note_on_c, 5, 114, 0
6, 6645, Note_on_c, 5, 107, 90
6, 6646, Note_on_c, 5, 91, 90
6, 6647, Note_on_c, 5, 98, 90
6, 6677, Note_on_c, 5, 110, 90
6, 6680, Note_on_c, 5, 107, 0
6, 6705, Note_on_c, 5, 91, 0
6, 6705, Note_on_c, 5, 115, 90
6, 6706, Note_on_c, 5, 110, 0
6, 6707, Note_on_c, 5, 98, 0
6, 6734, Note_on_c, 5, 115, 0
6, 6734, Note_on_c, 5, 114, 90
6, 6735, Note_on_c, 5, 98, 90
6, 6764, Note_on_c, 5, 115, 90
6, 6765, Note_on_c, 5, 114, 0
6, 6765, Note_on_c, 5, 98, 0
6, 6765, Note_on_c, 5, 103, 90
6, 6791, Note_on_c, 5, 102, 90
6, 6792, Note_on_c, 5, 110, 90
6, 6793, Note_on_c, 5, 103, 0
6, 6795, Note_on_c, 5, 115, 0
6, 6822, Note_on_c, 5, 110, 0
6, 6822, Note_on_c, 5, 107, 90
6, 6823, Note_on_c, 5, 102, 0
6, 6825, Note_on_c, 5, 103, 90
6, 6850, Note_on_c, 5, 107, 0
6, 6852, Note_on_c, 5, 110, 90
6, 6853, Note_on_c, 5, 98, 90
6, 6854, Note_on_c, 5, 103, 0
6, 6883, Note_on_c, 5, 110, 0
6, 6883, Note_on_c, 5, 98, 0
6, 6883, Note_on_c, 5, 103, 90
6, 6883, Note_on_c, 5, 95, 90
6, 6911, Note_on_c, 5, 95, 0
6, 6912, Note_on_c, 5, 103, 0
6, 6912, Note_on_c, 5, 107, 90
6, 6912, Note_on_c, 5, 98, 90
6, 6939, Note_on_c, 5, 107, 0
6, 6939, Note_on_c, 5, 98, 0
6, 6940, Note_on_c, 5, 105, 90
6, 6941, Note_on_c, 5, 96, 90
6, 6966, Note_on_c, 5, 105, 0
6, 6966, Note_on_c, 5, 96, 0
6, 6966, Note_on_c, 5, 103, 90
6, 6967, Note_on_c, 5, 95, 90
6, 6998, Note_on_c, 5, 103, 0
6, 6998, Note_on_c, 5, 95, 0
6, 6999, Note_on_c, 5, 96, 90
6, 6999, Note_on_c, 5, 105, 90
6, 7035, Note_on_c, 5, 96, 0
6, 7035, Note_on_c, 5, 105, 0
6, 7035, Note_on_c, 5, 108, 90
6, 7035, Note_on_c, 5, 100, 90
6, 7064, Note_on_c, 5, 108, 0
6, 7064, Note_on_c, 5, 93, 90
6, 7064, Note_on_c, 5, 102, 90
6, 7066, Note_on_c, 5, 100, 0
6, 7093, Note_on_c, 5, 105, 90
6, 7094, Note_on_c, 5, 93, 0
6, 7094, Note_on_c, 5, 102, 0
6, 7094, Note_on_c, 5, 96, 90
6, 7121, Note_on_c, 5, 105, 0
6, 7121, Note_on_c, 5, 103, 90
6, 7123, Note_on_c, 5, 95, 90
6, 7124, Note_on_c, 5, 96, 0
6, 7149, Note_on_c, 5, 102, 90
6, 7150, Note_on_c, 5, 103, 0
6, 7150, Note_on_c, 5, 93, 90
6, 7151, Note_on_c, 5, 95, 0
6, 7180, Note_on_c, 5, 102, 0
6, 7181, Note_on_c, 5, 103, 90
6, 7183, Note_on_c, 5, 95, 90
6, 7185, Note_on_c, 5, 93, 0
6, 7215, Note_on_c, 5, 107, 90
6, 7216, Note_on_c, 5, 103, 0
6, 7217, Note_on_c, 5, 95, 0
6, 7218, Note_on_c, 5, 98, 90
6, 7246, Note_on_c, 5, 91, 90
6, 7246, Note_on_c, 5, 100, 90
6, 7247, Note_on_c, 5, 107, 0
6, 7249, Note_on_c, 5, 98, 0
6, 7275, Note_on_c, 5, 103, 90
6, 7275, Note_on_c, 5, 95, 90
6, 7276, Note_on_c, 5, 91, 0
6, 7276, Note_on_c, 5, 100, 0
6, 7305, Note_on_c, 5, 103, 0
6, 7305, Note_on_c, 5, 95, 0
6, 7305, Note_on_c, 5, 102, 90
6, 7306, Note_on_c, 5, 93, 90
6, 7332, Note_on_c, 5, 100, 90
6, 7333, Note_on_c, 5, 102, 0
6, 7334, Note_on_c, 5, 91, 90
6, 7336, Note_on_c, 5, 93, 0
6, 7354, Note_on_c, 5, 100, 0
6, 7360, Note_on_c, 5, 91, 0
6, 7365, Note_on_c, 5, 93, 90
6, 7365, Note_on_c, 5, 102, 90
6, 7399, Note_on_c, 5, 100, 90
6, 7428, Note_on_c, 5, 98, 90
6, 7430, Note_on_c, 5, 100, 0
6, 7456, Note_on_c, 5, 98, 0
6, 7458, Note_on_c, 5, 96, 90
6, 7487, Note_on_c, 5, 93, 0
6, 7488, Note_on_c, 5, 96, 0
6, 7488, Note_on_c, 5, 95, 90
6, 7514, Note_on_c, 5, 93, 90
6, 7515, Note_on_c, 5, 95, 0
6, 7540, Note_on_c, 5, 102, 0
6, 7551, Note_on_c, 5, 91, 90
6, 7552, Note_on_c, 5, 93, 0
6, 7552, Note_on_c, 5, 95, 90
6, 7582, Note_on_c, 5, 105, 90
6, 7609, Note_on_c, 5, 105, 0
6, 7610, Note_on_c, 5, 103, 90
6, 7639, Note_on_c, 5, 102, 90
6, 7640, Note_on_c, 5, 103, 0
6, 7670, Note_on_c, 5, 102, 0
6, 7670, Note_on_c, 5, 100, 90
6, 7674, Note_on_c, 5, 95, 0
6, 7696, Note_on_c, 5, 100, 0
6, 7697, Note_on_c, 5, 98, 90
6, 7716, Note_on_c, 5, 98, 0
6, 7728, Note_on_c, 5, 97, 90
6, 7761, Note_on_c, 5, 95, 90
6, 7776, Note_on_c, 5, 95, 0
6, 7792, Note_on_c, 5, 91, 0
6, 7792, Note_on_c, 5, 93, 90
6, 7820, Note_on_c, 5, 91, 90
6, 7851, Note_on_c, 5, 91, 0
6, 7851, Note_on_c, 5, 90, 90
6, 7879, Note_on_c, 5, 88, 90
6, 7880, Note_on_c, 5, 90, 0
6, 7897, Note_on_c, 5, 93, 0
6, 7902, Note_on_c, 5, 97, 0
6, 7906, Note_on_c, 5, 88, 0
6, 7910, Note_on_c, 5, 90, 90
6, 7941, Note_on_c, 5, 93, 90
6, 7968, Note_on_c, 5, 98, 90
6, 7976, Note_on_c, 5, 90, 0
6, 7993, Note_on_c, 5, 90, 90
6, 8018, Note_on_c, 5, 93, 0
6, 8020, Note_on_c, 5, 90, 0
6, 8028, Note_on_c, 5, 88, 90
6, 8030, Note_on_c, 5, 91, 90
6, 8056, Note_on_c, 5, 88, 0
6, 8056, Note_on_c, 5, 91, 0
6, 8057, Note_on_c, 5, 96, 90
6, 8061, Note_on_c, 5, 98, 0
6, 8087, Note_on_c, 5, 90, 90
6, 8088, Note_on_c, 5, 86, 90
6, 8091, Note_on_c, 5, 96, 0
6, 8121, Note_on_c, 5, 100, 90
6, 8152, Note_on_c, 5, 100, 0
6, 8152, Note_on_c, 5, 98, 90
6, 8181, Note_on_c, 5, 96, 90
6, 8182, Note_on_c, 5, 98, 0
6, 8208, Note_on_c, 5, 96, 0
6, 8209, Note_on_c, 5, 95, 90
6, 8239, Note_on_c, 5, 93, 90
6, 8240, Note_on_c, 5, 95, 0
6, 8251, Note_on_c, 5, 93, 0
6, 8272, Note_on_c, 5, 95, 90
6, 8300, Note_on_c, 5, 93, 90
6, 8301, Note_on_c, 5, 90, 0
6, 8330, Note_on_c, 5, 91, 90
6, 8331, Note_on_c, 5, 93, 0
6, 8360, Note_on_c, 5, 90, 90
6, 8361, Note_on_c, 5, 91, 0
6, 8391, Note_on_c, 5, 90, 0
6, 8391, Note_on_c, 5, 91, 90
6, 8392, Note_on_c, 5, 95, 0
6, 8418, Note_on_c, 5, 95, 90
6, 8438, Note_on_c, 5, 95, 0
6, 8449, Note_on_c, 5, 93, 90
6, 8453, Note_on_c, 5, 91, 0
6, 8480, Note_on_c, 5, 91, 90
6, 8508, Note_on_c, 5, 90, 90
6, 8511, Note_on_c, 5, 91, 0
6, 8536, Note_on_c, 5, 88, 90
6, 8537, Note_on_c, 5, 90, 0
6, 8567, Note_on_c, 5, 90, 90
6, 8574, Note_on_c, 5, 88, 0
6, 8596, Note_on_c, 5, 95, 90
6, 8597, Note_on_c, 5, 93, 0
6, 8601, Note_on_c, 5, 90, 0
6, 8627, Note_on_c, 5, 88, 90
6, 8628, Note_on_c, 5, 97, 90
6, 8629, Note_on_c, 5, 95, 0
6, 8658, Note_on_c, 5, 97, 0
6, 8659, Note_on_c, 5, 90, 90
6, 8659, Note_on_c, 5, 98, 90
6, 8665, Note_on_c, 5, 88, 0
6, 8688, Note_on_c, 5, 100, 90
6, 8689, Note_on_c, 5, 98, 0
6, 8689, Note_on_c, 5, 91, 90
6, 8690, Note_on_c, 5, 90, 0
6, 8717, Note_on_c, 5, 102, 90
6, 8718, Note_on_c, 5, 93, 90
6, 8719, Note_on_c, 5, 100, 0
6, 8719, Note_on_c, 5, 91, 0
6, 8747, Note_on_c, 5, 102, 0
6, 8747, Note_on_c, 5, 95, 90
6, 8747, Note_on_c, 5, 103, 90
6, 8752, Note_on_c, 5, 93, 0
6, 8775, Note_on_c, 5, 95, 0
6, 8775, Note_on_c, 5, 91, 90
6, 8775, Note_on_c, 5, 97, 90
6, 8778, Note_on_c, 5, 86, 0
6, 8806, Note_on_c, 5, 91, 0
6, 8806, Note_on_c, 5, 97, 0
6, 8809, Note_on_c, 5, 98, 90
6, 8810, Note_on_c, 5, 86, 90
6, 8810, Note_on_c, 5, 93, 90
6, 8811, Note_on_c, 5, 103, 0
6, 8841, Note_on_c, 5, 103, 90
6, 8872, Note_on_c, 5, 102, 90
6, 8873, Note_on_c, 5, 103, 0
6, 8901, Note_on_c, 5, 102, 0
6, 8901, Note_on_c, 5, 100, 90
6, 8929, Note_on_c, 5, 100, 0
6, 8930, Note_on_c, 5, 102, 90
6, 8957, Note_on_c, 5, 102, 0
6, 8958, Note_on_c, 5, 103, 90
6, 8961, Note_on_c, 5, 98, 0
6, 8967, Note_on_c, 5, 103, 0
6, 8989, Note_on_c, 5, 102, 90
6, 8989, Note_on_c, 5, 105, 90
6, 9018, Note_on_c, 5, 105, 0
6, 9018, Note_on_c, 5, 103, 90
6, 9019, Note_on_c, 5, 93, 0
6, 9019, Note_on_c, 5, 88, 90
6, 9045, Note_on_c, 5, 90, 90
6, 9046, Note_on_c, 5, 88, 0
6, 9048, Note_on_c, 5, 105, 90
6, 9049, Note_on_c, 5, 103, 0
6, 9050, Note_on_c, 5, 86, 0
6, 9076, Note_on_c, 5, 91, 90
6, 9076, Note_on_c, 5, 107, 90
6, 9077, Note_on_c, 5, 90, 0
6, 9077, Note_on_c, 5, 105, 0
6, 9085, Note_on_c, 5, 107, 0
6, 9106, Note_on_c, 5, 91, 0
6, 9106, Note_on_c, 5, 93, 90
6, 9106, Note_on_c, 5, 109, 90
6, 9132, Note_on_c, 5, 95, 90
6, 9133, Note_on_c, 5, 93, 0
6, 9133, Note_on_c, 5, 110, 90
6, 9134, Note_on_c, 5, 109, 0
6, 9138, Note_on_c, 5, 102, 0
6, 9142, Note_on_c, 5, 95, 0
6, 9150, Note_on_c, 5, 110, 0
6, 9164, Note_on_c, 5, 110, 90
6, 9165, Note_on_c, 5, 91, 90
6, 9165, Note_on_c, 5, 100, 90
6, 9195, Note_on_c, 5, 91, 0
6, 9196, Note_on_c, 5, 95, 90
6, 9217, Note_on_c, 5, 110, 0
6, 9225, Note_on_c, 5, 103, 90
6, 9225, Note_on_c, 5, 88, 90
6, 9226, Note_on_c, 5, 95, 0
6, 9253, Note_on_c, 5, 91, 90
6, 9255, Note_on_c, 5, 88, 0
6, 9260, Note_on_c, 5, 103, 0
6, 9283, Note_on_c, 5, 108, 90
6, 9285, Note_on_c, 5, 91, 0
6, 9285, Note_on_c, 5, 90, 90
6, 9314, Note_on_c, 5, 90, 0
6, 9314, Note_on_c, 5, 88, 90
6, 9346, Note_on_c, 5, 90, 90
6, 9347, Note_on_c, 5, 88, 0
6, 9374, Note_on_c, 5, 100, 0
6, 9380, Note_on_c, 5, 90, 0
6, 9381, Note_on_c, 5, 93, 90
6, 9409, Note_on_c, 5, 86, 90
6, 9411, Note_on_c, 5, 102, 90
6, 9412, Note_on_c, 5, 108, 0
6, 9412, Note_on_c, 5, 93, 0
6, 9439, Note_on_c, 5, 90, 90
6, 9442, Note_on_c, 5, 86, 0
6, 9468, Note_on_c, 5, 102, 0
6, 9469, Note_on_c, 5, 107, 90
6, 9471, Note_on_c, 5, 90, 0
6, 9471, Note_on_c, 5, 88, 90
6, 9501, Note_on_c, 5, 86, 90
6, 9502, Note_on_c, 5, 88, 0
6, 9529, Note_on_c, 5, 86, 0
6, 9530, Note_on_c, 5, 88, 90
6, 9533, Note_on_c, 5, 107, 0
6, 9561, Note_on_c, 5, 110, 90
6, 9593, Note_on_c, 5, 91, 90
6, 9594, Note_on_c, 5, 108, 90
6, 9595, Note_on_c, 5, 110, 0
6, 9623, Note_on_c, 5, 108, 0
6, 9623, Note_on_c, 5, 107, 90
6, 9650, Note_on_c, 5, 107, 0
6, 9652, Note_on_c, 5, 96, 90
6, 9652, Note_on_c, 5, 105, 90
6, 9653, Note_on_c, 5, 91, 0
6, 9677, Note_on_c, 5, 88, 0
6, 9681, Note_on_c, 5, 105, 0
6, 9681, Note_on_c, 5, 103, 90
6, 9709, Note_on_c, 5, 103, 0
6, 9710, Note_on_c, 5, 102, 90
6, 9710, Note_on_c, 5, 86, 90
6, 9739, Note_on_c, 5, 96, 0
6, 9741, Note_on_c, 5, 102, 0
6, 9741, Note_on_c, 5, 100, 90
6, 9770, Note_on_c, 5, 100, 0
6, 9770, Note_on_c, 5, 90, 90
6, 9770, Note_on_c, 5, 98, 90
6, 9797, Note_on_c, 5, 98, 0
6, 9798, Note_on_c, 5, 96, 90
6, 9799, Note_on_c, 5, 93, 90
6, 9800, Note_on_c, 5, 90, 0
6, 9827, Note_on_c, 5, 96, 0
6, 9828, Note_on_c, 5, 93, 0
6, 9828, Note_on_c, 5, 91, 90
6, 9829, Note_on_c, 5, 95, 90
6, 9852, Note_on_c, 5, 91, 0
6, 9855, Note_on_c, 5, 93, 90
6, 9855, Note_on_c, 5, 90, 90
6, 9856, Note_on_c, 5, 95, 0
6, 9875, Note_on_c, 5, 93, 0
6, 9887, Note_on_c, 5, 90, 0
6, 9889, Note_on_c, 5, 91, 90
6, 9889, Note_on_c, 5, 95, 90
6, 9892, Note_on_c, 5, 86, 0
6, 9920, Note_on_c, 5, 83, 90
6, 9921, Note_on_c, 5, 98, 90
6, 9922, Note_on_c, 5, 95, 0
6, 9950, Note_on_c, 5, 84, 90
6, 9951, Note_on_c, 5, 98, 0
6, 9951, Note_on_c, 5, 100, 90
6, 9954, Note_on_c, 5, 83, 0
6, 9977, Note_on_c, 5, 86, 90
6, 9978, Note_on_c, 5, 100, 0
6, 9979, Note_on_c, 5, 102, 90
6, 9981, Note_on_c, 5, 84, 0
6, 10000, Note_on_c, 5, 86, 0
6, 10006, Note_on_c, 5, 88, 90
6, 10008, Note_on_c, 5, 103, 90
6, 10009, Note_on_c, 5, 102, 0
6, 10018, Note_on_c, 5, 91, 0
6, 10036, Note_on_c, 5, 95, 90
6, 10053, Note_on_c, 5, 95, 0
6, 10068, Note_on_c, 5, 96, 90
6, 10072, Note_on_c, 5, 103, 0
6, 10096, Note_on_c, 5, 103, 90
6, 10109, Note_on_c, 5, 88, 0
6, 10128, Note_on_c, 5, 102, 90
6, 10129, Note_on_c, 5, 103, 0
6, 10129, Note_on_c, 5, 86, 90
6, 10157, Note_on_c, 5, 100, 90
6, 10158, Note_on_c, 5, 102, 0
6, 10186, Note_on_c, 5, 100, 0
6, 10186, Note_on_c, 5, 102, 90
6, 10187, Note_on_c, 5, 84, 90
6, 10189, Note_on_c, 5, 86, 0
6, 10190, Note_on_c, 5, 96, 0
6, 10216, Note_on_c, 5, 96, 90
6, 10248, Note_on_c, 5, 102, 0
6, 10248, Note_on_c, 5, 103, 90
6, 10249, Note_on_c, 5, 86, 90
6, 10250, Note_on_c, 5, 84, 0
6, 10254, Note_on_c, 5, 96, 0
6, 10278, Note_on_c, 5, 96, 90
6, 10308, Note_on_c, 5, 96, 0
6, 10308, Note_on_c, 5, 95, 90
6, 10337, Note_on_c, 5, 93, 90
6, 10338, Note_on_c, 5, 95, 0
6, 10364, Note_on_c, 5, 93, 0
6, 10365, Note_on_c, 5, 95, 90
6, 10396, Note_on_c, 5, 86, 0
6, 10396, Note_on_c, 5, 88, 90
6, 10426, Note_on_c, 5, 88, 0
6, 10427, Note_on_c, 5, 89, 90
6, 10457, Note_on_c, 5, 98, 90
6, 10458, Note_on_c, 5, 95, 0
6, 10485, Note_on_c, 5, 96, 90
6, 10489, Note_on_c, 5, 98, 0
6, 10515, Note_on_c, 5, 95, 90
6, 10516, Note_on_c, 5, 96, 0
6, 10544, Note_on_c, 5, 93, 90
6, 10547, Note_on_c, 5, 95, 0
6, 10563, Note_on_c, 5, 93, 0
6, 10574, Note_on_c, 5, 91, 90
6, 10592, Note_on_c, 5, 91, 0
6, 10606, Note_on_c, 5, 96, 90
6, 10608, Note_on_c, 5, 89, 0
6, 10636, Note_on_c, 5, 89, 90
6, 10664, Note_on_c, 5, 88, 90
6, 10665, Note_on_c, 5, 89, 0
6, 10693, Note_on_c, 5, 86, 90
6, 10695, Note_on_c, 5, 88, 0
6, 10723, Note_on_c, 5, 86, 0
6, 10723, Note_on_c, 5, 88, 90
6, 10754, Note_on_c, 5, 90, 90
6, 10755, Note_on_c, 5, 88, 0
6, 10768, Note_on_c, 5, 90, 0
6, 10784, Note_on_c, 5, 91, 90
6, 10794, Note_on_c, 5, 96, 0
6, 10817, Note_on_c, 5, 100, 90
6, 10848, Note_on_c, 5, 98, 90
6, 10850, Note_on_c, 5, 100, 0
6, 10876, Note_on_c, 5, 96, 90
6, 10877, Note_on_c, 5, 98, 0
6, 10907, Note_on_c, 5, 95, 90
6, 10910, Note_on_c, 5, 96, 0
6, 10919, Note_on_c, 5, 95, 0
6, 10934, Note_on_c, 5, 93, 90
6, 10944, Note_on_c, 5, 93, 0
6, 10966, Note_on_c, 5, 95, 90
6, 10971, Note_on_c, 5, 91, 0
6, 11000, Note_on_c, 5, 93, 90
6, 11031, Note_on_c, 5, 93, 0
6, 11031, Note_on_c, 5, 96, 90
6, 11031, Note_on_c, 5, 91, 90
6, 11033, Note_on_c, 5, 95, 0
6, 11059, Note_on_c, 5, 89, 90
6, 11060, Note_on_c, 5, 91, 0
6, 11087, Note_on_c, 5, 89, 0
6, 11088, Note_on_c, 5, 98, 90
6, 11089, Note_on_c, 5, 96, 0
6, 11089, Note_on_c, 5, 88, 90
6, 11117, Note_on_c, 5, 88, 0
6, 11117, Note_on_c, 5, 86, 90
6, 11146, Note_on_c, 5, 86, 0
6, 11146, Note_on_c, 5, 84, 90
6, 11147, Note_on_c, 5, 98, 0
6, 11147, Note_on_c, 5, 100, 90
6, 11150, Note_on_c, 5, 103, 0
6, 11176, Note_on_c, 5, 84, 0
6, 11177, Note_on_c, 5, 86, 90
6, 11177, Note_on_c, 5, 103, 90
6, 11206, Note_on_c, 5, 105, 90
6, 11207, Note_on_c, 5, 84, 90
6, 11208, Note_on_c, 5, 103, 0
6, 11210, Note_on_c, 5, 86, 0
6, 11234, Note_on_c, 5, 84, 0
6, 11234, Note_on_c, 5, 83, 90
6, 11235, Note_on_c, 5, 107, 90
6, 11236, Note_on_c, 5, 105, 0
6, 11263, Note_on_c, 5, 108, 90
6, 11264, Note_on_c, 5, 83, 0
6, 11264, Note_on_c, 5, 81, 90
6, 11266, Note_on_c, 5, 107, 0
6, 11293, Note_on_c, 5, 102, 90
6, 11293, Note_on_c, 5, 86, 90
6, 11294, Note_on_c, 5, 100, 0
6, 11294, Note_on_c, 5, 81, 0
6, 11328, Note_on_c, 5, 103, 90
6, 11328, Note_on_c, 5, 79, 90
6, 11329, Note_on_c, 5, 102, 0
6, 11330, Note_on_c, 5, 86, 0
6, 11333, Note_on_c, 5, 108, 0
6, 11363, Note_on_c, 5, 112, 90
6, 11380, Note_on_c, 5, 79, 0
6, 11389, Note_on_c, 5, 112, 0
6, 11390, Note_on_c, 5, 110, 90
6, 11392, Note_on_c, 5, 83, 90
6, 11421, Note_on_c, 5, 108, 90
6, 11422, Note_on_c, 5, 103, 0
6, 11423, Note_on_c, 5, 110, 0
6, 11429, Note_on_c, 5, 83, 0
6, 11451, Note_on_c, 5, 108, 0
6, 11451, Note_on_c, 5, 107, 90
6, 11452, Note_on_c, 5, 86, 90
6, 11480, Note_on_c, 5, 105, 90
6, 11481, Note_on_c, 5, 107, 0
6, 11483, Note_on_c, 5, 86, 0
6, 11508, Note_on_c, 5, 105, 0
6, 11512, Note_on_c, 5, 107, 90
6, 11513, Note_on_c, 5, 91, 90
6, 11542, Note_on_c, 5, 110, 90
6, 11545, Note_on_c, 5, 107, 0
6, 11575, Note_on_c, 5, 108, 90
6, 11576, Note_on_c, 5, 110, 0
6, 11606, Note_on_c, 5, 107, 90
6, 11608, Note_on_c, 5, 108, 0
6, 11635, Note_on_c, 5, 105, 90
6, 11636, Note_on_c, 5, 107, 0
6, 11661, Note_on_c, 5, 103, 90
6, 11663, Note_on_c, 5, 105, 0
6, 11676, Note_on_c, 5, 103, 0
6, 11693, Note_on_c, 5, 105, 90
6, 11701, Note_on_c, 5, 91, 0
6, 11724, Note_on_c, 5, 91, 90
6, 11755, Note_on_c, 5, 91, 0
6, 11755, Note_on_c, 5, 93, 90
6, 11755, Note_on_c, 5, 90, 90
6, 11781, Note_on_c, 5, 90, 0
6, 11783, Note_on_c, 5, 88, 90
6, 11788, Note_on_c, 5, 93, 0
6, 11814, Note_on_c, 5, 98, 90
6, 11816, Note_on_c, 5, 105, 0
6, 11816, Note_on_c, 5, 88, 0
6, 11816, Note_on_c, 5, 90, 90
6, 11843, Note_on_c, 5, 105, 90
6, 11850, Note_on_c, 5, 90, 0
6, 11877, Note_on_c, 5, 103, 90
6, 11877, Note_on_c, 5, 91, 90
6, 11883, Note_on_c, 5, 98, 0
6, 11883, Note_on_c, 5, 105, 0
6, 11906, Note_on_c, 5, 98, 90
6, 11935, Note_on_c, 5, 96, 90
6, 11936, Note_on_c, 5, 98, 0
6, 11962, Note_on_c, 5, 96, 0
6, 11964, Note_on_c, 5, 95, 90
6, 11993, Note_on_c, 5, 95, 0
6, 11995, Note_on_c, 5, 96, 90
6, 12053, Note_on_c, 5, 103, 0
6, 12057, Note_on_c, 5, 98, 90
6, 12063, Note_on_c, 5, 96, 0
6, 12086, Note_on_c, 5, 96, 90
6, 12113, Note_on_c, 5, 95, 90
6, 12118, Note_on_c, 5, 96, 0
6, 12134, Note_on_c, 5, 95, 0
6, 12141, Note_on_c, 5, 93, 90
6, 12156, Note_on_c, 5, 93, 0
6, 12170, Note_on_c, 5, 95, 90
6, 12177, Note_on_c, 5, 98, 0
6, 12199, Note_on_c, 5, 95, 0
6, 12199, Note_on_c, 5, 100, 90
6, 12233, Note_on_c, 5, 100, 0
6, 12234, Note_on_c, 5, 96, 90
6, 12234, Note_on_c, 5, 102, 90
6, 12237, Note_on_c, 5, 91, 0
6, 12264, Note_on_c, 5, 95, 90
6, 12294, Note_on_c, 5, 93, 90
6, 12295, Note_on_c, 5, 95, 0
6, 12323, Note_on_c, 5, 93, 0
6, 12323, Note_on_c, 5, 91, 90
6, 12352, Note_on_c, 5, 91, 0
6, 12353, Note_on_c, 5, 90, 90
6, 12377, Note_on_c, 5, 96, 0
6, 12380, Note_on_c, 5, 90, 0
6, 12380, Note_on_c, 5, 88, 90
6, 12406, Note_on_c, 5, 88, 0
6, 12409, Note_on_c, 5, 102, 0
6, 12411, Note_on_c, 5, 98, 90
6, 12415, Note_on_c, 5, 86, 90
6, 12441, Note_on_c, 5, 102, 90
6, 12468, Note_on_c, 5, 104, 90
6, 12470, Note_on_c, 5, 88, 90
6, 12471, Note_on_c, 5, 86, 0
6, 12471, Note_on_c, 5, 102, 0
6, 12496, Note_on_c, 5, 105, 90
6, 12498, Note_on_c, 5, 104, 0
6, 12523, Note_on_c, 5, 107, 90
6, 12526, Note_on_c, 5, 88, 0
6, 12526, Note_on_c, 5, 105, 0
6, 12526, Note_on_c, 5, 89, 90
6, 12550, Note_on_c, 5, 108, 90
6, 12556, Note_on_c, 5, 107, 0
6, 12556, Note_on_c, 5, 89, 0
6, 12569, Note_on_c, 5, 108, 0
6, 12579, Note_on_c, 5, 88, 90
6, 12582, Note_on_c, 5, 104, 90
6, 12611, Note_on_c, 5, 98, 0
6, 12612, Note_on_c, 5, 101, 90
6, 12638, Note_on_c, 5, 89, 90
6, 12640, Note_on_c, 5, 88, 0
6, 12641, Note_on_c, 5, 101, 0
6, 12641, Note_on_c, 5, 100, 90
6, 12668, Note_on_c, 5, 98, 90
6, 12670, Note_on_c, 5, 100, 0
6, 12682, Note_on_c, 5, 89, 0
6, 12697, Note_on_c, 5, 86, 90
6, 12700, Note_on_c, 5, 98, 0
6, 12701, Note_on_c, 5, 97, 90
6, 12724, Note_on_c, 5, 86, 0
6, 12730, Note_on_c, 5, 97, 0
6, 12731, Note_on_c, 5, 98, 90
6, 12758, Note_on_c, 5, 88, 90
6, 12759, Note_on_c, 5, 104, 0
6, 12759, Note_on_c, 5, 105, 90
6, 12767, Note_on_c, 5, 98, 0
6, 12789, Note_on_c, 5, 98, 90
6, 12819, Note_on_c, 5, 97, 90
6, 12820, Note_on_c, 5, 98, 0
6, 12848, Note_on_c, 5, 95, 90
6, 12849, Note_on_c, 5, 97, 0
6, 12877, Note_on_c, 5, 97, 90
6, 12879, Note_on_c, 5, 95, 0
6, 12903, Note_on_c, 5, 103, 90
6, 12904, Note_on_c, 5, 105, 0
6, 12914, Note_on_c, 5, 97, 0
6, 12935, Note_on_c, 5, 103, 0
6, 12936, Note_on_c, 5, 88, 0
6, 12936, Note_on_c, 5, 101, 90
6, 12962, Note_on_c, 5, 85, 90
6, 12964, Note_on_c, 5, 93, 90
6, 12990, Note_on_c, 5, 85, 0
6, 12990, Note_on_c, 5, 86, 90
6, 12993, Note_on_c, 5, 95, 90
6, 12995, Note_on_c, 5, 93, 0
6, 13017, Note_on_c, 5, 88, 90
6, 13018, Note_on_c, 5, 86, 0
6, 13019, Note_on_c, 5, 95, 0
6, 13021, Note_on_c, 5, 97, 90
6, 13043, Note_on_c, 5, 96, 90
6, 13048, Note_on_c, 5, 96, 0
6, 13049, Note_on_c, 5, 89, 90
6, 13050, Note_on_c, 5, 97, 0
6, 13052, Note_on_c, 5, 98, 90
6, 13053, Note_on_c, 5, 88, 0
6, 13077, Note_on_c, 5, 89, 0
6, 13078, Note_on_c, 5, 91, 90
6, 13106, Note_on_c, 5, 101, 0
6, 13108, Note_on_c, 5, 91, 0
6, 13108, Note_on_c, 5, 93, 90
6, 13114, Note_on_c, 5, 100, 90
6, 13116, Note_on_c, 5, 98, 0
6, 13147, Note_on_c, 5, 98, 90
6, 13178, Note_on_c, 5, 97, 90
6, 13179, Note_on_c, 5, 98, 0
6, 13205, Note_on_c, 5, 97, 0
6, 13206, Note_on_c, 5, 95, 90
6, 13238, Note_on_c, 5, 97, 90
6, 13240, Note_on_c, 5, 100, 0
6, 13244, Note_on_c, 5, 95, 0
6, 13269, Note_on_c, 5, 101, 90
6, 13287, Note_on_c, 5, 101, 0
6, 13303, Note_on_c, 5, 103, 90
6, 13311, Note_on_c, 5, 93, 0
6, 13329, Note_on_c, 5, 94, 90
6, 13360, Note_on_c, 5, 94, 0
6, 13361, Note_on_c, 5, 93, 90
6, 13371, Note_on_c, 5, 103, 0
6, 13371, Note_on_c, 5, 100, 90
6, 13389, Note_on_c, 5, 91, 90
6, 13390, Note_on_c, 5, 93, 0
6, 13397, Note_on_c, 5, 100, 0
6, 13422, Note_on_c, 5, 89, 90
6, 13423, Note_on_c, 5, 91, 0
6, 13428, Note_on_c, 5, 105, 90
6, 13452, Note_on_c, 5, 88, 90
6, 13453, Note_on_c, 5, 105, 0
6, 13455, Note_on_c, 5, 89, 0
6, 13464, Note_on_c, 5, 88, 0
6, 13485, Note_on_c, 5, 86, 90
6, 13490, Note_on_c, 5, 101, 90
6, 13517, Note_on_c, 5, 86, 0
6, 13517, Note_on_c, 5, 88, 90
6, 13548, Note_on_c, 5, 86, 90
6, 13549, Note_on_c, 5, 88, 0
6, 13553, Note_on_c, 5, 93, 90
6, 13559, Note_on_c, 5, 97, 0
6, 13572, Note_on_c, 5, 93, 0
6, 13577, Note_on_c, 5, 86, 0
6, 13578, Note_on_c, 5, 84, 90
6, 13608, Note_on_c, 5, 84, 0
6, 13609, Note_on_c, 5, 83, 90
6, 13612, Note_on_c, 5, 98, 90
6, 13639, Note_on_c, 5, 81, 90
6, 13640, Note_on_c, 5, 83, 0
6, 13652, Note_on_c, 5, 81, 0
6, 13673, Note_on_c, 5, 101, 0
6, 13673, Note_on_c, 5, 80, 90
6, 13674, Note_on_c, 5, 98, 0
6, 13674, Note_on_c, 5, 95, 90
6, 13705, Note_on_c, 5, 101, 90
6, 13729, Note_on_c, 5, 101, 0
6, 13734, Note_on_c, 5, 100, 90
6, 13763, Note_on_c, 5, 98, 90
6, 13767, Note_on_c, 5, 100, 0
6, 13791, Note_on_c, 5, 97, 90
6, 13792, Note_on_c, 5, 98, 0
6, 13820, Note_on_c, 5, 98, 90
6, 13821, Note_on_c, 5, 97, 0
6, 13836, Note_on_c, 5, 80, 0
6, 13843, Note_on_c, 5, 98, 0
6, 13848, Note_on_c, 5, 81, 90
6, 13854, Note_on_c, 5, 97, 90
6, 13860, Note_on_c, 5, 95, 0
6, 13885, Note_on_c, 5, 95, 90
6, 13914, Note_on_c, 5, 95, 0
6, 13915, Note_on_c, 5, 93, 90
6, 13945, Note_on_c, 5, 91, 90
6, 13947, Note_on_c, 5, 93, 0
6, 13958, Note_on_c, 5, 91, 0
6, 13974, Note_on_c, 5, 90, 90
6, 13988, Note_on_c, 5, 90, 0
6, 14003, Note_on_c, 5, 88, 90
6, 14016, Note_on_c, 5, 88, 0
6, 14034, Note_on_c, 5, 81, 0
6, 14036, Note_on_c, 5, 90, 90
6, 14042, Note_on_c, 5, 97, 0
6, 14067, Note_on_c, 5, 93, 90
6, 14087, Note_on_c, 5, 93, 0
6, 14095, Note_on_c, 5, 98, 90
6, 14110, Note_on_c, 5, 90, 0
6, 14122, Note_on_c, 5, 90, 90
6, 14133, Note_on_c, 5, 90, 0
6, 14152, Note_on_c, 5, 88, 90
6, 14182, Note_on_c, 5, 97, 90
6, 14184, Note_on_c, 5, 98, 0
6, 14190, Note_on_c, 5, 88, 0
6, 14195, Note_on_c, 5, 97, 0
6, 14217, Note_on_c, 5, 98, 90
6, 14218, Note_on_c, 5, 86, 90
6, 14251, Note_on_c, 5, 74, 90
6, 14279, Note_on_c, 5, 76, 90
6, 14283, Note_on_c, 5, 74, 0
6, 14310, Note_on_c, 5, 78, 90
6, 14311, Note_on_c, 5, 76, 0
6, 14339, Note_on_c, 5, 79, 90
6, 14341, Note_on_c, 5, 78, 0
6, 14367, Note_on_c, 5, 81, 90
6, 14368, Note_on_c, 5, 86, 0
6, 14369, Note_on_c, 5, 79, 0
6, 14372, Note_on_c, 5, 98, 0
6, 14397, Note_on_c, 5, 81, 0
6, 14399, Note_on_c, 5, 83, 90
6, 14428, Note_on_c, 5, 100, 90
6, 14459, Note_on_c, 5, 98, 90
6, 14462, Note_on_c, 5, 100, 0
6, 14487, Note_on_c, 5, 96, 90
6, 14488, Note_on_c, 5, 98, 0
6, 14518, Note_on_c, 5, 95, 90
6, 14519, Note_on_c, 5, 96, 0
6, 14545, Note_on_c, 5, 93, 90
6, 14548, Note_on_c, 5, 95, 0
6, 14555, Note_on_c, 5, 93, 0
6, 14575, Note_on_c, 5, 91, 90
6, 14585, Note_on_c, 5, 83, 0
6, 14605, Note_on_c, 5, 102, 90
6, 14635, Note_on_c, 5, 81, 90
6, 14636, Note_on_c, 5, 102, 0
6, 14636, Note_on_c, 5, 103, 90
6, 14664, Note_on_c, 5, 103, 0
6, 14664, Note_on_c, 5, 105, 90
6, 14668, Note_on_c, 5, 81, 0
6, 14695, Note_on_c, 5, 107, 90
6, 14696, Note_on_c, 5, 105, 0
6, 14696, Note_on_c, 5, 79, 90
6, 14719, Note_on_c, 5, 79, 0
6, 14725, Note_on_c, 5, 107, 0
6, 14725, Note_on_c, 5, 109, 90
6, 14752, Note_on_c, 5, 81, 90
6, 14753, Note_on_c, 5, 109, 0
6, 14753, Note_on_c, 5, 110, 90
6, 14758, Note_on_c, 5, 91, 0
6, 14782, Note_on_c, 5, 91, 90
6, 14802, Note_on_c, 5, 110, 0
6, 14813, Note_on_c, 5, 90, 90
6, 14814, Note_on_c, 5, 91, 0
6, 14814, Note_on_c, 5, 105, 90
6, 14842, Note_on_c, 5, 88, 90
6, 14843, Note_on_c, 5, 90, 0
6, 14850, Note_on_c, 5, 105, 0
6, 14873, Note_on_c, 5, 88, 0
6, 14873, Note_on_c, 5, 90, 90
6, 14874, Note_on_c, 5, 110, 90
6, 14902, Note_on_c, 5, 91, 90
6, 14905, Note_on_c, 5, 90, 0
6, 14916, Note_on_c, 5, 91, 0
6, 14924, Note_on_c, 5, 81, 0
6, 14935, Note_on_c, 5, 93, 90
6, 14936, Note_on_c, 5, 86, 90
6, 14965, Note_on_c, 5, 110, 0
6, 14966, Note_on_c, 5, 108, 90
6, 14994, Note_on_c, 5, 107, 90
6, 14997, Note_on_c, 5, 108, 0
6, 15023, Note_on_c, 5, 107, 0
6, 15024, Note_on_c, 5, 105, 90
6, 15055, Note_on_c, 5, 105, 0
6, 15055, Note_on_c, 5, 104, 90
6, 15082, Note_on_c, 5, 104, 0
6, 15083, Note_on_c, 5, 105, 90
6, 15087, Note_on_c, 5, 93, 0
6, 15110, Note_on_c, 5, 105, 0
6, 15112, Note_on_c, 5, 107, 90
6, 15138, Note_on_c, 5, 107, 0
6, 15139, Note_on_c, 5, 108, 90
6, 15141, Note_on_c, 5, 89, 90
6, 15145, Note_on_c, 5, 86, 0
6, 15166, Note_on_c, 5, 108, 0
6, 15168, Note_on_c, 5, 110, 90
6, 15168, Note_on_c, 5, 88, 90
6, 15169, Note_on_c, 5, 89, 0
6, 15180, Note_on_c, 5, 110, 0
6, 15196, Note_on_c, 5, 86, 90
6, 15197, Note_on_c, 5, 88, 0
6, 15197, Note_on_c, 5, 113, 90
6, 15222, Note_on_c, 5, 113, 0
6, 15226, Note_on_c, 5, 112, 90
6, 15227, Note_on_c, 5, 84, 90
6, 15229, Note_on_c, 5, 86, 0
6, 15254, Note_on_c, 5, 83, 90
6, 15256, Note_on_c, 5, 110, 90
6, 15259, Note_on_c, 5, 112, 0
6, 15259, Note_on_c, 5, 84, 0
6, 15269, Note_on_c, 5, 83, 0
6, 15272, Note_on_c, 5, 110, 0
6, 15285, Note_on_c, 5, 108, 90
6, 15287, Note_on_c, 5, 81, 90
6, 15315, Note_on_c, 5, 107, 90
6, 15338, Note_on_c, 5, 81, 0
6, 15346, Note_on_c, 5, 88, 90
6, 15346, Note_on_c, 5, 105, 90
6, 15347, Note_on_c, 5, 107, 0
6, 15374, Note_on_c, 5, 105, 0
6, 15374, Note_on_c, 5, 103, 90
6, 15379, Note_on_c, 5, 88, 0
6, 15402, Note_on_c, 5, 103, 0
6, 15406, Note_on_c, 5, 101, 90
6, 15407, Note_on_c, 5, 93, 90
6, 15431, Note_on_c, 5, 100, 90
6, 15432, Note_on_c, 5, 101, 0
6, 15439, Note_on_c, 5, 100, 0
6, 15463, Note_on_c, 5, 93, 0
6, 15464, Note_on_c, 5, 101, 90
6, 15465, Note_on_c, 5, 108, 0
6, 15466, Note_on_c, 5, 86, 90
6, 15500, Note_on_c, 5, 108, 90
6, 15522, Note_on_c, 5, 86, 0
6, 15530, Note_on_c, 5, 107, 90
6, 15531, Note_on_c, 5, 108, 0
6, 15559, Note_on_c, 5, 98, 90
6, 15560, Note_on_c, 5, 105, 90
6, 15562, Note_on_c, 5, 107, 0
6, 15591, Note_on_c, 5, 107, 90
6, 15592, Note_on_c, 5, 105, 0
6, 15592, Note_on_c, 5, 96, 90
6, 15594, Note_on_c, 5, 98, 0
6, 15620, Note_on_c, 5, 96, 0
6, 15621, Note_on_c, 5, 95, 90
6, 15644, Note_on_c, 5, 101, 0
6, 15644, Note_on_c, 5, 107, 0
6, 15649, Note_on_c, 5, 95, 0
6, 15650, Note_on_c, 5, 100, 90
6, 15651, Note_on_c, 5, 96, 90
6, 15684, Note_on_c, 5, 110, 90
6, 15685, Note_on_c, 5, 95, 90
6, 15688, Note_on_c, 5, 96, 0
6, 15713, Note_on_c, 5, 110, 0
6, 15713, Note_on_c, 5, 93, 90
6, 15713, Note_on_c, 5, 108, 90
6, 15715, Note_on_c, 5, 95, 0
6, 15743, Note_on_c, 5, 95, 90
6, 15743, Note_on_c, 5, 107, 90
6, 15744, Note_on_c, 5, 108, 0
6, 15745, Note_on_c, 5, 93, 0
6, 15772, Note_on_c, 5, 95, 0
6, 15772, Note_on_c, 5, 96, 90
6, 15774, Note_on_c, 5, 107, 0
6, 15774, Note_on_c, 5, 105, 90
6, 15802, Note_on_c, 5, 103, 90
6, 15804, Note_on_c, 5, 105, 0
6, 15807, Note_on_c, 5, 100, 0
6, 15812, Note_on_c, 5, 103, 0
6, 15831, Note_on_c, 5, 102, 90
6, 15832, Note_on_c, 5, 98, 90
6, 15860, Note_on_c, 5, 105, 90
6, 15863, Note_on_c, 5, 102, 0
6, 15888, Note_on_c, 5, 105, 0
6, 15890, Note_on_c, 5, 107, 90
6, 15891, Note_on_c, 5, 95, 90
6, 15893, Note_on_c, 5, 98, 0
6, 15897, Note_on_c, 5, 96, 0
6, 15916, Note_on_c, 5, 108, 90
6, 15917, Note_on_c, 5, 107, 0
6, 15917, Note_on_c, 5, 100, 90
6, 15930, Note_on_c, 5, 100, 0
6, 15944, Note_on_c, 5, 108, 0
6, 15946, Note_on_c, 5, 102, 90
6, 15948, Note_on_c, 5, 110, 90
6, 15974, Note_on_c, 5, 102, 0
6, 15975, Note_on_c, 5, 104, 90
6, 15979, Note_on_c, 5, 95, 0
6, 15993, Note_on_c, 5, 110, 0
6, 15993, Note_on_c, 5, 104, 0
6, 16007, Note_on_c, 5, 105, 90
6, 16009, Note_on_c, 5, 93, 90
6, 16038, Note_on_c, 5, 93, 0
6, 16039, Note_on_c, 5, 92, 90
6, 16040, Note_on_c, 5, 113, 90
6, 16057, Note_on_c, 5, 113, 0
6, 16068, Note_on_c, 5, 112, 90
6, 16069, Note_on_c, 5, 92, 0
6, 16069, Note_on_c, 5, 93, 90
6, 16096, Note_on_c, 5, 112, 0
6, 16096, Note_on_c, 5, 110, 90
6, 16098, Note_on_c, 5, 93, 0
6, 16098, Note_on_c, 5, 95, 90
6, 16126, Note_on_c, 5, 110, 0
6, 16126, Note_on_c, 5, 108, 90
6, 16127, Note_on_c, 5, 96, 90
6, 16128, Note_on_c, 5, 95, 0
6, 16147, Note_on_c, 5, 105, 0
6, 16156, Note_on_c, 5, 107, 90
6, 16156, Note_on_c, 5, 98, 90
6, 16158, Note_on_c, 5, 108, 0
6, 16158, Note_on_c, 5, 96, 0
6, 16164, Note_on_c, 5, 107, 0
6, 16185, Note_on_c, 5, 108, 90
6, 16186, Note_on_c, 5, 100, 90
6, 16189, Note_on_c, 5, 98, 0
6, 16215, Note_on_c, 5, 107, 90
6, 16216, Note_on_c, 5, 98, 90
6, 16218, Note_on_c, 5, 100, 0
6, 16242, Note_on_c, 5, 107, 0
6, 16244, Note_on_c, 5, 96, 90
6, 16244, Note_on_c, 5, 105, 90
6, 16245, Note_on_c, 5, 98, 0
6, 16272, Note_on_c, 5, 96, 0
6, 16272, Note_on_c, 5, 105, 0
6, 16273, Note_on_c, 5, 103, 90
6, 16273, Note_on_c, 5, 95, 90
6, 16301, Note_on_c, 5, 93, 90
6, 16302, Note_on_c, 5, 103, 0
6, 16302, Note_on_c, 5, 95, 0
6, 16302, Note_on_c, 5, 102, 90
6, 16328, Note_on_c, 5, 91, 90
6, 16329, Note_on_c, 5, 100, 90
6, 16331, Note_on_c, 5, 93, 0
6, 16331, Note_on_c, 5, 102, 0
6, 16335, Note_on_c, 5, 91, 0
6, 16361, Note_on_c, 5, 90, 90
6, 16362, Note_on_c, 5, 98, 90
6, 16363, Note_on_c, 5, 100, 0
6, 16369, Note_on_c, 5, 108, 0
6, 16390, Note_on_c, 5, 110, 90
6, 16391, Note_on_c, 5, 88, 90
6, 16393, Note_on_c, 5, 90, 0
6, 16420, Note_on_c, 5, 88, 0
6, 16421, Note_on_c, 5, 108, 90
6, 16421, Note_on_c, 5, 90, 90
6, 16422, Note_on_c, 5, 110, 0
6, 16451, Note_on_c, 5, 91, 90
6, 16451, Note_on_c, 5, 107, 90
6, 16452, Note_on_c, 5, 108, 0
6, 16452, Note_on_c, 5, 90, 0
6, 16480, Note_on_c, 5, 105, 90
6, 16481, Note_on_c, 5, 98, 0
6, 16481, Note_on_c, 5, 91, 0
6, 16481, Note_on_c, 5, 107, 0
6, 16481, Note_on_c, 5, 93, 90
6, 16506, Note_on_c, 5, 105, 0
6, 16507, Note_on_c, 5, 103, 90
6, 16508, Note_on_c, 5, 93, 0
6, 16508, Note_on_c, 5, 95, 90
6, 16522, Note_on_c, 5, 103, 0
6, 16524, Note_on_c, 5, 95, 0
6, 16537, Note_on_c, 5, 102, 90
6, 16538, Note_on_c, 5, 96, 90
6, 16567, Note_on_c, 5, 102, 0
6, 16568, Note_on_c, 5, 95, 90
6, 16569, Note_on_c, 5, 96, 0
6, 16569, Note_on_c, 5, 103, 90
6, 16599, Note_on_c, 5, 103, 0
6, 16600, Note_on_c, 5, 102, 90
6, 16601, Note_on_c, 5, 95, 0
6, 16601, Note_on_c, 5, 93, 90
6, 16628, Note_on_c, 5, 102, 0
6, 16629, Note_on_c, 5, 93, 0
6, 16629, Note_on_c, 5, 91, 90
6, 16629, Note_on_c, 5, 100, 90
6, 16658, Note_on_c, 5, 91, 0
6, 16658, Note_on_c, 5, 90, 90
6, 16660, Note_on_c, 5, 100, 0
6, 16660, Note_on_c, 5, 98, 90
6, 16684, Note_on_c, 5, 88, 90
6, 16685, Note_on_c, 5, 96, 90
6, 16686, Note_on_c, 5, 90, 0
6, 16689, Note_on_c, 5, 98, 0
6, 16691, Note_on_c, 5, 88, 0
6, 16715, Note_on_c, 5, 86, 90
6, 16715, Note_on_c, 5, 95, 90
6, 16716, Note_on_c, 5, 96, 0
6, 16747, Note_on_c, 5, 86, 0
6, 16747, Note_on_c, 5, 88, 90
6, 16778, Note_on_c, 5, 88, 0
6, 16778, Note_on_c, 5, 86, 90
6, 16808, Note_on_c, 5, 84, 90
6, 16809, Note_on_c, 5, 86, 0
6, 16835, Note_on_c, 5, 84, 0
6, 16836, Note_on_c, 5, 83, 90
6, 16865, Note_on_c, 5, 83, 0
6, 16866, Note_on_c, 5, 81, 90
6, 16882, Note_on_c, 5, 95, 0
6, 16893, Note_on_c, 5, 81, 0
6, 16903, Note_on_c, 5, 79, 90
6, 16941, Note_on_c, 5, 91, 90
6, 16942, Note_on_c, 5, 83, 90
6, 16971, Note_on_c, 5, 91, 0
6, 16972, Note_on_c, 5, 93, 90
6, 16973, Note_on_c, 5, 83, 0
6, 16973, Note_on_c, 5, 84, 90
6, 17000, Note_on_c, 5, 86, 90
6, 17000, Note_on_c, 5, 95, 90
6, 17001, Note_on_c, 5, 93, 0
6, 17001, Note_on_c, 5, 84, 0
6, 17029, Note_on_c, 5, 88, 90
6, 17030, Note_on_c, 5, 86, 0
6, 17031, Note_on_c, 5, 95, 0
6, 17032, Note_on_c, 5, 96, 90
6, 17054, Note_on_c, 5, 88, 0
6, 17057, Note_on_c, 5, 96, 0
6, 17057, Note_on_c, 5, 89, 90
6, 17059, Note_on_c, 5, 98, 90
6, 17076, Note_on_c, 5, 98, 0
6, 17086, Note_on_c, 5, 89, 0
6, 17089, Note_on_c, 5, 91, 90
6, 17090, Note_on_c, 5, 100, 90
6, 17122, Note_on_c, 5, 100, 0
6, 17123, Note_on_c, 5, 98, 90
6, 17151, Note_on_c, 5, 88, 90
6, 17153, Note_on_c, 5, 91, 0
6, 17153, Note_on_c, 5, 96, 90
6, 17154, Note_on_c, 5, 98, 0
6, 17181, Note_on_c, 5, 96, 0
6, 17181, Note_on_c, 5, 98, 90
6, 17211, Note_on_c, 5, 98, 0
6, 17212, Note_on_c, 5, 100, 90
6, 17213, Note_on_c, 5, 84, 90
6, 17214, Note_on_c, 5, 88, 0
6, 17242, Note_on_c, 5, 100, 0
6, 17242, Note_on_c, 5, 84, 0
6, 17242, Note_on_c, 5, 102, 90
6, 17273, Note_on_c, 5, 83, 90
6, 17274, Note_on_c, 5, 103, 90
6, 17275, Note_on_c, 5, 102, 0
6, 17306, Note_on_c, 5, 103, 0
6, 17306, Note_on_c, 5, 102, 90
6, 17335, Note_on_c, 5, 86, 90
6, 17336, Note_on_c, 5, 102, 0
6, 17336, Note_on_c, 5, 100, 90
6, 17340, Note_on_c, 5, 83, 0
6, 17363, Note_on_c, 5, 100, 0
6, 17365, Note_on_c, 5, 102, 90
6, 17375, Note_on_c, 5, 86, 0
6, 17393, Note_on_c, 5, 102, 0
6, 17393, Note_on_c, 5, 85, 90
6, 17394, Note_on_c, 5, 103, 90
6, 17422, Note_on_c, 5, 103, 0
6, 17424, Note_on_c, 5, 105, 90
6, 17426, Note_on_c, 5, 85, 0
6, 17455, Note_on_c, 5, 86, 90
6, 17455, Note_on_c, 5, 106, 90
6, 17456, Note_on_c, 5, 105, 0
6, 17471, Note_on_c, 5, 79, 0
6, 17486, Note_on_c, 5, 105, 90
6, 17487, Note_on_c, 5, 78, 90
6, 17490, Note_on_c, 5, 86, 0
6, 17514, Note_on_c, 5, 79, 90
6, 17515, Note_on_c, 5, 78, 0
6, 17517, Note_on_c, 5, 103, 90
6, 17519, Note_on_c, 5, 105, 0
6, 17547, Note_on_c, 5, 81, 90
6, 17547, Note_on_c, 5, 102, 90
6, 17548, Note_on_c, 5, 79, 0
6, 17551, Note_on_c, 5, 103, 0
6, 17576, Note_on_c, 5, 82, 90
6, 17577, Note_on_c, 5, 81, 0
6, 17577, Note_on_c, 5, 103, 90
6, 17578, Note_on_c, 5, 106, 0
6, 17581, Note_on_c, 5, 102, 0
6, 17604, Note_on_c, 5, 106, 90
6, 17605, Note_on_c, 5, 82, 0
6, 17605, Note_on_c, 5, 84, 90
6, 17624, Note_on_c, 5, 106, 0
6, 17635, Note_on_c, 5, 84, 0
6, 17636, Note_on_c, 5, 105, 90
6, 17636, Note_on_c, 5, 86, 90
6, 17637, Note_on_c, 5, 103, 0
6, 17666, Note_on_c, 5, 88, 90
6, 17666, Note_on_c, 5, 103, 90
6, 17669, Note_on_c, 5, 86, 0
6, 17694, Note_on_c, 5, 102, 90
6, 17696, Note_on_c, 5, 88, 0
6, 17696, Note_on_c, 5, 103, 0
6, 17696, Note_on_c, 5, 90, 90
6, 17723, Note_on_c, 5, 91, 90
6, 17724, Note_on_c, 5, 90, 0
6, 17726, Note_on_c, 5, 100, 90
6, 17727, Note_on_c, 5, 102, 0
6, 17751, Note_on_c, 5, 91, 0
6, 17751, Note_on_c, 5, 102, 90
6, 17751, Note_on_c, 5, 93, 90
6, 17752, Note_on_c, 5, 105, 0
6, 17758, Note_on_c, 5, 100, 0
6, 17780, Note_on_c, 5, 105, 90
6, 17784, Note_on_c, 5, 93, 0
6, 17784, Note_on_c, 5, 86, 90
6, 17816, Note_on_c, 5, 98, 90
6, 17817, Note_on_c, 5, 94, 90
6, 17818, Note_on_c, 5, 102, 0
6, 17818, Note_on_c, 5, 86, 0
6, 17836, Note_on_c, 5, 105, 0
6, 17848, Note_on_c, 5, 105, 90
6, 17878, Note_on_c, 5, 105, 0
6, 17878, Note_on_c, 5, 103, 90
6, 17908, Note_on_c, 5, 102, 90
6, 17909, Note_on_c, 5, 103, 0
6, 17937, Note_on_c, 5, 102, 0
6, 17937, Note_on_c, 5, 103, 90
6, 17943, Note_on_c, 5, 94, 0
6, 17968, Note_on_c, 5, 94, 90
6, 17984, Note_on_c, 5, 94, 0
6, 18000, Note_on_c, 5, 93, 90
6, 18001, Note_on_c, 5, 103, 0
6, 18027, Note_on_c, 5, 103, 90
6, 18056, Note_on_c, 5, 102, 90
6, 18059, Note_on_c, 5, 103, 0
6, 18086, Note_on_c, 5, 100, 90
6, 18088, Note_on_c, 5, 102, 0
6, 18107, Note_on_c, 5, 100, 0
6, 18117, Note_on_c, 5, 102, 90
6, 18145, Note_on_c, 5, 105, 90
6, 18175, Note_on_c, 5, 110, 90
6, 18184, Note_on_c, 5, 93, 0
6, 18205, Note_on_c, 5, 96, 90
6, 18232, Note_on_c, 5, 105, 0
6, 18233, Note_on_c, 5, 108, 90
6, 18235, Note_on_c, 5, 96, 0
6, 18236, Note_on_c, 5, 95, 90
6, 18264, Note_on_c, 5, 108, 0
6, 18264, Note_on_c, 5, 95, 0
6, 18264, Note_on_c, 5, 93, 90
6, 18265, Note_on_c, 5, 98, 0
6, 18265, Note_on_c, 5, 102, 0
6, 18295, Note_on_c, 5, 101, 90
6, 18295, Note_on_c, 5, 107, 90
6, 18296, Note_on_c, 5, 95, 90
6, 18296, Note_on_c, 5, 103, 90
6, 18300, Note_on_c, 5, 93, 0
6, 18326, Note_on_c, 5, 95, 0
6, 18327, Note_on_c, 5, 98, 90
6, 18341, Note_on_c, 5, 98, 0
6, 18357, Note_on_c, 5, 97, 90
6, 18375, Note_on_c, 5, 107, 0
6, 18379, Note_on_c, 5, 101, 0
6, 18380, Note_on_c, 5, 103, 0
6, 18388, Note_on_c, 5, 95, 90
6, 18390, Note_on_c, 5, 97, 0
6, 18418, Note_on_c, 5, 106, 90
6, 18418, Note_on_c, 5, 100, 90
6, 18419, Note_on_c, 5, 97, 90
6, 18419, Note_on_c, 5, 103, 90
6, 18425, Note_on_c, 5, 95, 0
6, 18436, Note_on_c, 5, 100, 0
6, 18450, Note_on_c, 5, 97, 0
6, 18451, Note_on_c, 5, 100, 90
6, 18482, Note_on_c, 5, 98, 90
6, 18510, Note_on_c, 5, 98, 0
6, 18510, Note_on_c, 5, 97, 90
6, 18512, Note_on_c, 5, 106, 0
6, 18534, Note_on_c, 5, 100, 0
6, 18541, Note_on_c, 5, 97, 0
6, 18541, Note_on_c, 5, 105, 90
6, 18543, Note_on_c, 5, 98, 90
6, 18545, Note_on_c, 5, 103, 0
6, 18576, Note_on_c, 5, 103, 90
6, 18606, Note_on_c, 5, 102, 90
6, 18607, Note_on_c, 5, 93, 90
6, 18610, Note_on_c, 5, 103, 0
6, 18630, Note_on_c, 5, 102, 0
6, 18638, Note_on_c, 5, 100, 90
6, 18671, Note_on_c, 5, 100, 0
6, 18686, Note_on_c, 5, 86, 90
6, 18686, Note_on_c, 5, 102, 90
6, 18899, Note_on_c, 5, 86, 0
6, 18901, Note_on_c, 5, 102, 0
6, 18902, Note_on_c, 5, 110, 0
6, 18902, Note_on_c, 5, 105, 0
6, 18902, Note_on_c, 5, 98, 0
6, 18903, Note_on_c, 5, 93, 0
6, 18903, End_track
7, 0, Start_track
7, 0, Title_t, "Ped 4"
7, 0, MIDI_port, 0
7, 0, Control_c, 8, 7, 127
7, 0, Control_c, 8, 93, 0
7, 0, Control_c, 8, 91, 100
7, 0, Control_c, 8, 10, 76
7, 0, Program_c, 8, 56
7, 119, Note_on_c, 8, 67, 85
7, 168, Note_on_c, 8, 67, 0
7, 293, Note_on_c, 8, 65, 97
7, 352, Note_on_c, 8, 65, 0
7, 467, Note_on_c, 8, 64, 90
7, 529, Note_on_c, 8, 64, 0
7, 643, Note_on_c, 8, 62, 92
7, 707, Note_on_c, 8, 62, 0
7, 822, Note_on_c, 8, 64, 91
7, 878, Note_on_c, 8, 64, 0
7, 991, Note_on_c, 8, 65, 94
7, 1050, Note_on_c, 8, 65, 0
7, 1178, Note_on_c, 8, 67, 97
7, 1212, Note_on_c, 8, 67, 0
7, 1245, Note_on_c, 8, 60, 86
7, 1414, Note_on_c, 8, 60, 0
7, 1544, Note_on_c, 8, 60, 86
7, 1598, Note_on_c, 8, 60, 0
7, 1723, Note_on_c, 8, 64, 89
7, 1780, Note_on_c, 8, 64, 0
7, 1902, Note_on_c, 8, 62, 88
7, 1967, Note_on_c, 8, 62, 0
7, 2082, Note_on_c, 8, 60, 80
7, 2142, Note_on_c, 8, 60, 0
7, 2263, Note_on_c, 8, 59, 92
7, 2321, Note_on_c, 8, 59, 0
7, 2450, Note_on_c, 8, 60, 90
7, 2505, Note_on_c, 8, 60, 0
7, 2625, Note_on_c, 8, 48, 92
7, 2668, Note_on_c, 8, 48, 0
7, 2694, Note_on_c, 8, 55, 94
7, 2865, Note_on_c, 8, 55, 0
7, 2985, Note_on_c, 8, 55, 86
7, 3042, Note_on_c, 8, 55, 0
7, 3171, Note_on_c, 8, 60, 80
7, 3228, Note_on_c, 8, 60, 0
7, 3351, Note_on_c, 8, 64, 87
7, 3414, Note_on_c, 8, 64, 0
7, 3532, Note_on_c, 8, 65, 91
7, 3599, Note_on_c, 8, 65, 0
7, 3709, Note_on_c, 8, 67, 95
7, 3772, Note_on_c, 8, 67, 0
7, 3894, Note_on_c, 8, 55, 88
7, 3949, Note_on_c, 8, 55, 0
7, 4063, Note_on_c, 8, 52, 85
7, 4097, Note_on_c, 8, 52, 0
7, 4129, Note_on_c, 8, 50, 92
7, 4263, Note_on_c, 8, 50, 0
7, 4420, Note_on_c, 8, 52, 86
7, 4478, Note_on_c, 8, 52, 0
7, 4607, Note_on_c, 8, 57, 86
7, 4665, Note_on_c, 8, 57, 0
7, 4780, Note_on_c, 8, 61, 93
7, 4848, Note_on_c, 8, 61, 0
7, 4958, Note_on_c, 8, 62, 89
7, 5014, Note_on_c, 8, 62, 0
7, 5133, Note_on_c, 8, 57, 84
7, 5187, Note_on_c, 8, 57, 0
7, 5322, Note_on_c, 8, 60, 88
7, 5384, Note_on_c, 8, 60, 0
7, 5514, Note_on_c, 8, 64, 82
7, 5545, Note_on_c, 8, 64, 0
7, 5578, Note_on_c, 8, 67, 90
7, 7520, Note_on_c, 8, 67, 0
7, 8809, Note_on_c, 8, 55, 93
7, 9160, Note_on_c, 8, 57, 89
7, 9167, Note_on_c, 8, 55, 0
7, 9342, Note_on_c, 8, 55, 94
7, 9347, Note_on_c, 8, 57, 0
7, 9516, Note_on_c, 8, 55, 0
7, 9524, Note_on_c, 8, 53, 93
7, 9708, Note_on_c, 8, 53, 0
7, 9708, Note_on_c, 8, 55, 89
7, 9867, Note_on_c, 8, 55, 0
7, 9886, Note_on_c, 8, 60, 83
7, 10063, Note_on_c, 8, 62, 88
7, 10065, Note_on_c, 8, 60, 0
7, 10237, Note_on_c, 8, 62, 0
7, 10244, Note_on_c, 8, 60, 84
7, 10612, Note_on_c, 8, 60, 0
7, 11323, Note_on_c, 8, 60, 89
7, 11657, Note_on_c, 8, 60, 0
7, 11695, Note_on_c, 8, 55, 90
7, 11861, Note_on_c, 8, 55, 0
7, 11877, Note_on_c, 8, 57, 90
7, 12009, Note_on_c, 8, 57, 0
7, 12021, Note_on_c, 8, 59, 83
7, 12037, Note_on_c, 8, 59, 0
7, 12055, Note_on_c, 8, 60, 87
7, 12224, Note_on_c, 8, 62, 82
7, 12227, Note_on_c, 8, 60, 0
7, 12409, Note_on_c, 8, 64, 80
7, 12412, Note_on_c, 8, 62, 0
7, 12540, Note_on_c, 8, 64, 0
7, 12582, Note_on_c, 8, 64, 86
7, 12758, Note_on_c, 8, 62, 87
7, 12761, Note_on_c, 8, 64, 0
7, 13112, Note_on_c, 8, 62, 0
7, 13851, Note_on_c, 8, 62, 92
7, 14207, Note_on_c, 8, 62, 0
7, 14209, Note_on_c, 8, 64, 83
7, 14371, Note_on_c, 8, 64, 0
7, 14395, Note_on_c, 8, 60, 86
7, 14545, Note_on_c, 8, 60, 0
7, 14572, Note_on_c, 8, 57, 82
7, 14717, Note_on_c, 8, 57, 0
7, 14756, Note_on_c, 8, 55, 90
7, 14885, Note_on_c, 8, 55, 0
7, 14897, Note_on_c, 8, 57, 83
7, 14914, Note_on_c, 8, 57, 0
7, 14934, Note_on_c, 8, 59, 88
7, 15110, Note_on_c, 8, 61, 92
7, 15114, Note_on_c, 8, 59, 0
7, 15283, Note_on_c, 8, 62, 86
7, 15285, Note_on_c, 8, 61, 0
7, 15658, Note_on_c, 8, 62, 0
7, 16355, Note_on_c, 8, 55, 91
7, 16690, Note_on_c, 8, 55, 0
7, 16714, Note_on_c, 8, 60, 84
7, 16876, Note_on_c, 8, 60, 0
7, 16900, Note_on_c, 8, 57, 86
7, 17075, Note_on_c, 8, 57, 0
7, 17088, Note_on_c, 8, 53, 88
7, 17229, Note_on_c, 8, 53, 0
7, 17237, Note_on_c, 8, 55, 85
7, 17255, Note_on_c, 8, 55, 0
7, 17272, Note_on_c, 8, 57, 96
7, 17449, Note_on_c, 8, 57, 0
7, 17454, Note_on_c, 8, 55, 90
7, 18903, Note_on_c, 8, 55, 0
7, 18903, End_track
8, 0, Start_track
8, 0, Title_t, "Ped 8"
8, 0, MIDI_port, 0
8, 0, Control_c, 1, 7, 116
8, 0, Control_c, 1, 93, 0
8, 0, Control_c, 1, 91, 100
8, 0, Control_c, 1, 10, 68
8, 0, Program_c, 1, 19
8, 119, Note_on_c, 1, 55, 85
8, 168, Note_on_c, 1, 55, 0
8, 293, Note_on_c, 1, 53, 97
8, 352, Note_on_c, 1, 53, 0
8, 467, Note_on_c, 1, 52, 90
8, 529, Note_on_c, 1, 52, 0
8, 643, Note_on_c, 1, 50, 92
8, 707, Note_on_c, 1, 50, 0
8, 822, Note_on_c, 1, 52, 91
8, 878, Note_on_c, 1, 52, 0
8, 991, Note_on_c, 1, 53, 94
8, 1050, Note_on_c, 1, 53, 0
8, 1178, Note_on_c, 1, 55, 97
8, 1212, Note_on_c, 1, 55, 0
8, 1245, Note_on_c, 1, 48, 86
8, 1414, Note_on_c, 1, 48, 0
8, 1544, Note_on_c, 1, 48, 86
8, 1598, Note_on_c, 1, 48, 0
8, 1723, Note_on_c, 1, 52, 89
8, 1780, Note_on_c, 1, 52, 0
8, 1902, Note_on_c, 1, 50, 88
8, 1967, Note_on_c, 1, 50, 0
8, 2082, Note_on_c, 1, 48, 80
8, 2142, Note_on_c, 1, 48, 0
8, 2263, Note_on_c, 1, 47, 92
8, 2321, Note_on_c, 1, 47, 0
8, 2450, Note_on_c, 1, 48, 90
8, 2505, Note_on_c, 1, 48, 0
8, 2625, Note_on_c, 1, 36, 92
8, 2668, Note_on_c, 1, 36, 0
8, 2694, Note_on_c, 1, 43, 94
8, 2865, Note_on_c, 1, 43, 0
8, 2985, Note_on_c, 1, 43, 86
8, 3042, Note_on_c, 1, 43, 0
8, 3171, Note_on_c, 1, 48, 80
8, 3228, Note_on_c, 1, 48, 0
8, 3351, Note_on_c, 1, 52, 87
8, 3414, Note_on_c, 1, 52, 0
8, 3532, Note_on_c, 1, 53, 91
8, 3599, Note_on_c, 1, 53, 0
8, 3709, Note_on_c, 1, 55, 95
8, 3772, Note_on_c, 1, 55, 0
8, 3894, Note_on_c, 1, 43, 88
8, 3949, Note_on_c, 1, 43, 0
8, 4063, Note_on_c, 1, 40, 85
8, 4097, Note_on_c, 1, 40, 0
8, 4129, Note_on_c, 1, 38, 92
8, 4263, Note_on_c, 1, 38, 0
8, 4420, Note_on_c, 1, 40, 86
8, 4478, Note_on_c, 1, 40, 0
8, 4607, Note_on_c, 1, 45, 86
8, 4665, Note_on_c, 1, 45, 0
8, 4780, Note_on_c, 1, 49, 93
8, 4848, Note_on_c, 1, 49, 0
8, 4958, Note_on_c, 1, 50, 89
8, 5014, Note_on_c, 1, 50, 0
8, 5133, Note_on_c, 1, 45, 84
8, 5187, Note_on_c, 1, 45, 0
8, 5322, Note_on_c, 1, 48, 88
8, 5384, Note_on_c, 1, 48, 0
8, 5514, Note_on_c, 1, 52, 82
8, 5545, Note_on_c, 1, 52, 0
8, 5578, Note_on_c, 1, 55, 90
8, 7520, Note_on_c, 1, 55, 0
8, 8809, Note_on_c, 1, 43, 93
8, 9160, Note_on_c, 1, 45, 89
8, 9167, Note_on_c, 1, 43, 0
8, 9342, Note_on_c, 1, 43, 94
8, 9347, Note_on_c, 1, 45, 0
8, 9516, Note_on_c, 1, 43, 0
8, 9524, Note_on_c, 1, 41, 93
8, 9708, Note_on_c, 1, 41, 0
8, 9708, Note_on_c, 1, 43, 89
8, 9867, Note_on_c, 1, 43, 0
8, 9886, Note_on_c, 1, 48, 83
8, 10063, Note_on_c, 1, 50, 88
8, 10065, Note_on_c, 1, 48, 0
8, 10237, Note_on_c, 1, 50, 0
8, 10244, Note_on_c, 1, 48, 84
8, 10612, Note_on_c, 1, 48, 0
8, 11323, Note_on_c, 1, 48, 89
8, 11657, Note_on_c, 1, 48, 0
8, 11695, Note_on_c, 1, 43, 90
8, 11861, Note_on_c, 1, 43, 0
8, 11877, Note_on_c, 1, 45, 90
8, 12009, Note_on_c, 1, 45, 0
8, 12021, Note_on_c, 1, 47, 83
8, 12037, Note_on_c, 1, 47, 0
8, 12055, Note_on_c, 1, 48, 87
8, 12224, Note_on_c, 1, 50, 82
8, 12227, Note_on_c, 1, 48, 0
8, 12409, Note_on_c, 1, 52, 80
8, 12412, Note_on_c, 1, 50, 0
8, 12540, Note_on_c, 1, 52, 0
8, 12582, Note_on_c, 1, 52, 86
8, 12758, Note_on_c, 1, 50, 87
8, 12761, Note_on_c, 1, 52, 0
8, 13112, Note_on_c, 1, 50, 0
8, 13851, Note_on_c, 1, 50, 92
8, 14207, Note_on_c, 1, 50, 0
8, 14209, Note_on_c, 1, 52, 83
8, 14371, Note_on_c, 1, 52, 0
8, 14395, Note_on_c, 1, 48, 86
8, 14545, Note_on_c, 1, 48, 0
8, 14572, Note_on_c, 1, 45, 82
8, 14717, Note_on_c, 1, 45, 0
8, 14756, Note_on_c, 1, 43, 90
8, 14885, Note_on_c, 1, 43, 0
8, 14897, Note_on_c, 1, 45, 83
8, 14914, Note_on_c, 1, 45, 0
8, 14934, Note_on_c, 1, 47, 88
8, 15110, Note_on_c, 1, 49, 92
8, 15114, Note_on_c, 1, 47, 0
8, 15283, Note_on_c, 1, 50, 86
8, 15285, Note_on_c, 1, 49, 0
8, 15658, Note_on_c, 1, 50, 0
8, 16355, Note_on_c, 1, 43, 91
8, 16690, Note_on_c, 1, 43, 0
8, 16714, Note_on_c, 1, 48, 84
8, 16876, Note_on_c, 1, 48, 0
8, 16900, Note_on_c, 1, 45, 86
8, 17075, Note_on_c, 1, 45, 0
8, 17088, Note_on_c, 1, 41, 88
8, 17229, Note_on_c, 1, 41, 0
8, 17237, Note_on_c, 1, 43, 85
8, 17255, Note_on_c, 1, 43, 0
8, 17272, Note_on_c, 1, 45, 96
8, 17449, Note_on_c, 1, 45, 0
8, 17454, Note_on_c, 1, 43, 90
8, 18903, Note_on_c, 1, 43, 0
8, 18903, End_track
9, 0, Start_track
9, 0, Title_t, "Ped 16"
9, 0, MIDI_port, 0
9, 0, Control_c, 6, 7, 127
9, 0, Control_c, 6, 93, 0
9, 0, Control_c, 6, 91, 100
9, 0, Control_c, 6, 10, 25
9, 0, Program_c, 6, 57
9, 119, Note_on_c, 6, 43, 85
9, 168, Note_on_c, 6, 43, 0
9, 293, Note_on_c, 6, 41, 97
9, 352, Note_on_c, 6, 41, 0
9, 467, Note_on_c, 6, 40, 90
9, 529, Note_on_c, 6, 40, 0
9, 643, Note_on_c, 6, 38, 92
9, 707, Note_on_c, 6, 38, 0
9, 822, Note_on_c, 6, 40, 91
9, 878, Note_on_c, 6, 40, 0
9, 991, Note_on_c, 6, 41, 94
9, 1050, Note_on_c, 6, 41, 0
9, 1178, Note_on_c, 6, 43, 97
9, 1212, Note_on_c, 6, 43, 0
9, 1245, Note_on_c, 6, 36, 86
9, 1414, Note_on_c, 6, 36, 0
9, 1544, Note_on_c, 6, 36, 86
9, 1598, Note_on_c, 6, 36, 0
9, 1723, Note_on_c, 6, 40, 89
9, 1780, Note_on_c, 6, 40, 0
9, 1902, Note_on_c, 6, 38, 88
9, 1967, Note_on_c, 6, 38, 0
9, 2082, Note_on_c, 6, 36, 80
9, 2142, Note_on_c, 6, 36, 0
9, 2263, Note_on_c, 6, 35, 92
9, 2321, Note_on_c, 6, 35, 0
9, 2450, Note_on_c, 6, 36, 90
9, 2505, Note_on_c, 6, 36, 0
9, 2625, Note_on_c, 6, 24, 92
9, 2668, Note_on_c, 6, 24, 0
9, 2694, Note_on_c, 6, 31, 94
9, 2865, Note_on_c, 6, 31, 0
9, 2985, Note_on_c, 6, 31, 86
9, 3042, Note_on_c, 6, 31, 0
9, 3171, Note_on_c, 6, 36, 80
9, 3228, Note_on_c, 6, 36, 0
9, 3351, Note_on_c, 6, 40, 87
9, 3414, Note_on_c, 6, 40, 0
9, 3532, Note_on_c, 6, 41, 91
9, 3599, Note_on_c, 6, 41, 0
9, 3709, Note_on_c, 6, 43, 95
9, 3772, Note_on_c, 6, 43, 0
9, 3894, Note_on_c, 6, 31, 88
9, 3949, Note_on_c, 6, 31, 0
9, 4063, Note_on_c, 6, 28, 85
9, 4097, Note_on_c, 6, 28, 0
9, 4129, Note_on_c, 6, 26, 92
9, 4263, Note_on_c, 6, 26, 0
9, 4420, Note_on_c, 6, 28, 86
9, 4478, Note_on_c, 6, 28, 0
9, 4607, Note_on_c, 6, 33, 86
9, 4665, Note_on_c, 6, 33, 0
9, 4780, Note_on_c, 6, 37, 93
9, 4848, Note_on_c, 6, 37, 0
9, 4958, Note_on_c, 6, 38, 89
9, 5014, Note_on_c, 6, 38, 0
9, 5133, Note_on_c, 6, 33, 84
9, 5187, Note_on_c, 6, 33, 0
9, 5322, Note_on_c, 6, 36, 88
9, 5384, Note_on_c, 6, 36, 0
9, 5514, Note_on_c, 6, 40, 82
9, 5545, Note_on_c, 6, 40, 0
9, 5578, Note_on_c, 6, 43, 90
9, 7520, Note_on_c, 6, 43, 0
9, 8809, Note_on_c, 6, 31, 93
9, 9160, Note_on_c, 6, 33, 89
9, 9167, Note_on_c, 6, 31, 0
9, 9342, Note_on_c, 6, 31, 94
9, 9347, Note_on_c, 6, 33, 0
9, 9516, Note_on_c, 6, 31, 0
9, 9524, Note_on_c, 6, 29, 93
9, 9708, Note_on_c, 6, 29, 0
9, 9708, Note_on_c, 6, 31, 89
9, 9867, Note_on_c, 6, 31, 0
9, 9886, Note_on_c, 6, 36, 83
9, 10063, Note_on_c, 6, 38, 88
9, 10065, Note_on_c, 6, 36, 0
9, 10237, Note_on_c, 6, 38, 0
9, 10244, Note_on_c, 6, 36, 84
9, 10612, Note_on_c, 6, 36, 0
9, 11323, Note_on_c, 6, 36, 89
9, 11657, Note_on_c, 6, 36, 0
9, 11695, Note_on_c, 6, 31, 90
9, 11861, Note_on_c, 6, 31, 0
9, 11877, Note_on_c, 6, 33, 90
9, 12009, Note_on_c, 6, 33, 0
9, 12021, Note_on_c, 6, 35, 83
9, 12037, Note_on_c, 6, 35, 0
9, 12055, Note_on_c, 6, 36, 87
9, 12224, Note_on_c, 6, 38, 82
9, 12227, Note_on_c, 6, 36, 0
9, 12409, Note_on_c, 6, 40, 80
9, 12412, Note_on_c, 6, 38, 0
9, 12540, Note_on_c, 6, 40, 0
9, 12582, Note_on_c, 6, 40, 86
9, 12758, Note_on_c, 6, 38, 87
9, 12761, Note_on_c, 6, 40, 0
9, 13112, Note_on_c, 6, 38, 0
9, 13851, Note_on_c, 6, 38, 92
9, 14207, Note_on_c, 6, 38, 0
9, 14209, Note_on_c, 6, 40, 83
9, 14371, Note_on_c, 6, 40, 0
9, 14395, Note_on_c, 6, 36, 86
9, 14545, Note_on_c, 6, 36, 0
9, 14572, Note_on_c, 6, 33, 82
9, 14717, Note_on_c, 6, 33, 0
9, 14756, Note_on_c, 6, 31, 90
9, 14885, Note_on_c, 6, 31, 0
9, 14897, Note_on_c, 6, 33, 83
9, 14914, Note_on_c, 6, 33, 0
9, 14934, Note_on_c, 6, 35, 88
9, 15110, Note_on_c, 6, 37, 92
9, 15114, Note_on_c, 6, 35, 0
9, 15283, Note_on_c, 6, 38, 86
9, 15285, Note_on_c, 6, 37, 0
9, 15658, Note_on_c, 6, 38, 0
9, 16355, Note_on_c, 6, 31, 91
9, 16690, Note_on_c, 6, 31, 0
9, 16714, Note_on_c, 6, 36, 84
9, 16876, Note_on_c, 6, 36, 0
9, 16900, Note_on_c, 6, 33, 86
9, 17075, Note_on_c, 6, 33, 0
9, 17088, Note_on_c, 6, 29, 88
9, 17229, Note_on_c, 6, 29, 0
9, 17237, Note_on_c, 6, 31, 85
9, 17255, Note_on_c, 6, 31, 0
9, 17272, Note_on_c, 6, 33, 96
9, 17449, Note_on_c, 6, 33, 0
9, 17454, Note_on_c, 6, 31, 90
9, 18903, Note_on_c, 6, 31, 0
9, 18903, End_track
10, 0, Start_track
10, 0, Title_t, "Ped 32"
10, 0, MIDI_port, 0
10, 0, Control_c, 7, 7, 123
10, 0, Control_c, 7, 93, 0
10, 0, Control_c, 7, 91, 100
10, 0, Control_c, 7, 10, 93
10, 0, Program_c, 7, 57
10, 119, Note_on_c, 7, 31, 85
10, 168, Note_on_c, 7, 31, 0
10, 293, Note_on_c, 7, 29, 97
10, 352, Note_on_c, 7, 29, 0
10, 467, Note_on_c, 7, 28, 90
10, 529, Note_on_c, 7, 28, 0
10, 643, Note_on_c, 7, 26, 92
10, 707, Note_on_c, 7, 26, 0
10, 822, Note_on_c, 7, 28, 91
10, 878, Note_on_c, 7, 28, 0
10, 991, Note_on_c, 7, 29, 94
10, 1050, Note_on_c, 7, 29, 0
10, 1178, Note_on_c, 7, 31, 97
10, 1212, Note_on_c, 7, 31, 0
10, 1245, Note_on_c, 7, 24, 86
10, 1414, Note_on_c, 7, 24, 0
10, 1544, Note_on_c, 7, 24, 86
10, 1598, Note_on_c, 7, 24, 0
10, 1723, Note_on_c, 7, 28, 89
10, 1780, Note_on_c, 7, 28, 0
10, 1902, Note_on_c, 7, 26, 88
10, 1967, Note_on_c, 7, 26, 0
10, 2082, Note_on_c, 7, 24, 80
10, 2142, Note_on_c, 7, 24, 0
10, 2263, Note_on_c, 7, 23, 92
10, 2321, Note_on_c, 7, 23, 0
10, 2450, Note_on_c, 7, 24, 90
10, 2505, Note_on_c, 7, 24, 0
10, 2625, Note_on_c, 7, 12, 92
10, 2668, Note_on_c, 7, 12, 0
10, 2694, Note_on_c, 7, 19, 94
10, 2865, Note_on_c, 7, 19, 0
10, 2985, Note_on_c, 7, 19, 86
10, 3042, Note_on_c, 7, 19, 0
10, 3171, Note_on_c, 7, 24, 80
10, 3228, Note_on_c, 7, 24, 0
10, 3351, Note_on_c, 7, 28, 87
10, 3414, Note_on_c, 7, 28, 0
10, 3532, Note_on_c, 7, 29, 91
10, 3599, Note_on_c, 7, 29, 0
10, 3709, Note_on_c, 7, 31, 95
10, 3772, Note_on_c, 7, 31, 0
10, 3894, Note_on_c, 7, 19, 88
10, 3949, Note_on_c, 7, 19, 0
10, 4063, Note_on_c, 7, 16, 85
10, 4097, Note_on_c, 7, 16, 0
10, 4129, Note_on_c, 7, 14, 92
10, 4263, Note_on_c, 7, 14, 0
10, 4420, Note_on_c, 7, 16, 86
10, 4478, Note_on_c, 7, 16, 0
10, 4607, Note_on_c, 7, 21, 86
10, 4665, Note_on_c, 7, 21, 0
10, 4780, Note_on_c, 7, 25, 93
10, 4848, Note_on_c, 7, 25, 0
10, 4958, Note_on_c, 7, 26, 89
10, 5014, Note_on_c, 7, 26, 0
10, 5133, Note_on_c, 7, 21, 84
10, 5187, Note_on_c, 7, 21, 0
10, 5322, Note_on_c, 7, 24, 88
10, 5384, Note_on_c, 7, 24, 0
10, 5514, Note_on_c, 7, 28, 82
10, 5545, Note_on_c, 7, 28, 0
10, 5578, Note_on_c, 7, 31, 90
10, 7520, Note_on_c, 7, 31, 0
10, 8809, Note_on_c, 7, 19, 93
10, 9160, Note_on_c, 7, 21, 89
10, 9167, Note_on_c, 7, 19, 0
10, 9342, Note_on_c, 7, 19, 94
10, 9347, Note_on_c, 7, 21, 0
10, 9516, Note_on_c, 7, 19, 0
10, 9524, Note_on_c, 7, 17, 93
10, 9708, Note_on_c, 7, 17, 0
10, 9708, Note_on_c, 7, 19, 89
10, 9867, Note_on_c, 7, 19, 0
10, 9886, Note_on_c, 7, 24, 83
10, 10063, Note_on_c, 7, 26, 88
10, 10065, Note_on_c, 7, 24, 0
10, 10237, Note_on_c, 7, 26, 0
10, 10244, Note_on_c, 7, 24, 84
10, 10612, Note_on_c, 7, 24, 0
10, 11323, Note_on_c, 7, 24, 89
10, 11657, Note_on_c, 7, 24, 0
10, 11695, Note_on_c, 7, 19, 90
10, 11861, Note_on_c, 7, 19, 0
10, 11877, Note_on_c, 7, 21, 90
10, 12009, Note_on_c, 7, 21, 0
10, 12021, Note_on_c, 7, 23, 83
10, 12037, Note_on_c, 7, 23, 0
10, 12055, Note_on_c, 7, 24, 87
10, 12224, Note_on_c, 7, 26, 82
10, 12227, Note_on_c, 7, 24, 0
10, 12409, Note_on_c, 7, 28, 80
10, 12412, Note_on_c, 7, 26, 0
10, 12540, Note_on_c, 7, 28, 0
10, 12582, Note_on_c, 7, 28, 86
10, 12758, Note_on_c, 7, 26, 87
10, 12761, Note_on_c, 7, 28, 0
10, 13112, Note_on_c, 7, 26, 0
10, 13851, Note_on_c, 7, 26, 92
10, 14207, Note_on_c, 7, 26, 0
10, 14209, Note_on_c, 7, 28, 83
10, 14371, Note_on_c, 7, 28, 0
10, 14395, Note_on_c, 7, 24, 86
10, 14545, Note_on_c, 7, 24, 0
10, 14572, Note_on_c, 7, 21, 82
10, 14717, Note_on_c, 7, 21, 0
10, 14756, Note_on_c, 7, 19, 90
10, 14885, Note_on_c, 7, 19, 0
10, 14897, Note_on_c, 7, 21, 83
10, 14914, Note_on_c, 7, 21, 0
10, 14934, Note_on_c, 7, 23, 88
10, 15110, Note_on_c, 7, 25, 92
10, 15114, Note_on_c, 7, 23, 0
10, 15283, Note_on_c, 7, 26, 86
10, 15285, Note_on_c, 7, 25, 0
10, 15658, Note_on_c, 7, 26, 0
10, 16355, Note_on_c, 7, 19, 91
10, 16690, Note_on_c, 7, 19, 0
10, 16714, Note_on_c, 7, 24, 84
10, 16876, Note_on_c, 7, 24, 0
10, 16900, Note_on_c, 7, 21, 86
10, 17075, Note_on_c, 7, 21, 0
10, 17088, Note_on_c, 7, 17, 88
10, 17229, Note_on_c, 7, 17, 0
10, 17237, Note_on_c, 7, 19, 85
10, 17255, Note_on_c, 7, 19, 0
10, 17272, Note_on_c, 7, 21, 96
10, 17449, Note_on_c, 7, 21, 0
10, 17454, Note_on_c, 7, 19, 90
10, 18903, Note_on_c, 7, 19, 0
10, 18903, End_track
11, 0, Start_track
11, 0, MIDI_port, 0
11, 0, End_track
12, 0, Start_track
12, 0, Title_t, "Komm, Gott Schoepfer, heiliger Geist"
12, 0, MIDI_port, 0
12, 0, End_track
13, 0, Start_track
13, 0, Title_t, "by J S Bach (BWV 667)"
13, 0, MIDI_port, 0
13, 0, End_track
14, 0, Start_track
14, 0, MIDI_port, 0
14, 0, End_track
15, 0, Start_track
15, 0, Title_t, "Sequenced using WinJammer Professional"
15, 0, MIDI_port, 0
15, 0, End_track
16, 0, Start_track
16, 0, Title_t, "on Windows NT by Martin Robinson."
16, 0, MIDI_port, 0
16, 0, End_track
17, 0, Start_track
17, 0, Title_t, "(c) Martin Robinson 1997"
17, 0, MIDI_port, 0
17, 0, End_track
0, 0, End_of_file
