0, 0, Header, 1, 13, 120
1, 0, Start_track
1, 0, Sequencer_specific, 10, 0, 0, 91, 35, 1, 0, 5, 3, 24, 0
1, 0, Instrument_name_t, "Conductor Track"
1, 0, SMPTE_offset, 96, 0, 3, 0, 0
1, 0, MIDI_port, 0
1, 0, Tempo, 1200000
1, 0, Time_signature, 3, 2, 24, 8
1, 45720, Tempo, 1304347
1, 45840, Tempo, 1395348
1, 45960, Tempo, 1500000
1, 45960, End_track
2, 0, Start_track
2, 0, Title_t, "Cantus Firmus"
2, 0, MIDI_port, 0
2, 0, Control_c, 1, 7, 90
2, 0, Control_c, 1, 1, 80
2, 0, Control_c, 1, 10, 51
2, 0, Program_c, 1, 64
2, 3584, Note_on_c, 1, 67, 80
2, 3946, Note_on_c, 1, 65, 80
2, 3950, Note_on_c, 1, 67, 0
2, 4318, Note_on_c, 1, 63, 80
2, 4323, Note_on_c, 1, 65, 0
2, 4509, Note_on_c, 1, 63, 0
2, 4553, Note_on_c, 1, 65, 80
2, 4637, Note_on_c, 1, 67, 80
2, 4639, Note_on_c, 1, 65, 0
2, 4650, Note_on_c, 1, 68, 80
2, 4651, Note_on_c, 1, 67, 0
2, 4666, Note_on_c, 1, 68, 0
2, 4668, Note_on_c, 1, 67, 80
2, 4758, Note_on_c, 1, 68, 80
2, 4765, Note_on_c, 1, 67, 0
2, 4789, Note_on_c, 1, 68, 0
2, 4789, Note_on_c, 1, 70, 80
2, 4804, Note_on_c, 1, 70, 0
2, 4804, Note_on_c, 1, 68, 80
2, 4816, Note_on_c, 1, 68, 0
2, 4817, Note_on_c, 1, 70, 80
2, 4829, Note_on_c, 1, 70, 0
2, 4830, Note_on_c, 1, 68, 80
2, 4839, Note_on_c, 1, 68, 0
2, 4840, Note_on_c, 1, 70, 80
2, 4847, Note_on_c, 1, 70, 0
2, 4847, Note_on_c, 1, 68, 80
2, 4855, Note_on_c, 1, 70, 80
2, 4863, Note_on_c, 1, 70, 0
2, 4876, Note_on_c, 1, 67, 80
2, 4877, Note_on_c, 1, 68, 0
2, 4892, Note_on_c, 1, 68, 80
2, 4893, Note_on_c, 1, 67, 0
2, 4916, Note_on_c, 1, 70, 80
2, 4917, Note_on_c, 1, 68, 0
2, 5058, Note_on_c, 1, 70, 0
2, 5059, Note_on_c, 1, 73, 80
2, 5086, Note_on_c, 1, 73, 0
2, 5088, Note_on_c, 1, 72, 80
2, 5116, Note_on_c, 1, 70, 80
2, 5120, Note_on_c, 1, 72, 0
2, 5134, Note_on_c, 1, 70, 0
2, 5146, Note_on_c, 1, 70, 80
2, 5159, Note_on_c, 1, 70, 0
2, 5159, Note_on_c, 1, 68, 80
2, 5172, Note_on_c, 1, 68, 0
2, 5173, Note_on_c, 1, 67, 80
2, 5187, Note_on_c, 1, 67, 0
2, 5187, Note_on_c, 1, 68, 80
2, 5196, Note_on_c, 1, 68, 0
2, 5198, Note_on_c, 1, 70, 80
2, 5207, Note_on_c, 1, 70, 0
2, 5209, Note_on_c, 1, 68, 80
2, 5219, Note_on_c, 1, 68, 0
2, 5219, Note_on_c, 1, 70, 80
2, 5228, Note_on_c, 1, 70, 0
2, 5231, Note_on_c, 1, 68, 80
2, 5239, Note_on_c, 1, 68, 0
2, 5239, Note_on_c, 1, 70, 80
2, 5247, Note_on_c, 1, 70, 0
2, 5249, Note_on_c, 1, 68, 80
2, 5256, Note_on_c, 1, 70, 80
2, 5257, Note_on_c, 1, 68, 0
2, 5264, Note_on_c, 1, 70, 0
2, 5265, Note_on_c, 1, 68, 80
2, 5271, Note_on_c, 1, 70, 80
2, 5272, Note_on_c, 1, 68, 0
2, 5278, Note_on_c, 1, 70, 0
2, 5280, Note_on_c, 1, 68, 80
2, 5286, Note_on_c, 1, 68, 0
2, 5286, Note_on_c, 1, 70, 80
2, 5293, Note_on_c, 1, 70, 0
2, 5293, Note_on_c, 1, 68, 80
2, 5296, Note_on_c, 1, 70, 80
2, 5297, Note_on_c, 1, 68, 0
2, 5305, Note_on_c, 1, 68, 80
2, 5309, Note_on_c, 1, 70, 0
2, 5333, Note_on_c, 1, 68, 0
2, 5333, Note_on_c, 1, 67, 80
2, 5358, Note_on_c, 1, 68, 80
2, 5360, Note_on_c, 1, 67, 0
2, 5386, Note_on_c, 1, 68, 0
2, 5387, Note_on_c, 1, 67, 80
2, 5960, Note_on_c, 1, 67, 0
2, 8647, Note_on_c, 1, 70, 80
2, 8974, Note_on_c, 1, 70, 0
2, 8986, Note_on_c, 1, 68, 80
2, 9013, Note_on_c, 1, 68, 0
2, 9014, Note_on_c, 1, 67, 80
2, 9027, Note_on_c, 1, 67, 0
2, 9029, Note_on_c, 1, 68, 80
2, 9038, Note_on_c, 1, 68, 0
2, 9040, Note_on_c, 1, 67, 80
2, 9048, Note_on_c, 1, 67, 0
2, 9048, Note_on_c, 1, 68, 80
2, 9057, Note_on_c, 1, 67, 80
2, 9063, Note_on_c, 1, 68, 0
2, 9319, Note_on_c, 1, 67, 0
2, 9342, Note_on_c, 1, 67, 80
2, 9391, Note_on_c, 1, 68, 80
2, 9396, Note_on_c, 1, 67, 0
2, 9526, Note_on_c, 1, 68, 0
2, 9538, Note_on_c, 1, 68, 80
2, 9597, Note_on_c, 1, 68, 0
2, 9597, Note_on_c, 1, 67, 80
2, 9657, Note_on_c, 1, 65, 80
2, 9658, Note_on_c, 1, 67, 0
2, 9719, Note_on_c, 1, 63, 80
2, 9720, Note_on_c, 1, 65, 0
2, 9776, Note_on_c, 1, 63, 0
2, 9777, Note_on_c, 1, 65, 80
2, 9829, Note_on_c, 1, 65, 0
2, 9830, Note_on_c, 1, 67, 80
2, 9846, Note_on_c, 1, 67, 0
2, 9846, Note_on_c, 1, 65, 80
2, 9859, Note_on_c, 1, 65, 0
2, 9860, Note_on_c, 1, 67, 80
2, 9872, Note_on_c, 1, 67, 0
2, 9874, Note_on_c, 1, 65, 80
2, 9883, Note_on_c, 1, 67, 80
2, 9884, Note_on_c, 1, 65, 0
2, 9899, Note_on_c, 1, 65, 80
2, 9900, Note_on_c, 1, 67, 0
2, 9918, Note_on_c, 1, 63, 80
2, 9921, Note_on_c, 1, 65, 0
2, 9930, Note_on_c, 1, 65, 80
2, 9931, Note_on_c, 1, 63, 0
2, 9949, Note_on_c, 1, 67, 80
2, 9951, Note_on_c, 1, 65, 0
2, 10095, Note_on_c, 1, 67, 0
2, 10101, Note_on_c, 1, 72, 80
2, 10133, Note_on_c, 1, 70, 80
2, 10134, Note_on_c, 1, 72, 0
2, 10160, Note_on_c, 1, 68, 80
2, 10163, Note_on_c, 1, 70, 0
2, 10192, Note_on_c, 1, 67, 80
2, 10193, Note_on_c, 1, 68, 0
2, 10311, Note_on_c, 1, 67, 0
2, 10331, Note_on_c, 1, 67, 80
2, 10345, Note_on_c, 1, 67, 0
2, 10346, Note_on_c, 1, 65, 80
2, 10356, Note_on_c, 1, 65, 0
2, 10357, Note_on_c, 1, 67, 80
2, 10363, Note_on_c, 1, 65, 80
2, 10364, Note_on_c, 1, 67, 0
2, 10372, Note_on_c, 1, 65, 0
2, 10374, Note_on_c, 1, 67, 80
2, 10378, Note_on_c, 1, 67, 0
2, 10378, Note_on_c, 1, 65, 80
2, 10387, Note_on_c, 1, 65, 0
2, 10387, Note_on_c, 1, 67, 80
2, 10393, Note_on_c, 1, 65, 80
2, 10399, Note_on_c, 1, 65, 0
2, 10405, Note_on_c, 1, 65, 80
2, 10409, Note_on_c, 1, 67, 0
2, 10420, Note_on_c, 1, 63, 80
2, 10422, Note_on_c, 1, 65, 0
2, 10432, Note_on_c, 1, 63, 0
2, 10435, Note_on_c, 1, 65, 80
2, 10448, Note_on_c, 1, 63, 80
2, 10450, Note_on_c, 1, 65, 0
2, 12234, Note_on_c, 1, 63, 0
2, 15816, Note_on_c, 1, 67, 80
2, 16150, Control_c, 1, 7, 90
2, 16150, Control_c, 1, 10, 51
2, 16196, Note_on_c, 1, 65, 80
2, 16200, Note_on_c, 1, 67, 0
2, 16550, Note_on_c, 1, 63, 80
2, 16557, Note_on_c, 1, 65, 0
2, 16759, Note_on_c, 1, 63, 0
2, 16797, Note_on_c, 1, 65, 80
2, 16881, Note_on_c, 1, 67, 80
2, 16884, Note_on_c, 1, 65, 0
2, 16894, Note_on_c, 1, 68, 80
2, 16895, Note_on_c, 1, 67, 0
2, 16908, Note_on_c, 1, 68, 0
2, 16910, Note_on_c, 1, 67, 80
2, 17009, Note_on_c, 1, 68, 80
2, 17011, Note_on_c, 1, 67, 0
2, 17037, Note_on_c, 1, 68, 0
2, 17039, Note_on_c, 1, 70, 80
2, 17054, Note_on_c, 1, 70, 0
2, 17054, Note_on_c, 1, 68, 80
2, 17066, Note_on_c, 1, 68, 0
2, 17067, Note_on_c, 1, 70, 80
2, 17079, Note_on_c, 1, 70, 0
2, 17081, Note_on_c, 1, 68, 80
2, 17090, Note_on_c, 1, 68, 0
2, 17091, Note_on_c, 1, 70, 80
2, 17099, Note_on_c, 1, 70, 0
2, 17100, Note_on_c, 1, 68, 80
2, 17107, Note_on_c, 1, 70, 80
2, 17108, Note_on_c, 1, 68, 0
2, 17115, Note_on_c, 1, 68, 80
2, 17116, Note_on_c, 1, 70, 0
2, 17127, Note_on_c, 1, 68, 0
2, 17128, Note_on_c, 1, 67, 80
2, 17138, Note_on_c, 1, 68, 80
2, 17139, Note_on_c, 1, 67, 0
2, 17150, Note_on_c, 1, 68, 0
2, 17151, Note_on_c, 1, 70, 80
2, 17281, Note_on_c, 1, 70, 0
2, 17300, Note_on_c, 1, 73, 80
2, 17324, Note_on_c, 1, 73, 0
2, 17327, Note_on_c, 1, 72, 80
2, 17351, Note_on_c, 1, 70, 80
2, 17354, Note_on_c, 1, 72, 0
2, 17370, Note_on_c, 1, 70, 0
2, 17385, Note_on_c, 1, 70, 80
2, 17396, Note_on_c, 1, 70, 0
2, 17397, Note_on_c, 1, 68, 80
2, 17409, Note_on_c, 1, 68, 0
2, 17412, Note_on_c, 1, 67, 80
2, 17424, Note_on_c, 1, 68, 80
2, 17425, Note_on_c, 1, 67, 0
2, 17433, Note_on_c, 1, 68, 0
2, 17434, Note_on_c, 1, 70, 80
2, 17443, Note_on_c, 1, 70, 0
2, 17447, Note_on_c, 1, 68, 80
2, 17455, Note_on_c, 1, 68, 0
2, 17456, Note_on_c, 1, 70, 80
2, 17465, Note_on_c, 1, 70, 0
2, 17468, Note_on_c, 1, 68, 80
2, 17476, Note_on_c, 1, 68, 0
2, 17477, Note_on_c, 1, 70, 80
2, 17486, Note_on_c, 1, 70, 0
2, 17489, Note_on_c, 1, 68, 80
2, 17496, Note_on_c, 1, 68, 0
2, 17496, Note_on_c, 1, 70, 80
2, 17503, Note_on_c, 1, 70, 0
2, 17506, Note_on_c, 1, 68, 80
2, 17511, Note_on_c, 1, 68, 0
2, 17511, Note_on_c, 1, 70, 80
2, 17520, Note_on_c, 1, 68, 80
2, 17521, Note_on_c, 1, 70, 0
2, 17567, Note_on_c, 1, 68, 0
2, 17568, Note_on_c, 1, 67, 80
2, 17595, Note_on_c, 1, 68, 80
2, 17597, Note_on_c, 1, 67, 0
2, 17625, Note_on_c, 1, 68, 0
2, 17626, Note_on_c, 1, 67, 80
2, 18173, Note_on_c, 1, 67, 0
2, 20877, Note_on_c, 1, 70, 80
2, 21217, Note_on_c, 1, 70, 0
2, 21228, Note_on_c, 1, 68, 80
2, 21244, Note_on_c, 1, 68, 0
2, 21244, Note_on_c, 1, 67, 80
2, 21257, Note_on_c, 1, 67, 0
2, 21259, Note_on_c, 1, 68, 80
2, 21269, Note_on_c, 1, 68, 0
2, 21269, Note_on_c, 1, 67, 80
2, 21277, Note_on_c, 1, 68, 80
2, 21279, Note_on_c, 1, 67, 0
2, 21283, Note_on_c, 1, 68, 0
2, 21285, Note_on_c, 1, 67, 80
2, 21291, Note_on_c, 1, 68, 80
2, 21296, Note_on_c, 1, 68, 0
2, 21566, Note_on_c, 1, 67, 0
2, 21595, Note_on_c, 1, 67, 80
2, 21649, Note_on_c, 1, 68, 80
2, 21652, Note_on_c, 1, 67, 0
2, 21757, Note_on_c, 1, 68, 0
2, 21770, Note_on_c, 1, 68, 80
2, 21827, Note_on_c, 1, 68, 0
2, 21828, Note_on_c, 1, 67, 80
2, 21891, Note_on_c, 1, 65, 80
2, 21893, Note_on_c, 1, 67, 0
2, 21942, Note_on_c, 1, 65, 0
2, 21949, Note_on_c, 1, 63, 80
2, 22006, Note_on_c, 1, 63, 0
2, 22008, Note_on_c, 1, 65, 80
2, 22067, Note_on_c, 1, 65, 0
2, 22067, Note_on_c, 1, 67, 80
2, 22082, Note_on_c, 1, 65, 80
2, 22085, Note_on_c, 1, 67, 0
2, 22097, Note_on_c, 1, 65, 0
2, 22097, Note_on_c, 1, 67, 80
2, 22110, Note_on_c, 1, 67, 0
2, 22110, Note_on_c, 1, 65, 80
2, 22121, Note_on_c, 1, 65, 0
2, 22121, Note_on_c, 1, 67, 80
2, 22128, Note_on_c, 1, 67, 0
2, 22130, Note_on_c, 1, 65, 80
2, 22158, Note_on_c, 1, 63, 80
2, 22160, Note_on_c, 1, 65, 0
2, 22172, Note_on_c, 1, 63, 0
2, 22173, Note_on_c, 1, 65, 80
2, 22190, Note_on_c, 1, 67, 80
2, 22194, Note_on_c, 1, 65, 0
2, 22337, Note_on_c, 1, 72, 80
2, 22338, Note_on_c, 1, 67, 0
2, 22367, Note_on_c, 1, 70, 80
2, 22369, Note_on_c, 1, 72, 0
2, 22392, Note_on_c, 1, 68, 80
2, 22396, Note_on_c, 1, 70, 0
2, 22424, Note_on_c, 1, 68, 0
2, 22424, Note_on_c, 1, 67, 80
2, 22525, Note_on_c, 1, 67, 0
2, 22542, Note_on_c, 1, 67, 80
2, 22556, Note_on_c, 1, 67, 0
2, 22556, Note_on_c, 1, 65, 80
2, 22569, Note_on_c, 1, 65, 0
2, 22569, Note_on_c, 1, 67, 80
2, 22578, Note_on_c, 1, 65, 80
2, 22579, Note_on_c, 1, 67, 0
2, 22585, Note_on_c, 1, 65, 0
2, 22587, Note_on_c, 1, 67, 80
2, 22593, Note_on_c, 1, 65, 80
2, 22596, Note_on_c, 1, 67, 0
2, 22601, Note_on_c, 1, 67, 80
2, 22602, Note_on_c, 1, 65, 0
2, 22607, Note_on_c, 1, 65, 80
2, 22610, Note_on_c, 1, 67, 0
2, 22626, Note_on_c, 1, 63, 80
2, 22629, Note_on_c, 1, 65, 0
2, 22644, Note_on_c, 1, 63, 0
2, 22647, Note_on_c, 1, 65, 80
2, 22669, Note_on_c, 1, 65, 0
2, 22669, Note_on_c, 1, 63, 80
2, 24555, Note_on_c, 1, 63, 0
2, 26988, Note_on_c, 1, 70, 80
2, 27326, Note_on_c, 1, 70, 0
2, 27350, Note_on_c, 1, 72, 80
2, 27411, Note_on_c, 1, 74, 80
2, 27412, Note_on_c, 1, 72, 0
2, 27476, Note_on_c, 1, 75, 80
2, 27477, Note_on_c, 1, 74, 0
2, 27495, Note_on_c, 1, 75, 0
2, 27495, Note_on_c, 1, 74, 80
2, 27509, Note_on_c, 1, 74, 0
2, 27511, Note_on_c, 1, 75, 80
2, 27521, Note_on_c, 1, 75, 0
2, 27522, Note_on_c, 1, 74, 80
2, 27534, Note_on_c, 1, 74, 0
2, 27535, Note_on_c, 1, 75, 80
2, 27543, Note_on_c, 1, 75, 0
2, 27544, Note_on_c, 1, 74, 80
2, 27554, Note_on_c, 1, 74, 0
2, 27554, Note_on_c, 1, 75, 80
2, 27562, Note_on_c, 1, 75, 0
2, 27562, Note_on_c, 1, 74, 80
2, 27569, Note_on_c, 1, 75, 80
2, 27571, Note_on_c, 1, 74, 0
2, 27576, Note_on_c, 1, 75, 0
2, 27578, Note_on_c, 1, 74, 80
2, 27583, Note_on_c, 1, 75, 80
2, 27584, Note_on_c, 1, 74, 0
2, 27590, Note_on_c, 1, 75, 0
2, 27590, Note_on_c, 1, 74, 80
2, 27645, Note_on_c, 1, 74, 0
2, 27647, Note_on_c, 1, 72, 80
2, 27675, Note_on_c, 1, 74, 80
2, 27676, Note_on_c, 1, 72, 0
2, 27693, Note_on_c, 1, 74, 0
2, 27710, Note_on_c, 1, 75, 80
2, 27910, Note_on_c, 1, 75, 0
2, 27956, Note_on_c, 1, 75, 80
2, 28191, Note_on_c, 1, 74, 80
2, 28194, Note_on_c, 1, 75, 0
2, 28307, Note_on_c, 1, 72, 80
2, 28309, Note_on_c, 1, 74, 0
2, 28409, Note_on_c, 1, 72, 0
2, 28424, Note_on_c, 1, 70, 80
2, 28489, Note_on_c, 1, 72, 80
2, 28490, Note_on_c, 1, 70, 0
2, 28544, Note_on_c, 1, 72, 0
2, 28554, Note_on_c, 1, 70, 80
2, 28605, Note_on_c, 1, 70, 0
2, 28606, Note_on_c, 1, 72, 80
2, 28667, Note_on_c, 1, 72, 0
2, 28668, Note_on_c, 1, 74, 80
2, 28761, Note_on_c, 1, 75, 80
2, 28763, Note_on_c, 1, 74, 0
2, 28794, Note_on_c, 1, 74, 80
2, 28795, Note_on_c, 1, 75, 0
2, 28881, Note_on_c, 1, 75, 80
2, 28884, Note_on_c, 1, 74, 0
2, 28897, Note_on_c, 1, 72, 80
2, 28901, Note_on_c, 1, 75, 0
2, 28915, Note_on_c, 1, 74, 80
2, 28918, Note_on_c, 1, 72, 0
2, 28942, Note_on_c, 1, 72, 80
2, 28944, Note_on_c, 1, 74, 0
2, 28961, Note_on_c, 1, 70, 80
2, 28964, Note_on_c, 1, 72, 0
2, 28976, Note_on_c, 1, 72, 80
2, 28978, Note_on_c, 1, 70, 0
2, 28985, Note_on_c, 1, 72, 0
2, 28985, Note_on_c, 1, 74, 80
2, 28996, Note_on_c, 1, 72, 80
2, 28997, Note_on_c, 1, 74, 0
2, 29007, Note_on_c, 1, 72, 0
2, 29007, Note_on_c, 1, 74, 80
2, 29017, Note_on_c, 1, 74, 0
2, 29018, Note_on_c, 1, 72, 80
2, 29027, Note_on_c, 1, 74, 80
2, 29028, Note_on_c, 1, 72, 0
2, 29037, Note_on_c, 1, 74, 0
2, 29038, Note_on_c, 1, 72, 80
2, 29045, Note_on_c, 1, 74, 80
2, 29046, Note_on_c, 1, 72, 0
2, 29055, Note_on_c, 1, 72, 80
2, 29056, Note_on_c, 1, 74, 0
2, 29061, Note_on_c, 1, 74, 80
2, 29063, Note_on_c, 1, 72, 0
2, 29069, Note_on_c, 1, 74, 0
2, 29069, Note_on_c, 1, 72, 80
2, 29097, Note_on_c, 1, 70, 80
2, 29100, Note_on_c, 1, 72, 0
2, 29119, Note_on_c, 1, 70, 0
2, 29119, Note_on_c, 1, 72, 80
2, 29153, Note_on_c, 1, 70, 80
2, 29156, Note_on_c, 1, 72, 0
2, 29752, Note_on_c, 1, 70, 0
2, 30224, Note_on_c, 1, 70, 80
2, 30569, Note_on_c, 1, 70, 0
2, 30591, Note_on_c, 1, 72, 80
2, 30683, Note_on_c, 1, 74, 80
2, 30687, Note_on_c, 1, 72, 0
2, 30714, Note_on_c, 1, 75, 80
2, 30716, Note_on_c, 1, 74, 0
2, 30732, Note_on_c, 1, 74, 80
2, 30734, Note_on_c, 1, 75, 0
2, 30748, Note_on_c, 1, 75, 80
2, 30749, Note_on_c, 1, 74, 0
2, 30759, Note_on_c, 1, 75, 0
2, 30759, Note_on_c, 1, 74, 80
2, 30771, Note_on_c, 1, 74, 0
2, 30771, Note_on_c, 1, 75, 80
2, 30780, Note_on_c, 1, 75, 0
2, 30781, Note_on_c, 1, 74, 80
2, 30791, Note_on_c, 1, 74, 0
2, 30791, Note_on_c, 1, 75, 80
2, 30799, Note_on_c, 1, 75, 0
2, 30801, Note_on_c, 1, 74, 80
2, 30808, Note_on_c, 1, 74, 0
2, 30808, Note_on_c, 1, 75, 80
2, 30814, Note_on_c, 1, 75, 0
2, 30816, Note_on_c, 1, 74, 80
2, 30822, Note_on_c, 1, 75, 80
2, 30823, Note_on_c, 1, 74, 0
2, 30828, Note_on_c, 1, 75, 0
2, 30829, Note_on_c, 1, 74, 80
2, 30836, Note_on_c, 1, 75, 80
2, 30837, Note_on_c, 1, 74, 0
2, 30843, Note_on_c, 1, 74, 80
2, 30844, Note_on_c, 1, 75, 0
2, 30890, Note_on_c, 1, 72, 80
2, 30892, Note_on_c, 1, 74, 0
2, 30920, Note_on_c, 1, 74, 80
2, 30923, Note_on_c, 1, 72, 0
2, 30954, Note_on_c, 1, 75, 80
2, 30958, Note_on_c, 1, 74, 0
2, 31182, Note_on_c, 1, 75, 0
2, 31190, Note_on_c, 1, 75, 80
2, 31373, Note_on_c, 1, 75, 0
2, 31374, Note_on_c, 1, 79, 80
2, 31429, Note_on_c, 1, 77, 80
2, 31430, Note_on_c, 1, 79, 0
2, 31491, Note_on_c, 1, 75, 80
2, 31493, Note_on_c, 1, 77, 0
2, 31533, Note_on_c, 1, 75, 0
2, 31548, Note_on_c, 1, 75, 80
2, 31555, Note_on_c, 1, 75, 0
2, 31556, Note_on_c, 1, 74, 80
2, 31561, Note_on_c, 1, 74, 0
2, 31561, Note_on_c, 1, 75, 80
2, 31568, Note_on_c, 1, 74, 80
2, 31570, Note_on_c, 1, 75, 0
2, 31611, Note_on_c, 1, 72, 80
2, 31612, Note_on_c, 1, 74, 0
2, 31670, Note_on_c, 1, 72, 0
2, 31671, Note_on_c, 1, 70, 80
2, 31731, Note_on_c, 1, 69, 80
2, 31733, Note_on_c, 1, 70, 0
2, 31792, Note_on_c, 1, 69, 0
2, 31793, Note_on_c, 1, 70, 80
2, 31862, Note_on_c, 1, 69, 80
2, 31868, Note_on_c, 1, 70, 0
2, 31917, Note_on_c, 1, 70, 80
2, 31918, Note_on_c, 1, 69, 0
2, 31927, Note_on_c, 1, 70, 0
2, 31929, Note_on_c, 1, 69, 80
2, 31937, Note_on_c, 1, 70, 80
2, 31938, Note_on_c, 1, 69, 0
2, 32054, Note_on_c, 1, 70, 0
2, 32057, Note_on_c, 1, 69, 80
2, 32086, Note_on_c, 1, 70, 80
2, 32088, Note_on_c, 1, 69, 0
2, 32117, Note_on_c, 1, 70, 0
2, 32117, Note_on_c, 1, 75, 80
2, 32159, Note_on_c, 1, 75, 0
2, 32161, Note_on_c, 1, 74, 80
2, 32243, Note_on_c, 1, 74, 0
2, 32267, Note_on_c, 1, 74, 80
2, 32283, Note_on_c, 1, 72, 80
2, 32284, Note_on_c, 1, 74, 0
2, 32295, Note_on_c, 1, 72, 0
2, 32296, Note_on_c, 1, 74, 80
2, 32304, Note_on_c, 1, 72, 80
2, 32305, Note_on_c, 1, 74, 0
2, 32313, Note_on_c, 1, 72, 0
2, 32313, Note_on_c, 1, 74, 80
2, 32321, Note_on_c, 1, 72, 80
2, 32323, Note_on_c, 1, 74, 0
2, 32358, Note_on_c, 1, 72, 0
2, 32358, Note_on_c, 1, 70, 80
2, 32370, Note_on_c, 1, 70, 0
2, 32371, Note_on_c, 1, 72, 80
2, 32387, Note_on_c, 1, 70, 80
2, 32388, Note_on_c, 1, 72, 0
2, 32981, Note_on_c, 1, 70, 0
2, 35621, Note_on_c, 1, 65, 80
2, 35925, Note_on_c, 1, 67, 80
2, 35928, Note_on_c, 1, 65, 0
2, 35942, Note_on_c, 1, 65, 80
2, 35946, Note_on_c, 1, 67, 0
2, 35956, Note_on_c, 1, 64, 80
2, 35957, Note_on_c, 1, 65, 0
2, 35968, Note_on_c, 1, 65, 80
2, 35971, Note_on_c, 1, 64, 0
2, 35985, Note_on_c, 1, 68, 80
2, 35987, Note_on_c, 1, 65, 0
2, 36003, Note_on_c, 1, 67, 80
2, 36004, Note_on_c, 1, 68, 0
2, 36020, Note_on_c, 1, 67, 0
2, 36020, Note_on_c, 1, 65, 80
2, 36033, Note_on_c, 1, 67, 80
2, 36034, Note_on_c, 1, 65, 0
2, 36045, Note_on_c, 1, 68, 80
2, 36046, Note_on_c, 1, 67, 0
2, 36056, Note_on_c, 1, 68, 0
2, 36057, Note_on_c, 1, 67, 80
2, 36069, Note_on_c, 1, 67, 0
2, 36070, Note_on_c, 1, 68, 80
2, 36079, Note_on_c, 1, 68, 0
2, 36080, Note_on_c, 1, 67, 80
2, 36091, Note_on_c, 1, 67, 0
2, 36091, Note_on_c, 1, 68, 80
2, 36100, Note_on_c, 1, 68, 0
2, 36102, Note_on_c, 1, 67, 80
2, 36113, Note_on_c, 1, 67, 0
2, 36113, Note_on_c, 1, 68, 80
2, 36122, Note_on_c, 1, 68, 0
2, 36124, Note_on_c, 1, 67, 80
2, 36134, Note_on_c, 1, 67, 0
2, 36134, Note_on_c, 1, 68, 80
2, 36143, Note_on_c, 1, 68, 0
2, 36145, Note_on_c, 1, 67, 80
2, 36155, Note_on_c, 1, 67, 0
2, 36155, Note_on_c, 1, 68, 80
2, 36164, Note_on_c, 1, 68, 0
2, 36166, Note_on_c, 1, 67, 80
2, 36175, Note_on_c, 1, 67, 0
2, 36175, Note_on_c, 1, 68, 80
2, 36184, Note_on_c, 1, 68, 0
2, 36186, Note_on_c, 1, 67, 80
2, 36196, Note_on_c, 1, 67, 0
2, 36196, Note_on_c, 1, 68, 80
2, 36205, Note_on_c, 1, 68, 0
2, 36207, Note_on_c, 1, 67, 80
2, 36218, Note_on_c, 1, 67, 0
2, 36219, Note_on_c, 1, 68, 80
2, 36229, Note_on_c, 1, 68, 0
2, 36229, Note_on_c, 1, 67, 80
2, 36239, Note_on_c, 1, 67, 0
2, 36240, Note_on_c, 1, 68, 80
2, 36250, Note_on_c, 1, 68, 0
2, 36250, Note_on_c, 1, 67, 80
2, 36259, Note_on_c, 1, 68, 80
2, 36260, Note_on_c, 1, 67, 0
2, 36267, Note_on_c, 1, 68, 0
2, 36267, Note_on_c, 1, 67, 80
2, 36283, Note_on_c, 1, 65, 80
2, 36285, Note_on_c, 1, 67, 0
2, 36310, Note_on_c, 1, 65, 0
2, 36313, Note_on_c, 1, 67, 80
2, 36348, Note_on_c, 1, 68, 80
2, 36349, Note_on_c, 1, 67, 0
2, 36581, Note_on_c, 1, 68, 0
2, 36588, Note_on_c, 1, 68, 80
2, 36791, Note_on_c, 1, 68, 0
2, 36826, Note_on_c, 1, 67, 80
2, 36886, Note_on_c, 1, 67, 0
2, 36886, Note_on_c, 1, 64, 80
2, 36938, Note_on_c, 1, 64, 0
2, 36951, Note_on_c, 1, 65, 80
2, 37009, Note_on_c, 1, 65, 0
2, 37010, Note_on_c, 1, 73, 80
2, 37069, Note_on_c, 1, 73, 0
2, 37078, Note_on_c, 1, 72, 80
2, 37137, Note_on_c, 1, 65, 80
2, 37138, Note_on_c, 1, 72, 0
2, 37189, Note_on_c, 1, 65, 0
2, 37197, Note_on_c, 1, 68, 80
2, 37297, Note_on_c, 1, 68, 0
2, 37320, Note_on_c, 1, 68, 80
2, 37328, Note_on_c, 1, 68, 0
2, 37330, Note_on_c, 1, 67, 80
2, 37338, Note_on_c, 1, 67, 0
2, 37338, Note_on_c, 1, 68, 80
2, 37344, Note_on_c, 1, 68, 0
2, 37347, Note_on_c, 1, 68, 80
2, 37354, Note_on_c, 1, 67, 80
2, 37355, Note_on_c, 1, 68, 0
2, 37377, Note_on_c, 1, 67, 0
2, 37377, Note_on_c, 1, 65, 80
2, 37400, Note_on_c, 1, 65, 0
2, 37400, Note_on_c, 1, 67, 80
2, 37435, Note_on_c, 1, 67, 0
2, 37436, Note_on_c, 1, 65, 80
2, 38359, Note_on_c, 1, 65, 0
2, 42834, Note_on_c, 1, 67, 80
2, 43040, Note_on_c, 1, 68, 80
2, 43041, Note_on_c, 1, 67, 0
2, 43067, Note_on_c, 1, 70, 80
2, 43068, Note_on_c, 1, 68, 0
2, 43082, Note_on_c, 1, 68, 80
2, 43084, Note_on_c, 1, 70, 0
2, 43096, Note_on_c, 1, 68, 0
2, 43098, Note_on_c, 1, 70, 80
2, 43109, Note_on_c, 1, 70, 0
2, 43111, Note_on_c, 1, 68, 80
2, 43120, Note_on_c, 1, 68, 0
2, 43121, Note_on_c, 1, 70, 80
2, 43129, Note_on_c, 1, 70, 0
2, 43130, Note_on_c, 1, 68, 80
2, 43135, Note_on_c, 1, 68, 0
2, 43135, Note_on_c, 1, 70, 80
2, 43141, Note_on_c, 1, 68, 80
2, 43144, Note_on_c, 1, 70, 0
2, 43157, Note_on_c, 1, 68, 0
2, 43158, Note_on_c, 1, 67, 80
2, 43168, Note_on_c, 1, 68, 80
2, 43171, Note_on_c, 1, 67, 0
2, 43184, Note_on_c, 1, 68, 0
2, 43187, Note_on_c, 1, 70, 80
2, 43551, Note_on_c, 1, 68, 80
2, 43558, Note_on_c, 1, 70, 0
2, 43669, Note_on_c, 1, 68, 0
2, 43734, Note_on_c, 1, 67, 80
2, 43793, Note_on_c, 1, 70, 80
2, 43796, Note_on_c, 1, 67, 0
2, 43852, Note_on_c, 1, 70, 0
2, 43852, Note_on_c, 1, 68, 80
2, 43878, Note_on_c, 1, 67, 80
2, 43879, Note_on_c, 1, 68, 0
2, 43908, Note_on_c, 1, 67, 0
2, 43908, Note_on_c, 1, 65, 80
2, 43926, Note_on_c, 1, 63, 80
2, 43932, Note_on_c, 1, 65, 0
2, 43964, Note_on_c, 1, 63, 0
2, 43971, Note_on_c, 1, 68, 80
2, 44027, Note_on_c, 1, 68, 0
2, 44030, Note_on_c, 1, 67, 80
2, 44078, Note_on_c, 1, 67, 0
2, 44092, Note_on_c, 1, 68, 80
2, 44119, Note_on_c, 1, 68, 0
2, 44120, Note_on_c, 1, 70, 80
2, 44135, Note_on_c, 1, 70, 0
2, 44137, Note_on_c, 1, 72, 80
2, 44148, Note_on_c, 1, 70, 80
2, 44151, Note_on_c, 1, 72, 0
2, 44360, Note_on_c, 1, 70, 0
2, 44361, Note_on_c, 1, 72, 80
2, 44374, Note_on_c, 1, 68, 80
2, 44375, Note_on_c, 1, 72, 0
2, 44386, Note_on_c, 1, 68, 0
2, 44388, Note_on_c, 1, 67, 80
2, 44486, Note_on_c, 1, 67, 0
2, 44503, Note_on_c, 1, 67, 80
2, 44518, Note_on_c, 1, 67, 0
2, 44519, Note_on_c, 1, 65, 80
2, 44531, Note_on_c, 1, 65, 0
2, 44531, Note_on_c, 1, 67, 80
2, 44539, Note_on_c, 1, 65, 80
2, 44541, Note_on_c, 1, 67, 0
2, 44548, Note_on_c, 1, 65, 0
2, 44549, Note_on_c, 1, 67, 80
2, 44555, Note_on_c, 1, 65, 80
2, 44556, Note_on_c, 1, 67, 0
2, 44562, Note_on_c, 1, 67, 80
2, 44564, Note_on_c, 1, 65, 0
2, 44573, Note_on_c, 1, 65, 80
2, 44579, Note_on_c, 1, 67, 0
2, 44598, Note_on_c, 1, 63, 80
2, 44599, Note_on_c, 1, 65, 0
2, 44611, Note_on_c, 1, 63, 0
2, 44613, Note_on_c, 1, 65, 80
2, 44630, Note_on_c, 1, 63, 80
2, 44631, Note_on_c, 1, 65, 0
2, 46441, Note_on_c, 1, 63, 0
2, 46441, End_track
3, 0, Start_track
3, 0, Title_t, "Accomp 8"
3, 0, MIDI_port, 0
3, 0, Control_c, 0, 7, 78
3, 0, Control_c, 0, 10, 17
3, 0, Program_c, 0, 73
3, 119, Note_on_c, 0, 58, 70
3, 119, Note_on_c, 0, 67, 70
3, 205, Note_on_c, 0, 60, 70
3, 206, Note_on_c, 0, 67, 0
3, 206, Note_on_c, 0, 68, 70
3, 207, Note_on_c, 0, 58, 0
3, 226, Note_on_c, 0, 60, 0
3, 229, Note_on_c, 0, 68, 0
3, 236, Note_on_c, 0, 67, 70
3, 237, Note_on_c, 0, 58, 70
3, 251, Note_on_c, 0, 67, 0
3, 252, Note_on_c, 0, 65, 70
3, 254, Note_on_c, 0, 58, 0
3, 254, Note_on_c, 0, 56, 70
3, 264, Note_on_c, 0, 65, 0
3, 265, Note_on_c, 0, 67, 70
3, 268, Note_on_c, 0, 56, 0
3, 269, Note_on_c, 0, 58, 70
3, 274, Note_on_c, 0, 67, 0
3, 276, Note_on_c, 0, 65, 70
3, 279, Note_on_c, 0, 58, 0
3, 279, Note_on_c, 0, 56, 70
3, 281, Note_on_c, 0, 67, 70
3, 282, Note_on_c, 0, 65, 0
3, 287, Note_on_c, 0, 56, 0
3, 288, Note_on_c, 0, 58, 70
3, 289, Note_on_c, 0, 65, 70
3, 294, Note_on_c, 0, 56, 70
3, 297, Note_on_c, 0, 58, 0
3, 298, Note_on_c, 0, 67, 0
3, 311, Note_on_c, 0, 63, 70
3, 315, Note_on_c, 0, 65, 0
3, 316, Note_on_c, 0, 56, 0
3, 320, Note_on_c, 0, 63, 0
3, 322, Note_on_c, 0, 65, 70
3, 348, Note_on_c, 0, 63, 70
3, 348, Note_on_c, 0, 55, 70
3, 350, Note_on_c, 0, 65, 0
3, 407, Note_on_c, 0, 63, 0
3, 408, Note_on_c, 0, 65, 70
3, 432, Note_on_c, 0, 55, 0
3, 457, Note_on_c, 0, 65, 0
3, 463, Note_on_c, 0, 63, 70
3, 463, Note_on_c, 0, 67, 70
3, 519, Note_on_c, 0, 67, 0
3, 519, Note_on_c, 0, 68, 70
3, 543, Note_on_c, 0, 65, 70
3, 544, Note_on_c, 0, 63, 0
3, 577, Note_on_c, 0, 68, 0
3, 577, Note_on_c, 0, 63, 70
3, 578, Note_on_c, 0, 70, 70
3, 580, Note_on_c, 0, 65, 0
3, 595, Note_on_c, 0, 63, 0
3, 596, Note_on_c, 0, 61, 70
3, 608, Note_on_c, 0, 61, 0
3, 610, Note_on_c, 0, 63, 70
3, 620, Note_on_c, 0, 63, 0
3, 620, Note_on_c, 0, 61, 70
3, 629, Note_on_c, 0, 61, 0
3, 631, Note_on_c, 0, 63, 70
3, 639, Note_on_c, 0, 61, 70
3, 640, Note_on_c, 0, 63, 0
3, 654, Note_on_c, 0, 61, 0
3, 656, Note_on_c, 0, 60, 70
3, 670, Note_on_c, 0, 61, 70
3, 672, Note_on_c, 0, 60, 0
3, 702, Note_on_c, 0, 60, 70
3, 703, Note_on_c, 0, 61, 0
3, 760, Note_on_c, 0, 70, 0
3, 761, Note_on_c, 0, 72, 70
3, 814, Note_on_c, 0, 72, 0
3, 816, Note_on_c, 0, 70, 70
3, 841, Note_on_c, 0, 70, 0
3, 842, Note_on_c, 0, 68, 70
3, 853, Note_on_c, 0, 68, 0
3, 857, Note_on_c, 0, 70, 70
3, 867, Note_on_c, 0, 70, 0
3, 869, Note_on_c, 0, 68, 70
3, 874, Note_on_c, 0, 58, 70
3, 875, Note_on_c, 0, 60, 0
3, 877, Note_on_c, 0, 68, 0
3, 879, Note_on_c, 0, 70, 70
3, 890, Note_on_c, 0, 70, 0
3, 892, Note_on_c, 0, 68, 70
3, 899, Note_on_c, 0, 68, 0
3, 901, Note_on_c, 0, 70, 70
3, 908, Note_on_c, 0, 70, 0
3, 910, Note_on_c, 0, 68, 70
3, 915, Note_on_c, 0, 68, 0
3, 916, Note_on_c, 0, 70, 70
3, 929, Note_on_c, 0, 58, 0
3, 931, Note_on_c, 0, 60, 70
3, 933, Note_on_c, 0, 68, 70
3, 937, Note_on_c, 0, 70, 0
3, 993, Note_on_c, 0, 68, 0
3, 993, Note_on_c, 0, 67, 70
3, 994, Note_on_c, 0, 60, 0
3, 994, Note_on_c, 0, 62, 70
3, 1022, Note_on_c, 0, 68, 70
3, 1023, Note_on_c, 0, 67, 0
3, 1057, Note_on_c, 0, 68, 0
3, 1058, Note_on_c, 0, 67, 70
3, 1060, Note_on_c, 0, 63, 70
3, 1065, Note_on_c, 0, 62, 0
3, 1126, Note_on_c, 0, 67, 0
3, 1126, Note_on_c, 0, 65, 70
3, 1147, Note_on_c, 0, 63, 0
3, 1194, Note_on_c, 0, 67, 70
3, 1195, Note_on_c, 0, 58, 70
3, 1201, Note_on_c, 0, 65, 0
3, 1287, Note_on_c, 0, 60, 70
3, 1287, Note_on_c, 0, 69, 70
3, 1288, Note_on_c, 0, 58, 0
3, 1291, Note_on_c, 0, 67, 0
3, 1301, Note_on_c, 0, 69, 0
3, 1315, Note_on_c, 0, 70, 70
3, 1316, Note_on_c, 0, 60, 0
3, 1316, Note_on_c, 0, 62, 70
3, 1327, Note_on_c, 0, 70, 0
3, 1329, Note_on_c, 0, 69, 70
3, 1332, Note_on_c, 0, 60, 70
3, 1333, Note_on_c, 0, 62, 0
3, 1339, Note_on_c, 0, 69, 0
3, 1339, Note_on_c, 0, 70, 70
3, 1346, Note_on_c, 0, 60, 0
3, 1347, Note_on_c, 0, 70, 0
3, 1349, Note_on_c, 0, 62, 70
3, 1349, Note_on_c, 0, 69, 70
3, 1355, Note_on_c, 0, 69, 0
3, 1355, Note_on_c, 0, 70, 70
3, 1356, Note_on_c, 0, 60, 70
3, 1357, Note_on_c, 0, 62, 0
3, 1362, Note_on_c, 0, 70, 0
3, 1363, Note_on_c, 0, 60, 0
3, 1364, Note_on_c, 0, 69, 70
3, 1365, Note_on_c, 0, 62, 70
3, 1368, Note_on_c, 0, 70, 70
3, 1369, Note_on_c, 0, 69, 0
3, 1371, Note_on_c, 0, 60, 70
3, 1374, Note_on_c, 0, 69, 70
3, 1375, Note_on_c, 0, 62, 0
3, 1376, Note_on_c, 0, 70, 0
3, 1386, Note_on_c, 0, 60, 0
3, 1387, Note_on_c, 0, 58, 70
3, 1396, Note_on_c, 0, 67, 70
3, 1398, Note_on_c, 0, 69, 0
3, 1405, Note_on_c, 0, 69, 70
3, 1407, Note_on_c, 0, 67, 0
3, 1407, Note_on_c, 0, 60, 70
3, 1411, Note_on_c, 0, 58, 0
3, 1424, Note_on_c, 0, 69, 0
3, 1428, Note_on_c, 0, 60, 0
3, 1428, Note_on_c, 0, 70, 70
3, 1429, Note_on_c, 0, 62, 70
3, 1486, Note_on_c, 0, 60, 70
3, 1489, Note_on_c, 0, 62, 0
3, 1544, Note_on_c, 0, 60, 0
3, 1544, Note_on_c, 0, 62, 70
3, 1633, Note_on_c, 0, 63, 70
3, 1637, Note_on_c, 0, 62, 0
3, 1665, Note_on_c, 0, 63, 0
3, 1666, Note_on_c, 0, 65, 70
3, 1681, Note_on_c, 0, 63, 70
3, 1682, Note_on_c, 0, 65, 0
3, 1693, Note_on_c, 0, 63, 0
3, 1696, Note_on_c, 0, 65, 70
3, 1705, Note_on_c, 0, 63, 70
3, 1706, Note_on_c, 0, 65, 0
3, 1714, Note_on_c, 0, 63, 0
3, 1716, Note_on_c, 0, 65, 70
3, 1724, Note_on_c, 0, 63, 70
3, 1726, Note_on_c, 0, 65, 0
3, 1739, Note_on_c, 0, 63, 0
3, 1739, Note_on_c, 0, 62, 70
3, 1754, Note_on_c, 0, 63, 70
3, 1759, Note_on_c, 0, 62, 0
3, 1781, Note_on_c, 0, 63, 0
3, 1781, Note_on_c, 0, 65, 70
3, 1851, Note_on_c, 0, 70, 0
3, 1851, Note_on_c, 0, 68, 70
3, 1915, Note_on_c, 0, 67, 70
3, 1916, Note_on_c, 0, 68, 0
3, 1972, Note_on_c, 0, 63, 70
3, 1978, Note_on_c, 0, 65, 0
3, 2035, Note_on_c, 0, 63, 0
3, 2036, Note_on_c, 0, 67, 0
3, 2036, Note_on_c, 0, 65, 70
3, 2036, Note_on_c, 0, 62, 70
3, 2091, Note_on_c, 0, 65, 0
3, 2093, Note_on_c, 0, 63, 70
3, 2094, Note_on_c, 0, 62, 0
3, 2094, Note_on_c, 0, 60, 70
3, 2154, Note_on_c, 0, 62, 70
3, 2154, Note_on_c, 0, 58, 70
3, 2156, Note_on_c, 0, 63, 0
3, 2161, Note_on_c, 0, 60, 0
3, 2215, Note_on_c, 0, 62, 0
3, 2215, Note_on_c, 0, 68, 70
3, 2273, Note_on_c, 0, 68, 0
3, 2275, Note_on_c, 0, 67, 70
3, 2333, Note_on_c, 0, 65, 70
3, 2334, Note_on_c, 0, 55, 70
3, 2335, Note_on_c, 0, 58, 0
3, 2335, Note_on_c, 0, 67, 0
3, 2396, Note_on_c, 0, 63, 70
3, 2397, Note_on_c, 0, 65, 0
3, 2397, Note_on_c, 0, 60, 70
3, 2401, Note_on_c, 0, 55, 0
3, 2454, Note_on_c, 0, 67, 70
3, 2455, Note_on_c, 0, 63, 0
3, 2515, Note_on_c, 0, 65, 70
3, 2519, Note_on_c, 0, 67, 0
3, 2575, Note_on_c, 0, 63, 70
3, 2577, Note_on_c, 0, 60, 0
3, 2577, Note_on_c, 0, 65, 0
3, 2579, Note_on_c, 0, 55, 70
3, 2640, Note_on_c, 0, 55, 0
3, 2640, Note_on_c, 0, 58, 70
3, 2641, Note_on_c, 0, 63, 0
3, 2641, Note_on_c, 0, 62, 70
3, 2698, Note_on_c, 0, 65, 70
3, 2700, Note_on_c, 0, 62, 0
3, 2759, Note_on_c, 0, 63, 70
3, 2762, Note_on_c, 0, 65, 0
3, 2811, Note_on_c, 0, 63, 0
3, 2814, Note_on_c, 0, 62, 70
3, 2873, Note_on_c, 0, 60, 70
3, 2874, Note_on_c, 0, 62, 0
3, 2937, Note_on_c, 0, 62, 70
3, 2941, Note_on_c, 0, 60, 0
3, 2974, Note_on_c, 0, 58, 0
3, 2995, Note_on_c, 0, 63, 70
3, 2996, Note_on_c, 0, 62, 0
3, 2997, Note_on_c, 0, 58, 70
3, 3009, Note_on_c, 0, 58, 0
3, 3011, Note_on_c, 0, 57, 70
3, 3022, Note_on_c, 0, 57, 0
3, 3025, Note_on_c, 0, 58, 70
3, 3035, Note_on_c, 0, 57, 70
3, 3036, Note_on_c, 0, 58, 0
3, 3045, Note_on_c, 0, 57, 0
3, 3049, Note_on_c, 0, 58, 70
3, 3056, Note_on_c, 0, 57, 70
3, 3057, Note_on_c, 0, 58, 0
3, 3070, Note_on_c, 0, 57, 0
3, 3072, Note_on_c, 0, 58, 70
3, 3081, Note_on_c, 0, 58, 0
3, 3081, Note_on_c, 0, 57, 70
3, 3091, Note_on_c, 0, 57, 0
3, 3093, Note_on_c, 0, 58, 70
3, 3100, Note_on_c, 0, 58, 0
3, 3101, Note_on_c, 0, 57, 70
3, 3108, Note_on_c, 0, 57, 0
3, 3109, Note_on_c, 0, 58, 70
3, 3113, Note_on_c, 0, 63, 0
3, 3114, Note_on_c, 0, 62, 70
3, 3118, Note_on_c, 0, 58, 0
3, 3118, Note_on_c, 0, 57, 70
3, 3130, Note_on_c, 0, 57, 0
3, 3131, Note_on_c, 0, 58, 70
3, 3137, Note_on_c, 0, 57, 70
3, 3138, Note_on_c, 0, 58, 0
3, 3149, Note_on_c, 0, 57, 0
3, 3150, Note_on_c, 0, 58, 70
3, 3161, Note_on_c, 0, 58, 0
3, 3161, Note_on_c, 0, 57, 70
3, 3170, Note_on_c, 0, 60, 70
3, 3171, Note_on_c, 0, 62, 0
3, 3178, Note_on_c, 0, 57, 0
3, 3178, Note_on_c, 0, 55, 70
3, 3199, Note_on_c, 0, 57, 70
3, 3202, Note_on_c, 0, 55, 0
3, 3227, Note_on_c, 0, 60, 0
3, 3227, Note_on_c, 0, 58, 70
3, 3228, Note_on_c, 0, 57, 0
3, 3285, Note_on_c, 0, 56, 70
3, 3343, Note_on_c, 0, 56, 0
3, 3343, Note_on_c, 0, 55, 70
3, 3399, Note_on_c, 0, 58, 0
3, 3411, Note_on_c, 0, 60, 70
3, 3433, Note_on_c, 0, 56, 70
3, 3434, Note_on_c, 0, 55, 0
3, 3453, Note_on_c, 0, 56, 0
3, 3464, Note_on_c, 0, 60, 0
3, 3466, Note_on_c, 0, 62, 70
3, 3467, Note_on_c, 0, 55, 70
3, 3481, Note_on_c, 0, 55, 0
3, 3482, Note_on_c, 0, 53, 70
3, 3497, Note_on_c, 0, 53, 0
3, 3499, Note_on_c, 0, 55, 70
3, 3508, Note_on_c, 0, 53, 70
3, 3509, Note_on_c, 0, 55, 0
3, 3517, Note_on_c, 0, 53, 0
3, 3518, Note_on_c, 0, 55, 70
3, 3524, Note_on_c, 0, 53, 70
3, 3529, Note_on_c, 0, 55, 0
3, 3532, Note_on_c, 0, 53, 0
3, 3533, Note_on_c, 0, 55, 70
3, 3535, Note_on_c, 0, 51, 70
3, 3539, Note_on_c, 0, 55, 0
3, 3550, Note_on_c, 0, 51, 0
3, 3551, Note_on_c, 0, 53, 70
3, 3578, Note_on_c, 0, 53, 0
3, 3579, Note_on_c, 0, 62, 0
3, 3580, Note_on_c, 0, 51, 70
3, 3580, Note_on_c, 0, 60, 70
3, 3646, Note_on_c, 0, 53, 70
3, 3646, Note_on_c, 0, 62, 70
3, 3649, Note_on_c, 0, 60, 0
3, 3650, Note_on_c, 0, 51, 0
3, 3704, Note_on_c, 0, 53, 0
3, 3705, Note_on_c, 0, 55, 70
3, 3706, Note_on_c, 0, 62, 0
3, 3706, Note_on_c, 0, 63, 70
3, 3765, Note_on_c, 0, 56, 70
3, 3768, Note_on_c, 0, 55, 0
3, 3828, Note_on_c, 0, 56, 0
3, 3828, Note_on_c, 0, 58, 70
3, 3887, Note_on_c, 0, 58, 0
3, 3888, Note_on_c, 0, 51, 70
3, 3952, Note_on_c, 0, 60, 70
3, 3955, Note_on_c, 0, 51, 0
3, 4011, Note_on_c, 0, 58, 70
3, 4014, Note_on_c, 0, 60, 0
3, 4073, Note_on_c, 0, 58, 0
3, 4073, Note_on_c, 0, 56, 70
3, 4073, Note_on_c, 0, 62, 70
3, 4074, Note_on_c, 0, 63, 0
3, 4135, Note_on_c, 0, 62, 0
3, 4135, Note_on_c, 0, 60, 70
3, 4138, Note_on_c, 0, 56, 0
3, 4195, Note_on_c, 0, 58, 70
3, 4197, Note_on_c, 0, 62, 70
3, 4200, Note_on_c, 0, 60, 0
3, 4256, Note_on_c, 0, 56, 70
3, 4259, Note_on_c, 0, 58, 0
3, 4317, Note_on_c, 0, 55, 70
3, 4320, Note_on_c, 0, 56, 0
3, 4377, Note_on_c, 0, 60, 70
3, 4379, Note_on_c, 0, 62, 0
3, 4407, Note_on_c, 0, 59, 70
3, 4408, Note_on_c, 0, 60, 0
3, 4433, Note_on_c, 0, 59, 0
3, 4441, Note_on_c, 0, 60, 70
3, 4445, Note_on_c, 0, 55, 0
3, 4493, Note_on_c, 0, 56, 70
3, 4551, Note_on_c, 0, 55, 70
3, 4552, Note_on_c, 0, 56, 0
3, 4552, Note_on_c, 0, 58, 70
3, 4557, Note_on_c, 0, 60, 0
3, 4610, Note_on_c, 0, 53, 70
3, 4612, Note_on_c, 0, 55, 0
3, 4635, Note_on_c, 0, 53, 0
3, 4669, Note_on_c, 0, 51, 70
3, 4732, Note_on_c, 0, 58, 0
3, 4732, Note_on_c, 0, 63, 70
3, 4786, Note_on_c, 0, 63, 0
3, 4788, Note_on_c, 0, 62, 70
3, 4851, Note_on_c, 0, 60, 70
3, 4852, Note_on_c, 0, 62, 0
3, 4910, Note_on_c, 0, 58, 70
3, 4911, Note_on_c, 0, 60, 0
3, 4913, Note_on_c, 0, 51, 0
3, 4968, Note_on_c, 0, 58, 0
3, 4970, Note_on_c, 0, 67, 70
3, 5029, Note_on_c, 0, 67, 0
3, 5032, Note_on_c, 0, 65, 70
3, 5092, Note_on_c, 0, 63, 70
3, 5094, Note_on_c, 0, 65, 0
3, 5151, Note_on_c, 0, 62, 70
3, 5152, Note_on_c, 0, 63, 0
3, 5214, Note_on_c, 0, 63, 70
3, 5216, Note_on_c, 0, 62, 0
3, 5271, Note_on_c, 0, 60, 70
3, 5274, Note_on_c, 0, 63, 0
3, 5330, Note_on_c, 0, 62, 70
3, 5331, Note_on_c, 0, 60, 0
3, 5393, Note_on_c, 0, 63, 70
3, 5398, Note_on_c, 0, 62, 0
3, 5452, Note_on_c, 0, 63, 0
3, 5452, Note_on_c, 0, 65, 70
3, 5510, Note_on_c, 0, 67, 70
3, 5511, Note_on_c, 0, 65, 0
3, 5577, Note_on_c, 0, 69, 70
3, 5585, Note_on_c, 0, 67, 0
3, 5633, Note_on_c, 0, 69, 0
3, 5633, Note_on_c, 0, 71, 70
3, 5635, Note_on_c, 0, 67, 70
3, 5654, Note_on_c, 0, 65, 70
3, 5655, Note_on_c, 0, 67, 0
3, 5670, Note_on_c, 0, 65, 0
3, 5671, Note_on_c, 0, 67, 70
3, 5679, Note_on_c, 0, 65, 70
3, 5680, Note_on_c, 0, 67, 0
3, 5687, Note_on_c, 0, 65, 0
3, 5689, Note_on_c, 0, 67, 70
3, 5693, Note_on_c, 0, 65, 70
3, 5698, Note_on_c, 0, 67, 0
3, 5705, Note_on_c, 0, 65, 0
3, 5705, Note_on_c, 0, 63, 70
3, 5719, Note_on_c, 0, 65, 70
3, 5721, Note_on_c, 0, 63, 0
3, 5732, Note_on_c, 0, 65, 0
3, 5753, Note_on_c, 0, 63, 70
3, 5755, Note_on_c, 0, 71, 0
3, 5755, Note_on_c, 0, 72, 70
3, 5804, Note_on_c, 0, 63, 0
3, 5807, Note_on_c, 0, 72, 0
3, 5812, Note_on_c, 0, 63, 70
3, 5815, Note_on_c, 0, 60, 70
3, 5843, Note_on_c, 0, 63, 0
3, 5845, Note_on_c, 0, 60, 0
3, 5869, Note_on_c, 0, 65, 70
3, 5871, Note_on_c, 0, 61, 70
3, 5907, Note_on_c, 0, 65, 0
3, 5927, Note_on_c, 0, 61, 0
3, 5930, Note_on_c, 0, 65, 70
3, 5958, Note_on_c, 0, 67, 70
3, 5980, Note_on_c, 0, 67, 0
3, 5986, Note_on_c, 0, 63, 70
3, 5987, Note_on_c, 0, 65, 0
3, 5989, Note_on_c, 0, 68, 70
3, 6001, Note_on_c, 0, 68, 0
3, 6004, Note_on_c, 0, 67, 70
3, 6013, Note_on_c, 0, 67, 0
3, 6014, Note_on_c, 0, 68, 70
3, 6021, Note_on_c, 0, 68, 0
3, 6024, Note_on_c, 0, 67, 70
3, 6030, Note_on_c, 0, 67, 0
3, 6031, Note_on_c, 0, 68, 70
3, 6037, Note_on_c, 0, 68, 0
3, 6039, Note_on_c, 0, 67, 70
3, 6043, Note_on_c, 0, 68, 70
3, 6044, Note_on_c, 0, 63, 0
3, 6044, Note_on_c, 0, 67, 0
3, 6044, Note_on_c, 0, 61, 70
3, 6051, Note_on_c, 0, 67, 70
3, 6052, Note_on_c, 0, 68, 0
3, 6062, Note_on_c, 0, 68, 70
3, 6065, Note_on_c, 0, 67, 0
3, 6071, Note_on_c, 0, 68, 0
3, 6071, Note_on_c, 0, 67, 70
3, 6075, Note_on_c, 0, 65, 70
3, 6079, Note_on_c, 0, 67, 0
3, 6086, Note_on_c, 0, 65, 0
3, 6088, Note_on_c, 0, 67, 70
3, 6104, Note_on_c, 0, 67, 0
3, 6105, Note_on_c, 0, 68, 70
3, 6106, Note_on_c, 0, 61, 0
3, 6106, Note_on_c, 0, 60, 70
3, 6165, Note_on_c, 0, 58, 70
3, 6167, Note_on_c, 0, 60, 0
3, 6228, Note_on_c, 0, 58, 0
3, 6229, Note_on_c, 0, 60, 70
3, 6319, Note_on_c, 0, 61, 70
3, 6321, Note_on_c, 0, 60, 0
3, 6347, Note_on_c, 0, 61, 0
3, 6349, Note_on_c, 0, 63, 70
3, 6363, Note_on_c, 0, 63, 0
3, 6364, Note_on_c, 0, 61, 70
3, 6375, Note_on_c, 0, 61, 0
3, 6378, Note_on_c, 0, 63, 70
3, 6387, Note_on_c, 0, 61, 70
3, 6388, Note_on_c, 0, 63, 0
3, 6396, Note_on_c, 0, 61, 0
3, 6398, Note_on_c, 0, 63, 70
3, 6405, Note_on_c, 0, 61, 70
3, 6406, Note_on_c, 0, 63, 0
3, 6420, Note_on_c, 0, 61, 0
3, 6421, Note_on_c, 0, 60, 70
3, 6436, Note_on_c, 0, 61, 70
3, 6438, Note_on_c, 0, 60, 0
3, 6454, Note_on_c, 0, 61, 0
3, 6458, Note_on_c, 0, 63, 70
3, 6527, Note_on_c, 0, 68, 0
3, 6529, Note_on_c, 0, 72, 70
3, 6593, Note_on_c, 0, 65, 70
3, 6593, Note_on_c, 0, 70, 70
3, 6594, Note_on_c, 0, 63, 0
3, 6597, Note_on_c, 0, 72, 0
3, 6651, Note_on_c, 0, 68, 70
3, 6652, Note_on_c, 0, 70, 0
3, 6715, Note_on_c, 0, 58, 70
3, 6716, Note_on_c, 0, 68, 0
3, 6716, Note_on_c, 0, 67, 70
3, 6717, Note_on_c, 0, 65, 0
3, 6761, Note_on_c, 0, 67, 0
3, 6775, Note_on_c, 0, 70, 70
3, 6837, Note_on_c, 0, 60, 70
3, 6838, Note_on_c, 0, 70, 0
3, 6838, Note_on_c, 0, 68, 70
3, 6843, Note_on_c, 0, 58, 0
3, 6895, Note_on_c, 0, 68, 0
3, 6896, Note_on_c, 0, 67, 70
3, 6957, Note_on_c, 0, 67, 0
3, 6957, Note_on_c, 0, 65, 70
3, 7018, Note_on_c, 0, 68, 70
3, 7020, Note_on_c, 0, 65, 0
3, 7078, Note_on_c, 0, 68, 0
3, 7079, Note_on_c, 0, 67, 70
3, 7080, Note_on_c, 0, 58, 70
3, 7085, Note_on_c, 0, 60, 0
3, 7138, Note_on_c, 0, 67, 0
3, 7138, Note_on_c, 0, 65, 70
3, 7201, Note_on_c, 0, 64, 70
3, 7203, Note_on_c, 0, 65, 0
3, 7259, Note_on_c, 0, 61, 70
3, 7261, Note_on_c, 0, 58, 0
3, 7319, Note_on_c, 0, 61, 0
3, 7319, Note_on_c, 0, 60, 70
3, 7324, Note_on_c, 0, 64, 0
3, 7377, Note_on_c, 0, 58, 70
3, 7378, Note_on_c, 0, 64, 70
3, 7382, Note_on_c, 0, 60, 0
3, 7442, Note_on_c, 0, 56, 70
3, 7443, Note_on_c, 0, 65, 70
3, 7445, Note_on_c, 0, 64, 0
3, 7446, Note_on_c, 0, 58, 0
3, 7499, Note_on_c, 0, 65, 0
3, 7500, Note_on_c, 0, 64, 70
3, 7501, Note_on_c, 0, 55, 70
3, 7504, Note_on_c, 0, 56, 0
3, 7562, Note_on_c, 0, 56, 70
3, 7563, Note_on_c, 0, 65, 70
3, 7564, Note_on_c, 0, 64, 0
3, 7567, Note_on_c, 0, 55, 0
3, 7621, Note_on_c, 0, 65, 0
3, 7621, Note_on_c, 0, 67, 70
3, 7622, Note_on_c, 0, 58, 70
3, 7624, Note_on_c, 0, 56, 0
3, 7675, Note_on_c, 0, 67, 0
3, 7680, Note_on_c, 0, 55, 70
3, 7681, Note_on_c, 0, 65, 70
3, 7683, Note_on_c, 0, 58, 0
3, 7703, Note_on_c, 0, 64, 70
3, 7704, Note_on_c, 0, 65, 0
3, 7716, Note_on_c, 0, 64, 0
3, 7720, Note_on_c, 0, 65, 70
3, 7728, Note_on_c, 0, 55, 0
3, 7730, Note_on_c, 0, 65, 0
3, 7733, Note_on_c, 0, 64, 70
3, 7734, Note_on_c, 0, 61, 70
3, 7743, Note_on_c, 0, 64, 0
3, 7744, Note_on_c, 0, 65, 70
3, 7757, Note_on_c, 0, 65, 0
3, 7759, Note_on_c, 0, 64, 70
3, 7769, Note_on_c, 0, 64, 0
3, 7770, Note_on_c, 0, 65, 70
3, 7782, Note_on_c, 0, 65, 0
3, 7784, Note_on_c, 0, 64, 70
3, 7789, Note_on_c, 0, 60, 70
3, 7790, Note_on_c, 0, 61, 0
3, 7792, Note_on_c, 0, 64, 0
3, 7792, Note_on_c, 0, 65, 70
3, 7804, Note_on_c, 0, 65, 0
3, 7805, Note_on_c, 0, 64, 70
3, 7813, Note_on_c, 0, 65, 70
3, 7814, Note_on_c, 0, 64, 0
3, 7819, Note_on_c, 0, 65, 0
3, 7820, Note_on_c, 0, 64, 70
3, 7826, Note_on_c, 0, 65, 70
3, 7827, Note_on_c, 0, 64, 0
3, 7837, Note_on_c, 0, 64, 70
3, 7839, Note_on_c, 0, 65, 0
3, 7847, Note_on_c, 0, 58, 70
3, 7850, Note_on_c, 0, 60, 0
3, 7867, Note_on_c, 0, 62, 70
3, 7868, Note_on_c, 0, 64, 0
3, 7888, Note_on_c, 0, 64, 70
3, 7889, Note_on_c, 0, 62, 0
3, 7908, Note_on_c, 0, 65, 70
3, 7909, Note_on_c, 0, 56, 70
3, 7910, Note_on_c, 0, 64, 0
3, 7911, Note_on_c, 0, 58, 0
3, 7971, Note_on_c, 0, 55, 70
3, 7972, Note_on_c, 0, 56, 0
3, 8033, Note_on_c, 0, 56, 70
3, 8035, Note_on_c, 0, 55, 0
3, 8094, Note_on_c, 0, 53, 70
3, 8096, Note_on_c, 0, 56, 0
3, 8154, Note_on_c, 0, 55, 70
3, 8156, Note_on_c, 0, 65, 0
3, 8160, Note_on_c, 0, 53, 0
3, 8214, Note_on_c, 0, 57, 70
3, 8216, Note_on_c, 0, 55, 0
3, 8273, Note_on_c, 0, 58, 70
3, 8276, Note_on_c, 0, 57, 0
3, 8338, Note_on_c, 0, 53, 70
3, 8340, Note_on_c, 0, 58, 0
3, 8401, Note_on_c, 0, 65, 70
3, 8402, Note_on_c, 0, 58, 70
3, 8406, Note_on_c, 0, 53, 0
3, 8488, Note_on_c, 0, 65, 0
3, 8488, Note_on_c, 0, 67, 70
3, 8523, Note_on_c, 0, 65, 70
3, 8526, Note_on_c, 0, 67, 0
3, 8553, Note_on_c, 0, 63, 70
3, 8556, Note_on_c, 0, 65, 0
3, 8579, Note_on_c, 0, 63, 0
3, 8582, Note_on_c, 0, 57, 70
3, 8583, Note_on_c, 0, 62, 70
3, 8585, Note_on_c, 0, 58, 0
3, 8611, Note_on_c, 0, 62, 0
3, 8611, Note_on_c, 0, 63, 70
3, 8644, Note_on_c, 0, 63, 0
3, 8647, Note_on_c, 0, 62, 70
3, 8647, Note_on_c, 0, 58, 70
3, 8650, Note_on_c, 0, 57, 0
3, 8759, Note_on_c, 0, 60, 70
3, 8760, Note_on_c, 0, 62, 0
3, 8760, Note_on_c, 0, 63, 70
3, 8764, Note_on_c, 0, 58, 0
3, 8874, Note_on_c, 0, 65, 70
3, 8874, Note_on_c, 0, 62, 70
3, 8876, Note_on_c, 0, 60, 0
3, 8876, Note_on_c, 0, 63, 0
3, 8964, Note_on_c, 0, 62, 0
3, 8968, Note_on_c, 0, 65, 0
3, 8988, Note_on_c, 0, 63, 70
3, 8989, Note_on_c, 0, 67, 70
3, 9110, Note_on_c, 0, 72, 70
3, 9111, Note_on_c, 0, 64, 70
3, 9113, Note_on_c, 0, 63, 0
3, 9115, Note_on_c, 0, 67, 0
3, 9228, Note_on_c, 0, 70, 70
3, 9233, Note_on_c, 0, 72, 0
3, 9352, Note_on_c, 0, 68, 70
3, 9353, Note_on_c, 0, 70, 0
3, 9354, Note_on_c, 0, 64, 0
3, 9354, Note_on_c, 0, 65, 70
3, 9418, Note_on_c, 0, 68, 0
3, 9418, Note_on_c, 0, 63, 70
3, 9419, Note_on_c, 0, 67, 70
3, 9420, Note_on_c, 0, 65, 0
3, 9482, Note_on_c, 0, 62, 70
3, 9483, Note_on_c, 0, 63, 0
3, 9483, Note_on_c, 0, 67, 0
3, 9483, Note_on_c, 0, 65, 70
3, 9542, Note_on_c, 0, 60, 70
3, 9545, Note_on_c, 0, 62, 0
3, 9604, Note_on_c, 0, 63, 70
3, 9605, Note_on_c, 0, 58, 70
3, 9607, Note_on_c, 0, 65, 0
3, 9609, Note_on_c, 0, 60, 0
3, 9663, Note_on_c, 0, 63, 0
3, 9664, Note_on_c, 0, 61, 70
3, 9715, Note_on_c, 0, 61, 0
3, 9723, Note_on_c, 0, 60, 70
3, 9777, Note_on_c, 0, 56, 70
3, 9782, Note_on_c, 0, 58, 0
3, 9821, Note_on_c, 0, 56, 0
3, 9838, Note_on_c, 0, 50, 70
3, 9839, Note_on_c, 0, 58, 70
3, 9843, Note_on_c, 0, 60, 0
3, 9955, Note_on_c, 0, 51, 70
3, 9960, Note_on_c, 0, 50, 0
3, 9981, Note_on_c, 0, 58, 0
3, 10016, Note_on_c, 0, 58, 70
3, 10079, Note_on_c, 0, 58, 0
3, 10081, Note_on_c, 0, 60, 70
3, 10205, Note_on_c, 0, 58, 70
3, 10209, Note_on_c, 0, 60, 0
3, 10238, Note_on_c, 0, 51, 0
3, 10262, Note_on_c, 0, 50, 70
3, 10320, Note_on_c, 0, 48, 70
3, 10328, Note_on_c, 0, 50, 0
3, 10382, Note_on_c, 0, 50, 70
3, 10385, Note_on_c, 0, 48, 0
3, 10437, Note_on_c, 0, 51, 70
3, 10443, Note_on_c, 0, 50, 0
3, 10499, Note_on_c, 0, 58, 0
3, 10501, Note_on_c, 0, 60, 70
3, 10564, Note_on_c, 0, 61, 70
3, 10565, Note_on_c, 0, 60, 0
3, 10569, Note_on_c, 0, 51, 0
3, 10623, Note_on_c, 0, 58, 70
3, 10680, Note_on_c, 0, 61, 0
3, 10681, Note_on_c, 0, 60, 70
3, 10738, Note_on_c, 0, 56, 70
3, 10744, Note_on_c, 0, 58, 0
3, 10799, Note_on_c, 0, 58, 70
3, 10802, Note_on_c, 0, 60, 0
3, 10854, Note_on_c, 0, 56, 0
3, 10855, Note_on_c, 0, 55, 70
3, 10914, Note_on_c, 0, 58, 0
3, 10915, Note_on_c, 0, 56, 70
3, 10974, Note_on_c, 0, 53, 70
3, 10977, Note_on_c, 0, 55, 0
3, 11034, Note_on_c, 0, 51, 70
3, 11037, Note_on_c, 0, 53, 0
3, 11095, Note_on_c, 0, 56, 0
3, 11097, Note_on_c, 0, 55, 70
3, 11159, Note_on_c, 0, 56, 70
3, 11163, Note_on_c, 0, 55, 0
3, 11219, Note_on_c, 0, 51, 0
3, 11220, Note_on_c, 0, 58, 70
3, 11220, Note_on_c, 0, 55, 70
3, 11221, Note_on_c, 0, 56, 0
3, 11276, Note_on_c, 0, 58, 0
3, 11277, Note_on_c, 0, 60, 70
3, 11278, Note_on_c, 0, 56, 70
3, 11282, Note_on_c, 0, 55, 0
3, 11334, Note_on_c, 0, 60, 0
3, 11335, Note_on_c, 0, 56, 0
3, 11335, Note_on_c, 0, 58, 70
3, 11336, Note_on_c, 0, 61, 70
3, 11359, Note_on_c, 0, 61, 0
3, 11360, Note_on_c, 0, 58, 0
3, 11393, Note_on_c, 0, 60, 70
3, 11394, Note_on_c, 0, 63, 70
3, 11455, Note_on_c, 0, 60, 0
3, 11455, Note_on_c, 0, 56, 70
3, 11514, Note_on_c, 0, 56, 0
3, 11515, Note_on_c, 0, 53, 70
3, 11569, Note_on_c, 0, 63, 0
3, 11573, Note_on_c, 0, 65, 70
3, 11624, Note_on_c, 0, 65, 0
3, 11633, Note_on_c, 0, 55, 70
3, 11634, Note_on_c, 0, 53, 0
3, 11635, Note_on_c, 0, 63, 70
3, 11650, Note_on_c, 0, 63, 0
3, 11652, Note_on_c, 0, 61, 70
3, 11662, Note_on_c, 0, 61, 0
3, 11664, Note_on_c, 0, 63, 70
3, 11674, Note_on_c, 0, 63, 0
3, 11677, Note_on_c, 0, 61, 70
3, 11685, Note_on_c, 0, 61, 0
3, 11686, Note_on_c, 0, 63, 70
3, 11694, Note_on_c, 0, 56, 70
3, 11696, Note_on_c, 0, 63, 0
3, 11697, Note_on_c, 0, 61, 70
3, 11698, Note_on_c, 0, 55, 0
3, 11704, Note_on_c, 0, 61, 0
3, 11705, Note_on_c, 0, 63, 70
3, 11713, Note_on_c, 0, 63, 0
3, 11713, Note_on_c, 0, 61, 70
3, 11721, Note_on_c, 0, 61, 0
3, 11721, Note_on_c, 0, 63, 70
3, 11727, Note_on_c, 0, 63, 0
3, 11729, Note_on_c, 0, 61, 70
3, 11736, Note_on_c, 0, 61, 0
3, 11736, Note_on_c, 0, 63, 70
3, 11740, Note_on_c, 0, 63, 0
3, 11743, Note_on_c, 0, 61, 70
3, 11748, Note_on_c, 0, 63, 70
3, 11749, Note_on_c, 0, 61, 0
3, 11751, Note_on_c, 0, 56, 0
3, 11751, Note_on_c, 0, 58, 70
3, 11753, Note_on_c, 0, 61, 70
3, 11756, Note_on_c, 0, 63, 0
3, 11810, Note_on_c, 0, 61, 0
3, 11810, Note_on_c, 0, 60, 70
3, 11840, Note_on_c, 0, 61, 70
3, 11844, Note_on_c, 0, 60, 0
3, 11870, Note_on_c, 0, 61, 0
3, 11873, Note_on_c, 0, 60, 70
3, 11913, Note_on_c, 0, 58, 0
3, 11933, Note_on_c, 0, 58, 70
3, 11992, Note_on_c, 0, 58, 0
3, 11992, Note_on_c, 0, 56, 70
3, 12051, Note_on_c, 0, 56, 0
3, 12051, Note_on_c, 0, 55, 70
3, 12052, Note_on_c, 0, 60, 0
3, 12053, Note_on_c, 0, 58, 70
3, 12114, Note_on_c, 0, 60, 70
3, 12115, Note_on_c, 0, 55, 0
3, 12115, Note_on_c, 0, 56, 70
3, 12117, Note_on_c, 0, 58, 0
3, 12175, Note_on_c, 0, 60, 0
3, 12176, Note_on_c, 0, 53, 70
3, 12177, Note_on_c, 0, 62, 70
3, 12179, Note_on_c, 0, 56, 0
3, 12218, Note_on_c, 0, 62, 0
3, 12228, Note_on_c, 0, 53, 0
3, 12244, Note_on_c, 0, 63, 70
3, 12244, Note_on_c, 0, 55, 70
3, 12297, Note_on_c, 0, 55, 0
3, 12303, Note_on_c, 0, 56, 70
3, 12305, Note_on_c, 0, 65, 70
3, 12306, Note_on_c, 0, 63, 0
3, 12329, Note_on_c, 0, 56, 0
3, 12367, Note_on_c, 0, 67, 70
3, 12368, Note_on_c, 0, 58, 70
3, 12371, Note_on_c, 0, 65, 0
3, 12455, Note_on_c, 0, 58, 0
3, 12456, Note_on_c, 0, 60, 70
3, 12460, Note_on_c, 0, 67, 0
3, 12460, Note_on_c, 0, 68, 70
3, 12476, Note_on_c, 0, 60, 0
3, 12488, Note_on_c, 0, 58, 70
3, 12489, Note_on_c, 0, 67, 70
3, 12493, Note_on_c, 0, 68, 0
3, 12502, Note_on_c, 0, 58, 0
3, 12503, Note_on_c, 0, 56, 70
3, 12504, Note_on_c, 0, 67, 0
3, 12504, Note_on_c, 0, 65, 70
3, 12514, Note_on_c, 0, 56, 0
3, 12517, Note_on_c, 0, 65, 0
3, 12517, Note_on_c, 0, 58, 70
3, 12520, Note_on_c, 0, 67, 70
3, 12528, Note_on_c, 0, 58, 0
3, 12529, Note_on_c, 0, 56, 70
3, 12530, Note_on_c, 0, 67, 0
3, 12530, Note_on_c, 0, 65, 70
3, 12538, Note_on_c, 0, 67, 70
3, 12539, Note_on_c, 0, 56, 0
3, 12539, Note_on_c, 0, 65, 0
3, 12541, Note_on_c, 0, 58, 70
3, 12550, Note_on_c, 0, 56, 70
3, 12551, Note_on_c, 0, 58, 0
3, 12552, Note_on_c, 0, 65, 70
3, 12554, Note_on_c, 0, 67, 0
3, 12557, Note_on_c, 0, 56, 0
3, 12557, Note_on_c, 0, 58, 70
3, 12565, Note_on_c, 0, 56, 70
3, 12567, Note_on_c, 0, 58, 0
3, 12568, Note_on_c, 0, 63, 70
3, 12572, Note_on_c, 0, 65, 0
3, 12575, Note_on_c, 0, 56, 0
3, 12583, Note_on_c, 0, 63, 0
3, 12584, Note_on_c, 0, 65, 70
3, 12595, Note_on_c, 0, 63, 70
3, 12595, Note_on_c, 0, 55, 70
3, 12600, Note_on_c, 0, 63, 70
3, 12602, Note_on_c, 0, 65, 0
3, 12649, Note_on_c, 0, 63, 0
3, 12655, Note_on_c, 0, 65, 70
3, 12656, Note_on_c, 0, 63, 0
3, 12671, Note_on_c, 0, 55, 0
3, 12711, Note_on_c, 0, 63, 70
3, 12712, Note_on_c, 0, 65, 0
3, 12712, Note_on_c, 0, 67, 70
3, 12766, Note_on_c, 0, 67, 0
3, 12767, Note_on_c, 0, 68, 70
3, 12796, Note_on_c, 0, 65, 70
3, 12797, Note_on_c, 0, 63, 0
3, 12822, Note_on_c, 0, 65, 0
3, 12824, Note_on_c, 0, 63, 70
3, 12827, Note_on_c, 0, 68, 0
3, 12827, Note_on_c, 0, 70, 70
3, 12841, Note_on_c, 0, 63, 0
3, 12841, Note_on_c, 0, 61, 70
3, 12854, Note_on_c, 0, 61, 0
3, 12856, Note_on_c, 0, 63, 70
3, 12868, Note_on_c, 0, 63, 0
3, 12869, Note_on_c, 0, 61, 70
3, 12879, Note_on_c, 0, 61, 0
3, 12881, Note_on_c, 0, 63, 70
3, 12888, Note_on_c, 0, 61, 70
3, 12890, Note_on_c, 0, 63, 0
3, 12899, Note_on_c, 0, 61, 0
3, 12899, Note_on_c, 0, 63, 70
3, 12903, Note_on_c, 0, 63, 0
3, 12903, Note_on_c, 0, 60, 70
3, 12921, Note_on_c, 0, 61, 70
3, 12922, Note_on_c, 0, 60, 0
3, 12951, Note_on_c, 0, 60, 70
3, 12952, Note_on_c, 0, 61, 0
3, 13005, Note_on_c, 0, 70, 0
3, 13007, Note_on_c, 0, 72, 70
3, 13048, Note_on_c, 0, 72, 0
3, 13062, Note_on_c, 0, 70, 70
3, 13075, Note_on_c, 0, 70, 0
3, 13076, Note_on_c, 0, 68, 70
3, 13086, Note_on_c, 0, 68, 0
3, 13089, Note_on_c, 0, 70, 70
3, 13098, Note_on_c, 0, 70, 0
3, 13101, Note_on_c, 0, 68, 70
3, 13108, Note_on_c, 0, 68, 0
3, 13111, Note_on_c, 0, 70, 70
3, 13115, Note_on_c, 0, 58, 70
3, 13117, Note_on_c, 0, 60, 0
3, 13120, Note_on_c, 0, 70, 0
3, 13123, Note_on_c, 0, 68, 70
3, 13130, Note_on_c, 0, 68, 0
3, 13132, Note_on_c, 0, 70, 70
3, 13141, Note_on_c, 0, 70, 0
3, 13145, Note_on_c, 0, 68, 70
3, 13150, Note_on_c, 0, 68, 0
3, 13153, Note_on_c, 0, 70, 70
3, 13161, Note_on_c, 0, 70, 0
3, 13164, Note_on_c, 0, 68, 70
3, 13170, Note_on_c, 0, 68, 0
3, 13171, Note_on_c, 0, 70, 70
3, 13177, Note_on_c, 0, 60, 70
3, 13179, Note_on_c, 0, 58, 0
3, 13179, Note_on_c, 0, 70, 0
3, 13180, Note_on_c, 0, 68, 70
3, 13186, Note_on_c, 0, 68, 0
3, 13186, Note_on_c, 0, 70, 70
3, 13194, Note_on_c, 0, 70, 0
3, 13194, Note_on_c, 0, 68, 70
3, 13235, Note_on_c, 0, 68, 0
3, 13235, Note_on_c, 0, 62, 70
3, 13236, Note_on_c, 0, 60, 0
3, 13236, Note_on_c, 0, 67, 70
3, 13262, Note_on_c, 0, 67, 0
3, 13262, Note_on_c, 0, 68, 70
3, 13291, Note_on_c, 0, 68, 0
3, 13294, Note_on_c, 0, 67, 70
3, 13295, Note_on_c, 0, 63, 70
3, 13300, Note_on_c, 0, 62, 0
3, 13366, Note_on_c, 0, 67, 0
3, 13366, Note_on_c, 0, 65, 70
3, 13373, Note_on_c, 0, 63, 0
3, 13431, Note_on_c, 0, 58, 70
3, 13432, Note_on_c, 0, 67, 70
3, 13437, Note_on_c, 0, 65, 0
3, 13527, Note_on_c, 0, 69, 70
3, 13528, Note_on_c, 0, 60, 70
3, 13531, Note_on_c, 0, 58, 0
3, 13532, Note_on_c, 0, 67, 0
3, 13540, Note_on_c, 0, 69, 0
3, 13541, Note_on_c, 0, 60, 0
3, 13556, Note_on_c, 0, 70, 70
3, 13557, Note_on_c, 0, 62, 70
3, 13568, Note_on_c, 0, 70, 0
3, 13570, Note_on_c, 0, 69, 70
3, 13573, Note_on_c, 0, 62, 0
3, 13574, Note_on_c, 0, 60, 70
3, 13581, Note_on_c, 0, 69, 0
3, 13582, Note_on_c, 0, 70, 70
3, 13586, Note_on_c, 0, 60, 0
3, 13588, Note_on_c, 0, 62, 70
3, 13591, Note_on_c, 0, 70, 0
3, 13593, Note_on_c, 0, 69, 70
3, 13599, Note_on_c, 0, 62, 0
3, 13599, Note_on_c, 0, 60, 70
3, 13601, Note_on_c, 0, 69, 0
3, 13602, Note_on_c, 0, 70, 70
3, 13607, Note_on_c, 0, 60, 0
3, 13608, Note_on_c, 0, 70, 0
3, 13608, Note_on_c, 0, 62, 70
3, 13614, Note_on_c, 0, 70, 70
3, 13617, Note_on_c, 0, 60, 70
3, 13621, Note_on_c, 0, 69, 70
3, 13623, Note_on_c, 0, 70, 0
3, 13626, Note_on_c, 0, 62, 0
3, 13630, Note_on_c, 0, 58, 70
3, 13631, Note_on_c, 0, 60, 0
3, 13640, Note_on_c, 0, 67, 70
3, 13641, Note_on_c, 0, 69, 0
3, 13648, Note_on_c, 0, 69, 70
3, 13649, Note_on_c, 0, 67, 0
3, 13669, Note_on_c, 0, 69, 0
3, 13669, Note_on_c, 0, 60, 70
3, 13670, Note_on_c, 0, 70, 70
3, 13672, Note_on_c, 0, 58, 0
3, 13682, Note_on_c, 0, 60, 0
3, 13682, Note_on_c, 0, 62, 70
3, 13729, Note_on_c, 0, 60, 70
3, 13731, Note_on_c, 0, 62, 0
3, 13783, Note_on_c, 0, 60, 0
3, 13785, Note_on_c, 0, 62, 70
3, 13875, Note_on_c, 0, 62, 0
3, 13875, Note_on_c, 0, 63, 70
3, 13904, Note_on_c, 0, 63, 0
3, 13906, Note_on_c, 0, 65, 70
3, 13921, Note_on_c, 0, 65, 0
3, 13921, Note_on_c, 0, 63, 70
3, 13933, Note_on_c, 0, 63, 0
3, 13938, Note_on_c, 0, 65, 70
3, 13938, Note_on_c, 0, 64, 70
3, 13944, Note_on_c, 0, 64, 0
3, 13945, Note_on_c, 0, 65, 0
3, 13945, Note_on_c, 0, 63, 70
3, 13955, Note_on_c, 0, 63, 0
3, 13958, Note_on_c, 0, 65, 70
3, 13965, Note_on_c, 0, 63, 70
3, 13967, Note_on_c, 0, 65, 0
3, 13979, Note_on_c, 0, 63, 0
3, 13980, Note_on_c, 0, 62, 70
3, 13995, Note_on_c, 0, 63, 70
3, 13998, Note_on_c, 0, 62, 0
3, 14018, Note_on_c, 0, 63, 0
3, 14021, Note_on_c, 0, 65, 70
3, 14084, Note_on_c, 0, 68, 70
3, 14085, Note_on_c, 0, 70, 0
3, 14143, Note_on_c, 0, 68, 0
3, 14144, Note_on_c, 0, 67, 70
3, 14201, Note_on_c, 0, 63, 70
3, 14205, Note_on_c, 0, 65, 0
3, 14265, Note_on_c, 0, 62, 70
3, 14266, Note_on_c, 0, 63, 0
3, 14266, Note_on_c, 0, 65, 70
3, 14267, Note_on_c, 0, 67, 0
3, 14324, Note_on_c, 0, 65, 0
3, 14324, Note_on_c, 0, 60, 70
3, 14325, Note_on_c, 0, 63, 70
3, 14326, Note_on_c, 0, 62, 0
3, 14386, Note_on_c, 0, 63, 0
3, 14387, Note_on_c, 0, 62, 70
3, 14388, Note_on_c, 0, 58, 70
3, 14396, Note_on_c, 0, 60, 0
3, 14427, Note_on_c, 0, 62, 0
3, 14449, Note_on_c, 0, 68, 70
3, 14505, Note_on_c, 0, 68, 0
3, 14509, Note_on_c, 0, 67, 70
3, 14569, Note_on_c, 0, 55, 70
3, 14570, Note_on_c, 0, 65, 70
3, 14572, Note_on_c, 0, 58, 0
3, 14572, Note_on_c, 0, 67, 0
3, 14633, Note_on_c, 0, 65, 0
3, 14633, Note_on_c, 0, 60, 70
3, 14633, Note_on_c, 0, 63, 70
3, 14638, Note_on_c, 0, 55, 0
3, 14689, Note_on_c, 0, 63, 0
3, 14690, Note_on_c, 0, 67, 70
3, 14750, Note_on_c, 0, 65, 70
3, 14755, Note_on_c, 0, 67, 0
3, 14810, Note_on_c, 0, 63, 70
3, 14810, Note_on_c, 0, 53, 70
3, 14811, Note_on_c, 0, 65, 0
3, 14815, Note_on_c, 0, 60, 0
3, 14872, Note_on_c, 0, 63, 0
3, 14873, Note_on_c, 0, 62, 70
3, 14874, Note_on_c, 0, 58, 70
3, 14880, Note_on_c, 0, 53, 0
3, 14920, Note_on_c, 0, 62, 0
3, 14933, Note_on_c, 0, 65, 70
3, 14994, Note_on_c, 0, 63, 70
3, 14995, Note_on_c, 0, 65, 0
3, 15052, Note_on_c, 0, 63, 0
3, 15053, Note_on_c, 0, 62, 70
3, 15113, Note_on_c, 0, 60, 70
3, 15115, Note_on_c, 0, 62, 0
3, 15177, Note_on_c, 0, 62, 70
3, 15180, Note_on_c, 0, 60, 0
3, 15211, Note_on_c, 0, 58, 0
3, 15235, Note_on_c, 0, 63, 70
3, 15236, Note_on_c, 0, 62, 0
3, 15236, Note_on_c, 0, 58, 70
3, 15251, Note_on_c, 0, 58, 0
3, 15252, Note_on_c, 0, 57, 70
3, 15264, Note_on_c, 0, 57, 0
3, 15266, Note_on_c, 0, 58, 70
3, 15278, Note_on_c, 0, 58, 0
3, 15278, Note_on_c, 0, 57, 70
3, 15290, Note_on_c, 0, 57, 0
3, 15293, Note_on_c, 0, 58, 70
3, 15301, Note_on_c, 0, 58, 0
3, 15301, Note_on_c, 0, 57, 70
3, 15311, Note_on_c, 0, 57, 0
3, 15314, Note_on_c, 0, 58, 70
3, 15322, Note_on_c, 0, 58, 0
3, 15322, Note_on_c, 0, 57, 70
3, 15332, Note_on_c, 0, 57, 0
3, 15335, Note_on_c, 0, 58, 70
3, 15343, Note_on_c, 0, 63, 0
3, 15344, Note_on_c, 0, 58, 0
3, 15344, Note_on_c, 0, 57, 70
3, 15345, Note_on_c, 0, 62, 70
3, 15356, Note_on_c, 0, 57, 0
3, 15358, Note_on_c, 0, 58, 70
3, 15366, Note_on_c, 0, 57, 70
3, 15367, Note_on_c, 0, 58, 0
3, 15378, Note_on_c, 0, 57, 0
3, 15380, Note_on_c, 0, 58, 70
3, 15388, Note_on_c, 0, 57, 70
3, 15389, Note_on_c, 0, 58, 0
3, 15395, Note_on_c, 0, 62, 0
3, 15395, Note_on_c, 0, 60, 70
3, 15411, Note_on_c, 0, 55, 70
3, 15412, Note_on_c, 0, 57, 0
3, 15430, Note_on_c, 0, 57, 70
3, 15433, Note_on_c, 0, 55, 0
3, 15449, Note_on_c, 0, 60, 0
3, 15451, Note_on_c, 0, 57, 0
3, 15452, Note_on_c, 0, 58, 70
3, 15516, Note_on_c, 0, 56, 70
3, 15573, Note_on_c, 0, 55, 70
3, 15574, Note_on_c, 0, 56, 0
3, 15638, Note_on_c, 0, 60, 70
3, 15640, Note_on_c, 0, 58, 0
3, 15666, Note_on_c, 0, 56, 70
3, 15668, Note_on_c, 0, 55, 0
3, 15687, Note_on_c, 0, 56, 0
3, 15702, Note_on_c, 0, 55, 70
3, 15703, Note_on_c, 0, 62, 70
3, 15705, Note_on_c, 0, 60, 0
3, 15718, Note_on_c, 0, 55, 0
3, 15719, Note_on_c, 0, 53, 70
3, 15732, Note_on_c, 0, 53, 0
3, 15734, Note_on_c, 0, 55, 70
3, 15742, Note_on_c, 0, 53, 70
3, 15743, Note_on_c, 0, 55, 0
3, 15752, Note_on_c, 0, 53, 0
3, 15757, Note_on_c, 0, 55, 70
3, 15768, Note_on_c, 0, 53, 70
3, 15770, Note_on_c, 0, 55, 0
3, 15785, Note_on_c, 0, 51, 70
3, 15786, Note_on_c, 0, 53, 0
3, 15795, Note_on_c, 0, 53, 70
3, 15798, Note_on_c, 0, 51, 0
3, 15823, Note_on_c, 0, 62, 0
3, 15828, Note_on_c, 0, 53, 0
3, 15833, Note_on_c, 0, 51, 70
3, 15836, Note_on_c, 0, 60, 70
3, 15891, Note_on_c, 0, 60, 0
3, 15897, Note_on_c, 0, 53, 70
3, 15898, Note_on_c, 0, 62, 70
3, 15907, Note_on_c, 0, 51, 0
3, 15960, Note_on_c, 0, 53, 0
3, 15961, Note_on_c, 0, 55, 70
3, 15961, Note_on_c, 0, 63, 70
3, 15963, Note_on_c, 0, 62, 0
3, 16018, Note_on_c, 0, 56, 70
3, 16019, Note_on_c, 0, 55, 0
3, 16076, Note_on_c, 0, 56, 0
3, 16076, Note_on_c, 0, 58, 70
3, 16135, Note_on_c, 0, 51, 70
3, 16137, Note_on_c, 0, 58, 0
3, 16195, Note_on_c, 0, 60, 70
3, 16197, Note_on_c, 0, 51, 0
3, 16253, Note_on_c, 0, 58, 70
3, 16255, Note_on_c, 0, 60, 0
3, 16312, Note_on_c, 0, 63, 0
3, 16312, Note_on_c, 0, 62, 70
3, 16313, Note_on_c, 0, 58, 0
3, 16313, Note_on_c, 0, 56, 70
3, 16375, Note_on_c, 0, 62, 0
3, 16376, Note_on_c, 0, 60, 70
3, 16380, Note_on_c, 0, 56, 0
3, 16433, Note_on_c, 0, 60, 0
3, 16434, Note_on_c, 0, 58, 70
3, 16434, Note_on_c, 0, 62, 70
3, 16494, Note_on_c, 0, 56, 70
3, 16497, Note_on_c, 0, 58, 0
3, 16558, Note_on_c, 0, 56, 0
3, 16558, Note_on_c, 0, 55, 70
3, 16620, Note_on_c, 0, 60, 70
3, 16624, Note_on_c, 0, 62, 0
3, 16648, Note_on_c, 0, 59, 70
3, 16649, Note_on_c, 0, 60, 0
3, 16682, Note_on_c, 0, 60, 70
3, 16684, Note_on_c, 0, 59, 0
3, 16738, Note_on_c, 0, 56, 70
3, 16742, Note_on_c, 0, 55, 0
3, 16799, Note_on_c, 0, 56, 0
3, 16800, Note_on_c, 0, 60, 0
3, 16800, Note_on_c, 0, 55, 70
3, 16800, Note_on_c, 0, 58, 70
3, 16856, Note_on_c, 0, 53, 70
3, 16858, Note_on_c, 0, 55, 0
3, 16920, Note_on_c, 0, 53, 0
3, 16920, Note_on_c, 0, 51, 70
3, 16959, Note_on_c, 0, 58, 0
3, 16983, Note_on_c, 0, 63, 70
3, 17025, Note_on_c, 0, 63, 0
3, 17038, Note_on_c, 0, 62, 70
3, 17094, Note_on_c, 0, 60, 70
3, 17095, Note_on_c, 0, 62, 0
3, 17096, Note_on_c, 0, 51, 0
3, 17157, Note_on_c, 0, 58, 70
3, 17158, Note_on_c, 0, 60, 0
3, 17197, Note_on_c, 0, 58, 0
3, 17215, Note_on_c, 0, 67, 70
3, 17265, Note_on_c, 0, 67, 0
3, 17274, Note_on_c, 0, 65, 70
3, 17336, Note_on_c, 0, 63, 70
3, 17341, Note_on_c, 0, 65, 0
3, 17398, Note_on_c, 0, 62, 70
3, 17400, Note_on_c, 0, 63, 0
3, 17454, Note_on_c, 0, 63, 70
3, 17457, Note_on_c, 0, 62, 0
3, 17510, Note_on_c, 0, 60, 70
3, 17513, Note_on_c, 0, 63, 0
3, 17570, Note_on_c, 0, 62, 70
3, 17572, Note_on_c, 0, 60, 0
3, 17634, Note_on_c, 0, 62, 0
3, 17635, Note_on_c, 0, 63, 70
3, 17694, Note_on_c, 0, 63, 0
3, 17694, Note_on_c, 0, 65, 70
3, 17754, Note_on_c, 0, 67, 70
3, 17759, Note_on_c, 0, 65, 0
3, 17814, Note_on_c, 0, 69, 70
3, 17855, Note_on_c, 0, 67, 0
3, 17871, Note_on_c, 0, 69, 0
3, 17873, Note_on_c, 0, 67, 70
3, 17873, Note_on_c, 0, 71, 70
3, 17889, Note_on_c, 0, 67, 0
3, 17890, Note_on_c, 0, 65, 70
3, 17904, Note_on_c, 0, 65, 0
3, 17905, Note_on_c, 0, 67, 70
3, 17913, Note_on_c, 0, 65, 70
3, 17914, Note_on_c, 0, 67, 0
3, 17921, Note_on_c, 0, 65, 0
3, 17922, Note_on_c, 0, 67, 70
3, 17928, Note_on_c, 0, 65, 70
3, 17932, Note_on_c, 0, 67, 0
3, 17943, Note_on_c, 0, 63, 70
3, 17944, Note_on_c, 0, 65, 0
3, 17958, Note_on_c, 0, 65, 70
3, 17963, Note_on_c, 0, 63, 0
3, 17968, Note_on_c, 0, 65, 0
3, 17996, Note_on_c, 0, 71, 0
3, 17997, Note_on_c, 0, 72, 70
3, 17997, Note_on_c, 0, 63, 70
3, 17998, Note_on_c, 0, 67, 70
3, 18037, Note_on_c, 0, 63, 0
3, 18039, Note_on_c, 0, 67, 0
3, 18051, Note_on_c, 0, 63, 70
3, 18053, Note_on_c, 0, 72, 0
3, 18054, Note_on_c, 0, 60, 70
3, 18085, Note_on_c, 0, 63, 0
3, 18086, Note_on_c, 0, 60, 0
3, 18109, Note_on_c, 0, 65, 70
3, 18109, Note_on_c, 0, 61, 70
3, 18147, Note_on_c, 0, 61, 0
3, 18168, Note_on_c, 0, 63, 70
3, 18198, Note_on_c, 0, 67, 70
3, 18199, Note_on_c, 0, 65, 0
3, 18215, Note_on_c, 0, 67, 0
3, 18224, Note_on_c, 0, 61, 70
3, 18228, Note_on_c, 0, 68, 70
3, 18236, Note_on_c, 0, 61, 0
3, 18245, Note_on_c, 0, 68, 0
3, 18248, Note_on_c, 0, 67, 70
3, 18258, Note_on_c, 0, 67, 0
3, 18261, Note_on_c, 0, 68, 70
3, 18269, Note_on_c, 0, 68, 0
3, 18271, Note_on_c, 0, 67, 70
3, 18278, Note_on_c, 0, 61, 70
3, 18279, Note_on_c, 0, 63, 0
3, 18279, Note_on_c, 0, 67, 0
3, 18280, Note_on_c, 0, 68, 70
3, 18286, Note_on_c, 0, 68, 0
3, 18288, Note_on_c, 0, 67, 70
3, 18310, Note_on_c, 0, 67, 0
3, 18312, Note_on_c, 0, 65, 70
3, 18320, Note_on_c, 0, 65, 0
3, 18321, Note_on_c, 0, 67, 70
3, 18339, Note_on_c, 0, 67, 0
3, 18344, Note_on_c, 0, 61, 0
3, 18344, Note_on_c, 0, 68, 70
3, 18345, Note_on_c, 0, 60, 70
3, 18408, Note_on_c, 0, 58, 70
3, 18411, Note_on_c, 0, 60, 0
3, 18469, Note_on_c, 0, 58, 0
3, 18470, Note_on_c, 0, 60, 70
3, 18560, Note_on_c, 0, 60, 0
3, 18560, Note_on_c, 0, 61, 70
3, 18590, Note_on_c, 0, 61, 0
3, 18592, Note_on_c, 0, 63, 70
3, 18606, Note_on_c, 0, 61, 70
3, 18607, Note_on_c, 0, 63, 0
3, 18618, Note_on_c, 0, 61, 0
3, 18621, Note_on_c, 0, 63, 70
3, 18630, Note_on_c, 0, 63, 0
3, 18630, Note_on_c, 0, 61, 70
3, 18639, Note_on_c, 0, 61, 0
3, 18641, Note_on_c, 0, 63, 70
3, 18649, Note_on_c, 0, 61, 70
3, 18651, Note_on_c, 0, 63, 0
3, 18665, Note_on_c, 0, 61, 0
3, 18666, Note_on_c, 0, 60, 70
3, 18682, Note_on_c, 0, 61, 70
3, 18687, Note_on_c, 0, 60, 0
3, 18707, Note_on_c, 0, 61, 0
3, 18711, Note_on_c, 0, 63, 70
3, 18769, Note_on_c, 0, 68, 0
3, 18771, Note_on_c, 0, 72, 70
3, 18829, Note_on_c, 0, 65, 70
3, 18830, Note_on_c, 0, 70, 70
3, 18833, Note_on_c, 0, 63, 0
3, 18833, Note_on_c, 0, 72, 0
3, 18889, Note_on_c, 0, 68, 70
3, 18891, Note_on_c, 0, 70, 0
3, 18946, Note_on_c, 0, 68, 0
3, 18947, Note_on_c, 0, 58, 70
3, 18948, Note_on_c, 0, 67, 70
3, 18954, Note_on_c, 0, 65, 0
3, 18989, Note_on_c, 0, 67, 0
3, 19011, Note_on_c, 0, 70, 70
3, 19071, Note_on_c, 0, 60, 70
3, 19072, Note_on_c, 0, 68, 70
3, 19075, Note_on_c, 0, 70, 0
3, 19077, Note_on_c, 0, 58, 0
3, 19131, Note_on_c, 0, 68, 0
3, 19133, Note_on_c, 0, 67, 70
3, 19192, Note_on_c, 0, 65, 70
3, 19193, Note_on_c, 0, 67, 0
3, 19254, Note_on_c, 0, 68, 70
3, 19256, Note_on_c, 0, 65, 0
3, 19313, Note_on_c, 0, 68, 0
3, 19313, Note_on_c, 0, 58, 70
3, 19314, Note_on_c, 0, 67, 70
3, 19316, Note_on_c, 0, 60, 0
3, 19379, Note_on_c, 0, 67, 0
3, 19379, Note_on_c, 0, 65, 70
3, 19443, Note_on_c, 0, 64, 70
3, 19445, Note_on_c, 0, 65, 0
3, 19500, Note_on_c, 0, 61, 70
3, 19503, Note_on_c, 0, 58, 0
3, 19562, Note_on_c, 0, 60, 70
3, 19564, Note_on_c, 0, 61, 0
3, 19568, Note_on_c, 0, 64, 0
3, 19618, Note_on_c, 0, 64, 70
3, 19619, Note_on_c, 0, 58, 70
3, 19624, Note_on_c, 0, 60, 0
3, 19679, Note_on_c, 0, 56, 70
3, 19680, Note_on_c, 0, 65, 70
3, 19682, Note_on_c, 0, 64, 0
3, 19682, Note_on_c, 0, 58, 0
3, 19737, Note_on_c, 0, 65, 0
3, 19737, Note_on_c, 0, 64, 70
3, 19738, Note_on_c, 0, 55, 70
3, 19740, Note_on_c, 0, 56, 0
3, 19796, Note_on_c, 0, 64, 0
3, 19797, Note_on_c, 0, 65, 70
3, 19797, Note_on_c, 0, 56, 70
3, 19800, Note_on_c, 0, 55, 0
3, 19854, Note_on_c, 0, 65, 0
3, 19855, Note_on_c, 0, 56, 0
3, 19855, Note_on_c, 0, 67, 70
3, 19856, Note_on_c, 0, 60, 70
3, 19914, Note_on_c, 0, 55, 70
3, 19915, Note_on_c, 0, 65, 70
3, 19917, Note_on_c, 0, 67, 0
3, 19918, Note_on_c, 0, 60, 0
3, 19946, Note_on_c, 0, 65, 0
3, 19946, Note_on_c, 0, 64, 70
3, 19959, Note_on_c, 0, 64, 0
3, 19963, Note_on_c, 0, 65, 70
3, 19971, Note_on_c, 0, 61, 70
3, 19972, Note_on_c, 0, 55, 0
3, 19974, Note_on_c, 0, 65, 0
3, 19975, Note_on_c, 0, 64, 70
3, 19985, Note_on_c, 0, 64, 0
3, 19988, Note_on_c, 0, 65, 70
3, 19997, Note_on_c, 0, 65, 0
3, 20000, Note_on_c, 0, 64, 70
3, 20007, Note_on_c, 0, 64, 0
3, 20009, Note_on_c, 0, 65, 70
3, 20018, Note_on_c, 0, 65, 0
3, 20020, Note_on_c, 0, 64, 70
3, 20027, Note_on_c, 0, 65, 70
3, 20027, Note_on_c, 0, 60, 70
3, 20028, Note_on_c, 0, 64, 0
3, 20029, Note_on_c, 0, 61, 0
3, 20036, Note_on_c, 0, 64, 70
3, 20038, Note_on_c, 0, 65, 0
3, 20044, Note_on_c, 0, 65, 70
3, 20045, Note_on_c, 0, 64, 0
3, 20051, Note_on_c, 0, 65, 0
3, 20052, Note_on_c, 0, 64, 70
3, 20058, Note_on_c, 0, 64, 0
3, 20058, Note_on_c, 0, 65, 70
3, 20074, Note_on_c, 0, 64, 70
3, 20079, Note_on_c, 0, 65, 0
3, 20081, Note_on_c, 0, 60, 0
3, 20081, Note_on_c, 0, 58, 70
3, 20097, Note_on_c, 0, 62, 70
3, 20099, Note_on_c, 0, 64, 0
3, 20116, Note_on_c, 0, 64, 70
3, 20118, Note_on_c, 0, 62, 0
3, 20137, Note_on_c, 0, 56, 70
3, 20137, Note_on_c, 0, 65, 70
3, 20139, Note_on_c, 0, 64, 0
3, 20140, Note_on_c, 0, 58, 0
3, 20201, Note_on_c, 0, 55, 70
3, 20202, Note_on_c, 0, 56, 0
3, 20266, Note_on_c, 0, 56, 70
3, 20269, Note_on_c, 0, 55, 0
3, 20329, Note_on_c, 0, 56, 0
3, 20329, Note_on_c, 0, 53, 70
3, 20338, Note_on_c, 0, 65, 0
3, 20387, Note_on_c, 0, 53, 0
3, 20388, Note_on_c, 0, 55, 70
3, 20448, Note_on_c, 0, 57, 70
3, 20453, Note_on_c, 0, 55, 0
3, 20510, Note_on_c, 0, 58, 70
3, 20512, Note_on_c, 0, 57, 0
3, 20573, Note_on_c, 0, 53, 70
3, 20574, Note_on_c, 0, 58, 0
3, 20639, Note_on_c, 0, 65, 70
3, 20639, Note_on_c, 0, 58, 70
3, 20644, Note_on_c, 0, 53, 0
3, 20726, Note_on_c, 0, 65, 0
3, 20726, Note_on_c, 0, 67, 70
3, 20759, Note_on_c, 0, 65, 70
3, 20761, Note_on_c, 0, 67, 0
3, 20789, Note_on_c, 0, 63, 70
3, 20792, Note_on_c, 0, 65, 0
3, 20815, Note_on_c, 0, 63, 0
3, 20818, Note_on_c, 0, 57, 70
3, 20818, Note_on_c, 0, 62, 70
3, 20821, Note_on_c, 0, 58, 0
3, 20846, Note_on_c, 0, 63, 70
3, 20847, Note_on_c, 0, 62, 0
3, 20877, Note_on_c, 0, 63, 0
3, 20880, Note_on_c, 0, 62, 70
3, 20881, Note_on_c, 0, 58, 70
3, 20885, Note_on_c, 0, 57, 0
3, 20995, Note_on_c, 0, 60, 70
3, 20996, Note_on_c, 0, 63, 70
3, 20998, Note_on_c, 0, 62, 0
3, 20999, Note_on_c, 0, 58, 0
3, 21113, Note_on_c, 0, 62, 70
3, 21114, Note_on_c, 0, 60, 0
3, 21114, Note_on_c, 0, 65, 70
3, 21115, Note_on_c, 0, 63, 0
3, 21232, Note_on_c, 0, 63, 70
3, 21233, Note_on_c, 0, 67, 70
3, 21237, Note_on_c, 0, 62, 0
3, 21237, Note_on_c, 0, 65, 0
3, 21317, Note_on_c, 0, 63, 0
3, 21319, Note_on_c, 0, 67, 0
3, 21359, Note_on_c, 0, 72, 70
3, 21360, Note_on_c, 0, 62, 70
3, 21476, Note_on_c, 0, 70, 70
3, 21477, Note_on_c, 0, 64, 70
3, 21480, Note_on_c, 0, 72, 0
3, 21481, Note_on_c, 0, 62, 0
3, 21578, Note_on_c, 0, 70, 0
3, 21587, Note_on_c, 0, 64, 0
3, 21591, Note_on_c, 0, 68, 70
3, 21593, Note_on_c, 0, 65, 70
3, 21650, Note_on_c, 0, 68, 0
3, 21652, Note_on_c, 0, 63, 70
3, 21653, Note_on_c, 0, 65, 0
3, 21654, Note_on_c, 0, 67, 70
3, 21680, Note_on_c, 0, 67, 0
3, 21681, Note_on_c, 0, 63, 0
3, 21712, Note_on_c, 0, 62, 70
3, 21712, Note_on_c, 0, 65, 70
3, 21775, Note_on_c, 0, 60, 70
3, 21776, Note_on_c, 0, 62, 0
3, 21837, Note_on_c, 0, 63, 70
3, 21837, Note_on_c, 0, 58, 70
3, 21838, Note_on_c, 0, 65, 0
3, 21839, Note_on_c, 0, 60, 0
3, 21897, Note_on_c, 0, 61, 70
3, 21898, Note_on_c, 0, 63, 0
3, 21957, Note_on_c, 0, 61, 0
3, 21958, Note_on_c, 0, 60, 70
3, 21979, Note_on_c, 0, 58, 0
3, 22015, Note_on_c, 0, 56, 70
3, 22074, Note_on_c, 0, 60, 0
3, 22076, Note_on_c, 0, 56, 0
3, 22077, Note_on_c, 0, 58, 70
3, 22078, Note_on_c, 0, 50, 70
3, 22189, Note_on_c, 0, 50, 0
3, 22190, Note_on_c, 0, 51, 70
3, 22244, Note_on_c, 0, 58, 0
3, 22252, Note_on_c, 0, 58, 70
3, 22313, Note_on_c, 0, 58, 0
3, 22313, Note_on_c, 0, 60, 70
3, 22407, Note_on_c, 0, 60, 0
3, 22435, Note_on_c, 0, 58, 70
3, 22500, Note_on_c, 0, 50, 70
3, 22511, Note_on_c, 0, 51, 0
3, 22555, Note_on_c, 0, 50, 0
3, 22555, Note_on_c, 0, 48, 70
3, 22608, Note_on_c, 0, 51, 70
3, 22611, Note_on_c, 0, 48, 0
3, 22666, Note_on_c, 0, 51, 0
3, 22674, Note_on_c, 0, 51, 70
3, 22698, Note_on_c, 0, 58, 0
3, 22734, Note_on_c, 0, 60, 70
3, 22763, Note_on_c, 0, 60, 0
3, 22794, Note_on_c, 0, 61, 70
3, 22817, Note_on_c, 0, 51, 0
3, 22851, Note_on_c, 0, 58, 70
3, 22879, Note_on_c, 0, 61, 0
3, 22914, Note_on_c, 0, 60, 70
3, 22974, Note_on_c, 0, 56, 70
3, 22975, Note_on_c, 0, 58, 0
3, 23026, Note_on_c, 0, 60, 0
3, 23034, Note_on_c, 0, 58, 70
3, 23089, Note_on_c, 0, 56, 0
3, 23090, Note_on_c, 0, 55, 70
3, 23115, Note_on_c, 0, 58, 0
3, 23149, Note_on_c, 0, 56, 70
3, 23158, Note_on_c, 0, 55, 0
3, 23210, Note_on_c, 0, 53, 70
3, 23245, Note_on_c, 0, 53, 0
3, 23273, Note_on_c, 0, 51, 70
3, 23330, Note_on_c, 0, 56, 0
3, 23334, Note_on_c, 0, 55, 70
3, 23395, Note_on_c, 0, 56, 70
3, 23396, Note_on_c, 0, 55, 0
3, 23412, Note_on_c, 0, 51, 0
3, 23418, Note_on_c, 0, 56, 0
3, 23455, Note_on_c, 0, 58, 70
3, 23456, Note_on_c, 0, 55, 70
3, 23509, Note_on_c, 0, 58, 0
3, 23509, Note_on_c, 0, 55, 0
3, 23510, Note_on_c, 0, 56, 70
3, 23512, Note_on_c, 0, 60, 70
3, 23571, Note_on_c, 0, 61, 70
3, 23571, Note_on_c, 0, 58, 70
3, 23577, Note_on_c, 0, 56, 0
3, 23577, Note_on_c, 0, 60, 0
3, 23601, Note_on_c, 0, 61, 0
3, 23608, Note_on_c, 0, 58, 0
3, 23634, Note_on_c, 0, 60, 70
3, 23634, Note_on_c, 0, 63, 70
3, 23696, Note_on_c, 0, 56, 70
3, 23701, Note_on_c, 0, 60, 0
3, 23758, Note_on_c, 0, 56, 0
3, 23758, Note_on_c, 0, 53, 70
3, 23762, Note_on_c, 0, 63, 0
3, 23816, Note_on_c, 0, 65, 70
3, 23870, Note_on_c, 0, 65, 0
3, 23874, Note_on_c, 0, 55, 70
3, 23876, Note_on_c, 0, 63, 70
3, 23879, Note_on_c, 0, 53, 0
3, 23891, Note_on_c, 0, 63, 0
3, 23892, Note_on_c, 0, 61, 70
3, 23902, Note_on_c, 0, 61, 0
3, 23904, Note_on_c, 0, 63, 70
3, 23915, Note_on_c, 0, 63, 0
3, 23917, Note_on_c, 0, 61, 70
3, 23926, Note_on_c, 0, 61, 0
3, 23927, Note_on_c, 0, 63, 70
3, 23933, Note_on_c, 0, 56, 70
3, 23935, Note_on_c, 0, 55, 0
3, 23937, Note_on_c, 0, 63, 0
3, 23940, Note_on_c, 0, 61, 70
3, 23947, Note_on_c, 0, 61, 0
3, 23949, Note_on_c, 0, 63, 70
3, 23958, Note_on_c, 0, 63, 0
3, 23960, Note_on_c, 0, 61, 70
3, 23967, Note_on_c, 0, 61, 0
3, 23969, Note_on_c, 0, 63, 70
3, 23976, Note_on_c, 0, 63, 0
3, 23980, Note_on_c, 0, 63, 70
3, 23986, Note_on_c, 0, 61, 70
3, 23987, Note_on_c, 0, 58, 70
3, 23989, Note_on_c, 0, 63, 0
3, 23990, Note_on_c, 0, 56, 0
3, 24043, Note_on_c, 0, 61, 0
3, 24044, Note_on_c, 0, 60, 70
3, 24075, Note_on_c, 0, 61, 70
3, 24078, Note_on_c, 0, 60, 0
3, 24106, Note_on_c, 0, 61, 0
3, 24108, Note_on_c, 0, 60, 70
3, 24119, Note_on_c, 0, 58, 0
3, 24170, Note_on_c, 0, 58, 70
3, 24229, Note_on_c, 0, 56, 70
3, 24234, Note_on_c, 0, 58, 0
3, 24292, Note_on_c, 0, 58, 70
3, 24293, Note_on_c, 0, 60, 0
3, 24293, Note_on_c, 0, 55, 70
3, 24294, Note_on_c, 0, 56, 0
3, 24352, Note_on_c, 0, 56, 70
3, 24353, Note_on_c, 0, 58, 0
3, 24353, Note_on_c, 0, 60, 70
3, 24354, Note_on_c, 0, 55, 0
3, 24417, Note_on_c, 0, 53, 70
3, 24418, Note_on_c, 0, 61, 70
3, 24419, Note_on_c, 0, 60, 0
3, 24420, Note_on_c, 0, 56, 0
3, 24483, Note_on_c, 0, 55, 70
3, 24483, Note_on_c, 0, 58, 70
3, 24485, Note_on_c, 0, 61, 0
3, 24490, Note_on_c, 0, 53, 0
3, 24597, Note_on_c, 0, 58, 0
3, 24599, Note_on_c, 0, 55, 0
3, 24675, Note_on_c, 0, 58, 70
3, 24728, Note_on_c, 0, 58, 0
3, 24728, Note_on_c, 0, 60, 70
3, 24780, Note_on_c, 0, 62, 70
3, 24783, Note_on_c, 0, 60, 0
3, 24837, Note_on_c, 0, 63, 70
3, 24839, Note_on_c, 0, 62, 0
3, 24893, Note_on_c, 0, 62, 70
3, 24899, Note_on_c, 0, 63, 0
3, 24938, Note_on_c, 0, 62, 0
3, 24951, Note_on_c, 0, 63, 70
3, 25013, Note_on_c, 0, 55, 70
3, 25078, Note_on_c, 0, 57, 70
3, 25083, Note_on_c, 0, 55, 0
3, 25136, Note_on_c, 0, 58, 70
3, 25141, Note_on_c, 0, 57, 0
3, 25195, Note_on_c, 0, 58, 0
3, 25196, Note_on_c, 0, 60, 70
3, 25253, Note_on_c, 0, 63, 0
3, 25254, Note_on_c, 0, 62, 70
3, 25254, Note_on_c, 0, 58, 70
3, 25255, Note_on_c, 0, 60, 0
3, 25316, Note_on_c, 0, 63, 70
3, 25317, Note_on_c, 0, 62, 0
3, 25317, Note_on_c, 0, 60, 70
3, 25320, Note_on_c, 0, 58, 0
3, 25359, Note_on_c, 0, 63, 0
3, 25374, Note_on_c, 0, 67, 70
3, 25435, Note_on_c, 0, 65, 70
3, 25436, Note_on_c, 0, 67, 0
3, 25495, Note_on_c, 0, 63, 70
3, 25500, Note_on_c, 0, 65, 0
3, 25555, Note_on_c, 0, 62, 70
3, 25557, Note_on_c, 0, 63, 0
3, 25616, Note_on_c, 0, 63, 70
3, 25617, Note_on_c, 0, 62, 0
3, 25625, Note_on_c, 0, 60, 0
3, 25675, Note_on_c, 0, 63, 0
3, 25675, Note_on_c, 0, 62, 70
3, 25675, Note_on_c, 0, 58, 70
3, 25731, Note_on_c, 0, 58, 0
3, 25731, Note_on_c, 0, 60, 70
3, 25732, Note_on_c, 0, 63, 70
3, 25734, Note_on_c, 0, 62, 0
3, 25792, Note_on_c, 0, 65, 70
3, 25792, Note_on_c, 0, 58, 70
3, 25793, Note_on_c, 0, 63, 0
3, 25795, Note_on_c, 0, 60, 0
3, 25851, Note_on_c, 0, 56, 70
3, 25852, Note_on_c, 0, 58, 0
3, 25908, Note_on_c, 0, 55, 70
3, 25928, Note_on_c, 0, 56, 0
3, 25970, Note_on_c, 0, 57, 70
3, 25973, Note_on_c, 0, 55, 0
3, 26031, Note_on_c, 0, 55, 70
3, 26032, Note_on_c, 0, 63, 70
3, 26033, Note_on_c, 0, 65, 0
3, 26034, Note_on_c, 0, 57, 0
3, 26091, Note_on_c, 0, 57, 70
3, 26093, Note_on_c, 0, 65, 70
3, 26094, Note_on_c, 0, 63, 0
3, 26097, Note_on_c, 0, 55, 0
3, 26158, Note_on_c, 0, 63, 70
3, 26159, Note_on_c, 0, 58, 70
3, 26162, Note_on_c, 0, 65, 0
3, 26163, Note_on_c, 0, 57, 0
3, 26216, Note_on_c, 0, 63, 0
3, 26216, Note_on_c, 0, 62, 70
3, 26277, Note_on_c, 0, 62, 0
3, 26277, Note_on_c, 0, 60, 70
3, 26337, Note_on_c, 0, 62, 70
3, 26341, Note_on_c, 0, 60, 0
3, 26370, Note_on_c, 0, 62, 0
3, 26396, Note_on_c, 0, 60, 70
3, 26453, Note_on_c, 0, 60, 0
3, 26453, Note_on_c, 0, 62, 70
3, 26509, Note_on_c, 0, 62, 0
3, 26511, Note_on_c, 0, 57, 70
3, 26511, Note_on_c, 0, 63, 70
3, 26514, Note_on_c, 0, 58, 0
3, 26574, Note_on_c, 0, 63, 0
3, 26574, Note_on_c, 0, 65, 70
3, 26625, Note_on_c, 0, 65, 0
3, 26636, Note_on_c, 0, 62, 70
3, 26637, Note_on_c, 0, 57, 0
3, 26699, Note_on_c, 0, 58, 70
3, 26722, Note_on_c, 0, 62, 0
3, 26759, Note_on_c, 0, 58, 0
3, 26759, Note_on_c, 0, 56, 70
3, 26759, Note_on_c, 0, 63, 70
3, 26813, Note_on_c, 0, 55, 70
3, 26816, Note_on_c, 0, 56, 0
3, 26872, Note_on_c, 0, 65, 70
3, 26875, Note_on_c, 0, 55, 0
3, 26875, Note_on_c, 0, 53, 70
3, 26877, Note_on_c, 0, 63, 0
3, 26933, Note_on_c, 0, 56, 70
3, 26936, Note_on_c, 0, 53, 0
3, 26994, Note_on_c, 0, 55, 70
3, 26996, Note_on_c, 0, 56, 0
3, 27054, Note_on_c, 0, 63, 70
3, 27055, Note_on_c, 0, 65, 0
3, 27055, Note_on_c, 0, 60, 70
3, 27056, Note_on_c, 0, 55, 0
3, 27114, Note_on_c, 0, 63, 0
3, 27114, Note_on_c, 0, 58, 70
3, 27115, Note_on_c, 0, 60, 0
3, 27115, Note_on_c, 0, 62, 70
3, 27153, Note_on_c, 0, 62, 0
3, 27176, Note_on_c, 0, 56, 70
3, 27177, Note_on_c, 0, 65, 70
3, 27178, Note_on_c, 0, 58, 0
3, 27236, Note_on_c, 0, 55, 70
3, 27237, Note_on_c, 0, 56, 0
3, 27238, Note_on_c, 0, 63, 70
3, 27239, Note_on_c, 0, 65, 0
3, 27293, Note_on_c, 0, 58, 70
3, 27294, Note_on_c, 0, 55, 0
3, 27294, Note_on_c, 0, 63, 0
3, 27295, Note_on_c, 0, 67, 70
3, 27352, Note_on_c, 0, 58, 0
3, 27354, Note_on_c, 0, 65, 70
3, 27354, Note_on_c, 0, 57, 70
3, 27356, Note_on_c, 0, 67, 0
3, 27417, Note_on_c, 0, 59, 70
3, 27419, Note_on_c, 0, 57, 0
3, 27467, Note_on_c, 0, 59, 0
3, 27478, Note_on_c, 0, 60, 70
3, 27495, Note_on_c, 0, 60, 0
3, 27495, Note_on_c, 0, 59, 70
3, 27506, Note_on_c, 0, 59, 0
3, 27509, Note_on_c, 0, 60, 70
3, 27518, Note_on_c, 0, 60, 0
3, 27519, Note_on_c, 0, 59, 70
3, 27528, Note_on_c, 0, 59, 0
3, 27530, Note_on_c, 0, 60, 70
3, 27540, Note_on_c, 0, 60, 0
3, 27540, Note_on_c, 0, 59, 70
3, 27549, Note_on_c, 0, 59, 0
3, 27551, Note_on_c, 0, 60, 70
3, 27561, Note_on_c, 0, 60, 0
3, 27561, Note_on_c, 0, 59, 70
3, 27571, Note_on_c, 0, 59, 0
3, 27574, Note_on_c, 0, 60, 70
3, 27583, Note_on_c, 0, 60, 0
3, 27583, Note_on_c, 0, 59, 70
3, 27591, Note_on_c, 0, 59, 0
3, 27594, Note_on_c, 0, 60, 70
3, 27601, Note_on_c, 0, 59, 70
3, 27602, Note_on_c, 0, 60, 0
3, 27608, Note_on_c, 0, 60, 70
3, 27609, Note_on_c, 0, 59, 0
3, 27616, Note_on_c, 0, 59, 70
3, 27619, Note_on_c, 0, 60, 0
3, 27656, Note_on_c, 0, 57, 70
3, 27657, Note_on_c, 0, 59, 0
3, 27685, Note_on_c, 0, 59, 70
3, 27688, Note_on_c, 0, 57, 0
3, 27712, Note_on_c, 0, 65, 0
3, 27718, Note_on_c, 0, 60, 70
3, 27720, Note_on_c, 0, 59, 0
3, 27777, Note_on_c, 0, 62, 70
3, 27835, Note_on_c, 0, 63, 70
3, 27842, Note_on_c, 0, 62, 0
3, 27894, Note_on_c, 0, 63, 0
3, 27895, Note_on_c, 0, 65, 70
3, 27954, Note_on_c, 0, 67, 70
3, 27955, Note_on_c, 0, 65, 0
3, 28013, Note_on_c, 0, 58, 70
3, 28018, Note_on_c, 0, 60, 0
3, 28074, Note_on_c, 0, 57, 70
3, 28076, Note_on_c, 0, 58, 0
3, 28081, Note_on_c, 0, 67, 0
3, 28133, Note_on_c, 0, 67, 70
3, 28188, Note_on_c, 0, 67, 0
3, 28194, Note_on_c, 0, 65, 70
3, 28253, Note_on_c, 0, 63, 70
3, 28256, Note_on_c, 0, 65, 0
3, 28309, Note_on_c, 0, 62, 70
3, 28310, Note_on_c, 0, 63, 0
3, 28327, Note_on_c, 0, 57, 0
3, 28371, Note_on_c, 0, 57, 70
3, 28433, Note_on_c, 0, 55, 70
3, 28435, Note_on_c, 0, 57, 0
3, 28493, Note_on_c, 0, 57, 70
3, 28498, Note_on_c, 0, 55, 0
3, 28554, Note_on_c, 0, 55, 70
3, 28556, Note_on_c, 0, 57, 0
3, 28607, Note_on_c, 0, 55, 0
3, 28611, Note_on_c, 0, 57, 70
3, 28669, Note_on_c, 0, 59, 70
3, 28670, Note_on_c, 0, 62, 0
3, 28670, Note_on_c, 0, 57, 0
3, 28733, Note_on_c, 0, 65, 70
3, 28791, Note_on_c, 0, 65, 0
3, 28793, Note_on_c, 0, 67, 70
3, 28853, Note_on_c, 0, 65, 70
3, 28855, Note_on_c, 0, 67, 0
3, 28914, Note_on_c, 0, 63, 70
3, 28916, Note_on_c, 0, 65, 0
3, 28973, Note_on_c, 0, 62, 70
3, 28974, Note_on_c, 0, 63, 0
3, 28976, Note_on_c, 0, 59, 0
3, 29034, Note_on_c, 0, 57, 70
3, 29035, Note_on_c, 0, 60, 70
3, 29038, Note_on_c, 0, 62, 0
3, 29088, Note_on_c, 0, 60, 0
3, 29095, Note_on_c, 0, 63, 70
3, 29141, Note_on_c, 0, 63, 0
3, 29153, Note_on_c, 0, 62, 70
3, 29154, Note_on_c, 0, 58, 70
3, 29157, Note_on_c, 0, 57, 0
3, 29216, Note_on_c, 0, 70, 70
3, 29218, Note_on_c, 0, 62, 0
3, 29276, Note_on_c, 0, 68, 70
3, 29277, Note_on_c, 0, 70, 0
3, 29333, Note_on_c, 0, 68, 0
3, 29335, Note_on_c, 0, 67, 70
3, 29396, Note_on_c, 0, 67, 0
3, 29397, Note_on_c, 0, 65, 70
3, 29438, Note_on_c, 0, 65, 0
3, 29455, Note_on_c, 0, 68, 70
3, 29498, Note_on_c, 0, 58, 0
3, 29510, Note_on_c, 0, 68, 0
3, 29512, Note_on_c, 0, 67, 70
3, 29574, Note_on_c, 0, 63, 70
3, 29635, Note_on_c, 0, 68, 70
3, 29636, Note_on_c, 0, 63, 0
3, 29636, Note_on_c, 0, 61, 70
3, 29639, Note_on_c, 0, 67, 0
3, 29693, Note_on_c, 0, 61, 0
3, 29695, Note_on_c, 0, 60, 70
3, 29754, Note_on_c, 0, 68, 0
3, 29754, Note_on_c, 0, 70, 70
3, 29755, Note_on_c, 0, 58, 70
3, 29756, Note_on_c, 0, 60, 0
3, 29814, Note_on_c, 0, 61, 70
3, 29816, Note_on_c, 0, 58, 0
3, 29875, Note_on_c, 0, 60, 70
3, 29877, Note_on_c, 0, 61, 0
3, 29901, Note_on_c, 0, 70, 0
3, 29937, Note_on_c, 0, 60, 0
3, 29937, Note_on_c, 0, 70, 70
3, 29937, Note_on_c, 0, 61, 70
3, 29996, Note_on_c, 0, 61, 0
3, 29997, Note_on_c, 0, 60, 70
3, 29997, Note_on_c, 0, 68, 70
3, 30001, Note_on_c, 0, 70, 0
3, 30052, Note_on_c, 0, 58, 70
3, 30053, Note_on_c, 0, 68, 0
3, 30053, Note_on_c, 0, 67, 70
3, 30055, Note_on_c, 0, 60, 0
3, 30111, Note_on_c, 0, 56, 70
3, 30112, Note_on_c, 0, 58, 0
3, 30112, Note_on_c, 0, 67, 0
3, 30113, Note_on_c, 0, 65, 70
3, 30165, Note_on_c, 0, 65, 0
3, 30167, Note_on_c, 0, 56, 0
3, 30168, Note_on_c, 0, 68, 70
3, 30169, Note_on_c, 0, 60, 70
3, 30212, Note_on_c, 0, 60, 0
3, 30224, Note_on_c, 0, 68, 0
3, 30228, Note_on_c, 0, 62, 70
3, 30228, Note_on_c, 0, 53, 70
3, 30311, Note_on_c, 0, 53, 0
3, 30349, Note_on_c, 0, 62, 0
3, 30349, Note_on_c, 0, 55, 70
3, 30350, Note_on_c, 0, 63, 70
3, 30403, Note_on_c, 0, 55, 0
3, 30413, Note_on_c, 0, 56, 70
3, 30414, Note_on_c, 0, 65, 70
3, 30415, Note_on_c, 0, 63, 0
3, 30465, Note_on_c, 0, 65, 0
3, 30472, Note_on_c, 0, 56, 0
3, 30474, Note_on_c, 0, 58, 70
3, 30475, Note_on_c, 0, 67, 70
3, 30600, Note_on_c, 0, 58, 0
3, 30601, Note_on_c, 0, 67, 0
3, 30652, Note_on_c, 0, 67, 70
3, 30652, Note_on_c, 0, 58, 70
3, 30694, Note_on_c, 0, 67, 0
3, 30712, Note_on_c, 0, 56, 70
3, 30713, Note_on_c, 0, 65, 70
3, 30716, Note_on_c, 0, 58, 0
3, 30771, Note_on_c, 0, 56, 0
3, 30771, Note_on_c, 0, 63, 70
3, 30772, Note_on_c, 0, 55, 70
3, 30775, Note_on_c, 0, 65, 0
3, 30798, Note_on_c, 0, 55, 0
3, 30827, Note_on_c, 0, 63, 0
3, 30828, Note_on_c, 0, 62, 70
3, 30828, Note_on_c, 0, 53, 70
3, 30855, Note_on_c, 0, 62, 0
3, 30883, Note_on_c, 0, 53, 0
3, 30890, Note_on_c, 0, 56, 70
3, 30891, Note_on_c, 0, 65, 70
3, 30915, Note_on_c, 0, 65, 0
3, 30952, Note_on_c, 0, 56, 0
3, 30953, Note_on_c, 0, 55, 70
3, 30954, Note_on_c, 0, 63, 70
3, 31012, Note_on_c, 0, 60, 70
3, 31013, Note_on_c, 0, 55, 0
3, 31054, Note_on_c, 0, 63, 0
3, 31071, Note_on_c, 0, 58, 70
3, 31071, Note_on_c, 0, 65, 70
3, 31076, Note_on_c, 0, 60, 0
3, 31134, Note_on_c, 0, 56, 70
3, 31136, Note_on_c, 0, 58, 0
3, 31173, Note_on_c, 0, 65, 0
3, 31177, Note_on_c, 0, 56, 0
3, 31192, Note_on_c, 0, 55, 70
3, 31193, Note_on_c, 0, 67, 70
3, 31253, Note_on_c, 0, 58, 70
3, 31257, Note_on_c, 0, 55, 0
3, 31304, Note_on_c, 0, 67, 0
3, 31305, Note_on_c, 0, 58, 0
3, 31321, Note_on_c, 0, 57, 70
3, 31322, Note_on_c, 0, 60, 70
3, 31432, Note_on_c, 0, 58, 70
3, 31433, Note_on_c, 0, 62, 70
3, 31435, Note_on_c, 0, 60, 0
3, 31436, Note_on_c, 0, 57, 0
3, 31546, Note_on_c, 0, 63, 70
3, 31547, Note_on_c, 0, 60, 70
3, 31550, Note_on_c, 0, 58, 0
3, 31551, Note_on_c, 0, 62, 0
3, 31802, Note_on_c, 0, 63, 0
3, 31802, Note_on_c, 0, 58, 70
3, 31802, Note_on_c, 0, 64, 70
3, 31804, Note_on_c, 0, 60, 0
3, 31858, Note_on_c, 0, 60, 70
3, 31862, Note_on_c, 0, 58, 0
3, 31919, Note_on_c, 0, 61, 70
3, 31921, Note_on_c, 0, 60, 0
3, 31938, Note_on_c, 0, 64, 0
3, 31971, Note_on_c, 0, 64, 70
3, 32013, Note_on_c, 0, 64, 0
3, 32034, Note_on_c, 0, 65, 70
3, 32100, Note_on_c, 0, 58, 70
3, 32104, Note_on_c, 0, 61, 0
3, 32213, Note_on_c, 0, 57, 70
3, 32214, Note_on_c, 0, 58, 0
3, 32271, Note_on_c, 0, 55, 70
3, 32275, Note_on_c, 0, 57, 0
3, 32333, Note_on_c, 0, 57, 70
3, 32338, Note_on_c, 0, 55, 0
3, 32389, Note_on_c, 0, 58, 70
3, 32393, Note_on_c, 0, 57, 0
3, 32409, Note_on_c, 0, 65, 0
3, 32453, Note_on_c, 0, 62, 70
3, 32507, Note_on_c, 0, 63, 70
3, 32510, Note_on_c, 0, 62, 0
3, 32565, Note_on_c, 0, 63, 0
3, 32566, Note_on_c, 0, 65, 70
3, 32623, Note_on_c, 0, 65, 0
3, 32623, Note_on_c, 0, 67, 70
3, 32687, Note_on_c, 0, 68, 70
3, 32691, Note_on_c, 0, 67, 0
3, 32750, Note_on_c, 0, 67, 70
3, 32751, Note_on_c, 0, 68, 0
3, 32775, Note_on_c, 0, 58, 0
3, 32814, Note_on_c, 0, 55, 70
3, 32874, Note_on_c, 0, 56, 70
3, 32880, Note_on_c, 0, 55, 0
3, 32930, Note_on_c, 0, 56, 0
3, 32930, Note_on_c, 0, 58, 70
3, 32988, Note_on_c, 0, 58, 0
3, 32988, Note_on_c, 0, 60, 70
3, 33050, Note_on_c, 0, 61, 70
3, 33053, Note_on_c, 0, 60, 0
3, 33083, Note_on_c, 0, 61, 0
3, 33111, Note_on_c, 0, 60, 70
3, 33174, Note_on_c, 0, 67, 0
3, 33175, Note_on_c, 0, 64, 70
3, 33235, Note_on_c, 0, 64, 0
3, 33235, Note_on_c, 0, 65, 70
3, 33294, Note_on_c, 0, 65, 0
3, 33294, Note_on_c, 0, 67, 70
3, 33352, Note_on_c, 0, 68, 70
3, 33355, Note_on_c, 0, 67, 0
3, 33414, Note_on_c, 0, 68, 0
3, 33415, Note_on_c, 0, 70, 70
3, 33472, Note_on_c, 0, 68, 70
3, 33475, Note_on_c, 0, 70, 0
3, 33534, Note_on_c, 0, 56, 70
3, 33538, Note_on_c, 0, 60, 0
3, 33593, Note_on_c, 0, 58, 70
3, 33597, Note_on_c, 0, 56, 0
3, 33651, Note_on_c, 0, 58, 0
3, 33652, Note_on_c, 0, 60, 70
3, 33712, Note_on_c, 0, 61, 70
3, 33716, Note_on_c, 0, 60, 0
3, 33771, Note_on_c, 0, 61, 0
3, 33771, Note_on_c, 0, 63, 70
3, 33833, Note_on_c, 0, 61, 70
3, 33835, Note_on_c, 0, 63, 0
3, 33896, Note_on_c, 0, 68, 0
3, 33898, Note_on_c, 0, 72, 70
3, 33955, Note_on_c, 0, 70, 70
3, 33960, Note_on_c, 0, 72, 0
3, 34015, Note_on_c, 0, 68, 70
3, 34016, Note_on_c, 0, 70, 0
3, 34073, Note_on_c, 0, 68, 0
3, 34074, Note_on_c, 0, 67, 70
3, 34132, Note_on_c, 0, 67, 0
3, 34132, Note_on_c, 0, 65, 70
3, 34170, Note_on_c, 0, 65, 0
3, 34194, Note_on_c, 0, 64, 70
3, 34201, Note_on_c, 0, 61, 0
3, 34260, Note_on_c, 0, 61, 70
3, 34316, Note_on_c, 0, 61, 0
3, 34317, Note_on_c, 0, 60, 70
3, 34317, Note_on_c, 0, 65, 70
3, 34320, Note_on_c, 0, 64, 0
3, 34371, Note_on_c, 0, 58, 70
3, 34375, Note_on_c, 0, 60, 0
3, 34431, Note_on_c, 0, 56, 70
3, 34432, Note_on_c, 0, 65, 0
3, 34432, Note_on_c, 0, 67, 70
3, 34436, Note_on_c, 0, 58, 0
3, 34491, Note_on_c, 0, 55, 70
3, 34493, Note_on_c, 0, 56, 0
3, 34557, Note_on_c, 0, 56, 70
3, 34563, Note_on_c, 0, 55, 0
3, 34589, Note_on_c, 0, 67, 0
3, 34616, Note_on_c, 0, 70, 70
3, 34676, Note_on_c, 0, 68, 70
3, 34677, Note_on_c, 0, 70, 0
3, 34734, Note_on_c, 0, 68, 0
3, 34736, Note_on_c, 0, 67, 70
3, 34793, Note_on_c, 0, 67, 0
3, 34793, Note_on_c, 0, 65, 70
3, 34854, Note_on_c, 0, 63, 70
3, 34855, Note_on_c, 0, 65, 0
3, 34918, Note_on_c, 0, 63, 0
3, 34918, Note_on_c, 0, 61, 70
3, 34980, Note_on_c, 0, 65, 70
3, 34982, Note_on_c, 0, 61, 0
3, 35017, Note_on_c, 0, 56, 0
3, 35043, Note_on_c, 0, 63, 70
3, 35046, Note_on_c, 0, 56, 70
3, 35047, Note_on_c, 0, 65, 0
3, 35068, Note_on_c, 0, 55, 70
3, 35069, Note_on_c, 0, 56, 0
3, 35083, Note_on_c, 0, 55, 0
3, 35085, Note_on_c, 0, 56, 70
3, 35095, Note_on_c, 0, 61, 70
3, 35097, Note_on_c, 0, 63, 0
3, 35098, Note_on_c, 0, 56, 0
3, 35099, Note_on_c, 0, 55, 70
3, 35113, Note_on_c, 0, 55, 0
3, 35115, Note_on_c, 0, 56, 70
3, 35126, Note_on_c, 0, 56, 0
3, 35126, Note_on_c, 0, 55, 70
3, 35137, Note_on_c, 0, 55, 0
3, 35139, Note_on_c, 0, 56, 70
3, 35148, Note_on_c, 0, 56, 0
3, 35148, Note_on_c, 0, 55, 70
3, 35151, Note_on_c, 0, 60, 70
3, 35153, Note_on_c, 0, 61, 0
3, 35160, Note_on_c, 0, 55, 0
3, 35161, Note_on_c, 0, 56, 70
3, 35171, Note_on_c, 0, 56, 0
3, 35172, Note_on_c, 0, 55, 70
3, 35181, Note_on_c, 0, 55, 0
3, 35182, Note_on_c, 0, 56, 70
3, 35191, Note_on_c, 0, 56, 0
3, 35191, Note_on_c, 0, 55, 70
3, 35201, Note_on_c, 0, 58, 70
3, 35205, Note_on_c, 0, 60, 0
3, 35208, Note_on_c, 0, 53, 70
3, 35209, Note_on_c, 0, 55, 0
3, 35233, Note_on_c, 0, 55, 70
3, 35239, Note_on_c, 0, 53, 0
3, 35261, Note_on_c, 0, 58, 0
3, 35265, Note_on_c, 0, 55, 0
3, 35265, Note_on_c, 0, 60, 70
3, 35265, Note_on_c, 0, 56, 70
3, 35326, Note_on_c, 0, 56, 0
3, 35326, Note_on_c, 0, 58, 70
3, 35326, Note_on_c, 0, 61, 70
3, 35328, Note_on_c, 0, 60, 0
3, 35382, Note_on_c, 0, 61, 0
3, 35382, Note_on_c, 0, 63, 70
3, 35383, Note_on_c, 0, 58, 0
3, 35383, Note_on_c, 0, 60, 70
3, 35439, Note_on_c, 0, 60, 0
3, 35443, Note_on_c, 0, 65, 70
3, 35443, Note_on_c, 0, 62, 70
3, 35445, Note_on_c, 0, 63, 0
3, 35500, Note_on_c, 0, 63, 70
3, 35501, Note_on_c, 0, 65, 0
3, 35501, Note_on_c, 0, 67, 70
3, 35510, Note_on_c, 0, 62, 0
3, 35530, Note_on_c, 0, 63, 0
3, 35562, Note_on_c, 0, 68, 70
3, 35563, Note_on_c, 0, 67, 0
3, 35563, Note_on_c, 0, 65, 70
3, 35585, Note_on_c, 0, 68, 0
3, 35586, Note_on_c, 0, 65, 0
3, 35626, Note_on_c, 0, 58, 70
3, 35627, Note_on_c, 0, 62, 70
3, 35751, Note_on_c, 0, 53, 70
3, 35753, Note_on_c, 0, 58, 0
3, 35873, Note_on_c, 0, 61, 70
3, 35874, Note_on_c, 0, 58, 70
3, 35878, Note_on_c, 0, 62, 0
3, 35879, Note_on_c, 0, 53, 0
3, 36063, Note_on_c, 0, 58, 0
3, 36098, Note_on_c, 0, 61, 0
3, 36117, Note_on_c, 0, 55, 70
3, 36118, Note_on_c, 0, 52, 70
3, 36237, Note_on_c, 0, 60, 70
3, 36238, Note_on_c, 0, 55, 0
3, 36323, Note_on_c, 0, 52, 0
3, 36359, Note_on_c, 0, 53, 70
3, 36420, Note_on_c, 0, 55, 70
3, 36422, Note_on_c, 0, 53, 0
3, 36479, Note_on_c, 0, 56, 70
3, 36480, Note_on_c, 0, 60, 0
3, 36484, Note_on_c, 0, 55, 0
3, 36534, Note_on_c, 0, 58, 70
3, 36538, Note_on_c, 0, 56, 0
3, 36592, Note_on_c, 0, 60, 70
3, 36593, Note_on_c, 0, 58, 0
3, 36649, Note_on_c, 0, 53, 70
3, 36654, Note_on_c, 0, 60, 0
3, 36713, Note_on_c, 0, 61, 70
3, 36714, Note_on_c, 0, 53, 0
3, 36765, Note_on_c, 0, 61, 0
3, 36770, Note_on_c, 0, 53, 70
3, 36832, Note_on_c, 0, 52, 70
3, 36833, Note_on_c, 0, 53, 0
3, 36893, Note_on_c, 0, 52, 0
3, 36893, Note_on_c, 0, 58, 70
3, 36956, Note_on_c, 0, 56, 70
3, 36960, Note_on_c, 0, 58, 0
3, 37017, Note_on_c, 0, 52, 70
3, 37019, Note_on_c, 0, 56, 0
3, 37078, Note_on_c, 0, 52, 0
3, 37079, Note_on_c, 0, 53, 70
3, 37140, Note_on_c, 0, 60, 70
3, 37200, Note_on_c, 0, 61, 70
3, 37201, Note_on_c, 0, 60, 0
3, 37256, Note_on_c, 0, 60, 70
3, 37257, Note_on_c, 0, 61, 0
3, 37271, Note_on_c, 0, 53, 0
3, 37315, Note_on_c, 0, 60, 0
3, 37318, Note_on_c, 0, 58, 70
3, 37318, Note_on_c, 0, 52, 70
3, 37377, Note_on_c, 0, 60, 70
3, 37380, Note_on_c, 0, 58, 0
3, 37391, Note_on_c, 0, 52, 0
3, 37434, Note_on_c, 0, 60, 0
3, 37438, Note_on_c, 0, 57, 70
3, 37439, Note_on_c, 0, 53, 70
3, 37482, Note_on_c, 0, 57, 0
3, 37504, Note_on_c, 0, 65, 70
3, 37527, Note_on_c, 0, 53, 0
3, 37564, Note_on_c, 0, 55, 70
3, 37589, Note_on_c, 0, 65, 0
3, 37620, Note_on_c, 0, 63, 70
3, 37656, Note_on_c, 0, 63, 0
3, 37680, Note_on_c, 0, 55, 0
3, 37681, Note_on_c, 0, 61, 70
3, 37681, Note_on_c, 0, 56, 70
3, 37733, Note_on_c, 0, 61, 0
3, 37735, Note_on_c, 0, 60, 70
3, 37795, Note_on_c, 0, 60, 0
3, 37796, Note_on_c, 0, 61, 70
3, 37797, Note_on_c, 0, 58, 70
3, 37802, Note_on_c, 0, 56, 0
3, 37837, Note_on_c, 0, 61, 0
3, 37858, Note_on_c, 0, 65, 70
3, 37899, Note_on_c, 0, 65, 0
3, 37918, Note_on_c, 0, 70, 70
3, 37922, Note_on_c, 0, 58, 0
3, 37952, Note_on_c, 0, 70, 0
3, 37975, Note_on_c, 0, 60, 70
3, 37976, Note_on_c, 0, 69, 70
3, 38021, Note_on_c, 0, 69, 0
3, 38034, Note_on_c, 0, 60, 0
3, 38036, Note_on_c, 0, 62, 70
3, 38038, Note_on_c, 0, 70, 70
3, 38094, Note_on_c, 0, 70, 0
3, 38095, Note_on_c, 0, 62, 0
3, 38095, Note_on_c, 0, 63, 70
3, 38096, Note_on_c, 0, 72, 70
3, 38151, Note_on_c, 0, 72, 0
3, 38153, Note_on_c, 0, 63, 0
3, 38154, Note_on_c, 0, 69, 70
3, 38155, Note_on_c, 0, 65, 70
3, 38213, Note_on_c, 0, 66, 70
3, 38214, Note_on_c, 0, 65, 0
3, 38273, Note_on_c, 0, 66, 0
3, 38273, Note_on_c, 0, 65, 70
3, 38274, Note_on_c, 0, 70, 70
3, 38276, Note_on_c, 0, 69, 0
3, 38333, Note_on_c, 0, 63, 70
3, 38335, Note_on_c, 0, 65, 0
3, 38395, Note_on_c, 0, 70, 0
3, 38395, Note_on_c, 0, 72, 70
3, 38396, Note_on_c, 0, 61, 70
3, 38400, Note_on_c, 0, 63, 0
3, 38452, Note_on_c, 0, 61, 0
3, 38452, Note_on_c, 0, 60, 70
3, 38518, Note_on_c, 0, 73, 70
3, 38518, Note_on_c, 0, 58, 70
3, 38519, Note_on_c, 0, 72, 0
3, 38522, Note_on_c, 0, 60, 0
3, 38552, Note_on_c, 0, 58, 0
3, 38580, Note_on_c, 0, 72, 70
3, 38640, Note_on_c, 0, 70, 70
3, 38642, Note_on_c, 0, 72, 0
3, 38697, Note_on_c, 0, 68, 70
3, 38700, Note_on_c, 0, 70, 0
3, 38754, Note_on_c, 0, 66, 70
3, 38758, Note_on_c, 0, 68, 0
3, 38814, Note_on_c, 0, 65, 70
3, 38816, Note_on_c, 0, 66, 0
3, 38875, Note_on_c, 0, 65, 0
3, 38875, Note_on_c, 0, 66, 70
3, 38934, Note_on_c, 0, 73, 0
3, 38936, Note_on_c, 0, 77, 70
3, 38993, Note_on_c, 0, 75, 70
3, 38996, Note_on_c, 0, 77, 0
3, 39048, Note_on_c, 0, 66, 0
3, 39049, Note_on_c, 0, 65, 70
3, 39050, Note_on_c, 0, 73, 70
3, 39051, Note_on_c, 0, 75, 0
3, 39112, Note_on_c, 0, 73, 0
3, 39112, Note_on_c, 0, 63, 70
3, 39112, Note_on_c, 0, 72, 70
3, 39116, Note_on_c, 0, 65, 0
3, 39171, Note_on_c, 0, 72, 0
3, 39171, Note_on_c, 0, 73, 70
3, 39202, Note_on_c, 0, 75, 70
3, 39203, Note_on_c, 0, 73, 0
3, 39217, Note_on_c, 0, 75, 0
3, 39237, Note_on_c, 0, 69, 70
3, 39294, Note_on_c, 0, 66, 70
3, 39296, Note_on_c, 0, 63, 0
3, 39355, Note_on_c, 0, 65, 70
3, 39356, Note_on_c, 0, 66, 0
3, 39358, Note_on_c, 0, 69, 0
3, 39414, Note_on_c, 0, 63, 70
3, 39414, Note_on_c, 0, 69, 70
3, 39419, Note_on_c, 0, 65, 0
3, 39451, Note_on_c, 0, 69, 0
3, 39477, Note_on_c, 0, 70, 70
3, 39479, Note_on_c, 0, 61, 70
3, 39482, Note_on_c, 0, 63, 0
3, 39536, Note_on_c, 0, 60, 70
3, 39538, Note_on_c, 0, 61, 0
3, 39597, Note_on_c, 0, 61, 70
3, 39600, Note_on_c, 0, 60, 0
3, 39651, Note_on_c, 0, 70, 0
3, 39653, Note_on_c, 0, 61, 0
3, 39654, Note_on_c, 0, 63, 70
3, 39654, Note_on_c, 0, 72, 70
3, 39711, Note_on_c, 0, 72, 0
3, 39714, Note_on_c, 0, 70, 70
3, 39715, Note_on_c, 0, 60, 70
3, 39716, Note_on_c, 0, 63, 0
3, 39745, Note_on_c, 0, 70, 0
3, 39745, Note_on_c, 0, 69, 70
3, 39759, Note_on_c, 0, 69, 0
3, 39762, Note_on_c, 0, 70, 70
3, 39767, Note_on_c, 0, 65, 70
3, 39769, Note_on_c, 0, 60, 0
3, 39772, Note_on_c, 0, 70, 0
3, 39774, Note_on_c, 0, 69, 70
3, 39784, Note_on_c, 0, 69, 0
3, 39787, Note_on_c, 0, 70, 70
3, 39796, Note_on_c, 0, 70, 0
3, 39798, Note_on_c, 0, 69, 70
3, 39807, Note_on_c, 0, 69, 0
3, 39808, Note_on_c, 0, 70, 70
3, 39817, Note_on_c, 0, 65, 0
3, 39818, Note_on_c, 0, 63, 70
3, 39818, Note_on_c, 0, 69, 70
3, 39823, Note_on_c, 0, 69, 0
3, 39827, Note_on_c, 0, 70, 0
3, 39828, Note_on_c, 0, 69, 70
3, 39878, Note_on_c, 0, 63, 0
3, 39879, Note_on_c, 0, 65, 70
3, 39910, Note_on_c, 0, 70, 70
3, 39914, Note_on_c, 0, 69, 0
3, 39932, Note_on_c, 0, 70, 0
3, 39949, Note_on_c, 0, 70, 70
3, 39950, Note_on_c, 0, 62, 70
3, 39953, Note_on_c, 0, 65, 0
3, 40017, Note_on_c, 0, 60, 70
3, 40020, Note_on_c, 0, 62, 0
3, 40038, Note_on_c, 0, 70, 0
3, 40079, Note_on_c, 0, 65, 70
3, 40080, Note_on_c, 0, 62, 70
3, 40082, Note_on_c, 0, 60, 0
3, 40166, Note_on_c, 0, 67, 70
3, 40167, Note_on_c, 0, 63, 70
3, 40168, Note_on_c, 0, 65, 0
3, 40170, Note_on_c, 0, 62, 0
3, 40188, Note_on_c, 0, 67, 0
3, 40198, Note_on_c, 0, 65, 70
3, 40199, Note_on_c, 0, 63, 0
3, 40200, Note_on_c, 0, 62, 70
3, 40212, Note_on_c, 0, 63, 70
3, 40213, Note_on_c, 0, 65, 0
3, 40215, Note_on_c, 0, 60, 70
3, 40219, Note_on_c, 0, 62, 0
3, 40224, Note_on_c, 0, 63, 0
3, 40226, Note_on_c, 0, 65, 70
3, 40229, Note_on_c, 0, 60, 0
3, 40230, Note_on_c, 0, 62, 70
3, 40234, Note_on_c, 0, 65, 0
3, 40236, Note_on_c, 0, 63, 70
3, 40240, Note_on_c, 0, 62, 0
3, 40240, Note_on_c, 0, 60, 70
3, 40241, Note_on_c, 0, 65, 70
3, 40242, Note_on_c, 0, 63, 0
3, 40250, Note_on_c, 0, 62, 70
3, 40251, Note_on_c, 0, 63, 70
3, 40255, Note_on_c, 0, 62, 0
3, 40263, Note_on_c, 0, 65, 0
3, 40271, Note_on_c, 0, 60, 0
3, 40279, Note_on_c, 0, 63, 0
3, 40280, Note_on_c, 0, 62, 70
3, 40292, Note_on_c, 0, 63, 70
3, 40293, Note_on_c, 0, 62, 0
3, 40308, Note_on_c, 0, 63, 0
3, 40309, Note_on_c, 0, 62, 70
3, 40312, Note_on_c, 0, 58, 70
3, 40363, Note_on_c, 0, 62, 0
3, 40368, Note_on_c, 0, 58, 0
3, 40369, Note_on_c, 0, 60, 70
3, 40423, Note_on_c, 0, 70, 70
3, 40425, Note_on_c, 0, 60, 0
3, 40425, Note_on_c, 0, 62, 70
3, 40483, Note_on_c, 0, 63, 70
3, 40486, Note_on_c, 0, 62, 0
3, 40511, Note_on_c, 0, 72, 70
3, 40513, Note_on_c, 0, 70, 0
3, 40544, Note_on_c, 0, 70, 70
3, 40545, Note_on_c, 0, 65, 70
3, 40546, Note_on_c, 0, 72, 0
3, 40547, Note_on_c, 0, 63, 0
3, 40559, Note_on_c, 0, 70, 0
3, 40560, Note_on_c, 0, 68, 70
3, 40571, Note_on_c, 0, 68, 0
3, 40573, Note_on_c, 0, 70, 70
3, 40581, Note_on_c, 0, 70, 0
3, 40584, Note_on_c, 0, 68, 70
3, 40589, Note_on_c, 0, 70, 70
3, 40593, Note_on_c, 0, 68, 0
3, 40596, Note_on_c, 0, 70, 0
3, 40603, Note_on_c, 0, 70, 70
3, 40609, Note_on_c, 0, 68, 70
3, 40616, Note_on_c, 0, 70, 0
3, 40631, Note_on_c, 0, 67, 70
3, 40632, Note_on_c, 0, 68, 0
3, 40647, Note_on_c, 0, 67, 0
3, 40647, Note_on_c, 0, 68, 70
3, 40662, Note_on_c, 0, 68, 0
3, 40671, Note_on_c, 0, 67, 70
3, 40744, Note_on_c, 0, 67, 0
3, 40754, Note_on_c, 0, 65, 0
3, 40757, Note_on_c, 0, 67, 70
3, 40789, Note_on_c, 0, 65, 70
3, 40800, Note_on_c, 0, 65, 0
3, 40802, Note_on_c, 0, 63, 70
3, 40809, Note_on_c, 0, 63, 0
3, 40813, Note_on_c, 0, 65, 70
3, 40826, Note_on_c, 0, 65, 0
3, 40826, Note_on_c, 0, 63, 70
3, 40835, Note_on_c, 0, 63, 0
3, 40838, Note_on_c, 0, 65, 70
3, 40843, Note_on_c, 0, 63, 70
3, 40844, Note_on_c, 0, 65, 0
3, 40853, Note_on_c, 0, 65, 70
3, 40854, Note_on_c, 0, 67, 0
3, 40900, Note_on_c, 0, 67, 70
3, 40906, Note_on_c, 0, 65, 0
3, 40960, Note_on_c, 0, 69, 70
3, 40961, Note_on_c, 0, 63, 0
3, 40961, Note_on_c, 0, 62, 70
3, 40963, Note_on_c, 0, 67, 0
3, 40984, Note_on_c, 0, 62, 0
3, 40988, Note_on_c, 0, 63, 70
3, 41026, Note_on_c, 0, 69, 0
3, 41026, Note_on_c, 0, 63, 0
3, 41026, Note_on_c, 0, 70, 70
3, 41027, Note_on_c, 0, 62, 70
3, 41093, Note_on_c, 0, 60, 70
3, 41094, Note_on_c, 0, 62, 0
3, 41150, Note_on_c, 0, 58, 70
3, 41154, Note_on_c, 0, 60, 0
3, 41210, Note_on_c, 0, 56, 70
3, 41211, Note_on_c, 0, 58, 0
3, 41270, Note_on_c, 0, 56, 0
3, 41272, Note_on_c, 0, 55, 70
3, 41333, Note_on_c, 0, 53, 70
3, 41333, Note_on_c, 0, 68, 70
3, 41334, Note_on_c, 0, 55, 0
3, 41335, Note_on_c, 0, 70, 0
3, 41400, Note_on_c, 0, 68, 0
3, 41401, Note_on_c, 0, 67, 70
3, 41402, Note_on_c, 0, 51, 70
3, 41407, Note_on_c, 0, 53, 0
3, 41463, Note_on_c, 0, 67, 0
3, 41463, Note_on_c, 0, 65, 70
3, 41516, Note_on_c, 0, 67, 70
3, 41516, Note_on_c, 0, 58, 70
3, 41519, Note_on_c, 0, 65, 0
3, 41520, Note_on_c, 0, 51, 0
3, 41607, Note_on_c, 0, 58, 0
3, 41608, Note_on_c, 0, 60, 70
3, 41608, Note_on_c, 0, 68, 70
3, 41612, Note_on_c, 0, 67, 0
3, 41617, Note_on_c, 0, 68, 0
3, 41630, Note_on_c, 0, 60, 0
3, 41641, Note_on_c, 0, 67, 70
3, 41642, Note_on_c, 0, 58, 70
3, 41658, Note_on_c, 0, 67, 0
3, 41658, Note_on_c, 0, 65, 70
3, 41659, Note_on_c, 0, 58, 0
3, 41659, Note_on_c, 0, 56, 70
3, 41671, Note_on_c, 0, 56, 0
3, 41672, Note_on_c, 0, 58, 70
3, 41673, Note_on_c, 0, 65, 0
3, 41674, Note_on_c, 0, 67, 70
3, 41681, Note_on_c, 0, 65, 70
3, 41682, Note_on_c, 0, 67, 0
3, 41682, Note_on_c, 0, 56, 70
3, 41683, Note_on_c, 0, 58, 0
3, 41689, Note_on_c, 0, 65, 0
3, 41690, Note_on_c, 0, 67, 70
3, 41691, Note_on_c, 0, 56, 0
3, 41693, Note_on_c, 0, 58, 70
3, 41695, Note_on_c, 0, 65, 70
3, 41698, Note_on_c, 0, 56, 70
3, 41701, Note_on_c, 0, 67, 0
3, 41701, Note_on_c, 0, 58, 0
3, 41708, Note_on_c, 0, 58, 70
3, 41709, Note_on_c, 0, 56, 0
3, 41718, Note_on_c, 0, 65, 0
3, 41718, Note_on_c, 0, 63, 70
3, 41725, Note_on_c, 0, 58, 0
3, 41730, Note_on_c, 0, 63, 0
3, 41731, Note_on_c, 0, 65, 70
3, 41761, Note_on_c, 0, 65, 0
3, 41761, Note_on_c, 0, 63, 70
3, 41763, Note_on_c, 0, 55, 70
3, 41764, Note_on_c, 0, 53, 70
3, 41770, Note_on_c, 0, 53, 0
3, 41818, Note_on_c, 0, 63, 0
3, 41818, Note_on_c, 0, 65, 70
3, 41873, Note_on_c, 0, 63, 70
3, 41874, Note_on_c, 0, 65, 0
3, 41875, Note_on_c, 0, 67, 70
3, 41876, Note_on_c, 0, 55, 0
3, 41929, Note_on_c, 0, 67, 0
3, 41930, Note_on_c, 0, 68, 70
3, 41958, Note_on_c, 0, 65, 70
3, 41959, Note_on_c, 0, 63, 0
3, 41982, Note_on_c, 0, 65, 0
3, 41985, Note_on_c, 0, 63, 70
3, 41987, Note_on_c, 0, 68, 0
3, 41987, Note_on_c, 0, 70, 70
3, 42000, Note_on_c, 0, 63, 0
3, 42002, Note_on_c, 0, 61, 70
3, 42012, Note_on_c, 0, 61, 0
3, 42015, Note_on_c, 0, 63, 70
3, 42025, Note_on_c, 0, 63, 0
3, 42026, Note_on_c, 0, 61, 70
3, 42034, Note_on_c, 0, 61, 0
3, 42037, Note_on_c, 0, 63, 70
3, 42045, Note_on_c, 0, 61, 70
3, 42046, Note_on_c, 0, 63, 0
3, 42052, Note_on_c, 0, 61, 0
3, 42052, Note_on_c, 0, 63, 70
3, 42061, Note_on_c, 0, 61, 70
3, 42063, Note_on_c, 0, 63, 0
3, 42078, Note_on_c, 0, 60, 70
3, 42079, Note_on_c, 0, 61, 0
3, 42090, Note_on_c, 0, 60, 0
3, 42090, Note_on_c, 0, 61, 70
3, 42104, Note_on_c, 0, 61, 0
3, 42106, Note_on_c, 0, 60, 70
3, 42164, Note_on_c, 0, 70, 0
3, 42165, Note_on_c, 0, 72, 70
3, 42208, Note_on_c, 0, 72, 0
3, 42223, Note_on_c, 0, 70, 70
3, 42236, Note_on_c, 0, 70, 0
3, 42238, Note_on_c, 0, 68, 70
3, 42248, Note_on_c, 0, 68, 0
3, 42252, Note_on_c, 0, 70, 70
3, 42260, Note_on_c, 0, 70, 0
3, 42264, Note_on_c, 0, 68, 70
3, 42270, Note_on_c, 0, 68, 0
3, 42275, Note_on_c, 0, 70, 70
3, 42282, Note_on_c, 0, 58, 70
3, 42283, Note_on_c, 0, 70, 0
3, 42286, Note_on_c, 0, 60, 0
3, 42286, Note_on_c, 0, 68, 70
3, 42294, Note_on_c, 0, 68, 0
3, 42296, Note_on_c, 0, 70, 70
3, 42305, Note_on_c, 0, 70, 0
3, 42307, Note_on_c, 0, 68, 70
3, 42314, Note_on_c, 0, 68, 0
3, 42315, Note_on_c, 0, 70, 70
3, 42322, Note_on_c, 0, 70, 0
3, 42325, Note_on_c, 0, 68, 70
3, 42330, Note_on_c, 0, 68, 0
3, 42331, Note_on_c, 0, 70, 70
3, 42336, Note_on_c, 0, 58, 0
3, 42337, Note_on_c, 0, 60, 70
3, 42347, Note_on_c, 0, 68, 70
3, 42350, Note_on_c, 0, 70, 0
3, 42397, Note_on_c, 0, 68, 0
3, 42398, Note_on_c, 0, 67, 70
3, 42399, Note_on_c, 0, 60, 0
3, 42399, Note_on_c, 0, 62, 70
3, 42426, Note_on_c, 0, 67, 0
3, 42426, Note_on_c, 0, 68, 70
3, 42461, Note_on_c, 0, 62, 0
3, 42462, Note_on_c, 0, 68, 0
3, 42463, Note_on_c, 0, 63, 70
3, 42464, Note_on_c, 0, 67, 70
3, 42526, Note_on_c, 0, 67, 0
3, 42527, Note_on_c, 0, 63, 0
3, 42528, Note_on_c, 0, 68, 70
3, 42529, Note_on_c, 0, 65, 70
3, 42589, Note_on_c, 0, 63, 70
3, 42590, Note_on_c, 0, 68, 0
3, 42591, Note_on_c, 0, 67, 70
3, 42592, Note_on_c, 0, 65, 0
3, 42650, Note_on_c, 0, 67, 0
3, 42651, Note_on_c, 0, 63, 0
3, 42652, Note_on_c, 0, 62, 70
3, 42653, Note_on_c, 0, 65, 70
3, 42711, Note_on_c, 0, 62, 0
3, 42711, Note_on_c, 0, 60, 70
3, 42711, Note_on_c, 0, 63, 70
3, 42714, Note_on_c, 0, 65, 0
3, 42772, Note_on_c, 0, 60, 0
3, 42772, Note_on_c, 0, 59, 70
3, 42773, Note_on_c, 0, 63, 0
3, 42773, Note_on_c, 0, 62, 70
3, 42793, Note_on_c, 0, 59, 0
3, 42835, Note_on_c, 0, 62, 0
3, 42837, Note_on_c, 0, 63, 70
3, 42839, Note_on_c, 0, 60, 70
3, 42899, Note_on_c, 0, 67, 70
3, 42901, Note_on_c, 0, 63, 0
3, 42958, Note_on_c, 0, 65, 70
3, 42961, Note_on_c, 0, 67, 0
3, 43014, Note_on_c, 0, 63, 70
3, 43015, Note_on_c, 0, 60, 0
3, 43020, Note_on_c, 0, 65, 0
3, 43076, Note_on_c, 0, 61, 70
3, 43079, Note_on_c, 0, 63, 0
3, 43130, Note_on_c, 0, 61, 0
3, 43132, Note_on_c, 0, 60, 70
3, 43198, Note_on_c, 0, 58, 70
3, 43201, Note_on_c, 0, 60, 0
3, 43254, Note_on_c, 0, 50, 70
3, 43310, Note_on_c, 0, 50, 0
3, 43316, Note_on_c, 0, 51, 70
3, 43342, Note_on_c, 0, 58, 0
3, 43365, Note_on_c, 0, 51, 0
3, 43373, Note_on_c, 0, 58, 70
3, 43373, Note_on_c, 0, 55, 70
3, 43431, Note_on_c, 0, 55, 0
3, 43433, Note_on_c, 0, 58, 0
3, 43434, Note_on_c, 0, 56, 70
3, 43435, Note_on_c, 0, 60, 70
3, 43494, Note_on_c, 0, 58, 70
3, 43495, Note_on_c, 0, 62, 70
3, 43498, Note_on_c, 0, 60, 0
3, 43504, Note_on_c, 0, 56, 0
3, 43537, Note_on_c, 0, 58, 0
3, 43556, Note_on_c, 0, 63, 70
3, 43558, Note_on_c, 0, 60, 70
3, 43559, Note_on_c, 0, 62, 0
3, 43617, Note_on_c, 0, 63, 0
3, 43617, Note_on_c, 0, 65, 70
3, 43618, Note_on_c, 0, 60, 0
3, 43618, Note_on_c, 0, 62, 70
3, 43678, Note_on_c, 0, 62, 0
3, 43678, Note_on_c, 0, 63, 70
3, 43679, Note_on_c, 0, 65, 0
3, 43680, Note_on_c, 0, 67, 70
3, 43739, Note_on_c, 0, 63, 0
3, 43741, Note_on_c, 0, 67, 0
3, 43795, Note_on_c, 0, 63, 70
3, 43796, Note_on_c, 0, 58, 70
3, 43872, Note_on_c, 0, 58, 0
3, 43873, Note_on_c, 0, 63, 0
3, 43912, Note_on_c, 0, 60, 70
3, 43913, Note_on_c, 0, 56, 70
3, 43961, Note_on_c, 0, 56, 0
3, 43963, Note_on_c, 0, 60, 0
3, 43972, Note_on_c, 0, 62, 70
3, 43973, Note_on_c, 0, 53, 70
3, 44010, Note_on_c, 0, 62, 0
3, 44016, Note_on_c, 0, 53, 0
3, 44034, Note_on_c, 0, 63, 70
3, 44035, Note_on_c, 0, 60, 70
3, 44067, Note_on_c, 0, 63, 0
3, 44094, Note_on_c, 0, 62, 70
3, 44096, Note_on_c, 0, 60, 0
3, 44096, Note_on_c, 0, 56, 70
3, 44157, Note_on_c, 0, 62, 0
3, 44159, Note_on_c, 0, 63, 70
3, 44160, Note_on_c, 0, 58, 70
3, 44165, Note_on_c, 0, 56, 0
3, 44217, Note_on_c, 0, 63, 0
3, 44219, Note_on_c, 0, 65, 70
3, 44246, Note_on_c, 0, 58, 0
3, 44249, Note_on_c, 0, 65, 0
3, 44281, Note_on_c, 0, 67, 70
3, 44282, Note_on_c, 0, 63, 70
3, 44336, Note_on_c, 0, 65, 70
3, 44338, Note_on_c, 0, 67, 0
3, 44395, Note_on_c, 0, 65, 0
3, 44395, Note_on_c, 0, 67, 70
3, 44445, Note_on_c, 0, 67, 0
3, 44450, Note_on_c, 0, 68, 70
3, 44450, Note_on_c, 0, 60, 70
3, 44451, Note_on_c, 0, 63, 0
3, 44513, Note_on_c, 0, 68, 0
3, 44513, Note_on_c, 0, 70, 70
3, 44514, Note_on_c, 0, 61, 70
3, 44517, Note_on_c, 0, 60, 0
3, 44691, Note_on_c, 0, 70, 0
3, 44693, Note_on_c, 0, 63, 70
3, 44753, Note_on_c, 0, 68, 70
3, 44754, Note_on_c, 0, 63, 0
3, 44754, Note_on_c, 0, 60, 70
3, 44756, Note_on_c, 0, 61, 0
3, 44814, Note_on_c, 0, 61, 70
3, 44815, Note_on_c, 0, 60, 0
3, 44874, Note_on_c, 0, 63, 70
3, 44875, Note_on_c, 0, 61, 0
3, 44931, Note_on_c, 0, 63, 0
3, 44932, Note_on_c, 0, 65, 70
3, 44992, Note_on_c, 0, 58, 70
3, 44993, Note_on_c, 0, 65, 0
3, 45028, Note_on_c, 0, 68, 0
3, 45053, Note_on_c, 0, 68, 70
3, 45114, Note_on_c, 0, 67, 70
3, 45115, Note_on_c, 0, 68, 0
3, 45177, Note_on_c, 0, 65, 70
3, 45181, Note_on_c, 0, 67, 0
3, 45234, Note_on_c, 0, 63, 70
3, 45238, Note_on_c, 0, 65, 0
3, 45293, Note_on_c, 0, 61, 70
3, 45294, Note_on_c, 0, 63, 0
3, 45352, Note_on_c, 0, 61, 0
3, 45354, Note_on_c, 0, 60, 70
3, 45357, Note_on_c, 0, 58, 0
3, 45415, Note_on_c, 0, 58, 70
3, 45474, Note_on_c, 0, 56, 70
3, 45476, Note_on_c, 0, 58, 0
3, 45531, Note_on_c, 0, 55, 70
3, 45533, Note_on_c, 0, 56, 0
3, 45593, Note_on_c, 0, 56, 70
3, 45598, Note_on_c, 0, 55, 0
3, 45741, Note_on_c, 0, 60, 0
3, 45778, Note_on_c, 0, 60, 70
3, 45835, Note_on_c, 0, 60, 0
3, 45837, Note_on_c, 0, 58, 70
3, 45854, Note_on_c, 0, 56, 0
3, 45895, Note_on_c, 0, 56, 70
3, 45954, Note_on_c, 0, 55, 70
3, 45955, Note_on_c, 0, 56, 0
3, 46017, Note_on_c, 0, 55, 0
3, 46017, Note_on_c, 0, 53, 70
3, 46084, Note_on_c, 0, 53, 0
3, 46104, Note_on_c, 0, 55, 70
3, 46444, Note_on_c, 0, 58, 0
3, 46444, Note_on_c, 0, 55, 0
3, 46444, End_track
4, 0, Start_track
4, 0, Title_t, "Accomp 2 2/3"
4, 0, MIDI_port, 0
4, 0, Control_c, 4, 7, 78
4, 0, Control_c, 4, 10, 59
4, 0, Program_c, 4, 73
4, 119, Note_on_c, 4, 77, 70
4, 119, Note_on_c, 4, 86, 70
4, 205, Note_on_c, 4, 79, 70
4, 206, Note_on_c, 4, 86, 0
4, 206, Note_on_c, 4, 87, 70
4, 207, Note_on_c, 4, 77, 0
4, 226, Note_on_c, 4, 79, 0
4, 229, Note_on_c, 4, 87, 0
4, 236, Note_on_c, 4, 86, 70
4, 237, Note_on_c, 4, 77, 70
4, 251, Note_on_c, 4, 86, 0
4, 252, Note_on_c, 4, 84, 70
4, 254, Note_on_c, 4, 77, 0
4, 254, Note_on_c, 4, 75, 70
4, 264, Note_on_c, 4, 84, 0
4, 265, Note_on_c, 4, 86, 70
4, 268, Note_on_c, 4, 75, 0
4, 269, Note_on_c, 4, 77, 70
4, 274, Note_on_c, 4, 86, 0
4, 276, Note_on_c, 4, 84, 70
4, 279, Note_on_c, 4, 77, 0
4, 279, Note_on_c, 4, 75, 70
4, 281, Note_on_c, 4, 86, 70
4, 282, Note_on_c, 4, 84, 0
4, 287, Note_on_c, 4, 75, 0
4, 288, Note_on_c, 4, 77, 70
4, 289, Note_on_c, 4, 84, 70
4, 294, Note_on_c, 4, 75, 70
4, 297, Note_on_c, 4, 77, 0
4, 298, Note_on_c, 4, 86, 0
4, 311, Note_on_c, 4, 82, 70
4, 315, Note_on_c, 4, 84, 0
4, 316, Note_on_c, 4, 75, 0
4, 320, Note_on_c, 4, 82, 0
4, 322, Note_on_c, 4, 84, 70
4, 348, Note_on_c, 4, 82, 70
4, 348, Note_on_c, 4, 74, 70
4, 350, Note_on_c, 4, 84, 0
4, 407, Note_on_c, 4, 82, 0
4, 408, Note_on_c, 4, 84, 70
4, 432, Note_on_c, 4, 74, 0
4, 457, Note_on_c, 4, 84, 0
4, 463, Note_on_c, 4, 82, 70
4, 463, Note_on_c, 4, 86, 70
4, 519, Note_on_c, 4, 86, 0
4, 519, Note_on_c, 4, 87, 70
4, 543, Note_on_c, 4, 84, 70
4, 544, Note_on_c, 4, 82, 0
4, 577, Note_on_c, 4, 87, 0
4, 577, Note_on_c, 4, 82, 70
4, 578, Note_on_c, 4, 89, 70
4, 580, Note_on_c, 4, 84, 0
4, 595, Note_on_c, 4, 82, 0
4, 596, Note_on_c, 4, 80, 70
4, 608, Note_on_c, 4, 80, 0
4, 610, Note_on_c, 4, 82, 70
4, 620, Note_on_c, 4, 82, 0
4, 620, Note_on_c, 4, 80, 70
4, 629, Note_on_c, 4, 80, 0
4, 631, Note_on_c, 4, 82, 70
4, 639, Note_on_c, 4, 80, 70
4, 640, Note_on_c, 4, 82, 0
4, 654, Note_on_c, 4, 80, 0
4, 656, Note_on_c, 4, 79, 70
4, 670, Note_on_c, 4, 80, 70
4, 672, Note_on_c, 4, 79, 0
4, 702, Note_on_c, 4, 79, 70
4, 703, Note_on_c, 4, 80, 0
4, 760, Note_on_c, 4, 89, 0
4, 761, Note_on_c, 4, 91, 70
4, 814, Note_on_c, 4, 91, 0
4, 816, Note_on_c, 4, 89, 70
4, 841, Note_on_c, 4, 89, 0
4, 842, Note_on_c, 4, 87, 70
4, 853, Note_on_c, 4, 87, 0
4, 857, Note_on_c, 4, 89, 70
4, 867, Note_on_c, 4, 89, 0
4, 869, Note_on_c, 4, 87, 70
4, 874, Note_on_c, 4, 77, 70
4, 875, Note_on_c, 4, 79, 0
4, 877, Note_on_c, 4, 87, 0
4, 879, Note_on_c, 4, 89, 70
4, 890, Note_on_c, 4, 89, 0
4, 892, Note_on_c, 4, 87, 70
4, 899, Note_on_c, 4, 87, 0
4, 901, Note_on_c, 4, 89, 70
4, 908, Note_on_c, 4, 89, 0
4, 910, Note_on_c, 4, 87, 70
4, 915, Note_on_c, 4, 87, 0
4, 916, Note_on_c, 4, 89, 70
4, 929, Note_on_c, 4, 77, 0
4, 931, Note_on_c, 4, 79, 70
4, 933, Note_on_c, 4, 87, 70
4, 937, Note_on_c, 4, 89, 0
4, 993, Note_on_c, 4, 87, 0
4, 993, Note_on_c, 4, 86, 70
4, 994, Note_on_c, 4, 79, 0
4, 994, Note_on_c, 4, 81, 70
4, 1022, Note_on_c, 4, 87, 70
4, 1023, Note_on_c, 4, 86, 0
4, 1057, Note_on_c, 4, 87, 0
4, 1058, Note_on_c, 4, 86, 70
4, 1060, Note_on_c, 4, 82, 70
4, 1065, Note_on_c, 4, 81, 0
4, 1126, Note_on_c, 4, 86, 0
4, 1126, Note_on_c, 4, 84, 70
4, 1147, Note_on_c, 4, 82, 0
4, 1194, Note_on_c, 4, 86, 70
4, 1195, Note_on_c, 4, 77, 70
4, 1201, Note_on_c, 4, 84, 0
4, 1287, Note_on_c, 4, 79, 70
4, 1287, Note_on_c, 4, 88, 70
4, 1288, Note_on_c, 4, 77, 0
4, 1291, Note_on_c, 4, 86, 0
4, 1301, Note_on_c, 4, 88, 0
4, 1315, Note_on_c, 4, 89, 70
4, 1316, Note_on_c, 4, 79, 0
4, 1316, Note_on_c, 4, 81, 70
4, 1327, Note_on_c, 4, 89, 0
4, 1329, Note_on_c, 4, 88, 70
4, 1332, Note_on_c, 4, 79, 70
4, 1333, Note_on_c, 4, 81, 0
4, 1339, Note_on_c, 4, 88, 0
4, 1339, Note_on_c, 4, 89, 70
4, 1346, Note_on_c, 4, 79, 0
4, 1347, Note_on_c, 4, 89, 0
4, 1349, Note_on_c, 4, 81, 70
4, 1349, Note_on_c, 4, 88, 70
4, 1355, Note_on_c, 4, 88, 0
4, 1355, Note_on_c, 4, 89, 70
4, 1356, Note_on_c, 4, 79, 70
4, 1357, Note_on_c, 4, 81, 0
4, 1362, Note_on_c, 4, 89, 0
4, 1363, Note_on_c, 4, 79, 0
4, 1364, Note_on_c, 4, 88, 70
4, 1365, Note_on_c, 4, 81, 70
4, 1368, Note_on_c, 4, 89, 70
4, 1369, Note_on_c, 4, 88, 0
4, 1371, Note_on_c, 4, 79, 70
4, 1374, Note_on_c, 4, 88, 70
4, 1375, Note_on_c, 4, 81, 0
4, 1376, Note_on_c, 4, 89, 0
4, 1386, Note_on_c, 4, 79, 0
4, 1387, Note_on_c, 4, 77, 70
4, 1396, Note_on_c, 4, 86, 70
4, 1398, Note_on_c, 4, 88, 0
4, 1405, Note_on_c, 4, 88, 70
4, 1407, Note_on_c, 4, 86, 0
4, 1407, Note_on_c, 4, 79, 70
4, 1411, Note_on_c, 4, 77, 0
4, 1424, Note_on_c, 4, 88, 0
4, 1428, Note_on_c, 4, 79, 0
4, 1428, Note_on_c, 4, 89, 70
4, 1429, Note_on_c, 4, 81, 70
4, 1486, Note_on_c, 4, 79, 70
4, 1489, Note_on_c, 4, 81, 0
4, 1544, Note_on_c, 4, 79, 0
4, 1544, Note_on_c, 4, 81, 70
4, 1633, Note_on_c, 4, 82, 70
4, 1637, Note_on_c, 4, 81, 0
4, 1665, Note_on_c, 4, 82, 0
4, 1666, Note_on_c, 4, 84, 70
4, 1681, Note_on_c, 4, 82, 70
4, 1682, Note_on_c, 4, 84, 0
4, 1693, Note_on_c, 4, 82, 0
4, 1696, Note_on_c, 4, 84, 70
4, 1705, Note_on_c, 4, 82, 70
4, 1706, Note_on_c, 4, 84, 0
4, 1714, Note_on_c, 4, 82, 0
4, 1716, Note_on_c, 4, 84, 70
4, 1724, Note_on_c, 4, 82, 70
4, 1726, Note_on_c, 4, 84, 0
4, 1739, Note_on_c, 4, 82, 0
4, 1739, Note_on_c, 4, 81, 70
4, 1754, Note_on_c, 4, 82, 70
4, 1759, Note_on_c, 4, 81, 0
4, 1781, Note_on_c, 4, 82, 0
4, 1781, Note_on_c, 4, 84, 70
4, 1851, Note_on_c, 4, 89, 0
4, 1851, Note_on_c, 4, 87, 70
4, 1915, Note_on_c, 4, 86, 70
4, 1916, Note_on_c, 4, 87, 0
4, 1972, Note_on_c, 4, 82, 70
4, 1978, Note_on_c, 4, 84, 0
4, 2035, Note_on_c, 4, 82, 0
4, 2036, Note_on_c, 4, 86, 0
4, 2036, Note_on_c, 4, 84, 70
4, 2036, Note_on_c, 4, 81, 70
4, 2091, Note_on_c, 4, 84, 0
4, 2093, Note_on_c, 4, 82, 70
4, 2094, Note_on_c, 4, 81, 0
4, 2094, Note_on_c, 4, 79, 70
4, 2154, Note_on_c, 4, 81, 70
4, 2154, Note_on_c, 4, 77, 70
4, 2156, Note_on_c, 4, 82, 0
4, 2161, Note_on_c, 4, 79, 0
4, 2215, Note_on_c, 4, 81, 0
4, 2215, Note_on_c, 4, 87, 70
4, 2273, Note_on_c, 4, 87, 0
4, 2275, Note_on_c, 4, 86, 70
4, 2333, Note_on_c, 4, 84, 70
4, 2334, Note_on_c, 4, 74, 70
4, 2335, Note_on_c, 4, 77, 0
4, 2335, Note_on_c, 4, 86, 0
4, 2396, Note_on_c, 4, 82, 70
4, 2397, Note_on_c, 4, 84, 0
4, 2397, Note_on_c, 4, 79, 70
4, 2401, Note_on_c, 4, 74, 0
4, 2454, Note_on_c, 4, 86, 70
4, 2455, Note_on_c, 4, 82, 0
4, 2515, Note_on_c, 4, 84, 70
4, 2519, Note_on_c, 4, 86, 0
4, 2575, Note_on_c, 4, 82, 70
4, 2577, Note_on_c, 4, 79, 0
4, 2577, Note_on_c, 4, 84, 0
4, 2579, Note_on_c, 4, 74, 70
4, 2640, Note_on_c, 4, 74, 0
4, 2640, Note_on_c, 4, 77, 70
4, 2641, Note_on_c, 4, 82, 0
4, 2641, Note_on_c, 4, 81, 70
4, 2698, Note_on_c, 4, 84, 70
4, 2700, Note_on_c, 4, 81, 0
4, 2759, Note_on_c, 4, 82, 70
4, 2762, Note_on_c, 4, 84, 0
4, 2811, Note_on_c, 4, 82, 0
4, 2814, Note_on_c, 4, 81, 70
4, 2873, Note_on_c, 4, 79, 70
4, 2874, Note_on_c, 4, 81, 0
4, 2937, Note_on_c, 4, 81, 70
4, 2941, Note_on_c, 4, 79, 0
4, 2974, Note_on_c, 4, 77, 0
4, 2995, Note_on_c, 4, 82, 70
4, 2996, Note_on_c, 4, 81, 0
4, 2997, Note_on_c, 4, 77, 70
4, 3009, Note_on_c, 4, 77, 0
4, 3011, Note_on_c, 4, 76, 70
4, 3022, Note_on_c, 4, 76, 0
4, 3025, Note_on_c, 4, 77, 70
4, 3035, Note_on_c, 4, 76, 70
4, 3036, Note_on_c, 4, 77, 0
4, 3045, Note_on_c, 4, 76, 0
4, 3049, Note_on_c, 4, 77, 70
4, 3056, Note_on_c, 4, 76, 70
4, 3057, Note_on_c, 4, 77, 0
4, 3070, Note_on_c, 4, 76, 0
4, 3072, Note_on_c, 4, 77, 70
4, 3081, Note_on_c, 4, 77, 0
4, 3081, Note_on_c, 4, 76, 70
4, 3091, Note_on_c, 4, 76, 0
4, 3093, Note_on_c, 4, 77, 70
4, 3100, Note_on_c, 4, 77, 0
4, 3101, Note_on_c, 4, 76, 70
4, 3108, Note_on_c, 4, 76, 0
4, 3109, Note_on_c, 4, 77, 70
4, 3113, Note_on_c, 4, 82, 0
4, 3114, Note_on_c, 4, 81, 70
4, 3118, Note_on_c, 4, 77, 0
4, 3118, Note_on_c, 4, 76, 70
4, 3130, Note_on_c, 4, 76, 0
4, 3131, Note_on_c, 4, 77, 70
4, 3137, Note_on_c, 4, 76, 70
4, 3138, Note_on_c, 4, 77, 0
4, 3149, Note_on_c, 4, 76, 0
4, 3150, Note_on_c, 4, 77, 70
4, 3161, Note_on_c, 4, 77, 0
4, 3161, Note_on_c, 4, 76, 70
4, 3170, Note_on_c, 4, 79, 70
4, 3171, Note_on_c, 4, 81, 0
4, 3178, Note_on_c, 4, 76, 0
4, 3178, Note_on_c, 4, 74, 70
4, 3199, Note_on_c, 4, 76, 70
4, 3202, Note_on_c, 4, 74, 0
4, 3227, Note_on_c, 4, 79, 0
4, 3227, Note_on_c, 4, 77, 70
4, 3228, Note_on_c, 4, 76, 0
4, 3285, Note_on_c, 4, 75, 70
4, 3343, Note_on_c, 4, 75, 0
4, 3343, Note_on_c, 4, 74, 70
4, 3399, Note_on_c, 4, 77, 0
4, 3411, Note_on_c, 4, 79, 70
4, 3433, Note_on_c, 4, 75, 70
4, 3434, Note_on_c, 4, 74, 0
4, 3453, Note_on_c, 4, 75, 0
4, 3464, Note_on_c, 4, 79, 0
4, 3466, Note_on_c, 4, 81, 70
4, 3467, Note_on_c, 4, 74, 70
4, 3481, Note_on_c, 4, 74, 0
4, 3482, Note_on_c, 4, 72, 70
4, 3497, Note_on_c, 4, 72, 0
4, 3499, Note_on_c, 4, 74, 70
4, 3508, Note_on_c, 4, 72, 70
4, 3509, Note_on_c, 4, 74, 0
4, 3517, Note_on_c, 4, 72, 0
4, 3518, Note_on_c, 4, 74, 70
4, 3524, Note_on_c, 4, 72, 70
4, 3529, Note_on_c, 4, 74, 0
4, 3532, Note_on_c, 4, 72, 0
4, 3533, Note_on_c, 4, 74, 70
4, 3535, Note_on_c, 4, 70, 70
4, 3539, Note_on_c, 4, 74, 0
4, 3550, Note_on_c, 4, 70, 0
4, 3551, Note_on_c, 4, 72, 70
4, 3578, Note_on_c, 4, 72, 0
4, 3579, Note_on_c, 4, 81, 0
4, 3580, Note_on_c, 4, 70, 70
4, 3580, Note_on_c, 4, 79, 70
4, 3646, Note_on_c, 4, 72, 70
4, 3646, Note_on_c, 4, 81, 70
4, 3649, Note_on_c, 4, 79, 0
4, 3650, Note_on_c, 4, 70, 0
4, 3704, Note_on_c, 4, 72, 0
4, 3705, Note_on_c, 4, 74, 70
4, 3706, Note_on_c, 4, 81, 0
4, 3706, Note_on_c, 4, 82, 70
4, 3765, Note_on_c, 4, 75, 70
4, 3768, Note_on_c, 4, 74, 0
4, 3828, Note_on_c, 4, 75, 0
4, 3828, Note_on_c, 4, 77, 70
4, 3887, Note_on_c, 4, 77, 0
4, 3888, Note_on_c, 4, 70, 70
4, 3952, Note_on_c, 4, 79, 70
4, 3955, Note_on_c, 4, 70, 0
4, 4011, Note_on_c, 4, 77, 70
4, 4014, Note_on_c, 4, 79, 0
4, 4073, Note_on_c, 4, 77, 0
4, 4073, Note_on_c, 4, 75, 70
4, 4073, Note_on_c, 4, 81, 70
4, 4074, Note_on_c, 4, 82, 0
4, 4135, Note_on_c, 4, 81, 0
4, 4135, Note_on_c, 4, 79, 70
4, 4138, Note_on_c, 4, 75, 0
4, 4195, Note_on_c, 4, 77, 70
4, 4197, Note_on_c, 4, 81, 70
4, 4200, Note_on_c, 4, 79, 0
4, 4256, Note_on_c, 4, 75, 70
4, 4259, Note_on_c, 4, 77, 0
4, 4317, Note_on_c, 4, 74, 70
4, 4320, Note_on_c, 4, 75, 0
4, 4377, Note_on_c, 4, 79, 70
4, 4379, Note_on_c, 4, 81, 0
4, 4407, Note_on_c, 4, 78, 70
4, 4408, Note_on_c, 4, 79, 0
4, 4433, Note_on_c, 4, 78, 0
4, 4441, Note_on_c, 4, 79, 70
4, 4445, Note_on_c, 4, 74, 0
4, 4493, Note_on_c, 4, 75, 70
4, 4551, Note_on_c, 4, 74, 70
4, 4552, Note_on_c, 4, 75, 0
4, 4552, Note_on_c, 4, 77, 70
4, 4557, Note_on_c, 4, 79, 0
4, 4610, Note_on_c, 4, 72, 70
4, 4612, Note_on_c, 4, 74, 0
4, 4635, Note_on_c, 4, 72, 0
4, 4669, Note_on_c, 4, 70, 70
4, 4732, Note_on_c, 4, 77, 0
4, 4732, Note_on_c, 4, 82, 70
4, 4786, Note_on_c, 4, 82, 0
4, 4788, Note_on_c, 4, 81, 70
4, 4851, Note_on_c, 4, 79, 70
4, 4852, Note_on_c, 4, 81, 0
4, 4910, Note_on_c, 4, 77, 70
4, 4911, Note_on_c, 4, 79, 0
4, 4913, Note_on_c, 4, 70, 0
4, 4968, Note_on_c, 4, 77, 0
4, 4970, Note_on_c, 4, 86, 70
4, 5029, Note_on_c, 4, 86, 0
4, 5032, Note_on_c, 4, 84, 70
4, 5092, Note_on_c, 4, 82, 70
4, 5094, Note_on_c, 4, 84, 0
4, 5151, Note_on_c, 4, 81, 70
4, 5152, Note_on_c, 4, 82, 0
4, 5214, Note_on_c, 4, 82, 70
4, 5216, Note_on_c, 4, 81, 0
4, 5271, Note_on_c, 4, 79, 70
4, 5274, Note_on_c, 4, 82, 0
4, 5330, Note_on_c, 4, 81, 70
4, 5331, Note_on_c, 4, 79, 0
4, 5393, Note_on_c, 4, 82, 70
4, 5398, Note_on_c, 4, 81, 0
4, 5452, Note_on_c, 4, 82, 0
4, 5452, Note_on_c, 4, 84, 70
4, 5510, Note_on_c, 4, 86, 70
4, 5511, Note_on_c, 4, 84, 0
4, 5577, Note_on_c, 4, 88, 70
4, 5585, Note_on_c, 4, 86, 0
4, 5633, Note_on_c, 4, 88, 0
4, 5633, Note_on_c, 4, 90, 70
4, 5635, Note_on_c, 4, 86, 70
4, 5654, Note_on_c, 4, 84, 70
4, 5655, Note_on_c, 4, 86, 0
4, 5670, Note_on_c, 4, 84, 0
4, 5671, Note_on_c, 4, 86, 70
4, 5679, Note_on_c, 4, 84, 70
4, 5680, Note_on_c, 4, 86, 0
4, 5687, Note_on_c, 4, 84, 0
4, 5689, Note_on_c, 4, 86, 70
4, 5693, Note_on_c, 4, 84, 70
4, 5698, Note_on_c, 4, 86, 0
4, 5705, Note_on_c, 4, 84, 0
4, 5705, Note_on_c, 4, 82, 70
4, 5719, Note_on_c, 4, 84, 70
4, 5721, Note_on_c, 4, 82, 0
4, 5732, Note_on_c, 4, 84, 0
4, 5753, Note_on_c, 4, 82, 70
4, 5755, Note_on_c, 4, 90, 0
4, 5755, Note_on_c, 4, 91, 70
4, 5804, Note_on_c, 4, 82, 0
4, 5807, Note_on_c, 4, 91, 0
4, 5812, Note_on_c, 4, 82, 70
4, 5815, Note_on_c, 4, 79, 70
4, 5843, Note_on_c, 4, 82, 0
4, 5845, Note_on_c, 4, 79, 0
4, 5869, Note_on_c, 4, 84, 70
4, 5871, Note_on_c, 4, 80, 70
4, 5907, Note_on_c, 4, 84, 0
4, 5927, Note_on_c, 4, 80, 0
4, 5930, Note_on_c, 4, 84, 70
4, 5958, Note_on_c, 4, 86, 70
4, 5980, Note_on_c, 4, 86, 0
4, 5986, Note_on_c, 4, 82, 70
4, 5987, Note_on_c, 4, 84, 0
4, 5989, Note_on_c, 4, 87, 70
4, 6001, Note_on_c, 4, 87, 0
4, 6004, Note_on_c, 4, 86, 70
4, 6013, Note_on_c, 4, 86, 0
4, 6014, Note_on_c, 4, 87, 70
4, 6021, Note_on_c, 4, 87, 0
4, 6024, Note_on_c, 4, 86, 70
4, 6030, Note_on_c, 4, 86, 0
4, 6031, Note_on_c, 4, 87, 70
4, 6037, Note_on_c, 4, 87, 0
4, 6039, Note_on_c, 4, 86, 70
4, 6043, Note_on_c, 4, 87, 70
4, 6044, Note_on_c, 4, 82, 0
4, 6044, Note_on_c, 4, 86, 0
4, 6044, Note_on_c, 4, 80, 70
4, 6051, Note_on_c, 4, 86, 70
4, 6052, Note_on_c, 4, 87, 0
4, 6062, Note_on_c, 4, 87, 70
4, 6065, Note_on_c, 4, 86, 0
4, 6071, Note_on_c, 4, 87, 0
4, 6071, Note_on_c, 4, 86, 70
4, 6075, Note_on_c, 4, 84, 70
4, 6079, Note_on_c, 4, 86, 0
4, 6086, Note_on_c, 4, 84, 0
4, 6088, Note_on_c, 4, 86, 70
4, 6104, Note_on_c, 4, 86, 0
4, 6105, Note_on_c, 4, 87, 70
4, 6106, Note_on_c, 4, 80, 0
4, 6106, Note_on_c, 4, 79, 70
4, 6165, Note_on_c, 4, 77, 70
4, 6167, Note_on_c, 4, 79, 0
4, 6228, Note_on_c, 4, 77, 0
4, 6229, Note_on_c, 4, 79, 70
4, 6319, Note_on_c, 4, 80, 70
4, 6321, Note_on_c, 4, 79, 0
4, 6347, Note_on_c, 4, 80, 0
4, 6349, Note_on_c, 4, 82, 70
4, 6363, Note_on_c, 4, 82, 0
4, 6364, Note_on_c, 4, 80, 70
4, 6375, Note_on_c, 4, 80, 0
4, 6378, Note_on_c, 4, 82, 70
4, 6387, Note_on_c, 4, 80, 70
4, 6388, Note_on_c, 4, 82, 0
4, 6396, Note_on_c, 4, 80, 0
4, 6398, Note_on_c, 4, 82, 70
4, 6405, Note_on_c, 4, 80, 70
4, 6406, Note_on_c, 4, 82, 0
4, 6420, Note_on_c, 4, 80, 0
4, 6421, Note_on_c, 4, 79, 70
4, 6436, Note_on_c, 4, 80, 70
4, 6438, Note_on_c, 4, 79, 0
4, 6454, Note_on_c, 4, 80, 0
4, 6458, Note_on_c, 4, 82, 70
4, 6527, Note_on_c, 4, 87, 0
4, 6529, Note_on_c, 4, 91, 70
4, 6593, Note_on_c, 4, 84, 70
4, 6593, Note_on_c, 4, 89, 70
4, 6594, Note_on_c, 4, 82, 0
4, 6597, Note_on_c, 4, 91, 0
4, 6651, Note_on_c, 4, 87, 70
4, 6652, Note_on_c, 4, 89, 0
4, 6715, Note_on_c, 4, 77, 70
4, 6716, Note_on_c, 4, 87, 0
4, 6716, Note_on_c, 4, 86, 70
4, 6717, Note_on_c, 4, 84, 0
4, 6761, Note_on_c, 4, 86, 0
4, 6775, Note_on_c, 4, 89, 70
4, 6837, Note_on_c, 4, 79, 70
4, 6838, Note_on_c, 4, 89, 0
4, 6838, Note_on_c, 4, 87, 70
4, 6843, Note_on_c, 4, 77, 0
4, 6895, Note_on_c, 4, 87, 0
4, 6896, Note_on_c, 4, 86, 70
4, 6957, Note_on_c, 4, 86, 0
4, 6957, Note_on_c, 4, 84, 70
4, 7018, Note_on_c, 4, 87, 70
4, 7020, Note_on_c, 4, 84, 0
4, 7078, Note_on_c, 4, 87, 0
4, 7079, Note_on_c, 4, 86, 70
4, 7080, Note_on_c, 4, 77, 70
4, 7085, Note_on_c, 4, 79, 0
4, 7138, Note_on_c, 4, 86, 0
4, 7138, Note_on_c, 4, 84, 70
4, 7201, Note_on_c, 4, 83, 70
4, 7203, Note_on_c, 4, 84, 0
4, 7259, Note_on_c, 4, 80, 70
4, 7261, Note_on_c, 4, 77, 0
4, 7319, Note_on_c, 4, 80, 0
4, 7319, Note_on_c, 4, 79, 70
4, 7324, Note_on_c, 4, 83, 0
4, 7377, Note_on_c, 4, 77, 70
4, 7378, Note_on_c, 4, 83, 70
4, 7382, Note_on_c, 4, 79, 0
4, 7442, Note_on_c, 4, 75, 70
4, 7443, Note_on_c, 4, 84, 70
4, 7445, Note_on_c, 4, 83, 0
4, 7446, Note_on_c, 4, 77, 0
4, 7499, Note_on_c, 4, 84, 0
4, 7500, Note_on_c, 4, 83, 70
4, 7501, Note_on_c, 4, 74, 70
4, 7504, Note_on_c, 4, 75, 0
4, 7562, Note_on_c, 4, 75, 70
4, 7563, Note_on_c, 4, 84, 70
4, 7564, Note_on_c, 4, 83, 0
4, 7567, Note_on_c, 4, 74, 0
4, 7621, Note_on_c, 4, 84, 0
4, 7621, Note_on_c, 4, 86, 70
4, 7622, Note_on_c, 4, 77, 70
4, 7624, Note_on_c, 4, 75, 0
4, 7675, Note_on_c, 4, 86, 0
4, 7680, Note_on_c, 4, 74, 70
4, 7681, Note_on_c, 4, 84, 70
4, 7683, Note_on_c, 4, 77, 0
4, 7703, Note_on_c, 4, 83, 70
4, 7704, Note_on_c, 4, 84, 0
4, 7716, Note_on_c, 4, 83, 0
4, 7720, Note_on_c, 4, 84, 70
4, 7728, Note_on_c, 4, 74, 0
4, 7730, Note_on_c, 4, 84, 0
4, 7733, Note_on_c, 4, 83, 70
4, 7734, Note_on_c, 4, 80, 70
4, 7743, Note_on_c, 4, 83, 0
4, 7744, Note_on_c, 4, 84, 70
4, 7757, Note_on_c, 4, 84, 0
4, 7759, Note_on_c, 4, 83, 70
4, 7769, Note_on_c, 4, 83, 0
4, 7770, Note_on_c, 4, 84, 70
4, 7782, Note_on_c, 4, 84, 0
4, 7784, Note_on_c, 4, 83, 70
4, 7789, Note_on_c, 4, 79, 70
4, 7790, Note_on_c, 4, 80, 0
4, 7792, Note_on_c, 4, 83, 0
4, 7792, Note_on_c, 4, 84, 70
4, 7804, Note_on_c, 4, 84, 0
4, 7805, Note_on_c, 4, 83, 70
4, 7813, Note_on_c, 4, 84, 70
4, 7814, Note_on_c, 4, 83, 0
4, 7819, Note_on_c, 4, 84, 0
4, 7820, Note_on_c, 4, 83, 70
4, 7826, Note_on_c, 4, 84, 70
4, 7827, Note_on_c, 4, 83, 0
4, 7837, Note_on_c, 4, 83, 70
4, 7839, Note_on_c, 4, 84, 0
4, 7847, Note_on_c, 4, 77, 70
4, 7850, Note_on_c, 4, 79, 0
4, 7867, Note_on_c, 4, 81, 70
4, 7868, Note_on_c, 4, 83, 0
4, 7888, Note_on_c, 4, 83, 70
4, 7889, Note_on_c, 4, 81, 0
4, 7908, Note_on_c, 4, 84, 70
4, 7909, Note_on_c, 4, 75, 70
4, 7910, Note_on_c, 4, 83, 0
4, 7911, Note_on_c, 4, 77, 0
4, 7971, Note_on_c, 4, 74, 70
4, 7972, Note_on_c, 4, 75, 0
4, 8033, Note_on_c, 4, 75, 70
4, 8035, Note_on_c, 4, 74, 0
4, 8094, Note_on_c, 4, 72, 70
4, 8096, Note_on_c, 4, 75, 0
4, 8154, Note_on_c, 4, 74, 70
4, 8156, Note_on_c, 4, 84, 0
4, 8160, Note_on_c, 4, 72, 0
4, 8214, Note_on_c, 4, 76, 70
4, 8216, Note_on_c, 4, 74, 0
4, 8273, Note_on_c, 4, 77, 70
4, 8276, Note_on_c, 4, 76, 0
4, 8338, Note_on_c, 4, 72, 70
4, 8340, Note_on_c, 4, 77, 0
4, 8401, Note_on_c, 4, 84, 70
4, 8402, Note_on_c, 4, 77, 70
4, 8406, Note_on_c, 4, 72, 0
4, 8488, Note_on_c, 4, 84, 0
4, 8488, Note_on_c, 4, 86, 70
4, 8523, Note_on_c, 4, 84, 70
4, 8526, Note_on_c, 4, 86, 0
4, 8553, Note_on_c, 4, 82, 70
4, 8556, Note_on_c, 4, 84, 0
4, 8579, Note_on_c, 4, 82, 0
4, 8582, Note_on_c, 4, 76, 70
4, 8583, Note_on_c, 4, 81, 70
4, 8585, Note_on_c, 4, 77, 0
4, 8611, Note_on_c, 4, 81, 0
4, 8611, Note_on_c, 4, 82, 70
4, 8644, Note_on_c, 4, 82, 0
4, 8647, Note_on_c, 4, 81, 70
4, 8647, Note_on_c, 4, 77, 70
4, 8650, Note_on_c, 4, 76, 0
4, 8759, Note_on_c, 4, 79, 70
4, 8760, Note_on_c, 4, 81, 0
4, 8760, Note_on_c, 4, 82, 70
4, 8764, Note_on_c, 4, 77, 0
4, 8874, Note_on_c, 4, 84, 70
4, 8874, Note_on_c, 4, 81, 70
4, 8876, Note_on_c, 4, 79, 0
4, 8876, Note_on_c, 4, 82, 0
4, 8964, Note_on_c, 4, 81, 0
4, 8968, Note_on_c, 4, 84, 0
4, 8988, Note_on_c, 4, 82, 70
4, 8989, Note_on_c, 4, 86, 70
4, 9110, Note_on_c, 4, 91, 70
4, 9111, Note_on_c, 4, 83, 70
4, 9113, Note_on_c, 4, 82, 0
4, 9115, Note_on_c, 4, 86, 0
4, 9228, Note_on_c, 4, 89, 70
4, 9233, Note_on_c, 4, 91, 0
4, 9352, Note_on_c, 4, 87, 70
4, 9353, Note_on_c, 4, 89, 0
4, 9354, Note_on_c, 4, 83, 0
4, 9354, Note_on_c, 4, 84, 70
4, 9418, Note_on_c, 4, 87, 0
4, 9418, Note_on_c, 4, 82, 70
4, 9419, Note_on_c, 4, 86, 70
4, 9420, Note_on_c, 4, 84, 0
4, 9482, Note_on_c, 4, 81, 70
4, 9483, Note_on_c, 4, 82, 0
4, 9483, Note_on_c, 4, 86, 0
4, 9483, Note_on_c, 4, 84, 70
4, 9542, Note_on_c, 4, 79, 70
4, 9545, Note_on_c, 4, 81, 0
4, 9604, Note_on_c, 4, 82, 70
4, 9605, Note_on_c, 4, 77, 70
4, 9607, Note_on_c, 4, 84, 0
4, 9609, Note_on_c, 4, 79, 0
4, 9663, Note_on_c, 4, 82, 0
4, 9664, Note_on_c, 4, 80, 70
4, 9715, Note_on_c, 4, 80, 0
4, 9723, Note_on_c, 4, 79, 70
4, 9777, Note_on_c, 4, 75, 70
4, 9782, Note_on_c, 4, 77, 0
4, 9821, Note_on_c, 4, 75, 0
4, 9838, Note_on_c, 4, 69, 70
4, 9839, Note_on_c, 4, 77, 70
4, 9843, Note_on_c, 4, 79, 0
4, 9955, Note_on_c, 4, 70, 70
4, 9960, Note_on_c, 4, 69, 0
4, 9981, Note_on_c, 4, 77, 0
4, 10016, Note_on_c, 4, 77, 70
4, 10079, Note_on_c, 4, 77, 0
4, 10081, Note_on_c, 4, 79, 70
4, 10205, Note_on_c, 4, 77, 70
4, 10209, Note_on_c, 4, 79, 0
4, 10238, Note_on_c, 4, 70, 0
4, 10262, Note_on_c, 4, 69, 70
4, 10320, Note_on_c, 4, 67, 70
4, 10328, Note_on_c, 4, 69, 0
4, 10382, Note_on_c, 4, 69, 70
4, 10385, Note_on_c, 4, 67, 0
4, 10437, Note_on_c, 4, 70, 70
4, 10443, Note_on_c, 4, 69, 0
4, 10499, Note_on_c, 4, 77, 0
4, 10501, Note_on_c, 4, 79, 70
4, 10564, Note_on_c, 4, 80, 70
4, 10565, Note_on_c, 4, 79, 0
4, 10569, Note_on_c, 4, 70, 0
4, 10623, Note_on_c, 4, 77, 70
4, 10680, Note_on_c, 4, 80, 0
4, 10681, Note_on_c, 4, 79, 70
4, 10738, Note_on_c, 4, 75, 70
4, 10744, Note_on_c, 4, 77, 0
4, 10799, Note_on_c, 4, 77, 70
4, 10802, Note_on_c, 4, 79, 0
4, 10854, Note_on_c, 4, 75, 0
4, 10855, Note_on_c, 4, 74, 70
4, 10914, Note_on_c, 4, 77, 0
4, 10915, Note_on_c, 4, 75, 70
4, 10974, Note_on_c, 4, 72, 70
4, 10977, Note_on_c, 4, 74, 0
4, 11034, Note_on_c, 4, 70, 70
4, 11037, Note_on_c, 4, 72, 0
4, 11095, Note_on_c, 4, 75, 0
4, 11097, Note_on_c, 4, 74, 70
4, 11159, Note_on_c, 4, 75, 70
4, 11163, Note_on_c, 4, 74, 0
4, 11219, Note_on_c, 4, 70, 0
4, 11220, Note_on_c, 4, 77, 70
4, 11220, Note_on_c, 4, 74, 70
4, 11221, Note_on_c, 4, 75, 0
4, 11276, Note_on_c, 4, 77, 0
4, 11277, Note_on_c, 4, 79, 70
4, 11278, Note_on_c, 4, 75, 70
4, 11282, Note_on_c, 4, 74, 0
4, 11334, Note_on_c, 4, 79, 0
4, 11335, Note_on_c, 4, 75, 0
4, 11335, Note_on_c, 4, 77, 70
4, 11336, Note_on_c, 4, 80, 70
4, 11359, Note_on_c, 4, 80, 0
4, 11360, Note_on_c, 4, 77, 0
4, 11393, Note_on_c, 4, 79, 70
4, 11394, Note_on_c, 4, 82, 70
4, 11455, Note_on_c, 4, 79, 0
4, 11455, Note_on_c, 4, 75, 70
4, 11514, Note_on_c, 4, 75, 0
4, 11515, Note_on_c, 4, 72, 70
4, 11569, Note_on_c, 4, 82, 0
4, 11573, Note_on_c, 4, 84, 70
4, 11624, Note_on_c, 4, 84, 0
4, 11633, Note_on_c, 4, 74, 70
4, 11634, Note_on_c, 4, 72, 0
4, 11635, Note_on_c, 4, 82, 70
4, 11650, Note_on_c, 4, 82, 0
4, 11652, Note_on_c, 4, 80, 70
4, 11662, Note_on_c, 4, 80, 0
4, 11664, Note_on_c, 4, 82, 70
4, 11674, Note_on_c, 4, 82, 0
4, 11677, Note_on_c, 4, 80, 70
4, 11685, Note_on_c, 4, 80, 0
4, 11686, Note_on_c, 4, 82, 70
4, 11694, Note_on_c, 4, 75, 70
4, 11696, Note_on_c, 4, 82, 0
4, 11697, Note_on_c, 4, 80, 70
4, 11698, Note_on_c, 4, 74, 0
4, 11704, Note_on_c, 4, 80, 0
4, 11705, Note_on_c, 4, 82, 70
4, 11713, Note_on_c, 4, 82, 0
4, 11713, Note_on_c, 4, 80, 70
4, 11721, Note_on_c, 4, 80, 0
4, 11721, Note_on_c, 4, 82, 70
4, 11727, Note_on_c, 4, 82, 0
4, 11729, Note_on_c, 4, 80, 70
4, 11736, Note_on_c, 4, 80, 0
4, 11736, Note_on_c, 4, 82, 70
4, 11740, Note_on_c, 4, 82, 0
4, 11743, Note_on_c, 4, 80, 70
4, 11748, Note_on_c, 4, 82, 70
4, 11749, Note_on_c, 4, 80, 0
4, 11751, Note_on_c, 4, 75, 0
4, 11751, Note_on_c, 4, 77, 70
4, 11753, Note_on_c, 4, 80, 70
4, 11756, Note_on_c, 4, 82, 0
4, 11810, Note_on_c, 4, 80, 0
4, 11810, Note_on_c, 4, 79, 70
4, 11840, Note_on_c, 4, 80, 70
4, 11844, Note_on_c, 4, 79, 0
4, 11870, Note_on_c, 4, 80, 0
4, 11873, Note_on_c, 4, 79, 70
4, 11913, Note_on_c, 4, 77, 0
4, 11933, Note_on_c, 4, 77, 70
4, 11992, Note_on_c, 4, 77, 0
4, 11992, Note_on_c, 4, 75, 70
4, 12051, Note_on_c, 4, 75, 0
4, 12051, Note_on_c, 4, 74, 70
4, 12052, Note_on_c, 4, 79, 0
4, 12053, Note_on_c, 4, 77, 70
4, 12114, Note_on_c, 4, 79, 70
4, 12115, Note_on_c, 4, 74, 0
4, 12115, Note_on_c, 4, 75, 70
4, 12117, Note_on_c, 4, 77, 0
4, 12175, Note_on_c, 4, 79, 0
4, 12176, Note_on_c, 4, 72, 70
4, 12177, Note_on_c, 4, 81, 70
4, 12179, Note_on_c, 4, 75, 0
4, 12218, Note_on_c, 4, 81, 0
4, 12228, Note_on_c, 4, 72, 0
4, 12244, Note_on_c, 4, 82, 70
4, 12244, Note_on_c, 4, 74, 70
4, 12297, Note_on_c, 4, 74, 0
4, 12303, Note_on_c, 4, 75, 70
4, 12305, Note_on_c, 4, 84, 70
4, 12306, Note_on_c, 4, 82, 0
4, 12329, Note_on_c, 4, 75, 0
4, 12367, Note_on_c, 4, 86, 70
4, 12368, Note_on_c, 4, 77, 70
4, 12371, Note_on_c, 4, 84, 0
4, 12455, Note_on_c, 4, 77, 0
4, 12456, Note_on_c, 4, 79, 70
4, 12460, Note_on_c, 4, 86, 0
4, 12460, Note_on_c, 4, 87, 70
4, 12476, Note_on_c, 4, 79, 0
4, 12488, Note_on_c, 4, 77, 70
4, 12489, Note_on_c, 4, 86, 70
4, 12493, Note_on_c, 4, 87, 0
4, 12502, Note_on_c, 4, 77, 0
4, 12503, Note_on_c, 4, 75, 70
4, 12504, Note_on_c, 4, 86, 0
4, 12504, Note_on_c, 4, 84, 70
4, 12514, Note_on_c, 4, 75, 0
4, 12517, Note_on_c, 4, 84, 0
4, 12517, Note_on_c, 4, 77, 70
4, 12520, Note_on_c, 4, 86, 70
4, 12528, Note_on_c, 4, 77, 0
4, 12529, Note_on_c, 4, 75, 70
4, 12530, Note_on_c, 4, 86, 0
4, 12530, Note_on_c, 4, 84, 70
4, 12538, Note_on_c, 4, 86, 70
4, 12539, Note_on_c, 4, 75, 0
4, 12539, Note_on_c, 4, 84, 0
4, 12541, Note_on_c, 4, 77, 70
4, 12550, Note_on_c, 4, 75, 70
4, 12551, Note_on_c, 4, 77, 0
4, 12552, Note_on_c, 4, 84, 70
4, 12554, Note_on_c, 4, 86, 0
4, 12557, Note_on_c, 4, 75, 0
4, 12557, Note_on_c, 4, 77, 70
4, 12565, Note_on_c, 4, 75, 70
4, 12567, Note_on_c, 4, 77, 0
4, 12568, Note_on_c, 4, 82, 70
4, 12572, Note_on_c, 4, 84, 0
4, 12575, Note_on_c, 4, 75, 0
4, 12583, Note_on_c, 4, 82, 0
4, 12584, Note_on_c, 4, 84, 70
4, 12595, Note_on_c, 4, 82, 70
4, 12595, Note_on_c, 4, 74, 70
4, 12600, Note_on_c, 4, 82, 70
4, 12602, Note_on_c, 4, 84, 0
4, 12649, Note_on_c, 4, 82, 0
4, 12655, Note_on_c, 4, 84, 70
4, 12656, Note_on_c, 4, 82, 0
4, 12671, Note_on_c, 4, 74, 0
4, 12711, Note_on_c, 4, 82, 70
4, 12712, Note_on_c, 4, 84, 0
4, 12712, Note_on_c, 4, 86, 70
4, 12766, Note_on_c, 4, 86, 0
4, 12767, Note_on_c, 4, 87, 70
4, 12796, Note_on_c, 4, 84, 70
4, 12797, Note_on_c, 4, 82, 0
4, 12822, Note_on_c, 4, 84, 0
4, 12824, Note_on_c, 4, 82, 70
4, 12827, Note_on_c, 4, 87, 0
4, 12827, Note_on_c, 4, 89, 70
4, 12841, Note_on_c, 4, 82, 0
4, 12841, Note_on_c, 4, 80, 70
4, 12854, Note_on_c, 4, 80, 0
4, 12856, Note_on_c, 4, 82, 70
4, 12868, Note_on_c, 4, 82, 0
4, 12869, Note_on_c, 4, 80, 70
4, 12879, Note_on_c, 4, 80, 0
4, 12881, Note_on_c, 4, 82, 70
4, 12888, Note_on_c, 4, 80, 70
4, 12890, Note_on_c, 4, 82, 0
4, 12899, Note_on_c, 4, 80, 0
4, 12899, Note_on_c, 4, 82, 70
4, 12903, Note_on_c, 4, 82, 0
4, 12903, Note_on_c, 4, 79, 70
4, 12921, Note_on_c, 4, 80, 70
4, 12922, Note_on_c, 4, 79, 0
4, 12951, Note_on_c, 4, 79, 70
4, 12952, Note_on_c, 4, 80, 0
4, 13005, Note_on_c, 4, 89, 0
4, 13007, Note_on_c, 4, 91, 70
4, 13048, Note_on_c, 4, 91, 0
4, 13062, Note_on_c, 4, 89, 70
4, 13075, Note_on_c, 4, 89, 0
4, 13076, Note_on_c, 4, 87, 70
4, 13086, Note_on_c, 4, 87, 0
4, 13089, Note_on_c, 4, 89, 70
4, 13098, Note_on_c, 4, 89, 0
4, 13101, Note_on_c, 4, 87, 70
4, 13108, Note_on_c, 4, 87, 0
4, 13111, Note_on_c, 4, 89, 70
4, 13115, Note_on_c, 4, 77, 70
4, 13117, Note_on_c, 4, 79, 0
4, 13120, Note_on_c, 4, 89, 0
4, 13123, Note_on_c, 4, 87, 70
4, 13130, Note_on_c, 4, 87, 0
4, 13132, Note_on_c, 4, 89, 70
4, 13141, Note_on_c, 4, 89, 0
4, 13145, Note_on_c, 4, 87, 70
4, 13150, Note_on_c, 4, 87, 0
4, 13153, Note_on_c, 4, 89, 70
4, 13161, Note_on_c, 4, 89, 0
4, 13164, Note_on_c, 4, 87, 70
4, 13170, Note_on_c, 4, 87, 0
4, 13171, Note_on_c, 4, 89, 70
4, 13177, Note_on_c, 4, 79, 70
4, 13179, Note_on_c, 4, 77, 0
4, 13179, Note_on_c, 4, 89, 0
4, 13180, Note_on_c, 4, 87, 70
4, 13186, Note_on_c, 4, 87, 0
4, 13186, Note_on_c, 4, 89, 70
4, 13194, Note_on_c, 4, 89, 0
4, 13194, Note_on_c, 4, 87, 70
4, 13235, Note_on_c, 4, 87, 0
4, 13235, Note_on_c, 4, 81, 70
4, 13236, Note_on_c, 4, 79, 0
4, 13236, Note_on_c, 4, 86, 70
4, 13262, Note_on_c, 4, 86, 0
4, 13262, Note_on_c, 4, 87, 70
4, 13291, Note_on_c, 4, 87, 0
4, 13294, Note_on_c, 4, 86, 70
4, 13295, Note_on_c, 4, 82, 70
4, 13300, Note_on_c, 4, 81, 0
4, 13366, Note_on_c, 4, 86, 0
4, 13366, Note_on_c, 4, 84, 70
4, 13373, Note_on_c, 4, 82, 0
4, 13431, Note_on_c, 4, 77, 70
4, 13432, Note_on_c, 4, 86, 70
4, 13437, Note_on_c, 4, 84, 0
4, 13527, Note_on_c, 4, 88, 70
4, 13528, Note_on_c, 4, 79, 70
4, 13531, Note_on_c, 4, 77, 0
4, 13532, Note_on_c, 4, 86, 0
4, 13540, Note_on_c, 4, 88, 0
4, 13541, Note_on_c, 4, 79, 0
4, 13556, Note_on_c, 4, 89, 70
4, 13557, Note_on_c, 4, 81, 70
4, 13568, Note_on_c, 4, 89, 0
4, 13570, Note_on_c, 4, 88, 70
4, 13573, Note_on_c, 4, 81, 0
4, 13574, Note_on_c, 4, 79, 70
4, 13581, Note_on_c, 4, 88, 0
4, 13582, Note_on_c, 4, 89, 70
4, 13586, Note_on_c, 4, 79, 0
4, 13588, Note_on_c, 4, 81, 70
4, 13591, Note_on_c, 4, 89, 0
4, 13593, Note_on_c, 4, 88, 70
4, 13599, Note_on_c, 4, 81, 0
4, 13599, Note_on_c, 4, 79, 70
4, 13601, Note_on_c, 4, 88, 0
4, 13602, Note_on_c, 4, 89, 70
4, 13607, Note_on_c, 4, 79, 0
4, 13608, Note_on_c, 4, 89, 0
4, 13608, Note_on_c, 4, 81, 70
4, 13614, Note_on_c, 4, 89, 70
4, 13617, Note_on_c, 4, 79, 70
4, 13621, Note_on_c, 4, 88, 70
4, 13623, Note_on_c, 4, 89, 0
4, 13626, Note_on_c, 4, 81, 0
4, 13630, Note_on_c, 4, 77, 70
4, 13631, Note_on_c, 4, 79, 0
4, 13640, Note_on_c, 4, 86, 70
4, 13641, Note_on_c, 4, 88, 0
4, 13648, Note_on_c, 4, 88, 70
4, 13649, Note_on_c, 4, 86, 0
4, 13669, Note_on_c, 4, 88, 0
4, 13669, Note_on_c, 4, 79, 70
4, 13670, Note_on_c, 4, 89, 70
4, 13672, Note_on_c, 4, 77, 0
4, 13682, Note_on_c, 4, 79, 0
4, 13682, Note_on_c, 4, 81, 70
4, 13729, Note_on_c, 4, 79, 70
4, 13731, Note_on_c, 4, 81, 0
4, 13783, Note_on_c, 4, 79, 0
4, 13785, Note_on_c, 4, 81, 70
4, 13875, Note_on_c, 4, 81, 0
4, 13875, Note_on_c, 4, 82, 70
4, 13904, Note_on_c, 4, 82, 0
4, 13906, Note_on_c, 4, 84, 70
4, 13921, Note_on_c, 4, 84, 0
4, 13921, Note_on_c, 4, 82, 70
4, 13933, Note_on_c, 4, 82, 0
4, 13938, Note_on_c, 4, 84, 70
4, 13938, Note_on_c, 4, 83, 70
4, 13944, Note_on_c, 4, 83, 0
4, 13945, Note_on_c, 4, 84, 0
4, 13945, Note_on_c, 4, 82, 70
4, 13955, Note_on_c, 4, 82, 0
4, 13958, Note_on_c, 4, 84, 70
4, 13965, Note_on_c, 4, 82, 70
4, 13967, Note_on_c, 4, 84, 0
4, 13979, Note_on_c, 4, 82, 0
4, 13980, Note_on_c, 4, 81, 70
4, 13995, Note_on_c, 4, 82, 70
4, 13998, Note_on_c, 4, 81, 0
4, 14018, Note_on_c, 4, 82, 0
4, 14021, Note_on_c, 4, 84, 70
4, 14084, Note_on_c, 4, 87, 70
4, 14085, Note_on_c, 4, 89, 0
4, 14143, Note_on_c, 4, 87, 0
4, 14144, Note_on_c, 4, 86, 70
4, 14201, Note_on_c, 4, 82, 70
4, 14205, Note_on_c, 4, 84, 0
4, 14265, Note_on_c, 4, 81, 70
4, 14266, Note_on_c, 4, 82, 0
4, 14266, Note_on_c, 4, 84, 70
4, 14267, Note_on_c, 4, 86, 0
4, 14324, Note_on_c, 4, 84, 0
4, 14324, Note_on_c, 4, 79, 70
4, 14325, Note_on_c, 4, 82, 70
4, 14326, Note_on_c, 4, 81, 0
4, 14386, Note_on_c, 4, 82, 0
4, 14387, Note_on_c, 4, 81, 70
4, 14388, Note_on_c, 4, 77, 70
4, 14396, Note_on_c, 4, 79, 0
4, 14427, Note_on_c, 4, 81, 0
4, 14449, Note_on_c, 4, 87, 70
4, 14505, Note_on_c, 4, 87, 0
4, 14509, Note_on_c, 4, 86, 70
4, 14569, Note_on_c, 4, 74, 70
4, 14570, Note_on_c, 4, 84, 70
4, 14572, Note_on_c, 4, 77, 0
4, 14572, Note_on_c, 4, 86, 0
4, 14633, Note_on_c, 4, 84, 0
4, 14633, Note_on_c, 4, 79, 70
4, 14633, Note_on_c, 4, 82, 70
4, 14638, Note_on_c, 4, 74, 0
4, 14689, Note_on_c, 4, 82, 0
4, 14690, Note_on_c, 4, 86, 70
4, 14750, Note_on_c, 4, 84, 70
4, 14755, Note_on_c, 4, 86, 0
4, 14810, Note_on_c, 4, 82, 70
4, 14810, Note_on_c, 4, 72, 70
4, 14811, Note_on_c, 4, 84, 0
4, 14815, Note_on_c, 4, 79, 0
4, 14872, Note_on_c, 4, 82, 0
4, 14873, Note_on_c, 4, 81, 70
4, 14874, Note_on_c, 4, 77, 70
4, 14880, Note_on_c, 4, 72, 0
4, 14920, Note_on_c, 4, 81, 0
4, 14933, Note_on_c, 4, 84, 70
4, 14994, Note_on_c, 4, 82, 70
4, 14995, Note_on_c, 4, 84, 0
4, 15052, Note_on_c, 4, 82, 0
4, 15053, Note_on_c, 4, 81, 70
4, 15113, Note_on_c, 4, 79, 70
4, 15115, Note_on_c, 4, 81, 0
4, 15177, Note_on_c, 4, 81, 70
4, 15180, Note_on_c, 4, 79, 0
4, 15211, Note_on_c, 4, 77, 0
4, 15235, Note_on_c, 4, 82, 70
4, 15236, Note_on_c, 4, 81, 0
4, 15236, Note_on_c, 4, 77, 70
4, 15251, Note_on_c, 4, 77, 0
4, 15252, Note_on_c, 4, 76, 70
4, 15264, Note_on_c, 4, 76, 0
4, 15266, Note_on_c, 4, 77, 70
4, 15278, Note_on_c, 4, 77, 0
4, 15278, Note_on_c, 4, 76, 70
4, 15290, Note_on_c, 4, 76, 0
4, 15293, Note_on_c, 4, 77, 70
4, 15301, Note_on_c, 4, 77, 0
4, 15301, Note_on_c, 4, 76, 70
4, 15311, Note_on_c, 4, 76, 0
4, 15314, Note_on_c, 4, 77, 70
4, 15322, Note_on_c, 4, 77, 0
4, 15322, Note_on_c, 4, 76, 70
4, 15332, Note_on_c, 4, 76, 0
4, 15335, Note_on_c, 4, 77, 70
4, 15343, Note_on_c, 4, 82, 0
4, 15344, Note_on_c, 4, 77, 0
4, 15344, Note_on_c, 4, 76, 70
4, 15345, Note_on_c, 4, 81, 70
4, 15356, Note_on_c, 4, 76, 0
4, 15358, Note_on_c, 4, 77, 70
4, 15366, Note_on_c, 4, 76, 70
4, 15367, Note_on_c, 4, 77, 0
4, 15378, Note_on_c, 4, 76, 0
4, 15380, Note_on_c, 4, 77, 70
4, 15388, Note_on_c, 4, 76, 70
4, 15389, Note_on_c, 4, 77, 0
4, 15395, Note_on_c, 4, 81, 0
4, 15395, Note_on_c, 4, 79, 70
4, 15411, Note_on_c, 4, 74, 70
4, 15412, Note_on_c, 4, 76, 0
4, 15430, Note_on_c, 4, 76, 70
4, 15433, Note_on_c, 4, 74, 0
4, 15449, Note_on_c, 4, 79, 0
4, 15451, Note_on_c, 4, 76, 0
4, 15452, Note_on_c, 4, 77, 70
4, 15516, Note_on_c, 4, 75, 70
4, 15573, Note_on_c, 4, 74, 70
4, 15574, Note_on_c, 4, 75, 0
4, 15638, Note_on_c, 4, 79, 70
4, 15640, Note_on_c, 4, 77, 0
4, 15666, Note_on_c, 4, 75, 70
4, 15668, Note_on_c, 4, 74, 0
4, 15687, Note_on_c, 4, 75, 0
4, 15702, Note_on_c, 4, 74, 70
4, 15703, Note_on_c, 4, 81, 70
4, 15705, Note_on_c, 4, 79, 0
4, 15718, Note_on_c, 4, 74, 0
4, 15719, Note_on_c, 4, 72, 70
4, 15732, Note_on_c, 4, 72, 0
4, 15734, Note_on_c, 4, 74, 70
4, 15742, Note_on_c, 4, 72, 70
4, 15743, Note_on_c, 4, 74, 0
4, 15752, Note_on_c, 4, 72, 0
4, 15757, Note_on_c, 4, 74, 70
4, 15768, Note_on_c, 4, 72, 70
4, 15770, Note_on_c, 4, 74, 0
4, 15785, Note_on_c, 4, 70, 70
4, 15786, Note_on_c, 4, 72, 0
4, 15795, Note_on_c, 4, 72, 70
4, 15798, Note_on_c, 4, 70, 0
4, 15823, Note_on_c, 4, 81, 0
4, 15828, Note_on_c, 4, 72, 0
4, 15833, Note_on_c, 4, 70, 70
4, 15836, Note_on_c, 4, 79, 70
4, 15891, Note_on_c, 4, 79, 0
4, 15897, Note_on_c, 4, 72, 70
4, 15898, Note_on_c, 4, 81, 70
4, 15907, Note_on_c, 4, 70, 0
4, 15960, Note_on_c, 4, 72, 0
4, 15961, Note_on_c, 4, 74, 70
4, 15961, Note_on_c, 4, 82, 70
4, 15963, Note_on_c, 4, 81, 0
4, 16018, Note_on_c, 4, 75, 70
4, 16019, Note_on_c, 4, 74, 0
4, 16076, Note_on_c, 4, 75, 0
4, 16076, Note_on_c, 4, 77, 70
4, 16135, Note_on_c, 4, 70, 70
4, 16137, Note_on_c, 4, 77, 0
4, 16195, Note_on_c, 4, 79, 70
4, 16197, Note_on_c, 4, 70, 0
4, 16253, Note_on_c, 4, 77, 70
4, 16255, Note_on_c, 4, 79, 0
4, 16312, Note_on_c, 4, 82, 0
4, 16312, Note_on_c, 4, 81, 70
4, 16313, Note_on_c, 4, 77, 0
4, 16313, Note_on_c, 4, 75, 70
4, 16375, Note_on_c, 4, 81, 0
4, 16376, Note_on_c, 4, 79, 70
4, 16380, Note_on_c, 4, 75, 0
4, 16433, Note_on_c, 4, 79, 0
4, 16434, Note_on_c, 4, 77, 70
4, 16434, Note_on_c, 4, 81, 70
4, 16494, Note_on_c, 4, 75, 70
4, 16497, Note_on_c, 4, 77, 0
4, 16558, Note_on_c, 4, 75, 0
4, 16558, Note_on_c, 4, 74, 70
4, 16620, Note_on_c, 4, 79, 70
4, 16624, Note_on_c, 4, 81, 0
4, 16648, Note_on_c, 4, 78, 70
4, 16649, Note_on_c, 4, 79, 0
4, 16682, Note_on_c, 4, 79, 70
4, 16684, Note_on_c, 4, 78, 0
4, 16738, Note_on_c, 4, 75, 70
4, 16742, Note_on_c, 4, 74, 0
4, 16799, Note_on_c, 4, 75, 0
4, 16800, Note_on_c, 4, 79, 0
4, 16800, Note_on_c, 4, 74, 70
4, 16800, Note_on_c, 4, 77, 70
4, 16856, Note_on_c, 4, 72, 70
4, 16858, Note_on_c, 4, 74, 0
4, 16920, Note_on_c, 4, 72, 0
4, 16920, Note_on_c, 4, 70, 70
4, 16959, Note_on_c, 4, 77, 0
4, 16983, Note_on_c, 4, 82, 70
4, 17025, Note_on_c, 4, 82, 0
4, 17038, Note_on_c, 4, 81, 70
4, 17094, Note_on_c, 4, 79, 70
4, 17095, Note_on_c, 4, 81, 0
4, 17096, Note_on_c, 4, 70, 0
4, 17157, Note_on_c, 4, 77, 70
4, 17158, Note_on_c, 4, 79, 0
4, 17197, Note_on_c, 4, 77, 0
4, 17215, Note_on_c, 4, 86, 70
4, 17265, Note_on_c, 4, 86, 0
4, 17274, Note_on_c, 4, 84, 70
4, 17336, Note_on_c, 4, 82, 70
4, 17341, Note_on_c, 4, 84, 0
4, 17398, Note_on_c, 4, 81, 70
4, 17400, Note_on_c, 4, 82, 0
4, 17454, Note_on_c, 4, 82, 70
4, 17457, Note_on_c, 4, 81, 0
4, 17510, Note_on_c, 4, 79, 70
4, 17513, Note_on_c, 4, 82, 0
4, 17570, Note_on_c, 4, 81, 70
4, 17572, Note_on_c, 4, 79, 0
4, 17634, Note_on_c, 4, 81, 0
4, 17635, Note_on_c, 4, 82, 70
4, 17694, Note_on_c, 4, 82, 0
4, 17694, Note_on_c, 4, 84, 70
4, 17754, Note_on_c, 4, 86, 70
4, 17759, Note_on_c, 4, 84, 0
4, 17814, Note_on_c, 4, 88, 70
4, 17855, Note_on_c, 4, 86, 0
4, 17871, Note_on_c, 4, 88, 0
4, 17873, Note_on_c, 4, 86, 70
4, 17873, Note_on_c, 4, 90, 70
4, 17889, Note_on_c, 4, 86, 0
4, 17890, Note_on_c, 4, 84, 70
4, 17904, Note_on_c, 4, 84, 0
4, 17905, Note_on_c, 4, 86, 70
4, 17913, Note_on_c, 4, 84, 70
4, 17914, Note_on_c, 4, 86, 0
4, 17921, Note_on_c, 4, 84, 0
4, 17922, Note_on_c, 4, 86, 70
4, 17928, Note_on_c, 4, 84, 70
4, 17932, Note_on_c, 4, 86, 0
4, 17943, Note_on_c, 4, 82, 70
4, 17944, Note_on_c, 4, 84, 0
4, 17958, Note_on_c, 4, 84, 70
4, 17963, Note_on_c, 4, 82, 0
4, 17968, Note_on_c, 4, 84, 0
4, 17996, Note_on_c, 4, 90, 0
4, 17997, Note_on_c, 4, 91, 70
4, 17997, Note_on_c, 4, 82, 70
4, 17998, Note_on_c, 4, 86, 70
4, 18037, Note_on_c, 4, 82, 0
4, 18039, Note_on_c, 4, 86, 0
4, 18051, Note_on_c, 4, 82, 70
4, 18053, Note_on_c, 4, 91, 0
4, 18054, Note_on_c, 4, 79, 70
4, 18085, Note_on_c, 4, 82, 0
4, 18086, Note_on_c, 4, 79, 0
4, 18109, Note_on_c, 4, 84, 70
4, 18109, Note_on_c, 4, 80, 70
4, 18147, Note_on_c, 4, 80, 0
4, 18168, Note_on_c, 4, 82, 70
4, 18198, Note_on_c, 4, 86, 70
4, 18199, Note_on_c, 4, 84, 0
4, 18215, Note_on_c, 4, 86, 0
4, 18224, Note_on_c, 4, 80, 70
4, 18228, Note_on_c, 4, 87, 70
4, 18236, Note_on_c, 4, 80, 0
4, 18245, Note_on_c, 4, 87, 0
4, 18248, Note_on_c, 4, 86, 70
4, 18258, Note_on_c, 4, 86, 0
4, 18261, Note_on_c, 4, 87, 70
4, 18269, Note_on_c, 4, 87, 0
4, 18271, Note_on_c, 4, 86, 70
4, 18278, Note_on_c, 4, 80, 70
4, 18279, Note_on_c, 4, 82, 0
4, 18279, Note_on_c, 4, 86, 0
4, 18280, Note_on_c, 4, 87, 70
4, 18286, Note_on_c, 4, 87, 0
4, 18288, Note_on_c, 4, 86, 70
4, 18310, Note_on_c, 4, 86, 0
4, 18312, Note_on_c, 4, 84, 70
4, 18320, Note_on_c, 4, 84, 0
4, 18321, Note_on_c, 4, 86, 70
4, 18339, Note_on_c, 4, 86, 0
4, 18344, Note_on_c, 4, 80, 0
4, 18344, Note_on_c, 4, 87, 70
4, 18345, Note_on_c, 4, 79, 70
4, 18408, Note_on_c, 4, 77, 70
4, 18411, Note_on_c, 4, 79, 0
4, 18469, Note_on_c, 4, 77, 0
4, 18470, Note_on_c, 4, 79, 70
4, 18560, Note_on_c, 4, 79, 0
4, 18560, Note_on_c, 4, 80, 70
4, 18590, Note_on_c, 4, 80, 0
4, 18592, Note_on_c, 4, 82, 70
4, 18606, Note_on_c, 4, 80, 70
4, 18607, Note_on_c, 4, 82, 0
4, 18618, Note_on_c, 4, 80, 0
4, 18621, Note_on_c, 4, 82, 70
4, 18630, Note_on_c, 4, 82, 0
4, 18630, Note_on_c, 4, 80, 70
4, 18639, Note_on_c, 4, 80, 0
4, 18641, Note_on_c, 4, 82, 70
4, 18649, Note_on_c, 4, 80, 70
4, 18651, Note_on_c, 4, 82, 0
4, 18665, Note_on_c, 4, 80, 0
4, 18666, Note_on_c, 4, 79, 70
4, 18682, Note_on_c, 4, 80, 70
4, 18687, Note_on_c, 4, 79, 0
4, 18707, Note_on_c, 4, 80, 0
4, 18711, Note_on_c, 4, 82, 70
4, 18769, Note_on_c, 4, 87, 0
4, 18771, Note_on_c, 4, 91, 70
4, 18829, Note_on_c, 4, 84, 70
4, 18830, Note_on_c, 4, 89, 70
4, 18833, Note_on_c, 4, 82, 0
4, 18833, Note_on_c, 4, 91, 0
4, 18889, Note_on_c, 4, 87, 70
4, 18891, Note_on_c, 4, 89, 0
4, 18946, Note_on_c, 4, 87, 0
4, 18947, Note_on_c, 4, 77, 70
4, 18948, Note_on_c, 4, 86, 70
4, 18954, Note_on_c, 4, 84, 0
4, 18989, Note_on_c, 4, 86, 0
4, 19011, Note_on_c, 4, 89, 70
4, 19071, Note_on_c, 4, 79, 70
4, 19072, Note_on_c, 4, 87, 70
4, 19075, Note_on_c, 4, 89, 0
4, 19077, Note_on_c, 4, 77, 0
4, 19131, Note_on_c, 4, 87, 0
4, 19133, Note_on_c, 4, 86, 70
4, 19192, Note_on_c, 4, 84, 70
4, 19193, Note_on_c, 4, 86, 0
4, 19254, Note_on_c, 4, 87, 70
4, 19256, Note_on_c, 4, 84, 0
4, 19313, Note_on_c, 4, 87, 0
4, 19313, Note_on_c, 4, 77, 70
4, 19314, Note_on_c, 4, 86, 70
4, 19316, Note_on_c, 4, 79, 0
4, 19379, Note_on_c, 4, 86, 0
4, 19379, Note_on_c, 4, 84, 70
4, 19443, Note_on_c, 4, 83, 70
4, 19445, Note_on_c, 4, 84, 0
4, 19500, Note_on_c, 4, 80, 70
4, 19503, Note_on_c, 4, 77, 0
4, 19562, Note_on_c, 4, 79, 70
4, 19564, Note_on_c, 4, 80, 0
4, 19568, Note_on_c, 4, 83, 0
4, 19618, Note_on_c, 4, 83, 70
4, 19619, Note_on_c, 4, 77, 70
4, 19624, Note_on_c, 4, 79, 0
4, 19679, Note_on_c, 4, 75, 70
4, 19680, Note_on_c, 4, 84, 70
4, 19682, Note_on_c, 4, 83, 0
4, 19682, Note_on_c, 4, 77, 0
4, 19737, Note_on_c, 4, 84, 0
4, 19737, Note_on_c, 4, 83, 70
4, 19738, Note_on_c, 4, 74, 70
4, 19740, Note_on_c, 4, 75, 0
4, 19796, Note_on_c, 4, 83, 0
4, 19797, Note_on_c, 4, 84, 70
4, 19797, Note_on_c, 4, 75, 70
4, 19800, Note_on_c, 4, 74, 0
4, 19854, Note_on_c, 4, 84, 0
4, 19855, Note_on_c, 4, 75, 0
4, 19855, Note_on_c, 4, 86, 70
4, 19856, Note_on_c, 4, 79, 70
4, 19914, Note_on_c, 4, 74, 70
4, 19915, Note_on_c, 4, 84, 70
4, 19917, Note_on_c, 4, 86, 0
4, 19918, Note_on_c, 4, 79, 0
4, 19946, Note_on_c, 4, 84, 0
4, 19946, Note_on_c, 4, 83, 70
4, 19959, Note_on_c, 4, 83, 0
4, 19963, Note_on_c, 4, 84, 70
4, 19971, Note_on_c, 4, 80, 70
4, 19972, Note_on_c, 4, 74, 0
4, 19974, Note_on_c, 4, 84, 0
4, 19975, Note_on_c, 4, 83, 70
4, 19985, Note_on_c, 4, 83, 0
4, 19988, Note_on_c, 4, 84, 70
4, 19997, Note_on_c, 4, 84, 0
4, 20000, Note_on_c, 4, 83, 70
4, 20007, Note_on_c, 4, 83, 0
4, 20009, Note_on_c, 4, 84, 70
4, 20018, Note_on_c, 4, 84, 0
4, 20020, Note_on_c, 4, 83, 70
4, 20027, Note_on_c, 4, 84, 70
4, 20027, Note_on_c, 4, 79, 70
4, 20028, Note_on_c, 4, 83, 0
4, 20029, Note_on_c, 4, 80, 0
4, 20036, Note_on_c, 4, 83, 70
4, 20038, Note_on_c, 4, 84, 0
4, 20044, Note_on_c, 4, 84, 70
4, 20045, Note_on_c, 4, 83, 0
4, 20051, Note_on_c, 4, 84, 0
4, 20052, Note_on_c, 4, 83, 70
4, 20058, Note_on_c, 4, 83, 0
4, 20058, Note_on_c, 4, 84, 70
4, 20074, Note_on_c, 4, 83, 70
4, 20079, Note_on_c, 4, 84, 0
4, 20081, Note_on_c, 4, 79, 0
4, 20081, Note_on_c, 4, 77, 70
4, 20097, Note_on_c, 4, 81, 70
4, 20099, Note_on_c, 4, 83, 0
4, 20116, Note_on_c, 4, 83, 70
4, 20118, Note_on_c, 4, 81, 0
4, 20137, Note_on_c, 4, 75, 70
4, 20137, Note_on_c, 4, 84, 70
4, 20139, Note_on_c, 4, 83, 0
4, 20140, Note_on_c, 4, 77, 0
4, 20201, Note_on_c, 4, 74, 70
4, 20202, Note_on_c, 4, 75, 0
4, 20266, Note_on_c, 4, 75, 70
4, 20269, Note_on_c, 4, 74, 0
4, 20329, Note_on_c, 4, 75, 0
4, 20329, Note_on_c, 4, 72, 70
4, 20338, Note_on_c, 4, 84, 0
4, 20387, Note_on_c, 4, 72, 0
4, 20388, Note_on_c, 4, 74, 70
4, 20448, Note_on_c, 4, 76, 70
4, 20453, Note_on_c, 4, 74, 0
4, 20510, Note_on_c, 4, 77, 70
4, 20512, Note_on_c, 4, 76, 0
4, 20573, Note_on_c, 4, 72, 70
4, 20574, Note_on_c, 4, 77, 0
4, 20639, Note_on_c, 4, 84, 70
4, 20639, Note_on_c, 4, 77, 70
4, 20644, Note_on_c, 4, 72, 0
4, 20726, Note_on_c, 4, 84, 0
4, 20726, Note_on_c, 4, 86, 70
4, 20759, Note_on_c, 4, 84, 70
4, 20761, Note_on_c, 4, 86, 0
4, 20789, Note_on_c, 4, 82, 70
4, 20792, Note_on_c, 4, 84, 0
4, 20815, Note_on_c, 4, 82, 0
4, 20818, Note_on_c, 4, 76, 70
4, 20818, Note_on_c, 4, 81, 70
4, 20821, Note_on_c, 4, 77, 0
4, 20846, Note_on_c, 4, 82, 70
4, 20847, Note_on_c, 4, 81, 0
4, 20877, Note_on_c, 4, 82, 0
4, 20880, Note_on_c, 4, 81, 70
4, 20881, Note_on_c, 4, 77, 70
4, 20885, Note_on_c, 4, 76, 0
4, 20995, Note_on_c, 4, 79, 70
4, 20996, Note_on_c, 4, 82, 70
4, 20998, Note_on_c, 4, 81, 0
4, 20999, Note_on_c, 4, 77, 0
4, 21113, Note_on_c, 4, 81, 70
4, 21114, Note_on_c, 4, 79, 0
4, 21114, Note_on_c, 4, 84, 70
4, 21115, Note_on_c, 4, 82, 0
4, 21232, Note_on_c, 4, 82, 70
4, 21233, Note_on_c, 4, 86, 70
4, 21237, Note_on_c, 4, 81, 0
4, 21237, Note_on_c, 4, 84, 0
4, 21317, Note_on_c, 4, 82, 0
4, 21319, Note_on_c, 4, 86, 0
4, 21359, Note_on_c, 4, 91, 70
4, 21360, Note_on_c, 4, 81, 70
4, 21476, Note_on_c, 4, 89, 70
4, 21477, Note_on_c, 4, 83, 70
4, 21480, Note_on_c, 4, 91, 0
4, 21481, Note_on_c, 4, 81, 0
4, 21578, Note_on_c, 4, 89, 0
4, 21587, Note_on_c, 4, 83, 0
4, 21591, Note_on_c, 4, 87, 70
4, 21593, Note_on_c, 4, 84, 70
4, 21650, Note_on_c, 4, 87, 0
4, 21652, Note_on_c, 4, 82, 70
4, 21653, Note_on_c, 4, 84, 0
4, 21654, Note_on_c, 4, 86, 70
4, 21680, Note_on_c, 4, 86, 0
4, 21681, Note_on_c, 4, 82, 0
4, 21712, Note_on_c, 4, 81, 70
4, 21712, Note_on_c, 4, 84, 70
4, 21775, Note_on_c, 4, 79, 70
4, 21776, Note_on_c, 4, 81, 0
4, 21837, Note_on_c, 4, 82, 70
4, 21837, Note_on_c, 4, 77, 70
4, 21838, Note_on_c, 4, 84, 0
4, 21839, Note_on_c, 4, 79, 0
4, 21897, Note_on_c, 4, 80, 70
4, 21898, Note_on_c, 4, 82, 0
4, 21957, Note_on_c, 4, 80, 0
4, 21958, Note_on_c, 4, 79, 70
4, 21979, Note_on_c, 4, 77, 0
4, 22015, Note_on_c, 4, 75, 70
4, 22074, Note_on_c, 4, 79, 0
4, 22076, Note_on_c, 4, 75, 0
4, 22077, Note_on_c, 4, 77, 70
4, 22078, Note_on_c, 4, 69, 70
4, 22189, Note_on_c, 4, 69, 0
4, 22190, Note_on_c, 4, 70, 70
4, 22244, Note_on_c, 4, 77, 0
4, 22252, Note_on_c, 4, 77, 70
4, 22313, Note_on_c, 4, 77, 0
4, 22313, Note_on_c, 4, 79, 70
4, 22407, Note_on_c, 4, 79, 0
4, 22435, Note_on_c, 4, 77, 70
4, 22500, Note_on_c, 4, 69, 70
4, 22511, Note_on_c, 4, 70, 0
4, 22555, Note_on_c, 4, 69, 0
4, 22555, Note_on_c, 4, 67, 70
4, 22608, Note_on_c, 4, 70, 70
4, 22611, Note_on_c, 4, 67, 0
4, 22666, Note_on_c, 4, 70, 0
4, 22674, Note_on_c, 4, 70, 70
4, 22698, Note_on_c, 4, 77, 0
4, 22734, Note_on_c, 4, 79, 70
4, 22763, Note_on_c, 4, 79, 0
4, 22794, Note_on_c, 4, 80, 70
4, 22817, Note_on_c, 4, 70, 0
4, 22851, Note_on_c, 4, 77, 70
4, 22879, Note_on_c, 4, 80, 0
4, 22914, Note_on_c, 4, 79, 70
4, 22974, Note_on_c, 4, 75, 70
4, 22975, Note_on_c, 4, 77, 0
4, 23026, Note_on_c, 4, 79, 0
4, 23034, Note_on_c, 4, 77, 70
4, 23089, Note_on_c, 4, 75, 0
4, 23090, Note_on_c, 4, 74, 70
4, 23115, Note_on_c, 4, 77, 0
4, 23149, Note_on_c, 4, 75, 70
4, 23158, Note_on_c, 4, 74, 0
4, 23210, Note_on_c, 4, 72, 70
4, 23245, Note_on_c, 4, 72, 0
4, 23273, Note_on_c, 4, 70, 70
4, 23330, Note_on_c, 4, 75, 0
4, 23334, Note_on_c, 4, 74, 70
4, 23395, Note_on_c, 4, 75, 70
4, 23396, Note_on_c, 4, 74, 0
4, 23412, Note_on_c, 4, 70, 0
4, 23418, Note_on_c, 4, 75, 0
4, 23455, Note_on_c, 4, 77, 70
4, 23456, Note_on_c, 4, 74, 70
4, 23509, Note_on_c, 4, 77, 0
4, 23509, Note_on_c, 4, 74, 0
4, 23510, Note_on_c, 4, 75, 70
4, 23512, Note_on_c, 4, 79, 70
4, 23571, Note_on_c, 4, 80, 70
4, 23571, Note_on_c, 4, 77, 70
4, 23577, Note_on_c, 4, 75, 0
4, 23577, Note_on_c, 4, 79, 0
4, 23601, Note_on_c, 4, 80, 0
4, 23608, Note_on_c, 4, 77, 0
4, 23634, Note_on_c, 4, 79, 70
4, 23634, Note_on_c, 4, 82, 70
4, 23696, Note_on_c, 4, 75, 70
4, 23701, Note_on_c, 4, 79, 0
4, 23758, Note_on_c, 4, 75, 0
4, 23758, Note_on_c, 4, 72, 70
4, 23762, Note_on_c, 4, 82, 0
4, 23816, Note_on_c, 4, 84, 70
4, 23870, Note_on_c, 4, 84, 0
4, 23874, Note_on_c, 4, 74, 70
4, 23876, Note_on_c, 4, 82, 70
4, 23879, Note_on_c, 4, 72, 0
4, 23891, Note_on_c, 4, 82, 0
4, 23892, Note_on_c, 4, 80, 70
4, 23902, Note_on_c, 4, 80, 0
4, 23904, Note_on_c, 4, 82, 70
4, 23915, Note_on_c, 4, 82, 0
4, 23917, Note_on_c, 4, 80, 70
4, 23926, Note_on_c, 4, 80, 0
4, 23927, Note_on_c, 4, 82, 70
4, 23933, Note_on_c, 4, 75, 70
4, 23935, Note_on_c, 4, 74, 0
4, 23937, Note_on_c, 4, 82, 0
4, 23940, Note_on_c, 4, 80, 70
4, 23947, Note_on_c, 4, 80, 0
4, 23949, Note_on_c, 4, 82, 70
4, 23958, Note_on_c, 4, 82, 0
4, 23960, Note_on_c, 4, 80, 70
4, 23967, Note_on_c, 4, 80, 0
4, 23969, Note_on_c, 4, 82, 70
4, 23976, Note_on_c, 4, 82, 0
4, 23980, Note_on_c, 4, 82, 70
4, 23986, Note_on_c, 4, 80, 70
4, 23987, Note_on_c, 4, 77, 70
4, 23989, Note_on_c, 4, 82, 0
4, 23990, Note_on_c, 4, 75, 0
4, 24043, Note_on_c, 4, 80, 0
4, 24044, Note_on_c, 4, 79, 70
4, 24075, Note_on_c, 4, 80, 70
4, 24078, Note_on_c, 4, 79, 0
4, 24106, Note_on_c, 4, 80, 0
4, 24108, Note_on_c, 4, 79, 70
4, 24119, Note_on_c, 4, 77, 0
4, 24170, Note_on_c, 4, 77, 70
4, 24229, Note_on_c, 4, 75, 70
4, 24234, Note_on_c, 4, 77, 0
4, 24292, Note_on_c, 4, 77, 70
4, 24293, Note_on_c, 4, 79, 0
4, 24293, Note_on_c, 4, 74, 70
4, 24294, Note_on_c, 4, 75, 0
4, 24352, Note_on_c, 4, 75, 70
4, 24353, Note_on_c, 4, 77, 0
4, 24353, Note_on_c, 4, 79, 70
4, 24354, Note_on_c, 4, 74, 0
4, 24417, Note_on_c, 4, 72, 70
4, 24418, Note_on_c, 4, 80, 70
4, 24419, Note_on_c, 4, 79, 0
4, 24420, Note_on_c, 4, 75, 0
4, 24483, Note_on_c, 4, 74, 70
4, 24483, Note_on_c, 4, 77, 70
4, 24485, Note_on_c, 4, 80, 0
4, 24490, Note_on_c, 4, 72, 0
4, 24597, Note_on_c, 4, 77, 0
4, 24599, Note_on_c, 4, 74, 0
4, 24675, Note_on_c, 4, 77, 70
4, 24728, Note_on_c, 4, 77, 0
4, 24728, Note_on_c, 4, 79, 70
4, 24780, Note_on_c, 4, 81, 70
4, 24783, Note_on_c, 4, 79, 0
4, 24837, Note_on_c, 4, 82, 70
4, 24839, Note_on_c, 4, 81, 0
4, 24893, Note_on_c, 4, 81, 70
4, 24899, Note_on_c, 4, 82, 0
4, 24938, Note_on_c, 4, 81, 0
4, 24951, Note_on_c, 4, 82, 70
4, 25013, Note_on_c, 4, 74, 70
4, 25078, Note_on_c, 4, 76, 70
4, 25083, Note_on_c, 4, 74, 0
4, 25136, Note_on_c, 4, 77, 70
4, 25141, Note_on_c, 4, 76, 0
4, 25195, Note_on_c, 4, 77, 0
4, 25196, Note_on_c, 4, 79, 70
4, 25253, Note_on_c, 4, 82, 0
4, 25254, Note_on_c, 4, 81, 70
4, 25254, Note_on_c, 4, 77, 70
4, 25255, Note_on_c, 4, 79, 0
4, 25316, Note_on_c, 4, 82, 70
4, 25317, Note_on_c, 4, 81, 0
4, 25317, Note_on_c, 4, 79, 70
4, 25320, Note_on_c, 4, 77, 0
4, 25359, Note_on_c, 4, 82, 0
4, 25374, Note_on_c, 4, 86, 70
4, 25435, Note_on_c, 4, 84, 70
4, 25436, Note_on_c, 4, 86, 0
4, 25495, Note_on_c, 4, 82, 70
4, 25500, Note_on_c, 4, 84, 0
4, 25555, Note_on_c, 4, 81, 70
4, 25557, Note_on_c, 4, 82, 0
4, 25616, Note_on_c, 4, 82, 70
4, 25617, Note_on_c, 4, 81, 0
4, 25625, Note_on_c, 4, 79, 0
4, 25675, Note_on_c, 4, 82, 0
4, 25675, Note_on_c, 4, 81, 70
4, 25675, Note_on_c, 4, 77, 70
4, 25731, Note_on_c, 4, 77, 0
4, 25731, Note_on_c, 4, 79, 70
4, 25732, Note_on_c, 4, 82, 70
4, 25734, Note_on_c, 4, 81, 0
4, 25792, Note_on_c, 4, 84, 70
4, 25792, Note_on_c, 4, 77, 70
4, 25793, Note_on_c, 4, 82, 0
4, 25795, Note_on_c, 4, 79, 0
4, 25851, Note_on_c, 4, 75, 70
4, 25852, Note_on_c, 4, 77, 0
4, 25908, Note_on_c, 4, 74, 70
4, 25928, Note_on_c, 4, 75, 0
4, 25970, Note_on_c, 4, 76, 70
4, 25973, Note_on_c, 4, 74, 0
4, 26031, Note_on_c, 4, 74, 70
4, 26032, Note_on_c, 4, 82, 70
4, 26033, Note_on_c, 4, 84, 0
4, 26034, Note_on_c, 4, 76, 0
4, 26091, Note_on_c, 4, 76, 70
4, 26093, Note_on_c, 4, 84, 70
4, 26094, Note_on_c, 4, 82, 0
4, 26097, Note_on_c, 4, 74, 0
4, 26158, Note_on_c, 4, 82, 70
4, 26159, Note_on_c, 4, 77, 70
4, 26162, Note_on_c, 4, 84, 0
4, 26163, Note_on_c, 4, 76, 0
4, 26216, Note_on_c, 4, 82, 0
4, 26216, Note_on_c, 4, 81, 70
4, 26277, Note_on_c, 4, 81, 0
4, 26277, Note_on_c, 4, 79, 70
4, 26337, Note_on_c, 4, 81, 70
4, 26341, Note_on_c, 4, 79, 0
4, 26370, Note_on_c, 4, 81, 0
4, 26396, Note_on_c, 4, 79, 70
4, 26453, Note_on_c, 4, 79, 0
4, 26453, Note_on_c, 4, 81, 70
4, 26509, Note_on_c, 4, 81, 0
4, 26511, Note_on_c, 4, 76, 70
4, 26511, Note_on_c, 4, 82, 70
4, 26514, Note_on_c, 4, 77, 0
4, 26574, Note_on_c, 4, 82, 0
4, 26574, Note_on_c, 4, 84, 70
4, 26625, Note_on_c, 4, 84, 0
4, 26636, Note_on_c, 4, 81, 70
4, 26637, Note_on_c, 4, 76, 0
4, 26699, Note_on_c, 4, 77, 70
4, 26722, Note_on_c, 4, 81, 0
4, 26759, Note_on_c, 4, 77, 0
4, 26759, Note_on_c, 4, 75, 70
4, 26759, Note_on_c, 4, 82, 70
4, 26813, Note_on_c, 4, 74, 70
4, 26816, Note_on_c, 4, 75, 0
4, 26872, Note_on_c, 4, 84, 70
4, 26875, Note_on_c, 4, 74, 0
4, 26875, Note_on_c, 4, 72, 70
4, 26877, Note_on_c, 4, 82, 0
4, 26933, Note_on_c, 4, 75, 70
4, 26936, Note_on_c, 4, 72, 0
4, 26994, Note_on_c, 4, 74, 70
4, 26996, Note_on_c, 4, 75, 0
4, 27054, Note_on_c, 4, 82, 70
4, 27055, Note_on_c, 4, 84, 0
4, 27055, Note_on_c, 4, 79, 70
4, 27056, Note_on_c, 4, 74, 0
4, 27114, Note_on_c, 4, 82, 0
4, 27114, Note_on_c, 4, 77, 70
4, 27115, Note_on_c, 4, 79, 0
4, 27115, Note_on_c, 4, 81, 70
4, 27153, Note_on_c, 4, 81, 0
4, 27176, Note_on_c, 4, 75, 70
4, 27177, Note_on_c, 4, 84, 70
4, 27178, Note_on_c, 4, 77, 0
4, 27236, Note_on_c, 4, 74, 70
4, 27237, Note_on_c, 4, 75, 0
4, 27238, Note_on_c, 4, 82, 70
4, 27239, Note_on_c, 4, 84, 0
4, 27293, Note_on_c, 4, 77, 70
4, 27294, Note_on_c, 4, 74, 0
4, 27294, Note_on_c, 4, 82, 0
4, 27295, Note_on_c, 4, 86, 70
4, 27352, Note_on_c, 4, 77, 0
4, 27354, Note_on_c, 4, 84, 70
4, 27354, Note_on_c, 4, 76, 70
4, 27356, Note_on_c, 4, 86, 0
4, 27417, Note_on_c, 4, 78, 70
4, 27419, Note_on_c, 4, 76, 0
4, 27467, Note_on_c, 4, 78, 0
4, 27478, Note_on_c, 4, 79, 70
4, 27495, Note_on_c, 4, 79, 0
4, 27495, Note_on_c, 4, 78, 70
4, 27506, Note_on_c, 4, 78, 0
4, 27509, Note_on_c, 4, 79, 70
4, 27518, Note_on_c, 4, 79, 0
4, 27519, Note_on_c, 4, 78, 70
4, 27528, Note_on_c, 4, 78, 0
4, 27530, Note_on_c, 4, 79, 70
4, 27540, Note_on_c, 4, 79, 0
4, 27540, Note_on_c, 4, 78, 70
4, 27549, Note_on_c, 4, 78, 0
4, 27551, Note_on_c, 4, 79, 70
4, 27561, Note_on_c, 4, 79, 0
4, 27561, Note_on_c, 4, 78, 70
4, 27571, Note_on_c, 4, 78, 0
4, 27574, Note_on_c, 4, 79, 70
4, 27583, Note_on_c, 4, 79, 0
4, 27583, Note_on_c, 4, 78, 70
4, 27591, Note_on_c, 4, 78, 0
4, 27594, Note_on_c, 4, 79, 70
4, 27601, Note_on_c, 4, 78, 70
4, 27602, Note_on_c, 4, 79, 0
4, 27608, Note_on_c, 4, 79, 70
4, 27609, Note_on_c, 4, 78, 0
4, 27616, Note_on_c, 4, 78, 70
4, 27619, Note_on_c, 4, 79, 0
4, 27656, Note_on_c, 4, 76, 70
4, 27657, Note_on_c, 4, 78, 0
4, 27685, Note_on_c, 4, 78, 70
4, 27688, Note_on_c, 4, 76, 0
4, 27712, Note_on_c, 4, 84, 0
4, 27718, Note_on_c, 4, 79, 70
4, 27720, Note_on_c, 4, 78, 0
4, 27777, Note_on_c, 4, 81, 70
4, 27835, Note_on_c, 4, 82, 70
4, 27842, Note_on_c, 4, 81, 0
4, 27894, Note_on_c, 4, 82, 0
4, 27895, Note_on_c, 4, 84, 70
4, 27954, Note_on_c, 4, 86, 70
4, 27955, Note_on_c, 4, 84, 0
4, 28013, Note_on_c, 4, 77, 70
4, 28018, Note_on_c, 4, 79, 0
4, 28074, Note_on_c, 4, 76, 70
4, 28076, Note_on_c, 4, 77, 0
4, 28081, Note_on_c, 4, 86, 0
4, 28133, Note_on_c, 4, 86, 70
4, 28188, Note_on_c, 4, 86, 0
4, 28194, Note_on_c, 4, 84, 70
4, 28253, Note_on_c, 4, 82, 70
4, 28256, Note_on_c, 4, 84, 0
4, 28309, Note_on_c, 4, 81, 70
4, 28310, Note_on_c, 4, 82, 0
4, 28327, Note_on_c, 4, 76, 0
4, 28371, Note_on_c, 4, 76, 70
4, 28433, Note_on_c, 4, 74, 70
4, 28435, Note_on_c, 4, 76, 0
4, 28493, Note_on_c, 4, 76, 70
4, 28498, Note_on_c, 4, 74, 0
4, 28554, Note_on_c, 4, 74, 70
4, 28556, Note_on_c, 4, 76, 0
4, 28607, Note_on_c, 4, 74, 0
4, 28611, Note_on_c, 4, 76, 70
4, 28669, Note_on_c, 4, 78, 70
4, 28670, Note_on_c, 4, 81, 0
4, 28670, Note_on_c, 4, 76, 0
4, 28733, Note_on_c, 4, 84, 70
4, 28791, Note_on_c, 4, 84, 0
4, 28793, Note_on_c, 4, 86, 70
4, 28853, Note_on_c, 4, 84, 70
4, 28855, Note_on_c, 4, 86, 0
4, 28914, Note_on_c, 4, 82, 70
4, 28916, Note_on_c, 4, 84, 0
4, 28973, Note_on_c, 4, 81, 70
4, 28974, Note_on_c, 4, 82, 0
4, 28976, Note_on_c, 4, 78, 0
4, 29034, Note_on_c, 4, 76, 70
4, 29035, Note_on_c, 4, 79, 70
4, 29038, Note_on_c, 4, 81, 0
4, 29088, Note_on_c, 4, 79, 0
4, 29095, Note_on_c, 4, 82, 70
4, 29141, Note_on_c, 4, 82, 0
4, 29153, Note_on_c, 4, 81, 70
4, 29154, Note_on_c, 4, 77, 70
4, 29157, Note_on_c, 4, 76, 0
4, 29216, Note_on_c, 4, 89, 70
4, 29218, Note_on_c, 4, 81, 0
4, 29276, Note_on_c, 4, 87, 70
4, 29277, Note_on_c, 4, 89, 0
4, 29333, Note_on_c, 4, 87, 0
4, 29335, Note_on_c, 4, 86, 70
4, 29396, Note_on_c, 4, 86, 0
4, 29397, Note_on_c, 4, 84, 70
4, 29438, Note_on_c, 4, 84, 0
4, 29455, Note_on_c, 4, 87, 70
4, 29498, Note_on_c, 4, 77, 0
4, 29510, Note_on_c, 4, 87, 0
4, 29512, Note_on_c, 4, 86, 70
4, 29574, Note_on_c, 4, 82, 70
4, 29635, Note_on_c, 4, 87, 70
4, 29636, Note_on_c, 4, 82, 0
4, 29636, Note_on_c, 4, 80, 70
4, 29639, Note_on_c, 4, 86, 0
4, 29693, Note_on_c, 4, 80, 0
4, 29695, Note_on_c, 4, 79, 70
4, 29754, Note_on_c, 4, 87, 0
4, 29754, Note_on_c, 4, 89, 70
4, 29755, Note_on_c, 4, 77, 70
4, 29756, Note_on_c, 4, 79, 0
4, 29814, Note_on_c, 4, 80, 70
4, 29816, Note_on_c, 4, 77, 0
4, 29875, Note_on_c, 4, 79, 70
4, 29877, Note_on_c, 4, 80, 0
4, 29901, Note_on_c, 4, 89, 0
4, 29937, Note_on_c, 4, 79, 0
4, 29937, Note_on_c, 4, 89, 70
4, 29937, Note_on_c, 4, 80, 70
4, 29996, Note_on_c, 4, 80, 0
4, 29997, Note_on_c, 4, 79, 70
4, 29997, Note_on_c, 4, 87, 70
4, 30001, Note_on_c, 4, 89, 0
4, 30052, Note_on_c, 4, 77, 70
4, 30053, Note_on_c, 4, 87, 0
4, 30053, Note_on_c, 4, 86, 70
4, 30055, Note_on_c, 4, 79, 0
4, 30111, Note_on_c, 4, 75, 70
4, 30112, Note_on_c, 4, 77, 0
4, 30112, Note_on_c, 4, 86, 0
4, 30113, Note_on_c, 4, 84, 70
4, 30165, Note_on_c, 4, 84, 0
4, 30167, Note_on_c, 4, 75, 0
4, 30168, Note_on_c, 4, 87, 70
4, 30169, Note_on_c, 4, 79, 70
4, 30212, Note_on_c, 4, 79, 0
4, 30224, Note_on_c, 4, 87, 0
4, 30228, Note_on_c, 4, 81, 70
4, 30228, Note_on_c, 4, 72, 70
4, 30311, Note_on_c, 4, 72, 0
4, 30349, Note_on_c, 4, 81, 0
4, 30349, Note_on_c, 4, 74, 70
4, 30350, Note_on_c, 4, 82, 70
4, 30403, Note_on_c, 4, 74, 0
4, 30413, Note_on_c, 4, 75, 70
4, 30414, Note_on_c, 4, 84, 70
4, 30415, Note_on_c, 4, 82, 0
4, 30465, Note_on_c, 4, 84, 0
4, 30472, Note_on_c, 4, 75, 0
4, 30474, Note_on_c, 4, 77, 70
4, 30475, Note_on_c, 4, 86, 70
4, 30600, Note_on_c, 4, 77, 0
4, 30601, Note_on_c, 4, 86, 0
4, 30652, Note_on_c, 4, 86, 70
4, 30652, Note_on_c, 4, 77, 70
4, 30694, Note_on_c, 4, 86, 0
4, 30712, Note_on_c, 4, 75, 70
4, 30713, Note_on_c, 4, 84, 70
4, 30716, Note_on_c, 4, 77, 0
4, 30771, Note_on_c, 4, 75, 0
4, 30771, Note_on_c, 4, 82, 70
4, 30772, Note_on_c, 4, 74, 70
4, 30775, Note_on_c, 4, 84, 0
4, 30798, Note_on_c, 4, 74, 0
4, 30827, Note_on_c, 4, 82, 0
4, 30828, Note_on_c, 4, 81, 70
4, 30828, Note_on_c, 4, 72, 70
4, 30855, Note_on_c, 4, 81, 0
4, 30883, Note_on_c, 4, 72, 0
4, 30890, Note_on_c, 4, 75, 70
4, 30891, Note_on_c, 4, 84, 70
4, 30915, Note_on_c, 4, 84, 0
4, 30952, Note_on_c, 4, 75, 0
4, 30953, Note_on_c, 4, 74, 70
4, 30954, Note_on_c, 4, 82, 70
4, 31012, Note_on_c, 4, 79, 70
4, 31013, Note_on_c, 4, 74, 0
4, 31054, Note_on_c, 4, 82, 0
4, 31071, Note_on_c, 4, 77, 70
4, 31071, Note_on_c, 4, 84, 70
4, 31076, Note_on_c, 4, 79, 0
4, 31134, Note_on_c, 4, 75, 70
4, 31136, Note_on_c, 4, 77, 0
4, 31173, Note_on_c, 4, 84, 0
4, 31177, Note_on_c, 4, 75, 0
4, 31192, Note_on_c, 4, 74, 70
4, 31193, Note_on_c, 4, 86, 70
4, 31253, Note_on_c, 4, 77, 70
4, 31257, Note_on_c, 4, 74, 0
4, 31304, Note_on_c, 4, 86, 0
4, 31305, Note_on_c, 4, 77, 0
4, 31321, Note_on_c, 4, 76, 70
4, 31322, Note_on_c, 4, 79, 70
4, 31432, Note_on_c, 4, 77, 70
4, 31433, Note_on_c, 4, 81, 70
4, 31435, Note_on_c, 4, 79, 0
4, 31436, Note_on_c, 4, 76, 0
4, 31546, Note_on_c, 4, 82, 70
4, 31547, Note_on_c, 4, 79, 70
4, 31550, Note_on_c, 4, 77, 0
4, 31551, Note_on_c, 4, 81, 0
4, 31802, Note_on_c, 4, 82, 0
4, 31802, Note_on_c, 4, 77, 70
4, 31802, Note_on_c, 4, 83, 70
4, 31804, Note_on_c, 4, 79, 0
4, 31858, Note_on_c, 4, 79, 70
4, 31862, Note_on_c, 4, 77, 0
4, 31919, Note_on_c, 4, 80, 70
4, 31921, Note_on_c, 4, 79, 0
4, 31938, Note_on_c, 4, 83, 0
4, 31971, Note_on_c, 4, 83, 70
4, 32013, Note_on_c, 4, 83, 0
4, 32034, Note_on_c, 4, 84, 70
4, 32100, Note_on_c, 4, 77, 70
4, 32104, Note_on_c, 4, 80, 0
4, 32213, Note_on_c, 4, 76, 70
4, 32214, Note_on_c, 4, 77, 0
4, 32271, Note_on_c, 4, 74, 70
4, 32275, Note_on_c, 4, 76, 0
4, 32333, Note_on_c, 4, 76, 70
4, 32338, Note_on_c, 4, 74, 0
4, 32389, Note_on_c, 4, 77, 70
4, 32393, Note_on_c, 4, 76, 0
4, 32409, Note_on_c, 4, 84, 0
4, 32453, Note_on_c, 4, 81, 70
4, 32507, Note_on_c, 4, 82, 70
4, 32510, Note_on_c, 4, 81, 0
4, 32565, Note_on_c, 4, 82, 0
4, 32566, Note_on_c, 4, 84, 70
4, 32623, Note_on_c, 4, 84, 0
4, 32623, Note_on_c, 4, 86, 70
4, 32687, Note_on_c, 4, 87, 70
4, 32691, Note_on_c, 4, 86, 0
4, 32750, Note_on_c, 4, 86, 70
4, 32751, Note_on_c, 4, 87, 0
4, 32775, Note_on_c, 4, 77, 0
4, 32814, Note_on_c, 4, 74, 70
4, 32874, Note_on_c, 4, 75, 70
4, 32880, Note_on_c, 4, 74, 0
4, 32930, Note_on_c, 4, 75, 0
4, 32930, Note_on_c, 4, 77, 70
4, 32988, Note_on_c, 4, 77, 0
4, 32988, Note_on_c, 4, 79, 70
4, 33050, Note_on_c, 4, 80, 70
4, 33053, Note_on_c, 4, 79, 0
4, 33083, Note_on_c, 4, 80, 0
4, 33111, Note_on_c, 4, 79, 70
4, 33174, Note_on_c, 4, 86, 0
4, 33175, Note_on_c, 4, 83, 70
4, 33235, Note_on_c, 4, 83, 0
4, 33235, Note_on_c, 4, 84, 70
4, 33294, Note_on_c, 4, 84, 0
4, 33294, Note_on_c, 4, 86, 70
4, 33352, Note_on_c, 4, 87, 70
4, 33355, Note_on_c, 4, 86, 0
4, 33414, Note_on_c, 4, 87, 0
4, 33415, Note_on_c, 4, 89, 70
4, 33472, Note_on_c, 4, 87, 70
4, 33475, Note_on_c, 4, 89, 0
4, 33534, Note_on_c, 4, 75, 70
4, 33538, Note_on_c, 4, 79, 0
4, 33593, Note_on_c, 4, 77, 70
4, 33597, Note_on_c, 4, 75, 0
4, 33651, Note_on_c, 4, 77, 0
4, 33652, Note_on_c, 4, 79, 70
4, 33712, Note_on_c, 4, 80, 70
4, 33716, Note_on_c, 4, 79, 0
4, 33771, Note_on_c, 4, 80, 0
4, 33771, Note_on_c, 4, 82, 70
4, 33833, Note_on_c, 4, 80, 70
4, 33835, Note_on_c, 4, 82, 0
4, 33896, Note_on_c, 4, 87, 0
4, 33898, Note_on_c, 4, 91, 70
4, 33955, Note_on_c, 4, 89, 70
4, 33960, Note_on_c, 4, 91, 0
4, 34015, Note_on_c, 4, 87, 70
4, 34016, Note_on_c, 4, 89, 0
4, 34073, Note_on_c, 4, 87, 0
4, 34074, Note_on_c, 4, 86, 70
4, 34132, Note_on_c, 4, 86, 0
4, 34132, Note_on_c, 4, 84, 70
4, 34170, Note_on_c, 4, 84, 0
4, 34194, Note_on_c, 4, 83, 70
4, 34201, Note_on_c, 4, 80, 0
4, 34260, Note_on_c, 4, 80, 70
4, 34316, Note_on_c, 4, 80, 0
4, 34317, Note_on_c, 4, 79, 70
4, 34317, Note_on_c, 4, 84, 70
4, 34320, Note_on_c, 4, 83, 0
4, 34371, Note_on_c, 4, 77, 70
4, 34375, Note_on_c, 4, 79, 0
4, 34431, Note_on_c, 4, 75, 70
4, 34432, Note_on_c, 4, 84, 0
4, 34432, Note_on_c, 4, 86, 70
4, 34436, Note_on_c, 4, 77, 0
4, 34491, Note_on_c, 4, 74, 70
4, 34493, Note_on_c, 4, 75, 0
4, 34557, Note_on_c, 4, 75, 70
4, 34563, Note_on_c, 4, 74, 0
4, 34589, Note_on_c, 4, 86, 0
4, 34616, Note_on_c, 4, 89, 70
4, 34676, Note_on_c, 4, 87, 70
4, 34677, Note_on_c, 4, 89, 0
4, 34734, Note_on_c, 4, 87, 0
4, 34736, Note_on_c, 4, 86, 70
4, 34793, Note_on_c, 4, 86, 0
4, 34793, Note_on_c, 4, 84, 70
4, 34854, Note_on_c, 4, 82, 70
4, 34855, Note_on_c, 4, 84, 0
4, 34918, Note_on_c, 4, 82, 0
4, 34918, Note_on_c, 4, 80, 70
4, 34980, Note_on_c, 4, 84, 70
4, 34982, Note_on_c, 4, 80, 0
4, 35017, Note_on_c, 4, 75, 0
4, 35043, Note_on_c, 4, 82, 70
4, 35046, Note_on_c, 4, 75, 70
4, 35047, Note_on_c, 4, 84, 0
4, 35068, Note_on_c, 4, 74, 70
4, 35069, Note_on_c, 4, 75, 0
4, 35083, Note_on_c, 4, 74, 0
4, 35085, Note_on_c, 4, 75, 70
4, 35095, Note_on_c, 4, 80, 70
4, 35097, Note_on_c, 4, 82, 0
4, 35098, Note_on_c, 4, 75, 0
4, 35099, Note_on_c, 4, 74, 70
4, 35113, Note_on_c, 4, 74, 0
4, 35115, Note_on_c, 4, 75, 70
4, 35126, Note_on_c, 4, 75, 0
4, 35126, Note_on_c, 4, 74, 70
4, 35137, Note_on_c, 4, 74, 0
4, 35139, Note_on_c, 4, 75, 70
4, 35148, Note_on_c, 4, 75, 0
4, 35148, Note_on_c, 4, 74, 70
4, 35151, Note_on_c, 4, 79, 70
4, 35153, Note_on_c, 4, 80, 0
4, 35160, Note_on_c, 4, 74, 0
4, 35161, Note_on_c, 4, 75, 70
4, 35171, Note_on_c, 4, 75, 0
4, 35172, Note_on_c, 4, 74, 70
4, 35181, Note_on_c, 4, 74, 0
4, 35182, Note_on_c, 4, 75, 70
4, 35191, Note_on_c, 4, 75, 0
4, 35191, Note_on_c, 4, 74, 70
4, 35201, Note_on_c, 4, 77, 70
4, 35205, Note_on_c, 4, 79, 0
4, 35208, Note_on_c, 4, 72, 70
4, 35209, Note_on_c, 4, 74, 0
4, 35233, Note_on_c, 4, 74, 70
4, 35239, Note_on_c, 4, 72, 0
4, 35261, Note_on_c, 4, 77, 0
4, 35265, Note_on_c, 4, 74, 0
4, 35265, Note_on_c, 4, 79, 70
4, 35265, Note_on_c, 4, 75, 70
4, 35326, Note_on_c, 4, 75, 0
4, 35326, Note_on_c, 4, 77, 70
4, 35326, Note_on_c, 4, 80, 70
4, 35328, Note_on_c, 4, 79, 0
4, 35382, Note_on_c, 4, 80, 0
4, 35382, Note_on_c, 4, 82, 70
4, 35383, Note_on_c, 4, 77, 0
4, 35383, Note_on_c, 4, 79, 70
4, 35439, Note_on_c, 4, 79, 0
4, 35443, Note_on_c, 4, 84, 70
4, 35443, Note_on_c, 4, 81, 70
4, 35445, Note_on_c, 4, 82, 0
4, 35500, Note_on_c, 4, 82, 70
4, 35501, Note_on_c, 4, 84, 0
4, 35501, Note_on_c, 4, 86, 70
4, 35510, Note_on_c, 4, 81, 0
4, 35530, Note_on_c, 4, 82, 0
4, 35562, Note_on_c, 4, 87, 70
4, 35563, Note_on_c, 4, 86, 0
4, 35563, Note_on_c, 4, 84, 70
4, 35585, Note_on_c, 4, 87, 0
4, 35586, Note_on_c, 4, 84, 0
4, 35626, Note_on_c, 4, 77, 70
4, 35627, Note_on_c, 4, 81, 70
4, 35751, Note_on_c, 4, 72, 70
4, 35753, Note_on_c, 4, 77, 0
4, 35873, Note_on_c, 4, 80, 70
4, 35874, Note_on_c, 4, 77, 70
4, 35878, Note_on_c, 4, 81, 0
4, 35879, Note_on_c, 4, 72, 0
4, 36063, Note_on_c, 4, 77, 0
4, 36098, Note_on_c, 4, 80, 0
4, 36117, Note_on_c, 4, 74, 70
4, 36118, Note_on_c, 4, 71, 70
4, 36237, Note_on_c, 4, 79, 70
4, 36238, Note_on_c, 4, 74, 0
4, 36323, Note_on_c, 4, 71, 0
4, 36359, Note_on_c, 4, 72, 70
4, 36420, Note_on_c, 4, 74, 70
4, 36422, Note_on_c, 4, 72, 0
4, 36479, Note_on_c, 4, 75, 70
4, 36480, Note_on_c, 4, 79, 0
4, 36484, Note_on_c, 4, 74, 0
4, 36534, Note_on_c, 4, 77, 70
4, 36538, Note_on_c, 4, 75, 0
4, 36592, Note_on_c, 4, 79, 70
4, 36593, Note_on_c, 4, 77, 0
4, 36649, Note_on_c, 4, 72, 70
4, 36654, Note_on_c, 4, 79, 0
4, 36713, Note_on_c, 4, 80, 70
4, 36714, Note_on_c, 4, 72, 0
4, 36765, Note_on_c, 4, 80, 0
4, 36770, Note_on_c, 4, 72, 70
4, 36832, Note_on_c, 4, 71, 70
4, 36833, Note_on_c, 4, 72, 0
4, 36893, Note_on_c, 4, 71, 0
4, 36893, Note_on_c, 4, 77, 70
4, 36956, Note_on_c, 4, 75, 70
4, 36960, Note_on_c, 4, 77, 0
4, 37017, Note_on_c, 4, 71, 70
4, 37019, Note_on_c, 4, 75, 0
4, 37078, Note_on_c, 4, 71, 0
4, 37079, Note_on_c, 4, 72, 70
4, 37140, Note_on_c, 4, 79, 70
4, 37200, Note_on_c, 4, 80, 70
4, 37201, Note_on_c, 4, 79, 0
4, 37256, Note_on_c, 4, 79, 70
4, 37257, Note_on_c, 4, 80, 0
4, 37271, Note_on_c, 4, 72, 0
4, 37315, Note_on_c, 4, 79, 0
4, 37318, Note_on_c, 4, 77, 70
4, 37318, Note_on_c, 4, 71, 70
4, 37377, Note_on_c, 4, 79, 70
4, 37380, Note_on_c, 4, 77, 0
4, 37391, Note_on_c, 4, 71, 0
4, 37434, Note_on_c, 4, 79, 0
4, 37438, Note_on_c, 4, 76, 70
4, 37439, Note_on_c, 4, 72, 70
4, 37482, Note_on_c, 4, 76, 0
4, 37504, Note_on_c, 4, 84, 70
4, 37527, Note_on_c, 4, 72, 0
4, 37564, Note_on_c, 4, 74, 70
4, 37589, Note_on_c, 4, 84, 0
4, 37620, Note_on_c, 4, 82, 70
4, 37656, Note_on_c, 4, 82, 0
4, 37680, Note_on_c, 4, 74, 0
4, 37681, Note_on_c, 4, 80, 70
4, 37681, Note_on_c, 4, 75, 70
4, 37733, Note_on_c, 4, 80, 0
4, 37735, Note_on_c, 4, 79, 70
4, 37795, Note_on_c, 4, 79, 0
4, 37796, Note_on_c, 4, 80, 70
4, 37797, Note_on_c, 4, 77, 70
4, 37802, Note_on_c, 4, 75, 0
4, 37837, Note_on_c, 4, 80, 0
4, 37858, Note_on_c, 4, 84, 70
4, 37899, Note_on_c, 4, 84, 0
4, 37918, Note_on_c, 4, 89, 70
4, 37922, Note_on_c, 4, 77, 0
4, 37952, Note_on_c, 4, 89, 0
4, 37975, Note_on_c, 4, 79, 70
4, 37976, Note_on_c, 4, 88, 70
4, 38021, Note_on_c, 4, 88, 0
4, 38034, Note_on_c, 4, 79, 0
4, 38036, Note_on_c, 4, 81, 70
4, 38038, Note_on_c, 4, 89, 70
4, 38094, Note_on_c, 4, 89, 0
4, 38095, Note_on_c, 4, 81, 0
4, 38095, Note_on_c, 4, 82, 70
4, 38096, Note_on_c, 4, 91, 70
4, 38151, Note_on_c, 4, 91, 0
4, 38153, Note_on_c, 4, 82, 0
4, 38154, Note_on_c, 4, 88, 70
4, 38155, Note_on_c, 4, 84, 70
4, 38213, Note_on_c, 4, 85, 70
4, 38214, Note_on_c, 4, 84, 0
4, 38273, Note_on_c, 4, 85, 0
4, 38273, Note_on_c, 4, 84, 70
4, 38274, Note_on_c, 4, 89, 70
4, 38276, Note_on_c, 4, 88, 0
4, 38333, Note_on_c, 4, 82, 70
4, 38335, Note_on_c, 4, 84, 0
4, 38395, Note_on_c, 4, 89, 0
4, 38395, Note_on_c, 4, 91, 70
4, 38396, Note_on_c, 4, 80, 70
4, 38400, Note_on_c, 4, 82, 0
4, 38452, Note_on_c, 4, 80, 0
4, 38452, Note_on_c, 4, 79, 70
4, 38518, Note_on_c, 4, 92, 70
4, 38518, Note_on_c, 4, 77, 70
4, 38519, Note_on_c, 4, 91, 0
4, 38522, Note_on_c, 4, 79, 0
4, 38552, Note_on_c, 4, 77, 0
4, 38580, Note_on_c, 4, 91, 70
4, 38640, Note_on_c, 4, 89, 70
4, 38642, Note_on_c, 4, 91, 0
4, 38697, Note_on_c, 4, 87, 70
4, 38700, Note_on_c, 4, 89, 0
4, 38754, Note_on_c, 4, 85, 70
4, 38758, Note_on_c, 4, 87, 0
4, 38814, Note_on_c, 4, 84, 70
4, 38816, Note_on_c, 4, 85, 0
4, 38875, Note_on_c, 4, 84, 0
4, 38875, Note_on_c, 4, 85, 70
4, 38934, Note_on_c, 4, 92, 0
4, 38936, Note_on_c, 4, 96, 70
4, 38993, Note_on_c, 4, 94, 70
4, 38996, Note_on_c, 4, 96, 0
4, 39048, Note_on_c, 4, 85, 0
4, 39049, Note_on_c, 4, 84, 70
4, 39050, Note_on_c, 4, 92, 70
4, 39051, Note_on_c, 4, 94, 0
4, 39112, Note_on_c, 4, 92, 0
4, 39112, Note_on_c, 4, 82, 70
4, 39112, Note_on_c, 4, 91, 70
4, 39116, Note_on_c, 4, 84, 0
4, 39171, Note_on_c, 4, 91, 0
4, 39171, Note_on_c, 4, 92, 70
4, 39202, Note_on_c, 4, 94, 70
4, 39203, Note_on_c, 4, 92, 0
4, 39217, Note_on_c, 4, 94, 0
4, 39237, Note_on_c, 4, 88, 70
4, 39294, Note_on_c, 4, 85, 70
4, 39296, Note_on_c, 4, 82, 0
4, 39355, Note_on_c, 4, 84, 70
4, 39356, Note_on_c, 4, 85, 0
4, 39358, Note_on_c, 4, 88, 0
4, 39414, Note_on_c, 4, 82, 70
4, 39414, Note_on_c, 4, 88, 70
4, 39419, Note_on_c, 4, 84, 0
4, 39451, Note_on_c, 4, 88, 0
4, 39477, Note_on_c, 4, 89, 70
4, 39479, Note_on_c, 4, 80, 70
4, 39482, Note_on_c, 4, 82, 0
4, 39536, Note_on_c, 4, 79, 70
4, 39538, Note_on_c, 4, 80, 0
4, 39597, Note_on_c, 4, 80, 70
4, 39600, Note_on_c, 4, 79, 0
4, 39651, Note_on_c, 4, 89, 0
4, 39653, Note_on_c, 4, 80, 0
4, 39654, Note_on_c, 4, 82, 70
4, 39654, Note_on_c, 4, 91, 70
4, 39711, Note_on_c, 4, 91, 0
4, 39714, Note_on_c, 4, 89, 70
4, 39715, Note_on_c, 4, 79, 70
4, 39716, Note_on_c, 4, 82, 0
4, 39745, Note_on_c, 4, 89, 0
4, 39745, Note_on_c, 4, 88, 70
4, 39759, Note_on_c, 4, 88, 0
4, 39762, Note_on_c, 4, 89, 70
4, 39767, Note_on_c, 4, 84, 70
4, 39769, Note_on_c, 4, 79, 0
4, 39772, Note_on_c, 4, 89, 0
4, 39774, Note_on_c, 4, 88, 70
4, 39784, Note_on_c, 4, 88, 0
4, 39787, Note_on_c, 4, 89, 70
4, 39796, Note_on_c, 4, 89, 0
4, 39798, Note_on_c, 4, 88, 70
4, 39807, Note_on_c, 4, 88, 0
4, 39808, Note_on_c, 4, 89, 70
4, 39817, Note_on_c, 4, 84, 0
4, 39818, Note_on_c, 4, 82, 70
4, 39818, Note_on_c, 4, 88, 70
4, 39823, Note_on_c, 4, 88, 0
4, 39827, Note_on_c, 4, 89, 0
4, 39828, Note_on_c, 4, 88, 70
4, 39878, Note_on_c, 4, 82, 0
4, 39879, Note_on_c, 4, 84, 70
4, 39910, Note_on_c, 4, 89, 70
4, 39914, Note_on_c, 4, 88, 0
4, 39932, Note_on_c, 4, 89, 0
4, 39949, Note_on_c, 4, 89, 70
4, 39950, Note_on_c, 4, 81, 70
4, 39953, Note_on_c, 4, 84, 0
4, 40017, Note_on_c, 4, 79, 70
4, 40020, Note_on_c, 4, 81, 0
4, 40038, Note_on_c, 4, 89, 0
4, 40079, Note_on_c, 4, 84, 70
4, 40080, Note_on_c, 4, 81, 70
4, 40082, Note_on_c, 4, 79, 0
4, 40166, Note_on_c, 4, 86, 70
4, 40167, Note_on_c, 4, 82, 70
4, 40168, Note_on_c, 4, 84, 0
4, 40170, Note_on_c, 4, 81, 0
4, 40188, Note_on_c, 4, 86, 0
4, 40198, Note_on_c, 4, 84, 70
4, 40199, Note_on_c, 4, 82, 0
4, 40200, Note_on_c, 4, 81, 70
4, 40212, Note_on_c, 4, 82, 70
4, 40213, Note_on_c, 4, 84, 0
4, 40215, Note_on_c, 4, 79, 70
4, 40219, Note_on_c, 4, 81, 0
4, 40224, Note_on_c, 4, 82, 0
4, 40226, Note_on_c, 4, 84, 70
4, 40229, Note_on_c, 4, 79, 0
4, 40230, Note_on_c, 4, 81, 70
4, 40234, Note_on_c, 4, 84, 0
4, 40236, Note_on_c, 4, 82, 70
4, 40240, Note_on_c, 4, 81, 0
4, 40240, Note_on_c, 4, 79, 70
4, 40241, Note_on_c, 4, 84, 70
4, 40242, Note_on_c, 4, 82, 0
4, 40250, Note_on_c, 4, 81, 70
4, 40251, Note_on_c, 4, 82, 70
4, 40255, Note_on_c, 4, 81, 0
4, 40263, Note_on_c, 4, 84, 0
4, 40271, Note_on_c, 4, 79, 0
4, 40279, Note_on_c, 4, 82, 0
4, 40280, Note_on_c, 4, 81, 70
4, 40292, Note_on_c, 4, 82, 70
4, 40293, Note_on_c, 4, 81, 0
4, 40308, Note_on_c, 4, 82, 0
4, 40309, Note_on_c, 4, 81, 70
4, 40312, Note_on_c, 4, 77, 70
4, 40363, Note_on_c, 4, 81, 0
4, 40368, Note_on_c, 4, 77, 0
4, 40369, Note_on_c, 4, 79, 70
4, 40423, Note_on_c, 4, 89, 70
4, 40425, Note_on_c, 4, 79, 0
4, 40425, Note_on_c, 4, 81, 70
4, 40483, Note_on_c, 4, 82, 70
4, 40486, Note_on_c, 4, 81, 0
4, 40511, Note_on_c, 4, 91, 70
4, 40513, Note_on_c, 4, 89, 0
4, 40544, Note_on_c, 4, 89, 70
4, 40545, Note_on_c, 4, 84, 70
4, 40546, Note_on_c, 4, 91, 0
4, 40547, Note_on_c, 4, 82, 0
4, 40559, Note_on_c, 4, 89, 0
4, 40560, Note_on_c, 4, 87, 70
4, 40571, Note_on_c, 4, 87, 0
4, 40573, Note_on_c, 4, 89, 70
4, 40581, Note_on_c, 4, 89, 0
4, 40584, Note_on_c, 4, 87, 70
4, 40589, Note_on_c, 4, 89, 70
4, 40593, Note_on_c, 4, 87, 0
4, 40596, Note_on_c, 4, 89, 0
4, 40603, Note_on_c, 4, 89, 70
4, 40609, Note_on_c, 4, 87, 70
4, 40616, Note_on_c, 4, 89, 0
4, 40631, Note_on_c, 4, 86, 70
4, 40632, Note_on_c, 4, 87, 0
4, 40647, Note_on_c, 4, 86, 0
4, 40647, Note_on_c, 4, 87, 70
4, 40662, Note_on_c, 4, 87, 0
4, 40671, Note_on_c, 4, 86, 70
4, 40744, Note_on_c, 4, 86, 0
4, 40754, Note_on_c, 4, 84, 0
4, 40757, Note_on_c, 4, 86, 70
4, 40789, Note_on_c, 4, 84, 70
4, 40800, Note_on_c, 4, 84, 0
4, 40802, Note_on_c, 4, 82, 70
4, 40809, Note_on_c, 4, 82, 0
4, 40813, Note_on_c, 4, 84, 70
4, 40826, Note_on_c, 4, 84, 0
4, 40826, Note_on_c, 4, 82, 70
4, 40835, Note_on_c, 4, 82, 0
4, 40838, Note_on_c, 4, 84, 70
4, 40843, Note_on_c, 4, 82, 70
4, 40844, Note_on_c, 4, 84, 0
4, 40853, Note_on_c, 4, 84, 70
4, 40854, Note_on_c, 4, 86, 0
4, 40900, Note_on_c, 4, 86, 70
4, 40906, Note_on_c, 4, 84, 0
4, 40960, Note_on_c, 4, 88, 70
4, 40961, Note_on_c, 4, 82, 0
4, 40961, Note_on_c, 4, 81, 70
4, 40963, Note_on_c, 4, 86, 0
4, 40984, Note_on_c, 4, 81, 0
4, 40988, Note_on_c, 4, 82, 70
4, 41026, Note_on_c, 4, 88, 0
4, 41026, Note_on_c, 4, 82, 0
4, 41026, Note_on_c, 4, 89, 70
4, 41027, Note_on_c, 4, 81, 70
4, 41093, Note_on_c, 4, 79, 70
4, 41094, Note_on_c, 4, 81, 0
4, 41150, Note_on_c, 4, 77, 70
4, 41154, Note_on_c, 4, 79, 0
4, 41210, Note_on_c, 4, 75, 70
4, 41211, Note_on_c, 4, 77, 0
4, 41270, Note_on_c, 4, 75, 0
4, 41272, Note_on_c, 4, 74, 70
4, 41333, Note_on_c, 4, 72, 70
4, 41333, Note_on_c, 4, 87, 70
4, 41334, Note_on_c, 4, 74, 0
4, 41335, Note_on_c, 4, 89, 0
4, 41400, Note_on_c, 4, 87, 0
4, 41401, Note_on_c, 4, 86, 70
4, 41402, Note_on_c, 4, 70, 70
4, 41407, Note_on_c, 4, 72, 0
4, 41463, Note_on_c, 4, 86, 0
4, 41463, Note_on_c, 4, 84, 70
4, 41516, Note_on_c, 4, 86, 70
4, 41516, Note_on_c, 4, 77, 70
4, 41519, Note_on_c, 4, 84, 0
4, 41520, Note_on_c, 4, 70, 0
4, 41607, Note_on_c, 4, 77, 0
4, 41608, Note_on_c, 4, 79, 70
4, 41608, Note_on_c, 4, 87, 70
4, 41612, Note_on_c, 4, 86, 0
4, 41617, Note_on_c, 4, 87, 0
4, 41630, Note_on_c, 4, 79, 0
4, 41641, Note_on_c, 4, 86, 70
4, 41642, Note_on_c, 4, 77, 70
4, 41658, Note_on_c, 4, 86, 0
4, 41658, Note_on_c, 4, 84, 70
4, 41659, Note_on_c, 4, 77, 0
4, 41659, Note_on_c, 4, 75, 70
4, 41671, Note_on_c, 4, 75, 0
4, 41672, Note_on_c, 4, 77, 70
4, 41673, Note_on_c, 4, 84, 0
4, 41674, Note_on_c, 4, 86, 70
4, 41681, Note_on_c, 4, 84, 70
4, 41682, Note_on_c, 4, 86, 0
4, 41682, Note_on_c, 4, 75, 70
4, 41683, Note_on_c, 4, 77, 0
4, 41689, Note_on_c, 4, 84, 0
4, 41690, Note_on_c, 4, 86, 70
4, 41691, Note_on_c, 4, 75, 0
4, 41693, Note_on_c, 4, 77, 70
4, 41695, Note_on_c, 4, 84, 70
4, 41698, Note_on_c, 4, 75, 70
4, 41701, Note_on_c, 4, 86, 0
4, 41701, Note_on_c, 4, 77, 0
4, 41708, Note_on_c, 4, 77, 70
4, 41709, Note_on_c, 4, 75, 0
4, 41718, Note_on_c, 4, 84, 0
4, 41718, Note_on_c, 4, 82, 70
4, 41725, Note_on_c, 4, 77, 0
4, 41730, Note_on_c, 4, 82, 0
4, 41731, Note_on_c, 4, 84, 70
4, 41761, Note_on_c, 4, 84, 0
4, 41761, Note_on_c, 4, 82, 70
4, 41763, Note_on_c, 4, 74, 70
4, 41764, Note_on_c, 4, 72, 70
4, 41770, Note_on_c, 4, 72, 0
4, 41818, Note_on_c, 4, 82, 0
4, 41818, Note_on_c, 4, 84, 70
4, 41873, Note_on_c, 4, 82, 70
4, 41874, Note_on_c, 4, 84, 0
4, 41875, Note_on_c, 4, 86, 70
4, 41876, Note_on_c, 4, 74, 0
4, 41929, Note_on_c, 4, 86, 0
4, 41930, Note_on_c, 4, 87, 70
4, 41958, Note_on_c, 4, 84, 70
4, 41959, Note_on_c, 4, 82, 0
4, 41982, Note_on_c, 4, 84, 0
4, 41985, Note_on_c, 4, 82, 70
4, 41987, Note_on_c, 4, 87, 0
4, 41987, Note_on_c, 4, 89, 70
4, 42000, Note_on_c, 4, 82, 0
4, 42002, Note_on_c, 4, 80, 70
4, 42012, Note_on_c, 4, 80, 0
4, 42015, Note_on_c, 4, 82, 70
4, 42025, Note_on_c, 4, 82, 0
4, 42026, Note_on_c, 4, 80, 70
4, 42034, Note_on_c, 4, 80, 0
4, 42037, Note_on_c, 4, 82, 70
4, 42045, Note_on_c, 4, 80, 70
4, 42046, Note_on_c, 4, 82, 0
4, 42052, Note_on_c, 4, 80, 0
4, 42052, Note_on_c, 4, 82, 70
4, 42061, Note_on_c, 4, 80, 70
4, 42063, Note_on_c, 4, 82, 0
4, 42078, Note_on_c, 4, 79, 70
4, 42079, Note_on_c, 4, 80, 0
4, 42090, Note_on_c, 4, 79, 0
4, 42090, Note_on_c, 4, 80, 70
4, 42104, Note_on_c, 4, 80, 0
4, 42106, Note_on_c, 4, 79, 70
4, 42164, Note_on_c, 4, 89, 0
4, 42165, Note_on_c, 4, 91, 70
4, 42208, Note_on_c, 4, 91, 0
4, 42223, Note_on_c, 4, 89, 70
4, 42236, Note_on_c, 4, 89, 0
4, 42238, Note_on_c, 4, 87, 70
4, 42248, Note_on_c, 4, 87, 0
4, 42252, Note_on_c, 4, 89, 70
4, 42260, Note_on_c, 4, 89, 0
4, 42264, Note_on_c, 4, 87, 70
4, 42270, Note_on_c, 4, 87, 0
4, 42275, Note_on_c, 4, 89, 70
4, 42282, Note_on_c, 4, 77, 70
4, 42283, Note_on_c, 4, 89, 0
4, 42286, Note_on_c, 4, 79, 0
4, 42286, Note_on_c, 4, 87, 70
4, 42294, Note_on_c, 4, 87, 0
4, 42296, Note_on_c, 4, 89, 70
4, 42305, Note_on_c, 4, 89, 0
4, 42307, Note_on_c, 4, 87, 70
4, 42314, Note_on_c, 4, 87, 0
4, 42315, Note_on_c, 4, 89, 70
4, 42322, Note_on_c, 4, 89, 0
4, 42325, Note_on_c, 4, 87, 70
4, 42330, Note_on_c, 4, 87, 0
4, 42331, Note_on_c, 4, 89, 70
4, 42336, Note_on_c, 4, 77, 0
4, 42337, Note_on_c, 4, 79, 70
4, 42347, Note_on_c, 4, 87, 70
4, 42350, Note_on_c, 4, 89, 0
4, 42397, Note_on_c, 4, 87, 0
4, 42398, Note_on_c, 4, 86, 70
4, 42399, Note_on_c, 4, 79, 0
4, 42399, Note_on_c, 4, 81, 70
4, 42426, Note_on_c, 4, 86, 0
4, 42426, Note_on_c, 4, 87, 70
4, 42461, Note_on_c, 4, 81, 0
4, 42462, Note_on_c, 4, 87, 0
4, 42463, Note_on_c, 4, 82, 70
4, 42464, Note_on_c, 4, 86, 70
4, 42526, Note_on_c, 4, 86, 0
4, 42527, Note_on_c, 4, 82, 0
4, 42528, Note_on_c, 4, 87, 70
4, 42529, Note_on_c, 4, 84, 70
4, 42589, Note_on_c, 4, 82, 70
4, 42590, Note_on_c, 4, 87, 0
4, 42591, Note_on_c, 4, 86, 70
4, 42592, Note_on_c, 4, 84, 0
4, 42650, Note_on_c, 4, 86, 0
4, 42651, Note_on_c, 4, 82, 0
4, 42652, Note_on_c, 4, 81, 70
4, 42653, Note_on_c, 4, 84, 70
4, 42711, Note_on_c, 4, 81, 0
4, 42711, Note_on_c, 4, 79, 70
4, 42711, Note_on_c, 4, 82, 70
4, 42714, Note_on_c, 4, 84, 0
4, 42772, Note_on_c, 4, 79, 0
4, 42772, Note_on_c, 4, 78, 70
4, 42773, Note_on_c, 4, 82, 0
4, 42773, Note_on_c, 4, 81, 70
4, 42793, Note_on_c, 4, 78, 0
4, 42835, Note_on_c, 4, 81, 0
4, 42837, Note_on_c, 4, 82, 70
4, 42839, Note_on_c, 4, 79, 70
4, 42899, Note_on_c, 4, 86, 70
4, 42901, Note_on_c, 4, 82, 0
4, 42958, Note_on_c, 4, 84, 70
4, 42961, Note_on_c, 4, 86, 0
4, 43014, Note_on_c, 4, 82, 70
4, 43015, Note_on_c, 4, 79, 0
4, 43020, Note_on_c, 4, 84, 0
4, 43076, Note_on_c, 4, 80, 70
4, 43079, Note_on_c, 4, 82, 0
4, 43130, Note_on_c, 4, 80, 0
4, 43132, Note_on_c, 4, 79, 70
4, 43198, Note_on_c, 4, 77, 70
4, 43201, Note_on_c, 4, 79, 0
4, 43254, Note_on_c, 4, 69, 70
4, 43310, Note_on_c, 4, 69, 0
4, 43316, Note_on_c, 4, 70, 70
4, 43342, Note_on_c, 4, 77, 0
4, 43365, Note_on_c, 4, 70, 0
4, 43373, Note_on_c, 4, 77, 70
4, 43373, Note_on_c, 4, 74, 70
4, 43431, Note_on_c, 4, 74, 0
4, 43433, Note_on_c, 4, 77, 0
4, 43434, Note_on_c, 4, 75, 70
4, 43435, Note_on_c, 4, 79, 70
4, 43494, Note_on_c, 4, 77, 70
4, 43495, Note_on_c, 4, 81, 70
4, 43498, Note_on_c, 4, 79, 0
4, 43504, Note_on_c, 4, 75, 0
4, 43537, Note_on_c, 4, 77, 0
4, 43556, Note_on_c, 4, 82, 70
4, 43558, Note_on_c, 4, 79, 70
4, 43559, Note_on_c, 4, 81, 0
4, 43617, Note_on_c, 4, 82, 0
4, 43617, Note_on_c, 4, 84, 70
4, 43618, Note_on_c, 4, 79, 0
4, 43618, Note_on_c, 4, 81, 70
4, 43678, Note_on_c, 4, 81, 0
4, 43678, Note_on_c, 4, 82, 70
4, 43679, Note_on_c, 4, 84, 0
4, 43680, Note_on_c, 4, 86, 70
4, 43739, Note_on_c, 4, 82, 0
4, 43741, Note_on_c, 4, 86, 0
4, 43795, Note_on_c, 4, 82, 70
4, 43796, Note_on_c, 4, 77, 70
4, 43872, Note_on_c, 4, 77, 0
4, 43873, Note_on_c, 4, 82, 0
4, 43912, Note_on_c, 4, 79, 70
4, 43913, Note_on_c, 4, 75, 70
4, 43961, Note_on_c, 4, 75, 0
4, 43963, Note_on_c, 4, 79, 0
4, 43972, Note_on_c, 4, 81, 70
4, 43973, Note_on_c, 4, 72, 70
4, 44010, Note_on_c, 4, 81, 0
4, 44016, Note_on_c, 4, 72, 0
4, 44034, Note_on_c, 4, 82, 70
4, 44035, Note_on_c, 4, 79, 70
4, 44067, Note_on_c, 4, 82, 0
4, 44094, Note_on_c, 4, 81, 70
4, 44096, Note_on_c, 4, 79, 0
4, 44096, Note_on_c, 4, 75, 70
4, 44157, Note_on_c, 4, 81, 0
4, 44159, Note_on_c, 4, 82, 70
4, 44160, Note_on_c, 4, 77, 70
4, 44165, Note_on_c, 4, 75, 0
4, 44217, Note_on_c, 4, 82, 0
4, 44219, Note_on_c, 4, 84, 70
4, 44246, Note_on_c, 4, 77, 0
4, 44249, Note_on_c, 4, 84, 0
4, 44281, Note_on_c, 4, 86, 70
4, 44282, Note_on_c, 4, 82, 70
4, 44336, Note_on_c, 4, 84, 70
4, 44338, Note_on_c, 4, 86, 0
4, 44395, Note_on_c, 4, 84, 0
4, 44395, Note_on_c, 4, 86, 70
4, 44445, Note_on_c, 4, 86, 0
4, 44450, Note_on_c, 4, 87, 70
4, 44450, Note_on_c, 4, 79, 70
4, 44451, Note_on_c, 4, 82, 0
4, 44513, Note_on_c, 4, 87, 0
4, 44513, Note_on_c, 4, 89, 70
4, 44514, Note_on_c, 4, 80, 70
4, 44517, Note_on_c, 4, 79, 0
4, 44691, Note_on_c, 4, 89, 0
4, 44693, Note_on_c, 4, 82, 70
4, 44753, Note_on_c, 4, 87, 70
4, 44754, Note_on_c, 4, 82, 0
4, 44754, Note_on_c, 4, 79, 70
4, 44756, Note_on_c, 4, 80, 0
4, 44814, Note_on_c, 4, 80, 70
4, 44815, Note_on_c, 4, 79, 0
4, 44874, Note_on_c, 4, 82, 70
4, 44875, Note_on_c, 4, 80, 0
4, 44931, Note_on_c, 4, 82, 0
4, 44932, Note_on_c, 4, 84, 70
4, 44992, Note_on_c, 4, 77, 70
4, 44993, Note_on_c, 4, 84, 0
4, 45028, Note_on_c, 4, 87, 0
4, 45053, Note_on_c, 4, 87, 70
4, 45114, Note_on_c, 4, 86, 70
4, 45115, Note_on_c, 4, 87, 0
4, 45177, Note_on_c, 4, 84, 70
4, 45181, Note_on_c, 4, 86, 0
4, 45234, Note_on_c, 4, 82, 70
4, 45238, Note_on_c, 4, 84, 0
4, 45293, Note_on_c, 4, 80, 70
4, 45294, Note_on_c, 4, 82, 0
4, 45352, Note_on_c, 4, 80, 0
4, 45354, Note_on_c, 4, 79, 70
4, 45357, Note_on_c, 4, 77, 0
4, 45415, Note_on_c, 4, 77, 70
4, 45474, Note_on_c, 4, 75, 70
4, 45476, Note_on_c, 4, 77, 0
4, 45531, Note_on_c, 4, 74, 70
4, 45533, Note_on_c, 4, 75, 0
4, 45593, Note_on_c, 4, 75, 70
4, 45598, Note_on_c, 4, 74, 0
4, 45741, Note_on_c, 4, 79, 0
4, 45778, Note_on_c, 4, 79, 70
4, 45835, Note_on_c, 4, 79, 0
4, 45837, Note_on_c, 4, 77, 70
4, 45854, Note_on_c, 4, 75, 0
4, 45895, Note_on_c, 4, 75, 70
4, 45954, Note_on_c, 4, 74, 70
4, 45955, Note_on_c, 4, 75, 0
4, 46017, Note_on_c, 4, 74, 0
4, 46017, Note_on_c, 4, 72, 70
4, 46084, Note_on_c, 4, 72, 0
4, 46104, Note_on_c, 4, 74, 70
4, 46444, Note_on_c, 4, 77, 0
4, 46444, Note_on_c, 4, 74, 0
4, 46444, End_track
5, 0, Start_track
5, 0, Title_t, "Pedal 16"
5, 0, MIDI_port, 0
5, 0, Control_c, 2, 7, 103
5, 0, Control_c, 2, 10, 102
5, 0, Program_c, 2, 79
5, 20, Note_on_c, 2, 27, 68
5, 120, Note_on_c, 2, 39, 67
5, 131, Note_on_c, 2, 27, 0
5, 215, Note_on_c, 2, 39, 0
5, 237, Note_on_c, 2, 34, 72
5, 347, Note_on_c, 2, 36, 62
5, 349, Note_on_c, 2, 34, 0
5, 438, Note_on_c, 2, 36, 0
5, 459, Note_on_c, 2, 48, 74
5, 570, Note_on_c, 2, 43, 68
5, 573, Note_on_c, 2, 48, 0
5, 689, Note_on_c, 2, 44, 82
5, 691, Note_on_c, 2, 43, 0
5, 814, Note_on_c, 2, 41, 77
5, 815, Note_on_c, 2, 44, 0
5, 929, Note_on_c, 2, 46, 79
5, 932, Note_on_c, 2, 41, 0
5, 1022, Note_on_c, 2, 46, 0
5, 1055, Note_on_c, 2, 39, 78
5, 1181, Note_on_c, 2, 39, 0
5, 1187, Note_on_c, 2, 38, 68
5, 1318, Note_on_c, 2, 36, 65
5, 1329, Note_on_c, 2, 38, 0
5, 1426, Note_on_c, 2, 34, 85
5, 1430, Note_on_c, 2, 36, 0
5, 1628, Note_on_c, 2, 34, 0
5, 1661, Note_on_c, 2, 36, 69
5, 1778, Note_on_c, 2, 38, 76
5, 1780, Note_on_c, 2, 36, 0
5, 1906, Note_on_c, 2, 39, 72
5, 1912, Note_on_c, 2, 38, 0
5, 2032, Note_on_c, 2, 41, 73
5, 2034, Note_on_c, 2, 39, 0
5, 2274, Note_on_c, 2, 39, 69
5, 2277, Note_on_c, 2, 41, 0
5, 2509, Note_on_c, 2, 38, 68
5, 2511, Note_on_c, 2, 39, 0
5, 2665, Note_on_c, 2, 38, 0
5, 2699, Note_on_c, 2, 44, 72
5, 2757, Note_on_c, 2, 43, 65
5, 2759, Note_on_c, 2, 44, 0
5, 2817, Note_on_c, 2, 41, 72
5, 2822, Note_on_c, 2, 43, 0
5, 2871, Note_on_c, 2, 39, 74
5, 2874, Note_on_c, 2, 41, 0
5, 2928, Note_on_c, 2, 38, 67
5, 2931, Note_on_c, 2, 39, 0
5, 2996, Note_on_c, 2, 36, 61
5, 2999, Note_on_c, 2, 38, 0
5, 3043, Note_on_c, 2, 36, 0
5, 3057, Note_on_c, 2, 43, 76
5, 3114, Note_on_c, 2, 41, 70
5, 3115, Note_on_c, 2, 43, 0
5, 3175, Note_on_c, 2, 39, 72
5, 3177, Note_on_c, 2, 41, 0
5, 3233, Note_on_c, 2, 38, 72
5, 3235, Note_on_c, 2, 39, 0
5, 3344, Note_on_c, 2, 39, 79
5, 3346, Note_on_c, 2, 38, 0
5, 3463, Note_on_c, 2, 35, 76
5, 3465, Note_on_c, 2, 39, 0
5, 3581, Note_on_c, 2, 36, 68
5, 3582, Note_on_c, 2, 35, 0
5, 3654, Note_on_c, 2, 36, 0
5, 3703, Note_on_c, 2, 36, 73
5, 3822, Note_on_c, 2, 31, 71
5, 3825, Note_on_c, 2, 36, 0
5, 3948, Note_on_c, 2, 32, 89
5, 3950, Note_on_c, 2, 31, 0
5, 4068, Note_on_c, 2, 32, 0
5, 4068, Note_on_c, 2, 29, 76
5, 4195, Note_on_c, 2, 34, 75
5, 4197, Note_on_c, 2, 29, 0
5, 4283, Note_on_c, 2, 34, 0
5, 4319, Note_on_c, 2, 24, 79
5, 4397, Note_on_c, 2, 24, 0
5, 4438, Note_on_c, 2, 36, 70
5, 4547, Note_on_c, 2, 38, 72
5, 4551, Note_on_c, 2, 36, 0
5, 4664, Note_on_c, 2, 38, 0
5, 4665, Note_on_c, 2, 39, 76
5, 4788, Note_on_c, 2, 41, 72
5, 4790, Note_on_c, 2, 39, 0
5, 4907, Note_on_c, 2, 41, 0
5, 4907, Note_on_c, 2, 43, 76
5, 5026, Note_on_c, 2, 44, 75
5, 5028, Note_on_c, 2, 43, 0
5, 5151, Note_on_c, 2, 41, 75
5, 5152, Note_on_c, 2, 44, 0
5, 5246, Note_on_c, 2, 41, 0
5, 5271, Note_on_c, 2, 46, 83
5, 5347, Note_on_c, 2, 46, 0
5, 5393, Note_on_c, 2, 39, 78
5, 5629, Note_on_c, 2, 38, 76
5, 5630, Note_on_c, 2, 39, 0
5, 5730, Note_on_c, 2, 38, 0
5, 5744, Note_on_c, 2, 36, 69
5, 5817, Note_on_c, 2, 36, 0
5, 5871, Note_on_c, 2, 48, 76
5, 5985, Note_on_c, 2, 46, 82
5, 5989, Note_on_c, 2, 48, 0
5, 6105, Note_on_c, 2, 46, 0
5, 6105, Note_on_c, 2, 44, 71
5, 6177, Note_on_c, 2, 44, 0
5, 6226, Note_on_c, 2, 32, 84
5, 6349, Note_on_c, 2, 34, 73
5, 6350, Note_on_c, 2, 32, 0
5, 6458, Note_on_c, 2, 36, 52
5, 6460, Note_on_c, 2, 34, 0
5, 6578, Note_on_c, 2, 36, 0
5, 6591, Note_on_c, 2, 37, 75
5, 6707, Note_on_c, 2, 39, 77
5, 6708, Note_on_c, 2, 37, 0
5, 6955, Note_on_c, 2, 37, 80
5, 6957, Note_on_c, 2, 39, 0
5, 7196, Note_on_c, 2, 36, 68
5, 7197, Note_on_c, 2, 37, 0
5, 7399, Note_on_c, 2, 36, 0
5, 7439, Note_on_c, 2, 37, 81
5, 7522, Note_on_c, 2, 37, 0
5, 7562, Note_on_c, 2, 34, 85
5, 7644, Note_on_c, 2, 34, 0
5, 7685, Note_on_c, 2, 36, 70
5, 7762, Note_on_c, 2, 36, 0
5, 7795, Note_on_c, 2, 24, 79
5, 7891, Note_on_c, 2, 24, 0
5, 7909, Note_on_c, 2, 29, 79
5, 8015, Note_on_c, 2, 29, 0
5, 8026, Note_on_c, 2, 41, 74
5, 8148, Note_on_c, 2, 39, 67
5, 8152, Note_on_c, 2, 41, 0
5, 8274, Note_on_c, 2, 38, 71
5, 8278, Note_on_c, 2, 39, 0
5, 8521, Note_on_c, 2, 36, 65
5, 8525, Note_on_c, 2, 38, 0
5, 8642, Note_on_c, 2, 34, 80
5, 8646, Note_on_c, 2, 36, 0
5, 8668, Note_on_c, 2, 34, 0
5, 8706, Note_on_c, 2, 48, 69
5, 8764, Note_on_c, 2, 46, 79
5, 8766, Note_on_c, 2, 48, 0
5, 8819, Note_on_c, 2, 44, 69
5, 8823, Note_on_c, 2, 46, 0
5, 8878, Note_on_c, 2, 44, 0
5, 8879, Note_on_c, 2, 43, 71
5, 8935, Note_on_c, 2, 41, 69
5, 8937, Note_on_c, 2, 43, 0
5, 8993, Note_on_c, 2, 39, 70
5, 8994, Note_on_c, 2, 41, 0
5, 9048, Note_on_c, 2, 39, 0
5, 9049, Note_on_c, 2, 38, 72
5, 9108, Note_on_c, 2, 36, 73
5, 9110, Note_on_c, 2, 38, 0
5, 9168, Note_on_c, 2, 34, 80
5, 9170, Note_on_c, 2, 36, 0
5, 9227, Note_on_c, 2, 34, 0
5, 9228, Note_on_c, 2, 32, 81
5, 9283, Note_on_c, 2, 32, 0
5, 9284, Note_on_c, 2, 31, 69
5, 9329, Note_on_c, 2, 31, 0
5, 9350, Note_on_c, 2, 29, 78
5, 9566, Note_on_c, 2, 29, 0
5, 9597, Note_on_c, 2, 31, 77
5, 9706, Note_on_c, 2, 31, 0
5, 9720, Note_on_c, 2, 32, 82
5, 9931, Note_on_c, 2, 32, 0
5, 9957, Note_on_c, 2, 31, 71
5, 10071, Note_on_c, 2, 32, 80
5, 10074, Note_on_c, 2, 31, 0
5, 10202, Note_on_c, 2, 32, 0
5, 10202, Note_on_c, 2, 34, 84
5, 10322, Note_on_c, 2, 32, 77
5, 10325, Note_on_c, 2, 34, 0
5, 10431, Note_on_c, 2, 32, 0
5, 10441, Note_on_c, 2, 31, 72
5, 10630, Note_on_c, 2, 31, 0
5, 10685, Note_on_c, 2, 32, 75
5, 10755, Note_on_c, 2, 32, 0
5, 10797, Note_on_c, 2, 34, 78
5, 10912, Note_on_c, 2, 34, 0
5, 10912, Note_on_c, 2, 36, 67
5, 11031, Note_on_c, 2, 37, 73
5, 11032, Note_on_c, 2, 36, 0
5, 11119, Note_on_c, 2, 37, 0
5, 11157, Note_on_c, 2, 36, 65
5, 11278, Note_on_c, 2, 34, 78
5, 11282, Note_on_c, 2, 36, 0
5, 11392, Note_on_c, 2, 32, 76
5, 11393, Note_on_c, 2, 34, 0
5, 11510, Note_on_c, 2, 32, 0
5, 11510, Note_on_c, 2, 34, 81
5, 11630, Note_on_c, 2, 32, 82
5, 11632, Note_on_c, 2, 34, 0
5, 11748, Note_on_c, 2, 31, 71
5, 11749, Note_on_c, 2, 32, 0
5, 11870, Note_on_c, 2, 32, 82
5, 11874, Note_on_c, 2, 31, 0
5, 12185, Note_on_c, 2, 32, 0
5, 12240, Note_on_c, 2, 27, 72
5, 12326, Note_on_c, 2, 27, 0
5, 12368, Note_on_c, 2, 39, 65
5, 12488, Note_on_c, 2, 34, 75
5, 12490, Note_on_c, 2, 39, 0
5, 12607, Note_on_c, 2, 34, 0
5, 12607, Note_on_c, 2, 36, 61
5, 12677, Note_on_c, 2, 36, 0
5, 12707, Note_on_c, 2, 48, 68
5, 12826, Note_on_c, 2, 43, 59
5, 12829, Note_on_c, 2, 48, 0
5, 12942, Note_on_c, 2, 44, 73
5, 12944, Note_on_c, 2, 43, 0
5, 13063, Note_on_c, 2, 44, 0
5, 13063, Note_on_c, 2, 41, 72
5, 13172, Note_on_c, 2, 46, 71
5, 13175, Note_on_c, 2, 41, 0
5, 13259, Note_on_c, 2, 46, 0
5, 13292, Note_on_c, 2, 39, 73
5, 13422, Note_on_c, 2, 39, 0
5, 13425, Note_on_c, 2, 38, 68
5, 13552, Note_on_c, 2, 36, 68
5, 13561, Note_on_c, 2, 38, 0
5, 13672, Note_on_c, 2, 34, 82
5, 13676, Note_on_c, 2, 36, 0
5, 13869, Note_on_c, 2, 34, 0
5, 13905, Note_on_c, 2, 36, 63
5, 14015, Note_on_c, 2, 38, 76
5, 14017, Note_on_c, 2, 36, 0
5, 14140, Note_on_c, 2, 39, 75
5, 14144, Note_on_c, 2, 38, 0
5, 14259, Note_on_c, 2, 39, 0
5, 14259, Note_on_c, 2, 41, 72
5, 14507, Note_on_c, 2, 39, 71
5, 14511, Note_on_c, 2, 41, 0
5, 14745, Note_on_c, 2, 38, 68
5, 14749, Note_on_c, 2, 39, 0
5, 14895, Note_on_c, 2, 38, 0
5, 14932, Note_on_c, 2, 44, 75
5, 14991, Note_on_c, 2, 44, 0
5, 14991, Note_on_c, 2, 43, 73
5, 15051, Note_on_c, 2, 41, 65
5, 15054, Note_on_c, 2, 43, 0
5, 15114, Note_on_c, 2, 39, 75
5, 15117, Note_on_c, 2, 41, 0
5, 15171, Note_on_c, 2, 38, 72
5, 15172, Note_on_c, 2, 39, 0
5, 15234, Note_on_c, 2, 36, 61
5, 15240, Note_on_c, 2, 38, 0
5, 15274, Note_on_c, 2, 36, 0
5, 15296, Note_on_c, 2, 43, 75
5, 15355, Note_on_c, 2, 41, 71
5, 15358, Note_on_c, 2, 43, 0
5, 15408, Note_on_c, 2, 39, 72
5, 15412, Note_on_c, 2, 41, 0
5, 15459, Note_on_c, 2, 38, 73
5, 15461, Note_on_c, 2, 39, 0
5, 15572, Note_on_c, 2, 39, 75
5, 15574, Note_on_c, 2, 38, 0
5, 15699, Note_on_c, 2, 39, 0
5, 15705, Note_on_c, 2, 35, 73
5, 15788, Note_on_c, 2, 35, 0
5, 15835, Note_on_c, 2, 36, 71
5, 15928, Note_on_c, 2, 36, 0
5, 15954, Note_on_c, 2, 36, 69
5, 16075, Note_on_c, 2, 31, 76
5, 16076, Note_on_c, 2, 36, 0
5, 16150, Control_c, 2, 7, 103
5, 16150, Control_c, 2, 10, 102
5, 16194, Note_on_c, 2, 32, 82
5, 16197, Note_on_c, 2, 31, 0
5, 16309, Note_on_c, 2, 29, 82
5, 16310, Note_on_c, 2, 32, 0
5, 16434, Note_on_c, 2, 34, 88
5, 16435, Note_on_c, 2, 29, 0
5, 16545, Note_on_c, 2, 34, 0
5, 16550, Note_on_c, 2, 24, 79
5, 16663, Note_on_c, 2, 24, 0
5, 16678, Note_on_c, 2, 36, 76
5, 16795, Note_on_c, 2, 38, 72
5, 16798, Note_on_c, 2, 36, 0
5, 16915, Note_on_c, 2, 39, 78
5, 16918, Note_on_c, 2, 38, 0
5, 17037, Note_on_c, 2, 39, 0
5, 17037, Note_on_c, 2, 41, 74
5, 17152, Note_on_c, 2, 43, 68
5, 17154, Note_on_c, 2, 41, 0
5, 17272, Note_on_c, 2, 44, 77
5, 17275, Note_on_c, 2, 43, 0
5, 17390, Note_on_c, 2, 44, 0
5, 17390, Note_on_c, 2, 41, 81
5, 17515, Note_on_c, 2, 46, 83
5, 17518, Note_on_c, 2, 41, 0
5, 17583, Note_on_c, 2, 46, 0
5, 17629, Note_on_c, 2, 39, 70
5, 17870, Note_on_c, 2, 39, 0
5, 17871, Note_on_c, 2, 38, 77
5, 17988, Note_on_c, 2, 38, 0
5, 17994, Note_on_c, 2, 36, 72
5, 18073, Note_on_c, 2, 36, 0
5, 18111, Note_on_c, 2, 48, 76
5, 18224, Note_on_c, 2, 46, 82
5, 18228, Note_on_c, 2, 48, 0
5, 18322, Note_on_c, 2, 46, 0
5, 18342, Note_on_c, 2, 44, 74
5, 18419, Note_on_c, 2, 44, 0
5, 18469, Note_on_c, 2, 32, 80
5, 18589, Note_on_c, 2, 34, 86
5, 18590, Note_on_c, 2, 32, 0
5, 18702, Note_on_c, 2, 36, 66
5, 18704, Note_on_c, 2, 34, 0
5, 18827, Note_on_c, 2, 37, 72
5, 18833, Note_on_c, 2, 36, 0
5, 18945, Note_on_c, 2, 39, 72
5, 18947, Note_on_c, 2, 37, 0
5, 19192, Note_on_c, 2, 37, 79
5, 19196, Note_on_c, 2, 39, 0
5, 19441, Note_on_c, 2, 37, 0
5, 19442, Note_on_c, 2, 36, 65
5, 19638, Note_on_c, 2, 36, 0
5, 19680, Note_on_c, 2, 37, 82
5, 19770, Note_on_c, 2, 37, 0
5, 19794, Note_on_c, 2, 34, 88
5, 19910, Note_on_c, 2, 34, 0
5, 19911, Note_on_c, 2, 36, 80
5, 19999, Note_on_c, 2, 36, 0
5, 20032, Note_on_c, 2, 24, 83
5, 20146, Note_on_c, 2, 29, 74
5, 20148, Note_on_c, 2, 24, 0
5, 20216, Note_on_c, 2, 29, 0
5, 20258, Note_on_c, 2, 41, 82
5, 20381, Note_on_c, 2, 39, 77
5, 20384, Note_on_c, 2, 41, 0
5, 20506, Note_on_c, 2, 38, 78
5, 20508, Note_on_c, 2, 39, 0
5, 20753, Note_on_c, 2, 36, 71
5, 20755, Note_on_c, 2, 38, 0
5, 20876, Note_on_c, 2, 34, 83
5, 20879, Note_on_c, 2, 36, 0
5, 20906, Note_on_c, 2, 34, 0
5, 20938, Note_on_c, 2, 48, 79
5, 20998, Note_on_c, 2, 46, 81
5, 21001, Note_on_c, 2, 48, 0
5, 21050, Note_on_c, 2, 44, 70
5, 21053, Note_on_c, 2, 46, 0
5, 21107, Note_on_c, 2, 44, 0
5, 21108, Note_on_c, 2, 43, 74
5, 21170, Note_on_c, 2, 41, 72
5, 21171, Note_on_c, 2, 43, 0
5, 21227, Note_on_c, 2, 39, 69
5, 21231, Note_on_c, 2, 41, 0
5, 21288, Note_on_c, 2, 39, 0
5, 21289, Note_on_c, 2, 38, 77
5, 21350, Note_on_c, 2, 36, 69
5, 21353, Note_on_c, 2, 38, 0
5, 21415, Note_on_c, 2, 34, 85
5, 21419, Note_on_c, 2, 36, 0
5, 21474, Note_on_c, 2, 34, 0
5, 21476, Note_on_c, 2, 32, 79
5, 21534, Note_on_c, 2, 32, 0
5, 21536, Note_on_c, 2, 31, 75
5, 21601, Note_on_c, 2, 29, 78
5, 21604, Note_on_c, 2, 31, 0
5, 21832, Note_on_c, 2, 31, 74
5, 21837, Note_on_c, 2, 29, 0
5, 21954, Note_on_c, 2, 32, 82
5, 21958, Note_on_c, 2, 31, 0
5, 22155, Note_on_c, 2, 32, 0
5, 22200, Note_on_c, 2, 31, 77
5, 22305, Note_on_c, 2, 32, 83
5, 22308, Note_on_c, 2, 31, 0
5, 22424, Note_on_c, 2, 32, 0
5, 22430, Note_on_c, 2, 34, 86
5, 22546, Note_on_c, 2, 32, 86
5, 22551, Note_on_c, 2, 34, 0
5, 22672, Note_on_c, 2, 31, 80
5, 22678, Note_on_c, 2, 32, 0
5, 22853, Note_on_c, 2, 31, 0
5, 22906, Note_on_c, 2, 32, 79
5, 23016, Note_on_c, 2, 32, 0
5, 23027, Note_on_c, 2, 34, 83
5, 23147, Note_on_c, 2, 36, 68
5, 23149, Note_on_c, 2, 34, 0
5, 23269, Note_on_c, 2, 37, 79
5, 23272, Note_on_c, 2, 36, 0
5, 23367, Note_on_c, 2, 37, 0
5, 23393, Note_on_c, 2, 36, 72
5, 23512, Note_on_c, 2, 34, 86
5, 23516, Note_on_c, 2, 36, 0
5, 23628, Note_on_c, 2, 32, 86
5, 23631, Note_on_c, 2, 34, 0
5, 23752, Note_on_c, 2, 32, 0
5, 23752, Note_on_c, 2, 34, 90
5, 23871, Note_on_c, 2, 32, 86
5, 23874, Note_on_c, 2, 34, 0
5, 23989, Note_on_c, 2, 32, 0
5, 23990, Note_on_c, 2, 31, 82
5, 24103, Note_on_c, 2, 32, 86
5, 24106, Note_on_c, 2, 31, 0
5, 24485, Note_on_c, 2, 27, 81
5, 24489, Note_on_c, 2, 32, 0
5, 24552, Note_on_c, 2, 27, 0
5, 24609, Note_on_c, 2, 39, 78
5, 24715, Note_on_c, 2, 39, 0
5, 24725, Note_on_c, 2, 38, 70
5, 24840, Note_on_c, 2, 36, 64
5, 24842, Note_on_c, 2, 38, 0
5, 25073, Note_on_c, 2, 34, 82
5, 25092, Note_on_c, 2, 36, 0
5, 25193, Note_on_c, 2, 34, 0
5, 25193, Note_on_c, 2, 33, 72
5, 25334, Note_on_c, 2, 33, 0
5, 25373, Note_on_c, 2, 29, 81
5, 25430, Note_on_c, 2, 31, 77
5, 25437, Note_on_c, 2, 29, 0
5, 25492, Note_on_c, 2, 31, 0
5, 25492, Note_on_c, 2, 33, 72
5, 25554, Note_on_c, 2, 34, 87
5, 25555, Note_on_c, 2, 33, 0
5, 25615, Note_on_c, 2, 33, 68
5, 25618, Note_on_c, 2, 34, 0
5, 25674, Note_on_c, 2, 34, 85
5, 25675, Note_on_c, 2, 33, 0
5, 25748, Note_on_c, 2, 34, 0
5, 25791, Note_on_c, 2, 26, 81
5, 25878, Note_on_c, 2, 26, 0
5, 25908, Note_on_c, 2, 27, 82
5, 26021, Note_on_c, 2, 27, 0
5, 26022, Note_on_c, 2, 24, 77
5, 26111, Note_on_c, 2, 24, 0
5, 26156, Note_on_c, 2, 43, 76
5, 26245, Note_on_c, 2, 43, 0
5, 26274, Note_on_c, 2, 39, 83
5, 26392, Note_on_c, 2, 36, 69
5, 26394, Note_on_c, 2, 39, 0
5, 26462, Note_on_c, 2, 36, 0
5, 26512, Note_on_c, 2, 41, 76
5, 26601, Note_on_c, 2, 41, 0
5, 26631, Note_on_c, 2, 34, 82
5, 26753, Note_on_c, 2, 36, 65
5, 26756, Note_on_c, 2, 34, 0
5, 26874, Note_on_c, 2, 36, 0
5, 26874, Note_on_c, 2, 38, 79
5, 26990, Note_on_c, 2, 39, 79
5, 26993, Note_on_c, 2, 38, 0
5, 27451, Note_on_c, 2, 39, 0
5, 27475, Note_on_c, 2, 38, 75
5, 27523, Note_on_c, 2, 38, 0
5, 27534, Note_on_c, 2, 43, 83
5, 27590, Note_on_c, 2, 41, 69
5, 27594, Note_on_c, 2, 43, 0
5, 27650, Note_on_c, 2, 43, 66
5, 27654, Note_on_c, 2, 41, 0
5, 27717, Note_on_c, 2, 36, 74
5, 27720, Note_on_c, 2, 43, 0
5, 27834, Note_on_c, 2, 38, 72
5, 27836, Note_on_c, 2, 36, 0
5, 27953, Note_on_c, 2, 39, 70
5, 27957, Note_on_c, 2, 38, 0
5, 28074, Note_on_c, 2, 41, 83
5, 28077, Note_on_c, 2, 39, 0
5, 28291, Note_on_c, 2, 41, 0
5, 28310, Note_on_c, 2, 42, 83
5, 28429, Note_on_c, 2, 43, 74
5, 28430, Note_on_c, 2, 42, 0
5, 28550, Note_on_c, 2, 41, 78
5, 28554, Note_on_c, 2, 43, 0
5, 28609, Note_on_c, 2, 39, 70
5, 28612, Note_on_c, 2, 41, 0
5, 28672, Note_on_c, 2, 38, 72
5, 28673, Note_on_c, 2, 39, 0
5, 28763, Note_on_c, 2, 38, 0
5, 28787, Note_on_c, 2, 39, 79
5, 28912, Note_on_c, 2, 39, 0
5, 28912, Note_on_c, 2, 41, 79
5, 29030, Note_on_c, 2, 29, 76
5, 29033, Note_on_c, 2, 41, 0
5, 29101, Note_on_c, 2, 29, 0
5, 29154, Note_on_c, 2, 34, 83
5, 29273, Note_on_c, 2, 34, 0
5, 29273, Note_on_c, 2, 36, 67
5, 29391, Note_on_c, 2, 38, 72
5, 29392, Note_on_c, 2, 36, 0
5, 29515, Note_on_c, 2, 39, 75
5, 29519, Note_on_c, 2, 38, 0
5, 29628, Note_on_c, 2, 41, 72
5, 29631, Note_on_c, 2, 39, 0
5, 29753, Note_on_c, 2, 43, 64
5, 29755, Note_on_c, 2, 41, 0
5, 29872, Note_on_c, 2, 44, 68
5, 29876, Note_on_c, 2, 43, 0
5, 30243, Note_on_c, 2, 44, 0
5, 30285, Note_on_c, 2, 44, 72
5, 30346, Note_on_c, 2, 43, 76
5, 30347, Note_on_c, 2, 44, 0
5, 30407, Note_on_c, 2, 41, 70
5, 30412, Note_on_c, 2, 43, 0
5, 30471, Note_on_c, 2, 39, 75
5, 30473, Note_on_c, 2, 41, 0
5, 30531, Note_on_c, 2, 39, 0
5, 30532, Note_on_c, 2, 43, 72
5, 30563, Note_on_c, 2, 43, 0
5, 30594, Note_on_c, 2, 33, 74
5, 30709, Note_on_c, 2, 33, 0
5, 30709, Note_on_c, 2, 35, 73
5, 30899, Note_on_c, 2, 35, 0
5, 30951, Note_on_c, 2, 36, 65
5, 31068, Note_on_c, 2, 36, 0
5, 31068, Note_on_c, 2, 38, 68
5, 31191, Note_on_c, 2, 39, 68
5, 31196, Note_on_c, 2, 38, 0
5, 31312, Note_on_c, 2, 39, 0
5, 31312, Note_on_c, 2, 41, 76
5, 31627, Note_on_c, 2, 41, 0
5, 31665, Note_on_c, 2, 42, 81
5, 31789, Note_on_c, 2, 42, 0
5, 31797, Note_on_c, 2, 43, 67
5, 32029, Note_on_c, 2, 41, 76
5, 32043, Note_on_c, 2, 43, 0
5, 32270, Note_on_c, 2, 39, 67
5, 32275, Note_on_c, 2, 41, 0
5, 32338, Note_on_c, 2, 39, 0
5, 32390, Note_on_c, 2, 38, 70
5, 32507, Note_on_c, 2, 36, 66
5, 32510, Note_on_c, 2, 38, 0
5, 32620, Note_on_c, 2, 34, 78
5, 32623, Note_on_c, 2, 36, 0
5, 32743, Note_on_c, 2, 39, 70
5, 32744, Note_on_c, 2, 34, 0
5, 33107, Note_on_c, 2, 40, 63
5, 33111, Note_on_c, 2, 39, 0
5, 33234, Note_on_c, 2, 38, 79
5, 33239, Note_on_c, 2, 40, 0
5, 33349, Note_on_c, 2, 36, 66
5, 33352, Note_on_c, 2, 38, 0
5, 33461, Note_on_c, 2, 36, 0
5, 33473, Note_on_c, 2, 41, 76
5, 33799, Note_on_c, 2, 41, 0
5, 33833, Note_on_c, 2, 34, 86
5, 33953, Note_on_c, 2, 36, 65
5, 33955, Note_on_c, 2, 34, 0
5, 34072, Note_on_c, 2, 37, 75
5, 34075, Note_on_c, 2, 36, 0
5, 34180, Note_on_c, 2, 37, 0
5, 34191, Note_on_c, 2, 36, 58
5, 34315, Note_on_c, 2, 38, 65
5, 34319, Note_on_c, 2, 36, 0
5, 34428, Note_on_c, 2, 40, 66
5, 34431, Note_on_c, 2, 38, 0
5, 34548, Note_on_c, 2, 41, 78
5, 34550, Note_on_c, 2, 40, 0
5, 34671, Note_on_c, 2, 41, 0
5, 34671, Note_on_c, 2, 43, 69
5, 34794, Note_on_c, 2, 44, 69
5, 34797, Note_on_c, 2, 43, 0
5, 34885, Note_on_c, 2, 44, 0
5, 34911, Note_on_c, 2, 34, 78
5, 35003, Note_on_c, 2, 34, 0
5, 35038, Note_on_c, 2, 39, 72
5, 35122, Note_on_c, 2, 39, 0
5, 35159, Note_on_c, 2, 27, 78
5, 35229, Note_on_c, 2, 27, 0
5, 35260, Note_on_c, 2, 32, 79
5, 35648, Note_on_c, 2, 32, 0
5, 35686, Note_on_c, 2, 36, 66
5, 35748, Note_on_c, 2, 34, 84
5, 35749, Note_on_c, 2, 36, 0
5, 35810, Note_on_c, 2, 32, 75
5, 35814, Note_on_c, 2, 34, 0
5, 35871, Note_on_c, 2, 32, 0
5, 35872, Note_on_c, 2, 31, 75
5, 35933, Note_on_c, 2, 29, 76
5, 35936, Note_on_c, 2, 31, 0
5, 35991, Note_on_c, 2, 28, 69
5, 35992, Note_on_c, 2, 29, 0
5, 36021, Note_on_c, 2, 28, 0
5, 36052, Note_on_c, 2, 37, 83
5, 36089, Note_on_c, 2, 37, 0
5, 36114, Note_on_c, 2, 36, 66
5, 36181, Note_on_c, 2, 34, 85
5, 36183, Note_on_c, 2, 36, 0
5, 36241, Note_on_c, 2, 32, 86
5, 36245, Note_on_c, 2, 34, 0
5, 36299, Note_on_c, 2, 31, 75
5, 36300, Note_on_c, 2, 32, 0
5, 36339, Note_on_c, 2, 31, 0
5, 36360, Note_on_c, 2, 29, 81
5, 36479, Note_on_c, 2, 31, 61
5, 36482, Note_on_c, 2, 29, 0
5, 36589, Note_on_c, 2, 32, 80
5, 36593, Note_on_c, 2, 31, 0
5, 36682, Note_on_c, 2, 32, 0
5, 36707, Note_on_c, 2, 34, 84
5, 36825, Note_on_c, 2, 34, 0
5, 36826, Note_on_c, 2, 36, 69
5, 36952, Note_on_c, 2, 37, 79
5, 36957, Note_on_c, 2, 36, 0
5, 37049, Note_on_c, 2, 37, 0
5, 37079, Note_on_c, 2, 32, 80
5, 37196, Note_on_c, 2, 32, 0
5, 37197, Note_on_c, 2, 34, 86
5, 37316, Note_on_c, 2, 36, 65
5, 37317, Note_on_c, 2, 34, 0
5, 37437, Note_on_c, 2, 29, 79
5, 37438, Note_on_c, 2, 36, 0
5, 37559, Note_on_c, 2, 29, 0
5, 37677, Note_on_c, 2, 41, 78
5, 37795, Note_on_c, 2, 46, 79
5, 37799, Note_on_c, 2, 41, 0
5, 37957, Note_on_c, 2, 46, 0
5, 38036, Note_on_c, 2, 34, 86
5, 38118, Note_on_c, 2, 34, 0
5, 38155, Note_on_c, 2, 29, 81
5, 38265, Note_on_c, 2, 31, 76
5, 38267, Note_on_c, 2, 29, 0
5, 38387, Note_on_c, 2, 33, 79
5, 38388, Note_on_c, 2, 31, 0
5, 38509, Note_on_c, 2, 34, 81
5, 38512, Note_on_c, 2, 33, 0
5, 38636, Note_on_c, 2, 36, 70
5, 38639, Note_on_c, 2, 34, 0
5, 38757, Note_on_c, 2, 37, 78
5, 38763, Note_on_c, 2, 36, 0
5, 38846, Note_on_c, 2, 37, 0
5, 38871, Note_on_c, 2, 39, 81
5, 38991, Note_on_c, 2, 39, 0
5, 38991, Note_on_c, 2, 41, 82
5, 39103, Note_on_c, 2, 42, 81
5, 39107, Note_on_c, 2, 41, 0
5, 39211, Note_on_c, 2, 42, 0
5, 39231, Note_on_c, 2, 41, 79
5, 39276, Note_on_c, 2, 41, 0
5, 39292, Note_on_c, 2, 39, 79
5, 39352, Note_on_c, 2, 37, 75
5, 39355, Note_on_c, 2, 39, 0
5, 39409, Note_on_c, 2, 37, 0
5, 39410, Note_on_c, 2, 36, 74
5, 39471, Note_on_c, 2, 34, 85
5, 39472, Note_on_c, 2, 36, 0
5, 39533, Note_on_c, 2, 32, 79
5, 39536, Note_on_c, 2, 34, 0
5, 39591, Note_on_c, 2, 32, 0
5, 39592, Note_on_c, 2, 30, 83
5, 39652, Note_on_c, 2, 27, 78
5, 39658, Note_on_c, 2, 30, 0
5, 39705, Note_on_c, 2, 27, 0
5, 39710, Note_on_c, 2, 29, 70
5, 39780, Note_on_c, 2, 29, 0
5, 39826, Note_on_c, 2, 41, 77
5, 39906, Note_on_c, 2, 41, 0
5, 39947, Note_on_c, 2, 34, 86
5, 40026, Note_on_c, 2, 34, 0
5, 40078, Note_on_c, 2, 46, 79
5, 40171, Note_on_c, 2, 46, 0
5, 40199, Note_on_c, 2, 41, 72
5, 40308, Note_on_c, 2, 43, 79
5, 40316, Note_on_c, 2, 41, 0
5, 40384, Note_on_c, 2, 43, 0
5, 40425, Note_on_c, 2, 31, 71
5, 40513, Note_on_c, 2, 31, 0
5, 40542, Note_on_c, 2, 38, 76
5, 40661, Note_on_c, 2, 39, 77
5, 40662, Note_on_c, 2, 38, 0
5, 40751, Note_on_c, 2, 39, 0
5, 40791, Note_on_c, 2, 36, 65
5, 40866, Note_on_c, 2, 36, 0
5, 40900, Note_on_c, 2, 41, 75
5, 40981, Note_on_c, 2, 41, 0
5, 41025, Note_on_c, 2, 34, 80
5, 41141, Note_on_c, 2, 34, 0
5, 41157, Note_on_c, 2, 36, 64
5, 41276, Note_on_c, 2, 36, 0
5, 41277, Note_on_c, 2, 38, 71
5, 41400, Note_on_c, 2, 39, 77
5, 41411, Note_on_c, 2, 38, 0
5, 41645, Note_on_c, 2, 34, 84
5, 41654, Note_on_c, 2, 39, 0
5, 41727, Note_on_c, 2, 34, 0
5, 41765, Note_on_c, 2, 36, 66
5, 41850, Note_on_c, 2, 36, 0
5, 41876, Note_on_c, 2, 48, 65
5, 41989, Note_on_c, 2, 43, 69
5, 41991, Note_on_c, 2, 48, 0
5, 42084, Note_on_c, 2, 43, 0
5, 42101, Note_on_c, 2, 44, 74
5, 42218, Note_on_c, 2, 41, 72
5, 42219, Note_on_c, 2, 44, 0
5, 42286, Note_on_c, 2, 41, 0
5, 42337, Note_on_c, 2, 46, 79
5, 42411, Note_on_c, 2, 46, 0
5, 42460, Note_on_c, 2, 39, 80
5, 42586, Note_on_c, 2, 41, 78
5, 42587, Note_on_c, 2, 39, 0
5, 42714, Note_on_c, 2, 43, 72
5, 42715, Note_on_c, 2, 41, 0
5, 42803, Note_on_c, 2, 43, 0
5, 42829, Note_on_c, 2, 36, 62
5, 42879, Note_on_c, 2, 36, 0
5, 42894, Note_on_c, 2, 39, 82
5, 42952, Note_on_c, 2, 38, 70
5, 42953, Note_on_c, 2, 39, 0
5, 43010, Note_on_c, 2, 38, 0
5, 43011, Note_on_c, 2, 36, 65
5, 43068, Note_on_c, 2, 34, 85
5, 43072, Note_on_c, 2, 36, 0
5, 43127, Note_on_c, 2, 32, 86
5, 43129, Note_on_c, 2, 34, 0
5, 43190, Note_on_c, 2, 31, 72
5, 43192, Note_on_c, 2, 32, 0
5, 43242, Note_on_c, 2, 31, 0
5, 43254, Note_on_c, 2, 32, 82
5, 43311, Note_on_c, 2, 31, 78
5, 43312, Note_on_c, 2, 32, 0
5, 43370, Note_on_c, 2, 29, 76
5, 43373, Note_on_c, 2, 31, 0
5, 43430, Note_on_c, 2, 27, 86
5, 43433, Note_on_c, 2, 29, 0
5, 43490, Note_on_c, 2, 26, 82
5, 43492, Note_on_c, 2, 27, 0
5, 43555, Note_on_c, 2, 24, 83
5, 43558, Note_on_c, 2, 26, 0
5, 43637, Note_on_c, 2, 24, 0
5, 43677, Note_on_c, 2, 36, 65
5, 43782, Note_on_c, 2, 36, 0
5, 43793, Note_on_c, 2, 31, 73
5, 43880, Note_on_c, 2, 31, 0
5, 43914, Note_on_c, 2, 32, 82
5, 44027, Note_on_c, 2, 32, 0
5, 44090, Note_on_c, 2, 29, 79
5, 44151, Note_on_c, 2, 29, 0
5, 44151, Note_on_c, 2, 31, 77
5, 44221, Note_on_c, 2, 26, 79
5, 44224, Note_on_c, 2, 31, 0
5, 44275, Note_on_c, 2, 27, 82
5, 44276, Note_on_c, 2, 26, 0
5, 44323, Note_on_c, 2, 27, 0
5, 44338, Note_on_c, 2, 32, 79
5, 44373, Note_on_c, 2, 32, 0
5, 44393, Note_on_c, 2, 34, 84
5, 44634, Note_on_c, 2, 36, 68
5, 44636, Note_on_c, 2, 34, 0
5, 44769, Note_on_c, 2, 36, 0
5, 44808, Note_on_c, 2, 34, 86
5, 44867, Note_on_c, 2, 34, 0
5, 44867, Note_on_c, 2, 36, 68
5, 44926, Note_on_c, 2, 36, 0
5, 44926, Note_on_c, 2, 38, 76
5, 44991, Note_on_c, 2, 39, 79
5, 44995, Note_on_c, 2, 38, 0
5, 45118, Note_on_c, 2, 39, 0
5, 45168, Note_on_c, 2, 39, 80
5, 45231, Note_on_c, 2, 39, 0
5, 45231, Note_on_c, 2, 41, 81
5, 45290, Note_on_c, 2, 41, 0
5, 45290, Note_on_c, 2, 43, 74
5, 45353, Note_on_c, 2, 44, 78
5, 45358, Note_on_c, 2, 43, 0
5, 45467, Note_on_c, 2, 44, 0
5, 45531, Note_on_c, 2, 34, 86
5, 45592, Note_on_c, 2, 36, 68
5, 45596, Note_on_c, 2, 34, 0
5, 45653, Note_on_c, 2, 26, 78
5, 45654, Note_on_c, 2, 36, 0
5, 45693, Note_on_c, 2, 26, 0
5, 45720, Note_on_c, 2, 27, 82
5, 46444, Note_on_c, 2, 27, 0
5, 46444, End_track
6, 0, Start_track
6, 0, Title_t, "Pedal 8"
6, 0, MIDI_port, 0
6, 0, Control_c, 3, 7, 90
6, 0, Control_c, 3, 10, 51
6, 0, Program_c, 3, 79
6, 20, Note_on_c, 3, 39, 68
6, 120, Note_on_c, 3, 51, 67
6, 131, Note_on_c, 3, 39, 0
6, 215, Note_on_c, 3, 51, 0
6, 237, Note_on_c, 3, 46, 72
6, 347, Note_on_c, 3, 48, 62
6, 349, Note_on_c, 3, 46, 0
6, 438, Note_on_c, 3, 48, 0
6, 459, Note_on_c, 3, 60, 74
6, 570, Note_on_c, 3, 55, 68
6, 573, Note_on_c, 3, 60, 0
6, 689, Note_on_c, 3, 56, 82
6, 691, Note_on_c, 3, 55, 0
6, 814, Note_on_c, 3, 53, 77
6, 815, Note_on_c, 3, 56, 0
6, 929, Note_on_c, 3, 58, 79
6, 932, Note_on_c, 3, 53, 0
6, 1022, Note_on_c, 3, 58, 0
6, 1055, Note_on_c, 3, 51, 78
6, 1181, Note_on_c, 3, 51, 0
6, 1187, Note_on_c, 3, 50, 68
6, 1318, Note_on_c, 3, 48, 65
6, 1329, Note_on_c, 3, 50, 0
6, 1426, Note_on_c, 3, 46, 85
6, 1430, Note_on_c, 3, 48, 0
6, 1628, Note_on_c, 3, 46, 0
6, 1661, Note_on_c, 3, 48, 69
6, 1778, Note_on_c, 3, 50, 76
6, 1780, Note_on_c, 3, 48, 0
6, 1906, Note_on_c, 3, 51, 72
6, 1912, Note_on_c, 3, 50, 0
6, 2032, Note_on_c, 3, 53, 73
6, 2034, Note_on_c, 3, 51, 0
6, 2274, Note_on_c, 3, 51, 69
6, 2277, Note_on_c, 3, 53, 0
6, 2509, Note_on_c, 3, 50, 68
6, 2511, Note_on_c, 3, 51, 0
6, 2665, Note_on_c, 3, 50, 0
6, 2699, Note_on_c, 3, 56, 72
6, 2757, Note_on_c, 3, 55, 65
6, 2759, Note_on_c, 3, 56, 0
6, 2817, Note_on_c, 3, 53, 72
6, 2822, Note_on_c, 3, 55, 0
6, 2871, Note_on_c, 3, 51, 74
6, 2874, Note_on_c, 3, 53, 0
6, 2928, Note_on_c, 3, 50, 67
6, 2931, Note_on_c, 3, 51, 0
6, 2996, Note_on_c, 3, 48, 61
6, 2999, Note_on_c, 3, 50, 0
6, 3043, Note_on_c, 3, 48, 0
6, 3057, Note_on_c, 3, 55, 76
6, 3114, Note_on_c, 3, 53, 70
6, 3115, Note_on_c, 3, 55, 0
6, 3175, Note_on_c, 3, 51, 72
6, 3177, Note_on_c, 3, 53, 0
6, 3233, Note_on_c, 3, 50, 72
6, 3235, Note_on_c, 3, 51, 0
6, 3344, Note_on_c, 3, 51, 79
6, 3346, Note_on_c, 3, 50, 0
6, 3463, Note_on_c, 3, 47, 76
6, 3465, Note_on_c, 3, 51, 0
6, 3581, Note_on_c, 3, 48, 68
6, 3582, Note_on_c, 3, 47, 0
6, 3654, Note_on_c, 3, 48, 0
6, 3703, Note_on_c, 3, 48, 73
6, 3822, Note_on_c, 3, 43, 71
6, 3825, Note_on_c, 3, 48, 0
6, 3948, Note_on_c, 3, 44, 89
6, 3950, Note_on_c, 3, 43, 0
6, 4068, Note_on_c, 3, 44, 0
6, 4068, Note_on_c, 3, 41, 76
6, 4195, Note_on_c, 3, 46, 75
6, 4197, Note_on_c, 3, 41, 0
6, 4283, Note_on_c, 3, 46, 0
6, 4319, Note_on_c, 3, 36, 79
6, 4397, Note_on_c, 3, 36, 0
6, 4438, Note_on_c, 3, 48, 70
6, 4547, Note_on_c, 3, 50, 72
6, 4551, Note_on_c, 3, 48, 0
6, 4664, Note_on_c, 3, 50, 0
6, 4665, Note_on_c, 3, 51, 76
6, 4788, Note_on_c, 3, 53, 72
6, 4790, Note_on_c, 3, 51, 0
6, 4907, Note_on_c, 3, 53, 0
6, 4907, Note_on_c, 3, 55, 76
6, 5026, Note_on_c, 3, 56, 75
6, 5028, Note_on_c, 3, 55, 0
6, 5151, Note_on_c, 3, 53, 75
6, 5152, Note_on_c, 3, 56, 0
6, 5246, Note_on_c, 3, 53, 0
6, 5271, Note_on_c, 3, 58, 83
6, 5347, Note_on_c, 3, 58, 0
6, 5393, Note_on_c, 3, 51, 78
6, 5629, Note_on_c, 3, 50, 76
6, 5630, Note_on_c, 3, 51, 0
6, 5730, Note_on_c, 3, 50, 0
6, 5744, Note_on_c, 3, 48, 69
6, 5817, Note_on_c, 3, 48, 0
6, 5871, Note_on_c, 3, 60, 76
6, 5985, Note_on_c, 3, 58, 82
6, 5989, Note_on_c, 3, 60, 0
6, 6105, Note_on_c, 3, 58, 0
6, 6105, Note_on_c, 3, 56, 71
6, 6177, Note_on_c, 3, 56, 0
6, 6226, Note_on_c, 3, 44, 84
6, 6349, Note_on_c, 3, 46, 73
6, 6350, Note_on_c, 3, 44, 0
6, 6458, Note_on_c, 3, 48, 52
6, 6460, Note_on_c, 3, 46, 0
6, 6578, Note_on_c, 3, 48, 0
6, 6591, Note_on_c, 3, 49, 75
6, 6707, Note_on_c, 3, 51, 77
6, 6708, Note_on_c, 3, 49, 0
6, 6955, Note_on_c, 3, 49, 80
6, 6957, Note_on_c, 3, 51, 0
6, 7196, Note_on_c, 3, 48, 68
6, 7197, Note_on_c, 3, 49, 0
6, 7399, Note_on_c, 3, 48, 0
6, 7439, Note_on_c, 3, 49, 81
6, 7522, Note_on_c, 3, 49, 0
6, 7562, Note_on_c, 3, 46, 85
6, 7644, Note_on_c, 3, 46, 0
6, 7685, Note_on_c, 3, 48, 70
6, 7762, Note_on_c, 3, 48, 0
6, 7795, Note_on_c, 3, 36, 79
6, 7891, Note_on_c, 3, 36, 0
6, 7909, Note_on_c, 3, 41, 79
6, 8015, Note_on_c, 3, 41, 0
6, 8026, Note_on_c, 3, 53, 74
6, 8148, Note_on_c, 3, 51, 67
6, 8152, Note_on_c, 3, 53, 0
6, 8274, Note_on_c, 3, 50, 71
6, 8278, Note_on_c, 3, 51, 0
6, 8521, Note_on_c, 3, 48, 65
6, 8525, Note_on_c, 3, 50, 0
6, 8642, Note_on_c, 3, 46, 80
6, 8646, Note_on_c, 3, 48, 0
6, 8668, Note_on_c, 3, 46, 0
6, 8706, Note_on_c, 3, 60, 69
6, 8764, Note_on_c, 3, 58, 79
6, 8766, Note_on_c, 3, 60, 0
6, 8819, Note_on_c, 3, 56, 69
6, 8823, Note_on_c, 3, 58, 0
6, 8878, Note_on_c, 3, 56, 0
6, 8879, Note_on_c, 3, 55, 71
6, 8935, Note_on_c, 3, 53, 69
6, 8937, Note_on_c, 3, 55, 0
6, 8993, Note_on_c, 3, 51, 70
6, 8994, Note_on_c, 3, 53, 0
6, 9048, Note_on_c, 3, 51, 0
6, 9049, Note_on_c, 3, 50, 72
6, 9108, Note_on_c, 3, 48, 73
6, 9110, Note_on_c, 3, 50, 0
6, 9168, Note_on_c, 3, 46, 80
6, 9170, Note_on_c, 3, 48, 0
6, 9227, Note_on_c, 3, 46, 0
6, 9228, Note_on_c, 3, 44, 81
6, 9283, Note_on_c, 3, 44, 0
6, 9284, Note_on_c, 3, 43, 69
6, 9329, Note_on_c, 3, 43, 0
6, 9350, Note_on_c, 3, 41, 78
6, 9566, Note_on_c, 3, 41, 0
6, 9597, Note_on_c, 3, 43, 77
6, 9706, Note_on_c, 3, 43, 0
6, 9720, Note_on_c, 3, 44, 82
6, 9931, Note_on_c, 3, 44, 0
6, 9957, Note_on_c, 3, 43, 71
6, 10071, Note_on_c, 3, 44, 80
6, 10074, Note_on_c, 3, 43, 0
6, 10202, Note_on_c, 3, 44, 0
6, 10202, Note_on_c, 3, 46, 84
6, 10322, Note_on_c, 3, 44, 77
6, 10325, Note_on_c, 3, 46, 0
6, 10431, Note_on_c, 3, 44, 0
6, 10441, Note_on_c, 3, 43, 72
6, 10630, Note_on_c, 3, 43, 0
6, 10685, Note_on_c, 3, 44, 75
6, 10755, Note_on_c, 3, 44, 0
6, 10797, Note_on_c, 3, 46, 78
6, 10912, Note_on_c, 3, 46, 0
6, 10912, Note_on_c, 3, 48, 67
6, 11031, Note_on_c, 3, 49, 73
6, 11032, Note_on_c, 3, 48, 0
6, 11119, Note_on_c, 3, 49, 0
6, 11157, Note_on_c, 3, 48, 65
6, 11278, Note_on_c, 3, 46, 78
6, 11282, Note_on_c, 3, 48, 0
6, 11392, Note_on_c, 3, 44, 76
6, 11393, Note_on_c, 3, 46, 0
6, 11510, Note_on_c, 3, 44, 0
6, 11510, Note_on_c, 3, 46, 81
6, 11630, Note_on_c, 3, 44, 82
6, 11632, Note_on_c, 3, 46, 0
6, 11748, Note_on_c, 3, 43, 71
6, 11749, Note_on_c, 3, 44, 0
6, 11870, Note_on_c, 3, 44, 82
6, 11874, Note_on_c, 3, 43, 0
6, 12185, Note_on_c, 3, 44, 0
6, 12240, Note_on_c, 3, 39, 72
6, 12326, Note_on_c, 3, 39, 0
6, 12368, Note_on_c, 3, 51, 65
6, 12488, Note_on_c, 3, 46, 75
6, 12490, Note_on_c, 3, 51, 0
6, 12607, Note_on_c, 3, 46, 0
6, 12607, Note_on_c, 3, 48, 61
6, 12677, Note_on_c, 3, 48, 0
6, 12707, Note_on_c, 3, 60, 68
6, 12826, Note_on_c, 3, 55, 59
6, 12829, Note_on_c, 3, 60, 0
6, 12942, Note_on_c, 3, 56, 73
6, 12944, Note_on_c, 3, 55, 0
6, 13063, Note_on_c, 3, 56, 0
6, 13063, Note_on_c, 3, 53, 72
6, 13172, Note_on_c, 3, 58, 71
6, 13175, Note_on_c, 3, 53, 0
6, 13259, Note_on_c, 3, 58, 0
6, 13292, Note_on_c, 3, 51, 73
6, 13422, Note_on_c, 3, 51, 0
6, 13425, Note_on_c, 3, 50, 68
6, 13552, Note_on_c, 3, 48, 68
6, 13561, Note_on_c, 3, 50, 0
6, 13672, Note_on_c, 3, 46, 82
6, 13676, Note_on_c, 3, 48, 0
6, 13869, Note_on_c, 3, 46, 0
6, 13905, Note_on_c, 3, 48, 63
6, 14015, Note_on_c, 3, 50, 76
6, 14017, Note_on_c, 3, 48, 0
6, 14140, Note_on_c, 3, 51, 75
6, 14144, Note_on_c, 3, 50, 0
6, 14259, Note_on_c, 3, 51, 0
6, 14259, Note_on_c, 3, 53, 72
6, 14507, Note_on_c, 3, 51, 71
6, 14511, Note_on_c, 3, 53, 0
6, 14745, Note_on_c, 3, 50, 68
6, 14749, Note_on_c, 3, 51, 0
6, 14895, Note_on_c, 3, 50, 0
6, 14932, Note_on_c, 3, 56, 75
6, 14991, Note_on_c, 3, 56, 0
6, 14991, Note_on_c, 3, 55, 73
6, 15051, Note_on_c, 3, 53, 65
6, 15054, Note_on_c, 3, 55, 0
6, 15114, Note_on_c, 3, 51, 75
6, 15117, Note_on_c, 3, 53, 0
6, 15171, Note_on_c, 3, 50, 72
6, 15172, Note_on_c, 3, 51, 0
6, 15234, Note_on_c, 3, 48, 61
6, 15240, Note_on_c, 3, 50, 0
6, 15274, Note_on_c, 3, 48, 0
6, 15296, Note_on_c, 3, 55, 75
6, 15355, Note_on_c, 3, 53, 71
6, 15358, Note_on_c, 3, 55, 0
6, 15408, Note_on_c, 3, 51, 72
6, 15412, Note_on_c, 3, 53, 0
6, 15459, Note_on_c, 3, 50, 73
6, 15461, Note_on_c, 3, 51, 0
6, 15572, Note_on_c, 3, 51, 75
6, 15574, Note_on_c, 3, 50, 0
6, 15699, Note_on_c, 3, 51, 0
6, 15705, Note_on_c, 3, 47, 73
6, 15788, Note_on_c, 3, 47, 0
6, 15835, Note_on_c, 3, 48, 71
6, 15928, Note_on_c, 3, 48, 0
6, 15954, Note_on_c, 3, 48, 69
6, 16075, Note_on_c, 3, 43, 76
6, 16076, Note_on_c, 3, 48, 0
6, 16150, Control_c, 3, 7, 103
6, 16150, Control_c, 3, 10, 102
6, 16194, Note_on_c, 3, 44, 82
6, 16197, Note_on_c, 3, 43, 0
6, 16309, Note_on_c, 3, 41, 82
6, 16310, Note_on_c, 3, 44, 0
6, 16434, Note_on_c, 3, 46, 88
6, 16435, Note_on_c, 3, 41, 0
6, 16545, Note_on_c, 3, 46, 0
6, 16550, Note_on_c, 3, 36, 79
6, 16663, Note_on_c, 3, 36, 0
6, 16678, Note_on_c, 3, 48, 76
6, 16795, Note_on_c, 3, 50, 72
6, 16798, Note_on_c, 3, 48, 0
6, 16915, Note_on_c, 3, 51, 78
6, 16918, Note_on_c, 3, 50, 0
6, 17037, Note_on_c, 3, 51, 0
6, 17037, Note_on_c, 3, 53, 74
6, 17152, Note_on_c, 3, 55, 68
6, 17154, Note_on_c, 3, 53, 0
6, 17272, Note_on_c, 3, 56, 77
6, 17275, Note_on_c, 3, 55, 0
6, 17390, Note_on_c, 3, 56, 0
6, 17390, Note_on_c, 3, 53, 81
6, 17515, Note_on_c, 3, 58, 83
6, 17518, Note_on_c, 3, 53, 0
6, 17583, Note_on_c, 3, 58, 0
6, 17629, Note_on_c, 3, 51, 70
6, 17870, Note_on_c, 3, 51, 0
6, 17871, Note_on_c, 3, 50, 77
6, 17988, Note_on_c, 3, 50, 0
6, 17994, Note_on_c, 3, 48, 72
6, 18073, Note_on_c, 3, 48, 0
6, 18111, Note_on_c, 3, 60, 76
6, 18224, Note_on_c, 3, 58, 82
6, 18228, Note_on_c, 3, 60, 0
6, 18322, Note_on_c, 3, 58, 0
6, 18342, Note_on_c, 3, 56, 74
6, 18419, Note_on_c, 3, 56, 0
6, 18469, Note_on_c, 3, 44, 80
6, 18589, Note_on_c, 3, 46, 86
6, 18590, Note_on_c, 3, 44, 0
6, 18702, Note_on_c, 3, 48, 66
6, 18704, Note_on_c, 3, 46, 0
6, 18827, Note_on_c, 3, 49, 72
6, 18833, Note_on_c, 3, 48, 0
6, 18945, Note_on_c, 3, 51, 72
6, 18947, Note_on_c, 3, 49, 0
6, 19192, Note_on_c, 3, 49, 79
6, 19196, Note_on_c, 3, 51, 0
6, 19441, Note_on_c, 3, 49, 0
6, 19442, Note_on_c, 3, 48, 65
6, 19638, Note_on_c, 3, 48, 0
6, 19680, Note_on_c, 3, 49, 82
6, 19770, Note_on_c, 3, 49, 0
6, 19794, Note_on_c, 3, 46, 88
6, 19910, Note_on_c, 3, 46, 0
6, 19911, Note_on_c, 3, 48, 80
6, 19999, Note_on_c, 3, 48, 0
6, 20032, Note_on_c, 3, 36, 83
6, 20146, Note_on_c, 3, 41, 74
6, 20148, Note_on_c, 3, 36, 0
6, 20216, Note_on_c, 3, 41, 0
6, 20258, Note_on_c, 3, 53, 82
6, 20381, Note_on_c, 3, 51, 77
6, 20384, Note_on_c, 3, 53, 0
6, 20506, Note_on_c, 3, 50, 78
6, 20508, Note_on_c, 3, 51, 0
6, 20753, Note_on_c, 3, 48, 71
6, 20755, Note_on_c, 3, 50, 0
6, 20876, Note_on_c, 3, 46, 83
6, 20879, Note_on_c, 3, 48, 0
6, 20906, Note_on_c, 3, 46, 0
6, 20938, Note_on_c, 3, 60, 79
6, 20998, Note_on_c, 3, 58, 81
6, 21001, Note_on_c, 3, 60, 0
6, 21050, Note_on_c, 3, 56, 70
6, 21053, Note_on_c, 3, 58, 0
6, 21107, Note_on_c, 3, 56, 0
6, 21108, Note_on_c, 3, 55, 74
6, 21170, Note_on_c, 3, 53, 72
6, 21171, Note_on_c, 3, 55, 0
6, 21227, Note_on_c, 3, 51, 69
6, 21231, Note_on_c, 3, 53, 0
6, 21288, Note_on_c, 3, 51, 0
6, 21289, Note_on_c, 3, 50, 77
6, 21350, Note_on_c, 3, 48, 69
6, 21353, Note_on_c, 3, 50, 0
6, 21415, Note_on_c, 3, 46, 85
6, 21419, Note_on_c, 3, 48, 0
6, 21474, Note_on_c, 3, 46, 0
6, 21476, Note_on_c, 3, 44, 79
6, 21534, Note_on_c, 3, 44, 0
6, 21536, Note_on_c, 3, 43, 75
6, 21601, Note_on_c, 3, 41, 78
6, 21604, Note_on_c, 3, 43, 0
6, 21832, Note_on_c, 3, 43, 74
6, 21837, Note_on_c, 3, 41, 0
6, 21954, Note_on_c, 3, 44, 82
6, 21958, Note_on_c, 3, 43, 0
6, 22155, Note_on_c, 3, 44, 0
6, 22200, Note_on_c, 3, 43, 77
6, 22305, Note_on_c, 3, 44, 83
6, 22308, Note_on_c, 3, 43, 0
6, 22424, Note_on_c, 3, 44, 0
6, 22430, Note_on_c, 3, 46, 86
6, 22546, Note_on_c, 3, 44, 86
6, 22551, Note_on_c, 3, 46, 0
6, 22672, Note_on_c, 3, 43, 80
6, 22678, Note_on_c, 3, 44, 0
6, 22853, Note_on_c, 3, 43, 0
6, 22906, Note_on_c, 3, 44, 79
6, 23016, Note_on_c, 3, 44, 0
6, 23027, Note_on_c, 3, 46, 83
6, 23147, Note_on_c, 3, 48, 68
6, 23149, Note_on_c, 3, 46, 0
6, 23269, Note_on_c, 3, 49, 79
6, 23272, Note_on_c, 3, 48, 0
6, 23367, Note_on_c, 3, 49, 0
6, 23393, Note_on_c, 3, 48, 72
6, 23512, Note_on_c, 3, 46, 86
6, 23516, Note_on_c, 3, 48, 0
6, 23628, Note_on_c, 3, 44, 86
6, 23631, Note_on_c, 3, 46, 0
6, 23752, Note_on_c, 3, 44, 0
6, 23752, Note_on_c, 3, 46, 90
6, 23871, Note_on_c, 3, 44, 86
6, 23874, Note_on_c, 3, 46, 0
6, 23989, Note_on_c, 3, 44, 0
6, 23990, Note_on_c, 3, 43, 82
6, 24103, Note_on_c, 3, 44, 86
6, 24106, Note_on_c, 3, 43, 0
6, 24485, Note_on_c, 3, 39, 81
6, 24489, Note_on_c, 3, 44, 0
6, 24552, Note_on_c, 3, 39, 0
6, 24609, Note_on_c, 3, 51, 78
6, 24715, Note_on_c, 3, 51, 0
6, 24725, Note_on_c, 3, 50, 70
6, 24840, Note_on_c, 3, 48, 64
6, 24842, Note_on_c, 3, 50, 0
6, 25073, Note_on_c, 3, 46, 82
6, 25092, Note_on_c, 3, 48, 0
6, 25193, Note_on_c, 3, 46, 0
6, 25193, Note_on_c, 3, 45, 72
6, 25334, Note_on_c, 3, 45, 0
6, 25373, Note_on_c, 3, 41, 81
6, 25430, Note_on_c, 3, 43, 77
6, 25437, Note_on_c, 3, 41, 0
6, 25492, Note_on_c, 3, 43, 0
6, 25492, Note_on_c, 3, 45, 72
6, 25554, Note_on_c, 3, 46, 87
6, 25555, Note_on_c, 3, 45, 0
6, 25615, Note_on_c, 3, 45, 68
6, 25618, Note_on_c, 3, 46, 0
6, 25674, Note_on_c, 3, 46, 85
6, 25675, Note_on_c, 3, 45, 0
6, 25748, Note_on_c, 3, 46, 0
6, 25791, Note_on_c, 3, 38, 81
6, 25878, Note_on_c, 3, 38, 0
6, 25908, Note_on_c, 3, 39, 82
6, 26021, Note_on_c, 3, 39, 0
6, 26022, Note_on_c, 3, 36, 77
6, 26111, Note_on_c, 3, 36, 0
6, 26156, Note_on_c, 3, 55, 76
6, 26245, Note_on_c, 3, 55, 0
6, 26274, Note_on_c, 3, 51, 83
6, 26392, Note_on_c, 3, 48, 69
6, 26394, Note_on_c, 3, 51, 0
6, 26462, Note_on_c, 3, 48, 0
6, 26512, Note_on_c, 3, 53, 76
6, 26601, Note_on_c, 3, 53, 0
6, 26631, Note_on_c, 3, 46, 82
6, 26753, Note_on_c, 3, 48, 65
6, 26756, Note_on_c, 3, 46, 0
6, 26874, Note_on_c, 3, 48, 0
6, 26874, Note_on_c, 3, 50, 79
6, 26990, Note_on_c, 3, 51, 79
6, 26993, Note_on_c, 3, 50, 0
6, 27451, Note_on_c, 3, 51, 0
6, 27475, Note_on_c, 3, 50, 75
6, 27523, Note_on_c, 3, 50, 0
6, 27534, Note_on_c, 3, 55, 83
6, 27590, Note_on_c, 3, 53, 69
6, 27594, Note_on_c, 3, 55, 0
6, 27650, Note_on_c, 3, 55, 66
6, 27654, Note_on_c, 3, 53, 0
6, 27717, Note_on_c, 3, 48, 74
6, 27720, Note_on_c, 3, 55, 0
6, 27834, Note_on_c, 3, 50, 72
6, 27836, Note_on_c, 3, 48, 0
6, 27953, Note_on_c, 3, 51, 70
6, 27957, Note_on_c, 3, 50, 0
6, 28074, Note_on_c, 3, 53, 83
6, 28077, Note_on_c, 3, 51, 0
6, 28291, Note_on_c, 3, 53, 0
6, 28310, Note_on_c, 3, 54, 83
6, 28429, Note_on_c, 3, 55, 74
6, 28430, Note_on_c, 3, 54, 0
6, 28550, Note_on_c, 3, 53, 78
6, 28554, Note_on_c, 3, 55, 0
6, 28609, Note_on_c, 3, 51, 70
6, 28612, Note_on_c, 3, 53, 0
6, 28672, Note_on_c, 3, 50, 72
6, 28673, Note_on_c, 3, 51, 0
6, 28763, Note_on_c, 3, 50, 0
6, 28787, Note_on_c, 3, 51, 79
6, 28912, Note_on_c, 3, 51, 0
6, 28912, Note_on_c, 3, 53, 79
6, 29030, Note_on_c, 3, 41, 76
6, 29033, Note_on_c, 3, 53, 0
6, 29101, Note_on_c, 3, 41, 0
6, 29154, Note_on_c, 3, 46, 83
6, 29273, Note_on_c, 3, 46, 0
6, 29273, Note_on_c, 3, 48, 67
6, 29391, Note_on_c, 3, 50, 72
6, 29392, Note_on_c, 3, 48, 0
6, 29515, Note_on_c, 3, 51, 75
6, 29519, Note_on_c, 3, 50, 0
6, 29628, Note_on_c, 3, 53, 72
6, 29631, Note_on_c, 3, 51, 0
6, 29753, Note_on_c, 3, 55, 64
6, 29755, Note_on_c, 3, 53, 0
6, 29872, Note_on_c, 3, 56, 68
6, 29876, Note_on_c, 3, 55, 0
6, 30243, Note_on_c, 3, 56, 0
6, 30285, Note_on_c, 3, 56, 72
6, 30346, Note_on_c, 3, 55, 76
6, 30347, Note_on_c, 3, 56, 0
6, 30407, Note_on_c, 3, 53, 70
6, 30412, Note_on_c, 3, 55, 0
6, 30471, Note_on_c, 3, 51, 75
6, 30473, Note_on_c, 3, 53, 0
6, 30531, Note_on_c, 3, 51, 0
6, 30532, Note_on_c, 3, 55, 72
6, 30563, Note_on_c, 3, 55, 0
6, 30594, Note_on_c, 3, 45, 74
6, 30709, Note_on_c, 3, 45, 0
6, 30709, Note_on_c, 3, 47, 73
6, 30899, Note_on_c, 3, 47, 0
6, 30951, Note_on_c, 3, 48, 65
6, 31068, Note_on_c, 3, 48, 0
6, 31068, Note_on_c, 3, 50, 68
6, 31191, Note_on_c, 3, 51, 68
6, 31196, Note_on_c, 3, 50, 0
6, 31312, Note_on_c, 3, 51, 0
6, 31312, Note_on_c, 3, 53, 76
6, 31627, Note_on_c, 3, 53, 0
6, 31665, Note_on_c, 3, 54, 81
6, 31789, Note_on_c, 3, 54, 0
6, 31797, Note_on_c, 3, 55, 67
6, 32029, Note_on_c, 3, 53, 76
6, 32043, Note_on_c, 3, 55, 0
6, 32270, Note_on_c, 3, 51, 67
6, 32275, Note_on_c, 3, 53, 0
6, 32338, Note_on_c, 3, 51, 0
6, 32390, Note_on_c, 3, 50, 70
6, 32507, Note_on_c, 3, 48, 66
6, 32510, Note_on_c, 3, 50, 0
6, 32620, Note_on_c, 3, 46, 78
6, 32623, Note_on_c, 3, 48, 0
6, 32743, Note_on_c, 3, 51, 70
6, 32744, Note_on_c, 3, 46, 0
6, 33107, Note_on_c, 3, 52, 63
6, 33111, Note_on_c, 3, 51, 0
6, 33234, Note_on_c, 3, 50, 79
6, 33239, Note_on_c, 3, 52, 0
6, 33349, Note_on_c, 3, 48, 66
6, 33352, Note_on_c, 3, 50, 0
6, 33461, Note_on_c, 3, 48, 0
6, 33473, Note_on_c, 3, 53, 76
6, 33799, Note_on_c, 3, 53, 0
6, 33833, Note_on_c, 3, 46, 86
6, 33953, Note_on_c, 3, 48, 65
6, 33955, Note_on_c, 3, 46, 0
6, 34072, Note_on_c, 3, 49, 75
6, 34075, Note_on_c, 3, 48, 0
6, 34180, Note_on_c, 3, 49, 0
6, 34191, Note_on_c, 3, 48, 58
6, 34315, Note_on_c, 3, 50, 65
6, 34319, Note_on_c, 3, 48, 0
6, 34428, Note_on_c, 3, 52, 66
6, 34431, Note_on_c, 3, 50, 0
6, 34548, Note_on_c, 3, 53, 78
6, 34550, Note_on_c, 3, 52, 0
6, 34671, Note_on_c, 3, 53, 0
6, 34671, Note_on_c, 3, 55, 69
6, 34794, Note_on_c, 3, 56, 69
6, 34797, Note_on_c, 3, 55, 0
6, 34885, Note_on_c, 3, 56, 0
6, 34911, Note_on_c, 3, 46, 78
6, 35003, Note_on_c, 3, 46, 0
6, 35038, Note_on_c, 3, 51, 72
6, 35122, Note_on_c, 3, 51, 0
6, 35159, Note_on_c, 3, 39, 78
6, 35229, Note_on_c, 3, 39, 0
6, 35260, Note_on_c, 3, 44, 79
6, 35648, Note_on_c, 3, 44, 0
6, 35686, Note_on_c, 3, 48, 66
6, 35748, Note_on_c, 3, 46, 84
6, 35749, Note_on_c, 3, 48, 0
6, 35810, Note_on_c, 3, 44, 75
6, 35814, Note_on_c, 3, 46, 0
6, 35871, Note_on_c, 3, 44, 0
6, 35872, Note_on_c, 3, 43, 75
6, 35933, Note_on_c, 3, 41, 76
6, 35936, Note_on_c, 3, 43, 0
6, 35991, Note_on_c, 3, 40, 69
6, 35992, Note_on_c, 3, 41, 0
6, 36021, Note_on_c, 3, 40, 0
6, 36052, Note_on_c, 3, 49, 83
6, 36089, Note_on_c, 3, 49, 0
6, 36114, Note_on_c, 3, 48, 66
6, 36181, Note_on_c, 3, 46, 85
6, 36183, Note_on_c, 3, 48, 0
6, 36241, Note_on_c, 3, 44, 86
6, 36245, Note_on_c, 3, 46, 0
6, 36299, Note_on_c, 3, 43, 75
6, 36300, Note_on_c, 3, 44, 0
6, 36339, Note_on_c, 3, 43, 0
6, 36360, Note_on_c, 3, 41, 81
6, 36479, Note_on_c, 3, 43, 61
6, 36482, Note_on_c, 3, 41, 0
6, 36589, Note_on_c, 3, 44, 80
6, 36593, Note_on_c, 3, 43, 0
6, 36682, Note_on_c, 3, 44, 0
6, 36707, Note_on_c, 3, 46, 84
6, 36825, Note_on_c, 3, 46, 0
6, 36826, Note_on_c, 3, 48, 69
6, 36952, Note_on_c, 3, 49, 79
6, 36957, Note_on_c, 3, 48, 0
6, 37049, Note_on_c, 3, 49, 0
6, 37079, Note_on_c, 3, 44, 80
6, 37196, Note_on_c, 3, 44, 0
6, 37197, Note_on_c, 3, 46, 86
6, 37316, Note_on_c, 3, 48, 65
6, 37317, Note_on_c, 3, 46, 0
6, 37437, Note_on_c, 3, 41, 79
6, 37438, Note_on_c, 3, 48, 0
6, 37559, Note_on_c, 3, 41, 0
6, 37677, Note_on_c, 3, 53, 78
6, 37795, Note_on_c, 3, 58, 79
6, 37799, Note_on_c, 3, 53, 0
6, 37957, Note_on_c, 3, 58, 0
6, 38036, Note_on_c, 3, 46, 86
6, 38118, Note_on_c, 3, 46, 0
6, 38155, Note_on_c, 3, 41, 81
6, 38265, Note_on_c, 3, 43, 76
6, 38267, Note_on_c, 3, 41, 0
6, 38387, Note_on_c, 3, 45, 79
6, 38388, Note_on_c, 3, 43, 0
6, 38509, Note_on_c, 3, 46, 81
6, 38512, Note_on_c, 3, 45, 0
6, 38636, Note_on_c, 3, 48, 70
6, 38639, Note_on_c, 3, 46, 0
6, 38757, Note_on_c, 3, 49, 78
6, 38763, Note_on_c, 3, 48, 0
6, 38846, Note_on_c, 3, 49, 0
6, 38871, Note_on_c, 3, 51, 81
6, 38991, Note_on_c, 3, 51, 0
6, 38991, Note_on_c, 3, 53, 82
6, 39103, Note_on_c, 3, 54, 81
6, 39107, Note_on_c, 3, 53, 0
6, 39211, Note_on_c, 3, 54, 0
6, 39231, Note_on_c, 3, 53, 79
6, 39276, Note_on_c, 3, 53, 0
6, 39292, Note_on_c, 3, 51, 79
6, 39352, Note_on_c, 3, 49, 75
6, 39355, Note_on_c, 3, 51, 0
6, 39409, Note_on_c, 3, 49, 0
6, 39410, Note_on_c, 3, 48, 74
6, 39471, Note_on_c, 3, 46, 85
6, 39472, Note_on_c, 3, 48, 0
6, 39533, Note_on_c, 3, 44, 79
6, 39536, Note_on_c, 3, 46, 0
6, 39591, Note_on_c, 3, 44, 0
6, 39592, Note_on_c, 3, 42, 83
6, 39652, Note_on_c, 3, 39, 78
6, 39658, Note_on_c, 3, 42, 0
6, 39705, Note_on_c, 3, 39, 0
6, 39710, Note_on_c, 3, 41, 70
6, 39780, Note_on_c, 3, 41, 0
6, 39826, Note_on_c, 3, 53, 77
6, 39906, Note_on_c, 3, 53, 0
6, 39947, Note_on_c, 3, 46, 86
6, 40026, Note_on_c, 3, 46, 0
6, 40078, Note_on_c, 3, 58, 79
6, 40171, Note_on_c, 3, 58, 0
6, 40199, Note_on_c, 3, 53, 72
6, 40308, Note_on_c, 3, 55, 79
6, 40316, Note_on_c, 3, 53, 0
6, 40384, Note_on_c, 3, 55, 0
6, 40425, Note_on_c, 3, 43, 71
6, 40513, Note_on_c, 3, 43, 0
6, 40542, Note_on_c, 3, 50, 76
6, 40661, Note_on_c, 3, 51, 77
6, 40662, Note_on_c, 3, 50, 0
6, 40751, Note_on_c, 3, 51, 0
6, 40791, Note_on_c, 3, 48, 65
6, 40866, Note_on_c, 3, 48, 0
6, 40900, Note_on_c, 3, 53, 75
6, 40981, Note_on_c, 3, 53, 0
6, 41025, Note_on_c, 3, 46, 80
6, 41141, Note_on_c, 3, 46, 0
6, 41157, Note_on_c, 3, 48, 64
6, 41276, Note_on_c, 3, 48, 0
6, 41277, Note_on_c, 3, 50, 71
6, 41400, Note_on_c, 3, 51, 77
6, 41411, Note_on_c, 3, 50, 0
6, 41645, Note_on_c, 3, 46, 84
6, 41654, Note_on_c, 3, 51, 0
6, 41727, Note_on_c, 3, 46, 0
6, 41765, Note_on_c, 3, 48, 66
6, 41850, Note_on_c, 3, 48, 0
6, 41876, Note_on_c, 3, 60, 65
6, 41989, Note_on_c, 3, 55, 69
6, 41991, Note_on_c, 3, 60, 0
6, 42084, Note_on_c, 3, 55, 0
6, 42101, Note_on_c, 3, 56, 74
6, 42218, Note_on_c, 3, 53, 72
6, 42219, Note_on_c, 3, 56, 0
6, 42286, Note_on_c, 3, 53, 0
6, 42337, Note_on_c, 3, 58, 79
6, 42411, Note_on_c, 3, 58, 0
6, 42460, Note_on_c, 3, 51, 80
6, 42586, Note_on_c, 3, 53, 78
6, 42587, Note_on_c, 3, 51, 0
6, 42714, Note_on_c, 3, 55, 72
6, 42715, Note_on_c, 3, 53, 0
6, 42803, Note_on_c, 3, 55, 0
6, 42829, Note_on_c, 3, 48, 62
6, 42879, Note_on_c, 3, 48, 0
6, 42894, Note_on_c, 3, 51, 82
6, 42952, Note_on_c, 3, 50, 70
6, 42953, Note_on_c, 3, 51, 0
6, 43010, Note_on_c, 3, 50, 0
6, 43011, Note_on_c, 3, 48, 65
6, 43068, Note_on_c, 3, 46, 85
6, 43072, Note_on_c, 3, 48, 0
6, 43127, Note_on_c, 3, 44, 86
6, 43129, Note_on_c, 3, 46, 0
6, 43190, Note_on_c, 3, 43, 72
6, 43192, Note_on_c, 3, 44, 0
6, 43242, Note_on_c, 3, 43, 0
6, 43254, Note_on_c, 3, 44, 82
6, 43311, Note_on_c, 3, 43, 78
6, 43312, Note_on_c, 3, 44, 0
6, 43370, Note_on_c, 3, 41, 76
6, 43373, Note_on_c, 3, 43, 0
6, 43430, Note_on_c, 3, 39, 86
6, 43433, Note_on_c, 3, 41, 0
6, 43490, Note_on_c, 3, 38, 82
6, 43492, Note_on_c, 3, 39, 0
6, 43555, Note_on_c, 3, 36, 83
6, 43558, Note_on_c, 3, 38, 0
6, 43637, Note_on_c, 3, 36, 0
6, 43677, Note_on_c, 3, 48, 65
6, 43782, Note_on_c, 3, 48, 0
6, 43793, Note_on_c, 3, 43, 73
6, 43880, Note_on_c, 3, 43, 0
6, 43914, Note_on_c, 3, 44, 82
6, 44027, Note_on_c, 3, 44, 0
6, 44090, Note_on_c, 3, 41, 79
6, 44151, Note_on_c, 3, 41, 0
6, 44151, Note_on_c, 3, 43, 77
6, 44221, Note_on_c, 3, 38, 79
6, 44224, Note_on_c, 3, 43, 0
6, 44275, Note_on_c, 3, 39, 82
6, 44276, Note_on_c, 3, 38, 0
6, 44323, Note_on_c, 3, 39, 0
6, 44338, Note_on_c, 3, 44, 79
6, 44373, Note_on_c, 3, 44, 0
6, 44393, Note_on_c, 3, 46, 84
6, 44634, Note_on_c, 3, 48, 68
6, 44636, Note_on_c, 3, 46, 0
6, 44769, Note_on_c, 3, 48, 0
6, 44808, Note_on_c, 3, 46, 86
6, 44867, Note_on_c, 3, 46, 0
6, 44867, Note_on_c, 3, 48, 68
6, 44926, Note_on_c, 3, 48, 0
6, 44926, Note_on_c, 3, 50, 76
6, 44991, Note_on_c, 3, 51, 79
6, 44995, Note_on_c, 3, 50, 0
6, 45118, Note_on_c, 3, 51, 0
6, 45168, Note_on_c, 3, 51, 80
6, 45231, Note_on_c, 3, 51, 0
6, 45231, Note_on_c, 3, 53, 81
6, 45290, Note_on_c, 3, 53, 0
6, 45290, Note_on_c, 3, 55, 74
6, 45353, Note_on_c, 3, 56, 78
6, 45358, Note_on_c, 3, 55, 0
6, 45467, Note_on_c, 3, 56, 0
6, 45531, Note_on_c, 3, 46, 86
6, 45592, Note_on_c, 3, 48, 68
6, 45596, Note_on_c, 3, 46, 0
6, 45653, Note_on_c, 3, 38, 78
6, 45654, Note_on_c, 3, 48, 0
6, 45693, Note_on_c, 3, 38, 0
6, 45720, Note_on_c, 3, 39, 82
6, 46444, Note_on_c, 3, 39, 0
6, 46444, End_track
7, 0, Start_track
7, 0, MIDI_port, 0
7, 0, End_track
8, 0, Start_track
8, 0, Title_t, "Schmuecke dich, o liebe Seele"
8, 0, MIDI_port, 0
8, 0, End_track
9, 0, Start_track
9, 0, Title_t, "by J S Bach (BWV 654)"
9, 0, MIDI_port, 0
9, 0, End_track
10, 0, Start_track
10, 0, MIDI_port, 0
10, 0, End_track
11, 0, Start_track
11, 0, Title_t, "Sequenced using WinJammer Professional"
11, 0, MIDI_port, 0
11, 0, End_track
12, 0, Start_track
12, 0, Title_t, "on Windows NT by Martin Robinson."
12, 0, MIDI_port, 0
12, 0, End_track
13, 0, Start_track
13, 0, Title_t, "(c) Martin Robinson 1997"
13, 0, MIDI_port, 0
13, 0, End_track
0, 0, End_of_file
