0, 0, Header, 1, 10, 120
1, 0, Start_track
1, 0, Sequencer_specific, 10, 0, 0, 91, 35, 1, 0, 5, 3, 24, 0
1, 0, Instrument_name_t, "Conductor Track"
1, 0, SMPTE_offset, 96, 0, 3, 0, 0
1, 0, MIDI_port, 0
1, 0, Tempo, 1714285
1, 0, Time_signature, 1, 2, 24, 8
1, 120, Time_signature, 4, 2, 24, 8
1, 17640, Tempo, 2400000
1, 17790, Tempo, 3000000
1, 17894, Tempo, 1500000
1, 17894, End_track
2, 0, Start_track
2, 0, Title_t, "Man"
2, 0, MIDI_port, 0
2, 0, Control_c, 0, 7, 106
2, 0, Control_c, 0, 93, 110
2, 0, Control_c, 0, 91, 127
2, 0, Control_c, 0, 10, 51
2, 0, Control_c, 0, 1, 58
2, 0, Program_c, 0, 75
2, 64, Note_on_c, 0, 60, 64
2, 117, Note_on_c, 0, 60, 0
2, 120, Note_on_c, 0, 65, 64
2, 145, Note_on_c, 0, 53, 64
2, 160, Note_on_c, 0, 53, 0
2, 160, Note_on_c, 0, 55, 64
2, 176, Note_on_c, 0, 56, 64
2, 177, Note_on_c, 0, 55, 0
2, 202, Note_on_c, 0, 65, 0
2, 203, Note_on_c, 0, 67, 64
2, 203, Note_on_c, 0, 58, 64
2, 204, Note_on_c, 0, 56, 0
2, 216, Note_on_c, 0, 68, 64
2, 217, Note_on_c, 0, 58, 0
2, 217, Note_on_c, 0, 60, 64
2, 218, Note_on_c, 0, 67, 0
2, 222, Note_on_c, 0, 68, 0
2, 232, Note_on_c, 0, 61, 64
2, 232, Note_on_c, 0, 68, 64
2, 233, Note_on_c, 0, 60, 0
2, 237, Note_on_c, 0, 68, 0
2, 237, Note_on_c, 0, 67, 64
2, 242, Note_on_c, 0, 67, 0
2, 243, Note_on_c, 0, 68, 64
2, 247, Note_on_c, 0, 68, 0
2, 248, Note_on_c, 0, 67, 64
2, 251, Note_on_c, 0, 61, 0
2, 252, Note_on_c, 0, 67, 0
2, 253, Note_on_c, 0, 68, 64
2, 258, Note_on_c, 0, 68, 0
2, 258, Note_on_c, 0, 67, 64
2, 261, Note_on_c, 0, 58, 64
2, 263, Note_on_c, 0, 67, 0
2, 263, Note_on_c, 0, 68, 64
2, 267, Note_on_c, 0, 68, 0
2, 268, Note_on_c, 0, 67, 64
2, 272, Note_on_c, 0, 67, 0
2, 273, Note_on_c, 0, 68, 64
2, 277, Note_on_c, 0, 68, 0
2, 278, Note_on_c, 0, 58, 0
2, 278, Note_on_c, 0, 67, 64
2, 281, Note_on_c, 0, 67, 0
2, 282, Note_on_c, 0, 68, 64
2, 285, Note_on_c, 0, 68, 0
2, 286, Note_on_c, 0, 67, 64
2, 289, Note_on_c, 0, 67, 0
2, 289, Note_on_c, 0, 68, 64
2, 292, Note_on_c, 0, 68, 0
2, 293, Note_on_c, 0, 52, 64
2, 293, Note_on_c, 0, 67, 64
2, 295, Note_on_c, 0, 67, 0
2, 295, Note_on_c, 0, 68, 64
2, 299, Note_on_c, 0, 68, 0
2, 299, Note_on_c, 0, 67, 64
2, 325, Note_on_c, 0, 52, 0
2, 325, Note_on_c, 0, 67, 0
2, 325, Note_on_c, 0, 60, 64
2, 325, Note_on_c, 0, 65, 64
2, 338, Note_on_c, 0, 65, 0
2, 339, Note_on_c, 0, 67, 64
2, 355, Note_on_c, 0, 60, 0
2, 356, Note_on_c, 0, 67, 0
2, 356, Note_on_c, 0, 53, 64
2, 356, Note_on_c, 0, 68, 64
2, 384, Note_on_c, 0, 56, 64
2, 399, Note_on_c, 0, 58, 64
2, 401, Note_on_c, 0, 56, 0
2, 415, Note_on_c, 0, 51, 64
2, 416, Note_on_c, 0, 58, 0
2, 416, Note_on_c, 0, 60, 64
2, 418, Note_on_c, 0, 53, 0
2, 445, Note_on_c, 0, 62, 64
2, 458, Note_on_c, 0, 63, 64
2, 459, Note_on_c, 0, 62, 0
2, 464, Note_on_c, 0, 68, 0
2, 472, Note_on_c, 0, 60, 0
2, 472, Note_on_c, 0, 63, 0
2, 474, Note_on_c, 0, 65, 64
2, 474, Note_on_c, 0, 70, 64
2, 475, Note_on_c, 0, 51, 0
2, 475, Note_on_c, 0, 50, 64
2, 504, Note_on_c, 0, 58, 64
2, 533, Note_on_c, 0, 65, 0
2, 533, Note_on_c, 0, 68, 64
2, 534, Note_on_c, 0, 58, 0
2, 534, Note_on_c, 0, 46, 64
2, 534, Note_on_c, 0, 53, 64
2, 535, Note_on_c, 0, 70, 0
2, 536, Note_on_c, 0, 50, 0
2, 565, Note_on_c, 0, 62, 64
2, 582, Note_on_c, 0, 68, 0
2, 595, Note_on_c, 0, 46, 0
2, 595, Note_on_c, 0, 67, 64
2, 596, Note_on_c, 0, 51, 64
2, 597, Note_on_c, 0, 53, 0
2, 623, Note_on_c, 0, 62, 0
2, 624, Note_on_c, 0, 69, 64
2, 625, Note_on_c, 0, 67, 0
2, 637, Note_on_c, 0, 69, 0
2, 637, Note_on_c, 0, 71, 64
2, 653, Note_on_c, 0, 71, 0
2, 654, Note_on_c, 0, 60, 64
2, 654, Note_on_c, 0, 72, 64
2, 683, Note_on_c, 0, 72, 0
2, 684, Note_on_c, 0, 74, 64
2, 697, Note_on_c, 0, 74, 0
2, 697, Note_on_c, 0, 75, 64
2, 712, Note_on_c, 0, 75, 0
2, 712, Note_on_c, 0, 77, 64
2, 712, Note_on_c, 0, 50, 64
2, 715, Note_on_c, 0, 51, 0
2, 742, Note_on_c, 0, 77, 0
2, 742, Note_on_c, 0, 74, 64
2, 773, Note_on_c, 0, 60, 0
2, 773, Note_on_c, 0, 74, 0
2, 773, Note_on_c, 0, 67, 64
2, 773, Note_on_c, 0, 59, 64
2, 805, Note_on_c, 0, 67, 0
2, 805, Note_on_c, 0, 77, 64
2, 819, Note_on_c, 0, 59, 0
2, 820, Note_on_c, 0, 50, 0
2, 836, Note_on_c, 0, 60, 64
2, 836, Note_on_c, 0, 75, 64
2, 837, Note_on_c, 0, 77, 0
2, 865, Note_on_c, 0, 48, 64
2, 879, Note_on_c, 0, 50, 64
2, 880, Note_on_c, 0, 48, 0
2, 896, Note_on_c, 0, 51, 64
2, 897, Note_on_c, 0, 50, 0
2, 923, Note_on_c, 0, 53, 64
2, 924, Note_on_c, 0, 51, 0
2, 938, Note_on_c, 0, 53, 0
2, 938, Note_on_c, 0, 55, 64
2, 944, Note_on_c, 0, 60, 0
2, 949, Note_on_c, 0, 75, 0
2, 954, Note_on_c, 0, 56, 64
2, 955, Note_on_c, 0, 55, 0
2, 982, Note_on_c, 0, 65, 64
2, 997, Note_on_c, 0, 67, 64
2, 998, Note_on_c, 0, 65, 0
2, 1013, Note_on_c, 0, 68, 64
2, 1015, Note_on_c, 0, 67, 0
2, 1041, Note_on_c, 0, 68, 0
2, 1041, Note_on_c, 0, 70, 64
2, 1055, Note_on_c, 0, 70, 0
2, 1056, Note_on_c, 0, 72, 64
2, 1072, Note_on_c, 0, 73, 64
2, 1073, Note_on_c, 0, 72, 0
2, 1077, Note_on_c, 0, 56, 0
2, 1102, Note_on_c, 0, 46, 64
2, 1117, Note_on_c, 0, 46, 0
2, 1117, Note_on_c, 0, 48, 64
2, 1133, Note_on_c, 0, 49, 64
2, 1135, Note_on_c, 0, 48, 0
2, 1162, Note_on_c, 0, 49, 0
2, 1163, Note_on_c, 0, 51, 64
2, 1177, Note_on_c, 0, 51, 0
2, 1177, Note_on_c, 0, 53, 64
2, 1194, Note_on_c, 0, 55, 64
2, 1195, Note_on_c, 0, 53, 0
2, 1197, Note_on_c, 0, 73, 0
2, 1222, Note_on_c, 0, 63, 64
2, 1236, Note_on_c, 0, 63, 0
2, 1236, Note_on_c, 0, 65, 64
2, 1252, Note_on_c, 0, 65, 0
2, 1252, Note_on_c, 0, 67, 64
2, 1281, Note_on_c, 0, 68, 64
2, 1282, Note_on_c, 0, 67, 0
2, 1296, Note_on_c, 0, 68, 0
2, 1296, Note_on_c, 0, 70, 64
2, 1312, Note_on_c, 0, 70, 0
2, 1312, Note_on_c, 0, 72, 64
2, 1341, Note_on_c, 0, 62, 64
2, 1356, Note_on_c, 0, 64, 64
2, 1357, Note_on_c, 0, 62, 0
2, 1372, Note_on_c, 0, 65, 64
2, 1373, Note_on_c, 0, 64, 0
2, 1373, Note_on_c, 0, 53, 64
2, 1374, Note_on_c, 0, 55, 0
2, 1402, Note_on_c, 0, 67, 64
2, 1403, Note_on_c, 0, 65, 0
2, 1417, Note_on_c, 0, 68, 64
2, 1418, Note_on_c, 0, 67, 0
2, 1435, Note_on_c, 0, 70, 64
2, 1436, Note_on_c, 0, 68, 0
2, 1465, Note_on_c, 0, 67, 64
2, 1466, Note_on_c, 0, 70, 0
2, 1496, Note_on_c, 0, 67, 0
2, 1496, Note_on_c, 0, 60, 64
2, 1496, Note_on_c, 0, 52, 64
2, 1498, Note_on_c, 0, 53, 0
2, 1526, Note_on_c, 0, 70, 64
2, 1536, Note_on_c, 0, 60, 0
2, 1557, Note_on_c, 0, 52, 0
2, 1557, Note_on_c, 0, 53, 64
2, 1557, Note_on_c, 0, 68, 64
2, 1558, Note_on_c, 0, 70, 0
2, 1586, Note_on_c, 0, 53, 0
2, 1587, Note_on_c, 0, 41, 64
2, 1602, Note_on_c, 0, 43, 64
2, 1603, Note_on_c, 0, 41, 0
2, 1618, Note_on_c, 0, 68, 0
2, 1618, Note_on_c, 0, 44, 64
2, 1618, Note_on_c, 0, 67, 64
2, 1620, Note_on_c, 0, 43, 0
2, 1646, Note_on_c, 0, 46, 64
2, 1647, Note_on_c, 0, 44, 0
2, 1661, Note_on_c, 0, 46, 0
2, 1661, Note_on_c, 0, 48, 64
2, 1676, Note_on_c, 0, 49, 64
2, 1677, Note_on_c, 0, 67, 0
2, 1677, Note_on_c, 0, 65, 64
2, 1678, Note_on_c, 0, 48, 0
2, 1707, Note_on_c, 0, 49, 0
2, 1707, Note_on_c, 0, 46, 64
2, 1735, Note_on_c, 0, 67, 64
2, 1735, Note_on_c, 0, 70, 64
2, 1736, Note_on_c, 0, 72, 0
2, 1736, Note_on_c, 0, 46, 0
2, 1736, Note_on_c, 0, 41, 64
2, 1737, Note_on_c, 0, 65, 0
2, 1764, Note_on_c, 0, 49, 64
2, 1765, Note_on_c, 0, 41, 0
2, 1796, Note_on_c, 0, 40, 64
2, 1797, Note_on_c, 0, 49, 0
2, 1818, Note_on_c, 0, 70, 0
2, 1826, Note_on_c, 0, 72, 64
2, 1840, Note_on_c, 0, 70, 64
2, 1841, Note_on_c, 0, 72, 0
2, 1845, Note_on_c, 0, 67, 0
2, 1857, Note_on_c, 0, 68, 64
2, 1857, Note_on_c, 0, 65, 64
2, 1858, Note_on_c, 0, 70, 0
2, 1858, Note_on_c, 0, 41, 64
2, 1859, Note_on_c, 0, 40, 0
2, 1887, Note_on_c, 0, 68, 0
2, 1887, Note_on_c, 0, 70, 64
2, 1901, Note_on_c, 0, 72, 64
2, 1902, Note_on_c, 0, 70, 0
2, 1913, Note_on_c, 0, 72, 0
2, 1918, Note_on_c, 0, 73, 64
2, 1919, Note_on_c, 0, 36, 64
2, 1921, Note_on_c, 0, 41, 0
2, 1942, Note_on_c, 0, 73, 0
2, 1947, Note_on_c, 0, 70, 64
2, 1960, Note_on_c, 0, 65, 0
2, 1974, Note_on_c, 0, 70, 0
2, 1975, Note_on_c, 0, 64, 64
2, 1975, Note_on_c, 0, 67, 64
2, 1976, Note_on_c, 0, 48, 64
2, 1978, Note_on_c, 0, 36, 0
2, 2004, Note_on_c, 0, 67, 0
2, 2004, Note_on_c, 0, 72, 64
2, 2031, Note_on_c, 0, 48, 0
2, 2032, Note_on_c, 0, 49, 64
2, 2033, Note_on_c, 0, 64, 0
2, 2033, Note_on_c, 0, 72, 0
2, 2033, Note_on_c, 0, 68, 64
2, 2062, Note_on_c, 0, 53, 64
2, 2076, Note_on_c, 0, 53, 0
2, 2076, Note_on_c, 0, 55, 64
2, 2093, Note_on_c, 0, 49, 0
2, 2093, Note_on_c, 0, 68, 0
2, 2093, Note_on_c, 0, 48, 64
2, 2094, Note_on_c, 0, 56, 64
2, 2094, Note_on_c, 0, 65, 64
2, 2095, Note_on_c, 0, 55, 0
2, 2119, Note_on_c, 0, 56, 0
2, 2122, Note_on_c, 0, 58, 64
2, 2135, Note_on_c, 0, 58, 0
2, 2135, Note_on_c, 0, 60, 64
2, 2150, Note_on_c, 0, 60, 0
2, 2151, Note_on_c, 0, 48, 0
2, 2151, Note_on_c, 0, 46, 64
2, 2151, Note_on_c, 0, 61, 64
2, 2182, Note_on_c, 0, 61, 0
2, 2183, Note_on_c, 0, 58, 64
2, 2196, Note_on_c, 0, 58, 0
2, 2212, Note_on_c, 0, 48, 64
2, 2212, Note_on_c, 0, 64, 64
2, 2213, Note_on_c, 0, 65, 0
2, 2213, Note_on_c, 0, 46, 0
2, 2213, Note_on_c, 0, 55, 64
2, 2243, Note_on_c, 0, 60, 64
2, 2245, Note_on_c, 0, 55, 0
2, 2274, Note_on_c, 0, 53, 64
2, 2274, Note_on_c, 0, 65, 64
2, 2275, Note_on_c, 0, 64, 0
2, 2275, Note_on_c, 0, 60, 0
2, 2276, Note_on_c, 0, 48, 0
2, 2305, Note_on_c, 0, 48, 64
2, 2334, Note_on_c, 0, 48, 0
2, 2334, Note_on_c, 0, 41, 64
2, 2362, Note_on_c, 0, 51, 64
2, 2363, Note_on_c, 0, 41, 0
2, 2391, Note_on_c, 0, 50, 64
2, 2392, Note_on_c, 0, 51, 0
2, 2421, Note_on_c, 0, 58, 64
2, 2435, Note_on_c, 0, 58, 0
2, 2436, Note_on_c, 0, 60, 64
2, 2452, Note_on_c, 0, 50, 0
2, 2452, Note_on_c, 0, 60, 0
2, 2452, Note_on_c, 0, 46, 64
2, 2452, Note_on_c, 0, 62, 64
2, 2477, Note_on_c, 0, 62, 0
2, 2481, Note_on_c, 0, 53, 0
2, 2482, Note_on_c, 0, 63, 64
2, 2483, Note_on_c, 0, 65, 0
2, 2497, Note_on_c, 0, 63, 0
2, 2497, Note_on_c, 0, 65, 64
2, 2514, Note_on_c, 0, 65, 0
2, 2514, Note_on_c, 0, 51, 64
2, 2514, Note_on_c, 0, 67, 64
2, 2515, Note_on_c, 0, 46, 0
2, 2543, Note_on_c, 0, 69, 64
2, 2557, Note_on_c, 0, 71, 64
2, 2559, Note_on_c, 0, 69, 0
2, 2573, Note_on_c, 0, 71, 0
2, 2573, Note_on_c, 0, 50, 64
2, 2573, Note_on_c, 0, 72, 64
2, 2575, Note_on_c, 0, 51, 0
2, 2603, Note_on_c, 0, 74, 64
2, 2604, Note_on_c, 0, 50, 0
2, 2604, Note_on_c, 0, 72, 0
2, 2604, Note_on_c, 0, 48, 64
2, 2617, Note_on_c, 0, 74, 0
2, 2618, Note_on_c, 0, 75, 64
2, 2635, Note_on_c, 0, 77, 64
2, 2636, Note_on_c, 0, 75, 0
2, 2636, Note_on_c, 0, 47, 64
2, 2637, Note_on_c, 0, 48, 0
2, 2663, Note_on_c, 0, 74, 64
2, 2664, Note_on_c, 0, 77, 0
2, 2694, Note_on_c, 0, 74, 0
2, 2694, Note_on_c, 0, 71, 64
2, 2694, Note_on_c, 0, 43, 64
2, 2695, Note_on_c, 0, 47, 0
2, 2724, Note_on_c, 0, 74, 64
2, 2725, Note_on_c, 0, 71, 0
2, 2754, Note_on_c, 0, 48, 64
2, 2755, Note_on_c, 0, 43, 0
2, 2757, Note_on_c, 0, 67, 0
2, 2783, Note_on_c, 0, 63, 64
2, 2794, Note_on_c, 0, 63, 0
2, 2798, Note_on_c, 0, 65, 64
2, 2811, Note_on_c, 0, 65, 0
2, 2814, Note_on_c, 0, 67, 64
2, 2815, Note_on_c, 0, 46, 64
2, 2815, Note_on_c, 0, 73, 64
2, 2816, Note_on_c, 0, 74, 0
2, 2818, Note_on_c, 0, 48, 0
2, 2844, Note_on_c, 0, 67, 0
2, 2845, Note_on_c, 0, 68, 64
2, 2856, Note_on_c, 0, 68, 0
2, 2860, Note_on_c, 0, 70, 64
2, 2869, Note_on_c, 0, 73, 0
2, 2874, Note_on_c, 0, 70, 0
2, 2875, Note_on_c, 0, 72, 64
2, 2875, Note_on_c, 0, 44, 64
2, 2877, Note_on_c, 0, 46, 0
2, 2905, Note_on_c, 0, 68, 64
2, 2923, Note_on_c, 0, 44, 0
2, 2935, Note_on_c, 0, 68, 0
2, 2935, Note_on_c, 0, 63, 64
2, 2935, Note_on_c, 0, 56, 64
2, 2963, Note_on_c, 0, 63, 0
2, 2965, Note_on_c, 0, 66, 64
2, 2995, Note_on_c, 0, 66, 0
2, 2995, Note_on_c, 0, 65, 64
2, 2996, Note_on_c, 0, 49, 64
2, 2997, Note_on_c, 0, 56, 0
2, 3011, Note_on_c, 0, 65, 0
2, 3027, Note_on_c, 0, 65, 64
2, 3028, Note_on_c, 0, 72, 0
2, 3042, Note_on_c, 0, 65, 0
2, 3042, Note_on_c, 0, 67, 64
2, 3058, Note_on_c, 0, 67, 0
2, 3058, Note_on_c, 0, 48, 64
2, 3058, Note_on_c, 0, 68, 64
2, 3059, Note_on_c, 0, 49, 0
2, 3081, Note_on_c, 0, 68, 0
2, 3084, Note_on_c, 0, 70, 64
2, 3097, Note_on_c, 0, 70, 0
2, 3097, Note_on_c, 0, 72, 64
2, 3113, Note_on_c, 0, 73, 64
2, 3114, Note_on_c, 0, 72, 0
2, 3114, Note_on_c, 0, 46, 64
2, 3116, Note_on_c, 0, 48, 0
2, 3144, Note_on_c, 0, 70, 64
2, 3173, Note_on_c, 0, 70, 0
2, 3174, Note_on_c, 0, 58, 64
2, 3174, Note_on_c, 0, 65, 64
2, 3175, Note_on_c, 0, 46, 0
2, 3205, Note_on_c, 0, 65, 0
2, 3205, Note_on_c, 0, 68, 64
2, 3235, Note_on_c, 0, 68, 0
2, 3235, Note_on_c, 0, 67, 64
2, 3236, Note_on_c, 0, 52, 64
2, 3237, Note_on_c, 0, 58, 0
2, 3249, Note_on_c, 0, 73, 0
2, 3265, Note_on_c, 0, 70, 64
2, 3280, Note_on_c, 0, 68, 64
2, 3282, Note_on_c, 0, 67, 0
2, 3282, Note_on_c, 0, 70, 0
2, 3297, Note_on_c, 0, 68, 0
2, 3297, Note_on_c, 0, 50, 64
2, 3297, Note_on_c, 0, 67, 64
2, 3298, Note_on_c, 0, 52, 0
2, 3326, Note_on_c, 0, 67, 0
2, 3326, Note_on_c, 0, 68, 64
2, 3339, Note_on_c, 0, 68, 0
2, 3339, Note_on_c, 0, 70, 64
2, 3355, Note_on_c, 0, 70, 0
2, 3355, Note_on_c, 0, 48, 64
2, 3355, Note_on_c, 0, 64, 64
2, 3356, Note_on_c, 0, 50, 0
2, 3384, Note_on_c, 0, 64, 0
2, 3384, Note_on_c, 0, 67, 64
2, 3384, Note_on_c, 0, 36, 64
2, 3399, Note_on_c, 0, 38, 64
2, 3400, Note_on_c, 0, 48, 0
2, 3402, Note_on_c, 0, 36, 0
2, 3415, Note_on_c, 0, 60, 64
2, 3416, Note_on_c, 0, 67, 0
2, 3416, Note_on_c, 0, 40, 64
2, 3417, Note_on_c, 0, 38, 0
2, 3440, Note_on_c, 0, 60, 0
2, 3445, Note_on_c, 0, 64, 64
2, 3445, Note_on_c, 0, 41, 64
2, 3446, Note_on_c, 0, 40, 0
2, 3458, Note_on_c, 0, 41, 0
2, 3458, Note_on_c, 0, 43, 64
2, 3475, Note_on_c, 0, 43, 0
2, 3475, Note_on_c, 0, 44, 64
2, 3475, Note_on_c, 0, 65, 64
2, 3476, Note_on_c, 0, 64, 0
2, 3504, Note_on_c, 0, 65, 0
2, 3504, Note_on_c, 0, 60, 64
2, 3517, Note_on_c, 0, 60, 0
2, 3517, Note_on_c, 0, 62, 64
2, 3534, Note_on_c, 0, 62, 0
2, 3534, Note_on_c, 0, 64, 64
2, 3534, Note_on_c, 0, 43, 64
2, 3535, Note_on_c, 0, 44, 0
2, 3562, Note_on_c, 0, 64, 0
2, 3562, Note_on_c, 0, 65, 64
2, 3576, Note_on_c, 0, 67, 64
2, 3577, Note_on_c, 0, 65, 0
2, 3594, Note_on_c, 0, 41, 64
2, 3595, Note_on_c, 0, 68, 64
2, 3596, Note_on_c, 0, 43, 0
2, 3596, Note_on_c, 0, 67, 0
2, 3610, Note_on_c, 0, 68, 0
2, 3624, Note_on_c, 0, 72, 64
2, 3638, Note_on_c, 0, 72, 0
2, 3638, Note_on_c, 0, 74, 64
2, 3654, Note_on_c, 0, 74, 0
2, 3654, Note_on_c, 0, 36, 64
2, 3654, Note_on_c, 0, 76, 64
2, 3655, Note_on_c, 0, 41, 0
2, 3682, Note_on_c, 0, 76, 0
2, 3682, Note_on_c, 0, 77, 64
2, 3697, Note_on_c, 0, 77, 0
2, 3697, Note_on_c, 0, 79, 64
2, 3713, Note_on_c, 0, 36, 0
2, 3713, Note_on_c, 0, 80, 64
2, 3713, Note_on_c, 0, 41, 64
2, 3714, Note_on_c, 0, 79, 0
2, 3730, Note_on_c, 0, 41, 0
2, 3743, Note_on_c, 0, 48, 64
2, 3743, Note_on_c, 0, 72, 64
2, 3757, Note_on_c, 0, 48, 0
2, 3757, Note_on_c, 0, 50, 64
2, 3769, Note_on_c, 0, 80, 0
2, 3773, Note_on_c, 0, 50, 0
2, 3773, Note_on_c, 0, 79, 64
2, 3773, Note_on_c, 0, 52, 64
2, 3782, Note_on_c, 0, 72, 0
2, 3802, Note_on_c, 0, 70, 64
2, 3803, Note_on_c, 0, 52, 0
2, 3803, Note_on_c, 0, 53, 64
2, 3817, Note_on_c, 0, 53, 0
2, 3834, Note_on_c, 0, 56, 64
2, 3852, Note_on_c, 0, 70, 0
2, 3864, Note_on_c, 0, 68, 64
2, 3877, Note_on_c, 0, 67, 64
2, 3878, Note_on_c, 0, 68, 0
2, 3893, Note_on_c, 0, 67, 0
2, 3894, Note_on_c, 0, 53, 64
2, 3894, Note_on_c, 0, 68, 64
2, 3895, Note_on_c, 0, 56, 0
2, 3923, Note_on_c, 0, 79, 0
2, 3924, Note_on_c, 0, 77, 64
2, 3949, Note_on_c, 0, 68, 0
2, 3950, Note_on_c, 0, 53, 0
2, 3950, Note_on_c, 0, 67, 64
2, 3954, Note_on_c, 0, 60, 64
2, 3979, Note_on_c, 0, 77, 0
2, 3984, Note_on_c, 0, 55, 64
2, 3984, Note_on_c, 0, 76, 64
2, 3985, Note_on_c, 0, 60, 0
2, 3997, Note_on_c, 0, 76, 0
2, 3998, Note_on_c, 0, 74, 64
2, 4013, Note_on_c, 0, 55, 0
2, 4014, Note_on_c, 0, 74, 0
2, 4014, Note_on_c, 0, 76, 64
2, 4016, Note_on_c, 0, 48, 64
2, 4044, Note_on_c, 0, 76, 0
2, 4044, Note_on_c, 0, 48, 0
2, 4044, Note_on_c, 0, 79, 64
2, 4044, Note_on_c, 0, 50, 64
2, 4054, Note_on_c, 0, 67, 0
2, 4058, Note_on_c, 0, 52, 64
2, 4059, Note_on_c, 0, 50, 0
2, 4074, Note_on_c, 0, 52, 0
2, 4074, Note_on_c, 0, 68, 64
2, 4075, Note_on_c, 0, 79, 0
2, 4075, Note_on_c, 0, 53, 64
2, 4104, Note_on_c, 0, 72, 64
2, 4104, Note_on_c, 0, 48, 64
2, 4105, Note_on_c, 0, 53, 0
2, 4119, Note_on_c, 0, 73, 64
2, 4120, Note_on_c, 0, 72, 0
2, 4134, Note_on_c, 0, 48, 0
2, 4134, Note_on_c, 0, 46, 64
2, 4135, Note_on_c, 0, 73, 0
2, 4135, Note_on_c, 0, 75, 64
2, 4149, Note_on_c, 0, 75, 0
2, 4162, Note_on_c, 0, 46, 0
2, 4163, Note_on_c, 0, 45, 64
2, 4163, Note_on_c, 0, 77, 64
2, 4176, Note_on_c, 0, 78, 64
2, 4177, Note_on_c, 0, 77, 0
2, 4180, Note_on_c, 0, 68, 0
2, 4181, Note_on_c, 0, 78, 0
2, 4191, Note_on_c, 0, 45, 0
2, 4193, Note_on_c, 0, 45, 64
2, 4193, Note_on_c, 0, 78, 64
2, 4193, Note_on_c, 0, 72, 64
2, 4208, Note_on_c, 0, 78, 0
2, 4211, Note_on_c, 0, 45, 0
2, 4223, Note_on_c, 0, 41, 64
2, 4223, Note_on_c, 0, 77, 64
2, 4236, Note_on_c, 0, 77, 0
2, 4236, Note_on_c, 0, 43, 64
2, 4237, Note_on_c, 0, 41, 0
2, 4253, Note_on_c, 0, 45, 64
2, 4253, Note_on_c, 0, 77, 64
2, 4254, Note_on_c, 0, 43, 0
2, 4283, Note_on_c, 0, 75, 64
2, 4283, Note_on_c, 0, 46, 64
2, 4284, Note_on_c, 0, 77, 0
2, 4285, Note_on_c, 0, 45, 0
2, 4297, Note_on_c, 0, 75, 0
2, 4297, Note_on_c, 0, 46, 0
2, 4297, Note_on_c, 0, 48, 64
2, 4314, Note_on_c, 0, 75, 64
2, 4314, Note_on_c, 0, 49, 64
2, 4315, Note_on_c, 0, 48, 0
2, 4344, Note_on_c, 0, 73, 64
2, 4344, Note_on_c, 0, 46, 64
2, 4345, Note_on_c, 0, 72, 0
2, 4345, Note_on_c, 0, 75, 0
2, 4345, Note_on_c, 0, 49, 0
2, 4365, Note_on_c, 0, 73, 0
2, 4376, Note_on_c, 0, 73, 64
2, 4377, Note_on_c, 0, 43, 64
2, 4378, Note_on_c, 0, 46, 0
2, 4378, Note_on_c, 0, 70, 64
2, 4406, Note_on_c, 0, 70, 0
2, 4406, Note_on_c, 0, 68, 64
2, 4406, Note_on_c, 0, 46, 64
2, 4407, Note_on_c, 0, 43, 0
2, 4436, Note_on_c, 0, 68, 0
2, 4436, Note_on_c, 0, 46, 0
2, 4436, Note_on_c, 0, 70, 64
2, 4436, Note_on_c, 0, 40, 64
2, 4464, Note_on_c, 0, 73, 0
2, 4464, Note_on_c, 0, 70, 0
2, 4464, Note_on_c, 0, 67, 64
2, 4478, Note_on_c, 0, 67, 0
2, 4478, Note_on_c, 0, 68, 64
2, 4493, Note_on_c, 0, 43, 64
2, 4494, Note_on_c, 0, 40, 0
2, 4494, Note_on_c, 0, 68, 0
2, 4494, Note_on_c, 0, 70, 64
2, 4521, Note_on_c, 0, 70, 0
2, 4522, Note_on_c, 0, 72, 64
2, 4536, Note_on_c, 0, 72, 0
2, 4536, Note_on_c, 0, 73, 64
2, 4551, Note_on_c, 0, 64, 64
2, 4551, Note_on_c, 0, 36, 64
2, 4552, Note_on_c, 0, 43, 0
2, 4572, Note_on_c, 0, 73, 0
2, 4582, Note_on_c, 0, 70, 64
2, 4603, Note_on_c, 0, 70, 0
2, 4610, Note_on_c, 0, 67, 64
2, 4610, Note_on_c, 0, 48, 64
2, 4611, Note_on_c, 0, 36, 0
2, 4639, Note_on_c, 0, 67, 0
2, 4640, Note_on_c, 0, 72, 64
2, 4656, Note_on_c, 0, 48, 0
2, 4665, Note_on_c, 0, 72, 0
2, 4667, Note_on_c, 0, 64, 0
2, 4670, Note_on_c, 0, 53, 64
2, 4671, Note_on_c, 0, 68, 64
2, 4690, Note_on_c, 0, 68, 0
2, 4698, Note_on_c, 0, 65, 64
2, 4713, Note_on_c, 0, 67, 64
2, 4714, Note_on_c, 0, 65, 0
2, 4717, Note_on_c, 0, 53, 0
2, 4724, Note_on_c, 0, 67, 0
2, 4728, Note_on_c, 0, 68, 64
2, 4728, Note_on_c, 0, 41, 64
2, 4759, Note_on_c, 0, 68, 0
2, 4759, Note_on_c, 0, 70, 64
2, 4772, Note_on_c, 0, 70, 0
2, 4772, Note_on_c, 0, 72, 64
2, 4789, Note_on_c, 0, 72, 0
2, 4790, Note_on_c, 0, 61, 64
2, 4791, Note_on_c, 0, 46, 64
2, 4792, Note_on_c, 0, 41, 0
2, 4822, Note_on_c, 0, 70, 64
2, 4849, Note_on_c, 0, 70, 0
2, 4850, Note_on_c, 0, 49, 64
2, 4851, Note_on_c, 0, 46, 0
2, 4851, Note_on_c, 0, 65, 64
2, 4866, Note_on_c, 0, 61, 0
2, 4879, Note_on_c, 0, 49, 0
2, 4880, Note_on_c, 0, 65, 0
2, 4880, Note_on_c, 0, 68, 64
2, 4895, Note_on_c, 0, 68, 0
2, 4908, Note_on_c, 0, 67, 64
2, 4909, Note_on_c, 0, 40, 64
2, 4942, Note_on_c, 0, 67, 0
2, 4943, Note_on_c, 0, 60, 64
2, 4957, Note_on_c, 0, 62, 64
2, 4958, Note_on_c, 0, 60, 0
2, 4976, Note_on_c, 0, 40, 0
2, 4976, Note_on_c, 0, 64, 64
2, 4976, Note_on_c, 0, 36, 64
2, 4977, Note_on_c, 0, 62, 0
2, 5004, Note_on_c, 0, 64, 0
2, 5004, Note_on_c, 0, 65, 64
2, 5017, Note_on_c, 0, 65, 0
2, 5017, Note_on_c, 0, 67, 64
2, 5034, Note_on_c, 0, 67, 0
2, 5034, Note_on_c, 0, 56, 64
2, 5035, Note_on_c, 0, 41, 64
2, 5036, Note_on_c, 0, 36, 0
2, 5062, Note_on_c, 0, 65, 64
2, 5092, Note_on_c, 0, 65, 0
2, 5093, Note_on_c, 0, 59, 64
2, 5093, Note_on_c, 0, 53, 64
2, 5094, Note_on_c, 0, 41, 0
2, 5106, Note_on_c, 0, 56, 0
2, 5126, Note_on_c, 0, 59, 0
2, 5126, Note_on_c, 0, 62, 64
2, 5155, Note_on_c, 0, 62, 0
2, 5157, Note_on_c, 0, 64, 64
2, 5157, Note_on_c, 0, 48, 64
2, 5158, Note_on_c, 0, 53, 0
2, 5185, Note_on_c, 0, 55, 64
2, 5199, Note_on_c, 0, 56, 64
2, 5201, Note_on_c, 0, 55, 0
2, 5215, Note_on_c, 0, 56, 0
2, 5215, Note_on_c, 0, 58, 64
2, 5221, Note_on_c, 0, 48, 0
2, 5243, Note_on_c, 0, 58, 0
2, 5243, Note_on_c, 0, 60, 64
2, 5256, Note_on_c, 0, 60, 0
2, 5256, Note_on_c, 0, 61, 64
2, 5267, Note_on_c, 0, 61, 0
2, 5273, Note_on_c, 0, 52, 64
2, 5288, Note_on_c, 0, 64, 0
2, 5300, Note_on_c, 0, 52, 0
2, 5300, Note_on_c, 0, 60, 64
2, 5328, Note_on_c, 0, 55, 64
2, 5359, Note_on_c, 0, 55, 0
2, 5359, Note_on_c, 0, 58, 64
2, 5382, Note_on_c, 0, 58, 0
2, 5387, Note_on_c, 0, 60, 0
2, 5390, Note_on_c, 0, 65, 64
2, 5418, Note_on_c, 0, 53, 64
2, 5432, Note_on_c, 0, 53, 0
2, 5432, Note_on_c, 0, 55, 64
2, 5447, Note_on_c, 0, 56, 64
2, 5448, Note_on_c, 0, 55, 0
2, 5468, Note_on_c, 0, 65, 0
2, 5476, Note_on_c, 0, 58, 64
2, 5477, Note_on_c, 0, 56, 0
2, 5477, Note_on_c, 0, 67, 64
2, 5491, Note_on_c, 0, 68, 64
2, 5492, Note_on_c, 0, 58, 0
2, 5492, Note_on_c, 0, 60, 64
2, 5493, Note_on_c, 0, 67, 0
2, 5499, Note_on_c, 0, 68, 0
2, 5509, Note_on_c, 0, 68, 64
2, 5510, Note_on_c, 0, 61, 64
2, 5512, Note_on_c, 0, 60, 0
2, 5524, Note_on_c, 0, 67, 64
2, 5525, Note_on_c, 0, 68, 0
2, 5532, Note_on_c, 0, 67, 0
2, 5532, Note_on_c, 0, 68, 64
2, 5535, Note_on_c, 0, 61, 0
2, 5535, Note_on_c, 0, 58, 64
2, 5537, Note_on_c, 0, 68, 0
2, 5538, Note_on_c, 0, 67, 64
2, 5543, Note_on_c, 0, 67, 0
2, 5543, Note_on_c, 0, 68, 64
2, 5548, Note_on_c, 0, 68, 0
2, 5549, Note_on_c, 0, 67, 64
2, 5553, Note_on_c, 0, 67, 0
2, 5553, Note_on_c, 0, 68, 64
2, 5555, Note_on_c, 0, 58, 0
2, 5558, Note_on_c, 0, 68, 0
2, 5558, Note_on_c, 0, 67, 64
2, 5562, Note_on_c, 0, 67, 0
2, 5562, Note_on_c, 0, 68, 64
2, 5565, Note_on_c, 0, 68, 0
2, 5566, Note_on_c, 0, 67, 64
2, 5566, Note_on_c, 0, 52, 64
2, 5568, Note_on_c, 0, 68, 64
2, 5569, Note_on_c, 0, 67, 0
2, 5572, Note_on_c, 0, 67, 64
2, 5573, Note_on_c, 0, 68, 0
2, 5600, Note_on_c, 0, 65, 64
2, 5601, Note_on_c, 0, 52, 0
2, 5601, Note_on_c, 0, 67, 0
2, 5601, Note_on_c, 0, 60, 64
2, 5616, Note_on_c, 0, 65, 0
2, 5616, Note_on_c, 0, 67, 64
2, 5629, Note_on_c, 0, 60, 0
2, 5632, Note_on_c, 0, 53, 64
2, 5633, Note_on_c, 0, 67, 0
2, 5633, Note_on_c, 0, 68, 64
2, 5662, Note_on_c, 0, 56, 64
2, 5678, Note_on_c, 0, 58, 64
2, 5679, Note_on_c, 0, 56, 0
2, 5695, Note_on_c, 0, 51, 64
2, 5695, Note_on_c, 0, 60, 64
2, 5696, Note_on_c, 0, 58, 0
2, 5697, Note_on_c, 0, 53, 0
2, 5723, Note_on_c, 0, 62, 64
2, 5727, Note_on_c, 0, 60, 0
2, 5737, Note_on_c, 0, 63, 64
2, 5738, Note_on_c, 0, 62, 0
2, 5748, Note_on_c, 0, 63, 0
2, 5751, Note_on_c, 0, 68, 0
2, 5751, Note_on_c, 0, 70, 64
2, 5751, Note_on_c, 0, 65, 64
2, 5752, Note_on_c, 0, 50, 64
2, 5754, Note_on_c, 0, 51, 0
2, 5782, Note_on_c, 0, 58, 64
2, 5810, Note_on_c, 0, 70, 0
2, 5812, Note_on_c, 0, 65, 0
2, 5812, Note_on_c, 0, 58, 0
2, 5812, Note_on_c, 0, 68, 64
2, 5812, Note_on_c, 0, 53, 64
2, 5813, Note_on_c, 0, 46, 64
2, 5815, Note_on_c, 0, 50, 0
2, 5843, Note_on_c, 0, 62, 64
2, 5873, Note_on_c, 0, 68, 0
2, 5873, Note_on_c, 0, 67, 64
2, 5875, Note_on_c, 0, 53, 0
2, 5875, Note_on_c, 0, 46, 0
2, 5875, Note_on_c, 0, 51, 64
2, 5905, Note_on_c, 0, 69, 64
2, 5906, Note_on_c, 0, 67, 0
2, 5918, Note_on_c, 0, 69, 0
2, 5919, Note_on_c, 0, 71, 64
2, 5929, Note_on_c, 0, 62, 0
2, 5934, Note_on_c, 0, 71, 0
2, 5934, Note_on_c, 0, 60, 64
2, 5934, Note_on_c, 0, 72, 64
2, 5962, Note_on_c, 0, 72, 0
2, 5963, Note_on_c, 0, 74, 64
2, 5976, Note_on_c, 0, 75, 64
2, 5977, Note_on_c, 0, 74, 0
2, 5991, Note_on_c, 0, 75, 0
2, 5991, Note_on_c, 0, 50, 64
2, 5991, Note_on_c, 0, 77, 64
2, 5993, Note_on_c, 0, 51, 0
2, 6022, Note_on_c, 0, 77, 0
2, 6022, Note_on_c, 0, 74, 64
2, 6052, Note_on_c, 0, 74, 0
2, 6053, Note_on_c, 0, 67, 64
2, 6053, Note_on_c, 0, 59, 64
2, 6054, Note_on_c, 0, 60, 0
2, 6084, Note_on_c, 0, 67, 0
2, 6084, Note_on_c, 0, 77, 64
2, 6115, Note_on_c, 0, 59, 0
2, 6115, Note_on_c, 0, 75, 64
2, 6115, Note_on_c, 0, 60, 64
2, 6116, Note_on_c, 0, 77, 0
2, 6117, Note_on_c, 0, 50, 0
2, 6144, Note_on_c, 0, 48, 64
2, 6159, Note_on_c, 0, 50, 64
2, 6161, Note_on_c, 0, 48, 0
2, 6175, Note_on_c, 0, 51, 64
2, 6176, Note_on_c, 0, 60, 0
2, 6178, Note_on_c, 0, 50, 0
2, 6204, Note_on_c, 0, 53, 64
2, 6205, Note_on_c, 0, 51, 0
2, 6219, Note_on_c, 0, 53, 0
2, 6219, Note_on_c, 0, 55, 64
2, 6233, Note_on_c, 0, 75, 0
2, 6234, Note_on_c, 0, 56, 64
2, 6236, Note_on_c, 0, 55, 0
2, 6262, Note_on_c, 0, 65, 64
2, 6277, Note_on_c, 0, 67, 64
2, 6279, Note_on_c, 0, 65, 0
2, 6291, Note_on_c, 0, 68, 64
2, 6292, Note_on_c, 0, 67, 0
2, 6321, Note_on_c, 0, 68, 0
2, 6321, Note_on_c, 0, 70, 64
2, 6335, Note_on_c, 0, 70, 0
2, 6336, Note_on_c, 0, 72, 64
2, 6348, Note_on_c, 0, 72, 0
2, 6351, Note_on_c, 0, 73, 64
2, 6359, Note_on_c, 0, 56, 0
2, 6381, Note_on_c, 0, 46, 64
2, 6395, Note_on_c, 0, 46, 0
2, 6396, Note_on_c, 0, 48, 64
2, 6412, Note_on_c, 0, 49, 64
2, 6413, Note_on_c, 0, 48, 0
2, 6440, Note_on_c, 0, 49, 0
2, 6440, Note_on_c, 0, 51, 64
2, 6454, Note_on_c, 0, 51, 0
2, 6454, Note_on_c, 0, 53, 64
2, 6472, Note_on_c, 0, 53, 0
2, 6472, Note_on_c, 0, 55, 64
2, 6479, Note_on_c, 0, 73, 0
2, 6502, Note_on_c, 0, 63, 64
2, 6516, Note_on_c, 0, 63, 0
2, 6516, Note_on_c, 0, 65, 64
2, 6533, Note_on_c, 0, 67, 64
2, 6534, Note_on_c, 0, 65, 0
2, 6563, Note_on_c, 0, 68, 64
2, 6564, Note_on_c, 0, 67, 0
2, 6578, Note_on_c, 0, 68, 0
2, 6578, Note_on_c, 0, 70, 64
2, 6594, Note_on_c, 0, 72, 64
2, 6595, Note_on_c, 0, 70, 0
2, 6622, Note_on_c, 0, 62, 64
2, 6637, Note_on_c, 0, 62, 0
2, 6637, Note_on_c, 0, 64, 64
2, 6653, Note_on_c, 0, 65, 64
2, 6654, Note_on_c, 0, 64, 0
2, 6654, Note_on_c, 0, 53, 64
2, 6655, Note_on_c, 0, 55, 0
2, 6683, Note_on_c, 0, 67, 64
2, 6685, Note_on_c, 0, 65, 0
2, 6697, Note_on_c, 0, 68, 64
2, 6698, Note_on_c, 0, 67, 0
2, 6714, Note_on_c, 0, 68, 0
2, 6714, Note_on_c, 0, 70, 64
2, 6743, Note_on_c, 0, 67, 64
2, 6744, Note_on_c, 0, 70, 0
2, 6771, Note_on_c, 0, 60, 64
2, 6772, Note_on_c, 0, 52, 64
2, 6773, Note_on_c, 0, 53, 0
2, 6774, Note_on_c, 0, 67, 0
2, 6802, Note_on_c, 0, 70, 64
2, 6803, Note_on_c, 0, 60, 0
2, 6833, Note_on_c, 0, 70, 0
2, 6833, Note_on_c, 0, 68, 64
2, 6834, Note_on_c, 0, 52, 0
2, 6834, Note_on_c, 0, 53, 64
2, 6853, Note_on_c, 0, 53, 0
2, 6864, Note_on_c, 0, 41, 64
2, 6879, Note_on_c, 0, 43, 64
2, 6881, Note_on_c, 0, 41, 0
2, 6895, Note_on_c, 0, 68, 0
2, 6896, Note_on_c, 0, 43, 0
2, 6896, Note_on_c, 0, 67, 64
2, 6896, Note_on_c, 0, 44, 64
2, 6924, Note_on_c, 0, 46, 64
2, 6925, Note_on_c, 0, 44, 0
2, 6938, Note_on_c, 0, 46, 0
2, 6938, Note_on_c, 0, 48, 64
2, 6953, Note_on_c, 0, 67, 0
2, 6953, Note_on_c, 0, 49, 64
2, 6953, Note_on_c, 0, 65, 64
2, 6955, Note_on_c, 0, 48, 0
2, 6982, Note_on_c, 0, 49, 0
2, 6982, Note_on_c, 0, 46, 64
2, 7014, Note_on_c, 0, 67, 64
2, 7014, Note_on_c, 0, 70, 64
2, 7015, Note_on_c, 0, 65, 0
2, 7015, Note_on_c, 0, 46, 0
2, 7015, Note_on_c, 0, 41, 64
2, 7016, Note_on_c, 0, 72, 0
2, 7045, Note_on_c, 0, 49, 64
2, 7046, Note_on_c, 0, 41, 0
2, 7076, Note_on_c, 0, 49, 0
2, 7076, Note_on_c, 0, 40, 64
2, 7105, Note_on_c, 0, 70, 0
2, 7105, Note_on_c, 0, 72, 64
2, 7119, Note_on_c, 0, 70, 64
2, 7121, Note_on_c, 0, 72, 0
2, 7122, Note_on_c, 0, 67, 0
2, 7137, Note_on_c, 0, 70, 0
2, 7137, Note_on_c, 0, 68, 64
2, 7138, Note_on_c, 0, 41, 64
2, 7138, Note_on_c, 0, 65, 64
2, 7140, Note_on_c, 0, 40, 0
2, 7166, Note_on_c, 0, 68, 0
2, 7166, Note_on_c, 0, 70, 64
2, 7181, Note_on_c, 0, 70, 0
2, 7181, Note_on_c, 0, 72, 64
2, 7197, Note_on_c, 0, 36, 64
2, 7197, Note_on_c, 0, 73, 64
2, 7198, Note_on_c, 0, 72, 0
2, 7199, Note_on_c, 0, 41, 0
2, 7225, Note_on_c, 0, 73, 0
2, 7225, Note_on_c, 0, 70, 64
2, 7236, Note_on_c, 0, 65, 0
2, 7240, Note_on_c, 0, 36, 0
2, 7254, Note_on_c, 0, 70, 0
2, 7254, Note_on_c, 0, 64, 64
2, 7254, Note_on_c, 0, 67, 64
2, 7254, Note_on_c, 0, 48, 64
2, 7284, Note_on_c, 0, 67, 0
2, 7284, Note_on_c, 0, 72, 64
2, 7314, Note_on_c, 0, 49, 64
2, 7315, Note_on_c, 0, 48, 0
2, 7315, Note_on_c, 0, 72, 0
2, 7315, Note_on_c, 0, 68, 64
2, 7316, Note_on_c, 0, 64, 0
2, 7344, Note_on_c, 0, 53, 64
2, 7358, Note_on_c, 0, 53, 0
2, 7358, Note_on_c, 0, 55, 64
2, 7365, Note_on_c, 0, 55, 0
2, 7376, Note_on_c, 0, 68, 0
2, 7376, Note_on_c, 0, 48, 64
2, 7376, Note_on_c, 0, 56, 64
2, 7376, Note_on_c, 0, 65, 64
2, 7377, Note_on_c, 0, 49, 0
2, 7403, Note_on_c, 0, 58, 64
2, 7404, Note_on_c, 0, 56, 0
2, 7417, Note_on_c, 0, 58, 0
2, 7417, Note_on_c, 0, 60, 64
2, 7432, Note_on_c, 0, 60, 0
2, 7432, Note_on_c, 0, 61, 64
2, 7433, Note_on_c, 0, 46, 64
2, 7436, Note_on_c, 0, 48, 0
2, 7464, Note_on_c, 0, 61, 0
2, 7464, Note_on_c, 0, 58, 64
2, 7484, Note_on_c, 0, 58, 0
2, 7494, Note_on_c, 0, 46, 0
2, 7494, Note_on_c, 0, 64, 64
2, 7494, Note_on_c, 0, 48, 64
2, 7495, Note_on_c, 0, 65, 0
2, 7495, Note_on_c, 0, 55, 64
2, 7524, Note_on_c, 0, 60, 64
2, 7525, Note_on_c, 0, 55, 0
2, 7554, Note_on_c, 0, 48, 0
2, 7554, Note_on_c, 0, 65, 64
2, 7554, Note_on_c, 0, 53, 64
2, 7555, Note_on_c, 0, 64, 0
2, 7555, Note_on_c, 0, 60, 0
2, 7583, Note_on_c, 0, 48, 64
2, 7613, Note_on_c, 0, 41, 64
2, 7615, Note_on_c, 0, 48, 0
2, 7643, Note_on_c, 0, 41, 0
2, 7643, Note_on_c, 0, 51, 64
2, 7675, Note_on_c, 0, 51, 0
2, 7676, Note_on_c, 0, 50, 64
2, 7686, Note_on_c, 0, 53, 0
2, 7703, Note_on_c, 0, 58, 64
2, 7717, Note_on_c, 0, 58, 0
2, 7718, Note_on_c, 0, 60, 64
2, 7734, Note_on_c, 0, 60, 0
2, 7735, Note_on_c, 0, 62, 64
2, 7736, Note_on_c, 0, 46, 64
2, 7737, Note_on_c, 0, 50, 0
2, 7763, Note_on_c, 0, 63, 64
2, 7764, Note_on_c, 0, 65, 0
2, 7765, Note_on_c, 0, 62, 0
2, 7778, Note_on_c, 0, 63, 0
2, 7779, Note_on_c, 0, 65, 64
2, 7795, Note_on_c, 0, 65, 0
2, 7795, Note_on_c, 0, 51, 64
2, 7795, Note_on_c, 0, 67, 64
2, 7796, Note_on_c, 0, 46, 0
2, 7823, Note_on_c, 0, 69, 64
2, 7838, Note_on_c, 0, 71, 64
2, 7839, Note_on_c, 0, 69, 0
2, 7853, Note_on_c, 0, 51, 0
2, 7853, Note_on_c, 0, 71, 0
2, 7853, Note_on_c, 0, 50, 64
2, 7853, Note_on_c, 0, 72, 64
2, 7880, Note_on_c, 0, 48, 64
2, 7880, Note_on_c, 0, 74, 64
2, 7881, Note_on_c, 0, 72, 0
2, 7882, Note_on_c, 0, 50, 0
2, 7892, Note_on_c, 0, 74, 0
2, 7894, Note_on_c, 0, 75, 64
2, 7902, Note_on_c, 0, 75, 0
2, 7913, Note_on_c, 0, 77, 64
2, 7913, Note_on_c, 0, 47, 64
2, 7915, Note_on_c, 0, 48, 0
2, 7941, Note_on_c, 0, 74, 64
2, 7942, Note_on_c, 0, 77, 0
2, 7972, Note_on_c, 0, 74, 0
2, 7972, Note_on_c, 0, 71, 64
2, 7972, Note_on_c, 0, 43, 64
2, 7973, Note_on_c, 0, 47, 0
2, 8001, Note_on_c, 0, 71, 0
2, 8001, Note_on_c, 0, 74, 64
2, 8032, Note_on_c, 0, 48, 64
2, 8033, Note_on_c, 0, 43, 0
2, 8050, Note_on_c, 0, 67, 0
2, 8061, Note_on_c, 0, 63, 64
2, 8069, Note_on_c, 0, 63, 0
2, 8076, Note_on_c, 0, 65, 64
2, 8084, Note_on_c, 0, 65, 0
2, 8092, Note_on_c, 0, 67, 64
2, 8092, Note_on_c, 0, 73, 64
2, 8092, Note_on_c, 0, 46, 64
2, 8093, Note_on_c, 0, 74, 0
2, 8095, Note_on_c, 0, 48, 0
2, 8121, Note_on_c, 0, 67, 0
2, 8121, Note_on_c, 0, 68, 64
2, 8132, Note_on_c, 0, 68, 0
2, 8135, Note_on_c, 0, 70, 64
2, 8138, Note_on_c, 0, 73, 0
2, 8144, Note_on_c, 0, 70, 0
2, 8151, Note_on_c, 0, 72, 64
2, 8153, Note_on_c, 0, 44, 64
2, 8154, Note_on_c, 0, 46, 0
2, 8181, Note_on_c, 0, 68, 64
2, 8210, Note_on_c, 0, 68, 0
2, 8210, Note_on_c, 0, 63, 64
2, 8211, Note_on_c, 0, 44, 0
2, 8211, Note_on_c, 0, 56, 64
2, 8242, Note_on_c, 0, 63, 0
2, 8243, Note_on_c, 0, 66, 64
2, 8273, Note_on_c, 0, 66, 0
2, 8274, Note_on_c, 0, 65, 64
2, 8275, Note_on_c, 0, 49, 64
2, 8276, Note_on_c, 0, 56, 0
2, 8292, Note_on_c, 0, 65, 0
2, 8295, Note_on_c, 0, 72, 0
2, 8305, Note_on_c, 0, 65, 64
2, 8321, Note_on_c, 0, 65, 0
2, 8321, Note_on_c, 0, 67, 64
2, 8331, Note_on_c, 0, 67, 0
2, 8339, Note_on_c, 0, 68, 64
2, 8339, Note_on_c, 0, 48, 64
2, 8340, Note_on_c, 0, 49, 0
2, 8365, Note_on_c, 0, 68, 0
2, 8365, Note_on_c, 0, 70, 64
2, 8377, Note_on_c, 0, 70, 0
2, 8378, Note_on_c, 0, 72, 64
2, 8394, Note_on_c, 0, 73, 64
2, 8395, Note_on_c, 0, 72, 0
2, 8395, Note_on_c, 0, 46, 64
2, 8397, Note_on_c, 0, 48, 0
2, 8423, Note_on_c, 0, 70, 64
2, 8451, Note_on_c, 0, 70, 0
2, 8451, Note_on_c, 0, 65, 64
2, 8452, Note_on_c, 0, 46, 0
2, 8452, Note_on_c, 0, 58, 64
2, 8482, Note_on_c, 0, 65, 0
2, 8483, Note_on_c, 0, 68, 64
2, 8513, Note_on_c, 0, 67, 64
2, 8514, Note_on_c, 0, 52, 64
2, 8515, Note_on_c, 0, 58, 0
2, 8515, Note_on_c, 0, 68, 0
2, 8543, Note_on_c, 0, 73, 0
2, 8543, Note_on_c, 0, 70, 64
2, 8556, Note_on_c, 0, 68, 64
2, 8557, Note_on_c, 0, 67, 0
2, 8560, Note_on_c, 0, 70, 0
2, 8573, Note_on_c, 0, 68, 0
2, 8573, Note_on_c, 0, 50, 64
2, 8573, Note_on_c, 0, 67, 64
2, 8574, Note_on_c, 0, 52, 0
2, 8603, Note_on_c, 0, 68, 64
2, 8604, Note_on_c, 0, 67, 0
2, 8618, Note_on_c, 0, 68, 0
2, 8618, Note_on_c, 0, 70, 64
2, 8633, Note_on_c, 0, 50, 0
2, 8634, Note_on_c, 0, 70, 0
2, 8634, Note_on_c, 0, 48, 64
2, 8634, Note_on_c, 0, 64, 64
2, 8653, Note_on_c, 0, 64, 0
2, 8663, Note_on_c, 0, 36, 64
2, 8663, Note_on_c, 0, 67, 64
2, 8678, Note_on_c, 0, 38, 64
2, 8679, Note_on_c, 0, 48, 0
2, 8682, Note_on_c, 0, 36, 0
2, 8693, Note_on_c, 0, 67, 0
2, 8695, Note_on_c, 0, 38, 0
2, 8695, Note_on_c, 0, 40, 64
2, 8695, Note_on_c, 0, 60, 64
2, 8724, Note_on_c, 0, 60, 0
2, 8724, Note_on_c, 0, 64, 64
2, 8724, Note_on_c, 0, 41, 64
2, 8725, Note_on_c, 0, 40, 0
2, 8737, Note_on_c, 0, 41, 0
2, 8738, Note_on_c, 0, 43, 64
2, 8754, Note_on_c, 0, 44, 64
2, 8755, Note_on_c, 0, 64, 0
2, 8755, Note_on_c, 0, 43, 0
2, 8755, Note_on_c, 0, 65, 64
2, 8784, Note_on_c, 0, 60, 64
2, 8797, Note_on_c, 0, 62, 64
2, 8798, Note_on_c, 0, 65, 0
2, 8799, Note_on_c, 0, 60, 0
2, 8814, Note_on_c, 0, 64, 64
2, 8815, Note_on_c, 0, 62, 0
2, 8815, Note_on_c, 0, 43, 64
2, 8816, Note_on_c, 0, 44, 0
2, 8843, Note_on_c, 0, 64, 0
2, 8843, Note_on_c, 0, 65, 64
2, 8858, Note_on_c, 0, 67, 64
2, 8859, Note_on_c, 0, 65, 0
2, 8864, Note_on_c, 0, 67, 0
2, 8874, Note_on_c, 0, 68, 64
2, 8875, Note_on_c, 0, 41, 64
2, 8876, Note_on_c, 0, 43, 0
2, 8904, Note_on_c, 0, 72, 64
2, 8918, Note_on_c, 0, 74, 64
2, 8920, Note_on_c, 0, 72, 0
2, 8933, Note_on_c, 0, 74, 0
2, 8934, Note_on_c, 0, 76, 64
2, 8934, Note_on_c, 0, 36, 64
2, 8935, Note_on_c, 0, 41, 0
2, 8963, Note_on_c, 0, 76, 0
2, 8963, Note_on_c, 0, 77, 64
2, 8976, Note_on_c, 0, 79, 64
2, 8977, Note_on_c, 0, 77, 0
2, 8990, Note_on_c, 0, 80, 64
2, 8992, Note_on_c, 0, 79, 0
2, 8993, Note_on_c, 0, 68, 0
2, 8993, Note_on_c, 0, 36, 0
2, 8993, Note_on_c, 0, 41, 64
2, 9021, Note_on_c, 0, 72, 64
2, 9022, Note_on_c, 0, 48, 64
2, 9023, Note_on_c, 0, 41, 0
2, 9035, Note_on_c, 0, 48, 0
2, 9036, Note_on_c, 0, 50, 64
2, 9039, Note_on_c, 0, 80, 0
2, 9048, Note_on_c, 0, 50, 0
2, 9048, Note_on_c, 0, 79, 64
2, 9048, Note_on_c, 0, 52, 64
2, 9077, Note_on_c, 0, 72, 0
2, 9077, Note_on_c, 0, 52, 0
2, 9077, Note_on_c, 0, 70, 64
2, 9078, Note_on_c, 0, 53, 64
2, 9091, Note_on_c, 0, 53, 0
2, 9091, Note_on_c, 0, 55, 64
2, 9106, Note_on_c, 0, 55, 0
2, 9107, Note_on_c, 0, 56, 64
2, 9123, Note_on_c, 0, 70, 0
2, 9136, Note_on_c, 0, 68, 64
2, 9137, Note_on_c, 0, 56, 0
2, 9149, Note_on_c, 0, 68, 0
2, 9149, Note_on_c, 0, 67, 64
2, 9165, Note_on_c, 0, 67, 0
2, 9166, Note_on_c, 0, 68, 64
2, 9197, Note_on_c, 0, 79, 0
2, 9197, Note_on_c, 0, 77, 64
2, 9225, Note_on_c, 0, 60, 64
2, 9259, Note_on_c, 0, 55, 64
2, 9259, Note_on_c, 0, 76, 64
2, 9260, Note_on_c, 0, 77, 0
2, 9273, Note_on_c, 0, 74, 64
2, 9274, Note_on_c, 0, 76, 0
2, 9294, Note_on_c, 0, 48, 64
2, 9294, Note_on_c, 0, 76, 64
2, 9295, Note_on_c, 0, 55, 0
2, 9295, Note_on_c, 0, 74, 0
2, 9296, Note_on_c, 0, 60, 0
2, 9321, Note_on_c, 0, 76, 0
2, 9321, Note_on_c, 0, 79, 64
2, 9322, Note_on_c, 0, 48, 0
2, 9322, Note_on_c, 0, 50, 64
2, 9336, Note_on_c, 0, 52, 64
2, 9337, Note_on_c, 0, 50, 0
2, 9344, Note_on_c, 0, 68, 0
2, 9355, Note_on_c, 0, 52, 0
2, 9355, Note_on_c, 0, 68, 64
2, 9355, Note_on_c, 0, 53, 64
2, 9386, Note_on_c, 0, 79, 0
2, 9388, Note_on_c, 0, 72, 64
2, 9399, Note_on_c, 0, 73, 64
2, 9401, Note_on_c, 0, 72, 0
2, 9413, Note_on_c, 0, 73, 0
2, 9418, Note_on_c, 0, 75, 64
2, 9419, Note_on_c, 0, 48, 64
2, 9420, Note_on_c, 0, 53, 0
2, 9445, Note_on_c, 0, 75, 0
2, 9445, Note_on_c, 0, 46, 64
2, 9447, Note_on_c, 0, 48, 0
2, 9447, Note_on_c, 0, 77, 64
2, 9458, Note_on_c, 0, 78, 64
2, 9459, Note_on_c, 0, 77, 0
2, 9461, Note_on_c, 0, 68, 0
2, 9463, Note_on_c, 0, 78, 0
2, 9469, Note_on_c, 0, 46, 0
2, 9474, Note_on_c, 0, 72, 64
2, 9474, Note_on_c, 0, 78, 64
2, 9475, Note_on_c, 0, 45, 64
2, 9498, Note_on_c, 0, 78, 0
2, 9502, Note_on_c, 0, 41, 64
2, 9503, Note_on_c, 0, 45, 0
2, 9503, Note_on_c, 0, 77, 64
2, 9516, Note_on_c, 0, 43, 64
2, 9517, Note_on_c, 0, 41, 0
2, 9520, Note_on_c, 0, 77, 0
2, 9533, Note_on_c, 0, 45, 64
2, 9533, Note_on_c, 0, 77, 64
2, 9534, Note_on_c, 0, 43, 0
2, 9562, Note_on_c, 0, 46, 64
2, 9562, Note_on_c, 0, 75, 64
2, 9564, Note_on_c, 0, 45, 0
2, 9564, Note_on_c, 0, 77, 0
2, 9573, Note_on_c, 0, 75, 0
2, 9575, Note_on_c, 0, 46, 0
2, 9575, Note_on_c, 0, 48, 64
2, 9592, Note_on_c, 0, 75, 64
2, 9592, Note_on_c, 0, 49, 64
2, 9594, Note_on_c, 0, 48, 0
2, 9623, Note_on_c, 0, 72, 0
2, 9623, Note_on_c, 0, 73, 64
2, 9624, Note_on_c, 0, 46, 64
2, 9625, Note_on_c, 0, 75, 0
2, 9625, Note_on_c, 0, 49, 0
2, 9656, Note_on_c, 0, 73, 0
2, 9656, Note_on_c, 0, 70, 64
2, 9656, Note_on_c, 0, 73, 64
2, 9657, Note_on_c, 0, 46, 0
2, 9657, Note_on_c, 0, 43, 64
2, 9683, Note_on_c, 0, 70, 0
2, 9684, Note_on_c, 0, 43, 0
2, 9684, Note_on_c, 0, 46, 64
2, 9684, Note_on_c, 0, 68, 64
2, 9712, Note_on_c, 0, 68, 0
2, 9712, Note_on_c, 0, 70, 64
2, 9716, Note_on_c, 0, 46, 0
2, 9716, Note_on_c, 0, 40, 64
2, 9741, Note_on_c, 0, 73, 0
2, 9741, Note_on_c, 0, 70, 0
2, 9743, Note_on_c, 0, 67, 64
2, 9758, Note_on_c, 0, 67, 0
2, 9758, Note_on_c, 0, 68, 64
2, 9773, Note_on_c, 0, 68, 0
2, 9773, Note_on_c, 0, 70, 64
2, 9773, Note_on_c, 0, 43, 64
2, 9774, Note_on_c, 0, 40, 0
2, 9802, Note_on_c, 0, 70, 0
2, 9803, Note_on_c, 0, 72, 64
2, 9816, Note_on_c, 0, 72, 0
2, 9816, Note_on_c, 0, 73, 64
2, 9831, Note_on_c, 0, 36, 64
2, 9831, Note_on_c, 0, 64, 64
2, 9832, Note_on_c, 0, 43, 0
2, 9863, Note_on_c, 0, 73, 0
2, 9864, Note_on_c, 0, 70, 64
2, 9891, Note_on_c, 0, 70, 0
2, 9892, Note_on_c, 0, 67, 64
2, 9893, Note_on_c, 0, 48, 64
2, 9894, Note_on_c, 0, 36, 0
2, 9924, Note_on_c, 0, 67, 0
2, 9925, Note_on_c, 0, 64, 0
2, 9926, Note_on_c, 0, 72, 64
2, 9954, Note_on_c, 0, 72, 0
2, 9955, Note_on_c, 0, 68, 64
2, 9956, Note_on_c, 0, 48, 0
2, 9956, Note_on_c, 0, 53, 64
2, 9985, Note_on_c, 0, 68, 0
2, 9985, Note_on_c, 0, 65, 64
2, 9987, Note_on_c, 0, 53, 0
2, 10000, Note_on_c, 0, 67, 64
2, 10001, Note_on_c, 0, 65, 0
2, 10016, Note_on_c, 0, 68, 64
2, 10017, Note_on_c, 0, 41, 64
2, 10018, Note_on_c, 0, 67, 0
2, 10045, Note_on_c, 0, 68, 0
2, 10045, Note_on_c, 0, 70, 64
2, 10058, Note_on_c, 0, 70, 0
2, 10058, Note_on_c, 0, 72, 64
2, 10074, Note_on_c, 0, 72, 0
2, 10074, Note_on_c, 0, 46, 64
2, 10074, Note_on_c, 0, 61, 64
2, 10075, Note_on_c, 0, 41, 0
2, 10103, Note_on_c, 0, 70, 64
2, 10130, Note_on_c, 0, 70, 0
2, 10131, Note_on_c, 0, 65, 64
2, 10132, Note_on_c, 0, 46, 0
2, 10132, Note_on_c, 0, 61, 0
2, 10132, Note_on_c, 0, 49, 64
2, 10163, Note_on_c, 0, 68, 64
2, 10164, Note_on_c, 0, 65, 0
2, 10165, Note_on_c, 0, 49, 0
2, 10182, Note_on_c, 0, 68, 0
2, 10192, Note_on_c, 0, 40, 64
2, 10192, Note_on_c, 0, 67, 64
2, 10222, Note_on_c, 0, 60, 64
2, 10223, Note_on_c, 0, 67, 0
2, 10237, Note_on_c, 0, 60, 0
2, 10237, Note_on_c, 0, 62, 64
2, 10253, Note_on_c, 0, 40, 0
2, 10253, Note_on_c, 0, 64, 64
2, 10253, Note_on_c, 0, 36, 64
2, 10255, Note_on_c, 0, 62, 0
2, 10282, Note_on_c, 0, 64, 0
2, 10282, Note_on_c, 0, 65, 64
2, 10296, Note_on_c, 0, 65, 0
2, 10296, Note_on_c, 0, 67, 64
2, 10311, Note_on_c, 0, 67, 0
2, 10312, Note_on_c, 0, 56, 64
2, 10313, Note_on_c, 0, 41, 64
2, 10314, Note_on_c, 0, 36, 0
2, 10340, Note_on_c, 0, 65, 64
2, 10370, Note_on_c, 0, 65, 0
2, 10370, Note_on_c, 0, 59, 64
2, 10371, Note_on_c, 0, 53, 64
2, 10372, Note_on_c, 0, 41, 0
2, 10381, Note_on_c, 0, 56, 0
2, 10401, Note_on_c, 0, 59, 0
2, 10401, Note_on_c, 0, 62, 64
2, 10430, Note_on_c, 0, 64, 64
2, 10431, Note_on_c, 0, 62, 0
2, 10431, Note_on_c, 0, 48, 64
2, 10432, Note_on_c, 0, 53, 0
2, 10460, Note_on_c, 0, 55, 64
2, 10473, Note_on_c, 0, 56, 64
2, 10474, Note_on_c, 0, 55, 0
2, 10490, Note_on_c, 0, 56, 0
2, 10490, Note_on_c, 0, 58, 64
2, 10518, Note_on_c, 0, 58, 0
2, 10519, Note_on_c, 0, 60, 64
2, 10533, Note_on_c, 0, 60, 0
2, 10534, Note_on_c, 0, 61, 64
2, 10550, Note_on_c, 0, 48, 0
2, 10551, Note_on_c, 0, 61, 0
2, 10551, Note_on_c, 0, 52, 64
2, 10552, Note_on_c, 0, 64, 0
2, 10578, Note_on_c, 0, 60, 64
2, 10579, Note_on_c, 0, 67, 64
2, 10581, Note_on_c, 0, 52, 0
2, 10594, Note_on_c, 0, 68, 64
2, 10596, Note_on_c, 0, 67, 0
2, 10610, Note_on_c, 0, 68, 0
2, 10610, Note_on_c, 0, 70, 64
2, 10610, Note_on_c, 0, 55, 64
2, 10611, Note_on_c, 0, 60, 0
2, 10640, Note_on_c, 0, 70, 0
2, 10640, Note_on_c, 0, 72, 64
2, 10640, Note_on_c, 0, 58, 64
2, 10641, Note_on_c, 0, 55, 0
2, 10654, Note_on_c, 0, 73, 64
2, 10656, Note_on_c, 0, 72, 0
2, 10669, Note_on_c, 0, 73, 0
2, 10670, Note_on_c, 0, 72, 64
2, 10671, Note_on_c, 0, 58, 0
2, 10671, Note_on_c, 0, 56, 64
2, 10700, Note_on_c, 0, 60, 64
2, 10712, Note_on_c, 0, 56, 0
2, 10714, Note_on_c, 0, 61, 64
2, 10716, Note_on_c, 0, 60, 0
2, 10731, Note_on_c, 0, 61, 0
2, 10732, Note_on_c, 0, 63, 64
2, 10759, Note_on_c, 0, 63, 0
2, 10760, Note_on_c, 0, 65, 64
2, 10774, Note_on_c, 0, 65, 0
2, 10774, Note_on_c, 0, 66, 64
2, 10789, Note_on_c, 0, 66, 0
2, 10790, Note_on_c, 0, 65, 64
2, 10817, Note_on_c, 0, 49, 64
2, 10831, Note_on_c, 0, 49, 0
2, 10831, Note_on_c, 0, 51, 64
2, 10848, Note_on_c, 0, 51, 0
2, 10848, Note_on_c, 0, 61, 64
2, 10849, Note_on_c, 0, 65, 0
2, 10849, Note_on_c, 0, 53, 64
2, 10878, Note_on_c, 0, 53, 0
2, 10878, Note_on_c, 0, 55, 64
2, 10892, Note_on_c, 0, 56, 64
2, 10894, Note_on_c, 0, 55, 0
2, 10907, Note_on_c, 0, 72, 0
2, 10908, Note_on_c, 0, 56, 0
2, 10908, Note_on_c, 0, 55, 64
2, 10908, Note_on_c, 0, 70, 64
2, 10913, Note_on_c, 0, 61, 0
2, 10938, Note_on_c, 0, 61, 64
2, 10955, Note_on_c, 0, 61, 0
2, 10968, Note_on_c, 0, 56, 64
2, 10968, Note_on_c, 0, 60, 64
2, 10970, Note_on_c, 0, 55, 0
2, 11001, Note_on_c, 0, 70, 0
2, 11002, Note_on_c, 0, 63, 64
2, 11036, Note_on_c, 0, 63, 0
2, 11036, Note_on_c, 0, 68, 64
2, 11037, Note_on_c, 0, 56, 0
2, 11037, Note_on_c, 0, 60, 0
2, 11037, Note_on_c, 0, 53, 64
2, 11064, Note_on_c, 0, 60, 64
2, 11092, Note_on_c, 0, 58, 64
2, 11092, Note_on_c, 0, 50, 64
2, 11093, Note_on_c, 0, 68, 0
2, 11094, Note_on_c, 0, 53, 0
2, 11094, Note_on_c, 0, 60, 0
2, 11122, Note_on_c, 0, 68, 64
2, 11145, Note_on_c, 0, 68, 0
2, 11150, Note_on_c, 0, 67, 61
2, 11153, Note_on_c, 0, 50, 0
2, 11153, Note_on_c, 0, 52, 64
2, 11156, Note_on_c, 0, 58, 0
2, 11184, Note_on_c, 0, 58, 64
2, 11213, Note_on_c, 0, 58, 0
2, 11214, Note_on_c, 0, 56, 64
2, 11215, Note_on_c, 0, 53, 64
2, 11216, Note_on_c, 0, 52, 0
2, 11243, Note_on_c, 0, 67, 0
2, 11243, Note_on_c, 0, 60, 69
2, 11273, Note_on_c, 0, 65, 71
2, 11274, Note_on_c, 0, 60, 0
2, 11274, Note_on_c, 0, 49, 64
2, 11276, Note_on_c, 0, 56, 0
2, 11276, Note_on_c, 0, 53, 0
2, 11304, Note_on_c, 0, 56, 64
2, 11334, Note_on_c, 0, 49, 0
2, 11334, Note_on_c, 0, 55, 64
2, 11334, Note_on_c, 0, 46, 64
2, 11336, Note_on_c, 0, 56, 0
2, 11343, Note_on_c, 0, 65, 0
2, 11364, Note_on_c, 0, 65, 67
2, 11395, Note_on_c, 0, 65, 0
2, 11395, Note_on_c, 0, 64, 69
2, 11424, Note_on_c, 0, 64, 0
2, 11424, Note_on_c, 0, 65, 64
2, 11438, Note_on_c, 0, 46, 0
2, 11438, Note_on_c, 0, 67, 56
2, 11439, Note_on_c, 0, 65, 0
2, 11455, Note_on_c, 0, 55, 0
2, 11455, Note_on_c, 0, 67, 0
2, 11455, Note_on_c, 0, 68, 78
2, 11455, Note_on_c, 0, 44, 64
2, 11482, Note_on_c, 0, 44, 0
2, 11482, Note_on_c, 0, 41, 64
2, 11482, Note_on_c, 0, 70, 68
2, 11483, Note_on_c, 0, 68, 0
2, 11495, Note_on_c, 0, 70, 0
2, 11496, Note_on_c, 0, 72, 72
2, 11513, Note_on_c, 0, 73, 86
2, 11514, Note_on_c, 0, 41, 0
2, 11514, Note_on_c, 0, 72, 0
2, 11514, Note_on_c, 0, 48, 64
2, 11543, Note_on_c, 0, 70, 72
2, 11545, Note_on_c, 0, 73, 0
2, 11571, Note_on_c, 0, 52, 64
2, 11573, Note_on_c, 0, 67, 70
2, 11574, Note_on_c, 0, 70, 0
2, 11601, Note_on_c, 0, 72, 80
2, 11602, Note_on_c, 0, 67, 0
2, 11605, Note_on_c, 0, 48, 0
2, 11632, Note_on_c, 0, 72, 0
2, 11632, Note_on_c, 0, 68, 64
2, 11633, Note_on_c, 0, 41, 64
2, 11634, Note_on_c, 0, 52, 0
2, 11662, Note_on_c, 0, 41, 0
2, 11662, Note_on_c, 0, 53, 64
2, 11677, Note_on_c, 0, 55, 64
2, 11680, Note_on_c, 0, 53, 0
2, 11693, Note_on_c, 0, 55, 0
2, 11693, Note_on_c, 0, 56, 64
2, 11722, Note_on_c, 0, 58, 64
2, 11733, Note_on_c, 0, 58, 0
2, 11734, Note_on_c, 0, 60, 64
2, 11743, Note_on_c, 0, 60, 0
2, 11752, Note_on_c, 0, 61, 64
2, 11781, Note_on_c, 0, 61, 0
2, 11782, Note_on_c, 0, 58, 64
2, 11784, Note_on_c, 0, 56, 0
2, 11802, Note_on_c, 0, 58, 0
2, 11814, Note_on_c, 0, 68, 0
2, 11815, Note_on_c, 0, 51, 64
2, 11815, Note_on_c, 0, 66, 64
2, 11845, Note_on_c, 0, 61, 64
2, 11875, Note_on_c, 0, 61, 0
2, 11875, Note_on_c, 0, 60, 64
2, 11878, Note_on_c, 0, 51, 0
2, 11904, Note_on_c, 0, 49, 64
2, 11919, Note_on_c, 0, 49, 0
2, 11919, Note_on_c, 0, 51, 64
2, 11931, Note_on_c, 0, 66, 0
2, 11935, Note_on_c, 0, 65, 64
2, 11935, Note_on_c, 0, 61, 64
2, 11936, Note_on_c, 0, 60, 0
2, 11936, Note_on_c, 0, 51, 0
2, 11936, Note_on_c, 0, 53, 64
2, 11965, Note_on_c, 0, 53, 0
2, 11965, Note_on_c, 0, 55, 64
2, 11978, Note_on_c, 0, 56, 64
2, 11980, Note_on_c, 0, 55, 0
2, 11988, Note_on_c, 0, 61, 0
2, 11994, Note_on_c, 0, 56, 0
2, 11994, Note_on_c, 0, 46, 64
2, 12022, Note_on_c, 0, 58, 64
2, 12044, Note_on_c, 0, 58, 0
2, 12051, Note_on_c, 0, 46, 0
2, 12052, Note_on_c, 0, 51, 64
2, 12052, Note_on_c, 0, 55, 64
2, 12053, Note_on_c, 0, 63, 64
2, 12055, Note_on_c, 0, 65, 0
2, 12082, Note_on_c, 0, 58, 64
2, 12112, Note_on_c, 0, 44, 64
2, 12113, Note_on_c, 0, 55, 0
2, 12113, Note_on_c, 0, 58, 0
2, 12113, Note_on_c, 0, 60, 64
2, 12114, Note_on_c, 0, 51, 0
2, 12123, Note_on_c, 0, 63, 0
2, 12129, Note_on_c, 0, 60, 0
2, 12144, Note_on_c, 0, 65, 64
2, 12158, Note_on_c, 0, 65, 0
2, 12158, Note_on_c, 0, 67, 64
2, 12171, Note_on_c, 0, 67, 0
2, 12174, Note_on_c, 0, 68, 64
2, 12174, Note_on_c, 0, 54, 64
2, 12175, Note_on_c, 0, 44, 0
2, 12201, Note_on_c, 0, 68, 0
2, 12201, Note_on_c, 0, 70, 64
2, 12215, Note_on_c, 0, 70, 0
2, 12215, Note_on_c, 0, 72, 64
2, 12226, Note_on_c, 0, 54, 0
2, 12229, Note_on_c, 0, 72, 0
2, 12231, Note_on_c, 0, 73, 64
2, 12231, Note_on_c, 0, 53, 64
2, 12254, Note_on_c, 0, 73, 0
2, 12262, Note_on_c, 0, 68, 64
2, 12277, Note_on_c, 0, 68, 0
2, 12291, Note_on_c, 0, 65, 64
2, 12292, Note_on_c, 0, 53, 0
2, 12292, Note_on_c, 0, 49, 64
2, 12312, Note_on_c, 0, 65, 0
2, 12322, Note_on_c, 0, 73, 64
2, 12337, Note_on_c, 0, 73, 0
2, 12351, Note_on_c, 0, 49, 0
2, 12352, Note_on_c, 0, 72, 64
2, 12352, Note_on_c, 0, 44, 64
2, 12382, Note_on_c, 0, 72, 0
2, 12382, Note_on_c, 0, 68, 64
2, 12396, Note_on_c, 0, 68, 0
2, 12397, Note_on_c, 0, 44, 0
2, 12397, Note_on_c, 0, 70, 64
2, 12412, Note_on_c, 0, 70, 0
2, 12412, Note_on_c, 0, 72, 64
2, 12412, Note_on_c, 0, 56, 64
2, 12439, Note_on_c, 0, 56, 0
2, 12439, Note_on_c, 0, 73, 64
2, 12439, Note_on_c, 0, 58, 64
2, 12440, Note_on_c, 0, 72, 0
2, 12453, Note_on_c, 0, 58, 0
2, 12453, Note_on_c, 0, 75, 64
2, 12454, Note_on_c, 0, 73, 0
2, 12454, Note_on_c, 0, 60, 64
2, 12468, Note_on_c, 0, 75, 0
2, 12469, Note_on_c, 0, 77, 64
2, 12470, Note_on_c, 0, 60, 0
2, 12470, Note_on_c, 0, 61, 64
2, 12498, Note_on_c, 0, 77, 0
2, 12498, Note_on_c, 0, 73, 64
2, 12529, Note_on_c, 0, 73, 0
2, 12530, Note_on_c, 0, 70, 64
2, 12551, Note_on_c, 0, 70, 0
2, 12562, Note_on_c, 0, 79, 64
2, 12580, Note_on_c, 0, 79, 0
2, 12594, Note_on_c, 0, 80, 64
2, 12624, Note_on_c, 0, 60, 64
2, 12625, Note_on_c, 0, 61, 0
2, 12640, Note_on_c, 0, 58, 64
2, 12641, Note_on_c, 0, 60, 0
2, 12656, Note_on_c, 0, 58, 0
2, 12657, Note_on_c, 0, 60, 64
2, 12685, Note_on_c, 0, 60, 0
2, 12685, Note_on_c, 0, 61, 64
2, 12699, Note_on_c, 0, 63, 64
2, 12700, Note_on_c, 0, 61, 0
2, 12714, Note_on_c, 0, 63, 0
2, 12714, Note_on_c, 0, 65, 64
2, 12743, Note_on_c, 0, 80, 0
2, 12744, Note_on_c, 0, 77, 64
2, 12745, Note_on_c, 0, 61, 64
2, 12746, Note_on_c, 0, 65, 0
2, 12777, Note_on_c, 0, 77, 0
2, 12777, Note_on_c, 0, 73, 64
2, 12778, Note_on_c, 0, 58, 64
2, 12779, Note_on_c, 0, 61, 0
2, 12799, Note_on_c, 0, 73, 0
2, 12805, Note_on_c, 0, 82, 64
2, 12806, Note_on_c, 0, 58, 0
2, 12806, Note_on_c, 0, 67, 64
2, 12823, Note_on_c, 0, 82, 0
2, 12836, Note_on_c, 0, 84, 64
2, 12836, Note_on_c, 0, 68, 64
2, 12838, Note_on_c, 0, 67, 0
2, 12850, Note_on_c, 0, 68, 0
2, 12864, Note_on_c, 0, 56, 64
2, 12878, Note_on_c, 0, 56, 0
2, 12878, Note_on_c, 0, 58, 64
2, 12892, Note_on_c, 0, 58, 0
2, 12893, Note_on_c, 0, 60, 64
2, 12922, Note_on_c, 0, 60, 0
2, 12922, Note_on_c, 0, 62, 64
2, 12936, Note_on_c, 0, 63, 64
2, 12937, Note_on_c, 0, 62, 0
2, 12953, Note_on_c, 0, 63, 0
2, 12953, Note_on_c, 0, 65, 64
2, 12954, Note_on_c, 0, 84, 0
2, 12981, Note_on_c, 0, 74, 64
2, 12995, Note_on_c, 0, 74, 0
2, 12996, Note_on_c, 0, 75, 64
2, 13010, Note_on_c, 0, 75, 0
2, 13011, Note_on_c, 0, 77, 64
2, 13038, Note_on_c, 0, 77, 0
2, 13040, Note_on_c, 0, 79, 64
2, 13055, Note_on_c, 0, 80, 64
2, 13056, Note_on_c, 0, 79, 0
2, 13072, Note_on_c, 0, 80, 0
2, 13072, Note_on_c, 0, 82, 64
2, 13084, Note_on_c, 0, 65, 0
2, 13103, Note_on_c, 0, 55, 64
2, 13118, Note_on_c, 0, 56, 64
2, 13119, Note_on_c, 0, 55, 0
2, 13134, Note_on_c, 0, 56, 0
2, 13134, Note_on_c, 0, 58, 64
2, 13161, Note_on_c, 0, 58, 0
2, 13161, Note_on_c, 0, 60, 64
2, 13176, Note_on_c, 0, 60, 0
2, 13176, Note_on_c, 0, 62, 64
2, 13194, Note_on_c, 0, 63, 64
2, 13196, Note_on_c, 0, 82, 0
2, 13196, Note_on_c, 0, 62, 0
2, 13223, Note_on_c, 0, 72, 64
2, 13237, Note_on_c, 0, 74, 64
2, 13238, Note_on_c, 0, 72, 0
2, 13253, Note_on_c, 0, 74, 0
2, 13253, Note_on_c, 0, 75, 64
2, 13282, Note_on_c, 0, 75, 0
2, 13282, Note_on_c, 0, 77, 64
2, 13297, Note_on_c, 0, 77, 0
2, 13297, Note_on_c, 0, 79, 64
2, 13314, Note_on_c, 0, 79, 0
2, 13314, Note_on_c, 0, 80, 64
2, 13316, Note_on_c, 0, 63, 0
2, 13344, Note_on_c, 0, 53, 64
2, 13358, Note_on_c, 0, 55, 64
2, 13360, Note_on_c, 0, 53, 0
2, 13373, Note_on_c, 0, 56, 64
2, 13374, Note_on_c, 0, 55, 0
2, 13400, Note_on_c, 0, 58, 64
2, 13401, Note_on_c, 0, 56, 0
2, 13415, Note_on_c, 0, 58, 0
2, 13415, Note_on_c, 0, 60, 64
2, 13429, Note_on_c, 0, 60, 0
2, 13430, Note_on_c, 0, 62, 64
2, 13432, Note_on_c, 0, 80, 0
2, 13458, Note_on_c, 0, 62, 0
2, 13458, Note_on_c, 0, 70, 64
2, 13459, Note_on_c, 0, 65, 64
2, 13474, Note_on_c, 0, 70, 0
2, 13474, Note_on_c, 0, 72, 64
2, 13490, Note_on_c, 0, 72, 0
2, 13490, Note_on_c, 0, 58, 64
2, 13491, Note_on_c, 0, 74, 64
2, 13492, Note_on_c, 0, 65, 0
2, 13519, Note_on_c, 0, 58, 0
2, 13519, Note_on_c, 0, 62, 64
2, 13519, Note_on_c, 0, 75, 64
2, 13521, Note_on_c, 0, 74, 0
2, 13533, Note_on_c, 0, 77, 64
2, 13535, Note_on_c, 0, 75, 0
2, 13544, Note_on_c, 0, 77, 0
2, 13550, Note_on_c, 0, 62, 0
2, 13550, Note_on_c, 0, 63, 64
2, 13550, Note_on_c, 0, 79, 64
2, 13571, Note_on_c, 0, 79, 0
2, 13581, Note_on_c, 0, 75, 64
2, 13581, Note_on_c, 0, 51, 64
2, 13593, Note_on_c, 0, 63, 0
2, 13593, Note_on_c, 0, 53, 64
2, 13594, Note_on_c, 0, 51, 0
2, 13610, Note_on_c, 0, 75, 0
2, 13610, Note_on_c, 0, 53, 0
2, 13610, Note_on_c, 0, 55, 64
2, 13611, Note_on_c, 0, 70, 64
2, 13637, Note_on_c, 0, 70, 0
2, 13641, Note_on_c, 0, 55, 0
2, 13642, Note_on_c, 0, 79, 64
2, 13642, Note_on_c, 0, 56, 64
2, 13656, Note_on_c, 0, 56, 0
2, 13656, Note_on_c, 0, 58, 64
2, 13671, Note_on_c, 0, 58, 0
2, 13672, Note_on_c, 0, 79, 0
2, 13672, Note_on_c, 0, 60, 64
2, 13672, Note_on_c, 0, 68, 64
2, 13693, Note_on_c, 0, 68, 0
2, 13704, Note_on_c, 0, 60, 0
2, 13704, Note_on_c, 0, 79, 64
2, 13704, Note_on_c, 0, 56, 64
2, 13733, Note_on_c, 0, 79, 0
2, 13735, Note_on_c, 0, 56, 0
2, 13735, Note_on_c, 0, 68, 64
2, 13735, Note_on_c, 0, 53, 64
2, 13756, Note_on_c, 0, 68, 0
2, 13764, Note_on_c, 0, 53, 0
2, 13764, Note_on_c, 0, 77, 64
2, 13764, Note_on_c, 0, 62, 64
2, 13782, Note_on_c, 0, 77, 0
2, 13785, Note_on_c, 0, 62, 0
2, 13795, Note_on_c, 0, 70, 64
2, 13795, Note_on_c, 0, 51, 64
2, 13813, Note_on_c, 0, 70, 0
2, 13824, Note_on_c, 0, 67, 64
2, 13839, Note_on_c, 0, 68, 64
2, 13840, Note_on_c, 0, 67, 0
2, 13853, Note_on_c, 0, 68, 0
2, 13855, Note_on_c, 0, 70, 64
2, 13855, Note_on_c, 0, 49, 64
2, 13856, Note_on_c, 0, 51, 0
2, 13883, Note_on_c, 0, 70, 0
2, 13883, Note_on_c, 0, 72, 64
2, 13897, Note_on_c, 0, 72, 0
2, 13897, Note_on_c, 0, 73, 64
2, 13912, Note_on_c, 0, 49, 0
2, 13912, Note_on_c, 0, 73, 0
2, 13913, Note_on_c, 0, 75, 64
2, 13913, Note_on_c, 0, 48, 64
2, 13940, Note_on_c, 0, 75, 0
2, 13941, Note_on_c, 0, 70, 64
2, 13970, Note_on_c, 0, 70, 0
2, 13970, Note_on_c, 0, 46, 64
2, 13970, Note_on_c, 0, 63, 64
2, 13971, Note_on_c, 0, 48, 0
2, 14000, Note_on_c, 0, 63, 0
2, 14000, Note_on_c, 0, 73, 64
2, 14020, Note_on_c, 0, 73, 0
2, 14026, Note_on_c, 0, 46, 0
2, 14030, Note_on_c, 0, 72, 64
2, 14030, Note_on_c, 0, 44, 64
2, 14062, Note_on_c, 0, 44, 0
2, 14062, Note_on_c, 0, 41, 64
2, 14076, Note_on_c, 0, 43, 64
2, 14078, Note_on_c, 0, 41, 0
2, 14093, Note_on_c, 0, 68, 64
2, 14094, Note_on_c, 0, 44, 64
2, 14095, Note_on_c, 0, 43, 0
2, 14121, Note_on_c, 0, 46, 64
2, 14122, Note_on_c, 0, 44, 0
2, 14134, Note_on_c, 0, 46, 0
2, 14135, Note_on_c, 0, 48, 64
2, 14152, Note_on_c, 0, 49, 64
2, 14153, Note_on_c, 0, 48, 0
2, 14183, Note_on_c, 0, 49, 0
2, 14183, Note_on_c, 0, 46, 64
2, 14212, Note_on_c, 0, 68, 0
2, 14213, Note_on_c, 0, 72, 0
2, 14213, Note_on_c, 0, 46, 0
2, 14213, Note_on_c, 0, 43, 64
2, 14214, Note_on_c, 0, 70, 64
2, 14214, Note_on_c, 0, 67, 64
2, 14244, Note_on_c, 0, 43, 0
2, 14244, Note_on_c, 0, 67, 0
2, 14244, Note_on_c, 0, 65, 64
2, 14245, Note_on_c, 0, 49, 64
2, 14262, Note_on_c, 0, 65, 0
2, 14275, Note_on_c, 0, 67, 64
2, 14276, Note_on_c, 0, 49, 0
2, 14276, Note_on_c, 0, 40, 64
2, 14295, Note_on_c, 0, 40, 0
2, 14303, Note_on_c, 0, 48, 64
2, 14317, Note_on_c, 0, 70, 0
2, 14318, Note_on_c, 0, 67, 0
2, 14318, Note_on_c, 0, 48, 0
2, 14319, Note_on_c, 0, 50, 64
2, 14335, Note_on_c, 0, 50, 0
2, 14336, Note_on_c, 0, 79, 64
2, 14336, Note_on_c, 0, 70, 64
2, 14336, Note_on_c, 0, 52, 64
2, 14363, Note_on_c, 0, 53, 64
2, 14364, Note_on_c, 0, 52, 0
2, 14377, Note_on_c, 0, 53, 0
2, 14377, Note_on_c, 0, 55, 64
2, 14393, Note_on_c, 0, 56, 64
2, 14394, Note_on_c, 0, 55, 0
2, 14422, Note_on_c, 0, 56, 0
2, 14422, Note_on_c, 0, 53, 64
2, 14430, Note_on_c, 0, 70, 0
2, 14446, Note_on_c, 0, 79, 0
2, 14449, Note_on_c, 0, 68, 64
2, 14450, Note_on_c, 0, 77, 64
2, 14450, Note_on_c, 0, 48, 64
2, 14451, Note_on_c, 0, 53, 0
2, 14481, Note_on_c, 0, 77, 0
2, 14481, Note_on_c, 0, 75, 64
2, 14481, Note_on_c, 0, 51, 64
2, 14482, Note_on_c, 0, 48, 0
2, 14513, Note_on_c, 0, 75, 0
2, 14513, Note_on_c, 0, 77, 64
2, 14513, Note_on_c, 0, 50, 64
2, 14515, Note_on_c, 0, 51, 0
2, 14533, Note_on_c, 0, 77, 0
2, 14543, Note_on_c, 0, 70, 64
2, 14558, Note_on_c, 0, 72, 64
2, 14559, Note_on_c, 0, 70, 0
2, 14561, Note_on_c, 0, 68, 0
2, 14574, Note_on_c, 0, 72, 0
2, 14574, Note_on_c, 0, 53, 64
2, 14575, Note_on_c, 0, 74, 64
2, 14575, Note_on_c, 0, 46, 64
2, 14576, Note_on_c, 0, 50, 0
2, 14605, Note_on_c, 0, 75, 64
2, 14606, Note_on_c, 0, 74, 0
2, 14619, Note_on_c, 0, 75, 0
2, 14619, Note_on_c, 0, 77, 64
2, 14635, Note_on_c, 0, 53, 0
2, 14635, Note_on_c, 0, 51, 64
2, 14635, Note_on_c, 0, 43, 64
2, 14636, Note_on_c, 0, 46, 0
2, 14636, Note_on_c, 0, 77, 0
2, 14636, Note_on_c, 0, 79, 64
2, 14664, Note_on_c, 0, 79, 0
2, 14664, Note_on_c, 0, 75, 64
2, 14680, Note_on_c, 0, 75, 0
2, 14694, Note_on_c, 0, 43, 0
2, 14694, Note_on_c, 0, 70, 64
2, 14694, Note_on_c, 0, 46, 64
2, 14695, Note_on_c, 0, 53, 64
2, 14696, Note_on_c, 0, 51, 0
2, 14714, Note_on_c, 0, 70, 0
2, 14726, Note_on_c, 0, 74, 64
2, 14736, Note_on_c, 0, 46, 0
2, 14736, Note_on_c, 0, 53, 0
2, 14755, Note_on_c, 0, 74, 0
2, 14756, Note_on_c, 0, 39, 64
2, 14756, Note_on_c, 0, 75, 64
2, 14785, Note_on_c, 0, 51, 64
2, 14787, Note_on_c, 0, 39, 0
2, 14796, Note_on_c, 0, 51, 0
2, 14801, Note_on_c, 0, 53, 64
2, 14812, Note_on_c, 0, 53, 0
2, 14814, Note_on_c, 0, 75, 0
2, 14817, Note_on_c, 0, 55, 64
2, 14817, Note_on_c, 0, 51, 64
2, 14832, Note_on_c, 0, 55, 0
2, 14843, Note_on_c, 0, 56, 64
2, 14855, Note_on_c, 0, 56, 0
2, 14856, Note_on_c, 0, 58, 64
2, 14864, Note_on_c, 0, 58, 0
2, 14871, Note_on_c, 0, 51, 0
2, 14872, Note_on_c, 0, 52, 64
2, 14872, Note_on_c, 0, 60, 64
2, 14894, Note_on_c, 0, 60, 0
2, 14899, Note_on_c, 0, 55, 64
2, 14914, Note_on_c, 0, 52, 0
2, 14918, Note_on_c, 0, 55, 0
2, 14928, Note_on_c, 0, 52, 64
2, 14929, Note_on_c, 0, 48, 64
2, 14959, Note_on_c, 0, 52, 0
2, 14959, Note_on_c, 0, 58, 64
2, 14979, Note_on_c, 0, 58, 0
2, 14991, Note_on_c, 0, 56, 64
2, 14991, Note_on_c, 0, 53, 64
2, 14992, Note_on_c, 0, 48, 0
2, 15021, Note_on_c, 0, 65, 64
2, 15036, Note_on_c, 0, 67, 64
2, 15040, Note_on_c, 0, 65, 0
2, 15049, Note_on_c, 0, 67, 0
2, 15052, Note_on_c, 0, 56, 0
2, 15052, Note_on_c, 0, 49, 64
2, 15053, Note_on_c, 0, 68, 64
2, 15081, Note_on_c, 0, 68, 0
2, 15082, Note_on_c, 0, 70, 64
2, 15094, Note_on_c, 0, 70, 0
2, 15094, Note_on_c, 0, 72, 64
2, 15111, Note_on_c, 0, 49, 0
2, 15112, Note_on_c, 0, 72, 0
2, 15112, Note_on_c, 0, 73, 64
2, 15112, Note_on_c, 0, 46, 64
2, 15141, Note_on_c, 0, 73, 0
2, 15142, Note_on_c, 0, 70, 64
2, 15157, Note_on_c, 0, 46, 0
2, 15159, Note_on_c, 0, 53, 0
2, 15172, Note_on_c, 0, 70, 0
2, 15172, Note_on_c, 0, 67, 64
2, 15172, Note_on_c, 0, 48, 64
2, 15173, Note_on_c, 0, 52, 64
2, 15203, Note_on_c, 0, 67, 0
2, 15203, Note_on_c, 0, 72, 64
2, 15220, Note_on_c, 0, 72, 0
2, 15234, Note_on_c, 0, 48, 0
2, 15234, Note_on_c, 0, 52, 0
2, 15234, Note_on_c, 0, 68, 64
2, 15234, Note_on_c, 0, 53, 64
2, 15263, Note_on_c, 0, 67, 64
2, 15276, Note_on_c, 0, 67, 0
2, 15277, Note_on_c, 0, 65, 64
2, 15293, Note_on_c, 0, 63, 64
2, 15293, Note_on_c, 0, 41, 64
2, 15294, Note_on_c, 0, 53, 0
2, 15294, Note_on_c, 0, 65, 0
2, 15317, Note_on_c, 0, 68, 0
2, 15322, Note_on_c, 0, 63, 0
2, 15322, Note_on_c, 0, 62, 64
2, 15336, Note_on_c, 0, 62, 0
2, 15336, Note_on_c, 0, 60, 64
2, 15353, Note_on_c, 0, 60, 0
2, 15353, Note_on_c, 0, 62, 64
2, 15354, Note_on_c, 0, 46, 64
2, 15356, Note_on_c, 0, 41, 0
2, 15371, Note_on_c, 0, 62, 0
2, 15382, Note_on_c, 0, 58, 64
2, 15397, Note_on_c, 0, 58, 0
2, 15397, Note_on_c, 0, 60, 64
2, 15413, Note_on_c, 0, 60, 0
2, 15413, Note_on_c, 0, 44, 64
2, 15413, Note_on_c, 0, 62, 64
2, 15415, Note_on_c, 0, 46, 0
2, 15442, Note_on_c, 0, 62, 0
2, 15442, Note_on_c, 0, 63, 64
2, 15455, Note_on_c, 0, 63, 0
2, 15456, Note_on_c, 0, 65, 64
2, 15472, Note_on_c, 0, 43, 64
2, 15472, Note_on_c, 0, 59, 64
2, 15473, Note_on_c, 0, 44, 0
2, 15476, Note_on_c, 0, 65, 0
2, 15488, Note_on_c, 0, 59, 0
2, 15500, Note_on_c, 0, 71, 56
2, 15513, Note_on_c, 0, 72, 76
2, 15514, Note_on_c, 0, 71, 0
2, 15529, Note_on_c, 0, 74, 83
2, 15530, Note_on_c, 0, 72, 0
2, 15531, Note_on_c, 0, 41, 64
2, 15533, Note_on_c, 0, 43, 0
2, 15559, Note_on_c, 0, 74, 0
2, 15559, Note_on_c, 0, 75, 78
2, 15572, Note_on_c, 0, 75, 0
2, 15572, Note_on_c, 0, 77, 79
2, 15589, Note_on_c, 0, 79, 84
2, 15590, Note_on_c, 0, 77, 0
2, 15590, Note_on_c, 0, 39, 64
2, 15592, Note_on_c, 0, 41, 0
2, 15618, Note_on_c, 0, 75, 83
2, 15636, Note_on_c, 0, 75, 0
2, 15647, Note_on_c, 0, 71, 63
2, 15651, Note_on_c, 0, 39, 0
2, 15651, Note_on_c, 0, 38, 64
2, 15677, Note_on_c, 0, 71, 0
2, 15677, Note_on_c, 0, 74, 82
2, 15694, Note_on_c, 0, 74, 0
2, 15711, Note_on_c, 0, 67, 77
2, 15714, Note_on_c, 0, 36, 64
2, 15717, Note_on_c, 0, 38, 0
2, 15740, Note_on_c, 0, 36, 0
2, 15743, Note_on_c, 0, 48, 64
2, 15756, Note_on_c, 0, 48, 0
2, 15756, Note_on_c, 0, 50, 64
2, 15758, Note_on_c, 0, 67, 0
2, 15772, Note_on_c, 0, 72, 85
2, 15773, Note_on_c, 0, 51, 64
2, 15774, Note_on_c, 0, 50, 0
2, 15802, Note_on_c, 0, 51, 0
2, 15802, Note_on_c, 0, 75, 86
2, 15802, Note_on_c, 0, 53, 64
2, 15804, Note_on_c, 0, 79, 0
2, 15814, Note_on_c, 0, 53, 0
2, 15814, Note_on_c, 0, 55, 64
2, 15831, Note_on_c, 0, 56, 64
2, 15832, Note_on_c, 0, 55, 0
2, 15832, Note_on_c, 0, 77, 87
2, 15833, Note_on_c, 0, 75, 0
2, 15861, Note_on_c, 0, 53, 64
2, 15862, Note_on_c, 0, 56, 0
2, 15888, Note_on_c, 0, 70, 75
2, 15891, Note_on_c, 0, 72, 0
2, 15891, Note_on_c, 0, 50, 64
2, 15892, Note_on_c, 0, 53, 0
2, 15917, Note_on_c, 0, 77, 0
2, 15917, Note_on_c, 0, 74, 82
2, 15921, Note_on_c, 0, 55, 64
2, 15922, Note_on_c, 0, 50, 0
2, 15952, Note_on_c, 0, 79, 89
2, 15953, Note_on_c, 0, 74, 0
2, 15955, Note_on_c, 0, 55, 0
2, 15955, Note_on_c, 0, 52, 64
2, 15984, Note_on_c, 0, 72, 64
2, 15989, Note_on_c, 0, 79, 0
2, 15997, Note_on_c, 0, 70, 0
2, 15998, Note_on_c, 0, 72, 0
2, 15999, Note_on_c, 0, 74, 64
2, 16014, Note_on_c, 0, 74, 0
2, 16015, Note_on_c, 0, 76, 64
2, 16015, Note_on_c, 0, 60, 64
2, 16042, Note_on_c, 0, 76, 0
2, 16044, Note_on_c, 0, 77, 64
2, 16058, Note_on_c, 0, 77, 0
2, 16058, Note_on_c, 0, 79, 64
2, 16074, Note_on_c, 0, 80, 64
2, 16074, Note_on_c, 0, 53, 64
2, 16075, Note_on_c, 0, 52, 0
2, 16075, Note_on_c, 0, 79, 0
2, 16103, Note_on_c, 0, 80, 0
2, 16104, Note_on_c, 0, 77, 64
2, 16133, Note_on_c, 0, 77, 0
2, 16133, Note_on_c, 0, 65, 64
2, 16134, Note_on_c, 0, 60, 0
2, 16134, Note_on_c, 0, 73, 64
2, 16162, Note_on_c, 0, 73, 0
2, 16165, Note_on_c, 0, 77, 64
2, 16177, Note_on_c, 0, 77, 0
2, 16193, Note_on_c, 0, 61, 64
2, 16193, Note_on_c, 0, 70, 64
2, 16194, Note_on_c, 0, 65, 0
2, 16210, Note_on_c, 0, 70, 0
2, 16223, Note_on_c, 0, 67, 64
2, 16238, Note_on_c, 0, 67, 0
2, 16238, Note_on_c, 0, 68, 64
2, 16252, Note_on_c, 0, 61, 0
2, 16252, Note_on_c, 0, 68, 0
2, 16252, Note_on_c, 0, 70, 64
2, 16280, Note_on_c, 0, 70, 0
2, 16281, Note_on_c, 0, 72, 64
2, 16294, Note_on_c, 0, 73, 64
2, 16295, Note_on_c, 0, 72, 0
2, 16300, Note_on_c, 0, 73, 0
2, 16309, Note_on_c, 0, 72, 64
2, 16310, Note_on_c, 0, 52, 64
2, 16311, Note_on_c, 0, 53, 0
2, 16338, Note_on_c, 0, 67, 64
2, 16356, Note_on_c, 0, 67, 0
2, 16365, Note_on_c, 0, 60, 64
2, 16366, Note_on_c, 0, 52, 0
2, 16366, Note_on_c, 0, 51, 64
2, 16384, Note_on_c, 0, 72, 0
2, 16398, Note_on_c, 0, 70, 64
2, 16413, Note_on_c, 0, 70, 0
2, 16425, Note_on_c, 0, 51, 0
2, 16428, Note_on_c, 0, 69, 64
2, 16460, Note_on_c, 0, 41, 64
2, 16463, Note_on_c, 0, 60, 0
2, 16464, Note_on_c, 0, 69, 0
2, 16475, Note_on_c, 0, 43, 64
2, 16476, Note_on_c, 0, 41, 0
2, 16494, Note_on_c, 0, 63, 64
2, 16495, Note_on_c, 0, 43, 0
2, 16495, Note_on_c, 0, 45, 64
2, 16495, Note_on_c, 0, 72, 64
2, 16521, Note_on_c, 0, 45, 0
2, 16522, Note_on_c, 0, 46, 64
2, 16536, Note_on_c, 0, 46, 0
2, 16536, Note_on_c, 0, 48, 64
2, 16553, Note_on_c, 0, 48, 0
2, 16553, Note_on_c, 0, 49, 64
2, 16581, Note_on_c, 0, 49, 0
2, 16582, Note_on_c, 0, 46, 64
2, 16596, Note_on_c, 0, 46, 0
2, 16596, Note_on_c, 0, 48, 64
2, 16597, Note_on_c, 0, 63, 0
2, 16601, Note_on_c, 0, 72, 0
2, 16609, Note_on_c, 0, 48, 0
2, 16613, Note_on_c, 0, 70, 64
2, 16613, Note_on_c, 0, 61, 64
2, 16613, Note_on_c, 0, 49, 64
2, 16641, Note_on_c, 0, 49, 0
2, 16642, Note_on_c, 0, 53, 64
2, 16658, Note_on_c, 0, 53, 0
2, 16658, Note_on_c, 0, 52, 64
2, 16665, Note_on_c, 0, 61, 0
2, 16672, Note_on_c, 0, 52, 0
2, 16672, Note_on_c, 0, 53, 64
2, 16700, Note_on_c, 0, 70, 0
2, 16701, Note_on_c, 0, 65, 64
2, 16714, Note_on_c, 0, 67, 64
2, 16730, Note_on_c, 0, 67, 0
2, 16730, Note_on_c, 0, 69, 64
2, 16747, Note_on_c, 0, 69, 0
2, 16759, Note_on_c, 0, 53, 0
2, 16759, Note_on_c, 0, 70, 64
2, 16759, Note_on_c, 0, 55, 64
2, 16772, Note_on_c, 0, 70, 0
2, 16773, Note_on_c, 0, 55, 0
2, 16773, Note_on_c, 0, 72, 64
2, 16773, Note_on_c, 0, 57, 64
2, 16790, Note_on_c, 0, 72, 0
2, 16790, Note_on_c, 0, 73, 64
2, 16791, Note_on_c, 0, 57, 0
2, 16791, Note_on_c, 0, 58, 64
2, 16800, Note_on_c, 0, 65, 0
2, 16806, Note_on_c, 0, 73, 0
2, 16820, Note_on_c, 0, 70, 64
2, 16834, Note_on_c, 0, 72, 64
2, 16849, Note_on_c, 0, 72, 0
2, 16850, Note_on_c, 0, 73, 64
2, 16850, Note_on_c, 0, 46, 64
2, 16878, Note_on_c, 0, 73, 0
2, 16881, Note_on_c, 0, 58, 0
2, 16881, Note_on_c, 0, 77, 64
2, 16894, Note_on_c, 0, 77, 0
2, 16894, Note_on_c, 0, 76, 64
2, 16907, Note_on_c, 0, 46, 0
2, 16907, Control_c, 0, 7, 108
2, 16908, Note_on_c, 0, 53, 64
2, 16911, Note_on_c, 0, 70, 0
2, 16912, Note_on_c, 0, 76, 0
2, 16912, Note_on_c, 0, 77, 64
2, 16926, Note_on_c, 0, 69, 64
2, 16938, Note_on_c, 0, 69, 0
2, 16939, Note_on_c, 0, 70, 64
2, 16967, Note_on_c, 0, 73, 64
2, 16969, Note_on_c, 0, 41, 64
2, 16978, Note_on_c, 0, 70, 0
2, 16982, Note_on_c, 0, 69, 64
2, 16997, Note_on_c, 0, 69, 0
2, 16999, Note_on_c, 0, 70, 64
2, 17028, Note_on_c, 0, 65, 64
2, 17028, Control_c, 0, 7, 106
2, 17040, Note_on_c, 0, 65, 0
2, 17043, Note_on_c, 0, 69, 64
2, 17044, Note_on_c, 0, 70, 0
2, 17047, Control_c, 0, 7, 105
2, 17056, Note_on_c, 0, 69, 0
2, 17058, Note_on_c, 0, 53, 0
2, 17062, Note_on_c, 0, 70, 64
2, 17070, Note_on_c, 0, 73, 0
2, 17085, Control_c, 0, 7, 103
2, 17090, Note_on_c, 0, 41, 0
2, 17090, Note_on_c, 0, 53, 64
2, 17090, Note_on_c, 0, 73, 64
2, 17105, Note_on_c, 0, 70, 0
2, 17105, Note_on_c, 0, 69, 64
2, 17112, Control_c, 0, 7, 101
2, 17119, Note_on_c, 0, 69, 0
2, 17120, Note_on_c, 0, 70, 64
2, 17124, Note_on_c, 0, 53, 0
2, 17131, Note_on_c, 0, 77, 0
2, 17134, Control_c, 0, 7, 99
2, 17149, Note_on_c, 0, 53, 64
2, 17149, Note_on_c, 0, 77, 64
2, 17165, Note_on_c, 0, 69, 64
2, 17167, Note_on_c, 0, 70, 0
2, 17170, Control_c, 0, 7, 97
2, 17180, Control_c, 0, 7, 95
2, 17181, Note_on_c, 0, 70, 64
2, 17182, Note_on_c, 0, 73, 0
2, 17201, Control_c, 0, 7, 93
2, 17203, Control_c, 0, 7, 92
2, 17210, Note_on_c, 0, 73, 64
2, 17211, Note_on_c, 0, 69, 0
2, 17212, Note_on_c, 0, 41, 64
2, 17223, Note_on_c, 0, 70, 0
2, 17226, Note_on_c, 0, 69, 64
2, 17240, Note_on_c, 0, 69, 0
2, 17242, Note_on_c, 0, 70, 64
2, 17264, Control_c, 0, 7, 90
2, 17265, Control_c, 0, 7, 88
2, 17271, Note_on_c, 0, 65, 64
2, 17274, Note_on_c, 0, 70, 0
2, 17283, Note_on_c, 0, 65, 0
2, 17285, Control_c, 0, 7, 86
2, 17286, Note_on_c, 0, 69, 64
2, 17296, Note_on_c, 0, 69, 0
2, 17302, Note_on_c, 0, 70, 64
2, 17303, Control_c, 0, 7, 84
2, 17306, Note_on_c, 0, 73, 0
2, 17309, Note_on_c, 0, 53, 0
2, 17331, Note_on_c, 0, 73, 64
2, 17332, Note_on_c, 0, 53, 64
2, 17338, Control_c, 0, 7, 82
2, 17339, Control_c, 0, 7, 80
2, 17346, Note_on_c, 0, 69, 64
2, 17347, Note_on_c, 0, 70, 0
2, 17360, Note_on_c, 0, 69, 0
2, 17363, Note_on_c, 0, 70, 64
2, 17368, Note_on_c, 0, 77, 0
2, 17372, Note_on_c, 0, 53, 0
2, 17390, Control_c, 0, 7, 78
2, 17391, Note_on_c, 0, 53, 64
2, 17392, Note_on_c, 0, 76, 64
2, 17394, Note_on_c, 0, 41, 0
2, 17408, Note_on_c, 0, 69, 64
2, 17410, Note_on_c, 0, 70, 0
2, 17412, Control_c, 0, 7, 77
2, 17423, Note_on_c, 0, 70, 64
2, 17427, Note_on_c, 0, 73, 0
2, 17428, Note_on_c, 0, 69, 0
2, 17435, Control_c, 0, 7, 75
2, 17440, Control_c, 0, 7, 73
2, 17451, Note_on_c, 0, 41, 64
2, 17452, Note_on_c, 0, 73, 64
2, 17460, Control_c, 0, 7, 71
2, 17467, Note_on_c, 0, 70, 0
2, 17468, Note_on_c, 0, 69, 64
2, 17474, Control_c, 0, 7, 69
2, 17482, Control_c, 0, 7, 67
2, 17483, Note_on_c, 0, 69, 0
2, 17483, Note_on_c, 0, 70, 64
2, 17505, Control_c, 0, 7, 65
2, 17511, Note_on_c, 0, 70, 0
2, 17511, Note_on_c, 0, 67, 64
2, 17517, Control_c, 0, 7, 63
2, 17523, Note_on_c, 0, 67, 0
2, 17527, Note_on_c, 0, 69, 64
2, 17530, Control_c, 0, 7, 62
2, 17539, Note_on_c, 0, 69, 0
2, 17543, Note_on_c, 0, 70, 64
2, 17546, Note_on_c, 0, 73, 0
2, 17548, Note_on_c, 0, 53, 0
2, 17573, Note_on_c, 0, 73, 64
2, 17576, Note_on_c, 0, 53, 64
2, 17590, Note_on_c, 0, 70, 0
2, 17590, Note_on_c, 0, 69, 64
2, 17604, Note_on_c, 0, 70, 64
2, 17605, Note_on_c, 0, 69, 0
2, 17611, Control_c, 0, 7, 60
2, 17612, Note_on_c, 0, 76, 0
2, 17616, Note_on_c, 0, 53, 0
2, 17618, Note_on_c, 0, 41, 0
2, 17619, Control_c, 0, 7, 58
2, 17634, Note_on_c, 0, 76, 64
2, 17635, Note_on_c, 0, 53, 64
2, 17652, Note_on_c, 0, 69, 64
2, 17654, Note_on_c, 0, 70, 0
2, 17666, Note_on_c, 0, 70, 64
2, 17670, Note_on_c, 0, 73, 0
2, 17694, Note_on_c, 0, 69, 0
2, 17694, Note_on_c, 0, 73, 64
2, 17694, Note_on_c, 0, 41, 64
2, 17709, Note_on_c, 0, 70, 0
2, 17710, Note_on_c, 0, 69, 64
2, 17724, Note_on_c, 0, 69, 0
2, 17724, Note_on_c, 0, 70, 64
2, 17751, Note_on_c, 0, 67, 64
2, 17752, Note_on_c, 0, 70, 0
2, 17765, Note_on_c, 0, 67, 0
2, 17768, Note_on_c, 0, 69, 64
2, 17772, Note_on_c, 0, 53, 0
2, 17772, Note_on_c, 0, 41, 0
2, 17775, Control_c, 0, 7, 56
2, 17780, Note_on_c, 0, 69, 0
2, 17785, Note_on_c, 0, 70, 64
2, 17791, Note_on_c, 0, 76, 0
2, 17798, Control_c, 0, 7, 54
2, 17815, Note_on_c, 0, 53, 64
2, 17816, Note_on_c, 0, 76, 64
2, 17833, Note_on_c, 0, 70, 0
2, 17833, Note_on_c, 0, 69, 64
2, 17847, Note_on_c, 0, 69, 0
2, 17847, Note_on_c, 0, 70, 64
2, 17850, Note_on_c, 0, 73, 0
2, 17850, Control_c, 0, 7, 52
2, 17861, Note_on_c, 0, 76, 0
2, 17878, Note_on_c, 0, 70, 0
2, 17891, Note_on_c, 0, 72, 64
2, 17891, Note_on_c, 0, 41, 64
2, 17891, Note_on_c, 0, 69, 64
2, 17891, Note_on_c, 0, 77, 64
2, 17897, Control_c, 0, 7, 50
2, 17969, Control_c, 0, 7, 49
2, 17992, Control_c, 0, 7, 47
2, 18020, Control_c, 0, 7, 45
2, 18038, Control_c, 0, 7, 43
2, 18084, Control_c, 0, 7, 41
2, 18103, Control_c, 0, 7, 39
2, 18150, Control_c, 0, 7, 37
2, 18175, Control_c, 0, 7, 35
2, 18224, Control_c, 0, 7, 34
2, 18247, Control_c, 0, 7, 32
2, 18294, Control_c, 0, 7, 30
2, 18340, Control_c, 0, 7, 28
2, 18359, Note_on_c, 0, 53, 0
2, 18359, Note_on_c, 0, 69, 0
2, 18360, Control_c, 0, 7, 26
2, 18360, Control_c, 0, 10, 51
2, 18361, Note_on_c, 0, 41, 0
2, 18362, Note_on_c, 0, 72, 0
2, 18363, Note_on_c, 0, 77, 0
2, 18363, Control_c, 0, 7, 21
2, 18363, End_track
3, 0, Start_track
3, 0, Title_t, "Ped"
3, 0, MIDI_port, 0
3, 0, Control_c, 1, 7, 106
3, 0, Control_c, 1, 93, 127
3, 0, Control_c, 1, 91, 127
3, 0, Control_c, 1, 10, 93
3, 0, Control_c, 1, 1, 33
3, 0, Program_c, 1, 65
3, 1795, Note_on_c, 1, 60, 80
3, 2033, Note_on_c, 1, 65, 80
3, 2035, Note_on_c, 1, 60, 0
3, 2154, Note_on_c, 1, 65, 0
3, 2155, Note_on_c, 1, 67, 80
3, 2272, Note_on_c, 1, 68, 79
3, 2276, Note_on_c, 1, 67, 0
3, 2389, Note_on_c, 1, 68, 0
3, 2389, Note_on_c, 1, 70, 86
3, 2509, Note_on_c, 1, 70, 0
3, 2510, Note_on_c, 1, 67, 80
3, 2691, Note_on_c, 1, 65, 85
3, 2693, Note_on_c, 1, 67, 0
3, 2750, Note_on_c, 1, 63, 85
3, 2753, Note_on_c, 1, 65, 0
3, 2856, Note_on_c, 1, 63, 0
3, 2874, Note_on_c, 1, 63, 87
3, 2992, Note_on_c, 1, 65, 86
3, 2993, Note_on_c, 1, 63, 0
3, 3101, Note_on_c, 1, 65, 0
3, 3111, Note_on_c, 1, 65, 89
3, 3232, Note_on_c, 1, 67, 86
3, 3234, Note_on_c, 1, 65, 0
3, 3347, Note_on_c, 1, 67, 0
3, 3353, Note_on_c, 1, 67, 87
3, 3472, Note_on_c, 1, 67, 0
3, 3472, Note_on_c, 1, 60, 79
3, 3827, Note_on_c, 1, 60, 0
3, 7074, Note_on_c, 1, 60, 82
3, 7310, Note_on_c, 1, 65, 87
3, 7311, Note_on_c, 1, 60, 0
3, 7432, Note_on_c, 1, 67, 78
3, 7433, Note_on_c, 1, 65, 0
3, 7551, Note_on_c, 1, 68, 86
3, 7554, Note_on_c, 1, 67, 0
3, 7668, Note_on_c, 1, 70, 87
3, 7669, Note_on_c, 1, 68, 0
3, 7795, Note_on_c, 1, 67, 79
3, 7796, Note_on_c, 1, 70, 0
3, 7968, Note_on_c, 1, 65, 78
3, 7970, Note_on_c, 1, 67, 0
3, 8030, Note_on_c, 1, 63, 80
3, 8033, Note_on_c, 1, 65, 0
3, 8133, Note_on_c, 1, 63, 0
3, 8152, Note_on_c, 1, 63, 84
3, 8269, Note_on_c, 1, 65, 79
3, 8270, Note_on_c, 1, 63, 0
3, 8385, Note_on_c, 1, 65, 0
3, 8392, Note_on_c, 1, 65, 86
3, 8511, Note_on_c, 1, 67, 73
3, 8513, Note_on_c, 1, 65, 0
3, 8623, Note_on_c, 1, 67, 0
3, 8632, Note_on_c, 1, 67, 84
3, 8752, Note_on_c, 1, 60, 76
3, 8754, Note_on_c, 1, 67, 0
3, 9072, Note_on_c, 1, 60, 0
3, 11394, Note_on_c, 1, 72, 89
3, 11608, Note_on_c, 1, 72, 0
3, 11627, Note_on_c, 1, 72, 84
3, 11749, Note_on_c, 1, 70, 89
3, 11750, Note_on_c, 1, 72, 0
3, 11873, Note_on_c, 1, 68, 87
3, 11876, Note_on_c, 1, 70, 0
3, 11993, Note_on_c, 1, 68, 0
3, 11993, Note_on_c, 1, 67, 83
3, 12110, Note_on_c, 1, 68, 84
3, 12113, Note_on_c, 1, 67, 0
3, 12590, Note_on_c, 1, 68, 0
3, 13793, Note_on_c, 1, 67, 88
3, 14028, Note_on_c, 1, 68, 82
3, 14030, Note_on_c, 1, 67, 0
3, 14147, Note_on_c, 1, 70, 83
3, 14149, Note_on_c, 1, 68, 0
3, 14273, Note_on_c, 1, 72, 64
3, 14275, Note_on_c, 1, 70, 0
3, 14382, Note_on_c, 1, 72, 0
3, 14391, Note_on_c, 1, 72, 79
3, 14509, Note_on_c, 1, 70, 85
3, 14512, Note_on_c, 1, 72, 0
3, 14692, Note_on_c, 1, 68, 80
3, 14695, Note_on_c, 1, 70, 0
3, 14754, Note_on_c, 1, 68, 0
3, 14754, Note_on_c, 1, 67, 73
3, 14850, Note_on_c, 1, 67, 0
3, 14871, Note_on_c, 1, 67, 83
3, 14988, Note_on_c, 1, 68, 82
3, 14989, Note_on_c, 1, 67, 0
3, 15108, Note_on_c, 1, 67, 84
3, 15109, Note_on_c, 1, 68, 0
3, 15231, Note_on_c, 1, 65, 79
3, 15233, Note_on_c, 1, 67, 0
3, 15341, Note_on_c, 1, 65, 0
3, 15350, Note_on_c, 1, 65, 85
3, 15472, Note_on_c, 1, 67, 73
3, 15474, Note_on_c, 1, 65, 0
3, 15644, Note_on_c, 1, 65, 83
3, 15645, Note_on_c, 1, 67, 0
3, 15709, Note_on_c, 1, 63, 86
3, 15711, Note_on_c, 1, 65, 0
3, 15820, Note_on_c, 1, 63, 0
3, 15828, Note_on_c, 1, 62, 80
3, 15950, Note_on_c, 1, 60, 79
3, 15952, Note_on_c, 1, 62, 0
3, 16064, Note_on_c, 1, 60, 0
3, 16071, Note_on_c, 1, 65, 85
3, 16194, Note_on_c, 1, 67, 79
3, 16195, Note_on_c, 1, 65, 0
3, 16294, Note_on_c, 1, 67, 0
3, 16308, Note_on_c, 1, 67, 81
3, 16426, Note_on_c, 1, 65, 90
3, 16428, Note_on_c, 1, 67, 0
3, 16648, Control_c, 1, 7, 103
3, 16861, Control_c, 1, 7, 105
3, 16866, Control_c, 1, 7, 106
3, 16901, Control_c, 1, 7, 108
3, 16937, Control_c, 1, 7, 110
3, 16986, Control_c, 1, 7, 112
3, 17169, Control_c, 1, 7, 114
3, 17171, Control_c, 1, 7, 116
3, 17175, Control_c, 1, 7, 118
3, 17267, Control_c, 1, 7, 116
3, 17272, Control_c, 1, 7, 114
3, 17288, Control_c, 1, 7, 112
3, 17293, Control_c, 1, 7, 110
3, 17301, Control_c, 1, 7, 108
3, 17307, Control_c, 1, 7, 106
3, 17331, Control_c, 1, 7, 105
3, 17334, Control_c, 1, 7, 103
3, 17343, Control_c, 1, 7, 101
3, 17357, Control_c, 1, 7, 99
3, 17378, Control_c, 1, 7, 97
3, 17379, Control_c, 1, 7, 95
3, 17394, Control_c, 1, 7, 93
3, 17397, Control_c, 1, 7, 92
3, 17441, Control_c, 1, 7, 90
3, 17443, Control_c, 1, 7, 88
3, 17473, Control_c, 1, 7, 86
3, 17484, Control_c, 1, 7, 84
3, 17506, Control_c, 1, 7, 82
3, 17507, Control_c, 1, 7, 80
3, 17517, Control_c, 1, 7, 78
3, 17532, Control_c, 1, 7, 77
3, 17557, Control_c, 1, 7, 75
3, 17559, Control_c, 1, 7, 73
3, 17566, Control_c, 1, 7, 71
3, 17574, Control_c, 1, 7, 69
3, 17639, Control_c, 1, 7, 67
3, 17667, Control_c, 1, 7, 65
3, 17673, Control_c, 1, 7, 63
3, 17716, Control_c, 1, 7, 62
3, 17746, Control_c, 1, 7, 60
3, 17802, Control_c, 1, 7, 58
3, 17813, Control_c, 1, 7, 56
3, 17819, Control_c, 1, 7, 54
3, 17839, Control_c, 1, 7, 52
3, 17840, Control_c, 1, 7, 50
3, 17848, Control_c, 1, 7, 49
3, 17851, Control_c, 1, 7, 47
3, 17858, Control_c, 1, 7, 45
3, 17859, Control_c, 1, 7, 43
3, 17861, Control_c, 1, 7, 41
3, 17875, Control_c, 1, 7, 39
3, 18019, Control_c, 1, 7, 37
3, 18031, Control_c, 1, 7, 35
3, 18055, Control_c, 1, 7, 34
3, 18072, Control_c, 1, 7, 32
3, 18156, Control_c, 1, 7, 30
3, 18359, Note_on_c, 1, 65, 0
3, 18359, End_track
4, 0, Start_track
4, 0, MIDI_port, 0
4, 0, End_track
5, 0, Start_track
5, 0, Title_t, "Von Gott will ich nicht lassen"
5, 0, MIDI_port, 0
5, 0, End_track
6, 0, Start_track
6, 0, Title_t, "by J S Bach (BWV 658)"
6, 0, MIDI_port, 0
6, 0, End_track
7, 0, Start_track
7, 0, MIDI_port, 0
7, 0, End_track
8, 0, Start_track
8, 0, Title_t, "Sequenced using WinJammer Professional"
8, 0, MIDI_port, 0
8, 0, End_track
9, 0, Start_track
9, 0, Title_t, "on Windows NT by Martin Robinson."
9, 0, MIDI_port, 0
9, 0, End_track
10, 0, Start_track
10, 0, Title_t, "(c) Martin Robinson 1997"
10, 0, MIDI_port, 0
10, 0, End_track
0, 0, End_of_file
