0, 0, Header, 1, 16, 120
1, 0, Start_track
1, 0, Sequencer_specific, 10, 0, 0, 91, 35, 1, 0, 5, 4, 35, 0
1, 0, Instrument_name_t, "Conductor Track"
1, 0, SMPTE_offset, 96, 0, 3, 0, 0
1, 0, MIDI_port, 0
1, 0, Tempo, 465116
1, 0, Time_signature, 3, 1, 48, 8
1, 49840, Tempo, 468750
1, 49855, Tempo, 468750
1, 49870, Tempo, 472440
1, 49885, Tempo, 472440
1, 49900, Tempo, 472440
1, 49915, Tempo, 472440
1, 49930, Tempo, 472440
1, 49945, Tempo, 472440
1, 49960, Tempo, 480000
1, 49975, Tempo, 491803
1, 49990, Tempo, 500000
1, 50005, Tempo, 500000
1, 50020, Tempo, 504201
1, 50035, Tempo, 512820
1, 50050, Tempo, 517241
1, 50065, Tempo, 517241
1, 50080, Tempo, 517241
1, 50095, Tempo, 517241
1, 50110, Tempo, 517241
1, 50125, Tempo, 517241
1, 50140, Tempo, 512820
1, 50155, Tempo, 504201
1, 50170, Tempo, 495867
1, 50185, Tempo, 480000
1, 50200, Tempo, 472440
1, 60475, Tempo, 504201
1, 60490, Tempo, 504201
1, 60505, Tempo, 517241
1, 60520, Tempo, 530973
1, 60535, Tempo, 560747
1, 60550, Tempo, 576923
1, 60565, Tempo, 576923
1, 60580, Tempo, 576923
1, 60595, Tempo, 480000
1, 71715, Tempo, 483870
1, 71720, Tempo, 491803
1, 71811, Tempo, 495867
1, 71903, Tempo, 500000
1, 71994, Tempo, 504201
1, 72085, Tempo, 508474
1, 72177, Tempo, 512820
1, 72268, Tempo, 517241
1, 72359, Tempo, 521739
1, 72450, Tempo, 526315
1, 72542, Tempo, 530973
1, 72633, Tempo, 535714
1, 72724, Tempo, 540540
1, 72816, Tempo, 545454
1, 72907, Tempo, 550458
1, 72998, Tempo, 555555
1, 73090, Tempo, 560747
1, 73181, Tempo, 566037
1, 73272, Tempo, 571428
1, 73363, Tempo, 576923
1, 73455, Tempo, 582524
1, 73546, Tempo, 588235
1, 73637, Tempo, 594059
1, 73729, Tempo, 600000
1, 73820, Tempo, 606060
1, 73825, Tempo, 631578
1, 73906, Tempo, 638297
1, 73988, Tempo, 645161
1, 74015, Tempo, 681818
1, 74031, Tempo, 612244
1, 74047, Tempo, 560747
1, 74063, Tempo, 512820
1, 74078, Tempo, 476190
1, 74094, Tempo, 441176
1, 74110, Tempo, 410958
1, 74126, Tempo, 387096
1, 74142, Tempo, 363636
1, 74158, Tempo, 344827
1, 74160, Time_signature, 9, 2, 72, 8
1, 74173, Tempo, 326086
1, 74189, Tempo, 310880
1, 74205, Tempo, 295566
1, 93070, Tempo, 300000
1, 93089, Tempo, 301507
1, 93108, Tempo, 303030
1, 93126, Tempo, 304568
1, 93145, Tempo, 306122
1, 93164, Tempo, 307692
1, 93183, Tempo, 309278
1, 93201, Tempo, 310880
1, 93220, Tempo, 312500
1, 93239, Tempo, 314136
1, 93258, Tempo, 315789
1, 93276, Tempo, 317460
1, 93295, Tempo, 319148
1, 93314, Tempo, 320855
1, 93333, Tempo, 322580
1, 93351, Tempo, 324324
1, 93370, Tempo, 326086
1, 93389, Tempo, 327868
1, 93408, Tempo, 329670
1, 93426, Tempo, 331491
1, 93445, Tempo, 333333
1, 93464, Tempo, 335195
1, 93483, Tempo, 337078
1, 93501, Tempo, 338983
1, 93520, Tempo, 340909
1, 93539, Tempo, 342857
1, 93558, Tempo, 344827
1, 93576, Tempo, 346820
1, 93595, Tempo, 348837
1, 93611, Tempo, 337078
1, 93628, Tempo, 327868
1, 93644, Tempo, 317460
1, 93661, Tempo, 309278
1, 93677, Tempo, 300000
1, 93694, Tempo, 292682
1, 103330, Tempo, 294117
1, 103345, Tempo, 297029
1, 103361, Tempo, 298507
1, 103376, Tempo, 301507
1, 103392, Tempo, 304568
1, 103407, Tempo, 306122
1, 103422, Tempo, 309278
1, 103438, Tempo, 312500
1, 103453, Tempo, 315789
1, 103468, Tempo, 317460
1, 103484, Tempo, 320855
1, 103499, Tempo, 324324
1, 103515, Tempo, 326086
1, 103520, Tempo, 333333
1, 103535, Tempo, 324324
1, 103550, Tempo, 314136
1, 103565, Tempo, 306122
1, 103580, Tempo, 297029
1, 103595, Tempo, 289855
1, 103610, Tempo, 281690
1, 106970, Tempo, 283018
1, 106985, Tempo, 285714
1, 107000, Tempo, 288461
1, 107016, Tempo, 292682
1, 107031, Tempo, 295566
1, 107046, Tempo, 298507
1, 107061, Tempo, 301507
1, 107077, Tempo, 304568
1, 107092, Tempo, 309278
1, 107107, Tempo, 312500
1, 107122, Tempo, 315789
1, 107137, Tempo, 319148
1, 107153, Tempo, 322580
1, 107168, Tempo, 327868
1, 107183, Tempo, 331491
1, 107198, Tempo, 335195
1, 107213, Tempo, 338983
1, 107229, Tempo, 342857
1, 107244, Tempo, 348837
1, 107259, Tempo, 352941
1, 107274, Tempo, 357142
1, 107290, Tempo, 361445
1, 107305, Tempo, 365853
1, 107320, Tempo, 370370
1, 107335, Tempo, 377358
1, 107350, Tempo, 382165
1, 107366, Tempo, 387096
1, 107381, Tempo, 392156
1, 107396, Tempo, 397350
1, 107411, Tempo, 405405
1, 107427, Tempo, 410958
1, 107442, Tempo, 416666
1, 107457, Tempo, 422535
1, 107472, Tempo, 428571
1, 107487, Tempo, 437956
1, 107503, Tempo, 444444
1, 107518, Tempo, 451127
1, 107533, Tempo, 458015
1, 107548, Tempo, 465116
1, 107563, Tempo, 476190
1, 107579, Tempo, 483870
1, 107594, Tempo, 491803
1, 107609, Tempo, 500000
1, 107624, Tempo, 508474
1, 107640, Time_signature, 3, 1, 48, 8
1, 107640, Tempo, 521739
1, 107655, Tempo, 530973
1, 109185, Tempo, 540540
1, 109219, Tempo, 545454
1, 109253, Tempo, 550458
1, 109288, Tempo, 555555
1, 109322, Tempo, 560747
1, 109356, Tempo, 566037
1, 109390, Tempo, 571428
1, 109425, Tempo, 576923
1, 109459, Tempo, 582524
1, 109493, Tempo, 588235
1, 109527, Tempo, 594059
1, 109562, Tempo, 600000
1, 109596, Tempo, 606060
1, 109630, Tempo, 612244
1, 109664, Tempo, 618556
1, 109698, Tempo, 625000
1, 109733, Tempo, 631578
1, 109767, Tempo, 638297
1, 109801, Tempo, 645161
1, 109835, Tempo, 652173
1, 109870, Tempo, 659340
1, 109904, Tempo, 666666
1, 109938, Tempo, 674157
1, 109972, Tempo, 681818
1, 110007, Tempo, 689655
1, 110041, Tempo, 697674
1, 110075, Tempo, 705882
1, 110109, Tempo, 714285
1, 110143, Tempo, 722891
1, 110178, Tempo, 731707
1, 110212, Tempo, 740740
1, 110246, Tempo, 750000
1, 110280, Tempo, 759493
1, 110315, Tempo, 769230
1, 110349, Tempo, 779220
1, 110383, Tempo, 789473
1, 110417, Tempo, 800000
1, 110452, Tempo, 810810
1, 110486, Tempo, 821917
1, 110515, Tempo, 800000
1, 110595, Tempo, 789473
1, 110675, Tempo, 779220
1, 110755, Tempo, 769230
1, 110835, Tempo, 759493
1, 110855, Tempo, 800000
1, 110870, Tempo, 731707
1, 110880, Tempo, 800000
1, 110885, Tempo, 869565
1, 110901, Tempo, 769230
1, 110916, Tempo, 681818
1, 110932, Tempo, 618556
1, 110948, Tempo, 566037
1, 110964, Tempo, 521739
1, 110979, Tempo, 480000
1, 110995, Tempo, 447761
1, 111034, Tempo, 444444
1, 111073, Tempo, 441176
1, 111111, Tempo, 437956
1, 111150, Tempo, 434782
1, 111189, Tempo, 431654
1, 111228, Tempo, 428571
1, 111266, Tempo, 425531
1, 111305, Tempo, 422535
1, 111309, Tempo, 419580
1, 119380, Tempo, 419580
1, 119395, Tempo, 425531
1, 119410, Tempo, 431654
1, 119425, Tempo, 437956
1, 119440, Tempo, 444444
1, 119455, Tempo, 451127
1, 119470, Tempo, 458015
1, 119485, Tempo, 465116
1, 119500, Tempo, 472440
1, 119515, Tempo, 480000
1, 119530, Tempo, 487804
1, 119545, Tempo, 495867
1, 119560, Tempo, 504201
1, 119575, Tempo, 512820
1, 119590, Tempo, 521739
1, 119605, Tempo, 530973
1, 119620, Tempo, 535714
1, 119635, Tempo, 545454
1, 119650, Tempo, 555555
1, 119665, Tempo, 566037
1, 119680, Tempo, 576923
1, 119695, Tempo, 588235
1, 119710, Tempo, 600000
1, 119725, Tempo, 612244
1, 119740, Tempo, 625000
1, 119755, Tempo, 638297
1, 119770, Tempo, 652173
1, 119785, Tempo, 666666
1, 119800, Tempo, 681818
1, 119815, Tempo, 697674
1, 119830, Tempo, 714285
1, 119830, End_track
2, 0, Start_track
2, 0, Title_t, "Man 8"
2, 0, MIDI_port, 0
2, 0, Control_c, 0, 7, 127
2, 0, Control_c, 0, 93, 0
2, 0, Control_c, 0, 91, 127
2, 0, Control_c, 0, 10, 59
2, 0, Program_c, 0, 19
2, 6, Note_on_c, 0, 57, 80
2, 231, Note_on_c, 0, 57, 0
2, 244, Note_on_c, 0, 61, 80
2, 262, Note_on_c, 0, 61, 0
2, 263, Note_on_c, 0, 59, 80
2, 284, Note_on_c, 0, 61, 80
2, 290, Note_on_c, 0, 59, 0
2, 428, Note_on_c, 0, 61, 0
2, 435, Note_on_c, 0, 62, 80
2, 472, Note_on_c, 0, 62, 0
2, 517, Note_on_c, 0, 64, 80
2, 559, Note_on_c, 0, 62, 80
2, 562, Note_on_c, 0, 64, 0
2, 588, Note_on_c, 0, 62, 0
2, 594, Note_on_c, 0, 64, 80
2, 607, Note_on_c, 0, 62, 80
2, 624, Note_on_c, 0, 62, 0
2, 636, Note_on_c, 0, 62, 80
2, 647, Note_on_c, 0, 64, 0
2, 661, Note_on_c, 0, 62, 0
2, 662, Note_on_c, 0, 61, 80
2, 690, Note_on_c, 0, 61, 0
2, 693, Note_on_c, 0, 62, 80
2, 718, Note_on_c, 0, 62, 0
2, 721, Note_on_c, 0, 64, 80
2, 838, Note_on_c, 0, 52, 80
2, 926, Note_on_c, 0, 52, 0
2, 955, Note_on_c, 0, 54, 80
2, 975, Note_on_c, 0, 64, 0
2, 1018, Note_on_c, 0, 56, 80
2, 1022, Note_on_c, 0, 54, 0
2, 1075, Note_on_c, 0, 56, 0
2, 1078, Note_on_c, 0, 54, 80
2, 1139, Note_on_c, 0, 56, 80
2, 1144, Note_on_c, 0, 54, 0
2, 1193, Note_on_c, 0, 56, 0
2, 1200, Note_on_c, 0, 57, 80
2, 1205, Note_on_c, 0, 64, 80
2, 1231, Note_on_c, 0, 57, 0
2, 1231, Note_on_c, 0, 56, 80
2, 1253, Note_on_c, 0, 56, 0
2, 1256, Note_on_c, 0, 57, 80
2, 1274, Note_on_c, 0, 56, 80
2, 1282, Note_on_c, 0, 56, 0
2, 1301, Note_on_c, 0, 56, 80
2, 1308, Note_on_c, 0, 57, 0
2, 1338, Note_on_c, 0, 56, 0
2, 1338, Note_on_c, 0, 54, 80
2, 1374, Note_on_c, 0, 56, 80
2, 1378, Note_on_c, 0, 54, 0
2, 1404, Note_on_c, 0, 56, 0
2, 1414, Note_on_c, 0, 57, 80
2, 1425, Note_on_c, 0, 66, 80
2, 1427, Note_on_c, 0, 64, 0
2, 1491, Note_on_c, 0, 64, 80
2, 1551, Note_on_c, 0, 62, 80
2, 1552, Note_on_c, 0, 64, 0
2, 1607, Note_on_c, 0, 61, 80
2, 1609, Note_on_c, 0, 62, 0
2, 1674, Note_on_c, 0, 61, 0
2, 1676, Note_on_c, 0, 57, 0
2, 1676, Note_on_c, 0, 62, 80
2, 1726, Note_on_c, 0, 59, 80
2, 1790, Note_on_c, 0, 57, 80
2, 1794, Note_on_c, 0, 59, 0
2, 1849, Note_on_c, 0, 55, 80
2, 1850, Note_on_c, 0, 57, 0
2, 1910, Note_on_c, 0, 55, 0
2, 1910, Note_on_c, 0, 54, 80
2, 1970, Note_on_c, 0, 54, 0
2, 1971, Note_on_c, 0, 52, 80
2, 2031, Note_on_c, 0, 54, 80
2, 2035, Note_on_c, 0, 52, 0
2, 2057, Note_on_c, 0, 66, 0
2, 2092, Note_on_c, 0, 54, 0
2, 2095, Note_on_c, 0, 50, 80
2, 2148, Note_on_c, 0, 50, 0
2, 2152, Note_on_c, 0, 57, 80
2, 2153, Note_on_c, 0, 64, 80
2, 2162, Note_on_c, 0, 62, 0
2, 2220, Note_on_c, 0, 62, 80
2, 2272, Note_on_c, 0, 61, 80
2, 2279, Note_on_c, 0, 62, 0
2, 2327, Note_on_c, 0, 61, 0
2, 2331, Note_on_c, 0, 59, 80
2, 2391, Note_on_c, 0, 57, 0
2, 2391, Note_on_c, 0, 59, 0
2, 2393, Note_on_c, 0, 61, 80
2, 2446, Note_on_c, 0, 54, 80
2, 2507, Note_on_c, 0, 52, 80
2, 2509, Note_on_c, 0, 54, 0
2, 2562, Note_on_c, 0, 50, 80
2, 2566, Note_on_c, 0, 52, 0
2, 2623, Note_on_c, 0, 49, 80
2, 2624, Note_on_c, 0, 50, 0
2, 2678, Note_on_c, 0, 49, 0
2, 2681, Note_on_c, 0, 47, 80
2, 2739, Note_on_c, 0, 49, 80
2, 2744, Note_on_c, 0, 47, 0
2, 2794, Note_on_c, 0, 49, 0
2, 2800, Note_on_c, 0, 45, 80
2, 2852, Note_on_c, 0, 45, 0
2, 2856, Note_on_c, 0, 64, 0
2, 2872, Note_on_c, 0, 54, 80
2, 2872, Note_on_c, 0, 62, 80
2, 2876, Note_on_c, 0, 61, 0
2, 2930, Note_on_c, 0, 61, 80
2, 2989, Note_on_c, 0, 59, 80
2, 2992, Note_on_c, 0, 61, 0
2, 3051, Note_on_c, 0, 57, 80
2, 3052, Note_on_c, 0, 59, 0
2, 3106, Note_on_c, 0, 57, 0
2, 3106, Note_on_c, 0, 59, 80
2, 3132, Note_on_c, 0, 54, 0
2, 3164, Note_on_c, 0, 57, 80
2, 3224, Note_on_c, 0, 56, 80
2, 3228, Note_on_c, 0, 57, 0
2, 3278, Note_on_c, 0, 56, 0
2, 3284, Note_on_c, 0, 54, 80
2, 3337, Note_on_c, 0, 54, 0
2, 3340, Note_on_c, 0, 56, 80
2, 3412, Note_on_c, 0, 66, 80
2, 3415, Note_on_c, 0, 62, 0
2, 3471, Note_on_c, 0, 64, 80
2, 3474, Note_on_c, 0, 66, 0
2, 3526, Note_on_c, 0, 62, 80
2, 3534, Note_on_c, 0, 64, 0
2, 3563, Note_on_c, 0, 62, 0
2, 3586, Note_on_c, 0, 56, 0
2, 3587, Note_on_c, 0, 59, 0
2, 3588, Note_on_c, 0, 57, 80
2, 3590, Note_on_c, 0, 61, 80
2, 3645, Note_on_c, 0, 59, 80
2, 3653, Note_on_c, 0, 57, 0
2, 3703, Note_on_c, 0, 59, 0
2, 3708, Note_on_c, 0, 45, 80
2, 3715, Note_on_c, 0, 57, 80
2, 3760, Note_on_c, 0, 56, 80
2, 3763, Note_on_c, 0, 57, 0
2, 3765, Note_on_c, 0, 45, 0
2, 3802, Note_on_c, 0, 56, 0
2, 3819, Note_on_c, 0, 49, 80
2, 3833, Note_on_c, 0, 57, 80
2, 3892, Note_on_c, 0, 64, 80
2, 3893, Note_on_c, 0, 61, 0
2, 3956, Note_on_c, 0, 62, 80
2, 3961, Note_on_c, 0, 64, 0
2, 4008, Note_on_c, 0, 50, 80
2, 4011, Note_on_c, 0, 49, 0
2, 4015, Note_on_c, 0, 61, 80
2, 4017, Note_on_c, 0, 62, 0
2, 4034, Note_on_c, 0, 50, 0
2, 4072, Note_on_c, 0, 61, 0
2, 4072, Note_on_c, 0, 52, 80
2, 4074, Note_on_c, 0, 59, 80
2, 4079, Note_on_c, 0, 57, 0
2, 4104, Note_on_c, 0, 52, 0
2, 4105, Note_on_c, 0, 50, 80
2, 4133, Note_on_c, 0, 50, 0
2, 4134, Note_on_c, 0, 57, 80
2, 4135, Note_on_c, 0, 52, 80
2, 4157, Note_on_c, 0, 50, 80
2, 4159, Note_on_c, 0, 52, 0
2, 4169, Note_on_c, 0, 50, 0
2, 4171, Note_on_c, 0, 52, 80
2, 4187, Note_on_c, 0, 50, 80
2, 4195, Note_on_c, 0, 52, 0
2, 4199, Note_on_c, 0, 57, 0
2, 4201, Note_on_c, 0, 56, 80
2, 4221, Note_on_c, 0, 49, 80
2, 4223, Note_on_c, 0, 50, 0
2, 4255, Note_on_c, 0, 56, 0
2, 4259, Note_on_c, 0, 54, 80
2, 4273, Note_on_c, 0, 50, 80
2, 4279, Note_on_c, 0, 49, 0
2, 4310, Note_on_c, 0, 52, 80
2, 4312, Note_on_c, 0, 50, 0
2, 4313, Note_on_c, 0, 54, 0
2, 4316, Note_on_c, 0, 56, 80
2, 4375, Note_on_c, 0, 64, 80
2, 4376, Note_on_c, 0, 59, 0
2, 4424, Note_on_c, 0, 56, 0
2, 4428, Note_on_c, 0, 64, 0
2, 4431, Note_on_c, 0, 63, 80
2, 4487, Note_on_c, 0, 56, 80
2, 4489, Note_on_c, 0, 64, 80
2, 4493, Note_on_c, 0, 63, 0
2, 4511, Note_on_c, 0, 56, 0
2, 4548, Note_on_c, 0, 57, 80
2, 4552, Note_on_c, 0, 66, 80
2, 4554, Note_on_c, 0, 64, 0
2, 4603, Note_on_c, 0, 59, 80
2, 4605, Note_on_c, 0, 57, 0
2, 4613, Note_on_c, 0, 68, 80
2, 4614, Note_on_c, 0, 66, 0
2, 4660, Note_on_c, 0, 59, 0
2, 4667, Note_on_c, 0, 57, 80
2, 4670, Note_on_c, 0, 68, 0
2, 4672, Note_on_c, 0, 66, 80
2, 4692, Note_on_c, 0, 52, 0
2, 4719, Note_on_c, 0, 57, 0
2, 4721, Note_on_c, 0, 59, 80
2, 4727, Note_on_c, 0, 68, 80
2, 4735, Note_on_c, 0, 66, 0
2, 4745, Note_on_c, 0, 59, 0
2, 4780, Note_on_c, 0, 52, 80
2, 4784, Note_on_c, 0, 69, 80
2, 4791, Note_on_c, 0, 68, 0
2, 4819, Note_on_c, 0, 68, 80
2, 4823, Note_on_c, 0, 69, 0
2, 4839, Note_on_c, 0, 59, 80
2, 4848, Note_on_c, 0, 68, 0
2, 4854, Note_on_c, 0, 69, 80
2, 4859, Note_on_c, 0, 59, 0
2, 4873, Note_on_c, 0, 69, 0
2, 4875, Note_on_c, 0, 68, 80
2, 4895, Note_on_c, 0, 68, 0
2, 4897, Note_on_c, 0, 69, 80
2, 4906, Note_on_c, 0, 64, 80
2, 4911, Note_on_c, 0, 69, 0
2, 4912, Note_on_c, 0, 68, 80
2, 4925, Note_on_c, 0, 69, 80
2, 4937, Note_on_c, 0, 68, 0
2, 4944, Note_on_c, 0, 66, 80
2, 4945, Note_on_c, 0, 69, 0
2, 4974, Note_on_c, 0, 68, 80
2, 4975, Note_on_c, 0, 66, 0
2, 4999, Note_on_c, 0, 69, 80
2, 5004, Note_on_c, 0, 68, 0
2, 5024, Note_on_c, 0, 54, 80
2, 5035, Note_on_c, 0, 52, 0
2, 5040, Note_on_c, 0, 64, 0
2, 5090, Note_on_c, 0, 64, 80
2, 5147, Note_on_c, 0, 62, 80
2, 5149, Note_on_c, 0, 64, 0
2, 5205, Note_on_c, 0, 61, 80
2, 5207, Note_on_c, 0, 62, 0
2, 5264, Note_on_c, 0, 61, 0
2, 5266, Note_on_c, 0, 62, 80
2, 5343, Note_on_c, 0, 71, 80
2, 5351, Note_on_c, 0, 69, 0
2, 5393, Note_on_c, 0, 71, 0
2, 5400, Note_on_c, 0, 69, 80
2, 5437, Note_on_c, 0, 69, 0
2, 5461, Note_on_c, 0, 67, 80
2, 5515, Note_on_c, 0, 67, 0
2, 5521, Note_on_c, 0, 66, 80
2, 5579, Note_on_c, 0, 66, 0
2, 5579, Note_on_c, 0, 64, 80
2, 5638, Note_on_c, 0, 64, 0
2, 5640, Note_on_c, 0, 66, 80
2, 5697, Note_on_c, 0, 66, 0
2, 5699, Note_on_c, 0, 62, 80
2, 5721, Note_on_c, 0, 62, 0
2, 5754, Note_on_c, 0, 62, 0
2, 5756, Note_on_c, 0, 52, 80
2, 5757, Note_on_c, 0, 54, 0
2, 5763, Note_on_c, 0, 68, 80
2, 5819, Note_on_c, 0, 66, 80
2, 5879, Note_on_c, 0, 66, 0
2, 5882, Note_on_c, 0, 64, 80
2, 5941, Note_on_c, 0, 62, 80
2, 5945, Note_on_c, 0, 64, 0
2, 6001, Note_on_c, 0, 61, 80
2, 6004, Note_on_c, 0, 62, 0
2, 6057, Note_on_c, 0, 68, 0
2, 6058, Note_on_c, 0, 64, 80
2, 6059, Note_on_c, 0, 59, 80
2, 6060, Note_on_c, 0, 61, 0
2, 6115, Note_on_c, 0, 61, 80
2, 6117, Note_on_c, 0, 64, 0
2, 6120, Note_on_c, 0, 69, 80
2, 6121, Note_on_c, 0, 59, 0
2, 6179, Note_on_c, 0, 61, 0
2, 6180, Note_on_c, 0, 57, 80
2, 6244, Note_on_c, 0, 57, 0
2, 6246, Note_on_c, 0, 59, 80
2, 6297, Note_on_c, 0, 71, 80
2, 6303, Note_on_c, 0, 69, 0
2, 6358, Note_on_c, 0, 69, 80
2, 6360, Note_on_c, 0, 59, 0
2, 6360, Note_on_c, 0, 71, 0
2, 6360, Note_on_c, 0, 62, 80
2, 6416, Note_on_c, 0, 68, 80
2, 6418, Note_on_c, 0, 69, 0
2, 6465, Note_on_c, 0, 68, 0
2, 6474, Note_on_c, 0, 69, 80
2, 6474, Note_on_c, 0, 57, 80
2, 6477, Note_on_c, 0, 52, 0
2, 6479, Note_on_c, 0, 62, 0
2, 6530, Note_on_c, 0, 62, 80
2, 6591, Note_on_c, 0, 61, 80
2, 6593, Note_on_c, 0, 62, 0
2, 6649, Note_on_c, 0, 61, 0
2, 6649, Note_on_c, 0, 59, 80
2, 6675, Note_on_c, 0, 59, 0
2, 6711, Note_on_c, 0, 61, 80
2, 6770, Note_on_c, 0, 69, 0
2, 6770, Note_on_c, 0, 71, 80
2, 6832, Note_on_c, 0, 69, 80
2, 6841, Note_on_c, 0, 71, 0
2, 6890, Note_on_c, 0, 69, 0
2, 6890, Note_on_c, 0, 67, 80
2, 6938, Note_on_c, 0, 67, 0
2, 6943, Note_on_c, 0, 61, 0
2, 6945, Note_on_c, 0, 62, 80
2, 6947, Note_on_c, 0, 66, 80
2, 6952, Note_on_c, 0, 69, 80
2, 7008, Note_on_c, 0, 66, 0
2, 7009, Note_on_c, 0, 64, 80
2, 7066, Note_on_c, 0, 66, 80
2, 7067, Note_on_c, 0, 64, 0
2, 7122, Note_on_c, 0, 66, 0
2, 7126, Note_on_c, 0, 62, 80
2, 7172, Note_on_c, 0, 62, 0
2, 7176, Note_on_c, 0, 62, 0
2, 7178, Note_on_c, 0, 64, 80
2, 7183, Note_on_c, 0, 69, 0
2, 7186, Note_on_c, 0, 64, 80
2, 7188, Note_on_c, 0, 73, 80
2, 7231, Note_on_c, 0, 64, 0
2, 7232, Note_on_c, 0, 64, 0
2, 7239, Note_on_c, 0, 62, 80
2, 7300, Note_on_c, 0, 61, 80
2, 7301, Note_on_c, 0, 62, 0
2, 7355, Note_on_c, 0, 59, 80
2, 7356, Note_on_c, 0, 57, 0
2, 7357, Note_on_c, 0, 61, 0
2, 7412, Note_on_c, 0, 59, 0
2, 7413, Note_on_c, 0, 57, 80
2, 7475, Note_on_c, 0, 59, 80
2, 7515, Note_on_c, 0, 57, 0
2, 7535, Note_on_c, 0, 57, 80
2, 7539, Note_on_c, 0, 59, 0
2, 7545, Note_on_c, 0, 64, 80
2, 7589, Note_on_c, 0, 73, 0
2, 7594, Note_on_c, 0, 57, 0
2, 7594, Note_on_c, 0, 55, 80
2, 7611, Note_on_c, 0, 73, 80
2, 7616, Note_on_c, 0, 55, 0
2, 7641, Note_on_c, 0, 74, 80
2, 7644, Note_on_c, 0, 73, 0
2, 7655, Note_on_c, 0, 54, 80
2, 7671, Note_on_c, 0, 74, 0
2, 7672, Note_on_c, 0, 76, 80
2, 7674, Note_on_c, 0, 64, 0
2, 7674, Note_on_c, 0, 69, 80
2, 7704, Note_on_c, 0, 74, 80
2, 7709, Note_on_c, 0, 76, 0
2, 7719, Note_on_c, 0, 52, 80
2, 7720, Note_on_c, 0, 54, 0
2, 7734, Note_on_c, 0, 74, 0
2, 7737, Note_on_c, 0, 76, 80
2, 7758, Note_on_c, 0, 74, 80
2, 7767, Note_on_c, 0, 76, 0
2, 7772, Note_on_c, 0, 74, 0
2, 7777, Note_on_c, 0, 76, 80
2, 7781, Note_on_c, 0, 54, 80
2, 7784, Note_on_c, 0, 52, 0
2, 7789, Note_on_c, 0, 74, 80
2, 7799, Note_on_c, 0, 76, 0
2, 7837, Note_on_c, 0, 54, 0
2, 7840, Note_on_c, 0, 50, 80
2, 7843, Note_on_c, 0, 73, 80
2, 7844, Note_on_c, 0, 74, 0
2, 7877, Note_on_c, 0, 74, 80
2, 7878, Note_on_c, 0, 73, 0
2, 7886, Note_on_c, 0, 50, 0
2, 7896, Note_on_c, 0, 57, 80
2, 7897, Note_on_c, 0, 69, 0
2, 7908, Note_on_c, 0, 74, 0
2, 7909, Note_on_c, 0, 76, 80
2, 7972, Note_on_c, 0, 74, 80
2, 8024, Note_on_c, 0, 74, 0
2, 8034, Note_on_c, 0, 73, 80
2, 8084, Note_on_c, 0, 73, 0
2, 8089, Note_on_c, 0, 71, 80
2, 8153, Note_on_c, 0, 71, 0
2, 8155, Note_on_c, 0, 73, 80
2, 8158, Note_on_c, 0, 57, 0
2, 8209, Note_on_c, 0, 54, 80
2, 8271, Note_on_c, 0, 52, 80
2, 8274, Note_on_c, 0, 54, 0
2, 8275, Note_on_c, 0, 68, 80
2, 8276, Note_on_c, 0, 73, 0
2, 8318, Note_on_c, 0, 76, 0
2, 8334, Note_on_c, 0, 50, 80
2, 8335, Note_on_c, 0, 52, 0
2, 8389, Note_on_c, 0, 50, 0
2, 8396, Note_on_c, 0, 49, 80
2, 8399, Note_on_c, 0, 76, 80
2, 8400, Note_on_c, 0, 69, 80
2, 8401, Note_on_c, 0, 68, 0
2, 8460, Note_on_c, 0, 49, 0
2, 8461, Note_on_c, 0, 47, 80
2, 8521, Note_on_c, 0, 49, 80
2, 8526, Note_on_c, 0, 47, 0
2, 8580, Note_on_c, 0, 49, 0
2, 8582, Note_on_c, 0, 45, 80
2, 8627, Note_on_c, 0, 76, 0
2, 8639, Note_on_c, 0, 69, 0
2, 8643, Note_on_c, 0, 50, 80
2, 8644, Note_on_c, 0, 45, 0
2, 8646, Note_on_c, 0, 78, 80
2, 8701, Note_on_c, 0, 69, 80
2, 8753, Note_on_c, 0, 71, 80
2, 8765, Note_on_c, 0, 69, 0
2, 8812, Note_on_c, 0, 73, 80
2, 8813, Note_on_c, 0, 71, 0
2, 8872, Note_on_c, 0, 73, 0
2, 8876, Note_on_c, 0, 74, 80
2, 8881, Note_on_c, 0, 50, 0
2, 8929, Note_on_c, 0, 47, 80
2, 8931, Note_on_c, 0, 74, 0
2, 8932, Note_on_c, 0, 73, 80
2, 8987, Note_on_c, 0, 73, 0
2, 8988, Note_on_c, 0, 45, 80
2, 8989, Note_on_c, 0, 47, 0
2, 8993, Note_on_c, 0, 74, 80
2, 9052, Note_on_c, 0, 76, 80
2, 9053, Note_on_c, 0, 43, 80
2, 9055, Note_on_c, 0, 45, 0
2, 9065, Note_on_c, 0, 78, 0
2, 9081, Note_on_c, 0, 76, 0
2, 9112, Note_on_c, 0, 43, 0
2, 9113, Note_on_c, 0, 42, 80
2, 9114, Note_on_c, 0, 78, 80
2, 9170, Note_on_c, 0, 42, 0
2, 9174, Note_on_c, 0, 40, 80
2, 9236, Note_on_c, 0, 42, 80
2, 9240, Note_on_c, 0, 40, 0
2, 9288, Note_on_c, 0, 42, 0
2, 9291, Note_on_c, 0, 79, 80
2, 9293, Note_on_c, 0, 78, 0
2, 9293, Note_on_c, 0, 38, 80
2, 9336, Note_on_c, 0, 79, 0
2, 9347, Note_on_c, 0, 38, 0
2, 9350, Note_on_c, 0, 45, 80
2, 9351, Note_on_c, 0, 76, 80
2, 9365, Note_on_c, 0, 74, 0
2, 9406, Note_on_c, 0, 74, 80
2, 9468, Note_on_c, 0, 74, 0
2, 9469, Note_on_c, 0, 73, 80
2, 9525, Note_on_c, 0, 71, 80
2, 9530, Note_on_c, 0, 73, 0
2, 9556, Note_on_c, 0, 71, 0
2, 9593, Note_on_c, 0, 73, 80
2, 9599, Note_on_c, 0, 45, 0
2, 9648, Note_on_c, 0, 44, 80
2, 9707, Note_on_c, 0, 44, 0
2, 9710, Note_on_c, 0, 45, 80
2, 9713, Note_on_c, 0, 73, 0
2, 9713, Note_on_c, 0, 71, 80
2, 9749, Note_on_c, 0, 71, 0
2, 9761, Note_on_c, 0, 76, 0
2, 9766, Note_on_c, 0, 69, 80
2, 9769, Note_on_c, 0, 47, 80
2, 9771, Note_on_c, 0, 45, 0
2, 9789, Note_on_c, 0, 69, 0
2, 9826, Note_on_c, 0, 49, 80
2, 9830, Note_on_c, 0, 47, 0
2, 9833, Note_on_c, 0, 68, 80
2, 9836, Note_on_c, 0, 76, 80
2, 9884, Note_on_c, 0, 49, 0
2, 9886, Note_on_c, 0, 50, 80
2, 9943, Note_on_c, 0, 49, 80
2, 9946, Note_on_c, 0, 50, 0
2, 9997, Note_on_c, 0, 49, 0
2, 10002, Note_on_c, 0, 52, 80
2, 10059, Note_on_c, 0, 42, 80
2, 10061, Note_on_c, 0, 52, 0
2, 10075, Note_on_c, 0, 69, 80
2, 10076, Note_on_c, 0, 68, 0
2, 10076, Note_on_c, 0, 76, 0
2, 10143, Note_on_c, 0, 68, 80
2, 10181, Note_on_c, 0, 68, 0
2, 10201, Note_on_c, 0, 66, 80
2, 10255, Note_on_c, 0, 66, 0
2, 10257, Note_on_c, 0, 65, 80
2, 10299, Note_on_c, 0, 65, 0
2, 10302, Note_on_c, 0, 42, 0
2, 10319, Note_on_c, 0, 66, 80
2, 10355, Note_on_c, 0, 66, 0
2, 10373, Note_on_c, 0, 61, 80
2, 10432, Note_on_c, 0, 61, 0
2, 10433, Note_on_c, 0, 62, 80
2, 10434, Note_on_c, 0, 59, 80
2, 10492, Note_on_c, 0, 57, 80
2, 10494, Note_on_c, 0, 59, 0
2, 10548, Note_on_c, 0, 57, 0
2, 10549, Note_on_c, 0, 71, 80
2, 10550, Note_on_c, 0, 69, 0
2, 10550, Note_on_c, 0, 56, 80
2, 10613, Note_on_c, 0, 56, 0
2, 10613, Note_on_c, 0, 54, 80
2, 10633, Note_on_c, 0, 62, 0
2, 10666, Note_on_c, 0, 64, 80
2, 10675, Note_on_c, 0, 54, 0
2, 10675, Note_on_c, 0, 56, 80
2, 10725, Note_on_c, 0, 56, 0
2, 10727, Note_on_c, 0, 52, 80
2, 10757, Note_on_c, 0, 52, 0
2, 10786, Note_on_c, 0, 57, 80
2, 10792, Note_on_c, 0, 73, 80
2, 10794, Note_on_c, 0, 71, 0
2, 10808, Note_on_c, 0, 64, 0
2, 10852, Note_on_c, 0, 64, 80
2, 10908, Note_on_c, 0, 64, 0
2, 10911, Note_on_c, 0, 66, 80
2, 10963, Note_on_c, 0, 66, 0
2, 10964, Note_on_c, 0, 68, 80
2, 11017, Note_on_c, 0, 68, 0
2, 11026, Note_on_c, 0, 57, 0
2, 11031, Note_on_c, 0, 69, 80
2, 11079, Note_on_c, 0, 59, 80
2, 11141, Note_on_c, 0, 57, 80
2, 11142, Note_on_c, 0, 69, 0
2, 11145, Note_on_c, 0, 59, 0
2, 11146, Note_on_c, 0, 64, 80
2, 11194, Note_on_c, 0, 57, 0
2, 11197, Note_on_c, 0, 56, 80
2, 11251, Note_on_c, 0, 56, 0
2, 11255, Note_on_c, 0, 54, 80
2, 11259, Note_on_c, 0, 73, 0
2, 11265, Note_on_c, 0, 64, 0
2, 11266, Note_on_c, 0, 69, 80
2, 11271, Note_on_c, 0, 74, 80
2, 11312, Note_on_c, 0, 54, 0
2, 11317, Note_on_c, 0, 52, 80
2, 11319, Note_on_c, 0, 69, 0
2, 11326, Note_on_c, 0, 73, 80
2, 11373, Note_on_c, 0, 52, 0
2, 11376, Note_on_c, 0, 54, 80
2, 11381, Note_on_c, 0, 73, 0
2, 11385, Note_on_c, 0, 71, 80
2, 11430, Note_on_c, 0, 54, 0
2, 11432, Note_on_c, 0, 50, 80
2, 11437, Note_on_c, 0, 71, 0
2, 11439, Note_on_c, 0, 69, 80
2, 11467, Note_on_c, 0, 69, 0
2, 11494, Note_on_c, 0, 52, 80
2, 11495, Note_on_c, 0, 50, 0
2, 11502, Note_on_c, 0, 68, 80
2, 11511, Note_on_c, 0, 74, 0
2, 11555, Note_on_c, 0, 52, 0
2, 11556, Note_on_c, 0, 54, 80
2, 11560, Note_on_c, 0, 74, 80
2, 11615, Note_on_c, 0, 54, 0
2, 11615, Note_on_c, 0, 52, 80
2, 11624, Note_on_c, 0, 73, 80
2, 11625, Note_on_c, 0, 74, 0
2, 11672, Note_on_c, 0, 52, 0
2, 11675, Note_on_c, 0, 50, 80
2, 11678, Note_on_c, 0, 73, 0
2, 11683, Note_on_c, 0, 71, 80
2, 11703, Note_on_c, 0, 50, 0
2, 11735, Note_on_c, 0, 71, 0
2, 11735, Note_on_c, 0, 49, 80
2, 11741, Note_on_c, 0, 76, 80
2, 11746, Note_on_c, 0, 68, 0
2, 11792, Note_on_c, 0, 49, 0
2, 11795, Note_on_c, 0, 47, 80
2, 11803, Note_on_c, 0, 68, 80
2, 11850, Note_on_c, 0, 47, 0
2, 11855, Note_on_c, 0, 49, 80
2, 11860, Note_on_c, 0, 68, 0
2, 11864, Note_on_c, 0, 69, 80
2, 11907, Note_on_c, 0, 49, 0
2, 11913, Note_on_c, 0, 45, 80
2, 11913, Note_on_c, 0, 78, 80
2, 11919, Note_on_c, 0, 76, 0
2, 11945, Note_on_c, 0, 78, 0
2, 11969, Note_on_c, 0, 45, 0
2, 11971, Note_on_c, 0, 52, 80
2, 11977, Note_on_c, 0, 76, 80
2, 12031, Note_on_c, 0, 52, 0
2, 12033, Note_on_c, 0, 76, 0
2, 12034, Note_on_c, 0, 73, 80
2, 12055, Note_on_c, 0, 73, 0
2, 12087, Note_on_c, 0, 40, 80
2, 12096, Note_on_c, 0, 68, 80
2, 12096, Note_on_c, 0, 74, 80
2, 12098, Note_on_c, 0, 69, 0
2, 12142, Note_on_c, 0, 40, 0
2, 12153, Note_on_c, 0, 74, 0
2, 12155, Note_on_c, 0, 71, 80
2, 12175, Note_on_c, 0, 71, 0
2, 12208, Note_on_c, 0, 68, 0
2, 12213, Note_on_c, 0, 45, 80
2, 12215, Note_on_c, 0, 69, 80
2, 12272, Note_on_c, 0, 66, 80
2, 12333, Note_on_c, 0, 66, 0
2, 12334, Note_on_c, 0, 64, 80
2, 12369, Note_on_c, 0, 64, 0
2, 12390, Note_on_c, 0, 62, 80
2, 12416, Note_on_c, 0, 62, 0
2, 12441, Note_on_c, 0, 45, 0
2, 12454, Note_on_c, 0, 61, 80
2, 12502, Note_on_c, 0, 47, 80
2, 12557, Note_on_c, 0, 61, 0
2, 12564, Note_on_c, 0, 45, 80
2, 12566, Note_on_c, 0, 47, 0
2, 12579, Note_on_c, 0, 64, 80
2, 12620, Note_on_c, 0, 43, 80
2, 12626, Note_on_c, 0, 45, 0
2, 12644, Note_on_c, 0, 64, 0
2, 12650, Note_on_c, 0, 43, 0
2, 12685, Note_on_c, 0, 42, 80
2, 12696, Note_on_c, 0, 57, 80
2, 12746, Note_on_c, 0, 42, 0
2, 12748, Note_on_c, 0, 40, 80
2, 12791, Note_on_c, 0, 57, 0
2, 12804, Note_on_c, 0, 40, 0
2, 12808, Note_on_c, 0, 42, 80
2, 12823, Note_on_c, 0, 66, 80
2, 12827, Note_on_c, 0, 62, 80
2, 12863, Note_on_c, 0, 42, 0
2, 12866, Note_on_c, 0, 38, 80
2, 12896, Note_on_c, 0, 38, 0
2, 12944, Note_on_c, 0, 45, 80
2, 12959, Note_on_c, 0, 66, 0
2, 13011, Note_on_c, 0, 66, 80
2, 13066, Note_on_c, 0, 66, 0
2, 13069, Note_on_c, 0, 64, 80
2, 13071, Note_on_c, 0, 62, 0
2, 13126, Note_on_c, 0, 64, 0
2, 13126, Note_on_c, 0, 62, 80
2, 13167, Note_on_c, 0, 62, 0
2, 13188, Note_on_c, 0, 64, 80
2, 13247, Note_on_c, 0, 62, 80
2, 13299, Note_on_c, 0, 62, 0
2, 13307, Note_on_c, 0, 61, 80
2, 13337, Note_on_c, 0, 45, 0
2, 13351, Note_on_c, 0, 61, 0
2, 13357, Note_on_c, 0, 59, 80
2, 13417, Note_on_c, 0, 59, 0
2, 13425, Note_on_c, 0, 61, 80
2, 13482, Note_on_c, 0, 59, 80
2, 13540, Note_on_c, 0, 59, 0
2, 13542, Note_on_c, 0, 57, 80
2, 13587, Note_on_c, 0, 69, 0
2, 13592, Note_on_c, 0, 57, 0
2, 13594, Note_on_c, 0, 64, 0
2, 13597, Note_on_c, 0, 61, 0
2, 13597, Note_on_c, 0, 56, 80
2, 13650, Note_on_c, 0, 56, 0
2, 13653, Note_on_c, 0, 57, 80
2, 13699, Note_on_c, 0, 57, 0
2, 13728, Note_on_c, 0, 50, 80
2, 13735, Note_on_c, 0, 56, 80
2, 13787, Note_on_c, 0, 50, 0
2, 13788, Note_on_c, 0, 49, 80
2, 13794, Note_on_c, 0, 57, 80
2, 13796, Note_on_c, 0, 56, 0
2, 13848, Note_on_c, 0, 47, 80
2, 13851, Note_on_c, 0, 49, 0
2, 13853, Note_on_c, 0, 59, 80
2, 13856, Note_on_c, 0, 57, 0
2, 13891, Note_on_c, 0, 47, 0
2, 13897, Note_on_c, 0, 59, 0
2, 13899, Note_on_c, 0, 45, 80
2, 13911, Note_on_c, 0, 61, 80
2, 13967, Note_on_c, 0, 61, 0
2, 13968, Note_on_c, 0, 62, 80
2, 14020, Note_on_c, 0, 62, 0
2, 14023, Note_on_c, 0, 61, 80
2, 14042, Note_on_c, 0, 45, 0
2, 14077, Note_on_c, 0, 61, 0
2, 14078, Note_on_c, 0, 62, 80
2, 14123, Note_on_c, 0, 62, 0
2, 14136, Note_on_c, 0, 64, 80
2, 14170, Note_on_c, 0, 62, 80
2, 14176, Note_on_c, 0, 64, 0
2, 14203, Note_on_c, 0, 62, 0
2, 14204, Note_on_c, 0, 64, 80
2, 14225, Note_on_c, 0, 62, 80
2, 14231, Note_on_c, 0, 64, 0
2, 14245, Note_on_c, 0, 62, 0
2, 14250, Note_on_c, 0, 64, 80
2, 14266, Note_on_c, 0, 62, 80
2, 14304, Note_on_c, 0, 64, 0
2, 14310, Note_on_c, 0, 61, 80
2, 14313, Note_on_c, 0, 62, 0
2, 14341, Note_on_c, 0, 62, 80
2, 14342, Note_on_c, 0, 61, 0
2, 14383, Note_on_c, 0, 62, 0
2, 14388, Note_on_c, 0, 64, 80
2, 14500, Note_on_c, 0, 52, 80
2, 14559, Note_on_c, 0, 52, 0
2, 14608, Note_on_c, 0, 64, 0
2, 14619, Note_on_c, 0, 54, 80
2, 14682, Note_on_c, 0, 56, 80
2, 14683, Note_on_c, 0, 54, 0
2, 14735, Note_on_c, 0, 56, 0
2, 14736, Note_on_c, 0, 54, 80
2, 14795, Note_on_c, 0, 56, 80
2, 14803, Note_on_c, 0, 54, 0
2, 14843, Note_on_c, 0, 56, 0
2, 14852, Note_on_c, 0, 57, 80
2, 14852, Note_on_c, 0, 64, 80
2, 14892, Note_on_c, 0, 56, 80
2, 14894, Note_on_c, 0, 57, 0
2, 14920, Note_on_c, 0, 56, 0
2, 14924, Note_on_c, 0, 57, 80
2, 14944, Note_on_c, 0, 56, 80
2, 14948, Note_on_c, 0, 57, 0
2, 14957, Note_on_c, 0, 56, 0
2, 14959, Note_on_c, 0, 57, 80
2, 14975, Note_on_c, 0, 56, 80
2, 14980, Note_on_c, 0, 57, 0
2, 14995, Note_on_c, 0, 57, 80
2, 15004, Note_on_c, 0, 57, 0
2, 15020, Note_on_c, 0, 54, 80
2, 15021, Note_on_c, 0, 56, 0
2, 15056, Note_on_c, 0, 56, 80
2, 15060, Note_on_c, 0, 54, 0
2, 15085, Note_on_c, 0, 56, 0
2, 15096, Note_on_c, 0, 57, 80
2, 15104, Note_on_c, 0, 66, 80
2, 15123, Note_on_c, 0, 64, 0
2, 15191, Note_on_c, 0, 64, 80
2, 15250, Note_on_c, 0, 64, 0
2, 15251, Note_on_c, 0, 62, 80
2, 15307, Note_on_c, 0, 61, 80
2, 15311, Note_on_c, 0, 62, 0
2, 15372, Note_on_c, 0, 62, 80
2, 15373, Note_on_c, 0, 57, 0
2, 15373, Note_on_c, 0, 61, 0
2, 15429, Note_on_c, 0, 59, 80
2, 15492, Note_on_c, 0, 57, 80
2, 15494, Note_on_c, 0, 59, 0
2, 15546, Note_on_c, 0, 55, 80
2, 15551, Note_on_c, 0, 57, 0
2, 15609, Note_on_c, 0, 54, 80
2, 15611, Note_on_c, 0, 55, 0
2, 15674, Note_on_c, 0, 52, 80
2, 15675, Note_on_c, 0, 54, 0
2, 15728, Note_on_c, 0, 54, 80
2, 15735, Note_on_c, 0, 52, 0
2, 15789, Note_on_c, 0, 54, 0
2, 15790, Note_on_c, 0, 50, 80
2, 15814, Note_on_c, 0, 66, 0
2, 15835, Note_on_c, 0, 64, 80
2, 15840, Note_on_c, 0, 62, 0
2, 15848, Note_on_c, 0, 50, 0
2, 15849, Note_on_c, 0, 57, 80
2, 15905, Note_on_c, 0, 62, 80
2, 15953, Note_on_c, 0, 61, 80
2, 15963, Note_on_c, 0, 62, 0
2, 16009, Note_on_c, 0, 59, 80
2, 16010, Note_on_c, 0, 61, 0
2, 16064, Note_on_c, 0, 57, 0
2, 16070, Note_on_c, 0, 59, 0
2, 16076, Note_on_c, 0, 61, 80
2, 16124, Note_on_c, 0, 54, 80
2, 16184, Note_on_c, 0, 52, 80
2, 16186, Note_on_c, 0, 54, 0
2, 16243, Note_on_c, 0, 50, 80
2, 16246, Note_on_c, 0, 52, 0
2, 16278, Note_on_c, 0, 50, 0
2, 16301, Note_on_c, 0, 49, 80
2, 16357, Note_on_c, 0, 49, 0
2, 16358, Note_on_c, 0, 47, 80
2, 16415, Note_on_c, 0, 49, 80
2, 16419, Note_on_c, 0, 47, 0
2, 16468, Note_on_c, 0, 49, 0
2, 16473, Note_on_c, 0, 45, 80
2, 16529, Note_on_c, 0, 54, 80
2, 16531, Note_on_c, 0, 45, 0
2, 16535, Note_on_c, 0, 64, 0
2, 16542, Note_on_c, 0, 62, 80
2, 16546, Note_on_c, 0, 61, 0
2, 16603, Note_on_c, 0, 61, 80
2, 16664, Note_on_c, 0, 59, 80
2, 16668, Note_on_c, 0, 61, 0
2, 16722, Note_on_c, 0, 57, 80
2, 16727, Note_on_c, 0, 59, 0
2, 16779, Note_on_c, 0, 57, 0
2, 16782, Note_on_c, 0, 59, 80
2, 16785, Note_on_c, 0, 54, 0
2, 16837, Note_on_c, 0, 57, 80
2, 16900, Note_on_c, 0, 56, 80
2, 16902, Note_on_c, 0, 57, 0
2, 16959, Note_on_c, 0, 54, 80
2, 16961, Note_on_c, 0, 56, 0
2, 16992, Note_on_c, 0, 54, 0
2, 17015, Note_on_c, 0, 56, 80
2, 17084, Note_on_c, 0, 66, 80
2, 17085, Note_on_c, 0, 62, 0
2, 17141, Note_on_c, 0, 64, 80
2, 17144, Note_on_c, 0, 66, 0
2, 17178, Note_on_c, 0, 56, 0
2, 17200, Note_on_c, 0, 62, 80
2, 17209, Note_on_c, 0, 64, 0
2, 17239, Note_on_c, 0, 62, 0
2, 17249, Note_on_c, 0, 57, 80
2, 17266, Note_on_c, 0, 61, 80
2, 17273, Note_on_c, 0, 59, 0
2, 17311, Note_on_c, 0, 57, 0
2, 17325, Note_on_c, 0, 59, 80
2, 17379, Note_on_c, 0, 45, 80
2, 17389, Note_on_c, 0, 57, 80
2, 17390, Note_on_c, 0, 59, 0
2, 17439, Note_on_c, 0, 45, 0
2, 17448, Note_on_c, 0, 56, 80
2, 17450, Note_on_c, 0, 57, 0
2, 17466, Note_on_c, 0, 56, 0
2, 17500, Note_on_c, 0, 49, 80
2, 17510, Note_on_c, 0, 57, 80
2, 17567, Note_on_c, 0, 64, 80
2, 17568, Note_on_c, 0, 61, 0
2, 17625, Note_on_c, 0, 64, 0
2, 17625, Note_on_c, 0, 62, 80
2, 17682, Note_on_c, 0, 50, 80
2, 17683, Note_on_c, 0, 49, 0
2, 17683, Note_on_c, 0, 61, 80
2, 17684, Note_on_c, 0, 62, 0
2, 17705, Note_on_c, 0, 50, 0
2, 17740, Note_on_c, 0, 61, 0
2, 17742, Note_on_c, 0, 59, 80
2, 17747, Note_on_c, 0, 52, 80
2, 17752, Note_on_c, 0, 57, 0
2, 17779, Note_on_c, 0, 50, 80
2, 17780, Note_on_c, 0, 52, 0
2, 17805, Note_on_c, 0, 57, 80
2, 17806, Note_on_c, 0, 50, 0
2, 17810, Note_on_c, 0, 52, 80
2, 17830, Note_on_c, 0, 50, 80
2, 17836, Note_on_c, 0, 52, 0
2, 17845, Note_on_c, 0, 52, 80
2, 17846, Note_on_c, 0, 50, 0
2, 17855, Note_on_c, 0, 57, 0
2, 17859, Note_on_c, 0, 50, 80
2, 17865, Note_on_c, 0, 52, 0
2, 17867, Note_on_c, 0, 56, 80
2, 17907, Note_on_c, 0, 49, 80
2, 17911, Note_on_c, 0, 50, 0
2, 17917, Note_on_c, 0, 56, 0
2, 17920, Note_on_c, 0, 54, 80
2, 17941, Note_on_c, 0, 54, 0
2, 17944, Note_on_c, 0, 50, 80
2, 17951, Note_on_c, 0, 49, 0
2, 17975, Note_on_c, 0, 50, 0
2, 17977, Note_on_c, 0, 52, 80
2, 17984, Note_on_c, 0, 56, 80
2, 18043, Note_on_c, 0, 64, 80
2, 18044, Note_on_c, 0, 59, 0
2, 18099, Note_on_c, 0, 64, 0
2, 18103, Note_on_c, 0, 63, 80
2, 18152, Note_on_c, 0, 56, 80
2, 18161, Note_on_c, 0, 64, 80
2, 18171, Note_on_c, 0, 63, 0
2, 18177, Note_on_c, 0, 56, 0
2, 18178, Note_on_c, 0, 56, 0
2, 18217, Note_on_c, 0, 57, 80
2, 18227, Note_on_c, 0, 66, 80
2, 18228, Note_on_c, 0, 64, 0
2, 18270, Note_on_c, 0, 57, 0
2, 18271, Note_on_c, 0, 59, 80
2, 18281, Note_on_c, 0, 52, 0
2, 18289, Note_on_c, 0, 68, 80
2, 18291, Note_on_c, 0, 66, 0
2, 18334, Note_on_c, 0, 57, 80
2, 18336, Note_on_c, 0, 59, 0
2, 18345, Note_on_c, 0, 68, 0
2, 18347, Note_on_c, 0, 66, 80
2, 18391, Note_on_c, 0, 57, 0
2, 18393, Note_on_c, 0, 59, 80
2, 18401, Note_on_c, 0, 68, 80
2, 18404, Note_on_c, 0, 66, 0
2, 18415, Note_on_c, 0, 59, 0
2, 18451, Note_on_c, 0, 52, 80
2, 18460, Note_on_c, 0, 69, 80
2, 18506, Note_on_c, 0, 69, 0
2, 18506, Note_on_c, 0, 59, 80
2, 18531, Note_on_c, 0, 68, 0
2, 18535, Note_on_c, 0, 59, 0
2, 18535, Note_on_c, 0, 69, 80
2, 18558, Note_on_c, 0, 69, 0
2, 18561, Note_on_c, 0, 68, 80
2, 18573, Note_on_c, 0, 64, 80
2, 18582, Note_on_c, 0, 68, 0
2, 18584, Note_on_c, 0, 69, 80
2, 18601, Note_on_c, 0, 68, 80
2, 18602, Note_on_c, 0, 69, 0
2, 18615, Note_on_c, 0, 69, 80
2, 18620, Note_on_c, 0, 68, 0
2, 18631, Note_on_c, 0, 69, 0
2, 18635, Note_on_c, 0, 68, 80
2, 18642, Note_on_c, 0, 66, 80
2, 18647, Note_on_c, 0, 68, 0
2, 18665, Note_on_c, 0, 68, 80
2, 18666, Note_on_c, 0, 66, 0
2, 18690, Note_on_c, 0, 52, 0
2, 18694, Note_on_c, 0, 54, 80
2, 18702, Note_on_c, 0, 64, 0
2, 18707, Note_on_c, 0, 69, 80
2, 18708, Note_on_c, 0, 68, 0
2, 18757, Note_on_c, 0, 64, 80
2, 18820, Note_on_c, 0, 62, 80
2, 18825, Note_on_c, 0, 64, 0
2, 18876, Note_on_c, 0, 61, 80
2, 18877, Note_on_c, 0, 62, 0
2, 18931, Note_on_c, 0, 61, 0
2, 18938, Note_on_c, 0, 62, 80
2, 18989, Note_on_c, 0, 69, 0
2, 19018, Note_on_c, 0, 71, 80
2, 19071, Note_on_c, 0, 71, 0
2, 19074, Note_on_c, 0, 69, 80
2, 19136, Note_on_c, 0, 67, 80
2, 19144, Note_on_c, 0, 69, 0
2, 19192, Note_on_c, 0, 67, 0
2, 19194, Note_on_c, 0, 66, 80
2, 19250, Note_on_c, 0, 66, 0
2, 19250, Note_on_c, 0, 64, 80
2, 19310, Note_on_c, 0, 64, 0
2, 19312, Note_on_c, 0, 66, 80
2, 19373, Note_on_c, 0, 66, 0
2, 19375, Note_on_c, 0, 62, 80
2, 19407, Note_on_c, 0, 54, 0
2, 19420, Note_on_c, 0, 62, 0
2, 19420, Note_on_c, 0, 52, 80
2, 19430, Note_on_c, 0, 68, 80
2, 19440, Note_on_c, 0, 62, 0
2, 19489, Note_on_c, 0, 66, 80
2, 19547, Note_on_c, 0, 64, 80
2, 19559, Note_on_c, 0, 66, 0
2, 19603, Note_on_c, 0, 64, 0
2, 19603, Note_on_c, 0, 62, 80
2, 19659, Note_on_c, 0, 61, 80
2, 19665, Note_on_c, 0, 62, 0
2, 19716, Note_on_c, 0, 61, 0
2, 19716, Note_on_c, 0, 59, 80
2, 19730, Note_on_c, 0, 68, 0
2, 19732, Note_on_c, 0, 64, 80
2, 19773, Note_on_c, 0, 61, 80
2, 19775, Note_on_c, 0, 64, 0
2, 19778, Note_on_c, 0, 59, 0
2, 19794, Note_on_c, 0, 69, 80
2, 19832, Note_on_c, 0, 57, 80
2, 19833, Note_on_c, 0, 61, 0
2, 19903, Note_on_c, 0, 57, 0
2, 19907, Note_on_c, 0, 59, 80
2, 19972, Note_on_c, 0, 71, 80
2, 19977, Note_on_c, 0, 69, 0
2, 20030, Note_on_c, 0, 59, 0
2, 20031, Note_on_c, 0, 62, 80
2, 20034, Note_on_c, 0, 69, 80
2, 20035, Note_on_c, 0, 71, 0
2, 20087, Note_on_c, 0, 68, 80
2, 20089, Note_on_c, 0, 69, 0
2, 20140, Note_on_c, 0, 68, 0
2, 20142, Note_on_c, 0, 57, 80
2, 20149, Note_on_c, 0, 69, 80
2, 20153, Note_on_c, 0, 62, 0
2, 20154, Note_on_c, 0, 52, 0
2, 20206, Note_on_c, 0, 62, 80
2, 20264, Note_on_c, 0, 61, 80
2, 20265, Note_on_c, 0, 62, 0
2, 20317, Note_on_c, 0, 61, 0
2, 20319, Note_on_c, 0, 59, 80
2, 20380, Note_on_c, 0, 59, 0
2, 20381, Note_on_c, 0, 61, 80
2, 20404, Note_on_c, 0, 69, 0
2, 20446, Note_on_c, 0, 71, 80
2, 20503, Note_on_c, 0, 69, 80
2, 20510, Note_on_c, 0, 71, 0
2, 20560, Note_on_c, 0, 67, 80
2, 20565, Note_on_c, 0, 69, 0
2, 20582, Note_on_c, 0, 67, 0
2, 20613, Note_on_c, 0, 61, 0
2, 20618, Note_on_c, 0, 62, 80
2, 20620, Note_on_c, 0, 66, 80
2, 20621, Note_on_c, 0, 69, 80
2, 20681, Note_on_c, 0, 66, 0
2, 20681, Note_on_c, 0, 64, 80
2, 20739, Note_on_c, 0, 64, 0
2, 20742, Note_on_c, 0, 66, 80
2, 20791, Note_on_c, 0, 66, 0
2, 20794, Note_on_c, 0, 62, 80
2, 20804, Note_on_c, 0, 69, 0
2, 20812, Note_on_c, 0, 62, 0
2, 20838, Note_on_c, 0, 62, 0
2, 20859, Note_on_c, 0, 64, 80
2, 20860, Note_on_c, 0, 73, 80
2, 20897, Note_on_c, 0, 64, 0
2, 20918, Note_on_c, 0, 62, 80
2, 20975, Note_on_c, 0, 62, 0
2, 20979, Note_on_c, 0, 61, 80
2, 21035, Note_on_c, 0, 59, 80
2, 21038, Note_on_c, 0, 57, 0
2, 21039, Note_on_c, 0, 61, 0
2, 21092, Note_on_c, 0, 57, 80
2, 21094, Note_on_c, 0, 59, 0
2, 21145, Note_on_c, 0, 73, 0
2, 21154, Note_on_c, 0, 59, 80
2, 21206, Note_on_c, 0, 57, 0
2, 21214, Note_on_c, 0, 64, 80
2, 21216, Note_on_c, 0, 59, 0
2, 21217, Note_on_c, 0, 57, 80
2, 21270, Note_on_c, 0, 55, 80
2, 21271, Note_on_c, 0, 57, 0
2, 21286, Note_on_c, 0, 73, 80
2, 21316, Note_on_c, 0, 74, 80
2, 21321, Note_on_c, 0, 73, 0
2, 21335, Note_on_c, 0, 54, 80
2, 21337, Note_on_c, 0, 64, 0
2, 21337, Note_on_c, 0, 55, 0
2, 21346, Note_on_c, 0, 69, 80
2, 21348, Note_on_c, 0, 74, 0
2, 21349, Note_on_c, 0, 76, 80
2, 21382, Note_on_c, 0, 76, 0
2, 21385, Note_on_c, 0, 74, 80
2, 21393, Note_on_c, 0, 52, 80
2, 21395, Note_on_c, 0, 54, 0
2, 21412, Note_on_c, 0, 74, 0
2, 21415, Note_on_c, 0, 76, 80
2, 21440, Note_on_c, 0, 74, 80
2, 21444, Note_on_c, 0, 76, 0
2, 21452, Note_on_c, 0, 54, 80
2, 21457, Note_on_c, 0, 74, 0
2, 21459, Note_on_c, 0, 52, 0
2, 21459, Note_on_c, 0, 76, 80
2, 21473, Note_on_c, 0, 74, 80
2, 21485, Note_on_c, 0, 76, 0
2, 21505, Note_on_c, 0, 74, 0
2, 21508, Note_on_c, 0, 73, 80
2, 21516, Note_on_c, 0, 50, 80
2, 21517, Note_on_c, 0, 54, 0
2, 21543, Note_on_c, 0, 73, 0
2, 21550, Note_on_c, 0, 74, 80
2, 21558, Note_on_c, 0, 69, 0
2, 21573, Note_on_c, 0, 57, 80
2, 21576, Note_on_c, 0, 50, 0
2, 21592, Note_on_c, 0, 74, 0
2, 21594, Note_on_c, 0, 76, 80
2, 21655, Note_on_c, 0, 74, 80
2, 21704, Note_on_c, 0, 74, 0
2, 21715, Note_on_c, 0, 73, 80
2, 21767, Note_on_c, 0, 73, 0
2, 21771, Note_on_c, 0, 71, 80
2, 21833, Note_on_c, 0, 71, 0
2, 21834, Note_on_c, 0, 57, 0
2, 21836, Note_on_c, 0, 73, 80
2, 21890, Note_on_c, 0, 54, 80
2, 21953, Note_on_c, 0, 52, 80
2, 21955, Note_on_c, 0, 73, 0
2, 21955, Note_on_c, 0, 54, 0
2, 21956, Note_on_c, 0, 68, 80
2, 22012, Note_on_c, 0, 76, 0
2, 22015, Note_on_c, 0, 50, 80
2, 22021, Note_on_c, 0, 52, 0
2, 22027, Note_on_c, 0, 68, 0
2, 22071, Note_on_c, 0, 50, 0
2, 22073, Note_on_c, 0, 49, 80
2, 22081, Note_on_c, 0, 76, 80
2, 22082, Note_on_c, 0, 69, 80
2, 22137, Note_on_c, 0, 47, 80
2, 22138, Note_on_c, 0, 49, 0
2, 22200, Note_on_c, 0, 49, 80
2, 22207, Note_on_c, 0, 47, 0
2, 22260, Note_on_c, 0, 49, 0
2, 22263, Note_on_c, 0, 45, 80
2, 22316, Note_on_c, 0, 78, 80
2, 22317, Note_on_c, 0, 76, 0
2, 22321, Note_on_c, 0, 50, 80
2, 22328, Note_on_c, 0, 69, 0
2, 22330, Note_on_c, 0, 45, 0
2, 22380, Note_on_c, 0, 69, 80
2, 22437, Note_on_c, 0, 69, 0
2, 22438, Note_on_c, 0, 71, 80
2, 22499, Note_on_c, 0, 71, 0
2, 22499, Note_on_c, 0, 73, 80
2, 22543, Note_on_c, 0, 73, 0
2, 22559, Note_on_c, 0, 74, 80
2, 22584, Note_on_c, 0, 50, 0
2, 22602, Note_on_c, 0, 74, 0
2, 22615, Note_on_c, 0, 73, 80
2, 22617, Note_on_c, 0, 47, 80
2, 22646, Note_on_c, 0, 73, 0
2, 22673, Note_on_c, 0, 74, 80
2, 22674, Note_on_c, 0, 47, 0
2, 22676, Note_on_c, 0, 45, 80
2, 22726, Note_on_c, 0, 78, 0
2, 22726, Note_on_c, 0, 76, 80
2, 22735, Note_on_c, 0, 43, 80
2, 22737, Note_on_c, 0, 45, 0
2, 22758, Note_on_c, 0, 76, 0
2, 22787, Note_on_c, 0, 42, 80
2, 22790, Note_on_c, 0, 43, 0
2, 22791, Note_on_c, 0, 78, 80
2, 22840, Note_on_c, 0, 42, 0
2, 22844, Note_on_c, 0, 40, 80
2, 22903, Note_on_c, 0, 42, 80
2, 22909, Note_on_c, 0, 40, 0
2, 22958, Note_on_c, 0, 78, 0
2, 22959, Note_on_c, 0, 79, 80
2, 22962, Note_on_c, 0, 42, 0
2, 22964, Note_on_c, 0, 38, 80
2, 22985, Note_on_c, 0, 79, 0
2, 23005, Note_on_c, 0, 38, 0
2, 23020, Note_on_c, 0, 45, 80
2, 23024, Note_on_c, 0, 76, 80
2, 23033, Note_on_c, 0, 74, 0
2, 23085, Note_on_c, 0, 74, 80
2, 23141, Note_on_c, 0, 74, 0
2, 23143, Note_on_c, 0, 73, 80
2, 23198, Note_on_c, 0, 71, 80
2, 23203, Note_on_c, 0, 73, 0
2, 23227, Note_on_c, 0, 71, 0
2, 23257, Note_on_c, 0, 73, 80
2, 23261, Note_on_c, 0, 45, 0
2, 23306, Note_on_c, 0, 44, 80
2, 23368, Note_on_c, 0, 44, 0
2, 23369, Note_on_c, 0, 45, 80
2, 23379, Note_on_c, 0, 71, 80
2, 23380, Note_on_c, 0, 73, 0
2, 23405, Note_on_c, 0, 76, 0
2, 23427, Note_on_c, 0, 47, 80
2, 23435, Note_on_c, 0, 45, 0
2, 23435, Note_on_c, 0, 69, 80
2, 23443, Note_on_c, 0, 71, 0
2, 23472, Note_on_c, 0, 69, 0
2, 23486, Note_on_c, 0, 47, 0
2, 23486, Note_on_c, 0, 49, 80
2, 23498, Note_on_c, 0, 68, 80
2, 23499, Note_on_c, 0, 76, 80
2, 23544, Note_on_c, 0, 49, 0
2, 23545, Note_on_c, 0, 50, 80
2, 23603, Note_on_c, 0, 49, 80
2, 23607, Note_on_c, 0, 50, 0
2, 23657, Note_on_c, 0, 49, 0
2, 23662, Note_on_c, 0, 52, 80
2, 23715, Note_on_c, 0, 52, 0
2, 23732, Note_on_c, 0, 69, 80
2, 23736, Note_on_c, 0, 42, 80
2, 23748, Note_on_c, 0, 76, 0
2, 23749, Note_on_c, 0, 68, 0
2, 23818, Note_on_c, 0, 68, 80
2, 23870, Note_on_c, 0, 68, 0
2, 23875, Note_on_c, 0, 66, 80
2, 23925, Note_on_c, 0, 66, 0
2, 23928, Note_on_c, 0, 65, 80
2, 23956, Note_on_c, 0, 65, 0
2, 23986, Note_on_c, 0, 42, 0
2, 23989, Note_on_c, 0, 66, 80
2, 24038, Note_on_c, 0, 61, 80
2, 24043, Note_on_c, 0, 66, 0
2, 24098, Note_on_c, 0, 61, 0
2, 24098, Note_on_c, 0, 59, 80
2, 24109, Note_on_c, 0, 62, 80
2, 24157, Note_on_c, 0, 57, 80
2, 24158, Note_on_c, 0, 59, 0
2, 24204, Note_on_c, 0, 57, 0
2, 24213, Note_on_c, 0, 69, 0
2, 24215, Note_on_c, 0, 56, 80
2, 24234, Note_on_c, 0, 71, 80
2, 24279, Note_on_c, 0, 56, 0
2, 24280, Note_on_c, 0, 54, 80
2, 24306, Note_on_c, 0, 62, 0
2, 24341, Note_on_c, 0, 56, 80
2, 24345, Note_on_c, 0, 54, 0
2, 24349, Note_on_c, 0, 64, 80
2, 24400, Note_on_c, 0, 56, 0
2, 24403, Note_on_c, 0, 52, 80
2, 24439, Note_on_c, 0, 52, 0
2, 24464, Note_on_c, 0, 57, 80
2, 24471, Note_on_c, 0, 73, 80
2, 24474, Note_on_c, 0, 71, 0
2, 24479, Note_on_c, 0, 64, 0
2, 24531, Note_on_c, 0, 64, 80
2, 24586, Note_on_c, 0, 64, 0
2, 24589, Note_on_c, 0, 66, 80
2, 24642, Note_on_c, 0, 66, 0
2, 24643, Note_on_c, 0, 68, 80
2, 24701, Note_on_c, 0, 68, 0
2, 24707, Note_on_c, 0, 57, 0
2, 24710, Note_on_c, 0, 69, 80
2, 24770, Note_on_c, 0, 59, 80
2, 24825, Note_on_c, 0, 64, 80
2, 24827, Note_on_c, 0, 57, 80
2, 24831, Note_on_c, 0, 59, 0
2, 24833, Note_on_c, 0, 69, 0
2, 24882, Note_on_c, 0, 57, 0
2, 24883, Note_on_c, 0, 56, 80
2, 24937, Note_on_c, 0, 56, 0
2, 24938, Note_on_c, 0, 54, 80
2, 24941, Note_on_c, 0, 73, 0
2, 24943, Note_on_c, 0, 64, 0
2, 24943, Note_on_c, 0, 74, 80
2, 24943, Note_on_c, 0, 69, 80
2, 24994, Note_on_c, 0, 54, 0
2, 24998, Note_on_c, 0, 52, 80
2, 25000, Note_on_c, 0, 73, 80
2, 25008, Note_on_c, 0, 69, 0
2, 25057, Note_on_c, 0, 73, 0
2, 25058, Note_on_c, 0, 71, 80
2, 25059, Note_on_c, 0, 52, 0
2, 25060, Note_on_c, 0, 54, 80
2, 25114, Note_on_c, 0, 54, 0
2, 25116, Note_on_c, 0, 69, 80
2, 25116, Note_on_c, 0, 50, 80
2, 25117, Note_on_c, 0, 71, 0
2, 25166, Note_on_c, 0, 69, 0
2, 25174, Note_on_c, 0, 50, 0
2, 25175, Note_on_c, 0, 68, 80
2, 25177, Note_on_c, 0, 52, 80
2, 25183, Note_on_c, 0, 74, 0
2, 25208, Note_on_c, 0, 52, 0
2, 25233, Note_on_c, 0, 74, 80
2, 25237, Note_on_c, 0, 54, 80
2, 25291, Note_on_c, 0, 52, 80
2, 25293, Note_on_c, 0, 54, 0
2, 25298, Note_on_c, 0, 73, 80
2, 25304, Note_on_c, 0, 74, 0
2, 25350, Note_on_c, 0, 50, 80
2, 25351, Note_on_c, 0, 71, 80
2, 25352, Note_on_c, 0, 73, 0
2, 25353, Note_on_c, 0, 52, 0
2, 25377, Note_on_c, 0, 50, 0
2, 25407, Note_on_c, 0, 49, 80
2, 25411, Note_on_c, 0, 71, 0
2, 25417, Note_on_c, 0, 76, 80
2, 25427, Note_on_c, 0, 68, 0
2, 25470, Note_on_c, 0, 49, 0
2, 25473, Note_on_c, 0, 47, 80
2, 25480, Note_on_c, 0, 68, 80
2, 25530, Note_on_c, 0, 49, 80
2, 25535, Note_on_c, 0, 68, 0
2, 25536, Note_on_c, 0, 47, 0
2, 25540, Note_on_c, 0, 69, 80
2, 25581, Note_on_c, 0, 49, 0
2, 25584, Note_on_c, 0, 45, 80
2, 25590, Note_on_c, 0, 78, 80
2, 25597, Note_on_c, 0, 76, 0
2, 25618, Note_on_c, 0, 78, 0
2, 25640, Note_on_c, 0, 45, 0
2, 25644, Note_on_c, 0, 52, 80
2, 25652, Note_on_c, 0, 76, 80
2, 25708, Note_on_c, 0, 52, 0
2, 25712, Note_on_c, 0, 73, 80
2, 25719, Note_on_c, 0, 76, 0
2, 25765, Note_on_c, 0, 40, 80
2, 25766, Note_on_c, 0, 73, 0
2, 25770, Note_on_c, 0, 74, 80
2, 25772, Note_on_c, 0, 68, 80
2, 25778, Note_on_c, 0, 69, 0
2, 25822, Note_on_c, 0, 40, 0
2, 25825, Note_on_c, 0, 74, 0
2, 25827, Note_on_c, 0, 71, 80
2, 25844, Note_on_c, 0, 71, 0
2, 25880, Note_on_c, 0, 68, 0
2, 25889, Note_on_c, 0, 45, 80
2, 25891, Note_on_c, 0, 69, 80
2, 25955, Note_on_c, 0, 66, 80
2, 26018, Note_on_c, 0, 66, 0
2, 26019, Note_on_c, 0, 64, 80
2, 26069, Note_on_c, 0, 64, 0
2, 26071, Note_on_c, 0, 62, 80
2, 26100, Note_on_c, 0, 62, 0
2, 26138, Note_on_c, 0, 61, 80
2, 26144, Note_on_c, 0, 45, 0
2, 26188, Note_on_c, 0, 47, 80
2, 26211, Note_on_c, 0, 61, 0
2, 26251, Note_on_c, 0, 45, 80
2, 26252, Note_on_c, 0, 47, 0
2, 26260, Note_on_c, 0, 64, 80
2, 26311, Note_on_c, 0, 43, 80
2, 26317, Note_on_c, 0, 45, 0
2, 26342, Note_on_c, 0, 43, 0
2, 26374, Note_on_c, 0, 42, 80
2, 26379, Note_on_c, 0, 64, 0
2, 26384, Note_on_c, 0, 57, 80
2, 26434, Note_on_c, 0, 42, 0
2, 26437, Note_on_c, 0, 40, 80
2, 26493, Note_on_c, 0, 42, 80
2, 26499, Note_on_c, 0, 40, 0
2, 26502, Note_on_c, 0, 57, 0
2, 26504, Note_on_c, 0, 66, 80
2, 26507, Note_on_c, 0, 62, 80
2, 26556, Note_on_c, 0, 42, 0
2, 26559, Note_on_c, 0, 38, 80
2, 26603, Note_on_c, 0, 38, 0
2, 26619, Note_on_c, 0, 45, 80
2, 26627, Note_on_c, 0, 66, 0
2, 26688, Note_on_c, 0, 66, 80
2, 26741, Note_on_c, 0, 62, 0
2, 26743, Note_on_c, 0, 66, 0
2, 26745, Note_on_c, 0, 64, 80
2, 26806, Note_on_c, 0, 64, 0
2, 26806, Note_on_c, 0, 62, 80
2, 26844, Note_on_c, 0, 62, 0
2, 26862, Note_on_c, 0, 64, 80
2, 26922, Note_on_c, 0, 62, 80
2, 26971, Note_on_c, 0, 62, 0
2, 26982, Note_on_c, 0, 61, 80
2, 27036, Note_on_c, 0, 61, 0
2, 27039, Note_on_c, 0, 59, 80
2, 27053, Note_on_c, 0, 45, 0
2, 27104, Note_on_c, 0, 64, 0
2, 27106, Note_on_c, 0, 61, 80
2, 27109, Note_on_c, 0, 59, 0
2, 27110, Note_on_c, 0, 69, 0
2, 27159, Note_on_c, 0, 59, 80
2, 27204, Note_on_c, 0, 59, 0
2, 27219, Note_on_c, 0, 57, 80
2, 27265, Note_on_c, 0, 57, 0
2, 27278, Note_on_c, 0, 56, 80
2, 27335, Note_on_c, 0, 56, 0
2, 27345, Note_on_c, 0, 57, 80
2, 27347, Note_on_c, 0, 61, 0
2, 27388, Note_on_c, 0, 57, 0
2, 27416, Note_on_c, 0, 64, 80
2, 27469, Note_on_c, 0, 45, 80
2, 27470, Note_on_c, 0, 66, 80
2, 27473, Note_on_c, 0, 64, 0
2, 27529, Note_on_c, 0, 68, 80
2, 27533, Note_on_c, 0, 45, 0
2, 27536, Note_on_c, 0, 66, 0
2, 27589, Note_on_c, 0, 69, 80
2, 27592, Note_on_c, 0, 68, 0
2, 27649, Note_on_c, 0, 68, 80
2, 27651, Note_on_c, 0, 69, 0
2, 27708, Note_on_c, 0, 69, 80
2, 27709, Note_on_c, 0, 68, 0
2, 27767, Note_on_c, 0, 71, 80
2, 27776, Note_on_c, 0, 69, 0
2, 27819, Note_on_c, 0, 71, 0
2, 27828, Note_on_c, 0, 73, 80
2, 27888, Note_on_c, 0, 73, 0
2, 27888, Note_on_c, 0, 71, 80
2, 27947, Note_on_c, 0, 74, 80
2, 27955, Note_on_c, 0, 71, 0
2, 28003, Note_on_c, 0, 73, 80
2, 28013, Note_on_c, 0, 74, 0
2, 28027, Note_on_c, 0, 73, 0
2, 28068, Note_on_c, 0, 73, 80
2, 28135, Note_on_c, 0, 52, 80
2, 28193, Note_on_c, 0, 54, 80
2, 28203, Note_on_c, 0, 52, 0
2, 28249, Note_on_c, 0, 56, 80
2, 28254, Note_on_c, 0, 54, 0
2, 28308, Note_on_c, 0, 57, 80
2, 28313, Note_on_c, 0, 56, 0
2, 28367, Note_on_c, 0, 61, 80
2, 28425, Note_on_c, 0, 63, 80
2, 28434, Note_on_c, 0, 61, 0
2, 28479, Note_on_c, 0, 63, 0
2, 28482, Note_on_c, 0, 64, 80
2, 28504, Note_on_c, 0, 73, 0
2, 28539, Note_on_c, 0, 64, 0
2, 28543, Note_on_c, 0, 66, 80
2, 28547, Note_on_c, 0, 73, 80
2, 28607, Note_on_c, 0, 66, 0
2, 28609, Note_on_c, 0, 68, 80
2, 28666, Note_on_c, 0, 68, 0
2, 28668, Note_on_c, 0, 66, 80
2, 28717, Note_on_c, 0, 66, 0
2, 28722, Note_on_c, 0, 69, 80
2, 28778, Note_on_c, 0, 69, 0
2, 28784, Note_on_c, 0, 71, 80
2, 28785, Note_on_c, 0, 63, 80
2, 28789, Note_on_c, 0, 73, 0
2, 28846, Note_on_c, 0, 63, 0
2, 28848, Note_on_c, 0, 59, 80
2, 28904, Note_on_c, 0, 61, 80
2, 28909, Note_on_c, 0, 59, 0
2, 28958, Note_on_c, 0, 63, 80
2, 28963, Note_on_c, 0, 61, 0
2, 28998, Note_on_c, 0, 57, 0
2, 29016, Note_on_c, 0, 63, 0
2, 29021, Note_on_c, 0, 64, 80
2, 29023, Note_on_c, 0, 56, 80
2, 29067, Note_on_c, 0, 56, 0
2, 29078, Note_on_c, 0, 44, 80
2, 29135, Note_on_c, 0, 44, 0
2, 29138, Note_on_c, 0, 45, 80
2, 29196, Note_on_c, 0, 45, 0
2, 29197, Note_on_c, 0, 47, 80
2, 29252, Note_on_c, 0, 68, 80
2, 29253, Note_on_c, 0, 71, 0
2, 29253, Note_on_c, 0, 49, 80
2, 29255, Note_on_c, 0, 47, 0
2, 29313, Note_on_c, 0, 51, 80
2, 29315, Note_on_c, 0, 49, 0
2, 29372, Note_on_c, 0, 49, 80
2, 29373, Note_on_c, 0, 51, 0
2, 29423, Note_on_c, 0, 49, 0
2, 29429, Note_on_c, 0, 52, 80
2, 29461, Note_on_c, 0, 52, 0
2, 29492, Note_on_c, 0, 42, 80
2, 29506, Note_on_c, 0, 69, 80
2, 29512, Note_on_c, 0, 68, 0
2, 29527, Note_on_c, 0, 64, 0
2, 29569, Note_on_c, 0, 63, 80
2, 29572, Note_on_c, 0, 42, 0
2, 29626, Note_on_c, 0, 54, 80
2, 29629, Note_on_c, 0, 64, 80
2, 29630, Note_on_c, 0, 63, 0
2, 29689, Note_on_c, 0, 66, 80
2, 29691, Note_on_c, 0, 64, 0
2, 29702, Note_on_c, 0, 54, 0
2, 29747, Note_on_c, 0, 69, 0
2, 29747, Note_on_c, 0, 56, 80
2, 29748, Note_on_c, 0, 59, 80
2, 29750, Note_on_c, 0, 66, 0
2, 29809, Note_on_c, 0, 69, 80
2, 29861, Note_on_c, 0, 59, 0
2, 29867, Note_on_c, 0, 69, 0
2, 29867, Note_on_c, 0, 64, 80
2, 29867, Note_on_c, 0, 68, 80
2, 29920, Note_on_c, 0, 56, 0
2, 29924, Note_on_c, 0, 66, 80
2, 29924, Note_on_c, 0, 57, 80
2, 29925, Note_on_c, 0, 68, 0
2, 29947, Note_on_c, 0, 66, 0
2, 29960, Note_on_c, 0, 57, 0
2, 29989, Note_on_c, 0, 59, 80
2, 29991, Note_on_c, 0, 68, 80
2, 30005, Note_on_c, 0, 68, 0
2, 30005, Note_on_c, 0, 66, 80
2, 30006, Note_on_c, 0, 64, 0
2, 30020, Note_on_c, 0, 68, 80
2, 30023, Note_on_c, 0, 66, 0
2, 30032, Note_on_c, 0, 68, 0
2, 30034, Note_on_c, 0, 66, 80
2, 30042, Note_on_c, 0, 68, 80
2, 30046, Note_on_c, 0, 64, 80
2, 30054, Note_on_c, 0, 66, 0
2, 30056, Note_on_c, 0, 59, 0
2, 30061, Note_on_c, 0, 66, 80
2, 30066, Note_on_c, 0, 68, 0
2, 30091, Note_on_c, 0, 64, 0
2, 30111, Note_on_c, 0, 47, 80
2, 30112, Note_on_c, 0, 63, 80
2, 30167, Note_on_c, 0, 64, 80
2, 30168, Note_on_c, 0, 66, 0
2, 30186, Note_on_c, 0, 64, 0
2, 30193, Note_on_c, 0, 47, 0
2, 30230, Note_on_c, 0, 52, 80
2, 30236, Note_on_c, 0, 64, 80
2, 30238, Note_on_c, 0, 63, 0
2, 30297, Note_on_c, 0, 62, 80
2, 30356, Note_on_c, 0, 62, 0
2, 30356, Note_on_c, 0, 61, 80
2, 30409, Note_on_c, 0, 61, 0
2, 30414, Note_on_c, 0, 59, 80
2, 30480, Note_on_c, 0, 59, 0
2, 30480, Note_on_c, 0, 61, 80
2, 30532, Note_on_c, 0, 57, 80
2, 30537, Note_on_c, 0, 52, 0
2, 30593, Note_on_c, 0, 56, 80
2, 30595, Note_on_c, 0, 57, 0
2, 30603, Note_on_c, 0, 59, 80
2, 30646, Note_on_c, 0, 57, 80
2, 30647, Note_on_c, 0, 54, 80
2, 30655, Note_on_c, 0, 56, 0
2, 30659, Note_on_c, 0, 59, 0
2, 30683, Note_on_c, 0, 57, 0
2, 30687, Note_on_c, 0, 54, 0
2, 30704, Note_on_c, 0, 76, 80
2, 30705, Note_on_c, 0, 61, 0
2, 30707, Note_on_c, 0, 52, 80
2, 30708, Note_on_c, 0, 56, 80
2, 30710, Note_on_c, 0, 64, 0
2, 30764, Note_on_c, 0, 50, 80
2, 30770, Note_on_c, 0, 52, 0
2, 30820, Note_on_c, 0, 52, 80
2, 30821, Note_on_c, 0, 50, 0
2, 30827, Note_on_c, 0, 68, 80
2, 30877, Note_on_c, 0, 49, 80
2, 30880, Note_on_c, 0, 52, 0
2, 30898, Note_on_c, 0, 76, 0
2, 30934, Note_on_c, 0, 49, 0
2, 30934, Note_on_c, 0, 54, 80
2, 30938, Note_on_c, 0, 56, 0
2, 30947, Note_on_c, 0, 76, 80
2, 31005, Note_on_c, 0, 68, 0
2, 31007, Note_on_c, 0, 74, 80
2, 31069, Note_on_c, 0, 73, 80
2, 31070, Note_on_c, 0, 74, 0
2, 31123, Note_on_c, 0, 73, 0
2, 31124, Note_on_c, 0, 71, 80
2, 31154, Note_on_c, 0, 71, 0
2, 31193, Note_on_c, 0, 54, 0
2, 31194, Note_on_c, 0, 73, 80
2, 31246, Note_on_c, 0, 61, 80
2, 31306, Note_on_c, 0, 59, 80
2, 31307, Note_on_c, 0, 61, 0
2, 31364, Note_on_c, 0, 57, 80
2, 31369, Note_on_c, 0, 59, 0
2, 31419, Note_on_c, 0, 56, 80
2, 31423, Note_on_c, 0, 57, 0
2, 31430, Note_on_c, 0, 76, 0
2, 31432, Note_on_c, 0, 74, 80
2, 31485, Note_on_c, 0, 56, 0
2, 31486, Note_on_c, 0, 54, 80
2, 31545, Note_on_c, 0, 56, 80
2, 31552, Note_on_c, 0, 54, 0
2, 31553, Note_on_c, 0, 71, 80
2, 31562, Note_on_c, 0, 73, 0
2, 31602, Note_on_c, 0, 56, 0
2, 31603, Note_on_c, 0, 52, 80
2, 31661, Note_on_c, 0, 52, 0
2, 31665, Note_on_c, 0, 57, 80
2, 31682, Note_on_c, 0, 73, 80
2, 31686, Note_on_c, 0, 74, 0
2, 31737, Note_on_c, 0, 64, 80
2, 31743, Note_on_c, 0, 71, 0
2, 31798, Note_on_c, 0, 64, 0
2, 31799, Note_on_c, 0, 66, 80
2, 31858, Note_on_c, 0, 68, 80
2, 31864, Note_on_c, 0, 66, 0
2, 31912, Note_on_c, 0, 73, 0
2, 31915, Note_on_c, 0, 68, 0
2, 31916, Note_on_c, 0, 69, 80
2, 31923, Note_on_c, 0, 57, 0
2, 31972, Note_on_c, 0, 73, 80
2, 31975, Note_on_c, 0, 45, 80
2, 32031, Note_on_c, 0, 73, 0
2, 32032, Note_on_c, 0, 47, 80
2, 32032, Note_on_c, 0, 74, 80
2, 32043, Note_on_c, 0, 45, 0
2, 32086, Note_on_c, 0, 49, 80
2, 32090, Note_on_c, 0, 76, 80
2, 32091, Note_on_c, 0, 74, 0
2, 32093, Note_on_c, 0, 47, 0
2, 32134, Note_on_c, 0, 49, 0
2, 32139, Note_on_c, 0, 76, 0
2, 32143, Note_on_c, 0, 50, 80
2, 32154, Note_on_c, 0, 78, 80
2, 32199, Note_on_c, 0, 69, 0
2, 32204, Note_on_c, 0, 52, 80
2, 32207, Note_on_c, 0, 50, 0
2, 32261, Note_on_c, 0, 50, 80
2, 32266, Note_on_c, 0, 52, 0
2, 32268, Note_on_c, 0, 74, 80
2, 32318, Note_on_c, 0, 54, 80
2, 32319, Note_on_c, 0, 50, 0
2, 32353, Note_on_c, 0, 54, 0
2, 32381, Note_on_c, 0, 43, 80
2, 32383, Note_on_c, 0, 78, 0
2, 32385, Note_on_c, 0, 76, 80
2, 32394, Note_on_c, 0, 74, 0
2, 32443, Note_on_c, 0, 74, 80
2, 32505, Note_on_c, 0, 73, 80
2, 32508, Note_on_c, 0, 74, 0
2, 32565, Note_on_c, 0, 71, 80
2, 32566, Note_on_c, 0, 73, 0
2, 32624, Note_on_c, 0, 73, 80
2, 32625, Note_on_c, 0, 43, 0
2, 32627, Note_on_c, 0, 76, 0
2, 32630, Note_on_c, 0, 71, 0
2, 32677, Note_on_c, 0, 50, 80
2, 32684, Note_on_c, 0, 79, 80
2, 32741, Note_on_c, 0, 52, 80
2, 32742, Note_on_c, 0, 50, 0
2, 32743, Note_on_c, 0, 78, 80
2, 32749, Note_on_c, 0, 79, 0
2, 32795, Note_on_c, 0, 78, 0
2, 32798, Note_on_c, 0, 54, 80
2, 32800, Note_on_c, 0, 76, 80
2, 32807, Note_on_c, 0, 52, 0
2, 32822, Note_on_c, 0, 76, 0
2, 32858, Note_on_c, 0, 55, 80
2, 32864, Note_on_c, 0, 54, 0
2, 32865, Note_on_c, 0, 74, 80
2, 32914, Note_on_c, 0, 55, 0
2, 32914, Note_on_c, 0, 57, 80
2, 32960, Note_on_c, 0, 73, 0
2, 32970, Note_on_c, 0, 55, 80
2, 32973, Note_on_c, 0, 57, 0
2, 32990, Note_on_c, 0, 71, 80
2, 33037, Note_on_c, 0, 55, 0
2, 33038, Note_on_c, 0, 59, 80
2, 33102, Note_on_c, 0, 53, 80
2, 33108, Note_on_c, 0, 73, 80
2, 33109, Note_on_c, 0, 59, 0
2, 33112, Note_on_c, 0, 74, 0
2, 33171, Note_on_c, 0, 69, 80
2, 33176, Note_on_c, 0, 71, 0
2, 33176, Note_on_c, 0, 53, 0
2, 33226, Note_on_c, 0, 68, 80
2, 33228, Note_on_c, 0, 69, 0
2, 33232, Note_on_c, 0, 59, 80
2, 33282, Note_on_c, 0, 66, 80
2, 33284, Note_on_c, 0, 68, 0
2, 33345, Note_on_c, 0, 65, 80
2, 33363, Note_on_c, 0, 66, 0
2, 33370, Note_on_c, 0, 59, 0
2, 33397, Note_on_c, 0, 65, 0
2, 33408, Note_on_c, 0, 62, 80
2, 33468, Note_on_c, 0, 61, 80
2, 33469, Note_on_c, 0, 62, 0
2, 33525, Note_on_c, 0, 59, 80
2, 33526, Note_on_c, 0, 61, 0
2, 33547, Note_on_c, 0, 73, 0
2, 33581, Note_on_c, 0, 59, 0
2, 33581, Note_on_c, 0, 78, 80
2, 33593, Note_on_c, 0, 57, 80
2, 33646, Note_on_c, 0, 56, 80
2, 33648, Note_on_c, 0, 57, 0
2, 33696, Note_on_c, 0, 56, 0
2, 33698, Note_on_c, 0, 57, 80
2, 33759, Note_on_c, 0, 54, 80
2, 33762, Note_on_c, 0, 57, 0
2, 33820, Note_on_c, 0, 56, 80
2, 33822, Note_on_c, 0, 54, 0
2, 33828, Note_on_c, 0, 76, 80
2, 33829, Note_on_c, 0, 78, 0
2, 33882, Note_on_c, 0, 57, 80
2, 33935, Note_on_c, 0, 57, 0
2, 33936, Note_on_c, 0, 59, 80
2, 33992, Note_on_c, 0, 59, 0
2, 33996, Note_on_c, 0, 61, 80
2, 34054, Note_on_c, 0, 61, 0
2, 34063, Note_on_c, 0, 56, 0
2, 34064, Note_on_c, 0, 64, 80
2, 34131, Note_on_c, 0, 52, 80
2, 34192, Note_on_c, 0, 54, 80
2, 34195, Note_on_c, 0, 74, 80
2, 34196, Note_on_c, 0, 76, 0
2, 34201, Note_on_c, 0, 52, 0
2, 34249, Note_on_c, 0, 56, 80
2, 34252, Note_on_c, 0, 54, 0
2, 34308, Note_on_c, 0, 56, 0
2, 34309, Note_on_c, 0, 57, 80
2, 34310, Note_on_c, 0, 73, 80
2, 34311, Note_on_c, 0, 74, 0
2, 34340, Note_on_c, 0, 64, 0
2, 34369, Note_on_c, 0, 59, 80
2, 34372, Note_on_c, 0, 57, 0
2, 34424, Note_on_c, 0, 57, 80
2, 34426, Note_on_c, 0, 59, 0
2, 34432, Note_on_c, 0, 69, 80
2, 34484, Note_on_c, 0, 61, 80
2, 34485, Note_on_c, 0, 57, 0
2, 34504, Note_on_c, 0, 61, 0
2, 34548, Note_on_c, 0, 73, 0
2, 34548, Note_on_c, 0, 71, 80
2, 34550, Note_on_c, 0, 51, 80
2, 34559, Note_on_c, 0, 69, 0
2, 34607, Note_on_c, 0, 51, 0
2, 34612, Note_on_c, 0, 69, 80
2, 34667, Note_on_c, 0, 68, 80
2, 34672, Note_on_c, 0, 69, 0
2, 34674, Note_on_c, 0, 47, 80
2, 34723, Note_on_c, 0, 47, 0
2, 34728, Note_on_c, 0, 66, 80
2, 34729, Note_on_c, 0, 68, 0
2, 34789, Note_on_c, 0, 40, 80
2, 34790, Note_on_c, 0, 66, 0
2, 34794, Note_on_c, 0, 68, 80
2, 34839, Note_on_c, 0, 40, 0
2, 34848, Note_on_c, 0, 68, 0
2, 34850, Note_on_c, 0, 52, 80
2, 34866, Note_on_c, 0, 71, 0
2, 34909, Note_on_c, 0, 70, 80
2, 34910, Note_on_c, 0, 73, 80
2, 34910, Note_on_c, 0, 50, 80
2, 34912, Note_on_c, 0, 52, 0
2, 34964, Note_on_c, 0, 49, 80
2, 34965, Note_on_c, 0, 50, 0
2, 34968, Note_on_c, 0, 73, 0
2, 35019, Note_on_c, 0, 49, 0
2, 35022, Note_on_c, 0, 47, 80
2, 35027, Note_on_c, 0, 74, 80
2, 35029, Note_on_c, 0, 70, 0
2, 35030, Note_on_c, 0, 71, 80
2, 35085, Note_on_c, 0, 47, 0
2, 35085, Note_on_c, 0, 45, 80
2, 35144, Note_on_c, 0, 45, 0
2, 35144, Note_on_c, 0, 47, 80
2, 35191, Note_on_c, 0, 76, 80
2, 35192, Note_on_c, 0, 74, 0
2, 35200, Note_on_c, 0, 47, 0
2, 35201, Note_on_c, 0, 44, 80
2, 35216, Note_on_c, 0, 76, 0
2, 35218, Note_on_c, 0, 78, 80
2, 35235, Note_on_c, 0, 44, 0
2, 35258, Note_on_c, 0, 78, 0
2, 35259, Note_on_c, 0, 76, 80
2, 35262, Note_on_c, 0, 49, 80
2, 35272, Note_on_c, 0, 71, 0
2, 35320, Note_on_c, 0, 73, 80
2, 35381, Note_on_c, 0, 71, 80
2, 35382, Note_on_c, 0, 73, 0
2, 35437, Note_on_c, 0, 69, 80
2, 35445, Note_on_c, 0, 71, 0
2, 35496, Note_on_c, 0, 69, 0
2, 35499, Note_on_c, 0, 68, 80
2, 35502, Note_on_c, 0, 49, 0
2, 35554, Note_on_c, 0, 52, 80
2, 35615, Note_on_c, 0, 71, 80
2, 35616, Note_on_c, 0, 68, 0
2, 35617, Note_on_c, 0, 54, 80
2, 35618, Note_on_c, 0, 74, 80
2, 35622, Note_on_c, 0, 52, 0
2, 35624, Note_on_c, 0, 76, 0
2, 35672, Note_on_c, 0, 56, 80
2, 35682, Note_on_c, 0, 54, 0
2, 35693, Note_on_c, 0, 56, 0
2, 35733, Note_on_c, 0, 74, 0
2, 35734, Note_on_c, 0, 73, 80
2, 35742, Note_on_c, 0, 57, 80
2, 35796, Note_on_c, 0, 59, 80
2, 35797, Note_on_c, 0, 57, 0
2, 35850, Note_on_c, 0, 57, 80
2, 35853, Note_on_c, 0, 59, 0
2, 35859, Note_on_c, 0, 64, 80
2, 35866, Note_on_c, 0, 71, 0
2, 35913, Note_on_c, 0, 61, 80
2, 35914, Note_on_c, 0, 57, 0
2, 35961, Note_on_c, 0, 61, 0
2, 35969, Note_on_c, 0, 54, 80
2, 35980, Note_on_c, 0, 73, 0
2, 35981, Note_on_c, 0, 74, 80
2, 35983, Note_on_c, 0, 69, 80
2, 35985, Note_on_c, 0, 64, 0
2, 36031, Note_on_c, 0, 54, 0
2, 36031, Note_on_c, 0, 56, 80
2, 36043, Note_on_c, 0, 74, 0
2, 36044, Note_on_c, 0, 76, 80
2, 36071, Note_on_c, 0, 78, 80
2, 36072, Note_on_c, 0, 76, 0
2, 36088, Note_on_c, 0, 76, 80
2, 36092, Note_on_c, 0, 78, 0
2, 36095, Note_on_c, 0, 56, 0
2, 36096, Note_on_c, 0, 54, 80
2, 36116, Note_on_c, 0, 74, 80
2, 36122, Note_on_c, 0, 76, 0
2, 36147, Note_on_c, 0, 73, 80
2, 36149, Note_on_c, 0, 74, 0
2, 36151, Note_on_c, 0, 54, 0
2, 36152, Note_on_c, 0, 57, 80
2, 36186, Note_on_c, 0, 73, 0
2, 36211, Note_on_c, 0, 57, 0
2, 36214, Note_on_c, 0, 50, 80
2, 36214, Note_on_c, 0, 73, 80
2, 36237, Note_on_c, 0, 73, 0
2, 36240, Note_on_c, 0, 71, 80
2, 36260, Note_on_c, 0, 71, 0
2, 36261, Note_on_c, 0, 73, 80
2, 36272, Note_on_c, 0, 52, 80
2, 36273, Note_on_c, 0, 50, 0
2, 36277, Note_on_c, 0, 73, 0
2, 36280, Note_on_c, 0, 71, 80
2, 36294, Note_on_c, 0, 73, 80
2, 36296, Note_on_c, 0, 71, 0
2, 36306, Note_on_c, 0, 73, 0
2, 36309, Note_on_c, 0, 71, 80
2, 36321, Note_on_c, 0, 73, 80
2, 36326, Note_on_c, 0, 71, 0
2, 36329, Note_on_c, 0, 50, 80
2, 36331, Note_on_c, 0, 52, 0
2, 36336, Note_on_c, 0, 73, 0
2, 36337, Note_on_c, 0, 71, 80
2, 36348, Note_on_c, 0, 73, 80
2, 36349, Note_on_c, 0, 71, 0
2, 36360, Note_on_c, 0, 73, 0
2, 36362, Note_on_c, 0, 71, 80
2, 36374, Note_on_c, 0, 73, 80
2, 36376, Note_on_c, 0, 71, 0
2, 36385, Note_on_c, 0, 73, 0
2, 36388, Note_on_c, 0, 50, 0
2, 36388, Note_on_c, 0, 54, 80
2, 36388, Note_on_c, 0, 71, 80
2, 36402, Note_on_c, 0, 73, 80
2, 36413, Note_on_c, 0, 73, 0
2, 36439, Note_on_c, 0, 69, 0
2, 36441, Note_on_c, 0, 68, 80
2, 36446, Note_on_c, 0, 47, 80
2, 36447, Note_on_c, 0, 54, 0
2, 36504, Note_on_c, 0, 52, 80
2, 36508, Note_on_c, 0, 47, 0
2, 36564, Note_on_c, 0, 50, 80
2, 36566, Note_on_c, 0, 52, 0
2, 36625, Note_on_c, 0, 50, 0
2, 36626, Note_on_c, 0, 52, 80
2, 36640, Note_on_c, 0, 68, 0
2, 36663, Note_on_c, 0, 71, 0
2, 36685, Note_on_c, 0, 49, 80
2, 36686, Note_on_c, 0, 52, 0
2, 36702, Note_on_c, 0, 69, 80
2, 36754, Note_on_c, 0, 52, 80
2, 36813, Note_on_c, 0, 54, 80
2, 36815, Note_on_c, 0, 52, 0
2, 36871, Note_on_c, 0, 56, 80
2, 36872, Note_on_c, 0, 54, 0
2, 36931, Note_on_c, 0, 56, 0
2, 36933, Note_on_c, 0, 57, 80
2, 36993, Note_on_c, 0, 54, 80
2, 36996, Note_on_c, 0, 57, 0
2, 37000, Note_on_c, 0, 59, 80
2, 37004, Note_on_c, 0, 49, 0
2, 37051, Note_on_c, 0, 52, 80
2, 37052, Note_on_c, 0, 54, 0
2, 37062, Note_on_c, 0, 59, 0
2, 37064, Note_on_c, 0, 61, 80
2, 37104, Note_on_c, 0, 62, 80
2, 37109, Note_on_c, 0, 50, 80
2, 37110, Note_on_c, 0, 52, 0
2, 37111, Note_on_c, 0, 61, 0
2, 37151, Note_on_c, 0, 62, 0
2, 37165, Note_on_c, 0, 50, 0
2, 37165, Note_on_c, 0, 49, 80
2, 37175, Note_on_c, 0, 64, 80
2, 37228, Note_on_c, 0, 47, 80
2, 37229, Note_on_c, 0, 49, 0
2, 37287, Note_on_c, 0, 49, 80
2, 37292, Note_on_c, 0, 47, 0
2, 37342, Note_on_c, 0, 49, 0
2, 37344, Note_on_c, 0, 45, 80
2, 37358, Note_on_c, 0, 69, 0
2, 37403, Note_on_c, 0, 54, 80
2, 37407, Note_on_c, 0, 45, 0
2, 37410, Note_on_c, 0, 69, 80
2, 37470, Note_on_c, 0, 64, 0
2, 37474, Note_on_c, 0, 57, 80
2, 37531, Note_on_c, 0, 59, 80
2, 37535, Note_on_c, 0, 57, 0
2, 37593, Note_on_c, 0, 61, 80
2, 37596, Note_on_c, 0, 59, 0
2, 37649, Note_on_c, 0, 61, 0
2, 37653, Note_on_c, 0, 62, 80
2, 37662, Note_on_c, 0, 54, 0
2, 37715, Note_on_c, 0, 64, 80
2, 37715, Note_on_c, 0, 59, 80
2, 37717, Note_on_c, 0, 62, 0
2, 37774, Note_on_c, 0, 57, 80
2, 37775, Note_on_c, 0, 66, 80
2, 37776, Note_on_c, 0, 59, 0
2, 37777, Note_on_c, 0, 64, 0
2, 37828, Note_on_c, 0, 55, 80
2, 37831, Note_on_c, 0, 57, 0
2, 37832, Note_on_c, 0, 66, 0
2, 37835, Note_on_c, 0, 61, 80
2, 37861, Note_on_c, 0, 61, 0
2, 37890, Note_on_c, 0, 54, 80
2, 37891, Note_on_c, 0, 55, 0
2, 37902, Note_on_c, 0, 62, 80
2, 37955, Note_on_c, 0, 52, 80
2, 37957, Note_on_c, 0, 54, 0
2, 38013, Note_on_c, 0, 54, 80
2, 38018, Note_on_c, 0, 52, 0
2, 38024, Note_on_c, 0, 66, 80
2, 38072, Note_on_c, 0, 54, 0
2, 38072, Note_on_c, 0, 50, 80
2, 38137, Note_on_c, 0, 57, 80
2, 38138, Note_on_c, 0, 66, 0
2, 38139, Note_on_c, 0, 50, 0
2, 38165, Note_on_c, 0, 62, 0
2, 38204, Note_on_c, 0, 66, 80
2, 38269, Note_on_c, 0, 64, 80
2, 38270, Note_on_c, 0, 66, 0
2, 38331, Note_on_c, 0, 62, 80
2, 38334, Note_on_c, 0, 64, 0
2, 38396, Note_on_c, 0, 62, 0
2, 38399, Note_on_c, 0, 64, 80
2, 38459, Note_on_c, 0, 62, 80
2, 38518, Note_on_c, 0, 61, 80
2, 38519, Note_on_c, 0, 62, 0
2, 38573, Note_on_c, 0, 61, 0
2, 38577, Note_on_c, 0, 59, 80
2, 38642, Note_on_c, 0, 59, 0
2, 38642, Note_on_c, 0, 61, 80
2, 38677, Note_on_c, 0, 69, 0
2, 38701, Note_on_c, 0, 76, 80
2, 38716, Note_on_c, 0, 61, 0
2, 38750, Note_on_c, 0, 64, 0
2, 38759, Note_on_c, 0, 68, 80
2, 38765, Note_on_c, 0, 76, 0
2, 38807, Note_on_c, 0, 57, 0
2, 38815, Note_on_c, 0, 74, 80
2, 38818, Note_on_c, 0, 68, 0
2, 38851, Note_on_c, 0, 74, 0
2, 38876, Note_on_c, 0, 57, 80
2, 38882, Note_on_c, 0, 73, 80
2, 38939, Note_on_c, 0, 68, 80
2, 38976, Note_on_c, 0, 68, 0
2, 39005, Note_on_c, 0, 69, 80
2, 39064, Note_on_c, 0, 64, 80
2, 39112, Note_on_c, 0, 64, 0
2, 39122, Note_on_c, 0, 61, 80
2, 39124, Note_on_c, 0, 57, 0
2, 39133, Note_on_c, 0, 69, 0
2, 39174, Note_on_c, 0, 61, 0
2, 39177, Note_on_c, 0, 57, 80
2, 39236, Note_on_c, 0, 64, 80
2, 39237, Note_on_c, 0, 57, 0
2, 39283, Note_on_c, 0, 64, 0
2, 39294, Note_on_c, 0, 56, 80
2, 39335, Note_on_c, 0, 56, 0
2, 39340, Control_c, 0, 7, 127
2, 39355, Note_on_c, 0, 57, 80
2, 39355, Program_c, 0, 79
2, 39360, Control_c, 0, 7, 76
2, 39414, Note_on_c, 0, 52, 80
2, 39473, Note_on_c, 0, 49, 80
2, 39481, Note_on_c, 0, 52, 0
2, 39496, Note_on_c, 0, 73, 0
2, 39534, Note_on_c, 0, 52, 80
2, 39535, Note_on_c, 0, 49, 0
2, 39587, Note_on_c, 0, 45, 80
2, 39588, Note_on_c, 0, 61, 80
2, 39591, Note_on_c, 0, 57, 0
2, 39592, Note_on_c, 0, 52, 0
2, 39601, Note_on_c, 0, 45, 80
2, 39634, Note_on_c, 0, 45, 0
2, 39650, Note_on_c, 0, 64, 80
2, 39712, Note_on_c, 0, 69, 80
2, 39716, Note_on_c, 0, 64, 0
2, 39770, Note_on_c, 0, 69, 0
2, 39771, Note_on_c, 0, 68, 80
2, 39798, Note_on_c, 0, 45, 0
2, 39823, Note_on_c, 0, 68, 0
2, 39828, Note_on_c, 0, 69, 80
2, 39890, Note_on_c, 0, 54, 80
2, 39944, Note_on_c, 0, 59, 80
2, 39953, Note_on_c, 0, 54, 0
2, 39998, Note_on_c, 0, 59, 0
2, 39999, Note_on_c, 0, 57, 80
2, 40059, Note_on_c, 0, 61, 0
2, 40060, Note_on_c, 0, 59, 80
2, 40061, Note_on_c, 0, 57, 0
2, 40077, Note_on_c, 0, 63, 80
2, 40083, Note_on_c, 0, 69, 0
2, 40101, Note_on_c, 0, 59, 0
2, 40136, Note_on_c, 0, 66, 80
2, 40188, Note_on_c, 0, 47, 80
2, 40194, Note_on_c, 0, 71, 80
2, 40197, Note_on_c, 0, 66, 0
2, 40249, Note_on_c, 0, 69, 80
2, 40254, Note_on_c, 0, 63, 0
2, 40255, Note_on_c, 0, 71, 0
2, 40262, Note_on_c, 0, 47, 0
2, 40306, Note_on_c, 0, 69, 0
2, 40306, Note_on_c, 0, 68, 80
2, 40307, Note_on_c, 0, 52, 80
2, 40310, Note_on_c, 0, 64, 80
2, 40337, Note_on_c, 0, 68, 0
2, 40370, Note_on_c, 0, 71, 80
2, 40389, Note_on_c, 0, 52, 0
2, 40401, Note_on_c, 0, 71, 0
2, 40420, Note_on_c, 0, 40, 80
2, 40432, Note_on_c, 0, 76, 80
2, 40468, Note_on_c, 0, 40, 0
2, 40488, Note_on_c, 0, 75, 80
2, 40489, Note_on_c, 0, 76, 0
2, 40550, Note_on_c, 0, 76, 80
2, 40556, Note_on_c, 0, 75, 0
2, 40605, Note_on_c, 0, 56, 80
2, 40663, Note_on_c, 0, 56, 0
2, 40664, Note_on_c, 0, 61, 80
2, 40715, Note_on_c, 0, 61, 0
2, 40722, Note_on_c, 0, 60, 80
2, 40739, Note_on_c, 0, 60, 0
2, 40751, Note_on_c, 0, 64, 0
2, 40788, Note_on_c, 0, 61, 80
2, 40789, Note_on_c, 0, 64, 80
2, 40818, Note_on_c, 0, 76, 0
2, 40857, Note_on_c, 0, 73, 80
2, 40914, Note_on_c, 0, 81, 80
2, 40919, Note_on_c, 0, 73, 0
2, 40968, Note_on_c, 0, 80, 80
2, 40972, Note_on_c, 0, 81, 0
2, 41018, Note_on_c, 0, 80, 0
2, 41031, Note_on_c, 0, 81, 80
2, 41031, Note_on_c, 0, 66, 80
2, 41037, Note_on_c, 0, 64, 0
2, 41038, Note_on_c, 0, 61, 0
2, 41089, Note_on_c, 0, 61, 80
2, 41104, Note_on_c, 0, 81, 0
2, 41147, Note_on_c, 0, 60, 80
2, 41148, Note_on_c, 0, 61, 0
2, 41155, Note_on_c, 0, 75, 80
2, 41209, Note_on_c, 0, 58, 80
2, 41210, Note_on_c, 0, 60, 0
2, 41267, Note_on_c, 0, 75, 0
2, 41267, Note_on_c, 0, 58, 0
2, 41269, Note_on_c, 0, 60, 80
2, 41387, Note_on_c, 0, 75, 80
2, 41430, Note_on_c, 0, 75, 0
2, 41446, Note_on_c, 0, 73, 80
2, 41462, Note_on_c, 0, 73, 0
2, 41506, Note_on_c, 0, 75, 80
2, 41525, Note_on_c, 0, 60, 0
2, 41561, Note_on_c, 0, 56, 80
2, 41621, Note_on_c, 0, 61, 80
2, 41622, Note_on_c, 0, 56, 0
2, 41675, Note_on_c, 0, 60, 80
2, 41677, Note_on_c, 0, 61, 0
2, 41735, Note_on_c, 0, 66, 0
2, 41737, Note_on_c, 0, 60, 0
2, 41739, Note_on_c, 0, 61, 80
2, 41740, Note_on_c, 0, 64, 80
2, 41753, Note_on_c, 0, 75, 0
2, 41812, Note_on_c, 0, 68, 80
2, 41870, Note_on_c, 0, 73, 80
2, 41873, Note_on_c, 0, 68, 0
2, 41894, Note_on_c, 0, 73, 0
2, 41927, Note_on_c, 0, 72, 80
2, 41947, Note_on_c, 0, 72, 0
2, 41980, Note_on_c, 0, 61, 0
2, 41990, Note_on_c, 0, 73, 80
2, 42042, Note_on_c, 0, 52, 80
2, 42103, Note_on_c, 0, 57, 80
2, 42107, Note_on_c, 0, 52, 0
2, 42156, Note_on_c, 0, 56, 80
2, 42158, Note_on_c, 0, 57, 0
2, 42163, Note_on_c, 0, 64, 0
2, 42219, Note_on_c, 0, 56, 0
2, 42221, Note_on_c, 0, 57, 80
2, 42222, Note_on_c, 0, 64, 80
2, 42234, Note_on_c, 0, 73, 0
2, 42295, Note_on_c, 0, 69, 80
2, 42348, Note_on_c, 0, 56, 80
2, 42352, Note_on_c, 0, 57, 0
2, 42352, Note_on_c, 0, 73, 80
2, 42356, Note_on_c, 0, 69, 0
2, 42408, Note_on_c, 0, 73, 0
2, 42410, Note_on_c, 0, 71, 80
2, 42411, Note_on_c, 0, 64, 0
2, 42466, Note_on_c, 0, 57, 80
2, 42469, Note_on_c, 0, 54, 80
2, 42471, Note_on_c, 0, 56, 0
2, 42479, Note_on_c, 0, 73, 80
2, 42480, Note_on_c, 0, 71, 0
2, 42537, Note_on_c, 0, 73, 0
2, 42539, Note_on_c, 0, 61, 80
2, 42582, Note_on_c, 0, 61, 0
2, 42584, Note_on_c, 0, 54, 0
2, 42588, Note_on_c, 0, 52, 80
2, 42597, Note_on_c, 0, 66, 80
2, 42651, Note_on_c, 0, 66, 0
2, 42655, Note_on_c, 0, 64, 80
2, 42706, Note_on_c, 0, 50, 80
2, 42711, Note_on_c, 0, 52, 0
2, 42716, Note_on_c, 0, 66, 80
2, 42717, Note_on_c, 0, 64, 0
2, 42776, Note_on_c, 0, 66, 0
2, 42779, Note_on_c, 0, 62, 80
2, 42815, Note_on_c, 0, 62, 0
2, 42821, Note_on_c, 0, 49, 80
2, 42825, Note_on_c, 0, 50, 0
2, 42837, Note_on_c, 0, 68, 80
2, 42892, Note_on_c, 0, 68, 0
2, 42894, Note_on_c, 0, 66, 80
2, 42936, Note_on_c, 0, 57, 0
2, 42936, Note_on_c, 0, 47, 80
2, 42938, Note_on_c, 0, 49, 0
2, 42941, Note_on_c, 0, 59, 80
2, 42950, Note_on_c, 0, 66, 0
2, 42953, Note_on_c, 0, 68, 80
2, 43010, Note_on_c, 0, 68, 0
2, 43014, Note_on_c, 0, 62, 80
2, 43063, Note_on_c, 0, 52, 80
2, 43066, Note_on_c, 0, 47, 0
2, 43068, Note_on_c, 0, 62, 0
2, 43073, Note_on_c, 0, 69, 80
2, 43125, Note_on_c, 0, 68, 80
2, 43127, Note_on_c, 0, 69, 0
2, 43142, Note_on_c, 0, 68, 0
2, 43178, Note_on_c, 0, 59, 0
2, 43186, Note_on_c, 0, 45, 80
2, 43189, Note_on_c, 0, 69, 80
2, 43189, Note_on_c, 0, 61, 80
2, 43197, Note_on_c, 0, 52, 0
2, 43248, Note_on_c, 0, 52, 80
2, 43251, Note_on_c, 0, 45, 0
2, 43310, Note_on_c, 0, 52, 0
2, 43310, Note_on_c, 0, 57, 80
2, 43310, Note_on_c, 0, 73, 80
2, 43312, Note_on_c, 0, 69, 0
2, 43360, Note_on_c, 0, 73, 0
2, 43368, Note_on_c, 0, 56, 80
2, 43370, Note_on_c, 0, 71, 80
2, 43375, Note_on_c, 0, 57, 0
2, 43428, Note_on_c, 0, 56, 0
2, 43428, Note_on_c, 0, 57, 80
2, 43434, Note_on_c, 0, 73, 80
2, 43437, Note_on_c, 0, 71, 0
2, 43484, Note_on_c, 0, 61, 0
2, 43487, Note_on_c, 0, 49, 80
2, 43489, Note_on_c, 0, 57, 0
2, 43548, Note_on_c, 0, 54, 80
2, 43550, Note_on_c, 0, 49, 0
2, 43553, Note_on_c, 0, 62, 80
2, 43598, Note_on_c, 0, 62, 0
2, 43600, Note_on_c, 0, 54, 0
2, 43603, Note_on_c, 0, 52, 80
2, 43606, Note_on_c, 0, 61, 80
2, 43613, Note_on_c, 0, 61, 80
2, 43636, Note_on_c, 0, 61, 0
2, 43657, Note_on_c, 0, 61, 0
2, 43667, Note_on_c, 0, 54, 80
2, 43668, Note_on_c, 0, 52, 0
2, 43669, Note_on_c, 0, 62, 80
2, 43674, Note_on_c, 0, 62, 80
2, 43677, Note_on_c, 0, 73, 0
2, 43738, Note_on_c, 0, 66, 80
2, 43790, Note_on_c, 0, 54, 0
2, 43791, Note_on_c, 0, 56, 80
2, 43793, Note_on_c, 0, 66, 0
2, 43796, Note_on_c, 0, 71, 80
2, 43853, Note_on_c, 0, 71, 0
2, 43853, Note_on_c, 0, 69, 80
2, 43913, Note_on_c, 0, 56, 0
2, 43913, Note_on_c, 0, 71, 80
2, 43913, Note_on_c, 0, 61, 80
2, 43915, Note_on_c, 0, 62, 0
2, 43915, Note_on_c, 0, 69, 0
2, 43915, Note_on_c, 0, 57, 80
2, 43920, Note_on_c, 0, 62, 0
2, 43971, Note_on_c, 0, 71, 0
2, 43974, Note_on_c, 0, 64, 80
2, 44032, Note_on_c, 0, 54, 80
2, 44033, Note_on_c, 0, 57, 0
2, 44033, Note_on_c, 0, 69, 80
2, 44036, Note_on_c, 0, 64, 0
2, 44088, Note_on_c, 0, 68, 80
2, 44091, Note_on_c, 0, 69, 0
2, 44146, Note_on_c, 0, 68, 0
2, 44146, Note_on_c, 0, 69, 80
2, 44150, Note_on_c, 0, 50, 80
2, 44151, Note_on_c, 0, 59, 80
2, 44152, Note_on_c, 0, 54, 0
2, 44154, Note_on_c, 0, 61, 0
2, 44209, Note_on_c, 0, 69, 0
2, 44211, Note_on_c, 0, 66, 80
2, 44231, Note_on_c, 0, 66, 0
2, 44260, Note_on_c, 0, 47, 80
2, 44264, Note_on_c, 0, 50, 0
2, 44268, Note_on_c, 0, 74, 80
2, 44326, Note_on_c, 0, 73, 80
2, 44329, Note_on_c, 0, 74, 0
2, 44380, Note_on_c, 0, 52, 80
2, 44383, Note_on_c, 0, 47, 0
2, 44388, Note_on_c, 0, 73, 0
2, 44394, Note_on_c, 0, 74, 80
2, 44454, Note_on_c, 0, 74, 0
2, 44456, Note_on_c, 0, 71, 80
2, 44495, Note_on_c, 0, 71, 0
2, 44508, Note_on_c, 0, 50, 80
2, 44514, Note_on_c, 0, 52, 0
2, 44516, Note_on_c, 0, 81, 80
2, 44570, Note_on_c, 0, 81, 0
2, 44571, Note_on_c, 0, 80, 80
2, 44624, Note_on_c, 0, 80, 0
2, 44631, Note_on_c, 0, 81, 80
2, 44631, Note_on_c, 0, 57, 80
2, 44632, Note_on_c, 0, 49, 80
2, 44637, Note_on_c, 0, 50, 0
2, 44639, Note_on_c, 0, 59, 0
2, 44695, Note_on_c, 0, 45, 80
2, 44696, Note_on_c, 0, 49, 0
2, 44754, Note_on_c, 0, 45, 0
2, 44754, Note_on_c, 0, 54, 80
2, 44808, Note_on_c, 0, 54, 0
2, 44811, Note_on_c, 0, 52, 80
2, 44870, Note_on_c, 0, 52, 0
2, 44871, Note_on_c, 0, 54, 80
2, 44883, Note_on_c, 0, 81, 0
2, 44942, Note_on_c, 0, 69, 80
2, 45003, Note_on_c, 0, 74, 80
2, 45010, Note_on_c, 0, 69, 0
2, 45067, Note_on_c, 0, 73, 80
2, 45068, Note_on_c, 0, 74, 0
2, 45090, Note_on_c, 0, 73, 0
2, 45125, Note_on_c, 0, 57, 0
2, 45134, Note_on_c, 0, 74, 80
2, 45181, Note_on_c, 0, 50, 80
2, 45182, Note_on_c, 0, 54, 0
2, 45243, Note_on_c, 0, 50, 0
2, 45243, Note_on_c, 0, 57, 80
2, 45302, Note_on_c, 0, 56, 80
2, 45304, Note_on_c, 0, 57, 0
2, 45333, Note_on_c, 0, 56, 0
2, 45365, Note_on_c, 0, 57, 80
2, 45373, Note_on_c, 0, 74, 0
2, 45405, Note_on_c, 0, 57, 0
2, 45417, Note_on_c, 0, 64, 80
2, 45425, Note_on_c, 0, 59, 80
2, 45477, Note_on_c, 0, 57, 80
2, 45479, Note_on_c, 0, 73, 80
2, 45482, Note_on_c, 0, 59, 0
2, 45483, Note_on_c, 0, 64, 0
2, 45530, Note_on_c, 0, 56, 80
2, 45532, Note_on_c, 0, 57, 0
2, 45540, Note_on_c, 0, 73, 0
2, 45541, Note_on_c, 0, 71, 80
2, 45590, Note_on_c, 0, 56, 0
2, 45592, Note_on_c, 0, 54, 80
2, 45601, Note_on_c, 0, 73, 80
2, 45605, Note_on_c, 0, 71, 0
2, 45642, Note_on_c, 0, 54, 0
2, 45650, Note_on_c, 0, 57, 80
2, 45662, Note_on_c, 0, 73, 0
2, 45664, Note_on_c, 0, 62, 80
2, 45707, Note_on_c, 0, 62, 0
2, 45712, Note_on_c, 0, 56, 80
2, 45716, Note_on_c, 0, 57, 0
2, 45723, Note_on_c, 0, 71, 80
2, 45771, Note_on_c, 0, 54, 80
2, 45778, Note_on_c, 0, 56, 0
2, 45780, Note_on_c, 0, 69, 80
2, 45783, Note_on_c, 0, 71, 0
2, 45832, Note_on_c, 0, 52, 80
2, 45836, Note_on_c, 0, 54, 0
2, 45842, Note_on_c, 0, 71, 80
2, 45848, Note_on_c, 0, 69, 0
2, 45871, Note_on_c, 0, 52, 0
2, 45892, Note_on_c, 0, 56, 80
2, 45899, Note_on_c, 0, 61, 80
2, 45900, Note_on_c, 0, 71, 0
2, 45927, Note_on_c, 0, 61, 0
2, 45943, Note_on_c, 0, 54, 80
2, 45944, Note_on_c, 0, 56, 0
2, 45959, Note_on_c, 0, 69, 80
2, 45997, Note_on_c, 0, 54, 0
2, 45999, Note_on_c, 0, 52, 80
2, 46015, Note_on_c, 0, 69, 0
2, 46017, Note_on_c, 0, 68, 80
2, 46061, Note_on_c, 0, 52, 0
2, 46063, Note_on_c, 0, 51, 80
2, 46072, Note_on_c, 0, 68, 0
2, 46074, Note_on_c, 0, 69, 80
2, 46133, Note_on_c, 0, 69, 0
2, 46134, Note_on_c, 0, 59, 80
2, 46150, Note_on_c, 0, 51, 0
2, 46188, Note_on_c, 0, 47, 80
2, 46190, Note_on_c, 0, 59, 0
2, 46196, Note_on_c, 0, 68, 80
2, 46255, Note_on_c, 0, 66, 80
2, 46256, Note_on_c, 0, 68, 0
2, 46263, Note_on_c, 0, 47, 0
2, 46309, Note_on_c, 0, 52, 80
2, 46314, Note_on_c, 0, 66, 0
2, 46315, Note_on_c, 0, 68, 80
2, 46350, Note_on_c, 0, 68, 0
2, 46378, Note_on_c, 0, 64, 80
2, 46436, Note_on_c, 0, 68, 80
2, 46442, Note_on_c, 0, 64, 0
2, 46468, Note_on_c, 0, 68, 0
2, 46494, Note_on_c, 0, 71, 80
2, 46537, Note_on_c, 0, 71, 0
2, 46554, Note_on_c, 0, 52, 0
2, 46557, Note_on_c, 0, 76, 80
2, 46609, Note_on_c, 0, 56, 80
2, 46616, Note_on_c, 0, 76, 0
2, 46668, Note_on_c, 0, 56, 0
2, 46669, Note_on_c, 0, 61, 80
2, 46681, Note_on_c, 0, 64, 80
2, 46727, Note_on_c, 0, 61, 0
2, 46729, Note_on_c, 0, 59, 80
2, 46753, Note_on_c, 0, 64, 0
2, 46790, Note_on_c, 0, 59, 0
2, 46790, Note_on_c, 0, 61, 80
2, 46810, Note_on_c, 0, 66, 80
2, 46844, Note_on_c, 0, 61, 0
2, 46853, Note_on_c, 0, 50, 80
2, 46862, Note_on_c, 0, 66, 0
2, 46868, Note_on_c, 0, 69, 80
2, 46891, Note_on_c, 0, 69, 0
2, 46914, Note_on_c, 0, 59, 80
2, 46917, Note_on_c, 0, 50, 0
2, 46928, Note_on_c, 0, 74, 80
2, 46975, Note_on_c, 0, 57, 80
2, 46976, Note_on_c, 0, 59, 0
2, 47001, Note_on_c, 0, 74, 0
2, 47034, Note_on_c, 0, 57, 0
2, 47034, Note_on_c, 0, 59, 80
2, 47053, Note_on_c, 0, 64, 80
2, 47098, Note_on_c, 0, 49, 80
2, 47100, Note_on_c, 0, 59, 0
2, 47111, Note_on_c, 0, 68, 80
2, 47118, Note_on_c, 0, 64, 0
2, 47135, Note_on_c, 0, 68, 0
2, 47158, Note_on_c, 0, 49, 0
2, 47160, Note_on_c, 0, 57, 80
2, 47173, Note_on_c, 0, 73, 80
2, 47222, Note_on_c, 0, 56, 80
2, 47223, Note_on_c, 0, 57, 0
2, 47239, Note_on_c, 0, 73, 0
2, 47282, Note_on_c, 0, 57, 80
2, 47283, Note_on_c, 0, 56, 0
2, 47290, Note_on_c, 0, 62, 80
2, 47341, Note_on_c, 0, 57, 0
2, 47341, Note_on_c, 0, 47, 80
2, 47348, Note_on_c, 0, 66, 80
2, 47357, Note_on_c, 0, 62, 0
2, 47373, Note_on_c, 0, 66, 0
2, 47398, Note_on_c, 0, 47, 0
2, 47401, Note_on_c, 0, 56, 80
2, 47413, Note_on_c, 0, 71, 80
2, 47463, Note_on_c, 0, 56, 0
2, 47463, Note_on_c, 0, 54, 80
2, 47464, Note_on_c, 0, 71, 0
2, 47521, Note_on_c, 0, 56, 80
2, 47522, Note_on_c, 0, 54, 0
2, 47528, Note_on_c, 0, 61, 80
2, 47577, Note_on_c, 0, 45, 80
2, 47580, Note_on_c, 0, 56, 0
2, 47586, Note_on_c, 0, 64, 80
2, 47593, Note_on_c, 0, 61, 0
2, 47637, Note_on_c, 0, 54, 80
2, 47638, Note_on_c, 0, 45, 0
2, 47644, Note_on_c, 0, 69, 80
2, 47645, Note_on_c, 0, 64, 0
2, 47695, Note_on_c, 0, 54, 0
2, 47696, Note_on_c, 0, 52, 80
2, 47698, Note_on_c, 0, 69, 0
2, 47700, Note_on_c, 0, 61, 80
2, 47730, Note_on_c, 0, 61, 0
2, 47755, Note_on_c, 0, 54, 80
2, 47756, Note_on_c, 0, 52, 0
2, 47763, Note_on_c, 0, 62, 80
2, 47815, Note_on_c, 0, 44, 80
2, 47817, Note_on_c, 0, 54, 0
2, 47819, Note_on_c, 0, 59, 80
2, 47821, Note_on_c, 0, 62, 0
2, 47870, Note_on_c, 0, 52, 80
2, 47876, Note_on_c, 0, 44, 0
2, 47879, Note_on_c, 0, 59, 0
2, 47881, Note_on_c, 0, 68, 80
2, 47933, Note_on_c, 0, 50, 80
2, 47934, Note_on_c, 0, 52, 0
2, 47937, Note_on_c, 0, 68, 0
2, 47940, Note_on_c, 0, 59, 80
2, 47988, Note_on_c, 0, 52, 80
2, 47989, Note_on_c, 0, 50, 0
2, 48000, Note_on_c, 0, 59, 0
2, 48001, Note_on_c, 0, 61, 80
2, 48051, Note_on_c, 0, 42, 80
2, 48056, Note_on_c, 0, 52, 0
2, 48059, Note_on_c, 0, 57, 80
2, 48062, Note_on_c, 0, 61, 0
2, 48111, Note_on_c, 0, 50, 80
2, 48113, Note_on_c, 0, 42, 0
2, 48116, Note_on_c, 0, 57, 0
2, 48118, Note_on_c, 0, 66, 80
2, 48172, Note_on_c, 0, 49, 80
2, 48173, Note_on_c, 0, 66, 0
2, 48175, Note_on_c, 0, 50, 0
2, 48176, Note_on_c, 0, 57, 80
2, 48227, Note_on_c, 0, 49, 0
2, 48227, Note_on_c, 0, 50, 80
2, 48233, Note_on_c, 0, 57, 0
2, 48235, Note_on_c, 0, 59, 80
2, 48287, Note_on_c, 0, 40, 80
2, 48289, Note_on_c, 0, 50, 0
2, 48297, Note_on_c, 0, 56, 80
2, 48304, Note_on_c, 0, 59, 0
2, 48334, Note_on_c, 0, 56, 0
2, 48348, Note_on_c, 0, 49, 80
2, 48350, Note_on_c, 0, 40, 0
2, 48356, Note_on_c, 0, 64, 80
2, 48409, Note_on_c, 0, 49, 0
2, 48411, Note_on_c, 0, 47, 80
2, 48467, Note_on_c, 0, 49, 80
2, 48468, Note_on_c, 0, 47, 0
2, 48471, Note_on_c, 0, 64, 0
2, 48526, Note_on_c, 0, 45, 80
2, 48527, Note_on_c, 0, 49, 0
2, 48530, Note_on_c, 0, 61, 80
2, 48581, Note_on_c, 0, 45, 0
2, 48584, Note_on_c, 0, 50, 80
2, 48588, Note_on_c, 0, 61, 0
2, 48591, Note_on_c, 0, 66, 80
2, 48640, Note_on_c, 0, 50, 0
2, 48641, Note_on_c, 0, 49, 80
2, 48647, Note_on_c, 0, 66, 0
2, 48651, Note_on_c, 0, 64, 80
2, 48697, Note_on_c, 0, 49, 0
2, 48700, Note_on_c, 0, 50, 80
2, 48706, Note_on_c, 0, 64, 0
2, 48707, Note_on_c, 0, 66, 80
2, 48757, Note_on_c, 0, 47, 80
2, 48762, Note_on_c, 0, 50, 0
2, 48768, Note_on_c, 0, 66, 0
2, 48771, Note_on_c, 0, 62, 80
2, 48814, Note_on_c, 0, 52, 80
2, 48817, Note_on_c, 0, 47, 0
2, 48828, Note_on_c, 0, 59, 80
2, 48831, Note_on_c, 0, 62, 0
2, 48873, Note_on_c, 0, 47, 80
2, 48878, Note_on_c, 0, 52, 0
2, 48880, Note_on_c, 0, 59, 0
2, 48887, Note_on_c, 0, 68, 80
2, 48936, Note_on_c, 0, 49, 80
2, 48943, Note_on_c, 0, 47, 0
2, 48949, Note_on_c, 0, 68, 0
2, 48949, Note_on_c, 0, 69, 80
2, 48999, Note_on_c, 0, 49, 0
2, 49000, Note_on_c, 0, 69, 0
2, 49002, Note_on_c, 0, 45, 80
2, 49012, Note_on_c, 0, 64, 80
2, 49059, Note_on_c, 0, 49, 80
2, 49063, Note_on_c, 0, 64, 0
2, 49065, Note_on_c, 0, 45, 0
2, 49069, Note_on_c, 0, 69, 80
2, 49118, Note_on_c, 0, 49, 0
2, 49118, Note_on_c, 0, 52, 80
2, 49127, Note_on_c, 0, 71, 80
2, 49133, Note_on_c, 0, 69, 0
2, 49177, Note_on_c, 0, 52, 0
2, 49179, Note_on_c, 0, 57, 80
2, 49185, Note_on_c, 0, 73, 80
2, 49186, Note_on_c, 0, 71, 0
2, 49236, Note_on_c, 0, 54, 80
2, 49241, Note_on_c, 0, 57, 0
2, 49242, Note_on_c, 0, 73, 0
2, 49244, Note_on_c, 0, 69, 80
2, 49295, Note_on_c, 0, 54, 0
2, 49297, Note_on_c, 0, 59, 80
2, 49303, Note_on_c, 0, 74, 80
2, 49305, Note_on_c, 0, 69, 0
2, 49353, Note_on_c, 0, 57, 80
2, 49354, Note_on_c, 0, 59, 0
2, 49362, Note_on_c, 0, 74, 0
2, 49362, Note_on_c, 0, 73, 80
2, 49413, Note_on_c, 0, 57, 0
2, 49414, Note_on_c, 0, 59, 80
2, 49424, Note_on_c, 0, 73, 0
2, 49424, Note_on_c, 0, 74, 80
2, 49471, Note_on_c, 0, 56, 80
2, 49478, Note_on_c, 0, 59, 0
2, 49486, Note_on_c, 0, 74, 0
2, 49489, Note_on_c, 0, 71, 80
2, 49536, Note_on_c, 0, 52, 80
2, 49539, Note_on_c, 0, 56, 0
2, 49547, Note_on_c, 0, 76, 80
2, 49548, Note_on_c, 0, 71, 0
2, 49597, Note_on_c, 0, 56, 80
2, 49600, Note_on_c, 0, 76, 0
2, 49602, Note_on_c, 0, 71, 80
2, 49611, Note_on_c, 0, 52, 0
2, 49623, Note_on_c, 0, 71, 0
2, 49658, Note_on_c, 0, 56, 0
2, 49659, Note_on_c, 0, 57, 80
2, 49667, Note_on_c, 0, 73, 80
2, 49730, Note_on_c, 0, 68, 80
2, 49789, Note_on_c, 0, 68, 0
2, 49792, Note_on_c, 0, 69, 80
2, 49848, Note_on_c, 0, 64, 80
2, 49899, Note_on_c, 0, 57, 0
2, 49904, Note_on_c, 0, 64, 0
2, 49908, Note_on_c, 0, 61, 80
2, 49965, Note_on_c, 0, 57, 80
2, 49971, Note_on_c, 0, 61, 0
2, 50021, Note_on_c, 0, 57, 0
2, 50031, Note_on_c, 0, 64, 80
2, 50086, Note_on_c, 0, 56, 80
2, 50095, Note_on_c, 0, 64, 0
2, 50145, Note_on_c, 0, 56, 0
2, 50153, Note_on_c, 0, 57, 80
2, 50158, Note_on_c, 0, 69, 0
2, 50160, Note_on_c, 0, 73, 0
2, 50219, Note_on_c, 0, 52, 80
2, 50279, Note_on_c, 0, 49, 80
2, 50288, Note_on_c, 0, 52, 0
2, 50340, Note_on_c, 0, 52, 80
2, 50341, Note_on_c, 0, 49, 0
2, 50401, Note_on_c, 0, 61, 80
2, 50402, Note_on_c, 0, 45, 80
2, 50407, Note_on_c, 0, 52, 0
2, 50409, Note_on_c, 0, 57, 0
2, 50460, Note_on_c, 0, 64, 80
2, 50522, Note_on_c, 0, 69, 80
2, 50524, Note_on_c, 0, 64, 0
2, 50572, Note_on_c, 0, 69, 0
2, 50577, Note_on_c, 0, 68, 80
2, 50618, Note_on_c, 0, 45, 0
2, 50623, Note_on_c, 0, 68, 0
2, 50641, Note_on_c, 0, 69, 80
2, 50694, Note_on_c, 0, 54, 80
2, 50753, Note_on_c, 0, 54, 0
2, 50754, Note_on_c, 0, 59, 80
2, 50800, Note_on_c, 0, 61, 0
2, 50810, Note_on_c, 0, 59, 0
2, 50810, Note_on_c, 0, 57, 80
2, 50869, Note_on_c, 0, 57, 0
2, 50869, Note_on_c, 0, 59, 80
2, 50875, Note_on_c, 0, 63, 80
2, 50933, Note_on_c, 0, 59, 0
2, 50936, Note_on_c, 0, 66, 80
2, 50938, Note_on_c, 0, 69, 0
2, 50989, Note_on_c, 0, 47, 80
2, 50991, Note_on_c, 0, 71, 80
2, 50992, Note_on_c, 0, 66, 0
2, 51047, Note_on_c, 0, 69, 80
2, 51055, Note_on_c, 0, 63, 0
2, 51055, Note_on_c, 0, 71, 0
2, 51059, Note_on_c, 0, 47, 0
2, 51107, Note_on_c, 0, 52, 80
2, 51111, Note_on_c, 0, 69, 0
2, 51112, Note_on_c, 0, 68, 80
2, 51114, Note_on_c, 0, 64, 80
2, 51140, Note_on_c, 0, 68, 0
2, 51172, Note_on_c, 0, 71, 80
2, 51182, Note_on_c, 0, 52, 0
2, 51222, Note_on_c, 0, 40, 80
2, 51234, Note_on_c, 0, 76, 80
2, 51239, Note_on_c, 0, 71, 0
2, 51290, Note_on_c, 0, 40, 0
2, 51290, Note_on_c, 0, 75, 80
2, 51291, Note_on_c, 0, 76, 0
2, 51310, Note_on_c, 0, 75, 0
2, 51356, Note_on_c, 0, 76, 80
2, 51408, Note_on_c, 0, 56, 80
2, 51464, Note_on_c, 0, 61, 80
2, 51465, Note_on_c, 0, 56, 0
2, 51496, Note_on_c, 0, 61, 0
2, 51520, Note_on_c, 0, 64, 0
2, 51521, Note_on_c, 0, 60, 80
2, 51540, Note_on_c, 0, 60, 0
2, 51582, Note_on_c, 0, 64, 80
2, 51585, Note_on_c, 0, 61, 80
2, 51632, Note_on_c, 0, 76, 0
2, 51659, Note_on_c, 0, 73, 80
2, 51715, Note_on_c, 0, 81, 80
2, 51716, Note_on_c, 0, 73, 0
2, 51767, Note_on_c, 0, 64, 0
2, 51773, Note_on_c, 0, 80, 80
2, 51776, Note_on_c, 0, 81, 0
2, 51832, Note_on_c, 0, 81, 80
2, 51833, Note_on_c, 0, 80, 0
2, 51833, Note_on_c, 0, 66, 80
2, 51835, Note_on_c, 0, 61, 0
2, 51891, Note_on_c, 0, 61, 80
2, 51908, Note_on_c, 0, 81, 0
2, 51947, Note_on_c, 0, 60, 80
2, 51951, Note_on_c, 0, 75, 80
2, 51954, Note_on_c, 0, 61, 0
2, 52009, Note_on_c, 0, 60, 0
2, 52009, Note_on_c, 0, 58, 80
2, 52066, Note_on_c, 0, 58, 0
2, 52068, Note_on_c, 0, 60, 80
2, 52093, Note_on_c, 0, 75, 0
2, 52138, Note_on_c, 0, 68, 80
2, 52199, Note_on_c, 0, 68, 0
2, 52199, Note_on_c, 0, 75, 80
2, 52229, Note_on_c, 0, 75, 0
2, 52255, Note_on_c, 0, 73, 80
2, 52275, Note_on_c, 0, 73, 0
2, 52318, Note_on_c, 0, 75, 80
2, 52365, Note_on_c, 0, 56, 80
2, 52366, Note_on_c, 0, 60, 0
2, 52429, Note_on_c, 0, 61, 80
2, 52430, Note_on_c, 0, 56, 0
2, 52484, Note_on_c, 0, 61, 0
2, 52485, Note_on_c, 0, 60, 80
2, 52496, Note_on_c, 0, 66, 0
2, 52552, Note_on_c, 0, 61, 80
2, 52553, Note_on_c, 0, 60, 0
2, 52553, Note_on_c, 0, 64, 80
2, 52565, Note_on_c, 0, 75, 0
2, 52612, Note_on_c, 0, 68, 80
2, 52671, Note_on_c, 0, 73, 80
2, 52677, Note_on_c, 0, 68, 0
2, 52702, Note_on_c, 0, 73, 0
2, 52729, Note_on_c, 0, 72, 80
2, 52753, Note_on_c, 0, 72, 0
2, 52789, Note_on_c, 0, 73, 80
2, 52811, Note_on_c, 0, 61, 0
2, 52847, Note_on_c, 0, 52, 80
2, 52901, Note_on_c, 0, 57, 80
2, 52904, Note_on_c, 0, 52, 0
2, 52955, Note_on_c, 0, 57, 0
2, 52966, Note_on_c, 0, 56, 80
2, 52980, Note_on_c, 0, 64, 0
2, 53013, Note_on_c, 0, 56, 0
2, 53025, Note_on_c, 0, 57, 80
2, 53027, Note_on_c, 0, 73, 0
2, 53027, Note_on_c, 0, 64, 80
2, 53092, Note_on_c, 0, 69, 80
2, 53149, Note_on_c, 0, 56, 80
2, 53151, Note_on_c, 0, 73, 80
2, 53156, Note_on_c, 0, 69, 0
2, 53158, Note_on_c, 0, 57, 0
2, 53190, Note_on_c, 0, 64, 0
2, 53213, Note_on_c, 0, 71, 80
2, 53215, Note_on_c, 0, 73, 0
2, 53263, Note_on_c, 0, 56, 0
2, 53264, Note_on_c, 0, 54, 80
2, 53265, Note_on_c, 0, 57, 80
2, 53285, Note_on_c, 0, 73, 80
2, 53287, Note_on_c, 0, 71, 0
2, 53344, Note_on_c, 0, 73, 0
2, 53345, Note_on_c, 0, 61, 80
2, 53376, Note_on_c, 0, 61, 0
2, 53388, Note_on_c, 0, 52, 80
2, 53390, Note_on_c, 0, 54, 0
2, 53402, Note_on_c, 0, 66, 80
2, 53458, Note_on_c, 0, 66, 0
2, 53462, Note_on_c, 0, 64, 80
2, 53506, Note_on_c, 0, 50, 80
2, 53508, Note_on_c, 0, 52, 0
2, 53521, Note_on_c, 0, 66, 80
2, 53535, Note_on_c, 0, 64, 0
2, 53580, Note_on_c, 0, 66, 0
2, 53582, Note_on_c, 0, 62, 80
2, 53617, Note_on_c, 0, 62, 0
2, 53628, Note_on_c, 0, 49, 80
2, 53631, Note_on_c, 0, 50, 0
2, 53639, Note_on_c, 0, 68, 80
2, 53690, Note_on_c, 0, 57, 0
2, 53693, Note_on_c, 0, 68, 0
2, 53697, Note_on_c, 0, 66, 80
2, 53744, Note_on_c, 0, 59, 80
2, 53745, Note_on_c, 0, 47, 80
2, 53753, Note_on_c, 0, 66, 0
2, 53754, Note_on_c, 0, 68, 80
2, 53763, Note_on_c, 0, 49, 0
2, 53811, Note_on_c, 0, 68, 0
2, 53814, Note_on_c, 0, 62, 80
2, 53860, Note_on_c, 0, 62, 0
2, 53868, Note_on_c, 0, 52, 80
2, 53873, Note_on_c, 0, 69, 80
2, 53877, Note_on_c, 0, 47, 0
2, 53884, Note_on_c, 0, 59, 0
2, 53924, Note_on_c, 0, 68, 80
2, 53928, Note_on_c, 0, 69, 0
2, 53943, Note_on_c, 0, 68, 0
2, 53981, Note_on_c, 0, 45, 80
2, 53985, Note_on_c, 0, 57, 80
2, 53988, Note_on_c, 0, 69, 80
2, 53988, Note_on_c, 0, 61, 80
2, 53993, Note_on_c, 0, 52, 0
2, 54005, Note_on_c, 0, 57, 0
2, 54043, Note_on_c, 0, 52, 80
2, 54049, Note_on_c, 0, 45, 0
2, 54102, Note_on_c, 0, 73, 80
2, 54104, Note_on_c, 0, 69, 0
2, 54107, Note_on_c, 0, 52, 0
2, 54107, Note_on_c, 0, 57, 80
2, 54154, Note_on_c, 0, 73, 0
2, 54162, Note_on_c, 0, 56, 80
2, 54164, Note_on_c, 0, 57, 0
2, 54165, Note_on_c, 0, 71, 80
2, 54210, Note_on_c, 0, 71, 0
2, 54217, Note_on_c, 0, 57, 80
2, 54218, Note_on_c, 0, 56, 0
2, 54225, Note_on_c, 0, 73, 80
2, 54276, Note_on_c, 0, 49, 80
2, 54281, Note_on_c, 0, 57, 0
2, 54291, Note_on_c, 0, 61, 0
2, 54337, Note_on_c, 0, 54, 80
2, 54338, Note_on_c, 0, 49, 0
2, 54341, Note_on_c, 0, 62, 80
2, 54378, Note_on_c, 0, 62, 0
2, 54388, Note_on_c, 0, 54, 0
2, 54390, Note_on_c, 0, 52, 80
2, 54393, Note_on_c, 0, 61, 80
2, 54406, Note_on_c, 0, 61, 80
2, 54422, Note_on_c, 0, 61, 0
2, 54434, Note_on_c, 0, 61, 0
2, 54455, Note_on_c, 0, 54, 80
2, 54456, Note_on_c, 0, 52, 0
2, 54456, Note_on_c, 0, 62, 80
2, 54468, Note_on_c, 0, 62, 80
2, 54524, Note_on_c, 0, 73, 0
2, 54528, Note_on_c, 0, 66, 80
2, 54578, Note_on_c, 0, 54, 0
2, 54578, Note_on_c, 0, 62, 0
2, 54580, Note_on_c, 0, 56, 80
2, 54582, Note_on_c, 0, 66, 0
2, 54584, Note_on_c, 0, 71, 80
2, 54644, Note_on_c, 0, 69, 80
2, 54647, Note_on_c, 0, 71, 0
2, 54694, Note_on_c, 0, 56, 0
2, 54697, Note_on_c, 0, 61, 80
2, 54699, Note_on_c, 0, 57, 80
2, 54702, Note_on_c, 0, 62, 0
2, 54703, Note_on_c, 0, 71, 80
2, 54704, Note_on_c, 0, 69, 0
2, 54768, Note_on_c, 0, 71, 0
2, 54771, Note_on_c, 0, 64, 80
2, 54786, Note_on_c, 0, 57, 0
2, 54818, Note_on_c, 0, 54, 80
2, 54819, Note_on_c, 0, 64, 0
2, 54831, Note_on_c, 0, 69, 80
2, 54874, Note_on_c, 0, 54, 0
2, 54884, Note_on_c, 0, 68, 80
2, 54890, Note_on_c, 0, 69, 0
2, 54935, Note_on_c, 0, 61, 0
2, 54936, Note_on_c, 0, 50, 80
2, 54937, Note_on_c, 0, 59, 80
2, 54942, Note_on_c, 0, 68, 0
2, 54943, Note_on_c, 0, 69, 80
2, 55011, Note_on_c, 0, 69, 0
2, 55014, Note_on_c, 0, 66, 80
2, 55040, Note_on_c, 0, 66, 0
2, 55052, Note_on_c, 0, 50, 0
2, 55055, Note_on_c, 0, 47, 80
2, 55074, Note_on_c, 0, 74, 80
2, 55131, Note_on_c, 0, 73, 80
2, 55133, Note_on_c, 0, 74, 0
2, 55139, Note_on_c, 0, 47, 0
2, 55186, Note_on_c, 0, 52, 80
2, 55189, Note_on_c, 0, 73, 0
2, 55197, Note_on_c, 0, 74, 80
2, 55255, Note_on_c, 0, 74, 0
2, 55257, Note_on_c, 0, 71, 80
2, 55282, Note_on_c, 0, 52, 0
2, 55304, Note_on_c, 0, 71, 0
2, 55310, Note_on_c, 0, 50, 80
2, 55319, Note_on_c, 0, 81, 80
2, 55377, Note_on_c, 0, 81, 0
2, 55379, Note_on_c, 0, 80, 80
2, 55389, Note_on_c, 0, 59, 0
2, 55431, Note_on_c, 0, 80, 0
2, 55432, Note_on_c, 0, 50, 0
2, 55433, Note_on_c, 0, 49, 80
2, 55434, Note_on_c, 0, 57, 80
2, 55438, Note_on_c, 0, 81, 80
2, 55494, Note_on_c, 0, 45, 80
2, 55499, Note_on_c, 0, 49, 0
2, 55516, Note_on_c, 0, 45, 0
2, 55551, Note_on_c, 0, 54, 80
2, 55605, Note_on_c, 0, 54, 0
2, 55606, Note_on_c, 0, 52, 80
2, 55665, Note_on_c, 0, 81, 0
2, 55668, Note_on_c, 0, 54, 80
2, 55676, Note_on_c, 0, 52, 0
2, 55738, Note_on_c, 0, 69, 80
2, 55799, Note_on_c, 0, 74, 80
2, 55806, Note_on_c, 0, 69, 0
2, 55835, Note_on_c, 0, 74, 0
2, 55855, Note_on_c, 0, 73, 80
2, 55872, Note_on_c, 0, 73, 0
2, 55918, Note_on_c, 0, 74, 80
2, 55933, Note_on_c, 0, 54, 0
2, 55936, Note_on_c, 0, 57, 0
2, 55974, Note_on_c, 0, 50, 80
2, 56035, Note_on_c, 0, 57, 80
2, 56037, Note_on_c, 0, 50, 0
2, 56093, Note_on_c, 0, 56, 80
2, 56101, Note_on_c, 0, 57, 0
2, 56123, Note_on_c, 0, 56, 0
2, 56153, Note_on_c, 0, 57, 80
2, 56173, Note_on_c, 0, 74, 0
2, 56191, Note_on_c, 0, 57, 0
2, 56213, Note_on_c, 0, 59, 80
2, 56220, Note_on_c, 0, 64, 80
2, 56270, Note_on_c, 0, 57, 80
2, 56276, Note_on_c, 0, 59, 0
2, 56280, Note_on_c, 0, 73, 80
2, 56286, Note_on_c, 0, 64, 0
2, 56307, Note_on_c, 0, 73, 0
2, 56326, Note_on_c, 0, 56, 80
2, 56327, Note_on_c, 0, 57, 0
2, 56339, Note_on_c, 0, 71, 80
2, 56361, Note_on_c, 0, 71, 0
2, 56390, Note_on_c, 0, 54, 80
2, 56391, Note_on_c, 0, 56, 0
2, 56399, Note_on_c, 0, 73, 80
2, 56443, Note_on_c, 0, 54, 0
2, 56448, Note_on_c, 0, 57, 80
2, 56458, Note_on_c, 0, 73, 0
2, 56463, Note_on_c, 0, 62, 80
2, 56510, Note_on_c, 0, 56, 80
2, 56516, Note_on_c, 0, 57, 0
2, 56517, Note_on_c, 0, 62, 0
2, 56518, Note_on_c, 0, 71, 80
2, 56543, Note_on_c, 0, 71, 0
2, 56566, Note_on_c, 0, 54, 80
2, 56572, Note_on_c, 0, 56, 0
2, 56576, Note_on_c, 0, 69, 80
2, 56602, Note_on_c, 0, 69, 0
2, 56625, Note_on_c, 0, 52, 80
2, 56626, Note_on_c, 0, 54, 0
2, 56634, Note_on_c, 0, 71, 80
2, 56660, Note_on_c, 0, 52, 0
2, 56684, Note_on_c, 0, 56, 80
2, 56695, Note_on_c, 0, 71, 0
2, 56695, Note_on_c, 0, 61, 80
2, 56738, Note_on_c, 0, 56, 0
2, 56738, Note_on_c, 0, 54, 80
2, 56750, Note_on_c, 0, 69, 80
2, 56757, Note_on_c, 0, 61, 0
2, 56783, Note_on_c, 0, 69, 0
2, 56793, Note_on_c, 0, 54, 0
2, 56796, Note_on_c, 0, 52, 80
2, 56809, Note_on_c, 0, 68, 80
2, 56833, Note_on_c, 0, 68, 0
2, 56853, Note_on_c, 0, 52, 0
2, 56858, Note_on_c, 0, 51, 80
2, 56869, Note_on_c, 0, 69, 80
2, 56928, Note_on_c, 0, 69, 0
2, 56930, Note_on_c, 0, 59, 80
2, 56934, Note_on_c, 0, 51, 0
2, 56978, Note_on_c, 0, 59, 0
2, 56982, Note_on_c, 0, 47, 80
2, 56988, Note_on_c, 0, 68, 80
2, 57044, Note_on_c, 0, 68, 0
2, 57046, Note_on_c, 0, 66, 80
2, 57048, Note_on_c, 0, 47, 0
2, 57102, Note_on_c, 0, 66, 0
2, 57103, Note_on_c, 0, 52, 80
2, 57109, Note_on_c, 0, 68, 80
2, 57152, Note_on_c, 0, 68, 0
2, 57180, Note_on_c, 0, 64, 80
2, 57235, Note_on_c, 0, 64, 0
2, 57238, Note_on_c, 0, 68, 80
2, 57264, Note_on_c, 0, 68, 0
2, 57293, Note_on_c, 0, 71, 80
2, 57314, Note_on_c, 0, 71, 0
2, 57351, Note_on_c, 0, 76, 80
2, 57380, Note_on_c, 0, 52, 0
2, 57403, Note_on_c, 0, 56, 80
2, 57436, Note_on_c, 0, 76, 0
2, 57461, Note_on_c, 0, 56, 0
2, 57465, Note_on_c, 0, 61, 80
2, 57472, Note_on_c, 0, 64, 80
2, 57521, Note_on_c, 0, 61, 0
2, 57523, Note_on_c, 0, 59, 80
2, 57528, Note_on_c, 0, 64, 0
2, 57584, Note_on_c, 0, 66, 80
2, 57585, Note_on_c, 0, 59, 0
2, 57586, Note_on_c, 0, 61, 80
2, 57638, Note_on_c, 0, 61, 0
2, 57641, Note_on_c, 0, 66, 0
2, 57641, Note_on_c, 0, 50, 80
2, 57646, Note_on_c, 0, 69, 80
2, 57669, Note_on_c, 0, 69, 0
2, 57676, Note_on_c, 0, 50, 0
2, 57703, Note_on_c, 0, 59, 80
2, 57710, Note_on_c, 0, 74, 80
2, 57764, Note_on_c, 0, 57, 80
2, 57767, Note_on_c, 0, 59, 0
2, 57767, Note_on_c, 0, 74, 0
2, 57819, Note_on_c, 0, 57, 0
2, 57821, Note_on_c, 0, 59, 80
2, 57835, Note_on_c, 0, 64, 80
2, 57867, Note_on_c, 0, 59, 0
2, 57888, Note_on_c, 0, 49, 80
2, 57897, Note_on_c, 0, 68, 80
2, 57899, Note_on_c, 0, 64, 0
2, 57918, Note_on_c, 0, 68, 0
2, 57925, Note_on_c, 0, 49, 0
2, 57948, Note_on_c, 0, 57, 80
2, 57962, Note_on_c, 0, 73, 80
2, 58012, Note_on_c, 0, 56, 80
2, 58015, Note_on_c, 0, 57, 0
2, 58044, Note_on_c, 0, 73, 0
2, 58068, Note_on_c, 0, 56, 0
2, 58069, Note_on_c, 0, 57, 80
2, 58083, Note_on_c, 0, 62, 80
2, 58126, Note_on_c, 0, 57, 0
2, 58132, Note_on_c, 0, 47, 80
2, 58139, Note_on_c, 0, 66, 80
2, 58147, Note_on_c, 0, 62, 0
2, 58166, Note_on_c, 0, 66, 0
2, 58171, Note_on_c, 0, 47, 0
2, 58192, Note_on_c, 0, 56, 80
2, 58204, Note_on_c, 0, 71, 80
2, 58254, Note_on_c, 0, 56, 0
2, 58256, Note_on_c, 0, 54, 80
2, 58269, Note_on_c, 0, 71, 0
2, 58312, Note_on_c, 0, 56, 80
2, 58314, Note_on_c, 0, 54, 0
2, 58329, Note_on_c, 0, 61, 80
2, 58360, Note_on_c, 0, 56, 0
2, 58373, Note_on_c, 0, 45, 80
2, 58390, Note_on_c, 0, 64, 80
2, 58397, Note_on_c, 0, 61, 0
2, 58435, Note_on_c, 0, 45, 0
2, 58437, Note_on_c, 0, 54, 80
2, 58447, Note_on_c, 0, 69, 80
2, 58448, Note_on_c, 0, 64, 0
2, 58495, Note_on_c, 0, 54, 0
2, 58498, Note_on_c, 0, 52, 80
2, 58499, Note_on_c, 0, 69, 0
2, 58505, Note_on_c, 0, 61, 80
2, 58530, Note_on_c, 0, 61, 0
2, 58557, Note_on_c, 0, 52, 0
2, 58559, Note_on_c, 0, 54, 80
2, 58568, Note_on_c, 0, 62, 80
2, 58615, Note_on_c, 0, 54, 0
2, 58617, Note_on_c, 0, 44, 80
2, 58627, Note_on_c, 0, 59, 80
2, 58630, Note_on_c, 0, 62, 0
2, 58674, Note_on_c, 0, 52, 80
2, 58680, Note_on_c, 0, 44, 0
2, 58684, Note_on_c, 0, 59, 0
2, 58687, Note_on_c, 0, 68, 80
2, 58733, Note_on_c, 0, 50, 80
2, 58738, Note_on_c, 0, 52, 0
2, 58739, Note_on_c, 0, 68, 0
2, 58745, Note_on_c, 0, 59, 80
2, 58781, Note_on_c, 0, 59, 0
2, 58787, Note_on_c, 0, 50, 0
2, 58789, Note_on_c, 0, 52, 80
2, 58805, Note_on_c, 0, 61, 80
2, 58846, Note_on_c, 0, 52, 0
2, 58854, Note_on_c, 0, 42, 80
2, 58865, Note_on_c, 0, 57, 80
2, 58866, Note_on_c, 0, 61, 0
2, 58910, Note_on_c, 0, 50, 80
2, 58912, Note_on_c, 0, 42, 0
2, 58922, Note_on_c, 0, 57, 0
2, 58922, Note_on_c, 0, 66, 80
2, 58969, Note_on_c, 0, 49, 80
2, 58971, Note_on_c, 0, 50, 0
2, 58978, Note_on_c, 0, 66, 0
2, 58980, Note_on_c, 0, 57, 80
2, 59028, Note_on_c, 0, 50, 80
2, 59029, Note_on_c, 0, 49, 0
2, 59035, Note_on_c, 0, 57, 0
2, 59038, Note_on_c, 0, 59, 80
2, 59084, Note_on_c, 0, 50, 0
2, 59091, Note_on_c, 0, 40, 80
2, 59096, Note_on_c, 0, 56, 80
2, 59100, Note_on_c, 0, 59, 0
2, 59129, Note_on_c, 0, 56, 0
2, 59146, Note_on_c, 0, 49, 80
2, 59150, Note_on_c, 0, 40, 0
2, 59157, Note_on_c, 0, 64, 80
2, 59203, Note_on_c, 0, 49, 0
2, 59205, Note_on_c, 0, 47, 80
2, 59245, Note_on_c, 0, 47, 0
2, 59260, Note_on_c, 0, 49, 80
2, 59271, Note_on_c, 0, 64, 0
2, 59319, Note_on_c, 0, 45, 80
2, 59324, Note_on_c, 0, 49, 0
2, 59331, Note_on_c, 0, 61, 80
2, 59377, Note_on_c, 0, 45, 0
2, 59379, Note_on_c, 0, 50, 80
2, 59383, Note_on_c, 0, 61, 0
2, 59390, Note_on_c, 0, 66, 80
2, 59423, Note_on_c, 0, 66, 0
2, 59436, Note_on_c, 0, 50, 0
2, 59437, Note_on_c, 0, 49, 80
2, 59453, Note_on_c, 0, 64, 80
2, 59485, Note_on_c, 0, 64, 0
2, 59491, Note_on_c, 0, 49, 0
2, 59503, Note_on_c, 0, 50, 80
2, 59511, Note_on_c, 0, 66, 80
2, 59565, Note_on_c, 0, 47, 80
2, 59570, Note_on_c, 0, 50, 0
2, 59573, Note_on_c, 0, 66, 0
2, 59574, Note_on_c, 0, 62, 80
2, 59625, Note_on_c, 0, 47, 0
2, 59626, Note_on_c, 0, 52, 80
2, 59629, Note_on_c, 0, 59, 80
2, 59631, Note_on_c, 0, 62, 0
2, 59679, Note_on_c, 0, 47, 80
2, 59684, Note_on_c, 0, 52, 0
2, 59689, Note_on_c, 0, 68, 80
2, 59690, Note_on_c, 0, 59, 0
2, 59742, Note_on_c, 0, 49, 80
2, 59746, Note_on_c, 0, 47, 0
2, 59748, Note_on_c, 0, 68, 0
2, 59749, Note_on_c, 0, 69, 80
2, 59781, Note_on_c, 0, 49, 0
2, 59783, Note_on_c, 0, 69, 0
2, 59802, Note_on_c, 0, 45, 80
2, 59811, Note_on_c, 0, 64, 80
2, 59862, Note_on_c, 0, 49, 80
2, 59864, Note_on_c, 0, 64, 0
2, 59868, Note_on_c, 0, 45, 0
2, 59871, Note_on_c, 0, 69, 80
2, 59926, Note_on_c, 0, 52, 80
2, 59927, Note_on_c, 0, 49, 0
2, 59930, Note_on_c, 0, 71, 80
2, 59932, Note_on_c, 0, 69, 0
2, 59972, Note_on_c, 0, 57, 80
2, 59975, Note_on_c, 0, 52, 0
2, 59985, Note_on_c, 0, 71, 0
2, 59986, Note_on_c, 0, 73, 80
2, 60034, Note_on_c, 0, 54, 80
2, 60042, Note_on_c, 0, 57, 0
2, 60046, Note_on_c, 0, 69, 80
2, 60047, Note_on_c, 0, 73, 0
2, 60090, Note_on_c, 0, 69, 0
2, 60094, Note_on_c, 0, 54, 0
2, 60098, Note_on_c, 0, 59, 80
2, 60106, Note_on_c, 0, 74, 80
2, 60157, Note_on_c, 0, 57, 80
2, 60161, Note_on_c, 0, 73, 80
2, 60162, Note_on_c, 0, 74, 0
2, 60165, Note_on_c, 0, 59, 0
2, 60184, Note_on_c, 0, 73, 0
2, 60203, Note_on_c, 0, 57, 0
2, 60217, Note_on_c, 0, 59, 80
2, 60225, Note_on_c, 0, 74, 80
2, 60276, Note_on_c, 0, 59, 0
2, 60276, Note_on_c, 0, 56, 80
2, 60336, Note_on_c, 0, 52, 80
2, 60337, Note_on_c, 0, 56, 0
2, 60394, Note_on_c, 0, 56, 80
2, 60395, Note_on_c, 0, 52, 0
2, 60452, Note_on_c, 0, 56, 0
2, 60453, Note_on_c, 0, 57, 80
2, 60478, Note_on_c, 0, 74, 0
2, 60536, Note_on_c, 0, 73, 80
2, 60595, Note_on_c, 0, 73, 0
2, 60598, Note_on_c, 0, 78, 80
2, 60627, Note_on_c, 0, 78, 0
2, 60653, Note_on_c, 0, 77, 80
2, 60677, Note_on_c, 0, 77, 0
2, 60715, Note_on_c, 0, 78, 80
2, 60725, Note_on_c, 0, 57, 0
2, 60772, Note_on_c, 0, 54, 80
2, 60831, Note_on_c, 0, 61, 80
2, 60834, Note_on_c, 0, 54, 0
2, 60881, Note_on_c, 0, 61, 0
2, 60884, Note_on_c, 0, 60, 80
2, 60921, Note_on_c, 0, 60, 0
2, 60948, Note_on_c, 0, 61, 80
2, 60953, Note_on_c, 0, 78, 0
2, 61011, Note_on_c, 0, 68, 80
2, 61065, Note_on_c, 0, 59, 80
2, 61068, Note_on_c, 0, 68, 0
2, 61071, Note_on_c, 0, 78, 80
2, 61100, Note_on_c, 0, 61, 0
2, 61102, Note_on_c, 0, 78, 0
2, 61117, Note_on_c, 0, 59, 0
2, 61129, Note_on_c, 0, 77, 80
2, 61164, Note_on_c, 0, 77, 0
2, 61185, Note_on_c, 0, 61, 80
2, 61187, Note_on_c, 0, 57, 80
2, 61193, Note_on_c, 0, 78, 80
2, 61251, Note_on_c, 0, 78, 0
2, 61251, Note_on_c, 0, 73, 80
2, 61276, Note_on_c, 0, 73, 0
2, 61303, Note_on_c, 0, 57, 0
2, 61305, Note_on_c, 0, 53, 80
2, 61311, Note_on_c, 0, 81, 80
2, 61359, Note_on_c, 0, 81, 0
2, 61363, Note_on_c, 0, 80, 80
2, 61368, Note_on_c, 0, 53, 0
2, 61394, Note_on_c, 0, 80, 0
2, 61425, Note_on_c, 0, 54, 80
2, 61432, Note_on_c, 0, 81, 80
2, 61482, Note_on_c, 0, 54, 0
2, 61483, Note_on_c, 0, 49, 80
2, 61508, Note_on_c, 0, 49, 0
2, 61545, Note_on_c, 0, 57, 80
2, 61553, Note_on_c, 0, 81, 0
2, 61556, Note_on_c, 0, 77, 80
2, 61596, Note_on_c, 0, 61, 0
2, 61604, Note_on_c, 0, 56, 80
2, 61606, Note_on_c, 0, 57, 0
2, 61638, Note_on_c, 0, 77, 0
2, 61661, Note_on_c, 0, 56, 0
2, 61667, Note_on_c, 0, 57, 80
2, 61668, Note_on_c, 0, 61, 80
2, 61678, Note_on_c, 0, 78, 80
2, 61741, Note_on_c, 0, 78, 0
2, 61743, Note_on_c, 0, 73, 80
2, 61783, Note_on_c, 0, 57, 0
2, 61786, Note_on_c, 0, 73, 0
2, 61787, Note_on_c, 0, 54, 80
2, 61801, Note_on_c, 0, 78, 80
2, 61837, Note_on_c, 0, 61, 0
2, 61839, Note_on_c, 0, 54, 0
2, 61856, Note_on_c, 0, 80, 80
2, 61859, Note_on_c, 0, 78, 0
2, 61911, Note_on_c, 0, 51, 80
2, 61912, Note_on_c, 0, 80, 0
2, 61912, Note_on_c, 0, 59, 80
2, 61916, Note_on_c, 0, 81, 80
2, 61974, Note_on_c, 0, 81, 0
2, 61975, Note_on_c, 0, 71, 80
2, 62026, Note_on_c, 0, 51, 0
2, 62029, Note_on_c, 0, 47, 80
2, 62032, Note_on_c, 0, 80, 80
2, 62033, Note_on_c, 0, 71, 0
2, 62087, Note_on_c, 0, 80, 0
2, 62088, Note_on_c, 0, 78, 80
2, 62125, Note_on_c, 0, 47, 0
2, 62149, Note_on_c, 0, 78, 0
2, 62150, Note_on_c, 0, 52, 80
2, 62152, Note_on_c, 0, 80, 80
2, 62207, Note_on_c, 0, 47, 80
2, 62213, Note_on_c, 0, 52, 0
2, 62223, Note_on_c, 0, 80, 0
2, 62226, Note_on_c, 0, 47, 0
2, 62271, Note_on_c, 0, 56, 80
2, 62281, Note_on_c, 0, 75, 80
2, 62328, Note_on_c, 0, 56, 0
2, 62330, Note_on_c, 0, 54, 80
2, 62344, Note_on_c, 0, 75, 0
2, 62355, Note_on_c, 0, 59, 0
2, 62387, Note_on_c, 0, 54, 0
2, 62391, Note_on_c, 0, 56, 80
2, 62403, Note_on_c, 0, 76, 80
2, 62463, Note_on_c, 0, 76, 0
2, 62463, Note_on_c, 0, 71, 80
2, 62507, Note_on_c, 0, 52, 80
2, 62519, Note_on_c, 0, 71, 0
2, 62522, Note_on_c, 0, 76, 80
2, 62567, Note_on_c, 0, 56, 0
2, 62571, Note_on_c, 0, 52, 0
2, 62582, Note_on_c, 0, 74, 80
2, 62584, Note_on_c, 0, 76, 0
2, 62633, Note_on_c, 0, 45, 80
2, 62634, Note_on_c, 0, 57, 80
2, 62642, Note_on_c, 0, 73, 80
2, 62649, Note_on_c, 0, 74, 0
2, 62691, Note_on_c, 0, 73, 0
2, 62699, Note_on_c, 0, 61, 80
2, 62759, Note_on_c, 0, 61, 0
2, 62759, Note_on_c, 0, 47, 80
2, 62760, Note_on_c, 0, 64, 80
2, 62776, Note_on_c, 0, 45, 0
2, 62788, Note_on_c, 0, 57, 0
2, 62817, Note_on_c, 0, 64, 0
2, 62817, Note_on_c, 0, 63, 80
2, 62874, Note_on_c, 0, 63, 0
2, 62877, Note_on_c, 0, 47, 0
2, 62879, Note_on_c, 0, 64, 80
2, 62879, Note_on_c, 0, 56, 80
2, 62882, Note_on_c, 0, 49, 80
2, 62925, Note_on_c, 0, 64, 0
2, 62934, Note_on_c, 0, 59, 80
2, 62937, Note_on_c, 0, 49, 0
2, 62940, Note_on_c, 0, 44, 80
2, 62959, Note_on_c, 0, 59, 0
2, 62999, Note_on_c, 0, 49, 80
2, 62999, Note_on_c, 0, 64, 80
2, 63001, Note_on_c, 0, 44, 0
2, 63050, Note_on_c, 0, 47, 80
2, 63057, Note_on_c, 0, 56, 0
2, 63059, Note_on_c, 0, 49, 0
2, 63093, Note_on_c, 0, 47, 0
2, 63113, Note_on_c, 0, 54, 80
2, 63114, Note_on_c, 0, 45, 80
2, 63176, Note_on_c, 0, 45, 0
2, 63176, Note_on_c, 0, 42, 80
2, 63235, Note_on_c, 0, 47, 80
2, 63235, Note_on_c, 0, 63, 80
2, 63236, Note_on_c, 0, 64, 0
2, 63236, Note_on_c, 0, 42, 0
2, 63294, Note_on_c, 0, 45, 80
2, 63295, Note_on_c, 0, 54, 0
2, 63303, Note_on_c, 0, 47, 0
2, 63333, Note_on_c, 0, 45, 0
2, 63354, Note_on_c, 0, 44, 80
2, 63355, Note_on_c, 0, 52, 80
2, 63370, Note_on_c, 0, 63, 0
2, 63371, Note_on_c, 0, 64, 80
2, 63414, Note_on_c, 0, 40, 80
2, 63416, Note_on_c, 0, 44, 0
2, 63441, Note_on_c, 0, 40, 0
2, 63479, Note_on_c, 0, 49, 80
2, 63531, Note_on_c, 0, 49, 0
2, 63534, Note_on_c, 0, 47, 80
2, 63594, Note_on_c, 0, 49, 80
2, 63595, Note_on_c, 0, 47, 0
2, 63652, Note_on_c, 0, 64, 0
2, 63659, Note_on_c, 0, 61, 80
2, 63715, Note_on_c, 0, 69, 80
2, 63719, Note_on_c, 0, 61, 0
2, 63774, Note_on_c, 0, 68, 80
2, 63776, Note_on_c, 0, 69, 0
2, 63831, Note_on_c, 0, 52, 0
2, 63831, Note_on_c, 0, 68, 0
2, 63838, Note_on_c, 0, 69, 80
2, 63839, Note_on_c, 0, 64, 80
2, 63888, Note_on_c, 0, 45, 80
2, 63890, Note_on_c, 0, 49, 0
2, 63950, Note_on_c, 0, 54, 80
2, 63954, Note_on_c, 0, 45, 0
2, 63983, Note_on_c, 0, 64, 0
2, 64006, Note_on_c, 0, 54, 0
2, 64009, Note_on_c, 0, 52, 80
2, 64067, Note_on_c, 0, 52, 0
2, 64067, Note_on_c, 0, 54, 80
2, 64079, Note_on_c, 0, 64, 80
2, 64138, Note_on_c, 0, 69, 0
2, 64139, Note_on_c, 0, 66, 80
2, 64195, Note_on_c, 0, 66, 0
2, 64196, Note_on_c, 0, 73, 80
2, 64247, Note_on_c, 0, 73, 0
2, 64253, Note_on_c, 0, 71, 80
2, 64300, Note_on_c, 0, 71, 0
2, 64302, Note_on_c, 0, 54, 0
2, 64317, Note_on_c, 0, 73, 80
2, 64365, Note_on_c, 0, 47, 80
2, 64424, Note_on_c, 0, 47, 0
2, 64425, Note_on_c, 0, 59, 80
2, 64480, Note_on_c, 0, 59, 0
2, 64481, Note_on_c, 0, 57, 80
2, 64529, Note_on_c, 0, 64, 0
2, 64532, Note_on_c, 0, 62, 80
2, 64545, Note_on_c, 0, 57, 0
2, 64545, Note_on_c, 0, 59, 80
2, 64588, Note_on_c, 0, 73, 0
2, 64595, Note_on_c, 0, 66, 80
2, 64653, Note_on_c, 0, 66, 0
2, 64654, Note_on_c, 0, 56, 80
2, 64656, Note_on_c, 0, 71, 80
2, 64657, Note_on_c, 0, 59, 0
2, 64705, Note_on_c, 0, 56, 0
2, 64707, Note_on_c, 0, 52, 80
2, 64709, Note_on_c, 0, 64, 80
2, 64719, Note_on_c, 0, 62, 0
2, 64737, Note_on_c, 0, 64, 0
2, 64771, Note_on_c, 0, 52, 0
2, 64771, Note_on_c, 0, 57, 80
2, 64772, Note_on_c, 0, 61, 80
2, 64837, Note_on_c, 0, 71, 0
2, 64839, Note_on_c, 0, 64, 80
2, 64899, Note_on_c, 0, 56, 80
2, 64900, Note_on_c, 0, 57, 0
2, 64901, Note_on_c, 0, 69, 80
2, 64905, Note_on_c, 0, 64, 0
2, 64960, Note_on_c, 0, 69, 0
2, 64962, Note_on_c, 0, 68, 80
2, 65015, Note_on_c, 0, 56, 0
2, 65018, Note_on_c, 0, 54, 80
2, 65023, Note_on_c, 0, 69, 80
2, 65027, Note_on_c, 0, 68, 0
2, 65030, Note_on_c, 0, 61, 0
2, 65088, Note_on_c, 0, 61, 80
2, 65142, Note_on_c, 0, 52, 80
2, 65145, Note_on_c, 0, 54, 0
2, 65149, Note_on_c, 0, 66, 80
2, 65151, Note_on_c, 0, 61, 0
2, 65200, Note_on_c, 0, 64, 80
2, 65208, Note_on_c, 0, 66, 0
2, 65243, Note_on_c, 0, 64, 0
2, 65266, Note_on_c, 0, 50, 80
2, 65271, Note_on_c, 0, 66, 80
2, 65272, Note_on_c, 0, 52, 0
2, 65275, Note_on_c, 0, 69, 0
2, 65326, Note_on_c, 0, 54, 80
2, 65331, Note_on_c, 0, 50, 0
2, 65338, Note_on_c, 0, 69, 80
2, 65385, Note_on_c, 0, 54, 0
2, 65389, Note_on_c, 0, 59, 80
2, 65398, Note_on_c, 0, 74, 80
2, 65401, Note_on_c, 0, 69, 0
2, 65449, Note_on_c, 0, 57, 80
2, 65454, Note_on_c, 0, 73, 80
2, 65456, Note_on_c, 0, 74, 0
2, 65457, Note_on_c, 0, 59, 0
2, 65466, Note_on_c, 0, 66, 0
2, 65511, Note_on_c, 0, 57, 0
2, 65513, Note_on_c, 0, 56, 80
2, 65514, Note_on_c, 0, 74, 80
2, 65515, Note_on_c, 0, 73, 0
2, 65516, Note_on_c, 0, 64, 80
2, 65571, Note_on_c, 0, 56, 0
2, 65573, Note_on_c, 0, 59, 80
2, 65580, Note_on_c, 0, 74, 0
2, 65580, Note_on_c, 0, 68, 80
2, 65628, Note_on_c, 0, 59, 0
2, 65634, Note_on_c, 0, 58, 80
2, 65639, Note_on_c, 0, 73, 80
2, 65642, Note_on_c, 0, 68, 0
2, 65692, Note_on_c, 0, 58, 0
2, 65692, Note_on_c, 0, 56, 80
2, 65698, Note_on_c, 0, 73, 0
2, 65699, Note_on_c, 0, 71, 80
2, 65753, Note_on_c, 0, 56, 0
2, 65755, Note_on_c, 0, 58, 80
2, 65761, Note_on_c, 0, 71, 0
2, 65762, Note_on_c, 0, 73, 80
2, 65811, Note_on_c, 0, 54, 80
2, 65812, Note_on_c, 0, 58, 0
2, 65862, Note_on_c, 0, 54, 0
2, 65864, Note_on_c, 0, 59, 80
2, 65870, Note_on_c, 0, 64, 0
2, 65878, Note_on_c, 0, 62, 80
2, 65925, Note_on_c, 0, 59, 0
2, 65926, Note_on_c, 0, 58, 80
2, 65927, Note_on_c, 0, 61, 80
2, 65935, Note_on_c, 0, 62, 0
2, 65936, Note_on_c, 0, 61, 80
2, 65982, Note_on_c, 0, 61, 0
2, 65985, Note_on_c, 0, 58, 0
2, 65986, Note_on_c, 0, 59, 80
2, 65994, Note_on_c, 0, 61, 0
2, 65998, Note_on_c, 0, 62, 80
2, 65999, Note_on_c, 0, 73, 0
2, 66050, Note_on_c, 0, 59, 0
2, 66050, Note_on_c, 0, 57, 80
2, 66059, Note_on_c, 0, 66, 80
2, 66110, Note_on_c, 0, 56, 80
2, 66114, Note_on_c, 0, 57, 0
2, 66122, Note_on_c, 0, 66, 0
2, 66123, Note_on_c, 0, 71, 80
2, 66171, Note_on_c, 0, 54, 80
2, 66175, Note_on_c, 0, 56, 0
2, 66181, Note_on_c, 0, 69, 80
2, 66184, Note_on_c, 0, 71, 0
2, 66231, Note_on_c, 0, 54, 0
2, 66234, Note_on_c, 0, 53, 80
2, 66236, Note_on_c, 0, 69, 0
2, 66238, Note_on_c, 0, 71, 80
2, 66240, Note_on_c, 0, 61, 80
2, 66247, Note_on_c, 0, 62, 0
2, 66296, Note_on_c, 0, 71, 0
2, 66296, Note_on_c, 0, 49, 80
2, 66299, Note_on_c, 0, 65, 80
2, 66300, Note_on_c, 0, 53, 0
2, 66355, Note_on_c, 0, 54, 80
2, 66356, Note_on_c, 0, 49, 0
2, 66359, Note_on_c, 0, 65, 0
2, 66360, Note_on_c, 0, 69, 80
2, 66417, Note_on_c, 0, 69, 0
2, 66417, Note_on_c, 0, 53, 80
2, 66420, Note_on_c, 0, 54, 0
2, 66420, Note_on_c, 0, 68, 80
2, 66470, Note_on_c, 0, 53, 0
2, 66470, Note_on_c, 0, 54, 80
2, 66473, Note_on_c, 0, 68, 0
2, 66477, Note_on_c, 0, 69, 80
2, 66490, Note_on_c, 0, 61, 0
2, 66525, Note_on_c, 0, 54, 0
2, 66532, Note_on_c, 0, 42, 80
2, 66538, Note_on_c, 0, 57, 80
2, 66545, Note_on_c, 0, 69, 0
2, 66584, Note_on_c, 0, 42, 0
2, 66591, Note_on_c, 0, 54, 80
2, 66596, Note_on_c, 0, 62, 80
2, 66603, Note_on_c, 0, 57, 0
2, 66646, Note_on_c, 0, 54, 0
2, 66649, Note_on_c, 0, 52, 80
2, 66651, Note_on_c, 0, 62, 0
2, 66655, Note_on_c, 0, 61, 80
2, 66707, Note_on_c, 0, 50, 80
2, 66710, Note_on_c, 0, 61, 0
2, 66711, Note_on_c, 0, 52, 0
2, 66716, Note_on_c, 0, 66, 80
2, 66758, Note_on_c, 0, 54, 80
2, 66759, Note_on_c, 0, 50, 0
2, 66769, Note_on_c, 0, 66, 0
2, 66773, Note_on_c, 0, 62, 80
2, 66826, Note_on_c, 0, 54, 0
2, 66827, Note_on_c, 0, 59, 80
2, 66841, Note_on_c, 0, 68, 80
2, 66844, Note_on_c, 0, 62, 0
2, 66888, Note_on_c, 0, 59, 0
2, 66888, Note_on_c, 0, 57, 80
2, 66895, Note_on_c, 0, 68, 0
2, 66898, Note_on_c, 0, 69, 80
2, 66931, Note_on_c, 0, 57, 0
2, 66934, Note_on_c, 0, 69, 0
2, 66934, Note_on_c, 0, 71, 80
2, 66954, Note_on_c, 0, 56, 80
2, 66967, Note_on_c, 0, 71, 0
2, 66968, Note_on_c, 0, 64, 80
2, 67010, Note_on_c, 0, 57, 80
2, 67011, Note_on_c, 0, 56, 0
2, 67025, Note_on_c, 0, 71, 80
2, 67067, Note_on_c, 0, 56, 80
2, 67072, Note_on_c, 0, 57, 0
2, 67081, Note_on_c, 0, 76, 80
2, 67086, Note_on_c, 0, 71, 0
2, 67121, Note_on_c, 0, 56, 0
2, 67123, Note_on_c, 0, 54, 80
2, 67138, Note_on_c, 0, 78, 80
2, 67146, Note_on_c, 0, 76, 0
2, 67180, Note_on_c, 0, 54, 0
2, 67184, Note_on_c, 0, 52, 80
2, 67198, Note_on_c, 0, 80, 80
2, 67199, Note_on_c, 0, 78, 0
2, 67252, Note_on_c, 0, 76, 80
2, 67253, Note_on_c, 0, 80, 0
2, 67310, Note_on_c, 0, 76, 0
2, 67317, Note_on_c, 0, 56, 80
2, 67321, Note_on_c, 0, 52, 0
2, 67338, Note_on_c, 0, 83, 80
2, 67363, Note_on_c, 0, 64, 0
2, 67379, Note_on_c, 0, 62, 80
2, 67401, Note_on_c, 0, 62, 0
2, 67415, Note_on_c, 0, 56, 0
2, 67447, Note_on_c, 0, 61, 80
2, 67449, Note_on_c, 0, 57, 80
2, 67501, Note_on_c, 0, 81, 80
2, 67508, Note_on_c, 0, 83, 0
2, 67560, Note_on_c, 0, 57, 0
2, 67561, Note_on_c, 0, 51, 80
2, 67563, Note_on_c, 0, 80, 80
2, 67567, Note_on_c, 0, 81, 0
2, 67613, Note_on_c, 0, 80, 0
2, 67615, Note_on_c, 0, 61, 0
2, 67617, Note_on_c, 0, 51, 0
2, 67620, Note_on_c, 0, 78, 80
2, 67681, Note_on_c, 0, 80, 80
2, 67682, Note_on_c, 0, 52, 80
2, 67685, Note_on_c, 0, 59, 80
2, 67686, Note_on_c, 0, 78, 0
2, 67741, Note_on_c, 0, 80, 0
2, 67745, Note_on_c, 0, 71, 80
2, 67792, Note_on_c, 0, 52, 0
2, 67796, Note_on_c, 0, 54, 80
2, 67802, Note_on_c, 0, 71, 0
2, 67804, Note_on_c, 0, 76, 80
2, 67859, Note_on_c, 0, 76, 0
2, 67860, Note_on_c, 0, 75, 80
2, 67915, Note_on_c, 0, 56, 80
2, 67916, Note_on_c, 0, 54, 0
2, 67920, Note_on_c, 0, 76, 80
2, 67921, Note_on_c, 0, 75, 0
2, 67971, Note_on_c, 0, 76, 0
2, 67978, Note_on_c, 0, 64, 80
2, 68029, Note_on_c, 0, 64, 0
2, 68033, Note_on_c, 0, 56, 0
2, 68034, Note_on_c, 0, 52, 80
2, 68034, Note_on_c, 0, 71, 80
2, 68088, Note_on_c, 0, 61, 80
2, 68089, Note_on_c, 0, 70, 80
2, 68092, Note_on_c, 0, 71, 0
2, 68101, Note_on_c, 0, 59, 0
2, 68131, Note_on_c, 0, 61, 0
2, 68139, Note_on_c, 0, 70, 0
2, 68146, Note_on_c, 0, 71, 80
2, 68149, Note_on_c, 0, 59, 80
2, 68150, Note_on_c, 0, 62, 80
2, 68155, Note_on_c, 0, 52, 0
2, 68212, Note_on_c, 0, 61, 80
2, 68213, Note_on_c, 0, 59, 80
2, 68214, Note_on_c, 0, 62, 0
2, 68252, Note_on_c, 0, 59, 0
2, 68264, Note_on_c, 0, 57, 80
2, 68270, Note_on_c, 0, 59, 0
2, 68272, Note_on_c, 0, 64, 80
2, 68276, Note_on_c, 0, 61, 0
2, 68330, Note_on_c, 0, 64, 0
2, 68333, Note_on_c, 0, 63, 80
2, 68386, Note_on_c, 0, 57, 0
2, 68387, Note_on_c, 0, 63, 0
2, 68396, Note_on_c, 0, 64, 80
2, 68401, Note_on_c, 0, 56, 80
2, 68433, Note_on_c, 0, 56, 0
2, 68459, Note_on_c, 0, 40, 80
2, 68485, Note_on_c, 0, 40, 0
2, 68517, Note_on_c, 0, 49, 80
2, 68520, Note_on_c, 0, 71, 0
2, 68521, Note_on_c, 0, 69, 80
2, 68573, Note_on_c, 0, 69, 0
2, 68575, Note_on_c, 0, 68, 80
2, 68578, Note_on_c, 0, 47, 80
2, 68580, Note_on_c, 0, 49, 0
2, 68592, Note_on_c, 0, 68, 0
2, 68635, Note_on_c, 0, 49, 80
2, 68636, Note_on_c, 0, 47, 0
2, 68637, Note_on_c, 0, 76, 80
2, 68691, Note_on_c, 0, 49, 0
2, 68692, Note_on_c, 0, 45, 80
2, 68696, Note_on_c, 0, 76, 0
2, 68748, Note_on_c, 0, 45, 0
2, 68750, Note_on_c, 0, 52, 80
2, 68762, Note_on_c, 0, 68, 80
2, 68770, Note_on_c, 0, 64, 0
2, 68817, Note_on_c, 0, 62, 80
2, 68870, Note_on_c, 0, 62, 0
2, 68878, Note_on_c, 0, 68, 0
2, 68878, Note_on_c, 0, 69, 80
2, 68881, Note_on_c, 0, 54, 80
2, 68883, Note_on_c, 0, 61, 80
2, 68886, Note_on_c, 0, 52, 0
2, 68942, Note_on_c, 0, 57, 80
2, 68946, Note_on_c, 0, 61, 0
2, 68996, Note_on_c, 0, 54, 0
2, 68998, Note_on_c, 0, 52, 80
2, 68999, Note_on_c, 0, 57, 0
2, 69001, Note_on_c, 0, 62, 80
2, 69055, Note_on_c, 0, 62, 0
2, 69058, Note_on_c, 0, 61, 80
2, 69114, Note_on_c, 0, 61, 0
2, 69115, Note_on_c, 0, 52, 0
2, 69115, Note_on_c, 0, 50, 80
2, 69117, Note_on_c, 0, 64, 80
2, 69178, Note_on_c, 0, 64, 0
2, 69179, Note_on_c, 0, 62, 80
2, 69233, Note_on_c, 0, 49, 80
2, 69234, Note_on_c, 0, 66, 80
2, 69235, Note_on_c, 0, 50, 0
2, 69237, Note_on_c, 0, 62, 0
2, 69292, Note_on_c, 0, 66, 0
2, 69294, Note_on_c, 0, 64, 80
2, 69345, Note_on_c, 0, 49, 0
2, 69349, Note_on_c, 0, 47, 80
2, 69359, Note_on_c, 0, 64, 0
2, 69360, Note_on_c, 0, 62, 80
2, 69411, Note_on_c, 0, 45, 80
2, 69414, Note_on_c, 0, 47, 0
2, 69451, Note_on_c, 0, 62, 0
2, 69470, Note_on_c, 0, 49, 80
2, 69474, Note_on_c, 0, 45, 0
2, 69474, Note_on_c, 0, 61, 80
2, 69525, Note_on_c, 0, 49, 0
2, 69526, Note_on_c, 0, 47, 80
2, 69550, Note_on_c, 0, 61, 0
2, 69586, Note_on_c, 0, 47, 0
2, 69588, Note_on_c, 0, 59, 80
2, 69588, Note_on_c, 0, 50, 80
2, 69647, Note_on_c, 0, 49, 80
2, 69649, Note_on_c, 0, 50, 0
2, 69701, Note_on_c, 0, 49, 0
2, 69703, Note_on_c, 0, 52, 80
2, 69709, Note_on_c, 0, 68, 80
2, 69711, Note_on_c, 0, 69, 0
2, 69756, Note_on_c, 0, 52, 0
2, 69757, Note_on_c, 0, 50, 80
2, 69817, Note_on_c, 0, 68, 0
2, 69819, Note_on_c, 0, 59, 0
2, 69821, Note_on_c, 0, 57, 80
2, 69822, Note_on_c, 0, 49, 80
2, 69829, Note_on_c, 0, 50, 0
2, 69829, Note_on_c, 0, 69, 80
2, 69883, Note_on_c, 0, 45, 80
2, 69889, Note_on_c, 0, 49, 0
2, 69903, Note_on_c, 0, 45, 0
2, 69942, Note_on_c, 0, 54, 80
2, 70000, Note_on_c, 0, 54, 0
2, 70001, Note_on_c, 0, 52, 80
2, 70058, Note_on_c, 0, 54, 80
2, 70063, Note_on_c, 0, 52, 0
2, 70076, Note_on_c, 0, 69, 0
2, 70134, Note_on_c, 0, 69, 80
2, 70193, Note_on_c, 0, 74, 80
2, 70198, Note_on_c, 0, 69, 0
2, 70226, Note_on_c, 0, 74, 0
2, 70252, Note_on_c, 0, 73, 80
2, 70299, Note_on_c, 0, 73, 0
2, 70320, Note_on_c, 0, 74, 80
2, 70361, Note_on_c, 0, 57, 0
2, 70368, Note_on_c, 0, 54, 0
2, 70371, Note_on_c, 0, 50, 80
2, 70432, Note_on_c, 0, 57, 80
2, 70434, Note_on_c, 0, 50, 0
2, 70489, Note_on_c, 0, 56, 80
2, 70492, Note_on_c, 0, 57, 0
2, 70538, Note_on_c, 0, 56, 0
2, 70541, Note_on_c, 0, 57, 80
2, 70568, Note_on_c, 0, 74, 0
2, 70611, Note_on_c, 0, 64, 80
2, 70617, Note_on_c, 0, 73, 80
2, 70665, Note_on_c, 0, 62, 80
2, 70667, Note_on_c, 0, 64, 0
2, 70676, Note_on_c, 0, 78, 80
2, 70678, Note_on_c, 0, 73, 0
2, 70708, Note_on_c, 0, 78, 0
2, 70725, Note_on_c, 0, 61, 80
2, 70727, Note_on_c, 0, 62, 0
2, 70735, Note_on_c, 0, 76, 80
2, 70775, Note_on_c, 0, 76, 0
2, 70778, Note_on_c, 0, 62, 80
2, 70779, Note_on_c, 0, 61, 0
2, 70795, Note_on_c, 0, 78, 80
2, 70821, Note_on_c, 0, 62, 0
2, 70850, Note_on_c, 0, 67, 80
2, 70850, Note_on_c, 0, 69, 80
2, 70899, Note_on_c, 0, 69, 0
2, 70910, Note_on_c, 0, 66, 80
2, 70913, Note_on_c, 0, 74, 80
2, 70916, Note_on_c, 0, 67, 0
2, 70966, Note_on_c, 0, 74, 0
2, 70966, Note_on_c, 0, 64, 80
2, 70967, Note_on_c, 0, 66, 0
2, 70971, Note_on_c, 0, 73, 80
2, 71010, Note_on_c, 0, 73, 0
2, 71025, Note_on_c, 0, 66, 80
2, 71026, Note_on_c, 0, 64, 0
2, 71032, Note_on_c, 0, 74, 80
2, 71083, Note_on_c, 0, 62, 80
2, 71084, Note_on_c, 0, 66, 0
2, 71128, Note_on_c, 0, 62, 0
2, 71150, Note_on_c, 0, 69, 80
2, 71203, Note_on_c, 0, 69, 0
2, 71208, Note_on_c, 0, 68, 80
2, 71255, Note_on_c, 0, 68, 0
2, 71271, Note_on_c, 0, 69, 80
2, 71315, Note_on_c, 0, 74, 0
2, 71332, Note_on_c, 0, 73, 80
2, 71338, Note_on_c, 0, 69, 0
2, 71391, Note_on_c, 0, 78, 0
2, 71397, Note_on_c, 0, 71, 80
2, 71404, Note_on_c, 0, 73, 0
2, 71454, Note_on_c, 0, 69, 80
2, 71455, Note_on_c, 0, 71, 0
2, 71511, Note_on_c, 0, 69, 0
2, 71514, Note_on_c, 0, 68, 80
2, 71565, Note_on_c, 0, 68, 0
2, 71571, Note_on_c, 0, 71, 80
2, 71628, Note_on_c, 0, 74, 80
2, 71629, Note_on_c, 0, 71, 0
2, 71684, Note_on_c, 0, 74, 0
2, 71686, Note_on_c, 0, 78, 80
2, 71744, Note_on_c, 0, 78, 0
2, 71748, Note_on_c, 0, 76, 80
2, 71806, Note_on_c, 0, 76, 0
2, 71807, Note_on_c, 0, 74, 80
2, 71862, Note_on_c, 0, 83, 80
2, 71864, Note_on_c, 0, 74, 0
2, 71918, Note_on_c, 0, 80, 80
2, 71924, Note_on_c, 0, 83, 0
2, 71955, Note_on_c, 0, 80, 0
2, 71984, Note_on_c, 0, 81, 80
2, 72051, Note_on_c, 0, 76, 80
2, 72109, Note_on_c, 0, 76, 0
2, 72109, Note_on_c, 0, 78, 80
2, 72165, Note_on_c, 0, 78, 0
2, 72168, Note_on_c, 0, 73, 80
2, 72213, Note_on_c, 0, 73, 0
2, 72230, Note_on_c, 0, 74, 80
2, 72290, Note_on_c, 0, 67, 80
2, 72351, Note_on_c, 0, 67, 0
2, 72352, Note_on_c, 0, 69, 80
2, 72402, Note_on_c, 0, 64, 80
2, 72403, Note_on_c, 0, 69, 0
2, 72435, Note_on_c, 0, 64, 0
2, 72469, Note_on_c, 0, 66, 80
2, 72531, Note_on_c, 0, 61, 80
2, 72586, Note_on_c, 0, 61, 0
2, 72591, Note_on_c, 0, 62, 80
2, 72643, Note_on_c, 0, 57, 0
2, 72650, Note_on_c, 0, 56, 80
2, 72653, Note_on_c, 0, 62, 0
2, 72677, Note_on_c, 0, 81, 0
2, 72681, Note_on_c, 0, 66, 0
2, 72685, Note_on_c, 0, 74, 0
2, 72698, Note_on_c, 0, 56, 0
2, 72713, Note_on_c, 0, 57, 80
2, 72775, Note_on_c, 0, 67, 80
2, 72827, Note_on_c, 0, 69, 80
2, 72829, Note_on_c, 0, 67, 0
2, 72886, Note_on_c, 0, 69, 0
2, 72889, Note_on_c, 0, 64, 80
2, 72942, Note_on_c, 0, 64, 0
2, 72944, Note_on_c, 0, 66, 80
2, 73006, Note_on_c, 0, 61, 80
2, 73043, Note_on_c, 0, 61, 0
2, 73063, Note_on_c, 0, 62, 80
2, 73120, Note_on_c, 0, 56, 80
2, 73123, Note_on_c, 0, 57, 0
2, 73169, Note_on_c, 0, 56, 0
2, 73182, Note_on_c, 0, 57, 80
2, 73244, Note_on_c, 0, 52, 80
2, 73300, Note_on_c, 0, 54, 80
2, 73305, Note_on_c, 0, 54, 80
2, 73311, Note_on_c, 0, 52, 0
2, 73327, Note_on_c, 0, 54, 0
2, 73358, Note_on_c, 0, 50, 80
2, 73364, Note_on_c, 0, 50, 80
2, 73371, Note_on_c, 0, 54, 0
2, 73384, Note_on_c, 0, 50, 0
2, 73407, Note_on_c, 0, 50, 0
2, 73430, Note_on_c, 0, 45, 80
2, 73494, Note_on_c, 0, 50, 80
2, 73538, Note_on_c, 0, 57, 0
2, 73552, Note_on_c, 0, 66, 0
2, 73553, Note_on_c, 0, 62, 0
2, 73555, Note_on_c, 0, 54, 80
2, 73614, Note_on_c, 0, 57, 80
2, 73674, Note_on_c, 0, 59, 80
2, 73737, Note_on_c, 0, 62, 80
2, 73794, Note_on_c, 0, 64, 80
2, 73796, Note_on_c, 0, 62, 0
2, 73799, Note_on_c, 0, 59, 0
2, 73850, Note_on_c, 0, 64, 0
2, 73852, Note_on_c, 0, 68, 80
2, 73892, Note_on_c, 0, 68, 0
2, 73916, Note_on_c, 0, 69, 80
2, 73916, Note_on_c, 0, 64, 80
2, 73917, Note_on_c, 0, 61, 80
2, 73926, Note_on_c, 0, 54, 0
2, 73927, Note_on_c, 0, 50, 0
2, 74090, Control_c, 0, 7, 74
2, 74105, Control_c, 0, 7, 83
2, 74111, Note_on_c, 0, 57, 0
2, 74115, Note_on_c, 0, 45, 0
2, 74120, Control_c, 0, 7, 91
2, 74135, Control_c, 0, 7, 100
2, 74139, Note_on_c, 0, 69, 0
2, 74139, Note_on_c, 0, 61, 0
2, 74147, Note_on_c, 0, 64, 0
2, 74150, Control_c, 0, 7, 108
2, 74165, Control_c, 0, 7, 117
2, 74170, Control_c, 0, 7, 115
2, 74171, Control_c, 0, 7, 116
2, 74172, Control_c, 0, 7, 117
2, 74173, Control_c, 0, 7, 118
2, 74174, Control_c, 0, 7, 119
2, 74175, Control_c, 0, 7, 120
2, 74176, Control_c, 0, 7, 121
2, 74177, Control_c, 0, 7, 122
2, 74178, Control_c, 0, 7, 123
2, 74179, Control_c, 0, 7, 124
2, 74268, Program_c, 0, 19
2, 74268, Note_on_c, 0, 61, 80
2, 74314, Note_on_c, 0, 61, 0
2, 74388, Note_on_c, 0, 62, 80
2, 74436, Note_on_c, 0, 62, 0
2, 74504, Note_on_c, 0, 64, 80
2, 74632, Note_on_c, 0, 57, 80
2, 74642, Note_on_c, 0, 64, 0
2, 74678, Note_on_c, 0, 57, 0
2, 74744, Note_on_c, 0, 56, 80
2, 74784, Note_on_c, 0, 56, 0
2, 74858, Note_on_c, 0, 54, 80
2, 74979, Note_on_c, 0, 56, 80
2, 74981, Note_on_c, 0, 54, 0
2, 75024, Note_on_c, 0, 56, 0
2, 75096, Note_on_c, 0, 57, 80
2, 75149, Note_on_c, 0, 57, 0
2, 75232, Note_on_c, 0, 56, 80
2, 75361, Note_on_c, 0, 56, 0
2, 75361, Note_on_c, 0, 59, 80
2, 75362, Note_on_c, 0, 68, 80
2, 75410, Note_on_c, 0, 68, 0
2, 75411, Note_on_c, 0, 59, 0
2, 75465, Note_on_c, 0, 57, 80
2, 75467, Note_on_c, 0, 69, 80
2, 75509, Note_on_c, 0, 69, 0
2, 75521, Note_on_c, 0, 57, 0
2, 75577, Note_on_c, 0, 71, 80
2, 75589, Note_on_c, 0, 56, 80
2, 75696, Note_on_c, 0, 57, 80
2, 75699, Note_on_c, 0, 64, 80
2, 75700, Note_on_c, 0, 71, 0
2, 75710, Note_on_c, 0, 56, 0
2, 75738, Note_on_c, 0, 57, 0
2, 75739, Note_on_c, 0, 64, 0
2, 75806, Note_on_c, 0, 59, 80
2, 75810, Note_on_c, 0, 62, 80
2, 75862, Note_on_c, 0, 62, 0
2, 75886, Note_on_c, 0, 59, 0
2, 75922, Note_on_c, 0, 57, 80
2, 75930, Note_on_c, 0, 61, 80
2, 76044, Note_on_c, 0, 59, 80
2, 76046, Note_on_c, 0, 57, 0
2, 76056, Note_on_c, 0, 63, 80
2, 76065, Note_on_c, 0, 61, 0
2, 76114, Note_on_c, 0, 59, 0
2, 76116, Note_on_c, 0, 63, 0
2, 76162, Note_on_c, 0, 56, 80
2, 76170, Note_on_c, 0, 64, 80
2, 76247, Note_on_c, 0, 56, 0
2, 76259, Note_on_c, 0, 64, 0
2, 76287, Note_on_c, 0, 57, 80
2, 76288, Note_on_c, 0, 63, 80
2, 76407, Note_on_c, 0, 66, 80
2, 76409, Note_on_c, 0, 63, 0
2, 76425, Note_on_c, 0, 75, 80
2, 76471, Note_on_c, 0, 66, 0
2, 76500, Note_on_c, 0, 75, 0
2, 76531, Note_on_c, 0, 64, 80
2, 76534, Note_on_c, 0, 76, 80
2, 76577, Note_on_c, 0, 64, 0
2, 76580, Note_on_c, 0, 76, 0
2, 76653, Note_on_c, 0, 63, 80
2, 76659, Note_on_c, 0, 78, 80
2, 76774, Note_on_c, 0, 69, 80
2, 76775, Note_on_c, 0, 78, 0
2, 76776, Note_on_c, 0, 54, 80
2, 76785, Note_on_c, 0, 57, 0
2, 76829, Note_on_c, 0, 63, 0
2, 76848, Note_on_c, 0, 69, 0
2, 76888, Note_on_c, 0, 68, 80
2, 76895, Note_on_c, 0, 64, 80
2, 76897, Note_on_c, 0, 56, 80
2, 76898, Note_on_c, 0, 54, 0
2, 76930, Note_on_c, 0, 64, 0
2, 76932, Note_on_c, 0, 68, 0
2, 77002, Note_on_c, 0, 66, 80
2, 77006, Note_on_c, 0, 56, 0
2, 77009, Note_on_c, 0, 57, 80
2, 77010, Note_on_c, 0, 64, 80
2, 77124, Note_on_c, 0, 56, 80
2, 77131, Note_on_c, 0, 68, 80
2, 77133, Note_on_c, 0, 57, 0
2, 77142, Note_on_c, 0, 66, 0
2, 77158, Note_on_c, 0, 64, 0
2, 77180, Note_on_c, 0, 68, 0
2, 77240, Note_on_c, 0, 63, 80
2, 77241, Note_on_c, 0, 56, 0
2, 77242, Note_on_c, 0, 54, 80
2, 77251, Note_on_c, 0, 69, 80
2, 77297, Note_on_c, 0, 54, 0
2, 77299, Note_on_c, 0, 63, 0
2, 77344, Note_on_c, 0, 69, 0
2, 77364, Note_on_c, 0, 59, 80
2, 77381, Note_on_c, 0, 68, 80
2, 77487, Note_on_c, 0, 64, 80
2, 77492, Note_on_c, 0, 68, 0
2, 77506, Note_on_c, 0, 80, 80
2, 77543, Note_on_c, 0, 64, 0
2, 77608, Note_on_c, 0, 66, 80
2, 77623, Note_on_c, 0, 81, 80
2, 77629, Note_on_c, 0, 80, 0
2, 77648, Note_on_c, 0, 66, 0
2, 77680, Note_on_c, 0, 81, 0
2, 77732, Note_on_c, 0, 68, 80
2, 77744, Note_on_c, 0, 59, 0
2, 77748, Note_on_c, 0, 83, 80
2, 77855, Note_on_c, 0, 59, 80
2, 77865, Note_on_c, 0, 74, 80
2, 77867, Note_on_c, 0, 83, 0
2, 77877, Note_on_c, 0, 68, 0
2, 77944, Note_on_c, 0, 74, 0
2, 77973, Note_on_c, 0, 69, 80
2, 77974, Note_on_c, 0, 61, 80
2, 77975, Note_on_c, 0, 59, 0
2, 77983, Note_on_c, 0, 73, 80
2, 78018, Note_on_c, 0, 69, 0
2, 78024, Note_on_c, 0, 73, 0
2, 78048, Note_on_c, 0, 61, 0
2, 78099, Note_on_c, 0, 69, 80
2, 78102, Note_on_c, 0, 71, 80
2, 78104, Note_on_c, 0, 62, 80
2, 78218, Note_on_c, 0, 61, 80
2, 78229, Note_on_c, 0, 73, 80
2, 78230, Note_on_c, 0, 62, 0
2, 78233, Note_on_c, 0, 71, 0
2, 78264, Note_on_c, 0, 69, 0
2, 78318, Note_on_c, 0, 73, 0
2, 78342, Note_on_c, 0, 74, 80
2, 78344, Note_on_c, 0, 68, 80
2, 78346, Note_on_c, 0, 59, 80
2, 78347, Note_on_c, 0, 61, 0
2, 78391, Note_on_c, 0, 68, 0
2, 78399, Note_on_c, 0, 74, 0
2, 78466, Note_on_c, 0, 59, 0
2, 78468, Note_on_c, 0, 57, 80
2, 78469, Note_on_c, 0, 73, 80
2, 78470, Note_on_c, 0, 69, 80
2, 78561, Note_on_c, 0, 69, 0
2, 78566, Note_on_c, 0, 57, 0
2, 78593, Note_on_c, 0, 73, 0
2, 78594, Note_on_c, 0, 61, 80
2, 78594, Note_on_c, 0, 69, 80
2, 78644, Note_on_c, 0, 69, 0
2, 78664, Note_on_c, 0, 61, 0
2, 78706, Note_on_c, 0, 62, 80
2, 78717, Note_on_c, 0, 71, 80
2, 78761, Note_on_c, 0, 71, 0
2, 78765, Note_on_c, 0, 62, 0
2, 78831, Note_on_c, 0, 64, 80
2, 78849, Note_on_c, 0, 73, 80
2, 78954, Note_on_c, 0, 57, 80
2, 78955, Note_on_c, 0, 64, 0
2, 78963, Note_on_c, 0, 73, 0
2, 78963, Note_on_c, 0, 66, 80
2, 78966, Note_on_c, 0, 74, 80
2, 79024, Note_on_c, 0, 57, 0
2, 79028, Note_on_c, 0, 74, 0
2, 79074, Note_on_c, 0, 56, 80
2, 79086, Note_on_c, 0, 68, 80
2, 79088, Note_on_c, 0, 76, 80
2, 79097, Note_on_c, 0, 66, 0
2, 79138, Note_on_c, 0, 56, 0
2, 79143, Note_on_c, 0, 76, 0
2, 79203, Note_on_c, 0, 54, 80
2, 79213, Note_on_c, 0, 69, 80
2, 79214, Note_on_c, 0, 68, 0
2, 79215, Note_on_c, 0, 74, 80
2, 79321, Note_on_c, 0, 56, 80
2, 79328, Note_on_c, 0, 68, 80
2, 79337, Note_on_c, 0, 69, 0
2, 79338, Note_on_c, 0, 54, 0
2, 79375, Note_on_c, 0, 68, 0
2, 79380, Note_on_c, 0, 56, 0
2, 79443, Note_on_c, 0, 57, 80
2, 79447, Note_on_c, 0, 66, 80
2, 79489, Note_on_c, 0, 66, 0
2, 79507, Note_on_c, 0, 57, 0
2, 79565, Note_on_c, 0, 64, 80
2, 79569, Note_on_c, 0, 56, 80
2, 79570, Note_on_c, 0, 64, 80
2, 79580, Note_on_c, 0, 74, 0
2, 79676, Note_on_c, 0, 73, 80
2, 79678, Note_on_c, 0, 64, 0
2, 79687, Note_on_c, 0, 57, 80
2, 79692, Note_on_c, 0, 56, 0
2, 79714, Note_on_c, 0, 64, 0
2, 79738, Note_on_c, 0, 73, 0
2, 79792, Note_on_c, 0, 57, 0
2, 79793, Note_on_c, 0, 62, 80
2, 79795, Note_on_c, 0, 74, 80
2, 79795, Note_on_c, 0, 59, 80
2, 79842, Note_on_c, 0, 62, 0
2, 79844, Note_on_c, 0, 74, 0
2, 79881, Note_on_c, 0, 59, 0
2, 79910, Note_on_c, 0, 76, 80
2, 79912, Note_on_c, 0, 61, 80
2, 79915, Note_on_c, 0, 57, 80
2, 80009, Note_on_c, 0, 61, 0
2, 80009, Note_on_c, 0, 57, 0
2, 80022, Note_on_c, 0, 59, 80
2, 80023, Note_on_c, 0, 62, 80
2, 80028, Note_on_c, 0, 71, 80
2, 80031, Note_on_c, 0, 76, 0
2, 80085, Note_on_c, 0, 62, 0
2, 80092, Note_on_c, 0, 71, 0
2, 80093, Note_on_c, 0, 59, 0
2, 80140, Note_on_c, 0, 61, 80
2, 80142, Note_on_c, 0, 64, 80
2, 80143, Note_on_c, 0, 69, 80
2, 80190, Note_on_c, 0, 61, 0
2, 80210, Note_on_c, 0, 69, 0
2, 80260, Note_on_c, 0, 59, 80
2, 80266, Note_on_c, 0, 68, 80
2, 80376, Note_on_c, 0, 57, 80
2, 80379, Note_on_c, 0, 59, 0
2, 80387, Note_on_c, 0, 68, 0
2, 80389, Note_on_c, 0, 69, 80
2, 80449, Note_on_c, 0, 69, 0
2, 80454, Note_on_c, 0, 57, 0
2, 80502, Note_on_c, 0, 56, 80
2, 80513, Note_on_c, 0, 71, 80
2, 80554, Note_on_c, 0, 56, 0
2, 80572, Note_on_c, 0, 71, 0
2, 80618, Note_on_c, 0, 57, 80
2, 80632, Note_on_c, 0, 69, 80
2, 80741, Note_on_c, 0, 64, 0
2, 80752, Note_on_c, 0, 62, 80
2, 80754, Note_on_c, 0, 71, 80
2, 80766, Note_on_c, 0, 69, 0
2, 80812, Note_on_c, 0, 71, 0
2, 80866, Note_on_c, 0, 62, 0
2, 80868, Note_on_c, 0, 64, 80
2, 80873, Note_on_c, 0, 73, 80
2, 80913, Note_on_c, 0, 73, 0
2, 80948, Note_on_c, 0, 64, 0
2, 80988, Note_on_c, 0, 66, 80
2, 80994, Note_on_c, 0, 74, 80
2, 81088, Note_on_c, 0, 66, 0
2, 81103, Note_on_c, 0, 57, 0
2, 81106, Note_on_c, 0, 56, 80
2, 81108, Note_on_c, 0, 59, 80
2, 81114, Note_on_c, 0, 76, 80
2, 81124, Note_on_c, 0, 74, 0
2, 81166, Note_on_c, 0, 76, 0
2, 81186, Note_on_c, 0, 56, 0
2, 81186, Note_on_c, 0, 59, 0
2, 81223, Note_on_c, 0, 54, 80
2, 81226, Note_on_c, 0, 57, 80
2, 81232, Note_on_c, 0, 78, 80
2, 81283, Note_on_c, 0, 78, 0
2, 81298, Note_on_c, 0, 57, 0
2, 81304, Note_on_c, 0, 54, 0
2, 81349, Note_on_c, 0, 56, 80
2, 81358, Note_on_c, 0, 76, 80
2, 81475, Note_on_c, 0, 57, 80
2, 81482, Note_on_c, 0, 78, 80
2, 81488, Note_on_c, 0, 76, 0
2, 81526, Note_on_c, 0, 57, 0
2, 81526, Note_on_c, 0, 78, 0
2, 81590, Note_on_c, 0, 59, 80
2, 81602, Note_on_c, 0, 74, 80
2, 81636, Note_on_c, 0, 56, 0
2, 81637, Note_on_c, 0, 74, 0
2, 81667, Note_on_c, 0, 59, 0
2, 81712, Note_on_c, 0, 52, 80
2, 81717, Note_on_c, 0, 73, 80
2, 81837, Note_on_c, 0, 57, 80
2, 81941, Note_on_c, 0, 57, 0
2, 81942, Note_on_c, 0, 55, 80
2, 81944, Note_on_c, 0, 52, 0
2, 81961, Note_on_c, 0, 64, 80
2, 81969, Note_on_c, 0, 73, 0
2, 82008, Note_on_c, 0, 64, 0
2, 82063, Note_on_c, 0, 55, 0
2, 82064, Note_on_c, 0, 54, 80
2, 82088, Note_on_c, 0, 69, 80
2, 82182, Note_on_c, 0, 54, 0
2, 82185, Note_on_c, 0, 59, 80
2, 82203, Note_on_c, 0, 74, 80
2, 82283, Note_on_c, 0, 74, 0
2, 82292, Note_on_c, 0, 59, 0
2, 82312, Note_on_c, 0, 61, 80
2, 82317, Note_on_c, 0, 67, 80
2, 82318, Note_on_c, 0, 76, 80
2, 82324, Note_on_c, 0, 69, 0
2, 82368, Note_on_c, 0, 76, 0
2, 82369, Note_on_c, 0, 61, 0
2, 82437, Note_on_c, 0, 78, 80
2, 82437, Note_on_c, 0, 66, 80
2, 82438, Note_on_c, 0, 62, 80
2, 82445, Note_on_c, 0, 67, 0
2, 82518, Note_on_c, 0, 66, 0
2, 82547, Note_on_c, 0, 62, 0
2, 82550, Note_on_c, 0, 78, 0
2, 82553, Note_on_c, 0, 81, 80
2, 82553, Note_on_c, 0, 61, 80
2, 82556, Note_on_c, 0, 64, 80
2, 82628, Note_on_c, 0, 61, 0
2, 82628, Note_on_c, 0, 64, 0
2, 82652, Note_on_c, 0, 81, 0
2, 82659, Note_on_c, 0, 62, 80
2, 82661, Note_on_c, 0, 59, 80
2, 82662, Note_on_c, 0, 80, 80
2, 82717, Note_on_c, 0, 80, 0
2, 82726, Note_on_c, 0, 62, 0
2, 82728, Note_on_c, 0, 59, 0
2, 82776, Note_on_c, 0, 81, 80
2, 82785, Note_on_c, 0, 61, 80
2, 82786, Note_on_c, 0, 64, 80
2, 82902, Note_on_c, 0, 81, 0
2, 82903, Note_on_c, 0, 76, 80
2, 82943, Note_on_c, 0, 76, 0
2, 83017, Note_on_c, 0, 73, 80
2, 83046, Note_on_c, 0, 73, 0
2, 83131, Note_on_c, 0, 69, 80
2, 83136, Note_on_c, 0, 61, 0
2, 83138, Note_on_c, 0, 64, 0
2, 83260, Note_on_c, 0, 64, 80
2, 83317, Note_on_c, 0, 64, 0
2, 83379, Note_on_c, 0, 61, 80
2, 83426, Note_on_c, 0, 61, 0
2, 83458, Note_on_c, 0, 69, 0
2, 83507, Note_on_c, 0, 57, 80
2, 83779, Note_on_c, 0, 57, 0
2, 83987, Note_on_c, 0, 73, 80
2, 84085, Note_on_c, 0, 73, 0
2, 84105, Note_on_c, 0, 74, 80
2, 84153, Note_on_c, 0, 74, 0
2, 84224, Note_on_c, 0, 76, 80
2, 84337, Note_on_c, 0, 76, 0
2, 84341, Note_on_c, 0, 69, 80
2, 84396, Note_on_c, 0, 69, 0
2, 84461, Note_on_c, 0, 68, 80
2, 84507, Note_on_c, 0, 68, 0
2, 84581, Note_on_c, 0, 66, 80
2, 84699, Note_on_c, 0, 68, 80
2, 84714, Note_on_c, 0, 66, 0
2, 84752, Note_on_c, 0, 68, 0
2, 84817, Note_on_c, 0, 69, 80
2, 84880, Note_on_c, 0, 69, 0
2, 84943, Note_on_c, 0, 68, 80
2, 85065, Note_on_c, 0, 68, 0
2, 85068, Note_on_c, 0, 71, 80
2, 85071, Note_on_c, 0, 80, 80
2, 85165, Note_on_c, 0, 71, 0
2, 85171, Note_on_c, 0, 80, 0
2, 85181, Note_on_c, 0, 81, 80
2, 85183, Note_on_c, 0, 69, 80
2, 85216, Note_on_c, 0, 81, 0
2, 85238, Note_on_c, 0, 69, 0
2, 85293, Note_on_c, 0, 68, 80
2, 85297, Note_on_c, 0, 83, 80
2, 85410, Note_on_c, 0, 69, 80
2, 85413, Note_on_c, 0, 68, 0
2, 85420, Note_on_c, 0, 83, 0
2, 85420, Note_on_c, 0, 76, 80
2, 85482, Note_on_c, 0, 69, 0
2, 85482, Note_on_c, 0, 76, 0
2, 85526, Note_on_c, 0, 71, 80
2, 85538, Note_on_c, 0, 74, 80
2, 85601, Note_on_c, 0, 71, 0
2, 85619, Note_on_c, 0, 74, 0
2, 85648, Note_on_c, 0, 69, 80
2, 85658, Note_on_c, 0, 73, 80
2, 85776, Note_on_c, 0, 71, 80
2, 85783, Note_on_c, 0, 69, 0
2, 85783, Note_on_c, 0, 75, 80
2, 85792, Note_on_c, 0, 73, 0
2, 85848, Note_on_c, 0, 75, 0
2, 85856, Note_on_c, 0, 71, 0
2, 85892, Note_on_c, 0, 68, 80
2, 85903, Note_on_c, 0, 76, 80
2, 85966, Note_on_c, 0, 76, 0
2, 85977, Note_on_c, 0, 68, 0
2, 86024, Note_on_c, 0, 75, 80
2, 86025, Note_on_c, 0, 69, 80
2, 86149, Note_on_c, 0, 78, 80
2, 86152, Note_on_c, 0, 63, 80
2, 86154, Note_on_c, 0, 75, 0
2, 86208, Note_on_c, 0, 78, 0
2, 86212, Note_on_c, 0, 63, 0
2, 86259, Note_on_c, 0, 64, 80
2, 86262, Note_on_c, 0, 76, 80
2, 86298, Note_on_c, 0, 76, 0
2, 86317, Note_on_c, 0, 64, 0
2, 86376, Note_on_c, 0, 66, 80
2, 86380, Note_on_c, 0, 75, 80
2, 86479, Note_on_c, 0, 66, 0
2, 86501, Note_on_c, 0, 57, 80
2, 86502, Note_on_c, 0, 66, 80
2, 86520, Note_on_c, 0, 75, 0
2, 86529, Note_on_c, 0, 69, 0
2, 86557, Note_on_c, 0, 57, 0
2, 86615, Note_on_c, 0, 76, 80
2, 86616, Note_on_c, 0, 66, 0
2, 86617, Note_on_c, 0, 68, 80
2, 86618, Note_on_c, 0, 56, 80
2, 86652, Note_on_c, 0, 76, 0
2, 86677, Note_on_c, 0, 56, 0
2, 86712, Note_on_c, 0, 68, 0
2, 86736, Note_on_c, 0, 54, 80
2, 86744, Note_on_c, 0, 76, 80
2, 86745, Note_on_c, 0, 69, 80
2, 86855, Note_on_c, 0, 56, 80
2, 86862, Note_on_c, 0, 68, 80
2, 86866, Note_on_c, 0, 54, 0
2, 86870, Note_on_c, 0, 69, 0
2, 86909, Note_on_c, 0, 76, 0
2, 86912, Note_on_c, 0, 56, 0
2, 86972, Note_on_c, 0, 57, 80
2, 86981, Note_on_c, 0, 75, 80
2, 86982, Note_on_c, 0, 68, 0
2, 86984, Note_on_c, 0, 66, 80
2, 87026, Note_on_c, 0, 66, 0
2, 87048, Note_on_c, 0, 57, 0
2, 87069, Note_on_c, 0, 75, 0
2, 87098, Note_on_c, 0, 56, 80
2, 87109, Note_on_c, 0, 71, 80
2, 87146, Note_on_c, 0, 56, 0
2, 87229, Note_on_c, 0, 76, 80
2, 87231, Note_on_c, 0, 68, 80
2, 87280, Note_on_c, 0, 68, 0
2, 87287, Note_on_c, 0, 76, 0
2, 87341, Note_on_c, 0, 69, 80
2, 87349, Note_on_c, 0, 78, 80
2, 87371, Note_on_c, 0, 71, 0
2, 87388, Note_on_c, 0, 78, 0
2, 87406, Note_on_c, 0, 69, 0
2, 87463, Note_on_c, 0, 71, 80
2, 87471, Note_on_c, 0, 80, 80
2, 87546, Note_on_c, 0, 71, 0
2, 87578, Note_on_c, 0, 62, 80
2, 87599, Note_on_c, 0, 71, 80
2, 87612, Note_on_c, 0, 80, 0
2, 87641, Note_on_c, 0, 62, 0
2, 87701, Note_on_c, 0, 61, 80
2, 87714, Note_on_c, 0, 81, 80
2, 87718, Note_on_c, 0, 73, 80
2, 87724, Note_on_c, 0, 71, 0
2, 87750, Note_on_c, 0, 81, 0
2, 87762, Note_on_c, 0, 61, 0
2, 87832, Note_on_c, 0, 59, 80
2, 87844, Note_on_c, 0, 81, 80
2, 87846, Note_on_c, 0, 73, 0
2, 87846, Note_on_c, 0, 74, 80
2, 87956, Note_on_c, 0, 61, 80
2, 87961, Note_on_c, 0, 73, 80
2, 87973, Note_on_c, 0, 74, 0
2, 87977, Note_on_c, 0, 59, 0
2, 87988, Note_on_c, 0, 81, 0
2, 88009, Note_on_c, 0, 61, 0
2, 88072, Note_on_c, 0, 62, 80
2, 88081, Note_on_c, 0, 73, 0
2, 88082, Note_on_c, 0, 80, 80
2, 88082, Note_on_c, 0, 71, 80
2, 88133, Note_on_c, 0, 80, 0
2, 88138, Note_on_c, 0, 62, 0
2, 88197, Note_on_c, 0, 61, 80
2, 88207, Note_on_c, 0, 71, 0
2, 88208, Note_on_c, 0, 69, 80
2, 88210, Note_on_c, 0, 81, 80
2, 88288, Note_on_c, 0, 81, 0
2, 88292, Note_on_c, 0, 61, 0
2, 88320, Note_on_c, 0, 73, 80
2, 88322, Note_on_c, 0, 69, 0
2, 88324, Note_on_c, 0, 57, 80
2, 88386, Note_on_c, 0, 57, 0
2, 88395, Note_on_c, 0, 73, 0
2, 88432, Note_on_c, 0, 74, 80
2, 88434, Note_on_c, 0, 59, 80
2, 88502, Note_on_c, 0, 74, 0
2, 88509, Note_on_c, 0, 59, 0
2, 88553, Note_on_c, 0, 61, 80
2, 88555, Note_on_c, 0, 76, 80
2, 88660, Note_on_c, 0, 76, 0
2, 88670, Note_on_c, 0, 69, 80
2, 88671, Note_on_c, 0, 78, 80
2, 88672, Note_on_c, 0, 62, 80
2, 88673, Note_on_c, 0, 61, 0
2, 88714, Note_on_c, 0, 62, 0
2, 88745, Note_on_c, 0, 69, 0
2, 88746, Note_on_c, 0, 78, 0
2, 88785, Note_on_c, 0, 80, 80
2, 88790, Note_on_c, 0, 68, 80
2, 88792, Note_on_c, 0, 64, 80
2, 88835, Note_on_c, 0, 80, 0
2, 88840, Note_on_c, 0, 68, 0
2, 88849, Note_on_c, 0, 64, 0
2, 88899, Note_on_c, 0, 66, 80
2, 88902, Note_on_c, 0, 62, 80
2, 88902, Note_on_c, 0, 81, 80
2, 89021, Note_on_c, 0, 68, 80
2, 89022, Note_on_c, 0, 66, 0
2, 89026, Note_on_c, 0, 80, 80
2, 89033, Note_on_c, 0, 81, 0
2, 89070, Note_on_c, 0, 80, 0
2, 89088, Note_on_c, 0, 68, 0
2, 89139, Note_on_c, 0, 69, 80
2, 89145, Note_on_c, 0, 78, 80
2, 89180, Note_on_c, 0, 78, 0
2, 89211, Note_on_c, 0, 69, 0
2, 89254, Note_on_c, 0, 68, 80
2, 89264, Note_on_c, 0, 76, 80
2, 89307, Note_on_c, 0, 68, 0
2, 89368, Note_on_c, 0, 62, 0
2, 89376, Note_on_c, 0, 61, 80
2, 89383, Note_on_c, 0, 69, 80
2, 89489, Note_on_c, 0, 61, 0
2, 89497, Note_on_c, 0, 62, 80
2, 89501, Note_on_c, 0, 69, 0
2, 89508, Note_on_c, 0, 74, 80
2, 89510, Note_on_c, 0, 76, 0
2, 89510, Note_on_c, 0, 71, 80
2, 89560, Note_on_c, 0, 74, 0
2, 89584, Note_on_c, 0, 62, 0
2, 89606, Note_on_c, 0, 71, 0
2, 89617, Note_on_c, 0, 64, 80
2, 89625, Note_on_c, 0, 73, 80
2, 89626, Note_on_c, 0, 69, 80
2, 89730, Note_on_c, 0, 64, 0
2, 89733, Note_on_c, 0, 59, 80
2, 89741, Note_on_c, 0, 73, 0
2, 89744, Note_on_c, 0, 71, 80
2, 89747, Note_on_c, 0, 74, 80
2, 89748, Note_on_c, 0, 69, 0
2, 89808, Note_on_c, 0, 71, 0
2, 89809, Note_on_c, 0, 59, 0
2, 89811, Note_on_c, 0, 74, 0
2, 89856, Note_on_c, 0, 57, 80
2, 89868, Note_on_c, 0, 73, 80
2, 89870, Note_on_c, 0, 76, 80
2, 89921, Note_on_c, 0, 73, 0
2, 89928, Note_on_c, 0, 57, 0
2, 89984, Note_on_c, 0, 56, 80
2, 89988, Note_on_c, 0, 71, 80
2, 90105, Note_on_c, 0, 57, 80
2, 90109, Note_on_c, 0, 69, 80
2, 90114, Note_on_c, 0, 71, 0
2, 90116, Note_on_c, 0, 56, 0
2, 90162, Note_on_c, 0, 69, 0
2, 90198, Note_on_c, 0, 57, 0
2, 90224, Note_on_c, 0, 59, 80
2, 90225, Note_on_c, 0, 68, 80
2, 90264, Note_on_c, 0, 68, 0
2, 90289, Note_on_c, 0, 59, 0
2, 90343, Note_on_c, 0, 57, 80
2, 90347, Note_on_c, 0, 69, 80
2, 90362, Note_on_c, 0, 76, 0
2, 90465, Note_on_c, 0, 59, 80
2, 90466, Note_on_c, 0, 57, 0
2, 90472, Note_on_c, 0, 74, 80
2, 90524, Note_on_c, 0, 74, 0
2, 90533, Note_on_c, 0, 59, 0
2, 90581, Note_on_c, 0, 61, 80
2, 90589, Note_on_c, 0, 76, 80
2, 90636, Note_on_c, 0, 61, 0
2, 90673, Note_on_c, 0, 76, 0
2, 90699, Note_on_c, 0, 62, 80
2, 90712, Note_on_c, 0, 78, 80
2, 90819, Note_on_c, 0, 64, 80
2, 90824, Note_on_c, 0, 62, 0
2, 90825, Note_on_c, 0, 68, 80
2, 90826, Note_on_c, 0, 71, 80
2, 90828, Note_on_c, 0, 78, 0
2, 90829, Note_on_c, 0, 69, 0
2, 90889, Note_on_c, 0, 71, 0
2, 90907, Note_on_c, 0, 64, 0
2, 90936, Note_on_c, 0, 68, 0
2, 90940, Note_on_c, 0, 66, 80
2, 90940, Note_on_c, 0, 66, 80
2, 90941, Note_on_c, 0, 69, 80
2, 90983, Note_on_c, 0, 66, 0
2, 91008, Note_on_c, 0, 66, 0
2, 91057, Note_on_c, 0, 64, 80
2, 91059, Note_on_c, 0, 68, 80
2, 91065, Note_on_c, 0, 69, 0
2, 91176, Note_on_c, 0, 68, 0
2, 91178, Note_on_c, 0, 69, 80
2, 91179, Note_on_c, 0, 66, 80
2, 91181, Note_on_c, 0, 64, 0
2, 91227, Note_on_c, 0, 69, 0
2, 91283, Note_on_c, 0, 66, 0
2, 91294, Note_on_c, 0, 71, 80
2, 91299, Note_on_c, 0, 62, 80
2, 91353, Note_on_c, 0, 71, 0
2, 91367, Note_on_c, 0, 62, 0
2, 91409, Note_on_c, 0, 64, 80
2, 91421, Note_on_c, 0, 73, 80
2, 91539, Note_on_c, 0, 69, 80
2, 91613, Note_on_c, 0, 69, 0
2, 91652, Note_on_c, 0, 67, 80
2, 91704, Note_on_c, 0, 67, 0
2, 91760, Note_on_c, 0, 64, 0
2, 91769, Note_on_c, 0, 66, 80
2, 91888, Note_on_c, 0, 66, 0
2, 91901, Note_on_c, 0, 71, 80
2, 91912, Note_on_c, 0, 81, 80
2, 91960, Note_on_c, 0, 81, 0
2, 91984, Note_on_c, 0, 71, 0
2, 92012, Note_on_c, 0, 73, 80
2, 92031, Note_on_c, 0, 79, 80
2, 92042, Note_on_c, 0, 73, 0
2, 92068, Note_on_c, 0, 79, 0
2, 92136, Note_on_c, 0, 73, 0
2, 92153, Note_on_c, 0, 78, 80
2, 92155, Note_on_c, 0, 74, 80
2, 92269, Note_on_c, 0, 76, 80
2, 92270, Note_on_c, 0, 73, 80
2, 92272, Note_on_c, 0, 74, 0
2, 92279, Note_on_c, 0, 78, 0
2, 92315, Note_on_c, 0, 76, 0
2, 92317, Note_on_c, 0, 73, 0
2, 92380, Note_on_c, 0, 74, 80
2, 92381, Note_on_c, 0, 71, 80
2, 92416, Note_on_c, 0, 74, 0
2, 92425, Note_on_c, 0, 71, 0
2, 92503, Note_on_c, 0, 69, 80
2, 92503, Note_on_c, 0, 73, 80
2, 92618, Note_on_c, 0, 57, 80
2, 92618, Note_on_c, 0, 74, 80
2, 92619, Note_on_c, 0, 73, 0
2, 92654, Note_on_c, 0, 74, 0
2, 92706, Note_on_c, 0, 57, 0
2, 92727, Note_on_c, 0, 55, 80
2, 92738, Note_on_c, 0, 76, 80
2, 92839, Note_on_c, 0, 55, 0
2, 92845, Note_on_c, 0, 54, 80
2, 92926, Note_on_c, 0, 76, 0
2, 92938, Note_on_c, 0, 54, 0
2, 92963, Note_on_c, 0, 59, 80
2, 92963, Note_on_c, 0, 74, 80
2, 92964, Note_on_c, 0, 66, 80
2, 93027, Note_on_c, 0, 66, 0
2, 93049, Note_on_c, 0, 74, 0
2, 93051, Note_on_c, 0, 59, 0
2, 93092, Note_on_c, 0, 61, 80
2, 93095, Note_on_c, 0, 64, 80
2, 93112, Note_on_c, 0, 76, 80
2, 93152, Note_on_c, 0, 76, 0
2, 93211, Note_on_c, 0, 61, 0
2, 93214, Note_on_c, 0, 62, 80
2, 93216, Note_on_c, 0, 64, 0
2, 93232, Note_on_c, 0, 78, 80
2, 93332, Note_on_c, 0, 61, 80
2, 93386, Note_on_c, 0, 69, 0
2, 93400, Note_on_c, 0, 61, 0
2, 93430, Note_on_c, 0, 78, 0
2, 93455, Note_on_c, 0, 59, 80
2, 93469, Note_on_c, 0, 80, 80
2, 93470, Note_on_c, 0, 71, 80
2, 93505, Note_on_c, 0, 80, 0
2, 93511, Note_on_c, 0, 71, 0
2, 93513, Note_on_c, 0, 59, 0
2, 93589, Note_on_c, 0, 64, 80
2, 93591, Note_on_c, 0, 57, 80
2, 93600, Note_on_c, 0, 62, 0
2, 93600, Note_on_c, 0, 73, 80
2, 93601, Note_on_c, 0, 81, 80
2, 93780, Note_on_c, 0, 64, 0
2, 93781, Note_on_c, 0, 57, 0
2, 93829, Note_on_c, 0, 81, 0
2, 93830, Note_on_c, 0, 73, 0
2, 93848, Note_on_c, 0, 61, 80
2, 93894, Note_on_c, 0, 61, 0
2, 93967, Note_on_c, 0, 61, 80
2, 94080, Note_on_c, 0, 57, 80
2, 94085, Note_on_c, 0, 61, 0
2, 94118, Note_on_c, 0, 57, 0
2, 94193, Note_on_c, 0, 61, 80
2, 94234, Note_on_c, 0, 61, 0
2, 94315, Note_on_c, 0, 61, 80
2, 94433, Note_on_c, 0, 56, 80
2, 94446, Note_on_c, 0, 61, 0
2, 94472, Note_on_c, 0, 56, 0
2, 94550, Note_on_c, 0, 61, 80
2, 94591, Note_on_c, 0, 61, 0
2, 94671, Note_on_c, 0, 57, 80
2, 94791, Note_on_c, 0, 54, 80
2, 94800, Note_on_c, 0, 57, 0
2, 94833, Note_on_c, 0, 54, 0
2, 94896, Note_on_c, 0, 66, 80
2, 94910, Note_on_c, 0, 58, 80
2, 94924, Note_on_c, 0, 66, 0
2, 94951, Note_on_c, 0, 58, 0
2, 95021, Note_on_c, 0, 59, 80
2, 95026, Note_on_c, 0, 66, 80
2, 95147, Note_on_c, 0, 63, 80
2, 95152, Note_on_c, 0, 66, 0
2, 95180, Note_on_c, 0, 63, 0
2, 95219, Note_on_c, 0, 59, 0
2, 95265, Note_on_c, 0, 66, 80
2, 95293, Note_on_c, 0, 66, 0
2, 95370, Note_on_c, 0, 58, 80
2, 95384, Note_on_c, 0, 66, 80
2, 95501, Note_on_c, 0, 58, 0
2, 95502, Note_on_c, 0, 66, 0
2, 95505, Note_on_c, 0, 61, 80
2, 95533, Note_on_c, 0, 61, 0
2, 95612, Note_on_c, 0, 66, 80
2, 95645, Note_on_c, 0, 66, 0
2, 95727, Note_on_c, 0, 59, 80
2, 95743, Note_on_c, 0, 63, 80
2, 95829, Note_on_c, 0, 63, 0
2, 95864, Note_on_c, 0, 59, 80
2, 95915, Note_on_c, 0, 59, 0
2, 95930, Note_on_c, 0, 59, 0
2, 95974, Note_on_c, 0, 57, 80
2, 95984, Note_on_c, 0, 71, 80
2, 95986, Note_on_c, 0, 63, 80
2, 96022, Note_on_c, 0, 63, 0
2, 96026, Note_on_c, 0, 71, 0
2, 96045, Note_on_c, 0, 57, 0
2, 96099, Note_on_c, 0, 56, 80
2, 96119, Note_on_c, 0, 71, 80
2, 96120, Note_on_c, 0, 64, 80
2, 96244, Note_on_c, 0, 68, 80
2, 96245, Note_on_c, 0, 71, 0
2, 96279, Note_on_c, 0, 68, 0
2, 96332, Note_on_c, 0, 56, 0
2, 96361, Note_on_c, 0, 71, 80
2, 96381, Note_on_c, 0, 64, 0
2, 96395, Note_on_c, 0, 71, 0
2, 96474, Note_on_c, 0, 59, 80
2, 96486, Note_on_c, 0, 63, 80
2, 96487, Note_on_c, 0, 71, 80
2, 96610, Note_on_c, 0, 66, 80
2, 96613, Note_on_c, 0, 71, 0
2, 96648, Note_on_c, 0, 66, 0
2, 96713, Note_on_c, 0, 59, 0
2, 96728, Note_on_c, 0, 71, 80
2, 96761, Note_on_c, 0, 71, 0
2, 96762, Note_on_c, 0, 63, 0
2, 96833, Note_on_c, 0, 52, 80
2, 96845, Note_on_c, 0, 64, 80
2, 96848, Note_on_c, 0, 68, 80
2, 96918, Note_on_c, 0, 68, 0
2, 96956, Note_on_c, 0, 64, 0
2, 96966, Note_on_c, 0, 64, 80
2, 96988, Note_on_c, 0, 52, 0
2, 97007, Note_on_c, 0, 64, 0
2, 97075, Note_on_c, 0, 52, 80
2, 97080, Note_on_c, 0, 62, 80
2, 97080, Note_on_c, 0, 68, 80
2, 97116, Note_on_c, 0, 52, 0
2, 97117, Note_on_c, 0, 68, 0
2, 97122, Note_on_c, 0, 62, 0
2, 97202, Note_on_c, 0, 52, 80
2, 97204, Note_on_c, 0, 61, 80
2, 97204, Note_on_c, 0, 69, 80
2, 97302, Note_on_c, 0, 61, 0
2, 97303, Note_on_c, 0, 69, 0
2, 97322, Note_on_c, 0, 49, 80
2, 97335, Note_on_c, 0, 52, 0
2, 97357, Note_on_c, 0, 49, 0
2, 97435, Note_on_c, 0, 52, 80
2, 97473, Note_on_c, 0, 52, 0
2, 97551, Note_on_c, 0, 62, 80
2, 97553, Note_on_c, 0, 68, 80
2, 97558, Note_on_c, 0, 52, 80
2, 97662, Note_on_c, 0, 62, 0
2, 97664, Note_on_c, 0, 68, 0
2, 97673, Note_on_c, 0, 47, 80
2, 97685, Note_on_c, 0, 52, 0
2, 97716, Note_on_c, 0, 47, 0
2, 97786, Note_on_c, 0, 52, 80
2, 97834, Note_on_c, 0, 52, 0
2, 97903, Note_on_c, 0, 64, 80
2, 97904, Note_on_c, 0, 69, 80
2, 97906, Note_on_c, 0, 49, 80
2, 98025, Note_on_c, 0, 49, 0
2, 98025, Note_on_c, 0, 45, 80
2, 98041, Note_on_c, 0, 64, 0
2, 98046, Note_on_c, 0, 69, 0
2, 98070, Note_on_c, 0, 45, 0
2, 98137, Note_on_c, 0, 47, 80
2, 98137, Note_on_c, 0, 56, 80
2, 98156, Note_on_c, 0, 76, 80
2, 98187, Note_on_c, 0, 47, 0
2, 98187, Note_on_c, 0, 76, 0
2, 98188, Note_on_c, 0, 56, 0
2, 98268, Note_on_c, 0, 49, 80
2, 98269, Note_on_c, 0, 57, 80
2, 98283, Note_on_c, 0, 76, 80
2, 98381, Note_on_c, 0, 49, 0
2, 98387, Note_on_c, 0, 52, 80
2, 98404, Note_on_c, 0, 73, 80
2, 98415, Note_on_c, 0, 76, 0
2, 98438, Note_on_c, 0, 73, 0
2, 98515, Note_on_c, 0, 50, 80
2, 98519, Note_on_c, 0, 76, 80
2, 98521, Note_on_c, 0, 52, 0
2, 98551, Note_on_c, 0, 76, 0
2, 98600, Note_on_c, 0, 50, 0
2, 98634, Note_on_c, 0, 52, 80
2, 98646, Note_on_c, 0, 76, 80
2, 98762, Note_on_c, 0, 71, 80
2, 98772, Note_on_c, 0, 76, 0
2, 98795, Note_on_c, 0, 71, 0
2, 98857, Note_on_c, 0, 57, 0
2, 98873, Note_on_c, 0, 56, 80
2, 98877, Note_on_c, 0, 76, 80
2, 98886, Note_on_c, 0, 52, 0
2, 98910, Note_on_c, 0, 56, 0
2, 98920, Note_on_c, 0, 76, 0
2, 98999, Note_on_c, 0, 73, 80
2, 98999, Note_on_c, 0, 57, 80
2, 99114, Note_on_c, 0, 61, 80
2, 99122, Note_on_c, 0, 69, 80
2, 99125, Note_on_c, 0, 73, 0
2, 99164, Note_on_c, 0, 69, 0
2, 99239, Note_on_c, 0, 73, 80
2, 99243, Note_on_c, 0, 64, 80
2, 99252, Note_on_c, 0, 61, 0
2, 99267, Note_on_c, 0, 57, 0
2, 99272, Note_on_c, 0, 73, 0
2, 99351, Note_on_c, 0, 57, 80
2, 99364, Note_on_c, 0, 73, 80
2, 99446, Note_on_c, 0, 64, 0
2, 99468, Note_on_c, 0, 61, 80
2, 99480, Note_on_c, 0, 69, 80
2, 99486, Note_on_c, 0, 73, 0
2, 99518, Note_on_c, 0, 69, 0
2, 99524, Note_on_c, 0, 61, 0
2, 99588, Note_on_c, 0, 66, 80
2, 99600, Note_on_c, 0, 73, 80
2, 99629, Note_on_c, 0, 73, 0
2, 99708, Note_on_c, 0, 56, 80
2, 99710, Note_on_c, 0, 57, 0
2, 99726, Note_on_c, 0, 73, 80
2, 99827, Note_on_c, 0, 61, 80
2, 99837, Note_on_c, 0, 68, 80
2, 99846, Note_on_c, 0, 73, 0
2, 99869, Note_on_c, 0, 56, 0
2, 99880, Note_on_c, 0, 68, 0
2, 99892, Note_on_c, 0, 66, 0
2, 99947, Note_on_c, 0, 65, 80
2, 99958, Note_on_c, 0, 73, 80
2, 100000, Note_on_c, 0, 73, 0
2, 100004, Note_on_c, 0, 61, 0
2, 100021, Note_on_c, 0, 65, 0
2, 100070, Note_on_c, 0, 54, 80
2, 100077, Note_on_c, 0, 69, 80
2, 100187, Note_on_c, 0, 61, 80
2, 100193, Note_on_c, 0, 66, 80
2, 100200, Note_on_c, 0, 69, 0
2, 100235, Note_on_c, 0, 61, 0
2, 100239, Note_on_c, 0, 66, 0
2, 100304, Note_on_c, 0, 69, 80
2, 100307, Note_on_c, 0, 66, 80
2, 100344, Note_on_c, 0, 69, 0
2, 100397, Note_on_c, 0, 54, 0
2, 100403, Note_on_c, 0, 66, 0
2, 100420, Note_on_c, 0, 57, 80
2, 100426, Note_on_c, 0, 73, 80
2, 100536, Note_on_c, 0, 61, 80
2, 100544, Note_on_c, 0, 69, 80
2, 100545, Note_on_c, 0, 73, 0
2, 100580, Note_on_c, 0, 61, 0
2, 100582, Note_on_c, 0, 69, 0
2, 100656, Note_on_c, 0, 66, 80
2, 100666, Note_on_c, 0, 73, 80
2, 100712, Note_on_c, 0, 73, 0
2, 100777, Note_on_c, 0, 58, 80
2, 100782, Note_on_c, 0, 66, 0
2, 100786, Note_on_c, 0, 57, 0
2, 100800, Note_on_c, 0, 76, 80
2, 100910, Note_on_c, 0, 61, 80
2, 100916, Note_on_c, 0, 73, 80
2, 100923, Note_on_c, 0, 76, 0
2, 100948, Note_on_c, 0, 73, 0
2, 101000, Note_on_c, 0, 61, 0
2, 101022, Note_on_c, 0, 66, 80
2, 101041, Note_on_c, 0, 76, 80
2, 101086, Note_on_c, 0, 66, 0
2, 101089, Note_on_c, 0, 58, 0
2, 101089, Note_on_c, 0, 76, 0
2, 101151, Note_on_c, 0, 59, 80
2, 101161, Note_on_c, 0, 75, 80
2, 101283, Note_on_c, 0, 71, 80
2, 101284, Note_on_c, 0, 75, 0
2, 101286, Note_on_c, 0, 63, 80
2, 101339, Note_on_c, 0, 71, 0
2, 101345, Note_on_c, 0, 63, 0
2, 101390, Note_on_c, 0, 66, 80
2, 101400, Note_on_c, 0, 75, 80
2, 101426, Note_on_c, 0, 66, 0
2, 101449, Note_on_c, 0, 75, 0
2, 101520, Note_on_c, 0, 63, 80
2, 101523, Note_on_c, 0, 78, 80
2, 101637, Note_on_c, 0, 66, 80
2, 101640, Note_on_c, 0, 75, 80
2, 101644, Note_on_c, 0, 63, 0
2, 101644, Note_on_c, 0, 78, 0
2, 101682, Note_on_c, 0, 75, 0
2, 101688, Note_on_c, 0, 66, 0
2, 101752, Note_on_c, 0, 69, 80
2, 101761, Note_on_c, 0, 78, 80
2, 101798, Note_on_c, 0, 69, 0
2, 101800, Note_on_c, 0, 78, 0
2, 101814, Note_on_c, 0, 59, 0
2, 101874, Note_on_c, 0, 64, 80
2, 101891, Note_on_c, 0, 83, 80
2, 102000, Note_on_c, 0, 64, 0
2, 102000, Note_on_c, 0, 68, 80
2, 102003, Note_on_c, 0, 83, 0
2, 102005, Note_on_c, 0, 71, 80
2, 102061, Note_on_c, 0, 71, 0
2, 102078, Note_on_c, 0, 68, 0
2, 102122, Note_on_c, 0, 64, 80
2, 102125, Note_on_c, 0, 71, 80
2, 102126, Note_on_c, 0, 74, 80
2, 102160, Note_on_c, 0, 74, 0
2, 102161, Note_on_c, 0, 64, 0
2, 102165, Note_on_c, 0, 71, 0
2, 102247, Note_on_c, 0, 64, 80
2, 102248, Note_on_c, 0, 73, 80
2, 102249, Note_on_c, 0, 69, 80
2, 102333, Note_on_c, 0, 73, 0
2, 102338, Note_on_c, 0, 69, 0
2, 102362, Note_on_c, 0, 61, 80
2, 102370, Note_on_c, 0, 76, 80
2, 102375, Note_on_c, 0, 64, 0
2, 102399, Note_on_c, 0, 61, 0
2, 102436, Note_on_c, 0, 76, 0
2, 102482, Note_on_c, 0, 69, 80
2, 102484, Note_on_c, 0, 64, 80
2, 102524, Note_on_c, 0, 64, 0
2, 102530, Note_on_c, 0, 69, 0
2, 102598, Note_on_c, 0, 64, 80
2, 102605, Note_on_c, 0, 71, 80
2, 102716, Note_on_c, 0, 59, 80
2, 102720, Note_on_c, 0, 76, 80
2, 102724, Note_on_c, 0, 71, 0
2, 102731, Note_on_c, 0, 64, 0
2, 102767, Note_on_c, 0, 76, 0
2, 102771, Note_on_c, 0, 59, 0
2, 102834, Note_on_c, 0, 64, 80
2, 102839, Note_on_c, 0, 68, 80
2, 102873, Note_on_c, 0, 68, 0
2, 102881, Note_on_c, 0, 64, 0
2, 102949, Note_on_c, 0, 64, 80
2, 102961, Note_on_c, 0, 69, 80
2, 103069, Note_on_c, 0, 57, 80
2, 103080, Note_on_c, 0, 64, 0
2, 103084, Note_on_c, 0, 75, 80
2, 103093, Note_on_c, 0, 69, 0
2, 103124, Note_on_c, 0, 57, 0
2, 103138, Note_on_c, 0, 75, 0
2, 103195, Note_on_c, 0, 63, 80
2, 103197, Note_on_c, 0, 66, 80
2, 103241, Note_on_c, 0, 63, 0
2, 103245, Note_on_c, 0, 66, 0
2, 103318, Note_on_c, 0, 64, 80
2, 103319, Note_on_c, 0, 68, 80
2, 103418, Note_on_c, 0, 64, 0
2, 103434, Note_on_c, 0, 59, 80
2, 103437, Note_on_c, 0, 68, 0
2, 103485, Note_on_c, 0, 59, 0
2, 103542, Note_on_c, 0, 63, 80
2, 103543, Note_on_c, 0, 57, 80
2, 103555, Note_on_c, 0, 83, 80
2, 103584, Note_on_c, 0, 63, 0
2, 103587, Note_on_c, 0, 83, 0
2, 103589, Note_on_c, 0, 57, 0
2, 103670, Note_on_c, 0, 64, 80
2, 103671, Note_on_c, 0, 56, 80
2, 103672, Note_on_c, 0, 59, 80
2, 103683, Note_on_c, 0, 83, 80
2, 103800, Note_on_c, 0, 80, 80
2, 103809, Note_on_c, 0, 64, 0
2, 103812, Note_on_c, 0, 56, 0
2, 103812, Note_on_c, 0, 59, 0
2, 103813, Note_on_c, 0, 83, 0
2, 103834, Note_on_c, 0, 80, 0
2, 103915, Note_on_c, 0, 83, 80
2, 103954, Note_on_c, 0, 83, 0
2, 104031, Note_on_c, 0, 63, 80
2, 104033, Note_on_c, 0, 54, 80
2, 104034, Note_on_c, 0, 57, 80
2, 104039, Note_on_c, 0, 83, 80
2, 104160, Note_on_c, 0, 78, 80
2, 104162, Note_on_c, 0, 63, 0
2, 104167, Note_on_c, 0, 54, 0
2, 104169, Note_on_c, 0, 57, 0
2, 104171, Note_on_c, 0, 83, 0
2, 104196, Note_on_c, 0, 78, 0
2, 104273, Note_on_c, 0, 83, 80
2, 104321, Note_on_c, 0, 83, 0
2, 104385, Note_on_c, 0, 64, 80
2, 104386, Note_on_c, 0, 59, 80
2, 104387, Note_on_c, 0, 52, 80
2, 104391, Note_on_c, 0, 80, 80
2, 104507, Note_on_c, 0, 76, 80
2, 104508, Note_on_c, 0, 80, 0
2, 104511, Note_on_c, 0, 61, 80
2, 104517, Note_on_c, 0, 59, 0
2, 104546, Note_on_c, 0, 61, 0
2, 104552, Note_on_c, 0, 76, 0
2, 104621, Note_on_c, 0, 62, 80
2, 104625, Note_on_c, 0, 80, 80
2, 104627, Note_on_c, 0, 76, 80
2, 104661, Note_on_c, 0, 62, 0
2, 104661, Note_on_c, 0, 80, 0
2, 104668, Note_on_c, 0, 76, 0
2, 104738, Note_on_c, 0, 61, 80
2, 104740, Note_on_c, 0, 52, 0
2, 104756, Note_on_c, 0, 81, 80
2, 104757, Note_on_c, 0, 76, 80
2, 104855, Note_on_c, 0, 61, 0
2, 104859, Note_on_c, 0, 57, 80
2, 104864, Note_on_c, 0, 64, 0
2, 104880, Note_on_c, 0, 73, 80
2, 104886, Note_on_c, 0, 76, 0
2, 104912, Note_on_c, 0, 73, 0
2, 104974, Note_on_c, 0, 57, 0
2, 104982, Note_on_c, 0, 61, 80
2, 104993, Note_on_c, 0, 76, 80
2, 104998, Note_on_c, 0, 81, 0
2, 105018, Note_on_c, 0, 76, 0
2, 105070, Note_on_c, 0, 61, 0
2, 105111, Note_on_c, 0, 64, 80
2, 105111, Note_on_c, 0, 76, 80
2, 105113, Note_on_c, 0, 80, 80
2, 105229, Note_on_c, 0, 62, 80
2, 105232, Note_on_c, 0, 71, 80
2, 105241, Note_on_c, 0, 64, 0
2, 105241, Note_on_c, 0, 76, 0
2, 105263, Note_on_c, 0, 71, 0
2, 105276, Note_on_c, 0, 62, 0
2, 105342, Note_on_c, 0, 76, 80
2, 105347, Note_on_c, 0, 64, 80
2, 105372, Note_on_c, 0, 80, 0
2, 105375, Note_on_c, 0, 76, 0
2, 105405, Note_on_c, 0, 64, 0
2, 105464, Note_on_c, 0, 81, 80
2, 105466, Note_on_c, 0, 57, 80
2, 105466, Note_on_c, 0, 73, 80
2, 105577, Note_on_c, 0, 81, 0
2, 105586, Note_on_c, 0, 69, 80
2, 105595, Note_on_c, 0, 73, 0
2, 105607, Note_on_c, 0, 57, 0
2, 105657, Note_on_c, 0, 69, 0
2, 105697, Note_on_c, 0, 52, 80
2, 105707, Note_on_c, 0, 68, 80
2, 105710, Note_on_c, 0, 71, 80
2, 105738, Note_on_c, 0, 52, 0
2, 105758, Note_on_c, 0, 71, 0
2, 105760, Note_on_c, 0, 68, 0
2, 105827, Note_on_c, 0, 52, 80
2, 105829, Note_on_c, 0, 69, 80
2, 105830, Note_on_c, 0, 73, 80
2, 105893, Note_on_c, 0, 73, 0
2, 105946, Note_on_c, 0, 49, 80
2, 105955, Note_on_c, 0, 76, 80
2, 105963, Note_on_c, 0, 52, 0
2, 105985, Note_on_c, 0, 49, 0
2, 106008, Note_on_c, 0, 76, 0
2, 106012, Note_on_c, 0, 69, 0
2, 106065, Note_on_c, 0, 52, 80
2, 106070, Note_on_c, 0, 69, 80
2, 106071, Note_on_c, 0, 73, 80
2, 106108, Note_on_c, 0, 52, 0
2, 106118, Note_on_c, 0, 73, 0
2, 106136, Note_on_c, 0, 69, 0
2, 106187, Note_on_c, 0, 68, 80
2, 106188, Note_on_c, 0, 71, 80
2, 106191, Note_on_c, 0, 52, 80
2, 106258, Note_on_c, 0, 71, 0
2, 106305, Note_on_c, 0, 47, 80
2, 106305, Note_on_c, 0, 74, 80
2, 106318, Note_on_c, 0, 52, 0
2, 106327, Note_on_c, 0, 68, 0
2, 106352, Note_on_c, 0, 47, 0
2, 106358, Note_on_c, 0, 74, 0
2, 106419, Note_on_c, 0, 68, 80
2, 106420, Note_on_c, 0, 71, 80
2, 106421, Note_on_c, 0, 52, 80
2, 106457, Note_on_c, 0, 68, 0
2, 106458, Note_on_c, 0, 71, 0
2, 106469, Note_on_c, 0, 52, 0
2, 106540, Note_on_c, 0, 49, 80
2, 106541, Note_on_c, 0, 69, 80
2, 106543, Note_on_c, 0, 73, 80
2, 106663, Note_on_c, 0, 45, 80
2, 106664, Note_on_c, 0, 49, 0
2, 106671, Note_on_c, 0, 76, 80
2, 106677, Note_on_c, 0, 73, 0
2, 106698, Note_on_c, 0, 76, 0
2, 106705, Note_on_c, 0, 69, 0
2, 106722, Note_on_c, 0, 45, 0
2, 106777, Note_on_c, 0, 47, 80
2, 106794, Note_on_c, 0, 64, 80
2, 106795, Note_on_c, 0, 68, 80
2, 106835, Note_on_c, 0, 68, 0
2, 106836, Note_on_c, 0, 47, 0
2, 106840, Note_on_c, 0, 64, 0
2, 106899, Note_on_c, 0, 49, 80
2, 106931, Note_on_c, 0, 69, 80
2, 106932, Note_on_c, 0, 64, 80
2, 106997, Note_on_c, 0, 64, 0
2, 107037, Note_on_c, 0, 52, 80
2, 107045, Note_on_c, 0, 61, 80
2, 107046, Note_on_c, 0, 49, 0
2, 107075, Note_on_c, 0, 61, 0
2, 107090, Note_on_c, 0, 52, 0
2, 107154, Note_on_c, 0, 57, 80
2, 107160, Note_on_c, 0, 64, 80
2, 107180, Note_on_c, 0, 69, 0
2, 107188, Note_on_c, 0, 64, 0
2, 107209, Note_on_c, 0, 57, 0
2, 107275, Note_on_c, 0, 52, 80
2, 107292, Note_on_c, 0, 64, 80
2, 107292, Note_on_c, 0, 68, 80
2, 107360, Note_on_c, 0, 64, 0
2, 107404, Note_on_c, 0, 56, 80
2, 107412, Note_on_c, 0, 59, 80
2, 107414, Note_on_c, 0, 52, 0
2, 107434, Note_on_c, 0, 59, 0
2, 107463, Note_on_c, 0, 56, 0
2, 107524, Note_on_c, 0, 64, 80
2, 107526, Note_on_c, 0, 59, 80
2, 107553, Note_on_c, 0, 64, 0
2, 107558, Note_on_c, 0, 68, 0
2, 107576, Note_on_c, 0, 59, 0
2, 107651, Note_on_c, 0, 57, 80
2, 107654, Note_on_c, 0, 57, 80
2, 107657, Note_on_c, 0, 64, 80
2, 107658, Note_on_c, 0, 69, 80
2, 107783, Note_on_c, 0, 57, 0
2, 107783, Note_on_c, 0, 69, 0
2, 107787, Note_on_c, 0, 64, 0
2, 107794, Note_on_c, 0, 73, 80
2, 107795, Note_on_c, 0, 61, 80
2, 107917, Note_on_c, 0, 73, 0
2, 107922, Note_on_c, 0, 63, 80
2, 107924, Note_on_c, 0, 72, 80
2, 107926, Note_on_c, 0, 61, 0
2, 108025, Note_on_c, 0, 63, 0
2, 108028, Note_on_c, 0, 65, 80
2, 108029, Note_on_c, 0, 71, 80
2, 108031, Note_on_c, 0, 72, 0
2, 108042, Note_on_c, 0, 56, 80
2, 108054, Note_on_c, 0, 57, 0
2, 108145, Note_on_c, 0, 70, 80
2, 108146, Note_on_c, 0, 66, 80
2, 108147, Note_on_c, 0, 65, 0
2, 108148, Note_on_c, 0, 54, 80
2, 108149, Note_on_c, 0, 56, 0
2, 108151, Note_on_c, 0, 71, 0
2, 108227, Note_on_c, 0, 70, 0
2, 108253, Note_on_c, 0, 54, 0
2, 108254, Note_on_c, 0, 62, 80
2, 108257, Note_on_c, 0, 78, 80
2, 108262, Note_on_c, 0, 69, 80
2, 108263, Note_on_c, 0, 66, 0
2, 108355, Note_on_c, 0, 69, 0
2, 108375, Note_on_c, 0, 80, 80
2, 108379, Note_on_c, 0, 78, 0
2, 108382, Note_on_c, 0, 68, 80
2, 108477, Note_on_c, 0, 68, 0
2, 108482, Note_on_c, 0, 67, 80
2, 108482, Note_on_c, 0, 61, 80
2, 108486, Note_on_c, 0, 82, 80
2, 108487, Note_on_c, 0, 80, 0
2, 108488, Note_on_c, 0, 62, 0
2, 108584, Note_on_c, 0, 67, 0
2, 108589, Note_on_c, 0, 66, 80
2, 108591, Note_on_c, 0, 63, 80
2, 108593, Note_on_c, 0, 61, 0
2, 108593, Note_on_c, 0, 82, 0
2, 108601, Note_on_c, 0, 83, 80
2, 108644, Note_on_c, 0, 63, 0
2, 108646, Note_on_c, 0, 65, 80
2, 108648, Note_on_c, 0, 68, 80
2, 108650, Note_on_c, 0, 66, 0
2, 108699, Note_on_c, 0, 68, 0
2, 108700, Note_on_c, 0, 65, 0
2, 108710, Note_on_c, 0, 66, 80
2, 108712, Note_on_c, 0, 69, 80
2, 108720, Note_on_c, 0, 81, 80
2, 108730, Note_on_c, 0, 83, 0
2, 108829, Note_on_c, 0, 79, 80
2, 108831, Note_on_c, 0, 71, 80
2, 108832, Note_on_c, 0, 81, 0
2, 108838, Note_on_c, 0, 69, 0
2, 108884, Note_on_c, 0, 66, 0
2, 108939, Note_on_c, 0, 71, 0
2, 108948, Note_on_c, 0, 69, 80
2, 108949, Note_on_c, 0, 72, 80
2, 108950, Note_on_c, 0, 78, 80
2, 108951, Note_on_c, 0, 79, 0
2, 109005, Note_on_c, 0, 68, 80
2, 109007, Note_on_c, 0, 69, 0
2, 109056, Note_on_c, 0, 68, 0
2, 109061, Note_on_c, 0, 78, 0
2, 109062, Note_on_c, 0, 72, 0
2, 109062, Note_on_c, 0, 73, 80
2, 109064, Note_on_c, 0, 77, 80
2, 109072, Note_on_c, 0, 69, 80
2, 109183, Note_on_c, 0, 61, 80
2, 109186, Note_on_c, 0, 78, 80
2, 109188, Note_on_c, 0, 77, 0
2, 109302, Note_on_c, 0, 68, 80
2, 109303, Note_on_c, 0, 75, 80
2, 109303, Note_on_c, 0, 60, 80
2, 109304, Note_on_c, 0, 73, 0
2, 109304, Note_on_c, 0, 61, 0
2, 109310, Note_on_c, 0, 69, 0
2, 109416, Note_on_c, 0, 75, 0
2, 109421, Note_on_c, 0, 59, 80
2, 109423, Note_on_c, 0, 60, 0
2, 109426, Note_on_c, 0, 73, 80
2, 109427, Note_on_c, 0, 78, 0
2, 109427, Note_on_c, 0, 76, 80
2, 109545, Note_on_c, 0, 58, 80
2, 109548, Note_on_c, 0, 66, 80
2, 109549, Note_on_c, 0, 59, 0
2, 109552, Note_on_c, 0, 68, 0
2, 109664, Note_on_c, 0, 73, 0
2, 109665, Note_on_c, 0, 71, 80
2, 109666, Note_on_c, 0, 58, 0
2, 109667, Note_on_c, 0, 57, 80
2, 109669, Note_on_c, 0, 74, 80
2, 109675, Note_on_c, 0, 76, 0
2, 109788, Note_on_c, 0, 66, 0
2, 109788, Note_on_c, 0, 56, 80
2, 109790, Note_on_c, 0, 65, 80
2, 109791, Note_on_c, 0, 57, 0
2, 109895, Note_on_c, 0, 56, 0
2, 109906, Note_on_c, 0, 57, 80
2, 109908, Note_on_c, 0, 66, 80
2, 109909, Note_on_c, 0, 65, 0
2, 109911, Note_on_c, 0, 73, 80
2, 109911, Note_on_c, 0, 69, 80
2, 109916, Note_on_c, 0, 71, 0
2, 109919, Note_on_c, 0, 74, 0
2, 109995, Note_on_c, 0, 69, 0
2, 110008, Note_on_c, 0, 73, 0
2, 110033, Note_on_c, 0, 66, 0
2, 110036, Note_on_c, 0, 72, 80
2, 110037, Note_on_c, 0, 63, 80
2, 110037, Note_on_c, 0, 66, 80
2, 110120, Note_on_c, 0, 63, 0
2, 110132, Note_on_c, 0, 72, 0
2, 110142, Note_on_c, 0, 66, 0
2, 110147, Note_on_c, 0, 68, 80
2, 110150, Note_on_c, 0, 71, 80
2, 110152, Note_on_c, 0, 56, 80
2, 110153, Note_on_c, 0, 64, 80
2, 110159, Note_on_c, 0, 57, 0
2, 110233, Note_on_c, 0, 68, 0
2, 110239, Note_on_c, 0, 71, 0
2, 110265, Note_on_c, 0, 61, 80
2, 110265, Note_on_c, 0, 54, 80
2, 110266, Note_on_c, 0, 64, 0
2, 110266, Note_on_c, 0, 70, 80
2, 110266, Note_on_c, 0, 66, 80
2, 110267, Note_on_c, 0, 56, 0
2, 110371, Note_on_c, 0, 61, 0
2, 110384, Note_on_c, 0, 70, 0
2, 110387, Note_on_c, 0, 66, 0
2, 110387, Note_on_c, 0, 63, 80
2, 110387, Note_on_c, 0, 69, 80
2, 110388, Note_on_c, 0, 60, 80
2, 110509, Note_on_c, 0, 61, 80
2, 110510, Note_on_c, 0, 63, 0
2, 110510, Note_on_c, 0, 56, 80
2, 110513, Note_on_c, 0, 65, 80
2, 110514, Note_on_c, 0, 68, 80
2, 110517, Note_on_c, 0, 54, 0
2, 110517, Note_on_c, 0, 60, 0
2, 110523, Note_on_c, 0, 69, 0
2, 110983, Note_on_c, 0, 61, 0
2, 110987, Note_on_c, 0, 56, 0
2, 110991, Note_on_c, 0, 68, 0
2, 110993, Note_on_c, 0, 65, 0
2, 111289, Note_on_c, 0, 64, 80
2, 111341, Note_on_c, 0, 66, 80
2, 111345, Note_on_c, 0, 64, 0
2, 111392, Note_on_c, 0, 68, 80
2, 111397, Note_on_c, 0, 66, 0
2, 111448, Note_on_c, 0, 68, 0
2, 111451, Note_on_c, 0, 69, 80
2, 111503, Note_on_c, 0, 71, 80
2, 111509, Note_on_c, 0, 69, 0
2, 111561, Note_on_c, 0, 73, 80
2, 111570, Note_on_c, 0, 71, 0
2, 111618, Note_on_c, 0, 73, 0
2, 111618, Note_on_c, 0, 74, 80
2, 111677, Note_on_c, 0, 76, 80
2, 111686, Note_on_c, 0, 74, 0
2, 111736, Note_on_c, 0, 73, 80
2, 111742, Note_on_c, 0, 76, 0
2, 111796, Note_on_c, 0, 73, 0
2, 111797, Note_on_c, 0, 71, 80
2, 111858, Note_on_c, 0, 69, 80
2, 111862, Note_on_c, 0, 71, 0
2, 111918, Note_on_c, 0, 69, 0
2, 111926, Note_on_c, 0, 74, 80
2, 111990, Note_on_c, 0, 71, 80
2, 112047, Note_on_c, 0, 69, 80
2, 112053, Note_on_c, 0, 71, 0
2, 112100, Note_on_c, 0, 68, 80
2, 112106, Note_on_c, 0, 69, 0
2, 112160, Note_on_c, 0, 66, 80
2, 112163, Note_on_c, 0, 68, 0
2, 112207, Note_on_c, 0, 74, 0
2, 112222, Note_on_c, 0, 66, 0
2, 112223, Note_on_c, 0, 64, 80
2, 112223, Note_on_c, 0, 73, 80
2, 112281, Note_on_c, 0, 64, 0
2, 112282, Note_on_c, 0, 73, 0
2, 112282, Note_on_c, 0, 62, 80
2, 112284, Note_on_c, 0, 74, 80
2, 112346, Note_on_c, 0, 74, 0
2, 112362, Note_on_c, 0, 61, 80
2, 112363, Note_on_c, 0, 62, 0
2, 112363, Note_on_c, 0, 76, 80
2, 112417, Note_on_c, 0, 61, 0
2, 112420, Note_on_c, 0, 59, 80
2, 112421, Note_on_c, 0, 78, 80
2, 112432, Note_on_c, 0, 76, 0
2, 112475, Note_on_c, 0, 59, 0
2, 112482, Note_on_c, 0, 66, 80
2, 112483, Note_on_c, 0, 78, 0
2, 112489, Note_on_c, 0, 74, 80
2, 112545, Note_on_c, 0, 68, 80
2, 112548, Note_on_c, 0, 66, 0
2, 112552, Note_on_c, 0, 74, 0
2, 112553, Note_on_c, 0, 76, 80
2, 112604, Note_on_c, 0, 78, 80
2, 112605, Note_on_c, 0, 68, 0
2, 112606, Note_on_c, 0, 76, 0
2, 112606, Note_on_c, 0, 69, 80
2, 112608, Note_on_c, 0, 69, 80
2, 112639, Note_on_c, 0, 78, 0
2, 112651, Note_on_c, 0, 69, 0
2, 112660, Note_on_c, 0, 69, 0
2, 112671, Note_on_c, 0, 68, 80
2, 112672, Note_on_c, 0, 71, 80
2, 112731, Note_on_c, 0, 52, 80
2, 112787, Note_on_c, 0, 54, 80
2, 112791, Note_on_c, 0, 71, 0
2, 112793, Note_on_c, 0, 69, 80
2, 112795, Note_on_c, 0, 68, 0
2, 112799, Note_on_c, 0, 52, 0
2, 112844, Note_on_c, 0, 56, 80
2, 112849, Note_on_c, 0, 69, 0
2, 112850, Note_on_c, 0, 54, 0
2, 112850, Note_on_c, 0, 71, 80
2, 112901, Note_on_c, 0, 56, 0
2, 112903, Note_on_c, 0, 57, 80
2, 112912, Note_on_c, 0, 69, 80
2, 112913, Note_on_c, 0, 71, 0
2, 112913, Note_on_c, 0, 73, 80
2, 112967, Note_on_c, 0, 59, 80
2, 112968, Note_on_c, 0, 57, 0
2, 112979, Note_on_c, 0, 73, 0
2, 112980, Note_on_c, 0, 74, 80
2, 113025, Note_on_c, 0, 61, 80
2, 113033, Note_on_c, 0, 59, 0
2, 113040, Note_on_c, 0, 76, 80
2, 113041, Note_on_c, 0, 74, 0
2, 113088, Note_on_c, 0, 61, 0
2, 113088, Note_on_c, 0, 62, 80
2, 113095, Note_on_c, 0, 68, 80
2, 113101, Note_on_c, 0, 69, 0
2, 113151, Note_on_c, 0, 64, 80
2, 113157, Note_on_c, 0, 62, 0
2, 113161, Note_on_c, 0, 69, 80
2, 113163, Note_on_c, 0, 68, 0
2, 113207, Note_on_c, 0, 76, 0
2, 113209, Note_on_c, 0, 61, 80
2, 113217, Note_on_c, 0, 64, 0
2, 113270, Note_on_c, 0, 76, 80
2, 113272, Note_on_c, 0, 59, 80
2, 113276, Note_on_c, 0, 61, 0
2, 113327, Note_on_c, 0, 57, 80
2, 113333, Note_on_c, 0, 59, 0
2, 113379, Note_on_c, 0, 57, 0
2, 113386, Note_on_c, 0, 66, 80
2, 113394, Note_on_c, 0, 76, 0
2, 113450, Note_on_c, 0, 67, 80
2, 113451, Note_on_c, 0, 66, 0
2, 113454, Note_on_c, 0, 76, 80
2, 113505, Note_on_c, 0, 66, 80
2, 113510, Note_on_c, 0, 67, 0
2, 113511, Note_on_c, 0, 74, 80
2, 113515, Note_on_c, 0, 76, 0
2, 113559, Note_on_c, 0, 64, 80
2, 113561, Note_on_c, 0, 66, 0
2, 113568, Note_on_c, 0, 73, 80
2, 113572, Note_on_c, 0, 74, 0
2, 113615, Note_on_c, 0, 64, 0
2, 113618, Note_on_c, 0, 62, 80
2, 113626, Note_on_c, 0, 73, 0
2, 113631, Note_on_c, 0, 74, 80
2, 113636, Note_on_c, 0, 69, 0
2, 113682, Note_on_c, 0, 61, 80
2, 113684, Note_on_c, 0, 62, 0
2, 113688, Note_on_c, 0, 69, 80
2, 113738, Note_on_c, 0, 59, 80
2, 113739, Note_on_c, 0, 61, 0
2, 113746, Note_on_c, 0, 68, 80
2, 113755, Note_on_c, 0, 69, 0
2, 113800, Note_on_c, 0, 68, 0
2, 113800, Note_on_c, 0, 57, 80
2, 113803, Note_on_c, 0, 69, 80
2, 113805, Note_on_c, 0, 59, 0
2, 113857, Note_on_c, 0, 57, 0
2, 113858, Note_on_c, 0, 56, 80
2, 113858, Note_on_c, 0, 71, 80
2, 113859, Note_on_c, 0, 69, 0
2, 113912, Note_on_c, 0, 56, 0
2, 113915, Note_on_c, 0, 59, 80
2, 113920, Note_on_c, 0, 68, 80
2, 113924, Note_on_c, 0, 71, 0
2, 113972, Note_on_c, 0, 57, 80
2, 113977, Note_on_c, 0, 59, 0
2, 113979, Note_on_c, 0, 69, 80
2, 113981, Note_on_c, 0, 68, 0
2, 114030, Note_on_c, 0, 57, 0
2, 114031, Note_on_c, 0, 56, 80
2, 114032, Note_on_c, 0, 69, 0
2, 114032, Note_on_c, 0, 71, 80
2, 114052, Note_on_c, 0, 71, 0
2, 114083, Note_on_c, 0, 56, 0
2, 114087, Note_on_c, 0, 57, 80
2, 114098, Note_on_c, 0, 73, 80
2, 114100, Note_on_c, 0, 64, 80
2, 114102, Note_on_c, 0, 74, 0
2, 114116, Note_on_c, 0, 57, 0
2, 114148, Note_on_c, 0, 45, 80
2, 114201, Note_on_c, 0, 47, 80
2, 114214, Note_on_c, 0, 45, 0
2, 114259, Note_on_c, 0, 49, 80
2, 114261, Note_on_c, 0, 47, 0
2, 114318, Note_on_c, 0, 49, 0
2, 114320, Note_on_c, 0, 50, 80
2, 114335, Note_on_c, 0, 73, 0
2, 114335, Note_on_c, 0, 64, 0
2, 114388, Note_on_c, 0, 52, 80
2, 114390, Note_on_c, 0, 50, 0
2, 114445, Note_on_c, 0, 54, 80
2, 114453, Note_on_c, 0, 52, 0
2, 114503, Note_on_c, 0, 54, 0
2, 114505, Note_on_c, 0, 55, 80
2, 114571, Note_on_c, 0, 57, 80
2, 114573, Note_on_c, 0, 55, 0
2, 114635, Note_on_c, 0, 55, 80
2, 114642, Note_on_c, 0, 57, 0
2, 114692, Note_on_c, 0, 54, 80
2, 114696, Note_on_c, 0, 55, 0
2, 114750, Note_on_c, 0, 54, 0
2, 114752, Note_on_c, 0, 52, 80
2, 114820, Note_on_c, 0, 54, 80
2, 114830, Note_on_c, 0, 52, 0
2, 114891, Note_on_c, 0, 74, 80
2, 114949, Note_on_c, 0, 73, 80
2, 114954, Note_on_c, 0, 74, 0
2, 115010, Note_on_c, 0, 71, 80
2, 115011, Note_on_c, 0, 73, 0
2, 115068, Note_on_c, 0, 69, 80
2, 115069, Note_on_c, 0, 71, 0
2, 115077, Note_on_c, 0, 54, 0
2, 115127, Note_on_c, 0, 52, 80
2, 115129, Note_on_c, 0, 67, 80
2, 115130, Note_on_c, 0, 69, 0
2, 115185, Note_on_c, 0, 66, 80
2, 115188, Note_on_c, 0, 67, 0
2, 115189, Note_on_c, 0, 50, 80
2, 115197, Note_on_c, 0, 52, 0
2, 115242, Note_on_c, 0, 52, 80
2, 115243, Note_on_c, 0, 64, 80
2, 115244, Note_on_c, 0, 66, 0
2, 115253, Note_on_c, 0, 50, 0
2, 115297, Note_on_c, 0, 54, 80
2, 115303, Note_on_c, 0, 62, 80
2, 115307, Note_on_c, 0, 52, 0
2, 115308, Note_on_c, 0, 64, 0
2, 115357, Note_on_c, 0, 54, 0
2, 115357, Note_on_c, 0, 57, 80
2, 115368, Note_on_c, 0, 66, 80
2, 115377, Note_on_c, 0, 62, 0
2, 115417, Note_on_c, 0, 55, 80
2, 115421, Note_on_c, 0, 57, 0
2, 115424, Note_on_c, 0, 66, 0
2, 115428, Note_on_c, 0, 64, 80
2, 115479, Note_on_c, 0, 54, 80
2, 115480, Note_on_c, 0, 55, 0
2, 115486, Note_on_c, 0, 62, 80
2, 115487, Note_on_c, 0, 64, 0
2, 115536, Note_on_c, 0, 54, 0
2, 115540, Note_on_c, 0, 62, 0
2, 115541, Note_on_c, 0, 52, 80
2, 115543, Note_on_c, 0, 61, 80
2, 115608, Note_on_c, 0, 69, 80
2, 115666, Note_on_c, 0, 71, 80
2, 115672, Note_on_c, 0, 69, 0
2, 115721, Note_on_c, 0, 73, 80
2, 115724, Note_on_c, 0, 71, 0
2, 115750, Note_on_c, 0, 52, 0
2, 115754, Note_on_c, 0, 61, 0
2, 115778, Note_on_c, 0, 73, 0
2, 115781, Note_on_c, 0, 74, 80
2, 115836, Note_on_c, 0, 71, 80
2, 115836, Note_on_c, 0, 76, 80
2, 115840, Note_on_c, 0, 74, 0
2, 115893, Note_on_c, 0, 78, 80
2, 115895, Note_on_c, 0, 69, 80
2, 115901, Note_on_c, 0, 71, 0
2, 115901, Note_on_c, 0, 76, 0
2, 115947, Note_on_c, 0, 67, 80
2, 115950, Note_on_c, 0, 79, 80
2, 115951, Note_on_c, 0, 78, 0
2, 115953, Note_on_c, 0, 69, 0
2, 116001, Note_on_c, 0, 67, 0
2, 116002, Note_on_c, 0, 66, 80
2, 116011, Note_on_c, 0, 81, 80
2, 116015, Note_on_c, 0, 79, 0
2, 116060, Note_on_c, 0, 69, 80
2, 116061, Note_on_c, 0, 66, 0
2, 116070, Note_on_c, 0, 79, 80
2, 116077, Note_on_c, 0, 81, 0
2, 116122, Note_on_c, 0, 69, 0
2, 116123, Note_on_c, 0, 71, 80
2, 116125, Note_on_c, 0, 78, 80
2, 116134, Note_on_c, 0, 79, 0
2, 116158, Note_on_c, 0, 71, 0
2, 116163, Note_on_c, 0, 78, 0
2, 116184, Note_on_c, 0, 73, 80
2, 116187, Note_on_c, 0, 76, 80
2, 116243, Note_on_c, 0, 76, 0
2, 116249, Note_on_c, 0, 73, 0
2, 116251, Note_on_c, 0, 78, 80
2, 116253, Note_on_c, 0, 74, 80
2, 116306, Note_on_c, 0, 62, 80
2, 116366, Note_on_c, 0, 61, 80
2, 116368, Note_on_c, 0, 62, 0
2, 116422, Note_on_c, 0, 61, 0
2, 116422, Note_on_c, 0, 59, 80
2, 116481, Note_on_c, 0, 57, 80
2, 116482, Note_on_c, 0, 59, 0
2, 116506, Note_on_c, 0, 74, 0
2, 116509, Note_on_c, 0, 78, 0
2, 116548, Note_on_c, 0, 55, 80
2, 116548, Note_on_c, 0, 76, 80
2, 116570, Note_on_c, 0, 57, 0
2, 116601, Note_on_c, 0, 55, 0
2, 116610, Note_on_c, 0, 76, 0
2, 116610, Note_on_c, 0, 54, 80
2, 116622, Note_on_c, 0, 74, 80
2, 116667, Note_on_c, 0, 54, 0
2, 116670, Note_on_c, 0, 52, 80
2, 116680, Note_on_c, 0, 76, 80
2, 116691, Note_on_c, 0, 74, 0
2, 116733, Note_on_c, 0, 50, 80
2, 116737, Note_on_c, 0, 78, 80
2, 116739, Note_on_c, 0, 52, 0
2, 116751, Note_on_c, 0, 76, 0
2, 116781, Note_on_c, 0, 78, 0
2, 116792, Note_on_c, 0, 54, 80
2, 116796, Note_on_c, 0, 50, 0
2, 116807, Note_on_c, 0, 81, 80
2, 116847, Note_on_c, 0, 52, 80
2, 116849, Note_on_c, 0, 54, 0
2, 116862, Note_on_c, 0, 79, 80
2, 116867, Note_on_c, 0, 81, 0
2, 116908, Note_on_c, 0, 50, 80
2, 116909, Note_on_c, 0, 52, 0
2, 116919, Note_on_c, 0, 78, 80
2, 116920, Note_on_c, 0, 79, 0
2, 116972, Note_on_c, 0, 50, 0
2, 116973, Note_on_c, 0, 49, 80
2, 116981, Note_on_c, 0, 78, 0
2, 116982, Note_on_c, 0, 76, 80
2, 117041, Note_on_c, 0, 49, 0
2, 117043, Note_on_c, 0, 81, 80
2, 117046, Note_on_c, 0, 76, 0
2, 117100, Note_on_c, 0, 45, 80
2, 117102, Note_on_c, 0, 80, 80
2, 117106, Note_on_c, 0, 81, 0
2, 117163, Note_on_c, 0, 78, 80
2, 117165, Note_on_c, 0, 80, 0
2, 117207, Note_on_c, 0, 45, 0
2, 117220, Note_on_c, 0, 76, 80
2, 117221, Note_on_c, 0, 78, 0
2, 117282, Note_on_c, 0, 74, 80
2, 117283, Note_on_c, 0, 76, 0
2, 117339, Note_on_c, 0, 73, 80
2, 117344, Note_on_c, 0, 74, 0
2, 117397, Note_on_c, 0, 71, 80
2, 117398, Note_on_c, 0, 73, 0
2, 117457, Note_on_c, 0, 69, 80
2, 117463, Note_on_c, 0, 71, 0
2, 117512, Note_on_c, 0, 69, 0
2, 117526, Note_on_c, 0, 73, 80
2, 117586, Note_on_c, 0, 71, 80
2, 117587, Note_on_c, 0, 73, 0
2, 117644, Note_on_c, 0, 69, 80
2, 117645, Note_on_c, 0, 71, 0
2, 117702, Note_on_c, 0, 69, 0
2, 117707, Note_on_c, 0, 74, 80
2, 117763, Note_on_c, 0, 59, 80
2, 117823, Note_on_c, 0, 61, 80
2, 117831, Note_on_c, 0, 59, 0
2, 117882, Note_on_c, 0, 62, 80
2, 117884, Note_on_c, 0, 61, 0
2, 117944, Note_on_c, 0, 64, 80
2, 117945, Note_on_c, 0, 62, 0
2, 118007, Note_on_c, 0, 66, 80
2, 118015, Note_on_c, 0, 64, 0
2, 118068, Note_on_c, 0, 68, 80
2, 118072, Note_on_c, 0, 66, 0
2, 118124, Note_on_c, 0, 68, 0
2, 118126, Note_on_c, 0, 69, 80
2, 118162, Note_on_c, 0, 69, 0
2, 118186, Note_on_c, 0, 68, 80
2, 118247, Note_on_c, 0, 68, 0
2, 118252, Note_on_c, 0, 71, 80
2, 118305, Note_on_c, 0, 69, 80
2, 118306, Note_on_c, 0, 71, 0
2, 118363, Note_on_c, 0, 69, 0
2, 118363, Note_on_c, 0, 68, 80
2, 118426, Note_on_c, 0, 68, 0
2, 118428, Note_on_c, 0, 69, 80
2, 118489, Note_on_c, 0, 67, 80
2, 118548, Note_on_c, 0, 66, 80
2, 118550, Note_on_c, 0, 67, 0
2, 118603, Note_on_c, 0, 64, 80
2, 118606, Note_on_c, 0, 66, 0
2, 118654, Note_on_c, 0, 66, 80
2, 118659, Note_on_c, 0, 64, 0
2, 118663, Note_on_c, 0, 62, 80
2, 118716, Note_on_c, 0, 61, 80
2, 118720, Note_on_c, 0, 62, 0
2, 118774, Note_on_c, 0, 61, 0
2, 118775, Note_on_c, 0, 59, 80
2, 118829, Note_on_c, 0, 57, 80
2, 118833, Note_on_c, 0, 59, 0
2, 118857, Note_on_c, 0, 66, 0
2, 118869, Note_on_c, 0, 69, 0
2, 118886, Note_on_c, 0, 57, 0
2, 118887, Note_on_c, 0, 56, 80
2, 118895, Note_on_c, 0, 71, 80
2, 118897, Note_on_c, 0, 64, 80
2, 118948, Note_on_c, 0, 56, 0
2, 118952, Note_on_c, 0, 59, 80
2, 119009, Note_on_c, 0, 57, 80
2, 119010, Note_on_c, 0, 59, 0
2, 119057, Note_on_c, 0, 56, 80
2, 119058, Note_on_c, 0, 57, 0
2, 119059, Note_on_c, 0, 64, 0
2, 119115, Note_on_c, 0, 56, 0
2, 119136, Note_on_c, 0, 57, 80
2, 119136, Note_on_c, 0, 66, 80
2, 119144, Note_on_c, 0, 71, 0
2, 119146, Note_on_c, 0, 69, 80
2, 119208, Note_on_c, 0, 74, 0
2, 119209, Note_on_c, 0, 71, 80
2, 119269, Note_on_c, 0, 73, 80
2, 119276, Note_on_c, 0, 71, 0
2, 119322, Note_on_c, 0, 73, 0
2, 119327, Note_on_c, 0, 74, 80
2, 119330, Note_on_c, 0, 66, 0
2, 119383, Note_on_c, 0, 74, 0
2, 119387, Note_on_c, 0, 69, 0
2, 119388, Note_on_c, 0, 62, 80
2, 119392, Note_on_c, 0, 68, 80
2, 119459, Note_on_c, 0, 69, 80
2, 119520, Note_on_c, 0, 71, 80
2, 119529, Note_on_c, 0, 69, 0
2, 119576, Note_on_c, 0, 73, 80
2, 119586, Note_on_c, 0, 68, 0
2, 119588, Note_on_c, 0, 71, 0
2, 119639, Note_on_c, 0, 73, 0
2, 119641, Note_on_c, 0, 74, 80
2, 119642, Note_on_c, 0, 71, 80
2, 119701, Note_on_c, 0, 76, 80
2, 119718, Note_on_c, 0, 74, 0
2, 119764, Note_on_c, 0, 78, 80
2, 119765, Note_on_c, 0, 76, 0
2, 119828, Note_on_c, 0, 78, 0
2, 119829, Note_on_c, 0, 80, 80
2, 119887, Note_on_c, 0, 62, 0
2, 119887, Note_on_c, 0, 71, 0
2, 119887, Note_on_c, 0, 80, 0
2, 119916, Note_on_c, 0, 81, 80
2, 119916, Note_on_c, 0, 64, 80
2, 119916, Note_on_c, 0, 73, 80
2, 120616, Note_on_c, 0, 57, 0
2, 120625, Note_on_c, 0, 81, 0
2, 120626, Note_on_c, 0, 73, 0
2, 120627, Note_on_c, 0, 64, 0
2, 120627, End_track
3, 0, Start_track
3, 0, Title_t, "Man 4"
3, 0, MIDI_port, 0
3, 0, Control_c, 1, 7, 110
3, 0, Control_c, 1, 93, 0
3, 0, Control_c, 1, 91, 127
3, 0, Control_c, 1, 10, 85
3, 0, Program_c, 1, 16
3, 74268, Note_on_c, 1, 73, 80
3, 74314, Note_on_c, 1, 73, 0
3, 74388, Note_on_c, 1, 74, 80
3, 74436, Note_on_c, 1, 74, 0
3, 74504, Note_on_c, 1, 76, 80
3, 74632, Note_on_c, 1, 69, 80
3, 74642, Note_on_c, 1, 76, 0
3, 74678, Note_on_c, 1, 69, 0
3, 74744, Note_on_c, 1, 68, 80
3, 74784, Note_on_c, 1, 68, 0
3, 74858, Note_on_c, 1, 66, 80
3, 74979, Note_on_c, 1, 68, 80
3, 74981, Note_on_c, 1, 66, 0
3, 75024, Note_on_c, 1, 68, 0
3, 75096, Note_on_c, 1, 69, 80
3, 75149, Note_on_c, 1, 69, 0
3, 75232, Note_on_c, 1, 68, 80
3, 75361, Note_on_c, 1, 68, 0
3, 75361, Note_on_c, 1, 71, 80
3, 75362, Note_on_c, 1, 80, 80
3, 75410, Note_on_c, 1, 80, 0
3, 75411, Note_on_c, 1, 71, 0
3, 75465, Note_on_c, 1, 69, 80
3, 75467, Note_on_c, 1, 81, 80
3, 75509, Note_on_c, 1, 81, 0
3, 75521, Note_on_c, 1, 69, 0
3, 75577, Note_on_c, 1, 83, 80
3, 75589, Note_on_c, 1, 68, 80
3, 75696, Note_on_c, 1, 69, 80
3, 75699, Note_on_c, 1, 76, 80
3, 75700, Note_on_c, 1, 83, 0
3, 75710, Note_on_c, 1, 68, 0
3, 75738, Note_on_c, 1, 69, 0
3, 75739, Note_on_c, 1, 76, 0
3, 75806, Note_on_c, 1, 71, 80
3, 75810, Note_on_c, 1, 74, 80
3, 75862, Note_on_c, 1, 74, 0
3, 75886, Note_on_c, 1, 71, 0
3, 75922, Note_on_c, 1, 69, 80
3, 75930, Note_on_c, 1, 73, 80
3, 76044, Note_on_c, 1, 71, 80
3, 76046, Note_on_c, 1, 69, 0
3, 76056, Note_on_c, 1, 75, 80
3, 76065, Note_on_c, 1, 73, 0
3, 76114, Note_on_c, 1, 71, 0
3, 76116, Note_on_c, 1, 75, 0
3, 76162, Note_on_c, 1, 68, 80
3, 76170, Note_on_c, 1, 76, 80
3, 76247, Note_on_c, 1, 68, 0
3, 76259, Note_on_c, 1, 76, 0
3, 76287, Note_on_c, 1, 69, 80
3, 76288, Note_on_c, 1, 75, 80
3, 76407, Note_on_c, 1, 78, 80
3, 76409, Note_on_c, 1, 75, 0
3, 76425, Note_on_c, 1, 87, 80
3, 76471, Note_on_c, 1, 78, 0
3, 76500, Note_on_c, 1, 87, 0
3, 76531, Note_on_c, 1, 76, 80
3, 76534, Note_on_c, 1, 88, 80
3, 76577, Note_on_c, 1, 76, 0
3, 76580, Note_on_c, 1, 88, 0
3, 76653, Note_on_c, 1, 75, 80
3, 76659, Note_on_c, 1, 90, 80
3, 76774, Note_on_c, 1, 81, 80
3, 76775, Note_on_c, 1, 90, 0
3, 76776, Note_on_c, 1, 66, 80
3, 76785, Note_on_c, 1, 69, 0
3, 76829, Note_on_c, 1, 75, 0
3, 76848, Note_on_c, 1, 81, 0
3, 76888, Note_on_c, 1, 80, 80
3, 76895, Note_on_c, 1, 76, 80
3, 76897, Note_on_c, 1, 68, 80
3, 76898, Note_on_c, 1, 66, 0
3, 76930, Note_on_c, 1, 76, 0
3, 76932, Note_on_c, 1, 80, 0
3, 77002, Note_on_c, 1, 78, 80
3, 77006, Note_on_c, 1, 68, 0
3, 77009, Note_on_c, 1, 69, 80
3, 77010, Note_on_c, 1, 76, 80
3, 77124, Note_on_c, 1, 68, 80
3, 77131, Note_on_c, 1, 80, 80
3, 77133, Note_on_c, 1, 69, 0
3, 77142, Note_on_c, 1, 78, 0
3, 77158, Note_on_c, 1, 76, 0
3, 77180, Note_on_c, 1, 80, 0
3, 77240, Note_on_c, 1, 75, 80
3, 77241, Note_on_c, 1, 68, 0
3, 77242, Note_on_c, 1, 66, 80
3, 77251, Note_on_c, 1, 81, 80
3, 77297, Note_on_c, 1, 66, 0
3, 77299, Note_on_c, 1, 75, 0
3, 77344, Note_on_c, 1, 81, 0
3, 77364, Note_on_c, 1, 71, 80
3, 77381, Note_on_c, 1, 80, 80
3, 77487, Note_on_c, 1, 76, 80
3, 77492, Note_on_c, 1, 80, 0
3, 77506, Note_on_c, 1, 92, 80
3, 77543, Note_on_c, 1, 76, 0
3, 77608, Note_on_c, 1, 78, 80
3, 77623, Note_on_c, 1, 93, 80
3, 77629, Note_on_c, 1, 92, 0
3, 77648, Note_on_c, 1, 78, 0
3, 77680, Note_on_c, 1, 93, 0
3, 77732, Note_on_c, 1, 80, 80
3, 77744, Note_on_c, 1, 71, 0
3, 77748, Note_on_c, 1, 95, 80
3, 77855, Note_on_c, 1, 71, 80
3, 77865, Note_on_c, 1, 86, 80
3, 77867, Note_on_c, 1, 95, 0
3, 77877, Note_on_c, 1, 80, 0
3, 77944, Note_on_c, 1, 86, 0
3, 77973, Note_on_c, 1, 81, 80
3, 77974, Note_on_c, 1, 73, 80
3, 77975, Note_on_c, 1, 71, 0
3, 77983, Note_on_c, 1, 85, 80
3, 78018, Note_on_c, 1, 81, 0
3, 78024, Note_on_c, 1, 85, 0
3, 78048, Note_on_c, 1, 73, 0
3, 78099, Note_on_c, 1, 81, 80
3, 78102, Note_on_c, 1, 83, 80
3, 78104, Note_on_c, 1, 74, 80
3, 78218, Note_on_c, 1, 73, 80
3, 78229, Note_on_c, 1, 85, 80
3, 78230, Note_on_c, 1, 74, 0
3, 78233, Note_on_c, 1, 83, 0
3, 78264, Note_on_c, 1, 81, 0
3, 78318, Note_on_c, 1, 85, 0
3, 78342, Note_on_c, 1, 86, 80
3, 78344, Note_on_c, 1, 80, 80
3, 78346, Note_on_c, 1, 71, 80
3, 78347, Note_on_c, 1, 73, 0
3, 78391, Note_on_c, 1, 80, 0
3, 78399, Note_on_c, 1, 86, 0
3, 78466, Note_on_c, 1, 71, 0
3, 78468, Note_on_c, 1, 69, 80
3, 78469, Note_on_c, 1, 85, 80
3, 78470, Note_on_c, 1, 81, 80
3, 78561, Note_on_c, 1, 81, 0
3, 78566, Note_on_c, 1, 69, 0
3, 78593, Note_on_c, 1, 85, 0
3, 78594, Note_on_c, 1, 81, 80
3, 78594, Note_on_c, 1, 73, 80
3, 78644, Note_on_c, 1, 81, 0
3, 78664, Note_on_c, 1, 73, 0
3, 78706, Note_on_c, 1, 74, 80
3, 78717, Note_on_c, 1, 83, 80
3, 78761, Note_on_c, 1, 83, 0
3, 78765, Note_on_c, 1, 74, 0
3, 78831, Note_on_c, 1, 76, 80
3, 78849, Note_on_c, 1, 85, 80
3, 78954, Note_on_c, 1, 69, 80
3, 78955, Note_on_c, 1, 76, 0
3, 78963, Note_on_c, 1, 85, 0
3, 78963, Note_on_c, 1, 78, 80
3, 78966, Note_on_c, 1, 86, 80
3, 79024, Note_on_c, 1, 69, 0
3, 79028, Note_on_c, 1, 86, 0
3, 79074, Note_on_c, 1, 68, 80
3, 79086, Note_on_c, 1, 80, 80
3, 79088, Note_on_c, 1, 88, 80
3, 79097, Note_on_c, 1, 78, 0
3, 79138, Note_on_c, 1, 68, 0
3, 79143, Note_on_c, 1, 88, 0
3, 79203, Note_on_c, 1, 66, 80
3, 79213, Note_on_c, 1, 81, 80
3, 79214, Note_on_c, 1, 80, 0
3, 79215, Note_on_c, 1, 86, 80
3, 79321, Note_on_c, 1, 68, 80
3, 79328, Note_on_c, 1, 80, 80
3, 79337, Note_on_c, 1, 81, 0
3, 79338, Note_on_c, 1, 66, 0
3, 79375, Note_on_c, 1, 80, 0
3, 79380, Note_on_c, 1, 68, 0
3, 79443, Note_on_c, 1, 69, 80
3, 79447, Note_on_c, 1, 78, 80
3, 79489, Note_on_c, 1, 78, 0
3, 79507, Note_on_c, 1, 69, 0
3, 79565, Note_on_c, 1, 76, 80
3, 79569, Note_on_c, 1, 68, 80
3, 79570, Note_on_c, 1, 76, 80
3, 79580, Note_on_c, 1, 86, 0
3, 79676, Note_on_c, 1, 85, 80
3, 79678, Note_on_c, 1, 76, 0
3, 79687, Note_on_c, 1, 69, 80
3, 79692, Note_on_c, 1, 68, 0
3, 79714, Note_on_c, 1, 76, 0
3, 79738, Note_on_c, 1, 85, 0
3, 79792, Note_on_c, 1, 69, 0
3, 79793, Note_on_c, 1, 74, 80
3, 79795, Note_on_c, 1, 86, 80
3, 79795, Note_on_c, 1, 71, 80
3, 79842, Note_on_c, 1, 74, 0
3, 79844, Note_on_c, 1, 86, 0
3, 79881, Note_on_c, 1, 71, 0
3, 79910, Note_on_c, 1, 88, 80
3, 79912, Note_on_c, 1, 73, 80
3, 79915, Note_on_c, 1, 69, 80
3, 80009, Note_on_c, 1, 73, 0
3, 80009, Note_on_c, 1, 69, 0
3, 80022, Note_on_c, 1, 71, 80
3, 80023, Note_on_c, 1, 74, 80
3, 80028, Note_on_c, 1, 83, 80
3, 80031, Note_on_c, 1, 88, 0
3, 80085, Note_on_c, 1, 74, 0
3, 80092, Note_on_c, 1, 83, 0
3, 80093, Note_on_c, 1, 71, 0
3, 80140, Note_on_c, 1, 73, 80
3, 80142, Note_on_c, 1, 76, 80
3, 80143, Note_on_c, 1, 81, 80
3, 80190, Note_on_c, 1, 73, 0
3, 80210, Note_on_c, 1, 81, 0
3, 80260, Note_on_c, 1, 71, 80
3, 80266, Note_on_c, 1, 80, 80
3, 80376, Note_on_c, 1, 69, 80
3, 80379, Note_on_c, 1, 71, 0
3, 80387, Note_on_c, 1, 80, 0
3, 80389, Note_on_c, 1, 81, 80
3, 80449, Note_on_c, 1, 81, 0
3, 80454, Note_on_c, 1, 69, 0
3, 80502, Note_on_c, 1, 68, 80
3, 80513, Note_on_c, 1, 83, 80
3, 80554, Note_on_c, 1, 68, 0
3, 80572, Note_on_c, 1, 83, 0
3, 80618, Note_on_c, 1, 69, 80
3, 80632, Note_on_c, 1, 81, 80
3, 80741, Note_on_c, 1, 76, 0
3, 80752, Note_on_c, 1, 74, 80
3, 80754, Note_on_c, 1, 83, 80
3, 80766, Note_on_c, 1, 81, 0
3, 80812, Note_on_c, 1, 83, 0
3, 80866, Note_on_c, 1, 74, 0
3, 80868, Note_on_c, 1, 76, 80
3, 80873, Note_on_c, 1, 85, 80
3, 80913, Note_on_c, 1, 85, 0
3, 80948, Note_on_c, 1, 76, 0
3, 80988, Note_on_c, 1, 78, 80
3, 80994, Note_on_c, 1, 86, 80
3, 81088, Note_on_c, 1, 78, 0
3, 81103, Note_on_c, 1, 69, 0
3, 81106, Note_on_c, 1, 68, 80
3, 81108, Note_on_c, 1, 71, 80
3, 81114, Note_on_c, 1, 88, 80
3, 81124, Note_on_c, 1, 86, 0
3, 81166, Note_on_c, 1, 88, 0
3, 81186, Note_on_c, 1, 68, 0
3, 81186, Note_on_c, 1, 71, 0
3, 81223, Note_on_c, 1, 66, 80
3, 81226, Note_on_c, 1, 69, 80
3, 81232, Note_on_c, 1, 90, 80
3, 81283, Note_on_c, 1, 90, 0
3, 81298, Note_on_c, 1, 69, 0
3, 81304, Note_on_c, 1, 66, 0
3, 81349, Note_on_c, 1, 68, 80
3, 81358, Note_on_c, 1, 88, 80
3, 81475, Note_on_c, 1, 69, 80
3, 81482, Note_on_c, 1, 90, 80
3, 81488, Note_on_c, 1, 88, 0
3, 81526, Note_on_c, 1, 69, 0
3, 81526, Note_on_c, 1, 90, 0
3, 81590, Note_on_c, 1, 71, 80
3, 81602, Note_on_c, 1, 86, 80
3, 81636, Note_on_c, 1, 68, 0
3, 81637, Note_on_c, 1, 86, 0
3, 81667, Note_on_c, 1, 71, 0
3, 81712, Note_on_c, 1, 64, 80
3, 81717, Note_on_c, 1, 85, 80
3, 81837, Note_on_c, 1, 69, 80
3, 81941, Note_on_c, 1, 69, 0
3, 81942, Note_on_c, 1, 67, 80
3, 81944, Note_on_c, 1, 64, 0
3, 81961, Note_on_c, 1, 76, 80
3, 81969, Note_on_c, 1, 85, 0
3, 82008, Note_on_c, 1, 76, 0
3, 82063, Note_on_c, 1, 67, 0
3, 82064, Note_on_c, 1, 66, 80
3, 82088, Note_on_c, 1, 81, 80
3, 82182, Note_on_c, 1, 66, 0
3, 82185, Note_on_c, 1, 71, 80
3, 82203, Note_on_c, 1, 86, 80
3, 82283, Note_on_c, 1, 86, 0
3, 82292, Note_on_c, 1, 71, 0
3, 82312, Note_on_c, 1, 73, 80
3, 82317, Note_on_c, 1, 79, 80
3, 82318, Note_on_c, 1, 88, 80
3, 82324, Note_on_c, 1, 81, 0
3, 82368, Note_on_c, 1, 88, 0
3, 82369, Note_on_c, 1, 73, 0
3, 82437, Note_on_c, 1, 78, 80
3, 82437, Note_on_c, 1, 90, 80
3, 82438, Note_on_c, 1, 74, 80
3, 82445, Note_on_c, 1, 79, 0
3, 82518, Note_on_c, 1, 78, 0
3, 82547, Note_on_c, 1, 74, 0
3, 82550, Note_on_c, 1, 90, 0
3, 82553, Note_on_c, 1, 73, 80
3, 82553, Note_on_c, 1, 93, 80
3, 82556, Note_on_c, 1, 76, 80
3, 82628, Note_on_c, 1, 73, 0
3, 82628, Note_on_c, 1, 76, 0
3, 82652, Note_on_c, 1, 93, 0
3, 82659, Note_on_c, 1, 74, 80
3, 82661, Note_on_c, 1, 71, 80
3, 82662, Note_on_c, 1, 92, 80
3, 82717, Note_on_c, 1, 92, 0
3, 82726, Note_on_c, 1, 74, 0
3, 82728, Note_on_c, 1, 71, 0
3, 82776, Note_on_c, 1, 93, 80
3, 82785, Note_on_c, 1, 73, 80
3, 82786, Note_on_c, 1, 76, 80
3, 82902, Note_on_c, 1, 93, 0
3, 82903, Note_on_c, 1, 88, 80
3, 82943, Note_on_c, 1, 88, 0
3, 83017, Note_on_c, 1, 85, 80
3, 83046, Note_on_c, 1, 85, 0
3, 83131, Note_on_c, 1, 81, 80
3, 83136, Note_on_c, 1, 73, 0
3, 83138, Note_on_c, 1, 76, 0
3, 83260, Note_on_c, 1, 76, 80
3, 83317, Note_on_c, 1, 76, 0
3, 83379, Note_on_c, 1, 73, 80
3, 83426, Note_on_c, 1, 73, 0
3, 83458, Note_on_c, 1, 81, 0
3, 83507, Note_on_c, 1, 69, 80
3, 83779, Note_on_c, 1, 69, 0
3, 83987, Note_on_c, 1, 85, 80
3, 84085, Note_on_c, 1, 85, 0
3, 84105, Note_on_c, 1, 86, 80
3, 84153, Note_on_c, 1, 86, 0
3, 84224, Note_on_c, 1, 88, 80
3, 84337, Note_on_c, 1, 88, 0
3, 84341, Note_on_c, 1, 81, 80
3, 84396, Note_on_c, 1, 81, 0
3, 84461, Note_on_c, 1, 80, 80
3, 84507, Note_on_c, 1, 80, 0
3, 84581, Note_on_c, 1, 78, 80
3, 84699, Note_on_c, 1, 80, 80
3, 84714, Note_on_c, 1, 78, 0
3, 84752, Note_on_c, 1, 80, 0
3, 84817, Note_on_c, 1, 81, 80
3, 84880, Note_on_c, 1, 81, 0
3, 84943, Note_on_c, 1, 80, 80
3, 85065, Note_on_c, 1, 80, 0
3, 85068, Note_on_c, 1, 83, 80
3, 85071, Note_on_c, 1, 92, 80
3, 85165, Note_on_c, 1, 83, 0
3, 85171, Note_on_c, 1, 92, 0
3, 85181, Note_on_c, 1, 93, 80
3, 85183, Note_on_c, 1, 81, 80
3, 85216, Note_on_c, 1, 93, 0
3, 85238, Note_on_c, 1, 81, 0
3, 85293, Note_on_c, 1, 80, 80
3, 85297, Note_on_c, 1, 95, 80
3, 85410, Note_on_c, 1, 81, 80
3, 85413, Note_on_c, 1, 80, 0
3, 85420, Note_on_c, 1, 95, 0
3, 85420, Note_on_c, 1, 88, 80
3, 85482, Note_on_c, 1, 81, 0
3, 85482, Note_on_c, 1, 88, 0
3, 85526, Note_on_c, 1, 83, 80
3, 85538, Note_on_c, 1, 86, 80
3, 85601, Note_on_c, 1, 83, 0
3, 85619, Note_on_c, 1, 86, 0
3, 85648, Note_on_c, 1, 81, 80
3, 85658, Note_on_c, 1, 85, 80
3, 85776, Note_on_c, 1, 83, 80
3, 85783, Note_on_c, 1, 81, 0
3, 85783, Note_on_c, 1, 87, 80
3, 85792, Note_on_c, 1, 85, 0
3, 85848, Note_on_c, 1, 87, 0
3, 85856, Note_on_c, 1, 83, 0
3, 85892, Note_on_c, 1, 80, 80
3, 85903, Note_on_c, 1, 88, 80
3, 85966, Note_on_c, 1, 88, 0
3, 85977, Note_on_c, 1, 80, 0
3, 86024, Note_on_c, 1, 87, 80
3, 86025, Note_on_c, 1, 81, 80
3, 86149, Note_on_c, 1, 90, 80
3, 86152, Note_on_c, 1, 75, 80
3, 86154, Note_on_c, 1, 87, 0
3, 86208, Note_on_c, 1, 90, 0
3, 86212, Note_on_c, 1, 75, 0
3, 86259, Note_on_c, 1, 76, 80
3, 86262, Note_on_c, 1, 88, 80
3, 86298, Note_on_c, 1, 88, 0
3, 86317, Note_on_c, 1, 76, 0
3, 86376, Note_on_c, 1, 78, 80
3, 86380, Note_on_c, 1, 87, 80
3, 86479, Note_on_c, 1, 78, 0
3, 86501, Note_on_c, 1, 69, 80
3, 86502, Note_on_c, 1, 78, 80
3, 86520, Note_on_c, 1, 87, 0
3, 86529, Note_on_c, 1, 81, 0
3, 86557, Note_on_c, 1, 69, 0
3, 86615, Note_on_c, 1, 88, 80
3, 86616, Note_on_c, 1, 78, 0
3, 86617, Note_on_c, 1, 80, 80
3, 86618, Note_on_c, 1, 68, 80
3, 86652, Note_on_c, 1, 88, 0
3, 86677, Note_on_c, 1, 68, 0
3, 86712, Note_on_c, 1, 80, 0
3, 86736, Note_on_c, 1, 66, 80
3, 86744, Note_on_c, 1, 88, 80
3, 86745, Note_on_c, 1, 81, 80
3, 86855, Note_on_c, 1, 68, 80
3, 86862, Note_on_c, 1, 80, 80
3, 86866, Note_on_c, 1, 66, 0
3, 86870, Note_on_c, 1, 81, 0
3, 86909, Note_on_c, 1, 88, 0
3, 86912, Note_on_c, 1, 68, 0
3, 86972, Note_on_c, 1, 69, 80
3, 86981, Note_on_c, 1, 87, 80
3, 86982, Note_on_c, 1, 80, 0
3, 86984, Note_on_c, 1, 78, 80
3, 87026, Note_on_c, 1, 78, 0
3, 87048, Note_on_c, 1, 69, 0
3, 87069, Note_on_c, 1, 87, 0
3, 87098, Note_on_c, 1, 68, 80
3, 87109, Note_on_c, 1, 83, 80
3, 87146, Note_on_c, 1, 68, 0
3, 87229, Note_on_c, 1, 88, 80
3, 87231, Note_on_c, 1, 80, 80
3, 87280, Note_on_c, 1, 80, 0
3, 87287, Note_on_c, 1, 88, 0
3, 87341, Note_on_c, 1, 81, 80
3, 87349, Note_on_c, 1, 90, 80
3, 87371, Note_on_c, 1, 83, 0
3, 87388, Note_on_c, 1, 90, 0
3, 87406, Note_on_c, 1, 81, 0
3, 87463, Note_on_c, 1, 83, 80
3, 87471, Note_on_c, 1, 92, 80
3, 87546, Note_on_c, 1, 83, 0
3, 87578, Note_on_c, 1, 74, 80
3, 87599, Note_on_c, 1, 83, 80
3, 87612, Note_on_c, 1, 92, 0
3, 87641, Note_on_c, 1, 74, 0
3, 87701, Note_on_c, 1, 73, 80
3, 87714, Note_on_c, 1, 93, 80
3, 87718, Note_on_c, 1, 85, 80
3, 87724, Note_on_c, 1, 83, 0
3, 87750, Note_on_c, 1, 93, 0
3, 87762, Note_on_c, 1, 73, 0
3, 87832, Note_on_c, 1, 71, 80
3, 87844, Note_on_c, 1, 93, 80
3, 87846, Note_on_c, 1, 85, 0
3, 87846, Note_on_c, 1, 86, 80
3, 87956, Note_on_c, 1, 73, 80
3, 87961, Note_on_c, 1, 85, 80
3, 87973, Note_on_c, 1, 86, 0
3, 87977, Note_on_c, 1, 71, 0
3, 87988, Note_on_c, 1, 93, 0
3, 88009, Note_on_c, 1, 73, 0
3, 88072, Note_on_c, 1, 74, 80
3, 88081, Note_on_c, 1, 85, 0
3, 88082, Note_on_c, 1, 83, 80
3, 88082, Note_on_c, 1, 92, 80
3, 88133, Note_on_c, 1, 92, 0
3, 88138, Note_on_c, 1, 74, 0
3, 88197, Note_on_c, 1, 73, 80
3, 88207, Note_on_c, 1, 83, 0
3, 88208, Note_on_c, 1, 81, 80
3, 88210, Note_on_c, 1, 93, 80
3, 88288, Note_on_c, 1, 93, 0
3, 88292, Note_on_c, 1, 73, 0
3, 88320, Note_on_c, 1, 85, 80
3, 88322, Note_on_c, 1, 81, 0
3, 88324, Note_on_c, 1, 69, 80
3, 88386, Note_on_c, 1, 69, 0
3, 88395, Note_on_c, 1, 85, 0
3, 88432, Note_on_c, 1, 86, 80
3, 88434, Note_on_c, 1, 71, 80
3, 88502, Note_on_c, 1, 86, 0
3, 88509, Note_on_c, 1, 71, 0
3, 88553, Note_on_c, 1, 73, 80
3, 88555, Note_on_c, 1, 88, 80
3, 88660, Note_on_c, 1, 88, 0
3, 88670, Note_on_c, 1, 81, 80
3, 88671, Note_on_c, 1, 90, 80
3, 88672, Note_on_c, 1, 74, 80
3, 88673, Note_on_c, 1, 73, 0
3, 88714, Note_on_c, 1, 74, 0
3, 88745, Note_on_c, 1, 81, 0
3, 88746, Note_on_c, 1, 90, 0
3, 88785, Note_on_c, 1, 92, 80
3, 88790, Note_on_c, 1, 80, 80
3, 88792, Note_on_c, 1, 76, 80
3, 88835, Note_on_c, 1, 92, 0
3, 88840, Note_on_c, 1, 80, 0
3, 88849, Note_on_c, 1, 76, 0
3, 88899, Note_on_c, 1, 78, 80
3, 88902, Note_on_c, 1, 93, 80
3, 88902, Note_on_c, 1, 74, 80
3, 89021, Note_on_c, 1, 80, 80
3, 89022, Note_on_c, 1, 78, 0
3, 89026, Note_on_c, 1, 92, 80
3, 89033, Note_on_c, 1, 93, 0
3, 89070, Note_on_c, 1, 92, 0
3, 89088, Note_on_c, 1, 80, 0
3, 89139, Note_on_c, 1, 81, 80
3, 89145, Note_on_c, 1, 90, 80
3, 89180, Note_on_c, 1, 90, 0
3, 89211, Note_on_c, 1, 81, 0
3, 89254, Note_on_c, 1, 80, 80
3, 89264, Note_on_c, 1, 88, 80
3, 89307, Note_on_c, 1, 80, 0
3, 89368, Note_on_c, 1, 74, 0
3, 89376, Note_on_c, 1, 73, 80
3, 89383, Note_on_c, 1, 81, 80
3, 89489, Note_on_c, 1, 73, 0
3, 89497, Note_on_c, 1, 74, 80
3, 89501, Note_on_c, 1, 81, 0
3, 89508, Note_on_c, 1, 86, 80
3, 89510, Note_on_c, 1, 88, 0
3, 89510, Note_on_c, 1, 83, 80
3, 89560, Note_on_c, 1, 86, 0
3, 89584, Note_on_c, 1, 74, 0
3, 89606, Note_on_c, 1, 83, 0
3, 89617, Note_on_c, 1, 76, 80
3, 89625, Note_on_c, 1, 85, 80
3, 89626, Note_on_c, 1, 81, 80
3, 89730, Note_on_c, 1, 76, 0
3, 89733, Note_on_c, 1, 71, 80
3, 89741, Note_on_c, 1, 85, 0
3, 89744, Note_on_c, 1, 83, 80
3, 89747, Note_on_c, 1, 86, 80
3, 89748, Note_on_c, 1, 81, 0
3, 89808, Note_on_c, 1, 83, 0
3, 89809, Note_on_c, 1, 71, 0
3, 89811, Note_on_c, 1, 86, 0
3, 89856, Note_on_c, 1, 69, 80
3, 89868, Note_on_c, 1, 85, 80
3, 89870, Note_on_c, 1, 88, 80
3, 89921, Note_on_c, 1, 85, 0
3, 89928, Note_on_c, 1, 69, 0
3, 89984, Note_on_c, 1, 68, 80
3, 89988, Note_on_c, 1, 83, 80
3, 90105, Note_on_c, 1, 69, 80
3, 90109, Note_on_c, 1, 81, 80
3, 90114, Note_on_c, 1, 83, 0
3, 90116, Note_on_c, 1, 68, 0
3, 90162, Note_on_c, 1, 81, 0
3, 90198, Note_on_c, 1, 69, 0
3, 90224, Note_on_c, 1, 71, 80
3, 90225, Note_on_c, 1, 80, 80
3, 90264, Note_on_c, 1, 80, 0
3, 90289, Note_on_c, 1, 71, 0
3, 90343, Note_on_c, 1, 69, 80
3, 90347, Note_on_c, 1, 81, 80
3, 90362, Note_on_c, 1, 88, 0
3, 90465, Note_on_c, 1, 71, 80
3, 90466, Note_on_c, 1, 69, 0
3, 90472, Note_on_c, 1, 86, 80
3, 90524, Note_on_c, 1, 86, 0
3, 90533, Note_on_c, 1, 71, 0
3, 90581, Note_on_c, 1, 73, 80
3, 90589, Note_on_c, 1, 88, 80
3, 90636, Note_on_c, 1, 73, 0
3, 90673, Note_on_c, 1, 88, 0
3, 90699, Note_on_c, 1, 74, 80
3, 90712, Note_on_c, 1, 90, 80
3, 90819, Note_on_c, 1, 76, 80
3, 90824, Note_on_c, 1, 74, 0
3, 90825, Note_on_c, 1, 80, 80
3, 90826, Note_on_c, 1, 83, 80
3, 90828, Note_on_c, 1, 90, 0
3, 90829, Note_on_c, 1, 81, 0
3, 90889, Note_on_c, 1, 83, 0
3, 90907, Note_on_c, 1, 76, 0
3, 90936, Note_on_c, 1, 80, 0
3, 90940, Note_on_c, 1, 78, 80
3, 90940, Note_on_c, 1, 78, 80
3, 90941, Note_on_c, 1, 81, 80
3, 90983, Note_on_c, 1, 78, 0
3, 91008, Note_on_c, 1, 78, 0
3, 91057, Note_on_c, 1, 76, 80
3, 91059, Note_on_c, 1, 80, 80
3, 91065, Note_on_c, 1, 81, 0
3, 91176, Note_on_c, 1, 80, 0
3, 91178, Note_on_c, 1, 81, 80
3, 91179, Note_on_c, 1, 78, 80
3, 91181, Note_on_c, 1, 76, 0
3, 91227, Note_on_c, 1, 81, 0
3, 91283, Note_on_c, 1, 78, 0
3, 91294, Note_on_c, 1, 83, 80
3, 91299, Note_on_c, 1, 74, 80
3, 91353, Note_on_c, 1, 83, 0
3, 91367, Note_on_c, 1, 74, 0
3, 91409, Note_on_c, 1, 76, 80
3, 91421, Note_on_c, 1, 85, 80
3, 91539, Note_on_c, 1, 81, 80
3, 91613, Note_on_c, 1, 81, 0
3, 91652, Note_on_c, 1, 79, 80
3, 91704, Note_on_c, 1, 79, 0
3, 91760, Note_on_c, 1, 76, 0
3, 91769, Note_on_c, 1, 78, 80
3, 91888, Note_on_c, 1, 78, 0
3, 91901, Note_on_c, 1, 83, 80
3, 91912, Note_on_c, 1, 93, 80
3, 91960, Note_on_c, 1, 93, 0
3, 91984, Note_on_c, 1, 83, 0
3, 92012, Note_on_c, 1, 85, 80
3, 92031, Note_on_c, 1, 91, 80
3, 92042, Note_on_c, 1, 85, 0
3, 92068, Note_on_c, 1, 91, 0
3, 92136, Note_on_c, 1, 85, 0
3, 92153, Note_on_c, 1, 90, 80
3, 92155, Note_on_c, 1, 86, 80
3, 92269, Note_on_c, 1, 88, 80
3, 92270, Note_on_c, 1, 85, 80
3, 92272, Note_on_c, 1, 86, 0
3, 92279, Note_on_c, 1, 90, 0
3, 92315, Note_on_c, 1, 88, 0
3, 92317, Note_on_c, 1, 85, 0
3, 92380, Note_on_c, 1, 86, 80
3, 92381, Note_on_c, 1, 83, 80
3, 92416, Note_on_c, 1, 86, 0
3, 92425, Note_on_c, 1, 83, 0
3, 92503, Note_on_c, 1, 85, 80
3, 92503, Note_on_c, 1, 81, 80
3, 92618, Note_on_c, 1, 69, 80
3, 92618, Note_on_c, 1, 86, 80
3, 92619, Note_on_c, 1, 85, 0
3, 92654, Note_on_c, 1, 86, 0
3, 92706, Note_on_c, 1, 69, 0
3, 92727, Note_on_c, 1, 67, 80
3, 92738, Note_on_c, 1, 88, 80
3, 92839, Note_on_c, 1, 67, 0
3, 92845, Note_on_c, 1, 66, 80
3, 92926, Note_on_c, 1, 88, 0
3, 92938, Note_on_c, 1, 66, 0
3, 92963, Note_on_c, 1, 71, 80
3, 92963, Note_on_c, 1, 86, 80
3, 92964, Note_on_c, 1, 78, 80
3, 93027, Note_on_c, 1, 78, 0
3, 93049, Note_on_c, 1, 86, 0
3, 93051, Note_on_c, 1, 71, 0
3, 93092, Note_on_c, 1, 73, 80
3, 93095, Note_on_c, 1, 76, 80
3, 93112, Note_on_c, 1, 88, 80
3, 93152, Note_on_c, 1, 88, 0
3, 93211, Note_on_c, 1, 73, 0
3, 93214, Note_on_c, 1, 74, 80
3, 93216, Note_on_c, 1, 76, 0
3, 93232, Note_on_c, 1, 90, 80
3, 93332, Note_on_c, 1, 73, 80
3, 93386, Note_on_c, 1, 81, 0
3, 93400, Note_on_c, 1, 73, 0
3, 93430, Note_on_c, 1, 90, 0
3, 93455, Note_on_c, 1, 71, 80
3, 93469, Note_on_c, 1, 92, 80
3, 93470, Note_on_c, 1, 83, 80
3, 93505, Note_on_c, 1, 92, 0
3, 93511, Note_on_c, 1, 83, 0
3, 93513, Note_on_c, 1, 71, 0
3, 93589, Note_on_c, 1, 76, 80
3, 93591, Note_on_c, 1, 69, 80
3, 93600, Note_on_c, 1, 74, 0
3, 93600, Note_on_c, 1, 85, 80
3, 93601, Note_on_c, 1, 93, 80
3, 93780, Note_on_c, 1, 76, 0
3, 93781, Note_on_c, 1, 69, 0
3, 93829, Note_on_c, 1, 93, 0
3, 93830, Note_on_c, 1, 85, 0
3, 93848, Note_on_c, 1, 73, 80
3, 93894, Note_on_c, 1, 73, 0
3, 93967, Note_on_c, 1, 73, 80
3, 94080, Note_on_c, 1, 69, 80
3, 94085, Note_on_c, 1, 73, 0
3, 94118, Note_on_c, 1, 69, 0
3, 94193, Note_on_c, 1, 73, 80
3, 94234, Note_on_c, 1, 73, 0
3, 94315, Note_on_c, 1, 73, 80
3, 94433, Note_on_c, 1, 68, 80
3, 94446, Note_on_c, 1, 73, 0
3, 94472, Note_on_c, 1, 68, 0
3, 94550, Note_on_c, 1, 73, 80
3, 94591, Note_on_c, 1, 73, 0
3, 94671, Note_on_c, 1, 69, 80
3, 94791, Note_on_c, 1, 66, 80
3, 94800, Note_on_c, 1, 69, 0
3, 94833, Note_on_c, 1, 66, 0
3, 94896, Note_on_c, 1, 78, 80
3, 94910, Note_on_c, 1, 70, 80
3, 94924, Note_on_c, 1, 78, 0
3, 94951, Note_on_c, 1, 70, 0
3, 95021, Note_on_c, 1, 71, 80
3, 95026, Note_on_c, 1, 78, 80
3, 95147, Note_on_c, 1, 75, 80
3, 95152, Note_on_c, 1, 78, 0
3, 95180, Note_on_c, 1, 75, 0
3, 95219, Note_on_c, 1, 71, 0
3, 95265, Note_on_c, 1, 78, 80
3, 95293, Note_on_c, 1, 78, 0
3, 95370, Note_on_c, 1, 70, 80
3, 95384, Note_on_c, 1, 78, 80
3, 95501, Note_on_c, 1, 70, 0
3, 95502, Note_on_c, 1, 78, 0
3, 95505, Note_on_c, 1, 73, 80
3, 95533, Note_on_c, 1, 73, 0
3, 95612, Note_on_c, 1, 78, 80
3, 95645, Note_on_c, 1, 78, 0
3, 95727, Note_on_c, 1, 71, 80
3, 95743, Note_on_c, 1, 75, 80
3, 95829, Note_on_c, 1, 75, 0
3, 95864, Note_on_c, 1, 71, 80
3, 95915, Note_on_c, 1, 71, 0
3, 95930, Note_on_c, 1, 71, 0
3, 95974, Note_on_c, 1, 69, 80
3, 95984, Note_on_c, 1, 83, 80
3, 95986, Note_on_c, 1, 75, 80
3, 96022, Note_on_c, 1, 75, 0
3, 96026, Note_on_c, 1, 83, 0
3, 96045, Note_on_c, 1, 69, 0
3, 96099, Note_on_c, 1, 68, 80
3, 96119, Note_on_c, 1, 83, 80
3, 96120, Note_on_c, 1, 76, 80
3, 96244, Note_on_c, 1, 80, 80
3, 96245, Note_on_c, 1, 83, 0
3, 96279, Note_on_c, 1, 80, 0
3, 96332, Note_on_c, 1, 68, 0
3, 96361, Note_on_c, 1, 83, 80
3, 96381, Note_on_c, 1, 76, 0
3, 96395, Note_on_c, 1, 83, 0
3, 96474, Note_on_c, 1, 71, 80
3, 96486, Note_on_c, 1, 75, 80
3, 96487, Note_on_c, 1, 83, 80
3, 96610, Note_on_c, 1, 78, 80
3, 96613, Note_on_c, 1, 83, 0
3, 96648, Note_on_c, 1, 78, 0
3, 96713, Note_on_c, 1, 71, 0
3, 96728, Note_on_c, 1, 83, 80
3, 96761, Note_on_c, 1, 83, 0
3, 96762, Note_on_c, 1, 75, 0
3, 96833, Note_on_c, 1, 64, 80
3, 96845, Note_on_c, 1, 76, 80
3, 96848, Note_on_c, 1, 80, 80
3, 96918, Note_on_c, 1, 80, 0
3, 96956, Note_on_c, 1, 76, 0
3, 96966, Note_on_c, 1, 76, 80
3, 96988, Note_on_c, 1, 64, 0
3, 97007, Note_on_c, 1, 76, 0
3, 97075, Note_on_c, 1, 64, 80
3, 97080, Note_on_c, 1, 74, 80
3, 97080, Note_on_c, 1, 80, 80
3, 97116, Note_on_c, 1, 64, 0
3, 97117, Note_on_c, 1, 80, 0
3, 97122, Note_on_c, 1, 74, 0
3, 97202, Note_on_c, 1, 64, 80
3, 97204, Note_on_c, 1, 81, 80
3, 97204, Note_on_c, 1, 73, 80
3, 97302, Note_on_c, 1, 73, 0
3, 97303, Note_on_c, 1, 81, 0
3, 97322, Note_on_c, 1, 61, 80
3, 97335, Note_on_c, 1, 64, 0
3, 97357, Note_on_c, 1, 61, 0
3, 97435, Note_on_c, 1, 64, 80
3, 97473, Note_on_c, 1, 64, 0
3, 97551, Note_on_c, 1, 74, 80
3, 97553, Note_on_c, 1, 80, 80
3, 97558, Note_on_c, 1, 64, 80
3, 97662, Note_on_c, 1, 74, 0
3, 97664, Note_on_c, 1, 80, 0
3, 97673, Note_on_c, 1, 59, 80
3, 97685, Note_on_c, 1, 64, 0
3, 97716, Note_on_c, 1, 59, 0
3, 97786, Note_on_c, 1, 64, 80
3, 97834, Note_on_c, 1, 64, 0
3, 97903, Note_on_c, 1, 76, 80
3, 97904, Note_on_c, 1, 81, 80
3, 97906, Note_on_c, 1, 61, 80
3, 98025, Note_on_c, 1, 61, 0
3, 98025, Note_on_c, 1, 57, 80
3, 98041, Note_on_c, 1, 76, 0
3, 98046, Note_on_c, 1, 81, 0
3, 98070, Note_on_c, 1, 57, 0
3, 98137, Note_on_c, 1, 68, 80
3, 98137, Note_on_c, 1, 59, 80
3, 98156, Note_on_c, 1, 88, 80
3, 98187, Note_on_c, 1, 59, 0
3, 98187, Note_on_c, 1, 88, 0
3, 98188, Note_on_c, 1, 68, 0
3, 98268, Note_on_c, 1, 61, 80
3, 98269, Note_on_c, 1, 69, 80
3, 98283, Note_on_c, 1, 88, 80
3, 98381, Note_on_c, 1, 61, 0
3, 98387, Note_on_c, 1, 64, 80
3, 98404, Note_on_c, 1, 85, 80
3, 98415, Note_on_c, 1, 88, 0
3, 98438, Note_on_c, 1, 85, 0
3, 98515, Note_on_c, 1, 62, 80
3, 98519, Note_on_c, 1, 88, 80
3, 98521, Note_on_c, 1, 64, 0
3, 98551, Note_on_c, 1, 88, 0
3, 98600, Note_on_c, 1, 62, 0
3, 98634, Note_on_c, 1, 64, 80
3, 98646, Note_on_c, 1, 88, 80
3, 98762, Note_on_c, 1, 83, 80
3, 98772, Note_on_c, 1, 88, 0
3, 98795, Note_on_c, 1, 83, 0
3, 98857, Note_on_c, 1, 69, 0
3, 98873, Note_on_c, 1, 68, 80
3, 98877, Note_on_c, 1, 88, 80
3, 98886, Note_on_c, 1, 64, 0
3, 98910, Note_on_c, 1, 68, 0
3, 98920, Note_on_c, 1, 88, 0
3, 98999, Note_on_c, 1, 69, 80
3, 98999, Note_on_c, 1, 85, 80
3, 99114, Note_on_c, 1, 73, 80
3, 99122, Note_on_c, 1, 81, 80
3, 99125, Note_on_c, 1, 85, 0
3, 99164, Note_on_c, 1, 81, 0
3, 99239, Note_on_c, 1, 85, 80
3, 99243, Note_on_c, 1, 76, 80
3, 99252, Note_on_c, 1, 73, 0
3, 99267, Note_on_c, 1, 69, 0
3, 99272, Note_on_c, 1, 85, 0
3, 99351, Note_on_c, 1, 69, 80
3, 99364, Note_on_c, 1, 85, 80
3, 99446, Note_on_c, 1, 76, 0
3, 99468, Note_on_c, 1, 73, 80
3, 99480, Note_on_c, 1, 81, 80
3, 99486, Note_on_c, 1, 85, 0
3, 99518, Note_on_c, 1, 81, 0
3, 99524, Note_on_c, 1, 73, 0
3, 99588, Note_on_c, 1, 78, 80
3, 99600, Note_on_c, 1, 85, 80
3, 99629, Note_on_c, 1, 85, 0
3, 99708, Note_on_c, 1, 68, 80
3, 99710, Note_on_c, 1, 69, 0
3, 99726, Note_on_c, 1, 85, 80
3, 99827, Note_on_c, 1, 73, 80
3, 99837, Note_on_c, 1, 80, 80
3, 99846, Note_on_c, 1, 85, 0
3, 99869, Note_on_c, 1, 68, 0
3, 99880, Note_on_c, 1, 80, 0
3, 99892, Note_on_c, 1, 78, 0
3, 99947, Note_on_c, 1, 77, 80
3, 99958, Note_on_c, 1, 85, 80
3, 100000, Note_on_c, 1, 85, 0
3, 100004, Note_on_c, 1, 73, 0
3, 100021, Note_on_c, 1, 77, 0
3, 100070, Note_on_c, 1, 66, 80
3, 100077, Note_on_c, 1, 81, 80
3, 100187, Note_on_c, 1, 73, 80
3, 100193, Note_on_c, 1, 78, 80
3, 100200, Note_on_c, 1, 81, 0
3, 100235, Note_on_c, 1, 73, 0
3, 100239, Note_on_c, 1, 78, 0
3, 100304, Note_on_c, 1, 81, 80
3, 100307, Note_on_c, 1, 78, 80
3, 100344, Note_on_c, 1, 81, 0
3, 100397, Note_on_c, 1, 66, 0
3, 100403, Note_on_c, 1, 78, 0
3, 100420, Note_on_c, 1, 69, 80
3, 100426, Note_on_c, 1, 85, 80
3, 100536, Note_on_c, 1, 73, 80
3, 100544, Note_on_c, 1, 81, 80
3, 100545, Note_on_c, 1, 85, 0
3, 100580, Note_on_c, 1, 73, 0
3, 100582, Note_on_c, 1, 81, 0
3, 100656, Note_on_c, 1, 78, 80
3, 100666, Note_on_c, 1, 85, 80
3, 100712, Note_on_c, 1, 85, 0
3, 100777, Note_on_c, 1, 70, 80
3, 100782, Note_on_c, 1, 78, 0
3, 100786, Note_on_c, 1, 69, 0
3, 100800, Note_on_c, 1, 88, 80
3, 100910, Note_on_c, 1, 73, 80
3, 100916, Note_on_c, 1, 85, 80
3, 100923, Note_on_c, 1, 88, 0
3, 100948, Note_on_c, 1, 85, 0
3, 101000, Note_on_c, 1, 73, 0
3, 101022, Note_on_c, 1, 78, 80
3, 101041, Note_on_c, 1, 88, 80
3, 101086, Note_on_c, 1, 78, 0
3, 101089, Note_on_c, 1, 70, 0
3, 101089, Note_on_c, 1, 88, 0
3, 101151, Note_on_c, 1, 71, 80
3, 101161, Note_on_c, 1, 87, 80
3, 101283, Note_on_c, 1, 83, 80
3, 101284, Note_on_c, 1, 87, 0
3, 101286, Note_on_c, 1, 75, 80
3, 101339, Note_on_c, 1, 83, 0
3, 101345, Note_on_c, 1, 75, 0
3, 101390, Note_on_c, 1, 78, 80
3, 101400, Note_on_c, 1, 87, 80
3, 101426, Note_on_c, 1, 78, 0
3, 101449, Note_on_c, 1, 87, 0
3, 101520, Note_on_c, 1, 75, 80
3, 101523, Note_on_c, 1, 90, 80
3, 101637, Note_on_c, 1, 78, 80
3, 101640, Note_on_c, 1, 87, 80
3, 101644, Note_on_c, 1, 75, 0
3, 101644, Note_on_c, 1, 90, 0
3, 101682, Note_on_c, 1, 87, 0
3, 101688, Note_on_c, 1, 78, 0
3, 101752, Note_on_c, 1, 81, 80
3, 101761, Note_on_c, 1, 90, 80
3, 101798, Note_on_c, 1, 81, 0
3, 101800, Note_on_c, 1, 90, 0
3, 101814, Note_on_c, 1, 71, 0
3, 101874, Note_on_c, 1, 76, 80
3, 101891, Note_on_c, 1, 95, 80
3, 102000, Note_on_c, 1, 76, 0
3, 102000, Note_on_c, 1, 80, 80
3, 102003, Note_on_c, 1, 95, 0
3, 102005, Note_on_c, 1, 83, 80
3, 102061, Note_on_c, 1, 83, 0
3, 102078, Note_on_c, 1, 80, 0
3, 102122, Note_on_c, 1, 76, 80
3, 102125, Note_on_c, 1, 83, 80
3, 102126, Note_on_c, 1, 86, 80
3, 102160, Note_on_c, 1, 86, 0
3, 102161, Note_on_c, 1, 76, 0
3, 102165, Note_on_c, 1, 83, 0
3, 102247, Note_on_c, 1, 76, 80
3, 102248, Note_on_c, 1, 85, 80
3, 102249, Note_on_c, 1, 81, 80
3, 102333, Note_on_c, 1, 85, 0
3, 102338, Note_on_c, 1, 81, 0
3, 102362, Note_on_c, 1, 73, 80
3, 102370, Note_on_c, 1, 88, 80
3, 102375, Note_on_c, 1, 76, 0
3, 102399, Note_on_c, 1, 73, 0
3, 102436, Note_on_c, 1, 88, 0
3, 102482, Note_on_c, 1, 81, 80
3, 102484, Note_on_c, 1, 76, 80
3, 102524, Note_on_c, 1, 76, 0
3, 102530, Note_on_c, 1, 81, 0
3, 102598, Note_on_c, 1, 76, 80
3, 102605, Note_on_c, 1, 83, 80
3, 102716, Note_on_c, 1, 71, 80
3, 102720, Note_on_c, 1, 88, 80
3, 102724, Note_on_c, 1, 83, 0
3, 102731, Note_on_c, 1, 76, 0
3, 102767, Note_on_c, 1, 88, 0
3, 102771, Note_on_c, 1, 71, 0
3, 102834, Note_on_c, 1, 76, 80
3, 102839, Note_on_c, 1, 80, 80
3, 102873, Note_on_c, 1, 80, 0
3, 102881, Note_on_c, 1, 76, 0
3, 102949, Note_on_c, 1, 76, 80
3, 102961, Note_on_c, 1, 81, 80
3, 103069, Note_on_c, 1, 69, 80
3, 103080, Note_on_c, 1, 76, 0
3, 103084, Note_on_c, 1, 87, 80
3, 103093, Note_on_c, 1, 81, 0
3, 103124, Note_on_c, 1, 69, 0
3, 103138, Note_on_c, 1, 87, 0
3, 103195, Note_on_c, 1, 75, 80
3, 103197, Note_on_c, 1, 78, 80
3, 103241, Note_on_c, 1, 75, 0
3, 103245, Note_on_c, 1, 78, 0
3, 103318, Note_on_c, 1, 76, 80
3, 103319, Note_on_c, 1, 80, 80
3, 103418, Note_on_c, 1, 76, 0
3, 103434, Note_on_c, 1, 71, 80
3, 103437, Note_on_c, 1, 80, 0
3, 103485, Note_on_c, 1, 71, 0
3, 103542, Note_on_c, 1, 75, 80
3, 103543, Note_on_c, 1, 69, 80
3, 103555, Note_on_c, 1, 95, 80
3, 103584, Note_on_c, 1, 75, 0
3, 103587, Note_on_c, 1, 95, 0
3, 103589, Note_on_c, 1, 69, 0
3, 103670, Note_on_c, 1, 76, 80
3, 103671, Note_on_c, 1, 68, 80
3, 103672, Note_on_c, 1, 71, 80
3, 103683, Note_on_c, 1, 95, 80
3, 103800, Note_on_c, 1, 92, 80
3, 103809, Note_on_c, 1, 76, 0
3, 103812, Note_on_c, 1, 68, 0
3, 103812, Note_on_c, 1, 71, 0
3, 103813, Note_on_c, 1, 95, 0
3, 103834, Note_on_c, 1, 92, 0
3, 103915, Note_on_c, 1, 95, 80
3, 103954, Note_on_c, 1, 95, 0
3, 104031, Note_on_c, 1, 75, 80
3, 104033, Note_on_c, 1, 66, 80
3, 104034, Note_on_c, 1, 69, 80
3, 104039, Note_on_c, 1, 95, 80
3, 104160, Note_on_c, 1, 90, 80
3, 104162, Note_on_c, 1, 75, 0
3, 104167, Note_on_c, 1, 66, 0
3, 104169, Note_on_c, 1, 69, 0
3, 104171, Note_on_c, 1, 95, 0
3, 104196, Note_on_c, 1, 90, 0
3, 104273, Note_on_c, 1, 95, 80
3, 104321, Note_on_c, 1, 95, 0
3, 104385, Note_on_c, 1, 76, 80
3, 104386, Note_on_c, 1, 71, 80
3, 104387, Note_on_c, 1, 64, 80
3, 104391, Note_on_c, 1, 92, 80
3, 104507, Note_on_c, 1, 88, 80
3, 104508, Note_on_c, 1, 92, 0
3, 104511, Note_on_c, 1, 73, 80
3, 104517, Note_on_c, 1, 71, 0
3, 104546, Note_on_c, 1, 73, 0
3, 104552, Note_on_c, 1, 88, 0
3, 104621, Note_on_c, 1, 74, 80
3, 104625, Note_on_c, 1, 92, 80
3, 104627, Note_on_c, 1, 88, 80
3, 104661, Note_on_c, 1, 74, 0
3, 104661, Note_on_c, 1, 92, 0
3, 104668, Note_on_c, 1, 88, 0
3, 104738, Note_on_c, 1, 73, 80
3, 104740, Note_on_c, 1, 64, 0
3, 104756, Note_on_c, 1, 93, 80
3, 104757, Note_on_c, 1, 88, 80
3, 104855, Note_on_c, 1, 73, 0
3, 104859, Note_on_c, 1, 69, 80
3, 104864, Note_on_c, 1, 76, 0
3, 104880, Note_on_c, 1, 85, 80
3, 104886, Note_on_c, 1, 88, 0
3, 104912, Note_on_c, 1, 85, 0
3, 104974, Note_on_c, 1, 69, 0
3, 104982, Note_on_c, 1, 73, 80
3, 104993, Note_on_c, 1, 88, 80
3, 104998, Note_on_c, 1, 93, 0
3, 105018, Note_on_c, 1, 88, 0
3, 105070, Note_on_c, 1, 73, 0
3, 105111, Note_on_c, 1, 88, 80
3, 105111, Note_on_c, 1, 76, 80
3, 105113, Note_on_c, 1, 92, 80
3, 105229, Note_on_c, 1, 74, 80
3, 105232, Note_on_c, 1, 83, 80
3, 105241, Note_on_c, 1, 88, 0
3, 105241, Note_on_c, 1, 76, 0
3, 105263, Note_on_c, 1, 83, 0
3, 105276, Note_on_c, 1, 74, 0
3, 105342, Note_on_c, 1, 88, 80
3, 105347, Note_on_c, 1, 76, 80
3, 105372, Note_on_c, 1, 92, 0
3, 105375, Note_on_c, 1, 88, 0
3, 105405, Note_on_c, 1, 76, 0
3, 105464, Note_on_c, 1, 93, 80
3, 105466, Note_on_c, 1, 69, 80
3, 105466, Note_on_c, 1, 85, 80
3, 105577, Note_on_c, 1, 93, 0
3, 105586, Note_on_c, 1, 81, 80
3, 105595, Note_on_c, 1, 85, 0
3, 105607, Note_on_c, 1, 69, 0
3, 105657, Note_on_c, 1, 81, 0
3, 105697, Note_on_c, 1, 64, 80
3, 105707, Note_on_c, 1, 80, 80
3, 105710, Note_on_c, 1, 83, 80
3, 105738, Note_on_c, 1, 64, 0
3, 105758, Note_on_c, 1, 83, 0
3, 105760, Note_on_c, 1, 80, 0
3, 105827, Note_on_c, 1, 64, 80
3, 105829, Note_on_c, 1, 81, 80
3, 105830, Note_on_c, 1, 85, 80
3, 105893, Note_on_c, 1, 85, 0
3, 105946, Note_on_c, 1, 61, 80
3, 105955, Note_on_c, 1, 88, 80
3, 105963, Note_on_c, 1, 64, 0
3, 105985, Note_on_c, 1, 61, 0
3, 106008, Note_on_c, 1, 88, 0
3, 106012, Note_on_c, 1, 81, 0
3, 106065, Note_on_c, 1, 64, 80
3, 106070, Note_on_c, 1, 81, 80
3, 106071, Note_on_c, 1, 85, 80
3, 106108, Note_on_c, 1, 64, 0
3, 106118, Note_on_c, 1, 85, 0
3, 106136, Note_on_c, 1, 81, 0
3, 106187, Note_on_c, 1, 80, 80
3, 106188, Note_on_c, 1, 83, 80
3, 106191, Note_on_c, 1, 64, 80
3, 106258, Note_on_c, 1, 83, 0
3, 106305, Note_on_c, 1, 59, 80
3, 106305, Note_on_c, 1, 86, 80
3, 106318, Note_on_c, 1, 64, 0
3, 106327, Note_on_c, 1, 80, 0
3, 106352, Note_on_c, 1, 59, 0
3, 106358, Note_on_c, 1, 86, 0
3, 106419, Note_on_c, 1, 80, 80
3, 106420, Note_on_c, 1, 83, 80
3, 106421, Note_on_c, 1, 64, 80
3, 106457, Note_on_c, 1, 80, 0
3, 106458, Note_on_c, 1, 83, 0
3, 106469, Note_on_c, 1, 64, 0
3, 106540, Note_on_c, 1, 61, 80
3, 106541, Note_on_c, 1, 81, 80
3, 106543, Note_on_c, 1, 85, 80
3, 106663, Note_on_c, 1, 57, 80
3, 106664, Note_on_c, 1, 61, 0
3, 106671, Note_on_c, 1, 88, 80
3, 106677, Note_on_c, 1, 85, 0
3, 106698, Note_on_c, 1, 88, 0
3, 106705, Note_on_c, 1, 81, 0
3, 106722, Note_on_c, 1, 57, 0
3, 106777, Note_on_c, 1, 59, 80
3, 106794, Note_on_c, 1, 76, 80
3, 106795, Note_on_c, 1, 80, 80
3, 106835, Note_on_c, 1, 80, 0
3, 106836, Note_on_c, 1, 59, 0
3, 106840, Note_on_c, 1, 76, 0
3, 106899, Note_on_c, 1, 61, 80
3, 106931, Note_on_c, 1, 81, 80
3, 106932, Note_on_c, 1, 76, 80
3, 106997, Note_on_c, 1, 76, 0
3, 107037, Note_on_c, 1, 64, 80
3, 107045, Note_on_c, 1, 73, 80
3, 107046, Note_on_c, 1, 61, 0
3, 107075, Note_on_c, 1, 73, 0
3, 107090, Note_on_c, 1, 64, 0
3, 107154, Note_on_c, 1, 69, 80
3, 107160, Note_on_c, 1, 76, 80
3, 107180, Note_on_c, 1, 81, 0
3, 107188, Note_on_c, 1, 76, 0
3, 107209, Note_on_c, 1, 69, 0
3, 107275, Note_on_c, 1, 64, 80
3, 107292, Note_on_c, 1, 76, 80
3, 107292, Note_on_c, 1, 80, 80
3, 107360, Note_on_c, 1, 76, 0
3, 107404, Note_on_c, 1, 68, 80
3, 107412, Note_on_c, 1, 71, 80
3, 107414, Note_on_c, 1, 64, 0
3, 107434, Note_on_c, 1, 71, 0
3, 107463, Note_on_c, 1, 68, 0
3, 107524, Note_on_c, 1, 76, 80
3, 107526, Note_on_c, 1, 71, 80
3, 107553, Note_on_c, 1, 76, 0
3, 107558, Note_on_c, 1, 80, 0
3, 107576, Note_on_c, 1, 71, 0
3, 107651, Note_on_c, 1, 69, 80
3, 107654, Note_on_c, 1, 69, 80
3, 107657, Note_on_c, 1, 76, 80
3, 107658, Note_on_c, 1, 81, 80
3, 107783, Note_on_c, 1, 69, 0
3, 107783, Note_on_c, 1, 81, 0
3, 107787, Note_on_c, 1, 76, 0
3, 107794, Note_on_c, 1, 85, 80
3, 107795, Note_on_c, 1, 73, 80
3, 107917, Note_on_c, 1, 85, 0
3, 107922, Note_on_c, 1, 75, 80
3, 107924, Note_on_c, 1, 84, 80
3, 107926, Note_on_c, 1, 73, 0
3, 108025, Note_on_c, 1, 75, 0
3, 108028, Note_on_c, 1, 77, 80
3, 108029, Note_on_c, 1, 83, 80
3, 108031, Note_on_c, 1, 84, 0
3, 108042, Note_on_c, 1, 68, 80
3, 108054, Note_on_c, 1, 69, 0
3, 108145, Note_on_c, 1, 82, 80
3, 108146, Note_on_c, 1, 78, 80
3, 108147, Note_on_c, 1, 77, 0
3, 108148, Note_on_c, 1, 66, 80
3, 108149, Note_on_c, 1, 68, 0
3, 108151, Note_on_c, 1, 83, 0
3, 108227, Note_on_c, 1, 82, 0
3, 108253, Note_on_c, 1, 66, 0
3, 108254, Note_on_c, 1, 74, 80
3, 108257, Note_on_c, 1, 90, 80
3, 108262, Note_on_c, 1, 81, 80
3, 108263, Note_on_c, 1, 78, 0
3, 108355, Note_on_c, 1, 81, 0
3, 108375, Note_on_c, 1, 92, 80
3, 108379, Note_on_c, 1, 90, 0
3, 108382, Note_on_c, 1, 80, 80
3, 108477, Note_on_c, 1, 80, 0
3, 108482, Note_on_c, 1, 73, 80
3, 108482, Note_on_c, 1, 79, 80
3, 108486, Note_on_c, 1, 94, 80
3, 108487, Note_on_c, 1, 92, 0
3, 108488, Note_on_c, 1, 74, 0
3, 108584, Note_on_c, 1, 79, 0
3, 108589, Note_on_c, 1, 78, 80
3, 108591, Note_on_c, 1, 75, 80
3, 108593, Note_on_c, 1, 73, 0
3, 108593, Note_on_c, 1, 94, 0
3, 108601, Note_on_c, 1, 95, 80
3, 108644, Note_on_c, 1, 75, 0
3, 108646, Note_on_c, 1, 77, 80
3, 108648, Note_on_c, 1, 80, 80
3, 108650, Note_on_c, 1, 78, 0
3, 108699, Note_on_c, 1, 80, 0
3, 108700, Note_on_c, 1, 77, 0
3, 108710, Note_on_c, 1, 78, 80
3, 108712, Note_on_c, 1, 81, 80
3, 108720, Note_on_c, 1, 93, 80
3, 108730, Note_on_c, 1, 95, 0
3, 108829, Note_on_c, 1, 91, 80
3, 108831, Note_on_c, 1, 83, 80
3, 108832, Note_on_c, 1, 93, 0
3, 108838, Note_on_c, 1, 81, 0
3, 108884, Note_on_c, 1, 78, 0
3, 108939, Note_on_c, 1, 83, 0
3, 108948, Note_on_c, 1, 81, 80
3, 108949, Note_on_c, 1, 84, 80
3, 108950, Note_on_c, 1, 90, 80
3, 108951, Note_on_c, 1, 91, 0
3, 109005, Note_on_c, 1, 80, 80
3, 109007, Note_on_c, 1, 81, 0
3, 109056, Note_on_c, 1, 80, 0
3, 109061, Note_on_c, 1, 90, 0
3, 109062, Note_on_c, 1, 84, 0
3, 109062, Note_on_c, 1, 85, 80
3, 109064, Note_on_c, 1, 89, 80
3, 109072, Note_on_c, 1, 81, 80
3, 109183, Note_on_c, 1, 73, 80
3, 109186, Note_on_c, 1, 90, 80
3, 109188, Note_on_c, 1, 89, 0
3, 109302, Note_on_c, 1, 80, 80
3, 109303, Note_on_c, 1, 72, 80
3, 109303, Note_on_c, 1, 87, 80
3, 109304, Note_on_c, 1, 85, 0
3, 109304, Note_on_c, 1, 73, 0
3, 109310, Note_on_c, 1, 81, 0
3, 109416, Note_on_c, 1, 87, 0
3, 109421, Note_on_c, 1, 71, 80
3, 109423, Note_on_c, 1, 72, 0
3, 109426, Note_on_c, 1, 85, 80
3, 109427, Note_on_c, 1, 90, 0
3, 109427, Note_on_c, 1, 88, 80
3, 109545, Note_on_c, 1, 70, 80
3, 109548, Note_on_c, 1, 78, 80
3, 109549, Note_on_c, 1, 71, 0
3, 109552, Note_on_c, 1, 80, 0
3, 109664, Note_on_c, 1, 85, 0
3, 109665, Note_on_c, 1, 83, 80
3, 109666, Note_on_c, 1, 70, 0
3, 109667, Note_on_c, 1, 69, 80
3, 109669, Note_on_c, 1, 86, 80
3, 109675, Note_on_c, 1, 88, 0
3, 109788, Note_on_c, 1, 78, 0
3, 109788, Note_on_c, 1, 68, 80
3, 109790, Note_on_c, 1, 77, 80
3, 109791, Note_on_c, 1, 69, 0
3, 109895, Note_on_c, 1, 68, 0
3, 109906, Note_on_c, 1, 69, 80
3, 109908, Note_on_c, 1, 78, 80
3, 109909, Note_on_c, 1, 77, 0
3, 109911, Note_on_c, 1, 85, 80
3, 109911, Note_on_c, 1, 81, 80
3, 109916, Note_on_c, 1, 83, 0
3, 109919, Note_on_c, 1, 86, 0
3, 109995, Note_on_c, 1, 81, 0
3, 110008, Note_on_c, 1, 85, 0
3, 110033, Note_on_c, 1, 78, 0
3, 110036, Note_on_c, 1, 84, 80
3, 110037, Note_on_c, 1, 78, 80
3, 110037, Note_on_c, 1, 75, 80
3, 110120, Note_on_c, 1, 75, 0
3, 110132, Note_on_c, 1, 84, 0
3, 110142, Note_on_c, 1, 78, 0
3, 110147, Note_on_c, 1, 80, 80
3, 110150, Note_on_c, 1, 83, 80
3, 110152, Note_on_c, 1, 68, 80
3, 110153, Note_on_c, 1, 76, 80
3, 110159, Note_on_c, 1, 69, 0
3, 110233, Note_on_c, 1, 80, 0
3, 110239, Note_on_c, 1, 83, 0
3, 110265, Note_on_c, 1, 73, 80
3, 110265, Note_on_c, 1, 66, 80
3, 110266, Note_on_c, 1, 76, 0
3, 110266, Note_on_c, 1, 82, 80
3, 110266, Note_on_c, 1, 78, 80
3, 110267, Note_on_c, 1, 68, 0
3, 110371, Note_on_c, 1, 73, 0
3, 110384, Note_on_c, 1, 82, 0
3, 110387, Note_on_c, 1, 78, 0
3, 110387, Note_on_c, 1, 75, 80
3, 110387, Note_on_c, 1, 81, 80
3, 110388, Note_on_c, 1, 72, 80
3, 110509, Note_on_c, 1, 73, 80
3, 110510, Note_on_c, 1, 75, 0
3, 110510, Note_on_c, 1, 68, 80
3, 110513, Note_on_c, 1, 77, 80
3, 110514, Note_on_c, 1, 80, 80
3, 110517, Note_on_c, 1, 66, 0
3, 110517, Note_on_c, 1, 72, 0
3, 110523, Note_on_c, 1, 81, 0
3, 110983, Note_on_c, 1, 73, 0
3, 110987, Note_on_c, 1, 68, 0
3, 110991, Note_on_c, 1, 80, 0
3, 110993, Note_on_c, 1, 77, 0
3, 111289, Note_on_c, 1, 76, 80
3, 111341, Note_on_c, 1, 78, 80
3, 111345, Note_on_c, 1, 76, 0
3, 111392, Note_on_c, 1, 80, 80
3, 111397, Note_on_c, 1, 78, 0
3, 111448, Note_on_c, 1, 80, 0
3, 111451, Note_on_c, 1, 81, 80
3, 111503, Note_on_c, 1, 83, 80
3, 111509, Note_on_c, 1, 81, 0
3, 111561, Note_on_c, 1, 85, 80
3, 111570, Note_on_c, 1, 83, 0
3, 111618, Note_on_c, 1, 85, 0
3, 111618, Note_on_c, 1, 86, 80
3, 111677, Note_on_c, 1, 88, 80
3, 111686, Note_on_c, 1, 86, 0
3, 111736, Note_on_c, 1, 85, 80
3, 111742, Note_on_c, 1, 88, 0
3, 111796, Note_on_c, 1, 85, 0
3, 111797, Note_on_c, 1, 83, 80
3, 111858, Note_on_c, 1, 81, 80
3, 111862, Note_on_c, 1, 83, 0
3, 111918, Note_on_c, 1, 81, 0
3, 111926, Note_on_c, 1, 86, 80
3, 111990, Note_on_c, 1, 83, 80
3, 112047, Note_on_c, 1, 81, 80
3, 112053, Note_on_c, 1, 83, 0
3, 112100, Note_on_c, 1, 80, 80
3, 112106, Note_on_c, 1, 81, 0
3, 112160, Note_on_c, 1, 78, 80
3, 112163, Note_on_c, 1, 80, 0
3, 112207, Note_on_c, 1, 86, 0
3, 112222, Note_on_c, 1, 78, 0
3, 112223, Note_on_c, 1, 76, 80
3, 112223, Note_on_c, 1, 85, 80
3, 112281, Note_on_c, 1, 76, 0
3, 112282, Note_on_c, 1, 85, 0
3, 112282, Note_on_c, 1, 74, 80
3, 112284, Note_on_c, 1, 86, 80
3, 112346, Note_on_c, 1, 86, 0
3, 112362, Note_on_c, 1, 73, 80
3, 112363, Note_on_c, 1, 74, 0
3, 112363, Note_on_c, 1, 88, 80
3, 112417, Note_on_c, 1, 73, 0
3, 112420, Note_on_c, 1, 71, 80
3, 112421, Note_on_c, 1, 90, 80
3, 112432, Note_on_c, 1, 88, 0
3, 112475, Note_on_c, 1, 71, 0
3, 112482, Note_on_c, 1, 78, 80
3, 112483, Note_on_c, 1, 90, 0
3, 112489, Note_on_c, 1, 86, 80
3, 112545, Note_on_c, 1, 80, 80
3, 112548, Note_on_c, 1, 78, 0
3, 112552, Note_on_c, 1, 86, 0
3, 112553, Note_on_c, 1, 88, 80
3, 112604, Note_on_c, 1, 90, 80
3, 112605, Note_on_c, 1, 80, 0
3, 112606, Note_on_c, 1, 88, 0
3, 112606, Note_on_c, 1, 81, 80
3, 112608, Note_on_c, 1, 81, 80
3, 112639, Note_on_c, 1, 90, 0
3, 112651, Note_on_c, 1, 81, 0
3, 112660, Note_on_c, 1, 81, 0
3, 112671, Note_on_c, 1, 80, 80
3, 112672, Note_on_c, 1, 83, 80
3, 112731, Note_on_c, 1, 64, 80
3, 112787, Note_on_c, 1, 66, 80
3, 112791, Note_on_c, 1, 83, 0
3, 112793, Note_on_c, 1, 81, 80
3, 112795, Note_on_c, 1, 80, 0
3, 112799, Note_on_c, 1, 64, 0
3, 112844, Note_on_c, 1, 68, 80
3, 112849, Note_on_c, 1, 81, 0
3, 112850, Note_on_c, 1, 66, 0
3, 112850, Note_on_c, 1, 83, 80
3, 112901, Note_on_c, 1, 68, 0
3, 112903, Note_on_c, 1, 69, 80
3, 112912, Note_on_c, 1, 81, 80
3, 112913, Note_on_c, 1, 83, 0
3, 112913, Note_on_c, 1, 85, 80
3, 112967, Note_on_c, 1, 71, 80
3, 112968, Note_on_c, 1, 69, 0
3, 112979, Note_on_c, 1, 85, 0
3, 112980, Note_on_c, 1, 86, 80
3, 113025, Note_on_c, 1, 73, 80
3, 113033, Note_on_c, 1, 71, 0
3, 113040, Note_on_c, 1, 88, 80
3, 113041, Note_on_c, 1, 86, 0
3, 113088, Note_on_c, 1, 73, 0
3, 113088, Note_on_c, 1, 74, 80
3, 113095, Note_on_c, 1, 80, 80
3, 113101, Note_on_c, 1, 81, 0
3, 113151, Note_on_c, 1, 76, 80
3, 113157, Note_on_c, 1, 74, 0
3, 113161, Note_on_c, 1, 81, 80
3, 113163, Note_on_c, 1, 80, 0
3, 113207, Note_on_c, 1, 88, 0
3, 113209, Note_on_c, 1, 73, 80
3, 113217, Note_on_c, 1, 76, 0
3, 113270, Note_on_c, 1, 88, 80
3, 113272, Note_on_c, 1, 71, 80
3, 113276, Note_on_c, 1, 73, 0
3, 113327, Note_on_c, 1, 69, 80
3, 113333, Note_on_c, 1, 71, 0
3, 113379, Note_on_c, 1, 69, 0
3, 113386, Note_on_c, 1, 78, 80
3, 113394, Note_on_c, 1, 88, 0
3, 113450, Note_on_c, 1, 79, 80
3, 113451, Note_on_c, 1, 78, 0
3, 113454, Note_on_c, 1, 88, 80
3, 113505, Note_on_c, 1, 78, 80
3, 113510, Note_on_c, 1, 79, 0
3, 113511, Note_on_c, 1, 86, 80
3, 113515, Note_on_c, 1, 88, 0
3, 113559, Note_on_c, 1, 76, 80
3, 113561, Note_on_c, 1, 78, 0
3, 113568, Note_on_c, 1, 85, 80
3, 113572, Note_on_c, 1, 86, 0
3, 113615, Note_on_c, 1, 76, 0
3, 113618, Note_on_c, 1, 74, 80
3, 113626, Note_on_c, 1, 85, 0
3, 113631, Note_on_c, 1, 86, 80
3, 113636, Note_on_c, 1, 81, 0
3, 113682, Note_on_c, 1, 73, 80
3, 113684, Note_on_c, 1, 74, 0
3, 113688, Note_on_c, 1, 81, 80
3, 113738, Note_on_c, 1, 71, 80
3, 113739, Note_on_c, 1, 73, 0
3, 113746, Note_on_c, 1, 80, 80
3, 113755, Note_on_c, 1, 81, 0
3, 113800, Note_on_c, 1, 80, 0
3, 113800, Note_on_c, 1, 69, 80
3, 113803, Note_on_c, 1, 81, 80
3, 113805, Note_on_c, 1, 71, 0
3, 113857, Note_on_c, 1, 69, 0
3, 113858, Note_on_c, 1, 68, 80
3, 113858, Note_on_c, 1, 83, 80
3, 113859, Note_on_c, 1, 81, 0
3, 113912, Note_on_c, 1, 68, 0
3, 113915, Note_on_c, 1, 71, 80
3, 113920, Note_on_c, 1, 80, 80
3, 113924, Note_on_c, 1, 83, 0
3, 113972, Note_on_c, 1, 69, 80
3, 113977, Note_on_c, 1, 71, 0
3, 113979, Note_on_c, 1, 81, 80
3, 113981, Note_on_c, 1, 80, 0
3, 114030, Note_on_c, 1, 69, 0
3, 114031, Note_on_c, 1, 68, 80
3, 114032, Note_on_c, 1, 81, 0
3, 114032, Note_on_c, 1, 83, 80
3, 114052, Note_on_c, 1, 83, 0
3, 114083, Note_on_c, 1, 68, 0
3, 114087, Note_on_c, 1, 69, 80
3, 114098, Note_on_c, 1, 85, 80
3, 114100, Note_on_c, 1, 76, 80
3, 114102, Note_on_c, 1, 86, 0
3, 114116, Note_on_c, 1, 69, 0
3, 114148, Note_on_c, 1, 57, 80
3, 114201, Note_on_c, 1, 59, 80
3, 114214, Note_on_c, 1, 57, 0
3, 114259, Note_on_c, 1, 61, 80
3, 114261, Note_on_c, 1, 59, 0
3, 114318, Note_on_c, 1, 61, 0
3, 114320, Note_on_c, 1, 62, 80
3, 114335, Note_on_c, 1, 85, 0
3, 114335, Note_on_c, 1, 76, 0
3, 114388, Note_on_c, 1, 64, 80
3, 114390, Note_on_c, 1, 62, 0
3, 114445, Note_on_c, 1, 66, 80
3, 114453, Note_on_c, 1, 64, 0
3, 114503, Note_on_c, 1, 66, 0
3, 114505, Note_on_c, 1, 67, 80
3, 114571, Note_on_c, 1, 69, 80
3, 114573, Note_on_c, 1, 67, 0
3, 114635, Note_on_c, 1, 67, 80
3, 114642, Note_on_c, 1, 69, 0
3, 114692, Note_on_c, 1, 66, 80
3, 114696, Note_on_c, 1, 67, 0
3, 114750, Note_on_c, 1, 66, 0
3, 114752, Note_on_c, 1, 64, 80
3, 114820, Note_on_c, 1, 66, 80
3, 114830, Note_on_c, 1, 64, 0
3, 114891, Note_on_c, 1, 86, 80
3, 114949, Note_on_c, 1, 85, 80
3, 114954, Note_on_c, 1, 86, 0
3, 115010, Note_on_c, 1, 83, 80
3, 115011, Note_on_c, 1, 85, 0
3, 115068, Note_on_c, 1, 81, 80
3, 115069, Note_on_c, 1, 83, 0
3, 115077, Note_on_c, 1, 66, 0
3, 115127, Note_on_c, 1, 64, 80
3, 115129, Note_on_c, 1, 79, 80
3, 115130, Note_on_c, 1, 81, 0
3, 115185, Note_on_c, 1, 78, 80
3, 115188, Note_on_c, 1, 79, 0
3, 115189, Note_on_c, 1, 62, 80
3, 115197, Note_on_c, 1, 64, 0
3, 115242, Note_on_c, 1, 64, 80
3, 115243, Note_on_c, 1, 76, 80
3, 115244, Note_on_c, 1, 78, 0
3, 115253, Note_on_c, 1, 62, 0
3, 115297, Note_on_c, 1, 66, 80
3, 115303, Note_on_c, 1, 74, 80
3, 115307, Note_on_c, 1, 64, 0
3, 115308, Note_on_c, 1, 76, 0
3, 115357, Note_on_c, 1, 66, 0
3, 115357, Note_on_c, 1, 69, 80
3, 115368, Note_on_c, 1, 78, 80
3, 115377, Note_on_c, 1, 74, 0
3, 115417, Note_on_c, 1, 67, 80
3, 115421, Note_on_c, 1, 69, 0
3, 115424, Note_on_c, 1, 78, 0
3, 115428, Note_on_c, 1, 76, 80
3, 115479, Note_on_c, 1, 66, 80
3, 115480, Note_on_c, 1, 67, 0
3, 115486, Note_on_c, 1, 74, 80
3, 115487, Note_on_c, 1, 76, 0
3, 115536, Note_on_c, 1, 66, 0
3, 115540, Note_on_c, 1, 74, 0
3, 115541, Note_on_c, 1, 64, 80
3, 115543, Note_on_c, 1, 73, 80
3, 115608, Note_on_c, 1, 81, 80
3, 115666, Note_on_c, 1, 83, 80
3, 115672, Note_on_c, 1, 81, 0
3, 115721, Note_on_c, 1, 85, 80
3, 115724, Note_on_c, 1, 83, 0
3, 115750, Note_on_c, 1, 64, 0
3, 115754, Note_on_c, 1, 73, 0
3, 115778, Note_on_c, 1, 85, 0
3, 115781, Note_on_c, 1, 86, 80
3, 115836, Note_on_c, 1, 83, 80
3, 115836, Note_on_c, 1, 88, 80
3, 115840, Note_on_c, 1, 86, 0
3, 115893, Note_on_c, 1, 90, 80
3, 115895, Note_on_c, 1, 81, 80
3, 115901, Note_on_c, 1, 83, 0
3, 115901, Note_on_c, 1, 88, 0
3, 115947, Note_on_c, 1, 79, 80
3, 115950, Note_on_c, 1, 91, 80
3, 115951, Note_on_c, 1, 90, 0
3, 115953, Note_on_c, 1, 81, 0
3, 116001, Note_on_c, 1, 79, 0
3, 116002, Note_on_c, 1, 78, 80
3, 116011, Note_on_c, 1, 93, 80
3, 116015, Note_on_c, 1, 91, 0
3, 116060, Note_on_c, 1, 81, 80
3, 116061, Note_on_c, 1, 78, 0
3, 116070, Note_on_c, 1, 91, 80
3, 116077, Note_on_c, 1, 93, 0
3, 116122, Note_on_c, 1, 81, 0
3, 116123, Note_on_c, 1, 83, 80
3, 116125, Note_on_c, 1, 90, 80
3, 116134, Note_on_c, 1, 91, 0
3, 116158, Note_on_c, 1, 83, 0
3, 116163, Note_on_c, 1, 90, 0
3, 116184, Note_on_c, 1, 85, 80
3, 116187, Note_on_c, 1, 88, 80
3, 116243, Note_on_c, 1, 88, 0
3, 116249, Note_on_c, 1, 85, 0
3, 116251, Note_on_c, 1, 90, 80
3, 116253, Note_on_c, 1, 86, 80
3, 116306, Note_on_c, 1, 74, 80
3, 116366, Note_on_c, 1, 73, 80
3, 116368, Note_on_c, 1, 74, 0
3, 116422, Note_on_c, 1, 73, 0
3, 116422, Note_on_c, 1, 71, 80
3, 116481, Note_on_c, 1, 69, 80
3, 116482, Note_on_c, 1, 71, 0
3, 116506, Note_on_c, 1, 86, 0
3, 116509, Note_on_c, 1, 90, 0
3, 116548, Note_on_c, 1, 67, 80
3, 116548, Note_on_c, 1, 88, 80
3, 116570, Note_on_c, 1, 69, 0
3, 116601, Note_on_c, 1, 67, 0
3, 116610, Note_on_c, 1, 88, 0
3, 116610, Note_on_c, 1, 66, 80
3, 116622, Note_on_c, 1, 86, 80
3, 116667, Note_on_c, 1, 66, 0
3, 116670, Note_on_c, 1, 64, 80
3, 116680, Note_on_c, 1, 88, 80
3, 116691, Note_on_c, 1, 86, 0
3, 116733, Note_on_c, 1, 62, 80
3, 116737, Note_on_c, 1, 90, 80
3, 116739, Note_on_c, 1, 64, 0
3, 116751, Note_on_c, 1, 88, 0
3, 116781, Note_on_c, 1, 90, 0
3, 116792, Note_on_c, 1, 66, 80
3, 116796, Note_on_c, 1, 62, 0
3, 116807, Note_on_c, 1, 93, 80
3, 116847, Note_on_c, 1, 64, 80
3, 116849, Note_on_c, 1, 66, 0
3, 116862, Note_on_c, 1, 91, 80
3, 116867, Note_on_c, 1, 93, 0
3, 116908, Note_on_c, 1, 62, 80
3, 116909, Note_on_c, 1, 64, 0
3, 116919, Note_on_c, 1, 90, 80
3, 116920, Note_on_c, 1, 91, 0
3, 116972, Note_on_c, 1, 62, 0
3, 116973, Note_on_c, 1, 61, 80
3, 116981, Note_on_c, 1, 90, 0
3, 116982, Note_on_c, 1, 88, 80
3, 117041, Note_on_c, 1, 61, 0
3, 117043, Note_on_c, 1, 93, 80
3, 117046, Note_on_c, 1, 88, 0
3, 117100, Note_on_c, 1, 57, 80
3, 117102, Note_on_c, 1, 92, 80
3, 117106, Note_on_c, 1, 93, 0
3, 117163, Note_on_c, 1, 90, 80
3, 117165, Note_on_c, 1, 92, 0
3, 117207, Note_on_c, 1, 57, 0
3, 117220, Note_on_c, 1, 88, 80
3, 117221, Note_on_c, 1, 90, 0
3, 117282, Note_on_c, 1, 86, 80
3, 117283, Note_on_c, 1, 88, 0
3, 117339, Note_on_c, 1, 85, 80
3, 117344, Note_on_c, 1, 86, 0
3, 117397, Note_on_c, 1, 83, 80
3, 117398, Note_on_c, 1, 85, 0
3, 117457, Note_on_c, 1, 81, 80
3, 117463, Note_on_c, 1, 83, 0
3, 117512, Note_on_c, 1, 81, 0
3, 117526, Note_on_c, 1, 85, 80
3, 117586, Note_on_c, 1, 83, 80
3, 117587, Note_on_c, 1, 85, 0
3, 117644, Note_on_c, 1, 81, 80
3, 117645, Note_on_c, 1, 83, 0
3, 117702, Note_on_c, 1, 81, 0
3, 117707, Note_on_c, 1, 86, 80
3, 117763, Note_on_c, 1, 71, 80
3, 117823, Note_on_c, 1, 73, 80
3, 117831, Note_on_c, 1, 71, 0
3, 117882, Note_on_c, 1, 74, 80
3, 117884, Note_on_c, 1, 73, 0
3, 117944, Note_on_c, 1, 76, 80
3, 117945, Note_on_c, 1, 74, 0
3, 118007, Note_on_c, 1, 78, 80
3, 118015, Note_on_c, 1, 76, 0
3, 118068, Note_on_c, 1, 80, 80
3, 118072, Note_on_c, 1, 78, 0
3, 118124, Note_on_c, 1, 80, 0
3, 118126, Note_on_c, 1, 81, 80
3, 118162, Note_on_c, 1, 81, 0
3, 118186, Note_on_c, 1, 80, 80
3, 118247, Note_on_c, 1, 80, 0
3, 118252, Note_on_c, 1, 83, 80
3, 118305, Note_on_c, 1, 81, 80
3, 118306, Note_on_c, 1, 83, 0
3, 118363, Note_on_c, 1, 81, 0
3, 118363, Note_on_c, 1, 80, 80
3, 118426, Note_on_c, 1, 80, 0
3, 118428, Note_on_c, 1, 81, 80
3, 118489, Note_on_c, 1, 79, 80
3, 118548, Note_on_c, 1, 78, 80
3, 118550, Note_on_c, 1, 79, 0
3, 118603, Note_on_c, 1, 76, 80
3, 118606, Note_on_c, 1, 78, 0
3, 118654, Note_on_c, 1, 78, 80
3, 118659, Note_on_c, 1, 76, 0
3, 118663, Note_on_c, 1, 74, 80
3, 118716, Note_on_c, 1, 73, 80
3, 118720, Note_on_c, 1, 74, 0
3, 118774, Note_on_c, 1, 73, 0
3, 118775, Note_on_c, 1, 71, 80
3, 118829, Note_on_c, 1, 69, 80
3, 118833, Note_on_c, 1, 71, 0
3, 118857, Note_on_c, 1, 78, 0
3, 118869, Note_on_c, 1, 81, 0
3, 118886, Note_on_c, 1, 69, 0
3, 118887, Note_on_c, 1, 68, 80
3, 118895, Note_on_c, 1, 83, 80
3, 118897, Note_on_c, 1, 76, 80
3, 118948, Note_on_c, 1, 68, 0
3, 118952, Note_on_c, 1, 71, 80
3, 119009, Note_on_c, 1, 69, 80
3, 119010, Note_on_c, 1, 71, 0
3, 119057, Note_on_c, 1, 68, 80
3, 119058, Note_on_c, 1, 69, 0
3, 119059, Note_on_c, 1, 76, 0
3, 119115, Note_on_c, 1, 68, 0
3, 119136, Note_on_c, 1, 69, 80
3, 119136, Note_on_c, 1, 78, 80
3, 119144, Note_on_c, 1, 83, 0
3, 119146, Note_on_c, 1, 81, 80
3, 119208, Note_on_c, 1, 86, 0
3, 119209, Note_on_c, 1, 83, 80
3, 119269, Note_on_c, 1, 85, 80
3, 119276, Note_on_c, 1, 83, 0
3, 119322, Note_on_c, 1, 85, 0
3, 119327, Note_on_c, 1, 86, 80
3, 119330, Note_on_c, 1, 78, 0
3, 119383, Note_on_c, 1, 86, 0
3, 119387, Note_on_c, 1, 81, 0
3, 119388, Note_on_c, 1, 74, 80
3, 119392, Note_on_c, 1, 80, 80
3, 119459, Note_on_c, 1, 81, 80
3, 119520, Note_on_c, 1, 83, 80
3, 119529, Note_on_c, 1, 81, 0
3, 119576, Note_on_c, 1, 85, 80
3, 119586, Note_on_c, 1, 80, 0
3, 119588, Note_on_c, 1, 83, 0
3, 119639, Note_on_c, 1, 85, 0
3, 119641, Note_on_c, 1, 86, 80
3, 119642, Note_on_c, 1, 83, 80
3, 119701, Note_on_c, 1, 88, 80
3, 119718, Note_on_c, 1, 86, 0
3, 119764, Note_on_c, 1, 90, 80
3, 119765, Note_on_c, 1, 88, 0
3, 119828, Note_on_c, 1, 90, 0
3, 119829, Note_on_c, 1, 92, 80
3, 119887, Note_on_c, 1, 74, 0
3, 119887, Note_on_c, 1, 83, 0
3, 119887, Note_on_c, 1, 92, 0
3, 119916, Note_on_c, 1, 93, 80
3, 119916, Note_on_c, 1, 85, 80
3, 119916, Note_on_c, 1, 76, 80
3, 120616, Note_on_c, 1, 69, 0
3, 120625, Note_on_c, 1, 93, 0
3, 120626, Note_on_c, 1, 85, 0
3, 120627, Note_on_c, 1, 76, 0
3, 120627, End_track
4, 0, Start_track
4, 0, Title_t, "Man 2"
4, 0, MIDI_port, 0
4, 0, Control_c, 2, 7, 105
4, 0, Control_c, 2, 93, 0
4, 0, Control_c, 2, 91, 127
4, 0, Control_c, 2, 10, 85
4, 0, Program_c, 2, 16
4, 74268, Note_on_c, 2, 85, 80
4, 74314, Note_on_c, 2, 85, 0
4, 74388, Note_on_c, 2, 86, 80
4, 74436, Note_on_c, 2, 86, 0
4, 74504, Note_on_c, 2, 88, 80
4, 74632, Note_on_c, 2, 81, 80
4, 74642, Note_on_c, 2, 88, 0
4, 74678, Note_on_c, 2, 81, 0
4, 74744, Note_on_c, 2, 80, 80
4, 74784, Note_on_c, 2, 80, 0
4, 74858, Note_on_c, 2, 78, 80
4, 74979, Note_on_c, 2, 80, 80
4, 74981, Note_on_c, 2, 78, 0
4, 75024, Note_on_c, 2, 80, 0
4, 75096, Note_on_c, 2, 81, 80
4, 75149, Note_on_c, 2, 81, 0
4, 75232, Note_on_c, 2, 80, 80
4, 75361, Note_on_c, 2, 80, 0
4, 75361, Note_on_c, 2, 83, 80
4, 75362, Note_on_c, 2, 92, 80
4, 75410, Note_on_c, 2, 92, 0
4, 75411, Note_on_c, 2, 83, 0
4, 75465, Note_on_c, 2, 81, 80
4, 75467, Note_on_c, 2, 93, 80
4, 75509, Note_on_c, 2, 93, 0
4, 75521, Note_on_c, 2, 81, 0
4, 75577, Note_on_c, 2, 95, 80
4, 75589, Note_on_c, 2, 80, 80
4, 75696, Note_on_c, 2, 81, 80
4, 75699, Note_on_c, 2, 88, 80
4, 75700, Note_on_c, 2, 95, 0
4, 75710, Note_on_c, 2, 80, 0
4, 75738, Note_on_c, 2, 81, 0
4, 75739, Note_on_c, 2, 88, 0
4, 75806, Note_on_c, 2, 83, 80
4, 75810, Note_on_c, 2, 86, 80
4, 75862, Note_on_c, 2, 86, 0
4, 75886, Note_on_c, 2, 83, 0
4, 75922, Note_on_c, 2, 81, 80
4, 75930, Note_on_c, 2, 85, 80
4, 76044, Note_on_c, 2, 83, 80
4, 76046, Note_on_c, 2, 81, 0
4, 76056, Note_on_c, 2, 87, 80
4, 76065, Note_on_c, 2, 85, 0
4, 76114, Note_on_c, 2, 83, 0
4, 76116, Note_on_c, 2, 87, 0
4, 76162, Note_on_c, 2, 80, 80
4, 76170, Note_on_c, 2, 88, 80
4, 76247, Note_on_c, 2, 80, 0
4, 76259, Note_on_c, 2, 88, 0
4, 76287, Note_on_c, 2, 81, 80
4, 76288, Note_on_c, 2, 87, 80
4, 76407, Note_on_c, 2, 90, 80
4, 76409, Note_on_c, 2, 87, 0
4, 76425, Note_on_c, 2, 99, 80
4, 76471, Note_on_c, 2, 90, 0
4, 76500, Note_on_c, 2, 99, 0
4, 76531, Note_on_c, 2, 88, 80
4, 76534, Note_on_c, 2, 100, 80
4, 76577, Note_on_c, 2, 88, 0
4, 76580, Note_on_c, 2, 100, 0
4, 76653, Note_on_c, 2, 87, 80
4, 76659, Note_on_c, 2, 102, 80
4, 76774, Note_on_c, 2, 93, 80
4, 76775, Note_on_c, 2, 102, 0
4, 76776, Note_on_c, 2, 78, 80
4, 76785, Note_on_c, 2, 81, 0
4, 76829, Note_on_c, 2, 87, 0
4, 76848, Note_on_c, 2, 93, 0
4, 76888, Note_on_c, 2, 92, 80
4, 76895, Note_on_c, 2, 88, 80
4, 76897, Note_on_c, 2, 80, 80
4, 76898, Note_on_c, 2, 78, 0
4, 76930, Note_on_c, 2, 88, 0
4, 76932, Note_on_c, 2, 92, 0
4, 77002, Note_on_c, 2, 90, 80
4, 77006, Note_on_c, 2, 80, 0
4, 77009, Note_on_c, 2, 81, 80
4, 77010, Note_on_c, 2, 88, 80
4, 77124, Note_on_c, 2, 80, 80
4, 77131, Note_on_c, 2, 92, 80
4, 77133, Note_on_c, 2, 81, 0
4, 77142, Note_on_c, 2, 90, 0
4, 77158, Note_on_c, 2, 88, 0
4, 77180, Note_on_c, 2, 92, 0
4, 77240, Note_on_c, 2, 87, 80
4, 77241, Note_on_c, 2, 80, 0
4, 77242, Note_on_c, 2, 78, 80
4, 77251, Note_on_c, 2, 93, 80
4, 77297, Note_on_c, 2, 78, 0
4, 77299, Note_on_c, 2, 87, 0
4, 77344, Note_on_c, 2, 93, 0
4, 77364, Note_on_c, 2, 83, 80
4, 77381, Note_on_c, 2, 92, 80
4, 77487, Note_on_c, 2, 88, 80
4, 77492, Note_on_c, 2, 92, 0
4, 77506, Note_on_c, 2, 104, 80
4, 77543, Note_on_c, 2, 88, 0
4, 77608, Note_on_c, 2, 90, 80
4, 77623, Note_on_c, 2, 105, 80
4, 77629, Note_on_c, 2, 104, 0
4, 77648, Note_on_c, 2, 90, 0
4, 77680, Note_on_c, 2, 105, 0
4, 77732, Note_on_c, 2, 92, 80
4, 77744, Note_on_c, 2, 83, 0
4, 77748, Note_on_c, 2, 107, 80
4, 77855, Note_on_c, 2, 83, 80
4, 77865, Note_on_c, 2, 98, 80
4, 77867, Note_on_c, 2, 107, 0
4, 77877, Note_on_c, 2, 92, 0
4, 77944, Note_on_c, 2, 98, 0
4, 77973, Note_on_c, 2, 93, 80
4, 77974, Note_on_c, 2, 85, 80
4, 77975, Note_on_c, 2, 83, 0
4, 77983, Note_on_c, 2, 97, 80
4, 78018, Note_on_c, 2, 93, 0
4, 78024, Note_on_c, 2, 97, 0
4, 78048, Note_on_c, 2, 85, 0
4, 78099, Note_on_c, 2, 93, 80
4, 78102, Note_on_c, 2, 95, 80
4, 78104, Note_on_c, 2, 86, 80
4, 78218, Note_on_c, 2, 85, 80
4, 78229, Note_on_c, 2, 97, 80
4, 78230, Note_on_c, 2, 86, 0
4, 78233, Note_on_c, 2, 95, 0
4, 78264, Note_on_c, 2, 93, 0
4, 78318, Note_on_c, 2, 97, 0
4, 78342, Note_on_c, 2, 98, 80
4, 78344, Note_on_c, 2, 92, 80
4, 78346, Note_on_c, 2, 83, 80
4, 78347, Note_on_c, 2, 85, 0
4, 78391, Note_on_c, 2, 92, 0
4, 78399, Note_on_c, 2, 98, 0
4, 78466, Note_on_c, 2, 83, 0
4, 78468, Note_on_c, 2, 81, 80
4, 78469, Note_on_c, 2, 97, 80
4, 78470, Note_on_c, 2, 93, 80
4, 78561, Note_on_c, 2, 93, 0
4, 78566, Note_on_c, 2, 81, 0
4, 78593, Note_on_c, 2, 97, 0
4, 78594, Note_on_c, 2, 93, 80
4, 78594, Note_on_c, 2, 85, 80
4, 78644, Note_on_c, 2, 93, 0
4, 78664, Note_on_c, 2, 85, 0
4, 78706, Note_on_c, 2, 86, 80
4, 78717, Note_on_c, 2, 95, 80
4, 78761, Note_on_c, 2, 95, 0
4, 78765, Note_on_c, 2, 86, 0
4, 78831, Note_on_c, 2, 88, 80
4, 78849, Note_on_c, 2, 97, 80
4, 78954, Note_on_c, 2, 81, 80
4, 78955, Note_on_c, 2, 88, 0
4, 78963, Note_on_c, 2, 97, 0
4, 78963, Note_on_c, 2, 90, 80
4, 78966, Note_on_c, 2, 98, 80
4, 79024, Note_on_c, 2, 81, 0
4, 79028, Note_on_c, 2, 98, 0
4, 79074, Note_on_c, 2, 80, 80
4, 79086, Note_on_c, 2, 92, 80
4, 79088, Note_on_c, 2, 100, 80
4, 79097, Note_on_c, 2, 90, 0
4, 79138, Note_on_c, 2, 80, 0
4, 79143, Note_on_c, 2, 100, 0
4, 79203, Note_on_c, 2, 78, 80
4, 79213, Note_on_c, 2, 93, 80
4, 79214, Note_on_c, 2, 92, 0
4, 79215, Note_on_c, 2, 98, 80
4, 79321, Note_on_c, 2, 80, 80
4, 79328, Note_on_c, 2, 92, 80
4, 79337, Note_on_c, 2, 93, 0
4, 79338, Note_on_c, 2, 78, 0
4, 79375, Note_on_c, 2, 92, 0
4, 79380, Note_on_c, 2, 80, 0
4, 79443, Note_on_c, 2, 81, 80
4, 79447, Note_on_c, 2, 90, 80
4, 79489, Note_on_c, 2, 90, 0
4, 79507, Note_on_c, 2, 81, 0
4, 79565, Note_on_c, 2, 88, 80
4, 79569, Note_on_c, 2, 80, 80
4, 79570, Note_on_c, 2, 88, 80
4, 79580, Note_on_c, 2, 98, 0
4, 79676, Note_on_c, 2, 97, 80
4, 79678, Note_on_c, 2, 88, 0
4, 79687, Note_on_c, 2, 81, 80
4, 79692, Note_on_c, 2, 80, 0
4, 79714, Note_on_c, 2, 88, 0
4, 79738, Note_on_c, 2, 97, 0
4, 79792, Note_on_c, 2, 81, 0
4, 79793, Note_on_c, 2, 86, 80
4, 79795, Note_on_c, 2, 98, 80
4, 79795, Note_on_c, 2, 83, 80
4, 79842, Note_on_c, 2, 86, 0
4, 79844, Note_on_c, 2, 98, 0
4, 79881, Note_on_c, 2, 83, 0
4, 79910, Note_on_c, 2, 100, 80
4, 79912, Note_on_c, 2, 85, 80
4, 79915, Note_on_c, 2, 81, 80
4, 80009, Note_on_c, 2, 85, 0
4, 80009, Note_on_c, 2, 81, 0
4, 80022, Note_on_c, 2, 83, 80
4, 80023, Note_on_c, 2, 86, 80
4, 80028, Note_on_c, 2, 95, 80
4, 80031, Note_on_c, 2, 100, 0
4, 80085, Note_on_c, 2, 86, 0
4, 80092, Note_on_c, 2, 95, 0
4, 80093, Note_on_c, 2, 83, 0
4, 80140, Note_on_c, 2, 85, 80
4, 80142, Note_on_c, 2, 88, 80
4, 80143, Note_on_c, 2, 93, 80
4, 80190, Note_on_c, 2, 85, 0
4, 80210, Note_on_c, 2, 93, 0
4, 80260, Note_on_c, 2, 83, 80
4, 80266, Note_on_c, 2, 92, 80
4, 80376, Note_on_c, 2, 81, 80
4, 80379, Note_on_c, 2, 83, 0
4, 80387, Note_on_c, 2, 92, 0
4, 80389, Note_on_c, 2, 93, 80
4, 80449, Note_on_c, 2, 93, 0
4, 80454, Note_on_c, 2, 81, 0
4, 80502, Note_on_c, 2, 80, 80
4, 80513, Note_on_c, 2, 95, 80
4, 80554, Note_on_c, 2, 80, 0
4, 80572, Note_on_c, 2, 95, 0
4, 80618, Note_on_c, 2, 81, 80
4, 80632, Note_on_c, 2, 93, 80
4, 80741, Note_on_c, 2, 88, 0
4, 80752, Note_on_c, 2, 86, 80
4, 80754, Note_on_c, 2, 95, 80
4, 80766, Note_on_c, 2, 93, 0
4, 80812, Note_on_c, 2, 95, 0
4, 80866, Note_on_c, 2, 86, 0
4, 80868, Note_on_c, 2, 88, 80
4, 80873, Note_on_c, 2, 97, 80
4, 80913, Note_on_c, 2, 97, 0
4, 80948, Note_on_c, 2, 88, 0
4, 80988, Note_on_c, 2, 90, 80
4, 80994, Note_on_c, 2, 98, 80
4, 81088, Note_on_c, 2, 90, 0
4, 81103, Note_on_c, 2, 81, 0
4, 81106, Note_on_c, 2, 80, 80
4, 81108, Note_on_c, 2, 83, 80
4, 81114, Note_on_c, 2, 100, 80
4, 81124, Note_on_c, 2, 98, 0
4, 81166, Note_on_c, 2, 100, 0
4, 81186, Note_on_c, 2, 80, 0
4, 81186, Note_on_c, 2, 83, 0
4, 81223, Note_on_c, 2, 78, 80
4, 81226, Note_on_c, 2, 81, 80
4, 81232, Note_on_c, 2, 102, 80
4, 81283, Note_on_c, 2, 102, 0
4, 81298, Note_on_c, 2, 81, 0
4, 81304, Note_on_c, 2, 78, 0
4, 81349, Note_on_c, 2, 80, 80
4, 81358, Note_on_c, 2, 100, 80
4, 81475, Note_on_c, 2, 81, 80
4, 81482, Note_on_c, 2, 102, 80
4, 81488, Note_on_c, 2, 100, 0
4, 81526, Note_on_c, 2, 81, 0
4, 81526, Note_on_c, 2, 102, 0
4, 81590, Note_on_c, 2, 83, 80
4, 81602, Note_on_c, 2, 98, 80
4, 81636, Note_on_c, 2, 80, 0
4, 81637, Note_on_c, 2, 98, 0
4, 81667, Note_on_c, 2, 83, 0
4, 81712, Note_on_c, 2, 76, 80
4, 81717, Note_on_c, 2, 97, 80
4, 81837, Note_on_c, 2, 81, 80
4, 81941, Note_on_c, 2, 81, 0
4, 81942, Note_on_c, 2, 79, 80
4, 81944, Note_on_c, 2, 76, 0
4, 81961, Note_on_c, 2, 88, 80
4, 81969, Note_on_c, 2, 97, 0
4, 82008, Note_on_c, 2, 88, 0
4, 82063, Note_on_c, 2, 79, 0
4, 82064, Note_on_c, 2, 78, 80
4, 82088, Note_on_c, 2, 93, 80
4, 82182, Note_on_c, 2, 78, 0
4, 82185, Note_on_c, 2, 83, 80
4, 82203, Note_on_c, 2, 98, 80
4, 82283, Note_on_c, 2, 98, 0
4, 82292, Note_on_c, 2, 83, 0
4, 82312, Note_on_c, 2, 85, 80
4, 82317, Note_on_c, 2, 91, 80
4, 82318, Note_on_c, 2, 100, 80
4, 82324, Note_on_c, 2, 93, 0
4, 82368, Note_on_c, 2, 100, 0
4, 82369, Note_on_c, 2, 85, 0
4, 82437, Note_on_c, 2, 90, 80
4, 82437, Note_on_c, 2, 102, 80
4, 82438, Note_on_c, 2, 86, 80
4, 82445, Note_on_c, 2, 91, 0
4, 82518, Note_on_c, 2, 90, 0
4, 82547, Note_on_c, 2, 86, 0
4, 82550, Note_on_c, 2, 102, 0
4, 82553, Note_on_c, 2, 85, 80
4, 82553, Note_on_c, 2, 105, 80
4, 82556, Note_on_c, 2, 88, 80
4, 82628, Note_on_c, 2, 85, 0
4, 82628, Note_on_c, 2, 88, 0
4, 82652, Note_on_c, 2, 105, 0
4, 82659, Note_on_c, 2, 86, 80
4, 82661, Note_on_c, 2, 83, 80
4, 82662, Note_on_c, 2, 104, 80
4, 82717, Note_on_c, 2, 104, 0
4, 82726, Note_on_c, 2, 86, 0
4, 82728, Note_on_c, 2, 83, 0
4, 82776, Note_on_c, 2, 105, 80
4, 82785, Note_on_c, 2, 85, 80
4, 82786, Note_on_c, 2, 88, 80
4, 82902, Note_on_c, 2, 105, 0
4, 82903, Note_on_c, 2, 100, 80
4, 82943, Note_on_c, 2, 100, 0
4, 83017, Note_on_c, 2, 97, 80
4, 83046, Note_on_c, 2, 97, 0
4, 83131, Note_on_c, 2, 93, 80
4, 83136, Note_on_c, 2, 85, 0
4, 83138, Note_on_c, 2, 88, 0
4, 83260, Note_on_c, 2, 88, 80
4, 83317, Note_on_c, 2, 88, 0
4, 83379, Note_on_c, 2, 85, 80
4, 83426, Note_on_c, 2, 85, 0
4, 83458, Note_on_c, 2, 93, 0
4, 83507, Note_on_c, 2, 81, 80
4, 83779, Note_on_c, 2, 81, 0
4, 83987, Note_on_c, 2, 97, 80
4, 84085, Note_on_c, 2, 97, 0
4, 84105, Note_on_c, 2, 98, 80
4, 84153, Note_on_c, 2, 98, 0
4, 84224, Note_on_c, 2, 100, 80
4, 84337, Note_on_c, 2, 100, 0
4, 84341, Note_on_c, 2, 93, 80
4, 84396, Note_on_c, 2, 93, 0
4, 84461, Note_on_c, 2, 92, 80
4, 84507, Note_on_c, 2, 92, 0
4, 84581, Note_on_c, 2, 90, 80
4, 84699, Note_on_c, 2, 92, 80
4, 84714, Note_on_c, 2, 90, 0
4, 84752, Note_on_c, 2, 92, 0
4, 84817, Note_on_c, 2, 93, 80
4, 84880, Note_on_c, 2, 93, 0
4, 84943, Note_on_c, 2, 92, 80
4, 85065, Note_on_c, 2, 92, 0
4, 85068, Note_on_c, 2, 95, 80
4, 85071, Note_on_c, 2, 104, 80
4, 85165, Note_on_c, 2, 95, 0
4, 85171, Note_on_c, 2, 104, 0
4, 85181, Note_on_c, 2, 105, 80
4, 85183, Note_on_c, 2, 93, 80
4, 85216, Note_on_c, 2, 105, 0
4, 85238, Note_on_c, 2, 93, 0
4, 85293, Note_on_c, 2, 92, 80
4, 85297, Note_on_c, 2, 107, 80
4, 85410, Note_on_c, 2, 93, 80
4, 85413, Note_on_c, 2, 92, 0
4, 85420, Note_on_c, 2, 107, 0
4, 85420, Note_on_c, 2, 100, 80
4, 85482, Note_on_c, 2, 93, 0
4, 85482, Note_on_c, 2, 100, 0
4, 85526, Note_on_c, 2, 95, 80
4, 85538, Note_on_c, 2, 98, 80
4, 85601, Note_on_c, 2, 95, 0
4, 85619, Note_on_c, 2, 98, 0
4, 85648, Note_on_c, 2, 93, 80
4, 85658, Note_on_c, 2, 97, 80
4, 85776, Note_on_c, 2, 95, 80
4, 85783, Note_on_c, 2, 93, 0
4, 85783, Note_on_c, 2, 99, 80
4, 85792, Note_on_c, 2, 97, 0
4, 85848, Note_on_c, 2, 99, 0
4, 85856, Note_on_c, 2, 95, 0
4, 85892, Note_on_c, 2, 92, 80
4, 85903, Note_on_c, 2, 100, 80
4, 85966, Note_on_c, 2, 100, 0
4, 85977, Note_on_c, 2, 92, 0
4, 86024, Note_on_c, 2, 99, 80
4, 86025, Note_on_c, 2, 93, 80
4, 86149, Note_on_c, 2, 102, 80
4, 86152, Note_on_c, 2, 87, 80
4, 86154, Note_on_c, 2, 99, 0
4, 86208, Note_on_c, 2, 102, 0
4, 86212, Note_on_c, 2, 87, 0
4, 86259, Note_on_c, 2, 88, 80
4, 86262, Note_on_c, 2, 100, 80
4, 86298, Note_on_c, 2, 100, 0
4, 86317, Note_on_c, 2, 88, 0
4, 86376, Note_on_c, 2, 90, 80
4, 86380, Note_on_c, 2, 99, 80
4, 86479, Note_on_c, 2, 90, 0
4, 86501, Note_on_c, 2, 81, 80
4, 86502, Note_on_c, 2, 90, 80
4, 86520, Note_on_c, 2, 99, 0
4, 86529, Note_on_c, 2, 93, 0
4, 86557, Note_on_c, 2, 81, 0
4, 86615, Note_on_c, 2, 100, 80
4, 86616, Note_on_c, 2, 90, 0
4, 86617, Note_on_c, 2, 92, 80
4, 86618, Note_on_c, 2, 80, 80
4, 86652, Note_on_c, 2, 100, 0
4, 86677, Note_on_c, 2, 80, 0
4, 86712, Note_on_c, 2, 92, 0
4, 86736, Note_on_c, 2, 78, 80
4, 86744, Note_on_c, 2, 100, 80
4, 86745, Note_on_c, 2, 93, 80
4, 86855, Note_on_c, 2, 80, 80
4, 86862, Note_on_c, 2, 92, 80
4, 86866, Note_on_c, 2, 78, 0
4, 86870, Note_on_c, 2, 93, 0
4, 86909, Note_on_c, 2, 100, 0
4, 86912, Note_on_c, 2, 80, 0
4, 86972, Note_on_c, 2, 81, 80
4, 86981, Note_on_c, 2, 99, 80
4, 86982, Note_on_c, 2, 92, 0
4, 86984, Note_on_c, 2, 90, 80
4, 87026, Note_on_c, 2, 90, 0
4, 87048, Note_on_c, 2, 81, 0
4, 87069, Note_on_c, 2, 99, 0
4, 87098, Note_on_c, 2, 80, 80
4, 87109, Note_on_c, 2, 95, 80
4, 87146, Note_on_c, 2, 80, 0
4, 87229, Note_on_c, 2, 100, 80
4, 87231, Note_on_c, 2, 92, 80
4, 87280, Note_on_c, 2, 92, 0
4, 87287, Note_on_c, 2, 100, 0
4, 87341, Note_on_c, 2, 93, 80
4, 87349, Note_on_c, 2, 102, 80
4, 87371, Note_on_c, 2, 95, 0
4, 87388, Note_on_c, 2, 102, 0
4, 87406, Note_on_c, 2, 93, 0
4, 87463, Note_on_c, 2, 95, 80
4, 87471, Note_on_c, 2, 104, 80
4, 87546, Note_on_c, 2, 95, 0
4, 87578, Note_on_c, 2, 86, 80
4, 87599, Note_on_c, 2, 95, 80
4, 87612, Note_on_c, 2, 104, 0
4, 87641, Note_on_c, 2, 86, 0
4, 87701, Note_on_c, 2, 85, 80
4, 87714, Note_on_c, 2, 105, 80
4, 87718, Note_on_c, 2, 97, 80
4, 87724, Note_on_c, 2, 95, 0
4, 87750, Note_on_c, 2, 105, 0
4, 87762, Note_on_c, 2, 85, 0
4, 87832, Note_on_c, 2, 83, 80
4, 87844, Note_on_c, 2, 105, 80
4, 87846, Note_on_c, 2, 97, 0
4, 87846, Note_on_c, 2, 98, 80
4, 87956, Note_on_c, 2, 85, 80
4, 87961, Note_on_c, 2, 97, 80
4, 87973, Note_on_c, 2, 98, 0
4, 87977, Note_on_c, 2, 83, 0
4, 87988, Note_on_c, 2, 105, 0
4, 88009, Note_on_c, 2, 85, 0
4, 88072, Note_on_c, 2, 86, 80
4, 88081, Note_on_c, 2, 97, 0
4, 88082, Note_on_c, 2, 95, 80
4, 88082, Note_on_c, 2, 104, 80
4, 88133, Note_on_c, 2, 104, 0
4, 88138, Note_on_c, 2, 86, 0
4, 88197, Note_on_c, 2, 85, 80
4, 88207, Note_on_c, 2, 95, 0
4, 88208, Note_on_c, 2, 93, 80
4, 88210, Note_on_c, 2, 105, 80
4, 88288, Note_on_c, 2, 105, 0
4, 88292, Note_on_c, 2, 85, 0
4, 88320, Note_on_c, 2, 97, 80
4, 88322, Note_on_c, 2, 93, 0
4, 88324, Note_on_c, 2, 81, 80
4, 88386, Note_on_c, 2, 81, 0
4, 88395, Note_on_c, 2, 97, 0
4, 88432, Note_on_c, 2, 98, 80
4, 88434, Note_on_c, 2, 83, 80
4, 88502, Note_on_c, 2, 98, 0
4, 88509, Note_on_c, 2, 83, 0
4, 88553, Note_on_c, 2, 85, 80
4, 88555, Note_on_c, 2, 100, 80
4, 88660, Note_on_c, 2, 100, 0
4, 88670, Note_on_c, 2, 93, 80
4, 88671, Note_on_c, 2, 102, 80
4, 88672, Note_on_c, 2, 86, 80
4, 88673, Note_on_c, 2, 85, 0
4, 88714, Note_on_c, 2, 86, 0
4, 88745, Note_on_c, 2, 93, 0
4, 88746, Note_on_c, 2, 102, 0
4, 88785, Note_on_c, 2, 104, 80
4, 88790, Note_on_c, 2, 92, 80
4, 88792, Note_on_c, 2, 88, 80
4, 88835, Note_on_c, 2, 104, 0
4, 88840, Note_on_c, 2, 92, 0
4, 88849, Note_on_c, 2, 88, 0
4, 88899, Note_on_c, 2, 90, 80
4, 88902, Note_on_c, 2, 105, 80
4, 88902, Note_on_c, 2, 86, 80
4, 89021, Note_on_c, 2, 92, 80
4, 89022, Note_on_c, 2, 90, 0
4, 89026, Note_on_c, 2, 104, 80
4, 89033, Note_on_c, 2, 105, 0
4, 89070, Note_on_c, 2, 104, 0
4, 89088, Note_on_c, 2, 92, 0
4, 89139, Note_on_c, 2, 93, 80
4, 89145, Note_on_c, 2, 102, 80
4, 89180, Note_on_c, 2, 102, 0
4, 89211, Note_on_c, 2, 93, 0
4, 89254, Note_on_c, 2, 92, 80
4, 89264, Note_on_c, 2, 100, 80
4, 89307, Note_on_c, 2, 92, 0
4, 89368, Note_on_c, 2, 86, 0
4, 89376, Note_on_c, 2, 85, 80
4, 89383, Note_on_c, 2, 93, 80
4, 89489, Note_on_c, 2, 85, 0
4, 89497, Note_on_c, 2, 86, 80
4, 89501, Note_on_c, 2, 93, 0
4, 89508, Note_on_c, 2, 98, 80
4, 89510, Note_on_c, 2, 100, 0
4, 89510, Note_on_c, 2, 95, 80
4, 89560, Note_on_c, 2, 98, 0
4, 89584, Note_on_c, 2, 86, 0
4, 89606, Note_on_c, 2, 95, 0
4, 89617, Note_on_c, 2, 88, 80
4, 89625, Note_on_c, 2, 97, 80
4, 89626, Note_on_c, 2, 93, 80
4, 89730, Note_on_c, 2, 88, 0
4, 89733, Note_on_c, 2, 83, 80
4, 89741, Note_on_c, 2, 97, 0
4, 89744, Note_on_c, 2, 95, 80
4, 89747, Note_on_c, 2, 98, 80
4, 89748, Note_on_c, 2, 93, 0
4, 89808, Note_on_c, 2, 95, 0
4, 89809, Note_on_c, 2, 83, 0
4, 89811, Note_on_c, 2, 98, 0
4, 89856, Note_on_c, 2, 81, 80
4, 89868, Note_on_c, 2, 97, 80
4, 89870, Note_on_c, 2, 100, 80
4, 89921, Note_on_c, 2, 97, 0
4, 89928, Note_on_c, 2, 81, 0
4, 89984, Note_on_c, 2, 80, 80
4, 89988, Note_on_c, 2, 95, 80
4, 90105, Note_on_c, 2, 81, 80
4, 90109, Note_on_c, 2, 93, 80
4, 90114, Note_on_c, 2, 95, 0
4, 90116, Note_on_c, 2, 80, 0
4, 90162, Note_on_c, 2, 93, 0
4, 90198, Note_on_c, 2, 81, 0
4, 90224, Note_on_c, 2, 83, 80
4, 90225, Note_on_c, 2, 92, 80
4, 90264, Note_on_c, 2, 92, 0
4, 90289, Note_on_c, 2, 83, 0
4, 90343, Note_on_c, 2, 81, 80
4, 90347, Note_on_c, 2, 93, 80
4, 90362, Note_on_c, 2, 100, 0
4, 90465, Note_on_c, 2, 83, 80
4, 90466, Note_on_c, 2, 81, 0
4, 90472, Note_on_c, 2, 98, 80
4, 90524, Note_on_c, 2, 98, 0
4, 90533, Note_on_c, 2, 83, 0
4, 90581, Note_on_c, 2, 85, 80
4, 90589, Note_on_c, 2, 100, 80
4, 90636, Note_on_c, 2, 85, 0
4, 90673, Note_on_c, 2, 100, 0
4, 90699, Note_on_c, 2, 86, 80
4, 90712, Note_on_c, 2, 102, 80
4, 90819, Note_on_c, 2, 88, 80
4, 90824, Note_on_c, 2, 86, 0
4, 90825, Note_on_c, 2, 92, 80
4, 90826, Note_on_c, 2, 95, 80
4, 90828, Note_on_c, 2, 102, 0
4, 90829, Note_on_c, 2, 93, 0
4, 90889, Note_on_c, 2, 95, 0
4, 90907, Note_on_c, 2, 88, 0
4, 90936, Note_on_c, 2, 92, 0
4, 90940, Note_on_c, 2, 90, 80
4, 90940, Note_on_c, 2, 90, 80
4, 90941, Note_on_c, 2, 93, 80
4, 90983, Note_on_c, 2, 90, 0
4, 91008, Note_on_c, 2, 90, 0
4, 91057, Note_on_c, 2, 88, 80
4, 91059, Note_on_c, 2, 92, 80
4, 91065, Note_on_c, 2, 93, 0
4, 91176, Note_on_c, 2, 92, 0
4, 91178, Note_on_c, 2, 93, 80
4, 91179, Note_on_c, 2, 90, 80
4, 91181, Note_on_c, 2, 88, 0
4, 91227, Note_on_c, 2, 93, 0
4, 91283, Note_on_c, 2, 90, 0
4, 91294, Note_on_c, 2, 95, 80
4, 91299, Note_on_c, 2, 86, 80
4, 91353, Note_on_c, 2, 95, 0
4, 91367, Note_on_c, 2, 86, 0
4, 91409, Note_on_c, 2, 88, 80
4, 91421, Note_on_c, 2, 97, 80
4, 91539, Note_on_c, 2, 93, 80
4, 91613, Note_on_c, 2, 93, 0
4, 91652, Note_on_c, 2, 91, 80
4, 91704, Note_on_c, 2, 91, 0
4, 91760, Note_on_c, 2, 88, 0
4, 91769, Note_on_c, 2, 90, 80
4, 91888, Note_on_c, 2, 90, 0
4, 91901, Note_on_c, 2, 95, 80
4, 91912, Note_on_c, 2, 105, 80
4, 91960, Note_on_c, 2, 105, 0
4, 91984, Note_on_c, 2, 95, 0
4, 92012, Note_on_c, 2, 97, 80
4, 92031, Note_on_c, 2, 103, 80
4, 92042, Note_on_c, 2, 97, 0
4, 92068, Note_on_c, 2, 103, 0
4, 92136, Note_on_c, 2, 97, 0
4, 92153, Note_on_c, 2, 102, 80
4, 92155, Note_on_c, 2, 98, 80
4, 92269, Note_on_c, 2, 100, 80
4, 92270, Note_on_c, 2, 97, 80
4, 92272, Note_on_c, 2, 98, 0
4, 92279, Note_on_c, 2, 102, 0
4, 92315, Note_on_c, 2, 100, 0
4, 92317, Note_on_c, 2, 97, 0
4, 92380, Note_on_c, 2, 98, 80
4, 92381, Note_on_c, 2, 95, 80
4, 92416, Note_on_c, 2, 98, 0
4, 92425, Note_on_c, 2, 95, 0
4, 92503, Note_on_c, 2, 97, 80
4, 92503, Note_on_c, 2, 93, 80
4, 92618, Note_on_c, 2, 81, 80
4, 92618, Note_on_c, 2, 98, 80
4, 92619, Note_on_c, 2, 97, 0
4, 92654, Note_on_c, 2, 98, 0
4, 92706, Note_on_c, 2, 81, 0
4, 92727, Note_on_c, 2, 79, 80
4, 92738, Note_on_c, 2, 100, 80
4, 92839, Note_on_c, 2, 79, 0
4, 92845, Note_on_c, 2, 78, 80
4, 92926, Note_on_c, 2, 100, 0
4, 92938, Note_on_c, 2, 78, 0
4, 92963, Note_on_c, 2, 83, 80
4, 92963, Note_on_c, 2, 98, 80
4, 92964, Note_on_c, 2, 90, 80
4, 93027, Note_on_c, 2, 90, 0
4, 93049, Note_on_c, 2, 98, 0
4, 93051, Note_on_c, 2, 83, 0
4, 93092, Note_on_c, 2, 85, 80
4, 93095, Note_on_c, 2, 88, 80
4, 93112, Note_on_c, 2, 100, 80
4, 93152, Note_on_c, 2, 100, 0
4, 93211, Note_on_c, 2, 85, 0
4, 93214, Note_on_c, 2, 86, 80
4, 93216, Note_on_c, 2, 88, 0
4, 93232, Note_on_c, 2, 102, 80
4, 93332, Note_on_c, 2, 85, 80
4, 93386, Note_on_c, 2, 93, 0
4, 93400, Note_on_c, 2, 85, 0
4, 93430, Note_on_c, 2, 102, 0
4, 93455, Note_on_c, 2, 83, 80
4, 93469, Note_on_c, 2, 104, 80
4, 93470, Note_on_c, 2, 95, 80
4, 93505, Note_on_c, 2, 104, 0
4, 93511, Note_on_c, 2, 95, 0
4, 93513, Note_on_c, 2, 83, 0
4, 93589, Note_on_c, 2, 88, 80
4, 93591, Note_on_c, 2, 81, 80
4, 93600, Note_on_c, 2, 86, 0
4, 93600, Note_on_c, 2, 97, 80
4, 93601, Note_on_c, 2, 105, 80
4, 93780, Note_on_c, 2, 88, 0
4, 93781, Note_on_c, 2, 81, 0
4, 93829, Note_on_c, 2, 105, 0
4, 93830, Note_on_c, 2, 97, 0
4, 93848, Note_on_c, 2, 85, 80
4, 93894, Note_on_c, 2, 85, 0
4, 93967, Note_on_c, 2, 85, 80
4, 94080, Note_on_c, 2, 81, 80
4, 94085, Note_on_c, 2, 85, 0
4, 94118, Note_on_c, 2, 81, 0
4, 94193, Note_on_c, 2, 85, 80
4, 94234, Note_on_c, 2, 85, 0
4, 94315, Note_on_c, 2, 85, 80
4, 94433, Note_on_c, 2, 80, 80
4, 94446, Note_on_c, 2, 85, 0
4, 94472, Note_on_c, 2, 80, 0
4, 94550, Note_on_c, 2, 85, 80
4, 94591, Note_on_c, 2, 85, 0
4, 94671, Note_on_c, 2, 81, 80
4, 94791, Note_on_c, 2, 78, 80
4, 94800, Note_on_c, 2, 81, 0
4, 94833, Note_on_c, 2, 78, 0
4, 94896, Note_on_c, 2, 90, 80
4, 94910, Note_on_c, 2, 82, 80
4, 94924, Note_on_c, 2, 90, 0
4, 94951, Note_on_c, 2, 82, 0
4, 95021, Note_on_c, 2, 83, 80
4, 95026, Note_on_c, 2, 90, 80
4, 95147, Note_on_c, 2, 87, 80
4, 95152, Note_on_c, 2, 90, 0
4, 95180, Note_on_c, 2, 87, 0
4, 95219, Note_on_c, 2, 83, 0
4, 95265, Note_on_c, 2, 90, 80
4, 95293, Note_on_c, 2, 90, 0
4, 95370, Note_on_c, 2, 82, 80
4, 95384, Note_on_c, 2, 90, 80
4, 95501, Note_on_c, 2, 82, 0
4, 95502, Note_on_c, 2, 90, 0
4, 95505, Note_on_c, 2, 85, 80
4, 95533, Note_on_c, 2, 85, 0
4, 95612, Note_on_c, 2, 90, 80
4, 95645, Note_on_c, 2, 90, 0
4, 95727, Note_on_c, 2, 83, 80
4, 95743, Note_on_c, 2, 87, 80
4, 95829, Note_on_c, 2, 87, 0
4, 95864, Note_on_c, 2, 83, 80
4, 95915, Note_on_c, 2, 83, 0
4, 95930, Note_on_c, 2, 83, 0
4, 95974, Note_on_c, 2, 81, 80
4, 95984, Note_on_c, 2, 95, 80
4, 95986, Note_on_c, 2, 87, 80
4, 96022, Note_on_c, 2, 87, 0
4, 96026, Note_on_c, 2, 95, 0
4, 96045, Note_on_c, 2, 81, 0
4, 96099, Note_on_c, 2, 80, 80
4, 96119, Note_on_c, 2, 95, 80
4, 96120, Note_on_c, 2, 88, 80
4, 96244, Note_on_c, 2, 92, 80
4, 96245, Note_on_c, 2, 95, 0
4, 96279, Note_on_c, 2, 92, 0
4, 96332, Note_on_c, 2, 80, 0
4, 96361, Note_on_c, 2, 95, 80
4, 96381, Note_on_c, 2, 88, 0
4, 96395, Note_on_c, 2, 95, 0
4, 96474, Note_on_c, 2, 83, 80
4, 96486, Note_on_c, 2, 87, 80
4, 96487, Note_on_c, 2, 95, 80
4, 96610, Note_on_c, 2, 90, 80
4, 96613, Note_on_c, 2, 95, 0
4, 96648, Note_on_c, 2, 90, 0
4, 96713, Note_on_c, 2, 83, 0
4, 96728, Note_on_c, 2, 95, 80
4, 96761, Note_on_c, 2, 95, 0
4, 96762, Note_on_c, 2, 87, 0
4, 96833, Note_on_c, 2, 76, 80
4, 96845, Note_on_c, 2, 88, 80
4, 96848, Note_on_c, 2, 92, 80
4, 96918, Note_on_c, 2, 92, 0
4, 96956, Note_on_c, 2, 88, 0
4, 96966, Note_on_c, 2, 88, 80
4, 96988, Note_on_c, 2, 76, 0
4, 97007, Note_on_c, 2, 88, 0
4, 97075, Note_on_c, 2, 76, 80
4, 97080, Note_on_c, 2, 86, 80
4, 97080, Note_on_c, 2, 92, 80
4, 97116, Note_on_c, 2, 76, 0
4, 97117, Note_on_c, 2, 92, 0
4, 97122, Note_on_c, 2, 86, 0
4, 97202, Note_on_c, 2, 76, 80
4, 97204, Note_on_c, 2, 93, 80
4, 97204, Note_on_c, 2, 85, 80
4, 97302, Note_on_c, 2, 85, 0
4, 97303, Note_on_c, 2, 93, 0
4, 97322, Note_on_c, 2, 73, 80
4, 97335, Note_on_c, 2, 76, 0
4, 97357, Note_on_c, 2, 73, 0
4, 97435, Note_on_c, 2, 76, 80
4, 97473, Note_on_c, 2, 76, 0
4, 97551, Note_on_c, 2, 86, 80
4, 97553, Note_on_c, 2, 92, 80
4, 97558, Note_on_c, 2, 76, 80
4, 97662, Note_on_c, 2, 86, 0
4, 97664, Note_on_c, 2, 92, 0
4, 97673, Note_on_c, 2, 71, 80
4, 97685, Note_on_c, 2, 76, 0
4, 97716, Note_on_c, 2, 71, 0
4, 97786, Note_on_c, 2, 76, 80
4, 97834, Note_on_c, 2, 76, 0
4, 97903, Note_on_c, 2, 88, 80
4, 97904, Note_on_c, 2, 93, 80
4, 97906, Note_on_c, 2, 73, 80
4, 98025, Note_on_c, 2, 73, 0
4, 98025, Note_on_c, 2, 69, 80
4, 98041, Note_on_c, 2, 88, 0
4, 98046, Note_on_c, 2, 93, 0
4, 98070, Note_on_c, 2, 69, 0
4, 98137, Note_on_c, 2, 80, 80
4, 98137, Note_on_c, 2, 71, 80
4, 98156, Note_on_c, 2, 100, 80
4, 98187, Note_on_c, 2, 71, 0
4, 98187, Note_on_c, 2, 100, 0
4, 98188, Note_on_c, 2, 80, 0
4, 98268, Note_on_c, 2, 73, 80
4, 98269, Note_on_c, 2, 81, 80
4, 98283, Note_on_c, 2, 100, 80
4, 98381, Note_on_c, 2, 73, 0
4, 98387, Note_on_c, 2, 76, 80
4, 98404, Note_on_c, 2, 97, 80
4, 98415, Note_on_c, 2, 100, 0
4, 98438, Note_on_c, 2, 97, 0
4, 98515, Note_on_c, 2, 74, 80
4, 98519, Note_on_c, 2, 100, 80
4, 98521, Note_on_c, 2, 76, 0
4, 98551, Note_on_c, 2, 100, 0
4, 98600, Note_on_c, 2, 74, 0
4, 98634, Note_on_c, 2, 76, 80
4, 98646, Note_on_c, 2, 100, 80
4, 98762, Note_on_c, 2, 95, 80
4, 98772, Note_on_c, 2, 100, 0
4, 98795, Note_on_c, 2, 95, 0
4, 98857, Note_on_c, 2, 81, 0
4, 98873, Note_on_c, 2, 80, 80
4, 98877, Note_on_c, 2, 100, 80
4, 98886, Note_on_c, 2, 76, 0
4, 98910, Note_on_c, 2, 80, 0
4, 98920, Note_on_c, 2, 100, 0
4, 98999, Note_on_c, 2, 81, 80
4, 98999, Note_on_c, 2, 97, 80
4, 99114, Note_on_c, 2, 85, 80
4, 99122, Note_on_c, 2, 93, 80
4, 99125, Note_on_c, 2, 97, 0
4, 99164, Note_on_c, 2, 93, 0
4, 99239, Note_on_c, 2, 97, 80
4, 99243, Note_on_c, 2, 88, 80
4, 99252, Note_on_c, 2, 85, 0
4, 99267, Note_on_c, 2, 81, 0
4, 99272, Note_on_c, 2, 97, 0
4, 99351, Note_on_c, 2, 81, 80
4, 99364, Note_on_c, 2, 97, 80
4, 99446, Note_on_c, 2, 88, 0
4, 99468, Note_on_c, 2, 85, 80
4, 99480, Note_on_c, 2, 93, 80
4, 99486, Note_on_c, 2, 97, 0
4, 99518, Note_on_c, 2, 93, 0
4, 99524, Note_on_c, 2, 85, 0
4, 99588, Note_on_c, 2, 90, 80
4, 99600, Note_on_c, 2, 97, 80
4, 99629, Note_on_c, 2, 97, 0
4, 99708, Note_on_c, 2, 80, 80
4, 99710, Note_on_c, 2, 81, 0
4, 99726, Note_on_c, 2, 97, 80
4, 99827, Note_on_c, 2, 85, 80
4, 99837, Note_on_c, 2, 92, 80
4, 99846, Note_on_c, 2, 97, 0
4, 99869, Note_on_c, 2, 80, 0
4, 99880, Note_on_c, 2, 92, 0
4, 99892, Note_on_c, 2, 90, 0
4, 99947, Note_on_c, 2, 89, 80
4, 99958, Note_on_c, 2, 97, 80
4, 100000, Note_on_c, 2, 97, 0
4, 100004, Note_on_c, 2, 85, 0
4, 100021, Note_on_c, 2, 89, 0
4, 100070, Note_on_c, 2, 78, 80
4, 100077, Note_on_c, 2, 93, 80
4, 100187, Note_on_c, 2, 85, 80
4, 100193, Note_on_c, 2, 90, 80
4, 100200, Note_on_c, 2, 93, 0
4, 100235, Note_on_c, 2, 85, 0
4, 100239, Note_on_c, 2, 90, 0
4, 100304, Note_on_c, 2, 93, 80
4, 100307, Note_on_c, 2, 90, 80
4, 100344, Note_on_c, 2, 93, 0
4, 100397, Note_on_c, 2, 78, 0
4, 100403, Note_on_c, 2, 90, 0
4, 100420, Note_on_c, 2, 81, 80
4, 100426, Note_on_c, 2, 97, 80
4, 100536, Note_on_c, 2, 85, 80
4, 100544, Note_on_c, 2, 93, 80
4, 100545, Note_on_c, 2, 97, 0
4, 100580, Note_on_c, 2, 85, 0
4, 100582, Note_on_c, 2, 93, 0
4, 100656, Note_on_c, 2, 90, 80
4, 100666, Note_on_c, 2, 97, 80
4, 100712, Note_on_c, 2, 97, 0
4, 100777, Note_on_c, 2, 82, 80
4, 100782, Note_on_c, 2, 90, 0
4, 100786, Note_on_c, 2, 81, 0
4, 100800, Note_on_c, 2, 100, 80
4, 100910, Note_on_c, 2, 85, 80
4, 100916, Note_on_c, 2, 97, 80
4, 100923, Note_on_c, 2, 100, 0
4, 100948, Note_on_c, 2, 97, 0
4, 101000, Note_on_c, 2, 85, 0
4, 101022, Note_on_c, 2, 90, 80
4, 101041, Note_on_c, 2, 100, 80
4, 101086, Note_on_c, 2, 90, 0
4, 101089, Note_on_c, 2, 82, 0
4, 101089, Note_on_c, 2, 100, 0
4, 101151, Note_on_c, 2, 83, 80
4, 101161, Note_on_c, 2, 99, 80
4, 101283, Note_on_c, 2, 95, 80
4, 101284, Note_on_c, 2, 99, 0
4, 101286, Note_on_c, 2, 87, 80
4, 101339, Note_on_c, 2, 95, 0
4, 101345, Note_on_c, 2, 87, 0
4, 101390, Note_on_c, 2, 90, 80
4, 101400, Note_on_c, 2, 99, 80
4, 101426, Note_on_c, 2, 90, 0
4, 101449, Note_on_c, 2, 99, 0
4, 101520, Note_on_c, 2, 87, 80
4, 101523, Note_on_c, 2, 102, 80
4, 101637, Note_on_c, 2, 90, 80
4, 101640, Note_on_c, 2, 99, 80
4, 101644, Note_on_c, 2, 87, 0
4, 101644, Note_on_c, 2, 102, 0
4, 101682, Note_on_c, 2, 99, 0
4, 101688, Note_on_c, 2, 90, 0
4, 101752, Note_on_c, 2, 93, 80
4, 101761, Note_on_c, 2, 102, 80
4, 101798, Note_on_c, 2, 93, 0
4, 101800, Note_on_c, 2, 102, 0
4, 101814, Note_on_c, 2, 83, 0
4, 101874, Note_on_c, 2, 88, 80
4, 101891, Note_on_c, 2, 107, 80
4, 102000, Note_on_c, 2, 88, 0
4, 102000, Note_on_c, 2, 92, 80
4, 102003, Note_on_c, 2, 107, 0
4, 102005, Note_on_c, 2, 95, 80
4, 102061, Note_on_c, 2, 95, 0
4, 102078, Note_on_c, 2, 92, 0
4, 102122, Note_on_c, 2, 88, 80
4, 102125, Note_on_c, 2, 95, 80
4, 102126, Note_on_c, 2, 98, 80
4, 102160, Note_on_c, 2, 98, 0
4, 102161, Note_on_c, 2, 88, 0
4, 102165, Note_on_c, 2, 95, 0
4, 102247, Note_on_c, 2, 88, 80
4, 102248, Note_on_c, 2, 97, 80
4, 102249, Note_on_c, 2, 93, 80
4, 102333, Note_on_c, 2, 97, 0
4, 102338, Note_on_c, 2, 93, 0
4, 102362, Note_on_c, 2, 85, 80
4, 102370, Note_on_c, 2, 100, 80
4, 102375, Note_on_c, 2, 88, 0
4, 102399, Note_on_c, 2, 85, 0
4, 102436, Note_on_c, 2, 100, 0
4, 102482, Note_on_c, 2, 93, 80
4, 102484, Note_on_c, 2, 88, 80
4, 102524, Note_on_c, 2, 88, 0
4, 102530, Note_on_c, 2, 93, 0
4, 102598, Note_on_c, 2, 88, 80
4, 102605, Note_on_c, 2, 95, 80
4, 102716, Note_on_c, 2, 83, 80
4, 102720, Note_on_c, 2, 100, 80
4, 102724, Note_on_c, 2, 95, 0
4, 102731, Note_on_c, 2, 88, 0
4, 102767, Note_on_c, 2, 100, 0
4, 102771, Note_on_c, 2, 83, 0
4, 102834, Note_on_c, 2, 88, 80
4, 102839, Note_on_c, 2, 92, 80
4, 102873, Note_on_c, 2, 92, 0
4, 102881, Note_on_c, 2, 88, 0
4, 102949, Note_on_c, 2, 88, 80
4, 102961, Note_on_c, 2, 93, 80
4, 103069, Note_on_c, 2, 81, 80
4, 103080, Note_on_c, 2, 88, 0
4, 103084, Note_on_c, 2, 99, 80
4, 103093, Note_on_c, 2, 93, 0
4, 103124, Note_on_c, 2, 81, 0
4, 103138, Note_on_c, 2, 99, 0
4, 103195, Note_on_c, 2, 87, 80
4, 103197, Note_on_c, 2, 90, 80
4, 103241, Note_on_c, 2, 87, 0
4, 103245, Note_on_c, 2, 90, 0
4, 103318, Note_on_c, 2, 88, 80
4, 103319, Note_on_c, 2, 92, 80
4, 103418, Note_on_c, 2, 88, 0
4, 103434, Note_on_c, 2, 83, 80
4, 103437, Note_on_c, 2, 92, 0
4, 103485, Note_on_c, 2, 83, 0
4, 103542, Note_on_c, 2, 87, 80
4, 103543, Note_on_c, 2, 81, 80
4, 103555, Note_on_c, 2, 107, 80
4, 103584, Note_on_c, 2, 87, 0
4, 103587, Note_on_c, 2, 107, 0
4, 103589, Note_on_c, 2, 81, 0
4, 103670, Note_on_c, 2, 88, 80
4, 103671, Note_on_c, 2, 80, 80
4, 103672, Note_on_c, 2, 83, 80
4, 103683, Note_on_c, 2, 107, 80
4, 103800, Note_on_c, 2, 104, 80
4, 103809, Note_on_c, 2, 88, 0
4, 103812, Note_on_c, 2, 80, 0
4, 103812, Note_on_c, 2, 83, 0
4, 103813, Note_on_c, 2, 107, 0
4, 103834, Note_on_c, 2, 104, 0
4, 103915, Note_on_c, 2, 107, 80
4, 103954, Note_on_c, 2, 107, 0
4, 104031, Note_on_c, 2, 87, 80
4, 104033, Note_on_c, 2, 78, 80
4, 104034, Note_on_c, 2, 81, 80
4, 104039, Note_on_c, 2, 107, 80
4, 104160, Note_on_c, 2, 102, 80
4, 104162, Note_on_c, 2, 87, 0
4, 104167, Note_on_c, 2, 78, 0
4, 104169, Note_on_c, 2, 81, 0
4, 104171, Note_on_c, 2, 107, 0
4, 104196, Note_on_c, 2, 102, 0
4, 104273, Note_on_c, 2, 107, 80
4, 104321, Note_on_c, 2, 107, 0
4, 104385, Note_on_c, 2, 88, 80
4, 104386, Note_on_c, 2, 83, 80
4, 104387, Note_on_c, 2, 76, 80
4, 104391, Note_on_c, 2, 104, 80
4, 104507, Note_on_c, 2, 100, 80
4, 104508, Note_on_c, 2, 104, 0
4, 104511, Note_on_c, 2, 85, 80
4, 104517, Note_on_c, 2, 83, 0
4, 104546, Note_on_c, 2, 85, 0
4, 104552, Note_on_c, 2, 100, 0
4, 104621, Note_on_c, 2, 86, 80
4, 104625, Note_on_c, 2, 104, 80
4, 104627, Note_on_c, 2, 100, 80
4, 104661, Note_on_c, 2, 86, 0
4, 104661, Note_on_c, 2, 104, 0
4, 104668, Note_on_c, 2, 100, 0
4, 104738, Note_on_c, 2, 85, 80
4, 104740, Note_on_c, 2, 76, 0
4, 104756, Note_on_c, 2, 105, 80
4, 104757, Note_on_c, 2, 100, 80
4, 104855, Note_on_c, 2, 85, 0
4, 104859, Note_on_c, 2, 81, 80
4, 104864, Note_on_c, 2, 88, 0
4, 104880, Note_on_c, 2, 97, 80
4, 104886, Note_on_c, 2, 100, 0
4, 104912, Note_on_c, 2, 97, 0
4, 104974, Note_on_c, 2, 81, 0
4, 104982, Note_on_c, 2, 85, 80
4, 104993, Note_on_c, 2, 100, 80
4, 104998, Note_on_c, 2, 105, 0
4, 105018, Note_on_c, 2, 100, 0
4, 105070, Note_on_c, 2, 85, 0
4, 105111, Note_on_c, 2, 100, 80
4, 105111, Note_on_c, 2, 88, 80
4, 105113, Note_on_c, 2, 104, 80
4, 105229, Note_on_c, 2, 86, 80
4, 105232, Note_on_c, 2, 95, 80
4, 105241, Note_on_c, 2, 100, 0
4, 105241, Note_on_c, 2, 88, 0
4, 105263, Note_on_c, 2, 95, 0
4, 105276, Note_on_c, 2, 86, 0
4, 105342, Note_on_c, 2, 100, 80
4, 105347, Note_on_c, 2, 88, 80
4, 105372, Note_on_c, 2, 104, 0
4, 105375, Note_on_c, 2, 100, 0
4, 105405, Note_on_c, 2, 88, 0
4, 105464, Note_on_c, 2, 105, 80
4, 105466, Note_on_c, 2, 81, 80
4, 105466, Note_on_c, 2, 97, 80
4, 105577, Note_on_c, 2, 105, 0
4, 105586, Note_on_c, 2, 93, 80
4, 105595, Note_on_c, 2, 97, 0
4, 105607, Note_on_c, 2, 81, 0
4, 105657, Note_on_c, 2, 93, 0
4, 105697, Note_on_c, 2, 76, 80
4, 105707, Note_on_c, 2, 92, 80
4, 105710, Note_on_c, 2, 95, 80
4, 105738, Note_on_c, 2, 76, 0
4, 105758, Note_on_c, 2, 95, 0
4, 105760, Note_on_c, 2, 92, 0
4, 105827, Note_on_c, 2, 76, 80
4, 105829, Note_on_c, 2, 93, 80
4, 105830, Note_on_c, 2, 97, 80
4, 105893, Note_on_c, 2, 97, 0
4, 105946, Note_on_c, 2, 73, 80
4, 105955, Note_on_c, 2, 100, 80
4, 105963, Note_on_c, 2, 76, 0
4, 105985, Note_on_c, 2, 73, 0
4, 106008, Note_on_c, 2, 100, 0
4, 106012, Note_on_c, 2, 93, 0
4, 106065, Note_on_c, 2, 76, 80
4, 106070, Note_on_c, 2, 93, 80
4, 106071, Note_on_c, 2, 97, 80
4, 106108, Note_on_c, 2, 76, 0
4, 106118, Note_on_c, 2, 97, 0
4, 106136, Note_on_c, 2, 93, 0
4, 106187, Note_on_c, 2, 92, 80
4, 106188, Note_on_c, 2, 95, 80
4, 106191, Note_on_c, 2, 76, 80
4, 106258, Note_on_c, 2, 95, 0
4, 106305, Note_on_c, 2, 71, 80
4, 106305, Note_on_c, 2, 98, 80
4, 106318, Note_on_c, 2, 76, 0
4, 106327, Note_on_c, 2, 92, 0
4, 106352, Note_on_c, 2, 71, 0
4, 106358, Note_on_c, 2, 98, 0
4, 106419, Note_on_c, 2, 92, 80
4, 106420, Note_on_c, 2, 95, 80
4, 106421, Note_on_c, 2, 76, 80
4, 106457, Note_on_c, 2, 92, 0
4, 106458, Note_on_c, 2, 95, 0
4, 106469, Note_on_c, 2, 76, 0
4, 106540, Note_on_c, 2, 73, 80
4, 106541, Note_on_c, 2, 93, 80
4, 106543, Note_on_c, 2, 97, 80
4, 106663, Note_on_c, 2, 69, 80
4, 106664, Note_on_c, 2, 73, 0
4, 106671, Note_on_c, 2, 100, 80
4, 106677, Note_on_c, 2, 97, 0
4, 106698, Note_on_c, 2, 100, 0
4, 106705, Note_on_c, 2, 93, 0
4, 106722, Note_on_c, 2, 69, 0
4, 106777, Note_on_c, 2, 71, 80
4, 106794, Note_on_c, 2, 88, 80
4, 106795, Note_on_c, 2, 92, 80
4, 106835, Note_on_c, 2, 92, 0
4, 106836, Note_on_c, 2, 71, 0
4, 106840, Note_on_c, 2, 88, 0
4, 106899, Note_on_c, 2, 73, 80
4, 106931, Note_on_c, 2, 93, 80
4, 106932, Note_on_c, 2, 88, 80
4, 106997, Note_on_c, 2, 88, 0
4, 107037, Note_on_c, 2, 76, 80
4, 107045, Note_on_c, 2, 85, 80
4, 107046, Note_on_c, 2, 73, 0
4, 107075, Note_on_c, 2, 85, 0
4, 107090, Note_on_c, 2, 76, 0
4, 107154, Note_on_c, 2, 81, 80
4, 107160, Note_on_c, 2, 88, 80
4, 107180, Note_on_c, 2, 93, 0
4, 107188, Note_on_c, 2, 88, 0
4, 107209, Note_on_c, 2, 81, 0
4, 107275, Note_on_c, 2, 76, 80
4, 107292, Note_on_c, 2, 88, 80
4, 107292, Note_on_c, 2, 92, 80
4, 107360, Note_on_c, 2, 88, 0
4, 107404, Note_on_c, 2, 80, 80
4, 107412, Note_on_c, 2, 83, 80
4, 107414, Note_on_c, 2, 76, 0
4, 107434, Note_on_c, 2, 83, 0
4, 107463, Note_on_c, 2, 80, 0
4, 107524, Note_on_c, 2, 88, 80
4, 107526, Note_on_c, 2, 83, 80
4, 107553, Note_on_c, 2, 88, 0
4, 107558, Note_on_c, 2, 92, 0
4, 107576, Note_on_c, 2, 83, 0
4, 107651, Note_on_c, 2, 81, 80
4, 107654, Note_on_c, 2, 81, 80
4, 107657, Note_on_c, 2, 88, 80
4, 107658, Note_on_c, 2, 93, 80
4, 107783, Note_on_c, 2, 81, 0
4, 107783, Note_on_c, 2, 93, 0
4, 107787, Note_on_c, 2, 88, 0
4, 107794, Note_on_c, 2, 97, 80
4, 107795, Note_on_c, 2, 85, 80
4, 107917, Note_on_c, 2, 97, 0
4, 107922, Note_on_c, 2, 87, 80
4, 107924, Note_on_c, 2, 96, 80
4, 107926, Note_on_c, 2, 85, 0
4, 108025, Note_on_c, 2, 87, 0
4, 108028, Note_on_c, 2, 89, 80
4, 108029, Note_on_c, 2, 95, 80
4, 108031, Note_on_c, 2, 96, 0
4, 108042, Note_on_c, 2, 80, 80
4, 108054, Note_on_c, 2, 81, 0
4, 108145, Note_on_c, 2, 94, 80
4, 108146, Note_on_c, 2, 90, 80
4, 108147, Note_on_c, 2, 89, 0
4, 108148, Note_on_c, 2, 78, 80
4, 108149, Note_on_c, 2, 80, 0
4, 108151, Note_on_c, 2, 95, 0
4, 108227, Note_on_c, 2, 94, 0
4, 108253, Note_on_c, 2, 78, 0
4, 108254, Note_on_c, 2, 86, 80
4, 108257, Note_on_c, 2, 102, 80
4, 108262, Note_on_c, 2, 93, 80
4, 108263, Note_on_c, 2, 90, 0
4, 108355, Note_on_c, 2, 93, 0
4, 108375, Note_on_c, 2, 104, 80
4, 108379, Note_on_c, 2, 102, 0
4, 108382, Note_on_c, 2, 92, 80
4, 108477, Note_on_c, 2, 92, 0
4, 108482, Note_on_c, 2, 85, 80
4, 108482, Note_on_c, 2, 91, 80
4, 108486, Note_on_c, 2, 106, 80
4, 108487, Note_on_c, 2, 104, 0
4, 108488, Note_on_c, 2, 86, 0
4, 108584, Note_on_c, 2, 91, 0
4, 108589, Note_on_c, 2, 90, 80
4, 108591, Note_on_c, 2, 87, 80
4, 108593, Note_on_c, 2, 85, 0
4, 108593, Note_on_c, 2, 106, 0
4, 108601, Note_on_c, 2, 107, 80
4, 108644, Note_on_c, 2, 87, 0
4, 108646, Note_on_c, 2, 89, 80
4, 108648, Note_on_c, 2, 92, 80
4, 108650, Note_on_c, 2, 90, 0
4, 108699, Note_on_c, 2, 92, 0
4, 108700, Note_on_c, 2, 89, 0
4, 108710, Note_on_c, 2, 90, 80
4, 108712, Note_on_c, 2, 93, 80
4, 108720, Note_on_c, 2, 105, 80
4, 108730, Note_on_c, 2, 107, 0
4, 108829, Note_on_c, 2, 103, 80
4, 108831, Note_on_c, 2, 95, 80
4, 108832, Note_on_c, 2, 105, 0
4, 108838, Note_on_c, 2, 93, 0
4, 108884, Note_on_c, 2, 90, 0
4, 108939, Note_on_c, 2, 95, 0
4, 108948, Note_on_c, 2, 93, 80
4, 108949, Note_on_c, 2, 96, 80
4, 108950, Note_on_c, 2, 102, 80
4, 108951, Note_on_c, 2, 103, 0
4, 109005, Note_on_c, 2, 92, 80
4, 109007, Note_on_c, 2, 93, 0
4, 109056, Note_on_c, 2, 92, 0
4, 109061, Note_on_c, 2, 102, 0
4, 109062, Note_on_c, 2, 96, 0
4, 109062, Note_on_c, 2, 97, 80
4, 109064, Note_on_c, 2, 101, 80
4, 109072, Note_on_c, 2, 93, 80
4, 109183, Note_on_c, 2, 85, 80
4, 109186, Note_on_c, 2, 102, 80
4, 109188, Note_on_c, 2, 101, 0
4, 109302, Note_on_c, 2, 92, 80
4, 109303, Note_on_c, 2, 84, 80
4, 109303, Note_on_c, 2, 99, 80
4, 109304, Note_on_c, 2, 97, 0
4, 109304, Note_on_c, 2, 85, 0
4, 109310, Note_on_c, 2, 93, 0
4, 109416, Note_on_c, 2, 99, 0
4, 109421, Note_on_c, 2, 83, 80
4, 109423, Note_on_c, 2, 84, 0
4, 109426, Note_on_c, 2, 97, 80
4, 109427, Note_on_c, 2, 102, 0
4, 109427, Note_on_c, 2, 100, 80
4, 109545, Note_on_c, 2, 82, 80
4, 109548, Note_on_c, 2, 90, 80
4, 109549, Note_on_c, 2, 83, 0
4, 109552, Note_on_c, 2, 92, 0
4, 109664, Note_on_c, 2, 97, 0
4, 109665, Note_on_c, 2, 95, 80
4, 109666, Note_on_c, 2, 82, 0
4, 109667, Note_on_c, 2, 81, 80
4, 109669, Note_on_c, 2, 98, 80
4, 109675, Note_on_c, 2, 100, 0
4, 109788, Note_on_c, 2, 90, 0
4, 109788, Note_on_c, 2, 80, 80
4, 109790, Note_on_c, 2, 89, 80
4, 109791, Note_on_c, 2, 81, 0
4, 109895, Note_on_c, 2, 80, 0
4, 109906, Note_on_c, 2, 81, 80
4, 109908, Note_on_c, 2, 90, 80
4, 109909, Note_on_c, 2, 89, 0
4, 109911, Note_on_c, 2, 97, 80
4, 109911, Note_on_c, 2, 93, 80
4, 109916, Note_on_c, 2, 95, 0
4, 109919, Note_on_c, 2, 98, 0
4, 109995, Note_on_c, 2, 93, 0
4, 110008, Note_on_c, 2, 97, 0
4, 110033, Note_on_c, 2, 90, 0
4, 110036, Note_on_c, 2, 96, 80
4, 110037, Note_on_c, 2, 90, 80
4, 110037, Note_on_c, 2, 87, 80
4, 110120, Note_on_c, 2, 87, 0
4, 110132, Note_on_c, 2, 96, 0
4, 110142, Note_on_c, 2, 90, 0
4, 110147, Note_on_c, 2, 92, 80
4, 110150, Note_on_c, 2, 95, 80
4, 110152, Note_on_c, 2, 80, 80
4, 110153, Note_on_c, 2, 88, 80
4, 110159, Note_on_c, 2, 81, 0
4, 110233, Note_on_c, 2, 92, 0
4, 110239, Note_on_c, 2, 95, 0
4, 110265, Note_on_c, 2, 85, 80
4, 110265, Note_on_c, 2, 78, 80
4, 110266, Note_on_c, 2, 88, 0
4, 110266, Note_on_c, 2, 94, 80
4, 110266, Note_on_c, 2, 90, 80
4, 110267, Note_on_c, 2, 80, 0
4, 110371, Note_on_c, 2, 85, 0
4, 110384, Note_on_c, 2, 94, 0
4, 110387, Note_on_c, 2, 90, 0
4, 110387, Note_on_c, 2, 87, 80
4, 110387, Note_on_c, 2, 93, 80
4, 110388, Note_on_c, 2, 84, 80
4, 110509, Note_on_c, 2, 85, 80
4, 110510, Note_on_c, 2, 87, 0
4, 110510, Note_on_c, 2, 80, 80
4, 110513, Note_on_c, 2, 89, 80
4, 110514, Note_on_c, 2, 92, 80
4, 110517, Note_on_c, 2, 78, 0
4, 110517, Note_on_c, 2, 84, 0
4, 110523, Note_on_c, 2, 93, 0
4, 110983, Note_on_c, 2, 85, 0
4, 110987, Note_on_c, 2, 80, 0
4, 110991, Note_on_c, 2, 92, 0
4, 110993, Note_on_c, 2, 89, 0
4, 111289, Note_on_c, 2, 88, 80
4, 111341, Note_on_c, 2, 90, 80
4, 111345, Note_on_c, 2, 88, 0
4, 111392, Note_on_c, 2, 92, 80
4, 111397, Note_on_c, 2, 90, 0
4, 111448, Note_on_c, 2, 92, 0
4, 111451, Note_on_c, 2, 93, 80
4, 111503, Note_on_c, 2, 95, 80
4, 111509, Note_on_c, 2, 93, 0
4, 111561, Note_on_c, 2, 97, 80
4, 111570, Note_on_c, 2, 95, 0
4, 111618, Note_on_c, 2, 97, 0
4, 111618, Note_on_c, 2, 98, 80
4, 111677, Note_on_c, 2, 100, 80
4, 111686, Note_on_c, 2, 98, 0
4, 111736, Note_on_c, 2, 97, 80
4, 111742, Note_on_c, 2, 100, 0
4, 111796, Note_on_c, 2, 97, 0
4, 111797, Note_on_c, 2, 95, 80
4, 111858, Note_on_c, 2, 93, 80
4, 111862, Note_on_c, 2, 95, 0
4, 111918, Note_on_c, 2, 93, 0
4, 111926, Note_on_c, 2, 98, 80
4, 111990, Note_on_c, 2, 95, 80
4, 112047, Note_on_c, 2, 93, 80
4, 112053, Note_on_c, 2, 95, 0
4, 112100, Note_on_c, 2, 92, 80
4, 112106, Note_on_c, 2, 93, 0
4, 112160, Note_on_c, 2, 90, 80
4, 112163, Note_on_c, 2, 92, 0
4, 112207, Note_on_c, 2, 98, 0
4, 112222, Note_on_c, 2, 90, 0
4, 112223, Note_on_c, 2, 88, 80
4, 112223, Note_on_c, 2, 97, 80
4, 112281, Note_on_c, 2, 88, 0
4, 112282, Note_on_c, 2, 97, 0
4, 112282, Note_on_c, 2, 86, 80
4, 112284, Note_on_c, 2, 98, 80
4, 112346, Note_on_c, 2, 98, 0
4, 112362, Note_on_c, 2, 85, 80
4, 112363, Note_on_c, 2, 86, 0
4, 112363, Note_on_c, 2, 100, 80
4, 112417, Note_on_c, 2, 85, 0
4, 112420, Note_on_c, 2, 83, 80
4, 112421, Note_on_c, 2, 102, 80
4, 112432, Note_on_c, 2, 100, 0
4, 112475, Note_on_c, 2, 83, 0
4, 112482, Note_on_c, 2, 90, 80
4, 112483, Note_on_c, 2, 102, 0
4, 112489, Note_on_c, 2, 98, 80
4, 112545, Note_on_c, 2, 92, 80
4, 112548, Note_on_c, 2, 90, 0
4, 112552, Note_on_c, 2, 98, 0
4, 112553, Note_on_c, 2, 100, 80
4, 112604, Note_on_c, 2, 102, 80
4, 112605, Note_on_c, 2, 92, 0
4, 112606, Note_on_c, 2, 100, 0
4, 112606, Note_on_c, 2, 93, 80
4, 112608, Note_on_c, 2, 93, 80
4, 112639, Note_on_c, 2, 102, 0
4, 112651, Note_on_c, 2, 93, 0
4, 112660, Note_on_c, 2, 93, 0
4, 112671, Note_on_c, 2, 92, 80
4, 112672, Note_on_c, 2, 95, 80
4, 112731, Note_on_c, 2, 76, 80
4, 112787, Note_on_c, 2, 78, 80
4, 112791, Note_on_c, 2, 95, 0
4, 112793, Note_on_c, 2, 93, 80
4, 112795, Note_on_c, 2, 92, 0
4, 112799, Note_on_c, 2, 76, 0
4, 112844, Note_on_c, 2, 80, 80
4, 112849, Note_on_c, 2, 93, 0
4, 112850, Note_on_c, 2, 78, 0
4, 112850, Note_on_c, 2, 95, 80
4, 112901, Note_on_c, 2, 80, 0
4, 112903, Note_on_c, 2, 81, 80
4, 112912, Note_on_c, 2, 93, 80
4, 112913, Note_on_c, 2, 95, 0
4, 112913, Note_on_c, 2, 97, 80
4, 112967, Note_on_c, 2, 83, 80
4, 112968, Note_on_c, 2, 81, 0
4, 112979, Note_on_c, 2, 97, 0
4, 112980, Note_on_c, 2, 98, 80
4, 113025, Note_on_c, 2, 85, 80
4, 113033, Note_on_c, 2, 83, 0
4, 113040, Note_on_c, 2, 100, 80
4, 113041, Note_on_c, 2, 98, 0
4, 113088, Note_on_c, 2, 85, 0
4, 113088, Note_on_c, 2, 86, 80
4, 113095, Note_on_c, 2, 92, 80
4, 113101, Note_on_c, 2, 93, 0
4, 113151, Note_on_c, 2, 88, 80
4, 113157, Note_on_c, 2, 86, 0
4, 113161, Note_on_c, 2, 93, 80
4, 113163, Note_on_c, 2, 92, 0
4, 113207, Note_on_c, 2, 100, 0
4, 113209, Note_on_c, 2, 85, 80
4, 113217, Note_on_c, 2, 88, 0
4, 113270, Note_on_c, 2, 100, 80
4, 113272, Note_on_c, 2, 83, 80
4, 113276, Note_on_c, 2, 85, 0
4, 113327, Note_on_c, 2, 81, 80
4, 113333, Note_on_c, 2, 83, 0
4, 113379, Note_on_c, 2, 81, 0
4, 113386, Note_on_c, 2, 90, 80
4, 113394, Note_on_c, 2, 100, 0
4, 113450, Note_on_c, 2, 91, 80
4, 113451, Note_on_c, 2, 90, 0
4, 113454, Note_on_c, 2, 100, 80
4, 113505, Note_on_c, 2, 90, 80
4, 113510, Note_on_c, 2, 91, 0
4, 113511, Note_on_c, 2, 98, 80
4, 113515, Note_on_c, 2, 100, 0
4, 113559, Note_on_c, 2, 88, 80
4, 113561, Note_on_c, 2, 90, 0
4, 113568, Note_on_c, 2, 97, 80
4, 113572, Note_on_c, 2, 98, 0
4, 113615, Note_on_c, 2, 88, 0
4, 113618, Note_on_c, 2, 86, 80
4, 113626, Note_on_c, 2, 97, 0
4, 113631, Note_on_c, 2, 98, 80
4, 113636, Note_on_c, 2, 93, 0
4, 113682, Note_on_c, 2, 85, 80
4, 113684, Note_on_c, 2, 86, 0
4, 113688, Note_on_c, 2, 93, 80
4, 113738, Note_on_c, 2, 83, 80
4, 113739, Note_on_c, 2, 85, 0
4, 113746, Note_on_c, 2, 92, 80
4, 113755, Note_on_c, 2, 93, 0
4, 113800, Note_on_c, 2, 92, 0
4, 113800, Note_on_c, 2, 81, 80
4, 113803, Note_on_c, 2, 93, 80
4, 113805, Note_on_c, 2, 83, 0
4, 113857, Note_on_c, 2, 81, 0
4, 113858, Note_on_c, 2, 80, 80
4, 113858, Note_on_c, 2, 95, 80
4, 113859, Note_on_c, 2, 93, 0
4, 113912, Note_on_c, 2, 80, 0
4, 113915, Note_on_c, 2, 83, 80
4, 113920, Note_on_c, 2, 92, 80
4, 113924, Note_on_c, 2, 95, 0
4, 113972, Note_on_c, 2, 81, 80
4, 113977, Note_on_c, 2, 83, 0
4, 113979, Note_on_c, 2, 93, 80
4, 113981, Note_on_c, 2, 92, 0
4, 114030, Note_on_c, 2, 81, 0
4, 114031, Note_on_c, 2, 80, 80
4, 114032, Note_on_c, 2, 93, 0
4, 114032, Note_on_c, 2, 95, 80
4, 114052, Note_on_c, 2, 95, 0
4, 114083, Note_on_c, 2, 80, 0
4, 114087, Note_on_c, 2, 81, 80
4, 114098, Note_on_c, 2, 97, 80
4, 114100, Note_on_c, 2, 88, 80
4, 114102, Note_on_c, 2, 98, 0
4, 114116, Note_on_c, 2, 81, 0
4, 114148, Note_on_c, 2, 69, 80
4, 114201, Note_on_c, 2, 71, 80
4, 114214, Note_on_c, 2, 69, 0
4, 114259, Note_on_c, 2, 73, 80
4, 114261, Note_on_c, 2, 71, 0
4, 114318, Note_on_c, 2, 73, 0
4, 114320, Note_on_c, 2, 74, 80
4, 114335, Note_on_c, 2, 97, 0
4, 114335, Note_on_c, 2, 88, 0
4, 114388, Note_on_c, 2, 76, 80
4, 114390, Note_on_c, 2, 74, 0
4, 114445, Note_on_c, 2, 78, 80
4, 114453, Note_on_c, 2, 76, 0
4, 114503, Note_on_c, 2, 78, 0
4, 114505, Note_on_c, 2, 79, 80
4, 114571, Note_on_c, 2, 81, 80
4, 114573, Note_on_c, 2, 79, 0
4, 114635, Note_on_c, 2, 79, 80
4, 114642, Note_on_c, 2, 81, 0
4, 114692, Note_on_c, 2, 78, 80
4, 114696, Note_on_c, 2, 79, 0
4, 114750, Note_on_c, 2, 78, 0
4, 114752, Note_on_c, 2, 76, 80
4, 114820, Note_on_c, 2, 78, 80
4, 114830, Note_on_c, 2, 76, 0
4, 114891, Note_on_c, 2, 98, 80
4, 114949, Note_on_c, 2, 97, 80
4, 114954, Note_on_c, 2, 98, 0
4, 115010, Note_on_c, 2, 95, 80
4, 115011, Note_on_c, 2, 97, 0
4, 115068, Note_on_c, 2, 93, 80
4, 115069, Note_on_c, 2, 95, 0
4, 115077, Note_on_c, 2, 78, 0
4, 115127, Note_on_c, 2, 76, 80
4, 115129, Note_on_c, 2, 91, 80
4, 115130, Note_on_c, 2, 93, 0
4, 115185, Note_on_c, 2, 90, 80
4, 115188, Note_on_c, 2, 91, 0
4, 115189, Note_on_c, 2, 74, 80
4, 115197, Note_on_c, 2, 76, 0
4, 115242, Note_on_c, 2, 76, 80
4, 115243, Note_on_c, 2, 88, 80
4, 115244, Note_on_c, 2, 90, 0
4, 115253, Note_on_c, 2, 74, 0
4, 115297, Note_on_c, 2, 78, 80
4, 115303, Note_on_c, 2, 86, 80
4, 115307, Note_on_c, 2, 76, 0
4, 115308, Note_on_c, 2, 88, 0
4, 115357, Note_on_c, 2, 78, 0
4, 115357, Note_on_c, 2, 81, 80
4, 115368, Note_on_c, 2, 90, 80
4, 115377, Note_on_c, 2, 86, 0
4, 115417, Note_on_c, 2, 79, 80
4, 115421, Note_on_c, 2, 81, 0
4, 115424, Note_on_c, 2, 90, 0
4, 115428, Note_on_c, 2, 88, 80
4, 115479, Note_on_c, 2, 78, 80
4, 115480, Note_on_c, 2, 79, 0
4, 115486, Note_on_c, 2, 86, 80
4, 115487, Note_on_c, 2, 88, 0
4, 115536, Note_on_c, 2, 78, 0
4, 115540, Note_on_c, 2, 86, 0
4, 115541, Note_on_c, 2, 76, 80
4, 115543, Note_on_c, 2, 85, 80
4, 115608, Note_on_c, 2, 93, 80
4, 115666, Note_on_c, 2, 95, 80
4, 115672, Note_on_c, 2, 93, 0
4, 115721, Note_on_c, 2, 97, 80
4, 115724, Note_on_c, 2, 95, 0
4, 115750, Note_on_c, 2, 76, 0
4, 115754, Note_on_c, 2, 85, 0
4, 115778, Note_on_c, 2, 97, 0
4, 115781, Note_on_c, 2, 98, 80
4, 115836, Note_on_c, 2, 95, 80
4, 115836, Note_on_c, 2, 100, 80
4, 115840, Note_on_c, 2, 98, 0
4, 115893, Note_on_c, 2, 102, 80
4, 115895, Note_on_c, 2, 93, 80
4, 115901, Note_on_c, 2, 95, 0
4, 115901, Note_on_c, 2, 100, 0
4, 115947, Note_on_c, 2, 91, 80
4, 115950, Note_on_c, 2, 103, 80
4, 115951, Note_on_c, 2, 102, 0
4, 115953, Note_on_c, 2, 93, 0
4, 116001, Note_on_c, 2, 91, 0
4, 116002, Note_on_c, 2, 90, 80
4, 116011, Note_on_c, 2, 105, 80
4, 116015, Note_on_c, 2, 103, 0
4, 116060, Note_on_c, 2, 93, 80
4, 116061, Note_on_c, 2, 90, 0
4, 116070, Note_on_c, 2, 103, 80
4, 116077, Note_on_c, 2, 105, 0
4, 116122, Note_on_c, 2, 93, 0
4, 116123, Note_on_c, 2, 95, 80
4, 116125, Note_on_c, 2, 102, 80
4, 116134, Note_on_c, 2, 103, 0
4, 116158, Note_on_c, 2, 95, 0
4, 116163, Note_on_c, 2, 102, 0
4, 116184, Note_on_c, 2, 97, 80
4, 116187, Note_on_c, 2, 100, 80
4, 116243, Note_on_c, 2, 100, 0
4, 116249, Note_on_c, 2, 97, 0
4, 116251, Note_on_c, 2, 102, 80
4, 116253, Note_on_c, 2, 98, 80
4, 116306, Note_on_c, 2, 86, 80
4, 116366, Note_on_c, 2, 85, 80
4, 116368, Note_on_c, 2, 86, 0
4, 116422, Note_on_c, 2, 85, 0
4, 116422, Note_on_c, 2, 83, 80
4, 116481, Note_on_c, 2, 81, 80
4, 116482, Note_on_c, 2, 83, 0
4, 116506, Note_on_c, 2, 98, 0
4, 116509, Note_on_c, 2, 102, 0
4, 116548, Note_on_c, 2, 79, 80
4, 116548, Note_on_c, 2, 100, 80
4, 116570, Note_on_c, 2, 81, 0
4, 116601, Note_on_c, 2, 79, 0
4, 116610, Note_on_c, 2, 100, 0
4, 116610, Note_on_c, 2, 78, 80
4, 116622, Note_on_c, 2, 98, 80
4, 116667, Note_on_c, 2, 78, 0
4, 116670, Note_on_c, 2, 76, 80
4, 116680, Note_on_c, 2, 100, 80
4, 116691, Note_on_c, 2, 98, 0
4, 116733, Note_on_c, 2, 74, 80
4, 116737, Note_on_c, 2, 102, 80
4, 116739, Note_on_c, 2, 76, 0
4, 116751, Note_on_c, 2, 100, 0
4, 116781, Note_on_c, 2, 102, 0
4, 116792, Note_on_c, 2, 78, 80
4, 116796, Note_on_c, 2, 74, 0
4, 116807, Note_on_c, 2, 105, 80
4, 116847, Note_on_c, 2, 76, 80
4, 116849, Note_on_c, 2, 78, 0
4, 116862, Note_on_c, 2, 103, 80
4, 116867, Note_on_c, 2, 105, 0
4, 116908, Note_on_c, 2, 74, 80
4, 116909, Note_on_c, 2, 76, 0
4, 116919, Note_on_c, 2, 102, 80
4, 116920, Note_on_c, 2, 103, 0
4, 116972, Note_on_c, 2, 74, 0
4, 116973, Note_on_c, 2, 73, 80
4, 116981, Note_on_c, 2, 102, 0
4, 116982, Note_on_c, 2, 100, 80
4, 117041, Note_on_c, 2, 73, 0
4, 117043, Note_on_c, 2, 105, 80
4, 117046, Note_on_c, 2, 100, 0
4, 117100, Note_on_c, 2, 69, 80
4, 117102, Note_on_c, 2, 104, 80
4, 117106, Note_on_c, 2, 105, 0
4, 117163, Note_on_c, 2, 102, 80
4, 117165, Note_on_c, 2, 104, 0
4, 117207, Note_on_c, 2, 69, 0
4, 117220, Note_on_c, 2, 100, 80
4, 117221, Note_on_c, 2, 102, 0
4, 117282, Note_on_c, 2, 98, 80
4, 117283, Note_on_c, 2, 100, 0
4, 117339, Note_on_c, 2, 97, 80
4, 117344, Note_on_c, 2, 98, 0
4, 117397, Note_on_c, 2, 95, 80
4, 117398, Note_on_c, 2, 97, 0
4, 117457, Note_on_c, 2, 93, 80
4, 117463, Note_on_c, 2, 95, 0
4, 117512, Note_on_c, 2, 93, 0
4, 117526, Note_on_c, 2, 97, 80
4, 117586, Note_on_c, 2, 95, 80
4, 117587, Note_on_c, 2, 97, 0
4, 117644, Note_on_c, 2, 93, 80
4, 117645, Note_on_c, 2, 95, 0
4, 117702, Note_on_c, 2, 93, 0
4, 117707, Note_on_c, 2, 98, 80
4, 117763, Note_on_c, 2, 83, 80
4, 117823, Note_on_c, 2, 85, 80
4, 117831, Note_on_c, 2, 83, 0
4, 117882, Note_on_c, 2, 86, 80
4, 117884, Note_on_c, 2, 85, 0
4, 117944, Note_on_c, 2, 88, 80
4, 117945, Note_on_c, 2, 86, 0
4, 118007, Note_on_c, 2, 90, 80
4, 118015, Note_on_c, 2, 88, 0
4, 118068, Note_on_c, 2, 92, 80
4, 118072, Note_on_c, 2, 90, 0
4, 118124, Note_on_c, 2, 92, 0
4, 118126, Note_on_c, 2, 93, 80
4, 118162, Note_on_c, 2, 93, 0
4, 118186, Note_on_c, 2, 92, 80
4, 118247, Note_on_c, 2, 92, 0
4, 118252, Note_on_c, 2, 95, 80
4, 118305, Note_on_c, 2, 93, 80
4, 118306, Note_on_c, 2, 95, 0
4, 118363, Note_on_c, 2, 93, 0
4, 118363, Note_on_c, 2, 92, 80
4, 118426, Note_on_c, 2, 92, 0
4, 118428, Note_on_c, 2, 93, 80
4, 118489, Note_on_c, 2, 91, 80
4, 118548, Note_on_c, 2, 90, 80
4, 118550, Note_on_c, 2, 91, 0
4, 118603, Note_on_c, 2, 88, 80
4, 118606, Note_on_c, 2, 90, 0
4, 118654, Note_on_c, 2, 90, 80
4, 118659, Note_on_c, 2, 88, 0
4, 118663, Note_on_c, 2, 86, 80
4, 118716, Note_on_c, 2, 85, 80
4, 118720, Note_on_c, 2, 86, 0
4, 118774, Note_on_c, 2, 85, 0
4, 118775, Note_on_c, 2, 83, 80
4, 118829, Note_on_c, 2, 81, 80
4, 118833, Note_on_c, 2, 83, 0
4, 118857, Note_on_c, 2, 90, 0
4, 118869, Note_on_c, 2, 93, 0
4, 118886, Note_on_c, 2, 81, 0
4, 118887, Note_on_c, 2, 80, 80
4, 118895, Note_on_c, 2, 95, 80
4, 118897, Note_on_c, 2, 88, 80
4, 118948, Note_on_c, 2, 80, 0
4, 118952, Note_on_c, 2, 83, 80
4, 119009, Note_on_c, 2, 81, 80
4, 119010, Note_on_c, 2, 83, 0
4, 119057, Note_on_c, 2, 80, 80
4, 119058, Note_on_c, 2, 81, 0
4, 119059, Note_on_c, 2, 88, 0
4, 119115, Note_on_c, 2, 80, 0
4, 119136, Note_on_c, 2, 81, 80
4, 119136, Note_on_c, 2, 90, 80
4, 119144, Note_on_c, 2, 95, 0
4, 119146, Note_on_c, 2, 93, 80
4, 119208, Note_on_c, 2, 98, 0
4, 119209, Note_on_c, 2, 95, 80
4, 119269, Note_on_c, 2, 97, 80
4, 119276, Note_on_c, 2, 95, 0
4, 119322, Note_on_c, 2, 97, 0
4, 119327, Note_on_c, 2, 98, 80
4, 119330, Note_on_c, 2, 90, 0
4, 119383, Note_on_c, 2, 98, 0
4, 119387, Note_on_c, 2, 93, 0
4, 119388, Note_on_c, 2, 86, 80
4, 119392, Note_on_c, 2, 92, 80
4, 119459, Note_on_c, 2, 93, 80
4, 119520, Note_on_c, 2, 95, 80
4, 119529, Note_on_c, 2, 93, 0
4, 119576, Note_on_c, 2, 97, 80
4, 119586, Note_on_c, 2, 92, 0
4, 119588, Note_on_c, 2, 95, 0
4, 119639, Note_on_c, 2, 97, 0
4, 119641, Note_on_c, 2, 98, 80
4, 119642, Note_on_c, 2, 95, 80
4, 119701, Note_on_c, 2, 100, 80
4, 119718, Note_on_c, 2, 98, 0
4, 119764, Note_on_c, 2, 102, 80
4, 119765, Note_on_c, 2, 100, 0
4, 119828, Note_on_c, 2, 102, 0
4, 119829, Note_on_c, 2, 104, 80
4, 119887, Note_on_c, 2, 86, 0
4, 119887, Note_on_c, 2, 95, 0
4, 119887, Note_on_c, 2, 104, 0
4, 119916, Note_on_c, 2, 105, 80
4, 119916, Note_on_c, 2, 97, 80
4, 119916, Note_on_c, 2, 88, 80
4, 120616, Note_on_c, 2, 81, 0
4, 120625, Note_on_c, 2, 105, 0
4, 120626, Note_on_c, 2, 97, 0
4, 120627, Note_on_c, 2, 88, 0
4, 120627, End_track
5, 0, Start_track
5, 0, Title_t, "Ped 8"
5, 0, MIDI_port, 0
5, 0, Control_c, 3, 7, 127
5, 0, Control_c, 3, 93, 0
5, 0, Control_c, 3, 91, 127
5, 0, Control_c, 3, 10, 68
5, 0, Program_c, 3, 19
5, 73932, Note_on_c, 3, 45, 80
5, 74130, Note_on_c, 3, 45, 0
5, 74168, Note_on_c, 3, 49, 80
5, 74776, Note_on_c, 3, 49, 0
5, 74853, Note_on_c, 3, 51, 80
5, 75102, Note_on_c, 3, 51, 0
5, 75217, Note_on_c, 3, 52, 80
5, 75735, Note_on_c, 3, 52, 0
5, 75929, Note_on_c, 3, 52, 80
5, 76240, Note_on_c, 3, 52, 0
5, 76283, Note_on_c, 3, 54, 80
5, 77329, Note_on_c, 3, 54, 0
5, 77368, Note_on_c, 3, 52, 80
5, 78054, Note_on_c, 3, 52, 0
5, 78092, Note_on_c, 3, 52, 80
5, 78348, Note_on_c, 3, 52, 0
5, 78462, Note_on_c, 3, 45, 80
5, 79198, Note_on_c, 3, 47, 80
5, 79209, Note_on_c, 3, 45, 0
5, 79567, Note_on_c, 3, 49, 80
5, 79581, Note_on_c, 3, 47, 0
5, 80253, Note_on_c, 3, 49, 0
5, 80260, Note_on_c, 3, 50, 80
5, 80585, Note_on_c, 3, 50, 0
5, 80631, Note_on_c, 3, 49, 80
5, 80961, Note_on_c, 3, 49, 0
5, 80973, Note_on_c, 3, 47, 80
5, 81713, Note_on_c, 3, 47, 0
5, 81719, Note_on_c, 3, 45, 80
5, 83316, Note_on_c, 3, 45, 0
5, 83492, Note_on_c, 3, 45, 80
5, 83788, Note_on_c, 3, 45, 0
5, 83899, Note_on_c, 3, 49, 80
5, 84561, Note_on_c, 3, 49, 0
5, 84567, Note_on_c, 3, 51, 80
5, 84904, Note_on_c, 3, 51, 0
5, 84940, Note_on_c, 3, 52, 80
5, 85525, Note_on_c, 3, 52, 0
5, 85649, Note_on_c, 3, 52, 80
5, 85904, Note_on_c, 3, 52, 0
5, 86006, Note_on_c, 3, 54, 80
5, 87040, Note_on_c, 3, 54, 0
5, 87099, Note_on_c, 3, 52, 80
5, 87677, Note_on_c, 3, 52, 0
5, 87838, Note_on_c, 3, 52, 80
5, 88131, Note_on_c, 3, 52, 0
5, 88208, Note_on_c, 3, 45, 80
5, 88875, Note_on_c, 3, 45, 0
5, 88904, Note_on_c, 3, 47, 80
5, 89266, Note_on_c, 3, 47, 0
5, 89267, Note_on_c, 3, 49, 80
5, 89969, Note_on_c, 3, 49, 0
5, 89980, Note_on_c, 3, 50, 80
5, 90288, Note_on_c, 3, 50, 0
5, 90340, Note_on_c, 3, 49, 80
5, 90668, Note_on_c, 3, 49, 0
5, 90698, Note_on_c, 3, 47, 80
5, 91399, Note_on_c, 3, 47, 0
5, 91410, Note_on_c, 3, 45, 80
5, 93929, Note_on_c, 3, 45, 0
5, 99703, Note_on_c, 3, 49, 80
5, 99955, Note_on_c, 3, 49, 0
5, 100077, Note_on_c, 3, 49, 80
5, 100667, Note_on_c, 3, 49, 0
5, 100784, Note_on_c, 3, 49, 80
5, 101060, Note_on_c, 3, 49, 0
5, 101152, Note_on_c, 3, 47, 80
5, 101741, Note_on_c, 3, 47, 0
5, 101863, Note_on_c, 3, 44, 80
5, 102135, Note_on_c, 3, 44, 0
5, 102238, Note_on_c, 3, 45, 80
5, 102606, Note_on_c, 3, 44, 80
5, 102618, Note_on_c, 3, 45, 0
5, 102955, Note_on_c, 3, 42, 80
5, 102968, Note_on_c, 3, 44, 0
5, 103307, Note_on_c, 3, 42, 0
5, 103314, Note_on_c, 3, 40, 80
5, 105458, Note_on_c, 3, 40, 0
5, 106184, Note_on_c, 3, 52, 80
5, 106407, Note_on_c, 3, 52, 0
5, 106554, Note_on_c, 3, 52, 80
5, 107267, Note_on_c, 3, 52, 0
5, 107272, Note_on_c, 3, 50, 80
5, 107649, Note_on_c, 3, 50, 0
5, 107651, Note_on_c, 3, 49, 80
5, 108085, Note_on_c, 3, 49, 0
5, 108162, Note_on_c, 3, 54, 88
5, 108364, Note_on_c, 3, 54, 0
5, 108370, Note_on_c, 3, 53, 86
5, 108486, Note_on_c, 3, 52, 76
5, 108487, Note_on_c, 3, 53, 0
5, 108593, Note_on_c, 3, 51, 88
5, 108597, Note_on_c, 3, 52, 0
5, 108704, Note_on_c, 3, 51, 0
5, 108704, Note_on_c, 3, 49, 82
5, 108813, Note_on_c, 3, 49, 0
5, 108817, Note_on_c, 3, 50, 87
5, 109063, Note_on_c, 3, 49, 93
5, 109071, Note_on_c, 3, 50, 0
5, 110936, Note_on_c, 3, 49, 0
5, 111020, Note_on_c, 3, 54, 89
5, 111145, Note_on_c, 3, 54, 0
5, 111248, Note_on_c, 3, 52, 84
5, 111560, Note_on_c, 3, 50, 77
5, 111573, Note_on_c, 3, 52, 0
5, 111668, Note_on_c, 3, 49, 89
5, 111672, Note_on_c, 3, 50, 0
5, 111865, Note_on_c, 3, 49, 0
5, 111913, Note_on_c, 3, 47, 89
5, 112284, Note_on_c, 3, 49, 85
5, 112287, Note_on_c, 3, 47, 0
5, 112419, Note_on_c, 3, 49, 0
5, 112420, Note_on_c, 3, 50, 82
5, 112635, Note_on_c, 3, 50, 0
5, 112668, Note_on_c, 3, 52, 84
5, 113022, Note_on_c, 3, 50, 85
5, 113026, Note_on_c, 3, 52, 0
5, 113149, Note_on_c, 3, 49, 88
5, 113160, Note_on_c, 3, 50, 0
5, 113339, Note_on_c, 3, 49, 0
5, 113388, Note_on_c, 3, 50, 86
5, 113610, Note_on_c, 3, 50, 0
5, 113620, Note_on_c, 3, 47, 89
5, 114048, Note_on_c, 3, 47, 0
5, 114088, Note_on_c, 3, 45, 88
5, 120607, Note_on_c, 3, 45, 0
5, 120607, End_track
6, 0, Start_track
6, 0, Title_t, "Ped 16"
6, 0, MIDI_port, 0
6, 0, Control_c, 4, 7, 127
6, 0, Control_c, 4, 93, 0
6, 0, Control_c, 4, 91, 127
6, 0, Control_c, 4, 10, 68
6, 0, Program_c, 4, 78
6, 73932, Note_on_c, 4, 33, 80
6, 74130, Note_on_c, 4, 33, 0
6, 74168, Note_on_c, 4, 37, 80
6, 74776, Note_on_c, 4, 37, 0
6, 74853, Note_on_c, 4, 39, 80
6, 75102, Note_on_c, 4, 39, 0
6, 75217, Note_on_c, 4, 40, 80
6, 75735, Note_on_c, 4, 40, 0
6, 75929, Note_on_c, 4, 40, 80
6, 76240, Note_on_c, 4, 40, 0
6, 76283, Note_on_c, 4, 42, 80
6, 77329, Note_on_c, 4, 42, 0
6, 77368, Note_on_c, 4, 40, 80
6, 78054, Note_on_c, 4, 40, 0
6, 78092, Note_on_c, 4, 40, 80
6, 78348, Note_on_c, 4, 40, 0
6, 78462, Note_on_c, 4, 33, 80
6, 79198, Note_on_c, 4, 35, 80
6, 79209, Note_on_c, 4, 33, 0
6, 79567, Note_on_c, 4, 37, 80
6, 79581, Note_on_c, 4, 35, 0
6, 80253, Note_on_c, 4, 37, 0
6, 80260, Note_on_c, 4, 38, 80
6, 80585, Note_on_c, 4, 38, 0
6, 80631, Note_on_c, 4, 37, 80
6, 80961, Note_on_c, 4, 37, 0
6, 80973, Note_on_c, 4, 35, 80
6, 81713, Note_on_c, 4, 35, 0
6, 81719, Note_on_c, 4, 33, 80
6, 83316, Note_on_c, 4, 33, 0
6, 83492, Note_on_c, 4, 33, 80
6, 83788, Note_on_c, 4, 33, 0
6, 83899, Note_on_c, 4, 37, 80
6, 84561, Note_on_c, 4, 37, 0
6, 84567, Note_on_c, 4, 39, 80
6, 84904, Note_on_c, 4, 39, 0
6, 84940, Note_on_c, 4, 40, 80
6, 85525, Note_on_c, 4, 40, 0
6, 85649, Note_on_c, 4, 40, 80
6, 85904, Note_on_c, 4, 40, 0
6, 86006, Note_on_c, 4, 42, 80
6, 87040, Note_on_c, 4, 42, 0
6, 87099, Note_on_c, 4, 40, 80
6, 87677, Note_on_c, 4, 40, 0
6, 87838, Note_on_c, 4, 40, 80
6, 88131, Note_on_c, 4, 40, 0
6, 88208, Note_on_c, 4, 33, 80
6, 88875, Note_on_c, 4, 33, 0
6, 88904, Note_on_c, 4, 35, 80
6, 89266, Note_on_c, 4, 35, 0
6, 89267, Note_on_c, 4, 37, 80
6, 89969, Note_on_c, 4, 37, 0
6, 89980, Note_on_c, 4, 38, 80
6, 90288, Note_on_c, 4, 38, 0
6, 90340, Note_on_c, 4, 37, 80
6, 90668, Note_on_c, 4, 37, 0
6, 90698, Note_on_c, 4, 35, 80
6, 91399, Note_on_c, 4, 35, 0
6, 91410, Note_on_c, 4, 33, 80
6, 93929, Note_on_c, 4, 33, 0
6, 99703, Note_on_c, 4, 37, 80
6, 99955, Note_on_c, 4, 37, 0
6, 100077, Note_on_c, 4, 37, 80
6, 100667, Note_on_c, 4, 37, 0
6, 100784, Note_on_c, 4, 37, 80
6, 101060, Note_on_c, 4, 37, 0
6, 101152, Note_on_c, 4, 35, 80
6, 101741, Note_on_c, 4, 35, 0
6, 101863, Note_on_c, 4, 32, 80
6, 102135, Note_on_c, 4, 32, 0
6, 102238, Note_on_c, 4, 33, 80
6, 102606, Note_on_c, 4, 32, 80
6, 102618, Note_on_c, 4, 33, 0
6, 102955, Note_on_c, 4, 30, 80
6, 102968, Note_on_c, 4, 32, 0
6, 103307, Note_on_c, 4, 30, 0
6, 103314, Note_on_c, 4, 28, 80
6, 105458, Note_on_c, 4, 28, 0
6, 106184, Note_on_c, 4, 40, 80
6, 106407, Note_on_c, 4, 40, 0
6, 106554, Note_on_c, 4, 40, 80
6, 107267, Note_on_c, 4, 40, 0
6, 107272, Note_on_c, 4, 38, 80
6, 107649, Note_on_c, 4, 38, 0
6, 107651, Note_on_c, 4, 37, 80
6, 108085, Note_on_c, 4, 37, 0
6, 108162, Note_on_c, 4, 42, 88
6, 108364, Note_on_c, 4, 42, 0
6, 108370, Note_on_c, 4, 41, 86
6, 108486, Note_on_c, 4, 40, 76
6, 108487, Note_on_c, 4, 41, 0
6, 108593, Note_on_c, 4, 39, 88
6, 108597, Note_on_c, 4, 40, 0
6, 108704, Note_on_c, 4, 39, 0
6, 108704, Note_on_c, 4, 37, 82
6, 108813, Note_on_c, 4, 37, 0
6, 108817, Note_on_c, 4, 38, 87
6, 109063, Note_on_c, 4, 37, 93
6, 109071, Note_on_c, 4, 38, 0
6, 110936, Note_on_c, 4, 37, 0
6, 111020, Note_on_c, 4, 42, 89
6, 111145, Note_on_c, 4, 42, 0
6, 111248, Note_on_c, 4, 40, 84
6, 111560, Note_on_c, 4, 38, 77
6, 111573, Note_on_c, 4, 40, 0
6, 111668, Note_on_c, 4, 37, 89
6, 111672, Note_on_c, 4, 38, 0
6, 111865, Note_on_c, 4, 37, 0
6, 111913, Note_on_c, 4, 35, 89
6, 112284, Note_on_c, 4, 37, 85
6, 112287, Note_on_c, 4, 35, 0
6, 112419, Note_on_c, 4, 37, 0
6, 112420, Note_on_c, 4, 38, 82
6, 112635, Note_on_c, 4, 38, 0
6, 112668, Note_on_c, 4, 40, 84
6, 113022, Note_on_c, 4, 38, 85
6, 113026, Note_on_c, 4, 40, 0
6, 113149, Note_on_c, 4, 37, 88
6, 113160, Note_on_c, 4, 38, 0
6, 113339, Note_on_c, 4, 37, 0
6, 113388, Note_on_c, 4, 38, 86
6, 113610, Note_on_c, 4, 38, 0
6, 113620, Note_on_c, 4, 35, 89
6, 114048, Note_on_c, 4, 35, 0
6, 114088, Note_on_c, 4, 33, 88
6, 120607, Note_on_c, 4, 33, 0
6, 120607, End_track
7, 0, Start_track
7, 0, Title_t, "Ped 16 Reed"
7, 0, MIDI_port, 0
7, 0, Control_c, 5, 7, 127
7, 0, Control_c, 5, 93, 0
7, 0, Control_c, 5, 91, 127
7, 0, Control_c, 5, 10, 68
7, 0, Program_c, 5, 57
7, 73932, Note_on_c, 5, 33, 80
7, 74130, Note_on_c, 5, 33, 0
7, 74168, Note_on_c, 5, 37, 80
7, 74776, Note_on_c, 5, 37, 0
7, 74853, Note_on_c, 5, 39, 80
7, 75102, Note_on_c, 5, 39, 0
7, 75217, Note_on_c, 5, 40, 80
7, 75735, Note_on_c, 5, 40, 0
7, 75929, Note_on_c, 5, 40, 80
7, 76240, Note_on_c, 5, 40, 0
7, 76283, Note_on_c, 5, 42, 80
7, 77329, Note_on_c, 5, 42, 0
7, 77368, Note_on_c, 5, 40, 80
7, 78054, Note_on_c, 5, 40, 0
7, 78092, Note_on_c, 5, 40, 80
7, 78348, Note_on_c, 5, 40, 0
7, 78462, Note_on_c, 5, 33, 80
7, 79198, Note_on_c, 5, 35, 80
7, 79209, Note_on_c, 5, 33, 0
7, 79567, Note_on_c, 5, 37, 80
7, 79581, Note_on_c, 5, 35, 0
7, 80253, Note_on_c, 5, 37, 0
7, 80260, Note_on_c, 5, 38, 80
7, 80585, Note_on_c, 5, 38, 0
7, 80631, Note_on_c, 5, 37, 80
7, 80961, Note_on_c, 5, 37, 0
7, 80973, Note_on_c, 5, 35, 80
7, 81713, Note_on_c, 5, 35, 0
7, 81719, Note_on_c, 5, 33, 80
7, 83316, Note_on_c, 5, 33, 0
7, 83492, Note_on_c, 5, 33, 80
7, 83788, Note_on_c, 5, 33, 0
7, 83899, Note_on_c, 5, 37, 80
7, 84561, Note_on_c, 5, 37, 0
7, 84567, Note_on_c, 5, 39, 80
7, 84904, Note_on_c, 5, 39, 0
7, 84940, Note_on_c, 5, 40, 80
7, 85525, Note_on_c, 5, 40, 0
7, 85649, Note_on_c, 5, 40, 80
7, 85904, Note_on_c, 5, 40, 0
7, 86006, Note_on_c, 5, 42, 80
7, 87040, Note_on_c, 5, 42, 0
7, 87099, Note_on_c, 5, 40, 80
7, 87677, Note_on_c, 5, 40, 0
7, 87838, Note_on_c, 5, 40, 80
7, 88131, Note_on_c, 5, 40, 0
7, 88208, Note_on_c, 5, 33, 80
7, 88875, Note_on_c, 5, 33, 0
7, 88904, Note_on_c, 5, 35, 80
7, 89266, Note_on_c, 5, 35, 0
7, 89267, Note_on_c, 5, 37, 80
7, 89969, Note_on_c, 5, 37, 0
7, 89980, Note_on_c, 5, 38, 80
7, 90288, Note_on_c, 5, 38, 0
7, 90340, Note_on_c, 5, 37, 80
7, 90668, Note_on_c, 5, 37, 0
7, 90698, Note_on_c, 5, 35, 80
7, 91399, Note_on_c, 5, 35, 0
7, 91410, Note_on_c, 5, 33, 80
7, 93929, Note_on_c, 5, 33, 0
7, 99703, Note_on_c, 5, 37, 80
7, 99955, Note_on_c, 5, 37, 0
7, 100077, Note_on_c, 5, 37, 80
7, 100667, Note_on_c, 5, 37, 0
7, 100784, Note_on_c, 5, 37, 80
7, 101060, Note_on_c, 5, 37, 0
7, 101152, Note_on_c, 5, 35, 80
7, 101741, Note_on_c, 5, 35, 0
7, 101863, Note_on_c, 5, 32, 80
7, 102135, Note_on_c, 5, 32, 0
7, 102238, Note_on_c, 5, 33, 80
7, 102606, Note_on_c, 5, 32, 80
7, 102618, Note_on_c, 5, 33, 0
7, 102955, Note_on_c, 5, 30, 80
7, 102968, Note_on_c, 5, 32, 0
7, 103307, Note_on_c, 5, 30, 0
7, 103314, Note_on_c, 5, 28, 80
7, 105458, Note_on_c, 5, 28, 0
7, 106184, Note_on_c, 5, 40, 80
7, 106407, Note_on_c, 5, 40, 0
7, 106554, Note_on_c, 5, 40, 80
7, 107267, Note_on_c, 5, 40, 0
7, 107272, Note_on_c, 5, 38, 80
7, 107649, Note_on_c, 5, 38, 0
7, 107651, Note_on_c, 5, 37, 80
7, 108085, Note_on_c, 5, 37, 0
7, 108162, Note_on_c, 5, 42, 88
7, 108364, Note_on_c, 5, 42, 0
7, 108370, Note_on_c, 5, 41, 86
7, 108486, Note_on_c, 5, 40, 76
7, 108487, Note_on_c, 5, 41, 0
7, 108593, Note_on_c, 5, 39, 88
7, 108597, Note_on_c, 5, 40, 0
7, 108704, Note_on_c, 5, 39, 0
7, 108704, Note_on_c, 5, 37, 82
7, 108813, Note_on_c, 5, 37, 0
7, 108817, Note_on_c, 5, 38, 87
7, 109063, Note_on_c, 5, 37, 93
7, 109071, Note_on_c, 5, 38, 0
7, 110936, Note_on_c, 5, 37, 0
7, 111020, Note_on_c, 5, 42, 89
7, 111145, Note_on_c, 5, 42, 0
7, 111248, Note_on_c, 5, 40, 84
7, 111560, Note_on_c, 5, 38, 77
7, 111573, Note_on_c, 5, 40, 0
7, 111668, Note_on_c, 5, 37, 89
7, 111672, Note_on_c, 5, 38, 0
7, 111865, Note_on_c, 5, 37, 0
7, 111913, Note_on_c, 5, 35, 89
7, 112284, Note_on_c, 5, 37, 85
7, 112287, Note_on_c, 5, 35, 0
7, 112419, Note_on_c, 5, 37, 0
7, 112420, Note_on_c, 5, 38, 82
7, 112635, Note_on_c, 5, 38, 0
7, 112668, Note_on_c, 5, 40, 84
7, 113022, Note_on_c, 5, 38, 85
7, 113026, Note_on_c, 5, 40, 0
7, 113149, Note_on_c, 5, 37, 88
7, 113160, Note_on_c, 5, 38, 0
7, 113339, Note_on_c, 5, 37, 0
7, 113388, Note_on_c, 5, 38, 86
7, 113610, Note_on_c, 5, 38, 0
7, 113620, Note_on_c, 5, 35, 89
7, 114048, Note_on_c, 5, 35, 0
7, 114088, Note_on_c, 5, 33, 88
7, 120607, Note_on_c, 5, 33, 0
7, 120607, End_track
8, 0, Start_track
8, 0, Title_t, "Ped 32"
8, 0, MIDI_port, 0
8, 0, Control_c, 6, 7, 127
8, 0, Control_c, 6, 93, 0
8, 0, Control_c, 6, 91, 127
8, 0, Control_c, 6, 10, 68
8, 0, Program_c, 6, 57
8, 73932, Note_on_c, 6, 21, 80
8, 74130, Note_on_c, 6, 21, 0
8, 74168, Note_on_c, 6, 25, 80
8, 74776, Note_on_c, 6, 25, 0
8, 74853, Note_on_c, 6, 27, 80
8, 75102, Note_on_c, 6, 27, 0
8, 75217, Note_on_c, 6, 28, 80
8, 75735, Note_on_c, 6, 28, 0
8, 75929, Note_on_c, 6, 28, 80
8, 76240, Note_on_c, 6, 28, 0
8, 76283, Note_on_c, 6, 30, 80
8, 77329, Note_on_c, 6, 30, 0
8, 77368, Note_on_c, 6, 28, 80
8, 78054, Note_on_c, 6, 28, 0
8, 78092, Note_on_c, 6, 28, 80
8, 78348, Note_on_c, 6, 28, 0
8, 78462, Note_on_c, 6, 21, 80
8, 79198, Note_on_c, 6, 23, 80
8, 79209, Note_on_c, 6, 21, 0
8, 79567, Note_on_c, 6, 25, 80
8, 79581, Note_on_c, 6, 23, 0
8, 80253, Note_on_c, 6, 25, 0
8, 80260, Note_on_c, 6, 26, 80
8, 80585, Note_on_c, 6, 26, 0
8, 80631, Note_on_c, 6, 25, 80
8, 80961, Note_on_c, 6, 25, 0
8, 80973, Note_on_c, 6, 23, 80
8, 81713, Note_on_c, 6, 23, 0
8, 81719, Note_on_c, 6, 21, 80
8, 83316, Note_on_c, 6, 21, 0
8, 83492, Note_on_c, 6, 21, 80
8, 83788, Note_on_c, 6, 21, 0
8, 83899, Note_on_c, 6, 25, 80
8, 84561, Note_on_c, 6, 25, 0
8, 84567, Note_on_c, 6, 27, 80
8, 84904, Note_on_c, 6, 27, 0
8, 84940, Note_on_c, 6, 28, 80
8, 85525, Note_on_c, 6, 28, 0
8, 85649, Note_on_c, 6, 28, 80
8, 85904, Note_on_c, 6, 28, 0
8, 86006, Note_on_c, 6, 30, 80
8, 87040, Note_on_c, 6, 30, 0
8, 87099, Note_on_c, 6, 28, 80
8, 87677, Note_on_c, 6, 28, 0
8, 87838, Note_on_c, 6, 28, 80
8, 88131, Note_on_c, 6, 28, 0
8, 88208, Note_on_c, 6, 21, 80
8, 88875, Note_on_c, 6, 21, 0
8, 88904, Note_on_c, 6, 23, 80
8, 89266, Note_on_c, 6, 23, 0
8, 89267, Note_on_c, 6, 25, 80
8, 89969, Note_on_c, 6, 25, 0
8, 89980, Note_on_c, 6, 26, 80
8, 90288, Note_on_c, 6, 26, 0
8, 90340, Note_on_c, 6, 25, 80
8, 90668, Note_on_c, 6, 25, 0
8, 90698, Note_on_c, 6, 23, 80
8, 91399, Note_on_c, 6, 23, 0
8, 91410, Note_on_c, 6, 21, 80
8, 93929, Note_on_c, 6, 21, 0
8, 99703, Note_on_c, 6, 25, 80
8, 99955, Note_on_c, 6, 25, 0
8, 100077, Note_on_c, 6, 25, 80
8, 100667, Note_on_c, 6, 25, 0
8, 100784, Note_on_c, 6, 25, 80
8, 101060, Note_on_c, 6, 25, 0
8, 101152, Note_on_c, 6, 23, 80
8, 101741, Note_on_c, 6, 23, 0
8, 101863, Note_on_c, 6, 20, 80
8, 102135, Note_on_c, 6, 20, 0
8, 102238, Note_on_c, 6, 21, 80
8, 102606, Note_on_c, 6, 20, 80
8, 102618, Note_on_c, 6, 21, 0
8, 102955, Note_on_c, 6, 18, 80
8, 102968, Note_on_c, 6, 20, 0
8, 103307, Note_on_c, 6, 18, 0
8, 103314, Note_on_c, 6, 16, 80
8, 105458, Note_on_c, 6, 16, 0
8, 106184, Note_on_c, 6, 28, 80
8, 106407, Note_on_c, 6, 28, 0
8, 106554, Note_on_c, 6, 28, 80
8, 107267, Note_on_c, 6, 28, 0
8, 107272, Note_on_c, 6, 26, 80
8, 107649, Note_on_c, 6, 26, 0
8, 107651, Note_on_c, 6, 25, 80
8, 108085, Note_on_c, 6, 25, 0
8, 108162, Note_on_c, 6, 30, 88
8, 108364, Note_on_c, 6, 30, 0
8, 108370, Note_on_c, 6, 29, 86
8, 108486, Note_on_c, 6, 28, 76
8, 108487, Note_on_c, 6, 29, 0
8, 108593, Note_on_c, 6, 27, 88
8, 108597, Note_on_c, 6, 28, 0
8, 108704, Note_on_c, 6, 27, 0
8, 108704, Note_on_c, 6, 25, 82
8, 108813, Note_on_c, 6, 25, 0
8, 108817, Note_on_c, 6, 26, 87
8, 109063, Note_on_c, 6, 25, 93
8, 109071, Note_on_c, 6, 26, 0
8, 110936, Note_on_c, 6, 25, 0
8, 111020, Note_on_c, 6, 30, 89
8, 111145, Note_on_c, 6, 30, 0
8, 111248, Note_on_c, 6, 28, 84
8, 111560, Note_on_c, 6, 26, 77
8, 111573, Note_on_c, 6, 28, 0
8, 111668, Note_on_c, 6, 25, 89
8, 111672, Note_on_c, 6, 26, 0
8, 111865, Note_on_c, 6, 25, 0
8, 111913, Note_on_c, 6, 23, 89
8, 112284, Note_on_c, 6, 25, 85
8, 112287, Note_on_c, 6, 23, 0
8, 112419, Note_on_c, 6, 25, 0
8, 112420, Note_on_c, 6, 26, 82
8, 112635, Note_on_c, 6, 26, 0
8, 112668, Note_on_c, 6, 28, 84
8, 113022, Note_on_c, 6, 26, 85
8, 113026, Note_on_c, 6, 28, 0
8, 113149, Note_on_c, 6, 25, 88
8, 113160, Note_on_c, 6, 26, 0
8, 113339, Note_on_c, 6, 25, 0
8, 113388, Note_on_c, 6, 26, 86
8, 113610, Note_on_c, 6, 26, 0
8, 113620, Note_on_c, 6, 23, 89
8, 114048, Note_on_c, 6, 23, 0
8, 114088, Note_on_c, 6, 21, 88
8, 120607, Note_on_c, 6, 21, 0
8, 120607, End_track
9, 0, Start_track
9, 0, Title_t, "Trumpet 8"
9, 0, MIDI_port, 0
9, 0, Control_c, 7, 7, 127
9, 0, Control_c, 7, 1, 0
9, 0, Control_c, 7, 91, 127
9, 0, Control_c, 7, 10, 59
9, 0, Program_c, 7, 56
9, 111020, Note_on_c, 7, 54, 127
9, 111145, Note_on_c, 7, 54, 0
9, 111248, Note_on_c, 7, 52, 127
9, 111289, Note_on_c, 7, 64, 127
9, 111341, Note_on_c, 7, 66, 127
9, 111345, Note_on_c, 7, 64, 0
9, 111392, Note_on_c, 7, 68, 127
9, 111397, Note_on_c, 7, 66, 0
9, 111448, Note_on_c, 7, 68, 0
9, 111451, Note_on_c, 7, 69, 127
9, 111503, Note_on_c, 7, 71, 127
9, 111509, Note_on_c, 7, 69, 0
9, 111560, Note_on_c, 7, 50, 127
9, 111561, Note_on_c, 7, 73, 127
9, 111570, Note_on_c, 7, 71, 0
9, 111573, Note_on_c, 7, 52, 0
9, 111618, Note_on_c, 7, 73, 0
9, 111618, Note_on_c, 7, 74, 127
9, 111668, Note_on_c, 7, 49, 127
9, 111672, Note_on_c, 7, 50, 0
9, 111677, Note_on_c, 7, 76, 127
9, 111686, Note_on_c, 7, 74, 0
9, 111736, Note_on_c, 7, 73, 127
9, 111742, Note_on_c, 7, 76, 0
9, 111796, Note_on_c, 7, 73, 0
9, 111797, Note_on_c, 7, 71, 127
9, 111858, Note_on_c, 7, 69, 127
9, 111862, Note_on_c, 7, 71, 0
9, 111865, Note_on_c, 7, 49, 0
9, 111913, Note_on_c, 7, 47, 127
9, 111918, Note_on_c, 7, 69, 0
9, 111926, Note_on_c, 7, 74, 127
9, 111990, Note_on_c, 7, 71, 127
9, 112047, Note_on_c, 7, 69, 127
9, 112053, Note_on_c, 7, 71, 0
9, 112100, Note_on_c, 7, 68, 127
9, 112106, Note_on_c, 7, 69, 0
9, 112160, Note_on_c, 7, 66, 127
9, 112163, Note_on_c, 7, 68, 0
9, 112207, Note_on_c, 7, 74, 0
9, 112222, Note_on_c, 7, 66, 0
9, 112223, Note_on_c, 7, 73, 127
9, 112223, Note_on_c, 7, 64, 127
9, 112281, Note_on_c, 7, 64, 0
9, 112282, Note_on_c, 7, 73, 0
9, 112282, Note_on_c, 7, 62, 127
9, 112284, Note_on_c, 7, 49, 127
9, 112284, Note_on_c, 7, 74, 127
9, 112287, Note_on_c, 7, 47, 0
9, 112346, Note_on_c, 7, 74, 0
9, 112362, Note_on_c, 7, 61, 127
9, 112363, Note_on_c, 7, 62, 0
9, 112363, Note_on_c, 7, 76, 127
9, 112417, Note_on_c, 7, 61, 0
9, 112419, Note_on_c, 7, 49, 0
9, 112420, Note_on_c, 7, 50, 127
9, 112420, Note_on_c, 7, 59, 127
9, 112421, Note_on_c, 7, 78, 127
9, 112432, Note_on_c, 7, 76, 0
9, 112475, Note_on_c, 7, 59, 0
9, 112482, Note_on_c, 7, 66, 127
9, 112483, Note_on_c, 7, 78, 0
9, 112489, Note_on_c, 7, 74, 127
9, 112545, Note_on_c, 7, 68, 127
9, 112548, Note_on_c, 7, 66, 0
9, 112552, Note_on_c, 7, 74, 0
9, 112553, Note_on_c, 7, 76, 127
9, 112604, Note_on_c, 7, 78, 127
9, 112605, Note_on_c, 7, 68, 0
9, 112606, Note_on_c, 7, 76, 0
9, 112606, Note_on_c, 7, 69, 127
9, 112608, Note_on_c, 7, 69, 127
9, 112635, Note_on_c, 7, 50, 0
9, 112639, Note_on_c, 7, 78, 0
9, 112651, Note_on_c, 7, 69, 0
9, 112660, Note_on_c, 7, 69, 0
9, 112668, Note_on_c, 7, 52, 127
9, 112671, Note_on_c, 7, 68, 127
9, 112672, Note_on_c, 7, 71, 127
9, 112731, Note_on_c, 7, 52, 127
9, 112787, Note_on_c, 7, 54, 127
9, 112791, Note_on_c, 7, 71, 0
9, 112793, Note_on_c, 7, 69, 127
9, 112795, Note_on_c, 7, 68, 0
9, 112799, Note_on_c, 7, 52, 0
9, 112844, Note_on_c, 7, 56, 127
9, 112849, Note_on_c, 7, 69, 0
9, 112850, Note_on_c, 7, 54, 0
9, 112850, Note_on_c, 7, 71, 127
9, 112901, Note_on_c, 7, 56, 0
9, 112903, Note_on_c, 7, 57, 127
9, 112912, Note_on_c, 7, 69, 127
9, 112913, Note_on_c, 7, 71, 0
9, 112913, Note_on_c, 7, 73, 127
9, 112967, Note_on_c, 7, 59, 127
9, 112968, Note_on_c, 7, 57, 0
9, 112979, Note_on_c, 7, 73, 0
9, 112980, Note_on_c, 7, 74, 127
9, 113022, Note_on_c, 7, 50, 127
9, 113025, Note_on_c, 7, 61, 127
9, 113026, Note_on_c, 7, 52, 0
9, 113033, Note_on_c, 7, 59, 0
9, 113040, Note_on_c, 7, 76, 127
9, 113041, Note_on_c, 7, 74, 0
9, 113088, Note_on_c, 7, 61, 0
9, 113088, Note_on_c, 7, 62, 127
9, 113095, Note_on_c, 7, 68, 127
9, 113101, Note_on_c, 7, 69, 0
9, 113149, Note_on_c, 7, 49, 127
9, 113151, Note_on_c, 7, 64, 127
9, 113157, Note_on_c, 7, 62, 0
9, 113160, Note_on_c, 7, 50, 0
9, 113161, Note_on_c, 7, 69, 127
9, 113163, Note_on_c, 7, 68, 0
9, 113207, Note_on_c, 7, 76, 0
9, 113209, Note_on_c, 7, 61, 127
9, 113217, Note_on_c, 7, 64, 0
9, 113270, Note_on_c, 7, 76, 127
9, 113272, Note_on_c, 7, 59, 127
9, 113276, Note_on_c, 7, 61, 0
9, 113327, Note_on_c, 7, 57, 127
9, 113333, Note_on_c, 7, 59, 0
9, 113339, Note_on_c, 7, 49, 0
9, 113379, Note_on_c, 7, 57, 0
9, 113386, Note_on_c, 7, 66, 127
9, 113388, Note_on_c, 7, 50, 127
9, 113394, Note_on_c, 7, 76, 0
9, 113450, Note_on_c, 7, 67, 127
9, 113451, Note_on_c, 7, 66, 0
9, 113454, Note_on_c, 7, 76, 127
9, 113505, Note_on_c, 7, 66, 127
9, 113510, Note_on_c, 7, 67, 0
9, 113511, Note_on_c, 7, 74, 127
9, 113515, Note_on_c, 7, 76, 0
9, 113559, Note_on_c, 7, 64, 127
9, 113561, Note_on_c, 7, 66, 0
9, 113568, Note_on_c, 7, 73, 127
9, 113572, Note_on_c, 7, 74, 0
9, 113610, Note_on_c, 7, 50, 0
9, 113615, Note_on_c, 7, 64, 0
9, 113618, Note_on_c, 7, 62, 127
9, 113620, Note_on_c, 7, 47, 127
9, 113626, Note_on_c, 7, 73, 0
9, 113631, Note_on_c, 7, 74, 127
9, 113636, Note_on_c, 7, 69, 0
9, 113682, Note_on_c, 7, 61, 127
9, 113684, Note_on_c, 7, 62, 0
9, 113688, Note_on_c, 7, 69, 127
9, 113738, Note_on_c, 7, 59, 127
9, 113739, Note_on_c, 7, 61, 0
9, 113746, Note_on_c, 7, 68, 127
9, 113755, Note_on_c, 7, 69, 0
9, 113800, Note_on_c, 7, 68, 0
9, 113800, Note_on_c, 7, 57, 127
9, 113803, Note_on_c, 7, 69, 127
9, 113805, Note_on_c, 7, 59, 0
9, 113857, Note_on_c, 7, 57, 0
9, 113858, Note_on_c, 7, 71, 127
9, 113858, Note_on_c, 7, 56, 127
9, 113859, Note_on_c, 7, 69, 0
9, 113912, Note_on_c, 7, 56, 0
9, 113915, Note_on_c, 7, 59, 127
9, 113920, Note_on_c, 7, 68, 127
9, 113924, Note_on_c, 7, 71, 0
9, 113972, Note_on_c, 7, 57, 127
9, 113977, Note_on_c, 7, 59, 0
9, 113979, Note_on_c, 7, 69, 127
9, 113981, Note_on_c, 7, 68, 0
9, 114030, Note_on_c, 7, 57, 0
9, 114031, Note_on_c, 7, 56, 127
9, 114032, Note_on_c, 7, 69, 0
9, 114032, Note_on_c, 7, 71, 127
9, 114048, Note_on_c, 7, 47, 0
9, 114052, Note_on_c, 7, 71, 0
9, 114083, Note_on_c, 7, 56, 0
9, 114087, Note_on_c, 7, 57, 127
9, 114088, Note_on_c, 7, 45, 127
9, 114098, Note_on_c, 7, 73, 127
9, 114100, Note_on_c, 7, 64, 127
9, 114102, Note_on_c, 7, 74, 0
9, 114116, Note_on_c, 7, 57, 0
9, 114148, Note_on_c, 7, 45, 127
9, 114201, Note_on_c, 7, 47, 127
9, 114214, Note_on_c, 7, 45, 0
9, 114259, Note_on_c, 7, 49, 127
9, 114261, Note_on_c, 7, 47, 0
9, 114318, Note_on_c, 7, 49, 0
9, 114320, Note_on_c, 7, 50, 127
9, 114335, Note_on_c, 7, 73, 0
9, 114335, Note_on_c, 7, 64, 0
9, 114388, Note_on_c, 7, 52, 127
9, 114390, Note_on_c, 7, 50, 0
9, 114445, Note_on_c, 7, 54, 127
9, 114453, Note_on_c, 7, 52, 0
9, 114503, Note_on_c, 7, 54, 0
9, 114505, Note_on_c, 7, 55, 127
9, 114571, Note_on_c, 7, 57, 127
9, 114573, Note_on_c, 7, 55, 0
9, 114635, Note_on_c, 7, 55, 127
9, 114642, Note_on_c, 7, 57, 0
9, 114692, Note_on_c, 7, 54, 127
9, 114696, Note_on_c, 7, 55, 0
9, 114750, Note_on_c, 7, 54, 0
9, 114752, Note_on_c, 7, 52, 127
9, 114820, Note_on_c, 7, 54, 127
9, 114830, Note_on_c, 7, 52, 0
9, 114891, Note_on_c, 7, 74, 127
9, 114949, Note_on_c, 7, 73, 127
9, 114954, Note_on_c, 7, 74, 0
9, 115010, Note_on_c, 7, 71, 127
9, 115011, Note_on_c, 7, 73, 0
9, 115068, Note_on_c, 7, 69, 127
9, 115069, Note_on_c, 7, 71, 0
9, 115077, Note_on_c, 7, 54, 0
9, 115127, Note_on_c, 7, 52, 127
9, 115129, Note_on_c, 7, 67, 127
9, 115130, Note_on_c, 7, 69, 0
9, 115185, Note_on_c, 7, 66, 127
9, 115188, Note_on_c, 7, 67, 0
9, 115189, Note_on_c, 7, 50, 127
9, 115197, Note_on_c, 7, 52, 0
9, 115242, Note_on_c, 7, 52, 127
9, 115243, Note_on_c, 7, 64, 127
9, 115244, Note_on_c, 7, 66, 0
9, 115253, Note_on_c, 7, 50, 0
9, 115297, Note_on_c, 7, 54, 127
9, 115303, Note_on_c, 7, 62, 127
9, 115307, Note_on_c, 7, 52, 0
9, 115308, Note_on_c, 7, 64, 0
9, 115357, Note_on_c, 7, 54, 0
9, 115357, Note_on_c, 7, 57, 127
9, 115368, Note_on_c, 7, 66, 127
9, 115377, Note_on_c, 7, 62, 0
9, 115417, Note_on_c, 7, 55, 127
9, 115421, Note_on_c, 7, 57, 0
9, 115424, Note_on_c, 7, 66, 0
9, 115428, Note_on_c, 7, 64, 127
9, 115479, Note_on_c, 7, 54, 127
9, 115480, Note_on_c, 7, 55, 0
9, 115486, Note_on_c, 7, 62, 127
9, 115487, Note_on_c, 7, 64, 0
9, 115536, Note_on_c, 7, 54, 0
9, 115540, Note_on_c, 7, 62, 0
9, 115541, Note_on_c, 7, 52, 127
9, 115543, Note_on_c, 7, 61, 127
9, 115608, Note_on_c, 7, 69, 127
9, 115666, Note_on_c, 7, 71, 127
9, 115672, Note_on_c, 7, 69, 0
9, 115721, Note_on_c, 7, 73, 127
9, 115724, Note_on_c, 7, 71, 0
9, 115750, Note_on_c, 7, 52, 0
9, 115754, Note_on_c, 7, 61, 0
9, 115778, Note_on_c, 7, 73, 0
9, 115781, Note_on_c, 7, 74, 127
9, 115836, Note_on_c, 7, 76, 127
9, 115836, Note_on_c, 7, 71, 127
9, 115840, Note_on_c, 7, 74, 0
9, 115893, Note_on_c, 7, 78, 127
9, 115895, Note_on_c, 7, 69, 127
9, 115901, Note_on_c, 7, 76, 0
9, 115901, Note_on_c, 7, 71, 0
9, 115947, Note_on_c, 7, 67, 127
9, 115950, Note_on_c, 7, 79, 127
9, 115951, Note_on_c, 7, 78, 0
9, 115953, Note_on_c, 7, 69, 0
9, 116001, Note_on_c, 7, 67, 0
9, 116002, Note_on_c, 7, 66, 127
9, 116011, Note_on_c, 7, 81, 127
9, 116015, Note_on_c, 7, 79, 0
9, 116060, Note_on_c, 7, 69, 127
9, 116061, Note_on_c, 7, 66, 0
9, 116070, Note_on_c, 7, 79, 127
9, 116077, Note_on_c, 7, 81, 0
9, 116122, Note_on_c, 7, 69, 0
9, 116123, Note_on_c, 7, 71, 127
9, 116125, Note_on_c, 7, 78, 127
9, 116134, Note_on_c, 7, 79, 0
9, 116158, Note_on_c, 7, 71, 0
9, 116163, Note_on_c, 7, 78, 0
9, 116184, Note_on_c, 7, 73, 127
9, 116187, Note_on_c, 7, 76, 127
9, 116243, Note_on_c, 7, 76, 0
9, 116249, Note_on_c, 7, 73, 0
9, 116251, Note_on_c, 7, 78, 127
9, 116253, Note_on_c, 7, 74, 127
9, 116306, Note_on_c, 7, 62, 127
9, 116366, Note_on_c, 7, 61, 127
9, 116368, Note_on_c, 7, 62, 0
9, 116422, Note_on_c, 7, 61, 0
9, 116422, Note_on_c, 7, 59, 127
9, 116481, Note_on_c, 7, 57, 127
9, 116482, Note_on_c, 7, 59, 0
9, 116506, Note_on_c, 7, 74, 0
9, 116509, Note_on_c, 7, 78, 0
9, 116548, Note_on_c, 7, 55, 127
9, 116548, Note_on_c, 7, 76, 127
9, 116570, Note_on_c, 7, 57, 0
9, 116601, Note_on_c, 7, 55, 0
9, 116610, Note_on_c, 7, 76, 0
9, 116610, Note_on_c, 7, 54, 127
9, 116622, Note_on_c, 7, 74, 127
9, 116667, Note_on_c, 7, 54, 0
9, 116670, Note_on_c, 7, 52, 127
9, 116680, Note_on_c, 7, 76, 127
9, 116691, Note_on_c, 7, 74, 0
9, 116733, Note_on_c, 7, 50, 127
9, 116737, Note_on_c, 7, 78, 127
9, 116739, Note_on_c, 7, 52, 0
9, 116751, Note_on_c, 7, 76, 0
9, 116781, Note_on_c, 7, 78, 0
9, 116792, Note_on_c, 7, 54, 127
9, 116796, Note_on_c, 7, 50, 0
9, 116807, Note_on_c, 7, 81, 127
9, 116847, Note_on_c, 7, 52, 127
9, 116849, Note_on_c, 7, 54, 0
9, 116862, Note_on_c, 7, 79, 127
9, 116867, Note_on_c, 7, 81, 0
9, 116908, Note_on_c, 7, 50, 127
9, 116909, Note_on_c, 7, 52, 0
9, 116919, Note_on_c, 7, 78, 127
9, 116920, Note_on_c, 7, 79, 0
9, 116972, Note_on_c, 7, 50, 0
9, 116973, Note_on_c, 7, 49, 127
9, 116981, Note_on_c, 7, 78, 0
9, 116982, Note_on_c, 7, 76, 127
9, 117041, Note_on_c, 7, 49, 0
9, 117043, Note_on_c, 7, 81, 127
9, 117046, Note_on_c, 7, 76, 0
9, 117100, Note_on_c, 7, 45, 127
9, 117102, Note_on_c, 7, 80, 127
9, 117106, Note_on_c, 7, 81, 0
9, 117163, Note_on_c, 7, 78, 127
9, 117165, Note_on_c, 7, 80, 0
9, 117207, Note_on_c, 7, 45, 0
9, 117220, Note_on_c, 7, 76, 127
9, 117221, Note_on_c, 7, 78, 0
9, 117282, Note_on_c, 7, 74, 127
9, 117283, Note_on_c, 7, 76, 0
9, 117339, Note_on_c, 7, 73, 127
9, 117344, Note_on_c, 7, 74, 0
9, 117397, Note_on_c, 7, 71, 127
9, 117398, Note_on_c, 7, 73, 0
9, 117457, Note_on_c, 7, 69, 127
9, 117463, Note_on_c, 7, 71, 0
9, 117512, Note_on_c, 7, 69, 0
9, 117526, Note_on_c, 7, 73, 127
9, 117586, Note_on_c, 7, 71, 127
9, 117587, Note_on_c, 7, 73, 0
9, 117644, Note_on_c, 7, 69, 127
9, 117645, Note_on_c, 7, 71, 0
9, 117702, Note_on_c, 7, 69, 0
9, 117707, Note_on_c, 7, 74, 127
9, 117763, Note_on_c, 7, 59, 127
9, 117823, Note_on_c, 7, 61, 127
9, 117831, Note_on_c, 7, 59, 0
9, 117882, Note_on_c, 7, 62, 127
9, 117884, Note_on_c, 7, 61, 0
9, 117944, Note_on_c, 7, 64, 127
9, 117945, Note_on_c, 7, 62, 0
9, 118007, Note_on_c, 7, 66, 127
9, 118015, Note_on_c, 7, 64, 0
9, 118068, Note_on_c, 7, 68, 127
9, 118072, Note_on_c, 7, 66, 0
9, 118124, Note_on_c, 7, 68, 0
9, 118126, Note_on_c, 7, 69, 127
9, 118162, Note_on_c, 7, 69, 0
9, 118186, Note_on_c, 7, 68, 127
9, 118247, Note_on_c, 7, 68, 0
9, 118252, Note_on_c, 7, 71, 127
9, 118305, Note_on_c, 7, 69, 127
9, 118306, Note_on_c, 7, 71, 0
9, 118363, Note_on_c, 7, 69, 0
9, 118363, Note_on_c, 7, 68, 127
9, 118426, Note_on_c, 7, 68, 0
9, 118428, Note_on_c, 7, 69, 127
9, 118489, Note_on_c, 7, 67, 127
9, 118548, Note_on_c, 7, 66, 127
9, 118550, Note_on_c, 7, 67, 0
9, 118603, Note_on_c, 7, 64, 127
9, 118606, Note_on_c, 7, 66, 0
9, 118654, Note_on_c, 7, 66, 127
9, 118659, Note_on_c, 7, 64, 0
9, 118663, Note_on_c, 7, 62, 127
9, 118716, Note_on_c, 7, 61, 127
9, 118720, Note_on_c, 7, 62, 0
9, 118774, Note_on_c, 7, 61, 0
9, 118775, Note_on_c, 7, 59, 127
9, 118829, Note_on_c, 7, 57, 127
9, 118833, Note_on_c, 7, 59, 0
9, 118857, Note_on_c, 7, 66, 0
9, 118869, Note_on_c, 7, 69, 0
9, 118886, Note_on_c, 7, 57, 0
9, 118887, Note_on_c, 7, 56, 127
9, 118895, Note_on_c, 7, 71, 127
9, 118897, Note_on_c, 7, 64, 127
9, 118948, Note_on_c, 7, 56, 0
9, 118952, Note_on_c, 7, 59, 127
9, 119009, Note_on_c, 7, 57, 127
9, 119010, Note_on_c, 7, 59, 0
9, 119057, Note_on_c, 7, 56, 127
9, 119058, Note_on_c, 7, 57, 0
9, 119059, Note_on_c, 7, 64, 0
9, 119115, Note_on_c, 7, 56, 0
9, 119136, Note_on_c, 7, 57, 127
9, 119136, Note_on_c, 7, 66, 127
9, 119144, Note_on_c, 7, 71, 0
9, 119146, Note_on_c, 7, 69, 127
9, 119208, Note_on_c, 7, 74, 0
9, 119209, Note_on_c, 7, 71, 127
9, 119269, Note_on_c, 7, 73, 127
9, 119276, Note_on_c, 7, 71, 0
9, 119322, Note_on_c, 7, 73, 0
9, 119327, Note_on_c, 7, 74, 127
9, 119330, Note_on_c, 7, 66, 0
9, 119383, Note_on_c, 7, 74, 0
9, 119387, Note_on_c, 7, 69, 0
9, 119388, Note_on_c, 7, 62, 127
9, 119392, Note_on_c, 7, 68, 127
9, 119459, Note_on_c, 7, 69, 127
9, 119520, Note_on_c, 7, 71, 127
9, 119529, Note_on_c, 7, 69, 0
9, 119576, Note_on_c, 7, 73, 127
9, 119586, Note_on_c, 7, 68, 0
9, 119588, Note_on_c, 7, 71, 0
9, 119639, Note_on_c, 7, 73, 0
9, 119641, Note_on_c, 7, 74, 127
9, 119642, Note_on_c, 7, 71, 127
9, 119701, Note_on_c, 7, 76, 127
9, 119718, Note_on_c, 7, 74, 0
9, 119764, Note_on_c, 7, 78, 127
9, 119765, Note_on_c, 7, 76, 0
9, 119828, Note_on_c, 7, 78, 0
9, 119829, Note_on_c, 7, 80, 127
9, 119887, Note_on_c, 7, 62, 0
9, 119887, Note_on_c, 7, 71, 0
9, 119887, Note_on_c, 7, 80, 0
9, 119916, Note_on_c, 7, 64, 127
9, 119916, Note_on_c, 7, 81, 127
9, 119916, Note_on_c, 7, 73, 127
9, 120607, Note_on_c, 7, 45, 0
9, 120616, Note_on_c, 7, 57, 0
9, 120625, Note_on_c, 7, 81, 0
9, 120626, Note_on_c, 7, 73, 0
9, 120627, Note_on_c, 7, 64, 0
9, 120627, End_track
10, 0, Start_track
10, 0, MIDI_port, 0
10, 0, End_track
11, 0, Start_track
11, 0, Title_t, "O Lamm Gottes unschuldig"
11, 0, MIDI_port, 0
11, 0, End_track
12, 0, Start_track
12, 0, Title_t, "by J S Bach (BWV 656)"
12, 0, MIDI_port, 0
12, 0, End_track
13, 0, Start_track
13, 0, MIDI_port, 0
13, 0, End_track
14, 0, Start_track
14, 0, Title_t, "Sequenced using WinJammer Professional"
14, 0, MIDI_port, 0
14, 0, End_track
15, 0, Start_track
15, 0, Title_t, "on Windows NT by Martin Robinson."
15, 0, MIDI_port, 0
15, 0, End_track
16, 0, Start_track
16, 0, Title_t, "(c) Martin Robinson 1997"
16, 0, MIDI_port, 0
16, 0, End_track
0, 0, End_of_file
