0, 0, Header, 1, 14, 480
1, 0, Start_track
1, 0, Sequencer_specific, 10, 0, 0, 91, 35, 1, 0, 5, 3, 24, 0
1, 0, SMPTE_offset, 96, 0, 3, 0, 0
1, 0, MIDI_port, 0
1, 0, Tempo, 659340
1, 0, Time_signature, 4, 2, 24, 8
1, 0, Key_signature, 1, "major"
1, 138240, Tempo, 750000
1, 138720, Tempo, 857142
1, 139264, Tempo, 1071428
1, 139264, End_track
2, 0, Start_track
2, 0, Title_t, "RH 8"
2, 0, MIDI_port, 0
2, 0, Control_c, 0, 7, 105
2, 0, Control_c, 0, 10, 59
2, 0, Program_c, 0, 74
2, 245, Note_on_c, 0, 67, 96
2, 332, Note_on_c, 0, 67, 0
2, 340, Note_on_c, 0, 69, 78
2, 426, Note_on_c, 0, 69, 0
2, 471, Note_on_c, 0, 71, 91
2, 593, Note_on_c, 0, 72, 89
2, 597, Note_on_c, 0, 71, 0
2, 711, Note_on_c, 0, 74, 97
2, 715, Note_on_c, 0, 72, 0
2, 816, Note_on_c, 0, 72, 80
2, 825, Note_on_c, 0, 74, 0
2, 910, Note_on_c, 0, 72, 0
2, 953, Note_on_c, 0, 71, 90
2, 1077, Note_on_c, 0, 71, 0
2, 1191, Note_on_c, 0, 74, 100
2, 1442, Note_on_c, 0, 79, 99
2, 1448, Note_on_c, 0, 74, 0
2, 1545, Note_on_c, 0, 79, 0
2, 1686, Note_on_c, 0, 78, 99
2, 1774, Note_on_c, 0, 78, 0
2, 1936, Note_on_c, 0, 79, 100
2, 2099, Note_on_c, 0, 79, 0
2, 2178, Note_on_c, 0, 71, 86
2, 2274, Note_on_c, 0, 71, 0
2, 2282, Note_on_c, 0, 72, 85
2, 2367, Note_on_c, 0, 72, 0
2, 2414, Note_on_c, 0, 74, 100
2, 2529, Note_on_c, 0, 76, 75
2, 2530, Note_on_c, 0, 74, 0
2, 2644, Note_on_c, 0, 74, 97
2, 2655, Note_on_c, 0, 76, 0
2, 2746, Note_on_c, 0, 74, 0
2, 2754, Note_on_c, 0, 76, 82
2, 2859, Note_on_c, 0, 76, 0
2, 2878, Note_on_c, 0, 74, 103
2, 3000, Note_on_c, 0, 72, 93
2, 3009, Note_on_c, 0, 74, 0
2, 3111, Note_on_c, 0, 74, 89
2, 3128, Note_on_c, 0, 72, 0
2, 3217, Note_on_c, 0, 74, 0
2, 3221, Note_on_c, 0, 79, 92
2, 3310, Note_on_c, 0, 79, 0
2, 3329, Note_on_c, 0, 78, 90
2, 3442, Note_on_c, 0, 76, 81
2, 3444, Note_on_c, 0, 78, 0
2, 3549, Note_on_c, 0, 76, 0
2, 3559, Note_on_c, 0, 74, 95
2, 3656, Note_on_c, 0, 72, 81
2, 3659, Note_on_c, 0, 74, 0
2, 3765, Note_on_c, 0, 72, 0
2, 3774, Note_on_c, 0, 71, 67
2, 3885, Note_on_c, 0, 71, 0
2, 4045, Note_on_c, 0, 74, 101
2, 4218, Note_on_c, 0, 74, 0
2, 4294, Note_on_c, 0, 79, 96
2, 4493, Note_on_c, 0, 79, 0
2, 4541, Note_on_c, 0, 78, 97
2, 4657, Note_on_c, 0, 78, 0
2, 4789, Note_on_c, 0, 79, 99
2, 4988, Note_on_c, 0, 79, 0
2, 5043, Note_on_c, 0, 83, 95
2, 5255, Note_on_c, 0, 83, 0
2, 5292, Note_on_c, 0, 81, 96
2, 5420, Note_on_c, 0, 81, 0
2, 5525, Note_on_c, 0, 78, 89
2, 5618, Note_on_c, 0, 78, 0
2, 5763, Note_on_c, 0, 79, 99
2, 5882, Note_on_c, 0, 81, 83
2, 5889, Note_on_c, 0, 79, 0
2, 5977, Note_on_c, 0, 81, 0
2, 5983, Note_on_c, 0, 83, 81
2, 6061, Note_on_c, 0, 83, 0
2, 6098, Note_on_c, 0, 79, 80
2, 6183, Note_on_c, 0, 79, 0
2, 6224, Note_on_c, 0, 76, 97
2, 6343, Note_on_c, 0, 79, 85
2, 6361, Note_on_c, 0, 76, 0
2, 6442, Note_on_c, 0, 79, 0
2, 6453, Note_on_c, 0, 78, 91
2, 6556, Note_on_c, 0, 78, 0
2, 6562, Note_on_c, 0, 76, 82
2, 6651, Note_on_c, 0, 76, 0
2, 6706, Note_on_c, 0, 81, 106
2, 6820, Note_on_c, 0, 79, 84
2, 6840, Note_on_c, 0, 81, 0
2, 6934, Note_on_c, 0, 78, 92
2, 6945, Note_on_c, 0, 79, 0
2, 7049, Note_on_c, 0, 79, 93
2, 7057, Note_on_c, 0, 78, 0
2, 7148, Note_on_c, 0, 79, 0
2, 7167, Note_on_c, 0, 81, 92
2, 7281, Note_on_c, 0, 76, 84
2, 7292, Note_on_c, 0, 81, 0
2, 7395, Note_on_c, 0, 78, 96
2, 7397, Note_on_c, 0, 76, 0
2, 7517, Note_on_c, 0, 78, 0
2, 7519, Note_on_c, 0, 74, 96
2, 7597, Note_on_c, 0, 74, 0
2, 7666, Note_on_c, 0, 79, 102
2, 7775, Note_on_c, 0, 79, 0
2, 7781, Note_on_c, 0, 78, 94
2, 7857, Note_on_c, 0, 78, 0
2, 7911, Note_on_c, 0, 79, 104
2, 8267, Note_on_c, 0, 79, 0
2, 8274, Note_on_c, 0, 83, 89
2, 8373, Note_on_c, 0, 83, 0
2, 8375, Note_on_c, 0, 81, 92
2, 8474, Note_on_c, 0, 81, 0
2, 8494, Note_on_c, 0, 79, 93
2, 8586, Note_on_c, 0, 79, 0
2, 8599, Note_on_c, 0, 78, 100
2, 8715, Note_on_c, 0, 76, 88
2, 8717, Note_on_c, 0, 78, 0
2, 8842, Note_on_c, 0, 74, 93
2, 8861, Note_on_c, 0, 76, 0
2, 8919, Note_on_c, 0, 74, 0
2, 8940, Note_on_c, 0, 73, 74
2, 9021, Note_on_c, 0, 73, 0
2, 9061, Note_on_c, 0, 71, 85
2, 9192, Note_on_c, 0, 74, 84
2, 9206, Note_on_c, 0, 71, 0
2, 9302, Note_on_c, 0, 74, 0
2, 9306, Note_on_c, 0, 73, 89
2, 9406, Note_on_c, 0, 73, 0
2, 9422, Note_on_c, 0, 76, 70
2, 9493, Note_on_c, 0, 76, 0
2, 9580, Note_on_c, 0, 74, 100
2, 10695, Note_on_c, 0, 74, 0
2, 10711, Note_on_c, 0, 78, 96
2, 10802, Note_on_c, 0, 78, 0
2, 10809, Note_on_c, 0, 76, 87
2, 10893, Note_on_c, 0, 74, 91
2, 10896, Note_on_c, 0, 76, 0
2, 10977, Note_on_c, 0, 74, 0
2, 11006, Note_on_c, 0, 74, 83
2, 11058, Note_on_c, 0, 74, 0
2, 11061, Note_on_c, 0, 73, 84
2, 11116, Note_on_c, 0, 74, 78
2, 11118, Note_on_c, 0, 73, 0
2, 11158, Note_on_c, 0, 74, 0
2, 11159, Note_on_c, 0, 73, 90
2, 11192, Note_on_c, 0, 74, 90
2, 11205, Note_on_c, 0, 73, 0
2, 11231, Note_on_c, 0, 74, 0
2, 11239, Note_on_c, 0, 73, 96
2, 11345, Note_on_c, 0, 74, 93
2, 11370, Note_on_c, 0, 73, 0
2, 11411, Note_on_c, 0, 74, 0
2, 11483, Note_on_c, 0, 74, 106
2, 11722, Note_on_c, 0, 74, 0
2, 12729, Note_on_c, 0, 62, 96
2, 12828, Note_on_c, 0, 64, 75
2, 12838, Note_on_c, 0, 62, 0
2, 12922, Note_on_c, 0, 64, 0
2, 12951, Note_on_c, 0, 66, 96
2, 13075, Note_on_c, 0, 67, 75
2, 13080, Note_on_c, 0, 66, 0
2, 13192, Note_on_c, 0, 69, 68
2, 13197, Note_on_c, 0, 67, 0
2, 13286, Note_on_c, 0, 67, 64
2, 13288, Note_on_c, 0, 69, 0
2, 13398, Note_on_c, 0, 67, 0
2, 13413, Note_on_c, 0, 66, 95
2, 13487, Note_on_c, 0, 66, 0
2, 13655, Note_on_c, 0, 69, 82
2, 13889, Note_on_c, 0, 74, 101
2, 13895, Note_on_c, 0, 69, 0
2, 14001, Note_on_c, 0, 74, 0
2, 14142, Note_on_c, 0, 73, 98
2, 14237, Note_on_c, 0, 73, 0
2, 14381, Note_on_c, 0, 74, 100
2, 14605, Note_on_c, 0, 74, 0
2, 14633, Note_on_c, 0, 78, 97
2, 14863, Note_on_c, 0, 76, 86
2, 14868, Note_on_c, 0, 78, 0
2, 15005, Note_on_c, 0, 76, 0
2, 15116, Note_on_c, 0, 73, 96
2, 15241, Note_on_c, 0, 73, 0
2, 15364, Note_on_c, 0, 74, 103
2, 15483, Note_on_c, 0, 76, 88
2, 15492, Note_on_c, 0, 74, 0
2, 15605, Note_on_c, 0, 78, 82
2, 15613, Note_on_c, 0, 76, 0
2, 15713, Note_on_c, 0, 78, 0
2, 15719, Note_on_c, 0, 79, 92
2, 15803, Note_on_c, 0, 79, 0
2, 15839, Note_on_c, 0, 81, 86
2, 15960, Note_on_c, 0, 83, 86
2, 15969, Note_on_c, 0, 81, 0
2, 16075, Note_on_c, 0, 81, 90
2, 16078, Note_on_c, 0, 83, 0
2, 16189, Note_on_c, 0, 83, 93
2, 16203, Note_on_c, 0, 81, 0
2, 16308, Note_on_c, 0, 83, 0
2, 16308, Note_on_c, 0, 81, 96
2, 16424, Note_on_c, 0, 79, 82
2, 16428, Note_on_c, 0, 81, 0
2, 16507, Note_on_c, 0, 79, 0
2, 16535, Note_on_c, 0, 81, 52
2, 16540, Note_on_c, 0, 83, 71
2, 16595, Note_on_c, 0, 83, 0
2, 16642, Note_on_c, 0, 83, 93
2, 16651, Note_on_c, 0, 81, 0
2, 16740, Note_on_c, 0, 83, 0
2, 16760, Note_on_c, 0, 73, 96
2, 16857, Note_on_c, 0, 73, 0
2, 16868, Note_on_c, 0, 83, 89
2, 16952, Note_on_c, 0, 83, 0
2, 16994, Note_on_c, 0, 81, 92
2, 17076, Note_on_c, 0, 81, 0
2, 17104, Note_on_c, 0, 79, 91
2, 17150, Note_on_c, 0, 79, 0
2, 17246, Note_on_c, 0, 78, 101
2, 17414, Note_on_c, 0, 78, 0
2, 17506, Note_on_c, 0, 83, 95
2, 17574, Note_on_c, 0, 83, 0
2, 17606, Note_on_c, 0, 81, 89
2, 17664, Note_on_c, 0, 81, 0
2, 17761, Note_on_c, 0, 83, 96
2, 18307, Note_on_c, 0, 83, 0
2, 18464, Note_on_c, 0, 76, 94
2, 18551, Note_on_c, 0, 76, 0
2, 18714, Note_on_c, 0, 81, 95
2, 19547, Note_on_c, 0, 83, 91
2, 19568, Note_on_c, 0, 81, 0
2, 19621, Note_on_c, 0, 83, 0
2, 19680, Note_on_c, 0, 81, 101
2, 19738, Note_on_c, 0, 80, 89
2, 19740, Note_on_c, 0, 81, 0
2, 19770, Note_on_c, 0, 81, 95
2, 19783, Note_on_c, 0, 80, 0
2, 19829, Note_on_c, 0, 81, 0
2, 19830, Note_on_c, 0, 80, 98
2, 19990, Note_on_c, 0, 80, 0
2, 19991, Note_on_c, 0, 81, 78
2, 20043, Note_on_c, 0, 81, 0
2, 20114, Note_on_c, 0, 81, 84
2, 20222, Note_on_c, 0, 76, 82
2, 20228, Note_on_c, 0, 81, 0
2, 20338, Note_on_c, 0, 69, 80
2, 20347, Note_on_c, 0, 76, 0
2, 20471, Note_on_c, 0, 71, 90
2, 20477, Note_on_c, 0, 69, 0
2, 20569, Note_on_c, 0, 73, 94
2, 20573, Note_on_c, 0, 71, 0
2, 20679, Note_on_c, 0, 73, 0
2, 20685, Note_on_c, 0, 74, 98
2, 20806, Note_on_c, 0, 74, 0
2, 20807, Note_on_c, 0, 76, 72
2, 20909, Note_on_c, 0, 76, 0
2, 20919, Note_on_c, 0, 78, 88
2, 21025, Note_on_c, 0, 78, 0
2, 21061, Note_on_c, 0, 79, 98
2, 21269, Note_on_c, 0, 79, 0
2, 21332, Note_on_c, 0, 71, 88
2, 21465, Note_on_c, 0, 71, 0
2, 21586, Note_on_c, 0, 76, 89
2, 21699, Note_on_c, 0, 76, 0
2, 21819, Note_on_c, 0, 79, 90
2, 21938, Note_on_c, 0, 79, 0
2, 22053, Note_on_c, 0, 78, 96
2, 22178, Note_on_c, 0, 78, 0
2, 22179, Note_on_c, 0, 74, 86
2, 22295, Note_on_c, 0, 74, 0
2, 22296, Note_on_c, 0, 71, 72
2, 22403, Note_on_c, 0, 71, 0
2, 22409, Note_on_c, 0, 73, 90
2, 22508, Note_on_c, 0, 73, 0
2, 22530, Note_on_c, 0, 74, 95
2, 22669, Note_on_c, 0, 74, 0
2, 22669, Note_on_c, 0, 76, 75
2, 22769, Note_on_c, 0, 76, 0
2, 22785, Note_on_c, 0, 78, 92
2, 22871, Note_on_c, 0, 78, 0
2, 22899, Note_on_c, 0, 79, 86
2, 22977, Note_on_c, 0, 79, 0
2, 23034, Note_on_c, 0, 81, 100
2, 23160, Note_on_c, 0, 79, 87
2, 23166, Note_on_c, 0, 81, 0
2, 23285, Note_on_c, 0, 78, 89
2, 23295, Note_on_c, 0, 79, 0
2, 23392, Note_on_c, 0, 78, 0
2, 23404, Note_on_c, 0, 76, 84
2, 23519, Note_on_c, 0, 76, 0
2, 23519, Note_on_c, 0, 74, 98
2, 23622, Note_on_c, 0, 74, 0
2, 23627, Note_on_c, 0, 73, 89
2, 23736, Note_on_c, 0, 71, 71
2, 23739, Note_on_c, 0, 73, 0
2, 23824, Note_on_c, 0, 71, 0
2, 23859, Note_on_c, 0, 81, 88
2, 23937, Note_on_c, 0, 81, 0
2, 23979, Note_on_c, 0, 79, 96
2, 24099, Note_on_c, 0, 78, 89
2, 24106, Note_on_c, 0, 79, 0
2, 24219, Note_on_c, 0, 78, 0
2, 24220, Note_on_c, 0, 76, 86
2, 24335, Note_on_c, 0, 74, 88
2, 24340, Note_on_c, 0, 76, 0
2, 24438, Note_on_c, 0, 74, 0
2, 24449, Note_on_c, 0, 73, 93
2, 24555, Note_on_c, 0, 71, 63
2, 24559, Note_on_c, 0, 73, 0
2, 24678, Note_on_c, 0, 69, 82
2, 24683, Note_on_c, 0, 71, 0
2, 24740, Note_on_c, 0, 69, 0
2, 24806, Note_on_c, 0, 79, 88
2, 24876, Note_on_c, 0, 79, 0
2, 24929, Note_on_c, 0, 78, 94
2, 25045, Note_on_c, 0, 76, 83
2, 25048, Note_on_c, 0, 78, 0
2, 25168, Note_on_c, 0, 76, 0
2, 25171, Note_on_c, 0, 74, 86
2, 25293, Note_on_c, 0, 74, 0
2, 25297, Note_on_c, 0, 73, 77
2, 25412, Note_on_c, 0, 73, 0
2, 25413, Note_on_c, 0, 71, 85
2, 25523, Note_on_c, 0, 71, 0
2, 25531, Note_on_c, 0, 69, 72
2, 25643, Note_on_c, 0, 69, 0
2, 25649, Note_on_c, 0, 67, 75
2, 25742, Note_on_c, 0, 67, 0
2, 25755, Note_on_c, 0, 66, 76
2, 25888, Note_on_c, 0, 66, 0
2, 25891, Note_on_c, 0, 64, 81
2, 26021, Note_on_c, 0, 73, 93
2, 26025, Note_on_c, 0, 64, 0
2, 26142, Note_on_c, 0, 73, 0
2, 26144, Note_on_c, 0, 74, 93
2, 26250, Note_on_c, 0, 76, 87
2, 26269, Note_on_c, 0, 74, 0
2, 26342, Note_on_c, 0, 76, 0
2, 26379, Note_on_c, 0, 74, 100
2, 26445, Note_on_c, 0, 74, 0
2, 26447, Note_on_c, 0, 73, 82
2, 26490, Note_on_c, 0, 74, 77
2, 26503, Note_on_c, 0, 73, 0
2, 26548, Note_on_c, 0, 74, 0
2, 26549, Note_on_c, 0, 73, 93
2, 26585, Note_on_c, 0, 74, 89
2, 26594, Note_on_c, 0, 73, 0
2, 26632, Note_on_c, 0, 73, 99
2, 26636, Note_on_c, 0, 74, 0
2, 26741, Note_on_c, 0, 73, 0
2, 26744, Note_on_c, 0, 74, 99
2, 26792, Note_on_c, 0, 74, 0
2, 26856, Note_on_c, 0, 74, 99
2, 26987, Note_on_c, 0, 74, 0
2, 27099, Note_on_c, 0, 69, 79
2, 27345, Note_on_c, 0, 74, 101
2, 27357, Note_on_c, 0, 69, 0
2, 27453, Note_on_c, 0, 74, 0
2, 27573, Note_on_c, 0, 73, 91
2, 27676, Note_on_c, 0, 73, 0
2, 27812, Note_on_c, 0, 74, 100
2, 27929, Note_on_c, 0, 69, 67
2, 27947, Note_on_c, 0, 74, 0
2, 28047, Note_on_c, 0, 62, 71
2, 28050, Note_on_c, 0, 69, 0
2, 28167, Note_on_c, 0, 64, 64
2, 28170, Note_on_c, 0, 62, 0
2, 28289, Note_on_c, 0, 66, 88
2, 28295, Note_on_c, 0, 64, 0
2, 28400, Note_on_c, 0, 66, 0
2, 28401, Note_on_c, 0, 68, 79
2, 28527, Note_on_c, 0, 69, 69
2, 28529, Note_on_c, 0, 68, 0
2, 28640, Note_on_c, 0, 69, 0
2, 28642, Note_on_c, 0, 71, 67
2, 28724, Note_on_c, 0, 71, 0
2, 28770, Note_on_c, 0, 72, 96
2, 28897, Note_on_c, 0, 71, 74
2, 28900, Note_on_c, 0, 72, 0
2, 29026, Note_on_c, 0, 69, 73
2, 29031, Note_on_c, 0, 71, 0
2, 29128, Note_on_c, 0, 69, 0
2, 29155, Note_on_c, 0, 71, 71
2, 29255, Note_on_c, 0, 71, 0
2, 29279, Note_on_c, 0, 72, 94
2, 29394, Note_on_c, 0, 74, 90
2, 29396, Note_on_c, 0, 72, 0
2, 29509, Note_on_c, 0, 76, 86
2, 29522, Note_on_c, 0, 74, 0
2, 29628, Note_on_c, 0, 74, 82
2, 29637, Note_on_c, 0, 76, 0
2, 29746, Note_on_c, 0, 74, 0
2, 29758, Note_on_c, 0, 72, 100
2, 29880, Note_on_c, 0, 72, 0
2, 29986, Note_on_c, 0, 76, 91
2, 30231, Note_on_c, 0, 76, 0
2, 30231, Note_on_c, 0, 81, 97
2, 30333, Note_on_c, 0, 81, 0
2, 30465, Note_on_c, 0, 75, 94
2, 30567, Note_on_c, 0, 75, 0
2, 30711, Note_on_c, 0, 76, 90
2, 30839, Note_on_c, 0, 76, 0
2, 30845, Note_on_c, 0, 71, 77
2, 30948, Note_on_c, 0, 71, 0
2, 30967, Note_on_c, 0, 76, 82
2, 31071, Note_on_c, 0, 76, 0
2, 31076, Note_on_c, 0, 78, 86
2, 31186, Note_on_c, 0, 78, 0
2, 31195, Note_on_c, 0, 79, 93
2, 31309, Note_on_c, 0, 81, 78
2, 31312, Note_on_c, 0, 79, 0
2, 31421, Note_on_c, 0, 81, 0
2, 31429, Note_on_c, 0, 83, 88
2, 31516, Note_on_c, 0, 83, 0
2, 31528, Note_on_c, 0, 81, 84
2, 31657, Note_on_c, 0, 79, 104
2, 31660, Note_on_c, 0, 81, 0
2, 31745, Note_on_c, 0, 79, 0
2, 31893, Note_on_c, 0, 71, 77
2, 32083, Note_on_c, 0, 71, 0
2, 32132, Note_on_c, 0, 76, 91
2, 32288, Note_on_c, 0, 76, 0
2, 32376, Note_on_c, 0, 75, 96
2, 32495, Note_on_c, 0, 75, 0
2, 32616, Note_on_c, 0, 76, 86
2, 32740, Note_on_c, 0, 76, 0
2, 32741, Note_on_c, 0, 78, 89
2, 32865, Note_on_c, 0, 78, 0
2, 32867, Note_on_c, 0, 79, 90
2, 32977, Note_on_c, 0, 81, 73
2, 32980, Note_on_c, 0, 79, 0
2, 33059, Note_on_c, 0, 81, 0
2, 33106, Note_on_c, 0, 83, 93
2, 33220, Note_on_c, 0, 84, 80
2, 33225, Note_on_c, 0, 83, 0
2, 33343, Note_on_c, 0, 83, 95
2, 33352, Note_on_c, 0, 84, 0
2, 33455, Note_on_c, 0, 84, 72
2, 33458, Note_on_c, 0, 83, 0
2, 33586, Note_on_c, 0, 83, 96
2, 33608, Note_on_c, 0, 84, 0
2, 33695, Note_on_c, 0, 83, 0
2, 33705, Note_on_c, 0, 81, 80
2, 33806, Note_on_c, 0, 81, 0
2, 33809, Note_on_c, 0, 83, 93
2, 33908, Note_on_c, 0, 83, 0
2, 33909, Note_on_c, 0, 84, 82
2, 34001, Note_on_c, 0, 84, 0
2, 34035, Note_on_c, 0, 75, 92
2, 34148, Note_on_c, 0, 75, 0
2, 34154, Note_on_c, 0, 84, 88
2, 34243, Note_on_c, 0, 84, 0
2, 34282, Note_on_c, 0, 83, 93
2, 34372, Note_on_c, 0, 83, 0
2, 34405, Note_on_c, 0, 81, 83
2, 34475, Note_on_c, 0, 81, 0
2, 34535, Note_on_c, 0, 79, 96
2, 34654, Note_on_c, 0, 79, 0
2, 34802, Note_on_c, 0, 71, 76
2, 34977, Note_on_c, 0, 71, 0
2, 35043, Note_on_c, 0, 76, 88
2, 35153, Note_on_c, 0, 76, 0
2, 35281, Note_on_c, 0, 75, 99
2, 35378, Note_on_c, 0, 75, 0
2, 35521, Note_on_c, 0, 76, 92
2, 35699, Note_on_c, 0, 76, 0
2, 35767, Note_on_c, 0, 79, 93
2, 35996, Note_on_c, 0, 78, 99
2, 36008, Note_on_c, 0, 79, 0
2, 36134, Note_on_c, 0, 78, 0
2, 36234, Note_on_c, 0, 75, 91
2, 36357, Note_on_c, 0, 75, 0
2, 36468, Note_on_c, 0, 76, 85
2, 36589, Note_on_c, 0, 76, 0
2, 36591, Note_on_c, 0, 71, 71
2, 36675, Note_on_c, 0, 71, 0
2, 36713, Note_on_c, 0, 76, 87
2, 36790, Note_on_c, 0, 76, 0
2, 36830, Note_on_c, 0, 78, 93
2, 36911, Note_on_c, 0, 78, 0
2, 36954, Note_on_c, 0, 79, 95
2, 37081, Note_on_c, 0, 79, 0
2, 37084, Note_on_c, 0, 81, 93
2, 37177, Note_on_c, 0, 81, 0
2, 37179, Note_on_c, 0, 79, 71
2, 37275, Note_on_c, 0, 81, 78
2, 37289, Note_on_c, 0, 79, 0
2, 37324, Note_on_c, 0, 81, 0
2, 37405, Note_on_c, 0, 73, 94
2, 37519, Note_on_c, 0, 74, 85
2, 37533, Note_on_c, 0, 73, 0
2, 37641, Note_on_c, 0, 74, 0
2, 37644, Note_on_c, 0, 73, 95
2, 37695, Note_on_c, 0, 73, 0
2, 37767, Note_on_c, 0, 76, 88
2, 37824, Note_on_c, 0, 76, 0
2, 37896, Note_on_c, 0, 78, 97
2, 38011, Note_on_c, 0, 79, 90
2, 38024, Note_on_c, 0, 78, 0
2, 38134, Note_on_c, 0, 78, 85
2, 38136, Note_on_c, 0, 79, 0
2, 38227, Note_on_c, 0, 79, 82
2, 38237, Note_on_c, 0, 78, 0
2, 38290, Note_on_c, 0, 79, 0
2, 38361, Note_on_c, 0, 71, 88
2, 38488, Note_on_c, 0, 72, 65
2, 38494, Note_on_c, 0, 71, 0
2, 38601, Note_on_c, 0, 72, 0
2, 38608, Note_on_c, 0, 71, 74
2, 38694, Note_on_c, 0, 71, 0
2, 38733, Note_on_c, 0, 75, 82
2, 38821, Note_on_c, 0, 75, 0
2, 38872, Note_on_c, 0, 76, 90
2, 39474, Note_on_c, 0, 79, 88
2, 39477, Note_on_c, 0, 76, 0
2, 39576, Note_on_c, 0, 78, 86
2, 39593, Note_on_c, 0, 79, 0
2, 39679, Note_on_c, 0, 78, 0
2, 39679, Note_on_c, 0, 76, 82
2, 39747, Note_on_c, 0, 76, 0
2, 39792, Note_on_c, 0, 76, 64
2, 39849, Note_on_c, 0, 76, 0
2, 39853, Note_on_c, 0, 75, 82
2, 39888, Note_on_c, 0, 76, 64
2, 39898, Note_on_c, 0, 75, 0
2, 39936, Note_on_c, 0, 76, 0
2, 39938, Note_on_c, 0, 75, 78
2, 39970, Note_on_c, 0, 76, 81
2, 39983, Note_on_c, 0, 75, 0
2, 40021, Note_on_c, 0, 75, 100
2, 40024, Note_on_c, 0, 76, 0
2, 40149, Note_on_c, 0, 76, 90
2, 40170, Note_on_c, 0, 75, 0
2, 40205, Note_on_c, 0, 76, 0
2, 40286, Note_on_c, 0, 76, 99
2, 40384, Note_on_c, 0, 76, 0
2, 40542, Note_on_c, 0, 79, 101
2, 40660, Note_on_c, 0, 79, 0
2, 40661, Note_on_c, 0, 78, 92
2, 40776, Note_on_c, 0, 78, 0
2, 40777, Note_on_c, 0, 76, 82
2, 40898, Note_on_c, 0, 74, 91
2, 40900, Note_on_c, 0, 76, 0
2, 41019, Note_on_c, 0, 73, 78
2, 41023, Note_on_c, 0, 74, 0
2, 41112, Note_on_c, 0, 73, 0
2, 41126, Note_on_c, 0, 71, 68
2, 41249, Note_on_c, 0, 69, 86
2, 41263, Note_on_c, 0, 71, 0
2, 41385, Note_on_c, 0, 69, 0
2, 41488, Note_on_c, 0, 76, 89
2, 41658, Note_on_c, 0, 76, 0
2, 41727, Note_on_c, 0, 73, 99
2, 41803, Note_on_c, 0, 73, 0
2, 41979, Note_on_c, 0, 69, 81
2, 42127, Note_on_c, 0, 69, 0
2, 42476, Note_on_c, 0, 78, 98
2, 42592, Note_on_c, 0, 76, 80
2, 42614, Note_on_c, 0, 78, 0
2, 42710, Note_on_c, 0, 74, 103
2, 42713, Note_on_c, 0, 76, 0
2, 42828, Note_on_c, 0, 73, 91
2, 42844, Note_on_c, 0, 74, 0
2, 42899, Note_on_c, 0, 73, 0
2, 42950, Note_on_c, 0, 71, 72
2, 43030, Note_on_c, 0, 71, 0
2, 43057, Note_on_c, 0, 69, 60
2, 43153, Note_on_c, 0, 69, 0
2, 43180, Note_on_c, 0, 67, 86
2, 43416, Note_on_c, 0, 67, 0
2, 43441, Note_on_c, 0, 74, 100
2, 43668, Note_on_c, 0, 71, 85
2, 43671, Note_on_c, 0, 74, 0
2, 43776, Note_on_c, 0, 71, 0
2, 43915, Note_on_c, 0, 67, 91
2, 44037, Note_on_c, 0, 67, 0
2, 44394, Note_on_c, 0, 76, 91
2, 44511, Note_on_c, 0, 74, 84
2, 44516, Note_on_c, 0, 76, 0
2, 44611, Note_on_c, 0, 73, 89
2, 44635, Note_on_c, 0, 74, 0
2, 44733, Note_on_c, 0, 73, 0
2, 44733, Note_on_c, 0, 71, 78
2, 44842, Note_on_c, 0, 71, 0
2, 44853, Note_on_c, 0, 70, 80
2, 44944, Note_on_c, 0, 70, 0
2, 44959, Note_on_c, 0, 68, 76
2, 45090, Note_on_c, 0, 66, 99
2, 45094, Note_on_c, 0, 68, 0
2, 45240, Note_on_c, 0, 66, 0
2, 45326, Note_on_c, 0, 73, 93
2, 45564, Note_on_c, 0, 73, 0
2, 45567, Note_on_c, 0, 70, 91
2, 45644, Note_on_c, 0, 70, 0
2, 45833, Note_on_c, 0, 78, 96
2, 46196, Note_on_c, 0, 76, 89
2, 46199, Note_on_c, 0, 78, 0
2, 46322, Note_on_c, 0, 74, 93
2, 46329, Note_on_c, 0, 76, 0
2, 46430, Note_on_c, 0, 73, 82
2, 46433, Note_on_c, 0, 74, 0
2, 46555, Note_on_c, 0, 71, 73
2, 46563, Note_on_c, 0, 73, 0
2, 46565, Note_on_c, 0, 72, 49
2, 46583, Note_on_c, 0, 72, 0
2, 46680, Note_on_c, 0, 71, 0
2, 46680, Note_on_c, 0, 69, 80
2, 46739, Note_on_c, 0, 69, 0
2, 46797, Note_on_c, 0, 67, 100
2, 46908, Note_on_c, 0, 78, 89
2, 46916, Note_on_c, 0, 67, 0
2, 47004, Note_on_c, 0, 78, 0
2, 47035, Note_on_c, 0, 76, 94
2, 47150, Note_on_c, 0, 76, 0
2, 47152, Note_on_c, 0, 74, 100
2, 47255, Note_on_c, 0, 74, 0
2, 47263, Note_on_c, 0, 73, 78
2, 47381, Note_on_c, 0, 71, 78
2, 47399, Note_on_c, 0, 73, 0
2, 47454, Note_on_c, 0, 71, 0
2, 47513, Note_on_c, 0, 70, 96
2, 47608, Note_on_c, 0, 70, 0
2, 47615, Note_on_c, 0, 68, 75
2, 47735, Note_on_c, 0, 68, 0
2, 47737, Note_on_c, 0, 66, 92
2, 47781, Note_on_c, 0, 66, 0
2, 47852, Note_on_c, 0, 76, 87
2, 47924, Note_on_c, 0, 76, 0
2, 48019, Note_on_c, 0, 74, 101
2, 48122, Note_on_c, 0, 73, 90
2, 48125, Note_on_c, 0, 74, 0
2, 48220, Note_on_c, 0, 73, 0
2, 48235, Note_on_c, 0, 71, 73
2, 48335, Note_on_c, 0, 69, 59
2, 48337, Note_on_c, 0, 71, 0
2, 48397, Note_on_c, 0, 69, 0
2, 48456, Note_on_c, 0, 67, 82
2, 48575, Note_on_c, 0, 66, 79
2, 48591, Note_on_c, 0, 67, 0
2, 48674, Note_on_c, 0, 66, 0
2, 48691, Note_on_c, 0, 64, 80
2, 48797, Note_on_c, 0, 64, 0
2, 48798, Note_on_c, 0, 62, 86
2, 48926, Note_on_c, 0, 61, 95
2, 48953, Note_on_c, 0, 62, 0
2, 48981, Note_on_c, 0, 61, 0
2, 49064, Note_on_c, 0, 70, 90
2, 49185, Note_on_c, 0, 71, 76
2, 49187, Note_on_c, 0, 70, 0
2, 49282, Note_on_c, 0, 71, 0
2, 49283, Note_on_c, 0, 73, 89
2, 49336, Note_on_c, 0, 73, 0
2, 49412, Note_on_c, 0, 71, 95
2, 49462, Note_on_c, 0, 71, 0
2, 49463, Note_on_c, 0, 70, 77
2, 49506, Note_on_c, 0, 71, 56
2, 49528, Note_on_c, 0, 70, 0
2, 49554, Note_on_c, 0, 71, 0
2, 49560, Note_on_c, 0, 70, 78
2, 49583, Note_on_c, 0, 71, 83
2, 49592, Note_on_c, 0, 70, 0
2, 49634, Note_on_c, 0, 71, 0
2, 49636, Note_on_c, 0, 70, 90
2, 49766, Note_on_c, 0, 71, 73
2, 49779, Note_on_c, 0, 70, 0
2, 49836, Note_on_c, 0, 71, 0
2, 49892, Note_on_c, 0, 71, 78
2, 50002, Note_on_c, 0, 71, 0
2, 50150, Note_on_c, 0, 71, 92
2, 50256, Note_on_c, 0, 71, 0
2, 50259, Note_on_c, 0, 73, 90
2, 50376, Note_on_c, 0, 73, 0
2, 50385, Note_on_c, 0, 74, 91
2, 50497, Note_on_c, 0, 74, 0
2, 50499, Note_on_c, 0, 76, 71
2, 50617, Note_on_c, 0, 78, 85
2, 50625, Note_on_c, 0, 76, 0
2, 50712, Note_on_c, 0, 78, 0
2, 50724, Note_on_c, 0, 76, 64
2, 50846, Note_on_c, 0, 76, 0
2, 50851, Note_on_c, 0, 74, 96
2, 50976, Note_on_c, 0, 74, 0
2, 51082, Note_on_c, 0, 78, 96
2, 51324, Note_on_c, 0, 83, 96
2, 51328, Note_on_c, 0, 78, 0
2, 51448, Note_on_c, 0, 83, 0
2, 51592, Note_on_c, 0, 82, 91
2, 51702, Note_on_c, 0, 82, 0
2, 51827, Note_on_c, 0, 83, 97
2, 51876, Note_on_c, 0, 83, 0
2, 51951, Note_on_c, 0, 71, 57
2, 52043, Note_on_c, 0, 71, 0
2, 52073, Note_on_c, 0, 74, 89
2, 52168, Note_on_c, 0, 74, 0
2, 52187, Note_on_c, 0, 76, 82
2, 52308, Note_on_c, 0, 76, 0
2, 52309, Note_on_c, 0, 78, 98
2, 52431, Note_on_c, 0, 79, 86
2, 52437, Note_on_c, 0, 78, 0
2, 52559, Note_on_c, 0, 78, 68
2, 52561, Note_on_c, 0, 79, 0
2, 52648, Note_on_c, 0, 79, 70
2, 52652, Note_on_c, 0, 78, 0
2, 52774, Note_on_c, 0, 79, 0
2, 52778, Note_on_c, 0, 78, 94
2, 52891, Note_on_c, 0, 76, 81
2, 52894, Note_on_c, 0, 78, 0
2, 53011, Note_on_c, 0, 78, 92
2, 53020, Note_on_c, 0, 76, 0
2, 53128, Note_on_c, 0, 83, 86
2, 53131, Note_on_c, 0, 78, 0
2, 53224, Note_on_c, 0, 83, 0
2, 53249, Note_on_c, 0, 82, 96
2, 53367, Note_on_c, 0, 80, 86
2, 53374, Note_on_c, 0, 82, 0
2, 53489, Note_on_c, 0, 78, 89
2, 53492, Note_on_c, 0, 80, 0
2, 53584, Note_on_c, 0, 76, 84
2, 53587, Note_on_c, 0, 78, 0
2, 53679, Note_on_c, 0, 76, 0
2, 53706, Note_on_c, 0, 74, 93
2, 53822, Note_on_c, 0, 74, 0
2, 53983, Note_on_c, 0, 66, 89
2, 54230, Note_on_c, 0, 71, 71
2, 54243, Note_on_c, 0, 66, 0
2, 54361, Note_on_c, 0, 71, 0
2, 54486, Note_on_c, 0, 70, 85
2, 54621, Note_on_c, 0, 70, 0
2, 54739, Note_on_c, 0, 71, 71
2, 54977, Note_on_c, 0, 74, 93
2, 54985, Note_on_c, 0, 71, 0
2, 55209, Note_on_c, 0, 73, 89
2, 55229, Note_on_c, 0, 74, 0
2, 55433, Note_on_c, 0, 73, 0
2, 55441, Note_on_c, 0, 70, 85
2, 55610, Note_on_c, 0, 70, 0
2, 55680, Note_on_c, 0, 71, 87
2, 55810, Note_on_c, 0, 74, 86
2, 55823, Note_on_c, 0, 71, 0
2, 55921, Note_on_c, 0, 74, 0
2, 55930, Note_on_c, 0, 73, 89
2, 56043, Note_on_c, 0, 73, 0
2, 56047, Note_on_c, 0, 71, 76
2, 56163, Note_on_c, 0, 71, 0
2, 56175, Note_on_c, 0, 78, 95
2, 56694, Note_on_c, 0, 78, 0
2, 56767, Note_on_c, 0, 74, 93
2, 56869, Note_on_c, 0, 74, 0
2, 56882, Note_on_c, 0, 73, 85
2, 56982, Note_on_c, 0, 73, 0
2, 56988, Note_on_c, 0, 71, 60
2, 57079, Note_on_c, 0, 71, 0
2, 57114, Note_on_c, 0, 76, 92
2, 57618, Note_on_c, 0, 76, 0
2, 57727, Note_on_c, 0, 69, 79
2, 57827, Note_on_c, 0, 69, 0
2, 57839, Note_on_c, 0, 71, 73
2, 57934, Note_on_c, 0, 71, 0
2, 57948, Note_on_c, 0, 73, 73
2, 58018, Note_on_c, 0, 73, 0
2, 58077, Note_on_c, 0, 74, 100
2, 58586, Note_on_c, 0, 74, 0
2, 58665, Note_on_c, 0, 67, 82
2, 58769, Note_on_c, 0, 67, 0
2, 58775, Note_on_c, 0, 66, 83
2, 58874, Note_on_c, 0, 66, 0
2, 58877, Note_on_c, 0, 64, 66
2, 58969, Note_on_c, 0, 64, 0
2, 59010, Note_on_c, 0, 73, 94
2, 59546, Note_on_c, 0, 73, 0
2, 59655, Note_on_c, 0, 76, 95
2, 59769, Note_on_c, 0, 74, 94
2, 59772, Note_on_c, 0, 76, 0
2, 59881, Note_on_c, 0, 73, 88
2, 59895, Note_on_c, 0, 74, 0
2, 59995, Note_on_c, 0, 73, 0
2, 59998, Note_on_c, 0, 71, 83
2, 60097, Note_on_c, 0, 69, 66
2, 60104, Note_on_c, 0, 71, 0
2, 60201, Note_on_c, 0, 69, 0
2, 60218, Note_on_c, 0, 67, 66
2, 60301, Note_on_c, 0, 67, 0
2, 60321, Note_on_c, 0, 66, 79
2, 60409, Note_on_c, 0, 66, 0
2, 60444, Note_on_c, 0, 64, 91
2, 60683, Note_on_c, 0, 64, 0
2, 60964, Note_on_c, 0, 76, 97
2, 61511, Note_on_c, 0, 76, 0
2, 61572, Note_on_c, 0, 79, 93
2, 61670, Note_on_c, 0, 79, 0
2, 61675, Note_on_c, 0, 78, 89
2, 61794, Note_on_c, 0, 76, 65
2, 61796, Note_on_c, 0, 78, 0
2, 61906, Note_on_c, 0, 74, 100
2, 61910, Note_on_c, 0, 76, 0
2, 62022, Note_on_c, 0, 73, 86
2, 62024, Note_on_c, 0, 74, 0
2, 62130, Note_on_c, 0, 73, 0
2, 62131, Note_on_c, 0, 71, 76
2, 62223, Note_on_c, 0, 71, 0
2, 62233, Note_on_c, 0, 69, 74
2, 62359, Note_on_c, 0, 69, 0
2, 62359, Note_on_c, 0, 67, 92
2, 62565, Note_on_c, 0, 67, 0
2, 62873, Note_on_c, 0, 79, 97
2, 63473, Note_on_c, 0, 79, 0
2, 63475, Note_on_c, 0, 83, 92
2, 63575, Note_on_c, 0, 83, 0
2, 63579, Note_on_c, 0, 81, 85
2, 63686, Note_on_c, 0, 79, 84
2, 63688, Note_on_c, 0, 81, 0
2, 63777, Note_on_c, 0, 79, 0
2, 63798, Note_on_c, 0, 78, 92
2, 63892, Note_on_c, 0, 76, 89
2, 63896, Note_on_c, 0, 78, 0
2, 64020, Note_on_c, 0, 74, 93
2, 64025, Note_on_c, 0, 76, 0
2, 64105, Note_on_c, 0, 74, 0
2, 64118, Note_on_c, 0, 73, 87
2, 64217, Note_on_c, 0, 73, 0
2, 64259, Note_on_c, 0, 71, 94
2, 64484, Note_on_c, 0, 71, 0
2, 64791, Note_on_c, 0, 83, 97
2, 65339, Note_on_c, 0, 83, 0
2, 65396, Note_on_c, 0, 76, 95
2, 65490, Note_on_c, 0, 76, 0
2, 65502, Note_on_c, 0, 78, 92
2, 65596, Note_on_c, 0, 78, 0
2, 65610, Note_on_c, 0, 79, 86
2, 65686, Note_on_c, 0, 79, 0
2, 65735, Note_on_c, 0, 81, 97
2, 65850, Note_on_c, 0, 83, 91
2, 65859, Note_on_c, 0, 81, 0
2, 65948, Note_on_c, 0, 83, 0
2, 65966, Note_on_c, 0, 81, 90
2, 66051, Note_on_c, 0, 81, 0
2, 66078, Note_on_c, 0, 79, 86
2, 66139, Note_on_c, 0, 79, 0
2, 66205, Note_on_c, 0, 78, 96
2, 67222, Note_on_c, 0, 78, 0
2, 67320, Note_on_c, 0, 74, 100
2, 67429, Note_on_c, 0, 74, 0
2, 67432, Note_on_c, 0, 76, 86
2, 67516, Note_on_c, 0, 76, 0
2, 67536, Note_on_c, 0, 78, 91
2, 67630, Note_on_c, 0, 78, 0
2, 67650, Note_on_c, 0, 79, 94
2, 67756, Note_on_c, 0, 78, 84
2, 67764, Note_on_c, 0, 79, 0
2, 67872, Note_on_c, 0, 78, 0
2, 67877, Note_on_c, 0, 76, 83
2, 67986, Note_on_c, 0, 74, 93
2, 67988, Note_on_c, 0, 76, 0
2, 68091, Note_on_c, 0, 74, 0
2, 68109, Note_on_c, 0, 73, 90
2, 68641, Note_on_c, 0, 73, 0
2, 68861, Note_on_c, 0, 73, 101
2, 68966, Note_on_c, 0, 73, 0
2, 69118, Note_on_c, 0, 74, 104
2, 69230, Note_on_c, 0, 73, 89
2, 69245, Note_on_c, 0, 74, 0
2, 69336, Note_on_c, 0, 73, 0
2, 69347, Note_on_c, 0, 71, 67
2, 69459, Note_on_c, 0, 69, 67
2, 69462, Note_on_c, 0, 71, 0
2, 69575, Note_on_c, 0, 67, 87
2, 69577, Note_on_c, 0, 69, 0
2, 69697, Note_on_c, 0, 71, 75
2, 69708, Note_on_c, 0, 67, 0
2, 69803, Note_on_c, 0, 71, 0
2, 69804, Note_on_c, 0, 69, 64
2, 69905, Note_on_c, 0, 69, 0
2, 69909, Note_on_c, 0, 72, 83
2, 70004, Note_on_c, 0, 72, 0
2, 70032, Note_on_c, 0, 71, 81
2, 70148, Note_on_c, 0, 69, 68
2, 70151, Note_on_c, 0, 71, 0
2, 70264, Note_on_c, 0, 67, 76
2, 70266, Note_on_c, 0, 69, 0
2, 70371, Note_on_c, 0, 67, 0
2, 70374, Note_on_c, 0, 66, 78
2, 70490, Note_on_c, 0, 66, 0
2, 70493, Note_on_c, 0, 64, 78
2, 70617, Note_on_c, 0, 67, 71
2, 70626, Note_on_c, 0, 64, 0
2, 70731, Note_on_c, 0, 67, 0
2, 70732, Note_on_c, 0, 66, 79
2, 70839, Note_on_c, 0, 69, 70
2, 70845, Note_on_c, 0, 66, 0
2, 70886, Note_on_c, 0, 69, 0
2, 70967, Note_on_c, 0, 67, 86
2, 71081, Note_on_c, 0, 71, 60
2, 71095, Note_on_c, 0, 67, 0
2, 71193, Note_on_c, 0, 69, 64
2, 71211, Note_on_c, 0, 71, 0
2, 71321, Note_on_c, 0, 72, 83
2, 71328, Note_on_c, 0, 69, 0
2, 71441, Note_on_c, 0, 72, 0
2, 71442, Note_on_c, 0, 71, 78
2, 71557, Note_on_c, 0, 74, 91
2, 71561, Note_on_c, 0, 71, 0
2, 71675, Note_on_c, 0, 73, 89
2, 71683, Note_on_c, 0, 74, 0
2, 71780, Note_on_c, 0, 73, 0
2, 71787, Note_on_c, 0, 76, 87
2, 71827, Note_on_c, 0, 76, 0
2, 71944, Note_on_c, 0, 66, 98
2, 72341, Note_on_c, 0, 66, 0
2, 72347, Note_on_c, 0, 67, 74
2, 72421, Note_on_c, 0, 67, 0
2, 72465, Note_on_c, 0, 66, 93
2, 72522, Note_on_c, 0, 66, 0
2, 72523, Note_on_c, 0, 64, 73
2, 72571, Note_on_c, 0, 66, 82
2, 72582, Note_on_c, 0, 64, 0
2, 72605, Note_on_c, 0, 66, 0
2, 72611, Note_on_c, 0, 64, 60
2, 72640, Note_on_c, 0, 66, 90
2, 72679, Note_on_c, 0, 66, 0
2, 72800, Note_on_c, 0, 62, 93
2, 72803, Note_on_c, 0, 64, 0
2, 72865, Note_on_c, 0, 62, 0
2, 72926, Note_on_c, 0, 62, 86
2, 73129, Note_on_c, 0, 62, 0
2, 73195, Note_on_c, 0, 69, 75
2, 73434, Note_on_c, 0, 74, 104
2, 73437, Note_on_c, 0, 69, 0
2, 73623, Note_on_c, 0, 74, 0
2, 73682, Note_on_c, 0, 73, 99
2, 73831, Note_on_c, 0, 73, 0
2, 73915, Note_on_c, 0, 74, 94
2, 74021, Note_on_c, 0, 74, 0
2, 74031, Note_on_c, 0, 73, 95
2, 74149, Note_on_c, 0, 74, 94
2, 74153, Note_on_c, 0, 73, 0
2, 74270, Note_on_c, 0, 76, 81
2, 74278, Note_on_c, 0, 74, 0
2, 74395, Note_on_c, 0, 78, 95
2, 74423, Note_on_c, 0, 76, 0
2, 74518, Note_on_c, 0, 79, 88
2, 74521, Note_on_c, 0, 78, 0
2, 74632, Note_on_c, 0, 81, 84
2, 74645, Note_on_c, 0, 79, 0
2, 74734, Note_on_c, 0, 81, 0
2, 74741, Note_on_c, 0, 79, 83
2, 74852, Note_on_c, 0, 78, 100
2, 74876, Note_on_c, 0, 79, 0
2, 74903, Note_on_c, 0, 78, 0
2, 75112, Note_on_c, 0, 66, 92
2, 75225, Note_on_c, 0, 67, 78
2, 75231, Note_on_c, 0, 66, 0
2, 75332, Note_on_c, 0, 69, 64
2, 75339, Note_on_c, 0, 67, 0
2, 75456, Note_on_c, 0, 69, 0
2, 75456, Note_on_c, 0, 71, 71
2, 75575, Note_on_c, 0, 71, 0
2, 75582, Note_on_c, 0, 72, 79
2, 75683, Note_on_c, 0, 72, 0
2, 75694, Note_on_c, 0, 74, 93
2, 75806, Note_on_c, 0, 74, 0
2, 75808, Note_on_c, 0, 76, 86
2, 75928, Note_on_c, 0, 79, 85
2, 75933, Note_on_c, 0, 76, 0
2, 76044, Note_on_c, 0, 78, 89
2, 76047, Note_on_c, 0, 79, 0
2, 76159, Note_on_c, 0, 79, 86
2, 76162, Note_on_c, 0, 78, 0
2, 76291, Note_on_c, 0, 81, 98
2, 76301, Note_on_c, 0, 79, 0
2, 76415, Note_on_c, 0, 79, 82
2, 76417, Note_on_c, 0, 81, 0
2, 76534, Note_on_c, 0, 78, 92
2, 76537, Note_on_c, 0, 79, 0
2, 76625, Note_on_c, 0, 78, 0
2, 76638, Note_on_c, 0, 76, 80
2, 76770, Note_on_c, 0, 74, 106
2, 76781, Note_on_c, 0, 76, 0
2, 76860, Note_on_c, 0, 74, 0
2, 77035, Note_on_c, 0, 67, 84
2, 77145, Note_on_c, 0, 69, 72
2, 77155, Note_on_c, 0, 67, 0
2, 77275, Note_on_c, 0, 71, 78
2, 77278, Note_on_c, 0, 69, 0
2, 77389, Note_on_c, 0, 72, 84
2, 77392, Note_on_c, 0, 71, 0
2, 77515, Note_on_c, 0, 74, 92
2, 77521, Note_on_c, 0, 72, 0
2, 77618, Note_on_c, 0, 72, 75
2, 77628, Note_on_c, 0, 74, 0
2, 77731, Note_on_c, 0, 72, 0
2, 77742, Note_on_c, 0, 71, 85
2, 77865, Note_on_c, 0, 71, 0
2, 77984, Note_on_c, 0, 74, 96
2, 78227, Note_on_c, 0, 79, 99
2, 78237, Note_on_c, 0, 74, 0
2, 78389, Note_on_c, 0, 79, 0
2, 78480, Note_on_c, 0, 78, 99
2, 78572, Note_on_c, 0, 78, 0
2, 78727, Note_on_c, 0, 79, 94
2, 78816, Note_on_c, 0, 79, 0
2, 78975, Note_on_c, 0, 67, 84
2, 79081, Note_on_c, 0, 67, 0
2, 79087, Note_on_c, 0, 69, 66
2, 79193, Note_on_c, 0, 69, 0
2, 79212, Note_on_c, 0, 71, 73
2, 79317, Note_on_c, 0, 71, 0
2, 79323, Note_on_c, 0, 72, 88
2, 79447, Note_on_c, 0, 74, 99
2, 79449, Note_on_c, 0, 72, 0
2, 79528, Note_on_c, 0, 74, 0
2, 79555, Note_on_c, 0, 76, 75
2, 79610, Note_on_c, 0, 76, 0
2, 79687, Note_on_c, 0, 77, 103
2, 79794, Note_on_c, 0, 77, 0
2, 79799, Note_on_c, 0, 76, 83
2, 79919, Note_on_c, 0, 76, 0
2, 79921, Note_on_c, 0, 74, 93
2, 80015, Note_on_c, 0, 74, 0
2, 80028, Note_on_c, 0, 76, 82
2, 80118, Note_on_c, 0, 76, 0
2, 80149, Note_on_c, 0, 77, 100
2, 80264, Note_on_c, 0, 81, 90
2, 80266, Note_on_c, 0, 77, 0
2, 80378, Note_on_c, 0, 79, 86
2, 80399, Note_on_c, 0, 81, 0
2, 80447, Note_on_c, 0, 79, 0
2, 80501, Note_on_c, 0, 77, 70
2, 80590, Note_on_c, 0, 77, 0
2, 80618, Note_on_c, 0, 76, 94
2, 80740, Note_on_c, 0, 74, 92
2, 80745, Note_on_c, 0, 76, 0
2, 80844, Note_on_c, 0, 74, 0
2, 80859, Note_on_c, 0, 76, 84
2, 80964, Note_on_c, 0, 76, 0
2, 80980, Note_on_c, 0, 77, 88
2, 81040, Note_on_c, 0, 77, 0
2, 81102, Note_on_c, 0, 79, 94
2, 81214, Note_on_c, 0, 81, 86
2, 81223, Note_on_c, 0, 79, 0
2, 81330, Note_on_c, 0, 81, 0
2, 81330, Note_on_c, 0, 79, 73
2, 81430, Note_on_c, 0, 81, 76
2, 81433, Note_on_c, 0, 79, 0
2, 81532, Note_on_c, 0, 81, 0
2, 81545, Note_on_c, 0, 79, 92
2, 81678, Note_on_c, 0, 77, 89
2, 81681, Note_on_c, 0, 79, 0
2, 81795, Note_on_c, 0, 77, 0
2, 81797, Note_on_c, 0, 79, 91
2, 81912, Note_on_c, 0, 84, 86
2, 81914, Note_on_c, 0, 79, 0
2, 82024, Note_on_c, 0, 84, 0
2, 82031, Note_on_c, 0, 83, 90
2, 82150, Note_on_c, 0, 81, 87
2, 82160, Note_on_c, 0, 83, 0
2, 82272, Note_on_c, 0, 81, 0
2, 82274, Note_on_c, 0, 79, 89
2, 82374, Note_on_c, 0, 79, 0
2, 82375, Note_on_c, 0, 77, 87
2, 82496, Note_on_c, 0, 77, 0
2, 82508, Note_on_c, 0, 76, 89
2, 82620, Note_on_c, 0, 76, 0
2, 82773, Note_on_c, 0, 67, 82
2, 82997, Note_on_c, 0, 67, 0
2, 83020, Note_on_c, 0, 72, 96
2, 83133, Note_on_c, 0, 72, 0
2, 83276, Note_on_c, 0, 71, 77
2, 83405, Note_on_c, 0, 71, 0
2, 83525, Note_on_c, 0, 72, 93
2, 83780, Note_on_c, 0, 72, 0
2, 83784, Note_on_c, 0, 76, 80
2, 84019, Note_on_c, 0, 74, 89
2, 84038, Note_on_c, 0, 76, 0
2, 84114, Note_on_c, 0, 74, 0
2, 84236, Note_on_c, 0, 71, 67
2, 84422, Note_on_c, 0, 71, 0
2, 84497, Note_on_c, 0, 72, 96
2, 84614, Note_on_c, 0, 74, 85
2, 84621, Note_on_c, 0, 72, 0
2, 84724, Note_on_c, 0, 74, 0
2, 84736, Note_on_c, 0, 76, 78
2, 84841, Note_on_c, 0, 76, 0
2, 84845, Note_on_c, 0, 72, 81
2, 84954, Note_on_c, 0, 72, 0
2, 84955, Note_on_c, 0, 69, 75
2, 85073, Note_on_c, 0, 72, 78
2, 85083, Note_on_c, 0, 69, 0
2, 85183, Note_on_c, 0, 72, 0
2, 85189, Note_on_c, 0, 71, 75
2, 85295, Note_on_c, 0, 69, 74
2, 85301, Note_on_c, 0, 71, 0
2, 85420, Note_on_c, 0, 69, 0
2, 85423, Note_on_c, 0, 74, 95
2, 85536, Note_on_c, 0, 72, 72
2, 85540, Note_on_c, 0, 74, 0
2, 85652, Note_on_c, 0, 71, 68
2, 85655, Note_on_c, 0, 72, 0
2, 85762, Note_on_c, 0, 72, 76
2, 85764, Note_on_c, 0, 71, 0
2, 85897, Note_on_c, 0, 74, 96
2, 85906, Note_on_c, 0, 72, 0
2, 86010, Note_on_c, 0, 74, 0
2, 86016, Note_on_c, 0, 69, 60
2, 86141, Note_on_c, 0, 71, 66
2, 86145, Note_on_c, 0, 69, 0
2, 86253, Note_on_c, 0, 71, 0
2, 86259, Note_on_c, 0, 67, 80
2, 86357, Note_on_c, 0, 67, 0
2, 86381, Note_on_c, 0, 72, 87
2, 86502, Note_on_c, 0, 71, 71
2, 86505, Note_on_c, 0, 72, 0
2, 86574, Note_on_c, 0, 71, 0
2, 86641, Note_on_c, 0, 72, 92
2, 86917, Note_on_c, 0, 72, 0
2, 86999, Note_on_c, 0, 76, 88
2, 87112, Note_on_c, 0, 74, 92
2, 87114, Note_on_c, 0, 76, 0
2, 87215, Note_on_c, 0, 74, 0
2, 87225, Note_on_c, 0, 72, 81
2, 87332, Note_on_c, 0, 72, 0
2, 87349, Note_on_c, 0, 71, 83
2, 87360, Control_c, 0, 7, 114
2, 87360, Control_c, 0, 10, 68
2, 87530, Note_on_c, 0, 71, 0
2, 87586, Note_on_c, 0, 76, 87
2, 87691, Note_on_c, 0, 76, 0
2, 87696, Note_on_c, 0, 75, 90
2, 87757, Note_on_c, 0, 75, 0
2, 87840, Note_on_c, 0, 76, 90
2, 88421, Note_on_c, 0, 76, 0
2, 88552, Note_on_c, 0, 69, 81
2, 88665, Note_on_c, 0, 69, 0
2, 88797, Note_on_c, 0, 74, 100
2, 89602, Note_on_c, 0, 76, 84
2, 89615, Note_on_c, 0, 74, 0
2, 89671, Note_on_c, 0, 76, 0
2, 89747, Note_on_c, 0, 74, 106
2, 89810, Note_on_c, 0, 74, 0
2, 89812, Note_on_c, 0, 73, 85
2, 89858, Note_on_c, 0, 74, 85
2, 89863, Note_on_c, 0, 73, 0
2, 89918, Note_on_c, 0, 73, 96
2, 89921, Note_on_c, 0, 74, 0
2, 90058, Note_on_c, 0, 74, 82
2, 90083, Note_on_c, 0, 73, 0
2, 90115, Note_on_c, 0, 74, 0
2, 90177, Note_on_c, 0, 74, 97
2, 90292, Note_on_c, 0, 74, 0
2, 90445, Note_on_c, 0, 62, 89
2, 90563, Note_on_c, 0, 64, 80
2, 90568, Note_on_c, 0, 62, 0
2, 90680, Note_on_c, 0, 66, 82
2, 90699, Note_on_c, 0, 64, 0
2, 90798, Note_on_c, 0, 66, 0
2, 90806, Note_on_c, 0, 67, 76
2, 90923, Note_on_c, 0, 69, 61
2, 90930, Note_on_c, 0, 67, 0
2, 91023, Note_on_c, 0, 69, 0
2, 91031, Note_on_c, 0, 71, 72
2, 91114, Note_on_c, 0, 71, 0
2, 91160, Note_on_c, 0, 72, 96
2, 91349, Note_on_c, 0, 72, 0
2, 91418, Note_on_c, 0, 64, 68
2, 91624, Note_on_c, 0, 64, 0
2, 91642, Note_on_c, 0, 69, 73
2, 91777, Note_on_c, 0, 69, 0
2, 91908, Note_on_c, 0, 72, 89
2, 92024, Note_on_c, 0, 72, 0
2, 92157, Note_on_c, 0, 71, 84
2, 92257, Note_on_c, 0, 71, 0
2, 92271, Note_on_c, 0, 67, 75
2, 92390, Note_on_c, 0, 67, 0
2, 92395, Note_on_c, 0, 64, 72
2, 92506, Note_on_c, 0, 64, 0
2, 92508, Note_on_c, 0, 66, 89
2, 92623, Note_on_c, 0, 67, 84
2, 92626, Note_on_c, 0, 66, 0
2, 92745, Note_on_c, 0, 69, 53
2, 92752, Note_on_c, 0, 67, 0
2, 92857, Note_on_c, 0, 69, 0
2, 92867, Note_on_c, 0, 71, 82
2, 92974, Note_on_c, 0, 72, 95
2, 92981, Note_on_c, 0, 71, 0
2, 93061, Note_on_c, 0, 72, 0
2, 93117, Note_on_c, 0, 74, 101
2, 93233, Note_on_c, 0, 72, 86
2, 93240, Note_on_c, 0, 74, 0
2, 93356, Note_on_c, 0, 71, 81
2, 93378, Note_on_c, 0, 72, 0
2, 93472, Note_on_c, 0, 71, 0
2, 93473, Note_on_c, 0, 69, 74
2, 93581, Note_on_c, 0, 69, 0
2, 93584, Note_on_c, 0, 67, 82
2, 93701, Note_on_c, 0, 67, 0
2, 93704, Note_on_c, 0, 66, 83
2, 93821, Note_on_c, 0, 64, 75
2, 93825, Note_on_c, 0, 66, 0
2, 93911, Note_on_c, 0, 64, 0
2, 93944, Note_on_c, 0, 74, 80
2, 94009, Note_on_c, 0, 74, 0
2, 94057, Note_on_c, 0, 72, 91
2, 94177, Note_on_c, 0, 71, 72
2, 94179, Note_on_c, 0, 72, 0
2, 94299, Note_on_c, 0, 69, 76
2, 94307, Note_on_c, 0, 71, 0
2, 94418, Note_on_c, 0, 67, 75
2, 94421, Note_on_c, 0, 69, 0
2, 94532, Note_on_c, 0, 67, 0
2, 94540, Note_on_c, 0, 66, 90
2, 94656, Note_on_c, 0, 64, 68
2, 94660, Note_on_c, 0, 66, 0
2, 94778, Note_on_c, 0, 62, 84
2, 94786, Note_on_c, 0, 64, 0
2, 94842, Note_on_c, 0, 62, 0
2, 94899, Note_on_c, 0, 72, 93
2, 94994, Note_on_c, 0, 72, 0
2, 95022, Note_on_c, 0, 71, 86
2, 95138, Note_on_c, 0, 69, 71
2, 95142, Note_on_c, 0, 71, 0
2, 95255, Note_on_c, 0, 67, 72
2, 95260, Note_on_c, 0, 69, 0
2, 95366, Note_on_c, 0, 66, 77
2, 95368, Note_on_c, 0, 67, 0
2, 95482, Note_on_c, 0, 66, 0
2, 95491, Note_on_c, 0, 64, 78
2, 95596, Note_on_c, 0, 62, 84
2, 95603, Note_on_c, 0, 64, 0
2, 95701, Note_on_c, 0, 62, 0
2, 95728, Note_on_c, 0, 60, 83
2, 96133, Note_on_c, 0, 60, 0
2, 96135, Note_on_c, 0, 62, 79
2, 96204, Note_on_c, 0, 60, 77
2, 96217, Note_on_c, 0, 62, 0
2, 96266, Note_on_c, 0, 59, 93
2, 96269, Note_on_c, 0, 60, 0
2, 96370, Note_on_c, 0, 60, 78
2, 96403, Note_on_c, 0, 59, 0
2, 96423, Note_on_c, 0, 62, 82
2, 96433, Note_on_c, 0, 60, 0
2, 96465, Note_on_c, 0, 62, 0
2, 96514, Note_on_c, 0, 59, 104
2, 96571, Note_on_c, 0, 59, 0
2, 96572, Note_on_c, 0, 57, 68
2, 96618, Note_on_c, 0, 59, 67
2, 96652, Note_on_c, 0, 59, 0
2, 96685, Note_on_c, 0, 59, 89
2, 96735, Note_on_c, 0, 59, 0
2, 96861, Note_on_c, 0, 55, 100
2, 96869, Note_on_c, 0, 57, 0
2, 96927, Note_on_c, 0, 55, 0
2, 96997, Note_on_c, 0, 55, 98
2, 97205, Note_on_c, 0, 55, 0
2, 98158, Note_on_c, 0, 67, 95
2, 98259, Note_on_c, 0, 69, 67
2, 98273, Note_on_c, 0, 67, 0
2, 98362, Note_on_c, 0, 69, 0
2, 98384, Note_on_c, 0, 71, 89
2, 98493, Note_on_c, 0, 71, 0
2, 98493, Note_on_c, 0, 72, 86
2, 98620, Note_on_c, 0, 74, 97
2, 98623, Note_on_c, 0, 72, 0
2, 98717, Note_on_c, 0, 72, 84
2, 98721, Note_on_c, 0, 74, 0
2, 98837, Note_on_c, 0, 72, 0
2, 98849, Note_on_c, 0, 71, 98
2, 98964, Note_on_c, 0, 71, 0
2, 99093, Note_on_c, 0, 74, 100
2, 99328, Note_on_c, 0, 79, 99
2, 99342, Note_on_c, 0, 74, 0
2, 99465, Note_on_c, 0, 79, 0
2, 99578, Note_on_c, 0, 78, 97
2, 99680, Note_on_c, 0, 78, 0
2, 99809, Note_on_c, 0, 79, 99
2, 99929, Note_on_c, 0, 79, 0
2, 99930, Note_on_c, 0, 74, 96
2, 100045, Note_on_c, 0, 67, 73
2, 100050, Note_on_c, 0, 74, 0
2, 100161, Note_on_c, 0, 69, 71
2, 100177, Note_on_c, 0, 67, 0
2, 100277, Note_on_c, 0, 71, 76
2, 100280, Note_on_c, 0, 69, 0
2, 100392, Note_on_c, 0, 71, 0
2, 100392, Note_on_c, 0, 72, 91
2, 100506, Note_on_c, 0, 72, 0
2, 100515, Note_on_c, 0, 74, 89
2, 100624, Note_on_c, 0, 76, 86
2, 100633, Note_on_c, 0, 74, 0
2, 100715, Note_on_c, 0, 76, 0
2, 100762, Note_on_c, 0, 74, 102
2, 100868, Note_on_c, 0, 74, 0
2, 100876, Note_on_c, 0, 76, 74
2, 101001, Note_on_c, 0, 74, 96
2, 101006, Note_on_c, 0, 76, 0
2, 101114, Note_on_c, 0, 74, 0
2, 101117, Note_on_c, 0, 76, 82
2, 101241, Note_on_c, 0, 76, 0
2, 101243, Note_on_c, 0, 74, 100
2, 101364, Note_on_c, 0, 72, 92
2, 101371, Note_on_c, 0, 74, 0
2, 101483, Note_on_c, 0, 72, 0
2, 101483, Note_on_c, 0, 74, 94
2, 101596, Note_on_c, 0, 76, 87
2, 101606, Note_on_c, 0, 74, 0
2, 101713, Note_on_c, 0, 76, 0
2, 101723, Note_on_c, 0, 74, 105
2, 101843, Note_on_c, 0, 76, 89
2, 101853, Note_on_c, 0, 74, 0
2, 101965, Note_on_c, 0, 78, 80
2, 101970, Note_on_c, 0, 76, 0
2, 102062, Note_on_c, 0, 78, 0
2, 102073, Note_on_c, 0, 79, 98
2, 102175, Note_on_c, 0, 79, 0
2, 102194, Note_on_c, 0, 81, 93
2, 102311, Note_on_c, 0, 83, 92
2, 102331, Note_on_c, 0, 81, 0
2, 102431, Note_on_c, 0, 83, 0
2, 102435, Note_on_c, 0, 81, 92
2, 102533, Note_on_c, 0, 81, 0
2, 102535, Note_on_c, 0, 79, 89
2, 102637, Note_on_c, 0, 79, 0
2, 102669, Note_on_c, 0, 78, 99
2, 102818, Note_on_c, 0, 78, 0
2, 102918, Note_on_c, 0, 69, 83
2, 103126, Note_on_c, 0, 69, 0
2, 103165, Note_on_c, 0, 74, 101
2, 103329, Note_on_c, 0, 74, 0
2, 103430, Note_on_c, 0, 73, 100
2, 103543, Note_on_c, 0, 73, 0
2, 103655, Note_on_c, 0, 74, 100
2, 103777, Note_on_c, 0, 69, 73
2, 103792, Note_on_c, 0, 74, 0
2, 103894, Note_on_c, 0, 62, 73
2, 103901, Note_on_c, 0, 69, 0
2, 104006, Note_on_c, 0, 64, 50
2, 104013, Note_on_c, 0, 62, 0
2, 104107, Note_on_c, 0, 64, 0
2, 104129, Note_on_c, 0, 66, 88
2, 104254, Note_on_c, 0, 67, 69
2, 104256, Note_on_c, 0, 66, 0
2, 104376, Note_on_c, 0, 69, 61
2, 104378, Note_on_c, 0, 67, 0
2, 104473, Note_on_c, 0, 67, 59
2, 104475, Note_on_c, 0, 69, 0
2, 104609, Note_on_c, 0, 67, 0
2, 104610, Note_on_c, 0, 66, 98
2, 104703, Note_on_c, 0, 66, 0
2, 104868, Note_on_c, 0, 74, 83
2, 105109, Note_on_c, 0, 79, 100
2, 105117, Note_on_c, 0, 74, 0
2, 105245, Note_on_c, 0, 79, 0
2, 105364, Note_on_c, 0, 78, 95
2, 105465, Note_on_c, 0, 78, 0
2, 105604, Note_on_c, 0, 79, 102
2, 105724, Note_on_c, 0, 74, 91
2, 105728, Note_on_c, 0, 79, 0
2, 105840, Note_on_c, 0, 67, 79
2, 105849, Note_on_c, 0, 74, 0
2, 105958, Note_on_c, 0, 69, 48
2, 105971, Note_on_c, 0, 67, 0
2, 106081, Note_on_c, 0, 71, 81
2, 106086, Note_on_c, 0, 69, 0
2, 106194, Note_on_c, 0, 71, 0
2, 106194, Note_on_c, 0, 72, 82
2, 106310, Note_on_c, 0, 74, 89
2, 106316, Note_on_c, 0, 72, 0
2, 106417, Note_on_c, 0, 72, 83
2, 106432, Note_on_c, 0, 74, 0
2, 106474, Note_on_c, 0, 72, 0
2, 106547, Note_on_c, 0, 71, 98
2, 106669, Note_on_c, 0, 67, 77
2, 106678, Note_on_c, 0, 71, 0
2, 106780, Note_on_c, 0, 69, 71
2, 106790, Note_on_c, 0, 67, 0
2, 106882, Note_on_c, 0, 69, 0
2, 106892, Note_on_c, 0, 71, 72
2, 107000, Note_on_c, 0, 71, 0
2, 107026, Note_on_c, 0, 72, 90
2, 107533, Note_on_c, 0, 72, 0
2, 107640, Note_on_c, 0, 69, 73
2, 107745, Note_on_c, 0, 71, 75
2, 107753, Note_on_c, 0, 69, 0
2, 107856, Note_on_c, 0, 71, 0
2, 107858, Note_on_c, 0, 72, 76
2, 107958, Note_on_c, 0, 72, 0
2, 107971, Note_on_c, 0, 74, 86
2, 108089, Note_on_c, 0, 72, 84
2, 108092, Note_on_c, 0, 74, 0
2, 108203, Note_on_c, 0, 74, 78
2, 108209, Note_on_c, 0, 72, 0
2, 108302, Note_on_c, 0, 74, 0
2, 108304, Note_on_c, 0, 76, 91
2, 108345, Note_on_c, 0, 76, 0
2, 108424, Note_on_c, 0, 78, 93
2, 108541, Note_on_c, 0, 78, 0
2, 108549, Note_on_c, 0, 79, 79
2, 108652, Note_on_c, 0, 79, 0
2, 108667, Note_on_c, 0, 81, 81
2, 108780, Note_on_c, 0, 81, 0
2, 108783, Note_on_c, 0, 78, 85
2, 108899, Note_on_c, 0, 78, 0
2, 108904, Note_on_c, 0, 74, 104
2, 109028, Note_on_c, 0, 74, 0
2, 109034, Note_on_c, 0, 79, 93
2, 109152, Note_on_c, 0, 81, 83
2, 109158, Note_on_c, 0, 79, 0
2, 109254, Note_on_c, 0, 83, 82
2, 109263, Note_on_c, 0, 81, 0
2, 109284, Note_on_c, 0, 83, 0
2, 109380, Note_on_c, 0, 72, 100
2, 109478, Note_on_c, 0, 72, 0
2, 109485, Note_on_c, 0, 71, 61
2, 109625, Note_on_c, 0, 69, 72
2, 109632, Note_on_c, 0, 71, 0
2, 109745, Note_on_c, 0, 71, 71
2, 109750, Note_on_c, 0, 69, 0
2, 109829, Note_on_c, 0, 71, 0
2, 109880, Note_on_c, 0, 72, 94
2, 110004, Note_on_c, 0, 74, 90
2, 110009, Note_on_c, 0, 72, 0
2, 110130, Note_on_c, 0, 76, 81
2, 110135, Note_on_c, 0, 74, 0
2, 110239, Note_on_c, 0, 76, 0
2, 110245, Note_on_c, 0, 74, 86
2, 110369, Note_on_c, 0, 72, 91
2, 110371, Note_on_c, 0, 74, 0
2, 110491, Note_on_c, 0, 72, 0
2, 110496, Note_on_c, 0, 71, 76
2, 110605, Note_on_c, 0, 69, 69
2, 110608, Note_on_c, 0, 71, 0
2, 110703, Note_on_c, 0, 67, 47
2, 110705, Note_on_c, 0, 69, 0
2, 110803, Note_on_c, 0, 67, 0
2, 110836, Note_on_c, 0, 74, 102
2, 111383, Note_on_c, 0, 74, 0
2, 111588, Note_on_c, 0, 67, 93
2, 111833, Note_on_c, 0, 72, 100
2, 111853, Note_on_c, 0, 67, 0
2, 111915, Note_on_c, 0, 72, 0
2, 112077, Note_on_c, 0, 71, 86
2, 112142, Note_on_c, 0, 71, 0
2, 112327, Note_on_c, 0, 72, 102
2, 112549, Note_on_c, 0, 72, 0
2, 112562, Note_on_c, 0, 67, 91
2, 112649, Note_on_c, 0, 67, 0
2, 112663, Note_on_c, 0, 69, 63
2, 112732, Note_on_c, 0, 69, 0
2, 112786, Note_on_c, 0, 71, 93
2, 112899, Note_on_c, 0, 72, 85
2, 112903, Note_on_c, 0, 71, 0
2, 113027, Note_on_c, 0, 74, 94
2, 113029, Note_on_c, 0, 72, 0
2, 113135, Note_on_c, 0, 74, 0
2, 113136, Note_on_c, 0, 72, 81
2, 113247, Note_on_c, 0, 72, 0
2, 113264, Note_on_c, 0, 71, 82
2, 113386, Note_on_c, 0, 69, 71
2, 113400, Note_on_c, 0, 71, 0
2, 113484, Note_on_c, 0, 69, 0
2, 113517, Note_on_c, 0, 71, 71
2, 113609, Note_on_c, 0, 71, 0
2, 113630, Note_on_c, 0, 73, 85
2, 113690, Note_on_c, 0, 73, 0
2, 113753, Note_on_c, 0, 74, 100
2, 113868, Note_on_c, 0, 74, 0
2, 114007, Note_on_c, 0, 73, 99
2, 114103, Note_on_c, 0, 73, 0
2, 114251, Note_on_c, 0, 74, 103
2, 114494, Note_on_c, 0, 69, 83
2, 114496, Note_on_c, 0, 74, 0
2, 114590, Note_on_c, 0, 69, 0
2, 114601, Note_on_c, 0, 71, 79
2, 114680, Note_on_c, 0, 71, 0
2, 114733, Note_on_c, 0, 72, 99
2, 114847, Note_on_c, 0, 74, 90
2, 114851, Note_on_c, 0, 72, 0
2, 114973, Note_on_c, 0, 76, 86
2, 114977, Note_on_c, 0, 74, 0
2, 115084, Note_on_c, 0, 76, 0
2, 115085, Note_on_c, 0, 74, 80
2, 115200, Note_on_c, 0, 74, 0
2, 115208, Note_on_c, 0, 72, 95
2, 115317, Note_on_c, 0, 72, 0
2, 115322, Note_on_c, 0, 71, 80
2, 115407, Note_on_c, 0, 71, 0
2, 115440, Note_on_c, 0, 73, 93
2, 115511, Note_on_c, 0, 73, 0
2, 115545, Note_on_c, 0, 75, 83
2, 115626, Note_on_c, 0, 75, 0
2, 115680, Note_on_c, 0, 76, 94
2, 115850, Note_on_c, 0, 76, 0
2, 115917, Note_on_c, 0, 75, 96
2, 116046, Note_on_c, 0, 75, 0
2, 116155, Note_on_c, 0, 76, 95
2, 116272, Note_on_c, 0, 78, 94
2, 116280, Note_on_c, 0, 76, 0
2, 116395, Note_on_c, 0, 79, 93
2, 116399, Note_on_c, 0, 78, 0
2, 116509, Note_on_c, 0, 79, 0
2, 116509, Note_on_c, 0, 78, 80
2, 116623, Note_on_c, 0, 76, 93
2, 116632, Note_on_c, 0, 78, 0
2, 116743, Note_on_c, 0, 76, 0
2, 116746, Note_on_c, 0, 74, 94
2, 116847, Note_on_c, 0, 74, 0
2, 116857, Note_on_c, 0, 73, 85
2, 116955, Note_on_c, 0, 73, 0
2, 116969, Note_on_c, 0, 71, 75
2, 117081, Note_on_c, 0, 71, 0
2, 117087, Note_on_c, 0, 69, 82
2, 117207, Note_on_c, 0, 73, 92
2, 117211, Note_on_c, 0, 69, 0
2, 117257, Note_on_c, 0, 73, 0
2, 117319, Note_on_c, 0, 74, 101
2, 117424, Note_on_c, 0, 74, 0
2, 117435, Note_on_c, 0, 76, 68
2, 117532, Note_on_c, 0, 76, 0
2, 117558, Note_on_c, 0, 78, 96
2, 117679, Note_on_c, 0, 78, 0
2, 117684, Note_on_c, 0, 79, 88
2, 117807, Note_on_c, 0, 81, 93
2, 117818, Note_on_c, 0, 79, 0
2, 117917, Note_on_c, 0, 81, 0
2, 117924, Note_on_c, 0, 79, 86
2, 118027, Note_on_c, 0, 79, 0
2, 118047, Note_on_c, 0, 78, 96
2, 118178, Note_on_c, 0, 79, 86
2, 118181, Note_on_c, 0, 78, 0
2, 118295, Note_on_c, 0, 78, 91
2, 118306, Note_on_c, 0, 79, 0
2, 118401, Note_on_c, 0, 76, 89
2, 118405, Note_on_c, 0, 78, 0
2, 118470, Note_on_c, 0, 76, 0
2, 118531, Note_on_c, 0, 78, 97
2, 118599, Note_on_c, 0, 78, 0
2, 118599, Note_on_c, 0, 76, 71
2, 118655, Note_on_c, 0, 78, 73
2, 118659, Note_on_c, 0, 76, 0
2, 118680, Note_on_c, 0, 78, 0
2, 118693, Note_on_c, 0, 76, 75
2, 118717, Note_on_c, 0, 78, 95
2, 118726, Note_on_c, 0, 76, 0
2, 118757, Note_on_c, 0, 76, 82
2, 118761, Note_on_c, 0, 78, 0
2, 118888, Note_on_c, 0, 74, 104
2, 118897, Note_on_c, 0, 76, 0
2, 118951, Note_on_c, 0, 74, 0
2, 119004, Note_on_c, 0, 74, 94
2, 119581, Note_on_c, 0, 74, 0
2, 119641, Note_on_c, 0, 71, 80
2, 119749, Note_on_c, 0, 67, 80
2, 119754, Note_on_c, 0, 71, 0
2, 119847, Note_on_c, 0, 64, 68
2, 119854, Note_on_c, 0, 67, 0
2, 119975, Note_on_c, 0, 64, 0
2, 119978, Note_on_c, 0, 73, 94
2, 120475, Note_on_c, 0, 73, 0
2, 120582, Note_on_c, 0, 69, 65
2, 120693, Note_on_c, 0, 69, 0
2, 120694, Note_on_c, 0, 74, 91
2, 120801, Note_on_c, 0, 74, 0
2, 120806, Note_on_c, 0, 78, 87
2, 120927, Note_on_c, 0, 78, 0
2, 120938, Note_on_c, 0, 79, 86
2, 121061, Note_on_c, 0, 78, 89
2, 121064, Note_on_c, 0, 79, 0
2, 121173, Note_on_c, 0, 78, 0
2, 121174, Note_on_c, 0, 76, 88
2, 121280, Note_on_c, 0, 78, 88
2, 121294, Note_on_c, 0, 76, 0
2, 121378, Note_on_c, 0, 78, 0
2, 121406, Note_on_c, 0, 79, 98
2, 121527, Note_on_c, 0, 81, 89
2, 121531, Note_on_c, 0, 79, 0
2, 121645, Note_on_c, 0, 83, 88
2, 121648, Note_on_c, 0, 81, 0
2, 121755, Note_on_c, 0, 81, 78
2, 121761, Note_on_c, 0, 83, 0
2, 121882, Note_on_c, 0, 79, 99
2, 121898, Note_on_c, 0, 81, 0
2, 121991, Note_on_c, 0, 79, 0
2, 121995, Note_on_c, 0, 78, 94
2, 122114, Note_on_c, 0, 78, 0
2, 122115, Note_on_c, 0, 76, 93
2, 122222, Note_on_c, 0, 74, 75
2, 122230, Note_on_c, 0, 76, 0
2, 122325, Note_on_c, 0, 74, 0
2, 122341, Note_on_c, 0, 81, 97
2, 122946, Note_on_c, 0, 81, 0
2, 123107, Note_on_c, 0, 74, 103
2, 123344, Note_on_c, 0, 79, 103
2, 123354, Note_on_c, 0, 74, 0
2, 123429, Note_on_c, 0, 79, 0
2, 123589, Note_on_c, 0, 78, 99
2, 123664, Note_on_c, 0, 78, 0
2, 123829, Note_on_c, 0, 79, 103
2, 124072, Note_on_c, 0, 79, 0
2, 124075, Note_on_c, 0, 74, 102
2, 124172, Note_on_c, 0, 74, 0
2, 124189, Note_on_c, 0, 76, 79
2, 124271, Note_on_c, 0, 76, 0
2, 124305, Note_on_c, 0, 78, 103
2, 124421, Note_on_c, 0, 79, 96
2, 124424, Note_on_c, 0, 78, 0
2, 124537, Note_on_c, 0, 81, 95
2, 124542, Note_on_c, 0, 79, 0
2, 124648, Note_on_c, 0, 81, 0
2, 124651, Note_on_c, 0, 79, 86
2, 124751, Note_on_c, 0, 79, 0
2, 124771, Note_on_c, 0, 78, 99
2, 124894, Note_on_c, 0, 78, 0
2, 124896, Note_on_c, 0, 76, 82
2, 124975, Note_on_c, 0, 76, 0
2, 125010, Note_on_c, 0, 78, 93
2, 125084, Note_on_c, 0, 78, 0
2, 125113, Note_on_c, 0, 80, 75
2, 125169, Note_on_c, 0, 80, 0
2, 125245, Note_on_c, 0, 81, 102
2, 125375, Note_on_c, 0, 81, 0
2, 125493, Note_on_c, 0, 80, 101
2, 125568, Note_on_c, 0, 80, 0
2, 125737, Note_on_c, 0, 81, 90
2, 125982, Note_on_c, 0, 76, 99
2, 125990, Note_on_c, 0, 81, 0
2, 126073, Note_on_c, 0, 76, 0
2, 126103, Note_on_c, 0, 78, 89
2, 126173, Note_on_c, 0, 78, 0
2, 126236, Note_on_c, 0, 79, 100
2, 126346, Note_on_c, 0, 81, 91
2, 126349, Note_on_c, 0, 79, 0
2, 126457, Note_on_c, 0, 81, 0
2, 126462, Note_on_c, 0, 83, 93
2, 126558, Note_on_c, 0, 83, 0
2, 126580, Note_on_c, 0, 81, 85
2, 126673, Note_on_c, 0, 81, 0
2, 126698, Note_on_c, 0, 79, 97
2, 126810, Note_on_c, 0, 79, 0
2, 126814, Note_on_c, 0, 78, 91
2, 126901, Note_on_c, 0, 78, 0
2, 126940, Note_on_c, 0, 79, 99
2, 127035, Note_on_c, 0, 79, 0
2, 127048, Note_on_c, 0, 81, 87
2, 127153, Note_on_c, 0, 81, 0
2, 127193, Note_on_c, 0, 83, 100
2, 127297, Note_on_c, 0, 83, 0
2, 127457, Note_on_c, 0, 81, 103
2, 127810, Note_on_c, 0, 78, 92
2, 127823, Note_on_c, 0, 81, 0
2, 127905, Note_on_c, 0, 78, 0
2, 127917, Note_on_c, 0, 79, 91
2, 128013, Note_on_c, 0, 76, 89
2, 128015, Note_on_c, 0, 79, 0
2, 128080, Note_on_c, 0, 76, 0
2, 128134, Note_on_c, 0, 76, 86
2, 128189, Note_on_c, 0, 75, 78
2, 128193, Note_on_c, 0, 76, 0
2, 128220, Note_on_c, 0, 76, 72
2, 128226, Note_on_c, 0, 75, 0
2, 128288, Note_on_c, 0, 75, 80
2, 128296, Note_on_c, 0, 76, 0
2, 128463, Note_on_c, 0, 76, 89
2, 128470, Note_on_c, 0, 75, 0
2, 128521, Note_on_c, 0, 76, 0
2, 128587, Note_on_c, 0, 76, 96
2, 128669, Note_on_c, 0, 76, 0
2, 128708, Note_on_c, 0, 66, 92
2, 128834, Note_on_c, 0, 66, 0
2, 128848, Note_on_c, 0, 67, 79
2, 128949, Note_on_c, 0, 69, 48
2, 128952, Note_on_c, 0, 67, 0
2, 129069, Note_on_c, 0, 71, 86
2, 129094, Note_on_c, 0, 69, 0
2, 129194, Note_on_c, 0, 71, 0
2, 129195, Note_on_c, 0, 72, 75
2, 129317, Note_on_c, 0, 72, 0
2, 129327, Note_on_c, 0, 74, 97
2, 129435, Note_on_c, 0, 76, 58
2, 129439, Note_on_c, 0, 74, 0
2, 129546, Note_on_c, 0, 76, 0
2, 129560, Note_on_c, 0, 78, 92
2, 129688, Note_on_c, 0, 79, 82
2, 129692, Note_on_c, 0, 78, 0
2, 129808, Note_on_c, 0, 79, 0
2, 129811, Note_on_c, 0, 81, 87
2, 129926, Note_on_c, 0, 81, 0
2, 129929, Note_on_c, 0, 78, 83
2, 130057, Note_on_c, 0, 74, 101
2, 130059, Note_on_c, 0, 78, 0
2, 130176, Note_on_c, 0, 74, 0
2, 130188, Note_on_c, 0, 79, 89
2, 130304, Note_on_c, 0, 81, 89
2, 130308, Note_on_c, 0, 79, 0
2, 130409, Note_on_c, 0, 83, 86
2, 130423, Note_on_c, 0, 81, 0
2, 130443, Note_on_c, 0, 83, 0
2, 130536, Note_on_c, 0, 72, 100
2, 130647, Note_on_c, 0, 71, 64
2, 130657, Note_on_c, 0, 72, 0
2, 130783, Note_on_c, 0, 69, 76
2, 130790, Note_on_c, 0, 71, 0
2, 130900, Note_on_c, 0, 69, 0
2, 130902, Note_on_c, 0, 71, 77
2, 130986, Note_on_c, 0, 71, 0
2, 131023, Note_on_c, 0, 72, 96
2, 131141, Note_on_c, 0, 72, 0
2, 131142, Note_on_c, 0, 74, 87
2, 131265, Note_on_c, 0, 76, 86
2, 131274, Note_on_c, 0, 74, 0
2, 131374, Note_on_c, 0, 76, 0
2, 131378, Note_on_c, 0, 74, 87
2, 131505, Note_on_c, 0, 72, 95
2, 131519, Note_on_c, 0, 74, 0
2, 131628, Note_on_c, 0, 72, 0
2, 131629, Note_on_c, 0, 71, 78
2, 131739, Note_on_c, 0, 69, 78
2, 131741, Note_on_c, 0, 71, 0
2, 131835, Note_on_c, 0, 67, 63
2, 131856, Note_on_c, 0, 69, 0
2, 131946, Note_on_c, 0, 67, 0
2, 131968, Note_on_c, 0, 74, 99
2, 132564, Note_on_c, 0, 74, 0
2, 132696, Note_on_c, 0, 67, 86
2, 132942, Note_on_c, 0, 72, 98
2, 132950, Note_on_c, 0, 67, 0
2, 133041, Note_on_c, 0, 72, 0
2, 133185, Note_on_c, 0, 71, 84
2, 133306, Note_on_c, 0, 71, 0
2, 133418, Note_on_c, 0, 72, 96
2, 133534, Note_on_c, 0, 71, 80
2, 133536, Note_on_c, 0, 72, 0
2, 133660, Note_on_c, 0, 72, 86
2, 133664, Note_on_c, 0, 71, 0
2, 133776, Note_on_c, 0, 72, 0
2, 133784, Note_on_c, 0, 74, 88
2, 133904, Note_on_c, 0, 74, 0
2, 133910, Note_on_c, 0, 76, 93
2, 134026, Note_on_c, 0, 77, 90
2, 134039, Note_on_c, 0, 76, 0
2, 134145, Note_on_c, 0, 77, 0
2, 134147, Note_on_c, 0, 79, 83
2, 134254, Note_on_c, 0, 79, 0
2, 134254, Note_on_c, 0, 77, 85
2, 134392, Note_on_c, 0, 76, 101
2, 134394, Note_on_c, 0, 77, 0
2, 134559, Note_on_c, 0, 76, 0
2, 134645, Note_on_c, 0, 79, 104
2, 134871, Note_on_c, 0, 79, 0
2, 134877, Note_on_c, 0, 84, 102
2, 135116, Note_on_c, 0, 83, 101
2, 135133, Note_on_c, 0, 84, 0
2, 135223, Note_on_c, 0, 83, 0
2, 135361, Note_on_c, 0, 84, 102
2, 135491, Note_on_c, 0, 84, 0
2, 135594, Note_on_c, 0, 79, 105
2, 135717, Note_on_c, 0, 79, 0
2, 136066, Note_on_c, 0, 71, 93
2, 136191, Note_on_c, 0, 71, 0
2, 136306, Note_on_c, 0, 72, 99
2, 136551, Note_on_c, 0, 76, 96
2, 136560, Note_on_c, 0, 72, 0
2, 136788, Note_on_c, 0, 74, 100
2, 136805, Note_on_c, 0, 76, 0
2, 136906, Note_on_c, 0, 74, 0
2, 137031, Note_on_c, 0, 71, 83
2, 137132, Note_on_c, 0, 71, 0
2, 137278, Note_on_c, 0, 72, 104
2, 137392, Note_on_c, 0, 74, 97
2, 137454, Note_on_c, 0, 72, 0
2, 137514, Note_on_c, 0, 74, 0
2, 137518, Note_on_c, 0, 76, 71
2, 137633, Note_on_c, 0, 76, 0
2, 137642, Note_on_c, 0, 77, 78
2, 137688, Note_on_c, 0, 77, 0
2, 137771, Note_on_c, 0, 79, 107
2, 137878, Note_on_c, 0, 79, 0
2, 137889, Note_on_c, 0, 81, 92
2, 138002, Note_on_c, 0, 79, 87
2, 138007, Note_on_c, 0, 81, 0
2, 138114, Note_on_c, 0, 81, 94
2, 138124, Note_on_c, 0, 79, 0
2, 138188, Note_on_c, 0, 81, 0
2, 138240, Note_on_c, 0, 79, 101
2, 138362, Note_on_c, 0, 77, 100
2, 138370, Note_on_c, 0, 79, 0
2, 138467, Note_on_c, 0, 77, 0
2, 138490, Note_on_c, 0, 79, 97
2, 138613, Note_on_c, 0, 79, 0
2, 138625, Note_on_c, 0, 84, 99
2, 138749, Note_on_c, 0, 84, 0
2, 138757, Note_on_c, 0, 83, 96
2, 138870, Note_on_c, 0, 81, 94
2, 138879, Note_on_c, 0, 83, 0
2, 138995, Note_on_c, 0, 79, 93
2, 138997, Note_on_c, 0, 81, 0
2, 139106, Note_on_c, 0, 79, 0
2, 139112, Note_on_c, 0, 78, 90
2, 139236, Note_on_c, 0, 78, 0
2, 139242, Note_on_c, 0, 79, 103
2, 140182, Note_on_c, 0, 79, 0
2, 140182, End_track
3, 0, Start_track
3, 0, Title_t, "RH 2"
3, 0, MIDI_port, 0
3, 0, Control_c, 4, 7, 73
3, 0, Control_c, 4, 10, 59
3, 0, Program_c, 4, 79
3, 245, Note_on_c, 4, 91, 96
3, 332, Note_on_c, 4, 91, 0
3, 340, Note_on_c, 4, 93, 78
3, 426, Note_on_c, 4, 93, 0
3, 471, Note_on_c, 4, 95, 91
3, 593, Note_on_c, 4, 96, 89
3, 597, Note_on_c, 4, 95, 0
3, 711, Note_on_c, 4, 98, 97
3, 715, Note_on_c, 4, 96, 0
3, 816, Note_on_c, 4, 96, 80
3, 825, Note_on_c, 4, 98, 0
3, 910, Note_on_c, 4, 96, 0
3, 953, Note_on_c, 4, 95, 90
3, 1077, Note_on_c, 4, 95, 0
3, 1191, Note_on_c, 4, 98, 100
3, 1442, Note_on_c, 4, 103, 99
3, 1448, Note_on_c, 4, 98, 0
3, 1545, Note_on_c, 4, 103, 0
3, 1686, Note_on_c, 4, 102, 99
3, 1774, Note_on_c, 4, 102, 0
3, 1936, Note_on_c, 4, 103, 100
3, 2099, Note_on_c, 4, 103, 0
3, 2178, Note_on_c, 4, 95, 86
3, 2274, Note_on_c, 4, 95, 0
3, 2282, Note_on_c, 4, 96, 85
3, 2367, Note_on_c, 4, 96, 0
3, 2414, Note_on_c, 4, 98, 100
3, 2529, Note_on_c, 4, 100, 75
3, 2530, Note_on_c, 4, 98, 0
3, 2644, Note_on_c, 4, 98, 97
3, 2655, Note_on_c, 4, 100, 0
3, 2746, Note_on_c, 4, 98, 0
3, 2754, Note_on_c, 4, 100, 82
3, 2859, Note_on_c, 4, 100, 0
3, 2878, Note_on_c, 4, 98, 103
3, 3000, Note_on_c, 4, 96, 93
3, 3009, Note_on_c, 4, 98, 0
3, 3111, Note_on_c, 4, 98, 89
3, 3128, Note_on_c, 4, 96, 0
3, 3217, Note_on_c, 4, 98, 0
3, 3221, Note_on_c, 4, 103, 92
3, 3310, Note_on_c, 4, 103, 0
3, 3329, Note_on_c, 4, 102, 90
3, 3442, Note_on_c, 4, 100, 81
3, 3444, Note_on_c, 4, 102, 0
3, 3549, Note_on_c, 4, 100, 0
3, 3559, Note_on_c, 4, 98, 95
3, 3656, Note_on_c, 4, 96, 81
3, 3659, Note_on_c, 4, 98, 0
3, 3765, Note_on_c, 4, 96, 0
3, 3774, Note_on_c, 4, 95, 67
3, 3885, Note_on_c, 4, 95, 0
3, 4045, Note_on_c, 4, 98, 101
3, 4218, Note_on_c, 4, 98, 0
3, 4294, Note_on_c, 4, 103, 96
3, 4493, Note_on_c, 4, 103, 0
3, 4541, Note_on_c, 4, 102, 97
3, 4657, Note_on_c, 4, 102, 0
3, 4789, Note_on_c, 4, 103, 99
3, 4988, Note_on_c, 4, 103, 0
3, 5043, Note_on_c, 4, 107, 95
3, 5255, Note_on_c, 4, 107, 0
3, 5292, Note_on_c, 4, 105, 96
3, 5420, Note_on_c, 4, 105, 0
3, 5525, Note_on_c, 4, 102, 89
3, 5618, Note_on_c, 4, 102, 0
3, 5763, Note_on_c, 4, 103, 99
3, 5882, Note_on_c, 4, 105, 83
3, 5889, Note_on_c, 4, 103, 0
3, 5977, Note_on_c, 4, 105, 0
3, 5983, Note_on_c, 4, 107, 81
3, 6061, Note_on_c, 4, 107, 0
3, 6098, Note_on_c, 4, 103, 80
3, 6183, Note_on_c, 4, 103, 0
3, 6224, Note_on_c, 4, 100, 97
3, 6343, Note_on_c, 4, 103, 85
3, 6361, Note_on_c, 4, 100, 0
3, 6442, Note_on_c, 4, 103, 0
3, 6453, Note_on_c, 4, 102, 91
3, 6556, Note_on_c, 4, 102, 0
3, 6562, Note_on_c, 4, 100, 82
3, 6651, Note_on_c, 4, 100, 0
3, 6706, Note_on_c, 4, 105, 106
3, 6820, Note_on_c, 4, 103, 84
3, 6840, Note_on_c, 4, 105, 0
3, 6934, Note_on_c, 4, 102, 92
3, 6945, Note_on_c, 4, 103, 0
3, 7049, Note_on_c, 4, 103, 93
3, 7057, Note_on_c, 4, 102, 0
3, 7148, Note_on_c, 4, 103, 0
3, 7167, Note_on_c, 4, 105, 92
3, 7281, Note_on_c, 4, 100, 84
3, 7292, Note_on_c, 4, 105, 0
3, 7395, Note_on_c, 4, 102, 96
3, 7397, Note_on_c, 4, 100, 0
3, 7517, Note_on_c, 4, 102, 0
3, 7519, Note_on_c, 4, 98, 96
3, 7597, Note_on_c, 4, 98, 0
3, 7666, Note_on_c, 4, 103, 102
3, 7775, Note_on_c, 4, 103, 0
3, 7781, Note_on_c, 4, 102, 94
3, 7857, Note_on_c, 4, 102, 0
3, 7911, Note_on_c, 4, 103, 104
3, 8267, Note_on_c, 4, 103, 0
3, 8274, Note_on_c, 4, 107, 89
3, 8373, Note_on_c, 4, 107, 0
3, 8375, Note_on_c, 4, 105, 92
3, 8474, Note_on_c, 4, 105, 0
3, 8494, Note_on_c, 4, 103, 93
3, 8586, Note_on_c, 4, 103, 0
3, 8599, Note_on_c, 4, 102, 100
3, 8715, Note_on_c, 4, 100, 88
3, 8717, Note_on_c, 4, 102, 0
3, 8842, Note_on_c, 4, 98, 93
3, 8861, Note_on_c, 4, 100, 0
3, 8919, Note_on_c, 4, 98, 0
3, 8940, Note_on_c, 4, 97, 74
3, 9021, Note_on_c, 4, 97, 0
3, 9061, Note_on_c, 4, 95, 85
3, 9192, Note_on_c, 4, 98, 84
3, 9206, Note_on_c, 4, 95, 0
3, 9302, Note_on_c, 4, 98, 0
3, 9306, Note_on_c, 4, 97, 89
3, 9406, Note_on_c, 4, 97, 0
3, 9422, Note_on_c, 4, 100, 70
3, 9493, Note_on_c, 4, 100, 0
3, 9580, Note_on_c, 4, 98, 100
3, 10695, Note_on_c, 4, 98, 0
3, 10711, Note_on_c, 4, 102, 96
3, 10802, Note_on_c, 4, 102, 0
3, 10809, Note_on_c, 4, 100, 87
3, 10893, Note_on_c, 4, 98, 91
3, 10896, Note_on_c, 4, 100, 0
3, 10977, Note_on_c, 4, 98, 0
3, 11006, Note_on_c, 4, 98, 83
3, 11058, Note_on_c, 4, 98, 0
3, 11061, Note_on_c, 4, 97, 84
3, 11116, Note_on_c, 4, 98, 78
3, 11118, Note_on_c, 4, 97, 0
3, 11158, Note_on_c, 4, 98, 0
3, 11159, Note_on_c, 4, 97, 90
3, 11192, Note_on_c, 4, 98, 90
3, 11205, Note_on_c, 4, 97, 0
3, 11231, Note_on_c, 4, 98, 0
3, 11239, Note_on_c, 4, 97, 96
3, 11345, Note_on_c, 4, 98, 93
3, 11370, Note_on_c, 4, 97, 0
3, 11411, Note_on_c, 4, 98, 0
3, 11483, Note_on_c, 4, 98, 106
3, 11722, Note_on_c, 4, 98, 0
3, 12729, Note_on_c, 4, 86, 96
3, 12828, Note_on_c, 4, 88, 75
3, 12838, Note_on_c, 4, 86, 0
3, 12922, Note_on_c, 4, 88, 0
3, 12951, Note_on_c, 4, 90, 96
3, 13075, Note_on_c, 4, 91, 75
3, 13080, Note_on_c, 4, 90, 0
3, 13192, Note_on_c, 4, 93, 68
3, 13197, Note_on_c, 4, 91, 0
3, 13286, Note_on_c, 4, 91, 64
3, 13288, Note_on_c, 4, 93, 0
3, 13398, Note_on_c, 4, 91, 0
3, 13413, Note_on_c, 4, 90, 95
3, 13487, Note_on_c, 4, 90, 0
3, 13655, Note_on_c, 4, 93, 82
3, 13889, Note_on_c, 4, 98, 101
3, 13895, Note_on_c, 4, 93, 0
3, 14001, Note_on_c, 4, 98, 0
3, 14142, Note_on_c, 4, 97, 98
3, 14237, Note_on_c, 4, 97, 0
3, 14381, Note_on_c, 4, 98, 100
3, 14605, Note_on_c, 4, 98, 0
3, 14633, Note_on_c, 4, 102, 97
3, 14863, Note_on_c, 4, 100, 86
3, 14868, Note_on_c, 4, 102, 0
3, 15005, Note_on_c, 4, 100, 0
3, 15116, Note_on_c, 4, 97, 96
3, 15241, Note_on_c, 4, 97, 0
3, 15364, Note_on_c, 4, 98, 103
3, 15483, Note_on_c, 4, 100, 88
3, 15492, Note_on_c, 4, 98, 0
3, 15605, Note_on_c, 4, 102, 82
3, 15613, Note_on_c, 4, 100, 0
3, 15713, Note_on_c, 4, 102, 0
3, 15719, Note_on_c, 4, 103, 92
3, 15803, Note_on_c, 4, 103, 0
3, 15839, Note_on_c, 4, 105, 86
3, 15960, Note_on_c, 4, 107, 86
3, 15969, Note_on_c, 4, 105, 0
3, 16075, Note_on_c, 4, 105, 90
3, 16078, Note_on_c, 4, 107, 0
3, 16189, Note_on_c, 4, 107, 93
3, 16203, Note_on_c, 4, 105, 0
3, 16308, Note_on_c, 4, 107, 0
3, 16308, Note_on_c, 4, 105, 96
3, 16424, Note_on_c, 4, 103, 82
3, 16428, Note_on_c, 4, 105, 0
3, 16507, Note_on_c, 4, 103, 0
3, 16535, Note_on_c, 4, 105, 52
3, 16540, Note_on_c, 4, 107, 71
3, 16595, Note_on_c, 4, 107, 0
3, 16642, Note_on_c, 4, 107, 93
3, 16651, Note_on_c, 4, 105, 0
3, 16740, Note_on_c, 4, 107, 0
3, 16760, Note_on_c, 4, 97, 96
3, 16857, Note_on_c, 4, 97, 0
3, 16868, Note_on_c, 4, 107, 89
3, 16952, Note_on_c, 4, 107, 0
3, 16994, Note_on_c, 4, 105, 92
3, 17076, Note_on_c, 4, 105, 0
3, 17104, Note_on_c, 4, 103, 91
3, 17150, Note_on_c, 4, 103, 0
3, 17246, Note_on_c, 4, 102, 101
3, 17414, Note_on_c, 4, 102, 0
3, 17506, Note_on_c, 4, 107, 95
3, 17574, Note_on_c, 4, 107, 0
3, 17606, Note_on_c, 4, 105, 89
3, 17664, Note_on_c, 4, 105, 0
3, 17761, Note_on_c, 4, 107, 96
3, 18307, Note_on_c, 4, 107, 0
3, 18464, Note_on_c, 4, 100, 94
3, 18551, Note_on_c, 4, 100, 0
3, 18714, Note_on_c, 4, 105, 95
3, 19547, Note_on_c, 4, 107, 91
3, 19568, Note_on_c, 4, 105, 0
3, 19621, Note_on_c, 4, 107, 0
3, 19680, Note_on_c, 4, 105, 101
3, 19738, Note_on_c, 4, 104, 89
3, 19740, Note_on_c, 4, 105, 0
3, 19770, Note_on_c, 4, 105, 95
3, 19783, Note_on_c, 4, 104, 0
3, 19829, Note_on_c, 4, 105, 0
3, 19830, Note_on_c, 4, 104, 98
3, 19990, Note_on_c, 4, 104, 0
3, 19991, Note_on_c, 4, 105, 78
3, 20043, Note_on_c, 4, 105, 0
3, 20114, Note_on_c, 4, 105, 84
3, 20222, Note_on_c, 4, 100, 82
3, 20228, Note_on_c, 4, 105, 0
3, 20338, Note_on_c, 4, 93, 80
3, 20347, Note_on_c, 4, 100, 0
3, 20471, Note_on_c, 4, 95, 90
3, 20477, Note_on_c, 4, 93, 0
3, 20569, Note_on_c, 4, 97, 94
3, 20573, Note_on_c, 4, 95, 0
3, 20679, Note_on_c, 4, 97, 0
3, 20685, Note_on_c, 4, 98, 98
3, 20806, Note_on_c, 4, 98, 0
3, 20807, Note_on_c, 4, 100, 72
3, 20909, Note_on_c, 4, 100, 0
3, 20919, Note_on_c, 4, 102, 88
3, 21025, Note_on_c, 4, 102, 0
3, 21061, Note_on_c, 4, 103, 98
3, 21269, Note_on_c, 4, 103, 0
3, 21332, Note_on_c, 4, 95, 88
3, 21465, Note_on_c, 4, 95, 0
3, 21586, Note_on_c, 4, 100, 89
3, 21699, Note_on_c, 4, 100, 0
3, 21819, Note_on_c, 4, 103, 90
3, 21938, Note_on_c, 4, 103, 0
3, 22053, Note_on_c, 4, 102, 96
3, 22178, Note_on_c, 4, 102, 0
3, 22179, Note_on_c, 4, 98, 86
3, 22295, Note_on_c, 4, 98, 0
3, 22296, Note_on_c, 4, 95, 72
3, 22403, Note_on_c, 4, 95, 0
3, 22409, Note_on_c, 4, 97, 90
3, 22508, Note_on_c, 4, 97, 0
3, 22530, Note_on_c, 4, 98, 95
3, 22669, Note_on_c, 4, 98, 0
3, 22669, Note_on_c, 4, 100, 75
3, 22769, Note_on_c, 4, 100, 0
3, 22785, Note_on_c, 4, 102, 92
3, 22871, Note_on_c, 4, 102, 0
3, 22899, Note_on_c, 4, 103, 86
3, 22977, Note_on_c, 4, 103, 0
3, 23034, Note_on_c, 4, 105, 100
3, 23160, Note_on_c, 4, 103, 87
3, 23166, Note_on_c, 4, 105, 0
3, 23285, Note_on_c, 4, 102, 89
3, 23295, Note_on_c, 4, 103, 0
3, 23392, Note_on_c, 4, 102, 0
3, 23404, Note_on_c, 4, 100, 84
3, 23519, Note_on_c, 4, 100, 0
3, 23519, Note_on_c, 4, 98, 98
3, 23622, Note_on_c, 4, 98, 0
3, 23627, Note_on_c, 4, 97, 89
3, 23736, Note_on_c, 4, 95, 71
3, 23739, Note_on_c, 4, 97, 0
3, 23824, Note_on_c, 4, 95, 0
3, 23859, Note_on_c, 4, 105, 88
3, 23937, Note_on_c, 4, 105, 0
3, 23979, Note_on_c, 4, 103, 96
3, 24099, Note_on_c, 4, 102, 89
3, 24106, Note_on_c, 4, 103, 0
3, 24219, Note_on_c, 4, 102, 0
3, 24220, Note_on_c, 4, 100, 86
3, 24335, Note_on_c, 4, 98, 88
3, 24340, Note_on_c, 4, 100, 0
3, 24438, Note_on_c, 4, 98, 0
3, 24449, Note_on_c, 4, 97, 93
3, 24555, Note_on_c, 4, 95, 63
3, 24559, Note_on_c, 4, 97, 0
3, 24678, Note_on_c, 4, 93, 82
3, 24683, Note_on_c, 4, 95, 0
3, 24740, Note_on_c, 4, 93, 0
3, 24806, Note_on_c, 4, 103, 88
3, 24876, Note_on_c, 4, 103, 0
3, 24929, Note_on_c, 4, 102, 94
3, 25045, Note_on_c, 4, 100, 83
3, 25048, Note_on_c, 4, 102, 0
3, 25168, Note_on_c, 4, 100, 0
3, 25171, Note_on_c, 4, 98, 86
3, 25293, Note_on_c, 4, 98, 0
3, 25297, Note_on_c, 4, 97, 77
3, 25412, Note_on_c, 4, 97, 0
3, 25413, Note_on_c, 4, 95, 85
3, 25523, Note_on_c, 4, 95, 0
3, 25531, Note_on_c, 4, 93, 72
3, 25643, Note_on_c, 4, 93, 0
3, 25649, Note_on_c, 4, 91, 75
3, 25742, Note_on_c, 4, 91, 0
3, 25755, Note_on_c, 4, 90, 76
3, 25888, Note_on_c, 4, 90, 0
3, 25891, Note_on_c, 4, 88, 81
3, 26021, Note_on_c, 4, 97, 93
3, 26025, Note_on_c, 4, 88, 0
3, 26142, Note_on_c, 4, 97, 0
3, 26144, Note_on_c, 4, 98, 93
3, 26250, Note_on_c, 4, 100, 87
3, 26269, Note_on_c, 4, 98, 0
3, 26342, Note_on_c, 4, 100, 0
3, 26379, Note_on_c, 4, 98, 100
3, 26445, Note_on_c, 4, 98, 0
3, 26447, Note_on_c, 4, 97, 82
3, 26490, Note_on_c, 4, 98, 77
3, 26503, Note_on_c, 4, 97, 0
3, 26548, Note_on_c, 4, 98, 0
3, 26549, Note_on_c, 4, 97, 93
3, 26585, Note_on_c, 4, 98, 89
3, 26594, Note_on_c, 4, 97, 0
3, 26632, Note_on_c, 4, 97, 99
3, 26636, Note_on_c, 4, 98, 0
3, 26741, Note_on_c, 4, 97, 0
3, 26744, Note_on_c, 4, 98, 99
3, 26792, Note_on_c, 4, 98, 0
3, 26856, Note_on_c, 4, 98, 99
3, 26987, Note_on_c, 4, 98, 0
3, 27099, Note_on_c, 4, 93, 79
3, 27345, Note_on_c, 4, 98, 101
3, 27357, Note_on_c, 4, 93, 0
3, 27453, Note_on_c, 4, 98, 0
3, 27573, Note_on_c, 4, 97, 91
3, 27676, Note_on_c, 4, 97, 0
3, 27812, Note_on_c, 4, 98, 100
3, 27929, Note_on_c, 4, 93, 67
3, 27947, Note_on_c, 4, 98, 0
3, 28047, Note_on_c, 4, 86, 71
3, 28050, Note_on_c, 4, 93, 0
3, 28167, Note_on_c, 4, 88, 64
3, 28170, Note_on_c, 4, 86, 0
3, 28289, Note_on_c, 4, 90, 88
3, 28295, Note_on_c, 4, 88, 0
3, 28400, Note_on_c, 4, 90, 0
3, 28401, Note_on_c, 4, 92, 79
3, 28527, Note_on_c, 4, 93, 69
3, 28529, Note_on_c, 4, 92, 0
3, 28640, Note_on_c, 4, 93, 0
3, 28642, Note_on_c, 4, 95, 67
3, 28724, Note_on_c, 4, 95, 0
3, 28770, Note_on_c, 4, 96, 96
3, 28897, Note_on_c, 4, 95, 74
3, 28900, Note_on_c, 4, 96, 0
3, 29026, Note_on_c, 4, 93, 73
3, 29031, Note_on_c, 4, 95, 0
3, 29128, Note_on_c, 4, 93, 0
3, 29155, Note_on_c, 4, 95, 71
3, 29255, Note_on_c, 4, 95, 0
3, 29279, Note_on_c, 4, 96, 94
3, 29394, Note_on_c, 4, 98, 90
3, 29396, Note_on_c, 4, 96, 0
3, 29509, Note_on_c, 4, 100, 86
3, 29522, Note_on_c, 4, 98, 0
3, 29628, Note_on_c, 4, 98, 82
3, 29637, Note_on_c, 4, 100, 0
3, 29746, Note_on_c, 4, 98, 0
3, 29758, Note_on_c, 4, 96, 100
3, 29880, Note_on_c, 4, 96, 0
3, 29986, Note_on_c, 4, 100, 91
3, 30231, Note_on_c, 4, 100, 0
3, 30231, Note_on_c, 4, 105, 97
3, 30333, Note_on_c, 4, 105, 0
3, 30465, Note_on_c, 4, 99, 94
3, 30567, Note_on_c, 4, 99, 0
3, 30711, Note_on_c, 4, 100, 90
3, 30839, Note_on_c, 4, 100, 0
3, 30845, Note_on_c, 4, 95, 77
3, 30948, Note_on_c, 4, 95, 0
3, 30967, Note_on_c, 4, 100, 82
3, 31071, Note_on_c, 4, 100, 0
3, 31076, Note_on_c, 4, 102, 86
3, 31186, Note_on_c, 4, 102, 0
3, 31195, Note_on_c, 4, 103, 93
3, 31309, Note_on_c, 4, 105, 78
3, 31312, Note_on_c, 4, 103, 0
3, 31421, Note_on_c, 4, 105, 0
3, 31429, Note_on_c, 4, 107, 88
3, 31516, Note_on_c, 4, 107, 0
3, 31528, Note_on_c, 4, 105, 84
3, 31657, Note_on_c, 4, 103, 104
3, 31660, Note_on_c, 4, 105, 0
3, 31745, Note_on_c, 4, 103, 0
3, 31893, Note_on_c, 4, 95, 77
3, 32083, Note_on_c, 4, 95, 0
3, 32132, Note_on_c, 4, 100, 91
3, 32288, Note_on_c, 4, 100, 0
3, 32376, Note_on_c, 4, 99, 96
3, 32495, Note_on_c, 4, 99, 0
3, 32616, Note_on_c, 4, 100, 86
3, 32740, Note_on_c, 4, 100, 0
3, 32741, Note_on_c, 4, 102, 89
3, 32865, Note_on_c, 4, 102, 0
3, 32867, Note_on_c, 4, 103, 90
3, 32977, Note_on_c, 4, 105, 73
3, 32980, Note_on_c, 4, 103, 0
3, 33059, Note_on_c, 4, 105, 0
3, 33106, Note_on_c, 4, 107, 93
3, 33220, Note_on_c, 4, 108, 80
3, 33225, Note_on_c, 4, 107, 0
3, 33343, Note_on_c, 4, 107, 95
3, 33352, Note_on_c, 4, 108, 0
3, 33455, Note_on_c, 4, 108, 72
3, 33458, Note_on_c, 4, 107, 0
3, 33586, Note_on_c, 4, 107, 96
3, 33608, Note_on_c, 4, 108, 0
3, 33695, Note_on_c, 4, 107, 0
3, 33705, Note_on_c, 4, 105, 80
3, 33806, Note_on_c, 4, 105, 0
3, 33809, Note_on_c, 4, 107, 93
3, 33908, Note_on_c, 4, 107, 0
3, 33909, Note_on_c, 4, 108, 82
3, 34001, Note_on_c, 4, 108, 0
3, 34035, Note_on_c, 4, 99, 92
3, 34148, Note_on_c, 4, 99, 0
3, 34154, Note_on_c, 4, 108, 88
3, 34243, Note_on_c, 4, 108, 0
3, 34282, Note_on_c, 4, 107, 93
3, 34372, Note_on_c, 4, 107, 0
3, 34405, Note_on_c, 4, 105, 83
3, 34475, Note_on_c, 4, 105, 0
3, 34535, Note_on_c, 4, 103, 96
3, 34654, Note_on_c, 4, 103, 0
3, 34802, Note_on_c, 4, 95, 76
3, 34977, Note_on_c, 4, 95, 0
3, 35043, Note_on_c, 4, 100, 88
3, 35153, Note_on_c, 4, 100, 0
3, 35281, Note_on_c, 4, 99, 99
3, 35378, Note_on_c, 4, 99, 0
3, 35521, Note_on_c, 4, 100, 92
3, 35699, Note_on_c, 4, 100, 0
3, 35767, Note_on_c, 4, 103, 93
3, 35996, Note_on_c, 4, 102, 99
3, 36008, Note_on_c, 4, 103, 0
3, 36134, Note_on_c, 4, 102, 0
3, 36234, Note_on_c, 4, 99, 91
3, 36357, Note_on_c, 4, 99, 0
3, 36468, Note_on_c, 4, 100, 85
3, 36589, Note_on_c, 4, 100, 0
3, 36591, Note_on_c, 4, 95, 71
3, 36675, Note_on_c, 4, 95, 0
3, 36713, Note_on_c, 4, 100, 87
3, 36790, Note_on_c, 4, 100, 0
3, 36830, Note_on_c, 4, 102, 93
3, 36911, Note_on_c, 4, 102, 0
3, 36954, Note_on_c, 4, 103, 95
3, 37081, Note_on_c, 4, 103, 0
3, 37084, Note_on_c, 4, 105, 93
3, 37177, Note_on_c, 4, 105, 0
3, 37179, Note_on_c, 4, 103, 71
3, 37275, Note_on_c, 4, 105, 78
3, 37289, Note_on_c, 4, 103, 0
3, 37324, Note_on_c, 4, 105, 0
3, 37405, Note_on_c, 4, 97, 94
3, 37519, Note_on_c, 4, 98, 85
3, 37533, Note_on_c, 4, 97, 0
3, 37641, Note_on_c, 4, 98, 0
3, 37644, Note_on_c, 4, 97, 95
3, 37695, Note_on_c, 4, 97, 0
3, 37767, Note_on_c, 4, 100, 88
3, 37824, Note_on_c, 4, 100, 0
3, 37896, Note_on_c, 4, 102, 97
3, 38011, Note_on_c, 4, 103, 90
3, 38024, Note_on_c, 4, 102, 0
3, 38134, Note_on_c, 4, 102, 85
3, 38136, Note_on_c, 4, 103, 0
3, 38227, Note_on_c, 4, 103, 82
3, 38237, Note_on_c, 4, 102, 0
3, 38290, Note_on_c, 4, 103, 0
3, 38361, Note_on_c, 4, 95, 88
3, 38488, Note_on_c, 4, 96, 65
3, 38494, Note_on_c, 4, 95, 0
3, 38601, Note_on_c, 4, 96, 0
3, 38608, Note_on_c, 4, 95, 74
3, 38694, Note_on_c, 4, 95, 0
3, 38733, Note_on_c, 4, 99, 82
3, 38821, Note_on_c, 4, 99, 0
3, 38872, Note_on_c, 4, 100, 90
3, 39474, Note_on_c, 4, 103, 88
3, 39477, Note_on_c, 4, 100, 0
3, 39576, Note_on_c, 4, 102, 86
3, 39593, Note_on_c, 4, 103, 0
3, 39679, Note_on_c, 4, 102, 0
3, 39679, Note_on_c, 4, 100, 82
3, 39747, Note_on_c, 4, 100, 0
3, 39792, Note_on_c, 4, 100, 64
3, 39849, Note_on_c, 4, 100, 0
3, 39853, Note_on_c, 4, 99, 82
3, 39888, Note_on_c, 4, 100, 64
3, 39898, Note_on_c, 4, 99, 0
3, 39936, Note_on_c, 4, 100, 0
3, 39938, Note_on_c, 4, 99, 78
3, 39970, Note_on_c, 4, 100, 81
3, 39983, Note_on_c, 4, 99, 0
3, 40021, Note_on_c, 4, 99, 100
3, 40024, Note_on_c, 4, 100, 0
3, 40149, Note_on_c, 4, 100, 90
3, 40170, Note_on_c, 4, 99, 0
3, 40205, Note_on_c, 4, 100, 0
3, 40286, Note_on_c, 4, 100, 99
3, 40384, Note_on_c, 4, 100, 0
3, 40542, Note_on_c, 4, 103, 101
3, 40660, Note_on_c, 4, 103, 0
3, 40661, Note_on_c, 4, 102, 92
3, 40776, Note_on_c, 4, 102, 0
3, 40777, Note_on_c, 4, 100, 82
3, 40898, Note_on_c, 4, 98, 91
3, 40900, Note_on_c, 4, 100, 0
3, 41019, Note_on_c, 4, 97, 78
3, 41023, Note_on_c, 4, 98, 0
3, 41112, Note_on_c, 4, 97, 0
3, 41126, Note_on_c, 4, 95, 68
3, 41249, Note_on_c, 4, 93, 86
3, 41263, Note_on_c, 4, 95, 0
3, 41385, Note_on_c, 4, 93, 0
3, 41488, Note_on_c, 4, 100, 89
3, 41658, Note_on_c, 4, 100, 0
3, 41727, Note_on_c, 4, 97, 99
3, 41803, Note_on_c, 4, 97, 0
3, 41979, Note_on_c, 4, 93, 81
3, 42127, Note_on_c, 4, 93, 0
3, 42476, Note_on_c, 4, 102, 98
3, 42592, Note_on_c, 4, 100, 80
3, 42614, Note_on_c, 4, 102, 0
3, 42710, Note_on_c, 4, 98, 103
3, 42713, Note_on_c, 4, 100, 0
3, 42828, Note_on_c, 4, 97, 91
3, 42844, Note_on_c, 4, 98, 0
3, 42899, Note_on_c, 4, 97, 0
3, 42950, Note_on_c, 4, 95, 72
3, 43030, Note_on_c, 4, 95, 0
3, 43057, Note_on_c, 4, 93, 60
3, 43153, Note_on_c, 4, 93, 0
3, 43180, Note_on_c, 4, 91, 86
3, 43416, Note_on_c, 4, 91, 0
3, 43441, Note_on_c, 4, 98, 100
3, 43668, Note_on_c, 4, 95, 85
3, 43671, Note_on_c, 4, 98, 0
3, 43776, Note_on_c, 4, 95, 0
3, 43915, Note_on_c, 4, 91, 91
3, 44037, Note_on_c, 4, 91, 0
3, 44394, Note_on_c, 4, 100, 91
3, 44511, Note_on_c, 4, 98, 84
3, 44516, Note_on_c, 4, 100, 0
3, 44611, Note_on_c, 4, 97, 89
3, 44635, Note_on_c, 4, 98, 0
3, 44733, Note_on_c, 4, 97, 0
3, 44733, Note_on_c, 4, 95, 78
3, 44842, Note_on_c, 4, 95, 0
3, 44853, Note_on_c, 4, 94, 80
3, 44944, Note_on_c, 4, 94, 0
3, 44959, Note_on_c, 4, 92, 76
3, 45090, Note_on_c, 4, 90, 99
3, 45094, Note_on_c, 4, 92, 0
3, 45240, Note_on_c, 4, 90, 0
3, 45326, Note_on_c, 4, 97, 93
3, 45564, Note_on_c, 4, 97, 0
3, 45567, Note_on_c, 4, 94, 91
3, 45644, Note_on_c, 4, 94, 0
3, 45833, Note_on_c, 4, 102, 96
3, 46196, Note_on_c, 4, 100, 89
3, 46199, Note_on_c, 4, 102, 0
3, 46322, Note_on_c, 4, 98, 93
3, 46329, Note_on_c, 4, 100, 0
3, 46430, Note_on_c, 4, 97, 82
3, 46433, Note_on_c, 4, 98, 0
3, 46555, Note_on_c, 4, 95, 73
3, 46563, Note_on_c, 4, 97, 0
3, 46565, Note_on_c, 4, 96, 49
3, 46583, Note_on_c, 4, 96, 0
3, 46680, Note_on_c, 4, 95, 0
3, 46680, Note_on_c, 4, 93, 80
3, 46739, Note_on_c, 4, 93, 0
3, 46797, Note_on_c, 4, 91, 100
3, 46908, Note_on_c, 4, 102, 89
3, 46916, Note_on_c, 4, 91, 0
3, 47004, Note_on_c, 4, 102, 0
3, 47035, Note_on_c, 4, 100, 94
3, 47150, Note_on_c, 4, 100, 0
3, 47152, Note_on_c, 4, 98, 100
3, 47255, Note_on_c, 4, 98, 0
3, 47263, Note_on_c, 4, 97, 78
3, 47381, Note_on_c, 4, 95, 78
3, 47399, Note_on_c, 4, 97, 0
3, 47454, Note_on_c, 4, 95, 0
3, 47513, Note_on_c, 4, 94, 96
3, 47608, Note_on_c, 4, 94, 0
3, 47615, Note_on_c, 4, 92, 75
3, 47735, Note_on_c, 4, 92, 0
3, 47737, Note_on_c, 4, 90, 92
3, 47781, Note_on_c, 4, 90, 0
3, 47852, Note_on_c, 4, 100, 87
3, 47924, Note_on_c, 4, 100, 0
3, 48019, Note_on_c, 4, 98, 101
3, 48122, Note_on_c, 4, 97, 90
3, 48125, Note_on_c, 4, 98, 0
3, 48220, Note_on_c, 4, 97, 0
3, 48235, Note_on_c, 4, 95, 73
3, 48335, Note_on_c, 4, 93, 59
3, 48337, Note_on_c, 4, 95, 0
3, 48397, Note_on_c, 4, 93, 0
3, 48456, Note_on_c, 4, 91, 82
3, 48575, Note_on_c, 4, 90, 79
3, 48591, Note_on_c, 4, 91, 0
3, 48674, Note_on_c, 4, 90, 0
3, 48691, Note_on_c, 4, 88, 80
3, 48797, Note_on_c, 4, 88, 0
3, 48798, Note_on_c, 4, 86, 86
3, 48926, Note_on_c, 4, 85, 95
3, 48953, Note_on_c, 4, 86, 0
3, 48981, Note_on_c, 4, 85, 0
3, 49064, Note_on_c, 4, 94, 90
3, 49185, Note_on_c, 4, 95, 76
3, 49187, Note_on_c, 4, 94, 0
3, 49282, Note_on_c, 4, 95, 0
3, 49283, Note_on_c, 4, 97, 89
3, 49336, Note_on_c, 4, 97, 0
3, 49412, Note_on_c, 4, 95, 95
3, 49462, Note_on_c, 4, 95, 0
3, 49463, Note_on_c, 4, 94, 77
3, 49506, Note_on_c, 4, 95, 56
3, 49528, Note_on_c, 4, 94, 0
3, 49554, Note_on_c, 4, 95, 0
3, 49560, Note_on_c, 4, 94, 78
3, 49583, Note_on_c, 4, 95, 83
3, 49592, Note_on_c, 4, 94, 0
3, 49634, Note_on_c, 4, 95, 0
3, 49636, Note_on_c, 4, 94, 90
3, 49766, Note_on_c, 4, 95, 73
3, 49779, Note_on_c, 4, 94, 0
3, 49836, Note_on_c, 4, 95, 0
3, 49892, Note_on_c, 4, 95, 78
3, 50002, Note_on_c, 4, 95, 0
3, 50150, Note_on_c, 4, 95, 92
3, 50256, Note_on_c, 4, 95, 0
3, 50259, Note_on_c, 4, 97, 90
3, 50376, Note_on_c, 4, 97, 0
3, 50385, Note_on_c, 4, 98, 91
3, 50497, Note_on_c, 4, 98, 0
3, 50499, Note_on_c, 4, 100, 71
3, 50617, Note_on_c, 4, 102, 85
3, 50625, Note_on_c, 4, 100, 0
3, 50712, Note_on_c, 4, 102, 0
3, 50724, Note_on_c, 4, 100, 64
3, 50846, Note_on_c, 4, 100, 0
3, 50851, Note_on_c, 4, 98, 96
3, 50976, Note_on_c, 4, 98, 0
3, 51082, Note_on_c, 4, 102, 96
3, 51324, Note_on_c, 4, 107, 96
3, 51328, Note_on_c, 4, 102, 0
3, 51448, Note_on_c, 4, 107, 0
3, 51592, Note_on_c, 4, 106, 91
3, 51702, Note_on_c, 4, 106, 0
3, 51827, Note_on_c, 4, 107, 97
3, 51876, Note_on_c, 4, 107, 0
3, 51951, Note_on_c, 4, 95, 57
3, 52043, Note_on_c, 4, 95, 0
3, 52073, Note_on_c, 4, 98, 89
3, 52168, Note_on_c, 4, 98, 0
3, 52187, Note_on_c, 4, 100, 82
3, 52308, Note_on_c, 4, 100, 0
3, 52309, Note_on_c, 4, 102, 98
3, 52431, Note_on_c, 4, 103, 86
3, 52437, Note_on_c, 4, 102, 0
3, 52559, Note_on_c, 4, 102, 68
3, 52561, Note_on_c, 4, 103, 0
3, 52648, Note_on_c, 4, 103, 70
3, 52652, Note_on_c, 4, 102, 0
3, 52774, Note_on_c, 4, 103, 0
3, 52778, Note_on_c, 4, 102, 94
3, 52891, Note_on_c, 4, 100, 81
3, 52894, Note_on_c, 4, 102, 0
3, 53011, Note_on_c, 4, 102, 92
3, 53020, Note_on_c, 4, 100, 0
3, 53128, Note_on_c, 4, 107, 86
3, 53131, Note_on_c, 4, 102, 0
3, 53224, Note_on_c, 4, 107, 0
3, 53249, Note_on_c, 4, 106, 96
3, 53367, Note_on_c, 4, 104, 86
3, 53374, Note_on_c, 4, 106, 0
3, 53489, Note_on_c, 4, 102, 89
3, 53492, Note_on_c, 4, 104, 0
3, 53584, Note_on_c, 4, 100, 84
3, 53587, Note_on_c, 4, 102, 0
3, 53679, Note_on_c, 4, 100, 0
3, 53706, Note_on_c, 4, 98, 93
3, 53822, Note_on_c, 4, 98, 0
3, 53983, Note_on_c, 4, 90, 89
3, 54230, Note_on_c, 4, 95, 71
3, 54243, Note_on_c, 4, 90, 0
3, 54361, Note_on_c, 4, 95, 0
3, 54486, Note_on_c, 4, 94, 85
3, 54621, Note_on_c, 4, 94, 0
3, 54739, Note_on_c, 4, 95, 71
3, 54977, Note_on_c, 4, 98, 93
3, 54985, Note_on_c, 4, 95, 0
3, 55209, Note_on_c, 4, 97, 89
3, 55229, Note_on_c, 4, 98, 0
3, 55433, Note_on_c, 4, 97, 0
3, 55441, Note_on_c, 4, 94, 85
3, 55610, Note_on_c, 4, 94, 0
3, 55680, Note_on_c, 4, 95, 87
3, 55810, Note_on_c, 4, 98, 86
3, 55823, Note_on_c, 4, 95, 0
3, 55921, Note_on_c, 4, 98, 0
3, 55930, Note_on_c, 4, 97, 89
3, 56043, Note_on_c, 4, 97, 0
3, 56047, Note_on_c, 4, 95, 76
3, 56163, Note_on_c, 4, 95, 0
3, 56175, Note_on_c, 4, 102, 95
3, 56694, Note_on_c, 4, 102, 0
3, 56767, Note_on_c, 4, 98, 93
3, 56869, Note_on_c, 4, 98, 0
3, 56882, Note_on_c, 4, 97, 85
3, 56982, Note_on_c, 4, 97, 0
3, 56988, Note_on_c, 4, 95, 60
3, 57079, Note_on_c, 4, 95, 0
3, 57114, Note_on_c, 4, 100, 92
3, 57618, Note_on_c, 4, 100, 0
3, 57727, Note_on_c, 4, 93, 79
3, 57827, Note_on_c, 4, 93, 0
3, 57839, Note_on_c, 4, 95, 73
3, 57934, Note_on_c, 4, 95, 0
3, 57948, Note_on_c, 4, 97, 73
3, 58018, Note_on_c, 4, 97, 0
3, 58077, Note_on_c, 4, 98, 100
3, 58586, Note_on_c, 4, 98, 0
3, 58665, Note_on_c, 4, 91, 82
3, 58769, Note_on_c, 4, 91, 0
3, 58775, Note_on_c, 4, 90, 83
3, 58874, Note_on_c, 4, 90, 0
3, 58877, Note_on_c, 4, 88, 66
3, 58969, Note_on_c, 4, 88, 0
3, 59010, Note_on_c, 4, 97, 94
3, 59546, Note_on_c, 4, 97, 0
3, 59655, Note_on_c, 4, 100, 95
3, 59769, Note_on_c, 4, 98, 94
3, 59772, Note_on_c, 4, 100, 0
3, 59881, Note_on_c, 4, 97, 88
3, 59895, Note_on_c, 4, 98, 0
3, 59995, Note_on_c, 4, 97, 0
3, 59998, Note_on_c, 4, 95, 83
3, 60097, Note_on_c, 4, 93, 66
3, 60104, Note_on_c, 4, 95, 0
3, 60201, Note_on_c, 4, 93, 0
3, 60218, Note_on_c, 4, 91, 66
3, 60301, Note_on_c, 4, 91, 0
3, 60321, Note_on_c, 4, 90, 79
3, 60409, Note_on_c, 4, 90, 0
3, 60444, Note_on_c, 4, 88, 91
3, 60683, Note_on_c, 4, 88, 0
3, 60964, Note_on_c, 4, 100, 97
3, 61511, Note_on_c, 4, 100, 0
3, 61572, Note_on_c, 4, 103, 93
3, 61670, Note_on_c, 4, 103, 0
3, 61675, Note_on_c, 4, 102, 89
3, 61794, Note_on_c, 4, 100, 65
3, 61796, Note_on_c, 4, 102, 0
3, 61906, Note_on_c, 4, 98, 100
3, 61910, Note_on_c, 4, 100, 0
3, 62022, Note_on_c, 4, 97, 86
3, 62024, Note_on_c, 4, 98, 0
3, 62130, Note_on_c, 4, 97, 0
3, 62131, Note_on_c, 4, 95, 76
3, 62223, Note_on_c, 4, 95, 0
3, 62233, Note_on_c, 4, 93, 74
3, 62359, Note_on_c, 4, 93, 0
3, 62359, Note_on_c, 4, 91, 92
3, 62565, Note_on_c, 4, 91, 0
3, 62873, Note_on_c, 4, 103, 97
3, 63473, Note_on_c, 4, 103, 0
3, 63475, Note_on_c, 4, 107, 92
3, 63575, Note_on_c, 4, 107, 0
3, 63579, Note_on_c, 4, 105, 85
3, 63686, Note_on_c, 4, 103, 84
3, 63688, Note_on_c, 4, 105, 0
3, 63777, Note_on_c, 4, 103, 0
3, 63798, Note_on_c, 4, 102, 92
3, 63892, Note_on_c, 4, 100, 89
3, 63896, Note_on_c, 4, 102, 0
3, 64020, Note_on_c, 4, 98, 93
3, 64025, Note_on_c, 4, 100, 0
3, 64105, Note_on_c, 4, 98, 0
3, 64118, Note_on_c, 4, 97, 87
3, 64217, Note_on_c, 4, 97, 0
3, 64259, Note_on_c, 4, 95, 94
3, 64484, Note_on_c, 4, 95, 0
3, 64791, Note_on_c, 4, 107, 97
3, 65339, Note_on_c, 4, 107, 0
3, 65396, Note_on_c, 4, 100, 95
3, 65490, Note_on_c, 4, 100, 0
3, 65502, Note_on_c, 4, 102, 92
3, 65596, Note_on_c, 4, 102, 0
3, 65610, Note_on_c, 4, 103, 86
3, 65686, Note_on_c, 4, 103, 0
3, 65735, Note_on_c, 4, 105, 97
3, 65850, Note_on_c, 4, 107, 91
3, 65859, Note_on_c, 4, 105, 0
3, 65948, Note_on_c, 4, 107, 0
3, 65966, Note_on_c, 4, 105, 90
3, 66051, Note_on_c, 4, 105, 0
3, 66078, Note_on_c, 4, 103, 86
3, 66139, Note_on_c, 4, 103, 0
3, 66205, Note_on_c, 4, 102, 96
3, 67222, Note_on_c, 4, 102, 0
3, 67320, Note_on_c, 4, 98, 100
3, 67429, Note_on_c, 4, 98, 0
3, 67432, Note_on_c, 4, 100, 86
3, 67516, Note_on_c, 4, 100, 0
3, 67536, Note_on_c, 4, 102, 91
3, 67630, Note_on_c, 4, 102, 0
3, 67650, Note_on_c, 4, 103, 94
3, 67756, Note_on_c, 4, 102, 84
3, 67764, Note_on_c, 4, 103, 0
3, 67872, Note_on_c, 4, 102, 0
3, 67877, Note_on_c, 4, 100, 83
3, 67986, Note_on_c, 4, 98, 93
3, 67988, Note_on_c, 4, 100, 0
3, 68091, Note_on_c, 4, 98, 0
3, 68109, Note_on_c, 4, 97, 90
3, 68641, Note_on_c, 4, 97, 0
3, 68861, Note_on_c, 4, 97, 101
3, 68966, Note_on_c, 4, 97, 0
3, 69118, Note_on_c, 4, 98, 104
3, 69230, Note_on_c, 4, 97, 89
3, 69245, Note_on_c, 4, 98, 0
3, 69336, Note_on_c, 4, 97, 0
3, 69347, Note_on_c, 4, 95, 67
3, 69459, Note_on_c, 4, 93, 67
3, 69462, Note_on_c, 4, 95, 0
3, 69575, Note_on_c, 4, 91, 87
3, 69577, Note_on_c, 4, 93, 0
3, 69697, Note_on_c, 4, 95, 75
3, 69708, Note_on_c, 4, 91, 0
3, 69803, Note_on_c, 4, 95, 0
3, 69804, Note_on_c, 4, 93, 64
3, 69905, Note_on_c, 4, 93, 0
3, 69909, Note_on_c, 4, 96, 83
3, 70004, Note_on_c, 4, 96, 0
3, 70032, Note_on_c, 4, 95, 81
3, 70148, Note_on_c, 4, 93, 68
3, 70151, Note_on_c, 4, 95, 0
3, 70264, Note_on_c, 4, 91, 76
3, 70266, Note_on_c, 4, 93, 0
3, 70371, Note_on_c, 4, 91, 0
3, 70374, Note_on_c, 4, 90, 78
3, 70490, Note_on_c, 4, 90, 0
3, 70493, Note_on_c, 4, 88, 78
3, 70617, Note_on_c, 4, 91, 71
3, 70626, Note_on_c, 4, 88, 0
3, 70731, Note_on_c, 4, 91, 0
3, 70732, Note_on_c, 4, 90, 79
3, 70839, Note_on_c, 4, 93, 70
3, 70845, Note_on_c, 4, 90, 0
3, 70886, Note_on_c, 4, 93, 0
3, 70967, Note_on_c, 4, 91, 86
3, 71081, Note_on_c, 4, 95, 60
3, 71095, Note_on_c, 4, 91, 0
3, 71193, Note_on_c, 4, 93, 64
3, 71211, Note_on_c, 4, 95, 0
3, 71321, Note_on_c, 4, 96, 83
3, 71328, Note_on_c, 4, 93, 0
3, 71441, Note_on_c, 4, 96, 0
3, 71442, Note_on_c, 4, 95, 78
3, 71557, Note_on_c, 4, 98, 91
3, 71561, Note_on_c, 4, 95, 0
3, 71675, Note_on_c, 4, 97, 89
3, 71683, Note_on_c, 4, 98, 0
3, 71780, Note_on_c, 4, 97, 0
3, 71787, Note_on_c, 4, 100, 87
3, 71827, Note_on_c, 4, 100, 0
3, 71944, Note_on_c, 4, 90, 98
3, 72341, Note_on_c, 4, 90, 0
3, 72347, Note_on_c, 4, 91, 74
3, 72421, Note_on_c, 4, 91, 0
3, 72465, Note_on_c, 4, 90, 93
3, 72522, Note_on_c, 4, 90, 0
3, 72523, Note_on_c, 4, 88, 73
3, 72571, Note_on_c, 4, 90, 82
3, 72582, Note_on_c, 4, 88, 0
3, 72605, Note_on_c, 4, 90, 0
3, 72611, Note_on_c, 4, 88, 60
3, 72640, Note_on_c, 4, 90, 90
3, 72679, Note_on_c, 4, 90, 0
3, 72800, Note_on_c, 4, 86, 93
3, 72803, Note_on_c, 4, 88, 0
3, 72865, Note_on_c, 4, 86, 0
3, 72926, Note_on_c, 4, 86, 86
3, 73129, Note_on_c, 4, 86, 0
3, 73195, Note_on_c, 4, 93, 75
3, 73434, Note_on_c, 4, 98, 104
3, 73437, Note_on_c, 4, 93, 0
3, 73623, Note_on_c, 4, 98, 0
3, 73682, Note_on_c, 4, 97, 99
3, 73831, Note_on_c, 4, 97, 0
3, 73915, Note_on_c, 4, 98, 94
3, 74021, Note_on_c, 4, 98, 0
3, 74031, Note_on_c, 4, 97, 95
3, 74149, Note_on_c, 4, 98, 94
3, 74153, Note_on_c, 4, 97, 0
3, 74270, Note_on_c, 4, 100, 81
3, 74278, Note_on_c, 4, 98, 0
3, 74395, Note_on_c, 4, 102, 95
3, 74423, Note_on_c, 4, 100, 0
3, 74518, Note_on_c, 4, 103, 88
3, 74521, Note_on_c, 4, 102, 0
3, 74632, Note_on_c, 4, 105, 84
3, 74645, Note_on_c, 4, 103, 0
3, 74734, Note_on_c, 4, 105, 0
3, 74741, Note_on_c, 4, 103, 83
3, 74852, Note_on_c, 4, 102, 100
3, 74876, Note_on_c, 4, 103, 0
3, 74903, Note_on_c, 4, 102, 0
3, 75112, Note_on_c, 4, 90, 92
3, 75225, Note_on_c, 4, 91, 78
3, 75231, Note_on_c, 4, 90, 0
3, 75332, Note_on_c, 4, 93, 64
3, 75339, Note_on_c, 4, 91, 0
3, 75456, Note_on_c, 4, 93, 0
3, 75456, Note_on_c, 4, 95, 71
3, 75575, Note_on_c, 4, 95, 0
3, 75582, Note_on_c, 4, 96, 79
3, 75683, Note_on_c, 4, 96, 0
3, 75694, Note_on_c, 4, 98, 93
3, 75806, Note_on_c, 4, 98, 0
3, 75808, Note_on_c, 4, 100, 86
3, 75928, Note_on_c, 4, 103, 85
3, 75933, Note_on_c, 4, 100, 0
3, 76044, Note_on_c, 4, 102, 89
3, 76047, Note_on_c, 4, 103, 0
3, 76159, Note_on_c, 4, 103, 86
3, 76162, Note_on_c, 4, 102, 0
3, 76291, Note_on_c, 4, 105, 98
3, 76301, Note_on_c, 4, 103, 0
3, 76415, Note_on_c, 4, 103, 82
3, 76417, Note_on_c, 4, 105, 0
3, 76534, Note_on_c, 4, 102, 92
3, 76537, Note_on_c, 4, 103, 0
3, 76625, Note_on_c, 4, 102, 0
3, 76638, Note_on_c, 4, 100, 80
3, 76770, Note_on_c, 4, 98, 106
3, 76781, Note_on_c, 4, 100, 0
3, 76860, Note_on_c, 4, 98, 0
3, 77035, Note_on_c, 4, 91, 84
3, 77145, Note_on_c, 4, 93, 72
3, 77155, Note_on_c, 4, 91, 0
3, 77275, Note_on_c, 4, 95, 78
3, 77278, Note_on_c, 4, 93, 0
3, 77389, Note_on_c, 4, 96, 84
3, 77392, Note_on_c, 4, 95, 0
3, 77515, Note_on_c, 4, 98, 92
3, 77521, Note_on_c, 4, 96, 0
3, 77618, Note_on_c, 4, 96, 75
3, 77628, Note_on_c, 4, 98, 0
3, 77731, Note_on_c, 4, 96, 0
3, 77742, Note_on_c, 4, 95, 85
3, 77865, Note_on_c, 4, 95, 0
3, 77984, Note_on_c, 4, 98, 96
3, 78227, Note_on_c, 4, 103, 99
3, 78237, Note_on_c, 4, 98, 0
3, 78389, Note_on_c, 4, 103, 0
3, 78480, Note_on_c, 4, 102, 99
3, 78572, Note_on_c, 4, 102, 0
3, 78727, Note_on_c, 4, 103, 94
3, 78816, Note_on_c, 4, 103, 0
3, 78975, Note_on_c, 4, 91, 84
3, 79081, Note_on_c, 4, 91, 0
3, 79087, Note_on_c, 4, 93, 66
3, 79193, Note_on_c, 4, 93, 0
3, 79212, Note_on_c, 4, 95, 73
3, 79317, Note_on_c, 4, 95, 0
3, 79323, Note_on_c, 4, 96, 88
3, 79447, Note_on_c, 4, 98, 99
3, 79449, Note_on_c, 4, 96, 0
3, 79528, Note_on_c, 4, 98, 0
3, 79555, Note_on_c, 4, 100, 75
3, 79610, Note_on_c, 4, 100, 0
3, 79687, Note_on_c, 4, 101, 103
3, 79794, Note_on_c, 4, 101, 0
3, 79799, Note_on_c, 4, 100, 83
3, 79919, Note_on_c, 4, 100, 0
3, 79921, Note_on_c, 4, 98, 93
3, 80015, Note_on_c, 4, 98, 0
3, 80028, Note_on_c, 4, 100, 82
3, 80118, Note_on_c, 4, 100, 0
3, 80149, Note_on_c, 4, 101, 100
3, 80264, Note_on_c, 4, 105, 90
3, 80266, Note_on_c, 4, 101, 0
3, 80378, Note_on_c, 4, 103, 86
3, 80399, Note_on_c, 4, 105, 0
3, 80447, Note_on_c, 4, 103, 0
3, 80501, Note_on_c, 4, 101, 70
3, 80590, Note_on_c, 4, 101, 0
3, 80618, Note_on_c, 4, 100, 94
3, 80740, Note_on_c, 4, 98, 92
3, 80745, Note_on_c, 4, 100, 0
3, 80844, Note_on_c, 4, 98, 0
3, 80859, Note_on_c, 4, 100, 84
3, 80964, Note_on_c, 4, 100, 0
3, 80980, Note_on_c, 4, 101, 88
3, 81040, Note_on_c, 4, 101, 0
3, 81102, Note_on_c, 4, 103, 94
3, 81214, Note_on_c, 4, 105, 86
3, 81223, Note_on_c, 4, 103, 0
3, 81330, Note_on_c, 4, 105, 0
3, 81330, Note_on_c, 4, 103, 73
3, 81430, Note_on_c, 4, 105, 76
3, 81433, Note_on_c, 4, 103, 0
3, 81532, Note_on_c, 4, 105, 0
3, 81545, Note_on_c, 4, 103, 92
3, 81678, Note_on_c, 4, 101, 89
3, 81681, Note_on_c, 4, 103, 0
3, 81795, Note_on_c, 4, 101, 0
3, 81797, Note_on_c, 4, 103, 91
3, 81912, Note_on_c, 4, 108, 86
3, 81914, Note_on_c, 4, 103, 0
3, 82024, Note_on_c, 4, 108, 0
3, 82031, Note_on_c, 4, 107, 90
3, 82150, Note_on_c, 4, 105, 87
3, 82160, Note_on_c, 4, 107, 0
3, 82272, Note_on_c, 4, 105, 0
3, 82274, Note_on_c, 4, 103, 89
3, 82374, Note_on_c, 4, 103, 0
3, 82375, Note_on_c, 4, 101, 87
3, 82496, Note_on_c, 4, 101, 0
3, 82508, Note_on_c, 4, 100, 89
3, 82620, Note_on_c, 4, 100, 0
3, 82773, Note_on_c, 4, 91, 82
3, 82997, Note_on_c, 4, 91, 0
3, 83020, Note_on_c, 4, 96, 96
3, 83133, Note_on_c, 4, 96, 0
3, 83276, Note_on_c, 4, 95, 77
3, 83405, Note_on_c, 4, 95, 0
3, 83525, Note_on_c, 4, 96, 93
3, 83780, Note_on_c, 4, 96, 0
3, 83784, Note_on_c, 4, 100, 80
3, 84019, Note_on_c, 4, 98, 89
3, 84038, Note_on_c, 4, 100, 0
3, 84114, Note_on_c, 4, 98, 0
3, 84236, Note_on_c, 4, 95, 67
3, 84422, Note_on_c, 4, 95, 0
3, 84497, Note_on_c, 4, 96, 96
3, 84614, Note_on_c, 4, 98, 85
3, 84621, Note_on_c, 4, 96, 0
3, 84724, Note_on_c, 4, 98, 0
3, 84736, Note_on_c, 4, 100, 78
3, 84841, Note_on_c, 4, 100, 0
3, 84845, Note_on_c, 4, 96, 81
3, 84954, Note_on_c, 4, 96, 0
3, 84955, Note_on_c, 4, 93, 75
3, 85073, Note_on_c, 4, 96, 78
3, 85083, Note_on_c, 4, 93, 0
3, 85183, Note_on_c, 4, 96, 0
3, 85189, Note_on_c, 4, 95, 75
3, 85295, Note_on_c, 4, 93, 74
3, 85301, Note_on_c, 4, 95, 0
3, 85420, Note_on_c, 4, 93, 0
3, 85423, Note_on_c, 4, 98, 95
3, 85536, Note_on_c, 4, 96, 72
3, 85540, Note_on_c, 4, 98, 0
3, 85652, Note_on_c, 4, 95, 68
3, 85655, Note_on_c, 4, 96, 0
3, 85762, Note_on_c, 4, 96, 76
3, 85764, Note_on_c, 4, 95, 0
3, 85897, Note_on_c, 4, 98, 96
3, 85906, Note_on_c, 4, 96, 0
3, 86010, Note_on_c, 4, 98, 0
3, 86016, Note_on_c, 4, 93, 60
3, 86141, Note_on_c, 4, 95, 66
3, 86145, Note_on_c, 4, 93, 0
3, 86253, Note_on_c, 4, 95, 0
3, 86259, Note_on_c, 4, 91, 80
3, 86357, Note_on_c, 4, 91, 0
3, 86381, Note_on_c, 4, 96, 87
3, 86502, Note_on_c, 4, 95, 71
3, 86505, Note_on_c, 4, 96, 0
3, 86574, Note_on_c, 4, 95, 0
3, 86641, Note_on_c, 4, 96, 92
3, 86917, Note_on_c, 4, 96, 0
3, 86999, Note_on_c, 4, 100, 88
3, 87112, Note_on_c, 4, 98, 92
3, 87114, Note_on_c, 4, 100, 0
3, 87215, Note_on_c, 4, 98, 0
3, 87225, Note_on_c, 4, 96, 81
3, 87332, Note_on_c, 4, 96, 0
3, 87349, Note_on_c, 4, 95, 83
3, 87360, Control_c, 4, 7, 114
3, 87360, Control_c, 4, 10, 68
3, 87530, Note_on_c, 4, 95, 0
3, 87586, Note_on_c, 4, 100, 87
3, 87691, Note_on_c, 4, 100, 0
3, 87696, Note_on_c, 4, 99, 90
3, 87757, Note_on_c, 4, 99, 0
3, 87840, Note_on_c, 4, 100, 90
3, 88421, Note_on_c, 4, 100, 0
3, 88552, Note_on_c, 4, 93, 81
3, 88665, Note_on_c, 4, 93, 0
3, 88797, Note_on_c, 4, 98, 100
3, 89602, Note_on_c, 4, 100, 84
3, 89615, Note_on_c, 4, 98, 0
3, 89671, Note_on_c, 4, 100, 0
3, 89747, Note_on_c, 4, 98, 106
3, 89810, Note_on_c, 4, 98, 0
3, 89812, Note_on_c, 4, 97, 85
3, 89858, Note_on_c, 4, 98, 85
3, 89863, Note_on_c, 4, 97, 0
3, 89918, Note_on_c, 4, 97, 96
3, 89921, Note_on_c, 4, 98, 0
3, 90058, Note_on_c, 4, 98, 82
3, 90083, Note_on_c, 4, 97, 0
3, 90115, Note_on_c, 4, 98, 0
3, 90177, Note_on_c, 4, 98, 97
3, 90292, Note_on_c, 4, 98, 0
3, 90445, Note_on_c, 4, 86, 89
3, 90563, Note_on_c, 4, 88, 80
3, 90568, Note_on_c, 4, 86, 0
3, 90680, Note_on_c, 4, 90, 82
3, 90699, Note_on_c, 4, 88, 0
3, 90798, Note_on_c, 4, 90, 0
3, 90806, Note_on_c, 4, 91, 76
3, 90923, Note_on_c, 4, 93, 61
3, 90930, Note_on_c, 4, 91, 0
3, 91023, Note_on_c, 4, 93, 0
3, 91031, Note_on_c, 4, 95, 72
3, 91114, Note_on_c, 4, 95, 0
3, 91160, Note_on_c, 4, 96, 96
3, 91349, Note_on_c, 4, 96, 0
3, 91418, Note_on_c, 4, 88, 68
3, 91624, Note_on_c, 4, 88, 0
3, 91642, Note_on_c, 4, 93, 73
3, 91777, Note_on_c, 4, 93, 0
3, 91908, Note_on_c, 4, 96, 89
3, 92024, Note_on_c, 4, 96, 0
3, 92157, Note_on_c, 4, 95, 84
3, 92257, Note_on_c, 4, 95, 0
3, 92271, Note_on_c, 4, 91, 75
3, 92390, Note_on_c, 4, 91, 0
3, 92395, Note_on_c, 4, 88, 72
3, 92506, Note_on_c, 4, 88, 0
3, 92508, Note_on_c, 4, 90, 89
3, 92623, Note_on_c, 4, 91, 84
3, 92626, Note_on_c, 4, 90, 0
3, 92745, Note_on_c, 4, 93, 53
3, 92752, Note_on_c, 4, 91, 0
3, 92857, Note_on_c, 4, 93, 0
3, 92867, Note_on_c, 4, 95, 82
3, 92974, Note_on_c, 4, 96, 95
3, 92981, Note_on_c, 4, 95, 0
3, 93061, Note_on_c, 4, 96, 0
3, 93117, Note_on_c, 4, 98, 101
3, 93233, Note_on_c, 4, 96, 86
3, 93240, Note_on_c, 4, 98, 0
3, 93356, Note_on_c, 4, 95, 81
3, 93378, Note_on_c, 4, 96, 0
3, 93472, Note_on_c, 4, 95, 0
3, 93473, Note_on_c, 4, 93, 74
3, 93581, Note_on_c, 4, 93, 0
3, 93584, Note_on_c, 4, 91, 82
3, 93701, Note_on_c, 4, 91, 0
3, 93704, Note_on_c, 4, 90, 83
3, 93821, Note_on_c, 4, 88, 75
3, 93825, Note_on_c, 4, 90, 0
3, 93911, Note_on_c, 4, 88, 0
3, 93944, Note_on_c, 4, 98, 80
3, 94009, Note_on_c, 4, 98, 0
3, 94057, Note_on_c, 4, 96, 91
3, 94177, Note_on_c, 4, 95, 72
3, 94179, Note_on_c, 4, 96, 0
3, 94299, Note_on_c, 4, 93, 76
3, 94307, Note_on_c, 4, 95, 0
3, 94418, Note_on_c, 4, 91, 75
3, 94421, Note_on_c, 4, 93, 0
3, 94532, Note_on_c, 4, 91, 0
3, 94540, Note_on_c, 4, 90, 90
3, 94656, Note_on_c, 4, 88, 68
3, 94660, Note_on_c, 4, 90, 0
3, 94778, Note_on_c, 4, 86, 84
3, 94786, Note_on_c, 4, 88, 0
3, 94842, Note_on_c, 4, 86, 0
3, 94899, Note_on_c, 4, 96, 93
3, 94994, Note_on_c, 4, 96, 0
3, 95022, Note_on_c, 4, 95, 86
3, 95138, Note_on_c, 4, 93, 71
3, 95142, Note_on_c, 4, 95, 0
3, 95255, Note_on_c, 4, 91, 72
3, 95260, Note_on_c, 4, 93, 0
3, 95366, Note_on_c, 4, 90, 77
3, 95368, Note_on_c, 4, 91, 0
3, 95482, Note_on_c, 4, 90, 0
3, 95491, Note_on_c, 4, 88, 78
3, 95596, Note_on_c, 4, 86, 84
3, 95603, Note_on_c, 4, 88, 0
3, 95701, Note_on_c, 4, 86, 0
3, 95728, Note_on_c, 4, 84, 83
3, 96133, Note_on_c, 4, 84, 0
3, 96135, Note_on_c, 4, 86, 79
3, 96204, Note_on_c, 4, 84, 77
3, 96217, Note_on_c, 4, 86, 0
3, 96266, Note_on_c, 4, 83, 93
3, 96269, Note_on_c, 4, 84, 0
3, 96370, Note_on_c, 4, 84, 78
3, 96403, Note_on_c, 4, 83, 0
3, 96423, Note_on_c, 4, 86, 82
3, 96433, Note_on_c, 4, 84, 0
3, 96465, Note_on_c, 4, 86, 0
3, 96514, Note_on_c, 4, 83, 104
3, 96571, Note_on_c, 4, 83, 0
3, 96572, Note_on_c, 4, 81, 68
3, 96618, Note_on_c, 4, 83, 67
3, 96652, Note_on_c, 4, 83, 0
3, 96685, Note_on_c, 4, 83, 89
3, 96735, Note_on_c, 4, 83, 0
3, 96861, Note_on_c, 4, 79, 100
3, 96869, Note_on_c, 4, 81, 0
3, 96927, Note_on_c, 4, 79, 0
3, 96997, Note_on_c, 4, 79, 98
3, 97205, Note_on_c, 4, 79, 0
3, 98158, Note_on_c, 4, 91, 95
3, 98259, Note_on_c, 4, 93, 67
3, 98273, Note_on_c, 4, 91, 0
3, 98362, Note_on_c, 4, 93, 0
3, 98384, Note_on_c, 4, 95, 89
3, 98493, Note_on_c, 4, 95, 0
3, 98493, Note_on_c, 4, 96, 86
3, 98620, Note_on_c, 4, 98, 97
3, 98623, Note_on_c, 4, 96, 0
3, 98717, Note_on_c, 4, 96, 84
3, 98721, Note_on_c, 4, 98, 0
3, 98837, Note_on_c, 4, 96, 0
3, 98849, Note_on_c, 4, 95, 98
3, 98964, Note_on_c, 4, 95, 0
3, 99093, Note_on_c, 4, 98, 100
3, 99328, Note_on_c, 4, 103, 99
3, 99342, Note_on_c, 4, 98, 0
3, 99465, Note_on_c, 4, 103, 0
3, 99578, Note_on_c, 4, 102, 97
3, 99680, Note_on_c, 4, 102, 0
3, 99809, Note_on_c, 4, 103, 99
3, 99929, Note_on_c, 4, 103, 0
3, 99930, Note_on_c, 4, 98, 96
3, 100045, Note_on_c, 4, 91, 73
3, 100050, Note_on_c, 4, 98, 0
3, 100161, Note_on_c, 4, 93, 71
3, 100177, Note_on_c, 4, 91, 0
3, 100277, Note_on_c, 4, 95, 76
3, 100280, Note_on_c, 4, 93, 0
3, 100392, Note_on_c, 4, 95, 0
3, 100392, Note_on_c, 4, 96, 91
3, 100506, Note_on_c, 4, 96, 0
3, 100515, Note_on_c, 4, 98, 89
3, 100624, Note_on_c, 4, 100, 86
3, 100633, Note_on_c, 4, 98, 0
3, 100715, Note_on_c, 4, 100, 0
3, 100762, Note_on_c, 4, 98, 102
3, 100868, Note_on_c, 4, 98, 0
3, 100876, Note_on_c, 4, 100, 74
3, 101001, Note_on_c, 4, 98, 96
3, 101006, Note_on_c, 4, 100, 0
3, 101114, Note_on_c, 4, 98, 0
3, 101117, Note_on_c, 4, 100, 82
3, 101241, Note_on_c, 4, 100, 0
3, 101243, Note_on_c, 4, 98, 100
3, 101364, Note_on_c, 4, 96, 92
3, 101371, Note_on_c, 4, 98, 0
3, 101483, Note_on_c, 4, 96, 0
3, 101483, Note_on_c, 4, 98, 94
3, 101596, Note_on_c, 4, 100, 87
3, 101606, Note_on_c, 4, 98, 0
3, 101713, Note_on_c, 4, 100, 0
3, 101723, Note_on_c, 4, 98, 105
3, 101843, Note_on_c, 4, 100, 89
3, 101853, Note_on_c, 4, 98, 0
3, 101965, Note_on_c, 4, 102, 80
3, 101970, Note_on_c, 4, 100, 0
3, 102062, Note_on_c, 4, 102, 0
3, 102073, Note_on_c, 4, 103, 98
3, 102175, Note_on_c, 4, 103, 0
3, 102194, Note_on_c, 4, 105, 93
3, 102311, Note_on_c, 4, 107, 92
3, 102331, Note_on_c, 4, 105, 0
3, 102431, Note_on_c, 4, 107, 0
3, 102435, Note_on_c, 4, 105, 92
3, 102533, Note_on_c, 4, 105, 0
3, 102535, Note_on_c, 4, 103, 89
3, 102637, Note_on_c, 4, 103, 0
3, 102669, Note_on_c, 4, 102, 99
3, 102818, Note_on_c, 4, 102, 0
3, 102918, Note_on_c, 4, 93, 83
3, 103126, Note_on_c, 4, 93, 0
3, 103165, Note_on_c, 4, 98, 101
3, 103329, Note_on_c, 4, 98, 0
3, 103430, Note_on_c, 4, 97, 100
3, 103543, Note_on_c, 4, 97, 0
3, 103655, Note_on_c, 4, 98, 100
3, 103777, Note_on_c, 4, 93, 73
3, 103792, Note_on_c, 4, 98, 0
3, 103894, Note_on_c, 4, 86, 73
3, 103901, Note_on_c, 4, 93, 0
3, 104006, Note_on_c, 4, 88, 50
3, 104013, Note_on_c, 4, 86, 0
3, 104107, Note_on_c, 4, 88, 0
3, 104129, Note_on_c, 4, 90, 88
3, 104254, Note_on_c, 4, 91, 69
3, 104256, Note_on_c, 4, 90, 0
3, 104376, Note_on_c, 4, 93, 61
3, 104378, Note_on_c, 4, 91, 0
3, 104473, Note_on_c, 4, 91, 59
3, 104475, Note_on_c, 4, 93, 0
3, 104609, Note_on_c, 4, 91, 0
3, 104610, Note_on_c, 4, 90, 98
3, 104703, Note_on_c, 4, 90, 0
3, 104868, Note_on_c, 4, 98, 83
3, 105109, Note_on_c, 4, 103, 100
3, 105117, Note_on_c, 4, 98, 0
3, 105245, Note_on_c, 4, 103, 0
3, 105364, Note_on_c, 4, 102, 95
3, 105465, Note_on_c, 4, 102, 0
3, 105604, Note_on_c, 4, 103, 102
3, 105724, Note_on_c, 4, 98, 91
3, 105728, Note_on_c, 4, 103, 0
3, 105840, Note_on_c, 4, 91, 79
3, 105849, Note_on_c, 4, 98, 0
3, 105958, Note_on_c, 4, 93, 48
3, 105971, Note_on_c, 4, 91, 0
3, 106081, Note_on_c, 4, 95, 81
3, 106086, Note_on_c, 4, 93, 0
3, 106194, Note_on_c, 4, 95, 0
3, 106194, Note_on_c, 4, 96, 82
3, 106310, Note_on_c, 4, 98, 89
3, 106316, Note_on_c, 4, 96, 0
3, 106417, Note_on_c, 4, 96, 83
3, 106432, Note_on_c, 4, 98, 0
3, 106474, Note_on_c, 4, 96, 0
3, 106547, Note_on_c, 4, 95, 98
3, 106669, Note_on_c, 4, 91, 77
3, 106678, Note_on_c, 4, 95, 0
3, 106780, Note_on_c, 4, 93, 71
3, 106790, Note_on_c, 4, 91, 0
3, 106882, Note_on_c, 4, 93, 0
3, 106892, Note_on_c, 4, 95, 72
3, 107000, Note_on_c, 4, 95, 0
3, 107026, Note_on_c, 4, 96, 90
3, 107533, Note_on_c, 4, 96, 0
3, 107640, Note_on_c, 4, 93, 73
3, 107745, Note_on_c, 4, 95, 75
3, 107753, Note_on_c, 4, 93, 0
3, 107856, Note_on_c, 4, 95, 0
3, 107858, Note_on_c, 4, 96, 76
3, 107958, Note_on_c, 4, 96, 0
3, 107971, Note_on_c, 4, 98, 86
3, 108089, Note_on_c, 4, 96, 84
3, 108092, Note_on_c, 4, 98, 0
3, 108203, Note_on_c, 4, 98, 78
3, 108209, Note_on_c, 4, 96, 0
3, 108302, Note_on_c, 4, 98, 0
3, 108304, Note_on_c, 4, 100, 91
3, 108345, Note_on_c, 4, 100, 0
3, 108424, Note_on_c, 4, 102, 93
3, 108541, Note_on_c, 4, 102, 0
3, 108549, Note_on_c, 4, 103, 79
3, 108652, Note_on_c, 4, 103, 0
3, 108667, Note_on_c, 4, 105, 81
3, 108780, Note_on_c, 4, 105, 0
3, 108783, Note_on_c, 4, 102, 85
3, 108899, Note_on_c, 4, 102, 0
3, 108904, Note_on_c, 4, 98, 104
3, 109028, Note_on_c, 4, 98, 0
3, 109034, Note_on_c, 4, 103, 93
3, 109152, Note_on_c, 4, 105, 83
3, 109158, Note_on_c, 4, 103, 0
3, 109254, Note_on_c, 4, 107, 82
3, 109263, Note_on_c, 4, 105, 0
3, 109284, Note_on_c, 4, 107, 0
3, 109380, Note_on_c, 4, 96, 100
3, 109478, Note_on_c, 4, 96, 0
3, 109485, Note_on_c, 4, 95, 61
3, 109625, Note_on_c, 4, 93, 72
3, 109632, Note_on_c, 4, 95, 0
3, 109745, Note_on_c, 4, 95, 71
3, 109750, Note_on_c, 4, 93, 0
3, 109829, Note_on_c, 4, 95, 0
3, 109880, Note_on_c, 4, 96, 94
3, 110004, Note_on_c, 4, 98, 90
3, 110009, Note_on_c, 4, 96, 0
3, 110130, Note_on_c, 4, 100, 81
3, 110135, Note_on_c, 4, 98, 0
3, 110239, Note_on_c, 4, 100, 0
3, 110245, Note_on_c, 4, 98, 86
3, 110369, Note_on_c, 4, 96, 91
3, 110371, Note_on_c, 4, 98, 0
3, 110491, Note_on_c, 4, 96, 0
3, 110496, Note_on_c, 4, 95, 76
3, 110605, Note_on_c, 4, 93, 69
3, 110608, Note_on_c, 4, 95, 0
3, 110703, Note_on_c, 4, 91, 47
3, 110705, Note_on_c, 4, 93, 0
3, 110803, Note_on_c, 4, 91, 0
3, 110836, Note_on_c, 4, 98, 102
3, 111383, Note_on_c, 4, 98, 0
3, 111588, Note_on_c, 4, 91, 93
3, 111833, Note_on_c, 4, 96, 100
3, 111853, Note_on_c, 4, 91, 0
3, 111915, Note_on_c, 4, 96, 0
3, 112077, Note_on_c, 4, 95, 86
3, 112142, Note_on_c, 4, 95, 0
3, 112327, Note_on_c, 4, 96, 102
3, 112549, Note_on_c, 4, 96, 0
3, 112562, Note_on_c, 4, 91, 91
3, 112649, Note_on_c, 4, 91, 0
3, 112663, Note_on_c, 4, 93, 63
3, 112732, Note_on_c, 4, 93, 0
3, 112786, Note_on_c, 4, 95, 93
3, 112899, Note_on_c, 4, 96, 85
3, 112903, Note_on_c, 4, 95, 0
3, 113027, Note_on_c, 4, 98, 94
3, 113029, Note_on_c, 4, 96, 0
3, 113135, Note_on_c, 4, 98, 0
3, 113136, Note_on_c, 4, 96, 81
3, 113247, Note_on_c, 4, 96, 0
3, 113264, Note_on_c, 4, 95, 82
3, 113386, Note_on_c, 4, 93, 71
3, 113400, Note_on_c, 4, 95, 0
3, 113484, Note_on_c, 4, 93, 0
3, 113517, Note_on_c, 4, 95, 71
3, 113609, Note_on_c, 4, 95, 0
3, 113630, Note_on_c, 4, 97, 85
3, 113690, Note_on_c, 4, 97, 0
3, 113753, Note_on_c, 4, 98, 100
3, 113868, Note_on_c, 4, 98, 0
3, 114007, Note_on_c, 4, 97, 99
3, 114103, Note_on_c, 4, 97, 0
3, 114251, Note_on_c, 4, 98, 103
3, 114494, Note_on_c, 4, 93, 83
3, 114496, Note_on_c, 4, 98, 0
3, 114590, Note_on_c, 4, 93, 0
3, 114601, Note_on_c, 4, 95, 79
3, 114680, Note_on_c, 4, 95, 0
3, 114733, Note_on_c, 4, 96, 99
3, 114847, Note_on_c, 4, 98, 90
3, 114851, Note_on_c, 4, 96, 0
3, 114973, Note_on_c, 4, 100, 86
3, 114977, Note_on_c, 4, 98, 0
3, 115084, Note_on_c, 4, 100, 0
3, 115085, Note_on_c, 4, 98, 80
3, 115200, Note_on_c, 4, 98, 0
3, 115208, Note_on_c, 4, 96, 95
3, 115317, Note_on_c, 4, 96, 0
3, 115322, Note_on_c, 4, 95, 80
3, 115407, Note_on_c, 4, 95, 0
3, 115440, Note_on_c, 4, 97, 93
3, 115511, Note_on_c, 4, 97, 0
3, 115545, Note_on_c, 4, 99, 83
3, 115626, Note_on_c, 4, 99, 0
3, 115680, Note_on_c, 4, 100, 94
3, 115850, Note_on_c, 4, 100, 0
3, 115917, Note_on_c, 4, 99, 96
3, 116046, Note_on_c, 4, 99, 0
3, 116155, Note_on_c, 4, 100, 95
3, 116272, Note_on_c, 4, 102, 94
3, 116280, Note_on_c, 4, 100, 0
3, 116395, Note_on_c, 4, 103, 93
3, 116399, Note_on_c, 4, 102, 0
3, 116509, Note_on_c, 4, 103, 0
3, 116509, Note_on_c, 4, 102, 80
3, 116623, Note_on_c, 4, 100, 93
3, 116632, Note_on_c, 4, 102, 0
3, 116743, Note_on_c, 4, 100, 0
3, 116746, Note_on_c, 4, 98, 94
3, 116847, Note_on_c, 4, 98, 0
3, 116857, Note_on_c, 4, 97, 85
3, 116955, Note_on_c, 4, 97, 0
3, 116969, Note_on_c, 4, 95, 75
3, 117081, Note_on_c, 4, 95, 0
3, 117087, Note_on_c, 4, 93, 82
3, 117207, Note_on_c, 4, 97, 92
3, 117211, Note_on_c, 4, 93, 0
3, 117257, Note_on_c, 4, 97, 0
3, 117319, Note_on_c, 4, 98, 101
3, 117424, Note_on_c, 4, 98, 0
3, 117435, Note_on_c, 4, 100, 68
3, 117532, Note_on_c, 4, 100, 0
3, 117558, Note_on_c, 4, 102, 96
3, 117679, Note_on_c, 4, 102, 0
3, 117684, Note_on_c, 4, 103, 88
3, 117807, Note_on_c, 4, 105, 93
3, 117818, Note_on_c, 4, 103, 0
3, 117917, Note_on_c, 4, 105, 0
3, 117924, Note_on_c, 4, 103, 86
3, 118027, Note_on_c, 4, 103, 0
3, 118047, Note_on_c, 4, 102, 96
3, 118178, Note_on_c, 4, 103, 86
3, 118181, Note_on_c, 4, 102, 0
3, 118295, Note_on_c, 4, 102, 91
3, 118306, Note_on_c, 4, 103, 0
3, 118401, Note_on_c, 4, 100, 89
3, 118405, Note_on_c, 4, 102, 0
3, 118470, Note_on_c, 4, 100, 0
3, 118531, Note_on_c, 4, 102, 97
3, 118599, Note_on_c, 4, 102, 0
3, 118599, Note_on_c, 4, 100, 71
3, 118655, Note_on_c, 4, 102, 73
3, 118659, Note_on_c, 4, 100, 0
3, 118680, Note_on_c, 4, 102, 0
3, 118693, Note_on_c, 4, 100, 75
3, 118717, Note_on_c, 4, 102, 95
3, 118726, Note_on_c, 4, 100, 0
3, 118757, Note_on_c, 4, 100, 82
3, 118761, Note_on_c, 4, 102, 0
3, 118888, Note_on_c, 4, 98, 104
3, 118897, Note_on_c, 4, 100, 0
3, 118951, Note_on_c, 4, 98, 0
3, 119004, Note_on_c, 4, 98, 94
3, 119581, Note_on_c, 4, 98, 0
3, 119641, Note_on_c, 4, 95, 80
3, 119749, Note_on_c, 4, 91, 80
3, 119754, Note_on_c, 4, 95, 0
3, 119847, Note_on_c, 4, 88, 68
3, 119854, Note_on_c, 4, 91, 0
3, 119975, Note_on_c, 4, 88, 0
3, 119978, Note_on_c, 4, 97, 94
3, 120475, Note_on_c, 4, 97, 0
3, 120582, Note_on_c, 4, 93, 65
3, 120693, Note_on_c, 4, 93, 0
3, 120694, Note_on_c, 4, 98, 91
3, 120801, Note_on_c, 4, 98, 0
3, 120806, Note_on_c, 4, 102, 87
3, 120927, Note_on_c, 4, 102, 0
3, 120938, Note_on_c, 4, 103, 86
3, 121061, Note_on_c, 4, 102, 89
3, 121064, Note_on_c, 4, 103, 0
3, 121173, Note_on_c, 4, 102, 0
3, 121174, Note_on_c, 4, 100, 88
3, 121280, Note_on_c, 4, 102, 88
3, 121294, Note_on_c, 4, 100, 0
3, 121378, Note_on_c, 4, 102, 0
3, 121406, Note_on_c, 4, 103, 98
3, 121527, Note_on_c, 4, 105, 89
3, 121531, Note_on_c, 4, 103, 0
3, 121645, Note_on_c, 4, 107, 88
3, 121648, Note_on_c, 4, 105, 0
3, 121755, Note_on_c, 4, 105, 78
3, 121761, Note_on_c, 4, 107, 0
3, 121882, Note_on_c, 4, 103, 99
3, 121898, Note_on_c, 4, 105, 0
3, 121991, Note_on_c, 4, 103, 0
3, 121995, Note_on_c, 4, 102, 94
3, 122114, Note_on_c, 4, 102, 0
3, 122115, Note_on_c, 4, 100, 93
3, 122222, Note_on_c, 4, 98, 75
3, 122230, Note_on_c, 4, 100, 0
3, 122325, Note_on_c, 4, 98, 0
3, 122341, Note_on_c, 4, 105, 97
3, 122946, Note_on_c, 4, 105, 0
3, 123107, Note_on_c, 4, 98, 103
3, 123344, Note_on_c, 4, 103, 103
3, 123354, Note_on_c, 4, 98, 0
3, 123429, Note_on_c, 4, 103, 0
3, 123589, Note_on_c, 4, 102, 99
3, 123664, Note_on_c, 4, 102, 0
3, 123829, Note_on_c, 4, 103, 103
3, 124072, Note_on_c, 4, 103, 0
3, 124075, Note_on_c, 4, 98, 102
3, 124172, Note_on_c, 4, 98, 0
3, 124189, Note_on_c, 4, 100, 79
3, 124271, Note_on_c, 4, 100, 0
3, 124305, Note_on_c, 4, 102, 103
3, 124421, Note_on_c, 4, 103, 96
3, 124424, Note_on_c, 4, 102, 0
3, 124537, Note_on_c, 4, 105, 95
3, 124542, Note_on_c, 4, 103, 0
3, 124648, Note_on_c, 4, 105, 0
3, 124651, Note_on_c, 4, 103, 86
3, 124751, Note_on_c, 4, 103, 0
3, 124771, Note_on_c, 4, 102, 99
3, 124894, Note_on_c, 4, 102, 0
3, 124896, Note_on_c, 4, 100, 82
3, 124975, Note_on_c, 4, 100, 0
3, 125010, Note_on_c, 4, 102, 93
3, 125084, Note_on_c, 4, 102, 0
3, 125113, Note_on_c, 4, 104, 75
3, 125169, Note_on_c, 4, 104, 0
3, 125245, Note_on_c, 4, 105, 102
3, 125375, Note_on_c, 4, 105, 0
3, 125493, Note_on_c, 4, 104, 101
3, 125568, Note_on_c, 4, 104, 0
3, 125737, Note_on_c, 4, 105, 90
3, 125982, Note_on_c, 4, 100, 99
3, 125990, Note_on_c, 4, 105, 0
3, 126073, Note_on_c, 4, 100, 0
3, 126103, Note_on_c, 4, 102, 89
3, 126173, Note_on_c, 4, 102, 0
3, 126236, Note_on_c, 4, 103, 100
3, 126346, Note_on_c, 4, 105, 91
3, 126349, Note_on_c, 4, 103, 0
3, 126457, Note_on_c, 4, 105, 0
3, 126462, Note_on_c, 4, 107, 93
3, 126558, Note_on_c, 4, 107, 0
3, 126580, Note_on_c, 4, 105, 85
3, 126673, Note_on_c, 4, 105, 0
3, 126698, Note_on_c, 4, 103, 97
3, 126810, Note_on_c, 4, 103, 0
3, 126814, Note_on_c, 4, 102, 91
3, 126901, Note_on_c, 4, 102, 0
3, 126940, Note_on_c, 4, 103, 99
3, 127035, Note_on_c, 4, 103, 0
3, 127048, Note_on_c, 4, 105, 87
3, 127153, Note_on_c, 4, 105, 0
3, 127193, Note_on_c, 4, 107, 100
3, 127297, Note_on_c, 4, 107, 0
3, 127457, Note_on_c, 4, 105, 103
3, 127810, Note_on_c, 4, 102, 92
3, 127823, Note_on_c, 4, 105, 0
3, 127905, Note_on_c, 4, 102, 0
3, 127917, Note_on_c, 4, 103, 91
3, 128013, Note_on_c, 4, 100, 89
3, 128015, Note_on_c, 4, 103, 0
3, 128080, Note_on_c, 4, 100, 0
3, 128134, Note_on_c, 4, 100, 86
3, 128189, Note_on_c, 4, 99, 78
3, 128193, Note_on_c, 4, 100, 0
3, 128220, Note_on_c, 4, 100, 72
3, 128226, Note_on_c, 4, 99, 0
3, 128288, Note_on_c, 4, 99, 80
3, 128296, Note_on_c, 4, 100, 0
3, 128463, Note_on_c, 4, 100, 89
3, 128470, Note_on_c, 4, 99, 0
3, 128521, Note_on_c, 4, 100, 0
3, 128587, Note_on_c, 4, 100, 96
3, 128669, Note_on_c, 4, 100, 0
3, 128708, Note_on_c, 4, 90, 92
3, 128834, Note_on_c, 4, 90, 0
3, 128848, Note_on_c, 4, 91, 79
3, 128949, Note_on_c, 4, 93, 48
3, 128952, Note_on_c, 4, 91, 0
3, 129069, Note_on_c, 4, 95, 86
3, 129094, Note_on_c, 4, 93, 0
3, 129194, Note_on_c, 4, 95, 0
3, 129195, Note_on_c, 4, 96, 75
3, 129317, Note_on_c, 4, 96, 0
3, 129327, Note_on_c, 4, 98, 97
3, 129435, Note_on_c, 4, 100, 58
3, 129439, Note_on_c, 4, 98, 0
3, 129546, Note_on_c, 4, 100, 0
3, 129560, Note_on_c, 4, 102, 92
3, 129688, Note_on_c, 4, 103, 82
3, 129692, Note_on_c, 4, 102, 0
3, 129808, Note_on_c, 4, 103, 0
3, 129811, Note_on_c, 4, 105, 87
3, 129926, Note_on_c, 4, 105, 0
3, 129929, Note_on_c, 4, 102, 83
3, 130057, Note_on_c, 4, 98, 101
3, 130059, Note_on_c, 4, 102, 0
3, 130176, Note_on_c, 4, 98, 0
3, 130188, Note_on_c, 4, 103, 89
3, 130304, Note_on_c, 4, 105, 89
3, 130308, Note_on_c, 4, 103, 0
3, 130409, Note_on_c, 4, 107, 86
3, 130423, Note_on_c, 4, 105, 0
3, 130443, Note_on_c, 4, 107, 0
3, 130536, Note_on_c, 4, 96, 100
3, 130647, Note_on_c, 4, 95, 64
3, 130657, Note_on_c, 4, 96, 0
3, 130783, Note_on_c, 4, 93, 76
3, 130790, Note_on_c, 4, 95, 0
3, 130900, Note_on_c, 4, 93, 0
3, 130902, Note_on_c, 4, 95, 77
3, 130986, Note_on_c, 4, 95, 0
3, 131023, Note_on_c, 4, 96, 96
3, 131141, Note_on_c, 4, 96, 0
3, 131142, Note_on_c, 4, 98, 87
3, 131265, Note_on_c, 4, 100, 86
3, 131274, Note_on_c, 4, 98, 0
3, 131374, Note_on_c, 4, 100, 0
3, 131378, Note_on_c, 4, 98, 87
3, 131505, Note_on_c, 4, 96, 95
3, 131519, Note_on_c, 4, 98, 0
3, 131628, Note_on_c, 4, 96, 0
3, 131629, Note_on_c, 4, 95, 78
3, 131739, Note_on_c, 4, 93, 78
3, 131741, Note_on_c, 4, 95, 0
3, 131835, Note_on_c, 4, 91, 63
3, 131856, Note_on_c, 4, 93, 0
3, 131946, Note_on_c, 4, 91, 0
3, 131968, Note_on_c, 4, 98, 99
3, 132564, Note_on_c, 4, 98, 0
3, 132696, Note_on_c, 4, 91, 86
3, 132942, Note_on_c, 4, 96, 98
3, 132950, Note_on_c, 4, 91, 0
3, 133041, Note_on_c, 4, 96, 0
3, 133185, Note_on_c, 4, 95, 84
3, 133306, Note_on_c, 4, 95, 0
3, 133418, Note_on_c, 4, 96, 96
3, 133534, Note_on_c, 4, 95, 80
3, 133536, Note_on_c, 4, 96, 0
3, 133660, Note_on_c, 4, 96, 86
3, 133664, Note_on_c, 4, 95, 0
3, 133776, Note_on_c, 4, 96, 0
3, 133784, Note_on_c, 4, 98, 88
3, 133904, Note_on_c, 4, 98, 0
3, 133910, Note_on_c, 4, 100, 93
3, 134026, Note_on_c, 4, 101, 90
3, 134039, Note_on_c, 4, 100, 0
3, 134145, Note_on_c, 4, 101, 0
3, 134147, Note_on_c, 4, 103, 83
3, 134254, Note_on_c, 4, 103, 0
3, 134254, Note_on_c, 4, 101, 85
3, 134392, Note_on_c, 4, 100, 101
3, 134394, Note_on_c, 4, 101, 0
3, 134559, Note_on_c, 4, 100, 0
3, 134645, Note_on_c, 4, 103, 104
3, 134871, Note_on_c, 4, 103, 0
3, 134877, Note_on_c, 4, 108, 102
3, 135116, Note_on_c, 4, 107, 101
3, 135133, Note_on_c, 4, 108, 0
3, 135223, Note_on_c, 4, 107, 0
3, 135361, Note_on_c, 4, 108, 102
3, 135491, Note_on_c, 4, 108, 0
3, 135594, Note_on_c, 4, 103, 105
3, 135717, Note_on_c, 4, 103, 0
3, 136066, Note_on_c, 4, 95, 93
3, 136191, Note_on_c, 4, 95, 0
3, 136306, Note_on_c, 4, 96, 99
3, 136551, Note_on_c, 4, 100, 96
3, 136560, Note_on_c, 4, 96, 0
3, 136788, Note_on_c, 4, 98, 100
3, 136805, Note_on_c, 4, 100, 0
3, 136906, Note_on_c, 4, 98, 0
3, 137031, Note_on_c, 4, 95, 83
3, 137132, Note_on_c, 4, 95, 0
3, 137278, Note_on_c, 4, 96, 104
3, 137392, Note_on_c, 4, 98, 97
3, 137454, Note_on_c, 4, 96, 0
3, 137514, Note_on_c, 4, 98, 0
3, 137518, Note_on_c, 4, 100, 71
3, 137633, Note_on_c, 4, 100, 0
3, 137642, Note_on_c, 4, 101, 78
3, 137688, Note_on_c, 4, 101, 0
3, 137771, Note_on_c, 4, 103, 107
3, 137878, Note_on_c, 4, 103, 0
3, 137889, Note_on_c, 4, 105, 92
3, 138002, Note_on_c, 4, 103, 87
3, 138007, Note_on_c, 4, 105, 0
3, 138114, Note_on_c, 4, 105, 94
3, 138124, Note_on_c, 4, 103, 0
3, 138188, Note_on_c, 4, 105, 0
3, 138240, Note_on_c, 4, 103, 101
3, 138362, Note_on_c, 4, 101, 100
3, 138370, Note_on_c, 4, 103, 0
3, 138467, Note_on_c, 4, 101, 0
3, 138490, Note_on_c, 4, 103, 97
3, 138613, Note_on_c, 4, 103, 0
3, 138625, Note_on_c, 4, 108, 99
3, 138749, Note_on_c, 4, 108, 0
3, 138757, Note_on_c, 4, 107, 96
3, 138870, Note_on_c, 4, 105, 94
3, 138879, Note_on_c, 4, 107, 0
3, 138995, Note_on_c, 4, 103, 93
3, 138997, Note_on_c, 4, 105, 0
3, 139106, Note_on_c, 4, 103, 0
3, 139112, Note_on_c, 4, 102, 90
3, 139236, Note_on_c, 4, 102, 0
3, 139242, Note_on_c, 4, 103, 103
3, 140182, Note_on_c, 4, 103, 0
3, 140182, End_track
4, 0, Start_track
4, 0, Title_t, "LH 8"
4, 0, MIDI_port, 0
4, 0, Control_c, 1, 7, 86
4, 0, Control_c, 1, 10, 65
4, 0, Program_c, 1, 73
4, 1192, Note_on_c, 1, 67, 80
4, 1302, Note_on_c, 1, 69, 80
4, 1326, Note_on_c, 1, 67, 0
4, 1431, Note_on_c, 1, 71, 80
4, 1451, Note_on_c, 1, 69, 0
4, 1541, Note_on_c, 1, 71, 0
4, 1542, Note_on_c, 1, 72, 80
4, 1652, Note_on_c, 1, 72, 0
4, 1657, Note_on_c, 1, 74, 80
4, 1762, Note_on_c, 1, 72, 80
4, 1766, Note_on_c, 1, 74, 0
4, 1871, Note_on_c, 1, 72, 0
4, 1895, Note_on_c, 1, 71, 80
4, 2040, Note_on_c, 1, 71, 0
4, 2173, Note_on_c, 1, 74, 80
4, 2412, Note_on_c, 1, 74, 0
4, 2412, Note_on_c, 1, 79, 80
4, 2607, Note_on_c, 1, 79, 0
4, 2644, Note_on_c, 1, 78, 80
4, 2818, Note_on_c, 1, 78, 0
4, 2875, Note_on_c, 1, 79, 80
4, 3110, Note_on_c, 1, 79, 0
4, 3115, Note_on_c, 1, 83, 80
4, 3343, Note_on_c, 1, 81, 80
4, 3354, Note_on_c, 1, 83, 0
4, 3548, Note_on_c, 1, 81, 0
4, 3555, Note_on_c, 1, 78, 80
4, 3778, Note_on_c, 1, 78, 0
4, 3783, Note_on_c, 1, 79, 80
4, 3919, Note_on_c, 1, 79, 0
4, 4046, Note_on_c, 1, 71, 80
4, 4177, Note_on_c, 1, 72, 80
4, 4188, Note_on_c, 1, 71, 0
4, 4288, Note_on_c, 1, 72, 0
4, 4298, Note_on_c, 1, 74, 80
4, 4403, Note_on_c, 1, 76, 80
4, 4406, Note_on_c, 1, 74, 0
4, 4530, Note_on_c, 1, 74, 80
4, 4534, Note_on_c, 1, 76, 0
4, 4646, Note_on_c, 1, 76, 80
4, 4653, Note_on_c, 1, 74, 0
4, 4754, Note_on_c, 1, 76, 0
4, 4768, Note_on_c, 1, 74, 80
4, 4888, Note_on_c, 1, 72, 80
4, 4891, Note_on_c, 1, 74, 0
4, 5013, Note_on_c, 1, 72, 0
4, 5016, Note_on_c, 1, 74, 80
4, 5133, Note_on_c, 1, 74, 0
4, 5134, Note_on_c, 1, 79, 80
4, 5253, Note_on_c, 1, 79, 0
4, 5260, Note_on_c, 1, 78, 80
4, 5381, Note_on_c, 1, 76, 80
4, 5384, Note_on_c, 1, 78, 0
4, 5511, Note_on_c, 1, 74, 80
4, 5528, Note_on_c, 1, 76, 0
4, 5661, Note_on_c, 1, 72, 80
4, 5681, Note_on_c, 1, 74, 0
4, 5755, Note_on_c, 1, 71, 80
4, 5757, Note_on_c, 1, 72, 0
4, 5996, Note_on_c, 1, 71, 0
4, 6004, Note_on_c, 1, 76, 80
4, 6081, Note_on_c, 1, 76, 0
4, 6110, Note_on_c, 1, 75, 80
4, 6187, Note_on_c, 1, 75, 0
4, 6230, Note_on_c, 1, 76, 80
4, 6763, Note_on_c, 1, 76, 0
4, 6930, Note_on_c, 1, 69, 80
4, 7042, Note_on_c, 1, 69, 0
4, 7182, Note_on_c, 1, 74, 80
4, 8016, Note_on_c, 1, 76, 80
4, 8029, Note_on_c, 1, 74, 0
4, 8078, Note_on_c, 1, 76, 0
4, 8152, Note_on_c, 1, 74, 80
4, 8192, Note_on_c, 1, 73, 80
4, 8207, Note_on_c, 1, 74, 0
4, 8235, Note_on_c, 1, 73, 0
4, 8249, Note_on_c, 1, 74, 80
4, 8280, Note_on_c, 1, 73, 80
4, 8311, Note_on_c, 1, 73, 0
4, 8328, Note_on_c, 1, 73, 80
4, 8341, Note_on_c, 1, 74, 0
4, 8486, Note_on_c, 1, 74, 80
4, 8498, Note_on_c, 1, 73, 0
4, 8545, Note_on_c, 1, 74, 0
4, 8615, Note_on_c, 1, 74, 80
4, 9692, Note_on_c, 1, 72, 80
4, 9704, Note_on_c, 1, 74, 0
4, 9825, Note_on_c, 1, 71, 80
4, 9843, Note_on_c, 1, 72, 0
4, 9930, Note_on_c, 1, 69, 80
4, 9933, Note_on_c, 1, 71, 0
4, 10059, Note_on_c, 1, 67, 80
4, 10060, Note_on_c, 1, 69, 0
4, 10183, Note_on_c, 1, 71, 80
4, 10188, Note_on_c, 1, 67, 0
4, 10280, Note_on_c, 1, 71, 0
4, 10285, Note_on_c, 1, 69, 80
4, 10403, Note_on_c, 1, 72, 80
4, 10415, Note_on_c, 1, 69, 0
4, 10524, Note_on_c, 1, 71, 80
4, 10537, Note_on_c, 1, 72, 0
4, 10648, Note_on_c, 1, 69, 80
4, 10650, Note_on_c, 1, 71, 0
4, 10773, Note_on_c, 1, 67, 80
4, 10785, Note_on_c, 1, 69, 0
4, 10883, Note_on_c, 1, 66, 80
4, 10898, Note_on_c, 1, 67, 0
4, 10993, Note_on_c, 1, 66, 0
4, 10998, Note_on_c, 1, 64, 80
4, 11135, Note_on_c, 1, 69, 80
4, 11138, Note_on_c, 1, 64, 0
4, 11255, Note_on_c, 1, 67, 80
4, 11257, Note_on_c, 1, 69, 0
4, 11371, Note_on_c, 1, 69, 80
4, 11378, Note_on_c, 1, 67, 0
4, 11460, Note_on_c, 1, 69, 0
4, 11485, Note_on_c, 1, 66, 80
4, 11630, Note_on_c, 1, 66, 0
4, 11731, Note_on_c, 1, 62, 80
4, 11844, Note_on_c, 1, 64, 80
4, 11861, Note_on_c, 1, 62, 0
4, 11973, Note_on_c, 1, 66, 80
4, 11999, Note_on_c, 1, 64, 0
4, 12089, Note_on_c, 1, 67, 80
4, 12122, Note_on_c, 1, 66, 0
4, 12204, Note_on_c, 1, 67, 0
4, 12212, Note_on_c, 1, 69, 80
4, 12311, Note_on_c, 1, 67, 80
4, 12316, Note_on_c, 1, 69, 0
4, 12402, Note_on_c, 1, 67, 0
4, 12442, Note_on_c, 1, 66, 80
4, 12565, Note_on_c, 1, 66, 0
4, 12685, Note_on_c, 1, 69, 80
4, 12906, Note_on_c, 1, 69, 0
4, 12944, Note_on_c, 1, 74, 80
4, 13100, Note_on_c, 1, 74, 0
4, 13165, Note_on_c, 1, 73, 80
4, 13291, Note_on_c, 1, 73, 0
4, 13422, Note_on_c, 1, 74, 80
4, 13537, Note_on_c, 1, 74, 0
4, 13672, Note_on_c, 1, 66, 80
4, 13775, Note_on_c, 1, 66, 0
4, 13787, Note_on_c, 1, 67, 80
4, 13889, Note_on_c, 1, 67, 0
4, 13912, Note_on_c, 1, 69, 80
4, 14025, Note_on_c, 1, 71, 80
4, 14028, Note_on_c, 1, 69, 0
4, 14117, Note_on_c, 1, 71, 0
4, 14147, Note_on_c, 1, 69, 80
4, 14251, Note_on_c, 1, 71, 80
4, 14260, Note_on_c, 1, 69, 0
4, 14334, Note_on_c, 1, 71, 0
4, 14378, Note_on_c, 1, 69, 80
4, 14495, Note_on_c, 1, 67, 80
4, 14499, Note_on_c, 1, 69, 0
4, 14607, Note_on_c, 1, 67, 0
4, 14616, Note_on_c, 1, 69, 80
4, 14700, Note_on_c, 1, 74, 80
4, 14728, Note_on_c, 1, 69, 0
4, 14819, Note_on_c, 1, 74, 0
4, 14847, Note_on_c, 1, 73, 80
4, 14975, Note_on_c, 1, 71, 80
4, 14979, Note_on_c, 1, 73, 0
4, 15100, Note_on_c, 1, 69, 80
4, 15113, Note_on_c, 1, 71, 0
4, 15204, Note_on_c, 1, 67, 80
4, 15216, Note_on_c, 1, 69, 0
4, 15323, Note_on_c, 1, 67, 0
4, 15326, Note_on_c, 1, 66, 80
4, 15447, Note_on_c, 1, 66, 0
4, 15581, Note_on_c, 1, 69, 80
4, 15734, Note_on_c, 1, 69, 0
4, 15824, Note_on_c, 1, 74, 80
4, 16060, Note_on_c, 1, 73, 80
4, 16066, Note_on_c, 1, 74, 0
4, 16182, Note_on_c, 1, 73, 0
4, 16288, Note_on_c, 1, 74, 80
4, 16463, Note_on_c, 1, 74, 0
4, 16534, Note_on_c, 1, 78, 80
4, 16750, Note_on_c, 1, 78, 0
4, 16767, Note_on_c, 1, 76, 80
4, 16973, Note_on_c, 1, 76, 0
4, 16999, Note_on_c, 1, 73, 80
4, 17211, Note_on_c, 1, 73, 0
4, 17246, Note_on_c, 1, 74, 80
4, 17361, Note_on_c, 1, 74, 0
4, 17364, Note_on_c, 1, 76, 80
4, 17486, Note_on_c, 1, 78, 80
4, 17522, Note_on_c, 1, 76, 0
4, 17597, Note_on_c, 1, 78, 0
4, 17603, Note_on_c, 1, 74, 80
4, 17701, Note_on_c, 1, 74, 0
4, 17717, Note_on_c, 1, 71, 80
4, 17839, Note_on_c, 1, 74, 80
4, 17849, Note_on_c, 1, 71, 0
4, 17968, Note_on_c, 1, 73, 80
4, 17973, Note_on_c, 1, 74, 0
4, 18066, Note_on_c, 1, 73, 0
4, 18092, Note_on_c, 1, 71, 80
4, 18208, Note_on_c, 1, 76, 80
4, 18214, Note_on_c, 1, 71, 0
4, 18336, Note_on_c, 1, 74, 80
4, 18345, Note_on_c, 1, 76, 0
4, 18452, Note_on_c, 1, 74, 0
4, 18457, Note_on_c, 1, 73, 80
4, 18569, Note_on_c, 1, 73, 0
4, 18574, Note_on_c, 1, 74, 80
4, 18688, Note_on_c, 1, 76, 80
4, 18696, Note_on_c, 1, 74, 0
4, 18795, Note_on_c, 1, 71, 80
4, 18819, Note_on_c, 1, 76, 0
4, 18923, Note_on_c, 1, 73, 80
4, 18933, Note_on_c, 1, 71, 0
4, 19035, Note_on_c, 1, 73, 0
4, 19040, Note_on_c, 1, 69, 80
4, 19167, Note_on_c, 1, 74, 80
4, 19169, Note_on_c, 1, 69, 0
4, 19278, Note_on_c, 1, 74, 0
4, 19279, Note_on_c, 1, 73, 80
4, 19399, Note_on_c, 1, 73, 0
4, 19411, Note_on_c, 1, 74, 80
4, 19792, Note_on_c, 1, 78, 80
4, 19800, Note_on_c, 1, 74, 0
4, 19910, Note_on_c, 1, 78, 0
4, 19911, Note_on_c, 1, 76, 80
4, 20045, Note_on_c, 1, 74, 80
4, 20049, Note_on_c, 1, 76, 0
4, 20144, Note_on_c, 1, 73, 80
4, 20177, Note_on_c, 1, 74, 0
4, 20342, Note_on_c, 1, 73, 0
4, 20373, Note_on_c, 1, 64, 80
4, 20509, Note_on_c, 1, 64, 0
4, 20624, Note_on_c, 1, 69, 80
4, 20739, Note_on_c, 1, 69, 0
4, 20870, Note_on_c, 1, 73, 80
4, 21043, Note_on_c, 1, 71, 80
4, 21080, Note_on_c, 1, 73, 0
4, 21146, Note_on_c, 1, 67, 80
4, 21165, Note_on_c, 1, 71, 0
4, 21276, Note_on_c, 1, 67, 0
4, 21290, Note_on_c, 1, 64, 80
4, 21398, Note_on_c, 1, 66, 80
4, 21415, Note_on_c, 1, 64, 0
4, 21538, Note_on_c, 1, 66, 0
4, 21542, Note_on_c, 1, 67, 80
4, 21682, Note_on_c, 1, 69, 80
4, 21689, Note_on_c, 1, 67, 0
4, 21806, Note_on_c, 1, 71, 80
4, 21808, Note_on_c, 1, 69, 0
4, 21914, Note_on_c, 1, 71, 0
4, 21929, Note_on_c, 1, 73, 80
4, 22050, Note_on_c, 1, 74, 80
4, 22055, Note_on_c, 1, 73, 0
4, 22195, Note_on_c, 1, 74, 0
4, 22286, Note_on_c, 1, 66, 80
4, 22422, Note_on_c, 1, 66, 0
4, 22521, Note_on_c, 1, 71, 80
4, 22652, Note_on_c, 1, 71, 0
4, 22768, Note_on_c, 1, 74, 80
4, 22865, Note_on_c, 1, 74, 0
4, 22996, Note_on_c, 1, 73, 80
4, 23231, Note_on_c, 1, 73, 0
4, 23236, Note_on_c, 1, 69, 80
4, 23347, Note_on_c, 1, 69, 0
4, 23497, Note_on_c, 1, 66, 80
4, 23623, Note_on_c, 1, 66, 0
4, 23744, Note_on_c, 1, 74, 80
4, 23842, Note_on_c, 1, 74, 0
4, 23978, Note_on_c, 1, 71, 80
4, 24196, Note_on_c, 1, 67, 80
4, 24227, Note_on_c, 1, 71, 0
4, 24314, Note_on_c, 1, 67, 0
4, 24456, Note_on_c, 1, 64, 80
4, 24580, Note_on_c, 1, 64, 0
4, 24694, Note_on_c, 1, 73, 80
4, 24825, Note_on_c, 1, 73, 0
4, 24915, Note_on_c, 1, 69, 80
4, 25173, Note_on_c, 1, 66, 80
4, 25211, Note_on_c, 1, 69, 0
4, 25274, Note_on_c, 1, 66, 0
4, 25405, Note_on_c, 1, 62, 80
4, 25517, Note_on_c, 1, 62, 0
4, 25655, Note_on_c, 1, 71, 80
4, 25786, Note_on_c, 1, 71, 0
4, 25901, Note_on_c, 1, 69, 80
4, 26248, Note_on_c, 1, 69, 0
4, 26253, Note_on_c, 1, 67, 80
4, 26381, Note_on_c, 1, 67, 0
4, 26403, Note_on_c, 1, 66, 80
4, 26507, Note_on_c, 1, 66, 0
4, 26602, Note_on_c, 1, 64, 80
4, 26711, Note_on_c, 1, 62, 80
4, 26721, Note_on_c, 1, 64, 0
4, 26760, Note_on_c, 1, 62, 0
4, 26848, Note_on_c, 1, 62, 80
4, 26964, Note_on_c, 1, 57, 80
4, 26968, Note_on_c, 1, 62, 0
4, 27097, Note_on_c, 1, 62, 80
4, 27102, Note_on_c, 1, 57, 0
4, 27212, Note_on_c, 1, 62, 0
4, 27213, Note_on_c, 1, 64, 80
4, 27316, Note_on_c, 1, 64, 0
4, 27343, Note_on_c, 1, 66, 80
4, 27462, Note_on_c, 1, 67, 80
4, 27469, Note_on_c, 1, 66, 0
4, 27583, Note_on_c, 1, 69, 80
4, 27587, Note_on_c, 1, 67, 0
4, 27685, Note_on_c, 1, 69, 0
4, 27692, Note_on_c, 1, 67, 80
4, 27803, Note_on_c, 1, 67, 0
4, 27822, Note_on_c, 1, 66, 80
4, 27934, Note_on_c, 1, 66, 0
4, 28059, Note_on_c, 1, 69, 80
4, 28236, Note_on_c, 1, 69, 0
4, 28298, Note_on_c, 1, 74, 80
4, 28470, Note_on_c, 1, 74, 0
4, 28537, Note_on_c, 1, 68, 80
4, 28675, Note_on_c, 1, 68, 0
4, 28768, Note_on_c, 1, 69, 80
4, 28932, Note_on_c, 1, 69, 0
4, 29026, Note_on_c, 1, 64, 80
4, 29201, Note_on_c, 1, 64, 0
4, 29264, Note_on_c, 1, 69, 80
4, 29470, Note_on_c, 1, 69, 0
4, 29499, Note_on_c, 1, 68, 80
4, 29711, Note_on_c, 1, 68, 0
4, 29729, Note_on_c, 1, 69, 80
4, 29846, Note_on_c, 1, 64, 80
4, 29863, Note_on_c, 1, 69, 0
4, 29972, Note_on_c, 1, 57, 80
4, 29976, Note_on_c, 1, 64, 0
4, 30091, Note_on_c, 1, 59, 80
4, 30123, Note_on_c, 1, 57, 0
4, 30225, Note_on_c, 1, 61, 80
4, 30243, Note_on_c, 1, 59, 0
4, 30349, Note_on_c, 1, 63, 80
4, 30359, Note_on_c, 1, 61, 0
4, 30465, Note_on_c, 1, 63, 0
4, 30467, Note_on_c, 1, 64, 80
4, 30567, Note_on_c, 1, 64, 0
4, 30579, Note_on_c, 1, 66, 80
4, 30698, Note_on_c, 1, 67, 80
4, 30705, Note_on_c, 1, 66, 0
4, 30851, Note_on_c, 1, 67, 0
4, 30949, Note_on_c, 1, 59, 80
4, 31161, Note_on_c, 1, 59, 0
4, 31200, Note_on_c, 1, 64, 80
4, 31422, Note_on_c, 1, 63, 80
4, 31430, Note_on_c, 1, 64, 0
4, 31647, Note_on_c, 1, 63, 0
4, 31652, Note_on_c, 1, 64, 80
4, 31773, Note_on_c, 1, 59, 80
4, 31776, Note_on_c, 1, 64, 0
4, 31888, Note_on_c, 1, 64, 80
4, 31902, Note_on_c, 1, 59, 0
4, 32008, Note_on_c, 1, 66, 80
4, 32027, Note_on_c, 1, 64, 0
4, 32129, Note_on_c, 1, 66, 0
4, 32134, Note_on_c, 1, 67, 80
4, 32241, Note_on_c, 1, 67, 0
4, 32250, Note_on_c, 1, 69, 80
4, 32368, Note_on_c, 1, 71, 80
4, 32371, Note_on_c, 1, 69, 0
4, 32476, Note_on_c, 1, 69, 80
4, 32484, Note_on_c, 1, 71, 0
4, 32609, Note_on_c, 1, 69, 0
4, 32613, Note_on_c, 1, 67, 80
4, 32709, Note_on_c, 1, 67, 0
4, 32851, Note_on_c, 1, 71, 80
4, 33096, Note_on_c, 1, 71, 0
4, 33101, Note_on_c, 1, 76, 80
4, 33290, Note_on_c, 1, 76, 0
4, 33329, Note_on_c, 1, 75, 80
4, 33485, Note_on_c, 1, 75, 0
4, 33575, Note_on_c, 1, 76, 80
4, 33754, Note_on_c, 1, 76, 0
4, 33820, Note_on_c, 1, 79, 80
4, 34046, Note_on_c, 1, 78, 80
4, 34068, Note_on_c, 1, 79, 0
4, 34262, Note_on_c, 1, 78, 0
4, 34270, Note_on_c, 1, 75, 80
4, 34502, Note_on_c, 1, 75, 0
4, 34505, Note_on_c, 1, 76, 80
4, 34620, Note_on_c, 1, 76, 0
4, 34626, Note_on_c, 1, 66, 80
4, 34695, Note_on_c, 1, 66, 0
4, 34746, Note_on_c, 1, 67, 80
4, 34868, Note_on_c, 1, 69, 80
4, 34886, Note_on_c, 1, 67, 0
4, 34998, Note_on_c, 1, 69, 0
4, 35019, Note_on_c, 1, 71, 80
4, 35145, Note_on_c, 1, 72, 80
4, 35152, Note_on_c, 1, 71, 0
4, 35276, Note_on_c, 1, 71, 80
4, 35287, Note_on_c, 1, 72, 0
4, 35388, Note_on_c, 1, 72, 80
4, 35397, Note_on_c, 1, 71, 0
4, 35503, Note_on_c, 1, 72, 0
4, 35512, Note_on_c, 1, 71, 80
4, 35636, Note_on_c, 1, 69, 80
4, 35645, Note_on_c, 1, 71, 0
4, 35756, Note_on_c, 1, 71, 80
4, 35760, Note_on_c, 1, 69, 0
4, 35861, Note_on_c, 1, 71, 0
4, 35864, Note_on_c, 1, 76, 80
4, 35987, Note_on_c, 1, 76, 0
4, 35989, Note_on_c, 1, 75, 80
4, 36111, Note_on_c, 1, 73, 80
4, 36121, Note_on_c, 1, 75, 0
4, 36225, Note_on_c, 1, 71, 80
4, 36227, Note_on_c, 1, 73, 0
4, 36343, Note_on_c, 1, 71, 0
4, 36344, Note_on_c, 1, 69, 80
4, 36460, Note_on_c, 1, 67, 80
4, 36474, Note_on_c, 1, 69, 0
4, 36580, Note_on_c, 1, 67, 0
4, 36701, Note_on_c, 1, 64, 80
4, 36826, Note_on_c, 1, 64, 0
4, 36945, Note_on_c, 1, 71, 80
4, 37628, Note_on_c, 1, 71, 0
4, 37646, Note_on_c, 1, 69, 80
4, 37752, Note_on_c, 1, 69, 0
4, 37758, Note_on_c, 1, 67, 80
4, 37877, Note_on_c, 1, 67, 0
4, 37889, Note_on_c, 1, 69, 80
4, 38511, Note_on_c, 1, 69, 0
4, 38625, Note_on_c, 1, 67, 80
4, 38740, Note_on_c, 1, 66, 80
4, 38742, Note_on_c, 1, 67, 0
4, 38868, Note_on_c, 1, 67, 80
4, 38870, Note_on_c, 1, 66, 0
4, 38969, Note_on_c, 1, 67, 0
4, 38974, Note_on_c, 1, 69, 80
4, 39071, Note_on_c, 1, 69, 0
4, 39086, Note_on_c, 1, 67, 80
4, 39212, Note_on_c, 1, 71, 80
4, 39218, Note_on_c, 1, 67, 0
4, 39344, Note_on_c, 1, 72, 80
4, 39349, Note_on_c, 1, 71, 0
4, 39461, Note_on_c, 1, 69, 80
4, 39471, Note_on_c, 1, 72, 0
4, 39581, Note_on_c, 1, 69, 0
4, 39581, Note_on_c, 1, 71, 80
4, 39679, Note_on_c, 1, 71, 0
4, 39682, Note_on_c, 1, 72, 80
4, 39788, Note_on_c, 1, 66, 80
4, 39795, Note_on_c, 1, 72, 0
4, 39898, Note_on_c, 1, 66, 0
4, 39913, Note_on_c, 1, 71, 80
4, 40027, Note_on_c, 1, 69, 80
4, 40032, Note_on_c, 1, 71, 0
4, 40143, Note_on_c, 1, 71, 80
4, 40166, Note_on_c, 1, 69, 0
4, 40230, Note_on_c, 1, 71, 0
4, 40265, Note_on_c, 1, 67, 80
4, 40389, Note_on_c, 1, 67, 0
4, 40513, Note_on_c, 1, 64, 80
4, 40697, Note_on_c, 1, 64, 0
4, 41487, Note_on_c, 1, 73, 80
4, 41600, Note_on_c, 1, 71, 80
4, 41609, Note_on_c, 1, 73, 0
4, 41729, Note_on_c, 1, 71, 0
4, 41732, Note_on_c, 1, 69, 80
4, 41844, Note_on_c, 1, 69, 0
4, 41845, Note_on_c, 1, 67, 80
4, 41956, Note_on_c, 1, 66, 80
4, 41959, Note_on_c, 1, 67, 0
4, 42056, Note_on_c, 1, 66, 0
4, 42061, Note_on_c, 1, 64, 80
4, 42198, Note_on_c, 1, 62, 80
4, 42201, Note_on_c, 1, 64, 0
4, 42333, Note_on_c, 1, 62, 0
4, 42466, Note_on_c, 1, 69, 80
4, 42630, Note_on_c, 1, 69, 0
4, 42705, Note_on_c, 1, 66, 80
4, 42835, Note_on_c, 1, 66, 0
4, 42952, Note_on_c, 1, 62, 80
4, 43096, Note_on_c, 1, 62, 0
4, 43437, Note_on_c, 1, 71, 80
4, 43547, Note_on_c, 1, 69, 80
4, 43554, Note_on_c, 1, 71, 0
4, 43671, Note_on_c, 1, 67, 80
4, 43679, Note_on_c, 1, 69, 0
4, 43784, Note_on_c, 1, 66, 80
4, 43791, Note_on_c, 1, 67, 0
4, 43906, Note_on_c, 1, 66, 0
4, 43907, Note_on_c, 1, 64, 80
4, 44015, Note_on_c, 1, 62, 80
4, 44018, Note_on_c, 1, 64, 0
4, 44133, Note_on_c, 1, 62, 0
4, 44143, Note_on_c, 1, 61, 80
4, 44296, Note_on_c, 1, 61, 0
4, 44403, Note_on_c, 1, 67, 80
4, 44537, Note_on_c, 1, 67, 0
4, 44642, Note_on_c, 1, 64, 80
4, 44797, Note_on_c, 1, 64, 0
4, 44874, Note_on_c, 1, 61, 80
4, 45000, Note_on_c, 1, 61, 0
4, 45358, Note_on_c, 1, 70, 80
4, 45466, Note_on_c, 1, 68, 80
4, 45480, Note_on_c, 1, 70, 0
4, 45575, Note_on_c, 1, 66, 80
4, 45581, Note_on_c, 1, 68, 0
4, 45675, Note_on_c, 1, 66, 0
4, 45676, Note_on_c, 1, 64, 80
4, 45803, Note_on_c, 1, 62, 80
4, 45812, Note_on_c, 1, 64, 0
4, 45914, Note_on_c, 1, 61, 80
4, 45925, Note_on_c, 1, 62, 0
4, 46046, Note_on_c, 1, 61, 0
4, 46056, Note_on_c, 1, 59, 80
4, 46138, Note_on_c, 1, 59, 0
4, 46298, Note_on_c, 1, 66, 80
4, 46539, Note_on_c, 1, 66, 0
4, 46543, Note_on_c, 1, 62, 80
4, 46707, Note_on_c, 1, 62, 0
4, 46778, Note_on_c, 1, 71, 80
4, 46879, Note_on_c, 1, 71, 0
4, 47012, Note_on_c, 1, 67, 80
4, 47254, Note_on_c, 1, 64, 80
4, 47276, Note_on_c, 1, 67, 0
4, 47390, Note_on_c, 1, 64, 0
4, 47499, Note_on_c, 1, 61, 80
4, 47623, Note_on_c, 1, 61, 0
4, 47738, Note_on_c, 1, 70, 80
4, 47837, Note_on_c, 1, 70, 0
4, 47962, Note_on_c, 1, 66, 80
4, 48204, Note_on_c, 1, 62, 80
4, 48225, Note_on_c, 1, 66, 0
4, 48358, Note_on_c, 1, 62, 0
4, 48453, Note_on_c, 1, 59, 80
4, 48585, Note_on_c, 1, 59, 0
4, 48699, Note_on_c, 1, 67, 80
4, 48784, Note_on_c, 1, 67, 0
4, 48944, Note_on_c, 1, 66, 80
4, 49283, Note_on_c, 1, 64, 80
4, 49289, Note_on_c, 1, 66, 0
4, 49396, Note_on_c, 1, 64, 0
4, 49414, Note_on_c, 1, 62, 80
4, 49629, Note_on_c, 1, 62, 0
4, 49637, Note_on_c, 1, 61, 80
4, 49752, Note_on_c, 1, 61, 0
4, 49763, Note_on_c, 1, 59, 80
4, 49834, Note_on_c, 1, 59, 0
4, 49896, Note_on_c, 1, 59, 80
4, 49987, Note_on_c, 1, 59, 0
4, 50161, Note_on_c, 1, 66, 80
4, 50382, Note_on_c, 1, 66, 0
4, 50389, Note_on_c, 1, 71, 80
4, 50520, Note_on_c, 1, 71, 0
4, 50618, Note_on_c, 1, 70, 80
4, 50753, Note_on_c, 1, 70, 0
4, 50860, Note_on_c, 1, 71, 80
4, 50976, Note_on_c, 1, 59, 80
4, 50985, Note_on_c, 1, 71, 0
4, 51084, Note_on_c, 1, 59, 0
4, 51089, Note_on_c, 1, 71, 80
4, 51206, Note_on_c, 1, 73, 80
4, 51214, Note_on_c, 1, 71, 0
4, 51329, Note_on_c, 1, 73, 0
4, 51332, Note_on_c, 1, 74, 80
4, 51452, Note_on_c, 1, 76, 80
4, 51454, Note_on_c, 1, 74, 0
4, 51556, Note_on_c, 1, 76, 0
4, 51572, Note_on_c, 1, 78, 80
4, 51677, Note_on_c, 1, 76, 80
4, 51679, Note_on_c, 1, 78, 0
4, 51802, Note_on_c, 1, 74, 80
4, 51825, Note_on_c, 1, 76, 0
4, 51892, Note_on_c, 1, 74, 0
4, 52058, Note_on_c, 1, 66, 80
4, 52225, Note_on_c, 1, 66, 0
4, 52291, Note_on_c, 1, 71, 80
4, 52472, Note_on_c, 1, 71, 0
4, 52538, Note_on_c, 1, 70, 80
4, 52652, Note_on_c, 1, 70, 0
4, 52774, Note_on_c, 1, 71, 80
4, 53016, Note_on_c, 1, 71, 0
4, 53021, Note_on_c, 1, 74, 80
4, 53235, Note_on_c, 1, 73, 80
4, 53255, Note_on_c, 1, 74, 0
4, 53468, Note_on_c, 1, 73, 0
4, 53472, Note_on_c, 1, 70, 80
4, 53708, Note_on_c, 1, 70, 0
4, 53719, Note_on_c, 1, 71, 80
4, 53834, Note_on_c, 1, 66, 80
4, 53841, Note_on_c, 1, 71, 0
4, 53956, Note_on_c, 1, 62, 80
4, 53959, Note_on_c, 1, 66, 0
4, 54066, Note_on_c, 1, 64, 80
4, 54091, Note_on_c, 1, 62, 0
4, 54189, Note_on_c, 1, 64, 0
4, 54197, Note_on_c, 1, 66, 80
4, 54343, Note_on_c, 1, 66, 0
4, 54350, Note_on_c, 1, 67, 80
4, 54470, Note_on_c, 1, 67, 0
4, 54470, Note_on_c, 1, 66, 80
4, 54591, Note_on_c, 1, 66, 0
4, 54597, Note_on_c, 1, 67, 80
4, 54717, Note_on_c, 1, 66, 80
4, 54723, Note_on_c, 1, 67, 0
4, 54835, Note_on_c, 1, 66, 0
4, 54837, Note_on_c, 1, 64, 80
4, 54967, Note_on_c, 1, 66, 80
4, 54978, Note_on_c, 1, 64, 0
4, 55081, Note_on_c, 1, 66, 0
4, 55082, Note_on_c, 1, 71, 80
4, 55195, Note_on_c, 1, 71, 0
4, 55206, Note_on_c, 1, 70, 80
4, 55324, Note_on_c, 1, 68, 80
4, 55337, Note_on_c, 1, 70, 0
4, 55441, Note_on_c, 1, 66, 80
4, 55444, Note_on_c, 1, 68, 0
4, 55543, Note_on_c, 1, 64, 80
4, 55546, Note_on_c, 1, 66, 0
4, 55676, Note_on_c, 1, 64, 0
4, 55690, Note_on_c, 1, 62, 80
4, 56199, Note_on_c, 1, 62, 0
4, 56284, Note_on_c, 1, 62, 80
4, 56397, Note_on_c, 1, 61, 80
4, 56426, Note_on_c, 1, 62, 0
4, 56505, Note_on_c, 1, 59, 80
4, 56521, Note_on_c, 1, 61, 0
4, 56625, Note_on_c, 1, 59, 0
4, 56637, Note_on_c, 1, 67, 80
4, 57138, Note_on_c, 1, 67, 0
4, 57225, Note_on_c, 1, 64, 80
4, 57334, Note_on_c, 1, 62, 80
4, 57337, Note_on_c, 1, 64, 0
4, 57445, Note_on_c, 1, 61, 80
4, 57454, Note_on_c, 1, 62, 0
4, 57554, Note_on_c, 1, 61, 0
4, 57566, Note_on_c, 1, 66, 80
4, 58080, Note_on_c, 1, 66, 0
4, 58191, Note_on_c, 1, 59, 80
4, 58305, Note_on_c, 1, 61, 80
4, 58327, Note_on_c, 1, 59, 0
4, 58387, Note_on_c, 1, 61, 0
4, 58408, Note_on_c, 1, 62, 80
4, 58540, Note_on_c, 1, 62, 0
4, 58541, Note_on_c, 1, 64, 80
4, 59051, Note_on_c, 1, 64, 0
4, 59131, Note_on_c, 1, 58, 80
4, 59244, Note_on_c, 1, 56, 80
4, 59247, Note_on_c, 1, 58, 0
4, 59348, Note_on_c, 1, 54, 80
4, 59350, Note_on_c, 1, 56, 0
4, 59478, Note_on_c, 1, 54, 0
4, 59486, Note_on_c, 1, 62, 80
4, 60492, Note_on_c, 1, 62, 0
4, 60568, Note_on_c, 1, 66, 80
4, 60681, Note_on_c, 1, 64, 80
4, 60691, Note_on_c, 1, 66, 0
4, 60811, Note_on_c, 1, 62, 80
4, 60818, Note_on_c, 1, 64, 0
4, 60928, Note_on_c, 1, 61, 80
4, 60945, Note_on_c, 1, 62, 0
4, 61043, Note_on_c, 1, 61, 0
4, 61047, Note_on_c, 1, 59, 80
4, 61169, Note_on_c, 1, 57, 80
4, 61174, Note_on_c, 1, 59, 0
4, 61269, Note_on_c, 1, 55, 80
4, 61270, Note_on_c, 1, 57, 0
4, 61370, Note_on_c, 1, 55, 0
4, 61396, Note_on_c, 1, 54, 80
4, 61645, Note_on_c, 1, 54, 0
4, 61920, Note_on_c, 1, 66, 80
4, 62415, Note_on_c, 1, 66, 0
4, 62502, Note_on_c, 1, 69, 80
4, 62613, Note_on_c, 1, 69, 0
4, 62628, Note_on_c, 1, 67, 80
4, 62743, Note_on_c, 1, 66, 80
4, 62750, Note_on_c, 1, 67, 0
4, 62851, Note_on_c, 1, 66, 0
4, 62852, Note_on_c, 1, 64, 80
4, 62976, Note_on_c, 1, 62, 80
4, 62982, Note_on_c, 1, 64, 0
4, 63094, Note_on_c, 1, 61, 80
4, 63102, Note_on_c, 1, 62, 0
4, 63192, Note_on_c, 1, 61, 0
4, 63197, Note_on_c, 1, 59, 80
4, 63325, Note_on_c, 1, 59, 0
4, 63326, Note_on_c, 1, 57, 80
4, 63583, Note_on_c, 1, 57, 0
4, 63808, Note_on_c, 1, 69, 80
4, 64305, Note_on_c, 1, 69, 0
4, 64390, Note_on_c, 1, 72, 80
4, 64503, Note_on_c, 1, 71, 80
4, 64511, Note_on_c, 1, 72, 0
4, 64614, Note_on_c, 1, 69, 80
4, 64627, Note_on_c, 1, 71, 0
4, 64748, Note_on_c, 1, 67, 80
4, 64751, Note_on_c, 1, 69, 0
4, 64862, Note_on_c, 1, 66, 80
4, 64872, Note_on_c, 1, 67, 0
4, 64986, Note_on_c, 1, 66, 0
4, 64992, Note_on_c, 1, 64, 80
4, 65100, Note_on_c, 1, 62, 80
4, 65103, Note_on_c, 1, 64, 0
4, 65227, Note_on_c, 1, 61, 80
4, 65229, Note_on_c, 1, 62, 0
4, 65779, Note_on_c, 1, 61, 0
4, 66334, Note_on_c, 1, 69, 80
4, 66439, Note_on_c, 1, 71, 80
4, 66481, Note_on_c, 1, 69, 0
4, 66556, Note_on_c, 1, 73, 80
4, 66564, Note_on_c, 1, 71, 0
4, 66650, Note_on_c, 1, 73, 0
4, 66678, Note_on_c, 1, 74, 80
4, 66790, Note_on_c, 1, 76, 80
4, 66793, Note_on_c, 1, 74, 0
4, 66908, Note_on_c, 1, 74, 80
4, 66920, Note_on_c, 1, 76, 0
4, 67013, Note_on_c, 1, 74, 0
4, 67016, Note_on_c, 1, 73, 80
4, 67104, Note_on_c, 1, 73, 0
4, 67134, Note_on_c, 1, 71, 80
4, 68151, Note_on_c, 1, 71, 0
4, 68249, Note_on_c, 1, 64, 80
4, 68371, Note_on_c, 1, 66, 80
4, 68402, Note_on_c, 1, 64, 0
4, 68469, Note_on_c, 1, 66, 0
4, 68486, Note_on_c, 1, 67, 80
4, 68616, Note_on_c, 1, 69, 80
4, 68620, Note_on_c, 1, 67, 0
4, 68737, Note_on_c, 1, 67, 80
4, 68751, Note_on_c, 1, 69, 0
4, 68852, Note_on_c, 1, 67, 0
4, 68860, Note_on_c, 1, 66, 80
4, 68940, Note_on_c, 1, 66, 0
4, 68957, Note_on_c, 1, 64, 80
4, 69067, Note_on_c, 1, 64, 0
4, 69079, Note_on_c, 1, 62, 80
4, 71970, Note_on_c, 1, 62, 0
4, 72048, Note_on_c, 1, 71, 80
4, 72164, Note_on_c, 1, 71, 0
4, 72175, Note_on_c, 1, 69, 80
4, 72273, Note_on_c, 1, 71, 80
4, 72281, Note_on_c, 1, 69, 0
4, 72323, Note_on_c, 1, 71, 0
4, 72426, Note_on_c, 1, 62, 80
4, 72475, Note_on_c, 1, 61, 80
4, 72487, Note_on_c, 1, 62, 0
4, 72525, Note_on_c, 1, 61, 0
4, 72538, Note_on_c, 1, 62, 80
4, 72578, Note_on_c, 1, 61, 80
4, 72598, Note_on_c, 1, 61, 0
4, 72634, Note_on_c, 1, 61, 80
4, 72652, Note_on_c, 1, 62, 0
4, 72795, Note_on_c, 1, 62, 80
4, 72810, Note_on_c, 1, 61, 0
4, 72850, Note_on_c, 1, 62, 0
4, 72933, Note_on_c, 1, 62, 80
4, 73036, Note_on_c, 1, 62, 0
4, 73045, Note_on_c, 1, 61, 80
4, 73169, Note_on_c, 1, 62, 80
4, 73170, Note_on_c, 1, 61, 0
4, 73281, Note_on_c, 1, 64, 80
4, 73358, Note_on_c, 1, 62, 0
4, 73417, Note_on_c, 1, 66, 80
4, 73439, Note_on_c, 1, 64, 0
4, 73518, Note_on_c, 1, 66, 0
4, 73532, Note_on_c, 1, 67, 80
4, 73656, Note_on_c, 1, 69, 80
4, 73662, Note_on_c, 1, 67, 0
4, 73755, Note_on_c, 1, 69, 0
4, 73759, Note_on_c, 1, 67, 80
4, 73874, Note_on_c, 1, 67, 0
4, 73896, Note_on_c, 1, 66, 80
4, 74028, Note_on_c, 1, 66, 0
4, 74138, Note_on_c, 1, 69, 80
4, 74368, Note_on_c, 1, 74, 80
4, 74371, Note_on_c, 1, 69, 0
4, 74590, Note_on_c, 1, 74, 0
4, 74600, Note_on_c, 1, 73, 80
4, 74846, Note_on_c, 1, 74, 80
4, 74848, Note_on_c, 1, 73, 0
4, 74928, Note_on_c, 1, 74, 0
4, 75095, Note_on_c, 1, 62, 80
4, 75207, Note_on_c, 1, 64, 80
4, 75224, Note_on_c, 1, 62, 0
4, 75343, Note_on_c, 1, 66, 80
4, 75363, Note_on_c, 1, 64, 0
4, 75473, Note_on_c, 1, 67, 80
4, 75478, Note_on_c, 1, 66, 0
4, 75582, Note_on_c, 1, 69, 80
4, 75591, Note_on_c, 1, 67, 0
4, 75699, Note_on_c, 1, 69, 0
4, 75700, Note_on_c, 1, 71, 80
4, 75812, Note_on_c, 1, 71, 0
4, 75819, Note_on_c, 1, 72, 80
4, 75944, Note_on_c, 1, 71, 80
4, 75962, Note_on_c, 1, 72, 0
4, 76053, Note_on_c, 1, 69, 80
4, 76060, Note_on_c, 1, 71, 0
4, 76173, Note_on_c, 1, 71, 80
4, 76185, Note_on_c, 1, 69, 0
4, 76278, Note_on_c, 1, 71, 0
4, 76283, Note_on_c, 1, 72, 80
4, 76400, Note_on_c, 1, 72, 0
4, 76400, Note_on_c, 1, 76, 80
4, 76509, Note_on_c, 1, 74, 80
4, 76524, Note_on_c, 1, 76, 0
4, 76621, Note_on_c, 1, 72, 80
4, 76635, Note_on_c, 1, 74, 0
4, 76739, Note_on_c, 1, 71, 80
4, 76742, Note_on_c, 1, 72, 0
4, 76857, Note_on_c, 1, 71, 0
4, 76859, Note_on_c, 1, 72, 80
4, 76972, Note_on_c, 1, 72, 0
4, 76979, Note_on_c, 1, 71, 80
4, 77101, Note_on_c, 1, 69, 80
4, 77103, Note_on_c, 1, 71, 0
4, 77228, Note_on_c, 1, 69, 0
4, 77232, Note_on_c, 1, 67, 80
4, 77455, Note_on_c, 1, 67, 0
4, 77482, Note_on_c, 1, 66, 80
4, 77713, Note_on_c, 1, 66, 0
4, 77738, Note_on_c, 1, 67, 80
4, 77852, Note_on_c, 1, 66, 80
4, 77862, Note_on_c, 1, 67, 0
4, 77981, Note_on_c, 1, 67, 80
4, 77992, Note_on_c, 1, 66, 0
4, 78092, Note_on_c, 1, 69, 80
4, 78105, Note_on_c, 1, 67, 0
4, 78156, Note_on_c, 1, 69, 0
4, 78234, Note_on_c, 1, 71, 80
4, 78344, Note_on_c, 1, 72, 80
4, 78355, Note_on_c, 1, 71, 0
4, 78464, Note_on_c, 1, 72, 0
4, 78465, Note_on_c, 1, 74, 80
4, 78575, Note_on_c, 1, 72, 80
4, 78577, Note_on_c, 1, 74, 0
4, 78700, Note_on_c, 1, 71, 80
4, 78734, Note_on_c, 1, 72, 0
4, 78769, Note_on_c, 1, 71, 0
4, 78965, Note_on_c, 1, 59, 80
4, 79090, Note_on_c, 1, 60, 80
4, 79115, Note_on_c, 1, 59, 0
4, 79216, Note_on_c, 1, 62, 80
4, 79220, Note_on_c, 1, 60, 0
4, 79328, Note_on_c, 1, 64, 80
4, 79331, Note_on_c, 1, 62, 0
4, 79430, Note_on_c, 1, 64, 0
4, 79449, Note_on_c, 1, 65, 80
4, 79569, Note_on_c, 1, 67, 80
4, 79656, Note_on_c, 1, 65, 0
4, 79680, Note_on_c, 1, 67, 0
4, 79681, Note_on_c, 1, 69, 80
4, 79787, Note_on_c, 1, 69, 0
4, 79788, Note_on_c, 1, 72, 80
4, 79883, Note_on_c, 1, 72, 0
4, 79894, Note_on_c, 1, 71, 80
4, 79999, Note_on_c, 1, 71, 0
4, 80007, Note_on_c, 1, 72, 80
4, 80130, Note_on_c, 1, 72, 0
4, 80138, Note_on_c, 1, 74, 80
4, 80265, Note_on_c, 1, 72, 80
4, 80278, Note_on_c, 1, 74, 0
4, 80376, Note_on_c, 1, 72, 0
4, 80381, Note_on_c, 1, 71, 80
4, 80474, Note_on_c, 1, 69, 80
4, 80476, Note_on_c, 1, 71, 0
4, 80584, Note_on_c, 1, 67, 80
4, 80597, Note_on_c, 1, 69, 0
4, 80704, Note_on_c, 1, 67, 0
4, 80853, Note_on_c, 1, 67, 80
4, 81067, Note_on_c, 1, 67, 0
4, 81104, Note_on_c, 1, 72, 80
4, 81335, Note_on_c, 1, 71, 80
4, 81340, Note_on_c, 1, 72, 0
4, 81516, Note_on_c, 1, 71, 0
4, 81569, Note_on_c, 1, 72, 80
4, 81801, Note_on_c, 1, 72, 0
4, 81806, Note_on_c, 1, 76, 80
4, 82019, Note_on_c, 1, 76, 0
4, 82025, Note_on_c, 1, 74, 80
4, 82263, Note_on_c, 1, 71, 80
4, 82278, Note_on_c, 1, 74, 0
4, 82448, Note_on_c, 1, 71, 0
4, 82509, Note_on_c, 1, 72, 80
4, 82642, Note_on_c, 1, 74, 80
4, 82654, Note_on_c, 1, 72, 0
4, 82764, Note_on_c, 1, 76, 80
4, 82772, Note_on_c, 1, 74, 0
4, 82868, Note_on_c, 1, 76, 0
4, 82885, Note_on_c, 1, 77, 80
4, 82966, Note_on_c, 1, 77, 0
4, 83019, Note_on_c, 1, 79, 80
4, 83140, Note_on_c, 1, 81, 80
4, 83148, Note_on_c, 1, 79, 0
4, 83258, Note_on_c, 1, 79, 80
4, 83270, Note_on_c, 1, 81, 0
4, 83374, Note_on_c, 1, 81, 80
4, 83377, Note_on_c, 1, 79, 0
4, 83464, Note_on_c, 1, 81, 0
4, 83499, Note_on_c, 1, 79, 80
4, 83620, Note_on_c, 1, 79, 0
4, 83624, Note_on_c, 1, 77, 80
4, 83737, Note_on_c, 1, 77, 0
4, 83741, Note_on_c, 1, 79, 80
4, 83842, Note_on_c, 1, 79, 0
4, 83846, Note_on_c, 1, 84, 80
4, 83973, Note_on_c, 1, 83, 80
4, 83976, Note_on_c, 1, 84, 0
4, 84096, Note_on_c, 1, 81, 80
4, 84109, Note_on_c, 1, 83, 0
4, 84224, Note_on_c, 1, 81, 0
4, 84225, Note_on_c, 1, 79, 80
4, 84343, Note_on_c, 1, 77, 80
4, 84345, Note_on_c, 1, 79, 0
4, 84428, Note_on_c, 1, 77, 0
4, 84462, Note_on_c, 1, 76, 80
4, 84606, Note_on_c, 1, 76, 0
4, 84718, Note_on_c, 1, 81, 80
4, 84797, Note_on_c, 1, 81, 0
4, 84835, Note_on_c, 1, 80, 80
4, 84923, Note_on_c, 1, 80, 0
4, 84966, Note_on_c, 1, 81, 80
4, 85511, Note_on_c, 1, 81, 0
4, 85647, Note_on_c, 1, 74, 80
4, 85763, Note_on_c, 1, 74, 0
4, 85884, Note_on_c, 1, 79, 80
4, 86731, Note_on_c, 1, 81, 80
4, 86739, Note_on_c, 1, 79, 0
4, 86787, Note_on_c, 1, 81, 0
4, 86863, Note_on_c, 1, 79, 80
4, 86921, Note_on_c, 1, 78, 80
4, 86928, Note_on_c, 1, 79, 0
4, 86973, Note_on_c, 1, 78, 0
4, 86988, Note_on_c, 1, 79, 80
4, 87018, Note_on_c, 1, 78, 80
4, 87044, Note_on_c, 1, 78, 0
4, 87070, Note_on_c, 1, 78, 80
4, 87092, Note_on_c, 1, 79, 0
4, 87202, Note_on_c, 1, 79, 80
4, 87218, Note_on_c, 1, 78, 0
4, 87260, Note_on_c, 1, 79, 0
4, 87348, Note_on_c, 1, 79, 80
4, 87450, Note_on_c, 1, 79, 0
4, 87457, Note_on_c, 1, 81, 80
4, 87564, Note_on_c, 1, 81, 0
4, 87573, Note_on_c, 1, 83, 80
4, 87682, Note_on_c, 1, 79, 80
4, 87685, Note_on_c, 1, 83, 0
4, 87801, Note_on_c, 1, 79, 0
4, 87811, Note_on_c, 1, 76, 80
4, 87935, Note_on_c, 1, 79, 80
4, 87948, Note_on_c, 1, 76, 0
4, 88054, Note_on_c, 1, 78, 80
4, 88057, Note_on_c, 1, 79, 0
4, 88172, Note_on_c, 1, 76, 80
4, 88186, Note_on_c, 1, 78, 0
4, 88291, Note_on_c, 1, 76, 0
4, 88298, Note_on_c, 1, 81, 80
4, 88417, Note_on_c, 1, 79, 80
4, 88419, Note_on_c, 1, 81, 0
4, 88541, Note_on_c, 1, 79, 0
4, 88546, Note_on_c, 1, 78, 80
4, 88647, Note_on_c, 1, 78, 0
4, 88656, Note_on_c, 1, 79, 80
4, 88780, Note_on_c, 1, 81, 80
4, 88783, Note_on_c, 1, 79, 0
4, 88895, Note_on_c, 1, 76, 80
4, 88910, Note_on_c, 1, 81, 0
4, 89028, Note_on_c, 1, 78, 80
4, 89041, Note_on_c, 1, 76, 0
4, 89140, Note_on_c, 1, 78, 0
4, 89145, Note_on_c, 1, 74, 80
4, 89255, Note_on_c, 1, 74, 0
4, 89278, Note_on_c, 1, 79, 80
4, 89389, Note_on_c, 1, 79, 0
4, 89394, Note_on_c, 1, 78, 80
4, 89490, Note_on_c, 1, 78, 0
4, 89497, Note_on_c, 1, 79, 80
4, 89870, Note_on_c, 1, 79, 0
4, 89871, Note_on_c, 1, 83, 80
4, 89983, Note_on_c, 1, 81, 80
4, 89994, Note_on_c, 1, 83, 0
4, 90062, Note_on_c, 1, 81, 0
4, 90092, Note_on_c, 1, 79, 80
4, 90141, Note_on_c, 1, 79, 0
4, 90219, Note_on_c, 1, 78, 80
4, 90466, Note_on_c, 1, 78, 0
4, 91399, Note_on_c, 1, 57, 80
4, 91517, Note_on_c, 1, 59, 80
4, 91546, Note_on_c, 1, 57, 0
4, 91651, Note_on_c, 1, 60, 80
4, 91653, Note_on_c, 1, 59, 0
4, 91769, Note_on_c, 1, 60, 0
4, 91769, Note_on_c, 1, 62, 80
4, 91877, Note_on_c, 1, 62, 0
4, 91879, Note_on_c, 1, 64, 80
4, 91972, Note_on_c, 1, 64, 0
4, 91997, Note_on_c, 1, 66, 80
4, 92117, Note_on_c, 1, 66, 0
4, 92120, Note_on_c, 1, 67, 80
4, 92310, Note_on_c, 1, 67, 0
4, 92374, Note_on_c, 1, 59, 80
4, 92618, Note_on_c, 1, 59, 0
4, 92621, Note_on_c, 1, 64, 80
4, 92858, Note_on_c, 1, 64, 0
4, 92862, Note_on_c, 1, 67, 80
4, 93007, Note_on_c, 1, 67, 0
4, 93096, Note_on_c, 1, 66, 80
4, 93219, Note_on_c, 1, 66, 0
4, 93343, Note_on_c, 1, 74, 80
4, 93449, Note_on_c, 1, 74, 0
4, 93458, Note_on_c, 1, 72, 80
4, 93587, Note_on_c, 1, 71, 80
4, 93606, Note_on_c, 1, 72, 0
4, 93706, Note_on_c, 1, 71, 0
4, 93706, Note_on_c, 1, 69, 80
4, 93818, Note_on_c, 1, 69, 0
4, 93820, Note_on_c, 1, 67, 80
4, 93930, Note_on_c, 1, 66, 80
4, 93945, Note_on_c, 1, 67, 0
4, 94041, Note_on_c, 1, 64, 80
4, 94063, Note_on_c, 1, 66, 0
4, 94090, Note_on_c, 1, 64, 0
4, 94174, Note_on_c, 1, 74, 80
4, 94300, Note_on_c, 1, 72, 80
4, 94307, Note_on_c, 1, 74, 0
4, 94414, Note_on_c, 1, 71, 80
4, 94426, Note_on_c, 1, 72, 0
4, 94529, Note_on_c, 1, 71, 0
4, 94531, Note_on_c, 1, 69, 80
4, 94658, Note_on_c, 1, 69, 0
4, 94660, Note_on_c, 1, 67, 80
4, 94773, Note_on_c, 1, 66, 80
4, 94775, Note_on_c, 1, 67, 0
4, 94873, Note_on_c, 1, 66, 0
4, 94875, Note_on_c, 1, 64, 80
4, 94994, Note_on_c, 1, 62, 80
4, 95016, Note_on_c, 1, 64, 0
4, 95121, Note_on_c, 1, 62, 0
4, 95253, Note_on_c, 1, 71, 80
4, 95734, Note_on_c, 1, 71, 0
4, 95734, Note_on_c, 1, 69, 80
4, 95849, Note_on_c, 1, 67, 80
4, 95852, Note_on_c, 1, 69, 0
4, 95951, Note_on_c, 1, 67, 0
4, 95968, Note_on_c, 1, 66, 80
4, 96244, Note_on_c, 1, 66, 0
4, 96248, Note_on_c, 1, 67, 80
4, 96361, Note_on_c, 1, 69, 80
4, 96372, Note_on_c, 1, 67, 0
4, 96426, Note_on_c, 1, 69, 0
4, 96505, Note_on_c, 1, 67, 80
4, 96561, Note_on_c, 1, 66, 80
4, 96569, Note_on_c, 1, 67, 0
4, 96603, Note_on_c, 1, 66, 0
4, 96607, Note_on_c, 1, 67, 80
4, 96644, Note_on_c, 1, 66, 80
4, 96658, Note_on_c, 1, 67, 0
4, 96896, Note_on_c, 1, 66, 0
4, 96912, Note_on_c, 1, 67, 80
4, 96976, Note_on_c, 1, 67, 0
4, 97032, Note_on_c, 1, 67, 80
4, 97132, Note_on_c, 1, 67, 0
4, 97238, Note_on_c, 1, 55, 80
4, 97353, Note_on_c, 1, 57, 80
4, 97364, Note_on_c, 1, 55, 0
4, 97482, Note_on_c, 1, 59, 80
4, 97497, Note_on_c, 1, 57, 0
4, 97589, Note_on_c, 1, 59, 0
4, 97592, Note_on_c, 1, 60, 80
4, 97704, Note_on_c, 1, 62, 80
4, 97707, Note_on_c, 1, 60, 0
4, 97808, Note_on_c, 1, 62, 0
4, 97822, Note_on_c, 1, 60, 80
4, 97928, Note_on_c, 1, 60, 0
4, 97942, Note_on_c, 1, 59, 80
4, 98043, Note_on_c, 1, 59, 0
4, 98175, Note_on_c, 1, 62, 80
4, 98402, Note_on_c, 1, 62, 0
4, 98405, Note_on_c, 1, 67, 80
4, 98629, Note_on_c, 1, 66, 80
4, 98634, Note_on_c, 1, 67, 0
4, 98869, Note_on_c, 1, 66, 0
4, 98883, Note_on_c, 1, 67, 80
4, 98996, Note_on_c, 1, 66, 80
4, 99009, Note_on_c, 1, 67, 0
4, 99116, Note_on_c, 1, 66, 0
4, 99117, Note_on_c, 1, 67, 80
4, 99205, Note_on_c, 1, 67, 0
4, 99217, Note_on_c, 1, 69, 80
4, 99336, Note_on_c, 1, 71, 80
4, 99343, Note_on_c, 1, 69, 0
4, 99453, Note_on_c, 1, 72, 80
4, 99458, Note_on_c, 1, 71, 0
4, 99553, Note_on_c, 1, 72, 0
4, 99566, Note_on_c, 1, 74, 80
4, 99669, Note_on_c, 1, 76, 80
4, 99685, Note_on_c, 1, 74, 0
4, 99754, Note_on_c, 1, 76, 0
4, 99780, Note_on_c, 1, 74, 80
4, 99939, Note_on_c, 1, 74, 0
4, 100029, Note_on_c, 1, 62, 80
4, 100206, Note_on_c, 1, 62, 0
4, 100281, Note_on_c, 1, 67, 80
4, 100528, Note_on_c, 1, 66, 80
4, 100533, Note_on_c, 1, 67, 0
4, 100755, Note_on_c, 1, 67, 80
4, 100797, Note_on_c, 1, 66, 0
4, 100840, Note_on_c, 1, 67, 0
4, 100993, Note_on_c, 1, 74, 80
4, 101238, Note_on_c, 1, 74, 0
4, 101246, Note_on_c, 1, 79, 80
4, 101453, Note_on_c, 1, 79, 0
4, 101473, Note_on_c, 1, 78, 80
4, 101694, Note_on_c, 1, 79, 80
4, 101697, Note_on_c, 1, 78, 0
4, 101895, Note_on_c, 1, 79, 0
4, 101958, Note_on_c, 1, 74, 80
4, 102169, Note_on_c, 1, 74, 0
4, 102191, Note_on_c, 1, 76, 80
4, 102314, Note_on_c, 1, 76, 0
4, 102436, Note_on_c, 1, 64, 80
4, 102786, Note_on_c, 1, 64, 0
4, 102795, Note_on_c, 1, 69, 80
4, 102889, Note_on_c, 1, 69, 0
4, 102919, Note_on_c, 1, 62, 80
4, 103033, Note_on_c, 1, 64, 80
4, 103041, Note_on_c, 1, 62, 0
4, 103160, Note_on_c, 1, 66, 80
4, 103193, Note_on_c, 1, 64, 0
4, 103283, Note_on_c, 1, 66, 0
4, 103286, Note_on_c, 1, 67, 80
4, 103403, Note_on_c, 1, 67, 0
4, 103411, Note_on_c, 1, 69, 80
4, 103515, Note_on_c, 1, 67, 80
4, 103525, Note_on_c, 1, 69, 0
4, 103644, Note_on_c, 1, 67, 0
4, 103664, Note_on_c, 1, 66, 80
4, 103794, Note_on_c, 1, 66, 0
4, 103903, Note_on_c, 1, 69, 80
4, 104144, Note_on_c, 1, 69, 0
4, 104147, Note_on_c, 1, 74, 80
4, 104266, Note_on_c, 1, 74, 0
4, 104396, Note_on_c, 1, 72, 80
4, 104633, Note_on_c, 1, 72, 0
4, 104751, Note_on_c, 1, 62, 80
4, 104848, Note_on_c, 1, 62, 0
4, 104856, Note_on_c, 1, 55, 80
4, 104962, Note_on_c, 1, 57, 80
4, 104972, Note_on_c, 1, 55, 0
4, 105100, Note_on_c, 1, 59, 80
4, 105107, Note_on_c, 1, 57, 0
4, 105201, Note_on_c, 1, 59, 0
4, 105217, Note_on_c, 1, 60, 80
4, 105327, Note_on_c, 1, 60, 0
4, 105335, Note_on_c, 1, 62, 80
4, 105441, Note_on_c, 1, 60, 80
4, 105446, Note_on_c, 1, 62, 0
4, 105573, Note_on_c, 1, 60, 0
4, 105585, Note_on_c, 1, 59, 80
4, 105693, Note_on_c, 1, 59, 0
4, 105836, Note_on_c, 1, 62, 80
4, 106069, Note_on_c, 1, 67, 80
4, 106072, Note_on_c, 1, 62, 0
4, 106296, Note_on_c, 1, 67, 0
4, 106306, Note_on_c, 1, 66, 80
4, 106474, Note_on_c, 1, 66, 0
4, 106551, Note_on_c, 1, 67, 80
4, 106665, Note_on_c, 1, 64, 80
4, 106676, Note_on_c, 1, 67, 0
4, 106790, Note_on_c, 1, 66, 80
4, 106813, Note_on_c, 1, 64, 0
4, 106899, Note_on_c, 1, 66, 0
4, 106903, Note_on_c, 1, 67, 80
4, 107030, Note_on_c, 1, 69, 80
4, 107035, Note_on_c, 1, 67, 0
4, 107127, Note_on_c, 1, 69, 0
4, 107147, Note_on_c, 1, 71, 80
4, 107263, Note_on_c, 1, 69, 80
4, 107265, Note_on_c, 1, 71, 0
4, 107377, Note_on_c, 1, 67, 80
4, 107383, Note_on_c, 1, 69, 0
4, 107493, Note_on_c, 1, 67, 0
4, 107503, Note_on_c, 1, 66, 80
4, 108000, Note_on_c, 1, 66, 0
4, 108107, Note_on_c, 1, 64, 80
4, 108221, Note_on_c, 1, 66, 80
4, 108251, Note_on_c, 1, 64, 0
4, 108344, Note_on_c, 1, 66, 0
4, 108349, Note_on_c, 1, 67, 80
4, 108425, Note_on_c, 1, 67, 0
4, 108444, Note_on_c, 1, 69, 80
4, 108546, Note_on_c, 1, 71, 80
4, 108552, Note_on_c, 1, 69, 0
4, 108633, Note_on_c, 1, 71, 0
4, 108670, Note_on_c, 1, 72, 80
4, 109041, Note_on_c, 1, 72, 0
4, 109135, Note_on_c, 1, 71, 80
4, 109292, Note_on_c, 1, 71, 0
4, 109357, Note_on_c, 1, 69, 80
4, 109550, Note_on_c, 1, 69, 0
4, 109619, Note_on_c, 1, 64, 80
4, 109723, Note_on_c, 1, 64, 0
4, 109865, Note_on_c, 1, 69, 80
4, 110418, Note_on_c, 1, 69, 0
4, 110633, Note_on_c, 1, 62, 80
4, 110772, Note_on_c, 1, 62, 0
4, 110856, Note_on_c, 1, 67, 80
4, 110973, Note_on_c, 1, 65, 80
4, 110985, Note_on_c, 1, 67, 0
4, 111091, Note_on_c, 1, 64, 80
4, 111093, Note_on_c, 1, 65, 0
4, 111190, Note_on_c, 1, 64, 0
4, 111190, Note_on_c, 1, 62, 80
4, 111265, Note_on_c, 1, 62, 0
4, 111334, Note_on_c, 1, 64, 80
4, 111445, Note_on_c, 1, 64, 0
4, 111448, Note_on_c, 1, 62, 80
4, 111571, Note_on_c, 1, 60, 80
4, 111580, Note_on_c, 1, 62, 0
4, 111694, Note_on_c, 1, 62, 80
4, 111700, Note_on_c, 1, 60, 0
4, 111790, Note_on_c, 1, 62, 0
4, 111818, Note_on_c, 1, 64, 80
4, 111938, Note_on_c, 1, 64, 0
4, 111943, Note_on_c, 1, 65, 80
4, 112057, Note_on_c, 1, 65, 0
4, 112058, Note_on_c, 1, 67, 80
4, 112181, Note_on_c, 1, 65, 80
4, 112186, Note_on_c, 1, 67, 0
4, 112312, Note_on_c, 1, 64, 80
4, 112331, Note_on_c, 1, 65, 0
4, 112437, Note_on_c, 1, 62, 80
4, 112441, Note_on_c, 1, 64, 0
4, 112548, Note_on_c, 1, 62, 0
4, 112557, Note_on_c, 1, 64, 80
4, 112649, Note_on_c, 1, 64, 0
4, 112667, Note_on_c, 1, 66, 80
4, 112778, Note_on_c, 1, 66, 0
4, 112788, Note_on_c, 1, 67, 80
4, 112936, Note_on_c, 1, 67, 0
4, 113025, Note_on_c, 1, 66, 80
4, 113134, Note_on_c, 1, 66, 0
4, 113262, Note_on_c, 1, 67, 80
4, 113463, Note_on_c, 1, 67, 0
4, 113502, Note_on_c, 1, 62, 80
4, 113607, Note_on_c, 1, 64, 80
4, 113642, Note_on_c, 1, 62, 0
4, 113735, Note_on_c, 1, 66, 80
4, 113747, Note_on_c, 1, 64, 0
4, 113845, Note_on_c, 1, 66, 0
4, 113857, Note_on_c, 1, 67, 80
4, 113972, Note_on_c, 1, 67, 0
4, 113977, Note_on_c, 1, 69, 80
4, 114085, Note_on_c, 1, 67, 80
4, 114095, Note_on_c, 1, 69, 0
4, 114197, Note_on_c, 1, 67, 0
4, 114203, Note_on_c, 1, 66, 80
4, 114327, Note_on_c, 1, 64, 80
4, 114340, Note_on_c, 1, 66, 0
4, 114455, Note_on_c, 1, 64, 0
4, 114459, Note_on_c, 1, 66, 80
4, 114558, Note_on_c, 1, 66, 0
4, 114575, Note_on_c, 1, 68, 80
4, 114667, Note_on_c, 1, 68, 0
4, 114713, Note_on_c, 1, 69, 80
4, 114850, Note_on_c, 1, 69, 0
4, 114941, Note_on_c, 1, 68, 80
4, 115027, Note_on_c, 1, 68, 0
4, 115172, Note_on_c, 1, 69, 80
4, 115424, Note_on_c, 1, 69, 0
4, 115430, Note_on_c, 1, 64, 80
4, 115536, Note_on_c, 1, 66, 80
4, 115561, Note_on_c, 1, 64, 0
4, 115606, Note_on_c, 1, 66, 0
4, 115659, Note_on_c, 1, 67, 80
4, 115751, Note_on_c, 1, 67, 0
4, 115777, Note_on_c, 1, 69, 80
4, 115890, Note_on_c, 1, 69, 0
4, 115892, Note_on_c, 1, 71, 80
4, 115971, Note_on_c, 1, 71, 0
4, 115988, Note_on_c, 1, 69, 80
4, 116064, Note_on_c, 1, 69, 0
4, 116121, Note_on_c, 1, 67, 80
4, 117153, Note_on_c, 1, 67, 0
4, 117322, Note_on_c, 1, 66, 80
4, 117441, Note_on_c, 1, 66, 0
4, 117445, Note_on_c, 1, 67, 80
4, 117550, Note_on_c, 1, 67, 0
4, 117560, Note_on_c, 1, 69, 80
4, 117655, Note_on_c, 1, 69, 0
4, 117669, Note_on_c, 1, 71, 80
4, 117803, Note_on_c, 1, 73, 80
4, 117806, Note_on_c, 1, 71, 0
4, 117897, Note_on_c, 1, 73, 0
4, 117916, Note_on_c, 1, 71, 80
4, 118015, Note_on_c, 1, 71, 0
4, 118037, Note_on_c, 1, 74, 80
4, 118134, Note_on_c, 1, 74, 0
4, 118155, Note_on_c, 1, 69, 80
4, 118242, Note_on_c, 1, 69, 0
4, 118280, Note_on_c, 1, 74, 80
4, 118687, Note_on_c, 1, 74, 0
4, 118764, Note_on_c, 1, 73, 80
4, 118886, Note_on_c, 1, 73, 0
4, 118998, Note_on_c, 1, 74, 80
4, 119116, Note_on_c, 1, 74, 0
4, 119127, Note_on_c, 1, 69, 80
4, 119231, Note_on_c, 1, 69, 0
4, 119244, Note_on_c, 1, 66, 80
4, 119341, Note_on_c, 1, 66, 0
4, 119360, Note_on_c, 1, 62, 80
4, 119471, Note_on_c, 1, 62, 0
4, 119481, Note_on_c, 1, 67, 80
4, 120006, Note_on_c, 1, 67, 0
4, 120091, Note_on_c, 1, 64, 80
4, 120207, Note_on_c, 1, 61, 80
4, 120214, Note_on_c, 1, 64, 0
4, 120336, Note_on_c, 1, 61, 0
4, 120339, Note_on_c, 1, 57, 80
4, 120454, Note_on_c, 1, 57, 0
4, 120457, Note_on_c, 1, 66, 80
4, 120925, Note_on_c, 1, 64, 80
4, 120932, Note_on_c, 1, 66, 0
4, 121259, Note_on_c, 1, 64, 0
4, 121421, Note_on_c, 1, 76, 80
4, 121946, Note_on_c, 1, 76, 0
4, 122121, Note_on_c, 1, 69, 80
4, 122274, Note_on_c, 1, 69, 0
4, 122362, Note_on_c, 1, 74, 80
4, 122472, Note_on_c, 1, 74, 0
4, 122473, Note_on_c, 1, 72, 80
4, 122588, Note_on_c, 1, 72, 0
4, 122593, Note_on_c, 1, 71, 80
4, 122695, Note_on_c, 1, 69, 80
4, 122705, Note_on_c, 1, 71, 0
4, 122769, Note_on_c, 1, 69, 0
4, 122843, Note_on_c, 1, 71, 80
4, 122950, Note_on_c, 1, 69, 80
4, 122953, Note_on_c, 1, 71, 0
4, 123076, Note_on_c, 1, 67, 80
4, 123094, Note_on_c, 1, 69, 0
4, 123144, Note_on_c, 1, 67, 0
4, 123194, Note_on_c, 1, 69, 80
4, 123262, Note_on_c, 1, 69, 0
4, 123329, Note_on_c, 1, 71, 80
4, 123452, Note_on_c, 1, 72, 80
4, 123464, Note_on_c, 1, 71, 0
4, 123553, Note_on_c, 1, 72, 0
4, 123564, Note_on_c, 1, 74, 80
4, 123639, Note_on_c, 1, 74, 0
4, 123676, Note_on_c, 1, 72, 80
4, 123740, Note_on_c, 1, 72, 0
4, 123807, Note_on_c, 1, 71, 80
4, 123924, Note_on_c, 1, 69, 80
4, 123930, Note_on_c, 1, 71, 0
4, 124016, Note_on_c, 1, 69, 0
4, 124044, Note_on_c, 1, 71, 80
4, 124126, Note_on_c, 1, 71, 0
4, 124158, Note_on_c, 1, 73, 80
4, 124248, Note_on_c, 1, 73, 0
4, 124286, Note_on_c, 1, 74, 80
4, 124429, Note_on_c, 1, 74, 0
4, 124534, Note_on_c, 1, 73, 80
4, 124644, Note_on_c, 1, 73, 0
4, 124769, Note_on_c, 1, 74, 80
4, 125018, Note_on_c, 1, 69, 80
4, 125024, Note_on_c, 1, 74, 0
4, 125074, Note_on_c, 1, 69, 0
4, 125133, Note_on_c, 1, 71, 80
4, 125191, Note_on_c, 1, 71, 0
4, 125254, Note_on_c, 1, 72, 80
4, 125359, Note_on_c, 1, 72, 0
4, 125370, Note_on_c, 1, 74, 80
4, 125457, Note_on_c, 1, 74, 0
4, 125479, Note_on_c, 1, 76, 80
4, 125551, Note_on_c, 1, 76, 0
4, 125597, Note_on_c, 1, 74, 80
4, 125654, Note_on_c, 1, 74, 0
4, 125721, Note_on_c, 1, 72, 80
4, 125836, Note_on_c, 1, 72, 0
4, 125836, Note_on_c, 1, 71, 80
4, 125959, Note_on_c, 1, 73, 80
4, 125961, Note_on_c, 1, 71, 0
4, 126023, Note_on_c, 1, 73, 0
4, 126068, Note_on_c, 1, 75, 80
4, 126162, Note_on_c, 1, 75, 0
4, 126199, Note_on_c, 1, 76, 80
4, 126317, Note_on_c, 1, 76, 0
4, 126451, Note_on_c, 1, 75, 80
4, 126539, Note_on_c, 1, 75, 0
4, 126687, Note_on_c, 1, 76, 80
4, 126897, Note_on_c, 1, 76, 0
4, 126933, Note_on_c, 1, 71, 80
4, 127018, Note_on_c, 1, 71, 0
4, 127050, Note_on_c, 1, 73, 80
4, 127139, Note_on_c, 1, 73, 0
4, 127174, Note_on_c, 1, 74, 80
4, 127283, Note_on_c, 1, 74, 0
4, 127287, Note_on_c, 1, 76, 80
4, 127380, Note_on_c, 1, 76, 0
4, 127407, Note_on_c, 1, 78, 80
4, 127510, Note_on_c, 1, 76, 80
4, 127511, Note_on_c, 1, 78, 0
4, 127658, Note_on_c, 1, 76, 0
4, 127664, Note_on_c, 1, 75, 80
4, 127777, Note_on_c, 1, 75, 0
4, 127897, Note_on_c, 1, 64, 80
4, 127983, Note_on_c, 1, 64, 0
4, 128009, Note_on_c, 1, 66, 80
4, 128105, Note_on_c, 1, 66, 0
4, 128137, Note_on_c, 1, 67, 80
4, 128228, Note_on_c, 1, 67, 0
4, 128246, Note_on_c, 1, 69, 80
4, 128341, Note_on_c, 1, 69, 0
4, 128359, Note_on_c, 1, 71, 80
4, 128443, Note_on_c, 1, 71, 0
4, 128457, Note_on_c, 1, 69, 80
4, 128576, Note_on_c, 1, 69, 0
4, 128585, Note_on_c, 1, 67, 80
4, 128672, Note_on_c, 1, 67, 0
4, 128848, Note_on_c, 1, 76, 80
4, 129276, Note_on_c, 1, 76, 0
4, 129332, Note_on_c, 1, 74, 80
4, 129808, Note_on_c, 1, 74, 0
4, 129820, Note_on_c, 1, 72, 80
4, 130299, Note_on_c, 1, 71, 80
4, 130302, Note_on_c, 1, 72, 0
4, 130536, Note_on_c, 1, 69, 80
4, 130542, Note_on_c, 1, 71, 0
4, 130777, Note_on_c, 1, 69, 0
4, 130796, Note_on_c, 1, 64, 80
4, 131029, Note_on_c, 1, 64, 0
4, 131033, Note_on_c, 1, 69, 80
4, 131574, Note_on_c, 1, 69, 0
4, 131732, Note_on_c, 1, 62, 80
4, 131956, Note_on_c, 1, 62, 0
4, 131976, Note_on_c, 1, 67, 80
4, 132069, Note_on_c, 1, 67, 0
4, 132084, Note_on_c, 1, 65, 80
4, 132190, Note_on_c, 1, 65, 0
4, 132204, Note_on_c, 1, 64, 80
4, 132316, Note_on_c, 1, 62, 80
4, 132330, Note_on_c, 1, 64, 0
4, 132431, Note_on_c, 1, 62, 0
4, 132458, Note_on_c, 1, 64, 80
4, 132571, Note_on_c, 1, 62, 80
4, 132573, Note_on_c, 1, 64, 0
4, 132694, Note_on_c, 1, 60, 80
4, 132697, Note_on_c, 1, 62, 0
4, 132813, Note_on_c, 1, 60, 0
4, 132815, Note_on_c, 1, 62, 80
4, 132942, Note_on_c, 1, 62, 0
4, 132943, Note_on_c, 1, 64, 80
4, 133055, Note_on_c, 1, 64, 0
4, 133069, Note_on_c, 1, 65, 80
4, 133184, Note_on_c, 1, 67, 80
4, 133189, Note_on_c, 1, 65, 0
4, 133298, Note_on_c, 1, 65, 80
4, 133317, Note_on_c, 1, 67, 0
4, 133418, Note_on_c, 1, 65, 0
4, 133428, Note_on_c, 1, 64, 80
4, 133536, Note_on_c, 1, 64, 0
4, 133648, Note_on_c, 1, 67, 80
4, 133894, Note_on_c, 1, 67, 0
4, 133896, Note_on_c, 1, 72, 80
4, 134137, Note_on_c, 1, 71, 80
4, 134142, Note_on_c, 1, 72, 0
4, 134282, Note_on_c, 1, 71, 0
4, 134378, Note_on_c, 1, 72, 80
4, 134495, Note_on_c, 1, 71, 80
4, 134504, Note_on_c, 1, 72, 0
4, 134621, Note_on_c, 1, 72, 80
4, 134623, Note_on_c, 1, 71, 0
4, 134724, Note_on_c, 1, 72, 0
4, 134726, Note_on_c, 1, 74, 80
4, 134842, Note_on_c, 1, 74, 0
4, 134849, Note_on_c, 1, 76, 80
4, 134979, Note_on_c, 1, 77, 80
4, 134995, Note_on_c, 1, 76, 0
4, 135091, Note_on_c, 1, 77, 0
4, 135102, Note_on_c, 1, 79, 80
4, 135220, Note_on_c, 1, 77, 80
4, 135227, Note_on_c, 1, 79, 0
4, 135331, Note_on_c, 1, 77, 0
4, 135335, Note_on_c, 1, 76, 80
4, 135452, Note_on_c, 1, 74, 80
4, 135464, Note_on_c, 1, 76, 0
4, 135570, Note_on_c, 1, 76, 80
4, 135578, Note_on_c, 1, 74, 0
4, 135701, Note_on_c, 1, 77, 80
4, 135728, Note_on_c, 1, 76, 0
4, 135786, Note_on_c, 1, 77, 0
4, 135828, Note_on_c, 1, 79, 80
4, 135948, Note_on_c, 1, 81, 80
4, 135953, Note_on_c, 1, 79, 0
4, 136054, Note_on_c, 1, 81, 0
4, 136063, Note_on_c, 1, 79, 80
4, 136175, Note_on_c, 1, 79, 0
4, 136175, Note_on_c, 1, 81, 80
4, 136246, Note_on_c, 1, 81, 0
4, 136296, Note_on_c, 1, 79, 80
4, 136422, Note_on_c, 1, 79, 0
4, 136425, Note_on_c, 1, 77, 80
4, 136540, Note_on_c, 1, 77, 0
4, 136551, Note_on_c, 1, 79, 80
4, 136651, Note_on_c, 1, 79, 0
4, 136660, Note_on_c, 1, 84, 80
4, 136775, Note_on_c, 1, 83, 80
4, 136780, Note_on_c, 1, 84, 0
4, 136887, Note_on_c, 1, 81, 80
4, 136902, Note_on_c, 1, 83, 0
4, 137013, Note_on_c, 1, 79, 80
4, 137016, Note_on_c, 1, 81, 0
4, 137135, Note_on_c, 1, 77, 80
4, 137138, Note_on_c, 1, 79, 0
4, 137247, Note_on_c, 1, 76, 80
4, 137252, Note_on_c, 1, 77, 0
4, 137352, Note_on_c, 1, 76, 0
4, 137474, Note_on_c, 1, 72, 80
4, 137765, Note_on_c, 1, 72, 0
4, 137991, Note_on_c, 1, 71, 80
4, 138225, Note_on_c, 1, 71, 0
4, 138240, Note_on_c, 1, 72, 80
4, 138344, Note_on_c, 1, 72, 0
4, 138484, Note_on_c, 1, 76, 80
4, 138485, Note_on_c, 1, 67, 80
4, 138605, Note_on_c, 1, 76, 0
4, 138730, Note_on_c, 1, 74, 80
4, 138744, Note_on_c, 1, 67, 0
4, 138864, Note_on_c, 1, 72, 80
4, 138975, Note_on_c, 1, 72, 0
4, 138997, Note_on_c, 1, 71, 80
4, 139091, Note_on_c, 1, 71, 0
4, 139102, Note_on_c, 1, 74, 0
4, 139146, Note_on_c, 1, 69, 80
4, 139149, Note_on_c, 1, 72, 80
4, 139253, Note_on_c, 1, 72, 0
4, 139255, Note_on_c, 1, 69, 0
4, 139282, Note_on_c, 1, 71, 80
4, 139285, Note_on_c, 1, 74, 80
4, 140205, Note_on_c, 1, 71, 0
4, 140210, Note_on_c, 1, 74, 0
4, 140210, End_track
5, 0, Start_track
5, 0, Title_t, "LH 4"
5, 0, MIDI_port, 0
5, 0, Control_c, 5, 7, 86
5, 0, Control_c, 5, 10, 65
5, 0, Program_c, 5, 74
5, 1192, Note_on_c, 5, 79, 80
5, 1302, Note_on_c, 5, 81, 80
5, 1326, Note_on_c, 5, 79, 0
5, 1431, Note_on_c, 5, 83, 80
5, 1451, Note_on_c, 5, 81, 0
5, 1541, Note_on_c, 5, 83, 0
5, 1542, Note_on_c, 5, 84, 80
5, 1652, Note_on_c, 5, 84, 0
5, 1657, Note_on_c, 5, 86, 80
5, 1762, Note_on_c, 5, 84, 80
5, 1766, Note_on_c, 5, 86, 0
5, 1871, Note_on_c, 5, 84, 0
5, 1895, Note_on_c, 5, 83, 80
5, 2040, Note_on_c, 5, 83, 0
5, 2173, Note_on_c, 5, 86, 80
5, 2412, Note_on_c, 5, 86, 0
5, 2412, Note_on_c, 5, 91, 80
5, 2607, Note_on_c, 5, 91, 0
5, 2644, Note_on_c, 5, 90, 80
5, 2818, Note_on_c, 5, 90, 0
5, 2875, Note_on_c, 5, 91, 80
5, 3110, Note_on_c, 5, 91, 0
5, 3115, Note_on_c, 5, 95, 80
5, 3343, Note_on_c, 5, 93, 80
5, 3354, Note_on_c, 5, 95, 0
5, 3548, Note_on_c, 5, 93, 0
5, 3555, Note_on_c, 5, 90, 80
5, 3778, Note_on_c, 5, 90, 0
5, 3783, Note_on_c, 5, 91, 80
5, 3919, Note_on_c, 5, 91, 0
5, 4046, Note_on_c, 5, 83, 80
5, 4177, Note_on_c, 5, 84, 80
5, 4188, Note_on_c, 5, 83, 0
5, 4288, Note_on_c, 5, 84, 0
5, 4298, Note_on_c, 5, 86, 80
5, 4403, Note_on_c, 5, 88, 80
5, 4406, Note_on_c, 5, 86, 0
5, 4530, Note_on_c, 5, 86, 80
5, 4534, Note_on_c, 5, 88, 0
5, 4646, Note_on_c, 5, 88, 80
5, 4653, Note_on_c, 5, 86, 0
5, 4754, Note_on_c, 5, 88, 0
5, 4768, Note_on_c, 5, 86, 80
5, 4888, Note_on_c, 5, 84, 80
5, 4891, Note_on_c, 5, 86, 0
5, 5013, Note_on_c, 5, 84, 0
5, 5016, Note_on_c, 5, 86, 80
5, 5133, Note_on_c, 5, 86, 0
5, 5134, Note_on_c, 5, 91, 80
5, 5253, Note_on_c, 5, 91, 0
5, 5260, Note_on_c, 5, 90, 80
5, 5381, Note_on_c, 5, 88, 80
5, 5384, Note_on_c, 5, 90, 0
5, 5511, Note_on_c, 5, 86, 80
5, 5528, Note_on_c, 5, 88, 0
5, 5661, Note_on_c, 5, 84, 80
5, 5681, Note_on_c, 5, 86, 0
5, 5755, Note_on_c, 5, 83, 80
5, 5757, Note_on_c, 5, 84, 0
5, 5996, Note_on_c, 5, 83, 0
5, 6004, Note_on_c, 5, 88, 80
5, 6081, Note_on_c, 5, 88, 0
5, 6110, Note_on_c, 5, 87, 80
5, 6187, Note_on_c, 5, 87, 0
5, 6230, Note_on_c, 5, 88, 80
5, 6763, Note_on_c, 5, 88, 0
5, 6930, Note_on_c, 5, 81, 80
5, 7042, Note_on_c, 5, 81, 0
5, 7182, Note_on_c, 5, 86, 80
5, 8016, Note_on_c, 5, 88, 80
5, 8029, Note_on_c, 5, 86, 0
5, 8078, Note_on_c, 5, 88, 0
5, 8152, Note_on_c, 5, 86, 80
5, 8192, Note_on_c, 5, 85, 80
5, 8207, Note_on_c, 5, 86, 0
5, 8235, Note_on_c, 5, 85, 0
5, 8249, Note_on_c, 5, 86, 80
5, 8280, Note_on_c, 5, 85, 80
5, 8311, Note_on_c, 5, 85, 0
5, 8328, Note_on_c, 5, 85, 80
5, 8341, Note_on_c, 5, 86, 0
5, 8486, Note_on_c, 5, 86, 80
5, 8498, Note_on_c, 5, 85, 0
5, 8545, Note_on_c, 5, 86, 0
5, 8615, Note_on_c, 5, 86, 80
5, 9692, Note_on_c, 5, 84, 80
5, 9704, Note_on_c, 5, 86, 0
5, 9825, Note_on_c, 5, 83, 80
5, 9843, Note_on_c, 5, 84, 0
5, 9930, Note_on_c, 5, 81, 80
5, 9933, Note_on_c, 5, 83, 0
5, 10059, Note_on_c, 5, 79, 80
5, 10060, Note_on_c, 5, 81, 0
5, 10183, Note_on_c, 5, 83, 80
5, 10188, Note_on_c, 5, 79, 0
5, 10280, Note_on_c, 5, 83, 0
5, 10285, Note_on_c, 5, 81, 80
5, 10403, Note_on_c, 5, 84, 80
5, 10415, Note_on_c, 5, 81, 0
5, 10524, Note_on_c, 5, 83, 80
5, 10537, Note_on_c, 5, 84, 0
5, 10648, Note_on_c, 5, 81, 80
5, 10650, Note_on_c, 5, 83, 0
5, 10773, Note_on_c, 5, 79, 80
5, 10785, Note_on_c, 5, 81, 0
5, 10883, Note_on_c, 5, 78, 80
5, 10898, Note_on_c, 5, 79, 0
5, 10993, Note_on_c, 5, 78, 0
5, 10998, Note_on_c, 5, 76, 80
5, 11135, Note_on_c, 5, 81, 80
5, 11138, Note_on_c, 5, 76, 0
5, 11255, Note_on_c, 5, 79, 80
5, 11257, Note_on_c, 5, 81, 0
5, 11371, Note_on_c, 5, 81, 80
5, 11378, Note_on_c, 5, 79, 0
5, 11460, Note_on_c, 5, 81, 0
5, 11485, Note_on_c, 5, 78, 80
5, 11630, Note_on_c, 5, 78, 0
5, 11731, Note_on_c, 5, 74, 80
5, 11844, Note_on_c, 5, 76, 80
5, 11861, Note_on_c, 5, 74, 0
5, 11973, Note_on_c, 5, 78, 80
5, 11999, Note_on_c, 5, 76, 0
5, 12089, Note_on_c, 5, 79, 80
5, 12122, Note_on_c, 5, 78, 0
5, 12204, Note_on_c, 5, 79, 0
5, 12212, Note_on_c, 5, 81, 80
5, 12311, Note_on_c, 5, 79, 80
5, 12316, Note_on_c, 5, 81, 0
5, 12402, Note_on_c, 5, 79, 0
5, 12442, Note_on_c, 5, 78, 80
5, 12565, Note_on_c, 5, 78, 0
5, 12685, Note_on_c, 5, 81, 80
5, 12906, Note_on_c, 5, 81, 0
5, 12944, Note_on_c, 5, 86, 80
5, 13100, Note_on_c, 5, 86, 0
5, 13165, Note_on_c, 5, 85, 80
5, 13291, Note_on_c, 5, 85, 0
5, 13422, Note_on_c, 5, 86, 80
5, 13537, Note_on_c, 5, 86, 0
5, 13672, Note_on_c, 5, 78, 80
5, 13775, Note_on_c, 5, 78, 0
5, 13787, Note_on_c, 5, 79, 80
5, 13889, Note_on_c, 5, 79, 0
5, 13912, Note_on_c, 5, 81, 80
5, 14025, Note_on_c, 5, 83, 80
5, 14028, Note_on_c, 5, 81, 0
5, 14117, Note_on_c, 5, 83, 0
5, 14147, Note_on_c, 5, 81, 80
5, 14251, Note_on_c, 5, 83, 80
5, 14260, Note_on_c, 5, 81, 0
5, 14334, Note_on_c, 5, 83, 0
5, 14378, Note_on_c, 5, 81, 80
5, 14495, Note_on_c, 5, 79, 80
5, 14499, Note_on_c, 5, 81, 0
5, 14607, Note_on_c, 5, 79, 0
5, 14616, Note_on_c, 5, 81, 80
5, 14700, Note_on_c, 5, 86, 80
5, 14728, Note_on_c, 5, 81, 0
5, 14819, Note_on_c, 5, 86, 0
5, 14847, Note_on_c, 5, 85, 80
5, 14975, Note_on_c, 5, 83, 80
5, 14979, Note_on_c, 5, 85, 0
5, 15100, Note_on_c, 5, 81, 80
5, 15113, Note_on_c, 5, 83, 0
5, 15204, Note_on_c, 5, 79, 80
5, 15216, Note_on_c, 5, 81, 0
5, 15323, Note_on_c, 5, 79, 0
5, 15326, Note_on_c, 5, 78, 80
5, 15447, Note_on_c, 5, 78, 0
5, 15581, Note_on_c, 5, 81, 80
5, 15734, Note_on_c, 5, 81, 0
5, 15824, Note_on_c, 5, 86, 80
5, 16060, Note_on_c, 5, 85, 80
5, 16066, Note_on_c, 5, 86, 0
5, 16182, Note_on_c, 5, 85, 0
5, 16288, Note_on_c, 5, 86, 80
5, 16463, Note_on_c, 5, 86, 0
5, 16534, Note_on_c, 5, 90, 80
5, 16750, Note_on_c, 5, 90, 0
5, 16767, Note_on_c, 5, 88, 80
5, 16973, Note_on_c, 5, 88, 0
5, 16999, Note_on_c, 5, 85, 80
5, 17211, Note_on_c, 5, 85, 0
5, 17246, Note_on_c, 5, 86, 80
5, 17361, Note_on_c, 5, 86, 0
5, 17364, Note_on_c, 5, 88, 80
5, 17486, Note_on_c, 5, 90, 80
5, 17522, Note_on_c, 5, 88, 0
5, 17597, Note_on_c, 5, 90, 0
5, 17603, Note_on_c, 5, 86, 80
5, 17701, Note_on_c, 5, 86, 0
5, 17717, Note_on_c, 5, 83, 80
5, 17839, Note_on_c, 5, 86, 80
5, 17849, Note_on_c, 5, 83, 0
5, 17968, Note_on_c, 5, 85, 80
5, 17973, Note_on_c, 5, 86, 0
5, 18066, Note_on_c, 5, 85, 0
5, 18092, Note_on_c, 5, 83, 80
5, 18208, Note_on_c, 5, 88, 80
5, 18214, Note_on_c, 5, 83, 0
5, 18336, Note_on_c, 5, 86, 80
5, 18345, Note_on_c, 5, 88, 0
5, 18452, Note_on_c, 5, 86, 0
5, 18457, Note_on_c, 5, 85, 80
5, 18569, Note_on_c, 5, 85, 0
5, 18574, Note_on_c, 5, 86, 80
5, 18688, Note_on_c, 5, 88, 80
5, 18696, Note_on_c, 5, 86, 0
5, 18795, Note_on_c, 5, 83, 80
5, 18819, Note_on_c, 5, 88, 0
5, 18923, Note_on_c, 5, 85, 80
5, 18933, Note_on_c, 5, 83, 0
5, 19035, Note_on_c, 5, 85, 0
5, 19040, Note_on_c, 5, 81, 80
5, 19167, Note_on_c, 5, 86, 80
5, 19169, Note_on_c, 5, 81, 0
5, 19278, Note_on_c, 5, 86, 0
5, 19279, Note_on_c, 5, 85, 80
5, 19399, Note_on_c, 5, 85, 0
5, 19411, Note_on_c, 5, 86, 80
5, 19792, Note_on_c, 5, 90, 80
5, 19800, Note_on_c, 5, 86, 0
5, 19910, Note_on_c, 5, 90, 0
5, 19911, Note_on_c, 5, 88, 80
5, 20045, Note_on_c, 5, 86, 80
5, 20049, Note_on_c, 5, 88, 0
5, 20144, Note_on_c, 5, 85, 80
5, 20177, Note_on_c, 5, 86, 0
5, 20342, Note_on_c, 5, 85, 0
5, 20373, Note_on_c, 5, 76, 80
5, 20509, Note_on_c, 5, 76, 0
5, 20624, Note_on_c, 5, 81, 80
5, 20739, Note_on_c, 5, 81, 0
5, 20870, Note_on_c, 5, 85, 80
5, 21043, Note_on_c, 5, 83, 80
5, 21080, Note_on_c, 5, 85, 0
5, 21146, Note_on_c, 5, 79, 80
5, 21165, Note_on_c, 5, 83, 0
5, 21276, Note_on_c, 5, 79, 0
5, 21290, Note_on_c, 5, 76, 80
5, 21398, Note_on_c, 5, 78, 80
5, 21415, Note_on_c, 5, 76, 0
5, 21538, Note_on_c, 5, 78, 0
5, 21542, Note_on_c, 5, 79, 80
5, 21682, Note_on_c, 5, 81, 80
5, 21689, Note_on_c, 5, 79, 0
5, 21806, Note_on_c, 5, 83, 80
5, 21808, Note_on_c, 5, 81, 0
5, 21914, Note_on_c, 5, 83, 0
5, 21929, Note_on_c, 5, 85, 80
5, 22050, Note_on_c, 5, 86, 80
5, 22055, Note_on_c, 5, 85, 0
5, 22195, Note_on_c, 5, 86, 0
5, 22286, Note_on_c, 5, 78, 80
5, 22422, Note_on_c, 5, 78, 0
5, 22521, Note_on_c, 5, 83, 80
5, 22652, Note_on_c, 5, 83, 0
5, 22768, Note_on_c, 5, 86, 80
5, 22865, Note_on_c, 5, 86, 0
5, 22996, Note_on_c, 5, 85, 80
5, 23231, Note_on_c, 5, 85, 0
5, 23236, Note_on_c, 5, 81, 80
5, 23347, Note_on_c, 5, 81, 0
5, 23497, Note_on_c, 5, 78, 80
5, 23623, Note_on_c, 5, 78, 0
5, 23744, Note_on_c, 5, 86, 80
5, 23842, Note_on_c, 5, 86, 0
5, 23978, Note_on_c, 5, 83, 80
5, 24196, Note_on_c, 5, 79, 80
5, 24227, Note_on_c, 5, 83, 0
5, 24314, Note_on_c, 5, 79, 0
5, 24456, Note_on_c, 5, 76, 80
5, 24580, Note_on_c, 5, 76, 0
5, 24694, Note_on_c, 5, 85, 80
5, 24825, Note_on_c, 5, 85, 0
5, 24915, Note_on_c, 5, 81, 80
5, 25173, Note_on_c, 5, 78, 80
5, 25211, Note_on_c, 5, 81, 0
5, 25274, Note_on_c, 5, 78, 0
5, 25405, Note_on_c, 5, 74, 80
5, 25517, Note_on_c, 5, 74, 0
5, 25655, Note_on_c, 5, 83, 80
5, 25786, Note_on_c, 5, 83, 0
5, 25901, Note_on_c, 5, 81, 80
5, 26248, Note_on_c, 5, 81, 0
5, 26253, Note_on_c, 5, 79, 80
5, 26381, Note_on_c, 5, 79, 0
5, 26403, Note_on_c, 5, 78, 80
5, 26507, Note_on_c, 5, 78, 0
5, 26602, Note_on_c, 5, 76, 80
5, 26711, Note_on_c, 5, 74, 80
5, 26721, Note_on_c, 5, 76, 0
5, 26760, Note_on_c, 5, 74, 0
5, 26848, Note_on_c, 5, 74, 80
5, 26964, Note_on_c, 5, 69, 80
5, 26968, Note_on_c, 5, 74, 0
5, 27097, Note_on_c, 5, 74, 80
5, 27102, Note_on_c, 5, 69, 0
5, 27212, Note_on_c, 5, 74, 0
5, 27213, Note_on_c, 5, 76, 80
5, 27316, Note_on_c, 5, 76, 0
5, 27343, Note_on_c, 5, 78, 80
5, 27462, Note_on_c, 5, 79, 80
5, 27469, Note_on_c, 5, 78, 0
5, 27583, Note_on_c, 5, 81, 80
5, 27587, Note_on_c, 5, 79, 0
5, 27685, Note_on_c, 5, 81, 0
5, 27692, Note_on_c, 5, 79, 80
5, 27803, Note_on_c, 5, 79, 0
5, 27822, Note_on_c, 5, 78, 80
5, 27934, Note_on_c, 5, 78, 0
5, 28059, Note_on_c, 5, 81, 80
5, 28236, Note_on_c, 5, 81, 0
5, 28298, Note_on_c, 5, 86, 80
5, 28470, Note_on_c, 5, 86, 0
5, 28537, Note_on_c, 5, 80, 80
5, 28675, Note_on_c, 5, 80, 0
5, 28768, Note_on_c, 5, 81, 80
5, 28932, Note_on_c, 5, 81, 0
5, 29026, Note_on_c, 5, 76, 80
5, 29201, Note_on_c, 5, 76, 0
5, 29264, Note_on_c, 5, 81, 80
5, 29470, Note_on_c, 5, 81, 0
5, 29499, Note_on_c, 5, 80, 80
5, 29711, Note_on_c, 5, 80, 0
5, 29729, Note_on_c, 5, 81, 80
5, 29846, Note_on_c, 5, 76, 80
5, 29863, Note_on_c, 5, 81, 0
5, 29972, Note_on_c, 5, 69, 80
5, 29976, Note_on_c, 5, 76, 0
5, 30091, Note_on_c, 5, 71, 80
5, 30123, Note_on_c, 5, 69, 0
5, 30225, Note_on_c, 5, 73, 80
5, 30243, Note_on_c, 5, 71, 0
5, 30349, Note_on_c, 5, 75, 80
5, 30359, Note_on_c, 5, 73, 0
5, 30465, Note_on_c, 5, 75, 0
5, 30467, Note_on_c, 5, 76, 80
5, 30567, Note_on_c, 5, 76, 0
5, 30579, Note_on_c, 5, 78, 80
5, 30698, Note_on_c, 5, 79, 80
5, 30705, Note_on_c, 5, 78, 0
5, 30851, Note_on_c, 5, 79, 0
5, 30949, Note_on_c, 5, 71, 80
5, 31161, Note_on_c, 5, 71, 0
5, 31200, Note_on_c, 5, 76, 80
5, 31422, Note_on_c, 5, 75, 80
5, 31430, Note_on_c, 5, 76, 0
5, 31647, Note_on_c, 5, 75, 0
5, 31652, Note_on_c, 5, 76, 80
5, 31773, Note_on_c, 5, 71, 80
5, 31776, Note_on_c, 5, 76, 0
5, 31888, Note_on_c, 5, 76, 80
5, 31902, Note_on_c, 5, 71, 0
5, 32008, Note_on_c, 5, 78, 80
5, 32027, Note_on_c, 5, 76, 0
5, 32129, Note_on_c, 5, 78, 0
5, 32134, Note_on_c, 5, 79, 80
5, 32241, Note_on_c, 5, 79, 0
5, 32250, Note_on_c, 5, 81, 80
5, 32368, Note_on_c, 5, 83, 80
5, 32371, Note_on_c, 5, 81, 0
5, 32476, Note_on_c, 5, 81, 80
5, 32484, Note_on_c, 5, 83, 0
5, 32609, Note_on_c, 5, 81, 0
5, 32613, Note_on_c, 5, 79, 80
5, 32709, Note_on_c, 5, 79, 0
5, 32851, Note_on_c, 5, 83, 80
5, 33096, Note_on_c, 5, 83, 0
5, 33101, Note_on_c, 5, 88, 80
5, 33290, Note_on_c, 5, 88, 0
5, 33329, Note_on_c, 5, 87, 80
5, 33485, Note_on_c, 5, 87, 0
5, 33575, Note_on_c, 5, 88, 80
5, 33754, Note_on_c, 5, 88, 0
5, 33820, Note_on_c, 5, 91, 80
5, 34046, Note_on_c, 5, 90, 80
5, 34068, Note_on_c, 5, 91, 0
5, 34262, Note_on_c, 5, 90, 0
5, 34270, Note_on_c, 5, 87, 80
5, 34502, Note_on_c, 5, 87, 0
5, 34505, Note_on_c, 5, 88, 80
5, 34620, Note_on_c, 5, 88, 0
5, 34626, Note_on_c, 5, 78, 80
5, 34695, Note_on_c, 5, 78, 0
5, 34746, Note_on_c, 5, 79, 80
5, 34868, Note_on_c, 5, 81, 80
5, 34886, Note_on_c, 5, 79, 0
5, 34998, Note_on_c, 5, 81, 0
5, 35019, Note_on_c, 5, 83, 80
5, 35145, Note_on_c, 5, 84, 80
5, 35152, Note_on_c, 5, 83, 0
5, 35276, Note_on_c, 5, 83, 80
5, 35287, Note_on_c, 5, 84, 0
5, 35388, Note_on_c, 5, 84, 80
5, 35397, Note_on_c, 5, 83, 0
5, 35503, Note_on_c, 5, 84, 0
5, 35512, Note_on_c, 5, 83, 80
5, 35636, Note_on_c, 5, 81, 80
5, 35645, Note_on_c, 5, 83, 0
5, 35756, Note_on_c, 5, 83, 80
5, 35760, Note_on_c, 5, 81, 0
5, 35861, Note_on_c, 5, 83, 0
5, 35864, Note_on_c, 5, 88, 80
5, 35987, Note_on_c, 5, 88, 0
5, 35989, Note_on_c, 5, 87, 80
5, 36111, Note_on_c, 5, 85, 80
5, 36121, Note_on_c, 5, 87, 0
5, 36225, Note_on_c, 5, 83, 80
5, 36227, Note_on_c, 5, 85, 0
5, 36343, Note_on_c, 5, 83, 0
5, 36344, Note_on_c, 5, 81, 80
5, 36460, Note_on_c, 5, 79, 80
5, 36474, Note_on_c, 5, 81, 0
5, 36580, Note_on_c, 5, 79, 0
5, 36701, Note_on_c, 5, 76, 80
5, 36826, Note_on_c, 5, 76, 0
5, 36945, Note_on_c, 5, 83, 80
5, 37628, Note_on_c, 5, 83, 0
5, 37646, Note_on_c, 5, 81, 80
5, 37752, Note_on_c, 5, 81, 0
5, 37758, Note_on_c, 5, 79, 80
5, 37877, Note_on_c, 5, 79, 0
5, 37889, Note_on_c, 5, 81, 80
5, 38511, Note_on_c, 5, 81, 0
5, 38625, Note_on_c, 5, 79, 80
5, 38740, Note_on_c, 5, 78, 80
5, 38742, Note_on_c, 5, 79, 0
5, 38868, Note_on_c, 5, 79, 80
5, 38870, Note_on_c, 5, 78, 0
5, 38969, Note_on_c, 5, 79, 0
5, 38974, Note_on_c, 5, 81, 80
5, 39071, Note_on_c, 5, 81, 0
5, 39086, Note_on_c, 5, 79, 80
5, 39212, Note_on_c, 5, 83, 80
5, 39218, Note_on_c, 5, 79, 0
5, 39344, Note_on_c, 5, 84, 80
5, 39349, Note_on_c, 5, 83, 0
5, 39461, Note_on_c, 5, 81, 80
5, 39471, Note_on_c, 5, 84, 0
5, 39581, Note_on_c, 5, 81, 0
5, 39581, Note_on_c, 5, 83, 80
5, 39679, Note_on_c, 5, 83, 0
5, 39682, Note_on_c, 5, 84, 80
5, 39788, Note_on_c, 5, 78, 80
5, 39795, Note_on_c, 5, 84, 0
5, 39898, Note_on_c, 5, 78, 0
5, 39913, Note_on_c, 5, 83, 80
5, 40027, Note_on_c, 5, 81, 80
5, 40032, Note_on_c, 5, 83, 0
5, 40143, Note_on_c, 5, 83, 80
5, 40166, Note_on_c, 5, 81, 0
5, 40230, Note_on_c, 5, 83, 0
5, 40265, Note_on_c, 5, 79, 80
5, 40389, Note_on_c, 5, 79, 0
5, 40513, Note_on_c, 5, 76, 80
5, 40697, Note_on_c, 5, 76, 0
5, 41487, Note_on_c, 5, 85, 80
5, 41600, Note_on_c, 5, 83, 80
5, 41609, Note_on_c, 5, 85, 0
5, 41729, Note_on_c, 5, 83, 0
5, 41732, Note_on_c, 5, 81, 80
5, 41844, Note_on_c, 5, 81, 0
5, 41845, Note_on_c, 5, 79, 80
5, 41956, Note_on_c, 5, 78, 80
5, 41959, Note_on_c, 5, 79, 0
5, 42056, Note_on_c, 5, 78, 0
5, 42061, Note_on_c, 5, 76, 80
5, 42198, Note_on_c, 5, 74, 80
5, 42201, Note_on_c, 5, 76, 0
5, 42333, Note_on_c, 5, 74, 0
5, 42466, Note_on_c, 5, 81, 80
5, 42630, Note_on_c, 5, 81, 0
5, 42705, Note_on_c, 5, 78, 80
5, 42835, Note_on_c, 5, 78, 0
5, 42952, Note_on_c, 5, 74, 80
5, 43096, Note_on_c, 5, 74, 0
5, 43437, Note_on_c, 5, 83, 80
5, 43547, Note_on_c, 5, 81, 80
5, 43554, Note_on_c, 5, 83, 0
5, 43671, Note_on_c, 5, 79, 80
5, 43679, Note_on_c, 5, 81, 0
5, 43784, Note_on_c, 5, 78, 80
5, 43791, Note_on_c, 5, 79, 0
5, 43906, Note_on_c, 5, 78, 0
5, 43907, Note_on_c, 5, 76, 80
5, 44015, Note_on_c, 5, 74, 80
5, 44018, Note_on_c, 5, 76, 0
5, 44133, Note_on_c, 5, 74, 0
5, 44143, Note_on_c, 5, 73, 80
5, 44296, Note_on_c, 5, 73, 0
5, 44403, Note_on_c, 5, 79, 80
5, 44537, Note_on_c, 5, 79, 0
5, 44642, Note_on_c, 5, 76, 80
5, 44797, Note_on_c, 5, 76, 0
5, 44874, Note_on_c, 5, 73, 80
5, 45000, Note_on_c, 5, 73, 0
5, 45358, Note_on_c, 5, 82, 80
5, 45466, Note_on_c, 5, 80, 80
5, 45480, Note_on_c, 5, 82, 0
5, 45575, Note_on_c, 5, 78, 80
5, 45581, Note_on_c, 5, 80, 0
5, 45675, Note_on_c, 5, 78, 0
5, 45676, Note_on_c, 5, 76, 80
5, 45803, Note_on_c, 5, 74, 80
5, 45812, Note_on_c, 5, 76, 0
5, 45914, Note_on_c, 5, 73, 80
5, 45925, Note_on_c, 5, 74, 0
5, 46046, Note_on_c, 5, 73, 0
5, 46056, Note_on_c, 5, 71, 80
5, 46138, Note_on_c, 5, 71, 0
5, 46298, Note_on_c, 5, 78, 80
5, 46539, Note_on_c, 5, 78, 0
5, 46543, Note_on_c, 5, 74, 80
5, 46707, Note_on_c, 5, 74, 0
5, 46778, Note_on_c, 5, 83, 80
5, 46879, Note_on_c, 5, 83, 0
5, 47012, Note_on_c, 5, 79, 80
5, 47254, Note_on_c, 5, 76, 80
5, 47276, Note_on_c, 5, 79, 0
5, 47390, Note_on_c, 5, 76, 0
5, 47499, Note_on_c, 5, 73, 80
5, 47623, Note_on_c, 5, 73, 0
5, 47738, Note_on_c, 5, 82, 80
5, 47837, Note_on_c, 5, 82, 0
5, 47962, Note_on_c, 5, 78, 80
5, 48204, Note_on_c, 5, 74, 80
5, 48225, Note_on_c, 5, 78, 0
5, 48358, Note_on_c, 5, 74, 0
5, 48453, Note_on_c, 5, 71, 80
5, 48585, Note_on_c, 5, 71, 0
5, 48699, Note_on_c, 5, 79, 80
5, 48784, Note_on_c, 5, 79, 0
5, 48944, Note_on_c, 5, 78, 80
5, 49283, Note_on_c, 5, 76, 80
5, 49289, Note_on_c, 5, 78, 0
5, 49396, Note_on_c, 5, 76, 0
5, 49414, Note_on_c, 5, 74, 80
5, 49629, Note_on_c, 5, 74, 0
5, 49637, Note_on_c, 5, 73, 80
5, 49752, Note_on_c, 5, 73, 0
5, 49763, Note_on_c, 5, 71, 80
5, 49834, Note_on_c, 5, 71, 0
5, 49896, Note_on_c, 5, 71, 80
5, 49987, Note_on_c, 5, 71, 0
5, 50161, Note_on_c, 5, 78, 80
5, 50382, Note_on_c, 5, 78, 0
5, 50389, Note_on_c, 5, 83, 80
5, 50520, Note_on_c, 5, 83, 0
5, 50618, Note_on_c, 5, 82, 80
5, 50753, Note_on_c, 5, 82, 0
5, 50860, Note_on_c, 5, 83, 80
5, 50976, Note_on_c, 5, 71, 80
5, 50985, Note_on_c, 5, 83, 0
5, 51084, Note_on_c, 5, 71, 0
5, 51089, Note_on_c, 5, 83, 80
5, 51206, Note_on_c, 5, 85, 80
5, 51214, Note_on_c, 5, 83, 0
5, 51329, Note_on_c, 5, 85, 0
5, 51332, Note_on_c, 5, 86, 80
5, 51452, Note_on_c, 5, 88, 80
5, 51454, Note_on_c, 5, 86, 0
5, 51556, Note_on_c, 5, 88, 0
5, 51572, Note_on_c, 5, 90, 80
5, 51677, Note_on_c, 5, 88, 80
5, 51679, Note_on_c, 5, 90, 0
5, 51802, Note_on_c, 5, 86, 80
5, 51825, Note_on_c, 5, 88, 0
5, 51892, Note_on_c, 5, 86, 0
5, 52058, Note_on_c, 5, 78, 80
5, 52225, Note_on_c, 5, 78, 0
5, 52291, Note_on_c, 5, 83, 80
5, 52472, Note_on_c, 5, 83, 0
5, 52538, Note_on_c, 5, 82, 80
5, 52652, Note_on_c, 5, 82, 0
5, 52774, Note_on_c, 5, 83, 80
5, 53016, Note_on_c, 5, 83, 0
5, 53021, Note_on_c, 5, 86, 80
5, 53235, Note_on_c, 5, 85, 80
5, 53255, Note_on_c, 5, 86, 0
5, 53468, Note_on_c, 5, 85, 0
5, 53472, Note_on_c, 5, 82, 80
5, 53708, Note_on_c, 5, 82, 0
5, 53719, Note_on_c, 5, 83, 80
5, 53834, Note_on_c, 5, 78, 80
5, 53841, Note_on_c, 5, 83, 0
5, 53956, Note_on_c, 5, 74, 80
5, 53959, Note_on_c, 5, 78, 0
5, 54066, Note_on_c, 5, 76, 80
5, 54091, Note_on_c, 5, 74, 0
5, 54189, Note_on_c, 5, 76, 0
5, 54197, Note_on_c, 5, 78, 80
5, 54343, Note_on_c, 5, 78, 0
5, 54350, Note_on_c, 5, 79, 80
5, 54470, Note_on_c, 5, 79, 0
5, 54470, Note_on_c, 5, 78, 80
5, 54591, Note_on_c, 5, 78, 0
5, 54597, Note_on_c, 5, 79, 80
5, 54717, Note_on_c, 5, 78, 80
5, 54723, Note_on_c, 5, 79, 0
5, 54835, Note_on_c, 5, 78, 0
5, 54837, Note_on_c, 5, 76, 80
5, 54967, Note_on_c, 5, 78, 80
5, 54978, Note_on_c, 5, 76, 0
5, 55081, Note_on_c, 5, 78, 0
5, 55082, Note_on_c, 5, 83, 80
5, 55195, Note_on_c, 5, 83, 0
5, 55206, Note_on_c, 5, 82, 80
5, 55324, Note_on_c, 5, 80, 80
5, 55337, Note_on_c, 5, 82, 0
5, 55441, Note_on_c, 5, 78, 80
5, 55444, Note_on_c, 5, 80, 0
5, 55543, Note_on_c, 5, 76, 80
5, 55546, Note_on_c, 5, 78, 0
5, 55676, Note_on_c, 5, 76, 0
5, 55690, Note_on_c, 5, 74, 80
5, 56199, Note_on_c, 5, 74, 0
5, 56284, Note_on_c, 5, 74, 80
5, 56397, Note_on_c, 5, 73, 80
5, 56426, Note_on_c, 5, 74, 0
5, 56505, Note_on_c, 5, 71, 80
5, 56521, Note_on_c, 5, 73, 0
5, 56625, Note_on_c, 5, 71, 0
5, 56637, Note_on_c, 5, 79, 80
5, 57138, Note_on_c, 5, 79, 0
5, 57225, Note_on_c, 5, 76, 80
5, 57334, Note_on_c, 5, 74, 80
5, 57337, Note_on_c, 5, 76, 0
5, 57445, Note_on_c, 5, 73, 80
5, 57454, Note_on_c, 5, 74, 0
5, 57554, Note_on_c, 5, 73, 0
5, 57566, Note_on_c, 5, 78, 80
5, 58080, Note_on_c, 5, 78, 0
5, 58191, Note_on_c, 5, 71, 80
5, 58305, Note_on_c, 5, 73, 80
5, 58327, Note_on_c, 5, 71, 0
5, 58387, Note_on_c, 5, 73, 0
5, 58408, Note_on_c, 5, 74, 80
5, 58540, Note_on_c, 5, 74, 0
5, 58541, Note_on_c, 5, 76, 80
5, 59051, Note_on_c, 5, 76, 0
5, 59131, Note_on_c, 5, 70, 80
5, 59244, Note_on_c, 5, 68, 80
5, 59247, Note_on_c, 5, 70, 0
5, 59348, Note_on_c, 5, 66, 80
5, 59350, Note_on_c, 5, 68, 0
5, 59478, Note_on_c, 5, 66, 0
5, 59486, Note_on_c, 5, 74, 80
5, 60492, Note_on_c, 5, 74, 0
5, 60568, Note_on_c, 5, 78, 80
5, 60681, Note_on_c, 5, 76, 80
5, 60691, Note_on_c, 5, 78, 0
5, 60811, Note_on_c, 5, 74, 80
5, 60818, Note_on_c, 5, 76, 0
5, 60928, Note_on_c, 5, 73, 80
5, 60945, Note_on_c, 5, 74, 0
5, 61043, Note_on_c, 5, 73, 0
5, 61047, Note_on_c, 5, 71, 80
5, 61169, Note_on_c, 5, 69, 80
5, 61174, Note_on_c, 5, 71, 0
5, 61269, Note_on_c, 5, 67, 80
5, 61270, Note_on_c, 5, 69, 0
5, 61370, Note_on_c, 5, 67, 0
5, 61396, Note_on_c, 5, 66, 80
5, 61645, Note_on_c, 5, 66, 0
5, 61920, Note_on_c, 5, 78, 80
5, 62415, Note_on_c, 5, 78, 0
5, 62502, Note_on_c, 5, 81, 80
5, 62613, Note_on_c, 5, 81, 0
5, 62628, Note_on_c, 5, 79, 80
5, 62743, Note_on_c, 5, 78, 80
5, 62750, Note_on_c, 5, 79, 0
5, 62851, Note_on_c, 5, 78, 0
5, 62852, Note_on_c, 5, 76, 80
5, 62976, Note_on_c, 5, 74, 80
5, 62982, Note_on_c, 5, 76, 0
5, 63094, Note_on_c, 5, 73, 80
5, 63102, Note_on_c, 5, 74, 0
5, 63192, Note_on_c, 5, 73, 0
5, 63197, Note_on_c, 5, 71, 80
5, 63325, Note_on_c, 5, 71, 0
5, 63326, Note_on_c, 5, 69, 80
5, 63583, Note_on_c, 5, 69, 0
5, 63808, Note_on_c, 5, 81, 80
5, 64305, Note_on_c, 5, 81, 0
5, 64390, Note_on_c, 5, 84, 80
5, 64503, Note_on_c, 5, 83, 80
5, 64511, Note_on_c, 5, 84, 0
5, 64614, Note_on_c, 5, 81, 80
5, 64627, Note_on_c, 5, 83, 0
5, 64748, Note_on_c, 5, 79, 80
5, 64751, Note_on_c, 5, 81, 0
5, 64862, Note_on_c, 5, 78, 80
5, 64872, Note_on_c, 5, 79, 0
5, 64986, Note_on_c, 5, 78, 0
5, 64992, Note_on_c, 5, 76, 80
5, 65100, Note_on_c, 5, 74, 80
5, 65103, Note_on_c, 5, 76, 0
5, 65227, Note_on_c, 5, 73, 80
5, 65229, Note_on_c, 5, 74, 0
5, 65779, Note_on_c, 5, 73, 0
5, 66334, Note_on_c, 5, 81, 80
5, 66439, Note_on_c, 5, 83, 80
5, 66481, Note_on_c, 5, 81, 0
5, 66556, Note_on_c, 5, 85, 80
5, 66564, Note_on_c, 5, 83, 0
5, 66650, Note_on_c, 5, 85, 0
5, 66678, Note_on_c, 5, 86, 80
5, 66790, Note_on_c, 5, 88, 80
5, 66793, Note_on_c, 5, 86, 0
5, 66908, Note_on_c, 5, 86, 80
5, 66920, Note_on_c, 5, 88, 0
5, 67013, Note_on_c, 5, 86, 0
5, 67016, Note_on_c, 5, 85, 80
5, 67104, Note_on_c, 5, 85, 0
5, 67134, Note_on_c, 5, 83, 80
5, 68151, Note_on_c, 5, 83, 0
5, 68249, Note_on_c, 5, 76, 80
5, 68371, Note_on_c, 5, 78, 80
5, 68402, Note_on_c, 5, 76, 0
5, 68469, Note_on_c, 5, 78, 0
5, 68486, Note_on_c, 5, 79, 80
5, 68616, Note_on_c, 5, 81, 80
5, 68620, Note_on_c, 5, 79, 0
5, 68737, Note_on_c, 5, 79, 80
5, 68751, Note_on_c, 5, 81, 0
5, 68852, Note_on_c, 5, 79, 0
5, 68860, Note_on_c, 5, 78, 80
5, 68940, Note_on_c, 5, 78, 0
5, 68957, Note_on_c, 5, 76, 80
5, 69067, Note_on_c, 5, 76, 0
5, 69079, Note_on_c, 5, 74, 80
5, 71970, Note_on_c, 5, 74, 0
5, 72048, Note_on_c, 5, 83, 80
5, 72164, Note_on_c, 5, 83, 0
5, 72175, Note_on_c, 5, 81, 80
5, 72273, Note_on_c, 5, 83, 80
5, 72281, Note_on_c, 5, 81, 0
5, 72323, Note_on_c, 5, 83, 0
5, 72426, Note_on_c, 5, 74, 80
5, 72475, Note_on_c, 5, 73, 80
5, 72487, Note_on_c, 5, 74, 0
5, 72525, Note_on_c, 5, 73, 0
5, 72538, Note_on_c, 5, 74, 80
5, 72578, Note_on_c, 5, 73, 80
5, 72598, Note_on_c, 5, 73, 0
5, 72634, Note_on_c, 5, 73, 80
5, 72652, Note_on_c, 5, 74, 0
5, 72795, Note_on_c, 5, 74, 80
5, 72810, Note_on_c, 5, 73, 0
5, 72850, Note_on_c, 5, 74, 0
5, 72933, Note_on_c, 5, 74, 80
5, 73036, Note_on_c, 5, 74, 0
5, 73045, Note_on_c, 5, 73, 80
5, 73169, Note_on_c, 5, 74, 80
5, 73170, Note_on_c, 5, 73, 0
5, 73281, Note_on_c, 5, 76, 80
5, 73358, Note_on_c, 5, 74, 0
5, 73417, Note_on_c, 5, 78, 80
5, 73439, Note_on_c, 5, 76, 0
5, 73518, Note_on_c, 5, 78, 0
5, 73532, Note_on_c, 5, 79, 80
5, 73656, Note_on_c, 5, 81, 80
5, 73662, Note_on_c, 5, 79, 0
5, 73755, Note_on_c, 5, 81, 0
5, 73759, Note_on_c, 5, 79, 80
5, 73874, Note_on_c, 5, 79, 0
5, 73896, Note_on_c, 5, 78, 80
5, 74028, Note_on_c, 5, 78, 0
5, 74138, Note_on_c, 5, 81, 80
5, 74368, Note_on_c, 5, 86, 80
5, 74371, Note_on_c, 5, 81, 0
5, 74590, Note_on_c, 5, 86, 0
5, 74600, Note_on_c, 5, 85, 80
5, 74846, Note_on_c, 5, 86, 80
5, 74848, Note_on_c, 5, 85, 0
5, 74928, Note_on_c, 5, 86, 0
5, 75095, Note_on_c, 5, 74, 80
5, 75207, Note_on_c, 5, 76, 80
5, 75224, Note_on_c, 5, 74, 0
5, 75343, Note_on_c, 5, 78, 80
5, 75363, Note_on_c, 5, 76, 0
5, 75473, Note_on_c, 5, 79, 80
5, 75478, Note_on_c, 5, 78, 0
5, 75582, Note_on_c, 5, 81, 80
5, 75591, Note_on_c, 5, 79, 0
5, 75699, Note_on_c, 5, 81, 0
5, 75700, Note_on_c, 5, 83, 80
5, 75812, Note_on_c, 5, 83, 0
5, 75819, Note_on_c, 5, 84, 80
5, 75944, Note_on_c, 5, 83, 80
5, 75962, Note_on_c, 5, 84, 0
5, 76053, Note_on_c, 5, 81, 80
5, 76060, Note_on_c, 5, 83, 0
5, 76173, Note_on_c, 5, 83, 80
5, 76185, Note_on_c, 5, 81, 0
5, 76278, Note_on_c, 5, 83, 0
5, 76283, Note_on_c, 5, 84, 80
5, 76400, Note_on_c, 5, 84, 0
5, 76400, Note_on_c, 5, 88, 80
5, 76509, Note_on_c, 5, 86, 80
5, 76524, Note_on_c, 5, 88, 0
5, 76621, Note_on_c, 5, 84, 80
5, 76635, Note_on_c, 5, 86, 0
5, 76739, Note_on_c, 5, 83, 80
5, 76742, Note_on_c, 5, 84, 0
5, 76857, Note_on_c, 5, 83, 0
5, 76859, Note_on_c, 5, 84, 80
5, 76972, Note_on_c, 5, 84, 0
5, 76979, Note_on_c, 5, 83, 80
5, 77101, Note_on_c, 5, 81, 80
5, 77103, Note_on_c, 5, 83, 0
5, 77228, Note_on_c, 5, 81, 0
5, 77232, Note_on_c, 5, 79, 80
5, 77455, Note_on_c, 5, 79, 0
5, 77482, Note_on_c, 5, 78, 80
5, 77713, Note_on_c, 5, 78, 0
5, 77738, Note_on_c, 5, 79, 80
5, 77852, Note_on_c, 5, 78, 80
5, 77862, Note_on_c, 5, 79, 0
5, 77981, Note_on_c, 5, 79, 80
5, 77992, Note_on_c, 5, 78, 0
5, 78092, Note_on_c, 5, 81, 80
5, 78105, Note_on_c, 5, 79, 0
5, 78156, Note_on_c, 5, 81, 0
5, 78234, Note_on_c, 5, 83, 80
5, 78344, Note_on_c, 5, 84, 80
5, 78355, Note_on_c, 5, 83, 0
5, 78464, Note_on_c, 5, 84, 0
5, 78465, Note_on_c, 5, 86, 80
5, 78575, Note_on_c, 5, 84, 80
5, 78577, Note_on_c, 5, 86, 0
5, 78700, Note_on_c, 5, 83, 80
5, 78734, Note_on_c, 5, 84, 0
5, 78769, Note_on_c, 5, 83, 0
5, 78965, Note_on_c, 5, 71, 80
5, 79090, Note_on_c, 5, 72, 80
5, 79115, Note_on_c, 5, 71, 0
5, 79216, Note_on_c, 5, 74, 80
5, 79220, Note_on_c, 5, 72, 0
5, 79328, Note_on_c, 5, 76, 80
5, 79331, Note_on_c, 5, 74, 0
5, 79430, Note_on_c, 5, 76, 0
5, 79449, Note_on_c, 5, 77, 80
5, 79569, Note_on_c, 5, 79, 80
5, 79656, Note_on_c, 5, 77, 0
5, 79680, Note_on_c, 5, 79, 0
5, 79681, Note_on_c, 5, 81, 80
5, 79787, Note_on_c, 5, 81, 0
5, 79788, Note_on_c, 5, 84, 80
5, 79883, Note_on_c, 5, 84, 0
5, 79894, Note_on_c, 5, 83, 80
5, 79999, Note_on_c, 5, 83, 0
5, 80007, Note_on_c, 5, 84, 80
5, 80130, Note_on_c, 5, 84, 0
5, 80138, Note_on_c, 5, 86, 80
5, 80265, Note_on_c, 5, 84, 80
5, 80278, Note_on_c, 5, 86, 0
5, 80376, Note_on_c, 5, 84, 0
5, 80381, Note_on_c, 5, 83, 80
5, 80474, Note_on_c, 5, 81, 80
5, 80476, Note_on_c, 5, 83, 0
5, 80584, Note_on_c, 5, 79, 80
5, 80597, Note_on_c, 5, 81, 0
5, 80704, Note_on_c, 5, 79, 0
5, 80853, Note_on_c, 5, 79, 80
5, 81067, Note_on_c, 5, 79, 0
5, 81104, Note_on_c, 5, 84, 80
5, 81335, Note_on_c, 5, 83, 80
5, 81340, Note_on_c, 5, 84, 0
5, 81516, Note_on_c, 5, 83, 0
5, 81569, Note_on_c, 5, 84, 80
5, 81801, Note_on_c, 5, 84, 0
5, 81806, Note_on_c, 5, 88, 80
5, 82019, Note_on_c, 5, 88, 0
5, 82025, Note_on_c, 5, 86, 80
5, 82263, Note_on_c, 5, 83, 80
5, 82278, Note_on_c, 5, 86, 0
5, 82448, Note_on_c, 5, 83, 0
5, 82509, Note_on_c, 5, 84, 80
5, 82642, Note_on_c, 5, 86, 80
5, 82654, Note_on_c, 5, 84, 0
5, 82764, Note_on_c, 5, 88, 80
5, 82772, Note_on_c, 5, 86, 0
5, 82868, Note_on_c, 5, 88, 0
5, 82885, Note_on_c, 5, 89, 80
5, 82966, Note_on_c, 5, 89, 0
5, 83019, Note_on_c, 5, 91, 80
5, 83140, Note_on_c, 5, 93, 80
5, 83148, Note_on_c, 5, 91, 0
5, 83258, Note_on_c, 5, 91, 80
5, 83270, Note_on_c, 5, 93, 0
5, 83374, Note_on_c, 5, 93, 80
5, 83377, Note_on_c, 5, 91, 0
5, 83464, Note_on_c, 5, 93, 0
5, 83499, Note_on_c, 5, 91, 80
5, 83620, Note_on_c, 5, 91, 0
5, 83624, Note_on_c, 5, 89, 80
5, 83737, Note_on_c, 5, 89, 0
5, 83741, Note_on_c, 5, 91, 80
5, 83842, Note_on_c, 5, 91, 0
5, 83846, Note_on_c, 5, 96, 80
5, 83973, Note_on_c, 5, 95, 80
5, 83976, Note_on_c, 5, 96, 0
5, 84096, Note_on_c, 5, 93, 80
5, 84109, Note_on_c, 5, 95, 0
5, 84224, Note_on_c, 5, 93, 0
5, 84225, Note_on_c, 5, 91, 80
5, 84343, Note_on_c, 5, 89, 80
5, 84345, Note_on_c, 5, 91, 0
5, 84428, Note_on_c, 5, 89, 0
5, 84462, Note_on_c, 5, 88, 80
5, 84606, Note_on_c, 5, 88, 0
5, 84718, Note_on_c, 5, 93, 80
5, 84797, Note_on_c, 5, 93, 0
5, 84835, Note_on_c, 5, 92, 80
5, 84923, Note_on_c, 5, 92, 0
5, 84966, Note_on_c, 5, 93, 80
5, 85511, Note_on_c, 5, 93, 0
5, 85647, Note_on_c, 5, 86, 80
5, 85763, Note_on_c, 5, 86, 0
5, 85884, Note_on_c, 5, 91, 80
5, 86731, Note_on_c, 5, 93, 80
5, 86739, Note_on_c, 5, 91, 0
5, 86787, Note_on_c, 5, 93, 0
5, 86863, Note_on_c, 5, 91, 80
5, 86921, Note_on_c, 5, 90, 80
5, 86928, Note_on_c, 5, 91, 0
5, 86973, Note_on_c, 5, 90, 0
5, 86988, Note_on_c, 5, 91, 80
5, 87018, Note_on_c, 5, 90, 80
5, 87044, Note_on_c, 5, 90, 0
5, 87070, Note_on_c, 5, 90, 80
5, 87092, Note_on_c, 5, 91, 0
5, 87202, Note_on_c, 5, 91, 80
5, 87218, Note_on_c, 5, 90, 0
5, 87260, Note_on_c, 5, 91, 0
5, 87348, Note_on_c, 5, 91, 80
5, 87450, Note_on_c, 5, 91, 0
5, 87457, Note_on_c, 5, 93, 80
5, 87564, Note_on_c, 5, 93, 0
5, 87573, Note_on_c, 5, 95, 80
5, 87682, Note_on_c, 5, 91, 80
5, 87685, Note_on_c, 5, 95, 0
5, 87801, Note_on_c, 5, 91, 0
5, 87811, Note_on_c, 5, 88, 80
5, 87935, Note_on_c, 5, 91, 80
5, 87948, Note_on_c, 5, 88, 0
5, 88054, Note_on_c, 5, 90, 80
5, 88057, Note_on_c, 5, 91, 0
5, 88172, Note_on_c, 5, 88, 80
5, 88186, Note_on_c, 5, 90, 0
5, 88291, Note_on_c, 5, 88, 0
5, 88298, Note_on_c, 5, 93, 80
5, 88417, Note_on_c, 5, 91, 80
5, 88419, Note_on_c, 5, 93, 0
5, 88541, Note_on_c, 5, 91, 0
5, 88546, Note_on_c, 5, 90, 80
5, 88647, Note_on_c, 5, 90, 0
5, 88656, Note_on_c, 5, 91, 80
5, 88780, Note_on_c, 5, 93, 80
5, 88783, Note_on_c, 5, 91, 0
5, 88895, Note_on_c, 5, 88, 80
5, 88910, Note_on_c, 5, 93, 0
5, 89028, Note_on_c, 5, 90, 80
5, 89041, Note_on_c, 5, 88, 0
5, 89140, Note_on_c, 5, 90, 0
5, 89145, Note_on_c, 5, 86, 80
5, 89255, Note_on_c, 5, 86, 0
5, 89278, Note_on_c, 5, 91, 80
5, 89389, Note_on_c, 5, 91, 0
5, 89394, Note_on_c, 5, 90, 80
5, 89490, Note_on_c, 5, 90, 0
5, 89497, Note_on_c, 5, 91, 80
5, 89870, Note_on_c, 5, 91, 0
5, 89871, Note_on_c, 5, 95, 80
5, 89983, Note_on_c, 5, 93, 80
5, 89994, Note_on_c, 5, 95, 0
5, 90062, Note_on_c, 5, 93, 0
5, 90092, Note_on_c, 5, 91, 80
5, 90141, Note_on_c, 5, 91, 0
5, 90219, Note_on_c, 5, 90, 80
5, 90466, Note_on_c, 5, 90, 0
5, 91399, Note_on_c, 5, 69, 80
5, 91517, Note_on_c, 5, 71, 80
5, 91546, Note_on_c, 5, 69, 0
5, 91651, Note_on_c, 5, 72, 80
5, 91653, Note_on_c, 5, 71, 0
5, 91769, Note_on_c, 5, 72, 0
5, 91769, Note_on_c, 5, 74, 80
5, 91877, Note_on_c, 5, 74, 0
5, 91879, Note_on_c, 5, 76, 80
5, 91972, Note_on_c, 5, 76, 0
5, 91997, Note_on_c, 5, 78, 80
5, 92117, Note_on_c, 5, 78, 0
5, 92120, Note_on_c, 5, 79, 80
5, 92310, Note_on_c, 5, 79, 0
5, 92374, Note_on_c, 5, 71, 80
5, 92618, Note_on_c, 5, 71, 0
5, 92621, Note_on_c, 5, 76, 80
5, 92858, Note_on_c, 5, 76, 0
5, 92862, Note_on_c, 5, 79, 80
5, 93007, Note_on_c, 5, 79, 0
5, 93096, Note_on_c, 5, 78, 80
5, 93219, Note_on_c, 5, 78, 0
5, 93343, Note_on_c, 5, 86, 80
5, 93449, Note_on_c, 5, 86, 0
5, 93458, Note_on_c, 5, 84, 80
5, 93587, Note_on_c, 5, 83, 80
5, 93606, Note_on_c, 5, 84, 0
5, 93706, Note_on_c, 5, 83, 0
5, 93706, Note_on_c, 5, 81, 80
5, 93818, Note_on_c, 5, 81, 0
5, 93820, Note_on_c, 5, 79, 80
5, 93930, Note_on_c, 5, 78, 80
5, 93945, Note_on_c, 5, 79, 0
5, 94041, Note_on_c, 5, 76, 80
5, 94063, Note_on_c, 5, 78, 0
5, 94090, Note_on_c, 5, 76, 0
5, 94174, Note_on_c, 5, 86, 80
5, 94300, Note_on_c, 5, 84, 80
5, 94307, Note_on_c, 5, 86, 0
5, 94414, Note_on_c, 5, 83, 80
5, 94426, Note_on_c, 5, 84, 0
5, 94529, Note_on_c, 5, 83, 0
5, 94531, Note_on_c, 5, 81, 80
5, 94658, Note_on_c, 5, 81, 0
5, 94660, Note_on_c, 5, 79, 80
5, 94773, Note_on_c, 5, 78, 80
5, 94775, Note_on_c, 5, 79, 0
5, 94873, Note_on_c, 5, 78, 0
5, 94875, Note_on_c, 5, 76, 80
5, 94994, Note_on_c, 5, 74, 80
5, 95016, Note_on_c, 5, 76, 0
5, 95121, Note_on_c, 5, 74, 0
5, 95253, Note_on_c, 5, 83, 80
5, 95734, Note_on_c, 5, 83, 0
5, 95734, Note_on_c, 5, 81, 80
5, 95849, Note_on_c, 5, 79, 80
5, 95852, Note_on_c, 5, 81, 0
5, 95951, Note_on_c, 5, 79, 0
5, 95968, Note_on_c, 5, 78, 80
5, 96244, Note_on_c, 5, 78, 0
5, 96248, Note_on_c, 5, 79, 80
5, 96361, Note_on_c, 5, 81, 80
5, 96372, Note_on_c, 5, 79, 0
5, 96426, Note_on_c, 5, 81, 0
5, 96505, Note_on_c, 5, 79, 80
5, 96561, Note_on_c, 5, 78, 80
5, 96569, Note_on_c, 5, 79, 0
5, 96603, Note_on_c, 5, 78, 0
5, 96607, Note_on_c, 5, 79, 80
5, 96644, Note_on_c, 5, 78, 80
5, 96658, Note_on_c, 5, 79, 0
5, 96896, Note_on_c, 5, 78, 0
5, 96912, Note_on_c, 5, 79, 80
5, 96976, Note_on_c, 5, 79, 0
5, 97032, Note_on_c, 5, 79, 80
5, 97132, Note_on_c, 5, 79, 0
5, 97238, Note_on_c, 5, 67, 80
5, 97353, Note_on_c, 5, 69, 80
5, 97364, Note_on_c, 5, 67, 0
5, 97482, Note_on_c, 5, 71, 80
5, 97497, Note_on_c, 5, 69, 0
5, 97589, Note_on_c, 5, 71, 0
5, 97592, Note_on_c, 5, 72, 80
5, 97704, Note_on_c, 5, 74, 80
5, 97707, Note_on_c, 5, 72, 0
5, 97808, Note_on_c, 5, 74, 0
5, 97822, Note_on_c, 5, 72, 80
5, 97928, Note_on_c, 5, 72, 0
5, 97942, Note_on_c, 5, 71, 80
5, 98043, Note_on_c, 5, 71, 0
5, 98175, Note_on_c, 5, 74, 80
5, 98402, Note_on_c, 5, 74, 0
5, 98405, Note_on_c, 5, 79, 80
5, 98629, Note_on_c, 5, 78, 80
5, 98634, Note_on_c, 5, 79, 0
5, 98869, Note_on_c, 5, 78, 0
5, 98883, Note_on_c, 5, 79, 80
5, 98996, Note_on_c, 5, 78, 80
5, 99009, Note_on_c, 5, 79, 0
5, 99116, Note_on_c, 5, 78, 0
5, 99117, Note_on_c, 5, 79, 80
5, 99205, Note_on_c, 5, 79, 0
5, 99217, Note_on_c, 5, 81, 80
5, 99336, Note_on_c, 5, 83, 80
5, 99343, Note_on_c, 5, 81, 0
5, 99453, Note_on_c, 5, 84, 80
5, 99458, Note_on_c, 5, 83, 0
5, 99553, Note_on_c, 5, 84, 0
5, 99566, Note_on_c, 5, 86, 80
5, 99669, Note_on_c, 5, 88, 80
5, 99685, Note_on_c, 5, 86, 0
5, 99754, Note_on_c, 5, 88, 0
5, 99780, Note_on_c, 5, 86, 80
5, 99939, Note_on_c, 5, 86, 0
5, 100029, Note_on_c, 5, 74, 80
5, 100206, Note_on_c, 5, 74, 0
5, 100281, Note_on_c, 5, 79, 80
5, 100528, Note_on_c, 5, 78, 80
5, 100533, Note_on_c, 5, 79, 0
5, 100755, Note_on_c, 5, 79, 80
5, 100797, Note_on_c, 5, 78, 0
5, 100840, Note_on_c, 5, 79, 0
5, 100993, Note_on_c, 5, 86, 80
5, 101238, Note_on_c, 5, 86, 0
5, 101246, Note_on_c, 5, 91, 80
5, 101453, Note_on_c, 5, 91, 0
5, 101473, Note_on_c, 5, 90, 80
5, 101694, Note_on_c, 5, 91, 80
5, 101697, Note_on_c, 5, 90, 0
5, 101895, Note_on_c, 5, 91, 0
5, 101958, Note_on_c, 5, 86, 80
5, 102169, Note_on_c, 5, 86, 0
5, 102191, Note_on_c, 5, 88, 80
5, 102314, Note_on_c, 5, 88, 0
5, 102436, Note_on_c, 5, 76, 80
5, 102786, Note_on_c, 5, 76, 0
5, 102795, Note_on_c, 5, 81, 80
5, 102889, Note_on_c, 5, 81, 0
5, 102919, Note_on_c, 5, 74, 80
5, 103033, Note_on_c, 5, 76, 80
5, 103041, Note_on_c, 5, 74, 0
5, 103160, Note_on_c, 5, 78, 80
5, 103193, Note_on_c, 5, 76, 0
5, 103283, Note_on_c, 5, 78, 0
5, 103286, Note_on_c, 5, 79, 80
5, 103403, Note_on_c, 5, 79, 0
5, 103411, Note_on_c, 5, 81, 80
5, 103515, Note_on_c, 5, 79, 80
5, 103525, Note_on_c, 5, 81, 0
5, 103644, Note_on_c, 5, 79, 0
5, 103664, Note_on_c, 5, 78, 80
5, 103794, Note_on_c, 5, 78, 0
5, 103903, Note_on_c, 5, 81, 80
5, 104144, Note_on_c, 5, 81, 0
5, 104147, Note_on_c, 5, 86, 80
5, 104266, Note_on_c, 5, 86, 0
5, 104396, Note_on_c, 5, 84, 80
5, 104633, Note_on_c, 5, 84, 0
5, 104751, Note_on_c, 5, 74, 80
5, 104848, Note_on_c, 5, 74, 0
5, 104856, Note_on_c, 5, 67, 80
5, 104962, Note_on_c, 5, 69, 80
5, 104972, Note_on_c, 5, 67, 0
5, 105100, Note_on_c, 5, 71, 80
5, 105107, Note_on_c, 5, 69, 0
5, 105201, Note_on_c, 5, 71, 0
5, 105217, Note_on_c, 5, 72, 80
5, 105327, Note_on_c, 5, 72, 0
5, 105335, Note_on_c, 5, 74, 80
5, 105441, Note_on_c, 5, 72, 80
5, 105446, Note_on_c, 5, 74, 0
5, 105573, Note_on_c, 5, 72, 0
5, 105585, Note_on_c, 5, 71, 80
5, 105693, Note_on_c, 5, 71, 0
5, 105836, Note_on_c, 5, 74, 80
5, 106069, Note_on_c, 5, 79, 80
5, 106072, Note_on_c, 5, 74, 0
5, 106296, Note_on_c, 5, 79, 0
5, 106306, Note_on_c, 5, 78, 80
5, 106474, Note_on_c, 5, 78, 0
5, 106551, Note_on_c, 5, 79, 80
5, 106665, Note_on_c, 5, 76, 80
5, 106676, Note_on_c, 5, 79, 0
5, 106790, Note_on_c, 5, 78, 80
5, 106813, Note_on_c, 5, 76, 0
5, 106899, Note_on_c, 5, 78, 0
5, 106903, Note_on_c, 5, 79, 80
5, 107030, Note_on_c, 5, 81, 80
5, 107035, Note_on_c, 5, 79, 0
5, 107127, Note_on_c, 5, 81, 0
5, 107147, Note_on_c, 5, 83, 80
5, 107263, Note_on_c, 5, 81, 80
5, 107265, Note_on_c, 5, 83, 0
5, 107377, Note_on_c, 5, 79, 80
5, 107383, Note_on_c, 5, 81, 0
5, 107493, Note_on_c, 5, 79, 0
5, 107503, Note_on_c, 5, 78, 80
5, 108000, Note_on_c, 5, 78, 0
5, 108107, Note_on_c, 5, 76, 80
5, 108221, Note_on_c, 5, 78, 80
5, 108251, Note_on_c, 5, 76, 0
5, 108344, Note_on_c, 5, 78, 0
5, 108349, Note_on_c, 5, 79, 80
5, 108425, Note_on_c, 5, 79, 0
5, 108444, Note_on_c, 5, 81, 80
5, 108546, Note_on_c, 5, 83, 80
5, 108552, Note_on_c, 5, 81, 0
5, 108633, Note_on_c, 5, 83, 0
5, 108670, Note_on_c, 5, 84, 80
5, 109041, Note_on_c, 5, 84, 0
5, 109135, Note_on_c, 5, 83, 80
5, 109292, Note_on_c, 5, 83, 0
5, 109357, Note_on_c, 5, 81, 80
5, 109550, Note_on_c, 5, 81, 0
5, 109619, Note_on_c, 5, 76, 80
5, 109723, Note_on_c, 5, 76, 0
5, 109865, Note_on_c, 5, 81, 80
5, 110418, Note_on_c, 5, 81, 0
5, 110633, Note_on_c, 5, 74, 80
5, 110772, Note_on_c, 5, 74, 0
5, 110856, Note_on_c, 5, 79, 80
5, 110973, Note_on_c, 5, 77, 80
5, 110985, Note_on_c, 5, 79, 0
5, 111091, Note_on_c, 5, 76, 80
5, 111093, Note_on_c, 5, 77, 0
5, 111190, Note_on_c, 5, 76, 0
5, 111190, Note_on_c, 5, 74, 80
5, 111265, Note_on_c, 5, 74, 0
5, 111334, Note_on_c, 5, 76, 80
5, 111445, Note_on_c, 5, 76, 0
5, 111448, Note_on_c, 5, 74, 80
5, 111571, Note_on_c, 5, 72, 80
5, 111580, Note_on_c, 5, 74, 0
5, 111694, Note_on_c, 5, 74, 80
5, 111700, Note_on_c, 5, 72, 0
5, 111790, Note_on_c, 5, 74, 0
5, 111818, Note_on_c, 5, 76, 80
5, 111938, Note_on_c, 5, 76, 0
5, 111943, Note_on_c, 5, 77, 80
5, 112057, Note_on_c, 5, 77, 0
5, 112058, Note_on_c, 5, 79, 80
5, 112181, Note_on_c, 5, 77, 80
5, 112186, Note_on_c, 5, 79, 0
5, 112312, Note_on_c, 5, 76, 80
5, 112331, Note_on_c, 5, 77, 0
5, 112437, Note_on_c, 5, 74, 80
5, 112441, Note_on_c, 5, 76, 0
5, 112548, Note_on_c, 5, 74, 0
5, 112557, Note_on_c, 5, 76, 80
5, 112649, Note_on_c, 5, 76, 0
5, 112667, Note_on_c, 5, 78, 80
5, 112778, Note_on_c, 5, 78, 0
5, 112788, Note_on_c, 5, 79, 80
5, 112936, Note_on_c, 5, 79, 0
5, 113025, Note_on_c, 5, 78, 80
5, 113134, Note_on_c, 5, 78, 0
5, 113262, Note_on_c, 5, 79, 80
5, 113463, Note_on_c, 5, 79, 0
5, 113502, Note_on_c, 5, 74, 80
5, 113607, Note_on_c, 5, 76, 80
5, 113642, Note_on_c, 5, 74, 0
5, 113735, Note_on_c, 5, 78, 80
5, 113747, Note_on_c, 5, 76, 0
5, 113845, Note_on_c, 5, 78, 0
5, 113857, Note_on_c, 5, 79, 80
5, 113972, Note_on_c, 5, 79, 0
5, 113977, Note_on_c, 5, 81, 80
5, 114085, Note_on_c, 5, 79, 80
5, 114095, Note_on_c, 5, 81, 0
5, 114197, Note_on_c, 5, 79, 0
5, 114203, Note_on_c, 5, 78, 80
5, 114327, Note_on_c, 5, 76, 80
5, 114340, Note_on_c, 5, 78, 0
5, 114455, Note_on_c, 5, 76, 0
5, 114459, Note_on_c, 5, 78, 80
5, 114558, Note_on_c, 5, 78, 0
5, 114575, Note_on_c, 5, 80, 80
5, 114667, Note_on_c, 5, 80, 0
5, 114713, Note_on_c, 5, 81, 80
5, 114850, Note_on_c, 5, 81, 0
5, 114941, Note_on_c, 5, 80, 80
5, 115027, Note_on_c, 5, 80, 0
5, 115172, Note_on_c, 5, 81, 80
5, 115424, Note_on_c, 5, 81, 0
5, 115430, Note_on_c, 5, 76, 80
5, 115536, Note_on_c, 5, 78, 80
5, 115561, Note_on_c, 5, 76, 0
5, 115606, Note_on_c, 5, 78, 0
5, 115659, Note_on_c, 5, 79, 80
5, 115751, Note_on_c, 5, 79, 0
5, 115777, Note_on_c, 5, 81, 80
5, 115890, Note_on_c, 5, 81, 0
5, 115892, Note_on_c, 5, 83, 80
5, 115971, Note_on_c, 5, 83, 0
5, 115988, Note_on_c, 5, 81, 80
5, 116064, Note_on_c, 5, 81, 0
5, 116121, Note_on_c, 5, 79, 80
5, 117153, Note_on_c, 5, 79, 0
5, 117322, Note_on_c, 5, 78, 80
5, 117441, Note_on_c, 5, 78, 0
5, 117445, Note_on_c, 5, 79, 80
5, 117550, Note_on_c, 5, 79, 0
5, 117560, Note_on_c, 5, 81, 80
5, 117655, Note_on_c, 5, 81, 0
5, 117669, Note_on_c, 5, 83, 80
5, 117803, Note_on_c, 5, 85, 80
5, 117806, Note_on_c, 5, 83, 0
5, 117897, Note_on_c, 5, 85, 0
5, 117916, Note_on_c, 5, 83, 80
5, 118015, Note_on_c, 5, 83, 0
5, 118037, Note_on_c, 5, 86, 80
5, 118134, Note_on_c, 5, 86, 0
5, 118155, Note_on_c, 5, 81, 80
5, 118242, Note_on_c, 5, 81, 0
5, 118280, Note_on_c, 5, 86, 80
5, 118687, Note_on_c, 5, 86, 0
5, 118764, Note_on_c, 5, 85, 80
5, 118886, Note_on_c, 5, 85, 0
5, 118998, Note_on_c, 5, 86, 80
5, 119116, Note_on_c, 5, 86, 0
5, 119127, Note_on_c, 5, 81, 80
5, 119231, Note_on_c, 5, 81, 0
5, 119244, Note_on_c, 5, 78, 80
5, 119341, Note_on_c, 5, 78, 0
5, 119360, Note_on_c, 5, 74, 80
5, 119471, Note_on_c, 5, 74, 0
5, 119481, Note_on_c, 5, 79, 80
5, 120006, Note_on_c, 5, 79, 0
5, 120091, Note_on_c, 5, 76, 80
5, 120207, Note_on_c, 5, 73, 80
5, 120214, Note_on_c, 5, 76, 0
5, 120336, Note_on_c, 5, 73, 0
5, 120339, Note_on_c, 5, 69, 80
5, 120454, Note_on_c, 5, 69, 0
5, 120457, Note_on_c, 5, 78, 80
5, 120925, Note_on_c, 5, 76, 80
5, 120932, Note_on_c, 5, 78, 0
5, 121259, Note_on_c, 5, 76, 0
5, 121421, Note_on_c, 5, 88, 80
5, 121946, Note_on_c, 5, 88, 0
5, 122121, Note_on_c, 5, 81, 80
5, 122274, Note_on_c, 5, 81, 0
5, 122362, Note_on_c, 5, 86, 80
5, 122472, Note_on_c, 5, 86, 0
5, 122473, Note_on_c, 5, 84, 80
5, 122588, Note_on_c, 5, 84, 0
5, 122593, Note_on_c, 5, 83, 80
5, 122695, Note_on_c, 5, 81, 80
5, 122705, Note_on_c, 5, 83, 0
5, 122769, Note_on_c, 5, 81, 0
5, 122843, Note_on_c, 5, 83, 80
5, 122950, Note_on_c, 5, 81, 80
5, 122953, Note_on_c, 5, 83, 0
5, 123076, Note_on_c, 5, 79, 80
5, 123094, Note_on_c, 5, 81, 0
5, 123144, Note_on_c, 5, 79, 0
5, 123194, Note_on_c, 5, 81, 80
5, 123262, Note_on_c, 5, 81, 0
5, 123329, Note_on_c, 5, 83, 80
5, 123452, Note_on_c, 5, 84, 80
5, 123464, Note_on_c, 5, 83, 0
5, 123553, Note_on_c, 5, 84, 0
5, 123564, Note_on_c, 5, 86, 80
5, 123639, Note_on_c, 5, 86, 0
5, 123676, Note_on_c, 5, 84, 80
5, 123740, Note_on_c, 5, 84, 0
5, 123807, Note_on_c, 5, 83, 80
5, 123924, Note_on_c, 5, 81, 80
5, 123930, Note_on_c, 5, 83, 0
5, 124016, Note_on_c, 5, 81, 0
5, 124044, Note_on_c, 5, 83, 80
5, 124126, Note_on_c, 5, 83, 0
5, 124158, Note_on_c, 5, 85, 80
5, 124248, Note_on_c, 5, 85, 0
5, 124286, Note_on_c, 5, 86, 80
5, 124429, Note_on_c, 5, 86, 0
5, 124534, Note_on_c, 5, 85, 80
5, 124644, Note_on_c, 5, 85, 0
5, 124769, Note_on_c, 5, 86, 80
5, 125018, Note_on_c, 5, 81, 80
5, 125024, Note_on_c, 5, 86, 0
5, 125074, Note_on_c, 5, 81, 0
5, 125133, Note_on_c, 5, 83, 80
5, 125191, Note_on_c, 5, 83, 0
5, 125254, Note_on_c, 5, 84, 80
5, 125359, Note_on_c, 5, 84, 0
5, 125370, Note_on_c, 5, 86, 80
5, 125457, Note_on_c, 5, 86, 0
5, 125479, Note_on_c, 5, 88, 80
5, 125551, Note_on_c, 5, 88, 0
5, 125597, Note_on_c, 5, 86, 80
5, 125654, Note_on_c, 5, 86, 0
5, 125721, Note_on_c, 5, 84, 80
5, 125836, Note_on_c, 5, 84, 0
5, 125836, Note_on_c, 5, 83, 80
5, 125959, Note_on_c, 5, 85, 80
5, 125961, Note_on_c, 5, 83, 0
5, 126023, Note_on_c, 5, 85, 0
5, 126068, Note_on_c, 5, 87, 80
5, 126162, Note_on_c, 5, 87, 0
5, 126199, Note_on_c, 5, 88, 80
5, 126317, Note_on_c, 5, 88, 0
5, 126451, Note_on_c, 5, 87, 80
5, 126539, Note_on_c, 5, 87, 0
5, 126687, Note_on_c, 5, 88, 80
5, 126897, Note_on_c, 5, 88, 0
5, 126933, Note_on_c, 5, 83, 80
5, 127018, Note_on_c, 5, 83, 0
5, 127050, Note_on_c, 5, 85, 80
5, 127139, Note_on_c, 5, 85, 0
5, 127174, Note_on_c, 5, 86, 80
5, 127283, Note_on_c, 5, 86, 0
5, 127287, Note_on_c, 5, 88, 80
5, 127380, Note_on_c, 5, 88, 0
5, 127407, Note_on_c, 5, 90, 80
5, 127510, Note_on_c, 5, 88, 80
5, 127511, Note_on_c, 5, 90, 0
5, 127658, Note_on_c, 5, 88, 0
5, 127664, Note_on_c, 5, 87, 80
5, 127777, Note_on_c, 5, 87, 0
5, 127897, Note_on_c, 5, 76, 80
5, 127983, Note_on_c, 5, 76, 0
5, 128009, Note_on_c, 5, 78, 80
5, 128105, Note_on_c, 5, 78, 0
5, 128137, Note_on_c, 5, 79, 80
5, 128228, Note_on_c, 5, 79, 0
5, 128246, Note_on_c, 5, 81, 80
5, 128341, Note_on_c, 5, 81, 0
5, 128359, Note_on_c, 5, 83, 80
5, 128443, Note_on_c, 5, 83, 0
5, 128457, Note_on_c, 5, 81, 80
5, 128576, Note_on_c, 5, 81, 0
5, 128585, Note_on_c, 5, 79, 80
5, 128672, Note_on_c, 5, 79, 0
5, 128848, Note_on_c, 5, 88, 80
5, 129276, Note_on_c, 5, 88, 0
5, 129332, Note_on_c, 5, 86, 80
5, 129808, Note_on_c, 5, 86, 0
5, 129820, Note_on_c, 5, 84, 80
5, 130299, Note_on_c, 5, 83, 80
5, 130302, Note_on_c, 5, 84, 0
5, 130536, Note_on_c, 5, 81, 80
5, 130542, Note_on_c, 5, 83, 0
5, 130777, Note_on_c, 5, 81, 0
5, 130796, Note_on_c, 5, 76, 80
5, 131029, Note_on_c, 5, 76, 0
5, 131033, Note_on_c, 5, 81, 80
5, 131574, Note_on_c, 5, 81, 0
5, 131732, Note_on_c, 5, 74, 80
5, 131956, Note_on_c, 5, 74, 0
5, 131976, Note_on_c, 5, 79, 80
5, 132069, Note_on_c, 5, 79, 0
5, 132084, Note_on_c, 5, 77, 80
5, 132190, Note_on_c, 5, 77, 0
5, 132204, Note_on_c, 5, 76, 80
5, 132316, Note_on_c, 5, 74, 80
5, 132330, Note_on_c, 5, 76, 0
5, 132431, Note_on_c, 5, 74, 0
5, 132458, Note_on_c, 5, 76, 80
5, 132571, Note_on_c, 5, 74, 80
5, 132573, Note_on_c, 5, 76, 0
5, 132694, Note_on_c, 5, 72, 80
5, 132697, Note_on_c, 5, 74, 0
5, 132813, Note_on_c, 5, 72, 0
5, 132815, Note_on_c, 5, 74, 80
5, 132942, Note_on_c, 5, 74, 0
5, 132943, Note_on_c, 5, 76, 80
5, 133055, Note_on_c, 5, 76, 0
5, 133069, Note_on_c, 5, 77, 80
5, 133184, Note_on_c, 5, 79, 80
5, 133189, Note_on_c, 5, 77, 0
5, 133298, Note_on_c, 5, 77, 80
5, 133317, Note_on_c, 5, 79, 0
5, 133418, Note_on_c, 5, 77, 0
5, 133428, Note_on_c, 5, 76, 80
5, 133536, Note_on_c, 5, 76, 0
5, 133648, Note_on_c, 5, 79, 80
5, 133894, Note_on_c, 5, 79, 0
5, 133896, Note_on_c, 5, 84, 80
5, 134137, Note_on_c, 5, 83, 80
5, 134142, Note_on_c, 5, 84, 0
5, 134282, Note_on_c, 5, 83, 0
5, 134378, Note_on_c, 5, 84, 80
5, 134495, Note_on_c, 5, 83, 80
5, 134504, Note_on_c, 5, 84, 0
5, 134621, Note_on_c, 5, 84, 80
5, 134623, Note_on_c, 5, 83, 0
5, 134724, Note_on_c, 5, 84, 0
5, 134726, Note_on_c, 5, 86, 80
5, 134842, Note_on_c, 5, 86, 0
5, 134849, Note_on_c, 5, 88, 80
5, 134979, Note_on_c, 5, 89, 80
5, 134995, Note_on_c, 5, 88, 0
5, 135091, Note_on_c, 5, 89, 0
5, 135102, Note_on_c, 5, 91, 80
5, 135220, Note_on_c, 5, 89, 80
5, 135227, Note_on_c, 5, 91, 0
5, 135331, Note_on_c, 5, 89, 0
5, 135335, Note_on_c, 5, 88, 80
5, 135452, Note_on_c, 5, 86, 80
5, 135464, Note_on_c, 5, 88, 0
5, 135570, Note_on_c, 5, 88, 80
5, 135578, Note_on_c, 5, 86, 0
5, 135701, Note_on_c, 5, 89, 80
5, 135728, Note_on_c, 5, 88, 0
5, 135786, Note_on_c, 5, 89, 0
5, 135828, Note_on_c, 5, 91, 80
5, 135948, Note_on_c, 5, 93, 80
5, 135953, Note_on_c, 5, 91, 0
5, 136054, Note_on_c, 5, 93, 0
5, 136063, Note_on_c, 5, 91, 80
5, 136175, Note_on_c, 5, 91, 0
5, 136175, Note_on_c, 5, 93, 80
5, 136246, Note_on_c, 5, 93, 0
5, 136296, Note_on_c, 5, 91, 80
5, 136422, Note_on_c, 5, 91, 0
5, 136425, Note_on_c, 5, 89, 80
5, 136540, Note_on_c, 5, 89, 0
5, 136551, Note_on_c, 5, 91, 80
5, 136651, Note_on_c, 5, 91, 0
5, 136660, Note_on_c, 5, 96, 80
5, 136775, Note_on_c, 5, 95, 80
5, 136780, Note_on_c, 5, 96, 0
5, 136887, Note_on_c, 5, 93, 80
5, 136902, Note_on_c, 5, 95, 0
5, 137013, Note_on_c, 5, 91, 80
5, 137016, Note_on_c, 5, 93, 0
5, 137135, Note_on_c, 5, 89, 80
5, 137138, Note_on_c, 5, 91, 0
5, 137247, Note_on_c, 5, 88, 80
5, 137252, Note_on_c, 5, 89, 0
5, 137352, Note_on_c, 5, 88, 0
5, 137474, Note_on_c, 5, 84, 80
5, 137765, Note_on_c, 5, 84, 0
5, 137991, Note_on_c, 5, 83, 80
5, 138225, Note_on_c, 5, 83, 0
5, 138240, Note_on_c, 5, 84, 80
5, 138344, Note_on_c, 5, 84, 0
5, 138484, Note_on_c, 5, 88, 80
5, 138485, Note_on_c, 5, 79, 80
5, 138605, Note_on_c, 5, 88, 0
5, 138730, Note_on_c, 5, 86, 80
5, 138744, Note_on_c, 5, 79, 0
5, 138864, Note_on_c, 5, 84, 80
5, 138975, Note_on_c, 5, 84, 0
5, 138997, Note_on_c, 5, 83, 80
5, 139091, Note_on_c, 5, 83, 0
5, 139102, Note_on_c, 5, 86, 0
5, 139146, Note_on_c, 5, 81, 80
5, 139149, Note_on_c, 5, 84, 80
5, 139253, Note_on_c, 5, 84, 0
5, 139255, Note_on_c, 5, 81, 0
5, 139282, Note_on_c, 5, 83, 80
5, 139285, Note_on_c, 5, 86, 80
5, 140205, Note_on_c, 5, 83, 0
5, 140210, Note_on_c, 5, 86, 0
5, 140210, End_track
6, 0, Start_track
6, 0, Title_t, "Pedal 8"
6, 0, MIDI_port, 0
6, 0, Control_c, 2, 7, 84
6, 0, Control_c, 2, 10, 86
6, 0, Program_c, 2, 78
6, 2155, Note_on_c, 2, 43, 86
6, 2379, Note_on_c, 2, 43, 0
6, 2402, Note_on_c, 2, 47, 93
6, 2498, Note_on_c, 2, 47, 0
6, 2621, Note_on_c, 2, 50, 86
6, 2735, Note_on_c, 2, 50, 0
6, 2853, Note_on_c, 2, 47, 83
6, 3006, Note_on_c, 2, 47, 0
6, 3074, Note_on_c, 2, 43, 81
6, 3234, Note_on_c, 2, 43, 0
6, 3322, Note_on_c, 2, 50, 86
6, 3725, Note_on_c, 2, 50, 0
6, 4050, Note_on_c, 2, 43, 83
6, 4272, Note_on_c, 2, 47, 84
6, 4301, Note_on_c, 2, 43, 0
6, 4379, Note_on_c, 2, 47, 0
6, 4509, Note_on_c, 2, 50, 79
6, 4657, Note_on_c, 2, 50, 0
6, 4763, Note_on_c, 2, 47, 83
6, 4947, Note_on_c, 2, 47, 0
6, 5013, Note_on_c, 2, 43, 86
6, 5149, Note_on_c, 2, 43, 0
6, 5249, Note_on_c, 2, 50, 84
6, 5478, Note_on_c, 2, 38, 89
6, 5492, Note_on_c, 2, 50, 0
6, 5657, Note_on_c, 2, 38, 0
6, 5742, Note_on_c, 2, 43, 89
6, 6221, Note_on_c, 2, 43, 0
6, 6448, Note_on_c, 2, 55, 79
6, 6575, Note_on_c, 2, 55, 0
6, 6693, Note_on_c, 2, 54, 87
6, 7215, Note_on_c, 2, 54, 0
6, 7399, Note_on_c, 2, 59, 90
6, 7499, Note_on_c, 2, 59, 0
6, 7628, Note_on_c, 2, 52, 79
6, 8179, Note_on_c, 2, 52, 0
6, 8373, Note_on_c, 2, 57, 82
6, 8490, Note_on_c, 2, 57, 0
6, 8604, Note_on_c, 2, 50, 80
6, 8758, Note_on_c, 2, 50, 0
6, 8832, Note_on_c, 2, 54, 89
6, 9046, Note_on_c, 2, 54, 0
6, 9063, Note_on_c, 2, 55, 79
6, 9170, Note_on_c, 2, 55, 0
6, 9304, Note_on_c, 2, 57, 83
6, 9418, Note_on_c, 2, 57, 0
6, 9549, Note_on_c, 2, 59, 94
6, 10065, Note_on_c, 2, 59, 0
6, 10291, Note_on_c, 2, 54, 89
6, 10400, Note_on_c, 2, 54, 0
6, 10521, Note_on_c, 2, 55, 82
6, 10710, Note_on_c, 2, 55, 0
6, 10760, Note_on_c, 2, 52, 78
6, 10863, Note_on_c, 2, 52, 0
6, 10976, Note_on_c, 2, 57, 76
6, 11111, Note_on_c, 2, 57, 0
6, 11218, Note_on_c, 2, 45, 80
6, 11334, Note_on_c, 2, 45, 0
6, 11444, Note_on_c, 2, 50, 87
6, 11535, Note_on_c, 2, 50, 0
6, 11714, Note_on_c, 2, 38, 80
6, 12036, Note_on_c, 2, 38, 0
6, 13681, Note_on_c, 2, 50, 81
6, 13901, Note_on_c, 2, 54, 90
6, 13917, Note_on_c, 2, 50, 0
6, 13994, Note_on_c, 2, 54, 0
6, 14128, Note_on_c, 2, 57, 83
6, 14233, Note_on_c, 2, 57, 0
6, 14363, Note_on_c, 2, 54, 88
6, 14490, Note_on_c, 2, 54, 0
6, 14602, Note_on_c, 2, 50, 83
6, 14721, Note_on_c, 2, 50, 0
6, 14849, Note_on_c, 2, 57, 79
6, 15061, Note_on_c, 2, 57, 0
6, 15592, Note_on_c, 2, 50, 83
6, 15816, Note_on_c, 2, 54, 85
6, 15820, Note_on_c, 2, 50, 0
6, 15943, Note_on_c, 2, 54, 0
6, 16049, Note_on_c, 2, 57, 79
6, 16192, Note_on_c, 2, 57, 0
6, 16295, Note_on_c, 2, 54, 87
6, 16465, Note_on_c, 2, 54, 0
6, 16536, Note_on_c, 2, 50, 79
6, 16663, Note_on_c, 2, 50, 0
6, 16745, Note_on_c, 2, 57, 83
6, 16893, Note_on_c, 2, 57, 0
6, 16987, Note_on_c, 2, 45, 73
6, 17127, Note_on_c, 2, 45, 0
6, 17218, Note_on_c, 2, 50, 70
6, 17735, Note_on_c, 2, 50, 0
6, 17974, Note_on_c, 2, 50, 83
6, 18082, Note_on_c, 2, 50, 0
6, 18212, Note_on_c, 2, 49, 88
6, 18583, Note_on_c, 2, 49, 0
6, 18931, Note_on_c, 2, 54, 87
6, 19025, Note_on_c, 2, 54, 0
6, 19162, Note_on_c, 2, 47, 80
6, 19631, Note_on_c, 2, 47, 0
6, 19893, Note_on_c, 2, 52, 79
6, 19980, Note_on_c, 2, 52, 0
6, 20134, Note_on_c, 2, 45, 83
6, 20598, Note_on_c, 2, 45, 0
6, 21055, Note_on_c, 2, 52, 84
6, 21575, Note_on_c, 2, 52, 0
6, 22046, Note_on_c, 2, 47, 89
6, 22567, Note_on_c, 2, 47, 0
6, 23016, Note_on_c, 2, 54, 90
6, 23500, Note_on_c, 2, 54, 0
6, 23738, Note_on_c, 2, 47, 79
6, 23833, Note_on_c, 2, 47, 0
6, 23966, Note_on_c, 2, 52, 83
6, 24487, Note_on_c, 2, 52, 0
6, 24681, Note_on_c, 2, 45, 68
6, 24770, Note_on_c, 2, 45, 0
6, 24907, Note_on_c, 2, 50, 85
6, 25402, Note_on_c, 2, 50, 0
6, 25652, Note_on_c, 2, 55, 84
6, 26062, Note_on_c, 2, 55, 0
6, 26129, Note_on_c, 2, 54, 86
6, 26202, Note_on_c, 2, 54, 0
6, 26229, Note_on_c, 2, 55, 72
6, 26348, Note_on_c, 2, 55, 0
6, 26370, Note_on_c, 2, 57, 90
6, 26548, Note_on_c, 2, 57, 0
6, 26608, Note_on_c, 2, 45, 86
6, 26709, Note_on_c, 2, 45, 0
6, 26861, Note_on_c, 2, 50, 90
6, 27375, Note_on_c, 2, 50, 0
6, 28059, Note_on_c, 2, 50, 84
6, 28298, Note_on_c, 2, 48, 74
6, 28327, Note_on_c, 2, 50, 0
6, 28419, Note_on_c, 2, 48, 0
6, 28540, Note_on_c, 2, 47, 87
6, 28657, Note_on_c, 2, 47, 0
6, 28777, Note_on_c, 2, 45, 72
6, 29300, Note_on_c, 2, 45, 0
6, 29993, Note_on_c, 2, 57, 76
6, 30228, Note_on_c, 2, 55, 74
6, 30257, Note_on_c, 2, 57, 0
6, 30355, Note_on_c, 2, 55, 0
6, 30462, Note_on_c, 2, 54, 89
6, 30561, Note_on_c, 2, 54, 0
6, 30691, Note_on_c, 2, 52, 76
6, 31221, Note_on_c, 2, 52, 0
6, 32850, Note_on_c, 2, 52, 84
6, 33091, Note_on_c, 2, 55, 83
6, 33113, Note_on_c, 2, 52, 0
6, 33185, Note_on_c, 2, 55, 0
6, 33327, Note_on_c, 2, 59, 91
6, 33450, Note_on_c, 2, 59, 0
6, 33563, Note_on_c, 2, 55, 84
6, 33755, Note_on_c, 2, 55, 0
6, 33790, Note_on_c, 2, 52, 85
6, 33921, Note_on_c, 2, 52, 0
6, 34030, Note_on_c, 2, 59, 93
6, 34255, Note_on_c, 2, 59, 0
6, 34776, Note_on_c, 2, 52, 82
6, 35000, Note_on_c, 2, 55, 83
6, 35022, Note_on_c, 2, 52, 0
6, 35097, Note_on_c, 2, 55, 0
6, 35251, Note_on_c, 2, 59, 87
6, 35352, Note_on_c, 2, 59, 0
6, 35499, Note_on_c, 2, 55, 81
6, 35642, Note_on_c, 2, 55, 0
6, 35739, Note_on_c, 2, 52, 72
6, 35857, Note_on_c, 2, 52, 0
6, 35971, Note_on_c, 2, 59, 94
6, 36155, Note_on_c, 2, 59, 0
6, 36212, Note_on_c, 2, 47, 88
6, 36316, Note_on_c, 2, 47, 0
6, 36465, Note_on_c, 2, 52, 80
6, 36966, Note_on_c, 2, 52, 0
6, 37176, Note_on_c, 2, 52, 82
6, 37300, Note_on_c, 2, 52, 0
6, 37424, Note_on_c, 2, 54, 92
6, 37940, Note_on_c, 2, 54, 0
6, 38138, Note_on_c, 2, 54, 88
6, 38221, Note_on_c, 2, 54, 0
6, 38376, Note_on_c, 2, 55, 80
6, 38872, Note_on_c, 2, 55, 0
6, 39094, Note_on_c, 2, 60, 85
6, 39189, Note_on_c, 2, 60, 0
6, 39330, Note_on_c, 2, 57, 86
6, 39529, Note_on_c, 2, 57, 0
6, 39589, Note_on_c, 2, 54, 89
6, 39717, Note_on_c, 2, 54, 0
6, 39801, Note_on_c, 2, 59, 90
6, 39985, Note_on_c, 2, 59, 0
6, 40045, Note_on_c, 2, 47, 84
6, 40222, Note_on_c, 2, 47, 0
6, 40271, Note_on_c, 2, 52, 79
6, 40386, Note_on_c, 2, 52, 0
6, 40515, Note_on_c, 2, 59, 87
6, 40661, Note_on_c, 2, 59, 0
6, 40748, Note_on_c, 2, 55, 80
6, 40941, Note_on_c, 2, 55, 0
6, 40986, Note_on_c, 2, 52, 79
6, 41088, Note_on_c, 2, 52, 0
6, 41223, Note_on_c, 2, 49, 90
6, 41356, Note_on_c, 2, 49, 0
6, 41482, Note_on_c, 2, 45, 72
6, 41644, Note_on_c, 2, 45, 0
6, 41715, Note_on_c, 2, 55, 83
6, 41972, Note_on_c, 2, 55, 0
6, 42197, Note_on_c, 2, 54, 89
6, 42582, Note_on_c, 2, 54, 0
6, 42704, Note_on_c, 2, 42, 87
6, 43446, Note_on_c, 2, 42, 0
6, 43662, Note_on_c, 2, 54, 93
6, 43917, Note_on_c, 2, 54, 0
6, 44148, Note_on_c, 2, 52, 77
6, 44453, Note_on_c, 2, 52, 0
6, 44630, Note_on_c, 2, 40, 79
6, 45348, Note_on_c, 2, 40, 0
6, 45569, Note_on_c, 2, 52, 79
6, 45886, Note_on_c, 2, 52, 0
6, 46055, Note_on_c, 2, 50, 80
6, 46414, Note_on_c, 2, 50, 0
6, 46521, Note_on_c, 2, 55, 86
6, 46899, Note_on_c, 2, 55, 0
6, 47009, Note_on_c, 2, 49, 88
6, 47389, Note_on_c, 2, 49, 0
6, 47496, Note_on_c, 2, 54, 89
6, 47845, Note_on_c, 2, 54, 0
6, 47972, Note_on_c, 2, 47, 82
6, 48308, Note_on_c, 2, 47, 0
6, 48462, Note_on_c, 2, 52, 74
6, 49075, Note_on_c, 2, 52, 0
6, 49162, Note_on_c, 2, 50, 85
6, 49270, Note_on_c, 2, 50, 0
6, 49276, Note_on_c, 2, 52, 78
6, 49355, Note_on_c, 2, 52, 0
6, 49425, Note_on_c, 2, 54, 97
6, 49627, Note_on_c, 2, 54, 0
6, 49657, Note_on_c, 2, 42, 92
6, 49772, Note_on_c, 2, 42, 0
6, 49894, Note_on_c, 2, 47, 91
6, 50400, Note_on_c, 2, 47, 0
6, 52064, Note_on_c, 2, 47, 83
6, 52285, Note_on_c, 2, 50, 86
6, 52299, Note_on_c, 2, 47, 0
6, 52378, Note_on_c, 2, 50, 0
6, 52521, Note_on_c, 2, 54, 89
6, 52641, Note_on_c, 2, 54, 0
6, 52761, Note_on_c, 2, 50, 81
6, 52899, Note_on_c, 2, 50, 0
6, 53003, Note_on_c, 2, 47, 78
6, 53163, Note_on_c, 2, 47, 0
6, 53241, Note_on_c, 2, 54, 89
6, 53433, Note_on_c, 2, 54, 0
6, 53969, Note_on_c, 2, 47, 77
6, 54198, Note_on_c, 2, 50, 79
6, 54218, Note_on_c, 2, 47, 0
6, 54312, Note_on_c, 2, 50, 0
6, 54455, Note_on_c, 2, 54, 86
6, 54588, Note_on_c, 2, 54, 0
6, 54701, Note_on_c, 2, 50, 72
6, 54886, Note_on_c, 2, 50, 0
6, 54943, Note_on_c, 2, 47, 74
6, 55060, Note_on_c, 2, 47, 0
6, 55178, Note_on_c, 2, 54, 84
6, 55319, Note_on_c, 2, 54, 0
6, 55421, Note_on_c, 2, 42, 91
6, 55539, Note_on_c, 2, 42, 0
6, 55669, Note_on_c, 2, 47, 87
6, 56157, Note_on_c, 2, 47, 0
6, 56383, Note_on_c, 2, 47, 84
6, 56514, Note_on_c, 2, 47, 0
6, 56628, Note_on_c, 2, 52, 80
6, 56868, Note_on_c, 2, 50, 78
6, 56896, Note_on_c, 2, 52, 0
6, 57093, Note_on_c, 2, 49, 90
6, 57100, Note_on_c, 2, 50, 0
6, 57248, Note_on_c, 2, 49, 0
6, 57336, Note_on_c, 2, 45, 76
6, 57493, Note_on_c, 2, 45, 0
6, 57598, Note_on_c, 2, 50, 87
6, 57835, Note_on_c, 2, 49, 87
6, 57858, Note_on_c, 2, 50, 0
6, 57999, Note_on_c, 2, 49, 0
6, 58097, Note_on_c, 2, 47, 83
6, 58195, Note_on_c, 2, 47, 0
6, 58325, Note_on_c, 2, 59, 79
6, 58328, Note_on_c, 2, 60, 74
6, 58388, Note_on_c, 2, 60, 0
6, 58410, Note_on_c, 2, 59, 0
6, 58535, Note_on_c, 2, 61, 88
6, 58774, Note_on_c, 2, 58, 87
6, 58790, Note_on_c, 2, 61, 0
6, 58881, Note_on_c, 2, 58, 0
6, 59026, Note_on_c, 2, 54, 83
6, 59149, Note_on_c, 2, 54, 0
6, 59267, Note_on_c, 2, 58, 89
6, 59354, Note_on_c, 2, 58, 0
6, 59495, Note_on_c, 2, 59, 90
6, 59692, Note_on_c, 2, 59, 0
6, 59743, Note_on_c, 2, 54, 89
6, 59828, Note_on_c, 2, 54, 0
6, 59990, Note_on_c, 2, 50, 79
6, 60107, Note_on_c, 2, 50, 0
6, 60213, Note_on_c, 2, 47, 79
6, 60361, Note_on_c, 2, 47, 0
6, 60476, Note_on_c, 2, 49, 90
6, 60702, Note_on_c, 2, 47, 84
6, 60709, Note_on_c, 2, 49, 0
6, 60814, Note_on_c, 2, 47, 0
6, 60945, Note_on_c, 2, 45, 78
6, 61087, Note_on_c, 2, 45, 0
6, 61193, Note_on_c, 2, 49, 89
6, 61295, Note_on_c, 2, 49, 0
6, 61442, Note_on_c, 2, 50, 85
6, 61685, Note_on_c, 2, 49, 84
6, 61715, Note_on_c, 2, 50, 0
6, 61822, Note_on_c, 2, 49, 0
6, 61910, Note_on_c, 2, 47, 79
6, 62057, Note_on_c, 2, 47, 0
6, 62159, Note_on_c, 2, 50, 83
6, 62278, Note_on_c, 2, 50, 0
6, 62403, Note_on_c, 2, 52, 83
6, 62621, Note_on_c, 2, 50, 81
6, 62650, Note_on_c, 2, 52, 0
6, 62725, Note_on_c, 2, 50, 0
6, 62856, Note_on_c, 2, 49, 83
6, 62985, Note_on_c, 2, 49, 0
6, 63086, Note_on_c, 2, 52, 68
6, 63208, Note_on_c, 2, 52, 0
6, 63345, Note_on_c, 2, 54, 84
6, 63583, Note_on_c, 2, 52, 71
6, 63607, Note_on_c, 2, 54, 0
6, 63702, Note_on_c, 2, 52, 0
6, 63815, Note_on_c, 2, 50, 72
6, 64007, Note_on_c, 2, 50, 0
6, 64039, Note_on_c, 2, 54, 86
6, 64148, Note_on_c, 2, 54, 0
6, 64272, Note_on_c, 2, 55, 60
6, 64495, Note_on_c, 2, 54, 82
6, 64520, Note_on_c, 2, 55, 0
6, 64647, Note_on_c, 2, 54, 0
6, 64734, Note_on_c, 2, 52, 66
6, 64896, Note_on_c, 2, 52, 0
6, 65000, Note_on_c, 2, 55, 76
6, 65131, Note_on_c, 2, 55, 0
6, 65247, Note_on_c, 2, 57, 83
6, 65502, Note_on_c, 2, 55, 74
6, 65518, Note_on_c, 2, 57, 0
6, 65617, Note_on_c, 2, 55, 0
6, 65739, Note_on_c, 2, 54, 88
6, 65884, Note_on_c, 2, 54, 0
6, 65957, Note_on_c, 2, 52, 67
6, 66081, Note_on_c, 2, 52, 0
6, 66194, Note_on_c, 2, 50, 79
6, 66429, Note_on_c, 2, 49, 85
6, 66447, Note_on_c, 2, 50, 0
6, 66564, Note_on_c, 2, 49, 0
6, 66686, Note_on_c, 2, 47, 80
6, 66817, Note_on_c, 2, 47, 0
6, 66923, Note_on_c, 2, 45, 70
6, 67055, Note_on_c, 2, 45, 0
6, 67162, Note_on_c, 2, 43, 58
6, 67390, Note_on_c, 2, 42, 87
6, 67426, Note_on_c, 2, 43, 0
6, 67495, Note_on_c, 2, 42, 0
6, 67643, Note_on_c, 2, 40, 65
6, 67800, Note_on_c, 2, 40, 0
6, 67896, Note_on_c, 2, 43, 75
6, 68021, Note_on_c, 2, 43, 0
6, 68117, Note_on_c, 2, 45, 81
6, 68363, Note_on_c, 2, 43, 77
6, 68388, Note_on_c, 2, 45, 0
6, 68473, Note_on_c, 2, 43, 0
6, 68598, Note_on_c, 2, 42, 87
6, 68724, Note_on_c, 2, 42, 0
6, 68818, Note_on_c, 2, 45, 59
6, 68906, Note_on_c, 2, 45, 0
6, 69052, Note_on_c, 2, 47, 62
6, 69262, Note_on_c, 2, 47, 0
6, 69319, Note_on_c, 2, 50, 76
6, 69566, Note_on_c, 2, 52, 75
6, 69569, Note_on_c, 2, 50, 0
6, 69727, Note_on_c, 2, 52, 0
6, 69818, Note_on_c, 2, 54, 83
6, 69935, Note_on_c, 2, 54, 0
6, 70049, Note_on_c, 2, 55, 77
6, 70287, Note_on_c, 2, 54, 83
6, 70311, Note_on_c, 2, 55, 0
6, 70401, Note_on_c, 2, 54, 0
6, 70504, Note_on_c, 2, 55, 77
6, 70741, Note_on_c, 2, 57, 73
6, 70754, Note_on_c, 2, 55, 0
6, 70944, Note_on_c, 2, 57, 0
6, 70997, Note_on_c, 2, 59, 79
6, 71222, Note_on_c, 2, 59, 0
6, 71237, Note_on_c, 2, 54, 83
6, 71457, Note_on_c, 2, 55, 80
6, 71489, Note_on_c, 2, 54, 0
6, 71601, Note_on_c, 2, 55, 0
6, 71707, Note_on_c, 2, 57, 79
6, 71841, Note_on_c, 2, 57, 0
6, 71923, Note_on_c, 2, 59, 92
6, 72168, Note_on_c, 2, 55, 75
6, 72191, Note_on_c, 2, 59, 0
6, 72261, Note_on_c, 2, 55, 0
6, 72402, Note_on_c, 2, 57, 62
6, 72670, Note_on_c, 2, 57, 0
6, 72700, Note_on_c, 2, 45, 75
6, 72836, Note_on_c, 2, 45, 0
6, 72921, Note_on_c, 2, 50, 65
6, 73441, Note_on_c, 2, 50, 0
6, 75114, Note_on_c, 2, 62, 85
6, 75263, Note_on_c, 2, 62, 0
6, 75338, Note_on_c, 2, 60, 86
6, 75502, Note_on_c, 2, 60, 0
6, 75565, Note_on_c, 2, 59, 86
6, 75688, Note_on_c, 2, 59, 0
6, 75795, Note_on_c, 2, 57, 72
6, 76031, Note_on_c, 2, 55, 78
6, 76033, Note_on_c, 2, 57, 0
6, 76256, Note_on_c, 2, 54, 91
6, 76280, Note_on_c, 2, 55, 0
6, 76382, Note_on_c, 2, 54, 0
6, 76510, Note_on_c, 2, 50, 76
6, 76633, Note_on_c, 2, 50, 0
6, 76743, Note_on_c, 2, 55, 79
6, 77267, Note_on_c, 2, 55, 0
6, 78959, Note_on_c, 2, 55, 86
6, 79186, Note_on_c, 2, 55, 0
6, 79193, Note_on_c, 2, 53, 79
6, 79320, Note_on_c, 2, 53, 0
6, 79432, Note_on_c, 2, 52, 80
6, 79565, Note_on_c, 2, 52, 0
6, 79677, Note_on_c, 2, 50, 78
6, 79892, Note_on_c, 2, 48, 68
6, 79894, Note_on_c, 2, 50, 0
6, 80097, Note_on_c, 2, 48, 0
6, 80131, Note_on_c, 2, 47, 85
6, 80261, Note_on_c, 2, 47, 0
6, 80372, Note_on_c, 2, 43, 84
6, 80520, Note_on_c, 2, 43, 0
6, 80587, Note_on_c, 2, 48, 79
6, 80698, Note_on_c, 2, 48, 0
6, 80846, Note_on_c, 2, 48, 79
6, 81069, Note_on_c, 2, 52, 80
6, 81090, Note_on_c, 2, 48, 0
6, 81185, Note_on_c, 2, 52, 0
6, 81311, Note_on_c, 2, 55, 79
6, 81452, Note_on_c, 2, 55, 0
6, 81560, Note_on_c, 2, 52, 72
6, 81717, Note_on_c, 2, 52, 0
6, 81791, Note_on_c, 2, 48, 76
6, 81931, Note_on_c, 2, 48, 0
6, 82025, Note_on_c, 2, 55, 80
6, 82257, Note_on_c, 2, 55, 0
6, 82780, Note_on_c, 2, 48, 76
6, 83011, Note_on_c, 2, 52, 79
6, 83035, Note_on_c, 2, 48, 0
6, 83129, Note_on_c, 2, 52, 0
6, 83262, Note_on_c, 2, 55, 83
6, 83419, Note_on_c, 2, 55, 0
6, 83494, Note_on_c, 2, 52, 78
6, 83640, Note_on_c, 2, 52, 0
6, 83748, Note_on_c, 2, 48, 79
6, 83883, Note_on_c, 2, 48, 0
6, 83967, Note_on_c, 2, 55, 81
6, 84122, Note_on_c, 2, 55, 0
6, 84200, Note_on_c, 2, 43, 85
6, 84329, Note_on_c, 2, 43, 0
6, 84449, Note_on_c, 2, 48, 80
6, 84949, Note_on_c, 2, 48, 0
6, 85173, Note_on_c, 2, 60, 81
6, 85289, Note_on_c, 2, 60, 0
6, 85426, Note_on_c, 2, 59, 86
6, 85911, Note_on_c, 2, 59, 0
6, 86112, Note_on_c, 2, 52, 70
6, 86235, Note_on_c, 2, 52, 0
6, 86351, Note_on_c, 2, 57, 83
6, 86831, Note_on_c, 2, 57, 0
6, 87089, Note_on_c, 2, 50, 83
6, 87200, Note_on_c, 2, 50, 0
6, 87330, Note_on_c, 2, 55, 82
6, 87837, Note_on_c, 2, 55, 0
6, 88049, Note_on_c, 2, 55, 83
6, 88160, Note_on_c, 2, 55, 0
6, 88293, Note_on_c, 2, 54, 89
6, 88774, Note_on_c, 2, 54, 0
6, 88998, Note_on_c, 2, 59, 90
6, 89099, Note_on_c, 2, 59, 0
6, 89250, Note_on_c, 2, 52, 77
6, 89780, Note_on_c, 2, 52, 0
6, 89966, Note_on_c, 2, 57, 84
6, 90053, Note_on_c, 2, 57, 0
6, 90206, Note_on_c, 2, 50, 83
6, 90695, Note_on_c, 2, 50, 0
6, 91153, Note_on_c, 2, 45, 79
6, 91694, Note_on_c, 2, 45, 0
6, 92127, Note_on_c, 2, 52, 76
6, 92655, Note_on_c, 2, 52, 0
6, 93085, Note_on_c, 2, 47, 87
6, 93581, Note_on_c, 2, 47, 0
6, 93809, Note_on_c, 2, 52, 80
6, 93927, Note_on_c, 2, 52, 0
6, 94056, Note_on_c, 2, 57, 79
6, 94537, Note_on_c, 2, 57, 0
6, 94777, Note_on_c, 2, 50, 84
6, 94869, Note_on_c, 2, 50, 0
6, 95002, Note_on_c, 2, 55, 79
6, 95307, Note_on_c, 2, 55, 0
6, 95492, Note_on_c, 2, 48, 74
6, 95853, Note_on_c, 2, 48, 0
6, 95979, Note_on_c, 2, 50, 84
6, 96221, Note_on_c, 2, 43, 76
6, 96223, Note_on_c, 2, 50, 0
6, 96345, Note_on_c, 2, 43, 0
6, 96472, Note_on_c, 2, 50, 82
6, 96672, Note_on_c, 2, 50, 0
6, 96695, Note_on_c, 2, 38, 83
6, 96807, Note_on_c, 2, 38, 0
6, 96996, Note_on_c, 2, 43, 86
6, 97547, Note_on_c, 2, 43, 0
6, 98858, Note_on_c, 2, 43, 86
6, 99778, Note_on_c, 2, 47, 90
6, 99790, Note_on_c, 2, 43, 0
6, 100272, Note_on_c, 2, 50, 86
6, 100280, Note_on_c, 2, 47, 0
6, 100746, Note_on_c, 2, 47, 88
6, 100756, Note_on_c, 2, 50, 0
6, 101478, Note_on_c, 2, 45, 83
6, 101492, Note_on_c, 2, 47, 0
6, 101707, Note_on_c, 2, 47, 88
6, 101729, Note_on_c, 2, 45, 0
6, 102159, Note_on_c, 2, 49, 87
6, 102176, Note_on_c, 2, 47, 0
6, 102659, Note_on_c, 2, 50, 87
6, 102675, Note_on_c, 2, 49, 0
6, 104664, Note_on_c, 2, 50, 0
6, 106529, Note_on_c, 2, 52, 89
6, 107509, Note_on_c, 2, 50, 86
6, 107519, Note_on_c, 2, 52, 0
6, 107741, Note_on_c, 2, 48, 79
6, 107750, Note_on_c, 2, 50, 0
6, 107967, Note_on_c, 2, 48, 0
6, 107968, Note_on_c, 2, 47, 83
6, 108064, Note_on_c, 2, 45, 32
6, 108082, Note_on_c, 2, 45, 0
6, 108441, Note_on_c, 2, 45, 88
6, 108460, Note_on_c, 2, 47, 0
6, 108896, Note_on_c, 2, 43, 89
6, 108912, Note_on_c, 2, 45, 0
6, 109875, Note_on_c, 2, 42, 93
6, 109898, Note_on_c, 2, 43, 0
6, 110411, Note_on_c, 2, 43, 85
6, 110413, Note_on_c, 2, 42, 0
6, 112310, Note_on_c, 2, 43, 0
6, 118029, Note_on_c, 2, 45, 90
6, 118831, Note_on_c, 2, 45, 0
6, 119011, Note_on_c, 2, 47, 85
6, 119347, Note_on_c, 2, 47, 0
6, 119492, Note_on_c, 2, 47, 90
6, 119820, Note_on_c, 2, 47, 0
6, 119983, Note_on_c, 2, 45, 85
6, 120338, Note_on_c, 2, 45, 0
6, 120466, Note_on_c, 2, 50, 82
6, 120863, Note_on_c, 2, 50, 0
6, 120940, Note_on_c, 2, 50, 93
6, 121399, Note_on_c, 2, 49, 86
6, 121420, Note_on_c, 2, 50, 0
6, 121817, Note_on_c, 2, 49, 0
6, 121850, Note_on_c, 2, 50, 84
6, 123824, Note_on_c, 2, 50, 0
6, 127652, Note_on_c, 2, 47, 92
6, 128593, Note_on_c, 2, 47, 0
6, 128597, Note_on_c, 2, 48, 86
6, 129098, Note_on_c, 2, 47, 85
6, 129112, Note_on_c, 2, 48, 0
6, 129562, Note_on_c, 2, 45, 86
6, 129577, Note_on_c, 2, 47, 0
6, 130043, Note_on_c, 2, 43, 78
6, 130049, Note_on_c, 2, 45, 0
6, 131037, Note_on_c, 2, 42, 93
6, 131055, Note_on_c, 2, 43, 0
6, 131460, Note_on_c, 2, 42, 0
6, 131493, Note_on_c, 2, 43, 79
6, 134471, Note_on_c, 2, 43, 0
6, 134622, Note_on_c, 2, 41, 77
6, 134866, Note_on_c, 2, 41, 0
6, 134871, Note_on_c, 2, 40, 76
6, 135002, Note_on_c, 2, 40, 0
6, 135082, Note_on_c, 2, 38, 84
6, 135216, Note_on_c, 2, 38, 0
6, 135324, Note_on_c, 2, 36, 79
6, 135583, Note_on_c, 2, 36, 0
6, 135587, Note_on_c, 2, 48, 58
6, 135820, Note_on_c, 2, 52, 76
6, 135826, Note_on_c, 2, 48, 0
6, 135948, Note_on_c, 2, 52, 0
6, 136047, Note_on_c, 2, 55, 78
6, 136186, Note_on_c, 2, 55, 0
6, 136284, Note_on_c, 2, 52, 70
6, 136420, Note_on_c, 2, 52, 0
6, 136515, Note_on_c, 2, 48, 77
6, 136676, Note_on_c, 2, 48, 0
6, 136769, Note_on_c, 2, 55, 82
6, 137114, Note_on_c, 2, 55, 0
6, 137492, Note_on_c, 2, 48, 76
6, 137701, Note_on_c, 2, 48, 0
6, 137732, Note_on_c, 2, 52, 83
6, 137855, Note_on_c, 2, 52, 0
6, 137972, Note_on_c, 2, 55, 79
6, 138098, Note_on_c, 2, 55, 0
6, 138214, Note_on_c, 2, 52, 73
6, 138334, Note_on_c, 2, 52, 0
6, 138454, Note_on_c, 2, 48, 80
6, 138595, Note_on_c, 2, 48, 0
6, 138714, Note_on_c, 2, 55, 86
6, 139093, Note_on_c, 2, 55, 0
6, 139280, Note_on_c, 2, 43, 83
6, 140244, Note_on_c, 2, 43, 0
6, 140244, End_track
7, 0, Start_track
7, 0, Title_t, "Pedal 16"
7, 0, MIDI_port, 0
7, 0, Control_c, 3, 7, 84
7, 0, Control_c, 3, 10, 86
7, 0, Program_c, 3, 78
7, 2155, Note_on_c, 3, 31, 86
7, 2379, Note_on_c, 3, 31, 0
7, 2402, Note_on_c, 3, 35, 93
7, 2498, Note_on_c, 3, 35, 0
7, 2621, Note_on_c, 3, 38, 86
7, 2735, Note_on_c, 3, 38, 0
7, 2853, Note_on_c, 3, 35, 83
7, 3006, Note_on_c, 3, 35, 0
7, 3074, Note_on_c, 3, 31, 81
7, 3234, Note_on_c, 3, 31, 0
7, 3322, Note_on_c, 3, 38, 86
7, 3725, Note_on_c, 3, 38, 0
7, 4050, Note_on_c, 3, 31, 83
7, 4272, Note_on_c, 3, 35, 84
7, 4301, Note_on_c, 3, 31, 0
7, 4379, Note_on_c, 3, 35, 0
7, 4509, Note_on_c, 3, 38, 79
7, 4657, Note_on_c, 3, 38, 0
7, 4763, Note_on_c, 3, 35, 83
7, 4947, Note_on_c, 3, 35, 0
7, 5013, Note_on_c, 3, 31, 86
7, 5149, Note_on_c, 3, 31, 0
7, 5249, Note_on_c, 3, 38, 84
7, 5478, Note_on_c, 3, 26, 89
7, 5492, Note_on_c, 3, 38, 0
7, 5657, Note_on_c, 3, 26, 0
7, 5742, Note_on_c, 3, 31, 89
7, 6221, Note_on_c, 3, 31, 0
7, 6448, Note_on_c, 3, 43, 79
7, 6575, Note_on_c, 3, 43, 0
7, 6693, Note_on_c, 3, 42, 87
7, 7215, Note_on_c, 3, 42, 0
7, 7399, Note_on_c, 3, 47, 90
7, 7499, Note_on_c, 3, 47, 0
7, 7628, Note_on_c, 3, 40, 79
7, 8179, Note_on_c, 3, 40, 0
7, 8373, Note_on_c, 3, 45, 82
7, 8490, Note_on_c, 3, 45, 0
7, 8604, Note_on_c, 3, 38, 80
7, 8758, Note_on_c, 3, 38, 0
7, 8832, Note_on_c, 3, 42, 89
7, 9046, Note_on_c, 3, 42, 0
7, 9063, Note_on_c, 3, 43, 79
7, 9170, Note_on_c, 3, 43, 0
7, 9304, Note_on_c, 3, 45, 83
7, 9418, Note_on_c, 3, 45, 0
7, 9549, Note_on_c, 3, 47, 94
7, 10065, Note_on_c, 3, 47, 0
7, 10291, Note_on_c, 3, 42, 89
7, 10400, Note_on_c, 3, 42, 0
7, 10521, Note_on_c, 3, 43, 82
7, 10710, Note_on_c, 3, 43, 0
7, 10760, Note_on_c, 3, 40, 78
7, 10863, Note_on_c, 3, 40, 0
7, 10976, Note_on_c, 3, 45, 76
7, 11111, Note_on_c, 3, 45, 0
7, 11218, Note_on_c, 3, 33, 80
7, 11334, Note_on_c, 3, 33, 0
7, 11444, Note_on_c, 3, 38, 87
7, 11535, Note_on_c, 3, 38, 0
7, 11714, Note_on_c, 3, 26, 80
7, 12036, Note_on_c, 3, 26, 0
7, 13681, Note_on_c, 3, 38, 81
7, 13901, Note_on_c, 3, 42, 90
7, 13917, Note_on_c, 3, 38, 0
7, 13994, Note_on_c, 3, 42, 0
7, 14128, Note_on_c, 3, 45, 83
7, 14233, Note_on_c, 3, 45, 0
7, 14363, Note_on_c, 3, 42, 88
7, 14490, Note_on_c, 3, 42, 0
7, 14602, Note_on_c, 3, 38, 83
7, 14721, Note_on_c, 3, 38, 0
7, 14849, Note_on_c, 3, 45, 79
7, 15061, Note_on_c, 3, 45, 0
7, 15592, Note_on_c, 3, 38, 83
7, 15816, Note_on_c, 3, 42, 85
7, 15820, Note_on_c, 3, 38, 0
7, 15943, Note_on_c, 3, 42, 0
7, 16049, Note_on_c, 3, 45, 79
7, 16192, Note_on_c, 3, 45, 0
7, 16295, Note_on_c, 3, 42, 87
7, 16465, Note_on_c, 3, 42, 0
7, 16536, Note_on_c, 3, 38, 79
7, 16663, Note_on_c, 3, 38, 0
7, 16745, Note_on_c, 3, 45, 83
7, 16893, Note_on_c, 3, 45, 0
7, 16987, Note_on_c, 3, 33, 73
7, 17127, Note_on_c, 3, 33, 0
7, 17218, Note_on_c, 3, 38, 70
7, 17735, Note_on_c, 3, 38, 0
7, 17974, Note_on_c, 3, 38, 83
7, 18082, Note_on_c, 3, 38, 0
7, 18212, Note_on_c, 3, 37, 88
7, 18583, Note_on_c, 3, 37, 0
7, 18931, Note_on_c, 3, 42, 87
7, 19025, Note_on_c, 3, 42, 0
7, 19162, Note_on_c, 3, 35, 80
7, 19631, Note_on_c, 3, 35, 0
7, 19893, Note_on_c, 3, 40, 79
7, 19980, Note_on_c, 3, 40, 0
7, 20134, Note_on_c, 3, 33, 83
7, 20598, Note_on_c, 3, 33, 0
7, 21055, Note_on_c, 3, 40, 84
7, 21575, Note_on_c, 3, 40, 0
7, 22046, Note_on_c, 3, 35, 89
7, 22567, Note_on_c, 3, 35, 0
7, 23016, Note_on_c, 3, 42, 90
7, 23500, Note_on_c, 3, 42, 0
7, 23738, Note_on_c, 3, 35, 79
7, 23833, Note_on_c, 3, 35, 0
7, 23966, Note_on_c, 3, 40, 83
7, 24487, Note_on_c, 3, 40, 0
7, 24681, Note_on_c, 3, 33, 68
7, 24770, Note_on_c, 3, 33, 0
7, 24907, Note_on_c, 3, 38, 85
7, 25402, Note_on_c, 3, 38, 0
7, 25652, Note_on_c, 3, 43, 84
7, 26062, Note_on_c, 3, 43, 0
7, 26129, Note_on_c, 3, 42, 86
7, 26202, Note_on_c, 3, 42, 0
7, 26229, Note_on_c, 3, 43, 72
7, 26348, Note_on_c, 3, 43, 0
7, 26370, Note_on_c, 3, 45, 90
7, 26548, Note_on_c, 3, 45, 0
7, 26608, Note_on_c, 3, 33, 86
7, 26709, Note_on_c, 3, 33, 0
7, 26861, Note_on_c, 3, 38, 90
7, 27375, Note_on_c, 3, 38, 0
7, 28059, Note_on_c, 3, 38, 84
7, 28298, Note_on_c, 3, 36, 74
7, 28327, Note_on_c, 3, 38, 0
7, 28419, Note_on_c, 3, 36, 0
7, 28540, Note_on_c, 3, 35, 87
7, 28657, Note_on_c, 3, 35, 0
7, 28777, Note_on_c, 3, 33, 72
7, 29300, Note_on_c, 3, 33, 0
7, 29993, Note_on_c, 3, 45, 76
7, 30228, Note_on_c, 3, 43, 74
7, 30257, Note_on_c, 3, 45, 0
7, 30355, Note_on_c, 3, 43, 0
7, 30462, Note_on_c, 3, 42, 89
7, 30561, Note_on_c, 3, 42, 0
7, 30691, Note_on_c, 3, 40, 76
7, 31221, Note_on_c, 3, 40, 0
7, 32850, Note_on_c, 3, 40, 84
7, 33091, Note_on_c, 3, 43, 83
7, 33113, Note_on_c, 3, 40, 0
7, 33185, Note_on_c, 3, 43, 0
7, 33327, Note_on_c, 3, 47, 91
7, 33450, Note_on_c, 3, 47, 0
7, 33563, Note_on_c, 3, 43, 84
7, 33755, Note_on_c, 3, 43, 0
7, 33790, Note_on_c, 3, 40, 85
7, 33921, Note_on_c, 3, 40, 0
7, 34030, Note_on_c, 3, 47, 93
7, 34255, Note_on_c, 3, 47, 0
7, 34776, Note_on_c, 3, 40, 82
7, 35000, Note_on_c, 3, 43, 83
7, 35022, Note_on_c, 3, 40, 0
7, 35097, Note_on_c, 3, 43, 0
7, 35251, Note_on_c, 3, 47, 87
7, 35352, Note_on_c, 3, 47, 0
7, 35499, Note_on_c, 3, 43, 81
7, 35642, Note_on_c, 3, 43, 0
7, 35739, Note_on_c, 3, 40, 72
7, 35857, Note_on_c, 3, 40, 0
7, 35971, Note_on_c, 3, 47, 94
7, 36155, Note_on_c, 3, 47, 0
7, 36212, Note_on_c, 3, 35, 88
7, 36316, Note_on_c, 3, 35, 0
7, 36465, Note_on_c, 3, 40, 80
7, 36966, Note_on_c, 3, 40, 0
7, 37176, Note_on_c, 3, 40, 82
7, 37300, Note_on_c, 3, 40, 0
7, 37424, Note_on_c, 3, 42, 92
7, 37940, Note_on_c, 3, 42, 0
7, 38138, Note_on_c, 3, 42, 88
7, 38221, Note_on_c, 3, 42, 0
7, 38376, Note_on_c, 3, 43, 80
7, 38872, Note_on_c, 3, 43, 0
7, 39094, Note_on_c, 3, 48, 85
7, 39189, Note_on_c, 3, 48, 0
7, 39330, Note_on_c, 3, 45, 86
7, 39529, Note_on_c, 3, 45, 0
7, 39589, Note_on_c, 3, 42, 89
7, 39717, Note_on_c, 3, 42, 0
7, 39801, Note_on_c, 3, 47, 90
7, 39985, Note_on_c, 3, 47, 0
7, 40045, Note_on_c, 3, 35, 84
7, 40222, Note_on_c, 3, 35, 0
7, 40271, Note_on_c, 3, 40, 79
7, 40386, Note_on_c, 3, 40, 0
7, 40515, Note_on_c, 3, 47, 87
7, 40661, Note_on_c, 3, 47, 0
7, 40748, Note_on_c, 3, 43, 80
7, 40941, Note_on_c, 3, 43, 0
7, 40986, Note_on_c, 3, 40, 79
7, 41088, Note_on_c, 3, 40, 0
7, 41223, Note_on_c, 3, 37, 90
7, 41356, Note_on_c, 3, 37, 0
7, 41482, Note_on_c, 3, 33, 72
7, 41644, Note_on_c, 3, 33, 0
7, 41715, Note_on_c, 3, 43, 83
7, 41972, Note_on_c, 3, 43, 0
7, 42197, Note_on_c, 3, 42, 89
7, 42582, Note_on_c, 3, 42, 0
7, 42704, Note_on_c, 3, 30, 87
7, 43446, Note_on_c, 3, 30, 0
7, 43662, Note_on_c, 3, 42, 93
7, 43917, Note_on_c, 3, 42, 0
7, 44148, Note_on_c, 3, 40, 77
7, 44453, Note_on_c, 3, 40, 0
7, 44630, Note_on_c, 3, 28, 79
7, 45348, Note_on_c, 3, 28, 0
7, 45569, Note_on_c, 3, 40, 79
7, 45886, Note_on_c, 3, 40, 0
7, 46055, Note_on_c, 3, 38, 80
7, 46414, Note_on_c, 3, 38, 0
7, 46521, Note_on_c, 3, 43, 86
7, 46899, Note_on_c, 3, 43, 0
7, 47009, Note_on_c, 3, 37, 88
7, 47389, Note_on_c, 3, 37, 0
7, 47496, Note_on_c, 3, 42, 89
7, 47845, Note_on_c, 3, 42, 0
7, 47972, Note_on_c, 3, 35, 82
7, 48308, Note_on_c, 3, 35, 0
7, 48462, Note_on_c, 3, 40, 74
7, 49075, Note_on_c, 3, 40, 0
7, 49162, Note_on_c, 3, 38, 85
7, 49270, Note_on_c, 3, 38, 0
7, 49276, Note_on_c, 3, 40, 78
7, 49355, Note_on_c, 3, 40, 0
7, 49425, Note_on_c, 3, 42, 97
7, 49627, Note_on_c, 3, 42, 0
7, 49657, Note_on_c, 3, 30, 92
7, 49772, Note_on_c, 3, 30, 0
7, 49894, Note_on_c, 3, 35, 91
7, 50400, Note_on_c, 3, 35, 0
7, 52064, Note_on_c, 3, 35, 83
7, 52285, Note_on_c, 3, 38, 86
7, 52299, Note_on_c, 3, 35, 0
7, 52378, Note_on_c, 3, 38, 0
7, 52521, Note_on_c, 3, 42, 89
7, 52641, Note_on_c, 3, 42, 0
7, 52761, Note_on_c, 3, 38, 81
7, 52899, Note_on_c, 3, 38, 0
7, 53003, Note_on_c, 3, 35, 78
7, 53163, Note_on_c, 3, 35, 0
7, 53241, Note_on_c, 3, 42, 89
7, 53433, Note_on_c, 3, 42, 0
7, 53969, Note_on_c, 3, 35, 77
7, 54198, Note_on_c, 3, 38, 79
7, 54218, Note_on_c, 3, 35, 0
7, 54312, Note_on_c, 3, 38, 0
7, 54455, Note_on_c, 3, 42, 86
7, 54588, Note_on_c, 3, 42, 0
7, 54701, Note_on_c, 3, 38, 72
7, 54886, Note_on_c, 3, 38, 0
7, 54943, Note_on_c, 3, 35, 74
7, 55060, Note_on_c, 3, 35, 0
7, 55178, Note_on_c, 3, 42, 84
7, 55319, Note_on_c, 3, 42, 0
7, 55421, Note_on_c, 3, 30, 91
7, 55539, Note_on_c, 3, 30, 0
7, 55669, Note_on_c, 3, 35, 87
7, 56157, Note_on_c, 3, 35, 0
7, 56383, Note_on_c, 3, 35, 84
7, 56514, Note_on_c, 3, 35, 0
7, 56628, Note_on_c, 3, 40, 80
7, 56868, Note_on_c, 3, 38, 78
7, 56896, Note_on_c, 3, 40, 0
7, 57093, Note_on_c, 3, 37, 90
7, 57100, Note_on_c, 3, 38, 0
7, 57248, Note_on_c, 3, 37, 0
7, 57336, Note_on_c, 3, 33, 76
7, 57493, Note_on_c, 3, 33, 0
7, 57598, Note_on_c, 3, 38, 87
7, 57835, Note_on_c, 3, 37, 87
7, 57858, Note_on_c, 3, 38, 0
7, 57999, Note_on_c, 3, 37, 0
7, 58097, Note_on_c, 3, 35, 83
7, 58195, Note_on_c, 3, 35, 0
7, 58325, Note_on_c, 3, 47, 79
7, 58328, Note_on_c, 3, 48, 74
7, 58388, Note_on_c, 3, 48, 0
7, 58410, Note_on_c, 3, 47, 0
7, 58535, Note_on_c, 3, 49, 88
7, 58774, Note_on_c, 3, 46, 87
7, 58790, Note_on_c, 3, 49, 0
7, 58881, Note_on_c, 3, 46, 0
7, 59026, Note_on_c, 3, 42, 83
7, 59149, Note_on_c, 3, 42, 0
7, 59267, Note_on_c, 3, 46, 89
7, 59354, Note_on_c, 3, 46, 0
7, 59495, Note_on_c, 3, 47, 90
7, 59692, Note_on_c, 3, 47, 0
7, 59743, Note_on_c, 3, 42, 89
7, 59828, Note_on_c, 3, 42, 0
7, 59990, Note_on_c, 3, 38, 79
7, 60107, Note_on_c, 3, 38, 0
7, 60213, Note_on_c, 3, 35, 79
7, 60361, Note_on_c, 3, 35, 0
7, 60476, Note_on_c, 3, 37, 90
7, 60702, Note_on_c, 3, 35, 84
7, 60709, Note_on_c, 3, 37, 0
7, 60814, Note_on_c, 3, 35, 0
7, 60945, Note_on_c, 3, 33, 78
7, 61087, Note_on_c, 3, 33, 0
7, 61193, Note_on_c, 3, 37, 89
7, 61295, Note_on_c, 3, 37, 0
7, 61442, Note_on_c, 3, 38, 85
7, 61685, Note_on_c, 3, 37, 84
7, 61715, Note_on_c, 3, 38, 0
7, 61822, Note_on_c, 3, 37, 0
7, 61910, Note_on_c, 3, 35, 79
7, 62057, Note_on_c, 3, 35, 0
7, 62159, Note_on_c, 3, 38, 83
7, 62278, Note_on_c, 3, 38, 0
7, 62403, Note_on_c, 3, 40, 83
7, 62621, Note_on_c, 3, 38, 81
7, 62650, Note_on_c, 3, 40, 0
7, 62725, Note_on_c, 3, 38, 0
7, 62856, Note_on_c, 3, 37, 83
7, 62985, Note_on_c, 3, 37, 0
7, 63086, Note_on_c, 3, 40, 68
7, 63208, Note_on_c, 3, 40, 0
7, 63345, Note_on_c, 3, 42, 84
7, 63583, Note_on_c, 3, 40, 71
7, 63607, Note_on_c, 3, 42, 0
7, 63702, Note_on_c, 3, 40, 0
7, 63815, Note_on_c, 3, 38, 72
7, 64007, Note_on_c, 3, 38, 0
7, 64039, Note_on_c, 3, 42, 86
7, 64148, Note_on_c, 3, 42, 0
7, 64272, Note_on_c, 3, 43, 60
7, 64495, Note_on_c, 3, 42, 82
7, 64520, Note_on_c, 3, 43, 0
7, 64647, Note_on_c, 3, 42, 0
7, 64734, Note_on_c, 3, 40, 66
7, 64896, Note_on_c, 3, 40, 0
7, 65000, Note_on_c, 3, 43, 76
7, 65131, Note_on_c, 3, 43, 0
7, 65247, Note_on_c, 3, 45, 83
7, 65502, Note_on_c, 3, 43, 74
7, 65518, Note_on_c, 3, 45, 0
7, 65617, Note_on_c, 3, 43, 0
7, 65739, Note_on_c, 3, 42, 88
7, 65884, Note_on_c, 3, 42, 0
7, 65957, Note_on_c, 3, 40, 67
7, 66081, Note_on_c, 3, 40, 0
7, 66194, Note_on_c, 3, 38, 79
7, 66429, Note_on_c, 3, 37, 85
7, 66447, Note_on_c, 3, 38, 0
7, 66564, Note_on_c, 3, 37, 0
7, 66686, Note_on_c, 3, 35, 80
7, 66817, Note_on_c, 3, 35, 0
7, 66923, Note_on_c, 3, 33, 70
7, 67055, Note_on_c, 3, 33, 0
7, 67162, Note_on_c, 3, 31, 58
7, 67390, Note_on_c, 3, 30, 87
7, 67426, Note_on_c, 3, 31, 0
7, 67495, Note_on_c, 3, 30, 0
7, 67643, Note_on_c, 3, 28, 65
7, 67800, Note_on_c, 3, 28, 0
7, 67896, Note_on_c, 3, 31, 75
7, 68021, Note_on_c, 3, 31, 0
7, 68117, Note_on_c, 3, 33, 81
7, 68363, Note_on_c, 3, 31, 77
7, 68388, Note_on_c, 3, 33, 0
7, 68473, Note_on_c, 3, 31, 0
7, 68598, Note_on_c, 3, 30, 87
7, 68724, Note_on_c, 3, 30, 0
7, 68818, Note_on_c, 3, 33, 59
7, 68906, Note_on_c, 3, 33, 0
7, 69052, Note_on_c, 3, 35, 62
7, 69262, Note_on_c, 3, 35, 0
7, 69319, Note_on_c, 3, 38, 76
7, 69566, Note_on_c, 3, 40, 75
7, 69569, Note_on_c, 3, 38, 0
7, 69727, Note_on_c, 3, 40, 0
7, 69818, Note_on_c, 3, 42, 83
7, 69935, Note_on_c, 3, 42, 0
7, 70049, Note_on_c, 3, 43, 77
7, 70287, Note_on_c, 3, 42, 83
7, 70311, Note_on_c, 3, 43, 0
7, 70401, Note_on_c, 3, 42, 0
7, 70504, Note_on_c, 3, 43, 77
7, 70741, Note_on_c, 3, 45, 73
7, 70754, Note_on_c, 3, 43, 0
7, 70944, Note_on_c, 3, 45, 0
7, 70997, Note_on_c, 3, 47, 79
7, 71222, Note_on_c, 3, 47, 0
7, 71237, Note_on_c, 3, 42, 83
7, 71457, Note_on_c, 3, 43, 80
7, 71489, Note_on_c, 3, 42, 0
7, 71601, Note_on_c, 3, 43, 0
7, 71707, Note_on_c, 3, 45, 79
7, 71841, Note_on_c, 3, 45, 0
7, 71923, Note_on_c, 3, 47, 92
7, 72168, Note_on_c, 3, 43, 75
7, 72191, Note_on_c, 3, 47, 0
7, 72261, Note_on_c, 3, 43, 0
7, 72402, Note_on_c, 3, 45, 62
7, 72670, Note_on_c, 3, 45, 0
7, 72700, Note_on_c, 3, 33, 75
7, 72836, Note_on_c, 3, 33, 0
7, 72921, Note_on_c, 3, 38, 65
7, 73441, Note_on_c, 3, 38, 0
7, 75114, Note_on_c, 3, 50, 85
7, 75263, Note_on_c, 3, 50, 0
7, 75338, Note_on_c, 3, 48, 86
7, 75502, Note_on_c, 3, 48, 0
7, 75565, Note_on_c, 3, 47, 86
7, 75688, Note_on_c, 3, 47, 0
7, 75795, Note_on_c, 3, 45, 72
7, 76031, Note_on_c, 3, 43, 78
7, 76033, Note_on_c, 3, 45, 0
7, 76256, Note_on_c, 3, 42, 91
7, 76280, Note_on_c, 3, 43, 0
7, 76382, Note_on_c, 3, 42, 0
7, 76510, Note_on_c, 3, 38, 76
7, 76633, Note_on_c, 3, 38, 0
7, 76743, Note_on_c, 3, 43, 79
7, 77267, Note_on_c, 3, 43, 0
7, 78959, Note_on_c, 3, 43, 86
7, 79186, Note_on_c, 3, 43, 0
7, 79193, Note_on_c, 3, 41, 79
7, 79320, Note_on_c, 3, 41, 0
7, 79432, Note_on_c, 3, 40, 80
7, 79565, Note_on_c, 3, 40, 0
7, 79677, Note_on_c, 3, 38, 78
7, 79892, Note_on_c, 3, 36, 68
7, 79894, Note_on_c, 3, 38, 0
7, 80097, Note_on_c, 3, 36, 0
7, 80131, Note_on_c, 3, 35, 85
7, 80261, Note_on_c, 3, 35, 0
7, 80372, Note_on_c, 3, 31, 84
7, 80520, Note_on_c, 3, 31, 0
7, 80587, Note_on_c, 3, 36, 79
7, 80698, Note_on_c, 3, 36, 0
7, 80846, Note_on_c, 3, 36, 79
7, 81069, Note_on_c, 3, 40, 80
7, 81090, Note_on_c, 3, 36, 0
7, 81185, Note_on_c, 3, 40, 0
7, 81311, Note_on_c, 3, 43, 79
7, 81452, Note_on_c, 3, 43, 0
7, 81560, Note_on_c, 3, 40, 72
7, 81717, Note_on_c, 3, 40, 0
7, 81791, Note_on_c, 3, 36, 76
7, 81931, Note_on_c, 3, 36, 0
7, 82025, Note_on_c, 3, 43, 80
7, 82257, Note_on_c, 3, 43, 0
7, 82780, Note_on_c, 3, 36, 76
7, 83011, Note_on_c, 3, 40, 79
7, 83035, Note_on_c, 3, 36, 0
7, 83129, Note_on_c, 3, 40, 0
7, 83262, Note_on_c, 3, 43, 83
7, 83419, Note_on_c, 3, 43, 0
7, 83494, Note_on_c, 3, 40, 78
7, 83640, Note_on_c, 3, 40, 0
7, 83748, Note_on_c, 3, 36, 79
7, 83883, Note_on_c, 3, 36, 0
7, 83967, Note_on_c, 3, 43, 81
7, 84122, Note_on_c, 3, 43, 0
7, 84200, Note_on_c, 3, 31, 85
7, 84329, Note_on_c, 3, 31, 0
7, 84449, Note_on_c, 3, 36, 80
7, 84949, Note_on_c, 3, 36, 0
7, 85173, Note_on_c, 3, 48, 81
7, 85289, Note_on_c, 3, 48, 0
7, 85426, Note_on_c, 3, 47, 86
7, 85911, Note_on_c, 3, 47, 0
7, 86112, Note_on_c, 3, 40, 70
7, 86235, Note_on_c, 3, 40, 0
7, 86351, Note_on_c, 3, 45, 83
7, 86831, Note_on_c, 3, 45, 0
7, 87089, Note_on_c, 3, 38, 83
7, 87200, Note_on_c, 3, 38, 0
7, 87330, Note_on_c, 3, 43, 82
7, 87360, Control_c, 3, 7, 108
7, 87360, Control_c, 3, 10, 86
7, 87837, Note_on_c, 3, 43, 0
7, 88049, Note_on_c, 3, 43, 83
7, 88160, Note_on_c, 3, 43, 0
7, 88293, Note_on_c, 3, 42, 89
7, 88774, Note_on_c, 3, 42, 0
7, 88998, Note_on_c, 3, 47, 90
7, 89099, Note_on_c, 3, 47, 0
7, 89250, Note_on_c, 3, 40, 77
7, 89780, Note_on_c, 3, 40, 0
7, 89966, Note_on_c, 3, 45, 84
7, 90053, Note_on_c, 3, 45, 0
7, 90206, Note_on_c, 3, 38, 83
7, 90695, Note_on_c, 3, 38, 0
7, 91153, Note_on_c, 3, 33, 79
7, 91694, Note_on_c, 3, 33, 0
7, 92127, Note_on_c, 3, 40, 76
7, 92655, Note_on_c, 3, 40, 0
7, 93085, Note_on_c, 3, 35, 87
7, 93581, Note_on_c, 3, 35, 0
7, 93809, Note_on_c, 3, 40, 80
7, 93927, Note_on_c, 3, 40, 0
7, 94056, Note_on_c, 3, 45, 79
7, 94537, Note_on_c, 3, 45, 0
7, 94777, Note_on_c, 3, 38, 84
7, 94869, Note_on_c, 3, 38, 0
7, 95002, Note_on_c, 3, 43, 79
7, 95307, Note_on_c, 3, 43, 0
7, 95492, Note_on_c, 3, 36, 74
7, 95853, Note_on_c, 3, 36, 0
7, 95979, Note_on_c, 3, 38, 84
7, 96221, Note_on_c, 3, 31, 76
7, 96223, Note_on_c, 3, 38, 0
7, 96345, Note_on_c, 3, 31, 0
7, 96472, Note_on_c, 3, 38, 82
7, 96672, Note_on_c, 3, 38, 0
7, 96695, Note_on_c, 3, 26, 83
7, 96807, Note_on_c, 3, 26, 0
7, 96996, Note_on_c, 3, 31, 86
7, 97547, Note_on_c, 3, 31, 0
7, 98858, Note_on_c, 3, 31, 86
7, 99778, Note_on_c, 3, 35, 90
7, 99790, Note_on_c, 3, 31, 0
7, 100272, Note_on_c, 3, 38, 86
7, 100280, Note_on_c, 3, 35, 0
7, 100746, Note_on_c, 3, 35, 88
7, 100756, Note_on_c, 3, 38, 0
7, 101478, Note_on_c, 3, 33, 83
7, 101492, Note_on_c, 3, 35, 0
7, 101707, Note_on_c, 3, 35, 88
7, 101729, Note_on_c, 3, 33, 0
7, 102159, Note_on_c, 3, 37, 87
7, 102176, Note_on_c, 3, 35, 0
7, 102659, Note_on_c, 3, 38, 87
7, 102675, Note_on_c, 3, 37, 0
7, 104664, Note_on_c, 3, 38, 0
7, 106529, Note_on_c, 3, 40, 89
7, 107509, Note_on_c, 3, 38, 86
7, 107519, Note_on_c, 3, 40, 0
7, 107741, Note_on_c, 3, 36, 79
7, 107750, Note_on_c, 3, 38, 0
7, 107967, Note_on_c, 3, 36, 0
7, 107968, Note_on_c, 3, 35, 83
7, 108064, Note_on_c, 3, 33, 32
7, 108082, Note_on_c, 3, 33, 0
7, 108441, Note_on_c, 3, 33, 88
7, 108460, Note_on_c, 3, 35, 0
7, 108896, Note_on_c, 3, 31, 89
7, 108912, Note_on_c, 3, 33, 0
7, 109875, Note_on_c, 3, 30, 93
7, 109898, Note_on_c, 3, 31, 0
7, 110411, Note_on_c, 3, 31, 85
7, 110413, Note_on_c, 3, 30, 0
7, 112310, Note_on_c, 3, 31, 0
7, 118029, Note_on_c, 3, 33, 90
7, 118831, Note_on_c, 3, 33, 0
7, 119011, Note_on_c, 3, 35, 85
7, 119347, Note_on_c, 3, 35, 0
7, 119492, Note_on_c, 3, 35, 90
7, 119820, Note_on_c, 3, 35, 0
7, 119983, Note_on_c, 3, 33, 85
7, 120338, Note_on_c, 3, 33, 0
7, 120466, Note_on_c, 3, 38, 82
7, 120863, Note_on_c, 3, 38, 0
7, 120940, Note_on_c, 3, 38, 93
7, 121399, Note_on_c, 3, 37, 86
7, 121420, Note_on_c, 3, 38, 0
7, 121817, Note_on_c, 3, 37, 0
7, 121850, Note_on_c, 3, 38, 84
7, 123824, Note_on_c, 3, 38, 0
7, 127652, Note_on_c, 3, 35, 92
7, 128593, Note_on_c, 3, 35, 0
7, 128597, Note_on_c, 3, 36, 86
7, 129098, Note_on_c, 3, 35, 85
7, 129112, Note_on_c, 3, 36, 0
7, 129562, Note_on_c, 3, 33, 86
7, 129577, Note_on_c, 3, 35, 0
7, 130043, Note_on_c, 3, 31, 78
7, 130049, Note_on_c, 3, 33, 0
7, 131037, Note_on_c, 3, 30, 93
7, 131055, Note_on_c, 3, 31, 0
7, 131460, Note_on_c, 3, 30, 0
7, 131493, Note_on_c, 3, 31, 79
7, 134471, Note_on_c, 3, 31, 0
7, 134622, Note_on_c, 3, 29, 77
7, 134866, Note_on_c, 3, 29, 0
7, 134871, Note_on_c, 3, 28, 76
7, 135002, Note_on_c, 3, 28, 0
7, 135082, Note_on_c, 3, 26, 84
7, 135216, Note_on_c, 3, 26, 0
7, 135324, Note_on_c, 3, 24, 79
7, 135587, Note_on_c, 3, 36, 58
7, 135615, Note_on_c, 3, 24, 0
7, 135820, Note_on_c, 3, 40, 76
7, 135826, Note_on_c, 3, 36, 0
7, 135948, Note_on_c, 3, 40, 0
7, 136047, Note_on_c, 3, 43, 78
7, 136186, Note_on_c, 3, 43, 0
7, 136284, Note_on_c, 3, 40, 70
7, 136420, Note_on_c, 3, 40, 0
7, 136515, Note_on_c, 3, 36, 77
7, 136676, Note_on_c, 3, 36, 0
7, 136769, Note_on_c, 3, 43, 82
7, 137114, Note_on_c, 3, 43, 0
7, 137492, Note_on_c, 3, 36, 76
7, 137701, Note_on_c, 3, 36, 0
7, 137732, Note_on_c, 3, 40, 83
7, 137855, Note_on_c, 3, 40, 0
7, 137972, Note_on_c, 3, 43, 79
7, 138098, Note_on_c, 3, 43, 0
7, 138214, Note_on_c, 3, 40, 73
7, 138334, Note_on_c, 3, 40, 0
7, 138454, Note_on_c, 3, 36, 80
7, 138595, Note_on_c, 3, 36, 0
7, 138714, Note_on_c, 3, 43, 86
7, 139093, Note_on_c, 3, 43, 0
7, 139280, Note_on_c, 3, 31, 83
7, 140244, Note_on_c, 3, 31, 0
7, 140244, End_track
8, 0, Start_track
8, 0, MIDI_port, 0
8, 0, End_track
9, 0, Start_track
9, 0, Title_t, "Herr Jesu Christ, dich zu uns wend"
9, 0, MIDI_port, 0
9, 0, End_track
10, 0, Start_track
10, 0, Title_t, "By J S Bach (BWV 656)"
10, 0, MIDI_port, 0
10, 0, End_track
11, 0, Start_track
11, 0, MIDI_port, 0
11, 0, End_track
12, 0, Start_track
12, 0, Title_t, "Sequenced using WinJammer Professional"
12, 0, MIDI_port, 0
12, 0, End_track
13, 0, Start_track
13, 0, Title_t, "on Windows NT by Martin Robinson."
13, 0, MIDI_port, 0
13, 0, End_track
14, 0, Start_track
14, 0, Title_t, "(c) Martin Robinson 1997"
14, 0, MIDI_port, 0
14, 0, End_track
0, 0, End_of_file
