0, 0, Header, 1, 6, 192
1, 0, Start_track
1, 0, Title_t, "Heut Triumpieret Gottes Sohn - BWV 630 "
1, 0, Title_t, "JS Bach -  Orgelbuchlein"
1, 0, Copyright_t, "Copyright © 1997 by Richard Jordan"
1, 0, Text_t, "Richard Jordan - rjordan@earthlink.net"
1, 0, Sequencer_specific, 3, 0, 0, 65
1, 0, MIDI_port, 0
1, 0, System_exclusive, 10, 65, 16, 66, 18, 64, 0, 127, 0, 65, 247
1, 0, System_exclusive, 10, 65, 16, 66, 18, 64, 65, 1, 1, 125, 247
1, 0, System_exclusive, 10, 65, 16, 66, 18, 64, 66, 1, 1, 124, 247
1, 0, System_exclusive, 10, 65, 16, 66, 18, 64, 67, 1, 1, 123, 247
1, 0, System_exclusive, 10, 65, 16, 66, 18, 64, 68, 1, 1, 122, 247
1, 0, System_exclusive, 10, 65, 16, 66, 18, 64, 69, 1, 1, 121, 247
1, 0, System_exclusive, 10, 65, 16, 66, 18, 64, 70, 1, 1, 120, 247
1, 0, System_exclusive, 10, 65, 16, 66, 18, 64, 71, 1, 1, 119, 247
1, 0, System_exclusive, 10, 65, 16, 66, 18, 64, 72, 1, 1, 118, 247
1, 0, System_exclusive, 10, 65, 16, 66, 18, 64, 73, 1, 1, 117, 247
1, 0, System_exclusive, 10, 65, 16, 66, 18, 64, 64, 1, 1, 126, 247
1, 0, System_exclusive, 10, 65, 16, 66, 18, 64, 74, 1, 1, 116, 247
1, 0, System_exclusive, 10, 65, 16, 66, 18, 64, 75, 1, 1, 115, 247
1, 0, System_exclusive, 10, 65, 16, 66, 18, 64, 76, 1, 1, 114, 247
1, 0, System_exclusive, 10, 65, 16, 66, 18, 64, 77, 1, 1, 113, 247
1, 0, System_exclusive, 10, 65, 16, 66, 18, 64, 78, 1, 1, 112, 247
1, 0, System_exclusive, 10, 65, 16, 66, 18, 64, 79, 1, 1, 111, 247
1, 0, System_exclusive, 137, 65, 16, 66, 18, 72, 0, 0, 0, 4, 0, 0, 7, 15, 0, 0, 4, 2, 4, 0, 4, 0, 0, 0, 2, 13, 2, 0, 5, 3, 4, 15, 5, 5, 4, 14, 4, 4, 2, 0, 4, 3, 6, 1, 6, 14, 7, 6, 6, 1, 7, 3, 2, 0, 2, 13, 0, 2, 0, 6, 0, 2, 0, 2, 0, 2, 0, 2, 0, 2, 0, 2, 0, 2, 0, 2, 0, 0, 0, 0, 0, 0, 0, 0, 0, 0, 0, 0, 0, 0, 0, 0, 0, 3, 0, 3, 0, 0, 4, 11, 5, 5, 0, 0, 0, 0, 0, 0, 0, 6, 0, 0, 4, 0, 0, 0, 7, 15, 0, 0, 7, 15, 0, 0, 0, 0, 0, 0, 0, 0, 6, 1, 0, 1, 0, 1, 119, 247
1, 0, System_exclusive, 10, 65, 16, 66, 18, 64, 16, 21, 0, 27, 247
1, 0, System_exclusive, 10, 65, 16, 66, 18, 64, 16, 21, 0, 27, 247
1, 0, System_exclusive, 10, 65, 16, 66, 18, 64, 17, 2, 16, 29, 247
1, 0, System_exclusive, 10, 65, 16, 66, 18, 64, 18, 2, 16, 28, 247
1, 0, System_exclusive, 10, 65, 16, 66, 18, 64, 19, 2, 16, 27, 247
1, 0, System_exclusive, 10, 65, 16, 66, 18, 64, 20, 2, 16, 26, 247
1, 0, System_exclusive, 10, 65, 16, 66, 18, 64, 21, 2, 16, 25, 247
1, 0, System_exclusive, 10, 65, 16, 66, 18, 64, 22, 2, 16, 24, 247
1, 0, System_exclusive, 10, 65, 16, 66, 18, 64, 23, 2, 16, 23, 247
1, 0, System_exclusive, 10, 65, 16, 66, 18, 64, 24, 2, 16, 22, 247
1, 0, System_exclusive, 10, 65, 16, 66, 18, 64, 25, 2, 16, 21, 247
1, 0, System_exclusive, 10, 65, 16, 66, 18, 64, 16, 2, 16, 30, 247
1, 0, System_exclusive, 10, 65, 16, 66, 18, 64, 26, 2, 16, 20, 247
1, 0, System_exclusive, 10, 65, 16, 66, 18, 64, 27, 2, 16, 19, 247
1, 0, System_exclusive, 10, 65, 16, 66, 18, 64, 28, 2, 16, 18, 247
1, 0, System_exclusive, 10, 65, 16, 66, 18, 64, 29, 2, 16, 17, 247
1, 0, System_exclusive, 10, 65, 16, 66, 18, 64, 30, 2, 16, 16, 247
1, 0, System_exclusive, 10, 65, 16, 66, 18, 64, 31, 2, 16, 15, 247
1, 0, MIDI_port, 0
1, 0, Time_signature, 4, 2, 24, 8
1, 0, Key_signature, 0, "major"
1, 0, Tempo, 800000
1, 0, Marker_t, "Sysex by ""The Canvas Pipe Organ Project"" - rdiodati@sabinanet.it"
1, 0, Marker_t, "Heut Triumpieret Gottes Sohn - BWV 630 - seq by Richard Jordan"
1, 0, End_track
2, 0, Start_track
2, 0, MIDI_port, 0
2, 0, Title_t, "Grand'Organo"
2, 63, MIDI_port, 0
2, 63, System_exclusive, 137, 65, 16, 66, 18, 72, 2, 112, 7, 15, 4, 13, 15, 15, 15, 3, 0, 0, 8, 1, 3, 4, 8, 0, 6, 4, 4, 0, 0, 0, 6, 14, 0, 0, 7, 15, 0, 0, 6, 4, 4, 0, 2, 12, 4, 0, 4, 0, 4, 0, 4, 0, 4, 0, 4, 0, 0, 0, 0, 0, 4, 0, 4, 0, 4, 0, 4, 0, 4, 0, 4, 0, 4, 0, 4, 0, 4, 0, 4, 0, 4, 0, 4, 0, 1, 0, 1, 1, 4, 0, 4, 0, 4, 0, 0, 0, 4, 0, 0, 10, 0, 0, 0, 0, 4, 0, 0, 0, 0, 0, 0, 0, 4, 2, 4, 0, 4, 0, 0, 0, 4, 0, 0, 0, 0, 0, 0, 0, 4, 0, 0, 0, 0, 0, 0, 0, 4, 247
2, 63, System_exclusive, 137, 65, 16, 66, 18, 72, 4, 80, 0, 0, 4, 14, 15, 15, 15, 3, 0, 1, 8, 1, 3, 4, 8, 0, 4, 6, 4, 0, 0, 0, 6, 14, 0, 0, 7, 15, 0, 3, 5, 10, 4, 0, 2, 12, 3, 10, 3, 11, 4, 0, 4, 0, 4, 0, 4, 0, 0, 0, 0, 0, 4, 0, 4, 0, 4, 0, 4, 0, 4, 0, 4, 0, 4, 0, 4, 0, 4, 0, 4, 0, 4, 0, 4, 0, 1, 0, 1, 1, 4, 0, 4, 0, 4, 0, 0, 0, 4, 0, 0, 10, 0, 0, 0, 0, 4, 0, 0, 0, 0, 0, 0, 0, 4, 2, 4, 0, 4, 0, 0, 0, 4, 0, 0, 0, 0, 0, 0, 0, 4, 0, 0, 0, 0, 0, 0, 0, 27, 247
2, 63, System_exclusive, 137, 65, 16, 66, 18, 72, 6, 48, 0, 0, 1, 3, 15, 15, 15, 3, 0, 2, 8, 1, 3, 4, 8, 0, 5, 5, 4, 0, 0, 0, 6, 14, 0, 0, 7, 15, 0, 0, 6, 4, 4, 0, 2, 12, 4, 0, 4, 0, 4, 2, 4, 0, 4, 0, 4, 0, 0, 0, 0, 0, 4, 0, 4, 0, 4, 0, 4, 0, 4, 0, 4, 0, 4, 0, 4, 0, 4, 0, 4, 0, 4, 0, 4, 0, 1, 0, 1, 1, 4, 0, 4, 0, 4, 0, 0, 0, 4, 0, 0, 10, 0, 0, 0, 0, 4, 0, 0, 0, 0, 0, 0, 0, 4, 2, 4, 0, 4, 0, 0, 0, 4, 0, 0, 0, 0, 0, 0, 0, 4, 0, 0, 0, 0, 0, 0, 0, 95, 247
2, 63, System_exclusive, 137, 65, 16, 66, 18, 72, 8, 16, 0, 0, 4, 8, 15, 15, 15, 3, 0, 3, 8, 1, 4, 12, 7, 13, 5, 0, 5, 4, 0, 0, 7, 3, 0, 0, 7, 15, 0, 0, 6, 14, 4, 0, 2, 12, 4, 5, 4, 0, 3, 11, 4, 0, 4, 0, 4, 0, 0, 0, 0, 0, 4, 0, 4, 0, 4, 0, 4, 0, 4, 0, 4, 3, 4, 3, 4, 3, 4, 0, 4, 0, 4, 0, 3, 15, 1, 0, 1, 1, 4, 0, 4, 0, 4, 0, 0, 0, 4, 0, 0, 10, 0, 0, 0, 0, 4, 0, 0, 0, 0, 0, 0, 0, 4, 2, 4, 0, 4, 0, 0, 0, 4, 0, 0, 0, 0, 0, 0, 0, 4, 0, 0, 0, 0, 0, 0, 0, 59, 247
2, 63, System_exclusive, 137, 65, 16, 66, 18, 72, 9, 112, 7, 15, 4, 11, 15, 15, 15, 3, 0, 4, 8, 1, 5, 3, 8, 2, 5, 2, 2, 12, 0, 0, 7, 3, 0, 0, 7, 15, 0, 0, 6, 4, 4, 0, 2, 12, 4, 8, 4, 0, 3, 9, 4, 0, 4, 0, 4, 0, 0, 0, 0, 0, 4, 0, 4, 0, 4, 0, 4, 0, 4, 0, 4, 0, 4, 0, 4, 0, 4, 0, 4, 0, 4, 0, 4, 0, 1, 0, 1, 1, 4, 0, 4, 0, 4, 0, 0, 0, 4, 0, 0, 10, 0, 0, 0, 0, 4, 0, 0, 0, 0, 0, 0, 0, 4, 2, 4, 0, 4, 0, 0, 0, 4, 0, 0, 0, 0, 0, 0, 0, 4, 0, 0, 0, 0, 0, 0, 0, 107, 247
2, 63, System_exclusive, 10, 65, 16, 66, 18, 64, 17, 2, 0, 45, 247
2, 63, System_exclusive, 10, 65, 16, 66, 18, 64, 18, 2, 0, 44, 247
2, 63, System_exclusive, 10, 65, 16, 66, 18, 64, 19, 2, 0, 43, 247
2, 63, System_exclusive, 10, 65, 16, 66, 18, 64, 20, 2, 0, 42, 247
2, 63, System_exclusive, 10, 65, 16, 66, 18, 64, 21, 2, 0, 41, 247
2, 63, System_exclusive, 10, 65, 16, 66, 18, 64, 22, 2, 16, 24, 247
2, 63, MIDI_port, 0
2, 318, MIDI_port, 0
2, 318, System_exclusive, 137, 65, 16, 66, 18, 72, 13, 48, 0, 0, 4, 9, 15, 15, 15, 3, 0, 6, 8, 1, 3, 4, 8, 1, 6, 4, 4, 15, 0, 0, 6, 4, 0, 0, 7, 15, 0, 0, 6, 4, 4, 0, 2, 12, 4, 5, 4, 0, 3, 7, 4, 0, 4, 0, 4, 0, 0, 0, 0, 0, 4, 0, 4, 0, 4, 0, 4, 0, 4, 0, 4, 0, 4, 0, 4, 0, 4, 0, 4, 0, 4, 0, 4, 0, 1, 0, 1, 1, 4, 0, 4, 0, 4, 0, 0, 0, 4, 0, 0, 10, 0, 0, 0, 0, 4, 0, 0, 0, 0, 0, 0, 0, 4, 2, 4, 0, 4, 0, 0, 0, 4, 0, 0, 0, 0, 0, 0, 0, 4, 0, 0, 0, 0, 0, 0, 0, 60, 247
2, 318, System_exclusive, 137, 65, 16, 66, 18, 72, 15, 16, 7, 15, 4, 13, 15, 15, 15, 3, 0, 7, 8, 1, 4, 12, 7, 15, 6, 4, 3, 1, 0, 0, 6, 4, 0, 0, 7, 15, 0, 0, 6, 4, 4, 0, 2, 12, 4, 0, 2, 12, 3, 13, 4, 0, 4, 0, 4, 0, 0, 0, 0, 0, 4, 0, 4, 0, 4, 0, 4, 0, 4, 0, 4, 0, 4, 0, 4, 0, 4, 0, 4, 0, 4, 0, 4, 0, 1, 0, 1, 1, 4, 0, 4, 0, 4, 0, 0, 0, 4, 0, 0, 10, 0, 0, 0, 0, 4, 0, 0, 0, 0, 0, 0, 0, 4, 2, 4, 0, 4, 0, 0, 0, 4, 0, 0, 0, 0, 0, 0, 0, 4, 0, 0, 0, 0, 0, 0, 0, 45, 247
2, 318, System_exclusive, 137, 65, 16, 66, 18, 72, 16, 112, 7, 15, 4, 11, 15, 15, 15, 3, 0, 8, 8, 1, 5, 8, 8, 0, 6, 4, 4, 0, 0, 0, 6, 4, 0, 0, 7, 15, 0, 0, 6, 9, 4, 0, 2, 12, 4, 5, 2, 2, 4, 5, 4, 0, 4, 0, 4, 0, 0, 0, 0, 0, 4, 0, 3, 11, 3, 12, 3, 12, 4, 0, 4, 0, 4, 1, 4, 1, 4, 2, 4, 7, 4, 6, 4, 5, 1, 0, 1, 1, 4, 0, 4, 0, 4, 0, 0, 0, 4, 0, 0, 10, 0, 0, 0, 0, 4, 0, 0, 0, 0, 0, 0, 0, 4, 0, 4, 0, 4, 0, 0, 0, 4, 0, 0, 0, 0, 0, 0, 0, 4, 0, 0, 0, 0, 0, 0, 0, 49, 247
2, 318, System_exclusive, 10, 65, 16, 66, 18, 64, 23, 2, 1, 38, 247
2, 318, System_exclusive, 10, 65, 16, 66, 18, 64, 24, 2, 1, 37, 247
2, 318, System_exclusive, 10, 65, 16, 66, 18, 64, 25, 2, 1, 36, 247
2, 318, System_exclusive, 10, 65, 16, 66, 18, 64, 16, 2, 16, 30, 247
2, 318, System_exclusive, 10, 65, 16, 66, 18, 64, 26, 2, 16, 20, 247
2, 318, MIDI_port, 0
2, 575, MIDI_port, 0
2, 575, System_exclusive, 137, 65, 16, 66, 18, 72, 20, 48, 0, 0, 4, 9, 15, 15, 15, 3, 0, 11, 8, 1, 3, 4, 8, 2, 5, 15, 4, 0, 0, 0, 7, 13, 0, 0, 3, 12, 0, 0, 5, 10, 4, 0, 2, 12, 4, 5, 4, 0, 2, 2, 4, 0, 4, 0, 4, 0, 0, 0, 0, 0, 4, 0, 4, 0, 4, 0, 4, 0, 4, 0, 4, 0, 4, 0, 4, 0, 4, 0, 4, 0, 4, 0, 4, 0, 1, 0, 1, 1, 4, 0, 4, 0, 4, 0, 0, 0, 4, 0, 0, 10, 0, 0, 0, 0, 4, 0, 0, 0, 0, 0, 0, 0, 4, 2, 4, 0, 4, 0, 0, 0, 4, 0, 0, 0, 0, 0, 0, 0, 4, 0, 0, 0, 0, 0, 0, 0, 50, 247
2, 575, System_exclusive, 137, 65, 16, 66, 18, 72, 22, 16, 0, 0, 4, 9, 15, 15, 15, 3, 0, 12, 8, 1, 4, 0, 7, 14, 5, 10, 1, 12, 0, 0, 7, 8, 0, 0, 3, 12, 0, 0, 5, 10, 4, 0, 2, 12, 4, 0, 3, 11, 3, 6, 4, 0, 4, 0, 4, 0, 0, 0, 0, 0, 4, 0, 4, 0, 4, 0, 4, 0, 4, 0, 4, 0, 4, 0, 4, 0, 4, 0, 4, 0, 4, 0, 4, 0, 1, 0, 1, 1, 4, 0, 4, 0, 4, 0, 0, 0, 4, 0, 0, 10, 0, 0, 0, 0, 4, 0, 0, 0, 0, 0, 0, 0, 4, 2, 4, 0, 4, 0, 0, 0, 4, 0, 0, 0, 0, 0, 0, 0, 4, 0, 0, 0, 0, 0, 0, 0, 62, 247
2, 575, System_exclusive, 137, 65, 16, 66, 18, 72, 23, 112, 0, 8, 5, 0, 15, 15, 15, 3, 0, 13, 8, 1, 3, 4, 8, 0, 4, 4, 4, 0, 0, 0, 7, 13, 0, 0, 3, 12, 0, 0, 5, 10, 4, 0, 2, 12, 4, 0, 5, 9, 4, 0, 4, 0, 4, 0, 4, 0, 0, 0, 0, 0, 4, 0, 4, 0, 4, 0, 4, 0, 4, 0, 4, 0, 4, 0, 4, 0, 4, 0, 4, 0, 4, 0, 4, 0, 1, 0, 1, 1, 4, 0, 4, 0, 4, 0, 0, 0, 4, 0, 0, 10, 0, 0, 0, 0, 4, 0, 0, 0, 0, 0, 0, 0, 4, 2, 4, 0, 4, 0, 0, 0, 4, 0, 0, 0, 0, 0, 0, 0, 4, 0, 0, 0, 0, 0, 0, 0, 118, 247
2, 575, System_exclusive, 137, 65, 16, 66, 18, 72, 25, 80, 7, 15, 4, 11, 15, 15, 15, 3, 0, 14, 8, 1, 4, 0, 8, 2, 6, 4, 6, 4, 0, 0, 7, 13, 0, 0, 3, 12, 0, 0, 5, 10, 4, 0, 2, 12, 4, 5, 4, 10, 3, 6, 4, 0, 4, 0, 4, 0, 0, 0, 0, 0, 4, 0, 4, 0, 3, 14, 3, 12, 3, 15, 3, 14, 4, 0, 4, 0, 4, 4, 4, 3, 4, 4, 4, 0, 1, 0, 1, 1, 4, 0, 4, 0, 4, 0, 0, 0, 4, 0, 0, 10, 0, 0, 0, 0, 4, 0, 0, 0, 0, 0, 0, 0, 4, 2, 4, 0, 4, 0, 0, 0, 4, 0, 0, 0, 0, 0, 0, 0, 4, 0, 0, 0, 0, 0, 0, 0, 44, 247
2, 575, System_exclusive, 137, 65, 16, 66, 18, 72, 27, 48, 7, 15, 4, 8, 15, 15, 15, 3, 0, 15, 8, 1, 4, 0, 7, 14, 5, 15, 4, 0, 0, 0, 7, 8, 0, 0, 3, 12, 0, 0, 5, 10, 4, 0, 2, 12, 4, 0, 3, 6, 3, 6, 4, 0, 4, 0, 4, 0, 0, 0, 0, 0, 4, 0, 4, 0, 3, 14, 3, 12, 3, 14, 3, 15, 4, 2, 4, 4, 4, 3, 4, 0, 4, 0, 4, 0, 1, 0, 1, 1, 4, 0, 4, 0, 4, 0, 0, 0, 4, 0, 0, 10, 0, 0, 0, 0, 4, 0, 0, 0, 0, 0, 0, 0, 4, 2, 4, 0, 4, 0, 0, 0, 4, 0, 0, 0, 0, 0, 0, 0, 4, 0, 0, 0, 0, 0, 0, 0, 78, 247
2, 575, System_exclusive, 10, 65, 16, 66, 18, 64, 27, 2, 2, 33, 247
2, 575, System_exclusive, 10, 65, 16, 66, 18, 64, 28, 2, 2, 32, 247
2, 575, System_exclusive, 10, 65, 16, 66, 18, 64, 29, 2, 2, 31, 247
2, 575, System_exclusive, 10, 65, 16, 66, 18, 64, 30, 2, 2, 30, 247
2, 575, System_exclusive, 10, 65, 16, 66, 18, 64, 31, 2, 2, 29, 247
2, 575, MIDI_port, 0
2, 768, Note_on_c, 0, 70, 85
2, 864, Note_on_c, 0, 62, 85
2, 958, Note_on_c, 0, 62, 0
2, 960, Note_on_c, 0, 64, 85
2, 1054, Note_on_c, 0, 64, 0
2, 1056, Note_on_c, 0, 66, 85
2, 1150, Note_on_c, 0, 66, 0
2, 1150, Note_on_c, 0, 70, 0
2, 1152, Note_on_c, 0, 70, 85
2, 1152, Note_on_c, 0, 67, 85
2, 1630, Note_on_c, 0, 67, 0
2, 1632, Note_on_c, 0, 65, 85
2, 1726, Note_on_c, 0, 65, 0
2, 1728, Note_on_c, 0, 63, 85
2, 1822, Note_on_c, 0, 63, 0
2, 1824, Note_on_c, 0, 62, 85
2, 1918, Note_on_c, 0, 62, 0
2, 1918, Note_on_c, 0, 70, 0
2, 1920, Note_on_c, 0, 72, 85
2, 1920, Note_on_c, 0, 60, 85
2, 2014, Note_on_c, 0, 60, 0
2, 2016, Note_on_c, 0, 67, 85
2, 2110, Note_on_c, 0, 67, 0
2, 2112, Note_on_c, 0, 65, 85
2, 2206, Note_on_c, 0, 65, 0
2, 2208, Note_on_c, 0, 63, 85
2, 2302, Note_on_c, 0, 63, 0
2, 2302, Note_on_c, 0, 72, 0
2, 2304, Note_on_c, 0, 74, 85
2, 2304, Note_on_c, 0, 62, 85
2, 2686, Note_on_c, 0, 62, 0
2, 2784, Note_on_c, 0, 60, 85
2, 2878, Note_on_c, 0, 60, 0
2, 2880, Note_on_c, 0, 62, 85
2, 2974, Note_on_c, 0, 62, 0
2, 2976, Note_on_c, 0, 63, 85
2, 3070, Note_on_c, 0, 63, 0
2, 3070, Note_on_c, 0, 74, 0
2, 3072, Note_on_c, 0, 72, 85
2, 3072, Note_on_c, 0, 65, 85
2, 3166, Note_on_c, 0, 65, 0
2, 3168, Note_on_c, 0, 67, 85
2, 3262, Note_on_c, 0, 67, 0
2, 3264, Note_on_c, 0, 65, 85
2, 3358, Note_on_c, 0, 65, 0
2, 3360, Note_on_c, 0, 62, 85
2, 3454, Note_on_c, 0, 62, 0
2, 3454, Note_on_c, 0, 72, 0
2, 3456, Note_on_c, 0, 70, 85
2, 3456, Note_on_c, 0, 62, 85
2, 3646, Note_on_c, 0, 62, 0
2, 3648, Note_on_c, 0, 63, 85
2, 3742, Note_on_c, 0, 63, 0
2, 3744, Note_on_c, 0, 65, 85
2, 3838, Note_on_c, 0, 65, 0
2, 3840, Note_on_c, 0, 67, 85
2, 4222, Note_on_c, 0, 70, 0
2, 4224, Note_on_c, 0, 69, 85
2, 4318, Note_on_c, 0, 67, 0
2, 4320, Note_on_c, 0, 67, 85
2, 4414, Note_on_c, 0, 67, 0
2, 4416, Note_on_c, 0, 65, 85
2, 4510, Note_on_c, 0, 65, 0
2, 4512, Note_on_c, 0, 63, 85
2, 4606, Note_on_c, 0, 63, 0
2, 4606, Note_on_c, 0, 69, 0
2, 4608, Note_on_c, 0, 70, 85
2, 4608, Note_on_c, 0, 62, 85
2, 5374, Note_on_c, 0, 62, 0
2, 5374, Note_on_c, 0, 70, 0
2, 5376, Note_on_c, 0, 70, 85
2, 5472, Note_on_c, 0, 62, 85
2, 5566, Note_on_c, 0, 62, 0
2, 5568, Note_on_c, 0, 63, 85
2, 5662, Note_on_c, 0, 63, 0
2, 5664, Note_on_c, 0, 65, 85
2, 5758, Note_on_c, 0, 65, 0
2, 5758, Note_on_c, 0, 70, 0
2, 5760, Note_on_c, 0, 70, 85
2, 5760, Note_on_c, 0, 67, 85
2, 5854, Note_on_c, 0, 67, 0
2, 5856, Note_on_c, 0, 68, 85
2, 5950, Note_on_c, 0, 68, 0
2, 5952, Note_on_c, 0, 67, 85
2, 6046, Note_on_c, 0, 67, 0
2, 6048, Note_on_c, 0, 65, 85
2, 6142, Note_on_c, 0, 65, 0
2, 6144, Note_on_c, 0, 63, 85
2, 6238, Note_on_c, 0, 63, 0
2, 6240, Note_on_c, 0, 65, 85
2, 6334, Note_on_c, 0, 65, 0
2, 6336, Note_on_c, 0, 62, 85
2, 6430, Note_on_c, 0, 62, 0
2, 6432, Note_on_c, 0, 63, 85
2, 6526, Note_on_c, 0, 63, 0
2, 6526, Note_on_c, 0, 70, 0
2, 6528, Note_on_c, 0, 70, 85
2, 6528, Note_on_c, 0, 65, 85
2, 6718, Note_on_c, 0, 65, 0
2, 6720, Note_on_c, 0, 63, 85
2, 6814, Note_on_c, 0, 63, 0
2, 6816, Note_on_c, 0, 62, 85
2, 6910, Note_on_c, 0, 62, 0
2, 6910, Note_on_c, 0, 70, 0
2, 6912, Note_on_c, 0, 72, 85
2, 6912, Note_on_c, 0, 60, 85
2, 7198, Note_on_c, 0, 60, 0
2, 7200, Note_on_c, 0, 62, 85
2, 7294, Note_on_c, 0, 62, 0
2, 7296, Note_on_c, 0, 63, 85
2, 7390, Note_on_c, 0, 63, 0
2, 7392, Note_on_c, 0, 62, 85
2, 7486, Note_on_c, 0, 62, 0
2, 7488, Note_on_c, 0, 60, 85
2, 7678, Note_on_c, 0, 72, 0
2, 7680, Note_on_c, 0, 69, 85
2, 7774, Note_on_c, 0, 60, 0
2, 7776, Note_on_c, 0, 63, 85
2, 7870, Note_on_c, 0, 63, 0
2, 7872, Note_on_c, 0, 62, 85
2, 7966, Note_on_c, 0, 62, 0
2, 7968, Note_on_c, 0, 60, 85
2, 8062, Note_on_c, 0, 60, 0
2, 8062, Note_on_c, 0, 69, 0
2, 8064, Note_on_c, 0, 67, 85
2, 8064, Note_on_c, 0, 58, 85
2, 8254, Note_on_c, 0, 58, 0
2, 8256, Note_on_c, 0, 63, 85
2, 8446, Note_on_c, 0, 67, 0
2, 8448, Note_on_c, 0, 66, 85
2, 8544, Note_on_c, 0, 63, 0
2, 8544, Note_on_c, 0, 63, 85
2, 8640, Note_on_c, 0, 63, 0
2, 8640, Note_on_c, 0, 62, 85
2, 8736, Note_on_c, 0, 62, 0
2, 8736, Note_on_c, 0, 60, 85
2, 8832, Note_on_c, 0, 60, 0
2, 8832, Note_on_c, 0, 62, 85
2, 9214, Note_on_c, 0, 66, 0
2, 9216, Note_on_c, 0, 67, 85
2, 9310, Note_on_c, 0, 62, 0
2, 9312, Note_on_c, 0, 62, 85
2, 9406, Note_on_c, 0, 62, 0
2, 9408, Note_on_c, 0, 64, 85
2, 9502, Note_on_c, 0, 64, 0
2, 9504, Note_on_c, 0, 66, 85
2, 9598, Note_on_c, 0, 66, 0
2, 9600, Note_on_c, 0, 67, 85
2, 9984, Note_on_c, 0, 67, 0
2, 9984, Note_on_c, 0, 69, 85
2, 10078, Note_on_c, 0, 67, 0
2, 10080, Note_on_c, 0, 66, 85
2, 10174, Note_on_c, 0, 66, 0
2, 10176, Note_on_c, 0, 67, 85
2, 10270, Note_on_c, 0, 67, 0
2, 10272, Note_on_c, 0, 69, 85
2, 10366, Note_on_c, 0, 69, 0
2, 10366, Note_on_c, 0, 69, 0
2, 10368, Note_on_c, 0, 70, 85
2, 10368, Note_on_c, 0, 62, 85
2, 10558, Note_on_c, 0, 62, 0
2, 10560, Note_on_c, 0, 64, 85
2, 10654, Note_on_c, 0, 64, 0
2, 10656, Note_on_c, 0, 66, 85
2, 10750, Note_on_c, 0, 66, 0
2, 10752, Note_on_c, 0, 67, 85
2, 10846, Note_on_c, 0, 67, 0
2, 10848, Note_on_c, 0, 65, 85
2, 10942, Note_on_c, 0, 65, 0
2, 10944, Note_on_c, 0, 63, 85
2, 11038, Note_on_c, 0, 63, 0
2, 11040, Note_on_c, 0, 62, 85
2, 11134, Note_on_c, 0, 62, 0
2, 11134, Note_on_c, 0, 70, 0
2, 11136, Note_on_c, 0, 72, 85
2, 11136, Note_on_c, 0, 60, 85
2, 11230, Note_on_c, 0, 60, 0
2, 11232, Note_on_c, 0, 67, 85
2, 11326, Note_on_c, 0, 67, 0
2, 11328, Note_on_c, 0, 65, 85
2, 11422, Note_on_c, 0, 65, 0
2, 11424, Note_on_c, 0, 63, 85
2, 11518, Note_on_c, 0, 63, 0
2, 11518, Note_on_c, 0, 72, 0
2, 11520, Note_on_c, 0, 74, 85
2, 11520, Note_on_c, 0, 62, 85
2, 11614, Note_on_c, 0, 62, 0
2, 11616, Note_on_c, 0, 65, 85
2, 11710, Note_on_c, 0, 65, 0
2, 11712, Note_on_c, 0, 67, 85
2, 11806, Note_on_c, 0, 67, 0
2, 11808, Note_on_c, 0, 69, 85
2, 11902, Note_on_c, 0, 69, 0
2, 11904, Note_on_c, 0, 70, 85
2, 12094, Note_on_c, 0, 74, 0
2, 12096, Note_on_c, 0, 75, 85
2, 12286, Note_on_c, 0, 75, 0
2, 12288, Note_on_c, 0, 77, 85
2, 12382, Note_on_c, 0, 70, 0
2, 12384, Note_on_c, 0, 72, 85
2, 12478, Note_on_c, 0, 72, 0
2, 12480, Note_on_c, 0, 70, 85
2, 12574, Note_on_c, 0, 70, 0
2, 12576, Note_on_c, 0, 68, 85
2, 12670, Note_on_c, 0, 68, 0
2, 12670, Note_on_c, 0, 77, 0
2, 12672, Note_on_c, 0, 75, 85
2, 12672, Note_on_c, 0, 67, 85
2, 12766, Note_on_c, 0, 67, 0
2, 12768, Note_on_c, 0, 65, 85
2, 12862, Note_on_c, 0, 65, 0
2, 12864, Note_on_c, 0, 67, 85
2, 12958, Note_on_c, 0, 67, 0
2, 12960, Note_on_c, 0, 69, 85
2, 13054, Note_on_c, 0, 69, 0
2, 13054, Note_on_c, 0, 75, 0
2, 13056, Note_on_c, 0, 74, 85
2, 13056, Note_on_c, 0, 70, 85
2, 13248, Note_on_c, 0, 67, 85
2, 13438, Note_on_c, 0, 67, 0
2, 13438, Note_on_c, 0, 74, 0
2, 13440, Note_on_c, 0, 72, 85
2, 13440, Note_on_c, 0, 60, 85
2, 13534, Note_on_c, 0, 60, 0
2, 13536, Note_on_c, 0, 67, 85
2, 13630, Note_on_c, 0, 67, 0
2, 13630, Note_on_c, 0, 70, 0
2, 13632, Note_on_c, 0, 69, 85
2, 13632, Note_on_c, 0, 65, 85
2, 13726, Note_on_c, 0, 65, 0
2, 13728, Note_on_c, 0, 63, 85
2, 13822, Note_on_c, 0, 63, 0
2, 13822, Note_on_c, 0, 72, 0
2, 13824, Note_on_c, 0, 69, 0
2, 13824, Note_on_c, 0, 74, 85
2, 13824, Note_on_c, 0, 69, 85
2, 13824, Note_on_c, 0, 62, 85
2, 13918, Note_on_c, 0, 69, 0
2, 13920, Note_on_c, 0, 69, 85
2, 14014, Note_on_c, 0, 69, 0
2, 14016, Note_on_c, 0, 67, 85
2, 14110, Note_on_c, 0, 67, 0
2, 14112, Note_on_c, 0, 66, 85
2, 14206, Note_on_c, 0, 66, 0
2, 14208, Note_on_c, 0, 67, 85
2, 14302, Note_on_c, 0, 62, 0
2, 14590, Note_on_c, 0, 67, 0
2, 14592, Note_on_c, 0, 74, 0
2, 14592, Note_on_c, 0, 74, 85
2, 14688, Note_on_c, 0, 63, 85
2, 14782, Note_on_c, 0, 63, 0
2, 14784, Note_on_c, 0, 62, 85
2, 14878, Note_on_c, 0, 62, 0
2, 14880, Note_on_c, 0, 60, 85
2, 14974, Note_on_c, 0, 74, 0
2, 14976, Note_on_c, 0, 74, 85
2, 15070, Note_on_c, 0, 60, 0
2, 15072, Note_on_c, 0, 60, 85
2, 15166, Note_on_c, 0, 60, 0
2, 15168, Note_on_c, 0, 58, 85
2, 15262, Note_on_c, 0, 58, 0
2, 15264, Note_on_c, 0, 57, 85
2, 15358, Note_on_c, 0, 57, 0
2, 15360, Note_on_c, 0, 58, 85
2, 15454, Note_on_c, 0, 58, 0
2, 15456, Note_on_c, 0, 60, 85
2, 15550, Note_on_c, 0, 60, 0
2, 15552, Note_on_c, 0, 62, 85
2, 15646, Note_on_c, 0, 62, 0
2, 15648, Note_on_c, 0, 58, 85
2, 15742, Note_on_c, 0, 58, 0
2, 15742, Note_on_c, 0, 74, 0
2, 15744, Note_on_c, 0, 72, 85
2, 15744, Note_on_c, 0, 67, 85
2, 15934, Note_on_c, 0, 67, 0
2, 15936, Note_on_c, 0, 65, 85
2, 16030, Note_on_c, 0, 65, 0
2, 16032, Note_on_c, 0, 63, 85
2, 16126, Note_on_c, 0, 63, 0
2, 16126, Note_on_c, 0, 72, 0
2, 16128, Note_on_c, 0, 74, 85
2, 16128, Note_on_c, 0, 62, 85
2, 16510, Note_on_c, 0, 62, 0
2, 16608, Note_on_c, 0, 72, 85
2, 16702, Note_on_c, 0, 72, 0
2, 16704, Note_on_c, 0, 70, 85
2, 16798, Note_on_c, 0, 70, 0
2, 16800, Note_on_c, 0, 69, 85
2, 16894, Note_on_c, 0, 69, 0
2, 16894, Note_on_c, 0, 74, 0
2, 16896, Note_on_c, 0, 72, 85
2, 16896, Note_on_c, 0, 67, 85
2, 16990, Note_on_c, 0, 67, 0
2, 16992, Note_on_c, 0, 69, 85
2, 17086, Note_on_c, 0, 69, 0
2, 17088, Note_on_c, 0, 66, 85
2, 17182, Note_on_c, 0, 66, 0
2, 17184, Note_on_c, 0, 67, 85
2, 17278, Note_on_c, 0, 67, 0
2, 17278, Note_on_c, 0, 72, 0
2, 17280, Note_on_c, 0, 74, 85
2, 17280, Note_on_c, 0, 69, 85
2, 17374, Note_on_c, 0, 69, 0
2, 17376, Note_on_c, 0, 67, 85
2, 17470, Note_on_c, 0, 67, 0
2, 17472, Note_on_c, 0, 66, 85
2, 17566, Note_on_c, 0, 66, 0
2, 17568, Note_on_c, 0, 64, 85
2, 17662, Note_on_c, 0, 64, 0
2, 17664, Note_on_c, 0, 62, 85
2, 17854, Note_on_c, 0, 74, 0
2, 17856, Note_on_c, 0, 72, 85
2, 18046, Note_on_c, 0, 72, 0
2, 18048, Note_on_c, 0, 70, 85
2, 18142, Note_on_c, 0, 62, 0
2, 18144, Note_on_c, 0, 64, 85
2, 18238, Note_on_c, 0, 64, 0
2, 18240, Note_on_c, 0, 62, 85
2, 18334, Note_on_c, 0, 62, 0
2, 18336, Note_on_c, 0, 61, 85
2, 18430, Note_on_c, 0, 61, 0
2, 18430, Note_on_c, 0, 70, 0
2, 18432, Note_on_c, 0, 69, 85
2, 18432, Note_on_c, 0, 62, 85
2, 18526, Note_on_c, 0, 62, 0
2, 18528, Note_on_c, 0, 67, 85
2, 18622, Note_on_c, 0, 67, 0
2, 18624, Note_on_c, 0, 66, 85
2, 18718, Note_on_c, 0, 66, 0
2, 18720, Note_on_c, 0, 64, 85
2, 18814, Note_on_c, 0, 64, 0
2, 18816, Note_on_c, 0, 66, 85
2, 19198, Note_on_c, 0, 69, 0
2, 19200, Note_on_c, 0, 69, 85
2, 19294, Note_on_c, 0, 66, 0
2, 19296, Note_on_c, 0, 64, 85
2, 19390, Note_on_c, 0, 64, 0
2, 19392, Note_on_c, 0, 66, 85
2, 19486, Note_on_c, 0, 66, 0
2, 19488, Note_on_c, 0, 67, 85
2, 19582, Note_on_c, 0, 67, 0
2, 19582, Note_on_c, 0, 69, 0
2, 19584, Note_on_c, 0, 69, 85
2, 19584, Note_on_c, 0, 69, 85
2, 19678, Note_on_c, 0, 69, 0
2, 19680, Note_on_c, 0, 67, 85
2, 19774, Note_on_c, 0, 67, 0
2, 19776, Note_on_c, 0, 66, 85
2, 19870, Note_on_c, 0, 66, 0
2, 19872, Note_on_c, 0, 64, 85
2, 19966, Note_on_c, 0, 64, 0
2, 19968, Note_on_c, 0, 66, 85
2, 20350, Note_on_c, 0, 69, 0
2, 20352, Note_on_c, 0, 70, 85
2, 20542, Note_on_c, 0, 66, 0
2, 20544, Note_on_c, 0, 67, 85
2, 20734, Note_on_c, 0, 70, 0
2, 20736, Note_on_c, 0, 72, 85
2, 20926, Note_on_c, 0, 67, 0
2, 20928, Note_on_c, 0, 66, 85
2, 21022, Note_on_c, 0, 66, 0
2, 21024, Note_on_c, 0, 67, 85
2, 21118, Note_on_c, 0, 67, 0
2, 21120, Note_on_c, 0, 69, 85
2, 21214, Note_on_c, 0, 69, 0
2, 21216, Note_on_c, 0, 70, 85
2, 21310, Note_on_c, 0, 70, 0
2, 21312, Note_on_c, 0, 69, 85
2, 21406, Note_on_c, 0, 69, 0
2, 21408, Note_on_c, 0, 67, 85
2, 21502, Note_on_c, 0, 67, 0
2, 21502, Note_on_c, 0, 72, 0
2, 21504, Note_on_c, 0, 66, 85
2, 21504, Note_on_c, 0, 69, 85
2, 21696, Note_on_c, 0, 66, 0
2, 21696, Note_on_c, 0, 69, 85
2, 21720, Note_on_c, 0, 69, 0
2, 21720, Note_on_c, 0, 66, 85
2, 21744, Note_on_c, 0, 66, 0
2, 21744, Note_on_c, 0, 69, 85
2, 21768, Note_on_c, 0, 69, 0
2, 21768, Note_on_c, 0, 66, 85
2, 21792, Note_on_c, 0, 66, 0
2, 21792, Note_on_c, 0, 66, 85
2, 21886, Note_on_c, 0, 66, 0
2, 21886, Note_on_c, 0, 69, 0
2, 21888, Note_on_c, 0, 67, 85
2, 21888, Note_on_c, 0, 67, 85
2, 22078, Note_on_c, 0, 67, 0
2, 22080, Note_on_c, 0, 63, 85
2, 22270, Note_on_c, 0, 67, 0
2, 22272, Note_on_c, 0, 66, 85
2, 22358, Note_on_c, 0, 63, 0
2, 22368, Note_on_c, 0, 63, 85
2, 22464, Note_on_c, 0, 63, 0
2, 22464, Note_on_c, 0, 62, 85
2, 22560, Note_on_c, 0, 62, 0
2, 22560, Note_on_c, 0, 60, 85
2, 22656, Note_on_c, 0, 60, 0
2, 22656, Note_on_c, 0, 62, 85
2, 23038, Note_on_c, 0, 66, 0
2, 23040, Note_on_c, 0, 62, 0
2, 23040, Note_on_c, 0, 67, 85
2, 23136, Note_on_c, 0, 62, 85
2, 23230, Note_on_c, 0, 62, 0
2, 23232, Note_on_c, 0, 64, 85
2, 23326, Note_on_c, 0, 64, 0
2, 23328, Note_on_c, 0, 66, 85
2, 23422, Note_on_c, 0, 66, 0
2, 23424, Note_on_c, 0, 67, 85
2, 23614, Note_on_c, 0, 67, 0
2, 23616, Note_on_c, 0, 62, 85
2, 23806, Note_on_c, 0, 67, 0
2, 23808, Note_on_c, 0, 67, 85
2, 23902, Note_on_c, 0, 62, 0
2, 23904, Note_on_c, 0, 62, 85
2, 23998, Note_on_c, 0, 62, 0
2, 24000, Note_on_c, 0, 60, 85
2, 24094, Note_on_c, 0, 60, 0
2, 24096, Note_on_c, 0, 58, 85
2, 24190, Note_on_c, 0, 58, 0
2, 24190, Note_on_c, 0, 67, 0
2, 24192, Note_on_c, 0, 57, 85
2, 24192, Note_on_c, 0, 69, 85
2, 24286, Note_on_c, 0, 57, 0
2, 24288, Note_on_c, 0, 60, 85
2, 24382, Note_on_c, 0, 60, 0
2, 24384, Note_on_c, 0, 62, 85
2, 24478, Note_on_c, 0, 62, 0
2, 24480, Note_on_c, 0, 63, 85
2, 24574, Note_on_c, 0, 63, 0
2, 24576, Note_on_c, 0, 65, 85
2, 24768, Note_on_c, 0, 65, 0
2, 24768, Note_on_c, 0, 60, 85
2, 24958, Note_on_c, 0, 60, 0
2, 24958, Note_on_c, 0, 69, 0
2, 24960, Note_on_c, 0, 70, 85
2, 24960, Note_on_c, 0, 62, 85
2, 25054, Note_on_c, 0, 62, 0
2, 25056, Note_on_c, 0, 68, 85
2, 25150, Note_on_c, 0, 68, 0
2, 25152, Note_on_c, 0, 67, 85
2, 25246, Note_on_c, 0, 67, 0
2, 25248, Note_on_c, 0, 65, 85
2, 25342, Note_on_c, 0, 65, 0
2, 25342, Note_on_c, 0, 70, 0
2, 25344, Note_on_c, 0, 72, 85
2, 25344, Note_on_c, 0, 63, 85
2, 25438, Note_on_c, 0, 63, 0
2, 25440, Note_on_c, 0, 62, 85
2, 25534, Note_on_c, 0, 62, 0
2, 25536, Note_on_c, 0, 60, 85
2, 25726, Note_on_c, 0, 60, 0
2, 25728, Note_on_c, 0, 65, 85
2, 25822, Note_on_c, 0, 65, 0
2, 25824, Note_on_c, 0, 67, 85
2, 25918, Note_on_c, 0, 67, 0
2, 25920, Note_on_c, 0, 65, 85
2, 26014, Note_on_c, 0, 65, 0
2, 26016, Note_on_c, 0, 63, 85
2, 26110, Note_on_c, 0, 63, 0
2, 26110, Note_on_c, 0, 72, 0
2, 26112, Note_on_c, 0, 74, 85
2, 26112, Note_on_c, 0, 62, 85
2, 26302, Note_on_c, 0, 62, 0
2, 26304, Note_on_c, 0, 65, 85
2, 26494, Note_on_c, 0, 65, 0
2, 26494, Note_on_c, 0, 74, 0
2, 26496, Note_on_c, 0, 74, 85
2, 26496, Note_on_c, 0, 70, 85
2, 26878, Note_on_c, 0, 74, 0
2, 26880, Note_on_c, 0, 73, 85
2, 26974, Note_on_c, 0, 70, 0
2, 26976, Note_on_c, 0, 70, 85
2, 27070, Note_on_c, 0, 70, 0
2, 27072, Note_on_c, 0, 69, 85
2, 27166, Note_on_c, 0, 69, 0
2, 27168, Note_on_c, 0, 67, 85
2, 27262, Note_on_c, 0, 67, 0
2, 27264, Note_on_c, 0, 69, 85
2, 27550, Note_on_c, 0, 69, 0
2, 27552, Note_on_c, 0, 67, 85
2, 27646, Note_on_c, 0, 67, 0
2, 27646, Note_on_c, 0, 73, 0
2, 27648, Note_on_c, 0, 74, 85
2, 27648, Note_on_c, 0, 66, 85
2, 27742, Note_on_c, 0, 66, 0
2, 27744, Note_on_c, 0, 67, 85
2, 27838, Note_on_c, 0, 67, 0
2, 27840, Note_on_c, 0, 66, 85
2, 27934, Note_on_c, 0, 66, 0
2, 27936, Note_on_c, 0, 64, 85
2, 28030, Note_on_c, 0, 64, 0
2, 28032, Note_on_c, 0, 62, 85
2, 28126, Note_on_c, 0, 62, 0
2, 28128, Note_on_c, 0, 70, 85
2, 28222, Note_on_c, 0, 70, 0
2, 28224, Note_on_c, 0, 69, 85
2, 28318, Note_on_c, 0, 69, 0
2, 28320, Note_on_c, 0, 67, 85
2, 28414, Note_on_c, 0, 67, 0
2, 28416, Note_on_c, 0, 66, 85
2, 28702, Note_on_c, 0, 66, 0
2, 28704, Note_on_c, 0, 66, 85
2, 28798, Note_on_c, 0, 66, 0
2, 28798, Note_on_c, 0, 74, 0
2, 28800, Note_on_c, 0, 74, 85
2, 28800, Note_on_c, 0, 67, 85
2, 29086, Note_on_c, 0, 67, 0
2, 29088, Note_on_c, 0, 69, 85
2, 29182, Note_on_c, 0, 69, 0
2, 29182, Note_on_c, 0, 74, 0
2, 29184, Note_on_c, 0, 74, 85
2, 29184, Note_on_c, 0, 67, 85
2, 29374, Note_on_c, 0, 67, 0
2, 29376, Note_on_c, 0, 66, 85
2, 29470, Note_on_c, 0, 66, 0
2, 29472, Note_on_c, 0, 74, 85
2, 29566, Note_on_c, 0, 74, 0
2, 29568, Note_on_c, 0, 74, 0
2, 29568, Note_on_c, 0, 74, 85
2, 29568, Note_on_c, 0, 67, 85
2, 29662, Note_on_c, 0, 67, 0
2, 29664, Note_on_c, 0, 69, 85
2, 29758, Note_on_c, 0, 69, 0
2, 29760, Note_on_c, 0, 70, 85
2, 29760, Note_on_c, 0, 67, 85
2, 29952, Note_on_c, 0, 74, 0
2, 29952, Note_on_c, 0, 74, 85
2, 30046, Note_on_c, 0, 67, 0
2, 30048, Note_on_c, 0, 66, 85
2, 30142, Note_on_c, 0, 66, 0
2, 30144, Note_on_c, 0, 67, 85
2, 30238, Note_on_c, 0, 70, 0
2, 30240, Note_on_c, 0, 69, 85
2, 30334, Note_on_c, 0, 69, 0
2, 30336, Note_on_c, 0, 70, 85
2, 30430, Note_on_c, 0, 67, 0
2, 30432, Note_on_c, 0, 66, 85
2, 30526, Note_on_c, 0, 66, 0
2, 30528, Note_on_c, 0, 67, 85
2, 30622, Note_on_c, 0, 70, 0
2, 30624, Note_on_c, 0, 69, 85
2, 30718, Note_on_c, 0, 69, 0
2, 30720, Note_on_c, 0, 70, 85
2, 30814, Note_on_c, 0, 67, 0
2, 30816, Note_on_c, 0, 66, 85
2, 30910, Note_on_c, 0, 66, 0
2, 30912, Note_on_c, 0, 67, 85
2, 31102, Note_on_c, 0, 70, 0
2, 31198, Note_on_c, 0, 67, 0
2, 31200, Note_on_c, 0, 67, 85
2, 31294, Note_on_c, 0, 67, 0
2, 31296, Note_on_c, 0, 66, 85
2, 31390, Note_on_c, 0, 66, 0
2, 31392, Note_on_c, 0, 64, 85
2, 31486, Note_on_c, 0, 64, 0
2, 31488, Note_on_c, 0, 66, 85
2, 31870, Note_on_c, 0, 66, 0
2, 31870, Note_on_c, 0, 74, 0
2, 31870, End_track
3, 0, Start_track
3, 0, MIDI_port, 0
3, 0, Title_t, "Recitativo"
3, 1248, Note_on_c, 1, 60, 85
3, 1342, Note_on_c, 1, 60, 0
3, 1344, Note_on_c, 1, 58, 85
3, 1438, Note_on_c, 1, 58, 0
3, 1440, Note_on_c, 1, 57, 85
3, 1534, Note_on_c, 1, 57, 0
3, 1536, Note_on_c, 1, 55, 85
3, 1726, Note_on_c, 1, 55, 0
3, 1728, Note_on_c, 1, 58, 85
3, 2110, Note_on_c, 1, 58, 0
3, 2112, Note_on_c, 1, 57, 85
3, 2302, Note_on_c, 1, 57, 0
3, 2304, Note_on_c, 1, 58, 85
3, 2398, Note_on_c, 1, 58, 0
3, 2400, Note_on_c, 1, 53, 85
3, 2494, Note_on_c, 1, 53, 0
3, 2496, Note_on_c, 1, 55, 85
3, 2590, Note_on_c, 1, 55, 0
3, 2592, Note_on_c, 1, 57, 85
3, 2686, Note_on_c, 1, 57, 0
3, 2688, Note_on_c, 1, 58, 85
3, 3070, Note_on_c, 1, 58, 0
3, 3072, Note_on_c, 1, 57, 85
3, 3454, Note_on_c, 1, 57, 0
3, 3552, Note_on_c, 1, 58, 85
3, 3646, Note_on_c, 1, 58, 0
3, 3648, Note_on_c, 1, 60, 85
3, 3742, Note_on_c, 1, 60, 0
3, 3744, Note_on_c, 1, 62, 85
3, 3838, Note_on_c, 1, 62, 0
3, 3840, Note_on_c, 1, 63, 85
3, 4030, Note_on_c, 1, 63, 0
3, 4032, Note_on_c, 1, 62, 85
3, 4222, Note_on_c, 1, 62, 0
3, 4224, Note_on_c, 1, 60, 85
3, 4606, Note_on_c, 1, 60, 0
3, 4704, Note_on_c, 1, 60, 85
3, 4798, Note_on_c, 1, 60, 0
3, 4800, Note_on_c, 1, 58, 85
3, 4894, Note_on_c, 1, 58, 0
3, 4896, Note_on_c, 1, 57, 85
3, 4990, Note_on_c, 1, 57, 0
3, 4992, Note_on_c, 1, 58, 85
3, 5086, Note_on_c, 1, 58, 0
3, 5088, Note_on_c, 1, 53, 85
3, 5182, Note_on_c, 1, 53, 0
3, 5184, Note_on_c, 1, 55, 85
3, 5278, Note_on_c, 1, 55, 0
3, 5280, Note_on_c, 1, 57, 85
3, 5374, Note_on_c, 1, 57, 0
3, 5376, Note_on_c, 1, 58, 85
3, 5566, Note_on_c, 1, 58, 0
3, 5568, Note_on_c, 1, 60, 85
3, 5662, Note_on_c, 1, 60, 0
3, 5664, Note_on_c, 1, 62, 85
3, 5758, Note_on_c, 1, 62, 0
3, 5760, Note_on_c, 1, 63, 85
3, 5854, Note_on_c, 1, 63, 0
3, 5856, Note_on_c, 1, 60, 85
3, 5950, Note_on_c, 1, 60, 0
3, 5952, Note_on_c, 1, 58, 85
3, 6046, Note_on_c, 1, 58, 0
3, 6048, Note_on_c, 1, 56, 85
3, 6142, Note_on_c, 1, 56, 0
3, 6144, Note_on_c, 1, 55, 85
3, 6238, Note_on_c, 1, 55, 0
3, 6240, Note_on_c, 1, 56, 85
3, 6334, Note_on_c, 1, 56, 0
3, 6336, Note_on_c, 1, 58, 85
3, 6622, Note_on_c, 1, 58, 0
3, 6624, Note_on_c, 1, 56, 85
3, 6718, Note_on_c, 1, 56, 0
3, 6720, Note_on_c, 1, 55, 85
3, 7006, Note_on_c, 1, 55, 0
3, 7008, Note_on_c, 1, 55, 85
3, 7102, Note_on_c, 1, 55, 0
3, 7104, Note_on_c, 1, 57, 85
3, 7198, Note_on_c, 1, 57, 0
3, 7200, Note_on_c, 1, 58, 85
3, 7294, Note_on_c, 1, 58, 0
3, 7296, Note_on_c, 1, 60, 85
3, 7390, Note_on_c, 1, 60, 0
3, 7392, Note_on_c, 1, 58, 85
3, 7486, Note_on_c, 1, 58, 0
3, 7488, Note_on_c, 1, 57, 85
3, 7582, Note_on_c, 1, 57, 0
3, 7584, Note_on_c, 1, 55, 85
3, 7678, Note_on_c, 1, 55, 0
3, 7680, Note_on_c, 1, 54, 85
3, 8062, Note_on_c, 1, 54, 0
3, 8064, Note_on_c, 1, 55, 85
3, 8254, Note_on_c, 1, 55, 0
3, 8256, Note_on_c, 1, 60, 85
3, 8446, Note_on_c, 1, 60, 0
3, 8448, Note_on_c, 1, 57, 85
3, 8926, Note_on_c, 1, 57, 0
3, 8928, Note_on_c, 1, 60, 85
3, 9022, Note_on_c, 1, 60, 0
3, 9024, Note_on_c, 1, 58, 85
3, 9118, Note_on_c, 1, 58, 0
3, 9120, Note_on_c, 1, 57, 85
3, 9214, Note_on_c, 1, 57, 0
3, 9216, Note_on_c, 1, 58, 85
3, 9598, Note_on_c, 1, 58, 0
3, 9696, Note_on_c, 1, 58, 85
3, 9790, Note_on_c, 1, 58, 0
3, 9792, Note_on_c, 1, 57, 85
3, 9886, Note_on_c, 1, 57, 0
3, 9888, Note_on_c, 1, 55, 85
3, 9982, Note_on_c, 1, 55, 0
3, 9984, Note_on_c, 1, 62, 85
3, 10078, Note_on_c, 1, 62, 0
3, 10080, Note_on_c, 1, 50, 85
3, 10174, Note_on_c, 1, 50, 0
3, 10176, Note_on_c, 1, 52, 85
3, 10270, Note_on_c, 1, 52, 0
3, 10272, Note_on_c, 1, 54, 85
3, 10366, Note_on_c, 1, 54, 0
3, 10368, Note_on_c, 1, 55, 85
3, 10462, Note_on_c, 1, 55, 0
3, 10464, Note_on_c, 1, 54, 85
3, 10558, Note_on_c, 1, 54, 0
3, 10560, Note_on_c, 1, 55, 85
3, 10654, Note_on_c, 1, 55, 0
3, 10656, Note_on_c, 1, 57, 85
3, 10750, Note_on_c, 1, 57, 0
3, 10752, Note_on_c, 1, 58, 85
3, 11326, Note_on_c, 1, 58, 0
3, 11328, Note_on_c, 1, 57, 85
3, 11518, Note_on_c, 1, 57, 0
3, 11520, Note_on_c, 1, 58, 85
3, 11902, Note_on_c, 1, 58, 0
3, 12000, Note_on_c, 1, 57, 85
3, 12094, Note_on_c, 1, 57, 0
3, 12096, Note_on_c, 1, 58, 85
3, 12190, Note_on_c, 1, 58, 0
3, 12192, Note_on_c, 1, 60, 85
3, 12286, Note_on_c, 1, 60, 0
3, 12288, Note_on_c, 1, 62, 85
3, 12382, Note_on_c, 1, 62, 0
3, 12384, Note_on_c, 1, 63, 85
3, 12478, Note_on_c, 1, 63, 0
3, 12480, Note_on_c, 1, 62, 85
3, 12574, Note_on_c, 1, 62, 0
3, 12576, Note_on_c, 1, 60, 85
3, 12670, Note_on_c, 1, 60, 0
3, 12672, Note_on_c, 1, 58, 85
3, 12766, Note_on_c, 1, 58, 0
3, 12768, Note_on_c, 1, 57, 85
3, 12862, Note_on_c, 1, 57, 0
3, 12864, Note_on_c, 1, 58, 85
3, 12958, Note_on_c, 1, 58, 0
3, 12960, Note_on_c, 1, 60, 85
3, 13054, Note_on_c, 1, 60, 0
3, 13056, Note_on_c, 1, 62, 85
3, 13246, Note_on_c, 1, 62, 0
3, 14304, Note_on_c, 1, 58, 85
3, 14398, Note_on_c, 1, 58, 0
3, 14400, Note_on_c, 1, 57, 85
3, 14494, Note_on_c, 1, 57, 0
3, 14496, Note_on_c, 1, 55, 85
3, 14590, Note_on_c, 1, 55, 0
3, 14592, Note_on_c, 1, 54, 85
3, 14974, Note_on_c, 1, 54, 0
3, 14976, Note_on_c, 1, 55, 85
3, 15838, Note_on_c, 1, 55, 0
3, 15840, Note_on_c, 1, 58, 85
3, 15934, Note_on_c, 1, 58, 0
3, 15936, Note_on_c, 1, 57, 85
3, 16222, Note_on_c, 1, 57, 0
3, 16224, Note_on_c, 1, 57, 85
3, 16318, Note_on_c, 1, 57, 0
3, 16320, Note_on_c, 1, 55, 85
3, 16414, Note_on_c, 1, 55, 0
3, 16416, Note_on_c, 1, 54, 85
3, 16510, Note_on_c, 1, 54, 0
3, 16512, Note_on_c, 1, 55, 85
3, 16894, Note_on_c, 1, 55, 0
3, 16992, Note_on_c, 1, 60, 85
3, 17086, Note_on_c, 1, 60, 0
3, 17088, Note_on_c, 1, 62, 85
3, 17182, Note_on_c, 1, 62, 0
3, 17184, Note_on_c, 1, 63, 85
3, 17278, Note_on_c, 1, 63, 0
3, 17280, Note_on_c, 1, 57, 85
3, 18142, Note_on_c, 1, 57, 0
3, 18144, Note_on_c, 1, 55, 85
3, 18238, Note_on_c, 1, 55, 0
3, 18240, Note_on_c, 1, 54, 85
3, 18334, Note_on_c, 1, 54, 0
3, 18336, Note_on_c, 1, 52, 85
3, 18430, Note_on_c, 1, 52, 0
3, 18432, Note_on_c, 1, 54, 85
3, 18526, Note_on_c, 1, 54, 0
3, 18528, Note_on_c, 1, 52, 85
3, 18622, Note_on_c, 1, 52, 0
3, 18624, Note_on_c, 1, 50, 85
3, 18718, Note_on_c, 1, 50, 0
3, 18720, Note_on_c, 1, 49, 85
3, 18814, Note_on_c, 1, 49, 0
3, 18816, Note_on_c, 1, 50, 85
3, 18910, Note_on_c, 1, 50, 0
3, 18912, Note_on_c, 1, 57, 85
3, 19006, Note_on_c, 1, 57, 0
3, 19008, Note_on_c, 1, 59, 85
3, 19102, Note_on_c, 1, 59, 0
3, 19104, Note_on_c, 1, 61, 85
3, 19198, Note_on_c, 1, 61, 0
3, 19200, Note_on_c, 1, 62, 85
3, 19294, Note_on_c, 1, 62, 0
3, 19296, Note_on_c, 1, 61, 85
3, 19390, Note_on_c, 1, 61, 0
3, 19392, Note_on_c, 1, 62, 85
3, 19486, Note_on_c, 1, 62, 0
3, 19488, Note_on_c, 1, 64, 85
3, 19582, Note_on_c, 1, 64, 0
3, 19584, Note_on_c, 1, 66, 85
3, 19678, Note_on_c, 1, 66, 0
3, 19680, Note_on_c, 1, 64, 85
3, 19774, Note_on_c, 1, 64, 0
3, 19776, Note_on_c, 1, 62, 85
3, 19870, Note_on_c, 1, 62, 0
3, 19872, Note_on_c, 1, 61, 85
3, 19966, Note_on_c, 1, 61, 0
3, 19968, Note_on_c, 1, 62, 85
3, 20062, Note_on_c, 1, 62, 0
3, 20064, Note_on_c, 1, 63, 85
3, 20158, Note_on_c, 1, 63, 0
3, 20160, Note_on_c, 1, 62, 85
3, 20254, Note_on_c, 1, 62, 0
3, 20256, Note_on_c, 1, 60, 85
3, 20350, Note_on_c, 1, 60, 0
3, 20352, Note_on_c, 1, 58, 85
3, 20446, Note_on_c, 1, 58, 0
3, 20448, Note_on_c, 1, 57, 85
3, 20542, Note_on_c, 1, 57, 0
3, 20544, Note_on_c, 1, 55, 85
3, 20638, Note_on_c, 1, 55, 0
3, 20640, Note_on_c, 1, 58, 85
3, 20734, Note_on_c, 1, 58, 0
3, 20736, Note_on_c, 1, 57, 85
3, 20830, Note_on_c, 1, 57, 0
3, 20832, Note_on_c, 1, 55, 85
3, 20926, Note_on_c, 1, 55, 0
3, 20928, Note_on_c, 1, 57, 85
3, 21022, Note_on_c, 1, 57, 0
3, 21024, Note_on_c, 1, 58, 85
3, 21118, Note_on_c, 1, 58, 0
3, 21120, Note_on_c, 1, 60, 85
3, 21214, Note_on_c, 1, 60, 0
3, 21216, Note_on_c, 1, 62, 85
3, 21310, Note_on_c, 1, 62, 0
3, 21312, Note_on_c, 1, 63, 85
3, 21598, Note_on_c, 1, 63, 0
3, 21600, Note_on_c, 1, 63, 85
3, 21694, Note_on_c, 1, 63, 0
3, 21696, Note_on_c, 1, 62, 85
3, 21790, Note_on_c, 1, 62, 0
3, 21792, Note_on_c, 1, 60, 85
3, 21886, Note_on_c, 1, 60, 0
3, 21888, Note_on_c, 1, 58, 85
3, 22270, Note_on_c, 1, 58, 0
3, 22272, Note_on_c, 1, 57, 85
3, 22750, Note_on_c, 1, 57, 0
3, 22752, Note_on_c, 1, 60, 85
3, 22846, Note_on_c, 1, 60, 0
3, 22848, Note_on_c, 1, 58, 85
3, 22942, Note_on_c, 1, 58, 0
3, 22944, Note_on_c, 1, 57, 85
3, 23038, Note_on_c, 1, 57, 0
3, 23040, Note_on_c, 1, 58, 85
3, 23422, Note_on_c, 1, 58, 0
3, 23520, Note_on_c, 1, 55, 85
3, 23614, Note_on_c, 1, 55, 0
3, 23616, Note_on_c, 1, 57, 85
3, 23710, Note_on_c, 1, 57, 0
3, 23712, Note_on_c, 1, 58, 85
3, 23806, Note_on_c, 1, 58, 0
3, 23808, Note_on_c, 1, 52, 85
3, 24190, Note_on_c, 1, 52, 0
3, 24192, Note_on_c, 1, 53, 85
3, 24574, Note_on_c, 1, 53, 0
3, 24672, Note_on_c, 1, 58, 85
3, 24766, Note_on_c, 1, 58, 0
3, 24768, Note_on_c, 1, 57, 85
3, 24862, Note_on_c, 1, 57, 0
3, 24864, Note_on_c, 1, 55, 85
3, 24958, Note_on_c, 1, 55, 0
3, 24960, Note_on_c, 1, 53, 85
3, 25150, Note_on_c, 1, 53, 0
3, 25152, Note_on_c, 1, 55, 85
3, 25630, Note_on_c, 1, 55, 0
3, 25632, Note_on_c, 1, 58, 85
3, 25726, Note_on_c, 1, 58, 0
3, 25728, Note_on_c, 1, 57, 85
3, 25822, Note_on_c, 1, 57, 0
3, 25824, Note_on_c, 1, 58, 85
3, 25918, Note_on_c, 1, 58, 0
3, 25920, Note_on_c, 1, 57, 85
3, 26014, Note_on_c, 1, 57, 0
3, 26016, Note_on_c, 1, 55, 85
3, 26110, Note_on_c, 1, 55, 0
3, 26112, Note_on_c, 1, 53, 85
3, 26302, Note_on_c, 1, 53, 0
3, 26304, Note_on_c, 1, 62, 85
3, 26494, Note_on_c, 1, 62, 0
3, 26496, Note_on_c, 1, 67, 85
3, 27358, Note_on_c, 1, 67, 0
3, 27360, Note_on_c, 1, 67, 85
3, 27454, Note_on_c, 1, 67, 0
3, 27456, Note_on_c, 1, 66, 85
3, 27550, Note_on_c, 1, 66, 0
3, 27552, Note_on_c, 1, 64, 85
3, 27646, Note_on_c, 1, 64, 0
3, 27648, Note_on_c, 1, 62, 85
3, 27742, Note_on_c, 1, 62, 0
3, 27744, Note_on_c, 1, 58, 85
3, 27838, Note_on_c, 1, 58, 0
3, 27840, Note_on_c, 1, 57, 85
3, 27934, Note_on_c, 1, 57, 0
3, 27936, Note_on_c, 1, 55, 85
3, 28030, Note_on_c, 1, 55, 0
3, 28032, Note_on_c, 1, 54, 85
3, 28126, Note_on_c, 1, 54, 0
3, 28128, Note_on_c, 1, 55, 85
3, 28222, Note_on_c, 1, 55, 0
3, 28224, Note_on_c, 1, 54, 85
3, 28318, Note_on_c, 1, 54, 0
3, 28320, Note_on_c, 1, 52, 85
3, 28414, Note_on_c, 1, 52, 0
3, 28416, Note_on_c, 1, 50, 85
3, 28702, Note_on_c, 1, 50, 0
3, 28704, Note_on_c, 1, 60, 85
3, 28798, Note_on_c, 1, 60, 0
3, 28800, Note_on_c, 1, 62, 85
3, 29086, Note_on_c, 1, 62, 0
3, 29088, Note_on_c, 1, 60, 85
3, 29182, Note_on_c, 1, 60, 0
3, 29184, Note_on_c, 1, 58, 85
3, 29470, Note_on_c, 1, 58, 0
3, 29472, Note_on_c, 1, 60, 85
3, 29566, Note_on_c, 1, 60, 0
3, 29568, Note_on_c, 1, 62, 85
3, 29758, Note_on_c, 1, 62, 0
3, 30624, Note_on_c, 1, 61, 85
3, 30718, Note_on_c, 1, 61, 0
3, 30720, Note_on_c, 1, 62, 85
3, 30814, Note_on_c, 1, 62, 0
3, 30816, Note_on_c, 1, 57, 85
3, 30910, Note_on_c, 1, 57, 0
3, 30912, Note_on_c, 1, 58, 85
3, 31006, Note_on_c, 1, 58, 0
3, 31008, Note_on_c, 1, 55, 85
3, 31102, Note_on_c, 1, 55, 0
3, 31104, Note_on_c, 1, 62, 85
3, 31870, Note_on_c, 1, 62, 0
3, 31870, End_track
4, 0, Start_track
4, 0, MIDI_port, 0
4, 0, Title_t, "Pedale"
4, 1728, Note_on_c, 2, 55, 85
4, 1918, Note_on_c, 2, 55, 0
4, 1920, Note_on_c, 2, 51, 85
4, 2110, Note_on_c, 2, 51, 0
4, 2112, Note_on_c, 2, 53, 85
4, 2302, Note_on_c, 2, 53, 0
4, 2304, Note_on_c, 2, 46, 85
4, 2686, Note_on_c, 2, 46, 0
4, 2880, Note_on_c, 2, 46, 85
4, 3070, Note_on_c, 2, 46, 0
4, 3072, Note_on_c, 2, 53, 85
4, 3262, Note_on_c, 2, 53, 0
4, 3264, Note_on_c, 2, 50, 85
4, 3454, Note_on_c, 2, 50, 0
4, 3456, Note_on_c, 2, 55, 85
4, 3934, Note_on_c, 2, 55, 0
4, 3936, Note_on_c, 2, 50, 85
4, 4030, Note_on_c, 2, 50, 0
4, 4032, Note_on_c, 2, 51, 85
4, 4126, Note_on_c, 2, 51, 0
4, 4128, Note_on_c, 2, 48, 85
4, 4222, Note_on_c, 2, 48, 0
4, 4224, Note_on_c, 2, 53, 85
4, 4414, Note_on_c, 2, 53, 0
4, 4416, Note_on_c, 2, 41, 85
4, 4606, Note_on_c, 2, 41, 0
4, 4608, Note_on_c, 2, 46, 85
4, 5374, Note_on_c, 2, 46, 0
4, 6336, Note_on_c, 2, 55, 85
4, 6526, Note_on_c, 2, 55, 0
4, 6528, Note_on_c, 2, 50, 85
4, 6718, Note_on_c, 2, 50, 0
4, 6720, Note_on_c, 2, 51, 85
4, 6910, Note_on_c, 2, 51, 0
4, 6912, Note_on_c, 2, 45, 85
4, 7294, Note_on_c, 2, 45, 0
4, 7488, Note_on_c, 2, 45, 85
4, 7678, Note_on_c, 2, 45, 0
4, 7680, Note_on_c, 2, 50, 85
4, 7870, Note_on_c, 2, 50, 0
4, 7872, Note_on_c, 2, 46, 85
4, 8062, Note_on_c, 2, 46, 0
4, 8064, Note_on_c, 2, 51, 85
4, 8158, Note_on_c, 2, 51, 0
4, 8160, Note_on_c, 2, 46, 85
4, 8254, Note_on_c, 2, 46, 0
4, 8256, Note_on_c, 2, 48, 85
4, 8350, Note_on_c, 2, 48, 0
4, 8352, Note_on_c, 2, 45, 85
4, 8446, Note_on_c, 2, 45, 0
4, 8448, Note_on_c, 2, 50, 85
4, 8830, Note_on_c, 2, 50, 0
4, 8832, Note_on_c, 2, 38, 85
4, 9214, Note_on_c, 2, 38, 0
4, 9216, Note_on_c, 2, 43, 85
4, 9982, Note_on_c, 2, 43, 0
4, 10944, Note_on_c, 2, 55, 85
4, 11134, Note_on_c, 2, 55, 0
4, 11136, Note_on_c, 2, 51, 85
4, 11326, Note_on_c, 2, 51, 0
4, 11328, Note_on_c, 2, 53, 85
4, 11518, Note_on_c, 2, 53, 0
4, 11520, Note_on_c, 2, 46, 85
4, 11902, Note_on_c, 2, 46, 0
4, 12096, Note_on_c, 2, 43, 85
4, 12286, Note_on_c, 2, 43, 0
4, 12288, Note_on_c, 2, 50, 85
4, 12478, Note_on_c, 2, 50, 0
4, 12480, Note_on_c, 2, 46, 85
4, 12670, Note_on_c, 2, 46, 0
4, 12672, Note_on_c, 2, 55, 85
4, 13150, Note_on_c, 2, 55, 0
4, 13152, Note_on_c, 2, 50, 85
4, 13248, Note_on_c, 2, 50, 0
4, 13248, Note_on_c, 2, 51, 85
4, 13344, Note_on_c, 2, 51, 0
4, 13344, Note_on_c, 2, 50, 85
4, 13438, Note_on_c, 2, 50, 0
4, 13440, Note_on_c, 2, 53, 85
4, 13630, Note_on_c, 2, 53, 0
4, 13632, Note_on_c, 2, 41, 85
4, 13822, Note_on_c, 2, 41, 0
4, 13824, Note_on_c, 2, 46, 85
4, 14590, Note_on_c, 2, 46, 0
4, 15552, Note_on_c, 2, 58, 85
4, 15742, Note_on_c, 2, 58, 0
4, 15744, Note_on_c, 2, 51, 85
4, 15934, Note_on_c, 2, 51, 0
4, 15936, Note_on_c, 2, 53, 85
4, 16126, Note_on_c, 2, 53, 0
4, 16128, Note_on_c, 2, 46, 85
4, 16510, Note_on_c, 2, 46, 0
4, 16704, Note_on_c, 2, 46, 85
4, 16894, Note_on_c, 2, 46, 0
4, 16896, Note_on_c, 2, 51, 85
4, 17086, Note_on_c, 2, 51, 0
4, 17088, Note_on_c, 2, 48, 85
4, 17278, Note_on_c, 2, 48, 0
4, 17280, Note_on_c, 2, 54, 85
4, 17758, Note_on_c, 2, 54, 0
4, 17760, Note_on_c, 2, 52, 85
4, 17854, Note_on_c, 2, 52, 0
4, 17856, Note_on_c, 2, 54, 85
4, 17950, Note_on_c, 2, 54, 0
4, 17952, Note_on_c, 2, 50, 85
4, 18046, Note_on_c, 2, 50, 0
4, 18048, Note_on_c, 2, 55, 85
4, 18238, Note_on_c, 2, 55, 0
4, 18240, Note_on_c, 2, 43, 85
4, 18430, Note_on_c, 2, 43, 0
4, 18432, Note_on_c, 2, 50, 85
4, 19198, Note_on_c, 2, 50, 0
4, 20160, Note_on_c, 2, 57, 85
4, 20350, Note_on_c, 2, 57, 0
4, 20352, Note_on_c, 2, 50, 85
4, 20542, Note_on_c, 2, 50, 0
4, 20544, Note_on_c, 2, 51, 85
4, 20734, Note_on_c, 2, 51, 0
4, 20736, Note_on_c, 2, 45, 85
4, 21118, Note_on_c, 2, 45, 0
4, 21312, Note_on_c, 2, 45, 85
4, 21502, Note_on_c, 2, 45, 0
4, 21504, Note_on_c, 2, 50, 85
4, 21694, Note_on_c, 2, 50, 0
4, 21696, Note_on_c, 2, 46, 85
4, 21886, Note_on_c, 2, 46, 0
4, 21888, Note_on_c, 2, 51, 85
4, 21982, Note_on_c, 2, 51, 0
4, 21984, Note_on_c, 2, 46, 85
4, 22078, Note_on_c, 2, 46, 0
4, 22080, Note_on_c, 2, 48, 85
4, 22174, Note_on_c, 2, 48, 0
4, 22176, Note_on_c, 2, 45, 85
4, 22270, Note_on_c, 2, 45, 0
4, 22272, Note_on_c, 2, 50, 85
4, 22654, Note_on_c, 2, 50, 0
4, 22656, Note_on_c, 2, 38, 85
4, 23038, Note_on_c, 2, 38, 0
4, 23040, Note_on_c, 2, 43, 85
4, 23806, Note_on_c, 2, 43, 0
4, 24768, Note_on_c, 2, 53, 85
4, 24958, Note_on_c, 2, 53, 0
4, 24960, Note_on_c, 2, 50, 85
4, 25150, Note_on_c, 2, 50, 0
4, 25152, Note_on_c, 2, 51, 85
4, 25342, Note_on_c, 2, 51, 0
4, 25344, Note_on_c, 2, 45, 85
4, 25726, Note_on_c, 2, 45, 0
4, 25920, Note_on_c, 2, 53, 85
4, 26110, Note_on_c, 2, 53, 0
4, 26112, Note_on_c, 2, 58, 85
4, 26206, Note_on_c, 2, 58, 0
4, 26208, Note_on_c, 2, 57, 85
4, 26302, Note_on_c, 2, 57, 0
4, 26304, Note_on_c, 2, 58, 85
4, 26398, Note_on_c, 2, 58, 0
4, 26400, Note_on_c, 2, 57, 85
4, 26494, Note_on_c, 2, 57, 0
4, 26496, Note_on_c, 2, 58, 85
4, 26590, Note_on_c, 2, 58, 0
4, 26592, Note_on_c, 2, 53, 85
4, 26686, Note_on_c, 2, 53, 0
4, 26688, Note_on_c, 2, 55, 85
4, 26782, Note_on_c, 2, 55, 0
4, 26784, Note_on_c, 2, 52, 85
4, 26878, Note_on_c, 2, 52, 0
4, 26880, Note_on_c, 2, 57, 85
4, 27262, Note_on_c, 2, 57, 0
4, 27264, Note_on_c, 2, 45, 85
4, 27646, Note_on_c, 2, 45, 0
4, 27648, Note_on_c, 2, 50, 85
4, 28030, Note_on_c, 2, 50, 0
4, 28224, Note_on_c, 2, 50, 85
4, 28414, Note_on_c, 2, 50, 0
4, 28416, Note_on_c, 2, 62, 85
4, 28510, Note_on_c, 2, 62, 0
4, 28512, Note_on_c, 2, 60, 85
4, 28606, Note_on_c, 2, 60, 0
4, 28608, Note_on_c, 2, 62, 85
4, 28702, Note_on_c, 2, 62, 0
4, 28704, Note_on_c, 2, 57, 85
4, 28798, Note_on_c, 2, 57, 0
4, 28800, Note_on_c, 2, 58, 85
4, 28894, Note_on_c, 2, 58, 0
4, 28896, Note_on_c, 2, 57, 85
4, 28990, Note_on_c, 2, 57, 0
4, 28992, Note_on_c, 2, 58, 85
4, 29086, Note_on_c, 2, 58, 0
4, 29088, Note_on_c, 2, 54, 85
4, 29182, Note_on_c, 2, 54, 0
4, 29184, Note_on_c, 2, 55, 85
4, 29278, Note_on_c, 2, 55, 0
4, 29280, Note_on_c, 2, 48, 85
4, 29374, Note_on_c, 2, 48, 0
4, 29376, Note_on_c, 2, 50, 85
4, 29470, Note_on_c, 2, 50, 0
4, 29472, Note_on_c, 2, 45, 85
4, 29566, Note_on_c, 2, 45, 0
4, 29568, Note_on_c, 2, 46, 85
4, 29662, Note_on_c, 2, 46, 0
4, 29664, Note_on_c, 2, 42, 85
4, 29758, Note_on_c, 2, 42, 0
4, 29760, Note_on_c, 2, 43, 85
4, 29854, Note_on_c, 2, 43, 0
4, 29856, Note_on_c, 2, 49, 85
4, 29950, Note_on_c, 2, 49, 0
4, 29952, Note_on_c, 2, 50, 85
4, 31486, Note_on_c, 2, 50, 0
4, 31488, Note_on_c, 2, 38, 85
4, 31870, Note_on_c, 2, 38, 0
4, 31870, End_track
5, 0, Start_track
5, 0, MIDI_port, 0
5, 0, Title_t, "Unioni I-II al pedale"
5, 0, End_track
6, 0, Start_track
6, 0, MIDI_port, 0
6, 0, Title_t, "Registrazione (Stops)"
6, 0, End_track
0, 0, End_of_file
