0, 0, Header, 1, 13, 120
1, 0, Start_track
1, 0, Sequencer_specific, 10, 0, 0, 91, 35, 1, 0, 5, 4, 35, 0
1, 0, Instrument_name_t, "Conductor Track"
1, 0, SMPTE_offset, 96, 0, 3, 0, 0
1, 0, MIDI_port, 0
1, 0, Tempo, 2000000
1, 0, Time_signature, 2, 3, 12, 8
1, 120, Time_signature, 8, 3, 12, 8
1, 22800, Tempo, 2222222
1, 22860, Tempo, 2400000
1, 22980, Tempo, 2222222
1, 23040, Tempo, 2000000
1, 23040, End_track
2, 0, Start_track
2, 0, Title_t, "Accomp"
2, 0, MIDI_port, 0
2, 0, Control_c, 0, 7, 101
2, 0, Control_c, 0, 10, 59
2, 0, Program_c, 0, 73
2, 52, Note_on_c, 0, 57, 80
2, 85, Note_on_c, 0, 59, 80
2, 87, Note_on_c, 0, 57, 0
2, 114, Note_on_c, 0, 61, 80
2, 116, Note_on_c, 0, 59, 0
2, 162, Note_on_c, 0, 61, 0
2, 172, Note_on_c, 0, 66, 80
2, 214, Note_on_c, 0, 64, 80
2, 215, Note_on_c, 0, 66, 0
2, 229, Note_on_c, 0, 64, 0
2, 229, Note_on_c, 0, 62, 80
2, 272, Note_on_c, 0, 61, 80
2, 274, Note_on_c, 0, 62, 0
2, 288, Note_on_c, 0, 61, 0
2, 288, Note_on_c, 0, 59, 80
2, 333, Note_on_c, 0, 57, 80
2, 334, Note_on_c, 0, 59, 0
2, 352, Note_on_c, 0, 56, 80
2, 354, Note_on_c, 0, 57, 0
2, 413, Note_on_c, 0, 56, 0
2, 413, Note_on_c, 0, 64, 80
2, 471, Note_on_c, 0, 66, 80
2, 536, Note_on_c, 0, 62, 80
2, 537, Note_on_c, 0, 69, 80
2, 538, Note_on_c, 0, 64, 0
2, 538, Note_on_c, 0, 66, 0
2, 552, Note_on_c, 0, 68, 80
2, 553, Note_on_c, 0, 69, 0
2, 593, Note_on_c, 0, 61, 80
2, 593, Note_on_c, 0, 69, 80
2, 594, Note_on_c, 0, 68, 0
2, 596, Note_on_c, 0, 62, 0
2, 623, Note_on_c, 0, 64, 80
2, 624, Note_on_c, 0, 69, 0
2, 651, Note_on_c, 0, 64, 0
2, 651, Note_on_c, 0, 69, 80
2, 708, Note_on_c, 0, 59, 80
2, 709, Note_on_c, 0, 61, 0
2, 771, Note_on_c, 0, 68, 80
2, 773, Note_on_c, 0, 69, 0
2, 805, Note_on_c, 0, 69, 80
2, 806, Note_on_c, 0, 68, 0
2, 812, Note_on_c, 0, 68, 80
2, 813, Note_on_c, 0, 69, 0
2, 814, Note_on_c, 0, 66, 80
2, 815, Note_on_c, 0, 68, 0
2, 820, Note_on_c, 0, 68, 80
2, 821, Note_on_c, 0, 66, 0
2, 826, Note_on_c, 0, 61, 80
2, 827, Note_on_c, 0, 69, 80
2, 828, Note_on_c, 0, 59, 0
2, 828, Note_on_c, 0, 68, 0
2, 871, Note_on_c, 0, 61, 0
2, 886, Note_on_c, 0, 64, 80
2, 887, Note_on_c, 0, 69, 0
2, 918, Note_on_c, 0, 64, 0
2, 918, Note_on_c, 0, 62, 80
2, 918, Note_on_c, 0, 59, 80
2, 949, Note_on_c, 0, 61, 80
2, 949, Note_on_c, 0, 64, 80
2, 950, Note_on_c, 0, 62, 0
2, 951, Note_on_c, 0, 59, 0
2, 982, Note_on_c, 0, 64, 0
2, 982, Note_on_c, 0, 66, 80
2, 982, Note_on_c, 0, 63, 80
2, 983, Note_on_c, 0, 61, 0
2, 1003, Note_on_c, 0, 66, 0
2, 1014, Note_on_c, 0, 63, 0
2, 1014, Note_on_c, 0, 68, 80
2, 1014, Note_on_c, 0, 64, 80
2, 1025, Note_on_c, 0, 63, 80
2, 1026, Note_on_c, 0, 64, 0
2, 1027, Note_on_c, 0, 68, 0
2, 1028, Note_on_c, 0, 66, 80
2, 1032, Note_on_c, 0, 63, 0
2, 1033, Note_on_c, 0, 66, 0
2, 1033, Note_on_c, 0, 64, 80
2, 1033, Note_on_c, 0, 68, 80
2, 1037, Note_on_c, 0, 68, 0
2, 1038, Note_on_c, 0, 63, 80
2, 1038, Note_on_c, 0, 66, 80
2, 1039, Note_on_c, 0, 64, 0
2, 1041, Note_on_c, 0, 66, 0
2, 1041, Note_on_c, 0, 68, 80
2, 1044, Note_on_c, 0, 68, 0
2, 1044, Note_on_c, 0, 66, 80
2, 1046, Note_on_c, 0, 63, 0
2, 1046, Note_on_c, 0, 61, 80
2, 1052, Note_on_c, 0, 66, 0
2, 1052, Note_on_c, 0, 64, 80
2, 1054, Note_on_c, 0, 63, 80
2, 1055, Note_on_c, 0, 61, 0
2, 1059, Note_on_c, 0, 66, 80
2, 1060, Note_on_c, 0, 64, 0
2, 1070, Note_on_c, 0, 66, 0
2, 1071, Note_on_c, 0, 68, 80
2, 1072, Note_on_c, 0, 63, 0
2, 1072, Note_on_c, 0, 64, 80
2, 1121, Note_on_c, 0, 68, 0
2, 1127, Note_on_c, 0, 69, 80
2, 1132, Note_on_c, 0, 69, 0
2, 1133, Note_on_c, 0, 71, 80
2, 1137, Note_on_c, 0, 73, 80
2, 1138, Note_on_c, 0, 71, 0
2, 1180, Note_on_c, 0, 73, 0
2, 1181, Note_on_c, 0, 71, 80
2, 1196, Note_on_c, 0, 71, 0
2, 1196, Note_on_c, 0, 69, 80
2, 1197, Note_on_c, 0, 61, 80
2, 1199, Note_on_c, 0, 64, 0
2, 1244, Note_on_c, 0, 68, 80
2, 1245, Note_on_c, 0, 69, 0
2, 1259, Note_on_c, 0, 68, 0
2, 1259, Note_on_c, 0, 66, 80
2, 1300, Note_on_c, 0, 66, 0
2, 1300, Note_on_c, 0, 64, 80
2, 1318, Note_on_c, 0, 63, 80
2, 1321, Note_on_c, 0, 64, 0
2, 1365, Note_on_c, 0, 63, 0
2, 1375, Note_on_c, 0, 59, 80
2, 1375, Note_on_c, 0, 71, 80
2, 1377, Note_on_c, 0, 61, 0
2, 1432, Note_on_c, 0, 61, 80
2, 1435, Note_on_c, 0, 59, 0
2, 1496, Note_on_c, 0, 61, 0
2, 1496, Note_on_c, 0, 64, 80
2, 1496, Note_on_c, 0, 69, 80
2, 1497, Note_on_c, 0, 71, 0
2, 1513, Note_on_c, 0, 63, 80
2, 1514, Note_on_c, 0, 64, 0
2, 1556, Note_on_c, 0, 68, 80
2, 1557, Note_on_c, 0, 64, 80
2, 1558, Note_on_c, 0, 69, 0
2, 1558, Note_on_c, 0, 63, 0
2, 1585, Note_on_c, 0, 59, 80
2, 1587, Note_on_c, 0, 64, 0
2, 1616, Note_on_c, 0, 64, 80
2, 1617, Note_on_c, 0, 59, 0
2, 1670, Note_on_c, 0, 68, 0
2, 1670, Note_on_c, 0, 66, 80
2, 1731, Note_on_c, 0, 64, 0
2, 1731, Note_on_c, 0, 63, 80
2, 1758, Note_on_c, 0, 63, 0
2, 1759, Note_on_c, 0, 64, 80
2, 1764, Note_on_c, 0, 63, 80
2, 1765, Note_on_c, 0, 64, 0
2, 1771, Note_on_c, 0, 63, 0
2, 1771, Note_on_c, 0, 61, 80
2, 1779, Note_on_c, 0, 61, 0
2, 1779, Note_on_c, 0, 63, 80
2, 1792, Note_on_c, 0, 66, 0
2, 1792, Note_on_c, 0, 68, 80
2, 1793, Note_on_c, 0, 63, 0
2, 1793, Note_on_c, 0, 64, 80
2, 1829, Note_on_c, 0, 64, 0
2, 1850, Note_on_c, 0, 59, 80
2, 1881, Note_on_c, 0, 68, 0
2, 1881, Note_on_c, 0, 66, 80
2, 1882, Note_on_c, 0, 57, 80
2, 1884, Note_on_c, 0, 59, 0
2, 1910, Note_on_c, 0, 59, 80
2, 1911, Note_on_c, 0, 68, 80
2, 1912, Note_on_c, 0, 66, 0
2, 1912, Note_on_c, 0, 57, 0
2, 1941, Note_on_c, 0, 61, 80
2, 1942, Note_on_c, 0, 59, 0
2, 1942, Note_on_c, 0, 68, 0
2, 1942, Note_on_c, 0, 70, 80
2, 1961, Note_on_c, 0, 70, 0
2, 1973, Note_on_c, 0, 71, 80
2, 1974, Note_on_c, 0, 61, 0
2, 1974, Note_on_c, 0, 62, 80
2, 1981, Note_on_c, 0, 71, 0
2, 1981, Note_on_c, 0, 70, 80
2, 1984, Note_on_c, 0, 61, 80
2, 1985, Note_on_c, 0, 62, 0
2, 1988, Note_on_c, 0, 70, 0
2, 1988, Note_on_c, 0, 71, 80
2, 1991, Note_on_c, 0, 61, 0
2, 1991, Note_on_c, 0, 62, 80
2, 1993, Note_on_c, 0, 71, 0
2, 1994, Note_on_c, 0, 70, 80
2, 1997, Note_on_c, 0, 61, 80
2, 1998, Note_on_c, 0, 62, 0
2, 1998, Note_on_c, 0, 70, 0
2, 1998, Note_on_c, 0, 71, 80
2, 2002, Note_on_c, 0, 61, 0
2, 2002, Note_on_c, 0, 62, 80
2, 2003, Note_on_c, 0, 71, 0
2, 2004, Note_on_c, 0, 71, 80
2, 2005, Note_on_c, 0, 61, 80
2, 2006, Note_on_c, 0, 62, 0
2, 2008, Note_on_c, 0, 71, 0
2, 2008, Note_on_c, 0, 70, 80
2, 2010, Note_on_c, 0, 61, 0
2, 2011, Note_on_c, 0, 59, 80
2, 2016, Note_on_c, 0, 70, 0
2, 2017, Note_on_c, 0, 68, 80
2, 2019, Note_on_c, 0, 61, 80
2, 2020, Note_on_c, 0, 59, 0
2, 2022, Note_on_c, 0, 68, 0
2, 2022, Note_on_c, 0, 70, 80
2, 2028, Note_on_c, 0, 62, 80
2, 2029, Note_on_c, 0, 61, 0
2, 2031, Note_on_c, 0, 71, 80
2, 2032, Note_on_c, 0, 70, 0
2, 2062, Note_on_c, 0, 71, 0
2, 2063, Note_on_c, 0, 61, 80
2, 2063, Note_on_c, 0, 70, 80
2, 2064, Note_on_c, 0, 62, 0
2, 2093, Note_on_c, 0, 71, 80
2, 2094, Note_on_c, 0, 61, 0
2, 2094, Note_on_c, 0, 70, 0
2, 2094, Note_on_c, 0, 62, 80
2, 2124, Note_on_c, 0, 71, 0
2, 2124, Note_on_c, 0, 62, 0
2, 2124, Note_on_c, 0, 64, 80
2, 2124, Note_on_c, 0, 73, 80
2, 2156, Note_on_c, 0, 66, 80
2, 2156, Note_on_c, 0, 74, 80
2, 2158, Note_on_c, 0, 64, 0
2, 2158, Note_on_c, 0, 73, 0
2, 2186, Note_on_c, 0, 68, 80
2, 2187, Note_on_c, 0, 66, 0
2, 2218, Note_on_c, 0, 68, 0
2, 2218, Note_on_c, 0, 69, 80
2, 2227, Note_on_c, 0, 68, 80
2, 2228, Note_on_c, 0, 69, 0
2, 2235, Note_on_c, 0, 68, 0
2, 2235, Note_on_c, 0, 69, 80
2, 2241, Note_on_c, 0, 69, 0
2, 2241, Note_on_c, 0, 68, 80
2, 2245, Note_on_c, 0, 68, 0
2, 2245, Note_on_c, 0, 69, 80
2, 2249, Note_on_c, 0, 68, 80
2, 2250, Note_on_c, 0, 69, 0
2, 2254, Note_on_c, 0, 68, 0
2, 2255, Note_on_c, 0, 66, 80
2, 2263, Note_on_c, 0, 68, 80
2, 2264, Note_on_c, 0, 66, 0
2, 2278, Note_on_c, 0, 68, 0
2, 2278, Note_on_c, 0, 69, 80
2, 2306, Note_on_c, 0, 74, 0
2, 2306, Note_on_c, 0, 78, 80
2, 2335, Note_on_c, 0, 78, 0
2, 2336, Note_on_c, 0, 76, 80
2, 2336, Note_on_c, 0, 71, 80
2, 2337, Note_on_c, 0, 69, 0
2, 2366, Note_on_c, 0, 74, 80
2, 2367, Note_on_c, 0, 76, 0
2, 2396, Note_on_c, 0, 74, 0
2, 2396, Note_on_c, 0, 73, 80
2, 2422, Note_on_c, 0, 73, 0
2, 2426, Note_on_c, 0, 74, 80
2, 2451, Note_on_c, 0, 74, 0
2, 2455, Note_on_c, 0, 76, 80
2, 2456, Note_on_c, 0, 69, 80
2, 2458, Note_on_c, 0, 71, 0
2, 2465, Note_on_c, 0, 74, 80
2, 2467, Note_on_c, 0, 76, 0
2, 2474, Note_on_c, 0, 74, 0
2, 2474, Note_on_c, 0, 76, 80
2, 2479, Note_on_c, 0, 74, 80
2, 2481, Note_on_c, 0, 76, 0
2, 2484, Note_on_c, 0, 74, 0
2, 2485, Note_on_c, 0, 76, 80
2, 2486, Note_on_c, 0, 74, 80
2, 2488, Note_on_c, 0, 76, 0
2, 2492, Note_on_c, 0, 74, 0
2, 2492, Note_on_c, 0, 73, 80
2, 2499, Note_on_c, 0, 73, 0
2, 2499, Note_on_c, 0, 74, 80
2, 2514, Note_on_c, 0, 74, 0
2, 2515, Note_on_c, 0, 76, 80
2, 2516, Note_on_c, 0, 68, 80
2, 2518, Note_on_c, 0, 69, 0
2, 2542, Note_on_c, 0, 76, 0
2, 2547, Note_on_c, 0, 73, 80
2, 2575, Note_on_c, 0, 73, 0
2, 2576, Note_on_c, 0, 71, 80
2, 2604, Note_on_c, 0, 71, 0
2, 2604, Note_on_c, 0, 69, 80
2, 2633, Note_on_c, 0, 71, 80
2, 2634, Note_on_c, 0, 66, 80
2, 2635, Note_on_c, 0, 68, 0
2, 2635, Note_on_c, 0, 69, 0
2, 2664, Note_on_c, 0, 73, 80
2, 2665, Note_on_c, 0, 71, 0
2, 2683, Note_on_c, 0, 73, 0
2, 2693, Note_on_c, 0, 74, 80
2, 2700, Note_on_c, 0, 74, 0
2, 2700, Note_on_c, 0, 73, 80
2, 2706, Note_on_c, 0, 73, 0
2, 2707, Note_on_c, 0, 74, 80
2, 2711, Note_on_c, 0, 74, 0
2, 2712, Note_on_c, 0, 73, 80
2, 2715, Note_on_c, 0, 73, 0
2, 2715, Note_on_c, 0, 74, 80
2, 2720, Note_on_c, 0, 73, 80
2, 2723, Note_on_c, 0, 73, 0
2, 2726, Note_on_c, 0, 73, 80
2, 2727, Note_on_c, 0, 74, 0
2, 2732, Note_on_c, 0, 73, 0
2, 2732, Note_on_c, 0, 71, 80
2, 2741, Note_on_c, 0, 71, 0
2, 2741, Note_on_c, 0, 73, 80
2, 2751, Note_on_c, 0, 73, 0
2, 2751, Note_on_c, 0, 74, 80
2, 2780, Note_on_c, 0, 74, 0
2, 2781, Note_on_c, 0, 71, 80
2, 2811, Note_on_c, 0, 71, 0
2, 2811, Note_on_c, 0, 64, 80
2, 2811, Note_on_c, 0, 69, 80
2, 2812, Note_on_c, 0, 66, 0
2, 2840, Note_on_c, 0, 69, 0
2, 2840, Note_on_c, 0, 68, 80
2, 2868, Note_on_c, 0, 69, 80
2, 2869, Note_on_c, 0, 68, 0
2, 2900, Note_on_c, 0, 69, 0
2, 2900, Note_on_c, 0, 71, 80
2, 2928, Note_on_c, 0, 71, 0
2, 2928, Note_on_c, 0, 68, 80
2, 2928, Note_on_c, 0, 73, 80
2, 2929, Note_on_c, 0, 64, 0
2, 2939, Note_on_c, 0, 71, 80
2, 2940, Note_on_c, 0, 73, 0
2, 2946, Note_on_c, 0, 71, 0
2, 2946, Note_on_c, 0, 73, 80
2, 2951, Note_on_c, 0, 73, 0
2, 2951, Note_on_c, 0, 71, 80
2, 2956, Note_on_c, 0, 71, 0
2, 2956, Note_on_c, 0, 73, 80
2, 2958, Note_on_c, 0, 73, 0
2, 2960, Note_on_c, 0, 71, 80
2, 2961, Note_on_c, 0, 73, 80
2, 2962, Note_on_c, 0, 71, 0
2, 2965, Note_on_c, 0, 71, 80
2, 2966, Note_on_c, 0, 73, 0
2, 2971, Note_on_c, 0, 71, 0
2, 2971, Note_on_c, 0, 69, 80
2, 2979, Note_on_c, 0, 69, 0
2, 2979, Note_on_c, 0, 71, 80
2, 2990, Note_on_c, 0, 71, 0
2, 2990, Note_on_c, 0, 73, 80
2, 2992, Note_on_c, 0, 69, 80
2, 2993, Note_on_c, 0, 68, 0
2, 3021, Note_on_c, 0, 64, 80
2, 3024, Note_on_c, 0, 69, 0
2, 3035, Note_on_c, 0, 73, 0
2, 3037, Note_on_c, 0, 74, 80
2, 3044, Note_on_c, 0, 76, 80
2, 3045, Note_on_c, 0, 74, 0
2, 3053, Note_on_c, 0, 69, 80
2, 3054, Note_on_c, 0, 78, 80
2, 3055, Note_on_c, 0, 64, 0
2, 3056, Note_on_c, 0, 76, 0
2, 3096, Note_on_c, 0, 78, 0
2, 3098, Note_on_c, 0, 76, 80
2, 3112, Note_on_c, 0, 74, 80
2, 3114, Note_on_c, 0, 76, 0
2, 3156, Note_on_c, 0, 74, 0
2, 3156, Note_on_c, 0, 73, 80
2, 3171, Note_on_c, 0, 73, 0
2, 3171, Note_on_c, 0, 68, 80
2, 3171, Note_on_c, 0, 71, 80
2, 3174, Note_on_c, 0, 69, 0
2, 3201, Note_on_c, 0, 66, 80
2, 3202, Note_on_c, 0, 68, 0
2, 3215, Note_on_c, 0, 71, 0
2, 3215, Note_on_c, 0, 69, 80
2, 3231, Note_on_c, 0, 64, 80
2, 3232, Note_on_c, 0, 68, 80
2, 3233, Note_on_c, 0, 66, 0
2, 3234, Note_on_c, 0, 69, 0
2, 3263, Note_on_c, 0, 62, 80
2, 3265, Note_on_c, 0, 64, 0
2, 3281, Note_on_c, 0, 68, 0
2, 3295, Note_on_c, 0, 62, 0
2, 3295, Note_on_c, 0, 64, 80
2, 3295, Note_on_c, 0, 76, 80
2, 3324, Note_on_c, 0, 64, 0
2, 3324, Note_on_c, 0, 68, 80
2, 3353, Note_on_c, 0, 66, 80
2, 3354, Note_on_c, 0, 68, 0
2, 3380, Note_on_c, 0, 66, 0
2, 3382, Note_on_c, 0, 69, 80
2, 3410, Note_on_c, 0, 68, 80
2, 3410, Note_on_c, 0, 74, 80
2, 3411, Note_on_c, 0, 76, 0
2, 3411, Note_on_c, 0, 69, 0
2, 3441, Note_on_c, 0, 68, 0
2, 3441, Note_on_c, 0, 71, 80
2, 3469, Note_on_c, 0, 71, 0
2, 3469, Note_on_c, 0, 69, 80
2, 3470, Note_on_c, 0, 73, 80
2, 3473, Note_on_c, 0, 74, 0
2, 3495, Note_on_c, 0, 69, 0
2, 3503, Note_on_c, 0, 64, 80
2, 3518, Note_on_c, 0, 64, 0
2, 3534, Note_on_c, 0, 57, 80
2, 3564, Note_on_c, 0, 74, 80
2, 3565, Note_on_c, 0, 73, 0
2, 3593, Note_on_c, 0, 73, 80
2, 3595, Note_on_c, 0, 74, 0
2, 3603, Note_on_c, 0, 71, 80
2, 3604, Note_on_c, 0, 73, 0
2, 3610, Note_on_c, 0, 69, 80
2, 3611, Note_on_c, 0, 71, 0
2, 3617, Note_on_c, 0, 71, 80
2, 3618, Note_on_c, 0, 69, 0
2, 3623, Note_on_c, 0, 71, 0
2, 3623, Note_on_c, 0, 73, 80
2, 3629, Note_on_c, 0, 73, 0
2, 3629, Note_on_c, 0, 71, 80
2, 3634, Note_on_c, 0, 71, 0
2, 3635, Note_on_c, 0, 73, 80
2, 3640, Note_on_c, 0, 73, 0
2, 3640, Note_on_c, 0, 71, 80
2, 3644, Note_on_c, 0, 71, 0
2, 3645, Note_on_c, 0, 73, 80
2, 3649, Note_on_c, 0, 73, 0
2, 3649, Note_on_c, 0, 71, 80
2, 3652, Note_on_c, 0, 57, 0
2, 3652, Note_on_c, 0, 56, 80
2, 3652, Note_on_c, 0, 73, 80
2, 3653, Note_on_c, 0, 71, 0
2, 3656, Note_on_c, 0, 73, 0
2, 3657, Note_on_c, 0, 71, 80
2, 3659, Note_on_c, 0, 73, 80
2, 3660, Note_on_c, 0, 71, 0
2, 3663, Note_on_c, 0, 73, 0
2, 3663, Note_on_c, 0, 71, 80
2, 3685, Note_on_c, 0, 71, 0
2, 3685, Note_on_c, 0, 69, 80
2, 3696, Note_on_c, 0, 71, 80
2, 3697, Note_on_c, 0, 69, 0
2, 3713, Note_on_c, 0, 73, 80
2, 3714, Note_on_c, 0, 71, 0
2, 3714, Note_on_c, 0, 57, 80
2, 3715, Note_on_c, 0, 56, 0
2, 3743, Note_on_c, 0, 57, 0
2, 3743, Note_on_c, 0, 64, 80
2, 3761, Note_on_c, 0, 64, 0
2, 3774, Note_on_c, 0, 67, 80
2, 3804, Note_on_c, 0, 73, 0
2, 3804, Note_on_c, 0, 76, 80
2, 3833, Note_on_c, 0, 76, 0
2, 3833, Note_on_c, 0, 69, 80
2, 3863, Note_on_c, 0, 64, 80
2, 3864, Note_on_c, 0, 67, 0
2, 3886, Note_on_c, 0, 69, 0
2, 3896, Note_on_c, 0, 66, 80
2, 3897, Note_on_c, 0, 64, 0
2, 3897, Note_on_c, 0, 74, 80
2, 3923, Note_on_c, 0, 62, 80
2, 3924, Note_on_c, 0, 66, 0
2, 3954, Note_on_c, 0, 64, 80
2, 3956, Note_on_c, 0, 62, 0
2, 3985, Note_on_c, 0, 74, 0
2, 3985, Note_on_c, 0, 71, 80
2, 4014, Note_on_c, 0, 71, 0
2, 4014, Note_on_c, 0, 73, 80
2, 4042, Note_on_c, 0, 69, 80
2, 4043, Note_on_c, 0, 73, 0
2, 4072, Note_on_c, 0, 66, 80
2, 4074, Note_on_c, 0, 69, 0
2, 4104, Note_on_c, 0, 62, 80
2, 4106, Note_on_c, 0, 64, 0
2, 4137, Note_on_c, 0, 66, 0
2, 4137, Note_on_c, 0, 68, 80
2, 4137, Note_on_c, 0, 61, 80
2, 4139, Note_on_c, 0, 62, 0
2, 4164, Note_on_c, 0, 59, 80
2, 4165, Note_on_c, 0, 61, 0
2, 4175, Note_on_c, 0, 69, 80
2, 4176, Note_on_c, 0, 68, 0
2, 4183, Note_on_c, 0, 68, 80
2, 4184, Note_on_c, 0, 69, 0
2, 4188, Note_on_c, 0, 66, 80
2, 4189, Note_on_c, 0, 68, 0
2, 4195, Note_on_c, 0, 68, 80
2, 4196, Note_on_c, 0, 66, 0
2, 4198, Note_on_c, 0, 61, 80
2, 4200, Note_on_c, 0, 59, 0
2, 4201, Note_on_c, 0, 69, 80
2, 4202, Note_on_c, 0, 68, 0
2, 4225, Note_on_c, 0, 69, 0
2, 4228, Note_on_c, 0, 64, 80
2, 4258, Note_on_c, 0, 66, 80
2, 4262, Note_on_c, 0, 61, 0
2, 4283, Note_on_c, 0, 62, 80
2, 4284, Note_on_c, 0, 64, 0
2, 4312, Note_on_c, 0, 66, 0
2, 4313, Note_on_c, 0, 64, 80
2, 4344, Note_on_c, 0, 61, 80
2, 4347, Note_on_c, 0, 62, 0
2, 4375, Note_on_c, 0, 59, 80
2, 4375, Note_on_c, 0, 66, 80
2, 4376, Note_on_c, 0, 64, 0
2, 4377, Note_on_c, 0, 61, 0
2, 4406, Note_on_c, 0, 68, 80
2, 4407, Note_on_c, 0, 66, 0
2, 4436, Note_on_c, 0, 69, 80
2, 4437, Note_on_c, 0, 68, 0
2, 4437, Note_on_c, 0, 57, 80
2, 4438, Note_on_c, 0, 59, 0
2, 4455, Note_on_c, 0, 69, 0
2, 4467, Note_on_c, 0, 61, 80
2, 4495, Note_on_c, 0, 61, 0
2, 4496, Note_on_c, 0, 62, 80
2, 4526, Note_on_c, 0, 62, 0
2, 4526, Note_on_c, 0, 64, 80
2, 4545, Note_on_c, 0, 64, 0
2, 4556, Note_on_c, 0, 66, 80
2, 4570, Note_on_c, 0, 57, 0
2, 4584, Note_on_c, 0, 54, 80
2, 4614, Note_on_c, 0, 54, 0
2, 4614, Note_on_c, 0, 56, 80
2, 4643, Note_on_c, 0, 56, 0
2, 4643, Note_on_c, 0, 57, 80
2, 4654, Note_on_c, 0, 66, 0
2, 4674, Note_on_c, 0, 57, 0
2, 4674, Note_on_c, 0, 59, 80
2, 4704, Note_on_c, 0, 57, 80
2, 4705, Note_on_c, 0, 59, 0
2, 4734, Note_on_c, 0, 57, 0
2, 4734, Note_on_c, 0, 56, 80
2, 4764, Note_on_c, 0, 64, 80
2, 4785, Note_on_c, 0, 56, 0
2, 4794, Note_on_c, 0, 66, 80
2, 4795, Note_on_c, 0, 64, 0
2, 4795, Note_on_c, 0, 57, 80
2, 4824, Note_on_c, 0, 66, 0
2, 4825, Note_on_c, 0, 68, 80
2, 4844, Note_on_c, 0, 68, 0
2, 4845, Note_on_c, 0, 57, 0
2, 4853, Note_on_c, 0, 69, 80
2, 4854, Note_on_c, 0, 59, 80
2, 4863, Note_on_c, 0, 69, 0
2, 4863, Note_on_c, 0, 68, 80
2, 4868, Note_on_c, 0, 68, 0
2, 4868, Note_on_c, 0, 69, 80
2, 4873, Note_on_c, 0, 69, 0
2, 4874, Note_on_c, 0, 68, 80
2, 4876, Note_on_c, 0, 68, 0
2, 4876, Note_on_c, 0, 69, 80
2, 4880, Note_on_c, 0, 68, 80
2, 4883, Note_on_c, 0, 69, 0
2, 4886, Note_on_c, 0, 68, 0
2, 4889, Note_on_c, 0, 66, 80
2, 4894, Note_on_c, 0, 68, 80
2, 4896, Note_on_c, 0, 66, 0
2, 4912, Note_on_c, 0, 68, 0
2, 4913, Note_on_c, 0, 69, 80
2, 4914, Note_on_c, 0, 61, 80
2, 4916, Note_on_c, 0, 59, 0
2, 4942, Note_on_c, 0, 69, 0
2, 4944, Note_on_c, 0, 68, 80
2, 4957, Note_on_c, 0, 68, 0
2, 4972, Note_on_c, 0, 68, 80
2, 5003, Note_on_c, 0, 68, 0
2, 5004, Note_on_c, 0, 66, 80
2, 5022, Note_on_c, 0, 66, 0
2, 5035, Note_on_c, 0, 65, 80
2, 5035, Note_on_c, 0, 62, 80
2, 5036, Note_on_c, 0, 61, 0
2, 5066, Note_on_c, 0, 65, 0
2, 5066, Note_on_c, 0, 66, 80
2, 5080, Note_on_c, 0, 66, 0
2, 5096, Note_on_c, 0, 66, 80
2, 5126, Note_on_c, 0, 66, 0
2, 5126, Note_on_c, 0, 68, 80
2, 5139, Note_on_c, 0, 68, 0
2, 5157, Note_on_c, 0, 68, 80
2, 5159, Note_on_c, 0, 62, 0
2, 5186, Note_on_c, 0, 62, 80
2, 5217, Note_on_c, 0, 61, 80
2, 5218, Note_on_c, 0, 62, 0
2, 5245, Note_on_c, 0, 59, 80
2, 5247, Note_on_c, 0, 61, 0
2, 5276, Note_on_c, 0, 59, 0
2, 5276, Note_on_c, 0, 57, 80
2, 5306, Note_on_c, 0, 66, 80
2, 5307, Note_on_c, 0, 68, 0
2, 5320, Note_on_c, 0, 66, 0
2, 5334, Note_on_c, 0, 59, 80
2, 5335, Note_on_c, 0, 57, 0
2, 5335, Note_on_c, 0, 66, 80
2, 5365, Note_on_c, 0, 66, 0
2, 5365, Note_on_c, 0, 65, 80
2, 5395, Note_on_c, 0, 66, 80
2, 5395, Note_on_c, 0, 61, 80
2, 5397, Note_on_c, 0, 65, 0
2, 5398, Note_on_c, 0, 59, 0
2, 5426, Note_on_c, 0, 66, 0
2, 5426, Note_on_c, 0, 68, 80
2, 5440, Note_on_c, 0, 68, 0
2, 5440, Note_on_c, 0, 69, 80
2, 5455, Note_on_c, 0, 69, 0
2, 5455, Note_on_c, 0, 68, 80
2, 5456, Note_on_c, 0, 61, 0
2, 5456, Note_on_c, 0, 62, 80
2, 5483, Note_on_c, 0, 68, 0
2, 5483, Note_on_c, 0, 69, 80
2, 5497, Note_on_c, 0, 71, 80
2, 5498, Note_on_c, 0, 69, 0
2, 5510, Note_on_c, 0, 71, 0
2, 5512, Note_on_c, 0, 66, 80
2, 5519, Note_on_c, 0, 66, 0
2, 5519, Note_on_c, 0, 65, 80
2, 5522, Note_on_c, 0, 62, 0
2, 5525, Note_on_c, 0, 65, 0
2, 5526, Note_on_c, 0, 66, 80
2, 5532, Note_on_c, 0, 66, 0
2, 5532, Note_on_c, 0, 65, 80
2, 5537, Note_on_c, 0, 61, 80
2, 5538, Note_on_c, 0, 65, 0
2, 5539, Note_on_c, 0, 66, 80
2, 5544, Note_on_c, 0, 66, 0
2, 5544, Note_on_c, 0, 65, 80
2, 5549, Note_on_c, 0, 65, 0
2, 5550, Note_on_c, 0, 66, 80
2, 5555, Note_on_c, 0, 66, 0
2, 5555, Note_on_c, 0, 65, 80
2, 5559, Note_on_c, 0, 65, 0
2, 5560, Note_on_c, 0, 66, 80
2, 5563, Note_on_c, 0, 66, 0
2, 5564, Note_on_c, 0, 61, 0
2, 5565, Note_on_c, 0, 65, 80
2, 5566, Note_on_c, 0, 56, 80
2, 5568, Note_on_c, 0, 65, 0
2, 5568, Note_on_c, 0, 66, 80
2, 5572, Note_on_c, 0, 66, 0
2, 5572, Note_on_c, 0, 65, 80
2, 5594, Note_on_c, 0, 56, 0
2, 5594, Note_on_c, 0, 59, 80
2, 5611, Note_on_c, 0, 65, 0
2, 5611, Note_on_c, 0, 66, 80
2, 5618, Note_on_c, 0, 66, 0
2, 5630, Note_on_c, 0, 66, 80
2, 5630, Note_on_c, 0, 57, 80
2, 5632, Note_on_c, 0, 59, 0
2, 5658, Note_on_c, 0, 66, 0
2, 5663, Note_on_c, 0, 61, 80
2, 5693, Note_on_c, 0, 61, 0
2, 5693, Note_on_c, 0, 64, 80
2, 5724, Note_on_c, 0, 63, 80
2, 5726, Note_on_c, 0, 64, 0
2, 5737, Note_on_c, 0, 63, 0
2, 5751, Note_on_c, 0, 63, 80
2, 5783, Note_on_c, 0, 56, 80
2, 5786, Note_on_c, 0, 57, 0
2, 5814, Note_on_c, 0, 56, 0
2, 5815, Note_on_c, 0, 59, 80
2, 5815, Note_on_c, 0, 65, 80
2, 5816, Note_on_c, 0, 63, 0
2, 5846, Note_on_c, 0, 57, 80
2, 5847, Note_on_c, 0, 59, 0
2, 5860, Note_on_c, 0, 65, 0
2, 5865, Note_on_c, 0, 57, 0
2, 5879, Note_on_c, 0, 57, 80
2, 5880, Note_on_c, 0, 66, 80
2, 5909, Note_on_c, 0, 57, 0
2, 5909, Note_on_c, 0, 61, 80
2, 5937, Note_on_c, 0, 61, 0
2, 5937, Note_on_c, 0, 59, 80
2, 5963, Note_on_c, 0, 62, 80
2, 5965, Note_on_c, 0, 59, 0
2, 5976, Note_on_c, 0, 61, 80
2, 5979, Note_on_c, 0, 62, 0
2, 5989, Note_on_c, 0, 61, 0
2, 5997, Note_on_c, 0, 62, 80
2, 6008, Note_on_c, 0, 66, 0
2, 6025, Note_on_c, 0, 69, 80
2, 6054, Note_on_c, 0, 68, 80
2, 6055, Note_on_c, 0, 69, 0
2, 6074, Note_on_c, 0, 68, 0
2, 6084, Note_on_c, 0, 71, 80
2, 6100, Note_on_c, 0, 70, 80
2, 6101, Note_on_c, 0, 71, 0
2, 6115, Note_on_c, 0, 70, 0
2, 6115, Note_on_c, 0, 71, 80
2, 6117, Note_on_c, 0, 62, 0
2, 6144, Note_on_c, 0, 59, 80
2, 6174, Note_on_c, 0, 61, 80
2, 6175, Note_on_c, 0, 69, 80
2, 6176, Note_on_c, 0, 71, 0
2, 6178, Note_on_c, 0, 59, 0
2, 6204, Note_on_c, 0, 62, 80
2, 6205, Note_on_c, 0, 61, 0
2, 6235, Note_on_c, 0, 62, 0
2, 6235, Note_on_c, 0, 64, 80
2, 6266, Note_on_c, 0, 69, 0
2, 6266, Note_on_c, 0, 66, 80
2, 6282, Note_on_c, 0, 66, 0
2, 6296, Note_on_c, 0, 68, 80
2, 6324, Note_on_c, 0, 59, 80
2, 6325, Note_on_c, 0, 64, 0
2, 6354, Note_on_c, 0, 68, 0
2, 6354, Note_on_c, 0, 69, 80
2, 6355, Note_on_c, 0, 64, 80
2, 6357, Note_on_c, 0, 59, 0
2, 6374, Note_on_c, 0, 69, 0
2, 6388, Note_on_c, 0, 68, 80
2, 6394, Note_on_c, 0, 64, 0
2, 6417, Note_on_c, 0, 68, 0
2, 6418, Note_on_c, 0, 66, 80
2, 6418, Note_on_c, 0, 62, 80
2, 6442, Note_on_c, 0, 66, 0
2, 6448, Note_on_c, 0, 64, 80
2, 6449, Note_on_c, 0, 62, 0
2, 6449, Note_on_c, 0, 61, 80
2, 6476, Note_on_c, 0, 61, 0
2, 6477, Note_on_c, 0, 64, 0
2, 6478, Note_on_c, 0, 59, 80
2, 6478, Note_on_c, 0, 62, 80
2, 6507, Note_on_c, 0, 62, 0
2, 6508, Note_on_c, 0, 59, 0
2, 6508, Note_on_c, 0, 61, 80
2, 6509, Note_on_c, 0, 57, 80
2, 6540, Note_on_c, 0, 66, 80
2, 6542, Note_on_c, 0, 61, 0
2, 6567, Note_on_c, 0, 64, 80
2, 6568, Note_on_c, 0, 66, 0
2, 6597, Note_on_c, 0, 66, 80
2, 6598, Note_on_c, 0, 64, 0
2, 6605, Note_on_c, 0, 57, 0
2, 6625, Note_on_c, 0, 56, 80
2, 6641, Note_on_c, 0, 56, 0
2, 6655, Note_on_c, 0, 57, 80
2, 6673, Note_on_c, 0, 66, 0
2, 6685, Note_on_c, 0, 64, 80
2, 6716, Note_on_c, 0, 64, 0
2, 6716, Note_on_c, 0, 66, 80
2, 6745, Note_on_c, 0, 66, 0
2, 6745, Note_on_c, 0, 62, 80
2, 6765, Note_on_c, 0, 62, 0
2, 6768, Note_on_c, 0, 57, 0
2, 6777, Note_on_c, 0, 56, 80
2, 6777, Note_on_c, 0, 59, 80
2, 6808, Note_on_c, 0, 64, 80
2, 6809, Note_on_c, 0, 59, 0
2, 6835, Note_on_c, 0, 56, 0
2, 6837, Note_on_c, 0, 57, 80
2, 6838, Note_on_c, 0, 64, 0
2, 6838, Note_on_c, 0, 61, 80
2, 6857, Note_on_c, 0, 57, 0
2, 6871, Note_on_c, 0, 57, 80
2, 6872, Note_on_c, 0, 61, 0
2, 6900, Note_on_c, 0, 59, 80
2, 6902, Note_on_c, 0, 57, 0
2, 6928, Note_on_c, 0, 61, 80
2, 6930, Note_on_c, 0, 59, 0
2, 6955, Note_on_c, 0, 61, 0
2, 6955, Note_on_c, 0, 62, 80
2, 6985, Note_on_c, 0, 64, 80
2, 6986, Note_on_c, 0, 62, 0
2, 7011, Note_on_c, 0, 64, 0
2, 7015, Note_on_c, 0, 66, 80
2, 7024, Note_on_c, 0, 66, 0
2, 7024, Note_on_c, 0, 64, 80
2, 7031, Note_on_c, 0, 64, 0
2, 7031, Note_on_c, 0, 66, 80
2, 7036, Note_on_c, 0, 66, 0
2, 7036, Note_on_c, 0, 64, 80
2, 7039, Note_on_c, 0, 64, 0
2, 7040, Note_on_c, 0, 66, 80
2, 7042, Note_on_c, 0, 64, 80
2, 7043, Note_on_c, 0, 66, 0
2, 7048, Note_on_c, 0, 62, 80
2, 7049, Note_on_c, 0, 64, 0
2, 7055, Note_on_c, 0, 64, 80
2, 7057, Note_on_c, 0, 62, 0
2, 7064, Note_on_c, 0, 64, 0
2, 7065, Note_on_c, 0, 66, 80
2, 7098, Note_on_c, 0, 62, 80
2, 7099, Note_on_c, 0, 66, 0
2, 7129, Note_on_c, 0, 67, 80
2, 7129, Note_on_c, 0, 61, 80
2, 7130, Note_on_c, 0, 62, 0
2, 7157, Note_on_c, 0, 59, 80
2, 7158, Note_on_c, 0, 61, 0
2, 7188, Note_on_c, 0, 57, 80
2, 7189, Note_on_c, 0, 59, 0
2, 7220, Note_on_c, 0, 59, 80
2, 7222, Note_on_c, 0, 57, 0
2, 7252, Note_on_c, 0, 66, 80
2, 7253, Note_on_c, 0, 61, 80
2, 7254, Note_on_c, 0, 67, 0
2, 7254, Note_on_c, 0, 59, 0
2, 7270, Note_on_c, 0, 61, 0
2, 7270, Note_on_c, 0, 59, 80
2, 7280, Note_on_c, 0, 59, 0
2, 7284, Note_on_c, 0, 57, 80
2, 7299, Note_on_c, 0, 59, 80
2, 7300, Note_on_c, 0, 57, 0
2, 7316, Note_on_c, 0, 61, 80
2, 7317, Note_on_c, 0, 66, 0
2, 7317, Note_on_c, 0, 59, 0
2, 7317, Note_on_c, 0, 64, 80
2, 7348, Note_on_c, 0, 66, 80
2, 7351, Note_on_c, 0, 64, 0
2, 7366, Note_on_c, 0, 66, 0
2, 7377, Note_on_c, 0, 57, 80
2, 7378, Note_on_c, 0, 61, 0
2, 7378, Note_on_c, 0, 67, 80
2, 7406, Note_on_c, 0, 66, 80
2, 7407, Note_on_c, 0, 67, 0
2, 7434, Note_on_c, 0, 59, 80
2, 7435, Note_on_c, 0, 57, 0
2, 7435, Note_on_c, 0, 66, 0
2, 7435, Note_on_c, 0, 67, 80
2, 7465, Note_on_c, 0, 61, 80
2, 7468, Note_on_c, 0, 59, 0
2, 7495, Note_on_c, 0, 67, 0
2, 7495, Note_on_c, 0, 61, 0
2, 7495, Note_on_c, 0, 64, 80
2, 7495, Note_on_c, 0, 62, 80
2, 7525, Note_on_c, 0, 62, 0
2, 7525, Note_on_c, 0, 61, 80
2, 7552, Note_on_c, 0, 64, 0
2, 7556, Note_on_c, 0, 61, 0
2, 7556, Note_on_c, 0, 66, 80
2, 7556, Note_on_c, 0, 62, 80
2, 7585, Note_on_c, 0, 66, 0
2, 7585, Note_on_c, 0, 68, 80
2, 7614, Note_on_c, 0, 69, 80
2, 7615, Note_on_c, 0, 68, 0
2, 7642, Note_on_c, 0, 69, 0
2, 7642, Note_on_c, 0, 68, 80
2, 7673, Note_on_c, 0, 68, 0
2, 7673, Note_on_c, 0, 69, 80
2, 7705, Note_on_c, 0, 61, 80
2, 7707, Note_on_c, 0, 62, 0
2, 7724, Note_on_c, 0, 61, 0
2, 7735, Note_on_c, 0, 59, 80
2, 7764, Note_on_c, 0, 57, 80
2, 7765, Note_on_c, 0, 59, 0
2, 7778, Note_on_c, 0, 59, 80
2, 7780, Note_on_c, 0, 57, 0
2, 7797, Note_on_c, 0, 61, 80
2, 7800, Note_on_c, 0, 59, 0
2, 7837, Note_on_c, 0, 61, 0
2, 7842, Note_on_c, 0, 69, 0
2, 7858, Note_on_c, 0, 66, 80
2, 7903, Note_on_c, 0, 64, 80
2, 7904, Note_on_c, 0, 66, 0
2, 7917, Note_on_c, 0, 64, 0
2, 7918, Note_on_c, 0, 62, 80
2, 7957, Note_on_c, 0, 61, 80
2, 7959, Note_on_c, 0, 62, 0
2, 7973, Note_on_c, 0, 59, 80
2, 7974, Note_on_c, 0, 61, 0
2, 8015, Note_on_c, 0, 59, 0
2, 8015, Note_on_c, 0, 57, 80
2, 8033, Note_on_c, 0, 56, 80
2, 8035, Note_on_c, 0, 57, 0
2, 8074, Note_on_c, 0, 56, 0
2, 8091, Note_on_c, 0, 64, 80
2, 8150, Note_on_c, 0, 66, 80
2, 8216, Note_on_c, 0, 66, 0
2, 8216, Note_on_c, 0, 69, 80
2, 8216, Note_on_c, 0, 62, 80
2, 8217, Note_on_c, 0, 64, 0
2, 8245, Note_on_c, 0, 68, 80
2, 8246, Note_on_c, 0, 69, 0
2, 8274, Note_on_c, 0, 61, 80
2, 8275, Note_on_c, 0, 69, 80
2, 8276, Note_on_c, 0, 68, 0
2, 8278, Note_on_c, 0, 62, 0
2, 8305, Note_on_c, 0, 69, 0
2, 8306, Note_on_c, 0, 64, 80
2, 8337, Note_on_c, 0, 64, 0
2, 8337, Note_on_c, 0, 69, 80
2, 8391, Note_on_c, 0, 59, 80
2, 8392, Note_on_c, 0, 61, 0
2, 8451, Note_on_c, 0, 68, 80
2, 8453, Note_on_c, 0, 69, 0
2, 8487, Note_on_c, 0, 69, 80
2, 8488, Note_on_c, 0, 68, 0
2, 8493, Note_on_c, 0, 68, 80
2, 8494, Note_on_c, 0, 69, 0
2, 8497, Note_on_c, 0, 68, 0
2, 8497, Note_on_c, 0, 66, 80
2, 8502, Note_on_c, 0, 68, 80
2, 8503, Note_on_c, 0, 66, 0
2, 8509, Note_on_c, 0, 68, 0
2, 8510, Note_on_c, 0, 69, 80
2, 8511, Note_on_c, 0, 61, 80
2, 8513, Note_on_c, 0, 59, 0
2, 8544, Note_on_c, 0, 69, 0
2, 8571, Note_on_c, 0, 64, 80
2, 8588, Note_on_c, 0, 61, 0
2, 8601, Note_on_c, 0, 64, 0
2, 8601, Note_on_c, 0, 62, 80
2, 8601, Note_on_c, 0, 59, 80
2, 8631, Note_on_c, 0, 62, 0
2, 8631, Note_on_c, 0, 61, 80
2, 8631, Note_on_c, 0, 64, 80
2, 8633, Note_on_c, 0, 59, 0
2, 8661, Note_on_c, 0, 64, 0
2, 8662, Note_on_c, 0, 61, 0
2, 8662, Note_on_c, 0, 66, 80
2, 8662, Note_on_c, 0, 63, 80
2, 8680, Note_on_c, 0, 66, 0
2, 8695, Note_on_c, 0, 63, 0
2, 8695, Note_on_c, 0, 68, 80
2, 8695, Note_on_c, 0, 64, 80
2, 8705, Note_on_c, 0, 68, 0
2, 8705, Note_on_c, 0, 64, 0
2, 8705, Note_on_c, 0, 63, 80
2, 8705, Note_on_c, 0, 66, 80
2, 8710, Note_on_c, 0, 66, 0
2, 8711, Note_on_c, 0, 63, 0
2, 8711, Note_on_c, 0, 64, 80
2, 8711, Note_on_c, 0, 68, 80
2, 8715, Note_on_c, 0, 68, 0
2, 8715, Note_on_c, 0, 63, 80
2, 8716, Note_on_c, 0, 64, 0
2, 8716, Note_on_c, 0, 66, 80
2, 8719, Note_on_c, 0, 63, 0
2, 8719, Note_on_c, 0, 66, 0
2, 8719, Note_on_c, 0, 64, 80
2, 8720, Note_on_c, 0, 68, 80
2, 8722, Note_on_c, 0, 63, 80
2, 8723, Note_on_c, 0, 64, 0
2, 8723, Note_on_c, 0, 68, 0
2, 8724, Note_on_c, 0, 66, 80
2, 8727, Note_on_c, 0, 63, 0
2, 8727, Note_on_c, 0, 61, 80
2, 8737, Note_on_c, 0, 66, 0
2, 8737, Note_on_c, 0, 64, 80
2, 8744, Note_on_c, 0, 66, 80
2, 8745, Note_on_c, 0, 64, 0
2, 8745, Note_on_c, 0, 63, 80
2, 8747, Note_on_c, 0, 61, 0
2, 8753, Note_on_c, 0, 66, 0
2, 8753, Note_on_c, 0, 63, 0
2, 8753, Note_on_c, 0, 68, 80
2, 8754, Note_on_c, 0, 64, 80
2, 8785, Note_on_c, 0, 68, 0
2, 8803, Note_on_c, 0, 69, 80
2, 8808, Note_on_c, 0, 71, 80
2, 8809, Note_on_c, 0, 69, 0
2, 8815, Note_on_c, 0, 73, 80
2, 8816, Note_on_c, 0, 71, 0
2, 8857, Note_on_c, 0, 73, 0
2, 8858, Note_on_c, 0, 71, 80
2, 8873, Note_on_c, 0, 71, 0
2, 8873, Note_on_c, 0, 69, 80
2, 8874, Note_on_c, 0, 61, 80
2, 8875, Note_on_c, 0, 64, 0
2, 8920, Note_on_c, 0, 68, 80
2, 8921, Note_on_c, 0, 69, 0
2, 8935, Note_on_c, 0, 66, 80
2, 8936, Note_on_c, 0, 68, 0
2, 8976, Note_on_c, 0, 66, 0
2, 8976, Note_on_c, 0, 64, 80
2, 8993, Note_on_c, 0, 63, 80
2, 8995, Note_on_c, 0, 64, 0
2, 9052, Note_on_c, 0, 71, 80
2, 9052, Note_on_c, 0, 59, 80
2, 9053, Note_on_c, 0, 61, 0
2, 9053, Note_on_c, 0, 63, 0
2, 9113, Note_on_c, 0, 61, 80
2, 9115, Note_on_c, 0, 59, 0
2, 9171, Note_on_c, 0, 64, 80
2, 9171, Note_on_c, 0, 69, 80
2, 9172, Note_on_c, 0, 61, 0
2, 9173, Note_on_c, 0, 71, 0
2, 9201, Note_on_c, 0, 63, 80
2, 9202, Note_on_c, 0, 64, 0
2, 9231, Note_on_c, 0, 68, 80
2, 9232, Note_on_c, 0, 63, 0
2, 9232, Note_on_c, 0, 64, 80
2, 9233, Note_on_c, 0, 69, 0
2, 9261, Note_on_c, 0, 59, 80
2, 9263, Note_on_c, 0, 64, 0
2, 9293, Note_on_c, 0, 64, 80
2, 9295, Note_on_c, 0, 59, 0
2, 9352, Note_on_c, 0, 68, 0
2, 9352, Note_on_c, 0, 66, 80
2, 9413, Note_on_c, 0, 64, 0
2, 9413, Note_on_c, 0, 63, 80
2, 9448, Note_on_c, 0, 63, 0
2, 9448, Note_on_c, 0, 64, 80
2, 9454, Note_on_c, 0, 63, 80
2, 9455, Note_on_c, 0, 64, 0
2, 9459, Note_on_c, 0, 63, 0
2, 9459, Note_on_c, 0, 61, 80
2, 9465, Note_on_c, 0, 61, 0
2, 9466, Note_on_c, 0, 63, 80
2, 9472, Note_on_c, 0, 66, 0
2, 9473, Note_on_c, 0, 68, 80
2, 9474, Note_on_c, 0, 63, 0
2, 9474, Note_on_c, 0, 64, 80
2, 9510, Note_on_c, 0, 64, 0
2, 9532, Note_on_c, 0, 59, 80
2, 9542, Note_on_c, 0, 68, 0
2, 9563, Note_on_c, 0, 66, 80
2, 9563, Note_on_c, 0, 57, 80
2, 9565, Note_on_c, 0, 59, 0
2, 9581, Note_on_c, 0, 66, 0
2, 9592, Note_on_c, 0, 59, 80
2, 9593, Note_on_c, 0, 68, 80
2, 9594, Note_on_c, 0, 57, 0
2, 9622, Note_on_c, 0, 68, 0
2, 9622, Note_on_c, 0, 61, 80
2, 9623, Note_on_c, 0, 70, 80
2, 9624, Note_on_c, 0, 59, 0
2, 9642, Note_on_c, 0, 70, 0
2, 9652, Note_on_c, 0, 61, 0
2, 9652, Note_on_c, 0, 71, 80
2, 9652, Note_on_c, 0, 62, 80
2, 9659, Note_on_c, 0, 71, 0
2, 9660, Note_on_c, 0, 70, 80
2, 9660, Note_on_c, 0, 61, 80
2, 9661, Note_on_c, 0, 62, 0
2, 9666, Note_on_c, 0, 70, 0
2, 9666, Note_on_c, 0, 61, 0
2, 9666, Note_on_c, 0, 71, 80
2, 9667, Note_on_c, 0, 62, 80
2, 9670, Note_on_c, 0, 71, 0
2, 9671, Note_on_c, 0, 70, 80
2, 9672, Note_on_c, 0, 61, 80
2, 9673, Note_on_c, 0, 62, 0
2, 9675, Note_on_c, 0, 70, 0
2, 9675, Note_on_c, 0, 71, 80
2, 9676, Note_on_c, 0, 61, 0
2, 9676, Note_on_c, 0, 62, 80
2, 9680, Note_on_c, 0, 70, 80
2, 9680, Note_on_c, 0, 61, 80
2, 9681, Note_on_c, 0, 62, 0
2, 9682, Note_on_c, 0, 70, 0
2, 9685, Note_on_c, 0, 71, 0
2, 9685, Note_on_c, 0, 70, 80
2, 9686, Note_on_c, 0, 61, 0
2, 9686, Note_on_c, 0, 59, 80
2, 9693, Note_on_c, 0, 70, 0
2, 9693, Note_on_c, 0, 68, 80
2, 9694, Note_on_c, 0, 61, 80
2, 9695, Note_on_c, 0, 59, 0
2, 9697, Note_on_c, 0, 68, 0
2, 9697, Note_on_c, 0, 70, 80
2, 9704, Note_on_c, 0, 61, 0
2, 9705, Note_on_c, 0, 70, 0
2, 9705, Note_on_c, 0, 62, 80
2, 9707, Note_on_c, 0, 71, 80
2, 9734, Note_on_c, 0, 62, 0
2, 9734, Note_on_c, 0, 71, 0
2, 9738, Note_on_c, 0, 70, 80
2, 9739, Note_on_c, 0, 61, 80
2, 9766, Note_on_c, 0, 70, 0
2, 9767, Note_on_c, 0, 61, 0
2, 9767, Note_on_c, 0, 62, 80
2, 9767, Note_on_c, 0, 71, 80
2, 9796, Note_on_c, 0, 62, 0
2, 9796, Note_on_c, 0, 71, 0
2, 9796, Note_on_c, 0, 64, 80
2, 9796, Note_on_c, 0, 73, 80
2, 9826, Note_on_c, 0, 66, 80
2, 9826, Note_on_c, 0, 74, 80
2, 9827, Note_on_c, 0, 73, 0
2, 9828, Note_on_c, 0, 64, 0
2, 9857, Note_on_c, 0, 66, 0
2, 9857, Note_on_c, 0, 68, 80
2, 9887, Note_on_c, 0, 68, 0
2, 9887, Note_on_c, 0, 69, 80
2, 9895, Note_on_c, 0, 68, 80
2, 9896, Note_on_c, 0, 69, 0
2, 9901, Note_on_c, 0, 68, 0
2, 9902, Note_on_c, 0, 69, 80
2, 9907, Note_on_c, 0, 68, 80
2, 9908, Note_on_c, 0, 69, 0
2, 9912, Note_on_c, 0, 68, 0
2, 9912, Note_on_c, 0, 69, 80
2, 9916, Note_on_c, 0, 68, 80
2, 9917, Note_on_c, 0, 69, 0
2, 9923, Note_on_c, 0, 68, 0
2, 9923, Note_on_c, 0, 66, 80
2, 9930, Note_on_c, 0, 68, 80
2, 9931, Note_on_c, 0, 66, 0
2, 9947, Note_on_c, 0, 68, 0
2, 9947, Note_on_c, 0, 69, 80
2, 9978, Note_on_c, 0, 74, 0
2, 9978, Note_on_c, 0, 78, 80
2, 10008, Note_on_c, 0, 76, 80
2, 10008, Note_on_c, 0, 71, 80
2, 10009, Note_on_c, 0, 69, 0
2, 10009, Note_on_c, 0, 78, 0
2, 10040, Note_on_c, 0, 76, 0
2, 10040, Note_on_c, 0, 74, 80
2, 10070, Note_on_c, 0, 73, 80
2, 10072, Note_on_c, 0, 74, 0
2, 10103, Note_on_c, 0, 73, 0
2, 10103, Note_on_c, 0, 74, 80
2, 10134, Note_on_c, 0, 76, 80
2, 10134, Note_on_c, 0, 69, 80
2, 10135, Note_on_c, 0, 74, 0
2, 10136, Note_on_c, 0, 71, 0
2, 10144, Note_on_c, 0, 74, 80
2, 10145, Note_on_c, 0, 76, 0
2, 10151, Note_on_c, 0, 76, 80
2, 10152, Note_on_c, 0, 74, 0
2, 10157, Note_on_c, 0, 74, 80
2, 10159, Note_on_c, 0, 76, 0
2, 10162, Note_on_c, 0, 74, 0
2, 10162, Note_on_c, 0, 76, 80
2, 10166, Note_on_c, 0, 74, 80
2, 10168, Note_on_c, 0, 76, 0
2, 10171, Note_on_c, 0, 74, 0
2, 10171, Note_on_c, 0, 73, 80
2, 10179, Note_on_c, 0, 73, 0
2, 10179, Note_on_c, 0, 74, 80
2, 10193, Note_on_c, 0, 74, 0
2, 10194, Note_on_c, 0, 76, 80
2, 10194, Note_on_c, 0, 68, 80
2, 10195, Note_on_c, 0, 69, 0
2, 10218, Note_on_c, 0, 76, 0
2, 10226, Note_on_c, 0, 73, 80
2, 10254, Note_on_c, 0, 73, 0
2, 10254, Note_on_c, 0, 71, 80
2, 10284, Note_on_c, 0, 69, 80
2, 10285, Note_on_c, 0, 71, 0
2, 10315, Note_on_c, 0, 71, 80
2, 10315, Note_on_c, 0, 66, 80
2, 10316, Note_on_c, 0, 68, 0
2, 10316, Note_on_c, 0, 69, 0
2, 10345, Note_on_c, 0, 73, 80
2, 10346, Note_on_c, 0, 71, 0
2, 10373, Note_on_c, 0, 74, 80
2, 10374, Note_on_c, 0, 73, 0
2, 10380, Note_on_c, 0, 73, 80
2, 10382, Note_on_c, 0, 74, 0
2, 10388, Note_on_c, 0, 73, 0
2, 10388, Note_on_c, 0, 74, 80
2, 10393, Note_on_c, 0, 73, 80
2, 10395, Note_on_c, 0, 74, 0
2, 10398, Note_on_c, 0, 73, 0
2, 10398, Note_on_c, 0, 74, 80
2, 10403, Note_on_c, 0, 73, 80
2, 10407, Note_on_c, 0, 74, 0
2, 10411, Note_on_c, 0, 73, 0
2, 10411, Note_on_c, 0, 71, 80
2, 10419, Note_on_c, 0, 73, 80
2, 10420, Note_on_c, 0, 71, 0
2, 10433, Note_on_c, 0, 73, 0
2, 10433, Note_on_c, 0, 74, 80
2, 10454, Note_on_c, 0, 74, 0
2, 10461, Note_on_c, 0, 71, 80
2, 10490, Note_on_c, 0, 66, 0
2, 10490, Note_on_c, 0, 64, 80
2, 10491, Note_on_c, 0, 71, 0
2, 10491, Note_on_c, 0, 69, 80
2, 10520, Note_on_c, 0, 69, 0
2, 10521, Note_on_c, 0, 68, 80
2, 10549, Note_on_c, 0, 68, 0
2, 10550, Note_on_c, 0, 69, 80
2, 10550, Note_on_c, 0, 66, 80
2, 10552, Note_on_c, 0, 64, 0
2, 10581, Note_on_c, 0, 69, 0
2, 10581, Note_on_c, 0, 71, 80
2, 10611, Note_on_c, 0, 71, 0
2, 10611, Note_on_c, 0, 68, 80
2, 10612, Note_on_c, 0, 66, 0
2, 10612, Note_on_c, 0, 73, 80
2, 10619, Note_on_c, 0, 71, 80
2, 10620, Note_on_c, 0, 73, 0
2, 10625, Note_on_c, 0, 71, 0
2, 10625, Note_on_c, 0, 73, 80
2, 10630, Note_on_c, 0, 73, 0
2, 10630, Note_on_c, 0, 71, 80
2, 10634, Note_on_c, 0, 71, 0
2, 10634, Note_on_c, 0, 73, 80
2, 10637, Note_on_c, 0, 73, 0
2, 10637, Note_on_c, 0, 71, 80
2, 10640, Note_on_c, 0, 71, 0
2, 10640, Note_on_c, 0, 73, 80
2, 10643, Note_on_c, 0, 71, 80
2, 10648, Note_on_c, 0, 73, 0
2, 10652, Note_on_c, 0, 69, 80
2, 10653, Note_on_c, 0, 71, 0
2, 10659, Note_on_c, 0, 71, 80
2, 10660, Note_on_c, 0, 69, 0
2, 10669, Note_on_c, 0, 71, 0
2, 10669, Note_on_c, 0, 73, 80
2, 10670, Note_on_c, 0, 68, 0
2, 10670, Note_on_c, 0, 69, 80
2, 10698, Note_on_c, 0, 64, 80
2, 10700, Note_on_c, 0, 69, 0
2, 10713, Note_on_c, 0, 74, 80
2, 10716, Note_on_c, 0, 73, 0
2, 10720, Note_on_c, 0, 76, 80
2, 10721, Note_on_c, 0, 74, 0
2, 10728, Note_on_c, 0, 78, 80
2, 10728, Note_on_c, 0, 69, 80
2, 10730, Note_on_c, 0, 64, 0
2, 10730, Note_on_c, 0, 76, 0
2, 10774, Note_on_c, 0, 78, 0
2, 10774, Note_on_c, 0, 76, 80
2, 10789, Note_on_c, 0, 74, 80
2, 10791, Note_on_c, 0, 76, 0
2, 10835, Note_on_c, 0, 73, 80
2, 10836, Note_on_c, 0, 74, 0
2, 10847, Note_on_c, 0, 68, 80
2, 10848, Note_on_c, 0, 73, 0
2, 10848, Note_on_c, 0, 71, 80
2, 10849, Note_on_c, 0, 69, 0
2, 10878, Note_on_c, 0, 66, 80
2, 10879, Note_on_c, 0, 68, 0
2, 10893, Note_on_c, 0, 71, 0
2, 10893, Note_on_c, 0, 69, 80
2, 10909, Note_on_c, 0, 68, 80
2, 10909, Note_on_c, 0, 64, 80
2, 10910, Note_on_c, 0, 66, 0
2, 10910, Note_on_c, 0, 69, 0
2, 10941, Note_on_c, 0, 62, 80
2, 10943, Note_on_c, 0, 64, 0
2, 10957, Note_on_c, 0, 68, 0
2, 10971, Note_on_c, 0, 62, 0
2, 10971, Note_on_c, 0, 76, 80
2, 10972, Note_on_c, 0, 64, 80
2, 11001, Note_on_c, 0, 68, 80
2, 11002, Note_on_c, 0, 64, 0
2, 11030, Note_on_c, 0, 66, 80
2, 11031, Note_on_c, 0, 68, 0
2, 11060, Note_on_c, 0, 66, 0
2, 11060, Note_on_c, 0, 69, 80
2, 11089, Note_on_c, 0, 76, 0
2, 11089, Note_on_c, 0, 74, 80
2, 11090, Note_on_c, 0, 69, 0
2, 11090, Note_on_c, 0, 68, 80
2, 11118, Note_on_c, 0, 68, 0
2, 11119, Note_on_c, 0, 71, 80
2, 11149, Note_on_c, 0, 73, 80
2, 11149, Note_on_c, 0, 69, 80
2, 11150, Note_on_c, 0, 74, 0
2, 11150, Note_on_c, 0, 71, 0
2, 11171, Note_on_c, 0, 69, 0
2, 11178, Note_on_c, 0, 64, 80
2, 11193, Note_on_c, 0, 64, 0
2, 11210, Note_on_c, 0, 57, 80
2, 11240, Note_on_c, 0, 73, 0
2, 11241, Note_on_c, 0, 74, 80
2, 11268, Note_on_c, 0, 73, 80
2, 11269, Note_on_c, 0, 74, 0
2, 11277, Note_on_c, 0, 71, 80
2, 11278, Note_on_c, 0, 73, 0
2, 11284, Note_on_c, 0, 69, 80
2, 11285, Note_on_c, 0, 71, 0
2, 11291, Note_on_c, 0, 71, 80
2, 11292, Note_on_c, 0, 69, 0
2, 11297, Note_on_c, 0, 71, 0
2, 11297, Note_on_c, 0, 73, 80
2, 11301, Note_on_c, 0, 73, 0
2, 11302, Note_on_c, 0, 71, 80
2, 11307, Note_on_c, 0, 71, 0
2, 11308, Note_on_c, 0, 73, 80
2, 11312, Note_on_c, 0, 73, 0
2, 11312, Note_on_c, 0, 71, 80
2, 11317, Note_on_c, 0, 71, 0
2, 11317, Note_on_c, 0, 73, 80
2, 11319, Note_on_c, 0, 57, 0
2, 11320, Note_on_c, 0, 56, 80
2, 11321, Note_on_c, 0, 73, 0
2, 11321, Note_on_c, 0, 71, 80
2, 11324, Note_on_c, 0, 73, 80
2, 11325, Note_on_c, 0, 71, 0
2, 11330, Note_on_c, 0, 71, 80
2, 11331, Note_on_c, 0, 73, 0
2, 11353, Note_on_c, 0, 71, 0
2, 11353, Note_on_c, 0, 69, 80
2, 11367, Note_on_c, 0, 71, 80
2, 11368, Note_on_c, 0, 69, 0
2, 11383, Note_on_c, 0, 56, 0
2, 11383, Note_on_c, 0, 73, 80
2, 11384, Note_on_c, 0, 71, 0
2, 11384, Note_on_c, 0, 57, 80
2, 11402, Note_on_c, 0, 57, 0
2, 11417, Note_on_c, 0, 64, 80
2, 11435, Note_on_c, 0, 64, 0
2, 11450, Note_on_c, 0, 67, 80
2, 11478, Note_on_c, 0, 73, 0
2, 11479, Note_on_c, 0, 76, 80
2, 11509, Note_on_c, 0, 76, 0
2, 11509, Note_on_c, 0, 69, 80
2, 11540, Note_on_c, 0, 64, 80
2, 11541, Note_on_c, 0, 67, 0
2, 11555, Note_on_c, 0, 69, 0
2, 11572, Note_on_c, 0, 66, 80
2, 11572, Note_on_c, 0, 74, 80
2, 11573, Note_on_c, 0, 64, 0
2, 11601, Note_on_c, 0, 62, 80
2, 11602, Note_on_c, 0, 66, 0
2, 11633, Note_on_c, 0, 64, 80
2, 11635, Note_on_c, 0, 62, 0
2, 11653, Note_on_c, 0, 74, 0
2, 11663, Note_on_c, 0, 71, 80
2, 11691, Note_on_c, 0, 71, 0
2, 11691, Note_on_c, 0, 73, 80
2, 11721, Note_on_c, 0, 73, 0
2, 11721, Note_on_c, 0, 69, 80
2, 11751, Note_on_c, 0, 69, 0
2, 11751, Note_on_c, 0, 66, 80
2, 11782, Note_on_c, 0, 62, 80
2, 11785, Note_on_c, 0, 64, 0
2, 11811, Note_on_c, 0, 68, 80
2, 11814, Note_on_c, 0, 66, 0
2, 11815, Note_on_c, 0, 61, 80
2, 11817, Note_on_c, 0, 62, 0
2, 11842, Note_on_c, 0, 61, 0
2, 11842, Note_on_c, 0, 59, 80
2, 11853, Note_on_c, 0, 69, 80
2, 11854, Note_on_c, 0, 68, 0
2, 11860, Note_on_c, 0, 68, 80
2, 11862, Note_on_c, 0, 69, 0
2, 11866, Note_on_c, 0, 68, 0
2, 11866, Note_on_c, 0, 66, 80
2, 11871, Note_on_c, 0, 68, 80
2, 11873, Note_on_c, 0, 66, 0
2, 11876, Note_on_c, 0, 61, 80
2, 11878, Note_on_c, 0, 59, 0
2, 11878, Note_on_c, 0, 69, 80
2, 11879, Note_on_c, 0, 68, 0
2, 11901, Note_on_c, 0, 69, 0
2, 11904, Note_on_c, 0, 64, 80
2, 11933, Note_on_c, 0, 64, 0
2, 11933, Note_on_c, 0, 66, 80
2, 11962, Note_on_c, 0, 62, 80
2, 11963, Note_on_c, 0, 61, 0
2, 11990, Note_on_c, 0, 66, 0
2, 11990, Note_on_c, 0, 64, 80
2, 12021, Note_on_c, 0, 61, 80
2, 12024, Note_on_c, 0, 62, 0
2, 12054, Note_on_c, 0, 66, 80
2, 12055, Note_on_c, 0, 59, 80
2, 12056, Note_on_c, 0, 64, 0
2, 12057, Note_on_c, 0, 61, 0
2, 12085, Note_on_c, 0, 66, 0
2, 12085, Note_on_c, 0, 68, 80
2, 12116, Note_on_c, 0, 68, 0
2, 12116, Note_on_c, 0, 69, 80
2, 12116, Note_on_c, 0, 57, 80
2, 12117, Note_on_c, 0, 59, 0
2, 12146, Note_on_c, 0, 69, 0
2, 12147, Note_on_c, 0, 61, 80
2, 12176, Note_on_c, 0, 61, 0
2, 12177, Note_on_c, 0, 62, 80
2, 12205, Note_on_c, 0, 62, 0
2, 12206, Note_on_c, 0, 64, 80
2, 12222, Note_on_c, 0, 64, 0
2, 12236, Note_on_c, 0, 66, 80
2, 12240, Note_on_c, 0, 57, 0
2, 12264, Note_on_c, 0, 54, 80
2, 12292, Note_on_c, 0, 56, 80
2, 12293, Note_on_c, 0, 54, 0
2, 12321, Note_on_c, 0, 57, 80
2, 12323, Note_on_c, 0, 56, 0
2, 12351, Note_on_c, 0, 57, 0
2, 12351, Note_on_c, 0, 59, 80
2, 12352, Note_on_c, 0, 66, 0
2, 12385, Note_on_c, 0, 57, 80
2, 12386, Note_on_c, 0, 59, 0
2, 12414, Note_on_c, 0, 56, 80
2, 12415, Note_on_c, 0, 57, 0
2, 12446, Note_on_c, 0, 64, 80
2, 12451, Note_on_c, 0, 56, 0
2, 12472, Note_on_c, 0, 64, 0
2, 12473, Note_on_c, 0, 57, 80
2, 12473, Note_on_c, 0, 66, 80
2, 12503, Note_on_c, 0, 66, 0
2, 12503, Note_on_c, 0, 68, 80
2, 12506, Note_on_c, 0, 57, 0
2, 12520, Note_on_c, 0, 68, 0
2, 12531, Note_on_c, 0, 59, 80
2, 12533, Note_on_c, 0, 69, 80
2, 12539, Note_on_c, 0, 69, 0
2, 12539, Note_on_c, 0, 68, 80
2, 12543, Note_on_c, 0, 68, 0
2, 12543, Note_on_c, 0, 69, 80
2, 12550, Note_on_c, 0, 69, 0
2, 12550, Note_on_c, 0, 68, 80
2, 12553, Note_on_c, 0, 68, 0
2, 12553, Note_on_c, 0, 69, 80
2, 12559, Note_on_c, 0, 68, 80
2, 12561, Note_on_c, 0, 69, 0
2, 12564, Note_on_c, 0, 69, 80
2, 12567, Note_on_c, 0, 69, 0
2, 12568, Note_on_c, 0, 68, 0
2, 12568, Note_on_c, 0, 66, 80
2, 12571, Note_on_c, 0, 59, 0
2, 12581, Note_on_c, 0, 68, 80
2, 12582, Note_on_c, 0, 66, 0
2, 12593, Note_on_c, 0, 68, 0
2, 12593, Note_on_c, 0, 69, 80
2, 12593, Note_on_c, 0, 61, 80
2, 12619, Note_on_c, 0, 69, 0
2, 12621, Note_on_c, 0, 68, 80
2, 12632, Note_on_c, 0, 68, 0
2, 12649, Note_on_c, 0, 68, 80
2, 12677, Note_on_c, 0, 68, 0
2, 12679, Note_on_c, 0, 66, 80
2, 12690, Note_on_c, 0, 66, 0
2, 12693, Note_on_c, 0, 61, 0
2, 12708, Note_on_c, 0, 62, 80
2, 12709, Note_on_c, 0, 65, 80
2, 12743, Note_on_c, 0, 65, 0
2, 12743, Note_on_c, 0, 66, 80
2, 12756, Note_on_c, 0, 66, 0
2, 12772, Note_on_c, 0, 66, 80
2, 12804, Note_on_c, 0, 66, 0
2, 12804, Note_on_c, 0, 68, 80
2, 12817, Note_on_c, 0, 68, 0
2, 12834, Note_on_c, 0, 68, 80
2, 12843, Note_on_c, 0, 62, 0
2, 12863, Note_on_c, 0, 62, 80
2, 12893, Note_on_c, 0, 61, 80
2, 12895, Note_on_c, 0, 62, 0
2, 12924, Note_on_c, 0, 59, 80
2, 12926, Note_on_c, 0, 61, 0
2, 12955, Note_on_c, 0, 57, 80
2, 12957, Note_on_c, 0, 68, 0
2, 12957, Note_on_c, 0, 59, 0
2, 12985, Note_on_c, 0, 66, 80
2, 12998, Note_on_c, 0, 66, 0
2, 13000, Note_on_c, 0, 57, 0
2, 13014, Note_on_c, 0, 66, 80
2, 13014, Note_on_c, 0, 59, 80
2, 13044, Note_on_c, 0, 66, 0
2, 13044, Note_on_c, 0, 65, 80
2, 13073, Note_on_c, 0, 65, 0
2, 13073, Note_on_c, 0, 61, 80
2, 13074, Note_on_c, 0, 59, 0
2, 13074, Note_on_c, 0, 66, 80
2, 13102, Note_on_c, 0, 66, 0
2, 13104, Note_on_c, 0, 68, 80
2, 13118, Note_on_c, 0, 68, 0
2, 13118, Note_on_c, 0, 69, 80
2, 13119, Note_on_c, 0, 61, 0
2, 13134, Note_on_c, 0, 69, 0
2, 13135, Note_on_c, 0, 68, 80
2, 13135, Note_on_c, 0, 62, 80
2, 13164, Note_on_c, 0, 69, 80
2, 13166, Note_on_c, 0, 68, 0
2, 13176, Note_on_c, 0, 71, 80
2, 13177, Note_on_c, 0, 69, 0
2, 13183, Note_on_c, 0, 71, 0
2, 13195, Note_on_c, 0, 66, 80
2, 13205, Note_on_c, 0, 66, 0
2, 13206, Note_on_c, 0, 65, 80
2, 13209, Note_on_c, 0, 65, 0
2, 13209, Note_on_c, 0, 66, 80
2, 13211, Note_on_c, 0, 62, 0
2, 13214, Note_on_c, 0, 66, 0
2, 13215, Note_on_c, 0, 65, 80
2, 13220, Note_on_c, 0, 65, 0
2, 13220, Note_on_c, 0, 66, 80
2, 13223, Note_on_c, 0, 61, 80
2, 13224, Note_on_c, 0, 66, 0
2, 13224, Note_on_c, 0, 65, 80
2, 13228, Note_on_c, 0, 65, 0
2, 13230, Note_on_c, 0, 66, 80
2, 13234, Note_on_c, 0, 66, 0
2, 13235, Note_on_c, 0, 65, 80
2, 13238, Note_on_c, 0, 65, 0
2, 13240, Note_on_c, 0, 66, 80
2, 13245, Note_on_c, 0, 66, 0
2, 13246, Note_on_c, 0, 65, 80
2, 13248, Note_on_c, 0, 61, 0
2, 13249, Note_on_c, 0, 65, 0
2, 13249, Note_on_c, 0, 56, 80
2, 13249, Note_on_c, 0, 66, 80
2, 13254, Note_on_c, 0, 66, 0
2, 13254, Note_on_c, 0, 65, 80
2, 13277, Note_on_c, 0, 56, 0
2, 13278, Note_on_c, 0, 59, 80
2, 13290, Note_on_c, 0, 66, 80
2, 13291, Note_on_c, 0, 65, 0
2, 13300, Note_on_c, 0, 66, 0
2, 13312, Note_on_c, 0, 57, 80
2, 13313, Note_on_c, 0, 59, 0
2, 13313, Note_on_c, 0, 66, 80
2, 13336, Note_on_c, 0, 66, 0
2, 13344, Note_on_c, 0, 61, 80
2, 13375, Note_on_c, 0, 61, 0
2, 13375, Note_on_c, 0, 64, 80
2, 13404, Note_on_c, 0, 63, 80
2, 13405, Note_on_c, 0, 64, 0
2, 13417, Note_on_c, 0, 63, 0
2, 13432, Note_on_c, 0, 63, 80
2, 13462, Note_on_c, 0, 56, 80
2, 13464, Note_on_c, 0, 57, 0
2, 13492, Note_on_c, 0, 56, 0
2, 13492, Note_on_c, 0, 59, 80
2, 13492, Note_on_c, 0, 65, 80
2, 13493, Note_on_c, 0, 63, 0
2, 13523, Note_on_c, 0, 59, 0
2, 13523, Note_on_c, 0, 57, 80
2, 13535, Note_on_c, 0, 65, 0
2, 13549, Note_on_c, 0, 57, 0
2, 13554, Note_on_c, 0, 57, 80
2, 13554, Note_on_c, 0, 66, 80
2, 13584, Note_on_c, 0, 61, 80
2, 13585, Note_on_c, 0, 57, 0
2, 13612, Note_on_c, 0, 61, 0
2, 13612, Note_on_c, 0, 59, 80
2, 13639, Note_on_c, 0, 62, 80
2, 13640, Note_on_c, 0, 59, 0
2, 13652, Note_on_c, 0, 61, 80
2, 13654, Note_on_c, 0, 62, 0
2, 13666, Note_on_c, 0, 61, 0
2, 13669, Note_on_c, 0, 66, 0
2, 13669, Note_on_c, 0, 62, 80
2, 13699, Note_on_c, 0, 69, 80
2, 13729, Note_on_c, 0, 69, 0
2, 13729, Note_on_c, 0, 68, 80
2, 13757, Note_on_c, 0, 71, 80
2, 13758, Note_on_c, 0, 68, 0
2, 13773, Note_on_c, 0, 71, 0
2, 13773, Note_on_c, 0, 70, 80
2, 13790, Note_on_c, 0, 70, 0
2, 13790, Note_on_c, 0, 71, 80
2, 13793, Note_on_c, 0, 62, 0
2, 13820, Note_on_c, 0, 59, 80
2, 13836, Note_on_c, 0, 71, 0
2, 13846, Note_on_c, 0, 59, 0
2, 13852, Note_on_c, 0, 69, 80
2, 13853, Note_on_c, 0, 61, 80
2, 13881, Note_on_c, 0, 62, 80
2, 13884, Note_on_c, 0, 61, 0
2, 13910, Note_on_c, 0, 64, 80
2, 13911, Note_on_c, 0, 62, 0
2, 13940, Note_on_c, 0, 69, 0
2, 13942, Note_on_c, 0, 66, 80
2, 13971, Note_on_c, 0, 66, 0
2, 13972, Note_on_c, 0, 68, 80
2, 13983, Note_on_c, 0, 64, 0
2, 14004, Note_on_c, 0, 59, 80
2, 14018, Note_on_c, 0, 68, 0
2, 14035, Note_on_c, 0, 59, 0
2, 14035, Note_on_c, 0, 69, 80
2, 14036, Note_on_c, 0, 64, 80
2, 14066, Note_on_c, 0, 69, 0
2, 14066, Note_on_c, 0, 68, 80
2, 14079, Note_on_c, 0, 68, 0
2, 14081, Note_on_c, 0, 64, 0
2, 14096, Note_on_c, 0, 66, 80
2, 14096, Note_on_c, 0, 62, 80
2, 14119, Note_on_c, 0, 66, 0
2, 14123, Note_on_c, 0, 62, 0
2, 14125, Note_on_c, 0, 61, 80
2, 14126, Note_on_c, 0, 64, 80
2, 14140, Note_on_c, 0, 64, 0
2, 14142, Note_on_c, 0, 61, 0
2, 14154, Note_on_c, 0, 62, 80
2, 14155, Note_on_c, 0, 59, 80
2, 14185, Note_on_c, 0, 57, 80
2, 14185, Note_on_c, 0, 61, 80
2, 14186, Note_on_c, 0, 59, 0
2, 14187, Note_on_c, 0, 62, 0
2, 14214, Note_on_c, 0, 61, 0
2, 14215, Note_on_c, 0, 66, 80
2, 14244, Note_on_c, 0, 64, 80
2, 14245, Note_on_c, 0, 66, 0
2, 14274, Note_on_c, 0, 66, 80
2, 14275, Note_on_c, 0, 64, 0
2, 14305, Note_on_c, 0, 56, 80
2, 14308, Note_on_c, 0, 57, 0
2, 14335, Note_on_c, 0, 56, 0
2, 14336, Note_on_c, 0, 57, 80
2, 14362, Note_on_c, 0, 66, 0
2, 14364, Note_on_c, 0, 64, 80
2, 14394, Note_on_c, 0, 64, 0
2, 14394, Note_on_c, 0, 66, 80
2, 14426, Note_on_c, 0, 66, 0
2, 14426, Note_on_c, 0, 62, 80
2, 14455, Note_on_c, 0, 62, 0
2, 14455, Note_on_c, 0, 59, 80
2, 14456, Note_on_c, 0, 56, 80
2, 14461, Note_on_c, 0, 57, 0
2, 14486, Note_on_c, 0, 59, 0
2, 14486, Note_on_c, 0, 64, 80
2, 14514, Note_on_c, 0, 56, 0
2, 14515, Note_on_c, 0, 57, 80
2, 14515, Note_on_c, 0, 61, 80
2, 14516, Note_on_c, 0, 64, 0
2, 14532, Note_on_c, 0, 57, 0
2, 14547, Note_on_c, 0, 57, 80
2, 14549, Note_on_c, 0, 61, 0
2, 14576, Note_on_c, 0, 59, 80
2, 14578, Note_on_c, 0, 57, 0
2, 14605, Note_on_c, 0, 61, 80
2, 14608, Note_on_c, 0, 59, 0
2, 14633, Note_on_c, 0, 61, 0
2, 14633, Note_on_c, 0, 62, 80
2, 14664, Note_on_c, 0, 62, 0
2, 14664, Note_on_c, 0, 64, 80
2, 14693, Note_on_c, 0, 64, 0
2, 14693, Note_on_c, 0, 66, 80
2, 14701, Note_on_c, 0, 64, 80
2, 14702, Note_on_c, 0, 66, 0
2, 14708, Note_on_c, 0, 64, 0
2, 14708, Note_on_c, 0, 66, 80
2, 14713, Note_on_c, 0, 66, 0
2, 14713, Note_on_c, 0, 64, 80
2, 14717, Note_on_c, 0, 64, 0
2, 14717, Note_on_c, 0, 66, 80
2, 14720, Note_on_c, 0, 64, 80
2, 14721, Note_on_c, 0, 66, 0
2, 14727, Note_on_c, 0, 62, 80
2, 14728, Note_on_c, 0, 64, 0
2, 14734, Note_on_c, 0, 64, 80
2, 14736, Note_on_c, 0, 62, 0
2, 14749, Note_on_c, 0, 64, 0
2, 14749, Note_on_c, 0, 66, 80
2, 14778, Note_on_c, 0, 62, 80
2, 14781, Note_on_c, 0, 66, 0
2, 14809, Note_on_c, 0, 61, 80
2, 14809, Note_on_c, 0, 67, 80
2, 14810, Note_on_c, 0, 62, 0
2, 14837, Note_on_c, 0, 61, 0
2, 14838, Note_on_c, 0, 59, 80
2, 14855, Note_on_c, 0, 59, 0
2, 14868, Note_on_c, 0, 57, 80
2, 14897, Note_on_c, 0, 59, 80
2, 14899, Note_on_c, 0, 57, 0
2, 14930, Note_on_c, 0, 66, 80
2, 14931, Note_on_c, 0, 61, 80
2, 14932, Note_on_c, 0, 67, 0
2, 14933, Note_on_c, 0, 59, 0
2, 14946, Note_on_c, 0, 61, 0
2, 14946, Note_on_c, 0, 59, 80
2, 14961, Note_on_c, 0, 57, 80
2, 14964, Note_on_c, 0, 59, 0
2, 14976, Note_on_c, 0, 59, 80
2, 14977, Note_on_c, 0, 57, 0
2, 14995, Note_on_c, 0, 64, 80
2, 14996, Note_on_c, 0, 66, 0
2, 14996, Note_on_c, 0, 59, 0
2, 14996, Note_on_c, 0, 61, 80
2, 15025, Note_on_c, 0, 66, 80
2, 15026, Note_on_c, 0, 64, 0
2, 15055, Note_on_c, 0, 66, 0
2, 15056, Note_on_c, 0, 61, 0
2, 15056, Note_on_c, 0, 57, 80
2, 15056, Note_on_c, 0, 67, 80
2, 15085, Note_on_c, 0, 66, 80
2, 15086, Note_on_c, 0, 67, 0
2, 15105, Note_on_c, 0, 57, 0
2, 15115, Note_on_c, 0, 66, 0
2, 15115, Note_on_c, 0, 67, 80
2, 15115, Note_on_c, 0, 59, 80
2, 15146, Note_on_c, 0, 61, 80
2, 15148, Note_on_c, 0, 59, 0
2, 15175, Note_on_c, 0, 61, 0
2, 15176, Note_on_c, 0, 67, 0
2, 15176, Note_on_c, 0, 62, 80
2, 15176, Note_on_c, 0, 64, 80
2, 15205, Note_on_c, 0, 61, 80
2, 15206, Note_on_c, 0, 62, 0
2, 15227, Note_on_c, 0, 64, 0
2, 15237, Note_on_c, 0, 66, 80
2, 15238, Note_on_c, 0, 61, 0
2, 15238, Note_on_c, 0, 62, 80
2, 15267, Note_on_c, 0, 68, 80
2, 15268, Note_on_c, 0, 66, 0
2, 15295, Note_on_c, 0, 69, 80
2, 15296, Note_on_c, 0, 68, 0
2, 15318, Note_on_c, 0, 69, 0
2, 15323, Note_on_c, 0, 68, 80
2, 15343, Note_on_c, 0, 68, 0
2, 15352, Note_on_c, 0, 69, 80
2, 15384, Note_on_c, 0, 61, 80
2, 15386, Note_on_c, 0, 62, 0
2, 15415, Note_on_c, 0, 61, 0
2, 15415, Note_on_c, 0, 59, 80
2, 15445, Note_on_c, 0, 57, 80
2, 15446, Note_on_c, 0, 59, 0
2, 15461, Note_on_c, 0, 59, 80
2, 15462, Note_on_c, 0, 57, 0
2, 15479, Note_on_c, 0, 61, 80
2, 15481, Note_on_c, 0, 59, 0
2, 15495, Note_on_c, 0, 69, 0
2, 15509, Note_on_c, 0, 64, 80
2, 15519, Note_on_c, 0, 61, 0
2, 15537, Note_on_c, 0, 66, 80
2, 15538, Note_on_c, 0, 64, 0
2, 15538, Note_on_c, 0, 62, 80
2, 15566, Note_on_c, 0, 66, 0
2, 15567, Note_on_c, 0, 68, 80
2, 15568, Note_on_c, 0, 62, 0
2, 15568, Note_on_c, 0, 64, 80
2, 15597, Note_on_c, 0, 68, 0
2, 15597, Note_on_c, 0, 69, 80
2, 15597, Note_on_c, 0, 66, 80
2, 15598, Note_on_c, 0, 64, 0
2, 15628, Note_on_c, 0, 69, 0
2, 15628, Note_on_c, 0, 68, 80
2, 15628, Note_on_c, 0, 73, 80
2, 15630, Note_on_c, 0, 66, 0
2, 15643, Note_on_c, 0, 73, 0
2, 15644, Note_on_c, 0, 71, 80
2, 15660, Note_on_c, 0, 68, 0
2, 15660, Note_on_c, 0, 69, 80
2, 15660, Note_on_c, 0, 73, 80
2, 15661, Note_on_c, 0, 71, 0
2, 15689, Note_on_c, 0, 73, 0
2, 15689, Note_on_c, 0, 76, 80
2, 15705, Note_on_c, 0, 74, 80
2, 15708, Note_on_c, 0, 76, 0
2, 15711, Note_on_c, 0, 74, 0
2, 15721, Note_on_c, 0, 74, 80
2, 15749, Note_on_c, 0, 76, 80
2, 15750, Note_on_c, 0, 74, 0
2, 15764, Note_on_c, 0, 74, 80
2, 15766, Note_on_c, 0, 76, 0
2, 15778, Note_on_c, 0, 74, 0
2, 15778, Note_on_c, 0, 67, 80
2, 15778, Note_on_c, 0, 73, 80
2, 15779, Note_on_c, 0, 69, 0
2, 15792, Note_on_c, 0, 73, 0
2, 15792, Note_on_c, 0, 74, 80
2, 15807, Note_on_c, 0, 74, 0
2, 15807, Note_on_c, 0, 71, 80
2, 15823, Note_on_c, 0, 71, 0
2, 15834, Note_on_c, 0, 71, 80
2, 15835, Note_on_c, 0, 64, 80
2, 15837, Note_on_c, 0, 67, 0
2, 15864, Note_on_c, 0, 69, 80
2, 15865, Note_on_c, 0, 71, 0
2, 15893, Note_on_c, 0, 69, 0
2, 15893, Note_on_c, 0, 67, 80
2, 15894, Note_on_c, 0, 61, 80
2, 15895, Note_on_c, 0, 64, 0
2, 15923, Note_on_c, 0, 66, 80
2, 15925, Note_on_c, 0, 67, 0
2, 15938, Note_on_c, 0, 66, 0
2, 15938, Note_on_c, 0, 67, 80
2, 15954, Note_on_c, 0, 61, 0
2, 15956, Note_on_c, 0, 67, 0
2, 15956, Note_on_c, 0, 66, 80
2, 15956, Note_on_c, 0, 57, 80
2, 15984, Note_on_c, 0, 66, 0
2, 15984, Note_on_c, 0, 67, 80
2, 15998, Note_on_c, 0, 67, 0
2, 15999, Note_on_c, 0, 64, 80
2, 16014, Note_on_c, 0, 66, 80
2, 16015, Note_on_c, 0, 64, 0
2, 16019, Note_on_c, 0, 57, 0
2, 16043, Note_on_c, 0, 68, 80
2, 16071, Note_on_c, 0, 69, 80
2, 16072, Note_on_c, 0, 68, 0
2, 16100, Note_on_c, 0, 69, 0
2, 16100, Note_on_c, 0, 68, 80
2, 16130, Note_on_c, 0, 64, 80
2, 16131, Note_on_c, 0, 71, 80
2, 16132, Note_on_c, 0, 66, 0
2, 16132, Note_on_c, 0, 68, 0
2, 16162, Note_on_c, 0, 71, 0
2, 16162, Note_on_c, 0, 70, 80
2, 16191, Note_on_c, 0, 62, 80
2, 16191, Note_on_c, 0, 71, 80
2, 16192, Note_on_c, 0, 70, 0
2, 16193, Note_on_c, 0, 64, 0
2, 16220, Note_on_c, 0, 59, 80
2, 16221, Note_on_c, 0, 62, 0
2, 16253, Note_on_c, 0, 59, 0
2, 16253, Note_on_c, 0, 67, 80
2, 16280, Note_on_c, 0, 73, 80
2, 16281, Note_on_c, 0, 71, 0
2, 16295, Note_on_c, 0, 74, 80
2, 16296, Note_on_c, 0, 73, 0
2, 16314, Note_on_c, 0, 73, 80
2, 16315, Note_on_c, 0, 74, 0
2, 16334, Note_on_c, 0, 67, 0
2, 16343, Note_on_c, 0, 67, 80
2, 16370, Note_on_c, 0, 66, 80
2, 16372, Note_on_c, 0, 67, 0
2, 16387, Note_on_c, 0, 67, 80
2, 16388, Note_on_c, 0, 66, 0
2, 16401, Note_on_c, 0, 64, 80
2, 16403, Note_on_c, 0, 67, 0
2, 16432, Note_on_c, 0, 62, 80
2, 16434, Note_on_c, 0, 64, 0
2, 16447, Note_on_c, 0, 73, 0
2, 16463, Note_on_c, 0, 66, 80
2, 16479, Note_on_c, 0, 66, 0
2, 16495, Note_on_c, 0, 71, 80
2, 16524, Note_on_c, 0, 64, 80
2, 16525, Note_on_c, 0, 62, 0
2, 16543, Note_on_c, 0, 64, 0
2, 16556, Note_on_c, 0, 62, 80
2, 16564, Note_on_c, 0, 62, 0
2, 16564, Note_on_c, 0, 61, 80
2, 16570, Note_on_c, 0, 61, 0
2, 16571, Note_on_c, 0, 62, 80
2, 16576, Note_on_c, 0, 62, 0
2, 16577, Note_on_c, 0, 61, 80
2, 16581, Note_on_c, 0, 61, 0
2, 16583, Note_on_c, 0, 62, 80
2, 16586, Note_on_c, 0, 71, 0
2, 16586, Note_on_c, 0, 69, 80
2, 16588, Note_on_c, 0, 62, 0
2, 16588, Note_on_c, 0, 61, 80
2, 16592, Note_on_c, 0, 61, 0
2, 16594, Note_on_c, 0, 62, 80
2, 16598, Note_on_c, 0, 62, 0
2, 16598, Note_on_c, 0, 61, 80
2, 16602, Note_on_c, 0, 61, 0
2, 16602, Note_on_c, 0, 68, 80
2, 16603, Note_on_c, 0, 69, 0
2, 16603, Note_on_c, 0, 62, 80
2, 16607, Note_on_c, 0, 62, 0
2, 16607, Note_on_c, 0, 61, 80
2, 16610, Note_on_c, 0, 61, 0
2, 16612, Note_on_c, 0, 62, 80
2, 16616, Note_on_c, 0, 62, 0
2, 16616, Note_on_c, 0, 61, 80
2, 16620, Note_on_c, 0, 68, 0
2, 16620, Note_on_c, 0, 61, 0
2, 16620, Note_on_c, 0, 69, 80
2, 16621, Note_on_c, 0, 62, 80
2, 16628, Note_on_c, 0, 62, 0
2, 16628, Note_on_c, 0, 61, 80
2, 16645, Note_on_c, 0, 61, 0
2, 16645, Note_on_c, 0, 59, 80
2, 16662, Note_on_c, 0, 61, 80
2, 16663, Note_on_c, 0, 59, 0
2, 16677, Note_on_c, 0, 59, 80
2, 16678, Note_on_c, 0, 61, 0
2, 16705, Note_on_c, 0, 69, 0
2, 16705, Note_on_c, 0, 68, 80
2, 16706, Note_on_c, 0, 59, 0
2, 16706, Note_on_c, 0, 62, 80
2, 16736, Note_on_c, 0, 61, 80
2, 16737, Note_on_c, 0, 68, 0
2, 16737, Note_on_c, 0, 76, 80
2, 16738, Note_on_c, 0, 62, 0
2, 16765, Note_on_c, 0, 61, 0
2, 16766, Note_on_c, 0, 59, 80
2, 16796, Note_on_c, 0, 57, 80
2, 16799, Note_on_c, 0, 59, 0
2, 16827, Note_on_c, 0, 59, 80
2, 16828, Note_on_c, 0, 57, 0
2, 16857, Note_on_c, 0, 76, 0
2, 16857, Note_on_c, 0, 59, 0
2, 16857, Note_on_c, 0, 61, 80
2, 16857, Note_on_c, 0, 74, 80
2, 16865, Note_on_c, 0, 59, 80
2, 16866, Note_on_c, 0, 61, 0
2, 16872, Note_on_c, 0, 59, 0
2, 16872, Note_on_c, 0, 61, 80
2, 16877, Note_on_c, 0, 61, 0
2, 16877, Note_on_c, 0, 59, 80
2, 16881, Note_on_c, 0, 59, 0
2, 16881, Note_on_c, 0, 61, 80
2, 16884, Note_on_c, 0, 59, 80
2, 16887, Note_on_c, 0, 61, 0
2, 16896, Note_on_c, 0, 59, 0
2, 16896, Note_on_c, 0, 57, 80
2, 16904, Note_on_c, 0, 59, 80
2, 16908, Note_on_c, 0, 57, 0
2, 16917, Note_on_c, 0, 59, 0
2, 16917, Note_on_c, 0, 61, 80
2, 16917, Note_on_c, 0, 73, 80
2, 16919, Note_on_c, 0, 74, 0
2, 16935, Note_on_c, 0, 61, 0
2, 16946, Note_on_c, 0, 57, 80
2, 16975, Note_on_c, 0, 73, 0
2, 16976, Note_on_c, 0, 57, 0
2, 16976, Note_on_c, 0, 71, 80
2, 16976, Note_on_c, 0, 56, 80
2, 17005, Note_on_c, 0, 71, 0
2, 17005, Note_on_c, 0, 56, 0
2, 17005, Note_on_c, 0, 54, 80
2, 17006, Note_on_c, 0, 69, 80
2, 17035, Note_on_c, 0, 71, 80
2, 17035, Note_on_c, 0, 56, 80
2, 17036, Note_on_c, 0, 54, 0
2, 17036, Note_on_c, 0, 69, 0
2, 17065, Note_on_c, 0, 56, 0
2, 17065, Note_on_c, 0, 57, 80
2, 17066, Note_on_c, 0, 71, 0
2, 17066, Note_on_c, 0, 73, 80
2, 17095, Note_on_c, 0, 57, 0
2, 17096, Note_on_c, 0, 73, 0
2, 17096, Note_on_c, 0, 74, 80
2, 17096, Note_on_c, 0, 59, 80
2, 17104, Note_on_c, 0, 59, 0
2, 17104, Note_on_c, 0, 57, 80
2, 17106, Note_on_c, 0, 73, 80
2, 17107, Note_on_c, 0, 74, 0
2, 17112, Note_on_c, 0, 73, 0
2, 17113, Note_on_c, 0, 57, 0
2, 17113, Note_on_c, 0, 74, 80
2, 17113, Note_on_c, 0, 59, 80
2, 17117, Note_on_c, 0, 73, 80
2, 17119, Note_on_c, 0, 73, 0
2, 17121, Note_on_c, 0, 59, 0
2, 17121, Note_on_c, 0, 57, 80
2, 17123, Note_on_c, 0, 73, 80
2, 17125, Note_on_c, 0, 74, 0
2, 17128, Note_on_c, 0, 73, 0
2, 17129, Note_on_c, 0, 71, 80
2, 17133, Note_on_c, 0, 58, 80
2, 17135, Note_on_c, 0, 58, 0
2, 17136, Note_on_c, 0, 73, 80
2, 17137, Note_on_c, 0, 71, 0
2, 17141, Note_on_c, 0, 59, 80
2, 17142, Note_on_c, 0, 57, 0
2, 17146, Note_on_c, 0, 73, 0
2, 17147, Note_on_c, 0, 74, 80
2, 17180, Note_on_c, 0, 74, 0
2, 17180, Note_on_c, 0, 71, 80
2, 17181, Note_on_c, 0, 59, 0
2, 17181, Note_on_c, 0, 56, 80
2, 17207, Note_on_c, 0, 54, 80
2, 17209, Note_on_c, 0, 56, 0
2, 17209, Note_on_c, 0, 69, 80
2, 17210, Note_on_c, 0, 71, 0
2, 17237, Note_on_c, 0, 52, 80
2, 17238, Note_on_c, 0, 69, 0
2, 17238, Note_on_c, 0, 68, 80
2, 17239, Note_on_c, 0, 54, 0
2, 17265, Note_on_c, 0, 54, 80
2, 17267, Note_on_c, 0, 52, 0
2, 17268, Note_on_c, 0, 68, 0
2, 17269, Note_on_c, 0, 69, 80
2, 17296, Note_on_c, 0, 54, 0
2, 17296, Note_on_c, 0, 56, 80
2, 17297, Note_on_c, 0, 69, 0
2, 17298, Note_on_c, 0, 71, 80
2, 17323, Note_on_c, 0, 56, 0
2, 17324, Note_on_c, 0, 57, 80
2, 17328, Note_on_c, 0, 71, 0
2, 17328, Note_on_c, 0, 73, 80
2, 17333, Note_on_c, 0, 56, 80
2, 17335, Note_on_c, 0, 57, 0
2, 17336, Note_on_c, 0, 73, 0
2, 17336, Note_on_c, 0, 71, 80
2, 17340, Note_on_c, 0, 56, 0
2, 17340, Note_on_c, 0, 57, 80
2, 17342, Note_on_c, 0, 71, 0
2, 17342, Note_on_c, 0, 73, 80
2, 17346, Note_on_c, 0, 73, 0
2, 17346, Note_on_c, 0, 56, 80
2, 17347, Note_on_c, 0, 57, 0
2, 17347, Note_on_c, 0, 71, 80
2, 17350, Note_on_c, 0, 57, 80
2, 17351, Note_on_c, 0, 56, 0
2, 17351, Note_on_c, 0, 71, 0
2, 17351, Note_on_c, 0, 73, 80
2, 17354, Note_on_c, 0, 73, 0
2, 17354, Note_on_c, 0, 56, 80
2, 17355, Note_on_c, 0, 71, 80
2, 17356, Note_on_c, 0, 57, 0
2, 17357, Note_on_c, 0, 73, 80
2, 17358, Note_on_c, 0, 71, 0
2, 17361, Note_on_c, 0, 56, 0
2, 17361, Note_on_c, 0, 73, 0
2, 17361, Note_on_c, 0, 71, 80
2, 17361, Note_on_c, 0, 54, 80
2, 17368, Note_on_c, 0, 71, 0
2, 17369, Note_on_c, 0, 69, 80
2, 17370, Note_on_c, 0, 56, 80
2, 17373, Note_on_c, 0, 54, 0
2, 17375, Note_on_c, 0, 71, 80
2, 17376, Note_on_c, 0, 69, 0
2, 17385, Note_on_c, 0, 56, 0
2, 17386, Note_on_c, 0, 57, 80
2, 17388, Note_on_c, 0, 71, 0
2, 17388, Note_on_c, 0, 73, 80
2, 17420, Note_on_c, 0, 73, 0
2, 17421, Note_on_c, 0, 69, 80
2, 17446, Note_on_c, 0, 57, 0
2, 17449, Note_on_c, 0, 68, 80
2, 17449, Note_on_c, 0, 62, 80
2, 17450, Note_on_c, 0, 69, 0
2, 17467, Note_on_c, 0, 68, 0
2, 17467, Note_on_c, 0, 66, 80
2, 17481, Note_on_c, 0, 61, 80
2, 17482, Note_on_c, 0, 62, 0
2, 17513, Note_on_c, 0, 61, 0
2, 17513, Note_on_c, 0, 59, 80
2, 17543, Note_on_c, 0, 59, 0
2, 17543, Note_on_c, 0, 57, 80
2, 17571, Note_on_c, 0, 57, 0
2, 17572, Note_on_c, 0, 66, 0
2, 17572, Note_on_c, 0, 56, 80
2, 17573, Note_on_c, 0, 64, 80
2, 17600, Note_on_c, 0, 64, 0
2, 17604, Note_on_c, 0, 54, 80
2, 17604, Note_on_c, 0, 62, 80
2, 17605, Note_on_c, 0, 56, 0
2, 17632, Note_on_c, 0, 62, 0
2, 17633, Note_on_c, 0, 52, 80
2, 17635, Note_on_c, 0, 54, 0
2, 17635, Note_on_c, 0, 61, 80
2, 17662, Note_on_c, 0, 61, 0
2, 17665, Note_on_c, 0, 59, 80
2, 17691, Note_on_c, 0, 59, 0
2, 17694, Note_on_c, 0, 61, 80
2, 17698, Note_on_c, 0, 52, 0
2, 17723, Note_on_c, 0, 64, 80
2, 17752, Note_on_c, 0, 64, 0
2, 17752, Note_on_c, 0, 62, 80
2, 17784, Note_on_c, 0, 66, 80
2, 17786, Note_on_c, 0, 62, 0
2, 17812, Note_on_c, 0, 61, 0
2, 17813, Note_on_c, 0, 59, 80
2, 17813, Note_on_c, 0, 64, 80
2, 17814, Note_on_c, 0, 66, 0
2, 17845, Note_on_c, 0, 64, 0
2, 17845, Note_on_c, 0, 67, 80
2, 17871, Note_on_c, 0, 67, 0
2, 17875, Note_on_c, 0, 57, 80
2, 17876, Note_on_c, 0, 66, 80
2, 17879, Note_on_c, 0, 59, 0
2, 17910, Note_on_c, 0, 57, 0
2, 17911, Note_on_c, 0, 66, 0
2, 17939, Note_on_c, 0, 62, 80
2, 17940, Note_on_c, 0, 66, 80
2, 17977, Note_on_c, 0, 66, 0
2, 17979, Note_on_c, 0, 62, 0
2, 18000, Note_on_c, 0, 66, 80
2, 18001, Note_on_c, 0, 62, 80
2, 18027, Note_on_c, 0, 66, 0
2, 18028, Note_on_c, 0, 61, 80
2, 18028, Note_on_c, 0, 64, 80
2, 18029, Note_on_c, 0, 62, 0
2, 18038, Note_on_c, 0, 64, 0
2, 18040, Note_on_c, 0, 61, 0
2, 18058, Note_on_c, 0, 61, 80
2, 18058, Note_on_c, 0, 64, 80
2, 18085, Note_on_c, 0, 61, 0
2, 18086, Note_on_c, 0, 59, 80
2, 18086, Note_on_c, 0, 62, 80
2, 18088, Note_on_c, 0, 64, 0
2, 18096, Note_on_c, 0, 59, 0
2, 18096, Note_on_c, 0, 62, 0
2, 18117, Note_on_c, 0, 62, 80
2, 18117, Note_on_c, 0, 59, 80
2, 18146, Note_on_c, 0, 66, 80
2, 18147, Note_on_c, 0, 62, 0
2, 18177, Note_on_c, 0, 66, 0
2, 18178, Note_on_c, 0, 71, 80
2, 18203, Note_on_c, 0, 59, 0
2, 18204, Note_on_c, 0, 66, 80
2, 18207, Note_on_c, 0, 71, 0
2, 18234, Note_on_c, 0, 67, 80
2, 18235, Note_on_c, 0, 66, 0
2, 18264, Note_on_c, 0, 64, 80
2, 18292, Note_on_c, 0, 64, 0
2, 18293, Note_on_c, 0, 67, 0
2, 18293, Note_on_c, 0, 58, 80
2, 18295, Note_on_c, 0, 66, 80
2, 18309, Note_on_c, 0, 66, 0
2, 18309, Note_on_c, 0, 64, 80
2, 18345, Note_on_c, 0, 64, 0
2, 18355, Note_on_c, 0, 61, 80
2, 18356, Note_on_c, 0, 58, 0
2, 18356, Note_on_c, 0, 64, 80
2, 18385, Note_on_c, 0, 67, 80
2, 18388, Note_on_c, 0, 61, 0
2, 18411, Note_on_c, 0, 64, 0
2, 18415, Note_on_c, 0, 66, 80
2, 18415, Note_on_c, 0, 62, 80
2, 18416, Note_on_c, 0, 67, 0
2, 18455, Note_on_c, 0, 66, 0
2, 18474, Note_on_c, 0, 66, 80
2, 18475, Note_on_c, 0, 61, 80
2, 18476, Note_on_c, 0, 62, 0
2, 18532, Note_on_c, 0, 66, 0
2, 18537, Note_on_c, 0, 61, 0
2, 18538, Note_on_c, 0, 64, 80
2, 18538, Note_on_c, 0, 54, 80
2, 18621, Note_on_c, 0, 61, 80
2, 18623, Note_on_c, 0, 64, 0
2, 18650, Note_on_c, 0, 61, 0
2, 18651, Note_on_c, 0, 62, 80
2, 18680, Note_on_c, 0, 62, 0
2, 18680, Note_on_c, 0, 59, 80
2, 18700, Note_on_c, 0, 59, 0
2, 18711, Note_on_c, 0, 56, 80
2, 18743, Note_on_c, 0, 54, 0
2, 18743, Note_on_c, 0, 52, 80
2, 18774, Note_on_c, 0, 50, 80
2, 18774, Note_on_c, 0, 58, 80
2, 18775, Note_on_c, 0, 56, 0
2, 18775, Note_on_c, 0, 52, 0
2, 18805, Note_on_c, 0, 50, 0
2, 18805, Note_on_c, 0, 49, 80
2, 18827, Note_on_c, 0, 58, 0
2, 18836, Note_on_c, 0, 59, 80
2, 18836, Note_on_c, 0, 50, 80
2, 18837, Note_on_c, 0, 49, 0
2, 18856, Note_on_c, 0, 59, 0
2, 18868, Note_on_c, 0, 66, 80
2, 18869, Note_on_c, 0, 50, 0
2, 18897, Note_on_c, 0, 66, 0
2, 18897, Note_on_c, 0, 54, 80
2, 18897, Note_on_c, 0, 64, 80
2, 18926, Note_on_c, 0, 64, 0
2, 18926, Note_on_c, 0, 62, 80
2, 18954, Note_on_c, 0, 62, 0
2, 18954, Note_on_c, 0, 64, 80
2, 18954, Note_on_c, 0, 59, 80
2, 18955, Note_on_c, 0, 54, 0
2, 18983, Note_on_c, 0, 64, 0
2, 18983, Note_on_c, 0, 66, 80
2, 19011, Note_on_c, 0, 66, 0
2, 19012, Note_on_c, 0, 67, 80
2, 19022, Note_on_c, 0, 66, 80
2, 19023, Note_on_c, 0, 67, 0
2, 19028, Note_on_c, 0, 66, 0
2, 19029, Note_on_c, 0, 67, 80
2, 19034, Note_on_c, 0, 66, 80
2, 19035, Note_on_c, 0, 67, 0
2, 19039, Note_on_c, 0, 66, 0
2, 19039, Note_on_c, 0, 67, 80
2, 19043, Note_on_c, 0, 66, 80
2, 19045, Note_on_c, 0, 67, 0
2, 19049, Note_on_c, 0, 66, 0
2, 19050, Note_on_c, 0, 64, 80
2, 19058, Note_on_c, 0, 64, 0
2, 19058, Note_on_c, 0, 66, 80
2, 19071, Note_on_c, 0, 66, 0
2, 19072, Note_on_c, 0, 67, 80
2, 19100, Note_on_c, 0, 59, 0
2, 19100, Note_on_c, 0, 67, 0
2, 19100, Note_on_c, 0, 61, 80
2, 19101, Note_on_c, 0, 64, 80
2, 19131, Note_on_c, 0, 61, 0
2, 19131, Note_on_c, 0, 62, 80
2, 19132, Note_on_c, 0, 64, 0
2, 19132, Note_on_c, 0, 59, 80
2, 19161, Note_on_c, 0, 62, 0
2, 19161, Note_on_c, 0, 57, 80
2, 19161, Note_on_c, 0, 61, 80
2, 19163, Note_on_c, 0, 59, 0
2, 19190, Note_on_c, 0, 59, 80
2, 19191, Note_on_c, 0, 62, 80
2, 19192, Note_on_c, 0, 61, 0
2, 19193, Note_on_c, 0, 57, 0
2, 19222, Note_on_c, 0, 62, 0
2, 19222, Note_on_c, 0, 64, 80
2, 19222, Note_on_c, 0, 61, 80
2, 19223, Note_on_c, 0, 59, 0
2, 19248, Note_on_c, 0, 64, 0
2, 19252, Note_on_c, 0, 61, 0
2, 19253, Note_on_c, 0, 62, 80
2, 19254, Note_on_c, 0, 66, 80
2, 19262, Note_on_c, 0, 66, 0
2, 19262, Note_on_c, 0, 64, 80
2, 19262, Note_on_c, 0, 61, 80
2, 19263, Note_on_c, 0, 62, 0
2, 19268, Note_on_c, 0, 64, 0
2, 19268, Note_on_c, 0, 61, 0
2, 19268, Note_on_c, 0, 66, 80
2, 19269, Note_on_c, 0, 62, 80
2, 19272, Note_on_c, 0, 66, 0
2, 19273, Note_on_c, 0, 64, 80
2, 19274, Note_on_c, 0, 62, 0
2, 19274, Note_on_c, 0, 61, 80
2, 19276, Note_on_c, 0, 64, 0
2, 19277, Note_on_c, 0, 61, 0
2, 19277, Note_on_c, 0, 66, 80
2, 19277, Note_on_c, 0, 62, 80
2, 19280, Note_on_c, 0, 66, 0
2, 19281, Note_on_c, 0, 61, 80
2, 19281, Note_on_c, 0, 64, 80
2, 19282, Note_on_c, 0, 62, 0
2, 19283, Note_on_c, 0, 66, 80
2, 19284, Note_on_c, 0, 64, 0
2, 19286, Note_on_c, 0, 64, 80
2, 19287, Note_on_c, 0, 61, 0
2, 19287, Note_on_c, 0, 66, 0
2, 19288, Note_on_c, 0, 59, 80
2, 19293, Note_on_c, 0, 64, 0
2, 19293, Note_on_c, 0, 62, 80
2, 19296, Note_on_c, 0, 61, 80
2, 19297, Note_on_c, 0, 59, 0
2, 19299, Note_on_c, 0, 64, 80
2, 19300, Note_on_c, 0, 62, 0
2, 19310, Note_on_c, 0, 64, 0
2, 19311, Note_on_c, 0, 61, 0
2, 19311, Note_on_c, 0, 66, 80
2, 19312, Note_on_c, 0, 62, 80
2, 19327, Note_on_c, 0, 66, 0
2, 19339, Note_on_c, 0, 69, 80
2, 19354, Note_on_c, 0, 69, 0
2, 19354, Note_on_c, 0, 68, 80
2, 19370, Note_on_c, 0, 69, 80
2, 19371, Note_on_c, 0, 62, 0
2, 19371, Note_on_c, 0, 68, 0
2, 19371, Note_on_c, 0, 66, 80
2, 19398, Note_on_c, 0, 69, 0
2, 19399, Note_on_c, 0, 71, 80
2, 19429, Note_on_c, 0, 71, 0
2, 19429, Note_on_c, 0, 62, 80
2, 19429, Note_on_c, 0, 68, 80
2, 19431, Note_on_c, 0, 66, 0
2, 19457, Note_on_c, 0, 68, 0
2, 19457, Note_on_c, 0, 69, 80
2, 19482, Note_on_c, 0, 69, 0
2, 19482, Note_on_c, 0, 71, 80
2, 19488, Note_on_c, 0, 59, 80
2, 19488, Note_on_c, 0, 69, 80
2, 19489, Note_on_c, 0, 62, 0
2, 19489, Note_on_c, 0, 71, 0
2, 19504, Note_on_c, 0, 69, 0
2, 19504, Note_on_c, 0, 68, 80
2, 19520, Note_on_c, 0, 68, 0
2, 19520, Note_on_c, 0, 69, 80
2, 19535, Note_on_c, 0, 71, 80
2, 19536, Note_on_c, 0, 69, 0
2, 19551, Note_on_c, 0, 71, 0
2, 19552, Note_on_c, 0, 64, 80
2, 19552, Note_on_c, 0, 56, 80
2, 19553, Note_on_c, 0, 59, 0
2, 19583, Note_on_c, 0, 62, 80
2, 19585, Note_on_c, 0, 64, 0
2, 19612, Note_on_c, 0, 56, 0
2, 19613, Note_on_c, 0, 64, 80
2, 19613, Note_on_c, 0, 61, 80
2, 19616, Note_on_c, 0, 62, 0
2, 19642, Note_on_c, 0, 59, 80
2, 19643, Note_on_c, 0, 61, 0
2, 19671, Note_on_c, 0, 57, 80
2, 19672, Note_on_c, 0, 59, 0
2, 19703, Note_on_c, 0, 57, 0
2, 19703, Note_on_c, 0, 56, 80
2, 19721, Note_on_c, 0, 64, 0
2, 19722, Note_on_c, 0, 56, 0
2, 19731, Note_on_c, 0, 57, 80
2, 19732, Note_on_c, 0, 62, 80
2, 19762, Note_on_c, 0, 59, 80
2, 19764, Note_on_c, 0, 62, 0
2, 19783, Note_on_c, 0, 59, 0
2, 19785, Note_on_c, 0, 57, 0
2, 19791, Note_on_c, 0, 61, 80
2, 19791, Note_on_c, 0, 52, 80
2, 19826, Note_on_c, 0, 52, 0
2, 19836, Note_on_c, 0, 61, 0
2, 19854, Note_on_c, 0, 69, 80
2, 19897, Note_on_c, 0, 68, 80
2, 19900, Note_on_c, 0, 69, 0
2, 19913, Note_on_c, 0, 68, 0
2, 19913, Note_on_c, 0, 66, 80
2, 19955, Note_on_c, 0, 66, 0
2, 19955, Note_on_c, 0, 64, 80
2, 19972, Note_on_c, 0, 62, 80
2, 19973, Note_on_c, 0, 64, 0
2, 20014, Note_on_c, 0, 61, 80
2, 20015, Note_on_c, 0, 62, 0
2, 20030, Note_on_c, 0, 61, 0
2, 20030, Note_on_c, 0, 59, 80
2, 20060, Note_on_c, 0, 66, 80
2, 20090, Note_on_c, 0, 68, 80
2, 20090, Note_on_c, 0, 64, 80
2, 20091, Note_on_c, 0, 66, 0
2, 20093, Note_on_c, 0, 59, 0
2, 20120, Note_on_c, 0, 64, 0
2, 20120, Note_on_c, 0, 62, 80
2, 20150, Note_on_c, 0, 61, 80
2, 20152, Note_on_c, 0, 62, 0
2, 20183, Note_on_c, 0, 59, 80
2, 20184, Note_on_c, 0, 61, 0
2, 20214, Note_on_c, 0, 66, 80
2, 20215, Note_on_c, 0, 57, 80
2, 20216, Note_on_c, 0, 68, 0
2, 20217, Note_on_c, 0, 59, 0
2, 20244, Note_on_c, 0, 57, 0
2, 20244, Note_on_c, 0, 59, 80
2, 20267, Note_on_c, 0, 66, 0
2, 20275, Note_on_c, 0, 64, 80
2, 20275, Note_on_c, 0, 61, 80
2, 20277, Note_on_c, 0, 59, 0
2, 20291, Note_on_c, 0, 64, 0
2, 20291, Note_on_c, 0, 61, 0
2, 20308, Note_on_c, 0, 73, 80
2, 20337, Note_on_c, 0, 73, 0
2, 20338, Note_on_c, 0, 71, 80
2, 20366, Note_on_c, 0, 69, 80
2, 20367, Note_on_c, 0, 71, 0
2, 20394, Note_on_c, 0, 68, 80
2, 20395, Note_on_c, 0, 69, 0
2, 20423, Note_on_c, 0, 66, 80
2, 20424, Note_on_c, 0, 68, 0
2, 20453, Note_on_c, 0, 65, 80
2, 20454, Note_on_c, 0, 66, 0
2, 20483, Note_on_c, 0, 68, 80
2, 20489, Note_on_c, 0, 65, 0
2, 20496, Note_on_c, 0, 68, 0
2, 20498, Note_on_c, 0, 66, 80
2, 20512, Note_on_c, 0, 66, 0
2, 20513, Note_on_c, 0, 68, 80
2, 20541, Note_on_c, 0, 62, 80
2, 20546, Note_on_c, 0, 68, 0
2, 20570, Note_on_c, 0, 61, 80
2, 20571, Note_on_c, 0, 62, 0
2, 20571, Note_on_c, 0, 65, 80
2, 20602, Note_on_c, 0, 59, 80
2, 20604, Note_on_c, 0, 61, 0
2, 20633, Note_on_c, 0, 57, 80
2, 20633, Note_on_c, 0, 66, 80
2, 20635, Note_on_c, 0, 65, 0
2, 20636, Note_on_c, 0, 59, 0
2, 20662, Note_on_c, 0, 66, 0
2, 20663, Note_on_c, 0, 57, 0
2, 20664, Note_on_c, 0, 59, 80
2, 20664, Note_on_c, 0, 68, 80
2, 20676, Note_on_c, 0, 59, 0
2, 20678, Note_on_c, 0, 68, 0
2, 20694, Note_on_c, 0, 68, 80
2, 20694, Note_on_c, 0, 59, 80
2, 20723, Note_on_c, 0, 61, 80
2, 20724, Note_on_c, 0, 59, 0
2, 20725, Note_on_c, 0, 68, 0
2, 20725, Note_on_c, 0, 69, 80
2, 20736, Note_on_c, 0, 61, 0
2, 20741, Note_on_c, 0, 69, 0
2, 20754, Note_on_c, 0, 69, 80
2, 20755, Note_on_c, 0, 61, 80
2, 20785, Note_on_c, 0, 69, 0
2, 20785, Note_on_c, 0, 71, 80
2, 20800, Note_on_c, 0, 69, 80
2, 20802, Note_on_c, 0, 61, 0
2, 20802, Note_on_c, 0, 71, 0
2, 20815, Note_on_c, 0, 62, 80
2, 20816, Note_on_c, 0, 69, 0
2, 20816, Note_on_c, 0, 68, 80
2, 20845, Note_on_c, 0, 69, 80
2, 20846, Note_on_c, 0, 68, 0
2, 20858, Note_on_c, 0, 71, 80
2, 20860, Note_on_c, 0, 69, 0
2, 20864, Note_on_c, 0, 71, 0
2, 20874, Note_on_c, 0, 66, 80
2, 20889, Note_on_c, 0, 66, 0
2, 20889, Note_on_c, 0, 65, 80
2, 20892, Note_on_c, 0, 62, 0
2, 20895, Note_on_c, 0, 65, 0
2, 20896, Note_on_c, 0, 66, 80
2, 20901, Note_on_c, 0, 66, 0
2, 20902, Note_on_c, 0, 65, 80
2, 20903, Note_on_c, 0, 62, 80
2, 20906, Note_on_c, 0, 65, 0
2, 20908, Note_on_c, 0, 66, 80
2, 20912, Note_on_c, 0, 66, 0
2, 20913, Note_on_c, 0, 65, 80
2, 20917, Note_on_c, 0, 65, 0
2, 20918, Note_on_c, 0, 66, 80
2, 20923, Note_on_c, 0, 66, 0
2, 20923, Note_on_c, 0, 65, 80
2, 20927, Note_on_c, 0, 65, 0
2, 20928, Note_on_c, 0, 66, 80
2, 20930, Note_on_c, 0, 62, 0
2, 20930, Note_on_c, 0, 61, 80
2, 20931, Note_on_c, 0, 66, 0
2, 20931, Note_on_c, 0, 65, 80
2, 20960, Note_on_c, 0, 61, 0
2, 20960, Note_on_c, 0, 59, 80
2, 20973, Note_on_c, 0, 65, 0
2, 20974, Note_on_c, 0, 66, 80
2, 20981, Note_on_c, 0, 66, 0
2, 20994, Note_on_c, 0, 57, 80
2, 20994, Note_on_c, 0, 66, 80
2, 20995, Note_on_c, 0, 59, 0
2, 21008, Note_on_c, 0, 57, 0
2, 21025, Note_on_c, 0, 64, 80
2, 21026, Note_on_c, 0, 66, 0
2, 21055, Note_on_c, 0, 66, 80
2, 21056, Note_on_c, 0, 62, 80
2, 21058, Note_on_c, 0, 64, 0
2, 21084, Note_on_c, 0, 61, 80
2, 21085, Note_on_c, 0, 62, 0
2, 21114, Note_on_c, 0, 61, 0
2, 21114, Note_on_c, 0, 59, 80
2, 21115, Note_on_c, 0, 68, 80
2, 21116, Note_on_c, 0, 66, 0
2, 21145, Note_on_c, 0, 61, 80
2, 21146, Note_on_c, 0, 59, 0
2, 21177, Note_on_c, 0, 68, 0
2, 21177, Note_on_c, 0, 61, 0
2, 21177, Note_on_c, 0, 62, 80
2, 21177, Note_on_c, 0, 70, 80
2, 21189, Note_on_c, 0, 62, 0
2, 21189, Note_on_c, 0, 61, 80
2, 21195, Note_on_c, 0, 61, 0
2, 21196, Note_on_c, 0, 62, 80
2, 21200, Note_on_c, 0, 61, 80
2, 21201, Note_on_c, 0, 62, 0
2, 21205, Note_on_c, 0, 62, 80
2, 21208, Note_on_c, 0, 62, 0
2, 21213, Note_on_c, 0, 61, 0
2, 21213, Note_on_c, 0, 59, 80
2, 21220, Note_on_c, 0, 61, 80
2, 21222, Note_on_c, 0, 59, 0
2, 21233, Note_on_c, 0, 61, 0
2, 21234, Note_on_c, 0, 59, 80
2, 21234, Note_on_c, 0, 71, 80
2, 21236, Note_on_c, 0, 70, 0
2, 21258, Note_on_c, 0, 59, 0
2, 21264, Note_on_c, 0, 56, 80
2, 21283, Note_on_c, 0, 71, 0
2, 21293, Note_on_c, 0, 56, 0
2, 21293, Note_on_c, 0, 68, 80
2, 21293, Note_on_c, 0, 54, 80
2, 21294, Note_on_c, 0, 64, 80
2, 21324, Note_on_c, 0, 54, 0
2, 21325, Note_on_c, 0, 52, 80
2, 21353, Note_on_c, 0, 69, 80
2, 21354, Note_on_c, 0, 68, 0
2, 21354, Note_on_c, 0, 54, 80
2, 21358, Note_on_c, 0, 52, 0
2, 21382, Note_on_c, 0, 54, 0
2, 21383, Note_on_c, 0, 56, 80
2, 21409, Note_on_c, 0, 64, 0
2, 21411, Note_on_c, 0, 71, 80
2, 21411, Note_on_c, 0, 62, 80
2, 21412, Note_on_c, 0, 69, 0
2, 21413, Note_on_c, 0, 56, 0
2, 21413, Note_on_c, 0, 57, 80
2, 21424, Note_on_c, 0, 57, 0
2, 21424, Note_on_c, 0, 56, 80
2, 21430, Note_on_c, 0, 56, 0
2, 21431, Note_on_c, 0, 57, 80
2, 21434, Note_on_c, 0, 56, 80
2, 21435, Note_on_c, 0, 57, 0
2, 21437, Note_on_c, 0, 56, 0
2, 21438, Note_on_c, 0, 57, 80
2, 21440, Note_on_c, 0, 57, 0
2, 21440, Note_on_c, 0, 56, 80
2, 21443, Note_on_c, 0, 56, 0
2, 21443, Note_on_c, 0, 54, 80
2, 21450, Note_on_c, 0, 56, 80
2, 21452, Note_on_c, 0, 54, 0
2, 21453, Note_on_c, 0, 62, 0
2, 21467, Note_on_c, 0, 71, 0
2, 21468, Note_on_c, 0, 64, 80
2, 21469, Note_on_c, 0, 61, 80
2, 21469, Note_on_c, 0, 57, 80
2, 21470, Note_on_c, 0, 56, 0
2, 21485, Note_on_c, 0, 64, 0
2, 21499, Note_on_c, 0, 62, 80
2, 21527, Note_on_c, 0, 64, 80
2, 21529, Note_on_c, 0, 62, 0
2, 21555, Note_on_c, 0, 64, 0
2, 21556, Note_on_c, 0, 66, 80
2, 21584, Note_on_c, 0, 64, 80
2, 21585, Note_on_c, 0, 66, 0
2, 21618, Note_on_c, 0, 68, 80
2, 21619, Note_on_c, 0, 64, 0
2, 21647, Note_on_c, 0, 68, 0
2, 21647, Note_on_c, 0, 66, 80
2, 21678, Note_on_c, 0, 66, 0
2, 21678, Note_on_c, 0, 69, 80
2, 21710, Note_on_c, 0, 52, 80
2, 21710, Note_on_c, 0, 68, 80
2, 21711, Note_on_c, 0, 61, 0
2, 21711, Note_on_c, 0, 69, 0
2, 21729, Note_on_c, 0, 57, 0
2, 21743, Note_on_c, 0, 52, 0
2, 21743, Note_on_c, 0, 57, 80
2, 21744, Note_on_c, 0, 68, 0
2, 21744, Note_on_c, 0, 66, 80
2, 21772, Note_on_c, 0, 66, 0
2, 21773, Note_on_c, 0, 56, 80
2, 21774, Note_on_c, 0, 57, 0
2, 21774, Note_on_c, 0, 64, 80
2, 21804, Note_on_c, 0, 56, 0
2, 21804, Note_on_c, 0, 64, 0
2, 21805, Note_on_c, 0, 68, 80
2, 21805, Note_on_c, 0, 59, 80
2, 21816, Note_on_c, 0, 68, 0
2, 21834, Note_on_c, 0, 57, 80
2, 21834, Note_on_c, 0, 66, 80
2, 21836, Note_on_c, 0, 59, 0
2, 21863, Note_on_c, 0, 66, 0
2, 21863, Note_on_c, 0, 61, 80
2, 21863, Note_on_c, 0, 69, 80
2, 21865, Note_on_c, 0, 57, 0
2, 21893, Note_on_c, 0, 69, 0
2, 21893, Note_on_c, 0, 68, 80
2, 21894, Note_on_c, 0, 61, 0
2, 21894, Note_on_c, 0, 59, 80
2, 21924, Note_on_c, 0, 68, 0
2, 21924, Note_on_c, 0, 71, 80
2, 21951, Note_on_c, 0, 59, 0
2, 21951, Note_on_c, 0, 71, 0
2, 21956, Note_on_c, 0, 64, 80
2, 21956, Note_on_c, 0, 69, 80
2, 21986, Note_on_c, 0, 62, 80
2, 21987, Note_on_c, 0, 64, 0
2, 22007, Note_on_c, 0, 62, 0
2, 22016, Note_on_c, 0, 57, 80
2, 22016, Note_on_c, 0, 61, 80
2, 22017, Note_on_c, 0, 69, 0
2, 22038, Note_on_c, 0, 57, 0
2, 22045, Note_on_c, 0, 62, 80
2, 22059, Note_on_c, 0, 61, 0
2, 22074, Note_on_c, 0, 62, 0
2, 22074, Note_on_c, 0, 64, 80
2, 22074, Note_on_c, 0, 61, 80
2, 22107, Note_on_c, 0, 68, 80
2, 22108, Note_on_c, 0, 64, 0
2, 22131, Note_on_c, 0, 61, 0
2, 22135, Note_on_c, 0, 66, 80
2, 22136, Note_on_c, 0, 68, 0
2, 22136, Note_on_c, 0, 63, 80
2, 22157, Note_on_c, 0, 66, 0
2, 22164, Note_on_c, 0, 69, 80
2, 22179, Note_on_c, 0, 68, 80
2, 22181, Note_on_c, 0, 69, 0
2, 22184, Note_on_c, 0, 68, 0
2, 22195, Note_on_c, 0, 63, 0
2, 22195, Note_on_c, 0, 64, 80
2, 22195, Note_on_c, 0, 68, 80
2, 22225, Note_on_c, 0, 68, 0
2, 22225, Note_on_c, 0, 66, 80
2, 22229, Note_on_c, 0, 64, 0
2, 22254, Note_on_c, 0, 64, 80
2, 22254, Note_on_c, 0, 68, 80
2, 22255, Note_on_c, 0, 66, 0
2, 22285, Note_on_c, 0, 64, 0
2, 22285, Note_on_c, 0, 62, 80
2, 22314, Note_on_c, 0, 68, 0
2, 22314, Note_on_c, 0, 61, 80
2, 22315, Note_on_c, 0, 62, 0
2, 22315, Note_on_c, 0, 64, 80
2, 22355, Note_on_c, 0, 64, 0
2, 22357, Note_on_c, 0, 61, 0
2, 22375, Note_on_c, 0, 52, 80
2, 22375, Note_on_c, 0, 61, 80
2, 22409, Note_on_c, 0, 52, 0
2, 22419, Note_on_c, 0, 61, 0
2, 22434, Note_on_c, 0, 57, 80
2, 22435, Note_on_c, 0, 54, 80
2, 22466, Note_on_c, 0, 61, 80
2, 22467, Note_on_c, 0, 57, 0
2, 22474, Note_on_c, 0, 54, 0
2, 22494, Note_on_c, 0, 61, 0
2, 22495, Note_on_c, 0, 66, 80
2, 22524, Note_on_c, 0, 64, 80
2, 22540, Note_on_c, 0, 64, 0
2, 22555, Note_on_c, 0, 62, 80
2, 22569, Note_on_c, 0, 61, 80
2, 22570, Note_on_c, 0, 62, 0
2, 22583, Note_on_c, 0, 59, 80
2, 22584, Note_on_c, 0, 61, 0
2, 22598, Note_on_c, 0, 66, 0
2, 22598, Note_on_c, 0, 61, 80
2, 22601, Note_on_c, 0, 59, 0
2, 22615, Note_on_c, 0, 61, 0
2, 22616, Note_on_c, 0, 65, 80
2, 22616, Note_on_c, 0, 62, 80
2, 22645, Note_on_c, 0, 61, 80
2, 22646, Note_on_c, 0, 62, 0
2, 22655, Note_on_c, 0, 65, 0
2, 22664, Note_on_c, 0, 61, 0
2, 22675, Note_on_c, 0, 61, 80
2, 22675, Note_on_c, 0, 66, 80
2, 22706, Note_on_c, 0, 61, 0
2, 22707, Note_on_c, 0, 57, 80
2, 22735, Note_on_c, 0, 56, 80
2, 22736, Note_on_c, 0, 57, 0
2, 22764, Note_on_c, 0, 57, 80
2, 22766, Note_on_c, 0, 56, 0
2, 22793, Note_on_c, 0, 59, 80
2, 22794, Note_on_c, 0, 57, 0
2, 22929, Note_on_c, 0, 66, 0
2, 22944, Note_on_c, 0, 64, 80
2, 22973, Note_on_c, 0, 64, 0
2, 22973, Note_on_c, 0, 62, 80
2, 23001, Note_on_c, 0, 61, 80
2, 23004, Note_on_c, 0, 59, 0
2, 23004, Note_on_c, 0, 62, 0
2, 23032, Note_on_c, 0, 59, 80
2, 23033, Note_on_c, 0, 61, 0
2, 23063, Note_on_c, 0, 62, 80
2, 23076, Note_on_c, 0, 62, 0
2, 23091, Note_on_c, 0, 59, 0
2, 23091, Note_on_c, 0, 61, 80
2, 23092, Note_on_c, 0, 64, 80
2, 23121, Note_on_c, 0, 61, 0
2, 23121, Note_on_c, 0, 59, 80
2, 23151, Note_on_c, 0, 59, 0
2, 23151, Note_on_c, 0, 57, 80
2, 23182, Note_on_c, 0, 59, 80
2, 23183, Note_on_c, 0, 57, 0
2, 23212, Note_on_c, 0, 57, 80
2, 23213, Note_on_c, 0, 59, 0
2, 23240, Note_on_c, 0, 55, 80
2, 23241, Note_on_c, 0, 57, 0
2, 23253, Note_on_c, 0, 64, 0
2, 23271, Note_on_c, 0, 54, 80
2, 23271, Note_on_c, 0, 62, 80
2, 23273, Note_on_c, 0, 55, 0
2, 23302, Note_on_c, 0, 55, 80
2, 23305, Note_on_c, 0, 54, 0
2, 23330, Note_on_c, 0, 57, 80
2, 23331, Note_on_c, 0, 61, 80
2, 23332, Note_on_c, 0, 62, 0
2, 23333, Note_on_c, 0, 55, 0
2, 23346, Note_on_c, 0, 55, 80
2, 23351, Note_on_c, 0, 57, 0
2, 23362, Note_on_c, 0, 54, 80
2, 23365, Note_on_c, 0, 55, 0
2, 23376, Note_on_c, 0, 54, 0
2, 23376, Note_on_c, 0, 55, 80
2, 23393, Note_on_c, 0, 61, 0
2, 23393, Note_on_c, 0, 62, 80
2, 23393, Note_on_c, 0, 57, 80
2, 23395, Note_on_c, 0, 55, 0
2, 23423, Note_on_c, 0, 61, 80
2, 23424, Note_on_c, 0, 62, 0
2, 23452, Note_on_c, 0, 61, 0
2, 23452, Note_on_c, 0, 62, 80
2, 23480, Note_on_c, 0, 62, 0
2, 23480, Note_on_c, 0, 64, 80
2, 23509, Note_on_c, 0, 64, 0
2, 23510, Note_on_c, 0, 66, 80
2, 23538, Note_on_c, 0, 66, 0
2, 23539, Note_on_c, 0, 67, 80
2, 23557, Note_on_c, 0, 67, 0
2, 23569, Note_on_c, 0, 69, 80
2, 23581, Note_on_c, 0, 69, 0
2, 23587, Note_on_c, 0, 67, 80
2, 23603, Note_on_c, 0, 66, 80
2, 23604, Note_on_c, 0, 67, 0
2, 23617, Note_on_c, 0, 66, 0
2, 23618, Note_on_c, 0, 67, 80
2, 23626, Note_on_c, 0, 67, 0
2, 23634, Note_on_c, 0, 69, 80
2, 23637, Note_on_c, 0, 57, 0
2, 23663, Note_on_c, 0, 57, 80
2, 23692, Note_on_c, 0, 59, 80
2, 23696, Note_on_c, 0, 57, 0
2, 23702, Note_on_c, 0, 69, 0
2, 23721, Note_on_c, 0, 67, 80
2, 23721, Note_on_c, 0, 61, 80
2, 23724, Note_on_c, 0, 59, 0
2, 23733, Note_on_c, 0, 61, 0
2, 23742, Note_on_c, 0, 67, 0
2, 23750, Note_on_c, 0, 62, 80
2, 23752, Note_on_c, 0, 67, 80
2, 23761, Note_on_c, 0, 67, 0
2, 23762, Note_on_c, 0, 66, 80
2, 23767, Note_on_c, 0, 66, 0
2, 23769, Note_on_c, 0, 67, 80
2, 23774, Note_on_c, 0, 67, 0
2, 23774, Note_on_c, 0, 66, 80
2, 23778, Note_on_c, 0, 66, 0
2, 23779, Note_on_c, 0, 67, 80
2, 23783, Note_on_c, 0, 67, 0
2, 23783, Note_on_c, 0, 66, 80
2, 23784, Note_on_c, 0, 66, 0
2, 23785, Note_on_c, 0, 67, 80
2, 23788, Note_on_c, 0, 66, 80
2, 23790, Note_on_c, 0, 67, 0
2, 23883, Note_on_c, 0, 66, 0
2, 23888, Note_on_c, 0, 62, 0
2, 23902, Note_on_c, 0, 62, 80
2, 23902, Note_on_c, 0, 66, 80
2, 23927, Note_on_c, 0, 66, 0
2, 23929, Note_on_c, 0, 62, 0
2, 23931, Note_on_c, 0, 64, 80
2, 23931, Note_on_c, 0, 61, 80
2, 23955, Note_on_c, 0, 64, 0
2, 23958, Note_on_c, 0, 61, 0
2, 23962, Note_on_c, 0, 59, 80
2, 23962, Note_on_c, 0, 62, 80
2, 23990, Note_on_c, 0, 59, 0
2, 23990, Note_on_c, 0, 62, 0
2, 23992, Note_on_c, 0, 64, 80
2, 23992, Note_on_c, 0, 61, 80
2, 24029, Note_on_c, 0, 61, 0
2, 24053, Note_on_c, 0, 60, 80
2, 24053, Note_on_c, 0, 63, 80
2, 24054, Note_on_c, 0, 64, 0
2, 24082, Note_on_c, 0, 63, 0
2, 24082, Note_on_c, 0, 64, 80
2, 24115, Note_on_c, 0, 64, 0
2, 24115, Note_on_c, 0, 66, 80
2, 24115, Note_on_c, 0, 59, 80
2, 24118, Note_on_c, 0, 60, 0
2, 24231, Note_on_c, 0, 59, 0
2, 24232, Note_on_c, 0, 66, 0
2, 24821, Note_on_c, 0, 60, 80
2, 24821, Note_on_c, 0, 66, 80
2, 24861, Note_on_c, 0, 60, 0
2, 24861, Note_on_c, 0, 66, 0
2, 24870, Note_on_c, 0, 64, 80
2, 24870, Note_on_c, 0, 59, 80
2, 24926, Note_on_c, 0, 59, 0
2, 24940, Note_on_c, 0, 57, 80
2, 25019, Note_on_c, 0, 57, 0
2, 25026, Note_on_c, 0, 59, 80
2, 25056, Note_on_c, 0, 61, 80
2, 25058, Note_on_c, 0, 59, 0
2, 25088, Note_on_c, 0, 61, 0
2, 25088, Note_on_c, 0, 62, 80
2, 25182, Note_on_c, 0, 62, 0
2, 25203, Note_on_c, 0, 61, 80
2, 25221, Note_on_c, 0, 59, 80
2, 25222, Note_on_c, 0, 61, 0
2, 25236, Note_on_c, 0, 57, 80
2, 25237, Note_on_c, 0, 59, 0
2, 25253, Note_on_c, 0, 56, 80
2, 25254, Note_on_c, 0, 57, 0
2, 25270, Note_on_c, 0, 54, 80
2, 25272, Note_on_c, 0, 56, 0
2, 25289, Note_on_c, 0, 52, 80
2, 25293, Note_on_c, 0, 54, 0
2, 25302, Note_on_c, 0, 52, 0
2, 25309, Note_on_c, 0, 62, 80
2, 25320, Note_on_c, 0, 62, 0
2, 25332, Note_on_c, 0, 62, 80
2, 25342, Note_on_c, 0, 62, 0
2, 25342, Note_on_c, 0, 61, 80
2, 25348, Note_on_c, 0, 61, 0
2, 25350, Note_on_c, 0, 62, 80
2, 25355, Note_on_c, 0, 62, 0
2, 25355, Note_on_c, 0, 61, 80
2, 25359, Note_on_c, 0, 61, 0
2, 25360, Note_on_c, 0, 62, 80
2, 25363, Note_on_c, 0, 61, 80
2, 25364, Note_on_c, 0, 62, 0
2, 25366, Note_on_c, 0, 61, 0
2, 25367, Note_on_c, 0, 62, 80
2, 25369, Note_on_c, 0, 61, 80
2, 25370, Note_on_c, 0, 62, 0
2, 25407, Note_on_c, 0, 62, 80
2, 25408, Note_on_c, 0, 61, 0
2, 25426, Note_on_c, 0, 59, 80
2, 25428, Note_on_c, 0, 62, 0
2, 25436, Note_on_c, 0, 59, 0
2, 25454, Note_on_c, 0, 59, 80
2, 25515, Note_on_c, 0, 61, 80
2, 25517, Note_on_c, 0, 59, 0
2, 25523, Note_on_c, 0, 61, 0
2, 25523, Note_on_c, 0, 59, 80
2, 25527, Note_on_c, 0, 61, 80
2, 25529, Note_on_c, 0, 59, 0
2, 25800, Note_on_c, 0, 64, 0
2, 25800, Note_on_c, 0, 61, 0
2, 25800, End_track
3, 0, Start_track
3, 0, Title_t, "Cantus Firmus"
3, 0, MIDI_port, 0
3, 0, Control_c, 1, 10, 51
3, 0, Control_c, 1, 7, 103
3, 0, Program_c, 1, 59
3, 4197, Note_on_c, 1, 69, 80
3, 4316, Note_on_c, 1, 69, 0
3, 4327, Note_on_c, 1, 64, 80
3, 4342, Note_on_c, 1, 66, 80
3, 4343, Note_on_c, 1, 64, 0
3, 4356, Note_on_c, 1, 68, 80
3, 4357, Note_on_c, 1, 66, 0
3, 4370, Note_on_c, 1, 68, 0
3, 4371, Note_on_c, 1, 69, 80
3, 4386, Note_on_c, 1, 69, 0
3, 4386, Note_on_c, 1, 73, 80
3, 4401, Note_on_c, 1, 73, 0
3, 4402, Note_on_c, 1, 71, 80
3, 4418, Note_on_c, 1, 74, 80
3, 4419, Note_on_c, 1, 71, 0
3, 4426, Note_on_c, 1, 73, 80
3, 4428, Note_on_c, 1, 74, 0
3, 4432, Note_on_c, 1, 73, 0
3, 4439, Note_on_c, 1, 73, 80
3, 4506, Note_on_c, 1, 73, 0
3, 4510, Note_on_c, 1, 74, 80
3, 4529, Note_on_c, 1, 74, 0
3, 4529, Note_on_c, 1, 73, 80
3, 4543, Note_on_c, 1, 74, 80
3, 4545, Note_on_c, 1, 73, 0
3, 4557, Note_on_c, 1, 74, 0
3, 4557, Note_on_c, 1, 76, 80
3, 4571, Note_on_c, 1, 74, 80
3, 4573, Note_on_c, 1, 76, 0
3, 4580, Note_on_c, 1, 74, 0
3, 4580, Note_on_c, 1, 76, 80
3, 4587, Note_on_c, 1, 74, 80
3, 4588, Note_on_c, 1, 76, 0
3, 4595, Note_on_c, 1, 74, 0
3, 4595, Note_on_c, 1, 76, 80
3, 4601, Note_on_c, 1, 76, 0
3, 4601, Note_on_c, 1, 74, 80
3, 4607, Note_on_c, 1, 74, 0
3, 4607, Note_on_c, 1, 76, 80
3, 4613, Note_on_c, 1, 76, 0
3, 4613, Note_on_c, 1, 74, 80
3, 4617, Note_on_c, 1, 74, 0
3, 4618, Note_on_c, 1, 76, 80
3, 4623, Note_on_c, 1, 76, 0
3, 4623, Note_on_c, 1, 74, 80
3, 4627, Note_on_c, 1, 74, 0
3, 4627, Note_on_c, 1, 76, 80
3, 4630, Note_on_c, 1, 76, 0
3, 4631, Note_on_c, 1, 74, 80
3, 4634, Note_on_c, 1, 76, 80
3, 4635, Note_on_c, 1, 74, 0
3, 4638, Note_on_c, 1, 74, 80
3, 4639, Note_on_c, 1, 76, 0
3, 4641, Note_on_c, 1, 74, 0
3, 4641, Note_on_c, 1, 76, 80
3, 4645, Note_on_c, 1, 74, 80
3, 4650, Note_on_c, 1, 76, 0
3, 4658, Note_on_c, 1, 73, 80
3, 4659, Note_on_c, 1, 74, 0
3, 4664, Note_on_c, 1, 73, 0
3, 4665, Note_on_c, 1, 74, 80
3, 4678, Note_on_c, 1, 76, 80
3, 4680, Note_on_c, 1, 74, 0
3, 4854, Note_on_c, 1, 74, 80
3, 4856, Note_on_c, 1, 76, 0
3, 4870, Note_on_c, 1, 73, 80
3, 4871, Note_on_c, 1, 74, 0
3, 4883, Note_on_c, 1, 73, 0
3, 4883, Note_on_c, 1, 71, 80
3, 4897, Note_on_c, 1, 74, 80
3, 4898, Note_on_c, 1, 71, 0
3, 4909, Note_on_c, 1, 73, 80
3, 4912, Note_on_c, 1, 74, 0
3, 4916, Note_on_c, 1, 73, 0
3, 4924, Note_on_c, 1, 73, 80
3, 4929, Note_on_c, 1, 73, 0
3, 4931, Note_on_c, 1, 71, 80
3, 4935, Note_on_c, 1, 73, 80
3, 4937, Note_on_c, 1, 71, 0
3, 5017, Note_on_c, 1, 74, 80
3, 5018, Note_on_c, 1, 73, 0
3, 5030, Note_on_c, 1, 73, 80
3, 5033, Note_on_c, 1, 74, 0
3, 5040, Note_on_c, 1, 71, 80
3, 5041, Note_on_c, 1, 73, 0
3, 5048, Note_on_c, 1, 69, 80
3, 5049, Note_on_c, 1, 71, 0
3, 5056, Note_on_c, 1, 71, 80
3, 5057, Note_on_c, 1, 69, 0
3, 5063, Note_on_c, 1, 71, 0
3, 5063, Note_on_c, 1, 73, 80
3, 5069, Note_on_c, 1, 73, 0
3, 5070, Note_on_c, 1, 71, 80
3, 5076, Note_on_c, 1, 71, 0
3, 5077, Note_on_c, 1, 73, 80
3, 5082, Note_on_c, 1, 73, 0
3, 5083, Note_on_c, 1, 71, 80
3, 5089, Note_on_c, 1, 71, 0
3, 5090, Note_on_c, 1, 73, 80
3, 5095, Note_on_c, 1, 73, 0
3, 5095, Note_on_c, 1, 71, 80
3, 5101, Note_on_c, 1, 71, 0
3, 5101, Note_on_c, 1, 73, 80
3, 5105, Note_on_c, 1, 73, 0
3, 5107, Note_on_c, 1, 71, 80
3, 5109, Note_on_c, 1, 73, 80
3, 5110, Note_on_c, 1, 71, 0
3, 5113, Note_on_c, 1, 73, 0
3, 5113, Note_on_c, 1, 71, 80
3, 5117, Note_on_c, 1, 73, 80
3, 5119, Note_on_c, 1, 71, 0
3, 5121, Note_on_c, 1, 73, 0
3, 5121, Note_on_c, 1, 71, 80
3, 5127, Note_on_c, 1, 69, 80
3, 5128, Note_on_c, 1, 71, 0
3, 5139, Note_on_c, 1, 69, 0
3, 5139, Note_on_c, 1, 71, 80
3, 5155, Note_on_c, 1, 73, 80
3, 5157, Note_on_c, 1, 71, 0
3, 5388, Note_on_c, 1, 73, 0
3, 5626, Note_on_c, 1, 73, 80
3, 5633, Note_on_c, 1, 73, 0
3, 5633, Note_on_c, 1, 71, 80
3, 5642, Note_on_c, 1, 73, 80
3, 5643, Note_on_c, 1, 71, 0
3, 5813, Note_on_c, 1, 74, 80
3, 5814, Note_on_c, 1, 73, 0
3, 5845, Note_on_c, 1, 73, 80
3, 5847, Note_on_c, 1, 74, 0
3, 5859, Note_on_c, 1, 73, 0
3, 5875, Note_on_c, 1, 73, 80
3, 5881, Note_on_c, 1, 73, 0
3, 5881, Note_on_c, 1, 71, 80
3, 5889, Note_on_c, 1, 73, 80
3, 5890, Note_on_c, 1, 71, 0
3, 5980, Note_on_c, 1, 73, 0
3, 5991, Note_on_c, 1, 71, 80
3, 6008, Note_on_c, 1, 69, 80
3, 6010, Note_on_c, 1, 71, 0
3, 6023, Note_on_c, 1, 71, 80
3, 6025, Note_on_c, 1, 69, 0
3, 6037, Note_on_c, 1, 73, 80
3, 6040, Note_on_c, 1, 71, 0
3, 6052, Note_on_c, 1, 74, 80
3, 6053, Note_on_c, 1, 73, 0
3, 6069, Note_on_c, 1, 73, 80
3, 6070, Note_on_c, 1, 74, 0
3, 6085, Note_on_c, 1, 76, 80
3, 6086, Note_on_c, 1, 73, 0
3, 6099, Note_on_c, 1, 74, 80
3, 6102, Note_on_c, 1, 76, 0
3, 6107, Note_on_c, 1, 74, 0
3, 6115, Note_on_c, 1, 74, 80
3, 6174, Note_on_c, 1, 73, 80
3, 6177, Note_on_c, 1, 74, 0
3, 6224, Note_on_c, 1, 73, 0
3, 6233, Note_on_c, 1, 73, 80
3, 6242, Note_on_c, 1, 73, 0
3, 6243, Note_on_c, 1, 71, 80
3, 6249, Note_on_c, 1, 69, 80
3, 6250, Note_on_c, 1, 71, 0
3, 6257, Note_on_c, 1, 69, 0
3, 6257, Note_on_c, 1, 71, 80
3, 6263, Note_on_c, 1, 73, 80
3, 6264, Note_on_c, 1, 71, 0
3, 6269, Note_on_c, 1, 73, 0
3, 6270, Note_on_c, 1, 71, 80
3, 6276, Note_on_c, 1, 73, 80
3, 6277, Note_on_c, 1, 71, 0
3, 6282, Note_on_c, 1, 73, 0
3, 6283, Note_on_c, 1, 71, 80
3, 6288, Note_on_c, 1, 71, 0
3, 6289, Note_on_c, 1, 73, 80
3, 6294, Note_on_c, 1, 73, 0
3, 6294, Note_on_c, 1, 71, 80
3, 6299, Note_on_c, 1, 71, 0
3, 6300, Note_on_c, 1, 73, 80
3, 6304, Note_on_c, 1, 73, 0
3, 6304, Note_on_c, 1, 71, 80
3, 6309, Note_on_c, 1, 73, 80
3, 6310, Note_on_c, 1, 71, 0
3, 6312, Note_on_c, 1, 73, 0
3, 6313, Note_on_c, 1, 71, 80
3, 6317, Note_on_c, 1, 71, 0
3, 6317, Note_on_c, 1, 73, 80
3, 6320, Note_on_c, 1, 73, 0
3, 6321, Note_on_c, 1, 71, 80
3, 6324, Note_on_c, 1, 73, 80
3, 6329, Note_on_c, 1, 73, 0
3, 6335, Note_on_c, 1, 69, 80
3, 6336, Note_on_c, 1, 71, 0
3, 6342, Note_on_c, 1, 71, 80
3, 6343, Note_on_c, 1, 69, 0
3, 6352, Note_on_c, 1, 71, 0
3, 6352, Note_on_c, 1, 69, 80
3, 6493, Note_on_c, 1, 68, 80
3, 6496, Note_on_c, 1, 69, 0
3, 6509, Note_on_c, 1, 66, 80
3, 6510, Note_on_c, 1, 68, 0
3, 6523, Note_on_c, 1, 68, 80
3, 6524, Note_on_c, 1, 66, 0
3, 6539, Note_on_c, 1, 68, 0
3, 6539, Note_on_c, 1, 69, 80
3, 6567, Note_on_c, 1, 71, 80
3, 6568, Note_on_c, 1, 69, 0
3, 6584, Note_on_c, 1, 73, 80
3, 6586, Note_on_c, 1, 71, 0
3, 6600, Note_on_c, 1, 73, 0
3, 6601, Note_on_c, 1, 74, 80
3, 6619, Note_on_c, 1, 74, 0
3, 6619, Note_on_c, 1, 76, 80
3, 6629, Note_on_c, 1, 76, 0
3, 6638, Note_on_c, 1, 78, 80
3, 6647, Note_on_c, 1, 78, 0
3, 6656, Note_on_c, 1, 76, 80
3, 6673, Note_on_c, 1, 76, 0
3, 6673, Note_on_c, 1, 74, 80
3, 6685, Note_on_c, 1, 74, 0
3, 6692, Note_on_c, 1, 73, 80
3, 6702, Note_on_c, 1, 73, 0
3, 6709, Note_on_c, 1, 73, 80
3, 6718, Note_on_c, 1, 73, 0
3, 6718, Note_on_c, 1, 71, 80
3, 6727, Note_on_c, 1, 71, 0
3, 6727, Note_on_c, 1, 73, 80
3, 6733, Note_on_c, 1, 73, 0
3, 6734, Note_on_c, 1, 71, 80
3, 6740, Note_on_c, 1, 71, 0
3, 6740, Note_on_c, 1, 73, 80
3, 6746, Note_on_c, 1, 73, 0
3, 6747, Note_on_c, 1, 71, 80
3, 6753, Note_on_c, 1, 71, 0
3, 6753, Note_on_c, 1, 73, 80
3, 6759, Note_on_c, 1, 73, 0
3, 6759, Note_on_c, 1, 71, 80
3, 6765, Note_on_c, 1, 71, 0
3, 6766, Note_on_c, 1, 73, 80
3, 6770, Note_on_c, 1, 73, 0
3, 6770, Note_on_c, 1, 71, 80
3, 6774, Note_on_c, 1, 73, 80
3, 6775, Note_on_c, 1, 71, 0
3, 6780, Note_on_c, 1, 71, 80
3, 6781, Note_on_c, 1, 73, 0
3, 6805, Note_on_c, 1, 71, 0
3, 6805, Note_on_c, 1, 69, 80
3, 6821, Note_on_c, 1, 69, 0
3, 6821, Note_on_c, 1, 71, 80
3, 6838, Note_on_c, 1, 71, 0
3, 6838, Note_on_c, 1, 69, 80
3, 7652, Note_on_c, 1, 69, 0
3, 11880, Note_on_c, 1, 69, 80
3, 12003, Note_on_c, 1, 64, 80
3, 12004, Note_on_c, 1, 69, 0
3, 12018, Note_on_c, 1, 66, 80
3, 12019, Note_on_c, 1, 64, 0
3, 12032, Note_on_c, 1, 68, 80
3, 12034, Note_on_c, 1, 66, 0
3, 12047, Note_on_c, 1, 68, 0
3, 12048, Note_on_c, 1, 69, 80
3, 12065, Note_on_c, 1, 73, 80
3, 12067, Note_on_c, 1, 69, 0
3, 12085, Note_on_c, 1, 73, 0
3, 12086, Note_on_c, 1, 71, 80
3, 12103, Note_on_c, 1, 74, 80
3, 12105, Note_on_c, 1, 71, 0
3, 12111, Note_on_c, 1, 73, 80
3, 12113, Note_on_c, 1, 74, 0
3, 12119, Note_on_c, 1, 73, 0
3, 12126, Note_on_c, 1, 73, 80
3, 12191, Note_on_c, 1, 73, 0
3, 12191, Note_on_c, 1, 74, 80
3, 12207, Note_on_c, 1, 74, 0
3, 12207, Note_on_c, 1, 73, 80
3, 12221, Note_on_c, 1, 74, 80
3, 12223, Note_on_c, 1, 73, 0
3, 12235, Note_on_c, 1, 74, 0
3, 12235, Note_on_c, 1, 76, 80
3, 12244, Note_on_c, 1, 74, 80
3, 12245, Note_on_c, 1, 76, 0
3, 12253, Note_on_c, 1, 74, 0
3, 12253, Note_on_c, 1, 76, 80
3, 12259, Note_on_c, 1, 74, 80
3, 12261, Note_on_c, 1, 76, 0
3, 12267, Note_on_c, 1, 74, 0
3, 12267, Note_on_c, 1, 76, 80
3, 12273, Note_on_c, 1, 74, 80
3, 12274, Note_on_c, 1, 76, 0
3, 12280, Note_on_c, 1, 74, 0
3, 12281, Note_on_c, 1, 76, 80
3, 12286, Note_on_c, 1, 74, 80
3, 12287, Note_on_c, 1, 76, 0
3, 12291, Note_on_c, 1, 74, 0
3, 12291, Note_on_c, 1, 76, 80
3, 12296, Note_on_c, 1, 74, 80
3, 12298, Note_on_c, 1, 76, 0
3, 12319, Note_on_c, 1, 74, 0
3, 12320, Note_on_c, 1, 73, 80
3, 12336, Note_on_c, 1, 73, 0
3, 12336, Note_on_c, 1, 74, 80
3, 12351, Note_on_c, 1, 76, 80
3, 12352, Note_on_c, 1, 74, 0
3, 12518, Note_on_c, 1, 76, 0
3, 12531, Note_on_c, 1, 74, 80
3, 12547, Note_on_c, 1, 73, 80
3, 12548, Note_on_c, 1, 74, 0
3, 12561, Note_on_c, 1, 71, 80
3, 12562, Note_on_c, 1, 73, 0
3, 12575, Note_on_c, 1, 74, 80
3, 12578, Note_on_c, 1, 71, 0
3, 12584, Note_on_c, 1, 73, 80
3, 12587, Note_on_c, 1, 74, 0
3, 12590, Note_on_c, 1, 73, 0
3, 12597, Note_on_c, 1, 73, 80
3, 12601, Note_on_c, 1, 71, 80
3, 12602, Note_on_c, 1, 73, 0
3, 12607, Note_on_c, 1, 73, 80
3, 12608, Note_on_c, 1, 71, 0
3, 12692, Note_on_c, 1, 73, 0
3, 12693, Note_on_c, 1, 74, 80
3, 12705, Note_on_c, 1, 73, 80
3, 12708, Note_on_c, 1, 74, 0
3, 12713, Note_on_c, 1, 73, 0
3, 12713, Note_on_c, 1, 71, 80
3, 12720, Note_on_c, 1, 71, 0
3, 12720, Note_on_c, 1, 69, 80
3, 12727, Note_on_c, 1, 71, 80
3, 12729, Note_on_c, 1, 69, 0
3, 12733, Note_on_c, 1, 71, 0
3, 12734, Note_on_c, 1, 73, 80
3, 12739, Note_on_c, 1, 73, 0
3, 12740, Note_on_c, 1, 71, 80
3, 12745, Note_on_c, 1, 71, 0
3, 12747, Note_on_c, 1, 73, 80
3, 12751, Note_on_c, 1, 73, 0
3, 12752, Note_on_c, 1, 71, 80
3, 12758, Note_on_c, 1, 71, 0
3, 12758, Note_on_c, 1, 73, 80
3, 12762, Note_on_c, 1, 73, 0
3, 12764, Note_on_c, 1, 71, 80
3, 12768, Note_on_c, 1, 73, 80
3, 12769, Note_on_c, 1, 71, 0
3, 12772, Note_on_c, 1, 73, 0
3, 12772, Note_on_c, 1, 71, 80
3, 12777, Note_on_c, 1, 71, 0
3, 12777, Note_on_c, 1, 73, 80
3, 12779, Note_on_c, 1, 73, 0
3, 12781, Note_on_c, 1, 71, 80
3, 12783, Note_on_c, 1, 73, 80
3, 12785, Note_on_c, 1, 71, 0
3, 12788, Note_on_c, 1, 73, 0
3, 12788, Note_on_c, 1, 71, 80
3, 12802, Note_on_c, 1, 71, 0
3, 12802, Note_on_c, 1, 69, 80
3, 12814, Note_on_c, 1, 71, 80
3, 12815, Note_on_c, 1, 69, 0
3, 12831, Note_on_c, 1, 73, 80
3, 12834, Note_on_c, 1, 71, 0
3, 13072, Note_on_c, 1, 73, 0
3, 13305, Note_on_c, 1, 73, 80
3, 13312, Note_on_c, 1, 73, 0
3, 13312, Note_on_c, 1, 71, 80
3, 13320, Note_on_c, 1, 73, 80
3, 13321, Note_on_c, 1, 71, 0
3, 13473, Note_on_c, 1, 73, 0
3, 13491, Note_on_c, 1, 74, 80
3, 13521, Note_on_c, 1, 73, 80
3, 13524, Note_on_c, 1, 74, 0
3, 13537, Note_on_c, 1, 73, 0
3, 13552, Note_on_c, 1, 73, 80
3, 13557, Note_on_c, 1, 71, 80
3, 13558, Note_on_c, 1, 73, 0
3, 13565, Note_on_c, 1, 73, 80
3, 13566, Note_on_c, 1, 71, 0
3, 13650, Note_on_c, 1, 73, 0
3, 13666, Note_on_c, 1, 71, 80
3, 13681, Note_on_c, 1, 69, 80
3, 13683, Note_on_c, 1, 71, 0
3, 13696, Note_on_c, 1, 71, 80
3, 13698, Note_on_c, 1, 69, 0
3, 13711, Note_on_c, 1, 73, 80
3, 13714, Note_on_c, 1, 71, 0
3, 13726, Note_on_c, 1, 74, 80
3, 13727, Note_on_c, 1, 73, 0
3, 13741, Note_on_c, 1, 73, 80
3, 13743, Note_on_c, 1, 74, 0
3, 13756, Note_on_c, 1, 73, 0
3, 13756, Note_on_c, 1, 76, 80
3, 13769, Note_on_c, 1, 74, 80
3, 13772, Note_on_c, 1, 76, 0
3, 13778, Note_on_c, 1, 74, 0
3, 13785, Note_on_c, 1, 74, 80
3, 13848, Note_on_c, 1, 73, 80
3, 13851, Note_on_c, 1, 74, 0
3, 13900, Note_on_c, 1, 73, 0
3, 13910, Note_on_c, 1, 73, 80
3, 13919, Note_on_c, 1, 71, 80
3, 13920, Note_on_c, 1, 73, 0
3, 13927, Note_on_c, 1, 71, 0
3, 13927, Note_on_c, 1, 73, 80
3, 13934, Note_on_c, 1, 73, 0
3, 13934, Note_on_c, 1, 71, 80
3, 13941, Note_on_c, 1, 71, 0
3, 13941, Note_on_c, 1, 73, 80
3, 13946, Note_on_c, 1, 73, 0
3, 13947, Note_on_c, 1, 71, 80
3, 13952, Note_on_c, 1, 71, 0
3, 13952, Note_on_c, 1, 73, 80
3, 13957, Note_on_c, 1, 73, 0
3, 13958, Note_on_c, 1, 71, 80
3, 13962, Note_on_c, 1, 71, 0
3, 13962, Note_on_c, 1, 73, 80
3, 13966, Note_on_c, 1, 73, 0
3, 13967, Note_on_c, 1, 71, 80
3, 13969, Note_on_c, 1, 73, 80
3, 13971, Note_on_c, 1, 71, 0
3, 13973, Note_on_c, 1, 73, 0
3, 13974, Note_on_c, 1, 71, 80
3, 13998, Note_on_c, 1, 69, 80
3, 13999, Note_on_c, 1, 71, 0
3, 14013, Note_on_c, 1, 69, 0
3, 14014, Note_on_c, 1, 71, 80
3, 14033, Note_on_c, 1, 71, 0
3, 14033, Note_on_c, 1, 69, 80
3, 14168, Note_on_c, 1, 68, 80
3, 14171, Note_on_c, 1, 69, 0
3, 14185, Note_on_c, 1, 66, 80
3, 14186, Note_on_c, 1, 68, 0
3, 14199, Note_on_c, 1, 68, 80
3, 14200, Note_on_c, 1, 66, 0
3, 14216, Note_on_c, 1, 68, 0
3, 14216, Note_on_c, 1, 69, 80
3, 14244, Note_on_c, 1, 69, 0
3, 14244, Note_on_c, 1, 71, 80
3, 14260, Note_on_c, 1, 73, 80
3, 14261, Note_on_c, 1, 71, 0
3, 14266, Note_on_c, 1, 73, 0
3, 14276, Note_on_c, 1, 74, 80
3, 14294, Note_on_c, 1, 74, 0
3, 14294, Note_on_c, 1, 76, 80
3, 14304, Note_on_c, 1, 76, 0
3, 14313, Note_on_c, 1, 78, 80
3, 14321, Note_on_c, 1, 78, 0
3, 14331, Note_on_c, 1, 76, 80
3, 14350, Note_on_c, 1, 76, 0
3, 14350, Note_on_c, 1, 74, 80
3, 14363, Note_on_c, 1, 74, 0
3, 14369, Note_on_c, 1, 73, 80
3, 14378, Note_on_c, 1, 73, 0
3, 14386, Note_on_c, 1, 73, 80
3, 14395, Note_on_c, 1, 73, 0
3, 14395, Note_on_c, 1, 71, 80
3, 14403, Note_on_c, 1, 71, 0
3, 14404, Note_on_c, 1, 73, 80
3, 14410, Note_on_c, 1, 73, 0
3, 14411, Note_on_c, 1, 71, 80
3, 14417, Note_on_c, 1, 71, 0
3, 14419, Note_on_c, 1, 73, 80
3, 14424, Note_on_c, 1, 73, 0
3, 14425, Note_on_c, 1, 71, 80
3, 14430, Note_on_c, 1, 71, 0
3, 14431, Note_on_c, 1, 73, 80
3, 14436, Note_on_c, 1, 73, 0
3, 14437, Note_on_c, 1, 71, 80
3, 14442, Note_on_c, 1, 71, 0
3, 14442, Note_on_c, 1, 73, 80
3, 14447, Note_on_c, 1, 73, 0
3, 14447, Note_on_c, 1, 71, 80
3, 14449, Note_on_c, 1, 73, 80
3, 14451, Note_on_c, 1, 71, 0
3, 14453, Note_on_c, 1, 73, 0
3, 14454, Note_on_c, 1, 71, 80
3, 14482, Note_on_c, 1, 71, 0
3, 14482, Note_on_c, 1, 69, 80
3, 14498, Note_on_c, 1, 69, 0
3, 14498, Note_on_c, 1, 71, 80
3, 14514, Note_on_c, 1, 71, 0
3, 14514, Note_on_c, 1, 69, 80
3, 15350, Note_on_c, 1, 69, 0
3, 17635, Note_on_c, 1, 69, 80
3, 17846, Note_on_c, 1, 69, 0
3, 17873, Note_on_c, 1, 69, 80
3, 17902, Note_on_c, 1, 71, 80
3, 17903, Note_on_c, 1, 69, 0
3, 17916, Note_on_c, 1, 69, 80
3, 17918, Note_on_c, 1, 71, 0
3, 17931, Note_on_c, 1, 69, 0
3, 17931, Note_on_c, 1, 68, 80
3, 17964, Note_on_c, 1, 69, 80
3, 17965, Note_on_c, 1, 68, 0
3, 17997, Note_on_c, 1, 71, 80
3, 17999, Note_on_c, 1, 69, 0
3, 18018, Note_on_c, 1, 73, 80
3, 18019, Note_on_c, 1, 71, 0
3, 18031, Note_on_c, 1, 73, 0
3, 18032, Note_on_c, 1, 71, 80
3, 18045, Note_on_c, 1, 73, 80
3, 18048, Note_on_c, 1, 71, 0
3, 18059, Note_on_c, 1, 74, 80
3, 18060, Note_on_c, 1, 73, 0
3, 18069, Note_on_c, 1, 73, 80
3, 18071, Note_on_c, 1, 74, 0
3, 18077, Note_on_c, 1, 73, 0
3, 18079, Note_on_c, 1, 74, 80
3, 18084, Note_on_c, 1, 74, 0
3, 18085, Note_on_c, 1, 73, 80
3, 18090, Note_on_c, 1, 73, 0
3, 18090, Note_on_c, 1, 74, 80
3, 18095, Note_on_c, 1, 74, 0
3, 18095, Note_on_c, 1, 73, 80
3, 18103, Note_on_c, 1, 73, 0
3, 18104, Note_on_c, 1, 71, 80
3, 18112, Note_on_c, 1, 73, 80
3, 18113, Note_on_c, 1, 71, 0
3, 18117, Note_on_c, 1, 74, 80
3, 18119, Note_on_c, 1, 73, 0
3, 18227, Note_on_c, 1, 74, 0
3, 18232, Note_on_c, 1, 74, 80
3, 18246, Note_on_c, 1, 73, 80
3, 18248, Note_on_c, 1, 74, 0
3, 18308, Note_on_c, 1, 73, 0
3, 18308, Note_on_c, 1, 76, 80
3, 18322, Note_on_c, 1, 74, 80
3, 18324, Note_on_c, 1, 76, 0
3, 18336, Note_on_c, 1, 73, 80
3, 18338, Note_on_c, 1, 74, 0
3, 18351, Note_on_c, 1, 73, 0
3, 18351, Note_on_c, 1, 71, 80
3, 18383, Note_on_c, 1, 70, 80
3, 18384, Note_on_c, 1, 71, 0
3, 18411, Note_on_c, 1, 71, 80
3, 18412, Note_on_c, 1, 70, 0
3, 18501, Note_on_c, 1, 73, 80
3, 18502, Note_on_c, 1, 71, 0
3, 18515, Note_on_c, 1, 73, 0
3, 18515, Note_on_c, 1, 74, 80
3, 18530, Note_on_c, 1, 73, 80
3, 18532, Note_on_c, 1, 74, 0
3, 18547, Note_on_c, 1, 73, 0
3, 18547, Note_on_c, 1, 71, 80
3, 18567, Note_on_c, 1, 70, 80
3, 18569, Note_on_c, 1, 71, 0
3, 18597, Note_on_c, 1, 70, 0
3, 18597, Note_on_c, 1, 71, 80
3, 18708, Note_on_c, 1, 71, 0
3, 19550, Note_on_c, 1, 71, 80
3, 19732, Note_on_c, 1, 73, 80
3, 19733, Note_on_c, 1, 71, 0
3, 19746, Note_on_c, 1, 71, 80
3, 19748, Note_on_c, 1, 73, 0
3, 19761, Note_on_c, 1, 69, 80
3, 19762, Note_on_c, 1, 71, 0
3, 19777, Note_on_c, 1, 71, 80
3, 19778, Note_on_c, 1, 69, 0
3, 19794, Note_on_c, 1, 71, 0
3, 19794, Note_on_c, 1, 73, 80
3, 19821, Note_on_c, 1, 69, 80
3, 19822, Note_on_c, 1, 73, 0
3, 19839, Note_on_c, 1, 69, 0
3, 19850, Note_on_c, 1, 68, 80
3, 19867, Note_on_c, 1, 68, 0
3, 19867, Note_on_c, 1, 66, 80
3, 19880, Note_on_c, 1, 68, 80
3, 19881, Note_on_c, 1, 66, 0
3, 19895, Note_on_c, 1, 69, 80
3, 19896, Note_on_c, 1, 68, 0
3, 19912, Note_on_c, 1, 69, 0
3, 19912, Note_on_c, 1, 74, 80
3, 19941, Note_on_c, 1, 74, 0
3, 19942, Note_on_c, 1, 69, 80
3, 19964, Note_on_c, 1, 69, 0
3, 19971, Note_on_c, 1, 71, 80
3, 19986, Note_on_c, 1, 69, 80
3, 19988, Note_on_c, 1, 71, 0
3, 20001, Note_on_c, 1, 69, 0
3, 20001, Note_on_c, 1, 68, 80
3, 20015, Note_on_c, 1, 68, 0
3, 20016, Note_on_c, 1, 69, 80
3, 20031, Note_on_c, 1, 76, 80
3, 20032, Note_on_c, 1, 69, 0
3, 20176, Note_on_c, 1, 78, 80
3, 20177, Note_on_c, 1, 76, 0
3, 20190, Note_on_c, 1, 76, 80
3, 20191, Note_on_c, 1, 78, 0
3, 20209, Note_on_c, 1, 76, 0
3, 20209, Note_on_c, 1, 74, 80
3, 20227, Note_on_c, 1, 73, 80
3, 20228, Note_on_c, 1, 74, 0
3, 20245, Note_on_c, 1, 73, 0
3, 20245, Note_on_c, 1, 74, 80
3, 20263, Note_on_c, 1, 74, 0
3, 20275, Note_on_c, 1, 74, 80
3, 20292, Note_on_c, 1, 73, 80
3, 20294, Note_on_c, 1, 74, 0
3, 20378, Note_on_c, 1, 73, 0
3, 20378, Note_on_c, 1, 74, 80
3, 20394, Note_on_c, 1, 73, 80
3, 20397, Note_on_c, 1, 74, 0
3, 20406, Note_on_c, 1, 71, 80
3, 20407, Note_on_c, 1, 73, 0
3, 20415, Note_on_c, 1, 71, 0
3, 20415, Note_on_c, 1, 73, 80
3, 20422, Note_on_c, 1, 73, 0
3, 20422, Note_on_c, 1, 71, 80
3, 20429, Note_on_c, 1, 73, 80
3, 20430, Note_on_c, 1, 71, 0
3, 20435, Note_on_c, 1, 73, 0
3, 20436, Note_on_c, 1, 71, 80
3, 20441, Note_on_c, 1, 71, 0
3, 20441, Note_on_c, 1, 73, 80
3, 20445, Note_on_c, 1, 73, 0
3, 20445, Note_on_c, 1, 71, 80
3, 20449, Note_on_c, 1, 73, 80
3, 20450, Note_on_c, 1, 71, 0
3, 20454, Note_on_c, 1, 73, 0
3, 20454, Note_on_c, 1, 71, 80
3, 20457, Note_on_c, 1, 71, 0
3, 20457, Note_on_c, 1, 73, 80
3, 20461, Note_on_c, 1, 73, 0
3, 20461, Note_on_c, 1, 71, 80
3, 20481, Note_on_c, 1, 71, 0
3, 20481, Note_on_c, 1, 69, 80
3, 20496, Note_on_c, 1, 71, 80
3, 20499, Note_on_c, 1, 69, 0
3, 20513, Note_on_c, 1, 73, 80
3, 20515, Note_on_c, 1, 71, 0
3, 20810, Note_on_c, 1, 73, 0
3, 21953, Note_on_c, 1, 69, 80
3, 22162, Note_on_c, 1, 73, 80
3, 22165, Note_on_c, 1, 69, 0
3, 22177, Note_on_c, 1, 71, 80
3, 22180, Note_on_c, 1, 73, 0
3, 22184, Note_on_c, 1, 71, 0
3, 22194, Note_on_c, 1, 71, 80
3, 22268, Note_on_c, 1, 71, 0
3, 22268, Note_on_c, 1, 69, 80
3, 22275, Note_on_c, 1, 68, 80
3, 22276, Note_on_c, 1, 69, 0
3, 22284, Note_on_c, 1, 68, 0
3, 22285, Note_on_c, 1, 69, 80
3, 22300, Note_on_c, 1, 71, 80
3, 22301, Note_on_c, 1, 69, 0
3, 22316, Note_on_c, 1, 73, 80
3, 22317, Note_on_c, 1, 71, 0
3, 22332, Note_on_c, 1, 73, 0
3, 22332, Note_on_c, 1, 74, 80
3, 22348, Note_on_c, 1, 73, 80
3, 22350, Note_on_c, 1, 74, 0
3, 22363, Note_on_c, 1, 73, 0
3, 22363, Note_on_c, 1, 71, 80
3, 22378, Note_on_c, 1, 69, 80
3, 22379, Note_on_c, 1, 71, 0
3, 22395, Note_on_c, 1, 73, 80
3, 22396, Note_on_c, 1, 69, 0
3, 22409, Note_on_c, 1, 73, 0
3, 22409, Note_on_c, 1, 71, 80
3, 22422, Note_on_c, 1, 71, 0
3, 22422, Note_on_c, 1, 74, 80
3, 22429, Note_on_c, 1, 74, 0
3, 22429, Note_on_c, 1, 73, 80
3, 22437, Note_on_c, 1, 73, 0
3, 22438, Note_on_c, 1, 74, 80
3, 22453, Note_on_c, 1, 74, 0
3, 22453, Note_on_c, 1, 78, 80
3, 22468, Note_on_c, 1, 78, 0
3, 22468, Note_on_c, 1, 76, 80
3, 22482, Note_on_c, 1, 74, 80
3, 22483, Note_on_c, 1, 76, 0
3, 22497, Note_on_c, 1, 73, 80
3, 22498, Note_on_c, 1, 74, 0
3, 22512, Note_on_c, 1, 76, 80
3, 22513, Note_on_c, 1, 73, 0
3, 22528, Note_on_c, 1, 74, 80
3, 22529, Note_on_c, 1, 76, 0
3, 22542, Note_on_c, 1, 73, 80
3, 22543, Note_on_c, 1, 74, 0
3, 22554, Note_on_c, 1, 73, 0
3, 22555, Note_on_c, 1, 71, 80
3, 22570, Note_on_c, 1, 69, 80
3, 22571, Note_on_c, 1, 71, 0
3, 22584, Note_on_c, 1, 69, 0
3, 22584, Note_on_c, 1, 68, 80
3, 22597, Note_on_c, 1, 68, 0
3, 22598, Note_on_c, 1, 69, 80
3, 22612, Note_on_c, 1, 71, 80
3, 22614, Note_on_c, 1, 69, 0
3, 22629, Note_on_c, 1, 74, 80
3, 22630, Note_on_c, 1, 71, 0
3, 22643, Note_on_c, 1, 73, 80
3, 22646, Note_on_c, 1, 74, 0
3, 22657, Note_on_c, 1, 71, 80
3, 22658, Note_on_c, 1, 73, 0
3, 22673, Note_on_c, 1, 69, 80
3, 22674, Note_on_c, 1, 71, 0
3, 22809, Note_on_c, 1, 68, 80
3, 22810, Note_on_c, 1, 69, 0
3, 22823, Note_on_c, 1, 68, 0
3, 22823, Note_on_c, 1, 66, 80
3, 22837, Note_on_c, 1, 66, 0
3, 22837, Note_on_c, 1, 64, 80
3, 22852, Note_on_c, 1, 62, 80
3, 22853, Note_on_c, 1, 64, 0
3, 22867, Note_on_c, 1, 61, 80
3, 22868, Note_on_c, 1, 62, 0
3, 22881, Note_on_c, 1, 62, 80
3, 22885, Note_on_c, 1, 61, 0
3, 22893, Note_on_c, 1, 62, 0
3, 22894, Note_on_c, 1, 59, 80
3, 22901, Note_on_c, 1, 59, 0
3, 22902, Note_on_c, 1, 71, 80
3, 22910, Note_on_c, 1, 69, 80
3, 22913, Note_on_c, 1, 71, 0
3, 22925, Note_on_c, 1, 68, 80
3, 22926, Note_on_c, 1, 69, 0
3, 22938, Note_on_c, 1, 68, 0
3, 22939, Note_on_c, 1, 66, 80
3, 22953, Note_on_c, 1, 66, 0
3, 22953, Note_on_c, 1, 68, 80
3, 22967, Note_on_c, 1, 69, 80
3, 22968, Note_on_c, 1, 68, 0
3, 22979, Note_on_c, 1, 68, 80
3, 22981, Note_on_c, 1, 69, 0
3, 22988, Note_on_c, 1, 68, 0
3, 22989, Note_on_c, 1, 69, 80
3, 22996, Note_on_c, 1, 69, 0
3, 22996, Note_on_c, 1, 68, 80
3, 23002, Note_on_c, 1, 68, 0
3, 23003, Note_on_c, 1, 69, 80
3, 23010, Note_on_c, 1, 69, 0
3, 23010, Note_on_c, 1, 68, 80
3, 23015, Note_on_c, 1, 68, 0
3, 23016, Note_on_c, 1, 69, 80
3, 23023, Note_on_c, 1, 69, 0
3, 23023, Note_on_c, 1, 68, 80
3, 23029, Note_on_c, 1, 68, 0
3, 23029, Note_on_c, 1, 69, 80
3, 23036, Note_on_c, 1, 69, 0
3, 23036, Note_on_c, 1, 68, 80
3, 23041, Note_on_c, 1, 68, 0
3, 23042, Note_on_c, 1, 69, 80
3, 23048, Note_on_c, 1, 69, 0
3, 23049, Note_on_c, 1, 68, 80
3, 23054, Note_on_c, 1, 68, 0
3, 23054, Note_on_c, 1, 69, 80
3, 23058, Note_on_c, 1, 69, 0
3, 23060, Note_on_c, 1, 68, 80
3, 23062, Note_on_c, 1, 69, 80
3, 23063, Note_on_c, 1, 68, 0
3, 23069, Note_on_c, 1, 68, 80
3, 23070, Note_on_c, 1, 69, 0
3, 23077, Note_on_c, 1, 68, 0
3, 23078, Note_on_c, 1, 66, 80
3, 23084, Note_on_c, 1, 68, 80
3, 23085, Note_on_c, 1, 66, 0
3, 23093, Note_on_c, 1, 68, 0
3, 23093, Note_on_c, 1, 69, 80
3, 24143, Note_on_c, 1, 68, 80
3, 24162, Note_on_c, 1, 68, 0
3, 24163, Note_on_c, 1, 69, 0
3, 24163, Note_on_c, 1, 66, 80
3, 24177, Note_on_c, 1, 66, 0
3, 24177, Note_on_c, 1, 68, 80
3, 24190, Note_on_c, 1, 68, 0
3, 24191, Note_on_c, 1, 69, 80
3, 24204, Note_on_c, 1, 71, 80
3, 24205, Note_on_c, 1, 69, 0
3, 24217, Note_on_c, 1, 71, 0
3, 24217, Note_on_c, 1, 72, 80
3, 24229, Note_on_c, 1, 72, 0
3, 24229, Note_on_c, 1, 71, 80
3, 24241, Note_on_c, 1, 69, 80
3, 24242, Note_on_c, 1, 71, 0
3, 24254, Note_on_c, 1, 69, 0
3, 24254, Note_on_c, 1, 68, 80
3, 24267, Note_on_c, 1, 66, 80
3, 24270, Note_on_c, 1, 68, 0
3, 24279, Note_on_c, 1, 66, 0
3, 24280, Note_on_c, 1, 64, 80
3, 24294, Note_on_c, 1, 64, 0
3, 24294, Note_on_c, 1, 63, 80
3, 24309, Note_on_c, 1, 60, 80
3, 24310, Note_on_c, 1, 63, 0
3, 24324, Note_on_c, 1, 60, 0
3, 24324, Note_on_c, 1, 59, 80
3, 24335, Note_on_c, 1, 59, 0
3, 24340, Note_on_c, 1, 57, 80
3, 24368, Note_on_c, 1, 78, 80
3, 24370, Note_on_c, 1, 57, 0
3, 24416, Note_on_c, 1, 78, 0
3, 24446, Note_on_c, 1, 76, 80
3, 24464, Note_on_c, 1, 76, 0
3, 24473, Note_on_c, 1, 75, 80
3, 24495, Note_on_c, 1, 75, 0
3, 24495, Note_on_c, 1, 78, 80
3, 24513, Note_on_c, 1, 78, 0
3, 24513, Note_on_c, 1, 81, 80
3, 24529, Note_on_c, 1, 80, 80
3, 24530, Note_on_c, 1, 81, 0
3, 24544, Note_on_c, 1, 80, 0
3, 24544, Note_on_c, 1, 78, 80
3, 24558, Note_on_c, 1, 78, 0
3, 24558, Note_on_c, 1, 76, 80
3, 24573, Note_on_c, 1, 76, 0
3, 24573, Note_on_c, 1, 75, 80
3, 24588, Note_on_c, 1, 72, 80
3, 24590, Note_on_c, 1, 75, 0
3, 24605, Note_on_c, 1, 72, 0
3, 24605, Note_on_c, 1, 71, 80
3, 24633, Note_on_c, 1, 71, 0
3, 24638, Note_on_c, 1, 72, 80
3, 24653, Note_on_c, 1, 71, 80
3, 24656, Note_on_c, 1, 72, 0
3, 24666, Note_on_c, 1, 71, 0
3, 24667, Note_on_c, 1, 69, 80
3, 24679, Note_on_c, 1, 69, 0
3, 24679, Note_on_c, 1, 71, 80
3, 24694, Note_on_c, 1, 68, 80
3, 24695, Note_on_c, 1, 71, 0
3, 24735, Note_on_c, 1, 68, 0
3, 24741, Note_on_c, 1, 69, 80
3, 24746, Note_on_c, 1, 68, 80
3, 24747, Note_on_c, 1, 69, 0
3, 24750, Note_on_c, 1, 69, 80
3, 24752, Note_on_c, 1, 68, 0
3, 24880, Note_on_c, 1, 69, 0
3, 24894, Note_on_c, 1, 64, 80
3, 24912, Note_on_c, 1, 66, 80
3, 24913, Note_on_c, 1, 64, 0
3, 24925, Note_on_c, 1, 68, 80
3, 24926, Note_on_c, 1, 66, 0
3, 24939, Note_on_c, 1, 68, 0
3, 24940, Note_on_c, 1, 69, 80
3, 24957, Note_on_c, 1, 69, 0
3, 24957, Note_on_c, 1, 71, 80
3, 24973, Note_on_c, 1, 73, 80
3, 24974, Note_on_c, 1, 71, 0
3, 24993, Note_on_c, 1, 73, 0
3, 24994, Note_on_c, 1, 74, 80
3, 25006, Note_on_c, 1, 71, 80
3, 25008, Note_on_c, 1, 74, 0
3, 25014, Note_on_c, 1, 71, 0
3, 25023, Note_on_c, 1, 69, 80
3, 25036, Note_on_c, 1, 68, 80
3, 25037, Note_on_c, 1, 69, 0
3, 25045, Note_on_c, 1, 68, 0
3, 25045, Note_on_c, 1, 66, 80
3, 25053, Note_on_c, 1, 66, 0
3, 25053, Note_on_c, 1, 68, 80
3, 25060, Note_on_c, 1, 68, 0
3, 25060, Note_on_c, 1, 69, 80
3, 25066, Note_on_c, 1, 68, 80
3, 25067, Note_on_c, 1, 69, 0
3, 25073, Note_on_c, 1, 68, 0
3, 25074, Note_on_c, 1, 69, 80
3, 25080, Note_on_c, 1, 69, 0
3, 25080, Note_on_c, 1, 68, 80
3, 25086, Note_on_c, 1, 68, 0
3, 25087, Note_on_c, 1, 69, 80
3, 25093, Note_on_c, 1, 69, 0
3, 25094, Note_on_c, 1, 68, 80
3, 25098, Note_on_c, 1, 68, 0
3, 25099, Note_on_c, 1, 69, 80
3, 25104, Note_on_c, 1, 69, 0
3, 25105, Note_on_c, 1, 68, 80
3, 25109, Note_on_c, 1, 68, 0
3, 25110, Note_on_c, 1, 69, 80
3, 25114, Note_on_c, 1, 68, 80
3, 25115, Note_on_c, 1, 69, 0
3, 25154, Note_on_c, 1, 69, 80
3, 25156, Note_on_c, 1, 68, 0
3, 25167, Note_on_c, 1, 69, 0
3, 25185, Note_on_c, 1, 69, 80
3, 25804, Note_on_c, 1, 69, 0
3, 25804, End_track
4, 0, Start_track
4, 0, Title_t, "Pedal 8"
4, 0, MIDI_port, 0
4, 0, Control_c, 2, 10, 42
4, 0, Control_c, 2, 7, 67
4, 0, Program_c, 2, 42
4, 652, Note_on_c, 2, 49, 80
4, 709, Note_on_c, 2, 50, 80
4, 710, Note_on_c, 2, 49, 0
4, 766, Note_on_c, 2, 50, 0
4, 766, Note_on_c, 2, 52, 80
4, 828, Note_on_c, 2, 45, 80
4, 830, Note_on_c, 2, 52, 0
4, 863, Note_on_c, 2, 45, 0
4, 885, Note_on_c, 2, 57, 80
4, 946, Note_on_c, 2, 56, 80
4, 949, Note_on_c, 2, 57, 0
4, 1009, Note_on_c, 2, 54, 80
4, 1011, Note_on_c, 2, 56, 0
4, 1068, Note_on_c, 2, 54, 0
4, 1070, Note_on_c, 2, 52, 80
4, 1196, Note_on_c, 2, 54, 80
4, 1199, Note_on_c, 2, 52, 0
4, 1316, Note_on_c, 2, 56, 80
4, 1318, Note_on_c, 2, 54, 0
4, 1416, Note_on_c, 2, 56, 0
4, 1432, Note_on_c, 2, 57, 80
4, 1489, Note_on_c, 2, 59, 80
4, 1490, Note_on_c, 2, 57, 0
4, 1553, Note_on_c, 2, 61, 80
4, 1555, Note_on_c, 2, 59, 0
4, 1588, Note_on_c, 2, 61, 0
4, 1614, Note_on_c, 2, 44, 80
4, 1670, Note_on_c, 2, 44, 0
4, 1674, Note_on_c, 2, 45, 80
4, 1731, Note_on_c, 2, 45, 0
4, 1731, Note_on_c, 2, 47, 80
4, 1790, Note_on_c, 2, 40, 80
4, 1791, Note_on_c, 2, 47, 0
4, 1823, Note_on_c, 2, 40, 0
4, 1852, Note_on_c, 2, 52, 80
4, 1908, Note_on_c, 2, 50, 80
4, 1910, Note_on_c, 2, 52, 0
4, 1966, Note_on_c, 2, 50, 0
4, 1966, Note_on_c, 2, 49, 80
4, 2029, Note_on_c, 2, 47, 80
4, 2030, Note_on_c, 2, 49, 0
4, 2153, Note_on_c, 2, 47, 0
4, 2212, Note_on_c, 2, 47, 80
4, 2259, Note_on_c, 2, 47, 0
4, 2275, Note_on_c, 2, 42, 80
4, 2334, Note_on_c, 2, 42, 0
4, 2335, Note_on_c, 2, 44, 80
4, 2394, Note_on_c, 2, 44, 0
4, 2395, Note_on_c, 2, 45, 80
4, 2443, Note_on_c, 2, 45, 0
4, 2452, Note_on_c, 2, 47, 80
4, 2511, Note_on_c, 2, 47, 0
4, 2511, Note_on_c, 2, 49, 80
4, 2551, Note_on_c, 2, 49, 0
4, 2575, Note_on_c, 2, 54, 80
4, 2633, Note_on_c, 2, 50, 80
4, 2635, Note_on_c, 2, 54, 0
4, 2692, Note_on_c, 2, 50, 0
4, 2692, Note_on_c, 2, 47, 80
4, 2751, Note_on_c, 2, 44, 80
4, 2752, Note_on_c, 2, 47, 0
4, 2787, Note_on_c, 2, 44, 0
4, 2809, Note_on_c, 2, 52, 80
4, 2926, Note_on_c, 2, 50, 80
4, 2928, Note_on_c, 2, 52, 0
4, 2987, Note_on_c, 2, 49, 80
4, 2989, Note_on_c, 2, 50, 0
4, 3096, Note_on_c, 2, 49, 0
4, 3111, Note_on_c, 2, 47, 80
4, 3226, Note_on_c, 2, 49, 80
4, 3228, Note_on_c, 2, 47, 0
4, 3349, Note_on_c, 2, 49, 0
4, 3350, Note_on_c, 2, 50, 80
4, 3410, Note_on_c, 2, 52, 80
4, 3411, Note_on_c, 2, 50, 0
4, 3466, Note_on_c, 2, 54, 80
4, 3469, Note_on_c, 2, 52, 0
4, 3510, Note_on_c, 2, 54, 0
4, 3528, Note_on_c, 2, 49, 80
4, 3590, Note_on_c, 2, 50, 80
4, 3591, Note_on_c, 2, 49, 0
4, 3649, Note_on_c, 2, 52, 80
4, 3650, Note_on_c, 2, 50, 0
4, 3710, Note_on_c, 2, 45, 80
4, 3712, Note_on_c, 2, 52, 0
4, 4434, Note_on_c, 2, 45, 0
4, 4500, Note_on_c, 2, 54, 80
4, 4555, Note_on_c, 2, 50, 80
4, 4557, Note_on_c, 2, 54, 0
4, 4611, Note_on_c, 2, 50, 0
4, 4611, Note_on_c, 2, 47, 80
4, 4670, Note_on_c, 2, 44, 80
4, 4671, Note_on_c, 2, 47, 0
4, 4732, Note_on_c, 2, 49, 80
4, 4733, Note_on_c, 2, 44, 0
4, 4852, Note_on_c, 2, 47, 80
4, 4853, Note_on_c, 2, 49, 0
4, 4910, Note_on_c, 2, 45, 80
4, 4912, Note_on_c, 2, 47, 0
4, 4948, Note_on_c, 2, 45, 0
4, 4972, Note_on_c, 2, 57, 80
4, 5029, Note_on_c, 2, 57, 0
4, 5031, Note_on_c, 2, 56, 80
4, 5091, Note_on_c, 2, 56, 0
4, 5091, Note_on_c, 2, 54, 80
4, 5151, Note_on_c, 2, 54, 0
4, 5151, Note_on_c, 2, 53, 80
4, 5273, Note_on_c, 2, 54, 80
4, 5276, Note_on_c, 2, 53, 0
4, 5333, Note_on_c, 2, 56, 80
4, 5334, Note_on_c, 2, 54, 0
4, 5387, Note_on_c, 2, 56, 0
4, 5391, Note_on_c, 2, 57, 80
4, 5444, Note_on_c, 2, 57, 0
4, 5451, Note_on_c, 2, 59, 80
4, 5500, Note_on_c, 2, 59, 0
4, 5511, Note_on_c, 2, 61, 80
4, 5535, Note_on_c, 2, 61, 0
4, 5572, Note_on_c, 2, 49, 80
4, 5599, Note_on_c, 2, 49, 0
4, 5629, Note_on_c, 2, 42, 80
4, 5748, Note_on_c, 2, 42, 0
4, 5940, Note_on_c, 2, 54, 80
4, 5989, Note_on_c, 2, 54, 0
4, 5994, Note_on_c, 2, 50, 80
4, 6052, Note_on_c, 2, 50, 0
4, 6054, Note_on_c, 2, 47, 80
4, 6112, Note_on_c, 2, 44, 80
4, 6113, Note_on_c, 2, 47, 0
4, 6149, Note_on_c, 2, 44, 0
4, 6175, Note_on_c, 2, 52, 80
4, 6293, Note_on_c, 2, 50, 80
4, 6295, Note_on_c, 2, 52, 0
4, 6353, Note_on_c, 2, 50, 0
4, 6353, Note_on_c, 2, 49, 80
4, 6392, Note_on_c, 2, 49, 0
4, 6416, Note_on_c, 2, 57, 80
4, 6471, Note_on_c, 2, 57, 0
4, 6478, Note_on_c, 2, 54, 80
4, 6530, Note_on_c, 2, 54, 0
4, 6538, Note_on_c, 2, 50, 80
4, 6585, Note_on_c, 2, 50, 0
4, 6595, Note_on_c, 2, 47, 80
4, 6654, Note_on_c, 2, 49, 80
4, 6658, Note_on_c, 2, 47, 0
4, 6712, Note_on_c, 2, 49, 0
4, 6713, Note_on_c, 2, 50, 80
4, 6772, Note_on_c, 2, 52, 80
4, 6773, Note_on_c, 2, 50, 0
4, 6835, Note_on_c, 2, 54, 80
4, 6837, Note_on_c, 2, 52, 0
4, 6900, Note_on_c, 2, 54, 0
4, 6900, Note_on_c, 2, 55, 80
4, 6956, Note_on_c, 2, 54, 80
4, 6959, Note_on_c, 2, 55, 0
4, 7010, Note_on_c, 2, 52, 80
4, 7013, Note_on_c, 2, 54, 0
4, 7072, Note_on_c, 2, 52, 0
4, 7072, Note_on_c, 2, 50, 80
4, 7125, Note_on_c, 2, 50, 0
4, 7125, Note_on_c, 2, 52, 80
4, 7185, Note_on_c, 2, 54, 80
4, 7188, Note_on_c, 2, 52, 0
4, 7247, Note_on_c, 2, 50, 80
4, 7248, Note_on_c, 2, 54, 0
4, 7312, Note_on_c, 2, 57, 80
4, 7314, Note_on_c, 2, 50, 0
4, 7552, Note_on_c, 2, 57, 0
4, 7552, Note_on_c, 2, 45, 80
4, 7847, Note_on_c, 2, 45, 0
4, 8336, Note_on_c, 2, 49, 80
4, 8394, Note_on_c, 2, 50, 80
4, 8399, Note_on_c, 2, 49, 0
4, 8448, Note_on_c, 2, 50, 0
4, 8453, Note_on_c, 2, 52, 80
4, 8510, Note_on_c, 2, 45, 80
4, 8514, Note_on_c, 2, 52, 0
4, 8562, Note_on_c, 2, 45, 0
4, 8566, Note_on_c, 2, 57, 80
4, 8630, Note_on_c, 2, 56, 80
4, 8632, Note_on_c, 2, 57, 0
4, 8687, Note_on_c, 2, 54, 80
4, 8688, Note_on_c, 2, 56, 0
4, 8748, Note_on_c, 2, 54, 0
4, 8748, Note_on_c, 2, 52, 80
4, 8871, Note_on_c, 2, 54, 80
4, 8873, Note_on_c, 2, 52, 0
4, 8990, Note_on_c, 2, 56, 80
4, 8994, Note_on_c, 2, 54, 0
4, 9109, Note_on_c, 2, 56, 0
4, 9109, Note_on_c, 2, 57, 80
4, 9173, Note_on_c, 2, 57, 0
4, 9173, Note_on_c, 2, 59, 80
4, 9228, Note_on_c, 2, 61, 80
4, 9229, Note_on_c, 2, 59, 0
4, 9256, Note_on_c, 2, 61, 0
4, 9287, Note_on_c, 2, 44, 80
4, 9333, Note_on_c, 2, 44, 0
4, 9347, Note_on_c, 2, 45, 80
4, 9407, Note_on_c, 2, 47, 80
4, 9408, Note_on_c, 2, 45, 0
4, 9471, Note_on_c, 2, 40, 80
4, 9472, Note_on_c, 2, 47, 0
4, 9503, Note_on_c, 2, 40, 0
4, 9531, Note_on_c, 2, 52, 80
4, 9584, Note_on_c, 2, 52, 0
4, 9590, Note_on_c, 2, 50, 80
4, 9649, Note_on_c, 2, 49, 80
4, 9651, Note_on_c, 2, 50, 0
4, 9707, Note_on_c, 2, 49, 0
4, 9707, Note_on_c, 2, 47, 80
4, 9832, Note_on_c, 2, 47, 0
4, 9882, Note_on_c, 2, 47, 80
4, 9930, Note_on_c, 2, 47, 0
4, 9943, Note_on_c, 2, 42, 80
4, 10004, Note_on_c, 2, 42, 0
4, 10005, Note_on_c, 2, 44, 80
4, 10065, Note_on_c, 2, 44, 0
4, 10065, Note_on_c, 2, 45, 80
4, 10130, Note_on_c, 2, 47, 80
4, 10131, Note_on_c, 2, 45, 0
4, 10190, Note_on_c, 2, 49, 80
4, 10192, Note_on_c, 2, 47, 0
4, 10242, Note_on_c, 2, 49, 0
4, 10254, Note_on_c, 2, 54, 80
4, 10313, Note_on_c, 2, 50, 80
4, 10316, Note_on_c, 2, 54, 0
4, 10369, Note_on_c, 2, 50, 0
4, 10374, Note_on_c, 2, 47, 80
4, 10434, Note_on_c, 2, 44, 80
4, 10437, Note_on_c, 2, 47, 0
4, 10472, Note_on_c, 2, 44, 0
4, 10491, Note_on_c, 2, 52, 80
4, 10609, Note_on_c, 2, 50, 80
4, 10612, Note_on_c, 2, 52, 0
4, 10667, Note_on_c, 2, 49, 80
4, 10671, Note_on_c, 2, 50, 0
4, 10786, Note_on_c, 2, 47, 80
4, 10788, Note_on_c, 2, 49, 0
4, 10904, Note_on_c, 2, 49, 80
4, 10907, Note_on_c, 2, 47, 0
4, 11026, Note_on_c, 2, 49, 0
4, 11028, Note_on_c, 2, 50, 80
4, 11085, Note_on_c, 2, 50, 0
4, 11086, Note_on_c, 2, 52, 80
4, 11144, Note_on_c, 2, 54, 80
4, 11147, Note_on_c, 2, 52, 0
4, 11180, Note_on_c, 2, 54, 0
4, 11205, Note_on_c, 2, 49, 80
4, 11268, Note_on_c, 2, 50, 80
4, 11269, Note_on_c, 2, 49, 0
4, 11325, Note_on_c, 2, 52, 80
4, 11328, Note_on_c, 2, 50, 0
4, 11381, Note_on_c, 2, 45, 80
4, 11383, Note_on_c, 2, 52, 0
4, 12151, Note_on_c, 2, 45, 0
4, 12178, Note_on_c, 2, 54, 80
4, 12234, Note_on_c, 2, 50, 80
4, 12237, Note_on_c, 2, 54, 0
4, 12293, Note_on_c, 2, 47, 80
4, 12295, Note_on_c, 2, 50, 0
4, 12348, Note_on_c, 2, 44, 80
4, 12350, Note_on_c, 2, 47, 0
4, 12413, Note_on_c, 2, 49, 80
4, 12415, Note_on_c, 2, 44, 0
4, 12530, Note_on_c, 2, 49, 0
4, 12530, Note_on_c, 2, 47, 80
4, 12595, Note_on_c, 2, 45, 80
4, 12597, Note_on_c, 2, 47, 0
4, 12633, Note_on_c, 2, 45, 0
4, 12653, Note_on_c, 2, 57, 80
4, 12699, Note_on_c, 2, 57, 0
4, 12707, Note_on_c, 2, 56, 80
4, 12770, Note_on_c, 2, 54, 80
4, 12772, Note_on_c, 2, 56, 0
4, 12831, Note_on_c, 2, 53, 80
4, 12835, Note_on_c, 2, 54, 0
4, 12952, Note_on_c, 2, 54, 80
4, 12955, Note_on_c, 2, 53, 0
4, 13014, Note_on_c, 2, 54, 0
4, 13014, Note_on_c, 2, 56, 80
4, 13071, Note_on_c, 2, 56, 0
4, 13072, Note_on_c, 2, 57, 80
4, 13130, Note_on_c, 2, 57, 0
4, 13131, Note_on_c, 2, 59, 80
4, 13192, Note_on_c, 2, 59, 0
4, 13192, Note_on_c, 2, 61, 80
4, 13227, Note_on_c, 2, 61, 0
4, 13250, Note_on_c, 2, 49, 80
4, 13282, Note_on_c, 2, 49, 0
4, 13309, Note_on_c, 2, 42, 80
4, 13425, Note_on_c, 2, 42, 0
4, 13615, Note_on_c, 2, 54, 80
4, 13666, Note_on_c, 2, 50, 80
4, 13668, Note_on_c, 2, 54, 0
4, 13723, Note_on_c, 2, 47, 80
4, 13724, Note_on_c, 2, 50, 0
4, 13769, Note_on_c, 2, 47, 0
4, 13785, Note_on_c, 2, 44, 80
4, 13826, Note_on_c, 2, 44, 0
4, 13849, Note_on_c, 2, 52, 80
4, 13969, Note_on_c, 2, 50, 80
4, 13972, Note_on_c, 2, 52, 0
4, 14033, Note_on_c, 2, 50, 0
4, 14033, Note_on_c, 2, 49, 80
4, 14072, Note_on_c, 2, 49, 0
4, 14096, Note_on_c, 2, 57, 80
4, 14149, Note_on_c, 2, 57, 0
4, 14154, Note_on_c, 2, 54, 80
4, 14204, Note_on_c, 2, 54, 0
4, 14215, Note_on_c, 2, 50, 80
4, 14264, Note_on_c, 2, 50, 0
4, 14273, Note_on_c, 2, 47, 80
4, 14333, Note_on_c, 2, 49, 80
4, 14336, Note_on_c, 2, 47, 0
4, 14391, Note_on_c, 2, 50, 80
4, 14392, Note_on_c, 2, 49, 0
4, 14454, Note_on_c, 2, 52, 80
4, 14456, Note_on_c, 2, 50, 0
4, 14514, Note_on_c, 2, 54, 80
4, 14517, Note_on_c, 2, 52, 0
4, 14575, Note_on_c, 2, 55, 80
4, 14576, Note_on_c, 2, 54, 0
4, 14636, Note_on_c, 2, 54, 80
4, 14639, Note_on_c, 2, 55, 0
4, 14692, Note_on_c, 2, 54, 0
4, 14693, Note_on_c, 2, 52, 80
4, 14744, Note_on_c, 2, 52, 0
4, 14748, Note_on_c, 2, 50, 80
4, 14807, Note_on_c, 2, 52, 80
4, 14810, Note_on_c, 2, 50, 0
4, 14868, Note_on_c, 2, 54, 80
4, 14871, Note_on_c, 2, 52, 0
4, 14915, Note_on_c, 2, 54, 0
4, 14927, Note_on_c, 2, 50, 80
4, 14969, Note_on_c, 2, 50, 0
4, 14989, Note_on_c, 2, 57, 80
4, 15236, Note_on_c, 2, 45, 80
4, 15237, Note_on_c, 2, 57, 0
4, 15539, Note_on_c, 2, 45, 0
4, 15595, Note_on_c, 2, 45, 80
4, 15720, Note_on_c, 2, 47, 80
4, 15722, Note_on_c, 2, 45, 0
4, 15835, Note_on_c, 2, 49, 80
4, 15838, Note_on_c, 2, 47, 0
4, 15951, Note_on_c, 2, 49, 0
4, 15951, Note_on_c, 2, 50, 80
4, 16071, Note_on_c, 2, 49, 80
4, 16074, Note_on_c, 2, 50, 0
4, 16190, Note_on_c, 2, 47, 80
4, 16191, Note_on_c, 2, 49, 0
4, 16312, Note_on_c, 2, 46, 80
4, 16315, Note_on_c, 2, 47, 0
4, 16429, Note_on_c, 2, 46, 0
4, 16429, Note_on_c, 2, 47, 80
4, 16464, Note_on_c, 2, 47, 0
4, 16491, Note_on_c, 2, 47, 80
4, 16553, Note_on_c, 2, 49, 80
4, 16555, Note_on_c, 2, 47, 0
4, 16614, Note_on_c, 2, 51, 80
4, 16615, Note_on_c, 2, 49, 0
4, 16678, Note_on_c, 2, 52, 80
4, 16680, Note_on_c, 2, 51, 0
4, 16707, Note_on_c, 2, 52, 0
4, 16734, Note_on_c, 2, 40, 80
4, 16781, Note_on_c, 2, 40, 0
4, 16796, Note_on_c, 2, 42, 80
4, 16855, Note_on_c, 2, 42, 0
4, 16855, Note_on_c, 2, 44, 80
4, 16913, Note_on_c, 2, 45, 80
4, 16914, Note_on_c, 2, 44, 0
4, 16950, Note_on_c, 2, 45, 0
4, 16979, Note_on_c, 2, 50, 80
4, 17016, Note_on_c, 2, 50, 0
4, 17037, Note_on_c, 2, 47, 80
4, 17077, Note_on_c, 2, 47, 0
4, 17093, Note_on_c, 2, 44, 80
4, 17141, Note_on_c, 2, 44, 0
4, 17153, Note_on_c, 2, 40, 80
4, 17185, Note_on_c, 2, 40, 0
4, 17209, Note_on_c, 2, 49, 80
4, 17326, Note_on_c, 2, 47, 80
4, 17327, Note_on_c, 2, 49, 0
4, 17386, Note_on_c, 2, 45, 80
4, 17387, Note_on_c, 2, 47, 0
4, 17507, Note_on_c, 2, 44, 80
4, 17510, Note_on_c, 2, 45, 0
4, 17602, Note_on_c, 2, 44, 0
4, 17635, Note_on_c, 2, 45, 80
4, 17750, Note_on_c, 2, 45, 0
4, 17751, Note_on_c, 2, 47, 80
4, 17811, Note_on_c, 2, 49, 80
4, 17812, Note_on_c, 2, 47, 0
4, 17875, Note_on_c, 2, 49, 0
4, 17875, Note_on_c, 2, 50, 80
4, 17918, Note_on_c, 2, 50, 0
4, 17936, Note_on_c, 2, 42, 80
4, 17999, Note_on_c, 2, 42, 0
4, 17999, Note_on_c, 2, 44, 80
4, 18057, Note_on_c, 2, 46, 80
4, 18059, Note_on_c, 2, 44, 0
4, 18116, Note_on_c, 2, 46, 0
4, 18116, Note_on_c, 2, 47, 80
4, 18173, Note_on_c, 2, 47, 0
4, 18174, Note_on_c, 2, 50, 80
4, 18234, Note_on_c, 2, 52, 80
4, 18235, Note_on_c, 2, 50, 0
4, 18321, Note_on_c, 2, 52, 0
4, 18321, Note_on_c, 2, 54, 80
4, 18351, Note_on_c, 2, 55, 80
4, 18352, Note_on_c, 2, 54, 0
4, 18412, Note_on_c, 2, 50, 80
4, 18413, Note_on_c, 2, 55, 0
4, 18440, Note_on_c, 2, 52, 80
4, 18442, Note_on_c, 2, 50, 0
4, 18472, Note_on_c, 2, 52, 0
4, 18472, Note_on_c, 2, 54, 80
4, 18504, Note_on_c, 2, 54, 0
4, 18534, Note_on_c, 2, 42, 80
4, 18567, Note_on_c, 2, 42, 0
4, 18596, Note_on_c, 2, 47, 80
4, 18867, Note_on_c, 2, 47, 0
4, 18898, Note_on_c, 2, 59, 80
4, 18948, Note_on_c, 2, 59, 0
4, 18953, Note_on_c, 2, 55, 80
4, 19010, Note_on_c, 2, 52, 80
4, 19012, Note_on_c, 2, 55, 0
4, 19067, Note_on_c, 2, 49, 80
4, 19069, Note_on_c, 2, 52, 0
4, 19106, Note_on_c, 2, 49, 0
4, 19128, Note_on_c, 2, 57, 80
4, 19252, Note_on_c, 2, 55, 80
4, 19253, Note_on_c, 2, 57, 0
4, 19310, Note_on_c, 2, 55, 0
4, 19310, Note_on_c, 2, 54, 80
4, 19366, Note_on_c, 2, 50, 80
4, 19367, Note_on_c, 2, 54, 0
4, 19415, Note_on_c, 2, 50, 0
4, 19427, Note_on_c, 2, 47, 80
4, 19472, Note_on_c, 2, 47, 0
4, 19487, Note_on_c, 2, 50, 80
4, 19549, Note_on_c, 2, 50, 0
4, 19549, Note_on_c, 2, 52, 80
4, 19584, Note_on_c, 2, 52, 0
4, 19611, Note_on_c, 2, 40, 80
4, 19663, Note_on_c, 2, 40, 0
4, 19671, Note_on_c, 2, 42, 80
4, 19732, Note_on_c, 2, 44, 80
4, 19734, Note_on_c, 2, 42, 0
4, 19790, Note_on_c, 2, 45, 80
4, 19791, Note_on_c, 2, 44, 0
4, 19892, Note_on_c, 2, 45, 0
4, 19915, Note_on_c, 2, 47, 80
4, 19977, Note_on_c, 2, 59, 80
4, 19979, Note_on_c, 2, 47, 0
4, 20033, Note_on_c, 2, 56, 80
4, 20035, Note_on_c, 2, 59, 0
4, 20087, Note_on_c, 2, 52, 80
4, 20088, Note_on_c, 2, 56, 0
4, 20148, Note_on_c, 2, 54, 80
4, 20151, Note_on_c, 2, 52, 0
4, 20209, Note_on_c, 2, 54, 0
4, 20209, Note_on_c, 2, 56, 80
4, 20273, Note_on_c, 2, 56, 0
4, 20273, Note_on_c, 2, 57, 80
4, 20317, Note_on_c, 2, 57, 0
4, 20335, Note_on_c, 2, 54, 80
4, 20392, Note_on_c, 2, 54, 0
4, 20393, Note_on_c, 2, 50, 80
4, 20440, Note_on_c, 2, 50, 0
4, 20452, Note_on_c, 2, 47, 80
4, 20510, Note_on_c, 2, 47, 0
4, 20512, Note_on_c, 2, 41, 80
4, 20550, Note_on_c, 2, 41, 0
4, 20573, Note_on_c, 2, 49, 80
4, 20690, Note_on_c, 2, 49, 0
4, 20691, Note_on_c, 2, 47, 80
4, 20734, Note_on_c, 2, 47, 0
4, 20753, Note_on_c, 2, 45, 80
4, 20813, Note_on_c, 2, 47, 80
4, 20814, Note_on_c, 2, 45, 0
4, 20872, Note_on_c, 2, 49, 80
4, 20874, Note_on_c, 2, 47, 0
4, 20990, Note_on_c, 2, 42, 80
4, 20991, Note_on_c, 2, 49, 0
4, 21025, Note_on_c, 2, 42, 0
4, 21054, Note_on_c, 2, 54, 80
4, 21172, Note_on_c, 2, 52, 80
4, 21174, Note_on_c, 2, 54, 0
4, 21231, Note_on_c, 2, 50, 80
4, 21233, Note_on_c, 2, 52, 0
4, 21353, Note_on_c, 2, 49, 80
4, 21356, Note_on_c, 2, 50, 0
4, 21503, Note_on_c, 2, 49, 0
4, 21529, Note_on_c, 2, 47, 80
4, 21584, Note_on_c, 2, 49, 80
4, 21587, Note_on_c, 2, 47, 0
4, 21644, Note_on_c, 2, 49, 0
4, 21645, Note_on_c, 2, 51, 80
4, 21704, Note_on_c, 2, 52, 80
4, 21705, Note_on_c, 2, 51, 0
4, 21724, Note_on_c, 2, 52, 0
4, 21736, Note_on_c, 2, 47, 80
4, 21748, Note_on_c, 2, 47, 0
4, 21773, Note_on_c, 2, 52, 80
4, 21891, Note_on_c, 2, 50, 80
4, 21894, Note_on_c, 2, 52, 0
4, 21945, Note_on_c, 2, 50, 0
4, 21952, Note_on_c, 2, 49, 80
4, 21994, Note_on_c, 2, 49, 0
4, 22014, Note_on_c, 2, 52, 80
4, 22063, Note_on_c, 2, 52, 0
4, 22073, Note_on_c, 2, 49, 80
4, 22119, Note_on_c, 2, 49, 0
4, 22133, Note_on_c, 2, 45, 80
4, 22179, Note_on_c, 2, 45, 0
4, 22193, Note_on_c, 2, 40, 80
4, 22293, Note_on_c, 2, 40, 0
4, 22312, Note_on_c, 2, 45, 80
4, 22376, Note_on_c, 2, 43, 80
4, 22377, Note_on_c, 2, 45, 0
4, 22433, Note_on_c, 2, 42, 80
4, 22434, Note_on_c, 2, 43, 0
4, 22491, Note_on_c, 2, 42, 0
4, 22493, Note_on_c, 2, 45, 80
4, 22551, Note_on_c, 2, 44, 80
4, 22553, Note_on_c, 2, 45, 0
4, 22675, Note_on_c, 2, 42, 80
4, 22676, Note_on_c, 2, 44, 0
4, 22712, Note_on_c, 2, 42, 0
4, 22735, Note_on_c, 2, 54, 80
4, 22785, Note_on_c, 2, 54, 0
4, 22793, Note_on_c, 2, 50, 80
4, 22837, Note_on_c, 2, 50, 0
4, 22850, Note_on_c, 2, 47, 80
4, 22905, Note_on_c, 2, 47, 0
4, 22907, Note_on_c, 2, 40, 80
4, 22969, Note_on_c, 2, 52, 80
4, 22971, Note_on_c, 2, 40, 0
4, 23092, Note_on_c, 2, 50, 80
4, 23095, Note_on_c, 2, 52, 0
4, 23149, Note_on_c, 2, 49, 80
4, 23152, Note_on_c, 2, 50, 0
4, 23201, Note_on_c, 2, 49, 0
4, 23211, Note_on_c, 2, 45, 80
4, 23267, Note_on_c, 2, 50, 80
4, 23270, Note_on_c, 2, 45, 0
4, 23329, Note_on_c, 2, 52, 80
4, 23330, Note_on_c, 2, 50, 0
4, 23389, Note_on_c, 2, 54, 80
4, 23391, Note_on_c, 2, 52, 0
4, 23451, Note_on_c, 2, 54, 0
4, 23451, Note_on_c, 2, 52, 80
4, 23509, Note_on_c, 2, 50, 80
4, 23512, Note_on_c, 2, 52, 0
4, 23568, Note_on_c, 2, 50, 0
4, 23568, Note_on_c, 2, 52, 80
4, 23634, Note_on_c, 2, 54, 80
4, 23636, Note_on_c, 2, 52, 0
4, 23691, Note_on_c, 2, 54, 0
4, 23691, Note_on_c, 2, 52, 80
4, 23749, Note_on_c, 2, 54, 80
4, 23754, Note_on_c, 2, 52, 0
4, 23780, Note_on_c, 2, 54, 0
4, 23781, Note_on_c, 2, 57, 80
4, 23811, Note_on_c, 2, 56, 80
4, 23813, Note_on_c, 2, 57, 0
4, 23838, Note_on_c, 2, 56, 0
4, 23839, Note_on_c, 2, 59, 80
4, 23853, Note_on_c, 2, 59, 0
4, 23855, Note_on_c, 2, 57, 80
4, 23863, Note_on_c, 2, 57, 0
4, 23871, Note_on_c, 2, 57, 80
4, 24022, Note_on_c, 2, 55, 80
4, 24023, Note_on_c, 2, 57, 0
4, 24053, Note_on_c, 2, 54, 80
4, 24054, Note_on_c, 2, 55, 0
4, 24081, Note_on_c, 2, 54, 0
4, 24081, Note_on_c, 2, 55, 80
4, 24095, Note_on_c, 2, 57, 80
4, 24096, Note_on_c, 2, 55, 0
4, 24117, Note_on_c, 2, 51, 80
4, 24120, Note_on_c, 2, 57, 0
4, 24245, Note_on_c, 2, 51, 0
4, 24821, Note_on_c, 2, 39, 86
4, 24867, Note_on_c, 2, 39, 0
4, 24870, Note_on_c, 2, 40, 79
4, 25175, Note_on_c, 2, 40, 0
4, 25179, Note_on_c, 2, 45, 76
4, 25804, Note_on_c, 2, 45, 0
4, 25804, End_track
5, 0, Start_track
5, 0, Title_t, "Pedal 16"
5, 0, MIDI_port, 0
5, 0, Control_c, 3, 10, 76
5, 0, Control_c, 3, 7, 84
5, 0, Program_c, 3, 43
5, 652, Note_on_c, 3, 37, 80
5, 709, Note_on_c, 3, 38, 80
5, 710, Note_on_c, 3, 37, 0
5, 766, Note_on_c, 3, 38, 0
5, 766, Note_on_c, 3, 40, 80
5, 828, Note_on_c, 3, 33, 80
5, 830, Note_on_c, 3, 40, 0
5, 863, Note_on_c, 3, 33, 0
5, 885, Note_on_c, 3, 45, 80
5, 946, Note_on_c, 3, 44, 80
5, 949, Note_on_c, 3, 45, 0
5, 1009, Note_on_c, 3, 42, 80
5, 1011, Note_on_c, 3, 44, 0
5, 1068, Note_on_c, 3, 42, 0
5, 1070, Note_on_c, 3, 40, 80
5, 1196, Note_on_c, 3, 42, 80
5, 1199, Note_on_c, 3, 40, 0
5, 1316, Note_on_c, 3, 44, 80
5, 1318, Note_on_c, 3, 42, 0
5, 1416, Note_on_c, 3, 44, 0
5, 1432, Note_on_c, 3, 45, 80
5, 1489, Note_on_c, 3, 47, 80
5, 1490, Note_on_c, 3, 45, 0
5, 1553, Note_on_c, 3, 49, 80
5, 1555, Note_on_c, 3, 47, 0
5, 1588, Note_on_c, 3, 49, 0
5, 1614, Note_on_c, 3, 32, 80
5, 1670, Note_on_c, 3, 32, 0
5, 1674, Note_on_c, 3, 33, 80
5, 1731, Note_on_c, 3, 33, 0
5, 1731, Note_on_c, 3, 35, 80
5, 1790, Note_on_c, 3, 28, 80
5, 1791, Note_on_c, 3, 35, 0
5, 1823, Note_on_c, 3, 28, 0
5, 1852, Note_on_c, 3, 40, 80
5, 1908, Note_on_c, 3, 38, 80
5, 1910, Note_on_c, 3, 40, 0
5, 1966, Note_on_c, 3, 38, 0
5, 1966, Note_on_c, 3, 37, 80
5, 2029, Note_on_c, 3, 35, 80
5, 2030, Note_on_c, 3, 37, 0
5, 2153, Note_on_c, 3, 35, 0
5, 2212, Note_on_c, 3, 35, 80
5, 2259, Note_on_c, 3, 35, 0
5, 2275, Note_on_c, 3, 30, 80
5, 2334, Note_on_c, 3, 30, 0
5, 2335, Note_on_c, 3, 32, 80
5, 2394, Note_on_c, 3, 32, 0
5, 2395, Note_on_c, 3, 33, 80
5, 2443, Note_on_c, 3, 33, 0
5, 2452, Note_on_c, 3, 35, 80
5, 2511, Note_on_c, 3, 35, 0
5, 2511, Note_on_c, 3, 37, 80
5, 2551, Note_on_c, 3, 37, 0
5, 2575, Note_on_c, 3, 42, 80
5, 2633, Note_on_c, 3, 38, 80
5, 2635, Note_on_c, 3, 42, 0
5, 2692, Note_on_c, 3, 38, 0
5, 2692, Note_on_c, 3, 35, 80
5, 2751, Note_on_c, 3, 32, 80
5, 2752, Note_on_c, 3, 35, 0
5, 2787, Note_on_c, 3, 32, 0
5, 2809, Note_on_c, 3, 40, 80
5, 2926, Note_on_c, 3, 38, 80
5, 2928, Note_on_c, 3, 40, 0
5, 2987, Note_on_c, 3, 37, 80
5, 2989, Note_on_c, 3, 38, 0
5, 3096, Note_on_c, 3, 37, 0
5, 3111, Note_on_c, 3, 35, 80
5, 3226, Note_on_c, 3, 37, 80
5, 3228, Note_on_c, 3, 35, 0
5, 3349, Note_on_c, 3, 37, 0
5, 3350, Note_on_c, 3, 38, 80
5, 3410, Note_on_c, 3, 40, 80
5, 3411, Note_on_c, 3, 38, 0
5, 3466, Note_on_c, 3, 42, 80
5, 3469, Note_on_c, 3, 40, 0
5, 3510, Note_on_c, 3, 42, 0
5, 3528, Note_on_c, 3, 37, 80
5, 3590, Note_on_c, 3, 38, 80
5, 3591, Note_on_c, 3, 37, 0
5, 3649, Note_on_c, 3, 40, 80
5, 3650, Note_on_c, 3, 38, 0
5, 3710, Note_on_c, 3, 33, 80
5, 3712, Note_on_c, 3, 40, 0
5, 4434, Note_on_c, 3, 33, 0
5, 4500, Note_on_c, 3, 42, 80
5, 4555, Note_on_c, 3, 38, 80
5, 4557, Note_on_c, 3, 42, 0
5, 4611, Note_on_c, 3, 38, 0
5, 4611, Note_on_c, 3, 35, 80
5, 4670, Note_on_c, 3, 32, 80
5, 4671, Note_on_c, 3, 35, 0
5, 4732, Note_on_c, 3, 37, 80
5, 4733, Note_on_c, 3, 32, 0
5, 4852, Note_on_c, 3, 35, 80
5, 4853, Note_on_c, 3, 37, 0
5, 4910, Note_on_c, 3, 33, 80
5, 4912, Note_on_c, 3, 35, 0
5, 4948, Note_on_c, 3, 33, 0
5, 4972, Note_on_c, 3, 45, 80
5, 5029, Note_on_c, 3, 45, 0
5, 5031, Note_on_c, 3, 44, 80
5, 5091, Note_on_c, 3, 44, 0
5, 5091, Note_on_c, 3, 42, 80
5, 5151, Note_on_c, 3, 42, 0
5, 5151, Note_on_c, 3, 41, 80
5, 5273, Note_on_c, 3, 42, 80
5, 5276, Note_on_c, 3, 41, 0
5, 5333, Note_on_c, 3, 44, 80
5, 5334, Note_on_c, 3, 42, 0
5, 5387, Note_on_c, 3, 44, 0
5, 5391, Note_on_c, 3, 45, 80
5, 5444, Note_on_c, 3, 45, 0
5, 5451, Note_on_c, 3, 47, 80
5, 5500, Note_on_c, 3, 47, 0
5, 5511, Note_on_c, 3, 49, 80
5, 5535, Note_on_c, 3, 49, 0
5, 5572, Note_on_c, 3, 37, 80
5, 5599, Note_on_c, 3, 37, 0
5, 5629, Note_on_c, 3, 30, 80
5, 5748, Note_on_c, 3, 30, 0
5, 5940, Note_on_c, 3, 42, 80
5, 5989, Note_on_c, 3, 42, 0
5, 5994, Note_on_c, 3, 38, 80
5, 6052, Note_on_c, 3, 38, 0
5, 6054, Note_on_c, 3, 35, 80
5, 6112, Note_on_c, 3, 32, 80
5, 6113, Note_on_c, 3, 35, 0
5, 6149, Note_on_c, 3, 32, 0
5, 6175, Note_on_c, 3, 40, 80
5, 6293, Note_on_c, 3, 38, 80
5, 6295, Note_on_c, 3, 40, 0
5, 6353, Note_on_c, 3, 38, 0
5, 6353, Note_on_c, 3, 37, 80
5, 6392, Note_on_c, 3, 37, 0
5, 6416, Note_on_c, 3, 45, 80
5, 6471, Note_on_c, 3, 45, 0
5, 6478, Note_on_c, 3, 42, 80
5, 6530, Note_on_c, 3, 42, 0
5, 6538, Note_on_c, 3, 38, 80
5, 6585, Note_on_c, 3, 38, 0
5, 6595, Note_on_c, 3, 35, 80
5, 6654, Note_on_c, 3, 37, 80
5, 6658, Note_on_c, 3, 35, 0
5, 6712, Note_on_c, 3, 37, 0
5, 6713, Note_on_c, 3, 38, 80
5, 6772, Note_on_c, 3, 40, 80
5, 6773, Note_on_c, 3, 38, 0
5, 6835, Note_on_c, 3, 42, 80
5, 6837, Note_on_c, 3, 40, 0
5, 6900, Note_on_c, 3, 42, 0
5, 6900, Note_on_c, 3, 43, 80
5, 6956, Note_on_c, 3, 42, 80
5, 6959, Note_on_c, 3, 43, 0
5, 7010, Note_on_c, 3, 40, 80
5, 7013, Note_on_c, 3, 42, 0
5, 7072, Note_on_c, 3, 40, 0
5, 7072, Note_on_c, 3, 38, 80
5, 7125, Note_on_c, 3, 38, 0
5, 7125, Note_on_c, 3, 40, 80
5, 7185, Note_on_c, 3, 42, 80
5, 7188, Note_on_c, 3, 40, 0
5, 7247, Note_on_c, 3, 38, 80
5, 7248, Note_on_c, 3, 42, 0
5, 7312, Note_on_c, 3, 45, 80
5, 7314, Note_on_c, 3, 38, 0
5, 7552, Note_on_c, 3, 45, 0
5, 7552, Note_on_c, 3, 33, 80
5, 7847, Note_on_c, 3, 33, 0
5, 8336, Note_on_c, 3, 37, 80
5, 8394, Note_on_c, 3, 38, 80
5, 8399, Note_on_c, 3, 37, 0
5, 8448, Note_on_c, 3, 38, 0
5, 8453, Note_on_c, 3, 40, 80
5, 8510, Note_on_c, 3, 33, 80
5, 8514, Note_on_c, 3, 40, 0
5, 8562, Note_on_c, 3, 33, 0
5, 8566, Note_on_c, 3, 45, 80
5, 8630, Note_on_c, 3, 44, 80
5, 8632, Note_on_c, 3, 45, 0
5, 8687, Note_on_c, 3, 42, 80
5, 8688, Note_on_c, 3, 44, 0
5, 8748, Note_on_c, 3, 42, 0
5, 8748, Note_on_c, 3, 40, 80
5, 8871, Note_on_c, 3, 42, 80
5, 8873, Note_on_c, 3, 40, 0
5, 8990, Note_on_c, 3, 44, 80
5, 8994, Note_on_c, 3, 42, 0
5, 9109, Note_on_c, 3, 44, 0
5, 9109, Note_on_c, 3, 45, 80
5, 9173, Note_on_c, 3, 45, 0
5, 9173, Note_on_c, 3, 47, 80
5, 9228, Note_on_c, 3, 49, 80
5, 9229, Note_on_c, 3, 47, 0
5, 9256, Note_on_c, 3, 49, 0
5, 9287, Note_on_c, 3, 32, 80
5, 9333, Note_on_c, 3, 32, 0
5, 9347, Note_on_c, 3, 33, 80
5, 9407, Note_on_c, 3, 35, 80
5, 9408, Note_on_c, 3, 33, 0
5, 9471, Note_on_c, 3, 28, 80
5, 9472, Note_on_c, 3, 35, 0
5, 9503, Note_on_c, 3, 28, 0
5, 9531, Note_on_c, 3, 40, 80
5, 9584, Note_on_c, 3, 40, 0
5, 9590, Note_on_c, 3, 38, 80
5, 9649, Note_on_c, 3, 37, 80
5, 9651, Note_on_c, 3, 38, 0
5, 9707, Note_on_c, 3, 37, 0
5, 9707, Note_on_c, 3, 35, 80
5, 9832, Note_on_c, 3, 35, 0
5, 9882, Note_on_c, 3, 35, 80
5, 9930, Note_on_c, 3, 35, 0
5, 9943, Note_on_c, 3, 30, 80
5, 10004, Note_on_c, 3, 30, 0
5, 10005, Note_on_c, 3, 32, 80
5, 10065, Note_on_c, 3, 32, 0
5, 10065, Note_on_c, 3, 33, 80
5, 10130, Note_on_c, 3, 35, 80
5, 10131, Note_on_c, 3, 33, 0
5, 10190, Note_on_c, 3, 37, 80
5, 10192, Note_on_c, 3, 35, 0
5, 10242, Note_on_c, 3, 37, 0
5, 10254, Note_on_c, 3, 42, 80
5, 10313, Note_on_c, 3, 38, 80
5, 10316, Note_on_c, 3, 42, 0
5, 10369, Note_on_c, 3, 38, 0
5, 10374, Note_on_c, 3, 35, 80
5, 10434, Note_on_c, 3, 32, 80
5, 10437, Note_on_c, 3, 35, 0
5, 10472, Note_on_c, 3, 32, 0
5, 10491, Note_on_c, 3, 40, 80
5, 10609, Note_on_c, 3, 38, 80
5, 10612, Note_on_c, 3, 40, 0
5, 10667, Note_on_c, 3, 37, 80
5, 10671, Note_on_c, 3, 38, 0
5, 10786, Note_on_c, 3, 35, 80
5, 10788, Note_on_c, 3, 37, 0
5, 10904, Note_on_c, 3, 37, 80
5, 10907, Note_on_c, 3, 35, 0
5, 11026, Note_on_c, 3, 37, 0
5, 11028, Note_on_c, 3, 38, 80
5, 11085, Note_on_c, 3, 38, 0
5, 11086, Note_on_c, 3, 40, 80
5, 11144, Note_on_c, 3, 42, 80
5, 11147, Note_on_c, 3, 40, 0
5, 11180, Note_on_c, 3, 42, 0
5, 11205, Note_on_c, 3, 37, 80
5, 11268, Note_on_c, 3, 38, 80
5, 11269, Note_on_c, 3, 37, 0
5, 11325, Note_on_c, 3, 40, 80
5, 11328, Note_on_c, 3, 38, 0
5, 11381, Note_on_c, 3, 33, 80
5, 11383, Note_on_c, 3, 40, 0
5, 12151, Note_on_c, 3, 33, 0
5, 12178, Note_on_c, 3, 42, 80
5, 12234, Note_on_c, 3, 38, 80
5, 12237, Note_on_c, 3, 42, 0
5, 12293, Note_on_c, 3, 35, 80
5, 12295, Note_on_c, 3, 38, 0
5, 12348, Note_on_c, 3, 32, 80
5, 12350, Note_on_c, 3, 35, 0
5, 12413, Note_on_c, 3, 37, 80
5, 12415, Note_on_c, 3, 32, 0
5, 12530, Note_on_c, 3, 37, 0
5, 12530, Note_on_c, 3, 35, 80
5, 12595, Note_on_c, 3, 33, 80
5, 12597, Note_on_c, 3, 35, 0
5, 12633, Note_on_c, 3, 33, 0
5, 12653, Note_on_c, 3, 45, 80
5, 12699, Note_on_c, 3, 45, 0
5, 12707, Note_on_c, 3, 44, 80
5, 12770, Note_on_c, 3, 42, 80
5, 12772, Note_on_c, 3, 44, 0
5, 12831, Note_on_c, 3, 41, 80
5, 12835, Note_on_c, 3, 42, 0
5, 12952, Note_on_c, 3, 42, 80
5, 12955, Note_on_c, 3, 41, 0
5, 13014, Note_on_c, 3, 42, 0
5, 13014, Note_on_c, 3, 44, 80
5, 13071, Note_on_c, 3, 44, 0
5, 13072, Note_on_c, 3, 45, 80
5, 13130, Note_on_c, 3, 45, 0
5, 13131, Note_on_c, 3, 47, 80
5, 13192, Note_on_c, 3, 47, 0
5, 13192, Note_on_c, 3, 49, 80
5, 13227, Note_on_c, 3, 49, 0
5, 13250, Note_on_c, 3, 37, 80
5, 13282, Note_on_c, 3, 37, 0
5, 13309, Note_on_c, 3, 30, 80
5, 13425, Note_on_c, 3, 30, 0
5, 13615, Note_on_c, 3, 42, 80
5, 13666, Note_on_c, 3, 38, 80
5, 13668, Note_on_c, 3, 42, 0
5, 13723, Note_on_c, 3, 35, 80
5, 13724, Note_on_c, 3, 38, 0
5, 13769, Note_on_c, 3, 35, 0
5, 13785, Note_on_c, 3, 32, 80
5, 13826, Note_on_c, 3, 32, 0
5, 13849, Note_on_c, 3, 40, 80
5, 13969, Note_on_c, 3, 38, 80
5, 13972, Note_on_c, 3, 40, 0
5, 14033, Note_on_c, 3, 38, 0
5, 14033, Note_on_c, 3, 37, 80
5, 14072, Note_on_c, 3, 37, 0
5, 14096, Note_on_c, 3, 45, 80
5, 14149, Note_on_c, 3, 45, 0
5, 14154, Note_on_c, 3, 42, 80
5, 14204, Note_on_c, 3, 42, 0
5, 14215, Note_on_c, 3, 38, 80
5, 14264, Note_on_c, 3, 38, 0
5, 14273, Note_on_c, 3, 35, 80
5, 14333, Note_on_c, 3, 37, 80
5, 14336, Note_on_c, 3, 35, 0
5, 14391, Note_on_c, 3, 38, 80
5, 14392, Note_on_c, 3, 37, 0
5, 14454, Note_on_c, 3, 40, 80
5, 14456, Note_on_c, 3, 38, 0
5, 14514, Note_on_c, 3, 42, 80
5, 14517, Note_on_c, 3, 40, 0
5, 14575, Note_on_c, 3, 43, 80
5, 14576, Note_on_c, 3, 42, 0
5, 14636, Note_on_c, 3, 42, 80
5, 14639, Note_on_c, 3, 43, 0
5, 14692, Note_on_c, 3, 42, 0
5, 14693, Note_on_c, 3, 40, 80
5, 14744, Note_on_c, 3, 40, 0
5, 14748, Note_on_c, 3, 38, 80
5, 14807, Note_on_c, 3, 40, 80
5, 14810, Note_on_c, 3, 38, 0
5, 14868, Note_on_c, 3, 42, 80
5, 14871, Note_on_c, 3, 40, 0
5, 14915, Note_on_c, 3, 42, 0
5, 14927, Note_on_c, 3, 38, 80
5, 14969, Note_on_c, 3, 38, 0
5, 14989, Note_on_c, 3, 45, 80
5, 15236, Note_on_c, 3, 33, 80
5, 15237, Note_on_c, 3, 45, 0
5, 15539, Note_on_c, 3, 33, 0
5, 15595, Note_on_c, 3, 33, 80
5, 15720, Note_on_c, 3, 35, 80
5, 15722, Note_on_c, 3, 33, 0
5, 15835, Note_on_c, 3, 37, 80
5, 15838, Note_on_c, 3, 35, 0
5, 15951, Note_on_c, 3, 37, 0
5, 15951, Note_on_c, 3, 38, 80
5, 16071, Note_on_c, 3, 37, 80
5, 16074, Note_on_c, 3, 38, 0
5, 16190, Note_on_c, 3, 35, 80
5, 16191, Note_on_c, 3, 37, 0
5, 16312, Note_on_c, 3, 34, 80
5, 16315, Note_on_c, 3, 35, 0
5, 16429, Note_on_c, 3, 34, 0
5, 16429, Note_on_c, 3, 35, 80
5, 16464, Note_on_c, 3, 35, 0
5, 16491, Note_on_c, 3, 35, 80
5, 16553, Note_on_c, 3, 37, 80
5, 16555, Note_on_c, 3, 35, 0
5, 16614, Note_on_c, 3, 39, 80
5, 16615, Note_on_c, 3, 37, 0
5, 16678, Note_on_c, 3, 40, 80
5, 16680, Note_on_c, 3, 39, 0
5, 16707, Note_on_c, 3, 40, 0
5, 16734, Note_on_c, 3, 28, 80
5, 16781, Note_on_c, 3, 28, 0
5, 16796, Note_on_c, 3, 30, 80
5, 16855, Note_on_c, 3, 30, 0
5, 16855, Note_on_c, 3, 32, 80
5, 16913, Note_on_c, 3, 33, 80
5, 16914, Note_on_c, 3, 32, 0
5, 16950, Note_on_c, 3, 33, 0
5, 16979, Note_on_c, 3, 38, 80
5, 17016, Note_on_c, 3, 38, 0
5, 17037, Note_on_c, 3, 35, 80
5, 17077, Note_on_c, 3, 35, 0
5, 17093, Note_on_c, 3, 32, 80
5, 17141, Note_on_c, 3, 32, 0
5, 17153, Note_on_c, 3, 28, 80
5, 17185, Note_on_c, 3, 28, 0
5, 17209, Note_on_c, 3, 37, 80
5, 17326, Note_on_c, 3, 35, 80
5, 17327, Note_on_c, 3, 37, 0
5, 17386, Note_on_c, 3, 33, 80
5, 17387, Note_on_c, 3, 35, 0
5, 17507, Note_on_c, 3, 32, 80
5, 17510, Note_on_c, 3, 33, 0
5, 17602, Note_on_c, 3, 32, 0
5, 17635, Note_on_c, 3, 33, 80
5, 17750, Note_on_c, 3, 33, 0
5, 17751, Note_on_c, 3, 35, 80
5, 17811, Note_on_c, 3, 37, 80
5, 17812, Note_on_c, 3, 35, 0
5, 17875, Note_on_c, 3, 37, 0
5, 17875, Note_on_c, 3, 38, 80
5, 17918, Note_on_c, 3, 38, 0
5, 17936, Note_on_c, 3, 30, 80
5, 17999, Note_on_c, 3, 30, 0
5, 17999, Note_on_c, 3, 32, 80
5, 18057, Note_on_c, 3, 34, 80
5, 18059, Note_on_c, 3, 32, 0
5, 18116, Note_on_c, 3, 34, 0
5, 18116, Note_on_c, 3, 35, 80
5, 18173, Note_on_c, 3, 35, 0
5, 18174, Note_on_c, 3, 38, 80
5, 18234, Note_on_c, 3, 40, 80
5, 18235, Note_on_c, 3, 38, 0
5, 18321, Note_on_c, 3, 40, 0
5, 18321, Note_on_c, 3, 42, 80
5, 18351, Note_on_c, 3, 43, 80
5, 18352, Note_on_c, 3, 42, 0
5, 18412, Note_on_c, 3, 38, 80
5, 18413, Note_on_c, 3, 43, 0
5, 18440, Note_on_c, 3, 40, 80
5, 18442, Note_on_c, 3, 38, 0
5, 18472, Note_on_c, 3, 40, 0
5, 18472, Note_on_c, 3, 42, 80
5, 18504, Note_on_c, 3, 42, 0
5, 18534, Note_on_c, 3, 30, 80
5, 18567, Note_on_c, 3, 30, 0
5, 18596, Note_on_c, 3, 35, 80
5, 18867, Note_on_c, 3, 35, 0
5, 18898, Note_on_c, 3, 47, 80
5, 18948, Note_on_c, 3, 47, 0
5, 18953, Note_on_c, 3, 43, 80
5, 19010, Note_on_c, 3, 40, 80
5, 19012, Note_on_c, 3, 43, 0
5, 19067, Note_on_c, 3, 37, 80
5, 19069, Note_on_c, 3, 40, 0
5, 19106, Note_on_c, 3, 37, 0
5, 19128, Note_on_c, 3, 45, 80
5, 19252, Note_on_c, 3, 43, 80
5, 19253, Note_on_c, 3, 45, 0
5, 19310, Note_on_c, 3, 43, 0
5, 19310, Note_on_c, 3, 42, 80
5, 19366, Note_on_c, 3, 38, 80
5, 19367, Note_on_c, 3, 42, 0
5, 19415, Note_on_c, 3, 38, 0
5, 19427, Note_on_c, 3, 35, 80
5, 19472, Note_on_c, 3, 35, 0
5, 19487, Note_on_c, 3, 38, 80
5, 19549, Note_on_c, 3, 38, 0
5, 19549, Note_on_c, 3, 40, 80
5, 19584, Note_on_c, 3, 40, 0
5, 19611, Note_on_c, 3, 28, 80
5, 19663, Note_on_c, 3, 28, 0
5, 19671, Note_on_c, 3, 30, 80
5, 19732, Note_on_c, 3, 32, 80
5, 19734, Note_on_c, 3, 30, 0
5, 19790, Note_on_c, 3, 33, 80
5, 19791, Note_on_c, 3, 32, 0
5, 19892, Note_on_c, 3, 33, 0
5, 19915, Note_on_c, 3, 35, 80
5, 19977, Note_on_c, 3, 47, 80
5, 19979, Note_on_c, 3, 35, 0
5, 20033, Note_on_c, 3, 44, 80
5, 20035, Note_on_c, 3, 47, 0
5, 20087, Note_on_c, 3, 40, 80
5, 20088, Note_on_c, 3, 44, 0
5, 20148, Note_on_c, 3, 42, 80
5, 20151, Note_on_c, 3, 40, 0
5, 20209, Note_on_c, 3, 42, 0
5, 20209, Note_on_c, 3, 44, 80
5, 20273, Note_on_c, 3, 44, 0
5, 20273, Note_on_c, 3, 45, 80
5, 20317, Note_on_c, 3, 45, 0
5, 20335, Note_on_c, 3, 42, 80
5, 20392, Note_on_c, 3, 42, 0
5, 20393, Note_on_c, 3, 38, 80
5, 20440, Note_on_c, 3, 38, 0
5, 20452, Note_on_c, 3, 35, 80
5, 20510, Note_on_c, 3, 35, 0
5, 20512, Note_on_c, 3, 29, 80
5, 20550, Note_on_c, 3, 29, 0
5, 20573, Note_on_c, 3, 37, 80
5, 20690, Note_on_c, 3, 37, 0
5, 20691, Note_on_c, 3, 35, 80
5, 20734, Note_on_c, 3, 35, 0
5, 20753, Note_on_c, 3, 33, 80
5, 20813, Note_on_c, 3, 35, 80
5, 20814, Note_on_c, 3, 33, 0
5, 20872, Note_on_c, 3, 37, 80
5, 20874, Note_on_c, 3, 35, 0
5, 20990, Note_on_c, 3, 30, 80
5, 20991, Note_on_c, 3, 37, 0
5, 21025, Note_on_c, 3, 30, 0
5, 21054, Note_on_c, 3, 42, 80
5, 21172, Note_on_c, 3, 40, 80
5, 21174, Note_on_c, 3, 42, 0
5, 21231, Note_on_c, 3, 38, 80
5, 21233, Note_on_c, 3, 40, 0
5, 21353, Note_on_c, 3, 37, 80
5, 21356, Note_on_c, 3, 38, 0
5, 21503, Note_on_c, 3, 37, 0
5, 21529, Note_on_c, 3, 35, 80
5, 21584, Note_on_c, 3, 37, 80
5, 21587, Note_on_c, 3, 35, 0
5, 21644, Note_on_c, 3, 37, 0
5, 21645, Note_on_c, 3, 39, 80
5, 21704, Note_on_c, 3, 40, 80
5, 21705, Note_on_c, 3, 39, 0
5, 21724, Note_on_c, 3, 40, 0
5, 21736, Note_on_c, 3, 35, 80
5, 21748, Note_on_c, 3, 35, 0
5, 21773, Note_on_c, 3, 40, 80
5, 21891, Note_on_c, 3, 38, 80
5, 21894, Note_on_c, 3, 40, 0
5, 21945, Note_on_c, 3, 38, 0
5, 21952, Note_on_c, 3, 37, 80
5, 21994, Note_on_c, 3, 37, 0
5, 22014, Note_on_c, 3, 40, 80
5, 22063, Note_on_c, 3, 40, 0
5, 22073, Note_on_c, 3, 37, 80
5, 22119, Note_on_c, 3, 37, 0
5, 22133, Note_on_c, 3, 33, 80
5, 22179, Note_on_c, 3, 33, 0
5, 22193, Note_on_c, 3, 28, 80
5, 22293, Note_on_c, 3, 28, 0
5, 22312, Note_on_c, 3, 33, 80
5, 22376, Note_on_c, 3, 31, 80
5, 22377, Note_on_c, 3, 33, 0
5, 22433, Note_on_c, 3, 30, 80
5, 22434, Note_on_c, 3, 31, 0
5, 22491, Note_on_c, 3, 30, 0
5, 22493, Note_on_c, 3, 33, 80
5, 22551, Note_on_c, 3, 32, 80
5, 22553, Note_on_c, 3, 33, 0
5, 22675, Note_on_c, 3, 30, 80
5, 22676, Note_on_c, 3, 32, 0
5, 22712, Note_on_c, 3, 30, 0
5, 22735, Note_on_c, 3, 42, 80
5, 22785, Note_on_c, 3, 42, 0
5, 22793, Note_on_c, 3, 38, 80
5, 22837, Note_on_c, 3, 38, 0
5, 22850, Note_on_c, 3, 35, 80
5, 22905, Note_on_c, 3, 35, 0
5, 22907, Note_on_c, 3, 28, 80
5, 22969, Note_on_c, 3, 40, 80
5, 22971, Note_on_c, 3, 28, 0
5, 23092, Note_on_c, 3, 38, 80
5, 23095, Note_on_c, 3, 40, 0
5, 23149, Note_on_c, 3, 37, 80
5, 23152, Note_on_c, 3, 38, 0
5, 23201, Note_on_c, 3, 37, 0
5, 23211, Note_on_c, 3, 33, 80
5, 23267, Note_on_c, 3, 38, 80
5, 23270, Note_on_c, 3, 33, 0
5, 23329, Note_on_c, 3, 40, 80
5, 23330, Note_on_c, 3, 38, 0
5, 23389, Note_on_c, 3, 42, 80
5, 23391, Note_on_c, 3, 40, 0
5, 23451, Note_on_c, 3, 42, 0
5, 23451, Note_on_c, 3, 40, 80
5, 23509, Note_on_c, 3, 38, 80
5, 23512, Note_on_c, 3, 40, 0
5, 23568, Note_on_c, 3, 38, 0
5, 23568, Note_on_c, 3, 40, 80
5, 23634, Note_on_c, 3, 42, 80
5, 23636, Note_on_c, 3, 40, 0
5, 23691, Note_on_c, 3, 42, 0
5, 23691, Note_on_c, 3, 40, 80
5, 23749, Note_on_c, 3, 42, 80
5, 23754, Note_on_c, 3, 40, 0
5, 23780, Note_on_c, 3, 42, 0
5, 23781, Note_on_c, 3, 45, 80
5, 23811, Note_on_c, 3, 44, 80
5, 23813, Note_on_c, 3, 45, 0
5, 23838, Note_on_c, 3, 44, 0
5, 23839, Note_on_c, 3, 47, 80
5, 23853, Note_on_c, 3, 47, 0
5, 23855, Note_on_c, 3, 45, 80
5, 23863, Note_on_c, 3, 45, 0
5, 23871, Note_on_c, 3, 45, 80
5, 24022, Note_on_c, 3, 43, 80
5, 24023, Note_on_c, 3, 45, 0
5, 24053, Note_on_c, 3, 42, 80
5, 24054, Note_on_c, 3, 43, 0
5, 24081, Note_on_c, 3, 42, 0
5, 24081, Note_on_c, 3, 43, 80
5, 24095, Note_on_c, 3, 45, 80
5, 24096, Note_on_c, 3, 43, 0
5, 24117, Note_on_c, 3, 39, 80
5, 24120, Note_on_c, 3, 45, 0
5, 24245, Note_on_c, 3, 39, 0
5, 24821, Note_on_c, 3, 27, 86
5, 24867, Note_on_c, 3, 27, 0
5, 24870, Note_on_c, 3, 28, 79
5, 25175, Note_on_c, 3, 28, 0
5, 25179, Note_on_c, 3, 33, 76
5, 25804, Note_on_c, 3, 33, 0
5, 25804, End_track
6, 0, Start_track
6, 0, MIDI_port, 0
6, 0, End_track
7, 0, Start_track
7, 0, Title_t, "Allein Gott in der Hoeh sei Ehr"
7, 0, MIDI_port, 0
7, 0, End_track
8, 0, Start_track
8, 0, Title_t, "(C.F. in Sprano)"
8, 0, MIDI_port, 0
8, 0, End_track
9, 0, Start_track
9, 0, Title_t, "by J S Bach (BWV 662)"
9, 0, MIDI_port, 0
9, 0, End_track
10, 0, Start_track
10, 0, MIDI_port, 0
10, 0, End_track
11, 0, Start_track
11, 0, Title_t, "Sequenced using WinJammer Professional"
11, 0, MIDI_port, 0
11, 0, End_track
12, 0, Start_track
12, 0, Title_t, "on Windows NT by Martin Robinson."
12, 0, MIDI_port, 0
12, 0, End_track
13, 0, Start_track
13, 0, Title_t, "(c) Martin Robinson 1997"
13, 0, MIDI_port, 0
13, 0, End_track
0, 0, End_of_file
