0, 0, Header, 1, 13, 768
1, 0, Start_track
1, 0, Sequencer_specific, 10, 0, 0, 91, 35, 1, 0, 5, 4, 35, 0
1, 0, Instrument_name_t, "Conductor Track"
1, 0, SMPTE_offset, 96, 0, 3, 0, 0
1, 0, MIDI_port, 0
1, 0, Tempo, 666666
1, 0, Time_signature, 4, 2, 24, 8
1, 293376, Tempo, 705882
1, 294154, Tempo, 750000
1, 294912, Tempo, 967741
1, 295680, Tempo, 1224489
1, 295680, End_track
2, 0, Start_track
2, 0, Title_t, "RH"
2, 0, MIDI_port, 0
2, 0, Control_c, 1, 7, 106
2, 0, Control_c, 1, 93, 0
2, 0, Control_c, 1, 91, 127
2, 0, Control_c, 1, 10, 34
2, 0, Program_c, 1, 24
2, 2643, Note_on_c, 1, 69, 80
2, 2809, Note_on_c, 1, 71, 80
2, 2841, Note_on_c, 1, 69, 0
2, 2937, Note_on_c, 1, 71, 0
2, 3027, Note_on_c, 1, 73, 80
2, 3167, Note_on_c, 1, 73, 0
2, 3187, Note_on_c, 1, 71, 80
2, 3366, Note_on_c, 1, 69, 80
2, 3379, Note_on_c, 1, 71, 0
2, 3513, Note_on_c, 1, 69, 0
2, 3532, Note_on_c, 1, 73, 80
2, 3712, Note_on_c, 1, 74, 80
2, 3717, Note_on_c, 1, 73, 0
2, 3910, Note_on_c, 1, 73, 80
2, 3942, Note_on_c, 1, 74, 0
2, 4102, Note_on_c, 1, 73, 0
2, 4102, Note_on_c, 1, 71, 80
2, 4288, Note_on_c, 1, 69, 80
2, 4306, Note_on_c, 1, 71, 0
2, 4505, Note_on_c, 1, 69, 0
2, 4505, Note_on_c, 1, 76, 80
2, 4748, Note_on_c, 1, 74, 80
2, 4773, Note_on_c, 1, 76, 0
2, 4920, Note_on_c, 1, 74, 0
2, 4921, Note_on_c, 1, 73, 80
2, 5087, Note_on_c, 1, 73, 0
2, 5100, Note_on_c, 1, 74, 80
2, 5196, Note_on_c, 1, 74, 0
2, 5305, Note_on_c, 1, 76, 80
2, 5356, Note_on_c, 1, 74, 80
2, 5381, Note_on_c, 1, 76, 0
2, 5420, Note_on_c, 1, 76, 80
2, 5426, Note_on_c, 1, 74, 0
2, 6438, Note_on_c, 1, 74, 80
2, 6463, Note_on_c, 1, 76, 0
2, 6662, Note_on_c, 1, 74, 0
2, 6822, Note_on_c, 1, 74, 80
2, 6860, Note_on_c, 1, 74, 0
2, 6867, Note_on_c, 1, 73, 80
2, 6924, Note_on_c, 1, 74, 80
2, 6937, Note_on_c, 1, 73, 0
2, 7666, Note_on_c, 1, 74, 0
2, 7814, Note_on_c, 1, 76, 80
2, 7993, Note_on_c, 1, 74, 80
2, 8006, Note_on_c, 1, 76, 0
2, 8146, Note_on_c, 1, 74, 0
2, 8160, Note_on_c, 1, 71, 80
2, 8352, Note_on_c, 1, 73, 80
2, 8371, Note_on_c, 1, 71, 0
2, 8531, Note_on_c, 1, 74, 80
2, 8550, Note_on_c, 1, 73, 0
2, 8729, Note_on_c, 1, 73, 80
2, 8761, Note_on_c, 1, 74, 0
2, 8921, Note_on_c, 1, 73, 0
2, 8921, Note_on_c, 1, 69, 80
2, 9120, Note_on_c, 1, 71, 80
2, 9125, Note_on_c, 1, 69, 0
2, 9318, Note_on_c, 1, 73, 80
2, 9331, Note_on_c, 1, 71, 0
2, 9503, Note_on_c, 1, 73, 0
2, 9516, Note_on_c, 1, 74, 80
2, 9689, Note_on_c, 1, 76, 80
2, 9708, Note_on_c, 1, 74, 0
2, 9888, Note_on_c, 1, 78, 80
2, 9932, Note_on_c, 1, 76, 0
2, 10092, Note_on_c, 1, 78, 0
2, 10092, Note_on_c, 1, 76, 80
2, 10284, Note_on_c, 1, 74, 80
2, 10290, Note_on_c, 1, 76, 0
2, 10483, Note_on_c, 1, 76, 80
2, 10501, Note_on_c, 1, 74, 0
2, 10636, Note_on_c, 1, 76, 0
2, 10688, Note_on_c, 1, 73, 80
2, 10880, Note_on_c, 1, 71, 80
2, 10886, Note_on_c, 1, 73, 0
2, 11072, Note_on_c, 1, 69, 80
2, 11084, Note_on_c, 1, 71, 0
2, 11244, Note_on_c, 1, 69, 0
2, 11257, Note_on_c, 1, 71, 80
2, 11378, Note_on_c, 1, 71, 0
2, 11456, Note_on_c, 1, 73, 80
2, 11648, Note_on_c, 1, 73, 0
2, 11648, Note_on_c, 1, 75, 80
2, 11852, Note_on_c, 1, 76, 80
2, 11872, Note_on_c, 1, 75, 0
2, 11980, Note_on_c, 1, 76, 0
2, 12038, Note_on_c, 1, 75, 80
2, 12140, Note_on_c, 1, 75, 0
2, 12243, Note_on_c, 1, 76, 80
2, 13004, Note_on_c, 1, 76, 0
2, 14886, Note_on_c, 1, 71, 80
2, 15052, Note_on_c, 1, 71, 0
2, 15251, Note_on_c, 1, 73, 80
2, 15449, Note_on_c, 1, 71, 80
2, 15462, Note_on_c, 1, 73, 0
2, 15596, Note_on_c, 1, 71, 0
2, 15628, Note_on_c, 1, 73, 80
2, 15736, Note_on_c, 1, 73, 0
2, 15827, Note_on_c, 1, 76, 80
2, 15897, Note_on_c, 1, 76, 0
2, 16006, Note_on_c, 1, 75, 80
2, 16198, Note_on_c, 1, 75, 0
2, 16217, Note_on_c, 1, 73, 80
2, 16389, Note_on_c, 1, 73, 0
2, 16390, Note_on_c, 1, 75, 80
2, 16576, Note_on_c, 1, 78, 80
2, 16594, Note_on_c, 1, 75, 0
2, 16697, Note_on_c, 1, 78, 0
2, 16819, Note_on_c, 1, 76, 80
2, 16863, Note_on_c, 1, 76, 0
2, 16864, Note_on_c, 1, 75, 80
2, 16928, Note_on_c, 1, 76, 80
2, 16940, Note_on_c, 1, 75, 0
2, 19020, Note_on_c, 1, 76, 0
2, 19097, Note_on_c, 1, 76, 80
2, 19193, Note_on_c, 1, 76, 0
2, 19193, Note_on_c, 1, 75, 80
2, 19276, Note_on_c, 1, 75, 0
2, 19283, Note_on_c, 1, 76, 80
2, 19353, Note_on_c, 1, 76, 0
2, 19360, Note_on_c, 1, 75, 80
2, 19392, Note_on_c, 1, 76, 80
2, 19398, Note_on_c, 1, 75, 0
2, 19449, Note_on_c, 1, 76, 0
2, 19456, Note_on_c, 1, 75, 80
2, 19507, Note_on_c, 1, 76, 80
2, 19539, Note_on_c, 1, 76, 0
2, 19891, Note_on_c, 1, 76, 80
2, 19910, Note_on_c, 1, 75, 0
2, 20729, Note_on_c, 1, 76, 0
2, 21062, Note_on_c, 1, 76, 80
2, 21215, Note_on_c, 1, 76, 0
2, 21459, Note_on_c, 1, 74, 80
2, 21619, Note_on_c, 1, 74, 0
2, 21632, Note_on_c, 1, 73, 80
2, 21811, Note_on_c, 1, 74, 80
2, 21817, Note_on_c, 1, 73, 0
2, 21990, Note_on_c, 1, 74, 0
2, 21996, Note_on_c, 1, 78, 80
2, 22124, Note_on_c, 1, 78, 0
2, 22214, Note_on_c, 1, 76, 80
2, 22412, Note_on_c, 1, 74, 80
2, 22425, Note_on_c, 1, 76, 0
2, 22572, Note_on_c, 1, 74, 0
2, 22585, Note_on_c, 1, 76, 80
2, 22752, Note_on_c, 1, 79, 80
2, 22757, Note_on_c, 1, 76, 0
2, 22828, Note_on_c, 1, 79, 0
2, 22963, Note_on_c, 1, 78, 80
2, 23711, Note_on_c, 1, 78, 0
2, 24096, Note_on_c, 1, 78, 80
2, 24204, Note_on_c, 1, 78, 0
2, 24480, Note_on_c, 1, 76, 80
2, 24672, Note_on_c, 1, 74, 80
2, 24678, Note_on_c, 1, 76, 0
2, 24864, Note_on_c, 1, 74, 0
2, 24870, Note_on_c, 1, 76, 80
2, 25062, Note_on_c, 1, 80, 80
2, 25074, Note_on_c, 1, 76, 0
2, 25145, Note_on_c, 1, 80, 0
2, 25254, Note_on_c, 1, 78, 80
2, 25446, Note_on_c, 1, 76, 80
2, 25452, Note_on_c, 1, 78, 0
2, 25638, Note_on_c, 1, 78, 80
2, 25670, Note_on_c, 1, 76, 0
2, 25791, Note_on_c, 1, 78, 0
2, 25824, Note_on_c, 1, 81, 80
2, 25907, Note_on_c, 1, 81, 0
2, 26022, Note_on_c, 1, 80, 80
2, 26367, Note_on_c, 1, 80, 0
2, 26393, Note_on_c, 1, 76, 80
2, 26771, Note_on_c, 1, 81, 80
2, 26783, Note_on_c, 1, 76, 0
2, 27148, Note_on_c, 1, 81, 0
2, 27161, Note_on_c, 1, 73, 80
2, 27289, Note_on_c, 1, 73, 0
2, 27571, Note_on_c, 1, 71, 80
2, 27942, Note_on_c, 1, 71, 0
2, 27948, Note_on_c, 1, 81, 80
2, 28364, Note_on_c, 1, 81, 0
2, 28364, Note_on_c, 1, 76, 80
2, 28684, Note_on_c, 1, 76, 0
2, 28716, Note_on_c, 1, 80, 80
2, 28888, Note_on_c, 1, 80, 0
2, 29139, Note_on_c, 1, 81, 80
2, 29619, Note_on_c, 1, 81, 0
2, 30131, Note_on_c, 1, 71, 80
2, 30323, Note_on_c, 1, 73, 80
2, 30329, Note_on_c, 1, 71, 0
2, 30489, Note_on_c, 1, 74, 80
2, 30495, Note_on_c, 1, 73, 0
2, 30668, Note_on_c, 1, 74, 0
2, 30681, Note_on_c, 1, 76, 80
2, 30873, Note_on_c, 1, 74, 80
2, 30879, Note_on_c, 1, 76, 0
2, 31052, Note_on_c, 1, 76, 80
2, 31065, Note_on_c, 1, 74, 0
2, 31238, Note_on_c, 1, 79, 80
2, 31244, Note_on_c, 1, 76, 0
2, 31321, Note_on_c, 1, 79, 0
2, 31424, Note_on_c, 1, 78, 80
2, 31609, Note_on_c, 1, 78, 0
2, 31609, Note_on_c, 1, 76, 80
2, 31814, Note_on_c, 1, 74, 80
2, 31826, Note_on_c, 1, 76, 0
2, 31993, Note_on_c, 1, 74, 0
2, 32000, Note_on_c, 1, 73, 80
2, 32179, Note_on_c, 1, 73, 0
2, 32192, Note_on_c, 1, 71, 80
2, 32384, Note_on_c, 1, 69, 80
2, 32390, Note_on_c, 1, 71, 0
2, 32576, Note_on_c, 1, 69, 0
2, 32582, Note_on_c, 1, 68, 80
2, 32678, Note_on_c, 1, 68, 0
2, 32761, Note_on_c, 1, 66, 80
2, 32825, Note_on_c, 1, 66, 0
2, 32953, Note_on_c, 1, 64, 80
2, 33152, Note_on_c, 1, 62, 80
2, 33164, Note_on_c, 1, 64, 0
2, 33318, Note_on_c, 1, 64, 80
2, 33324, Note_on_c, 1, 62, 0
2, 33510, Note_on_c, 1, 68, 80
2, 33522, Note_on_c, 1, 64, 0
2, 33580, Note_on_c, 1, 68, 0
2, 33702, Note_on_c, 1, 66, 80
2, 33888, Note_on_c, 1, 64, 80
2, 33900, Note_on_c, 1, 66, 0
2, 34080, Note_on_c, 1, 66, 80
2, 34099, Note_on_c, 1, 64, 0
2, 34259, Note_on_c, 1, 69, 80
2, 34272, Note_on_c, 1, 66, 0
2, 34342, Note_on_c, 1, 69, 0
2, 34451, Note_on_c, 1, 68, 80
2, 34630, Note_on_c, 1, 68, 0
2, 34630, Note_on_c, 1, 66, 80
2, 34892, Note_on_c, 1, 66, 0
2, 34899, Note_on_c, 1, 68, 80
2, 35059, Note_on_c, 1, 68, 0
2, 35078, Note_on_c, 1, 71, 80
2, 35251, Note_on_c, 1, 69, 80
2, 35257, Note_on_c, 1, 71, 0
2, 35443, Note_on_c, 1, 71, 80
2, 35449, Note_on_c, 1, 69, 0
2, 35616, Note_on_c, 1, 69, 80
2, 35622, Note_on_c, 1, 71, 0
2, 35801, Note_on_c, 1, 66, 80
2, 35814, Note_on_c, 1, 69, 0
2, 35948, Note_on_c, 1, 66, 0
2, 36000, Note_on_c, 1, 67, 80
2, 36179, Note_on_c, 1, 67, 0
2, 36179, Note_on_c, 1, 69, 80
2, 36377, Note_on_c, 1, 67, 80
2, 36409, Note_on_c, 1, 69, 0
2, 36556, Note_on_c, 1, 67, 0
2, 36556, Note_on_c, 1, 64, 80
2, 36761, Note_on_c, 1, 66, 80
2, 36780, Note_on_c, 1, 64, 0
2, 36953, Note_on_c, 1, 66, 0
2, 36953, Note_on_c, 1, 64, 80
2, 37145, Note_on_c, 1, 62, 80
2, 37157, Note_on_c, 1, 64, 0
2, 37279, Note_on_c, 1, 62, 0
2, 37344, Note_on_c, 1, 61, 80
2, 37523, Note_on_c, 1, 61, 0
2, 37536, Note_on_c, 1, 59, 80
2, 37740, Note_on_c, 1, 61, 80
2, 37753, Note_on_c, 1, 59, 0
2, 37939, Note_on_c, 1, 62, 80
2, 37944, Note_on_c, 1, 61, 0
2, 38118, Note_on_c, 1, 62, 0
2, 38124, Note_on_c, 1, 64, 80
2, 38226, Note_on_c, 1, 64, 0
2, 38336, Note_on_c, 1, 62, 80
2, 38528, Note_on_c, 1, 61, 80
2, 38553, Note_on_c, 1, 62, 0
2, 38713, Note_on_c, 1, 61, 0
2, 38713, Note_on_c, 1, 59, 80
2, 38899, Note_on_c, 1, 57, 80
2, 38911, Note_on_c, 1, 59, 0
2, 39059, Note_on_c, 1, 57, 0
2, 39168, Note_on_c, 1, 73, 80
2, 40198, Note_on_c, 1, 73, 0
2, 40211, Note_on_c, 1, 71, 80
2, 40228, Note_on_c, 1, 71, 80
2, 40362, Note_on_c, 1, 71, 0
2, 40479, Note_on_c, 1, 71, 0
2, 40582, Note_on_c, 1, 71, 80
2, 40661, Note_on_c, 1, 69, 80
2, 40669, Note_on_c, 1, 71, 0
2, 40748, Note_on_c, 1, 71, 80
2, 40778, Note_on_c, 1, 69, 0
2, 41550, Note_on_c, 1, 73, 80
2, 41556, Note_on_c, 1, 71, 0
2, 41759, Note_on_c, 1, 71, 80
2, 41806, Note_on_c, 1, 73, 0
2, 41924, Note_on_c, 1, 68, 80
2, 41925, Note_on_c, 1, 71, 0
2, 42121, Note_on_c, 1, 68, 0
2, 42140, Note_on_c, 1, 69, 80
2, 42320, Note_on_c, 1, 71, 80
2, 42326, Note_on_c, 1, 69, 0
2, 42523, Note_on_c, 1, 69, 80
2, 42561, Note_on_c, 1, 71, 0
2, 42700, Note_on_c, 1, 66, 80
2, 42738, Note_on_c, 1, 69, 0
2, 42872, Note_on_c, 1, 66, 0
2, 42972, Note_on_c, 1, 68, 80
2, 43131, Note_on_c, 1, 68, 0
2, 43133, Note_on_c, 1, 66, 80
2, 43326, Note_on_c, 1, 68, 80
2, 43343, Note_on_c, 1, 66, 0
2, 43484, Note_on_c, 1, 68, 0
2, 43525, Note_on_c, 1, 71, 80
2, 43734, Note_on_c, 1, 70, 80
2, 43756, Note_on_c, 1, 71, 0
2, 43900, Note_on_c, 1, 68, 80
2, 43910, Note_on_c, 1, 70, 0
2, 44120, Note_on_c, 1, 70, 80
2, 44139, Note_on_c, 1, 68, 0
2, 44301, Note_on_c, 1, 70, 0
2, 44309, Note_on_c, 1, 73, 80
2, 44479, Note_on_c, 1, 73, 0
2, 44526, Note_on_c, 1, 71, 80
2, 44725, Note_on_c, 1, 71, 0
2, 44812, Note_on_c, 1, 83, 80
2, 44933, Note_on_c, 1, 83, 0
2, 44998, Note_on_c, 1, 82, 80
2, 45119, Note_on_c, 1, 82, 0
2, 45190, Note_on_c, 1, 83, 80
2, 46382, Note_on_c, 1, 83, 0
2, 46387, Note_on_c, 1, 81, 80
2, 46527, Note_on_c, 1, 81, 0
2, 46777, Note_on_c, 1, 81, 80
2, 46822, Note_on_c, 1, 80, 80
2, 46834, Note_on_c, 1, 81, 0
2, 46879, Note_on_c, 1, 80, 0
2, 46886, Note_on_c, 1, 81, 80
2, 47596, Note_on_c, 1, 81, 0
2, 47763, Note_on_c, 1, 83, 80
2, 47942, Note_on_c, 1, 83, 0
2, 47942, Note_on_c, 1, 81, 80
2, 48121, Note_on_c, 1, 78, 80
2, 48127, Note_on_c, 1, 81, 0
2, 48242, Note_on_c, 1, 78, 0
2, 48313, Note_on_c, 1, 80, 80
2, 48505, Note_on_c, 1, 80, 0
2, 48512, Note_on_c, 1, 81, 80
2, 48704, Note_on_c, 1, 80, 80
2, 48729, Note_on_c, 1, 81, 0
2, 48857, Note_on_c, 1, 80, 0
2, 48870, Note_on_c, 1, 76, 80
2, 49062, Note_on_c, 1, 78, 80
2, 49068, Note_on_c, 1, 76, 0
2, 49273, Note_on_c, 1, 80, 80
2, 49279, Note_on_c, 1, 78, 0
2, 49465, Note_on_c, 1, 78, 80
2, 49490, Note_on_c, 1, 80, 0
2, 49644, Note_on_c, 1, 78, 0
2, 49657, Note_on_c, 1, 75, 80
2, 49849, Note_on_c, 1, 76, 80
2, 49855, Note_on_c, 1, 75, 0
2, 50035, Note_on_c, 1, 78, 80
2, 50053, Note_on_c, 1, 76, 0
2, 50214, Note_on_c, 1, 78, 0
2, 50214, Note_on_c, 1, 80, 80
2, 50380, Note_on_c, 1, 80, 0
2, 50393, Note_on_c, 1, 76, 80
2, 50592, Note_on_c, 1, 81, 80
2, 50597, Note_on_c, 1, 76, 0
2, 50790, Note_on_c, 1, 83, 80
2, 50796, Note_on_c, 1, 81, 0
2, 50976, Note_on_c, 1, 81, 80
2, 50982, Note_on_c, 1, 83, 0
2, 51168, Note_on_c, 1, 81, 0
2, 51168, Note_on_c, 1, 78, 80
2, 51360, Note_on_c, 1, 80, 80
2, 51379, Note_on_c, 1, 78, 0
2, 51545, Note_on_c, 1, 80, 0
2, 51552, Note_on_c, 1, 81, 80
2, 51756, Note_on_c, 1, 83, 80
2, 51769, Note_on_c, 1, 81, 0
2, 52012, Note_on_c, 1, 83, 0
2, 52147, Note_on_c, 1, 76, 80
2, 53888, Note_on_c, 1, 73, 80
2, 53919, Note_on_c, 1, 76, 0
2, 54080, Note_on_c, 1, 75, 80
2, 54099, Note_on_c, 1, 73, 0
2, 54489, Note_on_c, 1, 75, 0
2, 54835, Note_on_c, 1, 75, 80
2, 54988, Note_on_c, 1, 75, 0
2, 55225, Note_on_c, 1, 76, 80
2, 56006, Note_on_c, 1, 78, 80
2, 56018, Note_on_c, 1, 76, 0
2, 56767, Note_on_c, 1, 78, 0
2, 56774, Note_on_c, 1, 71, 80
2, 57247, Note_on_c, 1, 71, 0
2, 57516, Note_on_c, 1, 76, 80
2, 58674, Note_on_c, 1, 76, 0
2, 58675, Note_on_c, 1, 78, 80
2, 59033, Note_on_c, 1, 71, 80
2, 59052, Note_on_c, 1, 78, 0
2, 59244, Note_on_c, 1, 71, 0
2, 59436, Note_on_c, 1, 75, 80
2, 59564, Note_on_c, 1, 75, 0
2, 59820, Note_on_c, 1, 76, 80
2, 60562, Note_on_c, 1, 76, 0
2, 60953, Note_on_c, 1, 68, 80
2, 61132, Note_on_c, 1, 68, 0
2, 61331, Note_on_c, 1, 70, 80
2, 61523, Note_on_c, 1, 68, 80
2, 61535, Note_on_c, 1, 70, 0
2, 61702, Note_on_c, 1, 70, 80
2, 61721, Note_on_c, 1, 68, 0
2, 61881, Note_on_c, 1, 73, 80
2, 61887, Note_on_c, 1, 70, 0
2, 62073, Note_on_c, 1, 73, 0
2, 62086, Note_on_c, 1, 72, 80
2, 62278, Note_on_c, 1, 72, 0
2, 62278, Note_on_c, 1, 70, 80
2, 62457, Note_on_c, 1, 72, 80
2, 62470, Note_on_c, 1, 70, 0
2, 62636, Note_on_c, 1, 72, 0
2, 62643, Note_on_c, 1, 75, 80
2, 62835, Note_on_c, 1, 73, 80
2, 62847, Note_on_c, 1, 75, 0
2, 63084, Note_on_c, 1, 73, 0
2, 63200, Note_on_c, 1, 61, 80
2, 63347, Note_on_c, 1, 61, 0
2, 63577, Note_on_c, 1, 73, 80
2, 63641, Note_on_c, 1, 73, 0
2, 63641, Note_on_c, 1, 72, 80
2, 63699, Note_on_c, 1, 73, 80
2, 63711, Note_on_c, 1, 72, 0
2, 64806, Note_on_c, 1, 73, 0
2, 64819, Note_on_c, 1, 71, 80
2, 65100, Note_on_c, 1, 71, 0
2, 65228, Note_on_c, 1, 71, 80
2, 65280, Note_on_c, 1, 69, 80
2, 65285, Note_on_c, 1, 71, 0
2, 65331, Note_on_c, 1, 71, 80
2, 65350, Note_on_c, 1, 69, 0
2, 65951, Note_on_c, 1, 71, 0
2, 66176, Note_on_c, 1, 73, 80
2, 66355, Note_on_c, 1, 71, 80
2, 66361, Note_on_c, 1, 73, 0
2, 66534, Note_on_c, 1, 68, 80
2, 66540, Note_on_c, 1, 71, 0
2, 66720, Note_on_c, 1, 69, 80
2, 66726, Note_on_c, 1, 68, 0
2, 66918, Note_on_c, 1, 71, 80
2, 66931, Note_on_c, 1, 69, 0
2, 67091, Note_on_c, 1, 69, 80
2, 67110, Note_on_c, 1, 71, 0
2, 67264, Note_on_c, 1, 66, 80
2, 67276, Note_on_c, 1, 69, 0
2, 67456, Note_on_c, 1, 66, 0
2, 67468, Note_on_c, 1, 68, 80
2, 67672, Note_on_c, 1, 68, 0
2, 67673, Note_on_c, 1, 66, 80
2, 67859, Note_on_c, 1, 68, 80
2, 67871, Note_on_c, 1, 66, 0
2, 68025, Note_on_c, 1, 68, 0
2, 68038, Note_on_c, 1, 71, 80
2, 68255, Note_on_c, 1, 71, 0
2, 68256, Note_on_c, 1, 70, 80
2, 68460, Note_on_c, 1, 68, 80
2, 68467, Note_on_c, 1, 70, 0
2, 68652, Note_on_c, 1, 70, 80
2, 68671, Note_on_c, 1, 68, 0
2, 68844, Note_on_c, 1, 70, 0
2, 68844, Note_on_c, 1, 73, 80
2, 69024, Note_on_c, 1, 71, 80
2, 69055, Note_on_c, 1, 73, 0
2, 69139, Note_on_c, 1, 71, 0
2, 69382, Note_on_c, 1, 59, 80
2, 69478, Note_on_c, 1, 59, 0
2, 69779, Note_on_c, 1, 83, 80
2, 69811, Note_on_c, 1, 81, 80
2, 69849, Note_on_c, 1, 83, 0
2, 69881, Note_on_c, 1, 83, 80
2, 69894, Note_on_c, 1, 81, 0
2, 70930, Note_on_c, 1, 83, 0
2, 70931, Note_on_c, 1, 81, 80
2, 71078, Note_on_c, 1, 81, 0
2, 71353, Note_on_c, 1, 81, 80
2, 72146, Note_on_c, 1, 81, 0
2, 72339, Note_on_c, 1, 83, 80
2, 72511, Note_on_c, 1, 83, 0
2, 72512, Note_on_c, 1, 81, 80
2, 72697, Note_on_c, 1, 78, 80
2, 72710, Note_on_c, 1, 81, 0
2, 72908, Note_on_c, 1, 80, 80
2, 72933, Note_on_c, 1, 78, 0
2, 73100, Note_on_c, 1, 80, 0
2, 73107, Note_on_c, 1, 81, 80
2, 73305, Note_on_c, 1, 80, 80
2, 73331, Note_on_c, 1, 81, 0
2, 73471, Note_on_c, 1, 80, 0
2, 73472, Note_on_c, 1, 76, 80
2, 73651, Note_on_c, 1, 78, 80
2, 73670, Note_on_c, 1, 76, 0
2, 73843, Note_on_c, 1, 76, 80
2, 73849, Note_on_c, 1, 78, 0
2, 74022, Note_on_c, 1, 78, 80
2, 74054, Note_on_c, 1, 76, 0
2, 74195, Note_on_c, 1, 81, 80
2, 74207, Note_on_c, 1, 78, 0
2, 74399, Note_on_c, 1, 81, 0
2, 74400, Note_on_c, 1, 80, 80
2, 74585, Note_on_c, 1, 80, 0
2, 74592, Note_on_c, 1, 78, 80
2, 74771, Note_on_c, 1, 80, 80
2, 74796, Note_on_c, 1, 78, 0
2, 74943, Note_on_c, 1, 80, 0
2, 74956, Note_on_c, 1, 83, 80
2, 75052, Note_on_c, 1, 83, 0
2, 75180, Note_on_c, 1, 81, 80
2, 77349, Note_on_c, 1, 81, 0
2, 77478, Note_on_c, 1, 81, 80
2, 77580, Note_on_c, 1, 81, 0
2, 77587, Note_on_c, 1, 80, 80
2, 77670, Note_on_c, 1, 80, 0
2, 77683, Note_on_c, 1, 81, 80
2, 77747, Note_on_c, 1, 81, 0
2, 77753, Note_on_c, 1, 80, 80
2, 77792, Note_on_c, 1, 81, 80
2, 77804, Note_on_c, 1, 80, 0
2, 77849, Note_on_c, 1, 81, 0
2, 77862, Note_on_c, 1, 80, 80
2, 77907, Note_on_c, 1, 81, 80
2, 77932, Note_on_c, 1, 81, 0
2, 78227, Note_on_c, 1, 81, 80
2, 78239, Note_on_c, 1, 80, 0
2, 79206, Note_on_c, 1, 81, 0
2, 82470, Note_on_c, 1, 69, 80
2, 82706, Note_on_c, 1, 69, 0
2, 82835, Note_on_c, 1, 71, 80
2, 83059, Note_on_c, 1, 69, 80
2, 83065, Note_on_c, 1, 71, 0
2, 83199, Note_on_c, 1, 69, 0
2, 83232, Note_on_c, 1, 71, 80
2, 83353, Note_on_c, 1, 71, 0
2, 83417, Note_on_c, 1, 74, 80
2, 83513, Note_on_c, 1, 74, 0
2, 83622, Note_on_c, 1, 73, 80
2, 83814, Note_on_c, 1, 73, 0
2, 83814, Note_on_c, 1, 71, 80
2, 83986, Note_on_c, 1, 71, 0
2, 83993, Note_on_c, 1, 73, 80
2, 84146, Note_on_c, 1, 73, 0
2, 84185, Note_on_c, 1, 76, 80
2, 84255, Note_on_c, 1, 76, 0
2, 84403, Note_on_c, 1, 74, 80
2, 87622, Note_on_c, 1, 74, 0
2, 87827, Note_on_c, 1, 73, 80
2, 88217, Note_on_c, 1, 74, 80
2, 88223, Note_on_c, 1, 73, 0
2, 88422, Note_on_c, 1, 76, 80
2, 88447, Note_on_c, 1, 74, 0
2, 88614, Note_on_c, 1, 78, 80
2, 88633, Note_on_c, 1, 76, 0
2, 88786, Note_on_c, 1, 78, 0
2, 88787, Note_on_c, 1, 79, 80
2, 88876, Note_on_c, 1, 79, 0
2, 89004, Note_on_c, 1, 81, 80
2, 89222, Note_on_c, 1, 79, 80
2, 89228, Note_on_c, 1, 81, 0
2, 89408, Note_on_c, 1, 81, 80
2, 89433, Note_on_c, 1, 79, 0
2, 89600, Note_on_c, 1, 81, 0
2, 89600, Note_on_c, 1, 84, 80
2, 89785, Note_on_c, 1, 84, 0
2, 89792, Note_on_c, 1, 83, 80
2, 89977, Note_on_c, 1, 81, 80
2, 90003, Note_on_c, 1, 83, 0
2, 90156, Note_on_c, 1, 81, 0
2, 90169, Note_on_c, 1, 79, 80
2, 90348, Note_on_c, 1, 78, 80
2, 90354, Note_on_c, 1, 79, 0
2, 90540, Note_on_c, 1, 78, 0
2, 90547, Note_on_c, 1, 76, 80
2, 90745, Note_on_c, 1, 74, 80
2, 90758, Note_on_c, 1, 76, 0
2, 90917, Note_on_c, 1, 74, 0
2, 90937, Note_on_c, 1, 73, 80
2, 91116, Note_on_c, 1, 73, 0
2, 91136, Note_on_c, 1, 71, 80
2, 91302, Note_on_c, 1, 69, 80
2, 91315, Note_on_c, 1, 71, 0
2, 91506, Note_on_c, 1, 69, 0
2, 91513, Note_on_c, 1, 68, 80
2, 91692, Note_on_c, 1, 69, 80
2, 91705, Note_on_c, 1, 68, 0
2, 91871, Note_on_c, 1, 69, 0
2, 91878, Note_on_c, 1, 73, 80
2, 91993, Note_on_c, 1, 73, 0
2, 92089, Note_on_c, 1, 71, 80
2, 92268, Note_on_c, 1, 69, 80
2, 92281, Note_on_c, 1, 71, 0
2, 92448, Note_on_c, 1, 71, 80
2, 92453, Note_on_c, 1, 69, 0
2, 92633, Note_on_c, 1, 74, 80
2, 92659, Note_on_c, 1, 71, 0
2, 92748, Note_on_c, 1, 74, 0
2, 92832, Note_on_c, 1, 73, 80
2, 93017, Note_on_c, 1, 73, 0
2, 93017, Note_on_c, 1, 71, 80
2, 93203, Note_on_c, 1, 73, 80
2, 93241, Note_on_c, 1, 71, 0
2, 93395, Note_on_c, 1, 73, 0
2, 93395, Note_on_c, 1, 76, 80
2, 93587, Note_on_c, 1, 74, 80
2, 93606, Note_on_c, 1, 76, 0
2, 93792, Note_on_c, 1, 76, 80
2, 93811, Note_on_c, 1, 74, 0
2, 93971, Note_on_c, 1, 74, 80
2, 93990, Note_on_c, 1, 76, 0
2, 94156, Note_on_c, 1, 71, 80
2, 94169, Note_on_c, 1, 74, 0
2, 94271, Note_on_c, 1, 71, 0
2, 94355, Note_on_c, 1, 72, 80
2, 94553, Note_on_c, 1, 74, 80
2, 94559, Note_on_c, 1, 72, 0
2, 94745, Note_on_c, 1, 72, 80
2, 94796, Note_on_c, 1, 74, 0
2, 94924, Note_on_c, 1, 72, 0
2, 94931, Note_on_c, 1, 69, 80
2, 95110, Note_on_c, 1, 69, 0
2, 95116, Note_on_c, 1, 71, 80
2, 95308, Note_on_c, 1, 69, 80
2, 95314, Note_on_c, 1, 71, 0
2, 95507, Note_on_c, 1, 67, 80
2, 95512, Note_on_c, 1, 69, 0
2, 95686, Note_on_c, 1, 67, 0
2, 95686, Note_on_c, 1, 66, 80
2, 95865, Note_on_c, 1, 66, 0
2, 95878, Note_on_c, 1, 64, 80
2, 96070, Note_on_c, 1, 66, 80
2, 96095, Note_on_c, 1, 64, 0
2, 96262, Note_on_c, 1, 66, 0
2, 96262, Note_on_c, 1, 67, 80
2, 96454, Note_on_c, 1, 69, 80
2, 96466, Note_on_c, 1, 67, 0
2, 96626, Note_on_c, 1, 69, 0
2, 96646, Note_on_c, 1, 67, 80
2, 96825, Note_on_c, 1, 66, 80
2, 96831, Note_on_c, 1, 67, 0
2, 97017, Note_on_c, 1, 66, 0
2, 97024, Note_on_c, 1, 64, 80
2, 97216, Note_on_c, 1, 62, 80
2, 97235, Note_on_c, 1, 64, 0
2, 97414, Note_on_c, 1, 64, 80
2, 97420, Note_on_c, 1, 62, 0
2, 97606, Note_on_c, 1, 66, 80
2, 97625, Note_on_c, 1, 64, 0
2, 97791, Note_on_c, 1, 66, 0
2, 97804, Note_on_c, 1, 69, 80
2, 98016, Note_on_c, 1, 68, 80
2, 98021, Note_on_c, 1, 69, 0
2, 98163, Note_on_c, 1, 68, 0
2, 98201, Note_on_c, 1, 69, 80
2, 98668, Note_on_c, 1, 69, 0
2, 99379, Note_on_c, 1, 69, 80
2, 99590, Note_on_c, 1, 69, 0
2, 99763, Note_on_c, 1, 67, 80
2, 99961, Note_on_c, 1, 66, 80
2, 99967, Note_on_c, 1, 67, 0
2, 100165, Note_on_c, 1, 66, 0
2, 100166, Note_on_c, 1, 64, 80
2, 100339, Note_on_c, 1, 66, 80
2, 100345, Note_on_c, 1, 64, 0
2, 100479, Note_on_c, 1, 66, 0
2, 100524, Note_on_c, 1, 68, 80
2, 100722, Note_on_c, 1, 68, 0
2, 100723, Note_on_c, 1, 70, 80
2, 100915, Note_on_c, 1, 70, 0
2, 100915, Note_on_c, 1, 71, 80
2, 101055, Note_on_c, 1, 71, 0
2, 101107, Note_on_c, 1, 70, 80
2, 101269, Note_on_c, 1, 70, 0
2, 101305, Note_on_c, 1, 71, 80
2, 101810, Note_on_c, 1, 71, 0
2, 102464, Note_on_c, 1, 76, 80
2, 102675, Note_on_c, 1, 76, 0
2, 102809, Note_on_c, 1, 69, 80
2, 103020, Note_on_c, 1, 69, 0
2, 103020, Note_on_c, 1, 68, 80
2, 103200, Note_on_c, 1, 69, 80
2, 103205, Note_on_c, 1, 68, 0
2, 103385, Note_on_c, 1, 73, 80
2, 103404, Note_on_c, 1, 69, 0
2, 103519, Note_on_c, 1, 73, 0
2, 103584, Note_on_c, 1, 71, 80
2, 103763, Note_on_c, 1, 69, 80
2, 103769, Note_on_c, 1, 71, 0
2, 103948, Note_on_c, 1, 71, 80
2, 103955, Note_on_c, 1, 69, 0
2, 104134, Note_on_c, 1, 74, 80
2, 104172, Note_on_c, 1, 71, 0
2, 104236, Note_on_c, 1, 74, 0
2, 104352, Note_on_c, 1, 73, 80
2, 104544, Note_on_c, 1, 73, 0
2, 104544, Note_on_c, 1, 71, 80
2, 104736, Note_on_c, 1, 73, 80
2, 104742, Note_on_c, 1, 71, 0
2, 104921, Note_on_c, 1, 76, 80
2, 104928, Note_on_c, 1, 73, 0
2, 105126, Note_on_c, 1, 69, 80
2, 105138, Note_on_c, 1, 76, 0
2, 105344, Note_on_c, 1, 68, 80
2, 105350, Note_on_c, 1, 69, 0
2, 105529, Note_on_c, 1, 69, 80
2, 105536, Note_on_c, 1, 68, 0
2, 105721, Note_on_c, 1, 73, 80
2, 105753, Note_on_c, 1, 69, 0
2, 105797, Note_on_c, 1, 73, 0
2, 105920, Note_on_c, 1, 66, 80
2, 106124, Note_on_c, 1, 66, 0
2, 106124, Note_on_c, 1, 69, 80
2, 106290, Note_on_c, 1, 69, 0
2, 106310, Note_on_c, 1, 62, 80
2, 106482, Note_on_c, 1, 62, 0
2, 106496, Note_on_c, 1, 66, 80
2, 106675, Note_on_c, 1, 66, 0
2, 106681, Note_on_c, 1, 59, 80
2, 106867, Note_on_c, 1, 66, 80
2, 106873, Note_on_c, 1, 59, 0
2, 107052, Note_on_c, 1, 66, 0
2, 107052, Note_on_c, 1, 64, 80
2, 107238, Note_on_c, 1, 62, 80
2, 107250, Note_on_c, 1, 64, 0
2, 107410, Note_on_c, 1, 62, 0
2, 107430, Note_on_c, 1, 61, 80
2, 107635, Note_on_c, 1, 64, 80
2, 107641, Note_on_c, 1, 61, 0
2, 107807, Note_on_c, 1, 64, 0
2, 107814, Note_on_c, 1, 57, 80
2, 107993, Note_on_c, 1, 61, 80
2, 107999, Note_on_c, 1, 57, 0
2, 108191, Note_on_c, 1, 61, 0
2, 108192, Note_on_c, 1, 64, 80
2, 108384, Note_on_c, 1, 69, 80
2, 108390, Note_on_c, 1, 64, 0
2, 108576, Note_on_c, 1, 69, 0
2, 108576, Note_on_c, 1, 61, 80
2, 108723, Note_on_c, 1, 61, 0
2, 108742, Note_on_c, 1, 64, 80
2, 108934, Note_on_c, 1, 64, 0
2, 108953, Note_on_c, 1, 69, 80
2, 109139, Note_on_c, 1, 73, 80
2, 109170, Note_on_c, 1, 69, 0
2, 109331, Note_on_c, 1, 73, 0
2, 109344, Note_on_c, 1, 64, 80
2, 109478, Note_on_c, 1, 64, 0
2, 109516, Note_on_c, 1, 69, 80
2, 109618, Note_on_c, 1, 69, 0
2, 109708, Note_on_c, 1, 73, 80
2, 109900, Note_on_c, 1, 73, 0
2, 109900, Note_on_c, 1, 76, 80
2, 110072, Note_on_c, 1, 76, 0
2, 110080, Note_on_c, 1, 69, 80
2, 110240, Note_on_c, 1, 73, 80
2, 110265, Note_on_c, 1, 69, 0
2, 110310, Note_on_c, 1, 73, 0
2, 110432, Note_on_c, 1, 78, 80
2, 110598, Note_on_c, 1, 78, 0
2, 110604, Note_on_c, 1, 76, 80
2, 110712, Note_on_c, 1, 76, 0
2, 110726, Note_on_c, 1, 78, 80
2, 110796, Note_on_c, 1, 78, 0
2, 110816, Note_on_c, 1, 76, 80
2, 110880, Note_on_c, 1, 78, 80
2, 110899, Note_on_c, 1, 76, 0
2, 110931, Note_on_c, 1, 78, 0
2, 110944, Note_on_c, 1, 76, 80
2, 110988, Note_on_c, 1, 78, 80
2, 111008, Note_on_c, 1, 76, 0
2, 111039, Note_on_c, 1, 78, 0
2, 111046, Note_on_c, 1, 76, 80
2, 111078, Note_on_c, 1, 78, 80
2, 111090, Note_on_c, 1, 76, 0
2, 111136, Note_on_c, 1, 76, 80
2, 111142, Note_on_c, 1, 78, 0
2, 112268, Note_on_c, 1, 74, 80
2, 112281, Note_on_c, 1, 76, 0
2, 112447, Note_on_c, 1, 74, 0
2, 112460, Note_on_c, 1, 76, 80
2, 112627, Note_on_c, 1, 81, 80
2, 112632, Note_on_c, 1, 76, 0
2, 112825, Note_on_c, 1, 81, 0
2, 112825, Note_on_c, 1, 76, 80
2, 113024, Note_on_c, 1, 81, 80
2, 113049, Note_on_c, 1, 76, 0
2, 113190, Note_on_c, 1, 73, 80
2, 113196, Note_on_c, 1, 81, 0
2, 113350, Note_on_c, 1, 73, 0
2, 113356, Note_on_c, 1, 76, 80
2, 113413, Note_on_c, 1, 76, 0
2, 113548, Note_on_c, 1, 74, 80
2, 113721, Note_on_c, 1, 73, 80
2, 113740, Note_on_c, 1, 74, 0
2, 113900, Note_on_c, 1, 73, 0
2, 113913, Note_on_c, 1, 74, 80
2, 114079, Note_on_c, 1, 74, 0
2, 114086, Note_on_c, 1, 81, 80
2, 114272, Note_on_c, 1, 74, 80
2, 114278, Note_on_c, 1, 81, 0
2, 114444, Note_on_c, 1, 78, 80
2, 114464, Note_on_c, 1, 74, 0
2, 114636, Note_on_c, 1, 71, 80
2, 114789, Note_on_c, 1, 78, 0
2, 114822, Note_on_c, 1, 74, 80
2, 114847, Note_on_c, 1, 71, 0
2, 114892, Note_on_c, 1, 74, 0
2, 115040, Note_on_c, 1, 73, 80
2, 115238, Note_on_c, 1, 71, 80
2, 115257, Note_on_c, 1, 73, 0
2, 115410, Note_on_c, 1, 71, 0
2, 115424, Note_on_c, 1, 73, 80
2, 115590, Note_on_c, 1, 81, 80
2, 115596, Note_on_c, 1, 73, 0
2, 115788, Note_on_c, 1, 73, 80
2, 115794, Note_on_c, 1, 81, 0
2, 115973, Note_on_c, 1, 73, 0
2, 115980, Note_on_c, 1, 76, 80
2, 116140, Note_on_c, 1, 76, 0
2, 116147, Note_on_c, 1, 69, 80
2, 116326, Note_on_c, 1, 76, 80
2, 116339, Note_on_c, 1, 69, 0
2, 116383, Note_on_c, 1, 76, 0
2, 116576, Note_on_c, 1, 78, 80
2, 116768, Note_on_c, 1, 78, 0
2, 116774, Note_on_c, 1, 76, 80
2, 116966, Note_on_c, 1, 76, 0
2, 116979, Note_on_c, 1, 78, 80
2, 117171, Note_on_c, 1, 81, 80
2, 117183, Note_on_c, 1, 78, 0
2, 117343, Note_on_c, 1, 81, 0
2, 117363, Note_on_c, 1, 78, 80
2, 117555, Note_on_c, 1, 81, 80
2, 117567, Note_on_c, 1, 78, 0
2, 117715, Note_on_c, 1, 81, 0
2, 117740, Note_on_c, 1, 74, 80
2, 117913, Note_on_c, 1, 78, 80
2, 117919, Note_on_c, 1, 74, 0
2, 118009, Note_on_c, 1, 78, 0
2, 118112, Note_on_c, 1, 76, 80
2, 118323, Note_on_c, 1, 76, 0
2, 118323, Note_on_c, 1, 81, 80
2, 118451, Note_on_c, 1, 81, 0
2, 118515, Note_on_c, 1, 73, 80
2, 118713, Note_on_c, 1, 73, 0
2, 118720, Note_on_c, 1, 81, 80
2, 118848, Note_on_c, 1, 81, 0
2, 118905, Note_on_c, 1, 74, 80
2, 119091, Note_on_c, 1, 81, 80
2, 119109, Note_on_c, 1, 74, 0
2, 119276, Note_on_c, 1, 81, 0
2, 119283, Note_on_c, 1, 71, 80
2, 119481, Note_on_c, 1, 81, 80
2, 119487, Note_on_c, 1, 71, 0
2, 119628, Note_on_c, 1, 81, 0
2, 119680, Note_on_c, 1, 73, 80
2, 119865, Note_on_c, 1, 81, 80
2, 119910, Note_on_c, 1, 73, 0
2, 119973, Note_on_c, 1, 81, 0
2, 120076, Note_on_c, 1, 69, 80
2, 120262, Note_on_c, 1, 71, 80
2, 120274, Note_on_c, 1, 69, 0
2, 120435, Note_on_c, 1, 73, 80
2, 120454, Note_on_c, 1, 71, 0
2, 120627, Note_on_c, 1, 73, 0
2, 120633, Note_on_c, 1, 74, 80
2, 120825, Note_on_c, 1, 76, 80
2, 120837, Note_on_c, 1, 74, 0
2, 120998, Note_on_c, 1, 78, 80
2, 121010, Note_on_c, 1, 76, 0
2, 121113, Note_on_c, 1, 78, 0
2, 121203, Note_on_c, 1, 79, 80
2, 121395, Note_on_c, 1, 81, 80
2, 121414, Note_on_c, 1, 79, 0
2, 121587, Note_on_c, 1, 81, 0
2, 121593, Note_on_c, 1, 79, 80
2, 121785, Note_on_c, 1, 79, 0
2, 121785, Note_on_c, 1, 69, 80
2, 121881, Note_on_c, 1, 69, 0
2, 122022, Note_on_c, 1, 79, 80
2, 122220, Note_on_c, 1, 81, 80
2, 122246, Note_on_c, 1, 79, 0
2, 122406, Note_on_c, 1, 79, 80
2, 122412, Note_on_c, 1, 81, 0
2, 122585, Note_on_c, 1, 79, 0
2, 122585, Note_on_c, 1, 69, 80
2, 122687, Note_on_c, 1, 69, 0
2, 122790, Note_on_c, 1, 78, 80
2, 122976, Note_on_c, 1, 79, 80
2, 123001, Note_on_c, 1, 78, 0
2, 123168, Note_on_c, 1, 78, 80
2, 123193, Note_on_c, 1, 79, 0
2, 123334, Note_on_c, 1, 78, 0
2, 123353, Note_on_c, 1, 69, 80
2, 123436, Note_on_c, 1, 69, 0
2, 123558, Note_on_c, 1, 78, 80
2, 123756, Note_on_c, 1, 79, 80
2, 123762, Note_on_c, 1, 78, 0
2, 123929, Note_on_c, 1, 78, 80
2, 123948, Note_on_c, 1, 79, 0
2, 124108, Note_on_c, 1, 69, 80
2, 124114, Note_on_c, 1, 78, 0
2, 124210, Note_on_c, 1, 69, 0
2, 124313, Note_on_c, 1, 76, 80
2, 124517, Note_on_c, 1, 76, 0
2, 124518, Note_on_c, 1, 78, 80
2, 124697, Note_on_c, 1, 76, 80
2, 124716, Note_on_c, 1, 78, 0
2, 124876, Note_on_c, 1, 76, 0
2, 124876, Note_on_c, 1, 69, 80
2, 124978, Note_on_c, 1, 69, 0
2, 125075, Note_on_c, 1, 76, 80
2, 125267, Note_on_c, 1, 76, 0
2, 125267, Note_on_c, 1, 78, 80
2, 125452, Note_on_c, 1, 76, 80
2, 125478, Note_on_c, 1, 78, 0
2, 125631, Note_on_c, 1, 76, 0
2, 125632, Note_on_c, 1, 69, 80
2, 125772, Note_on_c, 1, 69, 0
2, 125817, Note_on_c, 1, 74, 80
2, 126009, Note_on_c, 1, 76, 80
2, 126034, Note_on_c, 1, 74, 0
2, 126182, Note_on_c, 1, 74, 80
2, 126207, Note_on_c, 1, 76, 0
2, 126380, Note_on_c, 1, 66, 80
2, 126393, Note_on_c, 1, 74, 0
2, 126559, Note_on_c, 1, 66, 0
2, 126585, Note_on_c, 1, 74, 80
2, 126752, Note_on_c, 1, 76, 80
2, 126764, Note_on_c, 1, 74, 0
2, 126924, Note_on_c, 1, 76, 0
2, 126944, Note_on_c, 1, 74, 80
2, 127129, Note_on_c, 1, 68, 80
2, 127136, Note_on_c, 1, 74, 0
2, 127328, Note_on_c, 1, 73, 80
2, 127340, Note_on_c, 1, 68, 0
2, 127520, Note_on_c, 1, 74, 80
2, 127558, Note_on_c, 1, 73, 0
2, 127705, Note_on_c, 1, 74, 0
2, 127705, Note_on_c, 1, 73, 80
2, 127884, Note_on_c, 1, 64, 80
2, 127890, Note_on_c, 1, 73, 0
2, 128082, Note_on_c, 1, 64, 0
2, 128083, Note_on_c, 1, 73, 80
2, 128288, Note_on_c, 1, 74, 80
2, 128307, Note_on_c, 1, 73, 0
2, 128473, Note_on_c, 1, 73, 80
2, 128505, Note_on_c, 1, 74, 0
2, 128748, Note_on_c, 1, 66, 80
2, 128754, Note_on_c, 1, 73, 0
2, 128934, Note_on_c, 1, 71, 80
2, 128940, Note_on_c, 1, 66, 0
2, 129113, Note_on_c, 1, 73, 80
2, 129138, Note_on_c, 1, 71, 0
2, 129305, Note_on_c, 1, 71, 80
2, 129317, Note_on_c, 1, 73, 0
2, 129484, Note_on_c, 1, 63, 80
2, 129503, Note_on_c, 1, 71, 0
2, 129688, Note_on_c, 1, 63, 0
2, 129689, Note_on_c, 1, 71, 80
2, 129875, Note_on_c, 1, 73, 80
2, 129893, Note_on_c, 1, 71, 0
2, 130073, Note_on_c, 1, 71, 80
2, 130079, Note_on_c, 1, 73, 0
2, 130246, Note_on_c, 1, 65, 80
2, 130258, Note_on_c, 1, 71, 0
2, 130361, Note_on_c, 1, 65, 0
2, 130444, Note_on_c, 1, 69, 80
2, 130636, Note_on_c, 1, 69, 0
2, 130636, Note_on_c, 1, 71, 80
2, 130828, Note_on_c, 1, 69, 80
2, 130860, Note_on_c, 1, 71, 0
2, 131014, Note_on_c, 1, 65, 80
2, 131020, Note_on_c, 1, 69, 0
2, 131200, Note_on_c, 1, 66, 80
2, 131212, Note_on_c, 1, 65, 0
2, 131385, Note_on_c, 1, 68, 80
2, 131404, Note_on_c, 1, 66, 0
2, 131564, Note_on_c, 1, 68, 0
2, 131571, Note_on_c, 1, 69, 80
2, 131776, Note_on_c, 1, 71, 80
2, 131782, Note_on_c, 1, 69, 0
2, 131929, Note_on_c, 1, 71, 0
2, 131968, Note_on_c, 1, 73, 80
2, 132153, Note_on_c, 1, 73, 0
2, 132153, Note_on_c, 1, 71, 80
2, 132345, Note_on_c, 1, 73, 80
2, 132370, Note_on_c, 1, 71, 0
2, 132530, Note_on_c, 1, 73, 0
2, 132537, Note_on_c, 1, 74, 80
2, 132736, Note_on_c, 1, 73, 80
2, 132773, Note_on_c, 1, 74, 0
2, 132921, Note_on_c, 1, 71, 80
2, 132928, Note_on_c, 1, 73, 0
2, 133107, Note_on_c, 1, 69, 80
2, 133125, Note_on_c, 1, 71, 0
2, 133299, Note_on_c, 1, 68, 80
2, 133311, Note_on_c, 1, 69, 0
2, 133478, Note_on_c, 1, 68, 0
2, 133484, Note_on_c, 1, 71, 80
2, 133683, Note_on_c, 1, 69, 80
2, 133701, Note_on_c, 1, 71, 0
2, 133881, Note_on_c, 1, 68, 80
2, 133900, Note_on_c, 1, 69, 0
2, 134041, Note_on_c, 1, 68, 0
2, 134041, Note_on_c, 1, 66, 80
2, 134162, Note_on_c, 1, 66, 0
2, 134259, Note_on_c, 1, 69, 80
2, 134457, Note_on_c, 1, 68, 80
2, 134483, Note_on_c, 1, 69, 0
2, 134642, Note_on_c, 1, 68, 0
2, 134643, Note_on_c, 1, 66, 80
2, 134828, Note_on_c, 1, 65, 80
2, 134841, Note_on_c, 1, 66, 0
2, 134943, Note_on_c, 1, 65, 0
2, 135027, Note_on_c, 1, 66, 80
2, 135238, Note_on_c, 1, 65, 80
2, 135249, Note_on_c, 1, 66, 0
2, 135426, Note_on_c, 1, 66, 80
2, 135460, Note_on_c, 1, 65, 0
2, 135615, Note_on_c, 1, 69, 80
2, 135626, Note_on_c, 1, 66, 0
2, 135811, Note_on_c, 1, 68, 80
2, 135815, Note_on_c, 1, 69, 0
2, 136001, Note_on_c, 1, 68, 0
2, 136002, Note_on_c, 1, 66, 80
2, 136215, Note_on_c, 1, 68, 80
2, 136233, Note_on_c, 1, 66, 0
2, 136420, Note_on_c, 1, 68, 0
2, 136423, Note_on_c, 1, 71, 80
2, 136637, Note_on_c, 1, 71, 0
2, 136644, Note_on_c, 1, 69, 80
2, 136854, Note_on_c, 1, 68, 80
2, 136863, Note_on_c, 1, 69, 0
2, 137046, Note_on_c, 1, 68, 0
2, 137057, Note_on_c, 1, 69, 80
2, 137217, Note_on_c, 1, 69, 0
2, 137232, Note_on_c, 1, 73, 80
2, 137344, Note_on_c, 1, 73, 0
2, 137446, Note_on_c, 1, 78, 80
2, 137629, Note_on_c, 1, 77, 80
2, 137635, Note_on_c, 1, 78, 0
2, 137816, Note_on_c, 1, 78, 80
2, 137822, Note_on_c, 1, 77, 0
2, 137995, Note_on_c, 1, 78, 0
2, 138005, Note_on_c, 1, 81, 80
2, 138188, Note_on_c, 1, 81, 0
2, 138188, Note_on_c, 1, 75, 80
2, 138380, Note_on_c, 1, 73, 80
2, 138396, Note_on_c, 1, 75, 0
2, 138558, Note_on_c, 1, 75, 80
2, 138570, Note_on_c, 1, 73, 0
2, 138733, Note_on_c, 1, 78, 80
2, 138737, Note_on_c, 1, 75, 0
2, 138920, Note_on_c, 1, 78, 0
2, 138925, Note_on_c, 1, 80, 80
2, 139108, Note_on_c, 1, 78, 80
2, 139109, Note_on_c, 1, 80, 0
2, 139315, Note_on_c, 1, 80, 80
2, 139321, Note_on_c, 1, 78, 0
2, 139477, Note_on_c, 1, 80, 0
2, 139491, Note_on_c, 1, 83, 80
2, 139682, Note_on_c, 1, 78, 80
2, 139694, Note_on_c, 1, 83, 0
2, 139869, Note_on_c, 1, 78, 0
2, 139870, Note_on_c, 1, 77, 80
2, 140077, Note_on_c, 1, 75, 80
2, 140081, Note_on_c, 1, 77, 0
2, 140171, Note_on_c, 1, 75, 0
2, 140231, Note_on_c, 1, 73, 80
2, 140395, Note_on_c, 1, 73, 0
2, 140444, Note_on_c, 1, 78, 80
2, 142015, Note_on_c, 1, 77, 80
2, 142030, Note_on_c, 1, 78, 0
2, 142782, Note_on_c, 1, 78, 80
2, 142797, Note_on_c, 1, 77, 0
2, 143567, Note_on_c, 1, 78, 0
2, 143756, Note_on_c, 1, 69, 80
2, 143909, Note_on_c, 1, 69, 0
2, 143929, Note_on_c, 1, 73, 80
2, 144089, Note_on_c, 1, 78, 80
2, 144114, Note_on_c, 1, 73, 0
2, 144194, Note_on_c, 1, 78, 0
2, 144268, Note_on_c, 1, 73, 80
2, 144320, Note_on_c, 1, 71, 80
2, 144421, Note_on_c, 1, 73, 0
2, 144556, Note_on_c, 1, 71, 0
2, 144563, Note_on_c, 1, 69, 80
2, 144633, Note_on_c, 1, 71, 80
2, 144665, Note_on_c, 1, 69, 0
2, 145042, Note_on_c, 1, 71, 0
2, 145254, Note_on_c, 1, 68, 80
2, 145407, Note_on_c, 1, 68, 0
2, 145440, Note_on_c, 1, 71, 80
2, 145606, Note_on_c, 1, 76, 80
2, 145619, Note_on_c, 1, 71, 0
2, 145716, Note_on_c, 1, 76, 0
2, 145785, Note_on_c, 1, 71, 80
2, 145817, Note_on_c, 1, 69, 80
2, 145925, Note_on_c, 1, 71, 0
2, 146080, Note_on_c, 1, 68, 80
2, 146085, Note_on_c, 1, 69, 0
2, 146124, Note_on_c, 1, 69, 80
2, 146156, Note_on_c, 1, 68, 0
2, 146578, Note_on_c, 1, 69, 0
2, 146771, Note_on_c, 1, 66, 80
2, 146956, Note_on_c, 1, 69, 80
2, 146963, Note_on_c, 1, 66, 0
2, 147123, Note_on_c, 1, 74, 80
2, 147148, Note_on_c, 1, 69, 0
2, 147239, Note_on_c, 1, 74, 0
2, 147321, Note_on_c, 1, 69, 80
2, 147372, Note_on_c, 1, 68, 80
2, 147397, Note_on_c, 1, 69, 0
2, 147443, Note_on_c, 1, 69, 80
2, 147494, Note_on_c, 1, 69, 0
2, 147615, Note_on_c, 1, 68, 0
2, 147616, Note_on_c, 1, 66, 80
2, 147699, Note_on_c, 1, 68, 80
2, 147724, Note_on_c, 1, 66, 0
2, 148134, Note_on_c, 1, 68, 0
2, 148883, Note_on_c, 1, 71, 80
2, 150617, Note_on_c, 1, 71, 0
2, 150624, Note_on_c, 1, 68, 80
2, 150809, Note_on_c, 1, 70, 80
2, 150816, Note_on_c, 1, 68, 0
2, 150956, Note_on_c, 1, 70, 0
2, 150988, Note_on_c, 1, 78, 80
2, 151154, Note_on_c, 1, 78, 0
2, 151212, Note_on_c, 1, 76, 80
2, 151333, Note_on_c, 1, 76, 0
2, 151379, Note_on_c, 1, 79, 80
2, 151551, Note_on_c, 1, 79, 0
2, 151558, Note_on_c, 1, 73, 80
2, 151737, Note_on_c, 1, 76, 80
2, 151756, Note_on_c, 1, 73, 0
2, 151833, Note_on_c, 1, 76, 0
2, 151961, Note_on_c, 1, 70, 80
2, 152140, Note_on_c, 1, 68, 80
2, 152146, Note_on_c, 1, 70, 0
2, 152352, Note_on_c, 1, 70, 80
2, 152370, Note_on_c, 1, 68, 0
2, 152518, Note_on_c, 1, 70, 0
2, 152531, Note_on_c, 1, 76, 80
2, 152710, Note_on_c, 1, 73, 80
2, 152723, Note_on_c, 1, 76, 0
2, 152902, Note_on_c, 1, 76, 80
2, 152914, Note_on_c, 1, 73, 0
2, 153100, Note_on_c, 1, 76, 0
2, 153100, Note_on_c, 1, 70, 80
2, 153260, Note_on_c, 1, 73, 80
2, 153266, Note_on_c, 1, 70, 0
2, 153356, Note_on_c, 1, 73, 0
2, 153504, Note_on_c, 1, 66, 80
2, 153862, Note_on_c, 1, 66, 0
2, 153888, Note_on_c, 1, 71, 80
2, 154240, Note_on_c, 1, 75, 80
2, 154284, Note_on_c, 1, 71, 0
2, 154540, Note_on_c, 1, 75, 0
2, 154611, Note_on_c, 1, 78, 80
2, 154790, Note_on_c, 1, 78, 0
2, 154982, Note_on_c, 1, 81, 80
2, 155366, Note_on_c, 1, 78, 80
2, 155398, Note_on_c, 1, 81, 0
2, 155743, Note_on_c, 1, 78, 0
2, 155744, Note_on_c, 1, 75, 80
2, 155942, Note_on_c, 1, 75, 0
2, 156153, Note_on_c, 1, 69, 80
2, 156575, Note_on_c, 1, 69, 0
2, 156774, Note_on_c, 1, 66, 80
2, 156947, Note_on_c, 1, 68, 80
2, 156959, Note_on_c, 1, 66, 0
2, 157119, Note_on_c, 1, 68, 0
2, 157120, Note_on_c, 1, 76, 80
2, 157277, Note_on_c, 1, 76, 0
2, 157344, Note_on_c, 1, 74, 80
2, 157536, Note_on_c, 1, 78, 80
2, 157561, Note_on_c, 1, 74, 0
2, 157721, Note_on_c, 1, 71, 80
2, 157728, Note_on_c, 1, 78, 0
2, 157888, Note_on_c, 1, 74, 80
2, 157906, Note_on_c, 1, 71, 0
2, 158018, Note_on_c, 1, 74, 0
2, 158099, Note_on_c, 1, 68, 80
2, 158291, Note_on_c, 1, 68, 0
2, 158291, Note_on_c, 1, 66, 80
2, 158508, Note_on_c, 1, 68, 80
2, 158540, Note_on_c, 1, 66, 0
2, 158680, Note_on_c, 1, 68, 0
2, 158681, Note_on_c, 1, 74, 80
2, 158873, Note_on_c, 1, 74, 0
2, 158880, Note_on_c, 1, 71, 80
2, 159091, Note_on_c, 1, 74, 80
2, 159110, Note_on_c, 1, 71, 0
2, 159263, Note_on_c, 1, 74, 0
2, 159264, Note_on_c, 1, 68, 80
2, 159424, Note_on_c, 1, 68, 0
2, 159430, Note_on_c, 1, 71, 80
2, 159500, Note_on_c, 1, 71, 0
2, 159635, Note_on_c, 1, 64, 80
2, 160012, Note_on_c, 1, 69, 80
2, 160031, Note_on_c, 1, 64, 0
2, 160358, Note_on_c, 1, 73, 80
2, 160376, Note_on_c, 1, 69, 0
2, 160684, Note_on_c, 1, 73, 0
2, 160742, Note_on_c, 1, 76, 80
2, 160844, Note_on_c, 1, 76, 0
2, 161094, Note_on_c, 1, 79, 80
2, 161516, Note_on_c, 1, 76, 80
2, 161535, Note_on_c, 1, 79, 0
2, 161868, Note_on_c, 1, 76, 0
2, 161894, Note_on_c, 1, 73, 80
2, 162015, Note_on_c, 1, 73, 0
2, 162272, Note_on_c, 1, 67, 80
2, 162406, Note_on_c, 1, 67, 0
2, 162656, Note_on_c, 1, 66, 80
2, 162867, Note_on_c, 1, 64, 80
2, 162873, Note_on_c, 1, 66, 0
2, 163059, Note_on_c, 1, 64, 0
2, 163072, Note_on_c, 1, 66, 80
2, 163206, Note_on_c, 1, 66, 0
2, 163232, Note_on_c, 1, 69, 80
2, 163308, Note_on_c, 1, 69, 0
2, 163443, Note_on_c, 1, 66, 80
2, 163628, Note_on_c, 1, 69, 80
2, 163635, Note_on_c, 1, 66, 0
2, 163846, Note_on_c, 1, 64, 80
2, 163864, Note_on_c, 1, 69, 0
2, 164031, Note_on_c, 1, 64, 0
2, 164044, Note_on_c, 1, 67, 80
2, 164120, Note_on_c, 1, 67, 0
2, 164236, Note_on_c, 1, 66, 80
2, 164460, Note_on_c, 1, 64, 80
2, 164472, Note_on_c, 1, 66, 0
2, 164658, Note_on_c, 1, 64, 0
2, 164659, Note_on_c, 1, 66, 80
2, 164838, Note_on_c, 1, 69, 80
2, 164844, Note_on_c, 1, 66, 0
2, 164914, Note_on_c, 1, 69, 0
2, 165043, Note_on_c, 1, 66, 80
2, 165228, Note_on_c, 1, 69, 80
2, 165254, Note_on_c, 1, 66, 0
2, 165426, Note_on_c, 1, 69, 0
2, 165440, Note_on_c, 1, 64, 80
2, 165625, Note_on_c, 1, 67, 80
2, 165644, Note_on_c, 1, 64, 0
2, 165689, Note_on_c, 1, 67, 0
2, 165824, Note_on_c, 1, 66, 80
2, 166028, Note_on_c, 1, 64, 80
2, 166054, Note_on_c, 1, 66, 0
2, 166233, Note_on_c, 1, 66, 80
2, 166258, Note_on_c, 1, 64, 0
2, 166393, Note_on_c, 1, 69, 80
2, 166405, Note_on_c, 1, 66, 0
2, 166444, Note_on_c, 1, 69, 0
2, 166624, Note_on_c, 1, 74, 80
2, 166809, Note_on_c, 1, 78, 80
2, 166828, Note_on_c, 1, 74, 0
2, 166995, Note_on_c, 1, 69, 80
2, 167001, Note_on_c, 1, 78, 0
2, 167168, Note_on_c, 1, 72, 80
2, 167193, Note_on_c, 1, 69, 0
2, 167232, Note_on_c, 1, 72, 0
2, 167372, Note_on_c, 1, 71, 80
2, 167564, Note_on_c, 1, 69, 80
2, 167583, Note_on_c, 1, 71, 0
2, 167750, Note_on_c, 1, 71, 80
2, 167768, Note_on_c, 1, 69, 0
2, 167923, Note_on_c, 1, 74, 80
2, 167954, Note_on_c, 1, 71, 0
2, 167987, Note_on_c, 1, 74, 0
2, 168121, Note_on_c, 1, 76, 80
2, 168306, Note_on_c, 1, 76, 0
2, 168307, Note_on_c, 1, 79, 80
2, 168396, Note_on_c, 1, 79, 0
2, 168505, Note_on_c, 1, 71, 80
2, 168665, Note_on_c, 1, 74, 80
2, 168671, Note_on_c, 1, 71, 0
2, 168722, Note_on_c, 1, 74, 0
2, 168864, Note_on_c, 1, 73, 80
2, 169056, Note_on_c, 1, 71, 80
2, 169068, Note_on_c, 1, 73, 0
2, 169235, Note_on_c, 1, 73, 80
2, 169248, Note_on_c, 1, 71, 0
2, 169407, Note_on_c, 1, 73, 0
2, 169408, Note_on_c, 1, 76, 80
2, 169465, Note_on_c, 1, 76, 0
2, 169600, Note_on_c, 1, 78, 80
2, 169811, Note_on_c, 1, 78, 0
2, 169811, Note_on_c, 1, 81, 80
2, 169971, Note_on_c, 1, 81, 0
2, 169990, Note_on_c, 1, 73, 80
2, 170143, Note_on_c, 1, 73, 0
2, 170156, Note_on_c, 1, 76, 80
2, 170220, Note_on_c, 1, 76, 0
2, 170368, Note_on_c, 1, 74, 80
2, 170560, Note_on_c, 1, 74, 0
2, 170566, Note_on_c, 1, 73, 80
2, 170745, Note_on_c, 1, 73, 0
2, 170745, Note_on_c, 1, 74, 80
2, 170917, Note_on_c, 1, 74, 0
2, 170918, Note_on_c, 1, 76, 80
2, 170982, Note_on_c, 1, 76, 0
2, 171116, Note_on_c, 1, 74, 80
2, 171212, Note_on_c, 1, 74, 0
2, 171219, Note_on_c, 1, 73, 80
2, 171296, Note_on_c, 1, 74, 80
2, 171302, Note_on_c, 1, 73, 0
2, 171360, Note_on_c, 1, 74, 0
2, 171366, Note_on_c, 1, 73, 80
2, 171404, Note_on_c, 1, 74, 80
2, 171417, Note_on_c, 1, 73, 0
2, 171488, Note_on_c, 1, 73, 80
2, 171564, Note_on_c, 1, 74, 0
2, 171737, Note_on_c, 1, 74, 80
2, 171769, Note_on_c, 1, 73, 0
2, 171801, Note_on_c, 1, 74, 0
2, 171942, Note_on_c, 1, 74, 80
2, 172358, Note_on_c, 1, 74, 0
2, 172736, Note_on_c, 1, 54, 80
2, 172915, Note_on_c, 1, 54, 0
2, 172934, Note_on_c, 1, 57, 80
2, 173068, Note_on_c, 1, 57, 0
2, 173132, Note_on_c, 1, 50, 80
2, 173285, Note_on_c, 1, 50, 0
2, 173318, Note_on_c, 1, 54, 80
2, 173414, Note_on_c, 1, 54, 0
2, 173523, Note_on_c, 1, 57, 80
2, 173715, Note_on_c, 1, 62, 80
2, 173734, Note_on_c, 1, 57, 0
2, 173881, Note_on_c, 1, 54, 80
2, 173887, Note_on_c, 1, 62, 0
2, 174054, Note_on_c, 1, 57, 80
2, 174060, Note_on_c, 1, 54, 0
2, 174173, Note_on_c, 1, 57, 0
2, 174252, Note_on_c, 1, 62, 80
2, 174451, Note_on_c, 1, 66, 80
2, 174476, Note_on_c, 1, 62, 0
2, 174598, Note_on_c, 1, 66, 0
2, 174636, Note_on_c, 1, 57, 80
2, 174770, Note_on_c, 1, 57, 0
2, 174816, Note_on_c, 1, 62, 80
2, 174918, Note_on_c, 1, 62, 0
2, 175014, Note_on_c, 1, 66, 80
2, 175238, Note_on_c, 1, 69, 80
2, 175244, Note_on_c, 1, 66, 0
2, 175391, Note_on_c, 1, 69, 0
2, 175424, Note_on_c, 1, 62, 80
2, 175532, Note_on_c, 1, 62, 0
2, 175596, Note_on_c, 1, 66, 80
2, 175698, Note_on_c, 1, 66, 0
2, 175808, Note_on_c, 1, 69, 80
2, 176006, Note_on_c, 1, 74, 80
2, 176019, Note_on_c, 1, 69, 0
2, 176191, Note_on_c, 1, 74, 0
2, 176192, Note_on_c, 1, 66, 80
2, 176281, Note_on_c, 1, 66, 0
2, 176371, Note_on_c, 1, 69, 80
2, 176490, Note_on_c, 1, 69, 0
2, 176576, Note_on_c, 1, 74, 80
2, 176940, Note_on_c, 1, 69, 80
2, 176953, Note_on_c, 1, 74, 0
2, 177119, Note_on_c, 1, 69, 0
2, 177299, Note_on_c, 1, 66, 80
2, 177471, Note_on_c, 1, 66, 0
2, 177696, Note_on_c, 1, 62, 80
2, 177843, Note_on_c, 1, 62, 0
2, 178464, Note_on_c, 1, 74, 80
2, 178828, Note_on_c, 1, 71, 80
2, 178854, Note_on_c, 1, 74, 0
2, 178968, Note_on_c, 1, 71, 0
2, 179206, Note_on_c, 1, 67, 80
2, 179346, Note_on_c, 1, 67, 0
2, 179980, Note_on_c, 1, 74, 80
2, 180326, Note_on_c, 1, 69, 80
2, 180338, Note_on_c, 1, 74, 0
2, 180466, Note_on_c, 1, 69, 0
2, 180697, Note_on_c, 1, 66, 80
2, 180825, Note_on_c, 1, 66, 0
2, 181523, Note_on_c, 1, 74, 80
2, 181907, Note_on_c, 1, 67, 80
2, 181945, Note_on_c, 1, 74, 0
2, 182060, Note_on_c, 1, 67, 0
2, 182284, Note_on_c, 1, 64, 80
2, 182412, Note_on_c, 1, 64, 0
2, 182694, Note_on_c, 1, 66, 80
2, 183046, Note_on_c, 1, 66, 0
2, 183078, Note_on_c, 1, 74, 80
2, 183231, Note_on_c, 1, 74, 0
2, 183430, Note_on_c, 1, 64, 80
2, 183679, Note_on_c, 1, 64, 0
2, 183808, Note_on_c, 1, 73, 80
2, 183955, Note_on_c, 1, 73, 0
2, 184179, Note_on_c, 1, 62, 80
2, 184454, Note_on_c, 1, 62, 0
2, 184563, Note_on_c, 1, 69, 80
2, 184691, Note_on_c, 1, 69, 0
2, 184947, Note_on_c, 1, 74, 80
2, 185113, Note_on_c, 1, 74, 0
2, 185132, Note_on_c, 1, 76, 80
2, 185285, Note_on_c, 1, 76, 0
2, 185312, Note_on_c, 1, 78, 80
2, 185484, Note_on_c, 1, 79, 80
2, 185497, Note_on_c, 1, 78, 0
2, 185548, Note_on_c, 1, 79, 0
2, 185676, Note_on_c, 1, 83, 80
2, 185900, Note_on_c, 1, 83, 0
2, 185904, Note_on_c, 1, 81, 80
2, 186028, Note_on_c, 1, 81, 0
2, 186033, Note_on_c, 1, 83, 80
2, 186122, Note_on_c, 1, 83, 0
2, 186142, Note_on_c, 1, 81, 80
2, 186236, Note_on_c, 1, 81, 0
2, 186247, Note_on_c, 1, 83, 80
2, 186330, Note_on_c, 1, 83, 0
2, 186347, Note_on_c, 1, 81, 80
2, 186432, Note_on_c, 1, 81, 0
2, 186435, Note_on_c, 1, 83, 80
2, 186511, Note_on_c, 1, 83, 0
2, 186531, Note_on_c, 1, 81, 80
2, 186606, Note_on_c, 1, 81, 0
2, 186607, Note_on_c, 1, 83, 80
2, 186682, Note_on_c, 1, 83, 0
2, 186701, Note_on_c, 1, 81, 80
2, 186777, Note_on_c, 1, 81, 0
2, 186779, Note_on_c, 1, 83, 80
2, 186873, Note_on_c, 1, 81, 80
2, 186879, Note_on_c, 1, 83, 0
2, 186967, Note_on_c, 1, 81, 0
2, 186976, Note_on_c, 1, 83, 80
2, 187055, Note_on_c, 1, 83, 0
2, 187055, Note_on_c, 1, 81, 80
2, 187131, Note_on_c, 1, 81, 0
2, 187136, Note_on_c, 1, 83, 80
2, 187194, Note_on_c, 1, 83, 0
2, 187207, Note_on_c, 1, 81, 80
2, 187248, Note_on_c, 1, 83, 80
2, 187267, Note_on_c, 1, 81, 0
2, 187318, Note_on_c, 1, 81, 80
2, 187326, Note_on_c, 1, 83, 0
2, 187948, Note_on_c, 1, 81, 0
2, 188068, Note_on_c, 1, 81, 80
2, 188227, Note_on_c, 1, 79, 80
2, 188246, Note_on_c, 1, 81, 0
2, 188345, Note_on_c, 1, 79, 0
2, 188356, Note_on_c, 1, 81, 80
2, 188453, Note_on_c, 1, 81, 0
2, 188468, Note_on_c, 1, 79, 80
2, 188555, Note_on_c, 1, 79, 0
2, 188563, Note_on_c, 1, 81, 80
2, 188636, Note_on_c, 1, 81, 0
2, 188647, Note_on_c, 1, 79, 80
2, 188722, Note_on_c, 1, 81, 80
2, 188727, Note_on_c, 1, 79, 0
2, 188805, Note_on_c, 1, 81, 0
2, 188814, Note_on_c, 1, 79, 80
2, 188869, Note_on_c, 1, 81, 80
2, 188873, Note_on_c, 1, 79, 0
2, 188922, Note_on_c, 1, 79, 80
2, 188925, Note_on_c, 1, 81, 0
2, 189460, Note_on_c, 1, 79, 0
2, 189569, Note_on_c, 1, 79, 80
2, 189676, Note_on_c, 1, 78, 80
2, 189681, Note_on_c, 1, 79, 0
2, 189765, Note_on_c, 1, 78, 0
2, 189775, Note_on_c, 1, 79, 80
2, 189869, Note_on_c, 1, 79, 0
2, 189877, Note_on_c, 1, 78, 80
2, 189940, Note_on_c, 1, 78, 0
2, 189945, Note_on_c, 1, 79, 80
2, 190034, Note_on_c, 1, 79, 0
2, 190041, Note_on_c, 1, 78, 80
2, 190082, Note_on_c, 1, 79, 80
2, 190090, Note_on_c, 1, 78, 0
2, 190138, Note_on_c, 1, 78, 80
2, 190144, Note_on_c, 1, 79, 0
2, 190185, Note_on_c, 1, 79, 80
2, 190202, Note_on_c, 1, 78, 0
2, 190258, Note_on_c, 1, 78, 80
2, 190285, Note_on_c, 1, 79, 0
2, 191011, Note_on_c, 1, 78, 0
2, 191165, Note_on_c, 1, 78, 80
2, 191339, Note_on_c, 1, 78, 0
2, 191340, Note_on_c, 1, 76, 80
2, 191435, Note_on_c, 1, 76, 0
2, 191446, Note_on_c, 1, 78, 80
2, 191526, Note_on_c, 1, 78, 0
2, 191553, Note_on_c, 1, 76, 80
2, 191619, Note_on_c, 1, 78, 80
2, 191623, Note_on_c, 1, 76, 0
2, 191701, Note_on_c, 1, 78, 0
2, 191716, Note_on_c, 1, 76, 80
2, 191763, Note_on_c, 1, 78, 80
2, 191781, Note_on_c, 1, 76, 0
2, 191819, Note_on_c, 1, 78, 0
2, 191834, Note_on_c, 1, 76, 80
2, 191875, Note_on_c, 1, 78, 80
2, 191918, Note_on_c, 1, 78, 0
2, 192556, Note_on_c, 1, 76, 0
2, 192668, Note_on_c, 1, 76, 80
2, 192823, Note_on_c, 1, 74, 80
2, 192827, Note_on_c, 1, 76, 0
2, 192924, Note_on_c, 1, 74, 0
2, 192939, Note_on_c, 1, 76, 80
2, 193033, Note_on_c, 1, 76, 0
2, 193043, Note_on_c, 1, 74, 80
2, 193122, Note_on_c, 1, 74, 0
2, 193134, Note_on_c, 1, 76, 80
2, 193218, Note_on_c, 1, 76, 0
2, 193219, Note_on_c, 1, 74, 80
2, 193290, Note_on_c, 1, 76, 80
2, 193295, Note_on_c, 1, 74, 0
2, 193342, Note_on_c, 1, 76, 0
2, 193350, Note_on_c, 1, 74, 80
2, 193390, Note_on_c, 1, 76, 80
2, 193394, Note_on_c, 1, 74, 0
2, 193427, Note_on_c, 1, 74, 80
2, 193435, Note_on_c, 1, 76, 0
2, 194129, Note_on_c, 1, 74, 0
2, 194262, Note_on_c, 1, 74, 80
2, 194364, Note_on_c, 1, 74, 0
2, 194364, Note_on_c, 1, 73, 80
2, 194450, Note_on_c, 1, 73, 0
2, 194464, Note_on_c, 1, 74, 80
2, 194557, Note_on_c, 1, 74, 0
2, 194560, Note_on_c, 1, 73, 80
2, 194632, Note_on_c, 1, 74, 80
2, 194636, Note_on_c, 1, 73, 0
2, 194718, Note_on_c, 1, 73, 80
2, 194722, Note_on_c, 1, 74, 0
2, 194765, Note_on_c, 1, 74, 80
2, 194769, Note_on_c, 1, 73, 0
2, 194836, Note_on_c, 1, 73, 80
2, 194877, Note_on_c, 1, 73, 0
2, 194925, Note_on_c, 1, 73, 80
2, 194944, Note_on_c, 1, 74, 0
2, 195619, Note_on_c, 1, 73, 0
2, 195773, Note_on_c, 1, 73, 80
2, 195889, Note_on_c, 1, 71, 80
2, 195897, Note_on_c, 1, 73, 0
2, 195990, Note_on_c, 1, 71, 0
2, 196013, Note_on_c, 1, 73, 80
2, 196079, Note_on_c, 1, 73, 0
2, 196089, Note_on_c, 1, 71, 80
2, 196182, Note_on_c, 1, 71, 0
2, 196194, Note_on_c, 1, 73, 80
2, 196259, Note_on_c, 1, 73, 0
2, 196264, Note_on_c, 1, 71, 80
2, 196344, Note_on_c, 1, 71, 0
2, 196348, Note_on_c, 1, 73, 80
2, 196403, Note_on_c, 1, 73, 0
2, 196403, Note_on_c, 1, 71, 80
2, 196451, Note_on_c, 1, 73, 80
2, 196452, Note_on_c, 1, 71, 0
2, 196492, Note_on_c, 1, 71, 80
2, 196499, Note_on_c, 1, 73, 0
2, 197153, Note_on_c, 1, 71, 0
2, 197282, Note_on_c, 1, 71, 80
2, 197410, Note_on_c, 1, 70, 80
2, 197413, Note_on_c, 1, 71, 0
2, 197501, Note_on_c, 1, 70, 0
2, 197517, Note_on_c, 1, 71, 80
2, 197590, Note_on_c, 1, 70, 80
2, 197595, Note_on_c, 1, 71, 0
2, 197617, Note_on_c, 1, 71, 80
2, 197621, Note_on_c, 1, 70, 0
2, 197681, Note_on_c, 1, 70, 80
2, 197694, Note_on_c, 1, 71, 0
2, 198018, Note_on_c, 1, 70, 0
2, 198029, Note_on_c, 1, 71, 80
2, 198817, Note_on_c, 1, 71, 0
2, 199187, Note_on_c, 1, 71, 80
2, 199321, Note_on_c, 1, 71, 0
2, 199379, Note_on_c, 1, 73, 80
2, 199443, Note_on_c, 1, 73, 0
2, 199577, Note_on_c, 1, 74, 80
2, 199801, Note_on_c, 1, 74, 0
2, 199974, Note_on_c, 1, 71, 80
2, 200108, Note_on_c, 1, 71, 0
2, 200339, Note_on_c, 1, 76, 80
2, 200518, Note_on_c, 1, 76, 0
2, 200704, Note_on_c, 1, 71, 80
2, 200857, Note_on_c, 1, 71, 0
2, 201094, Note_on_c, 1, 78, 80
2, 201305, Note_on_c, 1, 76, 80
2, 201318, Note_on_c, 1, 78, 0
2, 201445, Note_on_c, 1, 76, 0
2, 201504, Note_on_c, 1, 74, 80
2, 201612, Note_on_c, 1, 74, 0
2, 201696, Note_on_c, 1, 76, 80
2, 201811, Note_on_c, 1, 76, 0
2, 201907, Note_on_c, 1, 78, 80
2, 203052, Note_on_c, 1, 76, 80
2, 203084, Note_on_c, 1, 78, 0
2, 203276, Note_on_c, 1, 76, 0
2, 203424, Note_on_c, 1, 76, 80
2, 203488, Note_on_c, 1, 74, 80
2, 203494, Note_on_c, 1, 76, 0
2, 203532, Note_on_c, 1, 76, 80
2, 203552, Note_on_c, 1, 74, 0
2, 204389, Note_on_c, 1, 76, 0
2, 204390, Note_on_c, 1, 78, 80
2, 204582, Note_on_c, 1, 76, 80
2, 204601, Note_on_c, 1, 78, 0
2, 204729, Note_on_c, 1, 76, 0
2, 204761, Note_on_c, 1, 73, 80
2, 204914, Note_on_c, 1, 73, 0
2, 204940, Note_on_c, 1, 74, 80
2, 205120, Note_on_c, 1, 76, 80
2, 205132, Note_on_c, 1, 74, 0
2, 205312, Note_on_c, 1, 76, 0
2, 205312, Note_on_c, 1, 74, 80
2, 205491, Note_on_c, 1, 71, 80
2, 205497, Note_on_c, 1, 74, 0
2, 205696, Note_on_c, 1, 73, 80
2, 205708, Note_on_c, 1, 71, 0
2, 205888, Note_on_c, 1, 74, 80
2, 205894, Note_on_c, 1, 73, 0
2, 206048, Note_on_c, 1, 74, 0
2, 206073, Note_on_c, 1, 76, 80
2, 206201, Note_on_c, 1, 76, 0
2, 206259, Note_on_c, 1, 78, 80
2, 206348, Note_on_c, 1, 78, 0
2, 206457, Note_on_c, 1, 79, 80
2, 206662, Note_on_c, 1, 78, 80
2, 206693, Note_on_c, 1, 79, 0
2, 206854, Note_on_c, 1, 78, 0
2, 206854, Note_on_c, 1, 76, 80
2, 207033, Note_on_c, 1, 76, 0
2, 207033, Note_on_c, 1, 78, 80
2, 207225, Note_on_c, 1, 78, 0
2, 207232, Note_on_c, 1, 74, 80
2, 207411, Note_on_c, 1, 74, 0
2, 207417, Note_on_c, 1, 73, 80
2, 207615, Note_on_c, 1, 73, 0
2, 207622, Note_on_c, 1, 74, 80
2, 207794, Note_on_c, 1, 74, 0
2, 207808, Note_on_c, 1, 78, 80
2, 207987, Note_on_c, 1, 78, 0
2, 208006, Note_on_c, 1, 83, 80
2, 208223, Note_on_c, 1, 83, 0
2, 208409, Note_on_c, 1, 74, 80
2, 208581, Note_on_c, 1, 74, 0
2, 208800, Note_on_c, 1, 73, 80
2, 208979, Note_on_c, 1, 71, 80
2, 209011, Note_on_c, 1, 73, 0
2, 209139, Note_on_c, 1, 71, 0
2, 209184, Note_on_c, 1, 73, 80
2, 209305, Note_on_c, 1, 73, 0
2, 209369, Note_on_c, 1, 76, 80
2, 209458, Note_on_c, 1, 76, 0
2, 209555, Note_on_c, 1, 81, 80
2, 209740, Note_on_c, 1, 81, 0
2, 209939, Note_on_c, 1, 73, 80
2, 210105, Note_on_c, 1, 73, 0
2, 210323, Note_on_c, 1, 71, 80
2, 210502, Note_on_c, 1, 71, 0
2, 210508, Note_on_c, 1, 70, 80
2, 210668, Note_on_c, 1, 70, 0
2, 210726, Note_on_c, 1, 71, 80
2, 210796, Note_on_c, 1, 71, 0
2, 210886, Note_on_c, 1, 74, 80
2, 210962, Note_on_c, 1, 74, 0
2, 211072, Note_on_c, 1, 79, 80
2, 211238, Note_on_c, 1, 79, 0
2, 211443, Note_on_c, 1, 71, 80
2, 211571, Note_on_c, 1, 71, 0
2, 211820, Note_on_c, 1, 70, 80
2, 211999, Note_on_c, 1, 70, 0
2, 212000, Note_on_c, 1, 68, 80
2, 212172, Note_on_c, 1, 68, 0
2, 212185, Note_on_c, 1, 70, 80
2, 212255, Note_on_c, 1, 70, 0
2, 212377, Note_on_c, 1, 78, 80
2, 212466, Note_on_c, 1, 78, 0
2, 212627, Note_on_c, 1, 76, 80
2, 212844, Note_on_c, 1, 79, 80
2, 212857, Note_on_c, 1, 76, 0
2, 212997, Note_on_c, 1, 79, 0
2, 213011, Note_on_c, 1, 73, 80
2, 213184, Note_on_c, 1, 76, 80
2, 213209, Note_on_c, 1, 73, 0
2, 213228, Note_on_c, 1, 76, 0
2, 213376, Note_on_c, 1, 70, 80
2, 213561, Note_on_c, 1, 68, 80
2, 213580, Note_on_c, 1, 70, 0
2, 213766, Note_on_c, 1, 70, 80
2, 213797, Note_on_c, 1, 68, 0
2, 213919, Note_on_c, 1, 70, 0
2, 213964, Note_on_c, 1, 76, 80
2, 214098, Note_on_c, 1, 76, 0
2, 214169, Note_on_c, 1, 73, 80
2, 214355, Note_on_c, 1, 76, 80
2, 214361, Note_on_c, 1, 73, 0
2, 214508, Note_on_c, 1, 76, 0
2, 214540, Note_on_c, 1, 70, 80
2, 214706, Note_on_c, 1, 70, 0
2, 214713, Note_on_c, 1, 73, 80
2, 214796, Note_on_c, 1, 73, 0
2, 214924, Note_on_c, 1, 66, 80
2, 215295, Note_on_c, 1, 66, 0
2, 215321, Note_on_c, 1, 71, 80
2, 215679, Note_on_c, 1, 71, 0
2, 215680, Note_on_c, 1, 75, 80
2, 215801, Note_on_c, 1, 75, 0
2, 216038, Note_on_c, 1, 78, 80
2, 216140, Note_on_c, 1, 78, 0
2, 216428, Note_on_c, 1, 81, 80
2, 216832, Note_on_c, 1, 78, 80
2, 216863, Note_on_c, 1, 81, 0
2, 217177, Note_on_c, 1, 78, 0
2, 217177, Note_on_c, 1, 75, 80
2, 217330, Note_on_c, 1, 75, 0
2, 217619, Note_on_c, 1, 69, 80
2, 218041, Note_on_c, 1, 69, 0
2, 218252, Note_on_c, 1, 66, 80
2, 218364, Note_on_c, 1, 66, 0
2, 218387, Note_on_c, 1, 68, 80
2, 218476, Note_on_c, 1, 68, 0
2, 218585, Note_on_c, 1, 76, 80
2, 218703, Note_on_c, 1, 76, 0
2, 218790, Note_on_c, 1, 74, 80
2, 218982, Note_on_c, 1, 78, 80
2, 219001, Note_on_c, 1, 74, 0
2, 219155, Note_on_c, 1, 71, 80
2, 219161, Note_on_c, 1, 78, 0
2, 219334, Note_on_c, 1, 74, 80
2, 219353, Note_on_c, 1, 71, 0
2, 219458, Note_on_c, 1, 74, 0
2, 219539, Note_on_c, 1, 68, 80
2, 219737, Note_on_c, 1, 66, 80
2, 219756, Note_on_c, 1, 68, 0
2, 219942, Note_on_c, 1, 68, 80
2, 219980, Note_on_c, 1, 66, 0
2, 220114, Note_on_c, 1, 68, 0
2, 220134, Note_on_c, 1, 74, 80
2, 220268, Note_on_c, 1, 74, 0
2, 220320, Note_on_c, 1, 71, 80
2, 220531, Note_on_c, 1, 74, 80
2, 220537, Note_on_c, 1, 71, 0
2, 220704, Note_on_c, 1, 68, 80
2, 220710, Note_on_c, 1, 74, 0
2, 220870, Note_on_c, 1, 68, 0
2, 220883, Note_on_c, 1, 71, 80
2, 220953, Note_on_c, 1, 71, 0
2, 221094, Note_on_c, 1, 64, 80
2, 221478, Note_on_c, 1, 64, 0
2, 221478, Note_on_c, 1, 69, 80
2, 221823, Note_on_c, 1, 69, 0
2, 221824, Note_on_c, 1, 73, 80
2, 222016, Note_on_c, 1, 73, 0
2, 222188, Note_on_c, 1, 76, 80
2, 222328, Note_on_c, 1, 76, 0
2, 222572, Note_on_c, 1, 79, 80
2, 222976, Note_on_c, 1, 76, 80
2, 222988, Note_on_c, 1, 79, 0
2, 223321, Note_on_c, 1, 76, 0
2, 223347, Note_on_c, 1, 73, 80
2, 223507, Note_on_c, 1, 73, 0
2, 223750, Note_on_c, 1, 67, 80
2, 224262, Note_on_c, 1, 67, 0
2, 224371, Note_on_c, 1, 64, 80
2, 224473, Note_on_c, 1, 64, 0
2, 224569, Note_on_c, 1, 66, 80
2, 224665, Note_on_c, 1, 66, 0
2, 224755, Note_on_c, 1, 69, 80
2, 224857, Note_on_c, 1, 69, 0
2, 224940, Note_on_c, 1, 71, 80
2, 225266, Note_on_c, 1, 71, 0
2, 225305, Note_on_c, 1, 69, 80
2, 225695, Note_on_c, 1, 69, 0
2, 225926, Note_on_c, 1, 66, 80
2, 226099, Note_on_c, 1, 68, 80
2, 226111, Note_on_c, 1, 66, 0
2, 226233, Note_on_c, 1, 68, 0
2, 226291, Note_on_c, 1, 71, 80
2, 226399, Note_on_c, 1, 71, 0
2, 226483, Note_on_c, 1, 73, 80
2, 226803, Note_on_c, 1, 73, 0
2, 226848, Note_on_c, 1, 71, 80
2, 227193, Note_on_c, 1, 71, 0
2, 227385, Note_on_c, 1, 68, 80
2, 227584, Note_on_c, 1, 69, 80
2, 227609, Note_on_c, 1, 68, 0
2, 227724, Note_on_c, 1, 69, 0
2, 227756, Note_on_c, 1, 73, 80
2, 227884, Note_on_c, 1, 73, 0
2, 227980, Note_on_c, 1, 74, 80
2, 228345, Note_on_c, 1, 73, 80
2, 228376, Note_on_c, 1, 74, 0
2, 228703, Note_on_c, 1, 73, 0
2, 228940, Note_on_c, 1, 69, 80
2, 229132, Note_on_c, 1, 71, 80
2, 229164, Note_on_c, 1, 69, 0
2, 229266, Note_on_c, 1, 71, 0
2, 229299, Note_on_c, 1, 74, 80
2, 229446, Note_on_c, 1, 74, 0
2, 229516, Note_on_c, 1, 76, 80
2, 229848, Note_on_c, 1, 76, 0
2, 229856, Note_on_c, 1, 74, 80
2, 230227, Note_on_c, 1, 74, 0
2, 230438, Note_on_c, 1, 71, 80
2, 230617, Note_on_c, 1, 73, 80
2, 230642, Note_on_c, 1, 71, 0
2, 230719, Note_on_c, 1, 73, 0
2, 230796, Note_on_c, 1, 76, 80
2, 230866, Note_on_c, 1, 76, 0
2, 231001, Note_on_c, 1, 81, 80
2, 231263, Note_on_c, 1, 81, 0
2, 231449, Note_on_c, 1, 73, 80
2, 231845, Note_on_c, 1, 73, 0
2, 232064, Note_on_c, 1, 69, 80
2, 232236, Note_on_c, 1, 69, 0
2, 232243, Note_on_c, 1, 71, 80
2, 232358, Note_on_c, 1, 71, 0
2, 232409, Note_on_c, 1, 74, 80
2, 232498, Note_on_c, 1, 74, 0
2, 232614, Note_on_c, 1, 80, 80
2, 232889, Note_on_c, 1, 80, 0
2, 232998, Note_on_c, 1, 71, 80
2, 233446, Note_on_c, 1, 71, 0
2, 233612, Note_on_c, 1, 68, 80
2, 233791, Note_on_c, 1, 68, 0
2, 233798, Note_on_c, 1, 69, 80
2, 233945, Note_on_c, 1, 69, 0
2, 233964, Note_on_c, 1, 73, 80
2, 234077, Note_on_c, 1, 73, 0
2, 234188, Note_on_c, 1, 78, 80
2, 234508, Note_on_c, 1, 78, 0
2, 234553, Note_on_c, 1, 69, 80
2, 234969, Note_on_c, 1, 69, 0
2, 235148, Note_on_c, 1, 66, 80
2, 235321, Note_on_c, 1, 67, 80
2, 235327, Note_on_c, 1, 66, 0
2, 235481, Note_on_c, 1, 67, 0
2, 235494, Note_on_c, 1, 71, 80
2, 235613, Note_on_c, 1, 71, 0
2, 235692, Note_on_c, 1, 76, 80
2, 236037, Note_on_c, 1, 76, 0
2, 236051, Note_on_c, 1, 67, 80
2, 236479, Note_on_c, 1, 67, 0
2, 236672, Note_on_c, 1, 64, 80
2, 236851, Note_on_c, 1, 66, 80
2, 236876, Note_on_c, 1, 64, 0
2, 236934, Note_on_c, 1, 66, 0
2, 237024, Note_on_c, 1, 69, 80
2, 237113, Note_on_c, 1, 69, 0
2, 237222, Note_on_c, 1, 74, 80
2, 237516, Note_on_c, 1, 74, 0
2, 237612, Note_on_c, 1, 66, 80
2, 237964, Note_on_c, 1, 66, 0
2, 238182, Note_on_c, 1, 62, 80
2, 238354, Note_on_c, 1, 62, 0
2, 238361, Note_on_c, 1, 64, 80
2, 238476, Note_on_c, 1, 64, 0
2, 238528, Note_on_c, 1, 68, 80
2, 238604, Note_on_c, 1, 68, 0
2, 238739, Note_on_c, 1, 73, 80
2, 239001, Note_on_c, 1, 73, 0
2, 239110, Note_on_c, 1, 64, 80
2, 239513, Note_on_c, 1, 64, 0
2, 239705, Note_on_c, 1, 61, 80
2, 239884, Note_on_c, 1, 62, 80
2, 239909, Note_on_c, 1, 61, 0
2, 240012, Note_on_c, 1, 62, 0
2, 240057, Note_on_c, 1, 66, 80
2, 240127, Note_on_c, 1, 66, 0
2, 240243, Note_on_c, 1, 71, 80
2, 241228, Note_on_c, 1, 68, 80
2, 241241, Note_on_c, 1, 71, 0
2, 241311, Note_on_c, 1, 68, 0
2, 241420, Note_on_c, 1, 69, 80
2, 241944, Note_on_c, 1, 69, 0
2, 242009, Note_on_c, 1, 66, 80
2, 242092, Note_on_c, 1, 66, 0
2, 242214, Note_on_c, 1, 67, 80
2, 242745, Note_on_c, 1, 67, 0
2, 242764, Note_on_c, 1, 66, 80
2, 242834, Note_on_c, 1, 66, 0
2, 242841, Note_on_c, 1, 64, 80
2, 242879, Note_on_c, 1, 64, 0
2, 242912, Note_on_c, 1, 66, 80
2, 243110, Note_on_c, 1, 66, 0
2, 243116, Note_on_c, 1, 68, 80
2, 243301, Note_on_c, 1, 68, 0
2, 243308, Note_on_c, 1, 69, 80
2, 243493, Note_on_c, 1, 69, 0
2, 243507, Note_on_c, 1, 73, 80
2, 243564, Note_on_c, 1, 73, 0
2, 243692, Note_on_c, 1, 71, 80
2, 243872, Note_on_c, 1, 69, 80
2, 243877, Note_on_c, 1, 71, 0
2, 243974, Note_on_c, 1, 69, 0
2, 244089, Note_on_c, 1, 68, 80
2, 244281, Note_on_c, 1, 68, 0
2, 244288, Note_on_c, 1, 64, 80
2, 244505, Note_on_c, 1, 64, 0
2, 244505, Note_on_c, 1, 66, 80
2, 244678, Note_on_c, 1, 68, 80
2, 244690, Note_on_c, 1, 66, 0
2, 244895, Note_on_c, 1, 68, 0
2, 244923, Note_on_c, 1, 69, 80
2, 245016, Note_on_c, 1, 69, 0
2, 245030, Note_on_c, 1, 71, 80
2, 245097, Note_on_c, 1, 69, 80
2, 245118, Note_on_c, 1, 71, 0
2, 245208, Note_on_c, 1, 69, 0
2, 245208, Note_on_c, 1, 68, 80
2, 245315, Note_on_c, 1, 68, 0
2, 245326, Note_on_c, 1, 69, 80
2, 245525, Note_on_c, 1, 71, 80
2, 245529, Note_on_c, 1, 69, 0
2, 245736, Note_on_c, 1, 71, 0
2, 245744, Note_on_c, 1, 73, 80
2, 245876, Note_on_c, 1, 73, 0
2, 245926, Note_on_c, 1, 71, 80
2, 246098, Note_on_c, 1, 71, 0
2, 246099, Note_on_c, 1, 69, 80
2, 246214, Note_on_c, 1, 69, 0
2, 246284, Note_on_c, 1, 73, 80
2, 246392, Note_on_c, 1, 73, 0
2, 246476, Note_on_c, 1, 74, 80
2, 246688, Note_on_c, 1, 73, 80
2, 246706, Note_on_c, 1, 74, 0
2, 246867, Note_on_c, 1, 73, 0
2, 246867, Note_on_c, 1, 71, 80
2, 247046, Note_on_c, 1, 69, 80
2, 247065, Note_on_c, 1, 71, 0
2, 247206, Note_on_c, 1, 69, 0
2, 247225, Note_on_c, 1, 76, 80
2, 247430, Note_on_c, 1, 74, 80
2, 247442, Note_on_c, 1, 76, 0
2, 247602, Note_on_c, 1, 74, 0
2, 247609, Note_on_c, 1, 73, 80
2, 247775, Note_on_c, 1, 73, 0
2, 247782, Note_on_c, 1, 74, 80
2, 247871, Note_on_c, 1, 74, 0
2, 247968, Note_on_c, 1, 76, 80
2, 248012, Note_on_c, 1, 74, 80
2, 248038, Note_on_c, 1, 76, 0
2, 248076, Note_on_c, 1, 76, 80
2, 248101, Note_on_c, 1, 74, 0
2, 249125, Note_on_c, 1, 76, 0
2, 249126, Note_on_c, 1, 74, 80
2, 249350, Note_on_c, 1, 74, 0
2, 249516, Note_on_c, 1, 74, 80
2, 249580, Note_on_c, 1, 74, 0
2, 249580, Note_on_c, 1, 73, 80
2, 249625, Note_on_c, 1, 74, 80
2, 249644, Note_on_c, 1, 73, 0
2, 250341, Note_on_c, 1, 74, 0
2, 250509, Note_on_c, 1, 76, 80
2, 250650, Note_on_c, 1, 76, 0
2, 250663, Note_on_c, 1, 74, 80
2, 250825, Note_on_c, 1, 71, 80
2, 250833, Note_on_c, 1, 74, 0
2, 251015, Note_on_c, 1, 73, 80
2, 251037, Note_on_c, 1, 71, 0
2, 251203, Note_on_c, 1, 74, 80
2, 251207, Note_on_c, 1, 73, 0
2, 251407, Note_on_c, 1, 73, 80
2, 251431, Note_on_c, 1, 74, 0
2, 251564, Note_on_c, 1, 69, 80
2, 251567, Note_on_c, 1, 73, 0
2, 251749, Note_on_c, 1, 71, 80
2, 251797, Note_on_c, 1, 69, 0
2, 251948, Note_on_c, 1, 73, 80
2, 251961, Note_on_c, 1, 71, 0
2, 252152, Note_on_c, 1, 73, 0
2, 252160, Note_on_c, 1, 74, 80
2, 252345, Note_on_c, 1, 76, 80
2, 252358, Note_on_c, 1, 74, 0
2, 252524, Note_on_c, 1, 76, 0
2, 252537, Note_on_c, 1, 78, 80
2, 252741, Note_on_c, 1, 78, 0
2, 252742, Note_on_c, 1, 76, 80
2, 252934, Note_on_c, 1, 74, 80
2, 252946, Note_on_c, 1, 76, 0
2, 253132, Note_on_c, 1, 76, 80
2, 253138, Note_on_c, 1, 74, 0
2, 253228, Note_on_c, 1, 76, 0
2, 253324, Note_on_c, 1, 73, 80
2, 253509, Note_on_c, 1, 73, 0
2, 253516, Note_on_c, 1, 71, 80
2, 253702, Note_on_c, 1, 69, 80
2, 253714, Note_on_c, 1, 71, 0
2, 253874, Note_on_c, 1, 69, 0
2, 253888, Note_on_c, 1, 71, 80
2, 254009, Note_on_c, 1, 71, 0
2, 254073, Note_on_c, 1, 73, 80
2, 254265, Note_on_c, 1, 75, 80
2, 254271, Note_on_c, 1, 73, 0
2, 254438, Note_on_c, 1, 76, 80
2, 254444, Note_on_c, 1, 75, 0
2, 254610, Note_on_c, 1, 76, 0
2, 254649, Note_on_c, 1, 75, 80
2, 254757, Note_on_c, 1, 75, 0
2, 254848, Note_on_c, 1, 76, 80
2, 255078, Note_on_c, 1, 78, 80
2, 255091, Note_on_c, 1, 76, 0
2, 255257, Note_on_c, 1, 78, 0
2, 255257, Note_on_c, 1, 80, 80
2, 255365, Note_on_c, 1, 80, 0
2, 255436, Note_on_c, 1, 76, 80
2, 255589, Note_on_c, 1, 76, 0
2, 255622, Note_on_c, 1, 78, 80
2, 255801, Note_on_c, 1, 80, 80
2, 255814, Note_on_c, 1, 78, 0
2, 255993, Note_on_c, 1, 80, 0
2, 255993, Note_on_c, 1, 81, 80
2, 256172, Note_on_c, 1, 81, 0
2, 256172, Note_on_c, 1, 78, 80
2, 256280, Note_on_c, 1, 78, 0
2, 256358, Note_on_c, 1, 80, 80
2, 256550, Note_on_c, 1, 81, 80
2, 256556, Note_on_c, 1, 80, 0
2, 256768, Note_on_c, 1, 83, 80
2, 256774, Note_on_c, 1, 81, 0
2, 256947, Note_on_c, 1, 83, 0
2, 256947, Note_on_c, 1, 81, 80
2, 257164, Note_on_c, 1, 80, 80
2, 257177, Note_on_c, 1, 81, 0
2, 257362, Note_on_c, 1, 80, 0
2, 257363, Note_on_c, 1, 78, 80
2, 257548, Note_on_c, 1, 78, 0
2, 257555, Note_on_c, 1, 76, 80
2, 257753, Note_on_c, 1, 74, 80
2, 257766, Note_on_c, 1, 76, 0
2, 257919, Note_on_c, 1, 74, 0
2, 257945, Note_on_c, 1, 73, 80
2, 258124, Note_on_c, 1, 71, 80
2, 258149, Note_on_c, 1, 73, 0
2, 258310, Note_on_c, 1, 73, 80
2, 258316, Note_on_c, 1, 71, 0
2, 258483, Note_on_c, 1, 76, 80
2, 258502, Note_on_c, 1, 73, 0
2, 258579, Note_on_c, 1, 76, 0
2, 258675, Note_on_c, 1, 75, 80
2, 258867, Note_on_c, 1, 75, 0
2, 258873, Note_on_c, 1, 73, 80
2, 259040, Note_on_c, 1, 75, 80
2, 259071, Note_on_c, 1, 73, 0
2, 259225, Note_on_c, 1, 75, 0
2, 259225, Note_on_c, 1, 78, 80
2, 259391, Note_on_c, 1, 78, 0
2, 259430, Note_on_c, 1, 76, 80
2, 259622, Note_on_c, 1, 76, 0
2, 259833, Note_on_c, 1, 71, 80
2, 259993, Note_on_c, 1, 71, 0
2, 260185, Note_on_c, 1, 76, 80
2, 261440, Note_on_c, 1, 74, 80
2, 261471, Note_on_c, 1, 76, 0
2, 261568, Note_on_c, 1, 74, 0
2, 261843, Note_on_c, 1, 74, 80
2, 262828, Note_on_c, 1, 76, 80
2, 262841, Note_on_c, 1, 74, 0
2, 263000, Note_on_c, 1, 76, 0
2, 263008, Note_on_c, 1, 74, 80
2, 263174, Note_on_c, 1, 71, 80
2, 263187, Note_on_c, 1, 74, 0
2, 263360, Note_on_c, 1, 73, 80
2, 263398, Note_on_c, 1, 71, 0
2, 263539, Note_on_c, 1, 73, 0
2, 263545, Note_on_c, 1, 74, 80
2, 263712, Note_on_c, 1, 73, 80
2, 263730, Note_on_c, 1, 74, 0
2, 263865, Note_on_c, 1, 73, 0
2, 263872, Note_on_c, 1, 69, 80
2, 264000, Note_on_c, 1, 69, 0
2, 264057, Note_on_c, 1, 76, 80
2, 264274, Note_on_c, 1, 76, 0
2, 264422, Note_on_c, 1, 64, 80
2, 264524, Note_on_c, 1, 64, 0
2, 264800, Note_on_c, 1, 66, 80
2, 264921, Note_on_c, 1, 66, 0
2, 265222, Note_on_c, 1, 78, 80
2, 265798, Note_on_c, 1, 78, 0
2, 265811, Note_on_c, 1, 80, 80
2, 265996, Note_on_c, 1, 78, 80
2, 266047, Note_on_c, 1, 80, 0
2, 266149, Note_on_c, 1, 78, 0
2, 266176, Note_on_c, 1, 75, 80
2, 266265, Note_on_c, 1, 75, 0
2, 266368, Note_on_c, 1, 76, 80
2, 267347, Note_on_c, 1, 78, 80
2, 267353, Note_on_c, 1, 76, 0
2, 267545, Note_on_c, 1, 76, 80
2, 267577, Note_on_c, 1, 78, 0
2, 267737, Note_on_c, 1, 73, 80
2, 267743, Note_on_c, 1, 76, 0
2, 267916, Note_on_c, 1, 73, 0
2, 267916, Note_on_c, 1, 74, 80
2, 268108, Note_on_c, 1, 74, 0
2, 268115, Note_on_c, 1, 76, 80
2, 268300, Note_on_c, 1, 76, 0
2, 268300, Note_on_c, 1, 74, 80
2, 268472, Note_on_c, 1, 74, 0
2, 268486, Note_on_c, 1, 71, 80
2, 268601, Note_on_c, 1, 71, 0
2, 268659, Note_on_c, 1, 77, 80
2, 268870, Note_on_c, 1, 77, 0
2, 269024, Note_on_c, 1, 65, 80
2, 269139, Note_on_c, 1, 65, 0
2, 269388, Note_on_c, 1, 66, 80
2, 269618, Note_on_c, 1, 66, 0
2, 269798, Note_on_c, 1, 78, 80
2, 270214, Note_on_c, 1, 78, 0
2, 270380, Note_on_c, 1, 81, 80
2, 270546, Note_on_c, 1, 81, 0
2, 270566, Note_on_c, 1, 80, 80
2, 270751, Note_on_c, 1, 80, 0
2, 270752, Note_on_c, 1, 78, 80
2, 270944, Note_on_c, 1, 78, 0
2, 270950, Note_on_c, 1, 77, 80
2, 271148, Note_on_c, 1, 75, 80
2, 271154, Note_on_c, 1, 77, 0
2, 271340, Note_on_c, 1, 73, 80
2, 271352, Note_on_c, 1, 75, 0
2, 271532, Note_on_c, 1, 73, 0
2, 271532, Note_on_c, 1, 71, 80
2, 271672, Note_on_c, 1, 71, 0
2, 271737, Note_on_c, 1, 69, 80
2, 272742, Note_on_c, 1, 71, 80
2, 272773, Note_on_c, 1, 69, 0
2, 272934, Note_on_c, 1, 69, 80
2, 272946, Note_on_c, 1, 71, 0
2, 273094, Note_on_c, 1, 69, 0
2, 273113, Note_on_c, 1, 66, 80
2, 273221, Note_on_c, 1, 66, 0
2, 273299, Note_on_c, 1, 68, 80
2, 273663, Note_on_c, 1, 68, 0
2, 273907, Note_on_c, 1, 70, 80
2, 274003, Note_on_c, 1, 70, 0
2, 274086, Note_on_c, 1, 71, 80
2, 274495, Note_on_c, 1, 71, 0
2, 274668, Note_on_c, 1, 76, 80
2, 274860, Note_on_c, 1, 76, 0
2, 274860, Note_on_c, 1, 69, 80
2, 275052, Note_on_c, 1, 69, 0
2, 275065, Note_on_c, 1, 68, 80
2, 275244, Note_on_c, 1, 68, 0
2, 275251, Note_on_c, 1, 69, 80
2, 275411, Note_on_c, 1, 73, 80
2, 275430, Note_on_c, 1, 69, 0
2, 275494, Note_on_c, 1, 73, 0
2, 275603, Note_on_c, 1, 74, 80
2, 275795, Note_on_c, 1, 78, 80
2, 275807, Note_on_c, 1, 74, 0
2, 275961, Note_on_c, 1, 78, 0
2, 275987, Note_on_c, 1, 76, 80
2, 276172, Note_on_c, 1, 74, 80
2, 276217, Note_on_c, 1, 76, 0
2, 276364, Note_on_c, 1, 73, 80
2, 276370, Note_on_c, 1, 74, 0
2, 276537, Note_on_c, 1, 71, 80
2, 276549, Note_on_c, 1, 73, 0
2, 276716, Note_on_c, 1, 71, 0
2, 276723, Note_on_c, 1, 73, 80
2, 276838, Note_on_c, 1, 73, 0
2, 276921, Note_on_c, 1, 69, 80
2, 277055, Note_on_c, 1, 69, 0
2, 277113, Note_on_c, 1, 71, 80
2, 277247, Note_on_c, 1, 71, 0
2, 277484, Note_on_c, 1, 76, 80
2, 278124, Note_on_c, 1, 76, 0
2, 278124, Note_on_c, 1, 74, 80
2, 278310, Note_on_c, 1, 76, 80
2, 278316, Note_on_c, 1, 74, 0
2, 278489, Note_on_c, 1, 79, 80
2, 278508, Note_on_c, 1, 76, 0
2, 278681, Note_on_c, 1, 78, 80
2, 278687, Note_on_c, 1, 79, 0
2, 278885, Note_on_c, 1, 78, 0
2, 278886, Note_on_c, 1, 76, 80
2, 279072, Note_on_c, 1, 78, 80
2, 279116, Note_on_c, 1, 76, 0
2, 279238, Note_on_c, 1, 78, 0
2, 279238, Note_on_c, 1, 81, 80
2, 279430, Note_on_c, 1, 79, 80
2, 279436, Note_on_c, 1, 81, 0
2, 279635, Note_on_c, 1, 81, 80
2, 279654, Note_on_c, 1, 79, 0
2, 279801, Note_on_c, 1, 79, 80
2, 279807, Note_on_c, 1, 81, 0
2, 279980, Note_on_c, 1, 76, 80
2, 279986, Note_on_c, 1, 79, 0
2, 280140, Note_on_c, 1, 76, 0
2, 280172, Note_on_c, 1, 78, 80
2, 280371, Note_on_c, 1, 79, 80
2, 280376, Note_on_c, 1, 78, 0
2, 280544, Note_on_c, 1, 78, 80
2, 280569, Note_on_c, 1, 79, 0
2, 280716, Note_on_c, 1, 78, 0
2, 280729, Note_on_c, 1, 74, 80
2, 280876, Note_on_c, 1, 74, 0
2, 280934, Note_on_c, 1, 76, 80
2, 281222, Note_on_c, 1, 76, 0
2, 281299, Note_on_c, 1, 69, 80
2, 281459, Note_on_c, 1, 69, 0
2, 281676, Note_on_c, 1, 81, 80
2, 282694, Note_on_c, 1, 83, 80
2, 282717, Note_on_c, 1, 81, 0
2, 282847, Note_on_c, 1, 83, 0
2, 282924, Note_on_c, 1, 81, 80
2, 283116, Note_on_c, 1, 81, 0
2, 283138, Note_on_c, 1, 78, 80
2, 283317, Note_on_c, 1, 78, 0
2, 283347, Note_on_c, 1, 79, 80
2, 283526, Note_on_c, 1, 81, 80
2, 283539, Note_on_c, 1, 79, 0
2, 283718, Note_on_c, 1, 79, 80
2, 283724, Note_on_c, 1, 81, 0
2, 283878, Note_on_c, 1, 79, 0
2, 283891, Note_on_c, 1, 76, 80
2, 284044, Note_on_c, 1, 76, 0
2, 284070, Note_on_c, 1, 78, 80
2, 284454, Note_on_c, 1, 80, 80
2, 284473, Note_on_c, 1, 78, 0
2, 284640, Note_on_c, 1, 81, 80
2, 284646, Note_on_c, 1, 80, 0
2, 284780, Note_on_c, 1, 81, 0
2, 284844, Note_on_c, 1, 83, 80
2, 285676, Note_on_c, 1, 83, 0
2, 286022, Note_on_c, 1, 69, 80
2, 286406, Note_on_c, 1, 73, 80
2, 286457, Note_on_c, 1, 69, 0
2, 286638, Note_on_c, 1, 73, 0
2, 286803, Note_on_c, 1, 76, 80
2, 287028, Note_on_c, 1, 76, 0
2, 287212, Note_on_c, 1, 79, 80
2, 287596, Note_on_c, 1, 76, 80
2, 287615, Note_on_c, 1, 79, 0
2, 287968, Note_on_c, 1, 73, 80
2, 287973, Note_on_c, 1, 76, 0
2, 288179, Note_on_c, 1, 73, 0
2, 288326, Note_on_c, 1, 67, 80
2, 288735, Note_on_c, 1, 67, 0
2, 288940, Note_on_c, 1, 64, 80
2, 289120, Note_on_c, 1, 66, 80
2, 289125, Note_on_c, 1, 64, 0
2, 289273, Note_on_c, 1, 66, 0
2, 289299, Note_on_c, 1, 74, 80
2, 289484, Note_on_c, 1, 74, 0
2, 289484, Note_on_c, 1, 69, 80
2, 289670, Note_on_c, 1, 74, 80
2, 289688, Note_on_c, 1, 69, 0
2, 289817, Note_on_c, 1, 74, 0
2, 289836, Note_on_c, 1, 66, 80
2, 290009, Note_on_c, 1, 69, 80
2, 290040, Note_on_c, 1, 66, 0
2, 290181, Note_on_c, 1, 69, 0
2, 290195, Note_on_c, 1, 62, 80
2, 290380, Note_on_c, 1, 62, 0
2, 290387, Note_on_c, 1, 61, 80
2, 290579, Note_on_c, 1, 62, 80
2, 290585, Note_on_c, 1, 61, 0
2, 290745, Note_on_c, 1, 69, 80
2, 290764, Note_on_c, 1, 62, 0
2, 290949, Note_on_c, 1, 69, 0
2, 290950, Note_on_c, 1, 66, 80
2, 291148, Note_on_c, 1, 69, 80
2, 291154, Note_on_c, 1, 66, 0
2, 291328, Note_on_c, 1, 62, 80
2, 291340, Note_on_c, 1, 69, 0
2, 291507, Note_on_c, 1, 66, 80
2, 291545, Note_on_c, 1, 62, 0
2, 291650, Note_on_c, 1, 66, 0
2, 291763, Note_on_c, 1, 59, 80
2, 292153, Note_on_c, 1, 56, 80
2, 292204, Note_on_c, 1, 59, 0
2, 292492, Note_on_c, 1, 56, 0
2, 292524, Note_on_c, 1, 59, 80
2, 292735, Note_on_c, 1, 59, 0
2, 292915, Note_on_c, 1, 62, 80
2, 293055, Note_on_c, 1, 62, 0
2, 293280, Note_on_c, 1, 65, 80
2, 293644, Note_on_c, 1, 65, 0
2, 293657, Note_on_c, 1, 59, 80
2, 293759, Note_on_c, 1, 59, 0
2, 294048, Note_on_c, 1, 62, 80
2, 294425, Note_on_c, 1, 71, 80
2, 294515, Note_on_c, 1, 69, 80
2, 294540, Note_on_c, 1, 71, 0
2, 294611, Note_on_c, 1, 68, 80
2, 294617, Note_on_c, 1, 69, 0
2, 294783, Note_on_c, 1, 68, 0
2, 294803, Note_on_c, 1, 69, 80
2, 294918, Note_on_c, 1, 62, 0
2, 294995, Note_on_c, 1, 61, 80
2, 295097, Note_on_c, 1, 61, 0
2, 295219, Note_on_c, 1, 62, 80
2, 295833, Note_on_c, 1, 64, 80
2, 295839, Note_on_c, 1, 62, 0
2, 296019, Note_on_c, 1, 62, 80
2, 296025, Note_on_c, 1, 64, 0
2, 296191, Note_on_c, 1, 62, 0
2, 296192, Note_on_c, 1, 59, 80
2, 296409, Note_on_c, 1, 59, 0
2, 296409, Note_on_c, 1, 61, 80
2, 298015, Note_on_c, 1, 61, 0
2, 298028, Note_on_c, 1, 69, 0
2, 298028, End_track
3, 0, Start_track
3, 0, Title_t, "LH"
3, 0, MIDI_port, 0
3, 0, Control_c, 2, 7, 108
3, 0, Control_c, 2, 93, 0
3, 0, Control_c, 2, 91, 110
3, 0, Control_c, 2, 10, 85
3, 0, Program_c, 2, 25
3, 5670, Note_on_c, 2, 64, 80
3, 5964, Note_on_c, 2, 64, 0
3, 6060, Note_on_c, 2, 66, 80
3, 6259, Note_on_c, 2, 64, 80
3, 6264, Note_on_c, 2, 66, 0
3, 6451, Note_on_c, 2, 66, 80
3, 6489, Note_on_c, 2, 64, 0
3, 6643, Note_on_c, 2, 69, 80
3, 6655, Note_on_c, 2, 66, 0
3, 6758, Note_on_c, 2, 69, 0
3, 6835, Note_on_c, 2, 68, 80
3, 7027, Note_on_c, 2, 68, 0
3, 7027, Note_on_c, 2, 66, 80
3, 7206, Note_on_c, 2, 68, 80
3, 7219, Note_on_c, 2, 66, 0
3, 7385, Note_on_c, 2, 71, 80
3, 7391, Note_on_c, 2, 68, 0
3, 7545, Note_on_c, 2, 71, 0
3, 7616, Note_on_c, 2, 69, 80
3, 7673, Note_on_c, 2, 69, 0
3, 7673, Note_on_c, 2, 68, 80
3, 7731, Note_on_c, 2, 69, 80
3, 7743, Note_on_c, 2, 68, 0
3, 9798, Note_on_c, 2, 69, 0
3, 9900, Note_on_c, 2, 69, 80
3, 10008, Note_on_c, 2, 69, 0
3, 10022, Note_on_c, 2, 68, 80
3, 10099, Note_on_c, 2, 69, 80
3, 10105, Note_on_c, 2, 68, 0
3, 10175, Note_on_c, 2, 69, 0
3, 10182, Note_on_c, 2, 68, 80
3, 10208, Note_on_c, 2, 69, 80
3, 10220, Note_on_c, 2, 68, 0
3, 10265, Note_on_c, 2, 69, 0
3, 10265, Note_on_c, 2, 68, 80
3, 10316, Note_on_c, 2, 69, 80
3, 10348, Note_on_c, 2, 69, 0
3, 10661, Note_on_c, 2, 68, 0
3, 10681, Note_on_c, 2, 69, 80
3, 11442, Note_on_c, 2, 69, 0
3, 11846, Note_on_c, 2, 64, 80
3, 12038, Note_on_c, 2, 66, 80
3, 12070, Note_on_c, 2, 64, 0
3, 12153, Note_on_c, 2, 66, 0
3, 12236, Note_on_c, 2, 68, 80
3, 12440, Note_on_c, 2, 68, 0
3, 12441, Note_on_c, 2, 66, 80
3, 12614, Note_on_c, 2, 64, 80
3, 12626, Note_on_c, 2, 66, 0
3, 12742, Note_on_c, 2, 64, 0
3, 12806, Note_on_c, 2, 68, 80
3, 12914, Note_on_c, 2, 68, 0
3, 13004, Note_on_c, 2, 69, 80
3, 13209, Note_on_c, 2, 68, 80
3, 13247, Note_on_c, 2, 69, 0
3, 13395, Note_on_c, 2, 66, 80
3, 13401, Note_on_c, 2, 68, 0
3, 13580, Note_on_c, 2, 64, 80
3, 13593, Note_on_c, 2, 66, 0
3, 13772, Note_on_c, 2, 64, 0
3, 13772, Note_on_c, 2, 71, 80
3, 13977, Note_on_c, 2, 69, 80
3, 13996, Note_on_c, 2, 71, 0
3, 14150, Note_on_c, 2, 68, 80
3, 14156, Note_on_c, 2, 69, 0
3, 14310, Note_on_c, 2, 68, 0
3, 14316, Note_on_c, 2, 69, 80
3, 14418, Note_on_c, 2, 69, 0
3, 14508, Note_on_c, 2, 71, 80
3, 14560, Note_on_c, 2, 69, 80
3, 14578, Note_on_c, 2, 71, 0
3, 14617, Note_on_c, 2, 71, 80
3, 14636, Note_on_c, 2, 69, 0
3, 15628, Note_on_c, 2, 69, 80
3, 15666, Note_on_c, 2, 71, 0
3, 15884, Note_on_c, 2, 69, 0
3, 16025, Note_on_c, 2, 69, 80
3, 16076, Note_on_c, 2, 68, 80
3, 16082, Note_on_c, 2, 69, 0
3, 16134, Note_on_c, 2, 69, 80
3, 16146, Note_on_c, 2, 68, 0
3, 16838, Note_on_c, 2, 69, 0
3, 16992, Note_on_c, 2, 71, 80
3, 17177, Note_on_c, 2, 69, 80
3, 17190, Note_on_c, 2, 71, 0
3, 17350, Note_on_c, 2, 66, 80
3, 17362, Note_on_c, 2, 69, 0
3, 17465, Note_on_c, 2, 66, 0
3, 17548, Note_on_c, 2, 68, 80
3, 17740, Note_on_c, 2, 68, 0
3, 17740, Note_on_c, 2, 69, 80
3, 17939, Note_on_c, 2, 68, 80
3, 17976, Note_on_c, 2, 69, 0
3, 18111, Note_on_c, 2, 68, 0
3, 18124, Note_on_c, 2, 64, 80
3, 18355, Note_on_c, 2, 66, 80
3, 18373, Note_on_c, 2, 64, 0
3, 18553, Note_on_c, 2, 68, 80
3, 18559, Note_on_c, 2, 66, 0
3, 18745, Note_on_c, 2, 68, 0
3, 18752, Note_on_c, 2, 69, 80
3, 18944, Note_on_c, 2, 71, 80
3, 18956, Note_on_c, 2, 69, 0
3, 19123, Note_on_c, 2, 73, 80
3, 19168, Note_on_c, 2, 71, 0
3, 19308, Note_on_c, 2, 71, 80
3, 19315, Note_on_c, 2, 73, 0
3, 19481, Note_on_c, 2, 69, 80
3, 19487, Note_on_c, 2, 71, 0
3, 19667, Note_on_c, 2, 71, 80
3, 19679, Note_on_c, 2, 69, 0
3, 19827, Note_on_c, 2, 71, 0
3, 19872, Note_on_c, 2, 68, 80
3, 20057, Note_on_c, 2, 68, 0
3, 20064, Note_on_c, 2, 66, 80
3, 20256, Note_on_c, 2, 66, 0
3, 20256, Note_on_c, 2, 64, 80
3, 20435, Note_on_c, 2, 64, 0
3, 20441, Note_on_c, 2, 66, 80
3, 20640, Note_on_c, 2, 68, 80
3, 20665, Note_on_c, 2, 66, 0
3, 20851, Note_on_c, 2, 68, 0
3, 20851, Note_on_c, 2, 70, 80
3, 21043, Note_on_c, 2, 71, 80
3, 21055, Note_on_c, 2, 70, 0
3, 21171, Note_on_c, 2, 71, 0
3, 21235, Note_on_c, 2, 70, 80
3, 21318, Note_on_c, 2, 70, 0
3, 21420, Note_on_c, 2, 71, 80
3, 22149, Note_on_c, 2, 71, 0
3, 22585, Note_on_c, 2, 71, 80
3, 22963, Note_on_c, 2, 69, 80
3, 22981, Note_on_c, 2, 71, 0
3, 23148, Note_on_c, 2, 68, 80
3, 23167, Note_on_c, 2, 69, 0
3, 23353, Note_on_c, 2, 66, 80
3, 23359, Note_on_c, 2, 68, 0
3, 23539, Note_on_c, 2, 68, 80
3, 23545, Note_on_c, 2, 66, 0
3, 23737, Note_on_c, 2, 68, 0
3, 23744, Note_on_c, 2, 69, 80
3, 23929, Note_on_c, 2, 71, 80
3, 23936, Note_on_c, 2, 69, 0
3, 24050, Note_on_c, 2, 71, 0
3, 24115, Note_on_c, 2, 73, 80
3, 24236, Note_on_c, 2, 73, 0
3, 24300, Note_on_c, 2, 71, 80
3, 24376, Note_on_c, 2, 71, 0
3, 24486, Note_on_c, 2, 73, 80
3, 24889, Note_on_c, 2, 73, 0
3, 25644, Note_on_c, 2, 75, 80
3, 25810, Note_on_c, 2, 75, 0
3, 26022, Note_on_c, 2, 76, 80
3, 26227, Note_on_c, 2, 78, 80
3, 26239, Note_on_c, 2, 76, 0
3, 26406, Note_on_c, 2, 78, 0
3, 26419, Note_on_c, 2, 76, 80
3, 26592, Note_on_c, 2, 74, 80
3, 26604, Note_on_c, 2, 76, 0
3, 26777, Note_on_c, 2, 74, 0
3, 26784, Note_on_c, 2, 73, 80
3, 26969, Note_on_c, 2, 71, 80
3, 26976, Note_on_c, 2, 73, 0
3, 27168, Note_on_c, 2, 69, 80
3, 27173, Note_on_c, 2, 71, 0
3, 27347, Note_on_c, 2, 68, 80
3, 27360, Note_on_c, 2, 69, 0
3, 27475, Note_on_c, 2, 68, 0
3, 27577, Note_on_c, 2, 66, 80
3, 27743, Note_on_c, 2, 66, 0
3, 27750, Note_on_c, 2, 64, 80
3, 27948, Note_on_c, 2, 62, 80
3, 27954, Note_on_c, 2, 64, 0
3, 28134, Note_on_c, 2, 61, 80
3, 28140, Note_on_c, 2, 62, 0
3, 28345, Note_on_c, 2, 61, 0
3, 28352, Note_on_c, 2, 59, 80
3, 28550, Note_on_c, 2, 61, 80
3, 28595, Note_on_c, 2, 59, 0
3, 28742, Note_on_c, 2, 62, 80
3, 28748, Note_on_c, 2, 61, 0
3, 28928, Note_on_c, 2, 64, 80
3, 28946, Note_on_c, 2, 62, 0
3, 29113, Note_on_c, 2, 62, 80
3, 29132, Note_on_c, 2, 64, 0
3, 29299, Note_on_c, 2, 61, 80
3, 29324, Note_on_c, 2, 62, 0
3, 29484, Note_on_c, 2, 61, 0
3, 29491, Note_on_c, 2, 59, 80
3, 29632, Note_on_c, 2, 57, 80
3, 29644, Note_on_c, 2, 59, 0
3, 29689, Note_on_c, 2, 57, 0
3, 29849, Note_on_c, 2, 69, 80
3, 29900, Note_on_c, 2, 68, 80
3, 29919, Note_on_c, 2, 69, 0
3, 29958, Note_on_c, 2, 69, 80
3, 29970, Note_on_c, 2, 68, 0
3, 32371, Note_on_c, 2, 66, 80
3, 32383, Note_on_c, 2, 69, 0
3, 32569, Note_on_c, 2, 68, 80
3, 32588, Note_on_c, 2, 66, 0
3, 32959, Note_on_c, 2, 68, 0
3, 33312, Note_on_c, 2, 68, 80
3, 33478, Note_on_c, 2, 68, 0
3, 33715, Note_on_c, 2, 69, 80
3, 34457, Note_on_c, 2, 69, 0
3, 34457, Note_on_c, 2, 71, 80
3, 35250, Note_on_c, 2, 71, 0
3, 35270, Note_on_c, 2, 64, 80
3, 35782, Note_on_c, 2, 64, 0
3, 36019, Note_on_c, 2, 69, 80
3, 37164, Note_on_c, 2, 71, 80
3, 37177, Note_on_c, 2, 69, 0
3, 37529, Note_on_c, 2, 64, 80
3, 37535, Note_on_c, 2, 71, 0
3, 37695, Note_on_c, 2, 64, 0
3, 37945, Note_on_c, 2, 68, 80
3, 38066, Note_on_c, 2, 68, 0
3, 38336, Note_on_c, 2, 69, 80
3, 39091, Note_on_c, 2, 69, 0
3, 39545, Note_on_c, 2, 61, 80
3, 39653, Note_on_c, 2, 61, 0
3, 39929, Note_on_c, 2, 63, 80
3, 40095, Note_on_c, 2, 63, 0
3, 40102, Note_on_c, 2, 61, 80
3, 40275, Note_on_c, 2, 63, 80
3, 40281, Note_on_c, 2, 61, 0
3, 40441, Note_on_c, 2, 63, 0
3, 40441, Note_on_c, 2, 66, 80
3, 40613, Note_on_c, 2, 66, 0
3, 40640, Note_on_c, 2, 65, 80
3, 40793, Note_on_c, 2, 65, 0
3, 40806, Note_on_c, 2, 63, 80
3, 40979, Note_on_c, 2, 65, 80
3, 40985, Note_on_c, 2, 63, 0
3, 41139, Note_on_c, 2, 65, 0
3, 41152, Note_on_c, 2, 68, 80
3, 41344, Note_on_c, 2, 68, 0
3, 41350, Note_on_c, 2, 66, 80
3, 41586, Note_on_c, 2, 66, 0
3, 41728, Note_on_c, 2, 78, 80
3, 41849, Note_on_c, 2, 78, 0
3, 41920, Note_on_c, 2, 77, 80
3, 42028, Note_on_c, 2, 77, 0
3, 42131, Note_on_c, 2, 78, 80
3, 43283, Note_on_c, 2, 76, 80
3, 43295, Note_on_c, 2, 78, 0
3, 43404, Note_on_c, 2, 76, 0
3, 43673, Note_on_c, 2, 76, 80
3, 43731, Note_on_c, 2, 75, 80
3, 43743, Note_on_c, 2, 76, 0
3, 43788, Note_on_c, 2, 76, 80
3, 43795, Note_on_c, 2, 75, 0
3, 44626, Note_on_c, 2, 76, 0
3, 44649, Note_on_c, 2, 78, 80
3, 44812, Note_on_c, 2, 76, 80
3, 44859, Note_on_c, 2, 78, 0
3, 44997, Note_on_c, 2, 76, 0
3, 44998, Note_on_c, 2, 73, 80
3, 45190, Note_on_c, 2, 74, 80
3, 45196, Note_on_c, 2, 73, 0
3, 45350, Note_on_c, 2, 76, 80
3, 45369, Note_on_c, 2, 74, 0
3, 45548, Note_on_c, 2, 74, 80
3, 45554, Note_on_c, 2, 76, 0
3, 45734, Note_on_c, 2, 71, 80
3, 45740, Note_on_c, 2, 74, 0
3, 45958, Note_on_c, 2, 73, 80
3, 45970, Note_on_c, 2, 71, 0
3, 46156, Note_on_c, 2, 73, 0
3, 46163, Note_on_c, 2, 71, 80
3, 46355, Note_on_c, 2, 73, 80
3, 46374, Note_on_c, 2, 71, 0
3, 46547, Note_on_c, 2, 76, 80
3, 46566, Note_on_c, 2, 73, 0
3, 46739, Note_on_c, 2, 75, 80
3, 46758, Note_on_c, 2, 76, 0
3, 46931, Note_on_c, 2, 75, 0
3, 46937, Note_on_c, 2, 73, 80
3, 47116, Note_on_c, 2, 75, 80
3, 47141, Note_on_c, 2, 73, 0
3, 47315, Note_on_c, 2, 78, 80
3, 47320, Note_on_c, 2, 75, 0
3, 47519, Note_on_c, 2, 78, 0
3, 47532, Note_on_c, 2, 76, 80
3, 50776, Note_on_c, 2, 76, 0
3, 51006, Note_on_c, 2, 75, 80
3, 51381, Note_on_c, 2, 75, 0
3, 51385, Note_on_c, 2, 76, 80
3, 51569, Note_on_c, 2, 76, 0
3, 51574, Note_on_c, 2, 66, 80
3, 51753, Note_on_c, 2, 66, 0
3, 51756, Note_on_c, 2, 68, 80
3, 51915, Note_on_c, 2, 68, 0
3, 51947, Note_on_c, 2, 69, 80
3, 52152, Note_on_c, 2, 69, 0
3, 52153, Note_on_c, 2, 71, 80
3, 52352, Note_on_c, 2, 69, 80
3, 52357, Note_on_c, 2, 71, 0
3, 52537, Note_on_c, 2, 71, 80
3, 52556, Note_on_c, 2, 69, 0
3, 52716, Note_on_c, 2, 74, 80
3, 52722, Note_on_c, 2, 71, 0
3, 52888, Note_on_c, 2, 74, 0
3, 52902, Note_on_c, 2, 73, 80
3, 53094, Note_on_c, 2, 71, 80
3, 53100, Note_on_c, 2, 73, 0
3, 53279, Note_on_c, 2, 71, 0
3, 53280, Note_on_c, 2, 69, 80
3, 53472, Note_on_c, 2, 69, 0
3, 53491, Note_on_c, 2, 68, 80
3, 53696, Note_on_c, 2, 66, 80
3, 53721, Note_on_c, 2, 68, 0
3, 53881, Note_on_c, 2, 64, 80
3, 53888, Note_on_c, 2, 66, 0
3, 54092, Note_on_c, 2, 63, 80
3, 54111, Note_on_c, 2, 64, 0
3, 54278, Note_on_c, 2, 61, 80
3, 54290, Note_on_c, 2, 63, 0
3, 54450, Note_on_c, 2, 61, 0
3, 54464, Note_on_c, 2, 59, 80
3, 54656, Note_on_c, 2, 57, 80
3, 54675, Note_on_c, 2, 59, 0
3, 54828, Note_on_c, 2, 59, 80
3, 54854, Note_on_c, 2, 57, 0
3, 55020, Note_on_c, 2, 63, 80
3, 55026, Note_on_c, 2, 59, 0
3, 55205, Note_on_c, 2, 63, 0
3, 55212, Note_on_c, 2, 61, 80
3, 55392, Note_on_c, 2, 59, 80
3, 55397, Note_on_c, 2, 61, 0
3, 55577, Note_on_c, 2, 61, 80
3, 55609, Note_on_c, 2, 59, 0
3, 55782, Note_on_c, 2, 64, 80
3, 55794, Note_on_c, 2, 61, 0
3, 55987, Note_on_c, 2, 63, 80
3, 55999, Note_on_c, 2, 64, 0
3, 56172, Note_on_c, 2, 63, 0
3, 56172, Note_on_c, 2, 61, 80
3, 56364, Note_on_c, 2, 63, 80
3, 56402, Note_on_c, 2, 61, 0
3, 56556, Note_on_c, 2, 66, 80
3, 56562, Note_on_c, 2, 63, 0
3, 56742, Note_on_c, 2, 64, 80
3, 56748, Note_on_c, 2, 66, 0
3, 56934, Note_on_c, 2, 66, 80
3, 56972, Note_on_c, 2, 64, 0
3, 57120, Note_on_c, 2, 64, 80
3, 57132, Note_on_c, 2, 66, 0
3, 57305, Note_on_c, 2, 61, 80
3, 57318, Note_on_c, 2, 64, 0
3, 57504, Note_on_c, 2, 62, 80
3, 57509, Note_on_c, 2, 61, 0
3, 57696, Note_on_c, 2, 64, 80
3, 57721, Note_on_c, 2, 62, 0
3, 57888, Note_on_c, 2, 62, 80
3, 57907, Note_on_c, 2, 64, 0
3, 58073, Note_on_c, 2, 59, 80
3, 58086, Note_on_c, 2, 62, 0
3, 58194, Note_on_c, 2, 59, 0
3, 58265, Note_on_c, 2, 61, 80
3, 58444, Note_on_c, 2, 59, 80
3, 58450, Note_on_c, 2, 61, 0
3, 58636, Note_on_c, 2, 57, 80
3, 58648, Note_on_c, 2, 59, 0
3, 58835, Note_on_c, 2, 56, 80
3, 58860, Note_on_c, 2, 57, 0
3, 59027, Note_on_c, 2, 56, 0
3, 59027, Note_on_c, 2, 54, 80
3, 59155, Note_on_c, 2, 54, 0
3, 59238, Note_on_c, 2, 56, 80
3, 59417, Note_on_c, 2, 57, 80
3, 59423, Note_on_c, 2, 56, 0
3, 59596, Note_on_c, 2, 59, 80
3, 59609, Note_on_c, 2, 57, 0
3, 59801, Note_on_c, 2, 57, 80
3, 59807, Note_on_c, 2, 59, 0
3, 60000, Note_on_c, 2, 56, 80
3, 60037, Note_on_c, 2, 57, 0
3, 60192, Note_on_c, 2, 54, 80
3, 60230, Note_on_c, 2, 56, 0
3, 60345, Note_on_c, 2, 52, 80
3, 60364, Note_on_c, 2, 54, 0
3, 60396, Note_on_c, 2, 52, 0
3, 60614, Note_on_c, 2, 68, 80
3, 61721, Note_on_c, 2, 68, 0
3, 61728, Note_on_c, 2, 66, 80
3, 61932, Note_on_c, 2, 66, 0
3, 62092, Note_on_c, 2, 66, 80
3, 62156, Note_on_c, 2, 64, 80
3, 62162, Note_on_c, 2, 66, 0
3, 62220, Note_on_c, 2, 66, 80
3, 62232, Note_on_c, 2, 64, 0
3, 63052, Note_on_c, 2, 68, 80
3, 63058, Note_on_c, 2, 66, 0
3, 63232, Note_on_c, 2, 66, 80
3, 63282, Note_on_c, 2, 68, 0
3, 63417, Note_on_c, 2, 66, 0
3, 63417, Note_on_c, 2, 63, 80
3, 63596, Note_on_c, 2, 64, 80
3, 63621, Note_on_c, 2, 63, 0
3, 63788, Note_on_c, 2, 66, 80
3, 63800, Note_on_c, 2, 64, 0
3, 63961, Note_on_c, 2, 64, 80
3, 63980, Note_on_c, 2, 66, 0
3, 64140, Note_on_c, 2, 64, 0
3, 64153, Note_on_c, 2, 61, 80
3, 64293, Note_on_c, 2, 61, 0
3, 64371, Note_on_c, 2, 63, 80
3, 64563, Note_on_c, 2, 63, 0
3, 64569, Note_on_c, 2, 61, 80
3, 64748, Note_on_c, 2, 63, 80
3, 64761, Note_on_c, 2, 61, 0
3, 64920, Note_on_c, 2, 63, 0
3, 64928, Note_on_c, 2, 66, 80
3, 65132, Note_on_c, 2, 66, 0
3, 65177, Note_on_c, 2, 65, 80
3, 65375, Note_on_c, 2, 65, 0
3, 65401, Note_on_c, 2, 63, 80
3, 65497, Note_on_c, 2, 63, 0
3, 65568, Note_on_c, 2, 65, 80
3, 65728, Note_on_c, 2, 65, 0
3, 65734, Note_on_c, 2, 68, 80
3, 65887, Note_on_c, 2, 68, 0
3, 65952, Note_on_c, 2, 66, 80
3, 66304, Note_on_c, 2, 66, 0
3, 66316, Note_on_c, 2, 54, 80
3, 66399, Note_on_c, 2, 54, 0
3, 66726, Note_on_c, 2, 78, 80
3, 66784, Note_on_c, 2, 76, 80
3, 66796, Note_on_c, 2, 78, 0
3, 66841, Note_on_c, 2, 78, 80
3, 66873, Note_on_c, 2, 76, 0
3, 67852, Note_on_c, 2, 76, 80
3, 67858, Note_on_c, 2, 78, 0
3, 67986, Note_on_c, 2, 76, 0
3, 68243, Note_on_c, 2, 76, 80
3, 69254, Note_on_c, 2, 76, 0
3, 69255, Note_on_c, 2, 78, 80
3, 69458, Note_on_c, 2, 78, 0
3, 69465, Note_on_c, 2, 76, 80
3, 69636, Note_on_c, 2, 76, 0
3, 69666, Note_on_c, 2, 73, 80
3, 69871, Note_on_c, 2, 73, 0
3, 69873, Note_on_c, 2, 74, 80
3, 70053, Note_on_c, 2, 76, 80
3, 70064, Note_on_c, 2, 74, 0
3, 70234, Note_on_c, 2, 74, 80
3, 70240, Note_on_c, 2, 76, 0
3, 70379, Note_on_c, 2, 71, 80
3, 70392, Note_on_c, 2, 74, 0
3, 70533, Note_on_c, 2, 71, 0
3, 70569, Note_on_c, 2, 73, 80
3, 70744, Note_on_c, 2, 73, 0
3, 70764, Note_on_c, 2, 71, 80
3, 70939, Note_on_c, 2, 73, 80
3, 70961, Note_on_c, 2, 71, 0
3, 71105, Note_on_c, 2, 73, 0
3, 71128, Note_on_c, 2, 76, 80
3, 71332, Note_on_c, 2, 75, 80
3, 71357, Note_on_c, 2, 76, 0
3, 71500, Note_on_c, 2, 75, 0
3, 71519, Note_on_c, 2, 73, 80
3, 71709, Note_on_c, 2, 75, 80
3, 71719, Note_on_c, 2, 73, 0
3, 71866, Note_on_c, 2, 75, 0
3, 71879, Note_on_c, 2, 78, 80
3, 72016, Note_on_c, 2, 78, 0
3, 72115, Note_on_c, 2, 76, 80
3, 74035, Note_on_c, 2, 74, 80
3, 74067, Note_on_c, 2, 76, 0
3, 74182, Note_on_c, 2, 74, 0
3, 74393, Note_on_c, 2, 74, 80
3, 74444, Note_on_c, 2, 73, 80
3, 74450, Note_on_c, 2, 74, 0
3, 74496, Note_on_c, 2, 74, 80
3, 74514, Note_on_c, 2, 73, 0
3, 75366, Note_on_c, 2, 74, 0
3, 75372, Note_on_c, 2, 76, 80
3, 75577, Note_on_c, 2, 74, 80
3, 75615, Note_on_c, 2, 76, 0
3, 75743, Note_on_c, 2, 74, 0
3, 75750, Note_on_c, 2, 71, 80
3, 75929, Note_on_c, 2, 73, 80
3, 75948, Note_on_c, 2, 71, 0
3, 76114, Note_on_c, 2, 73, 0
3, 76128, Note_on_c, 2, 74, 80
3, 76307, Note_on_c, 2, 73, 80
3, 76332, Note_on_c, 2, 74, 0
3, 76473, Note_on_c, 2, 73, 0
3, 76486, Note_on_c, 2, 69, 80
3, 76691, Note_on_c, 2, 71, 80
3, 76710, Note_on_c, 2, 69, 0
3, 76883, Note_on_c, 2, 73, 80
3, 76902, Note_on_c, 2, 71, 0
3, 77062, Note_on_c, 2, 73, 0
3, 77068, Note_on_c, 2, 74, 80
3, 77260, Note_on_c, 2, 76, 80
3, 77279, Note_on_c, 2, 74, 0
3, 77446, Note_on_c, 2, 78, 80
3, 77490, Note_on_c, 2, 76, 0
3, 77657, Note_on_c, 2, 78, 0
3, 77657, Note_on_c, 2, 76, 80
3, 77855, Note_on_c, 2, 76, 0
3, 77856, Note_on_c, 2, 74, 80
3, 78028, Note_on_c, 2, 76, 80
3, 78047, Note_on_c, 2, 74, 0
3, 78220, Note_on_c, 2, 73, 80
3, 78226, Note_on_c, 2, 76, 0
3, 78418, Note_on_c, 2, 73, 0
3, 78419, Note_on_c, 2, 71, 80
3, 78604, Note_on_c, 2, 69, 80
3, 78611, Note_on_c, 2, 71, 0
3, 78764, Note_on_c, 2, 69, 0
3, 78784, Note_on_c, 2, 71, 80
3, 78995, Note_on_c, 2, 71, 0
3, 78995, Note_on_c, 2, 73, 80
3, 79206, Note_on_c, 2, 74, 80
3, 79225, Note_on_c, 2, 73, 0
3, 79398, Note_on_c, 2, 76, 80
3, 79417, Note_on_c, 2, 74, 0
3, 79564, Note_on_c, 2, 73, 80
3, 79577, Note_on_c, 2, 76, 0
3, 79660, Note_on_c, 2, 73, 0
3, 79788, Note_on_c, 2, 78, 80
3, 79967, Note_on_c, 2, 78, 0
3, 79974, Note_on_c, 2, 76, 80
3, 80166, Note_on_c, 2, 74, 80
3, 80172, Note_on_c, 2, 76, 0
3, 80352, Note_on_c, 2, 78, 80
3, 80377, Note_on_c, 2, 74, 0
3, 80550, Note_on_c, 2, 79, 80
3, 80556, Note_on_c, 2, 78, 0
3, 80755, Note_on_c, 2, 78, 80
3, 80780, Note_on_c, 2, 79, 0
3, 80947, Note_on_c, 2, 78, 0
3, 80947, Note_on_c, 2, 76, 80
3, 81126, Note_on_c, 2, 74, 80
3, 81139, Note_on_c, 2, 76, 0
3, 81305, Note_on_c, 2, 81, 80
3, 81318, Note_on_c, 2, 74, 0
3, 81497, Note_on_c, 2, 79, 80
3, 81522, Note_on_c, 2, 81, 0
3, 81689, Note_on_c, 2, 79, 0
3, 81689, Note_on_c, 2, 78, 80
3, 81874, Note_on_c, 2, 78, 0
3, 81875, Note_on_c, 2, 79, 80
3, 82028, Note_on_c, 2, 79, 0
3, 82048, Note_on_c, 2, 81, 80
3, 83225, Note_on_c, 2, 81, 0
3, 83238, Note_on_c, 2, 79, 80
3, 83346, Note_on_c, 2, 79, 0
3, 83609, Note_on_c, 2, 79, 80
3, 84582, Note_on_c, 2, 81, 80
3, 84601, Note_on_c, 2, 79, 0
3, 84767, Note_on_c, 2, 81, 0
3, 84768, Note_on_c, 2, 79, 80
3, 84960, Note_on_c, 2, 76, 80
3, 84979, Note_on_c, 2, 79, 0
3, 85152, Note_on_c, 2, 78, 80
3, 85196, Note_on_c, 2, 76, 0
3, 85350, Note_on_c, 2, 79, 80
3, 85356, Note_on_c, 2, 78, 0
3, 85548, Note_on_c, 2, 78, 80
3, 85593, Note_on_c, 2, 79, 0
3, 85637, Note_on_c, 2, 78, 0
3, 85728, Note_on_c, 2, 74, 80
3, 85868, Note_on_c, 2, 74, 0
3, 85900, Note_on_c, 2, 76, 80
3, 86080, Note_on_c, 2, 78, 80
3, 86085, Note_on_c, 2, 76, 0
3, 86284, Note_on_c, 2, 76, 80
3, 86291, Note_on_c, 2, 78, 0
3, 86463, Note_on_c, 2, 76, 0
3, 86464, Note_on_c, 2, 73, 80
3, 86649, Note_on_c, 2, 74, 80
3, 86656, Note_on_c, 2, 73, 0
3, 86841, Note_on_c, 2, 76, 80
3, 86853, Note_on_c, 2, 74, 0
3, 87033, Note_on_c, 2, 78, 80
3, 87039, Note_on_c, 2, 76, 0
3, 87225, Note_on_c, 2, 78, 0
3, 87232, Note_on_c, 2, 74, 80
3, 87411, Note_on_c, 2, 79, 80
3, 87424, Note_on_c, 2, 74, 0
3, 87609, Note_on_c, 2, 81, 80
3, 87628, Note_on_c, 2, 79, 0
3, 87808, Note_on_c, 2, 79, 80
3, 87833, Note_on_c, 2, 81, 0
3, 88019, Note_on_c, 2, 76, 80
3, 88032, Note_on_c, 2, 79, 0
3, 88211, Note_on_c, 2, 78, 80
3, 88223, Note_on_c, 2, 76, 0
3, 88403, Note_on_c, 2, 79, 80
3, 88409, Note_on_c, 2, 78, 0
3, 88595, Note_on_c, 2, 81, 80
3, 88620, Note_on_c, 2, 79, 0
3, 88825, Note_on_c, 2, 81, 0
3, 88979, Note_on_c, 2, 74, 80
3, 90752, Note_on_c, 2, 71, 80
3, 90758, Note_on_c, 2, 74, 0
3, 90950, Note_on_c, 2, 71, 0
3, 90956, Note_on_c, 2, 73, 80
3, 91359, Note_on_c, 2, 73, 0
3, 91705, Note_on_c, 2, 73, 80
3, 91833, Note_on_c, 2, 73, 0
3, 92096, Note_on_c, 2, 74, 80
3, 92806, Note_on_c, 2, 74, 0
3, 92825, Note_on_c, 2, 76, 80
3, 93554, Note_on_c, 2, 76, 0
3, 93561, Note_on_c, 2, 69, 80
3, 94034, Note_on_c, 2, 69, 0
3, 94355, Note_on_c, 2, 74, 80
3, 95468, Note_on_c, 2, 74, 0
3, 95520, Note_on_c, 2, 76, 80
3, 95872, Note_on_c, 2, 69, 80
3, 95891, Note_on_c, 2, 76, 0
3, 96217, Note_on_c, 2, 69, 0
3, 96262, Note_on_c, 2, 73, 80
3, 96370, Note_on_c, 2, 73, 0
3, 96646, Note_on_c, 2, 74, 80
3, 97433, Note_on_c, 2, 74, 0
3, 97875, Note_on_c, 2, 62, 80
3, 98099, Note_on_c, 2, 62, 0
3, 98220, Note_on_c, 2, 61, 80
3, 98412, Note_on_c, 2, 61, 0
3, 98419, Note_on_c, 2, 59, 80
3, 98611, Note_on_c, 2, 57, 80
3, 98617, Note_on_c, 2, 59, 0
3, 98784, Note_on_c, 2, 59, 80
3, 98790, Note_on_c, 2, 57, 0
3, 98867, Note_on_c, 2, 59, 0
3, 98988, Note_on_c, 2, 61, 80
3, 99167, Note_on_c, 2, 61, 0
3, 99168, Note_on_c, 2, 63, 80
3, 99308, Note_on_c, 2, 63, 0
3, 99366, Note_on_c, 2, 64, 80
3, 99455, Note_on_c, 2, 64, 0
3, 99552, Note_on_c, 2, 63, 80
3, 99622, Note_on_c, 2, 63, 0
3, 99763, Note_on_c, 2, 64, 80
3, 100185, Note_on_c, 2, 64, 0
3, 100928, Note_on_c, 2, 64, 80
3, 101286, Note_on_c, 2, 64, 0
3, 101292, Note_on_c, 2, 62, 80
3, 101490, Note_on_c, 2, 62, 0
3, 101491, Note_on_c, 2, 61, 80
3, 101676, Note_on_c, 2, 61, 0
3, 101676, Note_on_c, 2, 62, 80
3, 101862, Note_on_c, 2, 66, 80
3, 101868, Note_on_c, 2, 62, 0
3, 102041, Note_on_c, 2, 66, 0
3, 102060, Note_on_c, 2, 64, 80
3, 102246, Note_on_c, 2, 62, 80
3, 102258, Note_on_c, 2, 64, 0
3, 102425, Note_on_c, 2, 64, 80
3, 102450, Note_on_c, 2, 62, 0
3, 102611, Note_on_c, 2, 67, 80
3, 102636, Note_on_c, 2, 64, 0
3, 102796, Note_on_c, 2, 67, 0
3, 102803, Note_on_c, 2, 66, 80
3, 102995, Note_on_c, 2, 66, 0
3, 103001, Note_on_c, 2, 64, 80
3, 103180, Note_on_c, 2, 66, 80
3, 103237, Note_on_c, 2, 64, 0
3, 103378, Note_on_c, 2, 66, 0
3, 103379, Note_on_c, 2, 69, 80
3, 103583, Note_on_c, 2, 69, 0
3, 103584, Note_on_c, 2, 68, 80
3, 103769, Note_on_c, 2, 68, 0
3, 103769, Note_on_c, 2, 66, 80
3, 103955, Note_on_c, 2, 68, 80
3, 103980, Note_on_c, 2, 66, 0
3, 104147, Note_on_c, 2, 71, 80
3, 104153, Note_on_c, 2, 68, 0
3, 104300, Note_on_c, 2, 71, 0
3, 104352, Note_on_c, 2, 69, 80
3, 106707, Note_on_c, 2, 68, 80
3, 106739, Note_on_c, 2, 69, 0
3, 107379, Note_on_c, 2, 68, 0
3, 107424, Note_on_c, 2, 69, 80
3, 107814, Note_on_c, 2, 69, 0
3, 108181, Note_on_c, 2, 61, 80
3, 108370, Note_on_c, 2, 64, 80
3, 108378, Note_on_c, 2, 61, 0
3, 108563, Note_on_c, 2, 64, 0
3, 108568, Note_on_c, 2, 57, 80
3, 108749, Note_on_c, 2, 61, 80
3, 108753, Note_on_c, 2, 57, 0
3, 108911, Note_on_c, 2, 61, 0
3, 108935, Note_on_c, 2, 64, 80
3, 109123, Note_on_c, 2, 64, 0
3, 109127, Note_on_c, 2, 69, 80
3, 109326, Note_on_c, 2, 69, 0
3, 109328, Note_on_c, 2, 61, 80
3, 109517, Note_on_c, 2, 64, 80
3, 109525, Note_on_c, 2, 61, 0
3, 109696, Note_on_c, 2, 64, 0
3, 109705, Note_on_c, 2, 69, 80
3, 109928, Note_on_c, 2, 69, 0
3, 109928, Note_on_c, 2, 73, 80
3, 110099, Note_on_c, 2, 73, 0
3, 110104, Note_on_c, 2, 64, 80
3, 110273, Note_on_c, 2, 64, 0
3, 110279, Note_on_c, 2, 69, 80
3, 110451, Note_on_c, 2, 73, 80
3, 110455, Note_on_c, 2, 69, 0
3, 110639, Note_on_c, 2, 73, 0
3, 110646, Note_on_c, 2, 76, 80
3, 110818, Note_on_c, 2, 69, 80
3, 110822, Note_on_c, 2, 76, 0
3, 111010, Note_on_c, 2, 73, 80
3, 111015, Note_on_c, 2, 69, 0
3, 111208, Note_on_c, 2, 76, 80
3, 111220, Note_on_c, 2, 73, 0
3, 111398, Note_on_c, 2, 76, 0
3, 111398, Note_on_c, 2, 81, 80
3, 111609, Note_on_c, 2, 73, 80
3, 111614, Note_on_c, 2, 81, 0
3, 111803, Note_on_c, 2, 76, 80
3, 111812, Note_on_c, 2, 73, 0
3, 112000, Note_on_c, 2, 76, 0
3, 112052, Note_on_c, 2, 81, 80
3, 112428, Note_on_c, 2, 81, 0
3, 112463, Note_on_c, 2, 76, 80
3, 112675, Note_on_c, 2, 76, 0
3, 112825, Note_on_c, 2, 73, 80
3, 112993, Note_on_c, 2, 73, 0
3, 113206, Note_on_c, 2, 69, 80
3, 113431, Note_on_c, 2, 69, 0
3, 113945, Note_on_c, 2, 81, 80
3, 114188, Note_on_c, 2, 81, 0
3, 114297, Note_on_c, 2, 78, 80
3, 114501, Note_on_c, 2, 78, 0
3, 114668, Note_on_c, 2, 74, 80
3, 114808, Note_on_c, 2, 74, 0
3, 115449, Note_on_c, 2, 81, 80
3, 115794, Note_on_c, 2, 81, 0
3, 115801, Note_on_c, 2, 76, 80
3, 115954, Note_on_c, 2, 76, 0
3, 116192, Note_on_c, 2, 73, 80
3, 116307, Note_on_c, 2, 73, 0
3, 116992, Note_on_c, 2, 81, 80
3, 117356, Note_on_c, 2, 81, 0
3, 117369, Note_on_c, 2, 74, 80
3, 117516, Note_on_c, 2, 74, 0
3, 117760, Note_on_c, 2, 71, 80
3, 117888, Note_on_c, 2, 71, 0
3, 118131, Note_on_c, 2, 73, 80
3, 118316, Note_on_c, 2, 73, 0
3, 118528, Note_on_c, 2, 81, 80
3, 118668, Note_on_c, 2, 81, 0
3, 118886, Note_on_c, 2, 71, 80
3, 119071, Note_on_c, 2, 71, 0
3, 119296, Note_on_c, 2, 80, 80
3, 119475, Note_on_c, 2, 80, 0
3, 119680, Note_on_c, 2, 81, 80
3, 120012, Note_on_c, 2, 81, 0
3, 120096, Note_on_c, 2, 76, 80
3, 120211, Note_on_c, 2, 76, 0
3, 120460, Note_on_c, 2, 69, 80
3, 120645, Note_on_c, 2, 69, 0
3, 120646, Note_on_c, 2, 71, 80
3, 120825, Note_on_c, 2, 71, 0
3, 120832, Note_on_c, 2, 73, 80
3, 120985, Note_on_c, 2, 73, 0
3, 120992, Note_on_c, 2, 74, 80
3, 121081, Note_on_c, 2, 74, 0
3, 121212, Note_on_c, 2, 78, 80
3, 121321, Note_on_c, 2, 78, 0
3, 121325, Note_on_c, 2, 76, 80
3, 121437, Note_on_c, 2, 76, 0
3, 121442, Note_on_c, 2, 78, 80
3, 121520, Note_on_c, 2, 78, 0
3, 121540, Note_on_c, 2, 76, 80
3, 121627, Note_on_c, 2, 76, 0
3, 121635, Note_on_c, 2, 78, 80
3, 121715, Note_on_c, 2, 78, 0
3, 121722, Note_on_c, 2, 76, 80
3, 121814, Note_on_c, 2, 76, 0
3, 121820, Note_on_c, 2, 78, 80
3, 121894, Note_on_c, 2, 78, 0
3, 121907, Note_on_c, 2, 76, 80
3, 121991, Note_on_c, 2, 78, 80
3, 121996, Note_on_c, 2, 76, 0
3, 122068, Note_on_c, 2, 78, 0
3, 122077, Note_on_c, 2, 76, 80
3, 122153, Note_on_c, 2, 78, 80
3, 122157, Note_on_c, 2, 76, 0
3, 122228, Note_on_c, 2, 78, 0
3, 122247, Note_on_c, 2, 76, 80
3, 122314, Note_on_c, 2, 78, 80
3, 122318, Note_on_c, 2, 76, 0
3, 122380, Note_on_c, 2, 76, 80
3, 122385, Note_on_c, 2, 78, 0
3, 122543, Note_on_c, 2, 78, 80
3, 122550, Note_on_c, 2, 76, 0
3, 122626, Note_on_c, 2, 78, 0
3, 122630, Note_on_c, 2, 76, 80
3, 122699, Note_on_c, 2, 76, 0
3, 122700, Note_on_c, 2, 78, 80
3, 122741, Note_on_c, 2, 78, 0
3, 122755, Note_on_c, 2, 76, 80
3, 122801, Note_on_c, 2, 76, 0
3, 122802, Note_on_c, 2, 78, 80
3, 122849, Note_on_c, 2, 76, 80
3, 122863, Note_on_c, 2, 78, 0
3, 123448, Note_on_c, 2, 76, 0
3, 123612, Note_on_c, 2, 76, 80
3, 123695, Note_on_c, 2, 76, 0
3, 123698, Note_on_c, 2, 74, 80
3, 123796, Note_on_c, 2, 74, 0
3, 123806, Note_on_c, 2, 76, 80
3, 123904, Note_on_c, 2, 76, 0
3, 123910, Note_on_c, 2, 74, 80
3, 124000, Note_on_c, 2, 74, 0
3, 124009, Note_on_c, 2, 76, 80
3, 124079, Note_on_c, 2, 76, 0
3, 124095, Note_on_c, 2, 74, 80
3, 124165, Note_on_c, 2, 74, 0
3, 124168, Note_on_c, 2, 76, 80
3, 124248, Note_on_c, 2, 76, 0
3, 124263, Note_on_c, 2, 74, 80
3, 124334, Note_on_c, 2, 74, 0
3, 124335, Note_on_c, 2, 76, 80
3, 124397, Note_on_c, 2, 76, 0
3, 124412, Note_on_c, 2, 74, 80
3, 124480, Note_on_c, 2, 74, 0
3, 124481, Note_on_c, 2, 76, 80
3, 124544, Note_on_c, 2, 74, 80
3, 124548, Note_on_c, 2, 76, 0
3, 124899, Note_on_c, 2, 74, 0
3, 125097, Note_on_c, 2, 74, 80
3, 125191, Note_on_c, 2, 74, 0
3, 125194, Note_on_c, 2, 73, 80
3, 125273, Note_on_c, 2, 73, 0
3, 125297, Note_on_c, 2, 74, 80
3, 125382, Note_on_c, 2, 74, 0
3, 125388, Note_on_c, 2, 73, 80
3, 125458, Note_on_c, 2, 73, 0
3, 125477, Note_on_c, 2, 74, 80
3, 125552, Note_on_c, 2, 74, 0
3, 125566, Note_on_c, 2, 73, 80
3, 125630, Note_on_c, 2, 73, 0
3, 125638, Note_on_c, 2, 74, 80
3, 125717, Note_on_c, 2, 74, 0
3, 125724, Note_on_c, 2, 73, 80
3, 125754, Note_on_c, 2, 73, 0
3, 125767, Note_on_c, 2, 74, 80
3, 125827, Note_on_c, 2, 73, 80
3, 125831, Note_on_c, 2, 74, 0
3, 126310, Note_on_c, 2, 73, 0
3, 126611, Note_on_c, 2, 73, 80
3, 126728, Note_on_c, 2, 71, 80
3, 126732, Note_on_c, 2, 73, 0
3, 126830, Note_on_c, 2, 71, 0
3, 126848, Note_on_c, 2, 73, 80
3, 126923, Note_on_c, 2, 73, 0
3, 126942, Note_on_c, 2, 71, 80
3, 127029, Note_on_c, 2, 71, 0
3, 127039, Note_on_c, 2, 73, 80
3, 127111, Note_on_c, 2, 73, 0
3, 127122, Note_on_c, 2, 71, 80
3, 127200, Note_on_c, 2, 73, 80
3, 127206, Note_on_c, 2, 71, 0
3, 127251, Note_on_c, 2, 73, 0
3, 127257, Note_on_c, 2, 71, 80
3, 127296, Note_on_c, 2, 73, 80
3, 127303, Note_on_c, 2, 71, 0
3, 127360, Note_on_c, 2, 71, 80
3, 127361, Note_on_c, 2, 73, 0
3, 128080, Note_on_c, 2, 71, 0
3, 128179, Note_on_c, 2, 71, 80
3, 128313, Note_on_c, 2, 71, 0
3, 128314, Note_on_c, 2, 69, 80
3, 128409, Note_on_c, 2, 69, 0
3, 128433, Note_on_c, 2, 71, 80
3, 128518, Note_on_c, 2, 71, 0
3, 128531, Note_on_c, 2, 69, 80
3, 128622, Note_on_c, 2, 69, 0
3, 128627, Note_on_c, 2, 71, 80
3, 128690, Note_on_c, 2, 69, 80
3, 128697, Note_on_c, 2, 71, 0
3, 128763, Note_on_c, 2, 71, 80
3, 128772, Note_on_c, 2, 69, 0
3, 128819, Note_on_c, 2, 71, 0
3, 128821, Note_on_c, 2, 69, 80
3, 128866, Note_on_c, 2, 71, 80
3, 128882, Note_on_c, 2, 69, 0
3, 128927, Note_on_c, 2, 69, 80
3, 128931, Note_on_c, 2, 71, 0
3, 129575, Note_on_c, 2, 69, 0
3, 129677, Note_on_c, 2, 69, 80
3, 129793, Note_on_c, 2, 68, 80
3, 129797, Note_on_c, 2, 69, 0
3, 129883, Note_on_c, 2, 68, 0
3, 129895, Note_on_c, 2, 69, 80
3, 130002, Note_on_c, 2, 68, 80
3, 130006, Note_on_c, 2, 69, 0
3, 130081, Note_on_c, 2, 68, 0
3, 130085, Note_on_c, 2, 69, 80
3, 130178, Note_on_c, 2, 69, 0
3, 130179, Note_on_c, 2, 68, 80
3, 130225, Note_on_c, 2, 69, 80
3, 130240, Note_on_c, 2, 68, 0
3, 130341, Note_on_c, 2, 68, 80
3, 130399, Note_on_c, 2, 69, 0
3, 131121, Note_on_c, 2, 68, 0
3, 131249, Note_on_c, 2, 68, 80
3, 131348, Note_on_c, 2, 68, 0
3, 131355, Note_on_c, 2, 66, 80
3, 131440, Note_on_c, 2, 66, 0
3, 131470, Note_on_c, 2, 68, 80
3, 131547, Note_on_c, 2, 68, 0
3, 131562, Note_on_c, 2, 66, 80
3, 131640, Note_on_c, 2, 68, 80
3, 131643, Note_on_c, 2, 66, 0
3, 131714, Note_on_c, 2, 68, 0
3, 131729, Note_on_c, 2, 66, 80
3, 131774, Note_on_c, 2, 68, 80
3, 131794, Note_on_c, 2, 66, 0
3, 131838, Note_on_c, 2, 68, 0
3, 131844, Note_on_c, 2, 66, 80
3, 131891, Note_on_c, 2, 68, 80
3, 131901, Note_on_c, 2, 66, 0
3, 131968, Note_on_c, 2, 66, 80
3, 131997, Note_on_c, 2, 68, 0
3, 132727, Note_on_c, 2, 66, 0
3, 132733, Note_on_c, 2, 65, 80
3, 133410, Note_on_c, 2, 65, 0
3, 133468, Note_on_c, 2, 66, 80
3, 134202, Note_on_c, 2, 66, 0
3, 134656, Note_on_c, 2, 66, 80
3, 134758, Note_on_c, 2, 66, 0
3, 134854, Note_on_c, 2, 68, 80
3, 134924, Note_on_c, 2, 68, 0
3, 135065, Note_on_c, 2, 69, 80
3, 135321, Note_on_c, 2, 69, 0
3, 135456, Note_on_c, 2, 66, 80
3, 135590, Note_on_c, 2, 66, 0
3, 135795, Note_on_c, 2, 71, 80
3, 135999, Note_on_c, 2, 71, 0
3, 136198, Note_on_c, 2, 66, 80
3, 136319, Note_on_c, 2, 66, 0
3, 136588, Note_on_c, 2, 73, 80
3, 136754, Note_on_c, 2, 73, 0
3, 136793, Note_on_c, 2, 71, 80
3, 136940, Note_on_c, 2, 71, 0
3, 136985, Note_on_c, 2, 69, 80
3, 137119, Note_on_c, 2, 69, 0
3, 137190, Note_on_c, 2, 71, 80
3, 137286, Note_on_c, 2, 71, 0
3, 137382, Note_on_c, 2, 73, 80
3, 138482, Note_on_c, 2, 73, 0
3, 138521, Note_on_c, 2, 71, 80
3, 138757, Note_on_c, 2, 71, 0
3, 138905, Note_on_c, 2, 71, 80
3, 138963, Note_on_c, 2, 69, 80
3, 138969, Note_on_c, 2, 71, 0
3, 139027, Note_on_c, 2, 71, 80
3, 139046, Note_on_c, 2, 69, 0
3, 139852, Note_on_c, 2, 71, 0
3, 139852, Note_on_c, 2, 73, 80
3, 140051, Note_on_c, 2, 71, 80
3, 140056, Note_on_c, 2, 73, 0
3, 140243, Note_on_c, 2, 68, 80
3, 140249, Note_on_c, 2, 71, 0
3, 140435, Note_on_c, 2, 69, 80
3, 140447, Note_on_c, 2, 68, 0
3, 140627, Note_on_c, 2, 71, 80
3, 140646, Note_on_c, 2, 69, 0
3, 140800, Note_on_c, 2, 69, 80
3, 140819, Note_on_c, 2, 71, 0
3, 140992, Note_on_c, 2, 66, 80
3, 141004, Note_on_c, 2, 69, 0
3, 141184, Note_on_c, 2, 68, 80
3, 141196, Note_on_c, 2, 66, 0
3, 141382, Note_on_c, 2, 68, 0
3, 141382, Note_on_c, 2, 69, 80
3, 141580, Note_on_c, 2, 71, 80
3, 141606, Note_on_c, 2, 69, 0
3, 141760, Note_on_c, 2, 73, 80
3, 141772, Note_on_c, 2, 71, 0
3, 141958, Note_on_c, 2, 74, 80
3, 141977, Note_on_c, 2, 73, 0
3, 142156, Note_on_c, 2, 73, 80
3, 142194, Note_on_c, 2, 74, 0
3, 142348, Note_on_c, 2, 71, 80
3, 142360, Note_on_c, 2, 73, 0
3, 142553, Note_on_c, 2, 73, 80
3, 142559, Note_on_c, 2, 71, 0
3, 142757, Note_on_c, 2, 73, 0
3, 142794, Note_on_c, 2, 69, 80
3, 142984, Note_on_c, 2, 69, 0
3, 142995, Note_on_c, 2, 68, 80
3, 143103, Note_on_c, 2, 68, 0
3, 143123, Note_on_c, 2, 69, 80
3, 143315, Note_on_c, 2, 69, 0
3, 143328, Note_on_c, 2, 73, 80
3, 143500, Note_on_c, 2, 73, 0
3, 143532, Note_on_c, 2, 78, 80
3, 143890, Note_on_c, 2, 78, 0
3, 143897, Note_on_c, 2, 69, 80
3, 144114, Note_on_c, 2, 69, 0
3, 144288, Note_on_c, 2, 68, 80
3, 144473, Note_on_c, 2, 66, 80
3, 144480, Note_on_c, 2, 68, 0
3, 144626, Note_on_c, 2, 66, 0
3, 144652, Note_on_c, 2, 68, 80
3, 144722, Note_on_c, 2, 68, 0
3, 144857, Note_on_c, 2, 71, 80
3, 144940, Note_on_c, 2, 71, 0
3, 145049, Note_on_c, 2, 76, 80
3, 145273, Note_on_c, 2, 76, 0
3, 145452, Note_on_c, 2, 68, 80
3, 145605, Note_on_c, 2, 68, 0
3, 145811, Note_on_c, 2, 66, 80
3, 145996, Note_on_c, 2, 65, 80
3, 146003, Note_on_c, 2, 66, 0
3, 146149, Note_on_c, 2, 65, 0
3, 146182, Note_on_c, 2, 66, 80
3, 146290, Note_on_c, 2, 66, 0
3, 146368, Note_on_c, 2, 69, 80
3, 146470, Note_on_c, 2, 69, 0
3, 146560, Note_on_c, 2, 74, 80
3, 146860, Note_on_c, 2, 74, 0
3, 146937, Note_on_c, 2, 66, 80
3, 147225, Note_on_c, 2, 66, 0
3, 147357, Note_on_c, 2, 65, 80
3, 147556, Note_on_c, 2, 63, 80
3, 147579, Note_on_c, 2, 65, 0
3, 147745, Note_on_c, 2, 65, 80
3, 147772, Note_on_c, 2, 63, 0
3, 147890, Note_on_c, 2, 73, 80
3, 147908, Note_on_c, 2, 65, 0
3, 147994, Note_on_c, 2, 73, 0
3, 148118, Note_on_c, 2, 71, 80
3, 148311, Note_on_c, 2, 74, 80
3, 148327, Note_on_c, 2, 71, 0
3, 148483, Note_on_c, 2, 74, 0
3, 148489, Note_on_c, 2, 68, 80
3, 148674, Note_on_c, 2, 71, 80
3, 148702, Note_on_c, 2, 68, 0
3, 148801, Note_on_c, 2, 71, 0
3, 148872, Note_on_c, 2, 65, 80
3, 149067, Note_on_c, 2, 63, 80
3, 149109, Note_on_c, 2, 65, 0
3, 149281, Note_on_c, 2, 65, 80
3, 149313, Note_on_c, 2, 63, 0
3, 149465, Note_on_c, 2, 71, 80
3, 149507, Note_on_c, 2, 65, 0
3, 149622, Note_on_c, 2, 71, 0
3, 149701, Note_on_c, 2, 68, 80
3, 149903, Note_on_c, 2, 71, 80
3, 149910, Note_on_c, 2, 68, 0
3, 150067, Note_on_c, 2, 71, 0
3, 150093, Note_on_c, 2, 65, 80
3, 150261, Note_on_c, 2, 68, 80
3, 150270, Note_on_c, 2, 65, 0
3, 150350, Note_on_c, 2, 68, 0
3, 150406, Note_on_c, 2, 61, 80
3, 150822, Note_on_c, 2, 66, 80
3, 150828, Note_on_c, 2, 61, 0
3, 151180, Note_on_c, 2, 70, 80
3, 151186, Note_on_c, 2, 66, 0
3, 151532, Note_on_c, 2, 70, 0
3, 151545, Note_on_c, 2, 73, 80
3, 151903, Note_on_c, 2, 73, 0
3, 151916, Note_on_c, 2, 76, 80
3, 152313, Note_on_c, 2, 73, 80
3, 152338, Note_on_c, 2, 76, 0
3, 152697, Note_on_c, 2, 73, 0
3, 152704, Note_on_c, 2, 70, 80
3, 152864, Note_on_c, 2, 70, 0
3, 153081, Note_on_c, 2, 64, 80
3, 153701, Note_on_c, 2, 64, 0
3, 153708, Note_on_c, 2, 61, 80
3, 153887, Note_on_c, 2, 61, 0
3, 153888, Note_on_c, 2, 63, 80
3, 154054, Note_on_c, 2, 63, 0
3, 154073, Note_on_c, 2, 71, 80
3, 154188, Note_on_c, 2, 71, 0
3, 154278, Note_on_c, 2, 69, 80
3, 154457, Note_on_c, 2, 72, 80
3, 154476, Note_on_c, 2, 69, 0
3, 154629, Note_on_c, 2, 72, 0
3, 154636, Note_on_c, 2, 66, 80
3, 154796, Note_on_c, 2, 69, 80
3, 154808, Note_on_c, 2, 66, 0
3, 154840, Note_on_c, 2, 69, 0
3, 154995, Note_on_c, 2, 63, 80
3, 155174, Note_on_c, 2, 61, 80
3, 155180, Note_on_c, 2, 63, 0
3, 155353, Note_on_c, 2, 63, 80
3, 155359, Note_on_c, 2, 61, 0
3, 155532, Note_on_c, 2, 63, 0
3, 155545, Note_on_c, 2, 69, 80
3, 155737, Note_on_c, 2, 66, 80
3, 155743, Note_on_c, 2, 69, 0
3, 155922, Note_on_c, 2, 66, 0
3, 155929, Note_on_c, 2, 69, 80
3, 156121, Note_on_c, 2, 69, 0
3, 156121, Note_on_c, 2, 63, 80
3, 156274, Note_on_c, 2, 63, 0
3, 156294, Note_on_c, 2, 66, 80
3, 156428, Note_on_c, 2, 66, 0
3, 156499, Note_on_c, 2, 59, 80
3, 156934, Note_on_c, 2, 64, 80
3, 156947, Note_on_c, 2, 59, 0
3, 157318, Note_on_c, 2, 64, 0
3, 157324, Note_on_c, 2, 68, 80
3, 157656, Note_on_c, 2, 68, 0
3, 157696, Note_on_c, 2, 71, 80
3, 157804, Note_on_c, 2, 71, 0
3, 158086, Note_on_c, 2, 74, 80
3, 158489, Note_on_c, 2, 71, 80
3, 158502, Note_on_c, 2, 74, 0
3, 158853, Note_on_c, 2, 71, 0
3, 158867, Note_on_c, 2, 68, 80
3, 159001, Note_on_c, 2, 68, 0
3, 159244, Note_on_c, 2, 62, 80
3, 159820, Note_on_c, 2, 62, 0
3, 159838, Note_on_c, 2, 59, 80
3, 159998, Note_on_c, 2, 61, 80
3, 160032, Note_on_c, 2, 59, 0
3, 160175, Note_on_c, 2, 69, 80
3, 160178, Note_on_c, 2, 61, 0
3, 160273, Note_on_c, 2, 69, 0
3, 160374, Note_on_c, 2, 67, 80
3, 160561, Note_on_c, 2, 70, 80
3, 160585, Note_on_c, 2, 67, 0
3, 160748, Note_on_c, 2, 70, 0
3, 160758, Note_on_c, 2, 64, 80
3, 160931, Note_on_c, 2, 67, 80
3, 160983, Note_on_c, 2, 64, 0
3, 161117, Note_on_c, 2, 61, 80
3, 161138, Note_on_c, 2, 67, 0
3, 161321, Note_on_c, 2, 59, 80
3, 161337, Note_on_c, 2, 61, 0
3, 161516, Note_on_c, 2, 61, 80
3, 161571, Note_on_c, 2, 59, 0
3, 161719, Note_on_c, 2, 67, 80
3, 161735, Note_on_c, 2, 61, 0
3, 161904, Note_on_c, 2, 64, 80
3, 161910, Note_on_c, 2, 67, 0
3, 162102, Note_on_c, 2, 67, 80
3, 162123, Note_on_c, 2, 64, 0
3, 162281, Note_on_c, 2, 67, 0
3, 162308, Note_on_c, 2, 61, 80
3, 162480, Note_on_c, 2, 61, 0
3, 162486, Note_on_c, 2, 64, 80
3, 162628, Note_on_c, 2, 64, 0
3, 162676, Note_on_c, 2, 62, 80
3, 162842, Note_on_c, 2, 61, 80
3, 162846, Note_on_c, 2, 62, 0
3, 163052, Note_on_c, 2, 62, 80
3, 163069, Note_on_c, 2, 61, 0
3, 163236, Note_on_c, 2, 66, 80
3, 163247, Note_on_c, 2, 62, 0
3, 163426, Note_on_c, 2, 66, 0
3, 163433, Note_on_c, 2, 62, 80
3, 163618, Note_on_c, 2, 66, 80
3, 163640, Note_on_c, 2, 62, 0
3, 163794, Note_on_c, 2, 66, 0
3, 163802, Note_on_c, 2, 61, 80
3, 163982, Note_on_c, 2, 64, 80
3, 164011, Note_on_c, 2, 61, 0
3, 164093, Note_on_c, 2, 64, 0
3, 164202, Note_on_c, 2, 62, 80
3, 164428, Note_on_c, 2, 61, 80
3, 164437, Note_on_c, 2, 62, 0
3, 164641, Note_on_c, 2, 62, 80
3, 164646, Note_on_c, 2, 61, 0
3, 164831, Note_on_c, 2, 66, 80
3, 164862, Note_on_c, 2, 62, 0
3, 165025, Note_on_c, 2, 66, 0
3, 165044, Note_on_c, 2, 62, 80
3, 165220, Note_on_c, 2, 66, 80
3, 165248, Note_on_c, 2, 62, 0
3, 165336, Note_on_c, 2, 66, 0
3, 165422, Note_on_c, 2, 61, 80
3, 165606, Note_on_c, 2, 64, 80
3, 165615, Note_on_c, 2, 61, 0
3, 165741, Note_on_c, 2, 64, 0
3, 165817, Note_on_c, 2, 62, 80
3, 166070, Note_on_c, 2, 62, 0
3, 166214, Note_on_c, 2, 50, 80
3, 166399, Note_on_c, 2, 50, 0
3, 166579, Note_on_c, 2, 57, 80
3, 167737, Note_on_c, 2, 55, 80
3, 167763, Note_on_c, 2, 57, 0
3, 167877, Note_on_c, 2, 55, 0
3, 167923, Note_on_c, 2, 54, 80
3, 168019, Note_on_c, 2, 54, 0
3, 168128, Note_on_c, 2, 55, 80
3, 168979, Note_on_c, 2, 55, 0
3, 169254, Note_on_c, 2, 59, 80
3, 169580, Note_on_c, 2, 59, 0
3, 169619, Note_on_c, 2, 57, 80
3, 169984, Note_on_c, 2, 55, 80
3, 170022, Note_on_c, 2, 57, 0
3, 170361, Note_on_c, 2, 54, 80
3, 170368, Note_on_c, 2, 55, 0
3, 170553, Note_on_c, 2, 52, 80
3, 170559, Note_on_c, 2, 54, 0
3, 170732, Note_on_c, 2, 52, 0
3, 170745, Note_on_c, 2, 54, 80
3, 170912, Note_on_c, 2, 55, 80
3, 170943, Note_on_c, 2, 54, 0
3, 170982, Note_on_c, 2, 55, 0
3, 171104, Note_on_c, 2, 54, 80
3, 171289, Note_on_c, 2, 52, 80
3, 171296, Note_on_c, 2, 54, 0
3, 171378, Note_on_c, 2, 52, 0
3, 171385, Note_on_c, 2, 54, 80
3, 171436, Note_on_c, 2, 54, 0
3, 171436, Note_on_c, 2, 52, 80
3, 171475, Note_on_c, 2, 54, 80
3, 171532, Note_on_c, 2, 54, 0
3, 171712, Note_on_c, 2, 54, 80
3, 171717, Note_on_c, 2, 52, 0
3, 171782, Note_on_c, 2, 54, 0
3, 171916, Note_on_c, 2, 54, 80
3, 172095, Note_on_c, 2, 54, 0
3, 172096, Note_on_c, 2, 57, 80
3, 172217, Note_on_c, 2, 57, 0
3, 172294, Note_on_c, 2, 50, 80
3, 172409, Note_on_c, 2, 50, 0
3, 172473, Note_on_c, 2, 54, 80
3, 172588, Note_on_c, 2, 54, 0
3, 172672, Note_on_c, 2, 57, 80
3, 172864, Note_on_c, 2, 57, 0
3, 172864, Note_on_c, 2, 62, 80
3, 173056, Note_on_c, 2, 54, 80
3, 173062, Note_on_c, 2, 62, 0
3, 173267, Note_on_c, 2, 54, 0
3, 173267, Note_on_c, 2, 57, 80
3, 173391, Note_on_c, 2, 57, 0
3, 173516, Note_on_c, 2, 62, 80
3, 173708, Note_on_c, 2, 62, 0
3, 173708, Note_on_c, 2, 66, 80
3, 173887, Note_on_c, 2, 66, 0
3, 173907, Note_on_c, 2, 57, 80
3, 174060, Note_on_c, 2, 57, 0
3, 174092, Note_on_c, 2, 62, 80
3, 174265, Note_on_c, 2, 66, 80
3, 174271, Note_on_c, 2, 62, 0
3, 174463, Note_on_c, 2, 66, 0
3, 174464, Note_on_c, 2, 69, 80
3, 174643, Note_on_c, 2, 69, 0
3, 174649, Note_on_c, 2, 62, 80
3, 174828, Note_on_c, 2, 66, 80
3, 174847, Note_on_c, 2, 62, 0
3, 174975, Note_on_c, 2, 66, 0
3, 175027, Note_on_c, 2, 69, 80
3, 176620, Note_on_c, 2, 69, 0
3, 176761, Note_on_c, 2, 67, 80
3, 176933, Note_on_c, 2, 67, 0
3, 176953, Note_on_c, 2, 69, 80
3, 177132, Note_on_c, 2, 69, 0
3, 177132, Note_on_c, 2, 74, 80
3, 177337, Note_on_c, 2, 69, 80
3, 177349, Note_on_c, 2, 74, 0
3, 177523, Note_on_c, 2, 74, 80
3, 177535, Note_on_c, 2, 69, 0
3, 177702, Note_on_c, 2, 66, 80
3, 177715, Note_on_c, 2, 74, 0
3, 177868, Note_on_c, 2, 66, 0
3, 177894, Note_on_c, 2, 69, 80
3, 178060, Note_on_c, 2, 69, 0
3, 178080, Note_on_c, 2, 67, 80
3, 178265, Note_on_c, 2, 66, 80
3, 178272, Note_on_c, 2, 67, 0
3, 178457, Note_on_c, 2, 66, 0
3, 178464, Note_on_c, 2, 67, 80
3, 178643, Note_on_c, 2, 74, 80
3, 178649, Note_on_c, 2, 67, 0
3, 178835, Note_on_c, 2, 67, 80
3, 178841, Note_on_c, 2, 74, 0
3, 179008, Note_on_c, 2, 71, 80
3, 179033, Note_on_c, 2, 67, 0
3, 179193, Note_on_c, 2, 71, 0
3, 179193, Note_on_c, 2, 64, 80
3, 179385, Note_on_c, 2, 67, 80
3, 179397, Note_on_c, 2, 64, 0
3, 179481, Note_on_c, 2, 67, 0
3, 179571, Note_on_c, 2, 66, 80
3, 179763, Note_on_c, 2, 64, 80
3, 179769, Note_on_c, 2, 66, 0
3, 179961, Note_on_c, 2, 66, 80
3, 179980, Note_on_c, 2, 64, 0
3, 180153, Note_on_c, 2, 74, 80
3, 180159, Note_on_c, 2, 66, 0
3, 180339, Note_on_c, 2, 66, 80
3, 180351, Note_on_c, 2, 74, 0
3, 180531, Note_on_c, 2, 66, 0
3, 180531, Note_on_c, 2, 69, 80
3, 180716, Note_on_c, 2, 62, 80
3, 180723, Note_on_c, 2, 69, 0
3, 180876, Note_on_c, 2, 66, 80
3, 180895, Note_on_c, 2, 62, 0
3, 180927, Note_on_c, 2, 66, 0
3, 181100, Note_on_c, 2, 71, 80
3, 181299, Note_on_c, 2, 69, 80
3, 181311, Note_on_c, 2, 71, 0
3, 181491, Note_on_c, 2, 71, 80
3, 181523, Note_on_c, 2, 69, 0
3, 181696, Note_on_c, 2, 74, 80
3, 181702, Note_on_c, 2, 71, 0
3, 181894, Note_on_c, 2, 74, 0
3, 181900, Note_on_c, 2, 71, 80
3, 182092, Note_on_c, 2, 74, 80
3, 182111, Note_on_c, 2, 71, 0
3, 182284, Note_on_c, 2, 74, 0
3, 182284, Note_on_c, 2, 67, 80
3, 182457, Note_on_c, 2, 74, 80
3, 182476, Note_on_c, 2, 67, 0
3, 182661, Note_on_c, 2, 74, 0
3, 182662, Note_on_c, 2, 69, 80
3, 182854, Note_on_c, 2, 74, 80
3, 182866, Note_on_c, 2, 69, 0
3, 183046, Note_on_c, 2, 66, 80
3, 183071, Note_on_c, 2, 74, 0
3, 183225, Note_on_c, 2, 66, 0
3, 183238, Note_on_c, 2, 69, 80
3, 183442, Note_on_c, 2, 69, 0
3, 183443, Note_on_c, 2, 67, 80
3, 183641, Note_on_c, 2, 67, 0
3, 183641, Note_on_c, 2, 74, 80
3, 183813, Note_on_c, 2, 74, 0
3, 183827, Note_on_c, 2, 64, 80
3, 183999, Note_on_c, 2, 64, 0
3, 184000, Note_on_c, 2, 74, 80
3, 184140, Note_on_c, 2, 74, 0
3, 184192, Note_on_c, 2, 66, 80
3, 184377, Note_on_c, 2, 74, 80
3, 184403, Note_on_c, 2, 66, 0
3, 184466, Note_on_c, 2, 74, 0
3, 184569, Note_on_c, 2, 62, 80
3, 184741, Note_on_c, 2, 62, 0
3, 184755, Note_on_c, 2, 64, 80
3, 184921, Note_on_c, 2, 64, 0
3, 184928, Note_on_c, 2, 66, 80
3, 185113, Note_on_c, 2, 66, 0
3, 185120, Note_on_c, 2, 67, 80
3, 185299, Note_on_c, 2, 69, 80
3, 185305, Note_on_c, 2, 67, 0
3, 185478, Note_on_c, 2, 71, 80
3, 185497, Note_on_c, 2, 69, 0
3, 185650, Note_on_c, 2, 71, 0
3, 185670, Note_on_c, 2, 72, 80
3, 185862, Note_on_c, 2, 74, 80
3, 185881, Note_on_c, 2, 72, 0
3, 186047, Note_on_c, 2, 74, 0
3, 186048, Note_on_c, 2, 72, 80
3, 186240, Note_on_c, 2, 72, 0
3, 186246, Note_on_c, 2, 62, 80
3, 186386, Note_on_c, 2, 62, 0
3, 186432, Note_on_c, 2, 72, 80
3, 186636, Note_on_c, 2, 74, 80
3, 186656, Note_on_c, 2, 72, 0
3, 186802, Note_on_c, 2, 74, 0
3, 186880, Note_on_c, 2, 72, 80
3, 187078, Note_on_c, 2, 72, 0
3, 187091, Note_on_c, 2, 62, 80
3, 187193, Note_on_c, 2, 62, 0
3, 187289, Note_on_c, 2, 71, 80
3, 187488, Note_on_c, 2, 72, 80
3, 187500, Note_on_c, 2, 71, 0
3, 187680, Note_on_c, 2, 71, 80
3, 187686, Note_on_c, 2, 72, 0
3, 187878, Note_on_c, 2, 62, 80
3, 187884, Note_on_c, 2, 71, 0
3, 188031, Note_on_c, 2, 62, 0
3, 188057, Note_on_c, 2, 71, 80
3, 188236, Note_on_c, 2, 72, 80
3, 188242, Note_on_c, 2, 71, 0
3, 188435, Note_on_c, 2, 71, 80
3, 188460, Note_on_c, 2, 72, 0
3, 188620, Note_on_c, 2, 71, 0
3, 188633, Note_on_c, 2, 62, 80
3, 188793, Note_on_c, 2, 62, 0
3, 188825, Note_on_c, 2, 69, 80
3, 189030, Note_on_c, 2, 71, 80
3, 189049, Note_on_c, 2, 69, 0
3, 189235, Note_on_c, 2, 69, 80
3, 189241, Note_on_c, 2, 71, 0
3, 189414, Note_on_c, 2, 62, 80
3, 189420, Note_on_c, 2, 69, 0
3, 189586, Note_on_c, 2, 62, 0
3, 189612, Note_on_c, 2, 69, 80
3, 189785, Note_on_c, 2, 71, 80
3, 189791, Note_on_c, 2, 69, 0
3, 189977, Note_on_c, 2, 69, 80
3, 189996, Note_on_c, 2, 71, 0
3, 190149, Note_on_c, 2, 69, 0
3, 190156, Note_on_c, 2, 62, 80
3, 190328, Note_on_c, 2, 62, 0
3, 190342, Note_on_c, 2, 67, 80
3, 190540, Note_on_c, 2, 69, 80
3, 190559, Note_on_c, 2, 67, 0
3, 190720, Note_on_c, 2, 67, 80
3, 190751, Note_on_c, 2, 69, 0
3, 190905, Note_on_c, 2, 67, 0
3, 190905, Note_on_c, 2, 59, 80
3, 191103, Note_on_c, 2, 59, 0
3, 191104, Note_on_c, 2, 67, 80
3, 191296, Note_on_c, 2, 69, 80
3, 191315, Note_on_c, 2, 67, 0
3, 191468, Note_on_c, 2, 69, 0
3, 191481, Note_on_c, 2, 67, 80
3, 191673, Note_on_c, 2, 61, 80
3, 191679, Note_on_c, 2, 67, 0
3, 191859, Note_on_c, 2, 66, 80
3, 191877, Note_on_c, 2, 61, 0
3, 192051, Note_on_c, 2, 67, 80
3, 192063, Note_on_c, 2, 66, 0
3, 192249, Note_on_c, 2, 66, 80
3, 192287, Note_on_c, 2, 67, 0
3, 192434, Note_on_c, 2, 66, 0
3, 192441, Note_on_c, 2, 57, 80
3, 192639, Note_on_c, 2, 57, 0
3, 192646, Note_on_c, 2, 66, 80
3, 192838, Note_on_c, 2, 67, 80
3, 192844, Note_on_c, 2, 66, 0
3, 193030, Note_on_c, 2, 66, 80
3, 193087, Note_on_c, 2, 67, 0
3, 193196, Note_on_c, 2, 66, 0
3, 193216, Note_on_c, 2, 57, 80
3, 193382, Note_on_c, 2, 57, 0
3, 193395, Note_on_c, 2, 64, 80
3, 193600, Note_on_c, 2, 66, 80
3, 193619, Note_on_c, 2, 64, 0
3, 193779, Note_on_c, 2, 66, 0
3, 193792, Note_on_c, 2, 64, 80
3, 193977, Note_on_c, 2, 56, 80
3, 193990, Note_on_c, 2, 64, 0
3, 194182, Note_on_c, 2, 64, 80
3, 194201, Note_on_c, 2, 56, 0
3, 194361, Note_on_c, 2, 66, 80
3, 194367, Note_on_c, 2, 64, 0
3, 194559, Note_on_c, 2, 66, 0
3, 194579, Note_on_c, 2, 64, 80
3, 194777, Note_on_c, 2, 58, 80
3, 194803, Note_on_c, 2, 64, 0
3, 194949, Note_on_c, 2, 58, 0
3, 194969, Note_on_c, 2, 62, 80
3, 195167, Note_on_c, 2, 62, 0
3, 195168, Note_on_c, 2, 64, 80
3, 195340, Note_on_c, 2, 62, 80
3, 195385, Note_on_c, 2, 64, 0
3, 195525, Note_on_c, 2, 62, 0
3, 195526, Note_on_c, 2, 58, 80
3, 195686, Note_on_c, 2, 58, 0
3, 195692, Note_on_c, 2, 59, 80
3, 195877, Note_on_c, 2, 59, 0
3, 195878, Note_on_c, 2, 61, 80
3, 196076, Note_on_c, 2, 62, 80
3, 196082, Note_on_c, 2, 61, 0
3, 196262, Note_on_c, 2, 64, 80
3, 196268, Note_on_c, 2, 62, 0
3, 196448, Note_on_c, 2, 66, 80
3, 196454, Note_on_c, 2, 64, 0
3, 196633, Note_on_c, 2, 66, 0
3, 196633, Note_on_c, 2, 64, 80
3, 196837, Note_on_c, 2, 64, 0
3, 196838, Note_on_c, 2, 66, 80
3, 197017, Note_on_c, 2, 66, 0
3, 197030, Note_on_c, 2, 67, 80
3, 197228, Note_on_c, 2, 66, 80
3, 197254, Note_on_c, 2, 67, 0
3, 197432, Note_on_c, 2, 66, 0
3, 197433, Note_on_c, 2, 64, 80
3, 197612, Note_on_c, 2, 62, 80
3, 197618, Note_on_c, 2, 64, 0
3, 197817, Note_on_c, 2, 61, 80
3, 197829, Note_on_c, 2, 62, 0
3, 198015, Note_on_c, 2, 61, 0
3, 198016, Note_on_c, 2, 64, 80
3, 198220, Note_on_c, 2, 62, 80
3, 198252, Note_on_c, 2, 64, 0
3, 198412, Note_on_c, 2, 61, 80
3, 198424, Note_on_c, 2, 62, 0
3, 198597, Note_on_c, 2, 61, 0
3, 198598, Note_on_c, 2, 59, 80
3, 198796, Note_on_c, 2, 59, 0
3, 198796, Note_on_c, 2, 62, 80
3, 198976, Note_on_c, 2, 61, 80
3, 199000, Note_on_c, 2, 62, 0
3, 199168, Note_on_c, 2, 61, 0
3, 199174, Note_on_c, 2, 59, 80
3, 199340, Note_on_c, 2, 59, 0
3, 199340, Note_on_c, 2, 57, 80
3, 199525, Note_on_c, 2, 57, 0
3, 199566, Note_on_c, 2, 59, 80
3, 199757, Note_on_c, 2, 58, 80
3, 199767, Note_on_c, 2, 59, 0
3, 199943, Note_on_c, 2, 58, 0
3, 199945, Note_on_c, 2, 59, 80
3, 200107, Note_on_c, 2, 59, 0
3, 200128, Note_on_c, 2, 62, 80
3, 200300, Note_on_c, 2, 62, 0
3, 200317, Note_on_c, 2, 61, 80
3, 200501, Note_on_c, 2, 59, 80
3, 200505, Note_on_c, 2, 61, 0
3, 200690, Note_on_c, 2, 61, 80
3, 200713, Note_on_c, 2, 59, 0
3, 200879, Note_on_c, 2, 61, 0
3, 200886, Note_on_c, 2, 64, 80
3, 201107, Note_on_c, 2, 64, 0
3, 201129, Note_on_c, 2, 62, 80
3, 201356, Note_on_c, 2, 61, 80
3, 201360, Note_on_c, 2, 62, 0
3, 201537, Note_on_c, 2, 61, 0
3, 201542, Note_on_c, 2, 62, 80
3, 201736, Note_on_c, 2, 66, 80
3, 201760, Note_on_c, 2, 62, 0
3, 201929, Note_on_c, 2, 66, 0
3, 201957, Note_on_c, 2, 71, 80
3, 202137, Note_on_c, 2, 71, 0
3, 202145, Note_on_c, 2, 70, 80
3, 202320, Note_on_c, 2, 71, 80
3, 202324, Note_on_c, 2, 70, 0
3, 202514, Note_on_c, 2, 74, 80
3, 202534, Note_on_c, 2, 71, 0
3, 202700, Note_on_c, 2, 68, 80
3, 202706, Note_on_c, 2, 74, 0
3, 202902, Note_on_c, 2, 66, 80
3, 202912, Note_on_c, 2, 68, 0
3, 203075, Note_on_c, 2, 68, 80
3, 203084, Note_on_c, 2, 66, 0
3, 203251, Note_on_c, 2, 71, 80
3, 203259, Note_on_c, 2, 68, 0
3, 203452, Note_on_c, 2, 73, 80
3, 203458, Note_on_c, 2, 71, 0
3, 203642, Note_on_c, 2, 71, 80
3, 203647, Note_on_c, 2, 73, 0
3, 203835, Note_on_c, 2, 73, 80
3, 203838, Note_on_c, 2, 71, 0
3, 204000, Note_on_c, 2, 73, 0
3, 204008, Note_on_c, 2, 76, 80
3, 204199, Note_on_c, 2, 71, 80
3, 204208, Note_on_c, 2, 76, 0
3, 204386, Note_on_c, 2, 70, 80
3, 204410, Note_on_c, 2, 71, 0
3, 204573, Note_on_c, 2, 70, 0
3, 204575, Note_on_c, 2, 68, 80
3, 204749, Note_on_c, 2, 66, 80
3, 204753, Note_on_c, 2, 68, 0
3, 204843, Note_on_c, 2, 66, 0
3, 204940, Note_on_c, 2, 71, 80
3, 204974, Note_on_c, 2, 71, 80
3, 206424, Note_on_c, 2, 71, 0
3, 206438, Note_on_c, 2, 70, 80
3, 206492, Note_on_c, 2, 70, 80
3, 206496, Note_on_c, 2, 71, 0
3, 207048, Note_on_c, 2, 70, 0
3, 207212, Note_on_c, 2, 70, 0
3, 207232, Note_on_c, 2, 71, 80
3, 207596, Note_on_c, 2, 71, 0
3, 208204, Note_on_c, 2, 62, 80
3, 208383, Note_on_c, 2, 62, 0
3, 208403, Note_on_c, 2, 66, 80
3, 208556, Note_on_c, 2, 71, 80
3, 208575, Note_on_c, 2, 66, 0
3, 208613, Note_on_c, 2, 71, 0
3, 208748, Note_on_c, 2, 66, 80
3, 208806, Note_on_c, 2, 64, 80
3, 208895, Note_on_c, 2, 66, 0
3, 209030, Note_on_c, 2, 64, 0
3, 209043, Note_on_c, 2, 62, 80
3, 209132, Note_on_c, 2, 64, 80
3, 209164, Note_on_c, 2, 62, 0
3, 209535, Note_on_c, 2, 64, 0
3, 209747, Note_on_c, 2, 61, 80
3, 209913, Note_on_c, 2, 61, 0
3, 209945, Note_on_c, 2, 64, 80
3, 210118, Note_on_c, 2, 69, 80
3, 210137, Note_on_c, 2, 64, 0
3, 210175, Note_on_c, 2, 69, 0
3, 210304, Note_on_c, 2, 64, 80
3, 210348, Note_on_c, 2, 62, 80
3, 210380, Note_on_c, 2, 64, 0
3, 210412, Note_on_c, 2, 64, 80
3, 210456, Note_on_c, 2, 64, 0
3, 210591, Note_on_c, 2, 62, 0
3, 210611, Note_on_c, 2, 61, 80
3, 210707, Note_on_c, 2, 62, 80
3, 210713, Note_on_c, 2, 61, 0
3, 210988, Note_on_c, 2, 62, 0
3, 211251, Note_on_c, 2, 59, 80
3, 211430, Note_on_c, 2, 59, 0
3, 211449, Note_on_c, 2, 64, 80
3, 211609, Note_on_c, 2, 67, 80
3, 211628, Note_on_c, 2, 64, 0
3, 211653, Note_on_c, 2, 67, 0
3, 211820, Note_on_c, 2, 62, 80
3, 211858, Note_on_c, 2, 62, 0
3, 211878, Note_on_c, 2, 61, 80
3, 211916, Note_on_c, 2, 62, 80
3, 211954, Note_on_c, 2, 61, 0
3, 211999, Note_on_c, 2, 62, 0
3, 212006, Note_on_c, 2, 59, 80
3, 212146, Note_on_c, 2, 59, 0
3, 212172, Note_on_c, 2, 61, 80
3, 212562, Note_on_c, 2, 61, 0
3, 213408, Note_on_c, 2, 64, 80
3, 214835, Note_on_c, 2, 64, 0
3, 215116, Note_on_c, 2, 61, 80
3, 215308, Note_on_c, 2, 63, 80
3, 215340, Note_on_c, 2, 61, 0
3, 215480, Note_on_c, 2, 63, 0
3, 215500, Note_on_c, 2, 71, 80
3, 215660, Note_on_c, 2, 71, 0
3, 215692, Note_on_c, 2, 69, 80
3, 215871, Note_on_c, 2, 69, 0
3, 215878, Note_on_c, 2, 72, 80
3, 216057, Note_on_c, 2, 66, 80
3, 216063, Note_on_c, 2, 72, 0
3, 216224, Note_on_c, 2, 69, 80
3, 216236, Note_on_c, 2, 66, 0
3, 216268, Note_on_c, 2, 69, 0
3, 216422, Note_on_c, 2, 63, 80
3, 216608, Note_on_c, 2, 61, 80
3, 216614, Note_on_c, 2, 63, 0
3, 216800, Note_on_c, 2, 61, 0
3, 216806, Note_on_c, 2, 63, 80
3, 216991, Note_on_c, 2, 63, 0
3, 216998, Note_on_c, 2, 69, 80
3, 217177, Note_on_c, 2, 66, 80
3, 217183, Note_on_c, 2, 69, 0
3, 217381, Note_on_c, 2, 66, 0
3, 217382, Note_on_c, 2, 69, 80
3, 217568, Note_on_c, 2, 63, 80
3, 217574, Note_on_c, 2, 69, 0
3, 217740, Note_on_c, 2, 63, 0
3, 217753, Note_on_c, 2, 66, 80
3, 217829, Note_on_c, 2, 66, 0
3, 217964, Note_on_c, 2, 59, 80
3, 218419, Note_on_c, 2, 64, 80
3, 218424, Note_on_c, 2, 59, 0
3, 218547, Note_on_c, 2, 64, 0
3, 218784, Note_on_c, 2, 68, 80
3, 219014, Note_on_c, 2, 68, 0
3, 219180, Note_on_c, 2, 71, 80
3, 219352, Note_on_c, 2, 71, 0
3, 219552, Note_on_c, 2, 74, 80
3, 219916, Note_on_c, 2, 74, 0
3, 219942, Note_on_c, 2, 71, 80
3, 220050, Note_on_c, 2, 71, 0
3, 220313, Note_on_c, 2, 68, 80
3, 220485, Note_on_c, 2, 68, 0
3, 220684, Note_on_c, 2, 62, 80
3, 221080, Note_on_c, 2, 62, 0
3, 221280, Note_on_c, 2, 59, 80
3, 221465, Note_on_c, 2, 61, 80
3, 221478, Note_on_c, 2, 59, 0
3, 221625, Note_on_c, 2, 61, 0
3, 221638, Note_on_c, 2, 69, 80
3, 221759, Note_on_c, 2, 69, 0
3, 221856, Note_on_c, 2, 67, 80
3, 222035, Note_on_c, 2, 70, 80
3, 222048, Note_on_c, 2, 67, 0
3, 222201, Note_on_c, 2, 70, 0
3, 222227, Note_on_c, 2, 64, 80
3, 222387, Note_on_c, 2, 67, 80
3, 222399, Note_on_c, 2, 64, 0
3, 222431, Note_on_c, 2, 67, 0
3, 222572, Note_on_c, 2, 61, 80
3, 222751, Note_on_c, 2, 61, 0
3, 222764, Note_on_c, 2, 59, 80
3, 222950, Note_on_c, 2, 61, 80
3, 222956, Note_on_c, 2, 59, 0
3, 223116, Note_on_c, 2, 61, 0
3, 223129, Note_on_c, 2, 67, 80
3, 223321, Note_on_c, 2, 67, 0
3, 223321, Note_on_c, 2, 64, 80
3, 223526, Note_on_c, 2, 67, 80
3, 223545, Note_on_c, 2, 64, 0
3, 223711, Note_on_c, 2, 67, 0
3, 223718, Note_on_c, 2, 61, 80
3, 223890, Note_on_c, 2, 61, 0
3, 223897, Note_on_c, 2, 64, 80
3, 223954, Note_on_c, 2, 64, 0
3, 224128, Note_on_c, 2, 57, 80
3, 224243, Note_on_c, 2, 57, 0
3, 224594, Note_on_c, 2, 69, 80
3, 225149, Note_on_c, 2, 69, 0
3, 225151, Note_on_c, 2, 64, 80
3, 225323, Note_on_c, 2, 66, 80
3, 225345, Note_on_c, 2, 64, 0
3, 225491, Note_on_c, 2, 71, 80
3, 225509, Note_on_c, 2, 66, 0
3, 225604, Note_on_c, 2, 71, 0
3, 225700, Note_on_c, 2, 59, 80
3, 225938, Note_on_c, 2, 59, 0
3, 226101, Note_on_c, 2, 71, 80
3, 226680, Note_on_c, 2, 71, 0
3, 226680, Note_on_c, 2, 66, 80
3, 226855, Note_on_c, 2, 68, 80
3, 226862, Note_on_c, 2, 66, 0
3, 227015, Note_on_c, 2, 73, 80
3, 227030, Note_on_c, 2, 68, 0
3, 227183, Note_on_c, 2, 73, 0
3, 227230, Note_on_c, 2, 61, 80
3, 227460, Note_on_c, 2, 61, 0
3, 227644, Note_on_c, 2, 73, 80
3, 228162, Note_on_c, 2, 68, 80
3, 228173, Note_on_c, 2, 73, 0
3, 228344, Note_on_c, 2, 68, 0
3, 228350, Note_on_c, 2, 69, 80
3, 228515, Note_on_c, 2, 69, 0
3, 228519, Note_on_c, 2, 74, 80
3, 228661, Note_on_c, 2, 74, 0
3, 228732, Note_on_c, 2, 62, 80
3, 229131, Note_on_c, 2, 62, 0
3, 229168, Note_on_c, 2, 74, 80
3, 229709, Note_on_c, 2, 74, 0
3, 229711, Note_on_c, 2, 69, 80
3, 229881, Note_on_c, 2, 69, 0
3, 229887, Note_on_c, 2, 71, 80
3, 230057, Note_on_c, 2, 76, 80
3, 230089, Note_on_c, 2, 71, 0
3, 230197, Note_on_c, 2, 76, 0
3, 230259, Note_on_c, 2, 64, 80
3, 230532, Note_on_c, 2, 64, 0
3, 230679, Note_on_c, 2, 76, 80
3, 231169, Note_on_c, 2, 76, 0
3, 231188, Note_on_c, 2, 73, 80
3, 231375, Note_on_c, 2, 69, 80
3, 231380, Note_on_c, 2, 73, 0
3, 231536, Note_on_c, 2, 73, 80
3, 231561, Note_on_c, 2, 69, 0
3, 231668, Note_on_c, 2, 73, 0
3, 231804, Note_on_c, 2, 66, 80
3, 232058, Note_on_c, 2, 66, 0
3, 232231, Note_on_c, 2, 74, 80
3, 232789, Note_on_c, 2, 74, 0
3, 232798, Note_on_c, 2, 71, 80
3, 232963, Note_on_c, 2, 71, 0
3, 232978, Note_on_c, 2, 68, 80
3, 233134, Note_on_c, 2, 68, 0
3, 233165, Note_on_c, 2, 64, 80
3, 233250, Note_on_c, 2, 64, 0
3, 233383, Note_on_c, 2, 61, 80
3, 233585, Note_on_c, 2, 61, 0
3, 233787, Note_on_c, 2, 73, 80
3, 234340, Note_on_c, 2, 73, 0
3, 234359, Note_on_c, 2, 69, 80
3, 234537, Note_on_c, 2, 66, 80
3, 234557, Note_on_c, 2, 69, 0
3, 234698, Note_on_c, 2, 69, 80
3, 234727, Note_on_c, 2, 66, 0
3, 234831, Note_on_c, 2, 69, 0
3, 234907, Note_on_c, 2, 62, 80
3, 235132, Note_on_c, 2, 62, 0
3, 235324, Note_on_c, 2, 71, 80
3, 235880, Note_on_c, 2, 71, 0
3, 235893, Note_on_c, 2, 67, 80
3, 236049, Note_on_c, 2, 67, 0
3, 236068, Note_on_c, 2, 64, 80
3, 236192, Note_on_c, 2, 64, 0
3, 236244, Note_on_c, 2, 61, 80
3, 236325, Note_on_c, 2, 61, 0
3, 236452, Note_on_c, 2, 57, 80
3, 236768, Note_on_c, 2, 57, 0
3, 236882, Note_on_c, 2, 69, 80
3, 237336, Note_on_c, 2, 69, 0
3, 237409, Note_on_c, 2, 66, 80
3, 237591, Note_on_c, 2, 66, 0
3, 237593, Note_on_c, 2, 62, 80
3, 237708, Note_on_c, 2, 62, 0
3, 237775, Note_on_c, 2, 66, 80
3, 237863, Note_on_c, 2, 66, 0
3, 237992, Note_on_c, 2, 71, 80
3, 238294, Note_on_c, 2, 71, 0
3, 238416, Note_on_c, 2, 59, 80
3, 238857, Note_on_c, 2, 59, 0
3, 238945, Note_on_c, 2, 64, 80
3, 239096, Note_on_c, 2, 64, 0
3, 239113, Note_on_c, 2, 61, 80
3, 239247, Note_on_c, 2, 61, 0
3, 239282, Note_on_c, 2, 57, 80
3, 239358, Note_on_c, 2, 57, 0
3, 239515, Note_on_c, 2, 54, 80
3, 239777, Note_on_c, 2, 54, 0
3, 239933, Note_on_c, 2, 66, 80
3, 240259, Note_on_c, 2, 66, 0
3, 240444, Note_on_c, 2, 64, 80
3, 240583, Note_on_c, 2, 64, 0
3, 240633, Note_on_c, 2, 68, 80
3, 240716, Note_on_c, 2, 68, 0
3, 240815, Note_on_c, 2, 71, 80
3, 240949, Note_on_c, 2, 71, 0
3, 241012, Note_on_c, 2, 61, 80
3, 241431, Note_on_c, 2, 61, 0
3, 241576, Note_on_c, 2, 62, 80
3, 241655, Note_on_c, 2, 62, 0
3, 241778, Note_on_c, 2, 64, 80
3, 242203, Note_on_c, 2, 64, 0
3, 242350, Note_on_c, 2, 61, 80
3, 242412, Note_on_c, 2, 61, 0
3, 242569, Note_on_c, 2, 57, 80
3, 242899, Note_on_c, 2, 57, 0
3, 242991, Note_on_c, 2, 62, 80
3, 243335, Note_on_c, 2, 62, 0
3, 243342, Note_on_c, 2, 64, 80
3, 243616, Note_on_c, 2, 64, 0
3, 243712, Note_on_c, 2, 66, 80
3, 244013, Note_on_c, 2, 66, 0
3, 244067, Note_on_c, 2, 59, 80
3, 244323, Note_on_c, 2, 59, 0
3, 244486, Note_on_c, 2, 71, 80
3, 244619, Note_on_c, 2, 71, 0
3, 244886, Note_on_c, 2, 64, 80
3, 245320, Note_on_c, 2, 66, 80
3, 245347, Note_on_c, 2, 64, 0
3, 245404, Note_on_c, 2, 66, 0
3, 245515, Note_on_c, 2, 68, 80
3, 245577, Note_on_c, 2, 68, 0
3, 245721, Note_on_c, 2, 69, 80
3, 245944, Note_on_c, 2, 69, 0
3, 246111, Note_on_c, 2, 57, 80
3, 246335, Note_on_c, 2, 57, 0
3, 248347, Note_on_c, 2, 64, 80
3, 248576, Note_on_c, 2, 64, 0
3, 248738, Note_on_c, 2, 66, 80
3, 248942, Note_on_c, 2, 64, 80
3, 248957, Note_on_c, 2, 66, 0
3, 249109, Note_on_c, 2, 66, 80
3, 249147, Note_on_c, 2, 64, 0
3, 249252, Note_on_c, 2, 66, 0
3, 249305, Note_on_c, 2, 69, 80
3, 249402, Note_on_c, 2, 69, 0
3, 249491, Note_on_c, 2, 68, 80
3, 249670, Note_on_c, 2, 68, 0
3, 249677, Note_on_c, 2, 66, 80
3, 249856, Note_on_c, 2, 68, 80
3, 249872, Note_on_c, 2, 66, 0
3, 250050, Note_on_c, 2, 71, 80
3, 250068, Note_on_c, 2, 68, 0
3, 250147, Note_on_c, 2, 71, 0
3, 250278, Note_on_c, 2, 69, 80
3, 250336, Note_on_c, 2, 68, 80
3, 250343, Note_on_c, 2, 69, 0
3, 250400, Note_on_c, 2, 69, 80
3, 250414, Note_on_c, 2, 68, 0
3, 252375, Note_on_c, 2, 69, 0
3, 252512, Note_on_c, 2, 69, 80
3, 252644, Note_on_c, 2, 68, 80
3, 252650, Note_on_c, 2, 69, 0
3, 252734, Note_on_c, 2, 68, 0
3, 252737, Note_on_c, 2, 69, 80
3, 252823, Note_on_c, 2, 68, 80
3, 252827, Note_on_c, 2, 69, 0
3, 252865, Note_on_c, 2, 69, 80
3, 252875, Note_on_c, 2, 68, 0
3, 252926, Note_on_c, 2, 68, 80
3, 252937, Note_on_c, 2, 69, 0
3, 253255, Note_on_c, 2, 68, 0
3, 253295, Note_on_c, 2, 69, 80
3, 254047, Note_on_c, 2, 69, 0
3, 254443, Note_on_c, 2, 64, 80
3, 254624, Note_on_c, 2, 66, 80
3, 254649, Note_on_c, 2, 64, 0
3, 254755, Note_on_c, 2, 66, 0
3, 254850, Note_on_c, 2, 68, 80
3, 255064, Note_on_c, 2, 66, 80
3, 255068, Note_on_c, 2, 68, 0
3, 255242, Note_on_c, 2, 64, 80
3, 255248, Note_on_c, 2, 66, 0
3, 255364, Note_on_c, 2, 64, 0
3, 255433, Note_on_c, 2, 68, 80
3, 255543, Note_on_c, 2, 68, 0
3, 255633, Note_on_c, 2, 69, 80
3, 255825, Note_on_c, 2, 68, 80
3, 255858, Note_on_c, 2, 69, 0
3, 256010, Note_on_c, 2, 66, 80
3, 256014, Note_on_c, 2, 68, 0
3, 256172, Note_on_c, 2, 64, 80
3, 256173, Note_on_c, 2, 66, 0
3, 256315, Note_on_c, 2, 64, 0
3, 256356, Note_on_c, 2, 71, 80
3, 256559, Note_on_c, 2, 69, 80
3, 256581, Note_on_c, 2, 71, 0
3, 256738, Note_on_c, 2, 68, 80
3, 256746, Note_on_c, 2, 69, 0
3, 256881, Note_on_c, 2, 68, 0
3, 256920, Note_on_c, 2, 69, 80
3, 257039, Note_on_c, 2, 69, 0
3, 257130, Note_on_c, 2, 71, 80
3, 258343, Note_on_c, 2, 71, 0
3, 258348, Note_on_c, 2, 69, 80
3, 258494, Note_on_c, 2, 69, 0
3, 258703, Note_on_c, 2, 69, 80
3, 259651, Note_on_c, 2, 71, 80
3, 259674, Note_on_c, 2, 69, 0
3, 259849, Note_on_c, 2, 69, 80
3, 259854, Note_on_c, 2, 71, 0
3, 260056, Note_on_c, 2, 66, 80
3, 260061, Note_on_c, 2, 69, 0
3, 260282, Note_on_c, 2, 68, 80
3, 260312, Note_on_c, 2, 66, 0
3, 260509, Note_on_c, 2, 69, 80
3, 260528, Note_on_c, 2, 68, 0
3, 260697, Note_on_c, 2, 68, 80
3, 260725, Note_on_c, 2, 69, 0
3, 260859, Note_on_c, 2, 68, 0
3, 260864, Note_on_c, 2, 64, 80
3, 260983, Note_on_c, 2, 64, 0
3, 261084, Note_on_c, 2, 66, 80
3, 261281, Note_on_c, 2, 64, 80
3, 261285, Note_on_c, 2, 66, 0
3, 261465, Note_on_c, 2, 66, 80
3, 261504, Note_on_c, 2, 64, 0
3, 261653, Note_on_c, 2, 69, 80
3, 261669, Note_on_c, 2, 66, 0
3, 261825, Note_on_c, 2, 69, 0
3, 261839, Note_on_c, 2, 68, 80
3, 262032, Note_on_c, 2, 68, 0
3, 262040, Note_on_c, 2, 66, 80
3, 262227, Note_on_c, 2, 68, 80
3, 262240, Note_on_c, 2, 66, 0
3, 262412, Note_on_c, 2, 68, 0
3, 262418, Note_on_c, 2, 71, 80
3, 262571, Note_on_c, 2, 71, 0
3, 262626, Note_on_c, 2, 69, 80
3, 262856, Note_on_c, 2, 69, 0
3, 263017, Note_on_c, 2, 64, 80
3, 263196, Note_on_c, 2, 64, 0
3, 263385, Note_on_c, 2, 69, 80
3, 264265, Note_on_c, 2, 69, 0
3, 264269, Note_on_c, 2, 68, 80
3, 264474, Note_on_c, 2, 69, 80
3, 264478, Note_on_c, 2, 68, 0
3, 264655, Note_on_c, 2, 73, 80
3, 264686, Note_on_c, 2, 69, 0
3, 264841, Note_on_c, 2, 73, 0
3, 264845, Note_on_c, 2, 71, 80
3, 265025, Note_on_c, 2, 69, 80
3, 265029, Note_on_c, 2, 71, 0
3, 265199, Note_on_c, 2, 71, 80
3, 265215, Note_on_c, 2, 69, 0
3, 265367, Note_on_c, 2, 71, 0
3, 265369, Note_on_c, 2, 74, 80
3, 265492, Note_on_c, 2, 74, 0
3, 265585, Note_on_c, 2, 68, 80
3, 266531, Note_on_c, 2, 68, 0
3, 266536, Note_on_c, 2, 69, 80
3, 266740, Note_on_c, 2, 68, 80
3, 266765, Note_on_c, 2, 69, 0
3, 266897, Note_on_c, 2, 68, 0
3, 266913, Note_on_c, 2, 64, 80
3, 267059, Note_on_c, 2, 64, 0
3, 267134, Note_on_c, 2, 70, 80
3, 267483, Note_on_c, 2, 70, 0
3, 267559, Note_on_c, 2, 58, 80
3, 267692, Note_on_c, 2, 58, 0
3, 267904, Note_on_c, 2, 59, 80
3, 268143, Note_on_c, 2, 59, 0
3, 268299, Note_on_c, 2, 71, 80
3, 268771, Note_on_c, 2, 71, 0
3, 268891, Note_on_c, 2, 73, 80
3, 269068, Note_on_c, 2, 71, 80
3, 269089, Note_on_c, 2, 73, 0
3, 269234, Note_on_c, 2, 71, 0
3, 269248, Note_on_c, 2, 68, 80
3, 269436, Note_on_c, 2, 68, 0
3, 269436, Note_on_c, 2, 69, 80
3, 269624, Note_on_c, 2, 71, 80
3, 269654, Note_on_c, 2, 69, 0
3, 269806, Note_on_c, 2, 69, 80
3, 269817, Note_on_c, 2, 71, 0
3, 269990, Note_on_c, 2, 66, 80
3, 269995, Note_on_c, 2, 69, 0
3, 270103, Note_on_c, 2, 66, 0
3, 270205, Note_on_c, 2, 68, 80
3, 270456, Note_on_c, 2, 68, 0
3, 270598, Note_on_c, 2, 71, 80
3, 270767, Note_on_c, 2, 71, 0
3, 270922, Note_on_c, 2, 61, 80
3, 271094, Note_on_c, 2, 61, 0
3, 271367, Note_on_c, 2, 68, 80
3, 271911, Note_on_c, 2, 68, 0
3, 271920, Note_on_c, 2, 69, 80
3, 272105, Note_on_c, 2, 69, 0
3, 272111, Note_on_c, 2, 68, 80
3, 272309, Note_on_c, 2, 65, 80
3, 272315, Note_on_c, 2, 68, 0
3, 272493, Note_on_c, 2, 65, 0
3, 272528, Note_on_c, 2, 66, 80
3, 273526, Note_on_c, 2, 63, 80
3, 273530, Note_on_c, 2, 66, 0
3, 273635, Note_on_c, 2, 63, 0
3, 273723, Note_on_c, 2, 64, 80
3, 274107, Note_on_c, 2, 64, 0
3, 274269, Note_on_c, 2, 62, 80
3, 274362, Note_on_c, 2, 62, 0
3, 274472, Note_on_c, 2, 67, 80
3, 274855, Note_on_c, 2, 67, 0
3, 275024, Note_on_c, 2, 64, 80
3, 275210, Note_on_c, 2, 66, 80
3, 275229, Note_on_c, 2, 64, 0
3, 275311, Note_on_c, 2, 66, 0
3, 275424, Note_on_c, 2, 69, 80
3, 275793, Note_on_c, 2, 66, 80
3, 275797, Note_on_c, 2, 69, 0
3, 275909, Note_on_c, 2, 66, 0
3, 275975, Note_on_c, 2, 68, 80
3, 276054, Note_on_c, 2, 68, 0
3, 276170, Note_on_c, 2, 71, 80
3, 276566, Note_on_c, 2, 68, 80
3, 276570, Note_on_c, 2, 71, 0
3, 276740, Note_on_c, 2, 69, 80
3, 276744, Note_on_c, 2, 68, 0
3, 276874, Note_on_c, 2, 69, 0
3, 276934, Note_on_c, 2, 74, 80
3, 277320, Note_on_c, 2, 76, 80
3, 277332, Note_on_c, 2, 74, 0
3, 277492, Note_on_c, 2, 74, 80
3, 277496, Note_on_c, 2, 76, 0
3, 277657, Note_on_c, 2, 71, 80
3, 277662, Note_on_c, 2, 74, 0
3, 277849, Note_on_c, 2, 73, 80
3, 277853, Note_on_c, 2, 71, 0
3, 277939, Note_on_c, 2, 73, 0
3, 278030, Note_on_c, 2, 78, 80
3, 278137, Note_on_c, 2, 78, 0
3, 278289, Note_on_c, 2, 76, 80
3, 278841, Note_on_c, 2, 73, 80
3, 278870, Note_on_c, 2, 76, 0
3, 278940, Note_on_c, 2, 73, 0
3, 279039, Note_on_c, 2, 74, 80
3, 279606, Note_on_c, 2, 71, 80
3, 279612, Note_on_c, 2, 74, 0
3, 279788, Note_on_c, 2, 71, 0
3, 279814, Note_on_c, 2, 73, 80
3, 279866, Note_on_c, 2, 73, 0
3, 279874, Note_on_c, 2, 71, 80
3, 279926, Note_on_c, 2, 73, 80
3, 279940, Note_on_c, 2, 71, 0
3, 280102, Note_on_c, 2, 73, 0
3, 280175, Note_on_c, 2, 74, 80
3, 281134, Note_on_c, 2, 76, 80
3, 281148, Note_on_c, 2, 74, 0
3, 281278, Note_on_c, 2, 76, 0
3, 281296, Note_on_c, 2, 74, 80
3, 281482, Note_on_c, 2, 71, 80
3, 281486, Note_on_c, 2, 74, 0
3, 281626, Note_on_c, 2, 71, 0
3, 281690, Note_on_c, 2, 73, 80
3, 281858, Note_on_c, 2, 73, 0
3, 281873, Note_on_c, 2, 74, 80
3, 282052, Note_on_c, 2, 73, 80
3, 282062, Note_on_c, 2, 74, 0
3, 282239, Note_on_c, 2, 69, 80
3, 282243, Note_on_c, 2, 73, 0
3, 282415, Note_on_c, 2, 69, 0
3, 282451, Note_on_c, 2, 71, 80
3, 282870, Note_on_c, 2, 71, 0
3, 282948, Note_on_c, 2, 64, 80
3, 283106, Note_on_c, 2, 64, 0
3, 283340, Note_on_c, 2, 76, 80
3, 284284, Note_on_c, 2, 78, 80
3, 284288, Note_on_c, 2, 76, 0
3, 284468, Note_on_c, 2, 76, 80
3, 284475, Note_on_c, 2, 78, 0
3, 284657, Note_on_c, 2, 73, 80
3, 284660, Note_on_c, 2, 76, 0
3, 284834, Note_on_c, 2, 74, 80
3, 284844, Note_on_c, 2, 73, 0
3, 285031, Note_on_c, 2, 76, 80
3, 285054, Note_on_c, 2, 74, 0
3, 285208, Note_on_c, 2, 74, 80
3, 285220, Note_on_c, 2, 76, 0
3, 285388, Note_on_c, 2, 71, 80
3, 285404, Note_on_c, 2, 74, 0
3, 285585, Note_on_c, 2, 71, 0
3, 285590, Note_on_c, 2, 73, 80
3, 285760, Note_on_c, 2, 73, 0
3, 285780, Note_on_c, 2, 71, 80
3, 285985, Note_on_c, 2, 73, 80
3, 286017, Note_on_c, 2, 71, 0
3, 286063, Note_on_c, 2, 73, 0
3, 286179, Note_on_c, 2, 81, 80
3, 286250, Note_on_c, 2, 81, 0
3, 286364, Note_on_c, 2, 79, 80
3, 286561, Note_on_c, 2, 82, 80
3, 286574, Note_on_c, 2, 79, 0
3, 286741, Note_on_c, 2, 76, 80
3, 286750, Note_on_c, 2, 82, 0
3, 286917, Note_on_c, 2, 79, 80
3, 286931, Note_on_c, 2, 76, 0
3, 286969, Note_on_c, 2, 79, 0
3, 287140, Note_on_c, 2, 73, 80
3, 287317, Note_on_c, 2, 73, 0
3, 287321, Note_on_c, 2, 71, 80
3, 287538, Note_on_c, 2, 73, 80
3, 287559, Note_on_c, 2, 71, 0
3, 287736, Note_on_c, 2, 73, 0
3, 287754, Note_on_c, 2, 79, 80
3, 287948, Note_on_c, 2, 79, 0
3, 287954, Note_on_c, 2, 76, 80
3, 288146, Note_on_c, 2, 79, 80
3, 288158, Note_on_c, 2, 76, 0
3, 288322, Note_on_c, 2, 79, 0
3, 288332, Note_on_c, 2, 73, 80
3, 288517, Note_on_c, 2, 76, 80
3, 288520, Note_on_c, 2, 73, 0
3, 288716, Note_on_c, 2, 76, 0
3, 288725, Note_on_c, 2, 69, 80
3, 289035, Note_on_c, 2, 69, 0
3, 289124, Note_on_c, 2, 57, 80
3, 289504, Note_on_c, 2, 62, 80
3, 289515, Note_on_c, 2, 57, 0
3, 289722, Note_on_c, 2, 62, 0
3, 289865, Note_on_c, 2, 66, 80
3, 290129, Note_on_c, 2, 66, 0
3, 290244, Note_on_c, 2, 69, 80
3, 290606, Note_on_c, 2, 69, 0
3, 290636, Note_on_c, 2, 66, 80
3, 290840, Note_on_c, 2, 66, 0
3, 291018, Note_on_c, 2, 62, 80
3, 291305, Note_on_c, 2, 62, 0
3, 291370, Note_on_c, 2, 59, 80
3, 291624, Note_on_c, 2, 59, 0
3, 291761, Note_on_c, 2, 56, 80
3, 291972, Note_on_c, 2, 54, 80
3, 291976, Note_on_c, 2, 56, 0
3, 292150, Note_on_c, 2, 56, 80
3, 292188, Note_on_c, 2, 54, 0
3, 292322, Note_on_c, 2, 65, 80
3, 292350, Note_on_c, 2, 56, 0
3, 292539, Note_on_c, 2, 62, 80
3, 292545, Note_on_c, 2, 65, 0
3, 292719, Note_on_c, 2, 65, 80
3, 292739, Note_on_c, 2, 62, 0
3, 292917, Note_on_c, 2, 65, 0
3, 292929, Note_on_c, 2, 59, 80
3, 293104, Note_on_c, 2, 62, 80
3, 293145, Note_on_c, 2, 59, 0
3, 293260, Note_on_c, 2, 62, 0
3, 293308, Note_on_c, 2, 56, 80
3, 293499, Note_on_c, 2, 56, 0
3, 293503, Note_on_c, 2, 54, 80
3, 293707, Note_on_c, 2, 56, 80
3, 293747, Note_on_c, 2, 54, 0
3, 293873, Note_on_c, 2, 62, 80
3, 293883, Note_on_c, 2, 56, 0
3, 294062, Note_on_c, 2, 62, 0
3, 294065, Note_on_c, 2, 59, 80
3, 294262, Note_on_c, 2, 62, 80
3, 294281, Note_on_c, 2, 59, 0
3, 294415, Note_on_c, 2, 62, 0
3, 294457, Note_on_c, 2, 56, 80
3, 294595, Note_on_c, 2, 56, 0
3, 294631, Note_on_c, 2, 59, 80
3, 294758, Note_on_c, 2, 59, 0
3, 294818, Note_on_c, 2, 52, 80
3, 295357, Note_on_c, 2, 54, 80
3, 295464, Note_on_c, 2, 56, 80
3, 295508, Note_on_c, 2, 54, 0
3, 295561, Note_on_c, 2, 56, 0
3, 295586, Note_on_c, 2, 57, 80
3, 295671, Note_on_c, 2, 57, 0
3, 295684, Note_on_c, 2, 56, 80
3, 295744, Note_on_c, 2, 56, 0
3, 295758, Note_on_c, 2, 57, 80
3, 295826, Note_on_c, 2, 56, 80
3, 295836, Note_on_c, 2, 57, 0
3, 295847, Note_on_c, 2, 56, 0
3, 295864, Note_on_c, 2, 57, 80
3, 295910, Note_on_c, 2, 56, 80
3, 295926, Note_on_c, 2, 57, 0
3, 295951, Note_on_c, 2, 56, 0
3, 295953, Note_on_c, 2, 57, 80
3, 296002, Note_on_c, 2, 56, 80
3, 296109, Note_on_c, 2, 56, 0
3, 296121, Note_on_c, 2, 54, 80
3, 296125, Note_on_c, 2, 57, 0
3, 296237, Note_on_c, 2, 56, 80
3, 296293, Note_on_c, 2, 54, 0
3, 296371, Note_on_c, 2, 57, 80
3, 296375, Note_on_c, 2, 56, 0
3, 297956, Note_on_c, 2, 52, 0
3, 297959, Note_on_c, 2, 57, 0
3, 297959, End_track
4, 0, Start_track
4, 0, Title_t, "Ped 16"
4, 0, MIDI_port, 0
4, 0, Control_c, 3, 7, 106
4, 0, Control_c, 3, 93, 0
4, 0, Control_c, 3, 91, 93
4, 0, Control_c, 3, 10, 85
4, 0, Program_c, 3, 43
4, 2995, Note_on_c, 3, 33, 80
4, 3776, Note_on_c, 3, 35, 80
4, 3781, Note_on_c, 3, 33, 0
4, 4511, Note_on_c, 3, 35, 0
4, 4582, Note_on_c, 3, 37, 80
4, 5420, Note_on_c, 3, 37, 0
4, 5708, Note_on_c, 3, 37, 80
4, 5829, Note_on_c, 3, 37, 0
4, 6092, Note_on_c, 3, 38, 80
4, 6872, Note_on_c, 3, 38, 0
4, 6873, Note_on_c, 3, 40, 80
4, 7564, Note_on_c, 3, 40, 0
4, 7628, Note_on_c, 3, 42, 80
4, 8460, Note_on_c, 3, 42, 0
4, 8755, Note_on_c, 3, 40, 80
4, 8908, Note_on_c, 3, 40, 0
4, 9139, Note_on_c, 3, 38, 80
4, 9561, Note_on_c, 3, 35, 80
4, 9574, Note_on_c, 3, 38, 0
4, 9919, Note_on_c, 3, 35, 0
4, 9945, Note_on_c, 3, 40, 80
4, 10137, Note_on_c, 3, 40, 0
4, 10329, Note_on_c, 3, 28, 80
4, 10508, Note_on_c, 3, 28, 0
4, 10726, Note_on_c, 3, 33, 80
4, 10879, Note_on_c, 3, 33, 0
4, 11123, Note_on_c, 3, 45, 80
4, 11276, Note_on_c, 3, 45, 0
4, 11532, Note_on_c, 3, 44, 80
4, 12037, Note_on_c, 3, 44, 0
4, 12121, Note_on_c, 3, 42, 80
4, 12204, Note_on_c, 3, 42, 0
4, 12300, Note_on_c, 3, 40, 80
4, 13010, Note_on_c, 3, 40, 0
4, 13068, Note_on_c, 3, 42, 80
4, 13733, Note_on_c, 3, 42, 0
4, 13824, Note_on_c, 3, 44, 80
4, 14630, Note_on_c, 3, 44, 0
4, 14924, Note_on_c, 3, 44, 80
4, 15052, Note_on_c, 3, 44, 0
4, 15321, Note_on_c, 3, 45, 80
4, 15993, Note_on_c, 3, 45, 0
4, 16089, Note_on_c, 3, 47, 80
4, 16633, Note_on_c, 3, 47, 0
4, 16832, Note_on_c, 3, 49, 80
4, 17702, Note_on_c, 3, 49, 0
4, 18009, Note_on_c, 3, 47, 80
4, 18130, Note_on_c, 3, 47, 0
4, 18355, Note_on_c, 3, 45, 80
4, 18752, Note_on_c, 3, 42, 80
4, 18758, Note_on_c, 3, 45, 0
4, 19052, Note_on_c, 3, 42, 0
4, 19097, Note_on_c, 3, 47, 80
4, 19218, Note_on_c, 3, 47, 0
4, 19488, Note_on_c, 3, 35, 80
4, 19596, Note_on_c, 3, 35, 0
4, 19955, Note_on_c, 3, 28, 80
4, 20217, Note_on_c, 3, 28, 0
4, 20326, Note_on_c, 3, 40, 80
4, 20575, Note_on_c, 3, 40, 0
4, 20697, Note_on_c, 3, 39, 80
4, 21138, Note_on_c, 3, 39, 0
4, 21273, Note_on_c, 3, 37, 80
4, 21343, Note_on_c, 3, 37, 0
4, 21452, Note_on_c, 3, 35, 80
4, 22181, Note_on_c, 3, 35, 0
4, 22233, Note_on_c, 3, 37, 80
4, 22905, Note_on_c, 3, 37, 0
4, 23014, Note_on_c, 3, 39, 80
4, 23743, Note_on_c, 3, 39, 0
4, 24140, Note_on_c, 3, 26, 80
4, 24344, Note_on_c, 3, 26, 0
4, 24524, Note_on_c, 3, 33, 80
4, 24632, Note_on_c, 3, 33, 0
4, 24896, Note_on_c, 3, 45, 80
4, 25043, Note_on_c, 3, 45, 0
4, 25292, Note_on_c, 3, 39, 80
4, 25464, Note_on_c, 3, 39, 0
4, 25676, Note_on_c, 3, 35, 80
4, 25823, Note_on_c, 3, 35, 0
4, 26073, Note_on_c, 3, 40, 80
4, 26329, Note_on_c, 3, 40, 0
4, 26457, Note_on_c, 3, 37, 80
4, 26642, Note_on_c, 3, 37, 0
4, 26867, Note_on_c, 3, 42, 80
4, 27231, Note_on_c, 3, 42, 0
4, 27238, Note_on_c, 3, 40, 80
4, 27410, Note_on_c, 3, 40, 0
4, 27635, Note_on_c, 3, 38, 80
4, 27891, Note_on_c, 3, 38, 0
4, 28019, Note_on_c, 3, 35, 80
4, 28185, Note_on_c, 3, 35, 0
4, 28390, Note_on_c, 3, 40, 80
4, 28562, Note_on_c, 3, 40, 0
4, 28774, Note_on_c, 3, 28, 80
4, 28946, Note_on_c, 3, 28, 0
4, 29171, Note_on_c, 3, 33, 80
4, 30022, Note_on_c, 3, 33, 0
4, 30310, Note_on_c, 3, 33, 80
4, 30450, Note_on_c, 3, 33, 0
4, 30681, Note_on_c, 3, 37, 80
4, 30949, Note_on_c, 3, 37, 0
4, 31078, Note_on_c, 3, 33, 80
4, 31231, Note_on_c, 3, 33, 0
4, 31462, Note_on_c, 3, 38, 80
4, 31705, Note_on_c, 3, 38, 0
4, 31833, Note_on_c, 3, 35, 80
4, 31986, Note_on_c, 3, 35, 0
4, 32230, Note_on_c, 3, 40, 80
4, 34444, Note_on_c, 3, 40, 0
4, 34521, Note_on_c, 3, 38, 80
4, 35129, Note_on_c, 3, 38, 0
4, 35276, Note_on_c, 3, 37, 80
4, 35660, Note_on_c, 3, 35, 80
4, 35698, Note_on_c, 3, 37, 0
4, 36044, Note_on_c, 3, 37, 80
4, 36050, Note_on_c, 3, 35, 0
4, 36210, Note_on_c, 3, 37, 0
4, 36428, Note_on_c, 3, 33, 80
4, 36575, Note_on_c, 3, 33, 0
4, 36838, Note_on_c, 3, 38, 80
4, 37567, Note_on_c, 3, 38, 0
4, 37657, Note_on_c, 3, 40, 80
4, 38265, Note_on_c, 3, 40, 0
4, 38387, Note_on_c, 3, 33, 80
4, 39161, Note_on_c, 3, 33, 0
4, 39545, Note_on_c, 3, 33, 80
4, 39653, Note_on_c, 3, 33, 0
4, 39859, Note_on_c, 3, 35, 80
4, 40582, Note_on_c, 3, 35, 0
4, 40640, Note_on_c, 3, 37, 80
4, 41273, Note_on_c, 3, 37, 0
4, 41408, Note_on_c, 3, 30, 80
4, 42182, Note_on_c, 3, 30, 0
4, 42560, Note_on_c, 3, 38, 80
4, 42720, Note_on_c, 3, 38, 0
4, 42931, Note_on_c, 3, 40, 80
4, 43622, Note_on_c, 3, 40, 0
4, 43724, Note_on_c, 3, 42, 80
4, 44402, Note_on_c, 3, 42, 0
4, 44480, Note_on_c, 3, 35, 80
4, 45267, Note_on_c, 3, 35, 0
4, 45632, Note_on_c, 3, 44, 80
4, 45792, Note_on_c, 3, 44, 0
4, 46016, Note_on_c, 3, 45, 80
4, 46809, Note_on_c, 3, 47, 80
4, 46816, Note_on_c, 3, 45, 0
4, 47590, Note_on_c, 3, 49, 80
4, 47641, Note_on_c, 3, 47, 0
4, 48402, Note_on_c, 3, 49, 0
4, 48681, Note_on_c, 3, 47, 80
4, 48830, Note_on_c, 3, 47, 0
4, 49068, Note_on_c, 3, 45, 80
4, 49429, Note_on_c, 3, 45, 0
4, 49436, Note_on_c, 3, 42, 80
4, 49833, Note_on_c, 3, 44, 80
4, 49895, Note_on_c, 3, 42, 0
4, 49999, Note_on_c, 3, 44, 0
4, 50206, Note_on_c, 3, 40, 80
4, 50397, Note_on_c, 3, 40, 0
4, 50598, Note_on_c, 3, 42, 80
4, 50933, Note_on_c, 3, 42, 0
4, 50982, Note_on_c, 3, 35, 80
4, 51392, Note_on_c, 3, 40, 80
4, 51423, Note_on_c, 3, 35, 0
4, 51980, Note_on_c, 3, 42, 80
4, 52012, Note_on_c, 3, 40, 0
4, 52146, Note_on_c, 3, 42, 0
4, 52172, Note_on_c, 3, 44, 80
4, 52364, Note_on_c, 3, 44, 0
4, 52556, Note_on_c, 3, 40, 80
4, 52760, Note_on_c, 3, 40, 0
4, 52928, Note_on_c, 3, 45, 80
4, 53177, Note_on_c, 3, 45, 0
4, 53324, Note_on_c, 3, 42, 80
4, 53458, Note_on_c, 3, 42, 0
4, 53721, Note_on_c, 3, 47, 80
4, 55916, Note_on_c, 3, 47, 0
4, 56012, Note_on_c, 3, 45, 80
4, 56626, Note_on_c, 3, 45, 0
4, 56755, Note_on_c, 3, 44, 80
4, 57152, Note_on_c, 3, 42, 80
4, 57183, Note_on_c, 3, 44, 0
4, 57536, Note_on_c, 3, 44, 80
4, 57606, Note_on_c, 3, 42, 0
4, 57728, Note_on_c, 3, 44, 0
4, 57920, Note_on_c, 3, 40, 80
4, 58086, Note_on_c, 3, 40, 0
4, 58316, Note_on_c, 3, 45, 80
4, 58943, Note_on_c, 3, 45, 0
4, 59072, Note_on_c, 3, 47, 80
4, 59776, Note_on_c, 3, 47, 0
4, 59840, Note_on_c, 3, 40, 80
4, 60761, Note_on_c, 3, 40, 0
4, 60979, Note_on_c, 3, 40, 80
4, 61196, Note_on_c, 3, 40, 0
4, 61376, Note_on_c, 3, 42, 80
4, 62124, Note_on_c, 3, 42, 0
4, 62169, Note_on_c, 3, 44, 80
4, 62912, Note_on_c, 3, 37, 80
4, 62930, Note_on_c, 3, 44, 0
4, 63776, Note_on_c, 3, 37, 0
4, 64051, Note_on_c, 3, 33, 80
4, 64281, Note_on_c, 3, 33, 0
4, 64448, Note_on_c, 3, 35, 80
4, 65216, Note_on_c, 3, 35, 0
4, 65216, Note_on_c, 3, 37, 80
4, 65900, Note_on_c, 3, 37, 0
4, 65996, Note_on_c, 3, 30, 80
4, 66821, Note_on_c, 3, 30, 0
4, 67161, Note_on_c, 3, 39, 80
4, 67340, Note_on_c, 3, 39, 0
4, 67558, Note_on_c, 3, 40, 80
4, 68300, Note_on_c, 3, 40, 0
4, 68300, Note_on_c, 3, 42, 80
4, 69061, Note_on_c, 3, 42, 0
4, 69094, Note_on_c, 3, 35, 80
4, 69900, Note_on_c, 3, 35, 0
4, 70195, Note_on_c, 3, 32, 80
4, 70335, Note_on_c, 3, 32, 0
4, 70592, Note_on_c, 3, 33, 80
4, 71372, Note_on_c, 3, 35, 80
4, 71392, Note_on_c, 3, 33, 0
4, 72133, Note_on_c, 3, 35, 0
4, 72140, Note_on_c, 3, 28, 80
4, 72876, Note_on_c, 3, 28, 0
4, 73254, Note_on_c, 3, 37, 80
4, 73478, Note_on_c, 3, 37, 0
4, 73625, Note_on_c, 3, 38, 80
4, 74437, Note_on_c, 3, 38, 0
4, 74444, Note_on_c, 3, 40, 80
4, 75225, Note_on_c, 3, 42, 80
4, 75282, Note_on_c, 3, 40, 0
4, 75999, Note_on_c, 3, 42, 0
4, 76352, Note_on_c, 3, 40, 80
4, 76505, Note_on_c, 3, 40, 0
4, 76723, Note_on_c, 3, 38, 80
4, 77107, Note_on_c, 3, 35, 80
4, 77139, Note_on_c, 3, 38, 0
4, 77484, Note_on_c, 3, 35, 0
4, 77491, Note_on_c, 3, 40, 80
4, 77663, Note_on_c, 3, 40, 0
4, 77862, Note_on_c, 3, 28, 80
4, 78086, Note_on_c, 3, 28, 0
4, 78272, Note_on_c, 3, 33, 80
4, 78643, Note_on_c, 3, 31, 80
4, 78694, Note_on_c, 3, 33, 0
4, 78943, Note_on_c, 3, 31, 0
4, 79040, Note_on_c, 3, 30, 80
4, 79180, Note_on_c, 3, 30, 0
4, 79411, Note_on_c, 3, 28, 80
4, 79596, Note_on_c, 3, 28, 0
4, 79820, Note_on_c, 3, 26, 80
4, 80543, Note_on_c, 3, 26, 0
4, 80601, Note_on_c, 3, 28, 80
4, 81356, Note_on_c, 3, 30, 80
4, 81362, Note_on_c, 3, 28, 0
4, 82149, Note_on_c, 3, 30, 0
4, 82508, Note_on_c, 3, 42, 80
4, 82680, Note_on_c, 3, 42, 0
4, 82931, Note_on_c, 3, 43, 80
4, 83667, Note_on_c, 3, 43, 0
4, 83673, Note_on_c, 3, 45, 80
4, 84403, Note_on_c, 3, 47, 80
4, 84428, Note_on_c, 3, 45, 0
4, 85177, Note_on_c, 3, 47, 0
4, 85529, Note_on_c, 3, 45, 80
4, 85689, Note_on_c, 3, 45, 0
4, 85900, Note_on_c, 3, 43, 80
4, 86284, Note_on_c, 3, 40, 80
4, 86303, Note_on_c, 3, 43, 0
4, 86668, Note_on_c, 3, 42, 80
4, 86687, Note_on_c, 3, 40, 0
4, 86911, Note_on_c, 3, 42, 0
4, 87065, Note_on_c, 3, 38, 80
4, 87276, Note_on_c, 3, 38, 0
4, 87449, Note_on_c, 3, 40, 80
4, 87820, Note_on_c, 3, 40, 0
4, 87859, Note_on_c, 3, 33, 80
4, 88083, Note_on_c, 3, 33, 0
4, 88268, Note_on_c, 3, 38, 80
4, 88696, Note_on_c, 3, 38, 0
4, 88857, Note_on_c, 3, 40, 80
4, 88991, Note_on_c, 3, 40, 0
4, 89062, Note_on_c, 3, 42, 80
4, 89414, Note_on_c, 3, 42, 0
4, 89420, Note_on_c, 3, 38, 80
4, 89804, Note_on_c, 3, 43, 80
4, 89810, Note_on_c, 3, 38, 0
4, 90021, Note_on_c, 3, 43, 0
4, 90163, Note_on_c, 3, 40, 80
4, 90329, Note_on_c, 3, 40, 0
4, 90585, Note_on_c, 3, 45, 80
4, 92825, Note_on_c, 3, 45, 0
4, 92889, Note_on_c, 3, 43, 80
4, 93599, Note_on_c, 3, 43, 0
4, 93657, Note_on_c, 3, 42, 80
4, 94016, Note_on_c, 3, 40, 80
4, 94028, Note_on_c, 3, 42, 0
4, 94387, Note_on_c, 3, 42, 80
4, 94451, Note_on_c, 3, 40, 0
4, 94553, Note_on_c, 3, 42, 0
4, 94758, Note_on_c, 3, 38, 80
4, 94905, Note_on_c, 3, 38, 0
4, 95168, Note_on_c, 3, 43, 80
4, 95833, Note_on_c, 3, 43, 0
4, 95923, Note_on_c, 3, 45, 80
4, 96678, Note_on_c, 3, 38, 80
4, 96691, Note_on_c, 3, 45, 0
4, 96850, Note_on_c, 3, 38, 0
4, 97100, Note_on_c, 3, 50, 80
4, 97324, Note_on_c, 3, 50, 0
4, 97484, Note_on_c, 3, 49, 80
4, 97848, Note_on_c, 3, 49, 0
4, 97856, Note_on_c, 3, 47, 80
4, 98208, Note_on_c, 3, 47, 0
4, 98252, Note_on_c, 3, 45, 80
4, 98278, Note_on_c, 3, 47, 80
4, 98310, Note_on_c, 3, 47, 0
4, 98373, Note_on_c, 3, 45, 0
4, 98636, Note_on_c, 3, 33, 80
4, 98860, Note_on_c, 3, 33, 0
4, 99020, Note_on_c, 3, 31, 80
4, 99378, Note_on_c, 3, 31, 0
4, 99392, Note_on_c, 3, 30, 80
4, 99622, Note_on_c, 3, 30, 0
4, 99776, Note_on_c, 3, 28, 80
4, 99936, Note_on_c, 3, 28, 0
4, 100185, Note_on_c, 3, 40, 80
4, 100543, Note_on_c, 3, 40, 0
4, 100556, Note_on_c, 3, 38, 80
4, 100748, Note_on_c, 3, 38, 0
4, 100928, Note_on_c, 3, 37, 80
4, 101062, Note_on_c, 3, 37, 0
4, 101324, Note_on_c, 3, 35, 80
4, 102092, Note_on_c, 3, 35, 0
4, 102092, Note_on_c, 3, 37, 80
4, 102757, Note_on_c, 3, 37, 0
4, 102835, Note_on_c, 3, 38, 80
4, 103673, Note_on_c, 3, 38, 0
4, 104000, Note_on_c, 3, 35, 80
4, 104185, Note_on_c, 3, 35, 0
4, 104409, Note_on_c, 3, 42, 80
4, 104819, Note_on_c, 3, 40, 80
4, 104850, Note_on_c, 3, 42, 0
4, 105215, Note_on_c, 3, 40, 0
4, 105216, Note_on_c, 3, 42, 80
4, 105363, Note_on_c, 3, 42, 0
4, 105600, Note_on_c, 3, 37, 80
4, 105760, Note_on_c, 3, 37, 0
4, 105971, Note_on_c, 3, 38, 80
4, 106342, Note_on_c, 3, 35, 80
4, 106361, Note_on_c, 3, 38, 0
4, 106681, Note_on_c, 3, 35, 0
4, 106688, Note_on_c, 3, 40, 80
4, 106886, Note_on_c, 3, 40, 0
4, 107059, Note_on_c, 3, 28, 80
4, 107199, Note_on_c, 3, 28, 0
4, 107481, Note_on_c, 3, 33, 80
4, 108236, Note_on_c, 3, 33, 0
4, 110579, Note_on_c, 3, 33, 80
4, 111295, Note_on_c, 3, 33, 0
4, 113177, Note_on_c, 3, 45, 80
4, 113285, Note_on_c, 3, 45, 0
4, 113561, Note_on_c, 3, 45, 80
4, 113945, Note_on_c, 3, 33, 80
4, 114034, Note_on_c, 3, 45, 0
4, 114181, Note_on_c, 3, 33, 0
4, 114713, Note_on_c, 3, 45, 80
4, 114809, Note_on_c, 3, 45, 0
4, 115123, Note_on_c, 3, 45, 80
4, 115494, Note_on_c, 3, 33, 80
4, 115532, Note_on_c, 3, 45, 0
4, 115711, Note_on_c, 3, 33, 0
4, 116224, Note_on_c, 3, 45, 80
4, 116339, Note_on_c, 3, 45, 0
4, 116615, Note_on_c, 3, 45, 80
4, 116992, Note_on_c, 3, 45, 0
4, 117030, Note_on_c, 3, 33, 80
4, 117266, Note_on_c, 3, 33, 0
4, 117785, Note_on_c, 3, 45, 80
4, 117913, Note_on_c, 3, 45, 0
4, 118182, Note_on_c, 3, 45, 80
4, 118502, Note_on_c, 3, 45, 0
4, 118566, Note_on_c, 3, 33, 80
4, 118783, Note_on_c, 3, 33, 0
4, 119334, Note_on_c, 3, 45, 80
4, 119474, Note_on_c, 3, 45, 0
4, 119782, Note_on_c, 3, 45, 80
4, 120326, Note_on_c, 3, 45, 0
4, 121676, Note_on_c, 3, 33, 80
4, 121829, Note_on_c, 3, 33, 0
4, 122073, Note_on_c, 3, 37, 80
4, 122425, Note_on_c, 3, 37, 0
4, 122444, Note_on_c, 3, 33, 80
4, 122655, Note_on_c, 3, 33, 0
4, 123212, Note_on_c, 3, 38, 80
4, 123372, Note_on_c, 3, 38, 0
4, 123596, Note_on_c, 3, 42, 80
4, 123968, Note_on_c, 3, 38, 80
4, 123980, Note_on_c, 3, 42, 0
4, 124115, Note_on_c, 3, 38, 0
4, 124710, Note_on_c, 3, 45, 80
4, 124876, Note_on_c, 3, 45, 0
4, 125081, Note_on_c, 3, 49, 80
4, 125433, Note_on_c, 3, 49, 0
4, 125452, Note_on_c, 3, 45, 80
4, 125592, Note_on_c, 3, 45, 0
4, 125849, Note_on_c, 3, 47, 80
4, 126246, Note_on_c, 3, 45, 80
4, 126284, Note_on_c, 3, 47, 0
4, 126431, Note_on_c, 3, 45, 0
4, 126630, Note_on_c, 3, 44, 80
4, 126802, Note_on_c, 3, 44, 0
4, 127001, Note_on_c, 3, 40, 80
4, 127173, Note_on_c, 3, 40, 0
4, 127398, Note_on_c, 3, 45, 80
4, 127795, Note_on_c, 3, 44, 80
4, 127839, Note_on_c, 3, 45, 0
4, 127987, Note_on_c, 3, 44, 0
4, 128179, Note_on_c, 3, 42, 80
4, 128524, Note_on_c, 3, 42, 0
4, 128550, Note_on_c, 3, 40, 80
4, 128729, Note_on_c, 3, 40, 0
4, 128934, Note_on_c, 3, 39, 80
4, 129164, Note_on_c, 3, 39, 0
4, 129305, Note_on_c, 3, 44, 80
4, 129477, Note_on_c, 3, 44, 0
4, 129689, Note_on_c, 3, 41, 80
4, 130015, Note_on_c, 3, 41, 0
4, 130086, Note_on_c, 3, 37, 80
4, 130233, Note_on_c, 3, 37, 0
4, 130470, Note_on_c, 3, 42, 80
4, 130841, Note_on_c, 3, 42, 0
4, 130854, Note_on_c, 3, 44, 80
4, 131039, Note_on_c, 3, 44, 0
4, 131225, Note_on_c, 3, 45, 80
4, 131461, Note_on_c, 3, 45, 0
4, 131622, Note_on_c, 3, 42, 80
4, 131846, Note_on_c, 3, 42, 0
4, 132006, Note_on_c, 3, 47, 80
4, 132377, Note_on_c, 3, 44, 80
4, 132396, Note_on_c, 3, 47, 0
4, 132761, Note_on_c, 3, 44, 0
4, 132761, Note_on_c, 3, 49, 80
4, 132959, Note_on_c, 3, 49, 0
4, 133132, Note_on_c, 3, 37, 80
4, 133298, Note_on_c, 3, 37, 0
4, 133555, Note_on_c, 3, 42, 80
4, 133958, Note_on_c, 3, 42, 0
4, 137036, Note_on_c, 3, 42, 80
4, 137202, Note_on_c, 3, 42, 0
4, 137408, Note_on_c, 3, 45, 80
4, 137696, Note_on_c, 3, 45, 0
4, 137792, Note_on_c, 3, 42, 80
4, 138124, Note_on_c, 3, 42, 0
4, 138150, Note_on_c, 3, 47, 80
4, 138290, Note_on_c, 3, 47, 0
4, 138534, Note_on_c, 3, 35, 80
4, 138866, Note_on_c, 3, 35, 0
4, 138918, Note_on_c, 3, 38, 80
4, 139289, Note_on_c, 3, 38, 0
4, 139289, Note_on_c, 3, 35, 80
4, 139615, Note_on_c, 3, 35, 0
4, 139673, Note_on_c, 3, 37, 80
4, 139858, Note_on_c, 3, 37, 0
4, 140057, Note_on_c, 3, 33, 80
4, 140313, Note_on_c, 3, 33, 0
4, 140428, Note_on_c, 3, 38, 80
4, 140812, Note_on_c, 3, 37, 80
4, 140837, Note_on_c, 3, 38, 0
4, 141196, Note_on_c, 3, 35, 80
4, 141221, Note_on_c, 3, 37, 0
4, 141619, Note_on_c, 3, 32, 80
4, 141688, Note_on_c, 3, 35, 0
4, 141855, Note_on_c, 3, 32, 0
4, 141990, Note_on_c, 3, 37, 80
4, 142150, Note_on_c, 3, 37, 0
4, 142387, Note_on_c, 3, 37, 80
4, 142534, Note_on_c, 3, 37, 0
4, 142784, Note_on_c, 3, 30, 80
4, 143104, Note_on_c, 3, 30, 0
4, 143923, Note_on_c, 3, 42, 80
4, 144057, Note_on_c, 3, 42, 0
4, 144345, Note_on_c, 3, 44, 80
4, 145132, Note_on_c, 3, 44, 0
4, 145446, Note_on_c, 3, 44, 80
4, 145535, Note_on_c, 3, 44, 0
4, 145856, Note_on_c, 3, 45, 80
4, 146592, Note_on_c, 3, 45, 0
4, 146956, Note_on_c, 3, 47, 80
4, 147763, Note_on_c, 3, 45, 80
4, 147775, Note_on_c, 3, 47, 0
4, 147961, Note_on_c, 3, 45, 0
4, 148121, Note_on_c, 3, 44, 80
4, 148485, Note_on_c, 3, 44, 0
4, 148518, Note_on_c, 3, 42, 80
4, 148774, Note_on_c, 3, 42, 0
4, 148915, Note_on_c, 3, 44, 80
4, 149286, Note_on_c, 3, 42, 80
4, 149299, Note_on_c, 3, 44, 0
4, 149631, Note_on_c, 3, 42, 0
4, 149632, Note_on_c, 3, 41, 80
4, 149894, Note_on_c, 3, 41, 0
4, 150028, Note_on_c, 3, 37, 80
4, 150181, Note_on_c, 3, 37, 0
4, 150438, Note_on_c, 3, 42, 80
4, 151161, Note_on_c, 3, 42, 0
4, 152000, Note_on_c, 3, 30, 80
4, 152806, Note_on_c, 3, 30, 0
4, 153523, Note_on_c, 3, 35, 80
4, 154259, Note_on_c, 3, 35, 0
4, 154995, Note_on_c, 3, 35, 80
4, 155859, Note_on_c, 3, 35, 0
4, 156595, Note_on_c, 3, 40, 80
4, 157382, Note_on_c, 3, 40, 0
4, 158131, Note_on_c, 3, 28, 80
4, 158969, Note_on_c, 3, 28, 0
4, 159654, Note_on_c, 3, 33, 80
4, 160447, Note_on_c, 3, 33, 0
4, 161203, Note_on_c, 3, 33, 80
4, 162054, Note_on_c, 3, 33, 0
4, 162726, Note_on_c, 3, 38, 80
4, 163506, Note_on_c, 3, 38, 0
4, 164288, Note_on_c, 3, 35, 80
4, 165094, Note_on_c, 3, 35, 0
4, 165862, Note_on_c, 3, 30, 80
4, 166681, Note_on_c, 3, 30, 0
4, 166976, Note_on_c, 3, 30, 80
4, 167084, Note_on_c, 3, 30, 0
4, 167385, Note_on_c, 3, 31, 80
4, 168185, Note_on_c, 3, 31, 0
4, 168499, Note_on_c, 3, 31, 80
4, 168601, Note_on_c, 3, 31, 0
4, 168921, Note_on_c, 3, 33, 80
4, 169701, Note_on_c, 3, 33, 0
4, 170035, Note_on_c, 3, 33, 80
4, 170156, Note_on_c, 3, 33, 0
4, 170457, Note_on_c, 3, 35, 80
4, 170803, Note_on_c, 3, 31, 80
4, 170841, Note_on_c, 3, 35, 0
4, 170943, Note_on_c, 3, 31, 0
4, 171212, Note_on_c, 3, 33, 80
4, 171647, Note_on_c, 3, 33, 0
4, 172006, Note_on_c, 3, 26, 80
4, 172690, Note_on_c, 3, 26, 0
4, 175065, Note_on_c, 3, 26, 80
4, 175858, Note_on_c, 3, 26, 0
4, 177715, Note_on_c, 3, 38, 80
4, 177823, Note_on_c, 3, 38, 0
4, 178099, Note_on_c, 3, 38, 80
4, 178431, Note_on_c, 3, 38, 0
4, 178470, Note_on_c, 3, 26, 80
4, 178655, Note_on_c, 3, 26, 0
4, 179225, Note_on_c, 3, 38, 80
4, 179333, Note_on_c, 3, 38, 0
4, 179622, Note_on_c, 3, 38, 80
4, 179993, Note_on_c, 3, 26, 80
4, 179999, Note_on_c, 3, 38, 0
4, 180133, Note_on_c, 3, 26, 0
4, 180774, Note_on_c, 3, 38, 80
4, 180876, Note_on_c, 3, 38, 0
4, 181158, Note_on_c, 3, 38, 80
4, 181542, Note_on_c, 3, 26, 80
4, 181599, Note_on_c, 3, 38, 0
4, 181734, Note_on_c, 3, 26, 0
4, 182310, Note_on_c, 3, 38, 80
4, 182412, Note_on_c, 3, 38, 0
4, 182694, Note_on_c, 3, 38, 80
4, 183039, Note_on_c, 3, 38, 0
4, 183052, Note_on_c, 3, 26, 80
4, 183212, Note_on_c, 3, 26, 0
4, 183820, Note_on_c, 3, 38, 80
4, 183960, Note_on_c, 3, 38, 0
4, 184256, Note_on_c, 3, 38, 80
4, 185024, Note_on_c, 3, 38, 0
4, 186163, Note_on_c, 3, 26, 80
4, 186323, Note_on_c, 3, 26, 0
4, 186572, Note_on_c, 3, 30, 80
4, 186834, Note_on_c, 3, 30, 0
4, 186918, Note_on_c, 3, 26, 80
4, 187129, Note_on_c, 3, 26, 0
4, 187712, Note_on_c, 3, 31, 80
4, 187840, Note_on_c, 3, 31, 0
4, 188108, Note_on_c, 3, 35, 80
4, 188434, Note_on_c, 3, 35, 0
4, 188467, Note_on_c, 3, 31, 80
4, 188601, Note_on_c, 3, 31, 0
4, 189222, Note_on_c, 3, 38, 80
4, 189356, Note_on_c, 3, 38, 0
4, 189632, Note_on_c, 3, 42, 80
4, 190003, Note_on_c, 3, 38, 80
4, 190016, Note_on_c, 3, 42, 0
4, 190150, Note_on_c, 3, 38, 0
4, 190400, Note_on_c, 3, 40, 80
4, 190771, Note_on_c, 3, 38, 80
4, 190784, Note_on_c, 3, 40, 0
4, 190956, Note_on_c, 3, 38, 0
4, 191155, Note_on_c, 3, 37, 80
4, 191308, Note_on_c, 3, 37, 0
4, 191526, Note_on_c, 3, 33, 80
4, 191705, Note_on_c, 3, 33, 0
4, 191923, Note_on_c, 3, 38, 80
4, 192294, Note_on_c, 3, 37, 80
4, 192332, Note_on_c, 3, 38, 0
4, 192678, Note_on_c, 3, 35, 80
4, 192697, Note_on_c, 3, 37, 0
4, 193062, Note_on_c, 3, 33, 80
4, 193068, Note_on_c, 3, 35, 0
4, 193446, Note_on_c, 3, 32, 80
4, 193497, Note_on_c, 3, 33, 0
4, 193843, Note_on_c, 3, 37, 80
4, 193849, Note_on_c, 3, 32, 0
4, 194227, Note_on_c, 3, 34, 80
4, 194233, Note_on_c, 3, 37, 0
4, 194585, Note_on_c, 3, 30, 80
4, 194598, Note_on_c, 3, 34, 0
4, 194828, Note_on_c, 3, 30, 0
4, 194969, Note_on_c, 3, 35, 80
4, 195379, Note_on_c, 3, 37, 80
4, 195385, Note_on_c, 3, 35, 0
4, 195776, Note_on_c, 3, 38, 80
4, 195833, Note_on_c, 3, 37, 0
4, 195936, Note_on_c, 3, 38, 0
4, 196121, Note_on_c, 3, 35, 80
4, 196306, Note_on_c, 3, 35, 0
4, 196505, Note_on_c, 3, 40, 80
4, 196889, Note_on_c, 3, 37, 80
4, 196901, Note_on_c, 3, 40, 0
4, 197228, Note_on_c, 3, 37, 0
4, 197248, Note_on_c, 3, 42, 80
4, 197459, Note_on_c, 3, 42, 0
4, 197657, Note_on_c, 3, 30, 80
4, 197785, Note_on_c, 3, 30, 0
4, 198080, Note_on_c, 3, 35, 80
4, 198579, Note_on_c, 3, 35, 0
4, 201574, Note_on_c, 3, 35, 80
4, 201721, Note_on_c, 3, 35, 0
4, 201958, Note_on_c, 3, 38, 80
4, 202316, Note_on_c, 3, 35, 80
4, 202329, Note_on_c, 3, 38, 0
4, 202661, Note_on_c, 3, 35, 0
4, 202675, Note_on_c, 3, 40, 80
4, 202841, Note_on_c, 3, 40, 0
4, 203084, Note_on_c, 3, 40, 80
4, 203276, Note_on_c, 3, 40, 0
4, 203456, Note_on_c, 3, 43, 80
4, 203814, Note_on_c, 3, 40, 80
4, 203820, Note_on_c, 3, 43, 0
4, 204198, Note_on_c, 3, 42, 80
4, 204204, Note_on_c, 3, 40, 0
4, 204383, Note_on_c, 3, 42, 0
4, 204569, Note_on_c, 3, 38, 80
4, 204735, Note_on_c, 3, 38, 0
4, 204979, Note_on_c, 3, 43, 80
4, 205350, Note_on_c, 3, 42, 80
4, 205388, Note_on_c, 3, 43, 0
4, 205663, Note_on_c, 3, 42, 0
4, 205734, Note_on_c, 3, 40, 80
4, 206143, Note_on_c, 3, 40, 0
4, 206144, Note_on_c, 3, 37, 80
4, 206508, Note_on_c, 3, 37, 0
4, 206515, Note_on_c, 3, 42, 80
4, 206694, Note_on_c, 3, 42, 0
4, 206886, Note_on_c, 3, 30, 80
4, 207033, Note_on_c, 3, 30, 0
4, 207308, Note_on_c, 3, 35, 80
4, 208076, Note_on_c, 3, 35, 0
4, 208435, Note_on_c, 3, 35, 80
4, 208556, Note_on_c, 3, 35, 0
4, 208857, Note_on_c, 3, 37, 80
4, 209631, Note_on_c, 3, 37, 0
4, 209971, Note_on_c, 3, 37, 80
4, 210067, Note_on_c, 3, 37, 0
4, 210368, Note_on_c, 3, 38, 80
4, 211110, Note_on_c, 3, 38, 0
4, 211481, Note_on_c, 3, 40, 80
4, 212288, Note_on_c, 3, 38, 80
4, 212293, Note_on_c, 3, 40, 0
4, 212505, Note_on_c, 3, 38, 0
4, 212659, Note_on_c, 3, 37, 80
4, 213017, Note_on_c, 3, 37, 0
4, 213030, Note_on_c, 3, 35, 80
4, 213222, Note_on_c, 3, 35, 0
4, 213401, Note_on_c, 3, 37, 80
4, 213798, Note_on_c, 3, 35, 80
4, 213810, Note_on_c, 3, 37, 0
4, 214092, Note_on_c, 3, 35, 0
4, 214182, Note_on_c, 3, 34, 80
4, 214380, Note_on_c, 3, 34, 0
4, 214566, Note_on_c, 3, 30, 80
4, 214751, Note_on_c, 3, 30, 0
4, 215001, Note_on_c, 3, 35, 80
4, 215436, Note_on_c, 3, 35, 0
4, 216470, Note_on_c, 3, 35, 80
4, 216962, Note_on_c, 3, 35, 0
4, 218048, Note_on_c, 3, 40, 80
4, 218592, Note_on_c, 3, 40, 0
4, 219596, Note_on_c, 3, 28, 80
4, 220159, Note_on_c, 3, 28, 0
4, 221145, Note_on_c, 3, 33, 80
4, 221849, Note_on_c, 3, 33, 0
4, 222630, Note_on_c, 3, 33, 80
4, 223449, Note_on_c, 3, 33, 0
4, 224179, Note_on_c, 3, 38, 80
4, 224844, Note_on_c, 3, 38, 0
4, 225356, Note_on_c, 3, 39, 80
4, 225535, Note_on_c, 3, 39, 0
4, 225740, Note_on_c, 3, 40, 80
4, 226488, Note_on_c, 3, 40, 0
4, 226841, Note_on_c, 3, 41, 80
4, 227052, Note_on_c, 3, 41, 0
4, 227238, Note_on_c, 3, 42, 80
4, 228050, Note_on_c, 3, 42, 0
4, 228364, Note_on_c, 3, 42, 80
4, 228600, Note_on_c, 3, 42, 0
4, 228812, Note_on_c, 3, 44, 80
4, 229573, Note_on_c, 3, 44, 0
4, 229913, Note_on_c, 3, 44, 80
4, 230041, Note_on_c, 3, 44, 0
4, 230310, Note_on_c, 3, 45, 80
4, 231092, Note_on_c, 3, 42, 80
4, 231116, Note_on_c, 3, 45, 0
4, 231858, Note_on_c, 3, 38, 80
4, 231904, Note_on_c, 3, 42, 0
4, 232652, Note_on_c, 3, 40, 80
4, 232670, Note_on_c, 3, 38, 0
4, 233407, Note_on_c, 3, 40, 0
4, 233446, Note_on_c, 3, 42, 80
4, 234137, Note_on_c, 3, 38, 80
4, 234169, Note_on_c, 3, 42, 0
4, 234944, Note_on_c, 3, 35, 80
4, 234962, Note_on_c, 3, 38, 0
4, 235724, Note_on_c, 3, 37, 80
4, 235782, Note_on_c, 3, 35, 0
4, 236472, Note_on_c, 3, 37, 0
4, 236518, Note_on_c, 3, 38, 80
4, 237248, Note_on_c, 3, 35, 80
4, 237279, Note_on_c, 3, 38, 0
4, 238016, Note_on_c, 3, 32, 80
4, 238041, Note_on_c, 3, 35, 0
4, 238771, Note_on_c, 3, 33, 80
4, 238796, Note_on_c, 3, 32, 0
4, 239487, Note_on_c, 3, 33, 0
4, 239552, Note_on_c, 3, 35, 80
4, 240294, Note_on_c, 3, 32, 80
4, 240326, Note_on_c, 3, 35, 0
4, 241024, Note_on_c, 3, 33, 80
4, 241074, Note_on_c, 3, 32, 0
4, 241190, Note_on_c, 3, 33, 0
4, 241433, Note_on_c, 3, 30, 80
4, 241573, Note_on_c, 3, 30, 0
4, 241817, Note_on_c, 3, 37, 80
4, 242201, Note_on_c, 3, 37, 0
4, 242201, Note_on_c, 3, 33, 80
4, 242565, Note_on_c, 3, 33, 0
4, 242572, Note_on_c, 3, 38, 80
4, 242815, Note_on_c, 3, 38, 0
4, 242995, Note_on_c, 3, 35, 80
4, 243187, Note_on_c, 3, 35, 0
4, 243392, Note_on_c, 3, 37, 80
4, 243763, Note_on_c, 3, 38, 80
4, 243776, Note_on_c, 3, 37, 0
4, 243942, Note_on_c, 3, 38, 0
4, 244172, Note_on_c, 3, 40, 80
4, 244582, Note_on_c, 3, 38, 80
4, 244613, Note_on_c, 3, 40, 0
4, 244953, Note_on_c, 3, 37, 80
4, 245010, Note_on_c, 3, 38, 0
4, 245093, Note_on_c, 3, 37, 0
4, 245337, Note_on_c, 3, 35, 80
4, 245465, Note_on_c, 3, 35, 0
4, 245747, Note_on_c, 3, 33, 80
4, 246463, Note_on_c, 3, 33, 0
4, 246515, Note_on_c, 3, 35, 80
4, 247232, Note_on_c, 3, 37, 80
4, 247257, Note_on_c, 3, 35, 0
4, 248051, Note_on_c, 3, 37, 0
4, 248384, Note_on_c, 3, 37, 80
4, 248524, Note_on_c, 3, 37, 0
4, 248780, Note_on_c, 3, 38, 80
4, 249523, Note_on_c, 3, 40, 80
4, 249528, Note_on_c, 3, 38, 0
4, 250278, Note_on_c, 3, 42, 80
4, 250316, Note_on_c, 3, 40, 0
4, 251039, Note_on_c, 3, 42, 0
4, 251443, Note_on_c, 3, 40, 80
4, 251654, Note_on_c, 3, 40, 0
4, 251801, Note_on_c, 3, 38, 80
4, 252224, Note_on_c, 3, 35, 80
4, 252236, Note_on_c, 3, 38, 0
4, 252588, Note_on_c, 3, 35, 0
4, 252595, Note_on_c, 3, 40, 80
4, 252851, Note_on_c, 3, 40, 0
4, 252966, Note_on_c, 3, 28, 80
4, 253158, Note_on_c, 3, 28, 0
4, 253350, Note_on_c, 3, 33, 80
4, 253458, Note_on_c, 3, 33, 0
4, 253721, Note_on_c, 3, 45, 80
4, 253842, Note_on_c, 3, 45, 0
4, 254144, Note_on_c, 3, 44, 80
4, 254534, Note_on_c, 3, 44, 0
4, 254717, Note_on_c, 3, 42, 80
4, 254813, Note_on_c, 3, 42, 0
4, 254924, Note_on_c, 3, 40, 80
4, 256472, Note_on_c, 3, 40, 0
4, 256819, Note_on_c, 3, 28, 80
4, 256979, Note_on_c, 3, 28, 0
4, 257190, Note_on_c, 3, 40, 80
4, 257337, Note_on_c, 3, 40, 0
4, 257561, Note_on_c, 3, 44, 80
4, 257663, Note_on_c, 3, 44, 0
4, 257945, Note_on_c, 3, 45, 80
4, 258309, Note_on_c, 3, 45, 0
4, 258329, Note_on_c, 3, 42, 80
4, 258713, Note_on_c, 3, 42, 0
4, 258726, Note_on_c, 3, 47, 80
4, 258828, Note_on_c, 3, 47, 0
4, 259110, Note_on_c, 3, 35, 80
4, 259206, Note_on_c, 3, 35, 0
4, 259493, Note_on_c, 3, 28, 80
4, 259979, Note_on_c, 3, 28, 0
4, 262604, Note_on_c, 3, 33, 80
4, 264128, Note_on_c, 3, 37, 80
4, 264159, Note_on_c, 3, 33, 0
4, 264864, Note_on_c, 3, 37, 0
4, 264883, Note_on_c, 3, 38, 80
4, 265638, Note_on_c, 3, 40, 80
4, 265651, Note_on_c, 3, 38, 0
4, 266777, Note_on_c, 3, 38, 80
4, 266809, Note_on_c, 3, 40, 0
4, 267187, Note_on_c, 3, 37, 80
4, 267244, Note_on_c, 3, 38, 0
4, 267980, Note_on_c, 3, 35, 80
4, 267987, Note_on_c, 3, 37, 0
4, 268735, Note_on_c, 3, 35, 0
4, 268736, Note_on_c, 3, 37, 80
4, 270246, Note_on_c, 3, 37, 0
4, 271808, Note_on_c, 3, 37, 80
4, 273248, Note_on_c, 3, 37, 0
4, 273344, Note_on_c, 3, 37, 80
4, 274124, Note_on_c, 3, 37, 0
4, 274124, Note_on_c, 3, 35, 80
4, 274700, Note_on_c, 3, 37, 80
4, 274725, Note_on_c, 3, 35, 0
4, 274834, Note_on_c, 3, 37, 0
4, 274841, Note_on_c, 3, 38, 80
4, 275225, Note_on_c, 3, 37, 80
4, 275250, Note_on_c, 3, 38, 0
4, 275570, Note_on_c, 3, 37, 0
4, 275584, Note_on_c, 3, 35, 80
4, 276358, Note_on_c, 3, 35, 0
4, 276364, Note_on_c, 3, 33, 80
4, 276748, Note_on_c, 3, 30, 80
4, 276780, Note_on_c, 3, 33, 0
4, 277145, Note_on_c, 3, 32, 80
4, 277183, Note_on_c, 3, 30, 0
4, 277880, Note_on_c, 3, 33, 80
4, 277951, Note_on_c, 3, 32, 0
4, 297931, Note_on_c, 3, 33, 0
4, 297931, End_track
5, 0, Start_track
5, 0, Title_t, "Ped 8"
5, 0, MIDI_port, 0
5, 0, Control_c, 0, 7, 92
5, 0, Control_c, 0, 93, 0
5, 0, Control_c, 0, 91, 93
5, 0, Control_c, 0, 10, 68
5, 0, Program_c, 0, 34
5, 2995, Note_on_c, 0, 45, 80
5, 3776, Note_on_c, 0, 47, 80
5, 3781, Note_on_c, 0, 45, 0
5, 4511, Note_on_c, 0, 47, 0
5, 4582, Note_on_c, 0, 49, 80
5, 5420, Note_on_c, 0, 49, 0
5, 5708, Note_on_c, 0, 49, 80
5, 5829, Note_on_c, 0, 49, 0
5, 6092, Note_on_c, 0, 50, 80
5, 6872, Note_on_c, 0, 50, 0
5, 6873, Note_on_c, 0, 52, 80
5, 7564, Note_on_c, 0, 52, 0
5, 7628, Note_on_c, 0, 54, 80
5, 8460, Note_on_c, 0, 54, 0
5, 8755, Note_on_c, 0, 52, 80
5, 8908, Note_on_c, 0, 52, 0
5, 9139, Note_on_c, 0, 50, 80
5, 9561, Note_on_c, 0, 47, 80
5, 9574, Note_on_c, 0, 50, 0
5, 9919, Note_on_c, 0, 47, 0
5, 9945, Note_on_c, 0, 52, 80
5, 10137, Note_on_c, 0, 52, 0
5, 10329, Note_on_c, 0, 40, 80
5, 10508, Note_on_c, 0, 40, 0
5, 10726, Note_on_c, 0, 45, 80
5, 10879, Note_on_c, 0, 45, 0
5, 11123, Note_on_c, 0, 57, 80
5, 11276, Note_on_c, 0, 57, 0
5, 11532, Note_on_c, 0, 56, 80
5, 12037, Note_on_c, 0, 56, 0
5, 12121, Note_on_c, 0, 54, 80
5, 12204, Note_on_c, 0, 54, 0
5, 12300, Note_on_c, 0, 52, 80
5, 13010, Note_on_c, 0, 52, 0
5, 13068, Note_on_c, 0, 54, 80
5, 13733, Note_on_c, 0, 54, 0
5, 13824, Note_on_c, 0, 56, 80
5, 14630, Note_on_c, 0, 56, 0
5, 14924, Note_on_c, 0, 56, 80
5, 15052, Note_on_c, 0, 56, 0
5, 15321, Note_on_c, 0, 57, 80
5, 15993, Note_on_c, 0, 57, 0
5, 16089, Note_on_c, 0, 59, 80
5, 16633, Note_on_c, 0, 59, 0
5, 16832, Note_on_c, 0, 61, 80
5, 17702, Note_on_c, 0, 61, 0
5, 18009, Note_on_c, 0, 59, 80
5, 18130, Note_on_c, 0, 59, 0
5, 18355, Note_on_c, 0, 57, 80
5, 18752, Note_on_c, 0, 54, 80
5, 18758, Note_on_c, 0, 57, 0
5, 19052, Note_on_c, 0, 54, 0
5, 19097, Note_on_c, 0, 59, 80
5, 19218, Note_on_c, 0, 59, 0
5, 19488, Note_on_c, 0, 47, 80
5, 19596, Note_on_c, 0, 47, 0
5, 19955, Note_on_c, 0, 40, 80
5, 20217, Note_on_c, 0, 40, 0
5, 20326, Note_on_c, 0, 52, 80
5, 20575, Note_on_c, 0, 52, 0
5, 20697, Note_on_c, 0, 51, 80
5, 21138, Note_on_c, 0, 51, 0
5, 21273, Note_on_c, 0, 49, 80
5, 21343, Note_on_c, 0, 49, 0
5, 21452, Note_on_c, 0, 47, 80
5, 22181, Note_on_c, 0, 47, 0
5, 22233, Note_on_c, 0, 49, 80
5, 22905, Note_on_c, 0, 49, 0
5, 23014, Note_on_c, 0, 51, 80
5, 23743, Note_on_c, 0, 51, 0
5, 24140, Note_on_c, 0, 38, 80
5, 24344, Note_on_c, 0, 38, 0
5, 24524, Note_on_c, 0, 45, 80
5, 24632, Note_on_c, 0, 45, 0
5, 24896, Note_on_c, 0, 57, 80
5, 25043, Note_on_c, 0, 57, 0
5, 25292, Note_on_c, 0, 51, 80
5, 25464, Note_on_c, 0, 51, 0
5, 25676, Note_on_c, 0, 47, 80
5, 25823, Note_on_c, 0, 47, 0
5, 26073, Note_on_c, 0, 52, 80
5, 26329, Note_on_c, 0, 52, 0
5, 26457, Note_on_c, 0, 49, 80
5, 26642, Note_on_c, 0, 49, 0
5, 26867, Note_on_c, 0, 54, 80
5, 27231, Note_on_c, 0, 54, 0
5, 27238, Note_on_c, 0, 52, 80
5, 27410, Note_on_c, 0, 52, 0
5, 27635, Note_on_c, 0, 50, 80
5, 27891, Note_on_c, 0, 50, 0
5, 28019, Note_on_c, 0, 47, 80
5, 28185, Note_on_c, 0, 47, 0
5, 28390, Note_on_c, 0, 52, 80
5, 28562, Note_on_c, 0, 52, 0
5, 28774, Note_on_c, 0, 40, 80
5, 28946, Note_on_c, 0, 40, 0
5, 29171, Note_on_c, 0, 45, 80
5, 30022, Note_on_c, 0, 45, 0
5, 30310, Note_on_c, 0, 45, 80
5, 30450, Note_on_c, 0, 45, 0
5, 30681, Note_on_c, 0, 49, 80
5, 30949, Note_on_c, 0, 49, 0
5, 31078, Note_on_c, 0, 45, 80
5, 31231, Note_on_c, 0, 45, 0
5, 31462, Note_on_c, 0, 50, 80
5, 31705, Note_on_c, 0, 50, 0
5, 31833, Note_on_c, 0, 47, 80
5, 31986, Note_on_c, 0, 47, 0
5, 32230, Note_on_c, 0, 52, 80
5, 34444, Note_on_c, 0, 52, 0
5, 34521, Note_on_c, 0, 50, 80
5, 35129, Note_on_c, 0, 50, 0
5, 35276, Note_on_c, 0, 49, 80
5, 35660, Note_on_c, 0, 47, 80
5, 35698, Note_on_c, 0, 49, 0
5, 36044, Note_on_c, 0, 49, 80
5, 36050, Note_on_c, 0, 47, 0
5, 36210, Note_on_c, 0, 49, 0
5, 36428, Note_on_c, 0, 45, 80
5, 36575, Note_on_c, 0, 45, 0
5, 36838, Note_on_c, 0, 50, 80
5, 37567, Note_on_c, 0, 50, 0
5, 37657, Note_on_c, 0, 52, 80
5, 38265, Note_on_c, 0, 52, 0
5, 38387, Note_on_c, 0, 45, 80
5, 39161, Note_on_c, 0, 45, 0
5, 39545, Note_on_c, 0, 45, 80
5, 39653, Note_on_c, 0, 45, 0
5, 39859, Note_on_c, 0, 47, 80
5, 40582, Note_on_c, 0, 47, 0
5, 40640, Note_on_c, 0, 49, 80
5, 41273, Note_on_c, 0, 49, 0
5, 41408, Note_on_c, 0, 42, 80
5, 42182, Note_on_c, 0, 42, 0
5, 42560, Note_on_c, 0, 50, 80
5, 42720, Note_on_c, 0, 50, 0
5, 42931, Note_on_c, 0, 52, 80
5, 43622, Note_on_c, 0, 52, 0
5, 43724, Note_on_c, 0, 54, 80
5, 44402, Note_on_c, 0, 54, 0
5, 44480, Note_on_c, 0, 47, 80
5, 45267, Note_on_c, 0, 47, 0
5, 45632, Note_on_c, 0, 56, 80
5, 45792, Note_on_c, 0, 56, 0
5, 46016, Note_on_c, 0, 57, 80
5, 46809, Note_on_c, 0, 59, 80
5, 46816, Note_on_c, 0, 57, 0
5, 47590, Note_on_c, 0, 61, 80
5, 47641, Note_on_c, 0, 59, 0
5, 48402, Note_on_c, 0, 61, 0
5, 48681, Note_on_c, 0, 59, 80
5, 48830, Note_on_c, 0, 59, 0
5, 49068, Note_on_c, 0, 57, 80
5, 49429, Note_on_c, 0, 57, 0
5, 49436, Note_on_c, 0, 54, 80
5, 49833, Note_on_c, 0, 56, 80
5, 49895, Note_on_c, 0, 54, 0
5, 49999, Note_on_c, 0, 56, 0
5, 50206, Note_on_c, 0, 52, 80
5, 50397, Note_on_c, 0, 52, 0
5, 50598, Note_on_c, 0, 54, 80
5, 50933, Note_on_c, 0, 54, 0
5, 50982, Note_on_c, 0, 47, 80
5, 51392, Note_on_c, 0, 52, 80
5, 51423, Note_on_c, 0, 47, 0
5, 51980, Note_on_c, 0, 54, 80
5, 52012, Note_on_c, 0, 52, 0
5, 52146, Note_on_c, 0, 54, 0
5, 52172, Note_on_c, 0, 56, 80
5, 52364, Note_on_c, 0, 56, 0
5, 52556, Note_on_c, 0, 52, 80
5, 52760, Note_on_c, 0, 52, 0
5, 52928, Note_on_c, 0, 57, 80
5, 53177, Note_on_c, 0, 57, 0
5, 53324, Note_on_c, 0, 54, 80
5, 53458, Note_on_c, 0, 54, 0
5, 53721, Note_on_c, 0, 59, 80
5, 55916, Note_on_c, 0, 59, 0
5, 56012, Note_on_c, 0, 57, 80
5, 56626, Note_on_c, 0, 57, 0
5, 56755, Note_on_c, 0, 56, 80
5, 57152, Note_on_c, 0, 54, 80
5, 57183, Note_on_c, 0, 56, 0
5, 57536, Note_on_c, 0, 56, 80
5, 57606, Note_on_c, 0, 54, 0
5, 57728, Note_on_c, 0, 56, 0
5, 57920, Note_on_c, 0, 52, 80
5, 58086, Note_on_c, 0, 52, 0
5, 58316, Note_on_c, 0, 57, 80
5, 58943, Note_on_c, 0, 57, 0
5, 59072, Note_on_c, 0, 59, 80
5, 59776, Note_on_c, 0, 59, 0
5, 59840, Note_on_c, 0, 52, 80
5, 60761, Note_on_c, 0, 52, 0
5, 60979, Note_on_c, 0, 52, 80
5, 61196, Note_on_c, 0, 52, 0
5, 61376, Note_on_c, 0, 54, 80
5, 62124, Note_on_c, 0, 54, 0
5, 62169, Note_on_c, 0, 56, 80
5, 62912, Note_on_c, 0, 49, 80
5, 62930, Note_on_c, 0, 56, 0
5, 63776, Note_on_c, 0, 49, 0
5, 64051, Note_on_c, 0, 45, 80
5, 64281, Note_on_c, 0, 45, 0
5, 64448, Note_on_c, 0, 47, 80
5, 65216, Note_on_c, 0, 47, 0
5, 65216, Note_on_c, 0, 49, 80
5, 65900, Note_on_c, 0, 49, 0
5, 65996, Note_on_c, 0, 42, 80
5, 66821, Note_on_c, 0, 42, 0
5, 67161, Note_on_c, 0, 51, 80
5, 67340, Note_on_c, 0, 51, 0
5, 67558, Note_on_c, 0, 52, 80
5, 68300, Note_on_c, 0, 52, 0
5, 68300, Note_on_c, 0, 54, 80
5, 69061, Note_on_c, 0, 54, 0
5, 69094, Note_on_c, 0, 47, 80
5, 69900, Note_on_c, 0, 47, 0
5, 70195, Note_on_c, 0, 44, 80
5, 70335, Note_on_c, 0, 44, 0
5, 70592, Note_on_c, 0, 45, 80
5, 71372, Note_on_c, 0, 47, 80
5, 71392, Note_on_c, 0, 45, 0
5, 72133, Note_on_c, 0, 47, 0
5, 72140, Note_on_c, 0, 40, 80
5, 72876, Note_on_c, 0, 40, 0
5, 73254, Note_on_c, 0, 49, 80
5, 73478, Note_on_c, 0, 49, 0
5, 73625, Note_on_c, 0, 50, 80
5, 74437, Note_on_c, 0, 50, 0
5, 74444, Note_on_c, 0, 52, 80
5, 75225, Note_on_c, 0, 54, 80
5, 75282, Note_on_c, 0, 52, 0
5, 75999, Note_on_c, 0, 54, 0
5, 76352, Note_on_c, 0, 52, 80
5, 76505, Note_on_c, 0, 52, 0
5, 76723, Note_on_c, 0, 50, 80
5, 77107, Note_on_c, 0, 47, 80
5, 77139, Note_on_c, 0, 50, 0
5, 77484, Note_on_c, 0, 47, 0
5, 77491, Note_on_c, 0, 52, 80
5, 77663, Note_on_c, 0, 52, 0
5, 77862, Note_on_c, 0, 40, 80
5, 78086, Note_on_c, 0, 40, 0
5, 78272, Note_on_c, 0, 45, 80
5, 78643, Note_on_c, 0, 43, 80
5, 78694, Note_on_c, 0, 45, 0
5, 78943, Note_on_c, 0, 43, 0
5, 79040, Note_on_c, 0, 42, 80
5, 79180, Note_on_c, 0, 42, 0
5, 79411, Note_on_c, 0, 40, 80
5, 79596, Note_on_c, 0, 40, 0
5, 79820, Note_on_c, 0, 38, 80
5, 80543, Note_on_c, 0, 38, 0
5, 80601, Note_on_c, 0, 40, 80
5, 81356, Note_on_c, 0, 42, 80
5, 81362, Note_on_c, 0, 40, 0
5, 82149, Note_on_c, 0, 42, 0
5, 82508, Note_on_c, 0, 54, 80
5, 82680, Note_on_c, 0, 54, 0
5, 82931, Note_on_c, 0, 55, 80
5, 83667, Note_on_c, 0, 55, 0
5, 83673, Note_on_c, 0, 57, 80
5, 84403, Note_on_c, 0, 59, 80
5, 84428, Note_on_c, 0, 57, 0
5, 85177, Note_on_c, 0, 59, 0
5, 85529, Note_on_c, 0, 57, 80
5, 85689, Note_on_c, 0, 57, 0
5, 85900, Note_on_c, 0, 55, 80
5, 86284, Note_on_c, 0, 52, 80
5, 86303, Note_on_c, 0, 55, 0
5, 86668, Note_on_c, 0, 54, 80
5, 86687, Note_on_c, 0, 52, 0
5, 86911, Note_on_c, 0, 54, 0
5, 87065, Note_on_c, 0, 50, 80
5, 87276, Note_on_c, 0, 50, 0
5, 87449, Note_on_c, 0, 52, 80
5, 87820, Note_on_c, 0, 52, 0
5, 87859, Note_on_c, 0, 45, 80
5, 88083, Note_on_c, 0, 45, 0
5, 88268, Note_on_c, 0, 50, 80
5, 88696, Note_on_c, 0, 50, 0
5, 88857, Note_on_c, 0, 52, 80
5, 88991, Note_on_c, 0, 52, 0
5, 89062, Note_on_c, 0, 54, 80
5, 89414, Note_on_c, 0, 54, 0
5, 89420, Note_on_c, 0, 50, 80
5, 89804, Note_on_c, 0, 55, 80
5, 89810, Note_on_c, 0, 50, 0
5, 90021, Note_on_c, 0, 55, 0
5, 90163, Note_on_c, 0, 52, 80
5, 90329, Note_on_c, 0, 52, 0
5, 90585, Note_on_c, 0, 57, 80
5, 92825, Note_on_c, 0, 57, 0
5, 92889, Note_on_c, 0, 55, 80
5, 93599, Note_on_c, 0, 55, 0
5, 93657, Note_on_c, 0, 54, 80
5, 94016, Note_on_c, 0, 52, 80
5, 94028, Note_on_c, 0, 54, 0
5, 94387, Note_on_c, 0, 54, 80
5, 94451, Note_on_c, 0, 52, 0
5, 94553, Note_on_c, 0, 54, 0
5, 94758, Note_on_c, 0, 50, 80
5, 94905, Note_on_c, 0, 50, 0
5, 95168, Note_on_c, 0, 55, 80
5, 95833, Note_on_c, 0, 55, 0
5, 95923, Note_on_c, 0, 57, 80
5, 96678, Note_on_c, 0, 50, 80
5, 96691, Note_on_c, 0, 57, 0
5, 96850, Note_on_c, 0, 50, 0
5, 97100, Note_on_c, 0, 62, 80
5, 97324, Note_on_c, 0, 62, 0
5, 97484, Note_on_c, 0, 61, 80
5, 97848, Note_on_c, 0, 61, 0
5, 97856, Note_on_c, 0, 59, 80
5, 98208, Note_on_c, 0, 59, 0
5, 98252, Note_on_c, 0, 57, 80
5, 98278, Note_on_c, 0, 59, 80
5, 98310, Note_on_c, 0, 59, 0
5, 98373, Note_on_c, 0, 57, 0
5, 98636, Note_on_c, 0, 45, 80
5, 98860, Note_on_c, 0, 45, 0
5, 99020, Note_on_c, 0, 43, 80
5, 99378, Note_on_c, 0, 43, 0
5, 99392, Note_on_c, 0, 42, 80
5, 99622, Note_on_c, 0, 42, 0
5, 99776, Note_on_c, 0, 40, 80
5, 99936, Note_on_c, 0, 40, 0
5, 100185, Note_on_c, 0, 52, 80
5, 100543, Note_on_c, 0, 52, 0
5, 100556, Note_on_c, 0, 50, 80
5, 100748, Note_on_c, 0, 50, 0
5, 100928, Note_on_c, 0, 49, 80
5, 101062, Note_on_c, 0, 49, 0
5, 101324, Note_on_c, 0, 47, 80
5, 102092, Note_on_c, 0, 47, 0
5, 102092, Note_on_c, 0, 49, 80
5, 102757, Note_on_c, 0, 49, 0
5, 102835, Note_on_c, 0, 50, 80
5, 103673, Note_on_c, 0, 50, 0
5, 104000, Note_on_c, 0, 47, 80
5, 104185, Note_on_c, 0, 47, 0
5, 104409, Note_on_c, 0, 54, 80
5, 104819, Note_on_c, 0, 52, 80
5, 104850, Note_on_c, 0, 54, 0
5, 105215, Note_on_c, 0, 52, 0
5, 105216, Note_on_c, 0, 54, 80
5, 105363, Note_on_c, 0, 54, 0
5, 105600, Note_on_c, 0, 49, 80
5, 105760, Note_on_c, 0, 49, 0
5, 105971, Note_on_c, 0, 50, 80
5, 106342, Note_on_c, 0, 47, 80
5, 106361, Note_on_c, 0, 50, 0
5, 106681, Note_on_c, 0, 47, 0
5, 106688, Note_on_c, 0, 52, 80
5, 106886, Note_on_c, 0, 52, 0
5, 107059, Note_on_c, 0, 40, 80
5, 107199, Note_on_c, 0, 40, 0
5, 107481, Note_on_c, 0, 45, 80
5, 108236, Note_on_c, 0, 45, 0
5, 110579, Note_on_c, 0, 45, 80
5, 111295, Note_on_c, 0, 45, 0
5, 113177, Note_on_c, 0, 57, 80
5, 113285, Note_on_c, 0, 57, 0
5, 113561, Note_on_c, 0, 57, 80
5, 113945, Note_on_c, 0, 45, 80
5, 114034, Note_on_c, 0, 57, 0
5, 114181, Note_on_c, 0, 45, 0
5, 114713, Note_on_c, 0, 57, 80
5, 114809, Note_on_c, 0, 57, 0
5, 115123, Note_on_c, 0, 57, 80
5, 115494, Note_on_c, 0, 45, 80
5, 115532, Note_on_c, 0, 57, 0
5, 115711, Note_on_c, 0, 45, 0
5, 116224, Note_on_c, 0, 57, 80
5, 116339, Note_on_c, 0, 57, 0
5, 116615, Note_on_c, 0, 57, 80
5, 116992, Note_on_c, 0, 57, 0
5, 117030, Note_on_c, 0, 45, 80
5, 117266, Note_on_c, 0, 45, 0
5, 117785, Note_on_c, 0, 57, 80
5, 117913, Note_on_c, 0, 57, 0
5, 118182, Note_on_c, 0, 57, 80
5, 118502, Note_on_c, 0, 57, 0
5, 118566, Note_on_c, 0, 45, 80
5, 118783, Note_on_c, 0, 45, 0
5, 119334, Note_on_c, 0, 57, 80
5, 119474, Note_on_c, 0, 57, 0
5, 119782, Note_on_c, 0, 57, 80
5, 120326, Note_on_c, 0, 57, 0
5, 121676, Note_on_c, 0, 45, 80
5, 121829, Note_on_c, 0, 45, 0
5, 122073, Note_on_c, 0, 49, 80
5, 122425, Note_on_c, 0, 49, 0
5, 122444, Note_on_c, 0, 45, 80
5, 122655, Note_on_c, 0, 45, 0
5, 123212, Note_on_c, 0, 50, 80
5, 123372, Note_on_c, 0, 50, 0
5, 123596, Note_on_c, 0, 54, 80
5, 123968, Note_on_c, 0, 50, 80
5, 123980, Note_on_c, 0, 54, 0
5, 124115, Note_on_c, 0, 50, 0
5, 124710, Note_on_c, 0, 57, 80
5, 124876, Note_on_c, 0, 57, 0
5, 125081, Note_on_c, 0, 61, 80
5, 125433, Note_on_c, 0, 61, 0
5, 125452, Note_on_c, 0, 57, 80
5, 125592, Note_on_c, 0, 57, 0
5, 125849, Note_on_c, 0, 59, 80
5, 126246, Note_on_c, 0, 57, 80
5, 126284, Note_on_c, 0, 59, 0
5, 126431, Note_on_c, 0, 57, 0
5, 126630, Note_on_c, 0, 56, 80
5, 126802, Note_on_c, 0, 56, 0
5, 127001, Note_on_c, 0, 52, 80
5, 127173, Note_on_c, 0, 52, 0
5, 127398, Note_on_c, 0, 57, 80
5, 127795, Note_on_c, 0, 56, 80
5, 127839, Note_on_c, 0, 57, 0
5, 127987, Note_on_c, 0, 56, 0
5, 128179, Note_on_c, 0, 54, 80
5, 128524, Note_on_c, 0, 54, 0
5, 128550, Note_on_c, 0, 52, 80
5, 128729, Note_on_c, 0, 52, 0
5, 128934, Note_on_c, 0, 51, 80
5, 129164, Note_on_c, 0, 51, 0
5, 129305, Note_on_c, 0, 56, 80
5, 129477, Note_on_c, 0, 56, 0
5, 129689, Note_on_c, 0, 53, 80
5, 130015, Note_on_c, 0, 53, 0
5, 130086, Note_on_c, 0, 49, 80
5, 130233, Note_on_c, 0, 49, 0
5, 130470, Note_on_c, 0, 54, 80
5, 130841, Note_on_c, 0, 54, 0
5, 130854, Note_on_c, 0, 56, 80
5, 131039, Note_on_c, 0, 56, 0
5, 131225, Note_on_c, 0, 57, 80
5, 131461, Note_on_c, 0, 57, 0
5, 131622, Note_on_c, 0, 54, 80
5, 131846, Note_on_c, 0, 54, 0
5, 132006, Note_on_c, 0, 59, 80
5, 132377, Note_on_c, 0, 56, 80
5, 132396, Note_on_c, 0, 59, 0
5, 132761, Note_on_c, 0, 56, 0
5, 132761, Note_on_c, 0, 61, 80
5, 132959, Note_on_c, 0, 61, 0
5, 133132, Note_on_c, 0, 49, 80
5, 133298, Note_on_c, 0, 49, 0
5, 133555, Note_on_c, 0, 54, 80
5, 133958, Note_on_c, 0, 54, 0
5, 137036, Note_on_c, 0, 54, 80
5, 137202, Note_on_c, 0, 54, 0
5, 137408, Note_on_c, 0, 57, 80
5, 137696, Note_on_c, 0, 57, 0
5, 137792, Note_on_c, 0, 54, 80
5, 138124, Note_on_c, 0, 54, 0
5, 138150, Note_on_c, 0, 59, 80
5, 138290, Note_on_c, 0, 59, 0
5, 138534, Note_on_c, 0, 47, 80
5, 138866, Note_on_c, 0, 47, 0
5, 138918, Note_on_c, 0, 50, 80
5, 139289, Note_on_c, 0, 50, 0
5, 139289, Note_on_c, 0, 47, 80
5, 139615, Note_on_c, 0, 47, 0
5, 139673, Note_on_c, 0, 49, 80
5, 139858, Note_on_c, 0, 49, 0
5, 140057, Note_on_c, 0, 45, 80
5, 140313, Note_on_c, 0, 45, 0
5, 140428, Note_on_c, 0, 50, 80
5, 140812, Note_on_c, 0, 49, 80
5, 140837, Note_on_c, 0, 50, 0
5, 141196, Note_on_c, 0, 47, 80
5, 141221, Note_on_c, 0, 49, 0
5, 141619, Note_on_c, 0, 44, 80
5, 141688, Note_on_c, 0, 47, 0
5, 141855, Note_on_c, 0, 44, 0
5, 141990, Note_on_c, 0, 49, 80
5, 142150, Note_on_c, 0, 49, 0
5, 142387, Note_on_c, 0, 49, 80
5, 142534, Note_on_c, 0, 49, 0
5, 142784, Note_on_c, 0, 42, 80
5, 143104, Note_on_c, 0, 42, 0
5, 143923, Note_on_c, 0, 54, 80
5, 144057, Note_on_c, 0, 54, 0
5, 144345, Note_on_c, 0, 56, 80
5, 145132, Note_on_c, 0, 56, 0
5, 145446, Note_on_c, 0, 56, 80
5, 145535, Note_on_c, 0, 56, 0
5, 145856, Note_on_c, 0, 57, 80
5, 146592, Note_on_c, 0, 57, 0
5, 146956, Note_on_c, 0, 59, 80
5, 147763, Note_on_c, 0, 57, 80
5, 147775, Note_on_c, 0, 59, 0
5, 147961, Note_on_c, 0, 57, 0
5, 148121, Note_on_c, 0, 56, 80
5, 148485, Note_on_c, 0, 56, 0
5, 148518, Note_on_c, 0, 54, 80
5, 148774, Note_on_c, 0, 54, 0
5, 148915, Note_on_c, 0, 56, 80
5, 149286, Note_on_c, 0, 54, 80
5, 149299, Note_on_c, 0, 56, 0
5, 149631, Note_on_c, 0, 54, 0
5, 149632, Note_on_c, 0, 53, 80
5, 149894, Note_on_c, 0, 53, 0
5, 150028, Note_on_c, 0, 49, 80
5, 150181, Note_on_c, 0, 49, 0
5, 150438, Note_on_c, 0, 54, 80
5, 151161, Note_on_c, 0, 54, 0
5, 152000, Note_on_c, 0, 42, 80
5, 152806, Note_on_c, 0, 42, 0
5, 153523, Note_on_c, 0, 47, 80
5, 154259, Note_on_c, 0, 47, 0
5, 154995, Note_on_c, 0, 47, 80
5, 155859, Note_on_c, 0, 47, 0
5, 156595, Note_on_c, 0, 52, 80
5, 157382, Note_on_c, 0, 52, 0
5, 158131, Note_on_c, 0, 40, 80
5, 158969, Note_on_c, 0, 40, 0
5, 159654, Note_on_c, 0, 45, 80
5, 160447, Note_on_c, 0, 45, 0
5, 161203, Note_on_c, 0, 45, 80
5, 162054, Note_on_c, 0, 45, 0
5, 162726, Note_on_c, 0, 50, 80
5, 163506, Note_on_c, 0, 50, 0
5, 164288, Note_on_c, 0, 47, 80
5, 165094, Note_on_c, 0, 47, 0
5, 165862, Note_on_c, 0, 42, 80
5, 166681, Note_on_c, 0, 42, 0
5, 166976, Note_on_c, 0, 42, 80
5, 167084, Note_on_c, 0, 42, 0
5, 167385, Note_on_c, 0, 43, 80
5, 168185, Note_on_c, 0, 43, 0
5, 168499, Note_on_c, 0, 43, 80
5, 168601, Note_on_c, 0, 43, 0
5, 168921, Note_on_c, 0, 45, 80
5, 169701, Note_on_c, 0, 45, 0
5, 170035, Note_on_c, 0, 45, 80
5, 170156, Note_on_c, 0, 45, 0
5, 170457, Note_on_c, 0, 47, 80
5, 170803, Note_on_c, 0, 43, 80
5, 170841, Note_on_c, 0, 47, 0
5, 170943, Note_on_c, 0, 43, 0
5, 171212, Note_on_c, 0, 45, 80
5, 171647, Note_on_c, 0, 45, 0
5, 172006, Note_on_c, 0, 38, 80
5, 172690, Note_on_c, 0, 38, 0
5, 175065, Note_on_c, 0, 38, 80
5, 175858, Note_on_c, 0, 38, 0
5, 177715, Note_on_c, 0, 50, 80
5, 177823, Note_on_c, 0, 50, 0
5, 178099, Note_on_c, 0, 50, 80
5, 178431, Note_on_c, 0, 50, 0
5, 178470, Note_on_c, 0, 38, 80
5, 178655, Note_on_c, 0, 38, 0
5, 179225, Note_on_c, 0, 50, 80
5, 179333, Note_on_c, 0, 50, 0
5, 179622, Note_on_c, 0, 50, 80
5, 179993, Note_on_c, 0, 38, 80
5, 179999, Note_on_c, 0, 50, 0
5, 180133, Note_on_c, 0, 38, 0
5, 180774, Note_on_c, 0, 50, 80
5, 180876, Note_on_c, 0, 50, 0
5, 181158, Note_on_c, 0, 50, 80
5, 181542, Note_on_c, 0, 38, 80
5, 181599, Note_on_c, 0, 50, 0
5, 181734, Note_on_c, 0, 38, 0
5, 182310, Note_on_c, 0, 50, 80
5, 182412, Note_on_c, 0, 50, 0
5, 182694, Note_on_c, 0, 50, 80
5, 183039, Note_on_c, 0, 50, 0
5, 183052, Note_on_c, 0, 38, 80
5, 183212, Note_on_c, 0, 38, 0
5, 183820, Note_on_c, 0, 50, 80
5, 183960, Note_on_c, 0, 50, 0
5, 184256, Note_on_c, 0, 50, 80
5, 185024, Note_on_c, 0, 50, 0
5, 186163, Note_on_c, 0, 38, 80
5, 186323, Note_on_c, 0, 38, 0
5, 186572, Note_on_c, 0, 42, 80
5, 186834, Note_on_c, 0, 42, 0
5, 186918, Note_on_c, 0, 38, 80
5, 187129, Note_on_c, 0, 38, 0
5, 187712, Note_on_c, 0, 43, 80
5, 187840, Note_on_c, 0, 43, 0
5, 188108, Note_on_c, 0, 47, 80
5, 188434, Note_on_c, 0, 47, 0
5, 188467, Note_on_c, 0, 43, 80
5, 188601, Note_on_c, 0, 43, 0
5, 189222, Note_on_c, 0, 50, 80
5, 189356, Note_on_c, 0, 50, 0
5, 189632, Note_on_c, 0, 54, 80
5, 190003, Note_on_c, 0, 50, 80
5, 190016, Note_on_c, 0, 54, 0
5, 190150, Note_on_c, 0, 50, 0
5, 190400, Note_on_c, 0, 52, 80
5, 190771, Note_on_c, 0, 50, 80
5, 190784, Note_on_c, 0, 52, 0
5, 190956, Note_on_c, 0, 50, 0
5, 191155, Note_on_c, 0, 49, 80
5, 191308, Note_on_c, 0, 49, 0
5, 191526, Note_on_c, 0, 45, 80
5, 191705, Note_on_c, 0, 45, 0
5, 191923, Note_on_c, 0, 50, 80
5, 192294, Note_on_c, 0, 49, 80
5, 192332, Note_on_c, 0, 50, 0
5, 192678, Note_on_c, 0, 47, 80
5, 192697, Note_on_c, 0, 49, 0
5, 193062, Note_on_c, 0, 45, 80
5, 193068, Note_on_c, 0, 47, 0
5, 193446, Note_on_c, 0, 44, 80
5, 193497, Note_on_c, 0, 45, 0
5, 193843, Note_on_c, 0, 49, 80
5, 193849, Note_on_c, 0, 44, 0
5, 194227, Note_on_c, 0, 46, 80
5, 194233, Note_on_c, 0, 49, 0
5, 194585, Note_on_c, 0, 42, 80
5, 194598, Note_on_c, 0, 46, 0
5, 194828, Note_on_c, 0, 42, 0
5, 194969, Note_on_c, 0, 47, 80
5, 195379, Note_on_c, 0, 49, 80
5, 195385, Note_on_c, 0, 47, 0
5, 195776, Note_on_c, 0, 50, 80
5, 195833, Note_on_c, 0, 49, 0
5, 195936, Note_on_c, 0, 50, 0
5, 196121, Note_on_c, 0, 47, 80
5, 196306, Note_on_c, 0, 47, 0
5, 196505, Note_on_c, 0, 52, 80
5, 196889, Note_on_c, 0, 49, 80
5, 196901, Note_on_c, 0, 52, 0
5, 197228, Note_on_c, 0, 49, 0
5, 197248, Note_on_c, 0, 54, 80
5, 197459, Note_on_c, 0, 54, 0
5, 197657, Note_on_c, 0, 42, 80
5, 197785, Note_on_c, 0, 42, 0
5, 198080, Note_on_c, 0, 47, 80
5, 198579, Note_on_c, 0, 47, 0
5, 201574, Note_on_c, 0, 47, 80
5, 201721, Note_on_c, 0, 47, 0
5, 201958, Note_on_c, 0, 50, 80
5, 202316, Note_on_c, 0, 47, 80
5, 202329, Note_on_c, 0, 50, 0
5, 202661, Note_on_c, 0, 47, 0
5, 202675, Note_on_c, 0, 52, 80
5, 202841, Note_on_c, 0, 52, 0
5, 203084, Note_on_c, 0, 52, 80
5, 203276, Note_on_c, 0, 52, 0
5, 203456, Note_on_c, 0, 55, 80
5, 203814, Note_on_c, 0, 52, 80
5, 203820, Note_on_c, 0, 55, 0
5, 204198, Note_on_c, 0, 54, 80
5, 204204, Note_on_c, 0, 52, 0
5, 204383, Note_on_c, 0, 54, 0
5, 204569, Note_on_c, 0, 50, 80
5, 204735, Note_on_c, 0, 50, 0
5, 204979, Note_on_c, 0, 55, 80
5, 205350, Note_on_c, 0, 54, 80
5, 205388, Note_on_c, 0, 55, 0
5, 205663, Note_on_c, 0, 54, 0
5, 205734, Note_on_c, 0, 52, 80
5, 206143, Note_on_c, 0, 52, 0
5, 206144, Note_on_c, 0, 49, 80
5, 206508, Note_on_c, 0, 49, 0
5, 206515, Note_on_c, 0, 54, 80
5, 206694, Note_on_c, 0, 54, 0
5, 206886, Note_on_c, 0, 42, 80
5, 207033, Note_on_c, 0, 42, 0
5, 207308, Note_on_c, 0, 47, 80
5, 208076, Note_on_c, 0, 47, 0
5, 208435, Note_on_c, 0, 47, 80
5, 208556, Note_on_c, 0, 47, 0
5, 208857, Note_on_c, 0, 49, 80
5, 209631, Note_on_c, 0, 49, 0
5, 209971, Note_on_c, 0, 49, 80
5, 210067, Note_on_c, 0, 49, 0
5, 210368, Note_on_c, 0, 50, 80
5, 211110, Note_on_c, 0, 50, 0
5, 211481, Note_on_c, 0, 52, 80
5, 212288, Note_on_c, 0, 50, 80
5, 212293, Note_on_c, 0, 52, 0
5, 212505, Note_on_c, 0, 50, 0
5, 212659, Note_on_c, 0, 49, 80
5, 213017, Note_on_c, 0, 49, 0
5, 213030, Note_on_c, 0, 47, 80
5, 213222, Note_on_c, 0, 47, 0
5, 213401, Note_on_c, 0, 49, 80
5, 213798, Note_on_c, 0, 47, 80
5, 213810, Note_on_c, 0, 49, 0
5, 214092, Note_on_c, 0, 47, 0
5, 214182, Note_on_c, 0, 46, 80
5, 214380, Note_on_c, 0, 46, 0
5, 214566, Note_on_c, 0, 42, 80
5, 214751, Note_on_c, 0, 42, 0
5, 215001, Note_on_c, 0, 47, 80
5, 215436, Note_on_c, 0, 47, 0
5, 216470, Note_on_c, 0, 47, 80
5, 216962, Note_on_c, 0, 47, 0
5, 218048, Note_on_c, 0, 52, 80
5, 218592, Note_on_c, 0, 52, 0
5, 219596, Note_on_c, 0, 40, 80
5, 220159, Note_on_c, 0, 40, 0
5, 221145, Note_on_c, 0, 45, 80
5, 221849, Note_on_c, 0, 45, 0
5, 222630, Note_on_c, 0, 45, 80
5, 223449, Note_on_c, 0, 45, 0
5, 224179, Note_on_c, 0, 50, 80
5, 224844, Note_on_c, 0, 50, 0
5, 225356, Note_on_c, 0, 51, 80
5, 225535, Note_on_c, 0, 51, 0
5, 225740, Note_on_c, 0, 52, 80
5, 226488, Note_on_c, 0, 52, 0
5, 226841, Note_on_c, 0, 53, 80
5, 227052, Note_on_c, 0, 53, 0
5, 227238, Note_on_c, 0, 54, 80
5, 228050, Note_on_c, 0, 54, 0
5, 228364, Note_on_c, 0, 54, 80
5, 228600, Note_on_c, 0, 54, 0
5, 228812, Note_on_c, 0, 56, 80
5, 229573, Note_on_c, 0, 56, 0
5, 229913, Note_on_c, 0, 56, 80
5, 230041, Note_on_c, 0, 56, 0
5, 230310, Note_on_c, 0, 57, 80
5, 231092, Note_on_c, 0, 54, 80
5, 231116, Note_on_c, 0, 57, 0
5, 231858, Note_on_c, 0, 50, 80
5, 231904, Note_on_c, 0, 54, 0
5, 232652, Note_on_c, 0, 52, 80
5, 232670, Note_on_c, 0, 50, 0
5, 233407, Note_on_c, 0, 52, 0
5, 233446, Note_on_c, 0, 54, 80
5, 234137, Note_on_c, 0, 50, 80
5, 234169, Note_on_c, 0, 54, 0
5, 234944, Note_on_c, 0, 47, 80
5, 234962, Note_on_c, 0, 50, 0
5, 235724, Note_on_c, 0, 49, 80
5, 235782, Note_on_c, 0, 47, 0
5, 236472, Note_on_c, 0, 49, 0
5, 236518, Note_on_c, 0, 50, 80
5, 237248, Note_on_c, 0, 47, 80
5, 237279, Note_on_c, 0, 50, 0
5, 238016, Note_on_c, 0, 44, 80
5, 238041, Note_on_c, 0, 47, 0
5, 238771, Note_on_c, 0, 45, 80
5, 238796, Note_on_c, 0, 44, 0
5, 239487, Note_on_c, 0, 45, 0
5, 239552, Note_on_c, 0, 47, 80
5, 240294, Note_on_c, 0, 44, 80
5, 240326, Note_on_c, 0, 47, 0
5, 241024, Note_on_c, 0, 45, 80
5, 241074, Note_on_c, 0, 44, 0
5, 241190, Note_on_c, 0, 45, 0
5, 241433, Note_on_c, 0, 42, 80
5, 241573, Note_on_c, 0, 42, 0
5, 241817, Note_on_c, 0, 49, 80
5, 242201, Note_on_c, 0, 49, 0
5, 242201, Note_on_c, 0, 45, 80
5, 242565, Note_on_c, 0, 45, 0
5, 242572, Note_on_c, 0, 50, 80
5, 242815, Note_on_c, 0, 50, 0
5, 242995, Note_on_c, 0, 47, 80
5, 243187, Note_on_c, 0, 47, 0
5, 243392, Note_on_c, 0, 49, 80
5, 243763, Note_on_c, 0, 50, 80
5, 243776, Note_on_c, 0, 49, 0
5, 243942, Note_on_c, 0, 50, 0
5, 244172, Note_on_c, 0, 52, 80
5, 244582, Note_on_c, 0, 50, 80
5, 244613, Note_on_c, 0, 52, 0
5, 244953, Note_on_c, 0, 49, 80
5, 245010, Note_on_c, 0, 50, 0
5, 245093, Note_on_c, 0, 49, 0
5, 245337, Note_on_c, 0, 47, 80
5, 245465, Note_on_c, 0, 47, 0
5, 245747, Note_on_c, 0, 45, 80
5, 246463, Note_on_c, 0, 45, 0
5, 246515, Note_on_c, 0, 47, 80
5, 247232, Note_on_c, 0, 49, 80
5, 247257, Note_on_c, 0, 47, 0
5, 248051, Note_on_c, 0, 49, 0
5, 248384, Note_on_c, 0, 49, 80
5, 248524, Note_on_c, 0, 49, 0
5, 248780, Note_on_c, 0, 50, 80
5, 249523, Note_on_c, 0, 52, 80
5, 249528, Note_on_c, 0, 50, 0
5, 250278, Note_on_c, 0, 54, 80
5, 250316, Note_on_c, 0, 52, 0
5, 251039, Note_on_c, 0, 54, 0
5, 251443, Note_on_c, 0, 52, 80
5, 251654, Note_on_c, 0, 52, 0
5, 251801, Note_on_c, 0, 50, 80
5, 252224, Note_on_c, 0, 47, 80
5, 252236, Note_on_c, 0, 50, 0
5, 252588, Note_on_c, 0, 47, 0
5, 252595, Note_on_c, 0, 52, 80
5, 252851, Note_on_c, 0, 52, 0
5, 252966, Note_on_c, 0, 40, 80
5, 253158, Note_on_c, 0, 40, 0
5, 253350, Note_on_c, 0, 45, 80
5, 253458, Note_on_c, 0, 45, 0
5, 253721, Note_on_c, 0, 57, 80
5, 253842, Note_on_c, 0, 57, 0
5, 254144, Note_on_c, 0, 56, 80
5, 254534, Note_on_c, 0, 56, 0
5, 254717, Note_on_c, 0, 54, 80
5, 254813, Note_on_c, 0, 54, 0
5, 254924, Note_on_c, 0, 52, 80
5, 256472, Note_on_c, 0, 52, 0
5, 256819, Note_on_c, 0, 40, 80
5, 256979, Note_on_c, 0, 40, 0
5, 257190, Note_on_c, 0, 52, 80
5, 257337, Note_on_c, 0, 52, 0
5, 257561, Note_on_c, 0, 56, 80
5, 257663, Note_on_c, 0, 56, 0
5, 257945, Note_on_c, 0, 57, 80
5, 258309, Note_on_c, 0, 57, 0
5, 258329, Note_on_c, 0, 54, 80
5, 258713, Note_on_c, 0, 54, 0
5, 258726, Note_on_c, 0, 59, 80
5, 258828, Note_on_c, 0, 59, 0
5, 259110, Note_on_c, 0, 47, 80
5, 259206, Note_on_c, 0, 47, 0
5, 259493, Note_on_c, 0, 40, 80
5, 259979, Note_on_c, 0, 40, 0
5, 261338, Control_c, 0, 7, 101
5, 261557, Control_c, 0, 7, 103
5, 261588, Control_c, 0, 7, 108
5, 261617, Control_c, 0, 7, 116
5, 261645, Control_c, 0, 7, 123
5, 261672, Control_c, 0, 7, 127
5, 262604, Note_on_c, 0, 45, 80
5, 264128, Note_on_c, 0, 49, 80
5, 264159, Note_on_c, 0, 45, 0
5, 264864, Note_on_c, 0, 49, 0
5, 264883, Note_on_c, 0, 50, 80
5, 265638, Note_on_c, 0, 52, 80
5, 265651, Note_on_c, 0, 50, 0
5, 266777, Note_on_c, 0, 50, 80
5, 266809, Note_on_c, 0, 52, 0
5, 267187, Note_on_c, 0, 49, 80
5, 267244, Note_on_c, 0, 50, 0
5, 267980, Note_on_c, 0, 47, 80
5, 267987, Note_on_c, 0, 49, 0
5, 268735, Note_on_c, 0, 47, 0
5, 268736, Note_on_c, 0, 49, 80
5, 270246, Note_on_c, 0, 49, 0
5, 271808, Note_on_c, 0, 49, 80
5, 273248, Note_on_c, 0, 49, 0
5, 273344, Note_on_c, 0, 49, 80
5, 274124, Note_on_c, 0, 49, 0
5, 274124, Note_on_c, 0, 47, 80
5, 274700, Note_on_c, 0, 49, 80
5, 274725, Note_on_c, 0, 47, 0
5, 274834, Note_on_c, 0, 49, 0
5, 274841, Note_on_c, 0, 50, 80
5, 275225, Note_on_c, 0, 49, 80
5, 275250, Note_on_c, 0, 50, 0
5, 275570, Note_on_c, 0, 49, 0
5, 275584, Note_on_c, 0, 47, 80
5, 276358, Note_on_c, 0, 47, 0
5, 276364, Note_on_c, 0, 45, 80
5, 276748, Note_on_c, 0, 42, 80
5, 276780, Note_on_c, 0, 45, 0
5, 277145, Note_on_c, 0, 44, 80
5, 277183, Note_on_c, 0, 42, 0
5, 277880, Note_on_c, 0, 45, 80
5, 277951, Note_on_c, 0, 44, 0
5, 283444, Control_c, 0, 7, 120
5, 284415, Control_c, 0, 7, 118
5, 284444, Control_c, 0, 7, 116
5, 284474, Control_c, 0, 7, 112
5, 285825, Control_c, 0, 7, 110
5, 285854, Control_c, 0, 7, 108
5, 286225, Control_c, 0, 7, 106
5, 286254, Control_c, 0, 7, 105
5, 286516, Control_c, 0, 7, 103
5, 286796, Control_c, 0, 7, 101
5, 287130, Control_c, 0, 7, 99
5, 287161, Control_c, 0, 7, 97
5, 287688, Control_c, 0, 7, 95
5, 287717, Control_c, 0, 7, 93
5, 288074, Control_c, 0, 7, 92
5, 288492, Control_c, 0, 7, 90
5, 288757, Control_c, 0, 7, 88
5, 288785, Control_c, 0, 7, 86
5, 288970, Control_c, 0, 7, 84
5, 289067, Control_c, 0, 7, 82
5, 289305, Control_c, 0, 7, 80
5, 289338, Control_c, 0, 7, 78
5, 289744, Control_c, 0, 7, 77
5, 289987, Control_c, 0, 7, 75
5, 297931, Note_on_c, 0, 45, 0
5, 297931, End_track
6, 0, Start_track
6, 0, MIDI_port, 0
6, 0, End_track
7, 0, Start_track
7, 0, Title_t, "Allein Gott in der Hoeh sei Ehr"
7, 0, MIDI_port, 0
7, 0, End_track
8, 0, Start_track
8, 0, Title_t, "(Trio)"
8, 0, MIDI_port, 0
8, 0, End_track
9, 0, Start_track
9, 0, Title_t, "by J S Bach (BWV 663)"
9, 0, MIDI_port, 0
9, 0, End_track
10, 0, Start_track
10, 0, MIDI_port, 0
10, 0, End_track
11, 0, Start_track
11, 0, Title_t, "Sequenced using WinJammer Professional"
11, 0, MIDI_port, 0
11, 0, End_track
12, 0, Start_track
12, 0, Title_t, "on Windows NT by Martin Robinson."
12, 0, MIDI_port, 0
12, 0, End_track
13, 0, Start_track
13, 0, Title_t, "(c) Martin Robinson 1997"
13, 0, MIDI_port, 0
13, 0, End_track
0, 0, End_of_file
