0, 0, Header, 1, 13, 120
1, 0, Start_track
1, 0, Sequencer_specific, 10, 0, 0, 91, 35, 1, 0, 5, 3, 24, 0
1, 0, Instrument_name_t, "Conductor Track"
1, 0, SMPTE_offset, 96, 0, 3, 0, 0
1, 0, MIDI_port, 0
1, 0, Tempo, 461538
1, 0, Time_signature, 3, 1, 48, 8
1, 67920, Tempo, 500000
1, 68045, Tempo, 545454
1, 68167, Tempo, 600000
1, 68280, Tempo, 666666
1, 68400, Tempo, 750000
1, 69000, Tempo, 1463414
1, 69120, Tempo, 606060
1, 69840, Tempo, 461538
1, 89520, Tempo, 500000
1, 89760, Tempo, 545454
1, 90000, Tempo, 600000
1, 90240, Tempo, 674157
1, 90480, Tempo, 821917
1, 90720, Tempo, 1000000
1, 90720, End_track
2, 0, Start_track
2, 0, Title_t, "Positiv"
2, 0, MIDI_port, 0
2, 0, Control_c, 0, 7, 82
2, 0, Control_c, 0, 93, 0
2, 0, Control_c, 0, 91, 127
2, 0, Control_c, 0, 10, 17
2, 0, Program_c, 0, 19
2, 116, Note_on_c, 0, 67, 80
2, 171, Note_on_c, 0, 69, 80
2, 178, Note_on_c, 0, 67, 0
2, 229, Note_on_c, 0, 69, 0
2, 229, Note_on_c, 0, 71, 80
2, 290, Note_on_c, 0, 67, 80
2, 291, Note_on_c, 0, 71, 0
2, 348, Note_on_c, 0, 66, 80
2, 356, Note_on_c, 0, 67, 0
2, 400, Note_on_c, 0, 67, 80
2, 402, Note_on_c, 0, 66, 0
2, 456, Note_on_c, 0, 72, 80
2, 458, Note_on_c, 0, 67, 0
2, 515, Note_on_c, 0, 67, 80
2, 518, Note_on_c, 0, 72, 0
2, 574, Note_on_c, 0, 67, 0
2, 575, Note_on_c, 0, 66, 80
2, 627, Note_on_c, 0, 67, 80
2, 628, Note_on_c, 0, 66, 0
2, 673, Note_on_c, 0, 67, 0
2, 693, Note_on_c, 0, 74, 80
2, 754, Note_on_c, 0, 72, 80
2, 759, Note_on_c, 0, 74, 0
2, 819, Note_on_c, 0, 71, 80
2, 825, Note_on_c, 0, 72, 0
2, 879, Note_on_c, 0, 69, 80
2, 882, Note_on_c, 0, 71, 0
2, 939, Note_on_c, 0, 67, 80
2, 940, Note_on_c, 0, 69, 0
2, 1002, Note_on_c, 0, 66, 80
2, 1005, Note_on_c, 0, 67, 0
2, 1061, Note_on_c, 0, 66, 0
2, 1064, Note_on_c, 0, 64, 80
2, 1126, Note_on_c, 0, 62, 80
2, 1137, Note_on_c, 0, 64, 0
2, 1169, Note_on_c, 0, 62, 0
2, 1188, Note_on_c, 0, 64, 80
2, 1250, Note_on_c, 0, 67, 80
2, 1251, Note_on_c, 0, 64, 0
2, 1310, Note_on_c, 0, 72, 80
2, 1313, Note_on_c, 0, 67, 0
2, 1369, Note_on_c, 0, 66, 80
2, 1371, Note_on_c, 0, 72, 0
2, 1409, Note_on_c, 0, 66, 0
2, 1435, Note_on_c, 0, 67, 80
2, 1494, Note_on_c, 0, 69, 80
2, 1503, Note_on_c, 0, 67, 0
2, 1560, Note_on_c, 0, 71, 80
2, 1568, Note_on_c, 0, 69, 0
2, 1619, Note_on_c, 0, 62, 80
2, 1621, Note_on_c, 0, 71, 0
2, 1669, Note_on_c, 0, 62, 0
2, 1680, Note_on_c, 0, 64, 80
2, 1739, Note_on_c, 0, 71, 80
2, 1744, Note_on_c, 0, 64, 0
2, 1793, Note_on_c, 0, 69, 80
2, 1805, Note_on_c, 0, 71, 0
2, 1852, Note_on_c, 0, 67, 80
2, 1855, Note_on_c, 0, 69, 0
2, 1917, Note_on_c, 0, 66, 80
2, 1918, Note_on_c, 0, 67, 0
2, 1948, Note_on_c, 0, 66, 0
2, 1977, Note_on_c, 0, 76, 80
2, 2035, Note_on_c, 0, 76, 0
2, 2037, Note_on_c, 0, 74, 80
2, 2079, Note_on_c, 0, 74, 0
2, 2096, Note_on_c, 0, 72, 80
2, 2139, Note_on_c, 0, 72, 0
2, 2155, Note_on_c, 0, 71, 80
2, 2212, Note_on_c, 0, 69, 80
2, 2214, Note_on_c, 0, 71, 0
2, 2274, Note_on_c, 0, 69, 0
2, 2274, Note_on_c, 0, 71, 80
2, 2280, Note_on_c, 0, 62, 80
2, 2328, Note_on_c, 0, 62, 0
2, 2334, Note_on_c, 0, 64, 80
2, 2336, Note_on_c, 0, 73, 80
2, 2340, Note_on_c, 0, 71, 0
2, 2362, Note_on_c, 0, 64, 0
2, 2395, Note_on_c, 0, 73, 0
2, 2395, Note_on_c, 0, 66, 80
2, 2396, Note_on_c, 0, 74, 80
2, 2452, Note_on_c, 0, 66, 0
2, 2455, Note_on_c, 0, 62, 80
2, 2511, Note_on_c, 0, 62, 0
2, 2513, Note_on_c, 0, 61, 80
2, 2566, Note_on_c, 0, 61, 0
2, 2571, Note_on_c, 0, 62, 80
2, 2629, Note_on_c, 0, 62, 0
2, 2630, Note_on_c, 0, 67, 80
2, 2688, Note_on_c, 0, 62, 80
2, 2690, Note_on_c, 0, 67, 0
2, 2751, Note_on_c, 0, 61, 80
2, 2753, Note_on_c, 0, 62, 0
2, 2806, Note_on_c, 0, 62, 80
2, 2807, Note_on_c, 0, 61, 0
2, 2865, Note_on_c, 0, 62, 0
2, 2868, Note_on_c, 0, 69, 80
2, 2900, Note_on_c, 0, 74, 0
2, 2927, Note_on_c, 0, 69, 0
2, 2930, Note_on_c, 0, 67, 80
2, 2931, Note_on_c, 0, 73, 80
2, 2986, Note_on_c, 0, 73, 0
2, 2987, Note_on_c, 0, 74, 80
2, 2989, Note_on_c, 0, 66, 80
2, 2991, Note_on_c, 0, 67, 0
2, 3043, Note_on_c, 0, 66, 0
2, 3046, Note_on_c, 0, 74, 0
2, 3048, Note_on_c, 0, 64, 80
2, 3049, Note_on_c, 0, 76, 80
2, 3108, Note_on_c, 0, 62, 80
2, 3110, Note_on_c, 0, 64, 0
2, 3110, Note_on_c, 0, 78, 80
2, 3111, Note_on_c, 0, 76, 0
2, 3170, Note_on_c, 0, 61, 80
2, 3171, Note_on_c, 0, 62, 0
2, 3230, Note_on_c, 0, 59, 80
2, 3231, Note_on_c, 0, 61, 0
2, 3293, Note_on_c, 0, 57, 80
2, 3294, Note_on_c, 0, 59, 0
2, 3351, Note_on_c, 0, 57, 0
2, 3353, Note_on_c, 0, 59, 80
2, 3416, Note_on_c, 0, 62, 80
2, 3421, Note_on_c, 0, 59, 0
2, 3476, Note_on_c, 0, 67, 80
2, 3477, Note_on_c, 0, 62, 0
2, 3477, Note_on_c, 0, 76, 80
2, 3483, Note_on_c, 0, 78, 0
2, 3534, Note_on_c, 0, 61, 80
2, 3535, Note_on_c, 0, 67, 0
2, 3591, Note_on_c, 0, 61, 0
2, 3594, Note_on_c, 0, 62, 80
2, 3654, Note_on_c, 0, 64, 80
2, 3660, Note_on_c, 0, 62, 0
2, 3689, Note_on_c, 0, 64, 0
2, 3714, Note_on_c, 0, 66, 80
2, 3718, Note_on_c, 0, 74, 80
2, 3724, Note_on_c, 0, 76, 0
2, 3784, Note_on_c, 0, 66, 0
2, 3785, Note_on_c, 0, 57, 80
2, 3835, Note_on_c, 0, 57, 0
2, 3841, Note_on_c, 0, 59, 80
2, 3893, Note_on_c, 0, 59, 0
2, 3898, Note_on_c, 0, 74, 0
2, 3899, Note_on_c, 0, 66, 80
2, 3900, Note_on_c, 0, 73, 80
2, 3954, Note_on_c, 0, 66, 0
2, 3955, Note_on_c, 0, 73, 0
2, 3958, Note_on_c, 0, 64, 80
2, 3959, Note_on_c, 0, 74, 80
2, 4016, Note_on_c, 0, 64, 0
2, 4016, Note_on_c, 0, 74, 0
2, 4017, Note_on_c, 0, 62, 80
2, 4018, Note_on_c, 0, 76, 80
2, 4048, Note_on_c, 0, 76, 0
2, 4076, Note_on_c, 0, 61, 80
2, 4079, Note_on_c, 0, 62, 0
2, 4081, Note_on_c, 0, 78, 80
2, 4108, Note_on_c, 0, 78, 0
2, 4111, Note_on_c, 0, 76, 80
2, 4112, Note_on_c, 0, 61, 0
2, 4131, Note_on_c, 0, 76, 0
2, 4134, Note_on_c, 0, 78, 80
2, 4141, Note_on_c, 0, 71, 80
2, 4154, Note_on_c, 0, 78, 0
2, 4157, Note_on_c, 0, 76, 80
2, 4171, Note_on_c, 0, 76, 0
2, 4174, Note_on_c, 0, 78, 80
2, 4189, Note_on_c, 0, 78, 0
2, 4191, Note_on_c, 0, 76, 80
2, 4201, Note_on_c, 0, 76, 0
2, 4201, Note_on_c, 0, 78, 80
2, 4204, Note_on_c, 0, 71, 0
2, 4208, Note_on_c, 0, 69, 80
2, 4214, Note_on_c, 0, 78, 0
2, 4215, Note_on_c, 0, 76, 80
2, 4228, Note_on_c, 0, 78, 80
2, 4232, Note_on_c, 0, 76, 0
2, 4246, Note_on_c, 0, 76, 80
2, 4255, Note_on_c, 0, 78, 0
2, 4269, Note_on_c, 0, 67, 80
2, 4270, Note_on_c, 0, 69, 0
2, 4284, Note_on_c, 0, 76, 0
2, 4284, Note_on_c, 0, 74, 80
2, 4302, Note_on_c, 0, 67, 0
2, 4308, Note_on_c, 0, 74, 0
2, 4308, Note_on_c, 0, 76, 80
2, 4338, Note_on_c, 0, 76, 0
2, 4339, Note_on_c, 0, 74, 80
2, 4342, Note_on_c, 0, 66, 80
2, 4394, Note_on_c, 0, 74, 0
2, 4396, Note_on_c, 0, 66, 0
2, 4397, Note_on_c, 0, 76, 80
2, 4398, Note_on_c, 0, 64, 80
2, 4454, Note_on_c, 0, 78, 80
2, 4455, Note_on_c, 0, 76, 0
2, 4456, Note_on_c, 0, 62, 80
2, 4458, Note_on_c, 0, 64, 0
2, 4505, Note_on_c, 0, 78, 0
2, 4509, Note_on_c, 0, 79, 80
2, 4510, Note_on_c, 0, 62, 0
2, 4512, Note_on_c, 0, 64, 80
2, 4567, Note_on_c, 0, 81, 80
2, 4570, Note_on_c, 0, 64, 0
2, 4570, Note_on_c, 0, 66, 80
2, 4571, Note_on_c, 0, 79, 0
2, 4627, Note_on_c, 0, 81, 0
2, 4628, Note_on_c, 0, 74, 80
2, 4649, Note_on_c, 0, 66, 0
2, 4676, Note_on_c, 0, 74, 0
2, 4685, Note_on_c, 0, 73, 80
2, 4733, Note_on_c, 0, 73, 0
2, 4735, Note_on_c, 0, 74, 80
2, 4789, Note_on_c, 0, 74, 0
2, 4793, Note_on_c, 0, 83, 80
2, 4798, Note_on_c, 0, 68, 80
2, 4839, Note_on_c, 0, 83, 0
2, 4850, Note_on_c, 0, 74, 80
2, 4902, Note_on_c, 0, 68, 0
2, 4910, Note_on_c, 0, 74, 0
2, 4912, Note_on_c, 0, 76, 80
2, 4958, Note_on_c, 0, 76, 0
2, 4963, Note_on_c, 0, 71, 80
2, 5018, Note_on_c, 0, 71, 0
2, 5021, Note_on_c, 0, 72, 80
2, 5025, Note_on_c, 0, 69, 80
2, 5060, Note_on_c, 0, 72, 0
2, 5086, Note_on_c, 0, 74, 80
2, 5133, Note_on_c, 0, 69, 0
2, 5138, Note_on_c, 0, 74, 0
2, 5142, Note_on_c, 0, 76, 80
2, 5199, Note_on_c, 0, 76, 0
2, 5199, Note_on_c, 0, 78, 80
2, 5256, Note_on_c, 0, 78, 0
2, 5260, Note_on_c, 0, 79, 80
2, 5263, Note_on_c, 0, 64, 80
2, 5317, Note_on_c, 0, 79, 0
2, 5320, Note_on_c, 0, 72, 80
2, 5331, Note_on_c, 0, 64, 0
2, 5382, Note_on_c, 0, 71, 80
2, 5383, Note_on_c, 0, 72, 0
2, 5429, Note_on_c, 0, 71, 0
2, 5434, Note_on_c, 0, 72, 80
2, 5492, Note_on_c, 0, 81, 80
2, 5493, Note_on_c, 0, 72, 0
2, 5495, Note_on_c, 0, 66, 80
2, 5551, Note_on_c, 0, 81, 0
2, 5554, Note_on_c, 0, 72, 80
2, 5571, Note_on_c, 0, 66, 0
2, 5612, Note_on_c, 0, 74, 80
2, 5618, Note_on_c, 0, 72, 0
2, 5664, Note_on_c, 0, 74, 0
2, 5668, Note_on_c, 0, 69, 80
2, 5717, Note_on_c, 0, 69, 0
2, 5726, Note_on_c, 0, 71, 80
2, 5727, Note_on_c, 0, 67, 80
2, 5777, Note_on_c, 0, 71, 0
2, 5799, Note_on_c, 0, 69, 80
2, 5855, Note_on_c, 0, 69, 0
2, 5857, Note_on_c, 0, 67, 0
2, 5858, Note_on_c, 0, 71, 80
2, 5915, Note_on_c, 0, 72, 80
2, 5916, Note_on_c, 0, 71, 0
2, 5975, Note_on_c, 0, 74, 80
2, 5978, Note_on_c, 0, 72, 0
2, 6041, Note_on_c, 0, 74, 0
2, 6042, Note_on_c, 0, 67, 80
2, 6097, Note_on_c, 0, 67, 0
2, 6099, Note_on_c, 0, 66, 80
2, 6154, Note_on_c, 0, 66, 0
2, 6156, Note_on_c, 0, 67, 80
2, 6218, Note_on_c, 0, 76, 80
2, 6219, Note_on_c, 0, 67, 0
2, 6272, Note_on_c, 0, 76, 0
2, 6276, Note_on_c, 0, 67, 80
2, 6332, Note_on_c, 0, 67, 0
2, 6336, Note_on_c, 0, 69, 80
2, 6392, Note_on_c, 0, 69, 0
2, 6393, Note_on_c, 0, 64, 80
2, 6460, Note_on_c, 0, 64, 0
2, 6461, Note_on_c, 0, 66, 80
2, 6523, Note_on_c, 0, 66, 0
2, 6526, Note_on_c, 0, 54, 80
2, 6527, Note_on_c, 0, 62, 80
2, 6581, Note_on_c, 0, 54, 0
2, 6585, Note_on_c, 0, 64, 80
2, 6586, Note_on_c, 0, 62, 0
2, 6586, Note_on_c, 0, 55, 80
2, 6644, Note_on_c, 0, 66, 80
2, 6645, Note_on_c, 0, 57, 80
2, 6646, Note_on_c, 0, 55, 0
2, 6647, Note_on_c, 0, 64, 0
2, 6702, Note_on_c, 0, 66, 0
2, 6704, Note_on_c, 0, 57, 0
2, 6706, Note_on_c, 0, 59, 80
2, 6708, Note_on_c, 0, 67, 80
2, 6763, Note_on_c, 0, 67, 0
2, 6766, Note_on_c, 0, 59, 0
2, 6766, Note_on_c, 0, 64, 80
2, 6768, Note_on_c, 0, 55, 80
2, 6821, Note_on_c, 0, 54, 80
2, 6822, Note_on_c, 0, 55, 0
2, 6824, Note_on_c, 0, 64, 0
2, 6824, Note_on_c, 0, 62, 80
2, 6867, Note_on_c, 0, 54, 0
2, 6871, Note_on_c, 0, 55, 80
2, 6875, Note_on_c, 0, 64, 80
2, 6876, Note_on_c, 0, 62, 0
2, 6932, Note_on_c, 0, 55, 0
2, 6935, Note_on_c, 0, 60, 80
2, 6937, Note_on_c, 0, 64, 0
2, 6937, Note_on_c, 0, 69, 80
2, 6996, Note_on_c, 0, 69, 0
2, 6999, Note_on_c, 0, 66, 80
2, 7001, Note_on_c, 0, 60, 0
2, 7001, Note_on_c, 0, 57, 80
2, 7057, Note_on_c, 0, 66, 0
2, 7059, Note_on_c, 0, 64, 80
2, 7060, Note_on_c, 0, 55, 80
2, 7062, Note_on_c, 0, 57, 0
2, 7111, Note_on_c, 0, 55, 0
2, 7113, Note_on_c, 0, 64, 0
2, 7114, Note_on_c, 0, 57, 80
2, 7114, Note_on_c, 0, 66, 80
2, 7144, Note_on_c, 0, 66, 0
2, 7173, Note_on_c, 0, 57, 0
2, 7173, Note_on_c, 0, 71, 80
2, 7176, Note_on_c, 0, 62, 80
2, 7215, Note_on_c, 0, 62, 0
2, 7235, Note_on_c, 0, 50, 80
2, 7242, Note_on_c, 0, 69, 80
2, 7248, Note_on_c, 0, 71, 0
2, 7293, Note_on_c, 0, 50, 0
2, 7294, Note_on_c, 0, 52, 80
2, 7302, Note_on_c, 0, 67, 80
2, 7306, Note_on_c, 0, 69, 0
2, 7353, Note_on_c, 0, 69, 80
2, 7354, Note_on_c, 0, 67, 0
2, 7355, Note_on_c, 0, 54, 80
2, 7357, Note_on_c, 0, 52, 0
2, 7414, Note_on_c, 0, 71, 80
2, 7415, Note_on_c, 0, 69, 0
2, 7416, Note_on_c, 0, 54, 0
2, 7418, Note_on_c, 0, 55, 80
2, 7473, Note_on_c, 0, 71, 0
2, 7474, Note_on_c, 0, 67, 80
2, 7526, Note_on_c, 0, 67, 0
2, 7532, Note_on_c, 0, 66, 80
2, 7592, Note_on_c, 0, 66, 0
2, 7592, Note_on_c, 0, 67, 80
2, 7652, Note_on_c, 0, 72, 80
2, 7655, Note_on_c, 0, 67, 0
2, 7717, Note_on_c, 0, 72, 0
2, 7717, Note_on_c, 0, 67, 80
2, 7770, Note_on_c, 0, 67, 0
2, 7775, Note_on_c, 0, 66, 80
2, 7830, Note_on_c, 0, 66, 0
2, 7833, Note_on_c, 0, 67, 80
2, 7894, Note_on_c, 0, 74, 80
2, 7896, Note_on_c, 0, 67, 0
2, 7903, Note_on_c, 0, 55, 0
2, 7956, Note_on_c, 0, 74, 0
2, 7961, Note_on_c, 0, 72, 80
2, 7962, Note_on_c, 0, 54, 80
2, 8019, Note_on_c, 0, 71, 80
2, 8020, Note_on_c, 0, 54, 0
2, 8021, Note_on_c, 0, 72, 0
2, 8022, Note_on_c, 0, 55, 80
2, 8081, Note_on_c, 0, 71, 0
2, 8081, Note_on_c, 0, 55, 0
2, 8081, Note_on_c, 0, 69, 80
2, 8082, Note_on_c, 0, 57, 80
2, 8147, Note_on_c, 0, 67, 80
2, 8148, Note_on_c, 0, 59, 80
2, 8149, Note_on_c, 0, 69, 0
2, 8150, Note_on_c, 0, 57, 0
2, 8210, Note_on_c, 0, 66, 80
2, 8211, Note_on_c, 0, 67, 0
2, 8268, Note_on_c, 0, 66, 0
2, 8272, Note_on_c, 0, 64, 80
2, 8331, Note_on_c, 0, 64, 0
2, 8331, Note_on_c, 0, 62, 80
2, 8389, Note_on_c, 0, 62, 0
2, 8389, Note_on_c, 0, 64, 80
2, 8448, Note_on_c, 0, 67, 80
2, 8451, Note_on_c, 0, 64, 0
2, 8462, Note_on_c, 0, 59, 0
2, 8506, Note_on_c, 0, 67, 0
2, 8506, Note_on_c, 0, 72, 80
2, 8510, Note_on_c, 0, 57, 80
2, 8565, Note_on_c, 0, 72, 0
2, 8569, Note_on_c, 0, 66, 80
2, 8626, Note_on_c, 0, 66, 0
2, 8628, Note_on_c, 0, 67, 80
2, 8694, Note_on_c, 0, 69, 80
2, 8696, Note_on_c, 0, 67, 0
2, 8751, Note_on_c, 0, 71, 80
2, 8753, Note_on_c, 0, 55, 80
2, 8754, Note_on_c, 0, 69, 0
2, 8760, Note_on_c, 0, 57, 0
2, 8815, Note_on_c, 0, 71, 0
2, 8816, Note_on_c, 0, 62, 80
2, 8874, Note_on_c, 0, 62, 0
2, 8877, Note_on_c, 0, 64, 80
2, 8933, Note_on_c, 0, 71, 80
2, 8934, Note_on_c, 0, 64, 0
2, 8935, Note_on_c, 0, 54, 80
2, 8940, Note_on_c, 0, 55, 0
2, 8992, Note_on_c, 0, 69, 80
2, 8993, Note_on_c, 0, 71, 0
2, 8993, Note_on_c, 0, 55, 80
2, 9000, Note_on_c, 0, 54, 0
2, 9044, Note_on_c, 0, 57, 80
2, 9047, Note_on_c, 0, 67, 80
2, 9050, Note_on_c, 0, 69, 0
2, 9050, Note_on_c, 0, 55, 0
2, 9064, Note_on_c, 0, 57, 0
2, 9101, Note_on_c, 0, 59, 80
2, 9108, Note_on_c, 0, 67, 0
2, 9108, Note_on_c, 0, 66, 80
2, 9134, Note_on_c, 0, 57, 80
2, 9135, Note_on_c, 0, 59, 0
2, 9142, Note_on_c, 0, 66, 0
2, 9163, Note_on_c, 0, 57, 0
2, 9164, Note_on_c, 0, 59, 80
2, 9184, Note_on_c, 0, 59, 0
2, 9184, Note_on_c, 0, 57, 80
2, 9185, Note_on_c, 0, 76, 80
2, 9198, Note_on_c, 0, 59, 80
2, 9203, Note_on_c, 0, 57, 0
2, 9216, Note_on_c, 0, 57, 80
2, 9232, Note_on_c, 0, 74, 80
2, 9233, Note_on_c, 0, 76, 0
2, 9234, Note_on_c, 0, 59, 0
2, 9261, Note_on_c, 0, 55, 80
2, 9264, Note_on_c, 0, 57, 0
2, 9288, Note_on_c, 0, 72, 80
2, 9290, Note_on_c, 0, 74, 0
2, 9290, Note_on_c, 0, 57, 80
2, 9293, Note_on_c, 0, 55, 0
2, 9335, Note_on_c, 0, 55, 80
2, 9337, Note_on_c, 0, 57, 0
2, 9342, Note_on_c, 0, 72, 0
2, 9345, Note_on_c, 0, 71, 80
2, 9372, Note_on_c, 0, 71, 0
2, 9412, Note_on_c, 0, 67, 80
2, 9462, Note_on_c, 0, 67, 0
2, 9468, Note_on_c, 0, 66, 80
2, 9517, Note_on_c, 0, 55, 0
2, 9524, Note_on_c, 0, 66, 0
2, 9528, Note_on_c, 0, 67, 80
2, 9580, Note_on_c, 0, 67, 0
2, 9586, Note_on_c, 0, 57, 80
2, 9590, Note_on_c, 0, 72, 80
2, 9656, Note_on_c, 0, 67, 80
2, 9658, Note_on_c, 0, 72, 0
2, 9672, Note_on_c, 0, 57, 0
2, 9710, Note_on_c, 0, 67, 0
2, 9713, Note_on_c, 0, 66, 80
2, 9763, Note_on_c, 0, 66, 0
2, 9766, Note_on_c, 0, 67, 80
2, 9825, Note_on_c, 0, 74, 80
2, 9826, Note_on_c, 0, 59, 80
2, 9829, Note_on_c, 0, 67, 0
2, 9893, Note_on_c, 0, 74, 0
2, 9896, Note_on_c, 0, 67, 80
2, 9913, Note_on_c, 0, 59, 0
2, 9943, Note_on_c, 0, 67, 0
2, 9949, Note_on_c, 0, 66, 80
2, 9995, Note_on_c, 0, 66, 0
2, 10000, Note_on_c, 0, 67, 80
2, 10052, Note_on_c, 0, 67, 0
2, 10057, Note_on_c, 0, 76, 80
2, 10062, Note_on_c, 0, 60, 80
2, 10120, Note_on_c, 0, 76, 0
2, 10125, Note_on_c, 0, 72, 80
2, 10136, Note_on_c, 0, 60, 0
2, 10179, Note_on_c, 0, 72, 0
2, 10182, Note_on_c, 0, 71, 80
2, 10228, Note_on_c, 0, 71, 0
2, 10235, Note_on_c, 0, 72, 80
2, 10273, Note_on_c, 0, 72, 0
2, 10298, Note_on_c, 0, 59, 80
2, 10299, Note_on_c, 0, 67, 80
2, 10301, Note_on_c, 0, 76, 80
2, 10364, Note_on_c, 0, 76, 0
2, 10365, Note_on_c, 0, 72, 80
2, 10384, Note_on_c, 0, 67, 0
2, 10387, Note_on_c, 0, 59, 0
2, 10426, Note_on_c, 0, 72, 0
2, 10427, Note_on_c, 0, 71, 80
2, 10474, Note_on_c, 0, 71, 0
2, 10481, Note_on_c, 0, 72, 80
2, 10537, Note_on_c, 0, 72, 0
2, 10541, Note_on_c, 0, 78, 80
2, 10542, Note_on_c, 0, 66, 80
2, 10543, Note_on_c, 0, 57, 80
2, 10602, Note_on_c, 0, 78, 0
2, 10605, Note_on_c, 0, 72, 80
2, 10635, Note_on_c, 0, 57, 0
2, 10649, Note_on_c, 0, 66, 0
2, 10660, Note_on_c, 0, 72, 0
2, 10660, Note_on_c, 0, 71, 80
2, 10719, Note_on_c, 0, 72, 80
2, 10723, Note_on_c, 0, 71, 0
2, 10774, Note_on_c, 0, 72, 0
2, 10777, Note_on_c, 0, 79, 80
2, 10782, Note_on_c, 0, 71, 80
2, 10845, Note_on_c, 0, 79, 0
2, 10847, Note_on_c, 0, 74, 80
2, 10897, Note_on_c, 0, 71, 0
2, 10905, Note_on_c, 0, 74, 0
2, 10906, Note_on_c, 0, 72, 80
2, 10958, Note_on_c, 0, 72, 0
2, 10962, Note_on_c, 0, 74, 80
2, 11019, Note_on_c, 0, 74, 0
2, 11021, Note_on_c, 0, 67, 80
2, 11024, Note_on_c, 0, 76, 80
2, 11083, Note_on_c, 0, 72, 80
2, 11093, Note_on_c, 0, 76, 0
2, 11098, Note_on_c, 0, 67, 0
2, 11140, Note_on_c, 0, 72, 0
2, 11143, Note_on_c, 0, 71, 80
2, 11196, Note_on_c, 0, 71, 0
2, 11198, Note_on_c, 0, 72, 80
2, 11255, Note_on_c, 0, 72, 0
2, 11256, Note_on_c, 0, 66, 80
2, 11257, Note_on_c, 0, 74, 80
2, 11321, Note_on_c, 0, 72, 80
2, 11322, Note_on_c, 0, 74, 0
2, 11375, Note_on_c, 0, 72, 0
2, 11375, Note_on_c, 0, 71, 80
2, 11376, Note_on_c, 0, 66, 0
2, 11430, Note_on_c, 0, 71, 0
2, 11432, Note_on_c, 0, 72, 80
2, 11453, Note_on_c, 0, 72, 0
2, 11495, Note_on_c, 0, 74, 80
2, 11496, Note_on_c, 0, 67, 80
2, 11601, Note_on_c, 0, 74, 0
2, 11603, Note_on_c, 0, 67, 0
2, 12300, Note_on_c, 0, 67, 80
2, 12358, Note_on_c, 0, 69, 80
2, 12364, Note_on_c, 0, 67, 0
2, 12409, Note_on_c, 0, 69, 0
2, 12412, Note_on_c, 0, 71, 80
2, 12465, Note_on_c, 0, 71, 0
2, 12467, Note_on_c, 0, 72, 80
2, 12531, Note_on_c, 0, 67, 80
2, 12534, Note_on_c, 0, 72, 0
2, 12583, Note_on_c, 0, 67, 0
2, 12587, Note_on_c, 0, 66, 80
2, 12639, Note_on_c, 0, 66, 0
2, 12640, Note_on_c, 0, 67, 80
2, 12697, Note_on_c, 0, 74, 80
2, 12701, Note_on_c, 0, 67, 0
2, 12753, Note_on_c, 0, 74, 0
2, 12753, Note_on_c, 0, 65, 80
2, 12806, Note_on_c, 0, 65, 0
2, 12809, Note_on_c, 0, 67, 80
2, 12866, Note_on_c, 0, 62, 80
2, 12867, Note_on_c, 0, 67, 0
2, 12931, Note_on_c, 0, 64, 80
2, 12933, Note_on_c, 0, 62, 0
2, 13251, Note_on_c, 0, 64, 0
2, 13736, Note_on_c, 0, 69, 80
2, 13789, Note_on_c, 0, 69, 0
2, 13790, Note_on_c, 0, 71, 80
2, 13843, Note_on_c, 0, 71, 0
2, 13844, Note_on_c, 0, 72, 80
2, 13902, Note_on_c, 0, 74, 80
2, 13906, Note_on_c, 0, 72, 0
2, 13964, Note_on_c, 0, 69, 80
2, 13966, Note_on_c, 0, 74, 0
2, 14017, Note_on_c, 0, 69, 0
2, 14021, Note_on_c, 0, 68, 80
2, 14075, Note_on_c, 0, 68, 0
2, 14076, Note_on_c, 0, 69, 80
2, 14132, Note_on_c, 0, 76, 80
2, 14138, Note_on_c, 0, 69, 0
2, 14186, Note_on_c, 0, 76, 0
2, 14190, Note_on_c, 0, 67, 80
2, 14250, Note_on_c, 0, 67, 0
2, 14253, Note_on_c, 0, 69, 80
2, 14307, Note_on_c, 0, 64, 80
2, 14310, Note_on_c, 0, 69, 0
2, 14356, Note_on_c, 0, 64, 0
2, 14373, Note_on_c, 0, 66, 80
2, 14436, Note_on_c, 0, 67, 80
2, 14437, Note_on_c, 0, 66, 0
2, 14492, Note_on_c, 0, 67, 0
2, 14497, Note_on_c, 0, 66, 80
2, 14552, Note_on_c, 0, 66, 0
2, 14557, Note_on_c, 0, 67, 80
2, 14615, Note_on_c, 0, 67, 0
2, 14618, Note_on_c, 0, 69, 80
2, 14934, Note_on_c, 0, 72, 80
2, 14937, Note_on_c, 0, 69, 0
2, 14996, Note_on_c, 0, 72, 0
2, 14996, Note_on_c, 0, 71, 80
2, 15057, Note_on_c, 0, 71, 0
2, 15057, Note_on_c, 0, 69, 80
2, 15123, Note_on_c, 0, 67, 80
2, 15124, Note_on_c, 0, 69, 0
2, 15353, Note_on_c, 0, 67, 0
2, 15469, Note_on_c, 0, 79, 80
2, 15546, Note_on_c, 0, 79, 0
2, 15595, Note_on_c, 0, 78, 80
2, 15655, Note_on_c, 0, 76, 80
2, 15658, Note_on_c, 0, 78, 0
2, 15718, Note_on_c, 0, 75, 80
2, 15721, Note_on_c, 0, 76, 0
2, 15774, Note_on_c, 0, 75, 0
2, 15775, Note_on_c, 0, 76, 80
2, 15841, Note_on_c, 0, 75, 80
2, 15853, Note_on_c, 0, 76, 0
2, 15897, Note_on_c, 0, 73, 80
2, 15935, Note_on_c, 0, 73, 0
2, 15953, Note_on_c, 0, 71, 80
2, 15975, Note_on_c, 0, 75, 0
2, 15996, Note_on_c, 0, 71, 0
2, 16003, Note_on_c, 0, 73, 80
2, 16005, Note_on_c, 0, 76, 80
2, 16031, Note_on_c, 0, 73, 0
2, 16033, Note_on_c, 0, 76, 0
2, 16064, Note_on_c, 0, 78, 80
2, 16067, Note_on_c, 0, 75, 80
2, 16124, Note_on_c, 0, 75, 0
2, 16128, Note_on_c, 0, 71, 80
2, 16182, Note_on_c, 0, 70, 80
2, 16186, Note_on_c, 0, 71, 0
2, 16209, Note_on_c, 0, 78, 0
2, 16234, Note_on_c, 0, 70, 0
2, 16237, Note_on_c, 0, 71, 80
2, 16282, Note_on_c, 0, 71, 0
2, 16293, Note_on_c, 0, 79, 80
2, 16294, Note_on_c, 0, 76, 80
2, 16356, Note_on_c, 0, 71, 80
2, 16357, Note_on_c, 0, 76, 0
2, 16410, Note_on_c, 0, 70, 80
2, 16421, Note_on_c, 0, 71, 0
2, 16435, Note_on_c, 0, 79, 0
2, 16456, Note_on_c, 0, 70, 0
2, 16460, Note_on_c, 0, 71, 80
2, 16512, Note_on_c, 0, 71, 0
2, 16537, Note_on_c, 0, 81, 80
2, 16545, Note_on_c, 0, 78, 80
2, 16593, Note_on_c, 0, 78, 0
2, 16603, Note_on_c, 0, 76, 80
2, 16636, Note_on_c, 0, 76, 0
2, 16658, Note_on_c, 0, 75, 80
2, 16710, Note_on_c, 0, 75, 0
2, 16714, Note_on_c, 0, 73, 80
2, 16772, Note_on_c, 0, 73, 0
2, 16775, Note_on_c, 0, 71, 80
2, 16782, Note_on_c, 0, 81, 0
2, 16836, Note_on_c, 0, 84, 80
2, 16888, Note_on_c, 0, 84, 0
2, 16893, Note_on_c, 0, 83, 80
2, 16900, Note_on_c, 0, 71, 0
2, 16952, Note_on_c, 0, 81, 80
2, 16953, Note_on_c, 0, 83, 0
2, 17007, Note_on_c, 0, 81, 0
2, 17010, Note_on_c, 0, 79, 80
2, 17011, Note_on_c, 0, 71, 80
2, 17067, Note_on_c, 0, 79, 0
2, 17072, Note_on_c, 0, 78, 80
2, 17129, Note_on_c, 0, 78, 0
2, 17132, Note_on_c, 0, 76, 80
2, 17189, Note_on_c, 0, 76, 0
2, 17189, Note_on_c, 0, 74, 80
2, 17249, Note_on_c, 0, 74, 0
2, 17254, Note_on_c, 0, 72, 80
2, 17282, Note_on_c, 0, 71, 0
2, 17318, Note_on_c, 0, 64, 80
2, 17378, Note_on_c, 0, 66, 80
2, 17381, Note_on_c, 0, 64, 0
2, 17435, Note_on_c, 0, 66, 0
2, 17437, Note_on_c, 0, 67, 80
2, 17446, Note_on_c, 0, 72, 0
2, 17498, Note_on_c, 0, 69, 80
2, 17501, Note_on_c, 0, 67, 0
2, 17558, Note_on_c, 0, 71, 80
2, 17570, Note_on_c, 0, 69, 0
2, 17616, Note_on_c, 0, 71, 0
2, 17618, Note_on_c, 0, 72, 80
2, 17675, Note_on_c, 0, 64, 80
2, 17735, Note_on_c, 0, 64, 0
2, 17736, Note_on_c, 0, 63, 80
2, 17745, Note_on_c, 0, 72, 0
2, 17803, Note_on_c, 0, 72, 80
2, 17863, Note_on_c, 0, 72, 0
2, 17863, Note_on_c, 0, 71, 80
2, 17911, Note_on_c, 0, 71, 0
2, 17917, Note_on_c, 0, 69, 80
2, 17920, Note_on_c, 0, 63, 0
2, 17976, Note_on_c, 0, 69, 0
2, 17976, Note_on_c, 0, 67, 80
2, 18035, Note_on_c, 0, 64, 80
2, 18093, Note_on_c, 0, 67, 0
2, 18095, Note_on_c, 0, 69, 80
2, 18096, Note_on_c, 0, 64, 0
2, 18096, Note_on_c, 0, 63, 80
2, 18155, Note_on_c, 0, 63, 0
2, 18156, Note_on_c, 0, 64, 80
2, 18214, Note_on_c, 0, 69, 0
2, 18218, Note_on_c, 0, 71, 80
2, 18220, Note_on_c, 0, 64, 0
2, 18277, Note_on_c, 0, 64, 80
2, 18337, Note_on_c, 0, 71, 0
2, 18337, Note_on_c, 0, 72, 80
2, 18344, Note_on_c, 0, 64, 0
2, 18396, Note_on_c, 0, 64, 80
2, 18445, Note_on_c, 0, 64, 0
2, 18449, Note_on_c, 0, 72, 0
2, 18459, Note_on_c, 0, 59, 80
2, 18524, Note_on_c, 0, 64, 80
2, 18566, Note_on_c, 0, 64, 0
2, 18581, Note_on_c, 0, 66, 80
2, 18582, Note_on_c, 0, 57, 80
2, 18583, Note_on_c, 0, 59, 0
2, 18634, Note_on_c, 0, 57, 0
2, 18635, Note_on_c, 0, 66, 0
2, 18638, Note_on_c, 0, 63, 80
2, 18700, Note_on_c, 0, 63, 0
2, 18701, Note_on_c, 0, 64, 80
2, 18702, Note_on_c, 0, 55, 80
2, 18731, Note_on_c, 0, 64, 0
2, 18777, Note_on_c, 0, 71, 80
2, 18791, Note_on_c, 0, 55, 0
2, 18832, Note_on_c, 0, 73, 80
2, 18833, Note_on_c, 0, 71, 0
2, 18891, Note_on_c, 0, 73, 0
2, 18893, Note_on_c, 0, 75, 80
2, 18949, Note_on_c, 0, 75, 0
2, 18950, Note_on_c, 0, 76, 80
2, 19009, Note_on_c, 0, 76, 0
2, 19010, Note_on_c, 0, 71, 80
2, 19071, Note_on_c, 0, 69, 80
2, 19074, Note_on_c, 0, 71, 0
2, 19123, Note_on_c, 0, 71, 80
2, 19125, Note_on_c, 0, 69, 0
2, 19183, Note_on_c, 0, 71, 0
2, 19184, Note_on_c, 0, 78, 80
2, 19185, Note_on_c, 0, 75, 80
2, 19251, Note_on_c, 0, 75, 0
2, 19254, Note_on_c, 0, 71, 80
2, 19269, Note_on_c, 0, 78, 0
2, 19318, Note_on_c, 0, 69, 80
2, 19332, Note_on_c, 0, 71, 0
2, 19370, Note_on_c, 0, 71, 80
2, 19377, Note_on_c, 0, 69, 0
2, 19390, Note_on_c, 0, 71, 0
2, 19436, Note_on_c, 0, 76, 80
2, 19436, Note_on_c, 0, 79, 80
2, 19497, Note_on_c, 0, 78, 80
2, 19498, Note_on_c, 0, 79, 0
2, 19502, Note_on_c, 0, 76, 0
2, 19556, Note_on_c, 0, 78, 0
2, 19556, Note_on_c, 0, 76, 80
2, 19614, Note_on_c, 0, 74, 80
2, 19615, Note_on_c, 0, 76, 0
2, 19672, Note_on_c, 0, 72, 80
2, 19674, Note_on_c, 0, 74, 0
2, 19733, Note_on_c, 0, 71, 80
2, 19736, Note_on_c, 0, 72, 0
2, 19790, Note_on_c, 0, 71, 0
2, 19792, Note_on_c, 0, 69, 80
2, 19849, Note_on_c, 0, 69, 0
2, 19850, Note_on_c, 0, 67, 80
2, 19864, Note_on_c, 0, 67, 0
2, 19913, Note_on_c, 0, 72, 80
2, 19970, Note_on_c, 0, 76, 80
2, 19971, Note_on_c, 0, 72, 0
2, 20025, Note_on_c, 0, 74, 80
2, 20029, Note_on_c, 0, 76, 0
2, 20085, Note_on_c, 0, 74, 0
2, 20085, Note_on_c, 0, 77, 80
2, 20144, Note_on_c, 0, 77, 0
2, 20145, Note_on_c, 0, 76, 80
2, 20208, Note_on_c, 0, 76, 0
2, 20211, Note_on_c, 0, 81, 80
2, 20272, Note_on_c, 0, 79, 80
2, 20276, Note_on_c, 0, 81, 0
2, 20331, Note_on_c, 0, 77, 80
2, 20332, Note_on_c, 0, 79, 0
2, 20390, Note_on_c, 0, 76, 80
2, 20391, Note_on_c, 0, 77, 0
2, 20447, Note_on_c, 0, 74, 80
2, 20450, Note_on_c, 0, 76, 0
2, 20505, Note_on_c, 0, 72, 80
2, 20510, Note_on_c, 0, 74, 0
2, 20556, Note_on_c, 0, 72, 0
2, 20558, Note_on_c, 0, 71, 80
2, 20620, Note_on_c, 0, 69, 80
2, 20622, Note_on_c, 0, 71, 0
2, 20690, Note_on_c, 0, 72, 80
2, 20695, Note_on_c, 0, 69, 0
2, 20747, Note_on_c, 0, 76, 80
2, 20748, Note_on_c, 0, 72, 0
2, 20800, Note_on_c, 0, 76, 0
2, 20802, Note_on_c, 0, 67, 80
2, 20856, Note_on_c, 0, 67, 0
2, 20866, Note_on_c, 0, 66, 80
2, 20926, Note_on_c, 0, 62, 80
2, 20975, Note_on_c, 0, 66, 0
2, 20981, Note_on_c, 0, 64, 80
2, 20982, Note_on_c, 0, 62, 0
2, 21034, Note_on_c, 0, 64, 0
2, 21039, Note_on_c, 0, 66, 80
2, 21092, Note_on_c, 0, 66, 0
2, 21096, Note_on_c, 0, 67, 80
2, 21161, Note_on_c, 0, 64, 80
2, 21169, Note_on_c, 0, 67, 0
2, 21220, Note_on_c, 0, 62, 80
2, 21221, Note_on_c, 0, 64, 0
2, 21273, Note_on_c, 0, 62, 0
2, 21274, Note_on_c, 0, 64, 80
2, 21329, Note_on_c, 0, 64, 0
2, 21336, Note_on_c, 0, 65, 80
2, 21396, Note_on_c, 0, 65, 0
2, 21399, Note_on_c, 0, 62, 80
2, 21458, Note_on_c, 0, 60, 80
2, 21463, Note_on_c, 0, 62, 0
2, 21515, Note_on_c, 0, 60, 0
2, 21517, Note_on_c, 0, 62, 80
2, 21583, Note_on_c, 0, 64, 80
2, 21584, Note_on_c, 0, 62, 0
2, 21648, Note_on_c, 0, 67, 80
2, 21703, Note_on_c, 0, 69, 80
2, 21704, Note_on_c, 0, 67, 0
2, 21757, Note_on_c, 0, 71, 80
2, 21759, Note_on_c, 0, 69, 0
2, 21817, Note_on_c, 0, 72, 80
2, 21818, Note_on_c, 0, 71, 0
2, 21878, Note_on_c, 0, 72, 0
2, 21880, Note_on_c, 0, 69, 80
2, 21939, Note_on_c, 0, 71, 80
2, 21943, Note_on_c, 0, 69, 0
2, 21998, Note_on_c, 0, 71, 0
2, 21999, Note_on_c, 0, 72, 80
2, 22024, Note_on_c, 0, 64, 0
2, 22057, Note_on_c, 0, 74, 80
2, 22060, Note_on_c, 0, 72, 0
2, 22121, Note_on_c, 0, 69, 80
2, 22179, Note_on_c, 0, 67, 80
2, 22183, Note_on_c, 0, 69, 0
2, 22239, Note_on_c, 0, 69, 80
2, 22240, Note_on_c, 0, 67, 0
2, 22294, Note_on_c, 0, 69, 0
2, 22301, Note_on_c, 0, 71, 80
2, 22361, Note_on_c, 0, 69, 80
2, 22365, Note_on_c, 0, 71, 0
2, 22421, Note_on_c, 0, 69, 0
2, 22425, Note_on_c, 0, 72, 80
2, 22486, Note_on_c, 0, 71, 80
2, 22489, Note_on_c, 0, 72, 0
2, 22544, Note_on_c, 0, 69, 80
2, 22548, Note_on_c, 0, 71, 0
2, 22607, Note_on_c, 0, 67, 80
2, 22609, Note_on_c, 0, 69, 0
2, 22668, Note_on_c, 0, 67, 0
2, 22669, Note_on_c, 0, 66, 80
2, 22728, Note_on_c, 0, 66, 0
2, 22729, Note_on_c, 0, 67, 80
2, 22785, Note_on_c, 0, 67, 0
2, 22788, Note_on_c, 0, 69, 80
2, 22848, Note_on_c, 0, 69, 0
2, 22848, Note_on_c, 0, 71, 80
2, 22908, Note_on_c, 0, 71, 0
2, 22909, Note_on_c, 0, 72, 80
2, 22960, Note_on_c, 0, 72, 0
2, 22966, Note_on_c, 0, 66, 80
2, 23028, Note_on_c, 0, 66, 0
2, 23038, Note_on_c, 0, 67, 80
2, 23137, Note_on_c, 0, 74, 0
2, 23148, Note_on_c, 0, 76, 80
2, 23234, Note_on_c, 0, 67, 0
2, 23264, Note_on_c, 0, 76, 0
2, 23265, Note_on_c, 0, 74, 80
2, 23265, Note_on_c, 0, 78, 80
2, 23335, Note_on_c, 0, 78, 0
2, 23392, Note_on_c, 0, 79, 80
2, 23506, Note_on_c, 0, 72, 80
2, 23508, Note_on_c, 0, 74, 0
2, 23629, Note_on_c, 0, 78, 80
2, 23633, Note_on_c, 0, 79, 0
2, 23754, Note_on_c, 0, 71, 80
2, 23756, Note_on_c, 0, 79, 80
2, 23757, Note_on_c, 0, 78, 0
2, 23760, Control_c, 0, 7, 106
2, 23760, Control_c, 0, 10, 68
2, 23772, Note_on_c, 0, 72, 0
2, 23859, Note_on_c, 0, 79, 0
2, 23860, Note_on_c, 0, 71, 0
2, 23876, Note_on_c, 0, 67, 80
2, 23931, Note_on_c, 0, 69, 80
2, 23938, Note_on_c, 0, 67, 0
2, 23989, Note_on_c, 0, 69, 0
2, 23989, Note_on_c, 0, 71, 80
2, 24050, Note_on_c, 0, 67, 80
2, 24051, Note_on_c, 0, 71, 0
2, 24108, Note_on_c, 0, 66, 80
2, 24116, Note_on_c, 0, 67, 0
2, 24160, Note_on_c, 0, 67, 80
2, 24162, Note_on_c, 0, 66, 0
2, 24216, Note_on_c, 0, 72, 80
2, 24218, Note_on_c, 0, 67, 0
2, 24275, Note_on_c, 0, 67, 80
2, 24278, Note_on_c, 0, 72, 0
2, 24334, Note_on_c, 0, 67, 0
2, 24335, Note_on_c, 0, 66, 80
2, 24387, Note_on_c, 0, 67, 80
2, 24388, Note_on_c, 0, 66, 0
2, 24433, Note_on_c, 0, 67, 0
2, 24453, Note_on_c, 0, 74, 80
2, 24514, Note_on_c, 0, 72, 80
2, 24519, Note_on_c, 0, 74, 0
2, 24579, Note_on_c, 0, 71, 80
2, 24585, Note_on_c, 0, 72, 0
2, 24639, Note_on_c, 0, 69, 80
2, 24642, Note_on_c, 0, 71, 0
2, 24699, Note_on_c, 0, 67, 80
2, 24700, Note_on_c, 0, 69, 0
2, 24762, Note_on_c, 0, 66, 80
2, 24765, Note_on_c, 0, 67, 0
2, 24821, Note_on_c, 0, 66, 0
2, 24824, Note_on_c, 0, 64, 80
2, 24886, Note_on_c, 0, 62, 80
2, 24897, Note_on_c, 0, 64, 0
2, 24929, Note_on_c, 0, 62, 0
2, 24948, Note_on_c, 0, 64, 80
2, 25010, Note_on_c, 0, 67, 80
2, 25011, Note_on_c, 0, 64, 0
2, 25070, Note_on_c, 0, 72, 80
2, 25073, Note_on_c, 0, 67, 0
2, 25129, Note_on_c, 0, 66, 80
2, 25131, Note_on_c, 0, 72, 0
2, 25169, Note_on_c, 0, 66, 0
2, 25195, Note_on_c, 0, 67, 80
2, 25254, Note_on_c, 0, 69, 80
2, 25263, Note_on_c, 0, 67, 0
2, 25320, Note_on_c, 0, 71, 80
2, 25328, Note_on_c, 0, 69, 0
2, 25379, Note_on_c, 0, 62, 80
2, 25381, Note_on_c, 0, 71, 0
2, 25429, Note_on_c, 0, 62, 0
2, 25440, Note_on_c, 0, 64, 80
2, 25499, Note_on_c, 0, 71, 80
2, 25504, Note_on_c, 0, 64, 0
2, 25553, Note_on_c, 0, 69, 80
2, 25565, Note_on_c, 0, 71, 0
2, 25612, Note_on_c, 0, 67, 80
2, 25615, Note_on_c, 0, 69, 0
2, 25677, Note_on_c, 0, 66, 80
2, 25678, Note_on_c, 0, 67, 0
2, 25708, Note_on_c, 0, 66, 0
2, 25737, Note_on_c, 0, 76, 80
2, 25795, Note_on_c, 0, 76, 0
2, 25797, Note_on_c, 0, 74, 80
2, 25839, Note_on_c, 0, 74, 0
2, 25856, Note_on_c, 0, 72, 80
2, 25899, Note_on_c, 0, 72, 0
2, 25915, Note_on_c, 0, 71, 80
2, 25972, Note_on_c, 0, 69, 80
2, 25974, Note_on_c, 0, 71, 0
2, 26034, Note_on_c, 0, 69, 0
2, 26034, Note_on_c, 0, 71, 80
2, 26040, Note_on_c, 0, 62, 80
2, 26088, Note_on_c, 0, 62, 0
2, 26094, Note_on_c, 0, 64, 80
2, 26096, Note_on_c, 0, 73, 80
2, 26100, Note_on_c, 0, 71, 0
2, 26122, Note_on_c, 0, 64, 0
2, 26155, Note_on_c, 0, 73, 0
2, 26155, Note_on_c, 0, 66, 80
2, 26156, Note_on_c, 0, 74, 80
2, 26212, Note_on_c, 0, 66, 0
2, 26215, Note_on_c, 0, 62, 80
2, 26271, Note_on_c, 0, 62, 0
2, 26273, Note_on_c, 0, 61, 80
2, 26326, Note_on_c, 0, 61, 0
2, 26331, Note_on_c, 0, 62, 80
2, 26389, Note_on_c, 0, 62, 0
2, 26390, Note_on_c, 0, 67, 80
2, 26448, Note_on_c, 0, 62, 80
2, 26450, Note_on_c, 0, 67, 0
2, 26511, Note_on_c, 0, 61, 80
2, 26513, Note_on_c, 0, 62, 0
2, 26566, Note_on_c, 0, 62, 80
2, 26567, Note_on_c, 0, 61, 0
2, 26625, Note_on_c, 0, 62, 0
2, 26628, Note_on_c, 0, 69, 80
2, 26660, Note_on_c, 0, 74, 0
2, 26687, Note_on_c, 0, 69, 0
2, 26690, Note_on_c, 0, 67, 80
2, 26691, Note_on_c, 0, 73, 80
2, 26746, Note_on_c, 0, 73, 0
2, 26747, Note_on_c, 0, 74, 80
2, 26749, Note_on_c, 0, 66, 80
2, 26751, Note_on_c, 0, 67, 0
2, 26803, Note_on_c, 0, 66, 0
2, 26806, Note_on_c, 0, 74, 0
2, 26808, Note_on_c, 0, 64, 80
2, 26809, Note_on_c, 0, 76, 80
2, 26868, Note_on_c, 0, 62, 80
2, 26870, Note_on_c, 0, 64, 0
2, 26870, Note_on_c, 0, 78, 80
2, 26871, Note_on_c, 0, 76, 0
2, 26930, Note_on_c, 0, 61, 80
2, 26931, Note_on_c, 0, 62, 0
2, 26990, Note_on_c, 0, 59, 80
2, 26991, Note_on_c, 0, 61, 0
2, 27053, Note_on_c, 0, 57, 80
2, 27054, Note_on_c, 0, 59, 0
2, 27111, Note_on_c, 0, 57, 0
2, 27113, Note_on_c, 0, 59, 80
2, 27176, Note_on_c, 0, 62, 80
2, 27181, Note_on_c, 0, 59, 0
2, 27236, Note_on_c, 0, 67, 80
2, 27237, Note_on_c, 0, 62, 0
2, 27237, Note_on_c, 0, 76, 80
2, 27243, Note_on_c, 0, 78, 0
2, 27294, Note_on_c, 0, 61, 80
2, 27295, Note_on_c, 0, 67, 0
2, 27351, Note_on_c, 0, 61, 0
2, 27354, Note_on_c, 0, 62, 80
2, 27414, Note_on_c, 0, 64, 80
2, 27420, Note_on_c, 0, 62, 0
2, 27449, Note_on_c, 0, 64, 0
2, 27474, Note_on_c, 0, 66, 80
2, 27478, Note_on_c, 0, 74, 80
2, 27484, Note_on_c, 0, 76, 0
2, 27544, Note_on_c, 0, 66, 0
2, 27545, Note_on_c, 0, 57, 80
2, 27595, Note_on_c, 0, 57, 0
2, 27601, Note_on_c, 0, 59, 80
2, 27653, Note_on_c, 0, 59, 0
2, 27658, Note_on_c, 0, 74, 0
2, 27659, Note_on_c, 0, 66, 80
2, 27660, Note_on_c, 0, 73, 80
2, 27714, Note_on_c, 0, 66, 0
2, 27715, Note_on_c, 0, 73, 0
2, 27718, Note_on_c, 0, 64, 80
2, 27719, Note_on_c, 0, 74, 80
2, 27776, Note_on_c, 0, 64, 0
2, 27776, Note_on_c, 0, 74, 0
2, 27777, Note_on_c, 0, 62, 80
2, 27778, Note_on_c, 0, 76, 80
2, 27808, Note_on_c, 0, 76, 0
2, 27836, Note_on_c, 0, 61, 80
2, 27839, Note_on_c, 0, 62, 0
2, 27841, Note_on_c, 0, 78, 80
2, 27868, Note_on_c, 0, 78, 0
2, 27871, Note_on_c, 0, 76, 80
2, 27872, Note_on_c, 0, 61, 0
2, 27891, Note_on_c, 0, 76, 0
2, 27894, Note_on_c, 0, 78, 80
2, 27901, Note_on_c, 0, 71, 80
2, 27914, Note_on_c, 0, 78, 0
2, 27917, Note_on_c, 0, 76, 80
2, 27931, Note_on_c, 0, 76, 0
2, 27934, Note_on_c, 0, 78, 80
2, 27949, Note_on_c, 0, 78, 0
2, 27951, Note_on_c, 0, 76, 80
2, 27961, Note_on_c, 0, 76, 0
2, 27961, Note_on_c, 0, 78, 80
2, 27964, Note_on_c, 0, 71, 0
2, 27968, Note_on_c, 0, 69, 80
2, 27974, Note_on_c, 0, 78, 0
2, 27975, Note_on_c, 0, 76, 80
2, 27988, Note_on_c, 0, 78, 80
2, 27992, Note_on_c, 0, 76, 0
2, 28006, Note_on_c, 0, 76, 80
2, 28015, Note_on_c, 0, 78, 0
2, 28029, Note_on_c, 0, 67, 80
2, 28030, Note_on_c, 0, 69, 0
2, 28044, Note_on_c, 0, 76, 0
2, 28044, Note_on_c, 0, 74, 80
2, 28062, Note_on_c, 0, 67, 0
2, 28068, Note_on_c, 0, 74, 0
2, 28068, Note_on_c, 0, 76, 80
2, 28098, Note_on_c, 0, 76, 0
2, 28099, Note_on_c, 0, 74, 80
2, 28102, Note_on_c, 0, 66, 80
2, 28154, Note_on_c, 0, 74, 0
2, 28156, Note_on_c, 0, 66, 0
2, 28157, Note_on_c, 0, 76, 80
2, 28158, Note_on_c, 0, 64, 80
2, 28214, Note_on_c, 0, 78, 80
2, 28215, Note_on_c, 0, 76, 0
2, 28216, Note_on_c, 0, 62, 80
2, 28218, Note_on_c, 0, 64, 0
2, 28265, Note_on_c, 0, 78, 0
2, 28269, Note_on_c, 0, 79, 80
2, 28270, Note_on_c, 0, 62, 0
2, 28272, Note_on_c, 0, 64, 80
2, 28327, Note_on_c, 0, 81, 80
2, 28330, Note_on_c, 0, 64, 0
2, 28330, Note_on_c, 0, 66, 80
2, 28331, Note_on_c, 0, 79, 0
2, 28387, Note_on_c, 0, 81, 0
2, 28388, Note_on_c, 0, 74, 80
2, 28409, Note_on_c, 0, 66, 0
2, 28436, Note_on_c, 0, 74, 0
2, 28445, Note_on_c, 0, 73, 80
2, 28493, Note_on_c, 0, 73, 0
2, 28495, Note_on_c, 0, 74, 80
2, 28549, Note_on_c, 0, 74, 0
2, 28553, Note_on_c, 0, 83, 80
2, 28558, Note_on_c, 0, 68, 80
2, 28599, Note_on_c, 0, 83, 0
2, 28610, Note_on_c, 0, 74, 80
2, 28662, Note_on_c, 0, 68, 0
2, 28670, Note_on_c, 0, 74, 0
2, 28672, Note_on_c, 0, 76, 80
2, 28718, Note_on_c, 0, 76, 0
2, 28723, Note_on_c, 0, 71, 80
2, 28778, Note_on_c, 0, 71, 0
2, 28781, Note_on_c, 0, 72, 80
2, 28785, Note_on_c, 0, 69, 80
2, 28820, Note_on_c, 0, 72, 0
2, 28846, Note_on_c, 0, 74, 80
2, 28893, Note_on_c, 0, 69, 0
2, 28898, Note_on_c, 0, 74, 0
2, 28902, Note_on_c, 0, 76, 80
2, 28959, Note_on_c, 0, 76, 0
2, 28959, Note_on_c, 0, 78, 80
2, 29016, Note_on_c, 0, 78, 0
2, 29020, Note_on_c, 0, 79, 80
2, 29023, Note_on_c, 0, 64, 80
2, 29077, Note_on_c, 0, 79, 0
2, 29080, Note_on_c, 0, 72, 80
2, 29091, Note_on_c, 0, 64, 0
2, 29142, Note_on_c, 0, 71, 80
2, 29143, Note_on_c, 0, 72, 0
2, 29189, Note_on_c, 0, 71, 0
2, 29194, Note_on_c, 0, 72, 80
2, 29252, Note_on_c, 0, 81, 80
2, 29253, Note_on_c, 0, 72, 0
2, 29255, Note_on_c, 0, 66, 80
2, 29311, Note_on_c, 0, 81, 0
2, 29314, Note_on_c, 0, 72, 80
2, 29331, Note_on_c, 0, 66, 0
2, 29372, Note_on_c, 0, 74, 80
2, 29378, Note_on_c, 0, 72, 0
2, 29424, Note_on_c, 0, 74, 0
2, 29428, Note_on_c, 0, 69, 80
2, 29477, Note_on_c, 0, 69, 0
2, 29486, Note_on_c, 0, 71, 80
2, 29487, Note_on_c, 0, 67, 80
2, 29537, Note_on_c, 0, 71, 0
2, 29559, Note_on_c, 0, 69, 80
2, 29615, Note_on_c, 0, 69, 0
2, 29617, Note_on_c, 0, 67, 0
2, 29618, Note_on_c, 0, 71, 80
2, 29675, Note_on_c, 0, 72, 80
2, 29676, Note_on_c, 0, 71, 0
2, 29735, Note_on_c, 0, 74, 80
2, 29738, Note_on_c, 0, 72, 0
2, 29801, Note_on_c, 0, 74, 0
2, 29802, Note_on_c, 0, 67, 80
2, 29857, Note_on_c, 0, 67, 0
2, 29859, Note_on_c, 0, 66, 80
2, 29914, Note_on_c, 0, 66, 0
2, 29916, Note_on_c, 0, 67, 80
2, 29978, Note_on_c, 0, 76, 80
2, 29979, Note_on_c, 0, 67, 0
2, 30032, Note_on_c, 0, 76, 0
2, 30036, Note_on_c, 0, 67, 80
2, 30092, Note_on_c, 0, 67, 0
2, 30096, Note_on_c, 0, 69, 80
2, 30152, Note_on_c, 0, 69, 0
2, 30153, Note_on_c, 0, 64, 80
2, 30220, Note_on_c, 0, 64, 0
2, 30221, Note_on_c, 0, 66, 80
2, 30283, Note_on_c, 0, 66, 0
2, 30286, Note_on_c, 0, 54, 80
2, 30287, Note_on_c, 0, 62, 80
2, 30341, Note_on_c, 0, 54, 0
2, 30345, Note_on_c, 0, 64, 80
2, 30346, Note_on_c, 0, 62, 0
2, 30346, Note_on_c, 0, 55, 80
2, 30404, Note_on_c, 0, 66, 80
2, 30405, Note_on_c, 0, 57, 80
2, 30406, Note_on_c, 0, 55, 0
2, 30407, Note_on_c, 0, 64, 0
2, 30462, Note_on_c, 0, 66, 0
2, 30464, Note_on_c, 0, 57, 0
2, 30466, Note_on_c, 0, 59, 80
2, 30468, Note_on_c, 0, 67, 80
2, 30523, Note_on_c, 0, 67, 0
2, 30526, Note_on_c, 0, 59, 0
2, 30526, Note_on_c, 0, 64, 80
2, 30528, Note_on_c, 0, 55, 80
2, 30581, Note_on_c, 0, 54, 80
2, 30582, Note_on_c, 0, 55, 0
2, 30584, Note_on_c, 0, 64, 0
2, 30584, Note_on_c, 0, 62, 80
2, 30627, Note_on_c, 0, 54, 0
2, 30631, Note_on_c, 0, 55, 80
2, 30635, Note_on_c, 0, 64, 80
2, 30636, Note_on_c, 0, 62, 0
2, 30692, Note_on_c, 0, 55, 0
2, 30695, Note_on_c, 0, 60, 80
2, 30697, Note_on_c, 0, 64, 0
2, 30697, Note_on_c, 0, 69, 80
2, 30756, Note_on_c, 0, 69, 0
2, 30759, Note_on_c, 0, 66, 80
2, 30761, Note_on_c, 0, 60, 0
2, 30761, Note_on_c, 0, 57, 80
2, 30817, Note_on_c, 0, 66, 0
2, 30819, Note_on_c, 0, 64, 80
2, 30820, Note_on_c, 0, 55, 80
2, 30822, Note_on_c, 0, 57, 0
2, 30871, Note_on_c, 0, 55, 0
2, 30873, Note_on_c, 0, 64, 0
2, 30874, Note_on_c, 0, 57, 80
2, 30874, Note_on_c, 0, 66, 80
2, 30904, Note_on_c, 0, 66, 0
2, 30933, Note_on_c, 0, 57, 0
2, 30933, Note_on_c, 0, 71, 80
2, 30936, Note_on_c, 0, 62, 80
2, 30975, Note_on_c, 0, 62, 0
2, 30995, Note_on_c, 0, 50, 80
2, 31002, Note_on_c, 0, 69, 80
2, 31008, Note_on_c, 0, 71, 0
2, 31053, Note_on_c, 0, 50, 0
2, 31054, Note_on_c, 0, 52, 80
2, 31062, Note_on_c, 0, 67, 80
2, 31066, Note_on_c, 0, 69, 0
2, 31113, Note_on_c, 0, 69, 80
2, 31114, Note_on_c, 0, 67, 0
2, 31115, Note_on_c, 0, 54, 80
2, 31117, Note_on_c, 0, 52, 0
2, 31174, Note_on_c, 0, 71, 80
2, 31175, Note_on_c, 0, 69, 0
2, 31176, Note_on_c, 0, 54, 0
2, 31178, Note_on_c, 0, 55, 80
2, 31233, Note_on_c, 0, 71, 0
2, 31234, Note_on_c, 0, 67, 80
2, 31286, Note_on_c, 0, 67, 0
2, 31292, Note_on_c, 0, 66, 80
2, 31352, Note_on_c, 0, 66, 0
2, 31352, Note_on_c, 0, 67, 80
2, 31412, Note_on_c, 0, 72, 80
2, 31415, Note_on_c, 0, 67, 0
2, 31477, Note_on_c, 0, 72, 0
2, 31477, Note_on_c, 0, 67, 80
2, 31530, Note_on_c, 0, 67, 0
2, 31535, Note_on_c, 0, 66, 80
2, 31590, Note_on_c, 0, 66, 0
2, 31593, Note_on_c, 0, 67, 80
2, 31654, Note_on_c, 0, 74, 80
2, 31656, Note_on_c, 0, 67, 0
2, 31663, Note_on_c, 0, 55, 0
2, 31716, Note_on_c, 0, 74, 0
2, 31721, Note_on_c, 0, 72, 80
2, 31722, Note_on_c, 0, 54, 80
2, 31779, Note_on_c, 0, 71, 80
2, 31780, Note_on_c, 0, 54, 0
2, 31781, Note_on_c, 0, 72, 0
2, 31782, Note_on_c, 0, 55, 80
2, 31841, Note_on_c, 0, 71, 0
2, 31841, Note_on_c, 0, 55, 0
2, 31841, Note_on_c, 0, 69, 80
2, 31842, Note_on_c, 0, 57, 80
2, 31907, Note_on_c, 0, 67, 80
2, 31908, Note_on_c, 0, 59, 80
2, 31909, Note_on_c, 0, 69, 0
2, 31910, Note_on_c, 0, 57, 0
2, 31970, Note_on_c, 0, 66, 80
2, 31971, Note_on_c, 0, 67, 0
2, 32028, Note_on_c, 0, 66, 0
2, 32032, Note_on_c, 0, 64, 80
2, 32091, Note_on_c, 0, 64, 0
2, 32091, Note_on_c, 0, 62, 80
2, 32149, Note_on_c, 0, 62, 0
2, 32149, Note_on_c, 0, 64, 80
2, 32208, Note_on_c, 0, 67, 80
2, 32211, Note_on_c, 0, 64, 0
2, 32222, Note_on_c, 0, 59, 0
2, 32266, Note_on_c, 0, 67, 0
2, 32266, Note_on_c, 0, 72, 80
2, 32270, Note_on_c, 0, 57, 80
2, 32325, Note_on_c, 0, 72, 0
2, 32329, Note_on_c, 0, 66, 80
2, 32386, Note_on_c, 0, 66, 0
2, 32388, Note_on_c, 0, 67, 80
2, 32454, Note_on_c, 0, 69, 80
2, 32456, Note_on_c, 0, 67, 0
2, 32511, Note_on_c, 0, 71, 80
2, 32513, Note_on_c, 0, 55, 80
2, 32514, Note_on_c, 0, 69, 0
2, 32520, Note_on_c, 0, 57, 0
2, 32575, Note_on_c, 0, 71, 0
2, 32576, Note_on_c, 0, 62, 80
2, 32634, Note_on_c, 0, 62, 0
2, 32637, Note_on_c, 0, 64, 80
2, 32693, Note_on_c, 0, 71, 80
2, 32694, Note_on_c, 0, 64, 0
2, 32695, Note_on_c, 0, 54, 80
2, 32700, Note_on_c, 0, 55, 0
2, 32752, Note_on_c, 0, 69, 80
2, 32753, Note_on_c, 0, 71, 0
2, 32753, Note_on_c, 0, 55, 80
2, 32760, Note_on_c, 0, 54, 0
2, 32804, Note_on_c, 0, 57, 80
2, 32807, Note_on_c, 0, 67, 80
2, 32810, Note_on_c, 0, 69, 0
2, 32810, Note_on_c, 0, 55, 0
2, 32824, Note_on_c, 0, 57, 0
2, 32861, Note_on_c, 0, 59, 80
2, 32868, Note_on_c, 0, 67, 0
2, 32868, Note_on_c, 0, 66, 80
2, 32894, Note_on_c, 0, 57, 80
2, 32895, Note_on_c, 0, 59, 0
2, 32902, Note_on_c, 0, 66, 0
2, 32923, Note_on_c, 0, 57, 0
2, 32924, Note_on_c, 0, 59, 80
2, 32944, Note_on_c, 0, 59, 0
2, 32944, Note_on_c, 0, 57, 80
2, 32945, Note_on_c, 0, 76, 80
2, 32958, Note_on_c, 0, 59, 80
2, 32963, Note_on_c, 0, 57, 0
2, 32976, Note_on_c, 0, 57, 80
2, 32992, Note_on_c, 0, 74, 80
2, 32993, Note_on_c, 0, 76, 0
2, 32994, Note_on_c, 0, 59, 0
2, 33021, Note_on_c, 0, 55, 80
2, 33024, Note_on_c, 0, 57, 0
2, 33048, Note_on_c, 0, 72, 80
2, 33050, Note_on_c, 0, 74, 0
2, 33050, Note_on_c, 0, 57, 80
2, 33053, Note_on_c, 0, 55, 0
2, 33095, Note_on_c, 0, 55, 80
2, 33097, Note_on_c, 0, 57, 0
2, 33102, Note_on_c, 0, 72, 0
2, 33105, Note_on_c, 0, 71, 80
2, 33132, Note_on_c, 0, 71, 0
2, 33172, Note_on_c, 0, 67, 80
2, 33222, Note_on_c, 0, 67, 0
2, 33228, Note_on_c, 0, 66, 80
2, 33277, Note_on_c, 0, 55, 0
2, 33284, Note_on_c, 0, 66, 0
2, 33288, Note_on_c, 0, 67, 80
2, 33340, Note_on_c, 0, 67, 0
2, 33346, Note_on_c, 0, 57, 80
2, 33350, Note_on_c, 0, 72, 80
2, 33416, Note_on_c, 0, 67, 80
2, 33418, Note_on_c, 0, 72, 0
2, 33432, Note_on_c, 0, 57, 0
2, 33470, Note_on_c, 0, 67, 0
2, 33473, Note_on_c, 0, 66, 80
2, 33523, Note_on_c, 0, 66, 0
2, 33526, Note_on_c, 0, 67, 80
2, 33585, Note_on_c, 0, 74, 80
2, 33586, Note_on_c, 0, 59, 80
2, 33589, Note_on_c, 0, 67, 0
2, 33653, Note_on_c, 0, 74, 0
2, 33656, Note_on_c, 0, 67, 80
2, 33673, Note_on_c, 0, 59, 0
2, 33703, Note_on_c, 0, 67, 0
2, 33709, Note_on_c, 0, 66, 80
2, 33755, Note_on_c, 0, 66, 0
2, 33760, Note_on_c, 0, 67, 80
2, 33812, Note_on_c, 0, 67, 0
2, 33817, Note_on_c, 0, 76, 80
2, 33822, Note_on_c, 0, 60, 80
2, 33880, Note_on_c, 0, 76, 0
2, 33885, Note_on_c, 0, 72, 80
2, 33896, Note_on_c, 0, 60, 0
2, 33939, Note_on_c, 0, 72, 0
2, 33942, Note_on_c, 0, 71, 80
2, 33988, Note_on_c, 0, 71, 0
2, 33995, Note_on_c, 0, 72, 80
2, 34033, Note_on_c, 0, 72, 0
2, 34058, Note_on_c, 0, 59, 80
2, 34059, Note_on_c, 0, 67, 80
2, 34061, Note_on_c, 0, 76, 80
2, 34124, Note_on_c, 0, 76, 0
2, 34125, Note_on_c, 0, 72, 80
2, 34144, Note_on_c, 0, 67, 0
2, 34147, Note_on_c, 0, 59, 0
2, 34186, Note_on_c, 0, 72, 0
2, 34187, Note_on_c, 0, 71, 80
2, 34234, Note_on_c, 0, 71, 0
2, 34241, Note_on_c, 0, 72, 80
2, 34297, Note_on_c, 0, 72, 0
2, 34301, Note_on_c, 0, 78, 80
2, 34302, Note_on_c, 0, 66, 80
2, 34303, Note_on_c, 0, 57, 80
2, 34362, Note_on_c, 0, 78, 0
2, 34365, Note_on_c, 0, 72, 80
2, 34395, Note_on_c, 0, 57, 0
2, 34409, Note_on_c, 0, 66, 0
2, 34420, Note_on_c, 0, 72, 0
2, 34420, Note_on_c, 0, 71, 80
2, 34479, Note_on_c, 0, 72, 80
2, 34483, Note_on_c, 0, 71, 0
2, 34534, Note_on_c, 0, 72, 0
2, 34537, Note_on_c, 0, 79, 80
2, 34542, Note_on_c, 0, 71, 80
2, 34605, Note_on_c, 0, 79, 0
2, 34607, Note_on_c, 0, 74, 80
2, 34657, Note_on_c, 0, 71, 0
2, 34665, Note_on_c, 0, 74, 0
2, 34666, Note_on_c, 0, 72, 80
2, 34718, Note_on_c, 0, 72, 0
2, 34722, Note_on_c, 0, 74, 80
2, 34779, Note_on_c, 0, 74, 0
2, 34781, Note_on_c, 0, 67, 80
2, 34784, Note_on_c, 0, 76, 80
2, 34843, Note_on_c, 0, 72, 80
2, 34853, Note_on_c, 0, 76, 0
2, 34858, Note_on_c, 0, 67, 0
2, 34900, Note_on_c, 0, 72, 0
2, 34903, Note_on_c, 0, 71, 80
2, 34956, Note_on_c, 0, 71, 0
2, 34958, Note_on_c, 0, 72, 80
2, 35015, Note_on_c, 0, 72, 0
2, 35016, Note_on_c, 0, 66, 80
2, 35017, Note_on_c, 0, 74, 80
2, 35081, Note_on_c, 0, 72, 80
2, 35082, Note_on_c, 0, 74, 0
2, 35135, Note_on_c, 0, 72, 0
2, 35135, Note_on_c, 0, 71, 80
2, 35136, Note_on_c, 0, 66, 0
2, 35190, Note_on_c, 0, 71, 0
2, 35192, Note_on_c, 0, 72, 80
2, 35213, Note_on_c, 0, 72, 0
2, 35255, Note_on_c, 0, 74, 80
2, 35256, Note_on_c, 0, 67, 80
2, 35361, Note_on_c, 0, 74, 0
2, 35363, Note_on_c, 0, 67, 0
2, 36060, Note_on_c, 0, 67, 80
2, 36118, Note_on_c, 0, 69, 80
2, 36124, Note_on_c, 0, 67, 0
2, 36169, Note_on_c, 0, 69, 0
2, 36172, Note_on_c, 0, 71, 80
2, 36225, Note_on_c, 0, 71, 0
2, 36227, Note_on_c, 0, 72, 80
2, 36291, Note_on_c, 0, 67, 80
2, 36294, Note_on_c, 0, 72, 0
2, 36343, Note_on_c, 0, 67, 0
2, 36347, Note_on_c, 0, 66, 80
2, 36399, Note_on_c, 0, 66, 0
2, 36400, Note_on_c, 0, 67, 80
2, 36457, Note_on_c, 0, 74, 80
2, 36461, Note_on_c, 0, 67, 0
2, 36513, Note_on_c, 0, 74, 0
2, 36513, Note_on_c, 0, 65, 80
2, 36566, Note_on_c, 0, 65, 0
2, 36569, Note_on_c, 0, 67, 80
2, 36626, Note_on_c, 0, 62, 80
2, 36627, Note_on_c, 0, 67, 0
2, 36691, Note_on_c, 0, 64, 80
2, 36693, Note_on_c, 0, 62, 0
2, 37011, Note_on_c, 0, 64, 0
2, 37496, Note_on_c, 0, 69, 80
2, 37549, Note_on_c, 0, 69, 0
2, 37550, Note_on_c, 0, 71, 80
2, 37603, Note_on_c, 0, 71, 0
2, 37604, Note_on_c, 0, 72, 80
2, 37662, Note_on_c, 0, 74, 80
2, 37666, Note_on_c, 0, 72, 0
2, 37724, Note_on_c, 0, 69, 80
2, 37726, Note_on_c, 0, 74, 0
2, 37777, Note_on_c, 0, 69, 0
2, 37781, Note_on_c, 0, 68, 80
2, 37835, Note_on_c, 0, 68, 0
2, 37836, Note_on_c, 0, 69, 80
2, 37892, Note_on_c, 0, 76, 80
2, 37898, Note_on_c, 0, 69, 0
2, 37946, Note_on_c, 0, 76, 0
2, 37950, Note_on_c, 0, 67, 80
2, 38010, Note_on_c, 0, 67, 0
2, 38013, Note_on_c, 0, 69, 80
2, 38067, Note_on_c, 0, 64, 80
2, 38070, Note_on_c, 0, 69, 0
2, 38116, Note_on_c, 0, 64, 0
2, 38133, Note_on_c, 0, 66, 80
2, 38196, Note_on_c, 0, 67, 80
2, 38197, Note_on_c, 0, 66, 0
2, 38252, Note_on_c, 0, 67, 0
2, 38257, Note_on_c, 0, 66, 80
2, 38312, Note_on_c, 0, 66, 0
2, 38317, Note_on_c, 0, 67, 80
2, 38375, Note_on_c, 0, 67, 0
2, 38378, Note_on_c, 0, 69, 80
2, 38694, Note_on_c, 0, 72, 80
2, 38697, Note_on_c, 0, 69, 0
2, 38756, Note_on_c, 0, 72, 0
2, 38756, Note_on_c, 0, 71, 80
2, 38817, Note_on_c, 0, 71, 0
2, 38817, Note_on_c, 0, 69, 80
2, 38883, Note_on_c, 0, 67, 80
2, 38884, Note_on_c, 0, 69, 0
2, 39113, Note_on_c, 0, 67, 0
2, 39229, Note_on_c, 0, 79, 80
2, 39306, Note_on_c, 0, 79, 0
2, 39355, Note_on_c, 0, 78, 80
2, 39415, Note_on_c, 0, 76, 80
2, 39418, Note_on_c, 0, 78, 0
2, 39478, Note_on_c, 0, 75, 80
2, 39481, Note_on_c, 0, 76, 0
2, 39534, Note_on_c, 0, 75, 0
2, 39535, Note_on_c, 0, 76, 80
2, 39601, Note_on_c, 0, 75, 80
2, 39613, Note_on_c, 0, 76, 0
2, 39657, Note_on_c, 0, 73, 80
2, 39695, Note_on_c, 0, 73, 0
2, 39713, Note_on_c, 0, 71, 80
2, 39735, Note_on_c, 0, 75, 0
2, 39756, Note_on_c, 0, 71, 0
2, 39763, Note_on_c, 0, 73, 80
2, 39765, Note_on_c, 0, 76, 80
2, 39791, Note_on_c, 0, 73, 0
2, 39793, Note_on_c, 0, 76, 0
2, 39824, Note_on_c, 0, 78, 80
2, 39827, Note_on_c, 0, 75, 80
2, 39884, Note_on_c, 0, 75, 0
2, 39888, Note_on_c, 0, 71, 80
2, 39942, Note_on_c, 0, 70, 80
2, 39946, Note_on_c, 0, 71, 0
2, 39969, Note_on_c, 0, 78, 0
2, 39994, Note_on_c, 0, 70, 0
2, 39997, Note_on_c, 0, 71, 80
2, 40042, Note_on_c, 0, 71, 0
2, 40053, Note_on_c, 0, 79, 80
2, 40054, Note_on_c, 0, 76, 80
2, 40116, Note_on_c, 0, 71, 80
2, 40117, Note_on_c, 0, 76, 0
2, 40170, Note_on_c, 0, 70, 80
2, 40181, Note_on_c, 0, 71, 0
2, 40195, Note_on_c, 0, 79, 0
2, 40216, Note_on_c, 0, 70, 0
2, 40220, Note_on_c, 0, 71, 80
2, 40272, Note_on_c, 0, 71, 0
2, 40297, Note_on_c, 0, 81, 80
2, 40305, Note_on_c, 0, 78, 80
2, 40353, Note_on_c, 0, 78, 0
2, 40363, Note_on_c, 0, 76, 80
2, 40396, Note_on_c, 0, 76, 0
2, 40418, Note_on_c, 0, 75, 80
2, 40470, Note_on_c, 0, 75, 0
2, 40474, Note_on_c, 0, 73, 80
2, 40532, Note_on_c, 0, 73, 0
2, 40535, Note_on_c, 0, 71, 80
2, 40542, Note_on_c, 0, 81, 0
2, 40596, Note_on_c, 0, 84, 80
2, 40648, Note_on_c, 0, 84, 0
2, 40653, Note_on_c, 0, 83, 80
2, 40660, Note_on_c, 0, 71, 0
2, 40712, Note_on_c, 0, 81, 80
2, 40713, Note_on_c, 0, 83, 0
2, 40767, Note_on_c, 0, 81, 0
2, 40770, Note_on_c, 0, 79, 80
2, 40771, Note_on_c, 0, 71, 80
2, 40827, Note_on_c, 0, 79, 0
2, 40832, Note_on_c, 0, 78, 80
2, 40889, Note_on_c, 0, 78, 0
2, 40892, Note_on_c, 0, 76, 80
2, 40949, Note_on_c, 0, 76, 0
2, 40949, Note_on_c, 0, 74, 80
2, 41009, Note_on_c, 0, 74, 0
2, 41014, Note_on_c, 0, 72, 80
2, 41042, Note_on_c, 0, 71, 0
2, 41078, Note_on_c, 0, 64, 80
2, 41138, Note_on_c, 0, 66, 80
2, 41141, Note_on_c, 0, 64, 0
2, 41195, Note_on_c, 0, 66, 0
2, 41197, Note_on_c, 0, 67, 80
2, 41206, Note_on_c, 0, 72, 0
2, 41258, Note_on_c, 0, 69, 80
2, 41261, Note_on_c, 0, 67, 0
2, 41318, Note_on_c, 0, 71, 80
2, 41330, Note_on_c, 0, 69, 0
2, 41376, Note_on_c, 0, 71, 0
2, 41378, Note_on_c, 0, 72, 80
2, 41435, Note_on_c, 0, 64, 80
2, 41495, Note_on_c, 0, 64, 0
2, 41496, Note_on_c, 0, 63, 80
2, 41505, Note_on_c, 0, 72, 0
2, 41563, Note_on_c, 0, 72, 80
2, 41623, Note_on_c, 0, 72, 0
2, 41623, Note_on_c, 0, 71, 80
2, 41671, Note_on_c, 0, 71, 0
2, 41677, Note_on_c, 0, 69, 80
2, 41680, Note_on_c, 0, 63, 0
2, 41736, Note_on_c, 0, 69, 0
2, 41736, Note_on_c, 0, 67, 80
2, 41795, Note_on_c, 0, 64, 80
2, 41853, Note_on_c, 0, 67, 0
2, 41855, Note_on_c, 0, 69, 80
2, 41856, Note_on_c, 0, 64, 0
2, 41856, Note_on_c, 0, 63, 80
2, 41915, Note_on_c, 0, 63, 0
2, 41916, Note_on_c, 0, 64, 80
2, 41974, Note_on_c, 0, 69, 0
2, 41978, Note_on_c, 0, 71, 80
2, 41980, Note_on_c, 0, 64, 0
2, 42037, Note_on_c, 0, 64, 80
2, 42097, Note_on_c, 0, 71, 0
2, 42097, Note_on_c, 0, 72, 80
2, 42104, Note_on_c, 0, 64, 0
2, 42156, Note_on_c, 0, 64, 80
2, 42205, Note_on_c, 0, 64, 0
2, 42209, Note_on_c, 0, 72, 0
2, 42219, Note_on_c, 0, 59, 80
2, 42284, Note_on_c, 0, 64, 80
2, 42326, Note_on_c, 0, 64, 0
2, 42341, Note_on_c, 0, 66, 80
2, 42342, Note_on_c, 0, 57, 80
2, 42343, Note_on_c, 0, 59, 0
2, 42394, Note_on_c, 0, 57, 0
2, 42395, Note_on_c, 0, 66, 0
2, 42398, Note_on_c, 0, 63, 80
2, 42460, Note_on_c, 0, 63, 0
2, 42461, Note_on_c, 0, 64, 80
2, 42462, Note_on_c, 0, 55, 80
2, 42491, Note_on_c, 0, 64, 0
2, 42537, Note_on_c, 0, 71, 80
2, 42551, Note_on_c, 0, 55, 0
2, 42592, Note_on_c, 0, 73, 80
2, 42593, Note_on_c, 0, 71, 0
2, 42651, Note_on_c, 0, 73, 0
2, 42653, Note_on_c, 0, 75, 80
2, 42709, Note_on_c, 0, 75, 0
2, 42710, Note_on_c, 0, 76, 80
2, 42769, Note_on_c, 0, 76, 0
2, 42770, Note_on_c, 0, 71, 80
2, 42831, Note_on_c, 0, 69, 80
2, 42834, Note_on_c, 0, 71, 0
2, 42883, Note_on_c, 0, 71, 80
2, 42885, Note_on_c, 0, 69, 0
2, 42943, Note_on_c, 0, 71, 0
2, 42944, Note_on_c, 0, 78, 80
2, 42945, Note_on_c, 0, 75, 80
2, 43011, Note_on_c, 0, 75, 0
2, 43014, Note_on_c, 0, 71, 80
2, 43029, Note_on_c, 0, 78, 0
2, 43078, Note_on_c, 0, 69, 80
2, 43092, Note_on_c, 0, 71, 0
2, 43130, Note_on_c, 0, 71, 80
2, 43137, Note_on_c, 0, 69, 0
2, 43150, Note_on_c, 0, 71, 0
2, 43196, Note_on_c, 0, 76, 80
2, 43196, Note_on_c, 0, 79, 80
2, 43257, Note_on_c, 0, 78, 80
2, 43258, Note_on_c, 0, 79, 0
2, 43262, Note_on_c, 0, 76, 0
2, 43316, Note_on_c, 0, 78, 0
2, 43316, Note_on_c, 0, 76, 80
2, 43374, Note_on_c, 0, 74, 80
2, 43375, Note_on_c, 0, 76, 0
2, 43432, Note_on_c, 0, 72, 80
2, 43434, Note_on_c, 0, 74, 0
2, 43493, Note_on_c, 0, 71, 80
2, 43496, Note_on_c, 0, 72, 0
2, 43550, Note_on_c, 0, 71, 0
2, 43552, Note_on_c, 0, 69, 80
2, 43609, Note_on_c, 0, 69, 0
2, 43610, Note_on_c, 0, 67, 80
2, 43624, Note_on_c, 0, 67, 0
2, 43673, Note_on_c, 0, 72, 80
2, 43730, Note_on_c, 0, 76, 80
2, 43731, Note_on_c, 0, 72, 0
2, 43785, Note_on_c, 0, 74, 80
2, 43789, Note_on_c, 0, 76, 0
2, 43845, Note_on_c, 0, 74, 0
2, 43845, Note_on_c, 0, 77, 80
2, 43904, Note_on_c, 0, 77, 0
2, 43905, Note_on_c, 0, 76, 80
2, 43968, Note_on_c, 0, 76, 0
2, 43971, Note_on_c, 0, 81, 80
2, 44032, Note_on_c, 0, 79, 80
2, 44036, Note_on_c, 0, 81, 0
2, 44091, Note_on_c, 0, 77, 80
2, 44092, Note_on_c, 0, 79, 0
2, 44150, Note_on_c, 0, 76, 80
2, 44151, Note_on_c, 0, 77, 0
2, 44207, Note_on_c, 0, 74, 80
2, 44210, Note_on_c, 0, 76, 0
2, 44265, Note_on_c, 0, 72, 80
2, 44270, Note_on_c, 0, 74, 0
2, 44316, Note_on_c, 0, 72, 0
2, 44318, Note_on_c, 0, 71, 80
2, 44380, Note_on_c, 0, 69, 80
2, 44382, Note_on_c, 0, 71, 0
2, 44450, Note_on_c, 0, 72, 80
2, 44455, Note_on_c, 0, 69, 0
2, 44507, Note_on_c, 0, 76, 80
2, 44508, Note_on_c, 0, 72, 0
2, 44560, Note_on_c, 0, 76, 0
2, 44562, Note_on_c, 0, 67, 80
2, 44616, Note_on_c, 0, 67, 0
2, 44626, Note_on_c, 0, 66, 80
2, 44686, Note_on_c, 0, 62, 80
2, 44735, Note_on_c, 0, 66, 0
2, 44741, Note_on_c, 0, 64, 80
2, 44742, Note_on_c, 0, 62, 0
2, 44794, Note_on_c, 0, 64, 0
2, 44799, Note_on_c, 0, 66, 80
2, 44852, Note_on_c, 0, 66, 0
2, 44856, Note_on_c, 0, 67, 80
2, 44921, Note_on_c, 0, 64, 80
2, 44929, Note_on_c, 0, 67, 0
2, 44980, Note_on_c, 0, 62, 80
2, 44981, Note_on_c, 0, 64, 0
2, 45033, Note_on_c, 0, 62, 0
2, 45034, Note_on_c, 0, 64, 80
2, 45089, Note_on_c, 0, 64, 0
2, 45096, Note_on_c, 0, 65, 80
2, 45156, Note_on_c, 0, 65, 0
2, 45159, Note_on_c, 0, 62, 80
2, 45218, Note_on_c, 0, 60, 80
2, 45223, Note_on_c, 0, 62, 0
2, 45275, Note_on_c, 0, 60, 0
2, 45277, Note_on_c, 0, 62, 80
2, 45343, Note_on_c, 0, 64, 80
2, 45344, Note_on_c, 0, 62, 0
2, 45408, Note_on_c, 0, 67, 80
2, 45463, Note_on_c, 0, 69, 80
2, 45464, Note_on_c, 0, 67, 0
2, 45517, Note_on_c, 0, 71, 80
2, 45519, Note_on_c, 0, 69, 0
2, 45577, Note_on_c, 0, 72, 80
2, 45578, Note_on_c, 0, 71, 0
2, 45638, Note_on_c, 0, 72, 0
2, 45640, Note_on_c, 0, 69, 80
2, 45699, Note_on_c, 0, 71, 80
2, 45703, Note_on_c, 0, 69, 0
2, 45758, Note_on_c, 0, 71, 0
2, 45759, Note_on_c, 0, 72, 80
2, 45784, Note_on_c, 0, 64, 0
2, 45817, Note_on_c, 0, 74, 80
2, 45820, Note_on_c, 0, 72, 0
2, 45881, Note_on_c, 0, 69, 80
2, 45939, Note_on_c, 0, 67, 80
2, 45943, Note_on_c, 0, 69, 0
2, 45999, Note_on_c, 0, 69, 80
2, 46000, Note_on_c, 0, 67, 0
2, 46054, Note_on_c, 0, 69, 0
2, 46061, Note_on_c, 0, 71, 80
2, 46121, Note_on_c, 0, 69, 80
2, 46125, Note_on_c, 0, 71, 0
2, 46181, Note_on_c, 0, 69, 0
2, 46185, Note_on_c, 0, 72, 80
2, 46246, Note_on_c, 0, 71, 80
2, 46249, Note_on_c, 0, 72, 0
2, 46304, Note_on_c, 0, 69, 80
2, 46308, Note_on_c, 0, 71, 0
2, 46367, Note_on_c, 0, 67, 80
2, 46369, Note_on_c, 0, 69, 0
2, 46428, Note_on_c, 0, 67, 0
2, 46429, Note_on_c, 0, 66, 80
2, 46488, Note_on_c, 0, 66, 0
2, 46489, Note_on_c, 0, 67, 80
2, 46545, Note_on_c, 0, 67, 0
2, 46548, Note_on_c, 0, 69, 80
2, 46608, Note_on_c, 0, 69, 0
2, 46608, Note_on_c, 0, 71, 80
2, 46668, Note_on_c, 0, 71, 0
2, 46669, Note_on_c, 0, 72, 80
2, 46720, Note_on_c, 0, 72, 0
2, 46726, Note_on_c, 0, 66, 80
2, 46788, Note_on_c, 0, 66, 0
2, 46798, Note_on_c, 0, 67, 80
2, 46897, Note_on_c, 0, 74, 0
2, 46908, Note_on_c, 0, 76, 80
2, 46994, Note_on_c, 0, 67, 0
2, 47024, Note_on_c, 0, 76, 0
2, 47025, Note_on_c, 0, 74, 80
2, 47025, Note_on_c, 0, 78, 80
2, 47095, Note_on_c, 0, 78, 0
2, 47152, Note_on_c, 0, 79, 80
2, 47266, Note_on_c, 0, 72, 80
2, 47268, Note_on_c, 0, 74, 0
2, 47389, Note_on_c, 0, 78, 80
2, 47393, Note_on_c, 0, 79, 0
2, 47514, Note_on_c, 0, 71, 80
2, 47516, Note_on_c, 0, 79, 80
2, 47517, Note_on_c, 0, 78, 0
2, 47532, Note_on_c, 0, 72, 0
2, 47575, Note_on_c, 0, 74, 80
2, 47589, Note_on_c, 0, 79, 0
2, 47638, Note_on_c, 0, 74, 0
2, 47638, Note_on_c, 0, 76, 80
2, 47697, Note_on_c, 0, 77, 80
2, 47702, Note_on_c, 0, 76, 0
2, 47756, Note_on_c, 0, 76, 80
2, 47759, Note_on_c, 0, 77, 0
2, 47782, Note_on_c, 0, 71, 0
2, 47817, Note_on_c, 0, 71, 80
2, 47872, Note_on_c, 0, 71, 0
2, 47874, Note_on_c, 0, 72, 80
2, 47930, Note_on_c, 0, 69, 80
2, 47932, Note_on_c, 0, 72, 0
2, 47969, Note_on_c, 0, 69, 0
2, 47989, Note_on_c, 0, 66, 80
2, 47996, Note_on_c, 0, 76, 0
2, 48048, Note_on_c, 0, 76, 80
2, 48113, Note_on_c, 0, 74, 80
2, 48117, Note_on_c, 0, 76, 0
2, 48171, Note_on_c, 0, 72, 80
2, 48178, Note_on_c, 0, 74, 0
2, 48229, Note_on_c, 0, 71, 80
2, 48233, Note_on_c, 0, 72, 0
2, 48290, Note_on_c, 0, 66, 0
2, 48292, Note_on_c, 0, 62, 80
2, 48350, Note_on_c, 0, 64, 80
2, 48355, Note_on_c, 0, 62, 0
2, 48409, Note_on_c, 0, 59, 80
2, 48411, Note_on_c, 0, 64, 0
2, 48466, Note_on_c, 0, 71, 0
2, 48471, Note_on_c, 0, 60, 80
2, 48473, Note_on_c, 0, 59, 0
2, 48532, Note_on_c, 0, 71, 80
2, 48591, Note_on_c, 0, 69, 80
2, 48593, Note_on_c, 0, 71, 0
2, 48652, Note_on_c, 0, 67, 80
2, 48656, Note_on_c, 0, 69, 0
2, 48714, Note_on_c, 0, 66, 80
2, 48715, Note_on_c, 0, 67, 0
2, 48740, Note_on_c, 0, 60, 0
2, 48777, Note_on_c, 0, 64, 80
2, 48835, Note_on_c, 0, 62, 80
2, 48837, Note_on_c, 0, 64, 0
2, 48893, Note_on_c, 0, 60, 80
2, 48899, Note_on_c, 0, 66, 0
2, 48899, Note_on_c, 0, 62, 0
2, 48961, Note_on_c, 0, 67, 80
2, 48962, Note_on_c, 0, 59, 80
2, 48964, Note_on_c, 0, 60, 0
2, 49021, Note_on_c, 0, 57, 80
2, 49024, Note_on_c, 0, 59, 0
2, 49078, Note_on_c, 0, 59, 80
2, 49079, Note_on_c, 0, 57, 0
2, 49084, Note_on_c, 0, 67, 0
2, 49138, Note_on_c, 0, 59, 0
2, 49139, Note_on_c, 0, 67, 80
2, 49194, Note_on_c, 0, 67, 0
2, 49199, Note_on_c, 0, 60, 80
2, 49255, Note_on_c, 0, 59, 80
2, 49256, Note_on_c, 0, 60, 0
2, 49313, Note_on_c, 0, 60, 80
2, 49319, Note_on_c, 0, 59, 0
2, 49367, Note_on_c, 0, 60, 0
2, 49374, Note_on_c, 0, 67, 80
2, 49428, Note_on_c, 0, 67, 0
2, 49431, Note_on_c, 0, 62, 80
2, 49488, Note_on_c, 0, 60, 80
2, 49490, Note_on_c, 0, 62, 0
2, 49553, Note_on_c, 0, 62, 80
2, 49560, Note_on_c, 0, 60, 0
2, 49605, Note_on_c, 0, 62, 0
2, 49615, Note_on_c, 0, 65, 80
2, 49643, Note_on_c, 0, 65, 0
2, 49676, Note_on_c, 0, 64, 80
2, 49678, Note_on_c, 0, 67, 80
2, 49739, Note_on_c, 0, 62, 80
2, 49741, Note_on_c, 0, 64, 0
2, 49796, Note_on_c, 0, 64, 80
2, 49797, Note_on_c, 0, 62, 0
2, 49856, Note_on_c, 0, 60, 80
2, 49862, Note_on_c, 0, 64, 0
2, 49915, Note_on_c, 0, 60, 0
2, 49921, Note_on_c, 0, 67, 0
2, 49921, Note_on_c, 0, 69, 80
2, 49921, Note_on_c, 0, 54, 80
2, 49969, Note_on_c, 0, 54, 0
2, 49986, Note_on_c, 0, 57, 80
2, 50041, Note_on_c, 0, 57, 0
2, 50042, Note_on_c, 0, 59, 80
2, 50091, Note_on_c, 0, 59, 0
2, 50095, Note_on_c, 0, 60, 80
2, 50155, Note_on_c, 0, 60, 0
2, 50157, Note_on_c, 0, 62, 80
2, 50160, Note_on_c, 0, 71, 80
2, 50162, Note_on_c, 0, 69, 0
2, 50218, Note_on_c, 0, 56, 80
2, 50220, Note_on_c, 0, 62, 0
2, 50278, Note_on_c, 0, 56, 0
2, 50279, Note_on_c, 0, 54, 80
2, 50335, Note_on_c, 0, 54, 0
2, 50337, Note_on_c, 0, 56, 80
2, 50394, Note_on_c, 0, 56, 0
2, 50395, Note_on_c, 0, 57, 80
2, 50396, Note_on_c, 0, 71, 0
2, 50396, Note_on_c, 0, 72, 80
2, 50459, Note_on_c, 0, 57, 0
2, 50459, Note_on_c, 0, 60, 80
2, 50519, Note_on_c, 0, 60, 0
2, 50520, Note_on_c, 0, 62, 80
2, 50577, Note_on_c, 0, 62, 0
2, 50579, Note_on_c, 0, 64, 80
2, 50636, Note_on_c, 0, 65, 80
2, 50638, Note_on_c, 0, 64, 0
2, 50696, Note_on_c, 0, 64, 80
2, 50698, Note_on_c, 0, 65, 0
2, 50756, Note_on_c, 0, 65, 80
2, 50759, Note_on_c, 0, 64, 0
2, 50814, Note_on_c, 0, 60, 80
2, 50816, Note_on_c, 0, 65, 0
2, 50874, Note_on_c, 0, 62, 80
2, 50877, Note_on_c, 0, 60, 0
2, 50877, Note_on_c, 0, 71, 80
2, 50882, Note_on_c, 0, 72, 0
2, 50932, Note_on_c, 0, 62, 0
2, 50933, Note_on_c, 0, 65, 80
2, 50994, Note_on_c, 0, 65, 0
2, 50995, Note_on_c, 0, 64, 80
2, 51055, Note_on_c, 0, 64, 0
2, 51056, Note_on_c, 0, 62, 80
2, 51114, Note_on_c, 0, 62, 0
2, 51117, Note_on_c, 0, 60, 80
2, 51118, Note_on_c, 0, 69, 80
2, 51123, Note_on_c, 0, 71, 0
2, 51175, Note_on_c, 0, 59, 80
2, 51176, Note_on_c, 0, 60, 0
2, 51236, Note_on_c, 0, 59, 0
2, 51236, Note_on_c, 0, 57, 80
2, 51293, Note_on_c, 0, 57, 0
2, 51295, Note_on_c, 0, 55, 80
2, 51353, Note_on_c, 0, 53, 80
2, 51356, Note_on_c, 0, 55, 0
2, 51412, Note_on_c, 0, 52, 80
2, 51417, Note_on_c, 0, 53, 0
2, 51465, Note_on_c, 0, 50, 80
2, 51469, Note_on_c, 0, 52, 0
2, 51523, Note_on_c, 0, 50, 0
2, 51524, Note_on_c, 0, 48, 80
2, 51565, Note_on_c, 0, 69, 0
2, 51575, Note_on_c, 0, 48, 0
2, 51579, Note_on_c, 0, 68, 80
2, 51582, Note_on_c, 0, 47, 80
2, 51643, Note_on_c, 0, 47, 0
2, 51646, Note_on_c, 0, 53, 80
2, 51685, Note_on_c, 0, 53, 0
2, 51695, Note_on_c, 0, 52, 80
2, 51748, Note_on_c, 0, 50, 80
2, 51751, Note_on_c, 0, 52, 0
2, 51792, Note_on_c, 0, 50, 0
2, 51810, Note_on_c, 0, 48, 80
2, 51813, Note_on_c, 0, 68, 0
2, 51815, Note_on_c, 0, 69, 80
2, 51870, Note_on_c, 0, 48, 0
2, 51870, Note_on_c, 0, 69, 0
2, 51874, Note_on_c, 0, 72, 80
2, 51934, Note_on_c, 0, 72, 0
2, 51936, Note_on_c, 0, 76, 80
2, 51937, Note_on_c, 0, 45, 80
2, 51995, Note_on_c, 0, 76, 0
2, 51996, Note_on_c, 0, 81, 80
2, 52021, Note_on_c, 0, 45, 0
2, 52055, Note_on_c, 0, 81, 0
2, 52056, Note_on_c, 0, 74, 80
2, 52124, Note_on_c, 0, 73, 80
2, 52130, Note_on_c, 0, 74, 0
2, 52179, Note_on_c, 0, 73, 0
2, 52187, Note_on_c, 0, 74, 80
2, 52242, Note_on_c, 0, 74, 0
2, 52243, Note_on_c, 0, 81, 80
2, 52303, Note_on_c, 0, 81, 0
2, 52305, Note_on_c, 0, 76, 80
2, 52370, Note_on_c, 0, 74, 80
2, 52371, Note_on_c, 0, 76, 0
2, 52427, Note_on_c, 0, 76, 80
2, 52432, Note_on_c, 0, 74, 0
2, 52483, Note_on_c, 0, 79, 80
2, 52485, Note_on_c, 0, 76, 0
2, 52551, Note_on_c, 0, 77, 80
2, 52552, Note_on_c, 0, 57, 80
2, 52556, Note_on_c, 0, 79, 0
2, 52616, Note_on_c, 0, 76, 80
2, 52617, Note_on_c, 0, 77, 0
2, 52678, Note_on_c, 0, 77, 80
2, 52679, Note_on_c, 0, 76, 0
2, 52736, Note_on_c, 0, 74, 80
2, 52738, Note_on_c, 0, 77, 0
2, 52798, Note_on_c, 0, 74, 0
2, 52800, Note_on_c, 0, 79, 80
2, 52803, Note_on_c, 0, 59, 80
2, 52811, Note_on_c, 0, 57, 0
2, 52864, Note_on_c, 0, 71, 80
2, 52866, Note_on_c, 0, 79, 0
2, 52921, Note_on_c, 0, 72, 80
2, 52923, Note_on_c, 0, 71, 0
2, 52978, Note_on_c, 0, 74, 80
2, 52983, Note_on_c, 0, 72, 0
2, 53038, Note_on_c, 0, 74, 0
2, 53040, Note_on_c, 0, 76, 80
2, 53043, Note_on_c, 0, 60, 80
2, 53051, Note_on_c, 0, 59, 0
2, 53098, Note_on_c, 0, 69, 80
2, 53099, Note_on_c, 0, 76, 0
2, 53156, Note_on_c, 0, 69, 0
2, 53157, Note_on_c, 0, 67, 80
2, 53214, Note_on_c, 0, 69, 80
2, 53217, Note_on_c, 0, 67, 0
2, 53273, Note_on_c, 0, 69, 0
2, 53273, Note_on_c, 0, 71, 80
2, 53278, Note_on_c, 0, 62, 80
2, 53282, Note_on_c, 0, 60, 0
2, 53326, Note_on_c, 0, 71, 0
2, 53340, Note_on_c, 0, 74, 80
2, 53403, Note_on_c, 0, 76, 80
2, 53405, Note_on_c, 0, 74, 0
2, 53432, Note_on_c, 0, 76, 0
2, 53458, Note_on_c, 0, 78, 80
2, 53518, Note_on_c, 0, 78, 0
2, 53522, Note_on_c, 0, 79, 80
2, 53582, Note_on_c, 0, 78, 80
2, 53584, Note_on_c, 0, 79, 0
2, 53641, Note_on_c, 0, 79, 80
2, 53645, Note_on_c, 0, 78, 0
2, 53698, Note_on_c, 0, 79, 0
2, 53698, Note_on_c, 0, 67, 80
2, 53731, Note_on_c, 0, 67, 0
2, 53765, Note_on_c, 0, 69, 80
2, 53766, Note_on_c, 0, 60, 80
2, 53770, Note_on_c, 0, 62, 0
2, 53826, Note_on_c, 0, 79, 80
2, 53829, Note_on_c, 0, 69, 0
2, 53881, Note_on_c, 0, 79, 0
2, 53884, Note_on_c, 0, 78, 80
2, 53939, Note_on_c, 0, 78, 0
2, 53940, Note_on_c, 0, 76, 80
2, 53991, Note_on_c, 0, 60, 0
2, 54002, Note_on_c, 0, 76, 0
2, 54004, Note_on_c, 0, 75, 80
2, 54005, Note_on_c, 0, 59, 80
2, 54066, Note_on_c, 0, 75, 0
2, 54066, Note_on_c, 0, 73, 80
2, 54128, Note_on_c, 0, 71, 80
2, 54130, Note_on_c, 0, 73, 0
2, 54185, Note_on_c, 0, 69, 80
2, 54188, Note_on_c, 0, 71, 0
2, 54241, Note_on_c, 0, 69, 0
2, 54242, Note_on_c, 0, 67, 80
2, 54301, Note_on_c, 0, 66, 80
2, 54304, Note_on_c, 0, 67, 0
2, 54360, Note_on_c, 0, 66, 0
2, 54361, Note_on_c, 0, 64, 80
2, 54418, Note_on_c, 0, 62, 80
2, 54422, Note_on_c, 0, 64, 0
2, 54467, Note_on_c, 0, 62, 0
2, 54480, Note_on_c, 0, 57, 80
2, 54482, Note_on_c, 0, 61, 80
2, 54485, Note_on_c, 0, 59, 0
2, 54545, Note_on_c, 0, 67, 80
2, 54606, Note_on_c, 0, 66, 80
2, 54609, Note_on_c, 0, 67, 0
2, 54661, Note_on_c, 0, 66, 0
2, 54661, Note_on_c, 0, 64, 80
2, 54702, Note_on_c, 0, 64, 0
2, 54705, Note_on_c, 0, 61, 0
2, 54718, Note_on_c, 0, 63, 80
2, 54719, Note_on_c, 0, 59, 80
2, 54781, Note_on_c, 0, 61, 80
2, 54782, Note_on_c, 0, 63, 0
2, 54836, Note_on_c, 0, 63, 80
2, 54837, Note_on_c, 0, 61, 0
2, 54889, Note_on_c, 0, 63, 0
2, 54889, Note_on_c, 0, 71, 80
2, 54947, Note_on_c, 0, 55, 80
2, 54951, Note_on_c, 0, 64, 80
2, 54952, Note_on_c, 0, 71, 0
2, 54966, Note_on_c, 0, 57, 0
2, 55009, Note_on_c, 0, 63, 80
2, 55012, Note_on_c, 0, 64, 0
2, 55064, Note_on_c, 0, 64, 80
2, 55065, Note_on_c, 0, 63, 0
2, 55113, Note_on_c, 0, 64, 0
2, 55117, Note_on_c, 0, 71, 80
2, 55174, Note_on_c, 0, 66, 80
2, 55175, Note_on_c, 0, 71, 0
2, 55181, Note_on_c, 0, 54, 80
2, 55187, Note_on_c, 0, 55, 0
2, 55236, Note_on_c, 0, 66, 0
2, 55237, Note_on_c, 0, 64, 80
2, 55298, Note_on_c, 0, 66, 80
2, 55305, Note_on_c, 0, 64, 0
2, 55354, Note_on_c, 0, 54, 0
2, 55357, Note_on_c, 0, 69, 80
2, 55361, Note_on_c, 0, 66, 0
2, 55420, Note_on_c, 0, 67, 80
2, 55429, Note_on_c, 0, 69, 0
2, 55478, Note_on_c, 0, 67, 0
2, 55480, Note_on_c, 0, 64, 80
2, 55541, Note_on_c, 0, 62, 80
2, 55546, Note_on_c, 0, 64, 0
2, 55595, Note_on_c, 0, 64, 80
2, 55596, Note_on_c, 0, 62, 0
2, 55649, Note_on_c, 0, 59, 0
2, 55651, Note_on_c, 0, 64, 0
2, 55657, Note_on_c, 0, 69, 80
2, 55659, Note_on_c, 0, 60, 80
2, 55719, Note_on_c, 0, 69, 0
2, 55719, Note_on_c, 0, 65, 80
2, 55777, Note_on_c, 0, 64, 80
2, 55779, Note_on_c, 0, 65, 0
2, 55836, Note_on_c, 0, 65, 80
2, 55837, Note_on_c, 0, 64, 0
2, 55896, Note_on_c, 0, 71, 80
2, 55897, Note_on_c, 0, 62, 80
2, 55900, Note_on_c, 0, 65, 0
2, 55901, Note_on_c, 0, 60, 0
2, 55959, Note_on_c, 0, 65, 80
2, 55962, Note_on_c, 0, 71, 0
2, 56020, Note_on_c, 0, 64, 80
2, 56023, Note_on_c, 0, 65, 0
2, 56072, Note_on_c, 0, 62, 0
2, 56076, Note_on_c, 0, 65, 80
2, 56085, Note_on_c, 0, 64, 0
2, 56099, Note_on_c, 0, 65, 0
2, 56141, Note_on_c, 0, 72, 80
2, 56143, Note_on_c, 0, 64, 80
2, 56182, Note_on_c, 0, 72, 0
2, 56204, Note_on_c, 0, 76, 80
2, 56254, Note_on_c, 0, 64, 0
2, 56257, Note_on_c, 0, 76, 0
2, 56258, Note_on_c, 0, 74, 80
2, 56315, Note_on_c, 0, 76, 80
2, 56318, Note_on_c, 0, 74, 0
2, 56377, Note_on_c, 0, 66, 80
2, 56378, Note_on_c, 0, 76, 0
2, 56440, Note_on_c, 0, 64, 80
2, 56446, Note_on_c, 0, 66, 0
2, 56496, Note_on_c, 0, 66, 80
2, 56499, Note_on_c, 0, 64, 0
2, 56548, Note_on_c, 0, 66, 0
2, 56551, Note_on_c, 0, 76, 80
2, 56605, Note_on_c, 0, 76, 0
2, 56607, Note_on_c, 0, 68, 80
2, 56668, Note_on_c, 0, 66, 80
2, 56669, Note_on_c, 0, 68, 0
2, 56736, Note_on_c, 0, 68, 80
2, 56742, Note_on_c, 0, 66, 0
2, 56790, Note_on_c, 0, 68, 0
2, 56791, Note_on_c, 0, 74, 80
2, 56853, Note_on_c, 0, 74, 0
2, 56859, Note_on_c, 0, 72, 80
2, 56860, Note_on_c, 0, 69, 80
2, 56926, Note_on_c, 0, 71, 80
2, 56928, Note_on_c, 0, 72, 0
2, 56987, Note_on_c, 0, 72, 80
2, 56994, Note_on_c, 0, 71, 0
2, 57019, Note_on_c, 0, 72, 0
2, 57045, Note_on_c, 0, 81, 80
2, 57073, Note_on_c, 0, 81, 0
2, 57106, Note_on_c, 0, 74, 80
2, 57169, Note_on_c, 0, 72, 80
2, 57173, Note_on_c, 0, 74, 0
2, 57226, Note_on_c, 0, 74, 80
2, 57234, Note_on_c, 0, 72, 0
2, 57258, Note_on_c, 0, 74, 0
2, 57286, Note_on_c, 0, 81, 80
2, 57316, Note_on_c, 0, 81, 0
2, 57351, Note_on_c, 0, 76, 80
2, 57413, Note_on_c, 0, 74, 80
2, 57419, Note_on_c, 0, 76, 0
2, 57472, Note_on_c, 0, 76, 80
2, 57482, Note_on_c, 0, 74, 0
2, 57508, Note_on_c, 0, 76, 0
2, 57531, Note_on_c, 0, 79, 80
2, 57550, Note_on_c, 0, 79, 0
2, 57593, Note_on_c, 0, 77, 80
2, 57642, Note_on_c, 0, 69, 0
2, 57652, Note_on_c, 0, 72, 80
2, 57711, Note_on_c, 0, 71, 80
2, 57714, Note_on_c, 0, 72, 0
2, 57770, Note_on_c, 0, 69, 80
2, 57772, Note_on_c, 0, 71, 0
2, 57805, Note_on_c, 0, 69, 0
2, 57832, Note_on_c, 0, 74, 80
2, 57892, Note_on_c, 0, 76, 80
2, 57895, Note_on_c, 0, 74, 0
2, 57901, Note_on_c, 0, 77, 0
2, 57957, Note_on_c, 0, 74, 80
2, 57960, Note_on_c, 0, 76, 0
2, 58016, Note_on_c, 0, 72, 80
2, 58017, Note_on_c, 0, 74, 0
2, 58075, Note_on_c, 0, 71, 80
2, 58077, Note_on_c, 0, 72, 0
2, 58134, Note_on_c, 0, 69, 80
2, 58140, Note_on_c, 0, 71, 0
2, 58194, Note_on_c, 0, 67, 80
2, 58196, Note_on_c, 0, 69, 0
2, 58250, Note_on_c, 0, 65, 80
2, 58251, Note_on_c, 0, 67, 0
2, 58286, Note_on_c, 0, 65, 0
2, 58316, Note_on_c, 0, 64, 80
2, 58376, Note_on_c, 0, 62, 80
2, 58377, Note_on_c, 0, 64, 0
2, 58435, Note_on_c, 0, 64, 80
2, 58439, Note_on_c, 0, 62, 0
2, 58495, Note_on_c, 0, 68, 80
2, 58497, Note_on_c, 0, 64, 0
2, 58543, Note_on_c, 0, 68, 0
2, 58553, Note_on_c, 0, 66, 80
2, 58609, Note_on_c, 0, 66, 0
2, 58612, Note_on_c, 0, 64, 80
2, 58670, Note_on_c, 0, 66, 80
2, 58680, Note_on_c, 0, 64, 0
2, 58729, Note_on_c, 0, 69, 80
2, 58731, Note_on_c, 0, 66, 0
2, 58764, Note_on_c, 0, 69, 0
2, 58788, Note_on_c, 0, 68, 80
2, 58849, Note_on_c, 0, 68, 0
2, 58850, Note_on_c, 0, 66, 80
2, 58907, Note_on_c, 0, 68, 80
2, 58916, Note_on_c, 0, 66, 0
2, 58966, Note_on_c, 0, 71, 80
2, 58967, Note_on_c, 0, 68, 0
2, 59029, Note_on_c, 0, 69, 80
2, 59034, Note_on_c, 0, 71, 0
2, 59333, Note_on_c, 0, 60, 80
2, 59393, Note_on_c, 0, 60, 0
2, 59394, Note_on_c, 0, 62, 80
2, 59450, Note_on_c, 0, 64, 80
2, 59453, Note_on_c, 0, 62, 0
2, 59479, Note_on_c, 0, 64, 0
2, 59514, Note_on_c, 0, 65, 80
2, 59517, Note_on_c, 0, 69, 0
2, 59572, Note_on_c, 0, 69, 80
2, 59578, Note_on_c, 0, 65, 0
2, 59632, Note_on_c, 0, 71, 80
2, 59633, Note_on_c, 0, 69, 0
2, 59633, Note_on_c, 0, 64, 80
2, 59690, Note_on_c, 0, 72, 80
2, 59691, Note_on_c, 0, 71, 0
2, 59741, Note_on_c, 0, 64, 0
2, 59753, Note_on_c, 0, 68, 80
2, 59758, Note_on_c, 0, 74, 80
2, 59764, Note_on_c, 0, 72, 0
2, 59812, Note_on_c, 0, 71, 80
2, 59814, Note_on_c, 0, 74, 0
2, 59871, Note_on_c, 0, 69, 80
2, 59872, Note_on_c, 0, 71, 0
2, 59872, Note_on_c, 0, 72, 80
2, 59873, Note_on_c, 0, 68, 0
2, 59929, Note_on_c, 0, 74, 80
2, 59932, Note_on_c, 0, 72, 0
2, 59988, Note_on_c, 0, 74, 0
2, 59989, Note_on_c, 0, 76, 80
2, 60047, Note_on_c, 0, 71, 80
2, 60052, Note_on_c, 0, 69, 0
2, 60104, Note_on_c, 0, 71, 0
2, 60106, Note_on_c, 0, 72, 80
2, 60163, Note_on_c, 0, 69, 80
2, 60164, Note_on_c, 0, 72, 0
2, 60221, Note_on_c, 0, 69, 0
2, 60224, Note_on_c, 0, 68, 80
2, 60233, Note_on_c, 0, 76, 0
2, 60280, Note_on_c, 0, 77, 80
2, 60306, Note_on_c, 0, 77, 0
2, 60342, Note_on_c, 0, 76, 80
2, 60397, Note_on_c, 0, 76, 0
2, 60397, Note_on_c, 0, 74, 80
2, 60415, Note_on_c, 0, 68, 0
2, 60434, Note_on_c, 0, 74, 0
2, 60462, Note_on_c, 0, 69, 80
2, 60463, Note_on_c, 0, 72, 80
2, 60498, Note_on_c, 0, 69, 0
2, 60530, Note_on_c, 0, 69, 80
2, 60537, Note_on_c, 0, 72, 0
2, 60582, Note_on_c, 0, 69, 0
2, 60588, Note_on_c, 0, 68, 80
2, 60646, Note_on_c, 0, 68, 0
2, 60646, Note_on_c, 0, 69, 80
2, 60678, Note_on_c, 0, 69, 0
2, 60707, Note_on_c, 0, 74, 80
2, 60767, Note_on_c, 0, 69, 80
2, 60768, Note_on_c, 0, 74, 0
2, 60817, Note_on_c, 0, 69, 0
2, 60827, Note_on_c, 0, 68, 80
2, 60879, Note_on_c, 0, 68, 0
2, 60880, Note_on_c, 0, 69, 80
2, 60943, Note_on_c, 0, 76, 80
2, 60945, Note_on_c, 0, 69, 0
2, 61004, Note_on_c, 0, 76, 0
2, 61007, Note_on_c, 0, 67, 80
2, 61062, Note_on_c, 0, 67, 0
2, 61065, Note_on_c, 0, 69, 80
2, 61118, Note_on_c, 0, 69, 0
2, 61119, Note_on_c, 0, 64, 80
2, 61144, Note_on_c, 0, 64, 0
2, 61185, Note_on_c, 0, 62, 80
2, 61186, Note_on_c, 0, 65, 80
2, 61249, Note_on_c, 0, 65, 0
2, 61250, Note_on_c, 0, 64, 80
2, 61308, Note_on_c, 0, 64, 0
2, 61310, Note_on_c, 0, 65, 80
2, 61329, Note_on_c, 0, 65, 0
2, 61364, Note_on_c, 0, 74, 80
2, 61394, Note_on_c, 0, 62, 0
2, 61405, Note_on_c, 0, 74, 0
2, 61427, Note_on_c, 0, 64, 80
2, 61428, Note_on_c, 0, 68, 80
2, 61489, Note_on_c, 0, 68, 0
2, 61490, Note_on_c, 0, 66, 80
2, 61547, Note_on_c, 0, 68, 80
2, 61549, Note_on_c, 0, 66, 0
2, 61575, Note_on_c, 0, 68, 0
2, 61608, Note_on_c, 0, 74, 80
2, 61641, Note_on_c, 0, 64, 0
2, 61652, Note_on_c, 0, 74, 0
2, 61674, Note_on_c, 0, 65, 80
2, 61675, Note_on_c, 0, 69, 80
2, 61734, Note_on_c, 0, 68, 80
2, 61737, Note_on_c, 0, 69, 0
2, 61784, Note_on_c, 0, 68, 0
2, 61791, Note_on_c, 0, 69, 80
2, 61844, Note_on_c, 0, 69, 0
2, 61850, Note_on_c, 0, 74, 80
2, 61882, Note_on_c, 0, 74, 0
2, 61884, Note_on_c, 0, 65, 0
2, 61915, Note_on_c, 0, 64, 80
2, 61916, Note_on_c, 0, 68, 80
2, 61975, Note_on_c, 0, 66, 80
2, 61976, Note_on_c, 0, 68, 0
2, 62034, Note_on_c, 0, 68, 80
2, 62039, Note_on_c, 0, 66, 0
2, 62094, Note_on_c, 0, 68, 0
2, 62096, Note_on_c, 0, 71, 80
2, 62154, Note_on_c, 0, 69, 80
2, 62157, Note_on_c, 0, 71, 0
2, 62209, Note_on_c, 0, 68, 80
2, 62210, Note_on_c, 0, 69, 0
2, 62271, Note_on_c, 0, 69, 80
2, 62274, Note_on_c, 0, 68, 0
2, 62328, Note_on_c, 0, 72, 80
2, 62329, Note_on_c, 0, 69, 0
2, 62359, Note_on_c, 0, 72, 0
2, 62389, Note_on_c, 0, 71, 80
2, 62445, Note_on_c, 0, 69, 80
2, 62447, Note_on_c, 0, 71, 0
2, 62501, Note_on_c, 0, 71, 80
2, 62503, Note_on_c, 0, 69, 0
2, 62559, Note_on_c, 0, 74, 80
2, 62562, Note_on_c, 0, 71, 0
2, 62619, Note_on_c, 0, 72, 80
2, 62624, Note_on_c, 0, 74, 0
2, 62660, Note_on_c, 0, 72, 0
2, 62687, Note_on_c, 0, 69, 80
2, 62743, Note_on_c, 0, 68, 80
2, 62744, Note_on_c, 0, 69, 0
2, 62796, Note_on_c, 0, 68, 0
2, 62799, Note_on_c, 0, 69, 80
2, 62858, Note_on_c, 0, 69, 0
2, 62859, Note_on_c, 0, 74, 80
2, 62916, Note_on_c, 0, 74, 0
2, 62926, Note_on_c, 0, 69, 80
2, 62984, Note_on_c, 0, 69, 0
2, 62984, Note_on_c, 0, 68, 80
2, 63037, Note_on_c, 0, 68, 0
2, 63043, Note_on_c, 0, 69, 80
2, 63099, Note_on_c, 0, 69, 0
2, 63099, Note_on_c, 0, 76, 80
2, 63142, Note_on_c, 0, 76, 0
2, 63159, Note_on_c, 0, 69, 80
2, 63214, Note_on_c, 0, 69, 0
2, 63216, Note_on_c, 0, 68, 80
2, 63272, Note_on_c, 0, 68, 0
2, 63272, Note_on_c, 0, 69, 80
2, 63279, Note_on_c, 0, 64, 0
2, 63339, Note_on_c, 0, 65, 80
2, 63340, Note_on_c, 0, 69, 0
2, 63403, Note_on_c, 0, 68, 80
2, 63462, Note_on_c, 0, 69, 80
2, 63463, Note_on_c, 0, 68, 0
2, 63518, Note_on_c, 0, 71, 80
2, 63519, Note_on_c, 0, 69, 0
2, 63529, Note_on_c, 0, 65, 0
2, 63581, Note_on_c, 0, 64, 80
2, 63583, Note_on_c, 0, 72, 80
2, 63588, Note_on_c, 0, 71, 0
2, 63644, Note_on_c, 0, 71, 80
2, 63648, Note_on_c, 0, 72, 0
2, 63705, Note_on_c, 0, 72, 80
2, 63710, Note_on_c, 0, 71, 0
2, 63764, Note_on_c, 0, 69, 80
2, 63765, Note_on_c, 0, 72, 0
2, 63788, Note_on_c, 0, 64, 0
2, 63824, Note_on_c, 0, 62, 80
2, 63827, Note_on_c, 0, 69, 0
2, 63883, Note_on_c, 0, 69, 80
2, 63941, Note_on_c, 0, 71, 80
2, 63945, Note_on_c, 0, 69, 0
2, 64002, Note_on_c, 0, 68, 80
2, 64005, Note_on_c, 0, 71, 0
2, 64014, Note_on_c, 0, 68, 0
2, 64063, Note_on_c, 0, 69, 80
2, 64064, Note_on_c, 0, 62, 0
2, 64122, Note_on_c, 0, 59, 80
2, 64159, Note_on_c, 0, 59, 0
2, 64193, Note_on_c, 0, 61, 80
2, 64204, Note_on_c, 0, 69, 0
2, 64249, Note_on_c, 0, 69, 80
2, 64309, Note_on_c, 0, 61, 0
2, 64309, Note_on_c, 0, 62, 80
2, 64311, Note_on_c, 0, 69, 0
2, 64371, Note_on_c, 0, 66, 80
2, 64409, Note_on_c, 0, 66, 0
2, 64433, Note_on_c, 0, 71, 80
2, 64440, Note_on_c, 0, 62, 0
2, 64488, Note_on_c, 0, 62, 80
2, 64525, Note_on_c, 0, 62, 0
2, 64551, Note_on_c, 0, 64, 80
2, 64554, Note_on_c, 0, 71, 0
2, 64611, Note_on_c, 0, 67, 80
2, 64655, Note_on_c, 0, 67, 0
2, 64672, Note_on_c, 0, 74, 80
2, 64732, Note_on_c, 0, 73, 80
2, 64733, Note_on_c, 0, 74, 0
2, 64764, Note_on_c, 0, 73, 0
2, 64789, Note_on_c, 0, 64, 0
2, 64798, Note_on_c, 0, 74, 80
2, 64798, Note_on_c, 0, 66, 80
2, 65044, Note_on_c, 0, 66, 0
2, 65093, Note_on_c, 0, 74, 0
2, 65093, Note_on_c, 0, 72, 80
2, 65158, Note_on_c, 0, 74, 80
2, 65159, Note_on_c, 0, 72, 0
2, 65214, Note_on_c, 0, 76, 80
2, 65221, Note_on_c, 0, 74, 0
2, 65276, Note_on_c, 0, 78, 80
2, 65277, Note_on_c, 0, 76, 0
2, 65277, Note_on_c, 0, 72, 80
2, 65338, Note_on_c, 0, 79, 80
2, 65342, Note_on_c, 0, 78, 0
2, 65400, Note_on_c, 0, 79, 0
2, 65401, Note_on_c, 0, 76, 80
2, 65459, Note_on_c, 0, 78, 80
2, 65465, Note_on_c, 0, 76, 0
2, 65482, Note_on_c, 0, 78, 0
2, 65522, Note_on_c, 0, 79, 80
2, 65574, Note_on_c, 0, 79, 0
2, 65574, Note_on_c, 0, 78, 80
2, 65596, Note_on_c, 0, 72, 0
2, 65627, Note_on_c, 0, 78, 0
2, 65632, Note_on_c, 0, 79, 80
2, 65633, Note_on_c, 0, 71, 80
2, 65691, Note_on_c, 0, 83, 80
2, 65692, Note_on_c, 0, 79, 0
2, 65700, Note_on_c, 0, 71, 0
2, 65751, Note_on_c, 0, 72, 80
2, 65813, Note_on_c, 0, 78, 80
2, 65815, Note_on_c, 0, 83, 0
2, 65855, Note_on_c, 0, 78, 0
2, 65874, Note_on_c, 0, 79, 80
2, 65909, Note_on_c, 0, 79, 0
2, 65935, Note_on_c, 0, 83, 80
2, 65956, Note_on_c, 0, 72, 0
2, 65993, Note_on_c, 0, 74, 80
2, 66054, Note_on_c, 0, 76, 80
2, 66055, Note_on_c, 0, 83, 0
2, 66085, Note_on_c, 0, 76, 0
2, 66112, Note_on_c, 0, 78, 80
2, 66152, Note_on_c, 0, 78, 0
2, 66171, Note_on_c, 0, 81, 80
2, 66201, Note_on_c, 0, 81, 0
2, 66235, Note_on_c, 0, 76, 80
2, 66237, Note_on_c, 0, 79, 80
2, 66243, Note_on_c, 0, 74, 0
2, 66472, Note_on_c, 0, 76, 0
2, 66535, Note_on_c, 0, 78, 80
2, 66539, Note_on_c, 0, 79, 0
2, 66598, Note_on_c, 0, 76, 80
2, 66601, Note_on_c, 0, 78, 0
2, 66659, Note_on_c, 0, 74, 80
2, 66661, Note_on_c, 0, 76, 0
2, 66714, Note_on_c, 0, 72, 80
2, 66719, Note_on_c, 0, 74, 0
2, 66773, Note_on_c, 0, 71, 80
2, 66781, Note_on_c, 0, 72, 0
2, 66828, Note_on_c, 0, 69, 80
2, 66831, Note_on_c, 0, 71, 0
2, 66886, Note_on_c, 0, 67, 80
2, 66887, Note_on_c, 0, 69, 0
2, 66946, Note_on_c, 0, 67, 0
2, 66950, Note_on_c, 0, 66, 80
2, 67009, Note_on_c, 0, 69, 80
2, 67070, Note_on_c, 0, 74, 80
2, 67072, Note_on_c, 0, 69, 0
2, 67076, Note_on_c, 0, 66, 0
2, 67125, Note_on_c, 0, 66, 80
2, 67155, Note_on_c, 0, 66, 0
2, 67189, Note_on_c, 0, 67, 80
2, 67193, Note_on_c, 0, 74, 0
2, 67254, Note_on_c, 0, 71, 80
2, 67312, Note_on_c, 0, 74, 80
2, 67314, Note_on_c, 0, 71, 0
2, 67368, Note_on_c, 0, 79, 80
2, 67369, Note_on_c, 0, 74, 0
2, 67406, Note_on_c, 0, 79, 0
2, 67432, Note_on_c, 0, 77, 80
2, 67486, Note_on_c, 0, 76, 80
2, 67489, Note_on_c, 0, 77, 0
2, 67546, Note_on_c, 0, 77, 80
2, 67553, Note_on_c, 0, 76, 0
2, 67610, Note_on_c, 0, 74, 80
2, 67613, Note_on_c, 0, 77, 0
2, 67676, Note_on_c, 0, 76, 80
2, 67682, Note_on_c, 0, 74, 0
2, 67901, Note_on_c, 0, 67, 0
2, 67903, Note_on_c, 0, 76, 0
2, 69120, Note_on_c, 0, 76, 80
2, 69122, Note_on_c, 0, 79, 80
2, 69174, Note_on_c, 0, 76, 0
2, 69175, Note_on_c, 0, 74, 80
2, 69230, Note_on_c, 0, 74, 0
2, 69232, Note_on_c, 0, 73, 80
2, 69292, Note_on_c, 0, 73, 0
2, 69294, Note_on_c, 0, 74, 80
2, 69316, Note_on_c, 0, 74, 0
2, 69354, Note_on_c, 0, 78, 80
2, 69355, Note_on_c, 0, 74, 80
2, 69357, Note_on_c, 0, 79, 0
2, 69381, Note_on_c, 0, 74, 0
2, 69381, Note_on_c, 0, 73, 80
2, 69400, Note_on_c, 0, 73, 0
2, 69404, Note_on_c, 0, 74, 80
2, 69426, Note_on_c, 0, 74, 0
2, 69426, Note_on_c, 0, 73, 80
2, 69443, Note_on_c, 0, 73, 0
2, 69448, Note_on_c, 0, 74, 80
2, 69468, Note_on_c, 0, 74, 0
2, 69471, Note_on_c, 0, 73, 80
2, 69485, Note_on_c, 0, 73, 0
2, 69489, Note_on_c, 0, 74, 80
2, 69506, Note_on_c, 0, 74, 0
2, 69507, Note_on_c, 0, 73, 80
2, 69540, Note_on_c, 0, 73, 0
2, 69543, Note_on_c, 0, 74, 80
2, 69562, Note_on_c, 0, 74, 0
2, 69565, Note_on_c, 0, 73, 80
2, 69581, Note_on_c, 0, 73, 0
2, 69584, Note_on_c, 0, 74, 80
2, 69600, Note_on_c, 0, 74, 0
2, 69602, Note_on_c, 0, 73, 80
2, 69700, Note_on_c, 0, 73, 0
2, 69701, Note_on_c, 0, 71, 80
2, 69756, Note_on_c, 0, 73, 80
2, 69759, Note_on_c, 0, 71, 0
2, 69824, Note_on_c, 0, 71, 80
2, 69825, Note_on_c, 0, 73, 0
2, 69886, Note_on_c, 0, 71, 0
2, 69886, Note_on_c, 0, 72, 80
2, 69948, Note_on_c, 0, 71, 80
2, 69949, Note_on_c, 0, 72, 0
2, 70003, Note_on_c, 0, 69, 80
2, 70005, Note_on_c, 0, 71, 0
2, 70064, Note_on_c, 0, 69, 0
2, 70065, Note_on_c, 0, 67, 80
2, 70130, Note_on_c, 0, 71, 80
2, 70134, Note_on_c, 0, 78, 0
2, 70189, Note_on_c, 0, 71, 0
2, 70190, Note_on_c, 0, 76, 80
2, 70195, Note_on_c, 0, 67, 0
2, 70246, Note_on_c, 0, 67, 80
2, 70265, Note_on_c, 0, 67, 0
2, 70316, Note_on_c, 0, 66, 80
2, 70372, Note_on_c, 0, 76, 0
2, 70377, Note_on_c, 0, 69, 80
2, 70435, Note_on_c, 0, 76, 80
2, 70437, Note_on_c, 0, 69, 0
2, 70497, Note_on_c, 0, 75, 80
2, 70498, Note_on_c, 0, 76, 0
2, 70562, Note_on_c, 0, 75, 0
2, 70565, Note_on_c, 0, 76, 80
2, 70572, Note_on_c, 0, 66, 0
2, 70623, Note_on_c, 0, 71, 80
2, 70685, Note_on_c, 0, 69, 80
2, 70687, Note_on_c, 0, 71, 0
2, 70745, Note_on_c, 0, 67, 80
2, 70747, Note_on_c, 0, 69, 0
2, 70808, Note_on_c, 0, 66, 80
2, 70809, Note_on_c, 0, 67, 0
2, 70864, Note_on_c, 0, 75, 80
2, 70866, Note_on_c, 0, 76, 0
2, 70926, Note_on_c, 0, 76, 80
2, 70930, Note_on_c, 0, 75, 0
2, 70933, Note_on_c, 0, 66, 0
2, 70982, Note_on_c, 0, 66, 80
2, 71015, Note_on_c, 0, 66, 0
2, 71038, Note_on_c, 0, 76, 0
2, 71042, Note_on_c, 0, 68, 80
2, 71100, Note_on_c, 0, 76, 80
2, 71157, Note_on_c, 0, 74, 80
2, 71158, Note_on_c, 0, 76, 0
2, 71159, Note_on_c, 0, 68, 0
2, 71212, Note_on_c, 0, 68, 80
2, 71231, Note_on_c, 0, 68, 0
2, 71279, Note_on_c, 0, 69, 80
2, 71338, Note_on_c, 0, 74, 0
2, 71341, Note_on_c, 0, 71, 80
2, 71401, Note_on_c, 0, 72, 80
2, 71402, Note_on_c, 0, 71, 0
2, 71460, Note_on_c, 0, 69, 0
2, 71460, Note_on_c, 0, 67, 80
2, 71485, Note_on_c, 0, 67, 0
2, 71521, Note_on_c, 0, 66, 80
2, 71529, Note_on_c, 0, 72, 0
2, 71585, Note_on_c, 0, 72, 80
2, 71640, Note_on_c, 0, 66, 0
2, 71641, Note_on_c, 0, 64, 80
2, 71643, Note_on_c, 0, 72, 0
2, 71706, Note_on_c, 0, 72, 80
2, 71766, Note_on_c, 0, 63, 80
2, 71771, Note_on_c, 0, 72, 0
2, 71772, Note_on_c, 0, 64, 0
2, 71823, Note_on_c, 0, 72, 80
2, 71884, Note_on_c, 0, 71, 80
2, 71886, Note_on_c, 0, 72, 0
2, 71939, Note_on_c, 0, 71, 0
2, 71940, Note_on_c, 0, 69, 80
2, 71969, Note_on_c, 0, 63, 0
2, 72003, Note_on_c, 0, 67, 80
2, 72005, Note_on_c, 0, 69, 0
2, 72059, Note_on_c, 0, 63, 80
2, 72119, Note_on_c, 0, 63, 0
2, 72120, Note_on_c, 0, 64, 80
2, 72174, Note_on_c, 0, 59, 80
2, 72179, Note_on_c, 0, 64, 0
2, 72234, Note_on_c, 0, 59, 0
2, 72236, Note_on_c, 0, 60, 80
2, 72238, Note_on_c, 0, 67, 0
2, 72294, Note_on_c, 0, 67, 80
2, 72354, Note_on_c, 0, 66, 80
2, 72360, Note_on_c, 0, 67, 0
2, 72411, Note_on_c, 0, 66, 0
2, 72411, Note_on_c, 0, 64, 80
2, 72471, Note_on_c, 0, 62, 80
2, 72473, Note_on_c, 0, 64, 0
2, 72477, Note_on_c, 0, 60, 0
2, 72530, Note_on_c, 0, 60, 80
2, 72590, Note_on_c, 0, 59, 80
2, 72591, Note_on_c, 0, 60, 0
2, 72654, Note_on_c, 0, 57, 80
2, 72658, Note_on_c, 0, 59, 0
2, 72709, Note_on_c, 0, 62, 0
2, 72714, Note_on_c, 0, 56, 80
2, 72718, Note_on_c, 0, 57, 0
2, 72773, Note_on_c, 0, 64, 80
2, 72830, Note_on_c, 0, 66, 80
2, 72836, Note_on_c, 0, 64, 0
2, 72886, Note_on_c, 0, 68, 80
2, 72888, Note_on_c, 0, 66, 0
2, 72944, Note_on_c, 0, 69, 80
2, 72945, Note_on_c, 0, 68, 0
2, 73002, Note_on_c, 0, 62, 80
2, 73003, Note_on_c, 0, 69, 0
2, 73063, Note_on_c, 0, 61, 80
2, 73065, Note_on_c, 0, 62, 0
2, 73112, Note_on_c, 0, 61, 0
2, 73113, Note_on_c, 0, 62, 80
2, 73165, Note_on_c, 0, 62, 0
2, 73171, Note_on_c, 0, 71, 80
2, 73229, Note_on_c, 0, 62, 80
2, 73261, Note_on_c, 0, 56, 0
2, 73274, Note_on_c, 0, 62, 0
2, 73290, Note_on_c, 0, 64, 80
2, 73336, Note_on_c, 0, 64, 0
2, 73343, Note_on_c, 0, 59, 80
2, 73378, Note_on_c, 0, 71, 0
2, 73379, Note_on_c, 0, 59, 0
2, 73414, Note_on_c, 0, 61, 80
2, 73416, Note_on_c, 0, 69, 80
2, 73472, Note_on_c, 0, 61, 0
2, 73473, Note_on_c, 0, 57, 80
2, 73532, Note_on_c, 0, 59, 80
2, 73536, Note_on_c, 0, 57, 0
2, 73569, Note_on_c, 0, 69, 0
2, 73584, Note_on_c, 0, 61, 80
2, 73590, Note_on_c, 0, 59, 0
2, 73648, Note_on_c, 0, 61, 0
2, 73652, Note_on_c, 0, 62, 80
2, 73652, Note_on_c, 0, 71, 80
2, 73711, Note_on_c, 0, 55, 80
2, 73713, Note_on_c, 0, 62, 0
2, 73768, Note_on_c, 0, 54, 80
2, 73771, Note_on_c, 0, 55, 0
2, 73772, Note_on_c, 0, 71, 0
2, 73823, Note_on_c, 0, 55, 80
2, 73826, Note_on_c, 0, 54, 0
2, 73884, Note_on_c, 0, 55, 0
2, 73887, Note_on_c, 0, 64, 80
2, 73890, Note_on_c, 0, 73, 80
2, 73944, Note_on_c, 0, 55, 80
2, 73946, Note_on_c, 0, 64, 0
2, 74003, Note_on_c, 0, 55, 0
2, 74004, Note_on_c, 0, 57, 80
2, 74015, Note_on_c, 0, 73, 0
2, 74059, Note_on_c, 0, 57, 0
2, 74062, Note_on_c, 0, 52, 80
2, 74125, Note_on_c, 0, 54, 80
2, 74128, Note_on_c, 0, 74, 80
2, 74140, Note_on_c, 0, 52, 0
2, 74154, Note_on_c, 0, 54, 0
2, 74195, Note_on_c, 0, 62, 80
2, 74255, Note_on_c, 0, 64, 80
2, 74256, Note_on_c, 0, 62, 0
2, 74311, Note_on_c, 0, 66, 80
2, 74312, Note_on_c, 0, 64, 0
2, 74371, Note_on_c, 0, 66, 0
2, 74371, Note_on_c, 0, 67, 80
2, 74426, Note_on_c, 0, 60, 80
2, 74428, Note_on_c, 0, 67, 0
2, 74491, Note_on_c, 0, 59, 80
2, 74494, Note_on_c, 0, 60, 0
2, 74544, Note_on_c, 0, 59, 0
2, 74547, Note_on_c, 0, 60, 80
2, 74612, Note_on_c, 0, 69, 80
2, 74615, Note_on_c, 0, 60, 0
2, 74679, Note_on_c, 0, 60, 80
2, 74682, Note_on_c, 0, 69, 0
2, 74740, Note_on_c, 0, 62, 80
2, 74741, Note_on_c, 0, 60, 0
2, 74793, Note_on_c, 0, 57, 80
2, 74795, Note_on_c, 0, 62, 0
2, 74843, Note_on_c, 0, 57, 0
2, 74858, Note_on_c, 0, 59, 80
2, 74919, Note_on_c, 0, 74, 0
2, 74921, Note_on_c, 0, 71, 80
2, 74972, Note_on_c, 0, 59, 0
2, 74977, Note_on_c, 0, 72, 80
2, 74982, Note_on_c, 0, 71, 0
2, 75035, Note_on_c, 0, 72, 0
2, 75035, Note_on_c, 0, 74, 80
2, 75092, Note_on_c, 0, 59, 80
2, 75093, Note_on_c, 0, 60, 80
2, 75094, Note_on_c, 0, 76, 80
2, 75095, Note_on_c, 0, 74, 0
2, 75154, Note_on_c, 0, 76, 0
2, 75155, Note_on_c, 0, 72, 80
2, 75166, Note_on_c, 0, 60, 0
2, 75169, Note_on_c, 0, 59, 0
2, 75212, Note_on_c, 0, 71, 80
2, 75213, Note_on_c, 0, 72, 0
2, 75270, Note_on_c, 0, 72, 80
2, 75275, Note_on_c, 0, 71, 0
2, 75324, Note_on_c, 0, 72, 0
2, 75328, Note_on_c, 0, 78, 80
2, 75332, Note_on_c, 0, 57, 80
2, 75333, Note_on_c, 0, 60, 80
2, 75388, Note_on_c, 0, 72, 80
2, 75405, Note_on_c, 0, 60, 0
2, 75410, Note_on_c, 0, 57, 0
2, 75438, Note_on_c, 0, 72, 0
2, 75448, Note_on_c, 0, 74, 80
2, 75490, Note_on_c, 0, 78, 0
2, 75500, Note_on_c, 0, 69, 80
2, 75501, Note_on_c, 0, 74, 0
2, 75539, Note_on_c, 0, 69, 0
2, 75563, Note_on_c, 0, 79, 80
2, 75564, Note_on_c, 0, 71, 80
2, 75629, Note_on_c, 0, 69, 80
2, 75632, Note_on_c, 0, 71, 0
2, 75687, Note_on_c, 0, 71, 80
2, 75692, Note_on_c, 0, 69, 0
2, 75746, Note_on_c, 0, 71, 0
2, 75746, Note_on_c, 0, 74, 80
2, 75780, Note_on_c, 0, 74, 0
2, 75807, Note_on_c, 0, 72, 80
2, 75877, Note_on_c, 0, 71, 80
2, 75882, Note_on_c, 0, 72, 0
2, 75934, Note_on_c, 0, 72, 80
2, 75942, Note_on_c, 0, 71, 0
2, 75990, Note_on_c, 0, 76, 80
2, 75992, Note_on_c, 0, 72, 0
2, 76062, Note_on_c, 0, 76, 0
2, 76062, Note_on_c, 0, 74, 80
2, 76123, Note_on_c, 0, 72, 80
2, 76124, Note_on_c, 0, 74, 0
2, 76176, Note_on_c, 0, 72, 0
2, 76179, Note_on_c, 0, 74, 80
2, 76212, Note_on_c, 0, 79, 0
2, 76242, Note_on_c, 0, 77, 80
2, 76279, Note_on_c, 0, 77, 0
2, 76304, Note_on_c, 0, 76, 80
2, 76363, Note_on_c, 0, 74, 0
2, 76363, Note_on_c, 0, 71, 80
2, 76416, Note_on_c, 0, 71, 0
2, 76421, Note_on_c, 0, 72, 80
2, 76461, Note_on_c, 0, 72, 0
2, 76478, Note_on_c, 0, 64, 80
2, 76507, Note_on_c, 0, 64, 0
2, 76543, Note_on_c, 0, 66, 80
2, 76602, Note_on_c, 0, 64, 80
2, 76606, Note_on_c, 0, 66, 0
2, 76657, Note_on_c, 0, 66, 80
2, 76658, Note_on_c, 0, 64, 0
2, 76714, Note_on_c, 0, 69, 80
2, 76716, Note_on_c, 0, 66, 0
2, 76752, Note_on_c, 0, 69, 0
2, 76776, Note_on_c, 0, 68, 80
2, 76837, Note_on_c, 0, 66, 80
2, 76838, Note_on_c, 0, 68, 0
2, 76895, Note_on_c, 0, 68, 80
2, 76897, Note_on_c, 0, 66, 0
2, 76952, Note_on_c, 0, 71, 80
2, 76957, Note_on_c, 0, 68, 0
2, 77015, Note_on_c, 0, 71, 0
2, 77017, Note_on_c, 0, 69, 80
2, 77050, Note_on_c, 0, 76, 0
2, 77090, Note_on_c, 0, 72, 80
2, 77148, Note_on_c, 0, 71, 80
2, 77149, Note_on_c, 0, 72, 0
2, 77205, Note_on_c, 0, 72, 80
2, 77213, Note_on_c, 0, 71, 0
2, 77267, Note_on_c, 0, 74, 80
2, 77270, Note_on_c, 0, 72, 0
2, 77329, Note_on_c, 0, 71, 80
2, 77332, Note_on_c, 0, 74, 0
2, 77390, Note_on_c, 0, 72, 80
2, 77398, Note_on_c, 0, 71, 0
2, 77449, Note_on_c, 0, 74, 80
2, 77452, Note_on_c, 0, 72, 0
2, 77510, Note_on_c, 0, 76, 80
2, 77514, Note_on_c, 0, 74, 0
2, 77571, Note_on_c, 0, 76, 0
2, 77572, Note_on_c, 0, 72, 80
2, 77594, Note_on_c, 0, 69, 0
2, 77627, Note_on_c, 0, 67, 80
2, 77628, Note_on_c, 0, 74, 80
2, 77629, Note_on_c, 0, 72, 0
2, 77682, Note_on_c, 0, 76, 80
2, 77687, Note_on_c, 0, 74, 0
2, 77693, Note_on_c, 0, 67, 0
2, 77746, Note_on_c, 0, 66, 80
2, 77749, Note_on_c, 0, 69, 80
2, 77750, Note_on_c, 0, 76, 0
2, 77865, Note_on_c, 0, 74, 80
2, 77870, Note_on_c, 0, 69, 0
2, 77925, Note_on_c, 0, 66, 0
2, 77984, Note_on_c, 0, 67, 80
2, 78109, Note_on_c, 0, 76, 80
2, 78111, Note_on_c, 0, 74, 0
2, 78222, Note_on_c, 0, 67, 0
2, 78228, Note_on_c, 0, 72, 80
2, 78293, Note_on_c, 0, 76, 0
2, 78352, Note_on_c, 0, 78, 80
2, 78421, Note_on_c, 0, 78, 0
2, 78478, Note_on_c, 0, 79, 80
2, 78480, Note_on_c, 0, 71, 80
2, 78487, Note_on_c, 0, 72, 0
2, 78599, Note_on_c, 0, 72, 80
2, 78600, Note_on_c, 0, 71, 0
2, 78676, Note_on_c, 0, 72, 0
2, 78702, Note_on_c, 0, 79, 0
2, 78711, Note_on_c, 0, 74, 80
2, 78712, Note_on_c, 0, 77, 80
2, 78924, Note_on_c, 0, 77, 0
2, 78928, Note_on_c, 0, 74, 0
2, 78930, Note_on_c, 0, 76, 80
2, 78931, Note_on_c, 0, 67, 80
2, 79106, Note_on_c, 0, 67, 0
2, 79137, Note_on_c, 0, 76, 0
2, 79169, Note_on_c, 0, 77, 80
2, 79170, Note_on_c, 0, 74, 80
2, 79418, Note_on_c, 0, 77, 0
2, 79418, Note_on_c, 0, 74, 0
2, 79916, Note_on_c, 0, 76, 80
2, 79916, Note_on_c, 0, 72, 80
2, 80149, Note_on_c, 0, 76, 0
2, 80149, Note_on_c, 0, 72, 0
2, 80639, Note_on_c, 0, 71, 80
2, 80640, Note_on_c, 0, 74, 80
2, 80859, Note_on_c, 0, 71, 0
2, 80859, Note_on_c, 0, 74, 0
2, 81417, Note_on_c, 0, 74, 80
2, 81476, Note_on_c, 0, 77, 80
2, 81478, Note_on_c, 0, 74, 0
2, 81535, Note_on_c, 0, 76, 80
2, 81540, Note_on_c, 0, 77, 0
2, 81591, Note_on_c, 0, 76, 0
2, 81591, Note_on_c, 0, 74, 80
2, 81650, Note_on_c, 0, 72, 80
2, 81705, Note_on_c, 0, 72, 0
2, 81706, Note_on_c, 0, 71, 80
2, 81764, Note_on_c, 0, 69, 80
2, 81768, Note_on_c, 0, 71, 0
2, 81824, Note_on_c, 0, 68, 80
2, 81828, Note_on_c, 0, 69, 0
2, 81886, Note_on_c, 0, 69, 80
2, 81888, Note_on_c, 0, 68, 0
2, 81938, Note_on_c, 0, 71, 80
2, 81942, Note_on_c, 0, 69, 0
2, 81995, Note_on_c, 0, 71, 0
2, 81997, Note_on_c, 0, 68, 80
2, 82062, Note_on_c, 0, 68, 0
2, 82064, Note_on_c, 0, 64, 80
2, 82066, Note_on_c, 0, 74, 0
2, 82125, Note_on_c, 0, 77, 80
2, 82137, Note_on_c, 0, 64, 0
2, 82185, Note_on_c, 0, 76, 80
2, 82186, Note_on_c, 0, 77, 0
2, 82247, Note_on_c, 0, 74, 80
2, 82248, Note_on_c, 0, 76, 0
2, 82306, Note_on_c, 0, 72, 80
2, 82309, Note_on_c, 0, 74, 0
2, 82365, Note_on_c, 0, 71, 80
2, 82368, Note_on_c, 0, 72, 0
2, 82418, Note_on_c, 0, 71, 0
2, 82420, Note_on_c, 0, 69, 80
2, 82476, Note_on_c, 0, 71, 80
2, 82477, Note_on_c, 0, 69, 0
2, 82536, Note_on_c, 0, 71, 0
2, 82537, Note_on_c, 0, 72, 80
2, 82601, Note_on_c, 0, 74, 80
2, 82605, Note_on_c, 0, 72, 0
2, 82661, Note_on_c, 0, 76, 80
2, 82667, Note_on_c, 0, 74, 0
2, 82713, Note_on_c, 0, 76, 0
2, 82718, Note_on_c, 0, 71, 80
2, 82772, Note_on_c, 0, 71, 0
2, 82780, Note_on_c, 0, 72, 80
2, 82842, Note_on_c, 0, 74, 80
2, 82843, Note_on_c, 0, 72, 0
2, 82870, Note_on_c, 0, 72, 80
2, 82879, Note_on_c, 0, 74, 0
2, 82897, Note_on_c, 0, 72, 0
2, 82898, Note_on_c, 0, 71, 80
2, 82947, Note_on_c, 0, 72, 80
2, 82951, Note_on_c, 0, 71, 0
2, 82977, Note_on_c, 0, 72, 0
2, 82977, Note_on_c, 0, 74, 80
2, 83011, Note_on_c, 0, 71, 80
2, 83141, Note_on_c, 0, 69, 80
2, 83142, Note_on_c, 0, 71, 0
2, 83167, Note_on_c, 0, 67, 80
2, 83168, Note_on_c, 0, 69, 0
2, 83193, Note_on_c, 0, 69, 80
2, 83199, Note_on_c, 0, 67, 0
2, 83214, Note_on_c, 0, 69, 0
2, 83215, Note_on_c, 0, 71, 80
2, 83236, Note_on_c, 0, 71, 0
2, 83238, Note_on_c, 0, 69, 80
2, 83257, Note_on_c, 0, 69, 0
2, 83258, Note_on_c, 0, 71, 80
2, 83276, Note_on_c, 0, 71, 0
2, 83277, Note_on_c, 0, 69, 80
2, 83293, Note_on_c, 0, 71, 80
2, 83294, Note_on_c, 0, 69, 0
2, 83307, Note_on_c, 0, 71, 0
2, 83308, Note_on_c, 0, 69, 80
2, 83318, Note_on_c, 0, 71, 80
2, 83319, Note_on_c, 0, 69, 0
2, 83330, Note_on_c, 0, 71, 0
2, 83331, Note_on_c, 0, 69, 80
2, 83367, Note_on_c, 0, 67, 80
2, 83369, Note_on_c, 0, 69, 0
2, 83394, Note_on_c, 0, 67, 0
2, 83398, Note_on_c, 0, 69, 80
2, 83461, Note_on_c, 0, 69, 0
2, 83478, Note_on_c, 0, 67, 80
2, 83545, Note_on_c, 0, 74, 0
2, 83562, Note_on_c, 0, 72, 80
2, 83619, Note_on_c, 0, 72, 0
2, 83620, Note_on_c, 0, 71, 80
2, 83673, Note_on_c, 0, 71, 0
2, 83675, Note_on_c, 0, 74, 80
2, 83743, Note_on_c, 0, 74, 0
2, 83744, Note_on_c, 0, 72, 80
2, 83802, Note_on_c, 0, 71, 80
2, 83805, Note_on_c, 0, 72, 0
2, 83858, Note_on_c, 0, 72, 80
2, 83866, Note_on_c, 0, 71, 0
2, 83916, Note_on_c, 0, 72, 0
2, 83916, Note_on_c, 0, 76, 80
2, 83988, Note_on_c, 0, 74, 80
2, 83989, Note_on_c, 0, 76, 0
2, 84048, Note_on_c, 0, 72, 80
2, 84050, Note_on_c, 0, 74, 0
2, 84103, Note_on_c, 0, 74, 80
2, 84106, Note_on_c, 0, 72, 0
2, 84164, Note_on_c, 0, 77, 80
2, 84165, Note_on_c, 0, 74, 0
2, 84231, Note_on_c, 0, 76, 80
2, 84237, Note_on_c, 0, 77, 0
2, 84292, Note_on_c, 0, 74, 80
2, 84294, Note_on_c, 0, 76, 0
2, 84345, Note_on_c, 0, 67, 0
2, 84349, Note_on_c, 0, 74, 0
2, 84350, Note_on_c, 0, 72, 80
2, 84351, Note_on_c, 0, 69, 80
2, 84411, Note_on_c, 0, 72, 0
2, 84412, Note_on_c, 0, 76, 80
2, 84439, Note_on_c, 0, 76, 0
2, 84475, Note_on_c, 0, 69, 0
2, 84475, Note_on_c, 0, 71, 80
2, 84477, Note_on_c, 0, 74, 80
2, 84535, Note_on_c, 0, 72, 80
2, 84536, Note_on_c, 0, 74, 0
2, 84595, Note_on_c, 0, 74, 80
2, 84599, Note_on_c, 0, 72, 0
2, 84653, Note_on_c, 0, 77, 80
2, 84655, Note_on_c, 0, 74, 0
2, 84686, Note_on_c, 0, 77, 0
2, 84715, Note_on_c, 0, 72, 80
2, 84716, Note_on_c, 0, 71, 0
2, 84717, Note_on_c, 0, 76, 80
2, 84772, Note_on_c, 0, 76, 0
2, 84774, Note_on_c, 0, 74, 80
2, 84831, Note_on_c, 0, 76, 80
2, 84842, Note_on_c, 0, 74, 0
2, 84887, Note_on_c, 0, 79, 80
2, 84890, Note_on_c, 0, 76, 0
2, 84925, Note_on_c, 0, 72, 0
2, 84948, Note_on_c, 0, 79, 0
2, 84951, Note_on_c, 0, 77, 80
2, 85016, Note_on_c, 0, 76, 80
2, 85069, Note_on_c, 0, 74, 80
2, 85075, Note_on_c, 0, 76, 0
2, 85125, Note_on_c, 0, 74, 0
2, 85128, Note_on_c, 0, 72, 80
2, 85152, Note_on_c, 0, 72, 0
2, 85180, Note_on_c, 0, 77, 0
2, 85187, Note_on_c, 0, 71, 80
2, 85248, Note_on_c, 0, 76, 80
2, 85303, Note_on_c, 0, 74, 80
2, 85307, Note_on_c, 0, 76, 0
2, 85342, Note_on_c, 0, 74, 0
2, 85361, Note_on_c, 0, 71, 0
2, 85361, Note_on_c, 0, 72, 80
2, 85392, Note_on_c, 0, 72, 0
2, 85424, Note_on_c, 0, 71, 80
2, 85486, Note_on_c, 0, 69, 80
2, 85531, Note_on_c, 0, 69, 0
2, 85541, Note_on_c, 0, 67, 80
2, 85568, Note_on_c, 0, 67, 0
2, 85596, Note_on_c, 0, 65, 80
2, 85617, Note_on_c, 0, 65, 0
2, 85653, Note_on_c, 0, 71, 0
2, 85657, Note_on_c, 0, 67, 80
2, 85716, Note_on_c, 0, 72, 80
2, 85776, Note_on_c, 0, 71, 80
2, 85783, Note_on_c, 0, 72, 0
2, 85802, Note_on_c, 0, 71, 0
2, 85825, Note_on_c, 0, 67, 0
2, 85833, Note_on_c, 0, 69, 80
2, 85857, Note_on_c, 0, 69, 0
2, 85893, Note_on_c, 0, 67, 80
2, 85954, Note_on_c, 0, 65, 80
2, 85978, Note_on_c, 0, 65, 0
2, 86009, Note_on_c, 0, 64, 80
2, 86034, Note_on_c, 0, 64, 0
2, 86065, Note_on_c, 0, 62, 80
2, 86087, Note_on_c, 0, 62, 0
2, 86122, Note_on_c, 0, 67, 0
2, 86130, Note_on_c, 0, 64, 80
2, 86192, Note_on_c, 0, 67, 80
2, 86250, Note_on_c, 0, 67, 0
2, 86251, Note_on_c, 0, 72, 80
2, 86262, Note_on_c, 0, 64, 0
2, 86308, Note_on_c, 0, 64, 80
2, 86326, Note_on_c, 0, 64, 0
2, 86367, Note_on_c, 0, 62, 80
2, 86377, Note_on_c, 0, 72, 0
2, 86432, Note_on_c, 0, 72, 80
2, 86497, Note_on_c, 0, 71, 80
2, 86498, Note_on_c, 0, 72, 0
2, 86549, Note_on_c, 0, 71, 0
2, 86551, Note_on_c, 0, 69, 80
2, 86576, Note_on_c, 0, 69, 0
2, 86610, Note_on_c, 0, 67, 80
2, 86669, Note_on_c, 0, 67, 0
2, 86672, Note_on_c, 0, 65, 80
2, 86731, Note_on_c, 0, 64, 80
2, 86732, Note_on_c, 0, 65, 0
2, 86738, Note_on_c, 0, 62, 0
2, 86785, Note_on_c, 0, 64, 0
2, 86787, Note_on_c, 0, 62, 80
2, 86853, Note_on_c, 0, 64, 80
2, 86854, Note_on_c, 0, 62, 0
2, 86919, Note_on_c, 0, 62, 80
2, 86981, Note_on_c, 0, 62, 0
2, 86981, Note_on_c, 0, 60, 80
2, 87040, Note_on_c, 0, 59, 80
2, 87041, Note_on_c, 0, 60, 0
2, 87103, Note_on_c, 0, 60, 80
2, 87105, Note_on_c, 0, 59, 0
2, 87158, Note_on_c, 0, 60, 0
2, 87164, Note_on_c, 0, 55, 80
2, 87220, Note_on_c, 0, 57, 80
2, 87224, Note_on_c, 0, 55, 0
2, 87276, Note_on_c, 0, 59, 80
2, 87277, Note_on_c, 0, 57, 0
2, 87338, Note_on_c, 0, 59, 0
2, 87342, Note_on_c, 0, 60, 80
2, 87405, Note_on_c, 0, 64, 0
2, 87406, Note_on_c, 0, 62, 80
2, 87462, Note_on_c, 0, 62, 0
2, 87466, Note_on_c, 0, 64, 80
2, 87514, Note_on_c, 0, 60, 0
2, 87518, Note_on_c, 0, 59, 80
2, 87574, Note_on_c, 0, 59, 0
2, 87578, Note_on_c, 0, 60, 80
2, 87640, Note_on_c, 0, 55, 80
2, 87697, Note_on_c, 0, 57, 80
2, 87699, Note_on_c, 0, 55, 0
2, 87756, Note_on_c, 0, 54, 80
2, 87760, Note_on_c, 0, 57, 0
2, 87811, Note_on_c, 0, 60, 0
2, 87817, Note_on_c, 0, 54, 0
2, 87819, Note_on_c, 0, 55, 80
2, 87885, Note_on_c, 0, 60, 80
2, 87943, Note_on_c, 0, 60, 0
2, 87943, Note_on_c, 0, 59, 80
2, 87995, Note_on_c, 0, 60, 80
2, 87996, Note_on_c, 0, 59, 0
2, 87998, Note_on_c, 0, 55, 0
2, 88000, Note_on_c, 0, 64, 0
2, 88060, Note_on_c, 0, 64, 80
2, 88061, Note_on_c, 0, 60, 0
2, 88063, Note_on_c, 0, 55, 80
2, 88125, Note_on_c, 0, 60, 80
2, 88175, Note_on_c, 0, 60, 0
2, 88176, Note_on_c, 0, 59, 80
2, 88220, Note_on_c, 0, 55, 0
2, 88230, Note_on_c, 0, 60, 80
2, 88233, Note_on_c, 0, 64, 0
2, 88238, Note_on_c, 0, 59, 0
2, 88252, Note_on_c, 0, 60, 0
2, 88293, Note_on_c, 0, 66, 80
2, 88295, Note_on_c, 0, 57, 80
2, 88356, Note_on_c, 0, 60, 80
2, 88416, Note_on_c, 0, 60, 0
2, 88420, Note_on_c, 0, 59, 80
2, 88449, Note_on_c, 0, 57, 0
2, 88467, Note_on_c, 0, 59, 0
2, 88468, Note_on_c, 0, 60, 80
2, 88496, Note_on_c, 0, 60, 0
2, 88504, Note_on_c, 0, 66, 0
2, 88537, Note_on_c, 0, 67, 80
2, 88542, Note_on_c, 0, 59, 80
2, 88603, Note_on_c, 0, 62, 80
2, 88666, Note_on_c, 0, 62, 0
2, 88666, Note_on_c, 0, 60, 80
2, 88715, Note_on_c, 0, 62, 80
2, 88723, Note_on_c, 0, 60, 0
2, 88734, Note_on_c, 0, 67, 0
2, 88739, Note_on_c, 0, 62, 0
2, 88779, Note_on_c, 0, 69, 80
2, 88780, Note_on_c, 0, 59, 0
2, 88781, Note_on_c, 0, 60, 80
2, 88842, Note_on_c, 0, 64, 80
2, 88903, Note_on_c, 0, 62, 80
2, 88904, Note_on_c, 0, 64, 0
2, 88950, Note_on_c, 0, 64, 80
2, 88951, Note_on_c, 0, 62, 0
2, 88972, Note_on_c, 0, 60, 0
2, 88972, Note_on_c, 0, 64, 0
2, 89015, Note_on_c, 0, 71, 80
2, 89020, Note_on_c, 0, 62, 80
2, 89022, Note_on_c, 0, 69, 0
2, 89081, Note_on_c, 0, 65, 80
2, 89132, Note_on_c, 0, 65, 0
2, 89140, Note_on_c, 0, 64, 80
2, 89170, Note_on_c, 0, 64, 0
2, 89181, Note_on_c, 0, 62, 0
2, 89193, Note_on_c, 0, 65, 80
2, 89205, Note_on_c, 0, 71, 0
2, 89222, Note_on_c, 0, 65, 0
2, 89250, Note_on_c, 0, 72, 80
2, 89254, Note_on_c, 0, 64, 80
2, 89315, Note_on_c, 0, 67, 80
2, 89366, Note_on_c, 0, 67, 0
2, 89376, Note_on_c, 0, 66, 80
2, 89426, Note_on_c, 0, 67, 80
2, 89427, Note_on_c, 0, 66, 0
2, 89437, Note_on_c, 0, 72, 0
2, 89451, Note_on_c, 0, 67, 0
2, 89484, Note_on_c, 0, 64, 0
2, 89488, Note_on_c, 0, 72, 80
2, 89490, Note_on_c, 0, 63, 80
2, 89549, Note_on_c, 0, 69, 80
2, 89609, Note_on_c, 0, 69, 0
2, 89610, Note_on_c, 0, 67, 80
2, 89661, Note_on_c, 0, 69, 80
2, 89663, Note_on_c, 0, 67, 0
2, 89698, Note_on_c, 0, 69, 0
2, 89726, Note_on_c, 0, 66, 80
2, 89782, Note_on_c, 0, 69, 80
2, 89783, Note_on_c, 0, 66, 0
2, 89843, Note_on_c, 0, 69, 0
2, 89844, Note_on_c, 0, 67, 80
2, 89891, Note_on_c, 0, 66, 80
2, 89896, Note_on_c, 0, 67, 0
2, 89925, Note_on_c, 0, 66, 0
2, 89960, Note_on_c, 0, 72, 0
2, 89966, Note_on_c, 0, 62, 80
2, 89968, Note_on_c, 0, 63, 0
2, 89969, Note_on_c, 0, 67, 80
2, 90037, Note_on_c, 0, 72, 80
2, 90088, Note_on_c, 0, 72, 0
2, 90091, Note_on_c, 0, 71, 80
2, 90147, Note_on_c, 0, 69, 80
2, 90149, Note_on_c, 0, 67, 0
2, 90149, Note_on_c, 0, 71, 0
2, 90158, Note_on_c, 0, 62, 0
2, 90190, Note_on_c, 0, 69, 0
2, 90211, Note_on_c, 0, 71, 80
2, 90275, Note_on_c, 0, 71, 0
2, 90277, Note_on_c, 0, 74, 80
2, 90331, Note_on_c, 0, 71, 80
2, 90391, Note_on_c, 0, 67, 80
2, 90416, Note_on_c, 0, 74, 0
2, 90451, Note_on_c, 0, 76, 80
2, 90507, Note_on_c, 0, 71, 0
2, 90508, Note_on_c, 0, 72, 80
2, 90575, Note_on_c, 0, 67, 0
2, 90575, Note_on_c, 0, 69, 80
2, 90605, Note_on_c, 0, 76, 0
2, 90642, Note_on_c, 0, 78, 80
2, 90710, Note_on_c, 0, 72, 0
2, 90710, Note_on_c, 0, 69, 0
2, 90723, Note_on_c, 0, 78, 0
2, 90747, Note_on_c, 0, 71, 80
2, 90747, Note_on_c, 0, 74, 80
2, 90747, Note_on_c, 0, 79, 80
2, 90965, Note_on_c, 0, 79, 0
2, 90968, Note_on_c, 0, 71, 0
2, 90968, Note_on_c, 0, 74, 0
2, 90968, End_track
3, 0, Start_track
3, 0, Title_t, "Hauptwerk"
3, 0, MIDI_port, 0
3, 0, Control_c, 1, 7, 112
3, 0, Control_c, 1, 93, 0
3, 0, Control_c, 1, 91, 68
3, 0, Control_c, 1, 10, 59
3, 0, Program_c, 1, 57
3, 10789, Note_on_c, 1, 55, 80
3, 11072, Note_on_c, 1, 57, 80
3, 11079, Note_on_c, 1, 55, 0
3, 11135, Note_on_c, 1, 55, 80
3, 11137, Note_on_c, 1, 57, 0
3, 11192, Note_on_c, 1, 57, 80
3, 11200, Note_on_c, 1, 55, 0
3, 11254, Note_on_c, 1, 59, 80
3, 11257, Note_on_c, 1, 57, 0
3, 11310, Note_on_c, 1, 57, 80
3, 11320, Note_on_c, 1, 59, 0
3, 11373, Note_on_c, 1, 55, 80
3, 11378, Note_on_c, 1, 57, 0
3, 11430, Note_on_c, 1, 57, 80
3, 11437, Note_on_c, 1, 55, 0
3, 11486, Note_on_c, 1, 57, 0
3, 11487, Note_on_c, 1, 59, 80
3, 11527, Note_on_c, 1, 59, 0
3, 11553, Note_on_c, 1, 50, 80
3, 11611, Note_on_c, 1, 52, 80
3, 11620, Note_on_c, 1, 50, 0
3, 11666, Note_on_c, 1, 54, 80
3, 11671, Note_on_c, 1, 52, 0
3, 11724, Note_on_c, 1, 54, 0
3, 11726, Note_on_c, 1, 55, 80
3, 11786, Note_on_c, 1, 57, 80
3, 11789, Note_on_c, 1, 55, 0
3, 11842, Note_on_c, 1, 59, 80
3, 11845, Note_on_c, 1, 57, 0
3, 11910, Note_on_c, 1, 60, 80
3, 11913, Note_on_c, 1, 59, 0
3, 11963, Note_on_c, 1, 60, 0
3, 11965, Note_on_c, 1, 62, 80
3, 12002, Note_on_c, 1, 60, 80
3, 12004, Note_on_c, 1, 62, 0
3, 12029, Note_on_c, 1, 60, 0
3, 12033, Note_on_c, 1, 62, 80
3, 12055, Note_on_c, 1, 60, 80
3, 12056, Note_on_c, 1, 62, 0
3, 12074, Note_on_c, 1, 60, 0
3, 12074, Note_on_c, 1, 62, 80
3, 12091, Note_on_c, 1, 60, 80
3, 12103, Note_on_c, 1, 62, 0
3, 12123, Note_on_c, 1, 60, 0
3, 12129, Note_on_c, 1, 59, 80
3, 12157, Note_on_c, 1, 60, 80
3, 12162, Note_on_c, 1, 59, 0
3, 12210, Note_on_c, 1, 60, 0
3, 12211, Note_on_c, 1, 62, 80
3, 12938, Note_on_c, 1, 62, 0
3, 12983, Note_on_c, 1, 65, 80
3, 13049, Note_on_c, 1, 64, 80
3, 13052, Note_on_c, 1, 65, 0
3, 13108, Note_on_c, 1, 62, 80
3, 13121, Note_on_c, 1, 64, 0
3, 13175, Note_on_c, 1, 60, 80
3, 13184, Note_on_c, 1, 62, 0
3, 13231, Note_on_c, 1, 59, 80
3, 13237, Note_on_c, 1, 60, 0
3, 13295, Note_on_c, 1, 57, 80
3, 13305, Note_on_c, 1, 59, 0
3, 13352, Note_on_c, 1, 57, 0
3, 13355, Note_on_c, 1, 55, 80
3, 13411, Note_on_c, 1, 55, 0
3, 13413, Note_on_c, 1, 57, 80
3, 13488, Note_on_c, 1, 60, 80
3, 13494, Note_on_c, 1, 57, 0
3, 13546, Note_on_c, 1, 60, 0
3, 13548, Note_on_c, 1, 59, 80
3, 13605, Note_on_c, 1, 62, 80
3, 13614, Note_on_c, 1, 59, 0
3, 13638, Note_on_c, 1, 60, 80
3, 13647, Note_on_c, 1, 62, 0
3, 13658, Note_on_c, 1, 60, 0
3, 13681, Note_on_c, 1, 60, 80
3, 14424, Note_on_c, 1, 59, 80
3, 14430, Note_on_c, 1, 60, 0
3, 14489, Note_on_c, 1, 57, 80
3, 14493, Note_on_c, 1, 59, 0
3, 14549, Note_on_c, 1, 57, 0
3, 14551, Note_on_c, 1, 55, 80
3, 14615, Note_on_c, 1, 54, 80
3, 14617, Note_on_c, 1, 55, 0
3, 14676, Note_on_c, 1, 54, 0
3, 14677, Note_on_c, 1, 52, 80
3, 14736, Note_on_c, 1, 50, 80
3, 14741, Note_on_c, 1, 52, 0
3, 14790, Note_on_c, 1, 60, 80
3, 14791, Note_on_c, 1, 50, 0
3, 14817, Note_on_c, 1, 59, 80
3, 14823, Note_on_c, 1, 60, 0
3, 14834, Note_on_c, 1, 59, 0
3, 14851, Note_on_c, 1, 59, 80
3, 15169, Note_on_c, 1, 66, 80
3, 15170, Note_on_c, 1, 59, 0
3, 15229, Note_on_c, 1, 67, 80
3, 15231, Note_on_c, 1, 66, 0
3, 15293, Note_on_c, 1, 64, 80
3, 15297, Note_on_c, 1, 67, 0
3, 15352, Note_on_c, 1, 64, 0
3, 15355, Note_on_c, 1, 65, 80
3, 15408, Note_on_c, 1, 63, 80
3, 15415, Note_on_c, 1, 65, 0
3, 15465, Note_on_c, 1, 63, 0
3, 15465, Note_on_c, 1, 64, 80
3, 15520, Note_on_c, 1, 64, 0
3, 15522, Note_on_c, 1, 60, 80
3, 15548, Note_on_c, 1, 60, 0
3, 15585, Note_on_c, 1, 59, 80
3, 15617, Note_on_c, 1, 58, 80
3, 15618, Note_on_c, 1, 59, 0
3, 15641, Note_on_c, 1, 58, 0
3, 15647, Note_on_c, 1, 59, 80
3, 15668, Note_on_c, 1, 59, 0
3, 15669, Note_on_c, 1, 58, 80
3, 15687, Note_on_c, 1, 58, 0
3, 15692, Note_on_c, 1, 59, 80
3, 15709, Note_on_c, 1, 58, 80
3, 15711, Note_on_c, 1, 59, 0
3, 15725, Note_on_c, 1, 58, 0
3, 15732, Note_on_c, 1, 59, 80
3, 15744, Note_on_c, 1, 58, 80
3, 15746, Note_on_c, 1, 59, 0
3, 15781, Note_on_c, 1, 58, 0
3, 15785, Note_on_c, 1, 59, 80
3, 15813, Note_on_c, 1, 59, 0
3, 15835, Note_on_c, 1, 59, 80
3, 17277, Note_on_c, 1, 59, 0
3, 18705, Note_on_c, 1, 59, 80
3, 19267, Note_on_c, 1, 59, 0
3, 19302, Note_on_c, 1, 60, 80
3, 19358, Note_on_c, 1, 59, 80
3, 19369, Note_on_c, 1, 60, 0
3, 19381, Note_on_c, 1, 59, 0
3, 19426, Note_on_c, 1, 59, 80
3, 19732, Note_on_c, 1, 59, 0
3, 19732, Note_on_c, 1, 62, 80
3, 19787, Note_on_c, 1, 60, 80
3, 19794, Note_on_c, 1, 62, 0
3, 19844, Note_on_c, 1, 59, 80
3, 19849, Note_on_c, 1, 60, 0
3, 19906, Note_on_c, 1, 57, 80
3, 19907, Note_on_c, 1, 59, 0
3, 19966, Note_on_c, 1, 60, 80
3, 19970, Note_on_c, 1, 57, 0
3, 20023, Note_on_c, 1, 59, 80
3, 20025, Note_on_c, 1, 60, 0
3, 20079, Note_on_c, 1, 62, 80
3, 20080, Note_on_c, 1, 59, 0
3, 20105, Note_on_c, 1, 60, 80
3, 20109, Note_on_c, 1, 62, 0
3, 20125, Note_on_c, 1, 60, 0
3, 20151, Note_on_c, 1, 60, 80
3, 20862, Note_on_c, 1, 60, 0
3, 20920, Note_on_c, 1, 66, 80
3, 20977, Note_on_c, 1, 66, 0
3, 20978, Note_on_c, 1, 67, 80
3, 21033, Note_on_c, 1, 69, 80
3, 21036, Note_on_c, 1, 67, 0
3, 21082, Note_on_c, 1, 69, 0
3, 21099, Note_on_c, 1, 59, 80
3, 21571, Note_on_c, 1, 59, 0
3, 21637, Note_on_c, 1, 52, 80
3, 21696, Note_on_c, 1, 54, 80
3, 21702, Note_on_c, 1, 52, 0
3, 21752, Note_on_c, 1, 55, 80
3, 21758, Note_on_c, 1, 54, 0
3, 21813, Note_on_c, 1, 55, 0
3, 21813, Note_on_c, 1, 57, 80
3, 21868, Note_on_c, 1, 60, 80
3, 21869, Note_on_c, 1, 57, 0
3, 21927, Note_on_c, 1, 59, 80
3, 21931, Note_on_c, 1, 60, 0
3, 21983, Note_on_c, 1, 57, 80
3, 21984, Note_on_c, 1, 59, 0
3, 22052, Note_on_c, 1, 57, 0
3, 22055, Note_on_c, 1, 66, 80
3, 22112, Note_on_c, 1, 66, 0
3, 22113, Note_on_c, 1, 62, 80
3, 22170, Note_on_c, 1, 62, 0
3, 22173, Note_on_c, 1, 64, 80
3, 22234, Note_on_c, 1, 64, 0
3, 22234, Note_on_c, 1, 66, 80
3, 22293, Note_on_c, 1, 66, 0
3, 22295, Note_on_c, 1, 67, 80
3, 22358, Note_on_c, 1, 66, 80
3, 22359, Note_on_c, 1, 67, 0
3, 22416, Note_on_c, 1, 64, 80
3, 22417, Note_on_c, 1, 66, 0
3, 22470, Note_on_c, 1, 62, 80
3, 22474, Note_on_c, 1, 64, 0
3, 22536, Note_on_c, 1, 62, 0
3, 22537, Note_on_c, 1, 60, 80
3, 22594, Note_on_c, 1, 60, 0
3, 22595, Note_on_c, 1, 59, 80
3, 22654, Note_on_c, 1, 59, 0
3, 22655, Note_on_c, 1, 57, 80
3, 22721, Note_on_c, 1, 55, 80
3, 22730, Note_on_c, 1, 57, 0
3, 22783, Note_on_c, 1, 54, 80
3, 22786, Note_on_c, 1, 55, 0
3, 22844, Note_on_c, 1, 52, 80
3, 22845, Note_on_c, 1, 54, 0
3, 22905, Note_on_c, 1, 50, 80
3, 22911, Note_on_c, 1, 52, 0
3, 22965, Note_on_c, 1, 50, 0
3, 22965, Note_on_c, 1, 60, 80
3, 22997, Note_on_c, 1, 60, 0
3, 23026, Note_on_c, 1, 59, 80
3, 23067, Note_on_c, 1, 59, 0
3, 23091, Note_on_c, 1, 64, 80
3, 23147, Note_on_c, 1, 62, 80
3, 23151, Note_on_c, 1, 64, 0
3, 23201, Note_on_c, 1, 60, 80
3, 23203, Note_on_c, 1, 62, 0
3, 23260, Note_on_c, 1, 60, 0
3, 23261, Note_on_c, 1, 59, 80
3, 23322, Note_on_c, 1, 57, 80
3, 23323, Note_on_c, 1, 59, 0
3, 23381, Note_on_c, 1, 55, 80
3, 23384, Note_on_c, 1, 57, 0
3, 23440, Note_on_c, 1, 57, 80
3, 23447, Note_on_c, 1, 55, 0
3, 23464, Note_on_c, 1, 57, 0
3, 23505, Note_on_c, 1, 55, 80
3, 23536, Note_on_c, 1, 57, 80
3, 23545, Note_on_c, 1, 55, 0
3, 23560, Note_on_c, 1, 57, 0
3, 23563, Note_on_c, 1, 59, 80
3, 23585, Note_on_c, 1, 57, 80
3, 23586, Note_on_c, 1, 59, 0
3, 23603, Note_on_c, 1, 57, 0
3, 23607, Note_on_c, 1, 59, 80
3, 23619, Note_on_c, 1, 57, 80
3, 23623, Note_on_c, 1, 59, 0
3, 23677, Note_on_c, 1, 55, 80
3, 23679, Note_on_c, 1, 57, 0
3, 23704, Note_on_c, 1, 55, 0
3, 23736, Note_on_c, 1, 55, 80
3, 23760, Control_c, 1, 7, 106
3, 23760, Control_c, 1, 10, 59
3, 24482, Note_on_c, 1, 55, 0
3, 34549, Note_on_c, 1, 55, 80
3, 34832, Note_on_c, 1, 57, 80
3, 34839, Note_on_c, 1, 55, 0
3, 34895, Note_on_c, 1, 55, 80
3, 34897, Note_on_c, 1, 57, 0
3, 34952, Note_on_c, 1, 57, 80
3, 34960, Note_on_c, 1, 55, 0
3, 35014, Note_on_c, 1, 59, 80
3, 35017, Note_on_c, 1, 57, 0
3, 35070, Note_on_c, 1, 57, 80
3, 35080, Note_on_c, 1, 59, 0
3, 35133, Note_on_c, 1, 55, 80
3, 35138, Note_on_c, 1, 57, 0
3, 35190, Note_on_c, 1, 57, 80
3, 35197, Note_on_c, 1, 55, 0
3, 35246, Note_on_c, 1, 57, 0
3, 35247, Note_on_c, 1, 59, 80
3, 35287, Note_on_c, 1, 59, 0
3, 35313, Note_on_c, 1, 50, 80
3, 35371, Note_on_c, 1, 52, 80
3, 35380, Note_on_c, 1, 50, 0
3, 35426, Note_on_c, 1, 54, 80
3, 35431, Note_on_c, 1, 52, 0
3, 35484, Note_on_c, 1, 54, 0
3, 35486, Note_on_c, 1, 55, 80
3, 35546, Note_on_c, 1, 57, 80
3, 35549, Note_on_c, 1, 55, 0
3, 35602, Note_on_c, 1, 59, 80
3, 35605, Note_on_c, 1, 57, 0
3, 35670, Note_on_c, 1, 60, 80
3, 35673, Note_on_c, 1, 59, 0
3, 35723, Note_on_c, 1, 60, 0
3, 35725, Note_on_c, 1, 62, 80
3, 35762, Note_on_c, 1, 60, 80
3, 35764, Note_on_c, 1, 62, 0
3, 35789, Note_on_c, 1, 60, 0
3, 35793, Note_on_c, 1, 62, 80
3, 35815, Note_on_c, 1, 60, 80
3, 35816, Note_on_c, 1, 62, 0
3, 35834, Note_on_c, 1, 60, 0
3, 35834, Note_on_c, 1, 62, 80
3, 35851, Note_on_c, 1, 60, 80
3, 35863, Note_on_c, 1, 62, 0
3, 35883, Note_on_c, 1, 60, 0
3, 35889, Note_on_c, 1, 59, 80
3, 35917, Note_on_c, 1, 60, 80
3, 35922, Note_on_c, 1, 59, 0
3, 35970, Note_on_c, 1, 60, 0
3, 35971, Note_on_c, 1, 62, 80
3, 36698, Note_on_c, 1, 62, 0
3, 36743, Note_on_c, 1, 65, 80
3, 36809, Note_on_c, 1, 64, 80
3, 36812, Note_on_c, 1, 65, 0
3, 36868, Note_on_c, 1, 62, 80
3, 36881, Note_on_c, 1, 64, 0
3, 36935, Note_on_c, 1, 60, 80
3, 36944, Note_on_c, 1, 62, 0
3, 36991, Note_on_c, 1, 59, 80
3, 36997, Note_on_c, 1, 60, 0
3, 37055, Note_on_c, 1, 57, 80
3, 37065, Note_on_c, 1, 59, 0
3, 37112, Note_on_c, 1, 57, 0
3, 37115, Note_on_c, 1, 55, 80
3, 37171, Note_on_c, 1, 55, 0
3, 37173, Note_on_c, 1, 57, 80
3, 37248, Note_on_c, 1, 60, 80
3, 37254, Note_on_c, 1, 57, 0
3, 37306, Note_on_c, 1, 60, 0
3, 37308, Note_on_c, 1, 59, 80
3, 37365, Note_on_c, 1, 62, 80
3, 37374, Note_on_c, 1, 59, 0
3, 37398, Note_on_c, 1, 60, 80
3, 37407, Note_on_c, 1, 62, 0
3, 37418, Note_on_c, 1, 60, 0
3, 37441, Note_on_c, 1, 60, 80
3, 38184, Note_on_c, 1, 59, 80
3, 38190, Note_on_c, 1, 60, 0
3, 38249, Note_on_c, 1, 57, 80
3, 38253, Note_on_c, 1, 59, 0
3, 38309, Note_on_c, 1, 57, 0
3, 38311, Note_on_c, 1, 55, 80
3, 38375, Note_on_c, 1, 54, 80
3, 38377, Note_on_c, 1, 55, 0
3, 38436, Note_on_c, 1, 54, 0
3, 38437, Note_on_c, 1, 52, 80
3, 38496, Note_on_c, 1, 50, 80
3, 38501, Note_on_c, 1, 52, 0
3, 38550, Note_on_c, 1, 60, 80
3, 38551, Note_on_c, 1, 50, 0
3, 38577, Note_on_c, 1, 59, 80
3, 38583, Note_on_c, 1, 60, 0
3, 38594, Note_on_c, 1, 59, 0
3, 38611, Note_on_c, 1, 59, 80
3, 38929, Note_on_c, 1, 66, 80
3, 38930, Note_on_c, 1, 59, 0
3, 38989, Note_on_c, 1, 67, 80
3, 38991, Note_on_c, 1, 66, 0
3, 39053, Note_on_c, 1, 64, 80
3, 39057, Note_on_c, 1, 67, 0
3, 39112, Note_on_c, 1, 64, 0
3, 39115, Note_on_c, 1, 65, 80
3, 39168, Note_on_c, 1, 63, 80
3, 39175, Note_on_c, 1, 65, 0
3, 39225, Note_on_c, 1, 63, 0
3, 39225, Note_on_c, 1, 64, 80
3, 39280, Note_on_c, 1, 64, 0
3, 39282, Note_on_c, 1, 60, 80
3, 39308, Note_on_c, 1, 60, 0
3, 39345, Note_on_c, 1, 59, 80
3, 39377, Note_on_c, 1, 58, 80
3, 39378, Note_on_c, 1, 59, 0
3, 39401, Note_on_c, 1, 58, 0
3, 39407, Note_on_c, 1, 59, 80
3, 39428, Note_on_c, 1, 59, 0
3, 39429, Note_on_c, 1, 58, 80
3, 39447, Note_on_c, 1, 58, 0
3, 39452, Note_on_c, 1, 59, 80
3, 39469, Note_on_c, 1, 58, 80
3, 39471, Note_on_c, 1, 59, 0
3, 39485, Note_on_c, 1, 58, 0
3, 39492, Note_on_c, 1, 59, 80
3, 39504, Note_on_c, 1, 58, 80
3, 39506, Note_on_c, 1, 59, 0
3, 39541, Note_on_c, 1, 58, 0
3, 39545, Note_on_c, 1, 59, 80
3, 39573, Note_on_c, 1, 59, 0
3, 39595, Note_on_c, 1, 59, 80
3, 41037, Note_on_c, 1, 59, 0
3, 42465, Note_on_c, 1, 59, 80
3, 43027, Note_on_c, 1, 59, 0
3, 43062, Note_on_c, 1, 60, 80
3, 43118, Note_on_c, 1, 59, 80
3, 43129, Note_on_c, 1, 60, 0
3, 43141, Note_on_c, 1, 59, 0
3, 43186, Note_on_c, 1, 59, 80
3, 43492, Note_on_c, 1, 59, 0
3, 43492, Note_on_c, 1, 62, 80
3, 43547, Note_on_c, 1, 60, 80
3, 43554, Note_on_c, 1, 62, 0
3, 43604, Note_on_c, 1, 59, 80
3, 43609, Note_on_c, 1, 60, 0
3, 43666, Note_on_c, 1, 57, 80
3, 43667, Note_on_c, 1, 59, 0
3, 43726, Note_on_c, 1, 60, 80
3, 43730, Note_on_c, 1, 57, 0
3, 43783, Note_on_c, 1, 59, 80
3, 43785, Note_on_c, 1, 60, 0
3, 43839, Note_on_c, 1, 62, 80
3, 43840, Note_on_c, 1, 59, 0
3, 43865, Note_on_c, 1, 60, 80
3, 43869, Note_on_c, 1, 62, 0
3, 43885, Note_on_c, 1, 60, 0
3, 43911, Note_on_c, 1, 60, 80
3, 44622, Note_on_c, 1, 60, 0
3, 44680, Note_on_c, 1, 66, 80
3, 44737, Note_on_c, 1, 66, 0
3, 44738, Note_on_c, 1, 67, 80
3, 44793, Note_on_c, 1, 69, 80
3, 44796, Note_on_c, 1, 67, 0
3, 44842, Note_on_c, 1, 69, 0
3, 44859, Note_on_c, 1, 59, 80
3, 45331, Note_on_c, 1, 59, 0
3, 45397, Note_on_c, 1, 52, 80
3, 45456, Note_on_c, 1, 54, 80
3, 45462, Note_on_c, 1, 52, 0
3, 45512, Note_on_c, 1, 55, 80
3, 45518, Note_on_c, 1, 54, 0
3, 45573, Note_on_c, 1, 55, 0
3, 45573, Note_on_c, 1, 57, 80
3, 45628, Note_on_c, 1, 60, 80
3, 45629, Note_on_c, 1, 57, 0
3, 45687, Note_on_c, 1, 59, 80
3, 45691, Note_on_c, 1, 60, 0
3, 45743, Note_on_c, 1, 57, 80
3, 45744, Note_on_c, 1, 59, 0
3, 45812, Note_on_c, 1, 57, 0
3, 45815, Note_on_c, 1, 66, 80
3, 45872, Note_on_c, 1, 66, 0
3, 45873, Note_on_c, 1, 62, 80
3, 45930, Note_on_c, 1, 62, 0
3, 45933, Note_on_c, 1, 64, 80
3, 45994, Note_on_c, 1, 64, 0
3, 45994, Note_on_c, 1, 66, 80
3, 46053, Note_on_c, 1, 66, 0
3, 46055, Note_on_c, 1, 67, 80
3, 46118, Note_on_c, 1, 66, 80
3, 46119, Note_on_c, 1, 67, 0
3, 46176, Note_on_c, 1, 64, 80
3, 46177, Note_on_c, 1, 66, 0
3, 46230, Note_on_c, 1, 62, 80
3, 46234, Note_on_c, 1, 64, 0
3, 46296, Note_on_c, 1, 62, 0
3, 46297, Note_on_c, 1, 60, 80
3, 46354, Note_on_c, 1, 60, 0
3, 46355, Note_on_c, 1, 59, 80
3, 46414, Note_on_c, 1, 59, 0
3, 46415, Note_on_c, 1, 57, 80
3, 46481, Note_on_c, 1, 55, 80
3, 46490, Note_on_c, 1, 57, 0
3, 46543, Note_on_c, 1, 54, 80
3, 46546, Note_on_c, 1, 55, 0
3, 46604, Note_on_c, 1, 52, 80
3, 46605, Note_on_c, 1, 54, 0
3, 46665, Note_on_c, 1, 50, 80
3, 46671, Note_on_c, 1, 52, 0
3, 46725, Note_on_c, 1, 50, 0
3, 46725, Note_on_c, 1, 60, 80
3, 46757, Note_on_c, 1, 60, 0
3, 46786, Note_on_c, 1, 59, 80
3, 46827, Note_on_c, 1, 59, 0
3, 46851, Note_on_c, 1, 64, 80
3, 46907, Note_on_c, 1, 62, 80
3, 46911, Note_on_c, 1, 64, 0
3, 46961, Note_on_c, 1, 60, 80
3, 46963, Note_on_c, 1, 62, 0
3, 47020, Note_on_c, 1, 60, 0
3, 47021, Note_on_c, 1, 59, 80
3, 47082, Note_on_c, 1, 57, 80
3, 47083, Note_on_c, 1, 59, 0
3, 47141, Note_on_c, 1, 55, 80
3, 47144, Note_on_c, 1, 57, 0
3, 47200, Note_on_c, 1, 57, 80
3, 47207, Note_on_c, 1, 55, 0
3, 47224, Note_on_c, 1, 57, 0
3, 47265, Note_on_c, 1, 55, 80
3, 47296, Note_on_c, 1, 57, 80
3, 47305, Note_on_c, 1, 55, 0
3, 47320, Note_on_c, 1, 57, 0
3, 47323, Note_on_c, 1, 59, 80
3, 47345, Note_on_c, 1, 57, 80
3, 47346, Note_on_c, 1, 59, 0
3, 47363, Note_on_c, 1, 57, 0
3, 47367, Note_on_c, 1, 59, 80
3, 47379, Note_on_c, 1, 57, 80
3, 47383, Note_on_c, 1, 59, 0
3, 47437, Note_on_c, 1, 55, 80
3, 47439, Note_on_c, 1, 57, 0
3, 47464, Note_on_c, 1, 55, 0
3, 47496, Note_on_c, 1, 55, 80
3, 48242, Note_on_c, 1, 55, 0
3, 55418, Note_on_c, 1, 55, 80
3, 56194, Note_on_c, 1, 52, 80
3, 56197, Note_on_c, 1, 55, 0
3, 56256, Note_on_c, 1, 54, 80
3, 56267, Note_on_c, 1, 52, 0
3, 56315, Note_on_c, 1, 55, 80
3, 56323, Note_on_c, 1, 54, 0
3, 56374, Note_on_c, 1, 55, 0
3, 56374, Note_on_c, 1, 57, 80
3, 56429, Note_on_c, 1, 59, 80
3, 56433, Note_on_c, 1, 57, 0
3, 56492, Note_on_c, 1, 57, 80
3, 56496, Note_on_c, 1, 59, 0
3, 56546, Note_on_c, 1, 57, 0
3, 56546, Note_on_c, 1, 59, 80
3, 56598, Note_on_c, 1, 59, 0
3, 56613, Note_on_c, 1, 60, 80
3, 56646, Note_on_c, 1, 59, 80
3, 56649, Note_on_c, 1, 60, 0
3, 56669, Note_on_c, 1, 59, 0
3, 56671, Note_on_c, 1, 60, 80
3, 56690, Note_on_c, 1, 60, 0
3, 56691, Note_on_c, 1, 59, 80
3, 56702, Note_on_c, 1, 60, 80
3, 56704, Note_on_c, 1, 59, 0
3, 56715, Note_on_c, 1, 59, 80
3, 56728, Note_on_c, 1, 59, 0
3, 56736, Note_on_c, 1, 59, 80
3, 56741, Note_on_c, 1, 60, 0
3, 56764, Note_on_c, 1, 59, 0
3, 56765, Note_on_c, 1, 57, 80
3, 56799, Note_on_c, 1, 59, 80
3, 56810, Note_on_c, 1, 57, 0
3, 56856, Note_on_c, 1, 59, 0
3, 56857, Note_on_c, 1, 60, 80
3, 57594, Note_on_c, 1, 60, 0
3, 57655, Note_on_c, 1, 64, 80
3, 57710, Note_on_c, 1, 62, 80
3, 57717, Note_on_c, 1, 64, 0
3, 57759, Note_on_c, 1, 62, 0
3, 57770, Note_on_c, 1, 60, 80
3, 57812, Note_on_c, 1, 60, 0
3, 57827, Note_on_c, 1, 59, 80
3, 58368, Note_on_c, 1, 57, 80
3, 58371, Note_on_c, 1, 59, 0
3, 58429, Note_on_c, 1, 56, 80
3, 58431, Note_on_c, 1, 57, 0
3, 58490, Note_on_c, 1, 56, 0
3, 58491, Note_on_c, 1, 59, 80
3, 58522, Note_on_c, 1, 57, 80
3, 58524, Note_on_c, 1, 59, 0
3, 58538, Note_on_c, 1, 57, 0
3, 58561, Note_on_c, 1, 57, 80
3, 58574, Note_on_c, 1, 56, 80
3, 58578, Note_on_c, 1, 57, 0
3, 58590, Note_on_c, 1, 56, 0
3, 58592, Note_on_c, 1, 57, 80
3, 59045, Note_on_c, 1, 57, 0
3, 59086, Note_on_c, 1, 58, 80
3, 59147, Note_on_c, 1, 57, 80
3, 59149, Note_on_c, 1, 58, 0
3, 59202, Note_on_c, 1, 55, 80
3, 59208, Note_on_c, 1, 57, 0
3, 59263, Note_on_c, 1, 53, 80
3, 59269, Note_on_c, 1, 55, 0
3, 59321, Note_on_c, 1, 52, 80
3, 59322, Note_on_c, 1, 53, 0
3, 59389, Note_on_c, 1, 50, 80
3, 59392, Note_on_c, 1, 52, 0
3, 59446, Note_on_c, 1, 60, 80
3, 59448, Note_on_c, 1, 50, 0
3, 59503, Note_on_c, 1, 60, 0
3, 59505, Note_on_c, 1, 59, 80
3, 59563, Note_on_c, 1, 57, 80
3, 59565, Note_on_c, 1, 59, 0
3, 59626, Note_on_c, 1, 56, 80
3, 59627, Note_on_c, 1, 57, 0
3, 59685, Note_on_c, 1, 56, 0
3, 59687, Note_on_c, 1, 54, 80
3, 59746, Note_on_c, 1, 54, 0
3, 59748, Note_on_c, 1, 52, 80
3, 59772, Note_on_c, 1, 52, 0
3, 59808, Note_on_c, 1, 65, 80
3, 59868, Note_on_c, 1, 64, 80
3, 59870, Note_on_c, 1, 65, 0
3, 59928, Note_on_c, 1, 62, 80
3, 59933, Note_on_c, 1, 64, 0
3, 59959, Note_on_c, 1, 62, 0
3, 59984, Note_on_c, 1, 60, 80
3, 60046, Note_on_c, 1, 62, 80
3, 60053, Note_on_c, 1, 60, 0
3, 60104, Note_on_c, 1, 64, 80
3, 60110, Note_on_c, 1, 62, 0
3, 60158, Note_on_c, 1, 65, 80
3, 60160, Note_on_c, 1, 64, 0
3, 60198, Note_on_c, 1, 65, 0
3, 60218, Note_on_c, 1, 60, 80
3, 60248, Note_on_c, 1, 59, 80
3, 60250, Note_on_c, 1, 60, 0
3, 60270, Note_on_c, 1, 59, 0
3, 60272, Note_on_c, 1, 60, 80
3, 60291, Note_on_c, 1, 60, 0
3, 60292, Note_on_c, 1, 59, 80
3, 60307, Note_on_c, 1, 59, 0
3, 60310, Note_on_c, 1, 60, 80
3, 60324, Note_on_c, 1, 59, 80
3, 60327, Note_on_c, 1, 60, 0
3, 60387, Note_on_c, 1, 57, 80
3, 60389, Note_on_c, 1, 59, 0
3, 60416, Note_on_c, 1, 57, 0
3, 60453, Note_on_c, 1, 57, 80
3, 61904, Note_on_c, 1, 57, 0
3, 64059, Note_on_c, 1, 57, 80
3, 64806, Note_on_c, 1, 57, 0
3, 64856, Note_on_c, 1, 50, 80
3, 64915, Note_on_c, 1, 52, 80
3, 64921, Note_on_c, 1, 50, 0
3, 64975, Note_on_c, 1, 54, 80
3, 64978, Note_on_c, 1, 52, 0
3, 65036, Note_on_c, 1, 54, 0
3, 65040, Note_on_c, 1, 55, 80
3, 65100, Note_on_c, 1, 57, 80
3, 65103, Note_on_c, 1, 55, 0
3, 65153, Note_on_c, 1, 59, 80
3, 65158, Note_on_c, 1, 57, 0
3, 65211, Note_on_c, 1, 60, 80
3, 65212, Note_on_c, 1, 59, 0
3, 65269, Note_on_c, 1, 62, 80
3, 65271, Note_on_c, 1, 60, 0
3, 65325, Note_on_c, 1, 60, 80
3, 65328, Note_on_c, 1, 62, 0
3, 65391, Note_on_c, 1, 60, 0
3, 65391, Note_on_c, 1, 64, 80
3, 65451, Note_on_c, 1, 62, 80
3, 65459, Note_on_c, 1, 64, 0
3, 65482, Note_on_c, 1, 62, 0
3, 65517, Note_on_c, 1, 62, 80
3, 66286, Note_on_c, 1, 59, 80
3, 66291, Note_on_c, 1, 62, 0
3, 66344, Note_on_c, 1, 57, 80
3, 66349, Note_on_c, 1, 59, 0
3, 66401, Note_on_c, 1, 59, 80
3, 66403, Note_on_c, 1, 57, 0
3, 66429, Note_on_c, 1, 55, 80
3, 66430, Note_on_c, 1, 59, 0
3, 66474, Note_on_c, 1, 55, 0
3, 66474, Note_on_c, 1, 60, 80
3, 66963, Note_on_c, 1, 60, 0
3, 67005, Note_on_c, 1, 50, 80
3, 67063, Note_on_c, 1, 54, 80
3, 67068, Note_on_c, 1, 50, 0
3, 67111, Note_on_c, 1, 54, 0
3, 67118, Note_on_c, 1, 57, 80
3, 67152, Note_on_c, 1, 57, 0
3, 67183, Note_on_c, 1, 59, 80
3, 67679, Note_on_c, 1, 59, 0
3, 67726, Note_on_c, 1, 59, 80
3, 67784, Note_on_c, 1, 64, 80
3, 67786, Note_on_c, 1, 59, 0
3, 67840, Note_on_c, 1, 63, 80
3, 67846, Note_on_c, 1, 64, 0
3, 67898, Note_on_c, 1, 64, 80
3, 67900, Note_on_c, 1, 63, 0
3, 67951, Note_on_c, 1, 64, 0
3, 67953, Note_on_c, 1, 59, 80
3, 68011, Note_on_c, 1, 60, 80
3, 68013, Note_on_c, 1, 59, 0
3, 68070, Note_on_c, 1, 56, 80
3, 68072, Note_on_c, 1, 60, 0
3, 68130, Note_on_c, 1, 56, 0
3, 68131, Note_on_c, 1, 57, 80
3, 68189, Note_on_c, 1, 52, 80
3, 68192, Note_on_c, 1, 57, 0
3, 68246, Note_on_c, 1, 52, 0
3, 68247, Note_on_c, 1, 53, 80
3, 68299, Note_on_c, 1, 53, 0
3, 68306, Note_on_c, 1, 51, 80
3, 68350, Note_on_c, 1, 51, 0
3, 68369, Note_on_c, 1, 52, 80
3, 68498, Note_on_c, 1, 52, 0
3, 68514, Note_on_c, 1, 54, 80
3, 68544, Note_on_c, 1, 54, 0
3, 68544, Note_on_c, 1, 56, 80
3, 68572, Note_on_c, 1, 56, 0
3, 68573, Note_on_c, 1, 57, 80
3, 68602, Note_on_c, 1, 57, 0
3, 68602, Note_on_c, 1, 59, 80
3, 68629, Note_on_c, 1, 59, 0
3, 68631, Note_on_c, 1, 61, 80
3, 68657, Note_on_c, 1, 63, 80
3, 68658, Note_on_c, 1, 61, 0
3, 68684, Note_on_c, 1, 63, 0
3, 68684, Note_on_c, 1, 64, 80
3, 68698, Note_on_c, 1, 66, 80
3, 68699, Note_on_c, 1, 64, 0
3, 68715, Note_on_c, 1, 66, 0
3, 68716, Note_on_c, 1, 67, 80
3, 68779, Note_on_c, 1, 67, 0
3, 68792, Note_on_c, 1, 66, 80
3, 68804, Note_on_c, 1, 66, 0
3, 68807, Note_on_c, 1, 64, 80
3, 68818, Note_on_c, 1, 64, 0
3, 68818, Note_on_c, 1, 63, 80
3, 68833, Note_on_c, 1, 63, 0
3, 68835, Note_on_c, 1, 64, 80
3, 68895, Note_on_c, 1, 64, 0
3, 68903, Note_on_c, 1, 62, 80
3, 68917, Note_on_c, 1, 60, 80
3, 68918, Note_on_c, 1, 62, 0
3, 68928, Note_on_c, 1, 60, 0
3, 68928, Note_on_c, 1, 59, 80
3, 68943, Note_on_c, 1, 60, 80
3, 68945, Note_on_c, 1, 59, 0
3, 69012, Note_on_c, 1, 60, 0
3, 69023, Note_on_c, 1, 64, 80
3, 69047, Note_on_c, 1, 64, 0
3, 69054, Note_on_c, 1, 58, 80
3, 69093, Note_on_c, 1, 58, 0
3, 69122, Note_on_c, 1, 59, 80
3, 69402, Note_on_c, 1, 59, 0
3, 69405, Note_on_c, 1, 58, 80
3, 69461, Note_on_c, 1, 56, 80
3, 69463, Note_on_c, 1, 58, 0
3, 69513, Note_on_c, 1, 58, 80
3, 69515, Note_on_c, 1, 56, 0
3, 69537, Note_on_c, 1, 58, 0
3, 69575, Note_on_c, 1, 59, 80
3, 69605, Note_on_c, 1, 59, 0
3, 69605, Note_on_c, 1, 58, 80
3, 69626, Note_on_c, 1, 58, 0
3, 69633, Note_on_c, 1, 59, 80
3, 69653, Note_on_c, 1, 59, 0
3, 69655, Note_on_c, 1, 58, 80
3, 69671, Note_on_c, 1, 58, 0
3, 69677, Note_on_c, 1, 59, 80
3, 69691, Note_on_c, 1, 59, 0
3, 69691, Note_on_c, 1, 58, 80
3, 69785, Note_on_c, 1, 59, 80
3, 69786, Note_on_c, 1, 58, 0
3, 69807, Note_on_c, 1, 59, 0
3, 69833, Note_on_c, 1, 59, 80
3, 70811, Note_on_c, 1, 59, 0
3, 75567, Note_on_c, 1, 55, 80
3, 76370, Note_on_c, 1, 55, 0
3, 76425, Note_on_c, 1, 55, 80
3, 76503, Note_on_c, 1, 55, 0
3, 76538, Note_on_c, 1, 57, 80
3, 76596, Note_on_c, 1, 55, 80
3, 76599, Note_on_c, 1, 57, 0
3, 76653, Note_on_c, 1, 55, 0
3, 76654, Note_on_c, 1, 57, 80
3, 76716, Note_on_c, 1, 60, 80
3, 76719, Note_on_c, 1, 57, 0
3, 76767, Note_on_c, 1, 60, 0
3, 76770, Note_on_c, 1, 59, 80
3, 76829, Note_on_c, 1, 57, 80
3, 76837, Note_on_c, 1, 59, 0
3, 76887, Note_on_c, 1, 59, 80
3, 76896, Note_on_c, 1, 57, 0
3, 76947, Note_on_c, 1, 62, 80
3, 76948, Note_on_c, 1, 59, 0
3, 77009, Note_on_c, 1, 60, 80
3, 77015, Note_on_c, 1, 62, 0
3, 77763, Note_on_c, 1, 60, 0
3, 77806, Note_on_c, 1, 64, 80
3, 77864, Note_on_c, 1, 62, 80
3, 77871, Note_on_c, 1, 64, 0
3, 77918, Note_on_c, 1, 60, 80
3, 77927, Note_on_c, 1, 62, 0
3, 77981, Note_on_c, 1, 59, 80
3, 77982, Note_on_c, 1, 60, 0
3, 78034, Note_on_c, 1, 59, 0
3, 78043, Note_on_c, 1, 62, 80
3, 78099, Note_on_c, 1, 60, 80
3, 78107, Note_on_c, 1, 62, 0
3, 78160, Note_on_c, 1, 59, 80
3, 78168, Note_on_c, 1, 60, 0
3, 78220, Note_on_c, 1, 57, 80
3, 78224, Note_on_c, 1, 59, 0
3, 78277, Note_on_c, 1, 57, 0
3, 78280, Note_on_c, 1, 60, 80
3, 78339, Note_on_c, 1, 59, 80
3, 78340, Note_on_c, 1, 60, 0
3, 78401, Note_on_c, 1, 57, 80
3, 78405, Note_on_c, 1, 59, 0
3, 78446, Note_on_c, 1, 57, 0
3, 78475, Note_on_c, 1, 55, 80
3, 78534, Note_on_c, 1, 59, 80
3, 78594, Note_on_c, 1, 57, 80
3, 78597, Note_on_c, 1, 59, 0
3, 78651, Note_on_c, 1, 60, 80
3, 78655, Note_on_c, 1, 57, 0
3, 78709, Note_on_c, 1, 60, 0
3, 78711, Note_on_c, 1, 59, 80
3, 78764, Note_on_c, 1, 57, 80
3, 78771, Note_on_c, 1, 59, 0
3, 78824, Note_on_c, 1, 59, 80
3, 78829, Note_on_c, 1, 57, 0
3, 78878, Note_on_c, 1, 62, 80
3, 78880, Note_on_c, 1, 59, 0
3, 78939, Note_on_c, 1, 62, 0
3, 78941, Note_on_c, 1, 60, 80
3, 78991, Note_on_c, 1, 59, 80
3, 78997, Note_on_c, 1, 60, 0
3, 79051, Note_on_c, 1, 60, 80
3, 79053, Note_on_c, 1, 59, 0
3, 79108, Note_on_c, 1, 64, 80
3, 79112, Note_on_c, 1, 60, 0
3, 79158, Note_on_c, 1, 64, 0
3, 79224, Note_on_c, 1, 60, 80
3, 79289, Note_on_c, 1, 59, 80
3, 79290, Note_on_c, 1, 60, 0
3, 79348, Note_on_c, 1, 62, 80
3, 79350, Note_on_c, 1, 59, 0
3, 79407, Note_on_c, 1, 62, 0
3, 79408, Note_on_c, 1, 60, 80
3, 79485, Note_on_c, 1, 59, 80
3, 79487, Note_on_c, 1, 60, 0
3, 79542, Note_on_c, 1, 60, 80
3, 79545, Note_on_c, 1, 59, 0
3, 79599, Note_on_c, 1, 64, 80
3, 79600, Note_on_c, 1, 60, 0
3, 79634, Note_on_c, 1, 64, 0
3, 79663, Note_on_c, 1, 62, 80
3, 79721, Note_on_c, 1, 60, 80
3, 79726, Note_on_c, 1, 62, 0
3, 79783, Note_on_c, 1, 62, 80
3, 79786, Note_on_c, 1, 60, 0
3, 79843, Note_on_c, 1, 65, 80
3, 79848, Note_on_c, 1, 62, 0
3, 79899, Note_on_c, 1, 65, 0
3, 79974, Note_on_c, 1, 62, 80
3, 80037, Note_on_c, 1, 60, 80
3, 80040, Note_on_c, 1, 62, 0
3, 80097, Note_on_c, 1, 64, 80
3, 80098, Note_on_c, 1, 60, 0
3, 80155, Note_on_c, 1, 64, 0
3, 80158, Note_on_c, 1, 62, 80
3, 80216, Note_on_c, 1, 60, 80
3, 80219, Note_on_c, 1, 62, 0
3, 80274, Note_on_c, 1, 62, 80
3, 80280, Note_on_c, 1, 60, 0
3, 80330, Note_on_c, 1, 65, 80
3, 80336, Note_on_c, 1, 62, 0
3, 80357, Note_on_c, 1, 65, 0
3, 80390, Note_on_c, 1, 64, 80
3, 80445, Note_on_c, 1, 62, 80
3, 80450, Note_on_c, 1, 64, 0
3, 80511, Note_on_c, 1, 64, 80
3, 80542, Note_on_c, 1, 62, 0
3, 80559, Note_on_c, 1, 67, 80
3, 80562, Note_on_c, 1, 64, 0
3, 80620, Note_on_c, 1, 67, 0
3, 80622, Note_on_c, 1, 65, 80
3, 80788, Note_on_c, 1, 65, 0
3, 80789, Note_on_c, 1, 67, 80
3, 80801, Note_on_c, 1, 55, 0
3, 80809, Note_on_c, 1, 65, 80
3, 80816, Note_on_c, 1, 67, 0
3, 80835, Note_on_c, 1, 64, 80
3, 80838, Note_on_c, 1, 65, 0
3, 80859, Note_on_c, 1, 62, 80
3, 80862, Note_on_c, 1, 64, 0
3, 80915, Note_on_c, 1, 60, 80
3, 80919, Note_on_c, 1, 62, 0
3, 80975, Note_on_c, 1, 59, 80
3, 80981, Note_on_c, 1, 60, 0
3, 81032, Note_on_c, 1, 57, 80
3, 81033, Note_on_c, 1, 59, 0
3, 81089, Note_on_c, 1, 55, 80
3, 81093, Note_on_c, 1, 57, 0
3, 81150, Note_on_c, 1, 53, 80
3, 81159, Note_on_c, 1, 55, 0
3, 81204, Note_on_c, 1, 53, 0
3, 81205, Note_on_c, 1, 52, 80
3, 81264, Note_on_c, 1, 53, 80
3, 81267, Note_on_c, 1, 52, 0
3, 81292, Note_on_c, 1, 53, 0
3, 81330, Note_on_c, 1, 52, 80
3, 82193, Note_on_c, 1, 52, 0
3, 82238, Note_on_c, 1, 54, 80
3, 82270, Note_on_c, 1, 56, 80
3, 82276, Note_on_c, 1, 54, 0
3, 82300, Note_on_c, 1, 56, 0
3, 82305, Note_on_c, 1, 57, 80
3, 82363, Note_on_c, 1, 59, 80
3, 82366, Note_on_c, 1, 57, 0
3, 82420, Note_on_c, 1, 60, 80
3, 82423, Note_on_c, 1, 59, 0
3, 82477, Note_on_c, 1, 62, 80
3, 82478, Note_on_c, 1, 60, 0
3, 82533, Note_on_c, 1, 60, 80
3, 82535, Note_on_c, 1, 62, 0
3, 82589, Note_on_c, 1, 60, 0
3, 82591, Note_on_c, 1, 59, 80
3, 82655, Note_on_c, 1, 57, 80
3, 82660, Note_on_c, 1, 59, 0
3, 82713, Note_on_c, 1, 55, 80
3, 82719, Note_on_c, 1, 57, 0
3, 82731, Note_on_c, 1, 55, 0
3, 82773, Note_on_c, 1, 55, 80
3, 82835, Note_on_c, 1, 54, 80
3, 82836, Note_on_c, 1, 55, 0
3, 82895, Note_on_c, 1, 54, 0
3, 82896, Note_on_c, 1, 55, 80
3, 82954, Note_on_c, 1, 52, 80
3, 82956, Note_on_c, 1, 55, 0
3, 82994, Note_on_c, 1, 52, 0
3, 83012, Note_on_c, 1, 55, 80
3, 83040, Note_on_c, 1, 55, 0
3, 83041, Note_on_c, 1, 54, 80
3, 83059, Note_on_c, 1, 54, 0
3, 83066, Note_on_c, 1, 55, 80
3, 83085, Note_on_c, 1, 55, 0
3, 83087, Note_on_c, 1, 54, 80
3, 83102, Note_on_c, 1, 54, 0
3, 83105, Note_on_c, 1, 55, 80
3, 83124, Note_on_c, 1, 55, 0
3, 83125, Note_on_c, 1, 54, 80
3, 83140, Note_on_c, 1, 54, 0
3, 83146, Note_on_c, 1, 55, 80
3, 83163, Note_on_c, 1, 55, 0
3, 83163, Note_on_c, 1, 54, 80
3, 83177, Note_on_c, 1, 54, 0
3, 83181, Note_on_c, 1, 55, 80
3, 83196, Note_on_c, 1, 55, 0
3, 83198, Note_on_c, 1, 54, 80
3, 83212, Note_on_c, 1, 54, 0
3, 83217, Note_on_c, 1, 55, 80
3, 83232, Note_on_c, 1, 55, 0
3, 83234, Note_on_c, 1, 54, 80
3, 83248, Note_on_c, 1, 54, 0
3, 83253, Note_on_c, 1, 55, 80
3, 83268, Note_on_c, 1, 55, 0
3, 83268, Note_on_c, 1, 54, 80
3, 83280, Note_on_c, 1, 54, 0
3, 83284, Note_on_c, 1, 55, 80
3, 83298, Note_on_c, 1, 55, 0
3, 83298, Note_on_c, 1, 54, 80
3, 83307, Note_on_c, 1, 54, 0
3, 83309, Note_on_c, 1, 55, 80
3, 83326, Note_on_c, 1, 54, 80
3, 83327, Note_on_c, 1, 55, 0
3, 83414, Note_on_c, 1, 54, 0
3, 83415, Note_on_c, 1, 52, 80
3, 83442, Note_on_c, 1, 52, 0
3, 83448, Note_on_c, 1, 54, 80
3, 83470, Note_on_c, 1, 54, 0
3, 83484, Note_on_c, 1, 55, 80
3, 90962, Note_on_c, 1, 55, 0
3, 90962, End_track
4, 0, Start_track
4, 0, Title_t, "Pedal"
4, 0, MIDI_port, 0
4, 0, Control_c, 2, 7, 88
4, 0, Control_c, 2, 93, 0
4, 0, Control_c, 2, 91, 127
4, 0, Control_c, 2, 10, 34
4, 0, Program_c, 2, 19
4, 0, Note_on_c, 2, 43, 80
4, 224, Note_on_c, 2, 43, 0
4, 225, Note_on_c, 2, 55, 80
4, 447, Note_on_c, 2, 55, 0
4, 451, Note_on_c, 2, 57, 80
4, 683, Note_on_c, 2, 59, 80
4, 686, Note_on_c, 2, 57, 0
4, 931, Note_on_c, 2, 59, 0
4, 1059, Note_on_c, 2, 47, 80
4, 1140, Note_on_c, 2, 47, 0
4, 1185, Note_on_c, 2, 48, 80
4, 1304, Note_on_c, 2, 50, 80
4, 1306, Note_on_c, 2, 48, 0
4, 1422, Note_on_c, 2, 50, 0
4, 1429, Note_on_c, 2, 52, 80
4, 1508, Note_on_c, 2, 52, 0
4, 1554, Note_on_c, 2, 47, 80
4, 1634, Note_on_c, 2, 47, 0
4, 1673, Note_on_c, 2, 48, 80
4, 1774, Note_on_c, 2, 48, 0
4, 1796, Note_on_c, 2, 45, 80
4, 1858, Note_on_c, 2, 45, 0
4, 1902, Note_on_c, 2, 50, 80
4, 1973, Note_on_c, 2, 50, 0
4, 2029, Note_on_c, 2, 38, 80
4, 2094, Note_on_c, 2, 38, 0
4, 2156, Note_on_c, 2, 43, 80
4, 2298, Note_on_c, 2, 43, 0
4, 2397, Note_on_c, 2, 50, 80
4, 2631, Note_on_c, 2, 52, 80
4, 2633, Note_on_c, 2, 50, 0
4, 2861, Note_on_c, 2, 54, 80
4, 2867, Note_on_c, 2, 52, 0
4, 3117, Note_on_c, 2, 54, 0
4, 3231, Note_on_c, 2, 54, 80
4, 3303, Note_on_c, 2, 54, 0
4, 3346, Note_on_c, 2, 55, 80
4, 3456, Note_on_c, 2, 55, 0
4, 3459, Note_on_c, 2, 57, 80
4, 3593, Note_on_c, 2, 57, 0
4, 3594, Note_on_c, 2, 59, 80
4, 3672, Note_on_c, 2, 59, 0
4, 3716, Note_on_c, 2, 54, 80
4, 3785, Note_on_c, 2, 54, 0
4, 3836, Note_on_c, 2, 55, 80
4, 3953, Note_on_c, 2, 55, 0
4, 3957, Note_on_c, 2, 52, 80
4, 4057, Note_on_c, 2, 52, 0
4, 4071, Note_on_c, 2, 57, 80
4, 4135, Note_on_c, 2, 57, 0
4, 4192, Note_on_c, 2, 45, 80
4, 4255, Note_on_c, 2, 45, 0
4, 4335, Note_on_c, 2, 50, 80
4, 4587, Note_on_c, 2, 50, 0
4, 5728, Note_on_c, 2, 43, 80
4, 5928, Note_on_c, 2, 43, 0
4, 5965, Note_on_c, 2, 47, 80
4, 6210, Note_on_c, 2, 48, 80
4, 6218, Note_on_c, 2, 47, 0
4, 6450, Note_on_c, 2, 50, 80
4, 6454, Note_on_c, 2, 48, 0
4, 6934, Note_on_c, 2, 48, 80
4, 6941, Note_on_c, 2, 50, 0
4, 7175, Note_on_c, 2, 47, 80
4, 7183, Note_on_c, 2, 48, 0
4, 7616, Note_on_c, 2, 47, 0
4, 7644, Note_on_c, 2, 45, 80
4, 7866, Note_on_c, 2, 45, 0
4, 7891, Note_on_c, 2, 47, 80
4, 8160, Note_on_c, 2, 47, 0
4, 8262, Note_on_c, 2, 47, 80
4, 8368, Note_on_c, 2, 47, 0
4, 8390, Note_on_c, 2, 48, 80
4, 8509, Note_on_c, 2, 50, 80
4, 8510, Note_on_c, 2, 48, 0
4, 8588, Note_on_c, 2, 50, 0
4, 8623, Note_on_c, 2, 52, 80
4, 8704, Note_on_c, 2, 52, 0
4, 8741, Note_on_c, 2, 47, 80
4, 8807, Note_on_c, 2, 47, 0
4, 8868, Note_on_c, 2, 48, 80
4, 8981, Note_on_c, 2, 48, 0
4, 8995, Note_on_c, 2, 45, 80
4, 9060, Note_on_c, 2, 45, 0
4, 9104, Note_on_c, 2, 50, 80
4, 9168, Note_on_c, 2, 50, 0
4, 9225, Note_on_c, 2, 38, 80
4, 9295, Note_on_c, 2, 38, 0
4, 9346, Note_on_c, 2, 43, 80
4, 11041, Note_on_c, 2, 43, 0
4, 11736, Note_on_c, 2, 55, 80
4, 11980, Note_on_c, 2, 57, 80
4, 11984, Note_on_c, 2, 55, 0
4, 12177, Note_on_c, 2, 57, 0
4, 12216, Note_on_c, 2, 59, 80
4, 12447, Note_on_c, 2, 59, 0
4, 12461, Note_on_c, 2, 57, 80
4, 12699, Note_on_c, 2, 55, 80
4, 12702, Note_on_c, 2, 57, 0
4, 12922, Note_on_c, 2, 60, 80
4, 12923, Note_on_c, 2, 55, 0
4, 13160, Note_on_c, 2, 60, 0
4, 13674, Note_on_c, 2, 45, 80
4, 13893, Note_on_c, 2, 47, 80
4, 13896, Note_on_c, 2, 45, 0
4, 14128, Note_on_c, 2, 48, 80
4, 14130, Note_on_c, 2, 47, 0
4, 14362, Note_on_c, 2, 50, 80
4, 14363, Note_on_c, 2, 48, 0
4, 14606, Note_on_c, 2, 50, 0
4, 14723, Note_on_c, 2, 54, 80
4, 14811, Note_on_c, 2, 54, 0
4, 14845, Note_on_c, 2, 55, 80
4, 14966, Note_on_c, 2, 55, 0
4, 14969, Note_on_c, 2, 51, 80
4, 15089, Note_on_c, 2, 51, 0
4, 15105, Note_on_c, 2, 52, 80
4, 15195, Note_on_c, 2, 52, 0
4, 15228, Note_on_c, 2, 47, 80
4, 15321, Note_on_c, 2, 47, 0
4, 15345, Note_on_c, 2, 48, 80
4, 15580, Note_on_c, 2, 49, 80
4, 15585, Note_on_c, 2, 48, 0
4, 15829, Note_on_c, 2, 49, 0
4, 15829, Note_on_c, 2, 47, 80
4, 15883, Note_on_c, 2, 47, 0
4, 15954, Note_on_c, 2, 59, 80
4, 16061, Note_on_c, 2, 59, 0
4, 16061, Note_on_c, 2, 57, 80
4, 16174, Note_on_c, 2, 57, 0
4, 16177, Note_on_c, 2, 55, 80
4, 16295, Note_on_c, 2, 54, 80
4, 16303, Note_on_c, 2, 55, 0
4, 16404, Note_on_c, 2, 54, 0
4, 16405, Note_on_c, 2, 52, 80
4, 16520, Note_on_c, 2, 51, 80
4, 16526, Note_on_c, 2, 52, 0
4, 16778, Note_on_c, 2, 51, 0
4, 16886, Note_on_c, 2, 51, 80
4, 17003, Note_on_c, 2, 51, 0
4, 17008, Note_on_c, 2, 52, 80
4, 17116, Note_on_c, 2, 52, 0
4, 17117, Note_on_c, 2, 55, 80
4, 17176, Note_on_c, 2, 52, 80
4, 17180, Note_on_c, 2, 55, 0
4, 17243, Note_on_c, 2, 52, 0
4, 17244, Note_on_c, 2, 57, 80
4, 17373, Note_on_c, 2, 55, 80
4, 17379, Note_on_c, 2, 57, 0
4, 17493, Note_on_c, 2, 54, 80
4, 17495, Note_on_c, 2, 55, 0
4, 17616, Note_on_c, 2, 54, 0
4, 17616, Note_on_c, 2, 55, 80
4, 17736, Note_on_c, 2, 57, 80
4, 17737, Note_on_c, 2, 55, 0
4, 17851, Note_on_c, 2, 57, 0
4, 17855, Note_on_c, 2, 59, 80
4, 17978, Note_on_c, 2, 60, 80
4, 17979, Note_on_c, 2, 59, 0
4, 18021, Note_on_c, 2, 60, 0
4, 18091, Note_on_c, 2, 48, 80
4, 18163, Note_on_c, 2, 48, 0
4, 18215, Note_on_c, 2, 43, 80
4, 18319, Note_on_c, 2, 43, 0
4, 18332, Note_on_c, 2, 45, 80
4, 18399, Note_on_c, 2, 45, 0
4, 18450, Note_on_c, 2, 47, 80
4, 18634, Note_on_c, 2, 47, 0
4, 18698, Note_on_c, 2, 40, 80
4, 18862, Note_on_c, 2, 40, 0
4, 18951, Note_on_c, 2, 43, 80
4, 19143, Note_on_c, 2, 43, 0
4, 19184, Note_on_c, 2, 47, 80
4, 19388, Note_on_c, 2, 47, 0
4, 19428, Note_on_c, 2, 52, 80
4, 19616, Note_on_c, 2, 52, 0
4, 19672, Note_on_c, 2, 40, 80
4, 19894, Note_on_c, 2, 40, 0
4, 20154, Note_on_c, 2, 45, 80
4, 20379, Note_on_c, 2, 47, 80
4, 20385, Note_on_c, 2, 45, 0
4, 20612, Note_on_c, 2, 48, 80
4, 20621, Note_on_c, 2, 47, 0
4, 20862, Note_on_c, 2, 50, 80
4, 20868, Note_on_c, 2, 48, 0
4, 21107, Note_on_c, 2, 50, 0
4, 21211, Note_on_c, 2, 43, 80
4, 21333, Note_on_c, 2, 45, 80
4, 21334, Note_on_c, 2, 43, 0
4, 21453, Note_on_c, 2, 47, 80
4, 21456, Note_on_c, 2, 45, 0
4, 21536, Note_on_c, 2, 47, 0
4, 21573, Note_on_c, 2, 48, 80
4, 22074, Note_on_c, 2, 48, 0
4, 22296, Note_on_c, 2, 47, 80
4, 22567, Note_on_c, 2, 47, 0
4, 22787, Note_on_c, 2, 45, 80
4, 23000, Note_on_c, 2, 45, 0
4, 23022, Note_on_c, 2, 43, 80
4, 23105, Note_on_c, 2, 43, 0
4, 23155, Note_on_c, 2, 48, 80
4, 23209, Note_on_c, 2, 48, 0
4, 23271, Note_on_c, 2, 50, 80
4, 23410, Note_on_c, 2, 50, 0
4, 23503, Note_on_c, 2, 38, 80
4, 23675, Note_on_c, 2, 38, 0
4, 23750, Note_on_c, 2, 43, 80
4, 23760, Control_c, 2, 7, 105
4, 23760, Control_c, 2, 10, 85
4, 23760, Note_on_c, 2, 43, 80
4, 23938, Note_on_c, 2, 43, 0
4, 23984, Note_on_c, 2, 43, 0
4, 23985, Note_on_c, 2, 55, 80
4, 24207, Note_on_c, 2, 55, 0
4, 24211, Note_on_c, 2, 57, 80
4, 24443, Note_on_c, 2, 59, 80
4, 24446, Note_on_c, 2, 57, 0
4, 24691, Note_on_c, 2, 59, 0
4, 24819, Note_on_c, 2, 47, 80
4, 24900, Note_on_c, 2, 47, 0
4, 24945, Note_on_c, 2, 48, 80
4, 25064, Note_on_c, 2, 50, 80
4, 25066, Note_on_c, 2, 48, 0
4, 25182, Note_on_c, 2, 50, 0
4, 25189, Note_on_c, 2, 52, 80
4, 25268, Note_on_c, 2, 52, 0
4, 25314, Note_on_c, 2, 47, 80
4, 25394, Note_on_c, 2, 47, 0
4, 25433, Note_on_c, 2, 48, 80
4, 25534, Note_on_c, 2, 48, 0
4, 25556, Note_on_c, 2, 45, 80
4, 25618, Note_on_c, 2, 45, 0
4, 25662, Note_on_c, 2, 50, 80
4, 25733, Note_on_c, 2, 50, 0
4, 25789, Note_on_c, 2, 38, 80
4, 25854, Note_on_c, 2, 38, 0
4, 25916, Note_on_c, 2, 43, 80
4, 26058, Note_on_c, 2, 43, 0
4, 26157, Note_on_c, 2, 50, 80
4, 26391, Note_on_c, 2, 52, 80
4, 26393, Note_on_c, 2, 50, 0
4, 26621, Note_on_c, 2, 54, 80
4, 26627, Note_on_c, 2, 52, 0
4, 26877, Note_on_c, 2, 54, 0
4, 26991, Note_on_c, 2, 54, 80
4, 27063, Note_on_c, 2, 54, 0
4, 27106, Note_on_c, 2, 55, 80
4, 27216, Note_on_c, 2, 55, 0
4, 27219, Note_on_c, 2, 57, 80
4, 27353, Note_on_c, 2, 57, 0
4, 27354, Note_on_c, 2, 59, 80
4, 27432, Note_on_c, 2, 59, 0
4, 27476, Note_on_c, 2, 54, 80
4, 27545, Note_on_c, 2, 54, 0
4, 27596, Note_on_c, 2, 55, 80
4, 27713, Note_on_c, 2, 55, 0
4, 27717, Note_on_c, 2, 52, 80
4, 27817, Note_on_c, 2, 52, 0
4, 27831, Note_on_c, 2, 57, 80
4, 27895, Note_on_c, 2, 57, 0
4, 27952, Note_on_c, 2, 45, 80
4, 28015, Note_on_c, 2, 45, 0
4, 28095, Note_on_c, 2, 50, 80
4, 28347, Note_on_c, 2, 50, 0
4, 29488, Note_on_c, 2, 43, 80
4, 29688, Note_on_c, 2, 43, 0
4, 29725, Note_on_c, 2, 47, 80
4, 29970, Note_on_c, 2, 48, 80
4, 29978, Note_on_c, 2, 47, 0
4, 30210, Note_on_c, 2, 50, 80
4, 30214, Note_on_c, 2, 48, 0
4, 30694, Note_on_c, 2, 48, 80
4, 30701, Note_on_c, 2, 50, 0
4, 30935, Note_on_c, 2, 47, 80
4, 30943, Note_on_c, 2, 48, 0
4, 31376, Note_on_c, 2, 47, 0
4, 31404, Note_on_c, 2, 45, 80
4, 31626, Note_on_c, 2, 45, 0
4, 31651, Note_on_c, 2, 47, 80
4, 31920, Note_on_c, 2, 47, 0
4, 32022, Note_on_c, 2, 47, 80
4, 32128, Note_on_c, 2, 47, 0
4, 32150, Note_on_c, 2, 48, 80
4, 32269, Note_on_c, 2, 50, 80
4, 32270, Note_on_c, 2, 48, 0
4, 32348, Note_on_c, 2, 50, 0
4, 32383, Note_on_c, 2, 52, 80
4, 32464, Note_on_c, 2, 52, 0
4, 32501, Note_on_c, 2, 47, 80
4, 32567, Note_on_c, 2, 47, 0
4, 32628, Note_on_c, 2, 48, 80
4, 32741, Note_on_c, 2, 48, 0
4, 32755, Note_on_c, 2, 45, 80
4, 32820, Note_on_c, 2, 45, 0
4, 32864, Note_on_c, 2, 50, 80
4, 32928, Note_on_c, 2, 50, 0
4, 32985, Note_on_c, 2, 38, 80
4, 33055, Note_on_c, 2, 38, 0
4, 33106, Note_on_c, 2, 43, 80
4, 34801, Note_on_c, 2, 43, 0
4, 35496, Note_on_c, 2, 55, 80
4, 35740, Note_on_c, 2, 57, 80
4, 35744, Note_on_c, 2, 55, 0
4, 35937, Note_on_c, 2, 57, 0
4, 35976, Note_on_c, 2, 59, 80
4, 36207, Note_on_c, 2, 59, 0
4, 36221, Note_on_c, 2, 57, 80
4, 36459, Note_on_c, 2, 55, 80
4, 36462, Note_on_c, 2, 57, 0
4, 36682, Note_on_c, 2, 60, 80
4, 36683, Note_on_c, 2, 55, 0
4, 36920, Note_on_c, 2, 60, 0
4, 37434, Note_on_c, 2, 45, 80
4, 37653, Note_on_c, 2, 47, 80
4, 37656, Note_on_c, 2, 45, 0
4, 37888, Note_on_c, 2, 48, 80
4, 37890, Note_on_c, 2, 47, 0
4, 38122, Note_on_c, 2, 50, 80
4, 38123, Note_on_c, 2, 48, 0
4, 38366, Note_on_c, 2, 50, 0
4, 38483, Note_on_c, 2, 54, 80
4, 38571, Note_on_c, 2, 54, 0
4, 38605, Note_on_c, 2, 55, 80
4, 38726, Note_on_c, 2, 55, 0
4, 38729, Note_on_c, 2, 51, 80
4, 38849, Note_on_c, 2, 51, 0
4, 38865, Note_on_c, 2, 52, 80
4, 38955, Note_on_c, 2, 52, 0
4, 38988, Note_on_c, 2, 47, 80
4, 39081, Note_on_c, 2, 47, 0
4, 39105, Note_on_c, 2, 48, 80
4, 39340, Note_on_c, 2, 49, 80
4, 39345, Note_on_c, 2, 48, 0
4, 39589, Note_on_c, 2, 49, 0
4, 39589, Note_on_c, 2, 47, 80
4, 39643, Note_on_c, 2, 47, 0
4, 39714, Note_on_c, 2, 59, 80
4, 39821, Note_on_c, 2, 59, 0
4, 39821, Note_on_c, 2, 57, 80
4, 39934, Note_on_c, 2, 57, 0
4, 39937, Note_on_c, 2, 55, 80
4, 40055, Note_on_c, 2, 54, 80
4, 40063, Note_on_c, 2, 55, 0
4, 40164, Note_on_c, 2, 54, 0
4, 40165, Note_on_c, 2, 52, 80
4, 40280, Note_on_c, 2, 51, 80
4, 40286, Note_on_c, 2, 52, 0
4, 40538, Note_on_c, 2, 51, 0
4, 40646, Note_on_c, 2, 51, 80
4, 40763, Note_on_c, 2, 51, 0
4, 40768, Note_on_c, 2, 52, 80
4, 40876, Note_on_c, 2, 52, 0
4, 40877, Note_on_c, 2, 55, 80
4, 40936, Note_on_c, 2, 52, 80
4, 40940, Note_on_c, 2, 55, 0
4, 41003, Note_on_c, 2, 52, 0
4, 41004, Note_on_c, 2, 57, 80
4, 41133, Note_on_c, 2, 55, 80
4, 41139, Note_on_c, 2, 57, 0
4, 41253, Note_on_c, 2, 54, 80
4, 41255, Note_on_c, 2, 55, 0
4, 41376, Note_on_c, 2, 54, 0
4, 41376, Note_on_c, 2, 55, 80
4, 41496, Note_on_c, 2, 57, 80
4, 41497, Note_on_c, 2, 55, 0
4, 41611, Note_on_c, 2, 57, 0
4, 41615, Note_on_c, 2, 59, 80
4, 41738, Note_on_c, 2, 60, 80
4, 41739, Note_on_c, 2, 59, 0
4, 41781, Note_on_c, 2, 60, 0
4, 41851, Note_on_c, 2, 48, 80
4, 41923, Note_on_c, 2, 48, 0
4, 41975, Note_on_c, 2, 43, 80
4, 42079, Note_on_c, 2, 43, 0
4, 42092, Note_on_c, 2, 45, 80
4, 42159, Note_on_c, 2, 45, 0
4, 42210, Note_on_c, 2, 47, 80
4, 42394, Note_on_c, 2, 47, 0
4, 42458, Note_on_c, 2, 40, 80
4, 42622, Note_on_c, 2, 40, 0
4, 42711, Note_on_c, 2, 43, 80
4, 42903, Note_on_c, 2, 43, 0
4, 42944, Note_on_c, 2, 47, 80
4, 43148, Note_on_c, 2, 47, 0
4, 43188, Note_on_c, 2, 52, 80
4, 43376, Note_on_c, 2, 52, 0
4, 43432, Note_on_c, 2, 40, 80
4, 43654, Note_on_c, 2, 40, 0
4, 43914, Note_on_c, 2, 45, 80
4, 44139, Note_on_c, 2, 47, 80
4, 44145, Note_on_c, 2, 45, 0
4, 44372, Note_on_c, 2, 48, 80
4, 44381, Note_on_c, 2, 47, 0
4, 44622, Note_on_c, 2, 50, 80
4, 44628, Note_on_c, 2, 48, 0
4, 44867, Note_on_c, 2, 50, 0
4, 44971, Note_on_c, 2, 43, 80
4, 45093, Note_on_c, 2, 45, 80
4, 45094, Note_on_c, 2, 43, 0
4, 45213, Note_on_c, 2, 47, 80
4, 45216, Note_on_c, 2, 45, 0
4, 45296, Note_on_c, 2, 47, 0
4, 45333, Note_on_c, 2, 48, 80
4, 45834, Note_on_c, 2, 48, 0
4, 46056, Note_on_c, 2, 47, 80
4, 46327, Note_on_c, 2, 47, 0
4, 46547, Note_on_c, 2, 45, 80
4, 46760, Note_on_c, 2, 45, 0
4, 46782, Note_on_c, 2, 43, 80
4, 46865, Note_on_c, 2, 43, 0
4, 46915, Note_on_c, 2, 48, 80
4, 46969, Note_on_c, 2, 48, 0
4, 47031, Note_on_c, 2, 50, 80
4, 47170, Note_on_c, 2, 50, 0
4, 47263, Note_on_c, 2, 38, 80
4, 47435, Note_on_c, 2, 38, 0
4, 47510, Note_on_c, 2, 43, 80
4, 48929, Note_on_c, 2, 43, 0
4, 48951, Note_on_c, 2, 55, 70
4, 49191, Note_on_c, 2, 57, 83
4, 49196, Note_on_c, 2, 55, 0
4, 49426, Note_on_c, 2, 59, 89
4, 49431, Note_on_c, 2, 57, 0
4, 49627, Note_on_c, 2, 59, 0
4, 49664, Note_on_c, 2, 60, 83
4, 50157, Note_on_c, 2, 59, 88
4, 50164, Note_on_c, 2, 60, 0
4, 50401, Note_on_c, 2, 57, 82
4, 50408, Note_on_c, 2, 59, 0
4, 50869, Note_on_c, 2, 56, 80
4, 50878, Note_on_c, 2, 57, 0
4, 51114, Note_on_c, 2, 57, 81
4, 51116, Note_on_c, 2, 56, 0
4, 51299, Note_on_c, 2, 57, 0
4, 51360, Note_on_c, 2, 50, 82
4, 51580, Note_on_c, 2, 52, 75
4, 51581, Note_on_c, 2, 50, 0
4, 51779, Note_on_c, 2, 52, 0
4, 51806, Note_on_c, 2, 45, 78
4, 52029, Note_on_c, 2, 45, 0
4, 52049, Note_on_c, 2, 47, 87
4, 52298, Note_on_c, 2, 49, 87
4, 52304, Note_on_c, 2, 47, 0
4, 52538, Note_on_c, 2, 49, 0
4, 52539, Note_on_c, 2, 50, 87
4, 53198, Note_on_c, 2, 50, 0
4, 53268, Note_on_c, 2, 47, 83
4, 53757, Note_on_c, 2, 45, 80
4, 53758, Note_on_c, 2, 47, 0
4, 53995, Note_on_c, 2, 47, 85
4, 54001, Note_on_c, 2, 45, 0
4, 54197, Note_on_c, 2, 47, 0
4, 54240, Note_on_c, 2, 52, 76
4, 54477, Note_on_c, 2, 52, 0
4, 54477, Note_on_c, 2, 54, 83
4, 54688, Note_on_c, 2, 54, 0
4, 54718, Note_on_c, 2, 47, 78
4, 54945, Note_on_c, 2, 49, 86
4, 54954, Note_on_c, 2, 47, 0
4, 55174, Note_on_c, 2, 51, 84
4, 55177, Note_on_c, 2, 49, 0
4, 55420, Note_on_c, 2, 52, 82
4, 55423, Note_on_c, 2, 51, 0
4, 55895, Note_on_c, 2, 50, 84
4, 55898, Note_on_c, 2, 52, 0
4, 56133, Note_on_c, 2, 48, 85
4, 56141, Note_on_c, 2, 50, 0
4, 56608, Note_on_c, 2, 47, 85
4, 56613, Note_on_c, 2, 48, 0
4, 56849, Note_on_c, 2, 45, 80
4, 56851, Note_on_c, 2, 47, 0
4, 57100, Note_on_c, 2, 47, 83
4, 57106, Note_on_c, 2, 45, 0
4, 57343, Note_on_c, 2, 48, 77
4, 57347, Note_on_c, 2, 47, 0
4, 57592, Note_on_c, 2, 50, 82
4, 57598, Note_on_c, 2, 48, 0
4, 57834, Note_on_c, 2, 50, 0
4, 57945, Note_on_c, 2, 43, 82
4, 58052, Note_on_c, 2, 43, 0
4, 58071, Note_on_c, 2, 45, 84
4, 58191, Note_on_c, 2, 47, 86
4, 58193, Note_on_c, 2, 45, 0
4, 58283, Note_on_c, 2, 47, 0
4, 58307, Note_on_c, 2, 48, 83
4, 58566, Note_on_c, 2, 48, 0
4, 58673, Note_on_c, 2, 48, 80
4, 58787, Note_on_c, 2, 50, 78
4, 58794, Note_on_c, 2, 48, 0
4, 58887, Note_on_c, 2, 50, 0
4, 58906, Note_on_c, 2, 52, 75
4, 58985, Note_on_c, 2, 52, 0
4, 59024, Note_on_c, 2, 53, 86
4, 59279, Note_on_c, 2, 53, 0
4, 59387, Note_on_c, 2, 52, 81
4, 59479, Note_on_c, 2, 52, 0
4, 59506, Note_on_c, 2, 50, 82
4, 59623, Note_on_c, 2, 50, 0
4, 59623, Note_on_c, 2, 48, 75
4, 59725, Note_on_c, 2, 48, 0
4, 59741, Note_on_c, 2, 47, 84
4, 59868, Note_on_c, 2, 45, 80
4, 59870, Note_on_c, 2, 47, 0
4, 59981, Note_on_c, 2, 45, 0
4, 59985, Note_on_c, 2, 52, 86
4, 60139, Note_on_c, 2, 52, 0
4, 60221, Note_on_c, 2, 40, 85
4, 60402, Note_on_c, 2, 40, 0
4, 60452, Note_on_c, 2, 45, 81
4, 60697, Note_on_c, 2, 47, 79
4, 60703, Note_on_c, 2, 45, 0
4, 60935, Note_on_c, 2, 49, 85
4, 60936, Note_on_c, 2, 47, 0
4, 61175, Note_on_c, 2, 49, 0
4, 61177, Note_on_c, 2, 50, 87
4, 61847, Note_on_c, 2, 50, 0
4, 61908, Note_on_c, 2, 52, 77
4, 62148, Note_on_c, 2, 54, 86
4, 62151, Note_on_c, 2, 52, 0
4, 62381, Note_on_c, 2, 54, 0
4, 62381, Note_on_c, 2, 56, 86
4, 62593, Note_on_c, 2, 56, 0
4, 62615, Note_on_c, 2, 57, 87
4, 62855, Note_on_c, 2, 57, 0
4, 62855, Note_on_c, 2, 59, 86
4, 63105, Note_on_c, 2, 60, 84
4, 63106, Note_on_c, 2, 59, 0
4, 63273, Note_on_c, 2, 60, 0
4, 63331, Note_on_c, 2, 50, 86
4, 63563, Note_on_c, 2, 50, 0
4, 63569, Note_on_c, 2, 52, 90
4, 63767, Note_on_c, 2, 52, 0
4, 63821, Note_on_c, 2, 40, 86
4, 63995, Note_on_c, 2, 40, 0
4, 64058, Note_on_c, 2, 45, 84
4, 64684, Note_on_c, 2, 45, 0
4, 64793, Note_on_c, 2, 50, 86
4, 64923, Note_on_c, 2, 48, 83
4, 64927, Note_on_c, 2, 50, 0
4, 65040, Note_on_c, 2, 47, 89
4, 65044, Note_on_c, 2, 48, 0
4, 65269, Note_on_c, 2, 45, 80
4, 65270, Note_on_c, 2, 47, 0
4, 65509, Note_on_c, 2, 43, 84
4, 65516, Note_on_c, 2, 45, 0
4, 65750, Note_on_c, 2, 45, 83
4, 65753, Note_on_c, 2, 43, 0
4, 65992, Note_on_c, 2, 47, 86
4, 65994, Note_on_c, 2, 45, 0
4, 66203, Note_on_c, 2, 47, 0
4, 66230, Note_on_c, 2, 40, 86
4, 66470, Note_on_c, 2, 40, 0
4, 66593, Note_on_c, 2, 45, 83
4, 66711, Note_on_c, 2, 45, 0
4, 66711, Note_on_c, 2, 47, 89
4, 66825, Note_on_c, 2, 48, 81
4, 66826, Note_on_c, 2, 47, 0
4, 66917, Note_on_c, 2, 48, 0
4, 66946, Note_on_c, 2, 38, 90
4, 67181, Note_on_c, 2, 38, 0
4, 67304, Note_on_c, 2, 43, 83
4, 67421, Note_on_c, 2, 45, 83
4, 67422, Note_on_c, 2, 43, 0
4, 67523, Note_on_c, 2, 45, 0
4, 67536, Note_on_c, 2, 47, 87
4, 67600, Note_on_c, 2, 47, 0
4, 67665, Note_on_c, 2, 36, 87
4, 67908, Note_on_c, 2, 36, 0
4, 69122, Note_on_c, 2, 49, 82
4, 69338, Note_on_c, 2, 49, 0
4, 69345, Note_on_c, 2, 54, 89
4, 69566, Note_on_c, 2, 54, 0
4, 69566, Note_on_c, 2, 52, 64
4, 69814, Note_on_c, 2, 51, 85
4, 69822, Note_on_c, 2, 52, 0
4, 70062, Note_on_c, 2, 51, 0
4, 70063, Note_on_c, 2, 52, 81
4, 70303, Note_on_c, 2, 54, 86
4, 70311, Note_on_c, 2, 52, 0
4, 70553, Note_on_c, 2, 54, 0
4, 70561, Note_on_c, 2, 55, 89
4, 70800, Note_on_c, 2, 57, 87
4, 70807, Note_on_c, 2, 55, 0
4, 71038, Note_on_c, 2, 59, 96
4, 71039, Note_on_c, 2, 57, 0
4, 71269, Note_on_c, 2, 60, 72
4, 71278, Note_on_c, 2, 59, 0
4, 71338, Note_on_c, 2, 60, 0
4, 71390, Note_on_c, 2, 59, 94
4, 71502, Note_on_c, 2, 59, 0
4, 71511, Note_on_c, 2, 57, 84
4, 71630, Note_on_c, 2, 57, 0
4, 71631, Note_on_c, 2, 55, 79
4, 71757, Note_on_c, 2, 54, 86
4, 71761, Note_on_c, 2, 55, 0
4, 71855, Note_on_c, 2, 54, 0
4, 71880, Note_on_c, 2, 59, 92
4, 71976, Note_on_c, 2, 59, 0
4, 71996, Note_on_c, 2, 52, 78
4, 72065, Note_on_c, 2, 52, 0
4, 72118, Note_on_c, 2, 55, 88
4, 72201, Note_on_c, 2, 55, 0
4, 72237, Note_on_c, 2, 57, 82
4, 72342, Note_on_c, 2, 57, 0
4, 72354, Note_on_c, 2, 54, 92
4, 72457, Note_on_c, 2, 54, 0
4, 72466, Note_on_c, 2, 59, 94
4, 72546, Note_on_c, 2, 59, 0
4, 72581, Note_on_c, 2, 47, 87
4, 72643, Note_on_c, 2, 47, 0
4, 72709, Note_on_c, 2, 52, 81
4, 72931, Note_on_c, 2, 52, 0
4, 72936, Note_on_c, 2, 54, 87
4, 73174, Note_on_c, 2, 56, 88
4, 73175, Note_on_c, 2, 54, 0
4, 73405, Note_on_c, 2, 57, 83
4, 73406, Note_on_c, 2, 56, 0
4, 73631, Note_on_c, 2, 57, 0
4, 74121, Note_on_c, 2, 50, 85
4, 74365, Note_on_c, 2, 52, 83
4, 74371, Note_on_c, 2, 50, 0
4, 74602, Note_on_c, 2, 54, 93
4, 74606, Note_on_c, 2, 52, 0
4, 74839, Note_on_c, 2, 54, 0
4, 74852, Note_on_c, 2, 55, 90
4, 75089, Note_on_c, 2, 55, 0
4, 75561, Note_on_c, 2, 43, 87
4, 75799, Note_on_c, 2, 43, 0
4, 75807, Note_on_c, 2, 45, 88
4, 76041, Note_on_c, 2, 47, 94
4, 76044, Note_on_c, 2, 45, 0
4, 76303, Note_on_c, 2, 48, 84
4, 76306, Note_on_c, 2, 47, 0
4, 76543, Note_on_c, 2, 48, 0
4, 77011, Note_on_c, 2, 45, 83
4, 77259, Note_on_c, 2, 47, 91
4, 77265, Note_on_c, 2, 45, 0
4, 77502, Note_on_c, 2, 47, 0
4, 77503, Note_on_c, 2, 48, 86
4, 77741, Note_on_c, 2, 50, 90
4, 77743, Note_on_c, 2, 48, 0
4, 77978, Note_on_c, 2, 50, 0
4, 78221, Note_on_c, 2, 51, 91
4, 78460, Note_on_c, 2, 52, 82
4, 78463, Note_on_c, 2, 51, 0
4, 78932, Note_on_c, 2, 52, 0
4, 79168, Note_on_c, 2, 47, 94
4, 79409, Note_on_c, 2, 47, 0
4, 79906, Note_on_c, 2, 48, 88
4, 80264, Note_on_c, 2, 48, 0
4, 80622, Note_on_c, 2, 43, 86
4, 80869, Note_on_c, 2, 43, 0
4, 81591, Note_on_c, 2, 44, 94
4, 81785, Note_on_c, 2, 44, 0
4, 81817, Note_on_c, 2, 40, 79
4, 81991, Note_on_c, 2, 40, 0
4, 82051, Note_on_c, 2, 45, 83
4, 82306, Note_on_c, 2, 45, 0
4, 83018, Note_on_c, 2, 50, 93
4, 83252, Note_on_c, 2, 48, 83
4, 83259, Note_on_c, 2, 50, 0
4, 83488, Note_on_c, 2, 47, 88
4, 83497, Note_on_c, 2, 48, 0
4, 83729, Note_on_c, 2, 45, 79
4, 83730, Note_on_c, 2, 47, 0
4, 83973, Note_on_c, 2, 47, 90
4, 83974, Note_on_c, 2, 45, 0
4, 84228, Note_on_c, 2, 48, 90
4, 84230, Note_on_c, 2, 47, 0
4, 84473, Note_on_c, 2, 48, 0
4, 84951, Note_on_c, 2, 50, 89
4, 85189, Note_on_c, 2, 50, 0
4, 85652, Note_on_c, 2, 52, 86
4, 85893, Note_on_c, 2, 50, 92
4, 85895, Note_on_c, 2, 52, 0
4, 86119, Note_on_c, 2, 48, 86
4, 86123, Note_on_c, 2, 50, 0
4, 86369, Note_on_c, 2, 48, 0
4, 86370, Note_on_c, 2, 55, 88
4, 87805, Note_on_c, 2, 55, 0
4, 87817, Note_on_c, 2, 43, 85
4, 90962, Note_on_c, 2, 43, 0
4, 90962, End_track
5, 0, Start_track
5, 0, Title_t, "Ped 16"
5, 0, MIDI_port, 0
5, 0, Control_c, 3, 7, 112
5, 0, Control_c, 3, 93, 0
5, 0, Control_c, 3, 91, 127
5, 0, Control_c, 3, 10, 102
5, 0, Program_c, 3, 78
5, 0, Note_on_c, 3, 31, 80
5, 224, Note_on_c, 3, 31, 0
5, 225, Note_on_c, 3, 43, 80
5, 447, Note_on_c, 3, 43, 0
5, 451, Note_on_c, 3, 45, 80
5, 683, Note_on_c, 3, 47, 80
5, 686, Note_on_c, 3, 45, 0
5, 931, Note_on_c, 3, 47, 0
5, 1059, Note_on_c, 3, 35, 80
5, 1140, Note_on_c, 3, 35, 0
5, 1185, Note_on_c, 3, 36, 80
5, 1304, Note_on_c, 3, 38, 80
5, 1306, Note_on_c, 3, 36, 0
5, 1422, Note_on_c, 3, 38, 0
5, 1429, Note_on_c, 3, 40, 80
5, 1508, Note_on_c, 3, 40, 0
5, 1554, Note_on_c, 3, 35, 80
5, 1634, Note_on_c, 3, 35, 0
5, 1673, Note_on_c, 3, 36, 80
5, 1774, Note_on_c, 3, 36, 0
5, 1796, Note_on_c, 3, 33, 80
5, 1858, Note_on_c, 3, 33, 0
5, 1902, Note_on_c, 3, 38, 80
5, 1973, Note_on_c, 3, 38, 0
5, 2029, Note_on_c, 3, 26, 80
5, 2094, Note_on_c, 3, 26, 0
5, 2156, Note_on_c, 3, 31, 80
5, 2298, Note_on_c, 3, 31, 0
5, 2397, Note_on_c, 3, 38, 80
5, 2631, Note_on_c, 3, 40, 80
5, 2633, Note_on_c, 3, 38, 0
5, 2861, Note_on_c, 3, 42, 80
5, 2867, Note_on_c, 3, 40, 0
5, 3117, Note_on_c, 3, 42, 0
5, 3231, Note_on_c, 3, 42, 80
5, 3303, Note_on_c, 3, 42, 0
5, 3346, Note_on_c, 3, 43, 80
5, 3456, Note_on_c, 3, 43, 0
5, 3459, Note_on_c, 3, 45, 80
5, 3593, Note_on_c, 3, 45, 0
5, 3594, Note_on_c, 3, 47, 80
5, 3672, Note_on_c, 3, 47, 0
5, 3716, Note_on_c, 3, 42, 80
5, 3785, Note_on_c, 3, 42, 0
5, 3836, Note_on_c, 3, 43, 80
5, 3953, Note_on_c, 3, 43, 0
5, 3957, Note_on_c, 3, 40, 80
5, 4057, Note_on_c, 3, 40, 0
5, 4071, Note_on_c, 3, 45, 80
5, 4135, Note_on_c, 3, 45, 0
5, 4192, Note_on_c, 3, 33, 80
5, 4255, Note_on_c, 3, 33, 0
5, 4335, Note_on_c, 3, 38, 80
5, 4587, Note_on_c, 3, 38, 0
5, 5728, Note_on_c, 3, 31, 80
5, 5928, Note_on_c, 3, 31, 0
5, 5965, Note_on_c, 3, 35, 80
5, 6210, Note_on_c, 3, 36, 80
5, 6218, Note_on_c, 3, 35, 0
5, 6450, Note_on_c, 3, 38, 80
5, 6454, Note_on_c, 3, 36, 0
5, 6934, Note_on_c, 3, 36, 80
5, 6941, Note_on_c, 3, 38, 0
5, 7175, Note_on_c, 3, 35, 80
5, 7183, Note_on_c, 3, 36, 0
5, 7616, Note_on_c, 3, 35, 0
5, 7644, Note_on_c, 3, 33, 80
5, 7866, Note_on_c, 3, 33, 0
5, 7891, Note_on_c, 3, 35, 80
5, 8160, Note_on_c, 3, 35, 0
5, 8262, Note_on_c, 3, 35, 80
5, 8368, Note_on_c, 3, 35, 0
5, 8390, Note_on_c, 3, 36, 80
5, 8509, Note_on_c, 3, 38, 80
5, 8510, Note_on_c, 3, 36, 0
5, 8588, Note_on_c, 3, 38, 0
5, 8623, Note_on_c, 3, 40, 80
5, 8704, Note_on_c, 3, 40, 0
5, 8741, Note_on_c, 3, 35, 80
5, 8807, Note_on_c, 3, 35, 0
5, 8868, Note_on_c, 3, 36, 80
5, 8981, Note_on_c, 3, 36, 0
5, 8995, Note_on_c, 3, 33, 80
5, 9060, Note_on_c, 3, 33, 0
5, 9104, Note_on_c, 3, 38, 80
5, 9168, Note_on_c, 3, 38, 0
5, 9225, Note_on_c, 3, 26, 80
5, 9295, Note_on_c, 3, 26, 0
5, 9346, Note_on_c, 3, 31, 80
5, 11041, Note_on_c, 3, 31, 0
5, 11736, Note_on_c, 3, 43, 80
5, 11980, Note_on_c, 3, 45, 80
5, 11984, Note_on_c, 3, 43, 0
5, 12177, Note_on_c, 3, 45, 0
5, 12216, Note_on_c, 3, 47, 80
5, 12447, Note_on_c, 3, 47, 0
5, 12461, Note_on_c, 3, 45, 80
5, 12699, Note_on_c, 3, 43, 80
5, 12702, Note_on_c, 3, 45, 0
5, 12922, Note_on_c, 3, 48, 80
5, 12923, Note_on_c, 3, 43, 0
5, 13160, Note_on_c, 3, 48, 0
5, 13674, Note_on_c, 3, 33, 80
5, 13893, Note_on_c, 3, 35, 80
5, 13896, Note_on_c, 3, 33, 0
5, 14128, Note_on_c, 3, 36, 80
5, 14130, Note_on_c, 3, 35, 0
5, 14362, Note_on_c, 3, 38, 80
5, 14363, Note_on_c, 3, 36, 0
5, 14606, Note_on_c, 3, 38, 0
5, 14723, Note_on_c, 3, 42, 80
5, 14811, Note_on_c, 3, 42, 0
5, 14845, Note_on_c, 3, 43, 80
5, 14966, Note_on_c, 3, 43, 0
5, 14969, Note_on_c, 3, 39, 80
5, 15089, Note_on_c, 3, 39, 0
5, 15105, Note_on_c, 3, 40, 80
5, 15195, Note_on_c, 3, 40, 0
5, 15228, Note_on_c, 3, 35, 80
5, 15321, Note_on_c, 3, 35, 0
5, 15345, Note_on_c, 3, 36, 80
5, 15580, Note_on_c, 3, 37, 80
5, 15585, Note_on_c, 3, 36, 0
5, 15829, Note_on_c, 3, 37, 0
5, 15829, Note_on_c, 3, 35, 80
5, 15883, Note_on_c, 3, 35, 0
5, 15954, Note_on_c, 3, 47, 80
5, 16061, Note_on_c, 3, 47, 0
5, 16061, Note_on_c, 3, 45, 80
5, 16174, Note_on_c, 3, 45, 0
5, 16177, Note_on_c, 3, 43, 80
5, 16295, Note_on_c, 3, 42, 80
5, 16303, Note_on_c, 3, 43, 0
5, 16404, Note_on_c, 3, 42, 0
5, 16405, Note_on_c, 3, 40, 80
5, 16520, Note_on_c, 3, 39, 80
5, 16526, Note_on_c, 3, 40, 0
5, 16778, Note_on_c, 3, 39, 0
5, 16886, Note_on_c, 3, 39, 80
5, 17003, Note_on_c, 3, 39, 0
5, 17008, Note_on_c, 3, 40, 80
5, 17116, Note_on_c, 3, 40, 0
5, 17117, Note_on_c, 3, 43, 80
5, 17176, Note_on_c, 3, 40, 80
5, 17180, Note_on_c, 3, 43, 0
5, 17243, Note_on_c, 3, 40, 0
5, 17244, Note_on_c, 3, 45, 80
5, 17373, Note_on_c, 3, 43, 80
5, 17379, Note_on_c, 3, 45, 0
5, 17493, Note_on_c, 3, 42, 80
5, 17495, Note_on_c, 3, 43, 0
5, 17616, Note_on_c, 3, 42, 0
5, 17616, Note_on_c, 3, 43, 80
5, 17736, Note_on_c, 3, 45, 80
5, 17737, Note_on_c, 3, 43, 0
5, 17851, Note_on_c, 3, 45, 0
5, 17855, Note_on_c, 3, 47, 80
5, 17978, Note_on_c, 3, 48, 80
5, 17979, Note_on_c, 3, 47, 0
5, 18021, Note_on_c, 3, 48, 0
5, 18091, Note_on_c, 3, 36, 80
5, 18163, Note_on_c, 3, 36, 0
5, 18215, Note_on_c, 3, 31, 80
5, 18319, Note_on_c, 3, 31, 0
5, 18332, Note_on_c, 3, 33, 80
5, 18399, Note_on_c, 3, 33, 0
5, 18450, Note_on_c, 3, 35, 80
5, 18634, Note_on_c, 3, 35, 0
5, 18698, Note_on_c, 3, 28, 80
5, 18862, Note_on_c, 3, 28, 0
5, 18951, Note_on_c, 3, 31, 80
5, 19143, Note_on_c, 3, 31, 0
5, 19184, Note_on_c, 3, 35, 80
5, 19388, Note_on_c, 3, 35, 0
5, 19428, Note_on_c, 3, 40, 80
5, 19616, Note_on_c, 3, 40, 0
5, 19672, Note_on_c, 3, 28, 80
5, 19894, Note_on_c, 3, 28, 0
5, 20154, Note_on_c, 3, 33, 80
5, 20379, Note_on_c, 3, 35, 80
5, 20385, Note_on_c, 3, 33, 0
5, 20612, Note_on_c, 3, 36, 80
5, 20621, Note_on_c, 3, 35, 0
5, 20862, Note_on_c, 3, 38, 80
5, 20868, Note_on_c, 3, 36, 0
5, 21107, Note_on_c, 3, 38, 0
5, 21211, Note_on_c, 3, 31, 80
5, 21333, Note_on_c, 3, 33, 80
5, 21334, Note_on_c, 3, 31, 0
5, 21453, Note_on_c, 3, 35, 80
5, 21456, Note_on_c, 3, 33, 0
5, 21536, Note_on_c, 3, 35, 0
5, 21573, Note_on_c, 3, 36, 80
5, 22074, Note_on_c, 3, 36, 0
5, 22296, Note_on_c, 3, 35, 80
5, 22567, Note_on_c, 3, 35, 0
5, 22787, Note_on_c, 3, 33, 80
5, 23000, Note_on_c, 3, 33, 0
5, 23022, Note_on_c, 3, 31, 80
5, 23105, Note_on_c, 3, 31, 0
5, 23155, Note_on_c, 3, 36, 80
5, 23209, Note_on_c, 3, 36, 0
5, 23271, Note_on_c, 3, 38, 80
5, 23410, Note_on_c, 3, 38, 0
5, 23503, Note_on_c, 3, 26, 80
5, 23675, Note_on_c, 3, 26, 0
5, 23750, Note_on_c, 3, 31, 80
5, 23760, Control_c, 3, 7, 105
5, 23760, Control_c, 3, 10, 85
5, 23760, Note_on_c, 3, 31, 80
5, 23938, Note_on_c, 3, 31, 0
5, 23984, Note_on_c, 3, 31, 0
5, 23985, Note_on_c, 3, 43, 80
5, 24207, Note_on_c, 3, 43, 0
5, 24211, Note_on_c, 3, 45, 80
5, 24443, Note_on_c, 3, 47, 80
5, 24446, Note_on_c, 3, 45, 0
5, 24691, Note_on_c, 3, 47, 0
5, 24819, Note_on_c, 3, 35, 80
5, 24900, Note_on_c, 3, 35, 0
5, 24945, Note_on_c, 3, 36, 80
5, 25064, Note_on_c, 3, 38, 80
5, 25066, Note_on_c, 3, 36, 0
5, 25182, Note_on_c, 3, 38, 0
5, 25189, Note_on_c, 3, 40, 80
5, 25268, Note_on_c, 3, 40, 0
5, 25314, Note_on_c, 3, 35, 80
5, 25394, Note_on_c, 3, 35, 0
5, 25433, Note_on_c, 3, 36, 80
5, 25534, Note_on_c, 3, 36, 0
5, 25556, Note_on_c, 3, 33, 80
5, 25618, Note_on_c, 3, 33, 0
5, 25662, Note_on_c, 3, 38, 80
5, 25733, Note_on_c, 3, 38, 0
5, 25789, Note_on_c, 3, 26, 80
5, 25854, Note_on_c, 3, 26, 0
5, 25916, Note_on_c, 3, 31, 80
5, 26058, Note_on_c, 3, 31, 0
5, 26157, Note_on_c, 3, 38, 80
5, 26391, Note_on_c, 3, 40, 80
5, 26393, Note_on_c, 3, 38, 0
5, 26621, Note_on_c, 3, 42, 80
5, 26627, Note_on_c, 3, 40, 0
5, 26877, Note_on_c, 3, 42, 0
5, 26991, Note_on_c, 3, 42, 80
5, 27063, Note_on_c, 3, 42, 0
5, 27106, Note_on_c, 3, 43, 80
5, 27216, Note_on_c, 3, 43, 0
5, 27219, Note_on_c, 3, 45, 80
5, 27353, Note_on_c, 3, 45, 0
5, 27354, Note_on_c, 3, 47, 80
5, 27432, Note_on_c, 3, 47, 0
5, 27476, Note_on_c, 3, 42, 80
5, 27545, Note_on_c, 3, 42, 0
5, 27596, Note_on_c, 3, 43, 80
5, 27713, Note_on_c, 3, 43, 0
5, 27717, Note_on_c, 3, 40, 80
5, 27817, Note_on_c, 3, 40, 0
5, 27831, Note_on_c, 3, 45, 80
5, 27895, Note_on_c, 3, 45, 0
5, 27952, Note_on_c, 3, 33, 80
5, 28015, Note_on_c, 3, 33, 0
5, 28095, Note_on_c, 3, 38, 80
5, 28347, Note_on_c, 3, 38, 0
5, 29488, Note_on_c, 3, 31, 80
5, 29688, Note_on_c, 3, 31, 0
5, 29725, Note_on_c, 3, 35, 80
5, 29970, Note_on_c, 3, 36, 80
5, 29978, Note_on_c, 3, 35, 0
5, 30210, Note_on_c, 3, 38, 80
5, 30214, Note_on_c, 3, 36, 0
5, 30694, Note_on_c, 3, 36, 80
5, 30701, Note_on_c, 3, 38, 0
5, 30935, Note_on_c, 3, 35, 80
5, 30943, Note_on_c, 3, 36, 0
5, 31376, Note_on_c, 3, 35, 0
5, 31404, Note_on_c, 3, 33, 80
5, 31626, Note_on_c, 3, 33, 0
5, 31651, Note_on_c, 3, 35, 80
5, 31920, Note_on_c, 3, 35, 0
5, 32022, Note_on_c, 3, 35, 80
5, 32128, Note_on_c, 3, 35, 0
5, 32150, Note_on_c, 3, 36, 80
5, 32269, Note_on_c, 3, 38, 80
5, 32270, Note_on_c, 3, 36, 0
5, 32348, Note_on_c, 3, 38, 0
5, 32383, Note_on_c, 3, 40, 80
5, 32464, Note_on_c, 3, 40, 0
5, 32501, Note_on_c, 3, 35, 80
5, 32567, Note_on_c, 3, 35, 0
5, 32628, Note_on_c, 3, 36, 80
5, 32741, Note_on_c, 3, 36, 0
5, 32755, Note_on_c, 3, 33, 80
5, 32820, Note_on_c, 3, 33, 0
5, 32864, Note_on_c, 3, 38, 80
5, 32928, Note_on_c, 3, 38, 0
5, 32985, Note_on_c, 3, 26, 80
5, 33055, Note_on_c, 3, 26, 0
5, 33106, Note_on_c, 3, 31, 80
5, 34801, Note_on_c, 3, 31, 0
5, 35496, Note_on_c, 3, 43, 80
5, 35740, Note_on_c, 3, 45, 80
5, 35744, Note_on_c, 3, 43, 0
5, 35937, Note_on_c, 3, 45, 0
5, 35976, Note_on_c, 3, 47, 80
5, 36207, Note_on_c, 3, 47, 0
5, 36221, Note_on_c, 3, 45, 80
5, 36459, Note_on_c, 3, 43, 80
5, 36462, Note_on_c, 3, 45, 0
5, 36682, Note_on_c, 3, 48, 80
5, 36683, Note_on_c, 3, 43, 0
5, 36920, Note_on_c, 3, 48, 0
5, 37434, Note_on_c, 3, 33, 80
5, 37653, Note_on_c, 3, 35, 80
5, 37656, Note_on_c, 3, 33, 0
5, 37888, Note_on_c, 3, 36, 80
5, 37890, Note_on_c, 3, 35, 0
5, 38122, Note_on_c, 3, 38, 80
5, 38123, Note_on_c, 3, 36, 0
5, 38366, Note_on_c, 3, 38, 0
5, 38483, Note_on_c, 3, 42, 80
5, 38571, Note_on_c, 3, 42, 0
5, 38605, Note_on_c, 3, 43, 80
5, 38726, Note_on_c, 3, 43, 0
5, 38729, Note_on_c, 3, 39, 80
5, 38849, Note_on_c, 3, 39, 0
5, 38865, Note_on_c, 3, 40, 80
5, 38955, Note_on_c, 3, 40, 0
5, 38988, Note_on_c, 3, 35, 80
5, 39081, Note_on_c, 3, 35, 0
5, 39105, Note_on_c, 3, 36, 80
5, 39340, Note_on_c, 3, 37, 80
5, 39345, Note_on_c, 3, 36, 0
5, 39589, Note_on_c, 3, 37, 0
5, 39589, Note_on_c, 3, 35, 80
5, 39643, Note_on_c, 3, 35, 0
5, 39714, Note_on_c, 3, 47, 80
5, 39821, Note_on_c, 3, 47, 0
5, 39821, Note_on_c, 3, 45, 80
5, 39934, Note_on_c, 3, 45, 0
5, 39937, Note_on_c, 3, 43, 80
5, 40055, Note_on_c, 3, 42, 80
5, 40063, Note_on_c, 3, 43, 0
5, 40164, Note_on_c, 3, 42, 0
5, 40165, Note_on_c, 3, 40, 80
5, 40280, Note_on_c, 3, 39, 80
5, 40286, Note_on_c, 3, 40, 0
5, 40538, Note_on_c, 3, 39, 0
5, 40646, Note_on_c, 3, 39, 80
5, 40763, Note_on_c, 3, 39, 0
5, 40768, Note_on_c, 3, 40, 80
5, 40876, Note_on_c, 3, 40, 0
5, 40877, Note_on_c, 3, 43, 80
5, 40936, Note_on_c, 3, 40, 80
5, 40940, Note_on_c, 3, 43, 0
5, 41003, Note_on_c, 3, 40, 0
5, 41004, Note_on_c, 3, 45, 80
5, 41133, Note_on_c, 3, 43, 80
5, 41139, Note_on_c, 3, 45, 0
5, 41253, Note_on_c, 3, 42, 80
5, 41255, Note_on_c, 3, 43, 0
5, 41376, Note_on_c, 3, 42, 0
5, 41376, Note_on_c, 3, 43, 80
5, 41496, Note_on_c, 3, 45, 80
5, 41497, Note_on_c, 3, 43, 0
5, 41611, Note_on_c, 3, 45, 0
5, 41615, Note_on_c, 3, 47, 80
5, 41738, Note_on_c, 3, 48, 80
5, 41739, Note_on_c, 3, 47, 0
5, 41781, Note_on_c, 3, 48, 0
5, 41851, Note_on_c, 3, 36, 80
5, 41923, Note_on_c, 3, 36, 0
5, 41975, Note_on_c, 3, 31, 80
5, 42079, Note_on_c, 3, 31, 0
5, 42092, Note_on_c, 3, 33, 80
5, 42159, Note_on_c, 3, 33, 0
5, 42210, Note_on_c, 3, 35, 80
5, 42394, Note_on_c, 3, 35, 0
5, 42458, Note_on_c, 3, 28, 80
5, 42622, Note_on_c, 3, 28, 0
5, 42711, Note_on_c, 3, 31, 80
5, 42903, Note_on_c, 3, 31, 0
5, 42944, Note_on_c, 3, 35, 80
5, 43148, Note_on_c, 3, 35, 0
5, 43188, Note_on_c, 3, 40, 80
5, 43376, Note_on_c, 3, 40, 0
5, 43432, Note_on_c, 3, 28, 80
5, 43654, Note_on_c, 3, 28, 0
5, 43914, Note_on_c, 3, 33, 80
5, 44139, Note_on_c, 3, 35, 80
5, 44145, Note_on_c, 3, 33, 0
5, 44372, Note_on_c, 3, 36, 80
5, 44381, Note_on_c, 3, 35, 0
5, 44622, Note_on_c, 3, 38, 80
5, 44628, Note_on_c, 3, 36, 0
5, 44867, Note_on_c, 3, 38, 0
5, 44971, Note_on_c, 3, 31, 80
5, 45093, Note_on_c, 3, 33, 80
5, 45094, Note_on_c, 3, 31, 0
5, 45213, Note_on_c, 3, 35, 80
5, 45216, Note_on_c, 3, 33, 0
5, 45296, Note_on_c, 3, 35, 0
5, 45333, Note_on_c, 3, 36, 80
5, 45834, Note_on_c, 3, 36, 0
5, 46056, Note_on_c, 3, 35, 80
5, 46327, Note_on_c, 3, 35, 0
5, 46547, Note_on_c, 3, 33, 80
5, 46760, Note_on_c, 3, 33, 0
5, 46782, Note_on_c, 3, 31, 80
5, 46865, Note_on_c, 3, 31, 0
5, 46915, Note_on_c, 3, 36, 80
5, 46969, Note_on_c, 3, 36, 0
5, 47031, Note_on_c, 3, 38, 80
5, 47170, Note_on_c, 3, 38, 0
5, 47263, Note_on_c, 3, 26, 80
5, 47435, Note_on_c, 3, 26, 0
5, 47510, Note_on_c, 3, 31, 80
5, 48929, Note_on_c, 3, 31, 0
5, 48951, Note_on_c, 3, 43, 70
5, 49191, Note_on_c, 3, 45, 83
5, 49196, Note_on_c, 3, 43, 0
5, 49426, Note_on_c, 3, 47, 89
5, 49431, Note_on_c, 3, 45, 0
5, 49627, Note_on_c, 3, 47, 0
5, 49664, Note_on_c, 3, 48, 83
5, 50157, Note_on_c, 3, 47, 88
5, 50164, Note_on_c, 3, 48, 0
5, 50401, Note_on_c, 3, 45, 82
5, 50408, Note_on_c, 3, 47, 0
5, 50869, Note_on_c, 3, 44, 80
5, 50878, Note_on_c, 3, 45, 0
5, 51114, Note_on_c, 3, 45, 81
5, 51116, Note_on_c, 3, 44, 0
5, 51299, Note_on_c, 3, 45, 0
5, 51360, Note_on_c, 3, 38, 82
5, 51580, Note_on_c, 3, 40, 75
5, 51581, Note_on_c, 3, 38, 0
5, 51779, Note_on_c, 3, 40, 0
5, 51806, Note_on_c, 3, 33, 78
5, 52029, Note_on_c, 3, 33, 0
5, 52049, Note_on_c, 3, 35, 87
5, 52298, Note_on_c, 3, 37, 87
5, 52304, Note_on_c, 3, 35, 0
5, 52538, Note_on_c, 3, 37, 0
5, 52539, Note_on_c, 3, 38, 87
5, 53198, Note_on_c, 3, 38, 0
5, 53268, Note_on_c, 3, 35, 83
5, 53757, Note_on_c, 3, 33, 80
5, 53758, Note_on_c, 3, 35, 0
5, 53995, Note_on_c, 3, 35, 85
5, 54001, Note_on_c, 3, 33, 0
5, 54197, Note_on_c, 3, 35, 0
5, 54240, Note_on_c, 3, 40, 76
5, 54477, Note_on_c, 3, 40, 0
5, 54477, Note_on_c, 3, 42, 83
5, 54688, Note_on_c, 3, 42, 0
5, 54718, Note_on_c, 3, 35, 78
5, 54945, Note_on_c, 3, 37, 86
5, 54954, Note_on_c, 3, 35, 0
5, 55174, Note_on_c, 3, 39, 84
5, 55177, Note_on_c, 3, 37, 0
5, 55420, Note_on_c, 3, 40, 82
5, 55423, Note_on_c, 3, 39, 0
5, 55895, Note_on_c, 3, 38, 84
5, 55898, Note_on_c, 3, 40, 0
5, 56133, Note_on_c, 3, 36, 85
5, 56141, Note_on_c, 3, 38, 0
5, 56608, Note_on_c, 3, 35, 85
5, 56613, Note_on_c, 3, 36, 0
5, 56849, Note_on_c, 3, 33, 80
5, 56851, Note_on_c, 3, 35, 0
5, 57100, Note_on_c, 3, 35, 83
5, 57106, Note_on_c, 3, 33, 0
5, 57343, Note_on_c, 3, 36, 77
5, 57347, Note_on_c, 3, 35, 0
5, 57592, Note_on_c, 3, 38, 82
5, 57598, Note_on_c, 3, 36, 0
5, 57834, Note_on_c, 3, 38, 0
5, 57945, Note_on_c, 3, 31, 82
5, 58052, Note_on_c, 3, 31, 0
5, 58071, Note_on_c, 3, 33, 84
5, 58191, Note_on_c, 3, 35, 86
5, 58193, Note_on_c, 3, 33, 0
5, 58283, Note_on_c, 3, 35, 0
5, 58307, Note_on_c, 3, 36, 83
5, 58566, Note_on_c, 3, 36, 0
5, 58673, Note_on_c, 3, 36, 80
5, 58787, Note_on_c, 3, 38, 78
5, 58794, Note_on_c, 3, 36, 0
5, 58887, Note_on_c, 3, 38, 0
5, 58906, Note_on_c, 3, 40, 75
5, 58985, Note_on_c, 3, 40, 0
5, 59024, Note_on_c, 3, 41, 86
5, 59279, Note_on_c, 3, 41, 0
5, 59387, Note_on_c, 3, 40, 81
5, 59479, Note_on_c, 3, 40, 0
5, 59506, Note_on_c, 3, 38, 82
5, 59623, Note_on_c, 3, 38, 0
5, 59623, Note_on_c, 3, 36, 75
5, 59725, Note_on_c, 3, 36, 0
5, 59741, Note_on_c, 3, 35, 84
5, 59868, Note_on_c, 3, 33, 80
5, 59870, Note_on_c, 3, 35, 0
5, 59981, Note_on_c, 3, 33, 0
5, 59985, Note_on_c, 3, 40, 86
5, 60139, Note_on_c, 3, 40, 0
5, 60221, Note_on_c, 3, 28, 85
5, 60402, Note_on_c, 3, 28, 0
5, 60452, Note_on_c, 3, 33, 81
5, 60697, Note_on_c, 3, 35, 79
5, 60703, Note_on_c, 3, 33, 0
5, 60935, Note_on_c, 3, 37, 85
5, 60936, Note_on_c, 3, 35, 0
5, 61175, Note_on_c, 3, 37, 0
5, 61177, Note_on_c, 3, 38, 87
5, 61847, Note_on_c, 3, 38, 0
5, 61908, Note_on_c, 3, 40, 77
5, 62148, Note_on_c, 3, 42, 86
5, 62151, Note_on_c, 3, 40, 0
5, 62381, Note_on_c, 3, 42, 0
5, 62381, Note_on_c, 3, 44, 86
5, 62593, Note_on_c, 3, 44, 0
5, 62615, Note_on_c, 3, 45, 87
5, 62855, Note_on_c, 3, 45, 0
5, 62855, Note_on_c, 3, 47, 86
5, 63105, Note_on_c, 3, 48, 84
5, 63106, Note_on_c, 3, 47, 0
5, 63273, Note_on_c, 3, 48, 0
5, 63331, Note_on_c, 3, 38, 86
5, 63563, Note_on_c, 3, 38, 0
5, 63569, Note_on_c, 3, 40, 90
5, 63767, Note_on_c, 3, 40, 0
5, 63821, Note_on_c, 3, 28, 86
5, 63995, Note_on_c, 3, 28, 0
5, 64058, Note_on_c, 3, 33, 84
5, 64684, Note_on_c, 3, 33, 0
5, 64793, Note_on_c, 3, 38, 86
5, 64923, Note_on_c, 3, 36, 83
5, 64927, Note_on_c, 3, 38, 0
5, 65040, Note_on_c, 3, 35, 89
5, 65044, Note_on_c, 3, 36, 0
5, 65269, Note_on_c, 3, 33, 80
5, 65270, Note_on_c, 3, 35, 0
5, 65509, Note_on_c, 3, 31, 84
5, 65516, Note_on_c, 3, 33, 0
5, 65750, Note_on_c, 3, 33, 83
5, 65753, Note_on_c, 3, 31, 0
5, 65992, Note_on_c, 3, 35, 86
5, 65994, Note_on_c, 3, 33, 0
5, 66203, Note_on_c, 3, 35, 0
5, 66230, Note_on_c, 3, 28, 86
5, 66470, Note_on_c, 3, 28, 0
5, 66593, Note_on_c, 3, 33, 83
5, 66711, Note_on_c, 3, 33, 0
5, 66711, Note_on_c, 3, 35, 89
5, 66825, Note_on_c, 3, 36, 81
5, 66826, Note_on_c, 3, 35, 0
5, 66917, Note_on_c, 3, 36, 0
5, 66946, Note_on_c, 3, 26, 90
5, 67181, Note_on_c, 3, 26, 0
5, 67304, Note_on_c, 3, 31, 83
5, 67421, Note_on_c, 3, 33, 83
5, 67422, Note_on_c, 3, 31, 0
5, 67523, Note_on_c, 3, 33, 0
5, 67536, Note_on_c, 3, 35, 87
5, 67600, Note_on_c, 3, 35, 0
5, 67665, Note_on_c, 3, 24, 87
5, 67908, Note_on_c, 3, 24, 0
5, 69122, Note_on_c, 3, 37, 82
5, 69338, Note_on_c, 3, 37, 0
5, 69345, Note_on_c, 3, 42, 89
5, 69566, Note_on_c, 3, 42, 0
5, 69566, Note_on_c, 3, 40, 64
5, 69814, Note_on_c, 3, 39, 85
5, 69822, Note_on_c, 3, 40, 0
5, 70062, Note_on_c, 3, 39, 0
5, 70063, Note_on_c, 3, 40, 81
5, 70303, Note_on_c, 3, 42, 86
5, 70311, Note_on_c, 3, 40, 0
5, 70553, Note_on_c, 3, 42, 0
5, 70561, Note_on_c, 3, 43, 89
5, 70800, Note_on_c, 3, 45, 87
5, 70807, Note_on_c, 3, 43, 0
5, 71038, Note_on_c, 3, 47, 96
5, 71039, Note_on_c, 3, 45, 0
5, 71269, Note_on_c, 3, 48, 72
5, 71278, Note_on_c, 3, 47, 0
5, 71338, Note_on_c, 3, 48, 0
5, 71390, Note_on_c, 3, 47, 94
5, 71502, Note_on_c, 3, 47, 0
5, 71511, Note_on_c, 3, 45, 84
5, 71630, Note_on_c, 3, 45, 0
5, 71631, Note_on_c, 3, 43, 79
5, 71757, Note_on_c, 3, 42, 86
5, 71761, Note_on_c, 3, 43, 0
5, 71855, Note_on_c, 3, 42, 0
5, 71880, Note_on_c, 3, 47, 92
5, 71976, Note_on_c, 3, 47, 0
5, 71996, Note_on_c, 3, 40, 78
5, 72065, Note_on_c, 3, 40, 0
5, 72118, Note_on_c, 3, 43, 88
5, 72201, Note_on_c, 3, 43, 0
5, 72237, Note_on_c, 3, 45, 82
5, 72342, Note_on_c, 3, 45, 0
5, 72354, Note_on_c, 3, 42, 92
5, 72457, Note_on_c, 3, 42, 0
5, 72466, Note_on_c, 3, 47, 94
5, 72546, Note_on_c, 3, 47, 0
5, 72581, Note_on_c, 3, 35, 87
5, 72643, Note_on_c, 3, 35, 0
5, 72709, Note_on_c, 3, 40, 81
5, 72931, Note_on_c, 3, 40, 0
5, 72936, Note_on_c, 3, 42, 87
5, 73174, Note_on_c, 3, 44, 88
5, 73175, Note_on_c, 3, 42, 0
5, 73405, Note_on_c, 3, 45, 83
5, 73406, Note_on_c, 3, 44, 0
5, 73631, Note_on_c, 3, 45, 0
5, 74121, Note_on_c, 3, 38, 85
5, 74365, Note_on_c, 3, 40, 83
5, 74371, Note_on_c, 3, 38, 0
5, 74602, Note_on_c, 3, 42, 93
5, 74606, Note_on_c, 3, 40, 0
5, 74839, Note_on_c, 3, 42, 0
5, 74852, Note_on_c, 3, 43, 90
5, 75089, Note_on_c, 3, 43, 0
5, 75561, Note_on_c, 3, 31, 87
5, 75799, Note_on_c, 3, 31, 0
5, 75807, Note_on_c, 3, 33, 88
5, 76041, Note_on_c, 3, 35, 94
5, 76044, Note_on_c, 3, 33, 0
5, 76303, Note_on_c, 3, 36, 84
5, 76306, Note_on_c, 3, 35, 0
5, 76543, Note_on_c, 3, 36, 0
5, 77011, Note_on_c, 3, 33, 83
5, 77259, Note_on_c, 3, 35, 91
5, 77265, Note_on_c, 3, 33, 0
5, 77502, Note_on_c, 3, 35, 0
5, 77503, Note_on_c, 3, 36, 86
5, 77741, Note_on_c, 3, 38, 90
5, 77743, Note_on_c, 3, 36, 0
5, 77978, Note_on_c, 3, 38, 0
5, 78221, Note_on_c, 3, 39, 91
5, 78460, Note_on_c, 3, 40, 82
5, 78463, Note_on_c, 3, 39, 0
5, 78932, Note_on_c, 3, 40, 0
5, 79168, Note_on_c, 3, 35, 94
5, 79409, Note_on_c, 3, 35, 0
5, 79906, Note_on_c, 3, 36, 88
5, 80264, Note_on_c, 3, 36, 0
5, 80622, Note_on_c, 3, 31, 86
5, 80869, Note_on_c, 3, 31, 0
5, 81591, Note_on_c, 3, 32, 94
5, 81785, Note_on_c, 3, 32, 0
5, 81817, Note_on_c, 3, 28, 79
5, 81991, Note_on_c, 3, 28, 0
5, 82051, Note_on_c, 3, 33, 83
5, 82306, Note_on_c, 3, 33, 0
5, 83018, Note_on_c, 3, 38, 93
5, 83252, Note_on_c, 3, 36, 83
5, 83259, Note_on_c, 3, 38, 0
5, 83488, Note_on_c, 3, 35, 88
5, 83497, Note_on_c, 3, 36, 0
5, 83729, Note_on_c, 3, 33, 79
5, 83730, Note_on_c, 3, 35, 0
5, 83973, Note_on_c, 3, 35, 90
5, 83974, Note_on_c, 3, 33, 0
5, 84228, Note_on_c, 3, 36, 90
5, 84230, Note_on_c, 3, 35, 0
5, 84473, Note_on_c, 3, 36, 0
5, 84951, Note_on_c, 3, 38, 89
5, 85189, Note_on_c, 3, 38, 0
5, 85652, Note_on_c, 3, 40, 86
5, 85893, Note_on_c, 3, 38, 92
5, 85895, Note_on_c, 3, 40, 0
5, 86119, Note_on_c, 3, 36, 86
5, 86123, Note_on_c, 3, 38, 0
5, 86369, Note_on_c, 3, 36, 0
5, 86370, Note_on_c, 3, 43, 88
5, 87805, Note_on_c, 3, 43, 0
5, 87817, Note_on_c, 3, 31, 85
5, 90962, Note_on_c, 3, 31, 0
5, 90962, End_track
6, 0, Start_track
6, 0, MIDI_port, 0
6, 0, End_track
7, 0, Start_track
7, 0, Title_t, "Allein Gott in der Hoeh sei Ehr"
7, 0, MIDI_port, 0
7, 0, End_track
8, 0, Start_track
8, 0, Title_t, "(C.F. in Tenore)"
8, 0, MIDI_port, 0
8, 0, End_track
9, 0, Start_track
9, 0, Title_t, "by J S Bach (BWV 662)"
9, 0, MIDI_port, 0
9, 0, End_track
10, 0, Start_track
10, 0, MIDI_port, 0
10, 0, End_track
11, 0, Start_track
11, 0, Title_t, "Sequenced using WinJammer Professional"
11, 0, MIDI_port, 0
11, 0, End_track
12, 0, Start_track
12, 0, Title_t, "on Windows NT by Martin Robinson."
12, 0, MIDI_port, 0
12, 0, End_track
13, 0, Start_track
13, 0, Title_t, "(c) Martin Robinson 1997"
13, 0, MIDI_port, 0
13, 0, End_track
0, 0, End_of_file
