0, 0, Header, 1, 6, 192
1, 0, Start_track
1, 0, Title_t, "In Dich Hab Ich Gehoffet, Herr - BWV 640 "
1, 0, Title_t, " BWV 640 - Orgelbuchlein - JS Bach - Seq By R Jordan"
1, 0, Copyright_t, "Copyright © 1997 by R Jordan"
1, 0, Text_t, "Richard Jordan - rjordan@earthlink.net"
1, 0, MIDI_port, 0
1, 0, System_exclusive, 10, 65, 16, 66, 18, 64, 0, 127, 0, 65, 247
1, 0, System_exclusive, 10, 65, 16, 66, 18, 64, 65, 1, 1, 125, 247
1, 0, System_exclusive, 10, 65, 16, 66, 18, 64, 66, 1, 1, 124, 247
1, 0, System_exclusive, 10, 65, 16, 66, 18, 64, 67, 1, 1, 123, 247
1, 0, System_exclusive, 10, 65, 16, 66, 18, 64, 68, 1, 1, 122, 247
1, 0, System_exclusive, 10, 65, 16, 66, 18, 64, 69, 1, 1, 121, 247
1, 0, System_exclusive, 10, 65, 16, 66, 18, 64, 70, 1, 1, 120, 247
1, 0, System_exclusive, 10, 65, 16, 66, 18, 64, 71, 1, 1, 119, 247
1, 0, System_exclusive, 10, 65, 16, 66, 18, 64, 72, 1, 1, 118, 247
1, 0, System_exclusive, 10, 65, 16, 66, 18, 64, 73, 1, 1, 117, 247
1, 0, System_exclusive, 10, 65, 16, 66, 18, 64, 64, 1, 1, 126, 247
1, 0, System_exclusive, 10, 65, 16, 66, 18, 64, 74, 1, 1, 116, 247
1, 0, System_exclusive, 10, 65, 16, 66, 18, 64, 75, 1, 1, 115, 247
1, 0, System_exclusive, 10, 65, 16, 66, 18, 64, 76, 1, 1, 114, 247
1, 0, System_exclusive, 10, 65, 16, 66, 18, 64, 77, 1, 1, 113, 247
1, 0, System_exclusive, 10, 65, 16, 66, 18, 64, 78, 1, 1, 112, 247
1, 0, System_exclusive, 10, 65, 16, 66, 18, 64, 79, 1, 1, 111, 247
1, 0, System_exclusive, 137, 65, 16, 66, 18, 72, 0, 0, 0, 4, 0, 0, 7, 15, 0, 0, 4, 2, 4, 0, 4, 0, 0, 0, 2, 13, 2, 0, 5, 3, 4, 15, 5, 5, 4, 14, 4, 4, 2, 0, 4, 3, 6, 1, 6, 14, 7, 6, 6, 1, 7, 3, 2, 0, 2, 13, 0, 2, 0, 6, 0, 2, 0, 2, 0, 2, 0, 2, 0, 2, 0, 2, 0, 2, 0, 2, 0, 0, 0, 0, 0, 0, 0, 0, 0, 0, 0, 0, 0, 0, 0, 0, 0, 3, 0, 3, 0, 0, 4, 11, 5, 5, 0, 0, 0, 0, 0, 0, 0, 6, 0, 0, 4, 0, 0, 0, 7, 15, 0, 0, 7, 15, 0, 0, 0, 0, 0, 0, 0, 0, 6, 1, 0, 1, 0, 1, 119, 247
1, 0, System_exclusive, 10, 65, 16, 66, 18, 64, 16, 21, 0, 27, 247
1, 0, System_exclusive, 10, 65, 16, 66, 18, 64, 16, 21, 0, 27, 247
1, 0, System_exclusive, 10, 65, 16, 66, 18, 64, 17, 2, 16, 29, 247
1, 0, System_exclusive, 10, 65, 16, 66, 18, 64, 18, 2, 16, 28, 247
1, 0, System_exclusive, 10, 65, 16, 66, 18, 64, 19, 2, 16, 27, 247
1, 0, System_exclusive, 10, 65, 16, 66, 18, 64, 20, 2, 16, 26, 247
1, 0, System_exclusive, 10, 65, 16, 66, 18, 64, 21, 2, 16, 25, 247
1, 0, System_exclusive, 10, 65, 16, 66, 18, 64, 22, 2, 16, 24, 247
1, 0, System_exclusive, 10, 65, 16, 66, 18, 64, 23, 2, 16, 23, 247
1, 0, System_exclusive, 10, 65, 16, 66, 18, 64, 24, 2, 16, 22, 247
1, 0, System_exclusive, 10, 65, 16, 66, 18, 64, 25, 2, 16, 21, 247
1, 0, System_exclusive, 10, 65, 16, 66, 18, 64, 16, 2, 16, 30, 247
1, 0, System_exclusive, 10, 65, 16, 66, 18, 64, 26, 2, 16, 20, 247
1, 0, System_exclusive, 10, 65, 16, 66, 18, 64, 27, 2, 16, 19, 247
1, 0, System_exclusive, 10, 65, 16, 66, 18, 64, 28, 2, 16, 18, 247
1, 0, System_exclusive, 10, 65, 16, 66, 18, 64, 29, 2, 16, 17, 247
1, 0, System_exclusive, 10, 65, 16, 66, 18, 64, 30, 2, 16, 16, 247
1, 0, System_exclusive, 10, 65, 16, 66, 18, 64, 31, 2, 16, 15, 247
1, 0, MIDI_port, 0
1, 0, Time_signature, 4, 2, 24, 8
1, 0, Key_signature, 0, "major"
1, 0, Tempo, 800000
1, 0, Marker_t, "Sysex by ""The Canvas Pipe Organ Project"" - rdiodati@sabinanet.it"
1, 0, Marker_t, "In Dich Hab Ich Gehoffet, Herr - BWV 640 - Orgelbuchlein - JS Bach - Seq By R Jordan"
1, 0, End_track
2, 0, Start_track
2, 0, MIDI_port, 0
2, 0, Title_t, "Grand'Organo"
2, 192, MIDI_port, 0
2, 192, System_exclusive, 137, 65, 16, 66, 18, 72, 2, 112, 0, 0, 4, 9, 15, 15, 15, 3, 0, 0, 8, 1, 3, 4, 8, 1, 5, 15, 4, 0, 0, 0, 6, 4, 0, 0, 7, 15, 0, 0, 6, 4, 4, 0, 2, 12, 3, 13, 4, 0, 4, 0, 4, 0, 4, 0, 4, 0, 0, 0, 0, 0, 4, 0, 4, 0, 4, 0, 4, 0, 4, 0, 4, 0, 4, 0, 4, 0, 4, 0, 4, 0, 4, 0, 4, 0, 1, 0, 1, 1, 4, 0, 4, 0, 4, 0, 0, 0, 4, 0, 0, 10, 0, 0, 0, 0, 4, 0, 0, 0, 0, 0, 0, 0, 4, 2, 4, 0, 4, 0, 0, 0, 4, 0, 0, 0, 0, 0, 0, 0, 4, 0, 0, 0, 0, 0, 0, 0, 17, 247
2, 192, System_exclusive, 137, 65, 16, 66, 18, 72, 4, 80, 7, 15, 4, 13, 15, 15, 15, 3, 0, 1, 8, 1, 3, 4, 7, 15, 6, 4, 4, 0, 0, 0, 6, 4, 0, 0, 7, 15, 0, 0, 6, 4, 4, 0, 2, 12, 4, 5, 4, 10, 3, 13, 4, 0, 4, 0, 4, 0, 0, 0, 0, 0, 4, 0, 4, 0, 4, 0, 4, 0, 4, 0, 4, 0, 4, 0, 4, 0, 4, 0, 4, 0, 4, 0, 4, 0, 1, 0, 1, 1, 4, 0, 4, 0, 4, 0, 0, 0, 4, 0, 0, 10, 0, 0, 0, 0, 4, 0, 0, 0, 0, 0, 0, 0, 4, 2, 4, 0, 4, 0, 0, 0, 4, 0, 0, 0, 0, 0, 0, 0, 4, 0, 0, 0, 0, 0, 0, 0, 2, 247
2, 192, System_exclusive, 137, 65, 16, 66, 18, 72, 6, 48, 7, 15, 4, 11, 15, 15, 15, 3, 0, 2, 8, 1, 4, 7, 8, 2, 5, 15, 5, 8, 0, 0, 6, 4, 0, 0, 7, 15, 0, 0, 6, 4, 4, 0, 2, 12, 4, 0, 4, 10, 4, 3, 4, 0, 4, 0, 4, 0, 0, 0, 0, 0, 4, 0, 4, 0, 4, 0, 4, 0, 4, 0, 4, 0, 4, 1, 4, 1, 4, 2, 4, 7, 4, 6, 4, 5, 1, 0, 1, 1, 4, 0, 4, 0, 4, 0, 0, 0, 4, 0, 0, 10, 0, 0, 0, 0, 4, 0, 0, 0, 0, 0, 0, 0, 4, 2, 4, 0, 4, 0, 0, 0, 4, 0, 0, 0, 0, 0, 0, 0, 4, 0, 0, 0, 0, 0, 0, 0, 14, 247
2, 192, System_exclusive, 137, 65, 16, 66, 18, 72, 8, 16, 7, 15, 4, 10, 15, 15, 15, 3, 0, 3, 8, 1, 4, 12, 7, 14, 6, 4, 2, 8, 0, 0, 6, 4, 0, 0, 7, 15, 0, 0, 6, 14, 4, 0, 2, 12, 4, 0, 4, 0, 3, 14, 4, 4, 4, 0, 4, 0, 0, 0, 0, 0, 3, 13, 3, 14, 3, 12, 4, 0, 4, 0, 4, 0, 4, 1, 4, 4, 4, 5, 4, 2, 4, 4, 4, 2, 1, 0, 1, 1, 4, 0, 4, 0, 4, 0, 0, 0, 4, 0, 0, 10, 0, 0, 0, 0, 4, 0, 0, 0, 0, 0, 0, 0, 4, 2, 4, 0, 4, 0, 0, 0, 4, 0, 0, 0, 0, 0, 0, 0, 4, 0, 0, 0, 0, 0, 0, 0, 123, 247
2, 192, System_exclusive, 10, 65, 16, 66, 18, 64, 17, 2, 0, 45, 247
2, 192, System_exclusive, 10, 65, 16, 66, 18, 64, 18, 2, 0, 44, 247
2, 192, System_exclusive, 10, 65, 16, 66, 18, 64, 19, 2, 0, 43, 247
2, 192, System_exclusive, 10, 65, 16, 66, 18, 64, 20, 2, 0, 42, 247
2, 192, System_exclusive, 10, 65, 16, 66, 18, 64, 21, 2, 16, 25, 247
2, 192, System_exclusive, 10, 65, 16, 66, 18, 64, 22, 2, 16, 24, 247
2, 192, MIDI_port, 0
2, 384, MIDI_port, 0
2, 384, System_exclusive, 137, 65, 16, 66, 18, 72, 13, 48, 7, 15, 4, 13, 15, 15, 15, 3, 0, 6, 8, 1, 4, 0, 8, 0, 5, 10, 4, 0, 0, 0, 6, 4, 0, 0, 7, 15, 0, 0, 5, 10, 4, 0, 2, 12, 4, 0, 2, 12, 4, 0, 4, 0, 4, 0, 4, 0, 0, 0, 0, 0, 4, 0, 4, 0, 4, 0, 4, 0, 4, 0, 4, 0, 4, 0, 4, 0, 4, 0, 4, 0, 4, 0, 4, 0, 1, 0, 1, 1, 4, 0, 4, 0, 4, 0, 0, 0, 4, 0, 0, 10, 0, 0, 0, 0, 4, 0, 0, 0, 0, 0, 0, 0, 4, 2, 4, 0, 4, 0, 0, 0, 4, 0, 0, 0, 0, 0, 0, 0, 4, 0, 0, 0, 0, 0, 0, 0, 44, 247
2, 384, System_exclusive, 137, 65, 16, 66, 18, 72, 15, 16, 7, 15, 4, 9, 15, 15, 15, 3, 0, 7, 8, 1, 4, 0, 8, 0, 6, 4, 2, 12, 0, 0, 6, 4, 0, 0, 7, 15, 0, 0, 6, 4, 4, 0, 2, 12, 4, 0, 4, 0, 4, 0, 4, 0, 4, 0, 4, 0, 0, 0, 0, 0, 4, 0, 4, 0, 4, 0, 4, 0, 4, 0, 4, 0, 4, 0, 4, 0, 4, 0, 4, 0, 4, 0, 4, 0, 1, 0, 1, 1, 4, 0, 4, 0, 4, 0, 0, 0, 4, 0, 0, 10, 0, 0, 0, 0, 4, 0, 0, 0, 0, 0, 0, 0, 4, 2, 4, 0, 4, 0, 0, 0, 4, 0, 0, 0, 0, 0, 0, 0, 4, 0, 0, 0, 0, 0, 0, 0, 87, 247
2, 384, System_exclusive, 137, 65, 16, 66, 18, 72, 16, 112, 0, 0, 4, 15, 15, 15, 15, 3, 0, 8, 8, 1, 4, 7, 7, 14, 5, 10, 4, 0, 0, 0, 6, 4, 0, 0, 7, 15, 0, 0, 7, 3, 4, 0, 2, 12, 4, 0, 5, 4, 4, 0, 4, 0, 4, 0, 4, 0, 0, 0, 0, 0, 4, 0, 4, 0, 4, 0, 4, 0, 4, 0, 4, 0, 4, 0, 4, 0, 4, 0, 4, 0, 4, 0, 4, 0, 1, 0, 1, 1, 4, 0, 4, 0, 4, 0, 0, 0, 4, 0, 0, 10, 0, 0, 0, 0, 4, 0, 0, 0, 0, 0, 0, 0, 4, 2, 4, 0, 4, 0, 0, 0, 4, 0, 0, 0, 0, 0, 0, 0, 4, 0, 0, 0, 0, 0, 0, 0, 113, 247
2, 384, System_exclusive, 137, 65, 16, 66, 18, 72, 1, 16, 7, 15, 6, 12, 15, 15, 15, 3, 0, 9, 8, 1, 3, 4, 8, 0, 6, 4, 5, 4, 0, 0, 6, 4, 0, 0, 7, 15, 0, 0, 5, 10, 4, 0, 2, 12, 4, 0, 4, 0, 4, 0, 4, 0, 4, 0, 4, 0, 0, 0, 0, 0, 4, 2, 4, 1, 3, 15, 4, 2, 4, 0, 4, 1, 3, 14, 4, 1, 4, 0, 3, 15, 4, 2, 4, 0, 1, 0, 1, 1, 4, 0, 4, 0, 4, 0, 0, 0, 4, 0, 0, 10, 0, 0, 0, 0, 4, 0, 0, 0, 0, 0, 0, 0, 4, 2, 4, 0, 4, 0, 0, 0, 4, 0, 0, 0, 0, 0, 0, 0, 4, 0, 0, 0, 0, 0, 0, 0, 41, 247
2, 384, System_exclusive, 137, 65, 16, 66, 18, 72, 18, 80, 0, 0, 4, 15, 15, 15, 15, 3, 0, 10, 8, 1, 5, 3, 8, 2, 5, 0, 4, 0, 0, 0, 6, 4, 0, 0, 7, 15, 0, 0, 6, 4, 4, 0, 2, 12, 4, 0, 4, 10, 4, 0, 4, 0, 4, 0, 4, 0, 0, 0, 0, 0, 4, 0, 4, 0, 4, 0, 4, 0, 4, 0, 4, 0, 4, 0, 4, 0, 4, 0, 4, 0, 4, 0, 4, 0, 1, 0, 1, 1, 4, 0, 4, 0, 4, 0, 0, 0, 4, 0, 0, 10, 0, 0, 0, 0, 4, 0, 0, 0, 0, 0, 0, 0, 4, 2, 4, 0, 4, 0, 0, 0, 4, 0, 0, 0, 0, 0, 0, 0, 4, 0, 0, 0, 0, 0, 0, 0, 32, 247
2, 384, System_exclusive, 10, 65, 16, 66, 18, 64, 23, 2, 1, 38, 247
2, 384, System_exclusive, 10, 65, 16, 66, 18, 64, 24, 2, 1, 37, 247
2, 384, System_exclusive, 10, 65, 16, 66, 18, 64, 25, 2, 1, 36, 247
2, 384, System_exclusive, 10, 65, 16, 66, 18, 64, 16, 2, 1, 45, 247
2, 384, System_exclusive, 10, 65, 16, 66, 18, 64, 26, 2, 1, 35, 247
2, 384, MIDI_port, 0
2, 576, MIDI_port, 0
2, 576, System_exclusive, 137, 65, 16, 66, 18, 72, 20, 48, 7, 15, 4, 11, 15, 15, 15, 3, 0, 11, 8, 1, 2, 8, 8, 0, 6, 14, 4, 0, 0, 0, 7, 8, 0, 0, 3, 12, 0, 0, 4, 1, 4, 0, 2, 12, 4, 5, 4, 0, 2, 12, 4, 0, 4, 0, 4, 0, 0, 0, 0, 0, 4, 0, 3, 15, 3, 15, 3, 14, 3, 13, 4, 0, 4, 0, 4, 1, 4, 2, 4, 2, 4, 0, 4, 0, 1, 0, 1, 1, 4, 0, 4, 0, 4, 0, 0, 0, 4, 0, 0, 10, 0, 0, 0, 0, 4, 0, 0, 0, 0, 0, 0, 0, 4, 2, 4, 0, 4, 0, 0, 0, 4, 0, 0, 0, 0, 0, 0, 0, 4, 0, 0, 0, 0, 0, 0, 0, 100, 247
2, 576, System_exclusive, 137, 65, 16, 66, 18, 72, 22, 16, 7, 15, 6, 13, 15, 15, 15, 3, 0, 12, 8, 1, 3, 4, 8, 0, 6, 14, 4, 0, 0, 0, 7, 8, 0, 0, 3, 12, 0, 0, 5, 0, 4, 0, 2, 12, 4, 5, 4, 0, 3, 6, 4, 0, 4, 0, 4, 0, 0, 0, 0, 0, 4, 0, 4, 2, 4, 2, 4, 1, 4, 1, 4, 0, 4, 0, 4, 0, 3, 14, 3, 14, 3, 13, 4, 0, 1, 0, 1, 1, 4, 0, 4, 0, 4, 0, 0, 0, 4, 0, 0, 10, 0, 0, 0, 0, 4, 0, 0, 0, 0, 0, 0, 0, 4, 2, 4, 0, 4, 0, 0, 0, 4, 0, 0, 0, 0, 0, 0, 0, 4, 0, 0, 0, 0, 0, 0, 0, 19, 247
2, 576, System_exclusive, 137, 65, 16, 66, 18, 72, 23, 112, 7, 15, 4, 9, 15, 15, 15, 3, 0, 13, 8, 1, 2, 8, 8, 0, 6, 9, 4, 0, 0, 0, 7, 3, 0, 0, 3, 12, 0, 0, 5, 0, 4, 0, 2, 12, 4, 5, 4, 15, 2, 12, 4, 0, 4, 0, 4, 0, 0, 0, 0, 0, 4, 0, 3, 15, 3, 15, 3, 14, 3, 13, 4, 0, 4, 0, 4, 1, 4, 2, 4, 2, 4, 0, 4, 0, 1, 0, 1, 1, 4, 0, 4, 0, 4, 0, 0, 0, 4, 0, 0, 10, 0, 0, 0, 0, 4, 0, 0, 0, 0, 0, 0, 0, 4, 2, 4, 0, 4, 0, 0, 0, 4, 0, 0, 0, 0, 0, 0, 0, 4, 0, 0, 0, 0, 0, 0, 0, 28, 247
2, 576, System_exclusive, 137, 65, 16, 66, 18, 72, 25, 80, 0, 0, 4, 8, 15, 15, 15, 3, 0, 14, 8, 1, 4, 0, 8, 0, 6, 4, 4, 0, 0, 0, 7, 3, 0, 0, 7, 15, 0, 0, 5, 0, 4, 0, 2, 12, 4, 0, 4, 0, 3, 6, 4, 0, 4, 0, 4, 0, 0, 0, 0, 0, 4, 0, 4, 0, 4, 0, 4, 0, 4, 0, 4, 0, 4, 0, 4, 0, 4, 0, 4, 0, 4, 0, 4, 0, 1, 0, 1, 1, 4, 0, 4, 0, 4, 0, 0, 0, 4, 0, 0, 10, 0, 0, 0, 0, 4, 0, 0, 0, 0, 0, 0, 0, 4, 2, 4, 0, 4, 0, 0, 0, 4, 0, 0, 0, 0, 0, 0, 0, 4, 0, 0, 0, 0, 0, 0, 0, 39, 247
2, 576, System_exclusive, 10, 65, 16, 66, 18, 64, 27, 2, 2, 33, 247
2, 576, System_exclusive, 10, 65, 16, 66, 18, 64, 28, 2, 2, 32, 247
2, 576, System_exclusive, 10, 65, 16, 66, 18, 64, 29, 2, 2, 31, 247
2, 576, System_exclusive, 10, 65, 16, 66, 18, 64, 30, 2, 2, 30, 247
2, 576, System_exclusive, 10, 65, 16, 66, 18, 64, 31, 2, 16, 15, 247
2, 576, MIDI_port, 0
2, 1152, Note_on_c, 0, 64, 87
2, 1509, Note_on_c, 0, 64, 0
2, 1536, Note_on_c, 0, 64, 100
2, 1893, Note_on_c, 0, 64, 0
2, 1919, Note_on_c, 0, 71, 92
2, 2276, Note_on_c, 0, 71, 0
2, 2303, Note_on_c, 0, 66, 99
2, 2496, Note_on_c, 0, 59, 93
2, 2571, Note_on_c, 0, 66, 0
2, 2583, Note_on_c, 0, 59, 0
2, 2592, Note_on_c, 0, 67, 72
2, 2592, Note_on_c, 0, 64, 72
2, 2679, Note_on_c, 0, 64, 0
2, 2679, Note_on_c, 0, 67, 0
2, 2688, Note_on_c, 0, 69, 87
2, 2688, Note_on_c, 0, 63, 87
2, 3134, Note_on_c, 0, 63, 0
2, 3166, Note_on_c, 0, 59, 73
2, 3224, Note_on_c, 0, 69, 0
2, 3253, Note_on_c, 0, 59, 0
2, 3263, Note_on_c, 0, 67, 92
2, 3263, Note_on_c, 0, 64, 92
2, 3350, Note_on_c, 0, 64, 0
2, 3359, Note_on_c, 0, 59, 67
2, 3442, Note_on_c, 0, 67, 0
2, 3446, Note_on_c, 0, 59, 0
2, 3455, Note_on_c, 0, 66, 92
2, 3455, Note_on_c, 0, 60, 92
2, 3634, Note_on_c, 0, 60, 0
2, 3812, Note_on_c, 0, 66, 0
2, 3840, Note_on_c, 0, 64, 100
2, 4197, Note_on_c, 0, 64, 0
2, 4223, Note_on_c, 0, 64, 92
2, 4580, Note_on_c, 0, 64, 0
2, 4607, Note_on_c, 0, 71, 99
2, 4964, Note_on_c, 0, 71, 0
2, 4992, Note_on_c, 0, 73, 87
2, 5349, Note_on_c, 0, 73, 0
2, 5376, Note_on_c, 0, 74, 100
2, 5470, Note_on_c, 0, 62, 73
2, 5557, Note_on_c, 0, 62, 0
2, 5567, Note_on_c, 0, 66, 92
2, 5654, Note_on_c, 0, 66, 0
2, 5663, Note_on_c, 0, 71, 67
2, 5733, Note_on_c, 0, 74, 0
2, 5750, Note_on_c, 0, 71, 0
2, 5759, Note_on_c, 0, 73, 92
2, 5759, Note_on_c, 0, 70, 92
2, 6205, Note_on_c, 0, 70, 0
2, 6240, Note_on_c, 0, 66, 64
2, 6295, Note_on_c, 0, 73, 0
2, 6327, Note_on_c, 0, 66, 0
2, 6336, Note_on_c, 0, 71, 93
2, 6336, Note_on_c, 0, 68, 93
2, 6515, Note_on_c, 0, 68, 0
2, 6528, Note_on_c, 0, 66, 87
2, 6693, Note_on_c, 0, 71, 0
2, 6707, Note_on_c, 0, 66, 0
2, 6720, Note_on_c, 0, 70, 99
2, 6720, Note_on_c, 0, 66, 99
2, 6807, Note_on_c, 0, 66, 0
2, 6815, Note_on_c, 0, 61, 66
2, 6899, Note_on_c, 0, 70, 0
2, 6902, Note_on_c, 0, 61, 0
2, 6912, Note_on_c, 0, 71, 100
2, 6912, Note_on_c, 0, 63, 100
2, 7269, Note_on_c, 0, 63, 0
2, 7269, Note_on_c, 0, 71, 0
2, 7295, Note_on_c, 0, 71, 92
2, 7652, Note_on_c, 0, 71, 0
2, 7680, Note_on_c, 0, 76, 100
2, 7774, Note_on_c, 0, 67, 73
2, 7861, Note_on_c, 0, 67, 0
2, 7871, Note_on_c, 0, 71, 92
2, 7958, Note_on_c, 0, 71, 0
2, 7967, Note_on_c, 0, 64, 67
2, 8037, Note_on_c, 0, 76, 0
2, 8054, Note_on_c, 0, 64, 0
2, 8063, Note_on_c, 0, 73, 92
2, 8063, Note_on_c, 0, 69, 92
2, 8150, Note_on_c, 0, 69, 0
2, 8159, Note_on_c, 0, 67, 68
2, 8246, Note_on_c, 0, 67, 0
2, 8256, Note_on_c, 0, 66, 88
2, 8343, Note_on_c, 0, 66, 0
2, 8352, Note_on_c, 0, 64, 69
2, 8420, Note_on_c, 0, 73, 0
2, 8439, Note_on_c, 0, 64, 0
2, 8447, Note_on_c, 0, 74, 99
2, 8447, Note_on_c, 0, 62, 99
2, 8534, Note_on_c, 0, 62, 0
2, 8544, Note_on_c, 0, 69, 64
2, 8631, Note_on_c, 0, 69, 0
2, 8640, Note_on_c, 0, 66, 93
2, 8804, Note_on_c, 0, 74, 0
2, 8832, Note_on_c, 0, 71, 87
2, 8908, Note_on_c, 0, 66, 0
2, 8927, Note_on_c, 0, 59, 72
2, 9014, Note_on_c, 0, 59, 0
2, 9024, Note_on_c, 0, 64, 99
2, 9189, Note_on_c, 0, 71, 0
2, 9216, Note_on_c, 0, 69, 100
2, 9407, Note_on_c, 0, 62, 92
2, 9470, Note_on_c, 0, 64, 0
2, 9494, Note_on_c, 0, 62, 0
2, 9503, Note_on_c, 0, 67, 67
2, 9503, Note_on_c, 0, 64, 67
2, 9573, Note_on_c, 0, 69, 0
2, 9590, Note_on_c, 0, 64, 0
2, 9599, Note_on_c, 0, 59, 92
2, 9686, Note_on_c, 0, 59, 0
2, 9792, Note_on_c, 0, 60, 88
2, 9860, Note_on_c, 0, 67, 0
2, 9983, Note_on_c, 0, 66, 99
2, 10060, Note_on_c, 0, 60, 0
2, 10340, Note_on_c, 0, 66, 0
2, 10368, Note_on_c, 0, 66, 87
2, 10463, Note_on_c, 0, 64, 72
2, 10550, Note_on_c, 0, 64, 0
2, 10560, Note_on_c, 0, 62, 99
2, 10725, Note_on_c, 0, 66, 0
2, 10739, Note_on_c, 0, 62, 0
2, 10752, Note_on_c, 0, 64, 100
2, 10752, Note_on_c, 0, 64, 100
2, 10931, Note_on_c, 0, 64, 0
2, 11109, Note_on_c, 0, 64, 0
2, 11135, Note_on_c, 0, 71, 92
2, 11492, Note_on_c, 0, 71, 0
2, 11520, Note_on_c, 0, 66, 100
2, 11614, Note_on_c, 0, 59, 73
2, 11701, Note_on_c, 0, 59, 0
2, 11711, Note_on_c, 0, 64, 92
2, 11711, Note_on_c, 0, 67, 92
2, 11788, Note_on_c, 0, 66, 0
2, 11798, Note_on_c, 0, 67, 0
2, 11798, Note_on_c, 0, 64, 0
2, 11903, Note_on_c, 0, 63, 92
2, 11903, Note_on_c, 0, 69, 92
2, 12260, Note_on_c, 0, 69, 0
2, 12260, Note_on_c, 0, 63, 0
2, 12287, Note_on_c, 0, 67, 99
2, 12287, Note_on_c, 0, 59, 99
2, 12466, Note_on_c, 0, 59, 0
2, 12480, Note_on_c, 0, 64, 93
2, 12567, Note_on_c, 0, 64, 0
2, 12576, Note_on_c, 0, 59, 72
2, 12644, Note_on_c, 0, 67, 0
2, 12663, Note_on_c, 0, 59, 0
2, 12672, Note_on_c, 0, 66, 87
2, 12672, Note_on_c, 0, 60, 87
2, 12851, Note_on_c, 0, 60, 0
2, 13029, Note_on_c, 0, 66, 0
2, 13056, Note_on_c, 0, 64, 100
2, 13413, Note_on_c, 0, 64, 0
2, 13439, Note_on_c, 0, 64, 92
2, 13796, Note_on_c, 0, 64, 0
2, 13823, Note_on_c, 0, 63, 99
2, 14180, Note_on_c, 0, 63, 0
2, 14208, Note_on_c, 0, 64, 87
2, 14565, Note_on_c, 0, 64, 0
2, 14592, Note_on_c, 0, 66, 100
2, 14783, Note_on_c, 0, 66, 92
2, 14872, Note_on_c, 0, 66, 0
2, 14879, Note_on_c, 0, 69, 67
2, 14966, Note_on_c, 0, 69, 0
2, 14975, Note_on_c, 0, 71, 92
2, 15038, Note_on_c, 0, 66, 0
2, 15071, Note_on_c, 0, 64, 68
2, 15154, Note_on_c, 0, 71, 0
2, 15168, Note_on_c, 0, 69, 88
2, 15250, Note_on_c, 0, 64, 0
2, 15264, Note_on_c, 0, 63, 69
2, 15347, Note_on_c, 0, 69, 0
2, 15351, Note_on_c, 0, 63, 0
2, 15360, Note_on_c, 0, 67, 100
2, 15360, Note_on_c, 0, 64, 100
2, 15447, Note_on_c, 0, 64, 0
2, 15454, Note_on_c, 0, 63, 73
2, 15541, Note_on_c, 0, 63, 0
2, 15551, Note_on_c, 0, 64, 92
2, 15717, Note_on_c, 0, 67, 0
2, 15743, Note_on_c, 0, 66, 92
2, 15908, Note_on_c, 0, 64, 0
2, 15936, Note_on_c, 0, 63, 88
2, 16100, Note_on_c, 0, 66, 0
2, 16115, Note_on_c, 0, 63, 0
2, 16127, Note_on_c, 0, 64, 99
2, 16224, Note_on_c, 0, 59, 64
2, 16841, Note_on_c, 0, 64, 0
2, 16849, Note_on_c, 0, 59, 0
2, 16849, End_track
3, 0, Start_track
3, 0, MIDI_port, 0
3, 0, Title_t, "Recitativo"
3, 1344, Note_on_c, 1, 59, 103
3, 1433, Note_on_c, 1, 59, 0
3, 1439, Note_on_c, 1, 54, 75
3, 1528, Note_on_c, 1, 54, 0
3, 1536, Note_on_c, 1, 55, 104
3, 1718, Note_on_c, 1, 55, 0
3, 1727, Note_on_c, 1, 59, 97
3, 1727, Note_on_c, 1, 55, 97
3, 1816, Note_on_c, 1, 55, 0
3, 1816, Note_on_c, 1, 59, 0
3, 1823, Note_on_c, 1, 54, 75
3, 1823, Note_on_c, 1, 51, 75
3, 1912, Note_on_c, 1, 51, 0
3, 1912, Note_on_c, 1, 54, 0
3, 1919, Note_on_c, 1, 55, 97
3, 1919, Note_on_c, 1, 52, 97
3, 2008, Note_on_c, 1, 55, 0
3, 2015, Note_on_c, 1, 59, 77
3, 2101, Note_on_c, 1, 52, 0
3, 2104, Note_on_c, 1, 59, 0
3, 2112, Note_on_c, 1, 52, 93
3, 2112, Note_on_c, 1, 59, 93
3, 2294, Note_on_c, 1, 52, 0
3, 2386, Note_on_c, 1, 59, 0
3, 2400, Note_on_c, 1, 54, 73
3, 2489, Note_on_c, 1, 54, 0
3, 2496, Note_on_c, 1, 51, 99
3, 2585, Note_on_c, 1, 51, 0
3, 2592, Note_on_c, 1, 52, 79
3, 2681, Note_on_c, 1, 52, 0
3, 2688, Note_on_c, 1, 54, 92
3, 2777, Note_on_c, 1, 54, 0
3, 2784, Note_on_c, 1, 47, 79
3, 2873, Note_on_c, 1, 47, 0
3, 2880, Note_on_c, 1, 59, 103
3, 2969, Note_on_c, 1, 59, 0
3, 2975, Note_on_c, 1, 54, 75
3, 3064, Note_on_c, 1, 54, 0
3, 3072, Note_on_c, 1, 55, 104
3, 3161, Note_on_c, 1, 55, 0
3, 3166, Note_on_c, 1, 51, 80
3, 3255, Note_on_c, 1, 51, 0
3, 3263, Note_on_c, 1, 52, 97
3, 3537, Note_on_c, 1, 52, 0
3, 3551, Note_on_c, 1, 57, 77
3, 3640, Note_on_c, 1, 57, 0
3, 3648, Note_on_c, 1, 51, 93
3, 3648, Note_on_c, 1, 59, 93
3, 3737, Note_on_c, 1, 59, 0
3, 3744, Note_on_c, 1, 54, 78
3, 3830, Note_on_c, 1, 51, 0
3, 3833, Note_on_c, 1, 54, 0
3, 3840, Note_on_c, 1, 52, 104
3, 3840, Note_on_c, 1, 55, 104
3, 4022, Note_on_c, 1, 55, 0
3, 4022, Note_on_c, 1, 52, 0
3, 4031, Note_on_c, 1, 59, 97
3, 4120, Note_on_c, 1, 59, 0
3, 4127, Note_on_c, 1, 54, 75
3, 4216, Note_on_c, 1, 54, 0
3, 4223, Note_on_c, 1, 55, 97
3, 4312, Note_on_c, 1, 55, 0
3, 4319, Note_on_c, 1, 59, 77
3, 4408, Note_on_c, 1, 59, 0
3, 4416, Note_on_c, 1, 52, 93
3, 4598, Note_on_c, 1, 52, 0
3, 4607, Note_on_c, 1, 54, 102
3, 4800, Note_on_c, 1, 62, 99
3, 4889, Note_on_c, 1, 62, 0
3, 4896, Note_on_c, 1, 56, 79
3, 4985, Note_on_c, 1, 56, 0
3, 4992, Note_on_c, 1, 58, 92
3, 5081, Note_on_c, 1, 58, 0
3, 5088, Note_on_c, 1, 61, 79
3, 5154, Note_on_c, 1, 54, 0
3, 5184, Note_on_c, 1, 55, 103
3, 5362, Note_on_c, 1, 61, 0
3, 5366, Note_on_c, 1, 55, 0
3, 5376, Note_on_c, 1, 59, 104
3, 5376, Note_on_c, 1, 54, 104
3, 5465, Note_on_c, 1, 54, 0
3, 5465, Note_on_c, 1, 59, 0
3, 5470, Note_on_c, 1, 59, 80
3, 5559, Note_on_c, 1, 59, 0
3, 5567, Note_on_c, 1, 62, 97
3, 5656, Note_on_c, 1, 62, 0
3, 5663, Note_on_c, 1, 59, 75
3, 5752, Note_on_c, 1, 59, 0
3, 5759, Note_on_c, 1, 66, 97
3, 5848, Note_on_c, 1, 66, 0
3, 5855, Note_on_c, 1, 61, 77
3, 5944, Note_on_c, 1, 61, 0
3, 5952, Note_on_c, 1, 64, 93
3, 6143, Note_on_c, 1, 64, 102
3, 6232, Note_on_c, 1, 64, 0
3, 6317, Note_on_c, 1, 64, 0
3, 6336, Note_on_c, 1, 62, 99
3, 6518, Note_on_c, 1, 62, 0
3, 6528, Note_on_c, 1, 61, 92
3, 6617, Note_on_c, 1, 61, 0
3, 6624, Note_on_c, 1, 54, 79
3, 6713, Note_on_c, 1, 54, 0
3, 6720, Note_on_c, 1, 64, 103
3, 6902, Note_on_c, 1, 64, 0
3, 7103, Note_on_c, 1, 59, 97
3, 7192, Note_on_c, 1, 59, 0
3, 7199, Note_on_c, 1, 54, 75
3, 7288, Note_on_c, 1, 54, 0
3, 7295, Note_on_c, 1, 55, 97
3, 7477, Note_on_c, 1, 55, 0
3, 7488, Note_on_c, 1, 59, 93
3, 7488, Note_on_c, 1, 55, 93
3, 7577, Note_on_c, 1, 55, 0
3, 7577, Note_on_c, 1, 59, 0
3, 7584, Note_on_c, 1, 54, 78
3, 7584, Note_on_c, 1, 51, 78
3, 7673, Note_on_c, 1, 51, 0
3, 7673, Note_on_c, 1, 54, 0
3, 7680, Note_on_c, 1, 52, 104
3, 7680, Note_on_c, 1, 55, 104
3, 7769, Note_on_c, 1, 55, 0
3, 7862, Note_on_c, 1, 52, 0
3, 7871, Note_on_c, 1, 55, 97
3, 8145, Note_on_c, 1, 55, 0
3, 8159, Note_on_c, 1, 52, 77
3, 8248, Note_on_c, 1, 52, 0
3, 8256, Note_on_c, 1, 57, 93
3, 8621, Note_on_c, 1, 57, 0
3, 8640, Note_on_c, 1, 59, 99
3, 8729, Note_on_c, 1, 59, 0
3, 8736, Note_on_c, 1, 54, 79
3, 8825, Note_on_c, 1, 54, 0
3, 8832, Note_on_c, 1, 55, 92
3, 9288, Note_on_c, 1, 55, 0
3, 9310, Note_on_c, 1, 60, 80
3, 9399, Note_on_c, 1, 60, 0
3, 9407, Note_on_c, 1, 54, 97
3, 9589, Note_on_c, 1, 54, 0
3, 9599, Note_on_c, 1, 55, 97
3, 9688, Note_on_c, 1, 55, 0
3, 9695, Note_on_c, 1, 51, 77
3, 9784, Note_on_c, 1, 51, 0
3, 9792, Note_on_c, 1, 52, 93
3, 10157, Note_on_c, 1, 52, 0
3, 10176, Note_on_c, 1, 54, 99
3, 10265, Note_on_c, 1, 54, 0
3, 10272, Note_on_c, 1, 59, 79
3, 10272, Note_on_c, 1, 51, 79
3, 10361, Note_on_c, 1, 51, 0
3, 10368, Note_on_c, 1, 49, 92
3, 10457, Note_on_c, 1, 49, 0
3, 10464, Note_on_c, 1, 51, 79
3, 10546, Note_on_c, 1, 59, 0
3, 10553, Note_on_c, 1, 51, 0
3, 10560, Note_on_c, 1, 55, 103
3, 10649, Note_on_c, 1, 55, 0
3, 10655, Note_on_c, 1, 54, 75
3, 10744, Note_on_c, 1, 54, 0
3, 10752, Note_on_c, 1, 59, 104
3, 10841, Note_on_c, 1, 59, 0
3, 10846, Note_on_c, 1, 54, 80
3, 10935, Note_on_c, 1, 54, 0
3, 10943, Note_on_c, 1, 59, 97
3, 10943, Note_on_c, 1, 55, 97
3, 11032, Note_on_c, 1, 55, 0
3, 11032, Note_on_c, 1, 59, 0
3, 11039, Note_on_c, 1, 54, 75
3, 11039, Note_on_c, 1, 51, 75
3, 11128, Note_on_c, 1, 51, 0
3, 11128, Note_on_c, 1, 54, 0
3, 11135, Note_on_c, 1, 55, 97
3, 11135, Note_on_c, 1, 52, 97
3, 11224, Note_on_c, 1, 55, 0
3, 11231, Note_on_c, 1, 59, 77
3, 11317, Note_on_c, 1, 52, 0
3, 11320, Note_on_c, 1, 59, 0
3, 11328, Note_on_c, 1, 59, 93
3, 11328, Note_on_c, 1, 52, 93
3, 11510, Note_on_c, 1, 52, 0
3, 11602, Note_on_c, 1, 59, 0
3, 11614, Note_on_c, 1, 54, 80
3, 11703, Note_on_c, 1, 54, 0
3, 11711, Note_on_c, 1, 51, 97
3, 11800, Note_on_c, 1, 51, 0
3, 11807, Note_on_c, 1, 52, 75
3, 11896, Note_on_c, 1, 52, 0
3, 11903, Note_on_c, 1, 54, 97
3, 11992, Note_on_c, 1, 54, 0
3, 11999, Note_on_c, 1, 47, 77
3, 12088, Note_on_c, 1, 47, 0
3, 12096, Note_on_c, 1, 57, 93
3, 12185, Note_on_c, 1, 57, 0
3, 12192, Note_on_c, 1, 54, 78
3, 12281, Note_on_c, 1, 54, 0
3, 12287, Note_on_c, 1, 55, 102
3, 12376, Note_on_c, 1, 55, 0
3, 12384, Note_on_c, 1, 51, 73
3, 12473, Note_on_c, 1, 51, 0
3, 12480, Note_on_c, 1, 52, 99
3, 12754, Note_on_c, 1, 52, 0
3, 12768, Note_on_c, 1, 57, 79
3, 12857, Note_on_c, 1, 57, 0
3, 12864, Note_on_c, 1, 59, 103
3, 12864, Note_on_c, 1, 51, 103
3, 12953, Note_on_c, 1, 59, 0
3, 12959, Note_on_c, 1, 54, 75
3, 13046, Note_on_c, 1, 51, 0
3, 13048, Note_on_c, 1, 54, 0
3, 13056, Note_on_c, 1, 55, 104
3, 13056, Note_on_c, 1, 52, 104
3, 13238, Note_on_c, 1, 52, 0
3, 13238, Note_on_c, 1, 55, 0
3, 13247, Note_on_c, 1, 59, 97
3, 13336, Note_on_c, 1, 59, 0
3, 13343, Note_on_c, 1, 54, 75
3, 13432, Note_on_c, 1, 54, 0
3, 13439, Note_on_c, 1, 59, 97
3, 13439, Note_on_c, 1, 55, 97
3, 13528, Note_on_c, 1, 55, 0
3, 13528, Note_on_c, 1, 59, 0
3, 13535, Note_on_c, 1, 54, 77
3, 13535, Note_on_c, 1, 51, 77
3, 13624, Note_on_c, 1, 51, 0
3, 13624, Note_on_c, 1, 54, 0
3, 13632, Note_on_c, 1, 55, 93
3, 13632, Note_on_c, 1, 52, 93
3, 13814, Note_on_c, 1, 52, 0
3, 13814, Note_on_c, 1, 55, 0
3, 13823, Note_on_c, 1, 54, 102
3, 13912, Note_on_c, 1, 54, 0
3, 13920, Note_on_c, 1, 59, 73
3, 14009, Note_on_c, 1, 59, 0
3, 14016, Note_on_c, 1, 60, 99
3, 14105, Note_on_c, 1, 60, 0
3, 14112, Note_on_c, 1, 57, 79
3, 14294, Note_on_c, 1, 57, 0
3, 14304, Note_on_c, 1, 54, 79
3, 14393, Note_on_c, 1, 54, 0
3, 14400, Note_on_c, 1, 59, 103
3, 14400, Note_on_c, 1, 55, 103
3, 14489, Note_on_c, 1, 55, 0
3, 14495, Note_on_c, 1, 51, 75
3, 14582, Note_on_c, 1, 59, 0
3, 14584, Note_on_c, 1, 51, 0
3, 14592, Note_on_c, 1, 52, 104
3, 14774, Note_on_c, 1, 52, 0
3, 14783, Note_on_c, 1, 58, 97
3, 14872, Note_on_c, 1, 58, 0
3, 14879, Note_on_c, 1, 59, 75
3, 14968, Note_on_c, 1, 59, 0
3, 14975, Note_on_c, 1, 63, 97
3, 15249, Note_on_c, 1, 63, 0
3, 15264, Note_on_c, 1, 59, 78
3, 15446, Note_on_c, 1, 59, 0
3, 15454, Note_on_c, 1, 55, 80
3, 15543, Note_on_c, 1, 55, 0
3, 15551, Note_on_c, 1, 52, 97
3, 15640, Note_on_c, 1, 52, 0
3, 15647, Note_on_c, 1, 59, 75
3, 15736, Note_on_c, 1, 59, 0
3, 15743, Note_on_c, 1, 60, 97
3, 15832, Note_on_c, 1, 60, 0
3, 15839, Note_on_c, 1, 57, 77
3, 15928, Note_on_c, 1, 57, 0
3, 15936, Note_on_c, 1, 54, 93
3, 16025, Note_on_c, 1, 54, 0
3, 16032, Note_on_c, 1, 59, 78
3, 16121, Note_on_c, 1, 59, 0
3, 16127, Note_on_c, 1, 56, 102
3, 16320, Note_on_c, 1, 56, 99
3, 16411, Note_on_c, 1, 56, 0
3, 16416, Note_on_c, 1, 47, 79
3, 16505, Note_on_c, 1, 47, 0
3, 16512, Note_on_c, 1, 52, 92
3, 16857, Note_on_c, 1, 56, 0
3, 16877, Note_on_c, 1, 52, 0
3, 16877, End_track
4, 0, Start_track
4, 0, MIDI_port, 0
4, 0, Title_t, "Pedale"
4, 2112, Note_on_c, 2, 55, 77
4, 2203, Note_on_c, 2, 55, 0
4, 2208, Note_on_c, 2, 49, 63
4, 2299, Note_on_c, 2, 49, 0
4, 2304, Note_on_c, 2, 51, 85
4, 2490, Note_on_c, 2, 51, 0
4, 2496, Note_on_c, 2, 47, 81
4, 2682, Note_on_c, 2, 47, 0
4, 3456, Note_on_c, 2, 48, 81
4, 3547, Note_on_c, 2, 48, 0
4, 3552, Note_on_c, 2, 43, 63
4, 3643, Note_on_c, 2, 43, 0
4, 3648, Note_on_c, 2, 47, 77
4, 3834, Note_on_c, 2, 47, 0
4, 3840, Note_on_c, 2, 40, 87
4, 4212, Note_on_c, 2, 40, 0
4, 4416, Note_on_c, 2, 55, 77
4, 4507, Note_on_c, 2, 55, 0
4, 4512, Note_on_c, 2, 49, 63
4, 4603, Note_on_c, 2, 49, 0
4, 4608, Note_on_c, 2, 50, 85
4, 4794, Note_on_c, 2, 50, 0
4, 4800, Note_on_c, 2, 47, 81
4, 4986, Note_on_c, 2, 47, 0
4, 5184, Note_on_c, 2, 52, 86
4, 5275, Note_on_c, 2, 52, 0
4, 5280, Note_on_c, 2, 46, 61
4, 5371, Note_on_c, 2, 46, 0
4, 5376, Note_on_c, 2, 47, 87
4, 5562, Note_on_c, 2, 47, 0
4, 5568, Note_on_c, 2, 42, 81
4, 5754, Note_on_c, 2, 42, 0
4, 5952, Note_on_c, 2, 54, 77
4, 6043, Note_on_c, 2, 54, 0
4, 6048, Note_on_c, 2, 49, 63
4, 6139, Note_on_c, 2, 49, 0
4, 6144, Note_on_c, 2, 50, 85
4, 6235, Note_on_c, 2, 50, 0
4, 6240, Note_on_c, 2, 47, 59
4, 6331, Note_on_c, 2, 47, 0
4, 6336, Note_on_c, 2, 59, 81
4, 6427, Note_on_c, 2, 59, 0
4, 6432, Note_on_c, 2, 53, 64
4, 6523, Note_on_c, 2, 53, 0
4, 6528, Note_on_c, 2, 54, 76
4, 6714, Note_on_c, 2, 54, 0
4, 6720, Note_on_c, 2, 42, 86
4, 6906, Note_on_c, 2, 42, 0
4, 6912, Note_on_c, 2, 47, 87
4, 7284, Note_on_c, 2, 47, 0
4, 8256, Note_on_c, 2, 57, 77
4, 8347, Note_on_c, 2, 57, 0
4, 8352, Note_on_c, 2, 52, 63
4, 8443, Note_on_c, 2, 52, 0
4, 8448, Note_on_c, 2, 54, 85
4, 8634, Note_on_c, 2, 54, 0
4, 8640, Note_on_c, 2, 50, 81
4, 8826, Note_on_c, 2, 50, 0
4, 9024, Note_on_c, 2, 52, 86
4, 9115, Note_on_c, 2, 52, 0
4, 9120, Note_on_c, 2, 47, 61
4, 9211, Note_on_c, 2, 47, 0
4, 9216, Note_on_c, 2, 48, 87
4, 9402, Note_on_c, 2, 48, 0
4, 9408, Note_on_c, 2, 45, 81
4, 9594, Note_on_c, 2, 45, 0
4, 9792, Note_on_c, 2, 52, 77
4, 9883, Note_on_c, 2, 52, 0
4, 9888, Note_on_c, 2, 46, 63
4, 9979, Note_on_c, 2, 46, 0
4, 9984, Note_on_c, 2, 47, 85
4, 10356, Note_on_c, 2, 47, 0
4, 10560, Note_on_c, 2, 47, 86
4, 10651, Note_on_c, 2, 47, 0
4, 10656, Note_on_c, 2, 42, 61
4, 10747, Note_on_c, 2, 42, 0
4, 10752, Note_on_c, 2, 43, 87
4, 10938, Note_on_c, 2, 43, 0
4, 10944, Note_on_c, 2, 40, 81
4, 11130, Note_on_c, 2, 40, 0
4, 11328, Note_on_c, 2, 55, 77
4, 11419, Note_on_c, 2, 55, 0
4, 11424, Note_on_c, 2, 49, 63
4, 11515, Note_on_c, 2, 49, 0
4, 11520, Note_on_c, 2, 51, 87
4, 11706, Note_on_c, 2, 51, 0
4, 11712, Note_on_c, 2, 47, 81
4, 11898, Note_on_c, 2, 47, 0
4, 12096, Note_on_c, 2, 54, 77
4, 12187, Note_on_c, 2, 54, 0
4, 12192, Note_on_c, 2, 47, 63
4, 12283, Note_on_c, 2, 47, 0
4, 12288, Note_on_c, 2, 52, 85
4, 12379, Note_on_c, 2, 52, 0
4, 12384, Note_on_c, 2, 47, 59
4, 12475, Note_on_c, 2, 47, 0
4, 12480, Note_on_c, 2, 48, 81
4, 12571, Note_on_c, 2, 48, 0
4, 12576, Note_on_c, 2, 43, 64
4, 12667, Note_on_c, 2, 43, 0
4, 12672, Note_on_c, 2, 45, 76
4, 12858, Note_on_c, 2, 45, 0
4, 12864, Note_on_c, 2, 47, 86
4, 13050, Note_on_c, 2, 47, 0
4, 13056, Note_on_c, 2, 40, 87
4, 13428, Note_on_c, 2, 40, 0
4, 13632, Note_on_c, 2, 52, 77
4, 13723, Note_on_c, 2, 52, 0
4, 13728, Note_on_c, 2, 46, 63
4, 13819, Note_on_c, 2, 46, 0
4, 13824, Note_on_c, 2, 47, 85
4, 14010, Note_on_c, 2, 47, 0
4, 14016, Note_on_c, 2, 42, 81
4, 14202, Note_on_c, 2, 42, 0
4, 14400, Note_on_c, 2, 55, 86
4, 14491, Note_on_c, 2, 55, 0
4, 14496, Note_on_c, 2, 49, 61
4, 14587, Note_on_c, 2, 49, 0
4, 14592, Note_on_c, 2, 51, 87
4, 14683, Note_on_c, 2, 51, 0
4, 14687, Note_on_c, 2, 47, 65
4, 14778, Note_on_c, 2, 47, 0
4, 14784, Note_on_c, 2, 59, 81
4, 14875, Note_on_c, 2, 59, 0
4, 14880, Note_on_c, 2, 54, 62
4, 14971, Note_on_c, 2, 54, 0
4, 14976, Note_on_c, 2, 55, 81
4, 15067, Note_on_c, 2, 55, 0
4, 15072, Note_on_c, 2, 52, 63
4, 15163, Note_on_c, 2, 52, 0
4, 15168, Note_on_c, 2, 54, 77
4, 15259, Note_on_c, 2, 54, 0
4, 15264, Note_on_c, 2, 47, 63
4, 15355, Note_on_c, 2, 47, 0
4, 15360, Note_on_c, 2, 52, 87
4, 15451, Note_on_c, 2, 52, 0
4, 15455, Note_on_c, 2, 47, 65
4, 15546, Note_on_c, 2, 47, 0
4, 15552, Note_on_c, 2, 48, 81
4, 15643, Note_on_c, 2, 48, 0
4, 15648, Note_on_c, 2, 43, 62
4, 15739, Note_on_c, 2, 43, 0
4, 15744, Note_on_c, 2, 45, 81
4, 15835, Note_on_c, 2, 45, 0
4, 15840, Note_on_c, 2, 42, 63
4, 15931, Note_on_c, 2, 42, 0
4, 15936, Note_on_c, 2, 47, 77
4, 16122, Note_on_c, 2, 47, 0
4, 16128, Note_on_c, 2, 40, 85
4, 16873, Note_on_c, 2, 40, 0
4, 16873, End_track
5, 0, Start_track
5, 0, MIDI_port, 0
5, 0, Title_t, "Unioni I-II al pedale"
5, 0, End_track
6, 0, Start_track
6, 0, MIDI_port, 0
6, 0, Title_t, "Registrazione (Stops)"
6, 0, End_track
0, 0, End_of_file
