0, 0, Header, 1, 15, 120
1, 0, Start_track
1, 0, Sequencer_specific, 10, 0, 0, 91, 35, 1, 0, 5, 3, 24, 0
1, 0, Instrument_name_t, "Conductor Track"
1, 0, SMPTE_offset, 96, 0, 3, 0, 0
1, 0, MIDI_port, 0
1, 0, Tempo, 1200000
1, 0, Time_signature, 4, 2, 24, 8
1, 0, End_track
2, 0, Start_track
2, 0, Title_t, "Accomp 8"
2, 0, MIDI_port, 0
2, 0, Control_c, 0, 7, 97
2, 0, Control_c, 0, 91, 100
2, 0, Control_c, 0, 10, 68
2, 0, Program_c, 0, 79
2, 116, Note_on_c, 0, 55, 80
2, 155, Note_on_c, 0, 55, 0
2, 191, Note_on_c, 0, 55, 80
2, 259, Note_on_c, 0, 57, 80
2, 261, Note_on_c, 0, 55, 0
2, 323, Note_on_c, 0, 59, 80
2, 327, Note_on_c, 0, 57, 0
2, 447, Note_on_c, 0, 59, 0
2, 453, Note_on_c, 0, 57, 80
2, 518, Note_on_c, 0, 59, 80
2, 524, Note_on_c, 0, 57, 0
2, 579, Note_on_c, 0, 60, 80
2, 583, Note_on_c, 0, 59, 0
2, 648, Note_on_c, 0, 67, 80
2, 649, Note_on_c, 0, 59, 80
2, 654, Note_on_c, 0, 60, 0
2, 706, Note_on_c, 0, 67, 0
2, 721, Note_on_c, 0, 67, 80
2, 723, Note_on_c, 0, 57, 80
2, 725, Note_on_c, 0, 59, 0
2, 792, Note_on_c, 0, 66, 80
2, 797, Note_on_c, 0, 67, 0
2, 856, Note_on_c, 0, 64, 80
2, 858, Note_on_c, 0, 66, 0
2, 859, Note_on_c, 0, 55, 80
2, 863, Note_on_c, 0, 57, 0
2, 925, Note_on_c, 0, 56, 80
2, 928, Note_on_c, 0, 55, 0
2, 981, Note_on_c, 0, 64, 0
2, 1001, Note_on_c, 0, 56, 0
2, 1001, Note_on_c, 0, 57, 80
2, 1001, Note_on_c, 0, 66, 80
2, 1061, Note_on_c, 0, 58, 80
2, 1063, Note_on_c, 0, 64, 80
2, 1064, Note_on_c, 0, 66, 0
2, 1066, Note_on_c, 0, 57, 0
2, 1128, Note_on_c, 0, 62, 80
2, 1129, Note_on_c, 0, 64, 0
2, 1130, Note_on_c, 0, 59, 80
2, 1134, Note_on_c, 0, 58, 0
2, 1193, Note_on_c, 0, 64, 80
2, 1199, Note_on_c, 0, 62, 0
2, 1266, Note_on_c, 0, 64, 0
2, 1266, Note_on_c, 0, 66, 80
2, 1326, Note_on_c, 0, 57, 80
2, 1329, Note_on_c, 0, 59, 0
2, 1388, Note_on_c, 0, 66, 0
2, 1390, Note_on_c, 0, 59, 80
2, 1391, Note_on_c, 0, 67, 80
2, 1395, Note_on_c, 0, 57, 0
2, 1451, Note_on_c, 0, 61, 80
2, 1454, Note_on_c, 0, 59, 0
2, 1516, Note_on_c, 0, 62, 80
2, 1521, Note_on_c, 0, 61, 0
2, 1579, Note_on_c, 0, 66, 80
2, 1582, Note_on_c, 0, 67, 0
2, 1646, Note_on_c, 0, 64, 80
2, 1649, Note_on_c, 0, 66, 0
2, 1705, Note_on_c, 0, 60, 80
2, 1706, Note_on_c, 0, 62, 0
2, 1707, Note_on_c, 0, 69, 80
2, 1709, Note_on_c, 0, 64, 0
2, 1772, Note_on_c, 0, 62, 80
2, 1774, Note_on_c, 0, 69, 0
2, 1774, Note_on_c, 0, 59, 80
2, 1775, Note_on_c, 0, 60, 0
2, 1830, Note_on_c, 0, 62, 0
2, 1839, Note_on_c, 0, 67, 80
2, 1840, Note_on_c, 0, 64, 80
2, 1842, Note_on_c, 0, 59, 0
2, 1905, Note_on_c, 0, 57, 80
2, 1908, Note_on_c, 0, 64, 0
2, 1948, Note_on_c, 0, 67, 0
2, 1971, Note_on_c, 0, 66, 80
2, 2000, Note_on_c, 0, 64, 80
2, 2001, Note_on_c, 0, 66, 0
2, 2036, Note_on_c, 0, 66, 80
2, 2043, Note_on_c, 0, 64, 0
2, 2096, Note_on_c, 0, 67, 80
2, 2097, Note_on_c, 0, 66, 0
2, 2155, Note_on_c, 0, 69, 80
2, 2158, Note_on_c, 0, 67, 0
2, 2214, Note_on_c, 0, 59, 80
2, 2216, Note_on_c, 0, 57, 0
2, 2261, Note_on_c, 0, 69, 0
2, 2281, Note_on_c, 0, 60, 80
2, 2282, Note_on_c, 0, 67, 80
2, 2284, Note_on_c, 0, 59, 0
2, 2346, Note_on_c, 0, 67, 0
2, 2346, Note_on_c, 0, 69, 80
2, 2409, Note_on_c, 0, 71, 80
2, 2410, Note_on_c, 0, 59, 80
2, 2411, Note_on_c, 0, 69, 0
2, 2416, Note_on_c, 0, 60, 0
2, 2452, Note_on_c, 0, 71, 0
2, 2478, Note_on_c, 0, 62, 80
2, 2479, Note_on_c, 0, 59, 0
2, 2480, Note_on_c, 0, 57, 80
2, 2521, Note_on_c, 0, 62, 0
2, 2553, Note_on_c, 0, 62, 80
2, 2553, Note_on_c, 0, 55, 80
2, 2559, Note_on_c, 0, 57, 0
2, 2620, Note_on_c, 0, 61, 80
2, 2622, Note_on_c, 0, 62, 0
2, 2683, Note_on_c, 0, 61, 0
2, 2684, Note_on_c, 0, 59, 80
2, 2733, Note_on_c, 0, 55, 0
2, 2749, Note_on_c, 0, 54, 80
2, 2814, Note_on_c, 0, 54, 0
2, 2814, Note_on_c, 0, 55, 80
2, 2816, Note_on_c, 0, 61, 80
2, 2818, Note_on_c, 0, 59, 0
2, 2879, Note_on_c, 0, 59, 80
2, 2880, Note_on_c, 0, 56, 80
2, 2881, Note_on_c, 0, 61, 0
2, 2882, Note_on_c, 0, 55, 0
2, 2946, Note_on_c, 0, 57, 80
2, 2947, Note_on_c, 0, 56, 0
2, 2948, Note_on_c, 0, 59, 0
2, 3012, Note_on_c, 0, 59, 80
2, 3079, Note_on_c, 0, 61, 80
2, 3083, Note_on_c, 0, 59, 0
2, 3143, Note_on_c, 0, 55, 80
2, 3148, Note_on_c, 0, 57, 0
2, 3207, Note_on_c, 0, 61, 0
2, 3208, Note_on_c, 0, 62, 80
2, 3208, Note_on_c, 0, 57, 80
2, 3210, Note_on_c, 0, 55, 0
2, 3272, Note_on_c, 0, 55, 80
2, 3274, Note_on_c, 0, 57, 0
2, 3305, Note_on_c, 0, 54, 80
2, 3307, Note_on_c, 0, 55, 0
2, 3349, Note_on_c, 0, 55, 80
2, 3352, Note_on_c, 0, 54, 0
2, 3408, Note_on_c, 0, 60, 80
2, 3411, Note_on_c, 0, 62, 0
2, 3441, Note_on_c, 0, 59, 80
2, 3442, Note_on_c, 0, 60, 0
2, 3479, Note_on_c, 0, 60, 80
2, 3482, Note_on_c, 0, 59, 0
2, 3537, Note_on_c, 0, 54, 80
2, 3540, Note_on_c, 0, 55, 0
2, 3568, Note_on_c, 0, 52, 80
2, 3569, Note_on_c, 0, 54, 0
2, 3603, Note_on_c, 0, 54, 80
2, 3606, Note_on_c, 0, 52, 0
2, 3666, Note_on_c, 0, 60, 0
2, 3667, Note_on_c, 0, 59, 80
2, 3698, Note_on_c, 0, 59, 0
2, 3698, Note_on_c, 0, 57, 80
2, 3740, Note_on_c, 0, 59, 80
2, 3741, Note_on_c, 0, 57, 0
2, 3757, Note_on_c, 0, 54, 0
2, 3797, Note_on_c, 0, 59, 0
2, 3817, Note_on_c, 0, 59, 80
2, 3817, Note_on_c, 0, 55, 80
2, 3871, Note_on_c, 0, 55, 0
2, 3872, Note_on_c, 0, 59, 0
2, 3884, Note_on_c, 0, 59, 80
2, 3884, Note_on_c, 0, 55, 80
2, 3950, Note_on_c, 0, 55, 0
2, 3950, Note_on_c, 0, 57, 80
2, 3950, Note_on_c, 0, 60, 80
2, 3956, Note_on_c, 0, 59, 0
2, 4018, Note_on_c, 0, 57, 0
2, 4019, Note_on_c, 0, 59, 80
2, 4019, Note_on_c, 0, 62, 80
2, 4021, Note_on_c, 0, 60, 0
2, 4147, Note_on_c, 0, 61, 80
2, 4148, Note_on_c, 0, 64, 80
2, 4149, Note_on_c, 0, 59, 0
2, 4149, Note_on_c, 0, 62, 0
2, 4214, Note_on_c, 0, 63, 80
2, 4215, Note_on_c, 0, 64, 0
2, 4215, Note_on_c, 0, 66, 80
2, 4219, Note_on_c, 0, 61, 0
2, 4252, Note_on_c, 0, 66, 0
2, 4287, Note_on_c, 0, 64, 80
2, 4288, Note_on_c, 0, 67, 80
2, 4339, Note_on_c, 0, 63, 0
2, 4345, Note_on_c, 0, 64, 0
2, 4345, Note_on_c, 0, 67, 0
2, 4354, Note_on_c, 0, 59, 80
2, 4356, Note_on_c, 0, 55, 80
2, 4384, Note_on_c, 0, 59, 0
2, 4390, Note_on_c, 0, 55, 0
2, 4425, Note_on_c, 0, 55, 80
2, 4425, Note_on_c, 0, 64, 80
2, 4472, Note_on_c, 0, 64, 0
2, 4493, Note_on_c, 0, 54, 80
2, 4493, Note_on_c, 0, 62, 80
2, 4497, Note_on_c, 0, 55, 0
2, 4558, Note_on_c, 0, 62, 0
2, 4559, Note_on_c, 0, 52, 80
2, 4560, Note_on_c, 0, 60, 80
2, 4565, Note_on_c, 0, 54, 0
2, 4623, Note_on_c, 0, 52, 0
2, 4627, Note_on_c, 0, 62, 80
2, 4628, Note_on_c, 0, 57, 80
2, 4630, Note_on_c, 0, 60, 0
2, 4657, Note_on_c, 0, 62, 0
2, 4701, Note_on_c, 0, 62, 80
2, 4770, Note_on_c, 0, 55, 80
2, 4774, Note_on_c, 0, 57, 0
2, 4800, Note_on_c, 0, 62, 0
2, 4839, Note_on_c, 0, 64, 80
2, 4874, Note_on_c, 0, 64, 0
2, 4879, Note_on_c, 0, 55, 0
2, 4912, Note_on_c, 0, 60, 80
2, 4912, Note_on_c, 0, 55, 80
2, 4988, Note_on_c, 0, 60, 0
2, 4988, Note_on_c, 0, 62, 80
2, 5054, Note_on_c, 0, 62, 0
2, 5057, Note_on_c, 0, 60, 80
2, 5058, Note_on_c, 0, 54, 80
2, 5067, Note_on_c, 0, 55, 0
2, 5129, Note_on_c, 0, 54, 0
2, 5131, Note_on_c, 0, 55, 80
2, 5132, Note_on_c, 0, 59, 80
2, 5134, Note_on_c, 0, 60, 0
2, 5179, Note_on_c, 0, 59, 0
2, 5180, Note_on_c, 0, 55, 0
2, 5205, Note_on_c, 0, 55, 80
2, 5206, Note_on_c, 0, 60, 80
2, 5251, Note_on_c, 0, 60, 0
2, 5252, Note_on_c, 0, 55, 0
2, 5277, Note_on_c, 0, 55, 80
2, 5278, Note_on_c, 0, 62, 80
2, 5346, Note_on_c, 0, 53, 80
2, 5347, Note_on_c, 0, 55, 0
2, 5412, Note_on_c, 0, 52, 80
2, 5417, Note_on_c, 0, 53, 0
2, 5467, Note_on_c, 0, 62, 0
2, 5484, Note_on_c, 0, 60, 80
2, 5518, Note_on_c, 0, 59, 80
2, 5519, Note_on_c, 0, 60, 0
2, 5554, Note_on_c, 0, 59, 0
2, 5555, Note_on_c, 0, 60, 80
2, 5622, Note_on_c, 0, 51, 80
2, 5623, Note_on_c, 0, 52, 0
2, 5624, Note_on_c, 0, 57, 80
2, 5626, Note_on_c, 0, 60, 0
2, 5705, Note_on_c, 0, 50, 80
2, 5707, Note_on_c, 0, 57, 0
2, 5707, Note_on_c, 0, 59, 80
2, 5712, Note_on_c, 0, 51, 0
2, 5765, Note_on_c, 0, 50, 0
2, 5766, Note_on_c, 0, 59, 0
2, 5811, Note_on_c, 0, 59, 80
2, 5887, Note_on_c, 0, 60, 80
2, 5890, Note_on_c, 0, 59, 0
2, 5960, Note_on_c, 0, 59, 80
2, 5962, Note_on_c, 0, 60, 0
2, 6032, Note_on_c, 0, 57, 80
2, 6035, Note_on_c, 0, 59, 0
2, 6095, Note_on_c, 0, 57, 0
2, 6097, Note_on_c, 0, 64, 80
2, 6098, Note_on_c, 0, 55, 80
2, 6169, Note_on_c, 0, 54, 80
2, 6170, Note_on_c, 0, 62, 80
2, 6171, Note_on_c, 0, 64, 0
2, 6171, Note_on_c, 0, 55, 0
2, 6236, Note_on_c, 0, 62, 0
2, 6238, Note_on_c, 0, 64, 80
2, 6238, Note_on_c, 0, 55, 80
2, 6241, Note_on_c, 0, 54, 0
2, 6306, Note_on_c, 0, 66, 80
2, 6306, Note_on_c, 0, 57, 80
2, 6307, Note_on_c, 0, 64, 0
2, 6308, Note_on_c, 0, 55, 0
2, 6379, Note_on_c, 0, 67, 80
2, 6380, Note_on_c, 0, 66, 0
2, 6380, Note_on_c, 0, 57, 0
2, 6380, Note_on_c, 0, 59, 80
2, 6443, Note_on_c, 0, 59, 0
2, 6455, Note_on_c, 0, 69, 80
2, 6456, Note_on_c, 0, 60, 80
2, 6459, Note_on_c, 0, 67, 0
2, 6527, Note_on_c, 0, 67, 80
2, 6532, Note_on_c, 0, 69, 0
2, 6596, Note_on_c, 0, 66, 80
2, 6598, Note_on_c, 0, 67, 0
2, 6739, Note_on_c, 0, 66, 0
2, 6740, Note_on_c, 0, 67, 80
2, 6741, Note_on_c, 0, 59, 80
2, 6745, Note_on_c, 0, 60, 0
2, 6815, Note_on_c, 0, 67, 0
2, 6818, Note_on_c, 0, 68, 80
2, 6888, Note_on_c, 0, 69, 80
2, 6889, Note_on_c, 0, 68, 0
2, 6889, Note_on_c, 0, 52, 80
2, 6893, Note_on_c, 0, 59, 0
2, 6948, Note_on_c, 0, 69, 0
2, 6961, Note_on_c, 0, 67, 80
2, 7026, Note_on_c, 0, 66, 80
2, 7027, Note_on_c, 0, 57, 80
2, 7032, Note_on_c, 0, 52, 0
2, 7032, Note_on_c, 0, 67, 0
2, 7094, Note_on_c, 0, 66, 0
2, 7094, Note_on_c, 0, 64, 80
2, 7129, Note_on_c, 0, 63, 80
2, 7131, Note_on_c, 0, 64, 0
2, 7167, Note_on_c, 0, 63, 0
2, 7167, Note_on_c, 0, 64, 80
2, 7235, Note_on_c, 0, 55, 80
2, 7238, Note_on_c, 0, 57, 0
2, 7266, Note_on_c, 0, 54, 80
2, 7268, Note_on_c, 0, 55, 0
2, 7302, Note_on_c, 0, 54, 0
2, 7302, Note_on_c, 0, 55, 80
2, 7502, Note_on_c, 0, 54, 80
2, 7507, Note_on_c, 0, 55, 0
2, 7534, Note_on_c, 0, 52, 80
2, 7536, Note_on_c, 0, 54, 0
2, 7577, Note_on_c, 0, 54, 80
2, 7582, Note_on_c, 0, 52, 0
2, 7644, Note_on_c, 0, 62, 80
2, 7650, Note_on_c, 0, 64, 0
2, 7678, Note_on_c, 0, 62, 0
2, 7680, Note_on_c, 0, 61, 80
2, 7725, Note_on_c, 0, 61, 0
2, 7725, Note_on_c, 0, 62, 80
2, 7763, Note_on_c, 0, 62, 0
2, 7801, Note_on_c, 0, 66, 80
2, 7870, Note_on_c, 0, 66, 0
2, 7871, Note_on_c, 0, 54, 0
2, 7871, Note_on_c, 0, 67, 80
2, 7945, Note_on_c, 0, 67, 0
2, 7945, Note_on_c, 0, 66, 80
2, 7945, Note_on_c, 0, 54, 80
2, 8013, Note_on_c, 0, 66, 0
2, 8016, Note_on_c, 0, 64, 80
2, 8017, Note_on_c, 0, 55, 80
2, 8018, Note_on_c, 0, 54, 0
2, 8081, Note_on_c, 0, 64, 0
2, 8081, Note_on_c, 0, 56, 80
2, 8081, Note_on_c, 0, 62, 80
2, 8084, Note_on_c, 0, 55, 0
2, 8158, Note_on_c, 0, 57, 80
2, 8159, Note_on_c, 0, 61, 80
2, 8160, Note_on_c, 0, 56, 0
2, 8166, Note_on_c, 0, 62, 0
2, 8229, Note_on_c, 0, 63, 80
2, 8232, Note_on_c, 0, 61, 0
2, 8297, Note_on_c, 0, 64, 80
2, 8299, Note_on_c, 0, 63, 0
2, 8344, Note_on_c, 0, 57, 0
2, 8367, Note_on_c, 0, 55, 80
2, 8400, Note_on_c, 0, 54, 80
2, 8402, Note_on_c, 0, 55, 0
2, 8439, Note_on_c, 0, 55, 80
2, 8442, Note_on_c, 0, 54, 0
2, 8505, Note_on_c, 0, 64, 0
2, 8505, Note_on_c, 0, 66, 80
2, 8539, Note_on_c, 0, 66, 0
2, 8539, Note_on_c, 0, 67, 80
2, 8576, Note_on_c, 0, 69, 80
2, 8579, Note_on_c, 0, 67, 0
2, 8640, Note_on_c, 0, 54, 80
2, 8644, Note_on_c, 0, 55, 0
2, 8675, Note_on_c, 0, 52, 80
2, 8677, Note_on_c, 0, 54, 0
2, 8714, Note_on_c, 0, 54, 80
2, 8721, Note_on_c, 0, 52, 0
2, 8779, Note_on_c, 0, 59, 80
2, 8779, Note_on_c, 0, 67, 80
2, 8780, Note_on_c, 0, 69, 0
2, 8780, Note_on_c, 0, 54, 0
2, 8813, Note_on_c, 0, 66, 80
2, 8815, Note_on_c, 0, 67, 0
2, 8849, Note_on_c, 0, 66, 0
2, 8849, Note_on_c, 0, 52, 80
2, 8850, Note_on_c, 0, 67, 80
2, 8852, Note_on_c, 0, 59, 0
2, 9010, Note_on_c, 0, 52, 0
2, 9058, Note_on_c, 0, 66, 80
2, 9058, Note_on_c, 0, 57, 80
2, 9062, Note_on_c, 0, 67, 0
2, 9095, Note_on_c, 0, 66, 0
2, 9096, Note_on_c, 0, 64, 80
2, 9135, Note_on_c, 0, 50, 80
2, 9136, Note_on_c, 0, 66, 80
2, 9137, Note_on_c, 0, 64, 0
2, 9139, Note_on_c, 0, 57, 0
2, 9202, Note_on_c, 0, 66, 0
2, 9202, Note_on_c, 0, 62, 80
2, 9220, Note_on_c, 0, 50, 0
2, 9244, Note_on_c, 0, 62, 0
2, 9269, Note_on_c, 0, 67, 80
2, 9306, Note_on_c, 0, 62, 80
2, 9340, Note_on_c, 0, 64, 80
2, 9341, Note_on_c, 0, 62, 0
2, 9374, Note_on_c, 0, 62, 80
2, 9377, Note_on_c, 0, 64, 0
2, 9410, Note_on_c, 0, 60, 80
2, 9411, Note_on_c, 0, 62, 0
2, 9477, Note_on_c, 0, 59, 80
2, 9479, Note_on_c, 0, 60, 0
2, 9545, Note_on_c, 0, 57, 80
2, 9551, Note_on_c, 0, 59, 0
2, 9553, Note_on_c, 0, 67, 0
2, 9579, Note_on_c, 0, 64, 80
2, 9611, Note_on_c, 0, 59, 80
2, 9612, Note_on_c, 0, 57, 0
2, 9613, Note_on_c, 0, 62, 80
2, 9615, Note_on_c, 0, 64, 0
2, 9645, Note_on_c, 0, 64, 80
2, 9649, Note_on_c, 0, 62, 0
2, 9683, Note_on_c, 0, 66, 80
2, 9683, Note_on_c, 0, 60, 80
2, 9684, Note_on_c, 0, 64, 0
2, 9685, Note_on_c, 0, 59, 0
2, 9754, Note_on_c, 0, 66, 0
2, 9754, Note_on_c, 0, 67, 80
2, 9829, Note_on_c, 0, 69, 80
2, 9831, Note_on_c, 0, 67, 0
2, 9897, Note_on_c, 0, 59, 80
2, 9897, Note_on_c, 0, 67, 80
2, 9898, Note_on_c, 0, 60, 0
2, 9902, Note_on_c, 0, 69, 0
2, 9933, Note_on_c, 0, 57, 80
2, 9934, Note_on_c, 0, 66, 80
2, 9935, Note_on_c, 0, 59, 0
2, 9936, Note_on_c, 0, 67, 0
2, 9972, Note_on_c, 0, 66, 0
2, 9975, Note_on_c, 0, 67, 80
2, 9975, Note_on_c, 0, 59, 80
2, 9979, Note_on_c, 0, 57, 0
2, 10038, Note_on_c, 0, 67, 0
2, 10042, Note_on_c, 0, 59, 0
2, 10054, Note_on_c, 0, 59, 80
2, 10054, Note_on_c, 0, 62, 80
2, 10093, Note_on_c, 0, 62, 0
2, 10094, Note_on_c, 0, 59, 0
2, 10127, Note_on_c, 0, 62, 80
2, 10128, Note_on_c, 0, 59, 80
2, 10198, Note_on_c, 0, 62, 0
2, 10199, Note_on_c, 0, 60, 80
2, 10200, Note_on_c, 0, 59, 0
2, 10200, Note_on_c, 0, 64, 80
2, 10266, Note_on_c, 0, 60, 0
2, 10266, Note_on_c, 0, 64, 0
2, 10266, Note_on_c, 0, 62, 80
2, 10268, Note_on_c, 0, 65, 80
2, 10338, Note_on_c, 0, 65, 0
2, 10338, Note_on_c, 0, 67, 80
2, 10372, Note_on_c, 0, 65, 80
2, 10373, Note_on_c, 0, 67, 0
2, 10408, Note_on_c, 0, 62, 0
2, 10410, Note_on_c, 0, 67, 80
2, 10410, Note_on_c, 0, 64, 80
2, 10411, Note_on_c, 0, 65, 0
2, 10479, Note_on_c, 0, 62, 80
2, 10482, Note_on_c, 0, 64, 0
2, 10547, Note_on_c, 0, 60, 80
2, 10550, Note_on_c, 0, 62, 0
2, 10569, Note_on_c, 0, 60, 0
2, 10598, Note_on_c, 0, 67, 0
2, 10622, Note_on_c, 0, 67, 80
2, 10623, Note_on_c, 0, 55, 80
2, 10658, Note_on_c, 0, 57, 80
2, 10662, Note_on_c, 0, 55, 0
2, 10666, Note_on_c, 0, 67, 0
2, 10699, Note_on_c, 0, 67, 80
2, 10702, Note_on_c, 0, 59, 80
2, 10708, Note_on_c, 0, 57, 0
2, 10762, Note_on_c, 0, 67, 0
2, 10775, Note_on_c, 0, 60, 80
2, 10775, Note_on_c, 0, 66, 80
2, 10776, Note_on_c, 0, 59, 0
2, 10809, Note_on_c, 0, 62, 80
2, 10811, Note_on_c, 0, 60, 0
2, 10841, Note_on_c, 0, 62, 0
2, 10842, Note_on_c, 0, 66, 0
2, 10844, Note_on_c, 0, 64, 80
2, 10913, Note_on_c, 0, 66, 80
2, 10913, Note_on_c, 0, 62, 80
2, 10914, Note_on_c, 0, 64, 0
2, 10953, Note_on_c, 0, 62, 0
2, 10990, Note_on_c, 0, 67, 80
2, 10991, Note_on_c, 0, 66, 0
2, 10991, Note_on_c, 0, 62, 80
2, 11063, Note_on_c, 0, 64, 80
2, 11064, Note_on_c, 0, 62, 0
2, 11100, Note_on_c, 0, 62, 80
2, 11102, Note_on_c, 0, 64, 0
2, 11138, Note_on_c, 0, 62, 0
2, 11138, Note_on_c, 0, 60, 80
2, 11139, Note_on_c, 0, 67, 0
2, 11207, Note_on_c, 0, 62, 80
2, 11208, Note_on_c, 0, 59, 80
2, 11209, Note_on_c, 0, 60, 0
2, 11242, Note_on_c, 0, 57, 80
2, 11243, Note_on_c, 0, 59, 0
2, 11249, Note_on_c, 0, 62, 0
2, 11283, Note_on_c, 0, 59, 80
2, 11283, Note_on_c, 0, 62, 80
2, 11285, Note_on_c, 0, 57, 0
2, 11352, Note_on_c, 0, 61, 80
2, 11353, Note_on_c, 0, 62, 0
2, 11353, Note_on_c, 0, 55, 80
2, 11355, Note_on_c, 0, 59, 0
2, 11387, Note_on_c, 0, 61, 0
2, 11390, Note_on_c, 0, 59, 80
2, 11429, Note_on_c, 0, 59, 0
2, 11429, Note_on_c, 0, 64, 80
2, 11468, Note_on_c, 0, 55, 0
2, 11472, Note_on_c, 0, 64, 0
2, 11499, Note_on_c, 0, 61, 80
2, 11499, Note_on_c, 0, 55, 80
2, 11533, Note_on_c, 0, 61, 0
2, 11533, Note_on_c, 0, 62, 80
2, 11535, Note_on_c, 0, 54, 80
2, 11539, Note_on_c, 0, 55, 0
2, 11574, Note_on_c, 0, 64, 80
2, 11575, Note_on_c, 0, 52, 80
2, 11577, Note_on_c, 0, 62, 0
2, 11578, Note_on_c, 0, 54, 0
2, 11615, Note_on_c, 0, 64, 0
2, 11640, Note_on_c, 0, 54, 80
2, 11641, Note_on_c, 0, 61, 80
2, 11647, Note_on_c, 0, 52, 0
2, 11676, Note_on_c, 0, 55, 80
2, 11677, Note_on_c, 0, 54, 0
2, 11679, Note_on_c, 0, 61, 0
2, 11709, Note_on_c, 0, 62, 80
2, 11711, Note_on_c, 0, 57, 80
2, 11714, Note_on_c, 0, 55, 0
2, 11747, Note_on_c, 0, 64, 80
2, 11749, Note_on_c, 0, 62, 0
2, 11763, Note_on_c, 0, 57, 0
2, 11784, Note_on_c, 0, 64, 0
2, 11787, Note_on_c, 0, 66, 80
2, 11787, Note_on_c, 0, 62, 80
2, 11820, Note_on_c, 0, 66, 0
2, 11852, Note_on_c, 0, 64, 80
2, 11887, Note_on_c, 0, 66, 80
2, 11889, Note_on_c, 0, 64, 0
2, 11924, Note_on_c, 0, 66, 0
2, 11927, Note_on_c, 0, 61, 80
2, 11928, Note_on_c, 0, 62, 0
2, 11928, Note_on_c, 0, 67, 80
2, 12008, Note_on_c, 0, 66, 80
2, 12009, Note_on_c, 0, 61, 0
2, 12009, Note_on_c, 0, 67, 0
2, 12010, Note_on_c, 0, 62, 80
2, 12070, Note_on_c, 0, 66, 0
2, 12073, Note_on_c, 0, 62, 0
2, 12101, Note_on_c, 0, 62, 80
2, 12171, Note_on_c, 0, 62, 0
2, 12171, Note_on_c, 0, 60, 80
2, 12239, Note_on_c, 0, 59, 80
2, 12244, Note_on_c, 0, 60, 0
2, 12315, Note_on_c, 0, 59, 0
2, 12316, Note_on_c, 0, 57, 80
2, 12443, Note_on_c, 0, 57, 0
2, 12465, Note_on_c, 0, 54, 80
2, 12601, Note_on_c, 0, 54, 0
2, 12603, Note_on_c, 0, 55, 80
2, 12675, Note_on_c, 0, 54, 80
2, 12676, Note_on_c, 0, 57, 80
2, 12679, Note_on_c, 0, 55, 0
2, 12750, Note_on_c, 0, 52, 80
2, 12751, Note_on_c, 0, 59, 80
2, 12752, Note_on_c, 0, 54, 0
2, 12756, Note_on_c, 0, 57, 0
2, 12821, Note_on_c, 0, 61, 80
2, 12825, Note_on_c, 0, 59, 0
2, 12887, Note_on_c, 0, 62, 80
2, 12888, Note_on_c, 0, 61, 0
2, 12888, Note_on_c, 0, 50, 80
2, 12891, Note_on_c, 0, 52, 0
2, 12926, Note_on_c, 0, 50, 0
2, 12975, Note_on_c, 0, 60, 80
2, 13046, Note_on_c, 0, 59, 80
2, 13047, Note_on_c, 0, 65, 80
2, 13048, Note_on_c, 0, 60, 0
2, 13051, Note_on_c, 0, 62, 0
2, 13119, Note_on_c, 0, 57, 80
2, 13123, Note_on_c, 0, 59, 0
2, 13169, Note_on_c, 0, 65, 0
2, 13188, Note_on_c, 0, 56, 80
2, 13188, Note_on_c, 0, 64, 80
2, 13191, Note_on_c, 0, 57, 0
2, 13254, Note_on_c, 0, 57, 80
2, 13257, Note_on_c, 0, 56, 0
2, 13257, Note_on_c, 0, 66, 80
2, 13258, Note_on_c, 0, 64, 0
2, 13328, Note_on_c, 0, 66, 0
2, 13328, Note_on_c, 0, 68, 80
2, 13328, Note_on_c, 0, 59, 80
2, 13332, Note_on_c, 0, 57, 0
2, 13437, Note_on_c, 0, 68, 0
2, 13470, Note_on_c, 0, 69, 80
2, 13471, Note_on_c, 0, 60, 80
2, 13476, Note_on_c, 0, 59, 0
2, 13528, Note_on_c, 0, 69, 0
2, 13548, Note_on_c, 0, 65, 80
2, 13567, Note_on_c, 0, 60, 0
2, 13615, Note_on_c, 0, 65, 0
2, 13615, Note_on_c, 0, 64, 80
2, 13616, Note_on_c, 0, 59, 80
2, 13686, Note_on_c, 0, 62, 80
2, 13687, Note_on_c, 0, 64, 0
2, 13740, Note_on_c, 0, 59, 0
2, 13758, Note_on_c, 0, 61, 80
2, 13758, Note_on_c, 0, 52, 80
2, 13762, Note_on_c, 0, 62, 0
2, 13794, Note_on_c, 0, 52, 0
2, 13795, Note_on_c, 0, 54, 80
2, 13796, Note_on_c, 0, 61, 0
2, 13796, Note_on_c, 0, 63, 80
2, 13831, Note_on_c, 0, 54, 0
2, 13832, Note_on_c, 0, 55, 80
2, 13833, Note_on_c, 0, 63, 0
2, 13833, Note_on_c, 0, 64, 80
2, 13900, Note_on_c, 0, 57, 80
2, 13901, Note_on_c, 0, 55, 0
2, 13966, Note_on_c, 0, 64, 0
2, 13966, Note_on_c, 0, 59, 80
2, 13967, Note_on_c, 0, 63, 80
2, 13971, Note_on_c, 0, 57, 0
2, 14037, Note_on_c, 0, 63, 0
2, 14038, Note_on_c, 0, 64, 80
2, 14039, Note_on_c, 0, 60, 80
2, 14042, Note_on_c, 0, 59, 0
2, 14117, Note_on_c, 0, 64, 0
2, 14137, Note_on_c, 0, 66, 80
2, 14165, Note_on_c, 0, 60, 0
2, 14179, Note_on_c, 0, 67, 80
2, 14180, Note_on_c, 0, 64, 80
2, 14181, Note_on_c, 0, 66, 0
2, 14249, Note_on_c, 0, 67, 0
2, 14275, Note_on_c, 0, 69, 80
2, 14280, Note_on_c, 0, 64, 0
2, 14318, Note_on_c, 0, 69, 0
2, 14323, Note_on_c, 0, 71, 80
2, 14325, Note_on_c, 0, 63, 80
2, 14392, Note_on_c, 0, 63, 0
2, 14392, Note_on_c, 0, 69, 80
2, 14393, Note_on_c, 0, 71, 0
2, 14394, Note_on_c, 0, 64, 80
2, 14463, Note_on_c, 0, 66, 80
2, 14464, Note_on_c, 0, 64, 0
2, 14534, Note_on_c, 0, 69, 0
2, 14534, Note_on_c, 0, 71, 80
2, 14574, Note_on_c, 0, 69, 80
2, 14575, Note_on_c, 0, 71, 0
2, 14598, Note_on_c, 0, 69, 0
2, 14613, Note_on_c, 0, 67, 80
2, 14654, Note_on_c, 0, 66, 0
2, 14682, Note_on_c, 0, 64, 80
2, 14742, Note_on_c, 0, 67, 0
2, 14750, Note_on_c, 0, 62, 80
2, 14751, Note_on_c, 0, 69, 80
2, 14752, Note_on_c, 0, 64, 0
2, 14822, Note_on_c, 0, 62, 0
2, 14822, Note_on_c, 0, 60, 80
2, 14891, Note_on_c, 0, 69, 0
2, 14891, Note_on_c, 0, 62, 80
2, 14892, Note_on_c, 0, 59, 80
2, 14895, Note_on_c, 0, 60, 0
2, 15028, Note_on_c, 0, 61, 80
2, 15029, Note_on_c, 0, 64, 80
2, 15031, Note_on_c, 0, 62, 0
2, 15032, Note_on_c, 0, 59, 0
2, 15169, Note_on_c, 0, 62, 80
2, 15171, Note_on_c, 0, 66, 80
2, 15173, Note_on_c, 0, 61, 0
2, 15173, Note_on_c, 0, 64, 0
2, 15208, Note_on_c, 0, 66, 0
2, 15241, Note_on_c, 0, 69, 80
2, 15308, Note_on_c, 0, 67, 80
2, 15312, Note_on_c, 0, 69, 0
2, 15375, Note_on_c, 0, 66, 80
2, 15377, Note_on_c, 0, 67, 0
2, 15420, Note_on_c, 0, 62, 0
2, 15443, Note_on_c, 0, 66, 0
2, 15445, Note_on_c, 0, 64, 80
2, 15511, Note_on_c, 0, 64, 0
2, 15511, Note_on_c, 0, 62, 80
2, 15511, Note_on_c, 0, 50, 80
2, 15581, Note_on_c, 0, 52, 80
2, 15582, Note_on_c, 0, 60, 80
2, 15583, Note_on_c, 0, 62, 0
2, 15589, Note_on_c, 0, 50, 0
2, 15646, Note_on_c, 0, 54, 80
2, 15650, Note_on_c, 0, 52, 0
2, 15676, Note_on_c, 0, 60, 0
2, 15718, Note_on_c, 0, 59, 80
2, 15720, Note_on_c, 0, 55, 80
2, 15721, Note_on_c, 0, 54, 0
2, 15774, Note_on_c, 0, 59, 0
2, 15787, Note_on_c, 0, 62, 80
2, 15789, Note_on_c, 0, 55, 0
2, 15789, Note_on_c, 0, 57, 80
2, 15853, Note_on_c, 0, 62, 0
2, 15855, Note_on_c, 0, 59, 80
2, 15856, Note_on_c, 0, 67, 80
2, 15859, Note_on_c, 0, 57, 0
2, 15920, Note_on_c, 0, 61, 80
2, 15926, Note_on_c, 0, 59, 0
2, 15993, Note_on_c, 0, 61, 0
2, 15993, Note_on_c, 0, 66, 80
2, 15993, Note_on_c, 0, 62, 80
2, 15994, Note_on_c, 0, 67, 0
2, 16037, Note_on_c, 0, 66, 0
2, 16063, Note_on_c, 0, 62, 0
2, 16073, Note_on_c, 0, 60, 80
2, 16074, Note_on_c, 0, 66, 80
2, 16120, Note_on_c, 0, 66, 0
2, 16145, Note_on_c, 0, 66, 80
2, 16145, Note_on_c, 0, 59, 80
2, 16150, Note_on_c, 0, 60, 0
2, 16213, Note_on_c, 0, 67, 80
2, 16214, Note_on_c, 0, 66, 0
2, 16270, Note_on_c, 0, 67, 0
2, 16285, Note_on_c, 0, 69, 80
2, 16353, Note_on_c, 0, 59, 0
2, 16354, Note_on_c, 0, 66, 80
2, 16355, Note_on_c, 0, 69, 0
2, 16355, Note_on_c, 0, 57, 80
2, 16398, Note_on_c, 0, 57, 0
2, 16421, Note_on_c, 0, 66, 0
2, 16421, Note_on_c, 0, 62, 80
2, 16422, Note_on_c, 0, 57, 80
2, 16489, Note_on_c, 0, 55, 80
2, 16491, Note_on_c, 0, 57, 0
2, 16554, Note_on_c, 0, 54, 80
2, 16557, Note_on_c, 0, 55, 0
2, 16624, Note_on_c, 0, 59, 80
2, 16625, Note_on_c, 0, 54, 0
2, 16664, Note_on_c, 0, 59, 0
2, 16694, Note_on_c, 0, 57, 80
2, 16833, Note_on_c, 0, 55, 80
2, 16835, Note_on_c, 0, 57, 0
2, 16872, Note_on_c, 0, 62, 0
2, 16904, Note_on_c, 0, 62, 80
2, 16905, Note_on_c, 0, 57, 80
2, 16910, Note_on_c, 0, 55, 0
2, 16943, Note_on_c, 0, 57, 0
2, 16971, Note_on_c, 0, 59, 80
2, 17038, Note_on_c, 0, 62, 0
2, 17038, Note_on_c, 0, 61, 80
2, 17038, Note_on_c, 0, 57, 80
2, 17040, Note_on_c, 0, 59, 0
2, 17101, Note_on_c, 0, 61, 0
2, 17113, Note_on_c, 0, 62, 80
2, 17175, Note_on_c, 0, 54, 80
2, 17178, Note_on_c, 0, 57, 0
2, 17243, Note_on_c, 0, 54, 0
2, 17243, Note_on_c, 0, 55, 80
2, 17298, Note_on_c, 0, 62, 0
2, 17307, Note_on_c, 0, 57, 80
2, 17307, Note_on_c, 0, 60, 80
2, 17308, Note_on_c, 0, 55, 0
2, 17348, Note_on_c, 0, 60, 0
2, 17375, Note_on_c, 0, 59, 80
2, 17437, Note_on_c, 0, 55, 80
2, 17441, Note_on_c, 0, 57, 0
2, 17472, Note_on_c, 0, 54, 80
2, 17473, Note_on_c, 0, 55, 0
2, 17508, Note_on_c, 0, 55, 80
2, 17511, Note_on_c, 0, 54, 0
2, 17710, Note_on_c, 0, 54, 80
2, 17710, Note_on_c, 0, 57, 80
2, 17711, Note_on_c, 0, 59, 0
2, 17711, Note_on_c, 0, 55, 0
2, 17760, Note_on_c, 0, 57, 0
2, 17761, Note_on_c, 0, 54, 0
2, 17805, Note_on_c, 0, 59, 80
2, 17929, Note_on_c, 0, 59, 0
2, 17943, Note_on_c, 0, 60, 80
2, 18010, Note_on_c, 0, 64, 80
2, 18077, Note_on_c, 0, 62, 80
2, 18078, Note_on_c, 0, 59, 80
2, 18079, Note_on_c, 0, 64, 0
2, 18081, Note_on_c, 0, 60, 0
2, 18144, Note_on_c, 0, 62, 0
2, 18144, Note_on_c, 0, 64, 80
2, 18208, Note_on_c, 0, 59, 0
2, 18208, Note_on_c, 0, 64, 0
2, 18209, Note_on_c, 0, 66, 80
2, 18210, Note_on_c, 0, 57, 80
2, 18258, Note_on_c, 0, 66, 0
2, 18279, Note_on_c, 0, 67, 80
2, 18316, Note_on_c, 0, 66, 80
2, 18319, Note_on_c, 0, 67, 0
2, 18351, Note_on_c, 0, 66, 0
2, 18352, Note_on_c, 0, 55, 80
2, 18353, Note_on_c, 0, 64, 80
2, 18355, Note_on_c, 0, 57, 0
2, 18416, Note_on_c, 0, 57, 80
2, 18417, Note_on_c, 0, 66, 80
2, 18418, Note_on_c, 0, 64, 0
2, 18420, Note_on_c, 0, 55, 0
2, 18481, Note_on_c, 0, 66, 0
2, 18481, Note_on_c, 0, 59, 80
2, 18482, Note_on_c, 0, 67, 80
2, 18484, Note_on_c, 0, 57, 0
2, 18612, Note_on_c, 0, 57, 80
2, 18615, Note_on_c, 0, 59, 0
2, 18676, Note_on_c, 0, 66, 80
2, 18677, Note_on_c, 0, 67, 0
2, 18707, Note_on_c, 0, 66, 0
2, 18708, Note_on_c, 0, 64, 80
2, 18748, Note_on_c, 0, 66, 80
2, 18749, Note_on_c, 0, 55, 80
2, 18751, Note_on_c, 0, 64, 0
2, 18753, Note_on_c, 0, 57, 0
2, 18795, Note_on_c, 0, 66, 0
2, 18818, Note_on_c, 0, 59, 80
2, 18883, Note_on_c, 0, 59, 0
2, 18885, Note_on_c, 0, 64, 80
2, 18967, Note_on_c, 0, 55, 0
2, 19016, Note_on_c, 0, 54, 80
2, 19081, Note_on_c, 0, 54, 0
2, 19082, Note_on_c, 0, 55, 80
2, 19143, Note_on_c, 0, 64, 0
2, 19144, Note_on_c, 0, 63, 80
2, 19145, Note_on_c, 0, 57, 80
2, 19149, Note_on_c, 0, 55, 0
2, 19205, Note_on_c, 0, 59, 80
2, 19207, Note_on_c, 0, 57, 0
2, 19238, Note_on_c, 0, 57, 80
2, 19240, Note_on_c, 0, 59, 0
2, 19262, Note_on_c, 0, 63, 0
2, 19277, Note_on_c, 0, 64, 80
2, 19278, Note_on_c, 0, 55, 80
2, 19281, Note_on_c, 0, 57, 0
2, 19347, Note_on_c, 0, 57, 80
2, 19347, Note_on_c, 0, 66, 80
2, 19348, Note_on_c, 0, 55, 0
2, 19351, Note_on_c, 0, 64, 0
2, 19421, Note_on_c, 0, 66, 0
2, 19421, Note_on_c, 0, 59, 80
2, 19421, Note_on_c, 0, 67, 80
2, 19424, Note_on_c, 0, 57, 0
2, 19486, Note_on_c, 0, 67, 0
2, 19486, Note_on_c, 0, 66, 80
2, 19553, Note_on_c, 0, 66, 0
2, 19554, Note_on_c, 0, 64, 80
2, 19599, Note_on_c, 0, 64, 0
2, 19622, Note_on_c, 0, 62, 80
2, 19655, Note_on_c, 0, 64, 80
2, 19658, Note_on_c, 0, 62, 0
2, 19695, Note_on_c, 0, 58, 80
2, 19697, Note_on_c, 0, 64, 0
2, 19697, Note_on_c, 0, 66, 80
2, 19699, Note_on_c, 0, 59, 0
2, 19762, Note_on_c, 0, 66, 0
2, 19762, Note_on_c, 0, 64, 80
2, 19826, Note_on_c, 0, 64, 0
2, 19827, Note_on_c, 0, 62, 80
2, 19828, Note_on_c, 0, 59, 80
2, 19829, Note_on_c, 0, 58, 0
2, 19862, Note_on_c, 0, 59, 0
2, 19899, Note_on_c, 0, 54, 80
2, 19969, Note_on_c, 0, 54, 0
2, 19971, Note_on_c, 0, 52, 80
2, 20032, Note_on_c, 0, 54, 80
2, 20033, Note_on_c, 0, 60, 80
2, 20035, Note_on_c, 0, 62, 0
2, 20035, Note_on_c, 0, 52, 0
2, 20097, Note_on_c, 0, 60, 0
2, 20098, Note_on_c, 0, 59, 80
2, 20099, Note_on_c, 0, 54, 0
2, 20100, Note_on_c, 0, 55, 80
2, 20144, Note_on_c, 0, 59, 0
2, 20163, Note_on_c, 0, 61, 80
2, 20164, Note_on_c, 0, 57, 80
2, 20166, Note_on_c, 0, 55, 0
2, 20198, Note_on_c, 0, 57, 0
2, 20200, Note_on_c, 0, 55, 80
2, 20236, Note_on_c, 0, 61, 0
2, 20237, Note_on_c, 0, 62, 80
2, 20239, Note_on_c, 0, 54, 80
2, 20240, Note_on_c, 0, 55, 0
2, 20276, Note_on_c, 0, 62, 0
2, 20303, Note_on_c, 0, 64, 80
2, 20304, Note_on_c, 0, 56, 80
2, 20305, Note_on_c, 0, 54, 0
2, 20335, Note_on_c, 0, 62, 80
2, 20337, Note_on_c, 0, 64, 0
2, 20371, Note_on_c, 0, 62, 0
2, 20372, Note_on_c, 0, 61, 80
2, 20373, Note_on_c, 0, 57, 80
2, 20374, Note_on_c, 0, 56, 0
2, 20436, Note_on_c, 0, 61, 0
2, 20436, Note_on_c, 0, 62, 80
2, 20437, Note_on_c, 0, 59, 80
2, 20439, Note_on_c, 0, 57, 0
2, 20468, Note_on_c, 0, 57, 80
2, 20470, Note_on_c, 0, 59, 0
2, 20504, Note_on_c, 0, 62, 0
2, 20504, Note_on_c, 0, 55, 80
2, 20505, Note_on_c, 0, 64, 80
2, 20506, Note_on_c, 0, 57, 0
2, 20537, Note_on_c, 0, 64, 0
2, 20572, Note_on_c, 0, 66, 80
2, 20573, Note_on_c, 0, 57, 80
2, 20578, Note_on_c, 0, 55, 0
2, 20605, Note_on_c, 0, 66, 0
2, 20606, Note_on_c, 0, 64, 80
2, 20643, Note_on_c, 0, 59, 80
2, 20644, Note_on_c, 0, 57, 0
2, 20644, Note_on_c, 0, 62, 80
2, 20645, Note_on_c, 0, 64, 0
2, 20709, Note_on_c, 0, 64, 80
2, 20709, Note_on_c, 0, 61, 80
2, 20711, Note_on_c, 0, 62, 0
2, 20712, Note_on_c, 0, 59, 0
2, 20777, Note_on_c, 0, 61, 0
2, 20777, Note_on_c, 0, 62, 80
2, 20778, Note_on_c, 0, 66, 80
2, 20783, Note_on_c, 0, 64, 0
2, 20850, Note_on_c, 0, 68, 80
2, 20851, Note_on_c, 0, 66, 0
2, 20922, Note_on_c, 0, 69, 80
2, 20923, Note_on_c, 0, 62, 0
2, 20923, Note_on_c, 0, 61, 80
2, 20927, Note_on_c, 0, 68, 0
2, 20960, Note_on_c, 0, 61, 0
2, 21001, Note_on_c, 0, 54, 80
2, 21070, Note_on_c, 0, 54, 0
2, 21071, Note_on_c, 0, 55, 80
2, 21074, Note_on_c, 0, 69, 0
2, 21139, Note_on_c, 0, 54, 80
2, 21142, Note_on_c, 0, 55, 0
2, 21209, Note_on_c, 0, 52, 80
2, 21210, Note_on_c, 0, 54, 0
2, 21285, Note_on_c, 0, 69, 80
2, 21285, Note_on_c, 0, 50, 80
2, 21289, Note_on_c, 0, 52, 0
2, 21318, Note_on_c, 0, 52, 80
2, 21322, Note_on_c, 0, 50, 0
2, 21355, Note_on_c, 0, 71, 80
2, 21355, Note_on_c, 0, 54, 80
2, 21356, Note_on_c, 0, 52, 0
2, 21358, Note_on_c, 0, 69, 0
2, 21423, Note_on_c, 0, 52, 80
2, 21424, Note_on_c, 0, 54, 0
2, 21424, Note_on_c, 0, 69, 80
2, 21427, Note_on_c, 0, 71, 0
2, 21498, Note_on_c, 0, 69, 0
2, 21498, Note_on_c, 0, 67, 80
2, 21498, Note_on_c, 0, 50, 80
2, 21501, Note_on_c, 0, 52, 0
2, 21540, Note_on_c, 0, 67, 0
2, 21566, Note_on_c, 0, 66, 80
2, 21598, Note_on_c, 0, 67, 80
2, 21600, Note_on_c, 0, 66, 0
2, 21607, Note_on_c, 0, 50, 0
2, 21637, Note_on_c, 0, 69, 80
2, 21639, Note_on_c, 0, 67, 0
2, 21704, Note_on_c, 0, 67, 80
2, 21706, Note_on_c, 0, 69, 0
2, 21767, Note_on_c, 0, 67, 0
2, 21770, Note_on_c, 0, 66, 80
2, 21837, Note_on_c, 0, 59, 80
2, 21896, Note_on_c, 0, 66, 0
2, 21902, Note_on_c, 0, 60, 80
2, 21903, Note_on_c, 0, 59, 0
2, 21903, Note_on_c, 0, 64, 80
2, 21958, Note_on_c, 0, 64, 0
2, 21966, Note_on_c, 0, 60, 0
2, 21967, Note_on_c, 0, 59, 80
2, 21968, Note_on_c, 0, 66, 80
2, 21999, Note_on_c, 0, 66, 0
2, 22001, Note_on_c, 0, 67, 80
2, 22038, Note_on_c, 0, 66, 80
2, 22039, Note_on_c, 0, 57, 80
2, 22042, Note_on_c, 0, 67, 0
2, 22046, Note_on_c, 0, 59, 0
2, 22071, Note_on_c, 0, 57, 0
2, 22105, Note_on_c, 0, 55, 80
2, 22138, Note_on_c, 0, 57, 80
2, 22139, Note_on_c, 0, 55, 0
2, 22180, Note_on_c, 0, 59, 80
2, 22182, Note_on_c, 0, 57, 0
2, 22247, Note_on_c, 0, 57, 80
2, 22250, Note_on_c, 0, 59, 0
2, 22314, Note_on_c, 0, 66, 0
2, 22315, Note_on_c, 0, 64, 80
2, 22316, Note_on_c, 0, 55, 80
2, 22317, Note_on_c, 0, 57, 0
2, 22366, Note_on_c, 0, 64, 0
2, 22387, Note_on_c, 0, 57, 80
2, 22389, Note_on_c, 0, 55, 0
2, 22390, Note_on_c, 0, 66, 80
2, 22445, Note_on_c, 0, 66, 0
2, 22461, Note_on_c, 0, 59, 80
2, 22462, Note_on_c, 0, 67, 80
2, 22463, Note_on_c, 0, 57, 0
2, 22529, Note_on_c, 0, 59, 0
2, 22529, Note_on_c, 0, 60, 80
2, 22565, Note_on_c, 0, 60, 0
2, 22566, Note_on_c, 0, 62, 80
2, 22600, Note_on_c, 0, 62, 0
2, 22601, Note_on_c, 0, 64, 80
2, 22641, Note_on_c, 0, 67, 0
2, 22663, Note_on_c, 0, 64, 0
2, 22664, Note_on_c, 0, 62, 80
2, 22665, Note_on_c, 0, 66, 80
2, 22701, Note_on_c, 0, 66, 0
2, 22706, Note_on_c, 0, 62, 0
2, 22733, Note_on_c, 0, 67, 80
2, 22734, Note_on_c, 0, 62, 80
2, 22797, Note_on_c, 0, 67, 0
2, 22798, Note_on_c, 0, 62, 0
2, 22799, Note_on_c, 0, 60, 80
2, 22800, Note_on_c, 0, 66, 80
2, 22862, Note_on_c, 0, 66, 0
2, 22864, Note_on_c, 0, 62, 80
2, 22865, Note_on_c, 0, 67, 80
2, 22866, Note_on_c, 0, 60, 0
2, 22998, Note_on_c, 0, 62, 0
2, 22998, Note_on_c, 0, 64, 80
2, 23002, Note_on_c, 0, 67, 0
2, 23051, Note_on_c, 0, 64, 0
2, 23067, Note_on_c, 0, 66, 80
2, 23068, Note_on_c, 0, 59, 80
2, 23092, Note_on_c, 0, 59, 0
2, 23134, Note_on_c, 0, 59, 80
2, 23201, Note_on_c, 0, 64, 80
2, 23202, Note_on_c, 0, 66, 0
2, 23275, Note_on_c, 0, 64, 0
2, 23275, Note_on_c, 0, 65, 80
2, 23319, Note_on_c, 0, 65, 0
2, 23341, Note_on_c, 0, 59, 0
2, 23342, Note_on_c, 0, 60, 80
2, 23342, Note_on_c, 0, 64, 80
2, 23371, Note_on_c, 0, 60, 0
2, 23414, Note_on_c, 0, 55, 80
2, 23416, Note_on_c, 0, 62, 80
2, 23420, Note_on_c, 0, 64, 0
2, 23484, Note_on_c, 0, 60, 80
2, 23485, Note_on_c, 0, 62, 0
2, 23519, Note_on_c, 0, 62, 80
2, 23522, Note_on_c, 0, 60, 0
2, 23557, Note_on_c, 0, 62, 0
2, 23557, Note_on_c, 0, 64, 80
2, 23604, Note_on_c, 0, 64, 0
2, 23618, Note_on_c, 0, 55, 0
2, 23624, Note_on_c, 0, 62, 80
2, 23624, Note_on_c, 0, 59, 80
2, 23665, Note_on_c, 0, 62, 0
2, 23674, Note_on_c, 0, 59, 0
2, 23694, Note_on_c, 0, 60, 80
2, 23747, Note_on_c, 0, 60, 0
2, 23765, Note_on_c, 0, 48, 80
2, 23837, Note_on_c, 0, 47, 80
2, 23839, Note_on_c, 0, 48, 0
2, 23899, Note_on_c, 0, 47, 0
2, 23905, Note_on_c, 0, 48, 80
2, 23970, Note_on_c, 0, 48, 0
2, 23971, Note_on_c, 0, 50, 80
2, 23971, Note_on_c, 0, 59, 80
2, 24016, Note_on_c, 0, 50, 0
2, 24040, Note_on_c, 0, 52, 80
2, 24071, Note_on_c, 0, 50, 80
2, 24074, Note_on_c, 0, 52, 0
2, 24107, Note_on_c, 0, 48, 80
2, 24111, Note_on_c, 0, 50, 0
2, 24112, Note_on_c, 0, 59, 0
2, 24172, Note_on_c, 0, 50, 80
2, 24177, Note_on_c, 0, 48, 0
2, 24237, Note_on_c, 0, 52, 80
2, 24244, Note_on_c, 0, 50, 0
2, 24311, Note_on_c, 0, 52, 0
2, 24311, Note_on_c, 0, 53, 80
2, 24312, Note_on_c, 0, 62, 80
2, 24312, Note_on_c, 0, 59, 80
2, 24363, Note_on_c, 0, 59, 0
2, 24370, Note_on_c, 0, 62, 0
2, 24385, Note_on_c, 0, 53, 0
2, 24385, Note_on_c, 0, 55, 80
2, 24386, Note_on_c, 0, 63, 80
2, 24386, Note_on_c, 0, 60, 80
2, 24435, Note_on_c, 0, 60, 0
2, 24436, Note_on_c, 0, 63, 0
2, 24444, Note_on_c, 0, 55, 0
2, 24456, Note_on_c, 0, 53, 80
2, 24457, Note_on_c, 0, 62, 80
2, 24457, Note_on_c, 0, 59, 80
2, 24505, Note_on_c, 0, 59, 0
2, 24508, Note_on_c, 0, 62, 0
2, 24527, Note_on_c, 0, 53, 0
2, 24529, Note_on_c, 0, 51, 80
2, 24529, Note_on_c, 0, 57, 80
2, 24529, Note_on_c, 0, 60, 80
2, 24580, Note_on_c, 0, 51, 0
2, 24580, Note_on_c, 0, 57, 0
2, 24581, Note_on_c, 0, 60, 0
2, 24605, Note_on_c, 0, 50, 80
2, 24605, Note_on_c, 0, 59, 80
2, 24605, Note_on_c, 0, 55, 80
2, 24632, Note_on_c, 0, 59, 0
2, 24638, Note_on_c, 0, 55, 0
2, 24646, Note_on_c, 0, 50, 0
2, 24646, Note_on_c, 0, 51, 80
2, 24647, Note_on_c, 0, 60, 80
2, 24647, Note_on_c, 0, 57, 80
2, 24673, Note_on_c, 0, 57, 0
2, 24674, Note_on_c, 0, 60, 0
2, 24680, Note_on_c, 0, 51, 0
2, 24700, Note_on_c, 0, 53, 80
2, 24700, Note_on_c, 0, 59, 80
2, 24700, Note_on_c, 0, 62, 80
2, 24775, Note_on_c, 0, 59, 0
2, 24815, Note_on_c, 0, 51, 80
2, 24815, Note_on_c, 0, 57, 80
2, 24816, Note_on_c, 0, 60, 80
2, 24817, Note_on_c, 0, 53, 0
2, 24821, Note_on_c, 0, 62, 0
2, 24999, Note_on_c, 0, 59, 80
2, 25000, Note_on_c, 0, 50, 80
2, 25000, Note_on_c, 0, 55, 80
2, 25003, Note_on_c, 0, 60, 0
2, 25004, Note_on_c, 0, 51, 0
2, 25009, Note_on_c, 0, 57, 0
2, 25439, Note_on_c, 0, 59, 0
2, 25439, Note_on_c, 0, 50, 0
2, 25439, Note_on_c, 0, 55, 0
2, 25439, End_track
3, 0, Start_track
3, 0, Title_t, "Accomp 4"
3, 0, MIDI_port, 0
3, 0, Control_c, 3, 7, 62
3, 0, Control_c, 3, 10, 42
3, 0, Control_c, 3, 91, 100
3, 0, Program_c, 3, 74
3, 116, Note_on_c, 3, 67, 80
3, 155, Note_on_c, 3, 67, 0
3, 191, Note_on_c, 3, 67, 80
3, 259, Note_on_c, 3, 69, 80
3, 261, Note_on_c, 3, 67, 0
3, 323, Note_on_c, 3, 71, 80
3, 327, Note_on_c, 3, 69, 0
3, 447, Note_on_c, 3, 71, 0
3, 453, Note_on_c, 3, 69, 80
3, 518, Note_on_c, 3, 71, 80
3, 524, Note_on_c, 3, 69, 0
3, 579, Note_on_c, 3, 72, 80
3, 583, Note_on_c, 3, 71, 0
3, 648, Note_on_c, 3, 79, 80
3, 649, Note_on_c, 3, 71, 80
3, 654, Note_on_c, 3, 72, 0
3, 706, Note_on_c, 3, 79, 0
3, 721, Note_on_c, 3, 79, 80
3, 723, Note_on_c, 3, 69, 80
3, 725, Note_on_c, 3, 71, 0
3, 792, Note_on_c, 3, 78, 80
3, 797, Note_on_c, 3, 79, 0
3, 856, Note_on_c, 3, 76, 80
3, 858, Note_on_c, 3, 78, 0
3, 859, Note_on_c, 3, 67, 80
3, 863, Note_on_c, 3, 69, 0
3, 925, Note_on_c, 3, 68, 80
3, 928, Note_on_c, 3, 67, 0
3, 981, Note_on_c, 3, 76, 0
3, 1001, Note_on_c, 3, 68, 0
3, 1001, Note_on_c, 3, 69, 80
3, 1001, Note_on_c, 3, 78, 80
3, 1061, Note_on_c, 3, 70, 80
3, 1063, Note_on_c, 3, 76, 80
3, 1064, Note_on_c, 3, 78, 0
3, 1066, Note_on_c, 3, 69, 0
3, 1128, Note_on_c, 3, 74, 80
3, 1129, Note_on_c, 3, 76, 0
3, 1130, Note_on_c, 3, 71, 80
3, 1134, Note_on_c, 3, 70, 0
3, 1193, Note_on_c, 3, 76, 80
3, 1199, Note_on_c, 3, 74, 0
3, 1266, Note_on_c, 3, 76, 0
3, 1266, Note_on_c, 3, 78, 80
3, 1326, Note_on_c, 3, 69, 80
3, 1329, Note_on_c, 3, 71, 0
3, 1388, Note_on_c, 3, 78, 0
3, 1390, Note_on_c, 3, 71, 80
3, 1391, Note_on_c, 3, 79, 80
3, 1395, Note_on_c, 3, 69, 0
3, 1451, Note_on_c, 3, 73, 80
3, 1454, Note_on_c, 3, 71, 0
3, 1516, Note_on_c, 3, 74, 80
3, 1521, Note_on_c, 3, 73, 0
3, 1579, Note_on_c, 3, 78, 80
3, 1582, Note_on_c, 3, 79, 0
3, 1646, Note_on_c, 3, 76, 80
3, 1649, Note_on_c, 3, 78, 0
3, 1705, Note_on_c, 3, 72, 80
3, 1706, Note_on_c, 3, 74, 0
3, 1707, Note_on_c, 3, 81, 80
3, 1709, Note_on_c, 3, 76, 0
3, 1772, Note_on_c, 3, 74, 80
3, 1774, Note_on_c, 3, 81, 0
3, 1774, Note_on_c, 3, 71, 80
3, 1775, Note_on_c, 3, 72, 0
3, 1830, Note_on_c, 3, 74, 0
3, 1839, Note_on_c, 3, 79, 80
3, 1840, Note_on_c, 3, 76, 80
3, 1842, Note_on_c, 3, 71, 0
3, 1905, Note_on_c, 3, 69, 80
3, 1908, Note_on_c, 3, 76, 0
3, 1948, Note_on_c, 3, 79, 0
3, 1971, Note_on_c, 3, 78, 80
3, 2000, Note_on_c, 3, 76, 80
3, 2001, Note_on_c, 3, 78, 0
3, 2036, Note_on_c, 3, 78, 80
3, 2043, Note_on_c, 3, 76, 0
3, 2096, Note_on_c, 3, 79, 80
3, 2097, Note_on_c, 3, 78, 0
3, 2155, Note_on_c, 3, 81, 80
3, 2158, Note_on_c, 3, 79, 0
3, 2214, Note_on_c, 3, 71, 80
3, 2216, Note_on_c, 3, 69, 0
3, 2261, Note_on_c, 3, 81, 0
3, 2281, Note_on_c, 3, 72, 80
3, 2282, Note_on_c, 3, 79, 80
3, 2284, Note_on_c, 3, 71, 0
3, 2346, Note_on_c, 3, 79, 0
3, 2346, Note_on_c, 3, 81, 80
3, 2409, Note_on_c, 3, 83, 80
3, 2410, Note_on_c, 3, 71, 80
3, 2411, Note_on_c, 3, 81, 0
3, 2416, Note_on_c, 3, 72, 0
3, 2452, Note_on_c, 3, 83, 0
3, 2478, Note_on_c, 3, 74, 80
3, 2479, Note_on_c, 3, 71, 0
3, 2480, Note_on_c, 3, 69, 80
3, 2521, Note_on_c, 3, 74, 0
3, 2553, Note_on_c, 3, 74, 80
3, 2553, Note_on_c, 3, 67, 80
3, 2559, Note_on_c, 3, 69, 0
3, 2620, Note_on_c, 3, 73, 80
3, 2622, Note_on_c, 3, 74, 0
3, 2683, Note_on_c, 3, 73, 0
3, 2684, Note_on_c, 3, 71, 80
3, 2733, Note_on_c, 3, 67, 0
3, 2749, Note_on_c, 3, 66, 80
3, 2814, Note_on_c, 3, 66, 0
3, 2814, Note_on_c, 3, 67, 80
3, 2816, Note_on_c, 3, 73, 80
3, 2818, Note_on_c, 3, 71, 0
3, 2879, Note_on_c, 3, 71, 80
3, 2880, Note_on_c, 3, 68, 80
3, 2881, Note_on_c, 3, 73, 0
3, 2882, Note_on_c, 3, 67, 0
3, 2946, Note_on_c, 3, 69, 80
3, 2947, Note_on_c, 3, 68, 0
3, 2948, Note_on_c, 3, 71, 0
3, 3012, Note_on_c, 3, 71, 80
3, 3079, Note_on_c, 3, 73, 80
3, 3083, Note_on_c, 3, 71, 0
3, 3143, Note_on_c, 3, 67, 80
3, 3148, Note_on_c, 3, 69, 0
3, 3207, Note_on_c, 3, 73, 0
3, 3208, Note_on_c, 3, 74, 80
3, 3208, Note_on_c, 3, 69, 80
3, 3210, Note_on_c, 3, 67, 0
3, 3272, Note_on_c, 3, 67, 80
3, 3274, Note_on_c, 3, 69, 0
3, 3305, Note_on_c, 3, 66, 80
3, 3307, Note_on_c, 3, 67, 0
3, 3349, Note_on_c, 3, 67, 80
3, 3352, Note_on_c, 3, 66, 0
3, 3408, Note_on_c, 3, 72, 80
3, 3411, Note_on_c, 3, 74, 0
3, 3441, Note_on_c, 3, 71, 80
3, 3442, Note_on_c, 3, 72, 0
3, 3479, Note_on_c, 3, 72, 80
3, 3482, Note_on_c, 3, 71, 0
3, 3537, Note_on_c, 3, 66, 80
3, 3540, Note_on_c, 3, 67, 0
3, 3568, Note_on_c, 3, 64, 80
3, 3569, Note_on_c, 3, 66, 0
3, 3603, Note_on_c, 3, 66, 80
3, 3606, Note_on_c, 3, 64, 0
3, 3666, Note_on_c, 3, 72, 0
3, 3667, Note_on_c, 3, 71, 80
3, 3698, Note_on_c, 3, 71, 0
3, 3698, Note_on_c, 3, 69, 80
3, 3740, Note_on_c, 3, 71, 80
3, 3741, Note_on_c, 3, 69, 0
3, 3757, Note_on_c, 3, 66, 0
3, 3797, Note_on_c, 3, 71, 0
3, 3817, Note_on_c, 3, 71, 80
3, 3817, Note_on_c, 3, 67, 80
3, 3871, Note_on_c, 3, 67, 0
3, 3872, Note_on_c, 3, 71, 0
3, 3884, Note_on_c, 3, 71, 80
3, 3884, Note_on_c, 3, 67, 80
3, 3950, Note_on_c, 3, 67, 0
3, 3950, Note_on_c, 3, 69, 80
3, 3950, Note_on_c, 3, 72, 80
3, 3956, Note_on_c, 3, 71, 0
3, 4018, Note_on_c, 3, 69, 0
3, 4019, Note_on_c, 3, 71, 80
3, 4019, Note_on_c, 3, 74, 80
3, 4021, Note_on_c, 3, 72, 0
3, 4147, Note_on_c, 3, 73, 80
3, 4148, Note_on_c, 3, 76, 80
3, 4149, Note_on_c, 3, 71, 0
3, 4149, Note_on_c, 3, 74, 0
3, 4214, Note_on_c, 3, 75, 80
3, 4215, Note_on_c, 3, 76, 0
3, 4215, Note_on_c, 3, 78, 80
3, 4219, Note_on_c, 3, 73, 0
3, 4252, Note_on_c, 3, 78, 0
3, 4287, Note_on_c, 3, 76, 80
3, 4288, Note_on_c, 3, 79, 80
3, 4339, Note_on_c, 3, 75, 0
3, 4345, Note_on_c, 3, 76, 0
3, 4345, Note_on_c, 3, 79, 0
3, 4354, Note_on_c, 3, 71, 80
3, 4356, Note_on_c, 3, 67, 80
3, 4384, Note_on_c, 3, 71, 0
3, 4390, Note_on_c, 3, 67, 0
3, 4425, Note_on_c, 3, 67, 80
3, 4425, Note_on_c, 3, 76, 80
3, 4472, Note_on_c, 3, 76, 0
3, 4493, Note_on_c, 3, 66, 80
3, 4493, Note_on_c, 3, 74, 80
3, 4497, Note_on_c, 3, 67, 0
3, 4558, Note_on_c, 3, 74, 0
3, 4559, Note_on_c, 3, 64, 80
3, 4560, Note_on_c, 3, 72, 80
3, 4565, Note_on_c, 3, 66, 0
3, 4623, Note_on_c, 3, 64, 0
3, 4627, Note_on_c, 3, 74, 80
3, 4628, Note_on_c, 3, 69, 80
3, 4630, Note_on_c, 3, 72, 0
3, 4657, Note_on_c, 3, 74, 0
3, 4701, Note_on_c, 3, 74, 80
3, 4770, Note_on_c, 3, 67, 80
3, 4774, Note_on_c, 3, 69, 0
3, 4800, Note_on_c, 3, 74, 0
3, 4839, Note_on_c, 3, 76, 80
3, 4874, Note_on_c, 3, 76, 0
3, 4879, Note_on_c, 3, 67, 0
3, 4912, Note_on_c, 3, 72, 80
3, 4912, Note_on_c, 3, 67, 80
3, 4988, Note_on_c, 3, 72, 0
3, 4988, Note_on_c, 3, 74, 80
3, 5054, Note_on_c, 3, 74, 0
3, 5057, Note_on_c, 3, 72, 80
3, 5058, Note_on_c, 3, 66, 80
3, 5067, Note_on_c, 3, 67, 0
3, 5129, Note_on_c, 3, 66, 0
3, 5131, Note_on_c, 3, 67, 80
3, 5132, Note_on_c, 3, 71, 80
3, 5134, Note_on_c, 3, 72, 0
3, 5179, Note_on_c, 3, 71, 0
3, 5180, Note_on_c, 3, 67, 0
3, 5205, Note_on_c, 3, 67, 80
3, 5206, Note_on_c, 3, 72, 80
3, 5251, Note_on_c, 3, 72, 0
3, 5252, Note_on_c, 3, 67, 0
3, 5277, Note_on_c, 3, 67, 80
3, 5278, Note_on_c, 3, 74, 80
3, 5346, Note_on_c, 3, 65, 80
3, 5347, Note_on_c, 3, 67, 0
3, 5412, Note_on_c, 3, 64, 80
3, 5417, Note_on_c, 3, 65, 0
3, 5467, Note_on_c, 3, 74, 0
3, 5484, Note_on_c, 3, 72, 80
3, 5518, Note_on_c, 3, 71, 80
3, 5519, Note_on_c, 3, 72, 0
3, 5554, Note_on_c, 3, 71, 0
3, 5555, Note_on_c, 3, 72, 80
3, 5622, Note_on_c, 3, 63, 80
3, 5623, Note_on_c, 3, 64, 0
3, 5624, Note_on_c, 3, 69, 80
3, 5626, Note_on_c, 3, 72, 0
3, 5705, Note_on_c, 3, 62, 80
3, 5707, Note_on_c, 3, 69, 0
3, 5707, Note_on_c, 3, 71, 80
3, 5712, Note_on_c, 3, 63, 0
3, 5765, Note_on_c, 3, 62, 0
3, 5766, Note_on_c, 3, 71, 0
3, 5811, Note_on_c, 3, 71, 80
3, 5887, Note_on_c, 3, 72, 80
3, 5890, Note_on_c, 3, 71, 0
3, 5960, Note_on_c, 3, 71, 80
3, 5962, Note_on_c, 3, 72, 0
3, 6032, Note_on_c, 3, 69, 80
3, 6035, Note_on_c, 3, 71, 0
3, 6095, Note_on_c, 3, 69, 0
3, 6097, Note_on_c, 3, 76, 80
3, 6098, Note_on_c, 3, 67, 80
3, 6169, Note_on_c, 3, 66, 80
3, 6170, Note_on_c, 3, 74, 80
3, 6171, Note_on_c, 3, 76, 0
3, 6171, Note_on_c, 3, 67, 0
3, 6236, Note_on_c, 3, 74, 0
3, 6238, Note_on_c, 3, 76, 80
3, 6238, Note_on_c, 3, 67, 80
3, 6241, Note_on_c, 3, 66, 0
3, 6306, Note_on_c, 3, 78, 80
3, 6306, Note_on_c, 3, 69, 80
3, 6307, Note_on_c, 3, 76, 0
3, 6308, Note_on_c, 3, 67, 0
3, 6379, Note_on_c, 3, 79, 80
3, 6380, Note_on_c, 3, 78, 0
3, 6380, Note_on_c, 3, 69, 0
3, 6380, Note_on_c, 3, 71, 80
3, 6443, Note_on_c, 3, 71, 0
3, 6455, Note_on_c, 3, 81, 80
3, 6456, Note_on_c, 3, 72, 80
3, 6459, Note_on_c, 3, 79, 0
3, 6527, Note_on_c, 3, 79, 80
3, 6532, Note_on_c, 3, 81, 0
3, 6596, Note_on_c, 3, 78, 80
3, 6598, Note_on_c, 3, 79, 0
3, 6739, Note_on_c, 3, 78, 0
3, 6740, Note_on_c, 3, 79, 80
3, 6741, Note_on_c, 3, 71, 80
3, 6745, Note_on_c, 3, 72, 0
3, 6815, Note_on_c, 3, 79, 0
3, 6818, Note_on_c, 3, 80, 80
3, 6888, Note_on_c, 3, 81, 80
3, 6889, Note_on_c, 3, 80, 0
3, 6889, Note_on_c, 3, 64, 80
3, 6893, Note_on_c, 3, 71, 0
3, 6948, Note_on_c, 3, 81, 0
3, 6961, Note_on_c, 3, 79, 80
3, 7026, Note_on_c, 3, 78, 80
3, 7027, Note_on_c, 3, 69, 80
3, 7032, Note_on_c, 3, 64, 0
3, 7032, Note_on_c, 3, 79, 0
3, 7094, Note_on_c, 3, 78, 0
3, 7094, Note_on_c, 3, 76, 80
3, 7129, Note_on_c, 3, 75, 80
3, 7131, Note_on_c, 3, 76, 0
3, 7167, Note_on_c, 3, 75, 0
3, 7167, Note_on_c, 3, 76, 80
3, 7235, Note_on_c, 3, 67, 80
3, 7238, Note_on_c, 3, 69, 0
3, 7266, Note_on_c, 3, 66, 80
3, 7268, Note_on_c, 3, 67, 0
3, 7302, Note_on_c, 3, 66, 0
3, 7302, Note_on_c, 3, 67, 80
3, 7502, Note_on_c, 3, 66, 80
3, 7507, Note_on_c, 3, 67, 0
3, 7534, Note_on_c, 3, 64, 80
3, 7536, Note_on_c, 3, 66, 0
3, 7577, Note_on_c, 3, 66, 80
3, 7582, Note_on_c, 3, 64, 0
3, 7644, Note_on_c, 3, 74, 80
3, 7650, Note_on_c, 3, 76, 0
3, 7678, Note_on_c, 3, 74, 0
3, 7680, Note_on_c, 3, 73, 80
3, 7725, Note_on_c, 3, 73, 0
3, 7725, Note_on_c, 3, 74, 80
3, 7763, Note_on_c, 3, 74, 0
3, 7801, Note_on_c, 3, 78, 80
3, 7870, Note_on_c, 3, 78, 0
3, 7871, Note_on_c, 3, 66, 0
3, 7871, Note_on_c, 3, 79, 80
3, 7945, Note_on_c, 3, 79, 0
3, 7945, Note_on_c, 3, 78, 80
3, 7945, Note_on_c, 3, 66, 80
3, 8013, Note_on_c, 3, 78, 0
3, 8016, Note_on_c, 3, 76, 80
3, 8017, Note_on_c, 3, 67, 80
3, 8018, Note_on_c, 3, 66, 0
3, 8081, Note_on_c, 3, 76, 0
3, 8081, Note_on_c, 3, 68, 80
3, 8081, Note_on_c, 3, 74, 80
3, 8084, Note_on_c, 3, 67, 0
3, 8158, Note_on_c, 3, 69, 80
3, 8159, Note_on_c, 3, 73, 80
3, 8160, Note_on_c, 3, 68, 0
3, 8166, Note_on_c, 3, 74, 0
3, 8229, Note_on_c, 3, 75, 80
3, 8232, Note_on_c, 3, 73, 0
3, 8297, Note_on_c, 3, 76, 80
3, 8299, Note_on_c, 3, 75, 0
3, 8344, Note_on_c, 3, 69, 0
3, 8367, Note_on_c, 3, 67, 80
3, 8400, Note_on_c, 3, 66, 80
3, 8402, Note_on_c, 3, 67, 0
3, 8439, Note_on_c, 3, 67, 80
3, 8442, Note_on_c, 3, 66, 0
3, 8505, Note_on_c, 3, 76, 0
3, 8505, Note_on_c, 3, 78, 80
3, 8539, Note_on_c, 3, 78, 0
3, 8539, Note_on_c, 3, 79, 80
3, 8576, Note_on_c, 3, 81, 80
3, 8579, Note_on_c, 3, 79, 0
3, 8640, Note_on_c, 3, 66, 80
3, 8644, Note_on_c, 3, 67, 0
3, 8675, Note_on_c, 3, 64, 80
3, 8677, Note_on_c, 3, 66, 0
3, 8714, Note_on_c, 3, 66, 80
3, 8721, Note_on_c, 3, 64, 0
3, 8779, Note_on_c, 3, 71, 80
3, 8779, Note_on_c, 3, 79, 80
3, 8780, Note_on_c, 3, 81, 0
3, 8780, Note_on_c, 3, 66, 0
3, 8813, Note_on_c, 3, 78, 80
3, 8815, Note_on_c, 3, 79, 0
3, 8849, Note_on_c, 3, 78, 0
3, 8849, Note_on_c, 3, 64, 80
3, 8850, Note_on_c, 3, 79, 80
3, 8852, Note_on_c, 3, 71, 0
3, 9010, Note_on_c, 3, 64, 0
3, 9058, Note_on_c, 3, 78, 80
3, 9058, Note_on_c, 3, 69, 80
3, 9062, Note_on_c, 3, 79, 0
3, 9095, Note_on_c, 3, 78, 0
3, 9096, Note_on_c, 3, 76, 80
3, 9135, Note_on_c, 3, 62, 80
3, 9136, Note_on_c, 3, 78, 80
3, 9137, Note_on_c, 3, 76, 0
3, 9139, Note_on_c, 3, 69, 0
3, 9202, Note_on_c, 3, 78, 0
3, 9202, Note_on_c, 3, 74, 80
3, 9220, Note_on_c, 3, 62, 0
3, 9244, Note_on_c, 3, 74, 0
3, 9269, Note_on_c, 3, 79, 80
3, 9306, Note_on_c, 3, 74, 80
3, 9340, Note_on_c, 3, 76, 80
3, 9341, Note_on_c, 3, 74, 0
3, 9374, Note_on_c, 3, 74, 80
3, 9377, Note_on_c, 3, 76, 0
3, 9410, Note_on_c, 3, 72, 80
3, 9411, Note_on_c, 3, 74, 0
3, 9477, Note_on_c, 3, 71, 80
3, 9479, Note_on_c, 3, 72, 0
3, 9545, Note_on_c, 3, 69, 80
3, 9551, Note_on_c, 3, 71, 0
3, 9553, Note_on_c, 3, 79, 0
3, 9579, Note_on_c, 3, 76, 80
3, 9611, Note_on_c, 3, 71, 80
3, 9612, Note_on_c, 3, 69, 0
3, 9613, Note_on_c, 3, 74, 80
3, 9615, Note_on_c, 3, 76, 0
3, 9645, Note_on_c, 3, 76, 80
3, 9649, Note_on_c, 3, 74, 0
3, 9683, Note_on_c, 3, 78, 80
3, 9683, Note_on_c, 3, 72, 80
3, 9684, Note_on_c, 3, 76, 0
3, 9685, Note_on_c, 3, 71, 0
3, 9754, Note_on_c, 3, 78, 0
3, 9754, Note_on_c, 3, 79, 80
3, 9829, Note_on_c, 3, 81, 80
3, 9831, Note_on_c, 3, 79, 0
3, 9897, Note_on_c, 3, 71, 80
3, 9897, Note_on_c, 3, 79, 80
3, 9898, Note_on_c, 3, 72, 0
3, 9902, Note_on_c, 3, 81, 0
3, 9933, Note_on_c, 3, 69, 80
3, 9934, Note_on_c, 3, 78, 80
3, 9935, Note_on_c, 3, 71, 0
3, 9936, Note_on_c, 3, 79, 0
3, 9972, Note_on_c, 3, 78, 0
3, 9975, Note_on_c, 3, 79, 80
3, 9975, Note_on_c, 3, 71, 80
3, 9979, Note_on_c, 3, 69, 0
3, 10038, Note_on_c, 3, 79, 0
3, 10042, Note_on_c, 3, 71, 0
3, 10054, Note_on_c, 3, 71, 80
3, 10054, Note_on_c, 3, 74, 80
3, 10093, Note_on_c, 3, 74, 0
3, 10094, Note_on_c, 3, 71, 0
3, 10127, Note_on_c, 3, 74, 80
3, 10128, Note_on_c, 3, 71, 80
3, 10198, Note_on_c, 3, 74, 0
3, 10199, Note_on_c, 3, 72, 80
3, 10200, Note_on_c, 3, 71, 0
3, 10200, Note_on_c, 3, 76, 80
3, 10266, Note_on_c, 3, 72, 0
3, 10266, Note_on_c, 3, 76, 0
3, 10266, Note_on_c, 3, 74, 80
3, 10268, Note_on_c, 3, 77, 80
3, 10338, Note_on_c, 3, 77, 0
3, 10338, Note_on_c, 3, 79, 80
3, 10372, Note_on_c, 3, 77, 80
3, 10373, Note_on_c, 3, 79, 0
3, 10408, Note_on_c, 3, 74, 0
3, 10410, Note_on_c, 3, 79, 80
3, 10410, Note_on_c, 3, 76, 80
3, 10411, Note_on_c, 3, 77, 0
3, 10479, Note_on_c, 3, 74, 80
3, 10482, Note_on_c, 3, 76, 0
3, 10547, Note_on_c, 3, 72, 80
3, 10550, Note_on_c, 3, 74, 0
3, 10569, Note_on_c, 3, 72, 0
3, 10598, Note_on_c, 3, 79, 0
3, 10622, Note_on_c, 3, 79, 80
3, 10623, Note_on_c, 3, 67, 80
3, 10658, Note_on_c, 3, 69, 80
3, 10662, Note_on_c, 3, 67, 0
3, 10666, Note_on_c, 3, 79, 0
3, 10699, Note_on_c, 3, 79, 80
3, 10702, Note_on_c, 3, 71, 80
3, 10708, Note_on_c, 3, 69, 0
3, 10762, Note_on_c, 3, 79, 0
3, 10775, Note_on_c, 3, 72, 80
3, 10775, Note_on_c, 3, 78, 80
3, 10776, Note_on_c, 3, 71, 0
3, 10809, Note_on_c, 3, 74, 80
3, 10811, Note_on_c, 3, 72, 0
3, 10841, Note_on_c, 3, 74, 0
3, 10842, Note_on_c, 3, 78, 0
3, 10844, Note_on_c, 3, 76, 80
3, 10913, Note_on_c, 3, 78, 80
3, 10913, Note_on_c, 3, 74, 80
3, 10914, Note_on_c, 3, 76, 0
3, 10953, Note_on_c, 3, 74, 0
3, 10990, Note_on_c, 3, 79, 80
3, 10991, Note_on_c, 3, 78, 0
3, 10991, Note_on_c, 3, 74, 80
3, 11063, Note_on_c, 3, 76, 80
3, 11064, Note_on_c, 3, 74, 0
3, 11100, Note_on_c, 3, 74, 80
3, 11102, Note_on_c, 3, 76, 0
3, 11138, Note_on_c, 3, 74, 0
3, 11138, Note_on_c, 3, 72, 80
3, 11139, Note_on_c, 3, 79, 0
3, 11207, Note_on_c, 3, 74, 80
3, 11208, Note_on_c, 3, 71, 80
3, 11209, Note_on_c, 3, 72, 0
3, 11242, Note_on_c, 3, 69, 80
3, 11243, Note_on_c, 3, 71, 0
3, 11249, Note_on_c, 3, 74, 0
3, 11283, Note_on_c, 3, 71, 80
3, 11283, Note_on_c, 3, 74, 80
3, 11285, Note_on_c, 3, 69, 0
3, 11352, Note_on_c, 3, 73, 80
3, 11353, Note_on_c, 3, 74, 0
3, 11353, Note_on_c, 3, 67, 80
3, 11355, Note_on_c, 3, 71, 0
3, 11387, Note_on_c, 3, 73, 0
3, 11390, Note_on_c, 3, 71, 80
3, 11429, Note_on_c, 3, 71, 0
3, 11429, Note_on_c, 3, 76, 80
3, 11468, Note_on_c, 3, 67, 0
3, 11472, Note_on_c, 3, 76, 0
3, 11499, Note_on_c, 3, 73, 80
3, 11499, Note_on_c, 3, 67, 80
3, 11533, Note_on_c, 3, 73, 0
3, 11533, Note_on_c, 3, 74, 80
3, 11535, Note_on_c, 3, 66, 80
3, 11539, Note_on_c, 3, 67, 0
3, 11574, Note_on_c, 3, 76, 80
3, 11575, Note_on_c, 3, 64, 80
3, 11577, Note_on_c, 3, 74, 0
3, 11578, Note_on_c, 3, 66, 0
3, 11615, Note_on_c, 3, 76, 0
3, 11640, Note_on_c, 3, 66, 80
3, 11641, Note_on_c, 3, 73, 80
3, 11647, Note_on_c, 3, 64, 0
3, 11676, Note_on_c, 3, 67, 80
3, 11677, Note_on_c, 3, 66, 0
3, 11679, Note_on_c, 3, 73, 0
3, 11709, Note_on_c, 3, 74, 80
3, 11711, Note_on_c, 3, 69, 80
3, 11714, Note_on_c, 3, 67, 0
3, 11747, Note_on_c, 3, 76, 80
3, 11749, Note_on_c, 3, 74, 0
3, 11763, Note_on_c, 3, 69, 0
3, 11784, Note_on_c, 3, 76, 0
3, 11787, Note_on_c, 3, 78, 80
3, 11787, Note_on_c, 3, 74, 80
3, 11820, Note_on_c, 3, 78, 0
3, 11852, Note_on_c, 3, 76, 80
3, 11887, Note_on_c, 3, 78, 80
3, 11889, Note_on_c, 3, 76, 0
3, 11924, Note_on_c, 3, 78, 0
3, 11927, Note_on_c, 3, 73, 80
3, 11928, Note_on_c, 3, 74, 0
3, 11928, Note_on_c, 3, 79, 80
3, 12008, Note_on_c, 3, 78, 80
3, 12009, Note_on_c, 3, 73, 0
3, 12009, Note_on_c, 3, 79, 0
3, 12010, Note_on_c, 3, 74, 80
3, 12070, Note_on_c, 3, 78, 0
3, 12073, Note_on_c, 3, 74, 0
3, 12101, Note_on_c, 3, 74, 80
3, 12171, Note_on_c, 3, 74, 0
3, 12171, Note_on_c, 3, 72, 80
3, 12239, Note_on_c, 3, 71, 80
3, 12244, Note_on_c, 3, 72, 0
3, 12315, Note_on_c, 3, 71, 0
3, 12316, Note_on_c, 3, 69, 80
3, 12443, Note_on_c, 3, 69, 0
3, 12465, Note_on_c, 3, 66, 80
3, 12601, Note_on_c, 3, 66, 0
3, 12603, Note_on_c, 3, 67, 80
3, 12675, Note_on_c, 3, 66, 80
3, 12676, Note_on_c, 3, 69, 80
3, 12679, Note_on_c, 3, 67, 0
3, 12750, Note_on_c, 3, 64, 80
3, 12751, Note_on_c, 3, 71, 80
3, 12752, Note_on_c, 3, 66, 0
3, 12756, Note_on_c, 3, 69, 0
3, 12821, Note_on_c, 3, 73, 80
3, 12825, Note_on_c, 3, 71, 0
3, 12887, Note_on_c, 3, 74, 80
3, 12888, Note_on_c, 3, 73, 0
3, 12888, Note_on_c, 3, 62, 80
3, 12891, Note_on_c, 3, 64, 0
3, 12926, Note_on_c, 3, 62, 0
3, 12975, Note_on_c, 3, 72, 80
3, 13046, Note_on_c, 3, 71, 80
3, 13047, Note_on_c, 3, 77, 80
3, 13048, Note_on_c, 3, 72, 0
3, 13051, Note_on_c, 3, 74, 0
3, 13119, Note_on_c, 3, 69, 80
3, 13123, Note_on_c, 3, 71, 0
3, 13169, Note_on_c, 3, 77, 0
3, 13188, Note_on_c, 3, 68, 80
3, 13188, Note_on_c, 3, 76, 80
3, 13191, Note_on_c, 3, 69, 0
3, 13254, Note_on_c, 3, 69, 80
3, 13257, Note_on_c, 3, 68, 0
3, 13257, Note_on_c, 3, 78, 80
3, 13258, Note_on_c, 3, 76, 0
3, 13328, Note_on_c, 3, 78, 0
3, 13328, Note_on_c, 3, 80, 80
3, 13328, Note_on_c, 3, 71, 80
3, 13332, Note_on_c, 3, 69, 0
3, 13437, Note_on_c, 3, 80, 0
3, 13470, Note_on_c, 3, 81, 80
3, 13471, Note_on_c, 3, 72, 80
3, 13476, Note_on_c, 3, 71, 0
3, 13528, Note_on_c, 3, 81, 0
3, 13548, Note_on_c, 3, 77, 80
3, 13567, Note_on_c, 3, 72, 0
3, 13615, Note_on_c, 3, 77, 0
3, 13615, Note_on_c, 3, 76, 80
3, 13616, Note_on_c, 3, 71, 80
3, 13686, Note_on_c, 3, 74, 80
3, 13687, Note_on_c, 3, 76, 0
3, 13740, Note_on_c, 3, 71, 0
3, 13758, Note_on_c, 3, 73, 80
3, 13758, Note_on_c, 3, 64, 80
3, 13762, Note_on_c, 3, 74, 0
3, 13794, Note_on_c, 3, 64, 0
3, 13795, Note_on_c, 3, 66, 80
3, 13796, Note_on_c, 3, 73, 0
3, 13796, Note_on_c, 3, 75, 80
3, 13831, Note_on_c, 3, 66, 0
3, 13832, Note_on_c, 3, 67, 80
3, 13833, Note_on_c, 3, 75, 0
3, 13833, Note_on_c, 3, 76, 80
3, 13900, Note_on_c, 3, 69, 80
3, 13901, Note_on_c, 3, 67, 0
3, 13966, Note_on_c, 3, 76, 0
3, 13966, Note_on_c, 3, 71, 80
3, 13967, Note_on_c, 3, 75, 80
3, 13971, Note_on_c, 3, 69, 0
3, 14037, Note_on_c, 3, 75, 0
3, 14038, Note_on_c, 3, 76, 80
3, 14039, Note_on_c, 3, 72, 80
3, 14042, Note_on_c, 3, 71, 0
3, 14117, Note_on_c, 3, 76, 0
3, 14137, Note_on_c, 3, 78, 80
3, 14165, Note_on_c, 3, 72, 0
3, 14179, Note_on_c, 3, 79, 80
3, 14180, Note_on_c, 3, 76, 80
3, 14181, Note_on_c, 3, 78, 0
3, 14249, Note_on_c, 3, 79, 0
3, 14275, Note_on_c, 3, 81, 80
3, 14280, Note_on_c, 3, 76, 0
3, 14318, Note_on_c, 3, 81, 0
3, 14323, Note_on_c, 3, 83, 80
3, 14325, Note_on_c, 3, 75, 80
3, 14392, Note_on_c, 3, 75, 0
3, 14392, Note_on_c, 3, 81, 80
3, 14393, Note_on_c, 3, 83, 0
3, 14394, Note_on_c, 3, 76, 80
3, 14463, Note_on_c, 3, 78, 80
3, 14464, Note_on_c, 3, 76, 0
3, 14534, Note_on_c, 3, 81, 0
3, 14534, Note_on_c, 3, 83, 80
3, 14574, Note_on_c, 3, 81, 80
3, 14575, Note_on_c, 3, 83, 0
3, 14598, Note_on_c, 3, 81, 0
3, 14613, Note_on_c, 3, 79, 80
3, 14654, Note_on_c, 3, 78, 0
3, 14682, Note_on_c, 3, 76, 80
3, 14742, Note_on_c, 3, 79, 0
3, 14750, Note_on_c, 3, 74, 80
3, 14751, Note_on_c, 3, 81, 80
3, 14752, Note_on_c, 3, 76, 0
3, 14822, Note_on_c, 3, 74, 0
3, 14822, Note_on_c, 3, 72, 80
3, 14891, Note_on_c, 3, 81, 0
3, 14891, Note_on_c, 3, 74, 80
3, 14892, Note_on_c, 3, 71, 80
3, 14895, Note_on_c, 3, 72, 0
3, 15028, Note_on_c, 3, 73, 80
3, 15029, Note_on_c, 3, 76, 80
3, 15031, Note_on_c, 3, 74, 0
3, 15032, Note_on_c, 3, 71, 0
3, 15169, Note_on_c, 3, 74, 80
3, 15171, Note_on_c, 3, 78, 80
3, 15173, Note_on_c, 3, 73, 0
3, 15173, Note_on_c, 3, 76, 0
3, 15208, Note_on_c, 3, 78, 0
3, 15241, Note_on_c, 3, 81, 80
3, 15308, Note_on_c, 3, 79, 80
3, 15312, Note_on_c, 3, 81, 0
3, 15375, Note_on_c, 3, 78, 80
3, 15377, Note_on_c, 3, 79, 0
3, 15420, Note_on_c, 3, 74, 0
3, 15443, Note_on_c, 3, 78, 0
3, 15445, Note_on_c, 3, 76, 80
3, 15511, Note_on_c, 3, 76, 0
3, 15511, Note_on_c, 3, 74, 80
3, 15511, Note_on_c, 3, 62, 80
3, 15581, Note_on_c, 3, 64, 80
3, 15582, Note_on_c, 3, 72, 80
3, 15583, Note_on_c, 3, 74, 0
3, 15589, Note_on_c, 3, 62, 0
3, 15646, Note_on_c, 3, 66, 80
3, 15650, Note_on_c, 3, 64, 0
3, 15676, Note_on_c, 3, 72, 0
3, 15718, Note_on_c, 3, 71, 80
3, 15720, Note_on_c, 3, 67, 80
3, 15721, Note_on_c, 3, 66, 0
3, 15774, Note_on_c, 3, 71, 0
3, 15787, Note_on_c, 3, 74, 80
3, 15789, Note_on_c, 3, 67, 0
3, 15789, Note_on_c, 3, 69, 80
3, 15853, Note_on_c, 3, 74, 0
3, 15855, Note_on_c, 3, 71, 80
3, 15856, Note_on_c, 3, 79, 80
3, 15859, Note_on_c, 3, 69, 0
3, 15920, Note_on_c, 3, 73, 80
3, 15926, Note_on_c, 3, 71, 0
3, 15993, Note_on_c, 3, 73, 0
3, 15993, Note_on_c, 3, 78, 80
3, 15993, Note_on_c, 3, 74, 80
3, 15994, Note_on_c, 3, 79, 0
3, 16037, Note_on_c, 3, 78, 0
3, 16063, Note_on_c, 3, 74, 0
3, 16073, Note_on_c, 3, 72, 80
3, 16074, Note_on_c, 3, 78, 80
3, 16120, Note_on_c, 3, 78, 0
3, 16145, Note_on_c, 3, 78, 80
3, 16145, Note_on_c, 3, 71, 80
3, 16150, Note_on_c, 3, 72, 0
3, 16213, Note_on_c, 3, 79, 80
3, 16214, Note_on_c, 3, 78, 0
3, 16270, Note_on_c, 3, 79, 0
3, 16285, Note_on_c, 3, 81, 80
3, 16353, Note_on_c, 3, 71, 0
3, 16354, Note_on_c, 3, 78, 80
3, 16355, Note_on_c, 3, 81, 0
3, 16355, Note_on_c, 3, 69, 80
3, 16398, Note_on_c, 3, 69, 0
3, 16421, Note_on_c, 3, 78, 0
3, 16421, Note_on_c, 3, 74, 80
3, 16422, Note_on_c, 3, 69, 80
3, 16489, Note_on_c, 3, 67, 80
3, 16491, Note_on_c, 3, 69, 0
3, 16554, Note_on_c, 3, 66, 80
3, 16557, Note_on_c, 3, 67, 0
3, 16624, Note_on_c, 3, 71, 80
3, 16625, Note_on_c, 3, 66, 0
3, 16664, Note_on_c, 3, 71, 0
3, 16694, Note_on_c, 3, 69, 80
3, 16833, Note_on_c, 3, 67, 80
3, 16835, Note_on_c, 3, 69, 0
3, 16872, Note_on_c, 3, 74, 0
3, 16904, Note_on_c, 3, 74, 80
3, 16905, Note_on_c, 3, 69, 80
3, 16910, Note_on_c, 3, 67, 0
3, 16943, Note_on_c, 3, 69, 0
3, 16971, Note_on_c, 3, 71, 80
3, 17038, Note_on_c, 3, 74, 0
3, 17038, Note_on_c, 3, 73, 80
3, 17038, Note_on_c, 3, 69, 80
3, 17040, Note_on_c, 3, 71, 0
3, 17101, Note_on_c, 3, 73, 0
3, 17113, Note_on_c, 3, 74, 80
3, 17175, Note_on_c, 3, 66, 80
3, 17178, Note_on_c, 3, 69, 0
3, 17243, Note_on_c, 3, 66, 0
3, 17243, Note_on_c, 3, 67, 80
3, 17298, Note_on_c, 3, 74, 0
3, 17307, Note_on_c, 3, 69, 80
3, 17307, Note_on_c, 3, 72, 80
3, 17308, Note_on_c, 3, 67, 0
3, 17348, Note_on_c, 3, 72, 0
3, 17375, Note_on_c, 3, 71, 80
3, 17437, Note_on_c, 3, 67, 80
3, 17441, Note_on_c, 3, 69, 0
3, 17472, Note_on_c, 3, 66, 80
3, 17473, Note_on_c, 3, 67, 0
3, 17508, Note_on_c, 3, 67, 80
3, 17511, Note_on_c, 3, 66, 0
3, 17710, Note_on_c, 3, 66, 80
3, 17710, Note_on_c, 3, 69, 80
3, 17711, Note_on_c, 3, 71, 0
3, 17711, Note_on_c, 3, 67, 0
3, 17760, Note_on_c, 3, 69, 0
3, 17761, Note_on_c, 3, 66, 0
3, 17805, Note_on_c, 3, 71, 80
3, 17929, Note_on_c, 3, 71, 0
3, 17943, Note_on_c, 3, 72, 80
3, 18010, Note_on_c, 3, 76, 80
3, 18077, Note_on_c, 3, 74, 80
3, 18078, Note_on_c, 3, 71, 80
3, 18079, Note_on_c, 3, 76, 0
3, 18081, Note_on_c, 3, 72, 0
3, 18144, Note_on_c, 3, 74, 0
3, 18144, Note_on_c, 3, 76, 80
3, 18208, Note_on_c, 3, 71, 0
3, 18208, Note_on_c, 3, 76, 0
3, 18209, Note_on_c, 3, 78, 80
3, 18210, Note_on_c, 3, 69, 80
3, 18258, Note_on_c, 3, 78, 0
3, 18279, Note_on_c, 3, 79, 80
3, 18316, Note_on_c, 3, 78, 80
3, 18319, Note_on_c, 3, 79, 0
3, 18351, Note_on_c, 3, 78, 0
3, 18352, Note_on_c, 3, 67, 80
3, 18353, Note_on_c, 3, 76, 80
3, 18355, Note_on_c, 3, 69, 0
3, 18416, Note_on_c, 3, 69, 80
3, 18417, Note_on_c, 3, 78, 80
3, 18418, Note_on_c, 3, 76, 0
3, 18420, Note_on_c, 3, 67, 0
3, 18481, Note_on_c, 3, 78, 0
3, 18481, Note_on_c, 3, 71, 80
3, 18482, Note_on_c, 3, 79, 80
3, 18484, Note_on_c, 3, 69, 0
3, 18612, Note_on_c, 3, 69, 80
3, 18615, Note_on_c, 3, 71, 0
3, 18676, Note_on_c, 3, 78, 80
3, 18677, Note_on_c, 3, 79, 0
3, 18707, Note_on_c, 3, 78, 0
3, 18708, Note_on_c, 3, 76, 80
3, 18748, Note_on_c, 3, 78, 80
3, 18749, Note_on_c, 3, 67, 80
3, 18751, Note_on_c, 3, 76, 0
3, 18753, Note_on_c, 3, 69, 0
3, 18795, Note_on_c, 3, 78, 0
3, 18818, Note_on_c, 3, 71, 80
3, 18883, Note_on_c, 3, 71, 0
3, 18885, Note_on_c, 3, 76, 80
3, 18967, Note_on_c, 3, 67, 0
3, 19016, Note_on_c, 3, 66, 80
3, 19081, Note_on_c, 3, 66, 0
3, 19082, Note_on_c, 3, 67, 80
3, 19143, Note_on_c, 3, 76, 0
3, 19144, Note_on_c, 3, 75, 80
3, 19145, Note_on_c, 3, 69, 80
3, 19149, Note_on_c, 3, 67, 0
3, 19205, Note_on_c, 3, 71, 80
3, 19207, Note_on_c, 3, 69, 0
3, 19238, Note_on_c, 3, 69, 80
3, 19240, Note_on_c, 3, 71, 0
3, 19262, Note_on_c, 3, 75, 0
3, 19277, Note_on_c, 3, 76, 80
3, 19278, Note_on_c, 3, 67, 80
3, 19281, Note_on_c, 3, 69, 0
3, 19347, Note_on_c, 3, 69, 80
3, 19347, Note_on_c, 3, 78, 80
3, 19348, Note_on_c, 3, 67, 0
3, 19351, Note_on_c, 3, 76, 0
3, 19421, Note_on_c, 3, 78, 0
3, 19421, Note_on_c, 3, 71, 80
3, 19421, Note_on_c, 3, 79, 80
3, 19424, Note_on_c, 3, 69, 0
3, 19486, Note_on_c, 3, 79, 0
3, 19486, Note_on_c, 3, 78, 80
3, 19553, Note_on_c, 3, 78, 0
3, 19554, Note_on_c, 3, 76, 80
3, 19599, Note_on_c, 3, 76, 0
3, 19622, Note_on_c, 3, 74, 80
3, 19655, Note_on_c, 3, 76, 80
3, 19658, Note_on_c, 3, 74, 0
3, 19695, Note_on_c, 3, 70, 80
3, 19697, Note_on_c, 3, 76, 0
3, 19697, Note_on_c, 3, 78, 80
3, 19699, Note_on_c, 3, 71, 0
3, 19762, Note_on_c, 3, 78, 0
3, 19762, Note_on_c, 3, 76, 80
3, 19826, Note_on_c, 3, 76, 0
3, 19827, Note_on_c, 3, 74, 80
3, 19828, Note_on_c, 3, 71, 80
3, 19829, Note_on_c, 3, 70, 0
3, 19862, Note_on_c, 3, 71, 0
3, 19899, Note_on_c, 3, 66, 80
3, 19969, Note_on_c, 3, 66, 0
3, 19971, Note_on_c, 3, 64, 80
3, 20032, Note_on_c, 3, 66, 80
3, 20033, Note_on_c, 3, 72, 80
3, 20035, Note_on_c, 3, 74, 0
3, 20035, Note_on_c, 3, 64, 0
3, 20097, Note_on_c, 3, 72, 0
3, 20098, Note_on_c, 3, 71, 80
3, 20099, Note_on_c, 3, 66, 0
3, 20100, Note_on_c, 3, 67, 80
3, 20144, Note_on_c, 3, 71, 0
3, 20163, Note_on_c, 3, 73, 80
3, 20164, Note_on_c, 3, 69, 80
3, 20166, Note_on_c, 3, 67, 0
3, 20198, Note_on_c, 3, 69, 0
3, 20200, Note_on_c, 3, 67, 80
3, 20236, Note_on_c, 3, 73, 0
3, 20237, Note_on_c, 3, 74, 80
3, 20239, Note_on_c, 3, 66, 80
3, 20240, Note_on_c, 3, 67, 0
3, 20276, Note_on_c, 3, 74, 0
3, 20303, Note_on_c, 3, 76, 80
3, 20304, Note_on_c, 3, 68, 80
3, 20305, Note_on_c, 3, 66, 0
3, 20335, Note_on_c, 3, 74, 80
3, 20337, Note_on_c, 3, 76, 0
3, 20371, Note_on_c, 3, 74, 0
3, 20372, Note_on_c, 3, 73, 80
3, 20373, Note_on_c, 3, 69, 80
3, 20374, Note_on_c, 3, 68, 0
3, 20436, Note_on_c, 3, 73, 0
3, 20436, Note_on_c, 3, 74, 80
3, 20437, Note_on_c, 3, 71, 80
3, 20439, Note_on_c, 3, 69, 0
3, 20468, Note_on_c, 3, 69, 80
3, 20470, Note_on_c, 3, 71, 0
3, 20504, Note_on_c, 3, 74, 0
3, 20504, Note_on_c, 3, 67, 80
3, 20505, Note_on_c, 3, 76, 80
3, 20506, Note_on_c, 3, 69, 0
3, 20537, Note_on_c, 3, 76, 0
3, 20572, Note_on_c, 3, 78, 80
3, 20573, Note_on_c, 3, 69, 80
3, 20578, Note_on_c, 3, 67, 0
3, 20605, Note_on_c, 3, 78, 0
3, 20606, Note_on_c, 3, 76, 80
3, 20643, Note_on_c, 3, 71, 80
3, 20644, Note_on_c, 3, 69, 0
3, 20644, Note_on_c, 3, 74, 80
3, 20645, Note_on_c, 3, 76, 0
3, 20709, Note_on_c, 3, 76, 80
3, 20709, Note_on_c, 3, 73, 80
3, 20711, Note_on_c, 3, 74, 0
3, 20712, Note_on_c, 3, 71, 0
3, 20777, Note_on_c, 3, 73, 0
3, 20777, Note_on_c, 3, 74, 80
3, 20778, Note_on_c, 3, 78, 80
3, 20783, Note_on_c, 3, 76, 0
3, 20850, Note_on_c, 3, 80, 80
3, 20851, Note_on_c, 3, 78, 0
3, 20922, Note_on_c, 3, 81, 80
3, 20923, Note_on_c, 3, 74, 0
3, 20923, Note_on_c, 3, 73, 80
3, 20927, Note_on_c, 3, 80, 0
3, 20960, Note_on_c, 3, 73, 0
3, 21001, Note_on_c, 3, 66, 80
3, 21070, Note_on_c, 3, 66, 0
3, 21071, Note_on_c, 3, 67, 80
3, 21074, Note_on_c, 3, 81, 0
3, 21139, Note_on_c, 3, 66, 80
3, 21142, Note_on_c, 3, 67, 0
3, 21209, Note_on_c, 3, 64, 80
3, 21210, Note_on_c, 3, 66, 0
3, 21285, Note_on_c, 3, 81, 80
3, 21285, Note_on_c, 3, 62, 80
3, 21289, Note_on_c, 3, 64, 0
3, 21318, Note_on_c, 3, 64, 80
3, 21322, Note_on_c, 3, 62, 0
3, 21355, Note_on_c, 3, 83, 80
3, 21355, Note_on_c, 3, 66, 80
3, 21356, Note_on_c, 3, 64, 0
3, 21358, Note_on_c, 3, 81, 0
3, 21423, Note_on_c, 3, 64, 80
3, 21424, Note_on_c, 3, 66, 0
3, 21424, Note_on_c, 3, 81, 80
3, 21427, Note_on_c, 3, 83, 0
3, 21498, Note_on_c, 3, 81, 0
3, 21498, Note_on_c, 3, 79, 80
3, 21498, Note_on_c, 3, 62, 80
3, 21501, Note_on_c, 3, 64, 0
3, 21540, Note_on_c, 3, 79, 0
3, 21566, Note_on_c, 3, 78, 80
3, 21598, Note_on_c, 3, 79, 80
3, 21600, Note_on_c, 3, 78, 0
3, 21607, Note_on_c, 3, 62, 0
3, 21637, Note_on_c, 3, 81, 80
3, 21639, Note_on_c, 3, 79, 0
3, 21704, Note_on_c, 3, 79, 80
3, 21706, Note_on_c, 3, 81, 0
3, 21767, Note_on_c, 3, 79, 0
3, 21770, Note_on_c, 3, 78, 80
3, 21837, Note_on_c, 3, 71, 80
3, 21896, Note_on_c, 3, 78, 0
3, 21902, Note_on_c, 3, 72, 80
3, 21903, Note_on_c, 3, 71, 0
3, 21903, Note_on_c, 3, 76, 80
3, 21958, Note_on_c, 3, 76, 0
3, 21966, Note_on_c, 3, 72, 0
3, 21967, Note_on_c, 3, 71, 80
3, 21968, Note_on_c, 3, 78, 80
3, 21999, Note_on_c, 3, 78, 0
3, 22001, Note_on_c, 3, 79, 80
3, 22038, Note_on_c, 3, 78, 80
3, 22039, Note_on_c, 3, 69, 80
3, 22042, Note_on_c, 3, 79, 0
3, 22046, Note_on_c, 3, 71, 0
3, 22071, Note_on_c, 3, 69, 0
3, 22105, Note_on_c, 3, 67, 80
3, 22138, Note_on_c, 3, 69, 80
3, 22139, Note_on_c, 3, 67, 0
3, 22180, Note_on_c, 3, 71, 80
3, 22182, Note_on_c, 3, 69, 0
3, 22247, Note_on_c, 3, 69, 80
3, 22250, Note_on_c, 3, 71, 0
3, 22314, Note_on_c, 3, 78, 0
3, 22315, Note_on_c, 3, 76, 80
3, 22316, Note_on_c, 3, 67, 80
3, 22317, Note_on_c, 3, 69, 0
3, 22366, Note_on_c, 3, 76, 0
3, 22387, Note_on_c, 3, 69, 80
3, 22389, Note_on_c, 3, 67, 0
3, 22390, Note_on_c, 3, 78, 80
3, 22445, Note_on_c, 3, 78, 0
3, 22461, Note_on_c, 3, 71, 80
3, 22462, Note_on_c, 3, 79, 80
3, 22463, Note_on_c, 3, 69, 0
3, 22529, Note_on_c, 3, 71, 0
3, 22529, Note_on_c, 3, 72, 80
3, 22565, Note_on_c, 3, 72, 0
3, 22566, Note_on_c, 3, 74, 80
3, 22600, Note_on_c, 3, 74, 0
3, 22601, Note_on_c, 3, 76, 80
3, 22641, Note_on_c, 3, 79, 0
3, 22663, Note_on_c, 3, 76, 0
3, 22664, Note_on_c, 3, 74, 80
3, 22665, Note_on_c, 3, 78, 80
3, 22701, Note_on_c, 3, 78, 0
3, 22706, Note_on_c, 3, 74, 0
3, 22733, Note_on_c, 3, 79, 80
3, 22734, Note_on_c, 3, 74, 80
3, 22797, Note_on_c, 3, 79, 0
3, 22798, Note_on_c, 3, 74, 0
3, 22799, Note_on_c, 3, 72, 80
3, 22800, Note_on_c, 3, 78, 80
3, 22862, Note_on_c, 3, 78, 0
3, 22864, Note_on_c, 3, 74, 80
3, 22865, Note_on_c, 3, 79, 80
3, 22866, Note_on_c, 3, 72, 0
3, 22998, Note_on_c, 3, 74, 0
3, 22998, Note_on_c, 3, 76, 80
3, 23002, Note_on_c, 3, 79, 0
3, 23051, Note_on_c, 3, 76, 0
3, 23067, Note_on_c, 3, 78, 80
3, 23068, Note_on_c, 3, 71, 80
3, 23092, Note_on_c, 3, 71, 0
3, 23134, Note_on_c, 3, 71, 80
3, 23201, Note_on_c, 3, 76, 80
3, 23202, Note_on_c, 3, 78, 0
3, 23275, Note_on_c, 3, 76, 0
3, 23275, Note_on_c, 3, 77, 80
3, 23319, Note_on_c, 3, 77, 0
3, 23341, Note_on_c, 3, 71, 0
3, 23342, Note_on_c, 3, 72, 80
3, 23342, Note_on_c, 3, 76, 80
3, 23371, Note_on_c, 3, 72, 0
3, 23414, Note_on_c, 3, 67, 80
3, 23416, Note_on_c, 3, 74, 80
3, 23420, Note_on_c, 3, 76, 0
3, 23484, Note_on_c, 3, 72, 80
3, 23485, Note_on_c, 3, 74, 0
3, 23519, Note_on_c, 3, 74, 80
3, 23522, Note_on_c, 3, 72, 0
3, 23557, Note_on_c, 3, 74, 0
3, 23557, Note_on_c, 3, 76, 80
3, 23604, Note_on_c, 3, 76, 0
3, 23618, Note_on_c, 3, 67, 0
3, 23624, Note_on_c, 3, 74, 80
3, 23624, Note_on_c, 3, 71, 80
3, 23665, Note_on_c, 3, 74, 0
3, 23674, Note_on_c, 3, 71, 0
3, 23694, Note_on_c, 3, 72, 80
3, 23747, Note_on_c, 3, 72, 0
3, 23765, Note_on_c, 3, 60, 80
3, 23837, Note_on_c, 3, 59, 80
3, 23839, Note_on_c, 3, 60, 0
3, 23899, Note_on_c, 3, 59, 0
3, 23905, Note_on_c, 3, 60, 80
3, 23970, Note_on_c, 3, 60, 0
3, 23971, Note_on_c, 3, 62, 80
3, 23971, Note_on_c, 3, 71, 80
3, 24016, Note_on_c, 3, 62, 0
3, 24040, Note_on_c, 3, 64, 80
3, 24071, Note_on_c, 3, 62, 80
3, 24074, Note_on_c, 3, 64, 0
3, 24107, Note_on_c, 3, 60, 80
3, 24111, Note_on_c, 3, 62, 0
3, 24112, Note_on_c, 3, 71, 0
3, 24172, Note_on_c, 3, 62, 80
3, 24177, Note_on_c, 3, 60, 0
3, 24237, Note_on_c, 3, 64, 80
3, 24244, Note_on_c, 3, 62, 0
3, 24311, Note_on_c, 3, 64, 0
3, 24311, Note_on_c, 3, 65, 80
3, 24312, Note_on_c, 3, 74, 80
3, 24312, Note_on_c, 3, 71, 80
3, 24363, Note_on_c, 3, 71, 0
3, 24370, Note_on_c, 3, 74, 0
3, 24385, Note_on_c, 3, 65, 0
3, 24385, Note_on_c, 3, 67, 80
3, 24386, Note_on_c, 3, 75, 80
3, 24386, Note_on_c, 3, 72, 80
3, 24435, Note_on_c, 3, 72, 0
3, 24436, Note_on_c, 3, 75, 0
3, 24444, Note_on_c, 3, 67, 0
3, 24456, Note_on_c, 3, 65, 80
3, 24457, Note_on_c, 3, 74, 80
3, 24457, Note_on_c, 3, 71, 80
3, 24505, Note_on_c, 3, 71, 0
3, 24508, Note_on_c, 3, 74, 0
3, 24527, Note_on_c, 3, 65, 0
3, 24529, Note_on_c, 3, 63, 80
3, 24529, Note_on_c, 3, 69, 80
3, 24529, Note_on_c, 3, 72, 80
3, 24580, Note_on_c, 3, 63, 0
3, 24580, Note_on_c, 3, 69, 0
3, 24581, Note_on_c, 3, 72, 0
3, 24605, Note_on_c, 3, 62, 80
3, 24605, Note_on_c, 3, 71, 80
3, 24605, Note_on_c, 3, 67, 80
3, 24632, Note_on_c, 3, 71, 0
3, 24638, Note_on_c, 3, 67, 0
3, 24646, Note_on_c, 3, 62, 0
3, 24646, Note_on_c, 3, 63, 80
3, 24647, Note_on_c, 3, 72, 80
3, 24647, Note_on_c, 3, 69, 80
3, 24673, Note_on_c, 3, 69, 0
3, 24674, Note_on_c, 3, 72, 0
3, 24680, Note_on_c, 3, 63, 0
3, 24700, Note_on_c, 3, 65, 80
3, 24700, Note_on_c, 3, 71, 80
3, 24700, Note_on_c, 3, 74, 80
3, 24775, Note_on_c, 3, 71, 0
3, 24815, Note_on_c, 3, 63, 80
3, 24815, Note_on_c, 3, 69, 80
3, 24816, Note_on_c, 3, 72, 80
3, 24817, Note_on_c, 3, 65, 0
3, 24821, Note_on_c, 3, 74, 0
3, 24999, Note_on_c, 3, 71, 80
3, 25000, Note_on_c, 3, 62, 80
3, 25000, Note_on_c, 3, 67, 80
3, 25003, Note_on_c, 3, 72, 0
3, 25004, Note_on_c, 3, 63, 0
3, 25009, Note_on_c, 3, 69, 0
3, 25439, Note_on_c, 3, 71, 0
3, 25439, Note_on_c, 3, 62, 0
3, 25439, Note_on_c, 3, 67, 0
3, 25439, End_track
4, 0, Start_track
4, 0, Title_t, "Flute 8"
4, 0, MIDI_port, 0
4, 0, Control_c, 1, 7, 63
4, 0, Control_c, 1, 10, 68
4, 0, Control_c, 1, 91, 100
4, 0, Program_c, 1, 73
4, 3733, Note_on_c, 1, 67, 80
4, 3973, Note_on_c, 1, 67, 0
4, 4011, Note_on_c, 1, 67, 80
4, 4146, Note_on_c, 1, 67, 0
4, 4149, Note_on_c, 1, 69, 80
4, 4211, Note_on_c, 1, 72, 80
4, 4214, Note_on_c, 1, 69, 0
4, 4244, Note_on_c, 1, 71, 80
4, 4249, Note_on_c, 1, 72, 0
4, 4265, Note_on_c, 1, 71, 0
4, 4285, Note_on_c, 1, 71, 80
4, 4416, Note_on_c, 1, 71, 0
4, 4420, Note_on_c, 1, 69, 80
4, 4522, Note_on_c, 1, 71, 80
4, 4526, Note_on_c, 1, 69, 0
4, 4561, Note_on_c, 1, 71, 0
4, 4561, Note_on_c, 1, 72, 80
4, 4693, Note_on_c, 1, 71, 80
4, 4697, Note_on_c, 1, 72, 0
4, 4830, Note_on_c, 1, 71, 0
4, 4842, Note_on_c, 1, 71, 80
4, 4854, Note_on_c, 1, 69, 80
4, 4855, Note_on_c, 1, 71, 0
4, 4867, Note_on_c, 1, 71, 80
4, 4868, Note_on_c, 1, 69, 0
4, 4876, Note_on_c, 1, 71, 0
4, 4876, Note_on_c, 1, 69, 80
4, 4886, Note_on_c, 1, 71, 80
4, 4888, Note_on_c, 1, 69, 0
4, 4895, Note_on_c, 1, 71, 0
4, 4895, Note_on_c, 1, 69, 80
4, 4903, Note_on_c, 1, 71, 80
4, 4906, Note_on_c, 1, 69, 0
4, 4911, Note_on_c, 1, 69, 80
4, 4912, Note_on_c, 1, 71, 0
4, 4918, Note_on_c, 1, 71, 80
4, 4921, Note_on_c, 1, 69, 0
4, 4927, Note_on_c, 1, 71, 0
4, 4929, Note_on_c, 1, 69, 80
4, 4934, Note_on_c, 1, 71, 80
4, 4937, Note_on_c, 1, 69, 0
4, 4941, Note_on_c, 1, 71, 0
4, 4943, Note_on_c, 1, 69, 80
4, 4947, Note_on_c, 1, 71, 80
4, 4950, Note_on_c, 1, 69, 0
4, 4954, Note_on_c, 1, 71, 0
4, 4957, Note_on_c, 1, 69, 80
4, 4961, Note_on_c, 1, 71, 80
4, 4964, Note_on_c, 1, 69, 0
4, 4966, Note_on_c, 1, 71, 0
4, 4970, Note_on_c, 1, 69, 80
4, 4973, Note_on_c, 1, 71, 80
4, 4983, Note_on_c, 1, 71, 0
4, 5018, Note_on_c, 1, 67, 80
4, 5019, Note_on_c, 1, 69, 0
4, 5051, Note_on_c, 1, 69, 80
4, 5052, Note_on_c, 1, 67, 0
4, 5123, Note_on_c, 1, 67, 80
4, 5124, Note_on_c, 1, 69, 0
4, 5692, Note_on_c, 1, 67, 0
4, 10269, Note_on_c, 1, 71, 80
4, 10550, Note_on_c, 1, 72, 80
4, 10552, Note_on_c, 1, 71, 0
4, 10695, Note_on_c, 1, 71, 80
4, 10699, Note_on_c, 1, 72, 0
4, 10844, Note_on_c, 1, 69, 80
4, 10845, Note_on_c, 1, 71, 0
4, 10978, Note_on_c, 1, 67, 80
4, 10981, Note_on_c, 1, 69, 0
4, 11136, Note_on_c, 1, 67, 0
4, 11136, Note_on_c, 1, 66, 80
4, 11271, Note_on_c, 1, 66, 0
4, 11275, Note_on_c, 1, 67, 80
4, 11429, Note_on_c, 1, 69, 80
4, 11432, Note_on_c, 1, 67, 0
4, 12044, Note_on_c, 1, 69, 0
4, 15987, Note_on_c, 1, 74, 80
4, 16277, Note_on_c, 1, 72, 80
4, 16281, Note_on_c, 1, 74, 0
4, 16423, Note_on_c, 1, 71, 80
4, 16429, Note_on_c, 1, 72, 0
4, 16561, Note_on_c, 1, 71, 0
4, 16565, Note_on_c, 1, 69, 80
4, 16622, Note_on_c, 1, 67, 80
4, 16624, Note_on_c, 1, 69, 0
4, 16691, Note_on_c, 1, 66, 80
4, 16696, Note_on_c, 1, 67, 0
4, 16803, Note_on_c, 1, 66, 0
4, 16831, Note_on_c, 1, 67, 80
4, 16900, Note_on_c, 1, 66, 80
4, 16903, Note_on_c, 1, 67, 0
4, 16970, Note_on_c, 1, 64, 80
4, 16971, Note_on_c, 1, 66, 0
4, 17106, Note_on_c, 1, 62, 80
4, 17110, Note_on_c, 1, 64, 0
4, 17655, Note_on_c, 1, 62, 0
4, 22033, Note_on_c, 1, 71, 80
4, 22288, Note_on_c, 1, 71, 0
4, 22312, Note_on_c, 1, 72, 80
4, 22456, Note_on_c, 1, 71, 80
4, 22460, Note_on_c, 1, 72, 0
4, 22598, Note_on_c, 1, 69, 80
4, 22599, Note_on_c, 1, 71, 0
4, 22710, Note_on_c, 1, 69, 0
4, 22734, Note_on_c, 1, 67, 80
4, 22796, Note_on_c, 1, 69, 80
4, 22798, Note_on_c, 1, 67, 0
4, 22852, Note_on_c, 1, 69, 0
4, 22858, Note_on_c, 1, 71, 80
4, 23000, Note_on_c, 1, 69, 80
4, 23003, Note_on_c, 1, 71, 0
4, 23134, Note_on_c, 1, 67, 80
4, 23137, Note_on_c, 1, 69, 0
4, 25434, Note_on_c, 1, 67, 0
4, 25434, End_track
5, 0, Start_track
5, 0, Title_t, "Nazard"
5, 0, MIDI_port, 0
5, 0, Control_c, 5, 7, 73
5, 0, Control_c, 5, 10, 59
5, 0, Control_c, 5, 91, 100
5, 0, Program_c, 5, 79
5, 3733, Note_on_c, 5, 86, 80
5, 3973, Note_on_c, 5, 86, 0
5, 4011, Note_on_c, 5, 86, 80
5, 4146, Note_on_c, 5, 86, 0
5, 4149, Note_on_c, 5, 88, 80
5, 4211, Note_on_c, 5, 91, 80
5, 4214, Note_on_c, 5, 88, 0
5, 4244, Note_on_c, 5, 90, 80
5, 4249, Note_on_c, 5, 91, 0
5, 4265, Note_on_c, 5, 90, 0
5, 4285, Note_on_c, 5, 90, 80
5, 4416, Note_on_c, 5, 90, 0
5, 4420, Note_on_c, 5, 88, 80
5, 4522, Note_on_c, 5, 90, 80
5, 4526, Note_on_c, 5, 88, 0
5, 4561, Note_on_c, 5, 90, 0
5, 4561, Note_on_c, 5, 91, 80
5, 4693, Note_on_c, 5, 90, 80
5, 4697, Note_on_c, 5, 91, 0
5, 4830, Note_on_c, 5, 90, 0
5, 4842, Note_on_c, 5, 90, 80
5, 4854, Note_on_c, 5, 88, 80
5, 4855, Note_on_c, 5, 90, 0
5, 4867, Note_on_c, 5, 90, 80
5, 4868, Note_on_c, 5, 88, 0
5, 4876, Note_on_c, 5, 90, 0
5, 4876, Note_on_c, 5, 88, 80
5, 4886, Note_on_c, 5, 90, 80
5, 4888, Note_on_c, 5, 88, 0
5, 4895, Note_on_c, 5, 90, 0
5, 4895, Note_on_c, 5, 88, 80
5, 4903, Note_on_c, 5, 90, 80
5, 4906, Note_on_c, 5, 88, 0
5, 4911, Note_on_c, 5, 88, 80
5, 4912, Note_on_c, 5, 90, 0
5, 4918, Note_on_c, 5, 90, 80
5, 4921, Note_on_c, 5, 88, 0
5, 4927, Note_on_c, 5, 90, 0
5, 4929, Note_on_c, 5, 88, 80
5, 4934, Note_on_c, 5, 90, 80
5, 4937, Note_on_c, 5, 88, 0
5, 4941, Note_on_c, 5, 90, 0
5, 4943, Note_on_c, 5, 88, 80
5, 4947, Note_on_c, 5, 90, 80
5, 4950, Note_on_c, 5, 88, 0
5, 4954, Note_on_c, 5, 90, 0
5, 4957, Note_on_c, 5, 88, 80
5, 4961, Note_on_c, 5, 90, 80
5, 4964, Note_on_c, 5, 88, 0
5, 4966, Note_on_c, 5, 90, 0
5, 4970, Note_on_c, 5, 88, 80
5, 4973, Note_on_c, 5, 90, 80
5, 4983, Note_on_c, 5, 90, 0
5, 5018, Note_on_c, 5, 86, 80
5, 5019, Note_on_c, 5, 88, 0
5, 5051, Note_on_c, 5, 88, 80
5, 5052, Note_on_c, 5, 86, 0
5, 5123, Note_on_c, 5, 86, 80
5, 5124, Note_on_c, 5, 88, 0
5, 5692, Note_on_c, 5, 86, 0
5, 10269, Note_on_c, 5, 90, 80
5, 10550, Note_on_c, 5, 91, 80
5, 10552, Note_on_c, 5, 90, 0
5, 10695, Note_on_c, 5, 90, 80
5, 10699, Note_on_c, 5, 91, 0
5, 10844, Note_on_c, 5, 88, 80
5, 10845, Note_on_c, 5, 90, 0
5, 10978, Note_on_c, 5, 86, 80
5, 10981, Note_on_c, 5, 88, 0
5, 11136, Note_on_c, 5, 86, 0
5, 11136, Note_on_c, 5, 85, 80
5, 11271, Note_on_c, 5, 85, 0
5, 11275, Note_on_c, 5, 86, 80
5, 11429, Note_on_c, 5, 88, 80
5, 11432, Note_on_c, 5, 86, 0
5, 12044, Note_on_c, 5, 88, 0
5, 15987, Note_on_c, 5, 93, 80
5, 16277, Note_on_c, 5, 91, 80
5, 16281, Note_on_c, 5, 93, 0
5, 16423, Note_on_c, 5, 90, 80
5, 16429, Note_on_c, 5, 91, 0
5, 16561, Note_on_c, 5, 90, 0
5, 16565, Note_on_c, 5, 88, 80
5, 16622, Note_on_c, 5, 86, 80
5, 16624, Note_on_c, 5, 88, 0
5, 16691, Note_on_c, 5, 85, 80
5, 16696, Note_on_c, 5, 86, 0
5, 16803, Note_on_c, 5, 85, 0
5, 16831, Note_on_c, 5, 86, 80
5, 16900, Note_on_c, 5, 85, 80
5, 16903, Note_on_c, 5, 86, 0
5, 16970, Note_on_c, 5, 83, 80
5, 16971, Note_on_c, 5, 85, 0
5, 17106, Note_on_c, 5, 81, 80
5, 17110, Note_on_c, 5, 83, 0
5, 17655, Note_on_c, 5, 81, 0
5, 22033, Note_on_c, 5, 90, 80
5, 22288, Note_on_c, 5, 90, 0
5, 22312, Note_on_c, 5, 91, 80
5, 22456, Note_on_c, 5, 90, 80
5, 22460, Note_on_c, 5, 91, 0
5, 22598, Note_on_c, 5, 88, 80
5, 22599, Note_on_c, 5, 90, 0
5, 22710, Note_on_c, 5, 88, 0
5, 22734, Note_on_c, 5, 86, 80
5, 22796, Note_on_c, 5, 88, 80
5, 22798, Note_on_c, 5, 86, 0
5, 22852, Note_on_c, 5, 88, 0
5, 22858, Note_on_c, 5, 90, 80
5, 23000, Note_on_c, 5, 88, 80
5, 23003, Note_on_c, 5, 90, 0
5, 23134, Note_on_c, 5, 86, 80
5, 23137, Note_on_c, 5, 88, 0
5, 25434, Note_on_c, 5, 86, 0
5, 25434, End_track
6, 0, Start_track
6, 0, Title_t, "Tierce"
6, 0, MIDI_port, 0
6, 0, Control_c, 6, 7, 80
6, 0, Control_c, 6, 10, 76
6, 0, Control_c, 6, 91, 100
6, 0, Program_c, 6, 79
6, 3733, Note_on_c, 6, 95, 80
6, 3973, Note_on_c, 6, 95, 0
6, 4011, Note_on_c, 6, 95, 80
6, 4146, Note_on_c, 6, 95, 0
6, 4149, Note_on_c, 6, 97, 80
6, 4211, Note_on_c, 6, 100, 80
6, 4214, Note_on_c, 6, 97, 0
6, 4244, Note_on_c, 6, 99, 80
6, 4249, Note_on_c, 6, 100, 0
6, 4265, Note_on_c, 6, 99, 0
6, 4285, Note_on_c, 6, 99, 80
6, 4416, Note_on_c, 6, 99, 0
6, 4420, Note_on_c, 6, 97, 80
6, 4522, Note_on_c, 6, 99, 80
6, 4526, Note_on_c, 6, 97, 0
6, 4561, Note_on_c, 6, 99, 0
6, 4561, Note_on_c, 6, 100, 80
6, 4693, Note_on_c, 6, 99, 80
6, 4697, Note_on_c, 6, 100, 0
6, 4830, Note_on_c, 6, 99, 0
6, 4842, Note_on_c, 6, 99, 80
6, 4854, Note_on_c, 6, 97, 80
6, 4855, Note_on_c, 6, 99, 0
6, 4867, Note_on_c, 6, 99, 80
6, 4868, Note_on_c, 6, 97, 0
6, 4876, Note_on_c, 6, 99, 0
6, 4876, Note_on_c, 6, 97, 80
6, 4886, Note_on_c, 6, 99, 80
6, 4888, Note_on_c, 6, 97, 0
6, 4895, Note_on_c, 6, 99, 0
6, 4895, Note_on_c, 6, 97, 80
6, 4903, Note_on_c, 6, 99, 80
6, 4906, Note_on_c, 6, 97, 0
6, 4911, Note_on_c, 6, 97, 80
6, 4912, Note_on_c, 6, 99, 0
6, 4918, Note_on_c, 6, 99, 80
6, 4921, Note_on_c, 6, 97, 0
6, 4927, Note_on_c, 6, 99, 0
6, 4929, Note_on_c, 6, 97, 80
6, 4934, Note_on_c, 6, 99, 80
6, 4937, Note_on_c, 6, 97, 0
6, 4941, Note_on_c, 6, 99, 0
6, 4943, Note_on_c, 6, 97, 80
6, 4947, Note_on_c, 6, 99, 80
6, 4950, Note_on_c, 6, 97, 0
6, 4954, Note_on_c, 6, 99, 0
6, 4957, Note_on_c, 6, 97, 80
6, 4961, Note_on_c, 6, 99, 80
6, 4964, Note_on_c, 6, 97, 0
6, 4966, Note_on_c, 6, 99, 0
6, 4970, Note_on_c, 6, 97, 80
6, 4973, Note_on_c, 6, 99, 80
6, 4983, Note_on_c, 6, 99, 0
6, 5018, Note_on_c, 6, 95, 80
6, 5019, Note_on_c, 6, 97, 0
6, 5051, Note_on_c, 6, 97, 80
6, 5052, Note_on_c, 6, 95, 0
6, 5123, Note_on_c, 6, 95, 80
6, 5124, Note_on_c, 6, 97, 0
6, 5692, Note_on_c, 6, 95, 0
6, 10269, Note_on_c, 6, 99, 80
6, 10550, Note_on_c, 6, 100, 80
6, 10552, Note_on_c, 6, 99, 0
6, 10695, Note_on_c, 6, 99, 80
6, 10699, Note_on_c, 6, 100, 0
6, 10844, Note_on_c, 6, 97, 80
6, 10845, Note_on_c, 6, 99, 0
6, 10978, Note_on_c, 6, 95, 80
6, 10981, Note_on_c, 6, 97, 0
6, 11136, Note_on_c, 6, 95, 0
6, 11136, Note_on_c, 6, 94, 80
6, 11271, Note_on_c, 6, 94, 0
6, 11275, Note_on_c, 6, 95, 80
6, 11429, Note_on_c, 6, 97, 80
6, 11432, Note_on_c, 6, 95, 0
6, 12044, Note_on_c, 6, 97, 0
6, 15987, Note_on_c, 6, 102, 80
6, 16277, Note_on_c, 6, 100, 80
6, 16281, Note_on_c, 6, 102, 0
6, 16423, Note_on_c, 6, 99, 80
6, 16429, Note_on_c, 6, 100, 0
6, 16561, Note_on_c, 6, 99, 0
6, 16565, Note_on_c, 6, 97, 80
6, 16622, Note_on_c, 6, 95, 80
6, 16624, Note_on_c, 6, 97, 0
6, 16691, Note_on_c, 6, 94, 80
6, 16696, Note_on_c, 6, 95, 0
6, 16803, Note_on_c, 6, 94, 0
6, 16831, Note_on_c, 6, 95, 80
6, 16900, Note_on_c, 6, 94, 80
6, 16903, Note_on_c, 6, 95, 0
6, 16970, Note_on_c, 6, 92, 80
6, 16971, Note_on_c, 6, 94, 0
6, 17106, Note_on_c, 6, 90, 80
6, 17110, Note_on_c, 6, 92, 0
6, 17655, Note_on_c, 6, 90, 0
6, 22033, Note_on_c, 6, 99, 80
6, 22288, Note_on_c, 6, 99, 0
6, 22312, Note_on_c, 6, 100, 80
6, 22456, Note_on_c, 6, 99, 80
6, 22460, Note_on_c, 6, 100, 0
6, 22598, Note_on_c, 6, 97, 80
6, 22599, Note_on_c, 6, 99, 0
6, 22710, Note_on_c, 6, 97, 0
6, 22734, Note_on_c, 6, 95, 80
6, 22796, Note_on_c, 6, 97, 80
6, 22798, Note_on_c, 6, 95, 0
6, 22852, Note_on_c, 6, 97, 0
6, 22858, Note_on_c, 6, 99, 80
6, 23000, Note_on_c, 6, 97, 80
6, 23003, Note_on_c, 6, 99, 0
6, 23134, Note_on_c, 6, 95, 80
6, 23137, Note_on_c, 6, 97, 0
6, 25434, Note_on_c, 6, 95, 0
6, 25434, End_track
7, 0, Start_track
7, 0, Title_t, "Ped 8"
7, 0, MIDI_port, 0
7, 0, Control_c, 2, 7, 86
7, 0, Control_c, 2, 10, 93
7, 0, Control_c, 2, 91, 100
7, 0, Program_c, 2, 78
7, 1968, Note_on_c, 2, 50, 80
7, 2004, Note_on_c, 2, 50, 0
7, 2034, Note_on_c, 2, 50, 85
7, 2098, Note_on_c, 2, 52, 77
7, 2104, Note_on_c, 2, 50, 0
7, 2160, Note_on_c, 2, 54, 82
7, 2163, Note_on_c, 2, 52, 0
7, 2271, Note_on_c, 2, 54, 0
7, 2278, Note_on_c, 2, 52, 74
7, 2343, Note_on_c, 2, 54, 86
7, 2354, Note_on_c, 2, 52, 0
7, 2407, Note_on_c, 2, 54, 0
7, 2408, Note_on_c, 2, 55, 79
7, 2473, Note_on_c, 2, 54, 85
7, 2474, Note_on_c, 2, 55, 0
7, 2509, Note_on_c, 2, 54, 0
7, 2550, Note_on_c, 2, 52, 78
7, 2684, Note_on_c, 2, 50, 71
7, 2692, Note_on_c, 2, 52, 0
7, 2745, Note_on_c, 2, 50, 0
7, 2752, Note_on_c, 2, 51, 84
7, 2811, Note_on_c, 2, 51, 0
7, 2813, Note_on_c, 2, 52, 80
7, 2876, Note_on_c, 2, 53, 90
7, 2877, Note_on_c, 2, 52, 0
7, 2940, Note_on_c, 2, 54, 89
7, 2943, Note_on_c, 2, 53, 0
7, 3099, Note_on_c, 2, 54, 0
7, 3142, Note_on_c, 2, 52, 76
7, 3212, Note_on_c, 2, 54, 83
7, 3213, Note_on_c, 2, 52, 0
7, 3260, Note_on_c, 2, 54, 0
7, 3272, Note_on_c, 2, 47, 83
7, 3314, Note_on_c, 2, 47, 0
7, 3343, Note_on_c, 2, 52, 83
7, 3518, Note_on_c, 2, 52, 0
7, 3538, Note_on_c, 2, 45, 79
7, 3572, Note_on_c, 2, 45, 0
7, 3603, Note_on_c, 2, 50, 79
7, 3703, Note_on_c, 2, 50, 0
7, 3734, Note_on_c, 2, 43, 76
7, 3830, Note_on_c, 2, 43, 0
7, 4086, Note_on_c, 2, 55, 79
7, 4118, Note_on_c, 2, 55, 0
7, 4152, Note_on_c, 2, 55, 83
7, 4215, Note_on_c, 2, 54, 84
7, 4217, Note_on_c, 2, 55, 0
7, 4277, Note_on_c, 2, 54, 0
7, 4277, Note_on_c, 2, 52, 79
7, 4384, Note_on_c, 2, 50, 83
7, 4387, Note_on_c, 2, 52, 0
7, 4422, Note_on_c, 2, 48, 76
7, 4423, Note_on_c, 2, 50, 0
7, 4489, Note_on_c, 2, 48, 0
7, 4490, Note_on_c, 2, 50, 83
7, 4543, Note_on_c, 2, 50, 0
7, 4561, Note_on_c, 2, 45, 75
7, 4598, Note_on_c, 2, 45, 0
7, 4627, Note_on_c, 2, 42, 92
7, 4693, Note_on_c, 2, 42, 0
7, 4693, Note_on_c, 2, 43, 75
7, 4733, Note_on_c, 2, 43, 0
7, 4766, Note_on_c, 2, 47, 77
7, 4809, Note_on_c, 2, 47, 0
7, 4835, Note_on_c, 2, 48, 77
7, 4908, Note_on_c, 2, 45, 73
7, 4912, Note_on_c, 2, 48, 0
7, 4978, Note_on_c, 2, 45, 0
7, 4979, Note_on_c, 2, 50, 83
7, 5017, Note_on_c, 2, 50, 0
7, 5053, Note_on_c, 2, 38, 86
7, 5101, Note_on_c, 2, 38, 0
7, 5130, Note_on_c, 2, 40, 68
7, 5178, Note_on_c, 2, 40, 0
7, 5202, Note_on_c, 2, 52, 71
7, 5273, Note_on_c, 2, 47, 84
7, 5275, Note_on_c, 2, 52, 0
7, 5342, Note_on_c, 2, 47, 0
7, 5342, Note_on_c, 2, 45, 80
7, 5376, Note_on_c, 2, 47, 79
7, 5381, Note_on_c, 2, 45, 0
7, 5414, Note_on_c, 2, 48, 76
7, 5415, Note_on_c, 2, 47, 0
7, 5700, Note_on_c, 2, 48, 0
7, 5705, Note_on_c, 2, 43, 68
7, 5844, Note_on_c, 2, 43, 0
7, 6667, Note_on_c, 2, 50, 79
7, 6739, Note_on_c, 2, 52, 70
7, 6742, Note_on_c, 2, 50, 0
7, 6810, Note_on_c, 2, 52, 0
7, 6810, Note_on_c, 2, 50, 74
7, 6882, Note_on_c, 2, 48, 76
7, 6887, Note_on_c, 2, 50, 0
7, 6958, Note_on_c, 2, 48, 0
7, 6959, Note_on_c, 2, 47, 76
7, 7032, Note_on_c, 2, 45, 82
7, 7035, Note_on_c, 2, 47, 0
7, 7093, Note_on_c, 2, 47, 79
7, 7097, Note_on_c, 2, 45, 0
7, 7162, Note_on_c, 2, 48, 79
7, 7165, Note_on_c, 2, 47, 0
7, 7342, Note_on_c, 2, 48, 0
7, 7365, Note_on_c, 2, 47, 79
7, 7399, Note_on_c, 2, 46, 79
7, 7400, Note_on_c, 2, 47, 0
7, 7435, Note_on_c, 2, 46, 0
7, 7435, Note_on_c, 2, 47, 77
7, 7875, Note_on_c, 2, 47, 0
7, 8083, Note_on_c, 2, 47, 78
7, 8129, Note_on_c, 2, 47, 0
7, 8157, Note_on_c, 2, 45, 82
7, 8226, Note_on_c, 2, 47, 83
7, 8241, Note_on_c, 2, 45, 0
7, 8295, Note_on_c, 2, 48, 77
7, 8298, Note_on_c, 2, 47, 0
7, 8364, Note_on_c, 2, 50, 81
7, 8365, Note_on_c, 2, 48, 0
7, 8434, Note_on_c, 2, 52, 78
7, 8435, Note_on_c, 2, 50, 0
7, 8503, Note_on_c, 2, 50, 79
7, 8512, Note_on_c, 2, 52, 0
7, 8573, Note_on_c, 2, 49, 88
7, 8577, Note_on_c, 2, 50, 0
7, 8643, Note_on_c, 2, 45, 79
7, 8644, Note_on_c, 2, 49, 0
7, 8714, Note_on_c, 2, 45, 0
7, 8715, Note_on_c, 2, 50, 86
7, 8895, Note_on_c, 2, 50, 0
7, 8913, Note_on_c, 2, 49, 89
7, 8945, Note_on_c, 2, 47, 74
7, 8946, Note_on_c, 2, 49, 0
7, 8983, Note_on_c, 2, 49, 83
7, 8985, Note_on_c, 2, 47, 0
7, 9050, Note_on_c, 2, 49, 0
7, 9056, Note_on_c, 2, 48, 77
7, 9187, Note_on_c, 2, 48, 0
7, 9200, Note_on_c, 2, 47, 83
7, 9232, Note_on_c, 2, 45, 76
7, 9233, Note_on_c, 2, 47, 0
7, 9269, Note_on_c, 2, 47, 76
7, 9272, Note_on_c, 2, 45, 0
7, 9315, Note_on_c, 2, 47, 0
7, 9341, Note_on_c, 2, 43, 81
7, 9394, Note_on_c, 2, 43, 0
7, 9411, Note_on_c, 2, 45, 79
7, 9473, Note_on_c, 2, 47, 83
7, 9474, Note_on_c, 2, 45, 0
7, 9505, Note_on_c, 2, 47, 0
7, 9506, Note_on_c, 2, 48, 76
7, 9543, Note_on_c, 2, 50, 85
7, 9545, Note_on_c, 2, 48, 0
7, 9749, Note_on_c, 2, 50, 0
7, 9749, Note_on_c, 2, 52, 77
7, 9824, Note_on_c, 2, 54, 89
7, 9827, Note_on_c, 2, 52, 0
7, 9893, Note_on_c, 2, 54, 0
7, 9896, Note_on_c, 2, 50, 80
7, 9976, Note_on_c, 2, 50, 0
7, 9976, Note_on_c, 2, 55, 83
7, 10301, Note_on_c, 2, 55, 0
7, 10337, Note_on_c, 2, 55, 84
7, 10376, Note_on_c, 2, 55, 0
7, 10416, Note_on_c, 2, 55, 86
7, 10481, Note_on_c, 2, 53, 84
7, 10485, Note_on_c, 2, 55, 0
7, 10550, Note_on_c, 2, 52, 76
7, 10554, Note_on_c, 2, 53, 0
7, 10583, Note_on_c, 2, 52, 0
7, 10620, Note_on_c, 2, 52, 76
7, 10660, Note_on_c, 2, 52, 0
7, 10697, Note_on_c, 2, 52, 74
7, 10771, Note_on_c, 2, 50, 80
7, 10774, Note_on_c, 2, 52, 0
7, 10845, Note_on_c, 2, 48, 76
7, 10848, Note_on_c, 2, 50, 0
7, 10879, Note_on_c, 2, 48, 0
7, 10914, Note_on_c, 2, 48, 73
7, 10952, Note_on_c, 2, 48, 0
7, 10985, Note_on_c, 2, 48, 79
7, 11059, Note_on_c, 2, 47, 82
7, 11064, Note_on_c, 2, 48, 0
7, 11132, Note_on_c, 2, 45, 76
7, 11135, Note_on_c, 2, 47, 0
7, 11178, Note_on_c, 2, 45, 0
7, 11204, Note_on_c, 2, 50, 81
7, 11280, Note_on_c, 2, 47, 80
7, 11284, Note_on_c, 2, 50, 0
7, 11335, Note_on_c, 2, 47, 0
7, 11356, Note_on_c, 2, 52, 78
7, 11424, Note_on_c, 2, 52, 0
7, 11424, Note_on_c, 2, 49, 86
7, 11493, Note_on_c, 2, 49, 0
7, 11494, Note_on_c, 2, 45, 77
7, 11531, Note_on_c, 2, 47, 87
7, 11532, Note_on_c, 2, 45, 0
7, 11571, Note_on_c, 2, 49, 89
7, 11573, Note_on_c, 2, 47, 0
7, 11614, Note_on_c, 2, 49, 0
7, 11639, Note_on_c, 2, 45, 74
7, 11688, Note_on_c, 2, 45, 0
7, 11712, Note_on_c, 2, 54, 86
7, 11780, Note_on_c, 2, 50, 68
7, 11783, Note_on_c, 2, 54, 0
7, 11827, Note_on_c, 2, 50, 0
7, 11855, Note_on_c, 2, 57, 79
7, 11923, Note_on_c, 2, 45, 81
7, 11924, Note_on_c, 2, 57, 0
7, 11969, Note_on_c, 2, 45, 0
7, 12008, Note_on_c, 2, 50, 80
7, 12179, Note_on_c, 2, 50, 0
7, 13260, Note_on_c, 2, 50, 90
7, 13325, Note_on_c, 2, 48, 86
7, 13327, Note_on_c, 2, 50, 0
7, 13394, Note_on_c, 2, 47, 85
7, 13396, Note_on_c, 2, 48, 0
7, 13466, Note_on_c, 2, 47, 0
7, 13466, Note_on_c, 2, 45, 86
7, 13616, Note_on_c, 2, 44, 89
7, 13617, Note_on_c, 2, 45, 0
7, 13722, Note_on_c, 2, 44, 0
7, 13751, Note_on_c, 2, 45, 84
7, 13824, Note_on_c, 2, 43, 86
7, 13828, Note_on_c, 2, 45, 0
7, 13897, Note_on_c, 2, 42, 88
7, 13899, Note_on_c, 2, 43, 0
7, 13993, Note_on_c, 2, 42, 0
7, 14036, Note_on_c, 2, 40, 79
7, 14092, Note_on_c, 2, 40, 0
7, 14111, Note_on_c, 2, 45, 79
7, 14157, Note_on_c, 2, 45, 0
7, 14179, Note_on_c, 2, 43, 80
7, 14221, Note_on_c, 2, 43, 0
7, 14249, Note_on_c, 2, 48, 70
7, 14285, Note_on_c, 2, 48, 0
7, 14320, Note_on_c, 2, 47, 83
7, 14385, Note_on_c, 2, 49, 89
7, 14396, Note_on_c, 2, 47, 0
7, 14461, Note_on_c, 2, 51, 87
7, 14463, Note_on_c, 2, 49, 0
7, 14510, Note_on_c, 2, 51, 0
7, 14531, Note_on_c, 2, 47, 78
7, 14588, Note_on_c, 2, 47, 0
7, 14610, Note_on_c, 2, 52, 81
7, 14748, Note_on_c, 2, 54, 85
7, 14753, Note_on_c, 2, 52, 0
7, 14891, Note_on_c, 2, 54, 0
7, 14966, Note_on_c, 2, 55, 76
7, 15023, Note_on_c, 2, 55, 0
7, 15032, Note_on_c, 2, 54, 87
7, 15097, Note_on_c, 2, 54, 0
7, 15102, Note_on_c, 2, 52, 73
7, 15170, Note_on_c, 2, 52, 0
7, 15170, Note_on_c, 2, 50, 67
7, 15306, Note_on_c, 2, 47, 81
7, 15307, Note_on_c, 2, 50, 0
7, 15424, Note_on_c, 2, 47, 0
7, 15439, Note_on_c, 2, 48, 80
7, 15511, Note_on_c, 2, 47, 87
7, 15514, Note_on_c, 2, 48, 0
7, 15582, Note_on_c, 2, 47, 0
7, 15582, Note_on_c, 2, 45, 84
7, 15691, Note_on_c, 2, 45, 0
7, 15714, Note_on_c, 2, 43, 89
7, 15786, Note_on_c, 2, 42, 91
7, 15787, Note_on_c, 2, 43, 0
7, 15855, Note_on_c, 2, 40, 83
7, 15859, Note_on_c, 2, 42, 0
7, 15922, Note_on_c, 2, 45, 79
7, 15928, Note_on_c, 2, 40, 0
7, 15993, Note_on_c, 2, 38, 85
7, 16000, Note_on_c, 2, 45, 0
7, 16026, Note_on_c, 2, 38, 0
7, 16071, Note_on_c, 2, 50, 76
7, 16116, Note_on_c, 2, 50, 0
7, 16143, Note_on_c, 2, 50, 82
7, 16217, Note_on_c, 2, 50, 0
7, 16217, Note_on_c, 2, 52, 75
7, 16280, Note_on_c, 2, 54, 86
7, 16284, Note_on_c, 2, 52, 0
7, 16354, Note_on_c, 2, 50, 77
7, 16355, Note_on_c, 2, 54, 0
7, 16425, Note_on_c, 2, 50, 0
7, 16426, Note_on_c, 2, 55, 78
7, 16494, Note_on_c, 2, 55, 0
7, 16494, Note_on_c, 2, 43, 79
7, 16558, Note_on_c, 2, 50, 79
7, 16560, Note_on_c, 2, 43, 0
7, 16594, Note_on_c, 2, 50, 0
7, 16627, Note_on_c, 2, 50, 76
7, 16659, Note_on_c, 2, 50, 0
7, 16694, Note_on_c, 2, 50, 79
7, 16764, Note_on_c, 2, 49, 84
7, 16766, Note_on_c, 2, 50, 0
7, 16833, Note_on_c, 2, 49, 0
7, 16834, Note_on_c, 2, 47, 81
7, 16903, Note_on_c, 2, 47, 0
7, 16903, Note_on_c, 2, 45, 77
7, 16973, Note_on_c, 2, 43, 76
7, 16975, Note_on_c, 2, 45, 0
7, 17038, Note_on_c, 2, 45, 68
7, 17040, Note_on_c, 2, 43, 0
7, 17070, Note_on_c, 2, 43, 76
7, 17072, Note_on_c, 2, 45, 0
7, 17111, Note_on_c, 2, 42, 89
7, 17115, Note_on_c, 2, 43, 0
7, 17151, Note_on_c, 2, 42, 0
7, 17178, Note_on_c, 2, 38, 84
7, 17243, Note_on_c, 2, 38, 0
7, 17245, Note_on_c, 2, 40, 74
7, 17307, Note_on_c, 2, 42, 86
7, 17309, Note_on_c, 2, 40, 0
7, 17361, Note_on_c, 2, 42, 0
7, 17372, Note_on_c, 2, 43, 76
7, 17438, Note_on_c, 2, 45, 68
7, 17439, Note_on_c, 2, 43, 0
7, 17500, Note_on_c, 2, 47, 79
7, 17504, Note_on_c, 2, 45, 0
7, 17565, Note_on_c, 2, 49, 79
7, 17567, Note_on_c, 2, 47, 0
7, 17634, Note_on_c, 2, 50, 78
7, 17636, Note_on_c, 2, 49, 0
7, 17789, Note_on_c, 2, 50, 0
7, 18549, Note_on_c, 2, 48, 76
7, 18618, Note_on_c, 2, 50, 86
7, 18622, Note_on_c, 2, 48, 0
7, 18683, Note_on_c, 2, 48, 76
7, 18684, Note_on_c, 2, 50, 0
7, 18740, Note_on_c, 2, 47, 81
7, 18743, Note_on_c, 2, 48, 0
7, 18811, Note_on_c, 2, 45, 79
7, 18813, Note_on_c, 2, 47, 0
7, 18847, Note_on_c, 2, 47, 84
7, 18851, Note_on_c, 2, 45, 0
7, 18885, Note_on_c, 2, 47, 0
7, 18886, Note_on_c, 2, 48, 79
7, 18948, Note_on_c, 2, 47, 90
7, 18951, Note_on_c, 2, 48, 0
7, 19015, Note_on_c, 2, 45, 83
7, 19016, Note_on_c, 2, 47, 0
7, 19145, Note_on_c, 2, 45, 0
7, 19145, Note_on_c, 2, 47, 85
7, 19274, Note_on_c, 2, 47, 0
7, 19276, Note_on_c, 2, 40, 78
7, 19373, Note_on_c, 2, 40, 0
7, 19414, Note_on_c, 2, 52, 83
7, 19487, Note_on_c, 2, 50, 72
7, 19493, Note_on_c, 2, 52, 0
7, 19550, Note_on_c, 2, 49, 72
7, 19552, Note_on_c, 2, 50, 0
7, 19689, Note_on_c, 2, 49, 0
7, 19691, Note_on_c, 2, 42, 86
7, 19731, Note_on_c, 2, 42, 0
7, 19764, Note_on_c, 2, 54, 86
7, 19804, Note_on_c, 2, 54, 0
7, 19833, Note_on_c, 2, 47, 80
7, 19896, Note_on_c, 2, 45, 83
7, 19900, Note_on_c, 2, 47, 0
7, 19963, Note_on_c, 2, 43, 72
7, 19965, Note_on_c, 2, 45, 0
7, 20032, Note_on_c, 2, 45, 72
7, 20034, Note_on_c, 2, 43, 0
7, 20101, Note_on_c, 2, 40, 81
7, 20102, Note_on_c, 2, 45, 0
7, 20233, Note_on_c, 2, 40, 0
7, 20234, Note_on_c, 2, 47, 83
7, 20370, Note_on_c, 2, 45, 86
7, 20374, Note_on_c, 2, 47, 0
7, 20502, Note_on_c, 2, 45, 0
7, 20774, Note_on_c, 2, 47, 77
7, 20916, Note_on_c, 2, 47, 0
7, 20920, Note_on_c, 2, 45, 70
7, 21070, Note_on_c, 2, 47, 76
7, 21079, Note_on_c, 2, 45, 0
7, 21206, Note_on_c, 2, 49, 80
7, 21211, Note_on_c, 2, 47, 0
7, 21353, Note_on_c, 2, 50, 82
7, 21356, Note_on_c, 2, 49, 0
7, 21418, Note_on_c, 2, 49, 87
7, 21423, Note_on_c, 2, 50, 0
7, 21491, Note_on_c, 2, 49, 0
7, 21494, Note_on_c, 2, 47, 86
7, 21632, Note_on_c, 2, 49, 84
7, 21639, Note_on_c, 2, 47, 0
7, 21769, Note_on_c, 2, 50, 75
7, 21770, Note_on_c, 2, 49, 0
7, 21808, Note_on_c, 2, 50, 0
7, 21838, Note_on_c, 2, 51, 85
7, 21902, Note_on_c, 2, 51, 0
7, 21904, Note_on_c, 2, 52, 77
7, 22172, Note_on_c, 2, 51, 86
7, 22174, Note_on_c, 2, 52, 0
7, 22313, Note_on_c, 2, 52, 65
7, 22317, Note_on_c, 2, 51, 0
7, 22346, Note_on_c, 2, 52, 0
7, 22386, Note_on_c, 2, 52, 86
7, 22422, Note_on_c, 2, 52, 0
7, 22460, Note_on_c, 2, 52, 87
7, 22528, Note_on_c, 2, 50, 91
7, 22531, Note_on_c, 2, 52, 0
7, 22600, Note_on_c, 2, 48, 76
7, 22603, Note_on_c, 2, 50, 0
7, 22656, Note_on_c, 2, 48, 0
7, 22668, Note_on_c, 2, 50, 88
7, 22697, Note_on_c, 2, 48, 76
7, 22700, Note_on_c, 2, 50, 0
7, 22732, Note_on_c, 2, 48, 0
7, 22732, Note_on_c, 2, 47, 87
7, 22801, Note_on_c, 2, 45, 76
7, 22802, Note_on_c, 2, 47, 0
7, 22870, Note_on_c, 2, 43, 80
7, 22872, Note_on_c, 2, 45, 0
7, 22904, Note_on_c, 2, 43, 0
7, 22935, Note_on_c, 2, 47, 82
7, 23003, Note_on_c, 2, 47, 0
7, 23003, Note_on_c, 2, 49, 83
7, 23064, Note_on_c, 2, 49, 0
7, 23064, Note_on_c, 2, 51, 82
7, 23135, Note_on_c, 2, 40, 68
7, 23137, Note_on_c, 2, 51, 0
7, 23183, Note_on_c, 2, 40, 0
7, 23208, Note_on_c, 2, 52, 84
7, 23273, Note_on_c, 2, 50, 80
7, 23274, Note_on_c, 2, 52, 0
7, 23343, Note_on_c, 2, 50, 0
7, 23343, Note_on_c, 2, 48, 75
7, 23414, Note_on_c, 2, 47, 76
7, 23417, Note_on_c, 2, 48, 0
7, 23472, Note_on_c, 2, 47, 0
7, 23479, Note_on_c, 2, 45, 81
7, 23514, Note_on_c, 2, 47, 77
7, 23516, Note_on_c, 2, 45, 0
7, 23549, Note_on_c, 2, 48, 80
7, 23550, Note_on_c, 2, 47, 0
7, 23621, Note_on_c, 2, 43, 79
7, 23625, Note_on_c, 2, 48, 0
7, 23691, Note_on_c, 2, 40, 76
7, 23694, Note_on_c, 2, 43, 0
7, 23737, Note_on_c, 2, 40, 0
7, 23766, Note_on_c, 2, 42, 84
7, 23834, Note_on_c, 2, 43, 73
7, 23836, Note_on_c, 2, 42, 0
7, 23902, Note_on_c, 2, 45, 73
7, 23904, Note_on_c, 2, 43, 0
7, 23973, Note_on_c, 2, 45, 0
7, 23973, Note_on_c, 2, 47, 81
7, 24024, Note_on_c, 2, 47, 0
7, 24040, Note_on_c, 2, 43, 83
7, 24104, Note_on_c, 2, 45, 71
7, 24110, Note_on_c, 2, 43, 0
7, 24169, Note_on_c, 2, 47, 80
7, 24172, Note_on_c, 2, 45, 0
7, 24235, Note_on_c, 2, 48, 80
7, 24236, Note_on_c, 2, 47, 0
7, 24985, Note_on_c, 2, 48, 0
7, 25004, Note_on_c, 2, 43, 86
7, 25436, Note_on_c, 2, 43, 0
7, 25436, End_track
8, 0, Start_track
8, 0, Title_t, "Ped 16"
8, 0, MIDI_port, 0
8, 0, Control_c, 4, 7, 99
8, 0, Control_c, 4, 10, 102
8, 0, Control_c, 4, 91, 100
8, 0, Program_c, 4, 78
8, 1968, Note_on_c, 4, 38, 80
8, 2004, Note_on_c, 4, 38, 0
8, 2034, Note_on_c, 4, 38, 85
8, 2098, Note_on_c, 4, 40, 77
8, 2104, Note_on_c, 4, 38, 0
8, 2160, Note_on_c, 4, 42, 82
8, 2163, Note_on_c, 4, 40, 0
8, 2271, Note_on_c, 4, 42, 0
8, 2278, Note_on_c, 4, 40, 74
8, 2343, Note_on_c, 4, 42, 86
8, 2354, Note_on_c, 4, 40, 0
8, 2407, Note_on_c, 4, 42, 0
8, 2408, Note_on_c, 4, 43, 79
8, 2473, Note_on_c, 4, 42, 85
8, 2474, Note_on_c, 4, 43, 0
8, 2509, Note_on_c, 4, 42, 0
8, 2550, Note_on_c, 4, 40, 78
8, 2684, Note_on_c, 4, 38, 71
8, 2692, Note_on_c, 4, 40, 0
8, 2745, Note_on_c, 4, 38, 0
8, 2752, Note_on_c, 4, 39, 84
8, 2811, Note_on_c, 4, 39, 0
8, 2813, Note_on_c, 4, 40, 80
8, 2876, Note_on_c, 4, 41, 90
8, 2877, Note_on_c, 4, 40, 0
8, 2940, Note_on_c, 4, 42, 89
8, 2943, Note_on_c, 4, 41, 0
8, 3099, Note_on_c, 4, 42, 0
8, 3142, Note_on_c, 4, 40, 76
8, 3212, Note_on_c, 4, 42, 83
8, 3213, Note_on_c, 4, 40, 0
8, 3260, Note_on_c, 4, 42, 0
8, 3272, Note_on_c, 4, 35, 83
8, 3314, Note_on_c, 4, 35, 0
8, 3343, Note_on_c, 4, 40, 83
8, 3518, Note_on_c, 4, 40, 0
8, 3538, Note_on_c, 4, 33, 79
8, 3572, Note_on_c, 4, 33, 0
8, 3603, Note_on_c, 4, 38, 79
8, 3703, Note_on_c, 4, 38, 0
8, 3734, Note_on_c, 4, 31, 76
8, 3830, Note_on_c, 4, 31, 0
8, 4086, Note_on_c, 4, 43, 79
8, 4118, Note_on_c, 4, 43, 0
8, 4152, Note_on_c, 4, 43, 83
8, 4215, Note_on_c, 4, 42, 84
8, 4217, Note_on_c, 4, 43, 0
8, 4277, Note_on_c, 4, 42, 0
8, 4277, Note_on_c, 4, 40, 79
8, 4384, Note_on_c, 4, 38, 83
8, 4387, Note_on_c, 4, 40, 0
8, 4422, Note_on_c, 4, 36, 76
8, 4423, Note_on_c, 4, 38, 0
8, 4489, Note_on_c, 4, 36, 0
8, 4490, Note_on_c, 4, 38, 83
8, 4543, Note_on_c, 4, 38, 0
8, 4561, Note_on_c, 4, 33, 75
8, 4598, Note_on_c, 4, 33, 0
8, 4627, Note_on_c, 4, 30, 92
8, 4693, Note_on_c, 4, 30, 0
8, 4693, Note_on_c, 4, 31, 75
8, 4733, Note_on_c, 4, 31, 0
8, 4766, Note_on_c, 4, 35, 77
8, 4809, Note_on_c, 4, 35, 0
8, 4835, Note_on_c, 4, 36, 77
8, 4908, Note_on_c, 4, 33, 73
8, 4912, Note_on_c, 4, 36, 0
8, 4978, Note_on_c, 4, 33, 0
8, 4979, Note_on_c, 4, 38, 83
8, 5017, Note_on_c, 4, 38, 0
8, 5053, Note_on_c, 4, 26, 86
8, 5101, Note_on_c, 4, 26, 0
8, 5130, Note_on_c, 4, 28, 68
8, 5178, Note_on_c, 4, 28, 0
8, 5202, Note_on_c, 4, 40, 71
8, 5273, Note_on_c, 4, 35, 84
8, 5275, Note_on_c, 4, 40, 0
8, 5342, Note_on_c, 4, 35, 0
8, 5342, Note_on_c, 4, 33, 80
8, 5376, Note_on_c, 4, 35, 79
8, 5381, Note_on_c, 4, 33, 0
8, 5414, Note_on_c, 4, 36, 76
8, 5415, Note_on_c, 4, 35, 0
8, 5700, Note_on_c, 4, 36, 0
8, 5705, Note_on_c, 4, 31, 68
8, 5844, Note_on_c, 4, 31, 0
8, 6667, Note_on_c, 4, 38, 79
8, 6739, Note_on_c, 4, 40, 70
8, 6742, Note_on_c, 4, 38, 0
8, 6810, Note_on_c, 4, 40, 0
8, 6810, Note_on_c, 4, 38, 74
8, 6882, Note_on_c, 4, 36, 76
8, 6887, Note_on_c, 4, 38, 0
8, 6958, Note_on_c, 4, 36, 0
8, 6959, Note_on_c, 4, 35, 76
8, 7032, Note_on_c, 4, 33, 82
8, 7035, Note_on_c, 4, 35, 0
8, 7093, Note_on_c, 4, 35, 79
8, 7097, Note_on_c, 4, 33, 0
8, 7162, Note_on_c, 4, 36, 79
8, 7165, Note_on_c, 4, 35, 0
8, 7342, Note_on_c, 4, 36, 0
8, 7365, Note_on_c, 4, 35, 79
8, 7399, Note_on_c, 4, 34, 79
8, 7400, Note_on_c, 4, 35, 0
8, 7435, Note_on_c, 4, 34, 0
8, 7435, Note_on_c, 4, 35, 77
8, 7875, Note_on_c, 4, 35, 0
8, 8083, Note_on_c, 4, 35, 78
8, 8129, Note_on_c, 4, 35, 0
8, 8157, Note_on_c, 4, 33, 82
8, 8226, Note_on_c, 4, 35, 83
8, 8241, Note_on_c, 4, 33, 0
8, 8295, Note_on_c, 4, 36, 77
8, 8298, Note_on_c, 4, 35, 0
8, 8364, Note_on_c, 4, 38, 81
8, 8365, Note_on_c, 4, 36, 0
8, 8434, Note_on_c, 4, 40, 78
8, 8435, Note_on_c, 4, 38, 0
8, 8503, Note_on_c, 4, 38, 79
8, 8512, Note_on_c, 4, 40, 0
8, 8573, Note_on_c, 4, 37, 88
8, 8577, Note_on_c, 4, 38, 0
8, 8643, Note_on_c, 4, 33, 79
8, 8644, Note_on_c, 4, 37, 0
8, 8714, Note_on_c, 4, 33, 0
8, 8715, Note_on_c, 4, 38, 86
8, 8895, Note_on_c, 4, 38, 0
8, 8913, Note_on_c, 4, 37, 89
8, 8945, Note_on_c, 4, 35, 74
8, 8946, Note_on_c, 4, 37, 0
8, 8983, Note_on_c, 4, 37, 83
8, 8985, Note_on_c, 4, 35, 0
8, 9050, Note_on_c, 4, 37, 0
8, 9056, Note_on_c, 4, 36, 77
8, 9187, Note_on_c, 4, 36, 0
8, 9200, Note_on_c, 4, 35, 83
8, 9232, Note_on_c, 4, 33, 76
8, 9233, Note_on_c, 4, 35, 0
8, 9269, Note_on_c, 4, 35, 76
8, 9272, Note_on_c, 4, 33, 0
8, 9315, Note_on_c, 4, 35, 0
8, 9341, Note_on_c, 4, 31, 81
8, 9394, Note_on_c, 4, 31, 0
8, 9411, Note_on_c, 4, 33, 79
8, 9473, Note_on_c, 4, 35, 83
8, 9474, Note_on_c, 4, 33, 0
8, 9505, Note_on_c, 4, 35, 0
8, 9506, Note_on_c, 4, 36, 76
8, 9543, Note_on_c, 4, 38, 85
8, 9545, Note_on_c, 4, 36, 0
8, 9749, Note_on_c, 4, 38, 0
8, 9749, Note_on_c, 4, 40, 77
8, 9824, Note_on_c, 4, 42, 89
8, 9827, Note_on_c, 4, 40, 0
8, 9893, Note_on_c, 4, 42, 0
8, 9896, Note_on_c, 4, 38, 80
8, 9976, Note_on_c, 4, 38, 0
8, 9976, Note_on_c, 4, 43, 83
8, 10301, Note_on_c, 4, 43, 0
8, 10337, Note_on_c, 4, 43, 84
8, 10376, Note_on_c, 4, 43, 0
8, 10416, Note_on_c, 4, 43, 86
8, 10481, Note_on_c, 4, 41, 84
8, 10485, Note_on_c, 4, 43, 0
8, 10550, Note_on_c, 4, 40, 76
8, 10554, Note_on_c, 4, 41, 0
8, 10583, Note_on_c, 4, 40, 0
8, 10620, Note_on_c, 4, 40, 76
8, 10660, Note_on_c, 4, 40, 0
8, 10697, Note_on_c, 4, 40, 74
8, 10771, Note_on_c, 4, 38, 80
8, 10774, Note_on_c, 4, 40, 0
8, 10845, Note_on_c, 4, 36, 76
8, 10848, Note_on_c, 4, 38, 0
8, 10879, Note_on_c, 4, 36, 0
8, 10914, Note_on_c, 4, 36, 73
8, 10952, Note_on_c, 4, 36, 0
8, 10985, Note_on_c, 4, 36, 79
8, 11059, Note_on_c, 4, 35, 82
8, 11064, Note_on_c, 4, 36, 0
8, 11132, Note_on_c, 4, 33, 76
8, 11135, Note_on_c, 4, 35, 0
8, 11178, Note_on_c, 4, 33, 0
8, 11204, Note_on_c, 4, 38, 81
8, 11280, Note_on_c, 4, 35, 80
8, 11284, Note_on_c, 4, 38, 0
8, 11335, Note_on_c, 4, 35, 0
8, 11356, Note_on_c, 4, 40, 78
8, 11424, Note_on_c, 4, 40, 0
8, 11424, Note_on_c, 4, 37, 86
8, 11493, Note_on_c, 4, 37, 0
8, 11494, Note_on_c, 4, 33, 77
8, 11531, Note_on_c, 4, 35, 87
8, 11532, Note_on_c, 4, 33, 0
8, 11571, Note_on_c, 4, 37, 89
8, 11573, Note_on_c, 4, 35, 0
8, 11614, Note_on_c, 4, 37, 0
8, 11639, Note_on_c, 4, 33, 74
8, 11688, Note_on_c, 4, 33, 0
8, 11712, Note_on_c, 4, 42, 86
8, 11780, Note_on_c, 4, 38, 68
8, 11783, Note_on_c, 4, 42, 0
8, 11827, Note_on_c, 4, 38, 0
8, 11855, Note_on_c, 4, 45, 79
8, 11923, Note_on_c, 4, 33, 81
8, 11924, Note_on_c, 4, 45, 0
8, 11969, Note_on_c, 4, 33, 0
8, 12008, Note_on_c, 4, 38, 80
8, 12179, Note_on_c, 4, 38, 0
8, 13260, Note_on_c, 4, 38, 90
8, 13325, Note_on_c, 4, 36, 86
8, 13327, Note_on_c, 4, 38, 0
8, 13394, Note_on_c, 4, 35, 85
8, 13396, Note_on_c, 4, 36, 0
8, 13466, Note_on_c, 4, 35, 0
8, 13466, Note_on_c, 4, 33, 86
8, 13616, Note_on_c, 4, 32, 89
8, 13617, Note_on_c, 4, 33, 0
8, 13722, Note_on_c, 4, 32, 0
8, 13751, Note_on_c, 4, 33, 84
8, 13824, Note_on_c, 4, 31, 86
8, 13828, Note_on_c, 4, 33, 0
8, 13897, Note_on_c, 4, 30, 88
8, 13899, Note_on_c, 4, 31, 0
8, 13993, Note_on_c, 4, 30, 0
8, 14036, Note_on_c, 4, 28, 79
8, 14092, Note_on_c, 4, 28, 0
8, 14111, Note_on_c, 4, 33, 79
8, 14157, Note_on_c, 4, 33, 0
8, 14179, Note_on_c, 4, 31, 80
8, 14221, Note_on_c, 4, 31, 0
8, 14249, Note_on_c, 4, 36, 70
8, 14285, Note_on_c, 4, 36, 0
8, 14320, Note_on_c, 4, 35, 83
8, 14385, Note_on_c, 4, 37, 89
8, 14396, Note_on_c, 4, 35, 0
8, 14461, Note_on_c, 4, 39, 87
8, 14463, Note_on_c, 4, 37, 0
8, 14510, Note_on_c, 4, 39, 0
8, 14531, Note_on_c, 4, 35, 78
8, 14588, Note_on_c, 4, 35, 0
8, 14610, Note_on_c, 4, 40, 81
8, 14748, Note_on_c, 4, 42, 85
8, 14753, Note_on_c, 4, 40, 0
8, 14891, Note_on_c, 4, 42, 0
8, 14966, Note_on_c, 4, 43, 76
8, 15023, Note_on_c, 4, 43, 0
8, 15032, Note_on_c, 4, 42, 87
8, 15097, Note_on_c, 4, 42, 0
8, 15102, Note_on_c, 4, 40, 73
8, 15170, Note_on_c, 4, 40, 0
8, 15170, Note_on_c, 4, 38, 67
8, 15306, Note_on_c, 4, 35, 81
8, 15307, Note_on_c, 4, 38, 0
8, 15424, Note_on_c, 4, 35, 0
8, 15439, Note_on_c, 4, 36, 80
8, 15511, Note_on_c, 4, 35, 87
8, 15514, Note_on_c, 4, 36, 0
8, 15582, Note_on_c, 4, 35, 0
8, 15582, Note_on_c, 4, 33, 84
8, 15691, Note_on_c, 4, 33, 0
8, 15714, Note_on_c, 4, 31, 89
8, 15786, Note_on_c, 4, 30, 91
8, 15787, Note_on_c, 4, 31, 0
8, 15855, Note_on_c, 4, 28, 83
8, 15859, Note_on_c, 4, 30, 0
8, 15922, Note_on_c, 4, 33, 79
8, 15928, Note_on_c, 4, 28, 0
8, 15993, Note_on_c, 4, 26, 85
8, 16000, Note_on_c, 4, 33, 0
8, 16026, Note_on_c, 4, 26, 0
8, 16071, Note_on_c, 4, 38, 76
8, 16116, Note_on_c, 4, 38, 0
8, 16143, Note_on_c, 4, 38, 82
8, 16217, Note_on_c, 4, 38, 0
8, 16217, Note_on_c, 4, 40, 75
8, 16280, Note_on_c, 4, 42, 86
8, 16284, Note_on_c, 4, 40, 0
8, 16354, Note_on_c, 4, 38, 77
8, 16355, Note_on_c, 4, 42, 0
8, 16425, Note_on_c, 4, 38, 0
8, 16426, Note_on_c, 4, 43, 78
8, 16494, Note_on_c, 4, 43, 0
8, 16494, Note_on_c, 4, 31, 79
8, 16558, Note_on_c, 4, 38, 79
8, 16560, Note_on_c, 4, 31, 0
8, 16594, Note_on_c, 4, 38, 0
8, 16627, Note_on_c, 4, 38, 76
8, 16659, Note_on_c, 4, 38, 0
8, 16694, Note_on_c, 4, 38, 79
8, 16764, Note_on_c, 4, 37, 84
8, 16766, Note_on_c, 4, 38, 0
8, 16833, Note_on_c, 4, 37, 0
8, 16834, Note_on_c, 4, 35, 81
8, 16903, Note_on_c, 4, 35, 0
8, 16903, Note_on_c, 4, 33, 77
8, 16973, Note_on_c, 4, 31, 76
8, 16975, Note_on_c, 4, 33, 0
8, 17038, Note_on_c, 4, 33, 68
8, 17040, Note_on_c, 4, 31, 0
8, 17070, Note_on_c, 4, 31, 76
8, 17072, Note_on_c, 4, 33, 0
8, 17111, Note_on_c, 4, 30, 89
8, 17115, Note_on_c, 4, 31, 0
8, 17151, Note_on_c, 4, 30, 0
8, 17178, Note_on_c, 4, 26, 84
8, 17243, Note_on_c, 4, 26, 0
8, 17245, Note_on_c, 4, 28, 74
8, 17307, Note_on_c, 4, 30, 86
8, 17309, Note_on_c, 4, 28, 0
8, 17361, Note_on_c, 4, 30, 0
8, 17372, Note_on_c, 4, 31, 76
8, 17438, Note_on_c, 4, 33, 68
8, 17439, Note_on_c, 4, 31, 0
8, 17500, Note_on_c, 4, 35, 79
8, 17504, Note_on_c, 4, 33, 0
8, 17565, Note_on_c, 4, 37, 79
8, 17567, Note_on_c, 4, 35, 0
8, 17634, Note_on_c, 4, 38, 78
8, 17636, Note_on_c, 4, 37, 0
8, 17789, Note_on_c, 4, 38, 0
8, 18549, Note_on_c, 4, 36, 76
8, 18618, Note_on_c, 4, 38, 86
8, 18622, Note_on_c, 4, 36, 0
8, 18683, Note_on_c, 4, 36, 76
8, 18684, Note_on_c, 4, 38, 0
8, 18740, Note_on_c, 4, 35, 81
8, 18743, Note_on_c, 4, 36, 0
8, 18811, Note_on_c, 4, 33, 79
8, 18813, Note_on_c, 4, 35, 0
8, 18847, Note_on_c, 4, 35, 84
8, 18851, Note_on_c, 4, 33, 0
8, 18885, Note_on_c, 4, 35, 0
8, 18886, Note_on_c, 4, 36, 79
8, 18948, Note_on_c, 4, 35, 90
8, 18951, Note_on_c, 4, 36, 0
8, 19015, Note_on_c, 4, 33, 83
8, 19016, Note_on_c, 4, 35, 0
8, 19145, Note_on_c, 4, 33, 0
8, 19145, Note_on_c, 4, 35, 85
8, 19274, Note_on_c, 4, 35, 0
8, 19276, Note_on_c, 4, 28, 78
8, 19373, Note_on_c, 4, 28, 0
8, 19414, Note_on_c, 4, 40, 83
8, 19487, Note_on_c, 4, 38, 72
8, 19493, Note_on_c, 4, 40, 0
8, 19550, Note_on_c, 4, 37, 72
8, 19552, Note_on_c, 4, 38, 0
8, 19689, Note_on_c, 4, 37, 0
8, 19691, Note_on_c, 4, 30, 86
8, 19731, Note_on_c, 4, 30, 0
8, 19764, Note_on_c, 4, 42, 86
8, 19804, Note_on_c, 4, 42, 0
8, 19833, Note_on_c, 4, 35, 80
8, 19896, Note_on_c, 4, 33, 83
8, 19900, Note_on_c, 4, 35, 0
8, 19963, Note_on_c, 4, 31, 72
8, 19965, Note_on_c, 4, 33, 0
8, 20032, Note_on_c, 4, 33, 72
8, 20034, Note_on_c, 4, 31, 0
8, 20101, Note_on_c, 4, 28, 81
8, 20102, Note_on_c, 4, 33, 0
8, 20233, Note_on_c, 4, 28, 0
8, 20234, Note_on_c, 4, 35, 83
8, 20370, Note_on_c, 4, 33, 86
8, 20374, Note_on_c, 4, 35, 0
8, 20502, Note_on_c, 4, 33, 0
8, 20774, Note_on_c, 4, 35, 77
8, 20916, Note_on_c, 4, 35, 0
8, 20920, Note_on_c, 4, 33, 70
8, 21070, Note_on_c, 4, 35, 76
8, 21079, Note_on_c, 4, 33, 0
8, 21206, Note_on_c, 4, 37, 80
8, 21211, Note_on_c, 4, 35, 0
8, 21353, Note_on_c, 4, 38, 82
8, 21356, Note_on_c, 4, 37, 0
8, 21418, Note_on_c, 4, 37, 87
8, 21423, Note_on_c, 4, 38, 0
8, 21491, Note_on_c, 4, 37, 0
8, 21494, Note_on_c, 4, 35, 86
8, 21632, Note_on_c, 4, 37, 84
8, 21639, Note_on_c, 4, 35, 0
8, 21769, Note_on_c, 4, 38, 75
8, 21770, Note_on_c, 4, 37, 0
8, 21808, Note_on_c, 4, 38, 0
8, 21838, Note_on_c, 4, 39, 85
8, 21902, Note_on_c, 4, 39, 0
8, 21904, Note_on_c, 4, 40, 77
8, 22172, Note_on_c, 4, 39, 86
8, 22174, Note_on_c, 4, 40, 0
8, 22313, Note_on_c, 4, 40, 65
8, 22317, Note_on_c, 4, 39, 0
8, 22346, Note_on_c, 4, 40, 0
8, 22386, Note_on_c, 4, 40, 86
8, 22422, Note_on_c, 4, 40, 0
8, 22460, Note_on_c, 4, 40, 87
8, 22528, Note_on_c, 4, 38, 91
8, 22531, Note_on_c, 4, 40, 0
8, 22600, Note_on_c, 4, 36, 76
8, 22603, Note_on_c, 4, 38, 0
8, 22656, Note_on_c, 4, 36, 0
8, 22668, Note_on_c, 4, 38, 88
8, 22697, Note_on_c, 4, 36, 76
8, 22700, Note_on_c, 4, 38, 0
8, 22732, Note_on_c, 4, 36, 0
8, 22732, Note_on_c, 4, 35, 87
8, 22801, Note_on_c, 4, 33, 76
8, 22802, Note_on_c, 4, 35, 0
8, 22870, Note_on_c, 4, 31, 80
8, 22872, Note_on_c, 4, 33, 0
8, 22904, Note_on_c, 4, 31, 0
8, 22935, Note_on_c, 4, 35, 82
8, 23003, Note_on_c, 4, 35, 0
8, 23003, Note_on_c, 4, 37, 83
8, 23064, Note_on_c, 4, 37, 0
8, 23064, Note_on_c, 4, 39, 82
8, 23135, Note_on_c, 4, 28, 68
8, 23137, Note_on_c, 4, 39, 0
8, 23183, Note_on_c, 4, 28, 0
8, 23208, Note_on_c, 4, 40, 84
8, 23273, Note_on_c, 4, 38, 80
8, 23274, Note_on_c, 4, 40, 0
8, 23343, Note_on_c, 4, 38, 0
8, 23343, Note_on_c, 4, 36, 75
8, 23414, Note_on_c, 4, 35, 76
8, 23417, Note_on_c, 4, 36, 0
8, 23472, Note_on_c, 4, 35, 0
8, 23479, Note_on_c, 4, 33, 81
8, 23514, Note_on_c, 4, 35, 77
8, 23516, Note_on_c, 4, 33, 0
8, 23549, Note_on_c, 4, 36, 80
8, 23550, Note_on_c, 4, 35, 0
8, 23621, Note_on_c, 4, 31, 79
8, 23625, Note_on_c, 4, 36, 0
8, 23691, Note_on_c, 4, 28, 76
8, 23694, Note_on_c, 4, 31, 0
8, 23737, Note_on_c, 4, 28, 0
8, 23766, Note_on_c, 4, 30, 84
8, 23834, Note_on_c, 4, 31, 73
8, 23836, Note_on_c, 4, 30, 0
8, 23902, Note_on_c, 4, 33, 73
8, 23904, Note_on_c, 4, 31, 0
8, 23973, Note_on_c, 4, 33, 0
8, 23973, Note_on_c, 4, 35, 81
8, 24024, Note_on_c, 4, 35, 0
8, 24040, Note_on_c, 4, 31, 83
8, 24104, Note_on_c, 4, 33, 71
8, 24110, Note_on_c, 4, 31, 0
8, 24169, Note_on_c, 4, 35, 80
8, 24172, Note_on_c, 4, 33, 0
8, 24235, Note_on_c, 4, 36, 80
8, 24236, Note_on_c, 4, 35, 0
8, 24985, Note_on_c, 4, 36, 0
8, 25004, Note_on_c, 4, 31, 86
8, 25436, Note_on_c, 4, 31, 0
8, 25436, End_track
9, 0, Start_track
9, 0, MIDI_port, 0
9, 0, End_track
10, 0, Start_track
10, 0, Title_t, "Vor deinen Thron "
10, 0, MIDI_port, 0
10, 0, End_track
11, 0, Start_track
11, 0, Title_t, "by J S Bach (BWV 668)"
11, 0, MIDI_port, 0
11, 0, End_track
12, 0, Start_track
12, 0, MIDI_port, 0
12, 0, End_track
13, 0, Start_track
13, 0, Title_t, "Sequenced using WinJammer Professional"
13, 0, MIDI_port, 0
13, 0, End_track
14, 0, Start_track
14, 0, Title_t, "on Windows NT by Martin Robinson."
14, 0, MIDI_port, 0
14, 0, End_track
15, 0, Start_track
15, 0, Title_t, "(c) Martin Robinson 1997"
15, 0, MIDI_port, 0
15, 0, End_track
0, 0, End_of_file
