0, 0, Header, 1, 12, 120
1, 0, Start_track
1, 0, Sequencer_specific, 10, 0, 0, 91, 35, 1, 0, 5, 4, 35, 0
1, 0, Instrument_name_t, "Conductor Track"
1, 0, SMPTE_offset, 96, 0, 3, 0, 0
1, 0, MIDI_port, 0
1, 0, Tempo, 857142
1, 0, Time_signature, 3, 2, 24, 8
1, 70685, Tempo, 895522
1, 70700, Tempo, 923076
1, 70715, Tempo, 937500
1, 70730, Tempo, 937500
1, 70745, Tempo, 937500
1, 70760, Tempo, 937500
1, 70775, Tempo, 937500
1, 70790, Tempo, 937500
1, 70805, Tempo, 937500
1, 70820, Tempo, 937500
1, 70835, Tempo, 937500
1, 70850, Tempo, 937500
1, 70865, Tempo, 923076
1, 70880, Tempo, 882352
1, 70883, Tempo, 882352
1, 70925, Tempo, 909090
1, 70940, Tempo, 923076
1, 70955, Tempo, 923076
1, 70970, Tempo, 923076
1, 70985, Tempo, 923076
1, 71000, Tempo, 923076
1, 71015, Tempo, 923076
1, 71030, Tempo, 923076
1, 71045, Tempo, 923076
1, 71060, Tempo, 923076
1, 71075, Tempo, 923076
1, 71090, Tempo, 937500
1, 71105, Tempo, 952380
1, 71120, Tempo, 967741
1, 71135, Tempo, 1000000
1, 71150, Tempo, 1000000
1, 71165, Tempo, 1000000
1, 71180, Tempo, 1000000
1, 71195, Tempo, 1000000
1, 71210, Tempo, 1000000
1, 71225, Tempo, 1000000
1, 71240, Tempo, 1000000
1, 71255, Tempo, 1000000
1, 71270, Tempo, 1000000
1, 71285, Tempo, 1000000
1, 71300, Tempo, 1000000
1, 71315, Tempo, 1000000
1, 71330, Tempo, 1000000
1, 71345, Tempo, 1000000
1, 71360, Tempo, 1000000
1, 71375, Tempo, 1000000
1, 71390, Tempo, 1000000
1, 71405, Tempo, 1000000
1, 71420, Tempo, 1000000
1, 71435, Tempo, 1000000
1, 71450, Tempo, 1000000
1, 71465, Tempo, 1000000
1, 71480, Tempo, 1000000
1, 71495, Tempo, 1000000
1, 71510, Tempo, 1000000
1, 71525, Tempo, 1153846
1, 71540, Tempo, 1250000
1, 71555, Tempo, 1250000
1, 71570, Tempo, 1250000
1, 71585, Tempo, 1276595
1, 71600, Tempo, 1333333
1, 71615, Tempo, 1428571
1, 71630, Tempo, 1463414
1, 71640, Tempo, 1500000
1, 71640, End_track
2, 0, Start_track
2, 0, Title_t, "LH"
2, 0, MIDI_port, 0
2, 0, Control_c, 0, 7, 95
2, 0, Control_c, 0, 91, 127
2, 0, Control_c, 0, 10, 85
2, 0, Program_c, 0, 19
2, 245, Note_on_c, 0, 62, 80
2, 356, Note_on_c, 0, 62, 0
2, 360, Note_on_c, 0, 64, 80
2, 455, Note_on_c, 0, 64, 0
2, 475, Note_on_c, 0, 64, 80
2, 494, Note_on_c, 0, 64, 0
2, 494, Note_on_c, 0, 62, 80
2, 508, Note_on_c, 0, 62, 0
2, 508, Note_on_c, 0, 60, 80
2, 522, Note_on_c, 0, 62, 80
2, 524, Note_on_c, 0, 60, 0
2, 535, Note_on_c, 0, 62, 0
2, 536, Note_on_c, 0, 64, 80
2, 548, Note_on_c, 0, 64, 0
2, 549, Note_on_c, 0, 62, 80
2, 559, Note_on_c, 0, 64, 80
2, 560, Note_on_c, 0, 62, 0
2, 567, Note_on_c, 0, 62, 80
2, 568, Note_on_c, 0, 64, 0
2, 573, Note_on_c, 0, 64, 80
2, 583, Note_on_c, 0, 64, 0
2, 629, Note_on_c, 0, 62, 0
2, 639, Note_on_c, 0, 60, 80
2, 680, Note_on_c, 0, 60, 0
2, 697, Note_on_c, 0, 60, 80
2, 716, Note_on_c, 0, 59, 80
2, 718, Note_on_c, 0, 60, 0
2, 731, Note_on_c, 0, 59, 0
2, 731, Note_on_c, 0, 57, 80
2, 747, Note_on_c, 0, 59, 80
2, 750, Note_on_c, 0, 57, 0
2, 759, Note_on_c, 0, 60, 80
2, 760, Note_on_c, 0, 59, 0
2, 772, Note_on_c, 0, 60, 0
2, 774, Note_on_c, 0, 59, 80
2, 785, Note_on_c, 0, 60, 80
2, 786, Note_on_c, 0, 59, 0
2, 794, Note_on_c, 0, 60, 0
2, 794, Note_on_c, 0, 59, 80
2, 800, Note_on_c, 0, 60, 80
2, 803, Note_on_c, 0, 59, 0
2, 811, Note_on_c, 0, 60, 0
2, 811, Note_on_c, 0, 59, 80
2, 885, Note_on_c, 0, 60, 80
2, 888, Note_on_c, 0, 59, 0
2, 939, Note_on_c, 0, 62, 80
2, 940, Note_on_c, 0, 60, 0
2, 1064, Note_on_c, 0, 57, 80
2, 1065, Note_on_c, 0, 62, 0
2, 1434, Note_on_c, 0, 57, 0
2, 1434, Note_on_c, 0, 59, 80
2, 1522, Note_on_c, 0, 61, 80
2, 1527, Note_on_c, 0, 59, 0
2, 1538, Note_on_c, 0, 61, 0
2, 1558, Note_on_c, 0, 62, 80
2, 1574, Note_on_c, 0, 61, 80
2, 1575, Note_on_c, 0, 62, 0
2, 1588, Note_on_c, 0, 61, 0
2, 1590, Note_on_c, 0, 62, 80
2, 1604, Note_on_c, 0, 62, 0
2, 1605, Note_on_c, 0, 61, 80
2, 1615, Note_on_c, 0, 61, 0
2, 1615, Note_on_c, 0, 62, 80
2, 1628, Note_on_c, 0, 62, 0
2, 1629, Note_on_c, 0, 61, 80
2, 1639, Note_on_c, 0, 61, 0
2, 1639, Note_on_c, 0, 62, 80
2, 1648, Note_on_c, 0, 62, 0
2, 1648, Note_on_c, 0, 61, 80
2, 1655, Note_on_c, 0, 61, 0
2, 1655, Note_on_c, 0, 62, 80
2, 1665, Note_on_c, 0, 62, 0
2, 1665, Note_on_c, 0, 61, 80
2, 1670, Note_on_c, 0, 62, 80
2, 1671, Note_on_c, 0, 61, 0
2, 1678, Note_on_c, 0, 61, 80
2, 1683, Note_on_c, 0, 62, 0
2, 1729, Note_on_c, 0, 61, 0
2, 1730, Note_on_c, 0, 59, 80
2, 1755, Note_on_c, 0, 61, 80
2, 1758, Note_on_c, 0, 59, 0
2, 1786, Note_on_c, 0, 61, 0
2, 1791, Note_on_c, 0, 62, 80
2, 1832, Note_on_c, 0, 62, 0
2, 1855, Note_on_c, 0, 57, 80
2, 1913, Note_on_c, 0, 57, 0
2, 1914, Note_on_c, 0, 62, 80
2, 1974, Note_on_c, 0, 60, 80
2, 1975, Note_on_c, 0, 62, 0
2, 2032, Note_on_c, 0, 67, 80
2, 2033, Note_on_c, 0, 59, 80
2, 2039, Note_on_c, 0, 60, 0
2, 2093, Note_on_c, 0, 57, 80
2, 2094, Note_on_c, 0, 59, 0
2, 2153, Note_on_c, 0, 55, 80
2, 2154, Note_on_c, 0, 57, 0
2, 2154, Note_on_c, 0, 71, 80
2, 2155, Note_on_c, 0, 67, 0
2, 2234, Note_on_c, 0, 71, 0
2, 2268, Note_on_c, 0, 71, 80
2, 2285, Note_on_c, 0, 71, 0
2, 2286, Note_on_c, 0, 69, 80
2, 2300, Note_on_c, 0, 69, 0
2, 2302, Note_on_c, 0, 67, 80
2, 2314, Note_on_c, 0, 69, 80
2, 2315, Note_on_c, 0, 67, 0
2, 2326, Note_on_c, 0, 71, 80
2, 2327, Note_on_c, 0, 69, 0
2, 2327, Note_on_c, 0, 54, 80
2, 2332, Note_on_c, 0, 55, 0
2, 2337, Note_on_c, 0, 71, 0
2, 2340, Note_on_c, 0, 69, 80
2, 2346, Note_on_c, 0, 69, 0
2, 2349, Note_on_c, 0, 71, 80
2, 2357, Note_on_c, 0, 71, 0
2, 2359, Note_on_c, 0, 69, 80
2, 2367, Note_on_c, 0, 69, 0
2, 2367, Note_on_c, 0, 71, 80
2, 2372, Note_on_c, 0, 71, 0
2, 2373, Note_on_c, 0, 69, 80
2, 2380, Note_on_c, 0, 71, 80
2, 2383, Note_on_c, 0, 54, 0
2, 2383, Note_on_c, 0, 52, 80
2, 2384, Note_on_c, 0, 69, 0
2, 2387, Note_on_c, 0, 69, 80
2, 2392, Note_on_c, 0, 71, 0
2, 2447, Note_on_c, 0, 67, 80
2, 2448, Note_on_c, 0, 69, 0
2, 2489, Note_on_c, 0, 67, 0
2, 2502, Note_on_c, 0, 52, 0
2, 2506, Note_on_c, 0, 50, 80
2, 2508, Note_on_c, 0, 67, 80
2, 2538, Note_on_c, 0, 66, 80
2, 2539, Note_on_c, 0, 67, 0
2, 2552, Note_on_c, 0, 66, 0
2, 2555, Note_on_c, 0, 67, 80
2, 2566, Note_on_c, 0, 67, 0
2, 2568, Note_on_c, 0, 66, 80
2, 2577, Note_on_c, 0, 66, 0
2, 2579, Note_on_c, 0, 67, 80
2, 2585, Note_on_c, 0, 50, 0
2, 2590, Note_on_c, 0, 67, 0
2, 2590, Note_on_c, 0, 66, 80
2, 2595, Note_on_c, 0, 66, 0
2, 2596, Note_on_c, 0, 67, 80
2, 2607, Note_on_c, 0, 66, 80
2, 2611, Note_on_c, 0, 66, 0
2, 2613, Note_on_c, 0, 62, 80
2, 2619, Note_on_c, 0, 66, 80
2, 2622, Note_on_c, 0, 67, 0
2, 2685, Note_on_c, 0, 66, 0
2, 2689, Note_on_c, 0, 67, 80
2, 2747, Note_on_c, 0, 67, 0
2, 2750, Note_on_c, 0, 69, 80
2, 2810, Note_on_c, 0, 60, 80
2, 2812, Note_on_c, 0, 62, 0
2, 2870, Note_on_c, 0, 69, 0
2, 2872, Note_on_c, 0, 62, 80
2, 2874, Note_on_c, 0, 59, 80
2, 2875, Note_on_c, 0, 60, 0
2, 2931, Note_on_c, 0, 59, 0
2, 2931, Note_on_c, 0, 57, 80
2, 2987, Note_on_c, 0, 59, 80
2, 2992, Note_on_c, 0, 57, 0
2, 3047, Note_on_c, 0, 59, 0
2, 3050, Note_on_c, 0, 60, 80
2, 3105, Note_on_c, 0, 59, 80
2, 3112, Note_on_c, 0, 60, 0
2, 3166, Note_on_c, 0, 57, 80
2, 3167, Note_on_c, 0, 59, 0
2, 3217, Note_on_c, 0, 62, 0
2, 3222, Note_on_c, 0, 57, 0
2, 3223, Note_on_c, 0, 64, 80
2, 3225, Note_on_c, 0, 55, 80
2, 3256, Note_on_c, 0, 55, 0
2, 3280, Note_on_c, 0, 60, 80
2, 3305, Note_on_c, 0, 66, 80
2, 3309, Note_on_c, 0, 64, 0
2, 3318, Note_on_c, 0, 66, 0
2, 3338, Note_on_c, 0, 67, 80
2, 3349, Note_on_c, 0, 60, 0
2, 3352, Note_on_c, 0, 67, 0
2, 3353, Note_on_c, 0, 66, 80
2, 3366, Note_on_c, 0, 66, 0
2, 3368, Note_on_c, 0, 67, 80
2, 3380, Note_on_c, 0, 67, 0
2, 3382, Note_on_c, 0, 66, 80
2, 3389, Note_on_c, 0, 57, 80
2, 3391, Note_on_c, 0, 66, 0
2, 3392, Note_on_c, 0, 67, 80
2, 3404, Note_on_c, 0, 67, 0
2, 3405, Note_on_c, 0, 66, 80
2, 3414, Note_on_c, 0, 66, 0
2, 3415, Note_on_c, 0, 67, 80
2, 3417, Note_on_c, 0, 57, 0
2, 3422, Note_on_c, 0, 67, 0
2, 3426, Note_on_c, 0, 66, 80
2, 3431, Note_on_c, 0, 66, 0
2, 3433, Note_on_c, 0, 67, 80
2, 3440, Note_on_c, 0, 67, 0
2, 3442, Note_on_c, 0, 66, 80
2, 3446, Note_on_c, 0, 67, 80
2, 3447, Note_on_c, 0, 66, 0
2, 3450, Note_on_c, 0, 62, 80
2, 3458, Note_on_c, 0, 66, 80
2, 3463, Note_on_c, 0, 67, 0
2, 3502, Note_on_c, 0, 66, 0
2, 3503, Note_on_c, 0, 64, 80
2, 3533, Note_on_c, 0, 66, 80
2, 3536, Note_on_c, 0, 64, 0
2, 3573, Note_on_c, 0, 66, 0
2, 3577, Note_on_c, 0, 67, 80
2, 3640, Note_on_c, 0, 60, 80
2, 3644, Note_on_c, 0, 62, 0
2, 3702, Note_on_c, 0, 59, 80
2, 3708, Note_on_c, 0, 60, 0
2, 3762, Note_on_c, 0, 57, 80
2, 3762, Note_on_c, 0, 66, 80
2, 3763, Note_on_c, 0, 67, 0
2, 3765, Note_on_c, 0, 59, 0
2, 3824, Note_on_c, 0, 55, 80
2, 3824, Note_on_c, 0, 64, 80
2, 3826, Note_on_c, 0, 66, 0
2, 3827, Note_on_c, 0, 57, 0
2, 3887, Note_on_c, 0, 55, 0
2, 3887, Note_on_c, 0, 57, 80
2, 3950, Note_on_c, 0, 64, 0
2, 3951, Note_on_c, 0, 62, 80
2, 3952, Note_on_c, 0, 59, 80
2, 3958, Note_on_c, 0, 57, 0
2, 4012, Note_on_c, 0, 59, 0
2, 4013, Note_on_c, 0, 60, 80
2, 4038, Note_on_c, 0, 62, 0
2, 4073, Note_on_c, 0, 74, 80
2, 4074, Note_on_c, 0, 60, 0
2, 4074, Note_on_c, 0, 62, 80
2, 4130, Note_on_c, 0, 62, 0
2, 4130, Note_on_c, 0, 64, 80
2, 4191, Note_on_c, 0, 66, 80
2, 4193, Note_on_c, 0, 64, 0
2, 4251, Note_on_c, 0, 66, 0
2, 4251, Note_on_c, 0, 67, 80
2, 4311, Note_on_c, 0, 67, 0
2, 4312, Note_on_c, 0, 64, 80
2, 4321, Note_on_c, 0, 74, 0
2, 4370, Note_on_c, 0, 74, 80
2, 4429, Note_on_c, 0, 73, 80
2, 4435, Note_on_c, 0, 74, 0
2, 4484, Note_on_c, 0, 73, 0
2, 4485, Note_on_c, 0, 62, 80
2, 4485, Note_on_c, 0, 71, 80
2, 4489, Note_on_c, 0, 64, 0
2, 4545, Note_on_c, 0, 71, 0
2, 4545, Note_on_c, 0, 69, 80
2, 4546, Note_on_c, 0, 61, 80
2, 4552, Note_on_c, 0, 62, 0
2, 4604, Note_on_c, 0, 69, 0
2, 4604, Note_on_c, 0, 71, 80
2, 4665, Note_on_c, 0, 71, 0
2, 4665, Note_on_c, 0, 67, 80
2, 4680, Note_on_c, 0, 61, 0
2, 4724, Note_on_c, 0, 62, 80
2, 4761, Note_on_c, 0, 62, 0
2, 4788, Note_on_c, 0, 64, 80
2, 4844, Note_on_c, 0, 66, 80
2, 4846, Note_on_c, 0, 67, 0
2, 4904, Note_on_c, 0, 67, 80
2, 4906, Note_on_c, 0, 57, 80
2, 4909, Note_on_c, 0, 64, 0
2, 4909, Note_on_c, 0, 66, 0
2, 4964, Note_on_c, 0, 69, 80
2, 4966, Note_on_c, 0, 67, 0
2, 5025, Note_on_c, 0, 66, 80
2, 5028, Note_on_c, 0, 69, 0
2, 5156, Note_on_c, 0, 66, 0
2, 5160, Note_on_c, 0, 57, 0
2, 5209, Note_on_c, 0, 57, 80
2, 5210, Note_on_c, 0, 66, 80
2, 5269, Note_on_c, 0, 57, 0
2, 5270, Note_on_c, 0, 59, 80
2, 5271, Note_on_c, 0, 66, 0
2, 5271, Note_on_c, 0, 67, 80
2, 5327, Note_on_c, 0, 60, 80
2, 5329, Note_on_c, 0, 59, 0
2, 5330, Note_on_c, 0, 67, 0
2, 5330, Note_on_c, 0, 69, 80
2, 5386, Note_on_c, 0, 69, 0
2, 5388, Note_on_c, 0, 60, 0
2, 5389, Note_on_c, 0, 71, 80
2, 5389, Note_on_c, 0, 62, 80
2, 5445, Note_on_c, 0, 60, 80
2, 5449, Note_on_c, 0, 62, 0
2, 5509, Note_on_c, 0, 60, 0
2, 5511, Note_on_c, 0, 59, 80
2, 5573, Note_on_c, 0, 69, 80
2, 5574, Note_on_c, 0, 71, 0
2, 5631, Note_on_c, 0, 67, 80
2, 5632, Note_on_c, 0, 69, 0
2, 5687, Note_on_c, 0, 67, 0
2, 5689, Note_on_c, 0, 65, 80
2, 5747, Note_on_c, 0, 65, 0
2, 5749, Note_on_c, 0, 60, 80
2, 5749, Note_on_c, 0, 64, 80
2, 5750, Note_on_c, 0, 59, 0
2, 5810, Note_on_c, 0, 59, 80
2, 5814, Note_on_c, 0, 60, 0
2, 5871, Note_on_c, 0, 66, 80
2, 5871, Note_on_c, 0, 57, 80
2, 5875, Note_on_c, 0, 59, 0
2, 5878, Note_on_c, 0, 64, 0
2, 5928, Note_on_c, 0, 59, 80
2, 5930, Note_on_c, 0, 57, 0
2, 5990, Note_on_c, 0, 59, 0
2, 5993, Note_on_c, 0, 60, 80
2, 6083, Note_on_c, 0, 66, 0
2, 6120, Note_on_c, 0, 62, 80
2, 6120, Note_on_c, 0, 67, 80
2, 6121, Note_on_c, 0, 60, 0
2, 6179, Note_on_c, 0, 62, 0
2, 6179, Note_on_c, 0, 64, 80
2, 6238, Note_on_c, 0, 62, 80
2, 6241, Note_on_c, 0, 64, 0
2, 6294, Note_on_c, 0, 60, 80
2, 6298, Note_on_c, 0, 62, 0
2, 6350, Note_on_c, 0, 59, 80
2, 6354, Note_on_c, 0, 60, 0
2, 6370, Note_on_c, 0, 67, 0
2, 6413, Note_on_c, 0, 66, 80
2, 6453, Note_on_c, 0, 66, 0
2, 6469, Note_on_c, 0, 61, 80
2, 6471, Note_on_c, 0, 64, 80
2, 6472, Note_on_c, 0, 59, 0
2, 6515, Note_on_c, 0, 64, 0
2, 6519, Note_on_c, 0, 61, 0
2, 6530, Note_on_c, 0, 57, 80
2, 6531, Note_on_c, 0, 61, 80
2, 6588, Note_on_c, 0, 62, 80
2, 6590, Note_on_c, 0, 57, 0
2, 6590, Note_on_c, 0, 61, 0
2, 6590, Note_on_c, 0, 66, 80
2, 6647, Note_on_c, 0, 66, 0
2, 6649, Note_on_c, 0, 67, 80
2, 6649, Note_on_c, 0, 64, 80
2, 6650, Note_on_c, 0, 62, 0
2, 6709, Note_on_c, 0, 62, 80
2, 6710, Note_on_c, 0, 66, 80
2, 6713, Note_on_c, 0, 67, 0
2, 6714, Note_on_c, 0, 64, 0
2, 6767, Note_on_c, 0, 66, 0
2, 6768, Note_on_c, 0, 60, 80
2, 6769, Note_on_c, 0, 64, 80
2, 6770, Note_on_c, 0, 62, 0
2, 6820, Note_on_c, 0, 64, 0
2, 6823, Note_on_c, 0, 60, 0
2, 6825, Note_on_c, 0, 59, 80
2, 6826, Note_on_c, 0, 62, 80
2, 6878, Note_on_c, 0, 62, 0
2, 6883, Note_on_c, 0, 67, 80
2, 6940, Note_on_c, 0, 59, 0
2, 6944, Note_on_c, 0, 64, 80
2, 6951, Note_on_c, 0, 67, 0
2, 7005, Note_on_c, 0, 71, 80
2, 7057, Note_on_c, 0, 71, 0
2, 7061, Note_on_c, 0, 69, 80
2, 7122, Note_on_c, 0, 67, 80
2, 7123, Note_on_c, 0, 69, 0
2, 7171, Note_on_c, 0, 67, 0
2, 7180, Note_on_c, 0, 66, 80
2, 7181, Note_on_c, 0, 62, 80
2, 7185, Note_on_c, 0, 64, 0
2, 7226, Note_on_c, 0, 66, 0
2, 7245, Note_on_c, 0, 74, 80
2, 7284, Note_on_c, 0, 74, 0
2, 7303, Note_on_c, 0, 64, 80
2, 7304, Note_on_c, 0, 72, 80
2, 7305, Note_on_c, 0, 62, 0
2, 7364, Note_on_c, 0, 66, 80
2, 7369, Note_on_c, 0, 64, 0
2, 7410, Note_on_c, 0, 66, 0
2, 7427, Note_on_c, 0, 67, 80
2, 7491, Note_on_c, 0, 71, 80
2, 7494, Note_on_c, 0, 72, 0
2, 7538, Note_on_c, 0, 67, 0
2, 7552, Note_on_c, 0, 71, 0
2, 7553, Note_on_c, 0, 69, 80
2, 7609, Note_on_c, 0, 67, 80
2, 7639, Note_on_c, 0, 67, 0
2, 7672, Note_on_c, 0, 66, 80
2, 7734, Note_on_c, 0, 71, 80
2, 7737, Note_on_c, 0, 69, 0
2, 7792, Note_on_c, 0, 72, 85
2, 7806, Note_on_c, 0, 66, 0
2, 7855, Note_on_c, 0, 64, 80
2, 7856, Note_on_c, 0, 71, 0
2, 7913, Note_on_c, 0, 64, 0
2, 7915, Note_on_c, 0, 66, 80
2, 7962, Note_on_c, 0, 72, 0
2, 7975, Note_on_c, 0, 69, 73
2, 8028, Note_on_c, 0, 69, 0
2, 8030, Note_on_c, 0, 66, 0
2, 8034, Note_on_c, 0, 71, 75
2, 8090, Note_on_c, 0, 62, 80
2, 8097, Note_on_c, 0, 72, 85
2, 8099, Note_on_c, 0, 71, 0
2, 8151, Note_on_c, 0, 67, 80
2, 8154, Note_on_c, 0, 62, 0
2, 8156, Note_on_c, 0, 71, 76
2, 8159, Note_on_c, 0, 72, 0
2, 8194, Note_on_c, 0, 67, 0
2, 8207, Note_on_c, 0, 66, 80
2, 8214, Note_on_c, 0, 71, 0
2, 8215, Note_on_c, 0, 69, 63
2, 8272, Note_on_c, 0, 69, 0
2, 8272, Note_on_c, 0, 67, 83
2, 8331, Note_on_c, 0, 66, 0
2, 8335, Note_on_c, 0, 64, 80
2, 8382, Note_on_c, 0, 67, 0
2, 8395, Note_on_c, 0, 69, 76
2, 8416, Note_on_c, 0, 64, 0
2, 8456, Note_on_c, 0, 64, 80
2, 8514, Note_on_c, 0, 62, 80
2, 8519, Note_on_c, 0, 64, 0
2, 8573, Note_on_c, 0, 60, 80
2, 8577, Note_on_c, 0, 62, 0
2, 8628, Note_on_c, 0, 59, 80
2, 8629, Note_on_c, 0, 60, 0
2, 8663, Note_on_c, 0, 69, 0
2, 8690, Note_on_c, 0, 62, 76
2, 8690, Note_on_c, 0, 62, 80
2, 8736, Note_on_c, 0, 62, 0
2, 8747, Note_on_c, 0, 67, 79
2, 8751, Note_on_c, 0, 67, 80
2, 8753, Note_on_c, 0, 62, 0
2, 8805, Note_on_c, 0, 67, 0
2, 8805, Note_on_c, 0, 69, 63
2, 8806, Note_on_c, 0, 69, 80
2, 8807, Note_on_c, 0, 60, 80
2, 8810, Note_on_c, 0, 67, 0
2, 8812, Note_on_c, 0, 59, 0
2, 8865, Note_on_c, 0, 67, 74
2, 8868, Note_on_c, 0, 69, 0
2, 8868, Note_on_c, 0, 69, 0
2, 8870, Note_on_c, 0, 67, 80
2, 8871, Note_on_c, 0, 62, 80
2, 8872, Note_on_c, 0, 60, 0
2, 8924, Note_on_c, 0, 67, 0
2, 8926, Note_on_c, 0, 65, 79
2, 8931, Note_on_c, 0, 65, 80
2, 8936, Note_on_c, 0, 67, 0
2, 8984, Note_on_c, 0, 65, 0
2, 8984, Note_on_c, 0, 64, 80
2, 8988, Note_on_c, 0, 65, 0
2, 8990, Note_on_c, 0, 64, 80
2, 8996, Note_on_c, 0, 62, 0
2, 9047, Note_on_c, 0, 55, 80
2, 9077, Note_on_c, 0, 55, 0
2, 9110, Note_on_c, 0, 60, 80
2, 9125, Note_on_c, 0, 64, 0
2, 9156, Note_on_c, 0, 64, 0
2, 9169, Note_on_c, 0, 60, 0
2, 9169, Note_on_c, 0, 64, 80
2, 9170, Note_on_c, 0, 66, 83
2, 9170, Note_on_c, 0, 66, 80
2, 9224, Note_on_c, 0, 66, 0
2, 9229, Note_on_c, 0, 62, 80
2, 9229, Note_on_c, 0, 67, 79
2, 9230, Note_on_c, 0, 67, 80
2, 9231, Note_on_c, 0, 66, 0
2, 9233, Note_on_c, 0, 64, 0
2, 9289, Note_on_c, 0, 69, 71
2, 9290, Note_on_c, 0, 67, 0
2, 9290, Note_on_c, 0, 69, 80
2, 9291, Note_on_c, 0, 67, 0
2, 9291, Note_on_c, 0, 60, 80
2, 9294, Note_on_c, 0, 62, 0
2, 9339, Note_on_c, 0, 69, 0
2, 9352, Note_on_c, 0, 71, 80
2, 9352, Note_on_c, 0, 71, 81
2, 9352, Note_on_c, 0, 62, 80
2, 9354, Note_on_c, 0, 60, 0
2, 9356, Note_on_c, 0, 69, 0
2, 9436, Note_on_c, 0, 71, 0
2, 9469, Note_on_c, 0, 71, 0
2, 9470, Note_on_c, 0, 64, 80
2, 9473, Note_on_c, 0, 62, 0
2, 9584, Note_on_c, 0, 62, 80
2, 9589, Note_on_c, 0, 64, 0
2, 9712, Note_on_c, 0, 57, 80
2, 9716, Note_on_c, 0, 62, 0
2, 9773, Note_on_c, 0, 69, 80
2, 9831, Note_on_c, 0, 67, 80
2, 9839, Note_on_c, 0, 69, 0
2, 9893, Note_on_c, 0, 59, 80
2, 9894, Note_on_c, 0, 66, 80
2, 9897, Note_on_c, 0, 57, 0
2, 9899, Note_on_c, 0, 67, 0
2, 9955, Note_on_c, 0, 60, 80
2, 9956, Note_on_c, 0, 66, 0
2, 9956, Note_on_c, 0, 64, 80
2, 9957, Note_on_c, 0, 59, 0
2, 10013, Note_on_c, 0, 64, 0
2, 10013, Note_on_c, 0, 66, 80
2, 10071, Note_on_c, 0, 66, 0
2, 10072, Note_on_c, 0, 59, 80
2, 10073, Note_on_c, 0, 67, 80
2, 10074, Note_on_c, 0, 60, 0
2, 10132, Note_on_c, 0, 74, 80
2, 10135, Note_on_c, 0, 67, 0
2, 10169, Note_on_c, 0, 59, 0
2, 10191, Note_on_c, 0, 72, 80
2, 10195, Note_on_c, 0, 59, 80
2, 10198, Note_on_c, 0, 74, 0
2, 10214, Note_on_c, 0, 59, 0
2, 10214, Note_on_c, 0, 57, 80
2, 10230, Note_on_c, 0, 57, 0
2, 10231, Note_on_c, 0, 59, 80
2, 10243, Note_on_c, 0, 57, 80
2, 10244, Note_on_c, 0, 59, 0
2, 10252, Note_on_c, 0, 71, 80
2, 10253, Note_on_c, 0, 72, 0
2, 10255, Note_on_c, 0, 59, 80
2, 10256, Note_on_c, 0, 57, 0
2, 10266, Note_on_c, 0, 57, 80
2, 10269, Note_on_c, 0, 59, 0
2, 10273, Note_on_c, 0, 57, 0
2, 10273, Note_on_c, 0, 59, 80
2, 10284, Note_on_c, 0, 57, 80
2, 10286, Note_on_c, 0, 59, 0
2, 10291, Note_on_c, 0, 57, 0
2, 10291, Note_on_c, 0, 59, 80
2, 10298, Note_on_c, 0, 57, 80
2, 10302, Note_on_c, 0, 59, 0
2, 10306, Note_on_c, 0, 72, 80
2, 10307, Note_on_c, 0, 71, 0
2, 10307, Note_on_c, 0, 57, 0
2, 10308, Note_on_c, 0, 59, 80
2, 10315, Note_on_c, 0, 57, 80
2, 10318, Note_on_c, 0, 59, 0
2, 10324, Note_on_c, 0, 57, 0
2, 10326, Note_on_c, 0, 59, 80
2, 10333, Note_on_c, 0, 57, 80
2, 10336, Note_on_c, 0, 59, 0
2, 10343, Note_on_c, 0, 57, 0
2, 10344, Note_on_c, 0, 59, 80
2, 10350, Note_on_c, 0, 55, 80
2, 10353, Note_on_c, 0, 59, 0
2, 10365, Note_on_c, 0, 74, 80
2, 10368, Note_on_c, 0, 72, 0
2, 10400, Note_on_c, 0, 57, 80
2, 10404, Note_on_c, 0, 55, 0
2, 10434, Note_on_c, 0, 71, 80
2, 10436, Note_on_c, 0, 74, 0
2, 10436, Note_on_c, 0, 55, 80
2, 10437, Note_on_c, 0, 57, 0
2, 10483, Note_on_c, 0, 55, 0
2, 10494, Note_on_c, 0, 62, 80
2, 10555, Note_on_c, 0, 69, 80
2, 10556, Note_on_c, 0, 71, 0
2, 10556, Note_on_c, 0, 60, 80
2, 10559, Note_on_c, 0, 62, 0
2, 10613, Note_on_c, 0, 59, 80
2, 10614, Note_on_c, 0, 60, 0
2, 10614, Note_on_c, 0, 67, 80
2, 10615, Note_on_c, 0, 69, 0
2, 10672, Note_on_c, 0, 60, 80
2, 10673, Note_on_c, 0, 59, 0
2, 10674, Note_on_c, 0, 69, 80
2, 10676, Note_on_c, 0, 67, 0
2, 10730, Note_on_c, 0, 71, 80
2, 10730, Note_on_c, 0, 62, 80
2, 10731, Note_on_c, 0, 60, 0
2, 10731, Note_on_c, 0, 69, 0
2, 10756, Note_on_c, 0, 62, 0
2, 10791, Note_on_c, 0, 71, 0
2, 10791, Note_on_c, 0, 59, 80
2, 10793, Note_on_c, 0, 67, 80
2, 10851, Note_on_c, 0, 59, 0
2, 10852, Note_on_c, 0, 57, 80
2, 10911, Note_on_c, 0, 55, 80
2, 10912, Note_on_c, 0, 67, 0
2, 10912, Note_on_c, 0, 57, 0
2, 10912, Note_on_c, 0, 71, 80
2, 10972, Note_on_c, 0, 54, 80
2, 10975, Note_on_c, 0, 55, 0
2, 11029, Note_on_c, 0, 71, 0
2, 11029, Note_on_c, 0, 54, 0
2, 11029, Note_on_c, 0, 52, 80
2, 11029, Note_on_c, 0, 69, 80
2, 11090, Note_on_c, 0, 50, 80
2, 11093, Note_on_c, 0, 52, 0
2, 11153, Note_on_c, 0, 49, 80
2, 11154, Note_on_c, 0, 69, 0
2, 11154, Note_on_c, 0, 64, 80
2, 11155, Note_on_c, 0, 50, 0
2, 11209, Note_on_c, 0, 49, 0
2, 11210, Note_on_c, 0, 52, 80
2, 11269, Note_on_c, 0, 50, 80
2, 11273, Note_on_c, 0, 52, 0
2, 11326, Note_on_c, 0, 66, 80
2, 11327, Note_on_c, 0, 49, 80
2, 11328, Note_on_c, 0, 64, 0
2, 11331, Note_on_c, 0, 50, 0
2, 11388, Note_on_c, 0, 49, 0
2, 11388, Note_on_c, 0, 47, 80
2, 11390, Note_on_c, 0, 67, 80
2, 11391, Note_on_c, 0, 66, 0
2, 11451, Note_on_c, 0, 49, 80
2, 11457, Note_on_c, 0, 47, 0
2, 11507, Note_on_c, 0, 67, 0
2, 11508, Note_on_c, 0, 49, 0
2, 11508, Note_on_c, 0, 66, 80
2, 11509, Note_on_c, 0, 50, 80
2, 11566, Note_on_c, 0, 50, 0
2, 11567, Note_on_c, 0, 57, 80
2, 11580, Note_on_c, 0, 66, 0
2, 11627, Note_on_c, 0, 55, 80
2, 11630, Note_on_c, 0, 66, 80
2, 11631, Note_on_c, 0, 57, 0
2, 11648, Note_on_c, 0, 66, 0
2, 11648, Note_on_c, 0, 64, 80
2, 11664, Note_on_c, 0, 64, 0
2, 11666, Note_on_c, 0, 66, 80
2, 11679, Note_on_c, 0, 66, 0
2, 11681, Note_on_c, 0, 64, 80
2, 11682, Note_on_c, 0, 55, 0
2, 11682, Note_on_c, 0, 54, 80
2, 11692, Note_on_c, 0, 64, 0
2, 11693, Note_on_c, 0, 66, 80
2, 11703, Note_on_c, 0, 66, 0
2, 11705, Note_on_c, 0, 64, 80
2, 11713, Note_on_c, 0, 64, 0
2, 11714, Note_on_c, 0, 66, 80
2, 11719, Note_on_c, 0, 66, 0
2, 11721, Note_on_c, 0, 64, 80
2, 11730, Note_on_c, 0, 64, 0
2, 11730, Note_on_c, 0, 66, 80
2, 11734, Note_on_c, 0, 66, 0
2, 11737, Note_on_c, 0, 64, 80
2, 11743, Note_on_c, 0, 66, 80
2, 11745, Note_on_c, 0, 64, 0
2, 11750, Note_on_c, 0, 54, 0
2, 11751, Note_on_c, 0, 66, 0
2, 11751, Note_on_c, 0, 55, 80
2, 11752, Note_on_c, 0, 64, 80
2, 11758, Note_on_c, 0, 66, 80
2, 11768, Note_on_c, 0, 66, 0
2, 11811, Note_on_c, 0, 64, 0
2, 11811, Note_on_c, 0, 62, 80
2, 11813, Note_on_c, 0, 55, 0
2, 11813, Note_on_c, 0, 57, 80
2, 11842, Note_on_c, 0, 62, 0
2, 11842, Note_on_c, 0, 64, 80
2, 11877, Note_on_c, 0, 57, 0
2, 11877, Note_on_c, 0, 62, 80
2, 11878, Note_on_c, 0, 59, 80
2, 11881, Note_on_c, 0, 64, 0
2, 11934, Note_on_c, 0, 62, 0
2, 11935, Note_on_c, 0, 60, 80
2, 11937, Note_on_c, 0, 59, 0
2, 11937, Note_on_c, 0, 57, 80
2, 11994, Note_on_c, 0, 60, 0
2, 11994, Note_on_c, 0, 59, 80
2, 11995, Note_on_c, 0, 55, 80
2, 12000, Note_on_c, 0, 57, 0
2, 12054, Note_on_c, 0, 55, 0
2, 12054, Note_on_c, 0, 62, 80
2, 12055, Note_on_c, 0, 54, 80
2, 12056, Note_on_c, 0, 59, 0
2, 12115, Note_on_c, 0, 60, 80
2, 12115, Note_on_c, 0, 56, 80
2, 12119, Note_on_c, 0, 54, 0
2, 12120, Note_on_c, 0, 62, 0
2, 12171, Note_on_c, 0, 60, 0
2, 12171, Note_on_c, 0, 59, 80
2, 12236, Note_on_c, 0, 60, 80
2, 12240, Note_on_c, 0, 56, 0
2, 12240, Note_on_c, 0, 59, 0
2, 12296, Note_on_c, 0, 57, 80
2, 12356, Note_on_c, 0, 55, 80
2, 12357, Note_on_c, 0, 57, 0
2, 12412, Note_on_c, 0, 54, 80
2, 12413, Note_on_c, 0, 62, 80
2, 12414, Note_on_c, 0, 60, 0
2, 12414, Note_on_c, 0, 55, 0
2, 12471, Note_on_c, 0, 64, 80
2, 12473, Note_on_c, 0, 52, 80
2, 12474, Note_on_c, 0, 54, 0
2, 12474, Note_on_c, 0, 62, 0
2, 12534, Note_on_c, 0, 54, 80
2, 12538, Note_on_c, 0, 52, 0
2, 12573, Note_on_c, 0, 64, 0
2, 12587, Note_on_c, 0, 54, 0
2, 12590, Note_on_c, 0, 55, 80
2, 12650, Note_on_c, 0, 62, 80
2, 12710, Note_on_c, 0, 62, 0
2, 12710, Note_on_c, 0, 64, 80
2, 12711, Note_on_c, 0, 60, 80
2, 12712, Note_on_c, 0, 55, 0
2, 12768, Note_on_c, 0, 60, 0
2, 12768, Note_on_c, 0, 59, 80
2, 12769, Note_on_c, 0, 64, 0
2, 12769, Note_on_c, 0, 62, 80
2, 12825, Note_on_c, 0, 62, 0
2, 12828, Note_on_c, 0, 60, 80
2, 12829, Note_on_c, 0, 64, 80
2, 12833, Note_on_c, 0, 59, 0
2, 12883, Note_on_c, 0, 64, 0
2, 12886, Note_on_c, 0, 66, 80
2, 12886, Note_on_c, 0, 62, 80
2, 12887, Note_on_c, 0, 60, 0
2, 12908, Note_on_c, 0, 62, 0
2, 12909, Note_on_c, 0, 66, 0
2, 12947, Note_on_c, 0, 59, 80
2, 12948, Note_on_c, 0, 67, 80
2, 13064, Note_on_c, 0, 59, 0
2, 13067, Note_on_c, 0, 60, 80
2, 13113, Note_on_c, 0, 67, 0
2, 13123, Note_on_c, 0, 69, 80
2, 13182, Note_on_c, 0, 69, 0
2, 13183, Note_on_c, 0, 71, 80
2, 13185, Note_on_c, 0, 62, 80
2, 13186, Note_on_c, 0, 60, 0
2, 13246, Note_on_c, 0, 71, 0
2, 13250, Note_on_c, 0, 72, 80
2, 13308, Note_on_c, 0, 74, 80
2, 13311, Note_on_c, 0, 72, 0
2, 13526, Note_on_c, 0, 74, 0
2, 13550, Note_on_c, 0, 62, 0
2, 13554, Note_on_c, 0, 67, 80
2, 13555, Note_on_c, 0, 64, 80
2, 13674, Note_on_c, 0, 62, 80
2, 13675, Note_on_c, 0, 64, 0
2, 13794, Note_on_c, 0, 64, 80
2, 13795, Note_on_c, 0, 62, 0
2, 13868, Note_on_c, 0, 67, 0
2, 13914, Note_on_c, 0, 64, 0
2, 13914, Note_on_c, 0, 66, 80
2, 13914, Note_on_c, 0, 57, 80
2, 14000, Note_on_c, 0, 57, 0
2, 14002, Note_on_c, 0, 66, 0
2, 14034, Note_on_c, 0, 67, 80
2, 14035, Note_on_c, 0, 59, 80
2, 14092, Note_on_c, 0, 60, 80
2, 14098, Note_on_c, 0, 59, 0
2, 14149, Note_on_c, 0, 60, 0
2, 14155, Note_on_c, 0, 62, 80
2, 14161, Note_on_c, 0, 67, 0
2, 14214, Note_on_c, 0, 65, 80
2, 14241, Note_on_c, 0, 65, 0
2, 14273, Note_on_c, 0, 64, 80
2, 14294, Note_on_c, 0, 62, 0
2, 14327, Note_on_c, 0, 55, 80
2, 14350, Note_on_c, 0, 55, 0
2, 14384, Note_on_c, 0, 60, 80
2, 14390, Note_on_c, 0, 64, 0
2, 14445, Note_on_c, 0, 64, 80
2, 14470, Note_on_c, 0, 64, 0
2, 14505, Note_on_c, 0, 62, 80
2, 14511, Note_on_c, 0, 60, 0
2, 14566, Note_on_c, 0, 60, 80
2, 14588, Note_on_c, 0, 60, 0
2, 14630, Note_on_c, 0, 59, 80
2, 14662, Note_on_c, 0, 62, 0
2, 14691, Note_on_c, 0, 67, 80
2, 14747, Note_on_c, 0, 67, 0
2, 14750, Note_on_c, 0, 60, 80
2, 14808, Note_on_c, 0, 59, 0
2, 14809, Note_on_c, 0, 57, 80
2, 14836, Note_on_c, 0, 55, 80
2, 14841, Note_on_c, 0, 57, 0
2, 14868, Note_on_c, 0, 55, 0
2, 14870, Note_on_c, 0, 54, 80
2, 14926, Note_on_c, 0, 64, 80
2, 14929, Note_on_c, 0, 60, 0
2, 14985, Note_on_c, 0, 62, 80
2, 14989, Note_on_c, 0, 64, 0
2, 15049, Note_on_c, 0, 60, 80
2, 15051, Note_on_c, 0, 62, 0
2, 15099, Note_on_c, 0, 60, 0
2, 15112, Note_on_c, 0, 55, 80
2, 15113, Note_on_c, 0, 59, 80
2, 15115, Note_on_c, 0, 54, 0
2, 15154, Note_on_c, 0, 59, 0
2, 15177, Note_on_c, 0, 62, 80
2, 15236, Note_on_c, 0, 64, 80
2, 15237, Note_on_c, 0, 62, 0
2, 15294, Note_on_c, 0, 66, 80
2, 15300, Note_on_c, 0, 64, 0
2, 15317, Note_on_c, 0, 55, 0
2, 15356, Note_on_c, 0, 67, 80
2, 15357, Note_on_c, 0, 66, 0
2, 15415, Note_on_c, 0, 55, 80
2, 15440, Note_on_c, 0, 55, 0
2, 15480, Note_on_c, 0, 57, 80
2, 15535, Note_on_c, 0, 67, 0
2, 15536, Note_on_c, 0, 64, 80
2, 15594, Note_on_c, 0, 66, 80
2, 15599, Note_on_c, 0, 64, 0
2, 15651, Note_on_c, 0, 59, 80
2, 15652, Note_on_c, 0, 67, 80
2, 15654, Note_on_c, 0, 66, 0
2, 15656, Note_on_c, 0, 57, 0
2, 15700, Note_on_c, 0, 67, 0
2, 15715, Note_on_c, 0, 60, 80
2, 15717, Note_on_c, 0, 59, 0
2, 15717, Note_on_c, 0, 67, 80
2, 15775, Note_on_c, 0, 67, 0
2, 15775, Note_on_c, 0, 69, 80
2, 15837, Note_on_c, 0, 59, 80
2, 15842, Note_on_c, 0, 60, 0
2, 15893, Note_on_c, 0, 67, 80
2, 15899, Note_on_c, 0, 69, 0
2, 15955, Note_on_c, 0, 59, 0
2, 15956, Note_on_c, 0, 62, 80
2, 15978, Note_on_c, 0, 67, 0
2, 16008, Note_on_c, 0, 66, 80
2, 16064, Note_on_c, 0, 66, 0
2, 16069, Note_on_c, 0, 64, 80
2, 16116, Note_on_c, 0, 62, 0
2, 16124, Note_on_c, 0, 64, 0
2, 16126, Note_on_c, 0, 62, 80
2, 16162, Note_on_c, 0, 62, 0
2, 16181, Note_on_c, 0, 57, 80
2, 16184, Note_on_c, 0, 62, 80
2, 16192, Note_on_c, 0, 62, 0
2, 16193, Note_on_c, 0, 61, 80
2, 16201, Note_on_c, 0, 62, 80
2, 16203, Note_on_c, 0, 61, 0
2, 16211, Note_on_c, 0, 62, 0
2, 16211, Note_on_c, 0, 61, 80
2, 16247, Note_on_c, 0, 62, 80
2, 16250, Note_on_c, 0, 61, 0
2, 16303, Note_on_c, 0, 62, 0
2, 16303, Note_on_c, 0, 64, 80
2, 16365, Note_on_c, 0, 55, 80
2, 16368, Note_on_c, 0, 57, 0
2, 16427, Note_on_c, 0, 54, 80
2, 16431, Note_on_c, 0, 55, 0
2, 16488, Note_on_c, 0, 57, 80
2, 16489, Note_on_c, 0, 64, 0
2, 16544, Note_on_c, 0, 57, 0
2, 16546, Note_on_c, 0, 62, 80
2, 16604, Note_on_c, 0, 54, 0
2, 16605, Note_on_c, 0, 55, 80
2, 16630, Note_on_c, 0, 55, 0
2, 16666, Note_on_c, 0, 54, 80
2, 16684, Note_on_c, 0, 54, 0
2, 16684, Note_on_c, 0, 52, 80
2, 16699, Note_on_c, 0, 52, 0
2, 16702, Note_on_c, 0, 54, 80
2, 16716, Note_on_c, 0, 54, 0
2, 16716, Note_on_c, 0, 52, 80
2, 16723, Note_on_c, 0, 64, 80
2, 16726, Note_on_c, 0, 62, 0
2, 16731, Note_on_c, 0, 52, 0
2, 16733, Note_on_c, 0, 54, 80
2, 16745, Note_on_c, 0, 52, 80
2, 16746, Note_on_c, 0, 54, 0
2, 16759, Note_on_c, 0, 52, 0
2, 16761, Note_on_c, 0, 54, 80
2, 16770, Note_on_c, 0, 52, 80
2, 16771, Note_on_c, 0, 54, 0
2, 16778, Note_on_c, 0, 61, 80
2, 16779, Note_on_c, 0, 64, 0
2, 16781, Note_on_c, 0, 54, 80
2, 16782, Note_on_c, 0, 52, 0
2, 16793, Note_on_c, 0, 52, 80
2, 16794, Note_on_c, 0, 54, 0
2, 16801, Note_on_c, 0, 54, 80
2, 16802, Note_on_c, 0, 52, 0
2, 16814, Note_on_c, 0, 52, 80
2, 16815, Note_on_c, 0, 54, 0
2, 16846, Note_on_c, 0, 50, 80
2, 16848, Note_on_c, 0, 52, 0
2, 16876, Note_on_c, 0, 52, 80
2, 16879, Note_on_c, 0, 50, 0
2, 16910, Note_on_c, 0, 61, 0
2, 16911, Note_on_c, 0, 62, 80
2, 16912, Note_on_c, 0, 50, 80
2, 16916, Note_on_c, 0, 52, 0
2, 16939, Note_on_c, 0, 50, 0
2, 16970, Note_on_c, 0, 60, 80
2, 17028, Note_on_c, 0, 59, 80
2, 17032, Note_on_c, 0, 60, 0
2, 17091, Note_on_c, 0, 57, 80
2, 17094, Note_on_c, 0, 59, 0
2, 17151, Note_on_c, 0, 57, 0
2, 17151, Note_on_c, 0, 55, 80
2, 17162, Note_on_c, 0, 62, 0
2, 17211, Note_on_c, 0, 62, 80
2, 17272, Note_on_c, 0, 64, 80
2, 17274, Note_on_c, 0, 62, 0
2, 17330, Note_on_c, 0, 57, 80
2, 17332, Note_on_c, 0, 55, 0
2, 17390, Note_on_c, 0, 55, 80
2, 17395, Note_on_c, 0, 57, 0
2, 17448, Note_on_c, 0, 66, 80
2, 17449, Note_on_c, 0, 54, 80
2, 17450, Note_on_c, 0, 64, 0
2, 17451, Note_on_c, 0, 55, 0
2, 17502, Note_on_c, 0, 66, 0
2, 17509, Note_on_c, 0, 67, 80
2, 17509, Note_on_c, 0, 52, 80
2, 17511, Note_on_c, 0, 54, 0
2, 17556, Note_on_c, 0, 52, 0
2, 17570, Note_on_c, 0, 64, 80
2, 17626, Note_on_c, 0, 67, 0
2, 17626, Note_on_c, 0, 66, 80
2, 17687, Note_on_c, 0, 62, 80
2, 17692, Note_on_c, 0, 64, 0
2, 17711, Note_on_c, 0, 66, 0
2, 17754, Note_on_c, 0, 69, 80
2, 17754, Note_on_c, 0, 60, 80
2, 17759, Note_on_c, 0, 62, 0
2, 17812, Note_on_c, 0, 60, 0
2, 17813, Note_on_c, 0, 59, 80
2, 17872, Note_on_c, 0, 57, 80
2, 17874, Note_on_c, 0, 59, 0
2, 17927, Note_on_c, 0, 55, 80
2, 17929, Note_on_c, 0, 57, 0
2, 17990, Note_on_c, 0, 62, 80
2, 17991, Note_on_c, 0, 54, 80
2, 17992, Note_on_c, 0, 55, 0
2, 17995, Note_on_c, 0, 69, 0
2, 18052, Note_on_c, 0, 55, 80
2, 18055, Note_on_c, 0, 54, 0
2, 18114, Note_on_c, 0, 55, 0
2, 18115, Note_on_c, 0, 57, 80
2, 18171, Note_on_c, 0, 60, 80
2, 18172, Note_on_c, 0, 62, 0
2, 18227, Note_on_c, 0, 60, 0
2, 18228, Note_on_c, 0, 59, 80
2, 18286, Note_on_c, 0, 50, 80
2, 18292, Note_on_c, 0, 57, 0
2, 18346, Note_on_c, 0, 55, 80
2, 18350, Note_on_c, 0, 50, 0
2, 18405, Note_on_c, 0, 60, 80
2, 18406, Note_on_c, 0, 59, 0
2, 18456, Note_on_c, 0, 60, 0
2, 18464, Note_on_c, 0, 59, 80
2, 18485, Note_on_c, 0, 57, 80
2, 18486, Note_on_c, 0, 59, 0
2, 18501, Note_on_c, 0, 57, 0
2, 18503, Note_on_c, 0, 59, 80
2, 18514, Note_on_c, 0, 59, 0
2, 18516, Note_on_c, 0, 57, 80
2, 18519, Note_on_c, 0, 54, 80
2, 18524, Note_on_c, 0, 55, 0
2, 18527, Note_on_c, 0, 59, 80
2, 18528, Note_on_c, 0, 57, 0
2, 18538, Note_on_c, 0, 59, 0
2, 18539, Note_on_c, 0, 57, 80
2, 18549, Note_on_c, 0, 57, 0
2, 18549, Note_on_c, 0, 59, 80
2, 18553, Note_on_c, 0, 54, 0
2, 18554, Note_on_c, 0, 52, 80
2, 18559, Note_on_c, 0, 59, 0
2, 18559, Note_on_c, 0, 57, 80
2, 18569, Note_on_c, 0, 57, 0
2, 18569, Note_on_c, 0, 59, 80
2, 18573, Note_on_c, 0, 59, 0
2, 18576, Note_on_c, 0, 57, 80
2, 18583, Note_on_c, 0, 59, 80
2, 18584, Note_on_c, 0, 57, 0
2, 18587, Note_on_c, 0, 54, 80
2, 18590, Note_on_c, 0, 52, 0
2, 18590, Note_on_c, 0, 59, 0
2, 18590, Note_on_c, 0, 57, 80
2, 18596, Note_on_c, 0, 59, 80
2, 18609, Note_on_c, 0, 59, 0
2, 18646, Note_on_c, 0, 55, 80
2, 18647, Note_on_c, 0, 57, 0
2, 18677, Note_on_c, 0, 55, 0
2, 18677, Note_on_c, 0, 57, 80
2, 18713, Note_on_c, 0, 55, 80
2, 18714, Note_on_c, 0, 57, 0
2, 18772, Note_on_c, 0, 54, 0
2, 18772, Note_on_c, 0, 52, 80
2, 18795, Note_on_c, 0, 55, 0
2, 18834, Note_on_c, 0, 60, 80
2, 18835, Note_on_c, 0, 50, 80
2, 18838, Note_on_c, 0, 52, 0
2, 18890, Note_on_c, 0, 48, 80
2, 18892, Note_on_c, 0, 50, 0
2, 18951, Note_on_c, 0, 48, 0
2, 18952, Note_on_c, 0, 50, 80
2, 19006, Note_on_c, 0, 50, 0
2, 19009, Note_on_c, 0, 59, 80
2, 19012, Note_on_c, 0, 60, 0
2, 19013, Note_on_c, 0, 55, 80
2, 19035, Note_on_c, 0, 59, 0
2, 19037, Note_on_c, 0, 55, 0
2, 19067, Note_on_c, 0, 60, 80
2, 19067, Note_on_c, 0, 52, 80
2, 19125, Note_on_c, 0, 59, 80
2, 19127, Note_on_c, 0, 60, 0
2, 19186, Note_on_c, 0, 57, 80
2, 19186, Note_on_c, 0, 60, 80
2, 19187, Note_on_c, 0, 52, 0
2, 19187, Note_on_c, 0, 59, 0
2, 19217, Note_on_c, 0, 60, 0
2, 19243, Note_on_c, 0, 62, 80
2, 19269, Note_on_c, 0, 62, 0
2, 19304, Note_on_c, 0, 64, 80
2, 19306, Note_on_c, 0, 55, 80
2, 19308, Note_on_c, 0, 57, 0
2, 19363, Note_on_c, 0, 57, 80
2, 19368, Note_on_c, 0, 55, 0
2, 19393, Note_on_c, 0, 64, 0
2, 19423, Note_on_c, 0, 59, 80
2, 19424, Note_on_c, 0, 62, 80
2, 19425, Note_on_c, 0, 57, 0
2, 19483, Note_on_c, 0, 64, 80
2, 19484, Note_on_c, 0, 62, 0
2, 19541, Note_on_c, 0, 66, 80
2, 19542, Note_on_c, 0, 57, 80
2, 19543, Note_on_c, 0, 64, 0
2, 19544, Note_on_c, 0, 59, 0
2, 19602, Note_on_c, 0, 66, 0
2, 19603, Note_on_c, 0, 67, 80
2, 19659, Note_on_c, 0, 67, 0
2, 19660, Note_on_c, 0, 69, 80
2, 19661, Note_on_c, 0, 66, 80
2, 19665, Note_on_c, 0, 57, 0
2, 19720, Note_on_c, 0, 71, 80
2, 19722, Note_on_c, 0, 69, 0
2, 19786, Note_on_c, 0, 73, 80
2, 19786, Note_on_c, 0, 64, 80
2, 19787, Note_on_c, 0, 66, 0
2, 19788, Note_on_c, 0, 71, 0
2, 19846, Note_on_c, 0, 73, 0
2, 19847, Note_on_c, 0, 74, 80
2, 19849, Note_on_c, 0, 62, 80
2, 19852, Note_on_c, 0, 64, 0
2, 19908, Note_on_c, 0, 74, 0
2, 19909, Note_on_c, 0, 61, 80
2, 19909, Note_on_c, 0, 76, 80
2, 19914, Note_on_c, 0, 62, 0
2, 19969, Note_on_c, 0, 59, 80
2, 19971, Note_on_c, 0, 61, 0
2, 20032, Note_on_c, 0, 59, 0
2, 20033, Note_on_c, 0, 57, 80
2, 20036, Note_on_c, 0, 76, 0
2, 20090, Note_on_c, 0, 55, 80
2, 20092, Note_on_c, 0, 69, 80
2, 20094, Note_on_c, 0, 57, 0
2, 20129, Note_on_c, 0, 69, 0
2, 20148, Note_on_c, 0, 54, 80
2, 20150, Note_on_c, 0, 55, 0
2, 20150, Note_on_c, 0, 74, 80
2, 20206, Note_on_c, 0, 54, 0
2, 20207, Note_on_c, 0, 50, 80
2, 20270, Note_on_c, 0, 57, 80
2, 20272, Note_on_c, 0, 50, 0
2, 20292, Note_on_c, 0, 55, 80
2, 20294, Note_on_c, 0, 57, 0
2, 20309, Note_on_c, 0, 55, 0
2, 20310, Note_on_c, 0, 57, 80
2, 20325, Note_on_c, 0, 57, 0
2, 20325, Note_on_c, 0, 76, 80
2, 20326, Note_on_c, 0, 55, 80
2, 20327, Note_on_c, 0, 74, 0
2, 20340, Note_on_c, 0, 55, 0
2, 20342, Note_on_c, 0, 57, 80
2, 20354, Note_on_c, 0, 55, 80
2, 20355, Note_on_c, 0, 57, 0
2, 20366, Note_on_c, 0, 55, 0
2, 20367, Note_on_c, 0, 57, 80
2, 20378, Note_on_c, 0, 55, 80
2, 20381, Note_on_c, 0, 73, 80
2, 20382, Note_on_c, 0, 76, 0
2, 20383, Note_on_c, 0, 55, 0
2, 20393, Note_on_c, 0, 55, 80
2, 20402, Note_on_c, 0, 57, 0
2, 20429, Note_on_c, 0, 54, 80
2, 20430, Note_on_c, 0, 55, 0
2, 20470, Note_on_c, 0, 55, 80
2, 20474, Note_on_c, 0, 54, 0
2, 20511, Note_on_c, 0, 73, 0
2, 20511, Note_on_c, 0, 74, 80
2, 20512, Note_on_c, 0, 54, 80
2, 20513, Note_on_c, 0, 55, 0
2, 20571, Note_on_c, 0, 72, 80
2, 20572, Note_on_c, 0, 57, 80
2, 20573, Note_on_c, 0, 54, 0
2, 20574, Note_on_c, 0, 74, 0
2, 20630, Note_on_c, 0, 57, 0
2, 20630, Note_on_c, 0, 62, 80
2, 20631, Note_on_c, 0, 72, 0
2, 20631, Note_on_c, 0, 71, 80
2, 20688, Note_on_c, 0, 71, 0
2, 20688, Note_on_c, 0, 60, 80
2, 20690, Note_on_c, 0, 69, 80
2, 20693, Note_on_c, 0, 62, 0
2, 20748, Note_on_c, 0, 60, 0
2, 20748, Note_on_c, 0, 69, 0
2, 20748, Note_on_c, 0, 67, 80
2, 20749, Note_on_c, 0, 59, 80
2, 20772, Note_on_c, 0, 59, 0
2, 20810, Note_on_c, 0, 72, 80
2, 20812, Note_on_c, 0, 64, 80
2, 20813, Note_on_c, 0, 67, 0
2, 20865, Note_on_c, 0, 72, 0
2, 20871, Note_on_c, 0, 69, 80
2, 20932, Note_on_c, 0, 62, 80
2, 20936, Note_on_c, 0, 64, 0
2, 20992, Note_on_c, 0, 60, 80
2, 20995, Note_on_c, 0, 62, 0
2, 21007, Note_on_c, 0, 69, 0
2, 21050, Note_on_c, 0, 71, 80
2, 21052, Note_on_c, 0, 60, 0
2, 21052, Note_on_c, 0, 59, 80
2, 21108, Note_on_c, 0, 71, 0
2, 21110, Note_on_c, 0, 64, 80
2, 21113, Note_on_c, 0, 60, 80
2, 21114, Note_on_c, 0, 59, 0
2, 21170, Note_on_c, 0, 66, 80
2, 21177, Note_on_c, 0, 64, 0
2, 21231, Note_on_c, 0, 66, 0
2, 21233, Note_on_c, 0, 60, 0
2, 21234, Note_on_c, 0, 59, 80
2, 21234, Note_on_c, 0, 67, 80
2, 21290, Note_on_c, 0, 59, 0
2, 21292, Note_on_c, 0, 60, 80
2, 21345, Note_on_c, 0, 60, 0
2, 21346, Note_on_c, 0, 62, 80
2, 21396, Note_on_c, 0, 67, 0
2, 21410, Note_on_c, 0, 65, 80
2, 21433, Note_on_c, 0, 65, 0
2, 21473, Note_on_c, 0, 64, 80
2, 21534, Note_on_c, 0, 55, 80
2, 21538, Note_on_c, 0, 62, 0
2, 21594, Note_on_c, 0, 60, 80
2, 21596, Note_on_c, 0, 55, 0
2, 21654, Note_on_c, 0, 59, 80
2, 21662, Note_on_c, 0, 60, 0
2, 21686, Note_on_c, 0, 64, 0
2, 21713, Note_on_c, 0, 57, 80
2, 21714, Note_on_c, 0, 62, 80
2, 21716, Note_on_c, 0, 59, 0
2, 21774, Note_on_c, 0, 55, 80
2, 21777, Note_on_c, 0, 57, 0
2, 21836, Note_on_c, 0, 55, 0
2, 21836, Note_on_c, 0, 57, 80
2, 21893, Note_on_c, 0, 54, 80
2, 21896, Note_on_c, 0, 57, 0
2, 21921, Note_on_c, 0, 54, 0
2, 21953, Note_on_c, 0, 55, 80
2, 22009, Note_on_c, 0, 57, 80
2, 22010, Note_on_c, 0, 55, 0
2, 22046, Note_on_c, 0, 62, 0
2, 22071, Note_on_c, 0, 59, 80
2, 22072, Note_on_c, 0, 57, 0
2, 22072, Note_on_c, 0, 67, 80
2, 22126, Note_on_c, 0, 67, 0
2, 22131, Note_on_c, 0, 66, 80
2, 22172, Note_on_c, 0, 66, 0
2, 22195, Note_on_c, 0, 64, 80
2, 22250, Note_on_c, 0, 64, 0
2, 22250, Note_on_c, 0, 62, 80
2, 22262, Note_on_c, 0, 59, 0
2, 22295, Note_on_c, 0, 62, 0
2, 22306, Note_on_c, 0, 52, 80
2, 22307, Note_on_c, 0, 61, 80
2, 22365, Note_on_c, 0, 57, 80
2, 22367, Note_on_c, 0, 61, 0
2, 22420, Note_on_c, 0, 52, 0
2, 22425, Note_on_c, 0, 62, 80
2, 22426, Note_on_c, 0, 54, 80
2, 22428, Note_on_c, 0, 57, 0
2, 22486, Note_on_c, 0, 55, 80
2, 22493, Note_on_c, 0, 54, 0
2, 22516, Note_on_c, 0, 55, 0
2, 22549, Note_on_c, 0, 57, 80
2, 22620, Note_on_c, 0, 57, 0
2, 22669, Note_on_c, 0, 59, 80
2, 22867, Note_on_c, 0, 59, 0
2, 22906, Note_on_c, 0, 57, 80
2, 22907, Note_on_c, 0, 61, 80
2, 22912, Note_on_c, 0, 62, 0
2, 22966, Note_on_c, 0, 55, 80
2, 22967, Note_on_c, 0, 57, 0
2, 22990, Note_on_c, 0, 55, 0
2, 23027, Note_on_c, 0, 62, 80
2, 23028, Note_on_c, 0, 61, 0
2, 23028, Note_on_c, 0, 54, 80
2, 23082, Note_on_c, 0, 54, 0
2, 23086, Note_on_c, 0, 55, 80
2, 23146, Note_on_c, 0, 57, 80
2, 23152, Note_on_c, 0, 62, 0
2, 23152, Note_on_c, 0, 55, 0
2, 23205, Note_on_c, 0, 60, 80
2, 23229, Note_on_c, 0, 60, 0
2, 23265, Note_on_c, 0, 59, 80
2, 23271, Note_on_c, 0, 57, 0
2, 23324, Note_on_c, 0, 50, 80
2, 23349, Note_on_c, 0, 50, 0
2, 23383, Note_on_c, 0, 55, 80
2, 23390, Note_on_c, 0, 59, 0
2, 23447, Note_on_c, 0, 59, 80
2, 23503, Note_on_c, 0, 59, 0
2, 23505, Note_on_c, 0, 57, 80
2, 23512, Note_on_c, 0, 55, 0
2, 23566, Note_on_c, 0, 54, 80
2, 23566, Note_on_c, 0, 62, 80
2, 23567, Note_on_c, 0, 57, 0
2, 23592, Note_on_c, 0, 54, 0
2, 23627, Note_on_c, 0, 52, 80
2, 23654, Note_on_c, 0, 62, 0
2, 23685, Note_on_c, 0, 61, 80
2, 23707, Note_on_c, 0, 61, 0
2, 23711, Note_on_c, 0, 52, 0
2, 23745, Note_on_c, 0, 62, 80
2, 23746, Note_on_c, 0, 50, 80
2, 23808, Note_on_c, 0, 62, 0
2, 23865, Note_on_c, 0, 55, 80
2, 23867, Note_on_c, 0, 50, 0
2, 23994, Note_on_c, 0, 57, 80
2, 23998, Note_on_c, 0, 55, 0
2, 24112, Note_on_c, 0, 57, 0
2, 24114, Note_on_c, 0, 59, 80
2, 24179, Note_on_c, 0, 62, 80
2, 24235, Note_on_c, 0, 62, 0
2, 24237, Note_on_c, 0, 67, 80
2, 24293, Note_on_c, 0, 60, 80
2, 24296, Note_on_c, 0, 59, 0
2, 24354, Note_on_c, 0, 60, 0
2, 24355, Note_on_c, 0, 62, 80
2, 24413, Note_on_c, 0, 67, 0
2, 24414, Note_on_c, 0, 66, 80
2, 24470, Note_on_c, 0, 66, 0
2, 24472, Note_on_c, 0, 64, 80
2, 24519, Note_on_c, 0, 64, 0
2, 24526, Note_on_c, 0, 57, 80
2, 24565, Note_on_c, 0, 57, 0
2, 24587, Note_on_c, 0, 60, 80
2, 24592, Note_on_c, 0, 62, 0
2, 24649, Note_on_c, 0, 69, 80
2, 24707, Note_on_c, 0, 69, 0
2, 24707, Note_on_c, 0, 64, 80
2, 24768, Note_on_c, 0, 66, 80
2, 24774, Note_on_c, 0, 64, 0
2, 24831, Note_on_c, 0, 67, 80
2, 24834, Note_on_c, 0, 66, 0
2, 24879, Note_on_c, 0, 60, 0
2, 24890, Note_on_c, 0, 59, 80
2, 24924, Note_on_c, 0, 59, 0
2, 24949, Note_on_c, 0, 59, 80
2, 24969, Note_on_c, 0, 57, 80
2, 24970, Note_on_c, 0, 59, 0
2, 24985, Note_on_c, 0, 67, 0
2, 24986, Note_on_c, 0, 57, 0
2, 24987, Note_on_c, 0, 59, 80
2, 25002, Note_on_c, 0, 59, 0
2, 25005, Note_on_c, 0, 57, 80
2, 25011, Note_on_c, 0, 67, 80
2, 25019, Note_on_c, 0, 57, 0
2, 25019, Note_on_c, 0, 59, 80
2, 25033, Note_on_c, 0, 57, 80
2, 25034, Note_on_c, 0, 59, 0
2, 25049, Note_on_c, 0, 57, 0
2, 25051, Note_on_c, 0, 59, 80
2, 25062, Note_on_c, 0, 57, 80
2, 25064, Note_on_c, 0, 59, 0
2, 25067, Note_on_c, 0, 67, 0
2, 25067, Note_on_c, 0, 66, 80
2, 25075, Note_on_c, 0, 57, 0
2, 25076, Note_on_c, 0, 59, 80
2, 25085, Note_on_c, 0, 57, 80
2, 25090, Note_on_c, 0, 57, 0
2, 25100, Note_on_c, 0, 57, 80
2, 25104, Note_on_c, 0, 59, 0
2, 25124, Note_on_c, 0, 66, 0
2, 25125, Note_on_c, 0, 64, 80
2, 25126, Note_on_c, 0, 55, 80
2, 25128, Note_on_c, 0, 57, 0
2, 25157, Note_on_c, 0, 57, 80
2, 25162, Note_on_c, 0, 55, 0
2, 25191, Note_on_c, 0, 64, 0
2, 25191, Note_on_c, 0, 59, 80
2, 25191, Note_on_c, 0, 63, 80
2, 25193, Note_on_c, 0, 57, 0
2, 25248, Note_on_c, 0, 64, 80
2, 25250, Note_on_c, 0, 63, 0
2, 25308, Note_on_c, 0, 66, 80
2, 25313, Note_on_c, 0, 64, 0
2, 25367, Note_on_c, 0, 61, 80
2, 25370, Note_on_c, 0, 59, 0
2, 25425, Note_on_c, 0, 61, 0
2, 25426, Note_on_c, 0, 63, 80
2, 25483, Note_on_c, 0, 67, 80
2, 25486, Note_on_c, 0, 66, 0
2, 25543, Note_on_c, 0, 69, 80
2, 25547, Note_on_c, 0, 67, 0
2, 25604, Note_on_c, 0, 63, 0
2, 25605, Note_on_c, 0, 64, 80
2, 25666, Note_on_c, 0, 66, 80
2, 25671, Note_on_c, 0, 64, 0
2, 25721, Note_on_c, 0, 71, 80
2, 25724, Note_on_c, 0, 69, 0
2, 25785, Note_on_c, 0, 71, 0
2, 25785, Note_on_c, 0, 67, 80
2, 25791, Note_on_c, 0, 66, 0
2, 25843, Note_on_c, 0, 64, 80
2, 25902, Note_on_c, 0, 67, 0
2, 25902, Note_on_c, 0, 66, 80
2, 25963, Note_on_c, 0, 62, 80
2, 25964, Note_on_c, 0, 64, 0
2, 26025, Note_on_c, 0, 64, 80
2, 26030, Note_on_c, 0, 66, 0
2, 26041, Note_on_c, 0, 62, 0
2, 26083, Note_on_c, 0, 62, 80
2, 26145, Note_on_c, 0, 61, 80
2, 26149, Note_on_c, 0, 62, 0
2, 26205, Note_on_c, 0, 61, 0
2, 26206, Note_on_c, 0, 59, 80
2, 26266, Note_on_c, 0, 59, 0
2, 26268, Note_on_c, 0, 58, 80
2, 26326, Note_on_c, 0, 58, 0
2, 26327, Note_on_c, 0, 54, 80
2, 26362, Note_on_c, 0, 64, 0
2, 26388, Note_on_c, 0, 62, 80
2, 26391, Note_on_c, 0, 54, 0
2, 26445, Note_on_c, 0, 61, 80
2, 26508, Note_on_c, 0, 61, 0
2, 26508, Note_on_c, 0, 59, 80
2, 26567, Note_on_c, 0, 57, 80
2, 26570, Note_on_c, 0, 59, 0
2, 26610, Note_on_c, 0, 57, 0
2, 26628, Note_on_c, 0, 56, 80
2, 26685, Note_on_c, 0, 56, 0
2, 26686, Note_on_c, 0, 52, 80
2, 26711, Note_on_c, 0, 52, 0
2, 26746, Note_on_c, 0, 57, 80
2, 26757, Note_on_c, 0, 62, 0
2, 26805, Note_on_c, 0, 61, 80
2, 26860, Note_on_c, 0, 61, 0
2, 26868, Note_on_c, 0, 62, 80
2, 26923, Note_on_c, 0, 62, 0
2, 26924, Note_on_c, 0, 64, 80
2, 26960, Note_on_c, 0, 64, 0
2, 26961, Note_on_c, 0, 57, 0
2, 26987, Note_on_c, 0, 57, 80
2, 27050, Note_on_c, 0, 55, 80
2, 27100, Note_on_c, 0, 57, 0
2, 27105, Note_on_c, 0, 62, 80
2, 27106, Note_on_c, 0, 54, 80
2, 27109, Note_on_c, 0, 55, 0
2, 27166, Note_on_c, 0, 54, 0
2, 27167, Note_on_c, 0, 52, 80
2, 27223, Note_on_c, 0, 64, 80
2, 27225, Note_on_c, 0, 50, 80
2, 27226, Note_on_c, 0, 62, 0
2, 27226, Note_on_c, 0, 52, 0
2, 27282, Note_on_c, 0, 49, 80
2, 27283, Note_on_c, 0, 50, 0
2, 27313, Note_on_c, 0, 49, 0
2, 27341, Note_on_c, 0, 66, 80
2, 27341, Note_on_c, 0, 50, 80
2, 27342, Note_on_c, 0, 64, 0
2, 27401, Note_on_c, 0, 57, 80
2, 27406, Note_on_c, 0, 50, 0
2, 27439, Note_on_c, 0, 57, 0
2, 27463, Note_on_c, 0, 62, 80
2, 27524, Note_on_c, 0, 67, 80
2, 27526, Note_on_c, 0, 66, 0
2, 27584, Note_on_c, 0, 67, 0
2, 27587, Note_on_c, 0, 69, 80
2, 27650, Note_on_c, 0, 61, 80
2, 27654, Note_on_c, 0, 62, 0
2, 27677, Note_on_c, 0, 61, 0
2, 27714, Note_on_c, 0, 59, 80
2, 27774, Note_on_c, 0, 52, 80
2, 27777, Note_on_c, 0, 59, 0
2, 27832, Note_on_c, 0, 67, 80
2, 27837, Note_on_c, 0, 52, 0
2, 27838, Note_on_c, 0, 69, 0
2, 27889, Note_on_c, 0, 64, 80
2, 27946, Note_on_c, 0, 59, 80
2, 27951, Note_on_c, 0, 64, 0
2, 28003, Note_on_c, 0, 61, 80
2, 28005, Note_on_c, 0, 59, 0
2, 28065, Note_on_c, 0, 61, 0
2, 28067, Note_on_c, 0, 62, 80
2, 28128, Note_on_c, 0, 67, 0
2, 28129, Note_on_c, 0, 66, 80
2, 28165, Note_on_c, 0, 66, 0
2, 28188, Note_on_c, 0, 66, 80
2, 28197, Note_on_c, 0, 62, 0
2, 28202, Note_on_c, 0, 66, 0
2, 28204, Note_on_c, 0, 64, 80
2, 28217, Note_on_c, 0, 64, 0
2, 28218, Note_on_c, 0, 66, 80
2, 28228, Note_on_c, 0, 66, 0
2, 28230, Note_on_c, 0, 64, 80
2, 28239, Note_on_c, 0, 62, 80
2, 28242, Note_on_c, 0, 66, 80
2, 28243, Note_on_c, 0, 64, 0
2, 28253, Note_on_c, 0, 66, 0
2, 28254, Note_on_c, 0, 64, 80
2, 28264, Note_on_c, 0, 64, 0
2, 28264, Note_on_c, 0, 66, 80
2, 28275, Note_on_c, 0, 66, 0
2, 28276, Note_on_c, 0, 64, 80
2, 28283, Note_on_c, 0, 64, 0
2, 28284, Note_on_c, 0, 66, 80
2, 28291, Note_on_c, 0, 66, 0
2, 28292, Note_on_c, 0, 64, 80
2, 28296, Note_on_c, 0, 62, 0
2, 28298, Note_on_c, 0, 61, 80
2, 28299, Note_on_c, 0, 66, 80
2, 28301, Note_on_c, 0, 64, 0
2, 28308, Note_on_c, 0, 64, 80
2, 28325, Note_on_c, 0, 66, 0
2, 28356, Note_on_c, 0, 62, 80
2, 28357, Note_on_c, 0, 59, 80
2, 28358, Note_on_c, 0, 61, 0
2, 28358, Note_on_c, 0, 64, 0
2, 28384, Note_on_c, 0, 64, 80
2, 28386, Note_on_c, 0, 62, 0
2, 28420, Note_on_c, 0, 58, 80
2, 28420, Note_on_c, 0, 66, 80
2, 28421, Note_on_c, 0, 64, 0
2, 28423, Note_on_c, 0, 59, 0
2, 28479, Note_on_c, 0, 59, 80
2, 28491, Note_on_c, 0, 58, 0
2, 28542, Note_on_c, 0, 61, 80
2, 28545, Note_on_c, 0, 59, 0
2, 28603, Note_on_c, 0, 64, 80
2, 28604, Note_on_c, 0, 66, 0
2, 28663, Note_on_c, 0, 64, 0
2, 28664, Note_on_c, 0, 62, 80
2, 28725, Note_on_c, 0, 59, 80
2, 28726, Note_on_c, 0, 61, 0
2, 28755, Note_on_c, 0, 58, 80
2, 28756, Note_on_c, 0, 59, 0
2, 28759, Note_on_c, 0, 62, 0
2, 28788, Note_on_c, 0, 58, 0
2, 28789, Note_on_c, 0, 59, 80
2, 28789, Note_on_c, 0, 67, 80
2, 28850, Note_on_c, 0, 61, 80
2, 28853, Note_on_c, 0, 59, 0
2, 28909, Note_on_c, 0, 62, 80
2, 28912, Note_on_c, 0, 61, 0
2, 28970, Note_on_c, 0, 66, 80
2, 28976, Note_on_c, 0, 67, 0
2, 29027, Note_on_c, 0, 66, 0
2, 29031, Note_on_c, 0, 64, 80
2, 29089, Note_on_c, 0, 61, 80
2, 29090, Note_on_c, 0, 62, 0
2, 29132, Note_on_c, 0, 64, 0
2, 29149, Note_on_c, 0, 66, 80
2, 29150, Note_on_c, 0, 61, 0
2, 29150, Note_on_c, 0, 62, 80
2, 29178, Note_on_c, 0, 66, 0
2, 29216, Note_on_c, 0, 60, 80
2, 29216, Note_on_c, 0, 76, 80
2, 29219, Note_on_c, 0, 62, 0
2, 29265, Note_on_c, 0, 76, 0
2, 29273, Note_on_c, 0, 74, 80
2, 29275, Note_on_c, 0, 59, 80
2, 29282, Note_on_c, 0, 60, 0
2, 29328, Note_on_c, 0, 74, 0
2, 29329, Note_on_c, 0, 59, 0
2, 29329, Note_on_c, 0, 57, 80
2, 29330, Note_on_c, 0, 72, 80
2, 29387, Note_on_c, 0, 57, 0
2, 29387, Note_on_c, 0, 72, 0
2, 29388, Note_on_c, 0, 55, 80
2, 29388, Note_on_c, 0, 71, 80
2, 29447, Note_on_c, 0, 54, 80
2, 29447, Note_on_c, 0, 69, 80
2, 29448, Note_on_c, 0, 55, 0
2, 29448, Note_on_c, 0, 71, 0
2, 29499, Note_on_c, 0, 69, 0
2, 29505, Note_on_c, 0, 55, 80
2, 29505, Note_on_c, 0, 67, 80
2, 29511, Note_on_c, 0, 54, 0
2, 29551, Note_on_c, 0, 55, 0
2, 29567, Note_on_c, 0, 69, 80
2, 29568, Note_on_c, 0, 62, 80
2, 29569, Note_on_c, 0, 67, 0
2, 29604, Note_on_c, 0, 62, 0
2, 29629, Note_on_c, 0, 69, 0
2, 29631, Note_on_c, 0, 71, 80
2, 29632, Note_on_c, 0, 67, 80
2, 29751, Note_on_c, 0, 71, 0
2, 29754, Note_on_c, 0, 69, 80
2, 29812, Note_on_c, 0, 66, 80
2, 29814, Note_on_c, 0, 67, 0
2, 29855, Note_on_c, 0, 69, 0
2, 29872, Note_on_c, 0, 66, 0
2, 29877, Note_on_c, 0, 67, 80
2, 29932, Note_on_c, 0, 67, 0
2, 29933, Note_on_c, 0, 66, 80
2, 29993, Note_on_c, 0, 66, 0
2, 29993, Note_on_c, 0, 67, 80
2, 29993, Note_on_c, 0, 52, 80
2, 30051, Note_on_c, 0, 54, 80
2, 30051, Note_on_c, 0, 69, 80
2, 30052, Note_on_c, 0, 67, 0
2, 30054, Note_on_c, 0, 52, 0
2, 30107, Note_on_c, 0, 54, 0
2, 30108, Note_on_c, 0, 69, 0
2, 30108, Note_on_c, 0, 55, 80
2, 30109, Note_on_c, 0, 64, 80
2, 30165, Note_on_c, 0, 66, 80
2, 30166, Note_on_c, 0, 55, 0
2, 30166, Note_on_c, 0, 57, 80
2, 30167, Note_on_c, 0, 64, 0
2, 30225, Note_on_c, 0, 67, 80
2, 30226, Note_on_c, 0, 50, 80
2, 30227, Note_on_c, 0, 66, 0
2, 30228, Note_on_c, 0, 57, 0
2, 30282, Note_on_c, 0, 50, 0
2, 30283, Note_on_c, 0, 55, 80
2, 30330, Note_on_c, 0, 55, 0
2, 30344, Note_on_c, 0, 60, 80
2, 30351, Note_on_c, 0, 67, 0
2, 30404, Note_on_c, 0, 59, 80
2, 30405, Note_on_c, 0, 67, 80
2, 30407, Note_on_c, 0, 60, 0
2, 30469, Note_on_c, 0, 57, 80
2, 30470, Note_on_c, 0, 66, 80
2, 30471, Note_on_c, 0, 67, 0
2, 30474, Note_on_c, 0, 59, 0
2, 30524, Note_on_c, 0, 66, 0
2, 30527, Note_on_c, 0, 64, 80
2, 30528, Note_on_c, 0, 55, 80
2, 30543, Note_on_c, 0, 57, 0
2, 30564, Note_on_c, 0, 55, 0
2, 30579, Note_on_c, 0, 64, 0
2, 30590, Note_on_c, 0, 62, 80
2, 30590, Note_on_c, 0, 54, 80
2, 30649, Note_on_c, 0, 60, 80
2, 30651, Note_on_c, 0, 62, 0
2, 30661, Note_on_c, 0, 54, 0
2, 30707, Note_on_c, 0, 59, 80
2, 30708, Note_on_c, 0, 60, 0
2, 30709, Note_on_c, 0, 55, 80
2, 30748, Note_on_c, 0, 59, 0
2, 30775, Note_on_c, 0, 64, 80
2, 30888, Note_on_c, 0, 54, 80
2, 30893, Note_on_c, 0, 62, 80
2, 30898, Note_on_c, 0, 64, 0
2, 30904, Note_on_c, 0, 55, 0
2, 30928, Note_on_c, 0, 54, 0
2, 30954, Note_on_c, 0, 55, 80
2, 31093, Note_on_c, 0, 55, 0
2, 31128, Note_on_c, 0, 57, 80
2, 31187, Note_on_c, 0, 59, 80
2, 31188, Note_on_c, 0, 57, 0
2, 31237, Note_on_c, 0, 62, 0
2, 31242, Note_on_c, 0, 57, 80
2, 31245, Note_on_c, 0, 59, 0
2, 31305, Note_on_c, 0, 57, 0
2, 31306, Note_on_c, 0, 56, 80
2, 31306, Note_on_c, 0, 64, 80
2, 31423, Note_on_c, 0, 57, 80
2, 31424, Note_on_c, 0, 56, 0
2, 31536, Note_on_c, 0, 55, 80
2, 31549, Note_on_c, 0, 57, 0
2, 31599, Note_on_c, 0, 55, 0
2, 31604, Note_on_c, 0, 57, 80
2, 31626, Note_on_c, 0, 64, 0
2, 31664, Note_on_c, 0, 57, 0
2, 31664, Note_on_c, 0, 62, 80
2, 31665, Note_on_c, 0, 59, 80
2, 31738, Note_on_c, 0, 62, 0
2, 31777, Note_on_c, 0, 59, 0
2, 31779, Note_on_c, 0, 64, 80
2, 31780, Note_on_c, 0, 60, 80
2, 31902, Note_on_c, 0, 64, 0
2, 31905, Note_on_c, 0, 63, 80
2, 31957, Note_on_c, 0, 63, 0
2, 31961, Note_on_c, 0, 64, 80
2, 31986, Note_on_c, 0, 64, 0
2, 31991, Note_on_c, 0, 60, 0
2, 32020, Note_on_c, 0, 66, 80
2, 32021, Note_on_c, 0, 59, 80
2, 32083, Note_on_c, 0, 57, 80
2, 32088, Note_on_c, 0, 59, 0
2, 32110, Note_on_c, 0, 57, 0
2, 32143, Note_on_c, 0, 55, 80
2, 32162, Note_on_c, 0, 66, 0
2, 32205, Note_on_c, 0, 64, 80
2, 32259, Note_on_c, 0, 57, 80
2, 32262, Note_on_c, 0, 55, 0
2, 32320, Note_on_c, 0, 63, 80
2, 32321, Note_on_c, 0, 64, 0
2, 32340, Note_on_c, 0, 57, 0
2, 32345, Note_on_c, 0, 63, 0
2, 32380, Note_on_c, 0, 59, 80
2, 32380, Note_on_c, 0, 64, 80
2, 32425, Note_on_c, 0, 64, 0
2, 32440, Note_on_c, 0, 67, 80
2, 32463, Note_on_c, 0, 59, 0
2, 32473, Note_on_c, 0, 67, 0
2, 32499, Note_on_c, 0, 61, 80
2, 32558, Note_on_c, 0, 57, 80
2, 32597, Note_on_c, 0, 61, 0
2, 32615, Note_on_c, 0, 57, 0
2, 32618, Note_on_c, 0, 55, 80
2, 32619, Note_on_c, 0, 63, 80
2, 32678, Note_on_c, 0, 55, 0
2, 32679, Note_on_c, 0, 54, 80
2, 32709, Note_on_c, 0, 63, 0
2, 32717, Note_on_c, 0, 54, 0
2, 32745, Note_on_c, 0, 64, 80
2, 32746, Note_on_c, 0, 55, 80
2, 32810, Note_on_c, 0, 55, 0
2, 32810, Note_on_c, 0, 54, 80
2, 32868, Note_on_c, 0, 54, 0
2, 32868, Note_on_c, 0, 52, 80
2, 32874, Note_on_c, 0, 64, 0
2, 32923, Note_on_c, 0, 52, 0
2, 32928, Note_on_c, 0, 54, 80
2, 32988, Note_on_c, 0, 54, 0
2, 32990, Note_on_c, 0, 55, 80
2, 33051, Note_on_c, 0, 55, 0
2, 33051, Note_on_c, 0, 57, 80
2, 33093, Note_on_c, 0, 57, 0
2, 33113, Note_on_c, 0, 59, 80
2, 33172, Note_on_c, 0, 60, 80
2, 33175, Note_on_c, 0, 59, 0
2, 33226, Note_on_c, 0, 60, 0
2, 33229, Note_on_c, 0, 62, 80
2, 33289, Note_on_c, 0, 74, 80
2, 33351, Note_on_c, 0, 64, 80
2, 33352, Note_on_c, 0, 62, 0
2, 33411, Note_on_c, 0, 73, 80
2, 33415, Note_on_c, 0, 74, 0
2, 33456, Note_on_c, 0, 64, 0
2, 33478, Note_on_c, 0, 62, 80
2, 33534, Note_on_c, 0, 73, 0
2, 33536, Note_on_c, 0, 72, 80
2, 33591, Note_on_c, 0, 71, 80
2, 33593, Note_on_c, 0, 72, 0
2, 33651, Note_on_c, 0, 69, 80
2, 33653, Note_on_c, 0, 71, 0
2, 33655, Note_on_c, 0, 62, 0
2, 33712, Note_on_c, 0, 57, 80
2, 33712, Note_on_c, 0, 67, 80
2, 33716, Note_on_c, 0, 69, 0
2, 33763, Note_on_c, 0, 67, 0
2, 33765, Note_on_c, 0, 66, 80
2, 33803, Note_on_c, 0, 57, 0
2, 33823, Note_on_c, 0, 67, 80
2, 33824, Note_on_c, 0, 59, 80
2, 33827, Note_on_c, 0, 66, 0
2, 33884, Note_on_c, 0, 67, 0
2, 33884, Note_on_c, 0, 71, 80
2, 33935, Note_on_c, 0, 71, 0
2, 33936, Note_on_c, 0, 64, 80
2, 33940, Note_on_c, 0, 59, 0
2, 33940, Note_on_c, 0, 62, 80
2, 33975, Note_on_c, 0, 62, 0
2, 33976, Note_on_c, 0, 61, 80
2, 33993, Note_on_c, 0, 61, 0
2, 33995, Note_on_c, 0, 62, 80
2, 34001, Note_on_c, 0, 64, 0
2, 34002, Note_on_c, 0, 69, 80
2, 34010, Note_on_c, 0, 62, 0
2, 34011, Note_on_c, 0, 61, 80
2, 34027, Note_on_c, 0, 61, 0
2, 34031, Note_on_c, 0, 62, 80
2, 34043, Note_on_c, 0, 61, 80
2, 34044, Note_on_c, 0, 62, 0
2, 34056, Note_on_c, 0, 61, 0
2, 34059, Note_on_c, 0, 62, 80
2, 34068, Note_on_c, 0, 67, 80
2, 34069, Note_on_c, 0, 69, 0
2, 34069, Note_on_c, 0, 61, 80
2, 34088, Note_on_c, 0, 62, 0
2, 34115, Note_on_c, 0, 59, 80
2, 34116, Note_on_c, 0, 67, 0
2, 34116, Note_on_c, 0, 61, 0
2, 34116, Note_on_c, 0, 69, 80
2, 34146, Note_on_c, 0, 61, 80
2, 34150, Note_on_c, 0, 59, 0
2, 34183, Note_on_c, 0, 61, 0
2, 34184, Note_on_c, 0, 69, 0
2, 34186, Note_on_c, 0, 66, 80
2, 34186, Note_on_c, 0, 62, 80
2, 34245, Note_on_c, 0, 66, 0
2, 34246, Note_on_c, 0, 67, 80
2, 34247, Note_on_c, 0, 60, 80
2, 34248, Note_on_c, 0, 62, 0
2, 34305, Note_on_c, 0, 59, 80
2, 34306, Note_on_c, 0, 67, 0
2, 34306, Note_on_c, 0, 69, 80
2, 34307, Note_on_c, 0, 60, 0
2, 34365, Note_on_c, 0, 57, 80
2, 34367, Note_on_c, 0, 59, 0
2, 34421, Note_on_c, 0, 69, 0
2, 34421, Note_on_c, 0, 71, 80
2, 34422, Note_on_c, 0, 55, 80
2, 34427, Note_on_c, 0, 57, 0
2, 34455, Note_on_c, 0, 55, 0
2, 34487, Note_on_c, 0, 67, 80
2, 34553, Note_on_c, 0, 71, 0
2, 34554, Note_on_c, 0, 69, 80
2, 34613, Note_on_c, 0, 66, 80
2, 34615, Note_on_c, 0, 67, 0
2, 34669, Note_on_c, 0, 64, 80
2, 34670, Note_on_c, 0, 66, 0
2, 34730, Note_on_c, 0, 64, 0
2, 34730, Note_on_c, 0, 62, 80
2, 34732, Note_on_c, 0, 69, 0
2, 34782, Note_on_c, 0, 62, 0
2, 34789, Note_on_c, 0, 62, 80
2, 34789, Note_on_c, 0, 60, 80
2, 34849, Note_on_c, 0, 60, 0
2, 34851, Note_on_c, 0, 59, 80
2, 34886, Note_on_c, 0, 62, 0
2, 34906, Note_on_c, 0, 64, 80
2, 34907, Note_on_c, 0, 59, 0
2, 34907, Note_on_c, 0, 60, 80
2, 34958, Note_on_c, 0, 64, 0
2, 34965, Note_on_c, 0, 64, 80
2, 34966, Note_on_c, 0, 60, 0
2, 34989, Note_on_c, 0, 66, 80
2, 34996, Note_on_c, 0, 64, 0
2, 35005, Note_on_c, 0, 66, 0
2, 35017, Note_on_c, 0, 67, 80
2, 35019, Note_on_c, 0, 57, 80
2, 35034, Note_on_c, 0, 67, 0
2, 35035, Note_on_c, 0, 66, 80
2, 35047, Note_on_c, 0, 66, 0
2, 35053, Note_on_c, 0, 67, 80
2, 35064, Note_on_c, 0, 67, 0
2, 35068, Note_on_c, 0, 66, 80
2, 35071, Note_on_c, 0, 62, 80
2, 35074, Note_on_c, 0, 57, 0
2, 35076, Note_on_c, 0, 66, 0
2, 35079, Note_on_c, 0, 67, 80
2, 35090, Note_on_c, 0, 67, 0
2, 35093, Note_on_c, 0, 66, 80
2, 35100, Note_on_c, 0, 66, 0
2, 35103, Note_on_c, 0, 67, 80
2, 35112, Note_on_c, 0, 67, 0
2, 35115, Note_on_c, 0, 66, 80
2, 35121, Note_on_c, 0, 66, 0
2, 35122, Note_on_c, 0, 67, 80
2, 35129, Note_on_c, 0, 62, 0
2, 35130, Note_on_c, 0, 60, 80
2, 35132, Note_on_c, 0, 67, 0
2, 35134, Note_on_c, 0, 66, 80
2, 35137, Note_on_c, 0, 66, 0
2, 35138, Note_on_c, 0, 67, 80
2, 35150, Note_on_c, 0, 66, 80
2, 35153, Note_on_c, 0, 67, 0
2, 35185, Note_on_c, 0, 66, 0
2, 35185, Note_on_c, 0, 64, 80
2, 35188, Note_on_c, 0, 62, 80
2, 35189, Note_on_c, 0, 60, 0
2, 35213, Note_on_c, 0, 66, 80
2, 35216, Note_on_c, 0, 64, 0
2, 35233, Note_on_c, 0, 62, 0
2, 35241, Note_on_c, 0, 66, 0
2, 35251, Note_on_c, 0, 59, 80
2, 35252, Note_on_c, 0, 67, 80
2, 35304, Note_on_c, 0, 59, 0
2, 35320, Note_on_c, 0, 64, 80
2, 35379, Note_on_c, 0, 64, 0
2, 35379, Note_on_c, 0, 62, 80
2, 35441, Note_on_c, 0, 64, 80
2, 35442, Note_on_c, 0, 62, 0
2, 35505, Note_on_c, 0, 61, 80
2, 35509, Note_on_c, 0, 64, 0
2, 35562, Note_on_c, 0, 69, 80
2, 35564, Note_on_c, 0, 67, 0
2, 35591, Note_on_c, 0, 67, 80
2, 35594, Note_on_c, 0, 69, 0
2, 35618, Note_on_c, 0, 61, 0
2, 35621, Note_on_c, 0, 67, 0
2, 35621, Note_on_c, 0, 62, 80
2, 35622, Note_on_c, 0, 66, 80
2, 35663, Note_on_c, 0, 62, 0
2, 35679, Note_on_c, 0, 66, 0
2, 35680, Note_on_c, 0, 67, 80
2, 35680, Note_on_c, 0, 50, 80
2, 35706, Note_on_c, 0, 69, 80
2, 35710, Note_on_c, 0, 67, 0
2, 35716, Note_on_c, 0, 69, 0
2, 35736, Note_on_c, 0, 52, 80
2, 35737, Note_on_c, 0, 62, 80
2, 35738, Note_on_c, 0, 50, 0
2, 35767, Note_on_c, 0, 62, 0
2, 35767, Note_on_c, 0, 61, 80
2, 35784, Note_on_c, 0, 61, 0
2, 35786, Note_on_c, 0, 62, 80
2, 35789, Note_on_c, 0, 57, 80
2, 35790, Note_on_c, 0, 52, 0
2, 35799, Note_on_c, 0, 62, 0
2, 35801, Note_on_c, 0, 61, 80
2, 35810, Note_on_c, 0, 61, 0
2, 35811, Note_on_c, 0, 62, 80
2, 35823, Note_on_c, 0, 62, 0
2, 35826, Note_on_c, 0, 61, 80
2, 35832, Note_on_c, 0, 62, 80
2, 35833, Note_on_c, 0, 61, 0
2, 35841, Note_on_c, 0, 62, 0
2, 35842, Note_on_c, 0, 61, 80
2, 35847, Note_on_c, 0, 57, 0
2, 35849, Note_on_c, 0, 55, 80
2, 35850, Note_on_c, 0, 61, 0
2, 35850, Note_on_c, 0, 62, 80
2, 35859, Note_on_c, 0, 62, 0
2, 35859, Note_on_c, 0, 61, 80
2, 35864, Note_on_c, 0, 62, 80
2, 35865, Note_on_c, 0, 61, 0
2, 35875, Note_on_c, 0, 61, 80
2, 35879, Note_on_c, 0, 61, 0
2, 35889, Note_on_c, 0, 61, 80
2, 35892, Note_on_c, 0, 62, 0
2, 35910, Note_on_c, 0, 55, 0
2, 35910, Note_on_c, 0, 57, 80
2, 35912, Note_on_c, 0, 61, 0
2, 35914, Note_on_c, 0, 59, 80
2, 35937, Note_on_c, 0, 61, 80
2, 35939, Note_on_c, 0, 59, 0
2, 35948, Note_on_c, 0, 57, 0
2, 35972, Note_on_c, 0, 54, 80
2, 35973, Note_on_c, 0, 61, 0
2, 35973, Note_on_c, 0, 62, 80
2, 36040, Note_on_c, 0, 64, 80
2, 36042, Note_on_c, 0, 62, 0
2, 36097, Note_on_c, 0, 64, 0
2, 36098, Note_on_c, 0, 66, 80
2, 36102, Note_on_c, 0, 54, 0
2, 36166, Note_on_c, 0, 62, 80
2, 36224, Note_on_c, 0, 66, 0
2, 36225, Note_on_c, 0, 67, 80
2, 36260, Note_on_c, 0, 62, 0
2, 36285, Note_on_c, 0, 61, 80
2, 36312, Note_on_c, 0, 69, 80
2, 36313, Note_on_c, 0, 67, 0
2, 36324, Note_on_c, 0, 61, 0
2, 36347, Note_on_c, 0, 69, 0
2, 36348, Note_on_c, 0, 66, 80
2, 36349, Note_on_c, 0, 62, 80
2, 36404, Note_on_c, 0, 62, 0
2, 36409, Note_on_c, 0, 61, 80
2, 36448, Note_on_c, 0, 61, 0
2, 36466, Note_on_c, 0, 59, 80
2, 36492, Note_on_c, 0, 67, 80
2, 36494, Note_on_c, 0, 66, 0
2, 36523, Note_on_c, 0, 67, 0
2, 36524, Note_on_c, 0, 69, 80
2, 36525, Note_on_c, 0, 59, 0
2, 36525, Note_on_c, 0, 57, 80
2, 36552, Note_on_c, 0, 69, 0
2, 36553, Note_on_c, 0, 71, 80
2, 36572, Note_on_c, 0, 57, 0
2, 36574, Note_on_c, 0, 71, 0
2, 36583, Note_on_c, 0, 55, 80
2, 36585, Note_on_c, 0, 61, 80
2, 36615, Note_on_c, 0, 61, 0
2, 36648, Note_on_c, 0, 69, 80
2, 36648, Note_on_c, 0, 54, 80
2, 36654, Note_on_c, 0, 55, 0
2, 36669, Note_on_c, 0, 69, 0
2, 36708, Note_on_c, 0, 55, 80
2, 36709, Note_on_c, 0, 54, 0
2, 36709, Note_on_c, 0, 62, 80
2, 36768, Note_on_c, 0, 62, 0
2, 36771, Note_on_c, 0, 67, 80
2, 36772, Note_on_c, 0, 55, 0
2, 36772, Note_on_c, 0, 59, 80
2, 36832, Note_on_c, 0, 52, 80
2, 36836, Note_on_c, 0, 59, 0
2, 36890, Note_on_c, 0, 67, 0
2, 36891, Note_on_c, 0, 66, 80
2, 36892, Note_on_c, 0, 57, 80
2, 36894, Note_on_c, 0, 52, 0
2, 36949, Note_on_c, 0, 66, 0
2, 36950, Note_on_c, 0, 55, 80
2, 36951, Note_on_c, 0, 57, 0
2, 36951, Note_on_c, 0, 64, 80
2, 37008, Note_on_c, 0, 64, 0
2, 37008, Note_on_c, 0, 66, 80
2, 37035, Note_on_c, 0, 67, 80
2, 37036, Note_on_c, 0, 66, 0
2, 37064, Note_on_c, 0, 55, 0
2, 37065, Note_on_c, 0, 50, 80
2, 37067, Note_on_c, 0, 66, 80
2, 37071, Note_on_c, 0, 67, 0
2, 37122, Note_on_c, 0, 50, 0
2, 37125, Note_on_c, 0, 57, 80
2, 37187, Note_on_c, 0, 62, 80
2, 37188, Note_on_c, 0, 57, 0
2, 37243, Note_on_c, 0, 66, 0
2, 37245, Note_on_c, 0, 67, 80
2, 37304, Note_on_c, 0, 69, 80
2, 37308, Note_on_c, 0, 67, 0
2, 37359, Note_on_c, 0, 69, 0
2, 37359, Note_on_c, 0, 71, 80
2, 37387, Note_on_c, 0, 72, 80
2, 37388, Note_on_c, 0, 71, 0
2, 37411, Note_on_c, 0, 72, 0
2, 37432, Note_on_c, 0, 71, 80
2, 37489, Note_on_c, 0, 69, 80
2, 37490, Note_on_c, 0, 71, 0
2, 37548, Note_on_c, 0, 69, 0
2, 37549, Note_on_c, 0, 67, 80
2, 37730, Note_on_c, 0, 62, 0
2, 37731, Note_on_c, 0, 60, 80
2, 37757, Note_on_c, 0, 60, 0
2, 37793, Note_on_c, 0, 62, 80
2, 37795, Note_on_c, 0, 66, 80
2, 37796, Note_on_c, 0, 67, 0
2, 37910, Note_on_c, 0, 66, 0
2, 37911, Note_on_c, 0, 67, 80
2, 38028, Note_on_c, 0, 67, 0
2, 38032, Note_on_c, 0, 69, 80
2, 38231, Note_on_c, 0, 69, 0
2, 38265, Note_on_c, 0, 62, 0
2, 38265, Note_on_c, 0, 64, 80
2, 38265, Note_on_c, 0, 67, 80
2, 38326, Note_on_c, 0, 66, 80
2, 38329, Note_on_c, 0, 64, 0
2, 38330, Note_on_c, 0, 67, 0
2, 38358, Note_on_c, 0, 66, 0
2, 38387, Note_on_c, 0, 57, 80
2, 38388, Note_on_c, 0, 64, 80
2, 38444, Note_on_c, 0, 67, 80
2, 38445, Note_on_c, 0, 64, 0
2, 38507, Note_on_c, 0, 57, 0
2, 38508, Note_on_c, 0, 59, 80
2, 38514, Note_on_c, 0, 67, 0
2, 38567, Note_on_c, 0, 67, 80
2, 38613, Note_on_c, 0, 67, 0
2, 38622, Note_on_c, 0, 59, 0
2, 38630, Note_on_c, 0, 57, 80
2, 38631, Note_on_c, 0, 66, 80
2, 38656, Note_on_c, 0, 57, 0
2, 38673, Note_on_c, 0, 66, 0
2, 38685, Note_on_c, 0, 55, 80
2, 38686, Note_on_c, 0, 64, 80
2, 38732, Note_on_c, 0, 64, 0
2, 38739, Note_on_c, 0, 55, 0
2, 38747, Note_on_c, 0, 66, 80
2, 38748, Note_on_c, 0, 57, 80
2, 38824, Note_on_c, 0, 66, 0
2, 38864, Note_on_c, 0, 57, 0
2, 38867, Note_on_c, 0, 59, 80
2, 38867, Note_on_c, 0, 67, 80
2, 38999, Note_on_c, 0, 67, 0
2, 39048, Note_on_c, 0, 59, 0
2, 39050, Note_on_c, 0, 61, 80
2, 39052, Note_on_c, 0, 69, 80
2, 39108, Note_on_c, 0, 61, 0
2, 39108, Note_on_c, 0, 69, 0
2, 39109, Note_on_c, 0, 71, 80
2, 39110, Note_on_c, 0, 62, 80
2, 39166, Note_on_c, 0, 71, 0
2, 39168, Note_on_c, 0, 73, 80
2, 39169, Note_on_c, 0, 62, 0
2, 39170, Note_on_c, 0, 64, 80
2, 39226, Note_on_c, 0, 73, 0
2, 39230, Note_on_c, 0, 64, 0
2, 39230, Note_on_c, 0, 66, 80
2, 39230, Note_on_c, 0, 74, 80
2, 39400, Note_on_c, 0, 74, 0
2, 39402, Note_on_c, 0, 66, 0
2, 39402, Note_on_c, 0, 76, 80
2, 39404, Note_on_c, 0, 67, 80
2, 39453, Note_on_c, 0, 76, 0
2, 39462, Note_on_c, 0, 74, 80
2, 39463, Note_on_c, 0, 67, 0
2, 39463, Note_on_c, 0, 64, 80
2, 39476, Note_on_c, 0, 74, 0
2, 39478, Note_on_c, 0, 73, 80
2, 39489, Note_on_c, 0, 73, 0
2, 39491, Note_on_c, 0, 74, 80
2, 39500, Note_on_c, 0, 73, 80
2, 39501, Note_on_c, 0, 74, 0
2, 39507, Note_on_c, 0, 73, 0
2, 39507, Note_on_c, 0, 74, 80
2, 39514, Note_on_c, 0, 74, 0
2, 39516, Note_on_c, 0, 73, 80
2, 39520, Note_on_c, 0, 74, 80
2, 39523, Note_on_c, 0, 73, 0
2, 39529, Note_on_c, 0, 74, 0
2, 39531, Note_on_c, 0, 73, 80
2, 39549, Note_on_c, 0, 64, 0
2, 39584, Note_on_c, 0, 73, 0
2, 39586, Note_on_c, 0, 62, 80
2, 39587, Note_on_c, 0, 74, 80
2, 39693, Note_on_c, 0, 62, 0
2, 39706, Note_on_c, 0, 64, 80
2, 39712, Note_on_c, 0, 74, 0
2, 39765, Note_on_c, 0, 72, 80
2, 39820, Note_on_c, 0, 62, 80
2, 39821, Note_on_c, 0, 64, 0
2, 39881, Note_on_c, 0, 72, 0
2, 39884, Note_on_c, 0, 71, 80
2, 39918, Note_on_c, 0, 62, 0
2, 39950, Note_on_c, 0, 57, 80
2, 39952, Note_on_c, 0, 71, 0
2, 39952, Note_on_c, 0, 72, 80
2, 40013, Note_on_c, 0, 71, 80
2, 40016, Note_on_c, 0, 72, 0
2, 40070, Note_on_c, 0, 71, 0
2, 40071, Note_on_c, 0, 69, 80
2, 40129, Note_on_c, 0, 67, 80
2, 40130, Note_on_c, 0, 69, 0
2, 40130, Note_on_c, 0, 59, 80
2, 40134, Note_on_c, 0, 57, 0
2, 40189, Note_on_c, 0, 66, 80
2, 40190, Note_on_c, 0, 60, 80
2, 40191, Note_on_c, 0, 67, 0
2, 40192, Note_on_c, 0, 59, 0
2, 40249, Note_on_c, 0, 66, 0
2, 40250, Note_on_c, 0, 64, 80
2, 40310, Note_on_c, 0, 59, 80
2, 40311, Note_on_c, 0, 62, 80
2, 40312, Note_on_c, 0, 60, 0
2, 40312, Note_on_c, 0, 64, 0
2, 40337, Note_on_c, 0, 62, 0
2, 40373, Note_on_c, 0, 67, 73
2, 40377, Note_on_c, 0, 59, 0
2, 40430, Note_on_c, 0, 59, 80
2, 40447, Note_on_c, 0, 59, 0
2, 40447, Note_on_c, 0, 57, 80
2, 40461, Note_on_c, 0, 57, 0
2, 40463, Note_on_c, 0, 59, 80
2, 40474, Note_on_c, 0, 57, 80
2, 40475, Note_on_c, 0, 59, 0
2, 40485, Note_on_c, 0, 57, 0
2, 40487, Note_on_c, 0, 67, 0
2, 40487, Note_on_c, 0, 66, 86
2, 40489, Note_on_c, 0, 59, 80
2, 40497, Note_on_c, 0, 57, 80
2, 40498, Note_on_c, 0, 59, 0
2, 40506, Note_on_c, 0, 57, 0
2, 40508, Note_on_c, 0, 59, 80
2, 40513, Note_on_c, 0, 64, 68
2, 40514, Note_on_c, 0, 66, 0
2, 40517, Note_on_c, 0, 57, 80
2, 40518, Note_on_c, 0, 59, 0
2, 40535, Note_on_c, 0, 59, 80
2, 40536, Note_on_c, 0, 57, 0
2, 40543, Note_on_c, 0, 67, 68
2, 40545, Note_on_c, 0, 57, 80
2, 40546, Note_on_c, 0, 64, 0
2, 40546, Note_on_c, 0, 59, 0
2, 40554, Note_on_c, 0, 59, 80
2, 40555, Note_on_c, 0, 57, 0
2, 40556, Note_on_c, 0, 67, 0
2, 40558, Note_on_c, 0, 66, 71
2, 40561, Note_on_c, 0, 57, 80
2, 40564, Note_on_c, 0, 59, 0
2, 40570, Note_on_c, 0, 66, 0
2, 40570, Note_on_c, 0, 67, 56
2, 40581, Note_on_c, 0, 67, 0
2, 40582, Note_on_c, 0, 66, 68
2, 40587, Note_on_c, 0, 67, 78
2, 40588, Note_on_c, 0, 66, 0
2, 40596, Note_on_c, 0, 66, 86
2, 40598, Note_on_c, 0, 67, 0
2, 40599, Note_on_c, 0, 57, 0
2, 40599, Note_on_c, 0, 55, 80
2, 40628, Note_on_c, 0, 57, 80
2, 40632, Note_on_c, 0, 55, 0
2, 40655, Note_on_c, 0, 66, 0
2, 40665, Note_on_c, 0, 55, 80
2, 40667, Note_on_c, 0, 67, 80
2, 40668, Note_on_c, 0, 57, 0
2, 40726, Note_on_c, 0, 55, 0
2, 40726, Note_on_c, 0, 59, 80
2, 40777, Note_on_c, 0, 67, 0
2, 40779, Note_on_c, 0, 62, 80
2, 40780, Note_on_c, 0, 59, 0
2, 40780, Note_on_c, 0, 71, 80
2, 40801, Note_on_c, 0, 62, 0
2, 40847, Note_on_c, 0, 67, 80
2, 40904, Note_on_c, 0, 71, 0
2, 40911, Note_on_c, 0, 69, 80
2, 40968, Note_on_c, 0, 67, 0
2, 40972, Note_on_c, 0, 66, 80
2, 41002, Note_on_c, 0, 69, 0
2, 41025, Note_on_c, 0, 66, 0
2, 41028, Note_on_c, 0, 67, 80
2, 41029, Note_on_c, 0, 64, 80
2, 41086, Note_on_c, 0, 66, 80
2, 41092, Note_on_c, 0, 64, 0
2, 41111, Note_on_c, 0, 67, 0
2, 41145, Note_on_c, 0, 64, 80
2, 41149, Note_on_c, 0, 66, 0
2, 41203, Note_on_c, 0, 62, 80
2, 41220, Note_on_c, 0, 64, 0
2, 41265, Note_on_c, 0, 67, 80
2, 41266, Note_on_c, 0, 61, 80
2, 41272, Note_on_c, 0, 62, 0
2, 41326, Note_on_c, 0, 59, 80
2, 41328, Note_on_c, 0, 61, 0
2, 41384, Note_on_c, 0, 66, 80
2, 41386, Note_on_c, 0, 57, 80
2, 41388, Note_on_c, 0, 67, 0
2, 41390, Note_on_c, 0, 59, 0
2, 41445, Note_on_c, 0, 57, 0
2, 41445, Note_on_c, 0, 62, 80
2, 41480, Note_on_c, 0, 66, 0
2, 41508, Note_on_c, 0, 66, 80
2, 41524, Note_on_c, 0, 66, 0
2, 41526, Note_on_c, 0, 64, 80
2, 41540, Note_on_c, 0, 64, 0
2, 41540, Note_on_c, 0, 66, 80
2, 41550, Note_on_c, 0, 66, 0
2, 41552, Note_on_c, 0, 64, 80
2, 41558, Note_on_c, 0, 60, 80
2, 41560, Note_on_c, 0, 62, 0
2, 41561, Note_on_c, 0, 64, 0
2, 41562, Note_on_c, 0, 66, 80
2, 41571, Note_on_c, 0, 66, 0
2, 41572, Note_on_c, 0, 64, 80
2, 41580, Note_on_c, 0, 66, 80
2, 41581, Note_on_c, 0, 64, 0
2, 41587, Note_on_c, 0, 66, 0
2, 41588, Note_on_c, 0, 64, 80
2, 41593, Note_on_c, 0, 59, 80
2, 41595, Note_on_c, 0, 60, 0
2, 41595, Note_on_c, 0, 66, 80
2, 41596, Note_on_c, 0, 64, 0
2, 41603, Note_on_c, 0, 66, 0
2, 41605, Note_on_c, 0, 64, 80
2, 41610, Note_on_c, 0, 66, 80
2, 41612, Note_on_c, 0, 64, 0
2, 41617, Note_on_c, 0, 66, 0
2, 41619, Note_on_c, 0, 64, 80
2, 41624, Note_on_c, 0, 66, 80
2, 41628, Note_on_c, 0, 59, 0
2, 41628, Note_on_c, 0, 60, 80
2, 41631, Note_on_c, 0, 66, 0
2, 41688, Note_on_c, 0, 64, 0
2, 41689, Note_on_c, 0, 62, 80
2, 41718, Note_on_c, 0, 64, 80
2, 41721, Note_on_c, 0, 62, 0
2, 41751, Note_on_c, 0, 64, 0
2, 41751, Note_on_c, 0, 62, 80
2, 41788, Note_on_c, 0, 62, 0
2, 41810, Note_on_c, 0, 74, 80
2, 41810, Note_on_c, 0, 59, 80
2, 41812, Note_on_c, 0, 60, 0
2, 41867, Note_on_c, 0, 72, 80
2, 41868, Note_on_c, 0, 74, 0
2, 41878, Note_on_c, 0, 59, 0
2, 41926, Note_on_c, 0, 72, 0
2, 41927, Note_on_c, 0, 71, 80
2, 41927, Note_on_c, 0, 62, 80
2, 41986, Note_on_c, 0, 76, 80
2, 41987, Note_on_c, 0, 71, 0
2, 41987, Note_on_c, 0, 60, 80
2, 41990, Note_on_c, 0, 62, 0
2, 42044, Note_on_c, 0, 76, 0
2, 42045, Note_on_c, 0, 68, 80
2, 42046, Note_on_c, 0, 60, 0
2, 42047, Note_on_c, 0, 59, 80
2, 42076, Note_on_c, 0, 68, 0
2, 42105, Note_on_c, 0, 59, 0
2, 42105, Note_on_c, 0, 69, 80
2, 42106, Note_on_c, 0, 60, 80
2, 42166, Note_on_c, 0, 59, 80
2, 42167, Note_on_c, 0, 71, 80
2, 42168, Note_on_c, 0, 69, 0
2, 42171, Note_on_c, 0, 60, 0
2, 42220, Note_on_c, 0, 59, 0
2, 42220, Note_on_c, 0, 57, 80
2, 42223, Note_on_c, 0, 71, 0
2, 42224, Note_on_c, 0, 72, 80
2, 42268, Note_on_c, 0, 72, 0
2, 42285, Note_on_c, 0, 74, 80
2, 42285, Note_on_c, 0, 55, 80
2, 42287, Note_on_c, 0, 57, 0
2, 42345, Note_on_c, 0, 76, 80
2, 42346, Note_on_c, 0, 74, 0
2, 42347, Note_on_c, 0, 54, 80
2, 42349, Note_on_c, 0, 55, 0
2, 42404, Note_on_c, 0, 54, 0
2, 42405, Note_on_c, 0, 52, 80
2, 42406, Note_on_c, 0, 78, 80
2, 42409, Note_on_c, 0, 76, 0
2, 42460, Note_on_c, 0, 52, 0
2, 42460, Note_on_c, 0, 78, 0
2, 42464, Note_on_c, 0, 50, 80
2, 42466, Note_on_c, 0, 79, 80
2, 42519, Note_on_c, 0, 50, 0
2, 42531, Note_on_c, 0, 79, 0
2, 42538, Note_on_c, 0, 67, 76
2, 42540, Note_on_c, 0, 74, 80
2, 42598, Note_on_c, 0, 74, 0
2, 42599, Note_on_c, 0, 76, 80
2, 42657, Note_on_c, 0, 67, 0
2, 42661, Note_on_c, 0, 66, 82
2, 42663, Note_on_c, 0, 74, 80
2, 42667, Note_on_c, 0, 76, 0
2, 42690, Note_on_c, 0, 66, 0
2, 42690, Note_on_c, 0, 64, 65
2, 42715, Note_on_c, 0, 66, 85
2, 42717, Note_on_c, 0, 74, 0
2, 42717, Note_on_c, 0, 76, 80
2, 42719, Note_on_c, 0, 64, 0
2, 42776, Note_on_c, 0, 76, 0
2, 42776, Note_on_c, 0, 72, 80
2, 42813, Note_on_c, 0, 72, 0
2, 42815, Note_on_c, 0, 66, 0
2, 42835, Note_on_c, 0, 67, 80
2, 42836, Note_on_c, 0, 71, 80
2, 42899, Note_on_c, 0, 67, 0
2, 42935, Note_on_c, 0, 71, 0
2, 42954, Note_on_c, 0, 64, 80
2, 42954, Note_on_c, 0, 67, 80
2, 43012, Note_on_c, 0, 69, 80
2, 43013, Note_on_c, 0, 67, 0
2, 43014, Note_on_c, 0, 66, 80
2, 43019, Note_on_c, 0, 64, 0
2, 43056, Note_on_c, 0, 69, 0
2, 43068, Note_on_c, 0, 66, 0
2, 43072, Note_on_c, 0, 67, 80
2, 43073, Note_on_c, 0, 71, 80
2, 43201, Note_on_c, 0, 71, 0
2, 43203, Note_on_c, 0, 67, 0
2, 43253, Note_on_c, 0, 67, 80
2, 43312, Note_on_c, 0, 66, 80
2, 43320, Note_on_c, 0, 67, 0
2, 43368, Note_on_c, 0, 66, 0
2, 43371, Note_on_c, 0, 64, 80
2, 43371, Note_on_c, 0, 69, 80
2, 43409, Note_on_c, 0, 69, 0
2, 43431, Note_on_c, 0, 64, 0
2, 43431, Note_on_c, 0, 67, 80
2, 43431, Note_on_c, 0, 62, 80
2, 43487, Note_on_c, 0, 67, 0
2, 43488, Note_on_c, 0, 62, 0
2, 43488, Note_on_c, 0, 60, 80
2, 43488, Note_on_c, 0, 66, 80
2, 43546, Note_on_c, 0, 60, 0
2, 43551, Note_on_c, 0, 66, 0
2, 43552, Note_on_c, 0, 67, 80
2, 43552, Note_on_c, 0, 62, 80
2, 43669, Note_on_c, 0, 64, 80
2, 43671, Note_on_c, 0, 62, 0
2, 43787, Note_on_c, 0, 62, 80
2, 43788, Note_on_c, 0, 66, 80
2, 43790, Note_on_c, 0, 64, 0
2, 43795, Note_on_c, 0, 67, 0
2, 43865, Note_on_c, 0, 60, 80
2, 43869, Note_on_c, 0, 62, 0
2, 43881, Note_on_c, 0, 60, 0
2, 43903, Note_on_c, 0, 66, 0
2, 43908, Note_on_c, 0, 67, 80
2, 43911, Note_on_c, 0, 59, 80
2, 43946, Note_on_c, 0, 59, 0
2, 43948, Note_on_c, 0, 67, 0
2, 43966, Note_on_c, 0, 57, 80
2, 43967, Note_on_c, 0, 65, 80
2, 43994, Note_on_c, 0, 65, 0
2, 44007, Note_on_c, 0, 57, 0
2, 44024, Note_on_c, 0, 65, 80
2, 44025, Note_on_c, 0, 60, 80
2, 44056, Note_on_c, 0, 65, 0
2, 44059, Note_on_c, 0, 64, 80
2, 44073, Note_on_c, 0, 64, 0
2, 44075, Note_on_c, 0, 65, 80
2, 44087, Note_on_c, 0, 64, 80
2, 44088, Note_on_c, 0, 65, 0
2, 44100, Note_on_c, 0, 64, 0
2, 44101, Note_on_c, 0, 65, 80
2, 44112, Note_on_c, 0, 64, 80
2, 44113, Note_on_c, 0, 65, 0
2, 44125, Note_on_c, 0, 64, 0
2, 44126, Note_on_c, 0, 65, 80
2, 44139, Note_on_c, 0, 64, 80
2, 44149, Note_on_c, 0, 64, 0
2, 44157, Note_on_c, 0, 64, 80
2, 44162, Note_on_c, 0, 65, 0
2, 44214, Note_on_c, 0, 62, 80
2, 44215, Note_on_c, 0, 64, 0
2, 44237, Note_on_c, 0, 64, 80
2, 44240, Note_on_c, 0, 62, 0
2, 44257, Note_on_c, 0, 64, 0
2, 44272, Note_on_c, 0, 62, 80
2, 44311, Note_on_c, 0, 60, 0
2, 44330, Note_on_c, 0, 59, 80
2, 44367, Note_on_c, 0, 59, 0
2, 44386, Note_on_c, 0, 52, 80
2, 44413, Note_on_c, 0, 62, 0
2, 44443, Note_on_c, 0, 55, 80
2, 44487, Note_on_c, 0, 55, 0
2, 44503, Note_on_c, 0, 60, 80
2, 44565, Note_on_c, 0, 54, 80
2, 44569, Note_on_c, 0, 52, 0
2, 44604, Note_on_c, 0, 54, 0
2, 44628, Note_on_c, 0, 60, 0
2, 44630, Note_on_c, 0, 59, 80
2, 44630, Note_on_c, 0, 55, 80
2, 44670, Note_on_c, 0, 59, 0
2, 44696, Note_on_c, 0, 62, 80
2, 44753, Note_on_c, 0, 64, 80
2, 44756, Note_on_c, 0, 62, 0
2, 44759, Note_on_c, 0, 55, 0
2, 44810, Note_on_c, 0, 66, 80
2, 44816, Note_on_c, 0, 64, 0
2, 44866, Note_on_c, 0, 66, 0
2, 44869, Note_on_c, 0, 67, 80
2, 44930, Note_on_c, 0, 55, 80
2, 44961, Note_on_c, 0, 55, 0
2, 44994, Note_on_c, 0, 57, 80
2, 45054, Note_on_c, 0, 64, 80
2, 45057, Note_on_c, 0, 67, 0
2, 45112, Note_on_c, 0, 66, 80
2, 45117, Note_on_c, 0, 64, 0
2, 45167, Note_on_c, 0, 66, 0
2, 45168, Note_on_c, 0, 59, 80
2, 45169, Note_on_c, 0, 67, 80
2, 45173, Note_on_c, 0, 57, 0
2, 45226, Note_on_c, 0, 67, 0
2, 45228, Note_on_c, 0, 69, 80
2, 45229, Note_on_c, 0, 59, 0
2, 45229, Note_on_c, 0, 60, 80
2, 45344, Note_on_c, 0, 59, 80
2, 45346, Note_on_c, 0, 60, 0
2, 45375, Note_on_c, 0, 69, 0
2, 45405, Note_on_c, 0, 67, 80
2, 45468, Note_on_c, 0, 62, 80
2, 45469, Note_on_c, 0, 59, 0
2, 45527, Note_on_c, 0, 66, 80
2, 45528, Note_on_c, 0, 67, 0
2, 45583, Note_on_c, 0, 66, 0
2, 45586, Note_on_c, 0, 64, 80
2, 45625, Note_on_c, 0, 62, 0
2, 45639, Note_on_c, 0, 64, 0
2, 45642, Note_on_c, 0, 62, 80
2, 45695, Note_on_c, 0, 62, 0
2, 45702, Note_on_c, 0, 57, 80
2, 45703, Note_on_c, 0, 61, 80
2, 45764, Note_on_c, 0, 61, 0
2, 45767, Note_on_c, 0, 62, 80
2, 45825, Note_on_c, 0, 62, 0
2, 45826, Note_on_c, 0, 64, 80
2, 45889, Note_on_c, 0, 55, 80
2, 45892, Note_on_c, 0, 57, 0
2, 45949, Note_on_c, 0, 55, 0
2, 45950, Note_on_c, 0, 54, 80
2, 46008, Note_on_c, 0, 64, 0
2, 46008, Note_on_c, 0, 57, 80
2, 46065, Note_on_c, 0, 57, 0
2, 46065, Note_on_c, 0, 62, 80
2, 46125, Note_on_c, 0, 54, 0
2, 46125, Note_on_c, 0, 55, 80
2, 46164, Note_on_c, 0, 55, 0
2, 46189, Note_on_c, 0, 54, 80
2, 46211, Note_on_c, 0, 52, 80
2, 46212, Note_on_c, 0, 54, 0
2, 46227, Note_on_c, 0, 52, 0
2, 46228, Note_on_c, 0, 54, 80
2, 46241, Note_on_c, 0, 54, 0
2, 46241, Note_on_c, 0, 52, 80
2, 46253, Note_on_c, 0, 52, 0
2, 46253, Note_on_c, 0, 61, 80
2, 46254, Note_on_c, 0, 62, 0
2, 46255, Note_on_c, 0, 54, 80
2, 46268, Note_on_c, 0, 54, 0
2, 46268, Note_on_c, 0, 52, 80
2, 46280, Note_on_c, 0, 52, 0
2, 46282, Note_on_c, 0, 54, 80
2, 46285, Note_on_c, 0, 61, 0
2, 46286, Note_on_c, 0, 59, 80
2, 46293, Note_on_c, 0, 54, 0
2, 46293, Note_on_c, 0, 52, 80
2, 46306, Note_on_c, 0, 52, 0
2, 46308, Note_on_c, 0, 54, 80
2, 46315, Note_on_c, 0, 61, 80
2, 46317, Note_on_c, 0, 59, 0
2, 46320, Note_on_c, 0, 54, 0
2, 46320, Note_on_c, 0, 52, 80
2, 46332, Note_on_c, 0, 52, 0
2, 46333, Note_on_c, 0, 54, 80
2, 46345, Note_on_c, 0, 54, 0
2, 46345, Note_on_c, 0, 52, 80
2, 46355, Note_on_c, 0, 54, 80
2, 46361, Note_on_c, 0, 52, 0
2, 46373, Note_on_c, 0, 54, 0
2, 46373, Note_on_c, 0, 50, 80
2, 46399, Note_on_c, 0, 52, 80
2, 46403, Note_on_c, 0, 50, 0
2, 46433, Note_on_c, 0, 61, 0
2, 46434, Note_on_c, 0, 62, 80
2, 46435, Note_on_c, 0, 50, 80
2, 46437, Note_on_c, 0, 52, 0
2, 46465, Note_on_c, 0, 50, 0
2, 46490, Note_on_c, 0, 60, 80
2, 46550, Note_on_c, 0, 59, 80
2, 46558, Note_on_c, 0, 60, 0
2, 46612, Note_on_c, 0, 57, 80
2, 46616, Note_on_c, 0, 59, 0
2, 46672, Note_on_c, 0, 57, 0
2, 46672, Note_on_c, 0, 55, 80
2, 46679, Note_on_c, 0, 62, 0
2, 46727, Note_on_c, 0, 62, 80
2, 46787, Note_on_c, 0, 62, 0
2, 46791, Note_on_c, 0, 64, 80
2, 46848, Note_on_c, 0, 57, 80
2, 46852, Note_on_c, 0, 55, 0
2, 46907, Note_on_c, 0, 55, 80
2, 46911, Note_on_c, 0, 57, 0
2, 46968, Note_on_c, 0, 66, 80
2, 46968, Note_on_c, 0, 54, 80
2, 46971, Note_on_c, 0, 64, 0
2, 46972, Note_on_c, 0, 55, 0
2, 47029, Note_on_c, 0, 54, 0
2, 47030, Note_on_c, 0, 52, 80
2, 47031, Note_on_c, 0, 66, 0
2, 47031, Note_on_c, 0, 67, 80
2, 47064, Note_on_c, 0, 52, 0
2, 47090, Note_on_c, 0, 64, 80
2, 47147, Note_on_c, 0, 66, 80
2, 47148, Note_on_c, 0, 67, 0
2, 47206, Note_on_c, 0, 62, 80
2, 47210, Note_on_c, 0, 64, 0
2, 47267, Note_on_c, 0, 69, 80
2, 47269, Note_on_c, 0, 60, 80
2, 47270, Note_on_c, 0, 66, 0
2, 47275, Note_on_c, 0, 62, 0
2, 47329, Note_on_c, 0, 59, 80
2, 47332, Note_on_c, 0, 60, 0
2, 47385, Note_on_c, 0, 59, 0
2, 47387, Note_on_c, 0, 57, 80
2, 47445, Note_on_c, 0, 55, 80
2, 47448, Note_on_c, 0, 57, 0
2, 47469, Note_on_c, 0, 69, 0
2, 47504, Note_on_c, 0, 62, 80
2, 47505, Note_on_c, 0, 54, 80
2, 47509, Note_on_c, 0, 55, 0
2, 47566, Note_on_c, 0, 55, 80
2, 47568, Note_on_c, 0, 54, 0
2, 47627, Note_on_c, 0, 57, 80
2, 47630, Note_on_c, 0, 55, 0
2, 47686, Note_on_c, 0, 60, 80
2, 47694, Note_on_c, 0, 62, 0
2, 47744, Note_on_c, 0, 59, 80
2, 47745, Note_on_c, 0, 60, 0
2, 47803, Note_on_c, 0, 50, 80
2, 47810, Note_on_c, 0, 57, 0
2, 47861, Note_on_c, 0, 55, 80
2, 47864, Note_on_c, 0, 50, 0
2, 47919, Note_on_c, 0, 60, 80
2, 47920, Note_on_c, 0, 59, 0
2, 47968, Note_on_c, 0, 60, 0
2, 47982, Note_on_c, 0, 59, 80
2, 48005, Note_on_c, 0, 57, 80
2, 48006, Note_on_c, 0, 59, 0
2, 48021, Note_on_c, 0, 57, 0
2, 48024, Note_on_c, 0, 59, 80
2, 48030, Note_on_c, 0, 54, 80
2, 48034, Note_on_c, 0, 55, 0
2, 48036, Note_on_c, 0, 59, 0
2, 48036, Note_on_c, 0, 57, 80
2, 48049, Note_on_c, 0, 57, 0
2, 48050, Note_on_c, 0, 59, 80
2, 48060, Note_on_c, 0, 52, 80
2, 48061, Note_on_c, 0, 54, 0
2, 48062, Note_on_c, 0, 59, 0
2, 48062, Note_on_c, 0, 57, 80
2, 48071, Note_on_c, 0, 57, 0
2, 48073, Note_on_c, 0, 59, 80
2, 48084, Note_on_c, 0, 57, 80
2, 48085, Note_on_c, 0, 59, 0
2, 48089, Note_on_c, 0, 54, 80
2, 48092, Note_on_c, 0, 57, 0
2, 48092, Note_on_c, 0, 59, 80
2, 48094, Note_on_c, 0, 52, 0
2, 48099, Note_on_c, 0, 57, 80
2, 48101, Note_on_c, 0, 59, 0
2, 48106, Note_on_c, 0, 59, 80
2, 48112, Note_on_c, 0, 57, 0
2, 48115, Note_on_c, 0, 57, 80
2, 48116, Note_on_c, 0, 59, 0
2, 48147, Note_on_c, 0, 55, 80
2, 48148, Note_on_c, 0, 57, 0
2, 48177, Note_on_c, 0, 57, 80
2, 48178, Note_on_c, 0, 55, 0
2, 48215, Note_on_c, 0, 57, 0
2, 48215, Note_on_c, 0, 55, 80
2, 48277, Note_on_c, 0, 54, 0
2, 48277, Note_on_c, 0, 52, 80
2, 48329, Note_on_c, 0, 55, 0
2, 48336, Note_on_c, 0, 50, 80
2, 48337, Note_on_c, 0, 60, 80
2, 48342, Note_on_c, 0, 52, 0
2, 48397, Note_on_c, 0, 48, 80
2, 48398, Note_on_c, 0, 50, 0
2, 48454, Note_on_c, 0, 48, 0
2, 48454, Note_on_c, 0, 50, 80
2, 48515, Note_on_c, 0, 59, 80
2, 48515, Note_on_c, 0, 55, 80
2, 48516, Note_on_c, 0, 60, 0
2, 48516, Note_on_c, 0, 50, 0
2, 48550, Note_on_c, 0, 59, 0
2, 48579, Note_on_c, 0, 52, 80
2, 48580, Note_on_c, 0, 60, 80
2, 48584, Note_on_c, 0, 55, 0
2, 48639, Note_on_c, 0, 60, 0
2, 48641, Note_on_c, 0, 59, 80
2, 48700, Note_on_c, 0, 60, 80
2, 48700, Note_on_c, 0, 57, 80
2, 48703, Note_on_c, 0, 52, 0
2, 48705, Note_on_c, 0, 59, 0
2, 48762, Note_on_c, 0, 62, 80
2, 48764, Note_on_c, 0, 60, 0
2, 48821, Note_on_c, 0, 62, 0
2, 48822, Note_on_c, 0, 64, 80
2, 48822, Note_on_c, 0, 55, 80
2, 48827, Note_on_c, 0, 57, 0
2, 48884, Note_on_c, 0, 57, 80
2, 48894, Note_on_c, 0, 55, 0
2, 48904, Note_on_c, 0, 64, 0
2, 48949, Note_on_c, 0, 62, 80
2, 48950, Note_on_c, 0, 57, 0
2, 48950, Note_on_c, 0, 59, 80
2, 49009, Note_on_c, 0, 64, 80
2, 49011, Note_on_c, 0, 62, 0
2, 49067, Note_on_c, 0, 64, 0
2, 49067, Note_on_c, 0, 66, 80
2, 49068, Note_on_c, 0, 57, 80
2, 49069, Note_on_c, 0, 59, 0
2, 49124, Note_on_c, 0, 66, 0
2, 49127, Note_on_c, 0, 67, 80
2, 49186, Note_on_c, 0, 67, 0
2, 49187, Note_on_c, 0, 69, 80
2, 49188, Note_on_c, 0, 66, 80
2, 49192, Note_on_c, 0, 57, 0
2, 49241, Note_on_c, 0, 69, 0
2, 49241, Note_on_c, 0, 71, 80
2, 49303, Note_on_c, 0, 73, 80
2, 49304, Note_on_c, 0, 66, 0
2, 49304, Note_on_c, 0, 71, 0
2, 49304, Note_on_c, 0, 64, 80
2, 49362, Note_on_c, 0, 73, 0
2, 49363, Note_on_c, 0, 62, 80
2, 49364, Note_on_c, 0, 74, 80
2, 49367, Note_on_c, 0, 64, 0
2, 49423, Note_on_c, 0, 61, 80
2, 49424, Note_on_c, 0, 74, 0
2, 49424, Note_on_c, 0, 76, 80
2, 49426, Note_on_c, 0, 62, 0
2, 49482, Note_on_c, 0, 59, 80
2, 49483, Note_on_c, 0, 61, 0
2, 49539, Note_on_c, 0, 59, 0
2, 49539, Note_on_c, 0, 57, 80
2, 49545, Note_on_c, 0, 76, 0
2, 49600, Note_on_c, 0, 55, 80
2, 49602, Note_on_c, 0, 69, 80
2, 49603, Note_on_c, 0, 57, 0
2, 49630, Note_on_c, 0, 69, 0
2, 49662, Note_on_c, 0, 74, 80
2, 49663, Note_on_c, 0, 54, 80
2, 49666, Note_on_c, 0, 55, 0
2, 49722, Note_on_c, 0, 50, 80
2, 49723, Note_on_c, 0, 54, 0
2, 49759, Note_on_c, 0, 50, 0
2, 49782, Note_on_c, 0, 55, 80
2, 49841, Note_on_c, 0, 73, 80
2, 49842, Note_on_c, 0, 74, 0
2, 49866, Note_on_c, 0, 73, 0
2, 49867, Note_on_c, 0, 71, 80
2, 49881, Note_on_c, 0, 71, 0
2, 49899, Note_on_c, 0, 74, 80
2, 49910, Note_on_c, 0, 74, 0
2, 49911, Note_on_c, 0, 73, 80
2, 49922, Note_on_c, 0, 73, 0
2, 49922, Note_on_c, 0, 74, 80
2, 49930, Note_on_c, 0, 74, 0
2, 49931, Note_on_c, 0, 73, 80
2, 49938, Note_on_c, 0, 74, 80
2, 49939, Note_on_c, 0, 73, 0
2, 49946, Note_on_c, 0, 55, 0
2, 49947, Note_on_c, 0, 74, 0
2, 49947, Note_on_c, 0, 73, 80
2, 49948, Note_on_c, 0, 54, 80
2, 49953, Note_on_c, 0, 74, 80
2, 49955, Note_on_c, 0, 73, 0
2, 49963, Note_on_c, 0, 73, 80
2, 49964, Note_on_c, 0, 74, 0
2, 49969, Note_on_c, 0, 74, 80
2, 49973, Note_on_c, 0, 73, 0
2, 49981, Note_on_c, 0, 55, 80
2, 49982, Note_on_c, 0, 73, 80
2, 49983, Note_on_c, 0, 74, 0
2, 49987, Note_on_c, 0, 54, 0
2, 50002, Note_on_c, 0, 73, 0
2, 50018, Note_on_c, 0, 55, 0
2, 50018, Note_on_c, 0, 54, 80
2, 50019, Note_on_c, 0, 74, 80
2, 50072, Note_on_c, 0, 74, 0
2, 50085, Note_on_c, 0, 54, 0
2, 50085, Note_on_c, 0, 57, 80
2, 50086, Note_on_c, 0, 72, 80
2, 50139, Note_on_c, 0, 57, 0
2, 50139, Note_on_c, 0, 72, 0
2, 50140, Note_on_c, 0, 62, 80
2, 50141, Note_on_c, 0, 71, 80
2, 50198, Note_on_c, 0, 71, 0
2, 50198, Note_on_c, 0, 60, 80
2, 50200, Note_on_c, 0, 62, 0
2, 50200, Note_on_c, 0, 69, 80
2, 50257, Note_on_c, 0, 69, 0
2, 50258, Note_on_c, 0, 60, 0
2, 50258, Note_on_c, 0, 67, 80
2, 50259, Note_on_c, 0, 59, 80
2, 50321, Note_on_c, 0, 59, 0
2, 50322, Note_on_c, 0, 72, 80
2, 50323, Note_on_c, 0, 67, 0
2, 50323, Note_on_c, 0, 64, 80
2, 50382, Note_on_c, 0, 72, 0
2, 50382, Note_on_c, 0, 69, 80
2, 50445, Note_on_c, 0, 62, 80
2, 50449, Note_on_c, 0, 64, 0
2, 50504, Note_on_c, 0, 60, 80
2, 50509, Note_on_c, 0, 62, 0
2, 50530, Note_on_c, 0, 69, 0
2, 50562, Note_on_c, 0, 71, 80
2, 50564, Note_on_c, 0, 59, 80
2, 50565, Note_on_c, 0, 60, 0
2, 50624, Note_on_c, 0, 71, 0
2, 50625, Note_on_c, 0, 60, 80
2, 50626, Note_on_c, 0, 64, 80
2, 50627, Note_on_c, 0, 59, 0
2, 50683, Note_on_c, 0, 66, 80
2, 50687, Note_on_c, 0, 64, 0
2, 50741, Note_on_c, 0, 66, 0
2, 50748, Note_on_c, 0, 60, 0
2, 50748, Note_on_c, 0, 67, 80
2, 50749, Note_on_c, 0, 59, 80
2, 50807, Note_on_c, 0, 59, 0
2, 50808, Note_on_c, 0, 60, 80
2, 50865, Note_on_c, 0, 60, 0
2, 50865, Note_on_c, 0, 62, 80
2, 50873, Note_on_c, 0, 67, 0
2, 50925, Note_on_c, 0, 65, 80
2, 50948, Note_on_c, 0, 65, 0
2, 50983, Note_on_c, 0, 64, 80
2, 50985, Note_on_c, 0, 62, 0
2, 51045, Note_on_c, 0, 55, 80
2, 51085, Note_on_c, 0, 55, 0
2, 51109, Note_on_c, 0, 60, 80
2, 51167, Note_on_c, 0, 59, 80
2, 51168, Note_on_c, 0, 60, 0
2, 51194, Note_on_c, 0, 64, 0
2, 51223, Note_on_c, 0, 59, 0
2, 51223, Note_on_c, 0, 57, 80
2, 51224, Note_on_c, 0, 62, 80
2, 51282, Note_on_c, 0, 57, 0
2, 51282, Note_on_c, 0, 55, 80
2, 51341, Note_on_c, 0, 55, 0
2, 51342, Note_on_c, 0, 57, 80
2, 51404, Note_on_c, 0, 54, 80
2, 51408, Note_on_c, 0, 57, 0
2, 51444, Note_on_c, 0, 54, 0
2, 51463, Note_on_c, 0, 55, 80
2, 51522, Note_on_c, 0, 57, 80
2, 51531, Note_on_c, 0, 55, 0
2, 51543, Note_on_c, 0, 62, 0
2, 51556, Note_on_c, 0, 57, 0
2, 51583, Note_on_c, 0, 59, 80
2, 51583, Note_on_c, 0, 67, 80
2, 51643, Note_on_c, 0, 66, 80
2, 51649, Note_on_c, 0, 67, 0
2, 51702, Note_on_c, 0, 66, 0
2, 51702, Note_on_c, 0, 64, 80
2, 51758, Note_on_c, 0, 62, 80
2, 51759, Note_on_c, 0, 64, 0
2, 51779, Note_on_c, 0, 59, 0
2, 51791, Note_on_c, 0, 62, 0
2, 51817, Note_on_c, 0, 61, 80
2, 51818, Note_on_c, 0, 52, 80
2, 51877, Note_on_c, 0, 57, 80
2, 51885, Note_on_c, 0, 61, 0
2, 51903, Note_on_c, 0, 52, 0
2, 51938, Note_on_c, 0, 62, 80
2, 51939, Note_on_c, 0, 57, 0
2, 51940, Note_on_c, 0, 54, 80
2, 52002, Note_on_c, 0, 55, 80
2, 52010, Note_on_c, 0, 54, 0
2, 52067, Note_on_c, 0, 57, 80
2, 52068, Note_on_c, 0, 55, 0
2, 52184, Note_on_c, 0, 59, 80
2, 52199, Note_on_c, 0, 57, 0
2, 52429, Note_on_c, 0, 59, 0
2, 52435, Note_on_c, 0, 57, 80
2, 52436, Note_on_c, 0, 61, 80
2, 52443, Note_on_c, 0, 62, 0
2, 52494, Note_on_c, 0, 55, 80
2, 52495, Note_on_c, 0, 57, 0
2, 52537, Note_on_c, 0, 55, 0
2, 52554, Note_on_c, 0, 61, 0
2, 52554, Note_on_c, 0, 62, 80
2, 52554, Note_on_c, 0, 54, 80
2, 52556, Note_on_c, 0, 60, 80
2, 52562, Note_on_c, 0, 60, 0
2, 52604, Note_on_c, 0, 54, 0
2, 52614, Note_on_c, 0, 55, 80
2, 52671, Note_on_c, 0, 55, 0
2, 52672, Note_on_c, 0, 57, 80
2, 52680, Note_on_c, 0, 62, 0
2, 52730, Note_on_c, 0, 60, 80
2, 52754, Note_on_c, 0, 60, 0
2, 52787, Note_on_c, 0, 59, 80
2, 52790, Note_on_c, 0, 57, 0
2, 52844, Note_on_c, 0, 50, 80
2, 52877, Note_on_c, 0, 50, 0
2, 52907, Note_on_c, 0, 55, 80
2, 52915, Note_on_c, 0, 59, 0
2, 52967, Note_on_c, 0, 59, 80
2, 52997, Note_on_c, 0, 59, 0
2, 53023, Note_on_c, 0, 57, 80
2, 53034, Note_on_c, 0, 55, 0
2, 53081, Note_on_c, 0, 54, 80
2, 53081, Note_on_c, 0, 62, 80
2, 53082, Note_on_c, 0, 57, 0
2, 53140, Note_on_c, 0, 54, 0
2, 53141, Note_on_c, 0, 52, 80
2, 53167, Note_on_c, 0, 62, 0
2, 53197, Note_on_c, 0, 61, 80
2, 53224, Note_on_c, 0, 61, 0
2, 53228, Note_on_c, 0, 52, 0
2, 53265, Note_on_c, 0, 62, 80
2, 53265, Note_on_c, 0, 50, 80
2, 53364, Note_on_c, 0, 62, 0
2, 53390, Note_on_c, 0, 55, 80
2, 53391, Note_on_c, 0, 50, 0
2, 53506, Note_on_c, 0, 57, 80
2, 53507, Note_on_c, 0, 55, 0
2, 53620, Note_on_c, 0, 59, 80
2, 53621, Note_on_c, 0, 57, 0
2, 53682, Note_on_c, 0, 72, 80
2, 53739, Note_on_c, 0, 72, 0
2, 53739, Note_on_c, 0, 71, 80
2, 53795, Note_on_c, 0, 69, 80
2, 53795, Note_on_c, 0, 60, 80
2, 53800, Note_on_c, 0, 71, 0
2, 53802, Note_on_c, 0, 59, 0
2, 53861, Note_on_c, 0, 69, 0
2, 53861, Note_on_c, 0, 62, 80
2, 53862, Note_on_c, 0, 67, 80
2, 53863, Note_on_c, 0, 60, 0
2, 53924, Note_on_c, 0, 66, 80
2, 53927, Note_on_c, 0, 67, 0
2, 53988, Note_on_c, 0, 66, 0
2, 53989, Note_on_c, 0, 64, 80
2, 54046, Note_on_c, 0, 62, 0
2, 54048, Note_on_c, 0, 55, 80
2, 54077, Note_on_c, 0, 55, 0
2, 54114, Note_on_c, 0, 60, 80
2, 54123, Note_on_c, 0, 64, 0
2, 54171, Note_on_c, 0, 62, 80
2, 54231, Note_on_c, 0, 64, 80
2, 54237, Note_on_c, 0, 62, 0
2, 54290, Note_on_c, 0, 66, 80
2, 54296, Note_on_c, 0, 64, 0
2, 54347, Note_on_c, 0, 66, 0
2, 54351, Note_on_c, 0, 67, 80
2, 54413, Note_on_c, 0, 59, 80
2, 54419, Note_on_c, 0, 60, 0
2, 54443, Note_on_c, 0, 59, 0
2, 54475, Note_on_c, 0, 57, 80
2, 54529, Note_on_c, 0, 65, 80
2, 54531, Note_on_c, 0, 67, 0
2, 54588, Note_on_c, 0, 64, 80
2, 54594, Note_on_c, 0, 65, 0
2, 54630, Note_on_c, 0, 57, 0
2, 54645, Note_on_c, 0, 59, 80
2, 54646, Note_on_c, 0, 64, 0
2, 54647, Note_on_c, 0, 62, 80
2, 54661, Note_on_c, 0, 59, 0
2, 54707, Note_on_c, 0, 52, 80
2, 54708, Note_on_c, 0, 60, 80
2, 54709, Note_on_c, 0, 62, 0
2, 54766, Note_on_c, 0, 60, 0
2, 54767, Note_on_c, 0, 59, 80
2, 54826, Note_on_c, 0, 59, 0
2, 54826, Note_on_c, 0, 57, 80
2, 54828, Note_on_c, 0, 55, 80
2, 54829, Note_on_c, 0, 52, 0
2, 54854, Note_on_c, 0, 54, 80
2, 54855, Note_on_c, 0, 55, 0
2, 54871, Note_on_c, 0, 54, 0
2, 54873, Note_on_c, 0, 55, 80
2, 54882, Note_on_c, 0, 59, 80
2, 54884, Note_on_c, 0, 57, 0
2, 54887, Note_on_c, 0, 55, 0
2, 54888, Note_on_c, 0, 54, 80
2, 54900, Note_on_c, 0, 54, 0
2, 54902, Note_on_c, 0, 55, 80
2, 54912, Note_on_c, 0, 54, 80
2, 54914, Note_on_c, 0, 55, 0
2, 54923, Note_on_c, 0, 54, 0
2, 54923, Note_on_c, 0, 55, 80
2, 54933, Note_on_c, 0, 54, 80
2, 54935, Note_on_c, 0, 55, 0
2, 54936, Note_on_c, 0, 60, 80
2, 54939, Note_on_c, 0, 55, 80
2, 54940, Note_on_c, 0, 59, 0
2, 54940, Note_on_c, 0, 54, 0
2, 54947, Note_on_c, 0, 54, 80
2, 54952, Note_on_c, 0, 55, 0
2, 54996, Note_on_c, 0, 62, 80
2, 54998, Note_on_c, 0, 60, 0
2, 54998, Note_on_c, 0, 52, 80
2, 55000, Note_on_c, 0, 54, 0
2, 55029, Note_on_c, 0, 54, 80
2, 55035, Note_on_c, 0, 52, 0
2, 55065, Note_on_c, 0, 62, 0
2, 55065, Note_on_c, 0, 54, 0
2, 55065, Note_on_c, 0, 59, 80
2, 55066, Note_on_c, 0, 55, 80
2, 55128, Note_on_c, 0, 54, 80
2, 55133, Note_on_c, 0, 55, 0
2, 55163, Note_on_c, 0, 59, 0
2, 55188, Note_on_c, 0, 54, 0
2, 55188, Note_on_c, 0, 52, 80
2, 55190, Note_on_c, 0, 62, 80
2, 55230, Note_on_c, 0, 61, 80
2, 55231, Note_on_c, 0, 62, 0
2, 55237, Note_on_c, 0, 54, 80
2, 55242, Note_on_c, 0, 52, 0
2, 55244, Note_on_c, 0, 61, 0
2, 55250, Note_on_c, 0, 62, 80
2, 55261, Note_on_c, 0, 62, 0
2, 55263, Note_on_c, 0, 61, 80
2, 55272, Note_on_c, 0, 61, 0
2, 55276, Note_on_c, 0, 62, 80
2, 55284, Note_on_c, 0, 62, 0
2, 55286, Note_on_c, 0, 61, 80
2, 55293, Note_on_c, 0, 61, 0
2, 55294, Note_on_c, 0, 62, 80
2, 55296, Note_on_c, 0, 54, 0
2, 55296, Note_on_c, 0, 55, 80
2, 55304, Note_on_c, 0, 62, 0
2, 55304, Note_on_c, 0, 61, 80
2, 55308, Note_on_c, 0, 62, 80
2, 55309, Note_on_c, 0, 61, 0
2, 55319, Note_on_c, 0, 61, 80
2, 55327, Note_on_c, 0, 62, 0
2, 55354, Note_on_c, 0, 61, 0
2, 55355, Note_on_c, 0, 59, 80
2, 55356, Note_on_c, 0, 57, 80
2, 55357, Note_on_c, 0, 55, 0
2, 55383, Note_on_c, 0, 61, 80
2, 55385, Note_on_c, 0, 59, 0
2, 55415, Note_on_c, 0, 61, 0
2, 55421, Note_on_c, 0, 57, 0
2, 55422, Note_on_c, 0, 62, 80
2, 55422, Note_on_c, 0, 54, 80
2, 55468, Note_on_c, 0, 62, 0
2, 55489, Note_on_c, 0, 54, 0
2, 55489, Note_on_c, 0, 57, 80
2, 55490, Note_on_c, 0, 55, 80
2, 55524, Note_on_c, 0, 57, 0
2, 55550, Note_on_c, 0, 54, 80
2, 55550, Note_on_c, 0, 62, 80
2, 55551, Note_on_c, 0, 55, 0
2, 55614, Note_on_c, 0, 52, 80
2, 55619, Note_on_c, 0, 54, 0
2, 55662, Note_on_c, 0, 62, 0
2, 55670, Note_on_c, 0, 64, 80
2, 55672, Note_on_c, 0, 50, 80
2, 55676, Note_on_c, 0, 52, 0
2, 55732, Note_on_c, 0, 49, 80
2, 55736, Note_on_c, 0, 50, 0
2, 55776, Note_on_c, 0, 49, 0
2, 55787, Note_on_c, 0, 50, 80
2, 55789, Note_on_c, 0, 66, 80
2, 55792, Note_on_c, 0, 64, 0
2, 55849, Note_on_c, 0, 57, 80
2, 55850, Note_on_c, 0, 50, 0
2, 55909, Note_on_c, 0, 57, 0
2, 55909, Note_on_c, 0, 62, 80
2, 55966, Note_on_c, 0, 62, 0
2, 55967, Note_on_c, 0, 64, 80
2, 55968, Note_on_c, 0, 67, 80
2, 55969, Note_on_c, 0, 66, 0
2, 56022, Note_on_c, 0, 67, 0
2, 56024, Note_on_c, 0, 69, 80
2, 56026, Note_on_c, 0, 62, 80
2, 56027, Note_on_c, 0, 64, 0
2, 56084, Note_on_c, 0, 60, 80
2, 56087, Note_on_c, 0, 62, 0
2, 56144, Note_on_c, 0, 59, 80
2, 56145, Note_on_c, 0, 60, 0
2, 56205, Note_on_c, 0, 69, 0
2, 56208, Note_on_c, 0, 62, 80
2, 56266, Note_on_c, 0, 62, 0
2, 56268, Note_on_c, 0, 67, 80
2, 56327, Note_on_c, 0, 57, 80
2, 56329, Note_on_c, 0, 59, 0
2, 56388, Note_on_c, 0, 59, 80
2, 56394, Note_on_c, 0, 57, 0
2, 56446, Note_on_c, 0, 61, 80
2, 56449, Note_on_c, 0, 59, 0
2, 56514, Note_on_c, 0, 62, 80
2, 56515, Note_on_c, 0, 61, 0
2, 56572, Note_on_c, 0, 66, 80
2, 56576, Note_on_c, 0, 67, 0
2, 56635, Note_on_c, 0, 66, 0
2, 56635, Note_on_c, 0, 64, 80
2, 56693, Note_on_c, 0, 60, 80
2, 56699, Note_on_c, 0, 62, 0
2, 56753, Note_on_c, 0, 59, 80
2, 56758, Note_on_c, 0, 60, 0
2, 56808, Note_on_c, 0, 57, 80
2, 56809, Note_on_c, 0, 59, 0
2, 56809, Note_on_c, 0, 66, 80
2, 56810, Note_on_c, 0, 64, 0
2, 56865, Note_on_c, 0, 66, 0
2, 56866, Note_on_c, 0, 57, 0
2, 56867, Note_on_c, 0, 59, 80
2, 56867, Note_on_c, 0, 55, 80
2, 56928, Note_on_c, 0, 54, 80
2, 56937, Note_on_c, 0, 55, 0
2, 56955, Note_on_c, 0, 59, 0
2, 56985, Note_on_c, 0, 52, 80
2, 56986, Note_on_c, 0, 62, 80
2, 56987, Note_on_c, 0, 54, 0
2, 57028, Note_on_c, 0, 62, 0
2, 57029, Note_on_c, 0, 61, 80
2, 57041, Note_on_c, 0, 61, 0
2, 57046, Note_on_c, 0, 62, 80
2, 57047, Note_on_c, 0, 54, 80
2, 57054, Note_on_c, 0, 52, 0
2, 57057, Note_on_c, 0, 62, 0
2, 57060, Note_on_c, 0, 61, 80
2, 57070, Note_on_c, 0, 61, 0
2, 57073, Note_on_c, 0, 62, 80
2, 57080, Note_on_c, 0, 62, 0
2, 57083, Note_on_c, 0, 61, 80
2, 57090, Note_on_c, 0, 61, 0
2, 57094, Note_on_c, 0, 62, 80
2, 57099, Note_on_c, 0, 62, 0
2, 57101, Note_on_c, 0, 61, 80
2, 57102, Note_on_c, 0, 54, 0
2, 57104, Note_on_c, 0, 55, 80
2, 57108, Note_on_c, 0, 61, 0
2, 57108, Note_on_c, 0, 62, 80
2, 57116, Note_on_c, 0, 62, 0
2, 57117, Note_on_c, 0, 61, 80
2, 57123, Note_on_c, 0, 61, 0
2, 57124, Note_on_c, 0, 62, 80
2, 57133, Note_on_c, 0, 61, 80
2, 57135, Note_on_c, 0, 62, 0
2, 57153, Note_on_c, 0, 57, 80
2, 57154, Note_on_c, 0, 55, 0
2, 57161, Note_on_c, 0, 61, 0
2, 57161, Note_on_c, 0, 59, 80
2, 57183, Note_on_c, 0, 61, 80
2, 57185, Note_on_c, 0, 59, 0
2, 57192, Note_on_c, 0, 61, 0
2, 57218, Note_on_c, 0, 54, 80
2, 57219, Note_on_c, 0, 62, 80
2, 57221, Note_on_c, 0, 57, 0
2, 57278, Note_on_c, 0, 72, 80
2, 57280, Note_on_c, 0, 62, 0
2, 57310, Note_on_c, 0, 54, 0
2, 57335, Note_on_c, 0, 71, 80
2, 57336, Note_on_c, 0, 55, 80
2, 57340, Note_on_c, 0, 72, 0
2, 57400, Note_on_c, 0, 69, 80
2, 57402, Note_on_c, 0, 57, 80
2, 57403, Note_on_c, 0, 55, 0
2, 57406, Note_on_c, 0, 71, 0
2, 57462, Note_on_c, 0, 59, 80
2, 57463, Note_on_c, 0, 57, 0
2, 57463, Note_on_c, 0, 67, 80
2, 57464, Note_on_c, 0, 69, 0
2, 57522, Note_on_c, 0, 67, 0
2, 57522, Note_on_c, 0, 66, 80
2, 57523, Note_on_c, 0, 60, 80
2, 57524, Note_on_c, 0, 59, 0
2, 57582, Note_on_c, 0, 62, 80
2, 57583, Note_on_c, 0, 66, 0
2, 57583, Note_on_c, 0, 60, 0
2, 57583, Note_on_c, 0, 67, 80
2, 57624, Note_on_c, 0, 67, 0
2, 57635, Note_on_c, 0, 62, 0
2, 57648, Note_on_c, 0, 76, 80
2, 57648, Note_on_c, 0, 60, 80
2, 57705, Note_on_c, 0, 74, 80
2, 57705, Note_on_c, 0, 59, 80
2, 57706, Note_on_c, 0, 60, 0
2, 57709, Note_on_c, 0, 76, 0
2, 57763, Note_on_c, 0, 59, 0
2, 57765, Note_on_c, 0, 74, 0
2, 57765, Note_on_c, 0, 72, 80
2, 57766, Note_on_c, 0, 57, 80
2, 57823, Note_on_c, 0, 72, 0
2, 57824, Note_on_c, 0, 71, 80
2, 57825, Note_on_c, 0, 55, 80
2, 57828, Note_on_c, 0, 57, 0
2, 57886, Note_on_c, 0, 69, 80
2, 57887, Note_on_c, 0, 71, 0
2, 57888, Note_on_c, 0, 54, 80
2, 57891, Note_on_c, 0, 55, 0
2, 57918, Note_on_c, 0, 54, 0
2, 57924, Note_on_c, 0, 69, 0
2, 57956, Note_on_c, 0, 67, 80
2, 57956, Note_on_c, 0, 52, 80
2, 58091, Note_on_c, 0, 67, 0
2, 58093, Note_on_c, 0, 52, 0
2, 58131, Note_on_c, 0, 50, 80
2, 58131, Note_on_c, 0, 66, 80
2, 58189, Note_on_c, 0, 66, 0
2, 58189, Note_on_c, 0, 67, 80
2, 58191, Note_on_c, 0, 52, 80
2, 58201, Note_on_c, 0, 50, 0
2, 58247, Note_on_c, 0, 54, 80
2, 58248, Note_on_c, 0, 67, 0
2, 58248, Note_on_c, 0, 69, 80
2, 58252, Note_on_c, 0, 52, 0
2, 58302, Note_on_c, 0, 54, 0
2, 58303, Note_on_c, 0, 55, 80
2, 58305, Note_on_c, 0, 69, 0
2, 58306, Note_on_c, 0, 62, 80
2, 58338, Note_on_c, 0, 62, 0
2, 58367, Note_on_c, 0, 67, 80
2, 58374, Note_on_c, 0, 55, 0
2, 58428, Note_on_c, 0, 60, 80
2, 58479, Note_on_c, 0, 67, 0
2, 58486, Note_on_c, 0, 66, 80
2, 58520, Note_on_c, 0, 60, 0
2, 58544, Note_on_c, 0, 66, 0
2, 58545, Note_on_c, 0, 54, 80
2, 58546, Note_on_c, 0, 64, 80
2, 58601, Note_on_c, 0, 62, 80
2, 58602, Note_on_c, 0, 64, 0
2, 58632, Note_on_c, 0, 54, 0
2, 58635, Note_on_c, 0, 62, 0
2, 58661, Note_on_c, 0, 60, 80
2, 58663, Note_on_c, 0, 55, 80
2, 58707, Note_on_c, 0, 60, 0
2, 58719, Note_on_c, 0, 59, 80
2, 58736, Note_on_c, 0, 55, 0
2, 58761, Note_on_c, 0, 59, 0
2, 58779, Note_on_c, 0, 50, 80
2, 58780, Note_on_c, 0, 57, 80
2, 58839, Note_on_c, 0, 57, 0
2, 58840, Note_on_c, 0, 59, 80
2, 58874, Note_on_c, 0, 50, 0
2, 58900, Note_on_c, 0, 59, 0
2, 58906, Note_on_c, 0, 60, 80
2, 58907, Note_on_c, 0, 57, 80
2, 58966, Note_on_c, 0, 60, 0
2, 58969, Note_on_c, 0, 57, 0
2, 58970, Note_on_c, 0, 62, 80
2, 59005, Note_on_c, 0, 62, 0
2, 59029, Note_on_c, 0, 59, 80
2, 59030, Note_on_c, 0, 55, 80
2, 59085, Note_on_c, 0, 59, 0
2, 59086, Note_on_c, 0, 55, 0
2, 59087, Note_on_c, 0, 60, 80
2, 59087, Note_on_c, 0, 57, 80
2, 59139, Note_on_c, 0, 60, 0
2, 59141, Note_on_c, 0, 57, 0
2, 59143, Note_on_c, 0, 59, 80
2, 59143, Note_on_c, 0, 62, 80
2, 59163, Note_on_c, 0, 62, 0
2, 59203, Note_on_c, 0, 64, 80
2, 59204, Note_on_c, 0, 59, 0
2, 59204, Note_on_c, 0, 67, 80
2, 59265, Note_on_c, 0, 60, 80
2, 59266, Note_on_c, 0, 64, 0
2, 59320, Note_on_c, 0, 67, 0
2, 59325, Note_on_c, 0, 66, 80
2, 59325, Note_on_c, 0, 62, 80
2, 59344, Note_on_c, 0, 60, 0
2, 59345, Note_on_c, 0, 66, 0
2, 59346, Note_on_c, 0, 62, 0
2, 59391, Note_on_c, 0, 67, 80
2, 59391, Note_on_c, 0, 55, 80
2, 59444, Note_on_c, 0, 67, 0
2, 59508, Note_on_c, 0, 62, 80
2, 59569, Note_on_c, 0, 55, 0
2, 59570, Note_on_c, 0, 57, 80
2, 59630, Note_on_c, 0, 59, 80
2, 59632, Note_on_c, 0, 57, 0
2, 59700, Note_on_c, 0, 62, 0
2, 59751, Note_on_c, 0, 67, 80
2, 59811, Note_on_c, 0, 57, 80
2, 59817, Note_on_c, 0, 59, 0
2, 59840, Note_on_c, 0, 57, 0
2, 59872, Note_on_c, 0, 55, 80
2, 59885, Note_on_c, 0, 67, 0
2, 59930, Note_on_c, 0, 65, 80
2, 59958, Note_on_c, 0, 65, 0
2, 59994, Note_on_c, 0, 64, 80
2, 60084, Note_on_c, 0, 64, 0
2, 60111, Note_on_c, 0, 62, 80
2, 60192, Note_on_c, 0, 62, 0
2, 60193, Note_on_c, 0, 55, 0
2, 60230, Note_on_c, 0, 60, 80
2, 60231, Note_on_c, 0, 57, 80
2, 60351, Note_on_c, 0, 55, 80
2, 60354, Note_on_c, 0, 57, 0
2, 60379, Note_on_c, 0, 60, 0
2, 60409, Note_on_c, 0, 53, 80
2, 60411, Note_on_c, 0, 55, 0
2, 60411, Note_on_c, 0, 62, 80
2, 60435, Note_on_c, 0, 62, 0
2, 60441, Note_on_c, 0, 53, 0
2, 60469, Note_on_c, 0, 55, 80
2, 60470, Note_on_c, 0, 64, 80
2, 60528, Note_on_c, 0, 64, 0
2, 60530, Note_on_c, 0, 62, 80
2, 60586, Note_on_c, 0, 55, 0
2, 60588, Note_on_c, 0, 62, 0
2, 60593, Note_on_c, 0, 57, 80
2, 60593, Note_on_c, 0, 60, 80
2, 60649, Note_on_c, 0, 60, 0
2, 60651, Note_on_c, 0, 59, 80
2, 60707, Note_on_c, 0, 59, 0
2, 60708, Note_on_c, 0, 60, 80
2, 60768, Note_on_c, 0, 62, 80
2, 60770, Note_on_c, 0, 60, 0
2, 60810, Note_on_c, 0, 62, 0
2, 60816, Note_on_c, 0, 57, 0
2, 60827, Note_on_c, 0, 59, 80
2, 60828, Note_on_c, 0, 55, 80
2, 60885, Note_on_c, 0, 59, 0
2, 60886, Note_on_c, 0, 60, 80
2, 60948, Note_on_c, 0, 60, 0
2, 60948, Note_on_c, 0, 62, 80
2, 60980, Note_on_c, 0, 55, 0
2, 61006, Note_on_c, 0, 53, 80
2, 61062, Note_on_c, 0, 52, 80
2, 61063, Note_on_c, 0, 53, 0
2, 61121, Note_on_c, 0, 50, 80
2, 61124, Note_on_c, 0, 52, 0
2, 61172, Note_on_c, 0, 50, 0
2, 61180, Note_on_c, 0, 52, 80
2, 61223, Note_on_c, 0, 62, 0
2, 61240, Note_on_c, 0, 55, 80
2, 61274, Note_on_c, 0, 55, 0
2, 61302, Note_on_c, 0, 60, 80
2, 61330, Note_on_c, 0, 52, 0
2, 61363, Note_on_c, 0, 50, 80
2, 61406, Note_on_c, 0, 50, 0
2, 61418, Note_on_c, 0, 52, 80
2, 61477, Note_on_c, 0, 54, 80
2, 61489, Note_on_c, 0, 52, 0
2, 61510, Note_on_c, 0, 54, 0
2, 61546, Note_on_c, 0, 55, 80
2, 61577, Note_on_c, 0, 60, 0
2, 61609, Note_on_c, 0, 57, 80
2, 61618, Note_on_c, 0, 55, 0
2, 61669, Note_on_c, 0, 57, 0
2, 61671, Note_on_c, 0, 59, 80
2, 61730, Note_on_c, 0, 57, 80
2, 61731, Note_on_c, 0, 59, 0
2, 61788, Note_on_c, 0, 55, 80
2, 61789, Note_on_c, 0, 57, 0
2, 61853, Note_on_c, 0, 54, 80
2, 61856, Note_on_c, 0, 55, 0
2, 61893, Note_on_c, 0, 54, 0
2, 61913, Note_on_c, 0, 52, 80
2, 61974, Note_on_c, 0, 62, 80
2, 62032, Note_on_c, 0, 62, 0
2, 62032, Note_on_c, 0, 64, 80
2, 62088, Note_on_c, 0, 64, 0
2, 62088, Note_on_c, 0, 62, 80
2, 62146, Note_on_c, 0, 57, 80
2, 62147, Note_on_c, 0, 60, 80
2, 62148, Note_on_c, 0, 62, 0
2, 62150, Note_on_c, 0, 52, 0
2, 62205, Note_on_c, 0, 60, 0
2, 62207, Note_on_c, 0, 59, 80
2, 62262, Note_on_c, 0, 60, 80
2, 62262, Note_on_c, 0, 52, 80
2, 62266, Note_on_c, 0, 59, 0
2, 62268, Note_on_c, 0, 57, 0
2, 62322, Note_on_c, 0, 60, 0
2, 62322, Note_on_c, 0, 64, 80
2, 62377, Note_on_c, 0, 62, 80
2, 62377, Note_on_c, 0, 55, 80
2, 62380, Note_on_c, 0, 52, 0
2, 62380, Note_on_c, 0, 64, 0
2, 62399, Note_on_c, 0, 54, 80
2, 62400, Note_on_c, 0, 55, 0
2, 62415, Note_on_c, 0, 54, 0
2, 62417, Note_on_c, 0, 55, 80
2, 62432, Note_on_c, 0, 55, 0
2, 62433, Note_on_c, 0, 54, 80
2, 62434, Note_on_c, 0, 60, 80
2, 62435, Note_on_c, 0, 62, 0
2, 62445, Note_on_c, 0, 54, 0
2, 62448, Note_on_c, 0, 55, 80
2, 62461, Note_on_c, 0, 55, 0
2, 62461, Note_on_c, 0, 54, 80
2, 62470, Note_on_c, 0, 54, 0
2, 62473, Note_on_c, 0, 55, 80
2, 62483, Note_on_c, 0, 60, 0
2, 62484, Note_on_c, 0, 54, 80
2, 62485, Note_on_c, 0, 59, 80
2, 62487, Note_on_c, 0, 54, 0
2, 62496, Note_on_c, 0, 54, 80
2, 62498, Note_on_c, 0, 55, 0
2, 62511, Note_on_c, 0, 55, 80
2, 62517, Note_on_c, 0, 55, 0
2, 62546, Note_on_c, 0, 54, 0
2, 62547, Note_on_c, 0, 52, 80
2, 62548, Note_on_c, 0, 59, 0
2, 62549, Note_on_c, 0, 57, 80
2, 62575, Note_on_c, 0, 54, 80
2, 62581, Note_on_c, 0, 52, 0
2, 62615, Note_on_c, 0, 54, 0
2, 62617, Note_on_c, 0, 57, 0
2, 62619, Note_on_c, 0, 55, 80
2, 62619, Note_on_c, 0, 59, 80
2, 62686, Note_on_c, 0, 57, 80
2, 62687, Note_on_c, 0, 59, 0
2, 62692, Note_on_c, 0, 55, 0
2, 62743, Note_on_c, 0, 54, 80
2, 62744, Note_on_c, 0, 59, 80
2, 62747, Note_on_c, 0, 57, 0
2, 62803, Note_on_c, 0, 54, 0
2, 62805, Note_on_c, 0, 52, 80
2, 62806, Note_on_c, 0, 61, 80
2, 62808, Note_on_c, 0, 59, 0
2, 62862, Note_on_c, 0, 54, 80
2, 62865, Note_on_c, 0, 61, 0
2, 62866, Note_on_c, 0, 52, 0
2, 62866, Note_on_c, 0, 62, 80
2, 62926, Note_on_c, 0, 55, 80
2, 62927, Note_on_c, 0, 64, 80
2, 62928, Note_on_c, 0, 54, 0
2, 62928, Note_on_c, 0, 62, 0
2, 62988, Note_on_c, 0, 64, 0
2, 62988, Note_on_c, 0, 57, 80
2, 62988, Note_on_c, 0, 61, 80
2, 62990, Note_on_c, 0, 55, 0
2, 63024, Note_on_c, 0, 57, 0
2, 63027, Note_on_c, 0, 61, 0
2, 63050, Note_on_c, 0, 64, 80
2, 63051, Note_on_c, 0, 49, 80
2, 63101, Note_on_c, 0, 49, 0
2, 63108, Note_on_c, 0, 64, 0
2, 63109, Note_on_c, 0, 50, 80
2, 63110, Note_on_c, 0, 66, 80
2, 63169, Note_on_c, 0, 52, 80
2, 63170, Note_on_c, 0, 50, 0
2, 63170, Note_on_c, 0, 64, 80
2, 63173, Note_on_c, 0, 66, 0
2, 63227, Note_on_c, 0, 54, 80
2, 63228, Note_on_c, 0, 52, 0
2, 63229, Note_on_c, 0, 64, 0
2, 63230, Note_on_c, 0, 62, 80
2, 63287, Note_on_c, 0, 54, 0
2, 63288, Note_on_c, 0, 61, 80
2, 63288, Note_on_c, 0, 50, 80
2, 63292, Note_on_c, 0, 62, 0
2, 63345, Note_on_c, 0, 61, 0
2, 63348, Note_on_c, 0, 55, 80
2, 63348, Note_on_c, 0, 59, 80
2, 63349, Note_on_c, 0, 50, 0
2, 63409, Note_on_c, 0, 57, 80
2, 63410, Note_on_c, 0, 55, 0
2, 63455, Note_on_c, 0, 59, 0
2, 63462, Note_on_c, 0, 57, 0
2, 63468, Note_on_c, 0, 59, 80
2, 63525, Note_on_c, 0, 57, 80
2, 63529, Note_on_c, 0, 59, 0
2, 63584, Note_on_c, 0, 55, 80
2, 63586, Note_on_c, 0, 64, 80
2, 63588, Note_on_c, 0, 57, 0
2, 63645, Note_on_c, 0, 54, 80
2, 63646, Note_on_c, 0, 55, 0
2, 63690, Note_on_c, 0, 64, 0
2, 63703, Note_on_c, 0, 54, 0
2, 63705, Note_on_c, 0, 55, 80
2, 63705, Note_on_c, 0, 59, 80
2, 63750, Note_on_c, 0, 59, 0
2, 63764, Note_on_c, 0, 55, 0
2, 63765, Note_on_c, 0, 59, 80
2, 63820, Note_on_c, 0, 57, 80
2, 63823, Note_on_c, 0, 59, 0
2, 63824, Note_on_c, 0, 62, 80
2, 63843, Note_on_c, 0, 62, 0
2, 63843, Note_on_c, 0, 61, 80
2, 63857, Note_on_c, 0, 61, 0
2, 63861, Note_on_c, 0, 62, 80
2, 63872, Note_on_c, 0, 62, 0
2, 63874, Note_on_c, 0, 61, 80
2, 63874, Note_on_c, 0, 55, 80
2, 63875, Note_on_c, 0, 57, 0
2, 63883, Note_on_c, 0, 61, 0
2, 63885, Note_on_c, 0, 62, 80
2, 63896, Note_on_c, 0, 62, 0
2, 63898, Note_on_c, 0, 61, 80
2, 63906, Note_on_c, 0, 61, 0
2, 63907, Note_on_c, 0, 62, 80
2, 63916, Note_on_c, 0, 62, 0
2, 63918, Note_on_c, 0, 61, 80
2, 63923, Note_on_c, 0, 61, 0
2, 63925, Note_on_c, 0, 62, 80
2, 63933, Note_on_c, 0, 62, 0
2, 63935, Note_on_c, 0, 61, 80
2, 63941, Note_on_c, 0, 62, 80
2, 63943, Note_on_c, 0, 61, 0
2, 63945, Note_on_c, 0, 54, 80
2, 63948, Note_on_c, 0, 55, 0
2, 63952, Note_on_c, 0, 61, 80
2, 63962, Note_on_c, 0, 61, 0
2, 63968, Note_on_c, 0, 61, 80
2, 63971, Note_on_c, 0, 62, 0
2, 64003, Note_on_c, 0, 61, 0
2, 64003, Note_on_c, 0, 59, 80
2, 64005, Note_on_c, 0, 52, 80
2, 64006, Note_on_c, 0, 54, 0
2, 64029, Note_on_c, 0, 61, 80
2, 64030, Note_on_c, 0, 59, 0
2, 64065, Note_on_c, 0, 61, 0
2, 64066, Note_on_c, 0, 62, 80
2, 64067, Note_on_c, 0, 54, 80
2, 64069, Note_on_c, 0, 52, 0
2, 64111, Note_on_c, 0, 62, 0
2, 64116, Note_on_c, 0, 54, 0
2, 64126, Note_on_c, 0, 66, 80
2, 64128, Note_on_c, 0, 50, 80
2, 64187, Note_on_c, 0, 66, 0
2, 64187, Note_on_c, 0, 64, 80
2, 64188, Note_on_c, 0, 50, 0
2, 64188, Note_on_c, 0, 55, 80
2, 64250, Note_on_c, 0, 64, 0
2, 64250, Note_on_c, 0, 62, 80
2, 64309, Note_on_c, 0, 61, 80
2, 64314, Note_on_c, 0, 62, 0
2, 64367, Note_on_c, 0, 61, 0
2, 64370, Note_on_c, 0, 59, 80
2, 64427, Note_on_c, 0, 61, 80
2, 64429, Note_on_c, 0, 59, 0
2, 64488, Note_on_c, 0, 61, 0
2, 64489, Note_on_c, 0, 57, 80
2, 64507, Note_on_c, 0, 55, 0
2, 64548, Note_on_c, 0, 54, 80
2, 64550, Note_on_c, 0, 62, 80
2, 64552, Note_on_c, 0, 57, 0
2, 64606, Note_on_c, 0, 54, 0
2, 64608, Note_on_c, 0, 50, 80
2, 64666, Note_on_c, 0, 50, 0
2, 64667, Note_on_c, 0, 62, 0
2, 64667, Note_on_c, 0, 64, 80
2, 64669, Note_on_c, 0, 55, 80
2, 64724, Note_on_c, 0, 64, 0
2, 64724, Note_on_c, 0, 66, 80
2, 64727, Note_on_c, 0, 55, 0
2, 64727, Note_on_c, 0, 57, 80
2, 64783, Note_on_c, 0, 57, 0
2, 64785, Note_on_c, 0, 59, 80
2, 64786, Note_on_c, 0, 66, 0
2, 64787, Note_on_c, 0, 67, 80
2, 64829, Note_on_c, 0, 67, 0
2, 64848, Note_on_c, 0, 59, 0
2, 64848, Note_on_c, 0, 71, 80
2, 64849, Note_on_c, 0, 57, 80
2, 64908, Note_on_c, 0, 55, 80
2, 64908, Note_on_c, 0, 76, 80
2, 64909, Note_on_c, 0, 71, 0
2, 64909, Note_on_c, 0, 57, 0
2, 64966, Note_on_c, 0, 74, 80
2, 64967, Note_on_c, 0, 54, 80
2, 64968, Note_on_c, 0, 55, 0
2, 64968, Note_on_c, 0, 76, 0
2, 65026, Note_on_c, 0, 52, 80
2, 65028, Note_on_c, 0, 73, 80
2, 65030, Note_on_c, 0, 54, 0
2, 65031, Note_on_c, 0, 74, 0
2, 65086, Note_on_c, 0, 73, 0
2, 65086, Note_on_c, 0, 54, 80
2, 65087, Note_on_c, 0, 71, 80
2, 65094, Note_on_c, 0, 52, 0
2, 65146, Note_on_c, 0, 54, 0
2, 65146, Note_on_c, 0, 71, 0
2, 65147, Note_on_c, 0, 55, 80
2, 65147, Note_on_c, 0, 72, 80
2, 65206, Note_on_c, 0, 76, 80
2, 65207, Note_on_c, 0, 72, 0
2, 65262, Note_on_c, 0, 74, 80
2, 65264, Note_on_c, 0, 55, 0
2, 65264, Note_on_c, 0, 57, 80
2, 65267, Note_on_c, 0, 76, 0
2, 65319, Note_on_c, 0, 72, 80
2, 65321, Note_on_c, 0, 74, 0
2, 65379, Note_on_c, 0, 72, 0
2, 65380, Note_on_c, 0, 71, 80
2, 65382, Note_on_c, 0, 57, 0
2, 65382, Note_on_c, 0, 62, 80
2, 65446, Note_on_c, 0, 69, 80
2, 65447, Note_on_c, 0, 71, 0
2, 65510, Note_on_c, 0, 71, 80
2, 65511, Note_on_c, 0, 69, 0
2, 65569, Note_on_c, 0, 60, 80
2, 65571, Note_on_c, 0, 62, 0
2, 65626, Note_on_c, 0, 59, 80
2, 65628, Note_on_c, 0, 60, 0
2, 65631, Note_on_c, 0, 71, 0
2, 65685, Note_on_c, 0, 71, 80
2, 65687, Note_on_c, 0, 59, 0
2, 65688, Note_on_c, 0, 57, 80
2, 65746, Note_on_c, 0, 55, 80
2, 65747, Note_on_c, 0, 73, 80
2, 65750, Note_on_c, 0, 57, 0
2, 65754, Note_on_c, 0, 71, 0
2, 65805, Note_on_c, 0, 54, 80
2, 65806, Note_on_c, 0, 73, 0
2, 65808, Note_on_c, 0, 74, 80
2, 65809, Note_on_c, 0, 55, 0
2, 65863, Note_on_c, 0, 74, 0
2, 65867, Note_on_c, 0, 52, 80
2, 65867, Note_on_c, 0, 76, 80
2, 65868, Note_on_c, 0, 54, 0
2, 65924, Note_on_c, 0, 76, 0
2, 65926, Note_on_c, 0, 64, 80
2, 65980, Note_on_c, 0, 69, 80
2, 65984, Note_on_c, 0, 64, 0
2, 65989, Note_on_c, 0, 52, 0
2, 66043, Note_on_c, 0, 67, 80
2, 66044, Note_on_c, 0, 52, 80
2, 66048, Note_on_c, 0, 69, 0
2, 66106, Note_on_c, 0, 57, 80
2, 66106, Note_on_c, 0, 66, 80
2, 66107, Note_on_c, 0, 67, 0
2, 66107, Note_on_c, 0, 52, 0
2, 66162, Note_on_c, 0, 55, 80
2, 66163, Note_on_c, 0, 57, 0
2, 66163, Note_on_c, 0, 66, 0
2, 66163, Note_on_c, 0, 64, 80
2, 66222, Note_on_c, 0, 64, 0
2, 66223, Note_on_c, 0, 55, 0
2, 66223, Note_on_c, 0, 62, 80
2, 66224, Note_on_c, 0, 54, 80
2, 66347, Note_on_c, 0, 55, 80
2, 66350, Note_on_c, 0, 54, 0
2, 66668, Note_on_c, 0, 62, 0
2, 66720, Note_on_c, 0, 60, 80
2, 66762, Note_on_c, 0, 55, 0
2, 66767, Note_on_c, 0, 60, 0
2, 66778, Note_on_c, 0, 59, 80
2, 66778, Note_on_c, 0, 56, 80
2, 66828, Note_on_c, 0, 59, 0
2, 66833, Note_on_c, 0, 56, 0
2, 66834, Note_on_c, 0, 57, 80
2, 66834, Note_on_c, 0, 60, 80
2, 66855, Note_on_c, 0, 60, 0
2, 66888, Note_on_c, 0, 62, 80
2, 66889, Note_on_c, 0, 57, 0
2, 66889, Note_on_c, 0, 59, 80
2, 66919, Note_on_c, 0, 62, 0
2, 66944, Note_on_c, 0, 59, 0
2, 66945, Note_on_c, 0, 57, 80
2, 66947, Note_on_c, 0, 60, 80
2, 66989, Note_on_c, 0, 57, 0
2, 66994, Note_on_c, 0, 60, 0
2, 67002, Note_on_c, 0, 61, 80
2, 67003, Note_on_c, 0, 55, 80
2, 67049, Note_on_c, 0, 55, 0
2, 67055, Note_on_c, 0, 61, 0
2, 67065, Note_on_c, 0, 57, 80
2, 67066, Note_on_c, 0, 62, 80
2, 67120, Note_on_c, 0, 64, 80
2, 67127, Note_on_c, 0, 62, 0
2, 67178, Note_on_c, 0, 64, 0
2, 67178, Note_on_c, 0, 62, 80
2, 67237, Note_on_c, 0, 62, 0
2, 67246, Note_on_c, 0, 60, 80
2, 67272, Note_on_c, 0, 57, 0
2, 67304, Note_on_c, 0, 60, 0
2, 67309, Note_on_c, 0, 55, 80
2, 67309, Note_on_c, 0, 62, 80
2, 67328, Control_c, 0, 7, 78
2, 67337, Control_c, 0, 7, 80
2, 67341, Control_c, 0, 7, 97
2, 67345, Control_c, 0, 7, 103
2, 67349, Control_c, 0, 7, 105
2, 67354, Control_c, 0, 7, 106
2, 67358, Control_c, 0, 7, 108
2, 67379, Control_c, 0, 7, 110
2, 67435, Note_on_c, 0, 62, 0
2, 67437, Note_on_c, 0, 55, 0
2, 67465, Note_on_c, 0, 74, 80
2, 67494, Note_on_c, 0, 76, 80
2, 67498, Note_on_c, 0, 74, 0
2, 67522, Note_on_c, 0, 76, 0
2, 67524, Note_on_c, 0, 78, 80
2, 67551, Note_on_c, 0, 78, 0
2, 67551, Note_on_c, 0, 79, 80
2, 67608, Note_on_c, 0, 71, 80
2, 67609, Note_on_c, 0, 67, 80
2, 67626, Note_on_c, 0, 71, 0
2, 67628, Note_on_c, 0, 67, 0
2, 67669, Note_on_c, 0, 67, 80
2, 67671, Note_on_c, 0, 72, 80
2, 67716, Note_on_c, 0, 79, 0
2, 67716, Note_on_c, 0, 72, 0
2, 67717, Note_on_c, 0, 67, 0
2, 67825, Note_on_c, 0, 67, 80
2, 67844, Note_on_c, 0, 67, 0
2, 67850, Note_on_c, 0, 69, 80
2, 67866, Note_on_c, 0, 69, 0
2, 67877, Note_on_c, 0, 71, 80
2, 67888, Note_on_c, 0, 71, 0
2, 67905, Note_on_c, 0, 72, 80
2, 67960, Note_on_c, 0, 60, 80
2, 67961, Note_on_c, 0, 64, 80
2, 67978, Note_on_c, 0, 64, 0
2, 67979, Note_on_c, 0, 60, 0
2, 68020, Note_on_c, 0, 69, 80
2, 68021, Note_on_c, 0, 62, 80
2, 68021, Note_on_c, 0, 66, 80
2, 68025, Note_on_c, 0, 72, 0
2, 68061, Note_on_c, 0, 69, 0
2, 68062, Note_on_c, 0, 66, 0
2, 68067, Note_on_c, 0, 62, 0
2, 68171, Note_on_c, 0, 57, 80
2, 68186, Note_on_c, 0, 57, 0
2, 68200, Note_on_c, 0, 59, 80
2, 68214, Note_on_c, 0, 59, 0
2, 68229, Note_on_c, 0, 60, 80
2, 68240, Note_on_c, 0, 60, 0
2, 68266, Note_on_c, 0, 62, 80
2, 68325, Note_on_c, 0, 54, 80
2, 68326, Note_on_c, 0, 50, 80
2, 68340, Note_on_c, 0, 54, 0
2, 68346, Note_on_c, 0, 50, 0
2, 68386, Note_on_c, 0, 50, 80
2, 68387, Note_on_c, 0, 59, 80
2, 68388, Note_on_c, 0, 55, 80
2, 68398, Note_on_c, 0, 62, 0
2, 68433, Note_on_c, 0, 59, 0
2, 68435, Note_on_c, 0, 55, 0
2, 68436, Note_on_c, 0, 50, 0
2, 68547, Note_on_c, 0, 62, 80
2, 68564, Note_on_c, 0, 62, 0
2, 68569, Note_on_c, 0, 64, 80
2, 68584, Note_on_c, 0, 64, 0
2, 68595, Note_on_c, 0, 66, 80
2, 68606, Note_on_c, 0, 66, 0
2, 68628, Note_on_c, 0, 67, 80
2, 68684, Note_on_c, 0, 59, 80
2, 68685, Note_on_c, 0, 55, 80
2, 68700, Note_on_c, 0, 59, 0
2, 68706, Note_on_c, 0, 55, 0
2, 68748, Note_on_c, 0, 55, 80
2, 68749, Note_on_c, 0, 60, 80
2, 68777, Note_on_c, 0, 67, 0
2, 68778, Note_on_c, 0, 55, 0
2, 68778, Note_on_c, 0, 60, 0
2, 68900, Note_on_c, 0, 67, 80
2, 68919, Note_on_c, 0, 67, 0
2, 68923, Note_on_c, 0, 69, 80
2, 68937, Note_on_c, 0, 69, 0
2, 68953, Note_on_c, 0, 71, 80
2, 68961, Note_on_c, 0, 71, 0
2, 68984, Note_on_c, 0, 72, 80
2, 69039, Note_on_c, 0, 60, 80
2, 69040, Note_on_c, 0, 64, 80
2, 69054, Note_on_c, 0, 64, 0
2, 69057, Note_on_c, 0, 60, 0
2, 69101, Note_on_c, 0, 66, 80
2, 69101, Note_on_c, 0, 60, 80
2, 69102, Note_on_c, 0, 69, 80
2, 69113, Note_on_c, 0, 72, 0
2, 69149, Note_on_c, 0, 69, 0
2, 69151, Note_on_c, 0, 60, 0
2, 69152, Note_on_c, 0, 66, 0
2, 69243, Note_on_c, 0, 69, 80
2, 69270, Note_on_c, 0, 69, 0
2, 69273, Note_on_c, 0, 71, 80
2, 69292, Note_on_c, 0, 71, 0
2, 69303, Note_on_c, 0, 72, 80
2, 69322, Note_on_c, 0, 72, 0
2, 69336, Note_on_c, 0, 74, 80
2, 69373, Note_on_c, 0, 62, 80
2, 69400, Note_on_c, 0, 66, 80
2, 69402, Note_on_c, 0, 62, 0
2, 69427, Note_on_c, 0, 62, 80
2, 69429, Note_on_c, 0, 66, 0
2, 69459, Note_on_c, 0, 67, 80
2, 69473, Note_on_c, 0, 74, 0
2, 69522, Note_on_c, 0, 67, 0
2, 69523, Note_on_c, 0, 62, 0
2, 69627, Note_on_c, 0, 74, 80
2, 69654, Note_on_c, 0, 76, 80
2, 69658, Note_on_c, 0, 74, 0
2, 69681, Note_on_c, 0, 76, 0
2, 69682, Note_on_c, 0, 78, 80
2, 69706, Note_on_c, 0, 78, 0
2, 69714, Note_on_c, 0, 79, 80
2, 69742, Note_on_c, 0, 67, 80
2, 69772, Note_on_c, 0, 67, 0
2, 69773, Note_on_c, 0, 71, 80
2, 69801, Note_on_c, 0, 67, 80
2, 69804, Note_on_c, 0, 71, 0
2, 69813, Note_on_c, 0, 67, 0
2, 69830, Note_on_c, 0, 69, 80
2, 69832, Note_on_c, 0, 79, 0
2, 69861, Note_on_c, 0, 79, 80
2, 69891, Note_on_c, 0, 78, 80
2, 69893, Note_on_c, 0, 79, 0
2, 69918, Note_on_c, 0, 78, 0
2, 69920, Note_on_c, 0, 76, 80
2, 69933, Note_on_c, 0, 76, 0
2, 69950, Note_on_c, 0, 78, 80
2, 70193, Note_on_c, 0, 69, 0
2, 70196, Note_on_c, 0, 78, 0
2, 70232, Note_on_c, 0, 69, 65
2, 70258, Note_on_c, 0, 71, 79
2, 70260, Note_on_c, 0, 69, 0
2, 70285, Note_on_c, 0, 71, 0
2, 70285, Note_on_c, 0, 72, 83
2, 70306, Note_on_c, 0, 72, 0
2, 70319, Note_on_c, 0, 74, 80
2, 70346, Note_on_c, 0, 66, 80
2, 70360, Note_on_c, 0, 66, 0
2, 70371, Note_on_c, 0, 67, 80
2, 70395, Note_on_c, 0, 67, 0
2, 70399, Note_on_c, 0, 69, 80
2, 70410, Note_on_c, 0, 69, 0
2, 70431, Note_on_c, 0, 62, 80
2, 70449, Note_on_c, 0, 74, 0
2, 70487, Note_on_c, 0, 60, 80
2, 70487, Note_on_c, 0, 66, 80
2, 70497, Note_on_c, 0, 62, 0
2, 70527, Note_on_c, 0, 60, 0
2, 70530, Note_on_c, 0, 66, 0
2, 70544, Note_on_c, 0, 59, 80
2, 70546, Note_on_c, 0, 67, 80
2, 70586, Note_on_c, 0, 59, 0
2, 70604, Note_on_c, 0, 57, 80
2, 70726, Note_on_c, 0, 59, 80
2, 70729, Note_on_c, 0, 57, 0
2, 70781, Note_on_c, 0, 66, 80
2, 70782, Note_on_c, 0, 67, 0
2, 70783, Note_on_c, 0, 60, 80
2, 70784, Note_on_c, 0, 59, 0
2, 70840, Note_on_c, 0, 62, 80
2, 70841, Note_on_c, 0, 60, 0
2, 70869, Note_on_c, 0, 62, 0
2, 70899, Note_on_c, 0, 66, 0
2, 70903, Note_on_c, 0, 59, 80
2, 70935, Note_on_c, 0, 62, 80
2, 70964, Note_on_c, 0, 64, 80
2, 70967, Note_on_c, 0, 62, 0
2, 70991, Note_on_c, 0, 66, 80
2, 70994, Note_on_c, 0, 64, 0
2, 71009, Note_on_c, 0, 66, 0
2, 71023, Note_on_c, 0, 67, 80
2, 71029, Note_on_c, 0, 59, 0
2, 71051, Note_on_c, 0, 59, 80
2, 71077, Note_on_c, 0, 59, 0
2, 71079, Note_on_c, 0, 60, 80
2, 71107, Note_on_c, 0, 62, 80
2, 71108, Note_on_c, 0, 60, 0
2, 71123, Note_on_c, 0, 62, 0
2, 71145, Note_on_c, 0, 55, 80
2, 71177, Note_on_c, 0, 65, 80
2, 71180, Note_on_c, 0, 67, 0
2, 71205, Note_on_c, 0, 65, 0
2, 71208, Note_on_c, 0, 64, 80
2, 71234, Note_on_c, 0, 64, 0
2, 71234, Note_on_c, 0, 62, 80
2, 71250, Note_on_c, 0, 62, 0
2, 71265, Note_on_c, 0, 64, 80
2, 71300, Note_on_c, 0, 67, 80
2, 71327, Note_on_c, 0, 67, 0
2, 71328, Note_on_c, 0, 69, 80
2, 71335, Note_on_c, 0, 55, 0
2, 71343, Note_on_c, 0, 64, 0
2, 71350, Note_on_c, 0, 69, 0
2, 71355, Note_on_c, 0, 71, 80
2, 71373, Note_on_c, 0, 71, 0
2, 71387, Note_on_c, 0, 72, 80
2, 71419, Note_on_c, 0, 64, 80
2, 71443, Note_on_c, 0, 64, 0
2, 71448, Note_on_c, 0, 65, 80
2, 71480, Note_on_c, 0, 67, 80
2, 71481, Note_on_c, 0, 65, 0
2, 71511, Note_on_c, 0, 60, 80
2, 71514, Note_on_c, 0, 72, 0
2, 71516, Note_on_c, 0, 67, 0
2, 71542, Note_on_c, 0, 72, 80
2, 71565, Note_on_c, 0, 72, 0
2, 71574, Note_on_c, 0, 71, 80
2, 71596, Note_on_c, 0, 71, 0
2, 71597, Note_on_c, 0, 69, 80
2, 71607, Note_on_c, 0, 69, 0
2, 71626, Note_on_c, 0, 60, 0
2, 71629, Note_on_c, 0, 62, 80
2, 71630, Note_on_c, 0, 71, 80
2, 72003, Note_on_c, 0, 62, 0
2, 72004, Note_on_c, 0, 71, 0
2, 72004, End_track
3, 0, Start_track
3, 0, Title_t, "Ped"
3, 0, MIDI_port, 0
3, 0, Control_c, 1, 7, 120
3, 0, Control_c, 1, 91, 115
3, 0, Control_c, 1, 10, 43
3, 0, Program_c, 1, 19
3, 3451, Note_on_c, 1, 50, 80
3, 3561, Note_on_c, 1, 50, 0
3, 3562, Note_on_c, 1, 52, 80
3, 3698, Note_on_c, 1, 52, 0
3, 3698, Note_on_c, 1, 50, 80
3, 3884, Note_on_c, 1, 48, 80
3, 3887, Note_on_c, 1, 50, 0
3, 3945, Note_on_c, 1, 48, 0
3, 3946, Note_on_c, 1, 47, 80
3, 4132, Note_on_c, 1, 47, 0
3, 4132, Note_on_c, 1, 48, 80
3, 4191, Note_on_c, 1, 50, 80
3, 4194, Note_on_c, 1, 48, 0
3, 4312, Note_on_c, 1, 45, 80
3, 4315, Note_on_c, 1, 50, 0
3, 4663, Note_on_c, 1, 47, 80
3, 4664, Note_on_c, 1, 45, 0
3, 4782, Note_on_c, 1, 49, 80
3, 4787, Note_on_c, 1, 47, 0
3, 5024, Note_on_c, 1, 50, 80
3, 5027, Note_on_c, 1, 49, 0
3, 5067, Note_on_c, 1, 50, 0
3, 5083, Note_on_c, 1, 45, 80
3, 5139, Note_on_c, 1, 45, 0
3, 5143, Note_on_c, 1, 50, 80
3, 5199, Note_on_c, 1, 50, 0
3, 5201, Note_on_c, 1, 48, 80
3, 5266, Note_on_c, 1, 47, 80
3, 5269, Note_on_c, 1, 48, 0
3, 5323, Note_on_c, 1, 47, 0
3, 5323, Note_on_c, 1, 45, 80
3, 5381, Note_on_c, 1, 45, 0
3, 5383, Note_on_c, 1, 43, 80
3, 5422, Note_on_c, 1, 43, 0
3, 5443, Note_on_c, 1, 50, 80
3, 5487, Note_on_c, 1, 50, 0
3, 5501, Note_on_c, 1, 55, 80
3, 5560, Note_on_c, 1, 55, 0
3, 5563, Note_on_c, 1, 53, 80
3, 5622, Note_on_c, 1, 52, 80
3, 5625, Note_on_c, 1, 53, 0
3, 5681, Note_on_c, 1, 52, 0
3, 5681, Note_on_c, 1, 50, 80
3, 5745, Note_on_c, 1, 50, 0
3, 5748, Note_on_c, 1, 48, 80
3, 5928, Note_on_c, 1, 47, 80
3, 5933, Note_on_c, 1, 48, 0
3, 5986, Note_on_c, 1, 47, 0
3, 5988, Note_on_c, 1, 45, 80
3, 6106, Note_on_c, 1, 43, 80
3, 6111, Note_on_c, 1, 45, 0
3, 6209, Note_on_c, 1, 43, 0
3, 6243, Note_on_c, 1, 55, 80
3, 6545, Note_on_c, 1, 55, 0
3, 6592, Note_on_c, 1, 54, 80
3, 6797, Note_on_c, 1, 54, 0
3, 6832, Note_on_c, 1, 55, 80
3, 6928, Note_on_c, 1, 55, 0
3, 6942, Note_on_c, 1, 52, 80
3, 7058, Note_on_c, 1, 45, 80
3, 7059, Note_on_c, 1, 52, 0
3, 7154, Note_on_c, 1, 45, 0
3, 7180, Note_on_c, 1, 47, 80
3, 7291, Note_on_c, 1, 47, 0
3, 7304, Note_on_c, 1, 45, 80
3, 7469, Note_on_c, 1, 45, 0
3, 7480, Note_on_c, 1, 43, 80
3, 7531, Note_on_c, 1, 43, 0
3, 7548, Note_on_c, 1, 42, 80
3, 7725, Note_on_c, 1, 42, 0
3, 7726, Note_on_c, 1, 43, 80
3, 7792, Note_on_c, 1, 45, 80
3, 7793, Note_on_c, 1, 43, 0
3, 7879, Note_on_c, 1, 45, 0
3, 7914, Note_on_c, 1, 38, 80
3, 8266, Note_on_c, 1, 40, 80
3, 8271, Note_on_c, 1, 38, 0
3, 8391, Note_on_c, 1, 42, 80
3, 8396, Note_on_c, 1, 40, 0
3, 8628, Note_on_c, 1, 42, 0
3, 8630, Note_on_c, 1, 43, 80
3, 9436, Note_on_c, 1, 43, 0
3, 11879, Note_on_c, 1, 50, 80
3, 11995, Note_on_c, 1, 52, 80
3, 11997, Note_on_c, 1, 50, 0
3, 12110, Note_on_c, 1, 52, 0
3, 12114, Note_on_c, 1, 50, 80
3, 12233, Note_on_c, 1, 45, 80
3, 12236, Note_on_c, 1, 50, 0
3, 12411, Note_on_c, 1, 47, 80
3, 12415, Note_on_c, 1, 45, 0
3, 12472, Note_on_c, 1, 48, 80
3, 12476, Note_on_c, 1, 47, 0
3, 12580, Note_on_c, 1, 48, 0
3, 12589, Note_on_c, 1, 47, 80
3, 12705, Note_on_c, 1, 45, 80
3, 12706, Note_on_c, 1, 47, 0
3, 12942, Note_on_c, 1, 43, 80
3, 12944, Note_on_c, 1, 45, 0
3, 12970, Note_on_c, 1, 43, 0
3, 13003, Note_on_c, 1, 55, 80
3, 13042, Note_on_c, 1, 55, 0
3, 13062, Note_on_c, 1, 60, 80
3, 13120, Note_on_c, 1, 59, 80
3, 13122, Note_on_c, 1, 60, 0
3, 13177, Note_on_c, 1, 57, 80
3, 13179, Note_on_c, 1, 59, 0
3, 13237, Note_on_c, 1, 57, 0
3, 13237, Note_on_c, 1, 55, 80
3, 13306, Note_on_c, 1, 54, 80
3, 13313, Note_on_c, 1, 55, 0
3, 13353, Note_on_c, 1, 54, 0
3, 13366, Note_on_c, 1, 57, 80
3, 13422, Note_on_c, 1, 55, 80
3, 13428, Note_on_c, 1, 57, 0
3, 13482, Note_on_c, 1, 54, 80
3, 13486, Note_on_c, 1, 55, 0
3, 13543, Note_on_c, 1, 54, 0
3, 13543, Note_on_c, 1, 52, 80
3, 13609, Note_on_c, 1, 54, 80
3, 13612, Note_on_c, 1, 52, 0
3, 13671, Note_on_c, 1, 55, 80
3, 13672, Note_on_c, 1, 54, 0
3, 13714, Note_on_c, 1, 55, 0
3, 13732, Note_on_c, 1, 47, 80
3, 13789, Note_on_c, 1, 47, 0
3, 13796, Note_on_c, 1, 48, 80
3, 13849, Note_on_c, 1, 48, 0
3, 13850, Note_on_c, 1, 47, 80
3, 13913, Note_on_c, 1, 48, 80
3, 13924, Note_on_c, 1, 47, 0
3, 13976, Note_on_c, 1, 50, 80
3, 13978, Note_on_c, 1, 48, 0
3, 14026, Note_on_c, 1, 50, 0
3, 14038, Note_on_c, 1, 43, 80
3, 14096, Note_on_c, 1, 45, 80
3, 14104, Note_on_c, 1, 43, 0
3, 14151, Note_on_c, 1, 47, 80
3, 14155, Note_on_c, 1, 45, 0
3, 14194, Note_on_c, 1, 47, 0
3, 14206, Note_on_c, 1, 43, 80
3, 14267, Note_on_c, 1, 43, 0
3, 14269, Note_on_c, 1, 48, 80
3, 14329, Note_on_c, 1, 50, 80
3, 14332, Note_on_c, 1, 48, 0
3, 14387, Note_on_c, 1, 52, 80
3, 14389, Note_on_c, 1, 50, 0
3, 14439, Note_on_c, 1, 52, 0
3, 14439, Note_on_c, 1, 48, 80
3, 14489, Note_on_c, 1, 48, 0
3, 14502, Note_on_c, 1, 55, 80
3, 15233, Note_on_c, 1, 55, 0
3, 18951, Note_on_c, 1, 43, 80
3, 19038, Note_on_c, 1, 43, 0
3, 19067, Note_on_c, 1, 45, 80
3, 19244, Note_on_c, 1, 45, 0
3, 19244, Note_on_c, 1, 47, 80
3, 19300, Note_on_c, 1, 47, 0
3, 19302, Note_on_c, 1, 48, 80
3, 19423, Note_on_c, 1, 47, 80
3, 19424, Note_on_c, 1, 48, 0
3, 19498, Note_on_c, 1, 47, 0
3, 19544, Note_on_c, 1, 50, 80
3, 19739, Note_on_c, 1, 50, 0
3, 19777, Note_on_c, 1, 45, 80
3, 19965, Note_on_c, 1, 45, 0
3, 19966, Note_on_c, 1, 43, 80
3, 19999, Note_on_c, 1, 43, 0
3, 20026, Note_on_c, 1, 42, 80
3, 20197, Note_on_c, 1, 42, 0
3, 20202, Note_on_c, 1, 43, 80
3, 20263, Note_on_c, 1, 43, 0
3, 20265, Note_on_c, 1, 40, 80
3, 20496, Note_on_c, 1, 40, 0
3, 20506, Note_on_c, 1, 38, 80
3, 20706, Note_on_c, 1, 38, 0
3, 20753, Note_on_c, 1, 40, 80
3, 20852, Note_on_c, 1, 40, 0
3, 20867, Note_on_c, 1, 42, 80
3, 21043, Note_on_c, 1, 42, 0
3, 21047, Note_on_c, 1, 43, 80
3, 21108, Note_on_c, 1, 45, 80
3, 21109, Note_on_c, 1, 43, 0
3, 21205, Note_on_c, 1, 45, 0
3, 21232, Note_on_c, 1, 43, 80
3, 21291, Note_on_c, 1, 45, 80
3, 21293, Note_on_c, 1, 43, 0
3, 21349, Note_on_c, 1, 47, 80
3, 21351, Note_on_c, 1, 45, 0
3, 21435, Note_on_c, 1, 47, 0
3, 21476, Note_on_c, 1, 48, 80
3, 21533, Note_on_c, 1, 47, 80
3, 21537, Note_on_c, 1, 48, 0
3, 21582, Note_on_c, 1, 47, 0
3, 21595, Note_on_c, 1, 45, 80
3, 21651, Note_on_c, 1, 45, 0
3, 21651, Note_on_c, 1, 43, 80
3, 21710, Note_on_c, 1, 42, 80
3, 21712, Note_on_c, 1, 43, 0
3, 21769, Note_on_c, 1, 42, 0
3, 21770, Note_on_c, 1, 40, 80
3, 21832, Note_on_c, 1, 42, 80
3, 21835, Note_on_c, 1, 40, 0
3, 21891, Note_on_c, 1, 42, 0
3, 21892, Note_on_c, 1, 38, 80
3, 21936, Note_on_c, 1, 38, 0
3, 21950, Note_on_c, 1, 43, 80
3, 22322, Note_on_c, 1, 43, 0
3, 22366, Note_on_c, 1, 55, 80
3, 22420, Note_on_c, 1, 54, 80
3, 22423, Note_on_c, 1, 55, 0
3, 22478, Note_on_c, 1, 52, 80
3, 22480, Note_on_c, 1, 54, 0
3, 22540, Note_on_c, 1, 52, 0
3, 22541, Note_on_c, 1, 50, 80
3, 22601, Note_on_c, 1, 49, 80
3, 22602, Note_on_c, 1, 50, 0
3, 22661, Note_on_c, 1, 47, 80
3, 22663, Note_on_c, 1, 49, 0
3, 22720, Note_on_c, 1, 47, 0
3, 22721, Note_on_c, 1, 45, 80
3, 22782, Note_on_c, 1, 43, 80
3, 22783, Note_on_c, 1, 45, 0
3, 22842, Note_on_c, 1, 40, 80
3, 22844, Note_on_c, 1, 43, 0
3, 22903, Note_on_c, 1, 40, 0
3, 22903, Note_on_c, 1, 45, 80
3, 22991, Note_on_c, 1, 45, 0
3, 23027, Note_on_c, 1, 38, 80
3, 23087, Note_on_c, 1, 40, 80
3, 23095, Note_on_c, 1, 38, 0
3, 23144, Note_on_c, 1, 42, 80
3, 23155, Note_on_c, 1, 40, 0
3, 23178, Note_on_c, 1, 42, 0
3, 23201, Note_on_c, 1, 38, 80
3, 23244, Note_on_c, 1, 38, 0
3, 23261, Note_on_c, 1, 43, 80
3, 23316, Note_on_c, 1, 43, 0
3, 23320, Note_on_c, 1, 45, 80
3, 23375, Note_on_c, 1, 45, 0
3, 23378, Note_on_c, 1, 47, 80
3, 23422, Note_on_c, 1, 47, 0
3, 23439, Note_on_c, 1, 43, 80
3, 23473, Note_on_c, 1, 43, 0
3, 23506, Note_on_c, 1, 50, 80
3, 23861, Note_on_c, 1, 50, 0
3, 29150, Note_on_c, 1, 38, 80
3, 29254, Note_on_c, 1, 38, 0
3, 29269, Note_on_c, 1, 43, 80
3, 29382, Note_on_c, 1, 45, 80
3, 29383, Note_on_c, 1, 43, 0
3, 29490, Note_on_c, 1, 45, 0
3, 29504, Note_on_c, 1, 47, 80
3, 29685, Note_on_c, 1, 47, 0
3, 29686, Note_on_c, 1, 48, 80
3, 29748, Note_on_c, 1, 48, 0
3, 29748, Note_on_c, 1, 50, 80
3, 29986, Note_on_c, 1, 50, 0
3, 29989, Note_on_c, 1, 48, 80
3, 30265, Note_on_c, 1, 48, 0
3, 30282, Note_on_c, 1, 47, 80
3, 30324, Note_on_c, 1, 47, 0
3, 30340, Note_on_c, 1, 45, 80
3, 30586, Note_on_c, 1, 47, 80
3, 30591, Note_on_c, 1, 45, 0
3, 30695, Note_on_c, 1, 47, 0
3, 30707, Note_on_c, 1, 52, 80
3, 30766, Note_on_c, 1, 50, 80
3, 30770, Note_on_c, 1, 52, 0
3, 30820, Note_on_c, 1, 50, 0
3, 30831, Note_on_c, 1, 48, 80
3, 30884, Note_on_c, 1, 48, 0
3, 30893, Note_on_c, 1, 50, 80
3, 30929, Note_on_c, 1, 50, 0
3, 30956, Note_on_c, 1, 43, 80
3, 31001, Note_on_c, 1, 43, 0
3, 31017, Note_on_c, 1, 50, 80
3, 31047, Note_on_c, 1, 50, 0
3, 31078, Note_on_c, 1, 55, 80
3, 31241, Note_on_c, 1, 53, 80
3, 31243, Note_on_c, 1, 55, 0
3, 31297, Note_on_c, 1, 53, 0
3, 31300, Note_on_c, 1, 52, 80
3, 31357, Note_on_c, 1, 52, 0
3, 31359, Note_on_c, 1, 45, 80
3, 31402, Note_on_c, 1, 45, 0
3, 31478, Note_on_c, 1, 57, 80
3, 31537, Note_on_c, 1, 52, 80
3, 31538, Note_on_c, 1, 57, 0
3, 31601, Note_on_c, 1, 54, 80
3, 31602, Note_on_c, 1, 52, 0
3, 31663, Note_on_c, 1, 54, 0
3, 31664, Note_on_c, 1, 55, 80
3, 31742, Note_on_c, 1, 55, 0
3, 31836, Note_on_c, 1, 55, 80
3, 31894, Note_on_c, 1, 55, 0
3, 31897, Note_on_c, 1, 54, 80
3, 31954, Note_on_c, 1, 54, 0
3, 31957, Note_on_c, 1, 52, 80
3, 32021, Note_on_c, 1, 51, 80
3, 32022, Note_on_c, 1, 52, 0
3, 32135, Note_on_c, 1, 51, 0
3, 32141, Note_on_c, 1, 52, 80
3, 32261, Note_on_c, 1, 54, 80
3, 32263, Note_on_c, 1, 52, 0
3, 32362, Note_on_c, 1, 54, 0
3, 32374, Note_on_c, 1, 55, 80
3, 32489, Note_on_c, 1, 55, 0
3, 32494, Note_on_c, 1, 57, 80
3, 32621, Note_on_c, 1, 59, 80
3, 32622, Note_on_c, 1, 57, 0
3, 32707, Note_on_c, 1, 59, 0
3, 32739, Note_on_c, 1, 52, 80
3, 32873, Note_on_c, 1, 52, 0
3, 35972, Note_on_c, 1, 47, 80
3, 36021, Note_on_c, 1, 47, 0
3, 36026, Note_on_c, 1, 49, 80
3, 36075, Note_on_c, 1, 49, 0
3, 36091, Note_on_c, 1, 50, 80
3, 36224, Note_on_c, 1, 52, 80
3, 36226, Note_on_c, 1, 50, 0
3, 36332, Note_on_c, 1, 52, 0
3, 36342, Note_on_c, 1, 50, 80
3, 36557, Note_on_c, 1, 50, 0
3, 36586, Note_on_c, 1, 45, 80
3, 36680, Note_on_c, 1, 45, 0
3, 36706, Note_on_c, 1, 47, 80
3, 36828, Note_on_c, 1, 47, 0
3, 36828, Note_on_c, 1, 49, 80
3, 37072, Note_on_c, 1, 49, 0
3, 37072, Note_on_c, 1, 50, 80
3, 37202, Note_on_c, 1, 50, 0
3, 37242, Note_on_c, 1, 52, 80
3, 37302, Note_on_c, 1, 52, 0
3, 37303, Note_on_c, 1, 54, 80
3, 37362, Note_on_c, 1, 50, 80
3, 37363, Note_on_c, 1, 54, 0
3, 37414, Note_on_c, 1, 50, 0
3, 37419, Note_on_c, 1, 55, 80
3, 37480, Note_on_c, 1, 57, 80
3, 37484, Note_on_c, 1, 55, 0
3, 37546, Note_on_c, 1, 59, 80
3, 37549, Note_on_c, 1, 57, 0
3, 37607, Note_on_c, 1, 55, 80
3, 37611, Note_on_c, 1, 59, 0
3, 37668, Note_on_c, 1, 55, 0
3, 37669, Note_on_c, 1, 60, 80
3, 37801, Note_on_c, 1, 60, 0
3, 37853, Note_on_c, 1, 60, 80
3, 37912, Note_on_c, 1, 59, 80
3, 37914, Note_on_c, 1, 60, 0
3, 37971, Note_on_c, 1, 57, 80
3, 37973, Note_on_c, 1, 59, 0
3, 38033, Note_on_c, 1, 55, 80
3, 38038, Note_on_c, 1, 57, 0
3, 38093, Note_on_c, 1, 54, 80
3, 38096, Note_on_c, 1, 55, 0
3, 38154, Note_on_c, 1, 55, 80
3, 38167, Note_on_c, 1, 54, 0
3, 38215, Note_on_c, 1, 59, 80
3, 38216, Note_on_c, 1, 55, 0
3, 38277, Note_on_c, 1, 52, 80
3, 38278, Note_on_c, 1, 59, 0
3, 38329, Note_on_c, 1, 52, 0
3, 38330, Note_on_c, 1, 57, 80
3, 38385, Note_on_c, 1, 55, 80
3, 38393, Note_on_c, 1, 57, 0
3, 38446, Note_on_c, 1, 55, 0
3, 38446, Note_on_c, 1, 57, 80
3, 38487, Note_on_c, 1, 57, 0
3, 38505, Note_on_c, 1, 50, 80
3, 38803, Note_on_c, 1, 48, 80
3, 38807, Note_on_c, 1, 50, 0
3, 38855, Note_on_c, 1, 48, 0
3, 38862, Note_on_c, 1, 47, 80
3, 38921, Note_on_c, 1, 45, 80
3, 38922, Note_on_c, 1, 47, 0
3, 38981, Note_on_c, 1, 45, 0
3, 38981, Note_on_c, 1, 43, 80
3, 39012, Note_on_c, 1, 43, 0
3, 39044, Note_on_c, 1, 55, 80
3, 39087, Note_on_c, 1, 55, 0
3, 39106, Note_on_c, 1, 54, 80
3, 39164, Note_on_c, 1, 52, 80
3, 39168, Note_on_c, 1, 54, 0
3, 39204, Note_on_c, 1, 52, 0
3, 39225, Note_on_c, 1, 50, 80
3, 39262, Note_on_c, 1, 50, 0
3, 39285, Note_on_c, 1, 43, 80
3, 39317, Note_on_c, 1, 43, 0
3, 39342, Note_on_c, 1, 45, 80
3, 39551, Note_on_c, 1, 45, 0
3, 39589, Note_on_c, 1, 38, 80
3, 39723, Note_on_c, 1, 38, 0
3, 41755, Note_on_c, 1, 50, 80
3, 41865, Note_on_c, 1, 50, 0
3, 41872, Note_on_c, 1, 52, 80
3, 41980, Note_on_c, 1, 52, 0
3, 41984, Note_on_c, 1, 50, 80
3, 42100, Note_on_c, 1, 50, 0
3, 42104, Note_on_c, 1, 45, 80
3, 42322, Note_on_c, 1, 45, 0
3, 42340, Note_on_c, 1, 48, 80
3, 42456, Note_on_c, 1, 48, 0
3, 42465, Note_on_c, 1, 47, 80
3, 42598, Note_on_c, 1, 47, 0
3, 42600, Note_on_c, 1, 45, 80
3, 42832, Note_on_c, 1, 43, 80
3, 42835, Note_on_c, 1, 45, 0
3, 42873, Note_on_c, 1, 43, 0
3, 42897, Note_on_c, 1, 55, 80
3, 42941, Note_on_c, 1, 55, 0
3, 42957, Note_on_c, 1, 60, 80
3, 43013, Note_on_c, 1, 60, 0
3, 43017, Note_on_c, 1, 59, 80
3, 43071, Note_on_c, 1, 59, 0
3, 43073, Note_on_c, 1, 57, 80
3, 43127, Note_on_c, 1, 55, 80
3, 43128, Note_on_c, 1, 57, 0
3, 43184, Note_on_c, 1, 54, 80
3, 43190, Note_on_c, 1, 55, 0
3, 43245, Note_on_c, 1, 52, 80
3, 43250, Note_on_c, 1, 54, 0
3, 43304, Note_on_c, 1, 52, 0
3, 43305, Note_on_c, 1, 50, 80
3, 43365, Note_on_c, 1, 48, 80
3, 43368, Note_on_c, 1, 50, 0
3, 43426, Note_on_c, 1, 47, 80
3, 43432, Note_on_c, 1, 48, 0
3, 43487, Note_on_c, 1, 45, 80
3, 43490, Note_on_c, 1, 47, 0
3, 43546, Note_on_c, 1, 45, 0
3, 43550, Note_on_c, 1, 43, 80
3, 43589, Note_on_c, 1, 43, 0
3, 43607, Note_on_c, 1, 47, 80
3, 43647, Note_on_c, 1, 47, 0
3, 43665, Note_on_c, 1, 48, 80
3, 43711, Note_on_c, 1, 48, 0
3, 43723, Note_on_c, 1, 45, 80
3, 43759, Note_on_c, 1, 45, 0
3, 43780, Note_on_c, 1, 50, 80
3, 43815, Note_on_c, 1, 50, 0
3, 43842, Note_on_c, 1, 38, 80
3, 43873, Note_on_c, 1, 38, 0
3, 43910, Note_on_c, 1, 40, 80
3, 43979, Note_on_c, 1, 40, 0
3, 44026, Note_on_c, 1, 52, 80
3, 44083, Note_on_c, 1, 50, 80
3, 44088, Note_on_c, 1, 52, 0
3, 44142, Note_on_c, 1, 52, 80
3, 44145, Note_on_c, 1, 50, 0
3, 44192, Note_on_c, 1, 52, 0
3, 44198, Note_on_c, 1, 48, 80
3, 44240, Note_on_c, 1, 48, 0
3, 44269, Note_on_c, 1, 55, 80
3, 44709, Note_on_c, 1, 55, 0
3, 44756, Note_on_c, 1, 43, 80
3, 44867, Note_on_c, 1, 43, 0
3, 48454, Note_on_c, 1, 43, 80
3, 48551, Note_on_c, 1, 43, 0
3, 48574, Note_on_c, 1, 45, 80
3, 48756, Note_on_c, 1, 45, 0
3, 48756, Note_on_c, 1, 47, 80
3, 48819, Note_on_c, 1, 48, 80
3, 48821, Note_on_c, 1, 47, 0
3, 48940, Note_on_c, 1, 47, 80
3, 48946, Note_on_c, 1, 48, 0
3, 49045, Note_on_c, 1, 47, 0
3, 49068, Note_on_c, 1, 50, 80
3, 49257, Note_on_c, 1, 50, 0
3, 49299, Note_on_c, 1, 45, 80
3, 49479, Note_on_c, 1, 43, 80
3, 49481, Note_on_c, 1, 45, 0
3, 49538, Note_on_c, 1, 42, 80
3, 49543, Note_on_c, 1, 43, 0
3, 49687, Note_on_c, 1, 42, 0
3, 49716, Note_on_c, 1, 43, 80
3, 49759, Note_on_c, 1, 43, 0
3, 49779, Note_on_c, 1, 40, 80
3, 49986, Note_on_c, 1, 40, 0
3, 50017, Note_on_c, 1, 38, 80
3, 50207, Note_on_c, 1, 38, 0
3, 50261, Note_on_c, 1, 40, 80
3, 50382, Note_on_c, 1, 40, 0
3, 50384, Note_on_c, 1, 42, 80
3, 50559, Note_on_c, 1, 42, 0
3, 50559, Note_on_c, 1, 43, 80
3, 50625, Note_on_c, 1, 45, 80
3, 50627, Note_on_c, 1, 43, 0
3, 50726, Note_on_c, 1, 45, 0
3, 50744, Note_on_c, 1, 43, 80
3, 50807, Note_on_c, 1, 45, 80
3, 50812, Note_on_c, 1, 43, 0
3, 50869, Note_on_c, 1, 47, 80
3, 50870, Note_on_c, 1, 45, 0
3, 50935, Note_on_c, 1, 47, 0
3, 50980, Note_on_c, 1, 48, 80
3, 51035, Note_on_c, 1, 48, 0
3, 51040, Note_on_c, 1, 47, 80
3, 51080, Note_on_c, 1, 47, 0
3, 51098, Note_on_c, 1, 45, 80
3, 51163, Note_on_c, 1, 45, 0
3, 51163, Note_on_c, 1, 43, 80
3, 51226, Note_on_c, 1, 42, 80
3, 51227, Note_on_c, 1, 43, 0
3, 51283, Note_on_c, 1, 42, 0
3, 51284, Note_on_c, 1, 40, 80
3, 51332, Note_on_c, 1, 40, 0
3, 51341, Note_on_c, 1, 42, 80
3, 51383, Note_on_c, 1, 42, 0
3, 51396, Note_on_c, 1, 38, 80
3, 51427, Note_on_c, 1, 38, 0
3, 51460, Note_on_c, 1, 43, 80
3, 51813, Note_on_c, 1, 43, 0
3, 51877, Note_on_c, 1, 55, 80
3, 51931, Note_on_c, 1, 54, 80
3, 51934, Note_on_c, 1, 55, 0
3, 51992, Note_on_c, 1, 52, 80
3, 51995, Note_on_c, 1, 54, 0
3, 52053, Note_on_c, 1, 52, 0
3, 52054, Note_on_c, 1, 50, 80
3, 52116, Note_on_c, 1, 49, 80
3, 52118, Note_on_c, 1, 50, 0
3, 52168, Note_on_c, 1, 49, 0
3, 52176, Note_on_c, 1, 47, 80
3, 52242, Note_on_c, 1, 47, 0
3, 52250, Note_on_c, 1, 45, 80
3, 52306, Note_on_c, 1, 43, 80
3, 52307, Note_on_c, 1, 45, 0
3, 52364, Note_on_c, 1, 43, 0
3, 52365, Note_on_c, 1, 40, 80
3, 52428, Note_on_c, 1, 40, 0
3, 52432, Note_on_c, 1, 45, 80
3, 52527, Note_on_c, 1, 45, 0
3, 52556, Note_on_c, 1, 38, 80
3, 52618, Note_on_c, 1, 40, 80
3, 52625, Note_on_c, 1, 38, 0
3, 52674, Note_on_c, 1, 42, 80
3, 52678, Note_on_c, 1, 40, 0
3, 52723, Note_on_c, 1, 42, 0
3, 52731, Note_on_c, 1, 38, 80
3, 52777, Note_on_c, 1, 38, 0
3, 52788, Note_on_c, 1, 43, 80
3, 52844, Note_on_c, 1, 43, 0
3, 52844, Note_on_c, 1, 45, 80
3, 52901, Note_on_c, 1, 45, 0
3, 52902, Note_on_c, 1, 47, 80
3, 52957, Note_on_c, 1, 47, 0
3, 52959, Note_on_c, 1, 43, 80
3, 53022, Note_on_c, 1, 50, 80
3, 53023, Note_on_c, 1, 43, 0
3, 53392, Note_on_c, 1, 50, 0
3, 57218, Note_on_c, 1, 38, 80
3, 57322, Note_on_c, 1, 38, 0
3, 57334, Note_on_c, 1, 43, 80
3, 57452, Note_on_c, 1, 45, 80
3, 57453, Note_on_c, 1, 43, 0
3, 57578, Note_on_c, 1, 45, 0
3, 57583, Note_on_c, 1, 47, 80
3, 57761, Note_on_c, 1, 47, 0
3, 57763, Note_on_c, 1, 48, 80
3, 57820, Note_on_c, 1, 50, 80
3, 57825, Note_on_c, 1, 48, 0
3, 57978, Note_on_c, 1, 50, 0
3, 58010, Note_on_c, 1, 43, 80
3, 58046, Note_on_c, 1, 43, 0
3, 58074, Note_on_c, 1, 48, 80
3, 58364, Note_on_c, 1, 47, 80
3, 58368, Note_on_c, 1, 48, 0
3, 58427, Note_on_c, 1, 47, 0
3, 58429, Note_on_c, 1, 45, 80
3, 58559, Note_on_c, 1, 45, 0
3, 58598, Note_on_c, 1, 47, 80
3, 58635, Note_on_c, 1, 47, 0
3, 58661, Note_on_c, 1, 40, 80
3, 58772, Note_on_c, 1, 40, 0
3, 58776, Note_on_c, 1, 42, 80
3, 59006, Note_on_c, 1, 42, 0
3, 59024, Note_on_c, 1, 43, 80
3, 59271, Note_on_c, 1, 43, 0
3, 59448, Note_on_c, 1, 60, 80
3, 59505, Note_on_c, 1, 60, 0
3, 59506, Note_on_c, 1, 59, 80
3, 59562, Note_on_c, 1, 57, 80
3, 59563, Note_on_c, 1, 59, 0
3, 59621, Note_on_c, 1, 57, 0
3, 59622, Note_on_c, 1, 55, 80
3, 59684, Note_on_c, 1, 54, 80
3, 59689, Note_on_c, 1, 55, 0
3, 59743, Note_on_c, 1, 54, 0
3, 59745, Note_on_c, 1, 52, 80
3, 59885, Note_on_c, 1, 52, 0
3, 59932, Note_on_c, 1, 50, 80
3, 59992, Note_on_c, 1, 52, 80
3, 60000, Note_on_c, 1, 50, 0
3, 60052, Note_on_c, 1, 54, 80
3, 60056, Note_on_c, 1, 52, 0
3, 60114, Note_on_c, 1, 54, 0
3, 60115, Note_on_c, 1, 55, 80
3, 60257, Note_on_c, 1, 55, 0
3, 60289, Note_on_c, 1, 53, 80
3, 60349, Note_on_c, 1, 52, 80
3, 60356, Note_on_c, 1, 53, 0
3, 60408, Note_on_c, 1, 50, 80
3, 60409, Note_on_c, 1, 52, 0
3, 60468, Note_on_c, 1, 50, 0
3, 60470, Note_on_c, 1, 48, 80
3, 60524, Note_on_c, 1, 47, 80
3, 60535, Note_on_c, 1, 48, 0
3, 60583, Note_on_c, 1, 47, 0
3, 60584, Note_on_c, 1, 45, 80
3, 60675, Note_on_c, 1, 45, 0
3, 60710, Note_on_c, 1, 50, 80
3, 60800, Note_on_c, 1, 50, 0
3, 60829, Note_on_c, 1, 52, 80
3, 60941, Note_on_c, 1, 52, 0
3, 60946, Note_on_c, 1, 47, 80
3, 61174, Note_on_c, 1, 47, 0
3, 61180, Note_on_c, 1, 48, 80
3, 61340, Note_on_c, 1, 48, 0
3, 61359, Note_on_c, 1, 47, 80
3, 61401, Note_on_c, 1, 47, 0
3, 61419, Note_on_c, 1, 45, 80
3, 61458, Note_on_c, 1, 45, 0
3, 61477, Note_on_c, 1, 50, 80
3, 61505, Note_on_c, 1, 50, 0
3, 61537, Note_on_c, 1, 43, 80
3, 61660, Note_on_c, 1, 43, 0
3, 64484, Note_on_c, 1, 45, 80
3, 64543, Note_on_c, 1, 45, 0
3, 64547, Note_on_c, 1, 47, 80
3, 64608, Note_on_c, 1, 45, 80
3, 64609, Note_on_c, 1, 47, 0
3, 64668, Note_on_c, 1, 43, 80
3, 64669, Note_on_c, 1, 45, 0
3, 64724, Note_on_c, 1, 42, 80
3, 64726, Note_on_c, 1, 43, 0
3, 64774, Note_on_c, 1, 42, 0
3, 64785, Note_on_c, 1, 40, 80
3, 64998, Note_on_c, 1, 40, 0
3, 65028, Note_on_c, 1, 45, 80
3, 65134, Note_on_c, 1, 45, 0
3, 65146, Note_on_c, 1, 40, 80
3, 65261, Note_on_c, 1, 42, 80
3, 65263, Note_on_c, 1, 40, 0
3, 65501, Note_on_c, 1, 42, 0
3, 65504, Note_on_c, 1, 43, 80
3, 65534, Note_on_c, 1, 43, 0
3, 65570, Note_on_c, 1, 50, 80
3, 65607, Note_on_c, 1, 50, 0
3, 65627, Note_on_c, 1, 55, 80
3, 65680, Note_on_c, 1, 55, 0
3, 65684, Note_on_c, 1, 54, 80
3, 65742, Note_on_c, 1, 54, 0
3, 65742, Note_on_c, 1, 52, 80
3, 65798, Note_on_c, 1, 52, 0
3, 65799, Note_on_c, 1, 50, 80
3, 65863, Note_on_c, 1, 50, 0
3, 65865, Note_on_c, 1, 49, 80
3, 66215, Note_on_c, 1, 49, 0
3, 66217, Note_on_c, 1, 50, 80
3, 66328, Note_on_c, 1, 50, 0
3, 66346, Note_on_c, 1, 43, 80
3, 66404, Note_on_c, 1, 43, 0
3, 66405, Note_on_c, 1, 45, 80
3, 66464, Note_on_c, 1, 45, 0
3, 66466, Note_on_c, 1, 47, 80
3, 66580, Note_on_c, 1, 47, 0
3, 66594, Note_on_c, 1, 48, 80
3, 66653, Note_on_c, 1, 50, 80
3, 66656, Note_on_c, 1, 48, 0
3, 66714, Note_on_c, 1, 50, 0
3, 66715, Note_on_c, 1, 52, 80
3, 66775, Note_on_c, 1, 50, 80
3, 66777, Note_on_c, 1, 52, 0
3, 66833, Note_on_c, 1, 48, 80
3, 66839, Note_on_c, 1, 50, 0
3, 66892, Note_on_c, 1, 47, 80
3, 66893, Note_on_c, 1, 48, 0
3, 66940, Note_on_c, 1, 47, 0
3, 66948, Note_on_c, 1, 48, 80
3, 66990, Note_on_c, 1, 48, 0
3, 67002, Note_on_c, 1, 52, 80
3, 67056, Note_on_c, 1, 50, 80
3, 67059, Note_on_c, 1, 52, 0
3, 67115, Note_on_c, 1, 50, 0
3, 67116, Note_on_c, 1, 48, 80
3, 67182, Note_on_c, 1, 48, 0
3, 67182, Note_on_c, 1, 47, 80
3, 67240, Note_on_c, 1, 45, 80
3, 67243, Note_on_c, 1, 47, 0
3, 67303, Note_on_c, 1, 47, 80
3, 67311, Note_on_c, 1, 45, 0
3, 67441, Note_on_c, 1, 47, 0
3, 67457, Control_c, 1, 7, 86
3, 67470, Control_c, 1, 7, 88
3, 67474, Control_c, 1, 7, 92
3, 67479, Control_c, 1, 7, 93
3, 67492, Control_c, 1, 7, 95
3, 67497, Control_c, 1, 7, 99
3, 67501, Control_c, 1, 7, 103
3, 67581, Note_on_c, 1, 43, 80
3, 67606, Note_on_c, 1, 43, 0
3, 67611, Note_on_c, 1, 47, 80
3, 67629, Note_on_c, 1, 47, 0
3, 67639, Note_on_c, 1, 43, 80
3, 67659, Note_on_c, 1, 43, 0
3, 67666, Note_on_c, 1, 48, 80
3, 67711, Note_on_c, 1, 48, 0
3, 67933, Note_on_c, 1, 45, 80
3, 67951, Note_on_c, 1, 45, 0
3, 67960, Note_on_c, 1, 48, 80
3, 67978, Note_on_c, 1, 48, 0
3, 67987, Note_on_c, 1, 45, 80
3, 68001, Note_on_c, 1, 45, 0
3, 68017, Note_on_c, 1, 50, 80
3, 68063, Note_on_c, 1, 50, 0
3, 68292, Note_on_c, 1, 50, 80
3, 68308, Note_on_c, 1, 50, 0
3, 68321, Note_on_c, 1, 54, 80
3, 68335, Note_on_c, 1, 54, 0
3, 68351, Note_on_c, 1, 50, 80
3, 68363, Note_on_c, 1, 50, 0
3, 68382, Note_on_c, 1, 55, 80
3, 68439, Note_on_c, 1, 55, 0
3, 68655, Note_on_c, 1, 55, 80
3, 68669, Note_on_c, 1, 55, 0
3, 68683, Note_on_c, 1, 59, 80
3, 68697, Note_on_c, 1, 59, 0
3, 68709, Note_on_c, 1, 55, 80
3, 68722, Note_on_c, 1, 55, 0
3, 68740, Note_on_c, 1, 60, 80
3, 68787, Note_on_c, 1, 60, 0
3, 69012, Note_on_c, 1, 57, 80
3, 69027, Note_on_c, 1, 57, 0
3, 69041, Note_on_c, 1, 60, 80
3, 69055, Note_on_c, 1, 60, 0
3, 69065, Note_on_c, 1, 57, 80
3, 69076, Note_on_c, 1, 57, 0
3, 69096, Note_on_c, 1, 62, 80
3, 69959, Note_on_c, 1, 62, 0
3, 69979, Note_on_c, 1, 62, 80
3, 70007, Note_on_c, 1, 57, 80
3, 70008, Note_on_c, 1, 62, 0
3, 70033, Note_on_c, 1, 57, 0
3, 70035, Note_on_c, 1, 60, 80
3, 70051, Note_on_c, 1, 60, 0
3, 70065, Note_on_c, 1, 54, 80
3, 70090, Note_on_c, 1, 54, 0
3, 70091, Note_on_c, 1, 57, 80
3, 70118, Note_on_c, 1, 57, 0
3, 70122, Note_on_c, 1, 50, 80
3, 70150, Note_on_c, 1, 54, 80
3, 70151, Note_on_c, 1, 50, 0
3, 70172, Note_on_c, 1, 54, 0
3, 70192, Note_on_c, 1, 47, 80
3, 70243, Note_on_c, 1, 47, 0
3, 70262, Note_on_c, 1, 52, 80
3, 70314, Note_on_c, 1, 52, 0
3, 70322, Note_on_c, 1, 50, 80
3, 70374, Note_on_c, 1, 50, 0
3, 70379, Note_on_c, 1, 48, 80
3, 70425, Note_on_c, 1, 48, 0
3, 70430, Note_on_c, 1, 47, 80
3, 70480, Note_on_c, 1, 47, 0
3, 70483, Note_on_c, 1, 45, 80
3, 70529, Note_on_c, 1, 45, 0
3, 70541, Note_on_c, 1, 47, 80
3, 70580, Note_on_c, 1, 47, 0
3, 70599, Note_on_c, 1, 48, 80
3, 70625, Note_on_c, 1, 48, 0
3, 70657, Note_on_c, 1, 50, 80
3, 70722, Note_on_c, 1, 50, 0
3, 70787, Note_on_c, 1, 38, 80
3, 70859, Note_on_c, 1, 38, 0
3, 70899, Note_on_c, 1, 43, 80
3, 71055, Note_on_c, 1, 43, 0
3, 71077, Note_on_c, 1, 45, 80
3, 71132, Note_on_c, 1, 45, 0
3, 71137, Note_on_c, 1, 47, 80
3, 71179, Note_on_c, 1, 47, 0
3, 71200, Note_on_c, 1, 43, 80
3, 71239, Note_on_c, 1, 43, 0
3, 71263, Note_on_c, 1, 48, 80
3, 71395, Note_on_c, 1, 48, 0
3, 71445, Note_on_c, 1, 38, 80
3, 71485, Note_on_c, 1, 38, 0
3, 71506, Note_on_c, 1, 40, 80
3, 71544, Note_on_c, 1, 40, 0
3, 71568, Note_on_c, 1, 36, 80
3, 71606, Note_on_c, 1, 36, 0
3, 71630, Note_on_c, 1, 43, 80
3, 71988, Note_on_c, 1, 43, 0
3, 71988, End_track
4, 0, Start_track
4, 0, Title_t, "Ped 16"
4, 0, MIDI_port, 0
4, 0, Control_c, 1, 7, 118
4, 0, Control_c, 1, 91, 115
4, 0, Control_c, 1, 10, 43
4, 0, Program_c, 1, 79
4, 3451, Note_on_c, 1, 38, 80
4, 3561, Note_on_c, 1, 38, 0
4, 3562, Note_on_c, 1, 40, 80
4, 3698, Note_on_c, 1, 40, 0
4, 3698, Note_on_c, 1, 38, 80
4, 3884, Note_on_c, 1, 36, 80
4, 3887, Note_on_c, 1, 38, 0
4, 3945, Note_on_c, 1, 36, 0
4, 3946, Note_on_c, 1, 35, 80
4, 4132, Note_on_c, 1, 35, 0
4, 4132, Note_on_c, 1, 36, 80
4, 4191, Note_on_c, 1, 38, 80
4, 4194, Note_on_c, 1, 36, 0
4, 4312, Note_on_c, 1, 33, 80
4, 4315, Note_on_c, 1, 38, 0
4, 4663, Note_on_c, 1, 35, 80
4, 4664, Note_on_c, 1, 33, 0
4, 4782, Note_on_c, 1, 37, 80
4, 4787, Note_on_c, 1, 35, 0
4, 5024, Note_on_c, 1, 38, 80
4, 5027, Note_on_c, 1, 37, 0
4, 5067, Note_on_c, 1, 38, 0
4, 5083, Note_on_c, 1, 33, 80
4, 5139, Note_on_c, 1, 33, 0
4, 5143, Note_on_c, 1, 38, 80
4, 5199, Note_on_c, 1, 38, 0
4, 5201, Note_on_c, 1, 36, 80
4, 5266, Note_on_c, 1, 35, 80
4, 5269, Note_on_c, 1, 36, 0
4, 5323, Note_on_c, 1, 35, 0
4, 5323, Note_on_c, 1, 33, 80
4, 5381, Note_on_c, 1, 33, 0
4, 5383, Note_on_c, 1, 31, 80
4, 5422, Note_on_c, 1, 31, 0
4, 5443, Note_on_c, 1, 38, 80
4, 5487, Note_on_c, 1, 38, 0
4, 5501, Note_on_c, 1, 43, 80
4, 5560, Note_on_c, 1, 43, 0
4, 5563, Note_on_c, 1, 41, 80
4, 5622, Note_on_c, 1, 40, 80
4, 5625, Note_on_c, 1, 41, 0
4, 5681, Note_on_c, 1, 40, 0
4, 5681, Note_on_c, 1, 38, 80
4, 5745, Note_on_c, 1, 38, 0
4, 5748, Note_on_c, 1, 36, 80
4, 5928, Note_on_c, 1, 35, 80
4, 5933, Note_on_c, 1, 36, 0
4, 5986, Note_on_c, 1, 35, 0
4, 5988, Note_on_c, 1, 33, 80
4, 6106, Note_on_c, 1, 31, 80
4, 6111, Note_on_c, 1, 33, 0
4, 6209, Note_on_c, 1, 31, 0
4, 6243, Note_on_c, 1, 43, 80
4, 6545, Note_on_c, 1, 43, 0
4, 6592, Note_on_c, 1, 42, 80
4, 6797, Note_on_c, 1, 42, 0
4, 6832, Note_on_c, 1, 43, 80
4, 6928, Note_on_c, 1, 43, 0
4, 6942, Note_on_c, 1, 40, 80
4, 7058, Note_on_c, 1, 33, 80
4, 7059, Note_on_c, 1, 40, 0
4, 7154, Note_on_c, 1, 33, 0
4, 7180, Note_on_c, 1, 35, 80
4, 7291, Note_on_c, 1, 35, 0
4, 7304, Note_on_c, 1, 33, 80
4, 7469, Note_on_c, 1, 33, 0
4, 7480, Note_on_c, 1, 31, 80
4, 7531, Note_on_c, 1, 31, 0
4, 7548, Note_on_c, 1, 30, 80
4, 7725, Note_on_c, 1, 30, 0
4, 7726, Note_on_c, 1, 31, 80
4, 7792, Note_on_c, 1, 33, 80
4, 7793, Note_on_c, 1, 31, 0
4, 7879, Note_on_c, 1, 33, 0
4, 7914, Note_on_c, 1, 26, 80
4, 8266, Note_on_c, 1, 28, 80
4, 8271, Note_on_c, 1, 26, 0
4, 8391, Note_on_c, 1, 30, 80
4, 8396, Note_on_c, 1, 28, 0
4, 8628, Note_on_c, 1, 30, 0
4, 8630, Note_on_c, 1, 31, 80
4, 9436, Note_on_c, 1, 31, 0
4, 11879, Note_on_c, 1, 38, 80
4, 11995, Note_on_c, 1, 40, 80
4, 11997, Note_on_c, 1, 38, 0
4, 12110, Note_on_c, 1, 40, 0
4, 12114, Note_on_c, 1, 38, 80
4, 12233, Note_on_c, 1, 33, 80
4, 12236, Note_on_c, 1, 38, 0
4, 12411, Note_on_c, 1, 35, 80
4, 12415, Note_on_c, 1, 33, 0
4, 12472, Note_on_c, 1, 36, 80
4, 12476, Note_on_c, 1, 35, 0
4, 12580, Note_on_c, 1, 36, 0
4, 12589, Note_on_c, 1, 35, 80
4, 12705, Note_on_c, 1, 33, 80
4, 12706, Note_on_c, 1, 35, 0
4, 12942, Note_on_c, 1, 31, 80
4, 12944, Note_on_c, 1, 33, 0
4, 12970, Note_on_c, 1, 31, 0
4, 13003, Note_on_c, 1, 43, 80
4, 13042, Note_on_c, 1, 43, 0
4, 13062, Note_on_c, 1, 48, 80
4, 13120, Note_on_c, 1, 47, 80
4, 13122, Note_on_c, 1, 48, 0
4, 13177, Note_on_c, 1, 45, 80
4, 13179, Note_on_c, 1, 47, 0
4, 13237, Note_on_c, 1, 45, 0
4, 13237, Note_on_c, 1, 43, 80
4, 13306, Note_on_c, 1, 42, 80
4, 13313, Note_on_c, 1, 43, 0
4, 13353, Note_on_c, 1, 42, 0
4, 13366, Note_on_c, 1, 45, 80
4, 13422, Note_on_c, 1, 43, 80
4, 13428, Note_on_c, 1, 45, 0
4, 13482, Note_on_c, 1, 42, 80
4, 13486, Note_on_c, 1, 43, 0
4, 13543, Note_on_c, 1, 42, 0
4, 13543, Note_on_c, 1, 40, 80
4, 13609, Note_on_c, 1, 42, 80
4, 13612, Note_on_c, 1, 40, 0
4, 13671, Note_on_c, 1, 43, 80
4, 13672, Note_on_c, 1, 42, 0
4, 13714, Note_on_c, 1, 43, 0
4, 13732, Note_on_c, 1, 35, 80
4, 13789, Note_on_c, 1, 35, 0
4, 13796, Note_on_c, 1, 36, 80
4, 13849, Note_on_c, 1, 36, 0
4, 13850, Note_on_c, 1, 35, 80
4, 13913, Note_on_c, 1, 36, 80
4, 13924, Note_on_c, 1, 35, 0
4, 13976, Note_on_c, 1, 38, 80
4, 13978, Note_on_c, 1, 36, 0
4, 14026, Note_on_c, 1, 38, 0
4, 14038, Note_on_c, 1, 31, 80
4, 14096, Note_on_c, 1, 33, 80
4, 14104, Note_on_c, 1, 31, 0
4, 14151, Note_on_c, 1, 35, 80
4, 14155, Note_on_c, 1, 33, 0
4, 14194, Note_on_c, 1, 35, 0
4, 14206, Note_on_c, 1, 31, 80
4, 14267, Note_on_c, 1, 31, 0
4, 14269, Note_on_c, 1, 36, 80
4, 14329, Note_on_c, 1, 38, 80
4, 14332, Note_on_c, 1, 36, 0
4, 14387, Note_on_c, 1, 40, 80
4, 14389, Note_on_c, 1, 38, 0
4, 14439, Note_on_c, 1, 40, 0
4, 14439, Note_on_c, 1, 36, 80
4, 14489, Note_on_c, 1, 36, 0
4, 14502, Note_on_c, 1, 43, 80
4, 15233, Note_on_c, 1, 43, 0
4, 18951, Note_on_c, 1, 31, 80
4, 19038, Note_on_c, 1, 31, 0
4, 19067, Note_on_c, 1, 33, 80
4, 19244, Note_on_c, 1, 33, 0
4, 19244, Note_on_c, 1, 35, 80
4, 19300, Note_on_c, 1, 35, 0
4, 19302, Note_on_c, 1, 36, 80
4, 19423, Note_on_c, 1, 35, 80
4, 19424, Note_on_c, 1, 36, 0
4, 19498, Note_on_c, 1, 35, 0
4, 19544, Note_on_c, 1, 38, 80
4, 19739, Note_on_c, 1, 38, 0
4, 19777, Note_on_c, 1, 33, 80
4, 19965, Note_on_c, 1, 33, 0
4, 19966, Note_on_c, 1, 31, 80
4, 19999, Note_on_c, 1, 31, 0
4, 20026, Note_on_c, 1, 30, 80
4, 20197, Note_on_c, 1, 30, 0
4, 20202, Note_on_c, 1, 31, 80
4, 20263, Note_on_c, 1, 31, 0
4, 20265, Note_on_c, 1, 28, 80
4, 20496, Note_on_c, 1, 28, 0
4, 20506, Note_on_c, 1, 26, 80
4, 20706, Note_on_c, 1, 26, 0
4, 20753, Note_on_c, 1, 28, 80
4, 20852, Note_on_c, 1, 28, 0
4, 20867, Note_on_c, 1, 30, 80
4, 21043, Note_on_c, 1, 30, 0
4, 21047, Note_on_c, 1, 31, 80
4, 21108, Note_on_c, 1, 33, 80
4, 21109, Note_on_c, 1, 31, 0
4, 21205, Note_on_c, 1, 33, 0
4, 21232, Note_on_c, 1, 31, 80
4, 21291, Note_on_c, 1, 33, 80
4, 21293, Note_on_c, 1, 31, 0
4, 21349, Note_on_c, 1, 35, 80
4, 21351, Note_on_c, 1, 33, 0
4, 21435, Note_on_c, 1, 35, 0
4, 21476, Note_on_c, 1, 36, 80
4, 21533, Note_on_c, 1, 35, 80
4, 21537, Note_on_c, 1, 36, 0
4, 21582, Note_on_c, 1, 35, 0
4, 21595, Note_on_c, 1, 33, 80
4, 21651, Note_on_c, 1, 33, 0
4, 21651, Note_on_c, 1, 31, 80
4, 21710, Note_on_c, 1, 30, 80
4, 21712, Note_on_c, 1, 31, 0
4, 21769, Note_on_c, 1, 30, 0
4, 21770, Note_on_c, 1, 28, 80
4, 21832, Note_on_c, 1, 30, 80
4, 21835, Note_on_c, 1, 28, 0
4, 21891, Note_on_c, 1, 30, 0
4, 21892, Note_on_c, 1, 26, 80
4, 21936, Note_on_c, 1, 26, 0
4, 21950, Note_on_c, 1, 31, 80
4, 22322, Note_on_c, 1, 31, 0
4, 22366, Note_on_c, 1, 43, 80
4, 22420, Note_on_c, 1, 42, 80
4, 22423, Note_on_c, 1, 43, 0
4, 22478, Note_on_c, 1, 40, 80
4, 22480, Note_on_c, 1, 42, 0
4, 22540, Note_on_c, 1, 40, 0
4, 22541, Note_on_c, 1, 38, 80
4, 22601, Note_on_c, 1, 37, 80
4, 22602, Note_on_c, 1, 38, 0
4, 22661, Note_on_c, 1, 35, 80
4, 22663, Note_on_c, 1, 37, 0
4, 22720, Note_on_c, 1, 35, 0
4, 22721, Note_on_c, 1, 33, 80
4, 22782, Note_on_c, 1, 31, 80
4, 22783, Note_on_c, 1, 33, 0
4, 22842, Note_on_c, 1, 28, 80
4, 22844, Note_on_c, 1, 31, 0
4, 22903, Note_on_c, 1, 28, 0
4, 22903, Note_on_c, 1, 33, 80
4, 22991, Note_on_c, 1, 33, 0
4, 23027, Note_on_c, 1, 26, 80
4, 23087, Note_on_c, 1, 28, 80
4, 23095, Note_on_c, 1, 26, 0
4, 23144, Note_on_c, 1, 30, 80
4, 23155, Note_on_c, 1, 28, 0
4, 23178, Note_on_c, 1, 30, 0
4, 23201, Note_on_c, 1, 26, 80
4, 23244, Note_on_c, 1, 26, 0
4, 23261, Note_on_c, 1, 31, 80
4, 23316, Note_on_c, 1, 31, 0
4, 23320, Note_on_c, 1, 33, 80
4, 23375, Note_on_c, 1, 33, 0
4, 23378, Note_on_c, 1, 35, 80
4, 23422, Note_on_c, 1, 35, 0
4, 23439, Note_on_c, 1, 31, 80
4, 23473, Note_on_c, 1, 31, 0
4, 23506, Note_on_c, 1, 38, 80
4, 23861, Note_on_c, 1, 38, 0
4, 29150, Note_on_c, 1, 26, 80
4, 29254, Note_on_c, 1, 26, 0
4, 29269, Note_on_c, 1, 31, 80
4, 29382, Note_on_c, 1, 33, 80
4, 29383, Note_on_c, 1, 31, 0
4, 29490, Note_on_c, 1, 33, 0
4, 29504, Note_on_c, 1, 35, 80
4, 29685, Note_on_c, 1, 35, 0
4, 29686, Note_on_c, 1, 36, 80
4, 29748, Note_on_c, 1, 36, 0
4, 29748, Note_on_c, 1, 38, 80
4, 29986, Note_on_c, 1, 38, 0
4, 29989, Note_on_c, 1, 36, 80
4, 30265, Note_on_c, 1, 36, 0
4, 30282, Note_on_c, 1, 35, 80
4, 30324, Note_on_c, 1, 35, 0
4, 30340, Note_on_c, 1, 33, 80
4, 30586, Note_on_c, 1, 35, 80
4, 30591, Note_on_c, 1, 33, 0
4, 30695, Note_on_c, 1, 35, 0
4, 30707, Note_on_c, 1, 40, 80
4, 30766, Note_on_c, 1, 38, 80
4, 30770, Note_on_c, 1, 40, 0
4, 30820, Note_on_c, 1, 38, 0
4, 30831, Note_on_c, 1, 36, 80
4, 30884, Note_on_c, 1, 36, 0
4, 30893, Note_on_c, 1, 38, 80
4, 30929, Note_on_c, 1, 38, 0
4, 30956, Note_on_c, 1, 31, 80
4, 31001, Note_on_c, 1, 31, 0
4, 31017, Note_on_c, 1, 38, 80
4, 31047, Note_on_c, 1, 38, 0
4, 31078, Note_on_c, 1, 43, 80
4, 31241, Note_on_c, 1, 41, 80
4, 31243, Note_on_c, 1, 43, 0
4, 31297, Note_on_c, 1, 41, 0
4, 31300, Note_on_c, 1, 40, 80
4, 31357, Note_on_c, 1, 40, 0
4, 31359, Note_on_c, 1, 33, 80
4, 31402, Note_on_c, 1, 33, 0
4, 31478, Note_on_c, 1, 45, 80
4, 31537, Note_on_c, 1, 40, 80
4, 31538, Note_on_c, 1, 45, 0
4, 31601, Note_on_c, 1, 42, 80
4, 31602, Note_on_c, 1, 40, 0
4, 31663, Note_on_c, 1, 42, 0
4, 31664, Note_on_c, 1, 43, 80
4, 31742, Note_on_c, 1, 43, 0
4, 31836, Note_on_c, 1, 43, 80
4, 31894, Note_on_c, 1, 43, 0
4, 31897, Note_on_c, 1, 42, 80
4, 31954, Note_on_c, 1, 42, 0
4, 31957, Note_on_c, 1, 40, 80
4, 32021, Note_on_c, 1, 39, 80
4, 32022, Note_on_c, 1, 40, 0
4, 32135, Note_on_c, 1, 39, 0
4, 32141, Note_on_c, 1, 40, 80
4, 32261, Note_on_c, 1, 42, 80
4, 32263, Note_on_c, 1, 40, 0
4, 32362, Note_on_c, 1, 42, 0
4, 32374, Note_on_c, 1, 43, 80
4, 32489, Note_on_c, 1, 43, 0
4, 32494, Note_on_c, 1, 45, 80
4, 32621, Note_on_c, 1, 47, 80
4, 32622, Note_on_c, 1, 45, 0
4, 32707, Note_on_c, 1, 47, 0
4, 32739, Note_on_c, 1, 40, 80
4, 32873, Note_on_c, 1, 40, 0
4, 35972, Note_on_c, 1, 35, 80
4, 36021, Note_on_c, 1, 35, 0
4, 36026, Note_on_c, 1, 37, 80
4, 36075, Note_on_c, 1, 37, 0
4, 36091, Note_on_c, 1, 38, 80
4, 36224, Note_on_c, 1, 40, 80
4, 36226, Note_on_c, 1, 38, 0
4, 36332, Note_on_c, 1, 40, 0
4, 36342, Note_on_c, 1, 38, 80
4, 36557, Note_on_c, 1, 38, 0
4, 36586, Note_on_c, 1, 33, 80
4, 36680, Note_on_c, 1, 33, 0
4, 36706, Note_on_c, 1, 35, 80
4, 36828, Note_on_c, 1, 35, 0
4, 36828, Note_on_c, 1, 37, 80
4, 37072, Note_on_c, 1, 37, 0
4, 37072, Note_on_c, 1, 38, 80
4, 37202, Note_on_c, 1, 38, 0
4, 37242, Note_on_c, 1, 40, 80
4, 37302, Note_on_c, 1, 40, 0
4, 37303, Note_on_c, 1, 42, 80
4, 37362, Note_on_c, 1, 38, 80
4, 37363, Note_on_c, 1, 42, 0
4, 37414, Note_on_c, 1, 38, 0
4, 37419, Note_on_c, 1, 43, 80
4, 37480, Note_on_c, 1, 45, 80
4, 37484, Note_on_c, 1, 43, 0
4, 37546, Note_on_c, 1, 47, 80
4, 37549, Note_on_c, 1, 45, 0
4, 37607, Note_on_c, 1, 43, 80
4, 37611, Note_on_c, 1, 47, 0
4, 37668, Note_on_c, 1, 43, 0
4, 37669, Note_on_c, 1, 48, 80
4, 37801, Note_on_c, 1, 48, 0
4, 37853, Note_on_c, 1, 48, 80
4, 37912, Note_on_c, 1, 47, 80
4, 37914, Note_on_c, 1, 48, 0
4, 37971, Note_on_c, 1, 45, 80
4, 37973, Note_on_c, 1, 47, 0
4, 38033, Note_on_c, 1, 43, 80
4, 38038, Note_on_c, 1, 45, 0
4, 38093, Note_on_c, 1, 42, 80
4, 38096, Note_on_c, 1, 43, 0
4, 38154, Note_on_c, 1, 43, 80
4, 38167, Note_on_c, 1, 42, 0
4, 38215, Note_on_c, 1, 47, 80
4, 38216, Note_on_c, 1, 43, 0
4, 38277, Note_on_c, 1, 40, 80
4, 38278, Note_on_c, 1, 47, 0
4, 38329, Note_on_c, 1, 40, 0
4, 38330, Note_on_c, 1, 45, 80
4, 38385, Note_on_c, 1, 43, 80
4, 38393, Note_on_c, 1, 45, 0
4, 38446, Note_on_c, 1, 43, 0
4, 38446, Note_on_c, 1, 45, 80
4, 38487, Note_on_c, 1, 45, 0
4, 38505, Note_on_c, 1, 38, 80
4, 38803, Note_on_c, 1, 36, 80
4, 38807, Note_on_c, 1, 38, 0
4, 38855, Note_on_c, 1, 36, 0
4, 38862, Note_on_c, 1, 35, 80
4, 38921, Note_on_c, 1, 33, 80
4, 38922, Note_on_c, 1, 35, 0
4, 38981, Note_on_c, 1, 33, 0
4, 38981, Note_on_c, 1, 31, 80
4, 39012, Note_on_c, 1, 31, 0
4, 39044, Note_on_c, 1, 43, 80
4, 39087, Note_on_c, 1, 43, 0
4, 39106, Note_on_c, 1, 42, 80
4, 39164, Note_on_c, 1, 40, 80
4, 39168, Note_on_c, 1, 42, 0
4, 39204, Note_on_c, 1, 40, 0
4, 39225, Note_on_c, 1, 38, 80
4, 39262, Note_on_c, 1, 38, 0
4, 39285, Note_on_c, 1, 31, 80
4, 39317, Note_on_c, 1, 31, 0
4, 39342, Note_on_c, 1, 33, 80
4, 39551, Note_on_c, 1, 33, 0
4, 39589, Note_on_c, 1, 26, 80
4, 39723, Note_on_c, 1, 26, 0
4, 41755, Note_on_c, 1, 38, 80
4, 41865, Note_on_c, 1, 38, 0
4, 41872, Note_on_c, 1, 40, 80
4, 41980, Note_on_c, 1, 40, 0
4, 41984, Note_on_c, 1, 38, 80
4, 42100, Note_on_c, 1, 38, 0
4, 42104, Note_on_c, 1, 33, 80
4, 42322, Note_on_c, 1, 33, 0
4, 42340, Note_on_c, 1, 36, 80
4, 42456, Note_on_c, 1, 36, 0
4, 42465, Note_on_c, 1, 35, 80
4, 42598, Note_on_c, 1, 35, 0
4, 42600, Note_on_c, 1, 33, 80
4, 42832, Note_on_c, 1, 31, 80
4, 42835, Note_on_c, 1, 33, 0
4, 42873, Note_on_c, 1, 31, 0
4, 42897, Note_on_c, 1, 43, 80
4, 42941, Note_on_c, 1, 43, 0
4, 42957, Note_on_c, 1, 48, 80
4, 43013, Note_on_c, 1, 48, 0
4, 43017, Note_on_c, 1, 47, 80
4, 43071, Note_on_c, 1, 47, 0
4, 43073, Note_on_c, 1, 45, 80
4, 43127, Note_on_c, 1, 43, 80
4, 43128, Note_on_c, 1, 45, 0
4, 43184, Note_on_c, 1, 42, 80
4, 43190, Note_on_c, 1, 43, 0
4, 43245, Note_on_c, 1, 40, 80
4, 43250, Note_on_c, 1, 42, 0
4, 43304, Note_on_c, 1, 40, 0
4, 43305, Note_on_c, 1, 38, 80
4, 43365, Note_on_c, 1, 36, 80
4, 43368, Note_on_c, 1, 38, 0
4, 43426, Note_on_c, 1, 35, 80
4, 43432, Note_on_c, 1, 36, 0
4, 43487, Note_on_c, 1, 33, 80
4, 43490, Note_on_c, 1, 35, 0
4, 43546, Note_on_c, 1, 33, 0
4, 43550, Note_on_c, 1, 31, 80
4, 43589, Note_on_c, 1, 31, 0
4, 43607, Note_on_c, 1, 35, 80
4, 43647, Note_on_c, 1, 35, 0
4, 43665, Note_on_c, 1, 36, 80
4, 43711, Note_on_c, 1, 36, 0
4, 43723, Note_on_c, 1, 33, 80
4, 43759, Note_on_c, 1, 33, 0
4, 43780, Note_on_c, 1, 38, 80
4, 43815, Note_on_c, 1, 38, 0
4, 43842, Note_on_c, 1, 26, 80
4, 43873, Note_on_c, 1, 26, 0
4, 43910, Note_on_c, 1, 28, 80
4, 43979, Note_on_c, 1, 28, 0
4, 44026, Note_on_c, 1, 40, 80
4, 44083, Note_on_c, 1, 38, 80
4, 44088, Note_on_c, 1, 40, 0
4, 44142, Note_on_c, 1, 40, 80
4, 44145, Note_on_c, 1, 38, 0
4, 44192, Note_on_c, 1, 40, 0
4, 44198, Note_on_c, 1, 36, 80
4, 44240, Note_on_c, 1, 36, 0
4, 44269, Note_on_c, 1, 43, 80
4, 44709, Note_on_c, 1, 43, 0
4, 44756, Note_on_c, 1, 31, 80
4, 44867, Note_on_c, 1, 31, 0
4, 48454, Note_on_c, 1, 31, 80
4, 48551, Note_on_c, 1, 31, 0
4, 48574, Note_on_c, 1, 33, 80
4, 48756, Note_on_c, 1, 33, 0
4, 48756, Note_on_c, 1, 35, 80
4, 48819, Note_on_c, 1, 36, 80
4, 48821, Note_on_c, 1, 35, 0
4, 48940, Note_on_c, 1, 35, 80
4, 48946, Note_on_c, 1, 36, 0
4, 49045, Note_on_c, 1, 35, 0
4, 49068, Note_on_c, 1, 38, 80
4, 49257, Note_on_c, 1, 38, 0
4, 49299, Note_on_c, 1, 33, 80
4, 49479, Note_on_c, 1, 31, 80
4, 49481, Note_on_c, 1, 33, 0
4, 49538, Note_on_c, 1, 30, 80
4, 49543, Note_on_c, 1, 31, 0
4, 49687, Note_on_c, 1, 30, 0
4, 49716, Note_on_c, 1, 31, 80
4, 49759, Note_on_c, 1, 31, 0
4, 49779, Note_on_c, 1, 28, 80
4, 49986, Note_on_c, 1, 28, 0
4, 50017, Note_on_c, 1, 26, 80
4, 50207, Note_on_c, 1, 26, 0
4, 50261, Note_on_c, 1, 28, 80
4, 50382, Note_on_c, 1, 28, 0
4, 50384, Note_on_c, 1, 30, 80
4, 50559, Note_on_c, 1, 30, 0
4, 50559, Note_on_c, 1, 31, 80
4, 50625, Note_on_c, 1, 33, 80
4, 50627, Note_on_c, 1, 31, 0
4, 50726, Note_on_c, 1, 33, 0
4, 50744, Note_on_c, 1, 31, 80
4, 50807, Note_on_c, 1, 33, 80
4, 50812, Note_on_c, 1, 31, 0
4, 50869, Note_on_c, 1, 35, 80
4, 50870, Note_on_c, 1, 33, 0
4, 50935, Note_on_c, 1, 35, 0
4, 50980, Note_on_c, 1, 36, 80
4, 51035, Note_on_c, 1, 36, 0
4, 51040, Note_on_c, 1, 35, 80
4, 51080, Note_on_c, 1, 35, 0
4, 51098, Note_on_c, 1, 33, 80
4, 51163, Note_on_c, 1, 33, 0
4, 51163, Note_on_c, 1, 31, 80
4, 51226, Note_on_c, 1, 30, 80
4, 51227, Note_on_c, 1, 31, 0
4, 51283, Note_on_c, 1, 30, 0
4, 51284, Note_on_c, 1, 28, 80
4, 51332, Note_on_c, 1, 28, 0
4, 51341, Note_on_c, 1, 30, 80
4, 51383, Note_on_c, 1, 30, 0
4, 51396, Note_on_c, 1, 26, 80
4, 51427, Note_on_c, 1, 26, 0
4, 51460, Note_on_c, 1, 31, 80
4, 51813, Note_on_c, 1, 31, 0
4, 51877, Note_on_c, 1, 43, 80
4, 51931, Note_on_c, 1, 42, 80
4, 51934, Note_on_c, 1, 43, 0
4, 51992, Note_on_c, 1, 40, 80
4, 51995, Note_on_c, 1, 42, 0
4, 52053, Note_on_c, 1, 40, 0
4, 52054, Note_on_c, 1, 38, 80
4, 52116, Note_on_c, 1, 37, 80
4, 52118, Note_on_c, 1, 38, 0
4, 52168, Note_on_c, 1, 37, 0
4, 52176, Note_on_c, 1, 35, 80
4, 52242, Note_on_c, 1, 35, 0
4, 52250, Note_on_c, 1, 33, 80
4, 52306, Note_on_c, 1, 31, 80
4, 52307, Note_on_c, 1, 33, 0
4, 52364, Note_on_c, 1, 31, 0
4, 52365, Note_on_c, 1, 28, 80
4, 52428, Note_on_c, 1, 28, 0
4, 52432, Note_on_c, 1, 33, 80
4, 52527, Note_on_c, 1, 33, 0
4, 52556, Note_on_c, 1, 26, 80
4, 52618, Note_on_c, 1, 28, 80
4, 52625, Note_on_c, 1, 26, 0
4, 52674, Note_on_c, 1, 30, 80
4, 52678, Note_on_c, 1, 28, 0
4, 52723, Note_on_c, 1, 30, 0
4, 52731, Note_on_c, 1, 26, 80
4, 52777, Note_on_c, 1, 26, 0
4, 52788, Note_on_c, 1, 31, 80
4, 52844, Note_on_c, 1, 31, 0
4, 52844, Note_on_c, 1, 33, 80
4, 52901, Note_on_c, 1, 33, 0
4, 52902, Note_on_c, 1, 35, 80
4, 52957, Note_on_c, 1, 35, 0
4, 52959, Note_on_c, 1, 31, 80
4, 53022, Note_on_c, 1, 38, 80
4, 53023, Note_on_c, 1, 31, 0
4, 53392, Note_on_c, 1, 38, 0
4, 57218, Note_on_c, 1, 26, 80
4, 57322, Note_on_c, 1, 26, 0
4, 57334, Note_on_c, 1, 31, 80
4, 57452, Note_on_c, 1, 33, 80
4, 57453, Note_on_c, 1, 31, 0
4, 57578, Note_on_c, 1, 33, 0
4, 57583, Note_on_c, 1, 35, 80
4, 57761, Note_on_c, 1, 35, 0
4, 57763, Note_on_c, 1, 36, 80
4, 57820, Note_on_c, 1, 38, 80
4, 57825, Note_on_c, 1, 36, 0
4, 57978, Note_on_c, 1, 38, 0
4, 58010, Note_on_c, 1, 31, 80
4, 58046, Note_on_c, 1, 31, 0
4, 58074, Note_on_c, 1, 36, 80
4, 58364, Note_on_c, 1, 35, 80
4, 58368, Note_on_c, 1, 36, 0
4, 58427, Note_on_c, 1, 35, 0
4, 58429, Note_on_c, 1, 33, 80
4, 58559, Note_on_c, 1, 33, 0
4, 58598, Note_on_c, 1, 35, 80
4, 58635, Note_on_c, 1, 35, 0
4, 58661, Note_on_c, 1, 28, 80
4, 58772, Note_on_c, 1, 28, 0
4, 58776, Note_on_c, 1, 30, 80
4, 59006, Note_on_c, 1, 30, 0
4, 59024, Note_on_c, 1, 31, 80
4, 59271, Note_on_c, 1, 31, 0
4, 59448, Note_on_c, 1, 48, 80
4, 59505, Note_on_c, 1, 48, 0
4, 59506, Note_on_c, 1, 47, 80
4, 59562, Note_on_c, 1, 45, 80
4, 59563, Note_on_c, 1, 47, 0
4, 59621, Note_on_c, 1, 45, 0
4, 59622, Note_on_c, 1, 43, 80
4, 59684, Note_on_c, 1, 42, 80
4, 59689, Note_on_c, 1, 43, 0
4, 59743, Note_on_c, 1, 42, 0
4, 59745, Note_on_c, 1, 40, 80
4, 59885, Note_on_c, 1, 40, 0
4, 59932, Note_on_c, 1, 38, 80
4, 59992, Note_on_c, 1, 40, 80
4, 60000, Note_on_c, 1, 38, 0
4, 60052, Note_on_c, 1, 42, 80
4, 60056, Note_on_c, 1, 40, 0
4, 60114, Note_on_c, 1, 42, 0
4, 60115, Note_on_c, 1, 43, 80
4, 60257, Note_on_c, 1, 43, 0
4, 60289, Note_on_c, 1, 41, 80
4, 60349, Note_on_c, 1, 40, 80
4, 60356, Note_on_c, 1, 41, 0
4, 60408, Note_on_c, 1, 38, 80
4, 60409, Note_on_c, 1, 40, 0
4, 60468, Note_on_c, 1, 38, 0
4, 60470, Note_on_c, 1, 36, 80
4, 60524, Note_on_c, 1, 35, 80
4, 60535, Note_on_c, 1, 36, 0
4, 60583, Note_on_c, 1, 35, 0
4, 60584, Note_on_c, 1, 33, 80
4, 60675, Note_on_c, 1, 33, 0
4, 60710, Note_on_c, 1, 38, 80
4, 60800, Note_on_c, 1, 38, 0
4, 60829, Note_on_c, 1, 40, 80
4, 60941, Note_on_c, 1, 40, 0
4, 60946, Note_on_c, 1, 35, 80
4, 61174, Note_on_c, 1, 35, 0
4, 61180, Note_on_c, 1, 36, 80
4, 61340, Note_on_c, 1, 36, 0
4, 61359, Note_on_c, 1, 35, 80
4, 61401, Note_on_c, 1, 35, 0
4, 61419, Note_on_c, 1, 33, 80
4, 61458, Note_on_c, 1, 33, 0
4, 61477, Note_on_c, 1, 38, 80
4, 61505, Note_on_c, 1, 38, 0
4, 61537, Note_on_c, 1, 31, 80
4, 61660, Note_on_c, 1, 31, 0
4, 64484, Note_on_c, 1, 33, 80
4, 64543, Note_on_c, 1, 33, 0
4, 64547, Note_on_c, 1, 35, 80
4, 64608, Note_on_c, 1, 33, 80
4, 64609, Note_on_c, 1, 35, 0
4, 64668, Note_on_c, 1, 31, 80
4, 64669, Note_on_c, 1, 33, 0
4, 64724, Note_on_c, 1, 30, 80
4, 64726, Note_on_c, 1, 31, 0
4, 64774, Note_on_c, 1, 30, 0
4, 64785, Note_on_c, 1, 28, 80
4, 64998, Note_on_c, 1, 28, 0
4, 65028, Note_on_c, 1, 33, 80
4, 65134, Note_on_c, 1, 33, 0
4, 65146, Note_on_c, 1, 28, 80
4, 65261, Note_on_c, 1, 30, 80
4, 65263, Note_on_c, 1, 28, 0
4, 65501, Note_on_c, 1, 30, 0
4, 65504, Note_on_c, 1, 31, 80
4, 65534, Note_on_c, 1, 31, 0
4, 65570, Note_on_c, 1, 38, 80
4, 65607, Note_on_c, 1, 38, 0
4, 65627, Note_on_c, 1, 43, 80
4, 65680, Note_on_c, 1, 43, 0
4, 65684, Note_on_c, 1, 42, 80
4, 65742, Note_on_c, 1, 42, 0
4, 65742, Note_on_c, 1, 40, 80
4, 65798, Note_on_c, 1, 40, 0
4, 65799, Note_on_c, 1, 38, 80
4, 65863, Note_on_c, 1, 38, 0
4, 65865, Note_on_c, 1, 37, 80
4, 66215, Note_on_c, 1, 37, 0
4, 66217, Note_on_c, 1, 38, 80
4, 66328, Note_on_c, 1, 38, 0
4, 66346, Note_on_c, 1, 31, 80
4, 66404, Note_on_c, 1, 31, 0
4, 66405, Note_on_c, 1, 33, 80
4, 66464, Note_on_c, 1, 33, 0
4, 66466, Note_on_c, 1, 35, 80
4, 66580, Note_on_c, 1, 35, 0
4, 66594, Note_on_c, 1, 36, 80
4, 66653, Note_on_c, 1, 38, 80
4, 66656, Note_on_c, 1, 36, 0
4, 66714, Note_on_c, 1, 38, 0
4, 66715, Note_on_c, 1, 40, 80
4, 66775, Note_on_c, 1, 38, 80
4, 66777, Note_on_c, 1, 40, 0
4, 66833, Note_on_c, 1, 36, 80
4, 66839, Note_on_c, 1, 38, 0
4, 66892, Note_on_c, 1, 35, 80
4, 66893, Note_on_c, 1, 36, 0
4, 66940, Note_on_c, 1, 35, 0
4, 66948, Note_on_c, 1, 36, 80
4, 66990, Note_on_c, 1, 36, 0
4, 67002, Note_on_c, 1, 40, 80
4, 67056, Note_on_c, 1, 38, 80
4, 67059, Note_on_c, 1, 40, 0
4, 67115, Note_on_c, 1, 38, 0
4, 67116, Note_on_c, 1, 36, 80
4, 67182, Note_on_c, 1, 36, 0
4, 67182, Note_on_c, 1, 35, 80
4, 67240, Note_on_c, 1, 33, 80
4, 67243, Note_on_c, 1, 35, 0
4, 67303, Note_on_c, 1, 35, 80
4, 67311, Note_on_c, 1, 33, 0
4, 67441, Note_on_c, 1, 35, 0
4, 67581, Note_on_c, 1, 31, 80
4, 67606, Note_on_c, 1, 31, 0
4, 67611, Note_on_c, 1, 35, 80
4, 67629, Note_on_c, 1, 35, 0
4, 67639, Note_on_c, 1, 31, 80
4, 67659, Note_on_c, 1, 31, 0
4, 67666, Note_on_c, 1, 36, 80
4, 67711, Note_on_c, 1, 36, 0
4, 67745, Control_c, 1, 7, 60
4, 67782, Control_c, 1, 7, 62
4, 67787, Control_c, 1, 7, 63
4, 67791, Control_c, 1, 7, 67
4, 67796, Control_c, 1, 7, 73
4, 67800, Control_c, 1, 7, 77
4, 67933, Note_on_c, 1, 33, 80
4, 67951, Note_on_c, 1, 33, 0
4, 67960, Note_on_c, 1, 36, 80
4, 67978, Note_on_c, 1, 36, 0
4, 67987, Note_on_c, 1, 33, 80
4, 68001, Note_on_c, 1, 33, 0
4, 68017, Note_on_c, 1, 38, 80
4, 68063, Note_on_c, 1, 38, 0
4, 68292, Note_on_c, 1, 38, 80
4, 68308, Note_on_c, 1, 38, 0
4, 68321, Note_on_c, 1, 42, 80
4, 68335, Note_on_c, 1, 42, 0
4, 68351, Note_on_c, 1, 38, 80
4, 68363, Note_on_c, 1, 38, 0
4, 68382, Note_on_c, 1, 43, 80
4, 68439, Note_on_c, 1, 43, 0
4, 68655, Note_on_c, 1, 43, 80
4, 68669, Note_on_c, 1, 43, 0
4, 68683, Note_on_c, 1, 47, 80
4, 68697, Note_on_c, 1, 47, 0
4, 68709, Note_on_c, 1, 43, 80
4, 68722, Note_on_c, 1, 43, 0
4, 68740, Note_on_c, 1, 48, 80
4, 68787, Note_on_c, 1, 48, 0
4, 69012, Note_on_c, 1, 45, 80
4, 69027, Note_on_c, 1, 45, 0
4, 69041, Note_on_c, 1, 48, 80
4, 69055, Note_on_c, 1, 48, 0
4, 69065, Note_on_c, 1, 45, 80
4, 69076, Note_on_c, 1, 45, 0
4, 69096, Note_on_c, 1, 50, 80
4, 69959, Note_on_c, 1, 50, 0
4, 69979, Note_on_c, 1, 50, 80
4, 70007, Note_on_c, 1, 45, 80
4, 70008, Note_on_c, 1, 50, 0
4, 70033, Note_on_c, 1, 45, 0
4, 70035, Note_on_c, 1, 48, 80
4, 70051, Note_on_c, 1, 48, 0
4, 70065, Note_on_c, 1, 42, 80
4, 70090, Note_on_c, 1, 42, 0
4, 70091, Note_on_c, 1, 45, 80
4, 70118, Note_on_c, 1, 45, 0
4, 70122, Note_on_c, 1, 38, 80
4, 70150, Note_on_c, 1, 42, 80
4, 70151, Note_on_c, 1, 38, 0
4, 70172, Note_on_c, 1, 42, 0
4, 70192, Note_on_c, 1, 35, 80
4, 70243, Note_on_c, 1, 35, 0
4, 70262, Note_on_c, 1, 40, 80
4, 70314, Note_on_c, 1, 40, 0
4, 70322, Note_on_c, 1, 38, 80
4, 70374, Note_on_c, 1, 38, 0
4, 70379, Note_on_c, 1, 36, 80
4, 70425, Note_on_c, 1, 36, 0
4, 70430, Note_on_c, 1, 35, 80
4, 70480, Note_on_c, 1, 35, 0
4, 70483, Note_on_c, 1, 33, 80
4, 70529, Note_on_c, 1, 33, 0
4, 70541, Note_on_c, 1, 35, 80
4, 70580, Note_on_c, 1, 35, 0
4, 70599, Note_on_c, 1, 36, 80
4, 70625, Note_on_c, 1, 36, 0
4, 70657, Note_on_c, 1, 38, 80
4, 70722, Note_on_c, 1, 38, 0
4, 70787, Note_on_c, 1, 26, 80
4, 70859, Note_on_c, 1, 26, 0
4, 70899, Note_on_c, 1, 31, 80
4, 71055, Note_on_c, 1, 31, 0
4, 71077, Note_on_c, 1, 33, 80
4, 71132, Note_on_c, 1, 33, 0
4, 71137, Note_on_c, 1, 35, 80
4, 71179, Note_on_c, 1, 35, 0
4, 71200, Note_on_c, 1, 31, 80
4, 71239, Note_on_c, 1, 31, 0
4, 71263, Note_on_c, 1, 36, 80
4, 71395, Note_on_c, 1, 36, 0
4, 71445, Note_on_c, 1, 26, 80
4, 71485, Note_on_c, 1, 26, 0
4, 71506, Note_on_c, 1, 28, 80
4, 71544, Note_on_c, 1, 28, 0
4, 71568, Note_on_c, 1, 24, 80
4, 71606, Note_on_c, 1, 24, 0
4, 71630, Note_on_c, 1, 31, 80
4, 71988, Note_on_c, 1, 31, 0
4, 71988, End_track
5, 0, Start_track
5, 0, Title_t, "RH"
5, 0, MIDI_port, 0
5, 0, Control_c, 2, 7, 101
5, 0, Control_c, 2, 10, 59
5, 0, Program_c, 2, 56
5, 5640, Note_on_c, 2, 74, 80
5, 5649, Note_on_c, 2, 72, 80
5, 5650, Note_on_c, 2, 74, 0
5, 5657, Note_on_c, 2, 74, 80
5, 5660, Note_on_c, 2, 72, 0
5, 5728, Note_on_c, 2, 74, 0
5, 5729, Note_on_c, 2, 76, 80
5, 5739, Note_on_c, 2, 74, 80
5, 5745, Note_on_c, 2, 76, 0
5, 5749, Note_on_c, 2, 74, 0
5, 5749, Note_on_c, 2, 72, 80
5, 5760, Note_on_c, 2, 74, 80
5, 5763, Note_on_c, 2, 72, 0
5, 5770, Note_on_c, 2, 76, 80
5, 5772, Note_on_c, 2, 74, 0
5, 5857, Note_on_c, 2, 76, 0
5, 5869, Note_on_c, 2, 76, 80
5, 5888, Note_on_c, 2, 74, 80
5, 5890, Note_on_c, 2, 76, 0
5, 5903, Note_on_c, 2, 74, 0
5, 5904, Note_on_c, 2, 72, 80
5, 5918, Note_on_c, 2, 74, 80
5, 5919, Note_on_c, 2, 72, 0
5, 5929, Note_on_c, 2, 76, 80
5, 5930, Note_on_c, 2, 74, 0
5, 5941, Note_on_c, 2, 76, 0
5, 5944, Note_on_c, 2, 74, 80
5, 5954, Note_on_c, 2, 74, 0
5, 5955, Note_on_c, 2, 76, 80
5, 5963, Note_on_c, 2, 76, 0
5, 5963, Note_on_c, 2, 74, 80
5, 5970, Note_on_c, 2, 76, 80
5, 5971, Note_on_c, 2, 74, 0
5, 5978, Note_on_c, 2, 76, 0
5, 5979, Note_on_c, 2, 74, 80
5, 6044, Note_on_c, 2, 72, 80
5, 6045, Note_on_c, 2, 74, 0
5, 6086, Note_on_c, 2, 72, 0
5, 6102, Note_on_c, 2, 72, 80
5, 6124, Note_on_c, 2, 71, 80
5, 6128, Note_on_c, 2, 72, 0
5, 6142, Note_on_c, 2, 71, 0
5, 6143, Note_on_c, 2, 72, 80
5, 6155, Note_on_c, 2, 72, 0
5, 6157, Note_on_c, 2, 71, 80
5, 6169, Note_on_c, 2, 71, 0
5, 6169, Note_on_c, 2, 72, 80
5, 6178, Note_on_c, 2, 72, 0
5, 6180, Note_on_c, 2, 71, 80
5, 6187, Note_on_c, 2, 72, 80
5, 6190, Note_on_c, 2, 71, 0
5, 6196, Note_on_c, 2, 72, 0
5, 6197, Note_on_c, 2, 71, 80
5, 6202, Note_on_c, 2, 72, 80
5, 6205, Note_on_c, 2, 71, 0
5, 6211, Note_on_c, 2, 72, 0
5, 6212, Note_on_c, 2, 71, 80
5, 6294, Note_on_c, 2, 71, 0
5, 6297, Note_on_c, 2, 72, 80
5, 6352, Note_on_c, 2, 72, 0
5, 6355, Note_on_c, 2, 74, 80
5, 6472, Note_on_c, 2, 69, 80
5, 6473, Note_on_c, 2, 74, 0
5, 6788, Note_on_c, 2, 69, 0
5, 6818, Note_on_c, 2, 71, 80
5, 6831, Note_on_c, 2, 69, 80
5, 6832, Note_on_c, 2, 71, 0
5, 6842, Note_on_c, 2, 71, 80
5, 6846, Note_on_c, 2, 69, 0
5, 6918, Note_on_c, 2, 73, 80
5, 6922, Note_on_c, 2, 71, 0
5, 6932, Note_on_c, 2, 73, 0
5, 6946, Note_on_c, 2, 74, 80
5, 6970, Note_on_c, 2, 73, 80
5, 6972, Note_on_c, 2, 74, 0
5, 6988, Note_on_c, 2, 73, 0
5, 6989, Note_on_c, 2, 74, 80
5, 7003, Note_on_c, 2, 74, 0
5, 7004, Note_on_c, 2, 73, 80
5, 7016, Note_on_c, 2, 73, 0
5, 7018, Note_on_c, 2, 74, 80
5, 7027, Note_on_c, 2, 74, 0
5, 7030, Note_on_c, 2, 73, 80
5, 7038, Note_on_c, 2, 73, 0
5, 7038, Note_on_c, 2, 74, 80
5, 7046, Note_on_c, 2, 74, 0
5, 7048, Note_on_c, 2, 73, 80
5, 7052, Note_on_c, 2, 73, 0
5, 7052, Note_on_c, 2, 74, 80
5, 7061, Note_on_c, 2, 73, 80
5, 7074, Note_on_c, 2, 74, 0
5, 7117, Note_on_c, 2, 71, 80
5, 7118, Note_on_c, 2, 73, 0
5, 7144, Note_on_c, 2, 73, 80
5, 7149, Note_on_c, 2, 71, 0
5, 7167, Note_on_c, 2, 73, 0
5, 7179, Note_on_c, 2, 74, 80
5, 7790, Note_on_c, 2, 74, 0
5, 12944, Note_on_c, 2, 74, 80
5, 13032, Note_on_c, 2, 76, 80
5, 13035, Note_on_c, 2, 74, 0
5, 13045, Note_on_c, 2, 76, 0
5, 13046, Note_on_c, 2, 77, 80
5, 13058, Note_on_c, 2, 76, 80
5, 13060, Note_on_c, 2, 77, 0
5, 13174, Note_on_c, 2, 76, 0
5, 13175, Note_on_c, 2, 74, 80
5, 13233, Note_on_c, 2, 76, 80
5, 13234, Note_on_c, 2, 74, 0
5, 13246, Note_on_c, 2, 74, 80
5, 13247, Note_on_c, 2, 76, 0
5, 13255, Note_on_c, 2, 72, 80
5, 13256, Note_on_c, 2, 74, 0
5, 13265, Note_on_c, 2, 74, 80
5, 13266, Note_on_c, 2, 72, 0
5, 13275, Note_on_c, 2, 76, 80
5, 13276, Note_on_c, 2, 74, 0
5, 13297, Note_on_c, 2, 76, 0
5, 13308, Note_on_c, 2, 71, 80
5, 13332, Note_on_c, 2, 71, 0
5, 13332, Note_on_c, 2, 69, 80
5, 13346, Note_on_c, 2, 69, 0
5, 13349, Note_on_c, 2, 71, 80
5, 13363, Note_on_c, 2, 71, 0
5, 13365, Note_on_c, 2, 69, 80
5, 13377, Note_on_c, 2, 69, 0
5, 13377, Note_on_c, 2, 71, 80
5, 13388, Note_on_c, 2, 71, 0
5, 13389, Note_on_c, 2, 69, 80
5, 13396, Note_on_c, 2, 71, 80
5, 13397, Note_on_c, 2, 69, 0
5, 13405, Note_on_c, 2, 71, 0
5, 13409, Note_on_c, 2, 69, 80
5, 13410, Note_on_c, 2, 71, 80
5, 13413, Note_on_c, 2, 69, 0
5, 13418, Note_on_c, 2, 69, 80
5, 13420, Note_on_c, 2, 71, 0
5, 13475, Note_on_c, 2, 71, 80
5, 13477, Note_on_c, 2, 69, 0
5, 13537, Note_on_c, 2, 72, 80
5, 13538, Note_on_c, 2, 71, 0
5, 13670, Note_on_c, 2, 71, 80
5, 13671, Note_on_c, 2, 72, 0
5, 13756, Note_on_c, 2, 72, 80
5, 13757, Note_on_c, 2, 71, 0
5, 13772, Note_on_c, 2, 69, 80
5, 13773, Note_on_c, 2, 72, 0
5, 13794, Note_on_c, 2, 71, 80
5, 13795, Note_on_c, 2, 69, 0
5, 13819, Note_on_c, 2, 69, 80
5, 13821, Note_on_c, 2, 71, 0
5, 13833, Note_on_c, 2, 67, 80
5, 13834, Note_on_c, 2, 69, 0
5, 13849, Note_on_c, 2, 69, 80
5, 13850, Note_on_c, 2, 67, 0
5, 13858, Note_on_c, 2, 71, 80
5, 13860, Note_on_c, 2, 69, 0
5, 13872, Note_on_c, 2, 71, 0
5, 13873, Note_on_c, 2, 69, 80
5, 13884, Note_on_c, 2, 71, 80
5, 13885, Note_on_c, 2, 69, 0
5, 13895, Note_on_c, 2, 71, 0
5, 13895, Note_on_c, 2, 69, 80
5, 13903, Note_on_c, 2, 71, 80
5, 13905, Note_on_c, 2, 69, 0
5, 13911, Note_on_c, 2, 71, 0
5, 13912, Note_on_c, 2, 69, 80
5, 13917, Note_on_c, 2, 71, 80
5, 13920, Note_on_c, 2, 69, 0
5, 13924, Note_on_c, 2, 69, 80
5, 13927, Note_on_c, 2, 71, 0
5, 13978, Note_on_c, 2, 69, 0
5, 13978, Note_on_c, 2, 67, 80
5, 14002, Note_on_c, 2, 69, 80
5, 14003, Note_on_c, 2, 67, 0
5, 14039, Note_on_c, 2, 69, 0
5, 14041, Note_on_c, 2, 67, 80
5, 14627, Note_on_c, 2, 67, 0
5, 21471, Note_on_c, 2, 67, 80
5, 21553, Note_on_c, 2, 67, 0
5, 21577, Note_on_c, 2, 67, 80
5, 21593, Note_on_c, 2, 67, 0
5, 21593, Note_on_c, 2, 69, 80
5, 21605, Note_on_c, 2, 69, 0
5, 21605, Note_on_c, 2, 67, 80
5, 21611, Note_on_c, 2, 69, 80
5, 21615, Note_on_c, 2, 67, 0
5, 21766, Note_on_c, 2, 69, 0
5, 21767, Note_on_c, 2, 71, 80
5, 21829, Note_on_c, 2, 72, 80
5, 21834, Note_on_c, 2, 71, 0
5, 21943, Note_on_c, 2, 72, 0
5, 21954, Note_on_c, 2, 72, 80
5, 21979, Note_on_c, 2, 71, 80
5, 21980, Note_on_c, 2, 72, 0
5, 22043, Note_on_c, 2, 71, 0
5, 22043, Note_on_c, 2, 74, 80
5, 22051, Note_on_c, 2, 72, 80
5, 22053, Note_on_c, 2, 74, 0
5, 22062, Note_on_c, 2, 72, 0
5, 22063, Note_on_c, 2, 74, 80
5, 22313, Note_on_c, 2, 74, 0
5, 22313, Note_on_c, 2, 69, 80
5, 22478, Note_on_c, 2, 67, 80
5, 22479, Note_on_c, 2, 69, 0
5, 22536, Note_on_c, 2, 66, 80
5, 22538, Note_on_c, 2, 67, 0
5, 22721, Note_on_c, 2, 66, 0
5, 22721, Note_on_c, 2, 67, 80
5, 22781, Note_on_c, 2, 66, 80
5, 22786, Note_on_c, 2, 67, 0
5, 22814, Note_on_c, 2, 64, 80
5, 22815, Note_on_c, 2, 66, 0
5, 22833, Note_on_c, 2, 66, 80
5, 22835, Note_on_c, 2, 64, 0
5, 22847, Note_on_c, 2, 66, 0
5, 22849, Note_on_c, 2, 64, 80
5, 22861, Note_on_c, 2, 66, 80
5, 22863, Note_on_c, 2, 64, 0
5, 22874, Note_on_c, 2, 66, 0
5, 22874, Note_on_c, 2, 64, 80
5, 22885, Note_on_c, 2, 66, 80
5, 22886, Note_on_c, 2, 64, 0
5, 22894, Note_on_c, 2, 66, 0
5, 22895, Note_on_c, 2, 64, 80
5, 22901, Note_on_c, 2, 66, 80
5, 22903, Note_on_c, 2, 64, 0
5, 22910, Note_on_c, 2, 64, 80
5, 22912, Note_on_c, 2, 66, 0
5, 22965, Note_on_c, 2, 64, 0
5, 22965, Note_on_c, 2, 62, 80
5, 22993, Note_on_c, 2, 64, 80
5, 22995, Note_on_c, 2, 62, 0
5, 23026, Note_on_c, 2, 62, 80
5, 23027, Note_on_c, 2, 64, 0
5, 23622, Note_on_c, 2, 62, 0
5, 30591, Note_on_c, 2, 62, 80
5, 30684, Note_on_c, 2, 62, 0
5, 30703, Note_on_c, 2, 67, 80
5, 30778, Note_on_c, 2, 67, 0
5, 30779, Note_on_c, 2, 69, 80
5, 30793, Note_on_c, 2, 67, 80
5, 30795, Note_on_c, 2, 69, 0
5, 30811, Note_on_c, 2, 69, 80
5, 30812, Note_on_c, 2, 67, 0
5, 30831, Note_on_c, 2, 71, 80
5, 30833, Note_on_c, 2, 69, 0
5, 30845, Note_on_c, 2, 71, 0
5, 30847, Note_on_c, 2, 69, 80
5, 30859, Note_on_c, 2, 71, 80
5, 30860, Note_on_c, 2, 69, 0
5, 30869, Note_on_c, 2, 69, 80
5, 30870, Note_on_c, 2, 71, 0
5, 30876, Note_on_c, 2, 71, 80
5, 30879, Note_on_c, 2, 69, 0
5, 30886, Note_on_c, 2, 71, 0
5, 30887, Note_on_c, 2, 69, 80
5, 30892, Note_on_c, 2, 71, 80
5, 30894, Note_on_c, 2, 69, 0
5, 30899, Note_on_c, 2, 71, 0
5, 30899, Note_on_c, 2, 69, 80
5, 30913, Note_on_c, 2, 69, 0
5, 30913, Note_on_c, 2, 67, 80
5, 30927, Note_on_c, 2, 69, 80
5, 30928, Note_on_c, 2, 67, 0
5, 30951, Note_on_c, 2, 69, 0
5, 30952, Note_on_c, 2, 71, 80
5, 31131, Note_on_c, 2, 72, 80
5, 31133, Note_on_c, 2, 71, 0
5, 31185, Note_on_c, 2, 72, 0
5, 31187, Note_on_c, 2, 74, 80
5, 31387, Note_on_c, 2, 77, 80
5, 31389, Note_on_c, 2, 74, 0
5, 31404, Note_on_c, 2, 76, 80
5, 31408, Note_on_c, 2, 77, 0
5, 31426, Note_on_c, 2, 76, 0
5, 31427, Note_on_c, 2, 74, 80
5, 31465, Note_on_c, 2, 72, 80
5, 31466, Note_on_c, 2, 74, 0
5, 31718, Note_on_c, 2, 72, 0
5, 31719, Note_on_c, 2, 71, 80
5, 31761, Note_on_c, 2, 71, 0
5, 31776, Note_on_c, 2, 71, 80
5, 31795, Note_on_c, 2, 71, 0
5, 31795, Note_on_c, 2, 69, 80
5, 31812, Note_on_c, 2, 69, 0
5, 31813, Note_on_c, 2, 71, 80
5, 31826, Note_on_c, 2, 71, 0
5, 31827, Note_on_c, 2, 69, 80
5, 31841, Note_on_c, 2, 69, 0
5, 31841, Note_on_c, 2, 71, 80
5, 31852, Note_on_c, 2, 71, 0
5, 31854, Note_on_c, 2, 69, 80
5, 31864, Note_on_c, 2, 69, 0
5, 31864, Note_on_c, 2, 71, 80
5, 31874, Note_on_c, 2, 71, 0
5, 31874, Note_on_c, 2, 69, 80
5, 31882, Note_on_c, 2, 71, 80
5, 31883, Note_on_c, 2, 69, 0
5, 31890, Note_on_c, 2, 69, 80
5, 31891, Note_on_c, 2, 71, 0
5, 31896, Note_on_c, 2, 71, 80
5, 31900, Note_on_c, 2, 69, 0
5, 31906, Note_on_c, 2, 69, 80
5, 31908, Note_on_c, 2, 71, 0
5, 31961, Note_on_c, 2, 67, 80
5, 31962, Note_on_c, 2, 69, 0
5, 31987, Note_on_c, 2, 69, 80
5, 31990, Note_on_c, 2, 67, 0
5, 32022, Note_on_c, 2, 71, 80
5, 32027, Note_on_c, 2, 69, 0
5, 32489, Note_on_c, 2, 71, 0
5, 37413, Note_on_c, 2, 71, 80
5, 37421, Note_on_c, 2, 69, 80
5, 37425, Note_on_c, 2, 71, 0
5, 37432, Note_on_c, 2, 71, 80
5, 37437, Note_on_c, 2, 69, 0
5, 37515, Note_on_c, 2, 71, 0
5, 37516, Note_on_c, 2, 72, 80
5, 37537, Note_on_c, 2, 72, 0
5, 37550, Note_on_c, 2, 74, 80
5, 37660, Note_on_c, 2, 74, 0
5, 37663, Note_on_c, 2, 76, 80
5, 37788, Note_on_c, 2, 74, 80
5, 37792, Note_on_c, 2, 76, 0
5, 38031, Note_on_c, 2, 74, 0
5, 38031, Note_on_c, 2, 69, 80
5, 38134, Note_on_c, 2, 69, 0
5, 38137, Note_on_c, 2, 71, 80
5, 38149, Note_on_c, 2, 69, 80
5, 38150, Note_on_c, 2, 71, 0
5, 38156, Note_on_c, 2, 71, 80
5, 38161, Note_on_c, 2, 69, 0
5, 38240, Note_on_c, 2, 73, 80
5, 38243, Note_on_c, 2, 71, 0
5, 38260, Note_on_c, 2, 73, 0
5, 38268, Note_on_c, 2, 74, 80
5, 38291, Note_on_c, 2, 73, 80
5, 38293, Note_on_c, 2, 74, 0
5, 38306, Note_on_c, 2, 73, 0
5, 38309, Note_on_c, 2, 74, 80
5, 38321, Note_on_c, 2, 74, 0
5, 38322, Note_on_c, 2, 73, 80
5, 38334, Note_on_c, 2, 73, 0
5, 38335, Note_on_c, 2, 74, 80
5, 38346, Note_on_c, 2, 74, 0
5, 38347, Note_on_c, 2, 73, 80
5, 38355, Note_on_c, 2, 74, 80
5, 38356, Note_on_c, 2, 73, 0
5, 38366, Note_on_c, 2, 73, 80
5, 38367, Note_on_c, 2, 74, 0
5, 38373, Note_on_c, 2, 73, 0
5, 38373, Note_on_c, 2, 74, 80
5, 38380, Note_on_c, 2, 74, 0
5, 38381, Note_on_c, 2, 73, 80
5, 38386, Note_on_c, 2, 74, 80
5, 38390, Note_on_c, 2, 73, 0
5, 38397, Note_on_c, 2, 73, 80
5, 38406, Note_on_c, 2, 74, 0
5, 38441, Note_on_c, 2, 71, 80
5, 38442, Note_on_c, 2, 73, 0
5, 38470, Note_on_c, 2, 73, 80
5, 38475, Note_on_c, 2, 71, 0
5, 38501, Note_on_c, 2, 73, 0
5, 38508, Note_on_c, 2, 74, 80
5, 39114, Note_on_c, 2, 74, 0
5, 42838, Note_on_c, 2, 74, 80
5, 42956, Note_on_c, 2, 74, 0
5, 42957, Note_on_c, 2, 76, 80
5, 43074, Note_on_c, 2, 74, 80
5, 43078, Note_on_c, 2, 76, 0
5, 43189, Note_on_c, 2, 74, 0
5, 43190, Note_on_c, 2, 69, 80
5, 43407, Note_on_c, 2, 69, 0
5, 43430, Note_on_c, 2, 72, 80
5, 43537, Note_on_c, 2, 72, 0
5, 43543, Note_on_c, 2, 71, 80
5, 43650, Note_on_c, 2, 71, 0
5, 43667, Note_on_c, 2, 71, 80
5, 43690, Note_on_c, 2, 69, 80
5, 43693, Note_on_c, 2, 71, 0
5, 43710, Note_on_c, 2, 69, 0
5, 43711, Note_on_c, 2, 71, 80
5, 43725, Note_on_c, 2, 71, 0
5, 43726, Note_on_c, 2, 69, 80
5, 43739, Note_on_c, 2, 71, 80
5, 43740, Note_on_c, 2, 69, 0
5, 43751, Note_on_c, 2, 71, 0
5, 43753, Note_on_c, 2, 69, 80
5, 43761, Note_on_c, 2, 71, 80
5, 43763, Note_on_c, 2, 69, 0
5, 43769, Note_on_c, 2, 69, 80
5, 43770, Note_on_c, 2, 71, 0
5, 43775, Note_on_c, 2, 71, 80
5, 43779, Note_on_c, 2, 69, 0
5, 43784, Note_on_c, 2, 69, 80
5, 43787, Note_on_c, 2, 71, 0
5, 43840, Note_on_c, 2, 67, 80
5, 43841, Note_on_c, 2, 69, 0
5, 43868, Note_on_c, 2, 69, 80
5, 43869, Note_on_c, 2, 67, 0
5, 43912, Note_on_c, 2, 67, 80
5, 43914, Note_on_c, 2, 69, 0
5, 44497, Note_on_c, 2, 67, 0
5, 50985, Note_on_c, 2, 67, 80
5, 51097, Note_on_c, 2, 67, 0
5, 51104, Note_on_c, 2, 69, 80
5, 51278, Note_on_c, 2, 69, 0
5, 51281, Note_on_c, 2, 71, 80
5, 51340, Note_on_c, 2, 71, 0
5, 51342, Note_on_c, 2, 72, 80
5, 51462, Note_on_c, 2, 72, 0
5, 51464, Note_on_c, 2, 71, 80
5, 51551, Note_on_c, 2, 74, 80
5, 51552, Note_on_c, 2, 71, 0
5, 51565, Note_on_c, 2, 72, 80
5, 51566, Note_on_c, 2, 74, 0
5, 51583, Note_on_c, 2, 72, 0
5, 51584, Note_on_c, 2, 74, 80
5, 51794, Note_on_c, 2, 74, 0
5, 51815, Note_on_c, 2, 69, 80
5, 51990, Note_on_c, 2, 69, 0
5, 51991, Note_on_c, 2, 67, 80
5, 52054, Note_on_c, 2, 67, 0
5, 52056, Note_on_c, 2, 66, 80
5, 52241, Note_on_c, 2, 66, 0
5, 52241, Note_on_c, 2, 67, 80
5, 52298, Note_on_c, 2, 66, 80
5, 52302, Note_on_c, 2, 67, 0
5, 52324, Note_on_c, 2, 64, 80
5, 52325, Note_on_c, 2, 66, 0
5, 52343, Note_on_c, 2, 64, 0
5, 52343, Note_on_c, 2, 66, 80
5, 52357, Note_on_c, 2, 66, 0
5, 52359, Note_on_c, 2, 64, 80
5, 52372, Note_on_c, 2, 66, 80
5, 52373, Note_on_c, 2, 64, 0
5, 52383, Note_on_c, 2, 66, 0
5, 52384, Note_on_c, 2, 64, 80
5, 52392, Note_on_c, 2, 66, 80
5, 52394, Note_on_c, 2, 64, 0
5, 52401, Note_on_c, 2, 66, 0
5, 52402, Note_on_c, 2, 64, 80
5, 52407, Note_on_c, 2, 66, 80
5, 52409, Note_on_c, 2, 64, 0
5, 52415, Note_on_c, 2, 64, 80
5, 52417, Note_on_c, 2, 66, 0
5, 52491, Note_on_c, 2, 62, 80
5, 52492, Note_on_c, 2, 64, 0
5, 52519, Note_on_c, 2, 64, 80
5, 52521, Note_on_c, 2, 62, 0
5, 52556, Note_on_c, 2, 64, 0
5, 52556, Note_on_c, 2, 62, 80
5, 53211, Note_on_c, 2, 62, 0
5, 59024, Note_on_c, 2, 62, 80
5, 59141, Note_on_c, 2, 62, 0
5, 59145, Note_on_c, 2, 67, 80
5, 59253, Note_on_c, 2, 67, 0
5, 59257, Note_on_c, 2, 69, 80
5, 59382, Note_on_c, 2, 69, 0
5, 59386, Note_on_c, 2, 71, 80
5, 59564, Note_on_c, 2, 72, 80
5, 59566, Note_on_c, 2, 71, 0
5, 59629, Note_on_c, 2, 74, 80
5, 59632, Note_on_c, 2, 72, 0
5, 59778, Note_on_c, 2, 74, 0
5, 59806, Note_on_c, 2, 67, 80
5, 59846, Note_on_c, 2, 67, 0
5, 59868, Note_on_c, 2, 72, 80
5, 60193, Note_on_c, 2, 72, 0
5, 60194, Note_on_c, 2, 74, 80
5, 60213, Note_on_c, 2, 74, 0
5, 60215, Note_on_c, 2, 71, 80
5, 60235, Note_on_c, 2, 69, 80
5, 60236, Note_on_c, 2, 71, 0
5, 60410, Note_on_c, 2, 71, 80
5, 60413, Note_on_c, 2, 69, 0
5, 60467, Note_on_c, 2, 71, 0
5, 60468, Note_on_c, 2, 64, 80
5, 60557, Note_on_c, 2, 66, 80
5, 60560, Note_on_c, 2, 64, 0
5, 60588, Note_on_c, 2, 67, 80
5, 60589, Note_on_c, 2, 66, 0
5, 60614, Note_on_c, 2, 66, 80
5, 60616, Note_on_c, 2, 67, 0
5, 60631, Note_on_c, 2, 66, 0
5, 60633, Note_on_c, 2, 67, 80
5, 60646, Note_on_c, 2, 67, 0
5, 60648, Note_on_c, 2, 66, 80
5, 60659, Note_on_c, 2, 66, 0
5, 60660, Note_on_c, 2, 67, 80
5, 60672, Note_on_c, 2, 67, 0
5, 60672, Note_on_c, 2, 66, 80
5, 60682, Note_on_c, 2, 67, 80
5, 60683, Note_on_c, 2, 66, 0
5, 60691, Note_on_c, 2, 67, 0
5, 60691, Note_on_c, 2, 66, 80
5, 60697, Note_on_c, 2, 67, 80
5, 60698, Note_on_c, 2, 66, 0
5, 60706, Note_on_c, 2, 66, 80
5, 60722, Note_on_c, 2, 67, 0
5, 60768, Note_on_c, 2, 64, 80
5, 60769, Note_on_c, 2, 66, 0
5, 60795, Note_on_c, 2, 66, 80
5, 60799, Note_on_c, 2, 64, 0
5, 60827, Note_on_c, 2, 66, 0
5, 60831, Note_on_c, 2, 67, 80
5, 61423, Note_on_c, 2, 67, 0
5, 66281, Note_on_c, 2, 69, 80
5, 66342, Note_on_c, 2, 71, 80
5, 66349, Note_on_c, 2, 69, 0
5, 66403, Note_on_c, 2, 69, 80
5, 66408, Note_on_c, 2, 71, 0
5, 66463, Note_on_c, 2, 67, 80
5, 66467, Note_on_c, 2, 69, 0
5, 66522, Note_on_c, 2, 66, 80
5, 66523, Note_on_c, 2, 67, 0
5, 66577, Note_on_c, 2, 66, 0
5, 66577, Note_on_c, 2, 64, 80
5, 66839, Note_on_c, 2, 69, 80
5, 66840, Note_on_c, 2, 64, 0
5, 66944, Note_on_c, 2, 69, 0
5, 66944, Note_on_c, 2, 64, 80
5, 66973, Note_on_c, 2, 66, 80
5, 66976, Note_on_c, 2, 64, 0
5, 67004, Note_on_c, 2, 66, 0
5, 67004, Note_on_c, 2, 64, 80
5, 67030, Note_on_c, 2, 66, 80
5, 67035, Note_on_c, 2, 64, 0
5, 67058, Note_on_c, 2, 67, 80
5, 67059, Note_on_c, 2, 66, 0
5, 67082, Note_on_c, 2, 66, 80
5, 67083, Note_on_c, 2, 67, 0
5, 67099, Note_on_c, 2, 66, 0
5, 67101, Note_on_c, 2, 67, 80
5, 67114, Note_on_c, 2, 67, 0
5, 67115, Note_on_c, 2, 66, 80
5, 67126, Note_on_c, 2, 66, 0
5, 67129, Note_on_c, 2, 67, 80
5, 67139, Note_on_c, 2, 67, 0
5, 67141, Note_on_c, 2, 66, 80
5, 67149, Note_on_c, 2, 66, 0
5, 67150, Note_on_c, 2, 67, 80
5, 67157, Note_on_c, 2, 67, 0
5, 67159, Note_on_c, 2, 66, 80
5, 67163, Note_on_c, 2, 67, 80
5, 67164, Note_on_c, 2, 66, 0
5, 67175, Note_on_c, 2, 66, 80
5, 67183, Note_on_c, 2, 67, 0
5, 67239, Note_on_c, 2, 66, 0
5, 67239, Note_on_c, 2, 64, 80
5, 67267, Note_on_c, 2, 64, 0
5, 67268, Note_on_c, 2, 66, 80
5, 67299, Note_on_c, 2, 66, 0
5, 67300, Note_on_c, 2, 67, 80
5, 67311, Note_on_c, 2, 67, 0
5, 67338, Note_on_c, 2, 74, 80
5, 67368, Note_on_c, 2, 76, 80
5, 67373, Note_on_c, 2, 74, 0
5, 67398, Note_on_c, 2, 78, 80
5, 67400, Note_on_c, 2, 76, 0
5, 67429, Note_on_c, 2, 79, 80
5, 67431, Note_on_c, 2, 78, 0
5, 67579, Note_on_c, 2, 79, 0
5, 67585, Note_on_c, 2, 77, 80
5, 67613, Note_on_c, 2, 76, 80
5, 67615, Note_on_c, 2, 77, 0
5, 67643, Note_on_c, 2, 77, 80
5, 67647, Note_on_c, 2, 76, 0
5, 67657, Note_on_c, 2, 74, 80
5, 67659, Note_on_c, 2, 77, 0
5, 67677, Note_on_c, 2, 76, 80
5, 67682, Note_on_c, 2, 74, 0
5, 67690, Note_on_c, 2, 76, 0
5, 67707, Note_on_c, 2, 67, 80
5, 67737, Note_on_c, 2, 69, 80
5, 67741, Note_on_c, 2, 67, 0
5, 67765, Note_on_c, 2, 71, 80
5, 67769, Note_on_c, 2, 69, 0
5, 67781, Note_on_c, 2, 71, 0
5, 67798, Note_on_c, 2, 72, 80
5, 67938, Note_on_c, 2, 71, 80
5, 67942, Note_on_c, 2, 72, 0
5, 67967, Note_on_c, 2, 71, 0
5, 67967, Note_on_c, 2, 69, 80
5, 67992, Note_on_c, 2, 71, 80
5, 67995, Note_on_c, 2, 69, 0
5, 68007, Note_on_c, 2, 71, 0
5, 68008, Note_on_c, 2, 67, 80
5, 68026, Note_on_c, 2, 67, 0
5, 68026, Note_on_c, 2, 66, 80
5, 68036, Note_on_c, 2, 66, 0
5, 68054, Note_on_c, 2, 57, 80
5, 68083, Note_on_c, 2, 59, 80
5, 68086, Note_on_c, 2, 57, 0
5, 68112, Note_on_c, 2, 60, 80
5, 68115, Note_on_c, 2, 59, 0
5, 68128, Note_on_c, 2, 60, 0
5, 68142, Note_on_c, 2, 62, 80
5, 68271, Note_on_c, 2, 62, 0
5, 68292, Note_on_c, 2, 60, 80
5, 68321, Note_on_c, 2, 59, 80
5, 68322, Note_on_c, 2, 60, 0
5, 68349, Note_on_c, 2, 60, 80
5, 68353, Note_on_c, 2, 59, 0
5, 68367, Note_on_c, 2, 60, 0
5, 68368, Note_on_c, 2, 57, 80
5, 68388, Note_on_c, 2, 59, 80
5, 68393, Note_on_c, 2, 57, 0
5, 68400, Note_on_c, 2, 59, 0
5, 68423, Note_on_c, 2, 62, 80
5, 68452, Note_on_c, 2, 64, 80
5, 68457, Note_on_c, 2, 62, 0
5, 68482, Note_on_c, 2, 66, 80
5, 68483, Note_on_c, 2, 64, 0
5, 68513, Note_on_c, 2, 66, 0
5, 68513, Note_on_c, 2, 67, 80
5, 68537, Note_on_c, 2, 67, 0
5, 68544, Note_on_c, 2, 59, 80
5, 68575, Note_on_c, 2, 60, 80
5, 68577, Note_on_c, 2, 59, 0
5, 68601, Note_on_c, 2, 62, 80
5, 68604, Note_on_c, 2, 60, 0
5, 68629, Note_on_c, 2, 62, 0
5, 68630, Note_on_c, 2, 55, 80
5, 68661, Note_on_c, 2, 65, 80
5, 68662, Note_on_c, 2, 55, 0
5, 68691, Note_on_c, 2, 65, 0
5, 68691, Note_on_c, 2, 64, 80
5, 68720, Note_on_c, 2, 65, 80
5, 68722, Note_on_c, 2, 64, 0
5, 68731, Note_on_c, 2, 62, 80
5, 68733, Note_on_c, 2, 65, 0
5, 68750, Note_on_c, 2, 64, 80
5, 68751, Note_on_c, 2, 62, 0
5, 68776, Note_on_c, 2, 64, 0
5, 68780, Note_on_c, 2, 67, 80
5, 68810, Note_on_c, 2, 69, 80
5, 68811, Note_on_c, 2, 67, 0
5, 68841, Note_on_c, 2, 71, 80
5, 68842, Note_on_c, 2, 69, 0
5, 68869, Note_on_c, 2, 72, 80
5, 68871, Note_on_c, 2, 71, 0
5, 68896, Note_on_c, 2, 72, 0
5, 68898, Note_on_c, 2, 64, 80
5, 68930, Note_on_c, 2, 65, 80
5, 68932, Note_on_c, 2, 64, 0
5, 68955, Note_on_c, 2, 67, 80
5, 68958, Note_on_c, 2, 65, 0
5, 68984, Note_on_c, 2, 67, 0
5, 68986, Note_on_c, 2, 60, 80
5, 69013, Note_on_c, 2, 71, 80
5, 69015, Note_on_c, 2, 60, 0
5, 69043, Note_on_c, 2, 69, 80
5, 69045, Note_on_c, 2, 71, 0
5, 69067, Note_on_c, 2, 71, 80
5, 69069, Note_on_c, 2, 69, 0
5, 69082, Note_on_c, 2, 67, 80
5, 69084, Note_on_c, 2, 71, 0
5, 69100, Note_on_c, 2, 67, 0
5, 69100, Note_on_c, 2, 66, 80
5, 69116, Note_on_c, 2, 66, 0
5, 69128, Note_on_c, 2, 69, 80
5, 69157, Note_on_c, 2, 69, 0
5, 69159, Note_on_c, 2, 71, 80
5, 69187, Note_on_c, 2, 72, 80
5, 69188, Note_on_c, 2, 71, 0
5, 69215, Note_on_c, 2, 74, 80
5, 69217, Note_on_c, 2, 72, 0
5, 69243, Note_on_c, 2, 74, 0
5, 69245, Note_on_c, 2, 66, 80
5, 69272, Note_on_c, 2, 66, 0
5, 69273, Note_on_c, 2, 67, 80
5, 69301, Note_on_c, 2, 67, 0
5, 69301, Note_on_c, 2, 69, 80
5, 69336, Note_on_c, 2, 69, 0
5, 69337, Note_on_c, 2, 62, 80
5, 69369, Note_on_c, 2, 62, 0
5, 69371, Note_on_c, 2, 72, 80
5, 69401, Note_on_c, 2, 71, 80
5, 69402, Note_on_c, 2, 72, 0
5, 69430, Note_on_c, 2, 71, 0
5, 69430, Note_on_c, 2, 72, 80
5, 69442, Note_on_c, 2, 69, 80
5, 69443, Note_on_c, 2, 72, 0
5, 69462, Note_on_c, 2, 69, 0
5, 69462, Note_on_c, 2, 71, 80
5, 69483, Note_on_c, 2, 71, 0
5, 69495, Note_on_c, 2, 74, 80
5, 69526, Note_on_c, 2, 76, 80
5, 69529, Note_on_c, 2, 74, 0
5, 69556, Note_on_c, 2, 78, 80
5, 69557, Note_on_c, 2, 76, 0
5, 69586, Note_on_c, 2, 79, 80
5, 69589, Note_on_c, 2, 78, 0
5, 69612, Note_on_c, 2, 79, 0
5, 69618, Note_on_c, 2, 71, 80
5, 69651, Note_on_c, 2, 71, 0
5, 69651, Note_on_c, 2, 72, 80
5, 69684, Note_on_c, 2, 74, 80
5, 69685, Note_on_c, 2, 72, 0
5, 69713, Note_on_c, 2, 67, 80
5, 69714, Note_on_c, 2, 74, 0
5, 69744, Note_on_c, 2, 67, 0
5, 69744, Note_on_c, 2, 71, 80
5, 69775, Note_on_c, 2, 71, 0
5, 69775, Note_on_c, 2, 69, 80
5, 69804, Note_on_c, 2, 71, 80
5, 69805, Note_on_c, 2, 69, 0
5, 69819, Note_on_c, 2, 71, 0
5, 69820, Note_on_c, 2, 67, 80
5, 69836, Note_on_c, 2, 67, 0
5, 69839, Note_on_c, 2, 72, 80
5, 69846, Note_on_c, 2, 71, 80
5, 69847, Note_on_c, 2, 72, 0
5, 69854, Note_on_c, 2, 72, 80
5, 69856, Note_on_c, 2, 71, 0
5, 70318, Note_on_c, 2, 72, 0
5, 70351, Note_on_c, 2, 62, 80
5, 70376, Note_on_c, 2, 64, 80
5, 70377, Note_on_c, 2, 62, 0
5, 70405, Note_on_c, 2, 66, 80
5, 70407, Note_on_c, 2, 64, 0
5, 70432, Note_on_c, 2, 66, 0
5, 70434, Note_on_c, 2, 67, 80
5, 70464, Note_on_c, 2, 67, 0
5, 70464, Note_on_c, 2, 69, 80
5, 70494, Note_on_c, 2, 71, 80
5, 70495, Note_on_c, 2, 69, 0
5, 70520, Note_on_c, 2, 72, 80
5, 70521, Note_on_c, 2, 71, 0
5, 70547, Note_on_c, 2, 74, 80
5, 70549, Note_on_c, 2, 72, 0
5, 70574, Note_on_c, 2, 74, 0
5, 70576, Note_on_c, 2, 72, 80
5, 70606, Note_on_c, 2, 72, 0
5, 70606, Note_on_c, 2, 74, 80
5, 70633, Note_on_c, 2, 76, 80
5, 70635, Note_on_c, 2, 74, 0
5, 70662, Note_on_c, 2, 76, 0
5, 70667, Note_on_c, 2, 71, 80
5, 70687, Note_on_c, 2, 69, 80
5, 70688, Note_on_c, 2, 71, 0
5, 70703, Note_on_c, 2, 69, 0
5, 70703, Note_on_c, 2, 71, 80
5, 70714, Note_on_c, 2, 71, 0
5, 70716, Note_on_c, 2, 69, 80
5, 70726, Note_on_c, 2, 71, 80
5, 70727, Note_on_c, 2, 69, 0
5, 70737, Note_on_c, 2, 71, 0
5, 70738, Note_on_c, 2, 69, 80
5, 70747, Note_on_c, 2, 71, 80
5, 70748, Note_on_c, 2, 69, 0
5, 70757, Note_on_c, 2, 71, 0
5, 70757, Note_on_c, 2, 69, 80
5, 70765, Note_on_c, 2, 71, 80
5, 70766, Note_on_c, 2, 69, 0
5, 70773, Note_on_c, 2, 69, 80
5, 70774, Note_on_c, 2, 71, 0
5, 70780, Note_on_c, 2, 71, 80
5, 70781, Note_on_c, 2, 69, 0
5, 70786, Note_on_c, 2, 69, 80
5, 70788, Note_on_c, 2, 71, 0
5, 70841, Note_on_c, 2, 67, 80
5, 70842, Note_on_c, 2, 69, 0
5, 70870, Note_on_c, 2, 67, 0
5, 70870, Note_on_c, 2, 69, 80
5, 70884, Note_on_c, 2, 69, 0
5, 70904, Note_on_c, 2, 67, 80
5, 71541, Note_on_c, 2, 69, 80
5, 71542, Note_on_c, 2, 67, 0
5, 71570, Note_on_c, 2, 67, 80
5, 71573, Note_on_c, 2, 69, 0
5, 71602, Note_on_c, 2, 69, 80
5, 71605, Note_on_c, 2, 67, 0
5, 71617, Note_on_c, 2, 66, 80
5, 71618, Note_on_c, 2, 69, 0
5, 71632, Note_on_c, 2, 67, 80
5, 71634, Note_on_c, 2, 66, 0
5, 72010, Note_on_c, 2, 67, 0
5, 72010, End_track
6, 0, Start_track
6, 0, MIDI_port, 0
6, 0, End_track
7, 0, Start_track
7, 0, Title_t, "Komm, heiliger Geist, Herre Gott"
7, 0, MIDI_port, 0
7, 0, End_track
8, 0, Start_track
8, 0, Title_t, "by J. S. Bach (BWV 652)"
8, 0, MIDI_port, 0
8, 0, End_track
9, 0, Start_track
9, 0, MIDI_port, 0
9, 0, End_track
10, 0, Start_track
10, 0, Title_t, "Sequenced using WinJammer Professional"
10, 0, MIDI_port, 0
10, 0, End_track
11, 0, Start_track
11, 0, Title_t, "on Windows NT by Martin Robinson."
11, 0, MIDI_port, 0
11, 0, End_track
12, 0, Start_track
12, 0, Title_t, "(c) Martin Robinson 1997"
12, 0, MIDI_port, 0
12, 0, End_track
0, 0, End_of_file
