0, 0, Header, 1, 5, 240
1, 0, Start_track
1, 0, Time_signature, 3, 2, 24, 8
1, 0, Tempo, 983607
1, 0, End_track
2, 0, Start_track
2, 0, Title_t, "An Wasserflussen Babylon"
2, 0, Program_c, 0, 51
2, 0, Control_c, 0, 7, 127
2, 4320, Note_on_c, 0, 74, 110
2, 4512, Note_off_c, 0, 74, 64
2, 4560, Note_on_c, 0, 76, 110
2, 4752, Note_off_c, 0, 76, 64
2, 4800, Note_on_c, 0, 74, 110
2, 4896, Note_off_c, 0, 74, 64
2, 4920, Note_on_c, 0, 76, 110
2, 4968, Note_off_c, 0, 76, 64
2, 4980, Note_on_c, 0, 72, 110
2, 5028, Note_off_c, 0, 72, 64
2, 5040, Note_on_c, 0, 71, 110
2, 5328, Note_off_c, 0, 71, 64
2, 5400, Note_on_c, 0, 72, 110
2, 5496, Note_off_c, 0, 72, 64
2, 5520, Note_on_c, 0, 74, 110
2, 5952, Note_off_c, 0, 74, 64
2, 6000, Note_on_c, 0, 72, 110
2, 6096, Note_off_c, 0, 72, 64
2, 6120, Note_on_c, 0, 71, 110
2, 6216, Note_off_c, 0, 71, 64
2, 6240, Note_on_c, 0, 72, 110
2, 6336, Note_off_c, 0, 72, 64
2, 6360, Note_on_c, 0, 74, 110
2, 6456, Note_off_c, 0, 74, 64
2, 6480, Note_on_c, 0, 71, 110
2, 6864, Note_off_c, 0, 71, 64
2, 7200, Note_on_c, 0, 69, 110
2, 7392, Note_off_c, 0, 69, 64
2, 7440, Note_on_c, 0, 71, 110
2, 7632, Note_off_c, 0, 71, 64
2, 7680, Note_on_c, 0, 73, 110
2, 7793, Note_off_c, 0, 73, 64
2, 7860, Note_on_c, 0, 71, 110
2, 7884, Note_off_c, 0, 71, 64
2, 7890, Note_on_c, 0, 73, 110
2, 7914, Note_off_c, 0, 73, 64
2, 7920, Note_on_c, 0, 74, 110
2, 8208, Note_off_c, 0, 74, 64
2, 8280, Note_on_c, 0, 72, 110
2, 8376, Note_off_c, 0, 72, 64
2, 8400, Note_on_c, 0, 71, 110
2, 8592, Note_off_c, 0, 71, 64
2, 8640, Note_on_c, 0, 72, 110
2, 8736, Note_off_c, 0, 72, 64
2, 8760, Note_on_c, 0, 74, 110
2, 8808, Note_off_c, 0, 74, 64
2, 8820, Note_on_c, 0, 76, 110
2, 8868, Note_off_c, 0, 76, 64
2, 8880, Note_on_c, 0, 69, 110
2, 9168, Note_off_c, 0, 69, 64
2, 9240, Note_on_c, 0, 67, 110
2, 9288, Note_off_c, 0, 67, 64
2, 9300, Note_on_c, 0, 69, 110
2, 9348, Note_off_c, 0, 69, 64
2, 9360, Note_on_c, 0, 67, 110
2, 10272, Note_off_c, 0, 67, 64
2, 12960, Note_on_c, 0, 74, 110
2, 13152, Note_off_c, 0, 74, 64
2, 13200, Note_on_c, 0, 76, 110
2, 13392, Note_off_c, 0, 76, 64
2, 13440, Note_on_c, 0, 74, 110
2, 13536, Note_off_c, 0, 74, 64
2, 13560, Note_on_c, 0, 72, 110
2, 13656, Note_off_c, 0, 72, 64
2, 13680, Note_on_c, 0, 71, 110
2, 13968, Note_off_c, 0, 71, 64
2, 14040, Note_on_c, 0, 72, 110
2, 14136, Note_off_c, 0, 72, 64
2, 14160, Note_on_c, 0, 74, 110
2, 14592, Note_off_c, 0, 74, 64
2, 14640, Note_on_c, 0, 72, 110
2, 14736, Note_off_c, 0, 72, 64
2, 14760, Note_on_c, 0, 71, 110
2, 14856, Note_off_c, 0, 71, 64
2, 14880, Note_on_c, 0, 72, 110
2, 14976, Note_off_c, 0, 72, 64
2, 15000, Note_on_c, 0, 74, 110
2, 15096, Note_off_c, 0, 74, 64
2, 15120, Note_on_c, 0, 71, 110
2, 15504, Note_off_c, 0, 71, 64
2, 15840, Note_on_c, 0, 69, 110
2, 16032, Note_off_c, 0, 69, 64
2, 16080, Note_on_c, 0, 71, 110
2, 16272, Note_off_c, 0, 71, 64
2, 16320, Note_on_c, 0, 73, 110
2, 16433, Note_off_c, 0, 73, 64
2, 16500, Note_on_c, 0, 71, 110
2, 16524, Note_off_c, 0, 71, 64
2, 16530, Note_on_c, 0, 73, 110
2, 16554, Note_off_c, 0, 73, 64
2, 16560, Note_on_c, 0, 74, 110
2, 16848, Note_off_c, 0, 74, 64
2, 16920, Note_on_c, 0, 72, 110
2, 17016, Note_off_c, 0, 72, 64
2, 17040, Note_on_c, 0, 71, 110
2, 17232, Note_off_c, 0, 71, 64
2, 17280, Note_on_c, 0, 72, 110
2, 17376, Note_off_c, 0, 72, 64
2, 17400, Note_on_c, 0, 74, 110
2, 17448, Note_off_c, 0, 74, 64
2, 17460, Note_on_c, 0, 76, 110
2, 17508, Note_off_c, 0, 76, 64
2, 17520, Note_on_c, 0, 69, 110
2, 17808, Note_off_c, 0, 69, 64
2, 17880, Note_on_c, 0, 67, 110
2, 17928, Note_off_c, 0, 67, 64
2, 17940, Note_on_c, 0, 69, 110
2, 17988, Note_off_c, 0, 69, 64
2, 18000, Note_on_c, 0, 67, 110
2, 18450, Note_off_c, 0, 67, 64
2, 23760, Note_on_c, 0, 67, 110
2, 23952, Note_off_c, 0, 67, 64
2, 24000, Note_on_c, 0, 69, 110
2, 24192, Note_off_c, 0, 69, 64
2, 24240, Note_on_c, 0, 71, 110
2, 24432, Note_off_c, 0, 71, 64
2, 24480, Note_on_c, 0, 72, 110
2, 24576, Note_off_c, 0, 72, 64
2, 24600, Note_on_c, 0, 74, 110
2, 24648, Note_off_c, 0, 74, 64
2, 24660, Note_on_c, 0, 76, 110
2, 24708, Note_off_c, 0, 76, 64
2, 24720, Note_on_c, 0, 69, 110
2, 25104, Note_off_c, 0, 69, 64
2, 25200, Note_on_c, 0, 71, 110
2, 25313, Note_off_c, 0, 71, 64
2, 25320, Note_on_c, 0, 72, 110
2, 25433, Note_off_c, 0, 72, 64
2, 25440, Note_on_c, 0, 69, 110
2, 25728, Note_off_c, 0, 69, 64
2, 25800, Note_on_c, 0, 67, 110
2, 25848, Note_off_c, 0, 67, 64
2, 25860, Note_on_c, 0, 69, 110
2, 25908, Note_off_c, 0, 69, 64
2, 25920, Note_on_c, 0, 67, 110
2, 26112, Note_off_c, 0, 67, 64
2, 28080, Note_on_c, 0, 67, 110
2, 28272, Note_off_c, 0, 67, 64
2, 28320, Note_on_c, 0, 71, 110
2, 28512, Note_off_c, 0, 71, 64
2, 28560, Note_on_c, 0, 73, 110
2, 28752, Note_off_c, 0, 73, 64
2, 28800, Note_on_c, 0, 74, 110
2, 29088, Note_off_c, 0, 74, 64
2, 29160, Note_on_c, 0, 73, 110
2, 29208, Note_off_c, 0, 73, 64
2, 29220, Note_on_c, 0, 71, 110
2, 29268, Note_off_c, 0, 71, 64
2, 29280, Note_on_c, 0, 76, 110
2, 29472, Note_off_c, 0, 76, 64
2, 29520, Note_on_c, 0, 71, 110
2, 29568, Note_off_c, 0, 71, 64
2, 29580, Note_on_c, 0, 73, 110
2, 29628, Note_off_c, 0, 73, 64
2, 29640, Note_on_c, 0, 71, 110
2, 29688, Note_off_c, 0, 71, 64
2, 29700, Note_on_c, 0, 73, 110
2, 29748, Note_off_c, 0, 73, 64
2, 29760, Note_on_c, 0, 73, 110
2, 30144, Note_off_c, 0, 73, 64
2, 30240, Note_on_c, 0, 74, 110
2, 30432, Note_off_c, 0, 74, 64
2, 32400, Note_on_c, 0, 71, 110
2, 32592, Note_off_c, 0, 71, 64
2, 32640, Note_on_c, 0, 74, 110
2, 32832, Note_off_c, 0, 74, 64
2, 32880, Note_on_c, 0, 76, 110
2, 33072, Note_off_c, 0, 76, 64
2, 33120, Note_on_c, 0, 74, 110
2, 33504, Note_off_c, 0, 74, 64
2, 33600, Note_on_c, 0, 71, 110
2, 33792, Note_off_c, 0, 71, 64
2, 33840, Note_on_c, 0, 72, 110
2, 34416, Note_off_c, 0, 72, 64
2, 34560, Note_on_c, 0, 71, 110
2, 35472, Note_off_c, 0, 71, 64
2, 39600, Note_on_c, 0, 76, 110
2, 39792, Note_off_c, 0, 76, 64
2, 39840, Note_on_c, 0, 76, 110
2, 40032, Note_off_c, 0, 76, 64
2, 40080, Note_on_c, 0, 76, 110
2, 40272, Note_off_c, 0, 76, 64
2, 40320, Note_on_c, 0, 69, 110
2, 40704, Note_off_c, 0, 69, 64
2, 40800, Note_on_c, 0, 74, 110
2, 40992, Note_off_c, 0, 74, 64
2, 41040, Note_on_c, 0, 72, 110
2, 41232, Note_off_c, 0, 72, 64
2, 41280, Note_on_c, 0, 71, 110
2, 41568, Note_off_c, 0, 71, 64
2, 41640, Note_on_c, 0, 69, 110
2, 41688, Note_off_c, 0, 69, 64
2, 41700, Note_on_c, 0, 71, 110
2, 41748, Note_off_c, 0, 71, 64
2, 41760, Note_on_c, 0, 69, 110
2, 42336, Note_off_c, 0, 69, 64
2, 42480, Note_on_c, 0, 69, 110
2, 42672, Note_off_c, 0, 69, 64
2, 46560, Note_on_c, 0, 72, 110
2, 46752, Note_off_c, 0, 72, 64
2, 46800, Note_on_c, 0, 71, 110
2, 47184, Note_off_c, 0, 71, 64
2, 47280, Note_on_c, 0, 69, 110
2, 47472, Note_off_c, 0, 69, 64
2, 47520, Note_on_c, 0, 67, 110
2, 47808, Note_off_c, 0, 67, 64
2, 47880, Note_on_c, 0, 70, 110
2, 47976, Note_off_c, 0, 70, 64
2, 48000, Note_on_c, 0, 69, 110
2, 48096, Note_off_c, 0, 69, 64
2, 48120, Note_on_c, 0, 67, 110
2, 48216, Note_off_c, 0, 67, 64
2, 48240, Note_on_c, 0, 65, 110
2, 48288, Note_off_c, 0, 65, 64
2, 48300, Note_on_c, 0, 67, 110
2, 48348, Note_off_c, 0, 67, 64
2, 48360, Note_on_c, 0, 65, 110
2, 48408, Note_off_c, 0, 65, 64
2, 48420, Note_on_c, 0, 64, 110
2, 48468, Note_off_c, 0, 64, 64
2, 48480, Note_on_c, 0, 64, 110
2, 48768, Note_off_c, 0, 64, 64
2, 48840, Note_on_c, 0, 62, 110
2, 48888, Note_off_c, 0, 62, 64
2, 48900, Note_on_c, 0, 64, 110
2, 48948, Note_off_c, 0, 64, 64
2, 48960, Note_on_c, 0, 62, 110
2, 49344, Note_off_c, 0, 62, 64
2, 51840, Note_on_c, 0, 62, 110
2, 52032, Note_off_c, 0, 62, 64
2, 52080, Note_on_c, 0, 67, 110
2, 52368, Note_off_c, 0, 67, 64
2, 52440, Note_on_c, 0, 69, 110
2, 52536, Note_off_c, 0, 69, 64
2, 52560, Note_on_c, 0, 71, 110
2, 52704, Note_off_c, 0, 71, 64
2, 52740, Note_on_c, 0, 72, 110
2, 52788, Note_off_c, 0, 72, 64
2, 52800, Note_on_c, 0, 72, 110
2, 53088, Note_off_c, 0, 72, 64
2, 53160, Note_on_c, 0, 71, 110
2, 53208, Note_off_c, 0, 71, 64
2, 53220, Note_on_c, 0, 72, 110
2, 53268, Note_off_c, 0, 72, 64
2, 53280, Note_on_c, 0, 74, 110
2, 53568, Note_off_c, 0, 74, 64
2, 53640, Note_on_c, 0, 72, 110
2, 53736, Note_off_c, 0, 72, 64
2, 53760, Note_on_c, 0, 71, 110
2, 53952, Note_off_c, 0, 71, 64
2, 54000, Note_on_c, 0, 72, 110
2, 54096, Note_off_c, 0, 72, 64
2, 54120, Note_on_c, 0, 74, 110
2, 54168, Note_off_c, 0, 74, 64
2, 54180, Note_on_c, 0, 76, 110
2, 54228, Note_off_c, 0, 76, 64
2, 54240, Note_on_c, 0, 69, 110
2, 54528, Note_off_c, 0, 69, 64
2, 54600, Note_on_c, 0, 67, 110
2, 54648, Note_off_c, 0, 67, 64
2, 54660, Note_on_c, 0, 69, 110
2, 54708, Note_off_c, 0, 69, 64
2, 54720, Note_on_c, 0, 67, 110
2, 54912, Note_off_c, 0, 67, 64
2, 54912, End_track
3, 0, Start_track
3, 0, Program_c, 0, 51
3, 0, Control_c, 0, 7, 127
3, 7680, Note_on_c, 0, 74, 110
3, 7704, Note_off_c, 0, 74, 64
3, 7710, Note_on_c, 0, 73, 110
3, 7734, Note_off_c, 0, 73, 64
3, 7740, Note_on_c, 0, 74, 110
3, 7764, Note_off_c, 0, 74, 64
3, 7770, Note_on_c, 0, 73, 110
3, 7794, Note_off_c, 0, 73, 64
3, 7800, Note_on_c, 0, 74, 110
3, 7824, Note_off_c, 0, 74, 64
3, 7830, Note_on_c, 0, 73, 110
3, 7854, Note_off_c, 0, 73, 64
3, 7860, Note_on_c, 0, 71, 110
3, 7884, Note_off_c, 0, 71, 64
3, 7890, Note_on_c, 0, 73, 110
3, 7914, Note_off_c, 0, 73, 64
3, 8880, Note_on_c, 0, 71, 110
3, 8904, Note_off_c, 0, 71, 64
3, 8910, Note_on_c, 0, 69, 110
3, 8934, Note_off_c, 0, 69, 64
3, 8940, Note_on_c, 0, 71, 110
3, 8964, Note_off_c, 0, 71, 64
3, 8970, Note_on_c, 0, 69, 110
3, 8994, Note_off_c, 0, 69, 64
3, 9000, Note_on_c, 0, 71, 110
3, 9024, Note_off_c, 0, 71, 64
3, 9030, Note_on_c, 0, 69, 110
3, 9054, Note_off_c, 0, 69, 64
3, 9060, Note_on_c, 0, 71, 110
3, 9084, Note_off_c, 0, 71, 64
3, 9090, Note_on_c, 0, 69, 110
3, 9216, Note_off_c, 0, 69, 64
3, 9240, Note_on_c, 0, 67, 110
3, 9288, Note_off_c, 0, 67, 64
3, 9300, Note_on_c, 0, 69, 110
3, 9348, Note_off_c, 0, 69, 64
3, 16320, Note_on_c, 0, 74, 110
3, 16344, Note_off_c, 0, 74, 64
3, 16350, Note_on_c, 0, 73, 110
3, 16374, Note_off_c, 0, 73, 64
3, 16380, Note_on_c, 0, 74, 110
3, 16404, Note_off_c, 0, 74, 64
3, 16410, Note_on_c, 0, 73, 110
3, 16434, Note_off_c, 0, 73, 64
3, 16440, Note_on_c, 0, 74, 110
3, 16464, Note_off_c, 0, 74, 64
3, 16470, Note_on_c, 0, 73, 110
3, 16494, Note_off_c, 0, 73, 64
3, 16500, Note_on_c, 0, 71, 110
3, 16524, Note_off_c, 0, 71, 64
3, 16530, Note_on_c, 0, 73, 110
3, 16554, Note_off_c, 0, 73, 64
3, 17520, Note_on_c, 0, 71, 110
3, 17544, Note_off_c, 0, 71, 64
3, 17550, Note_on_c, 0, 69, 110
3, 17574, Note_off_c, 0, 69, 64
3, 17580, Note_on_c, 0, 71, 110
3, 17604, Note_off_c, 0, 71, 64
3, 17610, Note_on_c, 0, 69, 110
3, 17634, Note_off_c, 0, 69, 64
3, 17640, Note_on_c, 0, 71, 110
3, 17664, Note_off_c, 0, 71, 64
3, 17670, Note_on_c, 0, 69, 110
3, 17694, Note_off_c, 0, 69, 64
3, 17700, Note_on_c, 0, 71, 110
3, 17724, Note_off_c, 0, 71, 64
3, 17730, Note_on_c, 0, 69, 110
3, 17856, Note_off_c, 0, 69, 64
3, 17880, Note_on_c, 0, 67, 110
3, 17928, Note_off_c, 0, 67, 64
3, 17940, Note_on_c, 0, 69, 110
3, 17988, Note_off_c, 0, 69, 64
3, 25440, Note_on_c, 0, 71, 110
3, 25464, Note_off_c, 0, 71, 64
3, 25470, Note_on_c, 0, 69, 110
3, 25494, Note_off_c, 0, 69, 64
3, 25500, Note_on_c, 0, 71, 110
3, 25524, Note_off_c, 0, 71, 64
3, 25530, Note_on_c, 0, 69, 110
3, 25554, Note_off_c, 0, 69, 64
3, 25560, Note_on_c, 0, 71, 110
3, 25584, Note_off_c, 0, 71, 64
3, 25590, Note_on_c, 0, 69, 110
3, 25614, Note_off_c, 0, 69, 64
3, 25620, Note_on_c, 0, 71, 110
3, 25644, Note_off_c, 0, 71, 64
3, 25650, Note_on_c, 0, 69, 110
3, 25776, Note_off_c, 0, 69, 64
3, 25800, Note_on_c, 0, 67, 110
3, 25848, Note_off_c, 0, 67, 64
3, 25860, Note_on_c, 0, 69, 110
3, 25908, Note_off_c, 0, 69, 64
3, 29760, Note_on_c, 0, 74, 110
3, 29784, Note_off_c, 0, 74, 64
3, 29790, Note_on_c, 0, 73, 110
3, 29814, Note_off_c, 0, 73, 64
3, 29820, Note_on_c, 0, 74, 110
3, 29844, Note_off_c, 0, 74, 64
3, 29850, Note_on_c, 0, 73, 110
3, 29874, Note_off_c, 0, 73, 64
3, 29880, Note_on_c, 0, 74, 110
3, 29904, Note_off_c, 0, 74, 64
3, 29910, Note_on_c, 0, 73, 110
3, 29934, Note_off_c, 0, 73, 64
3, 29940, Note_on_c, 0, 74, 110
3, 29964, Note_off_c, 0, 74, 64
3, 29970, Note_on_c, 0, 73, 110
3, 29994, Note_off_c, 0, 73, 64
3, 30000, Note_on_c, 0, 74, 110
3, 30024, Note_off_c, 0, 74, 64
3, 30030, Note_on_c, 0, 73, 110
3, 30054, Note_off_c, 0, 73, 64
3, 30060, Note_on_c, 0, 74, 110
3, 30084, Note_off_c, 0, 74, 64
3, 30090, Note_on_c, 0, 73, 110
3, 30114, Note_off_c, 0, 73, 64
3, 30120, Note_on_c, 0, 74, 110
3, 30144, Note_off_c, 0, 74, 64
3, 30150, Note_on_c, 0, 73, 110
3, 30174, Note_off_c, 0, 73, 64
3, 30180, Note_on_c, 0, 74, 110
3, 30204, Note_off_c, 0, 74, 64
3, 30210, Note_on_c, 0, 73, 110
3, 30234, Note_off_c, 0, 73, 64
3, 41280, Note_on_c, 0, 72, 110
3, 41304, Note_off_c, 0, 72, 64
3, 41310, Note_on_c, 0, 71, 110
3, 41334, Note_off_c, 0, 71, 64
3, 41340, Note_on_c, 0, 72, 110
3, 41364, Note_off_c, 0, 72, 64
3, 41370, Note_on_c, 0, 71, 110
3, 41394, Note_off_c, 0, 71, 64
3, 41400, Note_on_c, 0, 72, 110
3, 41424, Note_off_c, 0, 72, 64
3, 41430, Note_on_c, 0, 71, 110
3, 41454, Note_off_c, 0, 71, 64
3, 41460, Note_on_c, 0, 72, 110
3, 41484, Note_off_c, 0, 72, 64
3, 41490, Note_on_c, 0, 71, 110
3, 41616, Note_off_c, 0, 71, 64
3, 41640, Note_on_c, 0, 69, 110
3, 41688, Note_off_c, 0, 69, 64
3, 41700, Note_on_c, 0, 71, 110
3, 41748, Note_off_c, 0, 71, 64
3, 48480, Note_on_c, 0, 65, 110
3, 48504, Note_off_c, 0, 65, 64
3, 48510, Note_on_c, 0, 64, 110
3, 48534, Note_off_c, 0, 64, 64
3, 48540, Note_on_c, 0, 65, 110
3, 48564, Note_off_c, 0, 65, 64
3, 48570, Note_on_c, 0, 64, 110
3, 48594, Note_off_c, 0, 64, 64
3, 48600, Note_on_c, 0, 65, 110
3, 48624, Note_off_c, 0, 65, 64
3, 48630, Note_on_c, 0, 64, 110
3, 48654, Note_off_c, 0, 64, 64
3, 48660, Note_on_c, 0, 65, 110
3, 48684, Note_off_c, 0, 65, 64
3, 48690, Note_on_c, 0, 64, 110
3, 48816, Note_off_c, 0, 64, 64
3, 48840, Note_on_c, 0, 62, 110
3, 48888, Note_off_c, 0, 62, 64
3, 48900, Note_on_c, 0, 64, 110
3, 48948, Note_off_c, 0, 64, 64
3, 52800, Note_on_c, 0, 74, 110
3, 52824, Note_off_c, 0, 74, 64
3, 52830, Note_on_c, 0, 72, 110
3, 52854, Note_off_c, 0, 72, 64
3, 52860, Note_on_c, 0, 74, 110
3, 52884, Note_off_c, 0, 74, 64
3, 52890, Note_on_c, 0, 72, 110
3, 52914, Note_off_c, 0, 72, 64
3, 52920, Note_on_c, 0, 74, 110
3, 52944, Note_off_c, 0, 74, 64
3, 52950, Note_on_c, 0, 72, 110
3, 52974, Note_off_c, 0, 72, 64
3, 52980, Note_on_c, 0, 74, 110
3, 53004, Note_off_c, 0, 74, 64
3, 53010, Note_on_c, 0, 72, 110
3, 53136, Note_off_c, 0, 72, 64
3, 53160, Note_on_c, 0, 71, 110
3, 53208, Note_off_c, 0, 71, 64
3, 53220, Note_on_c, 0, 72, 110
3, 53268, Note_off_c, 0, 72, 64
3, 54240, Note_on_c, 0, 71, 110
3, 54264, Note_off_c, 0, 71, 64
3, 54270, Note_on_c, 0, 69, 110
3, 54294, Note_off_c, 0, 69, 64
3, 54300, Note_on_c, 0, 71, 110
3, 54324, Note_off_c, 0, 71, 64
3, 54330, Note_on_c, 0, 69, 110
3, 54354, Note_off_c, 0, 69, 64
3, 54360, Note_on_c, 0, 71, 110
3, 54384, Note_off_c, 0, 71, 64
3, 54390, Note_on_c, 0, 69, 110
3, 54414, Note_off_c, 0, 69, 64
3, 54420, Note_on_c, 0, 71, 110
3, 54444, Note_off_c, 0, 71, 64
3, 54450, Note_on_c, 0, 69, 110
3, 54576, Note_off_c, 0, 69, 64
3, 54600, Note_on_c, 0, 67, 110
3, 54648, Note_off_c, 0, 67, 64
3, 54660, Note_on_c, 0, 69, 110
3, 54708, Note_off_c, 0, 69, 64
3, 54708, End_track
4, 0, Start_track
4, 0, Title_t, "J.S. Bach  BWV 653"
4, 0, Program_c, 0, 6
4, 0, Control_c, 0, 7, 127
4, 0, Note_on_c, 0, 71, 127
4, 0, Note_on_c, 0, 74, 96
4, 192, Note_off_c, 0, 74, 64
4, 192, Note_off_c, 0, 71, 64
4, 240, Note_on_c, 0, 69, 96
4, 240, Note_on_c, 0, 76, 96
4, 336, Note_off_c, 0, 69, 64
4, 360, Note_on_c, 0, 67, 96
4, 432, Note_off_c, 0, 76, 64
4, 456, Note_off_c, 0, 67, 64
4, 480, Note_on_c, 0, 66, 96
4, 480, Note_on_c, 0, 74, 96
4, 576, Note_off_c, 0, 74, 64
4, 600, Note_on_c, 0, 72, 96
4, 672, Note_off_c, 0, 66, 64
4, 696, Note_off_c, 0, 72, 64
4, 720, Note_on_c, 0, 71, 96
4, 720, Note_on_c, 0, 67, 96
4, 912, Note_off_c, 0, 67, 64
4, 960, Note_on_c, 0, 66, 96
4, 1008, Note_off_c, 0, 71, 64
4, 1056, Note_off_c, 0, 66, 64
4, 1080, Note_on_c, 0, 64, 96
4, 1080, Note_on_c, 0, 72, 96
4, 1176, Note_off_c, 0, 72, 64
4, 1176, Note_off_c, 0, 64, 64
4, 1200, Note_on_c, 0, 74, 96
4, 1200, Note_on_c, 0, 62, 96
4, 1392, Note_off_c, 0, 62, 64
4, 1440, Note_on_c, 0, 64, 96
4, 1632, Note_off_c, 0, 64, 64
4, 1632, Note_off_c, 0, 74, 64
4, 1680, Note_on_c, 0, 72, 96
4, 1680, Note_on_c, 0, 66, 96
4, 1776, Note_off_c, 0, 72, 64
4, 1800, Note_on_c, 0, 71, 96
4, 1896, Note_off_c, 0, 71, 64
4, 1920, Note_on_c, 0, 72, 96
4, 2016, Note_off_c, 0, 72, 64
4, 2040, Note_on_c, 0, 74, 96
4, 2064, Note_off_c, 0, 66, 64
4, 2136, Note_off_c, 0, 74, 64
4, 2160, Note_on_c, 0, 71, 96
4, 2160, Note_on_c, 0, 67, 96
4, 2352, Note_off_c, 0, 71, 64
4, 2448, Note_off_c, 0, 67, 64
4, 2520, Note_on_c, 0, 67, 96
4, 2616, Note_off_c, 0, 67, 64
4, 2640, Note_on_c, 0, 66, 96
4, 2736, Note_off_c, 0, 66, 64
4, 2760, Note_on_c, 0, 64, 96
4, 2856, Note_off_c, 0, 64, 64
4, 2880, Note_on_c, 0, 69, 96
4, 2880, Note_on_c, 0, 66, 96
4, 3072, Note_off_c, 0, 66, 64
4, 3072, Note_off_c, 0, 69, 64
4, 3120, Note_on_c, 0, 71, 96
4, 3120, Note_on_c, 0, 64, 96
4, 3312, Note_off_c, 0, 71, 64
4, 3360, Note_on_c, 0, 73, 96
4, 3408, Note_off_c, 0, 64, 64
4, 3480, Note_on_c, 0, 67, 96
4, 3552, Note_off_c, 0, 73, 64
4, 3576, Note_off_c, 0, 67, 64
4, 3600, Note_on_c, 0, 74, 96
4, 3600, Note_on_c, 0, 66, 96
4, 3696, Note_off_c, 0, 66, 64
4, 3720, Note_on_c, 0, 67, 96
4, 3816, Note_off_c, 0, 67, 64
4, 3840, Note_on_c, 0, 69, 96
4, 3888, Note_off_c, 0, 74, 64
4, 3960, Note_on_c, 0, 72, 96
4, 4032, Note_off_c, 0, 69, 64
4, 4056, Note_off_c, 0, 72, 64
4, 4080, Note_on_c, 0, 62, 96
4, 4080, Note_on_c, 0, 71, 96
4, 4176, Note_off_c, 0, 71, 64
4, 4200, Note_on_c, 0, 69, 96
4, 4272, Note_off_c, 0, 62, 64
4, 4296, Note_off_c, 0, 69, 64
4, 4320, Note_on_c, 0, 69, 84
4, 4320, Note_on_c, 0, 72, 84
4, 4416, Note_off_c, 0, 72, 64
4, 4416, Note_off_c, 0, 69, 64
4, 4440, Note_on_c, 0, 67, 84
4, 4440, Note_on_c, 0, 71, 84
4, 4536, Note_off_c, 0, 71, 64
4, 4560, Note_on_c, 0, 69, 84
4, 4752, Note_off_c, 0, 67, 64
4, 4800, Note_on_c, 0, 66, 84
4, 4944, Note_off_c, 0, 69, 64
4, 4992, Note_off_c, 0, 66, 64
4, 5040, Note_on_c, 0, 67, 84
4, 5040, Note_on_c, 0, 67, 84
4, 5136, Note_off_c, 0, 67, 64
4, 5160, Note_on_c, 0, 74, 84
4, 5232, Note_off_c, 0, 67, 64
4, 5376, Note_off_c, 0, 74, 64
4, 5400, Note_on_c, 0, 72, 84
4, 5616, Note_off_c, 0, 72, 64
4, 5640, Note_on_c, 0, 71, 84
4, 5640, Note_on_c, 0, 74, 84
4, 5736, Note_off_c, 0, 74, 64
4, 5760, Note_on_c, 0, 76, 84
4, 5856, Note_off_c, 0, 71, 64
4, 5880, Note_on_c, 0, 67, 84
4, 5952, Note_off_c, 0, 76, 64
4, 5976, Note_off_c, 0, 67, 64
4, 6000, Note_on_c, 0, 72, 84
4, 6000, Note_on_c, 0, 78, 84
4, 6192, Note_off_c, 0, 72, 64
4, 6240, Note_on_c, 0, 74, 84
4, 6384, Note_off_c, 0, 78, 64
4, 6480, Note_on_c, 0, 79, 84
4, 6576, Note_off_c, 0, 74, 64
4, 6600, Note_on_c, 0, 67, 84
4, 6696, Note_off_c, 0, 67, 64
4, 6720, Note_on_c, 0, 71, 84
4, 6768, Note_off_c, 0, 79, 64
4, 6840, Note_on_c, 0, 79, 84
4, 6912, Note_off_c, 0, 71, 64
4, 6936, Note_off_c, 0, 79, 64
4, 6960, Note_on_c, 0, 73, 84
4, 6960, Note_on_c, 0, 78, 84
4, 7056, Note_off_c, 0, 78, 64
4, 7080, Note_on_c, 0, 76, 84
4, 7152, Note_off_c, 0, 73, 64
4, 7176, Note_off_c, 0, 76, 64
4, 7200, Note_on_c, 0, 74, 84
4, 7200, Note_on_c, 0, 78, 84
4, 7392, Note_off_c, 0, 78, 64
4, 7440, Note_on_c, 0, 76, 84
4, 7488, Note_off_c, 0, 74, 64
4, 7560, Note_on_c, 0, 71, 84
4, 7656, Note_off_c, 0, 71, 64
4, 7680, Note_on_c, 0, 69, 84
4, 7776, Note_off_c, 0, 69, 64
4, 7800, Note_on_c, 0, 67, 84
4, 7824, Note_off_c, 0, 76, 64
4, 7896, Note_off_c, 0, 67, 64
4, 7920, Note_on_c, 0, 74, 84
4, 7920, Note_on_c, 0, 66, 84
4, 8016, Note_off_c, 0, 66, 64
4, 8040, Note_on_c, 0, 71, 84
4, 8112, Note_off_c, 0, 74, 64
4, 8256, Note_off_c, 0, 71, 64
4, 8280, Note_on_c, 0, 69, 84
4, 8400, Note_on_c, 0, 74, 84
4, 8496, Note_off_c, 0, 69, 64
4, 8520, Note_on_c, 0, 67, 84
4, 8592, Note_off_c, 0, 74, 64
4, 8640, Note_on_c, 0, 76, 84
4, 8832, Note_off_c, 0, 76, 64
4, 8880, Note_on_c, 0, 74, 84
4, 9024, Note_off_c, 0, 67, 64
4, 9120, Note_on_c, 0, 66, 84
4, 9168, Note_off_c, 0, 74, 64
4, 9240, Note_on_c, 0, 72, 84
4, 9312, Note_off_c, 0, 66, 64
4, 9336, Note_off_c, 0, 72, 64
4, 9360, Note_on_c, 0, 71, 84
4, 9360, Note_on_c, 0, 67, 84
4, 9552, Note_off_c, 0, 67, 64
4, 9600, Note_on_c, 0, 66, 84
4, 9648, Note_off_c, 0, 71, 64
4, 9696, Note_off_c, 0, 66, 64
4, 9720, Note_on_c, 0, 64, 96
4, 9720, Note_on_c, 0, 72, 96
4, 9816, Note_off_c, 0, 72, 64
4, 9816, Note_off_c, 0, 64, 64
4, 9840, Note_on_c, 0, 74, 96
4, 9840, Note_on_c, 0, 62, 96
4, 10032, Note_off_c, 0, 62, 64
4, 10080, Note_on_c, 0, 64, 96
4, 10272, Note_off_c, 0, 74, 64
4, 10272, Note_off_c, 0, 64, 64
4, 10320, Note_on_c, 0, 66, 96
4, 10320, Note_on_c, 0, 72, 96
4, 10416, Note_off_c, 0, 72, 64
4, 10440, Note_on_c, 0, 71, 96
4, 10536, Note_off_c, 0, 71, 64
4, 10560, Note_on_c, 0, 72, 96
4, 10656, Note_off_c, 0, 72, 64
4, 10680, Note_on_c, 0, 74, 96
4, 10704, Note_off_c, 0, 66, 64
4, 10776, Note_off_c, 0, 74, 64
4, 10800, Note_on_c, 0, 67, 96
4, 10800, Note_on_c, 0, 71, 96
4, 10992, Note_off_c, 0, 71, 64
4, 11088, Note_off_c, 0, 67, 64
4, 11160, Note_on_c, 0, 67, 96
4, 11256, Note_off_c, 0, 67, 64
4, 11280, Note_on_c, 0, 66, 96
4, 11376, Note_off_c, 0, 66, 64
4, 11400, Note_on_c, 0, 64, 96
4, 11496, Note_off_c, 0, 64, 64
4, 11520, Note_on_c, 0, 69, 96
4, 11520, Note_on_c, 0, 66, 96
4, 11712, Note_off_c, 0, 66, 64
4, 11712, Note_off_c, 0, 69, 64
4, 11760, Note_on_c, 0, 71, 96
4, 11760, Note_on_c, 0, 64, 96
4, 11952, Note_off_c, 0, 71, 64
4, 12000, Note_on_c, 0, 73, 96
4, 12048, Note_off_c, 0, 64, 64
4, 12120, Note_on_c, 0, 67, 96
4, 12192, Note_off_c, 0, 73, 64
4, 12216, Note_off_c, 0, 67, 64
4, 12240, Note_on_c, 0, 74, 96
4, 12240, Note_on_c, 0, 66, 96
4, 12336, Note_off_c, 0, 66, 64
4, 12360, Note_on_c, 0, 67, 96
4, 12456, Note_off_c, 0, 67, 64
4, 12480, Note_on_c, 0, 69, 96
4, 12528, Note_off_c, 0, 74, 64
4, 12600, Note_on_c, 0, 72, 96
4, 12672, Note_off_c, 0, 69, 64
4, 12696, Note_off_c, 0, 72, 64
4, 12720, Note_on_c, 0, 62, 96
4, 12720, Note_on_c, 0, 71, 96
4, 12816, Note_off_c, 0, 71, 64
4, 12840, Note_on_c, 0, 69, 96
4, 12912, Note_off_c, 0, 62, 64
4, 12936, Note_off_c, 0, 69, 64
4, 12960, Note_on_c, 0, 69, 84
4, 12960, Note_on_c, 0, 72, 84
4, 13056, Note_off_c, 0, 72, 64
4, 13056, Note_off_c, 0, 69, 64
4, 13080, Note_on_c, 0, 71, 84
4, 13080, Note_on_c, 0, 67, 84
4, 13176, Note_off_c, 0, 71, 64
4, 13200, Note_on_c, 0, 69, 84
4, 13392, Note_off_c, 0, 67, 64
4, 13440, Note_on_c, 0, 66, 84
4, 13584, Note_off_c, 0, 69, 64
4, 13632, Note_off_c, 0, 66, 64
4, 13680, Note_on_c, 0, 67, 84
4, 13680, Note_on_c, 0, 67, 84
4, 13776, Note_off_c, 0, 67, 64
4, 13800, Note_on_c, 0, 74, 84
4, 13872, Note_off_c, 0, 67, 64
4, 14016, Note_off_c, 0, 74, 64
4, 14040, Note_on_c, 0, 72, 84
4, 14256, Note_off_c, 0, 72, 64
4, 14280, Note_on_c, 0, 71, 84
4, 14280, Note_on_c, 0, 74, 84
4, 14376, Note_off_c, 0, 74, 64
4, 14400, Note_on_c, 0, 76, 84
4, 14496, Note_off_c, 0, 71, 64
4, 14520, Note_on_c, 0, 67, 84
4, 14592, Note_off_c, 0, 76, 64
4, 14616, Note_off_c, 0, 67, 64
4, 14640, Note_on_c, 0, 72, 84
4, 14640, Note_on_c, 0, 78, 84
4, 14832, Note_off_c, 0, 72, 64
4, 14880, Note_on_c, 0, 74, 84
4, 15024, Note_off_c, 0, 78, 64
4, 15120, Note_on_c, 0, 79, 84
4, 15216, Note_off_c, 0, 74, 64
4, 15240, Note_on_c, 0, 67, 84
4, 15336, Note_off_c, 0, 67, 64
4, 15360, Note_on_c, 0, 71, 84
4, 15408, Note_off_c, 0, 79, 64
4, 15480, Note_on_c, 0, 79, 84
4, 15552, Note_off_c, 0, 71, 64
4, 15576, Note_off_c, 0, 79, 64
4, 15600, Note_on_c, 0, 73, 84
4, 15600, Note_on_c, 0, 78, 84
4, 15696, Note_off_c, 0, 78, 64
4, 15720, Note_on_c, 0, 76, 84
4, 15792, Note_off_c, 0, 73, 64
4, 15816, Note_off_c, 0, 76, 64
4, 15840, Note_on_c, 0, 74, 84
4, 15840, Note_on_c, 0, 78, 84
4, 16032, Note_off_c, 0, 78, 64
4, 16080, Note_on_c, 0, 76, 84
4, 16128, Note_off_c, 0, 74, 64
4, 16200, Note_on_c, 0, 71, 84
4, 16296, Note_off_c, 0, 71, 64
4, 16320, Note_on_c, 0, 69, 84
4, 16416, Note_off_c, 0, 69, 64
4, 16440, Note_on_c, 0, 67, 84
4, 16464, Note_off_c, 0, 76, 64
4, 16536, Note_off_c, 0, 67, 64
4, 16560, Note_on_c, 0, 66, 84
4, 16560, Note_on_c, 0, 74, 84
4, 16656, Note_off_c, 0, 66, 64
4, 16680, Note_on_c, 0, 71, 84
4, 16752, Note_off_c, 0, 74, 64
4, 16896, Note_off_c, 0, 71, 64
4, 16920, Note_on_c, 0, 69, 84
4, 17136, Note_off_c, 0, 69, 64
4, 17160, Note_on_c, 0, 62, 84
4, 17160, Note_on_c, 0, 67, 84
4, 17280, Note_on_c, 0, 64, 84
4, 17472, Note_off_c, 0, 67, 64
4, 17472, Note_off_c, 0, 64, 64
4, 17520, Note_on_c, 0, 66, 84
4, 17520, Note_on_c, 0, 62, 84
4, 17712, Note_off_c, 0, 62, 64
4, 17760, Note_on_c, 0, 60, 84
4, 17904, Note_off_c, 0, 66, 64
4, 17952, Note_off_c, 0, 60, 64
4, 18000, Note_on_c, 0, 67, 84
4, 18000, Note_on_c, 0, 59, 84
4, 18096, Note_off_c, 0, 59, 64
4, 18120, Note_on_c, 0, 64, 84
4, 18288, Note_off_c, 0, 67, 64
4, 18336, Note_off_c, 0, 64, 64
4, 18360, Note_on_c, 0, 62, 84
4, 18360, Note_on_c, 0, 65, 84
4, 18456, Note_off_c, 0, 65, 64
4, 18480, Note_on_c, 0, 64, 84
4, 18576, Note_off_c, 0, 62, 64
4, 18600, Note_on_c, 0, 61, 84
4, 18672, Note_off_c, 0, 64, 64
4, 18696, Note_off_c, 0, 61, 64
4, 18720, Note_on_c, 0, 65, 84
4, 18720, Note_on_c, 0, 62, 84
4, 18912, Note_off_c, 0, 65, 64
4, 18960, Note_on_c, 0, 62, 84
4, 19056, Note_off_c, 0, 62, 64
4, 19080, Note_on_c, 0, 60, 84
4, 19296, Note_off_c, 0, 60, 64
4, 19320, Note_on_c, 0, 59, 84
4, 19344, Note_off_c, 0, 62, 64
4, 19440, Note_on_c, 0, 60, 84
4, 19536, Note_off_c, 0, 59, 64
4, 19560, Note_on_c, 0, 52, 84
4, 19632, Note_off_c, 0, 60, 64
4, 19656, Note_off_c, 0, 52, 64
4, 19680, Note_on_c, 0, 57, 84
4, 19776, Note_off_c, 0, 57, 64
4, 19800, Note_on_c, 0, 59, 84
4, 19896, Note_off_c, 0, 59, 64
4, 19920, Note_on_c, 0, 69, 84
4, 19920, Note_on_c, 0, 60, 84
4, 20016, Note_off_c, 0, 60, 64
4, 20040, Note_on_c, 0, 62, 84
4, 20112, Note_off_c, 0, 69, 64
4, 20136, Note_off_c, 0, 62, 64
4, 20160, Note_on_c, 0, 55, 84
4, 20160, Note_on_c, 0, 71, 84
4, 20256, Note_off_c, 0, 55, 64
4, 20280, Note_on_c, 0, 67, 84
4, 20352, Note_off_c, 0, 71, 64
4, 20400, Note_on_c, 0, 73, 84
4, 20496, Note_off_c, 0, 67, 64
4, 20520, Note_on_c, 0, 71, 84
4, 20616, Note_off_c, 0, 71, 64
4, 20640, Note_on_c, 0, 69, 84
4, 20736, Note_off_c, 0, 69, 64
4, 20760, Note_on_c, 0, 67, 84
4, 20784, Note_off_c, 0, 73, 64
4, 20856, Note_off_c, 0, 67, 64
4, 20880, Note_on_c, 0, 74, 84
4, 20880, Note_on_c, 0, 66, 84
4, 20976, Note_off_c, 0, 66, 64
4, 21000, Note_on_c, 0, 71, 84
4, 21168, Note_off_c, 0, 74, 64
4, 21216, Note_off_c, 0, 71, 64
4, 21240, Note_on_c, 0, 72, 84
4, 21240, Note_on_c, 0, 69, 84
4, 21336, Note_off_c, 0, 72, 64
4, 21360, Note_on_c, 0, 71, 84
4, 21456, Note_off_c, 0, 69, 64
4, 21480, Note_on_c, 0, 68, 84
4, 21552, Note_off_c, 0, 71, 64
4, 21576, Note_off_c, 0, 68, 64
4, 21600, Note_on_c, 0, 69, 84
4, 21600, Note_on_c, 0, 72, 84
4, 21696, Note_off_c, 0, 72, 64
4, 21696, Note_off_c, 0, 69, 64
4, 21720, Note_on_c, 0, 68, 84
4, 21720, Note_on_c, 0, 71, 84
4, 21816, Note_off_c, 0, 71, 64
4, 21816, Note_off_c, 0, 68, 64
4, 21840, Note_on_c, 0, 69, 84
4, 21840, Note_on_c, 0, 69, 84
4, 21936, Note_off_c, 0, 69, 64
4, 21960, Note_on_c, 0, 67, 84
4, 22056, Note_off_c, 0, 67, 64
4, 22080, Note_on_c, 0, 66, 84
4, 22224, Note_off_c, 0, 69, 64
4, 22272, Note_off_c, 0, 66, 64
4, 22320, Note_on_c, 0, 67, 84
4, 22320, Note_on_c, 0, 67, 84
4, 22416, Note_off_c, 0, 67, 64
4, 22440, Note_on_c, 0, 62, 84
4, 22536, Note_off_c, 0, 62, 64
4, 22560, Note_on_c, 0, 64, 84
4, 22704, Note_off_c, 0, 67, 64
4, 22752, Note_off_c, 0, 64, 64
4, 22800, Note_on_c, 0, 62, 84
4, 22896, Note_off_c, 0, 62, 64
4, 22920, Note_on_c, 0, 60, 84
4, 23016, Note_off_c, 0, 60, 64
4, 23040, Note_on_c, 0, 59, 84
4, 23040, Note_on_c, 0, 74, 84
4, 23136, Note_off_c, 0, 59, 64
4, 23160, Note_on_c, 0, 71, 84
4, 23232, Note_off_c, 0, 74, 64
4, 23280, Note_on_c, 0, 76, 84
4, 23376, Note_off_c, 0, 71, 64
4, 23400, Note_on_c, 0, 72, 84
4, 23472, Note_off_c, 0, 76, 64
4, 23496, Note_off_c, 0, 72, 64
4, 23520, Note_on_c, 0, 71, 84
4, 23520, Note_on_c, 0, 74, 84
4, 23616, Note_off_c, 0, 74, 64
4, 23616, Note_off_c, 0, 71, 64
4, 23640, Note_on_c, 0, 69, 84
4, 23640, Note_on_c, 0, 72, 84
4, 23736, Note_off_c, 0, 72, 64
4, 23736, Note_off_c, 0, 69, 64
4, 23760, Note_on_c, 0, 67, 84
4, 23760, Note_on_c, 0, 71, 84
4, 24048, Note_off_c, 0, 71, 64
4, 24120, Note_on_c, 0, 72, 84
4, 24144, Note_off_c, 0, 67, 64
4, 24233, Note_off_c, 0, 72, 64
4, 24240, Note_on_c, 0, 62, 84
4, 24240, Note_on_c, 0, 74, 84
4, 24336, Note_off_c, 0, 62, 64
4, 24360, Note_on_c, 0, 67, 84
4, 24456, Note_off_c, 0, 67, 64
4, 24480, Note_on_c, 0, 64, 84
4, 24672, Note_off_c, 0, 74, 64
4, 24672, Note_off_c, 0, 64, 64
4, 24720, Note_on_c, 0, 72, 84
4, 24720, Note_on_c, 0, 66, 84
4, 24816, Note_off_c, 0, 72, 64
4, 24840, Note_on_c, 0, 71, 84
4, 24936, Note_off_c, 0, 71, 64
4, 24960, Note_on_c, 0, 72, 84
4, 25056, Note_off_c, 0, 72, 64
4, 25080, Note_on_c, 0, 74, 84
4, 25104, Note_off_c, 0, 66, 64
4, 25176, Note_off_c, 0, 74, 64
4, 25200, Note_on_c, 0, 71, 84
4, 25200, Note_on_c, 0, 67, 84
4, 25392, Note_off_c, 0, 71, 64
4, 25488, Note_off_c, 0, 67, 64
4, 25560, Note_on_c, 0, 67, 84
4, 25656, Note_off_c, 0, 67, 64
4, 25680, Note_on_c, 0, 66, 84
4, 25800, Note_on_c, 0, 69, 84
4, 25872, Note_off_c, 0, 66, 64
4, 25896, Note_off_c, 0, 69, 64
4, 25920, Note_on_c, 0, 67, 84
4, 25920, Note_on_c, 0, 71, 84
4, 26033, Note_off_c, 0, 67, 64
4, 26040, Note_on_c, 0, 66, 84
4, 26112, Note_off_c, 0, 71, 64
4, 26153, Note_off_c, 0, 66, 64
4, 26160, Note_on_c, 0, 64, 84
4, 26160, Note_on_c, 0, 73, 84
4, 26544, Note_off_c, 0, 73, 64
4, 26544, Note_off_c, 0, 64, 64
4, 26640, Note_on_c, 0, 62, 84
4, 26640, Note_on_c, 0, 74, 84
4, 26832, Note_off_c, 0, 62, 64
4, 26880, Note_on_c, 0, 66, 84
4, 26928, Note_off_c, 0, 74, 64
4, 27000, Note_on_c, 0, 72, 84
4, 27072, Note_off_c, 0, 66, 64
4, 27096, Note_off_c, 0, 72, 64
4, 27120, Note_on_c, 0, 68, 84
4, 27120, Note_on_c, 0, 71, 84
4, 27312, Note_off_c, 0, 71, 64
4, 27312, Note_off_c, 0, 68, 64
4, 27360, Note_on_c, 0, 72, 84
4, 27360, Note_on_c, 0, 69, 84
4, 27552, Note_off_c, 0, 72, 64
4, 27600, Note_on_c, 0, 69, 84
4, 27696, Note_off_c, 0, 69, 64
4, 27720, Note_on_c, 0, 67, 84
4, 27816, Note_off_c, 0, 67, 64
4, 27840, Note_on_c, 0, 66, 84
4, 27984, Note_off_c, 0, 69, 64
4, 28080, Note_on_c, 0, 67, 84
4, 28176, Note_off_c, 0, 66, 64
4, 28200, Note_on_c, 0, 64, 84
4, 28248, Note_off_c, 0, 64, 64
4, 28260, Note_on_c, 0, 66, 84
4, 28272, Note_off_c, 0, 67, 64
4, 28308, Note_off_c, 0, 66, 64
4, 28320, Note_on_c, 0, 67, 84
4, 28416, Note_off_c, 0, 67, 64
4, 28440, Note_on_c, 0, 71, 84
4, 28536, Note_off_c, 0, 71, 64
4, 28560, Note_on_c, 0, 69, 84
4, 28656, Note_off_c, 0, 69, 64
4, 28680, Note_on_c, 0, 67, 84
4, 28776, Note_off_c, 0, 67, 64
4, 28800, Note_on_c, 0, 66, 84
4, 29088, Note_off_c, 0, 66, 64
4, 29160, Note_on_c, 0, 67, 84
4, 29256, Note_off_c, 0, 67, 64
4, 29280, Note_on_c, 0, 69, 84
4, 29712, Note_off_c, 0, 69, 64
4, 29760, Note_on_c, 0, 67, 84
4, 29856, Note_off_c, 0, 67, 64
4, 29880, Note_on_c, 0, 71, 84
4, 29976, Note_off_c, 0, 71, 64
4, 30000, Note_on_c, 0, 69, 84
4, 30096, Note_off_c, 0, 69, 64
4, 30120, Note_on_c, 0, 67, 84
4, 30216, Note_off_c, 0, 67, 64
4, 30240, Note_on_c, 0, 66, 84
4, 30336, Note_off_c, 0, 66, 64
4, 30360, Note_on_c, 0, 69, 84
4, 30576, Note_off_c, 0, 69, 64
4, 30600, Note_on_c, 0, 67, 84
4, 30720, Note_on_c, 0, 81, 84
4, 30816, Note_off_c, 0, 67, 64
4, 30840, Note_on_c, 0, 66, 84
4, 30912, Note_off_c, 0, 81, 64
4, 30960, Note_on_c, 0, 83, 84
4, 31056, Note_off_c, 0, 66, 64
4, 31080, Note_on_c, 0, 64, 84
4, 31152, Note_off_c, 0, 83, 64
4, 31200, Note_on_c, 0, 81, 84
4, 31296, Note_off_c, 0, 64, 64
4, 31320, Note_on_c, 0, 62, 84
4, 31392, Note_off_c, 0, 81, 64
4, 31440, Note_on_c, 0, 79, 84
4, 31536, Note_off_c, 0, 62, 64
4, 31560, Note_on_c, 0, 61, 84
4, 31632, Note_off_c, 0, 79, 64
4, 31656, Note_off_c, 0, 61, 64
4, 31680, Note_on_c, 0, 62, 84
4, 31680, Note_on_c, 0, 78, 84
4, 31776, Note_off_c, 0, 62, 64
4, 31800, Note_on_c, 0, 74, 84
4, 31968, Note_off_c, 0, 78, 64
4, 32016, Note_off_c, 0, 74, 64
4, 32040, Note_on_c, 0, 79, 84
4, 32040, Note_on_c, 0, 72, 84
4, 32136, Note_off_c, 0, 72, 64
4, 32136, Note_off_c, 0, 79, 64
4, 32160, Note_on_c, 0, 71, 84
4, 32160, Note_on_c, 0, 81, 84
4, 32256, Note_off_c, 0, 71, 64
4, 32280, Note_on_c, 0, 69, 84
4, 32352, Note_off_c, 0, 81, 64
4, 32376, Note_off_c, 0, 69, 64
4, 32400, Note_on_c, 0, 74, 84
4, 32400, Note_on_c, 0, 71, 84
4, 32592, Note_off_c, 0, 74, 64
4, 32640, Note_on_c, 0, 79, 84
4, 32736, Note_off_c, 0, 79, 64
4, 32760, Note_on_c, 0, 78, 84
4, 32784, Note_off_c, 0, 71, 64
4, 32856, Note_off_c, 0, 78, 64
4, 32880, Note_on_c, 0, 69, 84
4, 32880, Note_on_c, 0, 79, 84
4, 32976, Note_off_c, 0, 79, 64
4, 33000, Note_on_c, 0, 81, 84
4, 33096, Note_off_c, 0, 81, 64
4, 33120, Note_on_c, 0, 78, 84
4, 33216, Note_off_c, 0, 78, 64
4, 33240, Note_on_c, 0, 76, 84
4, 33312, Note_off_c, 0, 69, 64
4, 33336, Note_off_c, 0, 76, 64
4, 33360, Note_on_c, 0, 78, 84
4, 33552, Note_off_c, 0, 78, 64
4, 33600, Note_on_c, 0, 80, 84
4, 33792, Note_off_c, 0, 80, 64
4, 33840, Note_on_c, 0, 81, 84
4, 33960, Note_on_c, 0, 78, 84
4, 34128, Note_off_c, 0, 81, 64
4, 34152, Note_off_c, 0, 78, 64
4, 34200, Note_on_c, 0, 79, 84
4, 34200, Note_on_c, 0, 76, 84
4, 34296, Note_off_c, 0, 79, 64
4, 34320, Note_on_c, 0, 78, 84
4, 34392, Note_off_c, 0, 76, 64
4, 34440, Note_on_c, 0, 75, 84
4, 34512, Note_off_c, 0, 78, 64
4, 34536, Note_off_c, 0, 75, 64
4, 34560, Note_on_c, 0, 76, 84
4, 34560, Note_on_c, 0, 79, 84
4, 34656, Note_off_c, 0, 79, 64
4, 34680, Note_on_c, 0, 81, 84
4, 34776, Note_off_c, 0, 81, 64
4, 34800, Note_on_c, 0, 78, 84
4, 34944, Note_off_c, 0, 76, 64
4, 35040, Note_on_c, 0, 74, 84
4, 35184, Note_off_c, 0, 78, 64
4, 35232, Note_off_c, 0, 74, 64
4, 35280, Note_on_c, 0, 76, 84
4, 35280, Note_on_c, 0, 76, 84
4, 35376, Note_off_c, 0, 76, 64
4, 35400, Note_on_c, 0, 68, 84
4, 35496, Note_off_c, 0, 68, 64
4, 35520, Note_on_c, 0, 69, 84
4, 35616, Note_off_c, 0, 76, 64
4, 35640, Note_on_c, 0, 74, 84
4, 35712, Note_off_c, 0, 69, 64
4, 35760, Note_on_c, 0, 71, 84
4, 35856, Note_off_c, 0, 74, 64
4, 35880, Note_on_c, 0, 73, 84
4, 35976, Note_off_c, 0, 73, 64
4, 36000, Note_on_c, 0, 73, 84
4, 36096, Note_off_c, 0, 71, 64
4, 36120, Note_on_c, 0, 69, 84
4, 36168, Note_off_c, 0, 69, 64
4, 36180, Note_on_c, 0, 68, 84
4, 36228, Note_off_c, 0, 68, 64
4, 36240, Note_on_c, 0, 69, 84
4, 36288, Note_off_c, 0, 73, 64
4, 36360, Note_on_c, 0, 75, 84
4, 36408, Note_off_c, 0, 75, 64
4, 36420, Note_on_c, 0, 76, 84
4, 36468, Note_off_c, 0, 76, 64
4, 36480, Note_on_c, 0, 75, 84
4, 36528, Note_off_c, 0, 69, 64
4, 36600, Note_on_c, 0, 71, 84
4, 36648, Note_off_c, 0, 71, 64
4, 36660, Note_on_c, 0, 72, 84
4, 36672, Note_off_c, 0, 75, 64
4, 36708, Note_off_c, 0, 72, 64
4, 36720, Note_on_c, 0, 71, 84
4, 36720, Note_on_c, 0, 76, 84
4, 36912, Note_off_c, 0, 71, 64
4, 36960, Note_on_c, 0, 72, 84
4, 37008, Note_off_c, 0, 76, 64
4, 37080, Note_on_c, 0, 81, 84
4, 37128, Note_off_c, 0, 81, 64
4, 37140, Note_on_c, 0, 78, 84
4, 37152, Note_off_c, 0, 72, 64
4, 37188, Note_off_c, 0, 78, 64
4, 37200, Note_on_c, 0, 75, 84
4, 37200, Note_on_c, 0, 71, 84
4, 37296, Note_off_c, 0, 71, 64
4, 37320, Note_on_c, 0, 69, 84
4, 37392, Note_off_c, 0, 75, 64
4, 37416, Note_off_c, 0, 69, 64
4, 37440, Note_on_c, 0, 76, 84
4, 37440, Note_on_c, 0, 68, 84
4, 37632, Note_off_c, 0, 76, 64
4, 37680, Note_on_c, 0, 77, 84
4, 37728, Note_off_c, 0, 68, 64
4, 37800, Note_on_c, 0, 69, 84
4, 37872, Note_off_c, 0, 77, 64
4, 37896, Note_off_c, 0, 69, 64
4, 37920, Note_on_c, 0, 76, 84
4, 37920, Note_on_c, 0, 71, 84
4, 38016, Note_off_c, 0, 76, 64
4, 38040, Note_on_c, 0, 74, 84
4, 38136, Note_off_c, 0, 74, 64
4, 38160, Note_on_c, 0, 73, 84
4, 38385, Note_off_c, 0, 71, 64
4, 38400, Note_on_c, 0, 69, 84
4, 38448, Note_off_c, 0, 73, 64
4, 38496, Note_off_c, 0, 69, 64
4, 38520, Note_on_c, 0, 74, 84
4, 38520, Note_on_c, 0, 65, 84
4, 38616, Note_off_c, 0, 65, 64
4, 38616, Note_off_c, 0, 74, 64
4, 38640, Note_on_c, 0, 76, 84
4, 38640, Note_on_c, 0, 67, 84
4, 38736, Note_off_c, 0, 67, 64
4, 38760, Note_on_c, 0, 69, 84
4, 38856, Note_off_c, 0, 69, 64
4, 38880, Note_on_c, 0, 65, 84
4, 38976, Note_off_c, 0, 76, 64
4, 39000, Note_on_c, 0, 69, 84
4, 39072, Note_off_c, 0, 65, 64
4, 39096, Note_off_c, 0, 69, 64
4, 39120, Note_on_c, 0, 69, 84
4, 39120, Note_on_c, 0, 74, 84
4, 39216, Note_off_c, 0, 74, 64
4, 39240, Note_on_c, 0, 72, 84
4, 39312, Note_off_c, 0, 69, 64
4, 39336, Note_off_c, 0, 72, 64
4, 39360, Note_on_c, 0, 68, 84
4, 39360, Note_on_c, 0, 74, 84
4, 39456, Note_off_c, 0, 74, 64
4, 39480, Note_on_c, 0, 76, 84
4, 39552, Note_off_c, 0, 68, 64
4, 39576, Note_off_c, 0, 76, 64
4, 39600, Note_on_c, 0, 64, 84
4, 39600, Note_on_c, 0, 72, 84
4, 39696, Note_off_c, 0, 72, 64
4, 39720, Note_on_c, 0, 73, 84
4, 39888, Note_off_c, 0, 64, 64
4, 39936, Note_off_c, 0, 73, 64
4, 39960, Note_on_c, 0, 65, 84
4, 39960, Note_on_c, 0, 74, 84
4, 40056, Note_off_c, 0, 74, 64
4, 40056, Note_off_c, 0, 65, 64
4, 40080, Note_on_c, 0, 67, 84
4, 40080, Note_on_c, 0, 76, 84
4, 40512, Note_off_c, 0, 76, 64
4, 40512, Note_off_c, 0, 67, 64
4, 40560, Note_on_c, 0, 65, 84
4, 40560, Note_on_c, 0, 74, 84
4, 40656, Note_off_c, 0, 65, 64
4, 40680, Note_on_c, 0, 64, 84
4, 40752, Note_off_c, 0, 74, 64
4, 40776, Note_off_c, 0, 64, 64
4, 40800, Note_on_c, 0, 65, 84
4, 40896, Note_off_c, 0, 65, 64
4, 40920, Note_on_c, 0, 62, 84
4, 41016, Note_off_c, 0, 62, 64
4, 41040, Note_on_c, 0, 76, 84
4, 41040, Note_on_c, 0, 64, 84
4, 41136, Note_off_c, 0, 64, 64
4, 41160, Note_on_c, 0, 69, 84
4, 41232, Note_off_c, 0, 76, 64
4, 41280, Note_on_c, 0, 77, 84
4, 41376, Note_off_c, 0, 69, 64
4, 41400, Note_on_c, 0, 69, 84
4, 41472, Note_off_c, 0, 77, 64
4, 41496, Note_off_c, 0, 69, 64
4, 41520, Note_on_c, 0, 76, 84
4, 41520, Note_on_c, 0, 68, 84
4, 41616, Note_off_c, 0, 76, 64
4, 41640, Note_on_c, 0, 74, 84
4, 41712, Note_off_c, 0, 68, 64
4, 41736, Note_off_c, 0, 74, 64
4, 41760, Note_on_c, 0, 72, 84
4, 41760, Note_on_c, 0, 69, 84
4, 41856, Note_off_c, 0, 69, 64
4, 41880, Note_on_c, 0, 69, 84
4, 42048, Note_off_c, 0, 72, 64
4, 42096, Note_off_c, 0, 69, 64
4, 42120, Note_on_c, 0, 67, 84
4, 42120, Note_on_c, 0, 74, 84
4, 42216, Note_off_c, 0, 74, 64
4, 42216, Note_off_c, 0, 67, 64
4, 42240, Note_on_c, 0, 65, 84
4, 42240, Note_on_c, 0, 76, 84
4, 42336, Note_off_c, 0, 65, 64
4, 42360, Note_on_c, 0, 64, 84
4, 42456, Note_off_c, 0, 64, 64
4, 42480, Note_on_c, 0, 66, 96
4, 42672, Note_off_c, 0, 76, 64
4, 42672, Note_off_c, 0, 66, 64
4, 42720, Note_on_c, 0, 74, 96
4, 42720, Note_on_c, 0, 68, 96
4, 42816, Note_off_c, 0, 74, 64
4, 42840, Note_on_c, 0, 72, 96
4, 42936, Note_off_c, 0, 72, 64
4, 42960, Note_on_c, 0, 74, 96
4, 43056, Note_off_c, 0, 74, 64
4, 43080, Note_on_c, 0, 76, 96
4, 43104, Note_off_c, 0, 68, 64
4, 43176, Note_off_c, 0, 76, 64
4, 43200, Note_on_c, 0, 72, 96
4, 43200, Note_on_c, 0, 69, 96
4, 43392, Note_off_c, 0, 72, 64
4, 43488, Note_off_c, 0, 69, 64
4, 43560, Note_on_c, 0, 69, 96
4, 43656, Note_off_c, 0, 69, 64
4, 43680, Note_on_c, 0, 67, 96
4, 43776, Note_off_c, 0, 67, 64
4, 43800, Note_on_c, 0, 66, 96
4, 43896, Note_off_c, 0, 66, 64
4, 43920, Note_on_c, 0, 67, 96
4, 43920, Note_on_c, 0, 71, 96
4, 44112, Note_off_c, 0, 71, 64
4, 44112, Note_off_c, 0, 67, 64
4, 44160, Note_on_c, 0, 66, 96
4, 44160, Note_on_c, 0, 72, 96
4, 44352, Note_off_c, 0, 72, 64
4, 44400, Note_on_c, 0, 74, 96
4, 44544, Note_off_c, 0, 66, 64
4, 44592, Note_off_c, 0, 74, 64
4, 44640, Note_on_c, 0, 68, 96
4, 44640, Note_on_c, 0, 76, 96
4, 44736, Note_off_c, 0, 68, 64
4, 44760, Note_on_c, 0, 64, 96
4, 44832, Note_off_c, 0, 76, 64
4, 44856, Note_off_c, 0, 64, 64
4, 44880, Note_on_c, 0, 72, 96
4, 44976, Note_off_c, 0, 72, 64
4, 45000, Note_on_c, 0, 74, 96
4, 45000, Note_on_c, 0, 71, 96
4, 45096, Note_off_c, 0, 74, 64
4, 45120, Note_on_c, 0, 72, 96
4, 45216, Note_off_c, 0, 71, 64
4, 45240, Note_on_c, 0, 64, 96
4, 45336, Note_off_c, 0, 64, 64
4, 45360, Note_on_c, 0, 69, 96
4, 45456, Note_off_c, 0, 72, 64
4, 45480, Note_on_c, 0, 74, 96
4, 45528, Note_off_c, 0, 74, 64
4, 45540, Note_on_c, 0, 72, 96
4, 45588, Note_off_c, 0, 72, 64
4, 45600, Note_on_c, 0, 71, 96
4, 45648, Note_off_c, 0, 69, 64
4, 45720, Note_on_c, 0, 69, 96
4, 45936, Note_off_c, 0, 69, 64
4, 45960, Note_on_c, 0, 68, 96
4, 45984, Note_off_c, 0, 71, 64
4, 46056, Note_off_c, 0, 68, 64
4, 46080, Note_on_c, 0, 69, 96
4, 46080, Note_on_c, 0, 69, 96
4, 46176, Note_off_c, 0, 69, 64
4, 46200, Note_on_c, 0, 76, 96
4, 46272, Note_off_c, 0, 69, 64
4, 46296, Note_off_c, 0, 76, 64
4, 46320, Note_on_c, 0, 72, 96
4, 46320, Note_on_c, 0, 76, 96
4, 46416, Note_off_c, 0, 76, 64
4, 46440, Note_on_c, 0, 79, 84
4, 46536, Note_off_c, 0, 79, 64
4, 46560, Note_on_c, 0, 81, 84
4, 46656, Note_off_c, 0, 72, 64
4, 46680, Note_on_c, 0, 69, 84
4, 46752, Note_off_c, 0, 81, 64
4, 46776, Note_off_c, 0, 69, 64
4, 46800, Note_on_c, 0, 74, 84
4, 46800, Note_on_c, 0, 67, 84
4, 46896, Note_off_c, 0, 67, 64
4, 46920, Note_on_c, 0, 71, 84
4, 46992, Note_off_c, 0, 74, 64
4, 47016, Note_off_c, 0, 71, 64
4, 47040, Note_on_c, 0, 72, 84
4, 47040, Note_on_c, 0, 76, 84
4, 47136, Note_off_c, 0, 72, 64
4, 47160, Note_on_c, 0, 67, 84
4, 47232, Note_off_c, 0, 76, 64
4, 47280, Note_on_c, 0, 74, 84
4, 47376, Note_off_c, 0, 74, 64
4, 47376, Note_off_c, 0, 67, 64
4, 47400, Note_on_c, 0, 72, 84
4, 47400, Note_on_c, 0, 66, 84
4, 47496, Note_off_c, 0, 66, 64
4, 47496, Note_off_c, 0, 72, 64
4, 47520, Note_on_c, 0, 67, 84
4, 47520, Note_on_c, 0, 71, 84
4, 47712, Note_off_c, 0, 67, 64
4, 47808, Note_off_c, 0, 71, 64
4, 47880, Note_on_c, 0, 73, 84
4, 47976, Note_off_c, 0, 73, 64
4, 48000, Note_on_c, 0, 74, 84
4, 48192, Note_off_c, 0, 74, 64
4, 48240, Note_on_c, 0, 74, 84
4, 48240, Note_on_c, 0, 69, 84
4, 48432, Note_off_c, 0, 69, 64
4, 48480, Note_on_c, 0, 70, 84
4, 48528, Note_off_c, 0, 74, 64
4, 48600, Note_on_c, 0, 76, 84
4, 48672, Note_off_c, 0, 70, 64
4, 48696, Note_off_c, 0, 76, 64
4, 48720, Note_on_c, 0, 73, 84
4, 48720, Note_on_c, 0, 69, 84
4, 48816, Note_off_c, 0, 69, 64
4, 48840, Note_on_c, 0, 67, 84
4, 48912, Note_off_c, 0, 73, 64
4, 48936, Note_off_c, 0, 67, 64
4, 48960, Note_on_c, 0, 74, 84
4, 48960, Note_on_c, 0, 66, 84
4, 49073, Note_off_c, 0, 74, 64
4, 49080, Note_on_c, 0, 69, 84
4, 49193, Note_off_c, 0, 69, 64
4, 49200, Note_on_c, 0, 71, 96
4, 49248, Note_off_c, 0, 66, 64
4, 49320, Note_on_c, 0, 67, 96
4, 49392, Note_off_c, 0, 71, 64
4, 49416, Note_off_c, 0, 67, 64
4, 49440, Note_on_c, 0, 72, 96
4, 49440, Note_on_c, 0, 69, 96
4, 49632, Note_off_c, 0, 72, 64
4, 49680, Note_on_c, 0, 74, 96
4, 49872, Note_off_c, 0, 69, 64
4, 49920, Note_on_c, 0, 67, 96
4, 49968, Note_off_c, 0, 74, 64
4, 50016, Note_off_c, 0, 67, 64
4, 50040, Note_on_c, 0, 66, 96
4, 50040, Note_on_c, 0, 72, 96
4, 50136, Note_off_c, 0, 72, 64
4, 50136, Note_off_c, 0, 66, 64
4, 50160, Note_on_c, 0, 67, 96
4, 50160, Note_on_c, 0, 71, 96
4, 50256, Note_off_c, 0, 71, 64
4, 50256, Note_off_c, 0, 67, 64
4, 50280, Note_on_c, 0, 69, 96
4, 50280, Note_on_c, 0, 69, 96
4, 50376, Note_off_c, 0, 69, 64
4, 50376, Note_off_c, 0, 69, 64
4, 50400, Note_on_c, 0, 66, 96
4, 50400, Note_on_c, 0, 72, 96
4, 50496, Note_off_c, 0, 72, 64
4, 50496, Note_off_c, 0, 66, 64
4, 50520, Note_on_c, 0, 67, 96
4, 50520, Note_on_c, 0, 71, 96
4, 50616, Note_off_c, 0, 71, 64
4, 50640, Note_on_c, 0, 69, 96
4, 50736, Note_off_c, 0, 67, 64
4, 50760, Note_on_c, 0, 67, 96
4, 50856, Note_off_c, 0, 67, 64
4, 50880, Note_on_c, 0, 66, 96
4, 50928, Note_off_c, 0, 69, 64
4, 51000, Note_on_c, 0, 71, 96
4, 51072, Note_off_c, 0, 66, 64
4, 51096, Note_off_c, 0, 71, 64
4, 51120, Note_on_c, 0, 67, 96
4, 51120, Note_on_c, 0, 67, 96
4, 51216, Note_off_c, 0, 67, 64
4, 51216, Note_off_c, 0, 67, 64
4, 51240, Note_on_c, 0, 59, 96
4, 51240, Note_on_c, 0, 74, 96
4, 51336, Note_off_c, 0, 74, 64
4, 51336, Note_off_c, 0, 59, 64
4, 51360, Note_on_c, 0, 76, 96
4, 51360, Note_on_c, 0, 60, 96
4, 51456, Note_off_c, 0, 60, 64
4, 51456, Note_off_c, 0, 76, 64
4, 51480, Note_on_c, 0, 62, 96
4, 51480, Note_on_c, 0, 74, 96
4, 51576, Note_off_c, 0, 62, 64
4, 51600, Note_on_c, 0, 64, 96
4, 51696, Note_off_c, 0, 74, 64
4, 51696, Note_off_c, 0, 64, 64
4, 51720, Note_on_c, 0, 72, 96
4, 51720, Note_on_c, 0, 66, 96
4, 51816, Note_off_c, 0, 66, 64
4, 51816, Note_off_c, 0, 72, 64
4, 51840, Note_on_c, 0, 71, 84
4, 51840, Note_on_c, 0, 67, 84
4, 51936, Note_off_c, 0, 67, 64
4, 51960, Note_on_c, 0, 69, 84
4, 52056, Note_off_c, 0, 69, 64
4, 52080, Note_on_c, 0, 71, 84
4, 52128, Note_off_c, 0, 71, 64
4, 52200, Note_on_c, 0, 72, 84
4, 52296, Note_off_c, 0, 72, 64
4, 52320, Note_on_c, 0, 74, 84
4, 52368, Note_off_c, 0, 71, 64
4, 52440, Note_on_c, 0, 69, 84
4, 52536, Note_off_c, 0, 69, 64
4, 52560, Note_on_c, 0, 67, 84
4, 52656, Note_off_c, 0, 67, 64
4, 52680, Note_on_c, 0, 62, 84
4, 52752, Note_off_c, 0, 74, 64
4, 52776, Note_off_c, 0, 62, 64
4, 52800, Note_on_c, 0, 64, 84
4, 52800, Note_on_c, 0, 72, 84
4, 52896, Note_off_c, 0, 72, 64
4, 52896, Note_off_c, 0, 64, 64
4, 52920, Note_on_c, 0, 62, 84
4, 52920, Note_on_c, 0, 71, 84
4, 53016, Note_off_c, 0, 71, 64
4, 53040, Note_on_c, 0, 72, 84
4, 53136, Note_off_c, 0, 62, 64
4, 53136, Note_off_c, 0, 72, 64
4, 53160, Note_on_c, 0, 60, 84
4, 53160, Note_on_c, 0, 74, 84
4, 53256, Note_off_c, 0, 74, 64
4, 53256, Note_off_c, 0, 60, 64
4, 53280, Note_on_c, 0, 67, 84
4, 53280, Note_on_c, 0, 59, 84
4, 53568, Note_off_c, 0, 59, 64
4, 53640, Note_on_c, 0, 60, 84
4, 53736, Note_off_c, 0, 60, 64
4, 53760, Note_on_c, 0, 62, 84
4, 54192, Note_off_c, 0, 67, 64
4, 54192, Note_off_c, 0, 62, 64
4, 54240, Note_on_c, 0, 66, 84
4, 54240, Note_on_c, 0, 60, 84
4, 54336, Note_off_c, 0, 60, 64
4, 54360, Note_on_c, 0, 59, 84
4, 54456, Note_off_c, 0, 59, 64
4, 54480, Note_on_c, 0, 60, 84
4, 54576, Note_off_c, 0, 60, 64
4, 54600, Note_on_c, 0, 62, 84
4, 54624, Note_off_c, 0, 66, 64
4, 54696, Note_off_c, 0, 62, 64
4, 54720, Note_on_c, 0, 67, 84
4, 54720, Note_on_c, 0, 59, 84
4, 54912, Note_off_c, 0, 59, 64
4, 54912, Note_off_c, 0, 67, 64
4, 54912, End_track
5, 0, Start_track
5, 0, Title_t, "Midi by Gary Bricault, 2000"
5, 0, Program_c, 0, 6
5, 0, Control_c, 0, 7, 127
5, 0, Note_on_c, 0, 55, 96
5, 120, Note_on_c, 0, 62, 96
5, 192, Note_off_c, 0, 55, 64
5, 216, Note_off_c, 0, 62, 64
5, 240, Note_on_c, 0, 48, 96
5, 240, Note_on_c, 0, 60, 96
5, 336, Note_off_c, 0, 60, 64
5, 360, Note_on_c, 0, 59, 96
5, 432, Note_off_c, 0, 48, 64
5, 456, Note_off_c, 0, 59, 64
5, 480, Note_on_c, 0, 57, 96
5, 480, Note_on_c, 0, 50, 96
5, 672, Note_off_c, 0, 50, 64
5, 672, Note_off_c, 0, 57, 64
5, 720, Note_on_c, 0, 55, 96
5, 720, Note_on_c, 0, 52, 96
5, 816, Note_off_c, 0, 55, 64
5, 840, Note_on_c, 0, 54, 96
5, 912, Note_off_c, 0, 52, 64
5, 936, Note_off_c, 0, 54, 64
5, 960, Note_on_c, 0, 55, 96
5, 960, Note_on_c, 0, 50, 96
5, 1056, Note_off_c, 0, 50, 64
5, 1056, Note_off_c, 0, 55, 64
5, 1080, Note_on_c, 0, 48, 96
5, 1080, Note_on_c, 0, 57, 96
5, 1176, Note_off_c, 0, 57, 64
5, 1176, Note_off_c, 0, 48, 64
5, 1200, Note_on_c, 0, 59, 96
5, 1200, Note_on_c, 0, 47, 96
5, 1296, Note_off_c, 0, 47, 64
5, 1320, Note_on_c, 0, 43, 96
5, 1392, Note_off_c, 0, 59, 64
5, 1416, Note_off_c, 0, 43, 64
5, 1440, Note_on_c, 0, 48, 96
5, 1560, Note_on_c, 0, 55, 96
5, 1632, Note_off_c, 0, 48, 64
5, 1656, Note_off_c, 0, 55, 64
5, 1680, Note_on_c, 0, 45, 96
5, 1680, Note_on_c, 0, 57, 96
5, 1776, Note_off_c, 0, 57, 64
5, 1800, Note_on_c, 0, 55, 96
5, 1872, Note_off_c, 0, 45, 64
5, 1896, Note_off_c, 0, 55, 64
5, 1920, Note_on_c, 0, 50, 96
5, 1920, Note_on_c, 0, 57, 96
5, 2016, Note_off_c, 0, 57, 64
5, 2040, Note_on_c, 0, 59, 96
5, 2112, Note_off_c, 0, 50, 64
5, 2136, Note_off_c, 0, 59, 64
5, 2160, Note_on_c, 0, 55, 96
5, 2160, Note_on_c, 0, 55, 96
5, 2256, Note_off_c, 0, 55, 64
5, 2280, Note_on_c, 0, 54, 96
5, 2352, Note_off_c, 0, 55, 64
5, 2376, Note_off_c, 0, 54, 64
5, 2400, Note_on_c, 0, 59, 96
5, 2400, Note_on_c, 0, 52, 96
5, 2496, Note_off_c, 0, 52, 64
5, 2520, Note_on_c, 0, 50, 96
5, 2592, Note_off_c, 0, 59, 64
5, 2616, Note_off_c, 0, 50, 64
5, 2640, Note_on_c, 0, 49, 96
5, 2640, Note_on_c, 0, 57, 96
5, 2736, Note_off_c, 0, 57, 64
5, 2736, Note_off_c, 0, 49, 64
5, 2760, Note_on_c, 0, 55, 96
5, 2760, Note_on_c, 0, 45, 96
5, 2856, Note_off_c, 0, 45, 64
5, 2856, Note_off_c, 0, 55, 64
5, 2880, Note_on_c, 0, 54, 96
5, 2880, Note_on_c, 0, 50, 96
5, 2976, Note_off_c, 0, 50, 64
5, 3000, Note_on_c, 0, 38, 96
5, 3072, Note_off_c, 0, 54, 64
5, 3096, Note_off_c, 0, 38, 64
5, 3120, Note_on_c, 0, 55, 96
5, 3120, Note_on_c, 0, 43, 96
5, 3216, Note_off_c, 0, 43, 64
5, 3240, Note_on_c, 0, 40, 96
5, 3312, Note_off_c, 0, 55, 64
5, 3336, Note_off_c, 0, 40, 64
5, 3360, Note_on_c, 0, 42, 96
5, 3360, Note_on_c, 0, 57, 96
5, 3552, Note_off_c, 0, 42, 64
5, 3600, Note_on_c, 0, 38, 96
5, 3792, Note_off_c, 0, 57, 64
5, 3840, Note_on_c, 0, 55, 84
5, 3936, Note_off_c, 0, 55, 64
5, 3960, Note_on_c, 0, 54, 84
5, 3984, Note_off_c, 0, 38, 64
5, 4056, Note_off_c, 0, 54, 64
5, 4080, Note_on_c, 0, 55, 84
5, 4176, Note_off_c, 0, 55, 64
5, 4200, Note_on_c, 0, 57, 84
5, 4296, Note_off_c, 0, 57, 64
5, 4320, Note_on_c, 0, 54, 84
5, 4416, Note_off_c, 0, 54, 64
5, 4440, Note_on_c, 0, 55, 84
5, 4440, Note_on_c, 0, 43, 84
5, 4536, Note_off_c, 0, 43, 64
5, 4536, Note_off_c, 0, 55, 64
5, 4560, Note_on_c, 0, 52, 84
5, 4560, Note_on_c, 0, 48, 84
5, 4656, Note_off_c, 0, 48, 64
5, 4656, Note_off_c, 0, 52, 64
5, 4680, Note_on_c, 0, 48, 84
5, 4680, Note_on_c, 0, 45, 84
5, 4776, Note_off_c, 0, 45, 64
5, 4776, Note_off_c, 0, 48, 64
5, 4800, Note_on_c, 0, 50, 84
5, 4800, Note_on_c, 0, 50, 84
5, 4896, Note_off_c, 0, 50, 64
5, 4920, Note_on_c, 0, 38, 84
5, 5016, Note_off_c, 0, 38, 64
5, 5040, Note_on_c, 0, 43, 84
5, 5136, Note_off_c, 0, 50, 64
5, 5160, Note_on_c, 0, 55, 84
5, 5232, Note_off_c, 0, 43, 64
5, 5256, Note_off_c, 0, 55, 64
5, 5280, Note_on_c, 0, 45, 84
5, 5280, Note_on_c, 0, 54, 84
5, 5376, Note_off_c, 0, 54, 64
5, 5400, Note_on_c, 0, 52, 84
5, 5472, Note_off_c, 0, 45, 64
5, 5496, Note_off_c, 0, 52, 64
5, 5520, Note_on_c, 0, 50, 84
5, 5520, Note_on_c, 0, 47, 84
5, 5712, Note_off_c, 0, 47, 64
5, 5712, Note_off_c, 0, 50, 64
5, 5760, Note_on_c, 0, 48, 84
5, 5880, Note_on_c, 0, 55, 84
5, 5952, Note_off_c, 0, 48, 64
5, 5976, Note_off_c, 0, 55, 64
5, 6000, Note_on_c, 0, 45, 84
5, 6000, Note_on_c, 0, 57, 84
5, 6096, Note_off_c, 0, 57, 64
5, 6120, Note_on_c, 0, 55, 84
5, 6192, Note_off_c, 0, 45, 64
5, 6216, Note_off_c, 0, 55, 64
5, 6240, Note_on_c, 0, 57, 84
5, 6240, Note_on_c, 0, 50, 84
5, 6336, Note_off_c, 0, 57, 64
5, 6360, Note_on_c, 0, 59, 84
5, 6432, Note_off_c, 0, 50, 64
5, 6456, Note_off_c, 0, 59, 64
5, 6480, Note_on_c, 0, 55, 84
5, 6480, Note_on_c, 0, 55, 84
5, 6672, Note_off_c, 0, 55, 64
5, 6672, Note_off_c, 0, 55, 64
5, 6720, Note_on_c, 0, 52, 84
5, 6912, Note_off_c, 0, 52, 64
5, 6960, Note_on_c, 0, 57, 84
5, 7152, Note_off_c, 0, 57, 64
5, 7200, Note_on_c, 0, 50, 84
5, 7320, Note_on_c, 0, 57, 84
5, 7392, Note_off_c, 0, 50, 64
5, 7416, Note_off_c, 0, 57, 64
5, 7440, Note_on_c, 0, 55, 84
5, 7440, Note_on_c, 0, 43, 84
5, 7536, Note_off_c, 0, 55, 64
5, 7560, Note_on_c, 0, 54, 84
5, 7632, Note_off_c, 0, 43, 64
5, 7656, Note_off_c, 0, 54, 64
5, 7680, Note_on_c, 0, 52, 84
5, 7680, Note_on_c, 0, 45, 84
5, 7872, Note_off_c, 0, 45, 64
5, 7872, Note_off_c, 0, 52, 64
5, 7920, Note_on_c, 0, 47, 84
5, 7920, Note_on_c, 0, 59, 84
5, 8112, Note_off_c, 0, 59, 64
5, 8112, Note_off_c, 0, 47, 64
5, 8160, Note_on_c, 0, 42, 84
5, 8160, Note_on_c, 0, 62, 84
5, 8352, Note_off_c, 0, 62, 64
5, 8352, Note_off_c, 0, 42, 64
5, 8400, Note_on_c, 0, 43, 84
5, 8400, Note_on_c, 0, 55, 84
5, 8496, Note_off_c, 0, 55, 64
5, 8520, Note_on_c, 0, 59, 84
5, 8592, Note_off_c, 0, 43, 64
5, 8616, Note_off_c, 0, 59, 64
5, 8640, Note_on_c, 0, 36, 84
5, 8640, Note_on_c, 0, 57, 84
5, 8736, Note_off_c, 0, 57, 64
5, 8760, Note_on_c, 0, 55, 84
5, 8832, Note_off_c, 0, 36, 64
5, 8856, Note_off_c, 0, 55, 64
5, 8880, Note_on_c, 0, 62, 84
5, 8880, Note_on_c, 0, 38, 84
5, 9264, Note_off_c, 0, 38, 64
5, 9360, Note_on_c, 0, 43, 96
5, 9456, Note_off_c, 0, 62, 64
5, 9480, Note_on_c, 0, 59, 96
5, 9552, Note_off_c, 0, 43, 64
5, 9576, Note_off_c, 0, 59, 64
5, 9600, Note_on_c, 0, 57, 96
5, 9600, Note_on_c, 0, 45, 96
5, 9696, Note_off_c, 0, 57, 64
5, 9720, Note_on_c, 0, 55, 96
5, 9792, Note_off_c, 0, 45, 64
5, 9816, Note_off_c, 0, 55, 64
5, 9840, Note_on_c, 0, 47, 96
5, 9840, Note_on_c, 0, 54, 96
5, 9936, Note_off_c, 0, 54, 64
5, 9960, Note_on_c, 0, 55, 96
5, 10032, Note_off_c, 0, 47, 64
5, 10056, Note_off_c, 0, 55, 64
5, 10080, Note_on_c, 0, 52, 96
5, 10080, Note_on_c, 0, 48, 96
5, 10176, Note_off_c, 0, 52, 64
5, 10200, Note_on_c, 0, 55, 96
5, 10272, Note_off_c, 0, 48, 64
5, 10296, Note_off_c, 0, 55, 64
5, 10320, Note_on_c, 0, 57, 96
5, 10320, Note_on_c, 0, 45, 96
5, 10416, Note_off_c, 0, 57, 64
5, 10440, Note_on_c, 0, 55, 96
5, 10512, Note_off_c, 0, 45, 64
5, 10536, Note_off_c, 0, 55, 64
5, 10560, Note_on_c, 0, 50, 96
5, 10560, Note_on_c, 0, 57, 96
5, 10656, Note_off_c, 0, 57, 64
5, 10680, Note_on_c, 0, 59, 96
5, 10752, Note_off_c, 0, 50, 64
5, 10776, Note_off_c, 0, 59, 64
5, 10800, Note_on_c, 0, 55, 96
5, 10800, Note_on_c, 0, 55, 96
5, 10896, Note_off_c, 0, 55, 64
5, 10920, Note_on_c, 0, 54, 96
5, 10992, Note_off_c, 0, 55, 64
5, 11016, Note_off_c, 0, 54, 64
5, 11040, Note_on_c, 0, 59, 96
5, 11040, Note_on_c, 0, 52, 96
5, 11136, Note_off_c, 0, 52, 64
5, 11160, Note_on_c, 0, 50, 96
5, 11232, Note_off_c, 0, 59, 64
5, 11256, Note_off_c, 0, 50, 64
5, 11280, Note_on_c, 0, 57, 96
5, 11280, Note_on_c, 0, 49, 96
5, 11376, Note_off_c, 0, 49, 64
5, 11376, Note_off_c, 0, 57, 64
5, 11400, Note_on_c, 0, 55, 96
5, 11400, Note_on_c, 0, 45, 96
5, 11496, Note_off_c, 0, 45, 64
5, 11496, Note_off_c, 0, 55, 64
5, 11520, Note_on_c, 0, 50, 96
5, 11520, Note_on_c, 0, 54, 96
5, 11616, Note_off_c, 0, 50, 64
5, 11640, Note_on_c, 0, 38, 96
5, 11712, Note_off_c, 0, 54, 64
5, 11736, Note_off_c, 0, 38, 64
5, 11760, Note_on_c, 0, 55, 96
5, 11760, Note_on_c, 0, 43, 96
5, 11856, Note_off_c, 0, 43, 64
5, 11880, Note_on_c, 0, 40, 96
5, 11952, Note_off_c, 0, 55, 64
5, 11976, Note_off_c, 0, 40, 64
5, 12000, Note_on_c, 0, 45, 96
5, 12000, Note_on_c, 0, 57, 96
5, 12192, Note_off_c, 0, 45, 64
5, 12240, Note_on_c, 0, 38, 96
5, 12432, Note_off_c, 0, 57, 64
5, 12480, Note_on_c, 0, 55, 84
5, 12576, Note_off_c, 0, 55, 64
5, 12600, Note_on_c, 0, 54, 84
5, 12624, Note_off_c, 0, 38, 64
5, 12696, Note_off_c, 0, 54, 64
5, 12720, Note_on_c, 0, 55, 84
5, 12816, Note_off_c, 0, 55, 64
5, 12840, Note_on_c, 0, 57, 84
5, 12936, Note_off_c, 0, 57, 64
5, 12960, Note_on_c, 0, 54, 84
5, 13056, Note_off_c, 0, 54, 64
5, 13080, Note_on_c, 0, 55, 84
5, 13080, Note_on_c, 0, 43, 84
5, 13176, Note_off_c, 0, 43, 64
5, 13176, Note_off_c, 0, 55, 64
5, 13200, Note_on_c, 0, 48, 84
5, 13200, Note_on_c, 0, 52, 84
5, 13296, Note_off_c, 0, 52, 64
5, 13296, Note_off_c, 0, 48, 64
5, 13320, Note_on_c, 0, 48, 84
5, 13320, Note_on_c, 0, 45, 84
5, 13416, Note_off_c, 0, 45, 64
5, 13416, Note_off_c, 0, 48, 64
5, 13440, Note_on_c, 0, 50, 84
5, 13440, Note_on_c, 0, 50, 84
5, 13536, Note_off_c, 0, 50, 64
5, 13560, Note_on_c, 0, 38, 84
5, 13656, Note_off_c, 0, 38, 64
5, 13680, Note_on_c, 0, 43, 84
5, 13776, Note_off_c, 0, 50, 64
5, 13800, Note_on_c, 0, 55, 84
5, 13872, Note_off_c, 0, 43, 64
5, 13896, Note_off_c, 0, 55, 64
5, 13920, Note_on_c, 0, 45, 84
5, 13920, Note_on_c, 0, 54, 84
5, 14016, Note_off_c, 0, 54, 64
5, 14040, Note_on_c, 0, 52, 84
5, 14112, Note_off_c, 0, 45, 64
5, 14136, Note_off_c, 0, 52, 64
5, 14160, Note_on_c, 0, 50, 84
5, 14160, Note_on_c, 0, 47, 84
5, 14352, Note_off_c, 0, 47, 64
5, 14352, Note_off_c, 0, 50, 64
5, 14400, Note_on_c, 0, 48, 84
5, 14520, Note_on_c, 0, 55, 84
5, 14592, Note_off_c, 0, 48, 64
5, 14616, Note_off_c, 0, 55, 64
5, 14640, Note_on_c, 0, 57, 84
5, 14640, Note_on_c, 0, 45, 84
5, 14736, Note_off_c, 0, 57, 64
5, 14760, Note_on_c, 0, 55, 84
5, 14832, Note_off_c, 0, 45, 64
5, 14856, Note_off_c, 0, 55, 64
5, 14880, Note_on_c, 0, 57, 84
5, 14880, Note_on_c, 0, 50, 84
5, 14976, Note_off_c, 0, 57, 64
5, 15000, Note_on_c, 0, 59, 84
5, 15072, Note_off_c, 0, 50, 64
5, 15096, Note_off_c, 0, 59, 64
5, 15120, Note_on_c, 0, 55, 84
5, 15120, Note_on_c, 0, 55, 84
5, 15312, Note_off_c, 0, 55, 64
5, 15312, Note_off_c, 0, 55, 64
5, 15360, Note_on_c, 0, 52, 84
5, 15552, Note_off_c, 0, 52, 64
5, 15600, Note_on_c, 0, 57, 84
5, 15792, Note_off_c, 0, 57, 64
5, 15840, Note_on_c, 0, 50, 84
5, 15960, Note_on_c, 0, 57, 84
5, 16032, Note_off_c, 0, 50, 64
5, 16056, Note_off_c, 0, 57, 64
5, 16080, Note_on_c, 0, 43, 84
5, 16080, Note_on_c, 0, 55, 84
5, 16176, Note_off_c, 0, 55, 64
5, 16200, Note_on_c, 0, 54, 84
5, 16272, Note_off_c, 0, 43, 64
5, 16296, Note_off_c, 0, 54, 64
5, 16320, Note_on_c, 0, 52, 84
5, 16320, Note_on_c, 0, 45, 84
5, 16512, Note_off_c, 0, 45, 64
5, 16512, Note_off_c, 0, 52, 64
5, 16560, Note_on_c, 0, 47, 84
5, 16560, Note_on_c, 0, 59, 84
5, 16656, Note_off_c, 0, 59, 64
5, 16680, Note_on_c, 0, 54, 84
5, 16752, Note_off_c, 0, 47, 64
5, 16776, Note_off_c, 0, 54, 64
5, 16800, Note_on_c, 0, 55, 84
5, 16800, Note_on_c, 0, 40, 84
5, 16896, Note_off_c, 0, 40, 64
5, 16896, Note_off_c, 0, 55, 64
5, 16920, Note_on_c, 0, 42, 84
5, 16920, Note_on_c, 0, 57, 84
5, 17016, Note_off_c, 0, 57, 64
5, 17016, Note_off_c, 0, 42, 64
5, 17040, Note_on_c, 0, 43, 84
5, 17040, Note_on_c, 0, 50, 84
5, 17232, Note_off_c, 0, 50, 64
5, 17232, Note_off_c, 0, 43, 64
5, 17280, Note_on_c, 0, 36, 84
5, 17280, Note_on_c, 0, 57, 96
5, 17472, Note_off_c, 0, 36, 64
5, 17520, Note_on_c, 0, 38, 96
5, 17664, Note_off_c, 0, 57, 64
5, 17760, Note_on_c, 0, 50, 96
5, 17904, Note_off_c, 0, 38, 64
5, 18000, Note_on_c, 0, 43, 96
5, 18096, Note_off_c, 0, 50, 64
5, 18120, Note_on_c, 0, 47, 96
5, 18192, Note_off_c, 0, 43, 64
5, 18216, Note_off_c, 0, 47, 64
5, 18240, Note_on_c, 0, 52, 96
5, 18240, Note_on_c, 0, 40, 96
5, 18336, Note_off_c, 0, 52, 64
5, 18360, Note_on_c, 0, 53, 96
5, 18432, Note_off_c, 0, 40, 64
5, 18456, Note_off_c, 0, 53, 64
5, 18480, Note_on_c, 0, 45, 96
5, 18480, Note_on_c, 0, 55, 96
5, 18576, Note_off_c, 0, 55, 64
5, 18600, Note_on_c, 0, 57, 96
5, 18672, Note_off_c, 0, 45, 64
5, 18720, Note_on_c, 0, 38, 96
5, 18816, Note_off_c, 0, 57, 64
5, 18840, Note_on_c, 0, 50, 96
5, 18912, Note_off_c, 0, 38, 64
5, 18960, Note_on_c, 0, 42, 96
5, 19056, Note_off_c, 0, 50, 64
5, 19080, Note_on_c, 0, 50, 96
5, 19152, Note_off_c, 0, 42, 64
5, 19176, Note_off_c, 0, 50, 64
5, 19200, Note_on_c, 0, 52, 96
5, 19200, Note_on_c, 0, 44, 96
5, 19296, Note_off_c, 0, 52, 64
5, 19320, Note_on_c, 0, 53, 96
5, 19392, Note_off_c, 0, 44, 64
5, 19416, Note_off_c, 0, 53, 64
5, 19440, Note_on_c, 0, 45, 96
5, 19440, Note_on_c, 0, 52, 96
5, 19536, Note_off_c, 0, 52, 64
5, 19560, Note_on_c, 0, 55, 96
5, 19656, Note_off_c, 0, 55, 64
5, 19680, Note_on_c, 0, 54, 96
5, 19728, Note_off_c, 0, 45, 64
5, 19776, Note_off_c, 0, 54, 64
5, 19800, Note_on_c, 0, 43, 96
5, 19800, Note_on_c, 0, 52, 96
5, 19896, Note_off_c, 0, 52, 64
5, 19896, Note_off_c, 0, 43, 64
5, 19920, Note_on_c, 0, 42, 96
5, 19920, Note_on_c, 0, 50, 96
5, 20112, Note_off_c, 0, 42, 64
5, 20160, Note_on_c, 0, 43, 96
5, 20352, Note_off_c, 0, 43, 64
5, 20352, Note_off_c, 0, 50, 64
5, 20400, Note_on_c, 0, 40, 96
5, 20400, Note_on_c, 0, 52, 96
5, 20496, Note_off_c, 0, 52, 64
5, 20520, Note_on_c, 0, 54, 96
5, 20616, Note_off_c, 0, 54, 64
5, 20640, Note_on_c, 0, 55, 96
5, 20736, Note_off_c, 0, 55, 64
5, 20760, Note_on_c, 0, 57, 96
5, 20784, Note_off_c, 0, 40, 64
5, 20856, Note_off_c, 0, 57, 64
5, 20880, Note_on_c, 0, 59, 96
5, 20880, Note_on_c, 0, 38, 96
5, 21072, Note_off_c, 0, 38, 64
5, 21120, Note_on_c, 0, 50, 96
5, 21168, Note_off_c, 0, 59, 64
5, 21240, Note_on_c, 0, 60, 96
5, 21312, Note_off_c, 0, 50, 64
5, 21336, Note_off_c, 0, 60, 64
5, 21360, Note_on_c, 0, 52, 96
5, 21360, Note_on_c, 0, 62, 96
5, 21456, Note_off_c, 0, 62, 64
5, 21480, Note_on_c, 0, 64, 96
5, 21552, Note_off_c, 0, 52, 64
5, 21600, Note_on_c, 0, 45, 96
5, 21696, Note_off_c, 0, 64, 64
5, 21696, Note_off_c, 0, 45, 64
5, 21720, Note_on_c, 0, 47, 96
5, 21720, Note_on_c, 0, 62, 96
5, 21816, Note_off_c, 0, 62, 64
5, 21816, Note_off_c, 0, 47, 64
5, 21840, Note_on_c, 0, 64, 96
5, 21840, Note_on_c, 0, 48, 96
5, 22032, Note_off_c, 0, 48, 64
5, 22032, Note_off_c, 0, 64, 64
5, 22080, Note_on_c, 0, 50, 96
5, 22080, Note_on_c, 0, 62, 96
5, 22176, Note_off_c, 0, 62, 64
5, 22200, Note_on_c, 0, 60, 96
5, 22272, Note_off_c, 0, 50, 64
5, 22296, Note_off_c, 0, 60, 64
5, 22320, Note_on_c, 0, 43, 96
5, 22320, Note_on_c, 0, 59, 96
5, 22512, Note_off_c, 0, 59, 64
5, 22512, Note_off_c, 0, 43, 64
5, 22560, Note_on_c, 0, 36, 96
5, 22680, Note_on_c, 0, 60, 96
5, 22752, Note_off_c, 0, 36, 64
5, 22776, Note_off_c, 0, 60, 64
5, 22800, Note_on_c, 0, 59, 96
5, 22800, Note_on_c, 0, 38, 96
5, 22896, Note_off_c, 0, 59, 64
5, 22920, Note_on_c, 0, 57, 96
5, 22992, Note_off_c, 0, 38, 64
5, 23016, Note_off_c, 0, 57, 64
5, 23040, Note_on_c, 0, 43, 96
5, 23040, Note_on_c, 0, 55, 84
5, 23232, Note_off_c, 0, 55, 64
5, 23400, Note_on_c, 0, 55, 84
5, 23496, Note_off_c, 0, 55, 64
5, 23520, Note_on_c, 0, 54, 84
5, 23616, Note_off_c, 0, 54, 64
5, 23640, Note_on_c, 0, 52, 84
5, 23736, Note_off_c, 0, 52, 64
5, 23760, Note_on_c, 0, 50, 84
5, 23856, Note_off_c, 0, 50, 64
5, 23880, Note_on_c, 0, 52, 84
5, 23976, Note_off_c, 0, 52, 64
5, 24000, Note_on_c, 0, 50, 84
5, 24096, Note_off_c, 0, 50, 64
5, 24120, Note_on_c, 0, 48, 84
5, 24216, Note_off_c, 0, 48, 64
5, 24240, Note_on_c, 0, 47, 84
5, 24432, Note_off_c, 0, 47, 64
5, 24600, Note_on_c, 0, 47, 84
5, 24696, Note_off_c, 0, 47, 64
5, 24720, Note_on_c, 0, 48, 84
5, 24816, Note_off_c, 0, 48, 64
5, 24840, Note_on_c, 0, 52, 84
5, 24936, Note_off_c, 0, 52, 64
5, 24960, Note_on_c, 0, 50, 84
5, 25056, Note_off_c, 0, 50, 64
5, 25080, Note_on_c, 0, 48, 84
5, 25176, Note_off_c, 0, 48, 64
5, 25200, Note_on_c, 0, 50, 96
5, 25392, Note_off_c, 0, 50, 64
5, 25392, Note_off_c, 0, 43, 64
5, 25440, Note_on_c, 0, 52, 96
5, 25440, Note_on_c, 0, 48, 96
5, 25632, Note_off_c, 0, 48, 64
5, 25632, Note_off_c, 0, 52, 64
5, 25680, Note_on_c, 0, 50, 96
5, 25680, Note_on_c, 0, 50, 96
5, 25872, Note_off_c, 0, 50, 64
5, 25920, Note_on_c, 0, 43, 96
5, 26112, Note_off_c, 0, 43, 64
5, 26112, Note_off_c, 0, 50, 64
5, 26160, Note_on_c, 0, 45, 96
5, 26280, Note_on_c, 0, 59, 96
5, 26376, Note_off_c, 0, 59, 64
5, 26400, Note_on_c, 0, 57, 96
5, 26496, Note_off_c, 0, 57, 64
5, 26520, Note_on_c, 0, 55, 96
5, 26544, Note_off_c, 0, 45, 64
5, 26616, Note_off_c, 0, 55, 64
5, 26640, Note_on_c, 0, 38, 96
5, 26640, Note_on_c, 0, 54, 96
5, 26736, Note_off_c, 0, 54, 64
5, 26760, Note_on_c, 0, 52, 96
5, 26856, Note_off_c, 0, 52, 64
5, 26880, Note_on_c, 0, 50, 96
5, 27024, Note_off_c, 0, 38, 64
5, 27072, Note_off_c, 0, 50, 64
5, 27120, Note_on_c, 0, 52, 96
5, 27360, Note_on_c, 0, 45, 96
5, 27473, Note_off_c, 0, 52, 64
5, 27480, Note_on_c, 0, 57, 84
5, 27552, Note_off_c, 0, 45, 64
5, 27600, Note_on_c, 0, 49, 84
5, 27696, Note_off_c, 0, 57, 64
5, 27720, Note_on_c, 0, 57, 84
5, 27792, Note_off_c, 0, 49, 64
5, 27816, Note_off_c, 0, 57, 64
5, 27840, Note_on_c, 0, 51, 84
5, 27840, Note_on_c, 0, 59, 84
5, 27936, Note_off_c, 0, 59, 64
5, 27960, Note_on_c, 0, 60, 84
5, 28032, Note_off_c, 0, 51, 64
5, 28056, Note_off_c, 0, 60, 64
5, 28080, Note_on_c, 0, 52, 84
5, 28080, Note_on_c, 0, 59, 84
5, 28272, Note_off_c, 0, 59, 64
5, 28440, Note_on_c, 0, 55, 84
5, 28464, Note_off_c, 0, 52, 64
5, 28536, Note_off_c, 0, 55, 64
5, 28560, Note_on_c, 0, 53, 84
5, 28560, Note_on_c, 0, 45, 84
5, 28656, Note_off_c, 0, 53, 64
5, 28680, Note_on_c, 0, 52, 84
5, 28752, Note_off_c, 0, 45, 64
5, 28776, Note_off_c, 0, 52, 64
5, 28800, Note_on_c, 0, 50, 84
5, 28800, Note_on_c, 0, 38, 84
5, 28992, Note_off_c, 0, 38, 64
5, 28992, Note_off_c, 0, 50, 64
5, 29040, Note_on_c, 0, 50, 84
5, 29160, Note_on_c, 0, 59, 84
5, 29232, Note_off_c, 0, 50, 64
5, 29256, Note_off_c, 0, 59, 64
5, 29280, Note_on_c, 0, 57, 84
5, 29280, Note_on_c, 0, 49, 84
5, 29376, Note_off_c, 0, 57, 64
5, 29400, Note_on_c, 0, 55, 84
5, 29472, Note_off_c, 0, 49, 64
5, 29496, Note_off_c, 0, 55, 64
5, 29520, Note_on_c, 0, 50, 96
5, 29520, Note_on_c, 0, 54, 96
5, 29712, Note_off_c, 0, 54, 64
5, 29712, Note_off_c, 0, 50, 64
5, 29760, Note_on_c, 0, 52, 96
5, 29760, Note_on_c, 0, 52, 96
5, 29856, Note_off_c, 0, 52, 64
5, 29880, Note_on_c, 0, 55, 96
5, 29952, Note_off_c, 0, 52, 64
5, 29976, Note_off_c, 0, 55, 64
5, 30000, Note_on_c, 0, 45, 96
5, 30000, Note_on_c, 0, 54, 96
5, 30096, Note_off_c, 0, 54, 64
5, 30120, Note_on_c, 0, 52, 96
5, 30192, Note_off_c, 0, 45, 64
5, 30216, Note_off_c, 0, 52, 64
5, 30240, Note_on_c, 0, 50, 96
5, 30240, Note_on_c, 0, 50, 96
5, 30432, Note_off_c, 0, 50, 64
5, 30432, Note_off_c, 0, 50, 64
5, 30480, Note_on_c, 0, 49, 96
5, 30672, Note_off_c, 0, 49, 64
5, 30720, Note_on_c, 0, 50, 96
5, 30912, Note_off_c, 0, 50, 64
5, 30960, Note_on_c, 0, 55, 96
5, 31080, Note_on_c, 0, 40, 96
5, 31152, Note_off_c, 0, 55, 64
5, 31176, Note_off_c, 0, 40, 64
5, 31200, Note_on_c, 0, 54, 96
5, 31200, Note_on_c, 0, 42, 96
5, 31296, Note_off_c, 0, 42, 64
5, 31320, Note_on_c, 0, 43, 96
5, 31392, Note_off_c, 0, 54, 64
5, 31416, Note_off_c, 0, 43, 64
5, 31440, Note_on_c, 0, 52, 96
5, 31440, Note_on_c, 0, 45, 96
5, 31632, Note_off_c, 0, 45, 64
5, 31632, Note_off_c, 0, 52, 64
5, 31680, Note_on_c, 0, 50, 96
5, 31680, Note_on_c, 0, 47, 84
5, 31872, Note_off_c, 0, 50, 64
5, 31920, Note_on_c, 0, 52, 84
5, 32064, Note_off_c, 0, 47, 64
5, 32112, Note_off_c, 0, 52, 64
5, 32160, Note_on_c, 0, 54, 84
5, 32160, Note_on_c, 0, 45, 84
5, 32352, Note_off_c, 0, 45, 64
5, 32352, Note_off_c, 0, 54, 64
5, 32400, Note_on_c, 0, 43, 84
5, 32400, Note_on_c, 0, 55, 84
5, 32592, Note_off_c, 0, 43, 64
5, 32640, Note_on_c, 0, 47, 84
5, 32784, Note_off_c, 0, 55, 64
5, 32832, Note_off_c, 0, 47, 64
5, 32880, Note_on_c, 0, 52, 84
5, 32880, Note_on_c, 0, 49, 84
5, 33072, Note_off_c, 0, 49, 64
5, 33072, Note_off_c, 0, 52, 64
5, 33120, Note_on_c, 0, 54, 84
5, 33120, Note_on_c, 0, 50, 84
5, 33312, Note_off_c, 0, 50, 64
5, 33312, Note_off_c, 0, 54, 64
5, 33360, Note_on_c, 0, 59, 84
5, 33360, Note_on_c, 0, 47, 84
5, 33456, Note_off_c, 0, 59, 64
5, 33480, Note_on_c, 0, 57, 84
5, 33552, Note_off_c, 0, 47, 64
5, 33576, Note_off_c, 0, 57, 64
5, 33600, Note_on_c, 0, 52, 84
5, 33600, Note_on_c, 0, 59, 84
5, 33696, Note_off_c, 0, 59, 64
5, 33720, Note_on_c, 0, 60, 84
5, 33792, Note_off_c, 0, 52, 64
5, 33816, Note_off_c, 0, 60, 64
5, 33840, Note_on_c, 0, 57, 84
5, 33840, Note_on_c, 0, 45, 84
5, 34032, Note_off_c, 0, 45, 64
5, 34080, Note_on_c, 0, 47, 84
5, 34272, Note_off_c, 0, 47, 64
5, 34320, Note_on_c, 0, 48, 84
5, 34416, Note_off_c, 0, 57, 64
5, 34512, Note_off_c, 0, 48, 64
5, 34560, Note_on_c, 0, 43, 84
5, 34560, Note_on_c, 0, 59, 96
5, 34752, Note_off_c, 0, 59, 64
5, 34752, Note_off_c, 0, 43, 64
5, 34800, Note_on_c, 0, 47, 96
5, 34920, Note_on_c, 0, 60, 96
5, 35016, Note_off_c, 0, 60, 64
5, 35040, Note_on_c, 0, 59, 96
5, 35136, Note_off_c, 0, 59, 64
5, 35160, Note_on_c, 0, 57, 96
5, 35184, Note_off_c, 0, 47, 64
5, 35256, Note_off_c, 0, 57, 64
5, 35280, Note_on_c, 0, 40, 96
5, 35280, Note_on_c, 0, 56, 96
5, 35472, Note_off_c, 0, 56, 64
5, 35472, Note_off_c, 0, 40, 64
5, 35520, Note_on_c, 0, 42, 96
5, 35712, Note_off_c, 0, 42, 64
5, 35760, Note_on_c, 0, 44, 96
5, 35952, Note_off_c, 0, 44, 64
5, 36000, Note_on_c, 0, 45, 96
5, 36120, Note_on_c, 0, 52, 96
5, 36216, Note_off_c, 0, 52, 64
5, 36240, Note_on_c, 0, 54, 96
5, 36288, Note_off_c, 0, 45, 64
5, 36336, Note_off_c, 0, 54, 64
5, 36360, Note_on_c, 0, 43, 96
5, 36360, Note_on_c, 0, 55, 96
5, 36456, Note_off_c, 0, 55, 64
5, 36456, Note_off_c, 0, 43, 64
5, 36480, Note_on_c, 0, 42, 96
5, 36480, Note_on_c, 0, 57, 96
5, 36672, Note_off_c, 0, 57, 64
5, 36672, Note_off_c, 0, 42, 64
5, 36720, Note_on_c, 0, 43, 96
5, 36840, Note_on_c, 0, 59, 96
5, 36912, Note_off_c, 0, 43, 64
5, 36936, Note_off_c, 0, 59, 64
5, 36960, Note_on_c, 0, 57, 96
5, 36960, Note_on_c, 0, 42, 96
5, 37056, Note_off_c, 0, 57, 64
5, 37080, Note_on_c, 0, 55, 96
5, 37176, Note_off_c, 0, 55, 64
5, 37200, Note_on_c, 0, 54, 96
5, 37344, Note_off_c, 0, 42, 64
5, 37392, Note_off_c, 0, 54, 64
5, 37440, Note_on_c, 0, 40, 96
5, 37560, Note_on_c, 0, 60, 96
5, 37656, Note_off_c, 0, 60, 64
5, 37680, Note_on_c, 0, 59, 96
5, 37776, Note_off_c, 0, 59, 64
5, 37800, Note_on_c, 0, 57, 96
5, 37896, Note_off_c, 0, 57, 64
5, 37920, Note_on_c, 0, 56, 96
5, 38016, Note_off_c, 0, 40, 64
5, 38112, Note_off_c, 0, 56, 64
5, 38160, Note_on_c, 0, 57, 96
5, 38160, Note_on_c, 0, 45, 96
5, 38256, Note_off_c, 0, 57, 64
5, 38280, Note_on_c, 0, 53, 96
5, 38376, Note_off_c, 0, 53, 64
5, 38400, Note_on_c, 0, 52, 96
5, 38496, Note_off_c, 0, 52, 64
5, 38520, Note_on_c, 0, 50, 96
5, 38616, Note_off_c, 0, 50, 64
5, 38640, Note_on_c, 0, 49, 96
5, 38736, Note_off_c, 0, 45, 64
5, 38832, Note_off_c, 0, 49, 64
5, 38880, Note_on_c, 0, 50, 84
5, 38880, Note_on_c, 0, 50, 84
5, 38976, Note_off_c, 0, 50, 64
5, 39000, Note_on_c, 0, 48, 84
5, 39072, Note_off_c, 0, 50, 64
5, 39096, Note_off_c, 0, 48, 64
5, 39120, Note_on_c, 0, 47, 84
5, 39312, Note_off_c, 0, 47, 64
5, 39360, Note_on_c, 0, 52, 84
5, 39360, Note_on_c, 0, 59, 84
5, 39552, Note_off_c, 0, 52, 64
5, 39600, Note_on_c, 0, 45, 84
5, 39696, Note_off_c, 0, 59, 64
5, 39720, Note_on_c, 0, 57, 84
5, 39792, Note_off_c, 0, 45, 64
5, 39816, Note_off_c, 0, 57, 64
5, 39840, Note_on_c, 0, 47, 84
5, 39840, Note_on_c, 0, 55, 84
5, 39936, Note_off_c, 0, 55, 64
5, 39960, Note_on_c, 0, 53, 84
5, 40032, Note_off_c, 0, 47, 64
5, 40056, Note_off_c, 0, 53, 64
5, 40080, Note_on_c, 0, 52, 84
5, 40080, Note_on_c, 0, 49, 84
5, 40176, Note_off_c, 0, 52, 64
5, 40200, Note_on_c, 0, 57, 84
5, 40272, Note_off_c, 0, 49, 64
5, 40320, Note_on_c, 0, 50, 84
5, 40416, Note_off_c, 0, 57, 64
5, 40440, Note_on_c, 0, 55, 84
5, 40536, Note_off_c, 0, 55, 64
5, 40560, Note_on_c, 0, 57, 84
5, 40608, Note_off_c, 0, 50, 64
5, 40680, Note_on_c, 0, 48, 84
5, 40752, Note_off_c, 0, 57, 64
5, 40776, Note_off_c, 0, 48, 64
5, 40800, Note_on_c, 0, 47, 84
5, 40800, Note_on_c, 0, 56, 84
5, 40992, Note_off_c, 0, 56, 64
5, 40992, Note_off_c, 0, 47, 64
5, 41040, Note_on_c, 0, 48, 84
5, 41040, Note_on_c, 0, 57, 84
5, 41136, Note_off_c, 0, 57, 64
5, 41160, Note_on_c, 0, 64, 84
5, 41232, Note_off_c, 0, 48, 64
5, 41256, Note_off_c, 0, 64, 64
5, 41280, Note_on_c, 0, 62, 84
5, 41280, Note_on_c, 0, 50, 84
5, 41376, Note_off_c, 0, 62, 64
5, 41400, Note_on_c, 0, 60, 84
5, 41472, Note_off_c, 0, 50, 64
5, 41496, Note_off_c, 0, 60, 64
5, 41520, Note_on_c, 0, 59, 84
5, 41520, Note_on_c, 0, 52, 84
5, 41616, Note_off_c, 0, 59, 64
5, 41640, Note_on_c, 0, 64, 84
5, 41712, Note_off_c, 0, 52, 64
5, 41760, Note_on_c, 0, 45, 96
5, 41856, Note_off_c, 0, 64, 64
5, 41880, Note_on_c, 0, 62, 96
5, 41976, Note_off_c, 0, 62, 64
5, 42000, Note_on_c, 0, 60, 96
5, 42048, Note_off_c, 0, 45, 64
5, 42096, Note_off_c, 0, 60, 64
5, 42120, Note_on_c, 0, 59, 96
5, 42120, Note_on_c, 0, 47, 96
5, 42216, Note_off_c, 0, 47, 64
5, 42216, Note_off_c, 0, 59, 64
5, 42240, Note_on_c, 0, 57, 96
5, 42240, Note_on_c, 0, 49, 96
5, 42432, Note_off_c, 0, 49, 64
5, 42480, Note_on_c, 0, 50, 96
5, 42576, Note_off_c, 0, 50, 64
5, 42600, Note_on_c, 0, 48, 96
5, 42672, Note_off_c, 0, 57, 64
5, 42696, Note_off_c, 0, 48, 64
5, 42720, Note_on_c, 0, 47, 96
5, 42720, Note_on_c, 0, 59, 96
5, 42912, Note_off_c, 0, 47, 64
5, 42960, Note_on_c, 0, 52, 96
5, 43104, Note_off_c, 0, 59, 64
5, 43152, Note_off_c, 0, 52, 64
5, 43200, Note_on_c, 0, 57, 96
5, 43200, Note_on_c, 0, 45, 96
5, 43296, Note_off_c, 0, 45, 64
5, 43320, Note_on_c, 0, 43, 96
5, 43392, Note_off_c, 0, 57, 64
5, 43416, Note_off_c, 0, 43, 64
5, 43440, Note_on_c, 0, 60, 96
5, 43440, Note_on_c, 0, 41, 96
5, 43632, Note_off_c, 0, 41, 64
5, 43632, Note_off_c, 0, 60, 64
5, 43680, Note_on_c, 0, 59, 96
5, 43680, Note_on_c, 0, 38, 96
5, 43776, Note_off_c, 0, 59, 64
5, 43800, Note_on_c, 0, 57, 96
5, 43872, Note_off_c, 0, 38, 64
5, 43896, Note_off_c, 0, 57, 64
5, 43920, Note_on_c, 0, 40, 96
5, 43920, Note_on_c, 0, 55, 96
5, 44112, Note_off_c, 0, 55, 64
5, 44112, Note_off_c, 0, 40, 64
5, 44160, Note_on_c, 0, 57, 96
5, 44160, Note_on_c, 0, 38, 96
5, 44352, Note_off_c, 0, 57, 64
5, 44400, Note_on_c, 0, 59, 96
5, 44544, Note_off_c, 0, 38, 64
5, 44640, Note_on_c, 0, 36, 96
5, 44832, Note_off_c, 0, 59, 64
5, 44880, Note_on_c, 0, 57, 96
5, 44976, Note_off_c, 0, 57, 64
5, 45000, Note_on_c, 0, 56, 96
5, 45096, Note_off_c, 0, 56, 64
5, 45120, Note_on_c, 0, 57, 96
5, 45216, Note_off_c, 0, 57, 64
5, 45240, Note_on_c, 0, 55, 96
5, 45336, Note_off_c, 0, 55, 64
5, 45360, Note_on_c, 0, 53, 96
5, 45456, Note_off_c, 0, 53, 64
5, 45456, Note_off_c, 0, 36, 64
5, 45480, Note_on_c, 0, 52, 96
5, 45480, Note_on_c, 0, 48, 96
5, 45576, Note_off_c, 0, 48, 64
5, 45576, Note_off_c, 0, 52, 64
5, 45600, Note_on_c, 0, 50, 96
5, 45600, Note_on_c, 0, 53, 96
5, 45696, Note_off_c, 0, 53, 64
5, 45696, Note_off_c, 0, 50, 64
5, 45720, Note_on_c, 0, 50, 96
5, 45720, Note_on_c, 0, 47, 96
5, 45816, Note_off_c, 0, 47, 64
5, 45816, Note_off_c, 0, 50, 64
5, 45840, Note_on_c, 0, 52, 96
5, 45840, Note_on_c, 0, 52, 96
5, 45936, Note_off_c, 0, 52, 64
5, 45936, Note_off_c, 0, 52, 64
5, 45960, Note_on_c, 0, 40, 96
5, 45960, Note_on_c, 0, 50, 96
5, 46056, Note_off_c, 0, 50, 64
5, 46056, Note_off_c, 0, 40, 64
5, 46080, Note_on_c, 0, 45, 84
5, 46080, Note_on_c, 0, 48, 84
5, 46272, Note_off_c, 0, 48, 64
5, 46272, Note_off_c, 0, 45, 64
5, 46320, Note_on_c, 0, 52, 84
5, 46320, Note_on_c, 0, 40, 84
5, 46512, Note_off_c, 0, 40, 64
5, 46512, Note_off_c, 0, 52, 64
5, 46560, Note_on_c, 0, 50, 84
5, 46560, Note_on_c, 0, 42, 84
5, 46752, Note_off_c, 0, 42, 64
5, 46752, Note_off_c, 0, 50, 64
5, 46800, Note_on_c, 0, 43, 84
5, 46800, Note_on_c, 0, 55, 84
5, 46992, Note_off_c, 0, 43, 64
5, 47040, Note_on_c, 0, 36, 84
5, 47184, Note_off_c, 0, 55, 64
5, 47232, Note_off_c, 0, 36, 64
5, 47280, Note_on_c, 0, 62, 84
5, 47280, Note_on_c, 0, 38, 84
5, 47472, Note_off_c, 0, 38, 64
5, 47520, Note_on_c, 0, 43, 84
5, 47616, Note_off_c, 0, 43, 64
5, 47640, Note_on_c, 0, 41, 84
5, 47712, Note_off_c, 0, 62, 64
5, 47736, Note_off_c, 0, 41, 64
5, 47760, Note_on_c, 0, 40, 84
5, 47952, Note_off_c, 0, 40, 64
5, 48000, Note_on_c, 0, 41, 84
5, 48096, Note_off_c, 0, 41, 64
5, 48120, Note_on_c, 0, 40, 84
5, 48216, Note_off_c, 0, 40, 64
5, 48360, Note_on_c, 0, 57, 84
5, 48456, Note_off_c, 0, 57, 64
5, 48480, Note_on_c, 0, 43, 84
5, 48480, Note_on_c, 0, 55, 84
5, 48576, Note_off_c, 0, 55, 64
5, 48600, Note_on_c, 0, 53, 84
5, 48672, Note_off_c, 0, 43, 64
5, 48696, Note_off_c, 0, 53, 64
5, 48720, Note_on_c, 0, 45, 84
5, 48720, Note_on_c, 0, 52, 84
5, 48816, Note_off_c, 0, 52, 64
5, 48840, Note_on_c, 0, 57, 84
5, 48912, Note_off_c, 0, 45, 64
5, 49056, Note_off_c, 0, 57, 64
5, 49080, Note_on_c, 0, 55, 96
5, 49176, Note_off_c, 0, 55, 64
5, 49200, Note_on_c, 0, 54, 96
5, 49200, Note_on_c, 0, 50, 96
5, 49296, Note_off_c, 0, 54, 64
5, 49320, Note_on_c, 0, 52, 96
5, 49416, Note_off_c, 0, 52, 64
5, 49440, Note_on_c, 0, 50, 96
5, 49488, Note_off_c, 0, 50, 64
5, 49560, Note_on_c, 0, 48, 96
5, 49656, Note_off_c, 0, 48, 64
5, 49680, Note_on_c, 0, 47, 96
5, 49776, Note_off_c, 0, 50, 64
5, 49800, Note_on_c, 0, 54, 96
5, 49896, Note_off_c, 0, 54, 64
5, 49920, Note_on_c, 0, 55, 96
5, 49968, Note_off_c, 0, 47, 64
5, 50016, Note_off_c, 0, 55, 64
5, 50040, Note_on_c, 0, 57, 96
5, 50040, Note_on_c, 0, 50, 96
5, 50136, Note_off_c, 0, 50, 64
5, 50136, Note_off_c, 0, 57, 64
5, 50160, Note_on_c, 0, 59, 96
5, 50160, Note_on_c, 0, 43, 96
5, 50256, Note_off_c, 0, 59, 64
5, 50280, Note_on_c, 0, 60, 96
5, 50352, Note_off_c, 0, 43, 64
5, 50376, Note_off_c, 0, 60, 64
5, 50400, Note_on_c, 0, 50, 96
5, 50400, Note_on_c, 0, 57, 96
5, 50496, Note_off_c, 0, 57, 64
5, 50496, Note_off_c, 0, 50, 64
5, 50520, Note_on_c, 0, 55, 96
5, 50520, Note_on_c, 0, 52, 96
5, 50616, Note_off_c, 0, 52, 64
5, 50616, Note_off_c, 0, 55, 64
5, 50640, Note_on_c, 0, 57, 96
5, 50640, Note_on_c, 0, 48, 96
5, 50736, Note_off_c, 0, 57, 64
5, 50760, Note_on_c, 0, 59, 96
5, 50832, Note_off_c, 0, 48, 64
5, 50856, Note_off_c, 0, 59, 64
5, 50880, Note_on_c, 0, 60, 96
5, 50880, Note_on_c, 0, 50, 96
5, 50976, Note_off_c, 0, 60, 64
5, 51000, Note_on_c, 0, 62, 96
5, 51072, Note_off_c, 0, 50, 64
5, 51096, Note_off_c, 0, 62, 64
5, 51120, Note_on_c, 0, 59, 96
5, 51120, Note_on_c, 0, 43, 84
5, 51216, Note_off_c, 0, 59, 64
5, 51240, Note_on_c, 0, 62, 84
5, 51336, Note_off_c, 0, 62, 64
5, 51360, Note_on_c, 0, 60, 84
5, 51456, Note_off_c, 0, 60, 64
5, 51480, Note_on_c, 0, 59, 84
5, 51576, Note_off_c, 0, 59, 64
5, 51600, Note_on_c, 0, 57, 84
5, 51792, Note_off_c, 0, 57, 64
5, 51840, Note_on_c, 0, 55, 84
5, 52032, Note_off_c, 0, 55, 64
5, 52200, Note_on_c, 0, 57, 84
5, 52296, Note_off_c, 0, 57, 64
5, 52320, Note_on_c, 0, 55, 84
5, 52416, Note_off_c, 0, 55, 64
5, 52440, Note_on_c, 0, 53, 84
5, 52536, Note_off_c, 0, 53, 64
5, 52560, Note_on_c, 0, 52, 84
5, 52848, Note_off_c, 0, 52, 64
5, 52920, Note_on_c, 0, 53, 84
5, 53016, Note_off_c, 0, 53, 64
5, 53040, Note_on_c, 0, 55, 84
5, 53472, Note_off_c, 0, 55, 64
5, 53520, Note_on_c, 0, 53, 84
5, 53616, Note_off_c, 0, 53, 64
5, 53640, Note_on_c, 0, 52, 84
5, 53736, Note_off_c, 0, 52, 64
5, 53760, Note_on_c, 0, 54, 84
5, 53856, Note_off_c, 0, 54, 64
5, 53880, Note_on_c, 0, 55, 84
5, 54096, Note_off_c, 0, 55, 64
5, 54120, Note_on_c, 0, 50, 84
5, 54216, Note_off_c, 0, 50, 64
5, 54240, Note_on_c, 0, 51, 84
5, 54432, Note_off_c, 0, 51, 64
5, 54480, Note_on_c, 0, 50, 84
5, 54576, Note_off_c, 0, 50, 64
5, 54600, Note_on_c, 0, 48, 84
5, 54696, Note_off_c, 0, 48, 64
5, 54720, Note_on_c, 0, 50, 84
5, 54912, Note_off_c, 0, 50, 64
5, 54912, Note_off_c, 0, 43, 64
5, 54912, End_track
0, 0, End_of_file
