0, 0, Header, 1, 6, 192
1, 0, Start_track
1, 0, Title_t, "Ich Ruf zu Dir, Herr Jesu Christ - bwv 639"
1, 0, Title_t, "JS Bach - Orgelbuchlein"
1, 0, Copyright_t, "Copyright © 1997 by Richard Jordan"
1, 0, Text_t, "Richard Jordan - rjordan@earthlink.net"
1, 0, MIDI_port, 0
1, 0, System_exclusive, 10, 65, 16, 66, 18, 64, 0, 127, 0, 65, 247
1, 0, System_exclusive, 10, 65, 16, 66, 18, 64, 65, 1, 1, 125, 247
1, 0, System_exclusive, 10, 65, 16, 66, 18, 64, 66, 1, 1, 124, 247
1, 0, System_exclusive, 10, 65, 16, 66, 18, 64, 67, 1, 1, 123, 247
1, 0, System_exclusive, 10, 65, 16, 66, 18, 64, 68, 1, 1, 122, 247
1, 0, System_exclusive, 10, 65, 16, 66, 18, 64, 69, 1, 1, 121, 247
1, 0, System_exclusive, 10, 65, 16, 66, 18, 64, 70, 1, 1, 120, 247
1, 0, System_exclusive, 10, 65, 16, 66, 18, 64, 71, 1, 1, 119, 247
1, 0, System_exclusive, 10, 65, 16, 66, 18, 64, 72, 1, 1, 118, 247
1, 0, System_exclusive, 10, 65, 16, 66, 18, 64, 73, 1, 1, 117, 247
1, 0, System_exclusive, 10, 65, 16, 66, 18, 64, 64, 1, 1, 126, 247
1, 0, System_exclusive, 10, 65, 16, 66, 18, 64, 74, 1, 1, 116, 247
1, 0, System_exclusive, 10, 65, 16, 66, 18, 64, 75, 1, 1, 115, 247
1, 0, System_exclusive, 10, 65, 16, 66, 18, 64, 76, 1, 1, 114, 247
1, 0, System_exclusive, 10, 65, 16, 66, 18, 64, 77, 1, 1, 113, 247
1, 0, System_exclusive, 10, 65, 16, 66, 18, 64, 78, 1, 1, 112, 247
1, 0, System_exclusive, 10, 65, 16, 66, 18, 64, 79, 1, 1, 111, 247
1, 0, System_exclusive, 137, 65, 16, 66, 18, 72, 0, 0, 0, 4, 0, 0, 7, 15, 0, 0, 4, 2, 4, 0, 4, 0, 0, 0, 2, 13, 2, 0, 5, 3, 4, 15, 5, 5, 4, 14, 4, 4, 2, 0, 4, 3, 6, 1, 6, 14, 7, 6, 6, 1, 7, 3, 2, 0, 2, 13, 0, 2, 0, 6, 0, 2, 0, 2, 0, 2, 0, 2, 0, 2, 0, 2, 0, 2, 0, 2, 0, 0, 0, 0, 0, 0, 0, 0, 0, 0, 0, 0, 0, 0, 0, 0, 0, 3, 0, 3, 0, 0, 4, 11, 5, 5, 0, 0, 0, 0, 0, 0, 0, 6, 0, 0, 4, 0, 0, 0, 7, 15, 0, 0, 7, 15, 0, 0, 0, 0, 0, 0, 0, 0, 6, 1, 0, 1, 0, 1, 119, 247
1, 0, System_exclusive, 10, 65, 16, 66, 18, 64, 16, 21, 0, 27, 247
1, 0, System_exclusive, 10, 65, 16, 66, 18, 64, 16, 21, 0, 27, 247
1, 0, System_exclusive, 10, 65, 16, 66, 18, 64, 17, 2, 16, 29, 247
1, 0, System_exclusive, 10, 65, 16, 66, 18, 64, 18, 2, 16, 28, 247
1, 0, System_exclusive, 10, 65, 16, 66, 18, 64, 19, 2, 16, 27, 247
1, 0, System_exclusive, 10, 65, 16, 66, 18, 64, 20, 2, 16, 26, 247
1, 0, System_exclusive, 10, 65, 16, 66, 18, 64, 21, 2, 16, 25, 247
1, 0, System_exclusive, 10, 65, 16, 66, 18, 64, 22, 2, 16, 24, 247
1, 0, System_exclusive, 10, 65, 16, 66, 18, 64, 23, 2, 16, 23, 247
1, 0, System_exclusive, 10, 65, 16, 66, 18, 64, 24, 2, 16, 22, 247
1, 0, System_exclusive, 10, 65, 16, 66, 18, 64, 25, 2, 16, 21, 247
1, 0, System_exclusive, 10, 65, 16, 66, 18, 64, 16, 2, 16, 30, 247
1, 0, System_exclusive, 10, 65, 16, 66, 18, 64, 26, 2, 16, 20, 247
1, 0, System_exclusive, 10, 65, 16, 66, 18, 64, 27, 2, 16, 19, 247
1, 0, System_exclusive, 10, 65, 16, 66, 18, 64, 28, 2, 16, 18, 247
1, 0, System_exclusive, 10, 65, 16, 66, 18, 64, 29, 2, 16, 17, 247
1, 0, System_exclusive, 10, 65, 16, 66, 18, 64, 30, 2, 16, 16, 247
1, 0, System_exclusive, 10, 65, 16, 66, 18, 64, 31, 2, 16, 15, 247
1, 0, MIDI_port, 0
1, 0, Time_signature, 4, 2, 24, 8
1, 0, Key_signature, -3, "major"
1, 0, Tempo, 600000
1, 0, Marker_t, "Sysex by ""The Canvas Pipe Organ Project"" - rdiodati@sabinanet.it"
1, 0, Marker_t, "Ich Ruf zu Dir, Herr Jesu Christ - bwv 639"
1, 0, End_track
2, 0, Start_track
2, 0, MIDI_port, 0
2, 0, Title_t, "Grand'Organo"
2, 60, MIDI_port, 0
2, 60, System_exclusive, 137, 65, 16, 66, 18, 72, 2, 112, 0, 0, 4, 9, 15, 15, 15, 3, 0, 0, 8, 1, 3, 4, 7, 15, 5, 10, 4, 0, 0, 0, 6, 14, 0, 0, 7, 15, 0, 0, 5, 10, 4, 0, 2, 12, 4, 10, 4, 0, 3, 6, 4, 0, 4, 0, 4, 0, 0, 0, 0, 0, 4, 0, 4, 0, 4, 0, 4, 0, 4, 0, 4, 0, 4, 0, 4, 0, 4, 0, 4, 0, 4, 0, 4, 0, 1, 0, 1, 1, 4, 0, 4, 0, 4, 0, 0, 0, 4, 0, 0, 10, 0, 0, 0, 0, 4, 0, 0, 0, 0, 0, 0, 0, 4, 2, 4, 0, 4, 0, 0, 0, 4, 0, 0, 0, 0, 0, 0, 0, 4, 0, 0, 0, 0, 0, 0, 0, 119, 247
2, 60, System_exclusive, 137, 65, 16, 66, 18, 72, 4, 80, 7, 15, 4, 13, 15, 15, 15, 3, 0, 1, 8, 1, 4, 0, 8, 1, 6, 10, 3, 1, 0, 0, 6, 4, 0, 0, 7, 15, 0, 0, 6, 4, 4, 0, 2, 12, 4, 5, 4, 5, 3, 13, 4, 0, 4, 0, 4, 0, 0, 0, 0, 0, 4, 0, 4, 0, 4, 0, 4, 0, 4, 0, 4, 0, 4, 0, 4, 0, 4, 0, 4, 0, 4, 0, 4, 0, 1, 0, 1, 1, 4, 0, 4, 0, 4, 0, 0, 0, 4, 0, 0, 10, 0, 0, 0, 0, 4, 0, 0, 0, 0, 0, 0, 0, 4, 2, 4, 0, 4, 0, 0, 0, 4, 0, 0, 0, 0, 0, 0, 0, 4, 0, 0, 0, 0, 0, 0, 0, 17, 247
2, 60, System_exclusive, 137, 65, 16, 66, 18, 72, 6, 48, 7, 15, 4, 10, 15, 15, 15, 3, 0, 2, 8, 1, 4, 0, 7, 15, 5, 10, 4, 12, 0, 0, 6, 4, 0, 0, 7, 15, 0, 0, 6, 4, 4, 0, 2, 12, 4, 0, 4, 0, 4, 1, 4, 0, 4, 0, 4, 0, 0, 0, 0, 0, 3, 15, 3, 12, 3, 15, 3, 12, 4, 0, 4, 0, 4, 1, 4, 1, 4, 2, 4, 7, 4, 6, 4, 5, 1, 0, 1, 1, 4, 0, 4, 0, 4, 0, 0, 0, 4, 0, 0, 10, 0, 0, 0, 0, 4, 0, 0, 0, 0, 0, 0, 0, 4, 2, 4, 0, 4, 0, 0, 0, 4, 0, 0, 0, 0, 0, 0, 0, 4, 0, 0, 0, 0, 0, 0, 0, 102, 247
2, 60, System_exclusive, 137, 65, 16, 66, 18, 72, 8, 16, 7, 15, 4, 11, 15, 15, 15, 3, 0, 3, 8, 1, 5, 3, 7, 11, 5, 10, 2, 7, 0, 0, 6, 4, 0, 0, 7, 15, 0, 0, 6, 14, 4, 0, 2, 12, 4, 5, 4, 10, 4, 0, 4, 8, 4, 0, 4, 0, 0, 0, 0, 0, 4, 0, 4, 0, 4, 0, 4, 0, 4, 0, 4, 0, 4, 1, 4, 4, 4, 5, 4, 2, 4, 4, 4, 2, 1, 0, 1, 1, 4, 0, 4, 0, 4, 0, 0, 0, 4, 0, 0, 10, 0, 0, 0, 0, 4, 0, 0, 0, 0, 0, 0, 0, 4, 2, 4, 0, 4, 0, 0, 0, 4, 0, 0, 0, 0, 0, 0, 0, 4, 0, 0, 0, 0, 0, 0, 0, 31, 247
2, 60, System_exclusive, 137, 65, 16, 66, 18, 72, 9, 112, 0, 0, 4, 8, 15, 15, 15, 3, 0, 4, 8, 1, 5, 8, 8, 10, 5, 0, 5, 9, 0, 0, 6, 4, 0, 0, 7, 15, 0, 0, 6, 14, 4, 0, 2, 12, 4, 5, 4, 0, 4, 0, 4, 0, 4, 0, 4, 0, 0, 0, 0, 0, 3, 12, 3, 14, 3, 11, 3, 14, 4, 2, 3, 14, 4, 0, 4, 0, 4, 0, 4, 0, 4, 0, 4, 0, 1, 0, 1, 1, 4, 0, 4, 0, 4, 0, 0, 0, 5, 6, 0, 0, 0, 0, 0, 0, 4, 0, 0, 0, 0, 0, 0, 0, 4, 0, 4, 0, 4, 0, 0, 0, 4, 0, 0, 0, 0, 0, 0, 0, 4, 0, 0, 0, 0, 0, 0, 0, 65, 247
2, 60, System_exclusive, 10, 65, 16, 66, 18, 64, 17, 2, 0, 45, 247
2, 60, System_exclusive, 10, 65, 16, 66, 18, 64, 18, 2, 0, 44, 247
2, 60, System_exclusive, 10, 65, 16, 66, 18, 64, 19, 2, 0, 43, 247
2, 60, System_exclusive, 10, 65, 16, 66, 18, 64, 20, 2, 0, 42, 247
2, 60, System_exclusive, 10, 65, 16, 66, 18, 64, 21, 2, 0, 41, 247
2, 60, System_exclusive, 10, 65, 16, 66, 18, 64, 22, 2, 16, 24, 247
2, 60, MIDI_port, 0
2, 120, MIDI_port, 0
2, 120, System_exclusive, 137, 65, 16, 66, 18, 72, 13, 48, 0, 0, 4, 9, 15, 15, 15, 3, 0, 6, 8, 1, 3, 4, 8, 1, 6, 4, 4, 15, 0, 0, 6, 4, 0, 0, 7, 15, 0, 0, 6, 4, 4, 0, 2, 12, 4, 5, 4, 0, 3, 7, 4, 0, 4, 0, 4, 0, 0, 0, 0, 0, 4, 0, 4, 0, 4, 0, 4, 0, 4, 0, 4, 0, 4, 0, 4, 0, 4, 0, 4, 0, 4, 0, 4, 0, 1, 0, 1, 1, 4, 0, 4, 0, 4, 0, 0, 0, 4, 0, 0, 10, 0, 0, 0, 0, 4, 0, 0, 0, 0, 0, 0, 0, 4, 2, 4, 0, 4, 0, 0, 0, 4, 0, 0, 0, 0, 0, 0, 0, 4, 0, 0, 0, 0, 0, 0, 0, 60, 247
2, 120, System_exclusive, 137, 65, 16, 66, 18, 72, 15, 16, 7, 15, 4, 13, 15, 15, 15, 3, 0, 7, 8, 1, 4, 12, 7, 15, 6, 4, 3, 1, 0, 0, 6, 4, 0, 0, 7, 15, 0, 0, 6, 4, 4, 0, 2, 12, 4, 0, 2, 12, 3, 13, 4, 0, 4, 0, 4, 0, 0, 0, 0, 0, 4, 0, 4, 0, 4, 0, 4, 0, 4, 0, 4, 0, 4, 0, 4, 0, 4, 0, 4, 0, 4, 0, 4, 0, 1, 0, 1, 1, 4, 0, 4, 0, 4, 0, 0, 0, 4, 0, 0, 10, 0, 0, 0, 0, 4, 0, 0, 0, 0, 0, 0, 0, 4, 2, 4, 0, 4, 0, 0, 0, 4, 0, 0, 0, 0, 0, 0, 0, 4, 0, 0, 0, 0, 0, 0, 0, 45, 247
2, 120, System_exclusive, 137, 65, 16, 66, 18, 72, 16, 112, 7, 15, 4, 11, 15, 15, 15, 3, 0, 8, 8, 1, 5, 8, 8, 0, 6, 4, 4, 0, 0, 0, 6, 4, 0, 0, 7, 15, 0, 0, 6, 9, 4, 0, 2, 12, 4, 5, 2, 2, 4, 5, 4, 0, 4, 0, 4, 0, 0, 0, 0, 0, 4, 0, 3, 11, 3, 12, 3, 12, 4, 0, 4, 0, 4, 1, 4, 1, 4, 2, 4, 7, 4, 6, 4, 5, 1, 0, 1, 1, 4, 0, 4, 0, 4, 0, 0, 0, 4, 0, 0, 10, 0, 0, 0, 0, 4, 0, 0, 0, 0, 0, 0, 0, 4, 0, 4, 0, 4, 0, 0, 0, 4, 0, 0, 0, 0, 0, 0, 0, 4, 0, 0, 0, 0, 0, 0, 0, 49, 247
2, 120, System_exclusive, 10, 65, 16, 66, 18, 64, 23, 2, 1, 38, 247
2, 120, System_exclusive, 10, 65, 16, 66, 18, 64, 24, 2, 1, 37, 247
2, 120, System_exclusive, 10, 65, 16, 66, 18, 64, 25, 2, 1, 36, 247
2, 120, System_exclusive, 10, 65, 16, 66, 18, 64, 16, 2, 16, 30, 247
2, 120, System_exclusive, 10, 65, 16, 66, 18, 64, 26, 2, 16, 20, 247
2, 120, MIDI_port, 0
2, 192, MIDI_port, 0
2, 192, System_exclusive, 137, 65, 16, 66, 18, 72, 20, 48, 0, 0, 4, 9, 15, 15, 15, 3, 0, 11, 8, 1, 3, 4, 8, 2, 5, 15, 4, 0, 0, 0, 7, 13, 0, 0, 3, 12, 0, 0, 5, 10, 4, 0, 2, 12, 4, 5, 4, 0, 2, 2, 4, 0, 4, 0, 4, 0, 0, 0, 0, 0, 4, 0, 4, 0, 4, 0, 4, 0, 4, 0, 4, 0, 4, 0, 4, 0, 4, 0, 4, 0, 4, 0, 4, 0, 1, 0, 1, 1, 4, 0, 4, 0, 4, 0, 0, 0, 4, 0, 0, 10, 0, 0, 0, 0, 4, 0, 0, 0, 0, 0, 0, 0, 4, 2, 4, 0, 4, 0, 0, 0, 4, 0, 0, 0, 0, 0, 0, 0, 4, 0, 0, 0, 0, 0, 0, 0, 50, 247
2, 192, System_exclusive, 137, 65, 16, 66, 18, 72, 22, 16, 0, 0, 4, 9, 15, 15, 15, 3, 0, 12, 8, 1, 4, 0, 7, 14, 5, 10, 1, 12, 0, 0, 7, 8, 0, 0, 3, 12, 0, 0, 5, 10, 4, 0, 2, 12, 4, 0, 3, 11, 3, 6, 4, 0, 4, 0, 4, 0, 0, 0, 0, 0, 4, 0, 4, 0, 4, 0, 4, 0, 4, 0, 4, 0, 4, 0, 4, 0, 4, 0, 4, 0, 4, 0, 4, 0, 1, 0, 1, 1, 4, 0, 4, 0, 4, 0, 0, 0, 4, 0, 0, 10, 0, 0, 0, 0, 4, 0, 0, 0, 0, 0, 0, 0, 4, 2, 4, 0, 4, 0, 0, 0, 4, 0, 0, 0, 0, 0, 0, 0, 4, 0, 0, 0, 0, 0, 0, 0, 62, 247
2, 192, System_exclusive, 137, 65, 16, 66, 18, 72, 23, 112, 0, 8, 5, 0, 15, 15, 15, 3, 0, 13, 8, 1, 3, 4, 8, 0, 4, 4, 4, 0, 0, 0, 7, 13, 0, 0, 3, 12, 0, 0, 5, 10, 4, 0, 2, 12, 4, 0, 5, 9, 4, 0, 4, 0, 4, 0, 4, 0, 0, 0, 0, 0, 4, 0, 4, 0, 4, 0, 4, 0, 4, 0, 4, 0, 4, 0, 4, 0, 4, 0, 4, 0, 4, 0, 4, 0, 1, 0, 1, 1, 4, 0, 4, 0, 4, 0, 0, 0, 4, 0, 0, 10, 0, 0, 0, 0, 4, 0, 0, 0, 0, 0, 0, 0, 4, 2, 4, 0, 4, 0, 0, 0, 4, 0, 0, 0, 0, 0, 0, 0, 4, 0, 0, 0, 0, 0, 0, 0, 118, 247
2, 192, System_exclusive, 137, 65, 16, 66, 18, 72, 25, 80, 7, 15, 4, 11, 15, 15, 15, 3, 0, 14, 8, 1, 4, 0, 8, 2, 6, 4, 6, 4, 0, 0, 7, 13, 0, 0, 3, 12, 0, 0, 5, 10, 4, 0, 2, 12, 4, 5, 4, 10, 3, 6, 4, 0, 4, 0, 4, 0, 0, 0, 0, 0, 4, 0, 4, 0, 3, 14, 3, 12, 3, 15, 3, 14, 4, 0, 4, 0, 4, 4, 4, 3, 4, 4, 4, 0, 1, 0, 1, 1, 4, 0, 4, 0, 4, 0, 0, 0, 4, 0, 0, 10, 0, 0, 0, 0, 4, 0, 0, 0, 0, 0, 0, 0, 4, 2, 4, 0, 4, 0, 0, 0, 4, 0, 0, 0, 0, 0, 0, 0, 4, 0, 0, 0, 0, 0, 0, 0, 44, 247
2, 192, System_exclusive, 137, 65, 16, 66, 18, 72, 27, 48, 7, 15, 4, 8, 15, 15, 15, 3, 0, 15, 8, 1, 4, 0, 7, 14, 5, 15, 4, 0, 0, 0, 7, 8, 0, 0, 3, 12, 0, 0, 5, 10, 4, 0, 2, 12, 4, 0, 3, 6, 3, 6, 4, 0, 4, 0, 4, 0, 0, 0, 0, 0, 4, 0, 4, 0, 3, 14, 3, 12, 3, 14, 3, 15, 4, 2, 4, 4, 4, 3, 4, 0, 4, 0, 4, 0, 1, 0, 1, 1, 4, 0, 4, 0, 4, 0, 0, 0, 4, 0, 0, 10, 0, 0, 0, 0, 4, 0, 0, 0, 0, 0, 0, 0, 4, 2, 4, 0, 4, 0, 0, 0, 4, 0, 0, 0, 0, 0, 0, 0, 4, 0, 0, 0, 0, 0, 0, 0, 78, 247
2, 192, System_exclusive, 10, 65, 16, 66, 18, 64, 27, 2, 2, 33, 247
2, 192, System_exclusive, 10, 65, 16, 66, 18, 64, 28, 2, 2, 32, 247
2, 192, System_exclusive, 10, 65, 16, 66, 18, 64, 29, 2, 2, 31, 247
2, 192, System_exclusive, 10, 65, 16, 66, 18, 64, 30, 2, 2, 30, 247
2, 192, System_exclusive, 10, 65, 16, 66, 18, 64, 31, 2, 2, 29, 247
2, 192, MIDI_port, 0
2, 383, Note_on_c, 0, 72, 101
2, 755, Note_on_c, 0, 72, 0
2, 767, Note_on_c, 0, 68, 108
2, 1139, Note_on_c, 0, 68, 0
2, 1152, Note_on_c, 0, 70, 96
2, 1524, Note_on_c, 0, 70, 0
2, 1536, Note_on_c, 0, 68, 110
2, 1815, Note_on_c, 0, 68, 0
2, 1823, Note_on_c, 0, 67, 76
2, 1916, Note_on_c, 0, 67, 0
2, 1919, Note_on_c, 0, 65, 101
2, 2198, Note_on_c, 0, 65, 0
2, 2208, Note_on_c, 0, 67, 78
2, 2301, Note_on_c, 0, 67, 0
2, 2303, Note_on_c, 0, 68, 108
2, 2396, Note_on_c, 0, 68, 0
2, 2400, Note_on_c, 0, 70, 73
2, 2493, Note_on_c, 0, 70, 0
2, 2496, Note_on_c, 0, 68, 103
2, 2589, Note_on_c, 0, 68, 0
2, 2592, Note_on_c, 0, 70, 81
2, 2685, Note_on_c, 0, 70, 0
2, 2688, Note_on_c, 0, 70, 100
2, 2702, Note_on_c, 0, 70, 0
2, 2712, Note_on_c, 0, 72, 90
2, 2726, Note_on_c, 0, 72, 0
2, 2736, Note_on_c, 0, 70, 95
2, 2750, Note_on_c, 0, 70, 0
2, 2760, Note_on_c, 0, 72, 97
2, 2774, Note_on_c, 0, 72, 0
2, 2788, Note_on_c, 0, 70, 96
2, 2899, Note_on_c, 0, 70, 0
2, 2975, Note_on_c, 0, 68, 75
2, 3020, Note_on_c, 0, 68, 0
2, 3025, Note_on_c, 0, 70, 72
2, 3070, Note_on_c, 0, 70, 0
2, 3072, Note_on_c, 0, 72, 110
2, 3455, Note_on_c, 0, 72, 101
2, 3456, Note_on_c, 0, 72, 0
2, 3734, Note_on_c, 0, 72, 0
2, 3744, Note_on_c, 0, 73, 78
2, 3837, Note_on_c, 0, 73, 0
2, 3840, Note_on_c, 0, 75, 110
2, 4176, Note_on_c, 0, 73, 100
2, 4212, Note_on_c, 0, 75, 0
2, 4223, Note_on_c, 0, 72, 101
2, 4235, Note_on_c, 0, 73, 0
2, 4502, Note_on_c, 0, 72, 0
2, 4512, Note_on_c, 0, 70, 78
2, 4605, Note_on_c, 0, 70, 0
2, 4607, Note_on_c, 0, 68, 108
2, 4979, Note_on_c, 0, 68, 0
2, 4992, Note_on_c, 0, 70, 96
2, 5178, Note_on_c, 0, 70, 0
2, 5184, Note_on_c, 0, 72, 109
2, 5370, Note_on_c, 0, 72, 0
2, 5376, Note_on_c, 0, 73, 110
2, 5935, Note_on_c, 0, 73, 0
2, 5952, Note_on_c, 0, 75, 97
2, 5997, Note_on_c, 0, 75, 0
2, 6000, Note_on_c, 0, 77, 88
2, 6018, Note_on_c, 0, 79, 100
2, 6030, Note_on_c, 0, 77, 0
2, 6032, Note_on_c, 0, 79, 0
2, 6032, Note_on_c, 0, 77, 95
2, 6046, Note_on_c, 0, 77, 0
2, 6048, Note_on_c, 0, 73, 78
2, 6141, Note_on_c, 0, 73, 0
2, 6143, Note_on_c, 0, 72, 108
2, 6236, Note_on_c, 0, 72, 0
2, 6240, Note_on_c, 0, 72, 73
2, 6612, Note_on_c, 0, 72, 0
2, 6624, Note_on_c, 0, 72, 80
2, 6903, Note_on_c, 0, 72, 0
2, 6912, Note_on_c, 0, 68, 110
2, 7284, Note_on_c, 0, 68, 0
2, 7295, Note_on_c, 0, 70, 101
2, 7667, Note_on_c, 0, 70, 0
2, 7680, Note_on_c, 0, 68, 110
2, 7959, Note_on_c, 0, 68, 0
2, 7967, Note_on_c, 0, 67, 76
2, 8060, Note_on_c, 0, 67, 0
2, 8063, Note_on_c, 0, 65, 101
2, 8342, Note_on_c, 0, 65, 0
2, 8352, Note_on_c, 0, 67, 78
2, 8445, Note_on_c, 0, 67, 0
2, 8447, Note_on_c, 0, 68, 108
2, 8540, Note_on_c, 0, 68, 0
2, 8544, Note_on_c, 0, 70, 73
2, 8637, Note_on_c, 0, 70, 0
2, 8640, Note_on_c, 0, 68, 103
2, 8733, Note_on_c, 0, 68, 0
2, 8736, Note_on_c, 0, 70, 81
2, 8829, Note_on_c, 0, 70, 0
2, 8831, Note_on_c, 0, 70, 100
2, 8845, Note_on_c, 0, 70, 0
2, 8856, Note_on_c, 0, 72, 90
2, 8870, Note_on_c, 0, 72, 0
2, 8884, Note_on_c, 0, 70, 96
2, 8898, Note_on_c, 0, 70, 0
2, 8901, Note_on_c, 0, 72, 91
2, 8915, Note_on_c, 0, 72, 0
2, 8928, Note_on_c, 0, 70, 100
2, 8942, Note_on_c, 0, 70, 0
2, 8952, Note_on_c, 0, 72, 88
2, 8966, Note_on_c, 0, 72, 0
2, 8968, Note_on_c, 0, 70, 101
2, 9111, Note_on_c, 0, 70, 0
2, 9119, Note_on_c, 0, 68, 75
2, 9164, Note_on_c, 0, 68, 0
2, 9169, Note_on_c, 0, 70, 72
2, 9214, Note_on_c, 0, 70, 0
2, 9216, Note_on_c, 0, 72, 110
2, 9588, Note_on_c, 0, 72, 0
2, 9599, Note_on_c, 0, 72, 101
2, 9878, Note_on_c, 0, 72, 0
2, 9888, Note_on_c, 0, 73, 78
2, 9981, Note_on_c, 0, 73, 0
2, 9983, Note_on_c, 0, 75, 108
2, 10320, Note_on_c, 0, 73, 100
2, 10355, Note_on_c, 0, 75, 0
2, 10368, Note_on_c, 0, 72, 96
2, 10379, Note_on_c, 0, 73, 0
2, 10647, Note_on_c, 0, 72, 0
2, 10655, Note_on_c, 0, 70, 75
2, 10748, Note_on_c, 0, 70, 0
2, 10752, Note_on_c, 0, 68, 110
2, 11124, Note_on_c, 0, 68, 0
2, 11135, Note_on_c, 0, 70, 101
2, 11321, Note_on_c, 0, 70, 0
2, 11328, Note_on_c, 0, 72, 97
2, 11514, Note_on_c, 0, 72, 0
2, 11520, Note_on_c, 0, 73, 110
2, 11986, Note_on_c, 0, 73, 0
2, 11999, Note_on_c, 0, 75, 77
2, 12074, Note_on_c, 0, 77, 97
2, 12092, Note_on_c, 0, 75, 0
2, 12144, Note_on_c, 0, 79, 89
2, 12154, Note_on_c, 0, 77, 0
2, 12168, Note_on_c, 0, 79, 0
2, 12168, Note_on_c, 0, 77, 102
2, 12192, Note_on_c, 0, 77, 0
2, 12192, Note_on_c, 0, 73, 78
2, 12285, Note_on_c, 0, 73, 0
2, 12287, Note_on_c, 0, 72, 108
2, 12380, Note_on_c, 0, 72, 0
2, 12384, Note_on_c, 0, 72, 73
2, 12756, Note_on_c, 0, 72, 0
2, 12768, Note_on_c, 0, 75, 80
2, 13047, Note_on_c, 0, 75, 0
2, 13056, Note_on_c, 0, 77, 110
2, 13428, Note_on_c, 0, 77, 0
2, 13439, Note_on_c, 0, 75, 101
2, 13610, Note_on_c, 0, 73, 97
2, 13625, Note_on_c, 0, 75, 0
2, 13643, Note_on_c, 0, 75, 89
2, 13655, Note_on_c, 0, 73, 0
2, 13656, Note_on_c, 0, 73, 97
2, 13667, Note_on_c, 0, 75, 0
2, 13680, Note_on_c, 0, 73, 0
2, 13680, Note_on_c, 0, 72, 68
2, 13725, Note_on_c, 0, 72, 0
2, 13728, Note_on_c, 0, 73, 78
2, 13821, Note_on_c, 0, 73, 0
2, 13823, Note_on_c, 0, 72, 108
2, 14009, Note_on_c, 0, 72, 0
2, 14016, Note_on_c, 0, 70, 103
2, 14202, Note_on_c, 0, 70, 0
2, 14208, Note_on_c, 0, 68, 96
2, 14394, Note_on_c, 0, 68, 0
2, 14400, Note_on_c, 0, 70, 109
2, 14586, Note_on_c, 0, 70, 0
2, 14592, Note_on_c, 0, 72, 110
2, 14964, Note_on_c, 0, 72, 0
2, 14975, Note_on_c, 0, 70, 101
2, 15347, Note_on_c, 0, 70, 0
2, 15360, Note_on_c, 0, 68, 110
2, 15732, Note_on_c, 0, 68, 0
2, 15743, Note_on_c, 0, 72, 101
2, 16115, Note_on_c, 0, 72, 0
2, 16127, Note_on_c, 0, 72, 108
2, 16499, Note_on_c, 0, 72, 0
2, 16512, Note_on_c, 0, 72, 96
2, 16884, Note_on_c, 0, 72, 0
2, 16896, Note_on_c, 0, 70, 110
2, 17268, Note_on_c, 0, 70, 0
2, 17279, Note_on_c, 0, 68, 101
2, 17651, Note_on_c, 0, 68, 0
2, 17663, Note_on_c, 0, 67, 108
2, 18408, Note_on_c, 0, 67, 0
2, 18432, Note_on_c, 0, 65, 110
2, 19177, Note_on_c, 0, 65, 0
2, 19200, Note_on_c, 0, 68, 110
2, 19572, Note_on_c, 0, 68, 0
2, 19583, Note_on_c, 0, 67, 101
2, 19955, Note_on_c, 0, 67, 0
2, 19967, Note_on_c, 0, 65, 108
2, 20712, Note_on_c, 0, 65, 0
2, 20736, Note_on_c, 0, 63, 110
2, 21853, Note_on_c, 0, 63, 0
2, 21888, Note_on_c, 0, 63, 96
2, 22260, Note_on_c, 0, 63, 0
2, 22272, Note_on_c, 0, 68, 110
2, 22644, Note_on_c, 0, 68, 0
2, 22655, Note_on_c, 0, 68, 101
2, 23027, Note_on_c, 0, 68, 0
2, 23040, Note_on_c, 0, 70, 110
2, 23412, Note_on_c, 0, 70, 0
2, 23423, Note_on_c, 0, 70, 101
2, 23795, Note_on_c, 0, 70, 0
2, 23807, Note_on_c, 0, 72, 108
2, 24924, Note_on_c, 0, 72, 0
2, 24959, Note_on_c, 0, 73, 101
2, 25331, Note_on_c, 0, 73, 0
2, 25343, Note_on_c, 0, 72, 108
2, 25715, Note_on_c, 0, 72, 0
2, 25728, Note_on_c, 0, 70, 96
2, 26100, Note_on_c, 0, 70, 0
2, 26112, Note_on_c, 0, 68, 110
2, 26484, Note_on_c, 0, 68, 0
2, 26495, Note_on_c, 0, 65, 101
2, 26774, Note_on_c, 0, 65, 0
2, 26784, Note_on_c, 0, 67, 78
2, 26877, Note_on_c, 0, 67, 0
2, 26880, Note_on_c, 0, 68, 110
2, 27252, Note_on_c, 0, 68, 0
2, 27263, Note_on_c, 0, 67, 101
2, 27635, Note_on_c, 0, 67, 0
2, 27647, Note_on_c, 0, 65, 108
2, 28211, Note_on_c, 0, 65, 0
2, 28211, End_track
3, 0, Start_track
3, 0, MIDI_port, 0
3, 0, Title_t, "Recitativo"
3, 384, Note_on_c, 1, 56, 99
3, 475, Note_on_c, 1, 56, 0
3, 480, Note_on_c, 1, 60, 78
3, 571, Note_on_c, 1, 60, 0
3, 576, Note_on_c, 1, 65, 95
3, 667, Note_on_c, 1, 65, 0
3, 672, Note_on_c, 1, 64, 79
3, 763, Note_on_c, 1, 64, 0
3, 768, Note_on_c, 1, 65, 104
3, 859, Note_on_c, 1, 65, 0
3, 864, Note_on_c, 1, 60, 75
3, 955, Note_on_c, 1, 60, 0
3, 960, Note_on_c, 1, 56, 100
3, 1051, Note_on_c, 1, 56, 0
3, 1056, Note_on_c, 1, 53, 81
3, 1147, Note_on_c, 1, 53, 0
3, 1152, Note_on_c, 1, 55, 94
3, 1243, Note_on_c, 1, 55, 0
3, 1248, Note_on_c, 1, 58, 81
3, 1339, Note_on_c, 1, 58, 0
3, 1344, Note_on_c, 1, 61, 105
3, 1435, Note_on_c, 1, 61, 0
3, 1440, Note_on_c, 1, 60, 77
3, 1531, Note_on_c, 1, 60, 0
3, 1536, Note_on_c, 1, 53, 106
3, 1627, Note_on_c, 1, 53, 0
3, 1631, Note_on_c, 1, 56, 82
3, 1722, Note_on_c, 1, 56, 0
3, 1728, Note_on_c, 1, 60, 99
3, 1819, Note_on_c, 1, 60, 0
3, 1824, Note_on_c, 1, 58, 77
3, 1915, Note_on_c, 1, 58, 0
3, 1920, Note_on_c, 1, 56, 99
3, 2011, Note_on_c, 1, 56, 0
3, 2016, Note_on_c, 1, 53, 78
3, 2107, Note_on_c, 1, 53, 0
3, 2112, Note_on_c, 1, 56, 95
3, 2203, Note_on_c, 1, 56, 0
3, 2208, Note_on_c, 1, 60, 79
3, 2299, Note_on_c, 1, 60, 0
3, 2304, Note_on_c, 1, 65, 104
3, 2395, Note_on_c, 1, 65, 0
3, 2400, Note_on_c, 1, 64, 75
3, 2491, Note_on_c, 1, 64, 0
3, 2496, Note_on_c, 1, 65, 100
3, 2587, Note_on_c, 1, 65, 0
3, 2592, Note_on_c, 1, 68, 81
3, 2683, Note_on_c, 1, 68, 0
3, 2688, Note_on_c, 1, 67, 94
3, 2779, Note_on_c, 1, 67, 0
3, 2784, Note_on_c, 1, 65, 81
3, 2875, Note_on_c, 1, 65, 0
3, 2880, Note_on_c, 1, 64, 105
3, 2971, Note_on_c, 1, 64, 0
3, 2976, Note_on_c, 1, 65, 77
3, 3067, Note_on_c, 1, 65, 0
3, 3072, Note_on_c, 1, 64, 106
3, 3163, Note_on_c, 1, 64, 0
3, 3167, Note_on_c, 1, 60, 82
3, 3258, Note_on_c, 1, 60, 0
3, 3264, Note_on_c, 1, 55, 99
3, 3355, Note_on_c, 1, 55, 0
3, 3360, Note_on_c, 1, 58, 77
3, 3451, Note_on_c, 1, 58, 0
3, 3456, Note_on_c, 1, 56, 99
3, 3547, Note_on_c, 1, 56, 0
3, 3552, Note_on_c, 1, 60, 78
3, 3643, Note_on_c, 1, 60, 0
3, 3648, Note_on_c, 1, 65, 95
3, 3739, Note_on_c, 1, 65, 0
3, 3744, Note_on_c, 1, 68, 79
3, 3835, Note_on_c, 1, 68, 0
3, 3840, Note_on_c, 1, 67, 106
3, 3931, Note_on_c, 1, 67, 0
3, 3935, Note_on_c, 1, 63, 82
3, 4026, Note_on_c, 1, 63, 0
3, 4032, Note_on_c, 1, 68, 99
3, 4123, Note_on_c, 1, 68, 0
3, 4128, Note_on_c, 1, 67, 77
3, 4219, Note_on_c, 1, 67, 0
3, 4224, Note_on_c, 1, 68, 99
3, 4315, Note_on_c, 1, 68, 0
3, 4320, Note_on_c, 1, 63, 78
3, 4411, Note_on_c, 1, 63, 0
3, 4416, Note_on_c, 1, 65, 95
3, 4507, Note_on_c, 1, 65, 0
3, 4512, Note_on_c, 1, 66, 79
3, 4603, Note_on_c, 1, 66, 0
3, 4608, Note_on_c, 1, 65, 104
3, 4699, Note_on_c, 1, 65, 0
3, 4704, Note_on_c, 1, 61, 75
3, 4795, Note_on_c, 1, 61, 0
3, 4800, Note_on_c, 1, 65, 100
3, 4891, Note_on_c, 1, 65, 0
3, 4896, Note_on_c, 1, 68, 81
3, 4987, Note_on_c, 1, 68, 0
3, 4992, Note_on_c, 1, 67, 94
3, 5083, Note_on_c, 1, 67, 0
3, 5088, Note_on_c, 1, 61, 81
3, 5179, Note_on_c, 1, 61, 0
3, 5184, Note_on_c, 1, 60, 105
3, 5275, Note_on_c, 1, 60, 0
3, 5280, Note_on_c, 1, 66, 77
3, 5371, Note_on_c, 1, 66, 0
3, 5376, Note_on_c, 1, 65, 106
3, 5467, Note_on_c, 1, 65, 0
3, 5471, Note_on_c, 1, 58, 82
3, 5562, Note_on_c, 1, 58, 0
3, 5568, Note_on_c, 1, 61, 99
3, 5659, Note_on_c, 1, 61, 0
3, 5664, Note_on_c, 1, 65, 77
3, 5755, Note_on_c, 1, 65, 0
3, 5760, Note_on_c, 1, 70, 99
3, 5851, Note_on_c, 1, 70, 0
3, 5856, Note_on_c, 1, 68, 78
3, 5947, Note_on_c, 1, 68, 0
3, 5952, Note_on_c, 1, 67, 95
3, 6043, Note_on_c, 1, 67, 0
3, 6048, Note_on_c, 1, 68, 79
3, 6139, Note_on_c, 1, 68, 0
3, 6144, Note_on_c, 1, 67, 104
3, 6235, Note_on_c, 1, 67, 0
3, 6240, Note_on_c, 1, 60, 75
3, 6331, Note_on_c, 1, 60, 0
3, 6336, Note_on_c, 1, 64, 100
3, 6427, Note_on_c, 1, 64, 0
3, 6432, Note_on_c, 1, 58, 81
3, 6523, Note_on_c, 1, 58, 0
3, 6528, Note_on_c, 1, 56, 94
3, 6619, Note_on_c, 1, 56, 0
3, 6624, Note_on_c, 1, 60, 81
3, 6715, Note_on_c, 1, 60, 0
3, 6720, Note_on_c, 1, 65, 105
3, 6811, Note_on_c, 1, 65, 0
3, 6816, Note_on_c, 1, 63, 77
3, 6907, Note_on_c, 1, 63, 0
3, 6912, Note_on_c, 1, 65, 106
3, 7003, Note_on_c, 1, 65, 0
3, 7007, Note_on_c, 1, 60, 82
3, 7098, Note_on_c, 1, 60, 0
3, 7104, Note_on_c, 1, 56, 99
3, 7195, Note_on_c, 1, 56, 0
3, 7200, Note_on_c, 1, 53, 77
3, 7291, Note_on_c, 1, 53, 0
3, 7296, Note_on_c, 1, 55, 99
3, 7387, Note_on_c, 1, 55, 0
3, 7392, Note_on_c, 1, 58, 78
3, 7483, Note_on_c, 1, 58, 0
3, 7488, Note_on_c, 1, 61, 95
3, 7579, Note_on_c, 1, 61, 0
3, 7584, Note_on_c, 1, 60, 79
3, 7675, Note_on_c, 1, 60, 0
3, 7680, Note_on_c, 1, 53, 106
3, 7771, Note_on_c, 1, 53, 0
3, 7775, Note_on_c, 1, 56, 82
3, 7866, Note_on_c, 1, 56, 0
3, 7872, Note_on_c, 1, 60, 99
3, 7963, Note_on_c, 1, 60, 0
3, 7968, Note_on_c, 1, 58, 77
3, 8059, Note_on_c, 1, 58, 0
3, 8064, Note_on_c, 1, 56, 99
3, 8155, Note_on_c, 1, 56, 0
3, 8160, Note_on_c, 1, 53, 78
3, 8251, Note_on_c, 1, 53, 0
3, 8256, Note_on_c, 1, 56, 95
3, 8347, Note_on_c, 1, 56, 0
3, 8352, Note_on_c, 1, 60, 79
3, 8443, Note_on_c, 1, 60, 0
3, 8448, Note_on_c, 1, 65, 104
3, 8539, Note_on_c, 1, 65, 0
3, 8544, Note_on_c, 1, 64, 75
3, 8635, Note_on_c, 1, 64, 0
3, 8640, Note_on_c, 1, 65, 100
3, 8731, Note_on_c, 1, 65, 0
3, 8736, Note_on_c, 1, 68, 81
3, 8827, Note_on_c, 1, 68, 0
3, 8832, Note_on_c, 1, 67, 94
3, 8923, Note_on_c, 1, 67, 0
3, 8928, Note_on_c, 1, 65, 81
3, 9019, Note_on_c, 1, 65, 0
3, 9024, Note_on_c, 1, 64, 105
3, 9115, Note_on_c, 1, 64, 0
3, 9120, Note_on_c, 1, 65, 77
3, 9211, Note_on_c, 1, 65, 0
3, 9216, Note_on_c, 1, 64, 106
3, 9307, Note_on_c, 1, 64, 0
3, 9311, Note_on_c, 1, 60, 82
3, 9402, Note_on_c, 1, 60, 0
3, 9408, Note_on_c, 1, 55, 99
3, 9499, Note_on_c, 1, 55, 0
3, 9504, Note_on_c, 1, 58, 77
3, 9595, Note_on_c, 1, 58, 0
3, 9600, Note_on_c, 1, 56, 99
3, 9691, Note_on_c, 1, 56, 0
3, 9696, Note_on_c, 1, 60, 78
3, 9787, Note_on_c, 1, 60, 0
3, 9792, Note_on_c, 1, 65, 95
3, 9883, Note_on_c, 1, 65, 0
3, 9888, Note_on_c, 1, 68, 79
3, 9979, Note_on_c, 1, 68, 0
3, 9984, Note_on_c, 1, 67, 104
3, 10075, Note_on_c, 1, 67, 0
3, 10080, Note_on_c, 1, 63, 75
3, 10171, Note_on_c, 1, 63, 0
3, 10176, Note_on_c, 1, 68, 100
3, 10267, Note_on_c, 1, 68, 0
3, 10272, Note_on_c, 1, 67, 81
3, 10363, Note_on_c, 1, 67, 0
3, 10368, Note_on_c, 1, 68, 94
3, 10459, Note_on_c, 1, 68, 0
3, 10464, Note_on_c, 1, 63, 81
3, 10555, Note_on_c, 1, 63, 0
3, 10560, Note_on_c, 1, 65, 105
3, 10651, Note_on_c, 1, 65, 0
3, 10656, Note_on_c, 1, 66, 77
3, 10747, Note_on_c, 1, 66, 0
3, 10752, Note_on_c, 1, 65, 106
3, 10843, Note_on_c, 1, 65, 0
3, 10847, Note_on_c, 1, 61, 82
3, 10938, Note_on_c, 1, 61, 0
3, 10944, Note_on_c, 1, 65, 99
3, 11035, Note_on_c, 1, 65, 0
3, 11040, Note_on_c, 1, 68, 77
3, 11131, Note_on_c, 1, 68, 0
3, 11136, Note_on_c, 1, 67, 99
3, 11227, Note_on_c, 1, 67, 0
3, 11232, Note_on_c, 1, 61, 78
3, 11323, Note_on_c, 1, 61, 0
3, 11328, Note_on_c, 1, 60, 95
3, 11419, Note_on_c, 1, 60, 0
3, 11424, Note_on_c, 1, 66, 79
3, 11515, Note_on_c, 1, 66, 0
3, 11520, Note_on_c, 1, 44, 106
3, 11611, Note_on_c, 1, 44, 0
3, 11615, Note_on_c, 1, 38, 82
3, 11706, Note_on_c, 1, 38, 0
3, 11712, Note_on_c, 1, 40, 99
3, 11803, Note_on_c, 1, 40, 0
3, 11808, Note_on_c, 1, 44, 77
3, 11899, Note_on_c, 1, 44, 0
3, 11904, Note_on_c, 1, 50, 99
3, 11995, Note_on_c, 1, 50, 0
3, 12000, Note_on_c, 1, 48, 78
3, 12091, Note_on_c, 1, 48, 0
3, 12096, Note_on_c, 1, 46, 95
3, 12187, Note_on_c, 1, 46, 0
3, 12192, Note_on_c, 1, 48, 79
3, 12283, Note_on_c, 1, 48, 0
3, 12288, Note_on_c, 1, 46, 104
3, 12379, Note_on_c, 1, 46, 0
3, 12384, Note_on_c, 1, 38, 75
3, 12475, Note_on_c, 1, 38, 0
3, 12480, Note_on_c, 1, 36, 100
3, 12571, Note_on_c, 1, 36, 0
3, 12576, Note_on_c, 1, 44, 81
3, 12667, Note_on_c, 1, 44, 0
3, 12672, Note_on_c, 1, 34, 94
3, 12763, Note_on_c, 1, 34, 0
3, 12768, Note_on_c, 1, 40, 81
3, 12859, Note_on_c, 1, 40, 0
3, 12864, Note_on_c, 1, 36, 105
3, 12955, Note_on_c, 1, 36, 0
3, 12960, Note_on_c, 1, 39, 77
3, 13051, Note_on_c, 1, 39, 0
3, 13056, Note_on_c, 1, 36, 106
3, 13238, Note_on_c, 1, 36, 0
3, 13248, Note_on_c, 1, 39, 99
3, 13339, Note_on_c, 1, 39, 0
3, 13344, Note_on_c, 1, 38, 77
3, 13435, Note_on_c, 1, 38, 0
3, 13440, Note_on_c, 1, 40, 99
3, 13531, Note_on_c, 1, 40, 0
3, 13536, Note_on_c, 1, 38, 78
3, 13627, Note_on_c, 1, 38, 0
3, 13632, Note_on_c, 1, 40, 95
3, 13723, Note_on_c, 1, 40, 0
3, 13728, Note_on_c, 1, 48, 79
3, 13819, Note_on_c, 1, 48, 0
3, 13824, Note_on_c, 1, 46, 104
3, 13915, Note_on_c, 1, 46, 0
3, 13920, Note_on_c, 1, 48, 75
3, 14011, Note_on_c, 1, 48, 0
3, 14016, Note_on_c, 1, 43, 100
3, 14107, Note_on_c, 1, 43, 0
3, 14112, Note_on_c, 1, 40, 81
3, 14203, Note_on_c, 1, 40, 0
3, 14208, Note_on_c, 1, 46, 94
3, 14299, Note_on_c, 1, 46, 0
3, 14304, Note_on_c, 1, 39, 81
3, 14395, Note_on_c, 1, 39, 0
3, 14400, Note_on_c, 1, 44, 105
3, 14491, Note_on_c, 1, 44, 0
3, 14496, Note_on_c, 1, 48, 77
3, 14587, Note_on_c, 1, 48, 0
3, 14592, Note_on_c, 1, 48, 106
3, 14683, Note_on_c, 1, 48, 0
3, 14687, Note_on_c, 1, 43, 82
3, 14778, Note_on_c, 1, 43, 0
3, 14784, Note_on_c, 1, 36, 99
3, 14875, Note_on_c, 1, 36, 0
3, 14880, Note_on_c, 1, 46, 77
3, 15062, Note_on_c, 1, 46, 0
3, 15072, Note_on_c, 1, 44, 78
3, 15163, Note_on_c, 1, 44, 0
3, 15168, Note_on_c, 1, 36, 95
3, 15259, Note_on_c, 1, 36, 0
3, 15264, Note_on_c, 1, 35, 79
3, 15355, Note_on_c, 1, 35, 0
3, 15360, Note_on_c, 1, 40, 106
3, 15451, Note_on_c, 1, 40, 0
3, 15455, Note_on_c, 1, 39, 82
3, 15546, Note_on_c, 1, 39, 0
3, 15552, Note_on_c, 1, 36, 99
3, 15643, Note_on_c, 1, 36, 0
3, 15648, Note_on_c, 1, 39, 77
3, 15739, Note_on_c, 1, 39, 0
3, 15744, Note_on_c, 1, 43, 99
3, 15835, Note_on_c, 1, 43, 0
3, 15840, Note_on_c, 1, 47, 78
3, 15931, Note_on_c, 1, 47, 0
3, 15936, Note_on_c, 1, 39, 95
3, 16027, Note_on_c, 1, 39, 0
3, 16032, Note_on_c, 1, 38, 79
3, 16123, Note_on_c, 1, 38, 0
3, 16128, Note_on_c, 1, 57, 104
3, 16219, Note_on_c, 1, 57, 0
3, 16224, Note_on_c, 1, 60, 75
3, 16315, Note_on_c, 1, 60, 0
3, 16320, Note_on_c, 1, 65, 100
3, 16411, Note_on_c, 1, 65, 0
3, 16416, Note_on_c, 1, 67, 81
3, 16507, Note_on_c, 1, 67, 0
3, 16512, Note_on_c, 1, 69, 94
3, 16603, Note_on_c, 1, 69, 0
3, 16608, Note_on_c, 1, 65, 81
3, 16699, Note_on_c, 1, 65, 0
3, 16704, Note_on_c, 1, 63, 105
3, 16795, Note_on_c, 1, 63, 0
3, 16800, Note_on_c, 1, 69, 77
3, 16891, Note_on_c, 1, 69, 0
3, 16896, Note_on_c, 1, 61, 106
3, 16987, Note_on_c, 1, 61, 0
3, 16991, Note_on_c, 1, 67, 82
3, 17082, Note_on_c, 1, 67, 0
3, 17088, Note_on_c, 1, 68, 99
3, 17179, Note_on_c, 1, 68, 0
3, 17184, Note_on_c, 1, 67, 77
3, 17275, Note_on_c, 1, 67, 0
3, 17280, Note_on_c, 1, 60, 99
3, 17371, Note_on_c, 1, 60, 0
3, 17376, Note_on_c, 1, 65, 78
3, 17467, Note_on_c, 1, 65, 0
3, 17472, Note_on_c, 1, 67, 95
3, 17563, Note_on_c, 1, 67, 0
3, 17568, Note_on_c, 1, 65, 79
3, 17659, Note_on_c, 1, 65, 0
3, 17664, Note_on_c, 1, 61, 104
3, 17755, Note_on_c, 1, 61, 0
3, 17760, Note_on_c, 1, 65, 75
3, 17851, Note_on_c, 1, 65, 0
3, 17856, Note_on_c, 1, 67, 100
3, 17947, Note_on_c, 1, 67, 0
3, 17952, Note_on_c, 1, 65, 81
3, 18043, Note_on_c, 1, 65, 0
3, 18048, Note_on_c, 1, 64, 94
3, 18139, Note_on_c, 1, 64, 0
3, 18144, Note_on_c, 1, 58, 81
3, 18235, Note_on_c, 1, 58, 0
3, 18240, Note_on_c, 1, 61, 105
3, 18331, Note_on_c, 1, 61, 0
3, 18336, Note_on_c, 1, 60, 77
3, 18427, Note_on_c, 1, 60, 0
3, 18432, Note_on_c, 1, 56, 106
3, 18523, Note_on_c, 1, 56, 0
3, 18527, Note_on_c, 1, 60, 82
3, 18618, Note_on_c, 1, 60, 0
3, 18624, Note_on_c, 1, 65, 99
3, 18715, Note_on_c, 1, 65, 0
3, 18720, Note_on_c, 1, 64, 77
3, 18811, Note_on_c, 1, 64, 0
3, 18816, Note_on_c, 1, 65, 99
3, 18907, Note_on_c, 1, 65, 0
3, 18912, Note_on_c, 1, 60, 78
3, 19003, Note_on_c, 1, 60, 0
3, 19008, Note_on_c, 1, 56, 95
3, 19099, Note_on_c, 1, 56, 0
3, 19104, Note_on_c, 1, 53, 79
3, 19195, Note_on_c, 1, 53, 0
3, 19200, Note_on_c, 1, 58, 106
3, 19291, Note_on_c, 1, 58, 0
3, 19295, Note_on_c, 1, 65, 82
3, 19386, Note_on_c, 1, 65, 0
3, 19392, Note_on_c, 1, 67, 99
3, 19483, Note_on_c, 1, 67, 0
3, 19488, Note_on_c, 1, 65, 77
3, 19579, Note_on_c, 1, 65, 0
3, 19584, Note_on_c, 1, 58, 99
3, 19675, Note_on_c, 1, 58, 0
3, 19680, Note_on_c, 1, 63, 78
3, 19771, Note_on_c, 1, 63, 0
3, 19776, Note_on_c, 1, 65, 95
3, 19867, Note_on_c, 1, 65, 0
3, 19872, Note_on_c, 1, 63, 79
3, 19963, Note_on_c, 1, 63, 0
3, 19968, Note_on_c, 1, 60, 104
3, 20059, Note_on_c, 1, 60, 0
3, 20064, Note_on_c, 1, 63, 75
3, 20155, Note_on_c, 1, 63, 0
3, 20160, Note_on_c, 1, 65, 100
3, 20251, Note_on_c, 1, 65, 0
3, 20256, Note_on_c, 1, 63, 81
3, 20347, Note_on_c, 1, 63, 0
3, 20352, Note_on_c, 1, 62, 94
3, 20443, Note_on_c, 1, 62, 0
3, 20448, Note_on_c, 1, 55, 81
3, 20539, Note_on_c, 1, 55, 0
3, 20544, Note_on_c, 1, 59, 105
3, 20635, Note_on_c, 1, 59, 0
3, 20640, Note_on_c, 1, 62, 77
3, 20731, Note_on_c, 1, 62, 0
3, 20736, Note_on_c, 1, 55, 106
3, 20827, Note_on_c, 1, 55, 0
3, 20831, Note_on_c, 1, 60, 82
3, 20922, Note_on_c, 1, 60, 0
3, 20928, Note_on_c, 1, 63, 99
3, 21019, Note_on_c, 1, 63, 0
3, 21024, Note_on_c, 1, 61, 77
3, 21115, Note_on_c, 1, 61, 0
3, 21120, Note_on_c, 1, 53, 99
3, 21211, Note_on_c, 1, 53, 0
3, 21216, Note_on_c, 1, 58, 78
3, 21307, Note_on_c, 1, 58, 0
3, 21312, Note_on_c, 1, 61, 95
3, 21403, Note_on_c, 1, 61, 0
3, 21408, Note_on_c, 1, 60, 79
3, 21499, Note_on_c, 1, 60, 0
3, 21504, Note_on_c, 1, 51, 104
3, 21595, Note_on_c, 1, 51, 0
3, 21600, Note_on_c, 1, 56, 75
3, 21691, Note_on_c, 1, 56, 0
3, 21696, Note_on_c, 1, 60, 100
3, 21787, Note_on_c, 1, 60, 0
3, 21792, Note_on_c, 1, 58, 81
3, 21883, Note_on_c, 1, 58, 0
3, 21888, Note_on_c, 1, 61, 94
3, 21979, Note_on_c, 1, 61, 0
3, 21984, Note_on_c, 1, 58, 81
3, 22075, Note_on_c, 1, 58, 0
3, 22080, Note_on_c, 1, 51, 105
3, 22171, Note_on_c, 1, 51, 0
3, 22176, Note_on_c, 1, 61, 77
3, 22267, Note_on_c, 1, 61, 0
3, 22272, Note_on_c, 1, 53, 106
3, 22363, Note_on_c, 1, 53, 0
3, 22367, Note_on_c, 1, 56, 82
3, 22458, Note_on_c, 1, 56, 0
3, 22464, Note_on_c, 1, 61, 99
3, 22555, Note_on_c, 1, 61, 0
3, 22560, Note_on_c, 1, 60, 77
3, 22651, Note_on_c, 1, 60, 0
3, 22656, Note_on_c, 1, 53, 99
3, 22747, Note_on_c, 1, 53, 0
3, 22752, Note_on_c, 1, 56, 78
3, 22843, Note_on_c, 1, 56, 0
3, 22848, Note_on_c, 1, 60, 95
3, 22939, Note_on_c, 1, 60, 0
3, 22944, Note_on_c, 1, 58, 79
3, 23035, Note_on_c, 1, 58, 0
3, 23040, Note_on_c, 1, 53, 106
3, 23131, Note_on_c, 1, 53, 0
3, 23135, Note_on_c, 1, 56, 82
3, 23226, Note_on_c, 1, 56, 0
3, 23232, Note_on_c, 1, 58, 99
3, 23323, Note_on_c, 1, 58, 0
3, 23328, Note_on_c, 1, 56, 77
3, 23419, Note_on_c, 1, 56, 0
3, 23424, Note_on_c, 1, 55, 99
3, 23515, Note_on_c, 1, 55, 0
3, 23520, Note_on_c, 1, 58, 78
3, 23611, Note_on_c, 1, 58, 0
3, 23616, Note_on_c, 1, 61, 95
3, 23707, Note_on_c, 1, 61, 0
3, 23712, Note_on_c, 1, 60, 79
3, 23803, Note_on_c, 1, 60, 0
3, 23808, Note_on_c, 1, 56, 104
3, 23899, Note_on_c, 1, 56, 0
3, 23904, Note_on_c, 1, 60, 75
3, 23995, Note_on_c, 1, 60, 0
3, 24000, Note_on_c, 1, 63, 100
3, 24091, Note_on_c, 1, 63, 0
3, 24096, Note_on_c, 1, 68, 81
3, 24187, Note_on_c, 1, 68, 0
3, 24192, Note_on_c, 1, 63, 94
3, 24283, Note_on_c, 1, 63, 0
3, 24288, Note_on_c, 1, 70, 81
3, 24379, Note_on_c, 1, 70, 0
3, 24384, Note_on_c, 1, 72, 105
3, 24475, Note_on_c, 1, 72, 0
3, 24480, Note_on_c, 1, 70, 77
3, 24571, Note_on_c, 1, 70, 0
3, 24576, Note_on_c, 1, 69, 106
3, 24667, Note_on_c, 1, 69, 0
3, 24671, Note_on_c, 1, 63, 82
3, 24762, Note_on_c, 1, 63, 0
3, 24768, Note_on_c, 1, 66, 99
3, 24859, Note_on_c, 1, 66, 0
3, 24864, Note_on_c, 1, 57, 77
3, 24955, Note_on_c, 1, 57, 0
3, 24960, Note_on_c, 1, 58, 99
3, 25051, Note_on_c, 1, 58, 0
3, 25056, Note_on_c, 1, 67, 78
3, 25147, Note_on_c, 1, 67, 0
3, 25152, Note_on_c, 1, 56, 95
3, 25243, Note_on_c, 1, 56, 0
3, 25248, Note_on_c, 1, 65, 79
3, 25339, Note_on_c, 1, 65, 0
3, 25344, Note_on_c, 1, 55, 104
3, 25435, Note_on_c, 1, 55, 0
3, 25440, Note_on_c, 1, 64, 75
3, 25531, Note_on_c, 1, 64, 0
3, 25536, Note_on_c, 1, 65, 100
3, 25627, Note_on_c, 1, 65, 0
3, 25632, Note_on_c, 1, 63, 81
3, 25723, Note_on_c, 1, 63, 0
3, 25728, Note_on_c, 1, 53, 94
3, 25819, Note_on_c, 1, 53, 0
3, 25824, Note_on_c, 1, 61, 81
3, 25915, Note_on_c, 1, 61, 0
3, 25920, Note_on_c, 1, 63, 105
3, 26011, Note_on_c, 1, 63, 0
3, 26016, Note_on_c, 1, 61, 77
3, 26107, Note_on_c, 1, 61, 0
3, 26112, Note_on_c, 1, 51, 106
3, 26203, Note_on_c, 1, 51, 0
3, 26207, Note_on_c, 1, 60, 82
3, 26298, Note_on_c, 1, 60, 0
3, 26304, Note_on_c, 1, 61, 99
3, 26395, Note_on_c, 1, 61, 0
3, 26400, Note_on_c, 1, 60, 77
3, 26491, Note_on_c, 1, 60, 0
3, 26496, Note_on_c, 1, 58, 99
3, 26587, Note_on_c, 1, 58, 0
3, 26592, Note_on_c, 1, 65, 78
3, 26683, Note_on_c, 1, 65, 0
3, 26688, Note_on_c, 1, 67, 95
3, 26779, Note_on_c, 1, 67, 0
3, 26784, Note_on_c, 1, 65, 79
3, 26875, Note_on_c, 1, 65, 0
3, 26880, Note_on_c, 1, 62, 106
3, 26971, Note_on_c, 1, 62, 0
3, 26975, Note_on_c, 1, 65, 82
3, 27066, Note_on_c, 1, 65, 0
3, 27072, Note_on_c, 1, 67, 99
3, 27163, Note_on_c, 1, 67, 0
3, 27168, Note_on_c, 1, 65, 77
3, 27259, Note_on_c, 1, 65, 0
3, 27264, Note_on_c, 1, 64, 99
3, 27355, Note_on_c, 1, 64, 0
3, 27360, Note_on_c, 1, 61, 78
3, 27451, Note_on_c, 1, 61, 0
3, 27456, Note_on_c, 1, 58, 95
3, 27547, Note_on_c, 1, 58, 0
3, 27552, Note_on_c, 1, 55, 79
3, 27643, Note_on_c, 1, 55, 0
3, 27648, Note_on_c, 1, 57, 104
3, 27739, Note_on_c, 1, 57, 0
3, 27744, Note_on_c, 1, 60, 75
3, 27835, Note_on_c, 1, 60, 0
3, 27840, Note_on_c, 1, 65, 100
3, 28214, Note_on_c, 1, 65, 0
3, 28214, End_track
4, 0, Start_track
4, 0, MIDI_port, 0
4, 0, Title_t, "Pedale"
4, 384, Note_on_c, 2, 41, 99
4, 559, Note_on_c, 2, 41, 0
4, 576, Note_on_c, 2, 41, 95
4, 751, Note_on_c, 2, 41, 0
4, 768, Note_on_c, 2, 53, 104
4, 943, Note_on_c, 2, 53, 0
4, 960, Note_on_c, 2, 53, 100
4, 1135, Note_on_c, 2, 53, 0
4, 1152, Note_on_c, 2, 53, 94
4, 1327, Note_on_c, 2, 53, 0
4, 1344, Note_on_c, 2, 52, 105
4, 1519, Note_on_c, 2, 52, 0
4, 1536, Note_on_c, 2, 53, 106
4, 1711, Note_on_c, 2, 53, 0
4, 1728, Note_on_c, 2, 53, 99
4, 1903, Note_on_c, 2, 53, 0
4, 1920, Note_on_c, 2, 53, 99
4, 2095, Note_on_c, 2, 53, 0
4, 2112, Note_on_c, 2, 51, 95
4, 2287, Note_on_c, 2, 51, 0
4, 2304, Note_on_c, 2, 49, 104
4, 2479, Note_on_c, 2, 49, 0
4, 2496, Note_on_c, 2, 49, 100
4, 2671, Note_on_c, 2, 49, 0
4, 2688, Note_on_c, 2, 49, 94
4, 2863, Note_on_c, 2, 49, 0
4, 2880, Note_on_c, 2, 49, 105
4, 3055, Note_on_c, 2, 49, 0
4, 3072, Note_on_c, 2, 48, 106
4, 3247, Note_on_c, 2, 48, 0
4, 3264, Note_on_c, 2, 48, 99
4, 3439, Note_on_c, 2, 48, 0
4, 3456, Note_on_c, 2, 53, 99
4, 3631, Note_on_c, 2, 53, 0
4, 3648, Note_on_c, 2, 53, 95
4, 3823, Note_on_c, 2, 53, 0
4, 3840, Note_on_c, 2, 60, 106
4, 4015, Note_on_c, 2, 60, 0
4, 4032, Note_on_c, 2, 60, 99
4, 4207, Note_on_c, 2, 60, 0
4, 4224, Note_on_c, 2, 60, 99
4, 4399, Note_on_c, 2, 60, 0
4, 4416, Note_on_c, 2, 60, 95
4, 4591, Note_on_c, 2, 60, 0
4, 4608, Note_on_c, 2, 60, 104
4, 4783, Note_on_c, 2, 60, 0
4, 4800, Note_on_c, 2, 60, 100
4, 4975, Note_on_c, 2, 60, 0
4, 4992, Note_on_c, 2, 58, 94
4, 5167, Note_on_c, 2, 58, 0
4, 5184, Note_on_c, 2, 57, 105
4, 5359, Note_on_c, 2, 57, 0
4, 5376, Note_on_c, 2, 58, 106
4, 5551, Note_on_c, 2, 58, 0
4, 5568, Note_on_c, 2, 56, 99
4, 5743, Note_on_c, 2, 56, 0
4, 5760, Note_on_c, 2, 55, 99
4, 5935, Note_on_c, 2, 55, 0
4, 5952, Note_on_c, 2, 53, 95
4, 6127, Note_on_c, 2, 53, 0
4, 6144, Note_on_c, 2, 52, 104
4, 6319, Note_on_c, 2, 52, 0
4, 6336, Note_on_c, 2, 48, 100
4, 6511, Note_on_c, 2, 48, 0
4, 6528, Note_on_c, 2, 41, 94
4, 6703, Note_on_c, 2, 41, 0
4, 6720, Note_on_c, 2, 41, 105
4, 6895, Note_on_c, 2, 41, 0
4, 6912, Note_on_c, 2, 53, 106
4, 7087, Note_on_c, 2, 53, 0
4, 7104, Note_on_c, 2, 53, 99
4, 7279, Note_on_c, 2, 53, 0
4, 7296, Note_on_c, 2, 53, 99
4, 7471, Note_on_c, 2, 53, 0
4, 7488, Note_on_c, 2, 52, 95
4, 7663, Note_on_c, 2, 52, 0
4, 7680, Note_on_c, 2, 53, 106
4, 7855, Note_on_c, 2, 53, 0
4, 7872, Note_on_c, 2, 53, 99
4, 8047, Note_on_c, 2, 53, 0
4, 8064, Note_on_c, 2, 53, 99
4, 8239, Note_on_c, 2, 53, 0
4, 8256, Note_on_c, 2, 51, 95
4, 8431, Note_on_c, 2, 51, 0
4, 8448, Note_on_c, 2, 49, 104
4, 8623, Note_on_c, 2, 49, 0
4, 8640, Note_on_c, 2, 49, 100
4, 8815, Note_on_c, 2, 49, 0
4, 8832, Note_on_c, 2, 49, 94
4, 9007, Note_on_c, 2, 49, 0
4, 9024, Note_on_c, 2, 49, 105
4, 9199, Note_on_c, 2, 49, 0
4, 9216, Note_on_c, 2, 48, 106
4, 9391, Note_on_c, 2, 48, 0
4, 9408, Note_on_c, 2, 48, 99
4, 9583, Note_on_c, 2, 48, 0
4, 9600, Note_on_c, 2, 53, 99
4, 9775, Note_on_c, 2, 53, 0
4, 9792, Note_on_c, 2, 53, 95
4, 9967, Note_on_c, 2, 53, 0
4, 9984, Note_on_c, 2, 60, 104
4, 10159, Note_on_c, 2, 60, 0
4, 10176, Note_on_c, 2, 60, 100
4, 10351, Note_on_c, 2, 60, 0
4, 10368, Note_on_c, 2, 60, 94
4, 10543, Note_on_c, 2, 60, 0
4, 10560, Note_on_c, 2, 60, 105
4, 10735, Note_on_c, 2, 60, 0
4, 10752, Note_on_c, 2, 60, 106
4, 10927, Note_on_c, 2, 60, 0
4, 10944, Note_on_c, 2, 60, 99
4, 11119, Note_on_c, 2, 60, 0
4, 11136, Note_on_c, 2, 58, 99
4, 11311, Note_on_c, 2, 58, 0
4, 11328, Note_on_c, 2, 57, 95
4, 11503, Note_on_c, 2, 57, 0
4, 11520, Note_on_c, 2, 58, 106
4, 11695, Note_on_c, 2, 58, 0
4, 11712, Note_on_c, 2, 56, 99
4, 11887, Note_on_c, 2, 56, 0
4, 11904, Note_on_c, 2, 55, 99
4, 12079, Note_on_c, 2, 55, 0
4, 12096, Note_on_c, 2, 53, 95
4, 12271, Note_on_c, 2, 53, 0
4, 12288, Note_on_c, 2, 52, 104
4, 12463, Note_on_c, 2, 52, 0
4, 12480, Note_on_c, 2, 53, 100
4, 12655, Note_on_c, 2, 53, 0
4, 12672, Note_on_c, 2, 48, 94
4, 12847, Note_on_c, 2, 48, 0
4, 12864, Note_on_c, 2, 48, 105
4, 13039, Note_on_c, 2, 48, 0
4, 13056, Note_on_c, 2, 49, 106
4, 13231, Note_on_c, 2, 49, 0
4, 13248, Note_on_c, 2, 49, 99
4, 13423, Note_on_c, 2, 49, 0
4, 13440, Note_on_c, 2, 51, 99
4, 13615, Note_on_c, 2, 51, 0
4, 13632, Note_on_c, 2, 51, 95
4, 13807, Note_on_c, 2, 51, 0
4, 13824, Note_on_c, 2, 56, 104
4, 13999, Note_on_c, 2, 56, 0
4, 14016, Note_on_c, 2, 51, 100
4, 14191, Note_on_c, 2, 51, 0
4, 14208, Note_on_c, 2, 53, 94
4, 14383, Note_on_c, 2, 53, 0
4, 14400, Note_on_c, 2, 49, 105
4, 14575, Note_on_c, 2, 49, 0
4, 14592, Note_on_c, 2, 51, 106
4, 14767, Note_on_c, 2, 51, 0
4, 14784, Note_on_c, 2, 48, 99
4, 14959, Note_on_c, 2, 48, 0
4, 14976, Note_on_c, 2, 49, 99
4, 15151, Note_on_c, 2, 49, 0
4, 15168, Note_on_c, 2, 51, 95
4, 15343, Note_on_c, 2, 51, 0
4, 15360, Note_on_c, 2, 44, 106
4, 15535, Note_on_c, 2, 44, 0
4, 15552, Note_on_c, 2, 44, 99
4, 15727, Note_on_c, 2, 44, 0
4, 15744, Note_on_c, 2, 40, 99
4, 15919, Note_on_c, 2, 40, 0
4, 15936, Note_on_c, 2, 40, 95
4, 16111, Note_on_c, 2, 40, 0
4, 16128, Note_on_c, 2, 41, 104
4, 16303, Note_on_c, 2, 41, 0
4, 16320, Note_on_c, 2, 41, 100
4, 16495, Note_on_c, 2, 41, 0
4, 16512, Note_on_c, 2, 53, 94
4, 16687, Note_on_c, 2, 53, 0
4, 16704, Note_on_c, 2, 53, 105
4, 16879, Note_on_c, 2, 53, 0
4, 16896, Note_on_c, 2, 53, 106
4, 17071, Note_on_c, 2, 53, 0
4, 17088, Note_on_c, 2, 52, 99
4, 17263, Note_on_c, 2, 52, 0
4, 17280, Note_on_c, 2, 53, 99
4, 17455, Note_on_c, 2, 53, 0
4, 17472, Note_on_c, 2, 49, 95
4, 17647, Note_on_c, 2, 49, 0
4, 17664, Note_on_c, 2, 46, 104
4, 17839, Note_on_c, 2, 46, 0
4, 17856, Note_on_c, 2, 43, 100
4, 18031, Note_on_c, 2, 43, 0
4, 18048, Note_on_c, 2, 48, 94
4, 18223, Note_on_c, 2, 48, 0
4, 18240, Note_on_c, 2, 48, 105
4, 18415, Note_on_c, 2, 48, 0
4, 18432, Note_on_c, 2, 49, 106
4, 18607, Note_on_c, 2, 49, 0
4, 18624, Note_on_c, 2, 49, 99
4, 18799, Note_on_c, 2, 49, 0
4, 18816, Note_on_c, 2, 49, 99
4, 18991, Note_on_c, 2, 49, 0
4, 19008, Note_on_c, 2, 49, 95
4, 19183, Note_on_c, 2, 49, 0
4, 19200, Note_on_c, 2, 50, 106
4, 19375, Note_on_c, 2, 50, 0
4, 19392, Note_on_c, 2, 50, 99
4, 19567, Note_on_c, 2, 50, 0
4, 19584, Note_on_c, 2, 51, 99
4, 19759, Note_on_c, 2, 51, 0
4, 19776, Note_on_c, 2, 51, 95
4, 19951, Note_on_c, 2, 51, 0
4, 19968, Note_on_c, 2, 45, 104
4, 20143, Note_on_c, 2, 45, 0
4, 20160, Note_on_c, 2, 45, 100
4, 20335, Note_on_c, 2, 45, 0
4, 20352, Note_on_c, 2, 47, 94
4, 20527, Note_on_c, 2, 47, 0
4, 20544, Note_on_c, 2, 47, 105
4, 20719, Note_on_c, 2, 47, 0
4, 20736, Note_on_c, 2, 48, 106
4, 20911, Note_on_c, 2, 48, 0
4, 20928, Note_on_c, 2, 48, 99
4, 21103, Note_on_c, 2, 48, 0
4, 21120, Note_on_c, 2, 46, 99
4, 21295, Note_on_c, 2, 46, 0
4, 21312, Note_on_c, 2, 46, 95
4, 21487, Note_on_c, 2, 46, 0
4, 21504, Note_on_c, 2, 44, 104
4, 21679, Note_on_c, 2, 44, 0
4, 21696, Note_on_c, 2, 44, 100
4, 21871, Note_on_c, 2, 44, 0
4, 21888, Note_on_c, 2, 43, 94
4, 22063, Note_on_c, 2, 43, 0
4, 22080, Note_on_c, 2, 43, 105
4, 22255, Note_on_c, 2, 43, 0
4, 22272, Note_on_c, 2, 41, 106
4, 22447, Note_on_c, 2, 41, 0
4, 22464, Note_on_c, 2, 41, 99
4, 22639, Note_on_c, 2, 41, 0
4, 22656, Note_on_c, 2, 39, 99
4, 22831, Note_on_c, 2, 39, 0
4, 22848, Note_on_c, 2, 41, 95
4, 23023, Note_on_c, 2, 41, 0
4, 23040, Note_on_c, 2, 38, 106
4, 23215, Note_on_c, 2, 38, 0
4, 23232, Note_on_c, 2, 38, 99
4, 23407, Note_on_c, 2, 38, 0
4, 23424, Note_on_c, 2, 39, 99
4, 23599, Note_on_c, 2, 39, 0
4, 23616, Note_on_c, 2, 39, 95
4, 23791, Note_on_c, 2, 39, 0
4, 23808, Note_on_c, 2, 44, 104
4, 23983, Note_on_c, 2, 44, 0
4, 24000, Note_on_c, 2, 44, 100
4, 24175, Note_on_c, 2, 44, 0
4, 24192, Note_on_c, 2, 42, 94
4, 24367, Note_on_c, 2, 42, 0
4, 24384, Note_on_c, 2, 42, 105
4, 24559, Note_on_c, 2, 42, 0
4, 24576, Note_on_c, 2, 41, 106
4, 24751, Note_on_c, 2, 41, 0
4, 24768, Note_on_c, 2, 41, 99
4, 24943, Note_on_c, 2, 41, 0
4, 24960, Note_on_c, 2, 46, 99
4, 25135, Note_on_c, 2, 46, 0
4, 25152, Note_on_c, 2, 46, 95
4, 25327, Note_on_c, 2, 46, 0
4, 25344, Note_on_c, 2, 46, 104
4, 25519, Note_on_c, 2, 46, 0
4, 25536, Note_on_c, 2, 44, 100
4, 25711, Note_on_c, 2, 44, 0
4, 25728, Note_on_c, 2, 44, 94
4, 25903, Note_on_c, 2, 44, 0
4, 25920, Note_on_c, 2, 43, 105
4, 26095, Note_on_c, 2, 43, 0
4, 26112, Note_on_c, 2, 43, 106
4, 26287, Note_on_c, 2, 43, 0
4, 26304, Note_on_c, 2, 41, 99
4, 26479, Note_on_c, 2, 41, 0
4, 26496, Note_on_c, 2, 49, 99
4, 26671, Note_on_c, 2, 49, 0
4, 26688, Note_on_c, 2, 49, 95
4, 26863, Note_on_c, 2, 49, 0
4, 26880, Note_on_c, 2, 47, 106
4, 27055, Note_on_c, 2, 47, 0
4, 27072, Note_on_c, 2, 47, 99
4, 27247, Note_on_c, 2, 47, 0
4, 27264, Note_on_c, 2, 48, 99
4, 27439, Note_on_c, 2, 48, 0
4, 27456, Note_on_c, 2, 48, 95
4, 27631, Note_on_c, 2, 48, 0
4, 27648, Note_on_c, 2, 41, 104
4, 28189, Note_on_c, 2, 41, 0
4, 28189, End_track
5, 0, Start_track
5, 0, MIDI_port, 0
5, 0, Title_t, "Unioni I-II al pedale"
5, 0, End_track
6, 0, Start_track
6, 0, MIDI_port, 0
6, 0, Title_t, "Registrazione (Stops)"
6, 0, End_track
0, 0, End_of_file
