0, 0, Header, 1, 10, 720
1, 0, Start_track
1, 0, Sequencer_specific, 10, 0, 0, 91, 35, 1, 0, 5, 4, 35, 0
1, 0, Instrument_name_t, "Conductor Track"
1, 0, SMPTE_offset, 96, 0, 3, 0, 0
1, 0, MIDI_port, 0
1, 0, Tempo, 750000
1, 0, Time_signature, 12, 3, 36, 8
1, 157710, Tempo, 759493
1, 157974, Tempo, 769230
1, 158237, Tempo, 779220
1, 158501, Tempo, 789473
1, 158765, Tempo, 800000
1, 159028, Tempo, 810810
1, 159292, Tempo, 821917
1, 159556, Tempo, 833333
1, 159819, Tempo, 845070
1, 160083, Tempo, 857142
1, 160347, Tempo, 869565
1, 160611, Tempo, 882352
1, 160874, Tempo, 895522
1, 161138, Tempo, 909090
1, 161402, Tempo, 923076
1, 161665, Tempo, 937500
1, 161929, Tempo, 952380
1, 162193, Tempo, 967741
1, 162456, Tempo, 983606
1, 163020, Tempo, 1000000
1, 163120, Tempo, 1071428
1, 163220, Tempo, 1153846
1, 163320, Tempo, 1224489
1, 163420, Tempo, 1333333
1, 163520, Tempo, 1463414
1, 163620, Tempo, 1621621
1, 163620, End_track
2, 0, Start_track
2, 0, Title_t, "Man"
2, 0, MIDI_port, 0
2, 0, Control_c, 0, 7, 110
2, 0, Control_c, 0, 91, 38
2, 0, Control_c, 0, 10, 76
2, 0, Program_c, 0, 24
2, 48, Note_on_c, 0, 52, 120
2, 420, Note_on_c, 0, 59, 120
2, 432, Note_on_c, 0, 52, 0
2, 786, Note_on_c, 0, 59, 0
2, 798, Note_on_c, 0, 57, 120
2, 1164, Note_on_c, 0, 47, 120
2, 1164, Note_on_c, 0, 59, 120
2, 1170, Note_on_c, 0, 57, 0
2, 1488, Note_on_c, 0, 52, 120
2, 1494, Note_on_c, 0, 47, 0
2, 1794, Note_on_c, 0, 51, 120
2, 1818, Note_on_c, 0, 52, 0
2, 2136, Note_on_c, 0, 52, 120
2, 2142, Note_on_c, 0, 51, 0
2, 2472, Note_on_c, 0, 60, 120
2, 2478, Note_on_c, 0, 59, 0
2, 2802, Note_on_c, 0, 60, 0
2, 2808, Note_on_c, 0, 59, 120
2, 3144, Note_on_c, 0, 59, 0
2, 3150, Note_on_c, 0, 57, 120
2, 3498, Note_on_c, 0, 54, 120
2, 3510, Note_on_c, 0, 52, 0
2, 3840, Note_on_c, 0, 52, 120
2, 3846, Note_on_c, 0, 54, 0
2, 4218, Note_on_c, 0, 51, 120
2, 4224, Note_on_c, 0, 59, 120
2, 4254, Note_on_c, 0, 52, 0
2, 4584, Note_on_c, 0, 49, 120
2, 4584, Note_on_c, 0, 64, 120
2, 4590, Note_on_c, 0, 59, 0
2, 4602, Note_on_c, 0, 51, 0
2, 4926, Note_on_c, 0, 64, 0
2, 4932, Note_on_c, 0, 63, 120
2, 4944, Note_on_c, 0, 49, 0
2, 4944, Note_on_c, 0, 47, 120
2, 5052, Note_on_c, 0, 57, 0
2, 5286, Note_on_c, 0, 63, 0
2, 5292, Note_on_c, 0, 55, 120
2, 5292, Note_on_c, 0, 64, 120
2, 5298, Note_on_c, 0, 48, 120
2, 5304, Note_on_c, 0, 47, 0
2, 5646, Note_on_c, 0, 60, 120
2, 5664, Note_on_c, 0, 55, 0
2, 5982, Note_on_c, 0, 60, 0
2, 5982, Note_on_c, 0, 59, 120
2, 5994, Note_on_c, 0, 43, 120
2, 6006, Note_on_c, 0, 48, 0
2, 6342, Note_on_c, 0, 45, 120
2, 6348, Note_on_c, 0, 60, 120
2, 6354, Note_on_c, 0, 43, 0
2, 6360, Note_on_c, 0, 59, 0
2, 6714, Note_on_c, 0, 66, 120
2, 6720, Note_on_c, 0, 64, 0
2, 7032, Note_on_c, 0, 66, 0
2, 7050, Note_on_c, 0, 64, 120
2, 7050, Note_on_c, 0, 42, 120
2, 7074, Note_on_c, 0, 45, 0
2, 7146, Note_on_c, 0, 60, 0
2, 7242, Note_on_c, 0, 64, 0
2, 7440, Note_on_c, 0, 62, 120
2, 7446, Note_on_c, 0, 54, 120
2, 7452, Note_on_c, 0, 42, 0
2, 7452, Note_on_c, 0, 47, 120
2, 7806, Note_on_c, 0, 54, 0
2, 7806, Note_on_c, 0, 59, 120
2, 8022, Note_on_c, 0, 47, 0
2, 8142, Note_on_c, 0, 42, 120
2, 8142, Note_on_c, 0, 57, 120
2, 8148, Note_on_c, 0, 59, 0
2, 8346, Note_on_c, 0, 57, 0
2, 8394, Note_on_c, 0, 42, 0
2, 8508, Note_on_c, 0, 59, 120
2, 8520, Note_on_c, 0, 44, 120
2, 8940, Note_on_c, 0, 64, 120
2, 8946, Note_on_c, 0, 62, 0
2, 9174, Note_on_c, 0, 44, 0
2, 9294, Note_on_c, 0, 62, 120
2, 9306, Note_on_c, 0, 40, 120
2, 9318, Note_on_c, 0, 64, 0
2, 9474, Note_on_c, 0, 40, 0
2, 9678, Note_on_c, 0, 45, 120
2, 9678, Note_on_c, 0, 60, 120
2, 9696, Note_on_c, 0, 59, 0
2, 9708, Note_on_c, 0, 62, 0
2, 10050, Note_on_c, 0, 52, 120
2, 10248, Note_on_c, 0, 52, 0
2, 10422, Note_on_c, 0, 57, 120
2, 10746, Note_on_c, 0, 57, 0
2, 10770, Note_on_c, 0, 59, 120
2, 10776, Note_on_c, 0, 51, 120
2, 10782, Note_on_c, 0, 60, 0
2, 11124, Note_on_c, 0, 47, 120
2, 11142, Note_on_c, 0, 45, 0
2, 11172, Note_on_c, 0, 51, 0
2, 11490, Note_on_c, 0, 45, 120
2, 11496, Note_on_c, 0, 51, 120
2, 11508, Note_on_c, 0, 47, 0
2, 11682, Note_on_c, 0, 51, 0
2, 11862, Note_on_c, 0, 43, 120
2, 11862, Note_on_c, 0, 52, 120
2, 11880, Note_on_c, 0, 45, 0
2, 12066, Note_on_c, 0, 59, 0
2, 12210, Note_on_c, 0, 64, 120
2, 12534, Note_on_c, 0, 47, 120
2, 12540, Note_on_c, 0, 52, 0
2, 12546, Note_on_c, 0, 63, 120
2, 12552, Note_on_c, 0, 64, 0
2, 12894, Note_on_c, 0, 49, 120
2, 12900, Note_on_c, 0, 47, 0
2, 12900, Note_on_c, 0, 64, 120
2, 12906, Note_on_c, 0, 63, 0
2, 13260, Note_on_c, 0, 45, 120
2, 13272, Note_on_c, 0, 43, 0
2, 13602, Note_on_c, 0, 52, 120
2, 13602, Note_on_c, 0, 43, 120
2, 13626, Note_on_c, 0, 64, 0
2, 13632, Note_on_c, 0, 45, 0
2, 13956, Note_on_c, 0, 42, 120
2, 13962, Note_on_c, 0, 52, 0
2, 13968, Note_on_c, 0, 43, 0
2, 13968, Note_on_c, 0, 57, 120
2, 14046, Note_on_c, 0, 49, 0
2, 14334, Note_on_c, 0, 52, 120
2, 14652, Note_on_c, 0, 52, 0
2, 14664, Note_on_c, 0, 42, 0
2, 14676, Note_on_c, 0, 51, 120
2, 14682, Note_on_c, 0, 47, 120
2, 14838, Note_on_c, 0, 51, 0
2, 14838, Note_on_c, 0, 47, 0
2, 15042, Note_on_c, 0, 52, 120
2, 15042, Note_on_c, 0, 40, 120
2, 15402, Note_on_c, 0, 55, 120
2, 15414, Note_on_c, 0, 57, 0
2, 15750, Note_on_c, 0, 55, 0
2, 15756, Note_on_c, 0, 54, 120
2, 16116, Note_on_c, 0, 55, 120
2, 16122, Note_on_c, 0, 54, 0
2, 16176, Note_on_c, 0, 40, 0
2, 16500, Note_on_c, 0, 45, 120
2, 16506, Note_on_c, 0, 60, 120
2, 16518, Note_on_c, 0, 55, 0
2, 16860, Note_on_c, 0, 59, 120
2, 16866, Note_on_c, 0, 60, 0
2, 16866, Note_on_c, 0, 44, 120
2, 16878, Note_on_c, 0, 45, 0
2, 17196, Note_on_c, 0, 44, 0
2, 17214, Note_on_c, 0, 59, 0
2, 17214, Note_on_c, 0, 45, 120
2, 17214, Note_on_c, 0, 60, 120
2, 17340, Note_on_c, 0, 52, 0
2, 17502, Note_on_c, 0, 60, 0
2, 17568, Note_on_c, 0, 65, 120
2, 17580, Note_on_c, 0, 57, 120
2, 17922, Note_on_c, 0, 57, 0
2, 17928, Note_on_c, 0, 64, 120
2, 17934, Note_on_c, 0, 56, 120
2, 17940, Note_on_c, 0, 65, 0
2, 18270, Note_on_c, 0, 56, 0
2, 18282, Note_on_c, 0, 65, 120
2, 18288, Note_on_c, 0, 57, 120
2, 18300, Note_on_c, 0, 64, 0
2, 18648, Note_on_c, 0, 57, 0
2, 18648, Note_on_c, 0, 54, 120
2, 18654, Note_on_c, 0, 63, 120
2, 18666, Note_on_c, 0, 65, 0
2, 18906, Note_on_c, 0, 63, 0
2, 19014, Note_on_c, 0, 55, 120
2, 19020, Note_on_c, 0, 54, 0
2, 19026, Note_on_c, 0, 64, 120
2, 19056, Note_on_c, 0, 45, 0
2, 19398, Note_on_c, 0, 55, 0
2, 19398, Note_on_c, 0, 54, 120
2, 19398, Note_on_c, 0, 47, 120
2, 19764, Note_on_c, 0, 59, 120
2, 19770, Note_on_c, 0, 54, 0
2, 20064, Note_on_c, 0, 59, 0
2, 20094, Note_on_c, 0, 57, 120
2, 20436, Note_on_c, 0, 57, 0
2, 20472, Note_on_c, 0, 63, 120
2, 20478, Note_on_c, 0, 64, 0
2, 20484, Note_on_c, 0, 59, 120
2, 20808, Note_on_c, 0, 59, 0
2, 20820, Note_on_c, 0, 54, 120
2, 20982, Note_on_c, 0, 54, 0
2, 21192, Note_on_c, 0, 57, 120
2, 21552, Note_on_c, 0, 52, 120
2, 21552, Note_on_c, 0, 64, 120
2, 21558, Note_on_c, 0, 47, 0
2, 21564, Note_on_c, 0, 63, 0
2, 21906, Note_on_c, 0, 55, 120
2, 21918, Note_on_c, 0, 57, 0
2, 22242, Note_on_c, 0, 54, 120
2, 22254, Note_on_c, 0, 55, 0
2, 22392, Note_on_c, 0, 54, 0
2, 22584, Note_on_c, 0, 55, 120
2, 22602, Note_on_c, 0, 71, 120
2, 22956, Note_on_c, 0, 67, 120
2, 22974, Note_on_c, 0, 64, 0
2, 23322, Note_on_c, 0, 50, 120
2, 23328, Note_on_c, 0, 67, 0
2, 23328, Note_on_c, 0, 66, 120
2, 23346, Note_on_c, 0, 52, 0
2, 23556, Note_on_c, 0, 66, 0
2, 23562, Note_on_c, 0, 71, 0
2, 23694, Note_on_c, 0, 52, 120
2, 23700, Note_on_c, 0, 71, 120
2, 23706, Note_on_c, 0, 50, 0
2, 23706, Note_on_c, 0, 67, 120
2, 24066, Note_on_c, 0, 55, 0
2, 24066, Note_on_c, 0, 54, 120
2, 24396, Note_on_c, 0, 67, 0
2, 24402, Note_on_c, 0, 64, 120
2, 24402, Note_on_c, 0, 55, 120
2, 24408, Note_on_c, 0, 54, 0
2, 24408, Note_on_c, 0, 49, 120
2, 24414, Note_on_c, 0, 52, 0
2, 24768, Note_on_c, 0, 64, 0
2, 24768, Note_on_c, 0, 69, 120
2, 24768, Note_on_c, 0, 54, 120
2, 24774, Note_on_c, 0, 61, 120
2, 24780, Note_on_c, 0, 71, 0
2, 24798, Note_on_c, 0, 55, 0
2, 24798, Note_on_c, 0, 49, 0
2, 25122, Note_on_c, 0, 61, 0
2, 25134, Note_on_c, 0, 66, 120
2, 25458, Note_on_c, 0, 66, 0
2, 25458, Note_on_c, 0, 49, 120
2, 25464, Note_on_c, 0, 64, 120
2, 25602, Note_on_c, 0, 69, 0
2, 25668, Note_on_c, 0, 64, 0
2, 25806, Note_on_c, 0, 71, 120
2, 25812, Note_on_c, 0, 49, 0
2, 25812, Note_on_c, 0, 66, 120
2, 25818, Note_on_c, 0, 51, 120
2, 26190, Note_on_c, 0, 54, 0
2, 26190, Note_on_c, 0, 55, 120
2, 26388, Note_on_c, 0, 55, 0
2, 26400, Note_on_c, 0, 51, 0
2, 26550, Note_on_c, 0, 66, 0
2, 26556, Note_on_c, 0, 57, 120
2, 26556, Note_on_c, 0, 63, 120
2, 26562, Note_on_c, 0, 47, 120
2, 26736, Note_on_c, 0, 71, 0
2, 26766, Note_on_c, 0, 47, 0
2, 26784, Note_on_c, 0, 63, 0
2, 26814, Note_on_c, 0, 57, 0
2, 26946, Note_on_c, 0, 59, 120
2, 26946, Note_on_c, 0, 64, 120
2, 26952, Note_on_c, 0, 55, 120
2, 27252, Note_on_c, 0, 64, 0
2, 27264, Note_on_c, 0, 59, 0
2, 27318, Note_on_c, 0, 64, 120
2, 27660, Note_on_c, 0, 54, 120
2, 27666, Note_on_c, 0, 66, 120
2, 27672, Note_on_c, 0, 63, 120
2, 27678, Note_on_c, 0, 55, 0
2, 27696, Note_on_c, 0, 64, 0
2, 27756, Note_on_c, 0, 54, 0
2, 28050, Note_on_c, 0, 66, 0
2, 28050, Note_on_c, 0, 67, 120
2, 28050, Note_on_c, 0, 64, 120
2, 28050, Note_on_c, 0, 52, 120
2, 28050, Note_on_c, 0, 40, 120
2, 28056, Note_on_c, 0, 63, 0
2, 28218, Note_on_c, 0, 40, 0
2, 28410, Note_on_c, 0, 48, 120
2, 28770, Note_on_c, 0, 47, 120
2, 28788, Note_on_c, 0, 48, 0
2, 28800, Note_on_c, 0, 67, 0
2, 29124, Note_on_c, 0, 67, 120
2, 29130, Note_on_c, 0, 47, 0
2, 29130, Note_on_c, 0, 48, 120
2, 29472, Note_on_c, 0, 46, 120
2, 29484, Note_on_c, 0, 48, 0
2, 29838, Note_on_c, 0, 47, 120
2, 29856, Note_on_c, 0, 67, 0
2, 29856, Note_on_c, 0, 46, 0
2, 30192, Note_on_c, 0, 46, 120
2, 30198, Note_on_c, 0, 47, 0
2, 30198, Note_on_c, 0, 67, 120
2, 30282, Note_on_c, 0, 64, 0
2, 30300, Note_on_c, 0, 52, 0
2, 30552, Note_on_c, 0, 55, 120
2, 30558, Note_on_c, 0, 64, 120
2, 30912, Note_on_c, 0, 54, 120
2, 30912, Note_on_c, 0, 63, 120
2, 30918, Note_on_c, 0, 64, 0
2, 30930, Note_on_c, 0, 55, 0
2, 31266, Note_on_c, 0, 63, 0
2, 31284, Note_on_c, 0, 64, 120
2, 31290, Note_on_c, 0, 55, 120
2, 31308, Note_on_c, 0, 54, 0
2, 31578, Note_on_c, 0, 67, 0
2, 31650, Note_on_c, 0, 55, 0
2, 31650, Note_on_c, 0, 51, 120
2, 31662, Note_on_c, 0, 66, 120
2, 31998, Note_on_c, 0, 66, 0
2, 32016, Note_on_c, 0, 67, 120
2, 32022, Note_on_c, 0, 52, 120
2, 32028, Note_on_c, 0, 51, 0
2, 32322, Note_on_c, 0, 67, 0
2, 32352, Note_on_c, 0, 54, 120
2, 32364, Note_on_c, 0, 66, 120
2, 32370, Note_on_c, 0, 52, 0
2, 32502, Note_on_c, 0, 54, 0
2, 32538, Note_on_c, 0, 46, 0
2, 32706, Note_on_c, 0, 51, 120
2, 32712, Note_on_c, 0, 47, 120
2, 33072, Note_on_c, 0, 52, 120
2, 33078, Note_on_c, 0, 51, 0
2, 33078, Note_on_c, 0, 47, 0
2, 33078, Note_on_c, 0, 46, 120
2, 33120, Note_on_c, 0, 64, 0
2, 33438, Note_on_c, 0, 47, 120
2, 33444, Note_on_c, 0, 63, 120
2, 33450, Note_on_c, 0, 46, 0
2, 33480, Note_on_c, 0, 52, 0
2, 33774, Note_on_c, 0, 63, 0
2, 33810, Note_on_c, 0, 59, 120
2, 33816, Note_on_c, 0, 52, 120
2, 34056, Note_on_c, 0, 59, 0
2, 34116, Note_on_c, 0, 52, 0
2, 34182, Note_on_c, 0, 51, 120
2, 34182, Note_on_c, 0, 60, 120
2, 34296, Note_on_c, 0, 66, 0
2, 34524, Note_on_c, 0, 60, 0
2, 34536, Note_on_c, 0, 64, 120
2, 34542, Note_on_c, 0, 56, 120
2, 34554, Note_on_c, 0, 51, 0
2, 34554, Note_on_c, 0, 52, 120
2, 34560, Note_on_c, 0, 47, 0
2, 34878, Note_on_c, 0, 56, 0
2, 34878, Note_on_c, 0, 60, 120
2, 35208, Note_on_c, 0, 59, 120
2, 35214, Note_on_c, 0, 60, 0
2, 35568, Note_on_c, 0, 59, 0
2, 35568, Note_on_c, 0, 60, 120
2, 35928, Note_on_c, 0, 56, 120
2, 36180, Note_on_c, 0, 56, 0
2, 36288, Note_on_c, 0, 57, 120
2, 36354, Note_on_c, 0, 52, 0
2, 36642, Note_on_c, 0, 52, 120
2, 36696, Note_on_c, 0, 57, 0
2, 36996, Note_on_c, 0, 57, 120
2, 37362, Note_on_c, 0, 56, 120
2, 37380, Note_on_c, 0, 57, 0
2, 37542, Note_on_c, 0, 56, 0
2, 37734, Note_on_c, 0, 57, 120
2, 38082, Note_on_c, 0, 51, 120
2, 38100, Note_on_c, 0, 52, 0
2, 38460, Note_on_c, 0, 51, 0
2, 38466, Note_on_c, 0, 52, 120
2, 38496, Note_on_c, 0, 60, 0
2, 38844, Note_on_c, 0, 40, 120
2, 38844, Note_on_c, 0, 56, 120
2, 38844, Note_on_c, 0, 59, 120
2, 38868, Note_on_c, 0, 57, 0
2, 39888, Note_on_c, 0, 52, 0
2, 39888, Note_on_c, 0, 56, 0
2, 39900, Note_on_c, 0, 59, 0
2, 39912, Note_on_c, 0, 64, 0
2, 40254, Note_on_c, 0, 40, 0
2, 40428, Note_on_c, 0, 47, 120
2, 40614, Note_on_c, 0, 49, 120
2, 40638, Note_on_c, 0, 47, 0
2, 40788, Note_on_c, 0, 51, 120
2, 40806, Note_on_c, 0, 49, 0
2, 40956, Note_on_c, 0, 51, 0
2, 40962, Note_on_c, 0, 52, 120
2, 41160, Note_on_c, 0, 51, 120
2, 41172, Note_on_c, 0, 52, 0
2, 41322, Note_on_c, 0, 51, 0
2, 41322, Note_on_c, 0, 52, 120
2, 41490, Note_on_c, 0, 54, 120
2, 41508, Note_on_c, 0, 52, 0
2, 41664, Note_on_c, 0, 55, 120
2, 41688, Note_on_c, 0, 54, 0
2, 41850, Note_on_c, 0, 55, 0
2, 41850, Note_on_c, 0, 57, 120
2, 42030, Note_on_c, 0, 57, 0
2, 42030, Note_on_c, 0, 59, 120
2, 42204, Note_on_c, 0, 57, 120
2, 42222, Note_on_c, 0, 59, 0
2, 42384, Note_on_c, 0, 59, 120
2, 42402, Note_on_c, 0, 57, 0
2, 42552, Note_on_c, 0, 54, 120
2, 42582, Note_on_c, 0, 59, 0
2, 42726, Note_on_c, 0, 55, 120
2, 42756, Note_on_c, 0, 54, 0
2, 42906, Note_on_c, 0, 57, 120
2, 42912, Note_on_c, 0, 55, 0
2, 43104, Note_on_c, 0, 55, 120
2, 43122, Note_on_c, 0, 57, 0
2, 43464, Note_on_c, 0, 67, 120
2, 43800, Note_on_c, 0, 67, 0
2, 43800, Note_on_c, 0, 62, 120
2, 43842, Note_on_c, 0, 55, 0
2, 44172, Note_on_c, 0, 64, 120
2, 44178, Note_on_c, 0, 62, 0
2, 44178, Note_on_c, 0, 55, 120
2, 44556, Note_on_c, 0, 62, 120
2, 44568, Note_on_c, 0, 64, 0
2, 44898, Note_on_c, 0, 60, 120
2, 44916, Note_on_c, 0, 62, 0
2, 44958, Note_on_c, 0, 55, 0
2, 45276, Note_on_c, 0, 60, 0
2, 45276, Note_on_c, 0, 59, 120
2, 45282, Note_on_c, 0, 55, 120
2, 45666, Note_on_c, 0, 52, 120
2, 45666, Note_on_c, 0, 60, 120
2, 45678, Note_on_c, 0, 59, 0
2, 46026, Note_on_c, 0, 47, 120
2, 46032, Note_on_c, 0, 52, 0
2, 46032, Note_on_c, 0, 60, 0
2, 46032, Note_on_c, 0, 62, 120
2, 46230, Note_on_c, 0, 55, 0
2, 46404, Note_on_c, 0, 52, 120
2, 46404, Note_on_c, 0, 55, 120
2, 46410, Note_on_c, 0, 47, 0
2, 46410, Note_on_c, 0, 62, 0
2, 46410, Note_on_c, 0, 48, 120
2, 46782, Note_on_c, 0, 47, 120
2, 46794, Note_on_c, 0, 48, 0
2, 47130, Note_on_c, 0, 45, 120
2, 47136, Note_on_c, 0, 54, 120
2, 47142, Note_on_c, 0, 55, 0
2, 47142, Note_on_c, 0, 47, 0
2, 47142, Note_on_c, 0, 57, 120
2, 47178, Note_on_c, 0, 52, 0
2, 47358, Note_on_c, 0, 54, 0
2, 47376, Note_on_c, 0, 45, 0
2, 47508, Note_on_c, 0, 43, 120
2, 47508, Note_on_c, 0, 55, 120
2, 47514, Note_on_c, 0, 59, 120
2, 47520, Note_on_c, 0, 57, 0
2, 47706, Note_on_c, 0, 43, 0
2, 47724, Note_on_c, 0, 59, 0
2, 47880, Note_on_c, 0, 52, 120
2, 47886, Note_on_c, 0, 71, 120
2, 48234, Note_on_c, 0, 71, 0
2, 48234, Note_on_c, 0, 66, 120
2, 48234, Note_on_c, 0, 50, 120
2, 48258, Note_on_c, 0, 52, 0
2, 48402, Note_on_c, 0, 55, 0
2, 48606, Note_on_c, 0, 57, 120
2, 48606, Note_on_c, 0, 48, 120
2, 48612, Note_on_c, 0, 50, 0
2, 48618, Note_on_c, 0, 67, 120
2, 48636, Note_on_c, 0, 66, 0
2, 48978, Note_on_c, 0, 66, 120
2, 48984, Note_on_c, 0, 67, 0
2, 49332, Note_on_c, 0, 66, 0
2, 49338, Note_on_c, 0, 64, 120
2, 49674, Note_on_c, 0, 63, 120
2, 49680, Note_on_c, 0, 59, 120
2, 49692, Note_on_c, 0, 57, 0
2, 49698, Note_on_c, 0, 48, 0
2, 49704, Note_on_c, 0, 64, 0
2, 50040, Note_on_c, 0, 47, 120
2, 50220, Note_on_c, 0, 47, 0
2, 50310, Note_on_c, 0, 59, 0
2, 50400, Note_on_c, 0, 52, 120
2, 50406, Note_on_c, 0, 63, 0
2, 50430, Note_on_c, 0, 67, 120
2, 50580, Note_on_c, 0, 52, 0
2, 50784, Note_on_c, 0, 57, 120
2, 50790, Note_on_c, 0, 51, 120
2, 50796, Note_on_c, 0, 66, 120
2, 50826, Note_on_c, 0, 67, 0
2, 51144, Note_on_c, 0, 52, 120
2, 51186, Note_on_c, 0, 51, 0
2, 51480, Note_on_c, 0, 54, 120
2, 51516, Note_on_c, 0, 57, 0
2, 51528, Note_on_c, 0, 52, 0
2, 51870, Note_on_c, 0, 47, 120
2, 51876, Note_on_c, 0, 54, 0
2, 51876, Note_on_c, 0, 55, 120
2, 52032, Note_on_c, 0, 66, 0
2, 52206, Note_on_c, 0, 52, 120
2, 52212, Note_on_c, 0, 47, 0
2, 52212, Note_on_c, 0, 59, 120
2, 52512, Note_on_c, 0, 59, 0
2, 52548, Note_on_c, 0, 64, 120
2, 52548, Note_on_c, 0, 47, 120
2, 52566, Note_on_c, 0, 52, 0
2, 52650, Note_on_c, 0, 55, 0
2, 52902, Note_on_c, 0, 64, 0
2, 52902, Note_on_c, 0, 47, 0
2, 52902, Note_on_c, 0, 63, 120
2, 52908, Note_on_c, 0, 48, 120
2, 52908, Note_on_c, 0, 54, 120
2, 53262, Note_on_c, 0, 64, 120
2, 53262, Note_on_c, 0, 47, 120
2, 53268, Note_on_c, 0, 63, 0
2, 53274, Note_on_c, 0, 48, 0
2, 53586, Note_on_c, 0, 45, 120
2, 53604, Note_on_c, 0, 66, 120
2, 53610, Note_on_c, 0, 64, 0
2, 53628, Note_on_c, 0, 47, 0
2, 53706, Note_on_c, 0, 45, 0
2, 53904, Note_on_c, 0, 54, 0
2, 53958, Note_on_c, 0, 52, 120
2, 53964, Note_on_c, 0, 66, 0
2, 53964, Note_on_c, 0, 59, 120
2, 53964, Note_on_c, 0, 43, 120
2, 54180, Note_on_c, 0, 59, 0
2, 54336, Note_on_c, 0, 64, 120
2, 54690, Note_on_c, 0, 59, 120
2, 54708, Note_on_c, 0, 64, 0
2, 55038, Note_on_c, 0, 43, 0
2, 55050, Note_on_c, 0, 45, 120
2, 55056, Note_on_c, 0, 59, 0
2, 55056, Note_on_c, 0, 60, 120
2, 55404, Note_on_c, 0, 60, 0
2, 55416, Note_on_c, 0, 59, 120
2, 55752, Note_on_c, 0, 52, 0
2, 55764, Note_on_c, 0, 59, 0
2, 55770, Note_on_c, 0, 47, 120
2, 55770, Note_on_c, 0, 51, 120
2, 55776, Note_on_c, 0, 45, 0
2, 55776, Note_on_c, 0, 57, 120
2, 55914, Note_on_c, 0, 51, 0
2, 55926, Note_on_c, 0, 47, 0
2, 55968, Note_on_c, 0, 57, 0
2, 56148, Note_on_c, 0, 52, 120
2, 56148, Note_on_c, 0, 40, 120
2, 56148, Note_on_c, 0, 55, 120
2, 56154, Note_on_c, 0, 67, 120
2, 56346, Note_on_c, 0, 55, 0
2, 56418, Note_on_c, 0, 40, 0
2, 56526, Note_on_c, 0, 55, 120
2, 56544, Note_on_c, 0, 52, 0
2, 56886, Note_on_c, 0, 50, 120
2, 56976, Note_on_c, 0, 55, 0
2, 57054, Note_on_c, 0, 67, 0
2, 57258, Note_on_c, 0, 52, 120
2, 57264, Note_on_c, 0, 67, 120
2, 57282, Note_on_c, 0, 50, 0
2, 57600, Note_on_c, 0, 50, 120
2, 57624, Note_on_c, 0, 52, 0
2, 57960, Note_on_c, 0, 48, 120
2, 57978, Note_on_c, 0, 50, 0
2, 58056, Note_on_c, 0, 67, 0
2, 58320, Note_on_c, 0, 47, 120
2, 58326, Note_on_c, 0, 48, 0
2, 58338, Note_on_c, 0, 67, 120
2, 58662, Note_on_c, 0, 52, 120
2, 58668, Note_on_c, 0, 47, 0
2, 58668, Note_on_c, 0, 55, 120
2, 59010, Note_on_c, 0, 47, 120
2, 59016, Note_on_c, 0, 52, 0
2, 59016, Note_on_c, 0, 50, 120
2, 59022, Note_on_c, 0, 55, 0
2, 59178, Note_on_c, 0, 50, 0
2, 59382, Note_on_c, 0, 48, 120
2, 59382, Note_on_c, 0, 52, 120
2, 59388, Note_on_c, 0, 67, 0
2, 59388, Note_on_c, 0, 47, 0
2, 59388, Note_on_c, 0, 64, 120
2, 59742, Note_on_c, 0, 47, 120
2, 59742, Note_on_c, 0, 50, 120
2, 59748, Note_on_c, 0, 48, 0
2, 59760, Note_on_c, 0, 52, 0
2, 60078, Note_on_c, 0, 47, 0
2, 60078, Note_on_c, 0, 50, 0
2, 60090, Note_on_c, 0, 48, 120
2, 60090, Note_on_c, 0, 45, 120
2, 60246, Note_on_c, 0, 48, 0
2, 60246, Note_on_c, 0, 45, 0
2, 60444, Note_on_c, 0, 50, 120
2, 60450, Note_on_c, 0, 43, 120
2, 60450, Note_on_c, 0, 47, 120
2, 60450, Note_on_c, 0, 67, 120
2, 60474, Note_on_c, 0, 64, 0
2, 60618, Note_on_c, 0, 50, 0
2, 60618, Note_on_c, 0, 47, 0
2, 60690, Note_on_c, 0, 67, 0
2, 60786, Note_on_c, 0, 47, 120
2, 60810, Note_on_c, 0, 67, 120
2, 61158, Note_on_c, 0, 55, 120
2, 61170, Note_on_c, 0, 62, 120
2, 61500, Note_on_c, 0, 62, 0
2, 61506, Note_on_c, 0, 43, 0
2, 61518, Note_on_c, 0, 67, 0
2, 61518, Note_on_c, 0, 69, 120
2, 61518, Note_on_c, 0, 48, 120
2, 61524, Note_on_c, 0, 47, 0
2, 61524, Note_on_c, 0, 64, 120
2, 61872, Note_on_c, 0, 62, 120
2, 61878, Note_on_c, 0, 64, 0
2, 62214, Note_on_c, 0, 55, 0
2, 62220, Note_on_c, 0, 60, 120
2, 62226, Note_on_c, 0, 50, 120
2, 62226, Note_on_c, 0, 54, 120
2, 62232, Note_on_c, 0, 48, 0
2, 62244, Note_on_c, 0, 62, 0
2, 62382, Note_on_c, 0, 54, 0
2, 62388, Note_on_c, 0, 50, 0
2, 62424, Note_on_c, 0, 69, 0
2, 62520, Note_on_c, 0, 60, 0
2, 62586, Note_on_c, 0, 43, 120
2, 62586, Note_on_c, 0, 55, 120
2, 62586, Note_on_c, 0, 71, 120
2, 62946, Note_on_c, 0, 59, 120
2, 63246, Note_on_c, 0, 59, 0
2, 63282, Note_on_c, 0, 43, 0
2, 63300, Note_on_c, 0, 64, 120
2, 63300, Note_on_c, 0, 45, 120
2, 63444, Note_on_c, 0, 45, 0
2, 63480, Note_on_c, 0, 64, 0
2, 63486, Note_on_c, 0, 71, 0
2, 63534, Note_on_c, 0, 55, 0
2, 63660, Note_on_c, 0, 69, 120
2, 63666, Note_on_c, 0, 63, 120
2, 63672, Note_on_c, 0, 47, 120
2, 63678, Note_on_c, 0, 55, 120
2, 64020, Note_on_c, 0, 49, 120
2, 64026, Note_on_c, 0, 64, 120
2, 64032, Note_on_c, 0, 63, 0
2, 64032, Note_on_c, 0, 47, 0
2, 64296, Note_on_c, 0, 64, 0
2, 64374, Note_on_c, 0, 51, 120
2, 64374, Note_on_c, 0, 66, 120
2, 64404, Note_on_c, 0, 55, 0
2, 64416, Note_on_c, 0, 49, 0
2, 64488, Note_on_c, 0, 51, 0
2, 64728, Note_on_c, 0, 67, 120
2, 64728, Note_on_c, 0, 40, 120
2, 64734, Note_on_c, 0, 52, 120
2, 64758, Note_on_c, 0, 69, 0
2, 64938, Note_on_c, 0, 67, 0
2, 64956, Note_on_c, 0, 52, 0
2, 64974, Note_on_c, 0, 66, 0
2, 65082, Note_on_c, 0, 47, 120
2, 65088, Note_on_c, 0, 67, 120
2, 65088, Note_on_c, 0, 64, 120
2, 65430, Note_on_c, 0, 59, 120
2, 65436, Note_on_c, 0, 52, 120
2, 65442, Note_on_c, 0, 47, 0
2, 65442, Note_on_c, 0, 64, 0
2, 65484, Note_on_c, 0, 40, 0
2, 65736, Note_on_c, 0, 59, 0
2, 65754, Note_on_c, 0, 67, 0
2, 65790, Note_on_c, 0, 60, 120
2, 65796, Note_on_c, 0, 52, 0
2, 65796, Note_on_c, 0, 66, 120
2, 65796, Note_on_c, 0, 45, 120
2, 65796, Note_on_c, 0, 51, 120
2, 66144, Note_on_c, 0, 52, 120
2, 66150, Note_on_c, 0, 59, 120
2, 66156, Note_on_c, 0, 51, 0
2, 66168, Note_on_c, 0, 60, 0
2, 66366, Note_on_c, 0, 59, 0
2, 66480, Note_on_c, 0, 54, 120
2, 66486, Note_on_c, 0, 57, 120
2, 66510, Note_on_c, 0, 52, 0
2, 66588, Note_on_c, 0, 54, 0
2, 66606, Note_on_c, 0, 45, 0
2, 66642, Note_on_c, 0, 57, 0
2, 66654, Note_on_c, 0, 66, 0
2, 66876, Note_on_c, 0, 56, 120
2, 66882, Note_on_c, 0, 64, 120
2, 66882, Note_on_c, 0, 38, 120
2, 66888, Note_on_c, 0, 59, 120
2, 67098, Note_on_c, 0, 38, 0
2, 67242, Note_on_c, 0, 52, 120
2, 67488, Note_on_c, 0, 59, 0
2, 67596, Note_on_c, 0, 62, 120
2, 67608, Note_on_c, 0, 47, 120
2, 67638, Note_on_c, 0, 52, 0
2, 67998, Note_on_c, 0, 48, 120
2, 68004, Note_on_c, 0, 47, 0
2, 68346, Note_on_c, 0, 47, 120
2, 68364, Note_on_c, 0, 56, 0
2, 68376, Note_on_c, 0, 62, 0
2, 68376, Note_on_c, 0, 48, 0
2, 68700, Note_on_c, 0, 45, 120
2, 68700, Note_on_c, 0, 60, 120
2, 68700, Note_on_c, 0, 57, 120
2, 68712, Note_on_c, 0, 47, 0
2, 68964, Note_on_c, 0, 57, 0
2, 69048, Note_on_c, 0, 60, 0
2, 69060, Note_on_c, 0, 59, 120
2, 69066, Note_on_c, 0, 44, 120
2, 69090, Note_on_c, 0, 45, 0
2, 69282, Note_on_c, 0, 64, 0
2, 69402, Note_on_c, 0, 47, 120
2, 69408, Note_on_c, 0, 64, 120
2, 69414, Note_on_c, 0, 59, 0
2, 69750, Note_on_c, 0, 52, 120
2, 69762, Note_on_c, 0, 59, 120
2, 69780, Note_on_c, 0, 47, 0
2, 69972, Note_on_c, 0, 44, 0
2, 70110, Note_on_c, 0, 59, 0
2, 70122, Note_on_c, 0, 45, 120
2, 70128, Note_on_c, 0, 60, 120
2, 70488, Note_on_c, 0, 60, 0
2, 70488, Note_on_c, 0, 50, 120
2, 70494, Note_on_c, 0, 59, 120
2, 70500, Note_on_c, 0, 52, 0
2, 70860, Note_on_c, 0, 48, 120
2, 70866, Note_on_c, 0, 59, 0
2, 70866, Note_on_c, 0, 57, 120
2, 70878, Note_on_c, 0, 50, 0
2, 70974, Note_on_c, 0, 45, 0
2, 71142, Note_on_c, 0, 48, 0
2, 71244, Note_on_c, 0, 57, 0
2, 71244, Note_on_c, 0, 40, 120
2, 71250, Note_on_c, 0, 56, 120
2, 71250, Note_on_c, 0, 47, 120
2, 71808, Note_on_c, 0, 64, 0
2, 72366, Note_on_c, 0, 56, 0
2, 72372, Note_on_c, 0, 40, 0
2, 72372, Note_on_c, 0, 47, 0
2, 72948, Note_on_c, 0, 47, 120
2, 73110, Note_on_c, 0, 49, 120
2, 73122, Note_on_c, 0, 47, 0
2, 73290, Note_on_c, 0, 51, 120
2, 73296, Note_on_c, 0, 49, 0
2, 73482, Note_on_c, 0, 51, 0
2, 73482, Note_on_c, 0, 52, 120
2, 73656, Note_on_c, 0, 51, 120
2, 73662, Note_on_c, 0, 52, 0
2, 73812, Note_on_c, 0, 51, 0
2, 73812, Note_on_c, 0, 52, 120
2, 73962, Note_on_c, 0, 54, 120
2, 73974, Note_on_c, 0, 52, 0
2, 74112, Note_on_c, 0, 54, 0
2, 74112, Note_on_c, 0, 55, 120
2, 74268, Note_on_c, 0, 57, 120
2, 74274, Note_on_c, 0, 55, 0
2, 74406, Note_on_c, 0, 59, 120
2, 74412, Note_on_c, 0, 57, 0
2, 74604, Note_on_c, 0, 57, 120
2, 74616, Note_on_c, 0, 59, 0
2, 74760, Note_on_c, 0, 59, 120
2, 74766, Note_on_c, 0, 57, 0
2, 74928, Note_on_c, 0, 54, 120
2, 74946, Note_on_c, 0, 59, 0
2, 75102, Note_on_c, 0, 54, 0
2, 75102, Note_on_c, 0, 55, 120
2, 75264, Note_on_c, 0, 57, 120
2, 75270, Note_on_c, 0, 55, 0
2, 75456, Note_on_c, 0, 55, 120
2, 75474, Note_on_c, 0, 57, 0
2, 75666, Note_on_c, 0, 67, 120
2, 75846, Note_on_c, 0, 66, 120
2, 75858, Note_on_c, 0, 67, 0
2, 76008, Note_on_c, 0, 64, 120
2, 76020, Note_on_c, 0, 66, 0
2, 76182, Note_on_c, 0, 64, 0
2, 76182, Note_on_c, 0, 62, 120
2, 76344, Note_on_c, 0, 62, 0
2, 76344, Note_on_c, 0, 60, 120
2, 76374, Note_on_c, 0, 55, 0
2, 76506, Note_on_c, 0, 60, 0
2, 76518, Note_on_c, 0, 59, 120
2, 76530, Note_on_c, 0, 55, 120
2, 76656, Note_on_c, 0, 59, 0
2, 76710, Note_on_c, 0, 64, 120
2, 76890, Note_on_c, 0, 62, 120
2, 76902, Note_on_c, 0, 64, 0
2, 77052, Note_on_c, 0, 60, 120
2, 77064, Note_on_c, 0, 62, 0
2, 77232, Note_on_c, 0, 59, 120
2, 77238, Note_on_c, 0, 60, 0
2, 77406, Note_on_c, 0, 57, 120
2, 77412, Note_on_c, 0, 55, 0
2, 77412, Note_on_c, 0, 59, 0
2, 77568, Note_on_c, 0, 57, 0
2, 77592, Note_on_c, 0, 55, 120
2, 77802, Note_on_c, 0, 40, 120
2, 77982, Note_on_c, 0, 42, 120
2, 77994, Note_on_c, 0, 40, 0
2, 78150, Note_on_c, 0, 42, 0
2, 78156, Note_on_c, 0, 43, 120
2, 78342, Note_on_c, 0, 45, 120
2, 78348, Note_on_c, 0, 43, 0
2, 78528, Note_on_c, 0, 45, 0
2, 78528, Note_on_c, 0, 47, 120
2, 78744, Note_on_c, 0, 52, 120
2, 78744, Note_on_c, 0, 48, 120
2, 78750, Note_on_c, 0, 55, 0
2, 78750, Note_on_c, 0, 47, 0
2, 78990, Note_on_c, 0, 43, 120
2, 79008, Note_on_c, 0, 48, 0
2, 79164, Note_on_c, 0, 45, 120
2, 79188, Note_on_c, 0, 43, 0
2, 79356, Note_on_c, 0, 47, 120
2, 79374, Note_on_c, 0, 45, 0
2, 79536, Note_on_c, 0, 48, 120
2, 79542, Note_on_c, 0, 47, 0
2, 79734, Note_on_c, 0, 50, 120
2, 79740, Note_on_c, 0, 48, 0
2, 79800, Note_on_c, 0, 52, 0
2, 79938, Note_on_c, 0, 52, 120
2, 79944, Note_on_c, 0, 55, 120
2, 79950, Note_on_c, 0, 50, 0
2, 80136, Note_on_c, 0, 57, 120
2, 80136, Note_on_c, 0, 54, 120
2, 80142, Note_on_c, 0, 52, 0
2, 80316, Note_on_c, 0, 52, 120
2, 80322, Note_on_c, 0, 54, 0
2, 80322, Note_on_c, 0, 59, 120
2, 80328, Note_on_c, 0, 57, 0
2, 80502, Note_on_c, 0, 50, 120
2, 80508, Note_on_c, 0, 60, 120
2, 80514, Note_on_c, 0, 59, 0
2, 80520, Note_on_c, 0, 52, 0
2, 80682, Note_on_c, 0, 62, 120
2, 80688, Note_on_c, 0, 60, 0
2, 80688, Note_on_c, 0, 48, 120
2, 80718, Note_on_c, 0, 50, 0
2, 80826, Note_on_c, 0, 62, 0
2, 80874, Note_on_c, 0, 64, 120
2, 80880, Note_on_c, 0, 47, 120
2, 80892, Note_on_c, 0, 48, 0
2, 80952, Note_on_c, 0, 55, 0
2, 80958, Note_on_c, 0, 64, 0
2, 81072, Note_on_c, 0, 66, 120
2, 81078, Note_on_c, 0, 57, 120
2, 81078, Note_on_c, 0, 45, 120
2, 81090, Note_on_c, 0, 47, 0
2, 81216, Note_on_c, 0, 66, 0
2, 81264, Note_on_c, 0, 59, 120
2, 81264, Note_on_c, 0, 52, 120
2, 81276, Note_on_c, 0, 45, 0
2, 81432, Note_on_c, 0, 50, 120
2, 81432, Note_on_c, 0, 60, 120
2, 81444, Note_on_c, 0, 59, 0
2, 81450, Note_on_c, 0, 52, 0
2, 81600, Note_on_c, 0, 48, 120
2, 81606, Note_on_c, 0, 60, 0
2, 81606, Note_on_c, 0, 62, 120
2, 81630, Note_on_c, 0, 50, 0
2, 81780, Note_on_c, 0, 47, 120
2, 81780, Note_on_c, 0, 64, 120
2, 81792, Note_on_c, 0, 48, 0
2, 81792, Note_on_c, 0, 62, 0
2, 81900, Note_on_c, 0, 64, 0
2, 81948, Note_on_c, 0, 45, 120
2, 81954, Note_on_c, 0, 66, 120
2, 81978, Note_on_c, 0, 47, 0
2, 82032, Note_on_c, 0, 57, 0
2, 82038, Note_on_c, 0, 45, 0
2, 82134, Note_on_c, 0, 67, 120
2, 82134, Note_on_c, 0, 59, 120
2, 82134, Note_on_c, 0, 43, 120
2, 82140, Note_on_c, 0, 66, 0
2, 82284, Note_on_c, 0, 43, 0
2, 82302, Note_on_c, 0, 57, 120
2, 82458, Note_on_c, 0, 67, 0
2, 82463, Note_on_c, 0, 57, 0
2, 82494, Note_on_c, 0, 55, 120
2, 82494, Note_on_c, 0, 62, 120
2, 82655, Note_on_c, 0, 55, 0
2, 82656, Note_on_c, 0, 54, 120
2, 82746, Note_on_c, 0, 62, 0
2, 82836, Note_on_c, 0, 54, 0
2, 82836, Note_on_c, 0, 52, 120
2, 82842, Note_on_c, 0, 67, 120
2, 83010, Note_on_c, 0, 52, 0
2, 83010, Note_on_c, 0, 50, 120
2, 83028, Note_on_c, 0, 59, 0
2, 83190, Note_on_c, 0, 67, 0
2, 83190, Note_on_c, 0, 57, 120
2, 83196, Note_on_c, 0, 50, 0
2, 83196, Note_on_c, 0, 48, 120
2, 83370, Note_on_c, 0, 67, 120
2, 83550, Note_on_c, 0, 66, 120
2, 83556, Note_on_c, 0, 67, 0
2, 83718, Note_on_c, 0, 67, 120
2, 83736, Note_on_c, 0, 66, 0
2, 83820, Note_on_c, 0, 48, 0
2, 83898, Note_on_c, 0, 50, 120
2, 83898, Note_on_c, 0, 64, 120
2, 83904, Note_on_c, 0, 67, 0
2, 84072, Note_on_c, 0, 66, 120
2, 84084, Note_on_c, 0, 64, 0
2, 84240, Note_on_c, 0, 57, 0
2, 84246, Note_on_c, 0, 66, 0
2, 84258, Note_on_c, 0, 67, 120
2, 84264, Note_on_c, 0, 52, 120
2, 84264, Note_on_c, 0, 55, 120
2, 84384, Note_on_c, 0, 50, 0
2, 84456, Note_on_c, 0, 69, 120
2, 84462, Note_on_c, 0, 67, 0
2, 84630, Note_on_c, 0, 67, 120
2, 84642, Note_on_c, 0, 69, 0
2, 84804, Note_on_c, 0, 65, 120
2, 84810, Note_on_c, 0, 67, 0
2, 84984, Note_on_c, 0, 65, 0
2, 84984, Note_on_c, 0, 47, 120
2, 84990, Note_on_c, 0, 64, 120
2, 84996, Note_on_c, 0, 52, 0
2, 85170, Note_on_c, 0, 62, 120
2, 85176, Note_on_c, 0, 64, 0
2, 85326, Note_on_c, 0, 62, 0
2, 85344, Note_on_c, 0, 64, 120
2, 85356, Note_on_c, 0, 48, 120
2, 85368, Note_on_c, 0, 47, 0
2, 85518, Note_on_c, 0, 62, 120
2, 85692, Note_on_c, 0, 60, 120
2, 85722, Note_on_c, 0, 62, 0
2, 85866, Note_on_c, 0, 60, 0
2, 85866, Note_on_c, 0, 59, 120
2, 86046, Note_on_c, 0, 60, 120
2, 86058, Note_on_c, 0, 59, 0
2, 86220, Note_on_c, 0, 54, 120
2, 86232, Note_on_c, 0, 55, 0
2, 86286, Note_on_c, 0, 48, 0
2, 86351, Note_on_c, 0, 54, 0
2, 86406, Note_on_c, 0, 43, 120
2, 86406, Note_on_c, 0, 55, 120
2, 86418, Note_on_c, 0, 64, 0
2, 86574, Note_on_c, 0, 64, 120
2, 86736, Note_on_c, 0, 64, 0
2, 86742, Note_on_c, 0, 62, 120
2, 86760, Note_on_c, 0, 60, 0
2, 86922, Note_on_c, 0, 60, 120
2, 86934, Note_on_c, 0, 62, 0
2, 87096, Note_on_c, 0, 62, 120
2, 87102, Note_on_c, 0, 60, 0
2, 87270, Note_on_c, 0, 60, 120
2, 87336, Note_on_c, 0, 60, 0
2, 87444, Note_on_c, 0, 59, 120
2, 87642, Note_on_c, 0, 59, 0
2, 87642, Note_on_c, 0, 57, 120
2, 87810, Note_on_c, 0, 59, 120
2, 87816, Note_on_c, 0, 57, 0
2, 87882, Note_on_c, 0, 55, 0
2, 87990, Note_on_c, 0, 53, 120
2, 88170, Note_on_c, 0, 52, 120
2, 88182, Note_on_c, 0, 53, 0
2, 88326, Note_on_c, 0, 50, 120
2, 88332, Note_on_c, 0, 52, 0
2, 88428, Note_on_c, 0, 59, 0
2, 88518, Note_on_c, 0, 67, 120
2, 88524, Note_on_c, 0, 52, 120
2, 88530, Note_on_c, 0, 50, 0
2, 88620, Note_on_c, 0, 62, 0
2, 88710, Note_on_c, 0, 62, 120
2, 88878, Note_on_c, 0, 62, 0
2, 88878, Note_on_c, 0, 60, 120
2, 89064, Note_on_c, 0, 59, 120
2, 89070, Note_on_c, 0, 60, 0
2, 89196, Note_on_c, 0, 59, 0
2, 89238, Note_on_c, 0, 60, 120
2, 89274, Note_on_c, 0, 52, 0
2, 89430, Note_on_c, 0, 52, 120
2, 89442, Note_on_c, 0, 67, 0
2, 89604, Note_on_c, 0, 52, 0
2, 89604, Note_on_c, 0, 67, 120
2, 89610, Note_on_c, 0, 50, 120
2, 89628, Note_on_c, 0, 60, 0
2, 89784, Note_on_c, 0, 60, 120
2, 89964, Note_on_c, 0, 59, 120
2, 89970, Note_on_c, 0, 60, 0
2, 90120, Note_on_c, 0, 57, 120
2, 90126, Note_on_c, 0, 59, 0
2, 90330, Note_on_c, 0, 57, 0
2, 90330, Note_on_c, 0, 59, 120
2, 90504, Note_on_c, 0, 41, 120
2, 90510, Note_on_c, 0, 43, 0
2, 90516, Note_on_c, 0, 67, 0
2, 90684, Note_on_c, 0, 40, 120
2, 90690, Note_on_c, 0, 41, 0
2, 90690, Note_on_c, 0, 67, 120
2, 90738, Note_on_c, 0, 50, 0
2, 90840, Note_on_c, 0, 59, 0
2, 90888, Note_on_c, 0, 50, 120
2, 90894, Note_on_c, 0, 59, 120
2, 91068, Note_on_c, 0, 59, 0
2, 91068, Note_on_c, 0, 60, 120
2, 91068, Note_on_c, 0, 48, 120
2, 91080, Note_on_c, 0, 50, 0
2, 91236, Note_on_c, 0, 47, 120
2, 91242, Note_on_c, 0, 48, 0
2, 91242, Note_on_c, 0, 62, 120
2, 91248, Note_on_c, 0, 60, 0
2, 91410, Note_on_c, 0, 47, 0
2, 91410, Note_on_c, 0, 62, 0
2, 91416, Note_on_c, 0, 48, 120
2, 91416, Note_on_c, 0, 64, 120
2, 91494, Note_on_c, 0, 40, 0
2, 91584, Note_on_c, 0, 65, 120
2, 91590, Note_on_c, 0, 38, 120
2, 91596, Note_on_c, 0, 67, 0
2, 91695, Note_on_c, 0, 38, 0
2, 91711, Note_on_c, 0, 64, 0
2, 91711, Note_on_c, 0, 65, 0
2, 91782, Note_on_c, 0, 36, 120
2, 91788, Note_on_c, 0, 64, 120
2, 91920, Note_on_c, 0, 48, 0
2, 91962, Note_on_c, 0, 62, 120
2, 91962, Note_on_c, 0, 43, 120
2, 92130, Note_on_c, 0, 62, 0
2, 92130, Note_on_c, 0, 45, 120
2, 92136, Note_on_c, 0, 43, 0
2, 92136, Note_on_c, 0, 60, 120
2, 92143, Note_on_c, 0, 36, 0
2, 92304, Note_on_c, 0, 47, 120
2, 92310, Note_on_c, 0, 45, 0
2, 92310, Note_on_c, 0, 60, 0
2, 92310, Note_on_c, 0, 59, 120
2, 92478, Note_on_c, 0, 47, 0
2, 92490, Note_on_c, 0, 57, 120
2, 92490, Note_on_c, 0, 48, 120
2, 92496, Note_on_c, 0, 59, 0
2, 92623, Note_on_c, 0, 48, 0
2, 92628, Note_on_c, 0, 64, 0
2, 92670, Note_on_c, 0, 66, 120
2, 92676, Note_on_c, 0, 50, 120
2, 92783, Note_on_c, 0, 50, 0
2, 92802, Note_on_c, 0, 57, 0
2, 92820, Note_on_c, 0, 66, 0
2, 92838, Note_on_c, 0, 52, 120
2, 92838, Note_on_c, 0, 67, 120
2, 93018, Note_on_c, 0, 66, 120
2, 93103, Note_on_c, 0, 52, 0
2, 93174, Note_on_c, 0, 66, 0
2, 93192, Note_on_c, 0, 55, 120
2, 93198, Note_on_c, 0, 64, 120
2, 93366, Note_on_c, 0, 62, 120
2, 93372, Note_on_c, 0, 64, 0
2, 93420, Note_on_c, 0, 55, 0
2, 93540, Note_on_c, 0, 52, 120
2, 93546, Note_on_c, 0, 62, 0
2, 93546, Note_on_c, 0, 60, 120
2, 93714, Note_on_c, 0, 59, 120
2, 93726, Note_on_c, 0, 60, 0
2, 93804, Note_on_c, 0, 59, 0
2, 93816, Note_on_c, 0, 67, 0
2, 93894, Note_on_c, 0, 57, 120
2, 93894, Note_on_c, 0, 69, 120
2, 93900, Note_on_c, 0, 54, 120
2, 93918, Note_on_c, 0, 52, 0
2, 94080, Note_on_c, 0, 57, 0
2, 94086, Note_on_c, 0, 64, 120
2, 94248, Note_on_c, 0, 64, 0
2, 94248, Note_on_c, 0, 62, 120
2, 94422, Note_on_c, 0, 60, 120
2, 94428, Note_on_c, 0, 62, 0
2, 94512, Note_on_c, 0, 60, 0
2, 94602, Note_on_c, 0, 59, 120
2, 94776, Note_on_c, 0, 57, 120
2, 94788, Note_on_c, 0, 59, 0
2, 94794, Note_on_c, 0, 54, 0
2, 94962, Note_on_c, 0, 71, 120
2, 94968, Note_on_c, 0, 57, 0
2, 94968, Note_on_c, 0, 55, 120
2, 94974, Note_on_c, 0, 69, 0
2, 95166, Note_on_c, 0, 57, 120
2, 95311, Note_on_c, 0, 55, 0
2, 95346, Note_on_c, 0, 55, 120
2, 95346, Note_on_c, 0, 62, 120
2, 95358, Note_on_c, 0, 57, 0
2, 95514, Note_on_c, 0, 54, 120
2, 95520, Note_on_c, 0, 55, 0
2, 95670, Note_on_c, 0, 62, 0
2, 95694, Note_on_c, 0, 54, 0
2, 95700, Note_on_c, 0, 52, 120
2, 95700, Note_on_c, 0, 67, 120
2, 95874, Note_on_c, 0, 52, 0
2, 95874, Note_on_c, 0, 50, 120
2, 96048, Note_on_c, 0, 69, 120
2, 96048, Note_on_c, 0, 48, 120
2, 96066, Note_on_c, 0, 71, 0
2, 96066, Note_on_c, 0, 50, 0
2, 96258, Note_on_c, 0, 48, 0
2, 96258, Note_on_c, 0, 52, 120
2, 96438, Note_on_c, 0, 67, 0
2, 96438, Note_on_c, 0, 50, 120
2, 96438, Note_on_c, 0, 66, 120
2, 96444, Note_on_c, 0, 52, 0
2, 96612, Note_on_c, 0, 48, 120
2, 96618, Note_on_c, 0, 66, 0
2, 96618, Note_on_c, 0, 64, 120
2, 96630, Note_on_c, 0, 50, 0
2, 96792, Note_on_c, 0, 47, 120
2, 96798, Note_on_c, 0, 48, 0
2, 96798, Note_on_c, 0, 64, 0
2, 96798, Note_on_c, 0, 66, 120
2, 96972, Note_on_c, 0, 47, 0
2, 96972, Note_on_c, 0, 45, 120
2, 97122, Note_on_c, 0, 45, 0
2, 97128, Note_on_c, 0, 69, 0
2, 97146, Note_on_c, 0, 67, 120
2, 97152, Note_on_c, 0, 47, 120
2, 97254, Note_on_c, 0, 47, 0
2, 97338, Note_on_c, 0, 43, 120
2, 97386, Note_on_c, 0, 66, 0
2, 97506, Note_on_c, 0, 45, 120
2, 97512, Note_on_c, 0, 62, 120
2, 97524, Note_on_c, 0, 43, 0
2, 97686, Note_on_c, 0, 47, 120
2, 97692, Note_on_c, 0, 45, 0
2, 97734, Note_on_c, 0, 62, 0
2, 97866, Note_on_c, 0, 65, 120
2, 97872, Note_on_c, 0, 47, 0
2, 97872, Note_on_c, 0, 48, 120
2, 98046, Note_on_c, 0, 48, 0
2, 98046, Note_on_c, 0, 50, 120
2, 98214, Note_on_c, 0, 50, 0
2, 98214, Note_on_c, 0, 64, 120
2, 98220, Note_on_c, 0, 52, 120
2, 98238, Note_on_c, 0, 65, 0
2, 98400, Note_on_c, 0, 47, 120
2, 98406, Note_on_c, 0, 52, 0
2, 98574, Note_on_c, 0, 47, 0
2, 98574, Note_on_c, 0, 48, 120
2, 98580, Note_on_c, 0, 60, 120
2, 98760, Note_on_c, 0, 48, 0
2, 98766, Note_on_c, 0, 60, 0
2, 98766, Note_on_c, 0, 59, 120
2, 98766, Note_on_c, 0, 50, 120
2, 98940, Note_on_c, 0, 59, 0
2, 98940, Note_on_c, 0, 52, 120
2, 98940, Note_on_c, 0, 60, 120
2, 98952, Note_on_c, 0, 50, 0
2, 99090, Note_on_c, 0, 54, 120
2, 99096, Note_on_c, 0, 52, 0
2, 99180, Note_on_c, 0, 60, 0
2, 99231, Note_on_c, 0, 54, 0
2, 99282, Note_on_c, 0, 64, 0
2, 99288, Note_on_c, 0, 59, 120
2, 99294, Note_on_c, 0, 67, 0
2, 99294, Note_on_c, 0, 55, 120
2, 99294, Note_on_c, 0, 62, 120
2, 99486, Note_on_c, 0, 67, 120
2, 99648, Note_on_c, 0, 69, 120
2, 99666, Note_on_c, 0, 67, 0
2, 99678, Note_on_c, 0, 62, 0
2, 99684, Note_on_c, 0, 55, 0
2, 99690, Note_on_c, 0, 59, 0
2, 99828, Note_on_c, 0, 71, 120
2, 99828, Note_on_c, 0, 55, 120
2, 99846, Note_on_c, 0, 69, 0
2, 99996, Note_on_c, 0, 55, 0
2, 99996, Note_on_c, 0, 57, 120
2, 100008, Note_on_c, 0, 72, 120
2, 100014, Note_on_c, 0, 71, 0
2, 100170, Note_on_c, 0, 72, 0
2, 100170, Note_on_c, 0, 74, 120
2, 100176, Note_on_c, 0, 59, 120
2, 100182, Note_on_c, 0, 57, 0
2, 100344, Note_on_c, 0, 74, 0
2, 100356, Note_on_c, 0, 59, 0
2, 100356, Note_on_c, 0, 60, 120
2, 100362, Note_on_c, 0, 76, 120
2, 100452, Note_on_c, 0, 76, 0
2, 100488, Note_on_c, 0, 60, 0
2, 100536, Note_on_c, 0, 71, 120
2, 100536, Note_on_c, 0, 62, 120
2, 100710, Note_on_c, 0, 64, 120
2, 100716, Note_on_c, 0, 72, 120
2, 100722, Note_on_c, 0, 62, 0
2, 100728, Note_on_c, 0, 71, 0
2, 100884, Note_on_c, 0, 72, 0
2, 100884, Note_on_c, 0, 74, 120
2, 100890, Note_on_c, 0, 66, 120
2, 100896, Note_on_c, 0, 64, 0
2, 101040, Note_on_c, 0, 74, 0
2, 101052, Note_on_c, 0, 67, 120
2, 101058, Note_on_c, 0, 76, 120
2, 101064, Note_on_c, 0, 66, 0
2, 101183, Note_on_c, 0, 76, 0
2, 101244, Note_on_c, 0, 69, 120
2, 101250, Note_on_c, 0, 78, 120
2, 101256, Note_on_c, 0, 67, 0
2, 101359, Note_on_c, 0, 69, 0
2, 101407, Note_on_c, 0, 78, 0
2, 101436, Note_on_c, 0, 79, 120
2, 101436, Note_on_c, 0, 71, 120
2, 101436, Note_on_c, 0, 43, 120
2, 102174, Note_on_c, 0, 43, 0
2, 102336, Note_on_c, 0, 79, 0
2, 102360, Note_on_c, 0, 71, 0
2, 102474, Note_on_c, 0, 62, 120
2, 102744, Note_on_c, 0, 76, 120
2, 102918, Note_on_c, 0, 74, 120
2, 102942, Note_on_c, 0, 76, 0
2, 103074, Note_on_c, 0, 72, 120
2, 103086, Note_on_c, 0, 74, 0
2, 103248, Note_on_c, 0, 72, 0
2, 103248, Note_on_c, 0, 71, 120
2, 103416, Note_on_c, 0, 69, 120
2, 103422, Note_on_c, 0, 71, 0
2, 103535, Note_on_c, 0, 69, 0
2, 103614, Note_on_c, 0, 64, 120
2, 103614, Note_on_c, 0, 67, 120
2, 103638, Note_on_c, 0, 62, 0
2, 103794, Note_on_c, 0, 71, 120
2, 103800, Note_on_c, 0, 67, 0
2, 103974, Note_on_c, 0, 69, 120
2, 103974, Note_on_c, 0, 60, 120
2, 103986, Note_on_c, 0, 71, 0
2, 104148, Note_on_c, 0, 69, 0
2, 104148, Note_on_c, 0, 67, 120
2, 104148, Note_on_c, 0, 59, 120
2, 104160, Note_on_c, 0, 60, 0
2, 104322, Note_on_c, 0, 67, 0
2, 104340, Note_on_c, 0, 57, 120
2, 104340, Note_on_c, 0, 72, 120
2, 104346, Note_on_c, 0, 59, 0
2, 104508, Note_on_c, 0, 55, 120
2, 104514, Note_on_c, 0, 57, 0
2, 104634, Note_on_c, 0, 64, 0
2, 104688, Note_on_c, 0, 62, 120
2, 104694, Note_on_c, 0, 72, 0
2, 104694, Note_on_c, 0, 54, 120
2, 104706, Note_on_c, 0, 55, 0
2, 104874, Note_on_c, 0, 72, 120
2, 105048, Note_on_c, 0, 71, 120
2, 105060, Note_on_c, 0, 54, 0
2, 105060, Note_on_c, 0, 72, 0
2, 105060, Note_on_c, 0, 50, 120
2, 105228, Note_on_c, 0, 71, 0
2, 105228, Note_on_c, 0, 69, 120
2, 105390, Note_on_c, 0, 50, 0
2, 105414, Note_on_c, 0, 69, 0
2, 105420, Note_on_c, 0, 54, 120
2, 105420, Note_on_c, 0, 74, 120
2, 105600, Note_on_c, 0, 60, 120
2, 105606, Note_on_c, 0, 62, 0
2, 105612, Note_on_c, 0, 54, 0
2, 105792, Note_on_c, 0, 59, 120
2, 105792, Note_on_c, 0, 55, 120
2, 105798, Note_on_c, 0, 60, 0
2, 105978, Note_on_c, 0, 72, 120
2, 106002, Note_on_c, 0, 74, 0
2, 106182, Note_on_c, 0, 71, 120
2, 106194, Note_on_c, 0, 72, 0
2, 106254, Note_on_c, 0, 55, 0
2, 106344, Note_on_c, 0, 71, 0
2, 106344, Note_on_c, 0, 69, 120
2, 106530, Note_on_c, 0, 51, 120
2, 106530, Note_on_c, 0, 71, 120
2, 106548, Note_on_c, 0, 69, 0
2, 106596, Note_on_c, 0, 59, 0
2, 106716, Note_on_c, 0, 57, 120
2, 106806, Note_on_c, 0, 51, 0
2, 106842, Note_on_c, 0, 57, 0
2, 106908, Note_on_c, 0, 55, 120
2, 106914, Note_on_c, 0, 52, 120
2, 107076, Note_on_c, 0, 69, 120
2, 107094, Note_on_c, 0, 71, 0
2, 107250, Note_on_c, 0, 67, 120
2, 107268, Note_on_c, 0, 69, 0
2, 107412, Note_on_c, 0, 67, 0
2, 107412, Note_on_c, 0, 66, 120
2, 107418, Note_on_c, 0, 52, 0
2, 107586, Note_on_c, 0, 47, 120
2, 107586, Note_on_c, 0, 67, 120
2, 107592, Note_on_c, 0, 66, 0
2, 107640, Note_on_c, 0, 55, 0
2, 107766, Note_on_c, 0, 57, 120
2, 107874, Note_on_c, 0, 57, 0
2, 107958, Note_on_c, 0, 47, 0
2, 107976, Note_on_c, 0, 59, 120
2, 107976, Note_on_c, 0, 49, 120
2, 108156, Note_on_c, 0, 66, 120
2, 108168, Note_on_c, 0, 67, 0
2, 108336, Note_on_c, 0, 67, 120
2, 108348, Note_on_c, 0, 66, 0
2, 108522, Note_on_c, 0, 69, 120
2, 108528, Note_on_c, 0, 67, 0
2, 108690, Note_on_c, 0, 71, 120
2, 108696, Note_on_c, 0, 69, 0
2, 108864, Note_on_c, 0, 67, 120
2, 108870, Note_on_c, 0, 71, 0
2, 108894, Note_on_c, 0, 59, 0
2, 109038, Note_on_c, 0, 67, 0
2, 109038, Note_on_c, 0, 72, 120
2, 109044, Note_on_c, 0, 49, 0
2, 109044, Note_on_c, 0, 51, 120
2, 109044, Note_on_c, 0, 57, 120
2, 109218, Note_on_c, 0, 71, 120
2, 109236, Note_on_c, 0, 72, 0
2, 109392, Note_on_c, 0, 72, 120
2, 109404, Note_on_c, 0, 71, 0
2, 109566, Note_on_c, 0, 66, 120
2, 109572, Note_on_c, 0, 72, 0
2, 109740, Note_on_c, 0, 69, 120
2, 109746, Note_on_c, 0, 66, 0
2, 109896, Note_on_c, 0, 72, 120
2, 109902, Note_on_c, 0, 51, 0
2, 109902, Note_on_c, 0, 69, 0
2, 110082, Note_on_c, 0, 71, 120
2, 110082, Note_on_c, 0, 55, 120
2, 110088, Note_on_c, 0, 52, 120
2, 110094, Note_on_c, 0, 57, 0
2, 110106, Note_on_c, 0, 72, 0
2, 110280, Note_on_c, 0, 69, 120
2, 110286, Note_on_c, 0, 71, 0
2, 110448, Note_on_c, 0, 71, 120
2, 110454, Note_on_c, 0, 69, 0
2, 110610, Note_on_c, 0, 71, 0
2, 110616, Note_on_c, 0, 64, 120
2, 110790, Note_on_c, 0, 66, 120
2, 110814, Note_on_c, 0, 64, 0
2, 110964, Note_on_c, 0, 67, 120
2, 110970, Note_on_c, 0, 66, 0
2, 111144, Note_on_c, 0, 67, 0
2, 111144, Note_on_c, 0, 69, 120
2, 111144, Note_on_c, 0, 54, 120
2, 111150, Note_on_c, 0, 55, 0
2, 111318, Note_on_c, 0, 69, 0
2, 111318, Note_on_c, 0, 67, 120
2, 111432, Note_on_c, 0, 67, 0
2, 111516, Note_on_c, 0, 51, 120
2, 111516, Note_on_c, 0, 69, 120
2, 111534, Note_on_c, 0, 52, 0
2, 111696, Note_on_c, 0, 72, 120
2, 111702, Note_on_c, 0, 69, 0
2, 111876, Note_on_c, 0, 72, 0
2, 111876, Note_on_c, 0, 71, 120
2, 112050, Note_on_c, 0, 71, 0
2, 112050, Note_on_c, 0, 69, 120
2, 112164, Note_on_c, 0, 69, 0
2, 112242, Note_on_c, 0, 67, 120
2, 112248, Note_on_c, 0, 52, 120
2, 112254, Note_on_c, 0, 54, 0
2, 112254, Note_on_c, 0, 51, 0
2, 112434, Note_on_c, 0, 67, 0
2, 112440, Note_on_c, 0, 66, 120
2, 112620, Note_on_c, 0, 64, 120
2, 112620, Note_on_c, 0, 40, 120
2, 112626, Note_on_c, 0, 66, 0
2, 112728, Note_on_c, 0, 64, 0
2, 112812, Note_on_c, 0, 67, 120
2, 112980, Note_on_c, 0, 67, 0
2, 112986, Note_on_c, 0, 66, 120
2, 113160, Note_on_c, 0, 66, 0
2, 113160, Note_on_c, 0, 64, 120
2, 113184, Note_on_c, 0, 52, 0
2, 113184, Note_on_c, 0, 40, 0
2, 113322, Note_on_c, 0, 64, 0
2, 113346, Note_on_c, 0, 66, 120
2, 113346, Note_on_c, 0, 69, 120
2, 113544, Note_on_c, 0, 64, 120
2, 113718, Note_on_c, 0, 62, 120
2, 113742, Note_on_c, 0, 64, 0
2, 113892, Note_on_c, 0, 60, 120
2, 113916, Note_on_c, 0, 62, 0
2, 114066, Note_on_c, 0, 59, 120
2, 114072, Note_on_c, 0, 60, 0
2, 114240, Note_on_c, 0, 59, 0
2, 114240, Note_on_c, 0, 57, 120
2, 114258, Note_on_c, 0, 69, 0
2, 114264, Note_on_c, 0, 66, 0
2, 114390, Note_on_c, 0, 57, 0
2, 114438, Note_on_c, 0, 71, 120
2, 114444, Note_on_c, 0, 55, 120
2, 114624, Note_on_c, 0, 54, 120
2, 114726, Note_on_c, 0, 55, 0
2, 114810, Note_on_c, 0, 52, 120
2, 114816, Note_on_c, 0, 67, 120
2, 114828, Note_on_c, 0, 54, 0
2, 114984, Note_on_c, 0, 50, 120
2, 114990, Note_on_c, 0, 67, 0
2, 114990, Note_on_c, 0, 66, 120
2, 114996, Note_on_c, 0, 52, 0
2, 115170, Note_on_c, 0, 55, 120
2, 115176, Note_on_c, 0, 50, 0
2, 115176, Note_on_c, 0, 66, 0
2, 115176, Note_on_c, 0, 64, 120
2, 115344, Note_on_c, 0, 62, 120
2, 115368, Note_on_c, 0, 64, 0
2, 115380, Note_on_c, 0, 71, 0
2, 115487, Note_on_c, 0, 62, 0
2, 115512, Note_on_c, 0, 61, 120
2, 115518, Note_on_c, 0, 69, 120
2, 115524, Note_on_c, 0, 55, 0
2, 115704, Note_on_c, 0, 55, 120
2, 115842, Note_on_c, 0, 61, 0
2, 115878, Note_on_c, 0, 55, 0
2, 115878, Note_on_c, 0, 57, 120
2, 115884, Note_on_c, 0, 54, 120
2, 116058, Note_on_c, 0, 54, 0
2, 116058, Note_on_c, 0, 52, 120
2, 116082, Note_on_c, 0, 57, 0
2, 116244, Note_on_c, 0, 61, 120
2, 116244, Note_on_c, 0, 57, 120
2, 116250, Note_on_c, 0, 52, 0
2, 116424, Note_on_c, 0, 67, 120
2, 116436, Note_on_c, 0, 69, 0
2, 116610, Note_on_c, 0, 67, 0
2, 116610, Note_on_c, 0, 66, 120
2, 116610, Note_on_c, 0, 62, 120
2, 116628, Note_on_c, 0, 61, 0
2, 116796, Note_on_c, 0, 55, 120
2, 116820, Note_on_c, 0, 57, 0
2, 116982, Note_on_c, 0, 54, 120
2, 116994, Note_on_c, 0, 55, 0
2, 117150, Note_on_c, 0, 52, 120
2, 117156, Note_on_c, 0, 54, 0
2, 117192, Note_on_c, 0, 62, 0
2, 117252, Note_on_c, 0, 52, 0
2, 117336, Note_on_c, 0, 54, 120
2, 117336, Note_on_c, 0, 58, 120
2, 117510, Note_on_c, 0, 64, 120
2, 117528, Note_on_c, 0, 58, 0
2, 117534, Note_on_c, 0, 66, 0
2, 117690, Note_on_c, 0, 64, 0
2, 117708, Note_on_c, 0, 62, 120
2, 117708, Note_on_c, 0, 59, 120
2, 117876, Note_on_c, 0, 54, 0
2, 117876, Note_on_c, 0, 52, 120
2, 118056, Note_on_c, 0, 50, 120
2, 118068, Note_on_c, 0, 52, 0
2, 118236, Note_on_c, 0, 49, 120
2, 118248, Note_on_c, 0, 50, 0
2, 118416, Note_on_c, 0, 54, 120
2, 118422, Note_on_c, 0, 49, 0
2, 118422, Note_on_c, 0, 50, 120
2, 118446, Note_on_c, 0, 59, 0
2, 118584, Note_on_c, 0, 64, 120
2, 118596, Note_on_c, 0, 62, 0
2, 118668, Note_on_c, 0, 54, 0
2, 118758, Note_on_c, 0, 56, 120
2, 118764, Note_on_c, 0, 66, 120
2, 118770, Note_on_c, 0, 64, 0
2, 118938, Note_on_c, 0, 49, 120
2, 118950, Note_on_c, 0, 50, 0
2, 119106, Note_on_c, 0, 49, 0
2, 119106, Note_on_c, 0, 50, 120
2, 119274, Note_on_c, 0, 50, 0
2, 119274, Note_on_c, 0, 52, 120
2, 119448, Note_on_c, 0, 54, 120
2, 119466, Note_on_c, 0, 52, 0
2, 119622, Note_on_c, 0, 54, 0
2, 119622, Note_on_c, 0, 50, 120
2, 119658, Note_on_c, 0, 56, 0
2, 119802, Note_on_c, 0, 50, 0
2, 119807, Note_on_c, 0, 66, 0
2, 119808, Note_on_c, 0, 64, 120
2, 119808, Note_on_c, 0, 58, 120
2, 119808, Note_on_c, 0, 55, 120
2, 120012, Note_on_c, 0, 54, 120
2, 120030, Note_on_c, 0, 55, 0
2, 120186, Note_on_c, 0, 55, 120
2, 120204, Note_on_c, 0, 54, 0
2, 120294, Note_on_c, 0, 55, 0
2, 120360, Note_on_c, 0, 49, 120
2, 120528, Note_on_c, 0, 52, 120
2, 120534, Note_on_c, 0, 49, 0
2, 120708, Note_on_c, 0, 52, 0
2, 120708, Note_on_c, 0, 55, 120
2, 120888, Note_on_c, 0, 64, 0
2, 120894, Note_on_c, 0, 62, 120
2, 120900, Note_on_c, 0, 58, 0
2, 120900, Note_on_c, 0, 54, 120
2, 120900, Note_on_c, 0, 59, 120
2, 120912, Note_on_c, 0, 55, 0
2, 121092, Note_on_c, 0, 52, 120
2, 121104, Note_on_c, 0, 54, 0
2, 121260, Note_on_c, 0, 52, 0
2, 121266, Note_on_c, 0, 54, 120
2, 121362, Note_on_c, 0, 54, 0
2, 121440, Note_on_c, 0, 47, 120
2, 121608, Note_on_c, 0, 49, 120
2, 121614, Note_on_c, 0, 47, 0
2, 121782, Note_on_c, 0, 49, 0
2, 121788, Note_on_c, 0, 50, 120
2, 121974, Note_on_c, 0, 61, 120
2, 121980, Note_on_c, 0, 52, 120
2, 121992, Note_on_c, 0, 50, 0
2, 121998, Note_on_c, 0, 62, 0
2, 122166, Note_on_c, 0, 50, 120
2, 122172, Note_on_c, 0, 52, 0
2, 122358, Note_on_c, 0, 50, 0
2, 122358, Note_on_c, 0, 58, 120
2, 122358, Note_on_c, 0, 52, 120
2, 122376, Note_on_c, 0, 59, 0
2, 122526, Note_on_c, 0, 55, 120
2, 122538, Note_on_c, 0, 52, 0
2, 122712, Note_on_c, 0, 54, 120
2, 122730, Note_on_c, 0, 55, 0
2, 122892, Note_on_c, 0, 54, 0
2, 122898, Note_on_c, 0, 52, 120
2, 123078, Note_on_c, 0, 61, 0
2, 123084, Note_on_c, 0, 59, 120
2, 123084, Note_on_c, 0, 50, 120
2, 123090, Note_on_c, 0, 58, 0
2, 123096, Note_on_c, 0, 52, 0
2, 123264, Note_on_c, 0, 49, 120
2, 123282, Note_on_c, 0, 50, 0
2, 123450, Note_on_c, 0, 49, 0
2, 123456, Note_on_c, 0, 47, 120
2, 123456, Note_on_c, 0, 66, 120
2, 123606, Note_on_c, 0, 59, 0
2, 123636, Note_on_c, 0, 50, 120
2, 123642, Note_on_c, 0, 47, 0
2, 123804, Note_on_c, 0, 71, 120
2, 123816, Note_on_c, 0, 49, 120
2, 123822, Note_on_c, 0, 50, 0
2, 123972, Note_on_c, 0, 49, 0
2, 123978, Note_on_c, 0, 47, 120
2, 124158, Note_on_c, 0, 66, 0
2, 124164, Note_on_c, 0, 54, 120
2, 124170, Note_on_c, 0, 47, 0
2, 124332, Note_on_c, 0, 67, 120
2, 124494, Note_on_c, 0, 71, 0
2, 124506, Note_on_c, 0, 70, 120
2, 124506, Note_on_c, 0, 66, 120
2, 124512, Note_on_c, 0, 67, 0
2, 124680, Note_on_c, 0, 64, 120
2, 124686, Note_on_c, 0, 66, 0
2, 124836, Note_on_c, 0, 64, 0
2, 124854, Note_on_c, 0, 62, 120
2, 125010, Note_on_c, 0, 61, 120
2, 125034, Note_on_c, 0, 54, 0
2, 125034, Note_on_c, 0, 62, 0
2, 125196, Note_on_c, 0, 61, 0
2, 125208, Note_on_c, 0, 59, 120
2, 125208, Note_on_c, 0, 55, 120
2, 125340, Note_on_c, 0, 70, 0
2, 125406, Note_on_c, 0, 59, 0
2, 125406, Note_on_c, 0, 62, 120
2, 125580, Note_on_c, 0, 61, 120
2, 125586, Note_on_c, 0, 62, 0
2, 125586, Note_on_c, 0, 76, 120
2, 125748, Note_on_c, 0, 61, 0
2, 125754, Note_on_c, 0, 59, 120
2, 125754, Note_on_c, 0, 74, 120
2, 125778, Note_on_c, 0, 76, 0
2, 125928, Note_on_c, 0, 59, 0
2, 125928, Note_on_c, 0, 74, 0
2, 125934, Note_on_c, 0, 64, 120
2, 125940, Note_on_c, 0, 73, 120
2, 126096, Note_on_c, 0, 55, 0
2, 126096, Note_on_c, 0, 73, 0
2, 126102, Note_on_c, 0, 71, 120
2, 126246, Note_on_c, 0, 71, 0
2, 126276, Note_on_c, 0, 70, 120
2, 126282, Note_on_c, 0, 54, 120
2, 126294, Note_on_c, 0, 64, 0
2, 126480, Note_on_c, 0, 64, 120
2, 126594, Note_on_c, 0, 70, 0
2, 126654, Note_on_c, 0, 64, 0
2, 126654, Note_on_c, 0, 66, 120
2, 126660, Note_on_c, 0, 62, 120
2, 126828, Note_on_c, 0, 62, 0
2, 126828, Note_on_c, 0, 61, 120
2, 126882, Note_on_c, 0, 66, 0
2, 126936, Note_on_c, 0, 61, 0
2, 127008, Note_on_c, 0, 66, 120
2, 127008, Note_on_c, 0, 70, 120
2, 127128, Note_on_c, 0, 54, 0
2, 127188, Note_on_c, 0, 54, 120
2, 127242, Note_on_c, 0, 70, 0
2, 127327, Note_on_c, 0, 54, 0
2, 127386, Note_on_c, 0, 71, 120
2, 127392, Note_on_c, 0, 52, 120
2, 127446, Note_on_c, 0, 66, 0
2, 127584, Note_on_c, 0, 64, 120
2, 127680, Note_on_c, 0, 64, 0
2, 127764, Note_on_c, 0, 62, 120
2, 127878, Note_on_c, 0, 62, 0
2, 127914, Note_on_c, 0, 61, 120
2, 128031, Note_on_c, 0, 71, 0
2, 128082, Note_on_c, 0, 61, 0
2, 128094, Note_on_c, 0, 62, 120
2, 128100, Note_on_c, 0, 66, 120
2, 128268, Note_on_c, 0, 50, 120
2, 128286, Note_on_c, 0, 52, 0
2, 128383, Note_on_c, 0, 66, 0
2, 128431, Note_on_c, 0, 50, 0
2, 128466, Note_on_c, 0, 67, 120
2, 128466, Note_on_c, 0, 47, 120
2, 128544, Note_on_c, 0, 62, 0
2, 128646, Note_on_c, 0, 60, 120
2, 128814, Note_on_c, 0, 59, 120
2, 128820, Note_on_c, 0, 60, 0
2, 128910, Note_on_c, 0, 59, 0
2, 128976, Note_on_c, 0, 57, 120
2, 129135, Note_on_c, 0, 57, 0
2, 129156, Note_on_c, 0, 67, 0
2, 129156, Note_on_c, 0, 59, 120
2, 129162, Note_on_c, 0, 62, 120
2, 129330, Note_on_c, 0, 62, 0
2, 129330, Note_on_c, 0, 64, 120
2, 129330, Note_on_c, 0, 49, 120
2, 129348, Note_on_c, 0, 47, 0
2, 129504, Note_on_c, 0, 64, 0
2, 129510, Note_on_c, 0, 49, 0
2, 129510, Note_on_c, 0, 65, 120
2, 129510, Note_on_c, 0, 50, 120
2, 129684, Note_on_c, 0, 56, 120
2, 129708, Note_on_c, 0, 59, 0
2, 129858, Note_on_c, 0, 56, 0
2, 129858, Note_on_c, 0, 57, 120
2, 130032, Note_on_c, 0, 59, 120
2, 130044, Note_on_c, 0, 57, 0
2, 130200, Note_on_c, 0, 60, 120
2, 130206, Note_on_c, 0, 59, 0
2, 130374, Note_on_c, 0, 60, 0
2, 130380, Note_on_c, 0, 62, 120
2, 130476, Note_on_c, 0, 65, 0
2, 130500, Note_on_c, 0, 62, 0
2, 130524, Note_on_c, 0, 50, 0
2, 130554, Note_on_c, 0, 63, 120
2, 130554, Note_on_c, 0, 66, 120
2, 130560, Note_on_c, 0, 48, 120
2, 130740, Note_on_c, 0, 63, 0
2, 130740, Note_on_c, 0, 62, 120
2, 130914, Note_on_c, 0, 63, 120
2, 130926, Note_on_c, 0, 62, 0
2, 131082, Note_on_c, 0, 63, 0
2, 131094, Note_on_c, 0, 57, 120
2, 131262, Note_on_c, 0, 57, 0
2, 131274, Note_on_c, 0, 60, 120
2, 131430, Note_on_c, 0, 63, 120
2, 131436, Note_on_c, 0, 60, 0
2, 131490, Note_on_c, 0, 66, 0
2, 131551, Note_on_c, 0, 63, 0
2, 131616, Note_on_c, 0, 62, 120
2, 131616, Note_on_c, 0, 67, 120
2, 131628, Note_on_c, 0, 48, 0
2, 131628, Note_on_c, 0, 47, 120
2, 131826, Note_on_c, 0, 62, 0
2, 131826, Note_on_c, 0, 60, 120
2, 132000, Note_on_c, 0, 62, 120
2, 132018, Note_on_c, 0, 60, 0
2, 132111, Note_on_c, 0, 62, 0
2, 132174, Note_on_c, 0, 55, 120
2, 132300, Note_on_c, 0, 55, 0
2, 132354, Note_on_c, 0, 57, 120
2, 132450, Note_on_c, 0, 57, 0
2, 132528, Note_on_c, 0, 59, 120
2, 132636, Note_on_c, 0, 59, 0
2, 132720, Note_on_c, 0, 45, 120
2, 132720, Note_on_c, 0, 60, 120
2, 132732, Note_on_c, 0, 47, 0
2, 132906, Note_on_c, 0, 59, 120
2, 132912, Note_on_c, 0, 60, 0
2, 133039, Note_on_c, 0, 59, 0
2, 133098, Note_on_c, 0, 66, 120
2, 133098, Note_on_c, 0, 60, 120
2, 133110, Note_on_c, 0, 67, 0
2, 133284, Note_on_c, 0, 60, 0
2, 133284, Note_on_c, 0, 64, 120
2, 133452, Note_on_c, 0, 64, 0
2, 133458, Note_on_c, 0, 62, 120
2, 133626, Note_on_c, 0, 62, 0
2, 133626, Note_on_c, 0, 60, 120
2, 133656, Note_on_c, 0, 45, 0
2, 133704, Note_on_c, 0, 60, 0
2, 133836, Note_on_c, 0, 59, 120
2, 133842, Note_on_c, 0, 67, 120
2, 133848, Note_on_c, 0, 43, 120
2, 133854, Note_on_c, 0, 66, 0
2, 134046, Note_on_c, 0, 60, 120
2, 134058, Note_on_c, 0, 59, 0
2, 134220, Note_on_c, 0, 43, 0
2, 134220, Note_on_c, 0, 60, 0
2, 134220, Note_on_c, 0, 59, 120
2, 134376, Note_on_c, 0, 59, 0
2, 134394, Note_on_c, 0, 66, 120
2, 134400, Note_on_c, 0, 67, 0
2, 134400, Note_on_c, 0, 57, 120
2, 134568, Note_on_c, 0, 55, 120
2, 134574, Note_on_c, 0, 67, 120
2, 134580, Note_on_c, 0, 66, 0
2, 134580, Note_on_c, 0, 57, 0
2, 134748, Note_on_c, 0, 54, 120
2, 134754, Note_on_c, 0, 69, 120
2, 134760, Note_on_c, 0, 55, 0
2, 134760, Note_on_c, 0, 67, 0
2, 134879, Note_on_c, 0, 69, 0
2, 134952, Note_on_c, 0, 54, 0
2, 134958, Note_on_c, 0, 71, 120
2, 134958, Note_on_c, 0, 55, 120
2, 134958, Note_on_c, 0, 74, 120
2, 135150, Note_on_c, 0, 57, 120
2, 135156, Note_on_c, 0, 55, 0
2, 135330, Note_on_c, 0, 55, 120
2, 135342, Note_on_c, 0, 57, 0
2, 135504, Note_on_c, 0, 53, 120
2, 135510, Note_on_c, 0, 55, 0
2, 135684, Note_on_c, 0, 53, 0
2, 135690, Note_on_c, 0, 52, 120
2, 135858, Note_on_c, 0, 50, 120
2, 135876, Note_on_c, 0, 52, 0
2, 136050, Note_on_c, 0, 71, 0
2, 136050, Note_on_c, 0, 76, 120
2, 136050, Note_on_c, 0, 48, 120
2, 136056, Note_on_c, 0, 74, 0
2, 136056, Note_on_c, 0, 50, 0
2, 136230, Note_on_c, 0, 48, 0
2, 136242, Note_on_c, 0, 71, 120
2, 136416, Note_on_c, 0, 60, 120
2, 136416, Note_on_c, 0, 69, 120
2, 136422, Note_on_c, 0, 71, 0
2, 136596, Note_on_c, 0, 59, 120
2, 136602, Note_on_c, 0, 67, 120
2, 136614, Note_on_c, 0, 69, 0
2, 136620, Note_on_c, 0, 60, 0
2, 136692, Note_on_c, 0, 67, 0
2, 136782, Note_on_c, 0, 57, 120
2, 136782, Note_on_c, 0, 72, 120
2, 136806, Note_on_c, 0, 59, 0
2, 136962, Note_on_c, 0, 72, 0
2, 136962, Note_on_c, 0, 55, 120
2, 136968, Note_on_c, 0, 71, 120
2, 136992, Note_on_c, 0, 57, 0
2, 137148, Note_on_c, 0, 74, 120
2, 137148, Note_on_c, 0, 69, 120
2, 137148, Note_on_c, 0, 54, 120
2, 137154, Note_on_c, 0, 76, 0
2, 137154, Note_on_c, 0, 55, 0
2, 137154, Note_on_c, 0, 71, 0
2, 137334, Note_on_c, 0, 60, 120
2, 137454, Note_on_c, 0, 54, 0
2, 137490, Note_on_c, 0, 60, 0
2, 137520, Note_on_c, 0, 59, 120
2, 137520, Note_on_c, 0, 50, 120
2, 137682, Note_on_c, 0, 57, 120
2, 137688, Note_on_c, 0, 50, 0
2, 137700, Note_on_c, 0, 59, 0
2, 137856, Note_on_c, 0, 57, 0
2, 137874, Note_on_c, 0, 62, 120
2, 137880, Note_on_c, 0, 54, 120
2, 138054, Note_on_c, 0, 72, 120
2, 138066, Note_on_c, 0, 69, 0
2, 138072, Note_on_c, 0, 74, 0
2, 138084, Note_on_c, 0, 54, 0
2, 138240, Note_on_c, 0, 71, 120
2, 138240, Note_on_c, 0, 55, 120
2, 138258, Note_on_c, 0, 72, 0
2, 138420, Note_on_c, 0, 60, 120
2, 138426, Note_on_c, 0, 62, 0
2, 138588, Note_on_c, 0, 59, 120
2, 138600, Note_on_c, 0, 67, 120
2, 138612, Note_on_c, 0, 55, 0
2, 138612, Note_on_c, 0, 60, 0
2, 138780, Note_on_c, 0, 57, 120
2, 138786, Note_on_c, 0, 59, 0
2, 138927, Note_on_c, 0, 57, 0
2, 138960, Note_on_c, 0, 67, 0
2, 138972, Note_on_c, 0, 59, 120
2, 138972, Note_on_c, 0, 51, 120
2, 138978, Note_on_c, 0, 66, 120
2, 139146, Note_on_c, 0, 69, 120
2, 139158, Note_on_c, 0, 51, 0
2, 139164, Note_on_c, 0, 71, 0
2, 139290, Note_on_c, 0, 69, 0
2, 139326, Note_on_c, 0, 52, 120
2, 139338, Note_on_c, 0, 67, 120
2, 139410, Note_on_c, 0, 59, 0
2, 139440, Note_on_c, 0, 66, 0
2, 139506, Note_on_c, 0, 57, 120
2, 139680, Note_on_c, 0, 55, 120
2, 139680, Note_on_c, 0, 64, 120
2, 139692, Note_on_c, 0, 57, 0
2, 139842, Note_on_c, 0, 54, 120
2, 139854, Note_on_c, 0, 55, 0
2, 139872, Note_on_c, 0, 52, 0
2, 139983, Note_on_c, 0, 54, 0
2, 140022, Note_on_c, 0, 64, 0
2, 140034, Note_on_c, 0, 63, 120
2, 140034, Note_on_c, 0, 55, 120
2, 140040, Note_on_c, 0, 47, 120
2, 140208, Note_on_c, 0, 69, 120
2, 140214, Note_on_c, 0, 47, 0
2, 140220, Note_on_c, 0, 67, 0
2, 140367, Note_on_c, 0, 69, 0
2, 140382, Note_on_c, 0, 71, 120
2, 140382, Note_on_c, 0, 64, 120
2, 140388, Note_on_c, 0, 49, 120
2, 140400, Note_on_c, 0, 63, 0
2, 140562, Note_on_c, 0, 55, 0
2, 140562, Note_on_c, 0, 54, 120
2, 140736, Note_on_c, 0, 55, 120
2, 140767, Note_on_c, 0, 54, 0
2, 140904, Note_on_c, 0, 57, 120
2, 140928, Note_on_c, 0, 55, 0
2, 141024, Note_on_c, 0, 57, 0
2, 141084, Note_on_c, 0, 59, 120
2, 141264, Note_on_c, 0, 55, 120
2, 141282, Note_on_c, 0, 59, 0
2, 141414, Note_on_c, 0, 49, 0
2, 141456, Note_on_c, 0, 64, 0
2, 141456, Note_on_c, 0, 55, 0
2, 141462, Note_on_c, 0, 66, 120
2, 141462, Note_on_c, 0, 69, 120
2, 141462, Note_on_c, 0, 60, 120
2, 141462, Note_on_c, 0, 51, 120
2, 141468, Note_on_c, 0, 71, 0
2, 141666, Note_on_c, 0, 60, 0
2, 141678, Note_on_c, 0, 59, 120
2, 141834, Note_on_c, 0, 60, 120
2, 141846, Note_on_c, 0, 59, 0
2, 142002, Note_on_c, 0, 54, 120
2, 142014, Note_on_c, 0, 60, 0
2, 142182, Note_on_c, 0, 54, 0
2, 142182, Note_on_c, 0, 57, 120
2, 142362, Note_on_c, 0, 60, 120
2, 142398, Note_on_c, 0, 57, 0
2, 142422, Note_on_c, 0, 51, 0
2, 142440, Note_on_c, 0, 60, 0
2, 142542, Note_on_c, 0, 67, 120
2, 142542, Note_on_c, 0, 59, 120
2, 142548, Note_on_c, 0, 52, 120
2, 142560, Note_on_c, 0, 69, 0
2, 142716, Note_on_c, 0, 57, 120
2, 142722, Note_on_c, 0, 59, 0
2, 142728, Note_on_c, 0, 66, 0
2, 142896, Note_on_c, 0, 64, 120
2, 142908, Note_on_c, 0, 57, 0
2, 142914, Note_on_c, 0, 59, 120
2, 142950, Note_on_c, 0, 52, 0
2, 143082, Note_on_c, 0, 52, 120
2, 143088, Note_on_c, 0, 59, 0
2, 143256, Note_on_c, 0, 54, 120
2, 143262, Note_on_c, 0, 62, 120
2, 143268, Note_on_c, 0, 64, 0
2, 143442, Note_on_c, 0, 54, 0
2, 143442, Note_on_c, 0, 55, 120
2, 143604, Note_on_c, 0, 62, 0
2, 143622, Note_on_c, 0, 66, 120
2, 143622, Note_on_c, 0, 60, 120
2, 143628, Note_on_c, 0, 55, 0
2, 143634, Note_on_c, 0, 67, 0
2, 143634, Note_on_c, 0, 57, 120
2, 143796, Note_on_c, 0, 56, 120
2, 143802, Note_on_c, 0, 57, 0
2, 143946, Note_on_c, 0, 60, 0
2, 143988, Note_on_c, 0, 52, 0
2, 143988, Note_on_c, 0, 56, 0
2, 143988, Note_on_c, 0, 57, 120
2, 143994, Note_on_c, 0, 51, 120
2, 144162, Note_on_c, 0, 60, 120
2, 144186, Note_on_c, 0, 51, 0
2, 144348, Note_on_c, 0, 59, 120
2, 144354, Note_on_c, 0, 50, 120
2, 144360, Note_on_c, 0, 60, 0
2, 144366, Note_on_c, 0, 57, 0
2, 144534, Note_on_c, 0, 57, 120
2, 144714, Note_on_c, 0, 66, 0
2, 144714, Note_on_c, 0, 57, 0
2, 144720, Note_on_c, 0, 56, 120
2, 144720, Note_on_c, 0, 64, 120
2, 144762, Note_on_c, 0, 50, 0
2, 144876, Note_on_c, 0, 48, 120
2, 145056, Note_on_c, 0, 48, 0
2, 145062, Note_on_c, 0, 50, 120
2, 145212, Note_on_c, 0, 50, 0
2, 145230, Note_on_c, 0, 44, 120
2, 145386, Note_on_c, 0, 44, 0
2, 145392, Note_on_c, 0, 45, 120
2, 145590, Note_on_c, 0, 47, 120
2, 145608, Note_on_c, 0, 45, 0
2, 145758, Note_on_c, 0, 47, 0
2, 145758, Note_on_c, 0, 48, 120
2, 145770, Note_on_c, 0, 59, 0
2, 145800, Note_on_c, 0, 56, 0
2, 145950, Note_on_c, 0, 60, 120
2, 145956, Note_on_c, 0, 54, 120
2, 146142, Note_on_c, 0, 62, 120
2, 146148, Note_on_c, 0, 60, 0
2, 146148, Note_on_c, 0, 52, 120
2, 146154, Note_on_c, 0, 54, 0
2, 146304, Note_on_c, 0, 52, 0
2, 146320, Note_on_c, 0, 59, 120
2, 146322, Note_on_c, 0, 55, 120
2, 146328, Note_on_c, 0, 62, 0
2, 146465, Note_on_c, 0, 59, 0
2, 146508, Note_on_c, 0, 54, 120
2, 146512, Note_on_c, 0, 60, 120
2, 146526, Note_on_c, 0, 55, 0
2, 146657, Note_on_c, 0, 60, 0
2, 146676, Note_on_c, 0, 62, 120
2, 146682, Note_on_c, 0, 52, 120
2, 146694, Note_on_c, 0, 54, 0
2, 146796, Note_on_c, 0, 62, 0
2, 146864, Note_on_c, 0, 57, 120
2, 146868, Note_on_c, 0, 52, 0
2, 146868, Note_on_c, 0, 60, 120
2, 147007, Note_on_c, 0, 48, 0
2, 147042, Note_on_c, 0, 47, 120
2, 147216, Note_on_c, 0, 47, 0
2, 147216, Note_on_c, 0, 48, 120
2, 147372, Note_on_c, 0, 45, 120
2, 147378, Note_on_c, 0, 48, 0
2, 147398, Note_on_c, 0, 57, 0
2, 147402, Note_on_c, 0, 64, 0
2, 147402, Note_on_c, 0, 60, 0
2, 147546, Note_on_c, 0, 45, 0
2, 147546, Note_on_c, 0, 48, 120
2, 147708, Note_on_c, 0, 48, 0
2, 147714, Note_on_c, 0, 52, 120
2, 147906, Note_on_c, 0, 57, 120
2, 147912, Note_on_c, 0, 52, 0
2, 148098, Note_on_c, 0, 56, 120
2, 148110, Note_on_c, 0, 57, 0
2, 148290, Note_on_c, 0, 57, 120
2, 148302, Note_on_c, 0, 56, 0
2, 148452, Note_on_c, 0, 57, 0
2, 148464, Note_on_c, 0, 52, 120
2, 148578, Note_on_c, 0, 52, 0
2, 148626, Note_on_c, 0, 57, 120
2, 148794, Note_on_c, 0, 57, 0
2, 148800, Note_on_c, 0, 60, 120
2, 148992, Note_on_c, 0, 64, 120
2, 148998, Note_on_c, 0, 60, 0
2, 149178, Note_on_c, 0, 62, 120
2, 149202, Note_on_c, 0, 64, 0
2, 149364, Note_on_c, 0, 64, 120
2, 149370, Note_on_c, 0, 62, 0
2, 149496, Note_on_c, 0, 64, 0
2, 149532, Note_on_c, 0, 57, 120
2, 149676, Note_on_c, 0, 57, 0
2, 149718, Note_on_c, 0, 60, 120
2, 149874, Note_on_c, 0, 60, 0
2, 149892, Note_on_c, 0, 64, 120
2, 150006, Note_on_c, 0, 64, 0
2, 150102, Note_on_c, 0, 69, 120
2, 150276, Note_on_c, 0, 68, 120
2, 150300, Note_on_c, 0, 69, 0
2, 150438, Note_on_c, 0, 68, 0
2, 150456, Note_on_c, 0, 69, 120
2, 150558, Note_on_c, 0, 69, 0
2, 150624, Note_on_c, 0, 64, 120
2, 150750, Note_on_c, 0, 64, 0
2, 150804, Note_on_c, 0, 69, 120
2, 150924, Note_on_c, 0, 69, 0
2, 150990, Note_on_c, 0, 72, 120
2, 151074, Note_on_c, 0, 72, 0
2, 151182, Note_on_c, 0, 76, 120
2, 151356, Note_on_c, 0, 74, 120
2, 151362, Note_on_c, 0, 76, 0
2, 151524, Note_on_c, 0, 74, 0
2, 151524, Note_on_c, 0, 76, 120
2, 151644, Note_on_c, 0, 76, 0
2, 151698, Note_on_c, 0, 69, 120
2, 151842, Note_on_c, 0, 69, 0
2, 151884, Note_on_c, 0, 72, 120
2, 152010, Note_on_c, 0, 72, 0
2, 152064, Note_on_c, 0, 76, 120
2, 152130, Note_on_c, 0, 76, 0
2, 152256, Note_on_c, 0, 81, 120
2, 152430, Note_on_c, 0, 80, 120
2, 152454, Note_on_c, 0, 81, 0
2, 152616, Note_on_c, 0, 81, 120
2, 152628, Note_on_c, 0, 80, 0
2, 152796, Note_on_c, 0, 81, 0
2, 152796, Note_on_c, 0, 78, 120
2, 152898, Note_on_c, 0, 78, 0
2, 152976, Note_on_c, 0, 75, 120
2, 153078, Note_on_c, 0, 75, 0
2, 153144, Note_on_c, 0, 71, 120
2, 153228, Note_on_c, 0, 71, 0
2, 153354, Note_on_c, 0, 80, 120
2, 153528, Note_on_c, 0, 78, 120
2, 153534, Note_on_c, 0, 80, 0
2, 153642, Note_on_c, 0, 78, 0
2, 153714, Note_on_c, 0, 80, 120
2, 153894, Note_on_c, 0, 77, 120
2, 153984, Note_on_c, 0, 77, 0
2, 154092, Note_on_c, 0, 74, 120
2, 154266, Note_on_c, 0, 71, 120
2, 154272, Note_on_c, 0, 74, 0
2, 154344, Note_on_c, 0, 71, 0
2, 154470, Note_on_c, 0, 74, 120
2, 154470, Note_on_c, 0, 77, 120
2, 154638, Note_on_c, 0, 74, 0
2, 154644, Note_on_c, 0, 76, 120
2, 154644, Note_on_c, 0, 72, 120
2, 154650, Note_on_c, 0, 77, 0
2, 154758, Note_on_c, 0, 76, 0
2, 154782, Note_on_c, 0, 72, 0
2, 154824, Note_on_c, 0, 77, 120
2, 154824, Note_on_c, 0, 74, 120
2, 154950, Note_on_c, 0, 74, 0
2, 155004, Note_on_c, 0, 71, 120
2, 155124, Note_on_c, 0, 71, 0
2, 155178, Note_on_c, 0, 68, 120
2, 155316, Note_on_c, 0, 68, 0
2, 155358, Note_on_c, 0, 64, 120
2, 155436, Note_on_c, 0, 64, 0
2, 155550, Note_on_c, 0, 74, 120
2, 155550, Note_on_c, 0, 71, 120
2, 155694, Note_on_c, 0, 71, 0
2, 155724, Note_on_c, 0, 74, 0
2, 155724, Note_on_c, 0, 72, 120
2, 155724, Note_on_c, 0, 69, 120
2, 155820, Note_on_c, 0, 72, 0
2, 155838, Note_on_c, 0, 69, 0
2, 155904, Note_on_c, 0, 71, 120
2, 155904, Note_on_c, 0, 74, 120
2, 156030, Note_on_c, 0, 71, 0
2, 156072, Note_on_c, 0, 68, 120
2, 156180, Note_on_c, 0, 68, 0
2, 156246, Note_on_c, 0, 65, 120
2, 156336, Note_on_c, 0, 65, 0
2, 156426, Note_on_c, 0, 62, 120
2, 156498, Note_on_c, 0, 74, 0
2, 156516, Note_on_c, 0, 77, 0
2, 156552, Note_on_c, 0, 62, 0
2, 156624, Note_on_c, 0, 80, 0
2, 156630, Note_on_c, 0, 68, 120
2, 156630, Note_on_c, 0, 71, 120
2, 156634, Note_on_c, 0, 83, 120
2, 156636, Note_on_c, 0, 74, 120
2, 156809, Note_on_c, 0, 81, 120
2, 156844, Note_on_c, 0, 83, 0
2, 156957, Note_on_c, 0, 80, 120
2, 156970, Note_on_c, 0, 81, 0
2, 157133, Note_on_c, 0, 78, 120
2, 157138, Note_on_c, 0, 80, 0
2, 157272, Note_on_c, 0, 74, 0
2, 157313, Note_on_c, 0, 76, 120
2, 157314, Note_on_c, 0, 71, 0
2, 157326, Note_on_c, 0, 78, 0
2, 157446, Note_on_c, 0, 68, 0
2, 157479, Note_on_c, 0, 74, 120
2, 157502, Note_on_c, 0, 76, 0
2, 157592, Note_on_c, 0, 74, 0
2, 157692, Note_on_c, 0, 72, 120
2, 157698, Note_on_c, 0, 69, 120
2, 157854, Note_on_c, 0, 72, 0
2, 157872, Note_on_c, 0, 81, 120
2, 158004, Note_on_c, 0, 81, 0
2, 158046, Note_on_c, 0, 80, 120
2, 158064, Note_on_c, 0, 69, 0
2, 158220, Note_on_c, 0, 80, 0
2, 158226, Note_on_c, 0, 78, 120
2, 158400, Note_on_c, 0, 78, 0
2, 158406, Note_on_c, 0, 76, 120
2, 158586, Note_on_c, 0, 74, 120
2, 158604, Note_on_c, 0, 76, 0
2, 158719, Note_on_c, 0, 74, 0
2, 158760, Note_on_c, 0, 72, 120
2, 158934, Note_on_c, 0, 71, 120
2, 159114, Note_on_c, 0, 69, 120
2, 159120, Note_on_c, 0, 71, 0
2, 159294, Note_on_c, 0, 68, 120
2, 159306, Note_on_c, 0, 69, 0
2, 159468, Note_on_c, 0, 68, 0
2, 159468, Note_on_c, 0, 69, 120
2, 159660, Note_on_c, 0, 66, 120
2, 159840, Note_on_c, 0, 63, 120
2, 160008, Note_on_c, 0, 72, 0
2, 160008, Note_on_c, 0, 69, 0
2, 160014, Note_on_c, 0, 71, 120
2, 160194, Note_on_c, 0, 71, 0
2, 160194, Note_on_c, 0, 69, 120
2, 160260, Note_on_c, 0, 66, 0
2, 160272, Note_on_c, 0, 63, 0
2, 160362, Note_on_c, 0, 67, 120
2, 160368, Note_on_c, 0, 69, 0
2, 160548, Note_on_c, 0, 67, 0
2, 160548, Note_on_c, 0, 66, 120
2, 160722, Note_on_c, 0, 66, 0
2, 160728, Note_on_c, 0, 64, 120
2, 160836, Note_on_c, 0, 64, 0
2, 160926, Note_on_c, 0, 63, 120
2, 161100, Note_on_c, 0, 59, 120
2, 161274, Note_on_c, 0, 59, 0
2, 161280, Note_on_c, 0, 60, 120
2, 161406, Note_on_c, 0, 60, 0
2, 161460, Note_on_c, 0, 57, 120
2, 161646, Note_on_c, 0, 59, 120
2, 161652, Note_on_c, 0, 57, 0
2, 161820, Note_on_c, 0, 54, 120
2, 161892, Note_on_c, 0, 54, 0
2, 162000, Note_on_c, 0, 56, 120
2, 162006, Note_on_c, 0, 63, 0
2, 162012, Note_on_c, 0, 59, 0
2, 162174, Note_on_c, 0, 59, 120
2, 162360, Note_on_c, 0, 64, 120
2, 162366, Note_on_c, 0, 59, 0
2, 162534, Note_on_c, 0, 64, 0
2, 162534, Note_on_c, 0, 63, 120
2, 162714, Note_on_c, 0, 63, 0
2, 162720, Note_on_c, 0, 64, 120
2, 162774, Note_on_c, 0, 56, 0
2, 162912, Note_on_c, 0, 57, 120
2, 163050, Note_on_c, 0, 57, 0
2, 163098, Note_on_c, 0, 59, 120
2, 163272, Note_on_c, 0, 54, 120
2, 163476, Note_on_c, 0, 56, 120
2, 163488, Note_on_c, 0, 54, 0
2, 163674, Note_on_c, 0, 51, 120
2, 163878, Note_on_c, 0, 52, 120
2, 163896, Note_on_c, 0, 51, 0
2, 164730, Note_on_c, 0, 59, 0
2, 164742, Note_on_c, 0, 64, 0
2, 164748, Note_on_c, 0, 56, 0
2, 164748, Note_on_c, 0, 52, 0
2, 164748, End_track
3, 0, Start_track
3, 0, Title_t, "Ped"
3, 0, MIDI_port, 0
3, 0, Control_c, 1, 93, 0
3, 0, Control_c, 1, 91, 127
3, 0, Control_c, 1, 10, 68
3, 0, Program_c, 1, 79
3, 3720, Control_c, 1, 7, 127
3, 3720, Control_c, 1, 93, 0
3, 3720, Control_c, 1, 91, 127
3, 3720, Control_c, 1, 10, 68
3, 153360, Note_on_c, 1, 28, 60
3, 153381, Note_on_c, 1, 40, 60
3, 164748, Note_on_c, 1, 28, 0
3, 164791, Note_on_c, 1, 40, 0
3, 164791, End_track
4, 0, Start_track
4, 0, MIDI_port, 0
4, 0, End_track
5, 0, Start_track
5, 0, Title_t, "Jesus Christus, unser Heiland"
5, 0, MIDI_port, 0
5, 0, End_track
6, 0, Start_track
6, 0, Title_t, "by J. S. Bach (BWV 665)"
6, 0, MIDI_port, 0
6, 0, End_track
7, 0, Start_track
7, 0, MIDI_port, 0
7, 0, End_track
8, 0, Start_track
8, 0, Title_t, "Sequenced using WinJammer Professional"
8, 0, MIDI_port, 0
8, 0, End_track
9, 0, Start_track
9, 0, Title_t, "on Windows NT by Martin Robinson."
9, 0, MIDI_port, 0
9, 0, End_track
10, 0, Start_track
10, 0, Title_t, "(c) Martin Robinson 1997"
10, 0, MIDI_port, 0
10, 0, End_track
0, 0, End_of_file
