0, 0, Header, 1, 4, 240
1, 0, Start_track
1, 0, Time_signature, 4, 1, 48, 8
1, 0, Tempo, 422535
1, 142560, Tempo, 458015
1, 143040, Tempo, 508475
1, 143520, Tempo, 560748
1, 143520, End_track
2, 0, Start_track
2, 0, Title_t, "Aus tiefer Not schrei' ich dir"
2, 0, Program_c, 0, 0
2, 5280, Note_on_c, 0, 76, 127
2, 5664, Note_off_c, 0, 76, 64
2, 5760, Note_on_c, 0, 69, 127
2, 6144, Note_off_c, 0, 69, 64
2, 6240, Note_on_c, 0, 76, 127
2, 6624, Note_off_c, 0, 76, 64
2, 6720, Note_on_c, 0, 77, 127
2, 7104, Note_off_c, 0, 77, 64
2, 7200, Note_on_c, 0, 76, 127
2, 7392, Note_off_c, 0, 76, 64
2, 7440, Note_on_c, 0, 74, 127
2, 7632, Note_off_c, 0, 74, 64
2, 7680, Note_on_c, 0, 72, 127
2, 8130, Note_off_c, 0, 72, 64
2, 8160, Note_on_c, 0, 71, 127
2, 8160, Note_on_c, 0, 74, 127
2, 8544, Note_off_c, 0, 71, 64
2, 8610, Note_off_c, 0, 74, 64
2, 8640, Note_on_c, 0, 76, 127
2, 8640, Note_on_c, 0, 64, 127
2, 9024, Note_off_c, 0, 64, 64
2, 9120, Note_on_c, 0, 71, 127
2, 9216, Note_off_c, 0, 76, 64
2, 9360, Note_on_c, 0, 74, 127
2, 9504, Note_off_c, 0, 71, 64
2, 9552, Note_off_c, 0, 74, 64
2, 9600, Note_on_c, 0, 72, 127
2, 9600, Note_on_c, 0, 72, 127
2, 9984, Note_off_c, 0, 72, 64
2, 9984, Note_off_c, 0, 72, 64
2, 10080, Note_on_c, 0, 74, 127
2, 10080, Note_on_c, 0, 71, 127
2, 10272, Note_off_c, 0, 71, 64
2, 10320, Note_on_c, 0, 69, 127
2, 10464, Note_off_c, 0, 74, 64
2, 10512, Note_off_c, 0, 69, 64
2, 10560, Note_on_c, 0, 67, 127
2, 10560, Note_on_c, 0, 76, 127
2, 10944, Note_off_c, 0, 67, 64
2, 11040, Note_on_c, 0, 69, 127
2, 11136, Note_off_c, 0, 76, 64
2, 11280, Note_on_c, 0, 78, 127
2, 11424, Note_off_c, 0, 69, 64
2, 11472, Note_off_c, 0, 78, 64
2, 11520, Note_on_c, 0, 71, 127
2, 11520, Note_on_c, 0, 79, 127
2, 11712, Note_off_c, 0, 71, 64
2, 11760, Note_on_c, 0, 76, 127
2, 12144, Note_off_c, 0, 76, 64
2, 12240, Note_on_c, 0, 74, 127
2, 12432, Note_off_c, 0, 74, 64
2, 12480, Note_on_c, 0, 72, 127
2, 12672, Note_off_c, 0, 79, 64
2, 12720, Note_on_c, 0, 77, 127
2, 12864, Note_off_c, 0, 72, 64
2, 12960, Note_on_c, 0, 71, 127
2, 13104, Note_off_c, 0, 77, 64
2, 13200, Note_on_c, 0, 76, 127
2, 13344, Note_off_c, 0, 71, 64
2, 13440, Note_on_c, 0, 69, 127
2, 13632, Note_off_c, 0, 76, 64
2, 13680, Note_on_c, 0, 74, 127
2, 13872, Note_off_c, 0, 74, 64
2, 13920, Note_on_c, 0, 72, 127
2, 14016, Note_off_c, 0, 69, 64
2, 14112, Note_off_c, 0, 72, 64
2, 14160, Note_on_c, 0, 68, 127
2, 14160, Note_on_c, 0, 71, 127
2, 14352, Note_off_c, 0, 71, 64
2, 14400, Note_off_c, 0, 68, 64
2, 14400, Note_on_c, 0, 69, 127
2, 14400, Note_on_c, 0, 69, 127
2, 14592, Note_off_c, 0, 69, 64
2, 14640, Note_on_c, 0, 72, 127
2, 14784, Note_off_c, 0, 69, 64
2, 14832, Note_off_c, 0, 72, 64
2, 14880, Note_on_c, 0, 71, 127
2, 14880, Note_on_c, 0, 65, 127
2, 15072, Note_off_c, 0, 71, 64
2, 15120, Note_on_c, 0, 69, 127
2, 15264, Note_off_c, 0, 65, 64
2, 15312, Note_off_c, 0, 69, 64
2, 15360, Note_on_c, 0, 64, 127
2, 15360, Note_on_c, 0, 68, 127
2, 15552, Note_off_c, 0, 64, 64
2, 15600, Note_on_c, 0, 62, 127
2, 15696, Note_off_c, 0, 62, 64
2, 15720, Note_on_c, 0, 64, 127
2, 15816, Note_off_c, 0, 64, 64
2, 15840, Note_on_c, 0, 65, 127
2, 15936, Note_off_c, 0, 68, 64
2, 16080, Note_on_c, 0, 69, 127
2, 16224, Note_off_c, 0, 65, 64
2, 16272, Note_off_c, 0, 69, 64
2, 16320, Note_on_c, 0, 71, 127
2, 16320, Note_on_c, 0, 64, 127
2, 16512, Note_off_c, 0, 71, 64
2, 16560, Note_on_c, 0, 72, 127
2, 16656, Note_off_c, 0, 72, 64
2, 16680, Note_on_c, 0, 74, 127
2, 16776, Note_off_c, 0, 74, 64
2, 16800, Note_on_c, 0, 76, 127
2, 17184, Note_off_c, 0, 76, 64
2, 17280, Note_on_c, 0, 69, 127
2, 17664, Note_off_c, 0, 69, 64
2, 17664, Note_off_c, 0, 64, 64
2, 17760, Note_on_c, 0, 76, 127
2, 18000, Note_on_c, 0, 69, 127
2, 18144, Note_off_c, 0, 76, 64
2, 18192, Note_off_c, 0, 69, 64
2, 18240, Note_on_c, 0, 74, 127
2, 18240, Note_on_c, 0, 77, 127
2, 18624, Note_off_c, 0, 77, 64
2, 18624, Note_off_c, 0, 74, 64
2, 18720, Note_on_c, 0, 76, 127
2, 18720, Note_on_c, 0, 71, 127
2, 18912, Note_off_c, 0, 76, 64
2, 18960, Note_on_c, 0, 74, 127
2, 19104, Note_off_c, 0, 71, 64
2, 19152, Note_off_c, 0, 74, 64
2, 19200, Note_on_c, 0, 72, 127
2, 19200, Note_on_c, 0, 69, 127
2, 19392, Note_off_c, 0, 72, 64
2, 19440, Note_on_c, 0, 76, 127
2, 19536, Note_off_c, 0, 76, 64
2, 19560, Note_on_c, 0, 74, 127
2, 19656, Note_off_c, 0, 74, 64
2, 19680, Note_on_c, 0, 76, 127
2, 19776, Note_off_c, 0, 69, 64
2, 19872, Note_off_c, 0, 76, 64
2, 19920, Note_on_c, 0, 81, 127
2, 19920, Note_on_c, 0, 72, 127
2, 20112, Note_off_c, 0, 72, 64
2, 20160, Note_on_c, 0, 77, 127
2, 20352, Note_off_c, 0, 81, 64
2, 20352, Note_off_c, 0, 77, 64
2, 20400, Note_on_c, 0, 76, 127
2, 20400, Note_on_c, 0, 79, 127
2, 20784, Note_off_c, 0, 79, 64
2, 20784, Note_off_c, 0, 76, 64
2, 20880, Note_on_c, 0, 74, 127
2, 20880, Note_on_c, 0, 77, 127
2, 21312, Note_off_c, 0, 77, 64
2, 21360, Note_on_c, 0, 76, 127
2, 21456, Note_off_c, 0, 76, 64
2, 21480, Note_on_c, 0, 74, 127
2, 21576, Note_off_c, 0, 74, 64
2, 21600, Note_on_c, 0, 76, 127
2, 21696, Note_off_c, 0, 74, 64
2, 21840, Note_on_c, 0, 72, 127
2, 21936, Note_off_c, 0, 72, 64
2, 21960, Note_on_c, 0, 71, 127
2, 22056, Note_off_c, 0, 71, 64
2, 22080, Note_on_c, 0, 72, 127
2, 22272, Note_off_c, 0, 76, 64
2, 22320, Note_on_c, 0, 77, 127
2, 22416, Note_off_c, 0, 77, 64
2, 22440, Note_on_c, 0, 79, 127
2, 22464, Note_off_c, 0, 72, 64
2, 22536, Note_off_c, 0, 79, 64
2, 22560, Note_on_c, 0, 69, 127
2, 22560, Note_on_c, 0, 81, 127
2, 22752, Note_off_c, 0, 81, 64
2, 22800, Note_on_c, 0, 74, 127
2, 22992, Note_off_c, 0, 74, 64
2, 23040, Note_on_c, 0, 76, 127
2, 23232, Note_off_c, 0, 69, 64
2, 23232, Note_off_c, 0, 76, 64
2, 23280, Note_on_c, 0, 71, 127
2, 23280, Note_on_c, 0, 68, 127
2, 23376, Note_off_c, 0, 68, 64
2, 23400, Note_on_c, 0, 66, 127
2, 23472, Note_off_c, 0, 71, 64
2, 23496, Note_off_c, 0, 66, 64
2, 23520, Note_on_c, 0, 68, 127
2, 23520, Note_on_c, 0, 76, 127
2, 23712, Note_off_c, 0, 76, 64
2, 23760, Note_on_c, 0, 74, 127
2, 23904, Note_off_c, 0, 68, 64
2, 23952, Note_off_c, 0, 74, 64
2, 24000, Note_on_c, 0, 72, 127
2, 24000, Note_on_c, 0, 69, 127
2, 24192, Note_off_c, 0, 72, 64
2, 24240, Note_on_c, 0, 76, 127
2, 24384, Note_off_c, 0, 69, 64
2, 24432, Note_off_c, 0, 76, 64
2, 24480, Note_on_c, 0, 78, 127
2, 24672, Note_off_c, 0, 78, 64
2, 24720, Note_on_c, 0, 80, 127
2, 24912, Note_off_c, 0, 80, 64
2, 24960, Note_on_c, 0, 81, 127
2, 25152, Note_off_c, 0, 81, 64
2, 25440, Note_on_c, 0, 64, 127
2, 25632, Note_off_c, 0, 64, 64
2, 25680, Note_on_c, 0, 65, 127
2, 25872, Note_off_c, 0, 65, 64
2, 25920, Note_on_c, 0, 67, 127
2, 26160, Note_on_c, 0, 71, 127
2, 26304, Note_off_c, 0, 67, 64
2, 26352, Note_off_c, 0, 71, 64
2, 26400, Note_on_c, 0, 72, 127
2, 26400, Note_on_c, 0, 69, 127
2, 26592, Note_off_c, 0, 72, 64
2, 26640, Note_on_c, 0, 74, 127
2, 26784, Note_off_c, 0, 69, 64
2, 26832, Note_off_c, 0, 74, 64
2, 26880, Note_on_c, 0, 76, 127
2, 26880, Note_on_c, 0, 67, 127
2, 27072, Note_off_c, 0, 67, 64
2, 27120, Note_on_c, 0, 65, 127
2, 27312, Note_off_c, 0, 65, 64
2, 27360, Note_on_c, 0, 64, 127
2, 27552, Note_off_c, 0, 76, 64
2, 27600, Note_on_c, 0, 74, 127
2, 27696, Note_off_c, 0, 74, 64
2, 27720, Note_on_c, 0, 72, 127
2, 27744, Note_off_c, 0, 64, 64
2, 27816, Note_off_c, 0, 72, 64
2, 27840, Note_on_c, 0, 62, 127
2, 27840, Note_on_c, 0, 71, 127
2, 28224, Note_off_c, 0, 71, 64
2, 28224, Note_off_c, 0, 62, 64
2, 28320, Note_on_c, 0, 60, 127
2, 28704, Note_off_c, 0, 60, 64
2, 28800, Note_on_c, 0, 59, 127
2, 28992, Note_off_c, 0, 59, 64
2, 29040, Note_on_c, 0, 57, 127
2, 29232, Note_off_c, 0, 57, 64
2, 29280, Note_on_c, 0, 59, 127
2, 29472, Note_off_c, 0, 59, 64
2, 29520, Note_on_c, 0, 61, 127
2, 29712, Note_off_c, 0, 61, 64
2, 29760, Note_on_c, 0, 62, 127
2, 30000, Note_on_c, 0, 69, 127
2, 30144, Note_off_c, 0, 62, 64
2, 30192, Note_off_c, 0, 69, 64
2, 30240, Note_on_c, 0, 71, 127
2, 30432, Note_off_c, 0, 71, 64
2, 30480, Note_on_c, 0, 69, 127
2, 30720, Note_on_c, 0, 74, 127
2, 30912, Note_off_c, 0, 69, 64
2, 30912, Note_off_c, 0, 74, 64
2, 30960, Note_on_c, 0, 76, 127
2, 30960, Note_on_c, 0, 68, 127
2, 31056, Note_off_c, 0, 68, 64
2, 31080, Note_on_c, 0, 66, 127
2, 31152, Note_off_c, 0, 76, 64
2, 31176, Note_off_c, 0, 66, 64
2, 31200, Note_on_c, 0, 77, 127
2, 31200, Note_on_c, 0, 68, 127
2, 31392, Note_off_c, 0, 68, 64
2, 31440, Note_on_c, 0, 69, 127
2, 31632, Note_off_c, 0, 69, 64
2, 31680, Note_on_c, 0, 71, 127
2, 31872, Note_off_c, 0, 77, 64
2, 31920, Note_on_c, 0, 77, 127
2, 32112, Note_off_c, 0, 77, 64
2, 32160, Note_on_c, 0, 76, 127
2, 32352, Note_off_c, 0, 76, 64
2, 32400, Note_on_c, 0, 74, 127
2, 32592, Note_off_c, 0, 74, 64
2, 32640, Note_on_c, 0, 72, 127
2, 32832, Note_off_c, 0, 71, 64
2, 33024, Note_off_c, 0, 72, 64
2, 33360, Note_on_c, 0, 67, 127
2, 33552, Note_off_c, 0, 67, 64
2, 33600, Note_on_c, 0, 65, 127
2, 33840, Note_on_c, 0, 67, 127
2, 34032, Note_off_c, 0, 67, 64
2, 34080, Note_on_c, 0, 69, 127
2, 34272, Note_off_c, 0, 69, 64
2, 34320, Note_on_c, 0, 71, 127
2, 34368, Note_off_c, 0, 65, 64
2, 34512, Note_off_c, 0, 71, 64
2, 34560, Note_on_c, 0, 72, 127
2, 34752, Note_off_c, 0, 72, 64
2, 34800, Note_on_c, 0, 74, 127
2, 34896, Note_off_c, 0, 74, 64
2, 34920, Note_on_c, 0, 76, 127
2, 35016, Note_off_c, 0, 76, 64
2, 35040, Note_on_c, 0, 77, 127
2, 35232, Note_off_c, 0, 77, 64
2, 35280, Note_on_c, 0, 76, 127
2, 35712, Note_off_c, 0, 76, 64
2, 35760, Note_on_c, 0, 74, 127
2, 35952, Note_off_c, 0, 74, 64
2, 36000, Note_on_c, 0, 72, 127
2, 36240, Note_on_c, 0, 66, 127
2, 36384, Note_off_c, 0, 72, 64
2, 36432, Note_off_c, 0, 66, 64
2, 36480, Note_on_c, 0, 71, 127
2, 36480, Note_on_c, 0, 67, 127
2, 36672, Note_off_c, 0, 67, 64
2, 36720, Note_on_c, 0, 69, 127
2, 36864, Note_off_c, 0, 71, 64
2, 36912, Note_off_c, 0, 69, 64
2, 36960, Note_on_c, 0, 71, 127
2, 37152, Note_off_c, 0, 71, 64
2, 37200, Note_on_c, 0, 73, 127
2, 37200, Note_on_c, 0, 70, 127
2, 37392, Note_off_c, 0, 70, 64
2, 37392, Note_off_c, 0, 73, 64
2, 37440, Note_on_c, 0, 74, 127
2, 37440, Note_on_c, 0, 69, 127
2, 37632, Note_off_c, 0, 74, 64
2, 37680, Note_on_c, 0, 76, 127
2, 37872, Note_off_c, 0, 76, 64
2, 37920, Note_on_c, 0, 77, 127
2, 38016, Note_off_c, 0, 69, 64
2, 38160, Note_on_c, 0, 71, 127
2, 38256, Note_off_c, 0, 71, 64
2, 38280, Note_on_c, 0, 69, 127
2, 38304, Note_off_c, 0, 77, 64
2, 38376, Note_off_c, 0, 69, 64
2, 38400, Note_on_c, 0, 68, 127
2, 38400, Note_on_c, 0, 71, 127
2, 38592, Note_off_c, 0, 71, 64
2, 38592, Note_off_c, 0, 68, 64
2, 38640, Note_on_c, 0, 66, 127
2, 38640, Note_on_c, 0, 69, 127
2, 38832, Note_off_c, 0, 69, 64
2, 38832, Note_off_c, 0, 66, 64
2, 38880, Note_on_c, 0, 68, 127
2, 38880, Note_on_c, 0, 71, 127
2, 39072, Note_off_c, 0, 71, 64
2, 39072, Note_off_c, 0, 68, 64
2, 39120, Note_on_c, 0, 69, 127
2, 39120, Note_on_c, 0, 72, 127
2, 39312, Note_off_c, 0, 72, 64
2, 39312, Note_off_c, 0, 69, 64
2, 39360, Note_on_c, 0, 71, 127
2, 39360, Note_on_c, 0, 74, 127
2, 39744, Note_off_c, 0, 74, 64
2, 39744, Note_off_c, 0, 71, 64
2, 39840, Note_on_c, 0, 64, 127
2, 39840, Note_on_c, 0, 72, 127
2, 40224, Note_off_c, 0, 72, 64
2, 40320, Note_on_c, 0, 71, 127
2, 40704, Note_off_c, 0, 71, 64
2, 40704, Note_off_c, 0, 64, 64
2, 45600, Note_on_c, 0, 76, 127
2, 45984, Note_off_c, 0, 76, 64
2, 46080, Note_on_c, 0, 69, 127
2, 46464, Note_off_c, 0, 69, 64
2, 46560, Note_on_c, 0, 76, 127
2, 46944, Note_off_c, 0, 76, 64
2, 47040, Note_on_c, 0, 77, 127
2, 47424, Note_off_c, 0, 77, 64
2, 47520, Note_on_c, 0, 76, 127
2, 47712, Note_off_c, 0, 76, 64
2, 47760, Note_on_c, 0, 74, 127
2, 47952, Note_off_c, 0, 74, 64
2, 48000, Note_on_c, 0, 72, 127
2, 48450, Note_off_c, 0, 72, 64
2, 48480, Note_on_c, 0, 71, 127
2, 48480, Note_on_c, 0, 74, 127
2, 48864, Note_off_c, 0, 71, 64
2, 48930, Note_off_c, 0, 74, 64
2, 48960, Note_on_c, 0, 76, 127
2, 48960, Note_on_c, 0, 64, 127
2, 49344, Note_off_c, 0, 64, 64
2, 49440, Note_on_c, 0, 71, 127
2, 49536, Note_off_c, 0, 76, 64
2, 49680, Note_on_c, 0, 74, 127
2, 49824, Note_off_c, 0, 71, 64
2, 49872, Note_off_c, 0, 74, 64
2, 49920, Note_on_c, 0, 72, 127
2, 49920, Note_on_c, 0, 72, 127
2, 50304, Note_off_c, 0, 72, 64
2, 50304, Note_off_c, 0, 72, 64
2, 50400, Note_on_c, 0, 74, 127
2, 50400, Note_on_c, 0, 71, 127
2, 50592, Note_off_c, 0, 71, 64
2, 50640, Note_on_c, 0, 69, 127
2, 50784, Note_off_c, 0, 74, 64
2, 50832, Note_off_c, 0, 69, 64
2, 50880, Note_on_c, 0, 67, 127
2, 50880, Note_on_c, 0, 76, 127
2, 51264, Note_off_c, 0, 67, 64
2, 51360, Note_on_c, 0, 69, 127
2, 51456, Note_off_c, 0, 76, 64
2, 51600, Note_on_c, 0, 78, 127
2, 51744, Note_off_c, 0, 69, 64
2, 51792, Note_off_c, 0, 78, 64
2, 51840, Note_on_c, 0, 71, 127
2, 51840, Note_on_c, 0, 79, 127
2, 52032, Note_off_c, 0, 71, 64
2, 52080, Note_on_c, 0, 76, 127
2, 52464, Note_off_c, 0, 76, 64
2, 52560, Note_on_c, 0, 74, 127
2, 52752, Note_off_c, 0, 74, 64
2, 52800, Note_on_c, 0, 72, 127
2, 52992, Note_off_c, 0, 79, 64
2, 53040, Note_on_c, 0, 77, 127
2, 53184, Note_off_c, 0, 72, 64
2, 53280, Note_on_c, 0, 71, 127
2, 53424, Note_off_c, 0, 77, 64
2, 53520, Note_on_c, 0, 76, 127
2, 53664, Note_off_c, 0, 71, 64
2, 53760, Note_on_c, 0, 69, 127
2, 53952, Note_off_c, 0, 76, 64
2, 54000, Note_on_c, 0, 74, 127
2, 54192, Note_off_c, 0, 74, 64
2, 54240, Note_on_c, 0, 72, 127
2, 54336, Note_off_c, 0, 69, 64
2, 54432, Note_off_c, 0, 72, 64
2, 54480, Note_on_c, 0, 68, 127
2, 54480, Note_on_c, 0, 71, 127
2, 54672, Note_off_c, 0, 71, 64
2, 54720, Note_off_c, 0, 68, 64
2, 54720, Note_on_c, 0, 69, 127
2, 54720, Note_on_c, 0, 69, 127
2, 54912, Note_off_c, 0, 69, 64
2, 54960, Note_on_c, 0, 72, 127
2, 55104, Note_off_c, 0, 69, 64
2, 55152, Note_off_c, 0, 72, 64
2, 55200, Note_on_c, 0, 71, 127
2, 55200, Note_on_c, 0, 65, 127
2, 55392, Note_off_c, 0, 71, 64
2, 55440, Note_on_c, 0, 69, 127
2, 55584, Note_off_c, 0, 65, 64
2, 55632, Note_off_c, 0, 69, 64
2, 55680, Note_on_c, 0, 64, 127
2, 55680, Note_on_c, 0, 68, 127
2, 55872, Note_off_c, 0, 64, 64
2, 55920, Note_on_c, 0, 62, 127
2, 56016, Note_off_c, 0, 62, 64
2, 56040, Note_on_c, 0, 64, 127
2, 56136, Note_off_c, 0, 64, 64
2, 56160, Note_on_c, 0, 65, 127
2, 56256, Note_off_c, 0, 68, 64
2, 56400, Note_on_c, 0, 69, 127
2, 56544, Note_off_c, 0, 65, 64
2, 56592, Note_off_c, 0, 69, 64
2, 56640, Note_on_c, 0, 71, 127
2, 56640, Note_on_c, 0, 64, 127
2, 56832, Note_off_c, 0, 71, 64
2, 56880, Note_on_c, 0, 72, 127
2, 56976, Note_off_c, 0, 72, 64
2, 57000, Note_on_c, 0, 74, 127
2, 57096, Note_off_c, 0, 74, 64
2, 57120, Note_on_c, 0, 76, 127
2, 57504, Note_off_c, 0, 76, 64
2, 57600, Note_on_c, 0, 69, 127
2, 57984, Note_off_c, 0, 69, 64
2, 57984, Note_off_c, 0, 64, 64
2, 58080, Note_on_c, 0, 76, 127
2, 58320, Note_on_c, 0, 69, 127
2, 58464, Note_off_c, 0, 76, 64
2, 58512, Note_off_c, 0, 69, 64
2, 58560, Note_on_c, 0, 74, 127
2, 58560, Note_on_c, 0, 77, 127
2, 58944, Note_off_c, 0, 77, 64
2, 58944, Note_off_c, 0, 74, 64
2, 59040, Note_on_c, 0, 76, 127
2, 59040, Note_on_c, 0, 71, 127
2, 59232, Note_off_c, 0, 76, 64
2, 59280, Note_on_c, 0, 74, 127
2, 59424, Note_off_c, 0, 71, 64
2, 59472, Note_off_c, 0, 74, 64
2, 59520, Note_on_c, 0, 72, 127
2, 59520, Note_on_c, 0, 69, 127
2, 59712, Note_off_c, 0, 72, 64
2, 59760, Note_on_c, 0, 76, 127
2, 59856, Note_off_c, 0, 76, 64
2, 59880, Note_on_c, 0, 74, 127
2, 59976, Note_off_c, 0, 74, 64
2, 60000, Note_on_c, 0, 76, 127
2, 60096, Note_off_c, 0, 69, 64
2, 60192, Note_off_c, 0, 76, 64
2, 60240, Note_on_c, 0, 81, 127
2, 60240, Note_on_c, 0, 72, 127
2, 60432, Note_off_c, 0, 72, 64
2, 60480, Note_on_c, 0, 77, 127
2, 60672, Note_off_c, 0, 81, 64
2, 60672, Note_off_c, 0, 77, 64
2, 60720, Note_on_c, 0, 76, 127
2, 60720, Note_on_c, 0, 79, 127
2, 61104, Note_off_c, 0, 79, 64
2, 61104, Note_off_c, 0, 76, 64
2, 61200, Note_on_c, 0, 74, 127
2, 61200, Note_on_c, 0, 77, 127
2, 61632, Note_off_c, 0, 77, 64
2, 61680, Note_on_c, 0, 76, 127
2, 61776, Note_off_c, 0, 76, 64
2, 61800, Note_on_c, 0, 74, 127
2, 61896, Note_off_c, 0, 74, 64
2, 61920, Note_on_c, 0, 76, 127
2, 62016, Note_off_c, 0, 74, 64
2, 62160, Note_on_c, 0, 72, 127
2, 62256, Note_off_c, 0, 72, 64
2, 62280, Note_on_c, 0, 71, 127
2, 62376, Note_off_c, 0, 71, 64
2, 62400, Note_on_c, 0, 72, 127
2, 62592, Note_off_c, 0, 76, 64
2, 62640, Note_on_c, 0, 77, 127
2, 62736, Note_off_c, 0, 77, 64
2, 62760, Note_on_c, 0, 79, 127
2, 62784, Note_off_c, 0, 72, 64
2, 62856, Note_off_c, 0, 79, 64
2, 62880, Note_on_c, 0, 69, 127
2, 62880, Note_on_c, 0, 81, 127
2, 63072, Note_off_c, 0, 81, 64
2, 63120, Note_on_c, 0, 74, 127
2, 63312, Note_off_c, 0, 74, 64
2, 63360, Note_on_c, 0, 76, 127
2, 63552, Note_off_c, 0, 69, 64
2, 63552, Note_off_c, 0, 76, 64
2, 63600, Note_on_c, 0, 71, 127
2, 63600, Note_on_c, 0, 68, 127
2, 63696, Note_off_c, 0, 68, 64
2, 63720, Note_on_c, 0, 66, 127
2, 63792, Note_off_c, 0, 71, 64
2, 63816, Note_off_c, 0, 66, 64
2, 63840, Note_on_c, 0, 68, 127
2, 63840, Note_on_c, 0, 76, 127
2, 64032, Note_off_c, 0, 76, 64
2, 64080, Note_on_c, 0, 74, 127
2, 64224, Note_off_c, 0, 68, 64
2, 64272, Note_off_c, 0, 74, 64
2, 64320, Note_on_c, 0, 72, 127
2, 64320, Note_on_c, 0, 69, 127
2, 64512, Note_off_c, 0, 72, 64
2, 64560, Note_on_c, 0, 76, 127
2, 64704, Note_off_c, 0, 69, 64
2, 64752, Note_off_c, 0, 76, 64
2, 64800, Note_on_c, 0, 78, 127
2, 64992, Note_off_c, 0, 78, 64
2, 65040, Note_on_c, 0, 80, 127
2, 65232, Note_off_c, 0, 80, 64
2, 65280, Note_on_c, 0, 81, 127
2, 65472, Note_off_c, 0, 81, 64
2, 65760, Note_on_c, 0, 64, 127
2, 65952, Note_off_c, 0, 64, 64
2, 66000, Note_on_c, 0, 65, 127
2, 66192, Note_off_c, 0, 65, 64
2, 66240, Note_on_c, 0, 67, 127
2, 66480, Note_on_c, 0, 71, 127
2, 66624, Note_off_c, 0, 67, 64
2, 66672, Note_off_c, 0, 71, 64
2, 66720, Note_on_c, 0, 72, 127
2, 66720, Note_on_c, 0, 69, 127
2, 66912, Note_off_c, 0, 72, 64
2, 66960, Note_on_c, 0, 74, 127
2, 67104, Note_off_c, 0, 69, 64
2, 67152, Note_off_c, 0, 74, 64
2, 67200, Note_on_c, 0, 76, 127
2, 67200, Note_on_c, 0, 67, 127
2, 67392, Note_off_c, 0, 67, 64
2, 67440, Note_on_c, 0, 65, 127
2, 67632, Note_off_c, 0, 65, 64
2, 67680, Note_on_c, 0, 64, 127
2, 67872, Note_off_c, 0, 76, 64
2, 67920, Note_on_c, 0, 74, 127
2, 68016, Note_off_c, 0, 74, 64
2, 68040, Note_on_c, 0, 72, 127
2, 68064, Note_off_c, 0, 64, 64
2, 68136, Note_off_c, 0, 72, 64
2, 68160, Note_on_c, 0, 62, 127
2, 68160, Note_on_c, 0, 71, 127
2, 68544, Note_off_c, 0, 71, 64
2, 68544, Note_off_c, 0, 62, 64
2, 68640, Note_on_c, 0, 60, 127
2, 69024, Note_off_c, 0, 60, 64
2, 69120, Note_on_c, 0, 59, 127
2, 69312, Note_off_c, 0, 59, 64
2, 69360, Note_on_c, 0, 57, 127
2, 69552, Note_off_c, 0, 57, 64
2, 69600, Note_on_c, 0, 59, 127
2, 69792, Note_off_c, 0, 59, 64
2, 69840, Note_on_c, 0, 61, 127
2, 70032, Note_off_c, 0, 61, 64
2, 70080, Note_on_c, 0, 62, 127
2, 70320, Note_on_c, 0, 69, 127
2, 70464, Note_off_c, 0, 62, 64
2, 70512, Note_off_c, 0, 69, 64
2, 70560, Note_on_c, 0, 71, 127
2, 70752, Note_off_c, 0, 71, 64
2, 70800, Note_on_c, 0, 69, 127
2, 71040, Note_on_c, 0, 74, 127
2, 71232, Note_off_c, 0, 69, 64
2, 71232, Note_off_c, 0, 74, 64
2, 71280, Note_on_c, 0, 76, 127
2, 71280, Note_on_c, 0, 68, 127
2, 71376, Note_off_c, 0, 68, 64
2, 71400, Note_on_c, 0, 66, 127
2, 71472, Note_off_c, 0, 76, 64
2, 71496, Note_off_c, 0, 66, 64
2, 71520, Note_on_c, 0, 77, 127
2, 71520, Note_on_c, 0, 68, 127
2, 71712, Note_off_c, 0, 68, 64
2, 71760, Note_on_c, 0, 69, 127
2, 71952, Note_off_c, 0, 69, 64
2, 72000, Note_on_c, 0, 71, 127
2, 72192, Note_off_c, 0, 77, 64
2, 72240, Note_on_c, 0, 77, 127
2, 72432, Note_off_c, 0, 77, 64
2, 72480, Note_on_c, 0, 76, 127
2, 72672, Note_off_c, 0, 76, 64
2, 72720, Note_on_c, 0, 74, 127
2, 72912, Note_off_c, 0, 74, 64
2, 72960, Note_on_c, 0, 72, 127
2, 73152, Note_off_c, 0, 71, 64
2, 73344, Note_off_c, 0, 72, 64
2, 73680, Note_on_c, 0, 67, 127
2, 73872, Note_off_c, 0, 67, 64
2, 73920, Note_on_c, 0, 65, 127
2, 74160, Note_on_c, 0, 67, 127
2, 74352, Note_off_c, 0, 67, 64
2, 74400, Note_on_c, 0, 69, 127
2, 74592, Note_off_c, 0, 69, 64
2, 74640, Note_on_c, 0, 71, 127
2, 74688, Note_off_c, 0, 65, 64
2, 74832, Note_off_c, 0, 71, 64
2, 74880, Note_on_c, 0, 72, 127
2, 75072, Note_off_c, 0, 72, 64
2, 75120, Note_on_c, 0, 74, 127
2, 75216, Note_off_c, 0, 74, 64
2, 75240, Note_on_c, 0, 76, 127
2, 75336, Note_off_c, 0, 76, 64
2, 75360, Note_on_c, 0, 77, 127
2, 75552, Note_off_c, 0, 77, 64
2, 75600, Note_on_c, 0, 76, 127
2, 76032, Note_off_c, 0, 76, 64
2, 76080, Note_on_c, 0, 74, 127
2, 76272, Note_off_c, 0, 74, 64
2, 76320, Note_on_c, 0, 72, 127
2, 76560, Note_on_c, 0, 66, 127
2, 76704, Note_off_c, 0, 72, 64
2, 76752, Note_off_c, 0, 66, 64
2, 76800, Note_on_c, 0, 71, 127
2, 76800, Note_on_c, 0, 67, 127
2, 76992, Note_off_c, 0, 67, 64
2, 77040, Note_on_c, 0, 69, 127
2, 77184, Note_off_c, 0, 71, 64
2, 77232, Note_off_c, 0, 69, 64
2, 77280, Note_on_c, 0, 71, 127
2, 77472, Note_off_c, 0, 71, 64
2, 77520, Note_on_c, 0, 73, 127
2, 77520, Note_on_c, 0, 70, 127
2, 77712, Note_off_c, 0, 70, 64
2, 77712, Note_off_c, 0, 73, 64
2, 77760, Note_on_c, 0, 74, 127
2, 77760, Note_on_c, 0, 69, 127
2, 77952, Note_off_c, 0, 74, 64
2, 78000, Note_on_c, 0, 76, 127
2, 78192, Note_off_c, 0, 76, 64
2, 78240, Note_on_c, 0, 77, 127
2, 78336, Note_off_c, 0, 69, 64
2, 78480, Note_on_c, 0, 71, 127
2, 78576, Note_off_c, 0, 71, 64
2, 78600, Note_on_c, 0, 69, 127
2, 78624, Note_off_c, 0, 77, 64
2, 78696, Note_off_c, 0, 69, 64
2, 78720, Note_on_c, 0, 68, 127
2, 78720, Note_on_c, 0, 71, 127
2, 78912, Note_off_c, 0, 71, 64
2, 78912, Note_off_c, 0, 68, 64
2, 78960, Note_on_c, 0, 66, 127
2, 78960, Note_on_c, 0, 69, 127
2, 79152, Note_off_c, 0, 69, 64
2, 79152, Note_off_c, 0, 66, 64
2, 79200, Note_on_c, 0, 68, 127
2, 79200, Note_on_c, 0, 71, 127
2, 79392, Note_off_c, 0, 71, 64
2, 79392, Note_off_c, 0, 68, 64
2, 79440, Note_on_c, 0, 69, 127
2, 79440, Note_on_c, 0, 72, 127
2, 79632, Note_off_c, 0, 72, 64
2, 79632, Note_off_c, 0, 69, 64
2, 79680, Note_on_c, 0, 71, 127
2, 79680, Note_on_c, 0, 74, 127
2, 80064, Note_off_c, 0, 74, 64
2, 80064, Note_off_c, 0, 71, 64
2, 80160, Note_on_c, 0, 64, 127
2, 80160, Note_on_c, 0, 72, 127
2, 80544, Note_off_c, 0, 72, 64
2, 80640, Note_on_c, 0, 71, 127
2, 81024, Note_off_c, 0, 64, 64
2, 81024, Note_off_c, 0, 71, 64
2, 81120, Note_on_c, 0, 64, 127
2, 81504, Note_off_c, 0, 64, 64
2, 81600, Note_on_c, 0, 60, 127
2, 81984, Note_off_c, 0, 60, 64
2, 82080, Note_on_c, 0, 65, 127
2, 82464, Note_off_c, 0, 65, 64
2, 82560, Note_on_c, 0, 64, 127
2, 82944, Note_off_c, 0, 64, 64
2, 83040, Note_on_c, 0, 69, 127
2, 83040, Note_on_c, 0, 62, 127
2, 83424, Note_off_c, 0, 62, 64
2, 83424, Note_off_c, 0, 69, 64
2, 83520, Note_on_c, 0, 67, 127
2, 83520, Note_on_c, 0, 67, 127
2, 83712, Note_off_c, 0, 67, 64
2, 83760, Note_on_c, 0, 65, 127
2, 83904, Note_off_c, 0, 67, 64
2, 83952, Note_off_c, 0, 65, 64
2, 84000, Note_on_c, 0, 72, 127
2, 84000, Note_on_c, 0, 64, 127
2, 84384, Note_off_c, 0, 64, 64
2, 84384, Note_off_c, 0, 72, 64
2, 84480, Note_on_c, 0, 71, 127
2, 84480, Note_on_c, 0, 62, 127
2, 84864, Note_off_c, 0, 71, 64
2, 84960, Note_on_c, 0, 69, 127
2, 85248, Note_off_c, 0, 62, 64
2, 85320, Note_on_c, 0, 64, 127
2, 85344, Note_off_c, 0, 69, 64
2, 85416, Note_off_c, 0, 64, 64
2, 85440, Note_on_c, 0, 65, 127
2, 85440, Note_on_c, 0, 74, 127
2, 85632, Note_off_c, 0, 74, 64
2, 85632, Note_off_c, 0, 65, 64
2, 85680, Note_on_c, 0, 72, 127
2, 85680, Note_on_c, 0, 64, 127
2, 85872, Note_off_c, 0, 72, 64
2, 85920, Note_on_c, 0, 71, 127
2, 86064, Note_off_c, 0, 64, 64
2, 86160, Note_on_c, 0, 59, 127
2, 86304, Note_off_c, 0, 71, 64
2, 86352, Note_off_c, 0, 59, 64
2, 86400, Note_on_c, 0, 69, 127
2, 86400, Note_on_c, 0, 60, 127
2, 86592, Note_off_c, 0, 60, 64
2, 86592, Note_off_c, 0, 69, 64
2, 86640, Note_on_c, 0, 76, 127
2, 87024, Note_off_c, 0, 76, 64
2, 87120, Note_on_c, 0, 74, 127
2, 87552, Note_off_c, 0, 74, 64
2, 87600, Note_on_c, 0, 73, 127
2, 87600, Note_on_c, 0, 67, 127
2, 87792, Note_off_c, 0, 73, 64
2, 87840, Note_on_c, 0, 74, 127
2, 87984, Note_off_c, 0, 67, 64
2, 88080, Note_on_c, 0, 65, 127
2, 88272, Note_off_c, 0, 65, 64
2, 88320, Note_on_c, 0, 64, 127
2, 88512, Note_off_c, 0, 64, 64
2, 88512, Note_off_c, 0, 74, 64
2, 88560, Note_on_c, 0, 62, 127
2, 88560, Note_on_c, 0, 76, 127
2, 88656, Note_off_c, 0, 76, 64
2, 88680, Note_on_c, 0, 77, 127
2, 88776, Note_off_c, 0, 77, 64
2, 88800, Note_on_c, 0, 79, 127
2, 88944, Note_off_c, 0, 62, 64
2, 89040, Note_on_c, 0, 61, 127
2, 89232, Note_off_c, 0, 61, 64
2, 89280, Note_on_c, 0, 62, 127
2, 89472, Note_off_c, 0, 79, 64
2, 89472, Note_off_c, 0, 62, 64
2, 89520, Note_on_c, 0, 77, 127
2, 89520, Note_on_c, 0, 65, 127
2, 89616, Note_off_c, 0, 77, 64
2, 89640, Note_on_c, 0, 76, 127
2, 89712, Note_off_c, 0, 65, 64
2, 89736, Note_off_c, 0, 76, 64
2, 89760, Note_on_c, 0, 70, 127
2, 89760, Note_on_c, 0, 77, 127
2, 89952, Note_off_c, 0, 77, 64
2, 90000, Note_on_c, 0, 79, 127
2, 90144, Note_off_c, 0, 70, 64
2, 90192, Note_off_c, 0, 79, 64
2, 90240, Note_on_c, 0, 81, 127
2, 90240, Note_on_c, 0, 69, 127
2, 90624, Note_off_c, 0, 69, 64
2, 90720, Note_on_c, 0, 74, 127
2, 91104, Note_off_c, 0, 74, 64
2, 91200, Note_on_c, 0, 72, 127
2, 91296, Note_off_c, 0, 72, 64
2, 91320, Note_on_c, 0, 71, 127
2, 91416, Note_off_c, 0, 71, 64
2, 91440, Note_on_c, 0, 69, 127
2, 91584, Note_off_c, 0, 81, 64
2, 91824, Note_off_c, 0, 69, 64
2, 91920, Note_on_c, 0, 71, 127
2, 92112, Note_off_c, 0, 71, 64
2, 92160, Note_on_c, 0, 67, 127
2, 92160, Note_on_c, 0, 72, 127
2, 92256, Note_off_c, 0, 72, 64
2, 92280, Note_on_c, 0, 71, 127
2, 92352, Note_off_c, 0, 67, 64
2, 92376, Note_off_c, 0, 71, 64
2, 92400, Note_on_c, 0, 72, 127
2, 92400, Note_on_c, 0, 79, 127
2, 92400, Note_on_c, 0, 65, 127
2, 92496, Note_off_c, 0, 72, 64
2, 92520, Note_on_c, 0, 74, 127
2, 92592, Note_off_c, 0, 65, 64
2, 92616, Note_off_c, 0, 74, 64
2, 92640, Note_on_c, 0, 64, 127
2, 92640, Note_on_c, 0, 76, 127
2, 92784, Note_off_c, 0, 79, 64
2, 92832, Note_off_c, 0, 76, 64
2, 92832, Note_off_c, 0, 64, 64
2, 92880, Note_on_c, 0, 65, 127
2, 92880, Note_on_c, 0, 74, 127
2, 92880, Note_on_c, 0, 77, 127
2, 93072, Note_off_c, 0, 77, 64
2, 93072, Note_off_c, 0, 74, 64
2, 93072, Note_off_c, 0, 65, 64
2, 93120, Note_on_c, 0, 72, 127
2, 93120, Note_on_c, 0, 76, 127
2, 93120, Note_on_c, 0, 67, 127
2, 93216, Note_off_c, 0, 67, 64
2, 93216, Note_off_c, 0, 76, 64
2, 93240, Note_on_c, 0, 59, 127
2, 93240, Note_on_c, 0, 74, 127
2, 93336, Note_off_c, 0, 74, 64
2, 93336, Note_off_c, 0, 59, 64
2, 93360, Note_on_c, 0, 60, 127
2, 93360, Note_on_c, 0, 76, 127
2, 93456, Note_off_c, 0, 76, 64
2, 93456, Note_off_c, 0, 60, 64
2, 93480, Note_on_c, 0, 77, 127
2, 93480, Note_on_c, 0, 62, 127
2, 93576, Note_off_c, 0, 62, 64
2, 93576, Note_off_c, 0, 77, 64
2, 93600, Note_on_c, 0, 79, 127
2, 93600, Note_on_c, 0, 64, 127
2, 93792, Note_off_c, 0, 64, 64
2, 93792, Note_off_c, 0, 72, 64
2, 93792, Note_off_c, 0, 79, 64
2, 93840, Note_on_c, 0, 62, 127
2, 93840, Note_on_c, 0, 71, 127
2, 93840, Note_on_c, 0, 81, 127
2, 93936, Note_off_c, 0, 71, 64
2, 93960, Note_on_c, 0, 69, 127
2, 94056, Note_off_c, 0, 69, 64
2, 94080, Note_on_c, 0, 74, 127
2, 94272, Note_off_c, 0, 62, 64
2, 94272, Note_off_c, 0, 74, 64
2, 94272, Note_off_c, 0, 81, 64
2, 94320, Note_on_c, 0, 79, 127
2, 94320, Note_on_c, 0, 64, 127
2, 94416, Note_off_c, 0, 64, 64
2, 94416, Note_off_c, 0, 79, 64
2, 94440, Note_on_c, 0, 77, 127
2, 94440, Note_on_c, 0, 65, 127
2, 94536, Note_off_c, 0, 65, 64
2, 94536, Note_off_c, 0, 77, 64
2, 94560, Note_on_c, 0, 76, 127
2, 94560, Note_on_c, 0, 67, 127
2, 94752, Note_off_c, 0, 67, 64
2, 94752, Note_off_c, 0, 76, 64
2, 94800, Note_on_c, 0, 74, 127
2, 94800, Note_on_c, 0, 62, 127
2, 94992, Note_off_c, 0, 62, 64
2, 94992, Note_off_c, 0, 74, 64
2, 95040, Note_on_c, 0, 73, 127
2, 95040, Note_on_c, 0, 69, 127
2, 95232, Note_off_c, 0, 69, 64
2, 95232, Note_off_c, 0, 73, 64
2, 95280, Note_on_c, 0, 62, 127
2, 95280, Note_on_c, 0, 74, 127
2, 95376, Note_off_c, 0, 62, 64
2, 95400, Note_on_c, 0, 64, 127
2, 95496, Note_off_c, 0, 64, 64
2, 95520, Note_on_c, 0, 65, 127
2, 95664, Note_off_c, 0, 74, 64
2, 95712, Note_off_c, 0, 65, 64
2, 95760, Note_on_c, 0, 67, 127
2, 95760, Note_on_c, 0, 72, 127
2, 95952, Note_off_c, 0, 72, 64
2, 95952, Note_off_c, 0, 67, 64
2, 96000, Note_on_c, 0, 69, 127
2, 96000, Note_on_c, 0, 72, 127
2, 96192, Note_off_c, 0, 72, 64
2, 96192, Note_off_c, 0, 69, 64
2, 96240, Note_on_c, 0, 64, 127
2, 96240, Note_on_c, 0, 71, 127
2, 96240, Note_on_c, 0, 76, 127
2, 96432, Note_off_c, 0, 71, 64
2, 96480, Note_on_c, 0, 69, 127
2, 96624, Note_off_c, 0, 76, 64
2, 96624, Note_off_c, 0, 64, 64
2, 96720, Note_on_c, 0, 74, 127
2, 96720, Note_on_c, 0, 65, 127
2, 96816, Note_off_c, 0, 65, 64
2, 96816, Note_off_c, 0, 74, 64
2, 96840, Note_on_c, 0, 76, 127
2, 96840, Note_on_c, 0, 67, 127
2, 96936, Note_off_c, 0, 67, 64
2, 96936, Note_off_c, 0, 76, 64
2, 96960, Note_on_c, 0, 65, 127
2, 96960, Note_on_c, 0, 77, 127
2, 97056, Note_off_c, 0, 65, 64
2, 97080, Note_on_c, 0, 64, 127
2, 97152, Note_off_c, 0, 69, 64
2, 97176, Note_off_c, 0, 64, 64
2, 97200, Note_on_c, 0, 62, 127
2, 97200, Note_on_c, 0, 71, 127
2, 97296, Note_off_c, 0, 71, 64
2, 97296, Note_off_c, 0, 62, 64
2, 97320, Note_on_c, 0, 69, 127
2, 97320, Note_on_c, 0, 60, 127
2, 97416, Note_off_c, 0, 60, 64
2, 97416, Note_off_c, 0, 69, 64
2, 97440, Note_on_c, 0, 67, 127
2, 97440, Note_on_c, 0, 59, 127
2, 97536, Note_off_c, 0, 77, 64
2, 97680, Note_on_c, 0, 76, 127
2, 97776, Note_off_c, 0, 76, 64
2, 97800, Note_on_c, 0, 74, 127
2, 97824, Note_off_c, 0, 59, 64
2, 97896, Note_off_c, 0, 74, 64
2, 97920, Note_on_c, 0, 76, 127
2, 98112, Note_off_c, 0, 67, 64
2, 98160, Note_on_c, 0, 69, 127
2, 98256, Note_off_c, 0, 69, 64
2, 98280, Note_on_c, 0, 67, 127
2, 98376, Note_off_c, 0, 67, 64
2, 98400, Note_on_c, 0, 65, 127
2, 98496, Note_off_c, 0, 76, 64
2, 98640, Note_on_c, 0, 74, 127
2, 98784, Note_off_c, 0, 65, 64
2, 98832, Note_off_c, 0, 74, 64
2, 98880, Note_on_c, 0, 72, 127
2, 98880, Note_on_c, 0, 64, 127
2, 99264, Note_off_c, 0, 64, 64
2, 99264, Note_off_c, 0, 72, 64
2, 99360, Note_on_c, 0, 65, 127
2, 99744, Note_off_c, 0, 65, 64
2, 99840, Note_on_c, 0, 64, 127
2, 100224, Note_off_c, 0, 64, 64
2, 100320, Note_on_c, 0, 65, 127
2, 100704, Note_off_c, 0, 65, 64
2, 100800, Note_on_c, 0, 67, 127
2, 101184, Note_off_c, 0, 67, 64
2, 101280, Note_on_c, 0, 60, 127
2, 101664, Note_off_c, 0, 60, 64
2, 101760, Note_on_c, 0, 64, 127
2, 101760, Note_on_c, 0, 64, 127
2, 102144, Note_off_c, 0, 64, 64
2, 102144, Note_off_c, 0, 64, 64
2, 102240, Note_on_c, 0, 62, 127
2, 102480, Note_on_c, 0, 67, 127
2, 102624, Note_off_c, 0, 62, 64
2, 102672, Note_off_c, 0, 67, 64
2, 102720, Note_on_c, 0, 60, 127
2, 102720, Note_on_c, 0, 64, 127
2, 102912, Note_off_c, 0, 64, 64
2, 102912, Note_off_c, 0, 60, 64
2, 102960, Note_on_c, 0, 65, 127
2, 102960, Note_on_c, 0, 69, 127
2, 103152, Note_off_c, 0, 69, 64
2, 103152, Note_off_c, 0, 65, 64
2, 103200, Note_on_c, 0, 67, 127
2, 103200, Note_on_c, 0, 64, 127
2, 103392, Note_off_c, 0, 64, 64
2, 103392, Note_off_c, 0, 67, 64
2, 103440, Note_on_c, 0, 76, 127
2, 103632, Note_off_c, 0, 76, 64
2, 103680, Note_on_c, 0, 74, 127
2, 103872, Note_off_c, 0, 74, 64
2, 103920, Note_on_c, 0, 79, 127
2, 103920, Note_on_c, 0, 71, 127
2, 104112, Note_off_c, 0, 71, 64
2, 104112, Note_off_c, 0, 79, 64
2, 104160, Note_on_c, 0, 67, 127
2, 104160, Note_on_c, 0, 76, 127
2, 104352, Note_off_c, 0, 76, 64
2, 104352, Note_off_c, 0, 67, 64
2, 104400, Note_on_c, 0, 72, 127
2, 104400, Note_on_c, 0, 81, 127
2, 104592, Note_off_c, 0, 81, 64
2, 104592, Note_off_c, 0, 72, 64
2, 104640, Note_on_c, 0, 78, 127
2, 104640, Note_on_c, 0, 69, 127
2, 104832, Note_off_c, 0, 69, 64
2, 104832, Note_off_c, 0, 78, 64
2, 104880, Note_on_c, 0, 74, 127
2, 104880, Note_on_c, 0, 77, 127
2, 105072, Note_off_c, 0, 74, 64
2, 105120, Note_on_c, 0, 71, 127
2, 105264, Note_off_c, 0, 77, 64
2, 105312, Note_off_c, 0, 71, 64
2, 105360, Note_on_c, 0, 72, 127
2, 105360, Note_on_c, 0, 76, 127
2, 105552, Note_off_c, 0, 76, 64
2, 105552, Note_off_c, 0, 72, 64
2, 105600, Note_on_c, 0, 71, 127
2, 105600, Note_on_c, 0, 78, 127
2, 105792, Note_off_c, 0, 78, 64
2, 105792, Note_off_c, 0, 71, 64
2, 105840, Note_on_c, 0, 76, 127
2, 105840, Note_on_c, 0, 79, 127
2, 106032, Note_off_c, 0, 79, 64
2, 106080, Note_on_c, 0, 81, 127
2, 106224, Note_off_c, 0, 76, 64
2, 106272, Note_off_c, 0, 81, 64
2, 106320, Note_on_c, 0, 83, 127
2, 106320, Note_on_c, 0, 75, 127
2, 106512, Note_off_c, 0, 75, 64
2, 106512, Note_off_c, 0, 83, 64
2, 106560, Note_on_c, 0, 76, 127
2, 106560, Note_on_c, 0, 84, 127
2, 106944, Note_off_c, 0, 84, 64
2, 107040, Note_on_c, 0, 83, 127
2, 107232, Note_off_c, 0, 76, 64
2, 107280, Note_on_c, 0, 74, 127
2, 107712, Note_off_c, 0, 83, 64
2, 107712, Note_off_c, 0, 74, 64
2, 107760, Note_on_c, 0, 81, 127
2, 107760, Note_on_c, 0, 72, 127
2, 107952, Note_off_c, 0, 72, 64
2, 107952, Note_off_c, 0, 81, 64
2, 108000, Note_on_c, 0, 69, 127
2, 108000, Note_on_c, 0, 78, 127
2, 108192, Note_off_c, 0, 78, 64
2, 108192, Note_off_c, 0, 69, 64
2, 108240, Note_on_c, 0, 83, 127
2, 108240, Note_on_c, 0, 74, 127
2, 108432, Note_off_c, 0, 74, 64
2, 108432, Note_off_c, 0, 83, 64
2, 108480, Note_on_c, 0, 71, 127
2, 108480, Note_on_c, 0, 80, 127
2, 108672, Note_off_c, 0, 80, 64
2, 108672, Note_off_c, 0, 71, 64
2, 108720, Note_on_c, 0, 76, 127
2, 108720, Note_on_c, 0, 68, 127
2, 108912, Note_off_c, 0, 68, 64
2, 108960, Note_on_c, 0, 69, 127
2, 109104, Note_off_c, 0, 76, 64
2, 109200, Note_on_c, 0, 81, 127
2, 109296, Note_off_c, 0, 81, 64
2, 109320, Note_on_c, 0, 80, 127
2, 109416, Note_off_c, 0, 80, 64
2, 109440, Note_on_c, 0, 81, 127
2, 109632, Note_off_c, 0, 81, 64
2, 109680, Note_on_c, 0, 76, 127
2, 109824, Note_off_c, 0, 69, 64
2, 109872, Note_off_c, 0, 76, 64
2, 109920, Note_on_c, 0, 77, 127
2, 110112, Note_off_c, 0, 77, 64
2, 110160, Note_on_c, 0, 76, 127
2, 110256, Note_off_c, 0, 76, 64
2, 110280, Note_on_c, 0, 74, 127
2, 110376, Note_off_c, 0, 74, 64
2, 110400, Note_on_c, 0, 72, 127
2, 110640, Note_on_c, 0, 68, 127
2, 110784, Note_off_c, 0, 72, 64
2, 110832, Note_off_c, 0, 68, 64
2, 110880, Note_on_c, 0, 69, 127
2, 111120, Note_on_c, 0, 72, 127
2, 111312, Note_off_c, 0, 72, 64
2, 111360, Note_on_c, 0, 77, 127
2, 111552, Note_off_c, 0, 69, 64
2, 111600, Note_on_c, 0, 69, 127
2, 111744, Note_off_c, 0, 77, 64
2, 111792, Note_off_c, 0, 69, 64
2, 111840, Note_on_c, 0, 68, 127
2, 111840, Note_on_c, 0, 76, 127
2, 112224, Note_off_c, 0, 68, 64
2, 112320, Note_on_c, 0, 69, 127
2, 112512, Note_off_c, 0, 76, 64
2, 112560, Note_on_c, 0, 76, 127
2, 112752, Note_off_c, 0, 76, 64
2, 112800, Note_on_c, 0, 72, 127
2, 112992, Note_off_c, 0, 72, 64
2, 113040, Note_on_c, 0, 77, 127
2, 113232, Note_off_c, 0, 77, 64
2, 113280, Note_on_c, 0, 74, 127
2, 113472, Note_off_c, 0, 74, 64
2, 113520, Note_on_c, 0, 71, 127
2, 113664, Note_off_c, 0, 69, 64
2, 113712, Note_off_c, 0, 71, 64
2, 113760, Note_on_c, 0, 67, 127
2, 113760, Note_on_c, 0, 79, 127
2, 113952, Note_off_c, 0, 67, 64
2, 114000, Note_on_c, 0, 74, 127
2, 114432, Note_off_c, 0, 74, 64
2, 114480, Note_on_c, 0, 72, 127
2, 114576, Note_off_c, 0, 72, 64
2, 114600, Note_on_c, 0, 71, 127
2, 114624, Note_off_c, 0, 79, 64
2, 114696, Note_off_c, 0, 71, 64
2, 114720, Note_on_c, 0, 72, 127
2, 114912, Note_off_c, 0, 72, 64
2, 114960, Note_on_c, 0, 71, 127
2, 115056, Note_off_c, 0, 71, 64
2, 115080, Note_on_c, 0, 69, 127
2, 115176, Note_off_c, 0, 69, 64
2, 115200, Note_on_c, 0, 67, 127
2, 115296, Note_off_c, 0, 67, 64
2, 115320, Note_on_c, 0, 69, 127
2, 115416, Note_off_c, 0, 69, 64
2, 115440, Note_on_c, 0, 71, 127
2, 115536, Note_off_c, 0, 71, 64
2, 115560, Note_on_c, 0, 72, 127
2, 115656, Note_off_c, 0, 72, 64
2, 115680, Note_on_c, 0, 74, 127
2, 115680, Note_on_c, 0, 79, 127
2, 115872, Note_off_c, 0, 74, 64
2, 115920, Note_on_c, 0, 71, 127
2, 116112, Note_off_c, 0, 71, 64
2, 116160, Note_on_c, 0, 76, 127
2, 116352, Note_off_c, 0, 76, 64
2, 116400, Note_on_c, 0, 72, 127
2, 116544, Note_off_c, 0, 79, 64
2, 116592, Note_off_c, 0, 72, 64
2, 116640, Note_on_c, 0, 69, 127
2, 116640, Note_on_c, 0, 77, 127
2, 116832, Note_off_c, 0, 69, 64
2, 116880, Note_on_c, 0, 71, 127
2, 116976, Note_off_c, 0, 71, 64
2, 117000, Note_on_c, 0, 72, 127
2, 117096, Note_off_c, 0, 72, 64
2, 117120, Note_on_c, 0, 74, 127
2, 117312, Note_off_c, 0, 77, 64
2, 117360, Note_on_c, 0, 76, 127
2, 117456, Note_off_c, 0, 76, 64
2, 117480, Note_on_c, 0, 74, 127
2, 117576, Note_off_c, 0, 74, 64
2, 117600, Note_on_c, 0, 76, 127
2, 117696, Note_off_c, 0, 74, 64
2, 117840, Note_on_c, 0, 72, 127
2, 117984, Note_off_c, 0, 76, 64
2, 118080, Note_on_c, 0, 74, 127
2, 118272, Note_off_c, 0, 72, 64
2, 118320, Note_on_c, 0, 71, 127
2, 118416, Note_off_c, 0, 71, 64
2, 118440, Note_on_c, 0, 69, 127
2, 118464, Note_off_c, 0, 74, 64
2, 118536, Note_off_c, 0, 69, 64
2, 118560, Note_on_c, 0, 71, 127
2, 118944, Note_off_c, 0, 71, 64
2, 119520, Note_on_c, 0, 67, 127
2, 119904, Note_off_c, 0, 67, 64
2, 120000, Note_on_c, 0, 72, 127
2, 120192, Note_off_c, 0, 72, 64
2, 120240, Note_on_c, 0, 71, 127
2, 120624, Note_off_c, 0, 71, 64
2, 120720, Note_on_c, 0, 69, 127
2, 121152, Note_off_c, 0, 69, 64
2, 121200, Note_on_c, 0, 67, 127
2, 121296, Note_off_c, 0, 67, 64
2, 121320, Note_on_c, 0, 65, 127
2, 121416, Note_off_c, 0, 65, 64
2, 121440, Note_on_c, 0, 64, 127
2, 121632, Note_off_c, 0, 64, 64
2, 121680, Note_on_c, 0, 66, 127
2, 121872, Note_off_c, 0, 66, 64
2, 121920, Note_on_c, 0, 67, 127
2, 122304, Note_off_c, 0, 67, 64
2, 122400, Note_on_c, 0, 65, 127
2, 122784, Note_off_c, 0, 65, 64
2, 122880, Note_on_c, 0, 69, 127
2, 122880, Note_on_c, 0, 64, 127
2, 123072, Note_off_c, 0, 64, 64
2, 123120, Note_on_c, 0, 65, 127
2, 123216, Note_off_c, 0, 65, 64
2, 123240, Note_on_c, 0, 64, 127
2, 123264, Note_off_c, 0, 69, 64
2, 123336, Note_off_c, 0, 64, 64
2, 123360, Note_on_c, 0, 62, 127
2, 123360, Note_on_c, 0, 74, 127
2, 123552, Note_off_c, 0, 74, 64
2, 123552, Note_off_c, 0, 62, 64
2, 123600, Note_on_c, 0, 72, 127
2, 123600, Note_on_c, 0, 64, 127
2, 123792, Note_off_c, 0, 64, 64
2, 123840, Note_on_c, 0, 69, 127
2, 123936, Note_off_c, 0, 69, 64
2, 123960, Note_on_c, 0, 67, 127
2, 124032, Note_off_c, 0, 72, 64
2, 124056, Note_off_c, 0, 67, 64
2, 124080, Note_on_c, 0, 71, 127
2, 124080, Note_on_c, 0, 65, 127
2, 124176, Note_off_c, 0, 71, 64
2, 124200, Note_on_c, 0, 69, 127
2, 124272, Note_off_c, 0, 65, 64
2, 124296, Note_off_c, 0, 69, 64
2, 124320, Note_on_c, 0, 64, 127
2, 124320, Note_on_c, 0, 68, 127
2, 124512, Note_off_c, 0, 68, 64
2, 124560, Note_on_c, 0, 69, 127
2, 124704, Note_off_c, 0, 64, 64
2, 124752, Note_off_c, 0, 69, 64
2, 124800, Note_on_c, 0, 65, 127
2, 124800, Note_on_c, 0, 71, 127
2, 124992, Note_off_c, 0, 65, 64
2, 125040, Note_on_c, 0, 64, 127
2, 125184, Note_off_c, 0, 71, 64
2, 125280, Note_on_c, 0, 69, 127
2, 125424, Note_off_c, 0, 64, 64
2, 125520, Note_on_c, 0, 65, 127
2, 125616, Note_off_c, 0, 65, 64
2, 125640, Note_on_c, 0, 64, 127
2, 125736, Note_off_c, 0, 64, 64
2, 125760, Note_on_c, 0, 62, 127
2, 125952, Note_off_c, 0, 69, 64
2, 125952, Note_off_c, 0, 62, 64
2, 126000, Note_on_c, 0, 64, 127
2, 126000, Note_on_c, 0, 68, 127
2, 126096, Note_off_c, 0, 64, 64
2, 126120, Note_on_c, 0, 62, 127
2, 126192, Note_off_c, 0, 68, 64
2, 126216, Note_off_c, 0, 62, 64
2, 126240, Note_on_c, 0, 60, 127
2, 126240, Note_on_c, 0, 69, 127
2, 126336, Note_off_c, 0, 60, 64
2, 126360, Note_on_c, 0, 62, 127
2, 126456, Note_off_c, 0, 62, 64
2, 126480, Note_on_c, 0, 64, 127
2, 126624, Note_off_c, 0, 69, 64
2, 126720, Note_on_c, 0, 71, 127
2, 126816, Note_off_c, 0, 64, 64
2, 126840, Note_on_c, 0, 66, 127
2, 126912, Note_off_c, 0, 71, 64
2, 126936, Note_off_c, 0, 66, 64
2, 126960, Note_on_c, 0, 68, 127
2, 127056, Note_off_c, 0, 68, 64
2, 127080, Note_on_c, 0, 69, 127
2, 127176, Note_off_c, 0, 69, 64
2, 127200, Note_on_c, 0, 71, 127
2, 127200, Note_on_c, 0, 76, 127
2, 127392, Note_off_c, 0, 71, 64
2, 127440, Note_on_c, 0, 72, 127
2, 127536, Note_off_c, 0, 72, 64
2, 127560, Note_on_c, 0, 71, 127
2, 127584, Note_off_c, 0, 76, 64
2, 127656, Note_off_c, 0, 71, 64
2, 127680, Note_on_c, 0, 81, 127
2, 127680, Note_on_c, 0, 69, 127
2, 127872, Note_off_c, 0, 69, 64
2, 127872, Note_off_c, 0, 81, 64
2, 127920, Note_on_c, 0, 79, 127
2, 127920, Note_on_c, 0, 71, 127
2, 128304, Note_off_c, 0, 71, 64
2, 128304, Note_off_c, 0, 79, 64
2, 128400, Note_on_c, 0, 69, 127
2, 128400, Note_on_c, 0, 77, 127
2, 128592, Note_off_c, 0, 69, 64
2, 128640, Note_on_c, 0, 67, 127
2, 128832, Note_off_c, 0, 77, 64
2, 128832, Note_off_c, 0, 67, 64
2, 128880, Note_on_c, 0, 76, 127
2, 128880, Note_on_c, 0, 69, 127
2, 128976, Note_off_c, 0, 69, 64
2, 128976, Note_off_c, 0, 76, 64
2, 129000, Note_on_c, 0, 71, 127
2, 129000, Note_on_c, 0, 74, 127
2, 129096, Note_off_c, 0, 74, 64
2, 129096, Note_off_c, 0, 71, 64
2, 129120, Note_on_c, 0, 72, 127
2, 129120, Note_on_c, 0, 72, 127
2, 129312, Note_off_c, 0, 72, 64
2, 129360, Note_on_c, 0, 74, 127
2, 129552, Note_off_c, 0, 74, 64
2, 129600, Note_on_c, 0, 76, 127
2, 129696, Note_off_c, 0, 72, 64
2, 129720, Note_on_c, 0, 71, 127
2, 129816, Note_off_c, 0, 71, 64
2, 129840, Note_on_c, 0, 72, 127
2, 129984, Note_off_c, 0, 76, 64
2, 130080, Note_on_c, 0, 74, 127
2, 130128, Note_off_c, 0, 72, 64
2, 130200, Note_on_c, 0, 69, 127
2, 130296, Note_off_c, 0, 69, 64
2, 130320, Note_on_c, 0, 71, 127
2, 130464, Note_off_c, 0, 74, 64
2, 130512, Note_off_c, 0, 71, 64
2, 130560, Note_on_c, 0, 72, 127
2, 130560, Note_on_c, 0, 72, 127
2, 130944, Note_off_c, 0, 72, 64
2, 130944, Note_off_c, 0, 72, 64
2, 131760, Note_on_c, 0, 67, 127
2, 131856, Note_off_c, 0, 67, 64
2, 131880, Note_on_c, 0, 69, 127
2, 131976, Note_off_c, 0, 69, 64
2, 132000, Note_on_c, 0, 71, 127
2, 132192, Note_off_c, 0, 71, 64
2, 132240, Note_on_c, 0, 69, 127
2, 132336, Note_off_c, 0, 69, 64
2, 132360, Note_on_c, 0, 71, 127
2, 132456, Note_off_c, 0, 71, 64
2, 132480, Note_on_c, 0, 72, 127
2, 132720, Note_on_c, 0, 76, 127
2, 132768, Note_off_c, 0, 72, 64
2, 132816, Note_off_c, 0, 76, 64
2, 132840, Note_on_c, 0, 71, 127
2, 132840, Note_on_c, 0, 74, 127
2, 132936, Note_off_c, 0, 74, 64
2, 132936, Note_off_c, 0, 71, 64
2, 132960, Note_on_c, 0, 72, 127
2, 132960, Note_on_c, 0, 69, 127
2, 133152, Note_off_c, 0, 72, 64
2, 133200, Note_on_c, 0, 74, 127
2, 133296, Note_off_c, 0, 74, 64
2, 133320, Note_on_c, 0, 72, 127
2, 133344, Note_off_c, 0, 69, 64
2, 133416, Note_off_c, 0, 72, 64
2, 133440, Note_on_c, 0, 67, 127
2, 133440, Note_on_c, 0, 71, 127
2, 133632, Note_off_c, 0, 67, 64
2, 133680, Note_on_c, 0, 69, 127
2, 133776, Note_off_c, 0, 69, 64
2, 133800, Note_on_c, 0, 67, 127
2, 133896, Note_off_c, 0, 67, 64
2, 133920, Note_on_c, 0, 65, 127
2, 134016, Note_off_c, 0, 71, 64
2, 134112, Note_off_c, 0, 65, 64
2, 134160, Note_on_c, 0, 69, 127
2, 134160, Note_on_c, 0, 67, 127
2, 134256, Note_off_c, 0, 67, 64
2, 134256, Note_off_c, 0, 69, 64
2, 134280, Note_on_c, 0, 65, 127
2, 134280, Note_on_c, 0, 71, 127
2, 134376, Note_off_c, 0, 71, 64
2, 134376, Note_off_c, 0, 65, 64
2, 134400, Note_on_c, 0, 72, 127
2, 134400, Note_on_c, 0, 64, 127
2, 134592, Note_off_c, 0, 64, 64
2, 134592, Note_off_c, 0, 72, 64
2, 134640, Note_on_c, 0, 62, 127
2, 134640, Note_on_c, 0, 79, 127
2, 134736, Note_off_c, 0, 79, 64
2, 134736, Note_off_c, 0, 62, 64
2, 134760, Note_on_c, 0, 77, 127
2, 134760, Note_on_c, 0, 60, 127
2, 134856, Note_off_c, 0, 60, 64
2, 134856, Note_off_c, 0, 77, 64
2, 134880, Note_on_c, 0, 76, 127
2, 134880, Note_on_c, 0, 59, 127
2, 135072, Note_off_c, 0, 59, 64
2, 135072, Note_off_c, 0, 76, 64
2, 135120, Note_on_c, 0, 77, 127
2, 135120, Note_on_c, 0, 60, 127
2, 135216, Note_off_c, 0, 77, 64
2, 135240, Note_on_c, 0, 76, 127
2, 135312, Note_off_c, 0, 60, 64
2, 135336, Note_off_c, 0, 76, 64
2, 135360, Note_on_c, 0, 62, 127
2, 135360, Note_on_c, 0, 74, 127
2, 135552, Note_off_c, 0, 62, 64
2, 135600, Note_on_c, 0, 59, 127
2, 135696, Note_off_c, 0, 59, 64
2, 135720, Note_on_c, 0, 60, 127
2, 135816, Note_off_c, 0, 60, 64
2, 135840, Note_on_c, 0, 62, 127
2, 136032, Note_off_c, 0, 62, 64
2, 136080, Note_on_c, 0, 60, 127
2, 136176, Note_off_c, 0, 60, 64
2, 136200, Note_on_c, 0, 62, 127
2, 136296, Note_off_c, 0, 62, 64
2, 136320, Note_on_c, 0, 64, 127
2, 136512, Note_off_c, 0, 74, 64
2, 136560, Note_on_c, 0, 77, 127
2, 136656, Note_off_c, 0, 77, 64
2, 136680, Note_on_c, 0, 76, 127
2, 136704, Note_off_c, 0, 64, 64
2, 136776, Note_off_c, 0, 76, 64
2, 136800, Note_on_c, 0, 74, 127
2, 136992, Note_off_c, 0, 74, 64
2, 137040, Note_on_c, 0, 68, 127
2, 137040, Note_on_c, 0, 76, 127
2, 137136, Note_off_c, 0, 76, 64
2, 137160, Note_on_c, 0, 74, 127
2, 137232, Note_off_c, 0, 68, 64
2, 137256, Note_off_c, 0, 74, 64
2, 137280, Note_on_c, 0, 69, 127
2, 137280, Note_on_c, 0, 72, 127
2, 137472, Note_off_c, 0, 72, 64
2, 137472, Note_off_c, 0, 69, 64
2, 137520, Note_on_c, 0, 74, 127
2, 137616, Note_off_c, 0, 74, 64
2, 137640, Note_on_c, 0, 72, 127
2, 137736, Note_off_c, 0, 72, 64
2, 137760, Note_on_c, 0, 64, 127
2, 137760, Note_on_c, 0, 71, 127
2, 137952, Note_off_c, 0, 71, 64
2, 137952, Note_off_c, 0, 64, 64
2, 138000, Note_on_c, 0, 72, 127
2, 138096, Note_off_c, 0, 72, 64
2, 138120, Note_on_c, 0, 71, 127
2, 138216, Note_off_c, 0, 71, 64
2, 138240, Note_on_c, 0, 64, 127
2, 138240, Note_on_c, 0, 69, 127
2, 138432, Note_off_c, 0, 69, 64
2, 138432, Note_off_c, 0, 64, 64
2, 138480, Note_on_c, 0, 71, 127
2, 138576, Note_off_c, 0, 71, 64
2, 138600, Note_on_c, 0, 69, 127
2, 138696, Note_off_c, 0, 69, 64
2, 138720, Note_on_c, 0, 68, 127
2, 138720, Note_on_c, 0, 64, 127
2, 138912, Note_off_c, 0, 64, 64
2, 138912, Note_off_c, 0, 68, 64
2, 138960, Note_on_c, 0, 66, 127
2, 139056, Note_off_c, 0, 66, 64
2, 139080, Note_on_c, 0, 68, 127
2, 139176, Note_off_c, 0, 68, 64
2, 139200, Note_on_c, 0, 69, 127
2, 139392, Note_off_c, 0, 69, 64
2, 139440, Note_on_c, 0, 64, 127
2, 139440, Note_on_c, 0, 68, 127
2, 139536, Note_off_c, 0, 68, 64
2, 139536, Note_off_c, 0, 64, 64
2, 139560, Note_on_c, 0, 66, 127
2, 139560, Note_on_c, 0, 69, 127
2, 139656, Note_off_c, 0, 69, 64
2, 139656, Note_off_c, 0, 66, 64
2, 139680, Note_on_c, 0, 71, 127
2, 139680, Note_on_c, 0, 68, 127
2, 139872, Note_off_c, 0, 68, 64
2, 139872, Note_off_c, 0, 71, 64
2, 139920, Note_on_c, 0, 66, 127
2, 139920, Note_on_c, 0, 69, 127
2, 140016, Note_off_c, 0, 69, 64
2, 140016, Note_off_c, 0, 66, 64
2, 140040, Note_on_c, 0, 68, 127
2, 140040, Note_on_c, 0, 71, 127
2, 140136, Note_off_c, 0, 71, 64
2, 140136, Note_off_c, 0, 68, 64
2, 140160, Note_on_c, 0, 69, 127
2, 140160, Note_on_c, 0, 72, 127
2, 140352, Note_off_c, 0, 72, 64
2, 140352, Note_off_c, 0, 69, 64
2, 140400, Note_on_c, 0, 71, 127
2, 140400, Note_on_c, 0, 68, 127
2, 140496, Note_off_c, 0, 68, 64
2, 140496, Note_off_c, 0, 71, 64
2, 140520, Note_on_c, 0, 69, 127
2, 140520, Note_on_c, 0, 72, 127
2, 140616, Note_off_c, 0, 72, 64
2, 140616, Note_off_c, 0, 69, 64
2, 140640, Note_on_c, 0, 71, 127
2, 140640, Note_on_c, 0, 74, 127
2, 140832, Note_off_c, 0, 74, 64
2, 140880, Note_on_c, 0, 76, 127
2, 140976, Note_off_c, 0, 76, 64
2, 141000, Note_on_c, 0, 74, 127
2, 141096, Note_off_c, 0, 74, 64
2, 141120, Note_on_c, 0, 72, 127
2, 141312, Note_off_c, 0, 71, 64
2, 141360, Note_on_c, 0, 69, 127
2, 141456, Note_off_c, 0, 69, 64
2, 141480, Note_on_c, 0, 68, 127
2, 141576, Note_off_c, 0, 68, 64
2, 141600, Note_on_c, 0, 69, 127
2, 141696, Note_off_c, 0, 72, 64
2, 141840, Note_on_c, 0, 74, 127
2, 141936, Note_off_c, 0, 74, 64
2, 141960, Note_on_c, 0, 72, 127
2, 142056, Note_off_c, 0, 72, 64
2, 142080, Note_on_c, 0, 71, 127
2, 142272, Note_off_c, 0, 69, 64
2, 142320, Note_on_c, 0, 68, 127
2, 142512, Note_off_c, 0, 68, 64
2, 142560, Note_on_c, 0, 66, 127
2, 142752, Note_off_c, 0, 66, 64
2, 142800, Note_on_c, 0, 69, 127
2, 142992, Note_off_c, 0, 69, 64
2, 143040, Note_on_c, 0, 68, 127
2, 143808, Note_off_c, 0, 68, 64
2, 143940, Note_off_c, 0, 71, 64
2, 143940, End_track
3, 0, Start_track
3, 0, Title_t, "J..S. Bach BWV 686"
3, 0, Program_c, 0, 0
3, 0, Note_on_c, 0, 59, 127
3, 768, Note_off_c, 0, 59, 64
3, 960, Note_on_c, 0, 52, 127
3, 1344, Note_off_c, 0, 52, 64
3, 1440, Note_on_c, 0, 59, 127
3, 1824, Note_off_c, 0, 59, 64
3, 1920, Note_on_c, 0, 60, 127
3, 2304, Note_off_c, 0, 60, 64
3, 2400, Note_on_c, 0, 59, 127
3, 2592, Note_off_c, 0, 59, 64
3, 2640, Note_on_c, 0, 57, 127
3, 2832, Note_off_c, 0, 57, 64
3, 2880, Note_on_c, 0, 55, 127
3, 3264, Note_off_c, 0, 55, 64
3, 3360, Note_on_c, 0, 57, 127
3, 3744, Note_off_c, 0, 57, 64
3, 3840, Note_on_c, 0, 59, 127
3, 4032, Note_off_c, 0, 59, 64
3, 4080, Note_on_c, 0, 52, 127
3, 4320, Note_on_c, 0, 64, 127
3, 4464, Note_off_c, 0, 52, 64
3, 4560, Note_on_c, 0, 50, 127
3, 4704, Note_off_c, 0, 64, 64
3, 4752, Note_off_c, 0, 50, 64
3, 4800, Note_on_c, 0, 49, 127
3, 4800, Note_on_c, 0, 57, 127
3, 4992, Note_off_c, 0, 49, 64
3, 5040, Note_on_c, 0, 50, 127
3, 5184, Note_off_c, 0, 57, 64
3, 5280, Note_on_c, 0, 64, 127
3, 5424, Note_off_c, 0, 50, 64
3, 5520, Note_on_c, 0, 49, 127
3, 5664, Note_off_c, 0, 64, 64
3, 5712, Note_off_c, 0, 49, 64
3, 5760, Note_on_c, 0, 50, 127
3, 5760, Note_on_c, 0, 65, 127
3, 5952, Note_off_c, 0, 50, 64
3, 6000, Note_on_c, 0, 62, 127
3, 6144, Note_off_c, 0, 65, 64
3, 6192, Note_off_c, 0, 62, 64
3, 6240, Note_on_c, 0, 60, 127
3, 6240, Note_on_c, 0, 64, 127
3, 6432, Note_off_c, 0, 64, 64
3, 6432, Note_off_c, 0, 60, 64
3, 6480, Note_on_c, 0, 62, 127
3, 6480, Note_on_c, 0, 59, 127
3, 6672, Note_off_c, 0, 59, 64
3, 6672, Note_off_c, 0, 62, 64
3, 6720, Note_on_c, 0, 57, 127
3, 6720, Note_on_c, 0, 60, 127
3, 7104, Note_off_c, 0, 60, 64
3, 7200, Note_on_c, 0, 62, 127
3, 7584, Note_off_c, 0, 62, 64
3, 7680, Note_on_c, 0, 64, 127
3, 7872, Note_off_c, 0, 64, 64
3, 7920, Note_on_c, 0, 60, 127
3, 8112, Note_off_c, 0, 60, 64
3, 8160, Note_on_c, 0, 65, 127
3, 8544, Note_off_c, 0, 65, 64
3, 8640, Note_on_c, 0, 59, 127
3, 8832, Note_off_c, 0, 57, 64
3, 8880, Note_on_c, 0, 56, 127
3, 8976, Note_off_c, 0, 56, 64
3, 9000, Note_on_c, 0, 54, 127
3, 9096, Note_off_c, 0, 54, 64
3, 9120, Note_on_c, 0, 56, 127
3, 9408, Note_off_c, 0, 59, 64
3, 9504, Note_off_c, 0, 56, 64
3, 9600, Note_on_c, 0, 57, 127
3, 9600, Note_on_c, 0, 57, 127
3, 9792, Note_off_c, 0, 57, 64
3, 9840, Note_on_c, 0, 69, 127
3, 9984, Note_off_c, 0, 57, 64
3, 10032, Note_off_c, 0, 69, 64
3, 10080, Note_on_c, 0, 59, 127
3, 10080, Note_on_c, 0, 67, 127
3, 10272, Note_off_c, 0, 67, 64
3, 10320, Note_on_c, 0, 65, 127
3, 10464, Note_off_c, 0, 59, 64
3, 10512, Note_off_c, 0, 65, 64
3, 10560, Note_on_c, 0, 60, 127
3, 10560, Note_on_c, 0, 64, 127
3, 10752, Note_off_c, 0, 64, 64
3, 10752, Note_off_c, 0, 60, 64
3, 10800, Note_on_c, 0, 59, 127
3, 10800, Note_on_c, 0, 62, 127
3, 10992, Note_off_c, 0, 62, 64
3, 10992, Note_off_c, 0, 59, 64
3, 11040, Note_on_c, 0, 57, 127
3, 11040, Note_on_c, 0, 60, 127
3, 11424, Note_off_c, 0, 60, 64
3, 11424, Note_off_c, 0, 57, 64
3, 11520, Note_on_c, 0, 55, 127
3, 11520, Note_on_c, 0, 59, 127
3, 11904, Note_off_c, 0, 55, 64
3, 12000, Note_on_c, 0, 52, 127
3, 12288, Note_off_c, 0, 59, 64
3, 12480, Note_on_c, 0, 57, 127
3, 12672, Note_off_c, 0, 52, 64
3, 12720, Note_on_c, 0, 53, 127
3, 12864, Note_off_c, 0, 57, 64
3, 12912, Note_off_c, 0, 53, 64
3, 12960, Note_on_c, 0, 55, 127
3, 12960, Note_on_c, 0, 59, 127
3, 13152, Note_off_c, 0, 59, 64
3, 13200, Note_on_c, 0, 60, 127
3, 13344, Note_off_c, 0, 55, 64
3, 13440, Note_on_c, 0, 57, 127
3, 13632, Note_off_c, 0, 60, 64
3, 13680, Note_on_c, 0, 62, 127
3, 13872, Note_off_c, 0, 62, 64
3, 13920, Note_on_c, 0, 64, 127
3, 14016, Note_off_c, 0, 57, 64
3, 14160, Note_on_c, 0, 59, 127
3, 14352, Note_off_c, 0, 59, 64
3, 14400, Note_on_c, 0, 60, 127
3, 14688, Note_off_c, 0, 64, 64
3, 14784, Note_off_c, 0, 60, 64
3, 14880, Note_on_c, 0, 62, 127
3, 15072, Note_off_c, 0, 62, 64
3, 15120, Note_on_c, 0, 60, 127
3, 15312, Note_off_c, 0, 60, 64
3, 15360, Note_on_c, 0, 59, 127
3, 15648, Note_off_c, 0, 59, 64
3, 15720, Note_on_c, 0, 60, 127
3, 15816, Note_off_c, 0, 60, 64
3, 15840, Note_on_c, 0, 59, 127
3, 15840, Note_on_c, 0, 62, 127
3, 16224, Note_off_c, 0, 59, 64
3, 16320, Note_on_c, 0, 52, 127
3, 16704, Note_off_c, 0, 52, 64
3, 16800, Note_on_c, 0, 59, 127
3, 16896, Note_off_c, 0, 62, 64
3, 16920, Note_on_c, 0, 60, 127
3, 17016, Note_off_c, 0, 60, 64
3, 17040, Note_on_c, 0, 62, 127
3, 17184, Note_off_c, 0, 59, 64
3, 17232, Note_off_c, 0, 62, 64
3, 17280, Note_on_c, 0, 60, 127
3, 17280, Note_on_c, 0, 60, 127
3, 17472, Note_off_c, 0, 60, 64
3, 17520, Note_on_c, 0, 64, 127
3, 17616, Note_off_c, 0, 64, 64
3, 17640, Note_on_c, 0, 62, 127
3, 17664, Note_off_c, 0, 60, 64
3, 17736, Note_off_c, 0, 62, 64
3, 17760, Note_on_c, 0, 59, 127
3, 17760, Note_on_c, 0, 64, 127
3, 17952, Note_off_c, 0, 64, 64
3, 17952, Note_off_c, 0, 59, 64
3, 18000, Note_on_c, 0, 57, 127
3, 18000, Note_on_c, 0, 60, 127
3, 18192, Note_off_c, 0, 60, 64
3, 18192, Note_off_c, 0, 57, 64
3, 18240, Note_on_c, 0, 62, 127
3, 18240, Note_on_c, 0, 56, 127
3, 18432, Note_off_c, 0, 56, 64
3, 18480, Note_on_c, 0, 57, 127
3, 18624, Note_off_c, 0, 62, 64
3, 18720, Note_on_c, 0, 64, 127
3, 18864, Note_off_c, 0, 57, 64
3, 18960, Note_on_c, 0, 56, 127
3, 19152, Note_off_c, 0, 56, 64
3, 19200, Note_on_c, 0, 57, 127
3, 19968, Note_off_c, 0, 57, 64
3, 19968, Note_off_c, 0, 64, 64
3, 20160, Note_on_c, 0, 62, 127
3, 20160, Note_on_c, 0, 59, 127
3, 20352, Note_off_c, 0, 59, 64
3, 20352, Note_off_c, 0, 62, 64
3, 20400, Note_on_c, 0, 60, 127
3, 20400, Note_on_c, 0, 67, 127
3, 20592, Note_off_c, 0, 67, 64
3, 20640, Note_on_c, 0, 69, 127
3, 20784, Note_off_c, 0, 60, 64
3, 20880, Note_on_c, 0, 62, 127
3, 21024, Note_off_c, 0, 69, 64
3, 21120, Note_on_c, 0, 62, 127
3, 21312, Note_off_c, 0, 62, 64
3, 21312, Note_off_c, 0, 62, 64
3, 21360, Note_on_c, 0, 67, 127
3, 21360, Note_on_c, 0, 59, 127
3, 21552, Note_off_c, 0, 59, 64
3, 21552, Note_off_c, 0, 67, 64
3, 21600, Note_on_c, 0, 64, 127
3, 21600, Note_on_c, 0, 55, 127
3, 21792, Note_off_c, 0, 55, 64
3, 21840, Note_on_c, 0, 57, 127
3, 21936, Note_off_c, 0, 57, 64
3, 21960, Note_on_c, 0, 59, 127
3, 22056, Note_off_c, 0, 59, 64
3, 22080, Note_on_c, 0, 52, 127
3, 22272, Note_off_c, 0, 64, 64
3, 22320, Note_on_c, 0, 60, 127
3, 22464, Note_off_c, 0, 52, 64
3, 22560, Note_on_c, 0, 53, 127
3, 22704, Note_off_c, 0, 60, 64
3, 22800, Note_on_c, 0, 59, 127
3, 22896, Note_off_c, 0, 59, 64
3, 22920, Note_on_c, 0, 57, 127
3, 22944, Note_off_c, 0, 53, 64
3, 23016, Note_off_c, 0, 57, 64
3, 23040, Note_on_c, 0, 47, 127
3, 23040, Note_on_c, 0, 64, 127
3, 23424, Note_off_c, 0, 47, 64
3, 23520, Note_on_c, 0, 59, 127
3, 23808, Note_off_c, 0, 64, 64
3, 23904, Note_off_c, 0, 59, 64
3, 24000, Note_on_c, 0, 60, 127
3, 24000, Note_on_c, 0, 64, 127
3, 24384, Note_off_c, 0, 64, 64
3, 24384, Note_off_c, 0, 60, 64
3, 24480, Note_on_c, 0, 62, 127
3, 24864, Note_off_c, 0, 62, 64
3, 24960, Note_on_c, 0, 60, 127
3, 25152, Note_off_c, 0, 60, 64
3, 25200, Note_on_c, 0, 59, 127
3, 25200, Note_on_c, 0, 59, 127
3, 25392, Note_off_c, 0, 59, 64
3, 25392, Note_off_c, 0, 59, 64
3, 25440, Note_on_c, 0, 57, 127
3, 25440, Note_on_c, 0, 60, 127
3, 25632, Note_off_c, 0, 60, 64
3, 25680, Note_on_c, 0, 62, 127
3, 25824, Note_off_c, 0, 57, 64
3, 25872, Note_off_c, 0, 62, 64
3, 25920, Note_on_c, 0, 64, 127
3, 25920, Note_on_c, 0, 55, 127
3, 26304, Note_off_c, 0, 55, 64
3, 26400, Note_on_c, 0, 53, 127
3, 26496, Note_off_c, 0, 64, 64
3, 26640, Note_on_c, 0, 62, 127
3, 26784, Note_off_c, 0, 53, 64
3, 26880, Note_on_c, 0, 52, 127
3, 27072, Note_off_c, 0, 62, 64
3, 27072, Note_off_c, 0, 52, 64
3, 27120, Note_on_c, 0, 60, 127
3, 27120, Note_on_c, 0, 53, 127
3, 27216, Note_off_c, 0, 60, 64
3, 27240, Note_on_c, 0, 59, 127
3, 27312, Note_off_c, 0, 53, 64
3, 27336, Note_off_c, 0, 59, 64
3, 27360, Note_on_c, 0, 55, 127
3, 27360, Note_on_c, 0, 60, 127
3, 27744, Note_off_c, 0, 60, 64
3, 27744, Note_off_c, 0, 55, 64
3, 27840, Note_on_c, 0, 55, 127
3, 28080, Note_on_c, 0, 47, 127
3, 28272, Note_off_c, 0, 47, 64
3, 28320, Note_on_c, 0, 48, 127
3, 28416, Note_off_c, 0, 55, 64
3, 28512, Note_off_c, 0, 48, 64
3, 28560, Note_on_c, 0, 50, 127
3, 28560, Note_on_c, 0, 54, 127
3, 28752, Note_off_c, 0, 54, 64
3, 28752, Note_off_c, 0, 50, 64
3, 28800, Note_on_c, 0, 55, 127
3, 28800, Note_on_c, 0, 52, 127
3, 29376, Note_off_c, 0, 55, 64
3, 29520, Note_on_c, 0, 57, 127
3, 29568, Note_off_c, 0, 52, 64
3, 29712, Note_off_c, 0, 57, 64
3, 29760, Note_on_c, 0, 53, 127
3, 29760, Note_on_c, 0, 58, 127
3, 29952, Note_off_c, 0, 58, 64
3, 29952, Note_off_c, 0, 53, 64
3, 30000, Note_on_c, 0, 54, 127
3, 30000, Note_on_c, 0, 57, 127
3, 30192, Note_off_c, 0, 57, 64
3, 30192, Note_off_c, 0, 54, 64
3, 30240, Note_on_c, 0, 56, 127
3, 30240, Note_on_c, 0, 64, 127
3, 30432, Note_off_c, 0, 56, 64
3, 30480, Note_on_c, 0, 57, 127
3, 30624, Note_off_c, 0, 64, 64
3, 30672, Note_off_c, 0, 57, 64
3, 30720, Note_on_c, 0, 59, 127
3, 30720, Note_on_c, 0, 62, 127
3, 31104, Note_off_c, 0, 59, 64
3, 31872, Note_off_c, 0, 62, 64
3, 31920, Note_on_c, 0, 59, 127
3, 32112, Note_off_c, 0, 59, 64
3, 32160, Note_on_c, 0, 56, 127
3, 32160, Note_on_c, 0, 64, 127
3, 32544, Note_off_c, 0, 56, 64
3, 32640, Note_on_c, 0, 57, 127
3, 33024, Note_off_c, 0, 64, 64
3, 33024, Note_off_c, 0, 57, 64
3, 33120, Note_on_c, 0, 58, 127
3, 33504, Note_off_c, 0, 58, 64
3, 33600, Note_on_c, 0, 57, 127
3, 33792, Note_off_c, 0, 57, 64
3, 33840, Note_on_c, 0, 55, 127
3, 34032, Note_off_c, 0, 55, 64
3, 34080, Note_on_c, 0, 53, 127
3, 34464, Note_off_c, 0, 53, 64
3, 34560, Note_on_c, 0, 52, 127
3, 34944, Note_off_c, 0, 52, 64
3, 35040, Note_on_c, 0, 50, 127
3, 35280, Note_on_c, 0, 59, 127
3, 35424, Note_off_c, 0, 50, 64
3, 35472, Note_off_c, 0, 59, 64
3, 35520, Note_on_c, 0, 60, 127
3, 35520, Note_on_c, 0, 48, 127
3, 35712, Note_off_c, 0, 60, 64
3, 35760, Note_on_c, 0, 62, 127
3, 35904, Note_off_c, 0, 48, 64
3, 35952, Note_off_c, 0, 62, 64
3, 36000, Note_on_c, 0, 64, 127
3, 36720, Note_on_c, 0, 53, 127
3, 36912, Note_off_c, 0, 53, 64
3, 36960, Note_on_c, 0, 55, 127
3, 37056, Note_off_c, 0, 64, 64
3, 37152, Note_off_c, 0, 55, 64
3, 37200, Note_on_c, 0, 64, 127
3, 37200, Note_on_c, 0, 52, 127
3, 37392, Note_off_c, 0, 52, 64
3, 37392, Note_off_c, 0, 64, 64
3, 37440, Note_on_c, 0, 65, 127
3, 37440, Note_on_c, 0, 57, 127
3, 37536, Note_off_c, 0, 65, 64
3, 37560, Note_on_c, 0, 64, 127
3, 37656, Note_off_c, 0, 64, 64
3, 37680, Note_on_c, 0, 62, 127
3, 37776, Note_off_c, 0, 62, 64
3, 37800, Note_on_c, 0, 61, 127
3, 37896, Note_off_c, 0, 61, 64
3, 37920, Note_on_c, 0, 62, 127
3, 38016, Note_off_c, 0, 57, 64
3, 38160, Note_on_c, 0, 56, 127
3, 38256, Note_off_c, 0, 56, 64
3, 38280, Note_on_c, 0, 57, 127
3, 38304, Note_off_c, 0, 62, 64
3, 38376, Note_off_c, 0, 57, 64
3, 38400, Note_on_c, 0, 64, 127
3, 38400, Note_on_c, 0, 59, 127
3, 38592, Note_off_c, 0, 59, 64
3, 38640, Note_on_c, 0, 60, 127
3, 38832, Note_off_c, 0, 60, 64
3, 38880, Note_on_c, 0, 62, 127
3, 39072, Note_off_c, 0, 62, 64
3, 39120, Note_on_c, 0, 60, 127
3, 39312, Note_off_c, 0, 60, 64
3, 39360, Note_on_c, 0, 59, 127
3, 39552, Note_off_c, 0, 59, 64
3, 39552, Note_off_c, 0, 64, 64
3, 39600, Note_on_c, 0, 47, 127
3, 39600, Note_on_c, 0, 59, 127
3, 39792, Note_off_c, 0, 47, 64
3, 39840, Note_on_c, 0, 48, 127
3, 40032, Note_off_c, 0, 48, 64
3, 40050, Note_off_c, 0, 59, 64
3, 40080, Note_on_c, 0, 57, 127
3, 40080, Note_on_c, 0, 52, 127
3, 40176, Note_off_c, 0, 52, 64
3, 40200, Note_on_c, 0, 51, 127
3, 40272, Note_off_c, 0, 57, 64
3, 40296, Note_off_c, 0, 51, 64
3, 40320, Note_on_c, 0, 56, 127
3, 40320, Note_on_c, 0, 52, 127
3, 40704, Note_off_c, 0, 52, 64
3, 40704, Note_off_c, 0, 56, 64
3, 40800, Note_on_c, 0, 59, 127
3, 41184, Note_off_c, 0, 59, 64
3, 41280, Note_on_c, 0, 52, 127
3, 41664, Note_off_c, 0, 52, 64
3, 41760, Note_on_c, 0, 59, 127
3, 42144, Note_off_c, 0, 59, 64
3, 42240, Note_on_c, 0, 60, 127
3, 42624, Note_off_c, 0, 60, 64
3, 42720, Note_on_c, 0, 59, 127
3, 42912, Note_off_c, 0, 59, 64
3, 42960, Note_on_c, 0, 57, 127
3, 43152, Note_off_c, 0, 57, 64
3, 43200, Note_on_c, 0, 55, 127
3, 43584, Note_off_c, 0, 55, 64
3, 43680, Note_on_c, 0, 57, 127
3, 44064, Note_off_c, 0, 57, 64
3, 44160, Note_on_c, 0, 59, 127
3, 44352, Note_off_c, 0, 59, 64
3, 44400, Note_on_c, 0, 52, 127
3, 44640, Note_on_c, 0, 64, 127
3, 44784, Note_off_c, 0, 52, 64
3, 44880, Note_on_c, 0, 50, 127
3, 45024, Note_off_c, 0, 64, 64
3, 45072, Note_off_c, 0, 50, 64
3, 45120, Note_on_c, 0, 49, 127
3, 45120, Note_on_c, 0, 57, 127
3, 45312, Note_off_c, 0, 49, 64
3, 45360, Note_on_c, 0, 50, 127
3, 45504, Note_off_c, 0, 57, 64
3, 45600, Note_on_c, 0, 64, 127
3, 45744, Note_off_c, 0, 50, 64
3, 45840, Note_on_c, 0, 49, 127
3, 45984, Note_off_c, 0, 64, 64
3, 46032, Note_off_c, 0, 49, 64
3, 46080, Note_on_c, 0, 50, 127
3, 46080, Note_on_c, 0, 65, 127
3, 46272, Note_off_c, 0, 50, 64
3, 46320, Note_on_c, 0, 62, 127
3, 46464, Note_off_c, 0, 65, 64
3, 46512, Note_off_c, 0, 62, 64
3, 46560, Note_on_c, 0, 60, 127
3, 46560, Note_on_c, 0, 64, 127
3, 46752, Note_off_c, 0, 64, 64
3, 46752, Note_off_c, 0, 60, 64
3, 46800, Note_on_c, 0, 62, 127
3, 46800, Note_on_c, 0, 59, 127
3, 46992, Note_off_c, 0, 59, 64
3, 46992, Note_off_c, 0, 62, 64
3, 47040, Note_on_c, 0, 57, 127
3, 47040, Note_on_c, 0, 60, 127
3, 47424, Note_off_c, 0, 60, 64
3, 47520, Note_on_c, 0, 62, 127
3, 47904, Note_off_c, 0, 62, 64
3, 48000, Note_on_c, 0, 64, 127
3, 48192, Note_off_c, 0, 64, 64
3, 48240, Note_on_c, 0, 60, 127
3, 48432, Note_off_c, 0, 60, 64
3, 48480, Note_on_c, 0, 65, 127
3, 48864, Note_off_c, 0, 65, 64
3, 48960, Note_on_c, 0, 59, 127
3, 49152, Note_off_c, 0, 57, 64
3, 49200, Note_on_c, 0, 56, 127
3, 49296, Note_off_c, 0, 56, 64
3, 49320, Note_on_c, 0, 54, 127
3, 49416, Note_off_c, 0, 54, 64
3, 49440, Note_on_c, 0, 56, 127
3, 49728, Note_off_c, 0, 59, 64
3, 49824, Note_off_c, 0, 56, 64
3, 49920, Note_on_c, 0, 57, 127
3, 49920, Note_on_c, 0, 57, 127
3, 50112, Note_off_c, 0, 57, 64
3, 50160, Note_on_c, 0, 69, 127
3, 50304, Note_off_c, 0, 57, 64
3, 50352, Note_off_c, 0, 69, 64
3, 50400, Note_on_c, 0, 59, 127
3, 50400, Note_on_c, 0, 67, 127
3, 50592, Note_off_c, 0, 67, 64
3, 50640, Note_on_c, 0, 65, 127
3, 50784, Note_off_c, 0, 59, 64
3, 50832, Note_off_c, 0, 65, 64
3, 50880, Note_on_c, 0, 60, 127
3, 50880, Note_on_c, 0, 64, 127
3, 51072, Note_off_c, 0, 64, 64
3, 51072, Note_off_c, 0, 60, 64
3, 51120, Note_on_c, 0, 59, 127
3, 51120, Note_on_c, 0, 62, 127
3, 51312, Note_off_c, 0, 62, 64
3, 51312, Note_off_c, 0, 59, 64
3, 51360, Note_on_c, 0, 57, 127
3, 51360, Note_on_c, 0, 60, 127
3, 51744, Note_off_c, 0, 60, 64
3, 51744, Note_off_c, 0, 57, 64
3, 51840, Note_on_c, 0, 55, 127
3, 51840, Note_on_c, 0, 59, 127
3, 52224, Note_off_c, 0, 55, 64
3, 52320, Note_on_c, 0, 52, 127
3, 52608, Note_off_c, 0, 59, 64
3, 52800, Note_on_c, 0, 57, 127
3, 52992, Note_off_c, 0, 52, 64
3, 53040, Note_on_c, 0, 53, 127
3, 53184, Note_off_c, 0, 57, 64
3, 53232, Note_off_c, 0, 53, 64
3, 53280, Note_on_c, 0, 55, 127
3, 53280, Note_on_c, 0, 59, 127
3, 53472, Note_off_c, 0, 59, 64
3, 53520, Note_on_c, 0, 60, 127
3, 53664, Note_off_c, 0, 55, 64
3, 53760, Note_on_c, 0, 57, 127
3, 53952, Note_off_c, 0, 60, 64
3, 54000, Note_on_c, 0, 62, 127
3, 54192, Note_off_c, 0, 62, 64
3, 54240, Note_on_c, 0, 64, 127
3, 54336, Note_off_c, 0, 57, 64
3, 54480, Note_on_c, 0, 59, 127
3, 54672, Note_off_c, 0, 59, 64
3, 54720, Note_on_c, 0, 60, 127
3, 55008, Note_off_c, 0, 64, 64
3, 55104, Note_off_c, 0, 60, 64
3, 55200, Note_on_c, 0, 62, 127
3, 55392, Note_off_c, 0, 62, 64
3, 55440, Note_on_c, 0, 60, 127
3, 55632, Note_off_c, 0, 60, 64
3, 55680, Note_on_c, 0, 59, 127
3, 55968, Note_off_c, 0, 59, 64
3, 56040, Note_on_c, 0, 60, 127
3, 56136, Note_off_c, 0, 60, 64
3, 56160, Note_on_c, 0, 59, 127
3, 56160, Note_on_c, 0, 62, 127
3, 56544, Note_off_c, 0, 59, 64
3, 56640, Note_on_c, 0, 52, 127
3, 57024, Note_off_c, 0, 52, 64
3, 57120, Note_on_c, 0, 59, 127
3, 57216, Note_off_c, 0, 62, 64
3, 57240, Note_on_c, 0, 60, 127
3, 57336, Note_off_c, 0, 60, 64
3, 57360, Note_on_c, 0, 62, 127
3, 57504, Note_off_c, 0, 59, 64
3, 57552, Note_off_c, 0, 62, 64
3, 57600, Note_on_c, 0, 60, 127
3, 57600, Note_on_c, 0, 60, 127
3, 57792, Note_off_c, 0, 60, 64
3, 57840, Note_on_c, 0, 64, 127
3, 57936, Note_off_c, 0, 64, 64
3, 57960, Note_on_c, 0, 62, 127
3, 57984, Note_off_c, 0, 60, 64
3, 58056, Note_off_c, 0, 62, 64
3, 58080, Note_on_c, 0, 59, 127
3, 58080, Note_on_c, 0, 64, 127
3, 58272, Note_off_c, 0, 64, 64
3, 58272, Note_off_c, 0, 59, 64
3, 58320, Note_on_c, 0, 57, 127
3, 58320, Note_on_c, 0, 60, 127
3, 58512, Note_off_c, 0, 60, 64
3, 58512, Note_off_c, 0, 57, 64
3, 58560, Note_on_c, 0, 62, 127
3, 58560, Note_on_c, 0, 56, 127
3, 58752, Note_off_c, 0, 56, 64
3, 58800, Note_on_c, 0, 57, 127
3, 58944, Note_off_c, 0, 62, 64
3, 59040, Note_on_c, 0, 64, 127
3, 59184, Note_off_c, 0, 57, 64
3, 59280, Note_on_c, 0, 56, 127
3, 59472, Note_off_c, 0, 56, 64
3, 59520, Note_on_c, 0, 57, 127
3, 60288, Note_off_c, 0, 57, 64
3, 60288, Note_off_c, 0, 64, 64
3, 60480, Note_on_c, 0, 62, 127
3, 60480, Note_on_c, 0, 59, 127
3, 60672, Note_off_c, 0, 59, 64
3, 60672, Note_off_c, 0, 62, 64
3, 60720, Note_on_c, 0, 60, 127
3, 60720, Note_on_c, 0, 67, 127
3, 60912, Note_off_c, 0, 67, 64
3, 60960, Note_on_c, 0, 69, 127
3, 61104, Note_off_c, 0, 60, 64
3, 61200, Note_on_c, 0, 62, 127
3, 61344, Note_off_c, 0, 69, 64
3, 61440, Note_on_c, 0, 62, 127
3, 61632, Note_off_c, 0, 62, 64
3, 61632, Note_off_c, 0, 62, 64
3, 61680, Note_on_c, 0, 67, 127
3, 61680, Note_on_c, 0, 59, 127
3, 61872, Note_off_c, 0, 59, 64
3, 61872, Note_off_c, 0, 67, 64
3, 61920, Note_on_c, 0, 64, 127
3, 61920, Note_on_c, 0, 55, 127
3, 62112, Note_off_c, 0, 55, 64
3, 62160, Note_on_c, 0, 57, 127
3, 62256, Note_off_c, 0, 57, 64
3, 62280, Note_on_c, 0, 59, 127
3, 62376, Note_off_c, 0, 59, 64
3, 62400, Note_on_c, 0, 52, 127
3, 62592, Note_off_c, 0, 64, 64
3, 62640, Note_on_c, 0, 60, 127
3, 62784, Note_off_c, 0, 52, 64
3, 62880, Note_on_c, 0, 53, 127
3, 63024, Note_off_c, 0, 60, 64
3, 63120, Note_on_c, 0, 59, 127
3, 63216, Note_off_c, 0, 59, 64
3, 63240, Note_on_c, 0, 57, 127
3, 63264, Note_off_c, 0, 53, 64
3, 63336, Note_off_c, 0, 57, 64
3, 63360, Note_on_c, 0, 47, 127
3, 63360, Note_on_c, 0, 64, 127
3, 63744, Note_off_c, 0, 47, 64
3, 63840, Note_on_c, 0, 59, 127
3, 64128, Note_off_c, 0, 64, 64
3, 64224, Note_off_c, 0, 59, 64
3, 64320, Note_on_c, 0, 60, 127
3, 64320, Note_on_c, 0, 64, 127
3, 64704, Note_off_c, 0, 64, 64
3, 64704, Note_off_c, 0, 60, 64
3, 64800, Note_on_c, 0, 62, 127
3, 65184, Note_off_c, 0, 62, 64
3, 65280, Note_on_c, 0, 60, 127
3, 65472, Note_off_c, 0, 60, 64
3, 65520, Note_on_c, 0, 59, 127
3, 65520, Note_on_c, 0, 59, 127
3, 65712, Note_off_c, 0, 59, 64
3, 65712, Note_off_c, 0, 59, 64
3, 65760, Note_on_c, 0, 57, 127
3, 65760, Note_on_c, 0, 60, 127
3, 65952, Note_off_c, 0, 60, 64
3, 66000, Note_on_c, 0, 62, 127
3, 66144, Note_off_c, 0, 57, 64
3, 66192, Note_off_c, 0, 62, 64
3, 66240, Note_on_c, 0, 64, 127
3, 66240, Note_on_c, 0, 55, 127
3, 66624, Note_off_c, 0, 55, 64
3, 66720, Note_on_c, 0, 53, 127
3, 66816, Note_off_c, 0, 64, 64
3, 66960, Note_on_c, 0, 62, 127
3, 67104, Note_off_c, 0, 53, 64
3, 67200, Note_on_c, 0, 52, 127
3, 67392, Note_off_c, 0, 62, 64
3, 67392, Note_off_c, 0, 52, 64
3, 67440, Note_on_c, 0, 60, 127
3, 67440, Note_on_c, 0, 53, 127
3, 67536, Note_off_c, 0, 60, 64
3, 67560, Note_on_c, 0, 59, 127
3, 67632, Note_off_c, 0, 53, 64
3, 67656, Note_off_c, 0, 59, 64
3, 67680, Note_on_c, 0, 55, 127
3, 67680, Note_on_c, 0, 60, 127
3, 68064, Note_off_c, 0, 60, 64
3, 68064, Note_off_c, 0, 55, 64
3, 68160, Note_on_c, 0, 55, 127
3, 68400, Note_on_c, 0, 47, 127
3, 68592, Note_off_c, 0, 47, 64
3, 68640, Note_on_c, 0, 48, 127
3, 68736, Note_off_c, 0, 55, 64
3, 68832, Note_off_c, 0, 48, 64
3, 68880, Note_on_c, 0, 50, 127
3, 68880, Note_on_c, 0, 54, 127
3, 69072, Note_off_c, 0, 54, 64
3, 69072, Note_off_c, 0, 50, 64
3, 69120, Note_on_c, 0, 55, 127
3, 69120, Note_on_c, 0, 52, 127
3, 69696, Note_off_c, 0, 55, 64
3, 69840, Note_on_c, 0, 57, 127
3, 69888, Note_off_c, 0, 52, 64
3, 70032, Note_off_c, 0, 57, 64
3, 70080, Note_on_c, 0, 53, 127
3, 70080, Note_on_c, 0, 58, 127
3, 70272, Note_off_c, 0, 58, 64
3, 70272, Note_off_c, 0, 53, 64
3, 70320, Note_on_c, 0, 54, 127
3, 70320, Note_on_c, 0, 57, 127
3, 70512, Note_off_c, 0, 57, 64
3, 70512, Note_off_c, 0, 54, 64
3, 70560, Note_on_c, 0, 56, 127
3, 70560, Note_on_c, 0, 64, 127
3, 70752, Note_off_c, 0, 56, 64
3, 70800, Note_on_c, 0, 57, 127
3, 70944, Note_off_c, 0, 64, 64
3, 70992, Note_off_c, 0, 57, 64
3, 71040, Note_on_c, 0, 59, 127
3, 71040, Note_on_c, 0, 62, 127
3, 71424, Note_off_c, 0, 59, 64
3, 72192, Note_off_c, 0, 62, 64
3, 72240, Note_on_c, 0, 59, 127
3, 72432, Note_off_c, 0, 59, 64
3, 72480, Note_on_c, 0, 56, 127
3, 72480, Note_on_c, 0, 64, 127
3, 72864, Note_off_c, 0, 56, 64
3, 72960, Note_on_c, 0, 57, 127
3, 73344, Note_off_c, 0, 64, 64
3, 73344, Note_off_c, 0, 57, 64
3, 73440, Note_on_c, 0, 58, 127
3, 73824, Note_off_c, 0, 58, 64
3, 73920, Note_on_c, 0, 57, 127
3, 74112, Note_off_c, 0, 57, 64
3, 74160, Note_on_c, 0, 55, 127
3, 74352, Note_off_c, 0, 55, 64
3, 74400, Note_on_c, 0, 53, 127
3, 74784, Note_off_c, 0, 53, 64
3, 74880, Note_on_c, 0, 52, 127
3, 75264, Note_off_c, 0, 52, 64
3, 75360, Note_on_c, 0, 50, 127
3, 75600, Note_on_c, 0, 59, 127
3, 75744, Note_off_c, 0, 50, 64
3, 75792, Note_off_c, 0, 59, 64
3, 75840, Note_on_c, 0, 60, 127
3, 75840, Note_on_c, 0, 48, 127
3, 76032, Note_off_c, 0, 60, 64
3, 76080, Note_on_c, 0, 62, 127
3, 76224, Note_off_c, 0, 48, 64
3, 76272, Note_off_c, 0, 62, 64
3, 76320, Note_on_c, 0, 64, 127
3, 77040, Note_on_c, 0, 53, 127
3, 77232, Note_off_c, 0, 53, 64
3, 77280, Note_on_c, 0, 55, 127
3, 77376, Note_off_c, 0, 64, 64
3, 77472, Note_off_c, 0, 55, 64
3, 77520, Note_on_c, 0, 64, 127
3, 77520, Note_on_c, 0, 52, 127
3, 77712, Note_off_c, 0, 52, 64
3, 77712, Note_off_c, 0, 64, 64
3, 77760, Note_on_c, 0, 65, 127
3, 77760, Note_on_c, 0, 57, 127
3, 77856, Note_off_c, 0, 65, 64
3, 77880, Note_on_c, 0, 64, 127
3, 77976, Note_off_c, 0, 64, 64
3, 78000, Note_on_c, 0, 62, 127
3, 78096, Note_off_c, 0, 62, 64
3, 78120, Note_on_c, 0, 61, 127
3, 78216, Note_off_c, 0, 61, 64
3, 78240, Note_on_c, 0, 62, 127
3, 78336, Note_off_c, 0, 57, 64
3, 78480, Note_on_c, 0, 56, 127
3, 78576, Note_off_c, 0, 56, 64
3, 78600, Note_on_c, 0, 57, 127
3, 78624, Note_off_c, 0, 62, 64
3, 78696, Note_off_c, 0, 57, 64
3, 78720, Note_on_c, 0, 64, 127
3, 78720, Note_on_c, 0, 59, 127
3, 78912, Note_off_c, 0, 59, 64
3, 78960, Note_on_c, 0, 60, 127
3, 79152, Note_off_c, 0, 60, 64
3, 79200, Note_on_c, 0, 62, 127
3, 79392, Note_off_c, 0, 62, 64
3, 79440, Note_on_c, 0, 60, 127
3, 79632, Note_off_c, 0, 60, 64
3, 79680, Note_on_c, 0, 59, 127
3, 79872, Note_off_c, 0, 59, 64
3, 79872, Note_off_c, 0, 64, 64
3, 79920, Note_on_c, 0, 47, 127
3, 79920, Note_on_c, 0, 59, 127
3, 80112, Note_off_c, 0, 47, 64
3, 80160, Note_on_c, 0, 48, 127
3, 80352, Note_off_c, 0, 48, 64
3, 80370, Note_off_c, 0, 59, 64
3, 80400, Note_on_c, 0, 57, 127
3, 80400, Note_on_c, 0, 52, 127
3, 80496, Note_off_c, 0, 52, 64
3, 80520, Note_on_c, 0, 51, 127
3, 80592, Note_off_c, 0, 57, 64
3, 80616, Note_off_c, 0, 51, 64
3, 80640, Note_on_c, 0, 52, 127
3, 80640, Note_on_c, 0, 56, 127
3, 81024, Note_off_c, 0, 56, 64
3, 81024, Note_off_c, 0, 52, 64
3, 81840, Note_on_c, 0, 57, 127
3, 82224, Note_off_c, 0, 57, 64
3, 82320, Note_on_c, 0, 59, 127
3, 82512, Note_off_c, 0, 59, 64
3, 82560, Note_on_c, 0, 60, 127
3, 82752, Note_off_c, 0, 60, 64
3, 82800, Note_on_c, 0, 59, 127
3, 82800, Note_on_c, 0, 55, 127
3, 82992, Note_off_c, 0, 59, 64
3, 83040, Note_on_c, 0, 57, 127
3, 83184, Note_off_c, 0, 55, 64
3, 83280, Note_on_c, 0, 53, 127
3, 83424, Note_off_c, 0, 57, 64
3, 83472, Note_off_c, 0, 53, 64
3, 83520, Note_on_c, 0, 52, 127
3, 83520, Note_on_c, 0, 59, 127
3, 83712, Note_off_c, 0, 52, 64
3, 83760, Note_on_c, 0, 50, 127
3, 83952, Note_off_c, 0, 50, 64
3, 84000, Note_on_c, 0, 48, 127
3, 84096, Note_off_c, 0, 59, 64
3, 84240, Note_on_c, 0, 57, 127
3, 84384, Note_off_c, 0, 48, 64
3, 84480, Note_on_c, 0, 50, 127
3, 84672, Note_off_c, 0, 57, 64
3, 84720, Note_on_c, 0, 55, 127
3, 84912, Note_off_c, 0, 55, 64
3, 84960, Note_on_c, 0, 54, 127
3, 85056, Note_off_c, 0, 50, 64
3, 85200, Note_on_c, 0, 48, 127
3, 85344, Note_off_c, 0, 54, 64
3, 85392, Note_off_c, 0, 48, 64
3, 85440, Note_on_c, 0, 47, 127
3, 85440, Note_on_c, 0, 56, 127
3, 85632, Note_off_c, 0, 56, 64
3, 85632, Note_off_c, 0, 47, 64
3, 85680, Note_on_c, 0, 48, 127
3, 85680, Note_on_c, 0, 57, 127
3, 85776, Note_off_c, 0, 48, 64
3, 85800, Note_on_c, 0, 50, 127
3, 85896, Note_off_c, 0, 50, 64
3, 85920, Note_on_c, 0, 52, 127
3, 86064, Note_off_c, 0, 57, 64
3, 86160, Note_on_c, 0, 56, 127
3, 86304, Note_off_c, 0, 52, 64
3, 86352, Note_off_c, 0, 56, 64
3, 86400, Note_on_c, 0, 52, 127
3, 86400, Note_on_c, 0, 57, 127
3, 86592, Note_off_c, 0, 57, 64
3, 86784, Note_off_c, 0, 52, 64
3, 86880, Note_on_c, 0, 61, 127
3, 86880, Note_on_c, 0, 57, 127
3, 87072, Note_off_c, 0, 61, 64
3, 87120, Note_on_c, 0, 62, 127
3, 87264, Note_off_c, 0, 57, 64
3, 87312, Note_off_c, 0, 62, 64
3, 87360, Note_on_c, 0, 64, 127
3, 87360, Note_on_c, 0, 55, 127
3, 87456, Note_off_c, 0, 55, 64
3, 87480, Note_on_c, 0, 57, 127
3, 87576, Note_off_c, 0, 57, 64
3, 87600, Note_on_c, 0, 58, 127
3, 87744, Note_off_c, 0, 64, 64
3, 87984, Note_off_c, 0, 58, 64
3, 88080, Note_on_c, 0, 57, 127
3, 88272, Note_off_c, 0, 57, 64
3, 88320, Note_on_c, 0, 58, 127
3, 88512, Note_off_c, 0, 58, 64
3, 88560, Note_on_c, 0, 57, 127
3, 88752, Note_off_c, 0, 57, 64
3, 88800, Note_on_c, 0, 55, 127
3, 89184, Note_off_c, 0, 55, 64
3, 89280, Note_on_c, 0, 57, 127
3, 89664, Note_off_c, 0, 57, 64
3, 89760, Note_on_c, 0, 62, 127
3, 90144, Note_off_c, 0, 62, 64
3, 90240, Note_on_c, 0, 60, 127
3, 90480, Note_on_c, 0, 57, 127
3, 90624, Note_off_c, 0, 60, 64
3, 90720, Note_on_c, 0, 65, 127
3, 90864, Note_off_c, 0, 57, 64
3, 90960, Note_on_c, 0, 59, 127
3, 91104, Note_off_c, 0, 65, 64
3, 91152, Note_off_c, 0, 59, 64
3, 91200, Note_on_c, 0, 64, 127
3, 91200, Note_on_c, 0, 60, 127
3, 91584, Note_off_c, 0, 60, 64
3, 91584, Note_off_c, 0, 64, 64
3, 91680, Note_on_c, 0, 62, 127
3, 91680, Note_on_c, 0, 62, 127
3, 92064, Note_off_c, 0, 62, 64
3, 92064, Note_off_c, 0, 62, 64
3, 92160, Note_on_c, 0, 64, 127
3, 92352, Note_off_c, 0, 64, 64
3, 92400, Note_on_c, 0, 55, 127
3, 92592, Note_off_c, 0, 55, 64
3, 92640, Note_on_c, 0, 60, 127
3, 93312, Note_off_c, 0, 60, 64
3, 94320, Note_on_c, 0, 55, 127
3, 94704, Note_off_c, 0, 55, 64
3, 94800, Note_on_c, 0, 53, 127
3, 94992, Note_off_c, 0, 53, 64
3, 95040, Note_on_c, 0, 52, 127
3, 95232, Note_off_c, 0, 52, 64
3, 95280, Note_on_c, 0, 53, 127
3, 95376, Note_off_c, 0, 53, 64
3, 95400, Note_on_c, 0, 55, 127
3, 95496, Note_off_c, 0, 55, 64
3, 95520, Note_on_c, 0, 57, 127
3, 96192, Note_off_c, 0, 57, 64
3, 96240, Note_on_c, 0, 59, 127
3, 96432, Note_off_c, 0, 59, 64
3, 96480, Note_on_c, 0, 60, 127
3, 96864, Note_off_c, 0, 60, 64
3, 96960, Note_on_c, 0, 53, 127
3, 97344, Note_off_c, 0, 53, 64
3, 97440, Note_on_c, 0, 55, 127
3, 97824, Note_off_c, 0, 55, 64
3, 97920, Note_on_c, 0, 64, 127
3, 97920, Note_on_c, 0, 52, 127
3, 98112, Note_off_c, 0, 64, 64
3, 98160, Note_on_c, 0, 61, 127
3, 98304, Note_off_c, 0, 52, 64
3, 98352, Note_off_c, 0, 61, 64
3, 98400, Note_on_c, 0, 53, 127
3, 98400, Note_on_c, 0, 57, 127
3, 98592, Note_off_c, 0, 57, 64
3, 98592, Note_off_c, 0, 53, 64
3, 98640, Note_on_c, 0, 57, 127
3, 98640, Note_on_c, 0, 59, 127
3, 98736, Note_off_c, 0, 57, 64
3, 98760, Note_on_c, 0, 56, 127
3, 98832, Note_off_c, 0, 59, 64
3, 98856, Note_off_c, 0, 56, 64
3, 98880, Note_on_c, 0, 60, 127
3, 98880, Note_on_c, 0, 57, 127
3, 99264, Note_off_c, 0, 57, 64
3, 99264, Note_off_c, 0, 60, 64
3, 100080, Note_on_c, 0, 60, 127
3, 100272, Note_off_c, 0, 60, 64
3, 100320, Note_on_c, 0, 57, 127
3, 100512, Note_off_c, 0, 57, 64
3, 100560, Note_on_c, 0, 62, 127
3, 100752, Note_off_c, 0, 62, 64
3, 100800, Note_on_c, 0, 59, 127
3, 101040, Note_on_c, 0, 55, 127
3, 101184, Note_off_c, 0, 59, 64
3, 101232, Note_off_c, 0, 55, 64
3, 101280, Note_on_c, 0, 55, 127
3, 101472, Note_off_c, 0, 55, 64
3, 101520, Note_on_c, 0, 60, 127
3, 101520, Note_on_c, 0, 52, 127
3, 101712, Note_off_c, 0, 52, 64
3, 101712, Note_off_c, 0, 60, 64
3, 101760, Note_on_c, 0, 59, 127
3, 101760, Note_on_c, 0, 55, 127
3, 101952, Note_off_c, 0, 55, 64
3, 101952, Note_off_c, 0, 59, 64
3, 102000, Note_on_c, 0, 60, 127
3, 102000, Note_on_c, 0, 52, 127
3, 102192, Note_off_c, 0, 52, 64
3, 102240, Note_on_c, 0, 53, 127
3, 102384, Note_off_c, 0, 60, 64
3, 102432, Note_off_c, 0, 53, 64
3, 102480, Note_on_c, 0, 55, 127
3, 102480, Note_on_c, 0, 58, 127
3, 102672, Note_off_c, 0, 55, 64
3, 102720, Note_on_c, 0, 48, 127
3, 102912, Note_off_c, 0, 58, 64
3, 102960, Note_on_c, 0, 57, 127
3, 103056, Note_off_c, 0, 57, 64
3, 103080, Note_on_c, 0, 59, 127
3, 103104, Note_off_c, 0, 48, 64
3, 103176, Note_off_c, 0, 59, 64
3, 103200, Note_on_c, 0, 60, 127
3, 103584, Note_off_c, 0, 60, 64
3, 103680, Note_on_c, 0, 59, 127
3, 104064, Note_off_c, 0, 59, 64
3, 104160, Note_on_c, 0, 60, 127
3, 104544, Note_off_c, 0, 60, 64
3, 104640, Note_on_c, 0, 62, 127
3, 105024, Note_off_c, 0, 62, 64
3, 105120, Note_on_c, 0, 55, 127
3, 105360, Note_on_c, 0, 52, 127
3, 105504, Note_off_c, 0, 55, 64
3, 105552, Note_off_c, 0, 52, 64
3, 105600, Note_on_c, 0, 59, 127
3, 105600, Note_on_c, 0, 50, 127
3, 105792, Note_off_c, 0, 50, 64
3, 105840, Note_on_c, 0, 55, 127
3, 105984, Note_off_c, 0, 59, 64
3, 106032, Note_off_c, 0, 55, 64
3, 106080, Note_on_c, 0, 57, 127
3, 106080, Note_on_c, 0, 54, 127
3, 106272, Note_off_c, 0, 54, 64
3, 106320, Note_on_c, 0, 47, 127
3, 106464, Note_off_c, 0, 57, 64
3, 106512, Note_off_c, 0, 47, 64
3, 106560, Note_on_c, 0, 55, 127
3, 106560, Note_on_c, 0, 52, 127
3, 106752, Note_off_c, 0, 52, 64
3, 106752, Note_off_c, 0, 55, 64
3, 106800, Note_on_c, 0, 57, 127
3, 106800, Note_on_c, 0, 54, 127
3, 106992, Note_off_c, 0, 54, 64
3, 106992, Note_off_c, 0, 57, 64
3, 107040, Note_on_c, 0, 55, 127
3, 107040, Note_on_c, 0, 59, 127
3, 107232, Note_off_c, 0, 55, 64
3, 107280, Note_on_c, 0, 56, 127
3, 107424, Note_off_c, 0, 59, 64
3, 107472, Note_off_c, 0, 56, 64
3, 107520, Note_on_c, 0, 57, 127
3, 107520, Note_on_c, 0, 60, 127
3, 107616, Note_off_c, 0, 60, 64
3, 107640, Note_on_c, 0, 62, 127
3, 107736, Note_off_c, 0, 62, 64
3, 107760, Note_on_c, 0, 64, 127
3, 107904, Note_off_c, 0, 57, 64
3, 108144, Note_off_c, 0, 64, 64
3, 108240, Note_on_c, 0, 62, 127
3, 108672, Note_off_c, 0, 62, 64
3, 108720, Note_on_c, 0, 52, 127
3, 108720, Note_on_c, 0, 60, 127
3, 108816, Note_off_c, 0, 60, 64
3, 108840, Note_on_c, 0, 59, 127
3, 108912, Note_off_c, 0, 52, 64
3, 108936, Note_off_c, 0, 59, 64
3, 108960, Note_on_c, 0, 48, 127
3, 108960, Note_on_c, 0, 60, 127
3, 109152, Note_off_c, 0, 48, 64
3, 109200, Note_on_c, 0, 53, 127
3, 109392, Note_off_c, 0, 53, 64
3, 109440, Note_on_c, 0, 57, 127
3, 109824, Note_off_c, 0, 60, 64
3, 109824, Note_off_c, 0, 57, 64
3, 109920, Note_on_c, 0, 56, 127
3, 109920, Note_on_c, 0, 62, 127
3, 110112, Note_off_c, 0, 62, 64
3, 110112, Note_off_c, 0, 56, 64
3, 110160, Note_on_c, 0, 59, 127
3, 110160, Note_on_c, 0, 57, 127
3, 110352, Note_off_c, 0, 57, 64
3, 110352, Note_off_c, 0, 59, 64
3, 110400, Note_on_c, 0, 64, 127
3, 110592, Note_off_c, 0, 64, 64
3, 111600, Note_on_c, 0, 62, 127
3, 111792, Note_off_c, 0, 62, 64
3, 111840, Note_on_c, 0, 59, 127
3, 112032, Note_off_c, 0, 59, 64
3, 112080, Note_on_c, 0, 64, 127
3, 112272, Note_off_c, 0, 64, 64
3, 112320, Note_on_c, 0, 60, 127
3, 112512, Note_off_c, 0, 60, 64
3, 112560, Note_on_c, 0, 57, 127
3, 112752, Note_off_c, 0, 57, 64
3, 112800, Note_on_c, 0, 65, 127
3, 113472, Note_off_c, 0, 65, 64
3, 113520, Note_on_c, 0, 53, 127
3, 113520, Note_on_c, 0, 62, 127
3, 113712, Note_off_c, 0, 62, 64
3, 113712, Note_off_c, 0, 53, 64
3, 113760, Note_on_c, 0, 50, 127
3, 113760, Note_on_c, 0, 59, 127
3, 113952, Note_off_c, 0, 59, 64
3, 113952, Note_off_c, 0, 50, 64
3, 114000, Note_on_c, 0, 55, 127
3, 114000, Note_on_c, 0, 62, 127
3, 114192, Note_off_c, 0, 62, 64
3, 114192, Note_off_c, 0, 55, 64
3, 114240, Note_on_c, 0, 52, 127
3, 114240, Note_on_c, 0, 64, 127
3, 114816, Note_off_c, 0, 64, 64
3, 114816, Note_off_c, 0, 52, 64
3, 114960, Note_on_c, 0, 54, 127
3, 114960, Note_on_c, 0, 62, 127
3, 115056, Note_off_c, 0, 62, 64
3, 115080, Note_on_c, 0, 60, 127
3, 115152, Note_off_c, 0, 54, 64
3, 115176, Note_off_c, 0, 60, 64
3, 115200, Note_on_c, 0, 55, 127
3, 115200, Note_on_c, 0, 59, 127
3, 115584, Note_off_c, 0, 59, 64
3, 115584, Note_off_c, 0, 55, 64
3, 115920, Note_on_c, 0, 59, 127
3, 115920, Note_on_c, 0, 55, 127
3, 116112, Note_off_c, 0, 55, 64
3, 116112, Note_off_c, 0, 59, 64
3, 116160, Note_on_c, 0, 57, 127
3, 116160, Note_on_c, 0, 60, 127
3, 116352, Note_off_c, 0, 57, 64
3, 116400, Note_on_c, 0, 52, 127
3, 116544, Note_off_c, 0, 60, 64
3, 116592, Note_off_c, 0, 52, 64
3, 116640, Note_on_c, 0, 62, 127
3, 116640, Note_on_c, 0, 53, 127
3, 116832, Note_off_c, 0, 53, 64
3, 116880, Note_on_c, 0, 55, 127
3, 116976, Note_off_c, 0, 55, 64
3, 117000, Note_on_c, 0, 57, 127
3, 117096, Note_off_c, 0, 57, 64
3, 117120, Note_on_c, 0, 50, 127
3, 117312, Note_off_c, 0, 62, 64
3, 117312, Note_off_c, 0, 50, 64
3, 117360, Note_on_c, 0, 55, 127
3, 117360, Note_on_c, 0, 59, 127
3, 117552, Note_off_c, 0, 59, 64
3, 117552, Note_off_c, 0, 55, 64
3, 117600, Note_on_c, 0, 52, 127
3, 117600, Note_on_c, 0, 55, 127
3, 117696, Note_off_c, 0, 52, 64
3, 117720, Note_on_c, 0, 50, 127
3, 117792, Note_off_c, 0, 55, 64
3, 117816, Note_off_c, 0, 50, 64
3, 117840, Note_on_c, 0, 52, 127
3, 117936, Note_off_c, 0, 52, 64
3, 117960, Note_on_c, 0, 54, 127
3, 118056, Note_off_c, 0, 54, 64
3, 118080, Note_on_c, 0, 55, 127
3, 118464, Note_off_c, 0, 55, 64
3, 118560, Note_on_c, 0, 62, 127
3, 118944, Note_off_c, 0, 62, 64
3, 119040, Note_on_c, 0, 67, 127
3, 119232, Note_off_c, 0, 67, 64
3, 119280, Note_on_c, 0, 65, 127
3, 119280, Note_on_c, 0, 62, 127
3, 119376, Note_off_c, 0, 62, 64
3, 119400, Note_on_c, 0, 60, 127
3, 119496, Note_off_c, 0, 60, 64
3, 119520, Note_on_c, 0, 59, 127
3, 119664, Note_off_c, 0, 65, 64
3, 119712, Note_off_c, 0, 59, 64
3, 119760, Note_on_c, 0, 60, 127
3, 119760, Note_on_c, 0, 64, 127
3, 119856, Note_off_c, 0, 60, 64
3, 119880, Note_on_c, 0, 59, 127
3, 119976, Note_off_c, 0, 59, 64
3, 120000, Note_on_c, 0, 57, 127
3, 120192, Note_off_c, 0, 57, 64
3, 120192, Note_off_c, 0, 64, 64
3, 120240, Note_on_c, 0, 62, 127
3, 120240, Note_on_c, 0, 59, 127
3, 120336, Note_off_c, 0, 59, 64
3, 120336, Note_off_c, 0, 62, 64
3, 120360, Note_on_c, 0, 60, 127
3, 120360, Note_on_c, 0, 57, 127
3, 120456, Note_off_c, 0, 57, 64
3, 120456, Note_off_c, 0, 60, 64
3, 120480, Note_on_c, 0, 59, 127
3, 120480, Note_on_c, 0, 56, 127
3, 120672, Note_off_c, 0, 56, 64
3, 120672, Note_off_c, 0, 59, 64
3, 120720, Note_on_c, 0, 61, 127
3, 120720, Note_on_c, 0, 57, 127
3, 120816, Note_off_c, 0, 57, 64
3, 120840, Note_on_c, 0, 55, 127
3, 120912, Note_off_c, 0, 61, 64
3, 120936, Note_off_c, 0, 55, 64
3, 120960, Note_on_c, 0, 62, 127
3, 120960, Note_on_c, 0, 53, 127
3, 121152, Note_off_c, 0, 53, 64
3, 121200, Note_on_c, 0, 55, 127
3, 121344, Note_off_c, 0, 62, 64
3, 121392, Note_off_c, 0, 55, 64
3, 121440, Note_on_c, 0, 60, 127
3, 121440, Note_on_c, 0, 57, 127
3, 121824, Note_off_c, 0, 57, 64
3, 121824, Note_off_c, 0, 60, 64
3, 121920, Note_on_c, 0, 52, 127
3, 121920, Note_on_c, 0, 59, 127
3, 122112, Note_off_c, 0, 59, 64
3, 122160, Note_on_c, 0, 64, 127
3, 122256, Note_off_c, 0, 64, 64
3, 122280, Note_on_c, 0, 62, 127
3, 122304, Note_off_c, 0, 52, 64
3, 122376, Note_off_c, 0, 62, 64
3, 122400, Note_on_c, 0, 57, 127
3, 122400, Note_on_c, 0, 60, 127
3, 122592, Note_off_c, 0, 60, 64
3, 122592, Note_off_c, 0, 57, 64
3, 122640, Note_on_c, 0, 59, 127
3, 122640, Note_on_c, 0, 55, 127
3, 122832, Note_off_c, 0, 59, 64
3, 122880, Note_on_c, 0, 61, 127
3, 123072, Note_off_c, 0, 61, 64
3, 123072, Note_off_c, 0, 55, 64
3, 123120, Note_on_c, 0, 53, 127
3, 123120, Note_on_c, 0, 62, 127
3, 123216, Note_off_c, 0, 62, 64
3, 123240, Note_on_c, 0, 60, 127
3, 123336, Note_off_c, 0, 60, 64
3, 123360, Note_on_c, 0, 59, 127
3, 123504, Note_off_c, 0, 53, 64
3, 123552, Note_off_c, 0, 59, 64
3, 123600, Note_on_c, 0, 60, 127
3, 123600, Note_on_c, 0, 52, 127
3, 123696, Note_off_c, 0, 52, 64
3, 123696, Note_off_c, 0, 60, 64
3, 123720, Note_on_c, 0, 59, 127
3, 123720, Note_on_c, 0, 50, 127
3, 123816, Note_off_c, 0, 50, 64
3, 123816, Note_off_c, 0, 59, 64
3, 123840, Note_on_c, 0, 48, 127
3, 123840, Note_on_c, 0, 57, 127
3, 124032, Note_off_c, 0, 57, 64
3, 124032, Note_off_c, 0, 48, 64
3, 124080, Note_on_c, 0, 50, 127
3, 124080, Note_on_c, 0, 59, 127
3, 124272, Note_off_c, 0, 59, 64
3, 124272, Note_off_c, 0, 50, 64
3, 124320, Note_on_c, 0, 52, 127
3, 124320, Note_on_c, 0, 60, 127
3, 124545, Note_off_c, 0, 60, 64
3, 124560, Note_on_c, 0, 59, 127
3, 124656, Note_off_c, 0, 59, 64
3, 124680, Note_on_c, 0, 60, 127
3, 124704, Note_off_c, 0, 52, 64
3, 124776, Note_off_c, 0, 60, 64
3, 124800, Note_on_c, 0, 62, 127
3, 124800, Note_on_c, 0, 50, 127
3, 124992, Note_off_c, 0, 62, 64
3, 125040, Note_on_c, 0, 56, 127
3, 125232, Note_off_c, 0, 56, 64
3, 125280, Note_on_c, 0, 57, 127
3, 125376, Note_off_c, 0, 50, 64
3, 125520, Note_on_c, 0, 48, 127
3, 125664, Note_off_c, 0, 57, 64
3, 125712, Note_off_c, 0, 48, 64
3, 125760, Note_on_c, 0, 59, 127
3, 125760, Note_on_c, 0, 47, 127
3, 125952, Note_off_c, 0, 47, 64
3, 126000, Note_on_c, 0, 52, 127
3, 126144, Note_off_c, 0, 59, 64
3, 126240, Note_on_c, 0, 57, 127
3, 126384, Note_off_c, 0, 52, 64
3, 126480, Note_on_c, 0, 50, 127
3, 126576, Note_off_c, 0, 50, 64
3, 126600, Note_on_c, 0, 48, 127
3, 126624, Note_off_c, 0, 57, 64
3, 126696, Note_off_c, 0, 48, 64
3, 126720, Note_on_c, 0, 56, 127
3, 126720, Note_on_c, 0, 47, 127
3, 126816, Note_off_c, 0, 56, 64
3, 126840, Note_on_c, 0, 57, 127
3, 126912, Note_off_c, 0, 47, 64
3, 126936, Note_off_c, 0, 57, 64
3, 126960, Note_on_c, 0, 59, 127
3, 127056, Note_off_c, 0, 59, 64
3, 127080, Note_on_c, 0, 57, 127
3, 127176, Note_off_c, 0, 57, 64
3, 127200, Note_on_c, 0, 56, 127
3, 127392, Note_off_c, 0, 56, 64
3, 127440, Note_on_c, 0, 57, 127
3, 127440, Note_on_c, 0, 48, 127
3, 127536, Note_off_c, 0, 57, 64
3, 127560, Note_on_c, 0, 55, 127
3, 127632, Note_off_c, 0, 48, 64
3, 127656, Note_off_c, 0, 55, 64
3, 127680, Note_on_c, 0, 54, 127
3, 127680, Note_on_c, 0, 50, 127
3, 127872, Note_off_c, 0, 54, 64
3, 127920, Note_on_c, 0, 55, 127
3, 128016, Note_off_c, 0, 55, 64
3, 128040, Note_on_c, 0, 53, 127
3, 128136, Note_off_c, 0, 53, 64
3, 128160, Note_on_c, 0, 52, 127
3, 128256, Note_off_c, 0, 50, 64
3, 128352, Note_off_c, 0, 52, 64
3, 128400, Note_on_c, 0, 48, 127
3, 128400, Note_on_c, 0, 53, 127
3, 128496, Note_off_c, 0, 53, 64
3, 128520, Note_on_c, 0, 52, 127
3, 128592, Note_off_c, 0, 48, 64
3, 128616, Note_off_c, 0, 52, 64
3, 128640, Note_on_c, 0, 50, 127
3, 128640, Note_on_c, 0, 47, 127
3, 128832, Note_off_c, 0, 47, 64
3, 128832, Note_off_c, 0, 50, 64
3, 128880, Note_on_c, 0, 48, 127
3, 128880, Note_on_c, 0, 55, 127
3, 128976, Note_off_c, 0, 48, 64
3, 129000, Note_on_c, 0, 50, 127
3, 129096, Note_off_c, 0, 50, 64
3, 129120, Note_on_c, 0, 52, 127
3, 129264, Note_off_c, 0, 55, 64
3, 129312, Note_off_c, 0, 52, 64
3, 129360, Note_on_c, 0, 53, 127
3, 129360, Note_on_c, 0, 53, 127
3, 129552, Note_off_c, 0, 53, 64
3, 129552, Note_off_c, 0, 53, 64
3, 129600, Note_on_c, 0, 55, 127
3, 129600, Note_on_c, 0, 52, 127
3, 129696, Note_off_c, 0, 52, 64
3, 129720, Note_on_c, 0, 50, 127
3, 129816, Note_off_c, 0, 50, 64
3, 129840, Note_on_c, 0, 52, 127
3, 129936, Note_off_c, 0, 52, 64
3, 129960, Note_on_c, 0, 53, 127
3, 130056, Note_off_c, 0, 53, 64
3, 130080, Note_on_c, 0, 55, 127
3, 130176, Note_off_c, 0, 55, 64
3, 130320, Note_on_c, 0, 53, 127
3, 130512, Note_off_c, 0, 53, 64
3, 130560, Note_on_c, 0, 52, 127
3, 130752, Note_off_c, 0, 52, 64
3, 130752, Note_off_c, 0, 55, 64
3, 130800, Note_on_c, 0, 54, 127
3, 130800, Note_on_c, 0, 50, 127
3, 130896, Note_off_c, 0, 50, 64
3, 130896, Note_off_c, 0, 54, 64
3, 130920, Note_on_c, 0, 52, 127
3, 130920, Note_on_c, 0, 55, 127
3, 131016, Note_off_c, 0, 55, 64
3, 131016, Note_off_c, 0, 52, 64
3, 131040, Note_on_c, 0, 54, 127
3, 131040, Note_on_c, 0, 57, 127
3, 131232, Note_off_c, 0, 57, 64
3, 131232, Note_off_c, 0, 54, 64
3, 131280, Note_on_c, 0, 55, 127
3, 131280, Note_on_c, 0, 52, 127
3, 131376, Note_off_c, 0, 52, 64
3, 131376, Note_off_c, 0, 55, 64
3, 131400, Note_on_c, 0, 54, 127
3, 131400, Note_on_c, 0, 57, 127
3, 131496, Note_off_c, 0, 57, 64
3, 131496, Note_off_c, 0, 54, 64
3, 131520, Note_on_c, 0, 55, 127
3, 131520, Note_on_c, 0, 59, 127
3, 131712, Note_off_c, 0, 59, 64
3, 131760, Note_on_c, 0, 62, 127
3, 131952, Note_off_c, 0, 62, 64
3, 132000, Note_on_c, 0, 67, 127
3, 132096, Note_off_c, 0, 55, 64
3, 132240, Note_on_c, 0, 54, 127
3, 132336, Note_off_c, 0, 54, 64
3, 132360, Note_on_c, 0, 55, 127
3, 132456, Note_off_c, 0, 55, 64
3, 132480, Note_on_c, 0, 57, 127
3, 132672, Note_off_c, 0, 67, 64
3, 132672, Note_off_c, 0, 57, 64
3, 132720, Note_on_c, 0, 60, 127
3, 132720, Note_on_c, 0, 55, 127
3, 132816, Note_off_c, 0, 60, 64
3, 132840, Note_on_c, 0, 62, 127
3, 132936, Note_off_c, 0, 62, 64
3, 132960, Note_on_c, 0, 64, 127
3, 133104, Note_off_c, 0, 55, 64
3, 133152, Note_off_c, 0, 64, 64
3, 133200, Note_on_c, 0, 57, 127
3, 133200, Note_on_c, 0, 54, 127
3, 133392, Note_off_c, 0, 54, 64
3, 133392, Note_off_c, 0, 57, 64
3, 133440, Note_on_c, 0, 55, 127
3, 133440, Note_on_c, 0, 59, 127
3, 133536, Note_off_c, 0, 59, 64
3, 133560, Note_on_c, 0, 57, 127
3, 133632, Note_off_c, 0, 55, 64
3, 133656, Note_off_c, 0, 57, 64
3, 133680, Note_on_c, 0, 59, 127
3, 133776, Note_off_c, 0, 59, 64
3, 133800, Note_on_c, 0, 60, 127
3, 133896, Note_off_c, 0, 60, 64
3, 133920, Note_on_c, 0, 62, 127
3, 134304, Note_off_c, 0, 62, 64
3, 134400, Note_on_c, 0, 55, 127
3, 134592, Note_off_c, 0, 55, 64
3, 134640, Note_on_c, 0, 59, 127
3, 134832, Note_off_c, 0, 59, 64
3, 134880, Note_on_c, 0, 52, 127
3, 135072, Note_off_c, 0, 52, 64
3, 135120, Note_on_c, 0, 57, 127
3, 135552, Note_off_c, 0, 57, 64
3, 135600, Note_on_c, 0, 56, 127
3, 135696, Note_off_c, 0, 56, 64
3, 135720, Note_on_c, 0, 57, 127
3, 135816, Note_off_c, 0, 57, 64
3, 135840, Note_on_c, 0, 59, 127
3, 136032, Note_off_c, 0, 59, 64
3, 136080, Note_on_c, 0, 57, 127
3, 136176, Note_off_c, 0, 57, 64
3, 136200, Note_on_c, 0, 59, 127
3, 136296, Note_off_c, 0, 59, 64
3, 136320, Note_on_c, 0, 52, 127
3, 136560, Note_on_c, 0, 62, 127
3, 136656, Note_off_c, 0, 62, 64
3, 136680, Note_on_c, 0, 60, 127
3, 136704, Note_off_c, 0, 52, 64
3, 136776, Note_off_c, 0, 60, 64
3, 136800, Note_on_c, 0, 59, 127
3, 136992, Note_off_c, 0, 59, 64
3, 137040, Note_on_c, 0, 60, 127
3, 137136, Note_off_c, 0, 60, 64
3, 137160, Note_on_c, 0, 59, 127
3, 137256, Note_off_c, 0, 59, 64
3, 137280, Note_on_c, 0, 57, 127
3, 137472, Note_off_c, 0, 57, 64
3, 137520, Note_on_c, 0, 52, 127
3, 137616, Note_off_c, 0, 52, 64
3, 137640, Note_on_c, 0, 54, 127
3, 137736, Note_off_c, 0, 54, 64
3, 137760, Note_on_c, 0, 62, 127
3, 137760, Note_on_c, 0, 56, 127
3, 137952, Note_off_c, 0, 56, 64
3, 137952, Note_off_c, 0, 62, 64
3, 138000, Note_on_c, 0, 54, 127
3, 138096, Note_off_c, 0, 54, 64
3, 138120, Note_on_c, 0, 56, 127
3, 138216, Note_off_c, 0, 56, 64
3, 138240, Note_on_c, 0, 60, 127
3, 138240, Note_on_c, 0, 57, 127
3, 138432, Note_off_c, 0, 57, 64
3, 138432, Note_off_c, 0, 60, 64
3, 138480, Note_on_c, 0, 56, 127
3, 138576, Note_off_c, 0, 56, 64
3, 138600, Note_on_c, 0, 57, 127
3, 138696, Note_off_c, 0, 57, 64
3, 138720, Note_on_c, 0, 59, 127
3, 138720, Note_on_c, 0, 59, 127
3, 138912, Note_off_c, 0, 59, 64
3, 138912, Note_off_c, 0, 59, 64
3, 138960, Note_on_c, 0, 60, 127
3, 139056, Note_off_c, 0, 60, 64
3, 139080, Note_on_c, 0, 59, 127
3, 139176, Note_off_c, 0, 59, 64
3, 139200, Note_on_c, 0, 60, 127
3, 139200, Note_on_c, 0, 57, 127
3, 139392, Note_off_c, 0, 57, 64
3, 139392, Note_off_c, 0, 60, 64
3, 139680, Note_on_c, 0, 62, 127
3, 139872, Note_off_c, 0, 62, 64
3, 139920, Note_on_c, 0, 60, 127
3, 140016, Note_off_c, 0, 60, 64
3, 140040, Note_on_c, 0, 62, 127
3, 140136, Note_off_c, 0, 62, 64
3, 140160, Note_on_c, 0, 64, 127
3, 140400, Note_on_c, 0, 62, 127
3, 140496, Note_off_c, 0, 62, 64
3, 140520, Note_on_c, 0, 60, 127
3, 140616, Note_off_c, 0, 60, 64
3, 140640, Note_on_c, 0, 59, 127
3, 140832, Note_off_c, 0, 59, 64
3, 140880, Note_on_c, 0, 57, 127
3, 140976, Note_off_c, 0, 57, 64
3, 141000, Note_on_c, 0, 59, 127
3, 141096, Note_off_c, 0, 59, 64
3, 141120, Note_on_c, 0, 52, 127
3, 141216, Note_off_c, 0, 64, 64
3, 141240, Note_on_c, 0, 62, 127
3, 141336, Note_off_c, 0, 62, 64
3, 141360, Note_on_c, 0, 60, 127
3, 141456, Note_off_c, 0, 60, 64
3, 141480, Note_on_c, 0, 59, 127
3, 141576, Note_off_c, 0, 59, 64
3, 141600, Note_on_c, 0, 60, 127
3, 141792, Note_off_c, 0, 60, 64
3, 141840, Note_on_c, 0, 57, 127
3, 142032, Note_off_c, 0, 57, 64
3, 142320, Note_on_c, 0, 59, 127
3, 142416, Note_off_c, 0, 59, 64
3, 142440, Note_on_c, 0, 61, 127
3, 142536, Note_off_c, 0, 61, 64
3, 142560, Note_on_c, 0, 63, 127
3, 142752, Note_off_c, 0, 63, 64
3, 142800, Note_on_c, 0, 61, 127
3, 142896, Note_off_c, 0, 61, 64
3, 142920, Note_on_c, 0, 63, 127
3, 143016, Note_off_c, 0, 63, 64
3, 143040, Note_on_c, 0, 64, 127
3, 143808, Note_off_c, 0, 64, 64
3, 143808, Note_off_c, 0, 52, 64
3, 143808, End_track
4, 0, Start_track
4, 0, Title_t, "Midi by Gary Bricault, 2000"
4, 0, Program_c, 0, 0
4, 11520, Note_on_c, 0, 52, 127
4, 12288, Note_off_c, 0, 52, 64
4, 12480, Note_on_c, 0, 45, 127
4, 12864, Note_off_c, 0, 45, 64
4, 12960, Note_on_c, 0, 52, 127
4, 13344, Note_off_c, 0, 52, 64
4, 13440, Note_on_c, 0, 53, 127
4, 13824, Note_off_c, 0, 53, 64
4, 13920, Note_on_c, 0, 52, 127
4, 14112, Note_off_c, 0, 52, 64
4, 14160, Note_on_c, 0, 50, 127
4, 14352, Note_off_c, 0, 50, 64
4, 14400, Note_on_c, 0, 48, 127
4, 14784, Note_off_c, 0, 48, 64
4, 14880, Note_on_c, 0, 50, 127
4, 15264, Note_off_c, 0, 50, 64
4, 15360, Note_on_c, 0, 52, 127
4, 15552, Note_off_c, 0, 52, 64
4, 15600, Note_on_c, 0, 47, 127
4, 15984, Note_off_c, 0, 47, 64
4, 16080, Note_on_c, 0, 45, 127
4, 16272, Note_off_c, 0, 45, 64
4, 16320, Note_on_c, 0, 44, 127
4, 16320, Note_on_c, 0, 59, 127
4, 16512, Note_off_c, 0, 44, 64
4, 16560, Note_on_c, 0, 45, 127
4, 16944, Note_off_c, 0, 45, 64
4, 17040, Note_on_c, 0, 44, 127
4, 17088, Note_off_c, 0, 59, 64
4, 17232, Note_off_c, 0, 44, 64
4, 17280, Note_on_c, 0, 52, 127
4, 17280, Note_on_c, 0, 45, 127
4, 17472, Note_off_c, 0, 45, 64
4, 17520, Note_on_c, 0, 47, 127
4, 17712, Note_off_c, 0, 47, 64
4, 17760, Note_on_c, 0, 48, 127
4, 18048, Note_off_c, 0, 52, 64
4, 18144, Note_off_c, 0, 48, 64
4, 18240, Note_on_c, 0, 47, 127
4, 18240, Note_on_c, 0, 59, 127
4, 18624, Note_off_c, 0, 47, 64
4, 18720, Note_on_c, 0, 52, 127
4, 19008, Note_off_c, 0, 59, 64
4, 19104, Note_off_c, 0, 52, 64
4, 19200, Note_on_c, 0, 45, 127
4, 19200, Note_on_c, 0, 60, 127
4, 19392, Note_off_c, 0, 45, 64
4, 19440, Note_on_c, 0, 47, 127
4, 19632, Note_off_c, 0, 47, 64
4, 19680, Note_on_c, 0, 48, 127
4, 19872, Note_off_c, 0, 48, 64
4, 19920, Note_on_c, 0, 45, 127
4, 19968, Note_off_c, 0, 60, 64
4, 20112, Note_off_c, 0, 45, 64
4, 20160, Note_on_c, 0, 50, 127
4, 20160, Note_on_c, 0, 59, 127
4, 20352, Note_off_c, 0, 50, 64
4, 20400, Note_on_c, 0, 52, 127
4, 20544, Note_off_c, 0, 59, 64
4, 20592, Note_off_c, 0, 52, 64
4, 20640, Note_on_c, 0, 57, 127
4, 20640, Note_on_c, 0, 53, 127
4, 20832, Note_off_c, 0, 53, 64
4, 20880, Note_on_c, 0, 50, 127
4, 21024, Note_off_c, 0, 57, 64
4, 21072, Note_off_c, 0, 50, 64
4, 21120, Note_on_c, 0, 55, 127
4, 21120, Note_on_c, 0, 47, 127
4, 21312, Note_off_c, 0, 47, 64
4, 21360, Note_on_c, 0, 43, 127
4, 21552, Note_off_c, 0, 43, 64
4, 21600, Note_on_c, 0, 48, 127
4, 21888, Note_off_c, 0, 55, 64
4, 22080, Note_on_c, 0, 57, 127
4, 22272, Note_off_c, 0, 48, 64
4, 22320, Note_on_c, 0, 45, 127
4, 22512, Note_off_c, 0, 45, 64
4, 22560, Note_on_c, 0, 53, 127
4, 22848, Note_off_c, 0, 57, 64
4, 22944, Note_off_c, 0, 53, 64
4, 23040, Note_on_c, 0, 59, 127
4, 23040, Note_on_c, 0, 52, 127
4, 23424, Note_off_c, 0, 52, 64
4, 23520, Note_on_c, 0, 40, 127
4, 23808, Note_off_c, 0, 59, 64
4, 23904, Note_off_c, 0, 40, 64
4, 24000, Note_on_c, 0, 45, 127
4, 24384, Note_off_c, 0, 45, 64
4, 27360, Note_on_c, 0, 52, 127
4, 27552, Note_off_c, 0, 52, 64
4, 27600, Note_on_c, 0, 53, 127
4, 27792, Note_off_c, 0, 53, 64
4, 27840, Note_on_c, 0, 55, 127
4, 28224, Note_off_c, 0, 55, 64
4, 28320, Note_on_c, 0, 57, 127
4, 28704, Note_off_c, 0, 57, 64
4, 28800, Note_on_c, 0, 55, 127
4, 28992, Note_off_c, 0, 55, 64
4, 29040, Note_on_c, 0, 53, 127
4, 29232, Note_off_c, 0, 53, 64
4, 29280, Note_on_c, 0, 52, 127
4, 29664, Note_off_c, 0, 52, 64
4, 29760, Note_on_c, 0, 50, 127
4, 30144, Note_off_c, 0, 50, 64
4, 30240, Note_on_c, 0, 48, 127
4, 30624, Note_off_c, 0, 48, 64
4, 30720, Note_on_c, 0, 47, 127
4, 30912, Note_off_c, 0, 47, 64
4, 30960, Note_on_c, 0, 48, 127
4, 31152, Note_off_c, 0, 48, 64
4, 31200, Note_on_c, 0, 47, 127
4, 31392, Note_off_c, 0, 47, 64
4, 31440, Note_on_c, 0, 45, 127
4, 31632, Note_off_c, 0, 45, 64
4, 31680, Note_on_c, 0, 44, 127
4, 31680, Note_on_c, 0, 59, 127
4, 32064, Note_off_c, 0, 44, 64
4, 32160, Note_on_c, 0, 40, 127
4, 32448, Note_off_c, 0, 59, 64
4, 32544, Note_off_c, 0, 40, 64
4, 32640, Note_on_c, 0, 60, 127
4, 32640, Note_on_c, 0, 45, 127
4, 33024, Note_off_c, 0, 45, 64
4, 33120, Note_on_c, 0, 52, 127
4, 33408, Note_off_c, 0, 60, 64
4, 33504, Note_off_c, 0, 52, 64
4, 33600, Note_on_c, 0, 62, 127
4, 33600, Note_on_c, 0, 53, 127
4, 33792, Note_off_c, 0, 53, 64
4, 33840, Note_on_c, 0, 52, 127
4, 34032, Note_off_c, 0, 52, 64
4, 34080, Note_on_c, 0, 53, 127
4, 34272, Note_off_c, 0, 53, 64
4, 34320, Note_on_c, 0, 55, 127
4, 34368, Note_off_c, 0, 62, 64
4, 34512, Note_off_c, 0, 55, 64
4, 34560, Note_on_c, 0, 60, 127
4, 34560, Note_on_c, 0, 57, 127
4, 34752, Note_off_c, 0, 57, 64
4, 34800, Note_on_c, 0, 45, 127
4, 34944, Note_off_c, 0, 60, 64
4, 35040, Note_on_c, 0, 59, 127
4, 35184, Note_off_c, 0, 45, 64
4, 35280, Note_on_c, 0, 44, 127
4, 35424, Note_off_c, 0, 59, 64
4, 35472, Note_off_c, 0, 44, 64
4, 35520, Note_on_c, 0, 45, 127
4, 35520, Note_on_c, 0, 57, 127
4, 35712, Note_off_c, 0, 45, 64
4, 35760, Note_on_c, 0, 47, 127
4, 35952, Note_off_c, 0, 47, 64
4, 36000, Note_on_c, 0, 48, 127
4, 36192, Note_off_c, 0, 48, 64
4, 36240, Note_on_c, 0, 50, 127
4, 36288, Note_off_c, 0, 57, 64
4, 36432, Note_off_c, 0, 50, 64
4, 36480, Note_on_c, 0, 55, 127
4, 36480, Note_on_c, 0, 52, 127
4, 36672, Note_off_c, 0, 52, 64
4, 36720, Note_on_c, 0, 47, 127
4, 36912, Note_off_c, 0, 47, 64
4, 36960, Note_on_c, 0, 52, 127
4, 37248, Note_off_c, 0, 55, 64
4, 37440, Note_on_c, 0, 53, 127
4, 37632, Note_off_c, 0, 52, 64
4, 37680, Note_on_c, 0, 45, 127
4, 37872, Note_off_c, 0, 45, 64
4, 37920, Note_on_c, 0, 50, 127
4, 38208, Note_off_c, 0, 53, 64
4, 38400, Note_on_c, 0, 52, 127
4, 38592, Note_off_c, 0, 50, 64
4, 38640, Note_on_c, 0, 48, 127
4, 38832, Note_off_c, 0, 48, 64
4, 38880, Note_on_c, 0, 47, 127
4, 39072, Note_off_c, 0, 47, 64
4, 39120, Note_on_c, 0, 45, 127
4, 39312, Note_off_c, 0, 45, 64
4, 39360, Note_on_c, 0, 44, 127
4, 39744, Note_off_c, 0, 44, 64
4, 39840, Note_on_c, 0, 45, 127
4, 40224, Note_off_c, 0, 45, 64
4, 40320, Note_on_c, 0, 40, 127
4, 40704, Note_off_c, 0, 52, 64
4, 40704, Note_off_c, 0, 40, 64
4, 51840, Note_on_c, 0, 52, 127
4, 52608, Note_off_c, 0, 52, 64
4, 52800, Note_on_c, 0, 45, 127
4, 53184, Note_off_c, 0, 45, 64
4, 53280, Note_on_c, 0, 52, 127
4, 53664, Note_off_c, 0, 52, 64
4, 53760, Note_on_c, 0, 53, 127
4, 54144, Note_off_c, 0, 53, 64
4, 54240, Note_on_c, 0, 52, 127
4, 54432, Note_off_c, 0, 52, 64
4, 54480, Note_on_c, 0, 50, 127
4, 54672, Note_off_c, 0, 50, 64
4, 54720, Note_on_c, 0, 48, 127
4, 55104, Note_off_c, 0, 48, 64
4, 55200, Note_on_c, 0, 50, 127
4, 55584, Note_off_c, 0, 50, 64
4, 55680, Note_on_c, 0, 52, 127
4, 55872, Note_off_c, 0, 52, 64
4, 55920, Note_on_c, 0, 47, 127
4, 56304, Note_off_c, 0, 47, 64
4, 56400, Note_on_c, 0, 45, 127
4, 56592, Note_off_c, 0, 45, 64
4, 56640, Note_on_c, 0, 44, 127
4, 56640, Note_on_c, 0, 59, 127
4, 56832, Note_off_c, 0, 44, 64
4, 56880, Note_on_c, 0, 45, 127
4, 57264, Note_off_c, 0, 45, 64
4, 57360, Note_on_c, 0, 44, 127
4, 57408, Note_off_c, 0, 59, 64
4, 57552, Note_off_c, 0, 44, 64
4, 57600, Note_on_c, 0, 52, 127
4, 57600, Note_on_c, 0, 45, 127
4, 57792, Note_off_c, 0, 45, 64
4, 57840, Note_on_c, 0, 47, 127
4, 58032, Note_off_c, 0, 47, 64
4, 58080, Note_on_c, 0, 48, 127
4, 58368, Note_off_c, 0, 52, 64
4, 58464, Note_off_c, 0, 48, 64
4, 58560, Note_on_c, 0, 47, 127
4, 58560, Note_on_c, 0, 59, 127
4, 58944, Note_off_c, 0, 47, 64
4, 59040, Note_on_c, 0, 52, 127
4, 59328, Note_off_c, 0, 59, 64
4, 59424, Note_off_c, 0, 52, 64
4, 59520, Note_on_c, 0, 45, 127
4, 59520, Note_on_c, 0, 60, 127
4, 59712, Note_off_c, 0, 45, 64
4, 59760, Note_on_c, 0, 47, 127
4, 59952, Note_off_c, 0, 47, 64
4, 60000, Note_on_c, 0, 48, 127
4, 60192, Note_off_c, 0, 48, 64
4, 60240, Note_on_c, 0, 45, 127
4, 60288, Note_off_c, 0, 60, 64
4, 60432, Note_off_c, 0, 45, 64
4, 60480, Note_on_c, 0, 50, 127
4, 60480, Note_on_c, 0, 59, 127
4, 60672, Note_off_c, 0, 50, 64
4, 60720, Note_on_c, 0, 52, 127
4, 60864, Note_off_c, 0, 59, 64
4, 60912, Note_off_c, 0, 52, 64
4, 60960, Note_on_c, 0, 57, 127
4, 60960, Note_on_c, 0, 53, 127
4, 61152, Note_off_c, 0, 53, 64
4, 61200, Note_on_c, 0, 50, 127
4, 61344, Note_off_c, 0, 57, 64
4, 61392, Note_off_c, 0, 50, 64
4, 61440, Note_on_c, 0, 55, 127
4, 61440, Note_on_c, 0, 47, 127
4, 61632, Note_off_c, 0, 47, 64
4, 61680, Note_on_c, 0, 43, 127
4, 61872, Note_off_c, 0, 43, 64
4, 61920, Note_on_c, 0, 48, 127
4, 62208, Note_off_c, 0, 55, 64
4, 62400, Note_on_c, 0, 57, 127
4, 62592, Note_off_c, 0, 48, 64
4, 62640, Note_on_c, 0, 45, 127
4, 62832, Note_off_c, 0, 45, 64
4, 62880, Note_on_c, 0, 53, 127
4, 63168, Note_off_c, 0, 57, 64
4, 63264, Note_off_c, 0, 53, 64
4, 63360, Note_on_c, 0, 59, 127
4, 63360, Note_on_c, 0, 52, 127
4, 63744, Note_off_c, 0, 52, 64
4, 63840, Note_on_c, 0, 40, 127
4, 64128, Note_off_c, 0, 59, 64
4, 64224, Note_off_c, 0, 40, 64
4, 64320, Note_on_c, 0, 45, 127
4, 64704, Note_off_c, 0, 45, 64
4, 67680, Note_on_c, 0, 52, 127
4, 67872, Note_off_c, 0, 52, 64
4, 67920, Note_on_c, 0, 53, 127
4, 68112, Note_off_c, 0, 53, 64
4, 68160, Note_on_c, 0, 55, 127
4, 68544, Note_off_c, 0, 55, 64
4, 68640, Note_on_c, 0, 57, 127
4, 69024, Note_off_c, 0, 57, 64
4, 69120, Note_on_c, 0, 55, 127
4, 69312, Note_off_c, 0, 55, 64
4, 69360, Note_on_c, 0, 53, 127
4, 69552, Note_off_c, 0, 53, 64
4, 69600, Note_on_c, 0, 52, 127
4, 69984, Note_off_c, 0, 52, 64
4, 70080, Note_on_c, 0, 50, 127
4, 70464, Note_off_c, 0, 50, 64
4, 70560, Note_on_c, 0, 48, 127
4, 70944, Note_off_c, 0, 48, 64
4, 71040, Note_on_c, 0, 47, 127
4, 71232, Note_off_c, 0, 47, 64
4, 71280, Note_on_c, 0, 48, 127
4, 71472, Note_off_c, 0, 48, 64
4, 71520, Note_on_c, 0, 47, 127
4, 71712, Note_off_c, 0, 47, 64
4, 71760, Note_on_c, 0, 45, 127
4, 71952, Note_off_c, 0, 45, 64
4, 72000, Note_on_c, 0, 44, 127
4, 72000, Note_on_c, 0, 59, 127
4, 72384, Note_off_c, 0, 44, 64
4, 72480, Note_on_c, 0, 40, 127
4, 72768, Note_off_c, 0, 59, 64
4, 72864, Note_off_c, 0, 40, 64
4, 72960, Note_on_c, 0, 60, 127
4, 72960, Note_on_c, 0, 45, 127
4, 73344, Note_off_c, 0, 45, 64
4, 73440, Note_on_c, 0, 52, 127
4, 73728, Note_off_c, 0, 60, 64
4, 73824, Note_off_c, 0, 52, 64
4, 73920, Note_on_c, 0, 62, 127
4, 73920, Note_on_c, 0, 53, 127
4, 74112, Note_off_c, 0, 53, 64
4, 74160, Note_on_c, 0, 52, 127
4, 74352, Note_off_c, 0, 52, 64
4, 74400, Note_on_c, 0, 53, 127
4, 74592, Note_off_c, 0, 53, 64
4, 74640, Note_on_c, 0, 55, 127
4, 74688, Note_off_c, 0, 62, 64
4, 74832, Note_off_c, 0, 55, 64
4, 74880, Note_on_c, 0, 60, 127
4, 74880, Note_on_c, 0, 57, 127
4, 75072, Note_off_c, 0, 57, 64
4, 75120, Note_on_c, 0, 45, 127
4, 75264, Note_off_c, 0, 60, 64
4, 75360, Note_on_c, 0, 59, 127
4, 75504, Note_off_c, 0, 45, 64
4, 75600, Note_on_c, 0, 44, 127
4, 75744, Note_off_c, 0, 59, 64
4, 75792, Note_off_c, 0, 44, 64
4, 75840, Note_on_c, 0, 45, 127
4, 75840, Note_on_c, 0, 57, 127
4, 76032, Note_off_c, 0, 45, 64
4, 76080, Note_on_c, 0, 47, 127
4, 76272, Note_off_c, 0, 47, 64
4, 76320, Note_on_c, 0, 48, 127
4, 76512, Note_off_c, 0, 48, 64
4, 76560, Note_on_c, 0, 50, 127
4, 76608, Note_off_c, 0, 57, 64
4, 76752, Note_off_c, 0, 50, 64
4, 76800, Note_on_c, 0, 55, 127
4, 76800, Note_on_c, 0, 52, 127
4, 76992, Note_off_c, 0, 52, 64
4, 77040, Note_on_c, 0, 47, 127
4, 77232, Note_off_c, 0, 47, 64
4, 77280, Note_on_c, 0, 52, 127
4, 77568, Note_off_c, 0, 55, 64
4, 77760, Note_on_c, 0, 53, 127
4, 77952, Note_off_c, 0, 52, 64
4, 78000, Note_on_c, 0, 45, 127
4, 78192, Note_off_c, 0, 45, 64
4, 78240, Note_on_c, 0, 50, 127
4, 78528, Note_off_c, 0, 53, 64
4, 78720, Note_on_c, 0, 52, 127
4, 78912, Note_off_c, 0, 50, 64
4, 78960, Note_on_c, 0, 48, 127
4, 79152, Note_off_c, 0, 48, 64
4, 79200, Note_on_c, 0, 47, 127
4, 79392, Note_off_c, 0, 47, 64
4, 79440, Note_on_c, 0, 45, 127
4, 79632, Note_off_c, 0, 45, 64
4, 79680, Note_on_c, 0, 44, 127
4, 80064, Note_off_c, 0, 44, 64
4, 80160, Note_on_c, 0, 45, 127
4, 80544, Note_off_c, 0, 45, 64
4, 80640, Note_on_c, 0, 40, 127
4, 81024, Note_off_c, 0, 52, 64
4, 81024, Note_off_c, 0, 40, 64
4, 85920, Note_on_c, 0, 52, 127
4, 86304, Note_off_c, 0, 52, 64
4, 86400, Note_on_c, 0, 48, 127
4, 86784, Note_off_c, 0, 48, 64
4, 86880, Note_on_c, 0, 53, 127
4, 87264, Note_off_c, 0, 53, 64
4, 87360, Note_on_c, 0, 52, 127
4, 87744, Note_off_c, 0, 52, 64
4, 87840, Note_on_c, 0, 50, 127
4, 88224, Note_off_c, 0, 50, 64
4, 88320, Note_on_c, 0, 55, 127
4, 88512, Note_off_c, 0, 55, 64
4, 88560, Note_on_c, 0, 53, 127
4, 88752, Note_off_c, 0, 53, 64
4, 88800, Note_on_c, 0, 52, 127
4, 89184, Note_off_c, 0, 52, 64
4, 89280, Note_on_c, 0, 50, 127
4, 89472, Note_off_c, 0, 50, 64
4, 89520, Note_on_c, 0, 38, 127
4, 89904, Note_off_c, 0, 38, 64
4, 90000, Note_on_c, 0, 40, 127
4, 90192, Note_off_c, 0, 40, 64
4, 90240, Note_on_c, 0, 41, 127
4, 90624, Note_off_c, 0, 41, 64
4, 90720, Note_on_c, 0, 38, 127
4, 91104, Note_off_c, 0, 38, 64
4, 91200, Note_on_c, 0, 45, 127
4, 91200, Note_on_c, 0, 57, 127
4, 91392, Note_off_c, 0, 45, 64
4, 91440, Note_on_c, 0, 43, 127
4, 91632, Note_off_c, 0, 43, 64
4, 91680, Note_on_c, 0, 41, 127
4, 92064, Note_off_c, 0, 41, 64
4, 92160, Note_off_c, 0, 57, 64
4, 92160, Note_on_c, 0, 40, 127
4, 92160, Note_on_c, 0, 55, 127
4, 92352, Note_off_c, 0, 40, 64
4, 92400, Note_on_c, 0, 48, 127
4, 92784, Note_off_c, 0, 48, 64
4, 92880, Note_on_c, 0, 50, 127
4, 92928, Note_off_c, 0, 55, 64
4, 93072, Note_off_c, 0, 50, 64
4, 93120, Note_on_c, 0, 60, 127
4, 93120, Note_on_c, 0, 52, 127
4, 93312, Note_off_c, 0, 52, 64
4, 93360, Note_on_c, 0, 40, 127
4, 93744, Note_off_c, 0, 40, 64
4, 93840, Note_on_c, 0, 41, 127
4, 93888, Note_off_c, 0, 60, 64
4, 94032, Note_off_c, 0, 41, 64
4, 94080, Note_on_c, 0, 59, 127
4, 94080, Note_on_c, 0, 43, 127
4, 94464, Note_off_c, 0, 43, 64
4, 94800, Note_on_c, 0, 55, 127
4, 94848, Note_off_c, 0, 59, 64
4, 95040, Note_on_c, 0, 57, 127
4, 95232, Note_off_c, 0, 55, 64
4, 95280, Note_on_c, 0, 53, 127
4, 95664, Note_off_c, 0, 53, 64
4, 95760, Note_on_c, 0, 52, 127
4, 95808, Note_off_c, 0, 57, 64
4, 96000, Note_on_c, 0, 54, 127
4, 96144, Note_off_c, 0, 52, 64
4, 96192, Note_off_c, 0, 54, 64
4, 96240, Note_on_c, 0, 56, 127
4, 96432, Note_off_c, 0, 56, 64
4, 96480, Note_on_c, 0, 57, 127
4, 96672, Note_off_c, 0, 57, 64
4, 96720, Note_on_c, 0, 53, 127
4, 96912, Note_off_c, 0, 53, 64
4, 96960, Note_on_c, 0, 50, 127
4, 97152, Note_off_c, 0, 50, 64
4, 97200, Note_on_c, 0, 47, 127
4, 97392, Note_off_c, 0, 47, 64
4, 97440, Note_on_c, 0, 52, 127
4, 97632, Note_off_c, 0, 52, 64
4, 97680, Note_on_c, 0, 50, 127
4, 97872, Note_off_c, 0, 50, 64
4, 97920, Note_on_c, 0, 49, 127
4, 98112, Note_off_c, 0, 49, 64
4, 98160, Note_on_c, 0, 45, 127
4, 98352, Note_off_c, 0, 45, 64
4, 98400, Note_on_c, 0, 50, 127
4, 98784, Note_off_c, 0, 50, 64
4, 98880, Note_on_c, 0, 45, 127
4, 99264, Note_off_c, 0, 45, 64
4, 107040, Note_on_c, 0, 52, 127
4, 107424, Note_off_c, 0, 52, 64
4, 107520, Note_on_c, 0, 48, 127
4, 107904, Note_off_c, 0, 48, 64
4, 108000, Note_on_c, 0, 50, 127
4, 108384, Note_off_c, 0, 50, 64
4, 108480, Note_on_c, 0, 52, 127
4, 108864, Note_off_c, 0, 52, 64
4, 108960, Note_on_c, 0, 45, 127
4, 109344, Note_off_c, 0, 45, 64
4, 109440, Note_on_c, 0, 48, 127
4, 109824, Note_off_c, 0, 48, 64
4, 109920, Note_on_c, 0, 47, 127
4, 110304, Note_off_c, 0, 47, 64
4, 110400, Note_on_c, 0, 45, 127
4, 110400, Note_on_c, 0, 60, 127
4, 110592, Note_off_c, 0, 45, 64
4, 110640, Note_on_c, 0, 52, 127
4, 110832, Note_off_c, 0, 52, 64
4, 110880, Note_on_c, 0, 48, 127
4, 111072, Note_off_c, 0, 48, 64
4, 111120, Note_on_c, 0, 53, 127
4, 111168, Note_off_c, 0, 60, 64
4, 111312, Note_off_c, 0, 53, 64
4, 111360, Note_on_c, 0, 50, 127
4, 111360, Note_on_c, 0, 59, 127
4, 111552, Note_off_c, 0, 50, 64
4, 111600, Note_on_c, 0, 47, 127
4, 111792, Note_off_c, 0, 47, 64
4, 111840, Note_on_c, 0, 52, 127
4, 112128, Note_off_c, 0, 59, 64
4, 112224, Note_off_c, 0, 52, 64
4, 112320, Note_on_c, 0, 60, 127
4, 112320, Note_on_c, 0, 45, 127
4, 112704, Note_off_c, 0, 45, 64
4, 113040, Note_on_c, 0, 57, 127
4, 113088, Note_off_c, 0, 60, 64
4, 113265, Note_off_c, 0, 57, 64
4, 113280, Note_on_c, 0, 62, 127
4, 113280, Note_on_c, 0, 59, 127
4, 113664, Note_off_c, 0, 59, 64
4, 114000, Note_on_c, 0, 47, 127
4, 114048, Note_off_c, 0, 62, 64
4, 114192, Note_off_c, 0, 47, 64
4, 114240, Note_on_c, 0, 55, 127
4, 114240, Note_on_c, 0, 48, 127
4, 114432, Note_off_c, 0, 48, 64
4, 114480, Note_on_c, 0, 47, 127
4, 114624, Note_off_c, 0, 55, 64
4, 114672, Note_off_c, 0, 47, 64
4, 114720, Note_on_c, 0, 57, 127
4, 114720, Note_on_c, 0, 45, 127
4, 115104, Note_off_c, 0, 45, 64
4, 115104, Note_off_c, 0, 57, 64
4, 115200, Note_on_c, 0, 40, 127
4, 115200, Note_on_c, 0, 59, 127
4, 115392, Note_off_c, 0, 40, 64
4, 115440, Note_on_c, 0, 52, 127
4, 115632, Note_off_c, 0, 52, 64
4, 115680, Note_on_c, 0, 47, 127
4, 115872, Note_off_c, 0, 47, 64
4, 115920, Note_on_c, 0, 50, 127
4, 115968, Note_off_c, 0, 59, 64
4, 116112, Note_off_c, 0, 50, 64
4, 116160, Note_on_c, 0, 57, 127
4, 116160, Note_on_c, 0, 48, 127
4, 116352, Note_off_c, 0, 48, 64
4, 116400, Note_on_c, 0, 45, 127
4, 116592, Note_off_c, 0, 45, 64
4, 116640, Note_on_c, 0, 50, 127
4, 116832, Note_off_c, 0, 50, 64
4, 116880, Note_on_c, 0, 48, 127
4, 116928, Note_off_c, 0, 57, 64
4, 117072, Note_off_c, 0, 48, 64
4, 117120, Note_on_c, 0, 55, 127
4, 117120, Note_on_c, 0, 47, 127
4, 117312, Note_off_c, 0, 47, 64
4, 117360, Note_on_c, 0, 43, 127
4, 117552, Note_off_c, 0, 43, 64
4, 117600, Note_on_c, 0, 48, 127
4, 117888, Note_off_c, 0, 55, 64
4, 117984, Note_off_c, 0, 48, 64
4, 118080, Note_on_c, 0, 47, 127
4, 118464, Note_off_c, 0, 47, 64
4, 126240, Note_on_c, 0, 45, 127
4, 126624, Note_off_c, 0, 45, 64
4, 126720, Note_on_c, 0, 52, 127
4, 126912, Note_off_c, 0, 52, 64
4, 126960, Note_on_c, 0, 50, 127
4, 127344, Note_off_c, 0, 50, 64
4, 127440, Note_on_c, 0, 48, 127
4, 127872, Note_off_c, 0, 48, 64
4, 127920, Note_on_c, 0, 47, 127
4, 128016, Note_off_c, 0, 47, 64
4, 128040, Note_on_c, 0, 45, 127
4, 128136, Note_off_c, 0, 45, 64
4, 128160, Note_on_c, 0, 43, 127
4, 128352, Note_off_c, 0, 43, 64
4, 128400, Note_on_c, 0, 45, 127
4, 128592, Note_off_c, 0, 45, 64
4, 128640, Note_on_c, 0, 47, 127
4, 129024, Note_off_c, 0, 47, 64
4, 129120, Note_on_c, 0, 45, 127
4, 129504, Note_off_c, 0, 45, 64
4, 129600, Note_on_c, 0, 43, 127
4, 129600, Note_on_c, 0, 55, 127
4, 129984, Note_off_c, 0, 43, 64
4, 130368, Note_off_c, 0, 55, 64
4, 130560, Note_on_c, 0, 60, 127
4, 131328, Note_off_c, 0, 60, 64
4, 131520, Note_on_c, 0, 59, 127
4, 132288, Note_off_c, 0, 59, 64
4, 132480, Note_on_c, 0, 57, 127
4, 132960, Note_on_c, 0, 45, 127
4, 133248, Note_off_c, 0, 57, 64
4, 133344, Note_off_c, 0, 45, 64
4, 133440, Note_on_c, 0, 52, 127
4, 133440, Note_on_c, 0, 52, 127
4, 133632, Note_off_c, 0, 52, 64
4, 133680, Note_on_c, 0, 50, 127
4, 133824, Note_off_c, 0, 52, 64
4, 133920, Note_on_c, 0, 53, 127
4, 134064, Note_off_c, 0, 50, 64
4, 134160, Note_on_c, 0, 48, 127
4, 134304, Note_off_c, 0, 53, 64
4, 134400, Note_on_c, 0, 55, 127
4, 134592, Note_off_c, 0, 48, 64
4, 134640, Note_on_c, 0, 47, 127
4, 134736, Note_off_c, 0, 47, 64
4, 134760, Note_on_c, 0, 45, 127
4, 134856, Note_off_c, 0, 45, 64
4, 134880, Note_on_c, 0, 43, 127
4, 135072, Note_off_c, 0, 43, 64
4, 135120, Note_on_c, 0, 45, 127
4, 135168, Note_off_c, 0, 55, 64
4, 135312, Note_off_c, 0, 45, 64
4, 135360, Note_on_c, 0, 47, 127
4, 135360, Note_on_c, 0, 53, 127
4, 135744, Note_off_c, 0, 47, 64
4, 135840, Note_on_c, 0, 45, 127
4, 136128, Note_off_c, 0, 53, 64
4, 136224, Note_off_c, 0, 45, 64
4, 136320, Note_on_c, 0, 52, 127
4, 136320, Note_on_c, 0, 44, 127
4, 136704, Note_off_c, 0, 44, 64
4, 137040, Note_on_c, 0, 40, 127
4, 137232, Note_off_c, 0, 40, 64
4, 137280, Note_on_c, 0, 45, 127
4, 137472, Note_off_c, 0, 45, 64
4, 137520, Note_on_c, 0, 44, 127
4, 137616, Note_off_c, 0, 44, 64
4, 137640, Note_on_c, 0, 45, 127
4, 137736, Note_off_c, 0, 45, 64
4, 137760, Note_on_c, 0, 47, 127
4, 137952, Note_off_c, 0, 47, 64
4, 138000, Note_on_c, 0, 45, 127
4, 138096, Note_off_c, 0, 45, 64
4, 138120, Note_on_c, 0, 47, 127
4, 138216, Note_off_c, 0, 47, 64
4, 138240, Note_on_c, 0, 48, 127
4, 138432, Note_off_c, 0, 48, 64
4, 138480, Note_on_c, 0, 47, 127
4, 138576, Note_off_c, 0, 47, 64
4, 138600, Note_on_c, 0, 48, 127
4, 138696, Note_off_c, 0, 48, 64
4, 138720, Note_on_c, 0, 50, 127
4, 138912, Note_off_c, 0, 50, 64
4, 139200, Note_on_c, 0, 48, 127
4, 139392, Note_off_c, 0, 48, 64
4, 139680, Note_on_c, 0, 47, 127
4, 139872, Note_off_c, 0, 47, 64
4, 140160, Note_on_c, 0, 45, 127
4, 140352, Note_off_c, 0, 45, 64
4, 140640, Note_on_c, 0, 44, 127
4, 140832, Note_off_c, 0, 44, 64
4, 141120, Note_on_c, 0, 45, 127
4, 141888, Note_off_c, 0, 45, 64
4, 142080, Note_on_c, 0, 40, 127
4, 143808, Note_off_c, 0, 40, 64
4, 143808, Note_off_c, 0, 52, 64
4, 143808, End_track
0, 0, End_of_file
