0, 0, Header, 1, 14, 600
1, 0, Start_track
1, 0, Sequencer_specific, 10, 0, 0, 91, 35, 1, 0, 5, 4, 35, 0
1, 0, Instrument_name_t, "Conductor Track"
1, 0, SMPTE_offset, 96, 0, 3, 0, 0
1, 0, MIDI_port, 0
1, 0, Tempo, 1153846
1, 0, Time_signature, 4, 2, 24, 8
1, 30325, Tempo, 1176470
1, 30400, Tempo, 1250000
1, 30475, Tempo, 1250000
1, 30550, Tempo, 1276595
1, 30625, Tempo, 1333333
1, 30700, Tempo, 1395348
1, 30775, Tempo, 1463414
1, 30850, Tempo, 1538461
1, 30925, Tempo, 1538461
1, 31000, Tempo, 1538461
1, 31075, Tempo, 1538461
1, 31150, Tempo, 1463414
1, 31225, Tempo, 1363636
1, 31300, Tempo, 1276595
1, 31375, Tempo, 1224489
1, 31400, Tempo, 1111111
1, 31475, Tempo, 1090909
1, 31500, Tempo, 1090909
1, 45125, Tempo, 1111111
1, 45200, Tempo, 1111111
1, 45275, Tempo, 1200000
1, 45350, Tempo, 1250000
1, 45425, Tempo, 1250000
1, 45500, Tempo, 1276595
1, 45575, Tempo, 1250000
1, 45650, Tempo, 1132075
1, 45675, Tempo, 1132075
1, 61200, Tempo, 1153846
1, 61275, Tempo, 1176470
1, 61350, Tempo, 1200000
1, 61425, Tempo, 1224489
1, 61500, Tempo, 1276595
1, 61575, Tempo, 1333333
1, 61650, Tempo, 1333333
1, 61725, Tempo, 1333333
1, 61800, Tempo, 1333333
1, 61875, Tempo, 1333333
1, 61950, Tempo, 1333333
1, 62025, Tempo, 1333333
1, 62100, Tempo, 1333333
1, 62175, Tempo, 1333333
1, 62250, Tempo, 1333333
1, 62325, Tempo, 1333333
1, 62400, Tempo, 1333333
1, 62475, Tempo, 1333333
1, 62550, Tempo, 1333333
1, 62625, Tempo, 1200000
1, 62650, Tempo, 1176470
1, 62675, Tempo, 1132075
1, 62700, Tempo, 1132075
1, 87625, Tempo, 1111111
1, 87701, Tempo, 1132075
1, 87778, Tempo, 1176470
1, 87854, Tempo, 1200000
1, 87931, Tempo, 1224489
1, 88007, Tempo, 1276595
1, 88083, Tempo, 1304347
1, 88160, Tempo, 1333333
1, 88236, Tempo, 1395348
1, 88313, Tempo, 1428571
1, 88389, Tempo, 1463414
1, 88465, Tempo, 1538461
1, 88542, Tempo, 1578947
1, 88618, Tempo, 1621621
1, 88694, Tempo, 1714285
1, 88771, Tempo, 1764705
1, 88847, Tempo, 1818181
1, 88924, Tempo, 1935483
1, 89000, Tempo, 2000000
1, 89025, Tempo, 2068965
1, 89050, Tempo, 2142857
1, 89075, Tempo, 2142857
1, 89125, Tempo, 1200000
1, 89200, Tempo, 1200000
1, 89275, Tempo, 1200000
1, 89354, Tempo, 1500000
1, 89433, Tempo, 1395348
1, 89513, Tempo, 1276595
1, 89592, Tempo, 1200000
1, 89671, Tempo, 1132075
1, 89750, Tempo, 1071428
1, 117600, Tempo, 1132075
1, 117650, Tempo, 1111111
1, 118008, Tempo, 1132075
1, 118365, Tempo, 1153846
1, 118723, Tempo, 1176470
1, 119081, Tempo, 1200000
1, 119438, Tempo, 1224489
1, 119796, Tempo, 1250000
1, 120154, Tempo, 1276595
1, 120512, Tempo, 1304347
1, 120869, Tempo, 1333333
1, 121227, Tempo, 1363636
1, 121585, Tempo, 1395348
1, 121925, Tempo, 1463414
1, 122000, Tempo, 1578947
1, 122075, Tempo, 1714285
1, 122150, Tempo, 1818181
1, 122225, Tempo, 2000000
1, 122300, Tempo, 2222222
1, 122375, Tempo, 2500000
1, 122975, Tempo, 2608695
1, 123056, Tempo, 1875000
1, 123138, Tempo, 1428571
1, 123219, Tempo, 1176470
1, 123300, Tempo, 1000000
1, 123300, End_track
2, 0, Start_track
2, 0, Title_t, "Man 8"
2, 0, MIDI_port, 0
2, 0, Control_c, 0, 7, 120
2, 0, Control_c, 0, 93, 7
2, 0, Control_c, 0, 91, 127
2, 0, Control_c, 0, 10, 52
2, 0, Program_c, 0, 19
2, 0, Note_on_c, 0, 52, 90
2, 470, Note_on_c, 0, 52, 0
2, 535, Note_on_c, 0, 59, 90
2, 710, Note_on_c, 0, 52, 90
2, 845, Note_on_c, 0, 54, 90
2, 850, Note_on_c, 0, 52, 0
2, 995, Note_on_c, 0, 55, 90
2, 1000, Note_on_c, 0, 54, 0
2, 1035, Note_on_c, 0, 59, 0
2, 1130, Note_on_c, 0, 55, 0
2, 1145, Note_on_c, 0, 59, 90
2, 1150, Note_on_c, 0, 49, 90
2, 1300, Note_on_c, 0, 52, 90
2, 1305, Note_on_c, 0, 49, 0
2, 1460, Note_on_c, 0, 52, 0
2, 1465, Note_on_c, 0, 55, 90
2, 1605, Note_on_c, 0, 60, 90
2, 1615, Note_on_c, 0, 59, 0
2, 1765, Note_on_c, 0, 60, 0
2, 1765, Note_on_c, 0, 57, 90
2, 1810, Note_on_c, 0, 55, 0
2, 1945, Note_on_c, 0, 55, 90
2, 2090, Note_on_c, 0, 55, 0
2, 2090, Note_on_c, 0, 54, 90
2, 2230, Note_on_c, 0, 52, 90
2, 2240, Note_on_c, 0, 54, 0
2, 2375, Note_on_c, 0, 57, 0
2, 2395, Note_on_c, 0, 51, 90
2, 2395, Note_on_c, 0, 59, 90
2, 2400, Note_on_c, 0, 52, 0
2, 2405, Note_on_c, 0, 57, 90
2, 2415, Note_on_c, 0, 57, 0
2, 2555, Note_on_c, 0, 54, 90
2, 2560, Note_on_c, 0, 51, 0
2, 2710, Note_on_c, 0, 54, 0
2, 2710, Note_on_c, 0, 57, 90
2, 2725, Note_on_c, 0, 59, 0
2, 2860, Note_on_c, 0, 59, 90
2, 2967, Note_on_c, 0, 59, 0
2, 3015, Note_on_c, 0, 57, 0
2, 3015, Note_on_c, 0, 52, 90
2, 3170, Note_on_c, 0, 57, 90
2, 3275, Note_on_c, 0, 52, 0
2, 3325, Note_on_c, 0, 57, 0
2, 3325, Note_on_c, 0, 55, 90
2, 3475, Note_on_c, 0, 55, 0
2, 3475, Note_on_c, 0, 54, 90
2, 3630, Note_on_c, 0, 54, 0
2, 3640, Note_on_c, 0, 52, 90
2, 3645, Note_on_c, 0, 59, 90
2, 3645, Note_on_c, 0, 55, 90
2, 3795, Note_on_c, 0, 52, 0
2, 3795, Note_on_c, 0, 47, 90
2, 3940, Note_on_c, 0, 47, 0
2, 3940, Note_on_c, 0, 52, 90
2, 4080, Note_on_c, 0, 52, 0
2, 4080, Note_on_c, 0, 50, 90
2, 4115, Note_on_c, 0, 59, 0
2, 4120, Note_on_c, 0, 55, 0
2, 4230, Note_on_c, 0, 55, 90
2, 4235, Note_on_c, 0, 64, 90
2, 4235, Note_on_c, 0, 48, 90
2, 4240, Note_on_c, 0, 50, 0
2, 4380, Note_on_c, 0, 45, 90
2, 4390, Note_on_c, 0, 48, 0
2, 4520, Note_on_c, 0, 45, 0
2, 4520, Note_on_c, 0, 47, 90
2, 4675, Note_on_c, 0, 64, 0
2, 4675, Note_on_c, 0, 47, 0
2, 4675, Note_on_c, 0, 48, 90
2, 4680, Note_on_c, 0, 55, 0
2, 4815, Note_on_c, 0, 54, 90
2, 4820, Note_on_c, 0, 48, 0
2, 4820, Note_on_c, 0, 64, 90
2, 4825, Note_on_c, 0, 42, 90
2, 4975, Note_on_c, 0, 42, 0
2, 4975, Note_on_c, 0, 45, 90
2, 5115, Note_on_c, 0, 45, 0
2, 5120, Note_on_c, 0, 48, 90
2, 5250, Note_on_c, 0, 66, 90
2, 5265, Note_on_c, 0, 64, 0
2, 5359, Note_on_c, 0, 66, 0
2, 5390, Note_on_c, 0, 64, 90
2, 5415, Note_on_c, 0, 48, 0
2, 5450, Note_on_c, 0, 64, 0
2, 5455, Note_on_c, 0, 63, 90
2, 5490, Note_on_c, 0, 63, 0
2, 5505, Note_on_c, 0, 64, 90
2, 5525, Note_on_c, 0, 64, 0
2, 5525, Note_on_c, 0, 63, 90
2, 5535, Note_on_c, 0, 48, 90
2, 5555, Note_on_c, 0, 63, 0
2, 5560, Note_on_c, 0, 64, 90
2, 5585, Note_on_c, 0, 64, 0
2, 5585, Note_on_c, 0, 63, 90
2, 5610, Note_on_c, 0, 63, 0
2, 5625, Note_on_c, 0, 64, 90
2, 5640, Note_on_c, 0, 63, 90
2, 5645, Note_on_c, 0, 64, 0
2, 5675, Note_on_c, 0, 48, 0
2, 5680, Note_on_c, 0, 63, 0
2, 5685, Note_on_c, 0, 47, 90
2, 5685, Note_on_c, 0, 64, 90
2, 5695, Note_on_c, 0, 63, 90
2, 5710, Note_on_c, 0, 64, 0
2, 5835, Note_on_c, 0, 45, 90
2, 5840, Note_on_c, 0, 47, 0
2, 5845, Note_on_c, 0, 54, 0
2, 5850, Note_on_c, 0, 63, 0
2, 5985, Note_on_c, 0, 64, 90
2, 5990, Note_on_c, 0, 44, 90
2, 5995, Note_on_c, 0, 45, 0
2, 6120, Note_on_c, 0, 47, 90
2, 6135, Note_on_c, 0, 44, 0
2, 6270, Note_on_c, 0, 47, 0
2, 6270, Note_on_c, 0, 52, 90
2, 6415, Note_on_c, 0, 54, 90
2, 6515, Note_on_c, 0, 54, 0
2, 6565, Note_on_c, 0, 56, 90
2, 6570, Note_on_c, 0, 64, 0
2, 6570, Note_on_c, 0, 59, 90
2, 6590, Note_on_c, 0, 52, 0
2, 6715, Note_on_c, 0, 52, 90
2, 6865, Note_on_c, 0, 56, 0
2, 6865, Note_on_c, 0, 50, 90
2, 6885, Note_on_c, 0, 52, 0
2, 7015, Note_on_c, 0, 59, 0
2, 7015, Note_on_c, 0, 58, 90
2, 7015, Note_on_c, 0, 61, 90
2, 7020, Note_on_c, 0, 50, 0
2, 7020, Note_on_c, 0, 49, 90
2, 7145, Note_on_c, 0, 61, 0
2, 7150, Note_on_c, 0, 58, 0
2, 7180, Note_on_c, 0, 49, 0
2, 7185, Note_on_c, 0, 59, 90
2, 7185, Note_on_c, 0, 47, 90
2, 7190, Note_on_c, 0, 62, 90
2, 7345, Note_on_c, 0, 42, 90
2, 7355, Note_on_c, 0, 47, 0
2, 7495, Note_on_c, 0, 42, 0
2, 7495, Note_on_c, 0, 47, 90
2, 7640, Note_on_c, 0, 59, 0
2, 7640, Note_on_c, 0, 54, 90
2, 7645, Note_on_c, 0, 47, 0
2, 7645, Note_on_c, 0, 45, 90
2, 7710, Note_on_c, 0, 54, 0
2, 7720, Note_on_c, 0, 62, 0
2, 7795, Note_on_c, 0, 43, 90
2, 7795, Note_on_c, 0, 62, 90
2, 7795, Note_on_c, 0, 59, 90
2, 7805, Note_on_c, 0, 45, 0
2, 7940, Note_on_c, 0, 38, 90
2, 7960, Note_on_c, 0, 43, 0
2, 8075, Note_on_c, 0, 40, 90
2, 8105, Note_on_c, 0, 38, 0
2, 8225, Note_on_c, 0, 57, 90
2, 8230, Note_on_c, 0, 40, 0
2, 8230, Note_on_c, 0, 42, 90
2, 8235, Note_on_c, 0, 59, 0
2, 8285, Note_on_c, 0, 57, 0
2, 8375, Note_on_c, 0, 61, 90
2, 8375, Note_on_c, 0, 55, 90
2, 8380, Note_on_c, 0, 40, 90
2, 8385, Note_on_c, 0, 42, 0
2, 8395, Note_on_c, 0, 62, 0
2, 8525, Note_on_c, 0, 43, 90
2, 8540, Note_on_c, 0, 40, 0
2, 8665, Note_on_c, 0, 43, 0
2, 8670, Note_on_c, 0, 47, 90
2, 8805, Note_on_c, 0, 54, 90
2, 8810, Note_on_c, 0, 55, 0
2, 8955, Note_on_c, 0, 52, 90
2, 8970, Note_on_c, 0, 54, 0
2, 9110, Note_on_c, 0, 55, 90
2, 9125, Note_on_c, 0, 52, 0
2, 9255, Note_on_c, 0, 55, 0
2, 9255, Note_on_c, 0, 54, 90
2, 9260, Note_on_c, 0, 45, 90
2, 9265, Note_on_c, 0, 47, 0
2, 9400, Note_on_c, 0, 52, 90
2, 9405, Note_on_c, 0, 54, 0
2, 9460, Note_on_c, 0, 52, 0
2, 9545, Note_on_c, 0, 51, 90
2, 9545, Note_on_c, 0, 59, 90
2, 9565, Note_on_c, 0, 61, 0
2, 9710, Note_on_c, 0, 48, 90
2, 9715, Note_on_c, 0, 45, 0
2, 9845, Note_on_c, 0, 47, 90
2, 9860, Note_on_c, 0, 48, 0
2, 9995, Note_on_c, 0, 45, 90
2, 10010, Note_on_c, 0, 47, 0
2, 10155, Note_on_c, 0, 51, 0
2, 10155, Note_on_c, 0, 45, 0
2, 10155, Note_on_c, 0, 43, 90
2, 10310, Note_on_c, 0, 43, 0
2, 10315, Note_on_c, 0, 45, 90
2, 10315, Note_on_c, 0, 51, 90
2, 10465, Note_on_c, 0, 59, 0
2, 10465, Note_on_c, 0, 51, 0
2, 10465, Note_on_c, 0, 43, 90
2, 10465, Note_on_c, 0, 52, 90
2, 10480, Note_on_c, 0, 45, 0
2, 10605, Note_on_c, 0, 54, 90
2, 10610, Note_on_c, 0, 42, 90
2, 10620, Note_on_c, 0, 52, 0
2, 10625, Note_on_c, 0, 43, 0
2, 10755, Note_on_c, 0, 55, 90
2, 10765, Note_on_c, 0, 40, 90
2, 10795, Note_on_c, 0, 54, 0
2, 10795, Note_on_c, 0, 42, 0
2, 10862, Note_on_c, 0, 55, 0
2, 10885, Note_on_c, 0, 40, 0
2, 10930, Note_on_c, 0, 54, 90
2, 10940, Note_on_c, 0, 63, 90
2, 11070, Note_on_c, 0, 63, 0
2, 11075, Note_on_c, 0, 55, 90
2, 11075, Note_on_c, 0, 64, 90
2, 11085, Note_on_c, 0, 54, 0
2, 11220, Note_on_c, 0, 66, 90
2, 11225, Note_on_c, 0, 55, 0
2, 11225, Note_on_c, 0, 64, 0
2, 11225, Note_on_c, 0, 57, 90
2, 11385, Note_on_c, 0, 67, 90
2, 11385, Note_on_c, 0, 59, 90
2, 11395, Note_on_c, 0, 57, 0
2, 11405, Note_on_c, 0, 66, 0
2, 11525, Note_on_c, 0, 64, 90
2, 11525, Note_on_c, 0, 55, 90
2, 11535, Note_on_c, 0, 67, 0
2, 11540, Note_on_c, 0, 59, 0
2, 11675, Note_on_c, 0, 64, 0
2, 11675, Note_on_c, 0, 66, 90
2, 11680, Note_on_c, 0, 57, 90
2, 11685, Note_on_c, 0, 55, 0
2, 11820, Note_on_c, 0, 67, 90
2, 11825, Note_on_c, 0, 66, 0
2, 11825, Note_on_c, 0, 59, 90
2, 11830, Note_on_c, 0, 57, 0
2, 11950, Note_on_c, 0, 59, 0
2, 11975, Note_on_c, 0, 67, 0
2, 11975, Note_on_c, 0, 61, 90
2, 11975, Note_on_c, 0, 52, 90
2, 12135, Note_on_c, 0, 64, 90
2, 12145, Note_on_c, 0, 61, 0
2, 12220, Note_on_c, 0, 64, 0
2, 12280, Note_on_c, 0, 67, 90
2, 12390, Note_on_c, 0, 52, 0
2, 12420, Note_on_c, 0, 62, 90
2, 12515, Note_on_c, 0, 62, 0
2, 12580, Note_on_c, 0, 60, 90
2, 12635, Note_on_c, 0, 67, 0
2, 12720, Note_on_c, 0, 67, 90
2, 12730, Note_on_c, 0, 59, 90
2, 12735, Note_on_c, 0, 60, 0
2, 12865, Note_on_c, 0, 59, 0
2, 12870, Note_on_c, 0, 66, 90
2, 12870, Note_on_c, 0, 57, 90
2, 12880, Note_on_c, 0, 67, 0
2, 13015, Note_on_c, 0, 66, 0
2, 13015, Note_on_c, 0, 55, 90
2, 13015, Note_on_c, 0, 64, 90
2, 13025, Note_on_c, 0, 57, 0
2, 13155, Note_on_c, 0, 54, 90
2, 13170, Note_on_c, 0, 63, 90
2, 13175, Note_on_c, 0, 55, 0
2, 13200, Note_on_c, 0, 64, 0
2, 13250, Note_on_c, 0, 54, 0
2, 13315, Note_on_c, 0, 47, 90
2, 13320, Note_on_c, 0, 66, 90
2, 13335, Note_on_c, 0, 63, 0
2, 13450, Note_on_c, 0, 66, 0
2, 13460, Note_on_c, 0, 47, 0
2, 13465, Note_on_c, 0, 69, 90
2, 13470, Note_on_c, 0, 49, 90
2, 13615, Note_on_c, 0, 51, 90
2, 13620, Note_on_c, 0, 49, 0
2, 13760, Note_on_c, 0, 51, 0
2, 13765, Note_on_c, 0, 52, 90
2, 13795, Note_on_c, 0, 69, 0
2, 13915, Note_on_c, 0, 54, 90
2, 13915, Note_on_c, 0, 69, 90
2, 13940, Note_on_c, 0, 52, 0
2, 14060, Note_on_c, 0, 55, 90
2, 14065, Note_on_c, 0, 67, 90
2, 14070, Note_on_c, 0, 54, 0
2, 14075, Note_on_c, 0, 69, 0
2, 14205, Note_on_c, 0, 66, 90
2, 14210, Note_on_c, 0, 67, 0
2, 14210, Note_on_c, 0, 57, 90
2, 14225, Note_on_c, 0, 55, 0
2, 14365, Note_on_c, 0, 66, 0
2, 14365, Note_on_c, 0, 64, 90
2, 14365, Note_on_c, 0, 59, 90
2, 14370, Note_on_c, 0, 57, 0
2, 14520, Note_on_c, 0, 67, 90
2, 14525, Note_on_c, 0, 64, 0
2, 14665, Note_on_c, 0, 67, 0
2, 14665, Note_on_c, 0, 71, 90
2, 14810, Note_on_c, 0, 57, 90
2, 14820, Note_on_c, 0, 59, 0
2, 14965, Note_on_c, 0, 55, 90
2, 14970, Note_on_c, 0, 57, 0
2, 15115, Note_on_c, 0, 59, 90
2, 15115, Note_on_c, 0, 67, 90
2, 15120, Note_on_c, 0, 71, 0
2, 15120, Note_on_c, 0, 55, 0
2, 15270, Note_on_c, 0, 59, 0
2, 15270, Note_on_c, 0, 72, 90
2, 15270, Note_on_c, 0, 64, 90
2, 15275, Note_on_c, 0, 67, 0
2, 15420, Note_on_c, 0, 71, 90
2, 15440, Note_on_c, 0, 72, 0
2, 15560, Note_on_c, 0, 69, 90
2, 15575, Note_on_c, 0, 71, 0
2, 15705, Note_on_c, 0, 61, 90
2, 15730, Note_on_c, 0, 64, 0
2, 15860, Note_on_c, 0, 66, 90
2, 15865, Note_on_c, 0, 61, 0
2, 16015, Note_on_c, 0, 66, 0
2, 16015, Note_on_c, 0, 64, 90
2, 16115, Note_on_c, 0, 64, 0
2, 16160, Note_on_c, 0, 63, 90
2, 16310, Note_on_c, 0, 66, 90
2, 16315, Note_on_c, 0, 69, 0
2, 16470, Note_on_c, 0, 71, 90
2, 16485, Note_on_c, 0, 66, 0
2, 16615, Note_on_c, 0, 69, 90
2, 16635, Note_on_c, 0, 71, 0
2, 16760, Note_on_c, 0, 63, 0
2, 16760, Note_on_c, 0, 67, 90
2, 16760, Note_on_c, 0, 64, 90
2, 16770, Note_on_c, 0, 69, 0
2, 16860, Note_on_c, 0, 64, 0
2, 16915, Note_on_c, 0, 52, 90
2, 17030, Note_on_c, 0, 52, 0
2, 17065, Note_on_c, 0, 64, 90
2, 17210, Note_on_c, 0, 64, 0
2, 17210, Note_on_c, 0, 62, 90
2, 17210, Note_on_c, 0, 66, 90
2, 17225, Note_on_c, 0, 67, 0
2, 17310, Note_on_c, 0, 66, 0
2, 17365, Note_on_c, 0, 62, 0
2, 17365, Note_on_c, 0, 64, 90
2, 17370, Note_on_c, 0, 60, 90
2, 17520, Note_on_c, 0, 52, 90
2, 17535, Note_on_c, 0, 60, 0
2, 17670, Note_on_c, 0, 52, 0
2, 17670, Note_on_c, 0, 60, 90
2, 17725, Note_on_c, 0, 64, 0
2, 17815, Note_on_c, 0, 60, 0
2, 17820, Note_on_c, 0, 59, 90
2, 17820, Note_on_c, 0, 62, 90
2, 17910, Note_on_c, 0, 62, 0
2, 17985, Note_on_c, 0, 59, 0
2, 17985, Note_on_c, 0, 57, 90
2, 17985, Note_on_c, 0, 60, 90
2, 17985, Note_on_c, 0, 64, 90
2, 18135, Note_on_c, 0, 52, 90
2, 18150, Note_on_c, 0, 57, 0
2, 18285, Note_on_c, 0, 57, 90
2, 18290, Note_on_c, 0, 52, 0
2, 18430, Note_on_c, 0, 62, 90
2, 18445, Note_on_c, 0, 64, 0
2, 18480, Note_on_c, 0, 60, 0
2, 18495, Note_on_c, 0, 62, 0
2, 18590, Note_on_c, 0, 59, 90
2, 18595, Note_on_c, 0, 71, 90
2, 18635, Note_on_c, 0, 57, 0
2, 18735, Note_on_c, 0, 52, 90
2, 18880, Note_on_c, 0, 54, 90
2, 18890, Note_on_c, 0, 52, 0
2, 19020, Note_on_c, 0, 59, 0
2, 19020, Note_on_c, 0, 54, 0
2, 19030, Note_on_c, 0, 64, 90
2, 19030, Note_on_c, 0, 55, 90
2, 19115, Note_on_c, 0, 64, 0
2, 19125, Note_on_c, 0, 71, 0
2, 19180, Note_on_c, 0, 71, 90
2, 19185, Note_on_c, 0, 55, 0
2, 19185, Note_on_c, 0, 67, 90
2, 19185, Note_on_c, 0, 49, 90
2, 19330, Note_on_c, 0, 52, 90
2, 19340, Note_on_c, 0, 49, 0
2, 19385, Note_on_c, 0, 67, 0
2, 19395, Note_on_c, 0, 52, 0
2, 19470, Note_on_c, 0, 64, 90
2, 19485, Note_on_c, 0, 55, 90
2, 19620, Note_on_c, 0, 72, 90
2, 19630, Note_on_c, 0, 64, 0
2, 19635, Note_on_c, 0, 71, 0
2, 19755, Note_on_c, 0, 72, 0
2, 19765, Note_on_c, 0, 61, 90
2, 19770, Note_on_c, 0, 69, 90
2, 19780, Note_on_c, 0, 55, 0
2, 19915, Note_on_c, 0, 55, 90
2, 20060, Note_on_c, 0, 61, 0
2, 20070, Note_on_c, 0, 63, 90
2, 20070, Note_on_c, 0, 54, 90
2, 20075, Note_on_c, 0, 55, 0
2, 20200, Note_on_c, 0, 64, 90
2, 20205, Note_on_c, 0, 63, 0
2, 20205, Note_on_c, 0, 52, 90
2, 20215, Note_on_c, 0, 54, 0
2, 20305, Note_on_c, 0, 64, 0
2, 20335, Note_on_c, 0, 69, 0
2, 20340, Note_on_c, 0, 52, 0
2, 20360, Note_on_c, 0, 71, 90
2, 20360, Note_on_c, 0, 66, 90
2, 20360, Note_on_c, 0, 51, 90
2, 20495, Note_on_c, 0, 66, 0
2, 20505, Note_on_c, 0, 69, 90
2, 20515, Note_on_c, 0, 51, 0
2, 20515, Note_on_c, 0, 54, 90
2, 20595, Note_on_c, 0, 69, 0
2, 20670, Note_on_c, 0, 63, 90
2, 20675, Note_on_c, 0, 54, 0
2, 20675, Note_on_c, 0, 57, 90
2, 20820, Note_on_c, 0, 63, 0
2, 20825, Note_on_c, 0, 59, 90
2, 20895, Note_on_c, 0, 71, 0
2, 20975, Note_on_c, 0, 64, 90
2, 21020, Note_on_c, 0, 57, 0
2, 21110, Note_on_c, 0, 59, 0
2, 21125, Note_on_c, 0, 60, 90
2, 21125, Note_on_c, 0, 57, 90
2, 21200, Note_on_c, 0, 57, 0
2, 21205, Note_on_c, 0, 60, 0
2, 21275, Note_on_c, 0, 59, 90
2, 21280, Note_on_c, 0, 55, 90
2, 21355, Note_on_c, 0, 64, 0
2, 21425, Note_on_c, 0, 66, 90
2, 21430, Note_on_c, 0, 54, 90
2, 21450, Note_on_c, 0, 55, 0
2, 21495, Note_on_c, 0, 59, 0
2, 21559, Note_on_c, 0, 54, 0
2, 21585, Note_on_c, 0, 67, 90
2, 21585, Note_on_c, 0, 59, 90
2, 21590, Note_on_c, 0, 66, 0
2, 21590, Note_on_c, 0, 52, 90
2, 21735, Note_on_c, 0, 40, 90
2, 21750, Note_on_c, 0, 52, 0
2, 21890, Note_on_c, 0, 40, 0
2, 21890, Note_on_c, 0, 52, 90
2, 21920, Note_on_c, 0, 59, 0
2, 22035, Note_on_c, 0, 59, 90
2, 22035, Note_on_c, 0, 50, 90
2, 22040, Note_on_c, 0, 52, 0
2, 22105, Note_on_c, 0, 59, 0
2, 22110, Note_on_c, 0, 67, 0
2, 22185, Note_on_c, 0, 50, 0
2, 22190, Note_on_c, 0, 48, 90
2, 22190, Note_on_c, 0, 67, 90
2, 22195, Note_on_c, 0, 64, 90
2, 22335, Note_on_c, 0, 40, 90
2, 22340, Note_on_c, 0, 48, 0
2, 22480, Note_on_c, 0, 48, 90
2, 22485, Note_on_c, 0, 40, 0
2, 22630, Note_on_c, 0, 64, 0
2, 22630, Note_on_c, 0, 62, 90
2, 22630, Note_on_c, 0, 47, 90
2, 22640, Note_on_c, 0, 48, 0
2, 22725, Note_on_c, 0, 62, 0
2, 22775, Note_on_c, 0, 47, 0
2, 22775, Note_on_c, 0, 45, 90
2, 22775, Note_on_c, 0, 60, 90
2, 22920, Note_on_c, 0, 45, 0
2, 22920, Note_on_c, 0, 48, 90
2, 22925, Note_on_c, 0, 64, 90
2, 22940, Note_on_c, 0, 67, 0
2, 23030, Note_on_c, 0, 64, 0
2, 23075, Note_on_c, 0, 48, 0
2, 23075, Note_on_c, 0, 52, 90
2, 23075, Note_on_c, 0, 69, 90
2, 23230, Note_on_c, 0, 67, 90
2, 23255, Note_on_c, 0, 69, 0
2, 23375, Note_on_c, 0, 66, 90
2, 23385, Note_on_c, 0, 67, 0
2, 23535, Note_on_c, 0, 67, 90
2, 23540, Note_on_c, 0, 66, 0
2, 23540, Note_on_c, 0, 50, 90
2, 23560, Note_on_c, 0, 52, 0
2, 23680, Note_on_c, 0, 67, 0
2, 23680, Note_on_c, 0, 64, 90
2, 23685, Note_on_c, 0, 48, 90
2, 23710, Note_on_c, 0, 50, 0
2, 23830, Note_on_c, 0, 66, 90
2, 23835, Note_on_c, 0, 64, 0
2, 23835, Note_on_c, 0, 48, 0
2, 23835, Note_on_c, 0, 47, 90
2, 23890, Note_on_c, 0, 66, 0
2, 23970, Note_on_c, 0, 67, 90
2, 23975, Note_on_c, 0, 46, 90
2, 23985, Note_on_c, 0, 47, 0
2, 24045, Note_on_c, 0, 67, 0
2, 24045, Note_on_c, 0, 66, 90
2, 24090, Note_on_c, 0, 66, 0
2, 24095, Note_on_c, 0, 67, 90
2, 24110, Note_on_c, 0, 49, 90
2, 24120, Note_on_c, 0, 66, 90
2, 24130, Note_on_c, 0, 46, 0
2, 24135, Note_on_c, 0, 67, 0
2, 24155, Note_on_c, 0, 67, 90
2, 24160, Note_on_c, 0, 66, 0
2, 24185, Note_on_c, 0, 66, 90
2, 24190, Note_on_c, 0, 67, 0
2, 24215, Note_on_c, 0, 67, 90
2, 24220, Note_on_c, 0, 66, 0
2, 24240, Note_on_c, 0, 66, 90
2, 24270, Note_on_c, 0, 49, 0
2, 24275, Note_on_c, 0, 66, 0
2, 24275, Note_on_c, 0, 54, 90
2, 24295, Note_on_c, 0, 66, 90
2, 24315, Note_on_c, 0, 67, 0
2, 24415, Note_on_c, 0, 46, 90
2, 24425, Note_on_c, 0, 54, 0
2, 24510, Note_on_c, 0, 46, 0
2, 24565, Note_on_c, 0, 47, 90
2, 24725, Note_on_c, 0, 61, 90
2, 24740, Note_on_c, 0, 60, 0
2, 24885, Note_on_c, 0, 61, 0
2, 24885, Note_on_c, 0, 63, 90
2, 24895, Note_on_c, 0, 47, 0
2, 25030, Note_on_c, 0, 63, 0
2, 25030, Note_on_c, 0, 57, 90
2, 25030, Note_on_c, 0, 47, 90
2, 25135, Note_on_c, 0, 57, 0
2, 25175, Note_on_c, 0, 66, 0
2, 25175, Note_on_c, 0, 64, 90
2, 25180, Note_on_c, 0, 56, 90
2, 25185, Note_on_c, 0, 40, 90
2, 25195, Note_on_c, 0, 47, 0
2, 25340, Note_on_c, 0, 64, 0
2, 25340, Note_on_c, 0, 59, 90
2, 25480, Note_on_c, 0, 64, 90
2, 25485, Note_on_c, 0, 56, 0
2, 25485, Note_on_c, 0, 59, 0
2, 25620, Note_on_c, 0, 42, 90
2, 25625, Note_on_c, 0, 57, 90
2, 25650, Note_on_c, 0, 40, 0
2, 25720, Note_on_c, 0, 57, 0
2, 25790, Note_on_c, 0, 42, 0
2, 25790, Note_on_c, 0, 59, 90
2, 25790, Note_on_c, 0, 44, 90
2, 25935, Note_on_c, 0, 62, 90
2, 25940, Note_on_c, 0, 64, 0
2, 26080, Note_on_c, 0, 60, 90
2, 26100, Note_on_c, 0, 59, 0
2, 26105, Note_on_c, 0, 62, 0
2, 26220, Note_on_c, 0, 44, 0
2, 26225, Note_on_c, 0, 60, 0
2, 26225, Note_on_c, 0, 59, 90
2, 26230, Note_on_c, 0, 40, 90
2, 26380, Note_on_c, 0, 40, 0
2, 26380, Note_on_c, 0, 60, 90
2, 26385, Note_on_c, 0, 59, 0
2, 26385, Note_on_c, 0, 45, 90
2, 26525, Note_on_c, 0, 52, 90
2, 26660, Note_on_c, 0, 52, 0
2, 26665, Note_on_c, 0, 57, 90
2, 26805, Note_on_c, 0, 47, 90
2, 26810, Note_on_c, 0, 60, 0
2, 26810, Note_on_c, 0, 62, 90
2, 26815, Note_on_c, 0, 45, 0
2, 26955, Note_on_c, 0, 64, 90
2, 26960, Note_on_c, 0, 62, 0
2, 26960, Note_on_c, 0, 48, 90
2, 26965, Note_on_c, 0, 47, 0
2, 27095, Note_on_c, 0, 57, 0
2, 27100, Note_on_c, 0, 60, 90
2, 27105, Note_on_c, 0, 64, 0
2, 27265, Note_on_c, 0, 69, 90
2, 27395, Note_on_c, 0, 60, 0
2, 27400, Note_on_c, 0, 45, 90
2, 27400, Note_on_c, 0, 63, 90
2, 27415, Note_on_c, 0, 48, 0
2, 27504, Note_on_c, 0, 63, 0
2, 27545, Note_on_c, 0, 69, 0
2, 27560, Note_on_c, 0, 45, 0
2, 27560, Note_on_c, 0, 64, 90
2, 27565, Note_on_c, 0, 52, 90
2, 27565, Note_on_c, 0, 68, 90
2, 27705, Note_on_c, 0, 68, 0
2, 27715, Note_on_c, 0, 62, 90
2, 27720, Note_on_c, 0, 71, 90
2, 27775, Note_on_c, 0, 62, 0
2, 27855, Note_on_c, 0, 71, 0
2, 27860, Note_on_c, 0, 74, 90
2, 27860, Note_on_c, 0, 60, 90
2, 28000, Note_on_c, 0, 68, 90
2, 28000, Note_on_c, 0, 59, 90
2, 28015, Note_on_c, 0, 64, 0
2, 28015, Note_on_c, 0, 60, 0
2, 28120, Note_on_c, 0, 68, 0
2, 28140, Note_on_c, 0, 74, 0
2, 28155, Note_on_c, 0, 59, 0
2, 28155, Note_on_c, 0, 72, 90
2, 28155, Note_on_c, 0, 69, 90
2, 28155, Note_on_c, 0, 57, 90
2, 28225, Note_on_c, 0, 72, 0
2, 28300, Note_on_c, 0, 76, 90
2, 28310, Note_on_c, 0, 60, 90
2, 28325, Note_on_c, 0, 57, 0
2, 28355, Note_on_c, 0, 76, 0
2, 28455, Note_on_c, 0, 81, 90
2, 28460, Note_on_c, 0, 59, 90
2, 28475, Note_on_c, 0, 60, 0
2, 28590, Note_on_c, 0, 57, 90
2, 28595, Note_on_c, 0, 59, 0
2, 28600, Note_on_c, 0, 75, 90
2, 28605, Note_on_c, 0, 81, 0
2, 28720, Note_on_c, 0, 75, 0
2, 28745, Note_on_c, 0, 76, 90
2, 28745, Note_on_c, 0, 59, 90
2, 28750, Note_on_c, 0, 52, 0
2, 28750, Note_on_c, 0, 57, 0
2, 28895, Note_on_c, 0, 52, 90
2, 28915, Note_on_c, 0, 59, 0
2, 29045, Note_on_c, 0, 64, 90
2, 29180, Note_on_c, 0, 64, 0
2, 29180, Note_on_c, 0, 63, 90
2, 29275, Note_on_c, 0, 63, 0
2, 29340, Note_on_c, 0, 64, 90
2, 29495, Note_on_c, 0, 59, 90
2, 29595, Note_on_c, 0, 69, 0
2, 29620, Note_on_c, 0, 64, 0
2, 29645, Note_on_c, 0, 68, 90
2, 29795, Note_on_c, 0, 66, 90
2, 29805, Note_on_c, 0, 68, 0
2, 29896, Note_on_c, 0, 66, 0
2, 29935, Note_on_c, 0, 68, 90
2, 30090, Note_on_c, 0, 71, 90
2, 30105, Note_on_c, 0, 76, 0
2, 30250, Note_on_c, 0, 76, 90
2, 30255, Note_on_c, 0, 71, 0
2, 30395, Note_on_c, 0, 75, 90
2, 30410, Note_on_c, 0, 76, 0
2, 30565, Note_on_c, 0, 68, 0
2, 30565, Note_on_c, 0, 75, 0
2, 30565, Note_on_c, 0, 76, 90
2, 30734, Note_on_c, 0, 71, 90
2, 30870, Note_on_c, 0, 64, 90
2, 31060, Note_on_c, 0, 64, 0
2, 31080, Note_on_c, 0, 52, 0
2, 31080, Note_on_c, 0, 59, 0
2, 31080, Note_on_c, 0, 76, 0
2, 31080, Note_on_c, 0, 71, 0
2, 31200, Note_on_c, 0, 55, 90
2, 31335, Note_on_c, 0, 64, 90
2, 31480, Note_on_c, 0, 64, 0
2, 31480, Note_on_c, 0, 62, 90
2, 31615, Note_on_c, 0, 60, 90
2, 31630, Note_on_c, 0, 62, 0
2, 31650, Note_on_c, 0, 55, 0
2, 31755, Note_on_c, 0, 60, 0
2, 31760, Note_on_c, 0, 59, 90
2, 31760, Note_on_c, 0, 55, 90
2, 31905, Note_on_c, 0, 52, 90
2, 32050, Note_on_c, 0, 50, 90
2, 32060, Note_on_c, 0, 52, 0
2, 32190, Note_on_c, 0, 48, 90
2, 32195, Note_on_c, 0, 50, 0
2, 32195, Note_on_c, 0, 60, 90
2, 32205, Note_on_c, 0, 59, 0
2, 32220, Note_on_c, 0, 55, 0
2, 32340, Note_on_c, 0, 55, 90
2, 32340, Note_on_c, 0, 62, 90
2, 32345, Note_on_c, 0, 47, 90
2, 32355, Note_on_c, 0, 48, 0
2, 32380, Note_on_c, 0, 60, 0
2, 32500, Note_on_c, 0, 50, 90
2, 32505, Note_on_c, 0, 47, 0
2, 32590, Note_on_c, 0, 50, 0
2, 32670, Note_on_c, 0, 43, 90
2, 32825, Note_on_c, 0, 53, 90
2, 32835, Note_on_c, 0, 55, 0
2, 32975, Note_on_c, 0, 53, 0
2, 32975, Note_on_c, 0, 52, 90
2, 33125, Note_on_c, 0, 43, 0
2, 33130, Note_on_c, 0, 48, 90
2, 33230, Note_on_c, 0, 48, 0
2, 33235, Note_on_c, 0, 62, 0
2, 33280, Note_on_c, 0, 36, 90
2, 33285, Note_on_c, 0, 60, 90
2, 33435, Note_on_c, 0, 54, 90
2, 33445, Note_on_c, 0, 52, 0
2, 33500, Note_on_c, 0, 54, 0
2, 33570, Note_on_c, 0, 36, 0
2, 33585, Note_on_c, 0, 60, 0
2, 33585, Note_on_c, 0, 59, 90
2, 33585, Note_on_c, 0, 55, 90
2, 33730, Note_on_c, 0, 40, 90
2, 33775, Note_on_c, 0, 40, 0
2, 33880, Note_on_c, 0, 52, 90
2, 33970, Note_on_c, 0, 59, 0
2, 34040, Note_on_c, 0, 67, 90
2, 34045, Note_on_c, 0, 55, 0
2, 34190, Note_on_c, 0, 57, 90
2, 34215, Note_on_c, 0, 52, 0
2, 34330, Note_on_c, 0, 42, 90
2, 34375, Note_on_c, 0, 42, 0
2, 34490, Note_on_c, 0, 50, 90
2, 34577, Note_on_c, 0, 67, 0
2, 34650, Note_on_c, 0, 66, 90
2, 34695, Note_on_c, 0, 57, 0
2, 34785, Note_on_c, 0, 59, 90
2, 34805, Note_on_c, 0, 50, 0
2, 34920, Note_on_c, 0, 45, 90
2, 34960, Note_on_c, 0, 45, 0
2, 35085, Note_on_c, 0, 55, 90
2, 35240, Note_on_c, 0, 66, 0
2, 35240, Note_on_c, 0, 64, 90
2, 35245, Note_on_c, 0, 59, 0
2, 35359, Note_on_c, 0, 64, 0
2, 35375, Note_on_c, 0, 72, 90
2, 35376, Note_on_c, 0, 57, 90
2, 35385, Note_on_c, 0, 55, 0
2, 35530, Note_on_c, 0, 45, 90
2, 35575, Note_on_c, 0, 45, 0
2, 35685, Note_on_c, 0, 54, 90
2, 35830, Note_on_c, 0, 63, 90
2, 35836, Note_on_c, 0, 57, 0
2, 35850, Note_on_c, 0, 72, 0
2, 35940, Note_on_c, 0, 63, 0
2, 35980, Note_on_c, 0, 71, 90
2, 35984, Note_on_c, 0, 55, 90
2, 36060, Note_on_c, 0, 54, 0
2, 36130, Note_on_c, 0, 47, 90
2, 36185, Note_on_c, 0, 47, 0
2, 36280, Note_on_c, 0, 52, 90
2, 36430, Note_on_c, 0, 61, 90
2, 36444, Note_on_c, 0, 55, 0
2, 36449, Note_on_c, 0, 71, 0
2, 36575, Note_on_c, 0, 61, 0
2, 36575, Note_on_c, 0, 69, 90
2, 36580, Note_on_c, 0, 54, 90
2, 36730, Note_on_c, 0, 49, 90
2, 36735, Note_on_c, 0, 52, 0
2, 36800, Note_on_c, 0, 49, 0
2, 36885, Note_on_c, 0, 51, 90
2, 37040, Note_on_c, 0, 59, 90
2, 37049, Note_on_c, 0, 69, 0
2, 37185, Note_on_c, 0, 67, 90
2, 37185, Note_on_c, 0, 52, 90
2, 37195, Note_on_c, 0, 51, 0
2, 37195, Note_on_c, 0, 59, 0
2, 37200, Note_on_c, 0, 54, 0
2, 37330, Note_on_c, 0, 64, 90
2, 37470, Note_on_c, 0, 62, 90
2, 37475, Note_on_c, 0, 64, 0
2, 37615, Note_on_c, 0, 62, 0
2, 37620, Note_on_c, 0, 60, 90
2, 37770, Note_on_c, 0, 60, 0
2, 37770, Note_on_c, 0, 59, 90
2, 37775, Note_on_c, 0, 67, 0
2, 37790, Note_on_c, 0, 52, 0
2, 37920, Note_on_c, 0, 67, 90
2, 37925, Note_on_c, 0, 52, 90
2, 38075, Note_on_c, 0, 66, 90
2, 38075, Note_on_c, 0, 50, 90
2, 38080, Note_on_c, 0, 67, 0
2, 38085, Note_on_c, 0, 52, 0
2, 38220, Note_on_c, 0, 49, 90
2, 38225, Note_on_c, 0, 64, 90
2, 38230, Note_on_c, 0, 50, 0
2, 38235, Note_on_c, 0, 66, 0
2, 38300, Note_on_c, 0, 64, 0
2, 38310, Note_on_c, 0, 59, 0
2, 38375, Note_on_c, 0, 49, 0
2, 38375, Note_on_c, 0, 62, 90
2, 38375, Note_on_c, 0, 47, 90
2, 38520, Note_on_c, 0, 59, 90
2, 38670, Note_on_c, 0, 59, 0
2, 38670, Note_on_c, 0, 57, 90
2, 38810, Note_on_c, 0, 55, 90
2, 38820, Note_on_c, 0, 57, 0
2, 38845, Note_on_c, 0, 62, 0
2, 38950, Note_on_c, 0, 55, 0
2, 38960, Note_on_c, 0, 54, 90
2, 38965, Note_on_c, 0, 62, 90
2, 38970, Note_on_c, 0, 47, 0
2, 39115, Note_on_c, 0, 47, 90
2, 39260, Note_on_c, 0, 47, 0
2, 39260, Note_on_c, 0, 45, 90
2, 39405, Note_on_c, 0, 55, 90
2, 39405, Note_on_c, 0, 43, 90
2, 39415, Note_on_c, 0, 54, 0
2, 39415, Note_on_c, 0, 45, 0
2, 39470, Note_on_c, 0, 43, 0
2, 39485, Note_on_c, 0, 55, 0
2, 39500, Note_on_c, 0, 62, 0
2, 39560, Note_on_c, 0, 57, 90
2, 39560, Note_on_c, 0, 62, 90
2, 39565, Note_on_c, 0, 42, 90
2, 39715, Note_on_c, 0, 45, 90
2, 39720, Note_on_c, 0, 42, 0
2, 39775, Note_on_c, 0, 45, 0
2, 39875, Note_on_c, 0, 50, 90
2, 40025, Note_on_c, 0, 60, 90
2, 40040, Note_on_c, 0, 62, 0
2, 40095, Note_on_c, 0, 60, 0
2, 40180, Note_on_c, 0, 59, 90
2, 40225, Note_on_c, 0, 50, 0
2, 40320, Note_on_c, 0, 43, 90
2, 40330, Note_on_c, 0, 57, 0
2, 40375, Note_on_c, 0, 43, 0
2, 40485, Note_on_c, 0, 55, 90
2, 40630, Note_on_c, 0, 59, 0
2, 40630, Note_on_c, 0, 61, 90
2, 40770, Note_on_c, 0, 55, 0
2, 40770, Note_on_c, 0, 61, 0
2, 40775, Note_on_c, 0, 62, 90
2, 40780, Note_on_c, 0, 54, 90
2, 40920, Note_on_c, 0, 47, 90
2, 40940, Note_on_c, 0, 54, 0
2, 40965, Note_on_c, 0, 47, 0
2, 41085, Note_on_c, 0, 59, 90
2, 41095, Note_on_c, 0, 62, 0
2, 41240, Note_on_c, 0, 62, 90
2, 41385, Note_on_c, 0, 64, 90
2, 41395, Note_on_c, 0, 59, 0
2, 41520, Note_on_c, 0, 49, 90
2, 41575, Note_on_c, 0, 49, 0
2, 41685, Note_on_c, 0, 57, 90
2, 41820, Note_on_c, 0, 62, 0
2, 41830, Note_on_c, 0, 61, 90
2, 41990, Note_on_c, 0, 66, 90
2, 41995, Note_on_c, 0, 64, 0
2, 42020, Note_on_c, 0, 57, 0
2, 42130, Note_on_c, 0, 50, 90
2, 42180, Note_on_c, 0, 50, 0
2, 42275, Note_on_c, 0, 62, 90
2, 42290, Note_on_c, 0, 61, 0
2, 42425, Note_on_c, 0, 59, 90
2, 42495, Note_on_c, 0, 59, 0
2, 42500, Note_on_c, 0, 66, 0
2, 42555, Note_on_c, 0, 62, 0
2, 42570, Note_on_c, 0, 67, 90
2, 42575, Note_on_c, 0, 64, 90
2, 42725, Note_on_c, 0, 52, 90
2, 42780, Note_on_c, 0, 52, 0
2, 42870, Note_on_c, 0, 61, 90
2, 42993, Note_on_c, 0, 67, 0
2, 43010, Note_on_c, 0, 58, 90
2, 43040, Note_on_c, 0, 61, 0
2, 43127, Note_on_c, 0, 64, 0
2, 43150, Note_on_c, 0, 66, 90
2, 43150, Note_on_c, 0, 62, 90
2, 43155, Note_on_c, 0, 58, 0
2, 43305, Note_on_c, 0, 54, 90
2, 43350, Note_on_c, 0, 54, 0
2, 43465, Note_on_c, 0, 59, 90
2, 43585, Note_on_c, 0, 66, 0
2, 43615, Note_on_c, 0, 56, 90
2, 43730, Note_on_c, 0, 56, 0
2, 43751, Note_on_c, 0, 62, 0
2, 43765, Note_on_c, 0, 61, 90
2, 43765, Note_on_c, 0, 64, 90
2, 43910, Note_on_c, 0, 59, 0
2, 43915, Note_on_c, 0, 56, 90
2, 44060, Note_on_c, 0, 56, 0
2, 44070, Note_on_c, 0, 58, 90
2, 44215, Note_on_c, 0, 54, 90
2, 44290, Note_on_c, 0, 61, 0
2, 44290, Note_on_c, 0, 64, 0
2, 44365, Note_on_c, 0, 54, 0
2, 44365, Note_on_c, 0, 62, 90
2, 44370, Note_on_c, 0, 58, 0
2, 44370, Note_on_c, 0, 59, 90
2, 44526, Note_on_c, 0, 71, 90
2, 44621, Note_on_c, 0, 71, 0
2, 44668, Note_on_c, 0, 69, 90
2, 44685, Note_on_c, 0, 47, 90
2, 44813, Note_on_c, 0, 69, 0
2, 44815, Note_on_c, 0, 67, 90
2, 44896, Note_on_c, 0, 67, 0
2, 44970, Note_on_c, 0, 66, 90
2, 44975, Note_on_c, 0, 59, 0
2, 45080, Note_on_c, 0, 62, 0
2, 45100, Note_on_c, 0, 47, 0
2, 45120, Note_on_c, 0, 48, 90
2, 45120, Note_on_c, 0, 64, 90
2, 45260, Note_on_c, 0, 64, 0
2, 45265, Note_on_c, 0, 62, 90
2, 45270, Note_on_c, 0, 47, 90
2, 45280, Note_on_c, 0, 48, 0
2, 45410, Note_on_c, 0, 62, 0
2, 45410, Note_on_c, 0, 45, 90
2, 45410, Note_on_c, 0, 60, 90
2, 45415, Note_on_c, 0, 47, 0
2, 45510, Note_on_c, 0, 60, 0
2, 45565, Note_on_c, 0, 66, 0
2, 45565, Note_on_c, 0, 59, 90
2, 45565, Note_on_c, 0, 67, 90
2, 45570, Note_on_c, 0, 43, 90
2, 45575, Note_on_c, 0, 45, 0
2, 45640, Note_on_c, 0, 59, 0
2, 45677, Note_on_c, 0, 67, 0
2, 45730, Note_on_c, 0, 76, 90
2, 45860, Note_on_c, 0, 76, 0
2, 45860, Note_on_c, 0, 74, 90
2, 45895, Note_on_c, 0, 43, 0
2, 46010, Note_on_c, 0, 72, 90
2, 46025, Note_on_c, 0, 74, 0
2, 46155, Note_on_c, 0, 72, 0
2, 46160, Note_on_c, 0, 71, 90
2, 46310, Note_on_c, 0, 64, 90
2, 46460, Note_on_c, 0, 62, 90
2, 46465, Note_on_c, 0, 64, 0
2, 46590, Note_on_c, 0, 71, 0
2, 46605, Note_on_c, 0, 60, 90
2, 46610, Note_on_c, 0, 62, 0
2, 46610, Note_on_c, 0, 72, 90
2, 46690, Note_on_c, 0, 72, 0
2, 46755, Note_on_c, 0, 60, 0
2, 46755, Note_on_c, 0, 59, 90
2, 46760, Note_on_c, 0, 74, 90
2, 46910, Note_on_c, 0, 62, 90
2, 46915, Note_on_c, 0, 59, 0
2, 46980, Note_on_c, 0, 62, 0
2, 47060, Note_on_c, 0, 55, 90
2, 47215, Note_on_c, 0, 64, 90
2, 47235, Note_on_c, 0, 74, 0
2, 47295, Note_on_c, 0, 64, 0
2, 47365, Note_on_c, 0, 72, 90
2, 47400, Note_on_c, 0, 55, 0
2, 47520, Note_on_c, 0, 60, 90
2, 47580, Note_on_c, 0, 60, 0
2, 47670, Note_on_c, 0, 52, 90
2, 47830, Note_on_c, 0, 72, 0
2, 47830, Note_on_c, 0, 66, 90
2, 47885, Note_on_c, 0, 66, 0
2, 47950, Note_on_c, 0, 52, 0
2, 47975, Note_on_c, 0, 71, 90
2, 48115, Note_on_c, 0, 52, 90
2, 48185, Note_on_c, 0, 52, 0
2, 48280, Note_on_c, 0, 64, 90
2, 48305, Note_on_c, 0, 71, 0
2, 48435, Note_on_c, 0, 67, 90
2, 48490, Note_on_c, 0, 67, 0
2, 48590, Note_on_c, 0, 72, 90
2, 48655, Note_on_c, 0, 64, 0
2, 48735, Note_on_c, 0, 54, 90
2, 48790, Note_on_c, 0, 54, 0
2, 48890, Note_on_c, 0, 62, 90
2, 49035, Note_on_c, 0, 72, 0
2, 49035, Note_on_c, 0, 69, 90
2, 49115, Note_on_c, 0, 69, 0
2, 49190, Note_on_c, 0, 74, 90
2, 49225, Note_on_c, 0, 62, 0
2, 49330, Note_on_c, 0, 57, 90
2, 49385, Note_on_c, 0, 57, 0
2, 49490, Note_on_c, 0, 67, 90
2, 49635, Note_on_c, 0, 74, 0
2, 49640, Note_on_c, 0, 71, 90
2, 49705, Note_on_c, 0, 71, 0
2, 49785, Note_on_c, 0, 72, 90
2, 49860, Note_on_c, 0, 67, 0
2, 49925, Note_on_c, 0, 57, 90
2, 49985, Note_on_c, 0, 57, 0
2, 50080, Note_on_c, 0, 66, 90
2, 50200, Note_on_c, 0, 72, 0
2, 50225, Note_on_c, 0, 63, 90
2, 50270, Note_on_c, 0, 63, 0
2, 50375, Note_on_c, 0, 71, 90
2, 50395, Note_on_c, 0, 66, 0
2, 50530, Note_on_c, 0, 59, 90
2, 50675, Note_on_c, 0, 59, 0
2, 50690, Note_on_c, 0, 64, 90
2, 50720, Note_on_c, 0, 71, 0
2, 50835, Note_on_c, 0, 61, 90
2, 50895, Note_on_c, 0, 61, 0
2, 50980, Note_on_c, 0, 69, 90
2, 51125, Note_on_c, 0, 64, 0
2, 51125, Note_on_c, 0, 61, 90
2, 51185, Note_on_c, 0, 61, 0
2, 51280, Note_on_c, 0, 63, 90
2, 51315, Note_on_c, 0, 69, 0
2, 51440, Note_on_c, 0, 59, 90
2, 51555, Note_on_c, 0, 59, 0
2, 51595, Note_on_c, 0, 63, 0
2, 51600, Note_on_c, 0, 67, 90
2, 51745, Note_on_c, 0, 64, 90
2, 51895, Note_on_c, 0, 62, 90
2, 51905, Note_on_c, 0, 64, 0
2, 52040, Note_on_c, 0, 60, 90
2, 52050, Note_on_c, 0, 67, 0
2, 52060, Note_on_c, 0, 62, 0
2, 52185, Note_on_c, 0, 60, 0
2, 52190, Note_on_c, 0, 59, 90
2, 52280, Note_on_c, 0, 59, 0
2, 52335, Note_on_c, 0, 57, 90
2, 52340, Note_on_c, 0, 66, 90
2, 52490, Note_on_c, 0, 66, 0
2, 52490, Note_on_c, 0, 64, 90
2, 52490, Note_on_c, 0, 55, 90
2, 52500, Note_on_c, 0, 57, 0
2, 52610, Note_on_c, 0, 64, 0
2, 52645, Note_on_c, 0, 63, 90
2, 52645, Note_on_c, 0, 54, 90
2, 52650, Note_on_c, 0, 55, 0
2, 52715, Note_on_c, 0, 63, 0
2, 52800, Note_on_c, 0, 67, 90
2, 52800, Note_on_c, 0, 64, 90
2, 52800, Note_on_c, 0, 52, 90
2, 52805, Note_on_c, 0, 54, 0
2, 52860, Note_on_c, 0, 64, 0
2, 52940, Note_on_c, 0, 64, 90
2, 52960, Note_on_c, 0, 52, 0
2, 53090, Note_on_c, 0, 62, 90
2, 53095, Note_on_c, 0, 64, 0
2, 53230, Note_on_c, 0, 62, 0
2, 53240, Note_on_c, 0, 60, 90
2, 53332, Note_on_c, 0, 67, 0
2, 53375, Note_on_c, 0, 60, 0
2, 53375, Note_on_c, 0, 67, 90
2, 53380, Note_on_c, 0, 59, 90
2, 53530, Note_on_c, 0, 52, 90
2, 53665, Note_on_c, 0, 50, 90
2, 53675, Note_on_c, 0, 52, 0
2, 53805, Note_on_c, 0, 48, 90
2, 53815, Note_on_c, 0, 60, 90
2, 53820, Note_on_c, 0, 59, 0
2, 53820, Note_on_c, 0, 50, 0
2, 53875, Note_on_c, 0, 60, 0
2, 53880, Note_on_c, 0, 67, 0
2, 53880, Note_on_c, 0, 48, 0
2, 53960, Note_on_c, 0, 62, 90
2, 53960, Note_on_c, 0, 67, 90
2, 53965, Note_on_c, 0, 47, 90
2, 54110, Note_on_c, 0, 47, 0
2, 54110, Note_on_c, 0, 50, 90
2, 54165, Note_on_c, 0, 50, 0
2, 54260, Note_on_c, 0, 43, 90
2, 54400, Note_on_c, 0, 67, 0
2, 54405, Note_on_c, 0, 65, 90
2, 54475, Note_on_c, 0, 62, 0
2, 54485, Note_on_c, 0, 65, 0
2, 54555, Note_on_c, 0, 64, 90
2, 54700, Note_on_c, 0, 48, 90
2, 54705, Note_on_c, 0, 43, 0
2, 54855, Note_on_c, 0, 48, 0
2, 54855, Note_on_c, 0, 36, 90
2, 54932, Note_on_c, 0, 64, 0
2, 55015, Note_on_c, 0, 66, 90
2, 55113, Note_on_c, 0, 66, 0
2, 55165, Note_on_c, 0, 67, 90
2, 55175, Note_on_c, 0, 36, 0
2, 55305, Note_on_c, 0, 40, 90
2, 55355, Note_on_c, 0, 40, 0
2, 55465, Note_on_c, 0, 52, 90
2, 55605, Note_on_c, 0, 55, 90
2, 55630, Note_on_c, 0, 67, 0
2, 55660, Note_on_c, 0, 55, 0
2, 55755, Note_on_c, 0, 69, 90
2, 55755, Note_on_c, 0, 60, 90
2, 55770, Note_on_c, 0, 52, 0
2, 55910, Note_on_c, 0, 42, 90
2, 55965, Note_on_c, 0, 42, 0
2, 56065, Note_on_c, 0, 50, 90
2, 56195, Note_on_c, 0, 60, 0
2, 56205, Note_on_c, 0, 57, 90
2, 56250, Note_on_c, 0, 57, 0
2, 56260, Note_on_c, 0, 69, 0
2, 56355, Note_on_c, 0, 71, 90
2, 56355, Note_on_c, 0, 62, 90
2, 56365, Note_on_c, 0, 50, 0
2, 56505, Note_on_c, 0, 43, 90
2, 56580, Note_on_c, 0, 43, 0
2, 56665, Note_on_c, 0, 55, 90
2, 56815, Note_on_c, 0, 64, 90
2, 56820, Note_on_c, 0, 62, 0
2, 56945, Note_on_c, 0, 71, 0
2, 56955, Note_on_c, 0, 60, 90
2, 56955, Note_on_c, 0, 69, 90
2, 56965, Note_on_c, 0, 64, 0
2, 56995, Note_on_c, 0, 55, 0
2, 57105, Note_on_c, 0, 45, 90
2, 57165, Note_on_c, 0, 45, 0
2, 57255, Note_on_c, 0, 54, 90
2, 57390, Note_on_c, 0, 62, 90
2, 57400, Note_on_c, 0, 60, 0
2, 57540, Note_on_c, 0, 69, 0
2, 57540, Note_on_c, 0, 59, 90
2, 57540, Note_on_c, 0, 67, 90
2, 57550, Note_on_c, 0, 62, 0
2, 57565, Note_on_c, 0, 54, 0
2, 57690, Note_on_c, 0, 47, 90
2, 57750, Note_on_c, 0, 47, 0
2, 57840, Note_on_c, 0, 52, 90
2, 57895, Note_on_c, 0, 59, 0
2, 57985, Note_on_c, 0, 60, 90
2, 58115, Note_on_c, 0, 52, 0
2, 58120, Note_on_c, 0, 57, 90
2, 58125, Note_on_c, 0, 60, 0
2, 58125, Note_on_c, 0, 66, 90
2, 58130, Note_on_c, 0, 67, 0
2, 58280, Note_on_c, 0, 49, 90
2, 58325, Note_on_c, 0, 49, 0
2, 58450, Note_on_c, 0, 51, 90
2, 58605, Note_on_c, 0, 59, 90
2, 58610, Note_on_c, 0, 57, 0
2, 58630, Note_on_c, 0, 51, 0
2, 58755, Note_on_c, 0, 66, 0
2, 58760, Note_on_c, 0, 59, 0
2, 58765, Note_on_c, 0, 64, 90
2, 58765, Note_on_c, 0, 52, 90
2, 58765, Note_on_c, 0, 56, 90
2, 58895, Note_on_c, 0, 52, 0
2, 58915, Note_on_c, 0, 48, 90
2, 58970, Note_on_c, 0, 56, 0
2, 59065, Note_on_c, 0, 57, 90
2, 59065, Note_on_c, 0, 47, 90
2, 59070, Note_on_c, 0, 48, 0
2, 59220, Note_on_c, 0, 47, 0
2, 59220, Note_on_c, 0, 45, 90
2, 59375, Note_on_c, 0, 57, 0
2, 59375, Note_on_c, 0, 59, 90
2, 59380, Note_on_c, 0, 45, 0
2, 59380, Note_on_c, 0, 44, 90
2, 59520, Note_on_c, 0, 53, 90
2, 59645, Note_on_c, 0, 53, 0
2, 59685, Note_on_c, 0, 52, 90
2, 59840, Note_on_c, 0, 50, 90
2, 59845, Note_on_c, 0, 52, 0
2, 59910, Note_on_c, 0, 44, 0
2, 59990, Note_on_c, 0, 45, 90
2, 59995, Note_on_c, 0, 49, 90
2, 60005, Note_on_c, 0, 59, 0
2, 60010, Note_on_c, 0, 50, 0
2, 60130, Note_on_c, 0, 59, 90
2, 60280, Note_on_c, 0, 57, 90
2, 60285, Note_on_c, 0, 59, 0
2, 60425, Note_on_c, 0, 56, 90
2, 60430, Note_on_c, 0, 57, 0
2, 60450, Note_on_c, 0, 49, 0
2, 60570, Note_on_c, 0, 57, 90
2, 60575, Note_on_c, 0, 56, 0
2, 60575, Note_on_c, 0, 48, 90
2, 60595, Note_on_c, 0, 64, 0
2, 60720, Note_on_c, 0, 66, 90
2, 60870, Note_on_c, 0, 64, 90
2, 60880, Note_on_c, 0, 66, 0
2, 60975, Note_on_c, 0, 45, 0
2, 61025, Note_on_c, 0, 64, 0
2, 61025, Note_on_c, 0, 63, 90
2, 61165, Note_on_c, 0, 40, 90
2, 61170, Note_on_c, 0, 64, 90
2, 61175, Note_on_c, 0, 63, 0
2, 61190, Note_on_c, 0, 48, 0
2, 61195, Note_on_c, 0, 57, 0
2, 61315, Note_on_c, 0, 57, 90
2, 61320, Note_on_c, 0, 48, 90
2, 61465, Note_on_c, 0, 47, 90
2, 61470, Note_on_c, 0, 57, 0
2, 61470, Note_on_c, 0, 48, 0
2, 61470, Note_on_c, 0, 56, 90
2, 61605, Note_on_c, 0, 54, 90
2, 61605, Note_on_c, 0, 45, 90
2, 61610, Note_on_c, 0, 47, 0
2, 61610, Note_on_c, 0, 56, 0
2, 61760, Note_on_c, 0, 47, 90
2, 61765, Note_on_c, 0, 56, 90
2, 61770, Note_on_c, 0, 54, 0
2, 61780, Note_on_c, 0, 45, 0
2, 61790, Note_on_c, 0, 40, 0
2, 61915, Note_on_c, 0, 40, 90
2, 62020, Note_on_c, 0, 47, 0
2, 62085, Note_on_c, 0, 52, 90
2, 62230, Note_on_c, 0, 40, 0
2, 62240, Note_on_c, 0, 52, 0
2, 62325, Note_on_c, 0, 56, 0
2, 62345, Note_on_c, 0, 64, 0
2, 62385, Note_on_c, 0, 55, 90
2, 62535, Note_on_c, 0, 67, 90
2, 62665, Note_on_c, 0, 67, 0
2, 62670, Note_on_c, 0, 66, 90
2, 62805, Note_on_c, 0, 66, 0
2, 62810, Note_on_c, 0, 65, 90
2, 62830, Note_on_c, 0, 55, 0
2, 62955, Note_on_c, 0, 65, 0
2, 62955, Note_on_c, 0, 64, 90
2, 62960, Note_on_c, 0, 55, 90
2, 63110, Note_on_c, 0, 64, 0
2, 63115, Note_on_c, 0, 63, 90
2, 63260, Note_on_c, 0, 63, 0
2, 63265, Note_on_c, 0, 62, 90
2, 63400, Note_on_c, 0, 62, 0
2, 63400, Note_on_c, 0, 60, 90
2, 63504, Note_on_c, 0, 60, 0
2, 63520, Note_on_c, 0, 55, 0
2, 63560, Note_on_c, 0, 55, 90
2, 63565, Note_on_c, 0, 59, 90
2, 63710, Note_on_c, 0, 52, 90
2, 63795, Note_on_c, 0, 59, 0
2, 63850, Note_on_c, 0, 60, 90
2, 63855, Note_on_c, 0, 51, 90
2, 63860, Note_on_c, 0, 52, 0
2, 63985, Note_on_c, 0, 60, 0
2, 63990, Note_on_c, 0, 51, 0
2, 63990, Note_on_c, 0, 50, 90
2, 63995, Note_on_c, 0, 55, 0
2, 63995, Note_on_c, 0, 62, 90
2, 64104, Note_on_c, 0, 50, 0
2, 64104, Note_on_c, 0, 62, 0
2, 64140, Note_on_c, 0, 52, 90
2, 64140, Note_on_c, 0, 64, 90
2, 64145, Note_on_c, 0, 49, 90
2, 64285, Note_on_c, 0, 64, 0
2, 64285, Note_on_c, 0, 49, 0
2, 64285, Note_on_c, 0, 48, 90
2, 64285, Note_on_c, 0, 66, 90
2, 64430, Note_on_c, 0, 48, 0
2, 64430, Note_on_c, 0, 66, 0
2, 64430, Note_on_c, 0, 47, 90
2, 64435, Note_on_c, 0, 67, 90
2, 64580, Note_on_c, 0, 45, 90
2, 64585, Note_on_c, 0, 69, 90
2, 64590, Note_on_c, 0, 47, 0
2, 64590, Note_on_c, 0, 67, 0
2, 64600, Note_on_c, 0, 52, 0
2, 64665, Note_on_c, 0, 69, 0
2, 64730, Note_on_c, 0, 71, 90
2, 64735, Note_on_c, 0, 43, 90
2, 64735, Note_on_c, 0, 55, 90
2, 64755, Note_on_c, 0, 45, 0
2, 64860, Note_on_c, 0, 55, 0
2, 64895, Note_on_c, 0, 71, 0
2, 64895, Note_on_c, 0, 50, 90
2, 64895, Note_on_c, 0, 79, 90
2, 64910, Note_on_c, 0, 43, 0
2, 65045, Note_on_c, 0, 51, 90
2, 65045, Note_on_c, 0, 78, 90
2, 65050, Note_on_c, 0, 79, 0
2, 65055, Note_on_c, 0, 50, 0
2, 65180, Note_on_c, 0, 51, 0
2, 65185, Note_on_c, 0, 52, 90
2, 65195, Note_on_c, 0, 76, 90
2, 65205, Note_on_c, 0, 78, 0
2, 65330, Note_on_c, 0, 52, 0
2, 65330, Note_on_c, 0, 76, 0
2, 65335, Note_on_c, 0, 74, 90
2, 65335, Note_on_c, 0, 57, 90
2, 65335, Note_on_c, 0, 53, 90
2, 65490, Note_on_c, 0, 72, 90
2, 65490, Note_on_c, 0, 54, 90
2, 65495, Note_on_c, 0, 53, 0
2, 65500, Note_on_c, 0, 74, 0
2, 65635, Note_on_c, 0, 72, 0
2, 65635, Note_on_c, 0, 71, 90
2, 65635, Note_on_c, 0, 55, 90
2, 65640, Note_on_c, 0, 54, 0
2, 65732, Note_on_c, 0, 57, 0
2, 65785, Note_on_c, 0, 71, 0
2, 65785, Note_on_c, 0, 55, 0
2, 65785, Note_on_c, 0, 69, 90
2, 65785, Note_on_c, 0, 57, 90
2, 65930, Note_on_c, 0, 59, 90
2, 65930, Note_on_c, 0, 67, 90
2, 65935, Note_on_c, 0, 69, 0
2, 66080, Note_on_c, 0, 67, 0
2, 66093, Note_on_c, 0, 57, 0
2, 66095, Note_on_c, 0, 64, 90
2, 66095, Note_on_c, 0, 55, 90
2, 66156, Note_on_c, 0, 54, 90
2, 66173, Note_on_c, 0, 55, 0
2, 66240, Note_on_c, 0, 63, 90
2, 66241, Note_on_c, 0, 54, 0
2, 66245, Note_on_c, 0, 64, 0
2, 66260, Note_on_c, 0, 55, 90
2, 66377, Note_on_c, 0, 63, 0
2, 66394, Note_on_c, 0, 62, 90
2, 66420, Note_on_c, 0, 59, 0
2, 66492, Note_on_c, 0, 62, 0
2, 66570, Note_on_c, 0, 57, 90
2, 66570, Note_on_c, 0, 61, 90
2, 66654, Note_on_c, 0, 55, 0
2, 66680, Note_on_c, 0, 61, 0
2, 66735, Note_on_c, 0, 54, 90
2, 66740, Note_on_c, 0, 60, 90
2, 66805, Note_on_c, 0, 54, 0
2, 66805, Note_on_c, 0, 52, 90
2, 66885, Note_on_c, 0, 60, 0
2, 66885, Note_on_c, 0, 59, 90
2, 66885, Note_on_c, 0, 54, 90
2, 66900, Note_on_c, 0, 52, 0
2, 66989, Note_on_c, 0, 57, 0
2, 67035, Note_on_c, 0, 59, 0
2, 67035, Note_on_c, 0, 57, 90
2, 67135, Note_on_c, 0, 57, 0
2, 67160, Note_on_c, 0, 54, 0
2, 67180, Note_on_c, 0, 55, 90
2, 67185, Note_on_c, 0, 59, 90
2, 67275, Note_on_c, 0, 55, 0
2, 67325, Note_on_c, 0, 55, 90
2, 67470, Note_on_c, 0, 54, 90
2, 67480, Note_on_c, 0, 55, 0
2, 67485, Note_on_c, 0, 59, 0
2, 67620, Note_on_c, 0, 53, 90
2, 67625, Note_on_c, 0, 54, 0
2, 67775, Note_on_c, 0, 52, 90
2, 67780, Note_on_c, 0, 53, 0
2, 67925, Note_on_c, 0, 51, 90
2, 67930, Note_on_c, 0, 52, 0
2, 68075, Note_on_c, 0, 51, 0
2, 68080, Note_on_c, 0, 50, 90
2, 68210, Note_on_c, 0, 50, 0
2, 68230, Note_on_c, 0, 48, 90
2, 68325, Note_on_c, 0, 48, 0
2, 68380, Note_on_c, 0, 47, 90
2, 68530, Note_on_c, 0, 71, 90
2, 68670, Note_on_c, 0, 47, 0
2, 68670, Note_on_c, 0, 71, 0
2, 68675, Note_on_c, 0, 49, 90
2, 68675, Note_on_c, 0, 70, 90
2, 68810, Note_on_c, 0, 70, 0
2, 68815, Note_on_c, 0, 49, 0
2, 68815, Note_on_c, 0, 51, 90
2, 68820, Note_on_c, 0, 69, 90
2, 68910, Note_on_c, 0, 51, 0
2, 68925, Note_on_c, 0, 69, 0
2, 68980, Note_on_c, 0, 68, 90
2, 68980, Note_on_c, 0, 52, 90
2, 69125, Note_on_c, 0, 68, 0
2, 69125, Note_on_c, 0, 67, 90
2, 69235, Note_on_c, 0, 52, 0
2, 69250, Note_on_c, 0, 67, 0
2, 69270, Note_on_c, 0, 66, 90
2, 69270, Note_on_c, 0, 46, 90
2, 69420, Note_on_c, 0, 66, 0
2, 69420, Note_on_c, 0, 64, 90
2, 69495, Note_on_c, 0, 46, 0
2, 69565, Note_on_c, 0, 47, 90
2, 69570, Note_on_c, 0, 64, 0
2, 69570, Note_on_c, 0, 62, 90
2, 69645, Note_on_c, 0, 47, 0
2, 69725, Note_on_c, 0, 50, 90
2, 69850, Note_on_c, 0, 50, 0
2, 69880, Note_on_c, 0, 49, 90
2, 70030, Note_on_c, 0, 49, 0
2, 70030, Note_on_c, 0, 48, 90
2, 70070, Note_on_c, 0, 62, 0
2, 70180, Note_on_c, 0, 62, 90
2, 70185, Note_on_c, 0, 47, 90
2, 70190, Note_on_c, 0, 48, 0
2, 70330, Note_on_c, 0, 46, 90
2, 70335, Note_on_c, 0, 47, 0
2, 70480, Note_on_c, 0, 46, 0
2, 70480, Note_on_c, 0, 45, 90
2, 70630, Note_on_c, 0, 43, 90
2, 70640, Note_on_c, 0, 45, 0
2, 70650, Note_on_c, 0, 62, 0
2, 70790, Note_on_c, 0, 43, 0
2, 70790, Note_on_c, 0, 62, 90
2, 70790, Note_on_c, 0, 42, 90
2, 70935, Note_on_c, 0, 59, 90
2, 70970, Note_on_c, 0, 42, 0
2, 71020, Note_on_c, 0, 59, 0
2, 71080, Note_on_c, 0, 58, 90
2, 71085, Note_on_c, 0, 43, 90
2, 71220, Note_on_c, 0, 58, 0
2, 71225, Note_on_c, 0, 57, 90
2, 71230, Note_on_c, 0, 43, 0
2, 71230, Note_on_c, 0, 45, 90
2, 71300, Note_on_c, 0, 62, 0
2, 71305, Note_on_c, 0, 57, 0
2, 71385, Note_on_c, 0, 59, 90
2, 71385, Note_on_c, 0, 56, 90
2, 71390, Note_on_c, 0, 47, 90
2, 71395, Note_on_c, 0, 45, 0
2, 71535, Note_on_c, 0, 56, 0
2, 71535, Note_on_c, 0, 55, 90
2, 71545, Note_on_c, 0, 49, 90
2, 71560, Note_on_c, 0, 47, 0
2, 71655, Note_on_c, 0, 55, 0
2, 71710, Note_on_c, 0, 50, 90
2, 71715, Note_on_c, 0, 49, 0
2, 71715, Note_on_c, 0, 54, 90
2, 71835, Note_on_c, 0, 54, 0
2, 71855, Note_on_c, 0, 50, 0
2, 71855, Note_on_c, 0, 52, 90
2, 71860, Note_on_c, 0, 59, 0
2, 71970, Note_on_c, 0, 52, 0
2, 72004, Note_on_c, 0, 62, 90
2, 72005, Note_on_c, 0, 50, 90
2, 72005, Note_on_c, 0, 54, 90
2, 72065, Note_on_c, 0, 54, 0
2, 72125, Note_on_c, 0, 50, 0
2, 72139, Note_on_c, 0, 50, 90
2, 72140, Note_on_c, 0, 57, 90
2, 72259, Note_on_c, 0, 50, 0
2, 72275, Note_on_c, 0, 49, 90
2, 72280, Note_on_c, 0, 58, 90
2, 72285, Note_on_c, 0, 57, 0
2, 72385, Note_on_c, 0, 49, 0
2, 72415, Note_on_c, 0, 58, 0
2, 72419, Note_on_c, 0, 47, 90
2, 72420, Note_on_c, 0, 59, 90
2, 72479, Note_on_c, 0, 62, 0
2, 72490, Note_on_c, 0, 59, 0
2, 72529, Note_on_c, 0, 47, 0
2, 72565, Note_on_c, 0, 45, 90
2, 72570, Note_on_c, 0, 60, 90
2, 72570, Note_on_c, 0, 64, 90
2, 72715, Note_on_c, 0, 60, 0
2, 72715, Note_on_c, 0, 61, 90
2, 72720, Note_on_c, 0, 43, 90
2, 72730, Note_on_c, 0, 45, 0
2, 72860, Note_on_c, 0, 61, 0
2, 72860, Note_on_c, 0, 62, 90
2, 72865, Note_on_c, 0, 64, 0
2, 72865, Note_on_c, 0, 42, 90
2, 72875, Note_on_c, 0, 43, 0
2, 73005, Note_on_c, 0, 62, 0
2, 73005, Note_on_c, 0, 42, 0
2, 73005, Note_on_c, 0, 64, 90
2, 73010, Note_on_c, 0, 40, 90
2, 73150, Note_on_c, 0, 38, 90
2, 73155, Note_on_c, 0, 66, 90
2, 73170, Note_on_c, 0, 40, 0
2, 73254, Note_on_c, 0, 38, 0
2, 73305, Note_on_c, 0, 64, 0
2, 73305, Note_on_c, 0, 62, 90
2, 73310, Note_on_c, 0, 59, 90
2, 73380, Note_on_c, 0, 61, 90
2, 73385, Note_on_c, 0, 62, 0
2, 73465, Note_on_c, 0, 61, 0
2, 73465, Note_on_c, 0, 62, 90
2, 73465, Note_on_c, 0, 58, 90
2, 73475, Note_on_c, 0, 59, 0
2, 73615, Note_on_c, 0, 58, 0
2, 73615, Note_on_c, 0, 57, 90
2, 73755, Note_on_c, 0, 66, 0
2, 73760, Note_on_c, 0, 64, 90
2, 73760, Note_on_c, 0, 56, 90
2, 73775, Note_on_c, 0, 57, 0
2, 73890, Note_on_c, 0, 62, 0
2, 73910, Note_on_c, 0, 55, 90
2, 73915, Note_on_c, 0, 56, 0
2, 73915, Note_on_c, 0, 61, 90
2, 73990, Note_on_c, 0, 61, 0
2, 73990, Note_on_c, 0, 59, 90
2, 74050, Note_on_c, 0, 59, 0
2, 74075, Note_on_c, 0, 61, 90
2, 74085, Note_on_c, 0, 54, 90
2, 74095, Note_on_c, 0, 55, 0
2, 74225, Note_on_c, 0, 54, 0
2, 74225, Note_on_c, 0, 52, 90
2, 74350, Note_on_c, 0, 64, 0
2, 74365, Note_on_c, 0, 61, 0
2, 74365, Note_on_c, 0, 62, 90
2, 74365, Note_on_c, 0, 54, 90
2, 74380, Note_on_c, 0, 52, 0
2, 74470, Note_on_c, 0, 62, 0
2, 74520, Note_on_c, 0, 62, 90
2, 74525, Note_on_c, 0, 50, 90
2, 74535, Note_on_c, 0, 54, 0
2, 74670, Note_on_c, 0, 61, 90
2, 74670, Note_on_c, 0, 52, 90
2, 74680, Note_on_c, 0, 50, 0
2, 74800, Note_on_c, 0, 61, 0
2, 74815, Note_on_c, 0, 54, 90
2, 74815, Note_on_c, 0, 60, 90
2, 74830, Note_on_c, 0, 52, 0
2, 74955, Note_on_c, 0, 54, 0
2, 74955, Note_on_c, 0, 60, 0
2, 74955, Note_on_c, 0, 59, 90
2, 74960, Note_on_c, 0, 55, 90
2, 74965, Note_on_c, 0, 62, 0
2, 75105, Note_on_c, 0, 59, 0
2, 75105, Note_on_c, 0, 58, 90
2, 75150, Note_on_c, 0, 55, 0
2, 75245, Note_on_c, 0, 58, 0
2, 75250, Note_on_c, 0, 57, 90
2, 75255, Note_on_c, 0, 49, 90
2, 75395, Note_on_c, 0, 57, 0
2, 75395, Note_on_c, 0, 55, 90
2, 75505, Note_on_c, 0, 49, 0
2, 75545, Note_on_c, 0, 54, 90
2, 75545, Note_on_c, 0, 50, 90
2, 75550, Note_on_c, 0, 55, 0
2, 75660, Note_on_c, 0, 50, 0
2, 75705, Note_on_c, 0, 54, 0
2, 75710, Note_on_c, 0, 52, 90
2, 75860, Note_on_c, 0, 52, 0
2, 75860, Note_on_c, 0, 51, 90
2, 75860, Note_on_c, 0, 54, 90
2, 75980, Note_on_c, 0, 51, 0
2, 76010, Note_on_c, 0, 56, 90
2, 76010, Note_on_c, 0, 50, 90
2, 76015, Note_on_c, 0, 54, 0
2, 76120, Note_on_c, 0, 50, 0
2, 76160, Note_on_c, 0, 56, 0
2, 76165, Note_on_c, 0, 57, 90
2, 76170, Note_on_c, 0, 49, 90
2, 76305, Note_on_c, 0, 49, 0
2, 76305, Note_on_c, 0, 48, 90
2, 76445, Note_on_c, 0, 51, 90
2, 76450, Note_on_c, 0, 57, 0
2, 76450, Note_on_c, 0, 48, 0
2, 76450, Note_on_c, 0, 47, 90
2, 76600, Note_on_c, 0, 45, 90
2, 76610, Note_on_c, 0, 47, 0
2, 76685, Note_on_c, 0, 51, 0
2, 76755, Note_on_c, 0, 43, 90
2, 76755, Note_on_c, 0, 52, 90
2, 76775, Note_on_c, 0, 45, 0
2, 76905, Note_on_c, 0, 67, 90
2, 77000, Note_on_c, 0, 52, 0
2, 77040, Note_on_c, 0, 67, 0
2, 77050, Note_on_c, 0, 45, 90
2, 77050, Note_on_c, 0, 66, 90
2, 77070, Note_on_c, 0, 43, 0
2, 77195, Note_on_c, 0, 45, 0
2, 77195, Note_on_c, 0, 66, 0
2, 77195, Note_on_c, 0, 47, 90
2, 77200, Note_on_c, 0, 65, 90
2, 77345, Note_on_c, 0, 65, 0
2, 77345, Note_on_c, 0, 64, 90
2, 77350, Note_on_c, 0, 47, 0
2, 77350, Note_on_c, 0, 48, 90
2, 77505, Note_on_c, 0, 63, 90
2, 77510, Note_on_c, 0, 64, 0
2, 77510, Note_on_c, 0, 48, 0
2, 77510, Note_on_c, 0, 50, 90
2, 77650, Note_on_c, 0, 63, 0
2, 77655, Note_on_c, 0, 52, 90
2, 77665, Note_on_c, 0, 62, 90
2, 77670, Note_on_c, 0, 50, 0
2, 77805, Note_on_c, 0, 52, 0
2, 77805, Note_on_c, 0, 62, 0
2, 77805, Note_on_c, 0, 54, 90
2, 77805, Note_on_c, 0, 60, 90
2, 77950, Note_on_c, 0, 60, 0
2, 77955, Note_on_c, 0, 54, 0
2, 77955, Note_on_c, 0, 59, 90
2, 77960, Note_on_c, 0, 55, 90
2, 78100, Note_on_c, 0, 55, 0
2, 78115, Note_on_c, 0, 52, 90
2, 78165, Note_on_c, 0, 59, 0
2, 78255, Note_on_c, 0, 60, 90
2, 78260, Note_on_c, 0, 52, 0
2, 78260, Note_on_c, 0, 51, 90
2, 78400, Note_on_c, 0, 51, 0
2, 78405, Note_on_c, 0, 50, 90
2, 78410, Note_on_c, 0, 60, 0
2, 78410, Note_on_c, 0, 62, 90
2, 78550, Note_on_c, 0, 64, 90
2, 78555, Note_on_c, 0, 50, 0
2, 78555, Note_on_c, 0, 62, 0
2, 78555, Note_on_c, 0, 49, 90
2, 78695, Note_on_c, 0, 49, 0
2, 78695, Note_on_c, 0, 48, 90
2, 78700, Note_on_c, 0, 64, 0
2, 78700, Note_on_c, 0, 66, 90
2, 78850, Note_on_c, 0, 66, 0
2, 78855, Note_on_c, 0, 47, 90
2, 78855, Note_on_c, 0, 67, 90
2, 78860, Note_on_c, 0, 48, 0
2, 78995, Note_on_c, 0, 67, 0
2, 78995, Note_on_c, 0, 69, 90
2, 78995, Note_on_c, 0, 45, 90
2, 79000, Note_on_c, 0, 47, 0
2, 79140, Note_on_c, 0, 69, 0
2, 79140, Note_on_c, 0, 43, 90
2, 79140, Note_on_c, 0, 71, 90
2, 79150, Note_on_c, 0, 45, 0
2, 79235, Note_on_c, 0, 71, 0
2, 79245, Note_on_c, 0, 43, 0
2, 79300, Note_on_c, 0, 50, 90
2, 79300, Note_on_c, 0, 79, 90
2, 79390, Note_on_c, 0, 50, 0
2, 79455, Note_on_c, 0, 79, 0
2, 79455, Note_on_c, 0, 51, 90
2, 79455, Note_on_c, 0, 78, 90
2, 79590, Note_on_c, 0, 51, 0
2, 79595, Note_on_c, 0, 52, 90
2, 79600, Note_on_c, 0, 76, 90
2, 79605, Note_on_c, 0, 78, 0
2, 79730, Note_on_c, 0, 76, 0
2, 79735, Note_on_c, 0, 52, 0
2, 79750, Note_on_c, 0, 74, 90
2, 79750, Note_on_c, 0, 53, 90
2, 79910, Note_on_c, 0, 72, 90
2, 79915, Note_on_c, 0, 74, 0
2, 79915, Note_on_c, 0, 54, 90
2, 79920, Note_on_c, 0, 53, 0
2, 80065, Note_on_c, 0, 55, 90
2, 80070, Note_on_c, 0, 71, 90
2, 80075, Note_on_c, 0, 72, 0
2, 80075, Note_on_c, 0, 54, 0
2, 80215, Note_on_c, 0, 55, 0
2, 80220, Note_on_c, 0, 71, 0
2, 80220, Note_on_c, 0, 57, 90
2, 80220, Note_on_c, 0, 69, 90
2, 80365, Note_on_c, 0, 69, 0
2, 80365, Note_on_c, 0, 67, 90
2, 80475, Note_on_c, 0, 57, 0
2, 80515, Note_on_c, 0, 67, 0
2, 80520, Note_on_c, 0, 64, 90
2, 80530, Note_on_c, 0, 55, 90
2, 80600, Note_on_c, 0, 55, 0
2, 80600, Note_on_c, 0, 54, 90
2, 80675, Note_on_c, 0, 54, 0
2, 80685, Note_on_c, 0, 63, 90
2, 80685, Note_on_c, 0, 55, 90
2, 80690, Note_on_c, 0, 64, 0
2, 80830, Note_on_c, 0, 62, 90
2, 80835, Note_on_c, 0, 63, 0
2, 80965, Note_on_c, 0, 62, 0
2, 80980, Note_on_c, 0, 61, 90
2, 81085, Note_on_c, 0, 55, 0
2, 81125, Note_on_c, 0, 61, 0
2, 81125, Note_on_c, 0, 60, 90
2, 81135, Note_on_c, 0, 54, 90
2, 81210, Note_on_c, 0, 54, 0
2, 81210, Note_on_c, 0, 52, 90
2, 81280, Note_on_c, 0, 52, 0
2, 81290, Note_on_c, 0, 60, 0
2, 81290, Note_on_c, 0, 59, 90
2, 81290, Note_on_c, 0, 54, 90
2, 81430, Note_on_c, 0, 57, 90
2, 81435, Note_on_c, 0, 59, 0
2, 81527, Note_on_c, 0, 57, 0
2, 81600, Note_on_c, 0, 67, 90
2, 81600, Note_on_c, 0, 59, 90
2, 81605, Note_on_c, 0, 54, 0
2, 81750, Note_on_c, 0, 55, 90
2, 81780, Note_on_c, 0, 59, 0
2, 81905, Note_on_c, 0, 54, 90
2, 81910, Note_on_c, 0, 55, 0
2, 81910, Note_on_c, 0, 57, 90
2, 82015, Note_on_c, 0, 57, 0
2, 82055, Note_on_c, 0, 54, 0
2, 82055, Note_on_c, 0, 53, 90
2, 82055, Note_on_c, 0, 59, 90
2, 82145, Note_on_c, 0, 59, 0
2, 82155, Note_on_c, 0, 67, 0
2, 82180, Note_on_c, 0, 53, 0
2, 82205, Note_on_c, 0, 52, 90
2, 82210, Note_on_c, 0, 60, 90
2, 82210, Note_on_c, 0, 67, 90
2, 82355, Note_on_c, 0, 51, 90
2, 82355, Note_on_c, 0, 62, 90
2, 82360, Note_on_c, 0, 52, 0
2, 82360, Note_on_c, 0, 60, 0
2, 82495, Note_on_c, 0, 51, 0
2, 82495, Note_on_c, 0, 64, 90
2, 82500, Note_on_c, 0, 62, 0
2, 82500, Note_on_c, 0, 50, 90
2, 82630, Note_on_c, 0, 64, 0
2, 82645, Note_on_c, 0, 50, 0
2, 82645, Note_on_c, 0, 66, 90
2, 82645, Note_on_c, 0, 48, 90
2, 82650, Note_on_c, 0, 67, 0
2, 82800, Note_on_c, 0, 66, 0
2, 82800, Note_on_c, 0, 67, 90
2, 82805, Note_on_c, 0, 48, 0
2, 82805, Note_on_c, 0, 47, 90
2, 82950, Note_on_c, 0, 64, 90
2, 83059, Note_on_c, 0, 64, 0
2, 83100, Note_on_c, 0, 47, 0
2, 83100, Note_on_c, 0, 63, 90
2, 83100, Note_on_c, 0, 48, 90
2, 83250, Note_on_c, 0, 63, 0
2, 83250, Note_on_c, 0, 62, 90
2, 83255, Note_on_c, 0, 48, 0
2, 83255, Note_on_c, 0, 50, 90
2, 83365, Note_on_c, 0, 67, 0
2, 83365, Note_on_c, 0, 62, 0
2, 83400, Note_on_c, 0, 52, 90
2, 83400, Note_on_c, 0, 64, 90
2, 83400, Note_on_c, 0, 61, 90
2, 83405, Note_on_c, 0, 50, 0
2, 83540, Note_on_c, 0, 60, 90
2, 83540, Note_on_c, 0, 54, 90
2, 83555, Note_on_c, 0, 52, 0
2, 83555, Note_on_c, 0, 61, 0
2, 83690, Note_on_c, 0, 55, 90
2, 83695, Note_on_c, 0, 60, 0
2, 83695, Note_on_c, 0, 59, 90
2, 83700, Note_on_c, 0, 54, 0
2, 83835, Note_on_c, 0, 59, 0
2, 83840, Note_on_c, 0, 57, 90
2, 83845, Note_on_c, 0, 55, 0
2, 83905, Note_on_c, 0, 64, 0
2, 83915, Note_on_c, 0, 57, 0
2, 84000, Note_on_c, 0, 67, 90
2, 84005, Note_on_c, 0, 55, 90
2, 84005, Note_on_c, 0, 59, 90
2, 84125, Note_on_c, 0, 55, 0
2, 84130, Note_on_c, 0, 59, 0
2, 84154, Note_on_c, 0, 55, 90
2, 84155, Note_on_c, 0, 62, 90
2, 84290, Note_on_c, 0, 55, 0
2, 84295, Note_on_c, 0, 63, 90
2, 84300, Note_on_c, 0, 54, 90
2, 84305, Note_on_c, 0, 62, 0
2, 84417, Note_on_c, 0, 54, 0
2, 84430, Note_on_c, 0, 63, 0
2, 84430, Note_on_c, 0, 64, 90
2, 84433, Note_on_c, 0, 52, 90
2, 84510, Note_on_c, 0, 64, 0
2, 84515, Note_on_c, 0, 67, 0
2, 84526, Note_on_c, 0, 52, 0
2, 84575, Note_on_c, 0, 69, 90
2, 84580, Note_on_c, 0, 65, 90
2, 84590, Note_on_c, 0, 50, 90
2, 84735, Note_on_c, 0, 65, 0
2, 84735, Note_on_c, 0, 48, 90
2, 84735, Note_on_c, 0, 66, 90
2, 84740, Note_on_c, 0, 50, 0
2, 84875, Note_on_c, 0, 66, 0
2, 84875, Note_on_c, 0, 67, 90
2, 84875, Note_on_c, 0, 47, 90
2, 84880, Note_on_c, 0, 48, 0
2, 84960, Note_on_c, 0, 69, 0
2, 85010, Note_on_c, 0, 67, 0
2, 85020, Note_on_c, 0, 69, 90
2, 85025, Note_on_c, 0, 47, 0
2, 85025, Note_on_c, 0, 45, 90
2, 85170, Note_on_c, 0, 43, 90
2, 85175, Note_on_c, 0, 45, 0
2, 85175, Note_on_c, 0, 71, 90
2, 85240, Note_on_c, 0, 69, 0
2, 85270, Note_on_c, 0, 43, 0
2, 85330, Note_on_c, 0, 67, 90
2, 85330, Note_on_c, 0, 64, 90
2, 85400, Note_on_c, 0, 67, 0
2, 85400, Note_on_c, 0, 66, 90
2, 85445, Note_on_c, 0, 66, 0
2, 85485, Note_on_c, 0, 63, 90
2, 85485, Note_on_c, 0, 67, 90
2, 85495, Note_on_c, 0, 64, 0
2, 85635, Note_on_c, 0, 63, 0
2, 85635, Note_on_c, 0, 62, 90
2, 85770, Note_on_c, 0, 71, 0
2, 85770, Note_on_c, 0, 69, 90
2, 85780, Note_on_c, 0, 61, 90
2, 85795, Note_on_c, 0, 62, 0
2, 85925, Note_on_c, 0, 60, 90
2, 85930, Note_on_c, 0, 67, 0
2, 85930, Note_on_c, 0, 66, 90
2, 85935, Note_on_c, 0, 61, 0
2, 86005, Note_on_c, 0, 66, 0
2, 86005, Note_on_c, 0, 64, 90
2, 86090, Note_on_c, 0, 66, 90
2, 86090, Note_on_c, 0, 59, 90
2, 86095, Note_on_c, 0, 64, 0
2, 86100, Note_on_c, 0, 60, 0
2, 86240, Note_on_c, 0, 57, 90
2, 86245, Note_on_c, 0, 59, 0
2, 86305, Note_on_c, 0, 66, 0
2, 86325, Note_on_c, 0, 69, 0
2, 86390, Note_on_c, 0, 67, 90
2, 86390, Note_on_c, 0, 59, 90
2, 86400, Note_on_c, 0, 57, 0
2, 86510, Note_on_c, 0, 67, 0
2, 86540, Note_on_c, 0, 59, 0
2, 86545, Note_on_c, 0, 55, 90
2, 86545, Note_on_c, 0, 79, 90
2, 86670, Note_on_c, 0, 79, 0
2, 86685, Note_on_c, 0, 78, 90
2, 86690, Note_on_c, 0, 55, 0
2, 86690, Note_on_c, 0, 57, 90
2, 86835, Note_on_c, 0, 78, 0
2, 86835, Note_on_c, 0, 59, 90
2, 86835, Note_on_c, 0, 77, 90
2, 86840, Note_on_c, 0, 57, 0
2, 86970, Note_on_c, 0, 59, 0
2, 86975, Note_on_c, 0, 77, 0
2, 86975, Note_on_c, 0, 60, 90
2, 86975, Note_on_c, 0, 76, 90
2, 87125, Note_on_c, 0, 76, 0
2, 87125, Note_on_c, 0, 75, 90
2, 87130, Note_on_c, 0, 62, 90
2, 87135, Note_on_c, 0, 60, 0
2, 87280, Note_on_c, 0, 75, 0
2, 87285, Note_on_c, 0, 62, 0
2, 87285, Note_on_c, 0, 64, 90
2, 87285, Note_on_c, 0, 74, 90
2, 87435, Note_on_c, 0, 72, 90
2, 87440, Note_on_c, 0, 74, 0
2, 87440, Note_on_c, 0, 66, 90
2, 87450, Note_on_c, 0, 64, 0
2, 87543, Note_on_c, 0, 72, 0
2, 87555, Note_on_c, 0, 66, 0
2, 87600, Note_on_c, 0, 67, 90
2, 87605, Note_on_c, 0, 71, 90
2, 87675, Note_on_c, 0, 71, 0
2, 87690, Note_on_c, 0, 67, 0
2, 87745, Note_on_c, 0, 67, 90
2, 87745, Note_on_c, 0, 50, 90
2, 87745, Note_on_c, 0, 76, 90
2, 87750, Note_on_c, 0, 47, 90
2, 87843, Note_on_c, 0, 67, 0
2, 87845, Note_on_c, 0, 47, 0
2, 87850, Note_on_c, 0, 50, 0
2, 87851, Note_on_c, 0, 76, 0
2, 87895, Note_on_c, 0, 66, 90
2, 87895, Note_on_c, 0, 75, 90
2, 87895, Note_on_c, 0, 48, 90
2, 87895, Note_on_c, 0, 51, 90
2, 87975, Note_on_c, 0, 66, 0
2, 87993, Note_on_c, 0, 75, 0
2, 88035, Note_on_c, 0, 48, 0
2, 88035, Note_on_c, 0, 51, 0
2, 88040, Note_on_c, 0, 74, 90
2, 88040, Note_on_c, 0, 53, 90
2, 88040, Note_on_c, 0, 50, 90
2, 88045, Note_on_c, 0, 65, 90
2, 88100, Note_on_c, 0, 50, 0
2, 88105, Note_on_c, 0, 65, 0
2, 88110, Note_on_c, 0, 53, 0
2, 88151, Note_on_c, 0, 74, 0
2, 88190, Note_on_c, 0, 64, 90
2, 88195, Note_on_c, 0, 55, 90
2, 88195, Note_on_c, 0, 73, 90
2, 88195, Note_on_c, 0, 52, 90
2, 88280, Note_on_c, 0, 55, 0
2, 88309, Note_on_c, 0, 64, 0
2, 88325, Note_on_c, 0, 73, 0
2, 88335, Note_on_c, 0, 52, 0
2, 88335, Note_on_c, 0, 63, 90
2, 88340, Note_on_c, 0, 57, 90
2, 88340, Note_on_c, 0, 54, 90
2, 88340, Note_on_c, 0, 72, 90
2, 88435, Note_on_c, 0, 63, 0
2, 88435, Note_on_c, 0, 54, 0
2, 88443, Note_on_c, 0, 72, 0
2, 88470, Note_on_c, 0, 57, 0
2, 88490, Note_on_c, 0, 62, 90
2, 88490, Note_on_c, 0, 59, 90
2, 88490, Note_on_c, 0, 55, 90
2, 88495, Note_on_c, 0, 71, 90
2, 88565, Note_on_c, 0, 62, 0
2, 88585, Note_on_c, 0, 71, 0
2, 88630, Note_on_c, 0, 59, 0
2, 88640, Note_on_c, 0, 57, 90
2, 88640, Note_on_c, 0, 60, 90
2, 88640, Note_on_c, 0, 69, 90
2, 88655, Note_on_c, 0, 55, 0
2, 88700, Note_on_c, 0, 57, 0
2, 88720, Note_on_c, 0, 60, 0
2, 88755, Note_on_c, 0, 69, 0
2, 88800, Note_on_c, 0, 67, 90
2, 88800, Note_on_c, 0, 62, 90
2, 88800, Note_on_c, 0, 59, 90
2, 89010, Note_on_c, 0, 62, 0
2, 89015, Note_on_c, 0, 59, 0
2, 89100, Note_on_c, 0, 67, 0
2, 89404, Note_on_c, 0, 64, 90
2, 89470, Note_on_c, 0, 67, 90
2, 89535, Note_on_c, 0, 69, 90
2, 89540, Note_on_c, 0, 67, 0
2, 89595, Note_on_c, 0, 71, 90
2, 89597, Note_on_c, 0, 69, 0
2, 89666, Note_on_c, 0, 71, 0
2, 89671, Note_on_c, 0, 72, 90
2, 89809, Note_on_c, 0, 79, 90
2, 89952, Note_on_c, 0, 64, 0
2, 89954, Note_on_c, 0, 62, 90
2, 89957, Note_on_c, 0, 78, 90
2, 89972, Note_on_c, 0, 79, 0
2, 89976, Note_on_c, 0, 72, 0
2, 90116, Note_on_c, 0, 71, 90
2, 90264, Note_on_c, 0, 71, 0
2, 90266, Note_on_c, 0, 69, 90
2, 90269, Note_on_c, 0, 60, 90
2, 90271, Note_on_c, 0, 62, 0
2, 90389, Note_on_c, 0, 78, 0
2, 90409, Note_on_c, 0, 76, 90
2, 90550, Note_on_c, 0, 74, 90
2, 90552, Note_on_c, 0, 76, 0
2, 90562, Note_on_c, 0, 59, 90
2, 90567, Note_on_c, 0, 60, 0
2, 90590, Note_on_c, 0, 69, 0
2, 90727, Note_on_c, 0, 67, 90
2, 90874, Note_on_c, 0, 66, 90
2, 90877, Note_on_c, 0, 57, 90
2, 90886, Note_on_c, 0, 59, 0
2, 90888, Note_on_c, 0, 67, 0
2, 91031, Note_on_c, 0, 72, 90
2, 91042, Note_on_c, 0, 74, 0
2, 91164, Note_on_c, 0, 66, 0
2, 91181, Note_on_c, 0, 71, 90
2, 91183, Note_on_c, 0, 55, 90
2, 91185, Note_on_c, 0, 57, 0
2, 91203, Note_on_c, 0, 72, 0
2, 91255, Note_on_c, 0, 59, 90
2, 91329, Note_on_c, 0, 61, 90
2, 91353, Note_on_c, 0, 59, 0
2, 91399, Note_on_c, 0, 63, 90
2, 91401, Note_on_c, 0, 61, 0
2, 91476, Note_on_c, 0, 63, 0
2, 91476, Note_on_c, 0, 64, 90
2, 91482, Note_on_c, 0, 71, 0
2, 91546, Note_on_c, 0, 67, 90
2, 91620, Note_on_c, 0, 69, 90
2, 91634, Note_on_c, 0, 67, 0
2, 91692, Note_on_c, 0, 71, 90
2, 91694, Note_on_c, 0, 69, 0
2, 91706, Note_on_c, 0, 64, 0
2, 91730, Note_on_c, 0, 55, 0
2, 91763, Note_on_c, 0, 57, 90
2, 91765, Note_on_c, 0, 64, 90
2, 91767, Note_on_c, 0, 72, 90
2, 91769, Note_on_c, 0, 71, 0
2, 91919, Note_on_c, 0, 71, 90
2, 91922, Note_on_c, 0, 67, 90
2, 91925, Note_on_c, 0, 64, 0
2, 91926, Note_on_c, 0, 72, 0
2, 92064, Note_on_c, 0, 67, 0
2, 92071, Note_on_c, 0, 69, 90
2, 92073, Note_on_c, 0, 71, 0
2, 92075, Note_on_c, 0, 66, 90
2, 92222, Note_on_c, 0, 66, 0
2, 92226, Note_on_c, 0, 64, 90
2, 92321, Note_on_c, 0, 64, 0
2, 92368, Note_on_c, 0, 63, 90
2, 92370, Note_on_c, 0, 59, 90
2, 92382, Note_on_c, 0, 57, 0
2, 92473, Note_on_c, 0, 63, 0
2, 92525, Note_on_c, 0, 66, 90
2, 92664, Note_on_c, 0, 66, 0
2, 92673, Note_on_c, 0, 67, 90
2, 92675, Note_on_c, 0, 64, 90
2, 92679, Note_on_c, 0, 69, 0
2, 92819, Note_on_c, 0, 62, 90
2, 92825, Note_on_c, 0, 64, 0
2, 92964, Note_on_c, 0, 62, 0
2, 92969, Note_on_c, 0, 61, 90
2, 92974, Note_on_c, 0, 59, 0
2, 92977, Note_on_c, 0, 57, 90
2, 93128, Note_on_c, 0, 61, 0
2, 93135, Note_on_c, 0, 64, 90
2, 93268, Note_on_c, 0, 67, 0
2, 93277, Note_on_c, 0, 66, 90
2, 93280, Note_on_c, 0, 62, 90
2, 93281, Note_on_c, 0, 64, 0
2, 93426, Note_on_c, 0, 60, 90
2, 93440, Note_on_c, 0, 62, 0
2, 93485, Note_on_c, 0, 60, 0
2, 93572, Note_on_c, 0, 59, 90
2, 93574, Note_on_c, 0, 55, 90
2, 93580, Note_on_c, 0, 57, 0
2, 93732, Note_on_c, 0, 62, 90
2, 93751, Note_on_c, 0, 59, 0
2, 93864, Note_on_c, 0, 66, 0
2, 93869, Note_on_c, 0, 62, 0
2, 93873, Note_on_c, 0, 64, 90
2, 93875, Note_on_c, 0, 60, 90
2, 94020, Note_on_c, 0, 59, 90
2, 94031, Note_on_c, 0, 60, 0
2, 94118, Note_on_c, 0, 59, 0
2, 94171, Note_on_c, 0, 57, 90
2, 94173, Note_on_c, 0, 54, 90
2, 94176, Note_on_c, 0, 55, 0
2, 94327, Note_on_c, 0, 60, 90
2, 94331, Note_on_c, 0, 57, 0
2, 94445, Note_on_c, 0, 64, 0
2, 94478, Note_on_c, 0, 59, 90
2, 94479, Note_on_c, 0, 60, 0
2, 94480, Note_on_c, 0, 63, 90
2, 94625, Note_on_c, 0, 57, 90
2, 94629, Note_on_c, 0, 59, 0
2, 94713, Note_on_c, 0, 57, 0
2, 94720, Note_on_c, 0, 63, 0
2, 94790, Note_on_c, 0, 55, 90
2, 94792, Note_on_c, 0, 52, 90
2, 94794, Note_on_c, 0, 64, 90
2, 94801, Note_on_c, 0, 54, 0
2, 94943, Note_on_c, 0, 57, 90
2, 94945, Note_on_c, 0, 55, 0
2, 95086, Note_on_c, 0, 55, 90
2, 95098, Note_on_c, 0, 57, 0
2, 95231, Note_on_c, 0, 54, 90
2, 95240, Note_on_c, 0, 55, 0
2, 95252, Note_on_c, 0, 52, 0
2, 95288, Note_on_c, 0, 54, 0
2, 95378, Note_on_c, 0, 52, 90
2, 95453, Note_on_c, 0, 64, 0
2, 95524, Note_on_c, 0, 55, 90
2, 95531, Note_on_c, 0, 64, 90
2, 95665, Note_on_c, 0, 55, 0
2, 95665, Note_on_c, 0, 64, 0
2, 95677, Note_on_c, 0, 66, 90
2, 95680, Note_on_c, 0, 54, 90
2, 95695, Note_on_c, 0, 52, 0
2, 95822, Note_on_c, 0, 66, 0
2, 95828, Note_on_c, 0, 52, 90
2, 95830, Note_on_c, 0, 67, 90
2, 95838, Note_on_c, 0, 54, 0
2, 95951, Note_on_c, 0, 67, 0
2, 95970, Note_on_c, 0, 52, 0
2, 95979, Note_on_c, 0, 69, 90
2, 95981, Note_on_c, 0, 50, 90
2, 96075, Note_on_c, 0, 50, 0
2, 96134, Note_on_c, 0, 48, 90
2, 96272, Note_on_c, 0, 47, 90
2, 96275, Note_on_c, 0, 48, 0
2, 96412, Note_on_c, 0, 45, 90
2, 96416, Note_on_c, 0, 47, 0
2, 96558, Note_on_c, 0, 45, 0
2, 96563, Note_on_c, 0, 69, 0
2, 96565, Note_on_c, 0, 43, 90
2, 96567, Note_on_c, 0, 71, 90
2, 96642, Note_on_c, 0, 50, 90
2, 96648, Note_on_c, 0, 43, 0
2, 96710, Note_on_c, 0, 50, 0
2, 96710, Note_on_c, 0, 52, 90
2, 96777, Note_on_c, 0, 54, 90
2, 96783, Note_on_c, 0, 52, 0
2, 96859, Note_on_c, 0, 54, 0
2, 96870, Note_on_c, 0, 55, 90
2, 97020, Note_on_c, 0, 62, 90
2, 97065, Note_on_c, 0, 62, 0
2, 97166, Note_on_c, 0, 69, 90
2, 97168, Note_on_c, 0, 61, 90
2, 97170, Note_on_c, 0, 71, 0
2, 97312, Note_on_c, 0, 54, 90
2, 97324, Note_on_c, 0, 55, 0
2, 97448, Note_on_c, 0, 69, 0
2, 97453, Note_on_c, 0, 67, 90
2, 97461, Note_on_c, 0, 52, 90
2, 97463, Note_on_c, 0, 54, 0
2, 97480, Note_on_c, 0, 61, 0
2, 97609, Note_on_c, 0, 59, 90
2, 97698, Note_on_c, 0, 59, 0
2, 97753, Note_on_c, 0, 57, 90
2, 97754, Note_on_c, 0, 66, 90
2, 97767, Note_on_c, 0, 67, 0
2, 97916, Note_on_c, 0, 50, 90
2, 97928, Note_on_c, 0, 52, 0
2, 98070, Note_on_c, 0, 64, 90
2, 98072, Note_on_c, 0, 49, 90
2, 98074, Note_on_c, 0, 50, 0
2, 98078, Note_on_c, 0, 66, 0
2, 98141, Note_on_c, 0, 57, 0
2, 98217, Note_on_c, 0, 55, 90
2, 98268, Note_on_c, 0, 55, 0
2, 98304, Note_on_c, 0, 49, 0
2, 98375, Note_on_c, 0, 64, 0
2, 98382, Note_on_c, 0, 54, 90
2, 98384, Note_on_c, 0, 62, 90
2, 98453, Note_on_c, 0, 42, 90
2, 98512, Note_on_c, 0, 42, 0
2, 98518, Note_on_c, 0, 44, 90
2, 98575, Note_on_c, 0, 54, 0
2, 98584, Note_on_c, 0, 46, 90
2, 98588, Note_on_c, 0, 44, 0
2, 98600, Note_on_c, 0, 62, 0
2, 98652, Note_on_c, 0, 46, 0
2, 98655, Note_on_c, 0, 47, 90
2, 98726, Note_on_c, 0, 62, 90
2, 98802, Note_on_c, 0, 64, 90
2, 98820, Note_on_c, 0, 62, 0
2, 98875, Note_on_c, 0, 66, 90
2, 98885, Note_on_c, 0, 64, 0
2, 98917, Note_on_c, 0, 66, 0
2, 98964, Note_on_c, 0, 64, 90
2, 98969, Note_on_c, 0, 67, 90
2, 99074, Note_on_c, 0, 47, 0
2, 99080, Note_on_c, 0, 64, 0
2, 99128, Note_on_c, 0, 50, 90
2, 99130, Note_on_c, 0, 66, 90
2, 99197, Note_on_c, 0, 66, 0
2, 99251, Note_on_c, 0, 50, 0
2, 99277, Note_on_c, 0, 49, 90
2, 99279, Note_on_c, 0, 64, 90
2, 99419, Note_on_c, 0, 47, 90
2, 99421, Note_on_c, 0, 49, 0
2, 99557, Note_on_c, 0, 46, 90
2, 99559, Note_on_c, 0, 47, 0
2, 99563, Note_on_c, 0, 67, 0
2, 99563, Note_on_c, 0, 66, 90
2, 99722, Note_on_c, 0, 46, 0
2, 99722, Note_on_c, 0, 49, 90
2, 99875, Note_on_c, 0, 64, 0
2, 99876, Note_on_c, 0, 62, 90
2, 99878, Note_on_c, 0, 49, 0
2, 99879, Note_on_c, 0, 47, 90
2, 100021, Note_on_c, 0, 45, 90
2, 100035, Note_on_c, 0, 47, 0
2, 100152, Note_on_c, 0, 66, 0
2, 100175, Note_on_c, 0, 64, 90
2, 100180, Note_on_c, 0, 44, 90
2, 100195, Note_on_c, 0, 45, 0
2, 100334, Note_on_c, 0, 47, 90
2, 100336, Note_on_c, 0, 44, 0
2, 100421, Note_on_c, 0, 62, 0
2, 100483, Note_on_c, 0, 61, 90
2, 100483, Note_on_c, 0, 45, 90
2, 100499, Note_on_c, 0, 47, 0
2, 100642, Note_on_c, 0, 43, 90
2, 100648, Note_on_c, 0, 45, 0
2, 100765, Note_on_c, 0, 64, 0
2, 100791, Note_on_c, 0, 62, 90
2, 100793, Note_on_c, 0, 42, 90
2, 100797, Note_on_c, 0, 43, 0
2, 100934, Note_on_c, 0, 42, 0
2, 100938, Note_on_c, 0, 45, 90
2, 101071, Note_on_c, 0, 61, 0
2, 101085, Note_on_c, 0, 59, 90
2, 101088, Note_on_c, 0, 43, 90
2, 101097, Note_on_c, 0, 45, 0
2, 101235, Note_on_c, 0, 42, 90
2, 101246, Note_on_c, 0, 43, 0
2, 101383, Note_on_c, 0, 40, 90
2, 101385, Note_on_c, 0, 42, 0
2, 101385, Note_on_c, 0, 61, 90
2, 101400, Note_on_c, 0, 62, 0
2, 101547, Note_on_c, 0, 43, 90
2, 101551, Note_on_c, 0, 40, 0
2, 101672, Note_on_c, 0, 59, 0
2, 101698, Note_on_c, 0, 58, 90
2, 101700, Note_on_c, 0, 42, 90
2, 101706, Note_on_c, 0, 43, 0
2, 101839, Note_on_c, 0, 40, 90
2, 101844, Note_on_c, 0, 42, 0
2, 101990, Note_on_c, 0, 61, 0
2, 102001, Note_on_c, 0, 40, 0
2, 102002, Note_on_c, 0, 59, 90
2, 102004, Note_on_c, 0, 38, 90
2, 102048, Note_on_c, 0, 58, 0
2, 102083, Note_on_c, 0, 38, 0
2, 102143, Note_on_c, 0, 52, 90
2, 102151, Note_on_c, 0, 55, 90
2, 102284, Note_on_c, 0, 52, 0
2, 102286, Note_on_c, 0, 50, 90
2, 102289, Note_on_c, 0, 54, 90
2, 102292, Note_on_c, 0, 55, 0
2, 102430, Note_on_c, 0, 54, 0
2, 102436, Note_on_c, 0, 49, 90
2, 102438, Note_on_c, 0, 59, 0
2, 102440, Note_on_c, 0, 50, 0
2, 102440, Note_on_c, 0, 52, 90
2, 102570, Note_on_c, 0, 49, 0
2, 102579, Note_on_c, 0, 50, 90
2, 102581, Note_on_c, 0, 47, 90
2, 102588, Note_on_c, 0, 52, 0
2, 102731, Note_on_c, 0, 59, 90
2, 102733, Note_on_c, 0, 62, 90
2, 102751, Note_on_c, 0, 50, 0
2, 102880, Note_on_c, 0, 57, 90
2, 102882, Note_on_c, 0, 59, 0
2, 102882, Note_on_c, 0, 48, 90
2, 102883, Note_on_c, 0, 60, 90
2, 102886, Note_on_c, 0, 47, 0
2, 102903, Note_on_c, 0, 62, 0
2, 103033, Note_on_c, 0, 59, 90
2, 103036, Note_on_c, 0, 55, 90
2, 103041, Note_on_c, 0, 57, 0
2, 103050, Note_on_c, 0, 60, 0
2, 103121, Note_on_c, 0, 55, 0
2, 103132, Note_on_c, 0, 48, 0
2, 103135, Note_on_c, 0, 59, 0
2, 103192, Note_on_c, 0, 50, 90
2, 103194, Note_on_c, 0, 54, 90
2, 103195, Note_on_c, 0, 57, 90
2, 103274, Note_on_c, 0, 59, 90
2, 103343, Note_on_c, 0, 60, 90
2, 103365, Note_on_c, 0, 59, 0
2, 103398, Note_on_c, 0, 60, 0
2, 103420, Note_on_c, 0, 62, 90
2, 103477, Note_on_c, 0, 62, 0
2, 103487, Note_on_c, 0, 50, 0
2, 103494, Note_on_c, 0, 54, 0
2, 103494, Note_on_c, 0, 57, 0
2, 103571, Note_on_c, 0, 62, 90
2, 103640, Note_on_c, 0, 62, 0
2, 103642, Note_on_c, 0, 64, 90
2, 103704, Note_on_c, 0, 64, 0
2, 103706, Note_on_c, 0, 66, 90
2, 103773, Note_on_c, 0, 66, 0
2, 103782, Note_on_c, 0, 67, 90
2, 103817, Note_on_c, 0, 67, 0
2, 103851, Note_on_c, 0, 67, 90
2, 103925, Note_on_c, 0, 69, 90
2, 103939, Note_on_c, 0, 67, 0
2, 103998, Note_on_c, 0, 69, 0
2, 103998, Note_on_c, 0, 71, 90
2, 104058, Note_on_c, 0, 71, 0
2, 104079, Note_on_c, 0, 72, 90
2, 104220, Note_on_c, 0, 67, 90
2, 104303, Note_on_c, 0, 67, 0
2, 104372, Note_on_c, 0, 66, 90
2, 104518, Note_on_c, 0, 71, 90
2, 104531, Note_on_c, 0, 72, 0
2, 104677, Note_on_c, 0, 69, 90
2, 104678, Note_on_c, 0, 71, 0
2, 104680, Note_on_c, 0, 66, 0
2, 104818, Note_on_c, 0, 64, 90
2, 104935, Note_on_c, 0, 64, 0
2, 104970, Note_on_c, 0, 62, 90
2, 105125, Note_on_c, 0, 67, 90
2, 105139, Note_on_c, 0, 69, 0
2, 105277, Note_on_c, 0, 66, 90
2, 105288, Note_on_c, 0, 67, 0
2, 105428, Note_on_c, 0, 60, 90
2, 105438, Note_on_c, 0, 62, 0
2, 105587, Note_on_c, 0, 59, 90
2, 105591, Note_on_c, 0, 60, 0
2, 105605, Note_on_c, 0, 66, 0
2, 105649, Note_on_c, 0, 59, 0
2, 105662, Note_on_c, 0, 59, 90
2, 105737, Note_on_c, 0, 61, 90
2, 105813, Note_on_c, 0, 61, 0
2, 105814, Note_on_c, 0, 63, 90
2, 105883, Note_on_c, 0, 63, 0
2, 105886, Note_on_c, 0, 64, 90
2, 105956, Note_on_c, 0, 55, 90
2, 105958, Note_on_c, 0, 59, 0
2, 106018, Note_on_c, 0, 55, 0
2, 106025, Note_on_c, 0, 57, 90
2, 106103, Note_on_c, 0, 59, 90
2, 106109, Note_on_c, 0, 57, 0
2, 106187, Note_on_c, 0, 59, 0
2, 106197, Note_on_c, 0, 60, 90
2, 106338, Note_on_c, 0, 67, 90
2, 106347, Note_on_c, 0, 59, 90
2, 106349, Note_on_c, 0, 64, 0
2, 106352, Note_on_c, 0, 60, 0
2, 106497, Note_on_c, 0, 59, 0
2, 106501, Note_on_c, 0, 66, 90
2, 106503, Note_on_c, 0, 57, 90
2, 106505, Note_on_c, 0, 67, 0
2, 106655, Note_on_c, 0, 66, 0
2, 106658, Note_on_c, 0, 64, 90
2, 106807, Note_on_c, 0, 63, 90
2, 106812, Note_on_c, 0, 64, 0
2, 106938, Note_on_c, 0, 63, 0
2, 106953, Note_on_c, 0, 66, 90
2, 107098, Note_on_c, 0, 66, 0
2, 107099, Note_on_c, 0, 55, 90
2, 107105, Note_on_c, 0, 64, 90
2, 107110, Note_on_c, 0, 57, 0
2, 107254, Note_on_c, 0, 64, 0
2, 107254, Note_on_c, 0, 62, 90
2, 107393, Note_on_c, 0, 62, 0
2, 107405, Note_on_c, 0, 61, 90
2, 107542, Note_on_c, 0, 61, 0
2, 107554, Note_on_c, 0, 64, 90
2, 107706, Note_on_c, 0, 62, 90
2, 107710, Note_on_c, 0, 54, 90
2, 107720, Note_on_c, 0, 64, 0
2, 107724, Note_on_c, 0, 55, 0
2, 107867, Note_on_c, 0, 60, 90
2, 107873, Note_on_c, 0, 62, 0
2, 108026, Note_on_c, 0, 59, 90
2, 108028, Note_on_c, 0, 60, 0
2, 108134, Note_on_c, 0, 59, 0
2, 108180, Note_on_c, 0, 62, 90
2, 108326, Note_on_c, 0, 60, 90
2, 108328, Note_on_c, 0, 52, 90
2, 108332, Note_on_c, 0, 54, 0
2, 108339, Note_on_c, 0, 62, 0
2, 108476, Note_on_c, 0, 60, 0
2, 108479, Note_on_c, 0, 59, 90
2, 108630, Note_on_c, 0, 57, 90
2, 108631, Note_on_c, 0, 59, 0
2, 108738, Note_on_c, 0, 57, 0
2, 108780, Note_on_c, 0, 60, 90
2, 108926, Note_on_c, 0, 51, 90
2, 108927, Note_on_c, 0, 59, 90
2, 108935, Note_on_c, 0, 60, 0
2, 108951, Note_on_c, 0, 52, 0
2, 109085, Note_on_c, 0, 57, 90
2, 109093, Note_on_c, 0, 59, 0
2, 109107, Note_on_c, 0, 51, 0
2, 109235, Note_on_c, 0, 57, 0
2, 109238, Note_on_c, 0, 52, 90
2, 109241, Note_on_c, 0, 55, 90
2, 109388, Note_on_c, 0, 55, 0
2, 109388, Note_on_c, 0, 57, 90
2, 109531, Note_on_c, 0, 57, 0
2, 109533, Note_on_c, 0, 55, 90
2, 109664, Note_on_c, 0, 54, 90
2, 109669, Note_on_c, 0, 55, 0
2, 109680, Note_on_c, 0, 52, 0
2, 109806, Note_on_c, 0, 52, 90
2, 109808, Note_on_c, 0, 54, 0
2, 109975, Note_on_c, 0, 67, 90
2, 109976, Note_on_c, 0, 59, 90
2, 109994, Note_on_c, 0, 52, 0
2, 110129, Note_on_c, 0, 57, 90
2, 110130, Note_on_c, 0, 66, 90
2, 110132, Note_on_c, 0, 67, 0
2, 110139, Note_on_c, 0, 59, 0
2, 110279, Note_on_c, 0, 55, 90
2, 110281, Note_on_c, 0, 64, 90
2, 110287, Note_on_c, 0, 57, 0
2, 110293, Note_on_c, 0, 66, 0
2, 110353, Note_on_c, 0, 64, 0
2, 110430, Note_on_c, 0, 62, 90
2, 110432, Note_on_c, 0, 54, 90
2, 110434, Note_on_c, 0, 74, 90
2, 110445, Note_on_c, 0, 55, 0
2, 110509, Note_on_c, 0, 72, 90
2, 110537, Note_on_c, 0, 62, 0
2, 110582, Note_on_c, 0, 71, 90
2, 110600, Note_on_c, 0, 72, 0
2, 110654, Note_on_c, 0, 69, 90
2, 110657, Note_on_c, 0, 71, 0
2, 110664, Note_on_c, 0, 54, 0
2, 110721, Note_on_c, 0, 67, 90
2, 110726, Note_on_c, 0, 69, 0
2, 110785, Note_on_c, 0, 65, 90
2, 110868, Note_on_c, 0, 65, 0
2, 110868, Note_on_c, 0, 64, 90
2, 110931, Note_on_c, 0, 62, 90
2, 110933, Note_on_c, 0, 64, 0
2, 111009, Note_on_c, 0, 76, 90
2, 111013, Note_on_c, 0, 60, 90
2, 111016, Note_on_c, 0, 67, 0
2, 111017, Note_on_c, 0, 62, 0
2, 111023, Note_on_c, 0, 74, 0
2, 111068, Note_on_c, 0, 60, 0
2, 111092, Note_on_c, 0, 67, 90
2, 111094, Note_on_c, 0, 64, 90
2, 111149, Note_on_c, 0, 64, 0
2, 111151, Note_on_c, 0, 67, 0
2, 111159, Note_on_c, 0, 66, 90
2, 111160, Note_on_c, 0, 69, 90
2, 111221, Note_on_c, 0, 66, 0
2, 111222, Note_on_c, 0, 69, 0
2, 111225, Note_on_c, 0, 67, 90
2, 111230, Note_on_c, 0, 71, 90
2, 111299, Note_on_c, 0, 71, 0
2, 111300, Note_on_c, 0, 72, 90
2, 111303, Note_on_c, 0, 67, 0
2, 111304, Note_on_c, 0, 69, 90
2, 111438, Note_on_c, 0, 76, 0
2, 111440, Note_on_c, 0, 67, 90
2, 111448, Note_on_c, 0, 69, 0
2, 111577, Note_on_c, 0, 74, 90
2, 111586, Note_on_c, 0, 66, 90
2, 111591, Note_on_c, 0, 67, 0
2, 111685, Note_on_c, 0, 72, 0
2, 111725, Note_on_c, 0, 71, 90
2, 111833, Note_on_c, 0, 71, 0
2, 111867, Note_on_c, 0, 72, 90
2, 111870, Note_on_c, 0, 69, 90
2, 111881, Note_on_c, 0, 74, 0
2, 112014, Note_on_c, 0, 66, 0
2, 112016, Note_on_c, 0, 64, 90
2, 112156, Note_on_c, 0, 71, 90
2, 112162, Note_on_c, 0, 62, 90
2, 112164, Note_on_c, 0, 72, 0
2, 112169, Note_on_c, 0, 64, 0
2, 112312, Note_on_c, 0, 67, 90
2, 112319, Note_on_c, 0, 69, 0
2, 112453, Note_on_c, 0, 66, 90
2, 112455, Note_on_c, 0, 67, 0
2, 112456, Note_on_c, 0, 69, 90
2, 112465, Note_on_c, 0, 71, 0
2, 112601, Note_on_c, 0, 60, 90
2, 112612, Note_on_c, 0, 62, 0
2, 112732, Note_on_c, 0, 69, 0
2, 112733, Note_on_c, 0, 67, 90
2, 112739, Note_on_c, 0, 59, 90
2, 112744, Note_on_c, 0, 66, 0
2, 112751, Note_on_c, 0, 60, 0
2, 112781, Note_on_c, 0, 59, 0
2, 112817, Note_on_c, 0, 59, 90
2, 112892, Note_on_c, 0, 61, 90
2, 112949, Note_on_c, 0, 61, 0
2, 112962, Note_on_c, 0, 63, 90
2, 112986, Note_on_c, 0, 59, 0
2, 113047, Note_on_c, 0, 64, 90
2, 113050, Note_on_c, 0, 63, 0
2, 113121, Note_on_c, 0, 55, 90
2, 113190, Note_on_c, 0, 55, 0
2, 113197, Note_on_c, 0, 57, 90
2, 113263, Note_on_c, 0, 59, 90
2, 113270, Note_on_c, 0, 57, 0
2, 113347, Note_on_c, 0, 59, 0
2, 113350, Note_on_c, 0, 69, 90
2, 113352, Note_on_c, 0, 60, 90
2, 113363, Note_on_c, 0, 67, 0
2, 113507, Note_on_c, 0, 67, 90
2, 113510, Note_on_c, 0, 64, 0
2, 113511, Note_on_c, 0, 59, 90
2, 113520, Note_on_c, 0, 60, 0
2, 113647, Note_on_c, 0, 67, 0
2, 113658, Note_on_c, 0, 66, 90
2, 113662, Note_on_c, 0, 57, 90
2, 113667, Note_on_c, 0, 59, 0
2, 113776, Note_on_c, 0, 66, 0
2, 113803, Note_on_c, 0, 64, 90
2, 113860, Note_on_c, 0, 69, 0
2, 113885, Note_on_c, 0, 64, 0
2, 113944, Note_on_c, 0, 71, 90
2, 113946, Note_on_c, 0, 63, 90
2, 114103, Note_on_c, 0, 66, 90
2, 114106, Note_on_c, 0, 63, 0
2, 114247, Note_on_c, 0, 66, 0
2, 114254, Note_on_c, 0, 55, 90
2, 114256, Note_on_c, 0, 64, 90
2, 114258, Note_on_c, 0, 57, 0
2, 114401, Note_on_c, 0, 62, 90
2, 114405, Note_on_c, 0, 64, 0
2, 114532, Note_on_c, 0, 62, 0
2, 114543, Note_on_c, 0, 69, 90
2, 114548, Note_on_c, 0, 71, 0
2, 114550, Note_on_c, 0, 61, 90
2, 114663, Note_on_c, 0, 61, 0
2, 114712, Note_on_c, 0, 64, 90
2, 114850, Note_on_c, 0, 64, 0
2, 114852, Note_on_c, 0, 62, 90
2, 114854, Note_on_c, 0, 55, 0
2, 114854, Note_on_c, 0, 54, 90
2, 114995, Note_on_c, 0, 62, 0
2, 114996, Note_on_c, 0, 60, 90
2, 115135, Note_on_c, 0, 60, 0
2, 115143, Note_on_c, 0, 59, 90
2, 115143, Note_on_c, 0, 67, 90
2, 115149, Note_on_c, 0, 69, 0
2, 115302, Note_on_c, 0, 62, 90
2, 115312, Note_on_c, 0, 59, 0
2, 115454, Note_on_c, 0, 62, 0
2, 115454, Note_on_c, 0, 52, 90
2, 115455, Note_on_c, 0, 60, 90
2, 115462, Note_on_c, 0, 54, 0
2, 115602, Note_on_c, 0, 59, 90
2, 115604, Note_on_c, 0, 60, 0
2, 115746, Note_on_c, 0, 66, 90
2, 115749, Note_on_c, 0, 59, 0
2, 115753, Note_on_c, 0, 57, 90
2, 115756, Note_on_c, 0, 67, 0
2, 115869, Note_on_c, 0, 57, 0
2, 115907, Note_on_c, 0, 60, 90
2, 115953, Note_on_c, 0, 52, 0
2, 116047, Note_on_c, 0, 50, 90
2, 116049, Note_on_c, 0, 59, 90
2, 116056, Note_on_c, 0, 60, 0
2, 116162, Note_on_c, 0, 59, 0
2, 116201, Note_on_c, 0, 57, 90
2, 116303, Note_on_c, 0, 57, 0
2, 116343, Note_on_c, 0, 66, 0
2, 116350, Note_on_c, 0, 56, 90
2, 116353, Note_on_c, 0, 64, 90
2, 116388, Note_on_c, 0, 50, 0
2, 116420, Note_on_c, 0, 47, 90
2, 116484, Note_on_c, 0, 47, 0
2, 116492, Note_on_c, 0, 48, 90
2, 116573, Note_on_c, 0, 50, 90
2, 116575, Note_on_c, 0, 48, 0
2, 116656, Note_on_c, 0, 52, 90
2, 116659, Note_on_c, 0, 50, 0
2, 116803, Note_on_c, 0, 50, 90
2, 116812, Note_on_c, 0, 52, 0
2, 116873, Note_on_c, 0, 50, 0
2, 116946, Note_on_c, 0, 49, 90
2, 117094, Note_on_c, 0, 56, 0
2, 117095, Note_on_c, 0, 52, 90
2, 117245, Note_on_c, 0, 57, 90
2, 117245, Note_on_c, 0, 48, 90
2, 117253, Note_on_c, 0, 52, 0
2, 117293, Note_on_c, 0, 49, 0
2, 117412, Note_on_c, 0, 51, 90
2, 117425, Note_on_c, 0, 48, 0
2, 117512, Note_on_c, 0, 51, 0
2, 117566, Note_on_c, 0, 47, 90
2, 117568, Note_on_c, 0, 52, 90
2, 117645, Note_on_c, 0, 64, 0
2, 117652, Note_on_c, 0, 59, 90
2, 117720, Note_on_c, 0, 59, 0
2, 117723, Note_on_c, 0, 60, 90
2, 117793, Note_on_c, 0, 60, 0
2, 117794, Note_on_c, 0, 62, 90
2, 117853, Note_on_c, 0, 57, 0
2, 117868, Note_on_c, 0, 56, 90
2, 117873, Note_on_c, 0, 64, 90
2, 117890, Note_on_c, 0, 62, 0
2, 117995, Note_on_c, 0, 47, 0
2, 118000, Note_on_c, 0, 64, 0
2, 118012, Note_on_c, 0, 62, 90
2, 118037, Note_on_c, 0, 56, 0
2, 118103, Note_on_c, 0, 62, 0
2, 118165, Note_on_c, 0, 61, 90
2, 118167, Note_on_c, 0, 57, 90
2, 118169, Note_on_c, 0, 45, 90
2, 118181, Note_on_c, 0, 52, 0
2, 118322, Note_on_c, 0, 64, 90
2, 118343, Note_on_c, 0, 61, 0
2, 118468, Note_on_c, 0, 64, 0
2, 118472, Note_on_c, 0, 60, 90
2, 118475, Note_on_c, 0, 69, 90
2, 118592, Note_on_c, 0, 45, 0
2, 118608, Note_on_c, 0, 57, 0
2, 118620, Note_on_c, 0, 63, 90
2, 118706, Note_on_c, 0, 63, 0
2, 118717, Note_on_c, 0, 60, 0
2, 118766, Note_on_c, 0, 64, 90
2, 118768, Note_on_c, 0, 59, 90
2, 118863, Note_on_c, 0, 71, 90
2, 118901, Note_on_c, 0, 71, 0
2, 118939, Note_on_c, 0, 72, 90
2, 118978, Note_on_c, 0, 72, 0
2, 118991, Note_on_c, 0, 74, 90
2, 119030, Note_on_c, 0, 74, 0
2, 119053, Note_on_c, 0, 69, 0
2, 119055, Note_on_c, 0, 68, 90
2, 119056, Note_on_c, 0, 76, 90
2, 119202, Note_on_c, 0, 74, 90
2, 119205, Note_on_c, 0, 76, 0
2, 119210, Note_on_c, 0, 68, 0
2, 119246, Note_on_c, 0, 59, 0
2, 119344, Note_on_c, 0, 64, 0
2, 119350, Note_on_c, 0, 74, 0
2, 119351, Note_on_c, 0, 69, 90
2, 119353, Note_on_c, 0, 73, 90
2, 119355, Note_on_c, 0, 57, 90
2, 119510, Note_on_c, 0, 76, 90
2, 119533, Note_on_c, 0, 73, 0
2, 119644, Note_on_c, 0, 76, 0
2, 119654, Note_on_c, 0, 72, 90
2, 119657, Note_on_c, 0, 81, 90
2, 119798, Note_on_c, 0, 81, 0
2, 119805, Note_on_c, 0, 75, 90
2, 119943, Note_on_c, 0, 75, 0
2, 119954, Note_on_c, 0, 76, 90
2, 119997, Note_on_c, 0, 57, 0
2, 120028, Note_on_c, 0, 59, 90
2, 120087, Note_on_c, 0, 59, 0
2, 120101, Note_on_c, 0, 60, 90
2, 120162, Note_on_c, 0, 60, 0
2, 120168, Note_on_c, 0, 62, 90
2, 120257, Note_on_c, 0, 62, 0
2, 120265, Note_on_c, 0, 64, 90
2, 120355, Note_on_c, 0, 69, 0
2, 120402, Note_on_c, 0, 68, 90
2, 120404, Note_on_c, 0, 74, 90
2, 120407, Note_on_c, 0, 59, 90
2, 120409, Note_on_c, 0, 72, 0
2, 120410, Note_on_c, 0, 64, 0
2, 120520, Note_on_c, 0, 68, 0
2, 120549, Note_on_c, 0, 72, 90
2, 120553, Note_on_c, 0, 69, 90
2, 120557, Note_on_c, 0, 60, 90
2, 120561, Note_on_c, 0, 59, 0
2, 120572, Note_on_c, 0, 74, 0
2, 120664, Note_on_c, 0, 60, 0
2, 120704, Note_on_c, 0, 56, 90
2, 120842, Note_on_c, 0, 56, 0
2, 120851, Note_on_c, 0, 57, 90
2, 120998, Note_on_c, 0, 51, 90
2, 121157, Note_on_c, 0, 52, 90
2, 121173, Note_on_c, 0, 51, 0
2, 121253, Note_on_c, 0, 69, 0
2, 121256, Note_on_c, 0, 68, 90
2, 121306, Note_on_c, 0, 68, 0
2, 121325, Note_on_c, 0, 69, 90
2, 121344, Note_on_c, 0, 72, 0
2, 121388, Note_on_c, 0, 71, 90
2, 121458, Note_on_c, 0, 72, 90
2, 121465, Note_on_c, 0, 71, 0
2, 121583, Note_on_c, 0, 69, 0
2, 121598, Note_on_c, 0, 68, 90
2, 121720, Note_on_c, 0, 68, 0
2, 121754, Note_on_c, 0, 69, 90
2, 121901, Note_on_c, 0, 63, 90
2, 122033, Note_on_c, 0, 63, 0
2, 122063, Note_on_c, 0, 64, 90
2, 122190, Note_on_c, 0, 76, 0
2, 122222, Note_on_c, 0, 75, 90
2, 122228, Note_on_c, 0, 69, 0
2, 122251, Note_on_c, 0, 57, 0
2, 122329, Note_on_c, 0, 72, 0
2, 122393, Note_on_c, 0, 75, 0
2, 122466, Note_on_c, 0, 68, 90
2, 122466, Note_on_c, 0, 59, 90
2, 122466, Note_on_c, 0, 71, 90
2, 122466, Note_on_c, 0, 76, 90
2, 124790, Note_on_c, 0, 64, 0
2, 124799, Note_on_c, 0, 52, 0
2, 124818, Note_on_c, 0, 68, 0
2, 124818, Note_on_c, 0, 76, 0
2, 124827, Note_on_c, 0, 59, 0
2, 124827, Note_on_c, 0, 71, 0
2, 124827, End_track
3, 0, Start_track
3, 0, Title_t, "Man 4"
3, 0, MIDI_port, 0
3, 0, Control_c, 1, 7, 120
3, 0, Control_c, 1, 93, 7
3, 0, Control_c, 1, 91, 127
3, 0, Control_c, 1, 10, 76
3, 0, Program_c, 1, 16
3, 89404, Note_on_c, 1, 76, 90
3, 89470, Note_on_c, 1, 79, 90
3, 89535, Note_on_c, 1, 81, 90
3, 89540, Note_on_c, 1, 79, 0
3, 89595, Note_on_c, 1, 83, 90
3, 89597, Note_on_c, 1, 81, 0
3, 89666, Note_on_c, 1, 83, 0
3, 89671, Note_on_c, 1, 84, 90
3, 89809, Note_on_c, 1, 91, 90
3, 89952, Note_on_c, 1, 76, 0
3, 89954, Note_on_c, 1, 74, 90
3, 89957, Note_on_c, 1, 90, 90
3, 89972, Note_on_c, 1, 91, 0
3, 89976, Note_on_c, 1, 84, 0
3, 90116, Note_on_c, 1, 83, 90
3, 90264, Note_on_c, 1, 83, 0
3, 90266, Note_on_c, 1, 81, 90
3, 90269, Note_on_c, 1, 72, 90
3, 90271, Note_on_c, 1, 74, 0
3, 90389, Note_on_c, 1, 90, 0
3, 90409, Note_on_c, 1, 88, 90
3, 90550, Note_on_c, 1, 86, 90
3, 90552, Note_on_c, 1, 88, 0
3, 90562, Note_on_c, 1, 71, 90
3, 90567, Note_on_c, 1, 72, 0
3, 90590, Note_on_c, 1, 81, 0
3, 90727, Note_on_c, 1, 79, 90
3, 90874, Note_on_c, 1, 78, 90
3, 90877, Note_on_c, 1, 69, 90
3, 90886, Note_on_c, 1, 71, 0
3, 90888, Note_on_c, 1, 79, 0
3, 91031, Note_on_c, 1, 84, 90
3, 91042, Note_on_c, 1, 86, 0
3, 91164, Note_on_c, 1, 78, 0
3, 91181, Note_on_c, 1, 83, 90
3, 91183, Note_on_c, 1, 67, 90
3, 91185, Note_on_c, 1, 69, 0
3, 91203, Note_on_c, 1, 84, 0
3, 91255, Note_on_c, 1, 71, 90
3, 91329, Note_on_c, 1, 73, 90
3, 91353, Note_on_c, 1, 71, 0
3, 91399, Note_on_c, 1, 75, 90
3, 91401, Note_on_c, 1, 73, 0
3, 91476, Note_on_c, 1, 75, 0
3, 91476, Note_on_c, 1, 76, 90
3, 91482, Note_on_c, 1, 83, 0
3, 91546, Note_on_c, 1, 79, 90
3, 91620, Note_on_c, 1, 81, 90
3, 91634, Note_on_c, 1, 79, 0
3, 91692, Note_on_c, 1, 83, 90
3, 91694, Note_on_c, 1, 81, 0
3, 91706, Note_on_c, 1, 76, 0
3, 91730, Note_on_c, 1, 67, 0
3, 91763, Note_on_c, 1, 69, 90
3, 91765, Note_on_c, 1, 76, 90
3, 91767, Note_on_c, 1, 84, 90
3, 91769, Note_on_c, 1, 83, 0
3, 91919, Note_on_c, 1, 83, 90
3, 91922, Note_on_c, 1, 79, 90
3, 91925, Note_on_c, 1, 76, 0
3, 91926, Note_on_c, 1, 84, 0
3, 92064, Note_on_c, 1, 79, 0
3, 92071, Note_on_c, 1, 81, 90
3, 92073, Note_on_c, 1, 83, 0
3, 92075, Note_on_c, 1, 78, 90
3, 92222, Note_on_c, 1, 78, 0
3, 92226, Note_on_c, 1, 76, 90
3, 92321, Note_on_c, 1, 76, 0
3, 92368, Note_on_c, 1, 75, 90
3, 92370, Note_on_c, 1, 71, 90
3, 92382, Note_on_c, 1, 69, 0
3, 92473, Note_on_c, 1, 75, 0
3, 92525, Note_on_c, 1, 78, 90
3, 92664, Note_on_c, 1, 78, 0
3, 92673, Note_on_c, 1, 79, 90
3, 92675, Note_on_c, 1, 76, 90
3, 92679, Note_on_c, 1, 81, 0
3, 92819, Note_on_c, 1, 74, 90
3, 92825, Note_on_c, 1, 76, 0
3, 92964, Note_on_c, 1, 74, 0
3, 92969, Note_on_c, 1, 73, 90
3, 92974, Note_on_c, 1, 71, 0
3, 92977, Note_on_c, 1, 69, 90
3, 93128, Note_on_c, 1, 73, 0
3, 93135, Note_on_c, 1, 76, 90
3, 93268, Note_on_c, 1, 79, 0
3, 93277, Note_on_c, 1, 78, 90
3, 93280, Note_on_c, 1, 74, 90
3, 93281, Note_on_c, 1, 76, 0
3, 93426, Note_on_c, 1, 72, 90
3, 93440, Note_on_c, 1, 74, 0
3, 93485, Note_on_c, 1, 72, 0
3, 93572, Note_on_c, 1, 71, 90
3, 93574, Note_on_c, 1, 67, 90
3, 93580, Note_on_c, 1, 69, 0
3, 93732, Note_on_c, 1, 74, 90
3, 93751, Note_on_c, 1, 71, 0
3, 93864, Note_on_c, 1, 78, 0
3, 93869, Note_on_c, 1, 74, 0
3, 93873, Note_on_c, 1, 76, 90
3, 93875, Note_on_c, 1, 72, 90
3, 94020, Note_on_c, 1, 71, 90
3, 94031, Note_on_c, 1, 72, 0
3, 94118, Note_on_c, 1, 71, 0
3, 94171, Note_on_c, 1, 69, 90
3, 94173, Note_on_c, 1, 66, 90
3, 94176, Note_on_c, 1, 67, 0
3, 94327, Note_on_c, 1, 72, 90
3, 94331, Note_on_c, 1, 69, 0
3, 94445, Note_on_c, 1, 76, 0
3, 94478, Note_on_c, 1, 71, 90
3, 94479, Note_on_c, 1, 72, 0
3, 94480, Note_on_c, 1, 75, 90
3, 94625, Note_on_c, 1, 69, 90
3, 94629, Note_on_c, 1, 71, 0
3, 94713, Note_on_c, 1, 69, 0
3, 94720, Note_on_c, 1, 75, 0
3, 94790, Note_on_c, 1, 67, 90
3, 94792, Note_on_c, 1, 64, 90
3, 94794, Note_on_c, 1, 76, 90
3, 94801, Note_on_c, 1, 66, 0
3, 94943, Note_on_c, 1, 69, 90
3, 94945, Note_on_c, 1, 67, 0
3, 95086, Note_on_c, 1, 67, 90
3, 95098, Note_on_c, 1, 69, 0
3, 95231, Note_on_c, 1, 66, 90
3, 95240, Note_on_c, 1, 67, 0
3, 95252, Note_on_c, 1, 64, 0
3, 95288, Note_on_c, 1, 66, 0
3, 95378, Note_on_c, 1, 64, 90
3, 95453, Note_on_c, 1, 76, 0
3, 95524, Note_on_c, 1, 67, 90
3, 95531, Note_on_c, 1, 76, 90
3, 95665, Note_on_c, 1, 67, 0
3, 95665, Note_on_c, 1, 76, 0
3, 95677, Note_on_c, 1, 78, 90
3, 95680, Note_on_c, 1, 66, 90
3, 95695, Note_on_c, 1, 64, 0
3, 95822, Note_on_c, 1, 78, 0
3, 95828, Note_on_c, 1, 64, 90
3, 95830, Note_on_c, 1, 79, 90
3, 95838, Note_on_c, 1, 66, 0
3, 95951, Note_on_c, 1, 79, 0
3, 95970, Note_on_c, 1, 64, 0
3, 95979, Note_on_c, 1, 81, 90
3, 95981, Note_on_c, 1, 62, 90
3, 96075, Note_on_c, 1, 62, 0
3, 96134, Note_on_c, 1, 60, 90
3, 96272, Note_on_c, 1, 59, 90
3, 96275, Note_on_c, 1, 60, 0
3, 96412, Note_on_c, 1, 57, 90
3, 96416, Note_on_c, 1, 59, 0
3, 96558, Note_on_c, 1, 57, 0
3, 96563, Note_on_c, 1, 81, 0
3, 96565, Note_on_c, 1, 55, 90
3, 96567, Note_on_c, 1, 83, 90
3, 96642, Note_on_c, 1, 62, 90
3, 96648, Note_on_c, 1, 55, 0
3, 96710, Note_on_c, 1, 62, 0
3, 96710, Note_on_c, 1, 64, 90
3, 96777, Note_on_c, 1, 66, 90
3, 96783, Note_on_c, 1, 64, 0
3, 96859, Note_on_c, 1, 66, 0
3, 96870, Note_on_c, 1, 67, 90
3, 97020, Note_on_c, 1, 74, 90
3, 97065, Note_on_c, 1, 74, 0
3, 97166, Note_on_c, 1, 81, 90
3, 97168, Note_on_c, 1, 73, 90
3, 97170, Note_on_c, 1, 83, 0
3, 97312, Note_on_c, 1, 66, 90
3, 97324, Note_on_c, 1, 67, 0
3, 97448, Note_on_c, 1, 81, 0
3, 97453, Note_on_c, 1, 79, 90
3, 97461, Note_on_c, 1, 64, 90
3, 97463, Note_on_c, 1, 66, 0
3, 97480, Note_on_c, 1, 73, 0
3, 97609, Note_on_c, 1, 71, 90
3, 97698, Note_on_c, 1, 71, 0
3, 97753, Note_on_c, 1, 69, 90
3, 97754, Note_on_c, 1, 78, 90
3, 97767, Note_on_c, 1, 79, 0
3, 97916, Note_on_c, 1, 62, 90
3, 97928, Note_on_c, 1, 64, 0
3, 98070, Note_on_c, 1, 76, 90
3, 98072, Note_on_c, 1, 61, 90
3, 98074, Note_on_c, 1, 62, 0
3, 98078, Note_on_c, 1, 78, 0
3, 98141, Note_on_c, 1, 69, 0
3, 98217, Note_on_c, 1, 67, 90
3, 98268, Note_on_c, 1, 67, 0
3, 98304, Note_on_c, 1, 61, 0
3, 98375, Note_on_c, 1, 76, 0
3, 98382, Note_on_c, 1, 66, 90
3, 98384, Note_on_c, 1, 74, 90
3, 98453, Note_on_c, 1, 54, 90
3, 98512, Note_on_c, 1, 54, 0
3, 98518, Note_on_c, 1, 56, 90
3, 98575, Note_on_c, 1, 66, 0
3, 98584, Note_on_c, 1, 58, 90
3, 98588, Note_on_c, 1, 56, 0
3, 98600, Note_on_c, 1, 74, 0
3, 98652, Note_on_c, 1, 58, 0
3, 98655, Note_on_c, 1, 59, 90
3, 98726, Note_on_c, 1, 74, 90
3, 98802, Note_on_c, 1, 76, 90
3, 98820, Note_on_c, 1, 74, 0
3, 98875, Note_on_c, 1, 78, 90
3, 98885, Note_on_c, 1, 76, 0
3, 98917, Note_on_c, 1, 78, 0
3, 98964, Note_on_c, 1, 76, 90
3, 98969, Note_on_c, 1, 79, 90
3, 99074, Note_on_c, 1, 59, 0
3, 99080, Note_on_c, 1, 76, 0
3, 99128, Note_on_c, 1, 62, 90
3, 99130, Note_on_c, 1, 78, 90
3, 99197, Note_on_c, 1, 78, 0
3, 99251, Note_on_c, 1, 62, 0
3, 99277, Note_on_c, 1, 61, 90
3, 99279, Note_on_c, 1, 76, 90
3, 99419, Note_on_c, 1, 59, 90
3, 99421, Note_on_c, 1, 61, 0
3, 99557, Note_on_c, 1, 58, 90
3, 99559, Note_on_c, 1, 59, 0
3, 99563, Note_on_c, 1, 79, 0
3, 99563, Note_on_c, 1, 78, 90
3, 99722, Note_on_c, 1, 58, 0
3, 99722, Note_on_c, 1, 61, 90
3, 99875, Note_on_c, 1, 76, 0
3, 99876, Note_on_c, 1, 74, 90
3, 99878, Note_on_c, 1, 61, 0
3, 99879, Note_on_c, 1, 59, 90
3, 100021, Note_on_c, 1, 57, 90
3, 100035, Note_on_c, 1, 59, 0
3, 100152, Note_on_c, 1, 78, 0
3, 100175, Note_on_c, 1, 76, 90
3, 100180, Note_on_c, 1, 56, 90
3, 100195, Note_on_c, 1, 57, 0
3, 100334, Note_on_c, 1, 59, 90
3, 100336, Note_on_c, 1, 56, 0
3, 100421, Note_on_c, 1, 74, 0
3, 100483, Note_on_c, 1, 57, 90
3, 100483, Note_on_c, 1, 73, 90
3, 100499, Note_on_c, 1, 59, 0
3, 100642, Note_on_c, 1, 55, 90
3, 100648, Note_on_c, 1, 57, 0
3, 100765, Note_on_c, 1, 76, 0
3, 100791, Note_on_c, 1, 74, 90
3, 100793, Note_on_c, 1, 54, 90
3, 100797, Note_on_c, 1, 55, 0
3, 100934, Note_on_c, 1, 54, 0
3, 100938, Note_on_c, 1, 57, 90
3, 101071, Note_on_c, 1, 73, 0
3, 101085, Note_on_c, 1, 71, 90
3, 101088, Note_on_c, 1, 55, 90
3, 101097, Note_on_c, 1, 57, 0
3, 101235, Note_on_c, 1, 54, 90
3, 101246, Note_on_c, 1, 55, 0
3, 101383, Note_on_c, 1, 52, 90
3, 101385, Note_on_c, 1, 54, 0
3, 101385, Note_on_c, 1, 73, 90
3, 101400, Note_on_c, 1, 74, 0
3, 101547, Note_on_c, 1, 55, 90
3, 101551, Note_on_c, 1, 52, 0
3, 101672, Note_on_c, 1, 71, 0
3, 101698, Note_on_c, 1, 70, 90
3, 101700, Note_on_c, 1, 54, 90
3, 101706, Note_on_c, 1, 55, 0
3, 101839, Note_on_c, 1, 52, 90
3, 101844, Note_on_c, 1, 54, 0
3, 101990, Note_on_c, 1, 73, 0
3, 102001, Note_on_c, 1, 52, 0
3, 102002, Note_on_c, 1, 71, 90
3, 102004, Note_on_c, 1, 50, 90
3, 102048, Note_on_c, 1, 70, 0
3, 102083, Note_on_c, 1, 50, 0
3, 102143, Note_on_c, 1, 64, 90
3, 102151, Note_on_c, 1, 67, 90
3, 102284, Note_on_c, 1, 64, 0
3, 102286, Note_on_c, 1, 62, 90
3, 102289, Note_on_c, 1, 66, 90
3, 102292, Note_on_c, 1, 67, 0
3, 102430, Note_on_c, 1, 66, 0
3, 102436, Note_on_c, 1, 61, 90
3, 102438, Note_on_c, 1, 71, 0
3, 102440, Note_on_c, 1, 62, 0
3, 102440, Note_on_c, 1, 64, 90
3, 102570, Note_on_c, 1, 61, 0
3, 102579, Note_on_c, 1, 62, 90
3, 102581, Note_on_c, 1, 59, 90
3, 102588, Note_on_c, 1, 64, 0
3, 102731, Note_on_c, 1, 71, 90
3, 102733, Note_on_c, 1, 74, 90
3, 102751, Note_on_c, 1, 62, 0
3, 102880, Note_on_c, 1, 69, 90
3, 102882, Note_on_c, 1, 71, 0
3, 102882, Note_on_c, 1, 60, 90
3, 102883, Note_on_c, 1, 72, 90
3, 102886, Note_on_c, 1, 59, 0
3, 102903, Note_on_c, 1, 74, 0
3, 103033, Note_on_c, 1, 71, 90
3, 103036, Note_on_c, 1, 67, 90
3, 103041, Note_on_c, 1, 69, 0
3, 103050, Note_on_c, 1, 72, 0
3, 103121, Note_on_c, 1, 67, 0
3, 103132, Note_on_c, 1, 60, 0
3, 103135, Note_on_c, 1, 71, 0
3, 103192, Note_on_c, 1, 62, 90
3, 103194, Note_on_c, 1, 66, 90
3, 103195, Note_on_c, 1, 69, 90
3, 103274, Note_on_c, 1, 71, 90
3, 103343, Note_on_c, 1, 72, 90
3, 103365, Note_on_c, 1, 71, 0
3, 103398, Note_on_c, 1, 72, 0
3, 103420, Note_on_c, 1, 74, 90
3, 103477, Note_on_c, 1, 74, 0
3, 103487, Note_on_c, 1, 62, 0
3, 103494, Note_on_c, 1, 66, 0
3, 103494, Note_on_c, 1, 69, 0
3, 103571, Note_on_c, 1, 74, 90
3, 103640, Note_on_c, 1, 74, 0
3, 103642, Note_on_c, 1, 76, 90
3, 103704, Note_on_c, 1, 76, 0
3, 103706, Note_on_c, 1, 78, 90
3, 103773, Note_on_c, 1, 78, 0
3, 103782, Note_on_c, 1, 79, 90
3, 103817, Note_on_c, 1, 79, 0
3, 103851, Note_on_c, 1, 79, 90
3, 103925, Note_on_c, 1, 81, 90
3, 103939, Note_on_c, 1, 79, 0
3, 103998, Note_on_c, 1, 81, 0
3, 103998, Note_on_c, 1, 83, 90
3, 104058, Note_on_c, 1, 83, 0
3, 104079, Note_on_c, 1, 84, 90
3, 104220, Note_on_c, 1, 79, 90
3, 104303, Note_on_c, 1, 79, 0
3, 104372, Note_on_c, 1, 78, 90
3, 104518, Note_on_c, 1, 83, 90
3, 104531, Note_on_c, 1, 84, 0
3, 104677, Note_on_c, 1, 81, 90
3, 104678, Note_on_c, 1, 83, 0
3, 104680, Note_on_c, 1, 78, 0
3, 104818, Note_on_c, 1, 76, 90
3, 104935, Note_on_c, 1, 76, 0
3, 104970, Note_on_c, 1, 74, 90
3, 105125, Note_on_c, 1, 79, 90
3, 105139, Note_on_c, 1, 81, 0
3, 105277, Note_on_c, 1, 78, 90
3, 105288, Note_on_c, 1, 79, 0
3, 105428, Note_on_c, 1, 72, 90
3, 105438, Note_on_c, 1, 74, 0
3, 105587, Note_on_c, 1, 71, 90
3, 105591, Note_on_c, 1, 72, 0
3, 105605, Note_on_c, 1, 78, 0
3, 105649, Note_on_c, 1, 71, 0
3, 105662, Note_on_c, 1, 71, 90
3, 105737, Note_on_c, 1, 73, 90
3, 105813, Note_on_c, 1, 73, 0
3, 105814, Note_on_c, 1, 75, 90
3, 105883, Note_on_c, 1, 75, 0
3, 105886, Note_on_c, 1, 76, 90
3, 105956, Note_on_c, 1, 67, 90
3, 105958, Note_on_c, 1, 71, 0
3, 106018, Note_on_c, 1, 67, 0
3, 106025, Note_on_c, 1, 69, 90
3, 106103, Note_on_c, 1, 71, 90
3, 106109, Note_on_c, 1, 69, 0
3, 106187, Note_on_c, 1, 71, 0
3, 106197, Note_on_c, 1, 72, 90
3, 106338, Note_on_c, 1, 79, 90
3, 106347, Note_on_c, 1, 71, 90
3, 106349, Note_on_c, 1, 76, 0
3, 106352, Note_on_c, 1, 72, 0
3, 106497, Note_on_c, 1, 71, 0
3, 106501, Note_on_c, 1, 78, 90
3, 106503, Note_on_c, 1, 69, 90
3, 106505, Note_on_c, 1, 79, 0
3, 106655, Note_on_c, 1, 78, 0
3, 106658, Note_on_c, 1, 76, 90
3, 106807, Note_on_c, 1, 75, 90
3, 106812, Note_on_c, 1, 76, 0
3, 106938, Note_on_c, 1, 75, 0
3, 106953, Note_on_c, 1, 78, 90
3, 107098, Note_on_c, 1, 78, 0
3, 107099, Note_on_c, 1, 67, 90
3, 107105, Note_on_c, 1, 76, 90
3, 107110, Note_on_c, 1, 69, 0
3, 107254, Note_on_c, 1, 76, 0
3, 107254, Note_on_c, 1, 74, 90
3, 107393, Note_on_c, 1, 74, 0
3, 107405, Note_on_c, 1, 73, 90
3, 107542, Note_on_c, 1, 73, 0
3, 107554, Note_on_c, 1, 76, 90
3, 107706, Note_on_c, 1, 74, 90
3, 107710, Note_on_c, 1, 66, 90
3, 107720, Note_on_c, 1, 76, 0
3, 107724, Note_on_c, 1, 67, 0
3, 107867, Note_on_c, 1, 72, 90
3, 107873, Note_on_c, 1, 74, 0
3, 108026, Note_on_c, 1, 71, 90
3, 108028, Note_on_c, 1, 72, 0
3, 108134, Note_on_c, 1, 71, 0
3, 108180, Note_on_c, 1, 74, 90
3, 108326, Note_on_c, 1, 72, 90
3, 108328, Note_on_c, 1, 64, 90
3, 108332, Note_on_c, 1, 66, 0
3, 108339, Note_on_c, 1, 74, 0
3, 108476, Note_on_c, 1, 72, 0
3, 108479, Note_on_c, 1, 71, 90
3, 108630, Note_on_c, 1, 69, 90
3, 108631, Note_on_c, 1, 71, 0
3, 108738, Note_on_c, 1, 69, 0
3, 108780, Note_on_c, 1, 72, 90
3, 108926, Note_on_c, 1, 63, 90
3, 108927, Note_on_c, 1, 71, 90
3, 108935, Note_on_c, 1, 72, 0
3, 108951, Note_on_c, 1, 64, 0
3, 109085, Note_on_c, 1, 69, 90
3, 109093, Note_on_c, 1, 71, 0
3, 109107, Note_on_c, 1, 63, 0
3, 109235, Note_on_c, 1, 69, 0
3, 109238, Note_on_c, 1, 64, 90
3, 109241, Note_on_c, 1, 67, 90
3, 109388, Note_on_c, 1, 67, 0
3, 109388, Note_on_c, 1, 69, 90
3, 109531, Note_on_c, 1, 69, 0
3, 109533, Note_on_c, 1, 67, 90
3, 109664, Note_on_c, 1, 66, 90
3, 109669, Note_on_c, 1, 67, 0
3, 109680, Note_on_c, 1, 64, 0
3, 109806, Note_on_c, 1, 64, 90
3, 109808, Note_on_c, 1, 66, 0
3, 109975, Note_on_c, 1, 79, 90
3, 109976, Note_on_c, 1, 71, 90
3, 109994, Note_on_c, 1, 64, 0
3, 110129, Note_on_c, 1, 69, 90
3, 110130, Note_on_c, 1, 78, 90
3, 110132, Note_on_c, 1, 79, 0
3, 110139, Note_on_c, 1, 71, 0
3, 110279, Note_on_c, 1, 67, 90
3, 110281, Note_on_c, 1, 76, 90
3, 110287, Note_on_c, 1, 69, 0
3, 110293, Note_on_c, 1, 78, 0
3, 110353, Note_on_c, 1, 76, 0
3, 110430, Note_on_c, 1, 74, 90
3, 110432, Note_on_c, 1, 66, 90
3, 110434, Note_on_c, 1, 86, 90
3, 110445, Note_on_c, 1, 67, 0
3, 110509, Note_on_c, 1, 84, 90
3, 110537, Note_on_c, 1, 74, 0
3, 110582, Note_on_c, 1, 83, 90
3, 110600, Note_on_c, 1, 84, 0
3, 110654, Note_on_c, 1, 81, 90
3, 110657, Note_on_c, 1, 83, 0
3, 110664, Note_on_c, 1, 66, 0
3, 110721, Note_on_c, 1, 79, 90
3, 110726, Note_on_c, 1, 81, 0
3, 110785, Note_on_c, 1, 77, 90
3, 110868, Note_on_c, 1, 77, 0
3, 110868, Note_on_c, 1, 76, 90
3, 110931, Note_on_c, 1, 74, 90
3, 110933, Note_on_c, 1, 76, 0
3, 111009, Note_on_c, 1, 88, 90
3, 111013, Note_on_c, 1, 72, 90
3, 111016, Note_on_c, 1, 79, 0
3, 111017, Note_on_c, 1, 74, 0
3, 111023, Note_on_c, 1, 86, 0
3, 111068, Note_on_c, 1, 72, 0
3, 111092, Note_on_c, 1, 79, 90
3, 111094, Note_on_c, 1, 76, 90
3, 111149, Note_on_c, 1, 76, 0
3, 111151, Note_on_c, 1, 79, 0
3, 111159, Note_on_c, 1, 78, 90
3, 111160, Note_on_c, 1, 81, 90
3, 111221, Note_on_c, 1, 78, 0
3, 111222, Note_on_c, 1, 81, 0
3, 111225, Note_on_c, 1, 79, 90
3, 111230, Note_on_c, 1, 83, 90
3, 111299, Note_on_c, 1, 83, 0
3, 111300, Note_on_c, 1, 84, 90
3, 111303, Note_on_c, 1, 79, 0
3, 111304, Note_on_c, 1, 81, 90
3, 111438, Note_on_c, 1, 88, 0
3, 111440, Note_on_c, 1, 79, 90
3, 111448, Note_on_c, 1, 81, 0
3, 111577, Note_on_c, 1, 86, 90
3, 111586, Note_on_c, 1, 78, 90
3, 111591, Note_on_c, 1, 79, 0
3, 111685, Note_on_c, 1, 84, 0
3, 111725, Note_on_c, 1, 83, 90
3, 111833, Note_on_c, 1, 83, 0
3, 111867, Note_on_c, 1, 84, 90
3, 111870, Note_on_c, 1, 81, 90
3, 111881, Note_on_c, 1, 86, 0
3, 112014, Note_on_c, 1, 78, 0
3, 112016, Note_on_c, 1, 76, 90
3, 112156, Note_on_c, 1, 83, 90
3, 112162, Note_on_c, 1, 74, 90
3, 112164, Note_on_c, 1, 84, 0
3, 112169, Note_on_c, 1, 76, 0
3, 112312, Note_on_c, 1, 79, 90
3, 112319, Note_on_c, 1, 81, 0
3, 112453, Note_on_c, 1, 78, 90
3, 112455, Note_on_c, 1, 79, 0
3, 112456, Note_on_c, 1, 81, 90
3, 112465, Note_on_c, 1, 83, 0
3, 112601, Note_on_c, 1, 72, 90
3, 112612, Note_on_c, 1, 74, 0
3, 112732, Note_on_c, 1, 81, 0
3, 112733, Note_on_c, 1, 79, 90
3, 112739, Note_on_c, 1, 71, 90
3, 112744, Note_on_c, 1, 78, 0
3, 112751, Note_on_c, 1, 72, 0
3, 112781, Note_on_c, 1, 71, 0
3, 112817, Note_on_c, 1, 71, 90
3, 112892, Note_on_c, 1, 73, 90
3, 112949, Note_on_c, 1, 73, 0
3, 112962, Note_on_c, 1, 75, 90
3, 112986, Note_on_c, 1, 71, 0
3, 113047, Note_on_c, 1, 76, 90
3, 113050, Note_on_c, 1, 75, 0
3, 113121, Note_on_c, 1, 67, 90
3, 113190, Note_on_c, 1, 67, 0
3, 113197, Note_on_c, 1, 69, 90
3, 113263, Note_on_c, 1, 71, 90
3, 113270, Note_on_c, 1, 69, 0
3, 113347, Note_on_c, 1, 71, 0
3, 113350, Note_on_c, 1, 81, 90
3, 113352, Note_on_c, 1, 72, 90
3, 113363, Note_on_c, 1, 79, 0
3, 113507, Note_on_c, 1, 79, 90
3, 113510, Note_on_c, 1, 76, 0
3, 113511, Note_on_c, 1, 71, 90
3, 113520, Note_on_c, 1, 72, 0
3, 113647, Note_on_c, 1, 79, 0
3, 113658, Note_on_c, 1, 78, 90
3, 113662, Note_on_c, 1, 69, 90
3, 113667, Note_on_c, 1, 71, 0
3, 113776, Note_on_c, 1, 78, 0
3, 113803, Note_on_c, 1, 76, 90
3, 113860, Note_on_c, 1, 81, 0
3, 113885, Note_on_c, 1, 76, 0
3, 113944, Note_on_c, 1, 83, 90
3, 113946, Note_on_c, 1, 75, 90
3, 114103, Note_on_c, 1, 78, 90
3, 114106, Note_on_c, 1, 75, 0
3, 114247, Note_on_c, 1, 78, 0
3, 114254, Note_on_c, 1, 67, 90
3, 114256, Note_on_c, 1, 76, 90
3, 114258, Note_on_c, 1, 69, 0
3, 114401, Note_on_c, 1, 74, 90
3, 114405, Note_on_c, 1, 76, 0
3, 114532, Note_on_c, 1, 74, 0
3, 114543, Note_on_c, 1, 81, 90
3, 114548, Note_on_c, 1, 83, 0
3, 114550, Note_on_c, 1, 73, 90
3, 114663, Note_on_c, 1, 73, 0
3, 114712, Note_on_c, 1, 76, 90
3, 114850, Note_on_c, 1, 76, 0
3, 114852, Note_on_c, 1, 74, 90
3, 114854, Note_on_c, 1, 67, 0
3, 114854, Note_on_c, 1, 66, 90
3, 114995, Note_on_c, 1, 74, 0
3, 114996, Note_on_c, 1, 72, 90
3, 115135, Note_on_c, 1, 72, 0
3, 115143, Note_on_c, 1, 79, 90
3, 115143, Note_on_c, 1, 71, 90
3, 115149, Note_on_c, 1, 81, 0
3, 115302, Note_on_c, 1, 74, 90
3, 115312, Note_on_c, 1, 71, 0
3, 115454, Note_on_c, 1, 74, 0
3, 115454, Note_on_c, 1, 64, 90
3, 115455, Note_on_c, 1, 72, 90
3, 115462, Note_on_c, 1, 66, 0
3, 115602, Note_on_c, 1, 71, 90
3, 115604, Note_on_c, 1, 72, 0
3, 115746, Note_on_c, 1, 78, 90
3, 115749, Note_on_c, 1, 71, 0
3, 115753, Note_on_c, 1, 69, 90
3, 115756, Note_on_c, 1, 79, 0
3, 115869, Note_on_c, 1, 69, 0
3, 115907, Note_on_c, 1, 72, 90
3, 115953, Note_on_c, 1, 64, 0
3, 116047, Note_on_c, 1, 62, 90
3, 116049, Note_on_c, 1, 71, 90
3, 116056, Note_on_c, 1, 72, 0
3, 116162, Note_on_c, 1, 71, 0
3, 116201, Note_on_c, 1, 69, 90
3, 116303, Note_on_c, 1, 69, 0
3, 116343, Note_on_c, 1, 78, 0
3, 116350, Note_on_c, 1, 68, 90
3, 116353, Note_on_c, 1, 76, 90
3, 116388, Note_on_c, 1, 62, 0
3, 116420, Note_on_c, 1, 59, 90
3, 116484, Note_on_c, 1, 59, 0
3, 116492, Note_on_c, 1, 60, 90
3, 116573, Note_on_c, 1, 62, 90
3, 116575, Note_on_c, 1, 60, 0
3, 116656, Note_on_c, 1, 64, 90
3, 116659, Note_on_c, 1, 62, 0
3, 116803, Note_on_c, 1, 62, 90
3, 116812, Note_on_c, 1, 64, 0
3, 116873, Note_on_c, 1, 62, 0
3, 116946, Note_on_c, 1, 61, 90
3, 117094, Note_on_c, 1, 68, 0
3, 117095, Note_on_c, 1, 64, 90
3, 117245, Note_on_c, 1, 69, 90
3, 117245, Note_on_c, 1, 60, 90
3, 117253, Note_on_c, 1, 64, 0
3, 117293, Note_on_c, 1, 61, 0
3, 117412, Note_on_c, 1, 63, 90
3, 117425, Note_on_c, 1, 60, 0
3, 117512, Note_on_c, 1, 63, 0
3, 117566, Note_on_c, 1, 59, 90
3, 117568, Note_on_c, 1, 64, 90
3, 117645, Note_on_c, 1, 76, 0
3, 117652, Note_on_c, 1, 71, 90
3, 117720, Note_on_c, 1, 71, 0
3, 117723, Note_on_c, 1, 72, 90
3, 117793, Note_on_c, 1, 72, 0
3, 117794, Note_on_c, 1, 74, 90
3, 117853, Note_on_c, 1, 69, 0
3, 117868, Note_on_c, 1, 68, 90
3, 117873, Note_on_c, 1, 76, 90
3, 117890, Note_on_c, 1, 74, 0
3, 117995, Note_on_c, 1, 59, 0
3, 118000, Note_on_c, 1, 76, 0
3, 118012, Note_on_c, 1, 74, 90
3, 118037, Note_on_c, 1, 68, 0
3, 118103, Note_on_c, 1, 74, 0
3, 118165, Note_on_c, 1, 73, 90
3, 118167, Note_on_c, 1, 69, 90
3, 118169, Note_on_c, 1, 57, 90
3, 118181, Note_on_c, 1, 64, 0
3, 118322, Note_on_c, 1, 76, 90
3, 118343, Note_on_c, 1, 73, 0
3, 118468, Note_on_c, 1, 76, 0
3, 118472, Note_on_c, 1, 72, 90
3, 118475, Note_on_c, 1, 81, 90
3, 118592, Note_on_c, 1, 57, 0
3, 118608, Note_on_c, 1, 69, 0
3, 118620, Note_on_c, 1, 75, 90
3, 118706, Note_on_c, 1, 75, 0
3, 118717, Note_on_c, 1, 72, 0
3, 118766, Note_on_c, 1, 76, 90
3, 118768, Note_on_c, 1, 71, 90
3, 118863, Note_on_c, 1, 83, 90
3, 118901, Note_on_c, 1, 83, 0
3, 118939, Note_on_c, 1, 84, 90
3, 118978, Note_on_c, 1, 84, 0
3, 118991, Note_on_c, 1, 86, 90
3, 119030, Note_on_c, 1, 86, 0
3, 119053, Note_on_c, 1, 81, 0
3, 119055, Note_on_c, 1, 80, 90
3, 119056, Note_on_c, 1, 88, 90
3, 119202, Note_on_c, 1, 86, 90
3, 119205, Note_on_c, 1, 88, 0
3, 119210, Note_on_c, 1, 80, 0
3, 119246, Note_on_c, 1, 71, 0
3, 119344, Note_on_c, 1, 76, 0
3, 119350, Note_on_c, 1, 86, 0
3, 119351, Note_on_c, 1, 81, 90
3, 119353, Note_on_c, 1, 85, 90
3, 119355, Note_on_c, 1, 69, 90
3, 119510, Note_on_c, 1, 88, 90
3, 119533, Note_on_c, 1, 85, 0
3, 119644, Note_on_c, 1, 88, 0
3, 119654, Note_on_c, 1, 84, 90
3, 119657, Note_on_c, 1, 93, 90
3, 119798, Note_on_c, 1, 93, 0
3, 119805, Note_on_c, 1, 87, 90
3, 119943, Note_on_c, 1, 87, 0
3, 119954, Note_on_c, 1, 88, 90
3, 119997, Note_on_c, 1, 69, 0
3, 120028, Note_on_c, 1, 71, 90
3, 120087, Note_on_c, 1, 71, 0
3, 120101, Note_on_c, 1, 72, 90
3, 120162, Note_on_c, 1, 72, 0
3, 120168, Note_on_c, 1, 74, 90
3, 120257, Note_on_c, 1, 74, 0
3, 120265, Note_on_c, 1, 76, 90
3, 120355, Note_on_c, 1, 81, 0
3, 120402, Note_on_c, 1, 80, 90
3, 120404, Note_on_c, 1, 86, 90
3, 120407, Note_on_c, 1, 71, 90
3, 120409, Note_on_c, 1, 84, 0
3, 120410, Note_on_c, 1, 76, 0
3, 120520, Note_on_c, 1, 80, 0
3, 120549, Note_on_c, 1, 84, 90
3, 120553, Note_on_c, 1, 81, 90
3, 120557, Note_on_c, 1, 72, 90
3, 120561, Note_on_c, 1, 71, 0
3, 120572, Note_on_c, 1, 86, 0
3, 120664, Note_on_c, 1, 72, 0
3, 120704, Note_on_c, 1, 68, 90
3, 120842, Note_on_c, 1, 68, 0
3, 120851, Note_on_c, 1, 69, 90
3, 120998, Note_on_c, 1, 63, 90
3, 121157, Note_on_c, 1, 64, 90
3, 121173, Note_on_c, 1, 63, 0
3, 121253, Note_on_c, 1, 81, 0
3, 121256, Note_on_c, 1, 80, 90
3, 121306, Note_on_c, 1, 80, 0
3, 121325, Note_on_c, 1, 81, 90
3, 121344, Note_on_c, 1, 84, 0
3, 121388, Note_on_c, 1, 83, 90
3, 121458, Note_on_c, 1, 84, 90
3, 121465, Note_on_c, 1, 83, 0
3, 121583, Note_on_c, 1, 81, 0
3, 121598, Note_on_c, 1, 80, 90
3, 121720, Note_on_c, 1, 80, 0
3, 121754, Note_on_c, 1, 81, 90
3, 121901, Note_on_c, 1, 75, 90
3, 122033, Note_on_c, 1, 75, 0
3, 122061, Note_on_c, 1, 76, 90
3, 122190, Note_on_c, 1, 88, 0
3, 122222, Note_on_c, 1, 87, 90
3, 122228, Note_on_c, 1, 81, 0
3, 122251, Note_on_c, 1, 69, 0
3, 122329, Note_on_c, 1, 84, 0
3, 122393, Note_on_c, 1, 87, 0
3, 122466, Note_on_c, 1, 80, 90
3, 122466, Note_on_c, 1, 71, 90
3, 122466, Note_on_c, 1, 83, 90
3, 122466, Note_on_c, 1, 88, 90
3, 124788, Note_on_c, 1, 76, 0
3, 124799, Note_on_c, 1, 64, 0
3, 124818, Note_on_c, 1, 80, 0
3, 124818, Note_on_c, 1, 88, 0
3, 124827, Note_on_c, 1, 71, 0
3, 124827, Note_on_c, 1, 83, 0
3, 124827, End_track
4, 0, Start_track
4, 0, Title_t, "Ped 8"
4, 0, MIDI_port, 0
4, 0, Control_c, 2, 7, 114
4, 0, Control_c, 2, 93, 0
4, 0, Control_c, 2, 91, 127
4, 0, Control_c, 2, 10, 22
4, 0, Program_c, 2, 19
4, 10757, Note_on_c, 2, 40, 90
4, 11324, Note_on_c, 2, 40, 0
4, 11371, Note_on_c, 2, 47, 90
4, 11812, Note_on_c, 2, 47, 0
4, 11967, Note_on_c, 2, 47, 90
4, 12567, Note_on_c, 2, 45, 90
4, 12571, Note_on_c, 2, 47, 0
4, 13180, Note_on_c, 2, 47, 90
4, 13182, Note_on_c, 2, 45, 0
4, 13737, Note_on_c, 2, 47, 0
4, 13770, Note_on_c, 2, 40, 90
4, 14286, Note_on_c, 2, 40, 0
4, 14342, Note_on_c, 2, 43, 90
4, 14878, Note_on_c, 2, 43, 0
4, 14953, Note_on_c, 2, 43, 90
4, 15569, Note_on_c, 2, 42, 90
4, 15592, Note_on_c, 2, 43, 0
4, 16673, Note_on_c, 2, 42, 0
4, 16765, Note_on_c, 2, 40, 90
4, 19164, Note_on_c, 2, 40, 0
4, 45568, Note_on_c, 2, 43, 90
4, 46038, Note_on_c, 2, 43, 0
4, 46179, Note_on_c, 2, 43, 90
4, 46654, Note_on_c, 2, 43, 0
4, 46783, Note_on_c, 2, 43, 90
4, 47297, Note_on_c, 2, 43, 0
4, 47351, Note_on_c, 2, 40, 90
4, 47972, Note_on_c, 2, 40, 0
4, 47977, Note_on_c, 2, 43, 90
4, 48578, Note_on_c, 2, 45, 90
4, 48588, Note_on_c, 2, 43, 0
4, 49194, Note_on_c, 2, 47, 90
4, 49203, Note_on_c, 2, 45, 0
4, 49784, Note_on_c, 2, 45, 90
4, 49800, Note_on_c, 2, 47, 0
4, 50370, Note_on_c, 2, 43, 90
4, 50386, Note_on_c, 2, 45, 0
4, 50984, Note_on_c, 2, 43, 0
4, 50992, Note_on_c, 2, 42, 90
4, 51596, Note_on_c, 2, 42, 0
4, 51620, Note_on_c, 2, 40, 90
4, 52824, Note_on_c, 2, 40, 0
4, 76756, Note_on_c, 2, 43, 90
4, 77200, Note_on_c, 2, 43, 0
4, 77352, Note_on_c, 2, 43, 90
4, 77835, Note_on_c, 2, 43, 0
4, 77975, Note_on_c, 2, 43, 90
4, 78535, Note_on_c, 2, 43, 0
4, 78544, Note_on_c, 2, 40, 90
4, 79084, Note_on_c, 2, 40, 0
4, 79143, Note_on_c, 2, 43, 90
4, 79721, Note_on_c, 2, 45, 90
4, 79730, Note_on_c, 2, 43, 0
4, 80361, Note_on_c, 2, 45, 0
4, 80375, Note_on_c, 2, 47, 90
4, 80966, Note_on_c, 2, 47, 0
4, 80989, Note_on_c, 2, 45, 90
4, 81539, Note_on_c, 2, 45, 0
4, 81588, Note_on_c, 2, 43, 90
4, 89411, Note_on_c, 2, 43, 0
4, 103183, Note_on_c, 2, 50, 95
4, 103830, Note_on_c, 2, 52, 81
4, 103846, Note_on_c, 2, 50, 0
4, 104335, Note_on_c, 2, 52, 0
4, 104361, Note_on_c, 2, 50, 84
4, 104655, Note_on_c, 2, 50, 0
4, 104667, Note_on_c, 2, 48, 86
4, 104956, Note_on_c, 2, 48, 0
4, 104964, Note_on_c, 2, 47, 94
4, 105269, Note_on_c, 2, 45, 90
4, 105271, Note_on_c, 2, 47, 0
4, 105559, Note_on_c, 2, 45, 0
4, 105567, Note_on_c, 2, 43, 89
4, 106151, Note_on_c, 2, 43, 0
4, 106176, Note_on_c, 2, 45, 90
4, 106773, Note_on_c, 2, 45, 0
4, 106790, Note_on_c, 2, 47, 94
4, 107360, Note_on_c, 2, 47, 0
4, 107397, Note_on_c, 2, 45, 90
4, 108006, Note_on_c, 2, 45, 0
4, 108018, Note_on_c, 2, 43, 88
4, 108555, Note_on_c, 2, 43, 0
4, 108624, Note_on_c, 2, 42, 94
4, 109123, Note_on_c, 2, 42, 0
4, 109243, Note_on_c, 2, 40, 84
4, 109491, Note_on_c, 2, 40, 0
4, 109522, Note_on_c, 2, 42, 93
4, 109777, Note_on_c, 2, 42, 0
4, 109806, Note_on_c, 2, 43, 82
4, 110054, Note_on_c, 2, 43, 0
4, 110066, Note_on_c, 2, 45, 76
4, 110308, Note_on_c, 2, 45, 0
4, 110395, Note_on_c, 2, 47, 90
4, 110973, Note_on_c, 2, 47, 0
4, 111000, Note_on_c, 2, 48, 85
4, 111583, Note_on_c, 2, 50, 92
4, 111587, Note_on_c, 2, 48, 0
4, 112649, Note_on_c, 2, 50, 0
4, 112745, Note_on_c, 2, 52, 86
4, 113018, Note_on_c, 2, 52, 0
4, 113034, Note_on_c, 2, 50, 89
4, 113302, Note_on_c, 2, 50, 0
4, 113320, Note_on_c, 2, 48, 88
4, 113901, Note_on_c, 2, 48, 0
4, 113937, Note_on_c, 2, 47, 94
4, 116214, Note_on_c, 2, 47, 0
4, 116348, Note_on_c, 2, 40, 88
4, 118764, Note_on_c, 2, 52, 96
4, 124809, Note_on_c, 2, 40, 0
4, 124809, Note_on_c, 2, 52, 0
4, 124809, End_track
5, 0, Start_track
5, 0, Title_t, "Ped 16 Bourdon"
5, 0, MIDI_port, 0
5, 0, Control_c, 3, 7, 114
5, 0, Control_c, 3, 93, 0
5, 0, Control_c, 3, 91, 127
5, 0, Control_c, 3, 10, 80
5, 0, Program_c, 3, 79
5, 10757, Note_on_c, 3, 28, 90
5, 11324, Note_on_c, 3, 28, 0
5, 11371, Note_on_c, 3, 35, 90
5, 11812, Note_on_c, 3, 35, 0
5, 11967, Note_on_c, 3, 35, 90
5, 12567, Note_on_c, 3, 33, 90
5, 12571, Note_on_c, 3, 35, 0
5, 13180, Note_on_c, 3, 35, 90
5, 13182, Note_on_c, 3, 33, 0
5, 13737, Note_on_c, 3, 35, 0
5, 13770, Note_on_c, 3, 28, 90
5, 14286, Note_on_c, 3, 28, 0
5, 14342, Note_on_c, 3, 31, 90
5, 14878, Note_on_c, 3, 31, 0
5, 14953, Note_on_c, 3, 31, 90
5, 15569, Note_on_c, 3, 30, 90
5, 15592, Note_on_c, 3, 31, 0
5, 16673, Note_on_c, 3, 30, 0
5, 16765, Note_on_c, 3, 28, 90
5, 19164, Note_on_c, 3, 28, 0
5, 45568, Note_on_c, 3, 31, 90
5, 46038, Note_on_c, 3, 31, 0
5, 46179, Note_on_c, 3, 31, 90
5, 46654, Note_on_c, 3, 31, 0
5, 46783, Note_on_c, 3, 31, 90
5, 47297, Note_on_c, 3, 31, 0
5, 47351, Note_on_c, 3, 28, 90
5, 47972, Note_on_c, 3, 28, 0
5, 47977, Note_on_c, 3, 31, 90
5, 48578, Note_on_c, 3, 33, 90
5, 48588, Note_on_c, 3, 31, 0
5, 49194, Note_on_c, 3, 35, 90
5, 49203, Note_on_c, 3, 33, 0
5, 49784, Note_on_c, 3, 33, 90
5, 49800, Note_on_c, 3, 35, 0
5, 50370, Note_on_c, 3, 31, 90
5, 50386, Note_on_c, 3, 33, 0
5, 50984, Note_on_c, 3, 31, 0
5, 50992, Note_on_c, 3, 30, 90
5, 51596, Note_on_c, 3, 30, 0
5, 51620, Note_on_c, 3, 28, 90
5, 52824, Note_on_c, 3, 28, 0
5, 76756, Note_on_c, 3, 31, 90
5, 77200, Note_on_c, 3, 31, 0
5, 77352, Note_on_c, 3, 31, 90
5, 77835, Note_on_c, 3, 31, 0
5, 77975, Note_on_c, 3, 31, 90
5, 78535, Note_on_c, 3, 31, 0
5, 78544, Note_on_c, 3, 28, 90
5, 79084, Note_on_c, 3, 28, 0
5, 79143, Note_on_c, 3, 31, 90
5, 79721, Note_on_c, 3, 33, 90
5, 79730, Note_on_c, 3, 31, 0
5, 80361, Note_on_c, 3, 33, 0
5, 80375, Note_on_c, 3, 35, 90
5, 80966, Note_on_c, 3, 35, 0
5, 80989, Note_on_c, 3, 33, 90
5, 81539, Note_on_c, 3, 33, 0
5, 81588, Note_on_c, 3, 31, 90
5, 89411, Note_on_c, 3, 31, 0
5, 103183, Note_on_c, 3, 38, 95
5, 103830, Note_on_c, 3, 40, 81
5, 103846, Note_on_c, 3, 38, 0
5, 104335, Note_on_c, 3, 40, 0
5, 104361, Note_on_c, 3, 38, 84
5, 104655, Note_on_c, 3, 38, 0
5, 104667, Note_on_c, 3, 36, 86
5, 104956, Note_on_c, 3, 36, 0
5, 104964, Note_on_c, 3, 35, 94
5, 105269, Note_on_c, 3, 33, 90
5, 105271, Note_on_c, 3, 35, 0
5, 105559, Note_on_c, 3, 33, 0
5, 105567, Note_on_c, 3, 31, 89
5, 106151, Note_on_c, 3, 31, 0
5, 106176, Note_on_c, 3, 33, 90
5, 106773, Note_on_c, 3, 33, 0
5, 106790, Note_on_c, 3, 35, 94
5, 107360, Note_on_c, 3, 35, 0
5, 107397, Note_on_c, 3, 33, 90
5, 108006, Note_on_c, 3, 33, 0
5, 108018, Note_on_c, 3, 31, 88
5, 108555, Note_on_c, 3, 31, 0
5, 108624, Note_on_c, 3, 30, 94
5, 109123, Note_on_c, 3, 30, 0
5, 109243, Note_on_c, 3, 28, 84
5, 109491, Note_on_c, 3, 28, 0
5, 109522, Note_on_c, 3, 30, 93
5, 109777, Note_on_c, 3, 30, 0
5, 109806, Note_on_c, 3, 31, 82
5, 110054, Note_on_c, 3, 31, 0
5, 110066, Note_on_c, 3, 33, 76
5, 110308, Note_on_c, 3, 33, 0
5, 110395, Note_on_c, 3, 35, 90
5, 110973, Note_on_c, 3, 35, 0
5, 111000, Note_on_c, 3, 36, 85
5, 111583, Note_on_c, 3, 38, 92
5, 111587, Note_on_c, 3, 36, 0
5, 112649, Note_on_c, 3, 38, 0
5, 112745, Note_on_c, 3, 40, 86
5, 113018, Note_on_c, 3, 40, 0
5, 113034, Note_on_c, 3, 38, 89
5, 113302, Note_on_c, 3, 38, 0
5, 113320, Note_on_c, 3, 36, 88
5, 113901, Note_on_c, 3, 36, 0
5, 113937, Note_on_c, 3, 35, 94
5, 116214, Note_on_c, 3, 35, 0
5, 116348, Note_on_c, 3, 28, 88
5, 118764, Note_on_c, 3, 40, 96
5, 124809, Note_on_c, 3, 28, 0
5, 124809, Note_on_c, 3, 40, 0
5, 124809, End_track
6, 0, Start_track
6, 0, Title_t, "Ped 16 Trombone"
6, 0, MIDI_port, 0
6, 0, Control_c, 4, 7, 108
6, 0, Control_c, 4, 91, 119
6, 0, Control_c, 4, 10, 94
6, 0, Program_c, 4, 57
6, 103183, Note_on_c, 4, 38, 95
6, 103830, Note_on_c, 4, 40, 81
6, 103846, Note_on_c, 4, 38, 0
6, 104335, Note_on_c, 4, 40, 0
6, 104361, Note_on_c, 4, 38, 84
6, 104655, Note_on_c, 4, 38, 0
6, 104667, Note_on_c, 4, 36, 86
6, 104956, Note_on_c, 4, 36, 0
6, 104964, Note_on_c, 4, 35, 94
6, 105269, Note_on_c, 4, 33, 90
6, 105271, Note_on_c, 4, 35, 0
6, 105559, Note_on_c, 4, 33, 0
6, 105567, Note_on_c, 4, 31, 89
6, 106151, Note_on_c, 4, 31, 0
6, 106176, Note_on_c, 4, 33, 90
6, 106773, Note_on_c, 4, 33, 0
6, 106790, Note_on_c, 4, 35, 94
6, 107360, Note_on_c, 4, 35, 0
6, 107397, Note_on_c, 4, 33, 90
6, 108006, Note_on_c, 4, 33, 0
6, 108018, Note_on_c, 4, 31, 88
6, 108555, Note_on_c, 4, 31, 0
6, 108624, Note_on_c, 4, 30, 94
6, 109123, Note_on_c, 4, 30, 0
6, 109243, Note_on_c, 4, 28, 84
6, 109491, Note_on_c, 4, 28, 0
6, 109522, Note_on_c, 4, 30, 93
6, 109777, Note_on_c, 4, 30, 0
6, 109806, Note_on_c, 4, 31, 82
6, 110054, Note_on_c, 4, 31, 0
6, 110066, Note_on_c, 4, 33, 76
6, 110308, Note_on_c, 4, 33, 0
6, 110395, Note_on_c, 4, 35, 90
6, 110973, Note_on_c, 4, 35, 0
6, 111000, Note_on_c, 4, 36, 85
6, 111583, Note_on_c, 4, 38, 92
6, 111587, Note_on_c, 4, 36, 0
6, 112649, Note_on_c, 4, 38, 0
6, 112745, Note_on_c, 4, 40, 86
6, 113018, Note_on_c, 4, 40, 0
6, 113034, Note_on_c, 4, 38, 89
6, 113302, Note_on_c, 4, 38, 0
6, 113320, Note_on_c, 4, 36, 88
6, 113901, Note_on_c, 4, 36, 0
6, 113937, Note_on_c, 4, 35, 94
6, 116214, Note_on_c, 4, 35, 0
6, 116348, Note_on_c, 4, 28, 88
6, 118764, Note_on_c, 4, 40, 96
6, 124809, Note_on_c, 4, 28, 0
6, 124809, Note_on_c, 4, 40, 0
6, 124809, End_track
7, 0, Start_track
7, 0, Title_t, "Ped 32 "
7, 0, MIDI_port, 0
7, 0, Control_c, 5, 7, 108
7, 0, Control_c, 5, 91, 119
7, 0, Control_c, 5, 10, 94
7, 0, Program_c, 5, 58
7, 103183, Note_on_c, 5, 26, 95
7, 103200, Control_c, 5, 7, 127
7, 103200, Control_c, 5, 91, 119
7, 103200, Control_c, 5, 10, 94
7, 103830, Note_on_c, 5, 28, 81
7, 103846, Note_on_c, 5, 26, 0
7, 104335, Note_on_c, 5, 28, 0
7, 104361, Note_on_c, 5, 26, 84
7, 104655, Note_on_c, 5, 26, 0
7, 104667, Note_on_c, 5, 24, 86
7, 104956, Note_on_c, 5, 24, 0
7, 104964, Note_on_c, 5, 23, 94
7, 105269, Note_on_c, 5, 21, 90
7, 105271, Note_on_c, 5, 23, 0
7, 105559, Note_on_c, 5, 21, 0
7, 105567, Note_on_c, 5, 19, 89
7, 106151, Note_on_c, 5, 19, 0
7, 106176, Note_on_c, 5, 21, 90
7, 106773, Note_on_c, 5, 21, 0
7, 106790, Note_on_c, 5, 23, 94
7, 107360, Note_on_c, 5, 23, 0
7, 107397, Note_on_c, 5, 21, 90
7, 108006, Note_on_c, 5, 21, 0
7, 108018, Note_on_c, 5, 19, 88
7, 108555, Note_on_c, 5, 19, 0
7, 108624, Note_on_c, 5, 18, 94
7, 109123, Note_on_c, 5, 18, 0
7, 109243, Note_on_c, 5, 16, 84
7, 109491, Note_on_c, 5, 16, 0
7, 109522, Note_on_c, 5, 18, 93
7, 109777, Note_on_c, 5, 18, 0
7, 109806, Note_on_c, 5, 19, 82
7, 110054, Note_on_c, 5, 19, 0
7, 110066, Note_on_c, 5, 21, 76
7, 110308, Note_on_c, 5, 21, 0
7, 110395, Note_on_c, 5, 23, 90
7, 110973, Note_on_c, 5, 23, 0
7, 111000, Note_on_c, 5, 24, 85
7, 111583, Note_on_c, 5, 26, 92
7, 111587, Note_on_c, 5, 24, 0
7, 112649, Note_on_c, 5, 26, 0
7, 112745, Note_on_c, 5, 28, 86
7, 113018, Note_on_c, 5, 28, 0
7, 113034, Note_on_c, 5, 26, 89
7, 113302, Note_on_c, 5, 26, 0
7, 113320, Note_on_c, 5, 24, 88
7, 113901, Note_on_c, 5, 24, 0
7, 113937, Note_on_c, 5, 23, 94
7, 116214, Note_on_c, 5, 23, 0
7, 116348, Note_on_c, 5, 16, 88
7, 118764, Note_on_c, 5, 28, 96
7, 124809, Note_on_c, 5, 16, 0
7, 124809, Note_on_c, 5, 28, 0
7, 124809, End_track
8, 0, Start_track
8, 0, MIDI_port, 0
8, 0, End_track
9, 0, Start_track
9, 0, Title_t, "Jesus Christus, unser Heiland"
9, 0, MIDI_port, 0
9, 0, End_track
10, 0, Start_track
10, 0, Title_t, "by J. S. Bach (BWV 664)"
10, 0, MIDI_port, 0
10, 0, End_track
11, 0, Start_track
11, 0, MIDI_port, 0
11, 0, End_track
12, 0, Start_track
12, 0, Title_t, "Sequenced using WinJammer Professional"
12, 0, MIDI_port, 0
12, 0, End_track
13, 0, Start_track
13, 0, Title_t, "on Windows NT by Martin Robinson."
13, 0, MIDI_port, 0
13, 0, End_track
14, 0, Start_track
14, 0, Title_t, "(c) Martin Robinson 1997"
14, 0, MIDI_port, 0
14, 0, End_track
0, 0, End_of_file
