0, 0, Header, 1, 17, 480
1, 0, Start_track
1, 0, Title_t, "untitled"
1, 0, Text_t, "RH\012"
1, 0, Text_t, "LH\012"
1, 0, SMPTE_offset, 96, 0, 3, 0, 0
1, 0, Time_signature, 4, 2, 24, 8
1, 0, Key_signature, 0, "major"
1, 0, Tempo, 750000
1, 40440, Tempo, 2000000
1, 40440, End_track
2, 0, Start_track
2, 0, MIDI_port, 0
2, 0, Title_t, "Solo Keyboard"
2, 0, Program_c, 0, 6
2, 0, Control_c, 0, 7, 100
2, 0, Control_c, 0, 10, 96
2, 120, Note_on_c, 0, 60, 100
2, 240, Note_on_c, 0, 60, 0
2, 240, Note_on_c, 0, 62, 100
2, 360, Note_on_c, 0, 62, 0
2, 360, Note_on_c, 0, 64, 100
2, 480, Note_on_c, 0, 64, 0
2, 480, Note_on_c, 0, 65, 100
2, 560, Note_on_c, 0, 65, 0
2, 560, Note_on_c, 0, 64, 100
2, 640, Note_on_c, 0, 64, 0
2, 640, Note_on_c, 0, 62, 100
2, 720, Note_on_c, 0, 62, 0
2, 720, Note_on_c, 0, 64, 100
2, 800, Note_on_c, 0, 64, 0
2, 800, Note_on_c, 0, 62, 100
2, 880, Note_on_c, 0, 62, 0
2, 880, Note_on_c, 0, 60, 100
2, 960, Note_on_c, 0, 60, 0
2, 960, Note_on_c, 0, 67, 100
2, 1200, Note_on_c, 0, 67, 0
2, 1200, Note_on_c, 0, 72, 100
2, 1440, Note_on_c, 0, 72, 0
2, 1440, Note_on_c, 0, 72, 100
2, 1480, Note_on_c, 0, 72, 0
2, 1480, Note_on_c, 0, 71, 100
2, 1520, Note_on_c, 0, 71, 0
2, 1520, Note_on_c, 0, 72, 100
2, 1560, Note_on_c, 0, 72, 0
2, 1560, Note_on_c, 0, 71, 100
2, 1680, Note_on_c, 0, 71, 0
2, 1680, Note_on_c, 0, 72, 100
2, 1920, Note_on_c, 0, 72, 0
2, 1920, Note_on_c, 0, 74, 100
2, 2040, Note_on_c, 0, 74, 0
2, 2040, Note_on_c, 0, 67, 100
2, 2160, Note_on_c, 0, 67, 0
2, 2160, Note_on_c, 0, 69, 100
2, 2280, Note_on_c, 0, 69, 0
2, 2280, Note_on_c, 0, 71, 100
2, 2400, Note_on_c, 0, 71, 0
2, 2400, Note_on_c, 0, 72, 100
2, 2480, Note_on_c, 0, 72, 0
2, 2480, Note_on_c, 0, 71, 100
2, 2560, Note_on_c, 0, 71, 0
2, 2560, Note_on_c, 0, 69, 100
2, 2640, Note_on_c, 0, 69, 0
2, 2640, Note_on_c, 0, 71, 100
2, 2720, Note_on_c, 0, 71, 0
2, 2720, Note_on_c, 0, 69, 100
2, 2800, Note_on_c, 0, 69, 0
2, 2800, Note_on_c, 0, 67, 100
2, 2880, Note_on_c, 0, 67, 0
2, 2880, Note_on_c, 0, 74, 100
2, 3120, Note_on_c, 0, 74, 0
2, 3120, Note_on_c, 0, 79, 100
2, 3360, Note_on_c, 0, 79, 0
2, 3360, Note_on_c, 0, 79, 100
2, 3400, Note_on_c, 0, 79, 0
2, 3400, Note_on_c, 0, 77, 100
2, 3440, Note_on_c, 0, 77, 0
2, 3440, Note_on_c, 0, 79, 100
2, 3480, Note_on_c, 0, 79, 0
2, 3480, Note_on_c, 0, 77, 100
2, 3600, Note_on_c, 0, 77, 0
2, 3600, Note_on_c, 0, 79, 100
2, 3840, Note_on_c, 0, 79, 0
2, 3840, Note_on_c, 0, 76, 100
2, 3960, Note_on_c, 0, 76, 0
2, 3960, Note_on_c, 0, 81, 100
2, 4080, Note_on_c, 0, 81, 0
2, 4080, Note_on_c, 0, 79, 100
2, 4200, Note_on_c, 0, 79, 0
2, 4200, Note_on_c, 0, 77, 100
2, 4320, Note_on_c, 0, 77, 0
2, 4320, Note_on_c, 0, 76, 100
2, 4400, Note_on_c, 0, 76, 0
2, 4400, Note_on_c, 0, 77, 100
2, 4480, Note_on_c, 0, 77, 0
2, 4480, Note_on_c, 0, 79, 100
2, 4560, Note_on_c, 0, 79, 0
2, 4560, Note_on_c, 0, 77, 100
2, 4640, Note_on_c, 0, 77, 0
2, 4640, Note_on_c, 0, 79, 100
2, 4720, Note_on_c, 0, 79, 0
2, 4720, Note_on_c, 0, 81, 100
2, 4800, Note_on_c, 0, 81, 0
2, 4800, Note_on_c, 0, 79, 100
2, 4920, Note_on_c, 0, 79, 0
2, 4920, Note_on_c, 0, 77, 100
2, 5040, Note_on_c, 0, 77, 0
2, 5040, Note_on_c, 0, 76, 100
2, 5160, Note_on_c, 0, 76, 0
2, 5160, Note_on_c, 0, 74, 100
2, 5280, Note_on_c, 0, 74, 0
2, 5280, Note_on_c, 0, 72, 100
2, 5360, Note_on_c, 0, 72, 0
2, 5360, Note_on_c, 0, 74, 100
2, 5440, Note_on_c, 0, 74, 0
2, 5440, Note_on_c, 0, 76, 100
2, 5520, Note_on_c, 0, 76, 0
2, 5520, Note_on_c, 0, 74, 100
2, 5600, Note_on_c, 0, 74, 0
2, 5600, Note_on_c, 0, 76, 100
2, 5680, Note_on_c, 0, 76, 0
2, 5680, Note_on_c, 0, 77, 100
2, 5760, Note_on_c, 0, 77, 0
2, 5760, Note_on_c, 0, 76, 100
2, 5880, Note_on_c, 0, 76, 0
2, 5880, Note_on_c, 0, 74, 100
2, 6000, Note_on_c, 0, 74, 0
2, 6000, Note_on_c, 0, 72, 100
2, 6120, Note_on_c, 0, 72, 0
2, 6120, Note_on_c, 0, 71, 100
2, 6240, Note_on_c, 0, 71, 0
2, 6240, Note_on_c, 0, 69, 100
2, 6320, Note_on_c, 0, 69, 0
2, 6320, Note_on_c, 0, 71, 100
2, 6400, Note_on_c, 0, 71, 0
2, 6400, Note_on_c, 0, 72, 100
2, 6480, Note_on_c, 0, 72, 0
2, 6480, Note_on_c, 0, 71, 100
2, 6560, Note_on_c, 0, 71, 0
2, 6560, Note_on_c, 0, 72, 100
2, 6640, Note_on_c, 0, 72, 0
2, 6640, Note_on_c, 0, 74, 100
2, 6720, Note_on_c, 0, 74, 0
2, 6720, Note_on_c, 0, 72, 100
2, 6840, Note_on_c, 0, 72, 0
2, 6840, Note_on_c, 0, 71, 100
2, 6960, Note_on_c, 0, 71, 0
2, 6960, Note_on_c, 0, 69, 100
2, 7080, Note_on_c, 0, 69, 0
2, 7080, Note_on_c, 0, 67, 100
2, 7200, Note_on_c, 0, 67, 0
2, 7200, Note_on_c, 0, 66, 100
2, 7280, Note_on_c, 0, 66, 0
2, 7280, Note_on_c, 0, 67, 100
2, 7360, Note_on_c, 0, 67, 0
2, 7360, Note_on_c, 0, 69, 100
2, 7440, Note_on_c, 0, 69, 0
2, 7440, Note_on_c, 0, 67, 100
2, 7520, Note_on_c, 0, 67, 0
2, 7520, Note_on_c, 0, 69, 100
2, 7600, Note_on_c, 0, 69, 0
2, 7600, Note_on_c, 0, 71, 100
2, 7680, Note_on_c, 0, 71, 0
2, 7680, Note_on_c, 0, 69, 100
2, 7920, Note_on_c, 0, 69, 0
2, 7920, Note_on_c, 0, 62, 100
2, 8160, Note_on_c, 0, 62, 0
2, 8160, Note_on_c, 0, 72, 100
2, 8220, Note_on_c, 0, 72, 0
2, 8220, Note_on_c, 0, 71, 100
2, 8280, Note_on_c, 0, 71, 0
2, 8280, Note_on_c, 0, 72, 100
2, 8520, Note_on_c, 0, 72, 0
2, 8520, Note_on_c, 0, 74, 100
2, 8640, Note_on_c, 0, 74, 0
2, 8640, Note_on_c, 0, 71, 100
2, 8760, Note_on_c, 0, 71, 0
2, 8760, Note_on_c, 0, 69, 100
2, 8880, Note_on_c, 0, 69, 0
2, 8880, Note_on_c, 0, 67, 100
2, 9000, Note_on_c, 0, 67, 0
2, 9000, Note_on_c, 0, 66, 100
2, 9120, Note_on_c, 0, 66, 0
2, 9120, Note_on_c, 0, 64, 100
2, 9200, Note_on_c, 0, 64, 0
2, 9200, Note_on_c, 0, 66, 100
2, 9280, Note_on_c, 0, 66, 0
2, 9280, Note_on_c, 0, 67, 100
2, 9360, Note_on_c, 0, 67, 0
2, 9360, Note_on_c, 0, 66, 100
2, 9440, Note_on_c, 0, 66, 0
2, 9440, Note_on_c, 0, 67, 100
2, 9520, Note_on_c, 0, 67, 0
2, 9520, Note_on_c, 0, 69, 100
2, 9600, Note_on_c, 0, 69, 0
2, 9600, Note_on_c, 0, 67, 100
2, 9680, Note_on_c, 0, 67, 0
2, 9680, Note_on_c, 0, 69, 100
2, 9760, Note_on_c, 0, 69, 0
2, 9760, Note_on_c, 0, 71, 100
2, 9840, Note_on_c, 0, 71, 0
2, 9840, Note_on_c, 0, 69, 100
2, 9920, Note_on_c, 0, 69, 0
2, 9920, Note_on_c, 0, 71, 100
2, 10000, Note_on_c, 0, 71, 0
2, 10000, Note_on_c, 0, 72, 100
2, 10080, Note_on_c, 0, 72, 0
2, 10080, Note_on_c, 0, 71, 100
2, 10160, Note_on_c, 0, 71, 0
2, 10160, Note_on_c, 0, 72, 100
2, 10240, Note_on_c, 0, 72, 0
2, 10240, Note_on_c, 0, 74, 100
2, 10320, Note_on_c, 0, 74, 0
2, 10320, Note_on_c, 0, 72, 100
2, 10400, Note_on_c, 0, 72, 0
2, 10400, Note_on_c, 0, 74, 100
2, 10480, Note_on_c, 0, 74, 0
2, 10480, Note_on_c, 0, 76, 100
2, 10560, Note_on_c, 0, 76, 0
2, 10560, Note_on_c, 0, 74, 100
2, 10680, Note_on_c, 0, 74, 0
2, 10680, Note_on_c, 0, 71, 100
2, 10740, Note_on_c, 0, 71, 0
2, 10740, Note_on_c, 0, 72, 100
2, 10800, Note_on_c, 0, 72, 0
2, 10800, Note_on_c, 0, 74, 100
2, 10920, Note_on_c, 0, 74, 0
2, 10920, Note_on_c, 0, 79, 100
2, 11040, Note_on_c, 0, 79, 0
2, 11040, Note_on_c, 0, 72, 100
2, 11080, Note_on_c, 0, 72, 0
2, 11080, Note_on_c, 0, 71, 100
2, 11120, Note_on_c, 0, 71, 0
2, 11120, Note_on_c, 0, 72, 100
2, 11160, Note_on_c, 0, 72, 0
2, 11160, Note_on_c, 0, 71, 100
2, 11280, Note_on_c, 0, 71, 0
2, 11280, Note_on_c, 0, 69, 100
2, 11400, Note_on_c, 0, 69, 0
2, 11400, Note_on_c, 0, 67, 100
2, 11520, Note_on_c, 0, 67, 0
2, 11520, Note_on_c, 0, 67, 100
2, 11760, Note_on_c, 0, 67, 0
2, 12600, Note_on_c, 0, 67, 100
2, 12720, Note_on_c, 0, 67, 0
2, 12720, Note_on_c, 0, 69, 100
2, 12840, Note_on_c, 0, 69, 0
2, 12840, Note_on_c, 0, 71, 100
2, 12960, Note_on_c, 0, 71, 0
2, 12960, Note_on_c, 0, 72, 100
2, 13040, Note_on_c, 0, 72, 0
2, 13040, Note_on_c, 0, 71, 100
2, 13120, Note_on_c, 0, 71, 0
2, 13120, Note_on_c, 0, 69, 100
2, 13200, Note_on_c, 0, 69, 0
2, 13200, Note_on_c, 0, 71, 100
2, 13280, Note_on_c, 0, 71, 0
2, 13280, Note_on_c, 0, 69, 100
2, 13360, Note_on_c, 0, 69, 0
2, 13360, Note_on_c, 0, 67, 100
2, 13440, Note_on_c, 0, 67, 0
2, 13440, Note_on_c, 0, 67, 100
2, 13480, Note_on_c, 0, 67, 0
2, 13480, Note_on_c, 0, 66, 100
2, 13520, Note_on_c, 0, 66, 0
2, 13520, Note_on_c, 0, 67, 100
2, 13560, Note_on_c, 0, 67, 0
2, 13560, Note_on_c, 0, 66, 100
2, 13680, Note_on_c, 0, 66, 0
2, 14520, Note_on_c, 0, 69, 100
2, 14640, Note_on_c, 0, 69, 0
2, 14640, Note_on_c, 0, 71, 100
2, 14760, Note_on_c, 0, 71, 0
2, 14760, Note_on_c, 0, 72, 100
2, 14880, Note_on_c, 0, 72, 0
2, 14880, Note_on_c, 0, 74, 100
2, 14960, Note_on_c, 0, 74, 0
2, 14960, Note_on_c, 0, 72, 100
2, 15040, Note_on_c, 0, 72, 0
2, 15040, Note_on_c, 0, 71, 100
2, 15120, Note_on_c, 0, 71, 0
2, 15120, Note_on_c, 0, 72, 100
2, 15200, Note_on_c, 0, 72, 0
2, 15200, Note_on_c, 0, 71, 100
2, 15280, Note_on_c, 0, 71, 0
2, 15280, Note_on_c, 0, 69, 100
2, 15360, Note_on_c, 0, 69, 0
2, 15360, Note_on_c, 0, 71, 100
2, 15600, Note_on_c, 0, 71, 0
2, 16440, Note_on_c, 0, 74, 100
2, 16560, Note_on_c, 0, 74, 0
2, 16560, Note_on_c, 0, 72, 100
2, 16680, Note_on_c, 0, 72, 0
2, 16680, Note_on_c, 0, 71, 100
2, 16800, Note_on_c, 0, 71, 0
2, 16800, Note_on_c, 0, 69, 100
2, 16880, Note_on_c, 0, 69, 0
2, 16880, Note_on_c, 0, 71, 100
2, 16960, Note_on_c, 0, 71, 0
2, 16960, Note_on_c, 0, 72, 100
2, 17040, Note_on_c, 0, 72, 0
2, 17040, Note_on_c, 0, 71, 100
2, 17120, Note_on_c, 0, 71, 0
2, 17120, Note_on_c, 0, 72, 100
2, 17200, Note_on_c, 0, 72, 0
2, 17200, Note_on_c, 0, 74, 100
2, 17280, Note_on_c, 0, 74, 0
2, 17280, Note_on_c, 0, 72, 100
2, 17520, Note_on_c, 0, 72, 0
2, 18360, Note_on_c, 0, 76, 100
2, 18480, Note_on_c, 0, 76, 0
2, 18480, Note_on_c, 0, 74, 100
2, 18600, Note_on_c, 0, 74, 0
2, 18600, Note_on_c, 0, 72, 100
2, 18720, Note_on_c, 0, 72, 0
2, 18720, Note_on_c, 0, 71, 100
2, 18800, Note_on_c, 0, 71, 0
2, 18800, Note_on_c, 0, 72, 100
2, 18880, Note_on_c, 0, 72, 0
2, 18880, Note_on_c, 0, 74, 100
2, 18960, Note_on_c, 0, 74, 0
2, 18960, Note_on_c, 0, 73, 100
2, 19040, Note_on_c, 0, 73, 0
2, 19040, Note_on_c, 0, 74, 100
2, 19120, Note_on_c, 0, 74, 0
2, 19120, Note_on_c, 0, 76, 100
2, 19200, Note_on_c, 0, 76, 0
2, 19200, Note_on_c, 0, 74, 100
2, 19440, Note_on_c, 0, 74, 0
2, 19440, Note_on_c, 0, 73, 100
2, 19680, Note_on_c, 0, 73, 0
2, 19680, Note_on_c, 0, 74, 100
2, 19920, Note_on_c, 0, 74, 0
2, 19920, Note_on_c, 0, 76, 100
2, 20160, Note_on_c, 0, 76, 0
2, 20160, Note_on_c, 0, 77, 100
2, 20400, Note_on_c, 0, 77, 0
2, 20400, Note_on_c, 0, 69, 100
2, 20640, Note_on_c, 0, 69, 0
2, 20640, Note_on_c, 0, 71, 100
2, 20880, Note_on_c, 0, 71, 0
2, 20880, Note_on_c, 0, 73, 100
2, 21120, Note_on_c, 0, 73, 0
2, 21120, Note_on_c, 0, 74, 100
2, 21360, Note_on_c, 0, 74, 0
2, 21360, Note_on_c, 0, 66, 100
2, 21600, Note_on_c, 0, 66, 0
2, 21600, Note_on_c, 0, 68, 100
2, 21840, Note_on_c, 0, 68, 0
2, 21840, Note_on_c, 0, 69, 100
2, 22080, Note_on_c, 0, 69, 0
2, 22080, Note_on_c, 0, 71, 100
2, 22320, Note_on_c, 0, 71, 0
2, 22320, Note_on_c, 0, 72, 100
2, 22560, Note_on_c, 0, 72, 0
2, 22560, Note_on_c, 0, 74, 100
2, 23160, Note_on_c, 0, 74, 0
2, 23160, Note_on_c, 0, 64, 100
2, 23280, Note_on_c, 0, 64, 0
2, 23280, Note_on_c, 0, 66, 100
2, 23400, Note_on_c, 0, 66, 0
2, 23400, Note_on_c, 0, 68, 100
2, 23520, Note_on_c, 0, 68, 0
2, 23520, Note_on_c, 0, 69, 100
2, 23600, Note_on_c, 0, 69, 0
2, 23600, Note_on_c, 0, 68, 100
2, 23680, Note_on_c, 0, 68, 0
2, 23680, Note_on_c, 0, 66, 100
2, 23760, Note_on_c, 0, 66, 0
2, 23760, Note_on_c, 0, 68, 100
2, 23840, Note_on_c, 0, 68, 0
2, 23840, Note_on_c, 0, 66, 100
2, 23920, Note_on_c, 0, 66, 0
2, 23920, Note_on_c, 0, 64, 100
2, 24000, Note_on_c, 0, 64, 0
2, 24000, Note_on_c, 0, 76, 100
2, 24120, Note_on_c, 0, 76, 0
2, 24120, Note_on_c, 0, 74, 100
2, 24240, Note_on_c, 0, 74, 0
2, 24240, Note_on_c, 0, 72, 100
2, 24360, Note_on_c, 0, 72, 0
2, 24360, Note_on_c, 0, 76, 100
2, 24480, Note_on_c, 0, 76, 0
2, 24480, Note_on_c, 0, 74, 100
2, 24600, Note_on_c, 0, 74, 0
2, 24600, Note_on_c, 0, 72, 100
2, 24720, Note_on_c, 0, 72, 0
2, 24720, Note_on_c, 0, 71, 100
2, 24800, Note_on_c, 0, 71, 0
2, 24800, Note_on_c, 0, 72, 100
2, 24880, Note_on_c, 0, 72, 0
2, 24880, Note_on_c, 0, 74, 100
2, 24960, Note_on_c, 0, 74, 0
2, 24960, Note_on_c, 0, 72, 100
2, 25080, Note_on_c, 0, 72, 0
2, 25080, Note_on_c, 0, 81, 100
2, 25200, Note_on_c, 0, 81, 0
2, 25200, Note_on_c, 0, 80, 100
2, 25280, Note_on_c, 0, 80, 0
2, 25280, Note_on_c, 0, 81, 100
2, 25360, Note_on_c, 0, 81, 0
2, 25360, Note_on_c, 0, 83, 100
2, 25440, Note_on_c, 0, 83, 0
2, 25440, Note_on_c, 0, 81, 100
2, 25560, Note_on_c, 0, 81, 0
2, 25560, Note_on_c, 0, 76, 100
2, 25680, Note_on_c, 0, 76, 0
2, 25680, Note_on_c, 0, 77, 100
2, 25760, Note_on_c, 0, 77, 0
2, 25760, Note_on_c, 0, 76, 100
2, 25840, Note_on_c, 0, 76, 0
2, 25840, Note_on_c, 0, 74, 100
2, 25920, Note_on_c, 0, 74, 0
2, 25920, Note_on_c, 0, 68, 100
2, 26040, Note_on_c, 0, 68, 0
2, 26040, Note_on_c, 0, 77, 100
2, 26160, Note_on_c, 0, 77, 0
2, 26160, Note_on_c, 0, 76, 100
2, 26280, Note_on_c, 0, 76, 0
2, 26280, Note_on_c, 0, 74, 100
2, 26400, Note_on_c, 0, 74, 0
2, 26400, Note_on_c, 0, 72, 100
2, 26640, Note_on_c, 0, 72, 0
2, 26640, Note_on_c, 0, 71, 100
2, 26760, Note_on_c, 0, 71, 0
2, 26760, Note_on_c, 0, 69, 100
2, 26880, Note_on_c, 0, 69, 0
2, 26880, Note_on_c, 0, 69, 100
2, 27000, Note_on_c, 0, 69, 0
2, 27000, Note_on_c, 0, 81, 100
2, 27120, Note_on_c, 0, 81, 0
2, 27120, Note_on_c, 0, 79, 100
2, 27240, Note_on_c, 0, 79, 0
2, 27240, Note_on_c, 0, 77, 100
2, 27360, Note_on_c, 0, 77, 0
2, 27360, Note_on_c, 0, 76, 100
2, 27440, Note_on_c, 0, 76, 0
2, 27440, Note_on_c, 0, 77, 100
2, 27520, Note_on_c, 0, 77, 0
2, 27520, Note_on_c, 0, 79, 100
2, 27600, Note_on_c, 0, 79, 0
2, 27600, Note_on_c, 0, 77, 100
2, 27680, Note_on_c, 0, 77, 0
2, 27680, Note_on_c, 0, 79, 100
2, 27760, Note_on_c, 0, 79, 0
2, 27760, Note_on_c, 0, 81, 100
2, 27840, Note_on_c, 0, 81, 0
2, 27840, Note_on_c, 0, 79, 100
2, 28900, Note_on_c, 0, 79, 0
2, 28920, Note_on_c, 0, 76, 100
2, 29040, Note_on_c, 0, 76, 0
2, 29040, Note_on_c, 0, 77, 100
2, 29160, Note_on_c, 0, 77, 0
2, 29160, Note_on_c, 0, 79, 100
2, 29280, Note_on_c, 0, 79, 0
2, 29280, Note_on_c, 0, 81, 100
2, 29360, Note_on_c, 0, 81, 0
2, 29360, Note_on_c, 0, 79, 100
2, 29440, Note_on_c, 0, 79, 0
2, 29440, Note_on_c, 0, 77, 100
2, 29520, Note_on_c, 0, 77, 0
2, 29520, Note_on_c, 0, 79, 100
2, 29600, Note_on_c, 0, 79, 0
2, 29600, Note_on_c, 0, 77, 100
2, 29680, Note_on_c, 0, 77, 0
2, 29680, Note_on_c, 0, 76, 100
2, 29760, Note_on_c, 0, 76, 0
2, 29760, Note_on_c, 0, 77, 100
2, 30840, Note_on_c, 0, 77, 0
2, 30840, Note_on_c, 0, 79, 100
2, 30960, Note_on_c, 0, 79, 0
2, 30960, Note_on_c, 0, 77, 100
2, 31080, Note_on_c, 0, 77, 0
2, 31080, Note_on_c, 0, 76, 100
2, 31200, Note_on_c, 0, 76, 0
2, 31200, Note_on_c, 0, 74, 100
2, 31280, Note_on_c, 0, 74, 0
2, 31280, Note_on_c, 0, 76, 100
2, 31360, Note_on_c, 0, 76, 0
2, 31360, Note_on_c, 0, 77, 100
2, 31440, Note_on_c, 0, 77, 0
2, 31440, Note_on_c, 0, 76, 100
2, 31520, Note_on_c, 0, 76, 0
2, 31520, Note_on_c, 0, 77, 100
2, 31600, Note_on_c, 0, 77, 0
2, 31600, Note_on_c, 0, 79, 100
2, 31680, Note_on_c, 0, 79, 0
2, 31680, Note_on_c, 0, 77, 100
2, 32740, Note_on_c, 0, 77, 0
2, 32760, Note_on_c, 0, 74, 100
2, 32880, Note_on_c, 0, 74, 0
2, 32880, Note_on_c, 0, 76, 100
2, 33000, Note_on_c, 0, 76, 0
2, 33000, Note_on_c, 0, 77, 100
2, 33120, Note_on_c, 0, 77, 0
2, 33120, Note_on_c, 0, 79, 100
2, 33200, Note_on_c, 0, 79, 0
2, 33200, Note_on_c, 0, 77, 100
2, 33280, Note_on_c, 0, 77, 0
2, 33280, Note_on_c, 0, 76, 100
2, 33360, Note_on_c, 0, 76, 0
2, 33360, Note_on_c, 0, 77, 100
2, 33440, Note_on_c, 0, 77, 0
2, 33440, Note_on_c, 0, 76, 100
2, 33520, Note_on_c, 0, 76, 0
2, 33520, Note_on_c, 0, 74, 100
2, 33600, Note_on_c, 0, 74, 0
2, 33600, Note_on_c, 0, 76, 100
2, 34660, Note_on_c, 0, 76, 0
2, 34680, Note_on_c, 0, 72, 100
2, 34800, Note_on_c, 0, 72, 0
2, 34800, Note_on_c, 0, 74, 100
2, 34920, Note_on_c, 0, 74, 0
2, 34920, Note_on_c, 0, 76, 100
2, 35040, Note_on_c, 0, 76, 0
2, 35040, Note_on_c, 0, 77, 100
2, 35120, Note_on_c, 0, 77, 0
2, 35120, Note_on_c, 0, 76, 100
2, 35200, Note_on_c, 0, 76, 0
2, 35200, Note_on_c, 0, 74, 100
2, 35280, Note_on_c, 0, 74, 0
2, 35280, Note_on_c, 0, 76, 100
2, 35360, Note_on_c, 0, 76, 0
2, 35360, Note_on_c, 0, 74, 100
2, 35440, Note_on_c, 0, 74, 0
2, 35440, Note_on_c, 0, 72, 100
2, 35520, Note_on_c, 0, 72, 0
2, 35520, Note_on_c, 0, 74, 100
2, 35640, Note_on_c, 0, 74, 0
2, 35640, Note_on_c, 0, 76, 100
2, 35760, Note_on_c, 0, 76, 0
2, 35760, Note_on_c, 0, 77, 100
2, 35880, Note_on_c, 0, 77, 0
2, 35880, Note_on_c, 0, 79, 100
2, 36000, Note_on_c, 0, 79, 0
2, 36000, Note_on_c, 0, 81, 100
2, 36080, Note_on_c, 0, 81, 0
2, 36080, Note_on_c, 0, 79, 100
2, 36160, Note_on_c, 0, 79, 0
2, 36160, Note_on_c, 0, 77, 100
2, 36240, Note_on_c, 0, 77, 0
2, 36240, Note_on_c, 0, 79, 100
2, 36320, Note_on_c, 0, 79, 0
2, 36320, Note_on_c, 0, 77, 100
2, 36400, Note_on_c, 0, 77, 0
2, 36400, Note_on_c, 0, 76, 100
2, 36480, Note_on_c, 0, 76, 0
2, 36480, Note_on_c, 0, 77, 100
2, 36600, Note_on_c, 0, 77, 0
2, 36600, Note_on_c, 0, 79, 100
2, 36720, Note_on_c, 0, 79, 0
2, 36720, Note_on_c, 0, 81, 100
2, 36840, Note_on_c, 0, 81, 0
2, 36840, Note_on_c, 0, 83, 100
2, 36960, Note_on_c, 0, 83, 0
2, 36960, Note_on_c, 0, 84, 100
2, 37040, Note_on_c, 0, 84, 0
2, 37040, Note_on_c, 0, 83, 100
2, 37120, Note_on_c, 0, 83, 0
2, 37120, Note_on_c, 0, 81, 100
2, 37200, Note_on_c, 0, 81, 0
2, 37200, Note_on_c, 0, 83, 100
2, 37280, Note_on_c, 0, 83, 0
2, 37280, Note_on_c, 0, 81, 100
2, 37360, Note_on_c, 0, 81, 0
2, 37360, Note_on_c, 0, 79, 100
2, 37440, Note_on_c, 0, 79, 0
2, 37440, Note_on_c, 0, 84, 100
2, 37680, Note_on_c, 0, 84, 0
2, 37680, Note_on_c, 0, 79, 100
2, 37920, Note_on_c, 0, 79, 0
2, 37920, Note_on_c, 0, 76, 100
2, 38160, Note_on_c, 0, 76, 0
2, 38160, Note_on_c, 0, 74, 100
2, 38280, Note_on_c, 0, 74, 0
2, 38280, Note_on_c, 0, 72, 100
2, 38400, Note_on_c, 0, 72, 0
2, 38400, Note_on_c, 0, 72, 100
2, 38520, Note_on_c, 0, 72, 0
2, 38520, Note_on_c, 0, 70, 100
2, 38640, Note_on_c, 0, 70, 0
2, 38640, Note_on_c, 0, 69, 100
2, 38760, Note_on_c, 0, 69, 0
2, 38760, Note_on_c, 0, 67, 100
2, 38880, Note_on_c, 0, 67, 0
2, 38880, Note_on_c, 0, 65, 100
2, 38960, Note_on_c, 0, 65, 0
2, 38960, Note_on_c, 0, 67, 100
2, 39040, Note_on_c, 0, 67, 0
2, 39040, Note_on_c, 0, 69, 100
2, 39120, Note_on_c, 0, 69, 0
2, 39120, Note_on_c, 0, 67, 100
2, 39200, Note_on_c, 0, 67, 0
2, 39200, Note_on_c, 0, 69, 100
2, 39280, Note_on_c, 0, 69, 0
2, 39280, Note_on_c, 0, 70, 100
2, 39360, Note_on_c, 0, 70, 0
2, 39360, Note_on_c, 0, 69, 100
2, 39480, Note_on_c, 0, 69, 0
2, 39480, Note_on_c, 0, 71, 100
2, 39600, Note_on_c, 0, 71, 0
2, 39600, Note_on_c, 0, 72, 100
2, 39720, Note_on_c, 0, 72, 0
2, 39720, Note_on_c, 0, 64, 100
2, 39840, Note_on_c, 0, 64, 0
2, 39840, Note_on_c, 0, 62, 100
2, 39960, Note_on_c, 0, 62, 0
2, 39960, Note_on_c, 0, 72, 100
2, 40080, Note_on_c, 0, 72, 0
2, 40080, Note_on_c, 0, 65, 100
2, 40200, Note_on_c, 0, 65, 0
2, 40200, Note_on_c, 0, 71, 100
2, 40320, Note_on_c, 0, 71, 0
2, 40350, Note_on_c, 0, 64, 100
2, 40365, Note_on_c, 0, 67, 100
2, 40380, Note_on_c, 0, 72, 100
2, 42240, Note_on_c, 0, 72, 0
2, 42240, Note_on_c, 0, 67, 0
2, 42240, Note_on_c, 0, 64, 0
2, 42240, End_track
3, 0, Start_track
3, 0, MIDI_port, 0
3, 0, Title_t, "--------------------------------------"
3, 0, Program_c, 1, 6
3, 0, Control_c, 1, 7, 100
3, 0, Control_c, 1, 10, 32
3, 1080, Note_on_c, 1, 48, 100
3, 1200, Note_on_c, 1, 48, 0
3, 1200, Note_on_c, 1, 50, 100
3, 1320, Note_on_c, 1, 50, 0
3, 1320, Note_on_c, 1, 52, 100
3, 1440, Note_on_c, 1, 52, 0
3, 1440, Note_on_c, 1, 53, 100
3, 1520, Note_on_c, 1, 53, 0
3, 1520, Note_on_c, 1, 52, 100
3, 1600, Note_on_c, 1, 52, 0
3, 1600, Note_on_c, 1, 50, 100
3, 1680, Note_on_c, 1, 50, 0
3, 1680, Note_on_c, 1, 52, 100
3, 1760, Note_on_c, 1, 52, 0
3, 1760, Note_on_c, 1, 50, 100
3, 1840, Note_on_c, 1, 50, 0
3, 1840, Note_on_c, 1, 48, 100
3, 1920, Note_on_c, 1, 48, 0
3, 1920, Note_on_c, 1, 55, 100
3, 2160, Note_on_c, 1, 55, 0
3, 2160, Note_on_c, 1, 43, 100
3, 2400, Note_on_c, 1, 43, 0
3, 3000, Note_on_c, 1, 55, 100
3, 3120, Note_on_c, 1, 55, 0
3, 3120, Note_on_c, 1, 57, 100
3, 3240, Note_on_c, 1, 57, 0
3, 3240, Note_on_c, 1, 59, 100
3, 3360, Note_on_c, 1, 59, 0
3, 3360, Note_on_c, 1, 60, 100
3, 3440, Note_on_c, 1, 60, 0
3, 3440, Note_on_c, 1, 59, 100
3, 3520, Note_on_c, 1, 59, 0
3, 3520, Note_on_c, 1, 57, 100
3, 3600, Note_on_c, 1, 57, 0
3, 3600, Note_on_c, 1, 59, 100
3, 3680, Note_on_c, 1, 59, 0
3, 3680, Note_on_c, 1, 57, 100
3, 3760, Note_on_c, 1, 57, 0
3, 3760, Note_on_c, 1, 55, 100
3, 3840, Note_on_c, 1, 55, 0
3, 3840, Note_on_c, 1, 60, 100
3, 4080, Note_on_c, 1, 60, 0
3, 4080, Note_on_c, 1, 59, 100
3, 4320, Note_on_c, 1, 59, 0
3, 4320, Note_on_c, 1, 60, 100
3, 4560, Note_on_c, 1, 60, 0
3, 4560, Note_on_c, 1, 62, 100
3, 4800, Note_on_c, 1, 62, 0
3, 4800, Note_on_c, 1, 64, 100
3, 5040, Note_on_c, 1, 64, 0
3, 5040, Note_on_c, 1, 55, 100
3, 5280, Note_on_c, 1, 55, 0
3, 5280, Note_on_c, 1, 57, 100
3, 5520, Note_on_c, 1, 57, 0
3, 5520, Note_on_c, 1, 59, 100
3, 5760, Note_on_c, 1, 59, 0
3, 5760, Note_on_c, 1, 60, 100
3, 6000, Note_on_c, 1, 60, 0
3, 6000, Note_on_c, 1, 52, 100
3, 6240, Note_on_c, 1, 52, 0
3, 6240, Note_on_c, 1, 54, 100
3, 6480, Note_on_c, 1, 54, 0
3, 6480, Note_on_c, 1, 55, 100
3, 6720, Note_on_c, 1, 55, 0
3, 6720, Note_on_c, 1, 57, 100
3, 6960, Note_on_c, 1, 57, 0
3, 6960, Note_on_c, 1, 59, 100
3, 7200, Note_on_c, 1, 59, 0
3, 7200, Note_on_c, 1, 60, 100
3, 7780, Note_on_c, 1, 60, 0
3, 7800, Note_on_c, 1, 50, 100
3, 7920, Note_on_c, 1, 50, 0
3, 7920, Note_on_c, 1, 52, 100
3, 8040, Note_on_c, 1, 52, 0
3, 8040, Note_on_c, 1, 54, 100
3, 8160, Note_on_c, 1, 54, 0
3, 8160, Note_on_c, 1, 55, 100
3, 8240, Note_on_c, 1, 55, 0
3, 8240, Note_on_c, 1, 54, 100
3, 8320, Note_on_c, 1, 54, 0
3, 8320, Note_on_c, 1, 52, 100
3, 8400, Note_on_c, 1, 52, 0
3, 8400, Note_on_c, 1, 54, 100
3, 8480, Note_on_c, 1, 54, 0
3, 8480, Note_on_c, 1, 52, 100
3, 8560, Note_on_c, 1, 52, 0
3, 8560, Note_on_c, 1, 50, 100
3, 8640, Note_on_c, 1, 50, 0
3, 8640, Note_on_c, 1, 55, 100
3, 8880, Note_on_c, 1, 55, 0
3, 8880, Note_on_c, 1, 47, 100
3, 9120, Note_on_c, 1, 47, 0
3, 9120, Note_on_c, 1, 48, 100
3, 9360, Note_on_c, 1, 48, 0
3, 9360, Note_on_c, 1, 50, 100
3, 9600, Note_on_c, 1, 50, 0
3, 9600, Note_on_c, 1, 52, 100
3, 9840, Note_on_c, 1, 52, 0
3, 9840, Note_on_c, 1, 54, 100
3, 10080, Note_on_c, 1, 54, 0
3, 10080, Note_on_c, 1, 55, 100
3, 10320, Note_on_c, 1, 55, 0
3, 10320, Note_on_c, 1, 52, 100
3, 10560, Note_on_c, 1, 52, 0
3, 10560, Note_on_c, 1, 47, 100
3, 10920, Note_on_c, 1, 47, 0
3, 10920, Note_on_c, 1, 48, 100
3, 11040, Note_on_c, 1, 48, 0
3, 11040, Note_on_c, 1, 50, 100
3, 11280, Note_on_c, 1, 50, 0
3, 11280, Note_on_c, 1, 38, 100
3, 11520, Note_on_c, 1, 38, 0
3, 11640, Note_on_c, 1, 43, 100
3, 11760, Note_on_c, 1, 43, 0
3, 11760, Note_on_c, 1, 45, 100
3, 11880, Note_on_c, 1, 45, 0
3, 11880, Note_on_c, 1, 47, 100
3, 12000, Note_on_c, 1, 47, 0
3, 12000, Note_on_c, 1, 48, 100
3, 12080, Note_on_c, 1, 48, 0
3, 12080, Note_on_c, 1, 47, 100
3, 12160, Note_on_c, 1, 47, 0
3, 12160, Note_on_c, 1, 45, 100
3, 12240, Note_on_c, 1, 45, 0
3, 12240, Note_on_c, 1, 47, 100
3, 12320, Note_on_c, 1, 47, 0
3, 12320, Note_on_c, 1, 45, 100
3, 12400, Note_on_c, 1, 45, 0
3, 12400, Note_on_c, 1, 43, 100
3, 12480, Note_on_c, 1, 43, 0
3, 12480, Note_on_c, 1, 50, 100
3, 12720, Note_on_c, 1, 50, 0
3, 12720, Note_on_c, 1, 55, 100
3, 12960, Note_on_c, 1, 55, 0
3, 12960, Note_on_c, 1, 54, 100
3, 13200, Note_on_c, 1, 54, 0
3, 13200, Note_on_c, 1, 55, 100
3, 13440, Note_on_c, 1, 55, 0
3, 13440, Note_on_c, 1, 57, 100
3, 13560, Note_on_c, 1, 57, 0
3, 13560, Note_on_c, 1, 50, 100
3, 13680, Note_on_c, 1, 50, 0
3, 13680, Note_on_c, 1, 52, 100
3, 13800, Note_on_c, 1, 52, 0
3, 13800, Note_on_c, 1, 54, 100
3, 13920, Note_on_c, 1, 54, 0
3, 13920, Note_on_c, 1, 55, 100
3, 14000, Note_on_c, 1, 55, 0
3, 14000, Note_on_c, 1, 54, 100
3, 14080, Note_on_c, 1, 54, 0
3, 14080, Note_on_c, 1, 52, 100
3, 14160, Note_on_c, 1, 52, 0
3, 14160, Note_on_c, 1, 54, 100
3, 14240, Note_on_c, 1, 54, 0
3, 14240, Note_on_c, 1, 52, 100
3, 14320, Note_on_c, 1, 52, 0
3, 14320, Note_on_c, 1, 50, 100
3, 14400, Note_on_c, 1, 50, 0
3, 14400, Note_on_c, 1, 57, 100
3, 14640, Note_on_c, 1, 57, 0
3, 14640, Note_on_c, 1, 62, 100
3, 14880, Note_on_c, 1, 62, 0
3, 14880, Note_on_c, 1, 60, 100
3, 15120, Note_on_c, 1, 60, 0
3, 15120, Note_on_c, 1, 62, 100
3, 15360, Note_on_c, 1, 62, 0
3, 15360, Note_on_c, 1, 55, 100
3, 15480, Note_on_c, 1, 55, 0
3, 15480, Note_on_c, 1, 67, 100
3, 15600, Note_on_c, 1, 67, 0
3, 15600, Note_on_c, 1, 65, 100
3, 15720, Note_on_c, 1, 65, 0
3, 15720, Note_on_c, 1, 64, 100
3, 15840, Note_on_c, 1, 64, 0
3, 15840, Note_on_c, 1, 62, 100
3, 15920, Note_on_c, 1, 62, 0
3, 15920, Note_on_c, 1, 64, 100
3, 16000, Note_on_c, 1, 64, 0
3, 16000, Note_on_c, 1, 65, 100
3, 16080, Note_on_c, 1, 65, 0
3, 16080, Note_on_c, 1, 64, 100
3, 16160, Note_on_c, 1, 64, 0
3, 16160, Note_on_c, 1, 65, 100
3, 16240, Note_on_c, 1, 65, 0
3, 16240, Note_on_c, 1, 67, 100
3, 16320, Note_on_c, 1, 67, 0
3, 16320, Note_on_c, 1, 65, 100
3, 16560, Note_on_c, 1, 65, 0
3, 16560, Note_on_c, 1, 64, 100
3, 16800, Note_on_c, 1, 64, 0
3, 16800, Note_on_c, 1, 65, 100
3, 17040, Note_on_c, 1, 65, 0
3, 17040, Note_on_c, 1, 62, 100
3, 17280, Note_on_c, 1, 62, 0
3, 17280, Note_on_c, 1, 64, 100
3, 17400, Note_on_c, 1, 64, 0
3, 17400, Note_on_c, 1, 69, 100
3, 17520, Note_on_c, 1, 69, 0
3, 17520, Note_on_c, 1, 67, 100
3, 17640, Note_on_c, 1, 67, 0
3, 17640, Note_on_c, 1, 65, 100
3, 17760, Note_on_c, 1, 65, 0
3, 17760, Note_on_c, 1, 64, 100
3, 17840, Note_on_c, 1, 64, 0
3, 17840, Note_on_c, 1, 65, 100
3, 17920, Note_on_c, 1, 65, 0
3, 17920, Note_on_c, 1, 67, 100
3, 18000, Note_on_c, 1, 67, 0
3, 18000, Note_on_c, 1, 65, 100
3, 18080, Note_on_c, 1, 65, 0
3, 18080, Note_on_c, 1, 67, 100
3, 18160, Note_on_c, 1, 67, 0
3, 18160, Note_on_c, 1, 69, 100
3, 18240, Note_on_c, 1, 69, 0
3, 18240, Note_on_c, 1, 67, 100
3, 18480, Note_on_c, 1, 67, 0
3, 18480, Note_on_c, 1, 65, 100
3, 18720, Note_on_c, 1, 65, 0
3, 18720, Note_on_c, 1, 67, 100
3, 18960, Note_on_c, 1, 67, 0
3, 18960, Note_on_c, 1, 64, 100
3, 19200, Note_on_c, 1, 64, 0
3, 19200, Note_on_c, 1, 65, 100
3, 19320, Note_on_c, 1, 65, 0
3, 19320, Note_on_c, 1, 70, 100
3, 19440, Note_on_c, 1, 70, 0
3, 19440, Note_on_c, 1, 69, 100
3, 19560, Note_on_c, 1, 69, 0
3, 19560, Note_on_c, 1, 67, 100
3, 19680, Note_on_c, 1, 67, 0
3, 19680, Note_on_c, 1, 65, 100
3, 19760, Note_on_c, 1, 65, 0
3, 19760, Note_on_c, 1, 67, 100
3, 19840, Note_on_c, 1, 67, 0
3, 19840, Note_on_c, 1, 69, 100
3, 19920, Note_on_c, 1, 69, 0
3, 19920, Note_on_c, 1, 67, 100
3, 20000, Note_on_c, 1, 67, 0
3, 20000, Note_on_c, 1, 69, 100
3, 20080, Note_on_c, 1, 69, 0
3, 20080, Note_on_c, 1, 70, 100
3, 20160, Note_on_c, 1, 70, 0
3, 20160, Note_on_c, 1, 69, 100
3, 20280, Note_on_c, 1, 69, 0
3, 20280, Note_on_c, 1, 67, 100
3, 20400, Note_on_c, 1, 67, 0
3, 20400, Note_on_c, 1, 65, 100
3, 20520, Note_on_c, 1, 65, 0
3, 20520, Note_on_c, 1, 64, 100
3, 20640, Note_on_c, 1, 64, 0
3, 20640, Note_on_c, 1, 62, 100
3, 20720, Note_on_c, 1, 62, 0
3, 20720, Note_on_c, 1, 64, 100
3, 20800, Note_on_c, 1, 64, 0
3, 20800, Note_on_c, 1, 65, 100
3, 20880, Note_on_c, 1, 65, 0
3, 20880, Note_on_c, 1, 64, 100
3, 20960, Note_on_c, 1, 64, 0
3, 20960, Note_on_c, 1, 65, 100
3, 21040, Note_on_c, 1, 65, 0
3, 21040, Note_on_c, 1, 67, 100
3, 21120, Note_on_c, 1, 67, 0
3, 21120, Note_on_c, 1, 65, 100
3, 21240, Note_on_c, 1, 65, 0
3, 21240, Note_on_c, 1, 64, 100
3, 21360, Note_on_c, 1, 64, 0
3, 21360, Note_on_c, 1, 62, 100
3, 21480, Note_on_c, 1, 62, 0
3, 21480, Note_on_c, 1, 60, 100
3, 21600, Note_on_c, 1, 60, 0
3, 21600, Note_on_c, 1, 59, 100
3, 21680, Note_on_c, 1, 59, 0
3, 21680, Note_on_c, 1, 60, 100
3, 21760, Note_on_c, 1, 60, 0
3, 21760, Note_on_c, 1, 62, 100
3, 21840, Note_on_c, 1, 62, 0
3, 21840, Note_on_c, 1, 60, 100
3, 21920, Note_on_c, 1, 60, 0
3, 21920, Note_on_c, 1, 62, 100
3, 22000, Note_on_c, 1, 62, 0
3, 22000, Note_on_c, 1, 64, 100
3, 22080, Note_on_c, 1, 64, 0
3, 22080, Note_on_c, 1, 62, 100
3, 22200, Note_on_c, 1, 62, 0
3, 22200, Note_on_c, 1, 60, 100
3, 22320, Note_on_c, 1, 60, 0
3, 22320, Note_on_c, 1, 59, 100
3, 22440, Note_on_c, 1, 59, 0
3, 22440, Note_on_c, 1, 57, 100
3, 22560, Note_on_c, 1, 57, 0
3, 22560, Note_on_c, 1, 56, 100
3, 22640, Note_on_c, 1, 56, 0
3, 22640, Note_on_c, 1, 57, 100
3, 22720, Note_on_c, 1, 57, 0
3, 22720, Note_on_c, 1, 59, 100
3, 22800, Note_on_c, 1, 59, 0
3, 22800, Note_on_c, 1, 57, 100
3, 22880, Note_on_c, 1, 57, 0
3, 22880, Note_on_c, 1, 59, 100
3, 22960, Note_on_c, 1, 59, 0
3, 22960, Note_on_c, 1, 60, 100
3, 23040, Note_on_c, 1, 60, 0
3, 23040, Note_on_c, 1, 59, 100
3, 23280, Note_on_c, 1, 59, 0
3, 23280, Note_on_c, 1, 52, 100
3, 23520, Note_on_c, 1, 52, 0
3, 23520, Note_on_c, 1, 62, 100
3, 23580, Note_on_c, 1, 62, 0
3, 23580, Note_on_c, 1, 60, 100
3, 23640, Note_on_c, 1, 60, 0
3, 23640, Note_on_c, 1, 62, 100
3, 23880, Note_on_c, 1, 62, 0
3, 23880, Note_on_c, 1, 64, 100
3, 24000, Note_on_c, 1, 64, 0
3, 24000, Note_on_c, 1, 60, 100
3, 24120, Note_on_c, 1, 60, 0
3, 24120, Note_on_c, 1, 59, 100
3, 24240, Note_on_c, 1, 59, 0
3, 24240, Note_on_c, 1, 57, 100
3, 24360, Note_on_c, 1, 57, 0
3, 24360, Note_on_c, 1, 55, 100
3, 24480, Note_on_c, 1, 55, 0
3, 24480, Note_on_c, 1, 54, 100
3, 24560, Note_on_c, 1, 54, 0
3, 24560, Note_on_c, 1, 56, 100
3, 24640, Note_on_c, 1, 56, 0
3, 24640, Note_on_c, 1, 57, 100
3, 24720, Note_on_c, 1, 57, 0
3, 24720, Note_on_c, 1, 56, 100
3, 24800, Note_on_c, 1, 56, 0
3, 24800, Note_on_c, 1, 57, 100
3, 24880, Note_on_c, 1, 57, 0
3, 24880, Note_on_c, 1, 59, 100
3, 24960, Note_on_c, 1, 59, 0
3, 24960, Note_on_c, 1, 57, 100
3, 25040, Note_on_c, 1, 57, 0
3, 25040, Note_on_c, 1, 59, 100
3, 25120, Note_on_c, 1, 59, 0
3, 25120, Note_on_c, 1, 60, 100
3, 25200, Note_on_c, 1, 60, 0
3, 25200, Note_on_c, 1, 59, 100
3, 25280, Note_on_c, 1, 59, 0
3, 25280, Note_on_c, 1, 60, 100
3, 25360, Note_on_c, 1, 60, 0
3, 25360, Note_on_c, 1, 62, 100
3, 25440, Note_on_c, 1, 62, 0
3, 25440, Note_on_c, 1, 60, 100
3, 25520, Note_on_c, 1, 60, 0
3, 25520, Note_on_c, 1, 62, 100
3, 25600, Note_on_c, 1, 62, 0
3, 25600, Note_on_c, 1, 64, 100
3, 25680, Note_on_c, 1, 64, 0
3, 25680, Note_on_c, 1, 62, 100
3, 25760, Note_on_c, 1, 62, 0
3, 25760, Note_on_c, 1, 64, 100
3, 25840, Note_on_c, 1, 64, 0
3, 25840, Note_on_c, 1, 65, 100
3, 25920, Note_on_c, 1, 65, 0
3, 25920, Note_on_c, 1, 64, 100
3, 26160, Note_on_c, 1, 64, 0
3, 26160, Note_on_c, 1, 57, 100
3, 26400, Note_on_c, 1, 57, 0
3, 26400, Note_on_c, 1, 64, 100
3, 26640, Note_on_c, 1, 64, 0
3, 26640, Note_on_c, 1, 52, 100
3, 26880, Note_on_c, 1, 52, 0
3, 26880, Note_on_c, 1, 57, 100
3, 27120, Note_on_c, 1, 57, 0
3, 27120, Note_on_c, 1, 45, 100
3, 27360, Note_on_c, 1, 45, 0
3, 27960, Note_on_c, 1, 64, 100
3, 28080, Note_on_c, 1, 64, 0
3, 28080, Note_on_c, 1, 62, 100
3, 28200, Note_on_c, 1, 62, 0
3, 28200, Note_on_c, 1, 60, 100
3, 28320, Note_on_c, 1, 60, 0
3, 28320, Note_on_c, 1, 59, 100
3, 28400, Note_on_c, 1, 59, 0
3, 28400, Note_on_c, 1, 61, 100
3, 28480, Note_on_c, 1, 61, 0
3, 28480, Note_on_c, 1, 62, 100
3, 28560, Note_on_c, 1, 62, 0
3, 28560, Note_on_c, 1, 61, 100
3, 28640, Note_on_c, 1, 61, 0
3, 28640, Note_on_c, 1, 62, 100
3, 28720, Note_on_c, 1, 62, 0
3, 28720, Note_on_c, 1, 64, 100
3, 28800, Note_on_c, 1, 64, 0
3, 28800, Note_on_c, 1, 62, 100
3, 29860, Note_on_c, 1, 62, 0
3, 29880, Note_on_c, 1, 57, 100
3, 30000, Note_on_c, 1, 57, 0
3, 30000, Note_on_c, 1, 59, 100
3, 30120, Note_on_c, 1, 59, 0
3, 30120, Note_on_c, 1, 60, 100
3, 30240, Note_on_c, 1, 60, 0
3, 30240, Note_on_c, 1, 62, 100
3, 30320, Note_on_c, 1, 62, 0
3, 30320, Note_on_c, 1, 60, 100
3, 30400, Note_on_c, 1, 60, 0
3, 30400, Note_on_c, 1, 59, 100
3, 30480, Note_on_c, 1, 59, 0
3, 30480, Note_on_c, 1, 60, 100
3, 30560, Note_on_c, 1, 60, 0
3, 30560, Note_on_c, 1, 59, 100
3, 30640, Note_on_c, 1, 59, 0
3, 30640, Note_on_c, 1, 57, 100
3, 30720, Note_on_c, 1, 57, 0
3, 30720, Note_on_c, 1, 59, 100
3, 31780, Note_on_c, 1, 59, 0
3, 31800, Note_on_c, 1, 62, 100
3, 31920, Note_on_c, 1, 62, 0
3, 31920, Note_on_c, 1, 60, 100
3, 32040, Note_on_c, 1, 60, 0
3, 32040, Note_on_c, 1, 59, 100
3, 32160, Note_on_c, 1, 59, 0
3, 32160, Note_on_c, 1, 57, 100
3, 32240, Note_on_c, 1, 57, 0
3, 32240, Note_on_c, 1, 59, 100
3, 32320, Note_on_c, 1, 59, 0
3, 32320, Note_on_c, 1, 60, 100
3, 32400, Note_on_c, 1, 60, 0
3, 32400, Note_on_c, 1, 59, 100
3, 32480, Note_on_c, 1, 59, 0
3, 32480, Note_on_c, 1, 60, 100
3, 32560, Note_on_c, 1, 60, 0
3, 32560, Note_on_c, 1, 62, 100
3, 32640, Note_on_c, 1, 62, 0
3, 32640, Note_on_c, 1, 60, 100
3, 33700, Note_on_c, 1, 60, 0
3, 33720, Note_on_c, 1, 55, 100
3, 33840, Note_on_c, 1, 55, 0
3, 33840, Note_on_c, 1, 57, 100
3, 33960, Note_on_c, 1, 57, 0
3, 33960, Note_on_c, 1, 58, 100
3, 34080, Note_on_c, 1, 58, 0
3, 34080, Note_on_c, 1, 60, 100
3, 34160, Note_on_c, 1, 60, 0
3, 34160, Note_on_c, 1, 58, 100
3, 34240, Note_on_c, 1, 58, 0
3, 34240, Note_on_c, 1, 57, 100
3, 34320, Note_on_c, 1, 57, 0
3, 34320, Note_on_c, 1, 58, 100
3, 34400, Note_on_c, 1, 58, 0
3, 34400, Note_on_c, 1, 57, 100
3, 34480, Note_on_c, 1, 57, 0
3, 34480, Note_on_c, 1, 55, 100
3, 34560, Note_on_c, 1, 55, 0
3, 34560, Note_on_c, 1, 57, 100
3, 34800, Note_on_c, 1, 57, 0
3, 34800, Note_on_c, 1, 58, 100
3, 35040, Note_on_c, 1, 58, 0
3, 35040, Note_on_c, 1, 57, 100
3, 35280, Note_on_c, 1, 57, 0
3, 35280, Note_on_c, 1, 55, 100
3, 35520, Note_on_c, 1, 55, 0
3, 35520, Note_on_c, 1, 53, 100
3, 35760, Note_on_c, 1, 53, 0
3, 35760, Note_on_c, 1, 62, 100
3, 36000, Note_on_c, 1, 62, 0
3, 36000, Note_on_c, 1, 60, 100
3, 36240, Note_on_c, 1, 60, 0
3, 36240, Note_on_c, 1, 58, 100
3, 36480, Note_on_c, 1, 58, 0
3, 36480, Note_on_c, 1, 57, 100
3, 36720, Note_on_c, 1, 57, 0
3, 36720, Note_on_c, 1, 65, 100
3, 36960, Note_on_c, 1, 65, 0
3, 36960, Note_on_c, 1, 64, 100
3, 37200, Note_on_c, 1, 64, 0
3, 37200, Note_on_c, 1, 62, 100
3, 37440, Note_on_c, 1, 62, 0
3, 37440, Note_on_c, 1, 64, 100
3, 37560, Note_on_c, 1, 64, 0
3, 37560, Note_on_c, 1, 50, 100
3, 37680, Note_on_c, 1, 50, 0
3, 37680, Note_on_c, 1, 52, 100
3, 37800, Note_on_c, 1, 52, 0
3, 37800, Note_on_c, 1, 53, 100
3, 37920, Note_on_c, 1, 53, 0
3, 37920, Note_on_c, 1, 55, 100
3, 38000, Note_on_c, 1, 55, 0
3, 38000, Note_on_c, 1, 53, 100
3, 38080, Note_on_c, 1, 53, 0
3, 38080, Note_on_c, 1, 52, 100
3, 38160, Note_on_c, 1, 52, 0
3, 38160, Note_on_c, 1, 53, 100
3, 38240, Note_on_c, 1, 53, 0
3, 38240, Note_on_c, 1, 52, 100
3, 38320, Note_on_c, 1, 52, 0
3, 38320, Note_on_c, 1, 50, 100
3, 38400, Note_on_c, 1, 50, 0
3, 38400, Note_on_c, 1, 52, 100
3, 38640, Note_on_c, 1, 52, 0
3, 38640, Note_on_c, 1, 48, 100
3, 38880, Note_on_c, 1, 48, 0
3, 38880, Note_on_c, 1, 50, 100
3, 39120, Note_on_c, 1, 50, 0
3, 39120, Note_on_c, 1, 52, 100
3, 39360, Note_on_c, 1, 52, 0
3, 39360, Note_on_c, 1, 53, 100
3, 39480, Note_on_c, 1, 53, 0
3, 39480, Note_on_c, 1, 50, 100
3, 39600, Note_on_c, 1, 50, 0
3, 39600, Note_on_c, 1, 52, 100
3, 39720, Note_on_c, 1, 52, 0
3, 39720, Note_on_c, 1, 53, 100
3, 39840, Note_on_c, 1, 53, 0
3, 39840, Note_on_c, 1, 55, 100
3, 40080, Note_on_c, 1, 55, 0
3, 40080, Note_on_c, 1, 43, 100
3, 40320, Note_on_c, 1, 43, 0
3, 40320, Note_on_c, 1, 36, 100
3, 40335, Note_on_c, 1, 48, 100
3, 42240, Note_on_c, 1, 48, 0
3, 42240, Note_on_c, 1, 36, 0
3, 42240, End_track
4, 0, Start_track
4, 0, MIDI_port, 0
4, 0, Title_t, "Johann Sebastian Bach  (1685-1750)"
4, 0, End_track
5, 0, Start_track
5, 0, MIDI_port, 0
5, 0, Title_t, "Inventions and Sinfonias ( 2 and 3-Part Inventions )"
5, 0, End_track
6, 0, Start_track
6, 0, MIDI_port, 0
6, 0, Title_t, "--------------------------------------"
6, 0, End_track
7, 0, Start_track
7, 0, MIDI_port, 0
7, 0, Title_t, "Invention No. 1 in C Major (alt) - BWV 772a"
7, 0, End_track
8, 0, Start_track
8, 0, MIDI_port, 0
8, 0, Title_t, "--------------------------------------"
8, 0, End_track
9, 0, Start_track
9, 0, MIDI_port, 0
9, 0, Title_t, "Original sequence by an unknown author"
9, 0, End_track
10, 0, Start_track
10, 0, MIDI_port, 0
10, 0, Title_t, "Modified with Cakewalk Pro Audio by"
10, 0, End_track
11, 0, Start_track
11, 0, MIDI_port, 0
11, 0, Title_t, "David J. Grossman - dave@unpronounceable.com"
11, 0, End_track
12, 0, Start_track
12, 0, MIDI_port, 0
12, 0, Title_t, "This and other Bach MIDI files can be found at:"
12, 0, End_track
13, 0, Start_track
13, 0, MIDI_port, 0
13, 0, Title_t, "Dave's J.S. Bach Page"
13, 0, End_track
14, 0, Start_track
14, 0, MIDI_port, 0
14, 0, Title_t, "http://www.unpronounceable.com/bach"
14, 0, End_track
15, 0, Start_track
15, 0, MIDI_port, 0
15, 0, Title_t, "--------------------------------------"
15, 0, End_track
16, 0, Start_track
16, 0, MIDI_port, 0
16, 0, Title_t, "Original Filename: bwv772a.mid"
16, 0, End_track
17, 0, Start_track
17, 0, MIDI_port, 0
17, 0, Title_t, "Last Modified: March 18, 1997"
17, 0, End_track
0, 0, End_of_file
