0, 0, Header, 1, 17, 240
1, 0, Start_track
1, 0, Title_t, "untitled"
1, 0, Text_t, "RH\012"
1, 0, Text_t, "LH\012"
1, 0, SMPTE_offset, 96, 0, 3, 0, 0
1, 0, Time_signature, 4, 2, 24, 8
1, 0, Key_signature, 0, "major"
1, 0, Tempo, 545455
1, 23760, Tempo, 3000000
1, 23760, End_track
2, 0, Start_track
2, 0, MIDI_port, 0
2, 0, Title_t, "Solo Keyboard"
2, 0, Program_c, 0, 6
2, 0, Control_c, 0, 7, 100
2, 0, Control_c, 0, 10, 96
2, 60, Note_on_c, 0, 64, 100
2, 120, Note_on_c, 0, 64, 0
2, 120, Note_on_c, 0, 69, 100
2, 180, Note_on_c, 0, 69, 0
2, 180, Note_on_c, 0, 72, 100
2, 240, Note_on_c, 0, 72, 0
2, 240, Note_on_c, 0, 71, 100
2, 300, Note_on_c, 0, 71, 0
2, 300, Note_on_c, 0, 64, 100
2, 360, Note_on_c, 0, 64, 0
2, 360, Note_on_c, 0, 71, 100
2, 420, Note_on_c, 0, 71, 0
2, 420, Note_on_c, 0, 74, 100
2, 480, Note_on_c, 0, 74, 0
2, 480, Note_on_c, 0, 72, 100
2, 600, Note_on_c, 0, 72, 0
2, 600, Note_on_c, 0, 76, 100
2, 720, Note_on_c, 0, 76, 0
2, 720, Note_on_c, 0, 68, 100
2, 840, Note_on_c, 0, 68, 0
2, 840, Note_on_c, 0, 76, 100
2, 960, Note_on_c, 0, 76, 0
2, 960, Note_on_c, 0, 69, 100
2, 1020, Note_on_c, 0, 69, 0
2, 1020, Note_on_c, 0, 64, 100
2, 1080, Note_on_c, 0, 64, 0
2, 1080, Note_on_c, 0, 69, 100
2, 1140, Note_on_c, 0, 69, 0
2, 1140, Note_on_c, 0, 72, 100
2, 1200, Note_on_c, 0, 72, 0
2, 1200, Note_on_c, 0, 71, 100
2, 1260, Note_on_c, 0, 71, 0
2, 1260, Note_on_c, 0, 64, 100
2, 1320, Note_on_c, 0, 64, 0
2, 1320, Note_on_c, 0, 71, 100
2, 1380, Note_on_c, 0, 71, 0
2, 1380, Note_on_c, 0, 74, 100
2, 1440, Note_on_c, 0, 74, 0
2, 1440, Note_on_c, 0, 72, 100
2, 1560, Note_on_c, 0, 72, 0
2, 1560, Note_on_c, 0, 69, 100
2, 1680, Note_on_c, 0, 69, 0
2, 1980, Note_on_c, 0, 76, 100
2, 2040, Note_on_c, 0, 76, 0
2, 2040, Note_on_c, 0, 72, 100
2, 2100, Note_on_c, 0, 72, 0
2, 2100, Note_on_c, 0, 76, 100
2, 2160, Note_on_c, 0, 76, 0
2, 2160, Note_on_c, 0, 69, 100
2, 2220, Note_on_c, 0, 69, 0
2, 2220, Note_on_c, 0, 72, 100
2, 2280, Note_on_c, 0, 72, 0
2, 2280, Note_on_c, 0, 64, 100
2, 2340, Note_on_c, 0, 64, 0
2, 2340, Note_on_c, 0, 67, 100
2, 2400, Note_on_c, 0, 67, 0
2, 2400, Note_on_c, 0, 65, 100
2, 2520, Note_on_c, 0, 65, 0
2, 2520, Note_on_c, 0, 69, 100
2, 2640, Note_on_c, 0, 69, 0
2, 2640, Note_on_c, 0, 74, 100
2, 2760, Note_on_c, 0, 74, 0
2, 2760, Note_on_c, 0, 77, 100
2, 2940, Note_on_c, 0, 77, 0
2, 2940, Note_on_c, 0, 74, 100
2, 3000, Note_on_c, 0, 74, 0
2, 3000, Note_on_c, 0, 71, 100
2, 3060, Note_on_c, 0, 71, 0
2, 3060, Note_on_c, 0, 74, 100
2, 3120, Note_on_c, 0, 74, 0
2, 3120, Note_on_c, 0, 67, 100
2, 3180, Note_on_c, 0, 67, 0
2, 3180, Note_on_c, 0, 71, 100
2, 3240, Note_on_c, 0, 71, 0
2, 3240, Note_on_c, 0, 62, 100
2, 3300, Note_on_c, 0, 62, 0
2, 3300, Note_on_c, 0, 65, 100
2, 3360, Note_on_c, 0, 65, 0
2, 3360, Note_on_c, 0, 64, 100
2, 3480, Note_on_c, 0, 64, 0
2, 3480, Note_on_c, 0, 67, 100
2, 3600, Note_on_c, 0, 67, 0
2, 3600, Note_on_c, 0, 72, 100
2, 3720, Note_on_c, 0, 72, 0
2, 3720, Note_on_c, 0, 76, 100
2, 3900, Note_on_c, 0, 76, 0
2, 3900, Note_on_c, 0, 72, 100
2, 3960, Note_on_c, 0, 72, 0
2, 3960, Note_on_c, 0, 69, 100
2, 4020, Note_on_c, 0, 69, 0
2, 4020, Note_on_c, 0, 72, 100
2, 4080, Note_on_c, 0, 72, 0
2, 4080, Note_on_c, 0, 65, 100
2, 4200, Note_on_c, 0, 65, 0
2, 4200, Note_on_c, 0, 74, 100
2, 4380, Note_on_c, 0, 74, 0
2, 4380, Note_on_c, 0, 71, 100
2, 4440, Note_on_c, 0, 71, 0
2, 4440, Note_on_c, 0, 67, 100
2, 4500, Note_on_c, 0, 67, 0
2, 4500, Note_on_c, 0, 71, 100
2, 4560, Note_on_c, 0, 71, 0
2, 4560, Note_on_c, 0, 64, 100
2, 4680, Note_on_c, 0, 64, 0
2, 4680, Note_on_c, 0, 72, 100
2, 4860, Note_on_c, 0, 72, 0
2, 4860, Note_on_c, 0, 69, 100
2, 4920, Note_on_c, 0, 69, 0
2, 4920, Note_on_c, 0, 65, 100
2, 4980, Note_on_c, 0, 65, 0
2, 4980, Note_on_c, 0, 69, 100
2, 5040, Note_on_c, 0, 69, 0
2, 5040, Note_on_c, 0, 62, 100
2, 5160, Note_on_c, 0, 62, 0
2, 5160, Note_on_c, 0, 71, 100
2, 5280, Note_on_c, 0, 71, 0
2, 5280, Note_on_c, 0, 72, 100
2, 5400, Note_on_c, 0, 72, 0
2, 5820, Note_on_c, 0, 67, 100
2, 5880, Note_on_c, 0, 67, 0
2, 5880, Note_on_c, 0, 72, 100
2, 5940, Note_on_c, 0, 72, 0
2, 5940, Note_on_c, 0, 76, 100
2, 6000, Note_on_c, 0, 76, 0
2, 6000, Note_on_c, 0, 74, 100
2, 6060, Note_on_c, 0, 74, 0
2, 6060, Note_on_c, 0, 67, 100
2, 6120, Note_on_c, 0, 67, 0
2, 6120, Note_on_c, 0, 74, 100
2, 6180, Note_on_c, 0, 74, 0
2, 6180, Note_on_c, 0, 77, 100
2, 6240, Note_on_c, 0, 77, 0
2, 6240, Note_on_c, 0, 76, 100
2, 6360, Note_on_c, 0, 76, 0
2, 6360, Note_on_c, 0, 79, 100
2, 6480, Note_on_c, 0, 79, 0
2, 6480, Note_on_c, 0, 71, 100
2, 6600, Note_on_c, 0, 71, 0
2, 6600, Note_on_c, 0, 79, 100
2, 6720, Note_on_c, 0, 79, 0
2, 6720, Note_on_c, 0, 72, 100
2, 6780, Note_on_c, 0, 72, 0
2, 6780, Note_on_c, 0, 67, 100
2, 6840, Note_on_c, 0, 67, 0
2, 6840, Note_on_c, 0, 72, 100
2, 6900, Note_on_c, 0, 72, 0
2, 6900, Note_on_c, 0, 76, 100
2, 6960, Note_on_c, 0, 76, 0
2, 6960, Note_on_c, 0, 74, 100
2, 7020, Note_on_c, 0, 74, 0
2, 7020, Note_on_c, 0, 67, 100
2, 7080, Note_on_c, 0, 67, 0
2, 7080, Note_on_c, 0, 74, 100
2, 7140, Note_on_c, 0, 74, 0
2, 7140, Note_on_c, 0, 77, 100
2, 7200, Note_on_c, 0, 77, 0
2, 7200, Note_on_c, 0, 76, 100
2, 7320, Note_on_c, 0, 76, 0
2, 7320, Note_on_c, 0, 72, 100
2, 7440, Note_on_c, 0, 72, 0
2, 7440, Note_on_c, 0, 79, 100
2, 7560, Note_on_c, 0, 79, 0
2, 7560, Note_on_c, 0, 76, 100
2, 7680, Note_on_c, 0, 76, 0
2, 7680, Note_on_c, 0, 84, 100
2, 7740, Note_on_c, 0, 84, 0
2, 7740, Note_on_c, 0, 81, 100
2, 7800, Note_on_c, 0, 81, 0
2, 7800, Note_on_c, 0, 76, 100
2, 7860, Note_on_c, 0, 76, 0
2, 7860, Note_on_c, 0, 81, 100
2, 7920, Note_on_c, 0, 81, 0
2, 7920, Note_on_c, 0, 72, 100
2, 7980, Note_on_c, 0, 72, 0
2, 7980, Note_on_c, 0, 76, 100
2, 8040, Note_on_c, 0, 76, 0
2, 8040, Note_on_c, 0, 69, 100
2, 8100, Note_on_c, 0, 69, 0
2, 8100, Note_on_c, 0, 72, 100
2, 8160, Note_on_c, 0, 72, 0
2, 8160, Note_on_c, 0, 74, 100
2, 8280, Note_on_c, 0, 74, 0
2, 8280, Note_on_c, 0, 78, 100
2, 8400, Note_on_c, 0, 78, 0
2, 8400, Note_on_c, 0, 81, 100
2, 8520, Note_on_c, 0, 81, 0
2, 8520, Note_on_c, 0, 84, 100
2, 8640, Note_on_c, 0, 84, 0
2, 8640, Note_on_c, 0, 83, 100
2, 8700, Note_on_c, 0, 83, 0
2, 8700, Note_on_c, 0, 79, 100
2, 8760, Note_on_c, 0, 79, 0
2, 8760, Note_on_c, 0, 74, 100
2, 8820, Note_on_c, 0, 74, 0
2, 8820, Note_on_c, 0, 79, 100
2, 8880, Note_on_c, 0, 79, 0
2, 8880, Note_on_c, 0, 71, 100
2, 8940, Note_on_c, 0, 71, 0
2, 8940, Note_on_c, 0, 74, 100
2, 9000, Note_on_c, 0, 74, 0
2, 9000, Note_on_c, 0, 67, 100
2, 9060, Note_on_c, 0, 67, 0
2, 9060, Note_on_c, 0, 71, 100
2, 9120, Note_on_c, 0, 71, 0
2, 9120, Note_on_c, 0, 72, 100
2, 9240, Note_on_c, 0, 72, 0
2, 9240, Note_on_c, 0, 76, 100
2, 9360, Note_on_c, 0, 76, 0
2, 9360, Note_on_c, 0, 79, 100
2, 9480, Note_on_c, 0, 79, 0
2, 9480, Note_on_c, 0, 83, 100
2, 9600, Note_on_c, 0, 83, 0
2, 9600, Note_on_c, 0, 81, 100
2, 9660, Note_on_c, 0, 81, 0
2, 9660, Note_on_c, 0, 78, 100
2, 9720, Note_on_c, 0, 78, 0
2, 9720, Note_on_c, 0, 75, 100
2, 9780, Note_on_c, 0, 75, 0
2, 9780, Note_on_c, 0, 78, 100
2, 9840, Note_on_c, 0, 78, 0
2, 9840, Note_on_c, 0, 71, 100
2, 9900, Note_on_c, 0, 71, 0
2, 9900, Note_on_c, 0, 75, 100
2, 9960, Note_on_c, 0, 75, 0
2, 9960, Note_on_c, 0, 66, 100
2, 10020, Note_on_c, 0, 66, 0
2, 10020, Note_on_c, 0, 69, 100
2, 10080, Note_on_c, 0, 69, 0
2, 10080, Note_on_c, 0, 67, 100
2, 10200, Note_on_c, 0, 67, 0
2, 10200, Note_on_c, 0, 79, 100
2, 10380, Note_on_c, 0, 79, 0
2, 10380, Note_on_c, 0, 76, 100
2, 10440, Note_on_c, 0, 76, 0
2, 10440, Note_on_c, 0, 72, 100
2, 10500, Note_on_c, 0, 72, 0
2, 10500, Note_on_c, 0, 76, 100
2, 10560, Note_on_c, 0, 76, 0
2, 10560, Note_on_c, 0, 69, 100
2, 10680, Note_on_c, 0, 69, 0
2, 10680, Note_on_c, 0, 78, 100
2, 10860, Note_on_c, 0, 78, 0
2, 10860, Note_on_c, 0, 74, 100
2, 10920, Note_on_c, 0, 74, 0
2, 10920, Note_on_c, 0, 71, 100
2, 10980, Note_on_c, 0, 71, 0
2, 10980, Note_on_c, 0, 74, 100
2, 11040, Note_on_c, 0, 74, 0
2, 11040, Note_on_c, 0, 67, 100
2, 11160, Note_on_c, 0, 67, 0
2, 11160, Note_on_c, 0, 76, 100
2, 11340, Note_on_c, 0, 76, 0
2, 11340, Note_on_c, 0, 72, 100
2, 11400, Note_on_c, 0, 72, 0
2, 11400, Note_on_c, 0, 69, 100
2, 11460, Note_on_c, 0, 69, 0
2, 11460, Note_on_c, 0, 72, 100
2, 11520, Note_on_c, 0, 72, 0
2, 11520, Note_on_c, 0, 66, 100
2, 11580, Note_on_c, 0, 66, 0
2, 11580, Note_on_c, 0, 79, 100
2, 11640, Note_on_c, 0, 79, 0
2, 11640, Note_on_c, 0, 78, 100
2, 11700, Note_on_c, 0, 78, 0
2, 11700, Note_on_c, 0, 76, 100
2, 11760, Note_on_c, 0, 76, 0
2, 11760, Note_on_c, 0, 75, 100
2, 11820, Note_on_c, 0, 75, 0
2, 11820, Note_on_c, 0, 78, 100
2, 11880, Note_on_c, 0, 78, 0
2, 11880, Note_on_c, 0, 71, 100
2, 11940, Note_on_c, 0, 71, 0
2, 11940, Note_on_c, 0, 75, 100
2, 12000, Note_on_c, 0, 75, 0
2, 12000, Note_on_c, 0, 76, 100
2, 12120, Note_on_c, 0, 76, 0
2, 12540, Note_on_c, 0, 79, 100
2, 12600, Note_on_c, 0, 79, 0
2, 12600, Note_on_c, 0, 82, 100
2, 12660, Note_on_c, 0, 82, 0
2, 12660, Note_on_c, 0, 79, 100
2, 12720, Note_on_c, 0, 79, 0
2, 12720, Note_on_c, 0, 76, 100
2, 12780, Note_on_c, 0, 76, 0
2, 12780, Note_on_c, 0, 79, 100
2, 12840, Note_on_c, 0, 79, 0
2, 12840, Note_on_c, 0, 73, 100
2, 12900, Note_on_c, 0, 73, 0
2, 12900, Note_on_c, 0, 76, 100
2, 12960, Note_on_c, 0, 76, 0
2, 12960, Note_on_c, 0, 79, 100
2, 13020, Note_on_c, 0, 79, 0
2, 13020, Note_on_c, 0, 76, 100
2, 13080, Note_on_c, 0, 76, 0
2, 13080, Note_on_c, 0, 73, 100
2, 13140, Note_on_c, 0, 73, 0
2, 13140, Note_on_c, 0, 76, 100
2, 13200, Note_on_c, 0, 76, 0
2, 13200, Note_on_c, 0, 69, 100
2, 13260, Note_on_c, 0, 69, 0
2, 13500, Note_on_c, 0, 77, 100
2, 13560, Note_on_c, 0, 77, 0
2, 13560, Note_on_c, 0, 80, 100
2, 13620, Note_on_c, 0, 80, 0
2, 13620, Note_on_c, 0, 77, 100
2, 13680, Note_on_c, 0, 77, 0
2, 13680, Note_on_c, 0, 74, 100
2, 13740, Note_on_c, 0, 74, 0
2, 13740, Note_on_c, 0, 77, 100
2, 13800, Note_on_c, 0, 77, 0
2, 13800, Note_on_c, 0, 71, 100
2, 13860, Note_on_c, 0, 71, 0
2, 13860, Note_on_c, 0, 74, 100
2, 13920, Note_on_c, 0, 74, 0
2, 13920, Note_on_c, 0, 77, 100
2, 13980, Note_on_c, 0, 77, 0
2, 13980, Note_on_c, 0, 74, 100
2, 14040, Note_on_c, 0, 74, 0
2, 14040, Note_on_c, 0, 71, 100
2, 14100, Note_on_c, 0, 71, 0
2, 14100, Note_on_c, 0, 74, 100
2, 14160, Note_on_c, 0, 74, 0
2, 14160, Note_on_c, 0, 67, 100
2, 14220, Note_on_c, 0, 67, 0
2, 14460, Note_on_c, 0, 76, 100
2, 14520, Note_on_c, 0, 76, 0
2, 14520, Note_on_c, 0, 79, 100
2, 14580, Note_on_c, 0, 79, 0
2, 14580, Note_on_c, 0, 76, 100
2, 14640, Note_on_c, 0, 76, 0
2, 14640, Note_on_c, 0, 72, 100
2, 14700, Note_on_c, 0, 72, 0
2, 14700, Note_on_c, 0, 76, 100
2, 14760, Note_on_c, 0, 76, 0
2, 14760, Note_on_c, 0, 69, 100
2, 14820, Note_on_c, 0, 69, 0
2, 14820, Note_on_c, 0, 72, 100
2, 14880, Note_on_c, 0, 72, 0
2, 14880, Note_on_c, 0, 75, 100
2, 14940, Note_on_c, 0, 75, 0
2, 14940, Note_on_c, 0, 72, 100
2, 15000, Note_on_c, 0, 72, 0
2, 15000, Note_on_c, 0, 69, 100
2, 15060, Note_on_c, 0, 69, 0
2, 15060, Note_on_c, 0, 72, 100
2, 15120, Note_on_c, 0, 72, 0
2, 15120, Note_on_c, 0, 66, 100
2, 15180, Note_on_c, 0, 66, 0
2, 15420, Note_on_c, 0, 74, 100
2, 15480, Note_on_c, 0, 74, 0
2, 15480, Note_on_c, 0, 77, 100
2, 15540, Note_on_c, 0, 77, 0
2, 15540, Note_on_c, 0, 74, 100
2, 15600, Note_on_c, 0, 74, 0
2, 15600, Note_on_c, 0, 71, 100
2, 15660, Note_on_c, 0, 71, 0
2, 15660, Note_on_c, 0, 74, 100
2, 15720, Note_on_c, 0, 74, 0
2, 15720, Note_on_c, 0, 68, 100
2, 15780, Note_on_c, 0, 68, 0
2, 15780, Note_on_c, 0, 71, 100
2, 15840, Note_on_c, 0, 71, 0
2, 15840, Note_on_c, 0, 74, 100
2, 15900, Note_on_c, 0, 74, 0
2, 15900, Note_on_c, 0, 71, 100
2, 15960, Note_on_c, 0, 71, 0
2, 15960, Note_on_c, 0, 68, 100
2, 16020, Note_on_c, 0, 68, 0
2, 16020, Note_on_c, 0, 71, 100
2, 16080, Note_on_c, 0, 71, 0
2, 16080, Note_on_c, 0, 64, 100
2, 16140, Note_on_c, 0, 64, 0
2, 16380, Note_on_c, 0, 64, 100
2, 16440, Note_on_c, 0, 64, 0
2, 16440, Note_on_c, 0, 69, 100
2, 16500, Note_on_c, 0, 69, 0
2, 16500, Note_on_c, 0, 72, 100
2, 16560, Note_on_c, 0, 72, 0
2, 16560, Note_on_c, 0, 71, 100
2, 16620, Note_on_c, 0, 71, 0
2, 16620, Note_on_c, 0, 64, 100
2, 16680, Note_on_c, 0, 64, 0
2, 16680, Note_on_c, 0, 71, 100
2, 16740, Note_on_c, 0, 71, 0
2, 16740, Note_on_c, 0, 74, 100
2, 16800, Note_on_c, 0, 74, 0
2, 16800, Note_on_c, 0, 72, 100
2, 16920, Note_on_c, 0, 72, 0
2, 16920, Note_on_c, 0, 69, 100
2, 17040, Note_on_c, 0, 69, 0
2, 17040, Note_on_c, 0, 68, 100
2, 17160, Note_on_c, 0, 68, 0
2, 17160, Note_on_c, 0, 64, 100
2, 17280, Note_on_c, 0, 64, 0
2, 17280, Note_on_c, 0, 69, 100
2, 17340, Note_on_c, 0, 69, 0
2, 17340, Note_on_c, 0, 72, 100
2, 17400, Note_on_c, 0, 72, 0
2, 17400, Note_on_c, 0, 76, 100
2, 17460, Note_on_c, 0, 76, 0
2, 17460, Note_on_c, 0, 72, 100
2, 17520, Note_on_c, 0, 72, 0
2, 17520, Note_on_c, 0, 69, 100
2, 17580, Note_on_c, 0, 69, 0
2, 17580, Note_on_c, 0, 72, 100
2, 17640, Note_on_c, 0, 72, 0
2, 17640, Note_on_c, 0, 66, 100
2, 17700, Note_on_c, 0, 66, 0
2, 17700, Note_on_c, 0, 69, 100
2, 17760, Note_on_c, 0, 69, 0
2, 17760, Note_on_c, 0, 72, 100
2, 17820, Note_on_c, 0, 72, 0
2, 17820, Note_on_c, 0, 69, 100
2, 17880, Note_on_c, 0, 69, 0
2, 17880, Note_on_c, 0, 66, 100
2, 17940, Note_on_c, 0, 66, 0
2, 17940, Note_on_c, 0, 69, 100
2, 18000, Note_on_c, 0, 69, 0
2, 18000, Note_on_c, 0, 63, 100
2, 18060, Note_on_c, 0, 63, 0
2, 18060, Note_on_c, 0, 72, 100
2, 18120, Note_on_c, 0, 72, 0
2, 18120, Note_on_c, 0, 71, 100
2, 18180, Note_on_c, 0, 71, 0
2, 18180, Note_on_c, 0, 69, 100
2, 18240, Note_on_c, 0, 69, 0
2, 18240, Note_on_c, 0, 68, 100
2, 18300, Note_on_c, 0, 68, 0
2, 18300, Note_on_c, 0, 71, 100
2, 18360, Note_on_c, 0, 71, 0
2, 18360, Note_on_c, 0, 74, 100
2, 18420, Note_on_c, 0, 74, 0
2, 18420, Note_on_c, 0, 71, 100
2, 18480, Note_on_c, 0, 71, 0
2, 18480, Note_on_c, 0, 68, 100
2, 18540, Note_on_c, 0, 68, 0
2, 18540, Note_on_c, 0, 71, 100
2, 18600, Note_on_c, 0, 71, 0
2, 18600, Note_on_c, 0, 62, 100
2, 18660, Note_on_c, 0, 62, 0
2, 18660, Note_on_c, 0, 65, 100
2, 18720, Note_on_c, 0, 65, 0
2, 18720, Note_on_c, 0, 68, 100
2, 18780, Note_on_c, 0, 68, 0
2, 18780, Note_on_c, 0, 65, 100
2, 18840, Note_on_c, 0, 65, 0
2, 18840, Note_on_c, 0, 62, 100
2, 18900, Note_on_c, 0, 62, 0
2, 18900, Note_on_c, 0, 65, 100
2, 18960, Note_on_c, 0, 65, 0
2, 18960, Note_on_c, 0, 59, 100
2, 19020, Note_on_c, 0, 59, 0
2, 19020, Note_on_c, 0, 65, 100
2, 19080, Note_on_c, 0, 65, 0
2, 19080, Note_on_c, 0, 64, 100
2, 19140, Note_on_c, 0, 64, 0
2, 19140, Note_on_c, 0, 62, 100
2, 19200, Note_on_c, 0, 62, 0
2, 19200, Note_on_c, 0, 60, 100
2, 19260, Note_on_c, 0, 60, 0
2, 19260, Note_on_c, 0, 64, 100
2, 19320, Note_on_c, 0, 64, 0
2, 19320, Note_on_c, 0, 69, 100
2, 19380, Note_on_c, 0, 69, 0
2, 19380, Note_on_c, 0, 64, 100
2, 19440, Note_on_c, 0, 64, 0
2, 19440, Note_on_c, 0, 60, 100
2, 19500, Note_on_c, 0, 60, 0
2, 19500, Note_on_c, 0, 64, 100
2, 19560, Note_on_c, 0, 64, 0
2, 19560, Note_on_c, 0, 57, 100
2, 19620, Note_on_c, 0, 57, 0
2, 19620, Note_on_c, 0, 60, 100
2, 19680, Note_on_c, 0, 60, 0
2, 19680, Note_on_c, 0, 63, 100
2, 19740, Note_on_c, 0, 63, 0
2, 19740, Note_on_c, 0, 60, 100
2, 19800, Note_on_c, 0, 60, 0
2, 19800, Note_on_c, 0, 57, 100
2, 19860, Note_on_c, 0, 57, 0
2, 19860, Note_on_c, 0, 60, 100
2, 19920, Note_on_c, 0, 60, 0
2, 19920, Note_on_c, 0, 54, 100
2, 19980, Note_on_c, 0, 54, 0
2, 19980, Note_on_c, 0, 60, 100
2, 20040, Note_on_c, 0, 60, 0
2, 20040, Note_on_c, 0, 59, 100
2, 20100, Note_on_c, 0, 59, 0
2, 20100, Note_on_c, 0, 57, 100
2, 20160, Note_on_c, 0, 57, 0
2, 20160, Note_on_c, 0, 56, 100
2, 20280, Note_on_c, 0, 56, 0
2, 20280, Note_on_c, 0, 71, 100
2, 20400, Note_on_c, 0, 71, 0
2, 20400, Note_on_c, 0, 68, 100
2, 20520, Note_on_c, 0, 68, 0
2, 20520, Note_on_c, 0, 64, 100
2, 20640, Note_on_c, 0, 64, 0
2, 20700, Note_on_c, 0, 64, 100
2, 20760, Note_on_c, 0, 64, 0
2, 20760, Note_on_c, 0, 69, 100
2, 20820, Note_on_c, 0, 69, 0
2, 20820, Note_on_c, 0, 72, 100
2, 20880, Note_on_c, 0, 72, 0
2, 20880, Note_on_c, 0, 71, 100
2, 20940, Note_on_c, 0, 71, 0
2, 20940, Note_on_c, 0, 64, 100
2, 21000, Note_on_c, 0, 64, 0
2, 21000, Note_on_c, 0, 71, 100
2, 21060, Note_on_c, 0, 71, 0
2, 21060, Note_on_c, 0, 74, 100
2, 21120, Note_on_c, 0, 74, 0
2, 21120, Note_on_c, 0, 72, 100
2, 21180, Note_on_c, 0, 72, 0
2, 21180, Note_on_c, 0, 69, 100
2, 21240, Note_on_c, 0, 69, 0
2, 21240, Note_on_c, 0, 72, 100
2, 21300, Note_on_c, 0, 72, 0
2, 21300, Note_on_c, 0, 76, 100
2, 21360, Note_on_c, 0, 76, 0
2, 21360, Note_on_c, 0, 74, 100
2, 21420, Note_on_c, 0, 74, 0
2, 21420, Note_on_c, 0, 71, 100
2, 21480, Note_on_c, 0, 71, 0
2, 21480, Note_on_c, 0, 74, 100
2, 21540, Note_on_c, 0, 74, 0
2, 21540, Note_on_c, 0, 77, 100
2, 21600, Note_on_c, 0, 77, 0
2, 21600, Note_on_c, 0, 76, 100
2, 21660, Note_on_c, 0, 76, 0
2, 21660, Note_on_c, 0, 72, 100
2, 21720, Note_on_c, 0, 72, 0
2, 21720, Note_on_c, 0, 76, 100
2, 21780, Note_on_c, 0, 76, 0
2, 21780, Note_on_c, 0, 79, 100
2, 21840, Note_on_c, 0, 79, 0
2, 21840, Note_on_c, 0, 77, 100
2, 21900, Note_on_c, 0, 77, 0
2, 21900, Note_on_c, 0, 76, 100
2, 21960, Note_on_c, 0, 76, 0
2, 21960, Note_on_c, 0, 74, 100
2, 22020, Note_on_c, 0, 74, 0
2, 22020, Note_on_c, 0, 72, 100
2, 22080, Note_on_c, 0, 72, 0
2, 22080, Note_on_c, 0, 71, 100
2, 22140, Note_on_c, 0, 71, 0
2, 22140, Note_on_c, 0, 72, 100
2, 22200, Note_on_c, 0, 72, 0
2, 22200, Note_on_c, 0, 74, 100
2, 22260, Note_on_c, 0, 74, 0
2, 22260, Note_on_c, 0, 76, 100
2, 22320, Note_on_c, 0, 76, 0
2, 22320, Note_on_c, 0, 77, 100
2, 22380, Note_on_c, 0, 77, 0
2, 22380, Note_on_c, 0, 74, 100
2, 22440, Note_on_c, 0, 74, 0
2, 22440, Note_on_c, 0, 80, 100
2, 22500, Note_on_c, 0, 80, 0
2, 22500, Note_on_c, 0, 74, 100
2, 22560, Note_on_c, 0, 74, 0
2, 22560, Note_on_c, 0, 83, 100
2, 22620, Note_on_c, 0, 83, 0
2, 22620, Note_on_c, 0, 74, 100
2, 22680, Note_on_c, 0, 74, 0
2, 22680, Note_on_c, 0, 72, 100
2, 22740, Note_on_c, 0, 72, 0
2, 22740, Note_on_c, 0, 81, 100
2, 22800, Note_on_c, 0, 81, 0
2, 22800, Note_on_c, 0, 77, 100
2, 22860, Note_on_c, 0, 77, 0
2, 22860, Note_on_c, 0, 74, 100
2, 22920, Note_on_c, 0, 74, 0
2, 22920, Note_on_c, 0, 71, 100
2, 22980, Note_on_c, 0, 71, 0
2, 22980, Note_on_c, 0, 74, 100
2, 23040, Note_on_c, 0, 74, 0
2, 23040, Note_on_c, 0, 68, 100
2, 23100, Note_on_c, 0, 68, 0
2, 23100, Note_on_c, 0, 71, 100
2, 23160, Note_on_c, 0, 71, 0
2, 23160, Note_on_c, 0, 72, 100
2, 23220, Note_on_c, 0, 72, 0
2, 23220, Note_on_c, 0, 69, 100
2, 23280, Note_on_c, 0, 69, 0
2, 23280, Note_on_c, 0, 64, 100
2, 23340, Note_on_c, 0, 64, 0
2, 23340, Note_on_c, 0, 69, 100
2, 23400, Note_on_c, 0, 69, 0
2, 23400, Note_on_c, 0, 71, 100
2, 23460, Note_on_c, 0, 71, 0
2, 23460, Note_on_c, 0, 68, 100
2, 23520, Note_on_c, 0, 68, 0
2, 23520, Note_on_c, 0, 69, 100
2, 23580, Note_on_c, 0, 69, 0
2, 23580, Note_on_c, 0, 64, 100
2, 23640, Note_on_c, 0, 64, 0
2, 23640, Note_on_c, 0, 60, 100
2, 23700, Note_on_c, 0, 60, 0
2, 23700, Note_on_c, 0, 64, 100
2, 23760, Note_on_c, 0, 64, 0
2, 23760, Note_on_c, 0, 57, 100
2, 24000, Note_on_c, 0, 57, 0
2, 24000, End_track
3, 0, Start_track
3, 0, MIDI_port, 0
3, 0, Title_t, "--------------------------------------"
3, 0, Program_c, 1, 6
3, 0, Control_c, 1, 7, 100
3, 0, Control_c, 1, 10, 32
3, 0, Note_on_c, 1, 45, 100
3, 120, Note_on_c, 1, 45, 0
3, 120, Note_on_c, 1, 57, 100
3, 360, Note_on_c, 1, 57, 0
3, 360, Note_on_c, 1, 56, 100
3, 480, Note_on_c, 1, 56, 0
3, 480, Note_on_c, 1, 57, 100
3, 540, Note_on_c, 1, 57, 0
3, 540, Note_on_c, 1, 52, 100
3, 600, Note_on_c, 1, 52, 0
3, 600, Note_on_c, 1, 57, 100
3, 660, Note_on_c, 1, 57, 0
3, 660, Note_on_c, 1, 60, 100
3, 720, Note_on_c, 1, 60, 0
3, 720, Note_on_c, 1, 59, 100
3, 780, Note_on_c, 1, 59, 0
3, 780, Note_on_c, 1, 52, 100
3, 840, Note_on_c, 1, 52, 0
3, 840, Note_on_c, 1, 59, 100
3, 900, Note_on_c, 1, 59, 0
3, 900, Note_on_c, 1, 62, 100
3, 960, Note_on_c, 1, 62, 0
3, 960, Note_on_c, 1, 60, 100
3, 1080, Note_on_c, 1, 60, 0
3, 1080, Note_on_c, 1, 57, 100
3, 1200, Note_on_c, 1, 57, 0
3, 1200, Note_on_c, 1, 56, 100
3, 1320, Note_on_c, 1, 56, 0
3, 1320, Note_on_c, 1, 52, 100
3, 1440, Note_on_c, 1, 52, 0
3, 1440, Note_on_c, 1, 57, 100
3, 1500, Note_on_c, 1, 57, 0
3, 1500, Note_on_c, 1, 52, 100
3, 1560, Note_on_c, 1, 52, 0
3, 1560, Note_on_c, 1, 57, 100
3, 1620, Note_on_c, 1, 57, 0
3, 1620, Note_on_c, 1, 60, 100
3, 1680, Note_on_c, 1, 60, 0
3, 1680, Note_on_c, 1, 59, 100
3, 1740, Note_on_c, 1, 59, 0
3, 1740, Note_on_c, 1, 52, 100
3, 1800, Note_on_c, 1, 52, 0
3, 1800, Note_on_c, 1, 59, 100
3, 1860, Note_on_c, 1, 59, 0
3, 1860, Note_on_c, 1, 62, 100
3, 1920, Note_on_c, 1, 62, 0
3, 1920, Note_on_c, 1, 60, 100
3, 2040, Note_on_c, 1, 60, 0
3, 2040, Note_on_c, 1, 57, 100
3, 2160, Note_on_c, 1, 57, 0
3, 2160, Note_on_c, 1, 60, 100
3, 2280, Note_on_c, 1, 60, 0
3, 2280, Note_on_c, 1, 57, 100
3, 2400, Note_on_c, 1, 57, 0
3, 2400, Note_on_c, 1, 62, 100
3, 2460, Note_on_c, 1, 62, 0
3, 2460, Note_on_c, 1, 57, 100
3, 2520, Note_on_c, 1, 57, 0
3, 2520, Note_on_c, 1, 53, 100
3, 2580, Note_on_c, 1, 53, 0
3, 2580, Note_on_c, 1, 57, 100
3, 2640, Note_on_c, 1, 57, 0
3, 2640, Note_on_c, 1, 50, 100
3, 2700, Note_on_c, 1, 50, 0
3, 2700, Note_on_c, 1, 53, 100
3, 2760, Note_on_c, 1, 53, 0
3, 2760, Note_on_c, 1, 45, 100
3, 2820, Note_on_c, 1, 45, 0
3, 2820, Note_on_c, 1, 48, 100
3, 2880, Note_on_c, 1, 48, 0
3, 2880, Note_on_c, 1, 47, 100
3, 3000, Note_on_c, 1, 47, 0
3, 3000, Note_on_c, 1, 50, 100
3, 3120, Note_on_c, 1, 50, 0
3, 3120, Note_on_c, 1, 55, 100
3, 3240, Note_on_c, 1, 55, 0
3, 3240, Note_on_c, 1, 59, 100
3, 3420, Note_on_c, 1, 59, 0
3, 3420, Note_on_c, 1, 55, 100
3, 3480, Note_on_c, 1, 55, 0
3, 3480, Note_on_c, 1, 52, 100
3, 3540, Note_on_c, 1, 52, 0
3, 3540, Note_on_c, 1, 55, 100
3, 3600, Note_on_c, 1, 55, 0
3, 3600, Note_on_c, 1, 48, 100
3, 3660, Note_on_c, 1, 48, 0
3, 3660, Note_on_c, 1, 52, 100
3, 3720, Note_on_c, 1, 52, 0
3, 3720, Note_on_c, 1, 43, 100
3, 3780, Note_on_c, 1, 43, 0
3, 3780, Note_on_c, 1, 47, 100
3, 3840, Note_on_c, 1, 47, 0
3, 3840, Note_on_c, 1, 45, 100
3, 3960, Note_on_c, 1, 45, 0
3, 3960, Note_on_c, 1, 48, 100
3, 4080, Note_on_c, 1, 48, 0
3, 4080, Note_on_c, 1, 50, 100
3, 4140, Note_on_c, 1, 50, 0
3, 4140, Note_on_c, 1, 53, 100
3, 4200, Note_on_c, 1, 53, 0
3, 4200, Note_on_c, 1, 47, 100
3, 4260, Note_on_c, 1, 47, 0
3, 4260, Note_on_c, 1, 50, 100
3, 4320, Note_on_c, 1, 50, 0
3, 4320, Note_on_c, 1, 43, 100
3, 4440, Note_on_c, 1, 43, 0
3, 4440, Note_on_c, 1, 47, 100
3, 4560, Note_on_c, 1, 47, 0
3, 4560, Note_on_c, 1, 48, 100
3, 4620, Note_on_c, 1, 48, 0
3, 4620, Note_on_c, 1, 52, 100
3, 4680, Note_on_c, 1, 52, 0
3, 4680, Note_on_c, 1, 45, 100
3, 4740, Note_on_c, 1, 45, 0
3, 4740, Note_on_c, 1, 48, 100
3, 4800, Note_on_c, 1, 48, 0
3, 4800, Note_on_c, 1, 41, 100
3, 4920, Note_on_c, 1, 41, 0
3, 4920, Note_on_c, 1, 38, 100
3, 5040, Note_on_c, 1, 38, 0
3, 5040, Note_on_c, 1, 43, 100
3, 5090, Note_on_c, 1, 43, 0
3, 5100, Note_on_c, 1, 55, 100
3, 5160, Note_on_c, 1, 55, 0
3, 5160, Note_on_c, 1, 53, 100
3, 5220, Note_on_c, 1, 53, 0
3, 5220, Note_on_c, 1, 55, 100
3, 5280, Note_on_c, 1, 55, 0
3, 5280, Note_on_c, 1, 48, 100
3, 5330, Note_on_c, 1, 48, 0
3, 5340, Note_on_c, 1, 55, 100
3, 5400, Note_on_c, 1, 55, 0
3, 5400, Note_on_c, 1, 60, 100
3, 5460, Note_on_c, 1, 60, 0
3, 5460, Note_on_c, 1, 64, 100
3, 5520, Note_on_c, 1, 64, 0
3, 5520, Note_on_c, 1, 62, 100
3, 5580, Note_on_c, 1, 62, 0
3, 5580, Note_on_c, 1, 55, 100
3, 5640, Note_on_c, 1, 55, 0
3, 5640, Note_on_c, 1, 62, 100
3, 5700, Note_on_c, 1, 62, 0
3, 5700, Note_on_c, 1, 65, 100
3, 5760, Note_on_c, 1, 65, 0
3, 5760, Note_on_c, 1, 64, 100
3, 5880, Note_on_c, 1, 64, 0
3, 5880, Note_on_c, 1, 60, 100
3, 6000, Note_on_c, 1, 60, 0
3, 6000, Note_on_c, 1, 59, 100
3, 6120, Note_on_c, 1, 59, 0
3, 6120, Note_on_c, 1, 55, 100
3, 6240, Note_on_c, 1, 55, 0
3, 6240, Note_on_c, 1, 60, 100
3, 6300, Note_on_c, 1, 60, 0
3, 6300, Note_on_c, 1, 55, 100
3, 6360, Note_on_c, 1, 55, 0
3, 6360, Note_on_c, 1, 60, 100
3, 6420, Note_on_c, 1, 60, 0
3, 6420, Note_on_c, 1, 64, 100
3, 6480, Note_on_c, 1, 64, 0
3, 6480, Note_on_c, 1, 62, 100
3, 6540, Note_on_c, 1, 62, 0
3, 6540, Note_on_c, 1, 55, 100
3, 6600, Note_on_c, 1, 55, 0
3, 6600, Note_on_c, 1, 62, 100
3, 6660, Note_on_c, 1, 62, 0
3, 6660, Note_on_c, 1, 65, 100
3, 6720, Note_on_c, 1, 65, 0
3, 6720, Note_on_c, 1, 64, 100
3, 6840, Note_on_c, 1, 64, 0
3, 6840, Note_on_c, 1, 60, 100
3, 6960, Note_on_c, 1, 60, 0
3, 7260, Note_on_c, 1, 67, 100
3, 7320, Note_on_c, 1, 67, 0
3, 7320, Note_on_c, 1, 64, 100
3, 7380, Note_on_c, 1, 64, 0
3, 7380, Note_on_c, 1, 67, 100
3, 7440, Note_on_c, 1, 67, 0
3, 7440, Note_on_c, 1, 60, 100
3, 7500, Note_on_c, 1, 60, 0
3, 7500, Note_on_c, 1, 64, 100
3, 7560, Note_on_c, 1, 64, 0
3, 7560, Note_on_c, 1, 55, 100
3, 7620, Note_on_c, 1, 55, 0
3, 7620, Note_on_c, 1, 59, 100
3, 7680, Note_on_c, 1, 59, 0
3, 7680, Note_on_c, 1, 57, 100
3, 7800, Note_on_c, 1, 57, 0
3, 7800, Note_on_c, 1, 60, 100
3, 7920, Note_on_c, 1, 60, 0
3, 7920, Note_on_c, 1, 64, 100
3, 8040, Note_on_c, 1, 64, 0
3, 8040, Note_on_c, 1, 67, 100
3, 8160, Note_on_c, 1, 67, 0
3, 8160, Note_on_c, 1, 66, 100
3, 8220, Note_on_c, 1, 66, 0
3, 8220, Note_on_c, 1, 69, 100
3, 8280, Note_on_c, 1, 69, 0
3, 8280, Note_on_c, 1, 62, 100
3, 8340, Note_on_c, 1, 62, 0
3, 8340, Note_on_c, 1, 66, 100
3, 8400, Note_on_c, 1, 66, 0
3, 8400, Note_on_c, 1, 57, 100
3, 8460, Note_on_c, 1, 57, 0
3, 8460, Note_on_c, 1, 62, 100
3, 8520, Note_on_c, 1, 62, 0
3, 8520, Note_on_c, 1, 54, 100
3, 8580, Note_on_c, 1, 54, 0
3, 8580, Note_on_c, 1, 57, 100
3, 8640, Note_on_c, 1, 57, 0
3, 8640, Note_on_c, 1, 55, 100
3, 8760, Note_on_c, 1, 55, 0
3, 8760, Note_on_c, 1, 59, 100
3, 8880, Note_on_c, 1, 59, 0
3, 8880, Note_on_c, 1, 62, 100
3, 9000, Note_on_c, 1, 62, 0
3, 9000, Note_on_c, 1, 66, 100
3, 9120, Note_on_c, 1, 66, 0
3, 9120, Note_on_c, 1, 64, 100
3, 9180, Note_on_c, 1, 64, 0
3, 9180, Note_on_c, 1, 67, 100
3, 9240, Note_on_c, 1, 67, 0
3, 9240, Note_on_c, 1, 60, 100
3, 9300, Note_on_c, 1, 60, 0
3, 9300, Note_on_c, 1, 64, 100
3, 9360, Note_on_c, 1, 64, 0
3, 9360, Note_on_c, 1, 55, 100
3, 9420, Note_on_c, 1, 55, 0
3, 9420, Note_on_c, 1, 60, 100
3, 9480, Note_on_c, 1, 60, 0
3, 9480, Note_on_c, 1, 52, 100
3, 9540, Note_on_c, 1, 52, 0
3, 9540, Note_on_c, 1, 55, 100
3, 9600, Note_on_c, 1, 55, 0
3, 9600, Note_on_c, 1, 54, 100
3, 9720, Note_on_c, 1, 54, 0
3, 9720, Note_on_c, 1, 57, 100
3, 9840, Note_on_c, 1, 57, 0
3, 9840, Note_on_c, 1, 59, 100
3, 9960, Note_on_c, 1, 59, 0
3, 9960, Note_on_c, 1, 63, 100
3, 10080, Note_on_c, 1, 63, 0
3, 10140, Note_on_c, 1, 64, 100
3, 10200, Note_on_c, 1, 64, 0
3, 10200, Note_on_c, 1, 60, 100
3, 10260, Note_on_c, 1, 60, 0
3, 10260, Note_on_c, 1, 64, 100
3, 10320, Note_on_c, 1, 64, 0
3, 10320, Note_on_c, 1, 57, 100
3, 10380, Note_on_c, 1, 57, 0
3, 10380, Note_on_c, 1, 60, 100
3, 10440, Note_on_c, 1, 60, 0
3, 10440, Note_on_c, 1, 64, 100
3, 10500, Note_on_c, 1, 64, 0
3, 10500, Note_on_c, 1, 67, 100
3, 10560, Note_on_c, 1, 67, 0
3, 10560, Note_on_c, 1, 66, 100
3, 10620, Note_on_c, 1, 66, 0
3, 10620, Note_on_c, 1, 62, 100
3, 10680, Note_on_c, 1, 62, 0
3, 10680, Note_on_c, 1, 59, 100
3, 10740, Note_on_c, 1, 59, 0
3, 10740, Note_on_c, 1, 62, 100
3, 10800, Note_on_c, 1, 62, 0
3, 10800, Note_on_c, 1, 55, 100
3, 10860, Note_on_c, 1, 55, 0
3, 10860, Note_on_c, 1, 59, 100
3, 10920, Note_on_c, 1, 59, 0
3, 10920, Note_on_c, 1, 62, 100
3, 10980, Note_on_c, 1, 62, 0
3, 10980, Note_on_c, 1, 66, 100
3, 11040, Note_on_c, 1, 66, 0
3, 11040, Note_on_c, 1, 64, 100
3, 11100, Note_on_c, 1, 64, 0
3, 11100, Note_on_c, 1, 60, 100
3, 11160, Note_on_c, 1, 60, 0
3, 11160, Note_on_c, 1, 57, 100
3, 11220, Note_on_c, 1, 57, 0
3, 11220, Note_on_c, 1, 60, 100
3, 11280, Note_on_c, 1, 60, 0
3, 11280, Note_on_c, 1, 54, 100
3, 11340, Note_on_c, 1, 54, 0
3, 11340, Note_on_c, 1, 57, 100
3, 11400, Note_on_c, 1, 57, 0
3, 11400, Note_on_c, 1, 60, 100
3, 11580, Note_on_c, 1, 60, 0
3, 11580, Note_on_c, 1, 59, 100
3, 11640, Note_on_c, 1, 59, 0
3, 11640, Note_on_c, 1, 60, 100
3, 11700, Note_on_c, 1, 60, 0
3, 11700, Note_on_c, 1, 57, 100
3, 11760, Note_on_c, 1, 57, 0
3, 11760, Note_on_c, 1, 59, 100
3, 11880, Note_on_c, 1, 59, 0
3, 11880, Note_on_c, 1, 47, 100
3, 12000, Note_on_c, 1, 47, 0
3, 12000, Note_on_c, 1, 52, 100
3, 12060, Note_on_c, 1, 52, 0
3, 12060, Note_on_c, 1, 64, 100
3, 12120, Note_on_c, 1, 64, 0
3, 12120, Note_on_c, 1, 59, 100
3, 12180, Note_on_c, 1, 59, 0
3, 12180, Note_on_c, 1, 55, 100
3, 12240, Note_on_c, 1, 55, 0
3, 12240, Note_on_c, 1, 52, 100
3, 12300, Note_on_c, 1, 52, 0
3, 12300, Note_on_c, 1, 47, 100
3, 12360, Note_on_c, 1, 47, 0
3, 12360, Note_on_c, 1, 43, 100
3, 12420, Note_on_c, 1, 43, 0
3, 12420, Note_on_c, 1, 47, 100
3, 12480, Note_on_c, 1, 47, 0
3, 12480, Note_on_c, 1, 40, 100
3, 12600, Note_on_c, 1, 40, 0
3, 12600, Note_on_c, 1, 52, 100
3, 12720, Note_on_c, 1, 52, 0
3, 12720, Note_on_c, 1, 55, 100
3, 12840, Note_on_c, 1, 55, 0
3, 12840, Note_on_c, 1, 58, 100
3, 12960, Note_on_c, 1, 58, 0
3, 12960, Note_on_c, 1, 49, 100
3, 13080, Note_on_c, 1, 49, 0
3, 13260, Note_on_c, 1, 67, 100
3, 13320, Note_on_c, 1, 67, 0
3, 13320, Note_on_c, 1, 65, 100
3, 13380, Note_on_c, 1, 65, 0
3, 13380, Note_on_c, 1, 64, 100
3, 13440, Note_on_c, 1, 64, 0
3, 13440, Note_on_c, 1, 62, 100
3, 13560, Note_on_c, 1, 62, 0
3, 13560, Note_on_c, 1, 50, 100
3, 13680, Note_on_c, 1, 50, 0
3, 13680, Note_on_c, 1, 53, 100
3, 13800, Note_on_c, 1, 53, 0
3, 13800, Note_on_c, 1, 56, 100
3, 13920, Note_on_c, 1, 56, 0
3, 13920, Note_on_c, 1, 47, 100
3, 14040, Note_on_c, 1, 47, 0
3, 14220, Note_on_c, 1, 65, 100
3, 14280, Note_on_c, 1, 65, 0
3, 14280, Note_on_c, 1, 64, 100
3, 14340, Note_on_c, 1, 64, 0
3, 14340, Note_on_c, 1, 62, 100
3, 14400, Note_on_c, 1, 62, 0
3, 14400, Note_on_c, 1, 60, 100
3, 14520, Note_on_c, 1, 60, 0
3, 14520, Note_on_c, 1, 48, 100
3, 14640, Note_on_c, 1, 48, 0
3, 14640, Note_on_c, 1, 52, 100
3, 14760, Note_on_c, 1, 52, 0
3, 14760, Note_on_c, 1, 54, 100
3, 14880, Note_on_c, 1, 54, 0
3, 14880, Note_on_c, 1, 45, 100
3, 15000, Note_on_c, 1, 45, 0
3, 15180, Note_on_c, 1, 64, 100
3, 15240, Note_on_c, 1, 64, 0
3, 15240, Note_on_c, 1, 63, 100
3, 15300, Note_on_c, 1, 63, 0
3, 15300, Note_on_c, 1, 61, 100
3, 15360, Note_on_c, 1, 61, 0
3, 15360, Note_on_c, 1, 59, 100
3, 15480, Note_on_c, 1, 59, 0
3, 15480, Note_on_c, 1, 47, 100
3, 15600, Note_on_c, 1, 47, 0
3, 15600, Note_on_c, 1, 50, 100
3, 15720, Note_on_c, 1, 50, 0
3, 15720, Note_on_c, 1, 53, 100
3, 15840, Note_on_c, 1, 53, 0
3, 15840, Note_on_c, 1, 44, 100
3, 15960, Note_on_c, 1, 44, 0
3, 16140, Note_on_c, 1, 62, 100
3, 16200, Note_on_c, 1, 62, 0
3, 16200, Note_on_c, 1, 60, 100
3, 16260, Note_on_c, 1, 60, 0
3, 16260, Note_on_c, 1, 59, 100
3, 16320, Note_on_c, 1, 59, 0
3, 16320, Note_on_c, 1, 60, 100
3, 16440, Note_on_c, 1, 60, 0
3, 16440, Note_on_c, 1, 57, 100
3, 16560, Note_on_c, 1, 57, 0
3, 16560, Note_on_c, 1, 56, 100
3, 16680, Note_on_c, 1, 56, 0
3, 16680, Note_on_c, 1, 52, 100
3, 16800, Note_on_c, 1, 52, 0
3, 16800, Note_on_c, 1, 57, 100
3, 16860, Note_on_c, 1, 57, 0
3, 16860, Note_on_c, 1, 52, 100
3, 16920, Note_on_c, 1, 52, 0
3, 16920, Note_on_c, 1, 57, 100
3, 16980, Note_on_c, 1, 57, 0
3, 16980, Note_on_c, 1, 60, 100
3, 17040, Note_on_c, 1, 60, 0
3, 17040, Note_on_c, 1, 59, 100
3, 17100, Note_on_c, 1, 59, 0
3, 17100, Note_on_c, 1, 52, 100
3, 17160, Note_on_c, 1, 52, 0
3, 17160, Note_on_c, 1, 59, 100
3, 17220, Note_on_c, 1, 59, 0
3, 17220, Note_on_c, 1, 62, 100
3, 17280, Note_on_c, 1, 62, 0
3, 17280, Note_on_c, 1, 60, 100
3, 17340, Note_on_c, 1, 60, 0
3, 17340, Note_on_c, 1, 64, 100
3, 17400, Note_on_c, 1, 64, 0
3, 17400, Note_on_c, 1, 69, 100
3, 17460, Note_on_c, 1, 69, 0
3, 17460, Note_on_c, 1, 64, 100
3, 17520, Note_on_c, 1, 64, 0
3, 17520, Note_on_c, 1, 60, 100
3, 17580, Note_on_c, 1, 60, 0
3, 17580, Note_on_c, 1, 64, 100
3, 17640, Note_on_c, 1, 64, 0
3, 17640, Note_on_c, 1, 57, 100
3, 17700, Note_on_c, 1, 57, 0
3, 17700, Note_on_c, 1, 60, 100
3, 17760, Note_on_c, 1, 60, 0
3, 17760, Note_on_c, 1, 54, 100
3, 17820, Note_on_c, 1, 54, 0
3, 17820, Note_on_c, 1, 57, 100
3, 17880, Note_on_c, 1, 57, 0
3, 17880, Note_on_c, 1, 60, 100
3, 17940, Note_on_c, 1, 60, 0
3, 17940, Note_on_c, 1, 57, 100
3, 18000, Note_on_c, 1, 57, 0
3, 18000, Note_on_c, 1, 54, 100
3, 18060, Note_on_c, 1, 54, 0
3, 18060, Note_on_c, 1, 57, 100
3, 18120, Note_on_c, 1, 57, 0
3, 18120, Note_on_c, 1, 51, 100
3, 18180, Note_on_c, 1, 51, 0
3, 18180, Note_on_c, 1, 54, 100
3, 18240, Note_on_c, 1, 54, 0
3, 18240, Note_on_c, 1, 52, 100
3, 18360, Note_on_c, 1, 52, 0
3, 18360, Note_on_c, 1, 56, 100
3, 18480, Note_on_c, 1, 56, 0
3, 18480, Note_on_c, 1, 59, 100
3, 18600, Note_on_c, 1, 59, 0
3, 18600, Note_on_c, 1, 56, 100
3, 18720, Note_on_c, 1, 56, 0
3, 18720, Note_on_c, 1, 52, 100
3, 18840, Note_on_c, 1, 52, 0
3, 18840, Note_on_c, 1, 47, 100
3, 18960, Note_on_c, 1, 47, 0
3, 18960, Note_on_c, 1, 44, 100
3, 19080, Note_on_c, 1, 44, 0
3, 19080, Note_on_c, 1, 40, 100
3, 19200, Note_on_c, 1, 40, 0
3, 19200, Note_on_c, 1, 45, 100
3, 19320, Note_on_c, 1, 45, 0
3, 19320, Note_on_c, 1, 48, 100
3, 19440, Note_on_c, 1, 48, 0
3, 19440, Note_on_c, 1, 52, 100
3, 19560, Note_on_c, 1, 52, 0
3, 19560, Note_on_c, 1, 48, 100
3, 19680, Note_on_c, 1, 48, 0
3, 19680, Note_on_c, 1, 45, 100
3, 19800, Note_on_c, 1, 45, 0
3, 19800, Note_on_c, 1, 48, 100
3, 19920, Note_on_c, 1, 48, 0
3, 19920, Note_on_c, 1, 39, 100
3, 20040, Note_on_c, 1, 39, 0
3, 20220, Note_on_c, 1, 59, 100
3, 20280, Note_on_c, 1, 59, 0
3, 20280, Note_on_c, 1, 56, 100
3, 20340, Note_on_c, 1, 56, 0
3, 20340, Note_on_c, 1, 52, 100
3, 20400, Note_on_c, 1, 52, 0
3, 20400, Note_on_c, 1, 50, 100
3, 20460, Note_on_c, 1, 50, 0
3, 20460, Note_on_c, 1, 59, 100
3, 20520, Note_on_c, 1, 59, 0
3, 20520, Note_on_c, 1, 56, 100
3, 20580, Note_on_c, 1, 56, 0
3, 20580, Note_on_c, 1, 50, 100
3, 20640, Note_on_c, 1, 50, 0
3, 20640, Note_on_c, 1, 48, 100
3, 20760, Note_on_c, 1, 48, 0
3, 20760, Note_on_c, 1, 52, 100
3, 20880, Note_on_c, 1, 52, 0
3, 20880, Note_on_c, 1, 44, 100
3, 21000, Note_on_c, 1, 44, 0
3, 21000, Note_on_c, 1, 52, 100
3, 21120, Note_on_c, 1, 52, 0
3, 21120, Note_on_c, 1, 45, 100
3, 21240, Note_on_c, 1, 45, 0
3, 21240, Note_on_c, 1, 54, 100
3, 21360, Note_on_c, 1, 54, 0
3, 21360, Note_on_c, 1, 47, 100
3, 21480, Note_on_c, 1, 47, 0
3, 21480, Note_on_c, 1, 56, 100
3, 21600, Note_on_c, 1, 56, 0
3, 21600, Note_on_c, 1, 48, 100
3, 21720, Note_on_c, 1, 48, 0
3, 21720, Note_on_c, 1, 57, 100
3, 21840, Note_on_c, 1, 57, 0
3, 21840, Note_on_c, 1, 50, 100
3, 21960, Note_on_c, 1, 50, 0
3, 21960, Note_on_c, 1, 58, 100
3, 22080, Note_on_c, 1, 58, 0
3, 22080, Note_on_c, 1, 56, 100
3, 22200, Note_on_c, 1, 56, 0
3, 22200, Note_on_c, 1, 53, 100
3, 22320, Note_on_c, 1, 53, 0
3, 22320, Note_on_c, 1, 50, 100
3, 22440, Note_on_c, 1, 50, 0
3, 22440, Note_on_c, 1, 47, 100
3, 22560, Note_on_c, 1, 47, 0
3, 22560, Note_on_c, 1, 44, 100
3, 22680, Note_on_c, 1, 44, 0
3, 22680, Note_on_c, 1, 45, 100
3, 22800, Note_on_c, 1, 45, 0
3, 22800, Note_on_c, 1, 38, 100
3, 22920, Note_on_c, 1, 38, 0
3, 22920, Note_on_c, 1, 40, 100
3, 23040, Note_on_c, 1, 40, 0
3, 23040, Note_on_c, 1, 41, 100
3, 23160, Note_on_c, 1, 41, 0
3, 23160, Note_on_c, 1, 39, 100
3, 23280, Note_on_c, 1, 39, 0
3, 23280, Note_on_c, 1, 40, 100
3, 23400, Note_on_c, 1, 40, 0
3, 23400, Note_on_c, 1, 52, 100
3, 23520, Note_on_c, 1, 52, 0
3, 23520, Note_on_c, 1, 45, 100
3, 24000, Note_on_c, 1, 45, 0
3, 24000, End_track
4, 0, Start_track
4, 0, MIDI_port, 0
4, 0, Title_t, "Johann Sebastian Bach  (1685-1750)"
4, 0, End_track
5, 0, Start_track
5, 0, MIDI_port, 0
5, 0, Title_t, "Inventions and Sinfonias ( 2 and 3-Part Inventions )"
5, 0, End_track
6, 0, Start_track
6, 0, MIDI_port, 0
6, 0, Title_t, "--------------------------------------"
6, 0, End_track
7, 0, Start_track
7, 0, MIDI_port, 0
7, 0, Title_t, "Invention No. 13 in A minor - BWV 784"
7, 0, End_track
8, 0, Start_track
8, 0, MIDI_port, 0
8, 0, Title_t, "--------------------------------------"
8, 0, End_track
9, 0, Start_track
9, 0, MIDI_port, 0
9, 0, Title_t, "Original sequence by an unknown author"
9, 0, End_track
10, 0, Start_track
10, 0, MIDI_port, 0
10, 0, Title_t, "Modified with Cakewalk Pro Audio by"
10, 0, End_track
11, 0, Start_track
11, 0, MIDI_port, 0
11, 0, Title_t, "David J. Grossman - dave@unpronounceable.com"
11, 0, End_track
12, 0, Start_track
12, 0, MIDI_port, 0
12, 0, Title_t, "This and other Bach MIDI files can be found at:"
12, 0, End_track
13, 0, Start_track
13, 0, MIDI_port, 0
13, 0, Title_t, "Dave's J.S. Bach Page"
13, 0, End_track
14, 0, Start_track
14, 0, MIDI_port, 0
14, 0, Title_t, "http://www.unpronounceable.com/bach"
14, 0, End_track
15, 0, Start_track
15, 0, MIDI_port, 0
15, 0, Title_t, "--------------------------------------"
15, 0, End_track
16, 0, Start_track
16, 0, MIDI_port, 0
16, 0, Title_t, "Original Filename: bwv784.mid"
16, 0, End_track
17, 0, Start_track
17, 0, MIDI_port, 0
17, 0, Title_t, "Last Modified: March 18, 1997"
17, 0, End_track
0, 0, End_of_file
