0, 0, Header, 1, 4, 240
1, 0, Start_track
1, 0, Time_signature, 4, 2, 48, 8
1, 0, Tempo, 394737
1, 129120, Tempo, 434783
1, 129600, Tempo, 476190
1, 130080, Tempo, 535714
1, 130080, End_track
2, 0, Start_track
2, 0, Title_t, "Fuga sopra: Magnificat"
2, 0, Program_c, 0, 0
2, 1080, Note_on_c, 0, 60, 127
2, 1176, Note_off_c, 0, 60, 64
2, 1200, Note_on_c, 0, 62, 127
2, 1296, Note_off_c, 0, 62, 64
2, 1320, Note_on_c, 0, 64, 127
2, 1416, Note_off_c, 0, 64, 64
2, 1440, Note_on_c, 0, 65, 127
2, 1536, Note_off_c, 0, 65, 64
2, 1560, Note_on_c, 0, 67, 127
2, 1656, Note_off_c, 0, 67, 64
2, 1680, Note_on_c, 0, 69, 127
2, 1776, Note_off_c, 0, 69, 64
2, 1800, Note_on_c, 0, 65, 127
2, 1896, Note_off_c, 0, 65, 64
2, 1920, Note_on_c, 0, 62, 127
2, 2112, Note_off_c, 0, 62, 64
2, 2160, Note_on_c, 0, 67, 127
2, 2352, Note_off_c, 0, 67, 64
2, 2400, Note_on_c, 0, 60, 127
2, 2592, Note_off_c, 0, 60, 64
2, 2640, Note_on_c, 0, 65, 127
2, 2832, Note_off_c, 0, 65, 64
2, 2880, Note_on_c, 0, 65, 127
2, 3072, Note_off_c, 0, 65, 64
2, 3120, Note_on_c, 0, 64, 127
2, 3216, Note_off_c, 0, 64, 64
2, 3240, Note_on_c, 0, 62, 127
2, 3336, Note_off_c, 0, 62, 64
2, 3360, Note_on_c, 0, 64, 127
2, 4224, Note_off_c, 0, 64, 64
2, 4320, Note_on_c, 0, 62, 127
2, 5184, Note_off_c, 0, 62, 64
2, 5280, Note_on_c, 0, 60, 127
2, 5952, Note_off_c, 0, 60, 64
2, 6000, Note_on_c, 0, 58, 127
2, 6096, Note_off_c, 0, 58, 64
2, 6120, Note_on_c, 0, 57, 127
2, 6216, Note_off_c, 0, 57, 64
2, 6240, Note_on_c, 0, 58, 127
2, 6432, Note_off_c, 0, 58, 64
2, 6480, Note_on_c, 0, 60, 127
2, 6576, Note_off_c, 0, 60, 64
2, 6600, Note_on_c, 0, 58, 127
2, 6696, Note_off_c, 0, 58, 64
2, 6720, Note_on_c, 0, 57, 127
2, 7104, Note_off_c, 0, 57, 64
2, 7200, Note_on_c, 0, 62, 127
2, 7872, Note_off_c, 0, 62, 64
2, 7920, Note_on_c, 0, 61, 127
2, 8016, Note_off_c, 0, 61, 64
2, 8040, Note_on_c, 0, 59, 127
2, 8136, Note_off_c, 0, 59, 64
2, 8160, Note_on_c, 0, 61, 127
2, 8352, Note_off_c, 0, 61, 64
2, 8400, Note_on_c, 0, 62, 127
2, 8496, Note_off_c, 0, 62, 64
2, 8520, Note_on_c, 0, 64, 127
2, 8616, Note_off_c, 0, 64, 64
2, 8640, Note_on_c, 0, 69, 127
2, 9024, Note_off_c, 0, 69, 64
2, 9120, Note_on_c, 0, 72, 127
2, 9504, Note_off_c, 0, 72, 64
2, 9600, Note_on_c, 0, 69, 127
2, 9984, Note_off_c, 0, 69, 64
2, 10080, Note_on_c, 0, 69, 127
2, 10464, Note_off_c, 0, 69, 64
2, 10560, Note_on_c, 0, 70, 127
2, 10944, Note_off_c, 0, 70, 64
2, 11040, Note_on_c, 0, 69, 127
2, 11424, Note_off_c, 0, 69, 64
2, 11520, Note_on_c, 0, 67, 127
2, 12288, Note_off_c, 0, 67, 64
2, 12480, Note_on_c, 0, 65, 127
2, 13248, Note_off_c, 0, 65, 64
2, 13440, Note_on_c, 0, 64, 127
2, 14016, Note_off_c, 0, 64, 64
2, 14160, Note_on_c, 0, 64, 127
2, 14352, Note_off_c, 0, 64, 64
2, 14400, Note_on_c, 0, 65, 127
2, 14496, Note_off_c, 0, 65, 64
2, 14520, Note_on_c, 0, 64, 127
2, 14616, Note_off_c, 0, 64, 64
2, 14640, Note_on_c, 0, 62, 127
2, 14736, Note_off_c, 0, 62, 64
2, 14760, Note_on_c, 0, 65, 127
2, 14856, Note_off_c, 0, 65, 64
2, 14880, Note_on_c, 0, 64, 127
2, 14976, Note_off_c, 0, 64, 64
2, 15000, Note_on_c, 0, 62, 127
2, 15096, Note_off_c, 0, 62, 64
2, 15120, Note_on_c, 0, 60, 127
2, 15216, Note_off_c, 0, 60, 64
2, 15240, Note_on_c, 0, 64, 127
2, 15336, Note_off_c, 0, 64, 64
2, 15360, Note_on_c, 0, 62, 127
2, 16128, Note_off_c, 0, 62, 64
2, 16320, Note_on_c, 0, 60, 127
2, 16704, Note_off_c, 0, 60, 64
2, 16800, Note_on_c, 0, 65, 127
2, 17664, Note_off_c, 0, 65, 64
2, 17760, Note_on_c, 0, 64, 127
2, 18624, Note_off_c, 0, 64, 64
2, 18720, Note_on_c, 0, 62, 127
2, 19584, Note_off_c, 0, 62, 64
2, 19680, Note_on_c, 0, 61, 127
2, 20064, Note_off_c, 0, 61, 64
2, 20160, Note_on_c, 0, 62, 127
2, 20352, Note_off_c, 0, 62, 64
2, 21120, Note_on_c, 0, 62, 127
2, 22176, Note_off_c, 0, 62, 64
2, 22200, Note_on_c, 0, 60, 127
2, 22296, Note_off_c, 0, 60, 64
2, 22320, Note_on_c, 0, 62, 127
2, 22416, Note_off_c, 0, 62, 64
2, 22440, Note_on_c, 0, 64, 127
2, 22536, Note_off_c, 0, 64, 64
2, 22560, Note_on_c, 0, 65, 127
2, 22656, Note_off_c, 0, 65, 64
2, 22680, Note_on_c, 0, 67, 127
2, 22776, Note_off_c, 0, 67, 64
2, 22800, Note_on_c, 0, 69, 127
2, 22896, Note_off_c, 0, 69, 64
2, 22920, Note_on_c, 0, 65, 127
2, 23016, Note_off_c, 0, 65, 64
2, 23040, Note_on_c, 0, 70, 127
2, 24000, Note_on_c, 0, 65, 127
2, 24096, Note_off_c, 0, 70, 64
2, 24120, Note_on_c, 0, 67, 127
2, 24216, Note_off_c, 0, 67, 64
2, 24240, Note_on_c, 0, 69, 127
2, 24336, Note_off_c, 0, 69, 64
2, 24360, Note_on_c, 0, 70, 127
2, 24456, Note_off_c, 0, 70, 64
2, 24480, Note_on_c, 0, 72, 127
2, 24576, Note_off_c, 0, 72, 64
2, 24576, Note_off_c, 0, 65, 64
2, 24600, Note_on_c, 0, 74, 127
2, 24696, Note_off_c, 0, 74, 64
2, 24720, Note_on_c, 0, 64, 127
2, 24720, Note_on_c, 0, 76, 127
2, 24816, Note_off_c, 0, 76, 64
2, 24840, Note_on_c, 0, 72, 127
2, 24912, Note_off_c, 0, 64, 64
2, 24936, Note_off_c, 0, 72, 64
2, 24960, Note_on_c, 0, 77, 127
2, 24960, Note_on_c, 0, 62, 127
2, 25056, Note_off_c, 0, 77, 64
2, 25080, Note_on_c, 0, 76, 127
2, 25176, Note_off_c, 0, 76, 64
2, 25200, Note_on_c, 0, 74, 127
2, 25296, Note_off_c, 0, 74, 64
2, 25320, Note_on_c, 0, 72, 127
2, 25416, Note_off_c, 0, 72, 64
2, 25440, Note_on_c, 0, 71, 127
2, 25536, Note_off_c, 0, 71, 64
2, 25560, Note_on_c, 0, 69, 127
2, 25656, Note_off_c, 0, 69, 64
2, 25680, Note_on_c, 0, 68, 127
2, 25776, Note_off_c, 0, 68, 64
2, 25800, Note_on_c, 0, 71, 127
2, 25896, Note_off_c, 0, 71, 64
2, 25920, Note_on_c, 0, 64, 127
2, 26016, Note_off_c, 0, 62, 64
2, 26040, Note_on_c, 0, 56, 127
2, 26112, Note_off_c, 0, 64, 64
2, 26136, Note_off_c, 0, 56, 64
2, 26160, Note_on_c, 0, 66, 127
2, 26160, Note_on_c, 0, 57, 127
2, 26256, Note_off_c, 0, 57, 64
2, 26256, Note_off_c, 0, 66, 64
2, 26280, Note_on_c, 0, 59, 127
2, 26280, Note_on_c, 0, 68, 127
2, 26376, Note_off_c, 0, 68, 64
2, 26376, Note_off_c, 0, 59, 64
2, 26400, Note_on_c, 0, 69, 127
2, 26400, Note_on_c, 0, 60, 127
2, 26496, Note_off_c, 0, 60, 64
2, 26520, Note_on_c, 0, 62, 127
2, 26616, Note_off_c, 0, 62, 64
2, 26640, Note_on_c, 0, 64, 127
2, 26736, Note_off_c, 0, 64, 64
2, 26760, Note_on_c, 0, 60, 127
2, 26856, Note_off_c, 0, 60, 64
2, 26880, Note_on_c, 0, 65, 127
2, 26976, Note_off_c, 0, 65, 64
2, 27000, Note_on_c, 0, 64, 127
2, 27072, Note_off_c, 0, 69, 64
2, 27096, Note_off_c, 0, 64, 64
2, 27120, Note_on_c, 0, 71, 127
2, 27120, Note_on_c, 0, 62, 127
2, 27216, Note_off_c, 0, 62, 64
2, 27216, Note_off_c, 0, 71, 64
2, 27240, Note_on_c, 0, 60, 127
2, 27240, Note_on_c, 0, 69, 127
2, 27336, Note_off_c, 0, 69, 64
2, 27336, Note_off_c, 0, 60, 64
2, 27360, Note_on_c, 0, 59, 127
2, 27360, Note_on_c, 0, 68, 127
2, 27456, Note_off_c, 0, 59, 64
2, 27480, Note_on_c, 0, 60, 127
2, 27552, Note_off_c, 0, 68, 64
2, 27576, Note_off_c, 0, 60, 64
2, 27600, Note_on_c, 0, 62, 127
2, 27600, Note_on_c, 0, 71, 127
2, 27696, Note_off_c, 0, 62, 64
2, 27720, Note_on_c, 0, 59, 127
2, 27792, Note_off_c, 0, 71, 64
2, 27816, Note_off_c, 0, 59, 64
2, 27840, Note_on_c, 0, 76, 127
2, 27840, Note_on_c, 0, 60, 127
2, 27936, Note_off_c, 0, 60, 64
2, 27960, Note_on_c, 0, 59, 127
2, 28056, Note_off_c, 0, 59, 64
2, 28080, Note_on_c, 0, 60, 127
2, 28176, Note_off_c, 0, 60, 64
2, 28200, Note_on_c, 0, 62, 127
2, 28224, Note_off_c, 0, 76, 64
2, 28296, Note_off_c, 0, 62, 64
2, 28320, Note_on_c, 0, 79, 127
2, 28320, Note_on_c, 0, 64, 127
2, 28416, Note_off_c, 0, 64, 64
2, 28440, Note_on_c, 0, 65, 127
2, 28536, Note_off_c, 0, 65, 64
2, 28560, Note_on_c, 0, 67, 127
2, 28656, Note_off_c, 0, 67, 64
2, 28680, Note_on_c, 0, 64, 127
2, 28704, Note_off_c, 0, 79, 64
2, 28776, Note_off_c, 0, 64, 64
2, 28800, Note_on_c, 0, 72, 127
2, 28800, Note_on_c, 0, 69, 127
2, 28800, Note_on_c, 0, 76, 127
2, 29184, Note_off_c, 0, 76, 64
2, 29280, Note_on_c, 0, 76, 127
2, 29376, Note_off_c, 0, 69, 64
2, 29376, Note_off_c, 0, 72, 64
2, 29520, Note_on_c, 0, 68, 127
2, 29520, Note_on_c, 0, 71, 127
2, 29664, Note_off_c, 0, 76, 64
2, 29712, Note_off_c, 0, 71, 64
2, 29712, Note_off_c, 0, 68, 64
2, 29760, Note_on_c, 0, 69, 127
2, 29760, Note_on_c, 0, 72, 127
2, 29760, Note_on_c, 0, 77, 127
2, 29856, Note_off_c, 0, 72, 64
2, 29880, Note_on_c, 0, 76, 127
2, 29952, Note_off_c, 0, 69, 64
2, 29976, Note_off_c, 0, 76, 64
2, 30000, Note_on_c, 0, 71, 127
2, 30000, Note_on_c, 0, 74, 127
2, 30096, Note_off_c, 0, 74, 64
2, 30120, Note_on_c, 0, 72, 127
2, 30144, Note_off_c, 0, 77, 64
2, 30216, Note_off_c, 0, 72, 64
2, 30240, Note_on_c, 0, 76, 127
2, 30240, Note_on_c, 0, 71, 127
2, 30336, Note_off_c, 0, 71, 64
2, 30360, Note_on_c, 0, 74, 127
2, 30384, Note_off_c, 0, 71, 64
2, 30456, Note_off_c, 0, 74, 64
2, 30480, Note_on_c, 0, 69, 127
2, 30480, Note_on_c, 0, 72, 127
2, 30576, Note_off_c, 0, 72, 64
2, 30576, Note_off_c, 0, 69, 64
2, 30600, Note_on_c, 0, 71, 127
2, 30600, Note_on_c, 0, 67, 127
2, 30624, Note_off_c, 0, 76, 64
2, 30696, Note_off_c, 0, 67, 64
2, 30696, Note_off_c, 0, 71, 64
2, 30720, Note_on_c, 0, 74, 127
2, 30720, Note_on_c, 0, 65, 127
2, 30720, Note_on_c, 0, 69, 127
2, 30816, Note_off_c, 0, 65, 64
2, 30840, Note_on_c, 0, 64, 127
2, 30912, Note_off_c, 0, 69, 64
2, 30936, Note_off_c, 0, 64, 64
2, 30960, Note_on_c, 0, 68, 127
2, 30960, Note_on_c, 0, 62, 127
2, 31056, Note_off_c, 0, 62, 64
2, 31056, Note_off_c, 0, 68, 64
2, 31080, Note_on_c, 0, 66, 127
2, 31080, Note_on_c, 0, 60, 127
2, 31176, Note_off_c, 0, 60, 64
2, 31176, Note_off_c, 0, 66, 64
2, 31200, Note_on_c, 0, 62, 127
2, 31200, Note_on_c, 0, 68, 127
2, 31296, Note_off_c, 0, 68, 64
2, 31320, Note_on_c, 0, 69, 127
2, 31392, Note_off_c, 0, 62, 64
2, 31416, Note_off_c, 0, 69, 64
2, 31440, Note_on_c, 0, 56, 127
2, 31440, Note_on_c, 0, 71, 127
2, 31488, Note_off_c, 0, 74, 64
2, 31632, Note_off_c, 0, 56, 64
2, 31680, Note_on_c, 0, 72, 127
2, 31680, Note_on_c, 0, 57, 127
2, 31776, Note_off_c, 0, 57, 64
2, 31800, Note_on_c, 0, 59, 127
2, 31872, Note_off_c, 0, 71, 64
2, 31896, Note_off_c, 0, 59, 64
2, 31920, Note_on_c, 0, 60, 127
2, 31920, Note_on_c, 0, 69, 127
2, 32016, Note_off_c, 0, 69, 64
2, 32016, Note_off_c, 0, 60, 64
2, 32040, Note_on_c, 0, 68, 127
2, 32040, Note_on_c, 0, 62, 127
2, 32136, Note_off_c, 0, 62, 64
2, 32136, Note_off_c, 0, 68, 64
2, 32160, Note_on_c, 0, 64, 127
2, 32160, Note_on_c, 0, 69, 127
2, 32256, Note_off_c, 0, 64, 64
2, 32280, Note_on_c, 0, 65, 127
2, 32376, Note_off_c, 0, 65, 64
2, 32400, Note_on_c, 0, 67, 127
2, 32496, Note_off_c, 0, 67, 64
2, 32520, Note_on_c, 0, 64, 127
2, 32616, Note_off_c, 0, 64, 64
2, 32640, Note_on_c, 0, 65, 127
2, 33024, Note_off_c, 0, 72, 64
2, 33024, Note_off_c, 0, 69, 64
2, 33120, Note_on_c, 0, 70, 127
2, 33120, Note_on_c, 0, 67, 127
2, 33504, Note_off_c, 0, 65, 64
2, 33600, Note_on_c, 0, 64, 127
2, 33984, Note_off_c, 0, 70, 64
2, 33984, Note_off_c, 0, 67, 64
2, 34080, Note_on_c, 0, 69, 127
2, 34080, Note_on_c, 0, 65, 127
2, 34368, Note_off_c, 0, 64, 64
2, 34464, Note_off_c, 0, 69, 64
2, 34560, Note_on_c, 0, 62, 127
2, 34560, Note_on_c, 0, 74, 127
2, 34656, Note_off_c, 0, 65, 64
2, 34680, Note_on_c, 0, 72, 127
2, 34776, Note_off_c, 0, 72, 64
2, 34800, Note_on_c, 0, 70, 127
2, 34896, Note_off_c, 0, 70, 64
2, 34920, Note_on_c, 0, 69, 127
2, 34944, Note_off_c, 0, 74, 64
2, 35016, Note_off_c, 0, 69, 64
2, 35040, Note_on_c, 0, 67, 127
2, 35040, Note_on_c, 0, 76, 127
2, 35136, Note_off_c, 0, 67, 64
2, 35160, Note_on_c, 0, 65, 127
2, 35256, Note_off_c, 0, 65, 64
2, 35280, Note_on_c, 0, 64, 127
2, 35376, Note_off_c, 0, 64, 64
2, 35400, Note_on_c, 0, 67, 127
2, 35424, Note_off_c, 0, 76, 64
2, 35496, Note_off_c, 0, 67, 64
2, 35520, Note_on_c, 0, 77, 127
2, 35520, Note_on_c, 0, 69, 127
2, 35616, Note_off_c, 0, 62, 64
2, 35640, Note_on_c, 0, 61, 127
2, 35736, Note_off_c, 0, 61, 64
2, 35760, Note_on_c, 0, 62, 127
2, 35856, Note_off_c, 0, 62, 64
2, 35880, Note_on_c, 0, 64, 127
2, 35904, Note_off_c, 0, 69, 64
2, 35976, Note_off_c, 0, 64, 64
2, 36000, Note_on_c, 0, 74, 127
2, 36000, Note_on_c, 0, 65, 127
2, 36096, Note_off_c, 0, 65, 64
2, 36120, Note_on_c, 0, 67, 127
2, 36216, Note_off_c, 0, 67, 64
2, 36240, Note_on_c, 0, 69, 127
2, 36288, Note_off_c, 0, 77, 64
2, 36336, Note_off_c, 0, 69, 64
2, 36360, Note_on_c, 0, 65, 127
2, 36456, Note_off_c, 0, 65, 64
2, 36480, Note_on_c, 0, 70, 127
2, 36480, Note_on_c, 0, 76, 127
2, 36576, Note_off_c, 0, 70, 64
2, 36600, Note_on_c, 0, 69, 127
2, 36696, Note_off_c, 0, 69, 64
2, 36720, Note_on_c, 0, 67, 127
2, 36816, Note_off_c, 0, 67, 64
2, 36840, Note_on_c, 0, 65, 127
2, 36864, Note_off_c, 0, 74, 64
2, 36936, Note_off_c, 0, 65, 64
2, 36960, Note_on_c, 0, 64, 127
2, 36960, Note_on_c, 0, 72, 127
2, 37056, Note_off_c, 0, 64, 64
2, 37080, Note_on_c, 0, 62, 127
2, 37176, Note_off_c, 0, 62, 64
2, 37200, Note_on_c, 0, 60, 127
2, 37248, Note_off_c, 0, 76, 64
2, 37296, Note_off_c, 0, 60, 64
2, 37320, Note_on_c, 0, 64, 127
2, 37416, Note_off_c, 0, 64, 64
2, 37440, Note_on_c, 0, 74, 127
2, 37536, Note_off_c, 0, 74, 64
2, 37560, Note_on_c, 0, 84, 127
2, 37656, Note_off_c, 0, 84, 64
2, 37680, Note_on_c, 0, 82, 127
2, 37776, Note_off_c, 0, 82, 64
2, 37800, Note_on_c, 0, 81, 127
2, 37824, Note_off_c, 0, 72, 64
2, 37896, Note_off_c, 0, 81, 64
2, 37920, Note_on_c, 0, 79, 127
2, 37920, Note_on_c, 0, 70, 127
2, 38016, Note_off_c, 0, 79, 64
2, 38040, Note_on_c, 0, 77, 127
2, 38136, Note_off_c, 0, 77, 64
2, 38160, Note_on_c, 0, 76, 127
2, 38256, Note_off_c, 0, 76, 64
2, 38280, Note_on_c, 0, 79, 127
2, 38304, Note_off_c, 0, 70, 64
2, 38376, Note_off_c, 0, 79, 64
2, 38400, Note_on_c, 0, 69, 127
2, 38400, Note_on_c, 0, 73, 127
2, 38400, Note_on_c, 0, 64, 127
2, 38784, Note_off_c, 0, 64, 64
2, 38784, Note_off_c, 0, 73, 64
2, 38784, Note_off_c, 0, 69, 64
2, 38880, Note_on_c, 0, 65, 127
2, 38880, Note_on_c, 0, 69, 127
2, 38880, Note_on_c, 0, 74, 127
2, 39264, Note_off_c, 0, 69, 64
2, 39264, Note_off_c, 0, 65, 64
2, 39360, Note_on_c, 0, 64, 127
2, 39360, Note_on_c, 0, 69, 127
2, 39744, Note_off_c, 0, 74, 64
2, 39840, Note_on_c, 0, 73, 127
2, 40128, Note_off_c, 0, 69, 64
2, 40128, Note_off_c, 0, 64, 64
2, 40224, Note_off_c, 0, 73, 64
2, 40320, Note_on_c, 0, 74, 127
2, 40320, Note_on_c, 0, 62, 127
2, 40320, Note_on_c, 0, 69, 127
2, 40704, Note_off_c, 0, 69, 64
2, 40704, Note_off_c, 0, 74, 64
2, 40896, Note_off_c, 0, 62, 64
2, 41040, Note_on_c, 0, 60, 127
2, 41376, Note_off_c, 0, 60, 64
2, 41400, Note_on_c, 0, 63, 127
2, 41496, Note_off_c, 0, 63, 64
2, 41520, Note_on_c, 0, 62, 127
2, 41616, Note_off_c, 0, 62, 64
2, 41640, Note_on_c, 0, 60, 127
2, 41736, Note_off_c, 0, 60, 64
2, 41760, Note_on_c, 0, 58, 127
2, 41856, Note_off_c, 0, 58, 64
2, 41880, Note_on_c, 0, 57, 127
2, 41976, Note_off_c, 0, 57, 64
2, 42000, Note_on_c, 0, 55, 127
2, 42096, Note_off_c, 0, 55, 64
2, 42120, Note_on_c, 0, 58, 127
2, 42216, Note_off_c, 0, 58, 64
2, 42360, Note_on_c, 0, 70, 127
2, 42456, Note_off_c, 0, 70, 64
2, 42480, Note_on_c, 0, 69, 127
2, 42576, Note_off_c, 0, 69, 64
2, 42600, Note_on_c, 0, 67, 127
2, 42696, Note_off_c, 0, 67, 64
2, 42720, Note_on_c, 0, 65, 127
2, 42816, Note_off_c, 0, 65, 64
2, 42840, Note_on_c, 0, 64, 127
2, 42936, Note_off_c, 0, 64, 64
2, 42960, Note_on_c, 0, 62, 127
2, 43056, Note_off_c, 0, 62, 64
2, 43080, Note_on_c, 0, 65, 127
2, 43176, Note_off_c, 0, 65, 64
2, 43200, Note_on_c, 0, 59, 127
2, 43392, Note_off_c, 0, 59, 64
2, 43440, Note_on_c, 0, 67, 127
2, 43632, Note_off_c, 0, 67, 64
2, 43680, Note_on_c, 0, 61, 127
2, 43872, Note_off_c, 0, 61, 64
2, 43920, Note_on_c, 0, 67, 127
2, 44112, Note_off_c, 0, 67, 64
2, 44160, Note_on_c, 0, 66, 127
2, 44256, Note_off_c, 0, 66, 64
2, 44280, Note_on_c, 0, 62, 127
2, 44376, Note_off_c, 0, 62, 64
2, 44400, Note_on_c, 0, 64, 127
2, 44496, Note_off_c, 0, 64, 64
2, 44520, Note_on_c, 0, 66, 127
2, 44616, Note_off_c, 0, 66, 64
2, 44640, Note_on_c, 0, 67, 127
2, 45504, Note_off_c, 0, 67, 64
2, 45600, Note_on_c, 0, 66, 127
2, 45984, Note_off_c, 0, 66, 64
2, 46080, Note_on_c, 0, 67, 127
2, 46656, Note_off_c, 0, 67, 64
2, 46800, Note_on_c, 0, 65, 127
2, 47232, Note_off_c, 0, 65, 64
2, 47280, Note_on_c, 0, 64, 127
2, 47472, Note_off_c, 0, 64, 64
2, 47520, Note_on_c, 0, 62, 127
2, 47712, Note_off_c, 0, 62, 64
2, 47760, Note_on_c, 0, 67, 127
2, 47952, Note_off_c, 0, 67, 64
2, 48000, Note_on_c, 0, 64, 127
2, 48384, Note_off_c, 0, 64, 64
2, 48480, Note_on_c, 0, 69, 127
2, 49344, Note_off_c, 0, 69, 64
2, 49440, Note_on_c, 0, 68, 127
2, 49632, Note_off_c, 0, 68, 64
2, 49680, Note_on_c, 0, 71, 127
2, 50016, Note_off_c, 0, 71, 64
2, 50040, Note_on_c, 0, 64, 127
2, 50136, Note_off_c, 0, 64, 64
2, 50160, Note_on_c, 0, 66, 127
2, 50256, Note_off_c, 0, 66, 64
2, 50280, Note_on_c, 0, 68, 127
2, 50376, Note_off_c, 0, 68, 64
2, 50400, Note_on_c, 0, 69, 127
2, 50496, Note_off_c, 0, 69, 64
2, 50520, Note_on_c, 0, 71, 127
2, 50616, Note_off_c, 0, 71, 64
2, 50640, Note_on_c, 0, 72, 127
2, 50736, Note_off_c, 0, 72, 64
2, 50760, Note_on_c, 0, 69, 127
2, 50856, Note_off_c, 0, 69, 64
2, 50880, Note_on_c, 0, 74, 127
2, 51120, Note_on_c, 0, 69, 127
2, 51312, Note_off_c, 0, 69, 64
2, 51360, Note_on_c, 0, 68, 127
2, 51552, Note_off_c, 0, 68, 64
2, 51600, Note_on_c, 0, 71, 127
2, 51648, Note_off_c, 0, 74, 64
2, 51792, Note_off_c, 0, 71, 64
2, 51840, Note_on_c, 0, 72, 127
2, 51840, Note_on_c, 0, 64, 127
2, 52224, Note_off_c, 0, 64, 64
2, 52224, Note_off_c, 0, 72, 64
2, 52320, Note_on_c, 0, 71, 127
2, 52320, Note_on_c, 0, 67, 127
2, 52704, Note_off_c, 0, 67, 64
2, 52704, Note_off_c, 0, 71, 64
2, 52800, Note_on_c, 0, 72, 127
2, 52800, Note_on_c, 0, 64, 127
2, 53184, Note_off_c, 0, 64, 64
2, 53184, Note_off_c, 0, 72, 64
2, 53280, Note_on_c, 0, 67, 127
2, 53280, Note_on_c, 0, 64, 127
2, 53664, Note_off_c, 0, 64, 64
2, 53664, Note_off_c, 0, 67, 64
2, 53760, Note_on_c, 0, 65, 127
2, 53760, Note_on_c, 0, 69, 127
2, 54144, Note_off_c, 0, 65, 64
2, 54240, Note_on_c, 0, 64, 127
2, 54336, Note_off_c, 0, 69, 64
2, 54480, Note_on_c, 0, 67, 127
2, 54624, Note_off_c, 0, 64, 64
2, 54672, Note_off_c, 0, 67, 64
2, 54720, Note_on_c, 0, 62, 127
2, 54720, Note_on_c, 0, 65, 127
2, 54816, Note_off_c, 0, 65, 64
2, 54840, Note_on_c, 0, 70, 127
2, 54936, Note_off_c, 0, 70, 64
2, 54960, Note_on_c, 0, 69, 127
2, 55056, Note_off_c, 0, 69, 64
2, 55080, Note_on_c, 0, 67, 127
2, 55176, Note_off_c, 0, 67, 64
2, 55200, Note_on_c, 0, 65, 127
2, 55296, Note_off_c, 0, 65, 64
2, 55320, Note_on_c, 0, 64, 127
2, 55416, Note_off_c, 0, 64, 64
2, 55440, Note_on_c, 0, 62, 127
2, 55488, Note_off_c, 0, 62, 64
2, 55536, Note_off_c, 0, 62, 64
2, 55560, Note_on_c, 0, 65, 127
2, 55656, Note_off_c, 0, 65, 64
2, 55680, Note_on_c, 0, 60, 127
2, 55680, Note_on_c, 0, 64, 127
2, 55776, Note_off_c, 0, 64, 64
2, 55800, Note_on_c, 0, 69, 127
2, 55896, Note_off_c, 0, 69, 64
2, 55920, Note_on_c, 0, 67, 127
2, 56016, Note_off_c, 0, 67, 64
2, 56040, Note_on_c, 0, 65, 127
2, 56136, Note_off_c, 0, 65, 64
2, 56160, Note_on_c, 0, 64, 127
2, 56256, Note_off_c, 0, 64, 64
2, 56280, Note_on_c, 0, 65, 127
2, 56376, Note_off_c, 0, 65, 64
2, 56400, Note_on_c, 0, 67, 127
2, 56496, Note_off_c, 0, 67, 64
2, 56520, Note_on_c, 0, 64, 127
2, 56616, Note_off_c, 0, 64, 64
2, 56640, Note_on_c, 0, 65, 127
2, 56736, Note_off_c, 0, 65, 64
2, 56760, Note_on_c, 0, 67, 127
2, 56832, Note_off_c, 0, 60, 64
2, 56856, Note_off_c, 0, 67, 64
2, 56880, Note_on_c, 0, 69, 127
2, 56976, Note_off_c, 0, 69, 64
2, 57000, Note_on_c, 0, 70, 127
2, 57096, Note_off_c, 0, 70, 64
2, 57120, Note_on_c, 0, 72, 127
2, 57216, Note_off_c, 0, 72, 64
2, 57240, Note_on_c, 0, 74, 127
2, 57336, Note_off_c, 0, 74, 64
2, 57360, Note_on_c, 0, 75, 127
2, 57456, Note_off_c, 0, 75, 64
2, 57480, Note_on_c, 0, 72, 127
2, 57576, Note_off_c, 0, 72, 64
2, 57600, Note_on_c, 0, 74, 127
2, 57840, Note_on_c, 0, 70, 127
2, 57984, Note_off_c, 0, 74, 64
2, 58080, Note_on_c, 0, 72, 127
2, 58224, Note_off_c, 0, 70, 64
2, 58320, Note_on_c, 0, 69, 127
2, 58464, Note_off_c, 0, 72, 64
2, 58560, Note_on_c, 0, 70, 127
2, 58656, Note_off_c, 0, 69, 64
2, 58680, Note_on_c, 0, 67, 127
2, 58776, Note_off_c, 0, 67, 64
2, 58800, Note_on_c, 0, 65, 127
2, 58896, Note_off_c, 0, 65, 64
2, 58920, Note_on_c, 0, 64, 127
2, 59016, Note_off_c, 0, 64, 64
2, 59040, Note_on_c, 0, 62, 127
2, 59136, Note_off_c, 0, 62, 64
2, 59160, Note_on_c, 0, 60, 127
2, 59256, Note_off_c, 0, 60, 64
2, 59280, Note_on_c, 0, 58, 127
2, 59376, Note_off_c, 0, 58, 64
2, 59400, Note_on_c, 0, 62, 127
2, 59496, Note_off_c, 0, 62, 64
2, 59520, Note_on_c, 0, 55, 127
2, 59616, Note_off_c, 0, 70, 64
2, 59640, Note_on_c, 0, 74, 127
2, 59736, Note_off_c, 0, 74, 64
2, 59760, Note_on_c, 0, 72, 127
2, 59856, Note_off_c, 0, 72, 64
2, 59880, Note_on_c, 0, 70, 127
2, 59904, Note_off_c, 0, 55, 64
2, 59976, Note_off_c, 0, 70, 64
2, 60000, Note_on_c, 0, 69, 127
2, 60096, Note_off_c, 0, 69, 64
2, 60120, Note_on_c, 0, 67, 127
2, 60216, Note_off_c, 0, 67, 64
2, 60240, Note_on_c, 0, 65, 127
2, 60336, Note_off_c, 0, 65, 64
2, 60360, Note_on_c, 0, 69, 127
2, 60456, Note_off_c, 0, 69, 64
2, 60480, Note_on_c, 0, 62, 127
2, 60576, Note_off_c, 0, 62, 64
2, 60600, Note_on_c, 0, 64, 127
2, 60696, Note_off_c, 0, 64, 64
2, 60720, Note_on_c, 0, 65, 127
2, 61104, Note_off_c, 0, 65, 64
2, 61200, Note_on_c, 0, 64, 127
2, 61392, Note_off_c, 0, 64, 64
2, 61440, Note_on_c, 0, 65, 127
2, 62016, Note_off_c, 0, 65, 64
2, 62160, Note_on_c, 0, 64, 127
2, 62496, Note_off_c, 0, 64, 64
2, 62520, Note_on_c, 0, 69, 127
2, 62616, Note_off_c, 0, 69, 64
2, 62640, Note_on_c, 0, 71, 127
2, 62736, Note_off_c, 0, 71, 64
2, 62760, Note_on_c, 0, 73, 127
2, 62856, Note_off_c, 0, 73, 64
2, 62880, Note_on_c, 0, 74, 127
2, 62976, Note_off_c, 0, 74, 64
2, 63000, Note_on_c, 0, 76, 127
2, 63096, Note_off_c, 0, 76, 64
2, 63120, Note_on_c, 0, 77, 127
2, 63216, Note_off_c, 0, 77, 64
2, 63240, Note_on_c, 0, 74, 127
2, 63336, Note_off_c, 0, 74, 64
2, 63360, Note_on_c, 0, 79, 127
2, 64440, Note_on_c, 0, 64, 127
2, 64536, Note_off_c, 0, 64, 64
2, 64560, Note_on_c, 0, 65, 127
2, 64656, Note_off_c, 0, 65, 64
2, 64680, Note_on_c, 0, 67, 127
2, 64704, Note_off_c, 0, 79, 64
2, 64776, Note_off_c, 0, 67, 64
2, 64800, Note_on_c, 0, 69, 127
2, 64800, Note_on_c, 0, 77, 127
2, 64896, Note_off_c, 0, 69, 64
2, 64920, Note_on_c, 0, 70, 127
2, 65016, Note_off_c, 0, 70, 64
2, 65040, Note_on_c, 0, 72, 127
2, 65136, Note_off_c, 0, 72, 64
2, 65160, Note_on_c, 0, 69, 127
2, 65256, Note_off_c, 0, 69, 64
2, 65280, Note_on_c, 0, 70, 127
2, 65664, Note_off_c, 0, 77, 64
2, 65760, Note_on_c, 0, 76, 127
2, 66048, Note_off_c, 0, 70, 64
2, 66240, Note_on_c, 0, 69, 127
2, 66624, Note_off_c, 0, 76, 64
2, 66720, Note_on_c, 0, 74, 127
2, 67008, Note_off_c, 0, 69, 64
2, 67200, Note_on_c, 0, 67, 127
2, 67584, Note_off_c, 0, 74, 64
2, 67680, Note_on_c, 0, 73, 127
2, 67968, Note_off_c, 0, 67, 64
2, 68064, Note_off_c, 0, 73, 64
2, 68160, Note_on_c, 0, 74, 127
2, 68352, Note_off_c, 0, 74, 64
2, 68352, Note_off_c, 0, 65, 64
2, 68400, Note_on_c, 0, 66, 127
2, 68400, Note_on_c, 0, 72, 127
2, 68592, Note_off_c, 0, 72, 64
2, 68592, Note_off_c, 0, 66, 64
2, 68640, Note_on_c, 0, 67, 127
2, 68640, Note_on_c, 0, 70, 127
2, 68736, Note_off_c, 0, 67, 64
2, 68760, Note_on_c, 0, 65, 127
2, 68856, Note_off_c, 0, 65, 64
2, 68880, Note_on_c, 0, 64, 127
2, 68976, Note_off_c, 0, 64, 64
2, 69000, Note_on_c, 0, 62, 127
2, 69024, Note_off_c, 0, 70, 64
2, 69096, Note_off_c, 0, 62, 64
2, 69120, Note_on_c, 0, 61, 127
2, 69120, Note_on_c, 0, 69, 127
2, 69216, Note_off_c, 0, 61, 64
2, 69240, Note_on_c, 0, 62, 127
2, 69336, Note_off_c, 0, 62, 64
2, 69360, Note_on_c, 0, 64, 127
2, 69456, Note_off_c, 0, 64, 64
2, 69480, Note_on_c, 0, 61, 127
2, 69504, Note_off_c, 0, 69, 64
2, 69576, Note_off_c, 0, 61, 64
2, 69600, Note_on_c, 0, 57, 127
2, 69600, Note_on_c, 0, 74, 127
2, 69792, Note_off_c, 0, 57, 64
2, 69840, Note_on_c, 0, 65, 127
2, 70032, Note_off_c, 0, 65, 64
2, 70080, Note_on_c, 0, 67, 127
2, 70464, Note_off_c, 0, 74, 64
2, 70560, Note_on_c, 0, 73, 127
2, 70656, Note_off_c, 0, 67, 64
2, 70680, Note_on_c, 0, 70, 127
2, 70776, Note_off_c, 0, 70, 64
2, 70800, Note_on_c, 0, 69, 127
2, 70896, Note_off_c, 0, 69, 64
2, 70920, Note_on_c, 0, 67, 127
2, 70944, Note_off_c, 0, 73, 64
2, 71016, Note_off_c, 0, 67, 64
2, 71040, Note_on_c, 0, 69, 127
2, 71040, Note_on_c, 0, 74, 127
2, 71424, Note_off_c, 0, 74, 64
2, 71424, Note_off_c, 0, 69, 64
2, 71520, Note_on_c, 0, 72, 127
2, 71520, Note_on_c, 0, 76, 127
2, 71904, Note_off_c, 0, 76, 64
2, 71904, Note_off_c, 0, 72, 64
2, 72000, Note_on_c, 0, 69, 127
2, 72000, Note_on_c, 0, 77, 127
2, 72192, Note_off_c, 0, 77, 64
2, 72240, Note_on_c, 0, 74, 127
2, 72384, Note_off_c, 0, 69, 64
2, 72432, Note_off_c, 0, 74, 64
2, 72480, Note_on_c, 0, 69, 127
2, 72480, Note_on_c, 0, 72, 127
2, 72672, Note_off_c, 0, 72, 64
2, 72720, Note_on_c, 0, 81, 127
2, 72864, Note_off_c, 0, 69, 64
2, 72960, Note_on_c, 0, 70, 127
2, 73152, Note_off_c, 0, 81, 64
2, 73200, Note_on_c, 0, 79, 127
2, 73344, Note_off_c, 0, 70, 64
2, 73440, Note_on_c, 0, 69, 127
2, 73584, Note_off_c, 0, 79, 64
2, 73680, Note_on_c, 0, 78, 127
2, 73824, Note_off_c, 0, 69, 64
2, 73872, Note_off_c, 0, 78, 64
2, 73920, Note_on_c, 0, 79, 127
2, 73920, Note_on_c, 0, 67, 127
2, 74016, Note_off_c, 0, 79, 64
2, 74040, Note_on_c, 0, 69, 127
2, 74136, Note_off_c, 0, 69, 64
2, 74160, Note_on_c, 0, 70, 127
2, 74256, Note_off_c, 0, 70, 64
2, 74280, Note_on_c, 0, 72, 127
2, 74304, Note_off_c, 0, 67, 64
2, 74376, Note_off_c, 0, 72, 64
2, 74400, Note_on_c, 0, 65, 127
2, 74400, Note_on_c, 0, 74, 127
2, 74496, Note_off_c, 0, 74, 64
2, 74520, Note_on_c, 0, 75, 127
2, 74616, Note_off_c, 0, 75, 64
2, 74640, Note_on_c, 0, 77, 127
2, 74736, Note_off_c, 0, 77, 64
2, 74760, Note_on_c, 0, 74, 127
2, 74784, Note_off_c, 0, 65, 64
2, 74856, Note_off_c, 0, 74, 64
2, 74880, Note_on_c, 0, 67, 127
2, 74880, Note_on_c, 0, 75, 127
2, 75264, Note_off_c, 0, 75, 64
2, 75264, Note_off_c, 0, 67, 64
2, 75360, Note_on_c, 0, 74, 127
2, 75360, Note_on_c, 0, 69, 127
2, 75744, Note_off_c, 0, 69, 64
2, 75840, Note_on_c, 0, 70, 127
2, 75936, Note_off_c, 0, 74, 64
2, 75960, Note_on_c, 0, 74, 127
2, 76032, Note_off_c, 0, 70, 64
2, 76056, Note_off_c, 0, 74, 64
2, 76080, Note_on_c, 0, 76, 127
2, 76176, Note_off_c, 0, 76, 64
2, 76200, Note_on_c, 0, 78, 127
2, 76296, Note_off_c, 0, 78, 64
2, 76320, Note_on_c, 0, 79, 127
2, 76416, Note_off_c, 0, 79, 64
2, 76440, Note_on_c, 0, 81, 127
2, 76536, Note_off_c, 0, 81, 64
2, 76560, Note_on_c, 0, 82, 127
2, 76656, Note_off_c, 0, 82, 64
2, 76680, Note_on_c, 0, 79, 127
2, 76776, Note_off_c, 0, 79, 64
2, 76800, Note_on_c, 0, 72, 127
2, 76920, Note_on_c, 0, 65, 127
2, 77016, Note_off_c, 0, 65, 64
2, 77040, Note_on_c, 0, 63, 127
2, 77136, Note_off_c, 0, 63, 64
2, 77160, Note_on_c, 0, 62, 127
2, 77256, Note_off_c, 0, 62, 64
2, 77280, Note_on_c, 0, 63, 127
2, 77376, Note_off_c, 0, 63, 64
2, 77400, Note_on_c, 0, 62, 127
2, 77496, Note_off_c, 0, 62, 64
2, 77520, Note_on_c, 0, 60, 127
2, 77616, Note_off_c, 0, 60, 64
2, 77640, Note_on_c, 0, 63, 127
2, 77736, Note_off_c, 0, 63, 64
2, 77760, Note_on_c, 0, 57, 127
2, 77856, Note_off_c, 0, 72, 64
2, 77880, Note_on_c, 0, 70, 127
2, 77952, Note_off_c, 0, 57, 64
2, 77976, Note_off_c, 0, 70, 64
2, 78000, Note_on_c, 0, 69, 127
2, 78096, Note_off_c, 0, 69, 64
2, 78120, Note_on_c, 0, 70, 127
2, 78216, Note_off_c, 0, 70, 64
2, 78240, Note_on_c, 0, 72, 127
2, 78336, Note_off_c, 0, 72, 64
2, 78360, Note_on_c, 0, 75, 127
2, 78456, Note_off_c, 0, 75, 64
2, 78480, Note_on_c, 0, 74, 127
2, 78576, Note_off_c, 0, 74, 64
2, 78600, Note_on_c, 0, 72, 127
2, 78696, Note_off_c, 0, 72, 64
2, 78720, Note_on_c, 0, 70, 127
2, 78720, Note_on_c, 0, 55, 127
2, 78912, Note_off_c, 0, 55, 64
2, 78912, Note_off_c, 0, 70, 64
2, 78960, Note_on_c, 0, 69, 127
2, 78960, Note_on_c, 0, 65, 127
2, 79152, Note_off_c, 0, 65, 64
2, 79152, Note_off_c, 0, 69, 64
2, 79200, Note_on_c, 0, 64, 127
2, 79200, Note_on_c, 0, 67, 127
2, 79392, Note_off_c, 0, 64, 64
2, 79440, Note_on_c, 0, 62, 127
2, 79632, Note_off_c, 0, 62, 64
2, 79680, Note_on_c, 0, 64, 127
2, 79968, Note_off_c, 0, 67, 64
2, 80040, Note_on_c, 0, 69, 127
2, 80064, Note_off_c, 0, 64, 64
2, 80136, Note_off_c, 0, 69, 64
2, 80160, Note_on_c, 0, 65, 127
2, 80400, Note_on_c, 0, 62, 127
2, 80448, Note_off_c, 0, 65, 64
2, 80520, Note_on_c, 0, 67, 127
2, 80616, Note_off_c, 0, 67, 64
2, 80640, Note_on_c, 0, 64, 127
2, 80832, Note_off_c, 0, 62, 64
2, 80880, Note_on_c, 0, 60, 127
2, 80976, Note_off_c, 0, 60, 64
2, 81000, Note_on_c, 0, 59, 127
2, 81096, Note_off_c, 0, 59, 64
2, 81120, Note_on_c, 0, 60, 127
2, 81216, Note_off_c, 0, 64, 64
2, 81360, Note_on_c, 0, 69, 127
2, 81552, Note_off_c, 0, 69, 64
2, 81600, Note_on_c, 0, 62, 127
2, 81792, Note_off_c, 0, 60, 64
2, 81840, Note_on_c, 0, 58, 127
2, 81936, Note_off_c, 0, 58, 64
2, 81960, Note_on_c, 0, 57, 127
2, 82056, Note_off_c, 0, 57, 64
2, 82080, Note_on_c, 0, 58, 127
2, 82176, Note_off_c, 0, 62, 64
2, 82200, Note_on_c, 0, 77, 127
2, 82296, Note_off_c, 0, 77, 64
2, 82320, Note_on_c, 0, 76, 127
2, 82416, Note_off_c, 0, 76, 64
2, 82440, Note_on_c, 0, 74, 127
2, 82464, Note_off_c, 0, 58, 64
2, 82536, Note_off_c, 0, 74, 64
2, 82560, Note_on_c, 0, 57, 127
2, 82560, Note_on_c, 0, 73, 127
2, 82656, Note_off_c, 0, 73, 64
2, 82680, Note_on_c, 0, 71, 127
2, 82776, Note_off_c, 0, 71, 64
2, 82800, Note_on_c, 0, 69, 127
2, 82896, Note_off_c, 0, 69, 64
2, 82920, Note_on_c, 0, 73, 127
2, 83016, Note_off_c, 0, 73, 64
2, 83040, Note_on_c, 0, 74, 127
2, 83136, Note_off_c, 0, 57, 64
2, 83160, Note_on_c, 0, 72, 127
2, 83256, Note_off_c, 0, 72, 64
2, 83280, Note_on_c, 0, 70, 127
2, 83376, Note_off_c, 0, 70, 64
2, 83400, Note_on_c, 0, 69, 127
2, 83496, Note_off_c, 0, 69, 64
2, 83520, Note_on_c, 0, 67, 127
2, 83616, Note_off_c, 0, 67, 64
2, 83640, Note_on_c, 0, 65, 127
2, 83736, Note_off_c, 0, 65, 64
2, 83760, Note_on_c, 0, 64, 127
2, 83856, Note_off_c, 0, 64, 64
2, 83880, Note_on_c, 0, 65, 127
2, 83904, Note_off_c, 0, 74, 64
2, 83976, Note_off_c, 0, 65, 64
2, 84000, Note_on_c, 0, 67, 127
2, 84000, Note_on_c, 0, 73, 127
2, 84096, Note_off_c, 0, 67, 64
2, 84120, Note_on_c, 0, 70, 127
2, 84216, Note_off_c, 0, 70, 64
2, 84240, Note_on_c, 0, 69, 127
2, 84336, Note_off_c, 0, 69, 64
2, 84360, Note_on_c, 0, 67, 127
2, 84384, Note_off_c, 0, 73, 64
2, 84456, Note_off_c, 0, 67, 64
2, 84480, Note_on_c, 0, 69, 127
2, 84480, Note_on_c, 0, 65, 127
2, 84480, Note_on_c, 0, 74, 127
2, 84672, Note_off_c, 0, 74, 64
2, 84720, Note_on_c, 0, 77, 127
2, 84864, Note_off_c, 0, 65, 64
2, 84864, Note_off_c, 0, 69, 64
2, 84960, Note_on_c, 0, 72, 127
2, 84960, Note_on_c, 0, 69, 127
2, 85104, Note_off_c, 0, 77, 64
2, 85152, Note_off_c, 0, 69, 64
2, 85200, Note_on_c, 0, 67, 127
2, 85200, Note_on_c, 0, 76, 127
2, 85344, Note_off_c, 0, 72, 64
2, 85440, Note_on_c, 0, 69, 127
2, 85632, Note_off_c, 0, 76, 64
2, 85632, Note_off_c, 0, 67, 64
2, 85680, Note_on_c, 0, 74, 127
2, 85680, Note_on_c, 0, 65, 127
2, 85824, Note_off_c, 0, 69, 64
2, 85920, Note_on_c, 0, 69, 127
2, 86064, Note_off_c, 0, 65, 64
2, 86064, Note_off_c, 0, 74, 64
2, 86160, Note_on_c, 0, 64, 127
2, 86160, Note_on_c, 0, 73, 127
2, 86304, Note_off_c, 0, 69, 64
2, 86352, Note_off_c, 0, 73, 64
2, 86352, Note_off_c, 0, 64, 64
2, 86400, Note_on_c, 0, 74, 127
2, 86400, Note_on_c, 0, 65, 127
2, 86400, Note_on_c, 0, 70, 127
2, 86592, Note_off_c, 0, 65, 64
2, 86625, Note_off_c, 0, 74, 64
2, 86640, Note_on_c, 0, 67, 127
2, 86640, Note_on_c, 0, 72, 127
2, 86784, Note_off_c, 0, 70, 64
2, 86832, Note_off_c, 0, 67, 64
2, 86880, Note_on_c, 0, 60, 127
2, 86880, Note_on_c, 0, 69, 127
2, 87072, Note_off_c, 0, 60, 64
2, 87090, Note_off_c, 0, 72, 64
2, 87120, Note_on_c, 0, 74, 127
2, 87120, Note_on_c, 0, 65, 127
2, 87216, Note_off_c, 0, 74, 64
2, 87240, Note_on_c, 0, 72, 127
2, 87264, Note_off_c, 0, 69, 64
2, 87336, Note_off_c, 0, 72, 64
2, 87360, Note_on_c, 0, 70, 127
2, 87360, Note_on_c, 0, 67, 127
2, 87552, Note_off_c, 0, 65, 64
2, 87600, Note_on_c, 0, 63, 127
2, 87696, Note_off_c, 0, 63, 64
2, 87720, Note_on_c, 0, 62, 127
2, 87816, Note_off_c, 0, 62, 64
2, 87840, Note_on_c, 0, 63, 127
2, 88128, Note_off_c, 0, 67, 64
2, 88128, Note_off_c, 0, 70, 64
2, 88320, Note_on_c, 0, 69, 127
2, 88320, Note_on_c, 0, 65, 127
2, 88416, Note_off_c, 0, 63, 64
2, 88440, Note_on_c, 0, 63, 127
2, 88536, Note_off_c, 0, 63, 64
2, 88560, Note_on_c, 0, 62, 127
2, 88656, Note_off_c, 0, 62, 64
2, 88680, Note_on_c, 0, 60, 127
2, 88704, Note_off_c, 0, 69, 64
2, 88776, Note_off_c, 0, 60, 64
2, 88800, Note_on_c, 0, 74, 127
2, 88800, Note_on_c, 0, 58, 127
2, 88896, Note_off_c, 0, 58, 64
2, 88920, Note_on_c, 0, 57, 127
2, 89016, Note_off_c, 0, 57, 64
2, 89040, Note_on_c, 0, 55, 127
2, 89136, Note_off_c, 0, 55, 64
2, 89160, Note_on_c, 0, 58, 127
2, 89184, Note_off_c, 0, 74, 64
2, 89256, Note_off_c, 0, 58, 64
2, 89280, Note_on_c, 0, 72, 127
2, 89376, Note_off_c, 0, 65, 64
2, 89400, Note_on_c, 0, 64, 127
2, 89496, Note_off_c, 0, 64, 64
2, 89520, Note_on_c, 0, 65, 127
2, 89616, Note_off_c, 0, 65, 64
2, 89640, Note_on_c, 0, 67, 127
2, 89664, Note_off_c, 0, 72, 64
2, 89736, Note_off_c, 0, 67, 64
2, 89760, Note_on_c, 0, 69, 127
2, 89760, Note_on_c, 0, 77, 127
2, 89856, Note_off_c, 0, 69, 64
2, 89880, Note_on_c, 0, 71, 127
2, 89976, Note_off_c, 0, 71, 64
2, 90000, Note_on_c, 0, 72, 127
2, 90096, Note_off_c, 0, 72, 64
2, 90120, Note_on_c, 0, 69, 127
2, 90216, Note_off_c, 0, 69, 64
2, 90240, Note_on_c, 0, 74, 127
2, 90336, Note_off_c, 0, 77, 64
2, 90360, Note_on_c, 0, 77, 127
2, 90456, Note_off_c, 0, 77, 64
2, 90480, Note_on_c, 0, 79, 127
2, 90576, Note_off_c, 0, 79, 64
2, 90600, Note_on_c, 0, 81, 127
2, 90696, Note_off_c, 0, 81, 64
2, 90720, Note_on_c, 0, 79, 127
2, 90912, Note_off_c, 0, 79, 64
2, 90960, Note_on_c, 0, 77, 127
2, 91296, Note_off_c, 0, 77, 64
2, 91320, Note_on_c, 0, 76, 127
2, 91416, Note_off_c, 0, 76, 64
2, 91440, Note_on_c, 0, 78, 127
2, 91536, Note_off_c, 0, 78, 64
2, 91560, Note_on_c, 0, 80, 127
2, 91584, Note_off_c, 0, 74, 64
2, 91656, Note_off_c, 0, 80, 64
2, 91680, Note_on_c, 0, 72, 127
2, 91680, Note_on_c, 0, 81, 127
2, 91776, Note_off_c, 0, 81, 64
2, 91800, Note_on_c, 0, 83, 127
2, 91896, Note_off_c, 0, 83, 64
2, 91920, Note_on_c, 0, 84, 127
2, 92016, Note_off_c, 0, 84, 64
2, 92040, Note_on_c, 0, 81, 127
2, 92064, Note_off_c, 0, 72, 64
2, 92136, Note_off_c, 0, 81, 64
2, 92160, Note_on_c, 0, 74, 127
2, 92160, Note_on_c, 0, 71, 127
2, 92640, Note_on_c, 0, 56, 127
2, 92832, Note_off_c, 0, 56, 64
2, 92880, Note_on_c, 0, 64, 127
2, 93216, Note_off_c, 0, 64, 64
2, 93240, Note_on_c, 0, 65, 127
2, 93312, Note_off_c, 0, 71, 64
2, 93312, Note_off_c, 0, 74, 64
2, 93336, Note_off_c, 0, 65, 64
2, 93360, Note_on_c, 0, 64, 127
2, 93360, Note_on_c, 0, 69, 127
2, 93360, Note_on_c, 0, 72, 127
2, 93456, Note_off_c, 0, 72, 64
2, 93456, Note_off_c, 0, 69, 64
2, 93456, Note_off_c, 0, 64, 64
2, 93480, Note_on_c, 0, 62, 127
2, 93480, Note_on_c, 0, 71, 127
2, 93480, Note_on_c, 0, 68, 127
2, 93576, Note_off_c, 0, 68, 64
2, 93576, Note_off_c, 0, 71, 64
2, 93576, Note_off_c, 0, 62, 64
2, 93600, Note_on_c, 0, 64, 127
2, 93600, Note_on_c, 0, 69, 127
2, 93600, Note_on_c, 0, 72, 127
2, 93792, Note_off_c, 0, 72, 64
2, 93792, Note_off_c, 0, 69, 64
2, 93792, Note_off_c, 0, 64, 64
2, 93840, Note_on_c, 0, 72, 127
2, 93840, Note_on_c, 0, 65, 127
2, 93840, Note_on_c, 0, 77, 127
2, 94032, Note_off_c, 0, 65, 64
2, 94080, Note_on_c, 0, 60, 127
2, 94176, Note_off_c, 0, 60, 64
2, 94200, Note_on_c, 0, 62, 127
2, 94272, Note_off_c, 0, 77, 64
2, 94296, Note_off_c, 0, 62, 64
2, 94320, Note_on_c, 0, 64, 127
2, 94320, Note_on_c, 0, 76, 127
2, 94416, Note_off_c, 0, 76, 64
2, 94416, Note_off_c, 0, 64, 64
2, 94440, Note_on_c, 0, 65, 127
2, 94440, Note_on_c, 0, 74, 127
2, 94536, Note_off_c, 0, 74, 64
2, 94536, Note_off_c, 0, 65, 64
2, 94560, Note_on_c, 0, 76, 127
2, 94560, Note_on_c, 0, 67, 127
2, 94656, Note_off_c, 0, 67, 64
2, 94656, Note_off_c, 0, 72, 64
2, 94680, Note_on_c, 0, 65, 127
2, 94752, Note_off_c, 0, 76, 64
2, 94776, Note_off_c, 0, 65, 64
2, 94800, Note_on_c, 0, 76, 127
2, 94800, Note_on_c, 0, 64, 127
2, 94800, Note_on_c, 0, 79, 127
2, 94896, Note_off_c, 0, 64, 64
2, 94920, Note_on_c, 0, 67, 127
2, 95016, Note_off_c, 0, 67, 64
2, 95040, Note_on_c, 0, 61, 127
2, 95136, Note_off_c, 0, 79, 64
2, 95136, Note_off_c, 0, 76, 64
2, 95160, Note_on_c, 0, 82, 127
2, 95160, Note_on_c, 0, 79, 127
2, 95256, Note_off_c, 0, 79, 64
2, 95256, Note_off_c, 0, 82, 64
2, 95280, Note_on_c, 0, 77, 127
2, 95280, Note_on_c, 0, 81, 127
2, 95376, Note_off_c, 0, 81, 64
2, 95376, Note_off_c, 0, 77, 64
2, 95400, Note_on_c, 0, 79, 127
2, 95400, Note_on_c, 0, 76, 127
2, 95424, Note_off_c, 0, 61, 64
2, 95496, Note_off_c, 0, 76, 64
2, 95496, Note_off_c, 0, 79, 64
2, 95520, Note_on_c, 0, 74, 127
2, 95520, Note_on_c, 0, 62, 127
2, 95520, Note_on_c, 0, 77, 127
2, 95616, Note_off_c, 0, 77, 64
2, 95640, Note_on_c, 0, 76, 127
2, 95736, Note_off_c, 0, 76, 64
2, 95760, Note_on_c, 0, 74, 127
2, 95856, Note_off_c, 0, 74, 64
2, 95880, Note_on_c, 0, 77, 127
2, 95904, Note_off_c, 0, 62, 64
2, 95976, Note_off_c, 0, 77, 64
2, 96000, Note_on_c, 0, 64, 127
2, 96000, Note_on_c, 0, 76, 127
2, 96192, Note_off_c, 0, 74, 64
2, 96240, Note_on_c, 0, 72, 127
2, 96336, Note_off_c, 0, 72, 64
2, 96360, Note_on_c, 0, 71, 127
2, 96456, Note_off_c, 0, 71, 64
2, 96480, Note_on_c, 0, 72, 127
2, 96576, Note_off_c, 0, 76, 64
2, 96576, Note_off_c, 0, 64, 64
2, 96720, Note_on_c, 0, 75, 127
2, 96720, Note_on_c, 0, 65, 127
2, 96912, Note_off_c, 0, 75, 64
2, 96960, Note_on_c, 0, 74, 127
2, 97152, Note_off_c, 0, 72, 64
2, 97200, Note_on_c, 0, 70, 127
2, 97296, Note_off_c, 0, 70, 64
2, 97320, Note_on_c, 0, 69, 127
2, 97344, Note_off_c, 0, 65, 64
2, 97416, Note_off_c, 0, 69, 64
2, 97440, Note_on_c, 0, 62, 127
2, 97440, Note_on_c, 0, 70, 127
2, 97824, Note_off_c, 0, 62, 64
2, 97920, Note_on_c, 0, 64, 127
2, 98016, Note_off_c, 0, 74, 64
2, 98040, Note_on_c, 0, 72, 127
2, 98112, Note_off_c, 0, 64, 64
2, 98136, Note_off_c, 0, 72, 64
2, 98160, Note_on_c, 0, 62, 127
2, 98160, Note_on_c, 0, 74, 127
2, 98256, Note_off_c, 0, 74, 64
2, 98280, Note_on_c, 0, 76, 127
2, 98304, Note_off_c, 0, 70, 64
2, 98352, Note_off_c, 0, 62, 64
2, 98376, Note_off_c, 0, 76, 64
2, 98400, Note_on_c, 0, 69, 127
2, 98400, Note_on_c, 0, 60, 127
2, 98400, Note_on_c, 0, 77, 127
2, 98496, Note_off_c, 0, 77, 64
2, 98520, Note_on_c, 0, 79, 127
2, 98592, Note_off_c, 0, 60, 64
2, 98616, Note_off_c, 0, 79, 64
2, 98640, Note_on_c, 0, 81, 127
2, 98640, Note_on_c, 0, 65, 127
2, 98736, Note_off_c, 0, 81, 64
2, 98760, Note_on_c, 0, 77, 127
2, 98784, Note_off_c, 0, 69, 64
2, 98856, Note_off_c, 0, 77, 64
2, 98880, Note_on_c, 0, 82, 127
2, 98880, Note_on_c, 0, 74, 127
2, 98976, Note_off_c, 0, 74, 64
2, 99000, Note_on_c, 0, 75, 127
2, 99096, Note_off_c, 0, 75, 64
2, 99120, Note_on_c, 0, 74, 127
2, 99216, Note_off_c, 0, 74, 64
2, 99240, Note_on_c, 0, 72, 127
2, 99264, Note_off_c, 0, 82, 64
2, 99330, Note_off_c, 0, 65, 64
2, 99336, Note_off_c, 0, 72, 64
2, 99360, Note_on_c, 0, 70, 127
2, 99456, Note_off_c, 0, 70, 64
2, 99480, Note_on_c, 0, 69, 127
2, 99576, Note_off_c, 0, 69, 64
2, 99600, Note_on_c, 0, 67, 127
2, 99600, Note_on_c, 0, 64, 127
2, 99696, Note_off_c, 0, 64, 64
2, 99696, Note_off_c, 0, 67, 64
2, 99720, Note_on_c, 0, 70, 127
2, 99720, Note_on_c, 0, 62, 127
2, 99816, Note_off_c, 0, 62, 64
2, 99816, Note_off_c, 0, 70, 64
2, 99840, Note_on_c, 0, 60, 127
2, 99840, Note_on_c, 0, 64, 127
2, 99960, Note_on_c, 0, 74, 127
2, 100056, Note_off_c, 0, 74, 64
2, 100080, Note_on_c, 0, 76, 127
2, 100176, Note_off_c, 0, 76, 64
2, 100200, Note_on_c, 0, 77, 127
2, 100224, Note_off_c, 0, 64, 64
2, 100296, Note_off_c, 0, 77, 64
2, 100320, Note_on_c, 0, 63, 127
2, 100320, Note_on_c, 0, 79, 127
2, 100416, Note_off_c, 0, 79, 64
2, 100440, Note_on_c, 0, 81, 127
2, 100536, Note_off_c, 0, 81, 64
2, 100560, Note_on_c, 0, 82, 127
2, 100656, Note_off_c, 0, 82, 64
2, 100680, Note_on_c, 0, 79, 127
2, 100776, Note_off_c, 0, 79, 64
2, 100800, Note_on_c, 0, 84, 127
2, 100896, Note_off_c, 0, 63, 64
2, 100920, Note_on_c, 0, 79, 127
2, 101016, Note_off_c, 0, 79, 64
2, 101040, Note_on_c, 0, 77, 127
2, 101136, Note_off_c, 0, 77, 64
2, 101160, Note_on_c, 0, 75, 127
2, 101184, Note_off_c, 0, 84, 64
2, 101184, Note_off_c, 0, 60, 64
2, 101256, Note_off_c, 0, 75, 64
2, 101280, Note_on_c, 0, 62, 127
2, 101280, Note_on_c, 0, 82, 127
2, 101280, Note_on_c, 0, 74, 127
2, 101376, Note_off_c, 0, 74, 64
2, 101400, Note_on_c, 0, 75, 127
2, 101496, Note_off_c, 0, 75, 64
2, 101520, Note_on_c, 0, 77, 127
2, 101616, Note_off_c, 0, 77, 64
2, 101640, Note_on_c, 0, 74, 127
2, 101736, Note_off_c, 0, 74, 64
2, 101760, Note_on_c, 0, 70, 127
2, 101856, Note_off_c, 0, 82, 64
2, 101880, Note_on_c, 0, 81, 127
2, 101976, Note_off_c, 0, 81, 64
2, 102000, Note_on_c, 0, 79, 127
2, 102096, Note_off_c, 0, 79, 64
2, 102120, Note_on_c, 0, 77, 127
2, 102144, Note_off_c, 0, 62, 64
2, 102216, Note_off_c, 0, 77, 64
2, 102240, Note_on_c, 0, 76, 127
2, 102240, Note_on_c, 0, 60, 127
2, 102336, Note_off_c, 0, 76, 64
2, 102360, Note_on_c, 0, 77, 127
2, 102432, Note_off_c, 0, 60, 64
2, 102456, Note_off_c, 0, 77, 64
2, 102480, Note_on_c, 0, 58, 127
2, 102480, Note_on_c, 0, 79, 127
2, 102576, Note_off_c, 0, 79, 64
2, 102600, Note_on_c, 0, 76, 127
2, 102672, Note_off_c, 0, 58, 64
2, 102696, Note_off_c, 0, 76, 64
2, 102720, Note_on_c, 0, 77, 127
2, 102720, Note_on_c, 0, 60, 127
2, 102816, Note_off_c, 0, 70, 64
2, 102840, Note_on_c, 0, 70, 127
2, 102936, Note_off_c, 0, 70, 64
2, 102960, Note_on_c, 0, 69, 127
2, 103056, Note_off_c, 0, 69, 64
2, 103080, Note_on_c, 0, 67, 127
2, 103104, Note_off_c, 0, 60, 64
2, 103176, Note_off_c, 0, 67, 64
2, 103200, Note_on_c, 0, 69, 127
2, 103584, Note_off_c, 0, 69, 64
2, 103680, Note_on_c, 0, 67, 127
2, 103800, Note_on_c, 0, 62, 127
2, 103896, Note_off_c, 0, 62, 64
2, 103920, Note_on_c, 0, 64, 127
2, 104016, Note_off_c, 0, 64, 64
2, 104040, Note_on_c, 0, 65, 127
2, 104064, Note_off_c, 0, 77, 64
2, 104064, Note_off_c, 0, 67, 64
2, 104136, Note_off_c, 0, 65, 64
2, 104160, Note_on_c, 0, 72, 127
2, 104160, Note_on_c, 0, 76, 127
2, 104160, Note_on_c, 0, 67, 127
2, 104256, Note_off_c, 0, 67, 64
2, 104280, Note_on_c, 0, 69, 127
2, 104376, Note_off_c, 0, 69, 64
2, 104400, Note_on_c, 0, 70, 127
2, 104496, Note_off_c, 0, 70, 64
2, 104520, Note_on_c, 0, 67, 127
2, 104616, Note_off_c, 0, 67, 64
2, 104640, Note_on_c, 0, 69, 127
2, 105024, Note_off_c, 0, 72, 64
2, 105024, Note_off_c, 0, 76, 64
2, 105120, Note_on_c, 0, 74, 127
2, 105120, Note_on_c, 0, 71, 127
2, 105408, Note_off_c, 0, 69, 64
2, 105600, Note_on_c, 0, 67, 127
2, 105984, Note_off_c, 0, 71, 64
2, 105984, Note_off_c, 0, 74, 64
2, 106080, Note_on_c, 0, 72, 127
2, 106080, Note_on_c, 0, 69, 127
2, 106368, Note_off_c, 0, 67, 64
2, 106560, Note_on_c, 0, 65, 127
2, 106944, Note_off_c, 0, 72, 64
2, 106944, Note_off_c, 0, 69, 64
2, 107040, Note_on_c, 0, 67, 127
2, 107040, Note_on_c, 0, 71, 127
2, 107424, Note_off_c, 0, 71, 64
2, 107424, Note_off_c, 0, 67, 64
2, 107520, Note_on_c, 0, 67, 127
2, 107520, Note_on_c, 0, 72, 127
2, 107904, Note_off_c, 0, 67, 64
2, 107904, Note_off_c, 0, 65, 64
2, 108000, Note_on_c, 0, 64, 127
2, 108096, Note_off_c, 0, 72, 64
2, 108120, Note_on_c, 0, 74, 127
2, 108216, Note_off_c, 0, 74, 64
2, 108240, Note_on_c, 0, 72, 127
2, 108336, Note_off_c, 0, 72, 64
2, 108360, Note_on_c, 0, 71, 127
2, 108384, Note_off_c, 0, 64, 64
2, 108456, Note_off_c, 0, 71, 64
2, 108480, Note_on_c, 0, 69, 127
2, 108480, Note_on_c, 0, 66, 127
2, 108576, Note_off_c, 0, 69, 64
2, 108600, Note_on_c, 0, 71, 127
2, 108696, Note_off_c, 0, 71, 64
2, 108720, Note_on_c, 0, 72, 127
2, 108816, Note_off_c, 0, 72, 64
2, 108840, Note_on_c, 0, 69, 127
2, 108936, Note_off_c, 0, 69, 64
2, 108960, Note_on_c, 0, 74, 127
2, 109056, Note_off_c, 0, 66, 64
2, 109200, Note_on_c, 0, 68, 127
2, 109296, Note_off_c, 0, 68, 64
2, 109320, Note_on_c, 0, 69, 127
2, 109416, Note_off_c, 0, 69, 64
2, 109440, Note_on_c, 0, 71, 127
2, 110208, Note_off_c, 0, 74, 64
2, 110208, Note_off_c, 0, 71, 64
2, 110400, Note_on_c, 0, 72, 127
2, 110400, Note_on_c, 0, 69, 127
2, 110784, Note_off_c, 0, 72, 64
2, 110976, Note_off_c, 0, 69, 64
2, 111000, Note_on_c, 0, 72, 127
2, 111096, Note_off_c, 0, 72, 64
2, 111120, Note_on_c, 0, 71, 127
2, 111216, Note_off_c, 0, 71, 64
2, 111240, Note_on_c, 0, 69, 127
2, 111336, Note_off_c, 0, 69, 64
2, 111360, Note_on_c, 0, 68, 127
2, 111456, Note_off_c, 0, 68, 64
2, 111480, Note_on_c, 0, 69, 127
2, 111576, Note_off_c, 0, 69, 64
2, 111600, Note_on_c, 0, 71, 127
2, 111696, Note_off_c, 0, 71, 64
2, 111720, Note_on_c, 0, 68, 127
2, 111816, Note_off_c, 0, 68, 64
2, 111840, Note_on_c, 0, 69, 127
2, 111960, Note_on_c, 0, 72, 127
2, 112056, Note_off_c, 0, 72, 64
2, 112080, Note_on_c, 0, 74, 127
2, 112176, Note_off_c, 0, 74, 64
2, 112200, Note_on_c, 0, 76, 127
2, 112296, Note_off_c, 0, 76, 64
2, 112320, Note_on_c, 0, 77, 127
2, 112416, Note_off_c, 0, 77, 64
2, 112440, Note_on_c, 0, 76, 127
2, 112536, Note_off_c, 0, 76, 64
2, 112560, Note_on_c, 0, 74, 127
2, 112656, Note_off_c, 0, 74, 64
2, 112680, Note_on_c, 0, 77, 127
2, 112776, Note_off_c, 0, 77, 64
2, 112800, Note_on_c, 0, 71, 127
2, 112896, Note_off_c, 0, 71, 64
2, 112920, Note_on_c, 0, 72, 127
2, 113016, Note_off_c, 0, 72, 64
2, 113040, Note_on_c, 0, 74, 127
2, 113088, Note_off_c, 0, 69, 64
2, 113160, Note_on_c, 0, 68, 127
2, 113256, Note_off_c, 0, 68, 64
2, 113280, Note_on_c, 0, 69, 127
2, 113472, Note_off_c, 0, 74, 64
2, 113520, Note_on_c, 0, 72, 127
2, 113616, Note_off_c, 0, 72, 64
2, 113640, Note_on_c, 0, 71, 127
2, 113736, Note_off_c, 0, 71, 64
2, 113760, Note_on_c, 0, 72, 127
2, 113856, Note_off_c, 0, 69, 64
2, 114000, Note_on_c, 0, 65, 127
2, 114336, Note_off_c, 0, 65, 64
2, 114360, Note_on_c, 0, 69, 127
2, 114456, Note_off_c, 0, 69, 64
2, 114480, Note_on_c, 0, 67, 127
2, 114576, Note_off_c, 0, 67, 64
2, 114600, Note_on_c, 0, 65, 127
2, 114696, Note_off_c, 0, 65, 64
2, 114720, Note_on_c, 0, 64, 127
2, 114816, Note_off_c, 0, 64, 64
2, 114840, Note_on_c, 0, 62, 127
2, 114936, Note_off_c, 0, 62, 64
2, 114960, Note_on_c, 0, 60, 127
2, 115056, Note_off_c, 0, 60, 64
2, 115080, Note_on_c, 0, 63, 127
2, 115176, Note_off_c, 0, 63, 64
2, 115200, Note_on_c, 0, 62, 127
2, 115320, Note_on_c, 0, 57, 127
2, 115392, Note_off_c, 0, 72, 64
2, 115392, Note_off_c, 0, 62, 64
2, 115416, Note_off_c, 0, 57, 64
2, 115440, Note_on_c, 0, 58, 127
2, 115440, Note_on_c, 0, 70, 127
2, 115440, Note_on_c, 0, 67, 127
2, 115536, Note_off_c, 0, 58, 64
2, 115560, Note_on_c, 0, 60, 127
2, 115632, Note_off_c, 0, 67, 64
2, 115632, Note_off_c, 0, 70, 64
2, 115656, Note_off_c, 0, 60, 64
2, 115680, Note_on_c, 0, 66, 127
2, 115680, Note_on_c, 0, 69, 127
2, 115680, Note_on_c, 0, 62, 127
2, 115776, Note_off_c, 0, 62, 64
2, 115800, Note_on_c, 0, 64, 127
2, 115872, Note_off_c, 0, 69, 64
2, 115872, Note_off_c, 0, 66, 64
2, 115896, Note_off_c, 0, 64, 64
2, 115920, Note_on_c, 0, 74, 127
2, 115920, Note_on_c, 0, 66, 127
2, 115920, Note_on_c, 0, 69, 127
2, 116016, Note_off_c, 0, 66, 64
2, 116040, Note_on_c, 0, 62, 127
2, 116112, Note_off_c, 0, 69, 64
2, 116112, Note_off_c, 0, 74, 64
2, 116136, Note_off_c, 0, 62, 64
2, 116160, Note_on_c, 0, 70, 127
2, 116160, Note_on_c, 0, 67, 127
2, 116256, Note_off_c, 0, 67, 64
2, 116256, Note_off_c, 0, 70, 64
2, 116280, Note_on_c, 0, 69, 127
2, 116280, Note_on_c, 0, 72, 127
2, 116376, Note_off_c, 0, 72, 64
2, 116376, Note_off_c, 0, 69, 64
2, 116400, Note_on_c, 0, 74, 127
2, 116400, Note_on_c, 0, 70, 127
2, 116496, Note_off_c, 0, 70, 64
2, 116496, Note_off_c, 0, 74, 64
2, 116520, Note_on_c, 0, 76, 127
2, 116520, Note_on_c, 0, 67, 127
2, 116616, Note_off_c, 0, 67, 64
2, 116616, Note_off_c, 0, 76, 64
2, 116640, Note_on_c, 0, 69, 127
2, 116640, Note_on_c, 0, 78, 127
2, 116736, Note_off_c, 0, 78, 64
2, 116736, Note_off_c, 0, 69, 64
2, 116760, Note_on_c, 0, 79, 127
2, 116760, Note_on_c, 0, 70, 127
2, 116856, Note_off_c, 0, 70, 64
2, 116856, Note_off_c, 0, 79, 64
2, 116880, Note_on_c, 0, 81, 127
2, 116880, Note_on_c, 0, 72, 127
2, 116976, Note_off_c, 0, 72, 64
2, 116976, Note_off_c, 0, 81, 64
2, 117000, Note_on_c, 0, 78, 127
2, 117000, Note_on_c, 0, 69, 127
2, 117096, Note_off_c, 0, 69, 64
2, 117096, Note_off_c, 0, 78, 64
2, 117120, Note_on_c, 0, 82, 127
2, 117120, Note_on_c, 0, 67, 127
2, 117120, Note_on_c, 0, 74, 127
2, 117504, Note_off_c, 0, 67, 64
2, 117696, Note_off_c, 0, 74, 64
2, 117696, Note_off_c, 0, 82, 64
2, 117840, Note_on_c, 0, 81, 127
2, 117840, Note_on_c, 0, 72, 127
2, 118200, Note_on_c, 0, 64, 127
2, 118272, Note_off_c, 0, 72, 64
2, 118272, Note_off_c, 0, 81, 64
2, 118296, Note_off_c, 0, 64, 64
2, 118320, Note_on_c, 0, 79, 127
2, 118320, Note_on_c, 0, 70, 127
2, 118320, Note_on_c, 0, 66, 127
2, 118416, Note_off_c, 0, 66, 64
2, 118440, Note_on_c, 0, 67, 127
2, 118512, Note_off_c, 0, 70, 64
2, 118536, Note_off_c, 0, 67, 64
2, 118560, Note_on_c, 0, 69, 127
2, 118560, Note_on_c, 0, 72, 127
2, 118656, Note_off_c, 0, 72, 64
2, 118656, Note_off_c, 0, 69, 64
2, 118680, Note_on_c, 0, 70, 127
2, 118680, Note_on_c, 0, 74, 127
2, 118704, Note_off_c, 0, 79, 64
2, 118776, Note_off_c, 0, 74, 64
2, 118776, Note_off_c, 0, 70, 64
2, 118800, Note_on_c, 0, 72, 127
2, 118800, Note_on_c, 0, 75, 127
2, 118800, Note_on_c, 0, 78, 127
2, 118896, Note_off_c, 0, 75, 64
2, 118896, Note_off_c, 0, 72, 64
2, 118920, Note_on_c, 0, 69, 127
2, 118920, Note_on_c, 0, 72, 127
2, 118992, Note_off_c, 0, 78, 64
2, 119016, Note_off_c, 0, 72, 64
2, 119016, Note_off_c, 0, 69, 64
2, 119040, Note_on_c, 0, 79, 127
2, 119040, Note_on_c, 0, 70, 127
2, 119040, Note_on_c, 0, 74, 127
2, 119424, Note_off_c, 0, 74, 64
2, 119520, Note_on_c, 0, 76, 127
2, 120096, Note_off_c, 0, 70, 64
2, 120120, Note_on_c, 0, 70, 127
2, 120192, Note_off_c, 0, 76, 64
2, 120192, Note_off_c, 0, 79, 64
2, 120216, Note_off_c, 0, 70, 64
2, 120240, Note_on_c, 0, 74, 127
2, 120240, Note_on_c, 0, 69, 127
2, 120240, Note_on_c, 0, 77, 127
2, 120336, Note_off_c, 0, 77, 64
2, 120336, Note_off_c, 0, 69, 64
2, 120336, Note_off_c, 0, 74, 64
2, 120360, Note_on_c, 0, 67, 127
2, 120360, Note_on_c, 0, 73, 127
2, 120360, Note_on_c, 0, 76, 127
2, 120456, Note_off_c, 0, 76, 64
2, 120456, Note_off_c, 0, 73, 64
2, 120456, Note_off_c, 0, 67, 64
2, 120480, Note_on_c, 0, 65, 127
2, 120480, Note_on_c, 0, 77, 127
2, 120480, Note_on_c, 0, 74, 127
2, 120576, Note_off_c, 0, 65, 64
2, 120600, Note_on_c, 0, 67, 127
2, 120672, Note_off_c, 0, 77, 64
2, 120696, Note_off_c, 0, 67, 64
2, 120720, Note_on_c, 0, 69, 127
2, 120720, Note_on_c, 0, 79, 127
2, 120816, Note_off_c, 0, 69, 64
2, 120840, Note_on_c, 0, 65, 127
2, 120864, Note_off_c, 0, 74, 64
2, 120912, Note_off_c, 0, 79, 64
2, 120936, Note_off_c, 0, 65, 64
2, 120960, Note_on_c, 0, 62, 127
2, 120960, Note_on_c, 0, 81, 127
2, 121080, Note_on_c, 0, 69, 127
2, 121176, Note_off_c, 0, 69, 64
2, 121200, Note_on_c, 0, 71, 127
2, 121296, Note_off_c, 0, 71, 64
2, 121320, Note_on_c, 0, 73, 127
2, 121416, Note_off_c, 0, 73, 64
2, 121440, Note_on_c, 0, 74, 127
2, 121536, Note_off_c, 0, 74, 64
2, 121560, Note_on_c, 0, 76, 127
2, 121656, Note_off_c, 0, 76, 64
2, 121680, Note_on_c, 0, 77, 127
2, 121728, Note_off_c, 0, 81, 64
2, 121776, Note_off_c, 0, 77, 64
2, 121800, Note_on_c, 0, 74, 127
2, 121896, Note_off_c, 0, 74, 64
2, 121920, Note_on_c, 0, 79, 127
2, 121920, Note_on_c, 0, 82, 127
2, 122112, Note_off_c, 0, 82, 64
2, 122112, Note_off_c, 0, 79, 64
2, 122160, Note_on_c, 0, 77, 127
2, 122160, Note_on_c, 0, 81, 127
2, 122352, Note_off_c, 0, 81, 64
2, 122352, Note_off_c, 0, 77, 64
2, 122400, Note_on_c, 0, 76, 127
2, 122400, Note_on_c, 0, 79, 127
2, 122688, Note_off_c, 0, 62, 64
2, 122880, Note_on_c, 0, 61, 127
2, 122976, Note_off_c, 0, 79, 64
2, 123000, Note_on_c, 0, 81, 127
2, 123072, Note_off_c, 0, 76, 64
2, 123072, Note_off_c, 0, 61, 64
2, 123096, Note_off_c, 0, 81, 64
2, 123120, Note_on_c, 0, 79, 127
2, 123120, Note_on_c, 0, 74, 127
2, 123120, Note_on_c, 0, 62, 127
2, 123216, Note_off_c, 0, 79, 64
2, 123240, Note_on_c, 0, 77, 127
2, 123312, Note_off_c, 0, 62, 64
2, 123336, Note_off_c, 0, 77, 64
2, 123360, Note_on_c, 0, 64, 127
2, 123360, Note_on_c, 0, 76, 127
2, 123456, Note_off_c, 0, 76, 64
2, 123480, Note_on_c, 0, 78, 127
2, 123504, Note_off_c, 0, 74, 64
2, 123576, Note_off_c, 0, 78, 64
2, 123600, Note_on_c, 0, 79, 127
2, 123600, Note_on_c, 0, 72, 127
2, 123696, Note_off_c, 0, 79, 64
2, 123720, Note_on_c, 0, 76, 127
2, 123744, Note_off_c, 0, 64, 64
2, 123816, Note_off_c, 0, 76, 64
2, 123840, Note_on_c, 0, 78, 127
2, 123840, Note_on_c, 0, 60, 127
2, 123936, Note_off_c, 0, 72, 64
2, 123960, Note_on_c, 0, 75, 127
2, 124056, Note_off_c, 0, 75, 64
2, 124080, Note_on_c, 0, 74, 127
2, 124176, Note_off_c, 0, 74, 64
2, 124200, Note_on_c, 0, 72, 127
2, 124224, Note_off_c, 0, 60, 64
2, 124224, Note_off_c, 0, 78, 64
2, 124296, Note_off_c, 0, 72, 64
2, 124320, Note_on_c, 0, 70, 127
2, 124320, Note_on_c, 0, 79, 127
2, 124416, Note_off_c, 0, 70, 64
2, 124440, Note_on_c, 0, 69, 127
2, 124536, Note_off_c, 0, 69, 64
2, 124560, Note_on_c, 0, 67, 127
2, 124656, Note_off_c, 0, 67, 64
2, 124680, Note_on_c, 0, 70, 127
2, 124704, Note_off_c, 0, 79, 64
2, 124776, Note_off_c, 0, 70, 64
2, 124800, Note_on_c, 0, 81, 127
2, 124800, Note_on_c, 0, 66, 127
2, 125184, Note_off_c, 0, 66, 64
2, 125184, Note_off_c, 0, 81, 64
2, 125280, Note_on_c, 0, 67, 127
2, 125280, Note_on_c, 0, 74, 127
2, 125664, Note_off_c, 0, 67, 64
2, 125760, Note_on_c, 0, 69, 127
2, 125952, Note_off_c, 0, 74, 64
2, 126000, Note_on_c, 0, 72, 127
2, 126192, Note_off_c, 0, 72, 64
2, 126240, Note_on_c, 0, 70, 127
2, 126336, Note_off_c, 0, 69, 64
2, 126480, Note_on_c, 0, 67, 127
2, 126816, Note_off_c, 0, 67, 64
2, 126816, Note_off_c, 0, 70, 64
2, 126840, Note_on_c, 0, 69, 127
2, 126840, Note_on_c, 0, 65, 127
2, 126936, Note_off_c, 0, 65, 64
2, 126936, Note_off_c, 0, 69, 64
2, 126960, Note_on_c, 0, 67, 127
2, 126960, Note_on_c, 0, 64, 127
2, 127056, Note_off_c, 0, 64, 64
2, 127056, Note_off_c, 0, 67, 64
2, 127080, Note_on_c, 0, 62, 127
2, 127080, Note_on_c, 0, 65, 127
2, 127176, Note_off_c, 0, 65, 64
2, 127176, Note_off_c, 0, 62, 64
2, 127200, Note_on_c, 0, 61, 127
2, 127200, Note_on_c, 0, 64, 127
2, 127296, Note_off_c, 0, 64, 64
2, 127296, Note_off_c, 0, 61, 64
2, 127320, Note_on_c, 0, 62, 127
2, 127320, Note_on_c, 0, 65, 127
2, 127416, Note_off_c, 0, 65, 64
2, 127416, Note_off_c, 0, 62, 64
2, 127440, Note_on_c, 0, 64, 127
2, 127440, Note_on_c, 0, 67, 127
2, 127536, Note_off_c, 0, 67, 64
2, 127536, Note_off_c, 0, 64, 64
2, 127560, Note_on_c, 0, 64, 127
2, 127560, Note_on_c, 0, 61, 127
2, 127656, Note_off_c, 0, 61, 64
2, 127656, Note_off_c, 0, 64, 64
2, 127680, Note_on_c, 0, 67, 127
2, 127680, Note_on_c, 0, 62, 127
2, 127776, Note_off_c, 0, 67, 64
2, 127800, Note_on_c, 0, 65, 127
2, 127872, Note_off_c, 0, 62, 64
2, 127896, Note_off_c, 0, 65, 64
2, 127920, Note_on_c, 0, 64, 127
2, 128016, Note_off_c, 0, 64, 64
2, 128040, Note_on_c, 0, 62, 127
2, 128136, Note_off_c, 0, 62, 64
2, 128160, Note_on_c, 0, 74, 127
2, 128400, Note_on_c, 0, 64, 127
2, 128592, Note_off_c, 0, 64, 64
2, 128640, Note_on_c, 0, 65, 127
2, 128736, Note_off_c, 0, 65, 64
2, 128760, Note_on_c, 0, 69, 127
2, 128856, Note_off_c, 0, 69, 64
2, 128880, Note_on_c, 0, 67, 127
2, 128976, Note_off_c, 0, 67, 64
2, 129000, Note_on_c, 0, 65, 127
2, 129024, Note_off_c, 0, 74, 64
2, 129096, Note_off_c, 0, 65, 64
2, 129120, Note_on_c, 0, 64, 127
2, 129120, Note_on_c, 0, 73, 127
2, 129216, Note_off_c, 0, 64, 64
2, 129240, Note_on_c, 0, 66, 127
2, 129336, Note_off_c, 0, 66, 64
2, 129360, Note_on_c, 0, 67, 127
2, 129456, Note_off_c, 0, 67, 64
2, 129480, Note_on_c, 0, 64, 127
2, 129504, Note_off_c, 0, 73, 64
2, 129576, Note_off_c, 0, 64, 64
2, 129600, Note_on_c, 0, 74, 127
2, 129600, Note_on_c, 0, 66, 127
2, 130368, Note_off_c, 0, 66, 64
2, 130368, Note_off_c, 0, 74, 64
2, 130368, End_track
3, 0, Start_track
3, 0, Title_t, "J.S. Bach - BWV 733"
3, 0, Program_c, 0, 0
3, 0, Note_on_c, 0, 57, 96
3, 384, Note_off_c, 0, 57, 64
3, 480, Note_on_c, 0, 60, 96
3, 864, Note_off_c, 0, 60, 64
3, 960, Note_on_c, 0, 57, 96
3, 1344, Note_off_c, 0, 57, 64
3, 1440, Note_on_c, 0, 57, 96
3, 1824, Note_off_c, 0, 57, 64
3, 1920, Note_on_c, 0, 58, 96
3, 2304, Note_off_c, 0, 58, 64
3, 2400, Note_on_c, 0, 57, 96
3, 2784, Note_off_c, 0, 57, 64
3, 2880, Note_on_c, 0, 55, 96
3, 3648, Note_off_c, 0, 55, 64
3, 3840, Note_on_c, 0, 53, 96
3, 4416, Note_off_c, 0, 53, 64
3, 4560, Note_on_c, 0, 55, 96
3, 4752, Note_off_c, 0, 55, 64
3, 4800, Note_on_c, 0, 57, 96
3, 4992, Note_off_c, 0, 57, 64
3, 5040, Note_on_c, 0, 52, 96
3, 5232, Note_off_c, 0, 52, 64
3, 5280, Note_on_c, 0, 57, 96
3, 5472, Note_off_c, 0, 57, 64
3, 5520, Note_on_c, 0, 55, 96
3, 5712, Note_off_c, 0, 55, 64
3, 5760, Note_on_c, 0, 54, 96
3, 5952, Note_off_c, 0, 54, 64
3, 6000, Note_on_c, 0, 50, 96
3, 6192, Note_off_c, 0, 50, 64
3, 6240, Note_on_c, 0, 55, 96
3, 6912, Note_off_c, 0, 55, 64
3, 6960, Note_on_c, 0, 53, 96
3, 7056, Note_off_c, 0, 53, 64
3, 7080, Note_on_c, 0, 52, 96
3, 7176, Note_off_c, 0, 52, 64
3, 7200, Note_on_c, 0, 53, 96
3, 7392, Note_off_c, 0, 53, 64
3, 7440, Note_on_c, 0, 55, 96
3, 7536, Note_off_c, 0, 55, 64
3, 7560, Note_on_c, 0, 53, 96
3, 7656, Note_off_c, 0, 53, 64
3, 7680, Note_on_c, 0, 52, 96
3, 8064, Note_off_c, 0, 52, 64
3, 8160, Note_on_c, 0, 57, 96
3, 8544, Note_off_c, 0, 57, 64
3, 8640, Note_on_c, 0, 50, 96
3, 8640, Note_on_c, 0, 65, 96
3, 8736, Note_off_c, 0, 50, 64
3, 8760, Note_on_c, 0, 53, 96
3, 8856, Note_off_c, 0, 53, 64
3, 8880, Note_on_c, 0, 52, 96
3, 8976, Note_off_c, 0, 52, 64
3, 9000, Note_on_c, 0, 50, 96
3, 9024, Note_off_c, 0, 65, 64
3, 9096, Note_off_c, 0, 50, 64
3, 9120, Note_on_c, 0, 48, 96
3, 9120, Note_on_c, 0, 64, 96
3, 9216, Note_off_c, 0, 48, 64
3, 9240, Note_on_c, 0, 46, 96
3, 9336, Note_off_c, 0, 46, 64
3, 9360, Note_on_c, 0, 45, 96
3, 9456, Note_off_c, 0, 45, 64
3, 9480, Note_on_c, 0, 48, 96
3, 9576, Note_off_c, 0, 48, 64
3, 9600, Note_on_c, 0, 41, 96
3, 9696, Note_off_c, 0, 41, 64
3, 9720, Note_on_c, 0, 45, 96
3, 9792, Note_off_c, 0, 64, 64
3, 9816, Note_off_c, 0, 45, 64
3, 9840, Note_on_c, 0, 47, 96
3, 9840, Note_on_c, 0, 62, 96
3, 9936, Note_off_c, 0, 62, 64
3, 9936, Note_off_c, 0, 47, 64
3, 9960, Note_on_c, 0, 49, 96
3, 9960, Note_on_c, 0, 64, 96
3, 10056, Note_off_c, 0, 64, 64
3, 10056, Note_off_c, 0, 49, 64
3, 10080, Note_on_c, 0, 50, 96
3, 10080, Note_on_c, 0, 65, 96
3, 10176, Note_off_c, 0, 50, 64
3, 10200, Note_on_c, 0, 52, 96
3, 10272, Note_off_c, 0, 65, 64
3, 10296, Note_off_c, 0, 52, 64
3, 10320, Note_on_c, 0, 53, 96
3, 10320, Note_on_c, 0, 62, 96
3, 10416, Note_off_c, 0, 53, 64
3, 10440, Note_on_c, 0, 50, 96
3, 10536, Note_off_c, 0, 50, 64
3, 10560, Note_on_c, 0, 55, 96
3, 10656, Note_off_c, 0, 55, 64
3, 10680, Note_on_c, 0, 53, 96
3, 10752, Note_off_c, 0, 62, 64
3, 10776, Note_off_c, 0, 53, 64
3, 10800, Note_on_c, 0, 52, 96
3, 10800, Note_on_c, 0, 67, 96
3, 10896, Note_off_c, 0, 52, 64
3, 10920, Note_on_c, 0, 55, 96
3, 10992, Note_off_c, 0, 67, 64
3, 11016, Note_off_c, 0, 55, 64
3, 11040, Note_on_c, 0, 60, 96
3, 11040, Note_on_c, 0, 53, 96
3, 11136, Note_off_c, 0, 53, 64
3, 11160, Note_on_c, 0, 52, 96
3, 11232, Note_off_c, 0, 60, 64
3, 11256, Note_off_c, 0, 52, 64
3, 11280, Note_on_c, 0, 50, 96
3, 11280, Note_on_c, 0, 65, 96
3, 11376, Note_off_c, 0, 50, 64
3, 11400, Note_on_c, 0, 53, 96
3, 11496, Note_off_c, 0, 53, 64
3, 11520, Note_on_c, 0, 47, 96
3, 11616, Note_off_c, 0, 47, 64
3, 11640, Note_on_c, 0, 50, 96
3, 11712, Note_off_c, 0, 65, 64
3, 11736, Note_off_c, 0, 50, 64
3, 11760, Note_on_c, 0, 64, 96
3, 11760, Note_on_c, 0, 49, 96
3, 11856, Note_off_c, 0, 49, 64
3, 11856, Note_off_c, 0, 64, 64
3, 11880, Note_on_c, 0, 47, 96
3, 11880, Note_on_c, 0, 62, 96
3, 11976, Note_off_c, 0, 62, 64
3, 11976, Note_off_c, 0, 47, 64
3, 12000, Note_on_c, 0, 49, 96
3, 12000, Note_on_c, 0, 64, 96
3, 12096, Note_off_c, 0, 49, 64
3, 12120, Note_on_c, 0, 52, 96
3, 12216, Note_off_c, 0, 52, 64
3, 12240, Note_on_c, 0, 45, 96
3, 12336, Note_off_c, 0, 45, 64
3, 12360, Note_on_c, 0, 49, 96
3, 12456, Note_off_c, 0, 49, 64
3, 12480, Note_on_c, 0, 50, 96
3, 12576, Note_off_c, 0, 50, 64
3, 12600, Note_on_c, 0, 45, 96
3, 12696, Note_off_c, 0, 45, 64
3, 12720, Note_on_c, 0, 47, 96
3, 12816, Note_off_c, 0, 47, 64
3, 12840, Note_on_c, 0, 49, 96
3, 12864, Note_off_c, 0, 64, 64
3, 12936, Note_off_c, 0, 49, 64
3, 12960, Note_on_c, 0, 50, 96
3, 12960, Note_on_c, 0, 62, 96
3, 13056, Note_off_c, 0, 50, 64
3, 13080, Note_on_c, 0, 52, 96
3, 13176, Note_off_c, 0, 52, 64
3, 13200, Note_on_c, 0, 53, 96
3, 13296, Note_off_c, 0, 53, 64
3, 13320, Note_on_c, 0, 50, 96
3, 13416, Note_off_c, 0, 50, 64
3, 13440, Note_on_c, 0, 57, 96
3, 13536, Note_off_c, 0, 62, 64
3, 13560, Note_on_c, 0, 62, 96
3, 13656, Note_off_c, 0, 62, 64
3, 13680, Note_on_c, 0, 60, 96
3, 13776, Note_off_c, 0, 60, 64
3, 13800, Note_on_c, 0, 59, 96
3, 13896, Note_off_c, 0, 59, 64
3, 13920, Note_on_c, 0, 60, 96
3, 14016, Note_off_c, 0, 57, 64
3, 14040, Note_on_c, 0, 55, 96
3, 14136, Note_off_c, 0, 55, 64
3, 14160, Note_on_c, 0, 53, 96
3, 14256, Note_off_c, 0, 53, 64
3, 14280, Note_on_c, 0, 52, 96
3, 14376, Note_off_c, 0, 52, 64
3, 14400, Note_on_c, 0, 50, 96
3, 14592, Note_off_c, 0, 50, 64
3, 14592, Note_off_c, 0, 60, 64
3, 14640, Note_on_c, 0, 59, 96
3, 14640, Note_on_c, 0, 55, 96
3, 14832, Note_off_c, 0, 55, 64
3, 14880, Note_on_c, 0, 48, 96
3, 15024, Note_off_c, 0, 59, 64
3, 15072, Note_off_c, 0, 48, 64
3, 15120, Note_on_c, 0, 57, 96
3, 15120, Note_on_c, 0, 53, 96
3, 15312, Note_off_c, 0, 53, 64
3, 15360, Note_on_c, 0, 47, 96
3, 15456, Note_off_c, 0, 57, 64
3, 15480, Note_on_c, 0, 60, 96
3, 15552, Note_off_c, 0, 47, 64
3, 15576, Note_off_c, 0, 60, 64
3, 15600, Note_on_c, 0, 48, 96
3, 15600, Note_on_c, 0, 59, 96
3, 15696, Note_off_c, 0, 59, 64
3, 15696, Note_off_c, 0, 48, 64
3, 15720, Note_on_c, 0, 57, 96
3, 15720, Note_on_c, 0, 50, 96
3, 15816, Note_off_c, 0, 50, 64
3, 15816, Note_off_c, 0, 57, 64
3, 15840, Note_on_c, 0, 56, 96
3, 15840, Note_on_c, 0, 52, 96
3, 15936, Note_off_c, 0, 52, 64
3, 15936, Note_off_c, 0, 56, 64
3, 15960, Note_on_c, 0, 57, 96
3, 15960, Note_on_c, 0, 54, 96
3, 16056, Note_off_c, 0, 54, 64
3, 16056, Note_off_c, 0, 57, 64
3, 16080, Note_on_c, 0, 59, 96
3, 16080, Note_on_c, 0, 56, 96
3, 16176, Note_off_c, 0, 56, 64
3, 16200, Note_on_c, 0, 52, 96
3, 16296, Note_off_c, 0, 52, 64
3, 16320, Note_on_c, 0, 57, 96
3, 16416, Note_off_c, 0, 57, 64
3, 16440, Note_on_c, 0, 55, 96
3, 16512, Note_off_c, 0, 59, 64
3, 16536, Note_off_c, 0, 55, 64
3, 16560, Note_on_c, 0, 57, 96
3, 16560, Note_on_c, 0, 53, 96
3, 16656, Note_off_c, 0, 53, 64
3, 16680, Note_on_c, 0, 52, 96
3, 16776, Note_off_c, 0, 52, 64
3, 16800, Note_on_c, 0, 50, 96
3, 16896, Note_off_c, 0, 50, 64
3, 16920, Note_on_c, 0, 48, 96
3, 16944, Note_off_c, 0, 57, 64
3, 17016, Note_off_c, 0, 48, 64
3, 17040, Note_on_c, 0, 46, 96
3, 17040, Note_on_c, 0, 62, 96
3, 17136, Note_off_c, 0, 46, 64
3, 17160, Note_on_c, 0, 50, 96
3, 17232, Note_off_c, 0, 62, 64
3, 17256, Note_off_c, 0, 50, 64
3, 17280, Note_on_c, 0, 58, 96
3, 17280, Note_on_c, 0, 43, 96
3, 17376, Note_off_c, 0, 43, 64
3, 17400, Note_on_c, 0, 53, 96
3, 17472, Note_off_c, 0, 58, 64
3, 17496, Note_off_c, 0, 53, 64
3, 17520, Note_on_c, 0, 55, 96
3, 17520, Note_on_c, 0, 52, 96
3, 17616, Note_off_c, 0, 52, 64
3, 17640, Note_on_c, 0, 50, 96
3, 17736, Note_off_c, 0, 50, 64
3, 17760, Note_on_c, 0, 48, 96
3, 17856, Note_off_c, 0, 48, 64
3, 17880, Note_on_c, 0, 46, 96
3, 17904, Note_off_c, 0, 55, 64
3, 17976, Note_off_c, 0, 46, 64
3, 18000, Note_on_c, 0, 45, 96
3, 18000, Note_on_c, 0, 60, 96
3, 18096, Note_off_c, 0, 45, 64
3, 18120, Note_on_c, 0, 48, 96
3, 18192, Note_off_c, 0, 60, 64
3, 18216, Note_off_c, 0, 48, 64
3, 18240, Note_on_c, 0, 57, 96
3, 18240, Note_on_c, 0, 41, 96
3, 18336, Note_off_c, 0, 41, 64
3, 18360, Note_on_c, 0, 52, 96
3, 18432, Note_off_c, 0, 57, 64
3, 18456, Note_off_c, 0, 52, 64
3, 18480, Note_on_c, 0, 53, 96
3, 18480, Note_on_c, 0, 50, 96
3, 18576, Note_off_c, 0, 50, 64
3, 18600, Note_on_c, 0, 48, 96
3, 18696, Note_off_c, 0, 48, 64
3, 18720, Note_on_c, 0, 46, 96
3, 18816, Note_off_c, 0, 46, 64
3, 18840, Note_on_c, 0, 45, 96
3, 18864, Note_off_c, 0, 53, 64
3, 18936, Note_off_c, 0, 45, 64
3, 18960, Note_on_c, 0, 43, 96
3, 18960, Note_on_c, 0, 58, 96
3, 19056, Note_off_c, 0, 43, 64
3, 19080, Note_on_c, 0, 46, 96
3, 19152, Note_off_c, 0, 58, 64
3, 19176, Note_off_c, 0, 46, 64
3, 19200, Note_on_c, 0, 40, 96
3, 19200, Note_on_c, 0, 55, 96
3, 19296, Note_off_c, 0, 40, 64
3, 19320, Note_on_c, 0, 50, 96
3, 19392, Note_off_c, 0, 55, 64
3, 19416, Note_off_c, 0, 50, 64
3, 19440, Note_on_c, 0, 52, 96
3, 19440, Note_on_c, 0, 49, 96
3, 19536, Note_off_c, 0, 49, 64
3, 19560, Note_on_c, 0, 47, 96
3, 19656, Note_off_c, 0, 47, 64
3, 19680, Note_on_c, 0, 45, 96
3, 19776, Note_off_c, 0, 45, 64
3, 19800, Note_on_c, 0, 43, 96
3, 19824, Note_off_c, 0, 52, 64
3, 19896, Note_off_c, 0, 43, 64
3, 19920, Note_on_c, 0, 57, 96
3, 19920, Note_on_c, 0, 41, 96
3, 20016, Note_off_c, 0, 41, 64
3, 20040, Note_on_c, 0, 45, 96
3, 20112, Note_off_c, 0, 57, 64
3, 20136, Note_off_c, 0, 45, 64
3, 20160, Note_on_c, 0, 38, 96
3, 20160, Note_on_c, 0, 53, 96
3, 20256, Note_off_c, 0, 53, 64
3, 20280, Note_on_c, 0, 52, 96
3, 20352, Note_off_c, 0, 38, 64
3, 20376, Note_off_c, 0, 52, 64
3, 20400, Note_on_c, 0, 50, 96
3, 20400, Note_on_c, 0, 53, 96
3, 20496, Note_off_c, 0, 53, 64
3, 20520, Note_on_c, 0, 55, 96
3, 20616, Note_off_c, 0, 55, 64
3, 20640, Note_on_c, 0, 57, 96
3, 20736, Note_off_c, 0, 57, 64
3, 20760, Note_on_c, 0, 59, 96
3, 20784, Note_off_c, 0, 50, 64
3, 20856, Note_off_c, 0, 59, 64
3, 20880, Note_on_c, 0, 48, 96
3, 20880, Note_on_c, 0, 60, 96
3, 20976, Note_off_c, 0, 60, 64
3, 21000, Note_on_c, 0, 57, 96
3, 21096, Note_off_c, 0, 57, 64
3, 21216, Note_off_c, 0, 48, 64
3, 21240, Note_on_c, 0, 47, 96
3, 21336, Note_off_c, 0, 47, 64
3, 21360, Note_on_c, 0, 48, 96
3, 21456, Note_off_c, 0, 48, 64
3, 21480, Note_on_c, 0, 50, 96
3, 21576, Note_off_c, 0, 50, 64
3, 21600, Note_on_c, 0, 52, 96
3, 21696, Note_off_c, 0, 52, 64
3, 21720, Note_on_c, 0, 54, 96
3, 21816, Note_off_c, 0, 54, 64
3, 21840, Note_on_c, 0, 56, 96
3, 21936, Note_off_c, 0, 56, 64
3, 21960, Note_on_c, 0, 52, 96
3, 22056, Note_off_c, 0, 52, 64
3, 22080, Note_on_c, 0, 57, 96
3, 23136, Note_off_c, 0, 57, 64
3, 23160, Note_on_c, 0, 55, 96
3, 23256, Note_off_c, 0, 55, 64
3, 23280, Note_on_c, 0, 57, 96
3, 23376, Note_off_c, 0, 57, 64
3, 23400, Note_on_c, 0, 58, 96
3, 23496, Note_off_c, 0, 58, 64
3, 23520, Note_on_c, 0, 60, 96
3, 23616, Note_off_c, 0, 60, 64
3, 23640, Note_on_c, 0, 62, 96
3, 23736, Note_off_c, 0, 62, 64
3, 23760, Note_on_c, 0, 64, 96
3, 23856, Note_off_c, 0, 64, 64
3, 23880, Note_on_c, 0, 60, 96
3, 23976, Note_off_c, 0, 60, 64
3, 28920, Note_on_c, 0, 56, 96
3, 29016, Note_off_c, 0, 56, 64
3, 29040, Note_on_c, 0, 57, 96
3, 29136, Note_off_c, 0, 57, 64
3, 29160, Note_on_c, 0, 59, 96
3, 29256, Note_off_c, 0, 59, 64
3, 29280, Note_on_c, 0, 60, 96
3, 29376, Note_off_c, 0, 60, 64
3, 29400, Note_on_c, 0, 62, 96
3, 29496, Note_off_c, 0, 62, 64
3, 29520, Note_on_c, 0, 64, 96
3, 29616, Note_off_c, 0, 64, 64
3, 29640, Note_on_c, 0, 60, 96
3, 29736, Note_off_c, 0, 60, 64
3, 29760, Note_on_c, 0, 57, 96
3, 29952, Note_off_c, 0, 57, 64
3, 30000, Note_on_c, 0, 62, 96
3, 30192, Note_off_c, 0, 62, 64
3, 30240, Note_on_c, 0, 56, 96
3, 30432, Note_off_c, 0, 56, 64
3, 30480, Note_on_c, 0, 60, 96
3, 30912, Note_off_c, 0, 60, 64
3, 30960, Note_on_c, 0, 59, 96
3, 31056, Note_off_c, 0, 59, 64
3, 31080, Note_on_c, 0, 57, 96
3, 31176, Note_off_c, 0, 57, 64
3, 31200, Note_on_c, 0, 59, 96
3, 31392, Note_off_c, 0, 59, 64
3, 31440, Note_on_c, 0, 52, 96
3, 31632, Note_off_c, 0, 52, 64
3, 31680, Note_on_c, 0, 57, 96
3, 32736, Note_off_c, 0, 57, 64
3, 32760, Note_on_c, 0, 50, 96
3, 32856, Note_off_c, 0, 50, 64
3, 32880, Note_on_c, 0, 52, 96
3, 32976, Note_off_c, 0, 52, 64
3, 33000, Note_on_c, 0, 53, 96
3, 33096, Note_off_c, 0, 53, 64
3, 33120, Note_on_c, 0, 55, 96
3, 33216, Note_off_c, 0, 55, 64
3, 33240, Note_on_c, 0, 57, 96
3, 33336, Note_off_c, 0, 57, 64
3, 33360, Note_on_c, 0, 58, 96
3, 33456, Note_off_c, 0, 58, 64
3, 33480, Note_on_c, 0, 55, 96
3, 33576, Note_off_c, 0, 55, 64
3, 33600, Note_on_c, 0, 60, 96
3, 33696, Note_off_c, 0, 60, 64
3, 33720, Note_on_c, 0, 48, 96
3, 33816, Note_off_c, 0, 48, 64
3, 33840, Note_on_c, 0, 50, 96
3, 33936, Note_off_c, 0, 50, 64
3, 33960, Note_on_c, 0, 52, 96
3, 34056, Note_off_c, 0, 52, 64
3, 34080, Note_on_c, 0, 53, 96
3, 34176, Note_off_c, 0, 53, 64
3, 34200, Note_on_c, 0, 55, 96
3, 34296, Note_off_c, 0, 55, 64
3, 34320, Note_on_c, 0, 57, 96
3, 34416, Note_off_c, 0, 57, 64
3, 34440, Note_on_c, 0, 53, 96
3, 34536, Note_off_c, 0, 53, 64
3, 34560, Note_on_c, 0, 58, 96
3, 35328, Note_off_c, 0, 58, 64
3, 35520, Note_on_c, 0, 57, 96
3, 36288, Note_off_c, 0, 57, 64
3, 36480, Note_on_c, 0, 55, 96
3, 36864, Note_off_c, 0, 55, 64
3, 36960, Note_on_c, 0, 57, 96
3, 37344, Note_off_c, 0, 57, 64
3, 37440, Note_on_c, 0, 54, 96
3, 37440, Note_on_c, 0, 57, 96
3, 37824, Note_off_c, 0, 57, 64
3, 37824, Note_off_c, 0, 54, 64
3, 37920, Note_on_c, 0, 58, 96
3, 37920, Note_on_c, 0, 55, 96
3, 38112, Note_off_c, 0, 58, 64
3, 38160, Note_on_c, 0, 67, 96
3, 38352, Note_off_c, 0, 67, 64
3, 38496, Note_off_c, 0, 55, 64
3, 38520, Note_on_c, 0, 58, 96
3, 38616, Note_off_c, 0, 58, 64
3, 38640, Note_on_c, 0, 57, 96
3, 38736, Note_off_c, 0, 57, 64
3, 38760, Note_on_c, 0, 55, 96
3, 38856, Note_off_c, 0, 55, 64
3, 38880, Note_on_c, 0, 53, 96
3, 38976, Note_off_c, 0, 53, 64
3, 39000, Note_on_c, 0, 52, 96
3, 39096, Note_off_c, 0, 52, 64
3, 39120, Note_on_c, 0, 50, 96
3, 39216, Note_off_c, 0, 50, 64
3, 39240, Note_on_c, 0, 53, 96
3, 39336, Note_off_c, 0, 53, 64
3, 39360, Note_on_c, 0, 45, 96
3, 39480, Note_on_c, 0, 47, 96
3, 39576, Note_off_c, 0, 47, 64
3, 39600, Note_on_c, 0, 49, 96
3, 39696, Note_off_c, 0, 49, 64
3, 39720, Note_on_c, 0, 50, 96
3, 39816, Note_off_c, 0, 50, 64
3, 39840, Note_on_c, 0, 52, 96
3, 39936, Note_off_c, 0, 52, 64
3, 39960, Note_on_c, 0, 53, 96
3, 40056, Note_off_c, 0, 53, 64
3, 40080, Note_on_c, 0, 55, 96
3, 40128, Note_off_c, 0, 45, 64
3, 40176, Note_off_c, 0, 55, 64
3, 40200, Note_on_c, 0, 52, 96
3, 40296, Note_off_c, 0, 52, 64
3, 40320, Note_on_c, 0, 50, 96
3, 40320, Note_on_c, 0, 53, 96
3, 40512, Note_off_c, 0, 53, 64
3, 40560, Note_on_c, 0, 58, 96
3, 40704, Note_off_c, 0, 50, 64
3, 40752, Note_off_c, 0, 58, 64
3, 40800, Note_on_c, 0, 52, 96
3, 40992, Note_off_c, 0, 52, 64
3, 41040, Note_on_c, 0, 57, 96
3, 41232, Note_off_c, 0, 57, 64
3, 41280, Note_on_c, 0, 50, 96
3, 41856, Note_off_c, 0, 50, 64
3, 42000, Note_on_c, 0, 52, 96
3, 42192, Note_off_c, 0, 52, 64
3, 42240, Note_on_c, 0, 53, 96
3, 42240, Note_on_c, 0, 57, 96
3, 42432, Note_off_c, 0, 57, 64
3, 42480, Note_on_c, 0, 61, 96
3, 42672, Note_off_c, 0, 61, 64
3, 42720, Note_on_c, 0, 62, 96
3, 42912, Note_off_c, 0, 62, 64
3, 42960, Note_on_c, 0, 57, 96
3, 43152, Note_off_c, 0, 57, 64
3, 43200, Note_on_c, 0, 55, 96
3, 43296, Note_off_c, 0, 53, 64
3, 43320, Note_on_c, 0, 57, 96
3, 43416, Note_off_c, 0, 57, 64
3, 43440, Note_on_c, 0, 55, 96
3, 43536, Note_off_c, 0, 55, 64
3, 43560, Note_on_c, 0, 53, 96
3, 43584, Note_off_c, 0, 55, 64
3, 43656, Note_off_c, 0, 53, 64
3, 43680, Note_on_c, 0, 57, 96
3, 43680, Note_on_c, 0, 52, 96
3, 43776, Note_off_c, 0, 52, 64
3, 43800, Note_on_c, 0, 50, 96
3, 43896, Note_off_c, 0, 50, 64
3, 43920, Note_on_c, 0, 49, 96
3, 44016, Note_off_c, 0, 49, 64
3, 44040, Note_on_c, 0, 52, 96
3, 44064, Note_off_c, 0, 57, 64
3, 44136, Note_off_c, 0, 52, 64
3, 44160, Note_on_c, 0, 50, 96
3, 44160, Note_on_c, 0, 58, 96
3, 44256, Note_off_c, 0, 58, 64
3, 44280, Note_on_c, 0, 54, 96
3, 44376, Note_off_c, 0, 54, 64
3, 44400, Note_on_c, 0, 55, 96
3, 44496, Note_off_c, 0, 55, 64
3, 44520, Note_on_c, 0, 57, 96
3, 44616, Note_off_c, 0, 57, 64
3, 44640, Note_on_c, 0, 58, 96
3, 44736, Note_off_c, 0, 58, 64
3, 44736, Note_off_c, 0, 50, 64
3, 44760, Note_on_c, 0, 60, 96
3, 44856, Note_off_c, 0, 60, 64
3, 44880, Note_on_c, 0, 62, 96
3, 44880, Note_on_c, 0, 46, 96
3, 44976, Note_off_c, 0, 62, 64
3, 45000, Note_on_c, 0, 58, 96
3, 45072, Note_off_c, 0, 46, 64
3, 45096, Note_off_c, 0, 58, 64
3, 45120, Note_on_c, 0, 48, 96
3, 45120, Note_on_c, 0, 64, 96
3, 45216, Note_off_c, 0, 64, 64
3, 45240, Note_on_c, 0, 62, 96
3, 45312, Note_off_c, 0, 48, 64
3, 45336, Note_off_c, 0, 62, 64
3, 45360, Note_on_c, 0, 45, 96
3, 45360, Note_on_c, 0, 60, 96
3, 45456, Note_off_c, 0, 60, 64
3, 45480, Note_on_c, 0, 58, 96
3, 45552, Note_off_c, 0, 45, 64
3, 45576, Note_off_c, 0, 58, 64
3, 45600, Note_on_c, 0, 50, 96
3, 45600, Note_on_c, 0, 57, 96
3, 45696, Note_off_c, 0, 57, 64
3, 45720, Note_on_c, 0, 58, 96
3, 45816, Note_off_c, 0, 58, 64
3, 45840, Note_on_c, 0, 60, 96
3, 45936, Note_off_c, 0, 60, 64
3, 45960, Note_on_c, 0, 57, 96
3, 45984, Note_off_c, 0, 50, 64
3, 46056, Note_off_c, 0, 57, 64
3, 46080, Note_on_c, 0, 43, 96
3, 46080, Note_on_c, 0, 58, 96
3, 46176, Note_off_c, 0, 43, 64
3, 46200, Note_on_c, 0, 45, 96
3, 46296, Note_off_c, 0, 45, 64
3, 46320, Note_on_c, 0, 46, 96
3, 46416, Note_off_c, 0, 46, 64
3, 46440, Note_on_c, 0, 48, 96
3, 46464, Note_off_c, 0, 58, 64
3, 46536, Note_off_c, 0, 48, 64
3, 46560, Note_on_c, 0, 57, 96
3, 46560, Note_on_c, 0, 50, 96
3, 46656, Note_off_c, 0, 50, 64
3, 46680, Note_on_c, 0, 52, 96
3, 46776, Note_off_c, 0, 52, 64
3, 46800, Note_on_c, 0, 53, 96
3, 46896, Note_off_c, 0, 53, 64
3, 46920, Note_on_c, 0, 50, 96
3, 46944, Note_off_c, 0, 57, 64
3, 47016, Note_off_c, 0, 50, 64
3, 47040, Note_on_c, 0, 59, 96
3, 47040, Note_on_c, 0, 55, 96
3, 47136, Note_off_c, 0, 55, 64
3, 47160, Note_on_c, 0, 50, 96
3, 47232, Note_off_c, 0, 59, 64
3, 47256, Note_off_c, 0, 50, 64
3, 47280, Note_on_c, 0, 52, 96
3, 47280, Note_on_c, 0, 60, 96
3, 47376, Note_off_c, 0, 52, 64
3, 47400, Note_on_c, 0, 53, 96
3, 47472, Note_off_c, 0, 60, 64
3, 47496, Note_off_c, 0, 53, 64
3, 47520, Note_on_c, 0, 59, 96
3, 47520, Note_on_c, 0, 55, 96
3, 47616, Note_off_c, 0, 55, 64
3, 47640, Note_on_c, 0, 57, 96
3, 47712, Note_off_c, 0, 59, 64
3, 47736, Note_off_c, 0, 57, 64
3, 47760, Note_on_c, 0, 59, 96
3, 47760, Note_on_c, 0, 62, 96
3, 47856, Note_off_c, 0, 59, 64
3, 47880, Note_on_c, 0, 55, 96
3, 47976, Note_off_c, 0, 55, 64
3, 48000, Note_on_c, 0, 60, 96
3, 48096, Note_off_c, 0, 60, 64
3, 48120, Note_on_c, 0, 59, 96
3, 48192, Note_off_c, 0, 62, 64
3, 48216, Note_off_c, 0, 59, 64
3, 48240, Note_on_c, 0, 60, 96
3, 48240, Note_on_c, 0, 57, 96
3, 48336, Note_off_c, 0, 57, 64
3, 48336, Note_off_c, 0, 60, 64
3, 48360, Note_on_c, 0, 55, 96
3, 48360, Note_on_c, 0, 59, 96
3, 48456, Note_off_c, 0, 59, 64
3, 48456, Note_off_c, 0, 55, 64
3, 48480, Note_on_c, 0, 60, 96
3, 48480, Note_on_c, 0, 53, 96
3, 48576, Note_off_c, 0, 53, 64
3, 48600, Note_on_c, 0, 52, 96
3, 48672, Note_off_c, 0, 60, 64
3, 48696, Note_off_c, 0, 52, 64
3, 48720, Note_on_c, 0, 65, 96
3, 48720, Note_on_c, 0, 50, 96
3, 48816, Note_off_c, 0, 50, 64
3, 48840, Note_on_c, 0, 53, 96
3, 48912, Note_off_c, 0, 65, 64
3, 48936, Note_off_c, 0, 53, 64
3, 48960, Note_on_c, 0, 47, 96
3, 48960, Note_on_c, 0, 62, 96
3, 49056, Note_off_c, 0, 62, 64
3, 49080, Note_on_c, 0, 64, 96
3, 49152, Note_off_c, 0, 47, 64
3, 49176, Note_off_c, 0, 64, 64
3, 49200, Note_on_c, 0, 62, 96
3, 49200, Note_on_c, 0, 48, 96
3, 49296, Note_off_c, 0, 48, 64
3, 49296, Note_off_c, 0, 62, 64
3, 49320, Note_on_c, 0, 60, 96
3, 49320, Note_on_c, 0, 50, 96
3, 49416, Note_off_c, 0, 50, 64
3, 49416, Note_off_c, 0, 60, 64
3, 49440, Note_on_c, 0, 59, 96
3, 49440, Note_on_c, 0, 52, 96
3, 49536, Note_off_c, 0, 59, 64
3, 49560, Note_on_c, 0, 57, 96
3, 49632, Note_off_c, 0, 52, 64
3, 49656, Note_off_c, 0, 57, 64
3, 49680, Note_on_c, 0, 50, 96
3, 49680, Note_on_c, 0, 56, 96
3, 49776, Note_off_c, 0, 56, 64
3, 49800, Note_on_c, 0, 59, 96
3, 49872, Note_off_c, 0, 50, 64
3, 49896, Note_off_c, 0, 59, 64
3, 49920, Note_on_c, 0, 52, 96
3, 49920, Note_on_c, 0, 48, 96
3, 50112, Note_off_c, 0, 48, 64
3, 50112, Note_off_c, 0, 52, 64
3, 50160, Note_on_c, 0, 50, 96
3, 50160, Note_on_c, 0, 47, 96
3, 50352, Note_off_c, 0, 47, 64
3, 50352, Note_off_c, 0, 50, 64
3, 50400, Note_on_c, 0, 52, 96
3, 50400, Note_on_c, 0, 48, 96
3, 50592, Note_off_c, 0, 48, 64
3, 50592, Note_off_c, 0, 52, 64
3, 50640, Note_on_c, 0, 57, 96
3, 50640, Note_on_c, 0, 53, 96
3, 50976, Note_off_c, 0, 53, 64
3, 51000, Note_on_c, 0, 47, 96
3, 51072, Note_off_c, 0, 57, 64
3, 51096, Note_off_c, 0, 47, 64
3, 51120, Note_on_c, 0, 48, 96
3, 51216, Note_off_c, 0, 48, 64
3, 51240, Note_on_c, 0, 50, 96
3, 51336, Note_off_c, 0, 50, 64
3, 51360, Note_on_c, 0, 52, 96
3, 51456, Note_off_c, 0, 52, 64
3, 51480, Note_on_c, 0, 54, 96
3, 51576, Note_off_c, 0, 54, 64
3, 51600, Note_on_c, 0, 56, 96
3, 51696, Note_off_c, 0, 56, 64
3, 51720, Note_on_c, 0, 52, 96
3, 51816, Note_off_c, 0, 52, 64
3, 51840, Note_on_c, 0, 57, 96
3, 51936, Note_off_c, 0, 57, 64
3, 51960, Note_on_c, 0, 60, 96
3, 52056, Note_off_c, 0, 60, 64
3, 52080, Note_on_c, 0, 59, 96
3, 52176, Note_off_c, 0, 59, 64
3, 52200, Note_on_c, 0, 57, 96
3, 52296, Note_off_c, 0, 57, 64
3, 52320, Note_on_c, 0, 55, 96
3, 52416, Note_off_c, 0, 55, 64
3, 52440, Note_on_c, 0, 53, 96
3, 52536, Note_off_c, 0, 53, 64
3, 52560, Note_on_c, 0, 52, 96
3, 52656, Note_off_c, 0, 52, 64
3, 52680, Note_on_c, 0, 55, 96
3, 52776, Note_off_c, 0, 55, 64
3, 52800, Note_on_c, 0, 57, 96
3, 52800, Note_on_c, 0, 48, 96
3, 52896, Note_off_c, 0, 48, 64
3, 52920, Note_on_c, 0, 53, 96
3, 53016, Note_off_c, 0, 53, 64
3, 53040, Note_on_c, 0, 52, 96
3, 53136, Note_off_c, 0, 52, 64
3, 53160, Note_on_c, 0, 50, 96
3, 53184, Note_off_c, 0, 57, 64
3, 53256, Note_off_c, 0, 50, 64
3, 53280, Note_on_c, 0, 60, 96
3, 53280, Note_on_c, 0, 48, 96
3, 53376, Note_off_c, 0, 48, 64
3, 53400, Note_on_c, 0, 46, 96
3, 53496, Note_off_c, 0, 46, 64
3, 53520, Note_on_c, 0, 45, 96
3, 53616, Note_off_c, 0, 45, 64
3, 53640, Note_on_c, 0, 48, 96
3, 53664, Note_off_c, 0, 60, 64
3, 53736, Note_off_c, 0, 48, 64
3, 53760, Note_on_c, 0, 41, 96
3, 53760, Note_on_c, 0, 57, 96
3, 53856, Note_off_c, 0, 41, 64
3, 53880, Note_on_c, 0, 43, 96
3, 53976, Note_off_c, 0, 43, 64
3, 54000, Note_on_c, 0, 45, 96
3, 54096, Note_off_c, 0, 45, 64
3, 54120, Note_on_c, 0, 46, 96
3, 54144, Note_off_c, 0, 57, 64
3, 54216, Note_off_c, 0, 46, 64
3, 54240, Note_on_c, 0, 48, 96
3, 54240, Note_on_c, 0, 57, 96
3, 54336, Note_off_c, 0, 48, 64
3, 54360, Note_on_c, 0, 50, 96
3, 54456, Note_off_c, 0, 50, 64
3, 54480, Note_on_c, 0, 52, 96
3, 54576, Note_off_c, 0, 52, 64
3, 54600, Note_on_c, 0, 48, 96
3, 54624, Note_off_c, 0, 57, 64
3, 54696, Note_off_c, 0, 48, 64
3, 54720, Note_on_c, 0, 58, 96
3, 54720, Note_on_c, 0, 50, 96
3, 54912, Note_off_c, 0, 50, 64
3, 54960, Note_on_c, 0, 48, 96
3, 55104, Note_off_c, 0, 58, 64
3, 55152, Note_off_c, 0, 48, 64
3, 55200, Note_on_c, 0, 57, 96
3, 55200, Note_on_c, 0, 50, 96
3, 55392, Note_off_c, 0, 50, 64
3, 55440, Note_on_c, 0, 46, 96
3, 55584, Note_off_c, 0, 57, 64
3, 55680, Note_on_c, 0, 55, 96
3, 55872, Note_off_c, 0, 46, 64
3, 55920, Note_on_c, 0, 48, 96
3, 56016, Note_off_c, 0, 48, 64
3, 56040, Note_on_c, 0, 50, 96
3, 56136, Note_off_c, 0, 50, 64
3, 56160, Note_on_c, 0, 48, 96
3, 56352, Note_off_c, 0, 48, 64
3, 56400, Note_on_c, 0, 46, 96
3, 56448, Note_off_c, 0, 55, 64
3, 56592, Note_off_c, 0, 46, 64
3, 56640, Note_on_c, 0, 53, 96
3, 56640, Note_on_c, 0, 45, 96
3, 56832, Note_off_c, 0, 45, 64
3, 56880, Note_on_c, 0, 43, 96
3, 57072, Note_off_c, 0, 43, 64
3, 57120, Note_on_c, 0, 45, 96
3, 57312, Note_off_c, 0, 45, 64
3, 57360, Note_on_c, 0, 41, 96
3, 57552, Note_off_c, 0, 41, 64
3, 57600, Note_on_c, 0, 46, 96
3, 57696, Note_off_c, 0, 46, 64
3, 57720, Note_on_c, 0, 48, 96
3, 57792, Note_off_c, 0, 53, 64
3, 57816, Note_off_c, 0, 48, 64
3, 57840, Note_on_c, 0, 50, 96
3, 57936, Note_off_c, 0, 50, 64
3, 57960, Note_on_c, 0, 52, 96
3, 58056, Note_off_c, 0, 52, 64
3, 58080, Note_on_c, 0, 53, 96
3, 58176, Note_off_c, 0, 53, 64
3, 58200, Note_on_c, 0, 55, 96
3, 58296, Note_off_c, 0, 55, 64
3, 58320, Note_on_c, 0, 57, 96
3, 58416, Note_off_c, 0, 57, 64
3, 58440, Note_on_c, 0, 53, 96
3, 58536, Note_off_c, 0, 53, 64
3, 58560, Note_on_c, 0, 55, 96
3, 58944, Note_off_c, 0, 55, 64
3, 59040, Note_on_c, 0, 53, 96
3, 59424, Note_off_c, 0, 53, 64
3, 59520, Note_on_c, 0, 52, 96
3, 59712, Note_off_c, 0, 52, 64
3, 59760, Note_on_c, 0, 48, 96
3, 59952, Note_off_c, 0, 48, 64
3, 60000, Note_on_c, 0, 53, 96
3, 60192, Note_off_c, 0, 53, 64
3, 60240, Note_on_c, 0, 45, 96
3, 60240, Note_on_c, 0, 60, 96
3, 60432, Note_off_c, 0, 45, 64
3, 60480, Note_on_c, 0, 46, 96
3, 60672, Note_off_c, 0, 60, 64
3, 60672, Note_off_c, 0, 46, 64
3, 60720, Note_on_c, 0, 43, 96
3, 60720, Note_on_c, 0, 58, 96
3, 60816, Note_off_c, 0, 58, 64
3, 60840, Note_on_c, 0, 57, 96
3, 60912, Note_off_c, 0, 43, 64
3, 60936, Note_off_c, 0, 57, 64
3, 60960, Note_on_c, 0, 48, 96
3, 60960, Note_on_c, 0, 55, 96
3, 61056, Note_off_c, 0, 55, 64
3, 61080, Note_on_c, 0, 57, 96
3, 61176, Note_off_c, 0, 57, 64
3, 61200, Note_on_c, 0, 58, 96
3, 61296, Note_off_c, 0, 58, 64
3, 61320, Note_on_c, 0, 55, 96
3, 61344, Note_off_c, 0, 48, 64
3, 61416, Note_off_c, 0, 55, 64
3, 61440, Note_on_c, 0, 41, 96
3, 61440, Note_on_c, 0, 57, 96
3, 61632, Note_off_c, 0, 57, 64
3, 61632, Note_off_c, 0, 41, 64
3, 61680, Note_on_c, 0, 62, 96
3, 61872, Note_off_c, 0, 62, 64
3, 61920, Note_on_c, 0, 55, 96
3, 62112, Note_off_c, 0, 55, 64
3, 62160, Note_on_c, 0, 60, 96
3, 62352, Note_off_c, 0, 60, 64
3, 62400, Note_on_c, 0, 53, 96
3, 62784, Note_off_c, 0, 53, 64
3, 62880, Note_on_c, 0, 58, 96
3, 63456, Note_off_c, 0, 58, 64
3, 63480, Note_on_c, 0, 52, 96
3, 63576, Note_off_c, 0, 52, 64
3, 63600, Note_on_c, 0, 53, 96
3, 63696, Note_off_c, 0, 53, 64
3, 63720, Note_on_c, 0, 55, 96
3, 63816, Note_off_c, 0, 55, 64
3, 63840, Note_on_c, 0, 57, 96
3, 63936, Note_off_c, 0, 57, 64
3, 63960, Note_on_c, 0, 59, 96
3, 64056, Note_off_c, 0, 59, 64
3, 64080, Note_on_c, 0, 61, 96
3, 64176, Note_off_c, 0, 61, 64
3, 64200, Note_on_c, 0, 57, 96
3, 64296, Note_off_c, 0, 57, 64
3, 64320, Note_on_c, 0, 62, 96
3, 64896, Note_off_c, 0, 62, 64
3, 64920, Note_on_c, 0, 50, 96
3, 65016, Note_off_c, 0, 50, 64
3, 65040, Note_on_c, 0, 52, 96
3, 65136, Note_off_c, 0, 52, 64
3, 65160, Note_on_c, 0, 53, 96
3, 65256, Note_off_c, 0, 53, 64
3, 65280, Note_on_c, 0, 55, 96
3, 65376, Note_off_c, 0, 55, 64
3, 65400, Note_on_c, 0, 57, 96
3, 65496, Note_off_c, 0, 57, 64
3, 65520, Note_on_c, 0, 58, 96
3, 65616, Note_off_c, 0, 58, 64
3, 65640, Note_on_c, 0, 55, 96
3, 65736, Note_off_c, 0, 55, 64
3, 65760, Note_on_c, 0, 60, 96
3, 65856, Note_off_c, 0, 60, 64
3, 65880, Note_on_c, 0, 48, 96
3, 65976, Note_off_c, 0, 48, 64
3, 66000, Note_on_c, 0, 50, 96
3, 66096, Note_off_c, 0, 50, 64
3, 66120, Note_on_c, 0, 52, 96
3, 66216, Note_off_c, 0, 52, 64
3, 66240, Note_on_c, 0, 53, 96
3, 66336, Note_off_c, 0, 53, 64
3, 66360, Note_on_c, 0, 55, 96
3, 66456, Note_off_c, 0, 55, 64
3, 66480, Note_on_c, 0, 57, 96
3, 66576, Note_off_c, 0, 57, 64
3, 66600, Note_on_c, 0, 53, 96
3, 66696, Note_off_c, 0, 53, 64
3, 66720, Note_on_c, 0, 58, 96
3, 66816, Note_off_c, 0, 58, 64
3, 66840, Note_on_c, 0, 57, 96
3, 66936, Note_off_c, 0, 57, 64
3, 66960, Note_on_c, 0, 55, 96
3, 67056, Note_off_c, 0, 55, 64
3, 67080, Note_on_c, 0, 53, 96
3, 67176, Note_off_c, 0, 53, 64
3, 67200, Note_on_c, 0, 52, 96
3, 67296, Note_off_c, 0, 52, 64
3, 67320, Note_on_c, 0, 50, 96
3, 67416, Note_off_c, 0, 50, 64
3, 67440, Note_on_c, 0, 49, 96
3, 67536, Note_off_c, 0, 49, 64
3, 67560, Note_on_c, 0, 52, 96
3, 67656, Note_off_c, 0, 52, 64
3, 67680, Note_on_c, 0, 45, 96
3, 67776, Note_off_c, 0, 45, 64
3, 67800, Note_on_c, 0, 55, 96
3, 67896, Note_off_c, 0, 55, 64
3, 67920, Note_on_c, 0, 53, 96
3, 68016, Note_off_c, 0, 53, 64
3, 68040, Note_on_c, 0, 52, 96
3, 68136, Note_off_c, 0, 52, 64
3, 68160, Note_on_c, 0, 50, 96
3, 68256, Note_off_c, 0, 50, 64
3, 68280, Note_on_c, 0, 48, 96
3, 68376, Note_off_c, 0, 48, 64
3, 68400, Note_on_c, 0, 47, 96
3, 68496, Note_off_c, 0, 47, 64
3, 68520, Note_on_c, 0, 50, 96
3, 68616, Note_off_c, 0, 50, 64
3, 68640, Note_on_c, 0, 43, 96
3, 68832, Note_off_c, 0, 43, 64
3, 68880, Note_on_c, 0, 55, 96
3, 69216, Note_off_c, 0, 55, 64
3, 69240, Note_on_c, 0, 58, 96
3, 69336, Note_off_c, 0, 58, 64
3, 69360, Note_on_c, 0, 57, 96
3, 69456, Note_off_c, 0, 57, 64
3, 69480, Note_on_c, 0, 55, 96
3, 69576, Note_off_c, 0, 55, 64
3, 69600, Note_on_c, 0, 53, 96
3, 69696, Note_off_c, 0, 53, 64
3, 69720, Note_on_c, 0, 52, 96
3, 69816, Note_off_c, 0, 52, 64
3, 69840, Note_on_c, 0, 50, 96
3, 69936, Note_off_c, 0, 50, 64
3, 69960, Note_on_c, 0, 53, 96
3, 70056, Note_off_c, 0, 53, 64
3, 70080, Note_on_c, 0, 52, 96
3, 70176, Note_off_c, 0, 52, 64
3, 70200, Note_on_c, 0, 50, 96
3, 70296, Note_off_c, 0, 50, 64
3, 70320, Note_on_c, 0, 49, 96
3, 70416, Note_off_c, 0, 49, 64
3, 70440, Note_on_c, 0, 47, 96
3, 70536, Note_off_c, 0, 47, 64
3, 70560, Note_on_c, 0, 45, 96
3, 70656, Note_off_c, 0, 45, 64
3, 70680, Note_on_c, 0, 43, 96
3, 70776, Note_off_c, 0, 43, 64
3, 70800, Note_on_c, 0, 41, 96
3, 70896, Note_off_c, 0, 41, 64
3, 70920, Note_on_c, 0, 45, 96
3, 71016, Note_off_c, 0, 45, 64
3, 71040, Note_on_c, 0, 38, 96
3, 71040, Note_on_c, 0, 65, 96
3, 71136, Note_off_c, 0, 65, 64
3, 71160, Note_on_c, 0, 65, 96
3, 71232, Note_off_c, 0, 38, 64
3, 71256, Note_off_c, 0, 65, 64
3, 71280, Note_on_c, 0, 64, 96
3, 71376, Note_off_c, 0, 64, 64
3, 71400, Note_on_c, 0, 62, 96
3, 71496, Note_off_c, 0, 62, 64
3, 71520, Note_on_c, 0, 60, 96
3, 71616, Note_off_c, 0, 60, 64
3, 71640, Note_on_c, 0, 58, 96
3, 71736, Note_off_c, 0, 58, 64
3, 71760, Note_on_c, 0, 57, 96
3, 71856, Note_off_c, 0, 57, 64
3, 71880, Note_on_c, 0, 60, 96
3, 71976, Note_off_c, 0, 60, 64
3, 72000, Note_on_c, 0, 50, 96
3, 72000, Note_on_c, 0, 53, 96
3, 72096, Note_off_c, 0, 53, 64
3, 72120, Note_on_c, 0, 52, 96
3, 72216, Note_off_c, 0, 52, 64
3, 72240, Note_on_c, 0, 53, 96
3, 72336, Note_off_c, 0, 53, 64
3, 72360, Note_on_c, 0, 55, 96
3, 72384, Note_off_c, 0, 50, 64
3, 72456, Note_off_c, 0, 55, 64
3, 72480, Note_on_c, 0, 57, 96
3, 72480, Note_on_c, 0, 53, 96
3, 72576, Note_off_c, 0, 57, 64
3, 72600, Note_on_c, 0, 58, 96
3, 72696, Note_off_c, 0, 58, 64
3, 72720, Note_on_c, 0, 60, 96
3, 72816, Note_off_c, 0, 60, 64
3, 72840, Note_on_c, 0, 57, 96
3, 72864, Note_off_c, 0, 53, 64
3, 72936, Note_off_c, 0, 57, 64
3, 72960, Note_on_c, 0, 62, 96
3, 72960, Note_on_c, 0, 50, 96
3, 73056, Note_off_c, 0, 62, 64
3, 73080, Note_on_c, 0, 60, 96
3, 73176, Note_off_c, 0, 60, 64
3, 73200, Note_on_c, 0, 58, 96
3, 73296, Note_off_c, 0, 58, 64
3, 73320, Note_on_c, 0, 62, 96
3, 73344, Note_off_c, 0, 50, 64
3, 73416, Note_off_c, 0, 62, 64
3, 73440, Note_on_c, 0, 60, 96
3, 73440, Note_on_c, 0, 50, 96
3, 73536, Note_off_c, 0, 60, 64
3, 73560, Note_on_c, 0, 58, 96
3, 73656, Note_off_c, 0, 58, 64
3, 73680, Note_on_c, 0, 57, 96
3, 73776, Note_off_c, 0, 57, 64
3, 73800, Note_on_c, 0, 60, 96
3, 73824, Note_off_c, 0, 50, 64
3, 73896, Note_off_c, 0, 60, 64
3, 73920, Note_on_c, 0, 58, 96
3, 73920, Note_on_c, 0, 51, 96
3, 74304, Note_off_c, 0, 51, 64
3, 74400, Note_on_c, 0, 50, 96
3, 74784, Note_off_c, 0, 50, 64
3, 74880, Note_on_c, 0, 48, 96
3, 74976, Note_off_c, 0, 58, 64
3, 75000, Note_on_c, 0, 58, 96
3, 75096, Note_off_c, 0, 58, 64
3, 75120, Note_on_c, 0, 57, 96
3, 75216, Note_off_c, 0, 57, 64
3, 75240, Note_on_c, 0, 55, 96
3, 75336, Note_off_c, 0, 55, 64
3, 75360, Note_on_c, 0, 54, 96
3, 75456, Note_off_c, 0, 54, 64
3, 75480, Note_on_c, 0, 52, 96
3, 75576, Note_off_c, 0, 52, 64
3, 75600, Note_on_c, 0, 50, 96
3, 75648, Note_off_c, 0, 48, 64
3, 75696, Note_off_c, 0, 50, 64
3, 75720, Note_on_c, 0, 54, 96
3, 75816, Note_off_c, 0, 54, 64
3, 75840, Note_on_c, 0, 55, 96
3, 75840, Note_on_c, 0, 46, 96
3, 76032, Note_off_c, 0, 46, 64
3, 76080, Note_on_c, 0, 45, 96
3, 76272, Note_off_c, 0, 45, 64
3, 76320, Note_on_c, 0, 46, 96
3, 76512, Note_off_c, 0, 46, 64
3, 76560, Note_on_c, 0, 43, 96
3, 76752, Note_off_c, 0, 43, 64
3, 76800, Note_on_c, 0, 45, 96
3, 76992, Note_off_c, 0, 45, 64
3, 77040, Note_on_c, 0, 46, 96
3, 77232, Note_off_c, 0, 46, 64
3, 77280, Note_on_c, 0, 48, 96
3, 77472, Note_off_c, 0, 48, 64
3, 77520, Note_on_c, 0, 45, 96
3, 77568, Note_off_c, 0, 55, 64
3, 77712, Note_off_c, 0, 45, 64
3, 77760, Note_on_c, 0, 54, 96
3, 77760, Note_on_c, 0, 50, 96
3, 77952, Note_off_c, 0, 50, 64
3, 78000, Note_on_c, 0, 48, 96
3, 78192, Note_off_c, 0, 48, 64
3, 78240, Note_on_c, 0, 46, 96
3, 78432, Note_off_c, 0, 46, 64
3, 78480, Note_on_c, 0, 45, 96
3, 78528, Note_off_c, 0, 54, 64
3, 78672, Note_off_c, 0, 45, 64
3, 78720, Note_on_c, 0, 43, 96
3, 78816, Note_off_c, 0, 43, 64
3, 78840, Note_on_c, 0, 38, 96
3, 78936, Note_off_c, 0, 38, 64
3, 78960, Note_on_c, 0, 40, 96
3, 79056, Note_off_c, 0, 40, 64
3, 79080, Note_on_c, 0, 41, 96
3, 79176, Note_off_c, 0, 41, 64
3, 79200, Note_on_c, 0, 43, 96
3, 79296, Note_off_c, 0, 43, 64
3, 79320, Note_on_c, 0, 45, 96
3, 79416, Note_off_c, 0, 45, 64
3, 79440, Note_on_c, 0, 46, 96
3, 79536, Note_off_c, 0, 46, 64
3, 79560, Note_on_c, 0, 43, 96
3, 79656, Note_off_c, 0, 43, 64
3, 79680, Note_on_c, 0, 49, 96
3, 79776, Note_off_c, 0, 49, 64
3, 79800, Note_on_c, 0, 45, 96
3, 79896, Note_off_c, 0, 45, 64
3, 79920, Note_on_c, 0, 47, 96
3, 80016, Note_off_c, 0, 47, 64
3, 80040, Note_on_c, 0, 49, 96
3, 80136, Note_off_c, 0, 49, 64
3, 80160, Note_on_c, 0, 50, 96
3, 80256, Note_off_c, 0, 50, 64
3, 80280, Note_on_c, 0, 52, 96
3, 80376, Note_off_c, 0, 52, 64
3, 80400, Note_on_c, 0, 53, 96
3, 80496, Note_off_c, 0, 53, 64
3, 80520, Note_on_c, 0, 50, 96
3, 80616, Note_off_c, 0, 50, 64
3, 80640, Note_on_c, 0, 56, 96
3, 80736, Note_off_c, 0, 56, 64
3, 80760, Note_on_c, 0, 52, 96
3, 80856, Note_off_c, 0, 52, 64
3, 80880, Note_on_c, 0, 54, 96
3, 80976, Note_off_c, 0, 54, 64
3, 81000, Note_on_c, 0, 56, 96
3, 81096, Note_off_c, 0, 56, 64
3, 81120, Note_on_c, 0, 57, 96
3, 81216, Note_off_c, 0, 57, 64
3, 81240, Note_on_c, 0, 58, 96
3, 81336, Note_off_c, 0, 58, 64
3, 81360, Note_on_c, 0, 60, 96
3, 81456, Note_off_c, 0, 60, 64
3, 81480, Note_on_c, 0, 57, 96
3, 81576, Note_off_c, 0, 57, 64
3, 81600, Note_on_c, 0, 54, 96
3, 81696, Note_off_c, 0, 54, 64
3, 81720, Note_on_c, 0, 50, 96
3, 81816, Note_off_c, 0, 50, 64
3, 81840, Note_on_c, 0, 52, 96
3, 81936, Note_off_c, 0, 52, 64
3, 81960, Note_on_c, 0, 54, 96
3, 82056, Note_off_c, 0, 54, 64
3, 82080, Note_on_c, 0, 55, 96
3, 82944, Note_off_c, 0, 55, 64
3, 83040, Note_on_c, 0, 53, 96
3, 83232, Note_off_c, 0, 53, 64
3, 83280, Note_on_c, 0, 50, 96
3, 83472, Note_off_c, 0, 50, 64
3, 83520, Note_on_c, 0, 52, 96
3, 83712, Note_off_c, 0, 52, 64
3, 83760, Note_on_c, 0, 55, 96
3, 83952, Note_off_c, 0, 55, 64
3, 84000, Note_on_c, 0, 57, 96
3, 84192, Note_off_c, 0, 57, 64
3, 84240, Note_on_c, 0, 45, 96
3, 84432, Note_off_c, 0, 45, 64
3, 84480, Note_on_c, 0, 50, 96
3, 84576, Note_off_c, 0, 50, 64
3, 84600, Note_on_c, 0, 62, 96
3, 84696, Note_off_c, 0, 62, 64
3, 84720, Note_on_c, 0, 60, 96
3, 84816, Note_off_c, 0, 60, 64
3, 84840, Note_on_c, 0, 58, 96
3, 84936, Note_off_c, 0, 58, 64
3, 84960, Note_on_c, 0, 57, 96
3, 85056, Note_off_c, 0, 57, 64
3, 85080, Note_on_c, 0, 58, 96
3, 85176, Note_off_c, 0, 58, 64
3, 85200, Note_on_c, 0, 60, 96
3, 85296, Note_off_c, 0, 60, 64
3, 85320, Note_on_c, 0, 57, 96
3, 85416, Note_off_c, 0, 57, 64
3, 85440, Note_on_c, 0, 53, 96
3, 85536, Note_off_c, 0, 53, 64
3, 85560, Note_on_c, 0, 58, 96
3, 85656, Note_off_c, 0, 58, 64
3, 85680, Note_on_c, 0, 57, 96
3, 85776, Note_off_c, 0, 57, 64
3, 85800, Note_on_c, 0, 55, 96
3, 85896, Note_off_c, 0, 55, 64
3, 85920, Note_on_c, 0, 53, 96
3, 86016, Note_off_c, 0, 53, 64
3, 86040, Note_on_c, 0, 55, 96
3, 86136, Note_off_c, 0, 55, 64
3, 86160, Note_on_c, 0, 57, 96
3, 86256, Note_off_c, 0, 57, 64
3, 86280, Note_on_c, 0, 53, 96
3, 86376, Note_off_c, 0, 53, 64
3, 86400, Note_on_c, 0, 50, 96
3, 86496, Note_off_c, 0, 50, 64
3, 86520, Note_on_c, 0, 48, 96
3, 86616, Note_off_c, 0, 48, 64
3, 86640, Note_on_c, 0, 50, 96
3, 86736, Note_off_c, 0, 50, 64
3, 86760, Note_on_c, 0, 52, 96
3, 86856, Note_off_c, 0, 52, 64
3, 86880, Note_on_c, 0, 53, 96
3, 86976, Note_off_c, 0, 53, 64
3, 87000, Note_on_c, 0, 52, 96
3, 87096, Note_off_c, 0, 52, 64
3, 87120, Note_on_c, 0, 50, 96
3, 87216, Note_off_c, 0, 50, 64
3, 87240, Note_on_c, 0, 53, 96
3, 87336, Note_off_c, 0, 53, 64
3, 87360, Note_on_c, 0, 55, 96
3, 87456, Note_off_c, 0, 55, 64
3, 87480, Note_on_c, 0, 43, 96
3, 87576, Note_off_c, 0, 43, 64
3, 87600, Note_on_c, 0, 45, 96
3, 87696, Note_off_c, 0, 45, 64
3, 87720, Note_on_c, 0, 46, 96
3, 87816, Note_off_c, 0, 46, 64
3, 87840, Note_on_c, 0, 48, 96
3, 87936, Note_off_c, 0, 48, 64
3, 87960, Note_on_c, 0, 50, 96
3, 88056, Note_off_c, 0, 50, 64
3, 88080, Note_on_c, 0, 51, 96
3, 88176, Note_off_c, 0, 51, 64
3, 88200, Note_on_c, 0, 48, 96
3, 88296, Note_off_c, 0, 48, 64
3, 88320, Note_on_c, 0, 53, 96
3, 89280, Note_on_c, 0, 57, 96
3, 89376, Note_off_c, 0, 57, 64
3, 89400, Note_on_c, 0, 55, 96
3, 89496, Note_off_c, 0, 55, 64
3, 89520, Note_on_c, 0, 57, 96
3, 89616, Note_off_c, 0, 57, 64
3, 89640, Note_on_c, 0, 58, 96
3, 89736, Note_off_c, 0, 58, 64
3, 89760, Note_on_c, 0, 60, 96
3, 89856, Note_off_c, 0, 53, 64
3, 90000, Note_on_c, 0, 52, 96
3, 90192, Note_off_c, 0, 52, 64
3, 90240, Note_on_c, 0, 50, 96
3, 90432, Note_off_c, 0, 50, 64
3, 90480, Note_on_c, 0, 52, 96
3, 90576, Note_off_c, 0, 52, 64
3, 90600, Note_on_c, 0, 53, 96
3, 90624, Note_off_c, 0, 60, 64
3, 90696, Note_off_c, 0, 53, 64
3, 90720, Note_on_c, 0, 59, 96
3, 90720, Note_on_c, 0, 55, 96
3, 90816, Note_off_c, 0, 55, 64
3, 90840, Note_on_c, 0, 57, 96
3, 90936, Note_off_c, 0, 57, 64
3, 90960, Note_on_c, 0, 59, 96
3, 91056, Note_off_c, 0, 59, 64
3, 91080, Note_on_c, 0, 55, 96
3, 91176, Note_off_c, 0, 55, 64
3, 91200, Note_on_c, 0, 48, 96
3, 91584, Note_off_c, 0, 48, 64
3, 91584, Note_off_c, 0, 59, 64
3, 91680, Note_on_c, 0, 53, 96
3, 91680, Note_on_c, 0, 57, 96
3, 92256, Note_off_c, 0, 53, 64
3, 92280, Note_on_c, 0, 47, 96
3, 92376, Note_off_c, 0, 47, 64
3, 92400, Note_on_c, 0, 48, 96
3, 92496, Note_off_c, 0, 48, 64
3, 92520, Note_on_c, 0, 50, 96
3, 92544, Note_off_c, 0, 57, 64
3, 92616, Note_off_c, 0, 50, 64
3, 92640, Note_on_c, 0, 52, 96
3, 92736, Note_off_c, 0, 52, 64
3, 92760, Note_on_c, 0, 54, 96
3, 92856, Note_off_c, 0, 54, 64
3, 92880, Note_on_c, 0, 56, 96
3, 92976, Note_off_c, 0, 56, 64
3, 93000, Note_on_c, 0, 52, 96
3, 93096, Note_off_c, 0, 52, 64
3, 93120, Note_on_c, 0, 57, 96
3, 93696, Note_off_c, 0, 57, 64
3, 93720, Note_on_c, 0, 60, 96
3, 93816, Note_off_c, 0, 60, 64
3, 93840, Note_on_c, 0, 58, 96
3, 93936, Note_off_c, 0, 58, 64
3, 93960, Note_on_c, 0, 57, 96
3, 94056, Note_off_c, 0, 57, 64
3, 94080, Note_on_c, 0, 55, 96
3, 94848, Note_off_c, 0, 55, 64
3, 95040, Note_on_c, 0, 57, 96
3, 95808, Note_off_c, 0, 57, 64
3, 96120, Note_on_c, 0, 52, 96
3, 96216, Note_off_c, 0, 52, 64
3, 96240, Note_on_c, 0, 54, 96
3, 96336, Note_off_c, 0, 54, 64
3, 96360, Note_on_c, 0, 56, 96
3, 96456, Note_off_c, 0, 56, 64
3, 96480, Note_on_c, 0, 57, 96
3, 96576, Note_off_c, 0, 57, 64
3, 96600, Note_on_c, 0, 59, 96
3, 96696, Note_off_c, 0, 59, 64
3, 96720, Note_on_c, 0, 60, 96
3, 96816, Note_off_c, 0, 60, 64
3, 96840, Note_on_c, 0, 57, 96
3, 96936, Note_off_c, 0, 57, 64
3, 96960, Note_on_c, 0, 53, 96
3, 97056, Note_off_c, 0, 53, 64
3, 97080, Note_on_c, 0, 50, 96
3, 97176, Note_off_c, 0, 50, 64
3, 97200, Note_on_c, 0, 52, 96
3, 97296, Note_off_c, 0, 52, 64
3, 97320, Note_on_c, 0, 53, 96
3, 97416, Note_off_c, 0, 53, 64
3, 97440, Note_on_c, 0, 55, 96
3, 97536, Note_off_c, 0, 55, 64
3, 97560, Note_on_c, 0, 57, 96
3, 97656, Note_off_c, 0, 57, 64
3, 97680, Note_on_c, 0, 58, 96
3, 97776, Note_off_c, 0, 58, 64
3, 97800, Note_on_c, 0, 55, 96
3, 97896, Note_off_c, 0, 55, 64
3, 97920, Note_on_c, 0, 60, 96
3, 98112, Note_off_c, 0, 60, 64
3, 98160, Note_on_c, 0, 55, 96
3, 98352, Note_off_c, 0, 55, 64
3, 98400, Note_on_c, 0, 57, 96
3, 98592, Note_off_c, 0, 57, 64
3, 98640, Note_on_c, 0, 60, 96
3, 98832, Note_off_c, 0, 60, 64
3, 98880, Note_on_c, 0, 58, 96
3, 99072, Note_off_c, 0, 58, 64
3, 99120, Note_on_c, 0, 57, 96
3, 99312, Note_off_c, 0, 57, 64
3, 99360, Note_on_c, 0, 55, 96
3, 100032, Note_off_c, 0, 55, 64
3, 100080, Note_on_c, 0, 58, 96
3, 100176, Note_off_c, 0, 58, 64
3, 100200, Note_on_c, 0, 57, 96
3, 100296, Note_off_c, 0, 57, 64
3, 100320, Note_on_c, 0, 58, 96
3, 100704, Note_off_c, 0, 58, 64
3, 100800, Note_on_c, 0, 57, 96
3, 101184, Note_off_c, 0, 57, 64
3, 101280, Note_on_c, 0, 58, 96
3, 101952, Note_off_c, 0, 58, 64
3, 102000, Note_on_c, 0, 57, 96
3, 102192, Note_off_c, 0, 57, 64
3, 102240, Note_on_c, 0, 55, 96
3, 102624, Note_off_c, 0, 55, 64
3, 102720, Note_on_c, 0, 53, 96
3, 103296, Note_off_c, 0, 53, 64
3, 103320, Note_on_c, 0, 55, 96
3, 103416, Note_off_c, 0, 55, 64
3, 103440, Note_on_c, 0, 57, 96
3, 103536, Note_off_c, 0, 57, 64
3, 103560, Note_on_c, 0, 58, 96
3, 103656, Note_off_c, 0, 58, 64
3, 103680, Note_on_c, 0, 60, 96
3, 104256, Note_off_c, 0, 60, 64
3, 104280, Note_on_c, 0, 48, 96
3, 104376, Note_off_c, 0, 48, 64
3, 104400, Note_on_c, 0, 50, 96
3, 104496, Note_off_c, 0, 50, 64
3, 104520, Note_on_c, 0, 52, 96
3, 104616, Note_off_c, 0, 52, 64
3, 104640, Note_on_c, 0, 53, 96
3, 104736, Note_off_c, 0, 53, 64
3, 104760, Note_on_c, 0, 55, 96
3, 104856, Note_off_c, 0, 55, 64
3, 104880, Note_on_c, 0, 57, 96
3, 104976, Note_off_c, 0, 57, 64
3, 105000, Note_on_c, 0, 53, 96
3, 105096, Note_off_c, 0, 53, 64
3, 105120, Note_on_c, 0, 59, 96
3, 105216, Note_off_c, 0, 59, 64
3, 105240, Note_on_c, 0, 47, 96
3, 105336, Note_off_c, 0, 47, 64
3, 105360, Note_on_c, 0, 48, 96
3, 105456, Note_off_c, 0, 48, 64
3, 105480, Note_on_c, 0, 50, 96
3, 105576, Note_off_c, 0, 50, 64
3, 105600, Note_on_c, 0, 52, 96
3, 105696, Note_off_c, 0, 52, 64
3, 105720, Note_on_c, 0, 53, 96
3, 105816, Note_off_c, 0, 53, 64
3, 105840, Note_on_c, 0, 55, 96
3, 105936, Note_off_c, 0, 55, 64
3, 105960, Note_on_c, 0, 52, 96
3, 106056, Note_off_c, 0, 52, 64
3, 106080, Note_on_c, 0, 57, 96
3, 106176, Note_off_c, 0, 57, 64
3, 106200, Note_on_c, 0, 45, 96
3, 106296, Note_off_c, 0, 45, 64
3, 106320, Note_on_c, 0, 47, 96
3, 106416, Note_off_c, 0, 47, 64
3, 106440, Note_on_c, 0, 48, 96
3, 106536, Note_off_c, 0, 48, 64
3, 106560, Note_on_c, 0, 50, 96
3, 106656, Note_off_c, 0, 50, 64
3, 106680, Note_on_c, 0, 52, 96
3, 106776, Note_off_c, 0, 52, 64
3, 106800, Note_on_c, 0, 53, 96
3, 106896, Note_off_c, 0, 53, 64
3, 106920, Note_on_c, 0, 50, 96
3, 107016, Note_off_c, 0, 50, 64
3, 107040, Note_on_c, 0, 55, 96
3, 107136, Note_off_c, 0, 55, 64
3, 107160, Note_on_c, 0, 52, 96
3, 107256, Note_off_c, 0, 52, 64
3, 107280, Note_on_c, 0, 53, 96
3, 107376, Note_off_c, 0, 53, 64
3, 107400, Note_on_c, 0, 55, 96
3, 107496, Note_off_c, 0, 55, 64
3, 107520, Note_on_c, 0, 48, 96
3, 107616, Note_off_c, 0, 48, 64
3, 107640, Note_on_c, 0, 55, 96
3, 107736, Note_off_c, 0, 55, 64
3, 107760, Note_on_c, 0, 57, 96
3, 107856, Note_off_c, 0, 57, 64
3, 107880, Note_on_c, 0, 59, 96
3, 107976, Note_off_c, 0, 59, 64
3, 108000, Note_on_c, 0, 60, 96
3, 109056, Note_off_c, 0, 60, 64
3, 109080, Note_on_c, 0, 60, 96
3, 109176, Note_off_c, 0, 60, 64
3, 109200, Note_on_c, 0, 59, 96
3, 109296, Note_off_c, 0, 59, 64
3, 109320, Note_on_c, 0, 57, 96
3, 109416, Note_off_c, 0, 57, 64
3, 109440, Note_on_c, 0, 56, 96
3, 109536, Note_off_c, 0, 56, 64
3, 109560, Note_on_c, 0, 57, 96
3, 109656, Note_off_c, 0, 57, 64
3, 109680, Note_on_c, 0, 59, 96
3, 109776, Note_off_c, 0, 59, 64
3, 109800, Note_on_c, 0, 56, 96
3, 109896, Note_off_c, 0, 56, 64
3, 109920, Note_on_c, 0, 48, 96
3, 110040, Note_on_c, 0, 52, 96
3, 110136, Note_off_c, 0, 52, 64
3, 110160, Note_on_c, 0, 54, 96
3, 110256, Note_off_c, 0, 54, 64
3, 110280, Note_on_c, 0, 56, 96
3, 110376, Note_off_c, 0, 56, 64
3, 110400, Note_on_c, 0, 57, 96
3, 110496, Note_off_c, 0, 57, 64
3, 110520, Note_on_c, 0, 59, 96
3, 110616, Note_off_c, 0, 59, 64
3, 110640, Note_on_c, 0, 60, 96
3, 110736, Note_off_c, 0, 60, 64
3, 110760, Note_on_c, 0, 57, 96
3, 110784, Note_off_c, 0, 48, 64
3, 110856, Note_off_c, 0, 57, 64
3, 110880, Note_on_c, 0, 62, 96
3, 110880, Note_on_c, 0, 53, 96
3, 111744, Note_off_c, 0, 62, 64
3, 111744, Note_off_c, 0, 53, 64
3, 111840, Note_on_c, 0, 60, 96
3, 111840, Note_on_c, 0, 52, 96
3, 112224, Note_off_c, 0, 52, 64
3, 112224, Note_off_c, 0, 60, 64
3, 112320, Note_on_c, 0, 50, 96
3, 112320, Note_on_c, 0, 59, 96
3, 112704, Note_off_c, 0, 50, 64
3, 112800, Note_on_c, 0, 52, 96
3, 113088, Note_off_c, 0, 59, 64
3, 113280, Note_on_c, 0, 57, 96
3, 113376, Note_off_c, 0, 52, 64
3, 113400, Note_on_c, 0, 52, 96
3, 113496, Note_off_c, 0, 52, 64
3, 113520, Note_on_c, 0, 54, 96
3, 113616, Note_off_c, 0, 54, 64
3, 113640, Note_on_c, 0, 56, 96
3, 113664, Note_off_c, 0, 57, 64
3, 113736, Note_off_c, 0, 56, 64
3, 113760, Note_on_c, 0, 57, 96
3, 113856, Note_off_c, 0, 57, 64
3, 113880, Note_on_c, 0, 59, 96
3, 113976, Note_off_c, 0, 59, 64
3, 114000, Note_on_c, 0, 60, 96
3, 114096, Note_off_c, 0, 60, 64
3, 114120, Note_on_c, 0, 57, 96
3, 114216, Note_off_c, 0, 57, 64
3, 114240, Note_on_c, 0, 55, 96
3, 114816, Note_off_c, 0, 55, 64
3, 114960, Note_on_c, 0, 54, 96
3, 115152, Note_off_c, 0, 54, 64
3, 115200, Note_on_c, 0, 55, 96
3, 115968, Note_off_c, 0, 55, 64
3, 117240, Note_on_c, 0, 55, 96
3, 117336, Note_off_c, 0, 55, 64
3, 117360, Note_on_c, 0, 57, 96
3, 117456, Note_off_c, 0, 57, 64
3, 117480, Note_on_c, 0, 58, 96
3, 117576, Note_off_c, 0, 58, 64
3, 117600, Note_on_c, 0, 60, 96
3, 117696, Note_off_c, 0, 60, 64
3, 117720, Note_on_c, 0, 62, 96
3, 117816, Note_off_c, 0, 62, 64
3, 117840, Note_on_c, 0, 63, 96
3, 117936, Note_off_c, 0, 63, 64
3, 117960, Note_on_c, 0, 60, 96
3, 118056, Note_off_c, 0, 60, 64
3, 118080, Note_on_c, 0, 62, 96
3, 118464, Note_off_c, 0, 62, 64
3, 119160, Note_on_c, 0, 65, 96
3, 119256, Note_off_c, 0, 65, 64
3, 119280, Note_on_c, 0, 64, 96
3, 119376, Note_off_c, 0, 64, 64
3, 119400, Note_on_c, 0, 62, 96
3, 119496, Note_off_c, 0, 62, 64
3, 119520, Note_on_c, 0, 61, 96
3, 119616, Note_off_c, 0, 61, 64
3, 119640, Note_on_c, 0, 62, 96
3, 119736, Note_off_c, 0, 62, 64
3, 119760, Note_on_c, 0, 64, 96
3, 119856, Note_off_c, 0, 64, 64
3, 119880, Note_on_c, 0, 61, 96
3, 119976, Note_off_c, 0, 61, 64
3, 120000, Note_on_c, 0, 62, 96
3, 120768, Note_off_c, 0, 62, 64
3, 122040, Note_on_c, 0, 50, 96
3, 122136, Note_off_c, 0, 50, 64
3, 122160, Note_on_c, 0, 52, 96
3, 122256, Note_off_c, 0, 52, 64
3, 122280, Note_on_c, 0, 53, 96
3, 122376, Note_off_c, 0, 53, 64
3, 122400, Note_on_c, 0, 55, 96
3, 122496, Note_off_c, 0, 55, 64
3, 122520, Note_on_c, 0, 57, 96
3, 122616, Note_off_c, 0, 57, 64
3, 122640, Note_on_c, 0, 58, 96
3, 122736, Note_off_c, 0, 58, 64
3, 122760, Note_on_c, 0, 55, 96
3, 122856, Note_off_c, 0, 55, 64
3, 122880, Note_on_c, 0, 52, 96
3, 123072, Note_off_c, 0, 52, 64
3, 123120, Note_on_c, 0, 53, 96
3, 123312, Note_off_c, 0, 53, 64
3, 123360, Note_on_c, 0, 55, 96
3, 123744, Note_off_c, 0, 55, 64
3, 123840, Note_on_c, 0, 57, 96
3, 124224, Note_off_c, 0, 57, 64
3, 124920, Note_on_c, 0, 63, 96
3, 125016, Note_off_c, 0, 63, 64
3, 125040, Note_on_c, 0, 62, 96
3, 125136, Note_off_c, 0, 62, 64
3, 125160, Note_on_c, 0, 60, 96
3, 125256, Note_off_c, 0, 60, 64
3, 125280, Note_on_c, 0, 58, 96
3, 125376, Note_off_c, 0, 58, 64
3, 125400, Note_on_c, 0, 57, 96
3, 125496, Note_off_c, 0, 57, 64
3, 125520, Note_on_c, 0, 55, 96
3, 125616, Note_off_c, 0, 55, 64
3, 125640, Note_on_c, 0, 58, 96
3, 125736, Note_off_c, 0, 58, 64
3, 125760, Note_on_c, 0, 54, 96
3, 125880, Note_on_c, 0, 50, 96
3, 125952, Note_off_c, 0, 54, 64
3, 125976, Note_off_c, 0, 50, 64
3, 126000, Note_on_c, 0, 52, 96
3, 126000, Note_on_c, 0, 57, 96
3, 126096, Note_off_c, 0, 52, 64
3, 126120, Note_on_c, 0, 54, 96
3, 126192, Note_off_c, 0, 57, 64
3, 126216, Note_off_c, 0, 54, 64
3, 126240, Note_on_c, 0, 62, 96
3, 126240, Note_on_c, 0, 55, 96
3, 126336, Note_off_c, 0, 55, 64
3, 126360, Note_on_c, 0, 57, 96
3, 126456, Note_off_c, 0, 57, 64
3, 126480, Note_on_c, 0, 58, 96
3, 126576, Note_off_c, 0, 58, 64
3, 126600, Note_on_c, 0, 55, 96
3, 126624, Note_off_c, 0, 62, 64
3, 126696, Note_off_c, 0, 55, 64
3, 126720, Note_on_c, 0, 49, 96
3, 126720, Note_on_c, 0, 64, 96
3, 126912, Note_off_c, 0, 64, 64
3, 126912, Note_off_c, 0, 49, 64
3, 126960, Note_on_c, 0, 57, 96
3, 126960, Note_on_c, 0, 50, 96
3, 127152, Note_off_c, 0, 50, 64
3, 127152, Note_off_c, 0, 57, 64
3, 127200, Note_on_c, 0, 58, 96
3, 127200, Note_on_c, 0, 55, 96
3, 127584, Note_off_c, 0, 55, 64
3, 127584, Note_off_c, 0, 58, 64
3, 127680, Note_on_c, 0, 57, 96
3, 127680, Note_on_c, 0, 53, 96
3, 127872, Note_off_c, 0, 53, 64
3, 127872, Note_off_c, 0, 57, 64
3, 128400, Note_on_c, 0, 55, 96
3, 128400, Note_on_c, 0, 58, 96
3, 128592, Note_off_c, 0, 58, 64
3, 128592, Note_off_c, 0, 55, 64
3, 128640, Note_on_c, 0, 53, 96
3, 128640, Note_on_c, 0, 57, 96
3, 128832, Note_off_c, 0, 53, 64
3, 128880, Note_on_c, 0, 52, 96
3, 128976, Note_off_c, 0, 52, 64
3, 129000, Note_on_c, 0, 50, 96
3, 129096, Note_off_c, 0, 50, 64
3, 129120, Note_on_c, 0, 52, 96
3, 129504, Note_off_c, 0, 52, 64
3, 129600, Note_on_c, 0, 50, 96
3, 130368, Note_off_c, 0, 50, 64
3, 130368, Note_off_c, 0, 57, 64
3, 130368, End_track
4, 0, Start_track
4, 0, Title_t, "Midi by Gary Bricault, 2000"
4, 0, Program_c, 0, 0
4, 93120, Note_on_c, 0, 45, 127
4, 93888, Note_off_c, 0, 45, 64
4, 94080, Note_on_c, 0, 48, 127
4, 94848, Note_off_c, 0, 48, 64
4, 95040, Note_on_c, 0, 45, 127
4, 95808, Note_off_c, 0, 45, 64
4, 96000, Note_on_c, 0, 45, 127
4, 96768, Note_off_c, 0, 45, 64
4, 96960, Note_on_c, 0, 46, 127
4, 97728, Note_off_c, 0, 46, 64
4, 97920, Note_on_c, 0, 45, 127
4, 98688, Note_off_c, 0, 45, 64
4, 98880, Note_on_c, 0, 43, 127
4, 100608, Note_off_c, 0, 43, 64
4, 100800, Note_on_c, 0, 41, 127
4, 103104, Note_off_c, 0, 41, 64
4, 113280, Note_on_c, 0, 45, 127
4, 114048, Note_off_c, 0, 45, 64
4, 114240, Note_on_c, 0, 48, 127
4, 115008, Note_off_c, 0, 48, 64
4, 115200, Note_on_c, 0, 43, 127
4, 115968, Note_off_c, 0, 43, 64
4, 116160, Note_on_c, 0, 43, 127
4, 116928, Note_off_c, 0, 43, 64
4, 117120, Note_on_c, 0, 43, 127
4, 117888, Note_off_c, 0, 43, 64
4, 118080, Note_on_c, 0, 43, 127
4, 118848, Note_off_c, 0, 43, 64
4, 119040, Note_on_c, 0, 43, 127
4, 119808, Note_off_c, 0, 43, 64
4, 120000, Note_on_c, 0, 38, 127
4, 120768, Note_off_c, 0, 38, 64
4, 120960, Note_on_c, 0, 41, 127
4, 121728, Note_off_c, 0, 41, 64
4, 121920, Note_on_c, 0, 40, 127
4, 123648, Note_off_c, 0, 40, 64
4, 123840, Note_on_c, 0, 38, 127
4, 127872, Note_off_c, 0, 38, 64
4, 127920, Note_on_c, 0, 40, 127
4, 128112, Note_off_c, 0, 40, 64
4, 128160, Note_on_c, 0, 41, 127
4, 128352, Note_off_c, 0, 41, 64
4, 128400, Note_on_c, 0, 43, 127
4, 128592, Note_off_c, 0, 43, 64
4, 128640, Note_on_c, 0, 45, 127
4, 129408, Note_off_c, 0, 45, 64
4, 129600, Note_on_c, 0, 38, 127
4, 130368, Note_off_c, 0, 38, 64
4, 130368, End_track
0, 0, End_of_file
