0, 0, Header, 1, 4, 240
1, 0, Start_track
1, 0, Title_t, "untitled"
1, 0, SMPTE_offset, 96, 0, 3, 0, 0
1, 0, Time_signature, 1, 2, 24, 8
1, 0, Key_signature, 0, "major"
1, 0, Tempo, 300000
1, 240, Time_signature, 4, 2, 24, 8
1, 22320, Time_signature, 3, 2, 24, 8
1, 23040, Time_signature, 1, 2, 24, 8
1, 23280, Time_signature, 4, 2, 24, 8
1, 45360, Time_signature, 3, 2, 24, 8
1, 46080, Time_signature, 1, 2, 24, 8
1, 46320, Time_signature, 4, 2, 24, 8
1, 76080, Time_signature, 3, 2, 24, 8
1, 76800, Time_signature, 1, 2, 24, 8
1, 77040, Time_signature, 4, 2, 24, 8
1, 106800, Time_signature, 3, 2, 24, 8
1, 106800, End_track
2, 0, Start_track
2, 0, MIDI_port, 0
2, 0, Title_t, "English Suite 2, 5. Bourree 1"
2, 0, Program_c, 0, 0
2, 0, Control_c, 0, 7, 100
2, 0, Control_c, 0, 10, 64
2, 0, Note_on_c, 0, 81, 93
2, 192, Note_on_c, 0, 81, 0
2, 240, Note_on_c, 0, 76, 93
2, 264, Note_on_c, 0, 76, 0
2, 270, Note_on_c, 0, 77, 93
2, 294, Note_on_c, 0, 77, 0
2, 300, Note_on_c, 0, 76, 93
2, 413, Note_on_c, 0, 76, 0
2, 480, Note_on_c, 0, 74, 93
2, 576, Note_on_c, 0, 74, 0
2, 600, Note_on_c, 0, 76, 93
2, 696, Note_on_c, 0, 76, 0
2, 720, Note_on_c, 0, 77, 93
2, 912, Note_on_c, 0, 77, 0
2, 960, Note_on_c, 0, 76, 93
2, 1056, Note_on_c, 0, 76, 0
2, 1080, Note_on_c, 0, 74, 93
2, 1176, Note_on_c, 0, 74, 0
2, 1200, Note_on_c, 0, 76, 93
2, 1380, Note_on_c, 0, 76, 0
2, 1440, Note_on_c, 0, 69, 93
2, 1620, Note_on_c, 0, 69, 0
2, 1680, Note_on_c, 0, 69, 93
2, 1860, Note_on_c, 0, 69, 0
2, 1920, Note_on_c, 0, 81, 93
2, 2112, Note_on_c, 0, 81, 0
2, 2160, Note_on_c, 0, 76, 93
2, 2184, Note_on_c, 0, 76, 0
2, 2190, Note_on_c, 0, 77, 93
2, 2214, Note_on_c, 0, 77, 0
2, 2220, Note_on_c, 0, 76, 93
2, 2364, Note_on_c, 0, 76, 0
2, 2400, Note_on_c, 0, 74, 93
2, 2496, Note_on_c, 0, 74, 0
2, 2520, Note_on_c, 0, 76, 93
2, 2616, Note_on_c, 0, 76, 0
2, 2640, Note_on_c, 0, 77, 93
2, 2832, Note_on_c, 0, 77, 0
2, 2880, Note_on_c, 0, 76, 93
2, 2976, Note_on_c, 0, 76, 0
2, 3000, Note_on_c, 0, 74, 93
2, 3096, Note_on_c, 0, 74, 0
2, 3120, Note_on_c, 0, 76, 93
2, 3312, Note_on_c, 0, 76, 0
2, 3360, Note_on_c, 0, 74, 93
2, 3456, Note_on_c, 0, 74, 0
2, 3480, Note_on_c, 0, 72, 93
2, 3576, Note_on_c, 0, 72, 0
2, 3600, Note_on_c, 0, 74, 93
2, 3792, Note_on_c, 0, 74, 0
2, 3840, Note_on_c, 0, 72, 93
2, 3936, Note_on_c, 0, 72, 0
2, 3960, Note_on_c, 0, 74, 93
2, 4056, Note_on_c, 0, 74, 0
2, 4080, Note_on_c, 0, 76, 93
2, 4272, Note_on_c, 0, 76, 0
2, 4320, Note_on_c, 0, 74, 93
2, 4416, Note_on_c, 0, 74, 0
2, 4440, Note_on_c, 0, 72, 93
2, 4536, Note_on_c, 0, 72, 0
2, 4560, Note_on_c, 0, 74, 93
2, 4752, Note_on_c, 0, 74, 0
2, 4800, Note_on_c, 0, 72, 93
2, 4896, Note_on_c, 0, 72, 0
2, 4920, Note_on_c, 0, 71, 93
2, 5016, Note_on_c, 0, 71, 0
2, 5040, Note_on_c, 0, 72, 93
2, 5232, Note_on_c, 0, 72, 0
2, 5280, Note_on_c, 0, 71, 93
2, 5376, Note_on_c, 0, 71, 0
2, 5400, Note_on_c, 0, 72, 93
2, 5496, Note_on_c, 0, 72, 0
2, 5520, Note_on_c, 0, 74, 93
2, 5712, Note_on_c, 0, 74, 0
2, 5760, Note_on_c, 0, 72, 93
2, 5856, Note_on_c, 0, 72, 0
2, 5880, Note_on_c, 0, 74, 93
2, 5976, Note_on_c, 0, 74, 0
2, 6000, Note_on_c, 0, 76, 93
2, 6096, Note_on_c, 0, 76, 0
2, 6120, Note_on_c, 0, 74, 93
2, 6216, Note_on_c, 0, 74, 0
2, 6240, Note_on_c, 0, 72, 93
2, 6336, Note_on_c, 0, 72, 0
2, 6360, Note_on_c, 0, 76, 93
2, 6456, Note_on_c, 0, 76, 0
2, 6480, Note_on_c, 0, 74, 93
2, 6576, Note_on_c, 0, 74, 0
2, 6600, Note_on_c, 0, 72, 93
2, 6696, Note_on_c, 0, 72, 0
2, 6720, Note_on_c, 0, 71, 93
2, 6816, Note_on_c, 0, 71, 0
2, 6840, Note_on_c, 0, 72, 93
2, 6936, Note_on_c, 0, 72, 0
2, 6960, Note_on_c, 0, 74, 93
2, 7056, Note_on_c, 0, 74, 0
2, 7080, Note_on_c, 0, 72, 93
2, 7176, Note_on_c, 0, 72, 0
2, 7200, Note_on_c, 0, 71, 93
2, 7296, Note_on_c, 0, 71, 0
2, 7320, Note_on_c, 0, 72, 93
2, 7416, Note_on_c, 0, 72, 0
2, 7440, Note_on_c, 0, 69, 93
2, 7536, Note_on_c, 0, 69, 0
2, 7560, Note_on_c, 0, 72, 93
2, 7656, Note_on_c, 0, 72, 0
2, 7680, Note_on_c, 0, 71, 93
2, 7776, Note_on_c, 0, 71, 0
2, 7800, Note_on_c, 0, 74, 93
2, 7896, Note_on_c, 0, 74, 0
2, 7920, Note_on_c, 0, 72, 93
2, 8016, Note_on_c, 0, 72, 0
2, 8040, Note_on_c, 0, 71, 93
2, 8136, Note_on_c, 0, 71, 0
2, 8160, Note_on_c, 0, 69, 93
2, 8256, Note_on_c, 0, 69, 0
2, 8280, Note_on_c, 0, 76, 93
2, 8376, Note_on_c, 0, 76, 0
2, 8400, Note_on_c, 0, 72, 93
2, 8496, Note_on_c, 0, 72, 0
2, 8520, Note_on_c, 0, 71, 93
2, 8616, Note_on_c, 0, 71, 0
2, 8640, Note_on_c, 0, 69, 93
2, 8736, Note_on_c, 0, 69, 0
2, 8760, Note_on_c, 0, 76, 93
2, 8856, Note_on_c, 0, 76, 0
2, 8880, Note_on_c, 0, 72, 93
2, 8976, Note_on_c, 0, 72, 0
2, 9000, Note_on_c, 0, 71, 93
2, 9096, Note_on_c, 0, 71, 0
2, 9120, Note_on_c, 0, 69, 93
2, 9216, Note_on_c, 0, 69, 0
2, 9240, Note_on_c, 0, 74, 93
2, 9336, Note_on_c, 0, 74, 0
2, 9360, Note_on_c, 0, 72, 93
2, 9456, Note_on_c, 0, 72, 0
2, 9480, Note_on_c, 0, 71, 93
2, 9576, Note_on_c, 0, 71, 0
2, 9600, Note_on_c, 0, 69, 93
2, 9696, Note_on_c, 0, 69, 0
2, 9720, Note_on_c, 0, 74, 93
2, 9816, Note_on_c, 0, 74, 0
2, 9840, Note_on_c, 0, 71, 93
2, 9936, Note_on_c, 0, 71, 0
2, 9960, Note_on_c, 0, 69, 93
2, 10056, Note_on_c, 0, 69, 0
2, 10080, Note_on_c, 0, 67, 93
2, 10176, Note_on_c, 0, 67, 0
2, 10200, Note_on_c, 0, 74, 93
2, 10296, Note_on_c, 0, 74, 0
2, 10320, Note_on_c, 0, 71, 93
2, 10416, Note_on_c, 0, 71, 0
2, 10440, Note_on_c, 0, 69, 93
2, 10536, Note_on_c, 0, 69, 0
2, 10560, Note_on_c, 0, 67, 93
2, 10656, Note_on_c, 0, 67, 0
2, 10680, Note_on_c, 0, 74, 93
2, 10776, Note_on_c, 0, 74, 0
2, 10800, Note_on_c, 0, 71, 93
2, 10896, Note_on_c, 0, 71, 0
2, 10920, Note_on_c, 0, 69, 93
2, 11016, Note_on_c, 0, 69, 0
2, 11040, Note_on_c, 0, 67, 93
2, 11136, Note_on_c, 0, 67, 0
2, 11160, Note_on_c, 0, 72, 93
2, 11256, Note_on_c, 0, 72, 0
2, 11280, Note_on_c, 0, 71, 93
2, 11376, Note_on_c, 0, 71, 0
2, 11400, Note_on_c, 0, 69, 93
2, 11496, Note_on_c, 0, 69, 0
2, 11520, Note_on_c, 0, 67, 93
2, 11616, Note_on_c, 0, 67, 0
2, 11640, Note_on_c, 0, 72, 93
2, 11736, Note_on_c, 0, 72, 0
2, 11760, Note_on_c, 0, 69, 93
2, 11856, Note_on_c, 0, 69, 0
2, 11880, Note_on_c, 0, 67, 93
2, 11976, Note_on_c, 0, 67, 0
2, 12000, Note_on_c, 0, 66, 93
2, 12096, Note_on_c, 0, 66, 0
2, 12120, Note_on_c, 0, 72, 93
2, 12216, Note_on_c, 0, 72, 0
2, 12240, Note_on_c, 0, 69, 93
2, 12336, Note_on_c, 0, 69, 0
2, 12360, Note_on_c, 0, 67, 93
2, 12456, Note_on_c, 0, 67, 0
2, 12480, Note_on_c, 0, 66, 93
2, 12576, Note_on_c, 0, 66, 0
2, 12600, Note_on_c, 0, 72, 93
2, 12696, Note_on_c, 0, 72, 0
2, 12720, Note_on_c, 0, 69, 93
2, 12816, Note_on_c, 0, 69, 0
2, 12840, Note_on_c, 0, 67, 93
2, 12936, Note_on_c, 0, 67, 0
2, 12960, Note_on_c, 0, 66, 93
2, 13056, Note_on_c, 0, 66, 0
2, 13080, Note_on_c, 0, 71, 93
2, 13176, Note_on_c, 0, 71, 0
2, 13200, Note_on_c, 0, 69, 93
2, 13296, Note_on_c, 0, 69, 0
2, 13320, Note_on_c, 0, 67, 93
2, 13416, Note_on_c, 0, 67, 0
2, 13440, Note_on_c, 0, 66, 93
2, 13536, Note_on_c, 0, 66, 0
2, 13560, Note_on_c, 0, 71, 93
2, 13656, Note_on_c, 0, 71, 0
2, 13680, Note_on_c, 0, 67, 93
2, 13704, Note_on_c, 0, 67, 0
2, 13710, Note_on_c, 0, 69, 93
2, 13734, Note_on_c, 0, 69, 0
2, 13740, Note_on_c, 0, 67, 93
2, 13884, Note_on_c, 0, 67, 0
2, 13920, Note_on_c, 0, 66, 93
2, 14016, Note_on_c, 0, 66, 0
2, 14040, Note_on_c, 0, 67, 93
2, 14136, Note_on_c, 0, 67, 0
2, 14160, Note_on_c, 0, 69, 93
2, 14352, Note_on_c, 0, 69, 0
2, 14400, Note_on_c, 0, 67, 93
2, 14496, Note_on_c, 0, 67, 0
2, 14520, Note_on_c, 0, 66, 93
2, 14616, Note_on_c, 0, 66, 0
2, 14640, Note_on_c, 0, 67, 93
2, 14736, Note_on_c, 0, 67, 0
2, 14760, Note_on_c, 0, 66, 93
2, 14856, Note_on_c, 0, 66, 0
2, 14880, Note_on_c, 0, 64, 93
2, 14976, Note_on_c, 0, 64, 0
2, 15000, Note_on_c, 0, 66, 93
2, 15096, Note_on_c, 0, 66, 0
2, 15120, Note_on_c, 0, 67, 93
2, 15216, Note_on_c, 0, 67, 0
2, 15240, Note_on_c, 0, 69, 93
2, 15336, Note_on_c, 0, 69, 0
2, 15360, Note_on_c, 0, 71, 93
2, 15456, Note_on_c, 0, 71, 0
2, 15480, Note_on_c, 0, 66, 93
2, 15576, Note_on_c, 0, 66, 0
2, 15600, Note_on_c, 0, 67, 93
2, 15696, Note_on_c, 0, 67, 0
2, 15720, Note_on_c, 0, 69, 93
2, 15816, Note_on_c, 0, 69, 0
2, 15840, Note_on_c, 0, 66, 93
2, 15936, Note_on_c, 0, 66, 0
2, 15960, Note_on_c, 0, 67, 93
2, 16056, Note_on_c, 0, 67, 0
2, 16080, Note_on_c, 0, 69, 93
2, 16176, Note_on_c, 0, 69, 0
2, 16200, Note_on_c, 0, 67, 93
2, 16296, Note_on_c, 0, 67, 0
2, 16320, Note_on_c, 0, 66, 93
2, 16416, Note_on_c, 0, 66, 0
2, 16440, Note_on_c, 0, 69, 93
2, 16536, Note_on_c, 0, 69, 0
2, 16560, Note_on_c, 0, 67, 93
2, 16656, Note_on_c, 0, 67, 0
2, 16680, Note_on_c, 0, 64, 93
2, 16776, Note_on_c, 0, 64, 0
2, 16800, Note_on_c, 0, 67, 93
2, 16896, Note_on_c, 0, 67, 0
2, 16920, Note_on_c, 0, 71, 93
2, 17016, Note_on_c, 0, 71, 0
2, 17040, Note_on_c, 0, 67, 93
2, 17136, Note_on_c, 0, 67, 0
2, 17160, Note_on_c, 0, 71, 93
2, 17256, Note_on_c, 0, 71, 0
2, 17280, Note_on_c, 0, 76, 93
2, 17376, Note_on_c, 0, 76, 0
2, 17400, Note_on_c, 0, 71, 93
2, 17496, Note_on_c, 0, 71, 0
2, 17520, Note_on_c, 0, 76, 93
2, 17616, Note_on_c, 0, 76, 0
2, 17640, Note_on_c, 0, 79, 93
2, 17736, Note_on_c, 0, 79, 0
2, 17760, Note_on_c, 0, 76, 93
2, 17856, Note_on_c, 0, 76, 0
2, 17880, Note_on_c, 0, 79, 93
2, 17976, Note_on_c, 0, 79, 0
2, 18000, Note_on_c, 0, 81, 93
2, 18096, Note_on_c, 0, 81, 0
2, 18120, Note_on_c, 0, 79, 93
2, 18216, Note_on_c, 0, 79, 0
2, 18240, Note_on_c, 0, 78, 93
2, 18336, Note_on_c, 0, 78, 0
2, 18360, Note_on_c, 0, 76, 93
2, 18456, Note_on_c, 0, 76, 0
2, 18480, Note_on_c, 0, 78, 93
2, 18576, Note_on_c, 0, 78, 0
2, 18600, Note_on_c, 0, 76, 93
2, 18696, Note_on_c, 0, 76, 0
2, 18720, Note_on_c, 0, 75, 93
2, 18816, Note_on_c, 0, 75, 0
2, 18840, Note_on_c, 0, 83, 93
2, 18936, Note_on_c, 0, 83, 0
2, 18960, Note_on_c, 0, 78, 93
2, 19056, Note_on_c, 0, 78, 0
2, 19080, Note_on_c, 0, 76, 93
2, 19176, Note_on_c, 0, 76, 0
2, 19200, Note_on_c, 0, 75, 93
2, 19296, Note_on_c, 0, 75, 0
2, 19320, Note_on_c, 0, 83, 93
2, 19416, Note_on_c, 0, 83, 0
2, 19440, Note_on_c, 0, 79, 93
2, 19536, Note_on_c, 0, 79, 0
2, 19560, Note_on_c, 0, 78, 93
2, 19656, Note_on_c, 0, 78, 0
2, 19680, Note_on_c, 0, 76, 93
2, 19776, Note_on_c, 0, 76, 0
2, 19800, Note_on_c, 0, 83, 93
2, 19896, Note_on_c, 0, 83, 0
2, 19920, Note_on_c, 0, 79, 93
2, 20016, Note_on_c, 0, 79, 0
2, 20040, Note_on_c, 0, 78, 93
2, 20136, Note_on_c, 0, 78, 0
2, 20160, Note_on_c, 0, 76, 93
2, 20256, Note_on_c, 0, 76, 0
2, 20280, Note_on_c, 0, 83, 93
2, 20376, Note_on_c, 0, 83, 0
2, 20400, Note_on_c, 0, 75, 93
2, 20496, Note_on_c, 0, 75, 0
2, 20520, Note_on_c, 0, 73, 93
2, 20616, Note_on_c, 0, 73, 0
2, 20640, Note_on_c, 0, 71, 93
2, 20736, Note_on_c, 0, 71, 0
2, 20760, Note_on_c, 0, 83, 93
2, 20856, Note_on_c, 0, 83, 0
2, 20880, Note_on_c, 0, 75, 93
2, 20976, Note_on_c, 0, 75, 0
2, 21000, Note_on_c, 0, 73, 93
2, 21096, Note_on_c, 0, 73, 0
2, 21120, Note_on_c, 0, 71, 93
2, 21216, Note_on_c, 0, 71, 0
2, 21240, Note_on_c, 0, 75, 93
2, 21336, Note_on_c, 0, 75, 0
2, 21360, Note_on_c, 0, 76, 93
2, 21552, Note_on_c, 0, 76, 0
2, 21600, Note_on_c, 0, 78, 93
2, 21792, Note_on_c, 0, 78, 0
2, 21840, Note_on_c, 0, 71, 93
2, 22032, Note_on_c, 0, 71, 0
2, 22080, Note_on_c, 0, 75, 93
2, 22272, Note_on_c, 0, 75, 0
2, 22320, Note_on_c, 0, 76, 93
2, 22896, Note_on_c, 0, 76, 0
2, 23040, Note_on_c, 0, 81, 93
2, 23232, Note_on_c, 0, 81, 0
2, 23280, Note_on_c, 0, 76, 93
2, 23304, Note_on_c, 0, 76, 0
2, 23310, Note_on_c, 0, 77, 93
2, 23334, Note_on_c, 0, 77, 0
2, 23340, Note_on_c, 0, 76, 93
2, 23453, Note_on_c, 0, 76, 0
2, 23520, Note_on_c, 0, 74, 93
2, 23616, Note_on_c, 0, 74, 0
2, 23640, Note_on_c, 0, 76, 93
2, 23736, Note_on_c, 0, 76, 0
2, 23760, Note_on_c, 0, 77, 93
2, 23952, Note_on_c, 0, 77, 0
2, 24000, Note_on_c, 0, 76, 93
2, 24096, Note_on_c, 0, 76, 0
2, 24120, Note_on_c, 0, 74, 93
2, 24216, Note_on_c, 0, 74, 0
2, 24240, Note_on_c, 0, 76, 93
2, 24420, Note_on_c, 0, 76, 0
2, 24480, Note_on_c, 0, 69, 93
2, 24660, Note_on_c, 0, 69, 0
2, 24720, Note_on_c, 0, 69, 93
2, 24900, Note_on_c, 0, 69, 0
2, 24960, Note_on_c, 0, 81, 93
2, 25152, Note_on_c, 0, 81, 0
2, 25200, Note_on_c, 0, 76, 93
2, 25224, Note_on_c, 0, 76, 0
2, 25230, Note_on_c, 0, 77, 93
2, 25254, Note_on_c, 0, 77, 0
2, 25260, Note_on_c, 0, 76, 93
2, 25404, Note_on_c, 0, 76, 0
2, 25440, Note_on_c, 0, 74, 93
2, 25536, Note_on_c, 0, 74, 0
2, 25560, Note_on_c, 0, 76, 93
2, 25656, Note_on_c, 0, 76, 0
2, 25680, Note_on_c, 0, 77, 93
2, 25872, Note_on_c, 0, 77, 0
2, 25920, Note_on_c, 0, 76, 93
2, 26016, Note_on_c, 0, 76, 0
2, 26040, Note_on_c, 0, 74, 93
2, 26136, Note_on_c, 0, 74, 0
2, 26160, Note_on_c, 0, 76, 93
2, 26352, Note_on_c, 0, 76, 0
2, 26400, Note_on_c, 0, 74, 93
2, 26496, Note_on_c, 0, 74, 0
2, 26520, Note_on_c, 0, 72, 93
2, 26616, Note_on_c, 0, 72, 0
2, 26640, Note_on_c, 0, 74, 93
2, 26832, Note_on_c, 0, 74, 0
2, 26880, Note_on_c, 0, 72, 93
2, 26976, Note_on_c, 0, 72, 0
2, 27000, Note_on_c, 0, 74, 93
2, 27096, Note_on_c, 0, 74, 0
2, 27120, Note_on_c, 0, 76, 93
2, 27312, Note_on_c, 0, 76, 0
2, 27360, Note_on_c, 0, 74, 93
2, 27456, Note_on_c, 0, 74, 0
2, 27480, Note_on_c, 0, 72, 93
2, 27576, Note_on_c, 0, 72, 0
2, 27600, Note_on_c, 0, 74, 93
2, 27792, Note_on_c, 0, 74, 0
2, 27840, Note_on_c, 0, 72, 93
2, 27936, Note_on_c, 0, 72, 0
2, 27960, Note_on_c, 0, 71, 93
2, 28056, Note_on_c, 0, 71, 0
2, 28080, Note_on_c, 0, 72, 93
2, 28272, Note_on_c, 0, 72, 0
2, 28320, Note_on_c, 0, 71, 93
2, 28416, Note_on_c, 0, 71, 0
2, 28440, Note_on_c, 0, 72, 93
2, 28536, Note_on_c, 0, 72, 0
2, 28560, Note_on_c, 0, 74, 93
2, 28752, Note_on_c, 0, 74, 0
2, 28800, Note_on_c, 0, 72, 93
2, 28896, Note_on_c, 0, 72, 0
2, 28920, Note_on_c, 0, 74, 93
2, 29016, Note_on_c, 0, 74, 0
2, 29040, Note_on_c, 0, 76, 93
2, 29136, Note_on_c, 0, 76, 0
2, 29160, Note_on_c, 0, 74, 93
2, 29256, Note_on_c, 0, 74, 0
2, 29280, Note_on_c, 0, 72, 93
2, 29376, Note_on_c, 0, 72, 0
2, 29400, Note_on_c, 0, 76, 93
2, 29496, Note_on_c, 0, 76, 0
2, 29520, Note_on_c, 0, 74, 93
2, 29616, Note_on_c, 0, 74, 0
2, 29640, Note_on_c, 0, 72, 93
2, 29736, Note_on_c, 0, 72, 0
2, 29760, Note_on_c, 0, 71, 93
2, 29856, Note_on_c, 0, 71, 0
2, 29880, Note_on_c, 0, 72, 93
2, 29976, Note_on_c, 0, 72, 0
2, 30000, Note_on_c, 0, 74, 93
2, 30096, Note_on_c, 0, 74, 0
2, 30120, Note_on_c, 0, 72, 93
2, 30216, Note_on_c, 0, 72, 0
2, 30240, Note_on_c, 0, 71, 93
2, 30336, Note_on_c, 0, 71, 0
2, 30360, Note_on_c, 0, 72, 93
2, 30456, Note_on_c, 0, 72, 0
2, 30480, Note_on_c, 0, 69, 93
2, 30576, Note_on_c, 0, 69, 0
2, 30600, Note_on_c, 0, 72, 93
2, 30696, Note_on_c, 0, 72, 0
2, 30720, Note_on_c, 0, 71, 93
2, 30816, Note_on_c, 0, 71, 0
2, 30840, Note_on_c, 0, 74, 93
2, 30936, Note_on_c, 0, 74, 0
2, 30960, Note_on_c, 0, 72, 93
2, 31056, Note_on_c, 0, 72, 0
2, 31080, Note_on_c, 0, 71, 93
2, 31176, Note_on_c, 0, 71, 0
2, 31200, Note_on_c, 0, 69, 93
2, 31296, Note_on_c, 0, 69, 0
2, 31320, Note_on_c, 0, 76, 93
2, 31416, Note_on_c, 0, 76, 0
2, 31440, Note_on_c, 0, 72, 93
2, 31536, Note_on_c, 0, 72, 0
2, 31560, Note_on_c, 0, 71, 93
2, 31656, Note_on_c, 0, 71, 0
2, 31680, Note_on_c, 0, 69, 93
2, 31776, Note_on_c, 0, 69, 0
2, 31800, Note_on_c, 0, 76, 93
2, 31896, Note_on_c, 0, 76, 0
2, 31920, Note_on_c, 0, 72, 93
2, 32016, Note_on_c, 0, 72, 0
2, 32040, Note_on_c, 0, 71, 93
2, 32136, Note_on_c, 0, 71, 0
2, 32160, Note_on_c, 0, 69, 93
2, 32256, Note_on_c, 0, 69, 0
2, 32280, Note_on_c, 0, 74, 93
2, 32376, Note_on_c, 0, 74, 0
2, 32400, Note_on_c, 0, 72, 93
2, 32496, Note_on_c, 0, 72, 0
2, 32520, Note_on_c, 0, 71, 93
2, 32616, Note_on_c, 0, 71, 0
2, 32640, Note_on_c, 0, 69, 93
2, 32736, Note_on_c, 0, 69, 0
2, 32760, Note_on_c, 0, 74, 93
2, 32856, Note_on_c, 0, 74, 0
2, 32880, Note_on_c, 0, 71, 93
2, 32976, Note_on_c, 0, 71, 0
2, 33000, Note_on_c, 0, 69, 93
2, 33096, Note_on_c, 0, 69, 0
2, 33120, Note_on_c, 0, 67, 93
2, 33216, Note_on_c, 0, 67, 0
2, 33240, Note_on_c, 0, 74, 93
2, 33336, Note_on_c, 0, 74, 0
2, 33360, Note_on_c, 0, 71, 93
2, 33456, Note_on_c, 0, 71, 0
2, 33480, Note_on_c, 0, 69, 93
2, 33576, Note_on_c, 0, 69, 0
2, 33600, Note_on_c, 0, 67, 93
2, 33696, Note_on_c, 0, 67, 0
2, 33720, Note_on_c, 0, 74, 93
2, 33816, Note_on_c, 0, 74, 0
2, 33840, Note_on_c, 0, 71, 93
2, 33936, Note_on_c, 0, 71, 0
2, 33960, Note_on_c, 0, 69, 93
2, 34056, Note_on_c, 0, 69, 0
2, 34080, Note_on_c, 0, 67, 93
2, 34176, Note_on_c, 0, 67, 0
2, 34200, Note_on_c, 0, 72, 93
2, 34296, Note_on_c, 0, 72, 0
2, 34320, Note_on_c, 0, 71, 93
2, 34416, Note_on_c, 0, 71, 0
2, 34440, Note_on_c, 0, 69, 93
2, 34536, Note_on_c, 0, 69, 0
2, 34560, Note_on_c, 0, 67, 93
2, 34656, Note_on_c, 0, 67, 0
2, 34680, Note_on_c, 0, 72, 93
2, 34776, Note_on_c, 0, 72, 0
2, 34800, Note_on_c, 0, 69, 93
2, 34896, Note_on_c, 0, 69, 0
2, 34920, Note_on_c, 0, 67, 93
2, 35016, Note_on_c, 0, 67, 0
2, 35040, Note_on_c, 0, 66, 93
2, 35136, Note_on_c, 0, 66, 0
2, 35160, Note_on_c, 0, 72, 93
2, 35256, Note_on_c, 0, 72, 0
2, 35280, Note_on_c, 0, 69, 93
2, 35376, Note_on_c, 0, 69, 0
2, 35400, Note_on_c, 0, 67, 93
2, 35496, Note_on_c, 0, 67, 0
2, 35520, Note_on_c, 0, 66, 93
2, 35616, Note_on_c, 0, 66, 0
2, 35640, Note_on_c, 0, 72, 93
2, 35736, Note_on_c, 0, 72, 0
2, 35760, Note_on_c, 0, 69, 93
2, 35856, Note_on_c, 0, 69, 0
2, 35880, Note_on_c, 0, 67, 93
2, 35976, Note_on_c, 0, 67, 0
2, 36000, Note_on_c, 0, 66, 93
2, 36096, Note_on_c, 0, 66, 0
2, 36120, Note_on_c, 0, 71, 93
2, 36216, Note_on_c, 0, 71, 0
2, 36240, Note_on_c, 0, 69, 93
2, 36336, Note_on_c, 0, 69, 0
2, 36360, Note_on_c, 0, 67, 93
2, 36456, Note_on_c, 0, 67, 0
2, 36480, Note_on_c, 0, 66, 93
2, 36576, Note_on_c, 0, 66, 0
2, 36600, Note_on_c, 0, 71, 93
2, 36696, Note_on_c, 0, 71, 0
2, 36720, Note_on_c, 0, 67, 93
2, 36744, Note_on_c, 0, 67, 0
2, 36750, Note_on_c, 0, 69, 93
2, 36774, Note_on_c, 0, 69, 0
2, 36780, Note_on_c, 0, 67, 93
2, 36924, Note_on_c, 0, 67, 0
2, 36960, Note_on_c, 0, 66, 93
2, 37056, Note_on_c, 0, 66, 0
2, 37080, Note_on_c, 0, 67, 93
2, 37176, Note_on_c, 0, 67, 0
2, 37200, Note_on_c, 0, 69, 93
2, 37392, Note_on_c, 0, 69, 0
2, 37440, Note_on_c, 0, 67, 93
2, 37536, Note_on_c, 0, 67, 0
2, 37560, Note_on_c, 0, 66, 93
2, 37656, Note_on_c, 0, 66, 0
2, 37680, Note_on_c, 0, 67, 93
2, 37776, Note_on_c, 0, 67, 0
2, 37800, Note_on_c, 0, 66, 93
2, 37896, Note_on_c, 0, 66, 0
2, 37920, Note_on_c, 0, 64, 93
2, 38016, Note_on_c, 0, 64, 0
2, 38040, Note_on_c, 0, 66, 93
2, 38136, Note_on_c, 0, 66, 0
2, 38160, Note_on_c, 0, 67, 93
2, 38256, Note_on_c, 0, 67, 0
2, 38280, Note_on_c, 0, 69, 93
2, 38376, Note_on_c, 0, 69, 0
2, 38400, Note_on_c, 0, 71, 93
2, 38496, Note_on_c, 0, 71, 0
2, 38520, Note_on_c, 0, 66, 93
2, 38616, Note_on_c, 0, 66, 0
2, 38640, Note_on_c, 0, 67, 93
2, 38736, Note_on_c, 0, 67, 0
2, 38760, Note_on_c, 0, 69, 93
2, 38856, Note_on_c, 0, 69, 0
2, 38880, Note_on_c, 0, 66, 93
2, 38976, Note_on_c, 0, 66, 0
2, 39000, Note_on_c, 0, 67, 93
2, 39096, Note_on_c, 0, 67, 0
2, 39120, Note_on_c, 0, 69, 93
2, 39216, Note_on_c, 0, 69, 0
2, 39240, Note_on_c, 0, 67, 93
2, 39336, Note_on_c, 0, 67, 0
2, 39360, Note_on_c, 0, 66, 93
2, 39456, Note_on_c, 0, 66, 0
2, 39480, Note_on_c, 0, 69, 93
2, 39576, Note_on_c, 0, 69, 0
2, 39600, Note_on_c, 0, 67, 93
2, 39696, Note_on_c, 0, 67, 0
2, 39720, Note_on_c, 0, 64, 93
2, 39816, Note_on_c, 0, 64, 0
2, 39840, Note_on_c, 0, 67, 93
2, 39936, Note_on_c, 0, 67, 0
2, 39960, Note_on_c, 0, 71, 93
2, 40056, Note_on_c, 0, 71, 0
2, 40080, Note_on_c, 0, 67, 93
2, 40176, Note_on_c, 0, 67, 0
2, 40200, Note_on_c, 0, 71, 93
2, 40296, Note_on_c, 0, 71, 0
2, 40320, Note_on_c, 0, 76, 93
2, 40416, Note_on_c, 0, 76, 0
2, 40440, Note_on_c, 0, 71, 93
2, 40536, Note_on_c, 0, 71, 0
2, 40560, Note_on_c, 0, 76, 93
2, 40656, Note_on_c, 0, 76, 0
2, 40680, Note_on_c, 0, 79, 93
2, 40776, Note_on_c, 0, 79, 0
2, 40800, Note_on_c, 0, 76, 93
2, 40896, Note_on_c, 0, 76, 0
2, 40920, Note_on_c, 0, 79, 93
2, 41016, Note_on_c, 0, 79, 0
2, 41040, Note_on_c, 0, 81, 93
2, 41136, Note_on_c, 0, 81, 0
2, 41160, Note_on_c, 0, 79, 93
2, 41256, Note_on_c, 0, 79, 0
2, 41280, Note_on_c, 0, 78, 93
2, 41376, Note_on_c, 0, 78, 0
2, 41400, Note_on_c, 0, 76, 93
2, 41496, Note_on_c, 0, 76, 0
2, 41520, Note_on_c, 0, 78, 93
2, 41616, Note_on_c, 0, 78, 0
2, 41640, Note_on_c, 0, 76, 93
2, 41736, Note_on_c, 0, 76, 0
2, 41760, Note_on_c, 0, 75, 93
2, 41856, Note_on_c, 0, 75, 0
2, 41880, Note_on_c, 0, 83, 93
2, 41976, Note_on_c, 0, 83, 0
2, 42000, Note_on_c, 0, 78, 93
2, 42096, Note_on_c, 0, 78, 0
2, 42120, Note_on_c, 0, 76, 93
2, 42216, Note_on_c, 0, 76, 0
2, 42240, Note_on_c, 0, 75, 93
2, 42336, Note_on_c, 0, 75, 0
2, 42360, Note_on_c, 0, 83, 93
2, 42456, Note_on_c, 0, 83, 0
2, 42480, Note_on_c, 0, 79, 93
2, 42576, Note_on_c, 0, 79, 0
2, 42600, Note_on_c, 0, 78, 93
2, 42696, Note_on_c, 0, 78, 0
2, 42720, Note_on_c, 0, 76, 93
2, 42816, Note_on_c, 0, 76, 0
2, 42840, Note_on_c, 0, 83, 93
2, 42936, Note_on_c, 0, 83, 0
2, 42960, Note_on_c, 0, 79, 93
2, 43056, Note_on_c, 0, 79, 0
2, 43080, Note_on_c, 0, 78, 93
2, 43176, Note_on_c, 0, 78, 0
2, 43200, Note_on_c, 0, 76, 93
2, 43296, Note_on_c, 0, 76, 0
2, 43320, Note_on_c, 0, 83, 93
2, 43416, Note_on_c, 0, 83, 0
2, 43440, Note_on_c, 0, 75, 93
2, 43536, Note_on_c, 0, 75, 0
2, 43560, Note_on_c, 0, 73, 93
2, 43656, Note_on_c, 0, 73, 0
2, 43680, Note_on_c, 0, 71, 93
2, 43776, Note_on_c, 0, 71, 0
2, 43800, Note_on_c, 0, 83, 93
2, 43896, Note_on_c, 0, 83, 0
2, 43920, Note_on_c, 0, 75, 93
2, 44016, Note_on_c, 0, 75, 0
2, 44040, Note_on_c, 0, 73, 93
2, 44136, Note_on_c, 0, 73, 0
2, 44160, Note_on_c, 0, 71, 93
2, 44256, Note_on_c, 0, 71, 0
2, 44280, Note_on_c, 0, 75, 93
2, 44376, Note_on_c, 0, 75, 0
2, 44400, Note_on_c, 0, 76, 93
2, 44592, Note_on_c, 0, 76, 0
2, 44640, Note_on_c, 0, 78, 93
2, 44832, Note_on_c, 0, 78, 0
2, 44880, Note_on_c, 0, 71, 93
2, 45072, Note_on_c, 0, 71, 0
2, 45120, Note_on_c, 0, 75, 93
2, 45312, Note_on_c, 0, 75, 0
2, 45360, Note_on_c, 0, 76, 93
2, 45936, Note_on_c, 0, 76, 0
2, 46080, Note_on_c, 0, 71, 93
2, 46272, Note_on_c, 0, 71, 0
2, 46320, Note_on_c, 0, 71, 93
2, 46344, Note_on_c, 0, 71, 0
2, 46350, Note_on_c, 0, 72, 93
2, 46374, Note_on_c, 0, 72, 0
2, 46380, Note_on_c, 0, 71, 93
2, 46524, Note_on_c, 0, 71, 0
2, 46560, Note_on_c, 0, 69, 93
2, 46656, Note_on_c, 0, 69, 0
2, 46680, Note_on_c, 0, 71, 93
2, 46776, Note_on_c, 0, 71, 0
2, 46800, Note_on_c, 0, 72, 93
2, 46992, Note_on_c, 0, 72, 0
2, 47040, Note_on_c, 0, 71, 93
2, 47136, Note_on_c, 0, 71, 0
2, 47160, Note_on_c, 0, 72, 93
2, 47256, Note_on_c, 0, 72, 0
2, 47280, Note_on_c, 0, 74, 93
2, 47472, Note_on_c, 0, 74, 0
2, 47520, Note_on_c, 0, 72, 93
2, 47616, Note_on_c, 0, 72, 0
2, 47640, Note_on_c, 0, 71, 93
2, 47736, Note_on_c, 0, 71, 0
2, 47760, Note_on_c, 0, 69, 93
2, 47856, Note_on_c, 0, 69, 0
2, 47880, Note_on_c, 0, 68, 93
2, 47976, Note_on_c, 0, 68, 0
2, 48000, Note_on_c, 0, 77, 93
2, 48192, Note_on_c, 0, 77, 0
2, 48240, Note_on_c, 0, 76, 93
2, 48432, Note_on_c, 0, 76, 0
2, 48480, Note_on_c, 0, 74, 93
2, 48576, Note_on_c, 0, 74, 0
2, 48600, Note_on_c, 0, 72, 93
2, 48696, Note_on_c, 0, 72, 0
2, 48720, Note_on_c, 0, 74, 93
2, 48912, Note_on_c, 0, 74, 0
2, 48960, Note_on_c, 0, 72, 93
2, 49056, Note_on_c, 0, 72, 0
2, 49080, Note_on_c, 0, 71, 93
2, 49176, Note_on_c, 0, 71, 0
2, 49200, Note_on_c, 0, 74, 93
2, 49296, Note_on_c, 0, 74, 0
2, 49320, Note_on_c, 0, 72, 93
2, 49416, Note_on_c, 0, 72, 0
2, 49440, Note_on_c, 0, 71, 93
2, 49536, Note_on_c, 0, 71, 0
2, 49560, Note_on_c, 0, 72, 93
2, 49656, Note_on_c, 0, 72, 0
2, 49680, Note_on_c, 0, 69, 93
2, 49776, Note_on_c, 0, 69, 0
2, 49800, Note_on_c, 0, 71, 93
2, 49896, Note_on_c, 0, 71, 0
2, 49920, Note_on_c, 0, 72, 93
2, 50016, Note_on_c, 0, 72, 0
2, 50040, Note_on_c, 0, 74, 93
2, 50136, Note_on_c, 0, 74, 0
2, 50160, Note_on_c, 0, 76, 93
2, 50256, Note_on_c, 0, 76, 0
2, 50280, Note_on_c, 0, 77, 93
2, 50376, Note_on_c, 0, 77, 0
2, 50400, Note_on_c, 0, 74, 93
2, 50496, Note_on_c, 0, 74, 0
2, 50520, Note_on_c, 0, 76, 93
2, 50616, Note_on_c, 0, 76, 0
2, 50640, Note_on_c, 0, 77, 93
2, 50736, Note_on_c, 0, 77, 0
2, 50760, Note_on_c, 0, 79, 93
2, 50856, Note_on_c, 0, 79, 0
2, 50880, Note_on_c, 0, 76, 93
2, 50976, Note_on_c, 0, 76, 0
2, 51000, Note_on_c, 0, 77, 93
2, 51096, Note_on_c, 0, 77, 0
2, 51120, Note_on_c, 0, 79, 93
2, 51216, Note_on_c, 0, 79, 0
2, 51240, Note_on_c, 0, 81, 93
2, 51336, Note_on_c, 0, 81, 0
2, 51360, Note_on_c, 0, 79, 93
2, 51456, Note_on_c, 0, 79, 0
2, 51480, Note_on_c, 0, 77, 93
2, 51576, Note_on_c, 0, 77, 0
2, 51600, Note_on_c, 0, 76, 93
2, 51696, Note_on_c, 0, 76, 0
2, 51720, Note_on_c, 0, 74, 93
2, 51816, Note_on_c, 0, 74, 0
2, 51840, Note_on_c, 0, 73, 93
2, 51936, Note_on_c, 0, 73, 0
2, 51960, Note_on_c, 0, 82, 93
2, 52056, Note_on_c, 0, 82, 0
2, 52080, Note_on_c, 0, 81, 93
2, 52176, Note_on_c, 0, 81, 0
2, 52200, Note_on_c, 0, 79, 93
2, 52296, Note_on_c, 0, 79, 0
2, 52320, Note_on_c, 0, 77, 93
2, 52416, Note_on_c, 0, 77, 0
2, 52440, Note_on_c, 0, 81, 93
2, 52536, Note_on_c, 0, 81, 0
2, 52560, Note_on_c, 0, 79, 93
2, 52656, Note_on_c, 0, 79, 0
2, 52680, Note_on_c, 0, 77, 93
2, 52776, Note_on_c, 0, 77, 0
2, 52800, Note_on_c, 0, 76, 93
2, 52896, Note_on_c, 0, 76, 0
2, 52920, Note_on_c, 0, 77, 93
2, 53016, Note_on_c, 0, 77, 0
2, 53040, Note_on_c, 0, 79, 93
2, 53136, Note_on_c, 0, 79, 0
2, 53160, Note_on_c, 0, 77, 93
2, 53256, Note_on_c, 0, 77, 0
2, 53280, Note_on_c, 0, 76, 93
2, 53376, Note_on_c, 0, 76, 0
2, 53400, Note_on_c, 0, 77, 93
2, 53496, Note_on_c, 0, 77, 0
2, 53520, Note_on_c, 0, 74, 93
2, 53616, Note_on_c, 0, 74, 0
2, 53640, Note_on_c, 0, 77, 93
2, 53736, Note_on_c, 0, 77, 0
2, 53760, Note_on_c, 0, 76, 93
2, 53856, Note_on_c, 0, 76, 0
2, 53880, Note_on_c, 0, 79, 93
2, 53976, Note_on_c, 0, 79, 0
2, 54000, Note_on_c, 0, 77, 93
2, 54096, Note_on_c, 0, 77, 0
2, 54120, Note_on_c, 0, 76, 93
2, 54216, Note_on_c, 0, 76, 0
2, 54240, Note_on_c, 0, 74, 93
2, 54336, Note_on_c, 0, 74, 0
2, 54360, Note_on_c, 0, 81, 93
2, 54456, Note_on_c, 0, 81, 0
2, 54480, Note_on_c, 0, 77, 93
2, 54576, Note_on_c, 0, 77, 0
2, 54600, Note_on_c, 0, 76, 93
2, 54696, Note_on_c, 0, 76, 0
2, 54720, Note_on_c, 0, 74, 93
2, 54816, Note_on_c, 0, 74, 0
2, 54840, Note_on_c, 0, 72, 93
2, 54936, Note_on_c, 0, 72, 0
2, 54960, Note_on_c, 0, 70, 93
2, 55056, Note_on_c, 0, 70, 0
2, 55080, Note_on_c, 0, 69, 93
2, 55176, Note_on_c, 0, 69, 0
2, 55200, Note_on_c, 0, 67, 93
2, 55296, Note_on_c, 0, 67, 0
2, 55320, Note_on_c, 0, 74, 93
2, 55416, Note_on_c, 0, 74, 0
2, 55440, Note_on_c, 0, 70, 93
2, 55536, Note_on_c, 0, 70, 0
2, 55560, Note_on_c, 0, 69, 93
2, 55656, Note_on_c, 0, 69, 0
2, 55680, Note_on_c, 0, 67, 93
2, 55776, Note_on_c, 0, 67, 0
2, 55800, Note_on_c, 0, 77, 93
2, 55896, Note_on_c, 0, 77, 0
2, 55920, Note_on_c, 0, 76, 93
2, 56016, Note_on_c, 0, 76, 0
2, 56040, Note_on_c, 0, 74, 93
2, 56136, Note_on_c, 0, 74, 0
2, 56160, Note_on_c, 0, 72, 93
2, 56256, Note_on_c, 0, 72, 0
2, 56280, Note_on_c, 0, 79, 93
2, 56376, Note_on_c, 0, 79, 0
2, 56400, Note_on_c, 0, 76, 93
2, 56496, Note_on_c, 0, 76, 0
2, 56520, Note_on_c, 0, 74, 93
2, 56616, Note_on_c, 0, 74, 0
2, 56640, Note_on_c, 0, 72, 93
2, 56736, Note_on_c, 0, 72, 0
2, 56760, Note_on_c, 0, 70, 93
2, 56856, Note_on_c, 0, 70, 0
2, 56880, Note_on_c, 0, 69, 93
2, 56976, Note_on_c, 0, 69, 0
2, 57000, Note_on_c, 0, 67, 93
2, 57096, Note_on_c, 0, 67, 0
2, 57120, Note_on_c, 0, 65, 93
2, 57216, Note_on_c, 0, 65, 0
2, 57240, Note_on_c, 0, 72, 93
2, 57336, Note_on_c, 0, 72, 0
2, 57360, Note_on_c, 0, 69, 93
2, 57456, Note_on_c, 0, 69, 0
2, 57480, Note_on_c, 0, 67, 93
2, 57576, Note_on_c, 0, 67, 0
2, 57600, Note_on_c, 0, 65, 93
2, 57696, Note_on_c, 0, 65, 0
2, 57720, Note_on_c, 0, 69, 93
2, 57816, Note_on_c, 0, 69, 0
2, 57840, Note_on_c, 0, 70, 93
2, 57936, Note_on_c, 0, 70, 0
2, 57960, Note_on_c, 0, 72, 93
2, 58056, Note_on_c, 0, 72, 0
2, 58080, Note_on_c, 0, 74, 93
2, 58176, Note_on_c, 0, 74, 0
2, 58200, Note_on_c, 0, 77, 93
2, 58296, Note_on_c, 0, 77, 0
2, 58320, Note_on_c, 0, 76, 93
2, 58416, Note_on_c, 0, 76, 0
2, 58440, Note_on_c, 0, 77, 93
2, 58536, Note_on_c, 0, 77, 0
2, 58560, Note_on_c, 0, 79, 93
2, 58656, Note_on_c, 0, 79, 0
2, 58680, Note_on_c, 0, 71, 93
2, 58776, Note_on_c, 0, 71, 0
2, 58800, Note_on_c, 0, 73, 93
2, 58896, Note_on_c, 0, 73, 0
2, 58920, Note_on_c, 0, 74, 93
2, 59016, Note_on_c, 0, 74, 0
2, 59040, Note_on_c, 0, 76, 93
2, 59136, Note_on_c, 0, 76, 0
2, 59160, Note_on_c, 0, 79, 93
2, 59256, Note_on_c, 0, 79, 0
2, 59280, Note_on_c, 0, 77, 93
2, 59376, Note_on_c, 0, 77, 0
2, 59400, Note_on_c, 0, 79, 93
2, 59496, Note_on_c, 0, 79, 0
2, 59520, Note_on_c, 0, 81, 93
2, 59616, Note_on_c, 0, 81, 0
2, 59640, Note_on_c, 0, 73, 93
2, 59736, Note_on_c, 0, 73, 0
2, 59760, Note_on_c, 0, 74, 93
2, 59775, Note_on_c, 0, 74, 0
2, 59775, Note_on_c, 0, 73, 92
2, 59790, Note_on_c, 0, 73, 0
2, 59790, Note_on_c, 0, 71, 92
2, 59805, Note_on_c, 0, 71, 0
2, 59805, Note_on_c, 0, 73, 92
2, 59820, Note_on_c, 0, 73, 0
2, 59820, Note_on_c, 0, 74, 92
2, 60105, Note_on_c, 0, 74, 0
2, 60120, Note_on_c, 0, 76, 93
2, 60216, Note_on_c, 0, 76, 0
2, 60240, Note_on_c, 0, 76, 93
2, 60264, Note_on_c, 0, 76, 0
2, 60270, Note_on_c, 0, 77, 93
2, 60294, Note_on_c, 0, 77, 0
2, 60300, Note_on_c, 0, 76, 93
2, 60552, Note_on_c, 0, 76, 0
2, 60600, Note_on_c, 0, 74, 93
2, 60696, Note_on_c, 0, 74, 0
2, 60720, Note_on_c, 0, 74, 93
2, 61296, Note_on_c, 0, 74, 0
2, 61440, Note_on_c, 0, 74, 93
2, 61536, Note_on_c, 0, 74, 0
2, 61560, Note_on_c, 0, 76, 93
2, 61656, Note_on_c, 0, 76, 0
2, 61680, Note_on_c, 0, 77, 93
2, 61872, Note_on_c, 0, 77, 0
2, 61920, Note_on_c, 0, 74, 93
2, 62016, Note_on_c, 0, 74, 0
2, 62040, Note_on_c, 0, 76, 93
2, 62136, Note_on_c, 0, 76, 0
2, 62160, Note_on_c, 0, 77, 93
2, 62352, Note_on_c, 0, 77, 0
2, 62400, Note_on_c, 0, 76, 93
2, 62496, Note_on_c, 0, 76, 0
2, 62520, Note_on_c, 0, 74, 93
2, 62616, Note_on_c, 0, 74, 0
2, 62640, Note_on_c, 0, 76, 93
2, 62832, Note_on_c, 0, 76, 0
2, 62880, Note_on_c, 0, 74, 93
2, 62976, Note_on_c, 0, 74, 0
2, 63000, Note_on_c, 0, 72, 93
2, 63096, Note_on_c, 0, 72, 0
2, 63120, Note_on_c, 0, 74, 93
2, 63312, Note_on_c, 0, 74, 0
2, 63360, Note_on_c, 0, 72, 93
2, 63456, Note_on_c, 0, 72, 0
2, 63480, Note_on_c, 0, 74, 93
2, 63576, Note_on_c, 0, 74, 0
2, 63600, Note_on_c, 0, 76, 93
2, 63792, Note_on_c, 0, 76, 0
2, 63840, Note_on_c, 0, 74, 93
2, 63936, Note_on_c, 0, 74, 0
2, 63960, Note_on_c, 0, 72, 93
2, 64056, Note_on_c, 0, 72, 0
2, 64080, Note_on_c, 0, 74, 93
2, 64272, Note_on_c, 0, 74, 0
2, 64320, Note_on_c, 0, 72, 93
2, 64416, Note_on_c, 0, 72, 0
2, 64440, Note_on_c, 0, 71, 93
2, 64536, Note_on_c, 0, 71, 0
2, 64560, Note_on_c, 0, 72, 93
2, 64752, Note_on_c, 0, 72, 0
2, 64800, Note_on_c, 0, 71, 93
2, 64896, Note_on_c, 0, 71, 0
2, 64920, Note_on_c, 0, 72, 93
2, 65016, Note_on_c, 0, 72, 0
2, 65040, Note_on_c, 0, 74, 93
2, 65232, Note_on_c, 0, 74, 0
2, 65280, Note_on_c, 0, 72, 93
2, 65376, Note_on_c, 0, 72, 0
2, 65400, Note_on_c, 0, 71, 93
2, 65496, Note_on_c, 0, 71, 0
2, 65520, Note_on_c, 0, 72, 93
2, 65712, Note_on_c, 0, 72, 0
2, 65760, Note_on_c, 0, 71, 93
2, 65856, Note_on_c, 0, 71, 0
2, 65880, Note_on_c, 0, 69, 93
2, 65976, Note_on_c, 0, 69, 0
2, 66000, Note_on_c, 0, 71, 93
2, 66192, Note_on_c, 0, 71, 0
2, 66240, Note_on_c, 0, 69, 93
2, 66336, Note_on_c, 0, 69, 0
2, 66360, Note_on_c, 0, 71, 93
2, 66456, Note_on_c, 0, 71, 0
2, 66480, Note_on_c, 0, 72, 93
2, 66672, Note_on_c, 0, 72, 0
2, 66720, Note_on_c, 0, 71, 93
2, 66816, Note_on_c, 0, 71, 0
2, 66840, Note_on_c, 0, 69, 93
2, 66936, Note_on_c, 0, 69, 0
2, 66960, Note_on_c, 0, 71, 93
2, 67152, Note_on_c, 0, 71, 0
2, 67200, Note_on_c, 0, 69, 93
2, 67296, Note_on_c, 0, 69, 0
2, 67320, Note_on_c, 0, 68, 93
2, 67416, Note_on_c, 0, 68, 0
2, 67440, Note_on_c, 0, 69, 93
2, 67632, Note_on_c, 0, 69, 0
2, 67680, Note_on_c, 0, 77, 93
2, 67776, Note_on_c, 0, 77, 0
2, 67800, Note_on_c, 0, 76, 93
2, 67896, Note_on_c, 0, 76, 0
2, 67920, Note_on_c, 0, 74, 93
2, 68016, Note_on_c, 0, 74, 0
2, 68040, Note_on_c, 0, 72, 93
2, 68136, Note_on_c, 0, 72, 0
2, 68160, Note_on_c, 0, 71, 93
2, 68256, Note_on_c, 0, 71, 0
2, 68280, Note_on_c, 0, 69, 93
2, 68376, Note_on_c, 0, 69, 0
2, 68400, Note_on_c, 0, 68, 93
2, 68496, Note_on_c, 0, 68, 0
2, 68520, Note_on_c, 0, 69, 93
2, 68616, Note_on_c, 0, 69, 0
2, 68640, Note_on_c, 0, 71, 93
2, 68736, Note_on_c, 0, 71, 0
2, 68760, Note_on_c, 0, 68, 93
2, 68856, Note_on_c, 0, 68, 0
2, 68880, Note_on_c, 0, 64, 93
2, 69072, Note_on_c, 0, 64, 0
2, 69120, Note_on_c, 0, 71, 93
2, 69312, Note_on_c, 0, 71, 0
2, 69360, Note_on_c, 0, 72, 93
2, 69456, Note_on_c, 0, 72, 0
2, 69480, Note_on_c, 0, 74, 93
2, 69576, Note_on_c, 0, 74, 0
2, 69600, Note_on_c, 0, 76, 93
2, 69696, Note_on_c, 0, 76, 0
2, 69720, Note_on_c, 0, 69, 93
2, 69816, Note_on_c, 0, 69, 0
2, 69840, Note_on_c, 0, 73, 93
2, 69936, Note_on_c, 0, 73, 0
2, 69960, Note_on_c, 0, 74, 93
2, 70056, Note_on_c, 0, 74, 0
2, 70080, Note_on_c, 0, 76, 93
2, 70176, Note_on_c, 0, 76, 0
2, 70200, Note_on_c, 0, 69, 93
2, 70296, Note_on_c, 0, 69, 0
2, 70320, Note_on_c, 0, 74, 93
2, 70416, Note_on_c, 0, 74, 0
2, 70440, Note_on_c, 0, 76, 93
2, 70536, Note_on_c, 0, 76, 0
2, 70560, Note_on_c, 0, 77, 93
2, 70656, Note_on_c, 0, 77, 0
2, 70680, Note_on_c, 0, 69, 93
2, 70776, Note_on_c, 0, 69, 0
2, 70800, Note_on_c, 0, 75, 93
2, 70896, Note_on_c, 0, 75, 0
2, 70920, Note_on_c, 0, 76, 93
2, 71016, Note_on_c, 0, 76, 0
2, 71040, Note_on_c, 0, 78, 93
2, 71136, Note_on_c, 0, 78, 0
2, 71160, Note_on_c, 0, 69, 93
2, 71256, Note_on_c, 0, 69, 0
2, 71280, Note_on_c, 0, 76, 93
2, 71376, Note_on_c, 0, 76, 0
2, 71400, Note_on_c, 0, 78, 93
2, 71496, Note_on_c, 0, 78, 0
2, 71520, Note_on_c, 0, 79, 93
2, 71616, Note_on_c, 0, 79, 0
2, 71640, Note_on_c, 0, 71, 93
2, 71736, Note_on_c, 0, 71, 0
2, 71760, Note_on_c, 0, 76, 93
2, 71856, Note_on_c, 0, 76, 0
2, 71880, Note_on_c, 0, 78, 93
2, 71976, Note_on_c, 0, 78, 0
2, 72000, Note_on_c, 0, 80, 93
2, 72096, Note_on_c, 0, 80, 0
2, 72120, Note_on_c, 0, 71, 93
2, 72216, Note_on_c, 0, 71, 0
2, 72240, Note_on_c, 0, 77, 93
2, 72336, Note_on_c, 0, 77, 0
2, 72360, Note_on_c, 0, 79, 93
2, 72456, Note_on_c, 0, 79, 0
2, 72480, Note_on_c, 0, 81, 93
2, 72576, Note_on_c, 0, 81, 0
2, 72600, Note_on_c, 0, 72, 93
2, 72696, Note_on_c, 0, 72, 0
2, 72720, Note_on_c, 0, 78, 93
2, 72816, Note_on_c, 0, 78, 0
2, 72840, Note_on_c, 0, 79, 93
2, 72936, Note_on_c, 0, 79, 0
2, 72960, Note_on_c, 0, 81, 93
2, 73056, Note_on_c, 0, 81, 0
2, 73080, Note_on_c, 0, 72, 93
2, 73176, Note_on_c, 0, 72, 0
2, 73200, Note_on_c, 0, 79, 93
2, 73296, Note_on_c, 0, 79, 0
2, 73320, Note_on_c, 0, 81, 93
2, 73416, Note_on_c, 0, 81, 0
2, 73440, Note_on_c, 0, 83, 93
2, 73536, Note_on_c, 0, 83, 0
2, 73560, Note_on_c, 0, 74, 93
2, 73656, Note_on_c, 0, 74, 0
2, 73680, Note_on_c, 0, 80, 93
2, 73776, Note_on_c, 0, 80, 0
2, 73800, Note_on_c, 0, 81, 93
2, 73896, Note_on_c, 0, 81, 0
2, 73920, Note_on_c, 0, 83, 93
2, 74016, Note_on_c, 0, 83, 0
2, 74040, Note_on_c, 0, 76, 93
2, 74136, Note_on_c, 0, 76, 0
2, 74160, Note_on_c, 0, 81, 93
2, 74256, Note_on_c, 0, 81, 0
2, 74280, Note_on_c, 0, 83, 93
2, 74376, Note_on_c, 0, 83, 0
2, 74400, Note_on_c, 0, 84, 93
2, 74496, Note_on_c, 0, 84, 0
2, 74520, Note_on_c, 0, 80, 93
2, 74616, Note_on_c, 0, 80, 0
2, 74640, Note_on_c, 0, 81, 93
2, 74736, Note_on_c, 0, 81, 0
2, 74760, Note_on_c, 0, 76, 93
2, 74856, Note_on_c, 0, 76, 0
2, 74880, Note_on_c, 0, 78, 93
2, 74976, Note_on_c, 0, 78, 0
2, 75000, Note_on_c, 0, 74, 93
2, 75096, Note_on_c, 0, 74, 0
2, 75120, Note_on_c, 0, 76, 93
2, 75408, Note_on_c, 0, 76, 0
2, 75480, Note_on_c, 0, 77, 93
2, 75576, Note_on_c, 0, 77, 0
2, 75600, Note_on_c, 0, 71, 93
2, 75624, Note_on_c, 0, 71, 0
2, 75630, Note_on_c, 0, 72, 93
2, 75654, Note_on_c, 0, 72, 0
2, 75660, Note_on_c, 0, 71, 93
2, 75912, Note_on_c, 0, 71, 0
2, 75960, Note_on_c, 0, 69, 93
2, 76056, Note_on_c, 0, 69, 0
2, 76080, Note_on_c, 0, 69, 93
2, 76656, Note_on_c, 0, 69, 0
2, 76800, Note_on_c, 0, 71, 93
2, 76992, Note_on_c, 0, 71, 0
2, 77040, Note_on_c, 0, 71, 93
2, 77064, Note_on_c, 0, 71, 0
2, 77070, Note_on_c, 0, 72, 93
2, 77094, Note_on_c, 0, 72, 0
2, 77100, Note_on_c, 0, 71, 93
2, 77244, Note_on_c, 0, 71, 0
2, 77280, Note_on_c, 0, 69, 93
2, 77376, Note_on_c, 0, 69, 0
2, 77400, Note_on_c, 0, 71, 93
2, 77496, Note_on_c, 0, 71, 0
2, 77520, Note_on_c, 0, 72, 93
2, 77712, Note_on_c, 0, 72, 0
2, 77760, Note_on_c, 0, 71, 93
2, 77856, Note_on_c, 0, 71, 0
2, 77880, Note_on_c, 0, 72, 93
2, 77976, Note_on_c, 0, 72, 0
2, 78000, Note_on_c, 0, 74, 93
2, 78192, Note_on_c, 0, 74, 0
2, 78240, Note_on_c, 0, 72, 93
2, 78336, Note_on_c, 0, 72, 0
2, 78360, Note_on_c, 0, 71, 93
2, 78456, Note_on_c, 0, 71, 0
2, 78480, Note_on_c, 0, 69, 93
2, 78576, Note_on_c, 0, 69, 0
2, 78600, Note_on_c, 0, 68, 93
2, 78696, Note_on_c, 0, 68, 0
2, 78720, Note_on_c, 0, 77, 93
2, 78912, Note_on_c, 0, 77, 0
2, 78960, Note_on_c, 0, 76, 93
2, 79152, Note_on_c, 0, 76, 0
2, 79200, Note_on_c, 0, 74, 93
2, 79296, Note_on_c, 0, 74, 0
2, 79320, Note_on_c, 0, 72, 93
2, 79416, Note_on_c, 0, 72, 0
2, 79440, Note_on_c, 0, 74, 93
2, 79632, Note_on_c, 0, 74, 0
2, 79680, Note_on_c, 0, 72, 93
2, 79776, Note_on_c, 0, 72, 0
2, 79800, Note_on_c, 0, 71, 93
2, 79896, Note_on_c, 0, 71, 0
2, 79920, Note_on_c, 0, 74, 93
2, 80016, Note_on_c, 0, 74, 0
2, 80040, Note_on_c, 0, 72, 93
2, 80136, Note_on_c, 0, 72, 0
2, 80160, Note_on_c, 0, 71, 93
2, 80256, Note_on_c, 0, 71, 0
2, 80280, Note_on_c, 0, 72, 93
2, 80376, Note_on_c, 0, 72, 0
2, 80400, Note_on_c, 0, 69, 93
2, 80496, Note_on_c, 0, 69, 0
2, 80520, Note_on_c, 0, 71, 93
2, 80616, Note_on_c, 0, 71, 0
2, 80640, Note_on_c, 0, 72, 93
2, 80736, Note_on_c, 0, 72, 0
2, 80760, Note_on_c, 0, 74, 93
2, 80856, Note_on_c, 0, 74, 0
2, 80880, Note_on_c, 0, 76, 93
2, 80976, Note_on_c, 0, 76, 0
2, 81000, Note_on_c, 0, 77, 93
2, 81096, Note_on_c, 0, 77, 0
2, 81120, Note_on_c, 0, 74, 93
2, 81216, Note_on_c, 0, 74, 0
2, 81240, Note_on_c, 0, 76, 93
2, 81336, Note_on_c, 0, 76, 0
2, 81360, Note_on_c, 0, 77, 93
2, 81456, Note_on_c, 0, 77, 0
2, 81480, Note_on_c, 0, 79, 93
2, 81576, Note_on_c, 0, 79, 0
2, 81600, Note_on_c, 0, 76, 93
2, 81696, Note_on_c, 0, 76, 0
2, 81720, Note_on_c, 0, 77, 93
2, 81816, Note_on_c, 0, 77, 0
2, 81840, Note_on_c, 0, 79, 93
2, 81936, Note_on_c, 0, 79, 0
2, 81960, Note_on_c, 0, 81, 93
2, 82056, Note_on_c, 0, 81, 0
2, 82080, Note_on_c, 0, 79, 93
2, 82176, Note_on_c, 0, 79, 0
2, 82200, Note_on_c, 0, 77, 93
2, 82296, Note_on_c, 0, 77, 0
2, 82320, Note_on_c, 0, 76, 93
2, 82416, Note_on_c, 0, 76, 0
2, 82440, Note_on_c, 0, 74, 93
2, 82536, Note_on_c, 0, 74, 0
2, 82560, Note_on_c, 0, 73, 93
2, 82656, Note_on_c, 0, 73, 0
2, 82680, Note_on_c, 0, 82, 93
2, 82776, Note_on_c, 0, 82, 0
2, 82800, Note_on_c, 0, 81, 93
2, 82896, Note_on_c, 0, 81, 0
2, 82920, Note_on_c, 0, 79, 93
2, 83016, Note_on_c, 0, 79, 0
2, 83040, Note_on_c, 0, 77, 93
2, 83136, Note_on_c, 0, 77, 0
2, 83160, Note_on_c, 0, 81, 93
2, 83256, Note_on_c, 0, 81, 0
2, 83280, Note_on_c, 0, 79, 93
2, 83376, Note_on_c, 0, 79, 0
2, 83400, Note_on_c, 0, 77, 93
2, 83496, Note_on_c, 0, 77, 0
2, 83520, Note_on_c, 0, 76, 93
2, 83616, Note_on_c, 0, 76, 0
2, 83640, Note_on_c, 0, 77, 93
2, 83736, Note_on_c, 0, 77, 0
2, 83760, Note_on_c, 0, 79, 93
2, 83856, Note_on_c, 0, 79, 0
2, 83880, Note_on_c, 0, 77, 93
2, 83976, Note_on_c, 0, 77, 0
2, 84000, Note_on_c, 0, 76, 93
2, 84096, Note_on_c, 0, 76, 0
2, 84120, Note_on_c, 0, 77, 93
2, 84216, Note_on_c, 0, 77, 0
2, 84240, Note_on_c, 0, 74, 93
2, 84336, Note_on_c, 0, 74, 0
2, 84360, Note_on_c, 0, 77, 93
2, 84456, Note_on_c, 0, 77, 0
2, 84480, Note_on_c, 0, 76, 93
2, 84576, Note_on_c, 0, 76, 0
2, 84600, Note_on_c, 0, 79, 93
2, 84696, Note_on_c, 0, 79, 0
2, 84720, Note_on_c, 0, 77, 93
2, 84816, Note_on_c, 0, 77, 0
2, 84840, Note_on_c, 0, 76, 93
2, 84936, Note_on_c, 0, 76, 0
2, 84960, Note_on_c, 0, 74, 93
2, 85056, Note_on_c, 0, 74, 0
2, 85080, Note_on_c, 0, 81, 93
2, 85176, Note_on_c, 0, 81, 0
2, 85200, Note_on_c, 0, 77, 93
2, 85296, Note_on_c, 0, 77, 0
2, 85320, Note_on_c, 0, 76, 93
2, 85416, Note_on_c, 0, 76, 0
2, 85440, Note_on_c, 0, 74, 93
2, 85536, Note_on_c, 0, 74, 0
2, 85560, Note_on_c, 0, 72, 93
2, 85656, Note_on_c, 0, 72, 0
2, 85680, Note_on_c, 0, 70, 93
2, 85776, Note_on_c, 0, 70, 0
2, 85800, Note_on_c, 0, 69, 93
2, 85896, Note_on_c, 0, 69, 0
2, 85920, Note_on_c, 0, 67, 93
2, 86016, Note_on_c, 0, 67, 0
2, 86040, Note_on_c, 0, 74, 93
2, 86136, Note_on_c, 0, 74, 0
2, 86160, Note_on_c, 0, 70, 93
2, 86256, Note_on_c, 0, 70, 0
2, 86280, Note_on_c, 0, 69, 93
2, 86376, Note_on_c, 0, 69, 0
2, 86400, Note_on_c, 0, 67, 93
2, 86496, Note_on_c, 0, 67, 0
2, 86520, Note_on_c, 0, 77, 93
2, 86616, Note_on_c, 0, 77, 0
2, 86640, Note_on_c, 0, 76, 93
2, 86736, Note_on_c, 0, 76, 0
2, 86760, Note_on_c, 0, 74, 93
2, 86856, Note_on_c, 0, 74, 0
2, 86880, Note_on_c, 0, 72, 93
2, 86976, Note_on_c, 0, 72, 0
2, 87000, Note_on_c, 0, 79, 93
2, 87096, Note_on_c, 0, 79, 0
2, 87120, Note_on_c, 0, 76, 93
2, 87216, Note_on_c, 0, 76, 0
2, 87240, Note_on_c, 0, 74, 93
2, 87336, Note_on_c, 0, 74, 0
2, 87360, Note_on_c, 0, 72, 93
2, 87456, Note_on_c, 0, 72, 0
2, 87480, Note_on_c, 0, 70, 93
2, 87576, Note_on_c, 0, 70, 0
2, 87600, Note_on_c, 0, 69, 93
2, 87696, Note_on_c, 0, 69, 0
2, 87720, Note_on_c, 0, 67, 93
2, 87816, Note_on_c, 0, 67, 0
2, 87840, Note_on_c, 0, 65, 93
2, 87936, Note_on_c, 0, 65, 0
2, 87960, Note_on_c, 0, 72, 93
2, 88056, Note_on_c, 0, 72, 0
2, 88080, Note_on_c, 0, 69, 93
2, 88176, Note_on_c, 0, 69, 0
2, 88200, Note_on_c, 0, 67, 93
2, 88296, Note_on_c, 0, 67, 0
2, 88320, Note_on_c, 0, 65, 93
2, 88416, Note_on_c, 0, 65, 0
2, 88440, Note_on_c, 0, 69, 93
2, 88536, Note_on_c, 0, 69, 0
2, 88560, Note_on_c, 0, 70, 93
2, 88656, Note_on_c, 0, 70, 0
2, 88680, Note_on_c, 0, 72, 93
2, 88776, Note_on_c, 0, 72, 0
2, 88800, Note_on_c, 0, 74, 93
2, 88896, Note_on_c, 0, 74, 0
2, 88920, Note_on_c, 0, 77, 93
2, 89016, Note_on_c, 0, 77, 0
2, 89040, Note_on_c, 0, 76, 93
2, 89136, Note_on_c, 0, 76, 0
2, 89160, Note_on_c, 0, 77, 93
2, 89256, Note_on_c, 0, 77, 0
2, 89280, Note_on_c, 0, 79, 93
2, 89376, Note_on_c, 0, 79, 0
2, 89400, Note_on_c, 0, 71, 93
2, 89496, Note_on_c, 0, 71, 0
2, 89520, Note_on_c, 0, 73, 93
2, 89616, Note_on_c, 0, 73, 0
2, 89640, Note_on_c, 0, 74, 93
2, 89736, Note_on_c, 0, 74, 0
2, 89760, Note_on_c, 0, 76, 93
2, 89856, Note_on_c, 0, 76, 0
2, 89880, Note_on_c, 0, 79, 93
2, 89976, Note_on_c, 0, 79, 0
2, 90000, Note_on_c, 0, 77, 93
2, 90096, Note_on_c, 0, 77, 0
2, 90120, Note_on_c, 0, 79, 93
2, 90216, Note_on_c, 0, 79, 0
2, 90240, Note_on_c, 0, 81, 93
2, 90336, Note_on_c, 0, 81, 0
2, 90360, Note_on_c, 0, 73, 93
2, 90456, Note_on_c, 0, 73, 0
2, 90480, Note_on_c, 0, 74, 93
2, 90495, Note_on_c, 0, 74, 0
2, 90495, Note_on_c, 0, 73, 92
2, 90510, Note_on_c, 0, 73, 0
2, 90510, Note_on_c, 0, 71, 92
2, 90525, Note_on_c, 0, 71, 0
2, 90525, Note_on_c, 0, 73, 92
2, 90540, Note_on_c, 0, 73, 0
2, 90540, Note_on_c, 0, 74, 92
2, 90825, Note_on_c, 0, 74, 0
2, 90840, Note_on_c, 0, 76, 93
2, 90936, Note_on_c, 0, 76, 0
2, 90960, Note_on_c, 0, 76, 93
2, 90984, Note_on_c, 0, 76, 0
2, 90990, Note_on_c, 0, 77, 93
2, 91014, Note_on_c, 0, 77, 0
2, 91020, Note_on_c, 0, 76, 93
2, 91272, Note_on_c, 0, 76, 0
2, 91320, Note_on_c, 0, 74, 93
2, 91416, Note_on_c, 0, 74, 0
2, 91440, Note_on_c, 0, 74, 93
2, 92016, Note_on_c, 0, 74, 0
2, 92160, Note_on_c, 0, 74, 93
2, 92256, Note_on_c, 0, 74, 0
2, 92280, Note_on_c, 0, 76, 93
2, 92376, Note_on_c, 0, 76, 0
2, 92400, Note_on_c, 0, 77, 93
2, 92592, Note_on_c, 0, 77, 0
2, 92640, Note_on_c, 0, 74, 93
2, 92736, Note_on_c, 0, 74, 0
2, 92760, Note_on_c, 0, 76, 93
2, 92856, Note_on_c, 0, 76, 0
2, 92880, Note_on_c, 0, 77, 93
2, 93072, Note_on_c, 0, 77, 0
2, 93120, Note_on_c, 0, 76, 93
2, 93216, Note_on_c, 0, 76, 0
2, 93240, Note_on_c, 0, 74, 93
2, 93336, Note_on_c, 0, 74, 0
2, 93360, Note_on_c, 0, 76, 93
2, 93552, Note_on_c, 0, 76, 0
2, 93600, Note_on_c, 0, 74, 93
2, 93696, Note_on_c, 0, 74, 0
2, 93720, Note_on_c, 0, 72, 93
2, 93816, Note_on_c, 0, 72, 0
2, 93840, Note_on_c, 0, 74, 93
2, 94032, Note_on_c, 0, 74, 0
2, 94080, Note_on_c, 0, 72, 93
2, 94176, Note_on_c, 0, 72, 0
2, 94200, Note_on_c, 0, 74, 93
2, 94296, Note_on_c, 0, 74, 0
2, 94320, Note_on_c, 0, 76, 93
2, 94512, Note_on_c, 0, 76, 0
2, 94560, Note_on_c, 0, 74, 93
2, 94656, Note_on_c, 0, 74, 0
2, 94680, Note_on_c, 0, 72, 93
2, 94776, Note_on_c, 0, 72, 0
2, 94800, Note_on_c, 0, 74, 93
2, 94992, Note_on_c, 0, 74, 0
2, 95040, Note_on_c, 0, 72, 93
2, 95136, Note_on_c, 0, 72, 0
2, 95160, Note_on_c, 0, 71, 93
2, 95256, Note_on_c, 0, 71, 0
2, 95280, Note_on_c, 0, 72, 93
2, 95472, Note_on_c, 0, 72, 0
2, 95520, Note_on_c, 0, 71, 93
2, 95616, Note_on_c, 0, 71, 0
2, 95640, Note_on_c, 0, 72, 93
2, 95736, Note_on_c, 0, 72, 0
2, 95760, Note_on_c, 0, 74, 93
2, 95952, Note_on_c, 0, 74, 0
2, 96000, Note_on_c, 0, 72, 93
2, 96096, Note_on_c, 0, 72, 0
2, 96120, Note_on_c, 0, 71, 93
2, 96216, Note_on_c, 0, 71, 0
2, 96240, Note_on_c, 0, 72, 93
2, 96432, Note_on_c, 0, 72, 0
2, 96480, Note_on_c, 0, 71, 93
2, 96576, Note_on_c, 0, 71, 0
2, 96600, Note_on_c, 0, 69, 93
2, 96696, Note_on_c, 0, 69, 0
2, 96720, Note_on_c, 0, 71, 93
2, 96912, Note_on_c, 0, 71, 0
2, 96960, Note_on_c, 0, 69, 93
2, 97056, Note_on_c, 0, 69, 0
2, 97080, Note_on_c, 0, 71, 93
2, 97176, Note_on_c, 0, 71, 0
2, 97200, Note_on_c, 0, 72, 93
2, 97392, Note_on_c, 0, 72, 0
2, 97440, Note_on_c, 0, 71, 93
2, 97536, Note_on_c, 0, 71, 0
2, 97560, Note_on_c, 0, 69, 93
2, 97656, Note_on_c, 0, 69, 0
2, 97680, Note_on_c, 0, 71, 93
2, 97872, Note_on_c, 0, 71, 0
2, 97920, Note_on_c, 0, 69, 93
2, 98016, Note_on_c, 0, 69, 0
2, 98040, Note_on_c, 0, 68, 93
2, 98136, Note_on_c, 0, 68, 0
2, 98160, Note_on_c, 0, 69, 93
2, 98352, Note_on_c, 0, 69, 0
2, 98400, Note_on_c, 0, 77, 93
2, 98496, Note_on_c, 0, 77, 0
2, 98520, Note_on_c, 0, 76, 93
2, 98616, Note_on_c, 0, 76, 0
2, 98640, Note_on_c, 0, 74, 93
2, 98736, Note_on_c, 0, 74, 0
2, 98760, Note_on_c, 0, 72, 93
2, 98856, Note_on_c, 0, 72, 0
2, 98880, Note_on_c, 0, 71, 93
2, 98976, Note_on_c, 0, 71, 0
2, 99000, Note_on_c, 0, 69, 93
2, 99096, Note_on_c, 0, 69, 0
2, 99120, Note_on_c, 0, 68, 93
2, 99216, Note_on_c, 0, 68, 0
2, 99240, Note_on_c, 0, 69, 93
2, 99336, Note_on_c, 0, 69, 0
2, 99360, Note_on_c, 0, 71, 93
2, 99456, Note_on_c, 0, 71, 0
2, 99480, Note_on_c, 0, 68, 93
2, 99576, Note_on_c, 0, 68, 0
2, 99600, Note_on_c, 0, 64, 93
2, 99792, Note_on_c, 0, 64, 0
2, 99840, Note_on_c, 0, 71, 93
2, 100032, Note_on_c, 0, 71, 0
2, 100080, Note_on_c, 0, 72, 93
2, 100176, Note_on_c, 0, 72, 0
2, 100200, Note_on_c, 0, 74, 93
2, 100296, Note_on_c, 0, 74, 0
2, 100320, Note_on_c, 0, 76, 93
2, 100416, Note_on_c, 0, 76, 0
2, 100440, Note_on_c, 0, 69, 93
2, 100536, Note_on_c, 0, 69, 0
2, 100560, Note_on_c, 0, 73, 93
2, 100656, Note_on_c, 0, 73, 0
2, 100680, Note_on_c, 0, 74, 93
2, 100776, Note_on_c, 0, 74, 0
2, 100800, Note_on_c, 0, 76, 93
2, 100896, Note_on_c, 0, 76, 0
2, 100920, Note_on_c, 0, 69, 93
2, 101016, Note_on_c, 0, 69, 0
2, 101040, Note_on_c, 0, 74, 93
2, 101136, Note_on_c, 0, 74, 0
2, 101160, Note_on_c, 0, 76, 93
2, 101256, Note_on_c, 0, 76, 0
2, 101280, Note_on_c, 0, 77, 93
2, 101376, Note_on_c, 0, 77, 0
2, 101400, Note_on_c, 0, 69, 93
2, 101496, Note_on_c, 0, 69, 0
2, 101520, Note_on_c, 0, 75, 93
2, 101616, Note_on_c, 0, 75, 0
2, 101640, Note_on_c, 0, 76, 93
2, 101736, Note_on_c, 0, 76, 0
2, 101760, Note_on_c, 0, 78, 93
2, 101856, Note_on_c, 0, 78, 0
2, 101880, Note_on_c, 0, 69, 93
2, 101976, Note_on_c, 0, 69, 0
2, 102000, Note_on_c, 0, 76, 93
2, 102096, Note_on_c, 0, 76, 0
2, 102120, Note_on_c, 0, 78, 93
2, 102216, Note_on_c, 0, 78, 0
2, 102240, Note_on_c, 0, 79, 93
2, 102336, Note_on_c, 0, 79, 0
2, 102360, Note_on_c, 0, 71, 93
2, 102456, Note_on_c, 0, 71, 0
2, 102480, Note_on_c, 0, 76, 93
2, 102576, Note_on_c, 0, 76, 0
2, 102600, Note_on_c, 0, 78, 93
2, 102696, Note_on_c, 0, 78, 0
2, 102720, Note_on_c, 0, 80, 93
2, 102816, Note_on_c, 0, 80, 0
2, 102840, Note_on_c, 0, 71, 93
2, 102936, Note_on_c, 0, 71, 0
2, 102960, Note_on_c, 0, 77, 93
2, 103056, Note_on_c, 0, 77, 0
2, 103080, Note_on_c, 0, 79, 93
2, 103176, Note_on_c, 0, 79, 0
2, 103200, Note_on_c, 0, 81, 93
2, 103296, Note_on_c, 0, 81, 0
2, 103320, Note_on_c, 0, 72, 93
2, 103416, Note_on_c, 0, 72, 0
2, 103440, Note_on_c, 0, 78, 93
2, 103536, Note_on_c, 0, 78, 0
2, 103560, Note_on_c, 0, 79, 93
2, 103656, Note_on_c, 0, 79, 0
2, 103680, Note_on_c, 0, 81, 93
2, 103776, Note_on_c, 0, 81, 0
2, 103800, Note_on_c, 0, 72, 93
2, 103896, Note_on_c, 0, 72, 0
2, 103920, Note_on_c, 0, 79, 93
2, 104016, Note_on_c, 0, 79, 0
2, 104040, Note_on_c, 0, 81, 93
2, 104136, Note_on_c, 0, 81, 0
2, 104160, Note_on_c, 0, 83, 93
2, 104256, Note_on_c, 0, 83, 0
2, 104280, Note_on_c, 0, 74, 93
2, 104376, Note_on_c, 0, 74, 0
2, 104400, Note_on_c, 0, 80, 93
2, 104496, Note_on_c, 0, 80, 0
2, 104520, Note_on_c, 0, 81, 93
2, 104616, Note_on_c, 0, 81, 0
2, 104640, Note_on_c, 0, 83, 93
2, 104736, Note_on_c, 0, 83, 0
2, 104760, Note_on_c, 0, 76, 93
2, 104856, Note_on_c, 0, 76, 0
2, 104880, Note_on_c, 0, 81, 93
2, 104976, Note_on_c, 0, 81, 0
2, 105000, Note_on_c, 0, 83, 93
2, 105096, Note_on_c, 0, 83, 0
2, 105120, Note_on_c, 0, 84, 93
2, 105216, Note_on_c, 0, 84, 0
2, 105240, Note_on_c, 0, 80, 93
2, 105336, Note_on_c, 0, 80, 0
2, 105360, Note_on_c, 0, 81, 93
2, 105456, Note_on_c, 0, 81, 0
2, 105480, Note_on_c, 0, 76, 93
2, 105576, Note_on_c, 0, 76, 0
2, 105600, Note_on_c, 0, 78, 93
2, 105696, Note_on_c, 0, 78, 0
2, 105720, Note_on_c, 0, 74, 93
2, 105816, Note_on_c, 0, 74, 0
2, 105840, Note_on_c, 0, 76, 93
2, 106128, Note_on_c, 0, 76, 0
2, 106200, Note_on_c, 0, 77, 93
2, 106296, Note_on_c, 0, 77, 0
2, 106320, Note_on_c, 0, 71, 93
2, 106344, Note_on_c, 0, 71, 0
2, 106350, Note_on_c, 0, 72, 93
2, 106374, Note_on_c, 0, 72, 0
2, 106380, Note_on_c, 0, 71, 93
2, 106632, Note_on_c, 0, 71, 0
2, 106680, Note_on_c, 0, 69, 93
2, 106776, Note_on_c, 0, 69, 0
2, 106800, Note_on_c, 0, 69, 93
2, 107376, Note_on_c, 0, 69, 0
2, 107376, End_track
3, 0, Start_track
3, 0, MIDI_port, 0
3, 0, Title_t, "J.S. Bach, Edition Wood"
3, 0, Program_c, 1, 0
3, 0, Control_c, 1, 7, 100
3, 0, Control_c, 1, 10, 64
3, 0, Note_on_c, 1, 57, 93
3, 96, Note_on_c, 1, 57, 0
3, 120, Note_on_c, 1, 59, 93
3, 216, Note_on_c, 1, 59, 0
3, 240, Note_on_c, 1, 60, 93
3, 336, Note_on_c, 1, 60, 0
3, 360, Note_on_c, 1, 57, 93
3, 456, Note_on_c, 1, 57, 0
3, 480, Note_on_c, 1, 60, 93
3, 576, Note_on_c, 1, 60, 0
3, 600, Note_on_c, 1, 57, 93
3, 696, Note_on_c, 1, 57, 0
3, 720, Note_on_c, 1, 62, 93
3, 816, Note_on_c, 1, 62, 0
3, 840, Note_on_c, 1, 57, 93
3, 936, Note_on_c, 1, 57, 0
3, 960, Note_on_c, 1, 62, 93
3, 1056, Note_on_c, 1, 62, 0
3, 1080, Note_on_c, 1, 57, 93
3, 1176, Note_on_c, 1, 57, 0
3, 1200, Note_on_c, 1, 60, 93
3, 1296, Note_on_c, 1, 60, 0
3, 1320, Note_on_c, 1, 57, 93
3, 1416, Note_on_c, 1, 57, 0
3, 1440, Note_on_c, 1, 62, 93
3, 1536, Note_on_c, 1, 62, 0
3, 1560, Note_on_c, 1, 57, 93
3, 1656, Note_on_c, 1, 57, 0
3, 1680, Note_on_c, 1, 60, 93
3, 1776, Note_on_c, 1, 60, 0
3, 1800, Note_on_c, 1, 57, 93
3, 1896, Note_on_c, 1, 57, 0
3, 1920, Note_on_c, 1, 59, 93
3, 2016, Note_on_c, 1, 59, 0
3, 2040, Note_on_c, 1, 57, 93
3, 2136, Note_on_c, 1, 57, 0
3, 2160, Note_on_c, 1, 60, 93
3, 2256, Note_on_c, 1, 60, 0
3, 2280, Note_on_c, 1, 57, 93
3, 2376, Note_on_c, 1, 57, 0
3, 2400, Note_on_c, 1, 60, 93
3, 2496, Note_on_c, 1, 60, 0
3, 2520, Note_on_c, 1, 57, 93
3, 2616, Note_on_c, 1, 57, 0
3, 2640, Note_on_c, 1, 62, 93
3, 2736, Note_on_c, 1, 62, 0
3, 2760, Note_on_c, 1, 57, 93
3, 2856, Note_on_c, 1, 57, 0
3, 2880, Note_on_c, 1, 62, 93
3, 2976, Note_on_c, 1, 62, 0
3, 3000, Note_on_c, 1, 57, 93
3, 3096, Note_on_c, 1, 57, 0
3, 3120, Note_on_c, 1, 60, 93
3, 3216, Note_on_c, 1, 60, 0
3, 3240, Note_on_c, 1, 57, 93
3, 3336, Note_on_c, 1, 57, 0
3, 3360, Note_on_c, 1, 60, 93
3, 3456, Note_on_c, 1, 60, 0
3, 3480, Note_on_c, 1, 57, 93
3, 3576, Note_on_c, 1, 57, 0
3, 3600, Note_on_c, 1, 59, 93
3, 3696, Note_on_c, 1, 59, 0
3, 3720, Note_on_c, 1, 57, 93
3, 3816, Note_on_c, 1, 57, 0
3, 3840, Note_on_c, 1, 59, 93
3, 3936, Note_on_c, 1, 59, 0
3, 3960, Note_on_c, 1, 57, 93
3, 4056, Note_on_c, 1, 57, 0
3, 4080, Note_on_c, 1, 56, 93
3, 4176, Note_on_c, 1, 56, 0
3, 4200, Note_on_c, 1, 59, 93
3, 4296, Note_on_c, 1, 59, 0
3, 4320, Note_on_c, 1, 54, 93
3, 4416, Note_on_c, 1, 54, 0
3, 4440, Note_on_c, 1, 59, 93
3, 4536, Note_on_c, 1, 59, 0
3, 4560, Note_on_c, 1, 56, 93
3, 4656, Note_on_c, 1, 56, 0
3, 4680, Note_on_c, 1, 59, 93
3, 4776, Note_on_c, 1, 59, 0
3, 4800, Note_on_c, 1, 52, 93
3, 4896, Note_on_c, 1, 52, 0
3, 4920, Note_on_c, 1, 56, 93
3, 5016, Note_on_c, 1, 56, 0
3, 5040, Note_on_c, 1, 57, 93
3, 5136, Note_on_c, 1, 57, 0
3, 5160, Note_on_c, 1, 52, 93
3, 5256, Note_on_c, 1, 52, 0
3, 5280, Note_on_c, 1, 57, 93
3, 5376, Note_on_c, 1, 57, 0
3, 5400, Note_on_c, 1, 52, 93
3, 5496, Note_on_c, 1, 52, 0
3, 5520, Note_on_c, 1, 59, 93
3, 5616, Note_on_c, 1, 59, 0
3, 5640, Note_on_c, 1, 52, 93
3, 5736, Note_on_c, 1, 52, 0
3, 5760, Note_on_c, 1, 59, 93
3, 5856, Note_on_c, 1, 59, 0
3, 5880, Note_on_c, 1, 52, 93
3, 5976, Note_on_c, 1, 52, 0
3, 6000, Note_on_c, 1, 60, 93
3, 6096, Note_on_c, 1, 60, 0
3, 6120, Note_on_c, 1, 52, 93
3, 6216, Note_on_c, 1, 52, 0
3, 6240, Note_on_c, 1, 57, 93
3, 6336, Note_on_c, 1, 57, 0
3, 6360, Note_on_c, 1, 52, 93
3, 6456, Note_on_c, 1, 52, 0
3, 6480, Note_on_c, 1, 59, 93
3, 6576, Note_on_c, 1, 59, 0
3, 6600, Note_on_c, 1, 52, 93
3, 6696, Note_on_c, 1, 52, 0
3, 6720, Note_on_c, 1, 56, 93
3, 6816, Note_on_c, 1, 56, 0
3, 6840, Note_on_c, 1, 52, 93
3, 6936, Note_on_c, 1, 52, 0
3, 6960, Note_on_c, 1, 57, 93
3, 7152, Note_on_c, 1, 57, 0
3, 7200, Note_on_c, 1, 52, 93
3, 7380, Note_on_c, 1, 52, 0
3, 7440, Note_on_c, 1, 48, 93
3, 7620, Note_on_c, 1, 48, 0
3, 7680, Note_on_c, 1, 52, 93
3, 7860, Note_on_c, 1, 52, 0
3, 7920, Note_on_c, 1, 45, 93
3, 8112, Note_on_c, 1, 45, 0
3, 8160, Note_on_c, 1, 48, 93
3, 8352, Note_on_c, 1, 48, 0
3, 8400, Note_on_c, 1, 52, 93
3, 8592, Note_on_c, 1, 52, 0
3, 8640, Note_on_c, 1, 55, 93
3, 8832, Note_on_c, 1, 55, 0
3, 8880, Note_on_c, 1, 54, 93
3, 9060, Note_on_c, 1, 54, 0
3, 9120, Note_on_c, 1, 57, 93
3, 9300, Note_on_c, 1, 57, 0
3, 9360, Note_on_c, 1, 50, 93
3, 9540, Note_on_c, 1, 50, 0
3, 9600, Note_on_c, 1, 54, 93
3, 9780, Note_on_c, 1, 54, 0
3, 9840, Note_on_c, 1, 43, 93
3, 10032, Note_on_c, 1, 43, 0
3, 10080, Note_on_c, 1, 47, 93
3, 10272, Note_on_c, 1, 47, 0
3, 10320, Note_on_c, 1, 50, 93
3, 10512, Note_on_c, 1, 50, 0
3, 10560, Note_on_c, 1, 54, 93
3, 10752, Note_on_c, 1, 54, 0
3, 10800, Note_on_c, 1, 52, 93
3, 10980, Note_on_c, 1, 52, 0
3, 11040, Note_on_c, 1, 55, 93
3, 11220, Note_on_c, 1, 55, 0
3, 11280, Note_on_c, 1, 48, 93
3, 11460, Note_on_c, 1, 48, 0
3, 11520, Note_on_c, 1, 52, 93
3, 11700, Note_on_c, 1, 52, 0
3, 11760, Note_on_c, 1, 42, 93
3, 11952, Note_on_c, 1, 42, 0
3, 12000, Note_on_c, 1, 45, 93
3, 12192, Note_on_c, 1, 45, 0
3, 12240, Note_on_c, 1, 48, 93
3, 12432, Note_on_c, 1, 48, 0
3, 12480, Note_on_c, 1, 52, 93
3, 12672, Note_on_c, 1, 52, 0
3, 12720, Note_on_c, 1, 51, 93
3, 12912, Note_on_c, 1, 51, 0
3, 12960, Note_on_c, 1, 54, 93
3, 13140, Note_on_c, 1, 54, 0
3, 13200, Note_on_c, 1, 47, 93
3, 13380, Note_on_c, 1, 47, 0
3, 13440, Note_on_c, 1, 51, 93
3, 13620, Note_on_c, 1, 51, 0
3, 13680, Note_on_c, 1, 52, 93
3, 13776, Note_on_c, 1, 52, 0
3, 13800, Note_on_c, 1, 47, 93
3, 13896, Note_on_c, 1, 47, 0
3, 13920, Note_on_c, 1, 52, 93
3, 14016, Note_on_c, 1, 52, 0
3, 14040, Note_on_c, 1, 47, 93
3, 14136, Note_on_c, 1, 47, 0
3, 14160, Note_on_c, 1, 51, 93
3, 14256, Note_on_c, 1, 51, 0
3, 14280, Note_on_c, 1, 47, 93
3, 14376, Note_on_c, 1, 47, 0
3, 14400, Note_on_c, 1, 51, 93
3, 14496, Note_on_c, 1, 51, 0
3, 14520, Note_on_c, 1, 47, 93
3, 14616, Note_on_c, 1, 47, 0
3, 14640, Note_on_c, 1, 52, 93
3, 14832, Note_on_c, 1, 52, 0
3, 14880, Note_on_c, 1, 47, 93
3, 15060, Note_on_c, 1, 47, 0
3, 15120, Note_on_c, 1, 40, 93
3, 15300, Note_on_c, 1, 40, 0
3, 15360, Note_on_c, 1, 51, 93
3, 15540, Note_on_c, 1, 51, 0
3, 15600, Note_on_c, 1, 52, 93
3, 15696, Note_on_c, 1, 52, 0
3, 15720, Note_on_c, 1, 47, 93
3, 15816, Note_on_c, 1, 47, 0
3, 15840, Note_on_c, 1, 52, 93
3, 15936, Note_on_c, 1, 52, 0
3, 15960, Note_on_c, 1, 47, 93
3, 16056, Note_on_c, 1, 47, 0
3, 16080, Note_on_c, 1, 51, 93
3, 16176, Note_on_c, 1, 51, 0
3, 16200, Note_on_c, 1, 47, 93
3, 16296, Note_on_c, 1, 47, 0
3, 16320, Note_on_c, 1, 51, 93
3, 16416, Note_on_c, 1, 51, 0
3, 16440, Note_on_c, 1, 47, 93
3, 16536, Note_on_c, 1, 47, 0
3, 16560, Note_on_c, 1, 52, 93
3, 16752, Note_on_c, 1, 52, 0
3, 16800, Note_on_c, 1, 47, 93
3, 16992, Note_on_c, 1, 47, 0
3, 17040, Note_on_c, 1, 52, 93
3, 17232, Note_on_c, 1, 52, 0
3, 17280, Note_on_c, 1, 55, 93
3, 17472, Note_on_c, 1, 55, 0
3, 17520, Note_on_c, 1, 52, 93
3, 17712, Note_on_c, 1, 52, 0
3, 17760, Note_on_c, 1, 55, 93
3, 17952, Note_on_c, 1, 55, 0
3, 18000, Note_on_c, 1, 59, 93
3, 18192, Note_on_c, 1, 59, 0
3, 18240, Note_on_c, 1, 64, 93
3, 18432, Note_on_c, 1, 64, 0
3, 18480, Note_on_c, 1, 63, 93
3, 18672, Note_on_c, 1, 63, 0
3, 18720, Note_on_c, 1, 59, 93
3, 18912, Note_on_c, 1, 59, 0
3, 18960, Note_on_c, 1, 63, 93
3, 19152, Note_on_c, 1, 63, 0
3, 19200, Note_on_c, 1, 59, 93
3, 19392, Note_on_c, 1, 59, 0
3, 19440, Note_on_c, 1, 64, 93
3, 19632, Note_on_c, 1, 64, 0
3, 19680, Note_on_c, 1, 59, 93
3, 19872, Note_on_c, 1, 59, 0
3, 19920, Note_on_c, 1, 52, 93
3, 20112, Note_on_c, 1, 52, 0
3, 20160, Note_on_c, 1, 55, 93
3, 20352, Note_on_c, 1, 55, 0
3, 20400, Note_on_c, 1, 57, 93
3, 20592, Note_on_c, 1, 57, 0
3, 20640, Note_on_c, 1, 55, 93
3, 20832, Note_on_c, 1, 55, 0
3, 20880, Note_on_c, 1, 57, 93
3, 21072, Note_on_c, 1, 57, 0
3, 21120, Note_on_c, 1, 54, 93
3, 21312, Note_on_c, 1, 54, 0
3, 21360, Note_on_c, 1, 55, 93
3, 21540, Note_on_c, 1, 55, 0
3, 21600, Note_on_c, 1, 57, 93
3, 21780, Note_on_c, 1, 57, 0
3, 21840, Note_on_c, 1, 59, 93
3, 22020, Note_on_c, 1, 59, 0
3, 22080, Note_on_c, 1, 47, 93
3, 22260, Note_on_c, 1, 47, 0
3, 22320, Note_on_c, 1, 64, 93
3, 22416, Note_on_c, 1, 64, 0
3, 22440, Note_on_c, 1, 65, 93
3, 22536, Note_on_c, 1, 65, 0
3, 22560, Note_on_c, 1, 64, 93
3, 22656, Note_on_c, 1, 64, 0
3, 22680, Note_on_c, 1, 62, 93
3, 22776, Note_on_c, 1, 62, 0
3, 22800, Note_on_c, 1, 60, 93
3, 22896, Note_on_c, 1, 60, 0
3, 22920, Note_on_c, 1, 59, 93
3, 23016, Note_on_c, 1, 59, 0
3, 23040, Note_on_c, 1, 57, 93
3, 23136, Note_on_c, 1, 57, 0
3, 23160, Note_on_c, 1, 59, 93
3, 23256, Note_on_c, 1, 59, 0
3, 23280, Note_on_c, 1, 60, 93
3, 23376, Note_on_c, 1, 60, 0
3, 23400, Note_on_c, 1, 57, 93
3, 23496, Note_on_c, 1, 57, 0
3, 23520, Note_on_c, 1, 60, 93
3, 23616, Note_on_c, 1, 60, 0
3, 23640, Note_on_c, 1, 57, 93
3, 23736, Note_on_c, 1, 57, 0
3, 23760, Note_on_c, 1, 62, 93
3, 23856, Note_on_c, 1, 62, 0
3, 23880, Note_on_c, 1, 57, 93
3, 23976, Note_on_c, 1, 57, 0
3, 24000, Note_on_c, 1, 62, 93
3, 24096, Note_on_c, 1, 62, 0
3, 24120, Note_on_c, 1, 57, 93
3, 24216, Note_on_c, 1, 57, 0
3, 24240, Note_on_c, 1, 60, 93
3, 24336, Note_on_c, 1, 60, 0
3, 24360, Note_on_c, 1, 57, 93
3, 24456, Note_on_c, 1, 57, 0
3, 24480, Note_on_c, 1, 62, 93
3, 24576, Note_on_c, 1, 62, 0
3, 24600, Note_on_c, 1, 57, 93
3, 24696, Note_on_c, 1, 57, 0
3, 24720, Note_on_c, 1, 60, 93
3, 24816, Note_on_c, 1, 60, 0
3, 24840, Note_on_c, 1, 57, 93
3, 24936, Note_on_c, 1, 57, 0
3, 24960, Note_on_c, 1, 59, 93
3, 25056, Note_on_c, 1, 59, 0
3, 25080, Note_on_c, 1, 57, 93
3, 25176, Note_on_c, 1, 57, 0
3, 25200, Note_on_c, 1, 60, 93
3, 25296, Note_on_c, 1, 60, 0
3, 25320, Note_on_c, 1, 57, 93
3, 25416, Note_on_c, 1, 57, 0
3, 25440, Note_on_c, 1, 60, 93
3, 25536, Note_on_c, 1, 60, 0
3, 25560, Note_on_c, 1, 57, 93
3, 25656, Note_on_c, 1, 57, 0
3, 25680, Note_on_c, 1, 62, 93
3, 25776, Note_on_c, 1, 62, 0
3, 25800, Note_on_c, 1, 57, 93
3, 25896, Note_on_c, 1, 57, 0
3, 25920, Note_on_c, 1, 62, 93
3, 26016, Note_on_c, 1, 62, 0
3, 26040, Note_on_c, 1, 57, 93
3, 26136, Note_on_c, 1, 57, 0
3, 26160, Note_on_c, 1, 60, 93
3, 26256, Note_on_c, 1, 60, 0
3, 26280, Note_on_c, 1, 57, 93
3, 26376, Note_on_c, 1, 57, 0
3, 26400, Note_on_c, 1, 60, 93
3, 26496, Note_on_c, 1, 60, 0
3, 26520, Note_on_c, 1, 57, 93
3, 26616, Note_on_c, 1, 57, 0
3, 26640, Note_on_c, 1, 59, 93
3, 26736, Note_on_c, 1, 59, 0
3, 26760, Note_on_c, 1, 57, 93
3, 26856, Note_on_c, 1, 57, 0
3, 26880, Note_on_c, 1, 59, 93
3, 26976, Note_on_c, 1, 59, 0
3, 27000, Note_on_c, 1, 57, 93
3, 27096, Note_on_c, 1, 57, 0
3, 27120, Note_on_c, 1, 56, 93
3, 27216, Note_on_c, 1, 56, 0
3, 27240, Note_on_c, 1, 59, 93
3, 27336, Note_on_c, 1, 59, 0
3, 27360, Note_on_c, 1, 54, 93
3, 27456, Note_on_c, 1, 54, 0
3, 27480, Note_on_c, 1, 59, 93
3, 27576, Note_on_c, 1, 59, 0
3, 27600, Note_on_c, 1, 56, 93
3, 27696, Note_on_c, 1, 56, 0
3, 27720, Note_on_c, 1, 59, 93
3, 27816, Note_on_c, 1, 59, 0
3, 27840, Note_on_c, 1, 52, 93
3, 27936, Note_on_c, 1, 52, 0
3, 27960, Note_on_c, 1, 56, 93
3, 28056, Note_on_c, 1, 56, 0
3, 28080, Note_on_c, 1, 57, 93
3, 28176, Note_on_c, 1, 57, 0
3, 28200, Note_on_c, 1, 52, 93
3, 28296, Note_on_c, 1, 52, 0
3, 28320, Note_on_c, 1, 57, 93
3, 28416, Note_on_c, 1, 57, 0
3, 28440, Note_on_c, 1, 52, 93
3, 28536, Note_on_c, 1, 52, 0
3, 28560, Note_on_c, 1, 59, 93
3, 28656, Note_on_c, 1, 59, 0
3, 28680, Note_on_c, 1, 52, 93
3, 28776, Note_on_c, 1, 52, 0
3, 28800, Note_on_c, 1, 59, 93
3, 28896, Note_on_c, 1, 59, 0
3, 28920, Note_on_c, 1, 52, 93
3, 29016, Note_on_c, 1, 52, 0
3, 29040, Note_on_c, 1, 60, 93
3, 29136, Note_on_c, 1, 60, 0
3, 29160, Note_on_c, 1, 52, 93
3, 29256, Note_on_c, 1, 52, 0
3, 29280, Note_on_c, 1, 57, 93
3, 29376, Note_on_c, 1, 57, 0
3, 29400, Note_on_c, 1, 52, 93
3, 29496, Note_on_c, 1, 52, 0
3, 29520, Note_on_c, 1, 59, 93
3, 29616, Note_on_c, 1, 59, 0
3, 29640, Note_on_c, 1, 52, 93
3, 29736, Note_on_c, 1, 52, 0
3, 29760, Note_on_c, 1, 56, 93
3, 29856, Note_on_c, 1, 56, 0
3, 29880, Note_on_c, 1, 52, 93
3, 29976, Note_on_c, 1, 52, 0
3, 30000, Note_on_c, 1, 57, 93
3, 30192, Note_on_c, 1, 57, 0
3, 30240, Note_on_c, 1, 52, 93
3, 30420, Note_on_c, 1, 52, 0
3, 30480, Note_on_c, 1, 48, 93
3, 30660, Note_on_c, 1, 48, 0
3, 30720, Note_on_c, 1, 52, 93
3, 30900, Note_on_c, 1, 52, 0
3, 30960, Note_on_c, 1, 45, 93
3, 31152, Note_on_c, 1, 45, 0
3, 31200, Note_on_c, 1, 48, 93
3, 31392, Note_on_c, 1, 48, 0
3, 31440, Note_on_c, 1, 52, 93
3, 31632, Note_on_c, 1, 52, 0
3, 31680, Note_on_c, 1, 55, 93
3, 31872, Note_on_c, 1, 55, 0
3, 31920, Note_on_c, 1, 54, 93
3, 32100, Note_on_c, 1, 54, 0
3, 32160, Note_on_c, 1, 57, 93
3, 32340, Note_on_c, 1, 57, 0
3, 32400, Note_on_c, 1, 50, 93
3, 32580, Note_on_c, 1, 50, 0
3, 32640, Note_on_c, 1, 54, 93
3, 32820, Note_on_c, 1, 54, 0
3, 32880, Note_on_c, 1, 43, 93
3, 33072, Note_on_c, 1, 43, 0
3, 33120, Note_on_c, 1, 47, 93
3, 33312, Note_on_c, 1, 47, 0
3, 33360, Note_on_c, 1, 50, 93
3, 33552, Note_on_c, 1, 50, 0
3, 33600, Note_on_c, 1, 54, 93
3, 33792, Note_on_c, 1, 54, 0
3, 33840, Note_on_c, 1, 52, 93
3, 34020, Note_on_c, 1, 52, 0
3, 34080, Note_on_c, 1, 55, 93
3, 34260, Note_on_c, 1, 55, 0
3, 34320, Note_on_c, 1, 48, 93
3, 34500, Note_on_c, 1, 48, 0
3, 34560, Note_on_c, 1, 52, 93
3, 34740, Note_on_c, 1, 52, 0
3, 34800, Note_on_c, 1, 42, 93
3, 34992, Note_on_c, 1, 42, 0
3, 35040, Note_on_c, 1, 45, 93
3, 35232, Note_on_c, 1, 45, 0
3, 35280, Note_on_c, 1, 48, 93
3, 35472, Note_on_c, 1, 48, 0
3, 35520, Note_on_c, 1, 52, 93
3, 35712, Note_on_c, 1, 52, 0
3, 35760, Note_on_c, 1, 51, 93
3, 35952, Note_on_c, 1, 51, 0
3, 36000, Note_on_c, 1, 54, 93
3, 36180, Note_on_c, 1, 54, 0
3, 36240, Note_on_c, 1, 47, 93
3, 36420, Note_on_c, 1, 47, 0
3, 36480, Note_on_c, 1, 51, 93
3, 36660, Note_on_c, 1, 51, 0
3, 36720, Note_on_c, 1, 52, 93
3, 36816, Note_on_c, 1, 52, 0
3, 36840, Note_on_c, 1, 47, 93
3, 36936, Note_on_c, 1, 47, 0
3, 36960, Note_on_c, 1, 52, 93
3, 37056, Note_on_c, 1, 52, 0
3, 37080, Note_on_c, 1, 47, 93
3, 37176, Note_on_c, 1, 47, 0
3, 37200, Note_on_c, 1, 51, 93
3, 37296, Note_on_c, 1, 51, 0
3, 37320, Note_on_c, 1, 47, 93
3, 37416, Note_on_c, 1, 47, 0
3, 37440, Note_on_c, 1, 51, 93
3, 37536, Note_on_c, 1, 51, 0
3, 37560, Note_on_c, 1, 47, 93
3, 37656, Note_on_c, 1, 47, 0
3, 37680, Note_on_c, 1, 52, 93
3, 37872, Note_on_c, 1, 52, 0
3, 37920, Note_on_c, 1, 47, 93
3, 38100, Note_on_c, 1, 47, 0
3, 38160, Note_on_c, 1, 40, 93
3, 38340, Note_on_c, 1, 40, 0
3, 38400, Note_on_c, 1, 51, 93
3, 38580, Note_on_c, 1, 51, 0
3, 38640, Note_on_c, 1, 52, 93
3, 38736, Note_on_c, 1, 52, 0
3, 38760, Note_on_c, 1, 47, 93
3, 38856, Note_on_c, 1, 47, 0
3, 38880, Note_on_c, 1, 52, 93
3, 38976, Note_on_c, 1, 52, 0
3, 39000, Note_on_c, 1, 47, 93
3, 39096, Note_on_c, 1, 47, 0
3, 39120, Note_on_c, 1, 51, 93
3, 39216, Note_on_c, 1, 51, 0
3, 39240, Note_on_c, 1, 47, 93
3, 39336, Note_on_c, 1, 47, 0
3, 39360, Note_on_c, 1, 51, 93
3, 39456, Note_on_c, 1, 51, 0
3, 39480, Note_on_c, 1, 47, 93
3, 39576, Note_on_c, 1, 47, 0
3, 39600, Note_on_c, 1, 52, 93
3, 39792, Note_on_c, 1, 52, 0
3, 39840, Note_on_c, 1, 47, 93
3, 40032, Note_on_c, 1, 47, 0
3, 40080, Note_on_c, 1, 52, 93
3, 40272, Note_on_c, 1, 52, 0
3, 40320, Note_on_c, 1, 55, 93
3, 40512, Note_on_c, 1, 55, 0
3, 40560, Note_on_c, 1, 52, 93
3, 40752, Note_on_c, 1, 52, 0
3, 40800, Note_on_c, 1, 55, 93
3, 40992, Note_on_c, 1, 55, 0
3, 41040, Note_on_c, 1, 59, 93
3, 41232, Note_on_c, 1, 59, 0
3, 41280, Note_on_c, 1, 64, 93
3, 41472, Note_on_c, 1, 64, 0
3, 41520, Note_on_c, 1, 63, 93
3, 41712, Note_on_c, 1, 63, 0
3, 41760, Note_on_c, 1, 59, 93
3, 41952, Note_on_c, 1, 59, 0
3, 42000, Note_on_c, 1, 63, 93
3, 42192, Note_on_c, 1, 63, 0
3, 42240, Note_on_c, 1, 59, 93
3, 42432, Note_on_c, 1, 59, 0
3, 42480, Note_on_c, 1, 64, 93
3, 42672, Note_on_c, 1, 64, 0
3, 42720, Note_on_c, 1, 59, 93
3, 42912, Note_on_c, 1, 59, 0
3, 42960, Note_on_c, 1, 52, 93
3, 43152, Note_on_c, 1, 52, 0
3, 43200, Note_on_c, 1, 55, 93
3, 43392, Note_on_c, 1, 55, 0
3, 43440, Note_on_c, 1, 57, 93
3, 43632, Note_on_c, 1, 57, 0
3, 43680, Note_on_c, 1, 55, 93
3, 43872, Note_on_c, 1, 55, 0
3, 43920, Note_on_c, 1, 57, 93
3, 44112, Note_on_c, 1, 57, 0
3, 44160, Note_on_c, 1, 54, 93
3, 44352, Note_on_c, 1, 54, 0
3, 44400, Note_on_c, 1, 55, 93
3, 44580, Note_on_c, 1, 55, 0
3, 44640, Note_on_c, 1, 57, 93
3, 44820, Note_on_c, 1, 57, 0
3, 44880, Note_on_c, 1, 59, 93
3, 45060, Note_on_c, 1, 59, 0
3, 45120, Note_on_c, 1, 47, 93
3, 45300, Note_on_c, 1, 47, 0
3, 45360, Note_on_c, 1, 52, 93
3, 45540, Note_on_c, 1, 52, 0
3, 45600, Note_on_c, 1, 47, 93
3, 45780, Note_on_c, 1, 47, 0
3, 45840, Note_on_c, 1, 40, 93
3, 46020, Note_on_c, 1, 40, 0
3, 46080, Note_on_c, 1, 52, 93
3, 46176, Note_on_c, 1, 52, 0
3, 46200, Note_on_c, 1, 54, 93
3, 46296, Note_on_c, 1, 54, 0
3, 46320, Note_on_c, 1, 56, 93
3, 46416, Note_on_c, 1, 56, 0
3, 46440, Note_on_c, 1, 52, 93
3, 46536, Note_on_c, 1, 52, 0
3, 46560, Note_on_c, 1, 56, 93
3, 46656, Note_on_c, 1, 56, 0
3, 46680, Note_on_c, 1, 52, 93
3, 46776, Note_on_c, 1, 52, 0
3, 46800, Note_on_c, 1, 57, 93
3, 46896, Note_on_c, 1, 57, 0
3, 46920, Note_on_c, 1, 52, 93
3, 47016, Note_on_c, 1, 52, 0
3, 47040, Note_on_c, 1, 57, 93
3, 47136, Note_on_c, 1, 57, 0
3, 47160, Note_on_c, 1, 52, 93
3, 47256, Note_on_c, 1, 52, 0
3, 47280, Note_on_c, 1, 59, 93
3, 47376, Note_on_c, 1, 59, 0
3, 47400, Note_on_c, 1, 52, 93
3, 47496, Note_on_c, 1, 52, 0
3, 47520, Note_on_c, 1, 59, 93
3, 47616, Note_on_c, 1, 59, 0
3, 47640, Note_on_c, 1, 52, 93
3, 47736, Note_on_c, 1, 52, 0
3, 47760, Note_on_c, 1, 60, 93
3, 47856, Note_on_c, 1, 60, 0
3, 47880, Note_on_c, 1, 52, 93
3, 47976, Note_on_c, 1, 52, 0
3, 48000, Note_on_c, 1, 62, 93
3, 48096, Note_on_c, 1, 62, 0
3, 48120, Note_on_c, 1, 52, 93
3, 48216, Note_on_c, 1, 52, 0
3, 48240, Note_on_c, 1, 60, 93
3, 48336, Note_on_c, 1, 60, 0
3, 48360, Note_on_c, 1, 52, 93
3, 48456, Note_on_c, 1, 52, 0
3, 48480, Note_on_c, 1, 57, 93
3, 48576, Note_on_c, 1, 57, 0
3, 48600, Note_on_c, 1, 52, 93
3, 48696, Note_on_c, 1, 52, 0
3, 48720, Note_on_c, 1, 59, 93
3, 48816, Note_on_c, 1, 59, 0
3, 48840, Note_on_c, 1, 52, 93
3, 48936, Note_on_c, 1, 52, 0
3, 48960, Note_on_c, 1, 56, 93
3, 49056, Note_on_c, 1, 56, 0
3, 49080, Note_on_c, 1, 52, 93
3, 49176, Note_on_c, 1, 52, 0
3, 49200, Note_on_c, 1, 57, 93
3, 49380, Note_on_c, 1, 57, 0
3, 49440, Note_on_c, 1, 52, 93
3, 49620, Note_on_c, 1, 52, 0
3, 49680, Note_on_c, 1, 45, 93
3, 49776, Note_on_c, 1, 45, 0
3, 49800, Note_on_c, 1, 52, 93
3, 49896, Note_on_c, 1, 52, 0
3, 49920, Note_on_c, 1, 57, 93
3, 50016, Note_on_c, 1, 57, 0
3, 50040, Note_on_c, 1, 59, 93
3, 50136, Note_on_c, 1, 59, 0
3, 50160, Note_on_c, 1, 61, 93
3, 50256, Note_on_c, 1, 61, 0
3, 50280, Note_on_c, 1, 57, 93
3, 50376, Note_on_c, 1, 57, 0
3, 50400, Note_on_c, 1, 61, 93
3, 50496, Note_on_c, 1, 61, 0
3, 50520, Note_on_c, 1, 57, 93
3, 50616, Note_on_c, 1, 57, 0
3, 50640, Note_on_c, 1, 62, 93
3, 50736, Note_on_c, 1, 62, 0
3, 50760, Note_on_c, 1, 57, 93
3, 50856, Note_on_c, 1, 57, 0
3, 50880, Note_on_c, 1, 62, 93
3, 50976, Note_on_c, 1, 62, 0
3, 51000, Note_on_c, 1, 57, 93
3, 51096, Note_on_c, 1, 57, 0
3, 51120, Note_on_c, 1, 64, 93
3, 51216, Note_on_c, 1, 64, 0
3, 51240, Note_on_c, 1, 57, 93
3, 51336, Note_on_c, 1, 57, 0
3, 51360, Note_on_c, 1, 64, 93
3, 51456, Note_on_c, 1, 64, 0
3, 51480, Note_on_c, 1, 57, 93
3, 51576, Note_on_c, 1, 57, 0
3, 51600, Note_on_c, 1, 65, 93
3, 51696, Note_on_c, 1, 65, 0
3, 51720, Note_on_c, 1, 57, 93
3, 51816, Note_on_c, 1, 57, 0
3, 51840, Note_on_c, 1, 67, 93
3, 51936, Note_on_c, 1, 67, 0
3, 51960, Note_on_c, 1, 57, 93
3, 52056, Note_on_c, 1, 57, 0
3, 52080, Note_on_c, 1, 65, 93
3, 52176, Note_on_c, 1, 65, 0
3, 52200, Note_on_c, 1, 57, 93
3, 52296, Note_on_c, 1, 57, 0
3, 52320, Note_on_c, 1, 62, 93
3, 52416, Note_on_c, 1, 62, 0
3, 52440, Note_on_c, 1, 57, 93
3, 52536, Note_on_c, 1, 57, 0
3, 52560, Note_on_c, 1, 64, 93
3, 52656, Note_on_c, 1, 64, 0
3, 52680, Note_on_c, 1, 57, 93
3, 52776, Note_on_c, 1, 57, 0
3, 52800, Note_on_c, 1, 61, 93
3, 52896, Note_on_c, 1, 61, 0
3, 52920, Note_on_c, 1, 57, 93
3, 53016, Note_on_c, 1, 57, 0
3, 53040, Note_on_c, 1, 62, 93
3, 53220, Note_on_c, 1, 62, 0
3, 53280, Note_on_c, 1, 57, 93
3, 53460, Note_on_c, 1, 57, 0
3, 53520, Note_on_c, 1, 53, 93
3, 53700, Note_on_c, 1, 53, 0
3, 53760, Note_on_c, 1, 57, 93
3, 53940, Note_on_c, 1, 57, 0
3, 54000, Note_on_c, 1, 50, 93
3, 54180, Note_on_c, 1, 50, 0
3, 54240, Note_on_c, 1, 38, 93
3, 54432, Note_on_c, 1, 38, 0
3, 54480, Note_on_c, 1, 40, 93
3, 54672, Note_on_c, 1, 40, 0
3, 54720, Note_on_c, 1, 41, 93
3, 54912, Note_on_c, 1, 41, 0
3, 54960, Note_on_c, 1, 43, 93
3, 55140, Note_on_c, 1, 43, 0
3, 55200, Note_on_c, 1, 55, 93
3, 55392, Note_on_c, 1, 55, 0
3, 55440, Note_on_c, 1, 57, 93
3, 55632, Note_on_c, 1, 57, 0
3, 55680, Note_on_c, 1, 58, 93
3, 55872, Note_on_c, 1, 58, 0
3, 55920, Note_on_c, 1, 60, 93
3, 56100, Note_on_c, 1, 60, 0
3, 56160, Note_on_c, 1, 36, 93
3, 56352, Note_on_c, 1, 36, 0
3, 56400, Note_on_c, 1, 38, 93
3, 56592, Note_on_c, 1, 38, 0
3, 56640, Note_on_c, 1, 40, 93
3, 56832, Note_on_c, 1, 40, 0
3, 56880, Note_on_c, 1, 41, 93
3, 57060, Note_on_c, 1, 41, 0
3, 57120, Note_on_c, 1, 48, 93
3, 57312, Note_on_c, 1, 48, 0
3, 57360, Note_on_c, 1, 53, 93
3, 57552, Note_on_c, 1, 53, 0
3, 57600, Note_on_c, 1, 50, 93
3, 57792, Note_on_c, 1, 50, 0
3, 57840, Note_on_c, 1, 55, 93
3, 58032, Note_on_c, 1, 55, 0
3, 58080, Note_on_c, 1, 53, 93
3, 58272, Note_on_c, 1, 53, 0
3, 58320, Note_on_c, 1, 55, 93
3, 58512, Note_on_c, 1, 55, 0
3, 58560, Note_on_c, 1, 52, 93
3, 58752, Note_on_c, 1, 52, 0
3, 58800, Note_on_c, 1, 57, 93
3, 58992, Note_on_c, 1, 57, 0
3, 59040, Note_on_c, 1, 55, 93
3, 59232, Note_on_c, 1, 55, 0
3, 59280, Note_on_c, 1, 57, 93
3, 59472, Note_on_c, 1, 57, 0
3, 59520, Note_on_c, 1, 53, 93
3, 59712, Note_on_c, 1, 53, 0
3, 59760, Note_on_c, 1, 58, 93
3, 59952, Note_on_c, 1, 58, 0
3, 60000, Note_on_c, 1, 55, 93
3, 60192, Note_on_c, 1, 55, 0
3, 60240, Note_on_c, 1, 57, 93
3, 60432, Note_on_c, 1, 57, 0
3, 60480, Note_on_c, 1, 45, 93
3, 60672, Note_on_c, 1, 45, 0
3, 60720, Note_on_c, 1, 50, 93
3, 60816, Note_on_c, 1, 50, 0
3, 60840, Note_on_c, 1, 52, 93
3, 60936, Note_on_c, 1, 52, 0
3, 60960, Note_on_c, 1, 53, 93
3, 61056, Note_on_c, 1, 53, 0
3, 61080, Note_on_c, 1, 52, 93
3, 61176, Note_on_c, 1, 52, 0
3, 61200, Note_on_c, 1, 50, 93
3, 61296, Note_on_c, 1, 50, 0
3, 61320, Note_on_c, 1, 48, 93
3, 61416, Note_on_c, 1, 48, 0
3, 61440, Note_on_c, 1, 47, 93
3, 61536, Note_on_c, 1, 47, 0
3, 61560, Note_on_c, 1, 45, 93
3, 61656, Note_on_c, 1, 45, 0
3, 61680, Note_on_c, 1, 43, 93
3, 61776, Note_on_c, 1, 43, 0
3, 61800, Note_on_c, 1, 45, 93
3, 61896, Note_on_c, 1, 45, 0
3, 61920, Note_on_c, 1, 47, 93
3, 62016, Note_on_c, 1, 47, 0
3, 62040, Note_on_c, 1, 48, 93
3, 62136, Note_on_c, 1, 48, 0
3, 62160, Note_on_c, 1, 50, 93
3, 62256, Note_on_c, 1, 50, 0
3, 62280, Note_on_c, 1, 52, 93
3, 62376, Note_on_c, 1, 52, 0
3, 62400, Note_on_c, 1, 53, 93
3, 62496, Note_on_c, 1, 53, 0
3, 62520, Note_on_c, 1, 55, 93
3, 62616, Note_on_c, 1, 55, 0
3, 62640, Note_on_c, 1, 48, 93
3, 62736, Note_on_c, 1, 48, 0
3, 62760, Note_on_c, 1, 60, 93
3, 62856, Note_on_c, 1, 60, 0
3, 62880, Note_on_c, 1, 59, 93
3, 62976, Note_on_c, 1, 59, 0
3, 63000, Note_on_c, 1, 57, 93
3, 63096, Note_on_c, 1, 57, 0
3, 63120, Note_on_c, 1, 55, 93
3, 63216, Note_on_c, 1, 55, 0
3, 63240, Note_on_c, 1, 53, 93
3, 63336, Note_on_c, 1, 53, 0
3, 63360, Note_on_c, 1, 52, 93
3, 63456, Note_on_c, 1, 52, 0
3, 63480, Note_on_c, 1, 50, 93
3, 63576, Note_on_c, 1, 50, 0
3, 63600, Note_on_c, 1, 48, 93
3, 63696, Note_on_c, 1, 48, 0
3, 63720, Note_on_c, 1, 60, 93
3, 63816, Note_on_c, 1, 60, 0
3, 63840, Note_on_c, 1, 59, 93
3, 63936, Note_on_c, 1, 59, 0
3, 63960, Note_on_c, 1, 57, 93
3, 64056, Note_on_c, 1, 57, 0
3, 64080, Note_on_c, 1, 56, 93
3, 64176, Note_on_c, 1, 56, 0
3, 64200, Note_on_c, 1, 59, 93
3, 64296, Note_on_c, 1, 59, 0
3, 64320, Note_on_c, 1, 57, 93
3, 64416, Note_on_c, 1, 57, 0
3, 64440, Note_on_c, 1, 56, 93
3, 64536, Note_on_c, 1, 56, 0
3, 64560, Note_on_c, 1, 57, 93
3, 64656, Note_on_c, 1, 57, 0
3, 64680, Note_on_c, 1, 52, 93
3, 64776, Note_on_c, 1, 52, 0
3, 64800, Note_on_c, 1, 56, 93
3, 64896, Note_on_c, 1, 56, 0
3, 64920, Note_on_c, 1, 57, 93
3, 65016, Note_on_c, 1, 57, 0
3, 65040, Note_on_c, 1, 59, 93
3, 65136, Note_on_c, 1, 59, 0
3, 65160, Note_on_c, 1, 52, 93
3, 65256, Note_on_c, 1, 52, 0
3, 65280, Note_on_c, 1, 54, 93
3, 65376, Note_on_c, 1, 54, 0
3, 65400, Note_on_c, 1, 56, 93
3, 65496, Note_on_c, 1, 56, 0
3, 65520, Note_on_c, 1, 57, 93
3, 65616, Note_on_c, 1, 57, 0
3, 65640, Note_on_c, 1, 69, 93
3, 65736, Note_on_c, 1, 69, 0
3, 65760, Note_on_c, 1, 68, 93
3, 65856, Note_on_c, 1, 68, 0
3, 65880, Note_on_c, 1, 66, 93
3, 65976, Note_on_c, 1, 66, 0
3, 66000, Note_on_c, 1, 64, 93
3, 66096, Note_on_c, 1, 64, 0
3, 66120, Note_on_c, 1, 62, 93
3, 66216, Note_on_c, 1, 62, 0
3, 66240, Note_on_c, 1, 60, 93
3, 66336, Note_on_c, 1, 60, 0
3, 66360, Note_on_c, 1, 59, 93
3, 66456, Note_on_c, 1, 59, 0
3, 66480, Note_on_c, 1, 57, 93
3, 66576, Note_on_c, 1, 57, 0
3, 66600, Note_on_c, 1, 55, 93
3, 66696, Note_on_c, 1, 55, 0
3, 66720, Note_on_c, 1, 53, 93
3, 66816, Note_on_c, 1, 53, 0
3, 66840, Note_on_c, 1, 52, 93
3, 66936, Note_on_c, 1, 52, 0
3, 66960, Note_on_c, 1, 50, 93
3, 67056, Note_on_c, 1, 50, 0
3, 67080, Note_on_c, 1, 48, 93
3, 67176, Note_on_c, 1, 48, 0
3, 67200, Note_on_c, 1, 50, 93
3, 67296, Note_on_c, 1, 50, 0
3, 67320, Note_on_c, 1, 52, 93
3, 67416, Note_on_c, 1, 52, 0
3, 67440, Note_on_c, 1, 53, 93
3, 67620, Note_on_c, 1, 53, 0
3, 67680, Note_on_c, 1, 52, 93
3, 67860, Note_on_c, 1, 52, 0
3, 67920, Note_on_c, 1, 53, 93
3, 68100, Note_on_c, 1, 53, 0
3, 68160, Note_on_c, 1, 50, 93
3, 68340, Note_on_c, 1, 50, 0
3, 68400, Note_on_c, 1, 52, 93
3, 68976, Note_on_c, 1, 52, 0
3, 69000, Note_on_c, 1, 50, 93
3, 69096, Note_on_c, 1, 50, 0
3, 69120, Note_on_c, 1, 48, 93
3, 69216, Note_on_c, 1, 48, 0
3, 69240, Note_on_c, 1, 47, 93
3, 69336, Note_on_c, 1, 47, 0
3, 69360, Note_on_c, 1, 45, 93
3, 69552, Note_on_c, 1, 45, 0
3, 69600, Note_on_c, 1, 57, 93
3, 69984, Note_on_c, 1, 57, 0
3, 70080, Note_on_c, 1, 55, 93
3, 70272, Note_on_c, 1, 55, 0
3, 70320, Note_on_c, 1, 53, 93
3, 70512, Note_on_c, 1, 53, 0
3, 70560, Note_on_c, 1, 50, 93
3, 70752, Note_on_c, 1, 50, 0
3, 70800, Note_on_c, 1, 59, 93
3, 70992, Note_on_c, 1, 59, 0
3, 71040, Note_on_c, 1, 57, 93
3, 71232, Note_on_c, 1, 57, 0
3, 71280, Note_on_c, 1, 55, 93
3, 71472, Note_on_c, 1, 55, 0
3, 71520, Note_on_c, 1, 52, 93
3, 71700, Note_on_c, 1, 52, 0
3, 71760, Note_on_c, 1, 64, 93
3, 72432, Note_on_c, 1, 64, 0
3, 72480, Note_on_c, 1, 62, 93
3, 72576, Note_on_c, 1, 62, 0
3, 72600, Note_on_c, 1, 60, 93
3, 72696, Note_on_c, 1, 60, 0
3, 72720, Note_on_c, 1, 62, 93
3, 72816, Note_on_c, 1, 62, 0
3, 72840, Note_on_c, 1, 59, 93
3, 72936, Note_on_c, 1, 59, 0
3, 72960, Note_on_c, 1, 60, 93
3, 73056, Note_on_c, 1, 60, 0
3, 73080, Note_on_c, 1, 57, 93
3, 73176, Note_on_c, 1, 57, 0
3, 73200, Note_on_c, 1, 59, 93
3, 73392, Note_on_c, 1, 59, 0
3, 73440, Note_on_c, 1, 65, 93
3, 73632, Note_on_c, 1, 65, 0
3, 73680, Note_on_c, 1, 64, 93
3, 73872, Note_on_c, 1, 64, 0
3, 73920, Note_on_c, 1, 62, 93
3, 74112, Note_on_c, 1, 62, 0
3, 74160, Note_on_c, 1, 60, 93
3, 74256, Note_on_c, 1, 60, 0
3, 74280, Note_on_c, 1, 59, 93
3, 74376, Note_on_c, 1, 59, 0
3, 74400, Note_on_c, 1, 57, 93
3, 74496, Note_on_c, 1, 57, 0
3, 74520, Note_on_c, 1, 59, 93
3, 74616, Note_on_c, 1, 59, 0
3, 74640, Note_on_c, 1, 60, 93
3, 74736, Note_on_c, 1, 60, 0
3, 74760, Note_on_c, 1, 57, 93
3, 74856, Note_on_c, 1, 57, 0
3, 74880, Note_on_c, 1, 62, 93
3, 74976, Note_on_c, 1, 62, 0
3, 75000, Note_on_c, 1, 59, 93
3, 75096, Note_on_c, 1, 59, 0
3, 75120, Note_on_c, 1, 60, 93
3, 75216, Note_on_c, 1, 60, 0
3, 75240, Note_on_c, 1, 56, 93
3, 75336, Note_on_c, 1, 56, 0
3, 75360, Note_on_c, 1, 57, 93
3, 75456, Note_on_c, 1, 57, 0
3, 75480, Note_on_c, 1, 50, 93
3, 75576, Note_on_c, 1, 50, 0
3, 75600, Note_on_c, 1, 52, 93
3, 75780, Note_on_c, 1, 52, 0
3, 75840, Note_on_c, 1, 40, 93
3, 76020, Note_on_c, 1, 40, 0
3, 76080, Note_on_c, 1, 45, 93
3, 76320, Note_on_c, 1, 52, 93
3, 76512, Note_on_c, 1, 52, 0
3, 76560, Note_on_c, 1, 57, 93
3, 76656, Note_on_c, 1, 45, 0
3, 76752, Note_on_c, 1, 57, 0
3, 76800, Note_on_c, 1, 52, 93
3, 76896, Note_on_c, 1, 52, 0
3, 76920, Note_on_c, 1, 54, 93
3, 77016, Note_on_c, 1, 54, 0
3, 77040, Note_on_c, 1, 56, 93
3, 77136, Note_on_c, 1, 56, 0
3, 77160, Note_on_c, 1, 52, 93
3, 77256, Note_on_c, 1, 52, 0
3, 77280, Note_on_c, 1, 56, 93
3, 77376, Note_on_c, 1, 56, 0
3, 77400, Note_on_c, 1, 52, 93
3, 77496, Note_on_c, 1, 52, 0
3, 77520, Note_on_c, 1, 57, 93
3, 77616, Note_on_c, 1, 57, 0
3, 77640, Note_on_c, 1, 52, 93
3, 77736, Note_on_c, 1, 52, 0
3, 77760, Note_on_c, 1, 57, 93
3, 77856, Note_on_c, 1, 57, 0
3, 77880, Note_on_c, 1, 52, 93
3, 77976, Note_on_c, 1, 52, 0
3, 78000, Note_on_c, 1, 59, 93
3, 78096, Note_on_c, 1, 59, 0
3, 78120, Note_on_c, 1, 52, 93
3, 78216, Note_on_c, 1, 52, 0
3, 78240, Note_on_c, 1, 59, 93
3, 78336, Note_on_c, 1, 59, 0
3, 78360, Note_on_c, 1, 52, 93
3, 78456, Note_on_c, 1, 52, 0
3, 78480, Note_on_c, 1, 60, 93
3, 78576, Note_on_c, 1, 60, 0
3, 78600, Note_on_c, 1, 52, 93
3, 78696, Note_on_c, 1, 52, 0
3, 78720, Note_on_c, 1, 62, 93
3, 78816, Note_on_c, 1, 62, 0
3, 78840, Note_on_c, 1, 52, 93
3, 78936, Note_on_c, 1, 52, 0
3, 78960, Note_on_c, 1, 60, 93
3, 79056, Note_on_c, 1, 60, 0
3, 79080, Note_on_c, 1, 52, 93
3, 79176, Note_on_c, 1, 52, 0
3, 79200, Note_on_c, 1, 57, 93
3, 79296, Note_on_c, 1, 57, 0
3, 79320, Note_on_c, 1, 52, 93
3, 79416, Note_on_c, 1, 52, 0
3, 79440, Note_on_c, 1, 59, 93
3, 79536, Note_on_c, 1, 59, 0
3, 79560, Note_on_c, 1, 52, 93
3, 79656, Note_on_c, 1, 52, 0
3, 79680, Note_on_c, 1, 56, 93
3, 79776, Note_on_c, 1, 56, 0
3, 79800, Note_on_c, 1, 52, 93
3, 79896, Note_on_c, 1, 52, 0
3, 79920, Note_on_c, 1, 57, 93
3, 80100, Note_on_c, 1, 57, 0
3, 80160, Note_on_c, 1, 52, 93
3, 80340, Note_on_c, 1, 52, 0
3, 80400, Note_on_c, 1, 45, 93
3, 80496, Note_on_c, 1, 45, 0
3, 80520, Note_on_c, 1, 52, 93
3, 80616, Note_on_c, 1, 52, 0
3, 80640, Note_on_c, 1, 57, 93
3, 80736, Note_on_c, 1, 57, 0
3, 80760, Note_on_c, 1, 59, 93
3, 80856, Note_on_c, 1, 59, 0
3, 80880, Note_on_c, 1, 61, 93
3, 80976, Note_on_c, 1, 61, 0
3, 81000, Note_on_c, 1, 57, 93
3, 81096, Note_on_c, 1, 57, 0
3, 81120, Note_on_c, 1, 61, 93
3, 81216, Note_on_c, 1, 61, 0
3, 81240, Note_on_c, 1, 57, 93
3, 81336, Note_on_c, 1, 57, 0
3, 81360, Note_on_c, 1, 62, 93
3, 81456, Note_on_c, 1, 62, 0
3, 81480, Note_on_c, 1, 57, 93
3, 81576, Note_on_c, 1, 57, 0
3, 81600, Note_on_c, 1, 62, 93
3, 81696, Note_on_c, 1, 62, 0
3, 81720, Note_on_c, 1, 57, 93
3, 81816, Note_on_c, 1, 57, 0
3, 81840, Note_on_c, 1, 64, 93
3, 81936, Note_on_c, 1, 64, 0
3, 81960, Note_on_c, 1, 57, 93
3, 82056, Note_on_c, 1, 57, 0
3, 82080, Note_on_c, 1, 64, 93
3, 82176, Note_on_c, 1, 64, 0
3, 82200, Note_on_c, 1, 57, 93
3, 82296, Note_on_c, 1, 57, 0
3, 82320, Note_on_c, 1, 65, 93
3, 82416, Note_on_c, 1, 65, 0
3, 82440, Note_on_c, 1, 57, 93
3, 82536, Note_on_c, 1, 57, 0
3, 82560, Note_on_c, 1, 67, 93
3, 82656, Note_on_c, 1, 67, 0
3, 82680, Note_on_c, 1, 57, 93
3, 82776, Note_on_c, 1, 57, 0
3, 82800, Note_on_c, 1, 65, 93
3, 82896, Note_on_c, 1, 65, 0
3, 82920, Note_on_c, 1, 57, 93
3, 83016, Note_on_c, 1, 57, 0
3, 83040, Note_on_c, 1, 62, 93
3, 83136, Note_on_c, 1, 62, 0
3, 83160, Note_on_c, 1, 57, 93
3, 83256, Note_on_c, 1, 57, 0
3, 83280, Note_on_c, 1, 64, 93
3, 83376, Note_on_c, 1, 64, 0
3, 83400, Note_on_c, 1, 57, 93
3, 83496, Note_on_c, 1, 57, 0
3, 83520, Note_on_c, 1, 61, 93
3, 83616, Note_on_c, 1, 61, 0
3, 83640, Note_on_c, 1, 57, 93
3, 83736, Note_on_c, 1, 57, 0
3, 83760, Note_on_c, 1, 62, 93
3, 83940, Note_on_c, 1, 62, 0
3, 84000, Note_on_c, 1, 57, 93
3, 84180, Note_on_c, 1, 57, 0
3, 84240, Note_on_c, 1, 53, 93
3, 84420, Note_on_c, 1, 53, 0
3, 84480, Note_on_c, 1, 57, 93
3, 84660, Note_on_c, 1, 57, 0
3, 84720, Note_on_c, 1, 50, 93
3, 84900, Note_on_c, 1, 50, 0
3, 84960, Note_on_c, 1, 38, 93
3, 85152, Note_on_c, 1, 38, 0
3, 85200, Note_on_c, 1, 40, 93
3, 85392, Note_on_c, 1, 40, 0
3, 85440, Note_on_c, 1, 41, 93
3, 85632, Note_on_c, 1, 41, 0
3, 85680, Note_on_c, 1, 43, 93
3, 85860, Note_on_c, 1, 43, 0
3, 85920, Note_on_c, 1, 55, 93
3, 86112, Note_on_c, 1, 55, 0
3, 86160, Note_on_c, 1, 57, 93
3, 86352, Note_on_c, 1, 57, 0
3, 86400, Note_on_c, 1, 58, 93
3, 86592, Note_on_c, 1, 58, 0
3, 86640, Note_on_c, 1, 60, 93
3, 86820, Note_on_c, 1, 60, 0
3, 86880, Note_on_c, 1, 36, 93
3, 87072, Note_on_c, 1, 36, 0
3, 87120, Note_on_c, 1, 38, 93
3, 87312, Note_on_c, 1, 38, 0
3, 87360, Note_on_c, 1, 40, 93
3, 87552, Note_on_c, 1, 40, 0
3, 87600, Note_on_c, 1, 41, 93
3, 87780, Note_on_c, 1, 41, 0
3, 87840, Note_on_c, 1, 48, 93
3, 88032, Note_on_c, 1, 48, 0
3, 88080, Note_on_c, 1, 53, 93
3, 88272, Note_on_c, 1, 53, 0
3, 88320, Note_on_c, 1, 50, 93
3, 88512, Note_on_c, 1, 50, 0
3, 88560, Note_on_c, 1, 55, 93
3, 88752, Note_on_c, 1, 55, 0
3, 88800, Note_on_c, 1, 53, 93
3, 88992, Note_on_c, 1, 53, 0
3, 89040, Note_on_c, 1, 55, 93
3, 89232, Note_on_c, 1, 55, 0
3, 89280, Note_on_c, 1, 52, 93
3, 89472, Note_on_c, 1, 52, 0
3, 89520, Note_on_c, 1, 57, 93
3, 89712, Note_on_c, 1, 57, 0
3, 89760, Note_on_c, 1, 55, 93
3, 89952, Note_on_c, 1, 55, 0
3, 90000, Note_on_c, 1, 57, 93
3, 90192, Note_on_c, 1, 57, 0
3, 90240, Note_on_c, 1, 53, 93
3, 90432, Note_on_c, 1, 53, 0
3, 90480, Note_on_c, 1, 58, 93
3, 90672, Note_on_c, 1, 58, 0
3, 90720, Note_on_c, 1, 55, 93
3, 90912, Note_on_c, 1, 55, 0
3, 90960, Note_on_c, 1, 57, 93
3, 91152, Note_on_c, 1, 57, 0
3, 91200, Note_on_c, 1, 45, 93
3, 91392, Note_on_c, 1, 45, 0
3, 91440, Note_on_c, 1, 50, 93
3, 91536, Note_on_c, 1, 50, 0
3, 91560, Note_on_c, 1, 52, 93
3, 91656, Note_on_c, 1, 52, 0
3, 91680, Note_on_c, 1, 53, 93
3, 91776, Note_on_c, 1, 53, 0
3, 91800, Note_on_c, 1, 52, 93
3, 91896, Note_on_c, 1, 52, 0
3, 91920, Note_on_c, 1, 50, 93
3, 92016, Note_on_c, 1, 50, 0
3, 92040, Note_on_c, 1, 48, 93
3, 92136, Note_on_c, 1, 48, 0
3, 92160, Note_on_c, 1, 47, 93
3, 92256, Note_on_c, 1, 47, 0
3, 92280, Note_on_c, 1, 45, 93
3, 92376, Note_on_c, 1, 45, 0
3, 92400, Note_on_c, 1, 43, 93
3, 92496, Note_on_c, 1, 43, 0
3, 92520, Note_on_c, 1, 45, 93
3, 92616, Note_on_c, 1, 45, 0
3, 92640, Note_on_c, 1, 47, 93
3, 92736, Note_on_c, 1, 47, 0
3, 92760, Note_on_c, 1, 48, 93
3, 92856, Note_on_c, 1, 48, 0
3, 92880, Note_on_c, 1, 50, 93
3, 92976, Note_on_c, 1, 50, 0
3, 93000, Note_on_c, 1, 52, 93
3, 93096, Note_on_c, 1, 52, 0
3, 93120, Note_on_c, 1, 53, 93
3, 93216, Note_on_c, 1, 53, 0
3, 93240, Note_on_c, 1, 55, 93
3, 93336, Note_on_c, 1, 55, 0
3, 93360, Note_on_c, 1, 48, 93
3, 93456, Note_on_c, 1, 48, 0
3, 93480, Note_on_c, 1, 60, 93
3, 93576, Note_on_c, 1, 60, 0
3, 93600, Note_on_c, 1, 59, 93
3, 93696, Note_on_c, 1, 59, 0
3, 93720, Note_on_c, 1, 57, 93
3, 93816, Note_on_c, 1, 57, 0
3, 93840, Note_on_c, 1, 55, 93
3, 93936, Note_on_c, 1, 55, 0
3, 93960, Note_on_c, 1, 53, 93
3, 94056, Note_on_c, 1, 53, 0
3, 94080, Note_on_c, 1, 52, 93
3, 94176, Note_on_c, 1, 52, 0
3, 94200, Note_on_c, 1, 50, 93
3, 94296, Note_on_c, 1, 50, 0
3, 94320, Note_on_c, 1, 48, 93
3, 94416, Note_on_c, 1, 48, 0
3, 94440, Note_on_c, 1, 60, 93
3, 94536, Note_on_c, 1, 60, 0
3, 94560, Note_on_c, 1, 59, 93
3, 94656, Note_on_c, 1, 59, 0
3, 94680, Note_on_c, 1, 57, 93
3, 94776, Note_on_c, 1, 57, 0
3, 94800, Note_on_c, 1, 56, 93
3, 94896, Note_on_c, 1, 56, 0
3, 94920, Note_on_c, 1, 59, 93
3, 95016, Note_on_c, 1, 59, 0
3, 95040, Note_on_c, 1, 57, 93
3, 95136, Note_on_c, 1, 57, 0
3, 95160, Note_on_c, 1, 56, 93
3, 95256, Note_on_c, 1, 56, 0
3, 95280, Note_on_c, 1, 57, 93
3, 95376, Note_on_c, 1, 57, 0
3, 95400, Note_on_c, 1, 52, 93
3, 95496, Note_on_c, 1, 52, 0
3, 95520, Note_on_c, 1, 56, 93
3, 95616, Note_on_c, 1, 56, 0
3, 95640, Note_on_c, 1, 57, 93
3, 95736, Note_on_c, 1, 57, 0
3, 95760, Note_on_c, 1, 59, 93
3, 95856, Note_on_c, 1, 59, 0
3, 95880, Note_on_c, 1, 52, 93
3, 95976, Note_on_c, 1, 52, 0
3, 96000, Note_on_c, 1, 54, 93
3, 96096, Note_on_c, 1, 54, 0
3, 96120, Note_on_c, 1, 56, 93
3, 96216, Note_on_c, 1, 56, 0
3, 96240, Note_on_c, 1, 57, 93
3, 96336, Note_on_c, 1, 57, 0
3, 96360, Note_on_c, 1, 69, 93
3, 96456, Note_on_c, 1, 69, 0
3, 96480, Note_on_c, 1, 68, 93
3, 96576, Note_on_c, 1, 68, 0
3, 96600, Note_on_c, 1, 66, 93
3, 96696, Note_on_c, 1, 66, 0
3, 96720, Note_on_c, 1, 64, 93
3, 96816, Note_on_c, 1, 64, 0
3, 96840, Note_on_c, 1, 62, 93
3, 96936, Note_on_c, 1, 62, 0
3, 96960, Note_on_c, 1, 60, 93
3, 97056, Note_on_c, 1, 60, 0
3, 97080, Note_on_c, 1, 59, 93
3, 97176, Note_on_c, 1, 59, 0
3, 97200, Note_on_c, 1, 57, 93
3, 97296, Note_on_c, 1, 57, 0
3, 97320, Note_on_c, 1, 55, 93
3, 97416, Note_on_c, 1, 55, 0
3, 97440, Note_on_c, 1, 53, 93
3, 97536, Note_on_c, 1, 53, 0
3, 97560, Note_on_c, 1, 52, 93
3, 97656, Note_on_c, 1, 52, 0
3, 97680, Note_on_c, 1, 50, 93
3, 97776, Note_on_c, 1, 50, 0
3, 97800, Note_on_c, 1, 48, 93
3, 97896, Note_on_c, 1, 48, 0
3, 97920, Note_on_c, 1, 50, 93
3, 98016, Note_on_c, 1, 50, 0
3, 98040, Note_on_c, 1, 52, 93
3, 98136, Note_on_c, 1, 52, 0
3, 98160, Note_on_c, 1, 53, 93
3, 98340, Note_on_c, 1, 53, 0
3, 98400, Note_on_c, 1, 52, 93
3, 98580, Note_on_c, 1, 52, 0
3, 98640, Note_on_c, 1, 53, 93
3, 98820, Note_on_c, 1, 53, 0
3, 98880, Note_on_c, 1, 50, 93
3, 99060, Note_on_c, 1, 50, 0
3, 99120, Note_on_c, 1, 52, 93
3, 99696, Note_on_c, 1, 52, 0
3, 99720, Note_on_c, 1, 50, 93
3, 99816, Note_on_c, 1, 50, 0
3, 99840, Note_on_c, 1, 48, 93
3, 99936, Note_on_c, 1, 48, 0
3, 99960, Note_on_c, 1, 47, 93
3, 100056, Note_on_c, 1, 47, 0
3, 100080, Note_on_c, 1, 45, 93
3, 100272, Note_on_c, 1, 45, 0
3, 100320, Note_on_c, 1, 57, 93
3, 100704, Note_on_c, 1, 57, 0
3, 100800, Note_on_c, 1, 55, 93
3, 100992, Note_on_c, 1, 55, 0
3, 101040, Note_on_c, 1, 53, 93
3, 101232, Note_on_c, 1, 53, 0
3, 101280, Note_on_c, 1, 50, 93
3, 101472, Note_on_c, 1, 50, 0
3, 101520, Note_on_c, 1, 59, 93
3, 101712, Note_on_c, 1, 59, 0
3, 101760, Note_on_c, 1, 57, 93
3, 101952, Note_on_c, 1, 57, 0
3, 102000, Note_on_c, 1, 55, 93
3, 102192, Note_on_c, 1, 55, 0
3, 102240, Note_on_c, 1, 52, 93
3, 102420, Note_on_c, 1, 52, 0
3, 102480, Note_on_c, 1, 64, 93
3, 103152, Note_on_c, 1, 64, 0
3, 103200, Note_on_c, 1, 62, 93
3, 103296, Note_on_c, 1, 62, 0
3, 103320, Note_on_c, 1, 60, 93
3, 103416, Note_on_c, 1, 60, 0
3, 103440, Note_on_c, 1, 62, 93
3, 103536, Note_on_c, 1, 62, 0
3, 103560, Note_on_c, 1, 59, 93
3, 103656, Note_on_c, 1, 59, 0
3, 103680, Note_on_c, 1, 60, 93
3, 103776, Note_on_c, 1, 60, 0
3, 103800, Note_on_c, 1, 57, 93
3, 103896, Note_on_c, 1, 57, 0
3, 103920, Note_on_c, 1, 59, 93
3, 104112, Note_on_c, 1, 59, 0
3, 104160, Note_on_c, 1, 65, 93
3, 104352, Note_on_c, 1, 65, 0
3, 104400, Note_on_c, 1, 64, 93
3, 104592, Note_on_c, 1, 64, 0
3, 104640, Note_on_c, 1, 62, 93
3, 104832, Note_on_c, 1, 62, 0
3, 104880, Note_on_c, 1, 60, 93
3, 104976, Note_on_c, 1, 60, 0
3, 105000, Note_on_c, 1, 59, 93
3, 105096, Note_on_c, 1, 59, 0
3, 105120, Note_on_c, 1, 57, 93
3, 105216, Note_on_c, 1, 57, 0
3, 105240, Note_on_c, 1, 59, 93
3, 105336, Note_on_c, 1, 59, 0
3, 105360, Note_on_c, 1, 60, 93
3, 105456, Note_on_c, 1, 60, 0
3, 105480, Note_on_c, 1, 57, 93
3, 105576, Note_on_c, 1, 57, 0
3, 105600, Note_on_c, 1, 62, 93
3, 105696, Note_on_c, 1, 62, 0
3, 105720, Note_on_c, 1, 59, 93
3, 105816, Note_on_c, 1, 59, 0
3, 105840, Note_on_c, 1, 60, 93
3, 105936, Note_on_c, 1, 60, 0
3, 105960, Note_on_c, 1, 56, 93
3, 106056, Note_on_c, 1, 56, 0
3, 106080, Note_on_c, 1, 57, 93
3, 106176, Note_on_c, 1, 57, 0
3, 106200, Note_on_c, 1, 50, 93
3, 106296, Note_on_c, 1, 50, 0
3, 106320, Note_on_c, 1, 52, 93
3, 106500, Note_on_c, 1, 52, 0
3, 106560, Note_on_c, 1, 40, 93
3, 106740, Note_on_c, 1, 40, 0
3, 106800, Note_on_c, 1, 45, 93
3, 107040, Note_on_c, 1, 52, 93
3, 107232, Note_on_c, 1, 52, 0
3, 107280, Note_on_c, 1, 57, 93
3, 107376, Note_on_c, 1, 45, 0
3, 107472, Note_on_c, 1, 57, 0
3, 107472, End_track
4, 0, Start_track
4, 0, MIDI_port, 0
4, 0, Title_t, "Arr. Gary Bricault, (c) 1997"
4, 0, End_track
0, 0, End_of_file
