0, 0, Header, 1, 3, 384
1, 0, Start_track
1, 0, Time_signature, 4, 2, 24, 8
1, 0, Tempo, 500000
1, 201216, End_track
2, 0, Start_track
2, 0, Text_t, "harpsichord: John Sankey"
2, 0, Program_c, 0, 6
2, 0, Pitch_bend_c, 0, 8192
2, 0, Program_c, 1, 6
2, 0, Pitch_bend_c, 1, 7792
2, 0, Program_c, 2, 6
2, 0, Pitch_bend_c, 2, 7876
2, 0, Program_c, 3, 6
2, 0, Pitch_bend_c, 3, 7952
2, 0, Program_c, 4, 6
2, 0, Pitch_bend_c, 4, 7792
2, 0, Program_c, 5, 6
2, 0, Pitch_bend_c, 5, 8112
2, 0, Program_c, 6, 6
2, 0, Pitch_bend_c, 6, 7712
2, 0, Program_c, 7, 6
2, 0, Pitch_bend_c, 7, 8037
2, 0, Program_c, 8, 6
2, 0, Pitch_bend_c, 8, 7872
2, 0, Program_c, 10, 6
2, 0, Pitch_bend_c, 10, 7712
2, 0, Program_c, 11, 6
2, 0, Pitch_bend_c, 11, 8032
2, 0, Program_c, 12, 6
2, 0, Pitch_bend_c, 12, 7872
2, 0, Title_t, "Track 1"
2, 64, Note_on_c, 10, 81, 127
2, 64, Note_on_c, 7, 55, 127
2, 64, Note_on_c, 11, 58, 127
2, 392, Note_on_c, 2, 62, 127
2, 402, Note_off_c, 11, 58, 127
2, 491, Note_on_c, 7, 79, 127
2, 548, Note_off_c, 10, 81, 127
2, 629, Note_on_c, 10, 81, 127
2, 692, Note_off_c, 7, 79, 127
2, 720, Note_on_c, 0, 60, 127
2, 730, Note_off_c, 2, 62, 127
2, 751, Note_on_c, 7, 79, 127
2, 800, Note_off_c, 10, 81, 127
2, 861, Note_on_c, 10, 81, 127
2, 918, Note_off_c, 7, 79, 127
2, 972, Note_on_c, 7, 79, 127
2, 1025, Note_off_c, 10, 81, 127
2, 1048, Note_on_c, 3, 63, 127
2, 1058, Note_off_c, 0, 60, 127
2, 1078, Note_on_c, 10, 81, 127
2, 1132, Note_off_c, 7, 79, 127
2, 1184, Note_on_c, 7, 79, 127
2, 1238, Note_off_c, 10, 81, 127
2, 1288, Note_on_c, 10, 81, 127
2, 1341, Note_off_c, 7, 79, 127
2, 1363, Note_off_c, 7, 55, 127
2, 1377, Note_on_c, 7, 55, 127
2, 1377, Note_on_c, 11, 58, 127
2, 1386, Note_off_c, 3, 63, 127
2, 1392, Note_on_c, 7, 79, 127
2, 1441, Note_off_c, 10, 81, 127
2, 1492, Note_on_c, 10, 81, 127
2, 1545, Note_off_c, 7, 79, 127
2, 1593, Note_on_c, 7, 79, 127
2, 1645, Note_off_c, 10, 81, 127
2, 1690, Note_on_c, 10, 81, 127
2, 1705, Note_on_c, 2, 62, 127
2, 1715, Note_off_c, 11, 58, 127
2, 1743, Note_off_c, 7, 79, 127
2, 1787, Note_on_c, 7, 79, 127
2, 1840, Note_off_c, 10, 81, 127
2, 1881, Note_on_c, 10, 81, 127
2, 1934, Note_off_c, 7, 79, 127
2, 1975, Note_on_c, 7, 79, 127
2, 2028, Note_off_c, 10, 81, 127
2, 2033, Note_on_c, 10, 57, 127
2, 2043, Note_off_c, 2, 62, 127
2, 2070, Note_on_c, 10, 81, 127
2, 2122, Note_off_c, 7, 79, 127
2, 2163, Note_on_c, 7, 79, 127
2, 2217, Note_off_c, 10, 81, 127
2, 2254, Note_on_c, 10, 81, 127
2, 2306, Note_off_c, 7, 79, 127
2, 2345, Note_on_c, 7, 79, 127
2, 2362, Note_on_c, 0, 60, 127
2, 2371, Note_off_c, 10, 57, 127
2, 2397, Note_off_c, 10, 81, 127
2, 2437, Note_on_c, 10, 81, 127
2, 2488, Note_off_c, 7, 79, 127
2, 2527, Note_on_c, 7, 79, 127
2, 2580, Note_off_c, 10, 81, 127
2, 2616, Note_on_c, 10, 81, 127
2, 2670, Note_off_c, 7, 79, 127
2, 2676, Note_off_c, 7, 55, 127
2, 2690, Note_on_c, 7, 55, 127
2, 2690, Note_on_c, 11, 58, 127
2, 2700, Note_off_c, 0, 60, 127
2, 2703, Note_on_c, 7, 79, 127
2, 2759, Note_off_c, 10, 81, 127
2, 2791, Note_on_c, 10, 81, 127
2, 2843, Note_off_c, 7, 79, 127
2, 2879, Note_on_c, 7, 79, 127
2, 2931, Note_off_c, 10, 81, 127
2, 2967, Note_on_c, 10, 81, 127
2, 3018, Note_on_c, 2, 62, 127
2, 3019, Note_off_c, 7, 79, 127
2, 3028, Note_off_c, 11, 58, 127
2, 3051, Note_on_c, 7, 79, 127
2, 3107, Note_off_c, 10, 81, 127
2, 3136, Note_on_c, 10, 81, 127
2, 3191, Note_off_c, 7, 79, 127
2, 3221, Note_on_c, 7, 79, 127
2, 3276, Note_off_c, 10, 81, 127
2, 3305, Note_on_c, 10, 81, 127
2, 3347, Note_on_c, 0, 60, 127
2, 3356, Note_off_c, 2, 62, 127
2, 3361, Note_off_c, 7, 79, 127
2, 3390, Note_on_c, 7, 79, 127
2, 3445, Note_off_c, 10, 81, 127
2, 3475, Note_on_c, 10, 81, 127
2, 3530, Note_off_c, 7, 79, 127
2, 3560, Note_on_c, 7, 79, 127
2, 3615, Note_off_c, 10, 81, 127
2, 3641, Note_on_c, 10, 81, 127
2, 3675, Note_on_c, 3, 63, 127
2, 3685, Note_off_c, 0, 60, 127
2, 3700, Note_off_c, 7, 79, 127
2, 3723, Note_on_c, 7, 79, 127
2, 3777, Note_off_c, 10, 81, 127
2, 3805, Note_on_c, 10, 81, 127
2, 3859, Note_off_c, 7, 79, 127
2, 3886, Note_on_c, 7, 79, 127
2, 3941, Note_off_c, 10, 81, 127
2, 3968, Note_on_c, 10, 81, 127
2, 3989, Note_off_c, 7, 55, 127
2, 4003, Note_on_c, 7, 55, 127
2, 4003, Note_on_c, 11, 58, 127
2, 4013, Note_off_c, 3, 63, 127
2, 4022, Note_off_c, 7, 79, 127
2, 4049, Note_on_c, 7, 79, 127
2, 4104, Note_off_c, 10, 81, 127
2, 4130, Note_on_c, 10, 81, 127
2, 4185, Note_off_c, 7, 79, 127
2, 4212, Note_on_c, 7, 79, 127
2, 4266, Note_off_c, 10, 81, 127
2, 4294, Note_on_c, 10, 81, 127
2, 4332, Note_on_c, 2, 62, 127
2, 4341, Note_off_c, 11, 58, 127
2, 4348, Note_off_c, 7, 79, 127
2, 4375, Note_on_c, 7, 79, 127
2, 4430, Note_off_c, 10, 81, 127
2, 4457, Note_on_c, 10, 81, 127
2, 4511, Note_off_c, 7, 79, 127
2, 4536, Note_on_c, 7, 79, 127
2, 4593, Note_off_c, 10, 81, 127
2, 4614, Note_on_c, 10, 81, 127
2, 4660, Note_on_c, 10, 57, 127
2, 4670, Note_off_c, 2, 62, 127
2, 4672, Note_off_c, 7, 79, 127
2, 4693, Note_on_c, 7, 79, 127
2, 4750, Note_off_c, 10, 81, 127
2, 4771, Note_on_c, 10, 81, 127
2, 4829, Note_off_c, 7, 79, 127
2, 4849, Note_on_c, 7, 79, 127
2, 4880, Note_off_c, 10, 81, 127
2, 4927, Note_on_c, 10, 81, 127
2, 4985, Note_off_c, 7, 79, 127
2, 4988, Note_on_c, 0, 60, 127
2, 4998, Note_off_c, 10, 57, 127
2, 5005, Note_on_c, 7, 79, 127
2, 5036, Note_off_c, 10, 81, 127
2, 5083, Note_on_c, 10, 81, 127
2, 5141, Note_off_c, 7, 79, 127
2, 5161, Note_on_c, 7, 79, 127
2, 5192, Note_off_c, 10, 81, 127
2, 5239, Note_on_c, 10, 81, 127
2, 5297, Note_off_c, 7, 79, 127
2, 5302, Note_off_c, 7, 55, 127
2, 5309, Note_off_c, 0, 60, 127
2, 5317, Note_on_c, 7, 79, 127
2, 5317, Note_on_c, 11, 58, 127
2, 5317, Note_on_c, 7, 55, 127
2, 5348, Note_off_c, 10, 81, 127
2, 5645, Note_on_c, 2, 74, 127
2, 5969, Note_off_c, 2, 74, 127
2, 5970, Note_off_c, 11, 58, 127
2, 5973, Note_on_c, 3, 75, 127
2, 5973, Note_on_c, 0, 60, 127
2, 6133, Note_off_c, 3, 75, 127
2, 6137, Note_on_c, 2, 74, 127
2, 6297, Note_off_c, 2, 74, 127
2, 6302, Note_on_c, 0, 72, 127
2, 6626, Note_off_c, 0, 72, 127
2, 6626, Note_off_c, 0, 60, 127
2, 6630, Note_on_c, 2, 74, 127
2, 6630, Note_on_c, 11, 58, 127
2, 6948, Note_off_c, 7, 79, 127
2, 6958, Note_on_c, 7, 79, 127
2, 7279, Note_off_c, 2, 74, 127
2, 7283, Note_off_c, 11, 58, 127
2, 7287, Note_on_c, 0, 72, 127
2, 7287, Note_on_c, 3, 63, 127
2, 7447, Note_off_c, 0, 72, 127
2, 7451, Note_on_c, 11, 70, 127
2, 7611, Note_off_c, 11, 70, 127
2, 7615, Note_on_c, 10, 69, 127
2, 7939, Note_off_c, 10, 69, 127
2, 7940, Note_off_c, 3, 63, 127
2, 7940, Note_off_c, 7, 55, 127
2, 7943, Note_on_c, 11, 70, 127
2, 7943, Note_on_c, 7, 55, 127
2, 7943, Note_on_c, 2, 62, 127
2, 8257, Note_off_c, 7, 79, 127
2, 8272, Note_on_c, 7, 79, 127
2, 8592, Note_off_c, 11, 70, 127
2, 8596, Note_off_c, 2, 62, 127
2, 8600, Note_on_c, 0, 72, 127
2, 8600, Note_on_c, 3, 63, 127
2, 8760, Note_off_c, 0, 72, 127
2, 8764, Note_on_c, 11, 70, 127
2, 8924, Note_off_c, 11, 70, 127
2, 8928, Note_on_c, 10, 69, 127
2, 9252, Note_off_c, 10, 69, 127
2, 9253, Note_off_c, 3, 63, 127
2, 9256, Note_on_c, 11, 70, 127
2, 9256, Note_on_c, 2, 62, 127
2, 9571, Note_off_c, 7, 79, 127
2, 9585, Note_on_c, 7, 79, 127
2, 9905, Note_off_c, 11, 70, 127
2, 9909, Note_off_c, 7, 79, 127
2, 9909, Note_off_c, 2, 62, 127
2, 9913, Note_on_c, 10, 69, 127
2, 9913, Note_on_c, 0, 60, 127
2, 10073, Note_off_c, 10, 69, 127
2, 10077, Note_on_c, 7, 67, 127
2, 10237, Note_off_c, 7, 67, 127
2, 10241, Note_on_c, 6, 66, 127
2, 10565, Note_off_c, 6, 66, 127
2, 10566, Note_off_c, 0, 60, 127
2, 10570, Note_on_c, 10, 69, 127
2, 10570, Note_on_c, 11, 58, 127
2, 10840, Note_on_c, 7, 67, 127
2, 10891, Note_off_c, 10, 69, 127
2, 10894, Note_off_c, 11, 58, 127
2, 10898, Note_on_c, 0, 60, 127
2, 11002, Note_on_c, 10, 69, 127
2, 11041, Note_off_c, 7, 67, 127
2, 11125, Note_on_c, 7, 67, 127
2, 11176, Note_off_c, 10, 69, 127
2, 11222, Note_off_c, 0, 60, 127
2, 11226, Note_on_c, 2, 62, 127
2, 11245, Note_on_c, 10, 69, 127
2, 11296, Note_off_c, 7, 67, 127
2, 11360, Note_on_c, 7, 67, 127
2, 11412, Note_off_c, 10, 69, 127
2, 11474, Note_on_c, 10, 69, 127
2, 11524, Note_off_c, 7, 67, 127
2, 11534, Note_off_c, 7, 55, 127
2, 11555, Note_on_c, 5, 53, 127
2, 11586, Note_on_c, 7, 67, 127
2, 11638, Note_off_c, 10, 69, 127
2, 11696, Note_on_c, 10, 69, 127
2, 11746, Note_off_c, 7, 67, 127
2, 11806, Note_on_c, 7, 67, 127
2, 11853, Note_off_c, 10, 69, 127
2, 11879, Note_off_c, 5, 53, 127
2, 11883, Note_on_c, 3, 51, 127
2, 11912, Note_on_c, 10, 69, 127
2, 11963, Note_off_c, 7, 67, 127
2, 12021, Note_on_c, 7, 67, 127
2, 12069, Note_off_c, 10, 69, 127
2, 12131, Note_on_c, 10, 69, 127
2, 12174, Note_off_c, 7, 67, 127
2, 12183, Note_off_c, 2, 62, 127
2, 12211, Note_on_c, 0, 60, 127
2, 12241, Note_on_c, 7, 67, 127
2, 12284, Note_off_c, 10, 69, 127
2, 12347, Note_on_c, 10, 69, 127
2, 12391, Note_off_c, 7, 67, 127
2, 12453, Note_on_c, 7, 67, 127
2, 12497, Note_off_c, 10, 69, 127
2, 12532, Note_off_c, 3, 51, 127
2, 12540, Note_on_c, 2, 50, 127
2, 12556, Note_on_c, 10, 69, 127
2, 12603, Note_off_c, 7, 67, 127
2, 12659, Note_on_c, 7, 67, 127
2, 12706, Note_off_c, 10, 69, 127
2, 12762, Note_on_c, 10, 69, 127
2, 12806, Note_off_c, 7, 67, 127
2, 12860, Note_off_c, 0, 60, 127
2, 12865, Note_on_c, 7, 67, 127
2, 12868, Note_on_c, 11, 58, 127
2, 12909, Note_off_c, 10, 69, 127
2, 12964, Note_on_c, 10, 69, 127
2, 13012, Note_off_c, 7, 67, 127
2, 13064, Note_on_c, 7, 67, 127
2, 13111, Note_off_c, 10, 69, 127
2, 13164, Note_on_c, 10, 69, 127
2, 13189, Note_off_c, 2, 50, 127
2, 13196, Note_on_c, 0, 48, 127
2, 13211, Note_off_c, 7, 67, 127
2, 13263, Note_on_c, 7, 67, 127
2, 13278, Note_off_c, 11, 58, 127
2, 13311, Note_off_c, 10, 69, 127
2, 13359, Note_on_c, 10, 69, 127
2, 13406, Note_off_c, 7, 67, 127
2, 13456, Note_on_c, 7, 67, 127
2, 13502, Note_off_c, 10, 69, 127
2, 13525, Note_on_c, 10, 57, 127
2, 13552, Note_on_c, 10, 69, 127
2, 13599, Note_off_c, 7, 67, 127
2, 13649, Note_on_c, 7, 67, 127
2, 13695, Note_off_c, 10, 69, 127
2, 13745, Note_on_c, 10, 69, 127
2, 13792, Note_off_c, 7, 67, 127
2, 13838, Note_on_c, 7, 67, 127
2, 13845, Note_off_c, 0, 48, 127
2, 13853, Note_on_c, 2, 50, 127
2, 13888, Note_off_c, 10, 69, 127
2, 13931, Note_on_c, 10, 69, 127
2, 13981, Note_off_c, 7, 67, 127
2, 14023, Note_on_c, 7, 67, 127
2, 14074, Note_off_c, 10, 69, 127
2, 14117, Note_on_c, 10, 69, 127
2, 14166, Note_off_c, 7, 67, 127
2, 14174, Note_off_c, 10, 57, 127
2, 14181, Note_on_c, 11, 58, 127
2, 14210, Note_on_c, 7, 67, 127
2, 14260, Note_off_c, 10, 69, 127
2, 14303, Note_on_c, 10, 69, 127
2, 14353, Note_off_c, 7, 67, 127
2, 14395, Note_on_c, 7, 67, 127
2, 14443, Note_off_c, 10, 69, 127
2, 14485, Note_on_c, 10, 69, 127
2, 14502, Note_off_c, 2, 50, 127
2, 14510, Note_on_c, 3, 51, 127
2, 14535, Note_off_c, 7, 67, 127
2, 14575, Note_on_c, 7, 67, 127
2, 14591, Note_off_c, 11, 58, 127
2, 14625, Note_off_c, 10, 69, 127
2, 14664, Note_on_c, 10, 69, 127
2, 14715, Note_off_c, 7, 67, 127
2, 14754, Note_on_c, 7, 67, 127
2, 14804, Note_off_c, 10, 69, 127
2, 14838, Note_on_c, 0, 60, 127
2, 14844, Note_on_c, 10, 69, 127
2, 14894, Note_off_c, 7, 67, 127
2, 14933, Note_on_c, 7, 67, 127
2, 14984, Note_off_c, 10, 69, 127
2, 15023, Note_on_c, 10, 69, 127
2, 15073, Note_off_c, 7, 67, 127
2, 15113, Note_on_c, 7, 67, 127
2, 15159, Note_off_c, 3, 51, 127
2, 15163, Note_off_c, 10, 69, 127
2, 15166, Note_on_c, 2, 50, 127
2, 15202, Note_on_c, 10, 69, 127
2, 15253, Note_off_c, 7, 67, 127
2, 15292, Note_on_c, 7, 67, 127
2, 15342, Note_off_c, 10, 69, 127
2, 15382, Note_on_c, 10, 69, 127
2, 15432, Note_off_c, 7, 67, 127
2, 15468, Note_on_c, 7, 67, 127
2, 15481, Note_off_c, 10, 69, 127
2, 15487, Note_off_c, 0, 60, 127
2, 15495, Note_on_c, 11, 58, 127
2, 15555, Note_on_c, 10, 69, 127
2, 15567, Note_off_c, 7, 67, 127
2, 15647, Note_on_c, 7, 67, 127
2, 15654, Note_off_c, 10, 69, 127
2, 15736, Note_on_c, 10, 69, 127
2, 15746, Note_off_c, 7, 67, 127
2, 15815, Note_off_c, 2, 50, 127
2, 15819, Note_off_c, 11, 58, 127
2, 15823, Note_on_c, 7, 67, 127
2, 15823, Note_on_c, 10, 57, 127
2, 15823, Note_on_c, 1, 49, 127
2, 15835, Note_off_c, 10, 69, 127
2, 16147, Note_off_c, 7, 67, 127
2, 16151, Note_on_c, 4, 76, 127
2, 16476, Note_off_c, 10, 57, 127
2, 16480, Note_on_c, 11, 70, 127
2, 16480, Note_on_c, 7, 55, 127
2, 16644, Note_on_c, 10, 69, 127
2, 16685, Note_off_c, 11, 70, 127
2, 16804, Note_off_c, 10, 69, 127
2, 16808, Note_on_c, 7, 67, 127
2, 17132, Note_off_c, 7, 67, 127
2, 17133, Note_off_c, 7, 55, 127
2, 17136, Note_on_c, 10, 69, 127
2, 17136, Note_on_c, 4, 52, 127
2, 17450, Note_off_c, 4, 76, 127
2, 17464, Note_on_c, 4, 76, 127
2, 17785, Note_off_c, 10, 69, 127
2, 17788, Note_off_c, 4, 76, 127
2, 17789, Note_off_c, 4, 52, 127
2, 17793, Note_on_c, 7, 67, 127
2, 17793, Note_on_c, 10, 57, 127
2, 17957, Note_on_c, 6, 66, 127
2, 17998, Note_off_c, 7, 67, 127
2, 18117, Note_off_c, 6, 66, 127
2, 18121, Note_on_c, 4, 64, 127
2, 18445, Note_off_c, 4, 64, 127
2, 18446, Note_off_c, 1, 49, 127
2, 18449, Note_on_c, 6, 66, 127
2, 18449, Note_on_c, 2, 50, 127
2, 18750, Note_off_c, 10, 57, 127
2, 18778, Note_on_c, 0, 60, 127
2, 19102, Note_off_c, 0, 60, 127
2, 19106, Note_on_c, 11, 58, 127
2, 19406, Note_off_c, 2, 50, 127
2, 19430, Note_off_c, 6, 66, 127
2, 19434, Note_on_c, 7, 67, 127
2, 19434, Note_on_c, 2, 50, 127
2, 19758, Note_off_c, 2, 50, 127
2, 19758, Note_off_c, 7, 67, 127
2, 19763, Note_on_c, 6, 66, 127
2, 19763, Note_on_c, 0, 48, 127
2, 20063, Note_off_c, 11, 58, 127
2, 20087, Note_off_c, 6, 66, 127
2, 20091, Note_on_c, 10, 69, 127
2, 20091, Note_on_c, 10, 57, 127
2, 20412, Note_off_c, 0, 48, 127
2, 20419, Note_on_c, 2, 74, 127
2, 20419, Note_on_c, 11, 46, 127
2, 20579, Note_off_c, 2, 74, 127
2, 20584, Note_on_c, 0, 72, 127
2, 20740, Note_off_c, 10, 57, 127
2, 20740, Note_off_c, 10, 69, 127
2, 20744, Note_off_c, 0, 72, 127
2, 20748, Note_on_c, 11, 70, 127
2, 20748, Note_on_c, 7, 55, 127
2, 21068, Note_off_c, 11, 46, 127
2, 21072, Note_off_c, 11, 70, 127
2, 21076, Note_on_c, 0, 72, 127
2, 21076, Note_on_c, 10, 45, 127
2, 21397, Note_off_c, 7, 55, 127
2, 21404, Note_on_c, 3, 75, 127
2, 21725, Note_off_c, 0, 72, 127
2, 21728, Note_off_c, 3, 75, 127
2, 21733, Note_on_c, 2, 74, 127
2, 21733, Note_on_c, 7, 55, 127
2, 21897, Note_on_c, 0, 72, 127
2, 21938, Note_off_c, 2, 74, 127
2, 22057, Note_off_c, 0, 72, 127
2, 22061, Note_on_c, 11, 70, 127
2, 22385, Note_off_c, 11, 70, 127
2, 22386, Note_off_c, 7, 55, 127
2, 22389, Note_on_c, 0, 72, 127
2, 22389, Note_on_c, 6, 54, 127
2, 22718, Note_on_c, 10, 81, 127
2, 23038, Note_off_c, 0, 72, 127
2, 23042, Note_off_c, 10, 81, 127
2, 23042, Note_off_c, 10, 45, 127
2, 23046, Note_on_c, 0, 72, 127
2, 23046, Note_on_c, 2, 50, 127
2, 23210, Note_on_c, 11, 70, 127
2, 23251, Note_off_c, 0, 72, 127
2, 23370, Note_off_c, 11, 70, 127
2, 23374, Note_on_c, 10, 69, 127
2, 23688, Note_off_c, 6, 54, 127
2, 23698, Note_off_c, 10, 69, 127
2, 23699, Note_off_c, 2, 50, 127
2, 23703, Note_on_c, 11, 70, 127
2, 23703, Note_on_c, 7, 43, 127
2, 24031, Note_on_c, 2, 74, 127
2, 24352, Note_off_c, 11, 70, 127
2, 24355, Note_off_c, 2, 74, 127
2, 24359, Note_on_c, 0, 72, 127
2, 24359, Note_on_c, 2, 50, 127
2, 24523, Note_on_c, 11, 70, 127
2, 24564, Note_off_c, 0, 72, 127
2, 24683, Note_off_c, 11, 70, 127
2, 24688, Note_on_c, 10, 69, 127
2, 25012, Note_off_c, 10, 69, 127
2, 25012, Note_off_c, 2, 50, 127
2, 25016, Note_on_c, 11, 70, 127
2, 25016, Note_on_c, 4, 52, 127
2, 25344, Note_on_c, 7, 79, 127
2, 25665, Note_off_c, 11, 70, 127
2, 25668, Note_off_c, 7, 79, 127
2, 25669, Note_off_c, 7, 43, 127
2, 25672, Note_on_c, 11, 70, 127
2, 25672, Note_on_c, 0, 48, 127
2, 25837, Note_on_c, 10, 69, 127
2, 25877, Note_off_c, 11, 70, 127
2, 25997, Note_off_c, 10, 69, 127
2, 26001, Note_on_c, 7, 67, 127
2, 26315, Note_off_c, 4, 52, 127
2, 26325, Note_off_c, 7, 67, 127
2, 26325, Note_off_c, 0, 48, 127
2, 26329, Note_on_c, 10, 69, 127
2, 26329, Note_on_c, 5, 53, 127
2, 26329, Note_on_c, 5, 41, 127
2, 26657, Note_on_c, 5, 65, 127
2, 26978, Note_off_c, 10, 69, 127
2, 26981, Note_off_c, 5, 65, 127
2, 26982, Note_off_c, 5, 53, 127
2, 26986, Note_on_c, 11, 70, 127
2, 26986, Note_on_c, 7, 55, 127
2, 27150, Note_on_c, 0, 72, 127
2, 27191, Note_off_c, 11, 70, 127
2, 27310, Note_off_c, 0, 72, 127
2, 27314, Note_on_c, 2, 74, 127
2, 27595, Note_off_c, 5, 41, 127
2, 27638, Note_off_c, 2, 74, 127
2, 27639, Note_off_c, 7, 55, 127
2, 27642, Note_on_c, 0, 72, 127
2, 27642, Note_on_c, 10, 57, 127
2, 27971, Note_on_c, 5, 65, 127
2, 28291, Note_off_c, 0, 72, 127
2, 28295, Note_off_c, 5, 65, 127
2, 28295, Note_off_c, 10, 57, 127
2, 28299, Note_on_c, 2, 74, 127
2, 28299, Note_on_c, 11, 58, 127
2, 28463, Note_on_c, 3, 75, 127
2, 28504, Note_off_c, 2, 74, 127
2, 28623, Note_off_c, 3, 75, 127
2, 28627, Note_on_c, 5, 77, 127
2, 28951, Note_off_c, 5, 77, 127
2, 28952, Note_off_c, 11, 58, 127
2, 28956, Note_on_c, 3, 75, 127
2, 28956, Note_on_c, 0, 60, 127
2, 29284, Note_on_c, 0, 72, 127
2, 29605, Note_off_c, 3, 75, 127
2, 29608, Note_off_c, 0, 72, 127
2, 29609, Note_off_c, 0, 60, 127
2, 29612, Note_on_c, 7, 79, 127
2, 29612, Note_on_c, 11, 58, 127
2, 29776, Note_on_c, 10, 81, 127
2, 29817, Note_off_c, 7, 79, 127
2, 29936, Note_off_c, 10, 81, 127
2, 29941, Note_on_c, 11, 82, 127
2, 30265, Note_off_c, 11, 82, 127
2, 30265, Note_off_c, 11, 58, 127
2, 30269, Note_on_c, 10, 81, 127
2, 30269, Note_on_c, 0, 60, 127
2, 30433, Note_on_c, 11, 82, 127
2, 30474, Note_off_c, 10, 81, 127
2, 30593, Note_off_c, 11, 82, 127
2, 30597, Note_on_c, 0, 84, 127
2, 30921, Note_off_c, 0, 84, 127
2, 30922, Note_off_c, 0, 60, 127
2, 30926, Note_on_c, 5, 77, 127
2, 30926, Note_on_c, 10, 57, 127
2, 31090, Note_on_c, 7, 79, 127
2, 31131, Note_off_c, 5, 77, 127
2, 31250, Note_off_c, 7, 79, 127
2, 31254, Note_on_c, 3, 75, 127
2, 31578, Note_off_c, 3, 75, 127
2, 31579, Note_off_c, 10, 57, 127
2, 31582, Note_on_c, 0, 60, 127
2, 31582, Note_on_c, 2, 74, 127
2, 31760, Note_on_c, 11, 58, 127
2, 31766, Note_off_c, 0, 60, 127
2, 31911, Note_on_c, 11, 82, 127
2, 31930, Note_on_c, 0, 60, 127
2, 31941, Note_off_c, 11, 58, 127
2, 32090, Note_on_c, 11, 58, 127
2, 32107, Note_off_c, 0, 60, 127
2, 32231, Note_off_c, 2, 74, 127
2, 32233, Note_on_c, 0, 60, 127
2, 32239, Note_on_c, 7, 79, 127
2, 32239, Note_on_c, 3, 75, 127
2, 32264, Note_off_c, 11, 58, 127
2, 32363, Note_on_c, 11, 58, 127
2, 32404, Note_off_c, 0, 60, 127
2, 32483, Note_on_c, 0, 60, 127
2, 32530, Note_off_c, 11, 58, 127
2, 32560, Note_off_c, 11, 82, 127
2, 32563, Note_off_c, 7, 79, 127
2, 32567, Note_on_c, 11, 82, 127
2, 32602, Note_on_c, 11, 58, 127
2, 32647, Note_off_c, 0, 60, 127
2, 32719, Note_on_c, 0, 60, 127
2, 32762, Note_off_c, 11, 58, 127
2, 32835, Note_on_c, 11, 58, 127
2, 32879, Note_off_c, 0, 60, 127
2, 32888, Note_off_c, 3, 75, 127
2, 32896, Note_on_c, 2, 74, 127
2, 32896, Note_on_c, 5, 77, 127
2, 32948, Note_on_c, 0, 60, 127
2, 32992, Note_off_c, 11, 58, 127
2, 33061, Note_on_c, 11, 58, 127
2, 33101, Note_off_c, 0, 60, 127
2, 33170, Note_on_c, 0, 60, 127
2, 33214, Note_off_c, 11, 58, 127
2, 33216, Note_off_c, 11, 82, 127
2, 33220, Note_off_c, 5, 77, 127
2, 33224, Note_on_c, 11, 82, 127
2, 33279, Note_on_c, 11, 58, 127
2, 33323, Note_off_c, 0, 60, 127
2, 33385, Note_on_c, 0, 60, 127
2, 33429, Note_off_c, 11, 58, 127
2, 33491, Note_on_c, 11, 58, 127
2, 33535, Note_off_c, 0, 60, 127
2, 33545, Note_off_c, 2, 74, 127
2, 33552, Note_on_c, 0, 72, 127
2, 33552, Note_on_c, 3, 75, 127
2, 33594, Note_on_c, 0, 60, 127
2, 33638, Note_off_c, 11, 58, 127
2, 33697, Note_on_c, 11, 58, 127
2, 33741, Note_off_c, 0, 60, 127
2, 33799, Note_on_c, 0, 60, 127
2, 33844, Note_off_c, 11, 58, 127
2, 33873, Note_off_c, 11, 82, 127
2, 33876, Note_off_c, 3, 75, 127
2, 33880, Note_on_c, 11, 82, 127
2, 33902, Note_on_c, 11, 58, 127
2, 33946, Note_off_c, 0, 60, 127
2, 34001, Note_on_c, 0, 60, 127
2, 34045, Note_off_c, 11, 58, 127
2, 34100, Note_on_c, 11, 58, 127
2, 34144, Note_off_c, 0, 60, 127
2, 34199, Note_on_c, 0, 60, 127
2, 34201, Note_off_c, 0, 72, 127
2, 34209, Note_on_c, 5, 77, 127
2, 34209, Note_on_c, 2, 74, 127
2, 34243, Note_off_c, 11, 58, 127
2, 34299, Note_on_c, 11, 58, 127
2, 34342, Note_off_c, 0, 60, 127
2, 34394, Note_on_c, 0, 60, 127
2, 34442, Note_off_c, 11, 58, 127
2, 34490, Note_on_c, 11, 58, 127
2, 34529, Note_off_c, 11, 82, 127
2, 34533, Note_off_c, 5, 77, 127
2, 34537, Note_off_c, 0, 60, 127
2, 34537, Note_on_c, 11, 82, 127
2, 34586, Note_on_c, 0, 60, 127
2, 34630, Note_off_c, 11, 58, 127
2, 34682, Note_on_c, 11, 58, 127
2, 34726, Note_off_c, 0, 60, 127
2, 34777, Note_on_c, 0, 60, 127
2, 34822, Note_off_c, 11, 58, 127
2, 34858, Note_off_c, 2, 74, 127
2, 34865, Note_on_c, 7, 79, 127
2, 34865, Note_on_c, 3, 75, 127
2, 34870, Note_on_c, 11, 58, 127
2, 34917, Note_off_c, 0, 60, 127
2, 34962, Note_on_c, 0, 60, 127
2, 35010, Note_off_c, 11, 58, 127
2, 35054, Note_on_c, 11, 58, 127
2, 35102, Note_off_c, 0, 60, 127
2, 35147, Note_on_c, 0, 60, 127
2, 35186, Note_off_c, 11, 82, 127
2, 35189, Note_off_c, 7, 79, 127
2, 35194, Note_off_c, 11, 58, 127
2, 35194, Note_on_c, 11, 82, 127
2, 35239, Note_on_c, 11, 58, 127
2, 35287, Note_off_c, 0, 60, 127
2, 35331, Note_on_c, 0, 60, 127
2, 35379, Note_off_c, 11, 58, 127
2, 35424, Note_on_c, 11, 58, 127
2, 35471, Note_off_c, 0, 60, 127
2, 35513, Note_on_c, 0, 60, 127
2, 35514, Note_off_c, 3, 75, 127
2, 35522, Note_on_c, 2, 74, 127
2, 35522, Note_on_c, 5, 77, 127
2, 35564, Note_off_c, 11, 58, 127
2, 35602, Note_on_c, 11, 58, 127
2, 35649, Note_off_c, 0, 60, 127
2, 35690, Note_on_c, 0, 60, 127
2, 35738, Note_off_c, 11, 58, 127
2, 35779, Note_on_c, 11, 58, 127
2, 35826, Note_off_c, 0, 60, 127
2, 35843, Note_off_c, 11, 82, 127
2, 35846, Note_off_c, 5, 77, 127
2, 35850, Note_on_c, 11, 82, 127
2, 35868, Note_on_c, 0, 60, 127
2, 35915, Note_off_c, 11, 58, 127
2, 35957, Note_on_c, 11, 58, 127
2, 36004, Note_off_c, 0, 60, 127
2, 36046, Note_on_c, 0, 60, 127
2, 36093, Note_off_c, 11, 58, 127
2, 36135, Note_on_c, 11, 58, 127
2, 36171, Note_off_c, 2, 74, 127
2, 36179, Note_on_c, 3, 75, 127
2, 36179, Note_on_c, 0, 72, 127
2, 36182, Note_off_c, 0, 60, 127
2, 36225, Note_on_c, 0, 60, 127
2, 36271, Note_off_c, 11, 58, 127
2, 36315, Note_on_c, 11, 58, 127
2, 36361, Note_off_c, 0, 60, 127
2, 36402, Note_on_c, 0, 60, 127
2, 36451, Note_off_c, 11, 58, 127
2, 36487, Note_on_c, 11, 58, 127
2, 36499, Note_off_c, 11, 82, 127
2, 36503, Note_off_c, 3, 75, 127
2, 36507, Note_on_c, 10, 81, 127
2, 36538, Note_off_c, 0, 60, 127
2, 36576, Note_on_c, 0, 60, 127
2, 36623, Note_off_c, 11, 58, 127
2, 36662, Note_on_c, 11, 58, 127
2, 36712, Note_off_c, 0, 60, 127
2, 36749, Note_on_c, 0, 60, 127
2, 36798, Note_off_c, 11, 58, 127
2, 36828, Note_off_c, 0, 72, 127
2, 36831, Note_off_c, 10, 81, 127
2, 36835, Note_on_c, 2, 74, 127
2, 36835, Note_on_c, 11, 82, 127
2, 36835, Note_on_c, 11, 58, 127
2, 36858, Note_off_c, 0, 60, 127
2, 37164, Note_on_c, 11, 46, 127
2, 37484, Note_off_c, 11, 58, 127
2, 37488, Note_off_c, 11, 46, 127
2, 37488, Note_off_c, 11, 82, 127
2, 37488, Note_off_c, 2, 74, 127
2, 37492, Note_on_c, 3, 75, 127
2, 37492, Note_on_c, 0, 48, 127
2, 37656, Note_on_c, 2, 50, 127
2, 37697, Note_off_c, 0, 48, 127
2, 37816, Note_off_c, 2, 50, 127
2, 37820, Note_on_c, 3, 51, 127
2, 38144, Note_off_c, 3, 51, 127
2, 38145, Note_off_c, 3, 75, 127
2, 38149, Note_on_c, 5, 77, 127
2, 38149, Note_on_c, 2, 50, 127
2, 38477, Note_on_c, 11, 46, 127
2, 38525, Note_off_c, 2, 50, 127
2, 38801, Note_off_c, 11, 46, 127
2, 38802, Note_off_c, 5, 77, 127
2, 38805, Note_on_c, 7, 79, 127
2, 38805, Note_on_c, 3, 51, 127
2, 38969, Note_on_c, 5, 53, 127
2, 39010, Note_off_c, 3, 51, 127
2, 39129, Note_off_c, 5, 53, 127
2, 39134, Note_on_c, 7, 55, 127
2, 39458, Note_off_c, 7, 55, 127
2, 39458, Note_off_c, 7, 79, 127
2, 39462, Note_on_c, 2, 74, 127
2, 39462, Note_on_c, 5, 53, 127
2, 39790, Note_on_c, 11, 46, 127
2, 39872, Note_off_c, 5, 53, 127
2, 40114, Note_off_c, 11, 46, 127
2, 40115, Note_off_c, 2, 74, 127
2, 40119, Note_on_c, 3, 75, 127
2, 40119, Note_on_c, 7, 55, 127
2, 40283, Note_on_c, 8, 56, 127
2, 40324, Note_off_c, 7, 55, 127
2, 40443, Note_off_c, 8, 56, 127
2, 40447, Note_on_c, 11, 58, 127
2, 40771, Note_off_c, 11, 58, 127
2, 40775, Note_on_c, 5, 77, 127
2, 40775, Note_on_c, 8, 56, 127
2, 40939, Note_on_c, 11, 58, 127
2, 40980, Note_off_c, 8, 56, 127
2, 41076, Note_off_c, 3, 75, 127
2, 41099, Note_off_c, 11, 58, 127
2, 41104, Note_on_c, 2, 74, 127
2, 41104, Note_on_c, 8, 56, 127
2, 41264, Note_off_c, 2, 74, 127
2, 41268, Note_on_c, 0, 72, 127
2, 41428, Note_off_c, 0, 72, 127
2, 41428, Note_off_c, 8, 56, 127
2, 41432, Note_on_c, 12, 71, 127
2, 41432, Note_on_c, 7, 55, 127
2, 41592, Note_off_c, 12, 71, 127
2, 41596, Note_on_c, 0, 72, 127
2, 41596, Note_on_c, 8, 56, 127
2, 41637, Note_off_c, 7, 55, 127
2, 41756, Note_off_c, 8, 56, 127
2, 41756, Note_off_c, 0, 72, 127
2, 41760, Note_on_c, 2, 74, 127
2, 41760, Note_on_c, 5, 53, 127
2, 42074, Note_off_c, 5, 77, 127
2, 42084, Note_off_c, 5, 53, 127
2, 42084, Note_off_c, 2, 74, 127
2, 42088, Note_on_c, 7, 67, 127
2, 42088, Note_on_c, 12, 59, 127
2, 42417, Note_on_c, 7, 79, 127
2, 42577, Note_off_c, 7, 79, 127
2, 42581, Note_on_c, 5, 77, 127
2, 42741, Note_off_c, 5, 77, 127
2, 42741, Note_off_c, 12, 59, 127
2, 42745, Note_on_c, 3, 75, 127
2, 42745, Note_on_c, 7, 55, 127
2, 42905, Note_off_c, 3, 75, 127
2, 42909, Note_on_c, 5, 77, 127
2, 43069, Note_off_c, 5, 77, 127
2, 43073, Note_on_c, 2, 74, 127
2, 43397, Note_off_c, 2, 74, 127
2, 43398, Note_off_c, 7, 55, 127
2, 43402, Note_on_c, 3, 75, 127
2, 43402, Note_on_c, 0, 60, 127
2, 43729, Note_off_c, 7, 67, 127
2, 43730, Note_on_c, 0, 72, 127
2, 43890, Note_off_c, 0, 72, 127
2, 43894, Note_on_c, 11, 70, 127
2, 44054, Note_off_c, 11, 70, 127
2, 44055, Note_off_c, 0, 60, 127
2, 44058, Note_on_c, 8, 68, 127
2, 44058, Note_on_c, 11, 58, 127
2, 44218, Note_off_c, 8, 68, 127
2, 44223, Note_on_c, 11, 70, 127
2, 44383, Note_off_c, 11, 70, 127
2, 44387, Note_on_c, 0, 72, 127
2, 44711, Note_off_c, 0, 72, 127
2, 44711, Note_off_c, 11, 58, 127
2, 44715, Note_on_c, 5, 65, 127
2, 44715, Note_on_c, 8, 56, 127
2, 45043, Note_off_c, 3, 75, 127
2, 45043, Note_on_c, 5, 77, 127
2, 45203, Note_off_c, 5, 77, 127
2, 45208, Note_on_c, 3, 75, 127
2, 45368, Note_off_c, 3, 75, 127
2, 45368, Note_off_c, 8, 56, 127
2, 45372, Note_on_c, 2, 74, 127
2, 45372, Note_on_c, 5, 53, 127
2, 45532, Note_off_c, 2, 74, 127
2, 45536, Note_on_c, 3, 75, 127
2, 45696, Note_off_c, 3, 75, 127
2, 45700, Note_on_c, 0, 72, 127
2, 46024, Note_off_c, 0, 72, 127
2, 46025, Note_off_c, 5, 53, 127
2, 46028, Note_on_c, 2, 74, 127
2, 46028, Note_on_c, 11, 58, 127
2, 46356, Note_off_c, 5, 65, 127
2, 46357, Note_on_c, 11, 70, 127
2, 46517, Note_off_c, 11, 70, 127
2, 46521, Note_on_c, 8, 68, 127
2, 46681, Note_off_c, 8, 68, 127
2, 46681, Note_off_c, 11, 58, 127
2, 46685, Note_on_c, 7, 67, 127
2, 46685, Note_on_c, 8, 56, 127
2, 46845, Note_off_c, 7, 67, 127
2, 46849, Note_on_c, 8, 68, 127
2, 47009, Note_off_c, 8, 68, 127
2, 47013, Note_on_c, 11, 70, 127
2, 47337, Note_off_c, 11, 70, 127
2, 47338, Note_off_c, 8, 56, 127
2, 47342, Note_on_c, 3, 63, 127
2, 47342, Note_on_c, 7, 55, 127
2, 47669, Note_off_c, 2, 74, 127
2, 47670, Note_on_c, 3, 75, 127
2, 47830, Note_off_c, 3, 75, 127
2, 47834, Note_on_c, 2, 74, 127
2, 47994, Note_off_c, 2, 74, 127
2, 47995, Note_off_c, 7, 55, 127
2, 47998, Note_on_c, 0, 72, 127
2, 47998, Note_on_c, 3, 51, 127
2, 48158, Note_off_c, 0, 72, 127
2, 48162, Note_on_c, 2, 74, 127
2, 48322, Note_off_c, 2, 74, 127
2, 48327, Note_on_c, 12, 71, 127
2, 48651, Note_off_c, 12, 71, 127
2, 48651, Note_off_c, 3, 51, 127
2, 48655, Note_on_c, 0, 72, 127
2, 48655, Note_on_c, 8, 56, 127
2, 48983, Note_off_c, 3, 63, 127
2, 48983, Note_on_c, 8, 68, 127
2, 49143, Note_off_c, 8, 68, 127
2, 49147, Note_on_c, 7, 67, 127
2, 49307, Note_off_c, 7, 67, 127
2, 49308, Note_off_c, 8, 56, 127
2, 49312, Note_on_c, 5, 65, 127
2, 49312, Note_on_c, 7, 55, 127
2, 49472, Note_off_c, 5, 65, 127
2, 49476, Note_on_c, 7, 67, 127
2, 49636, Note_off_c, 7, 67, 127
2, 49640, Note_on_c, 8, 68, 127
2, 49964, Note_off_c, 8, 68, 127
2, 49965, Note_off_c, 7, 55, 127
2, 49968, Note_on_c, 2, 62, 127
2, 49968, Note_on_c, 5, 53, 127
2, 50296, Note_off_c, 0, 72, 127
2, 50296, Note_on_c, 2, 74, 127
2, 50456, Note_off_c, 2, 74, 127
2, 50461, Note_on_c, 0, 72, 127
2, 50621, Note_off_c, 0, 72, 127
2, 50621, Note_off_c, 5, 53, 127
2, 50625, Note_on_c, 12, 71, 127
2, 50625, Note_on_c, 2, 50, 127
2, 50785, Note_off_c, 12, 71, 127
2, 50789, Note_on_c, 0, 72, 127
2, 50949, Note_off_c, 0, 72, 127
2, 50953, Note_on_c, 10, 69, 127
2, 51267, Note_off_c, 2, 62, 127
2, 51277, Note_off_c, 10, 69, 127
2, 51278, Note_off_c, 2, 50, 127
2, 51281, Note_on_c, 2, 62, 127
2, 51281, Note_on_c, 12, 71, 127
2, 51281, Note_on_c, 7, 55, 127
2, 51605, Note_off_c, 2, 62, 127
2, 51610, Note_on_c, 3, 63, 127
2, 51770, Note_off_c, 3, 63, 127
2, 51774, Note_on_c, 5, 65, 127
2, 51934, Note_off_c, 5, 65, 127
2, 51938, Note_on_c, 3, 63, 127
2, 51938, Note_on_c, 7, 43, 127
2, 52098, Note_off_c, 3, 63, 127
2, 52102, Note_on_c, 5, 65, 127
2, 52262, Note_off_c, 5, 65, 127
2, 52266, Note_on_c, 2, 62, 127
2, 52443, Note_off_c, 7, 55, 127
2, 52580, Note_off_c, 12, 71, 127
2, 52590, Note_off_c, 2, 62, 127
2, 52591, Note_off_c, 7, 43, 127
2, 52595, Note_on_c, 3, 63, 127
2, 52595, Note_on_c, 0, 36, 127
2, 52595, Note_on_c, 0, 48, 127
2, 52923, Note_on_c, 0, 72, 127
2, 53244, Note_off_c, 3, 63, 127
2, 53251, Note_on_c, 5, 65, 127
2, 53251, Note_on_c, 8, 68, 127
2, 53572, Note_off_c, 0, 72, 127
2, 53580, Note_on_c, 0, 72, 127
2, 53900, Note_off_c, 8, 68, 127
2, 53900, Note_off_c, 5, 65, 127
2, 53908, Note_on_c, 3, 63, 127
2, 53908, Note_on_c, 7, 67, 127
2, 54229, Note_off_c, 0, 72, 127
2, 54236, Note_on_c, 0, 72, 127
2, 54557, Note_off_c, 7, 67, 127
2, 54557, Note_off_c, 3, 63, 127
2, 54561, Note_off_c, 0, 36, 127
2, 54565, Note_on_c, 5, 65, 127
2, 54565, Note_on_c, 2, 62, 127
2, 54565, Note_on_c, 0, 36, 127
2, 54885, Note_off_c, 0, 72, 127
2, 54893, Note_on_c, 0, 72, 127
2, 55214, Note_off_c, 2, 62, 127
2, 55214, Note_off_c, 5, 65, 127
2, 55218, Note_off_c, 0, 48, 127
2, 55221, Note_on_c, 3, 63, 127
2, 55221, Note_on_c, 7, 67, 127
2, 55221, Note_on_c, 0, 48, 127
2, 55542, Note_off_c, 0, 72, 127
2, 55550, Note_on_c, 0, 72, 127
2, 55870, Note_off_c, 7, 67, 127
2, 55870, Note_off_c, 3, 63, 127
2, 55878, Note_on_c, 5, 65, 127
2, 55878, Note_on_c, 8, 68, 127
2, 56199, Note_off_c, 0, 72, 127
2, 56206, Note_on_c, 0, 72, 127
2, 56527, Note_off_c, 8, 68, 127
2, 56527, Note_off_c, 5, 65, 127
2, 56535, Note_on_c, 3, 63, 127
2, 56535, Note_on_c, 7, 67, 127
2, 56855, Note_off_c, 0, 72, 127
2, 56863, Note_on_c, 0, 72, 127
2, 57184, Note_off_c, 7, 67, 127
2, 57184, Note_off_c, 3, 63, 127
2, 57191, Note_on_c, 5, 65, 127
2, 57191, Note_on_c, 2, 62, 127
2, 57512, Note_off_c, 0, 72, 127
2, 57520, Note_on_c, 12, 71, 127
2, 57840, Note_off_c, 2, 62, 127
2, 57840, Note_off_c, 5, 65, 127
2, 57844, Note_off_c, 12, 71, 127
2, 57844, Note_off_c, 0, 48, 127
2, 57848, Note_on_c, 0, 72, 127
2, 57848, Note_on_c, 3, 63, 127
2, 57848, Note_on_c, 0, 48, 127
2, 58053, Note_off_c, 0, 36, 127
2, 58176, Note_on_c, 7, 43, 127
2, 58224, Note_off_c, 0, 48, 127
2, 58336, Note_off_c, 7, 43, 127
2, 58340, Note_on_c, 5, 41, 127
2, 58500, Note_off_c, 5, 41, 127
2, 58501, Note_off_c, 3, 63, 127
2, 58504, Note_on_c, 7, 67, 127
2, 58504, Note_on_c, 3, 39, 127
2, 58664, Note_off_c, 3, 39, 127
2, 58669, Note_on_c, 5, 41, 127
2, 58829, Note_off_c, 5, 41, 127
2, 58833, Note_on_c, 7, 43, 127
2, 59147, Note_off_c, 0, 72, 127
2, 59157, Note_off_c, 7, 43, 127
2, 59161, Note_on_c, 3, 75, 127
2, 59161, Note_on_c, 0, 36, 127
2, 59485, Note_off_c, 0, 36, 127
2, 59489, Note_on_c, 0, 60, 127
2, 59649, Note_off_c, 0, 60, 127
2, 59654, Note_on_c, 11, 58, 127
2, 59803, Note_off_c, 7, 67, 127
2, 59814, Note_off_c, 11, 58, 127
2, 59818, Note_on_c, 0, 72, 127
2, 59818, Note_on_c, 10, 57, 127
2, 59978, Note_off_c, 10, 57, 127
2, 59982, Note_on_c, 11, 58, 127
2, 60142, Note_off_c, 11, 58, 127
2, 60146, Note_on_c, 0, 60, 127
2, 60470, Note_off_c, 0, 60, 127
2, 60474, Note_on_c, 6, 54, 127
2, 60802, Note_off_c, 3, 75, 127
2, 60803, Note_on_c, 10, 81, 127
2, 60963, Note_off_c, 10, 81, 127
2, 60967, Note_on_c, 7, 79, 127
2, 61127, Note_off_c, 7, 79, 127
2, 61131, Note_on_c, 6, 78, 127
2, 61291, Note_off_c, 6, 78, 127
2, 61295, Note_on_c, 7, 79, 127
2, 61455, Note_off_c, 7, 79, 127
2, 61459, Note_on_c, 10, 81, 127
2, 61783, Note_off_c, 10, 81, 127
2, 61788, Note_on_c, 2, 74, 127
2, 62112, Note_off_c, 2, 74, 127
2, 62116, Note_on_c, 3, 75, 127
2, 62253, Note_off_c, 0, 72, 127
2, 62280, Note_on_c, 0, 72, 127
2, 62440, Note_off_c, 0, 72, 127
2, 62444, Note_on_c, 10, 69, 127
2, 62604, Note_off_c, 10, 69, 127
2, 62608, Note_on_c, 11, 70, 127
2, 62768, Note_off_c, 11, 70, 127
2, 62773, Note_on_c, 0, 72, 127
2, 63097, Note_off_c, 0, 72, 127
2, 63097, Note_off_c, 6, 54, 127
2, 63100, Note_off_c, 3, 75, 127
2, 63101, Note_on_c, 2, 74, 127
2, 63101, Note_on_c, 11, 70, 127
2, 63101, Note_on_c, 7, 55, 127
2, 63425, Note_off_c, 7, 55, 127
2, 63429, Note_on_c, 2, 50, 127
2, 63589, Note_off_c, 2, 50, 127
2, 63593, Note_on_c, 0, 48, 127
2, 63682, Note_off_c, 11, 70, 127
2, 63753, Note_off_c, 0, 48, 127
2, 63754, Note_off_c, 2, 74, 127
2, 63758, Note_on_c, 6, 66, 127
2, 63758, Note_on_c, 0, 72, 127
2, 63758, Note_on_c, 11, 46, 127
2, 63918, Note_off_c, 11, 46, 127
2, 63922, Note_on_c, 0, 48, 127
2, 64082, Note_off_c, 0, 48, 127
2, 64086, Note_on_c, 2, 50, 127
2, 64339, Note_off_c, 6, 66, 127
2, 64410, Note_off_c, 2, 50, 127
2, 64411, Note_off_c, 0, 72, 127
2, 64414, Note_on_c, 7, 67, 127
2, 64414, Note_on_c, 11, 70, 127
2, 64414, Note_on_c, 7, 43, 127
2, 64743, Note_on_c, 7, 55, 127
2, 64892, Note_off_c, 7, 43, 127
2, 64903, Note_off_c, 7, 55, 127
2, 64907, Note_on_c, 5, 53, 127
2, 64995, Note_off_c, 7, 67, 127
2, 65067, Note_off_c, 5, 53, 127
2, 65067, Note_off_c, 11, 70, 127
2, 65071, Note_on_c, 2, 62, 127
2, 65071, Note_on_c, 3, 51, 127
2, 65231, Note_off_c, 3, 51, 127
2, 65235, Note_on_c, 5, 53, 127
2, 65395, Note_off_c, 5, 53, 127
2, 65399, Note_on_c, 7, 55, 127
2, 65686, Note_off_c, 2, 62, 127
2, 65723, Note_off_c, 7, 55, 127
2, 65728, Note_on_c, 3, 63, 127
2, 65728, Note_on_c, 0, 48, 127
2, 66056, Note_on_c, 3, 75, 127
2, 66216, Note_off_c, 3, 75, 127
2, 66220, Note_on_c, 2, 74, 127
2, 66380, Note_off_c, 2, 74, 127
2, 66384, Note_on_c, 0, 72, 127
2, 66384, Note_on_c, 0, 60, 127
2, 66544, Note_off_c, 0, 72, 127
2, 66548, Note_on_c, 2, 74, 127
2, 66708, Note_off_c, 2, 74, 127
2, 66712, Note_on_c, 3, 75, 127
2, 67036, Note_off_c, 3, 75, 127
2, 67041, Note_on_c, 8, 68, 127
2, 67369, Note_on_c, 0, 72, 127
2, 67529, Note_off_c, 0, 72, 127
2, 67533, Note_on_c, 11, 70, 127
2, 67690, Note_off_c, 8, 68, 127
2, 67693, Note_off_c, 11, 70, 127
2, 67694, Note_off_c, 0, 48, 127
2, 67697, Note_on_c, 8, 68, 127
2, 67697, Note_on_c, 0, 48, 127
2, 67862, Note_on_c, 11, 70, 127
2, 68022, Note_off_c, 11, 70, 127
2, 68026, Note_on_c, 0, 72, 127
2, 68346, Note_off_c, 8, 68, 127
2, 68350, Note_off_c, 0, 72, 127
2, 68350, Note_off_c, 0, 48, 127
2, 68354, Note_on_c, 6, 66, 127
2, 68354, Note_on_c, 2, 50, 127
2, 68675, Note_off_c, 0, 60, 127
2, 68682, Note_on_c, 10, 57, 127
2, 68842, Note_off_c, 10, 57, 127
2, 68847, Note_on_c, 11, 58, 127
2, 69007, Note_off_c, 11, 58, 127
2, 69011, Note_on_c, 0, 60, 127
2, 69171, Note_off_c, 0, 60, 127
2, 69175, Note_on_c, 11, 58, 127
2, 69335, Note_off_c, 11, 58, 127
2, 69339, Note_on_c, 10, 57, 127
2, 69661, Note_off_c, 3, 63, 127
2, 69663, Note_off_c, 10, 57, 127
2, 69663, Note_off_c, 6, 66, 127
2, 69667, Note_on_c, 2, 62, 127
2, 69667, Note_on_c, 11, 58, 127
2, 69991, Note_off_c, 2, 62, 127
2, 69996, Note_on_c, 7, 67, 127
2, 70156, Note_off_c, 7, 67, 127
2, 70160, Note_on_c, 10, 69, 127
2, 70320, Note_off_c, 10, 69, 127
2, 70320, Note_off_c, 2, 50, 127
2, 70324, Note_on_c, 11, 70, 127
2, 70324, Note_on_c, 2, 50, 127
2, 70484, Note_off_c, 11, 70, 127
2, 70488, Note_on_c, 10, 69, 127
2, 70648, Note_off_c, 10, 69, 127
2, 70652, Note_on_c, 7, 67, 127
2, 70966, Note_off_c, 11, 58, 127
2, 70976, Note_off_c, 7, 67, 127
2, 70981, Note_on_c, 0, 72, 127
2, 70981, Note_on_c, 10, 57, 127
2, 71309, Note_on_c, 6, 66, 127
2, 71469, Note_off_c, 6, 66, 127
2, 71473, Note_on_c, 7, 67, 127
2, 71623, Note_off_c, 2, 50, 127
2, 71633, Note_off_c, 7, 67, 127
2, 71637, Note_on_c, 10, 69, 127
2, 71637, Note_on_c, 2, 50, 127
2, 71797, Note_off_c, 10, 69, 127
2, 71801, Note_on_c, 7, 67, 127
2, 71961, Note_off_c, 7, 67, 127
2, 71966, Note_on_c, 6, 66, 127
2, 72280, Note_off_c, 10, 57, 127
2, 72280, Note_off_c, 0, 72, 127
2, 72290, Note_off_c, 6, 66, 127
2, 72294, Note_on_c, 11, 70, 127
2, 72294, Note_on_c, 7, 55, 127
2, 72622, Note_on_c, 4, 64, 127
2, 72782, Note_off_c, 4, 64, 127
2, 72786, Note_on_c, 6, 66, 127
2, 72936, Note_off_c, 2, 50, 127
2, 72946, Note_off_c, 6, 66, 127
2, 72951, Note_on_c, 7, 67, 127
2, 72951, Note_on_c, 2, 50, 127
2, 73111, Note_off_c, 7, 67, 127
2, 73115, Note_on_c, 6, 66, 127
2, 73275, Note_off_c, 6, 66, 127
2, 73279, Note_on_c, 4, 64, 127
2, 73593, Note_off_c, 7, 55, 127
2, 73593, Note_off_c, 11, 70, 127
2, 73603, Note_off_c, 4, 64, 127
2, 73607, Note_on_c, 10, 69, 127
2, 73607, Note_on_c, 6, 54, 127
2, 73936, Note_on_c, 2, 62, 127
2, 74096, Note_off_c, 2, 62, 127
2, 74100, Note_on_c, 4, 64, 127
2, 74250, Note_off_c, 2, 50, 127
2, 74260, Note_off_c, 4, 64, 127
2, 74264, Note_on_c, 6, 66, 127
2, 74264, Note_on_c, 2, 50, 127
2, 74424, Note_off_c, 6, 66, 127
2, 74428, Note_on_c, 4, 64, 127
2, 74588, Note_off_c, 4, 64, 127
2, 74592, Note_on_c, 2, 62, 127
2, 74906, Note_off_c, 6, 54, 127
2, 74906, Note_off_c, 10, 69, 127
2, 74916, Note_off_c, 2, 62, 127
2, 74917, Note_off_c, 2, 50, 127
2, 74920, Note_on_c, 7, 67, 127
2, 74920, Note_on_c, 4, 52, 127
2, 75249, Note_on_c, 1, 61, 127
2, 75409, Note_off_c, 1, 61, 127
2, 75413, Note_on_c, 2, 62, 127
2, 75573, Note_off_c, 2, 62, 127
2, 75573, Note_off_c, 4, 52, 127
2, 75577, Note_on_c, 4, 64, 127
2, 75577, Note_on_c, 2, 50, 127
2, 75737, Note_off_c, 4, 64, 127
2, 75741, Note_on_c, 2, 62, 127
2, 75901, Note_off_c, 2, 62, 127
2, 75905, Note_on_c, 1, 61, 127
2, 76219, Note_off_c, 7, 67, 127
2, 76229, Note_off_c, 1, 61, 127
2, 76230, Note_off_c, 2, 50, 127
2, 76234, Note_on_c, 2, 62, 127
2, 76234, Note_on_c, 0, 48, 127
2, 76330, Note_on_c, 4, 64, 127
2, 76425, Note_on_c, 6, 66, 127
2, 76450, Note_off_c, 4, 64, 127
2, 76562, Note_on_c, 10, 57, 127
2, 76722, Note_off_c, 10, 57, 127
2, 76726, Note_on_c, 7, 55, 127
2, 76886, Note_off_c, 7, 55, 127
2, 76890, Note_on_c, 6, 54, 127
2, 77050, Note_off_c, 6, 54, 127
2, 77055, Note_on_c, 7, 55, 127
2, 77215, Note_off_c, 7, 55, 127
2, 77219, Note_on_c, 10, 57, 127
2, 77468, Note_off_c, 6, 66, 127
2, 77499, Note_off_c, 2, 62, 127
2, 77523, Note_off_c, 10, 57, 127
2, 77533, Note_off_c, 0, 48, 127
2, 77547, Note_on_c, 11, 46, 127
2, 77875, Note_on_c, 7, 79, 127
2, 78199, Note_off_c, 7, 79, 127
2, 78200, Note_off_c, 11, 46, 127
2, 78204, Note_on_c, 5, 77, 127
2, 78204, Note_on_c, 12, 47, 127
2, 78364, Note_off_c, 5, 77, 127
2, 78368, Note_on_c, 3, 75, 127
2, 78528, Note_off_c, 3, 75, 127
2, 78532, Note_on_c, 2, 74, 127
2, 78856, Note_off_c, 2, 74, 127
2, 78857, Note_off_c, 12, 47, 127
2, 78860, Note_on_c, 3, 75, 127
2, 78860, Note_on_c, 0, 48, 127
2, 79184, Note_off_c, 0, 48, 127
2, 79189, Note_on_c, 0, 84, 127
2, 79189, Note_on_c, 10, 57, 127
2, 79509, Note_off_c, 3, 75, 127
2, 79513, Note_off_c, 10, 57, 127
2, 79513, Note_off_c, 0, 84, 127
2, 79517, Note_on_c, 2, 74, 127
2, 79517, Note_on_c, 11, 46, 127
2, 79677, Note_off_c, 2, 74, 127
2, 79681, Note_on_c, 0, 72, 127
2, 79841, Note_off_c, 0, 72, 127
2, 79841, Note_off_c, 11, 46, 127
2, 79845, Note_on_c, 11, 70, 127
2, 79845, Note_on_c, 7, 55, 127
2, 80169, Note_off_c, 7, 55, 127
2, 80169, Note_off_c, 11, 70, 127
2, 80174, Note_on_c, 0, 72, 127
2, 80174, Note_on_c, 10, 45, 127
2, 80498, Note_off_c, 10, 45, 127
2, 80502, Note_on_c, 10, 81, 127
2, 80502, Note_on_c, 6, 54, 127
2, 80823, Note_off_c, 0, 72, 127
2, 80826, Note_off_c, 6, 54, 127
2, 80826, Note_off_c, 10, 81, 127
2, 80830, Note_on_c, 11, 70, 127
2, 80830, Note_on_c, 7, 43, 127
2, 80990, Note_off_c, 11, 70, 127
2, 80994, Note_on_c, 10, 69, 127
2, 81154, Note_off_c, 10, 69, 127
2, 81154, Note_off_c, 7, 43, 127
2, 81159, Note_on_c, 7, 67, 127
2, 81159, Note_on_c, 3, 51, 127
2, 81477, Note_off_c, 7, 67, 127
2, 81483, Note_off_c, 3, 51, 127
2, 81487, Note_on_c, 10, 69, 127
2, 81487, Note_on_c, 6, 42, 127
2, 81815, Note_on_c, 3, 75, 127
2, 81975, Note_off_c, 3, 75, 127
2, 81979, Note_on_c, 2, 74, 127
2, 82139, Note_off_c, 2, 74, 127
2, 82140, Note_off_c, 6, 42, 127
2, 82144, Note_on_c, 0, 72, 127
2, 82144, Note_on_c, 2, 38, 127
2, 82304, Note_off_c, 0, 72, 127
2, 82308, Note_on_c, 11, 70, 127
2, 82444, Note_off_c, 10, 69, 127
2, 82468, Note_off_c, 11, 70, 127
2, 82472, Note_on_c, 10, 69, 127
2, 82796, Note_off_c, 10, 69, 127
2, 82797, Note_off_c, 2, 38, 127
2, 82800, Note_on_c, 11, 70, 127
2, 82800, Note_on_c, 7, 43, 127
2, 82889, Note_off_c, 11, 70, 127
2, 82890, Note_on_c, 10, 69, 127
2, 82979, Note_off_c, 10, 69, 127
2, 82979, Note_on_c, 11, 70, 127
2, 83128, Note_on_c, 10, 69, 127
2, 83288, Note_off_c, 10, 69, 127
2, 83293, Note_on_c, 7, 67, 127
2, 83453, Note_off_c, 7, 67, 127
2, 83453, Note_off_c, 7, 43, 127
2, 83457, Note_on_c, 5, 65, 127
2, 83457, Note_on_c, 7, 55, 127
2, 83617, Note_off_c, 5, 65, 127
2, 83621, Note_on_c, 3, 63, 127
2, 83781, Note_off_c, 3, 63, 127
2, 83785, Note_on_c, 2, 62, 127
2, 84109, Note_off_c, 2, 62, 127
2, 84110, Note_off_c, 7, 55, 127
2, 84113, Note_on_c, 3, 63, 127
2, 84113, Note_on_c, 0, 48, 127
2, 84381, Note_off_c, 11, 70, 127
2, 84442, Note_on_c, 0, 72, 127
2, 84602, Note_off_c, 0, 72, 127
2, 84606, Note_on_c, 11, 70, 127
2, 84766, Note_off_c, 11, 70, 127
2, 84770, Note_on_c, 8, 68, 127
2, 84770, Note_on_c, 0, 60, 127
2, 84930, Note_off_c, 8, 68, 127
2, 84934, Note_on_c, 0, 72, 127
2, 85094, Note_off_c, 0, 72, 127
2, 85098, Note_on_c, 6, 66, 127
2, 85412, Note_off_c, 0, 48, 127
2, 85412, Note_off_c, 3, 63, 127
2, 85419, Note_off_c, 0, 60, 127
2, 85422, Note_off_c, 6, 66, 127
2, 85427, Note_on_c, 11, 58, 127
2, 85536, Note_on_c, 4, 64, 127
2, 85646, Note_on_c, 7, 67, 127
2, 85696, Note_off_c, 4, 64, 127
2, 85755, Note_on_c, 1, 49, 127
2, 85915, Note_off_c, 1, 49, 127
2, 85919, Note_on_c, 2, 50, 127
2, 86079, Note_off_c, 2, 50, 127
2, 86083, Note_on_c, 4, 52, 127
2, 86243, Note_off_c, 4, 52, 127
2, 86248, Note_on_c, 2, 50, 127
2, 86408, Note_off_c, 2, 50, 127
2, 86412, Note_on_c, 1, 49, 127
2, 86736, Note_off_c, 1, 49, 127
2, 86740, Note_on_c, 2, 50, 127
2, 87068, Note_off_c, 11, 58, 127
2, 87068, Note_on_c, 10, 57, 127
2, 87228, Note_off_c, 10, 57, 127
2, 87232, Note_on_c, 11, 58, 127
2, 87392, Note_off_c, 11, 58, 127
2, 87397, Note_on_c, 0, 60, 127
2, 87557, Note_off_c, 0, 60, 127
2, 87561, Note_on_c, 11, 58, 127
2, 87721, Note_off_c, 11, 58, 127
2, 87725, Note_on_c, 10, 57, 127
2, 88040, Note_off_c, 7, 67, 127
2, 88049, Note_off_c, 10, 57, 127
2, 88053, Note_on_c, 6, 66, 127
2, 88053, Note_on_c, 2, 38, 127
2, 88382, Note_on_c, 0, 60, 127
2, 88542, Note_off_c, 0, 60, 127
2, 88546, Note_on_c, 2, 62, 127
2, 88706, Note_off_c, 2, 62, 127
2, 88710, Note_on_c, 3, 63, 127
2, 88870, Note_off_c, 3, 63, 127
2, 88874, Note_on_c, 2, 62, 127
2, 89034, Note_off_c, 2, 62, 127
2, 89038, Note_on_c, 0, 60, 127
2, 89352, Note_off_c, 6, 66, 127
2, 89362, Note_off_c, 0, 60, 127
2, 89362, Note_off_c, 2, 38, 127
2, 89363, Note_off_c, 2, 50, 127
2, 89383, Note_on_c, 7, 43, 127
2, 89383, Note_on_c, 2, 50, 127
2, 89383, Note_on_c, 11, 58, 127
2, 89721, Note_on_c, 2, 62, 127
2, 89885, Note_off_c, 2, 62, 127
2, 89889, Note_on_c, 7, 67, 127
2, 90049, Note_off_c, 11, 58, 127
2, 90053, Note_off_c, 7, 67, 127
2, 90056, Note_on_c, 12, 59, 127
2, 90056, Note_on_c, 5, 65, 127
2, 90220, Note_off_c, 5, 65, 127
2, 90224, Note_on_c, 3, 63, 127
2, 90388, Note_off_c, 3, 63, 127
2, 90391, Note_on_c, 2, 62, 127
2, 90722, Note_off_c, 12, 59, 127
2, 90726, Note_off_c, 2, 62, 127
2, 90730, Note_on_c, 3, 63, 127
2, 90730, Note_on_c, 0, 60, 127
2, 90751, Note_off_c, 2, 50, 127
2, 91069, Note_on_c, 0, 48, 127
2, 91233, Note_off_c, 0, 48, 127
2, 91236, Note_on_c, 7, 55, 127
2, 91400, Note_off_c, 7, 55, 127
2, 91400, Note_off_c, 0, 60, 127
2, 91400, Note_off_c, 3, 63, 127
2, 91404, Note_on_c, 5, 53, 127
2, 91404, Note_on_c, 2, 62, 127
2, 91404, Note_on_c, 12, 59, 127
2, 91568, Note_off_c, 5, 53, 127
2, 91571, Note_on_c, 3, 51, 127
2, 91735, Note_off_c, 3, 51, 127
2, 91739, Note_on_c, 2, 50, 127
2, 92074, Note_off_c, 2, 50, 127
2, 92074, Note_off_c, 12, 59, 127
2, 92074, Note_off_c, 2, 62, 127
2, 92074, Note_off_c, 7, 43, 127
2, 92078, Note_on_c, 7, 43, 127
2, 92078, Note_on_c, 3, 51, 127
2, 92078, Note_on_c, 0, 60, 127
2, 92426, Note_on_c, 7, 67, 127
2, 92597, Note_off_c, 7, 67, 127
2, 92601, Note_on_c, 0, 72, 127
2, 92772, Note_off_c, 0, 72, 127
2, 92775, Note_on_c, 11, 70, 127
2, 92946, Note_off_c, 11, 70, 127
2, 92950, Note_on_c, 10, 69, 127
2, 93121, Note_off_c, 10, 69, 127
2, 93124, Note_on_c, 7, 67, 127
2, 93469, Note_off_c, 7, 67, 127
2, 93473, Note_on_c, 10, 69, 127
2, 93818, Note_off_c, 10, 69, 127
2, 93822, Note_on_c, 0, 72, 127
2, 93993, Note_off_c, 0, 72, 127
2, 93996, Note_on_c, 10, 69, 127
2, 94167, Note_off_c, 10, 69, 127
2, 94171, Note_on_c, 7, 67, 127
2, 94342, Note_off_c, 7, 67, 127
2, 94345, Note_on_c, 6, 66, 127
2, 94516, Note_off_c, 6, 66, 127
2, 94519, Note_on_c, 4, 64, 127
2, 94864, Note_off_c, 4, 64, 127
2, 94865, Note_off_c, 0, 60, 127
2, 94868, Note_on_c, 6, 66, 127
2, 94964, Note_on_c, 4, 64, 127
2, 94991, Note_off_c, 6, 66, 127
2, 95063, Note_on_c, 6, 66, 127
2, 95090, Note_off_c, 4, 64, 127
2, 95224, Note_off_c, 3, 51, 127
2, 95227, Note_on_c, 3, 51, 127
2, 95401, Note_off_c, 3, 51, 127
2, 95405, Note_on_c, 2, 50, 127
2, 95579, Note_off_c, 2, 50, 127
2, 95583, Note_on_c, 0, 48, 127
2, 95757, Note_off_c, 0, 48, 127
2, 95761, Note_on_c, 2, 50, 127
2, 95935, Note_off_c, 2, 50, 127
2, 95939, Note_on_c, 3, 51, 127
2, 96291, Note_off_c, 7, 43, 127
2, 96298, Note_on_c, 7, 43, 127
2, 96677, Note_on_c, 2, 62, 127
2, 96858, Note_off_c, 2, 62, 127
2, 96872, Note_on_c, 3, 63, 127
2, 97053, Note_off_c, 3, 63, 127
2, 97067, Note_on_c, 2, 62, 127
2, 97248, Note_off_c, 2, 62, 127
2, 97261, Note_on_c, 3, 63, 127
2, 97442, Note_off_c, 3, 63, 127
2, 97456, Note_on_c, 0, 60, 127
2, 97775, Note_off_c, 3, 51, 127
2, 97860, Note_off_c, 6, 66, 127
2, 97871, Note_on_c, 2, 50, 127
2, 97871, Note_on_c, 7, 67, 127
2, 98247, Note_off_c, 0, 60, 127
2, 98260, Note_on_c, 0, 60, 127
2, 98482, Note_on_c, 12, 59, 127
2, 98500, Note_off_c, 0, 60, 127
2, 98703, Note_on_c, 10, 57, 127
2, 98722, Note_off_c, 12, 59, 127
2, 98925, Note_on_c, 12, 59, 127
2, 98943, Note_off_c, 10, 57, 127
2, 99146, Note_on_c, 0, 60, 127
2, 99165, Note_off_c, 12, 59, 127
2, 99516, Note_off_c, 0, 60, 127
2, 99524, Note_on_c, 0, 60, 127
2, 99962, Note_on_c, 12, 59, 127
2, 99976, Note_off_c, 0, 60, 127
2, 100112, Note_off_c, 12, 59, 127
2, 100124, Note_on_c, 0, 60, 127
2, 100274, Note_off_c, 0, 60, 127
2, 100285, Note_on_c, 12, 59, 127
2, 100435, Note_off_c, 12, 59, 127
2, 100447, Note_on_c, 0, 60, 127
2, 100597, Note_off_c, 0, 60, 127
2, 100609, Note_on_c, 12, 59, 127
2, 102269, Note_off_c, 7, 43, 127
2, 102511, Note_off_c, 7, 67, 127
2, 102511, Note_off_c, 2, 50, 127
2, 103609, Note_off_c, 12, 59, 127
2, 103774, Note_on_c, 2, 62, 127
2, 104085, Note_off_c, 2, 62, 127
2, 104111, Note_on_c, 3, 63, 127
2, 104422, Note_off_c, 3, 63, 127
2, 104442, Note_on_c, 7, 55, 127
2, 104753, Note_off_c, 7, 55, 127
2, 104774, Note_on_c, 7, 55, 127
2, 104842, Note_off_c, 7, 55, 127
2, 104846, Note_on_c, 6, 54, 127
2, 104914, Note_off_c, 6, 54, 127
2, 104918, Note_on_c, 7, 55, 127
2, 104986, Note_off_c, 7, 55, 127
2, 104990, Note_on_c, 6, 54, 127
2, 105444, Note_off_c, 6, 54, 127
2, 105448, Note_on_c, 7, 55, 127
2, 106279, Note_off_c, 7, 55, 127
2, 106446, Note_on_c, 10, 57, 127
2, 106610, Note_off_c, 10, 57, 127
2, 106614, Note_on_c, 11, 58, 127
2, 106778, Note_off_c, 11, 58, 127
2, 106782, Note_on_c, 0, 60, 127
2, 107113, Note_off_c, 0, 60, 127
2, 107117, Note_on_c, 11, 58, 127
2, 107281, Note_off_c, 11, 58, 127
2, 107284, Note_on_c, 10, 57, 127
2, 107448, Note_off_c, 10, 57, 127
2, 107452, Note_on_c, 11, 58, 127
2, 107784, Note_on_c, 7, 67, 127
2, 108078, Note_off_c, 7, 67, 127
2, 108115, Note_off_c, 11, 58, 127
2, 108119, Note_on_c, 7, 55, 127
2, 108119, Note_on_c, 11, 70, 127
2, 108413, Note_off_c, 11, 70, 127
2, 108451, Note_on_c, 2, 62, 127
2, 108745, Note_off_c, 2, 62, 127
2, 108775, Note_off_c, 7, 55, 127
2, 108782, Note_on_c, 2, 62, 127
2, 108857, Note_off_c, 2, 62, 127
2, 108861, Note_on_c, 1, 61, 127
2, 108936, Note_off_c, 1, 61, 127
2, 108940, Note_on_c, 2, 62, 127
2, 109015, Note_off_c, 2, 62, 127
2, 109018, Note_on_c, 1, 61, 127
2, 109117, Note_on_c, 10, 57, 127
2, 109281, Note_off_c, 10, 57, 127
2, 109285, Note_on_c, 7, 55, 127
2, 109448, Note_off_c, 1, 61, 127
2, 109449, Note_off_c, 7, 55, 127
2, 109453, Note_on_c, 5, 53, 127
2, 109453, Note_on_c, 2, 62, 127
2, 109784, Note_off_c, 5, 53, 127
2, 109788, Note_on_c, 7, 55, 127
2, 109952, Note_off_c, 7, 55, 127
2, 109955, Note_on_c, 10, 57, 127
2, 110119, Note_off_c, 10, 57, 127
2, 110123, Note_on_c, 11, 58, 127
2, 110290, Note_off_c, 2, 62, 127
2, 110454, Note_off_c, 11, 58, 127
2, 110458, Note_on_c, 7, 55, 127
2, 110458, Note_on_c, 4, 64, 127
2, 110622, Note_off_c, 4, 64, 127
2, 110626, Note_on_c, 5, 65, 127
2, 110789, Note_off_c, 7, 55, 127
2, 110790, Note_off_c, 5, 65, 127
2, 110793, Note_on_c, 4, 52, 127
2, 110793, Note_on_c, 7, 67, 127
2, 111124, Note_off_c, 7, 67, 127
2, 111124, Note_off_c, 4, 52, 127
2, 111128, Note_on_c, 1, 61, 127
2, 111128, Note_on_c, 5, 65, 127
2, 111292, Note_off_c, 5, 65, 127
2, 111296, Note_on_c, 4, 64, 127
2, 111459, Note_off_c, 1, 61, 127
2, 111460, Note_off_c, 4, 64, 127
2, 111464, Note_on_c, 5, 65, 127
2, 111464, Note_on_c, 2, 62, 127
2, 111795, Note_off_c, 5, 65, 127
2, 111799, Note_on_c, 7, 67, 127
2, 111963, Note_off_c, 7, 67, 127
2, 111966, Note_on_c, 10, 69, 127
2, 112130, Note_off_c, 10, 69, 127
2, 112134, Note_on_c, 11, 70, 127
2, 112384, Note_off_c, 2, 62, 127
2, 112465, Note_off_c, 11, 70, 127
2, 112469, Note_on_c, 10, 69, 127
2, 112469, Note_on_c, 4, 64, 127
2, 112633, Note_off_c, 10, 69, 127
2, 112637, Note_on_c, 7, 67, 127
2, 112800, Note_off_c, 4, 64, 127
2, 112804, Note_off_c, 7, 67, 127
2, 112808, Note_on_c, 5, 65, 127
2, 112808, Note_on_c, 10, 69, 127
2, 113139, Note_off_c, 10, 69, 127
2, 113139, Note_off_c, 5, 65, 127
2, 113143, Note_on_c, 11, 70, 127
2, 113143, Note_on_c, 4, 64, 127
2, 113307, Note_off_c, 11, 70, 127
2, 113310, Note_on_c, 0, 72, 127
2, 113474, Note_off_c, 4, 64, 127
2, 113477, Note_off_c, 0, 72, 127
2, 113481, Note_on_c, 5, 65, 127
2, 113481, Note_on_c, 2, 74, 127
2, 113812, Note_off_c, 2, 74, 127
2, 113812, Note_off_c, 5, 65, 127
2, 113817, Note_on_c, 7, 67, 127
2, 113817, Note_on_c, 0, 72, 127
2, 113981, Note_off_c, 0, 72, 127
2, 113984, Note_on_c, 11, 70, 127
2, 114148, Note_off_c, 7, 67, 127
2, 114151, Note_off_c, 11, 70, 127
2, 114155, Note_on_c, 0, 72, 127
2, 114155, Note_on_c, 10, 69, 127
2, 114486, Note_off_c, 10, 69, 127
2, 114490, Note_on_c, 2, 50, 127
2, 114490, Note_on_c, 7, 67, 127
2, 114654, Note_off_c, 7, 67, 127
2, 114658, Note_on_c, 6, 66, 127
2, 114811, Note_off_c, 2, 50, 127
2, 114818, Note_off_c, 0, 72, 127
2, 114825, Note_off_c, 6, 66, 127
2, 114829, Note_on_c, 3, 51, 127
2, 114829, Note_on_c, 11, 70, 127
2, 114829, Note_on_c, 7, 67, 127
2, 115150, Note_off_c, 3, 51, 127
2, 115160, Note_off_c, 7, 67, 127
2, 115164, Note_on_c, 7, 43, 127
2, 115164, Note_on_c, 1, 61, 127
2, 115485, Note_off_c, 7, 43, 127
2, 115492, Note_off_c, 11, 70, 127
2, 115499, Note_off_c, 1, 61, 127
2, 115503, Note_on_c, 7, 43, 127
2, 115503, Note_on_c, 10, 69, 127
2, 115503, Note_on_c, 2, 62, 127
2, 115591, Note_off_c, 7, 43, 127
2, 115595, Note_on_c, 6, 42, 127
2, 115683, Note_off_c, 6, 42, 127
2, 115687, Note_on_c, 7, 43, 127
2, 115775, Note_off_c, 7, 43, 127
2, 115780, Note_on_c, 6, 42, 127
2, 115841, Note_off_c, 2, 62, 127
2, 115841, Note_off_c, 10, 69, 127
2, 115845, Note_on_c, 2, 74, 127
2, 115845, Note_on_c, 10, 69, 127
2, 116009, Note_off_c, 2, 74, 127
2, 116012, Note_on_c, 0, 72, 127
2, 116176, Note_off_c, 0, 72, 127
2, 116176, Note_off_c, 6, 42, 127
2, 116180, Note_on_c, 7, 43, 127
2, 116180, Note_on_c, 11, 70, 127
2, 116505, Note_off_c, 10, 69, 127
2, 116511, Note_off_c, 11, 70, 127
2, 116515, Note_on_c, 7, 67, 127
2, 116515, Note_on_c, 0, 72, 127
2, 116679, Note_off_c, 0, 72, 127
2, 116679, Note_off_c, 7, 67, 127
2, 116683, Note_on_c, 6, 66, 127
2, 116683, Note_on_c, 2, 74, 127
2, 116843, Note_off_c, 7, 43, 127
2, 116850, Note_off_c, 2, 74, 127
2, 116850, Note_off_c, 6, 66, 127
2, 116854, Note_on_c, 7, 67, 127
2, 116854, Note_on_c, 3, 75, 127
2, 117185, Note_off_c, 3, 75, 127
2, 117189, Note_on_c, 10, 45, 127
2, 117189, Note_on_c, 0, 72, 127
2, 117353, Note_off_c, 10, 45, 127
2, 117356, Note_on_c, 11, 46, 127
2, 117517, Note_off_c, 7, 67, 127
2, 117523, Note_off_c, 11, 46, 127
2, 117524, Note_off_c, 0, 72, 127
2, 117527, Note_on_c, 0, 48, 127
2, 117527, Note_on_c, 10, 69, 127
2, 117527, Note_on_c, 6, 66, 127
2, 117858, Note_off_c, 6, 66, 127
2, 117858, Note_off_c, 10, 69, 127
2, 117858, Note_off_c, 0, 48, 127
2, 117862, Note_on_c, 11, 46, 127
2, 117862, Note_on_c, 10, 69, 127
2, 117862, Note_on_c, 6, 78, 127
2, 118026, Note_off_c, 11, 46, 127
2, 118030, Note_on_c, 10, 45, 127
2, 118194, Note_off_c, 10, 45, 127
2, 118206, Note_on_c, 11, 46, 127
2, 118206, Note_on_c, 7, 79, 127
2, 118206, Note_on_c, 2, 74, 127
2, 118210, Note_off_c, 6, 78, 127
2, 118210, Note_off_c, 10, 69, 127
2, 118537, Note_on_c, 7, 55, 127
2, 118858, Note_off_c, 7, 55, 127
2, 118866, Note_off_c, 2, 74, 127
2, 118866, Note_off_c, 7, 79, 127
2, 118866, Note_off_c, 11, 46, 127
2, 118872, Note_on_c, 11, 58, 127
2, 118872, Note_on_c, 7, 43, 127
2, 119193, Note_off_c, 11, 58, 127
2, 119208, Note_on_c, 2, 50, 127
2, 119529, Note_off_c, 2, 50, 127
2, 119543, Note_on_c, 2, 50, 127
2, 119638, Note_off_c, 7, 43, 127
2, 119652, Note_off_c, 2, 50, 127
2, 119656, Note_on_c, 1, 49, 127
2, 119765, Note_off_c, 1, 49, 127
2, 119769, Note_on_c, 2, 50, 127
2, 119878, Note_off_c, 2, 50, 127
2, 119881, Note_on_c, 10, 45, 127
2, 119881, Note_on_c, 1, 49, 127
2, 119881, Note_on_c, 4, 64, 127
2, 120045, Note_off_c, 10, 45, 127
2, 120049, Note_on_c, 7, 43, 127
2, 120212, Note_off_c, 1, 49, 127
2, 120216, Note_off_c, 7, 43, 127
2, 120216, Note_off_c, 4, 64, 127
2, 120220, Note_on_c, 5, 41, 127
2, 120220, Note_on_c, 2, 50, 127
2, 120220, Note_on_c, 10, 69, 127
2, 120551, Note_off_c, 10, 69, 127
2, 120551, Note_off_c, 5, 41, 127
2, 120555, Note_on_c, 7, 43, 127
2, 120555, Note_on_c, 5, 65, 127
2, 120719, Note_off_c, 7, 43, 127
2, 120723, Note_on_c, 10, 45, 127
2, 120883, Note_off_c, 2, 50, 127
2, 120890, Note_off_c, 10, 45, 127
2, 120890, Note_off_c, 5, 65, 127
2, 120894, Note_on_c, 11, 46, 127
2, 120894, Note_on_c, 2, 62, 127
2, 121225, Note_off_c, 11, 46, 127
2, 121229, Note_on_c, 4, 52, 127
2, 121229, Note_on_c, 7, 43, 127
2, 121393, Note_off_c, 4, 52, 127
2, 121396, Note_on_c, 5, 53, 127
2, 121560, Note_off_c, 7, 43, 127
2, 121563, Note_off_c, 5, 53, 127
2, 121564, Note_off_c, 2, 62, 127
2, 121567, Note_on_c, 4, 40, 127
2, 121567, Note_on_c, 7, 55, 127
2, 121567, Note_on_c, 1, 61, 127
2, 121895, Note_off_c, 4, 40, 127
2, 121898, Note_off_c, 1, 61, 127
2, 121898, Note_off_c, 7, 55, 127
2, 121903, Note_on_c, 1, 49, 127
2, 121903, Note_on_c, 5, 53, 127
2, 121903, Note_on_c, 4, 64, 127
2, 122067, Note_off_c, 5, 53, 127
2, 122070, Note_on_c, 4, 52, 127
2, 122234, Note_off_c, 1, 49, 127
2, 122237, Note_off_c, 4, 52, 127
2, 122241, Note_on_c, 2, 50, 127
2, 122241, Note_on_c, 5, 53, 127
2, 122572, Note_off_c, 5, 53, 127
2, 122573, Note_off_c, 4, 64, 127
2, 122576, Note_on_c, 7, 55, 127
2, 122576, Note_on_c, 2, 62, 127
2, 122740, Note_off_c, 7, 55, 127
2, 122744, Note_on_c, 10, 57, 127
2, 122907, Note_off_c, 2, 62, 127
2, 122908, Note_off_c, 10, 57, 127
2, 122911, Note_on_c, 11, 58, 127
2, 122911, Note_on_c, 7, 67, 127
2, 123242, Note_off_c, 11, 58, 127
2, 123247, Note_on_c, 10, 57, 127
2, 123411, Note_off_c, 10, 57, 127
2, 123414, Note_on_c, 7, 55, 127
2, 123578, Note_off_c, 7, 55, 127
2, 123578, Note_off_c, 2, 50, 127
2, 123582, Note_on_c, 2, 50, 127
2, 123582, Note_on_c, 10, 57, 127
2, 123745, Note_off_c, 7, 67, 127
2, 123749, Note_on_c, 6, 66, 127
2, 123913, Note_off_c, 6, 66, 127
2, 123913, Note_off_c, 10, 57, 127
2, 123917, Note_on_c, 11, 58, 127
2, 123917, Note_on_c, 7, 67, 127
2, 124081, Note_off_c, 7, 67, 127
2, 124081, Note_off_c, 11, 58, 127
2, 124085, Note_on_c, 0, 60, 127
2, 124085, Note_on_c, 10, 69, 127
2, 124249, Note_off_c, 10, 69, 127
2, 124249, Note_off_c, 0, 60, 127
2, 124252, Note_on_c, 2, 62, 127
2, 124252, Note_on_c, 11, 70, 127
2, 124583, Note_off_c, 2, 62, 127
2, 124587, Note_on_c, 0, 60, 127
2, 124751, Note_off_c, 0, 60, 127
2, 124755, Note_on_c, 11, 58, 127
2, 124919, Note_off_c, 11, 58, 127
2, 124919, Note_off_c, 2, 50, 127
2, 124922, Note_on_c, 4, 52, 127
2, 124922, Note_on_c, 0, 60, 127
2, 125253, Note_off_c, 4, 52, 127
2, 125258, Note_on_c, 10, 57, 127
2, 125422, Note_off_c, 10, 57, 127
2, 125425, Note_on_c, 7, 55, 127
2, 125589, Note_off_c, 7, 55, 127
2, 125589, Note_off_c, 11, 70, 127
2, 125593, Note_on_c, 6, 54, 127
2, 125593, Note_on_c, 10, 69, 127
2, 125924, Note_off_c, 6, 54, 127
2, 125928, Note_on_c, 7, 55, 127
2, 126092, Note_off_c, 7, 55, 127
2, 126096, Note_on_c, 10, 57, 127
2, 126260, Note_off_c, 10, 57, 127
2, 126263, Note_on_c, 11, 46, 127
2, 126427, Note_off_c, 10, 69, 127
2, 126431, Note_on_c, 2, 62, 127
2, 126594, Note_off_c, 11, 46, 127
2, 126595, Note_off_c, 2, 62, 127
2, 126598, Note_on_c, 0, 48, 127
2, 126598, Note_on_c, 4, 64, 127
2, 126762, Note_off_c, 4, 64, 127
2, 126762, Note_off_c, 0, 48, 127
2, 126766, Note_on_c, 2, 50, 127
2, 126766, Note_on_c, 6, 66, 127
2, 126929, Note_off_c, 0, 60, 127
2, 126933, Note_off_c, 6, 66, 127
2, 126933, Note_off_c, 2, 50, 127
2, 126937, Note_on_c, 3, 51, 127
2, 126937, Note_on_c, 11, 58, 127
2, 126937, Note_on_c, 7, 67, 127
2, 127268, Note_off_c, 11, 58, 127
2, 127268, Note_off_c, 3, 51, 127
2, 127272, Note_on_c, 2, 50, 127
2, 127272, Note_on_c, 3, 63, 127
2, 127436, Note_off_c, 2, 50, 127
2, 127440, Note_on_c, 0, 48, 127
2, 127603, Note_off_c, 3, 63, 127
2, 127604, Note_off_c, 0, 48, 127
2, 127607, Note_on_c, 2, 50, 127
2, 127607, Note_on_c, 10, 57, 127
2, 127771, Note_off_c, 10, 57, 127
2, 127775, Note_on_c, 11, 58, 127
2, 127939, Note_off_c, 11, 58, 127
2, 127939, Note_off_c, 7, 67, 127
2, 127942, Note_on_c, 10, 57, 127
2, 127942, Note_on_c, 6, 66, 127
2, 128106, Note_off_c, 6, 66, 127
2, 128106, Note_off_c, 10, 57, 127
2, 128110, Note_on_c, 11, 58, 127
2, 128110, Note_on_c, 7, 67, 127
2, 128274, Note_off_c, 7, 67, 127
2, 128274, Note_off_c, 11, 58, 127
2, 128277, Note_on_c, 0, 60, 127
2, 128277, Note_on_c, 10, 69, 127
2, 128608, Note_off_c, 10, 69, 127
2, 128608, Note_off_c, 0, 60, 127
2, 128613, Note_on_c, 11, 58, 127
2, 128613, Note_on_c, 7, 67, 127
2, 128777, Note_off_c, 7, 67, 127
2, 128777, Note_off_c, 11, 58, 127
2, 128780, Note_on_c, 10, 57, 127
2, 128780, Note_on_c, 6, 66, 127
2, 128944, Note_off_c, 6, 66, 127
2, 128944, Note_off_c, 10, 57, 127
2, 128944, Note_off_c, 2, 50, 127
2, 128948, Note_on_c, 7, 43, 127
2, 128948, Note_on_c, 7, 67, 127
2, 128948, Note_on_c, 11, 58, 127
2, 129279, Note_off_c, 11, 58, 127
2, 129283, Note_on_c, 0, 60, 127
2, 129447, Note_off_c, 0, 60, 127
2, 129451, Note_on_c, 2, 62, 127
2, 129615, Note_off_c, 2, 62, 127
2, 129618, Note_on_c, 3, 63, 127
2, 129868, Note_off_c, 7, 43, 127
2, 129950, Note_off_c, 7, 67, 127
2, 129953, Note_on_c, 10, 45, 127
2, 129953, Note_on_c, 0, 72, 127
2, 130284, Note_off_c, 0, 72, 127
2, 130284, Note_off_c, 10, 45, 127
2, 130288, Note_on_c, 11, 46, 127
2, 130288, Note_on_c, 5, 65, 127
2, 130619, Note_off_c, 5, 65, 127
2, 130619, Note_off_c, 11, 46, 127
2, 130624, Note_on_c, 5, 53, 127
2, 130624, Note_on_c, 7, 67, 127
2, 130788, Note_off_c, 7, 67, 127
2, 130791, Note_on_c, 10, 69, 127
2, 130955, Note_off_c, 10, 69, 127
2, 130955, Note_off_c, 5, 53, 127
2, 130955, Note_off_c, 3, 63, 127
2, 130959, Note_on_c, 7, 55, 127
2, 130959, Note_on_c, 11, 70, 127
2, 130959, Note_on_c, 2, 62, 127
2, 131290, Note_off_c, 7, 55, 127
2, 131294, Note_on_c, 2, 50, 127
2, 131625, Note_off_c, 2, 50, 127
2, 131625, Note_off_c, 2, 62, 127
2, 131629, Note_on_c, 3, 51, 127
2, 131629, Note_on_c, 0, 60, 127
2, 131960, Note_off_c, 3, 51, 127
2, 131964, Note_on_c, 2, 50, 127
2, 132128, Note_off_c, 2, 50, 127
2, 132132, Note_on_c, 3, 51, 127
2, 132296, Note_off_c, 3, 51, 127
2, 132296, Note_off_c, 11, 70, 127
2, 132299, Note_on_c, 5, 53, 127
2, 132299, Note_on_c, 11, 70, 127
2, 132385, Note_on_c, 10, 69, 127
2, 132391, Note_off_c, 11, 70, 127
2, 132471, Note_on_c, 11, 70, 127
2, 132477, Note_off_c, 10, 69, 127
2, 132557, Note_on_c, 10, 69, 127
2, 132563, Note_off_c, 11, 70, 127
2, 132630, Note_off_c, 5, 53, 127
2, 132635, Note_on_c, 5, 41, 127
2, 132966, Note_off_c, 5, 41, 127
2, 132966, Note_off_c, 0, 60, 127
2, 132970, Note_off_c, 10, 69, 127
2, 132970, Note_on_c, 11, 46, 127
2, 132970, Note_on_c, 11, 70, 127
2, 132970, Note_on_c, 2, 62, 127
2, 133298, Note_off_c, 2, 62, 127
2, 133298, Note_off_c, 11, 70, 127
2, 133309, Note_on_c, 5, 65, 127
2, 133349, Note_off_c, 11, 46, 127
2, 133620, Note_off_c, 5, 65, 127
2, 133641, Note_on_c, 7, 67, 127
2, 133952, Note_off_c, 7, 67, 127
2, 133973, Note_on_c, 11, 58, 127
2, 134284, Note_off_c, 11, 58, 127
2, 134305, Note_on_c, 11, 58, 127
2, 134469, Note_off_c, 11, 58, 127
2, 134472, Note_on_c, 10, 57, 127
2, 134640, Note_on_c, 5, 53, 127
2, 134804, Note_off_c, 5, 53, 127
2, 134807, Note_on_c, 3, 51, 127
2, 134971, Note_off_c, 3, 51, 127
2, 134971, Note_off_c, 10, 57, 127
2, 134975, Note_on_c, 2, 50, 127
2, 134975, Note_on_c, 11, 58, 127
2, 135306, Note_off_c, 2, 50, 127
2, 135310, Note_on_c, 3, 51, 127
2, 135474, Note_off_c, 3, 51, 127
2, 135478, Note_on_c, 5, 53, 127
2, 135642, Note_off_c, 5, 53, 127
2, 135645, Note_on_c, 7, 55, 127
2, 135812, Note_off_c, 11, 58, 127
2, 135976, Note_off_c, 7, 55, 127
2, 135980, Note_on_c, 3, 51, 127
2, 135980, Note_on_c, 0, 60, 127
2, 136144, Note_off_c, 0, 60, 127
2, 136148, Note_on_c, 2, 62, 127
2, 136311, Note_off_c, 3, 51, 127
2, 136312, Note_off_c, 2, 62, 127
2, 136316, Note_on_c, 0, 48, 127
2, 136316, Note_on_c, 3, 63, 127
2, 136647, Note_off_c, 3, 63, 127
2, 136647, Note_off_c, 0, 48, 127
2, 136651, Note_on_c, 10, 57, 127
2, 136651, Note_on_c, 2, 62, 127
2, 136815, Note_off_c, 2, 62, 127
2, 136818, Note_on_c, 0, 60, 127
2, 136982, Note_off_c, 10, 57, 127
2, 136985, Note_off_c, 0, 60, 127
2, 136989, Note_on_c, 2, 62, 127
2, 136989, Note_on_c, 11, 58, 127
2, 137153, Note_off_c, 2, 62, 127
2, 137157, Note_on_c, 4, 64, 127
2, 137321, Note_off_c, 4, 64, 127
2, 137325, Note_on_c, 11, 46, 127
2, 137325, Note_on_c, 2, 62, 127
2, 137489, Note_off_c, 2, 62, 127
2, 137492, Note_on_c, 4, 64, 127
2, 137656, Note_off_c, 4, 64, 127
2, 137656, Note_off_c, 11, 46, 127
2, 137660, Note_on_c, 2, 50, 127
2, 137660, Note_on_c, 5, 65, 127
2, 137991, Note_off_c, 5, 65, 127
2, 137991, Note_off_c, 2, 50, 127
2, 137995, Note_on_c, 5, 41, 127
2, 137995, Note_on_c, 4, 64, 127
2, 138159, Note_off_c, 4, 64, 127
2, 138162, Note_on_c, 2, 62, 127
2, 138326, Note_off_c, 2, 62, 127
2, 138326, Note_off_c, 5, 41, 127
2, 138330, Note_on_c, 5, 41, 127
2, 138330, Note_on_c, 7, 67, 127
2, 138661, Note_off_c, 5, 41, 127
2, 138664, Note_off_c, 11, 58, 127
2, 138665, Note_on_c, 4, 40, 127
2, 138665, Note_on_c, 0, 60, 127
2, 138829, Note_off_c, 0, 60, 127
2, 138833, Note_on_c, 11, 58, 127
2, 138996, Note_off_c, 4, 40, 127
2, 138997, Note_off_c, 11, 58, 127
2, 139000, Note_on_c, 5, 41, 127
2, 139000, Note_on_c, 10, 57, 127
2, 139331, Note_off_c, 10, 57, 127
2, 139332, Note_off_c, 7, 67, 127
2, 139335, Note_on_c, 5, 65, 127
2, 139335, Note_on_c, 11, 58, 127
2, 139499, Note_off_c, 11, 58, 127
2, 139499, Note_off_c, 5, 65, 127
2, 139503, Note_on_c, 0, 60, 127
2, 139503, Note_on_c, 4, 64, 127
2, 139667, Note_off_c, 4, 64, 127
2, 139667, Note_off_c, 0, 60, 127
2, 139671, Note_on_c, 2, 62, 127
2, 139671, Note_on_c, 5, 65, 127
2, 139837, Note_off_c, 5, 41, 127
2, 140002, Note_off_c, 5, 65, 127
2, 140002, Note_off_c, 2, 62, 127
2, 140006, Note_on_c, 7, 43, 127
2, 140006, Note_on_c, 11, 58, 127
2, 140170, Note_off_c, 7, 43, 127
2, 140173, Note_on_c, 10, 45, 127
2, 140337, Note_off_c, 10, 45, 127
2, 140337, Note_off_c, 11, 58, 127
2, 140341, Note_on_c, 11, 46, 127
2, 140341, Note_on_c, 4, 64, 127
2, 140341, Note_on_c, 7, 55, 127
2, 140672, Note_off_c, 7, 55, 127
2, 140672, Note_off_c, 4, 64, 127
2, 140672, Note_off_c, 11, 46, 127
2, 140676, Note_on_c, 10, 45, 127
2, 140676, Note_on_c, 11, 70, 127
2, 140676, Note_on_c, 4, 64, 127
2, 140840, Note_off_c, 10, 45, 127
2, 140844, Note_on_c, 7, 43, 127
2, 141007, Note_off_c, 4, 64, 127
2, 141008, Note_off_c, 7, 43, 127
2, 141011, Note_on_c, 10, 45, 127
2, 141011, Note_on_c, 5, 65, 127
2, 141336, Note_off_c, 11, 70, 127
2, 141343, Note_on_c, 0, 72, 127
2, 141343, Note_on_c, 10, 69, 127
2, 141496, Note_off_c, 5, 65, 127
2, 141511, Note_on_c, 3, 63, 127
2, 141674, Note_off_c, 10, 69, 127
2, 141674, Note_off_c, 0, 72, 127
2, 141677, Note_off_c, 10, 45, 127
2, 141678, Note_off_c, 3, 63, 127
2, 141682, Note_on_c, 11, 46, 127
2, 141682, Note_on_c, 2, 74, 127
2, 141682, Note_on_c, 2, 62, 127
2, 142013, Note_off_c, 2, 62, 127
2, 142013, Note_off_c, 2, 74, 127
2, 142017, Note_on_c, 7, 67, 127
2, 142017, Note_on_c, 5, 65, 127
2, 142190, Note_off_c, 7, 67, 127
2, 142194, Note_on_c, 10, 69, 127
2, 142345, Note_off_c, 11, 46, 127
2, 142355, Note_on_c, 0, 60, 127
2, 142384, Note_off_c, 10, 69, 127
2, 142407, Note_off_c, 5, 65, 127
2, 142424, Note_on_c, 4, 64, 127
2, 142492, Note_on_c, 11, 70, 127
2, 142683, Note_off_c, 11, 70, 127
2, 142687, Note_on_c, 0, 48, 127
2, 142687, Note_on_c, 10, 69, 127
2, 142851, Note_off_c, 10, 69, 127
2, 142851, Note_off_c, 0, 48, 127
2, 142855, Note_on_c, 11, 46, 127
2, 142855, Note_on_c, 7, 67, 127
2, 143015, Note_off_c, 4, 64, 127
2, 143022, Note_off_c, 7, 67, 127
2, 143022, Note_off_c, 11, 46, 127
2, 143026, Note_on_c, 10, 45, 127
2, 143026, Note_on_c, 5, 65, 127
2, 143026, Note_on_c, 10, 69, 127
2, 143357, Note_off_c, 10, 45, 127
2, 143357, Note_off_c, 0, 60, 127
2, 143361, Note_on_c, 11, 46, 127
2, 143361, Note_on_c, 2, 62, 127
2, 143525, Note_off_c, 2, 62, 127
2, 143525, Note_off_c, 11, 46, 127
2, 143528, Note_on_c, 0, 48, 127
2, 143528, Note_on_c, 0, 60, 127
2, 143689, Note_off_c, 5, 65, 127
2, 143695, Note_off_c, 0, 60, 127
2, 143695, Note_off_c, 0, 48, 127
2, 143699, Note_on_c, 2, 50, 127
2, 143699, Note_on_c, 11, 58, 127
2, 144030, Note_off_c, 2, 50, 127
2, 144031, Note_off_c, 10, 69, 127
2, 144035, Note_on_c, 11, 46, 127
2, 144035, Note_on_c, 7, 67, 127
2, 144199, Note_off_c, 7, 67, 127
2, 144202, Note_on_c, 5, 65, 127
2, 144202, Note_on_c, 10, 69, 127
2, 144366, Note_off_c, 10, 69, 127
2, 144366, Note_off_c, 5, 65, 127
2, 144366, Note_off_c, 11, 46, 127
2, 144370, Note_on_c, 7, 43, 127
2, 144370, Note_on_c, 4, 64, 127
2, 144370, Note_on_c, 11, 70, 127
2, 144701, Note_off_c, 11, 70, 127
2, 144701, Note_off_c, 4, 64, 127
2, 144701, Note_off_c, 7, 43, 127
2, 144705, Note_on_c, 4, 52, 127
2, 144705, Note_on_c, 10, 69, 127
2, 144705, Note_on_c, 0, 60, 127
2, 144869, Note_off_c, 10, 69, 127
2, 144872, Note_on_c, 7, 67, 127
2, 145036, Note_off_c, 7, 67, 127
2, 145036, Note_off_c, 4, 52, 127
2, 145036, Note_off_c, 11, 58, 127
2, 145040, Note_on_c, 10, 57, 127
2, 145040, Note_on_c, 5, 53, 127
2, 145040, Note_on_c, 10, 69, 127
2, 145365, Note_off_c, 0, 60, 127
2, 145371, Note_off_c, 10, 69, 127
2, 145375, Note_on_c, 11, 70, 127
2, 145375, Note_on_c, 2, 62, 127
2, 145539, Note_off_c, 2, 62, 127
2, 145539, Note_off_c, 11, 70, 127
2, 145543, Note_on_c, 3, 63, 127
2, 145543, Note_on_c, 0, 72, 127
2, 145703, Note_off_c, 10, 57, 127
2, 145710, Note_off_c, 0, 72, 127
2, 145710, Note_off_c, 3, 63, 127
2, 145714, Note_on_c, 2, 74, 127
2, 145714, Note_on_c, 5, 65, 127
2, 145881, Note_on_c, 11, 58, 127
2, 146045, Note_off_c, 11, 58, 127
2, 146045, Note_off_c, 2, 74, 127
2, 146049, Note_on_c, 0, 60, 127
2, 146049, Note_on_c, 0, 72, 127
2, 146203, Note_off_c, 5, 65, 127
2, 146216, Note_off_c, 0, 72, 127
2, 146216, Note_off_c, 0, 60, 127
2, 146220, Note_on_c, 2, 62, 127
2, 146220, Note_on_c, 7, 67, 127
2, 146220, Note_on_c, 11, 70, 127
2, 146384, Note_off_c, 11, 70, 127
2, 146384, Note_off_c, 7, 67, 127
2, 146384, Note_off_c, 2, 62, 127
2, 146388, Note_on_c, 3, 63, 127
2, 146388, Note_on_c, 10, 69, 127
2, 146388, Note_on_c, 0, 72, 127
2, 146719, Note_off_c, 0, 72, 127
2, 146719, Note_off_c, 3, 63, 127
2, 146722, Note_off_c, 5, 53, 127
2, 146723, Note_on_c, 2, 74, 127
2, 146723, Note_on_c, 5, 65, 127
2, 146723, Note_on_c, 5, 53, 127
2, 146888, Note_off_c, 5, 65, 127
2, 146888, Note_off_c, 2, 74, 127
2, 146891, Note_on_c, 0, 72, 127
2, 146891, Note_on_c, 3, 63, 127
2, 147051, Note_off_c, 10, 69, 127
2, 147057, Note_off_c, 5, 53, 127
2, 147059, Note_off_c, 3, 63, 127
2, 147059, Note_off_c, 0, 72, 127
2, 147064, Note_on_c, 11, 70, 127
2, 147064, Note_on_c, 7, 67, 127
2, 147064, Note_on_c, 2, 62, 127
2, 147064, Note_on_c, 7, 55, 127
2, 147398, Note_off_c, 7, 55, 127
2, 147398, Note_off_c, 2, 62, 127
2, 147398, Note_off_c, 11, 70, 127
2, 147402, Note_on_c, 0, 72, 127
2, 147402, Note_on_c, 7, 55, 127
2, 147402, Note_on_c, 11, 46, 127
2, 147567, Note_off_c, 0, 72, 127
2, 147572, Note_on_c, 2, 74, 127
2, 147733, Note_off_c, 7, 67, 127
2, 147740, Note_off_c, 2, 74, 127
2, 147740, Note_off_c, 11, 46, 127
2, 147745, Note_on_c, 3, 75, 127
2, 147745, Note_on_c, 10, 45, 127
2, 148071, Note_off_c, 7, 55, 127
2, 148079, Note_off_c, 3, 75, 127
2, 148083, Note_on_c, 0, 72, 127
2, 148083, Note_on_c, 5, 77, 127
2, 148083, Note_on_c, 5, 53, 127
2, 148248, Note_off_c, 5, 77, 127
2, 148253, Note_on_c, 3, 75, 127
2, 148414, Note_off_c, 10, 45, 127
2, 148417, Note_off_c, 0, 72, 127
2, 148421, Note_off_c, 3, 75, 127
2, 148421, Note_off_c, 5, 53, 127
2, 148426, Note_on_c, 2, 74, 127
2, 148426, Note_on_c, 11, 58, 127
2, 148426, Note_on_c, 11, 46, 127
2, 148760, Note_off_c, 11, 58, 127
2, 148760, Note_off_c, 2, 74, 127
2, 148764, Note_on_c, 3, 75, 127
2, 148764, Note_on_c, 5, 65, 127
2, 148764, Note_on_c, 8, 56, 127
2, 148929, Note_off_c, 3, 75, 127
2, 148933, Note_on_c, 5, 77, 127
2, 149095, Note_off_c, 11, 46, 127
2, 149098, Note_off_c, 5, 65, 127
2, 149101, Note_off_c, 5, 77, 127
2, 149102, Note_off_c, 8, 56, 127
2, 149105, Note_on_c, 3, 63, 127
2, 149105, Note_on_c, 7, 79, 127
2, 149105, Note_on_c, 7, 55, 127
2, 149439, Note_off_c, 7, 79, 127
2, 149455, Note_on_c, 0, 48, 127
2, 149455, Note_on_c, 3, 75, 127
2, 149626, Note_off_c, 0, 48, 127
2, 149633, Note_on_c, 2, 50, 127
2, 149774, Note_off_c, 7, 55, 127
2, 149774, Note_off_c, 3, 63, 127
2, 149806, Note_off_c, 3, 75, 127
2, 149807, Note_off_c, 2, 50, 127
2, 149813, Note_on_c, 10, 57, 127
2, 149813, Note_on_c, 3, 51, 127
2, 149813, Note_on_c, 0, 72, 127
2, 149813, Note_on_c, 5, 65, 127
2, 150160, Note_off_c, 3, 51, 127
2, 150160, Note_off_c, 10, 57, 127
2, 150164, Note_on_c, 2, 50, 127
2, 150164, Note_on_c, 0, 60, 127
2, 150164, Note_on_c, 10, 81, 127
2, 150176, Note_off_c, 5, 65, 127
2, 150213, Note_off_c, 0, 72, 127
2, 150335, Note_off_c, 2, 50, 127
2, 150337, Note_on_c, 0, 48, 127
2, 150511, Note_off_c, 0, 48, 127
2, 150511, Note_off_c, 0, 60, 127
2, 150514, Note_on_c, 2, 50, 127
2, 150514, Note_on_c, 5, 53, 127
2, 150514, Note_on_c, 11, 82, 127
2, 150515, Note_off_c, 10, 81, 127
2, 150886, Note_off_c, 11, 82, 127
2, 150893, Note_on_c, 0, 48, 127
2, 150893, Note_on_c, 5, 65, 127
2, 150904, Note_off_c, 5, 53, 127
2, 150904, Note_off_c, 2, 50, 127
2, 151057, Note_off_c, 5, 65, 127
2, 151057, Note_off_c, 0, 48, 127
2, 151061, Note_on_c, 11, 46, 127
2, 151061, Note_on_c, 7, 67, 127
2, 151225, Note_off_c, 7, 67, 127
2, 151225, Note_off_c, 11, 46, 127
2, 151228, Note_on_c, 0, 48, 127
2, 151228, Note_on_c, 8, 68, 127
2, 151559, Note_off_c, 8, 68, 127
2, 151559, Note_off_c, 0, 48, 127
2, 151563, Note_on_c, 2, 50, 127
2, 151563, Note_on_c, 7, 67, 127
2, 151727, Note_off_c, 7, 67, 127
2, 151731, Note_on_c, 5, 65, 127
2, 151894, Note_off_c, 2, 50, 127
2, 151895, Note_off_c, 5, 65, 127
2, 151899, Note_on_c, 3, 51, 127
2, 151899, Note_on_c, 7, 67, 127
2, 152230, Note_off_c, 7, 67, 127
2, 152250, Note_on_c, 2, 50, 127
2, 152250, Note_on_c, 7, 79, 127
2, 152256, Note_off_c, 3, 51, 127
2, 152414, Note_off_c, 7, 79, 127
2, 152414, Note_off_c, 2, 50, 127
2, 152417, Note_on_c, 0, 48, 127
2, 152417, Note_on_c, 8, 80, 127
2, 152581, Note_off_c, 8, 80, 127
2, 152581, Note_off_c, 0, 48, 127
2, 152585, Note_on_c, 2, 50, 127
2, 152585, Note_on_c, 11, 82, 127
2, 152916, Note_off_c, 11, 82, 127
2, 152916, Note_off_c, 2, 50, 127
2, 152920, Note_on_c, 4, 52, 127
2, 152920, Note_on_c, 8, 80, 127
2, 153084, Note_off_c, 8, 80, 127
2, 153088, Note_on_c, 7, 79, 127
2, 153251, Note_off_c, 4, 52, 127
2, 153252, Note_off_c, 7, 79, 127
2, 153255, Note_on_c, 5, 53, 127
2, 153255, Note_on_c, 8, 80, 127
2, 153586, Note_off_c, 8, 80, 127
2, 153586, Note_off_c, 5, 53, 127
2, 153606, Note_on_c, 5, 77, 127
2, 153606, Note_on_c, 8, 80, 127
2, 153606, Note_on_c, 5, 41, 127
2, 153770, Note_off_c, 5, 41, 127
2, 153770, Note_off_c, 8, 80, 127
2, 153770, Note_off_c, 5, 77, 127
2, 153774, Note_on_c, 7, 79, 127
2, 153774, Note_on_c, 3, 75, 127
2, 153774, Note_on_c, 7, 43, 127
2, 153938, Note_off_c, 7, 43, 127
2, 153938, Note_off_c, 3, 75, 127
2, 153938, Note_off_c, 7, 79, 127
2, 153942, Note_on_c, 2, 74, 127
2, 153942, Note_on_c, 5, 77, 127
2, 153942, Note_on_c, 8, 44, 127
2, 154273, Note_off_c, 8, 44, 127
2, 154273, Note_off_c, 5, 77, 127
2, 154273, Note_off_c, 2, 74, 127
2, 154277, Note_on_c, 7, 79, 127
2, 154277, Note_on_c, 3, 75, 127
2, 154277, Note_on_c, 7, 43, 127
2, 154441, Note_off_c, 7, 43, 127
2, 154441, Note_off_c, 3, 75, 127
2, 154441, Note_off_c, 7, 79, 127
2, 154444, Note_on_c, 8, 80, 127
2, 154444, Note_on_c, 5, 77, 127
2, 154444, Note_on_c, 5, 41, 127
2, 154608, Note_off_c, 5, 41, 127
2, 154608, Note_off_c, 5, 77, 127
2, 154608, Note_off_c, 8, 80, 127
2, 154612, Note_on_c, 12, 71, 127
2, 154612, Note_on_c, 2, 74, 127
2, 154612, Note_on_c, 7, 43, 127
2, 154943, Note_off_c, 2, 74, 127
2, 154943, Note_off_c, 12, 71, 127
2, 154947, Note_on_c, 7, 79, 127
2, 154947, Note_on_c, 3, 75, 127
2, 154947, Note_on_c, 7, 55, 127
2, 154977, Note_off_c, 7, 43, 127
2, 155111, Note_off_c, 3, 75, 127
2, 155115, Note_on_c, 2, 74, 127
2, 155278, Note_off_c, 7, 55, 127
2, 155279, Note_off_c, 2, 74, 127
2, 155282, Note_on_c, 0, 72, 127
2, 155282, Note_on_c, 8, 56, 127
2, 155607, Note_off_c, 7, 79, 127
2, 155613, Note_off_c, 8, 56, 127
2, 155613, Note_off_c, 0, 72, 127
2, 155617, Note_on_c, 2, 74, 127
2, 155617, Note_on_c, 5, 77, 127
2, 155617, Note_on_c, 0, 48, 127
2, 155781, Note_off_c, 5, 77, 127
2, 155785, Note_on_c, 3, 75, 127
2, 155948, Note_off_c, 2, 74, 127
2, 155952, Note_off_c, 3, 75, 127
2, 155952, Note_off_c, 0, 48, 127
2, 155956, Note_on_c, 5, 65, 127
2, 155956, Note_on_c, 2, 74, 127
2, 155956, Note_on_c, 12, 47, 127
2, 156287, Note_off_c, 5, 65, 127
2, 156291, Note_on_c, 7, 67, 127
2, 156455, Note_off_c, 7, 67, 127
2, 156459, Note_on_c, 5, 65, 127
2, 156622, Note_off_c, 12, 47, 127
2, 156623, Note_off_c, 5, 65, 127
2, 156626, Note_on_c, 3, 63, 127
2, 156626, Note_on_c, 0, 48, 127
2, 156957, Note_off_c, 3, 63, 127
2, 156958, Note_off_c, 2, 74, 127
2, 156961, Note_on_c, 0, 72, 127
2, 156961, Note_on_c, 5, 65, 127
2, 157125, Note_off_c, 5, 65, 127
2, 157125, Note_off_c, 0, 72, 127
2, 157129, Note_on_c, 7, 67, 127
2, 157129, Note_on_c, 12, 71, 127
2, 157289, Note_off_c, 0, 48, 127
2, 157296, Note_off_c, 12, 71, 127
2, 157296, Note_off_c, 7, 67, 127
2, 157300, Note_on_c, 0, 72, 127
2, 157300, Note_on_c, 8, 68, 127
2, 157631, Note_off_c, 8, 68, 127
2, 157635, Note_on_c, 5, 65, 127
2, 157635, Note_on_c, 2, 50, 127
2, 157799, Note_off_c, 2, 50, 127
2, 157803, Note_on_c, 3, 51, 127
2, 157963, Note_off_c, 0, 72, 127
2, 157970, Note_off_c, 3, 51, 127
2, 157970, Note_off_c, 5, 65, 127
2, 157974, Note_on_c, 2, 62, 127
2, 157974, Note_on_c, 12, 71, 127
2, 157974, Note_on_c, 5, 53, 127
2, 158305, Note_off_c, 5, 53, 127
2, 158305, Note_off_c, 12, 71, 127
2, 158305, Note_off_c, 2, 62, 127
2, 158309, Note_on_c, 12, 71, 127
2, 158309, Note_on_c, 3, 51, 127
2, 158391, Note_on_c, 0, 72, 127
2, 158473, Note_off_c, 3, 51, 127
2, 158476, Note_on_c, 2, 74, 127
2, 158476, Note_on_c, 2, 50, 127
2, 158493, Note_off_c, 0, 72, 127
2, 158640, Note_off_c, 12, 71, 127
2, 158643, Note_off_c, 2, 50, 127
2, 158643, Note_off_c, 2, 74, 127
2, 158647, Note_on_c, 7, 67, 127
2, 158647, Note_on_c, 0, 72, 127
2, 158647, Note_on_c, 3, 51, 127
2, 158975, Note_off_c, 7, 67, 127
2, 158978, Note_off_c, 3, 51, 127
2, 158983, Note_on_c, 7, 79, 127
2, 158983, Note_on_c, 4, 52, 127
2, 159149, Note_off_c, 0, 72, 127
2, 159314, Note_off_c, 4, 52, 127
2, 159314, Note_off_c, 7, 79, 127
2, 159318, Note_on_c, 8, 80, 127
2, 159318, Note_on_c, 5, 53, 127
2, 159649, Note_off_c, 5, 53, 127
2, 159649, Note_off_c, 8, 80, 127
2, 159653, Note_on_c, 3, 63, 127
2, 159653, Note_on_c, 0, 72, 127
2, 159653, Note_on_c, 6, 54, 127
2, 159984, Note_off_c, 6, 54, 127
2, 159984, Note_off_c, 0, 72, 127
2, 159984, Note_off_c, 3, 63, 127
2, 159988, Note_on_c, 2, 62, 127
2, 159988, Note_on_c, 12, 71, 127
2, 159988, Note_on_c, 7, 55, 127
2, 160152, Note_off_c, 7, 55, 127
2, 160156, Note_on_c, 8, 56, 127
2, 160319, Note_off_c, 2, 62, 127
2, 160320, Note_off_c, 8, 56, 127
2, 160323, Note_on_c, 3, 63, 127
2, 160323, Note_on_c, 7, 55, 127
2, 160487, Note_off_c, 7, 55, 127
2, 160487, Note_off_c, 3, 63, 127
2, 160491, Note_on_c, 5, 65, 127
2, 160491, Note_on_c, 5, 53, 127
2, 160651, Note_off_c, 12, 71, 127
2, 160658, Note_off_c, 5, 53, 127
2, 160658, Note_off_c, 5, 65, 127
2, 160662, Note_on_c, 7, 67, 127
2, 160662, Note_on_c, 0, 72, 127
2, 160662, Note_on_c, 3, 51, 127
2, 160993, Note_off_c, 3, 51, 127
2, 160993, Note_off_c, 7, 67, 127
2, 160997, Note_on_c, 10, 69, 127
2, 160997, Note_on_c, 5, 53, 127
2, 161161, Note_off_c, 5, 53, 127
2, 161161, Note_off_c, 10, 69, 127
2, 161165, Note_on_c, 12, 71, 127
2, 161165, Note_on_c, 7, 55, 127
2, 161291, Note_off_c, 0, 72, 127
2, 161332, Note_off_c, 7, 55, 127
2, 161332, Note_off_c, 12, 71, 127
2, 161336, Note_on_c, 0, 72, 127
2, 161336, Note_on_c, 8, 56, 127
2, 161667, Note_off_c, 8, 56, 127
2, 161667, Note_off_c, 0, 72, 127
2, 161671, Note_on_c, 12, 71, 127
2, 161671, Note_on_c, 2, 74, 127
2, 161671, Note_on_c, 5, 53, 127
2, 161835, Note_off_c, 2, 74, 127
2, 161835, Note_off_c, 12, 71, 127
2, 161838, Note_on_c, 0, 72, 127
2, 161838, Note_on_c, 3, 75, 127
2, 162002, Note_off_c, 3, 75, 127
2, 162002, Note_off_c, 0, 72, 127
2, 162002, Note_off_c, 5, 53, 127
2, 162006, Note_on_c, 5, 77, 127
2, 162006, Note_on_c, 2, 74, 127
2, 162006, Note_on_c, 2, 50, 127
2, 162337, Note_off_c, 2, 50, 127
2, 162337, Note_off_c, 2, 74, 127
2, 162337, Note_off_c, 5, 77, 127
2, 162341, Note_on_c, 3, 75, 127
2, 162341, Note_on_c, 7, 67, 127
2, 162341, Note_on_c, 12, 59, 127
2, 162505, Note_off_c, 3, 75, 127
2, 162509, Note_on_c, 2, 74, 127
2, 162672, Note_off_c, 12, 59, 127
2, 162673, Note_off_c, 2, 74, 127
2, 162676, Note_on_c, 3, 75, 127
2, 162676, Note_on_c, 0, 60, 127
2, 162840, Note_off_c, 3, 75, 127
2, 162844, Note_on_c, 2, 74, 127
2, 163004, Note_off_c, 7, 67, 127
2, 163011, Note_off_c, 2, 74, 127
2, 163015, Note_on_c, 0, 72, 127
2, 163015, Note_on_c, 3, 75, 127
2, 163179, Note_off_c, 3, 75, 127
2, 163179, Note_off_c, 0, 72, 127
2, 163182, Note_on_c, 5, 77, 127
2, 163182, Note_on_c, 2, 74, 127
2, 163346, Note_off_c, 2, 74, 127
2, 163346, Note_off_c, 5, 77, 127
2, 163350, Note_on_c, 7, 79, 127
2, 163350, Note_on_c, 3, 75, 127
2, 163513, Note_off_c, 0, 60, 127
2, 163518, Note_on_c, 2, 62, 127
2, 163681, Note_off_c, 3, 75, 127
2, 163681, Note_off_c, 7, 79, 127
2, 163682, Note_off_c, 2, 62, 127
2, 163685, Note_on_c, 7, 67, 127
2, 163685, Note_on_c, 0, 60, 127
2, 163849, Note_off_c, 0, 60, 127
2, 163853, Note_on_c, 11, 58, 127
2, 164016, Note_off_c, 7, 67, 127
2, 164017, Note_off_c, 11, 58, 127
2, 164020, Note_on_c, 6, 66, 127
2, 164020, Note_on_c, 10, 57, 127
2, 164184, Note_off_c, 10, 57, 127
2, 164188, Note_on_c, 2, 50, 127
2, 164352, Note_off_c, 2, 50, 127
2, 164355, Note_on_c, 2, 74, 127
2, 164355, Note_on_c, 0, 48, 127
2, 164519, Note_off_c, 0, 48, 127
2, 164519, Note_off_c, 2, 74, 127
2, 164523, Note_on_c, 0, 72, 127
2, 164523, Note_on_c, 2, 50, 127
2, 164683, Note_off_c, 6, 66, 127
2, 164690, Note_off_c, 2, 50, 127
2, 164690, Note_off_c, 0, 72, 127
2, 164694, Note_on_c, 7, 67, 127
2, 164694, Note_on_c, 11, 70, 127
2, 164694, Note_on_c, 3, 51, 127
2, 164858, Note_off_c, 3, 51, 127
2, 164862, Note_on_c, 2, 50, 127
2, 165025, Note_off_c, 11, 70, 127
2, 165026, Note_off_c, 2, 50, 127
2, 165029, Note_on_c, 0, 72, 127
2, 165029, Note_on_c, 0, 48, 127
2, 165193, Note_off_c, 0, 48, 127
2, 165193, Note_off_c, 0, 72, 127
2, 165197, Note_on_c, 2, 74, 127
2, 165197, Note_on_c, 11, 46, 127
2, 165361, Note_off_c, 11, 46, 127
2, 165361, Note_off_c, 2, 74, 127
2, 165364, Note_on_c, 3, 75, 127
2, 165364, Note_on_c, 10, 45, 127
2, 165528, Note_off_c, 3, 75, 127
2, 165532, Note_on_c, 2, 74, 127
2, 165695, Note_off_c, 10, 45, 127
2, 165696, Note_off_c, 2, 74, 127
2, 165696, Note_off_c, 7, 67, 127
2, 165700, Note_on_c, 0, 72, 127
2, 165700, Note_on_c, 0, 48, 127
2, 165703, Note_on_c, 10, 69, 127
2, 165867, Note_off_c, 0, 72, 127
2, 165870, Note_off_c, 10, 69, 127
2, 165871, Note_on_c, 11, 70, 127
2, 166035, Note_off_c, 11, 70, 127
2, 166035, Note_off_c, 0, 48, 127
2, 166038, Note_on_c, 10, 69, 127
2, 166038, Note_on_c, 2, 50, 127
2, 166042, Note_on_c, 0, 72, 127
2, 166369, Note_off_c, 2, 50, 127
2, 166369, Note_off_c, 10, 69, 127
2, 166373, Note_off_c, 0, 72, 127
2, 166373, Note_on_c, 11, 70, 127
2, 166373, Note_on_c, 6, 78, 127
2, 166373, Note_on_c, 2, 38, 127
2, 166537, Note_off_c, 11, 70, 127
2, 166541, Note_on_c, 10, 69, 127
2, 166704, Note_off_c, 6, 78, 127
2, 166708, Note_off_c, 10, 69, 127
2, 166708, Note_off_c, 2, 38, 127
2, 166712, Note_on_c, 11, 70, 127
2, 166712, Note_on_c, 7, 79, 127
2, 166712, Note_on_c, 7, 43, 127
2, 166876, Note_off_c, 7, 79, 127
2, 166876, Note_off_c, 11, 70, 127
2, 166879, Note_on_c, 2, 62, 127
2, 167043, Note_off_c, 2, 62, 127
2, 167043, Note_off_c, 7, 43, 127
2, 167047, Note_on_c, 4, 64, 127
2, 167047, Note_on_c, 7, 55, 127
2, 167211, Note_off_c, 7, 55, 127
2, 167211, Note_off_c, 4, 64, 127
2, 167215, Note_on_c, 6, 66, 127
2, 167215, Note_on_c, 10, 57, 127
2, 167379, Note_off_c, 10, 57, 127
2, 167379, Note_off_c, 6, 66, 127
2, 167382, Note_on_c, 7, 67, 127
2, 167382, Note_on_c, 11, 58, 127
2, 167550, Note_on_c, 2, 74, 127
2, 167713, Note_off_c, 11, 58, 127
2, 167714, Note_off_c, 2, 74, 127
2, 167717, Note_on_c, 0, 72, 127
2, 167717, Note_on_c, 10, 57, 127
2, 167881, Note_off_c, 10, 57, 127
2, 167881, Note_off_c, 0, 72, 127
2, 167885, Note_on_c, 11, 70, 127
2, 167885, Note_on_c, 7, 55, 127
2, 168049, Note_off_c, 7, 55, 127
2, 168049, Note_off_c, 11, 70, 127
2, 168052, Note_on_c, 10, 69, 127
2, 168052, Note_on_c, 2, 62, 127
2, 168185, Note_off_c, 7, 67, 127
2, 168220, Note_on_c, 7, 67, 127
2, 168383, Note_off_c, 2, 62, 127
2, 168384, Note_off_c, 7, 67, 127
2, 168388, Note_on_c, 5, 65, 127
2, 168388, Note_on_c, 2, 50, 127
2, 168552, Note_off_c, 2, 50, 127
2, 168552, Note_off_c, 5, 65, 127
2, 168555, Note_on_c, 3, 63, 127
2, 168555, Note_on_c, 3, 51, 127
2, 168719, Note_off_c, 3, 51, 127
2, 168719, Note_off_c, 3, 63, 127
2, 168723, Note_on_c, 2, 62, 127
2, 168723, Note_on_c, 5, 53, 127
2, 168855, Note_off_c, 10, 69, 127
2, 168890, Note_on_c, 11, 70, 127
2, 169054, Note_off_c, 11, 70, 127
2, 169054, Note_off_c, 5, 53, 127
2, 169058, Note_on_c, 0, 72, 127
2, 169058, Note_on_c, 3, 51, 127
2, 169222, Note_off_c, 3, 51, 127
2, 169222, Note_off_c, 0, 72, 127
2, 169226, Note_on_c, 2, 74, 127
2, 169226, Note_on_c, 2, 50, 127
2, 169390, Note_off_c, 2, 50, 127
2, 169390, Note_off_c, 2, 74, 127
2, 169393, Note_on_c, 7, 67, 127
2, 169393, Note_on_c, 3, 39, 127
2, 169526, Note_off_c, 2, 62, 127
2, 169561, Note_on_c, 11, 58, 127
2, 169724, Note_off_c, 3, 39, 127
2, 169725, Note_off_c, 11, 58, 127
2, 169728, Note_on_c, 0, 60, 127
2, 169728, Note_on_c, 3, 51, 127
2, 169892, Note_off_c, 3, 51, 127
2, 169892, Note_off_c, 0, 60, 127
2, 169896, Note_on_c, 2, 62, 127
2, 169896, Note_on_c, 5, 53, 127
2, 170060, Note_off_c, 5, 53, 127
2, 170060, Note_off_c, 2, 62, 127
2, 170063, Note_on_c, 3, 63, 127
2, 170063, Note_on_c, 7, 55, 127
2, 170196, Note_off_c, 7, 67, 127
2, 170231, Note_on_c, 11, 70, 127
2, 170394, Note_off_c, 7, 55, 127
2, 170395, Note_off_c, 11, 70, 127
2, 170399, Note_on_c, 8, 68, 127
2, 170399, Note_on_c, 5, 53, 127
2, 170563, Note_off_c, 5, 53, 127
2, 170563, Note_off_c, 8, 68, 127
2, 170566, Note_on_c, 7, 67, 127
2, 170566, Note_on_c, 3, 51, 127
2, 170730, Note_off_c, 3, 51, 127
2, 170730, Note_off_c, 7, 67, 127
2, 170734, Note_on_c, 5, 65, 127
2, 170734, Note_on_c, 11, 58, 127
2, 170866, Note_off_c, 3, 63, 127
2, 170901, Note_on_c, 3, 63, 127
2, 171065, Note_off_c, 3, 63, 127
2, 171065, Note_off_c, 11, 58, 127
2, 171069, Note_on_c, 2, 62, 127
2, 171069, Note_on_c, 11, 46, 127
2, 171233, Note_off_c, 11, 46, 127
2, 171233, Note_off_c, 2, 62, 127
2, 171237, Note_on_c, 0, 60, 127
2, 171237, Note_on_c, 0, 48, 127
2, 171401, Note_off_c, 0, 48, 127
2, 171401, Note_off_c, 0, 60, 127
2, 171404, Note_on_c, 11, 58, 127
2, 171404, Note_on_c, 2, 50, 127
2, 171537, Note_off_c, 5, 65, 127
2, 171572, Note_on_c, 7, 67, 127
2, 171735, Note_off_c, 2, 50, 127
2, 171736, Note_off_c, 7, 67, 127
2, 171739, Note_on_c, 8, 68, 127
2, 171739, Note_on_c, 0, 48, 127
2, 171903, Note_off_c, 0, 48, 127
2, 171903, Note_off_c, 8, 68, 127
2, 171907, Note_on_c, 11, 70, 127
2, 171907, Note_on_c, 11, 46, 127
2, 172071, Note_off_c, 11, 46, 127
2, 172071, Note_off_c, 11, 70, 127
2, 172074, Note_on_c, 3, 63, 127
2, 172074, Note_on_c, 0, 36, 127
2, 172207, Note_off_c, 11, 58, 127
2, 172242, Note_on_c, 7, 55, 127
2, 172405, Note_off_c, 0, 36, 127
2, 172406, Note_off_c, 7, 55, 127
2, 172410, Note_on_c, 10, 57, 127
2, 172410, Note_on_c, 0, 48, 127
2, 172574, Note_off_c, 0, 48, 127
2, 172574, Note_off_c, 10, 57, 127
2, 172577, Note_on_c, 12, 59, 127
2, 172577, Note_on_c, 2, 50, 127
2, 172741, Note_off_c, 2, 50, 127
2, 172741, Note_off_c, 12, 59, 127
2, 172745, Note_on_c, 0, 60, 127
2, 172745, Note_on_c, 3, 51, 127
2, 172877, Note_off_c, 3, 63, 127
2, 172912, Note_on_c, 7, 67, 127
2, 173076, Note_off_c, 7, 67, 127
2, 173076, Note_off_c, 3, 51, 127
2, 173080, Note_on_c, 5, 65, 127
2, 173080, Note_on_c, 2, 50, 127
2, 173244, Note_off_c, 2, 50, 127
2, 173244, Note_off_c, 5, 65, 127
2, 173247, Note_on_c, 3, 63, 127
2, 173247, Note_on_c, 0, 48, 127
2, 173411, Note_off_c, 0, 48, 127
2, 173411, Note_off_c, 3, 63, 127
2, 173415, Note_on_c, 2, 62, 127
2, 173415, Note_on_c, 7, 55, 127
2, 173548, Note_off_c, 0, 60, 127
2, 173583, Note_on_c, 0, 60, 127
2, 173746, Note_off_c, 7, 55, 127
2, 173747, Note_off_c, 0, 60, 127
2, 173750, Note_on_c, 11, 58, 127
2, 173750, Note_on_c, 7, 43, 127
2, 173914, Note_off_c, 7, 43, 127
2, 173914, Note_off_c, 11, 58, 127
2, 173918, Note_on_c, 10, 57, 127
2, 173918, Note_on_c, 10, 45, 127
2, 174082, Note_off_c, 10, 45, 127
2, 174082, Note_off_c, 10, 57, 127
2, 174085, Note_on_c, 7, 55, 127
2, 174085, Note_on_c, 11, 46, 127
2, 174218, Note_off_c, 2, 62, 127
2, 174253, Note_on_c, 2, 62, 127
2, 174416, Note_off_c, 11, 46, 127
2, 174417, Note_off_c, 2, 62, 127
2, 174421, Note_on_c, 4, 64, 127
2, 174421, Note_on_c, 10, 45, 127
2, 174585, Note_off_c, 10, 45, 127
2, 174585, Note_off_c, 4, 64, 127
2, 174588, Note_on_c, 6, 66, 127
2, 174588, Note_on_c, 7, 43, 127
2, 174752, Note_off_c, 7, 43, 127
2, 174752, Note_off_c, 6, 66, 127
2, 174756, Note_on_c, 7, 67, 127
2, 174756, Note_on_c, 5, 53, 127
2, 174888, Note_off_c, 7, 55, 127
2, 174923, Note_off_c, 5, 53, 127
2, 174923, Note_on_c, 7, 55, 127
2, 174927, Note_on_c, 3, 51, 127
2, 175029, Note_off_c, 3, 51, 127
2, 175033, Note_on_c, 5, 53, 127
2, 175090, Note_off_c, 7, 55, 127
2, 175094, Note_on_c, 10, 57, 127
2, 175139, Note_off_c, 5, 53, 127
2, 175142, Note_on_c, 3, 51, 127
2, 175244, Note_off_c, 3, 51, 127
2, 175248, Note_on_c, 5, 53, 127
2, 175261, Note_off_c, 10, 57, 127
2, 175265, Note_on_c, 11, 58, 127
2, 175354, Note_off_c, 5, 53, 127
2, 175358, Note_on_c, 3, 51, 127
2, 175429, Note_off_c, 11, 58, 127
2, 175433, Note_on_c, 0, 60, 127
2, 175464, Note_off_c, 3, 51, 127
2, 175467, Note_on_c, 5, 53, 127
2, 175569, Note_off_c, 5, 53, 127
2, 175573, Note_on_c, 3, 51, 127
2, 175604, Note_off_c, 7, 67, 127
2, 175604, Note_on_c, 11, 70, 127
2, 175679, Note_off_c, 3, 51, 127
2, 175683, Note_on_c, 5, 53, 127
2, 175768, Note_off_c, 0, 60, 127
2, 175771, Note_off_c, 11, 70, 127
2, 175775, Note_on_c, 10, 69, 127
2, 175775, Note_on_c, 1, 61, 127
2, 175789, Note_off_c, 5, 53, 127
2, 175792, Note_on_c, 3, 51, 127
2, 175894, Note_off_c, 3, 51, 127
2, 175898, Note_on_c, 5, 53, 127
2, 175942, Note_off_c, 10, 69, 127
2, 175946, Note_on_c, 7, 67, 127
2, 176004, Note_off_c, 5, 53, 127
2, 176007, Note_on_c, 3, 51, 127
2, 176110, Note_off_c, 1, 61, 127
2, 176113, Note_off_c, 3, 51, 127
2, 176113, Note_off_c, 7, 67, 127
2, 176117, Note_on_c, 2, 62, 127
2, 176117, Note_on_c, 6, 66, 127
2, 176117, Note_on_c, 2, 50, 127
2, 176452, Note_off_c, 6, 66, 127
2, 176452, Note_off_c, 2, 62, 127
2, 176471, Note_on_c, 2, 74, 127
2, 176787, Note_off_c, 2, 50, 127
2, 176809, Note_off_c, 2, 74, 127
2, 176813, Note_on_c, 3, 75, 127
2, 177148, Note_off_c, 3, 75, 127
2, 177152, Note_on_c, 7, 67, 127
2, 177487, Note_off_c, 7, 67, 127
2, 177491, Note_on_c, 6, 66, 127
2, 177829, Note_on_c, 2, 62, 127
2, 177829, Note_on_c, 2, 74, 127
2, 177996, Note_off_c, 2, 74, 127
2, 178000, Note_on_c, 0, 72, 127
2, 178147, Note_off_c, 2, 62, 127
2, 178161, Note_off_c, 6, 66, 127
2, 178167, Note_off_c, 0, 72, 127
2, 178171, Note_on_c, 3, 63, 127
2, 178171, Note_on_c, 11, 70, 127
2, 178171, Note_on_c, 7, 67, 127
2, 178489, Note_off_c, 3, 63, 127
2, 178509, Note_off_c, 11, 70, 127
2, 178513, Note_on_c, 7, 55, 127
2, 178513, Note_on_c, 0, 72, 127
2, 178680, Note_off_c, 0, 72, 127
2, 178684, Note_on_c, 2, 74, 127
2, 178831, Note_off_c, 7, 55, 127
2, 178844, Note_off_c, 7, 67, 127
2, 178851, Note_off_c, 2, 74, 127
2, 178855, Note_on_c, 6, 54, 127
2, 178855, Note_on_c, 3, 75, 127
2, 179190, Note_off_c, 3, 75, 127
2, 179194, Note_on_c, 2, 50, 127
2, 179194, Note_on_c, 10, 69, 127
2, 179194, Note_on_c, 2, 74, 127
2, 179361, Note_off_c, 10, 69, 127
2, 179365, Note_on_c, 11, 70, 127
2, 179525, Note_off_c, 6, 54, 127
2, 179529, Note_off_c, 2, 74, 127
2, 179532, Note_off_c, 11, 70, 127
2, 179532, Note_off_c, 2, 50, 127
2, 179536, Note_on_c, 7, 55, 127
2, 179536, Note_on_c, 3, 51, 127
2, 179536, Note_on_c, 0, 72, 127
2, 179871, Note_off_c, 0, 72, 127
2, 179871, Note_off_c, 3, 51, 127
2, 179874, Note_on_c, 7, 43, 127
2, 179874, Note_on_c, 3, 75, 127
2, 179874, Note_on_c, 11, 70, 127
2, 180041, Note_off_c, 11, 70, 127
2, 180045, Note_on_c, 10, 69, 127
2, 180137, Note_off_c, 7, 55, 127
2, 180212, Note_off_c, 3, 75, 127
2, 180216, Note_off_c, 10, 69, 127
2, 180216, Note_off_c, 7, 43, 127
2, 180220, Note_on_c, 6, 42, 127
2, 180220, Note_on_c, 2, 74, 127
2, 180220, Note_on_c, 10, 69, 127
2, 180555, Note_off_c, 2, 74, 127
2, 180558, Note_on_c, 10, 57, 127
2, 180678, Note_off_c, 10, 69, 127
2, 180725, Note_off_c, 10, 57, 127
2, 180729, Note_on_c, 11, 58, 127
2, 180890, Note_off_c, 6, 42, 127
2, 180896, Note_off_c, 11, 58, 127
2, 180900, Note_on_c, 10, 45, 127
2, 180900, Note_on_c, 0, 60, 127
2, 181235, Note_off_c, 0, 60, 127
2, 181239, Note_on_c, 11, 58, 127
2, 181406, Note_off_c, 11, 58, 127
2, 181410, Note_on_c, 10, 57, 127
2, 181570, Note_off_c, 10, 45, 127
2, 181577, Note_off_c, 10, 57, 127
2, 181581, Note_on_c, 2, 38, 127
2, 181581, Note_on_c, 11, 58, 127
2, 181919, Note_on_c, 2, 50, 127
2, 181919, Note_on_c, 6, 66, 127
2, 182073, Note_off_c, 2, 38, 127
2, 182086, Note_off_c, 6, 66, 127
2, 182086, Note_off_c, 2, 50, 127
2, 182090, Note_on_c, 0, 48, 127
2, 182090, Note_on_c, 7, 67, 127
2, 182257, Note_off_c, 7, 67, 127
2, 182257, Note_off_c, 0, 48, 127
2, 182261, Note_on_c, 11, 46, 127
2, 182261, Note_on_c, 10, 69, 127
2, 182596, Note_off_c, 10, 69, 127
2, 182596, Note_off_c, 11, 46, 127
2, 182600, Note_on_c, 0, 48, 127
2, 182600, Note_on_c, 7, 67, 127
2, 182767, Note_off_c, 7, 67, 127
2, 182767, Note_off_c, 0, 48, 127
2, 182771, Note_on_c, 2, 50, 127
2, 182771, Note_on_c, 6, 66, 127
2, 182938, Note_off_c, 6, 66, 127
2, 182938, Note_off_c, 2, 50, 127
2, 182942, Note_on_c, 3, 51, 127
2, 182942, Note_on_c, 7, 67, 127
2, 183280, Note_off_c, 11, 58, 127
2, 183281, Note_on_c, 12, 59, 127
2, 183281, Note_on_c, 2, 74, 127
2, 183448, Note_off_c, 2, 74, 127
2, 183448, Note_off_c, 12, 59, 127
2, 183452, Note_on_c, 10, 57, 127
2, 183452, Note_on_c, 3, 75, 127
2, 183619, Note_off_c, 3, 75, 127
2, 183619, Note_off_c, 10, 57, 127
2, 183623, Note_on_c, 7, 55, 127
2, 183623, Note_on_c, 5, 77, 127
2, 183958, Note_off_c, 5, 77, 127
2, 183958, Note_off_c, 7, 55, 127
2, 183961, Note_on_c, 10, 57, 127
2, 183961, Note_on_c, 3, 75, 127
2, 184128, Note_off_c, 3, 75, 127
2, 184128, Note_off_c, 10, 57, 127
2, 184132, Note_on_c, 12, 59, 127
2, 184132, Note_on_c, 2, 74, 127
2, 184299, Note_off_c, 2, 74, 127
2, 184299, Note_off_c, 12, 59, 127
2, 184303, Note_on_c, 0, 60, 127
2, 184303, Note_on_c, 3, 75, 127
2, 184470, Note_off_c, 3, 75, 127
2, 184474, Note_on_c, 2, 74, 127
2, 184641, Note_off_c, 2, 74, 127
2, 184645, Note_off_c, 3, 51, 127
2, 184645, Note_on_c, 3, 51, 127
2, 184645, Note_on_c, 3, 75, 127
2, 184812, Note_off_c, 3, 51, 127
2, 184816, Note_on_c, 2, 50, 127
2, 184983, Note_off_c, 2, 50, 127
2, 184987, Note_on_c, 0, 48, 127
2, 185154, Note_off_c, 3, 75, 127
2, 185158, Note_on_c, 2, 74, 127
2, 185264, Note_off_c, 0, 60, 127
2, 185325, Note_off_c, 2, 74, 127
2, 185325, Note_off_c, 0, 48, 127
2, 185329, Note_on_c, 2, 50, 127
2, 185329, Note_on_c, 0, 72, 127
2, 185496, Note_off_c, 0, 72, 127
2, 185496, Note_off_c, 2, 50, 127
2, 185500, Note_on_c, 3, 51, 127
2, 185500, Note_on_c, 11, 70, 127
2, 185657, Note_off_c, 7, 67, 127
2, 185667, Note_off_c, 11, 70, 127
2, 185667, Note_off_c, 3, 51, 127
2, 185671, Note_on_c, 6, 42, 127
2, 185671, Note_on_c, 10, 69, 127
2, 186006, Note_off_c, 6, 42, 127
2, 186010, Note_on_c, 10, 45, 127
2, 186010, Note_on_c, 2, 74, 127
2, 186177, Note_off_c, 10, 45, 127
2, 186181, Note_on_c, 7, 43, 127
2, 186328, Note_off_c, 2, 74, 127
2, 186341, Note_off_c, 10, 69, 127
2, 186348, Note_off_c, 7, 43, 127
2, 186352, Note_on_c, 6, 42, 127
2, 186352, Note_on_c, 3, 75, 127
2, 186670, Note_off_c, 3, 75, 127
2, 186690, Note_off_c, 6, 42, 127
2, 186694, Note_on_c, 7, 43, 127
2, 186694, Note_on_c, 3, 75, 127
2, 186694, Note_on_c, 7, 67, 127
2, 186861, Note_off_c, 3, 75, 127
2, 186861, Note_off_c, 7, 43, 127
2, 186865, Note_on_c, 10, 45, 127
2, 186865, Note_on_c, 2, 74, 127
2, 187012, Note_off_c, 7, 67, 127
2, 187032, Note_off_c, 2, 74, 127
2, 187032, Note_off_c, 10, 45, 127
2, 187036, Note_on_c, 2, 38, 127
2, 187036, Note_on_c, 6, 66, 127
2, 187036, Note_on_c, 0, 72, 127
2, 187381, Note_off_c, 0, 72, 127
2, 187381, Note_off_c, 2, 38, 127
2, 187385, Note_on_c, 2, 50, 127
2, 187385, Note_on_c, 2, 74, 127
2, 187556, Note_off_c, 2, 74, 127
2, 187556, Note_off_c, 2, 50, 127
2, 187559, Note_on_c, 0, 48, 127
2, 187559, Note_on_c, 3, 75, 127
2, 187726, Note_off_c, 6, 66, 127
2, 187733, Note_off_c, 3, 75, 127
2, 187733, Note_off_c, 0, 48, 127
2, 187737, Note_on_c, 11, 46, 127
2, 187737, Note_on_c, 2, 74, 127
2, 187737, Note_on_c, 7, 67, 127
2, 188082, Note_off_c, 2, 74, 127
2, 188082, Note_off_c, 11, 46, 127
2, 188086, Note_on_c, 0, 48, 127
2, 188086, Note_on_c, 4, 76, 127
2, 188257, Note_off_c, 4, 76, 127
2, 188257, Note_off_c, 0, 48, 127
2, 188260, Note_on_c, 2, 50, 127
2, 188260, Note_on_c, 6, 78, 127
2, 188431, Note_off_c, 6, 78, 127
2, 188431, Note_off_c, 2, 50, 127
2, 188435, Note_on_c, 3, 51, 127
2, 188435, Note_on_c, 7, 79, 127
2, 188780, Note_off_c, 7, 79, 127
2, 188780, Note_off_c, 3, 51, 127
2, 188780, Note_off_c, 7, 67, 127
2, 188783, Note_on_c, 0, 48, 127
2, 188783, Note_on_c, 10, 69, 127
2, 188783, Note_on_c, 6, 78, 127
2, 188954, Note_off_c, 6, 78, 127
2, 188954, Note_off_c, 10, 69, 127
2, 188958, Note_on_c, 11, 70, 127
2, 188958, Note_on_c, 7, 79, 127
2, 189128, Note_off_c, 0, 48, 127
2, 189129, Note_off_c, 7, 79, 127
2, 189129, Note_off_c, 11, 70, 127
2, 189132, Note_on_c, 10, 45, 127
2, 189132, Note_on_c, 10, 81, 127
2, 189132, Note_on_c, 0, 72, 127
2, 189477, Note_off_c, 0, 72, 127
2, 189477, Note_off_c, 10, 45, 127
2, 189481, Note_on_c, 6, 54, 127
2, 189481, Note_on_c, 11, 70, 127
2, 189652, Note_off_c, 11, 70, 127
2, 189656, Note_on_c, 10, 69, 127
2, 189826, Note_off_c, 6, 54, 127
2, 189827, Note_off_c, 10, 69, 127
2, 189830, Note_on_c, 7, 55, 127
2, 189830, Note_on_c, 11, 70, 127
2, 190185, Note_off_c, 7, 55, 127
2, 190185, Note_off_c, 10, 81, 127
2, 190189, Note_on_c, 5, 53, 127
2, 190189, Note_on_c, 2, 62, 127
2, 190189, Note_on_c, 2, 74, 127
2, 190544, Note_off_c, 2, 74, 127
2, 190544, Note_off_c, 2, 62, 127
2, 190544, Note_off_c, 5, 53, 127
2, 190548, Note_on_c, 3, 51, 127
2, 190548, Note_on_c, 3, 63, 127
2, 190548, Note_on_c, 7, 79, 127
2, 190910, Note_off_c, 7, 79, 127
2, 190910, Note_off_c, 3, 63, 127
2, 190910, Note_off_c, 3, 51, 127
2, 190910, Note_off_c, 11, 70, 127
2, 190914, Note_on_c, 2, 50, 127
2, 190914, Note_on_c, 7, 55, 127
2, 190914, Note_on_c, 12, 71, 127
2, 190914, Note_on_c, 5, 77, 127
2, 190914, Note_on_c, 2, 74, 127
2, 191276, Note_off_c, 2, 74, 127
2, 191276, Note_off_c, 5, 77, 127
2, 191276, Note_off_c, 12, 71, 127
2, 191276, Note_off_c, 7, 55, 127
2, 191276, Note_off_c, 2, 50, 127
2, 191280, Note_on_c, 6, 54, 127
2, 191280, Note_on_c, 0, 48, 127
2, 191280, Note_on_c, 10, 69, 127
2, 191280, Note_on_c, 3, 75, 127
2, 191280, Note_on_c, 0, 72, 127
2, 191656, Note_off_c, 0, 72, 127
2, 191656, Note_off_c, 3, 75, 127
2, 191656, Note_off_c, 0, 48, 127
2, 191660, Note_on_c, 11, 46, 127
2, 191660, Note_on_c, 2, 74, 127
2, 192028, Note_off_c, 10, 69, 127
2, 192028, Note_off_c, 6, 54, 127
2, 192036, Note_off_c, 2, 74, 127
2, 192036, Note_off_c, 11, 46, 127
2, 192039, Note_on_c, 10, 45, 127
2, 192039, Note_on_c, 7, 55, 127
2, 192039, Note_on_c, 0, 72, 127
2, 192039, Note_on_c, 7, 67, 127
2, 192039, Note_on_c, 2, 62, 127
2, 192432, Note_off_c, 0, 72, 127
2, 192432, Note_off_c, 10, 45, 127
2, 192436, Note_on_c, 7, 43, 127
2, 192436, Note_on_c, 11, 70, 127
2, 192822, Note_off_c, 2, 62, 127
2, 192822, Note_off_c, 7, 67, 127
2, 192822, Note_off_c, 7, 55, 127
2, 192829, Note_off_c, 11, 70, 127
2, 192829, Note_off_c, 7, 43, 127
2, 192833, Note_on_c, 0, 48, 127
2, 192833, Note_on_c, 10, 69, 127
2, 192833, Note_on_c, 7, 67, 127
2, 192833, Note_on_c, 3, 63, 127
2, 192833, Note_on_c, 0, 60, 127
2, 193250, Note_off_c, 0, 60, 127
2, 193250, Note_off_c, 0, 48, 127
2, 193253, Note_on_c, 10, 45, 127
2, 193253, Note_on_c, 10, 57, 127
2, 193458, Note_off_c, 10, 57, 127
2, 193462, Note_on_c, 11, 58, 127
2, 193664, Note_off_c, 3, 63, 127
2, 193664, Note_off_c, 7, 67, 127
2, 193664, Note_off_c, 10, 69, 127
2, 193670, Note_off_c, 11, 58, 127
2, 193670, Note_off_c, 10, 45, 127
2, 193674, Note_on_c, 2, 50, 127
2, 193674, Note_on_c, 10, 69, 127
2, 193674, Note_on_c, 6, 66, 127
2, 193674, Note_on_c, 2, 62, 127
2, 193674, Note_on_c, 0, 60, 127
2, 194169, Note_off_c, 0, 60, 127
2, 194173, Note_on_c, 2, 38, 127
2, 194173, Note_on_c, 11, 58, 127
2, 194419, Note_off_c, 11, 58, 127
2, 194423, Note_on_c, 10, 57, 127
2, 194662, Note_off_c, 2, 62, 127
2, 194662, Note_off_c, 10, 69, 127
2, 194668, Note_off_c, 2, 38, 127
2, 194669, Note_off_c, 10, 57, 127
2, 194673, Note_on_c, 7, 43, 127
2, 194689, Note_off_c, 6, 66, 127
2, 194768, Note_on_c, 7, 55, 127
2, 194864, Note_on_c, 12, 59, 127
2, 194960, Note_on_c, 2, 62, 127
2, 195056, Note_on_c, 7, 67, 127
2, 198119, Note_off_c, 12, 59, 127
2, 198119, Note_off_c, 7, 55, 127
2, 198120, Note_off_c, 7, 67, 127
2, 198120, Note_off_c, 2, 62, 127
2, 198120, Note_off_c, 7, 43, 127
2, 198120, Note_off_c, 2, 50, 127
2, 201216, End_track
3, 0, Start_track
3, 0, Title_t, "MIDI"
3, 1536, End_track
0, 0, End_of_file
