0, 0, Header, 1, 3, 384
1, 0, Start_track
1, 0, Tempo, 500000
1, 0, Time_signature, 4, 2, 24, 8
1, 110592, End_track
2, 0, Start_track
2, 0, Text_t, "harpsichord: John Sankey"
2, 0, Program_c, 0, 6
2, 0, Pitch_bend_c, 0, 8192
2, 0, Program_c, 1, 6
2, 0, Pitch_bend_c, 1, 7792
2, 0, Program_c, 2, 6
2, 0, Pitch_bend_c, 2, 7876
2, 0, Program_c, 3, 6
2, 0, Pitch_bend_c, 3, 7952
2, 0, Program_c, 4, 6
2, 0, Pitch_bend_c, 4, 7792
2, 0, Program_c, 5, 6
2, 0, Pitch_bend_c, 5, 8112
2, 0, Program_c, 6, 6
2, 0, Pitch_bend_c, 6, 7712
2, 0, Program_c, 7, 6
2, 0, Pitch_bend_c, 7, 8037
2, 0, Program_c, 8, 6
2, 0, Pitch_bend_c, 8, 7872
2, 0, Program_c, 10, 6
2, 0, Pitch_bend_c, 10, 7712
2, 0, Program_c, 11, 6
2, 0, Pitch_bend_c, 11, 8032
2, 0, Program_c, 12, 6
2, 0, Pitch_bend_c, 12, 7872
2, 0, Title_t, "Track 1"
2, 96, Note_on_c, 7, 55, 127
2, 96, Note_on_c, 2, 74, 127
2, 154, Note_off_c, 2, 74, 127
2, 156, Note_on_c, 0, 72, 127
2, 214, Note_off_c, 0, 72, 127
2, 216, Note_on_c, 2, 74, 127
2, 336, Note_on_c, 12, 59, 127
2, 574, Note_off_c, 12, 59, 127
2, 574, Note_off_c, 2, 74, 127
2, 576, Note_on_c, 2, 62, 127
2, 576, Note_on_c, 2, 74, 127
2, 814, Note_off_c, 2, 62, 127
2, 816, Note_on_c, 7, 67, 127
2, 1054, Note_off_c, 7, 67, 127
2, 1054, Note_off_c, 2, 74, 127
2, 1055, Note_off_c, 7, 55, 127
2, 1056, Note_on_c, 10, 57, 127
2, 1056, Note_on_c, 2, 74, 127
2, 1296, Note_on_c, 6, 66, 127
2, 1531, Note_off_c, 10, 57, 127
2, 1533, Note_off_c, 6, 66, 127
2, 1533, Note_off_c, 2, 74, 127
2, 1535, Note_on_c, 12, 59, 127
2, 1535, Note_on_c, 2, 74, 127
2, 1593, Note_off_c, 2, 74, 127
2, 1611, Note_on_c, 0, 72, 127
2, 1669, Note_off_c, 0, 72, 127
2, 1687, Note_on_c, 2, 74, 127
2, 1777, Note_on_c, 7, 67, 127
2, 1987, Note_off_c, 2, 74, 127
2, 2012, Note_off_c, 12, 59, 127
2, 2014, Note_off_c, 7, 67, 127
2, 2016, Note_on_c, 7, 55, 127
2, 2016, Note_on_c, 7, 79, 127
2, 2254, Note_off_c, 7, 79, 127
2, 2254, Note_off_c, 7, 55, 127
2, 2256, Note_on_c, 10, 57, 127
2, 2256, Note_on_c, 6, 78, 127
2, 2494, Note_off_c, 6, 78, 127
2, 2494, Note_off_c, 10, 57, 127
2, 2496, Note_on_c, 12, 59, 127
2, 2496, Note_on_c, 7, 79, 127
2, 2734, Note_off_c, 12, 59, 127
2, 2736, Note_on_c, 0, 60, 127
2, 2974, Note_off_c, 0, 60, 127
2, 2974, Note_off_c, 7, 79, 127
2, 2976, Note_on_c, 2, 62, 127
2, 2976, Note_on_c, 12, 71, 127
2, 3061, Note_off_c, 12, 71, 127
2, 3061, Note_on_c, 10, 69, 127
2, 3146, Note_off_c, 10, 69, 127
2, 3146, Note_on_c, 12, 71, 127
2, 3436, Note_off_c, 12, 71, 127
2, 3454, Note_off_c, 2, 62, 127
2, 3456, Note_on_c, 0, 60, 127
2, 3456, Note_on_c, 10, 69, 127
2, 3694, Note_off_c, 10, 69, 127
2, 3696, Note_on_c, 12, 71, 127
2, 3814, Note_off_c, 12, 71, 127
2, 3816, Note_on_c, 0, 72, 127
2, 3934, Note_off_c, 0, 72, 127
2, 3934, Note_off_c, 0, 60, 127
2, 3936, Note_on_c, 2, 62, 127
2, 3936, Note_on_c, 12, 71, 127
2, 4174, Note_off_c, 12, 71, 127
2, 4176, Note_on_c, 10, 69, 127
2, 4414, Note_off_c, 10, 69, 127
2, 4414, Note_off_c, 2, 62, 127
2, 4416, Note_on_c, 7, 55, 127
2, 4416, Note_on_c, 0, 72, 127
2, 4534, Note_off_c, 0, 72, 127
2, 4549, Note_on_c, 12, 71, 127
2, 4663, Note_on_c, 0, 72, 127
2, 4667, Note_off_c, 12, 71, 127
2, 4777, Note_on_c, 12, 71, 127
2, 4781, Note_off_c, 0, 72, 127
2, 4895, Note_off_c, 12, 71, 127
2, 4895, Note_off_c, 7, 55, 127
2, 4897, Note_on_c, 10, 57, 127
2, 4897, Note_on_c, 10, 69, 127
2, 5135, Note_off_c, 10, 69, 127
2, 5137, Note_on_c, 12, 71, 127
2, 5375, Note_off_c, 12, 71, 127
2, 5375, Note_off_c, 10, 57, 127
2, 5377, Note_on_c, 12, 59, 127
2, 5377, Note_on_c, 7, 67, 127
2, 5727, Note_off_c, 7, 67, 127
2, 5855, Note_off_c, 12, 59, 127
2, 5857, Note_on_c, 0, 60, 127
2, 5857, Note_on_c, 4, 76, 127
2, 5915, Note_off_c, 4, 76, 127
2, 5917, Note_on_c, 2, 74, 127
2, 5975, Note_off_c, 2, 74, 127
2, 5977, Note_on_c, 4, 76, 127
2, 6095, Note_off_c, 0, 60, 127
2, 6097, Note_on_c, 12, 59, 127
2, 6335, Note_off_c, 12, 59, 127
2, 6335, Note_off_c, 4, 76, 127
2, 6337, Note_on_c, 0, 60, 127
2, 6337, Note_on_c, 4, 76, 127
2, 6575, Note_off_c, 0, 60, 127
2, 6577, Note_on_c, 7, 55, 127
2, 6815, Note_off_c, 7, 55, 127
2, 6815, Note_off_c, 4, 76, 127
2, 6817, Note_on_c, 4, 52, 127
2, 6817, Note_on_c, 4, 76, 127
2, 7055, Note_off_c, 4, 52, 127
2, 7057, Note_on_c, 7, 55, 127
2, 7295, Note_off_c, 7, 55, 127
2, 7295, Note_off_c, 4, 76, 127
2, 7297, Note_on_c, 0, 48, 127
2, 7297, Note_on_c, 4, 76, 127
2, 7355, Note_off_c, 4, 76, 127
2, 7357, Note_on_c, 2, 74, 127
2, 7415, Note_off_c, 2, 74, 127
2, 7417, Note_on_c, 4, 76, 127
2, 7775, Note_off_c, 4, 76, 127
2, 7777, Note_on_c, 4, 52, 127
2, 7777, Note_on_c, 2, 74, 127
2, 8015, Note_off_c, 2, 74, 127
2, 8017, Note_on_c, 0, 72, 127
2, 8255, Note_off_c, 0, 72, 127
2, 8255, Note_off_c, 4, 52, 127
2, 8257, Note_on_c, 6, 54, 127
2, 8257, Note_on_c, 12, 71, 127
2, 8495, Note_off_c, 12, 71, 127
2, 8497, Note_on_c, 10, 69, 127
2, 8735, Note_off_c, 10, 69, 127
2, 8735, Note_off_c, 6, 54, 127
2, 8735, Note_off_c, 0, 48, 127
2, 8737, Note_on_c, 12, 47, 127
2, 8737, Note_on_c, 7, 55, 127
2, 8737, Note_on_c, 2, 74, 127
2, 9215, Note_off_c, 2, 74, 127
2, 9215, Note_off_c, 12, 47, 127
2, 9217, Note_on_c, 0, 48, 127
2, 9217, Note_on_c, 0, 72, 127
2, 9455, Note_off_c, 0, 72, 127
2, 9457, Note_on_c, 12, 71, 127
2, 9695, Note_off_c, 12, 71, 127
2, 9695, Note_off_c, 0, 48, 127
2, 9696, Note_off_c, 7, 55, 127
2, 9697, Note_on_c, 6, 54, 127
2, 9697, Note_on_c, 2, 50, 127
2, 9697, Note_on_c, 10, 69, 127
2, 9935, Note_off_c, 10, 69, 127
2, 9937, Note_on_c, 12, 71, 127
2, 10175, Note_off_c, 12, 71, 127
2, 10175, Note_off_c, 2, 50, 127
2, 10175, Note_off_c, 6, 54, 127
2, 10177, Note_on_c, 7, 55, 127
2, 10177, Note_on_c, 10, 69, 127
2, 10415, Note_off_c, 7, 55, 127
2, 10417, Note_on_c, 2, 50, 127
2, 10655, Note_off_c, 2, 50, 127
2, 10657, Note_on_c, 12, 47, 127
2, 10895, Note_off_c, 12, 47, 127
2, 10896, Note_off_c, 10, 69, 127
2, 10897, Note_on_c, 2, 50, 127
2, 10897, Note_on_c, 7, 67, 127
2, 11135, Note_off_c, 2, 50, 127
2, 11137, Note_on_c, 7, 43, 127
2, 11372, Note_off_c, 7, 67, 127
2, 11614, Note_off_c, 7, 43, 127
2, 11616, Note_on_c, 2, 50, 127
2, 11616, Note_on_c, 10, 69, 127
2, 11674, Note_off_c, 10, 69, 127
2, 11676, Note_on_c, 7, 67, 127
2, 11734, Note_off_c, 7, 67, 127
2, 11736, Note_on_c, 10, 69, 127
2, 11856, Note_on_c, 6, 54, 127
2, 12091, Note_off_c, 2, 50, 127
2, 12093, Note_off_c, 6, 54, 127
2, 12093, Note_off_c, 10, 69, 127
2, 12095, Note_on_c, 10, 57, 127
2, 12095, Note_on_c, 10, 69, 127
2, 12333, Note_off_c, 10, 57, 127
2, 12335, Note_on_c, 2, 62, 127
2, 12573, Note_off_c, 10, 69, 127
2, 12575, Note_on_c, 4, 52, 127
2, 12575, Note_on_c, 10, 69, 127
2, 12810, Note_off_c, 2, 62, 127
2, 12815, Note_on_c, 1, 61, 127
2, 12925, Note_off_c, 4, 52, 127
2, 13053, Note_off_c, 1, 61, 127
2, 13053, Note_off_c, 10, 69, 127
2, 13055, Note_on_c, 6, 54, 127
2, 13055, Note_on_c, 10, 69, 127
2, 13295, Note_on_c, 2, 62, 127
2, 13405, Note_off_c, 6, 54, 127
2, 13533, Note_off_c, 10, 69, 127
2, 13535, Note_on_c, 6, 54, 127
2, 13535, Note_on_c, 2, 74, 127
2, 13645, Note_off_c, 2, 62, 127
2, 13773, Note_off_c, 2, 74, 127
2, 13773, Note_off_c, 6, 54, 127
2, 13775, Note_on_c, 4, 52, 127
2, 13775, Note_on_c, 1, 73, 127
2, 14013, Note_off_c, 1, 73, 127
2, 14013, Note_off_c, 4, 52, 127
2, 14015, Note_on_c, 2, 50, 127
2, 14015, Note_on_c, 2, 74, 127
2, 14253, Note_off_c, 2, 50, 127
2, 14255, Note_on_c, 4, 52, 127
2, 14493, Note_off_c, 4, 52, 127
2, 14493, Note_off_c, 2, 74, 127
2, 14495, Note_on_c, 6, 54, 127
2, 14495, Note_on_c, 10, 69, 127
2, 14733, Note_off_c, 6, 54, 127
2, 14735, Note_on_c, 10, 57, 127
2, 14973, Note_off_c, 10, 57, 127
2, 14973, Note_off_c, 10, 69, 127
2, 14975, Note_on_c, 7, 55, 127
2, 14975, Note_on_c, 0, 72, 127
2, 15093, Note_off_c, 0, 72, 127
2, 15095, Note_on_c, 12, 71, 127
2, 15213, Note_off_c, 12, 71, 127
2, 15213, Note_off_c, 7, 55, 127
2, 15215, Note_on_c, 6, 54, 127
2, 15215, Note_on_c, 10, 69, 127
2, 15333, Note_off_c, 10, 69, 127
2, 15335, Note_on_c, 12, 71, 127
2, 15453, Note_off_c, 12, 71, 127
2, 15453, Note_off_c, 6, 54, 127
2, 15455, Note_on_c, 4, 52, 127
2, 15455, Note_on_c, 0, 72, 127
2, 15693, Note_off_c, 4, 52, 127
2, 15695, Note_on_c, 2, 50, 127
2, 15933, Note_off_c, 2, 50, 127
2, 15933, Note_off_c, 0, 72, 127
2, 15935, Note_on_c, 7, 55, 127
2, 15935, Note_on_c, 0, 72, 127
2, 16095, Note_off_c, 0, 72, 127
2, 16095, Note_on_c, 12, 71, 127
2, 16175, Note_off_c, 12, 71, 127
2, 16175, Note_on_c, 0, 72, 127
2, 16255, Note_off_c, 0, 72, 127
2, 16255, Note_on_c, 12, 71, 127
2, 16413, Note_off_c, 7, 55, 127
2, 16415, Note_on_c, 10, 57, 127
2, 16415, Note_on_c, 10, 69, 127
2, 16416, Note_off_c, 12, 71, 127
2, 16652, Note_off_c, 10, 69, 127
2, 16654, Note_on_c, 12, 71, 127
2, 16892, Note_off_c, 12, 71, 127
2, 16892, Note_off_c, 10, 57, 127
2, 16894, Note_on_c, 12, 59, 127
2, 16894, Note_on_c, 7, 67, 127
2, 17244, Note_off_c, 7, 67, 127
2, 17372, Note_off_c, 12, 59, 127
2, 17374, Note_on_c, 4, 52, 127
2, 17374, Note_on_c, 7, 79, 127
2, 17432, Note_off_c, 7, 79, 127
2, 17434, Note_on_c, 6, 78, 127
2, 17492, Note_off_c, 6, 78, 127
2, 17494, Note_on_c, 7, 79, 127
2, 17612, Note_off_c, 4, 52, 127
2, 17614, Note_on_c, 6, 54, 127
2, 17852, Note_off_c, 6, 54, 127
2, 17852, Note_off_c, 7, 79, 127
2, 17854, Note_on_c, 7, 55, 127
2, 17854, Note_on_c, 7, 79, 127
2, 18092, Note_off_c, 7, 55, 127
2, 18094, Note_on_c, 6, 54, 127
2, 18332, Note_off_c, 6, 54, 127
2, 18332, Note_off_c, 7, 79, 127
2, 18334, Note_on_c, 4, 52, 127
2, 18334, Note_on_c, 7, 79, 127
2, 18572, Note_off_c, 4, 52, 127
2, 18574, Note_on_c, 2, 50, 127
2, 18812, Note_off_c, 2, 50, 127
2, 18812, Note_off_c, 7, 79, 127
2, 18814, Note_on_c, 1, 49, 127
2, 18814, Note_on_c, 7, 79, 127
2, 19052, Note_off_c, 7, 79, 127
2, 19054, Note_on_c, 6, 78, 127
2, 19292, Note_off_c, 6, 78, 127
2, 19292, Note_off_c, 1, 49, 127
2, 19294, Note_on_c, 10, 57, 127
2, 19294, Note_on_c, 4, 76, 127
2, 19532, Note_off_c, 4, 76, 127
2, 19534, Note_on_c, 2, 74, 127
2, 19772, Note_off_c, 2, 74, 127
2, 19772, Note_off_c, 10, 57, 127
2, 19774, Note_on_c, 7, 55, 127
2, 19774, Note_on_c, 1, 73, 127
2, 20012, Note_off_c, 1, 73, 127
2, 20014, Note_on_c, 12, 71, 127
2, 20252, Note_off_c, 12, 71, 127
2, 20252, Note_off_c, 7, 55, 127
2, 20254, Note_on_c, 6, 54, 127
2, 20254, Note_on_c, 10, 69, 127
2, 20732, Note_off_c, 10, 69, 127
2, 20734, Note_on_c, 6, 42, 127
2, 20734, Note_on_c, 2, 74, 127
2, 21084, Note_off_c, 2, 74, 127
2, 21212, Note_off_c, 6, 42, 127
2, 21213, Note_off_c, 6, 54, 127
2, 21214, Note_on_c, 10, 45, 127
2, 21214, Note_on_c, 4, 52, 127
2, 21214, Note_on_c, 2, 74, 127
2, 21292, Note_off_c, 2, 74, 127
2, 21294, Note_on_c, 1, 73, 127
2, 21372, Note_off_c, 1, 73, 127
2, 21374, Note_on_c, 2, 74, 127
2, 21452, Note_off_c, 2, 74, 127
2, 21454, Note_on_c, 1, 73, 127
2, 21532, Note_off_c, 1, 73, 127
2, 21534, Note_on_c, 12, 71, 127
2, 21612, Note_off_c, 12, 71, 127
2, 21614, Note_on_c, 1, 73, 127
2, 21692, Note_off_c, 1, 73, 127
2, 21692, Note_off_c, 4, 52, 127
2, 21692, Note_off_c, 10, 45, 127
2, 21694, Note_on_c, 2, 50, 127
2, 21694, Note_on_c, 2, 74, 127
2, 21752, Note_off_c, 2, 74, 127
2, 21754, Note_on_c, 1, 73, 127
2, 21812, Note_off_c, 1, 73, 127
2, 21814, Note_on_c, 2, 74, 127
2, 21932, Note_off_c, 2, 50, 127
2, 21934, Note_on_c, 10, 45, 127
2, 22172, Note_off_c, 10, 45, 127
2, 22174, Note_on_c, 6, 42, 127
2, 22412, Note_off_c, 6, 42, 127
2, 22414, Note_on_c, 10, 45, 127
2, 22652, Note_off_c, 10, 45, 127
2, 22654, Note_on_c, 2, 38, 127
2, 22773, Note_off_c, 2, 74, 127
2, 23132, Note_off_c, 2, 38, 127
2, 23158, Note_on_c, 7, 79, 127
2, 23158, Note_on_c, 4, 40, 127
2, 23636, Note_off_c, 7, 79, 127
2, 23638, Note_on_c, 0, 72, 127
2, 23696, Note_off_c, 0, 72, 127
2, 23698, Note_on_c, 12, 71, 127
2, 23756, Note_off_c, 12, 71, 127
2, 23758, Note_on_c, 0, 72, 127
2, 24116, Note_off_c, 0, 72, 127
2, 24117, Note_off_c, 4, 40, 127
2, 24118, Note_on_c, 0, 72, 127
2, 24596, Note_off_c, 0, 72, 127
2, 24598, Note_on_c, 0, 72, 127
2, 24598, Note_on_c, 10, 57, 127
2, 24836, Note_off_c, 10, 57, 127
2, 24838, Note_on_c, 4, 52, 127
2, 25076, Note_off_c, 4, 52, 127
2, 25076, Note_off_c, 0, 72, 127
2, 25078, Note_on_c, 4, 76, 127
2, 25078, Note_on_c, 0, 48, 127
2, 25316, Note_off_c, 0, 48, 127
2, 25316, Note_off_c, 4, 76, 127
2, 25318, Note_on_c, 2, 74, 127
2, 25318, Note_on_c, 4, 52, 127
2, 25556, Note_off_c, 4, 52, 127
2, 25556, Note_off_c, 2, 74, 127
2, 25558, Note_on_c, 0, 72, 127
2, 25558, Note_on_c, 10, 45, 127
2, 25796, Note_off_c, 10, 45, 127
2, 25798, Note_on_c, 0, 48, 127
2, 26036, Note_off_c, 0, 48, 127
2, 26036, Note_off_c, 0, 72, 127
2, 26038, Note_on_c, 10, 81, 127
2, 26038, Note_on_c, 6, 42, 127
2, 26516, Note_off_c, 10, 81, 127
2, 26518, Note_on_c, 0, 72, 127
2, 26576, Note_off_c, 0, 72, 127
2, 26578, Note_on_c, 12, 71, 127
2, 26636, Note_off_c, 12, 71, 127
2, 26638, Note_on_c, 0, 72, 127
2, 26996, Note_off_c, 0, 72, 127
2, 26997, Note_off_c, 6, 42, 127
2, 26998, Note_on_c, 0, 72, 127
2, 27476, Note_off_c, 0, 72, 127
2, 27478, Note_on_c, 12, 71, 127
2, 27478, Note_on_c, 7, 43, 127
2, 27716, Note_off_c, 7, 43, 127
2, 27716, Note_off_c, 12, 71, 127
2, 27718, Note_on_c, 2, 74, 127
2, 27718, Note_on_c, 12, 47, 127
2, 27956, Note_off_c, 12, 47, 127
2, 27956, Note_off_c, 2, 74, 127
2, 27958, Note_on_c, 0, 72, 127
2, 27958, Note_on_c, 2, 50, 127
2, 28196, Note_off_c, 2, 50, 127
2, 28196, Note_off_c, 0, 72, 127
2, 28198, Note_on_c, 12, 71, 127
2, 28198, Note_on_c, 7, 55, 127
2, 28436, Note_off_c, 7, 55, 127
2, 28436, Note_off_c, 12, 71, 127
2, 28438, Note_on_c, 10, 69, 127
2, 28438, Note_on_c, 0, 48, 127
2, 28676, Note_off_c, 0, 48, 127
2, 28678, Note_on_c, 6, 54, 127
2, 28916, Note_off_c, 6, 54, 127
2, 28916, Note_off_c, 10, 69, 127
2, 28918, Note_on_c, 2, 74, 127
2, 28918, Note_on_c, 12, 47, 127
2, 28976, Note_off_c, 2, 74, 127
2, 28978, Note_on_c, 0, 72, 127
2, 29036, Note_off_c, 0, 72, 127
2, 29038, Note_on_c, 2, 74, 127
2, 29156, Note_off_c, 12, 47, 127
2, 29158, Note_on_c, 2, 50, 127
2, 29396, Note_off_c, 2, 50, 127
2, 29396, Note_off_c, 2, 74, 127
2, 29398, Note_on_c, 2, 74, 127
2, 29398, Note_on_c, 6, 54, 127
2, 29636, Note_off_c, 6, 54, 127
2, 29638, Note_on_c, 7, 55, 127
2, 29876, Note_off_c, 7, 55, 127
2, 29876, Note_off_c, 2, 74, 127
2, 29878, Note_on_c, 2, 74, 127
2, 29878, Note_on_c, 10, 45, 127
2, 30116, Note_off_c, 10, 45, 127
2, 30118, Note_on_c, 6, 54, 127
2, 30356, Note_off_c, 6, 54, 127
2, 30356, Note_off_c, 2, 74, 127
2, 30358, Note_on_c, 4, 76, 127
2, 30358, Note_on_c, 7, 43, 127
2, 30418, Note_on_c, 2, 74, 127
2, 30423, Note_off_c, 4, 76, 127
2, 30478, Note_on_c, 4, 76, 127
2, 30483, Note_off_c, 2, 74, 127
2, 30538, Note_on_c, 2, 74, 127
2, 30543, Note_off_c, 4, 76, 127
2, 30595, Note_off_c, 7, 43, 127
2, 30597, Note_on_c, 4, 76, 127
2, 30597, Note_on_c, 6, 42, 127
2, 30602, Note_off_c, 2, 74, 127
2, 30657, Note_on_c, 2, 74, 127
2, 30662, Note_off_c, 4, 76, 127
2, 30717, Note_on_c, 4, 76, 127
2, 30722, Note_off_c, 2, 74, 127
2, 30777, Note_on_c, 2, 74, 127
2, 30782, Note_off_c, 4, 76, 127
2, 30834, Note_off_c, 6, 42, 127
2, 30836, Note_on_c, 4, 76, 127
2, 30836, Note_on_c, 7, 43, 127
2, 30841, Note_off_c, 2, 74, 127
2, 31073, Note_off_c, 7, 43, 127
2, 31073, Note_off_c, 4, 76, 127
2, 31075, Note_on_c, 6, 78, 127
2, 31075, Note_on_c, 10, 45, 127
2, 31313, Note_off_c, 10, 45, 127
2, 31313, Note_off_c, 6, 78, 127
2, 31315, Note_on_c, 7, 79, 127
2, 31315, Note_on_c, 12, 47, 127
2, 31553, Note_off_c, 12, 47, 127
2, 31555, Note_on_c, 0, 48, 127
2, 31793, Note_off_c, 0, 48, 127
2, 31793, Note_off_c, 7, 79, 127
2, 31795, Note_on_c, 12, 71, 127
2, 31795, Note_on_c, 2, 50, 127
2, 32033, Note_off_c, 12, 71, 127
2, 32035, Note_on_c, 0, 72, 127
2, 32153, Note_off_c, 0, 72, 127
2, 32155, Note_on_c, 2, 74, 127
2, 32273, Note_off_c, 2, 74, 127
2, 32275, Note_on_c, 0, 72, 127
2, 32275, Note_on_c, 7, 55, 127
2, 32513, Note_off_c, 0, 72, 127
2, 32515, Note_on_c, 12, 71, 127
2, 32753, Note_off_c, 12, 71, 127
2, 32753, Note_off_c, 7, 55, 127
2, 32755, Note_on_c, 10, 69, 127
2, 32755, Note_on_c, 6, 54, 127
2, 32993, Note_off_c, 10, 69, 127
2, 32995, Note_on_c, 12, 71, 127
2, 33233, Note_off_c, 12, 71, 127
2, 33233, Note_off_c, 6, 54, 127
2, 33233, Note_off_c, 2, 50, 127
2, 33235, Note_on_c, 10, 69, 127
2, 33235, Note_on_c, 7, 55, 127
2, 33473, Note_off_c, 7, 55, 127
2, 33475, Note_on_c, 2, 50, 127
2, 33713, Note_off_c, 2, 50, 127
2, 33715, Note_on_c, 12, 47, 127
2, 33937, Note_off_c, 12, 47, 127
2, 33953, Note_off_c, 10, 69, 127
2, 33954, Note_on_c, 7, 67, 127
2, 33954, Note_on_c, 2, 50, 127
2, 34178, Note_off_c, 2, 50, 127
2, 34194, Note_on_c, 7, 43, 127
2, 34429, Note_off_c, 7, 67, 127
2, 34671, Note_off_c, 7, 43, 127
2, 34673, Note_on_c, 7, 67, 127
2, 34673, Note_on_c, 7, 55, 127
2, 34911, Note_off_c, 7, 67, 127
2, 34913, Note_on_c, 10, 69, 127
2, 35031, Note_off_c, 10, 69, 127
2, 35033, Note_on_c, 11, 70, 127
2, 35151, Note_off_c, 11, 70, 127
2, 35153, Note_on_c, 10, 69, 127
2, 35153, Note_on_c, 11, 58, 127
2, 35391, Note_off_c, 10, 69, 127
2, 35393, Note_on_c, 7, 67, 127
2, 35631, Note_off_c, 7, 67, 127
2, 35631, Note_off_c, 11, 58, 127
2, 35633, Note_on_c, 6, 66, 127
2, 35633, Note_on_c, 2, 62, 127
2, 35871, Note_off_c, 6, 66, 127
2, 35873, Note_on_c, 7, 67, 127
2, 36111, Note_off_c, 7, 67, 127
2, 36111, Note_off_c, 2, 62, 127
2, 36111, Note_off_c, 7, 55, 127
2, 36113, Note_on_c, 3, 63, 127
2, 36113, Note_on_c, 7, 55, 127
2, 36351, Note_off_c, 3, 63, 127
2, 36353, Note_on_c, 2, 62, 127
2, 36471, Note_off_c, 2, 62, 127
2, 36473, Note_on_c, 0, 60, 127
2, 36591, Note_off_c, 0, 60, 127
2, 36593, Note_on_c, 0, 72, 127
2, 36593, Note_on_c, 10, 57, 127
2, 36799, Note_off_c, 0, 72, 127
2, 36833, Note_on_c, 2, 62, 127
2, 37039, Note_off_c, 2, 62, 127
2, 37070, Note_off_c, 10, 57, 127
2, 37072, Note_on_c, 3, 63, 127
2, 37072, Note_on_c, 0, 60, 127
2, 37550, Note_off_c, 0, 60, 127
2, 37550, Note_off_c, 7, 55, 127
2, 37552, Note_on_c, 6, 54, 127
2, 37790, Note_off_c, 3, 63, 127
2, 37792, Note_on_c, 0, 60, 127
2, 38030, Note_off_c, 0, 60, 127
2, 38032, Note_on_c, 2, 62, 127
2, 38032, Note_on_c, 10, 57, 127
2, 38270, Note_off_c, 2, 62, 127
2, 38272, Note_on_c, 6, 66, 127
2, 38510, Note_off_c, 6, 66, 127
2, 38510, Note_off_c, 10, 57, 127
2, 38512, Note_on_c, 10, 69, 127
2, 38512, Note_on_c, 2, 62, 127
2, 38750, Note_off_c, 10, 69, 127
2, 38752, Note_on_c, 0, 72, 127
2, 38990, Note_off_c, 0, 72, 127
2, 38990, Note_off_c, 2, 62, 127
2, 38990, Note_off_c, 6, 54, 127
2, 38992, Note_on_c, 11, 70, 127
2, 38992, Note_on_c, 7, 55, 127
2, 39230, Note_off_c, 11, 70, 127
2, 39232, Note_on_c, 10, 69, 127
2, 39470, Note_off_c, 10, 69, 127
2, 39472, Note_on_c, 11, 70, 127
2, 39472, Note_on_c, 2, 62, 127
2, 39710, Note_off_c, 11, 70, 127
2, 39712, Note_on_c, 2, 74, 127
2, 39950, Note_off_c, 2, 74, 127
2, 39951, Note_off_c, 7, 55, 127
2, 39952, Note_on_c, 7, 67, 127
2, 39952, Note_on_c, 5, 53, 127
2, 40190, Note_off_c, 7, 67, 127
2, 40192, Note_on_c, 11, 70, 127
2, 40430, Note_off_c, 11, 70, 127
2, 40430, Note_off_c, 5, 53, 127
2, 40431, Note_off_c, 2, 62, 127
2, 40432, Note_on_c, 0, 72, 127
2, 40432, Note_on_c, 3, 51, 127
2, 40670, Note_off_c, 0, 72, 127
2, 40672, Note_on_c, 2, 74, 127
2, 40790, Note_off_c, 2, 74, 127
2, 40792, Note_on_c, 3, 75, 127
2, 40910, Note_off_c, 3, 75, 127
2, 40912, Note_on_c, 2, 74, 127
2, 40912, Note_on_c, 7, 55, 127
2, 41150, Note_off_c, 2, 74, 127
2, 41152, Note_on_c, 0, 72, 127
2, 41390, Note_off_c, 0, 72, 127
2, 41391, Note_off_c, 3, 51, 127
2, 41392, Note_on_c, 11, 70, 127
2, 41392, Note_on_c, 2, 50, 127
2, 41598, Note_off_c, 11, 70, 127
2, 41632, Note_on_c, 10, 69, 127
2, 41838, Note_off_c, 10, 69, 127
2, 41869, Note_off_c, 2, 50, 127
2, 41870, Note_off_c, 7, 55, 127
2, 41871, Note_on_c, 3, 75, 127
2, 41871, Note_on_c, 0, 48, 127
2, 42109, Note_off_c, 3, 75, 127
2, 42111, Note_on_c, 2, 74, 127
2, 42349, Note_off_c, 2, 74, 127
2, 42351, Note_on_c, 3, 75, 127
2, 42351, Note_on_c, 7, 55, 127
2, 42589, Note_off_c, 3, 75, 127
2, 42591, Note_on_c, 5, 77, 127
2, 42709, Note_off_c, 5, 77, 127
2, 42711, Note_on_c, 7, 79, 127
2, 42829, Note_off_c, 7, 79, 127
2, 42830, Note_off_c, 0, 48, 127
2, 42831, Note_on_c, 0, 72, 127
2, 42831, Note_on_c, 11, 46, 127
2, 43037, Note_off_c, 0, 72, 127
2, 43071, Note_on_c, 3, 75, 127
2, 43277, Note_off_c, 3, 75, 127
2, 43308, Note_off_c, 11, 46, 127
2, 43309, Note_off_c, 7, 55, 127
2, 43310, Note_on_c, 5, 65, 127
2, 43310, Note_on_c, 5, 53, 127
2, 43310, Note_on_c, 10, 45, 127
2, 43548, Note_off_c, 5, 65, 127
2, 43550, Note_on_c, 3, 75, 127
2, 43788, Note_off_c, 3, 75, 127
2, 43788, Note_off_c, 10, 45, 127
2, 43790, Note_on_c, 2, 74, 127
2, 43790, Note_on_c, 11, 46, 127
2, 44028, Note_off_c, 11, 46, 127
2, 44028, Note_off_c, 2, 74, 127
2, 44030, Note_on_c, 11, 70, 127
2, 44030, Note_on_c, 2, 50, 127
2, 44268, Note_off_c, 2, 50, 127
2, 44268, Note_off_c, 11, 70, 127
2, 44269, Note_off_c, 5, 53, 127
2, 44270, Note_on_c, 5, 65, 127
2, 44270, Note_on_c, 5, 53, 127
2, 44476, Note_off_c, 5, 65, 127
2, 44507, Note_off_c, 5, 53, 127
2, 44509, Note_on_c, 10, 69, 127
2, 44509, Note_on_c, 5, 41, 127
2, 44715, Note_off_c, 10, 69, 127
2, 44746, Note_off_c, 5, 41, 127
2, 44748, Note_on_c, 11, 70, 127
2, 44748, Note_on_c, 11, 46, 127
2, 44866, Note_off_c, 11, 70, 127
2, 44868, Note_on_c, 10, 69, 127
2, 44986, Note_off_c, 10, 69, 127
2, 44986, Note_off_c, 11, 46, 127
2, 44988, Note_on_c, 11, 70, 127
2, 44988, Note_on_c, 2, 50, 127
2, 45226, Note_off_c, 2, 50, 127
2, 45228, Note_on_c, 5, 53, 127
2, 45466, Note_off_c, 5, 53, 127
2, 45468, Note_on_c, 10, 57, 127
2, 45706, Note_off_c, 10, 57, 127
2, 45708, Note_on_c, 11, 58, 127
2, 45947, Note_off_c, 11, 70, 127
2, 46186, Note_off_c, 11, 58, 127
2, 46188, Note_on_c, 2, 74, 127
2, 46188, Note_on_c, 11, 58, 127
2, 46426, Note_off_c, 2, 74, 127
2, 46428, Note_on_c, 3, 75, 127
2, 46546, Note_off_c, 3, 75, 127
2, 46548, Note_on_c, 5, 77, 127
2, 46666, Note_off_c, 5, 77, 127
2, 46668, Note_on_c, 3, 75, 127
2, 46668, Note_on_c, 2, 62, 127
2, 46906, Note_off_c, 3, 75, 127
2, 46908, Note_on_c, 2, 74, 127
2, 47146, Note_off_c, 2, 74, 127
2, 47146, Note_off_c, 2, 62, 127
2, 47148, Note_on_c, 0, 72, 127
2, 47148, Note_on_c, 5, 65, 127
2, 47386, Note_off_c, 0, 72, 127
2, 47388, Note_on_c, 2, 74, 127
2, 47626, Note_off_c, 2, 74, 127
2, 47626, Note_off_c, 5, 65, 127
2, 47626, Note_off_c, 11, 58, 127
2, 47628, Note_on_c, 0, 72, 127
2, 47628, Note_on_c, 8, 56, 127
2, 47866, Note_off_c, 0, 72, 127
2, 47868, Note_on_c, 12, 71, 127
2, 48106, Note_off_c, 12, 71, 127
2, 48108, Note_on_c, 8, 80, 127
2, 48108, Note_on_c, 12, 59, 127
2, 48314, Note_off_c, 8, 80, 127
2, 48348, Note_on_c, 2, 74, 127
2, 48554, Note_off_c, 2, 74, 127
2, 48585, Note_off_c, 12, 59, 127
2, 48587, Note_on_c, 5, 77, 127
2, 48587, Note_on_c, 2, 62, 127
2, 48645, Note_off_c, 5, 77, 127
2, 48647, Note_on_c, 3, 75, 127
2, 48705, Note_off_c, 3, 75, 127
2, 48707, Note_on_c, 5, 77, 127
2, 49065, Note_off_c, 2, 62, 127
2, 49065, Note_off_c, 8, 56, 127
2, 49067, Note_on_c, 7, 55, 127
2, 49305, Note_off_c, 5, 77, 127
2, 49307, Note_on_c, 8, 68, 127
2, 49545, Note_off_c, 8, 68, 127
2, 49547, Note_on_c, 7, 67, 127
2, 49547, Note_on_c, 0, 60, 127
2, 49785, Note_off_c, 7, 67, 127
2, 49787, Note_on_c, 12, 71, 127
2, 50025, Note_off_c, 12, 71, 127
2, 50025, Note_off_c, 0, 60, 127
2, 50027, Note_on_c, 2, 74, 127
2, 50027, Note_on_c, 12, 59, 127
2, 50265, Note_off_c, 2, 74, 127
2, 50267, Note_on_c, 5, 77, 127
2, 50505, Note_off_c, 5, 77, 127
2, 50505, Note_off_c, 12, 59, 127
2, 50505, Note_off_c, 7, 55, 127
2, 50507, Note_on_c, 3, 75, 127
2, 50507, Note_on_c, 0, 60, 127
2, 50745, Note_off_c, 3, 75, 127
2, 50747, Note_on_c, 2, 74, 127
2, 50985, Note_off_c, 2, 74, 127
2, 50987, Note_on_c, 3, 75, 127
2, 50987, Note_on_c, 7, 55, 127
2, 51225, Note_off_c, 3, 75, 127
2, 51227, Note_on_c, 7, 79, 127
2, 51465, Note_off_c, 7, 79, 127
2, 51465, Note_off_c, 7, 55, 127
2, 51467, Note_on_c, 0, 72, 127
2, 51467, Note_on_c, 3, 51, 127
2, 51673, Note_off_c, 0, 72, 127
2, 51707, Note_on_c, 3, 75, 127
2, 51913, Note_off_c, 3, 75, 127
2, 51944, Note_off_c, 3, 51, 127
2, 51944, Note_off_c, 0, 60, 127
2, 51946, Note_on_c, 10, 69, 127
2, 51946, Note_on_c, 0, 48, 127
2, 52184, Note_off_c, 10, 69, 127
2, 52186, Note_on_c, 11, 70, 127
2, 52304, Note_off_c, 11, 70, 127
2, 52306, Note_on_c, 0, 72, 127
2, 52424, Note_off_c, 0, 72, 127
2, 52426, Note_on_c, 11, 70, 127
2, 52426, Note_on_c, 3, 51, 127
2, 52664, Note_off_c, 11, 70, 127
2, 52666, Note_on_c, 10, 69, 127
2, 52904, Note_off_c, 10, 69, 127
2, 52905, Note_off_c, 0, 48, 127
2, 52906, Note_on_c, 7, 67, 127
2, 52906, Note_on_c, 11, 46, 127
2, 53144, Note_off_c, 7, 67, 127
2, 53146, Note_on_c, 6, 66, 127
2, 53384, Note_off_c, 6, 66, 127
2, 53384, Note_off_c, 11, 46, 127
2, 53385, Note_off_c, 3, 51, 127
2, 53386, Note_on_c, 3, 75, 127
2, 53386, Note_on_c, 10, 45, 127
2, 53592, Note_off_c, 3, 75, 127
2, 53626, Note_on_c, 0, 72, 127
2, 53832, Note_off_c, 0, 72, 127
2, 53866, Note_on_c, 2, 74, 127
2, 53866, Note_on_c, 6, 54, 127
2, 54104, Note_off_c, 2, 74, 127
2, 54105, Note_off_c, 10, 45, 127
2, 54106, Note_on_c, 6, 78, 127
2, 54106, Note_on_c, 7, 43, 127
2, 54224, Note_off_c, 6, 78, 127
2, 54226, Note_on_c, 7, 79, 127
2, 54344, Note_off_c, 7, 79, 127
2, 54344, Note_off_c, 7, 43, 127
2, 54346, Note_on_c, 10, 81, 127
2, 54346, Note_on_c, 6, 42, 127
2, 54584, Note_off_c, 10, 81, 127
2, 54586, Note_on_c, 0, 72, 127
2, 54824, Note_off_c, 0, 72, 127
2, 54824, Note_off_c, 6, 42, 127
2, 54825, Note_off_c, 6, 54, 127
2, 54826, Note_on_c, 11, 70, 127
2, 54826, Note_on_c, 7, 43, 127
2, 55064, Note_off_c, 7, 43, 127
2, 55064, Note_off_c, 11, 70, 127
2, 55066, Note_on_c, 3, 75, 127
2, 55066, Note_on_c, 10, 45, 127
2, 55304, Note_off_c, 10, 45, 127
2, 55304, Note_off_c, 3, 75, 127
2, 55306, Note_on_c, 2, 74, 127
2, 55306, Note_on_c, 11, 46, 127
2, 55544, Note_off_c, 11, 46, 127
2, 55544, Note_off_c, 2, 74, 127
2, 55546, Note_on_c, 10, 69, 127
2, 55546, Note_on_c, 0, 48, 127
2, 55784, Note_off_c, 0, 48, 127
2, 55784, Note_off_c, 10, 69, 127
2, 55786, Note_on_c, 11, 70, 127
2, 55786, Note_on_c, 2, 50, 127
2, 55992, Note_off_c, 11, 70, 127
2, 56023, Note_off_c, 2, 50, 127
2, 56025, Note_on_c, 6, 66, 127
2, 56025, Note_on_c, 2, 38, 127
2, 56231, Note_off_c, 6, 66, 127
2, 56262, Note_off_c, 2, 38, 127
2, 56264, Note_on_c, 7, 67, 127
2, 56264, Note_on_c, 7, 43, 127
2, 57564, Note_off_c, 7, 67, 127
2, 57608, Note_on_c, 12, 59, 127
2, 57608, Note_on_c, 7, 55, 127
2, 57608, Note_on_c, 2, 62, 127
2, 57614, Note_off_c, 7, 43, 127
2, 58086, Note_off_c, 2, 62, 127
2, 58086, Note_off_c, 12, 59, 127
2, 58088, Note_on_c, 0, 60, 127
2, 58088, Note_on_c, 4, 64, 127
2, 58326, Note_off_c, 4, 64, 127
2, 58326, Note_off_c, 0, 60, 127
2, 58328, Note_on_c, 12, 59, 127
2, 58328, Note_on_c, 6, 66, 127
2, 58446, Note_off_c, 6, 66, 127
2, 58448, Note_on_c, 7, 67, 127
2, 58566, Note_off_c, 7, 67, 127
2, 58566, Note_off_c, 12, 59, 127
2, 58568, Note_on_c, 10, 57, 127
2, 58568, Note_on_c, 6, 66, 127
2, 58806, Note_off_c, 6, 66, 127
2, 58806, Note_off_c, 10, 57, 127
2, 58808, Note_on_c, 0, 60, 127
2, 58808, Note_on_c, 7, 67, 127
2, 58926, Note_off_c, 7, 67, 127
2, 58928, Note_on_c, 10, 69, 127
2, 59046, Note_off_c, 10, 69, 127
2, 59046, Note_off_c, 0, 60, 127
2, 59048, Note_on_c, 12, 59, 127
2, 59048, Note_on_c, 7, 67, 127
2, 59148, Note_off_c, 7, 67, 127
2, 59154, Note_on_c, 6, 66, 127
2, 59254, Note_off_c, 6, 66, 127
2, 59260, Note_on_c, 7, 67, 127
2, 59285, Note_off_c, 12, 59, 127
2, 59287, Note_on_c, 10, 57, 127
2, 59525, Note_off_c, 10, 57, 127
2, 59527, Note_on_c, 12, 59, 127
2, 59697, Note_off_c, 7, 67, 127
2, 59765, Note_off_c, 12, 59, 127
2, 59767, Note_on_c, 2, 62, 127
2, 59767, Note_on_c, 10, 69, 127
2, 59885, Note_off_c, 10, 69, 127
2, 59887, Note_on_c, 12, 71, 127
2, 60005, Note_off_c, 12, 71, 127
2, 60005, Note_off_c, 2, 62, 127
2, 60007, Note_on_c, 0, 60, 127
2, 60007, Note_on_c, 10, 69, 127
2, 60245, Note_off_c, 10, 69, 127
2, 60245, Note_off_c, 0, 60, 127
2, 60247, Note_on_c, 4, 64, 127
2, 60247, Note_on_c, 12, 71, 127
2, 60365, Note_off_c, 12, 71, 127
2, 60367, Note_on_c, 0, 72, 127
2, 60482, Note_off_c, 7, 55, 127
2, 60484, Note_off_c, 0, 72, 127
2, 60484, Note_off_c, 4, 64, 127
2, 60486, Note_on_c, 2, 62, 127
2, 60486, Note_on_c, 12, 71, 127
2, 60724, Note_off_c, 12, 71, 127
2, 60726, Note_on_c, 6, 66, 127
2, 60964, Note_off_c, 6, 66, 127
2, 60964, Note_off_c, 2, 62, 127
2, 60966, Note_on_c, 12, 59, 127
2, 60966, Note_on_c, 7, 67, 127
2, 61204, Note_off_c, 7, 67, 127
2, 61206, Note_on_c, 2, 62, 127
2, 61444, Note_off_c, 2, 62, 127
2, 61446, Note_on_c, 7, 55, 127
2, 61446, Note_on_c, 4, 64, 127
2, 61684, Note_off_c, 4, 64, 127
2, 61686, Note_on_c, 7, 67, 127
2, 61924, Note_off_c, 7, 67, 127
2, 61925, Note_off_c, 12, 59, 127
2, 61926, Note_on_c, 10, 57, 127
2, 61926, Note_on_c, 2, 62, 127
2, 62404, Note_off_c, 2, 62, 127
2, 62405, Note_off_c, 7, 55, 127
2, 62406, Note_on_c, 6, 54, 127
2, 62406, Note_on_c, 2, 62, 127
2, 62486, Note_off_c, 2, 62, 127
2, 62486, Note_on_c, 0, 60, 127
2, 62566, Note_off_c, 0, 60, 127
2, 62566, Note_on_c, 2, 62, 127
2, 62646, Note_off_c, 2, 62, 127
2, 62646, Note_on_c, 0, 60, 127
2, 62726, Note_off_c, 0, 60, 127
2, 62726, Note_on_c, 12, 59, 127
2, 62806, Note_off_c, 12, 59, 127
2, 62806, Note_on_c, 0, 60, 127
2, 62884, Note_off_c, 6, 54, 127
2, 62885, Note_off_c, 10, 57, 127
2, 62886, Note_off_c, 0, 60, 127
2, 62886, Note_on_c, 7, 55, 127
2, 62886, Note_on_c, 12, 59, 127
2, 63236, Note_off_c, 12, 59, 127
2, 63364, Note_off_c, 7, 55, 127
2, 63366, Note_on_c, 0, 48, 127
2, 63366, Note_on_c, 4, 64, 127
2, 63604, Note_off_c, 4, 64, 127
2, 63604, Note_off_c, 0, 48, 127
2, 63606, Note_on_c, 7, 55, 127
2, 63606, Note_on_c, 2, 62, 127
2, 63724, Note_off_c, 2, 62, 127
2, 63726, Note_on_c, 0, 60, 127
2, 63844, Note_off_c, 0, 60, 127
2, 63844, Note_off_c, 7, 55, 127
2, 63846, Note_on_c, 12, 47, 127
2, 63846, Note_on_c, 2, 62, 127
2, 64084, Note_off_c, 2, 62, 127
2, 64084, Note_off_c, 12, 47, 127
2, 64086, Note_on_c, 7, 55, 127
2, 64086, Note_on_c, 0, 60, 127
2, 64204, Note_off_c, 0, 60, 127
2, 64206, Note_on_c, 12, 59, 127
2, 64324, Note_off_c, 12, 59, 127
2, 64324, Note_off_c, 7, 55, 127
2, 64326, Note_on_c, 10, 45, 127
2, 64326, Note_on_c, 0, 60, 127
2, 64564, Note_off_c, 0, 60, 127
2, 64564, Note_off_c, 10, 45, 127
2, 64566, Note_on_c, 7, 55, 127
2, 64566, Note_on_c, 12, 59, 127
2, 64684, Note_off_c, 12, 59, 127
2, 64686, Note_on_c, 10, 57, 127
2, 64804, Note_off_c, 10, 57, 127
2, 64804, Note_off_c, 7, 55, 127
2, 64806, Note_on_c, 12, 47, 127
2, 64806, Note_on_c, 2, 62, 127
2, 65044, Note_off_c, 2, 62, 127
2, 65044, Note_off_c, 12, 47, 127
2, 65046, Note_on_c, 7, 55, 127
2, 65046, Note_on_c, 0, 60, 127
2, 65164, Note_off_c, 0, 60, 127
2, 65166, Note_on_c, 12, 59, 127
2, 65284, Note_off_c, 12, 59, 127
2, 65284, Note_off_c, 7, 55, 127
2, 65286, Note_on_c, 10, 45, 127
2, 65286, Note_on_c, 0, 60, 127
2, 65524, Note_off_c, 0, 60, 127
2, 65524, Note_off_c, 10, 45, 127
2, 65526, Note_on_c, 6, 54, 127
2, 65526, Note_on_c, 12, 59, 127
2, 65644, Note_off_c, 12, 59, 127
2, 65646, Note_on_c, 10, 57, 127
2, 65764, Note_off_c, 10, 57, 127
2, 65764, Note_off_c, 6, 54, 127
2, 65766, Note_on_c, 7, 43, 127
2, 65766, Note_on_c, 12, 59, 127
2, 66004, Note_off_c, 12, 59, 127
2, 66004, Note_off_c, 7, 43, 127
2, 66006, Note_on_c, 10, 45, 127
2, 66006, Note_on_c, 10, 57, 127
2, 66124, Note_off_c, 10, 57, 127
2, 66124, Note_off_c, 10, 45, 127
2, 66126, Note_on_c, 12, 47, 127
2, 66126, Note_on_c, 7, 55, 127
2, 66244, Note_off_c, 7, 55, 127
2, 66244, Note_off_c, 12, 47, 127
2, 66246, Note_on_c, 10, 45, 127
2, 66246, Note_on_c, 6, 54, 127
2, 66484, Note_off_c, 6, 54, 127
2, 66484, Note_off_c, 10, 45, 127
2, 66486, Note_on_c, 12, 47, 127
2, 66486, Note_on_c, 7, 55, 127
2, 66604, Note_off_c, 12, 47, 127
2, 66606, Note_on_c, 0, 48, 127
2, 66724, Note_off_c, 0, 48, 127
2, 66724, Note_off_c, 7, 55, 127
2, 66726, Note_on_c, 12, 47, 127
2, 66726, Note_on_c, 10, 57, 127
2, 66804, Note_off_c, 10, 57, 127
2, 66806, Note_on_c, 7, 55, 127
2, 66884, Note_off_c, 7, 55, 127
2, 66886, Note_on_c, 10, 57, 127
2, 66964, Note_off_c, 10, 57, 127
2, 66964, Note_off_c, 12, 47, 127
2, 66966, Note_on_c, 0, 48, 127
2, 66966, Note_on_c, 7, 55, 127
2, 67044, Note_off_c, 7, 55, 127
2, 67046, Note_on_c, 10, 57, 127
2, 67084, Note_off_c, 0, 48, 127
2, 67086, Note_on_c, 2, 50, 127
2, 67124, Note_off_c, 10, 57, 127
2, 67126, Note_on_c, 7, 55, 127
2, 67204, Note_off_c, 7, 55, 127
2, 67204, Note_off_c, 2, 50, 127
2, 67206, Note_on_c, 7, 43, 127
2, 67206, Note_on_c, 10, 57, 127
2, 67284, Note_off_c, 10, 57, 127
2, 67286, Note_on_c, 7, 55, 127
2, 67364, Note_off_c, 7, 55, 127
2, 67366, Note_on_c, 10, 57, 127
2, 67444, Note_off_c, 10, 57, 127
2, 67444, Note_off_c, 7, 43, 127
2, 67446, Note_on_c, 10, 45, 127
2, 67446, Note_on_c, 7, 55, 127
2, 67524, Note_off_c, 7, 55, 127
2, 67526, Note_on_c, 6, 54, 127
2, 67564, Note_off_c, 10, 45, 127
2, 67566, Note_on_c, 12, 47, 127
2, 67604, Note_off_c, 6, 54, 127
2, 67606, Note_on_c, 7, 55, 127
2, 67684, Note_off_c, 7, 55, 127
2, 67684, Note_off_c, 12, 47, 127
2, 67686, Note_on_c, 2, 38, 127
2, 67686, Note_on_c, 10, 57, 127
2, 67924, Note_off_c, 10, 57, 127
2, 67926, Note_on_c, 7, 55, 127
2, 68164, Note_off_c, 7, 55, 127
2, 68164, Note_off_c, 2, 38, 127
2, 68166, Note_on_c, 2, 50, 127
2, 68166, Note_on_c, 6, 54, 127
2, 68404, Note_off_c, 6, 54, 127
2, 68406, Note_on_c, 4, 52, 127
2, 68641, Note_off_c, 2, 50, 127
2, 68643, Note_off_c, 4, 52, 127
2, 68645, Note_on_c, 2, 50, 127
2, 68885, Note_on_c, 0, 48, 127
2, 69123, Note_off_c, 0, 48, 127
2, 69123, Note_off_c, 2, 50, 127
2, 69125, Note_on_c, 12, 47, 127
2, 69125, Note_on_c, 2, 62, 127
2, 69363, Note_off_c, 12, 47, 127
2, 69365, Note_on_c, 0, 48, 127
2, 69483, Note_off_c, 0, 48, 127
2, 69485, Note_on_c, 2, 50, 127
2, 69603, Note_off_c, 2, 50, 127
2, 69603, Note_off_c, 2, 62, 127
2, 69605, Note_on_c, 0, 48, 127
2, 69605, Note_on_c, 4, 64, 127
2, 69843, Note_off_c, 4, 64, 127
2, 69843, Note_off_c, 0, 48, 127
2, 69845, Note_on_c, 2, 50, 127
2, 69845, Note_on_c, 6, 66, 127
2, 69963, Note_off_c, 6, 66, 127
2, 69963, Note_off_c, 2, 50, 127
2, 69965, Note_on_c, 4, 52, 127
2, 69965, Note_on_c, 7, 67, 127
2, 70083, Note_off_c, 7, 67, 127
2, 70083, Note_off_c, 4, 52, 127
2, 70085, Note_on_c, 10, 45, 127
2, 70085, Note_on_c, 6, 66, 127
2, 70323, Note_off_c, 6, 66, 127
2, 70323, Note_off_c, 10, 45, 127
2, 70325, Note_on_c, 12, 47, 127
2, 70325, Note_on_c, 7, 67, 127
2, 70443, Note_off_c, 7, 67, 127
2, 70443, Note_off_c, 12, 47, 127
2, 70445, Note_on_c, 0, 48, 127
2, 70445, Note_on_c, 10, 69, 127
2, 70563, Note_off_c, 10, 69, 127
2, 70563, Note_off_c, 0, 48, 127
2, 70565, Note_on_c, 12, 47, 127
2, 70565, Note_on_c, 7, 67, 127
2, 70684, Note_off_c, 7, 67, 127
2, 70685, Note_on_c, 6, 66, 127
2, 70803, Note_off_c, 12, 47, 127
2, 70804, Note_off_c, 6, 66, 127
2, 70805, Note_on_c, 0, 48, 127
2, 70805, Note_on_c, 7, 67, 127
2, 70923, Note_off_c, 0, 48, 127
2, 70925, Note_on_c, 2, 50, 127
2, 71043, Note_off_c, 2, 50, 127
2, 71045, Note_on_c, 4, 52, 127
2, 71280, Note_off_c, 7, 67, 127
2, 71282, Note_off_c, 4, 52, 127
2, 71284, Note_on_c, 6, 54, 127
2, 71284, Note_on_c, 10, 69, 127
2, 71402, Note_off_c, 10, 69, 127
2, 71402, Note_off_c, 6, 54, 127
2, 71404, Note_on_c, 7, 55, 127
2, 71404, Note_on_c, 12, 71, 127
2, 71522, Note_off_c, 12, 71, 127
2, 71522, Note_off_c, 7, 55, 127
2, 71524, Note_on_c, 6, 54, 127
2, 71524, Note_on_c, 10, 69, 127
2, 71762, Note_off_c, 10, 69, 127
2, 71762, Note_off_c, 6, 54, 127
2, 71764, Note_on_c, 7, 55, 127
2, 71764, Note_on_c, 12, 71, 127
2, 71882, Note_off_c, 12, 71, 127
2, 71882, Note_off_c, 7, 55, 127
2, 71884, Note_on_c, 10, 57, 127
2, 71884, Note_on_c, 0, 72, 127
2, 72002, Note_off_c, 0, 72, 127
2, 72002, Note_off_c, 10, 57, 127
2, 72004, Note_on_c, 7, 55, 127
2, 72004, Note_on_c, 12, 71, 127
2, 72242, Note_off_c, 12, 71, 127
2, 72242, Note_off_c, 7, 55, 127
2, 72244, Note_on_c, 10, 57, 127
2, 72244, Note_on_c, 6, 66, 127
2, 72482, Note_off_c, 6, 66, 127
2, 72482, Note_off_c, 10, 57, 127
2, 72484, Note_on_c, 12, 59, 127
2, 72484, Note_on_c, 7, 67, 127
2, 72722, Note_off_c, 7, 67, 127
2, 72722, Note_off_c, 12, 59, 127
2, 72724, Note_on_c, 7, 55, 127
2, 72724, Note_on_c, 2, 62, 127
2, 72962, Note_off_c, 2, 62, 127
2, 72962, Note_off_c, 7, 55, 127
2, 72964, Note_on_c, 0, 60, 127
2, 72964, Note_on_c, 4, 64, 127
2, 73202, Note_off_c, 4, 64, 127
2, 73202, Note_off_c, 0, 60, 127
2, 73204, Note_on_c, 12, 59, 127
2, 73204, Note_on_c, 7, 67, 127
2, 73442, Note_off_c, 7, 67, 127
2, 73442, Note_off_c, 12, 59, 127
2, 73444, Note_on_c, 10, 57, 127
2, 73444, Note_on_c, 2, 62, 127
2, 73682, Note_off_c, 2, 62, 127
2, 73682, Note_off_c, 10, 57, 127
2, 73684, Note_on_c, 4, 52, 127
2, 73684, Note_on_c, 0, 60, 127
2, 73764, Note_off_c, 0, 60, 127
2, 73764, Note_on_c, 2, 62, 127
2, 73844, Note_off_c, 2, 62, 127
2, 73844, Note_on_c, 0, 60, 127
2, 73922, Note_off_c, 4, 52, 127
2, 73924, Note_off_c, 0, 60, 127
2, 73924, Note_on_c, 6, 54, 127
2, 73924, Note_on_c, 2, 62, 127
2, 74004, Note_off_c, 2, 62, 127
2, 74004, Note_on_c, 0, 60, 127
2, 74084, Note_off_c, 0, 60, 127
2, 74084, Note_on_c, 2, 62, 127
2, 74162, Note_off_c, 6, 54, 127
2, 74164, Note_off_c, 2, 62, 127
2, 74164, Note_on_c, 2, 50, 127
2, 74164, Note_on_c, 0, 60, 127
2, 74244, Note_off_c, 0, 60, 127
2, 74244, Note_on_c, 12, 59, 127
2, 74324, Note_off_c, 12, 59, 127
2, 74324, Note_on_c, 0, 60, 127
2, 74402, Note_off_c, 2, 50, 127
2, 74404, Note_off_c, 0, 60, 127
2, 74404, Note_on_c, 7, 55, 127
2, 74404, Note_on_c, 12, 59, 127
2, 74642, Note_off_c, 7, 55, 127
2, 74644, Note_on_c, 12, 47, 127
2, 74882, Note_off_c, 12, 47, 127
2, 74882, Note_off_c, 12, 59, 127
2, 74884, Note_on_c, 0, 48, 127
2, 74884, Note_on_c, 4, 64, 127
2, 75122, Note_off_c, 4, 64, 127
2, 75124, Note_on_c, 6, 66, 127
2, 75242, Note_off_c, 6, 66, 127
2, 75244, Note_on_c, 7, 67, 127
2, 75362, Note_off_c, 7, 67, 127
2, 75364, Note_on_c, 10, 69, 127
2, 75559, Note_off_c, 0, 48, 127
2, 75601, Note_off_c, 10, 69, 127
2, 75603, Note_on_c, 2, 50, 127
2, 75603, Note_on_c, 12, 71, 127
2, 75721, Note_off_c, 12, 71, 127
2, 75721, Note_off_c, 2, 50, 127
2, 75723, Note_on_c, 4, 52, 127
2, 75723, Note_on_c, 0, 72, 127
2, 75841, Note_off_c, 0, 72, 127
2, 75841, Note_off_c, 4, 52, 127
2, 75843, Note_on_c, 10, 45, 127
2, 75843, Note_on_c, 6, 66, 127
2, 76081, Note_off_c, 6, 66, 127
2, 76081, Note_off_c, 10, 45, 127
2, 76083, Note_on_c, 12, 47, 127
2, 76083, Note_on_c, 7, 67, 127
2, 76201, Note_off_c, 7, 67, 127
2, 76201, Note_off_c, 12, 47, 127
2, 76203, Note_on_c, 0, 48, 127
2, 76203, Note_on_c, 10, 69, 127
2, 76321, Note_off_c, 10, 69, 127
2, 76321, Note_off_c, 0, 48, 127
2, 76323, Note_on_c, 12, 47, 127
2, 76323, Note_on_c, 2, 62, 127
2, 76561, Note_off_c, 2, 62, 127
2, 76563, Note_on_c, 4, 64, 127
2, 76681, Note_off_c, 4, 64, 127
2, 76683, Note_on_c, 6, 66, 127
2, 76801, Note_off_c, 6, 66, 127
2, 76803, Note_on_c, 7, 67, 127
2, 76998, Note_off_c, 12, 47, 127
2, 77040, Note_off_c, 7, 67, 127
2, 77042, Note_on_c, 0, 48, 127
2, 77042, Note_on_c, 10, 69, 127
2, 77160, Note_off_c, 10, 69, 127
2, 77160, Note_off_c, 0, 48, 127
2, 77162, Note_on_c, 2, 50, 127
2, 77162, Note_on_c, 12, 71, 127
2, 77280, Note_off_c, 12, 71, 127
2, 77280, Note_off_c, 2, 50, 127
2, 77282, Note_on_c, 0, 48, 127
2, 77282, Note_on_c, 4, 64, 127
2, 77520, Note_off_c, 4, 64, 127
2, 77520, Note_off_c, 0, 48, 127
2, 77522, Note_on_c, 2, 50, 127
2, 77522, Note_on_c, 6, 66, 127
2, 77640, Note_off_c, 6, 66, 127
2, 77640, Note_off_c, 2, 50, 127
2, 77642, Note_on_c, 4, 52, 127
2, 77642, Note_on_c, 7, 67, 127
2, 77760, Note_off_c, 7, 67, 127
2, 77760, Note_off_c, 4, 52, 127
2, 77762, Note_on_c, 10, 45, 127
2, 77762, Note_on_c, 0, 60, 127
2, 78000, Note_off_c, 0, 60, 127
2, 78000, Note_off_c, 10, 45, 127
2, 78002, Note_on_c, 12, 47, 127
2, 78002, Note_on_c, 2, 62, 127
2, 78120, Note_off_c, 2, 62, 127
2, 78120, Note_off_c, 12, 47, 127
2, 78122, Note_on_c, 0, 48, 127
2, 78122, Note_on_c, 4, 64, 127
2, 78240, Note_off_c, 4, 64, 127
2, 78240, Note_off_c, 0, 48, 127
2, 78242, Note_on_c, 2, 50, 127
2, 78242, Note_on_c, 12, 59, 127
2, 78402, Note_off_c, 12, 59, 127
2, 78402, Note_on_c, 10, 57, 127
2, 78480, Note_off_c, 2, 50, 127
2, 78482, Note_off_c, 10, 57, 127
2, 78482, Note_on_c, 0, 48, 127
2, 78482, Note_on_c, 12, 59, 127
2, 78562, Note_off_c, 12, 59, 127
2, 78562, Note_on_c, 10, 57, 127
2, 78642, Note_off_c, 10, 57, 127
2, 78642, Note_on_c, 12, 59, 127
2, 78720, Note_off_c, 0, 48, 127
2, 78722, Note_off_c, 12, 59, 127
2, 78722, Note_on_c, 2, 50, 127
2, 78722, Note_on_c, 10, 57, 127
2, 78960, Note_off_c, 10, 57, 127
2, 78960, Note_off_c, 2, 50, 127
2, 78962, Note_on_c, 2, 38, 127
2, 78962, Note_on_c, 7, 55, 127
2, 79200, Note_off_c, 7, 55, 127
2, 79200, Note_off_c, 2, 38, 127
2, 79202, Note_on_c, 7, 43, 127
2, 79202, Note_on_c, 7, 55, 127
2, 79440, Note_off_c, 7, 43, 127
2, 79442, Note_on_c, 12, 47, 127
2, 79680, Note_off_c, 12, 47, 127
2, 79682, Note_on_c, 2, 50, 127
2, 79920, Note_off_c, 2, 50, 127
2, 79922, Note_on_c, 12, 47, 127
2, 80160, Note_off_c, 12, 47, 127
2, 80162, Note_on_c, 7, 43, 127
2, 80640, Note_off_c, 7, 43, 127
2, 80640, Note_off_c, 7, 55, 127
2, 80658, Note_on_c, 12, 71, 127
2, 80658, Note_on_c, 7, 55, 127
2, 81138, Note_on_c, 10, 57, 127
2, 81376, Note_off_c, 10, 57, 127
2, 81376, Note_off_c, 12, 71, 127
2, 81378, Note_on_c, 10, 69, 127
2, 81378, Note_on_c, 12, 59, 127
2, 81496, Note_off_c, 10, 69, 127
2, 81498, Note_on_c, 7, 67, 127
2, 81616, Note_off_c, 7, 67, 127
2, 81616, Note_off_c, 12, 59, 127
2, 81618, Note_on_c, 6, 66, 127
2, 81618, Note_on_c, 0, 60, 127
2, 81856, Note_off_c, 0, 60, 127
2, 81856, Note_off_c, 6, 66, 127
2, 81858, Note_on_c, 7, 67, 127
2, 81858, Note_on_c, 10, 57, 127
2, 81976, Note_off_c, 7, 67, 127
2, 81978, Note_on_c, 4, 64, 127
2, 82096, Note_off_c, 4, 64, 127
2, 82096, Note_off_c, 10, 57, 127
2, 82096, Note_off_c, 7, 55, 127
2, 82098, Note_on_c, 3, 63, 127
2, 82098, Note_on_c, 6, 54, 127
2, 82338, Note_on_c, 10, 57, 127
2, 82576, Note_off_c, 10, 57, 127
2, 82578, Note_on_c, 12, 59, 127
2, 82816, Note_off_c, 12, 59, 127
2, 82816, Note_off_c, 3, 63, 127
2, 82818, Note_on_c, 4, 64, 127
2, 82818, Note_on_c, 0, 60, 127
2, 82936, Note_off_c, 4, 64, 127
2, 82938, Note_on_c, 6, 66, 127
2, 83056, Note_off_c, 6, 66, 127
2, 83057, Note_off_c, 6, 54, 127
2, 83058, Note_on_c, 7, 67, 127
2, 83058, Note_on_c, 4, 52, 127
2, 83293, Note_off_c, 0, 60, 127
2, 83295, Note_off_c, 7, 67, 127
2, 83297, Note_on_c, 10, 69, 127
2, 83297, Note_on_c, 0, 60, 127
2, 83415, Note_off_c, 10, 69, 127
2, 83417, Note_on_c, 12, 71, 127
2, 83532, Note_off_c, 4, 52, 127
2, 83534, Note_off_c, 12, 71, 127
2, 83536, Note_on_c, 0, 72, 127
2, 83536, Note_on_c, 3, 51, 127
2, 83771, Note_off_c, 0, 60, 127
2, 83773, Note_off_c, 0, 72, 127
2, 83775, Note_on_c, 12, 71, 127
2, 83775, Note_on_c, 0, 60, 127
2, 83893, Note_off_c, 12, 71, 127
2, 83895, Note_on_c, 10, 69, 127
2, 84013, Note_off_c, 10, 69, 127
2, 84013, Note_off_c, 0, 60, 127
2, 84015, Note_on_c, 3, 75, 127
2, 84015, Note_on_c, 12, 59, 127
2, 84253, Note_off_c, 12, 59, 127
2, 84253, Note_off_c, 3, 75, 127
2, 84255, Note_on_c, 4, 76, 127
2, 84255, Note_on_c, 10, 57, 127
2, 84373, Note_off_c, 4, 76, 127
2, 84375, Note_on_c, 6, 78, 127
2, 84493, Note_off_c, 6, 78, 127
2, 84493, Note_off_c, 10, 57, 127
2, 84495, Note_on_c, 12, 71, 127
2, 84495, Note_on_c, 7, 55, 127
2, 84733, Note_off_c, 7, 55, 127
2, 84733, Note_off_c, 12, 71, 127
2, 84735, Note_on_c, 0, 72, 127
2, 84735, Note_on_c, 6, 54, 127
2, 84853, Note_off_c, 0, 72, 127
2, 84855, Note_on_c, 10, 69, 127
2, 84973, Note_off_c, 10, 69, 127
2, 84973, Note_off_c, 6, 54, 127
2, 84973, Note_off_c, 3, 51, 127
2, 84975, Note_on_c, 10, 69, 127
2, 84975, Note_on_c, 4, 52, 127
2, 85135, Note_off_c, 10, 69, 127
2, 85135, Note_on_c, 7, 67, 127
2, 85213, Note_off_c, 7, 67, 127
2, 85213, Note_off_c, 4, 52, 127
2, 85215, Note_on_c, 10, 69, 127
2, 85215, Note_on_c, 3, 51, 127
2, 85293, Note_off_c, 10, 69, 127
2, 85295, Note_on_c, 7, 67, 127
2, 85373, Note_off_c, 7, 67, 127
2, 85375, Note_on_c, 10, 69, 127
2, 85453, Note_off_c, 10, 69, 127
2, 85453, Note_off_c, 3, 51, 127
2, 85455, Note_on_c, 7, 67, 127
2, 85455, Note_on_c, 4, 52, 127
2, 85693, Note_off_c, 4, 52, 127
2, 85693, Note_off_c, 7, 67, 127
2, 85695, Note_on_c, 6, 66, 127
2, 85695, Note_on_c, 12, 47, 127
2, 85933, Note_off_c, 12, 47, 127
2, 85933, Note_off_c, 6, 66, 127
2, 85935, Note_on_c, 4, 64, 127
2, 85935, Note_on_c, 7, 43, 127
2, 86173, Note_off_c, 7, 43, 127
2, 86175, Note_on_c, 12, 47, 127
2, 86413, Note_off_c, 12, 47, 127
2, 86413, Note_off_c, 4, 64, 127
2, 86415, Note_on_c, 1, 73, 127
2, 86415, Note_on_c, 4, 40, 127
2, 86653, Note_off_c, 4, 40, 127
2, 86655, Note_on_c, 4, 52, 127
2, 86773, Note_off_c, 4, 52, 127
2, 86775, Note_on_c, 2, 50, 127
2, 86893, Note_off_c, 2, 50, 127
2, 86895, Note_on_c, 4, 52, 127
2, 87133, Note_off_c, 4, 52, 127
2, 87133, Note_off_c, 1, 73, 127
2, 87135, Note_on_c, 2, 74, 127
2, 87135, Note_on_c, 6, 54, 127
2, 87253, Note_off_c, 2, 74, 127
2, 87255, Note_on_c, 4, 76, 127
2, 87373, Note_off_c, 4, 76, 127
2, 87373, Note_off_c, 6, 54, 127
2, 87375, Note_on_c, 11, 70, 127
2, 87375, Note_on_c, 7, 55, 127
2, 87613, Note_off_c, 7, 55, 127
2, 87613, Note_off_c, 11, 70, 127
2, 87615, Note_on_c, 12, 71, 127
2, 87615, Note_on_c, 4, 52, 127
2, 87733, Note_off_c, 12, 71, 127
2, 87735, Note_on_c, 1, 73, 127
2, 87853, Note_off_c, 1, 73, 127
2, 87853, Note_off_c, 4, 52, 127
2, 87855, Note_on_c, 6, 66, 127
2, 87855, Note_on_c, 11, 58, 127
2, 88095, Note_on_c, 7, 55, 127
2, 88333, Note_off_c, 7, 55, 127
2, 88335, Note_on_c, 6, 54, 127
2, 88573, Note_off_c, 6, 54, 127
2, 88573, Note_off_c, 6, 66, 127
2, 88575, Note_on_c, 8, 68, 127
2, 88575, Note_on_c, 4, 52, 127
2, 88693, Note_off_c, 8, 68, 127
2, 88695, Note_on_c, 11, 70, 127
2, 88813, Note_off_c, 11, 70, 127
2, 88813, Note_off_c, 4, 52, 127
2, 88814, Note_off_c, 11, 58, 127
2, 88815, Note_on_c, 12, 71, 127
2, 88815, Note_on_c, 2, 50, 127
2, 89053, Note_off_c, 2, 50, 127
2, 89053, Note_off_c, 12, 71, 127
2, 89055, Note_on_c, 1, 73, 127
2, 89055, Note_on_c, 12, 59, 127
2, 89173, Note_off_c, 1, 73, 127
2, 89175, Note_on_c, 2, 74, 127
2, 89293, Note_off_c, 2, 74, 127
2, 89293, Note_off_c, 12, 59, 127
2, 89295, Note_on_c, 4, 76, 127
2, 89295, Note_on_c, 7, 55, 127
2, 89533, Note_off_c, 7, 55, 127
2, 89533, Note_off_c, 4, 76, 127
2, 89535, Note_on_c, 6, 78, 127
2, 89535, Note_on_c, 4, 52, 127
2, 89653, Note_off_c, 6, 78, 127
2, 89655, Note_on_c, 7, 79, 127
2, 89773, Note_off_c, 7, 79, 127
2, 89773, Note_off_c, 4, 52, 127
2, 89775, Note_on_c, 2, 74, 127
2, 89775, Note_on_c, 6, 54, 127
2, 89935, Note_off_c, 2, 74, 127
2, 89935, Note_on_c, 1, 73, 127
2, 90013, Note_off_c, 6, 54, 127
2, 90015, Note_off_c, 1, 73, 127
2, 90015, Note_on_c, 2, 74, 127
2, 90015, Note_on_c, 4, 52, 127
2, 90095, Note_off_c, 2, 74, 127
2, 90095, Note_on_c, 1, 73, 127
2, 90175, Note_off_c, 1, 73, 127
2, 90175, Note_on_c, 2, 74, 127
2, 90253, Note_off_c, 4, 52, 127
2, 90255, Note_off_c, 2, 74, 127
2, 90255, Note_on_c, 1, 73, 127
2, 90255, Note_on_c, 6, 54, 127
2, 90493, Note_off_c, 6, 54, 127
2, 90493, Note_off_c, 1, 73, 127
2, 90495, Note_on_c, 12, 71, 127
2, 90495, Note_on_c, 6, 42, 127
2, 90733, Note_off_c, 6, 42, 127
2, 90733, Note_off_c, 12, 71, 127
2, 90735, Note_on_c, 12, 71, 127
2, 90735, Note_on_c, 12, 47, 127
2, 90973, Note_off_c, 12, 47, 127
2, 90975, Note_on_c, 2, 50, 127
2, 91213, Note_off_c, 2, 50, 127
2, 91215, Note_on_c, 6, 54, 127
2, 91453, Note_off_c, 6, 54, 127
2, 91455, Note_on_c, 2, 50, 127
2, 91693, Note_off_c, 2, 50, 127
2, 91695, Note_on_c, 12, 47, 127
2, 91933, Note_off_c, 12, 47, 127
2, 91935, Note_off_c, 12, 71, 127
2, 91935, Note_on_c, 2, 50, 127
2, 92173, Note_off_c, 2, 50, 127
2, 92175, Note_on_c, 2, 62, 127
2, 92175, Note_on_c, 8, 44, 127
2, 92413, Note_off_c, 8, 44, 127
2, 92415, Note_on_c, 12, 47, 127
2, 92653, Note_off_c, 12, 47, 127
2, 92655, Note_on_c, 4, 52, 127
2, 92893, Note_off_c, 4, 52, 127
2, 92893, Note_off_c, 2, 62, 127
2, 92895, Note_on_c, 4, 64, 127
2, 92895, Note_on_c, 12, 47, 127
2, 93013, Note_off_c, 4, 64, 127
2, 93015, Note_on_c, 5, 65, 127
2, 93133, Note_off_c, 5, 65, 127
2, 93133, Note_off_c, 12, 47, 127
2, 93135, Note_on_c, 4, 64, 127
2, 93135, Note_on_c, 8, 44, 127
2, 93373, Note_off_c, 8, 44, 127
2, 93373, Note_off_c, 4, 64, 127
2, 93375, Note_on_c, 5, 65, 127
2, 93375, Note_on_c, 4, 52, 127
2, 93493, Note_off_c, 5, 65, 127
2, 93495, Note_on_c, 2, 62, 127
2, 93613, Note_off_c, 2, 62, 127
2, 93613, Note_off_c, 4, 52, 127
2, 93615, Note_on_c, 2, 62, 127
2, 93615, Note_on_c, 10, 45, 127
2, 93775, Note_off_c, 2, 62, 127
2, 93775, Note_on_c, 0, 60, 127
2, 93853, Note_off_c, 10, 45, 127
2, 93855, Note_off_c, 0, 60, 127
2, 93855, Note_on_c, 2, 62, 127
2, 93855, Note_on_c, 0, 48, 127
2, 93935, Note_off_c, 2, 62, 127
2, 93935, Note_on_c, 0, 60, 127
2, 94015, Note_off_c, 0, 60, 127
2, 94015, Note_on_c, 2, 62, 127
2, 94093, Note_off_c, 0, 48, 127
2, 94095, Note_off_c, 2, 62, 127
2, 94095, Note_on_c, 0, 60, 127
2, 94095, Note_on_c, 4, 52, 127
2, 94333, Note_off_c, 4, 52, 127
2, 94333, Note_off_c, 0, 60, 127
2, 94335, Note_on_c, 12, 59, 127
2, 94335, Note_on_c, 7, 55, 127
2, 94573, Note_off_c, 7, 55, 127
2, 94573, Note_off_c, 12, 59, 127
2, 94575, Note_on_c, 0, 60, 127
2, 94575, Note_on_c, 6, 54, 127
2, 94813, Note_off_c, 6, 54, 127
2, 94813, Note_off_c, 0, 60, 127
2, 94815, Note_on_c, 4, 64, 127
2, 94815, Note_on_c, 4, 52, 127
2, 95053, Note_off_c, 4, 52, 127
2, 95053, Note_off_c, 4, 64, 127
2, 95055, Note_on_c, 10, 69, 127
2, 95055, Note_on_c, 6, 54, 127
2, 95293, Note_off_c, 6, 54, 127
2, 95295, Note_on_c, 7, 55, 127
2, 95413, Note_off_c, 7, 55, 127
2, 95415, Note_on_c, 10, 57, 127
2, 95533, Note_off_c, 10, 57, 127
2, 95535, Note_on_c, 2, 50, 127
2, 95773, Note_off_c, 2, 50, 127
2, 95773, Note_off_c, 10, 69, 127
2, 95775, Note_on_c, 0, 60, 127
2, 95775, Note_on_c, 4, 52, 127
2, 95893, Note_off_c, 4, 52, 127
2, 95895, Note_on_c, 6, 54, 127
2, 96013, Note_off_c, 6, 54, 127
2, 96013, Note_off_c, 0, 60, 127
2, 96015, Note_on_c, 12, 59, 127
2, 96015, Note_on_c, 7, 55, 127
2, 96253, Note_off_c, 7, 55, 127
2, 96253, Note_off_c, 12, 59, 127
2, 96255, Note_on_c, 0, 60, 127
2, 96255, Note_on_c, 10, 57, 127
2, 96373, Note_off_c, 10, 57, 127
2, 96373, Note_off_c, 0, 60, 127
2, 96375, Note_on_c, 2, 62, 127
2, 96375, Note_on_c, 12, 59, 127
2, 96493, Note_off_c, 12, 59, 127
2, 96493, Note_off_c, 2, 62, 127
2, 96495, Note_on_c, 12, 59, 127
2, 96495, Note_on_c, 2, 50, 127
2, 96733, Note_off_c, 12, 59, 127
2, 96735, Note_on_c, 10, 57, 127
2, 96973, Note_off_c, 10, 57, 127
2, 96973, Note_off_c, 2, 50, 127
2, 96975, Note_on_c, 7, 55, 127
2, 96975, Note_on_c, 10, 45, 127
2, 97213, Note_off_c, 7, 55, 127
2, 97215, Note_on_c, 6, 54, 127
2, 97453, Note_off_c, 6, 54, 127
2, 97453, Note_off_c, 10, 45, 127
2, 97455, Note_on_c, 4, 52, 127
2, 97455, Note_on_c, 0, 48, 127
2, 97693, Note_off_c, 4, 52, 127
2, 97695, Note_on_c, 2, 50, 127
2, 97895, Note_off_c, 2, 50, 127
2, 97933, Note_off_c, 0, 48, 127
2, 97935, Note_on_c, 7, 55, 127
2, 97935, Note_on_c, 12, 47, 127
2, 98173, Note_off_c, 12, 47, 127
2, 98175, Note_on_c, 0, 48, 127
2, 98293, Note_off_c, 0, 48, 127
2, 98295, Note_on_c, 2, 50, 127
2, 98413, Note_off_c, 2, 50, 127
2, 98415, Note_on_c, 4, 52, 127
2, 98653, Note_off_c, 4, 52, 127
2, 98653, Note_off_c, 7, 55, 127
2, 98655, Note_on_c, 10, 57, 127
2, 98655, Note_on_c, 6, 54, 127
2, 98773, Note_off_c, 6, 54, 127
2, 98773, Note_off_c, 10, 57, 127
2, 98775, Note_on_c, 12, 59, 127
2, 98775, Note_on_c, 7, 55, 127
2, 98893, Note_off_c, 7, 55, 127
2, 98893, Note_off_c, 12, 59, 127
2, 98895, Note_on_c, 0, 60, 127
2, 98895, Note_on_c, 10, 45, 127
2, 99133, Note_off_c, 10, 45, 127
2, 99133, Note_off_c, 0, 60, 127
2, 99135, Note_on_c, 2, 62, 127
2, 99135, Note_on_c, 12, 47, 127
2, 99253, Note_off_c, 12, 47, 127
2, 99253, Note_off_c, 2, 62, 127
2, 99255, Note_on_c, 4, 64, 127
2, 99255, Note_on_c, 0, 48, 127
2, 99373, Note_off_c, 0, 48, 127
2, 99373, Note_off_c, 4, 64, 127
2, 99375, Note_on_c, 6, 54, 127
2, 99375, Note_on_c, 2, 50, 127
2, 99613, Note_off_c, 2, 50, 127
2, 99613, Note_off_c, 6, 54, 127
2, 99615, Note_on_c, 7, 55, 127
2, 99615, Note_on_c, 4, 52, 127
2, 99733, Note_off_c, 4, 52, 127
2, 99733, Note_off_c, 7, 55, 127
2, 99735, Note_on_c, 10, 57, 127
2, 99735, Note_on_c, 6, 54, 127
2, 99853, Note_off_c, 6, 54, 127
2, 99853, Note_off_c, 10, 57, 127
2, 99855, Note_on_c, 12, 59, 127
2, 99855, Note_on_c, 7, 43, 127
2, 100093, Note_off_c, 7, 43, 127
2, 100093, Note_off_c, 12, 59, 127
2, 100095, Note_on_c, 0, 60, 127
2, 100095, Note_on_c, 10, 45, 127
2, 100213, Note_off_c, 10, 45, 127
2, 100213, Note_off_c, 0, 60, 127
2, 100215, Note_on_c, 2, 62, 127
2, 100215, Note_on_c, 12, 47, 127
2, 100333, Note_off_c, 12, 47, 127
2, 100333, Note_off_c, 2, 62, 127
2, 100335, Note_on_c, 4, 64, 127
2, 100335, Note_on_c, 0, 48, 127
2, 100573, Note_off_c, 4, 64, 127
2, 100575, Note_on_c, 6, 66, 127
2, 100693, Note_off_c, 6, 66, 127
2, 100695, Note_on_c, 7, 67, 127
2, 100813, Note_off_c, 7, 67, 127
2, 100815, Note_on_c, 10, 69, 127
2, 101058, Note_off_c, 10, 69, 127
2, 101058, Note_off_c, 0, 48, 127
2, 101061, Note_on_c, 6, 66, 127
2, 101061, Note_on_c, 12, 47, 127
2, 101181, Note_off_c, 12, 47, 127
2, 101181, Note_off_c, 6, 66, 127
2, 101184, Note_on_c, 7, 67, 127
2, 101184, Note_on_c, 10, 45, 127
2, 101304, Note_off_c, 10, 45, 127
2, 101304, Note_off_c, 7, 67, 127
2, 101307, Note_on_c, 0, 60, 127
2, 101307, Note_on_c, 2, 50, 127
2, 101555, Note_off_c, 2, 50, 127
2, 101555, Note_off_c, 0, 60, 127
2, 101558, Note_on_c, 12, 59, 127
2, 101558, Note_on_c, 0, 48, 127
2, 101806, Note_off_c, 0, 48, 127
2, 101806, Note_off_c, 12, 59, 127
2, 101809, Note_on_c, 10, 57, 127
2, 101809, Note_on_c, 2, 50, 127
2, 102057, Note_off_c, 2, 50, 127
2, 102057, Note_off_c, 10, 57, 127
2, 102060, Note_on_c, 7, 55, 127
2, 102060, Note_on_c, 2, 38, 127
2, 102308, Note_off_c, 2, 38, 127
2, 102308, Note_off_c, 7, 55, 127
2, 102311, Note_on_c, 7, 55, 127
2, 102311, Note_on_c, 7, 43, 127
2, 102592, Note_on_c, 2, 50, 127
2, 102870, Note_off_c, 2, 50, 127
2, 102873, Note_on_c, 12, 47, 127
2, 103153, Note_off_c, 7, 43, 127
2, 103154, Note_on_c, 7, 43, 127
2, 103429, Note_off_c, 12, 47, 127
2, 103432, Note_off_c, 7, 43, 127
2, 103435, Note_on_c, 7, 43, 127
2, 104360, Note_off_c, 7, 55, 127
2, 105118, Note_off_c, 7, 43, 127
2, 110592, End_track
3, 0, Start_track
3, 0, Title_t, "MIDI"
3, 1536, End_track
0, 0, End_of_file
