0, 0, Header, 0, 1, 384
1, 0, Start_track
1, 0, Copyright_t, "(C) John Sankey 1998"
1, 0, Program_c, 0, 6
1, 0, Pitch_bend_c, 0, 8192
1, 0, Program_c, 1, 6
1, 0, Pitch_bend_c, 1, 7792
1, 0, Program_c, 2, 6
1, 0, Pitch_bend_c, 2, 7876
1, 0, Program_c, 3, 6
1, 0, Pitch_bend_c, 3, 7952
1, 0, Program_c, 4, 6
1, 0, Pitch_bend_c, 4, 7792
1, 0, Program_c, 5, 6
1, 0, Pitch_bend_c, 5, 8112
1, 0, Program_c, 6, 6
1, 0, Pitch_bend_c, 6, 7712
1, 0, Program_c, 7, 6
1, 0, Pitch_bend_c, 7, 8037
1, 0, Program_c, 8, 6
1, 0, Pitch_bend_c, 8, 7872
1, 0, Program_c, 10, 6
1, 0, Pitch_bend_c, 10, 7712
1, 0, Program_c, 11, 6
1, 0, Pitch_bend_c, 11, 8032
1, 0, Program_c, 12, 6
1, 0, Pitch_bend_c, 12, 7872
1, 0, Tempo, 500000
1, 50, Note_on_c, 2, 50, 127
1, 251, Note_on_c, 2, 74, 127
1, 449, Note_off_c, 2, 74, 127
1, 451, Note_on_c, 1, 73, 127
1, 649, Note_off_c, 1, 73, 127
1, 651, Note_on_c, 2, 74, 127
1, 849, Note_off_c, 2, 74, 127
1, 852, Note_on_c, 10, 69, 127
1, 1185, Note_off_c, 10, 69, 127
1, 1252, Note_on_c, 11, 70, 127
1, 2050, Note_off_c, 11, 70, 127
1, 2053, Note_on_c, 10, 69, 127
1, 2251, Note_off_c, 10, 69, 127
1, 2253, Note_on_c, 7, 67, 127
1, 2451, Note_off_c, 7, 67, 127
1, 2453, Note_on_c, 10, 69, 127
1, 2654, Note_on_c, 5, 65, 127
1, 2852, Note_off_c, 5, 65, 127
1, 2854, Note_on_c, 4, 64, 127
1, 3052, Note_off_c, 4, 64, 127
1, 3054, Note_on_c, 5, 65, 127
1, 3252, Note_off_c, 5, 65, 127
1, 3255, Note_on_c, 1, 61, 127
1, 3442, Note_off_c, 1, 61, 127
1, 3455, Note_on_c, 2, 62, 127
1, 3642, Note_off_c, 2, 62, 127
1, 3652, Note_off_c, 10, 69, 127
1, 3655, Note_on_c, 7, 67, 127
1, 3655, Note_on_c, 4, 64, 127
1, 3853, Note_off_c, 7, 67, 127
1, 3856, Note_on_c, 5, 65, 127
1, 4054, Note_off_c, 5, 65, 127
1, 4056, Note_on_c, 7, 67, 127
1, 4253, Note_off_c, 4, 64, 127
1, 4256, Note_on_c, 4, 64, 127
1, 4457, Note_on_c, 2, 62, 127
1, 4461, Note_off_c, 4, 64, 127
1, 4657, Note_on_c, 1, 61, 127
1, 4660, Note_off_c, 2, 62, 127
1, 4857, Note_on_c, 2, 62, 127
1, 4861, Note_off_c, 1, 61, 127
1, 5055, Note_off_c, 7, 67, 127
1, 5058, Note_on_c, 5, 65, 127
1, 5256, Note_off_c, 5, 65, 127
1, 5258, Note_on_c, 4, 64, 127
1, 5456, Note_off_c, 4, 64, 127
1, 5459, Note_on_c, 5, 65, 127
1, 5657, Note_off_c, 5, 65, 127
1, 5659, Note_on_c, 11, 70, 127
1, 5856, Note_off_c, 2, 62, 127
1, 5859, Note_on_c, 2, 62, 127
1, 6057, Note_off_c, 2, 62, 127
1, 6060, Note_on_c, 1, 61, 127
1, 6250, Note_off_c, 2, 50, 127
1, 6258, Note_off_c, 1, 61, 127
1, 6260, Note_on_c, 2, 62, 127
1, 6460, Note_on_c, 7, 67, 127
1, 6658, Note_off_c, 11, 70, 127
1, 6661, Note_on_c, 10, 69, 127
1, 6859, Note_off_c, 10, 69, 127
1, 6861, Note_on_c, 11, 70, 127
1, 7058, Note_off_c, 7, 67, 127
1, 7061, Note_on_c, 7, 67, 127
1, 7259, Note_off_c, 11, 70, 127
1, 7262, Note_on_c, 10, 69, 127
1, 7450, Note_off_c, 2, 62, 127
1, 7459, Note_off_c, 7, 67, 127
1, 7462, Note_on_c, 5, 65, 127
1, 7462, Note_on_c, 2, 62, 127
1, 7660, Note_off_c, 2, 62, 127
1, 7660, Note_off_c, 5, 65, 127
1, 7662, Note_on_c, 4, 64, 127
1, 7662, Note_on_c, 1, 61, 127
1, 7860, Note_off_c, 1, 61, 127
1, 7860, Note_off_c, 4, 64, 127
1, 7863, Note_on_c, 5, 65, 127
1, 7863, Note_on_c, 2, 62, 127
1, 7971, Note_off_c, 10, 69, 127
1, 8061, Note_off_c, 2, 62, 127
1, 8063, Note_on_c, 2, 74, 127
1, 8063, Note_on_c, 10, 57, 127
1, 8261, Note_off_c, 5, 65, 127
1, 8263, Note_on_c, 5, 65, 127
1, 8418, Note_off_c, 10, 57, 127
1, 8461, Note_off_c, 5, 65, 127
1, 8464, Note_on_c, 7, 67, 127
1, 8464, Note_on_c, 11, 58, 127
1, 8662, Note_off_c, 7, 67, 127
1, 8664, Note_on_c, 5, 65, 127
1, 8862, Note_off_c, 5, 65, 127
1, 8864, Note_on_c, 4, 64, 127
1, 9062, Note_off_c, 2, 74, 127
1, 9065, Note_on_c, 1, 73, 127
1, 9263, Note_off_c, 1, 73, 127
1, 9263, Note_off_c, 11, 58, 127
1, 9265, Note_on_c, 2, 74, 127
1, 9265, Note_on_c, 10, 57, 127
1, 9463, Note_off_c, 10, 57, 127
1, 9463, Note_off_c, 2, 74, 127
1, 9465, Note_on_c, 4, 76, 127
1, 9465, Note_on_c, 7, 55, 127
1, 9663, Note_off_c, 7, 55, 127
1, 9663, Note_off_c, 4, 76, 127
1, 9663, Note_off_c, 4, 64, 127
1, 9666, Note_on_c, 5, 77, 127
1, 9666, Note_on_c, 2, 62, 127
1, 9666, Note_on_c, 10, 57, 127
1, 9866, Note_on_c, 2, 74, 127
1, 10064, Note_off_c, 2, 74, 127
1, 10066, Note_on_c, 1, 73, 127
1, 10264, Note_off_c, 1, 73, 127
1, 10267, Note_on_c, 2, 74, 127
1, 10465, Note_off_c, 2, 74, 127
1, 10467, Note_on_c, 8, 68, 127
1, 10665, Note_off_c, 8, 68, 127
1, 10667, Note_off_c, 2, 62, 127
1, 10667, Note_on_c, 10, 69, 127
1, 10667, Note_on_c, 2, 62, 127
1, 10865, Note_off_c, 2, 62, 127
1, 10865, Note_off_c, 10, 69, 127
1, 10868, Note_on_c, 12, 71, 127
1, 10868, Note_on_c, 1, 61, 127
1, 11066, Note_off_c, 1, 61, 127
1, 11068, Note_on_c, 2, 62, 127
1, 11249, Note_off_c, 10, 57, 127
1, 11266, Note_off_c, 2, 62, 127
1, 11268, Note_on_c, 8, 56, 127
1, 11469, Note_on_c, 12, 59, 127
1, 11667, Note_off_c, 12, 59, 127
1, 11667, Note_off_c, 12, 71, 127
1, 11669, Note_on_c, 10, 69, 127
1, 11669, Note_on_c, 2, 62, 127
1, 11867, Note_off_c, 10, 69, 127
1, 11869, Note_on_c, 8, 68, 127
1, 12067, Note_off_c, 8, 68, 127
1, 12070, Note_on_c, 10, 69, 127
1, 12070, Note_on_c, 10, 57, 127
1, 12081, Note_off_c, 8, 56, 127
1, 12268, Note_off_c, 5, 77, 127
1, 12270, Note_on_c, 5, 77, 127
1, 12468, Note_off_c, 5, 77, 127
1, 12470, Note_on_c, 4, 76, 127
1, 12668, Note_off_c, 4, 76, 127
1, 12671, Note_on_c, 2, 74, 127
1, 12869, Note_off_c, 2, 74, 127
1, 12871, Note_on_c, 4, 76, 127
1, 13069, Note_off_c, 2, 62, 127
1, 13071, Note_on_c, 2, 62, 127
1, 13269, Note_off_c, 2, 62, 127
1, 13272, Note_on_c, 1, 61, 127
1, 13470, Note_off_c, 1, 61, 127
1, 13472, Note_on_c, 12, 59, 127
1, 13670, Note_off_c, 12, 59, 127
1, 13672, Note_on_c, 1, 61, 127
1, 13870, Note_off_c, 10, 69, 127
1, 13873, Note_on_c, 11, 70, 127
1, 14071, Note_off_c, 11, 70, 127
1, 14073, Note_on_c, 7, 67, 127
1, 14271, Note_off_c, 7, 67, 127
1, 14273, Note_on_c, 10, 69, 127
1, 14471, Note_off_c, 10, 69, 127
1, 14471, Note_off_c, 1, 61, 127
1, 14471, Note_off_c, 10, 57, 127
1, 14474, Note_on_c, 5, 65, 127
1, 14474, Note_on_c, 2, 62, 127
1, 14474, Note_on_c, 10, 57, 127
1, 14671, Note_off_c, 4, 76, 127
1, 14674, Note_on_c, 10, 81, 127
1, 14872, Note_off_c, 10, 81, 127
1, 14874, Note_on_c, 7, 79, 127
1, 15072, Note_off_c, 7, 79, 127
1, 15075, Note_on_c, 10, 81, 127
1, 15266, Note_off_c, 5, 65, 127
1, 15273, Note_off_c, 10, 81, 127
1, 15275, Note_on_c, 4, 76, 127
1, 15473, Note_off_c, 2, 62, 127
1, 15476, Note_on_c, 0, 72, 127
1, 15476, Note_on_c, 4, 64, 127
1, 15673, Note_off_c, 4, 76, 127
1, 15674, Note_off_c, 4, 64, 127
1, 15674, Note_off_c, 0, 72, 127
1, 15676, Note_on_c, 5, 77, 127
1, 15676, Note_on_c, 12, 71, 127
1, 15676, Note_on_c, 2, 62, 127
1, 15874, Note_off_c, 2, 62, 127
1, 15874, Note_off_c, 12, 71, 127
1, 15876, Note_on_c, 10, 69, 127
1, 15876, Note_on_c, 0, 60, 127
1, 16074, Note_off_c, 0, 60, 127
1, 16074, Note_off_c, 10, 69, 127
1, 16077, Note_on_c, 8, 68, 127
1, 16077, Note_on_c, 12, 59, 127
1, 16275, Note_off_c, 12, 59, 127
1, 16277, Note_on_c, 2, 62, 127
1, 16475, Note_off_c, 2, 62, 127
1, 16475, Note_off_c, 5, 77, 127
1, 16477, Note_on_c, 4, 76, 127
1, 16477, Note_on_c, 0, 60, 127
1, 16675, Note_off_c, 0, 60, 127
1, 16675, Note_off_c, 4, 76, 127
1, 16678, Note_on_c, 2, 74, 127
1, 16678, Note_on_c, 12, 59, 127
1, 16869, Note_off_c, 8, 68, 127
1, 16876, Note_off_c, 2, 74, 127
1, 16878, Note_on_c, 4, 76, 127
1, 16878, Note_on_c, 0, 60, 127
1, 16892, Note_off_c, 12, 59, 127
1, 17078, Note_on_c, 0, 72, 127
1, 17271, Note_off_c, 0, 60, 127
1, 17276, Note_off_c, 0, 72, 127
1, 17279, Note_on_c, 12, 71, 127
1, 17279, Note_on_c, 2, 62, 127
1, 17477, Note_off_c, 2, 62, 127
1, 17477, Note_off_c, 12, 71, 127
1, 17479, Note_on_c, 0, 72, 127
1, 17479, Note_on_c, 4, 64, 127
1, 17677, Note_off_c, 4, 64, 127
1, 17677, Note_off_c, 0, 72, 127
1, 17679, Note_on_c, 8, 68, 127
1, 17679, Note_on_c, 5, 65, 127
1, 17877, Note_off_c, 8, 68, 127
1, 17880, Note_on_c, 10, 69, 127
1, 18077, Note_off_c, 4, 76, 127
1, 18078, Note_off_c, 10, 69, 127
1, 18080, Note_on_c, 2, 74, 127
1, 18080, Note_on_c, 12, 71, 127
1, 18278, Note_off_c, 2, 74, 127
1, 18280, Note_on_c, 0, 72, 127
1, 18478, Note_off_c, 0, 72, 127
1, 18481, Note_on_c, 2, 74, 127
1, 18678, Note_off_c, 5, 65, 127
1, 18681, Note_on_c, 4, 64, 127
1, 18774, Note_off_c, 10, 57, 127
1, 18879, Note_off_c, 4, 64, 127
1, 18879, Note_off_c, 12, 71, 127
1, 18881, Note_on_c, 10, 69, 127
1, 18881, Note_on_c, 5, 65, 127
1, 19079, Note_off_c, 5, 65, 127
1, 19079, Note_off_c, 10, 69, 127
1, 19082, Note_on_c, 8, 68, 127
1, 19082, Note_on_c, 2, 62, 127
1, 19280, Note_off_c, 2, 62, 127
1, 19280, Note_off_c, 8, 68, 127
1, 19282, Note_on_c, 10, 69, 127
1, 19282, Note_on_c, 4, 64, 127
1, 19480, Note_off_c, 2, 74, 127
1, 19482, Note_on_c, 0, 72, 127
1, 19482, Note_on_c, 10, 57, 127
1, 19680, Note_off_c, 10, 57, 127
1, 19680, Note_off_c, 0, 72, 127
1, 19683, Note_on_c, 2, 74, 127
1, 19683, Note_on_c, 8, 56, 127
1, 19881, Note_off_c, 8, 56, 127
1, 19881, Note_off_c, 2, 74, 127
1, 19883, Note_on_c, 12, 71, 127
1, 19883, Note_on_c, 10, 57, 127
1, 20081, Note_off_c, 10, 57, 127
1, 20081, Note_off_c, 12, 71, 127
1, 20083, Note_on_c, 0, 72, 127
1, 20083, Note_on_c, 4, 52, 127
1, 20281, Note_off_c, 4, 52, 127
1, 20284, Note_on_c, 6, 54, 127
1, 20481, Note_off_c, 0, 72, 127
1, 20482, Note_off_c, 6, 54, 127
1, 20484, Note_on_c, 12, 71, 127
1, 20484, Note_on_c, 7, 55, 127
1, 20682, Note_off_c, 12, 71, 127
1, 20684, Note_on_c, 1, 73, 127
1, 20882, Note_off_c, 1, 73, 127
1, 20885, Note_on_c, 2, 74, 127
1, 21047, Note_off_c, 2, 74, 127
1, 21047, Note_on_c, 1, 73, 127
1, 21126, Note_on_c, 2, 74, 127
1, 21130, Note_off_c, 1, 73, 127
1, 21206, Note_on_c, 1, 73, 127
1, 21209, Note_off_c, 2, 74, 127
1, 21283, Note_off_c, 7, 55, 127
1, 21285, Note_on_c, 2, 74, 127
1, 21285, Note_on_c, 6, 54, 127
1, 21289, Note_off_c, 1, 73, 127
1, 21383, Note_off_c, 2, 74, 127
1, 21386, Note_on_c, 1, 73, 127
1, 21483, Note_off_c, 1, 73, 127
1, 21483, Note_off_c, 6, 54, 127
1, 21486, Note_on_c, 12, 71, 127
1, 21486, Note_on_c, 4, 52, 127
1, 21583, Note_off_c, 12, 71, 127
1, 21585, Note_on_c, 1, 73, 127
1, 21682, Note_off_c, 1, 73, 127
1, 21682, Note_off_c, 4, 64, 127
1, 21683, Note_off_c, 4, 52, 127
1, 21685, Note_on_c, 2, 74, 127
1, 21685, Note_on_c, 2, 62, 127
1, 21685, Note_on_c, 6, 54, 127
1, 21883, Note_off_c, 2, 74, 127
1, 21885, Note_on_c, 2, 74, 127
1, 22083, Note_off_c, 2, 74, 127
1, 22086, Note_on_c, 1, 73, 127
1, 22284, Note_off_c, 1, 73, 127
1, 22286, Note_on_c, 2, 74, 127
1, 22473, Note_off_c, 10, 69, 127
1, 22484, Note_off_c, 2, 74, 127
1, 22486, Note_on_c, 10, 69, 127
1, 22684, Note_off_c, 10, 69, 127
1, 22687, Note_on_c, 11, 70, 127
1, 22884, Note_off_c, 6, 54, 127
1, 22885, Note_off_c, 11, 70, 127
1, 22887, Note_on_c, 0, 72, 127
1, 22887, Note_on_c, 4, 52, 127
1, 23085, Note_off_c, 4, 52, 127
1, 23087, Note_on_c, 6, 54, 127
1, 23285, Note_off_c, 6, 54, 127
1, 23288, Note_on_c, 7, 55, 127
1, 23425, Note_off_c, 7, 55, 127
1, 23426, Note_on_c, 6, 54, 127
1, 23511, Note_off_c, 6, 54, 127
1, 23513, Note_on_c, 7, 55, 127
1, 23598, Note_off_c, 7, 55, 127
1, 23601, Note_on_c, 6, 54, 127
1, 23686, Note_off_c, 6, 54, 127
1, 23687, Note_off_c, 0, 72, 127
1, 23689, Note_on_c, 7, 55, 127
1, 23689, Note_on_c, 11, 70, 127
1, 23786, Note_off_c, 7, 55, 127
1, 23789, Note_on_c, 6, 54, 127
1, 23886, Note_off_c, 6, 54, 127
1, 23886, Note_off_c, 11, 70, 127
1, 23889, Note_on_c, 4, 52, 127
1, 23889, Note_on_c, 10, 69, 127
1, 23986, Note_off_c, 4, 52, 127
1, 23988, Note_on_c, 6, 54, 127
1, 24085, Note_off_c, 6, 54, 127
1, 24086, Note_off_c, 10, 69, 127
1, 24088, Note_on_c, 11, 70, 127
1, 24088, Note_on_c, 7, 55, 127
1, 24288, Note_on_c, 7, 67, 127
1, 24486, Note_off_c, 7, 67, 127
1, 24489, Note_on_c, 6, 66, 127
1, 24687, Note_off_c, 6, 66, 127
1, 24689, Note_on_c, 7, 67, 127
1, 24876, Note_off_c, 2, 62, 127
1, 24887, Note_off_c, 7, 67, 127
1, 24889, Note_on_c, 2, 62, 127
1, 25087, Note_off_c, 2, 62, 127
1, 25090, Note_on_c, 4, 64, 127
1, 25287, Note_off_c, 11, 70, 127
1, 25288, Note_off_c, 4, 64, 127
1, 25290, Note_on_c, 10, 69, 127
1, 25290, Note_on_c, 5, 65, 127
1, 25488, Note_off_c, 10, 69, 127
1, 25490, Note_on_c, 12, 71, 127
1, 25688, Note_off_c, 12, 71, 127
1, 25691, Note_on_c, 0, 72, 127
1, 25853, Note_off_c, 0, 72, 127
1, 25853, Note_on_c, 12, 71, 127
1, 25932, Note_on_c, 0, 72, 127
1, 25936, Note_off_c, 12, 71, 127
1, 26012, Note_on_c, 12, 71, 127
1, 26015, Note_off_c, 0, 72, 127
1, 26087, Note_off_c, 12, 71, 127
1, 26089, Note_off_c, 5, 65, 127
1, 26091, Note_on_c, 0, 72, 127
1, 26091, Note_on_c, 4, 64, 127
1, 26188, Note_off_c, 0, 72, 127
1, 26191, Note_on_c, 12, 71, 127
1, 26288, Note_off_c, 12, 71, 127
1, 26288, Note_off_c, 4, 64, 127
1, 26291, Note_on_c, 10, 69, 127
1, 26291, Note_on_c, 2, 62, 127
1, 26388, Note_off_c, 10, 69, 127
1, 26390, Note_on_c, 12, 71, 127
1, 26487, Note_off_c, 12, 71, 127
1, 26487, Note_off_c, 7, 55, 127
1, 26488, Note_off_c, 2, 62, 127
1, 26490, Note_on_c, 0, 72, 127
1, 26490, Note_on_c, 4, 64, 127
1, 26490, Note_on_c, 0, 48, 127
1, 26690, Note_on_c, 0, 60, 127
1, 26888, Note_off_c, 0, 60, 127
1, 26891, Note_on_c, 11, 58, 127
1, 27089, Note_off_c, 11, 58, 127
1, 27091, Note_on_c, 0, 60, 127
1, 27289, Note_off_c, 0, 60, 127
1, 27291, Note_on_c, 7, 55, 127
1, 27489, Note_off_c, 7, 55, 127
1, 27489, Note_off_c, 4, 64, 127
1, 27492, Note_on_c, 5, 65, 127
1, 27492, Note_on_c, 10, 57, 127
1, 27690, Note_off_c, 10, 57, 127
1, 27690, Note_off_c, 5, 65, 127
1, 27692, Note_on_c, 4, 64, 127
1, 27692, Note_on_c, 11, 58, 127
1, 27890, Note_off_c, 4, 64, 127
1, 27890, Note_off_c, 0, 48, 127
1, 27892, Note_on_c, 5, 65, 127
1, 27892, Note_on_c, 2, 50, 127
1, 28090, Note_off_c, 2, 50, 127
1, 28090, Note_off_c, 5, 65, 127
1, 28093, Note_on_c, 7, 67, 127
1, 28093, Note_on_c, 4, 52, 127
1, 28290, Note_off_c, 11, 58, 127
1, 28293, Note_on_c, 11, 58, 127
1, 28491, Note_off_c, 11, 58, 127
1, 28493, Note_on_c, 10, 57, 127
1, 28691, Note_off_c, 10, 57, 127
1, 28694, Note_on_c, 7, 55, 127
1, 28875, Note_off_c, 7, 67, 127
1, 28888, Note_off_c, 4, 52, 127
1, 28892, Note_off_c, 7, 55, 127
1, 28894, Note_on_c, 5, 65, 127
1, 28894, Note_on_c, 10, 57, 127
1, 28894, Note_on_c, 5, 53, 127
1, 29092, Note_off_c, 0, 72, 127
1, 29094, Note_on_c, 5, 77, 127
1, 29292, Note_off_c, 5, 77, 127
1, 29295, Note_on_c, 4, 76, 127
1, 29493, Note_off_c, 4, 76, 127
1, 29495, Note_on_c, 5, 77, 127
1, 29693, Note_off_c, 5, 77, 127
1, 29695, Note_on_c, 0, 72, 127
1, 29893, Note_off_c, 0, 72, 127
1, 29893, Note_off_c, 10, 57, 127
1, 29896, Note_on_c, 2, 74, 127
1, 29896, Note_on_c, 11, 58, 127
1, 30094, Note_off_c, 11, 58, 127
1, 30094, Note_off_c, 2, 74, 127
1, 30096, Note_on_c, 3, 75, 127
1, 30096, Note_on_c, 10, 57, 127
1, 30294, Note_off_c, 10, 57, 127
1, 30294, Note_off_c, 5, 65, 127
1, 30296, Note_on_c, 7, 67, 127
1, 30296, Note_on_c, 11, 58, 127
1, 30494, Note_off_c, 11, 58, 127
1, 30494, Note_off_c, 7, 67, 127
1, 30497, Note_on_c, 10, 69, 127
1, 30497, Note_on_c, 0, 60, 127
1, 30694, Note_off_c, 3, 75, 127
1, 30697, Note_on_c, 3, 75, 127
1, 30895, Note_off_c, 3, 75, 127
1, 30895, Note_off_c, 5, 53, 127
1, 30897, Note_on_c, 2, 74, 127
1, 30897, Note_on_c, 5, 53, 127
1, 31095, Note_off_c, 2, 74, 127
1, 31098, Note_on_c, 0, 72, 127
1, 31289, Note_off_c, 0, 60, 127
1, 31295, Note_off_c, 5, 53, 127
1, 31296, Note_off_c, 0, 72, 127
1, 31298, Note_on_c, 2, 74, 127
1, 31298, Note_on_c, 6, 54, 127
1, 31498, Note_on_c, 2, 62, 127
1, 31696, Note_off_c, 2, 62, 127
1, 31699, Note_on_c, 0, 60, 127
1, 31897, Note_off_c, 0, 60, 127
1, 31897, Note_off_c, 10, 69, 127
1, 31899, Note_on_c, 11, 70, 127
1, 31899, Note_on_c, 2, 62, 127
1, 32097, Note_off_c, 2, 62, 127
1, 32097, Note_off_c, 11, 70, 127
1, 32099, Note_on_c, 0, 72, 127
1, 32099, Note_on_c, 10, 57, 127
1, 32297, Note_off_c, 10, 57, 127
1, 32297, Note_off_c, 0, 72, 127
1, 32300, Note_on_c, 11, 70, 127
1, 32300, Note_on_c, 11, 58, 127
1, 32498, Note_off_c, 11, 58, 127
1, 32498, Note_off_c, 11, 70, 127
1, 32500, Note_on_c, 10, 69, 127
1, 32500, Note_on_c, 0, 60, 127
1, 32698, Note_off_c, 10, 69, 127
1, 32701, Note_on_c, 7, 67, 127
1, 32898, Note_off_c, 6, 54, 127
1, 32899, Note_off_c, 7, 67, 127
1, 32901, Note_on_c, 6, 66, 127
1, 32901, Note_on_c, 2, 50, 127
1, 33098, Note_off_c, 0, 60, 127
1, 33101, Note_on_c, 0, 60, 127
1, 33299, Note_off_c, 0, 60, 127
1, 33302, Note_on_c, 11, 58, 127
1, 33500, Note_off_c, 11, 58, 127
1, 33502, Note_on_c, 10, 57, 127
1, 33683, Note_off_c, 6, 66, 127
1, 33696, Note_off_c, 2, 50, 127
1, 33697, Note_off_c, 2, 74, 127
1, 33700, Note_off_c, 10, 57, 127
1, 33702, Note_on_c, 7, 67, 127
1, 33702, Note_on_c, 11, 58, 127
1, 33702, Note_on_c, 7, 55, 127
1, 33903, Note_on_c, 7, 79, 127
1, 34101, Note_off_c, 7, 79, 127
1, 34103, Note_on_c, 5, 77, 127
1, 34301, Note_off_c, 5, 77, 127
1, 34303, Note_on_c, 7, 79, 127
1, 34501, Note_off_c, 7, 79, 127
1, 34504, Note_on_c, 2, 74, 127
1, 34701, Note_off_c, 11, 58, 127
1, 34702, Note_off_c, 2, 74, 127
1, 34704, Note_on_c, 4, 76, 127
1, 34704, Note_on_c, 0, 60, 127
1, 34902, Note_off_c, 0, 60, 127
1, 34902, Note_off_c, 4, 76, 127
1, 34904, Note_on_c, 5, 77, 127
1, 34904, Note_on_c, 12, 59, 127
1, 35102, Note_off_c, 12, 59, 127
1, 35102, Note_off_c, 7, 67, 127
1, 35105, Note_on_c, 10, 69, 127
1, 35105, Note_on_c, 0, 60, 127
1, 35303, Note_off_c, 0, 60, 127
1, 35303, Note_off_c, 10, 69, 127
1, 35305, Note_on_c, 12, 71, 127
1, 35305, Note_on_c, 2, 62, 127
1, 35502, Note_off_c, 5, 77, 127
1, 35505, Note_on_c, 5, 77, 127
1, 35703, Note_off_c, 5, 77, 127
1, 35703, Note_off_c, 7, 55, 127
1, 35706, Note_on_c, 4, 76, 127
1, 35706, Note_on_c, 7, 55, 127
1, 35904, Note_off_c, 4, 76, 127
1, 35906, Note_on_c, 2, 74, 127
1, 36104, Note_off_c, 2, 74, 127
1, 36104, Note_off_c, 7, 55, 127
1, 36106, Note_on_c, 4, 76, 127
1, 36106, Note_on_c, 8, 56, 127
1, 36304, Note_off_c, 2, 62, 127
1, 36307, Note_on_c, 4, 64, 127
1, 36505, Note_off_c, 4, 64, 127
1, 36507, Note_on_c, 2, 62, 127
1, 36705, Note_off_c, 2, 62, 127
1, 36705, Note_off_c, 12, 71, 127
1, 36707, Note_on_c, 0, 72, 127
1, 36707, Note_on_c, 4, 64, 127
1, 36905, Note_off_c, 4, 64, 127
1, 36905, Note_off_c, 0, 72, 127
1, 36908, Note_on_c, 2, 74, 127
1, 36908, Note_on_c, 12, 59, 127
1, 37106, Note_off_c, 12, 59, 127
1, 37106, Note_off_c, 2, 74, 127
1, 37108, Note_on_c, 0, 72, 127
1, 37108, Note_on_c, 0, 60, 127
1, 37306, Note_off_c, 0, 60, 127
1, 37306, Note_off_c, 0, 72, 127
1, 37308, Note_on_c, 12, 71, 127
1, 37308, Note_on_c, 2, 62, 127
1, 37506, Note_off_c, 12, 71, 127
1, 37509, Note_on_c, 10, 69, 127
1, 37706, Note_off_c, 8, 56, 127
1, 37707, Note_off_c, 10, 69, 127
1, 37709, Note_on_c, 8, 68, 127
1, 37709, Note_on_c, 4, 52, 127
1, 37906, Note_off_c, 2, 62, 127
1, 37909, Note_on_c, 2, 62, 127
1, 38107, Note_off_c, 2, 62, 127
1, 38110, Note_on_c, 0, 60, 127
1, 38308, Note_off_c, 0, 60, 127
1, 38310, Note_on_c, 12, 59, 127
1, 38501, Note_off_c, 8, 68, 127
1, 38508, Note_off_c, 12, 59, 127
1, 38508, Note_off_c, 4, 52, 127
1, 38510, Note_on_c, 0, 60, 127
1, 38510, Note_on_c, 10, 57, 127
1, 38711, Note_on_c, 10, 69, 127
1, 38909, Note_off_c, 10, 69, 127
1, 38911, Note_on_c, 8, 68, 127
1, 39109, Note_off_c, 8, 68, 127
1, 39111, Note_on_c, 10, 69, 127
1, 39309, Note_off_c, 10, 69, 127
1, 39312, Note_on_c, 4, 64, 127
1, 39509, Note_off_c, 0, 60, 127
1, 39512, Note_on_c, 0, 60, 127
1, 39710, Note_off_c, 0, 60, 127
1, 39710, Note_off_c, 4, 64, 127
1, 39712, Note_on_c, 5, 65, 127
1, 39712, Note_on_c, 12, 59, 127
1, 39910, Note_off_c, 12, 59, 127
1, 39913, Note_on_c, 0, 60, 127
1, 40100, Note_off_c, 4, 76, 127
1, 40111, Note_off_c, 0, 60, 127
1, 40113, Note_on_c, 2, 62, 127
1, 40310, Note_off_c, 5, 65, 127
1, 40313, Note_on_c, 5, 65, 127
1, 40511, Note_off_c, 5, 65, 127
1, 40514, Note_on_c, 4, 64, 127
1, 40697, Note_off_c, 2, 62, 127
1, 40712, Note_off_c, 4, 64, 127
1, 40714, Note_on_c, 2, 62, 127
1, 40912, Note_off_c, 2, 62, 127
1, 40914, Note_on_c, 4, 64, 127
1, 41115, Note_on_c, 4, 76, 127
1, 41115, Note_on_c, 0, 60, 127
1, 41313, Note_off_c, 0, 60, 127
1, 41313, Note_off_c, 4, 76, 127
1, 41315, Note_on_c, 2, 74, 127
1, 41315, Note_on_c, 12, 59, 127
1, 41513, Note_off_c, 12, 59, 127
1, 41513, Note_off_c, 2, 74, 127
1, 41515, Note_on_c, 4, 76, 127
1, 41515, Note_on_c, 0, 60, 127
1, 41702, Note_off_c, 10, 57, 127
1, 41713, Note_off_c, 0, 60, 127
1, 41713, Note_off_c, 4, 76, 127
1, 41716, Note_on_c, 12, 71, 127
1, 41716, Note_on_c, 8, 56, 127
1, 41914, Note_off_c, 8, 56, 127
1, 41914, Note_off_c, 12, 71, 127
1, 41916, Note_on_c, 0, 72, 127
1, 41916, Note_on_c, 10, 57, 127
1, 42114, Note_off_c, 10, 57, 127
1, 42114, Note_off_c, 0, 72, 127
1, 42116, Note_on_c, 2, 74, 127
1, 42116, Note_on_c, 12, 59, 127
1, 42314, Note_off_c, 4, 64, 127
1, 42317, Note_on_c, 6, 66, 127
1, 42515, Note_off_c, 6, 66, 127
1, 42517, Note_on_c, 8, 68, 127
1, 42715, Note_off_c, 8, 68, 127
1, 42718, Note_on_c, 10, 69, 127
1, 42915, Note_off_c, 12, 59, 127
1, 42916, Note_off_c, 10, 69, 127
1, 42918, Note_on_c, 12, 71, 127
1, 42918, Note_on_c, 10, 57, 127
1, 43116, Note_off_c, 10, 57, 127
1, 43118, Note_on_c, 8, 56, 127
1, 43316, Note_off_c, 8, 56, 127
1, 43319, Note_on_c, 10, 57, 127
1, 43514, Note_off_c, 2, 74, 127
1, 43519, Note_on_c, 4, 52, 127
1, 43519, Note_on_c, 0, 72, 127
1, 43656, Note_off_c, 12, 71, 127
1, 43717, Note_off_c, 0, 72, 127
1, 43717, Note_off_c, 4, 52, 127
1, 43719, Note_on_c, 12, 71, 127
1, 43719, Note_on_c, 8, 68, 127
1, 43719, Note_on_c, 2, 50, 127
1, 43917, Note_off_c, 2, 50, 127
1, 43920, Note_on_c, 4, 52, 127
1, 44111, Note_off_c, 10, 57, 127
1, 44117, Note_off_c, 8, 68, 127
1, 44117, Note_off_c, 12, 71, 127
1, 44118, Note_off_c, 4, 52, 127
1, 44120, Note_on_c, 0, 72, 127
1, 44120, Note_on_c, 10, 69, 127
1, 44120, Note_on_c, 10, 45, 127
1, 44318, Note_off_c, 0, 72, 127
1, 44320, Note_on_c, 5, 77, 127
1, 44518, Note_off_c, 5, 77, 127
1, 44518, Note_off_c, 10, 45, 127
1, 44518, Note_off_c, 10, 69, 127
1, 44521, Note_on_c, 4, 76, 127
1, 44521, Note_on_c, 7, 67, 127
1, 44521, Note_on_c, 11, 46, 127
1, 44719, Note_off_c, 4, 76, 127
1, 44721, Note_on_c, 2, 74, 127
1, 44919, Note_off_c, 2, 74, 127
1, 44921, Note_on_c, 1, 73, 127
1, 44921, Note_on_c, 4, 52, 127
1, 45119, Note_off_c, 1, 73, 127
1, 45122, Note_on_c, 2, 74, 127
1, 45320, Note_off_c, 2, 74, 127
1, 45320, Note_off_c, 11, 46, 127
1, 45322, Note_on_c, 4, 76, 127
1, 45322, Note_on_c, 10, 45, 127
1, 45520, Note_off_c, 10, 45, 127
1, 45522, Note_on_c, 7, 43, 127
1, 45720, Note_off_c, 7, 43, 127
1, 45720, Note_off_c, 4, 76, 127
1, 45720, Note_off_c, 7, 67, 127
1, 45723, Note_on_c, 10, 69, 127
1, 45723, Note_on_c, 5, 41, 127
1, 45920, Note_off_c, 4, 52, 127
1, 45923, Note_on_c, 5, 65, 127
1, 45923, Note_on_c, 2, 50, 127
1, 46121, Note_off_c, 2, 50, 127
1, 46121, Note_off_c, 5, 65, 127
1, 46123, Note_on_c, 4, 64, 127
1, 46123, Note_on_c, 1, 49, 127
1, 46321, Note_off_c, 1, 49, 127
1, 46321, Note_off_c, 4, 64, 127
1, 46324, Note_on_c, 5, 65, 127
1, 46324, Note_on_c, 2, 50, 127
1, 46522, Note_off_c, 2, 50, 127
1, 46522, Note_off_c, 5, 65, 127
1, 46524, Note_on_c, 7, 67, 127
1, 46524, Note_on_c, 10, 45, 127
1, 46722, Note_off_c, 10, 45, 127
1, 46722, Note_off_c, 7, 67, 127
1, 46724, Note_on_c, 5, 65, 127
1, 46724, Note_on_c, 11, 46, 127
1, 46922, Note_off_c, 11, 46, 127
1, 46922, Note_off_c, 5, 65, 127
1, 46925, Note_on_c, 4, 64, 127
1, 46925, Note_on_c, 0, 48, 127
1, 47123, Note_off_c, 4, 64, 127
1, 47125, Note_on_c, 2, 62, 127
1, 47323, Note_off_c, 5, 41, 127
1, 47323, Note_off_c, 10, 69, 127
1, 47325, Note_on_c, 2, 74, 127
1, 47325, Note_on_c, 6, 42, 127
1, 47523, Note_off_c, 0, 48, 127
1, 47526, Note_on_c, 0, 48, 127
1, 47723, Note_off_c, 2, 62, 127
1, 47724, Note_off_c, 0, 48, 127
1, 47726, Note_on_c, 10, 69, 127
1, 47726, Note_on_c, 11, 46, 127
1, 47924, Note_off_c, 11, 46, 127
1, 47926, Note_on_c, 10, 45, 127
1, 48122, Note_off_c, 10, 69, 127
1, 48124, Note_off_c, 10, 45, 127
1, 48124, Note_off_c, 6, 42, 127
1, 48127, Note_on_c, 11, 46, 127
1, 48127, Note_on_c, 7, 43, 127
1, 48325, Note_off_c, 11, 46, 127
1, 48327, Note_on_c, 11, 70, 127
1, 48327, Note_on_c, 7, 55, 127
1, 48524, Note_off_c, 2, 74, 127
1, 48525, Note_off_c, 7, 55, 127
1, 48525, Note_off_c, 11, 70, 127
1, 48527, Note_on_c, 0, 72, 127
1, 48527, Note_on_c, 10, 69, 127
1, 48527, Note_on_c, 6, 54, 127
1, 48725, Note_off_c, 6, 54, 127
1, 48725, Note_off_c, 10, 69, 127
1, 48728, Note_on_c, 11, 70, 127
1, 48728, Note_on_c, 7, 55, 127
1, 48926, Note_off_c, 7, 55, 127
1, 48926, Note_off_c, 11, 70, 127
1, 48928, Note_on_c, 7, 67, 127
1, 48928, Note_on_c, 2, 50, 127
1, 49125, Note_off_c, 0, 72, 127
1, 49128, Note_on_c, 0, 72, 127
1, 49326, Note_off_c, 0, 72, 127
1, 49326, Note_off_c, 2, 50, 127
1, 49329, Note_on_c, 11, 70, 127
1, 49329, Note_on_c, 3, 51, 127
1, 49527, Note_off_c, 11, 70, 127
1, 49529, Note_on_c, 10, 69, 127
1, 49720, Note_off_c, 7, 67, 127
1, 49727, Note_off_c, 10, 69, 127
1, 49729, Note_on_c, 7, 67, 127
1, 49927, Note_off_c, 3, 51, 127
1, 49930, Note_on_c, 5, 65, 127
1, 49930, Note_on_c, 2, 50, 127
1, 50128, Note_off_c, 2, 50, 127
1, 50128, Note_off_c, 5, 65, 127
1, 50130, Note_on_c, 4, 64, 127
1, 50130, Note_on_c, 1, 49, 127
1, 50328, Note_off_c, 1, 49, 127
1, 50328, Note_off_c, 4, 64, 127
1, 50330, Note_on_c, 5, 65, 127
1, 50330, Note_on_c, 2, 50, 127
1, 50528, Note_off_c, 2, 50, 127
1, 50528, Note_off_c, 5, 65, 127
1, 50528, Note_off_c, 7, 43, 127
1, 50531, Note_on_c, 4, 64, 127
1, 50531, Note_on_c, 1, 49, 127
1, 50531, Note_on_c, 10, 45, 127
1, 50732, Note_off_c, 1, 49, 127
1, 50734, Note_on_c, 10, 57, 127
1, 50912, Note_off_c, 4, 64, 127
1, 50914, Note_off_c, 7, 67, 127
1, 50935, Note_off_c, 10, 57, 127
1, 50938, Note_on_c, 5, 65, 127
1, 50938, Note_on_c, 2, 62, 127
1, 50938, Note_on_c, 8, 56, 127
1, 51139, Note_off_c, 8, 56, 127
1, 51141, Note_on_c, 10, 57, 127
1, 51321, Note_off_c, 2, 62, 127
1, 51321, Note_off_c, 5, 65, 127
1, 51342, Note_off_c, 10, 57, 127
1, 51345, Note_on_c, 11, 70, 127
1, 51345, Note_on_c, 1, 61, 127
1, 51345, Note_on_c, 4, 52, 127
1, 51546, Note_off_c, 4, 52, 127
1, 51548, Note_on_c, 7, 55, 127
1, 51728, Note_off_c, 11, 70, 127
1, 51749, Note_off_c, 7, 55, 127
1, 51752, Note_on_c, 10, 69, 127
1, 51752, Note_on_c, 5, 53, 127
1, 51953, Note_off_c, 1, 61, 127
1, 51955, Note_on_c, 1, 61, 127
1, 52156, Note_off_c, 1, 61, 127
1, 52159, Note_on_c, 2, 62, 127
1, 52360, Note_off_c, 10, 69, 127
1, 52362, Note_on_c, 2, 74, 127
1, 52563, Note_off_c, 2, 74, 127
1, 52563, Note_off_c, 5, 53, 127
1, 52566, Note_on_c, 1, 73, 127
1, 52566, Note_on_c, 4, 52, 127
1, 52767, Note_off_c, 4, 52, 127
1, 52767, Note_off_c, 1, 73, 127
1, 52769, Note_on_c, 2, 74, 127
1, 52769, Note_on_c, 2, 50, 127
1, 52970, Note_off_c, 2, 50, 127
1, 52970, Note_off_c, 2, 74, 127
1, 52973, Note_on_c, 7, 67, 127
1, 52973, Note_on_c, 4, 52, 127
1, 53174, Note_off_c, 2, 62, 127
1, 53177, Note_on_c, 1, 61, 127
1, 53378, Note_off_c, 1, 61, 127
1, 53380, Note_on_c, 12, 59, 127
1, 53581, Note_off_c, 12, 59, 127
1, 53584, Note_on_c, 1, 61, 127
1, 53784, Note_off_c, 4, 52, 127
1, 53787, Note_on_c, 5, 53, 127
1, 53988, Note_off_c, 1, 61, 127
1, 53991, Note_on_c, 10, 57, 127
1, 54192, Note_off_c, 10, 57, 127
1, 54194, Note_on_c, 1, 61, 127
1, 54395, Note_off_c, 1, 61, 127
1, 54395, Note_off_c, 7, 67, 127
1, 54398, Note_on_c, 5, 65, 127
1, 54398, Note_on_c, 2, 62, 127
1, 54507, Note_off_c, 5, 53, 127
1, 54599, Note_off_c, 5, 65, 127
1, 54601, Note_on_c, 4, 64, 127
1, 54601, Note_on_c, 7, 55, 127
1, 54802, Note_off_c, 2, 62, 127
1, 54805, Note_on_c, 2, 62, 127
1, 55006, Note_off_c, 2, 62, 127
1, 55008, Note_on_c, 1, 61, 127
1, 55194, Note_off_c, 4, 64, 127
1, 55209, Note_off_c, 1, 61, 127
1, 55212, Note_on_c, 4, 64, 127
1, 55412, Note_off_c, 7, 55, 127
1, 55413, Note_off_c, 4, 64, 127
1, 55415, Note_on_c, 10, 57, 127
1, 55415, Note_on_c, 5, 53, 127
1, 55622, Note_on_c, 2, 74, 127
1, 55826, Note_off_c, 2, 74, 127
1, 55829, Note_on_c, 1, 73, 127
1, 56033, Note_off_c, 1, 73, 127
1, 56035, Note_on_c, 2, 74, 127
1, 56233, Note_off_c, 10, 57, 127
1, 56239, Note_off_c, 2, 74, 127
1, 56242, Note_on_c, 7, 67, 127
1, 56446, Note_off_c, 7, 67, 127
1, 56449, Note_on_c, 10, 69, 127
1, 56653, Note_off_c, 10, 69, 127
1, 56653, Note_off_c, 5, 53, 127
1, 56655, Note_on_c, 11, 70, 127
1, 56655, Note_on_c, 4, 52, 127
1, 56859, Note_off_c, 4, 52, 127
1, 56862, Note_on_c, 2, 62, 127
1, 56862, Note_on_c, 2, 50, 127
1, 57066, Note_off_c, 2, 50, 127
1, 57066, Note_off_c, 2, 62, 127
1, 57069, Note_on_c, 1, 61, 127
1, 57069, Note_on_c, 4, 52, 127
1, 57272, Note_off_c, 11, 70, 127
1, 57276, Note_on_c, 11, 70, 127
1, 57480, Note_off_c, 11, 70, 127
1, 57482, Note_on_c, 10, 69, 127
1, 57686, Note_off_c, 10, 69, 127
1, 57689, Note_on_c, 7, 67, 127
1, 57887, Note_off_c, 1, 61, 127
1, 57893, Note_off_c, 7, 67, 127
1, 57893, Note_off_c, 4, 52, 127
1, 57893, Note_off_c, 10, 45, 127
1, 57896, Note_on_c, 5, 65, 127
1, 57896, Note_on_c, 2, 50, 127
1, 57896, Note_on_c, 11, 46, 127
1, 58107, Note_on_c, 4, 64, 127
1, 58315, Note_off_c, 4, 64, 127
1, 58318, Note_on_c, 2, 62, 127
1, 58526, Note_off_c, 2, 62, 127
1, 58528, Note_on_c, 1, 61, 127
1, 58730, Note_off_c, 2, 50, 127
1, 58735, Note_off_c, 1, 61, 127
1, 58738, Note_on_c, 2, 62, 127
1, 58949, Note_on_c, 0, 60, 127
1, 59157, Note_off_c, 0, 60, 127
1, 59160, Note_on_c, 11, 58, 127
1, 59368, Note_off_c, 11, 58, 127
1, 59371, Note_on_c, 10, 57, 127
1, 59555, Note_off_c, 11, 46, 127
1, 59579, Note_off_c, 10, 57, 127
1, 59582, Note_on_c, 8, 56, 127
1, 59582, Note_on_c, 12, 47, 127
1, 59791, Note_off_c, 5, 65, 127
1, 59793, Note_on_c, 5, 65, 127
1, 60001, Note_off_c, 5, 65, 127
1, 60001, Note_off_c, 8, 56, 127
1, 60004, Note_on_c, 4, 64, 127
1, 60004, Note_on_c, 7, 55, 127
1, 60196, Note_off_c, 2, 62, 127
1, 60211, Note_off_c, 4, 64, 127
1, 60214, Note_on_c, 2, 62, 127
1, 60422, Note_off_c, 2, 62, 127
1, 60422, Note_off_c, 12, 47, 127
1, 60425, Note_on_c, 4, 64, 127
1, 60425, Note_on_c, 1, 49, 127
1, 60636, Note_off_c, 7, 55, 127
1, 60639, Note_on_c, 11, 58, 127
1, 60851, Note_off_c, 11, 58, 127
1, 60853, Note_on_c, 10, 57, 127
1, 61065, Note_off_c, 10, 57, 127
1, 61067, Note_on_c, 7, 55, 127
1, 61279, Note_off_c, 7, 55, 127
1, 61279, Note_off_c, 1, 49, 127
1, 61281, Note_on_c, 5, 53, 127
1, 61281, Note_on_c, 2, 50, 127
1, 61503, Note_on_c, 10, 57, 127
1, 61722, Note_off_c, 4, 64, 127
1, 61724, Note_on_c, 2, 62, 127
1, 61943, Note_off_c, 10, 57, 127
1, 61946, Note_on_c, 8, 56, 127
1, 62165, Note_off_c, 8, 56, 127
1, 62165, Note_off_c, 2, 50, 127
1, 62165, Note_off_c, 5, 53, 127
1, 62167, Note_on_c, 10, 57, 127
1, 62167, Note_on_c, 4, 52, 127
1, 62167, Note_on_c, 10, 45, 127
1, 62408, Note_off_c, 2, 62, 127
1, 62411, Note_on_c, 2, 62, 127
1, 62652, Note_off_c, 2, 62, 127
1, 62655, Note_on_c, 1, 61, 127
1, 62896, Note_off_c, 10, 57, 127
1, 62899, Note_on_c, 7, 55, 127
1, 63140, Note_off_c, 7, 55, 127
1, 63140, Note_off_c, 1, 61, 127
1, 63140, Note_off_c, 10, 45, 127
1, 63140, Note_off_c, 4, 52, 127
1, 63168, Note_on_c, 2, 38, 127
1, 63168, Note_on_c, 2, 50, 127
1, 63168, Note_on_c, 6, 54, 127
1, 63168, Note_on_c, 10, 57, 127
1, 63168, Note_on_c, 2, 62, 127
1, 66720, Note_off_c, 2, 62, 127
1, 66720, Note_off_c, 10, 57, 127
1, 66720, Note_off_c, 6, 54, 127
1, 66720, Note_off_c, 2, 50, 127
1, 66720, Note_off_c, 2, 38, 127
1, 67734, Note_on_c, 2, 62, 127
1, 68536, Note_off_c, 2, 62, 127
1, 68609, Note_on_c, 4, 64, 127
1, 69411, Note_off_c, 4, 64, 127
1, 69484, Note_on_c, 5, 65, 127
1, 70286, Note_off_c, 5, 65, 127
1, 70359, Note_on_c, 4, 64, 127
1, 71161, Note_off_c, 4, 64, 127
1, 71234, Note_on_c, 2, 62, 127
1, 71234, Note_on_c, 10, 69, 127
1, 71816, Note_off_c, 2, 62, 127
1, 71818, Note_on_c, 0, 60, 127
1, 72037, Note_off_c, 10, 69, 127
1, 72108, Note_off_c, 0, 60, 127
1, 72110, Note_on_c, 2, 62, 127
1, 72110, Note_on_c, 12, 71, 127
1, 72400, Note_off_c, 2, 62, 127
1, 72402, Note_on_c, 12, 59, 127
1, 72692, Note_off_c, 12, 59, 127
1, 72694, Note_on_c, 4, 64, 127
1, 72913, Note_off_c, 12, 71, 127
1, 72984, Note_off_c, 4, 64, 127
1, 72986, Note_on_c, 10, 57, 127
1, 72986, Note_on_c, 0, 72, 127
1, 73276, Note_off_c, 10, 57, 127
1, 73278, Note_on_c, 4, 64, 127
1, 73568, Note_off_c, 4, 64, 127
1, 73570, Note_on_c, 10, 69, 127
1, 73789, Note_off_c, 0, 72, 127
1, 73862, Note_on_c, 12, 71, 127
1, 74152, Note_off_c, 10, 69, 127
1, 74154, Note_on_c, 8, 68, 127
1, 74298, Note_off_c, 8, 68, 127
1, 74300, Note_on_c, 6, 66, 127
1, 74444, Note_off_c, 6, 66, 127
1, 74446, Note_on_c, 4, 64, 127
1, 74590, Note_off_c, 4, 64, 127
1, 74592, Note_on_c, 2, 62, 127
1, 74665, Note_off_c, 12, 71, 127
1, 74736, Note_off_c, 2, 62, 127
1, 74738, Note_on_c, 10, 57, 127
1, 74738, Note_on_c, 0, 60, 127
1, 74738, Note_on_c, 10, 69, 127
1, 74882, Note_off_c, 0, 60, 127
1, 74884, Note_on_c, 12, 59, 127
1, 75028, Note_off_c, 12, 59, 127
1, 75028, Note_off_c, 10, 69, 127
1, 75030, Note_on_c, 0, 60, 127
1, 75030, Note_on_c, 4, 76, 127
1, 75174, Note_off_c, 0, 60, 127
1, 75176, Note_on_c, 2, 62, 127
1, 75320, Note_off_c, 2, 62, 127
1, 75320, Note_off_c, 4, 76, 127
1, 75322, Note_on_c, 12, 59, 127
1, 75322, Note_on_c, 10, 81, 127
1, 75466, Note_off_c, 12, 59, 127
1, 75468, Note_on_c, 0, 60, 127
1, 75612, Note_off_c, 0, 60, 127
1, 75612, Note_off_c, 10, 57, 127
1, 75614, Note_on_c, 12, 59, 127
1, 75614, Note_on_c, 2, 62, 127
1, 75904, Note_off_c, 10, 81, 127
1, 75906, Note_on_c, 8, 80, 127
1, 76040, Note_off_c, 2, 62, 127
1, 76051, Note_off_c, 8, 80, 127
1, 76053, Note_on_c, 6, 78, 127
1, 76197, Note_off_c, 6, 78, 127
1, 76199, Note_on_c, 12, 71, 127
1, 76199, Note_on_c, 4, 76, 127
1, 76343, Note_off_c, 4, 76, 127
1, 76345, Note_on_c, 2, 74, 127
1, 76489, Note_off_c, 2, 74, 127
1, 76489, Note_off_c, 12, 59, 127
1, 76491, Note_on_c, 0, 60, 127
1, 76491, Note_on_c, 0, 72, 127
1, 76625, Note_off_c, 12, 71, 127
1, 76636, Note_off_c, 0, 72, 127
1, 76638, Note_on_c, 12, 71, 127
1, 76782, Note_off_c, 12, 71, 127
1, 76784, Note_on_c, 4, 64, 127
1, 76784, Note_on_c, 0, 72, 127
1, 76928, Note_off_c, 0, 72, 127
1, 76930, Note_on_c, 2, 74, 127
1, 77074, Note_off_c, 2, 74, 127
1, 77074, Note_off_c, 4, 64, 127
1, 77076, Note_on_c, 10, 69, 127
1, 77076, Note_on_c, 12, 71, 127
1, 77220, Note_off_c, 12, 71, 127
1, 77222, Note_on_c, 0, 72, 127
1, 77366, Note_off_c, 0, 72, 127
1, 77366, Note_off_c, 0, 60, 127
1, 77368, Note_on_c, 12, 59, 127
1, 77368, Note_on_c, 2, 74, 127
1, 77512, Note_off_c, 2, 74, 127
1, 77514, Note_on_c, 0, 72, 127
1, 77593, Note_off_c, 10, 69, 127
1, 77658, Note_off_c, 0, 72, 127
1, 77660, Note_on_c, 8, 68, 127
1, 77660, Note_on_c, 2, 74, 127
1, 77804, Note_off_c, 2, 74, 127
1, 77804, Note_off_c, 8, 68, 127
1, 77806, Note_on_c, 6, 66, 127
1, 77806, Note_on_c, 4, 76, 127
1, 77950, Note_off_c, 4, 76, 127
1, 77950, Note_off_c, 6, 66, 127
1, 77952, Note_on_c, 4, 64, 127
1, 77952, Note_on_c, 0, 72, 127
1, 78096, Note_off_c, 0, 72, 127
1, 78096, Note_off_c, 4, 64, 127
1, 78098, Note_on_c, 2, 62, 127
1, 78098, Note_on_c, 2, 74, 127
1, 78242, Note_off_c, 2, 74, 127
1, 78242, Note_off_c, 2, 62, 127
1, 78242, Note_off_c, 12, 59, 127
1, 78244, Note_on_c, 10, 57, 127
1, 78244, Note_on_c, 0, 60, 127
1, 78244, Note_on_c, 4, 76, 127
1, 78388, Note_off_c, 4, 76, 127
1, 78390, Note_on_c, 2, 74, 127
1, 78534, Note_off_c, 2, 74, 127
1, 78534, Note_off_c, 10, 57, 127
1, 78536, Note_on_c, 8, 56, 127
1, 78536, Note_on_c, 4, 76, 127
1, 78680, Note_off_c, 4, 76, 127
1, 78682, Note_on_c, 5, 77, 127
1, 78826, Note_off_c, 5, 77, 127
1, 78826, Note_off_c, 8, 56, 127
1, 78828, Note_on_c, 10, 57, 127
1, 78828, Note_on_c, 2, 74, 127
1, 78972, Note_off_c, 2, 74, 127
1, 78974, Note_on_c, 4, 76, 127
1, 79118, Note_off_c, 4, 76, 127
1, 79118, Note_off_c, 10, 57, 127
1, 79120, Note_on_c, 2, 50, 127
1, 79120, Note_on_c, 5, 77, 127
1, 79264, Note_off_c, 5, 77, 127
1, 79266, Note_on_c, 7, 79, 127
1, 79410, Note_off_c, 7, 79, 127
1, 79410, Note_off_c, 2, 50, 127
1, 79410, Note_off_c, 0, 60, 127
1, 79412, Note_on_c, 4, 52, 127
1, 79412, Note_on_c, 12, 59, 127
1, 79412, Note_on_c, 10, 81, 127
1, 79556, Note_off_c, 10, 81, 127
1, 79558, Note_on_c, 7, 79, 127
1, 79702, Note_off_c, 7, 79, 127
1, 79702, Note_off_c, 12, 59, 127
1, 79702, Note_off_c, 4, 52, 127
1, 79704, Note_on_c, 5, 53, 127
1, 79704, Note_on_c, 10, 57, 127
1, 79704, Note_on_c, 5, 77, 127
1, 79848, Note_off_c, 5, 77, 127
1, 79850, Note_on_c, 4, 76, 127
1, 79994, Note_off_c, 4, 76, 127
1, 79994, Note_off_c, 10, 57, 127
1, 79994, Note_off_c, 5, 53, 127
1, 79996, Note_on_c, 7, 55, 127
1, 79996, Note_on_c, 11, 58, 127
1, 79996, Note_on_c, 2, 74, 127
1, 80140, Note_off_c, 2, 74, 127
1, 80142, Note_on_c, 0, 72, 127
1, 80286, Note_off_c, 0, 72, 127
1, 80286, Note_off_c, 7, 55, 127
1, 80288, Note_on_c, 5, 53, 127
1, 80288, Note_on_c, 2, 74, 127
1, 80432, Note_off_c, 2, 74, 127
1, 80434, Note_on_c, 4, 76, 127
1, 80578, Note_off_c, 4, 76, 127
1, 80578, Note_off_c, 5, 53, 127
1, 80580, Note_on_c, 7, 55, 127
1, 80580, Note_on_c, 0, 72, 127
1, 80724, Note_off_c, 0, 72, 127
1, 80726, Note_on_c, 2, 74, 127
1, 80870, Note_off_c, 2, 74, 127
1, 80870, Note_off_c, 7, 55, 127
1, 80872, Note_on_c, 0, 48, 127
1, 80872, Note_on_c, 4, 76, 127
1, 81016, Note_off_c, 4, 76, 127
1, 81018, Note_on_c, 5, 77, 127
1, 81162, Note_off_c, 5, 77, 127
1, 81162, Note_off_c, 0, 48, 127
1, 81162, Note_off_c, 11, 58, 127
1, 81164, Note_on_c, 2, 50, 127
1, 81164, Note_on_c, 10, 57, 127
1, 81164, Note_on_c, 7, 79, 127
1, 81308, Note_off_c, 7, 79, 127
1, 81310, Note_on_c, 5, 77, 127
1, 81454, Note_off_c, 5, 77, 127
1, 81454, Note_off_c, 10, 57, 127
1, 81454, Note_off_c, 2, 50, 127
1, 81456, Note_on_c, 4, 52, 127
1, 81456, Note_on_c, 7, 55, 127
1, 81456, Note_on_c, 4, 76, 127
1, 81600, Note_off_c, 4, 76, 127
1, 81602, Note_on_c, 2, 74, 127
1, 81746, Note_off_c, 2, 74, 127
1, 81746, Note_off_c, 7, 55, 127
1, 81746, Note_off_c, 4, 52, 127
1, 81748, Note_on_c, 5, 53, 127
1, 81748, Note_on_c, 10, 57, 127
1, 81748, Note_on_c, 0, 72, 127
1, 81892, Note_off_c, 10, 57, 127
1, 81894, Note_on_c, 11, 70, 127
1, 82038, Note_off_c, 11, 70, 127
1, 82038, Note_off_c, 5, 53, 127
1, 82040, Note_on_c, 7, 55, 127
1, 82040, Note_on_c, 10, 69, 127
1, 82184, Note_off_c, 10, 69, 127
1, 82186, Note_on_c, 7, 67, 127
1, 82330, Note_off_c, 7, 67, 127
1, 82330, Note_off_c, 7, 55, 127
1, 82332, Note_on_c, 10, 57, 127
1, 82332, Note_on_c, 5, 65, 127
1, 82476, Note_off_c, 5, 65, 127
1, 82478, Note_on_c, 4, 64, 127
1, 82622, Note_off_c, 4, 64, 127
1, 82622, Note_off_c, 10, 57, 127
1, 82624, Note_on_c, 11, 58, 127
1, 82624, Note_on_c, 2, 62, 127
1, 82768, Note_off_c, 11, 58, 127
1, 82770, Note_on_c, 10, 57, 127
1, 82914, Note_off_c, 10, 57, 127
1, 82914, Note_off_c, 0, 72, 127
1, 82916, Note_on_c, 7, 55, 127
1, 82916, Note_on_c, 11, 70, 127
1, 83060, Note_off_c, 7, 55, 127
1, 83062, Note_on_c, 5, 53, 127
1, 83206, Note_off_c, 5, 53, 127
1, 83206, Note_off_c, 2, 62, 127
1, 83208, Note_on_c, 4, 52, 127
1, 83208, Note_on_c, 7, 67, 127
1, 83352, Note_off_c, 4, 52, 127
1, 83354, Note_on_c, 2, 50, 127
1, 83498, Note_off_c, 2, 50, 127
1, 83498, Note_off_c, 7, 67, 127
1, 83500, Note_on_c, 1, 49, 127
1, 83500, Note_on_c, 4, 64, 127
1, 83644, Note_off_c, 1, 49, 127
1, 83646, Note_on_c, 12, 47, 127
1, 83790, Note_off_c, 12, 47, 127
1, 83790, Note_off_c, 11, 70, 127
1, 83792, Note_on_c, 1, 49, 127
1, 83792, Note_on_c, 10, 69, 127
1, 83936, Note_off_c, 1, 49, 127
1, 83938, Note_on_c, 2, 50, 127
1, 84082, Note_off_c, 2, 50, 127
1, 84082, Note_off_c, 10, 69, 127
1, 84084, Note_on_c, 12, 47, 127
1, 84084, Note_on_c, 7, 67, 127
1, 84228, Note_off_c, 12, 47, 127
1, 84230, Note_on_c, 1, 49, 127
1, 84374, Note_off_c, 1, 49, 127
1, 84374, Note_off_c, 7, 67, 127
1, 84374, Note_off_c, 4, 64, 127
1, 84376, Note_on_c, 2, 50, 127
1, 84376, Note_on_c, 5, 65, 127
1, 84520, Note_off_c, 5, 65, 127
1, 84522, Note_on_c, 4, 64, 127
1, 84666, Note_off_c, 4, 64, 127
1, 84668, Note_on_c, 10, 57, 127
1, 84668, Note_on_c, 5, 65, 127
1, 84812, Note_off_c, 5, 65, 127
1, 84814, Note_on_c, 7, 67, 127
1, 84958, Note_off_c, 7, 67, 127
1, 84958, Note_off_c, 10, 57, 127
1, 84960, Note_on_c, 2, 62, 127
1, 84960, Note_on_c, 4, 64, 127
1, 85104, Note_off_c, 4, 64, 127
1, 85106, Note_on_c, 5, 65, 127
1, 85250, Note_off_c, 5, 65, 127
1, 85250, Note_off_c, 2, 50, 127
1, 85252, Note_on_c, 4, 52, 127
1, 85252, Note_on_c, 7, 67, 127
1, 85396, Note_off_c, 7, 67, 127
1, 85398, Note_on_c, 5, 65, 127
1, 85542, Note_off_c, 5, 65, 127
1, 85542, Note_off_c, 2, 62, 127
1, 85544, Note_on_c, 0, 60, 127
1, 85544, Note_on_c, 7, 67, 127
1, 85688, Note_off_c, 7, 67, 127
1, 85688, Note_off_c, 0, 60, 127
1, 85690, Note_on_c, 11, 58, 127
1, 85690, Note_on_c, 10, 69, 127
1, 85834, Note_off_c, 10, 69, 127
1, 85834, Note_off_c, 11, 58, 127
1, 85836, Note_on_c, 10, 57, 127
1, 85836, Note_on_c, 5, 65, 127
1, 85980, Note_off_c, 5, 65, 127
1, 85980, Note_off_c, 10, 57, 127
1, 85982, Note_on_c, 7, 55, 127
1, 85982, Note_on_c, 7, 67, 127
1, 86126, Note_off_c, 7, 67, 127
1, 86126, Note_off_c, 7, 55, 127
1, 86126, Note_off_c, 4, 52, 127
1, 86128, Note_on_c, 5, 53, 127
1, 86128, Note_on_c, 10, 69, 127
1, 86274, Note_on_c, 7, 55, 127
1, 86418, Note_off_c, 7, 55, 127
1, 86418, Note_off_c, 10, 69, 127
1, 86420, Note_on_c, 10, 57, 127
1, 86420, Note_on_c, 2, 62, 127
1, 86564, Note_off_c, 10, 57, 127
1, 86566, Note_on_c, 0, 60, 127
1, 86710, Note_off_c, 0, 60, 127
1, 86710, Note_off_c, 2, 62, 127
1, 86712, Note_on_c, 11, 58, 127
1, 86712, Note_on_c, 2, 74, 127
1, 86856, Note_off_c, 11, 58, 127
1, 86858, Note_on_c, 10, 57, 127
1, 87002, Note_off_c, 10, 57, 127
1, 87002, Note_off_c, 5, 53, 127
1, 87004, Note_on_c, 4, 52, 127
1, 87004, Note_on_c, 7, 55, 127
1, 87148, Note_off_c, 7, 55, 127
1, 87150, Note_on_c, 5, 53, 127
1, 87294, Note_off_c, 5, 53, 127
1, 87294, Note_off_c, 2, 74, 127
1, 87296, Note_on_c, 7, 55, 127
1, 87296, Note_on_c, 0, 72, 127
1, 87440, Note_off_c, 0, 72, 127
1, 87442, Note_on_c, 11, 70, 127
1, 87586, Note_off_c, 11, 70, 127
1, 87586, Note_off_c, 7, 55, 127
1, 87586, Note_off_c, 4, 52, 127
1, 87588, Note_on_c, 3, 51, 127
1, 87588, Note_on_c, 0, 60, 127
1, 87588, Note_on_c, 10, 69, 127
1, 87732, Note_off_c, 10, 69, 127
1, 87734, Note_on_c, 7, 67, 127
1, 87878, Note_off_c, 7, 67, 127
1, 87878, Note_off_c, 3, 51, 127
1, 87880, Note_on_c, 2, 50, 127
1, 87880, Note_on_c, 6, 66, 127
1, 88024, Note_off_c, 6, 66, 127
1, 88026, Note_on_c, 4, 64, 127
1, 88170, Note_off_c, 4, 64, 127
1, 88170, Note_off_c, 0, 60, 127
1, 88172, Note_on_c, 11, 58, 127
1, 88172, Note_on_c, 6, 66, 127
1, 88316, Note_off_c, 6, 66, 127
1, 88318, Note_on_c, 7, 67, 127
1, 88462, Note_off_c, 7, 67, 127
1, 88462, Note_off_c, 11, 58, 127
1, 88464, Note_on_c, 10, 57, 127
1, 88464, Note_on_c, 4, 64, 127
1, 88608, Note_off_c, 4, 64, 127
1, 88610, Note_on_c, 6, 66, 127
1, 88754, Note_off_c, 6, 66, 127
1, 88754, Note_off_c, 10, 57, 127
1, 88756, Note_on_c, 11, 58, 127
1, 88756, Note_on_c, 7, 67, 127
1, 88900, Note_off_c, 11, 58, 127
1, 88902, Note_on_c, 10, 57, 127
1, 89046, Note_off_c, 10, 57, 127
1, 89046, Note_off_c, 2, 50, 127
1, 89048, Note_on_c, 0, 48, 127
1, 89048, Note_on_c, 11, 58, 127
1, 89192, Note_off_c, 11, 58, 127
1, 89194, Note_on_c, 0, 60, 127
1, 89338, Note_off_c, 0, 60, 127
1, 89338, Note_off_c, 0, 48, 127
1, 89340, Note_on_c, 11, 46, 127
1, 89340, Note_on_c, 2, 62, 127
1, 89484, Note_off_c, 2, 62, 127
1, 89486, Note_on_c, 4, 64, 127
1, 89630, Note_off_c, 4, 64, 127
1, 89630, Note_off_c, 11, 46, 127
1, 89630, Note_off_c, 7, 67, 127
1, 89632, Note_on_c, 3, 51, 127
1, 89632, Note_on_c, 6, 66, 127
1, 89632, Note_on_c, 10, 69, 127
1, 89776, Note_off_c, 6, 66, 127
1, 89778, Note_on_c, 4, 64, 127
1, 89922, Note_off_c, 4, 64, 127
1, 89922, Note_off_c, 3, 51, 127
1, 89924, Note_on_c, 0, 48, 127
1, 89924, Note_on_c, 6, 66, 127
1, 90068, Note_off_c, 6, 66, 127
1, 90070, Note_on_c, 7, 67, 127
1, 90214, Note_off_c, 7, 67, 127
1, 90214, Note_off_c, 0, 48, 127
1, 90216, Note_on_c, 2, 50, 127
1, 90216, Note_on_c, 4, 64, 127
1, 90360, Note_off_c, 4, 64, 127
1, 90362, Note_on_c, 6, 66, 127
1, 90506, Note_off_c, 6, 66, 127
1, 90506, Note_off_c, 2, 50, 127
1, 90506, Note_off_c, 10, 69, 127
1, 90508, Note_on_c, 7, 43, 127
1, 90508, Note_on_c, 7, 67, 127
1, 90508, Note_on_c, 11, 70, 127
1, 90652, Note_off_c, 7, 43, 127
1, 90654, Note_on_c, 6, 42, 127
1, 90798, Note_off_c, 6, 42, 127
1, 90798, Note_off_c, 7, 67, 127
1, 90800, Note_on_c, 7, 43, 127
1, 90800, Note_on_c, 2, 62, 127
1, 90944, Note_off_c, 7, 43, 127
1, 90946, Note_on_c, 10, 45, 127
1, 91090, Note_off_c, 10, 45, 127
1, 91090, Note_off_c, 2, 62, 127
1, 91092, Note_on_c, 6, 42, 127
1, 91092, Note_on_c, 7, 67, 127
1, 91236, Note_off_c, 6, 42, 127
1, 91238, Note_on_c, 7, 43, 127
1, 91382, Note_off_c, 7, 43, 127
1, 91382, Note_off_c, 11, 70, 127
1, 91384, Note_on_c, 10, 45, 127
1, 91384, Note_on_c, 10, 69, 127
1, 91528, Note_off_c, 10, 45, 127
1, 91530, Note_on_c, 7, 43, 127
1, 91674, Note_off_c, 7, 43, 127
1, 91674, Note_off_c, 7, 67, 127
1, 91676, Note_on_c, 10, 45, 127
1, 91676, Note_on_c, 6, 66, 127
1, 91820, Note_off_c, 6, 66, 127
1, 91820, Note_off_c, 10, 45, 127
1, 91822, Note_on_c, 11, 46, 127
1, 91822, Note_on_c, 4, 64, 127
1, 91966, Note_off_c, 4, 64, 127
1, 91966, Note_off_c, 11, 46, 127
1, 91968, Note_on_c, 7, 43, 127
1, 91968, Note_on_c, 2, 62, 127
1, 92112, Note_off_c, 2, 62, 127
1, 92112, Note_off_c, 7, 43, 127
1, 92114, Note_on_c, 10, 45, 127
1, 92114, Note_on_c, 0, 60, 127
1, 92258, Note_off_c, 0, 60, 127
1, 92258, Note_off_c, 10, 45, 127
1, 92258, Note_off_c, 10, 69, 127
1, 92260, Note_on_c, 11, 46, 127
1, 92260, Note_on_c, 2, 62, 127
1, 92260, Note_on_c, 7, 67, 127
1, 92404, Note_off_c, 11, 46, 127
1, 92406, Note_on_c, 10, 45, 127
1, 92550, Note_off_c, 10, 45, 127
1, 92550, Note_off_c, 7, 67, 127
1, 92552, Note_on_c, 11, 46, 127
1, 92552, Note_on_c, 2, 74, 127
1, 92696, Note_off_c, 11, 46, 127
1, 92698, Note_on_c, 0, 48, 127
1, 92826, Note_off_c, 2, 74, 127
1, 92843, Note_off_c, 0, 48, 127
1, 92845, Note_on_c, 10, 45, 127
1, 92845, Note_on_c, 5, 65, 127
1, 92989, Note_off_c, 10, 45, 127
1, 92991, Note_on_c, 11, 46, 127
1, 93119, Note_off_c, 5, 65, 127
1, 93136, Note_off_c, 11, 46, 127
1, 93138, Note_on_c, 0, 48, 127
1, 93138, Note_on_c, 3, 63, 127
1, 93282, Note_off_c, 0, 48, 127
1, 93284, Note_on_c, 2, 50, 127
1, 93428, Note_off_c, 2, 50, 127
1, 93428, Note_off_c, 2, 62, 127
1, 93430, Note_on_c, 3, 51, 127
1, 93430, Note_on_c, 0, 60, 127
1, 93574, Note_off_c, 3, 51, 127
1, 93576, Note_on_c, 2, 50, 127
1, 93720, Note_off_c, 2, 50, 127
1, 93720, Note_off_c, 0, 60, 127
1, 93722, Note_on_c, 0, 48, 127
1, 93722, Note_on_c, 11, 58, 127
1, 93866, Note_off_c, 0, 48, 127
1, 93868, Note_on_c, 11, 46, 127
1, 94012, Note_off_c, 11, 46, 127
1, 94012, Note_off_c, 11, 58, 127
1, 94014, Note_on_c, 10, 45, 127
1, 94014, Note_on_c, 0, 60, 127
1, 94158, Note_off_c, 10, 45, 127
1, 94160, Note_on_c, 7, 43, 127
1, 94304, Note_off_c, 7, 43, 127
1, 94304, Note_off_c, 3, 63, 127
1, 94306, Note_on_c, 10, 45, 127
1, 94306, Note_on_c, 0, 72, 127
1, 94450, Note_off_c, 10, 45, 127
1, 94452, Note_on_c, 11, 46, 127
1, 94580, Note_off_c, 0, 72, 127
1, 94597, Note_off_c, 11, 46, 127
1, 94599, Note_on_c, 7, 43, 127
1, 94599, Note_on_c, 3, 63, 127
1, 94743, Note_off_c, 7, 43, 127
1, 94745, Note_on_c, 10, 45, 127
1, 94873, Note_off_c, 3, 63, 127
1, 94890, Note_off_c, 10, 45, 127
1, 94892, Note_on_c, 11, 46, 127
1, 94892, Note_on_c, 2, 62, 127
1, 95036, Note_off_c, 11, 46, 127
1, 95038, Note_on_c, 0, 48, 127
1, 95182, Note_off_c, 0, 48, 127
1, 95182, Note_off_c, 0, 60, 127
1, 95184, Note_on_c, 2, 50, 127
1, 95184, Note_on_c, 11, 58, 127
1, 95328, Note_off_c, 2, 50, 127
1, 95330, Note_on_c, 0, 48, 127
1, 95474, Note_off_c, 0, 48, 127
1, 95474, Note_off_c, 11, 58, 127
1, 95476, Note_on_c, 11, 46, 127
1, 95476, Note_on_c, 10, 57, 127
1, 95620, Note_off_c, 11, 46, 127
1, 95622, Note_on_c, 10, 45, 127
1, 95766, Note_off_c, 10, 45, 127
1, 95766, Note_off_c, 10, 57, 127
1, 95768, Note_on_c, 7, 43, 127
1, 95768, Note_on_c, 11, 58, 127
1, 95912, Note_off_c, 2, 62, 127
1, 95914, Note_on_c, 4, 64, 127
1, 96057, Note_off_c, 11, 58, 127
1, 96059, Note_off_c, 4, 64, 127
1, 96061, Note_on_c, 6, 66, 127
1, 96205, Note_off_c, 6, 66, 127
1, 96207, Note_on_c, 7, 67, 127
1, 96351, Note_off_c, 7, 67, 127
1, 96353, Note_on_c, 10, 69, 127
1, 96497, Note_off_c, 10, 69, 127
1, 96499, Note_on_c, 11, 70, 127
1, 96643, Note_off_c, 11, 70, 127
1, 96643, Note_off_c, 7, 43, 127
1, 96645, Note_on_c, 10, 45, 127
1, 96645, Note_on_c, 0, 72, 127
1, 96789, Note_off_c, 0, 72, 127
1, 96791, Note_on_c, 2, 74, 127
1, 96935, Note_off_c, 2, 74, 127
1, 96937, Note_on_c, 4, 76, 127
1, 97081, Note_off_c, 4, 76, 127
1, 97083, Note_on_c, 6, 78, 127
1, 97227, Note_off_c, 6, 78, 127
1, 97229, Note_on_c, 7, 79, 127
1, 97373, Note_off_c, 7, 79, 127
1, 97375, Note_on_c, 10, 81, 127
1, 97519, Note_off_c, 10, 81, 127
1, 97519, Note_off_c, 10, 45, 127
1, 97521, Note_on_c, 11, 46, 127
1, 97521, Note_on_c, 2, 74, 127
1, 97665, Note_off_c, 2, 74, 127
1, 97667, Note_on_c, 7, 79, 127
1, 97811, Note_off_c, 7, 79, 127
1, 97813, Note_on_c, 10, 81, 127
1, 97957, Note_off_c, 10, 81, 127
1, 97959, Note_on_c, 11, 82, 127
1, 98103, Note_off_c, 11, 82, 127
1, 98105, Note_on_c, 10, 81, 127
1, 98249, Note_off_c, 10, 81, 127
1, 98251, Note_on_c, 7, 79, 127
1, 98395, Note_off_c, 7, 79, 127
1, 98395, Note_off_c, 11, 46, 127
1, 98397, Note_on_c, 10, 45, 127
1, 98397, Note_on_c, 0, 72, 127
1, 98541, Note_off_c, 0, 72, 127
1, 98543, Note_on_c, 6, 78, 127
1, 98687, Note_off_c, 6, 78, 127
1, 98689, Note_on_c, 7, 79, 127
1, 98833, Note_off_c, 7, 79, 127
1, 98835, Note_on_c, 10, 81, 127
1, 98979, Note_off_c, 10, 81, 127
1, 98981, Note_on_c, 7, 79, 127
1, 99125, Note_off_c, 7, 79, 127
1, 99127, Note_on_c, 6, 78, 127
1, 99271, Note_off_c, 6, 78, 127
1, 99271, Note_off_c, 10, 45, 127
1, 99273, Note_on_c, 7, 43, 127
1, 99273, Note_on_c, 7, 79, 127
1, 99417, Note_off_c, 7, 43, 127
1, 99419, Note_on_c, 10, 45, 127
1, 99563, Note_off_c, 10, 45, 127
1, 99565, Note_on_c, 11, 46, 127
1, 99709, Note_off_c, 11, 46, 127
1, 99711, Note_on_c, 0, 48, 127
1, 99855, Note_off_c, 0, 48, 127
1, 99857, Note_on_c, 2, 50, 127
1, 100001, Note_off_c, 2, 50, 127
1, 100003, Note_on_c, 4, 52, 127
1, 100147, Note_off_c, 4, 52, 127
1, 100147, Note_off_c, 7, 79, 127
1, 100149, Note_on_c, 6, 54, 127
1, 100149, Note_on_c, 10, 81, 127
1, 100293, Note_off_c, 6, 54, 127
1, 100295, Note_on_c, 7, 55, 127
1, 100439, Note_off_c, 7, 55, 127
1, 100441, Note_on_c, 10, 57, 127
1, 100585, Note_off_c, 10, 57, 127
1, 100587, Note_on_c, 11, 58, 127
1, 100731, Note_off_c, 11, 58, 127
1, 100733, Note_on_c, 0, 60, 127
1, 100877, Note_off_c, 0, 60, 127
1, 100879, Note_on_c, 2, 62, 127
1, 101023, Note_off_c, 2, 62, 127
1, 101023, Note_off_c, 10, 81, 127
1, 101025, Note_on_c, 7, 55, 127
1, 101025, Note_on_c, 11, 82, 127
1, 101169, Note_off_c, 7, 55, 127
1, 101171, Note_on_c, 2, 62, 127
1, 101315, Note_off_c, 2, 62, 127
1, 101317, Note_on_c, 3, 63, 127
1, 101461, Note_off_c, 3, 63, 127
1, 101463, Note_on_c, 5, 65, 127
1, 101607, Note_off_c, 5, 65, 127
1, 101609, Note_on_c, 3, 63, 127
1, 101753, Note_off_c, 3, 63, 127
1, 101755, Note_on_c, 2, 62, 127
1, 101899, Note_off_c, 2, 62, 127
1, 101899, Note_off_c, 11, 82, 127
1, 101901, Note_on_c, 6, 54, 127
1, 101901, Note_on_c, 0, 84, 127
1, 102045, Note_off_c, 6, 54, 127
1, 102047, Note_on_c, 0, 60, 127
1, 102191, Note_off_c, 0, 60, 127
1, 102193, Note_on_c, 2, 62, 127
1, 102337, Note_off_c, 2, 62, 127
1, 102339, Note_on_c, 3, 63, 127
1, 102483, Note_off_c, 3, 63, 127
1, 102485, Note_on_c, 2, 62, 127
1, 102629, Note_off_c, 2, 62, 127
1, 102631, Note_on_c, 0, 60, 127
1, 102775, Note_off_c, 0, 60, 127
1, 102775, Note_off_c, 0, 84, 127
1, 102777, Note_on_c, 11, 58, 127
1, 102777, Note_on_c, 2, 62, 127
1, 102923, Note_on_c, 2, 74, 127
1, 103067, Note_off_c, 2, 74, 127
1, 103069, Note_on_c, 7, 79, 127
1, 103213, Note_off_c, 7, 79, 127
1, 103215, Note_on_c, 5, 77, 127
1, 103359, Note_off_c, 5, 77, 127
1, 103361, Note_on_c, 4, 76, 127
1, 103505, Note_off_c, 4, 76, 127
1, 103507, Note_on_c, 2, 74, 127
1, 103651, Note_off_c, 2, 74, 127
1, 103651, Note_off_c, 2, 62, 127
1, 103653, Note_on_c, 4, 64, 127
1, 103653, Note_on_c, 1, 73, 127
1, 103797, Note_off_c, 11, 58, 127
1, 103799, Note_on_c, 4, 52, 127
1, 103943, Note_off_c, 4, 52, 127
1, 103943, Note_off_c, 1, 73, 127
1, 103945, Note_on_c, 10, 57, 127
1, 103945, Note_on_c, 2, 74, 127
1, 104089, Note_off_c, 10, 57, 127
1, 104091, Note_on_c, 7, 55, 127
1, 104235, Note_off_c, 7, 55, 127
1, 104235, Note_off_c, 2, 74, 127
1, 104237, Note_on_c, 5, 53, 127
1, 104237, Note_on_c, 4, 76, 127
1, 104381, Note_off_c, 5, 53, 127
1, 104383, Note_on_c, 4, 52, 127
1, 104527, Note_off_c, 4, 52, 127
1, 104527, Note_off_c, 4, 64, 127
1, 104529, Note_on_c, 2, 50, 127
1, 104529, Note_on_c, 5, 65, 127
1, 104673, Note_off_c, 2, 50, 127
1, 104675, Note_on_c, 4, 52, 127
1, 104819, Note_off_c, 4, 52, 127
1, 104819, Note_off_c, 4, 76, 127
1, 104821, Note_on_c, 2, 50, 127
1, 104821, Note_on_c, 10, 69, 127
1, 104965, Note_off_c, 2, 50, 127
1, 104967, Note_on_c, 0, 48, 127
1, 105111, Note_off_c, 0, 48, 127
1, 105111, Note_off_c, 10, 69, 127
1, 105113, Note_on_c, 11, 46, 127
1, 105113, Note_on_c, 2, 74, 127
1, 105257, Note_off_c, 11, 46, 127
1, 105259, Note_on_c, 10, 45, 127
1, 105403, Note_off_c, 10, 45, 127
1, 105403, Note_off_c, 5, 65, 127
1, 105405, Note_on_c, 7, 43, 127
1, 105405, Note_on_c, 4, 64, 127
1, 105695, Note_off_c, 7, 43, 127
1, 105695, Note_off_c, 2, 74, 127
1, 105697, Note_on_c, 4, 40, 127
1, 105697, Note_on_c, 1, 73, 127
1, 105841, Note_off_c, 1, 73, 127
1, 105843, Note_on_c, 12, 71, 127
1, 105987, Note_off_c, 12, 71, 127
1, 105987, Note_off_c, 4, 40, 127
1, 105989, Note_on_c, 10, 45, 127
1, 105989, Note_on_c, 10, 69, 127
1, 106133, Note_off_c, 10, 69, 127
1, 106135, Note_on_c, 7, 67, 127
1, 106279, Note_off_c, 7, 67, 127
1, 106279, Note_off_c, 10, 45, 127
1, 106279, Note_off_c, 4, 64, 127
1, 106281, Note_on_c, 2, 38, 127
1, 106281, Note_on_c, 2, 62, 127
1, 106281, Note_on_c, 5, 65, 127
1, 106425, Note_off_c, 2, 62, 127
1, 106427, Note_on_c, 4, 64, 127
1, 106571, Note_off_c, 4, 64, 127
1, 106573, Note_on_c, 2, 62, 127
1, 106717, Note_off_c, 2, 62, 127
1, 106719, Note_on_c, 0, 60, 127
1, 106863, Note_off_c, 0, 60, 127
1, 106865, Note_on_c, 11, 58, 127
1, 107009, Note_off_c, 11, 58, 127
1, 107011, Note_on_c, 10, 57, 127
1, 107155, Note_off_c, 10, 57, 127
1, 107155, Note_off_c, 2, 38, 127
1, 107157, Note_on_c, 4, 40, 127
1, 107157, Note_on_c, 7, 55, 127
1, 107301, Note_off_c, 5, 65, 127
1, 107303, Note_on_c, 5, 65, 127
1, 107447, Note_off_c, 5, 65, 127
1, 107449, Note_on_c, 4, 64, 127
1, 107593, Note_off_c, 4, 64, 127
1, 107595, Note_on_c, 2, 62, 127
1, 107739, Note_off_c, 2, 62, 127
1, 107741, Note_on_c, 1, 61, 127
1, 107885, Note_off_c, 1, 61, 127
1, 107887, Note_on_c, 12, 59, 127
1, 108031, Note_off_c, 12, 59, 127
1, 108031, Note_off_c, 4, 40, 127
1, 108033, Note_on_c, 5, 41, 127
1, 108033, Note_on_c, 10, 57, 127
1, 108177, Note_off_c, 7, 55, 127
1, 108179, Note_on_c, 7, 55, 127
1, 108323, Note_off_c, 7, 55, 127
1, 108325, Note_on_c, 5, 53, 127
1, 108469, Note_off_c, 5, 53, 127
1, 108471, Note_on_c, 4, 52, 127
1, 108615, Note_off_c, 4, 52, 127
1, 108617, Note_on_c, 2, 50, 127
1, 108761, Note_off_c, 10, 57, 127
1, 108763, Note_on_c, 10, 57, 127
1, 108907, Note_off_c, 10, 57, 127
1, 108907, Note_off_c, 5, 41, 127
1, 108909, Note_on_c, 4, 40, 127
1, 108909, Note_on_c, 7, 55, 127
1, 109053, Note_off_c, 2, 50, 127
1, 109055, Note_on_c, 5, 53, 127
1, 109199, Note_off_c, 5, 53, 127
1, 109201, Note_on_c, 4, 52, 127
1, 109345, Note_off_c, 4, 52, 127
1, 109347, Note_on_c, 2, 50, 127
1, 109491, Note_off_c, 2, 50, 127
1, 109493, Note_on_c, 1, 49, 127
1, 109637, Note_off_c, 7, 55, 127
1, 109639, Note_on_c, 7, 55, 127
1, 109774, Note_off_c, 1, 49, 127
1, 109783, Note_off_c, 7, 55, 127
1, 109783, Note_off_c, 4, 40, 127
1, 109785, Note_on_c, 2, 38, 127
1, 109785, Note_on_c, 2, 50, 127
1, 109933, Note_on_c, 7, 55, 127
1, 110079, Note_off_c, 7, 55, 127
1, 110081, Note_on_c, 5, 53, 127
1, 110227, Note_off_c, 2, 50, 127
1, 110229, Note_on_c, 2, 50, 127
1, 110375, Note_off_c, 2, 50, 127
1, 110377, Note_on_c, 4, 52, 127
1, 110523, Note_off_c, 5, 53, 127
1, 110525, Note_on_c, 7, 55, 127
1, 110670, Note_off_c, 4, 52, 127
1, 110672, Note_off_c, 7, 55, 127
1, 110674, Note_on_c, 10, 57, 127
1, 110822, Note_on_c, 6, 54, 127
1, 110968, Note_off_c, 6, 54, 127
1, 110968, Note_off_c, 2, 38, 127
1, 110970, Note_on_c, 2, 50, 127
1, 110970, Note_on_c, 7, 55, 127
1, 111116, Note_off_c, 2, 50, 127
1, 111116, Note_off_c, 10, 57, 127
1, 111118, Note_on_c, 0, 48, 127
1, 111118, Note_on_c, 11, 58, 127
1, 111264, Note_off_c, 11, 58, 127
1, 111264, Note_off_c, 0, 48, 127
1, 111266, Note_on_c, 11, 46, 127
1, 111266, Note_on_c, 0, 60, 127
1, 111412, Note_off_c, 11, 46, 127
1, 111412, Note_off_c, 7, 55, 127
1, 111414, Note_on_c, 10, 45, 127
1, 111414, Note_on_c, 6, 54, 127
1, 111560, Note_off_c, 6, 54, 127
1, 111560, Note_off_c, 10, 45, 127
1, 111562, Note_on_c, 7, 43, 127
1, 111562, Note_on_c, 7, 55, 127
1, 111710, Note_off_c, 0, 60, 127
1, 111712, Note_on_c, 0, 60, 127
1, 111860, Note_off_c, 0, 60, 127
1, 111862, Note_on_c, 11, 58, 127
1, 112010, Note_off_c, 7, 55, 127
1, 112012, Note_on_c, 7, 55, 127
1, 112160, Note_off_c, 7, 55, 127
1, 112162, Note_on_c, 10, 57, 127
1, 112310, Note_off_c, 11, 58, 127
1, 112312, Note_on_c, 0, 60, 127
1, 112458, Note_off_c, 10, 57, 127
1, 112460, Note_off_c, 0, 60, 127
1, 112462, Note_on_c, 2, 62, 127
1, 112612, Note_on_c, 10, 57, 127
1, 112760, Note_off_c, 10, 57, 127
1, 112760, Note_off_c, 7, 43, 127
1, 112762, Note_on_c, 7, 55, 127
1, 112762, Note_on_c, 11, 58, 127
1, 112910, Note_off_c, 7, 55, 127
1, 112910, Note_off_c, 2, 62, 127
1, 112912, Note_on_c, 5, 53, 127
1, 112912, Note_on_c, 2, 62, 127
1, 113060, Note_off_c, 2, 62, 127
1, 113060, Note_off_c, 5, 53, 127
1, 113062, Note_on_c, 4, 52, 127
1, 113062, Note_on_c, 7, 67, 127
1, 113210, Note_off_c, 4, 52, 127
1, 113210, Note_off_c, 11, 58, 127
1, 113212, Note_on_c, 2, 50, 127
1, 113212, Note_on_c, 11, 58, 127
1, 113360, Note_off_c, 11, 58, 127
1, 113360, Note_off_c, 2, 50, 127
1, 113362, Note_on_c, 1, 49, 127
1, 113362, Note_on_c, 10, 57, 127
1, 113514, Note_off_c, 7, 67, 127
1, 113516, Note_on_c, 7, 67, 127
1, 113668, Note_off_c, 7, 67, 127
1, 113668, Note_off_c, 1, 49, 127
1, 113670, Note_on_c, 2, 50, 127
1, 113670, Note_on_c, 5, 65, 127
1, 113822, Note_off_c, 10, 57, 127
1, 113824, Note_on_c, 10, 57, 127
1, 113976, Note_off_c, 10, 57, 127
1, 113976, Note_off_c, 2, 50, 127
1, 113978, Note_on_c, 11, 46, 127
1, 113978, Note_on_c, 7, 55, 127
1, 114141, Note_off_c, 5, 65, 127
1, 114143, Note_on_c, 4, 64, 127
1, 114304, Note_off_c, 7, 55, 127
1, 114306, Note_off_c, 4, 64, 127
1, 114306, Note_off_c, 11, 46, 127
1, 114308, Note_on_c, 8, 44, 127
1, 114308, Note_on_c, 2, 62, 127
1, 114473, Note_on_c, 5, 53, 127
1, 114634, Note_off_c, 2, 62, 127
1, 114636, Note_off_c, 5, 53, 127
1, 114636, Note_off_c, 8, 44, 127
1, 114638, Note_on_c, 10, 45, 127
1, 114638, Note_on_c, 4, 52, 127
1, 114827, Note_on_c, 2, 62, 127
1, 115014, Note_off_c, 4, 52, 127
1, 115014, Note_off_c, 10, 45, 127
1, 115016, Note_on_c, 10, 45, 127
1, 115016, Note_on_c, 4, 52, 127
1, 115203, Note_off_c, 2, 62, 127
1, 115230, Note_on_c, 1, 61, 127
1, 115426, Note_off_c, 4, 52, 127
1, 115426, Note_off_c, 10, 45, 127
1, 115437, Note_off_c, 1, 61, 127
1, 115506, Note_on_c, 2, 62, 127
1, 115506, Note_on_c, 5, 53, 127
1, 115506, Note_on_c, 2, 38, 127
1, 118306, Note_off_c, 2, 38, 127
1, 118306, Note_off_c, 5, 53, 127
1, 118306, Note_off_c, 2, 62, 127
1, 122880, End_track
0, 0, End_of_file
