0, 0, Header, 1, 4, 240
1, 0, Start_track
1, 0, Time_signature, 1, 3, 12, 8
1, 0, Tempo, 555556
1, 120, Time_signature, 3, 3, 36, 8
1, 120, Tempo, 526316
1, 2640, Time_signature, 2, 3, 24, 8
1, 2880, Time_signature, 1, 3, 12, 8
1, 2880, Tempo, 555556
1, 3000, Time_signature, 3, 3, 36, 8
1, 3000, Tempo, 526316
1, 5520, Time_signature, 2, 3, 24, 8
1, 5760, Time_signature, 1, 3, 12, 8
1, 5880, Time_signature, 3, 3, 36, 8
1, 11280, Time_signature, 2, 3, 24, 8
1, 11520, Time_signature, 1, 3, 12, 8
1, 11640, Time_signature, 3, 3, 36, 8
1, 17040, Time_signature, 2, 3, 24, 8
1, 17040, End_track
2, 0, Start_track
2, 0, Title_t, "English Suite 1, 6. Passepeid 2"
2, 0, Program_c, 0, 0
2, 0, Note_on_c, 0, 83, 107
2, 0, Note_on_c, 0, 68, 107
2, 48, Note_off_c, 0, 68, 64
2, 60, Note_on_c, 0, 69, 107
2, 96, Note_off_c, 0, 83, 64
2, 108, Note_off_c, 0, 69, 64
2, 120, Note_on_c, 0, 80, 107
2, 120, Note_on_c, 0, 71, 107
2, 216, Note_off_c, 0, 71, 64
2, 216, Note_off_c, 0, 80, 64
2, 240, Note_on_c, 0, 69, 107
2, 240, Note_on_c, 0, 81, 107
2, 288, Note_off_c, 0, 81, 64
2, 300, Note_on_c, 0, 80, 107
2, 336, Note_off_c, 0, 69, 64
2, 348, Note_off_c, 0, 80, 64
2, 360, Note_on_c, 0, 68, 107
2, 360, Note_on_c, 0, 78, 107
2, 408, Note_off_c, 0, 78, 64
2, 420, Note_on_c, 0, 76, 107
2, 456, Note_off_c, 0, 68, 64
2, 468, Note_off_c, 0, 76, 64
2, 480, Note_on_c, 0, 78, 107
2, 480, Note_on_c, 0, 69, 107
2, 528, Note_off_c, 0, 78, 64
2, 540, Note_on_c, 0, 75, 107
2, 576, Note_off_c, 0, 69, 64
2, 588, Note_off_c, 0, 75, 64
2, 600, Note_on_c, 0, 76, 107
2, 600, Note_on_c, 0, 68, 107
2, 648, Note_off_c, 0, 68, 64
2, 660, Note_on_c, 0, 66, 107
2, 696, Note_off_c, 0, 76, 64
2, 708, Note_off_c, 0, 66, 64
2, 720, Note_on_c, 0, 69, 107
2, 720, Note_on_c, 0, 71, 107
2, 768, Note_off_c, 0, 69, 64
2, 780, Note_on_c, 0, 68, 107
2, 816, Note_off_c, 0, 71, 64
2, 828, Note_off_c, 0, 68, 64
2, 840, Note_on_c, 0, 73, 107
2, 840, Note_on_c, 0, 69, 107
2, 936, Note_off_c, 0, 69, 64
2, 936, Note_off_c, 0, 73, 64
2, 960, Note_on_c, 0, 71, 107
2, 960, Note_on_c, 0, 68, 107
2, 1056, Note_off_c, 0, 68, 64
2, 1056, Note_off_c, 0, 71, 64
2, 1080, Note_on_c, 0, 69, 107
2, 1080, Note_on_c, 0, 66, 107
2, 1176, Note_off_c, 0, 66, 64
2, 1176, Note_off_c, 0, 69, 64
2, 1200, Note_on_c, 0, 68, 107
2, 1200, Note_on_c, 0, 64, 107
2, 1248, Note_off_c, 0, 68, 64
2, 1260, Note_on_c, 0, 66, 107
2, 1308, Note_off_c, 0, 66, 64
2, 1320, Note_on_c, 0, 64, 107
2, 1344, Note_off_c, 0, 64, 64
2, 1380, Note_on_c, 0, 66, 107
2, 1416, Note_off_c, 0, 64, 64
2, 1428, Note_off_c, 0, 66, 64
2, 1440, Note_on_c, 0, 68, 107
2, 1440, Note_on_c, 0, 83, 107
2, 1488, Note_off_c, 0, 68, 64
2, 1500, Note_on_c, 0, 69, 107
2, 1536, Note_off_c, 0, 83, 64
2, 1548, Note_off_c, 0, 69, 64
2, 1560, Note_on_c, 0, 80, 107
2, 1560, Note_on_c, 0, 71, 107
2, 1656, Note_off_c, 0, 71, 64
2, 1656, Note_off_c, 0, 80, 64
2, 1680, Note_on_c, 0, 69, 107
2, 1680, Note_on_c, 0, 81, 107
2, 1728, Note_off_c, 0, 81, 64
2, 1740, Note_on_c, 0, 80, 107
2, 1776, Note_off_c, 0, 69, 64
2, 1788, Note_off_c, 0, 80, 64
2, 1800, Note_on_c, 0, 68, 107
2, 1800, Note_on_c, 0, 78, 107
2, 1848, Note_off_c, 0, 78, 64
2, 1860, Note_on_c, 0, 76, 107
2, 1896, Note_off_c, 0, 68, 64
2, 1908, Note_off_c, 0, 76, 64
2, 1920, Note_on_c, 0, 78, 107
2, 1920, Note_on_c, 0, 69, 107
2, 1968, Note_off_c, 0, 78, 64
2, 1980, Note_on_c, 0, 75, 107
2, 2016, Note_off_c, 0, 69, 64
2, 2028, Note_off_c, 0, 75, 64
2, 2040, Note_on_c, 0, 76, 107
2, 2040, Note_on_c, 0, 68, 107
2, 2088, Note_off_c, 0, 68, 64
2, 2100, Note_on_c, 0, 66, 107
2, 2136, Note_off_c, 0, 76, 64
2, 2148, Note_off_c, 0, 66, 64
2, 2160, Note_on_c, 0, 69, 107
2, 2160, Note_on_c, 0, 71, 107
2, 2208, Note_off_c, 0, 69, 64
2, 2220, Note_on_c, 0, 68, 107
2, 2256, Note_off_c, 0, 71, 64
2, 2268, Note_off_c, 0, 68, 64
2, 2280, Note_on_c, 0, 73, 107
2, 2280, Note_on_c, 0, 69, 107
2, 2376, Note_off_c, 0, 69, 64
2, 2376, Note_off_c, 0, 73, 64
2, 2400, Note_on_c, 0, 68, 107
2, 2400, Note_on_c, 0, 71, 107
2, 2496, Note_off_c, 0, 71, 64
2, 2496, Note_off_c, 0, 68, 64
2, 2520, Note_on_c, 0, 66, 107
2, 2520, Note_on_c, 0, 69, 107
2, 2616, Note_off_c, 0, 69, 64
2, 2616, Note_off_c, 0, 66, 64
2, 2640, Note_on_c, 0, 68, 107
2, 2640, Note_on_c, 0, 64, 107
2, 2832, Note_off_c, 0, 64, 64
2, 2832, Note_off_c, 0, 68, 64
2, 2880, Note_on_c, 0, 83, 107
2, 2880, Note_on_c, 0, 68, 107
2, 2928, Note_off_c, 0, 68, 64
2, 2940, Note_on_c, 0, 69, 107
2, 2976, Note_off_c, 0, 83, 64
2, 2988, Note_off_c, 0, 69, 64
2, 3000, Note_on_c, 0, 80, 107
2, 3000, Note_on_c, 0, 71, 107
2, 3096, Note_off_c, 0, 71, 64
2, 3096, Note_off_c, 0, 80, 64
2, 3120, Note_on_c, 0, 69, 107
2, 3120, Note_on_c, 0, 81, 107
2, 3168, Note_off_c, 0, 81, 64
2, 3180, Note_on_c, 0, 80, 107
2, 3216, Note_off_c, 0, 69, 64
2, 3228, Note_off_c, 0, 80, 64
2, 3240, Note_on_c, 0, 68, 107
2, 3240, Note_on_c, 0, 78, 107
2, 3288, Note_off_c, 0, 78, 64
2, 3300, Note_on_c, 0, 76, 107
2, 3336, Note_off_c, 0, 68, 64
2, 3348, Note_off_c, 0, 76, 64
2, 3360, Note_on_c, 0, 78, 107
2, 3360, Note_on_c, 0, 69, 107
2, 3408, Note_off_c, 0, 78, 64
2, 3420, Note_on_c, 0, 75, 107
2, 3456, Note_off_c, 0, 69, 64
2, 3468, Note_off_c, 0, 75, 64
2, 3480, Note_on_c, 0, 76, 107
2, 3480, Note_on_c, 0, 68, 107
2, 3528, Note_off_c, 0, 68, 64
2, 3540, Note_on_c, 0, 66, 107
2, 3576, Note_off_c, 0, 76, 64
2, 3588, Note_off_c, 0, 66, 64
2, 3600, Note_on_c, 0, 69, 107
2, 3600, Note_on_c, 0, 71, 107
2, 3648, Note_off_c, 0, 69, 64
2, 3660, Note_on_c, 0, 68, 107
2, 3696, Note_off_c, 0, 71, 64
2, 3708, Note_off_c, 0, 68, 64
2, 3720, Note_on_c, 0, 73, 107
2, 3720, Note_on_c, 0, 69, 107
2, 3816, Note_off_c, 0, 69, 64
2, 3816, Note_off_c, 0, 73, 64
2, 3840, Note_on_c, 0, 71, 107
2, 3840, Note_on_c, 0, 68, 107
2, 3936, Note_off_c, 0, 68, 64
2, 3936, Note_off_c, 0, 71, 64
2, 3960, Note_on_c, 0, 69, 107
2, 3960, Note_on_c, 0, 66, 107
2, 4056, Note_off_c, 0, 66, 64
2, 4056, Note_off_c, 0, 69, 64
2, 4080, Note_on_c, 0, 68, 107
2, 4080, Note_on_c, 0, 64, 107
2, 4128, Note_off_c, 0, 68, 64
2, 4140, Note_on_c, 0, 66, 107
2, 4188, Note_off_c, 0, 66, 64
2, 4200, Note_on_c, 0, 64, 107
2, 4224, Note_off_c, 0, 64, 64
2, 4260, Note_on_c, 0, 66, 107
2, 4296, Note_off_c, 0, 64, 64
2, 4308, Note_off_c, 0, 66, 64
2, 4320, Note_on_c, 0, 68, 107
2, 4320, Note_on_c, 0, 83, 107
2, 4368, Note_off_c, 0, 68, 64
2, 4380, Note_on_c, 0, 69, 107
2, 4416, Note_off_c, 0, 83, 64
2, 4428, Note_off_c, 0, 69, 64
2, 4440, Note_on_c, 0, 80, 107
2, 4440, Note_on_c, 0, 71, 107
2, 4536, Note_off_c, 0, 71, 64
2, 4536, Note_off_c, 0, 80, 64
2, 4560, Note_on_c, 0, 69, 107
2, 4560, Note_on_c, 0, 81, 107
2, 4608, Note_off_c, 0, 81, 64
2, 4620, Note_on_c, 0, 80, 107
2, 4656, Note_off_c, 0, 69, 64
2, 4668, Note_off_c, 0, 80, 64
2, 4680, Note_on_c, 0, 68, 107
2, 4680, Note_on_c, 0, 78, 107
2, 4728, Note_off_c, 0, 78, 64
2, 4740, Note_on_c, 0, 76, 107
2, 4776, Note_off_c, 0, 68, 64
2, 4788, Note_off_c, 0, 76, 64
2, 4800, Note_on_c, 0, 78, 107
2, 4800, Note_on_c, 0, 69, 107
2, 4848, Note_off_c, 0, 78, 64
2, 4860, Note_on_c, 0, 75, 107
2, 4896, Note_off_c, 0, 69, 64
2, 4908, Note_off_c, 0, 75, 64
2, 4920, Note_on_c, 0, 76, 107
2, 4920, Note_on_c, 0, 68, 107
2, 4968, Note_off_c, 0, 68, 64
2, 4980, Note_on_c, 0, 66, 107
2, 5016, Note_off_c, 0, 76, 64
2, 5028, Note_off_c, 0, 66, 64
2, 5040, Note_on_c, 0, 69, 107
2, 5040, Note_on_c, 0, 71, 107
2, 5088, Note_off_c, 0, 69, 64
2, 5100, Note_on_c, 0, 68, 107
2, 5136, Note_off_c, 0, 71, 64
2, 5148, Note_off_c, 0, 68, 64
2, 5160, Note_on_c, 0, 73, 107
2, 5160, Note_on_c, 0, 69, 107
2, 5256, Note_off_c, 0, 69, 64
2, 5256, Note_off_c, 0, 73, 64
2, 5280, Note_on_c, 0, 68, 107
2, 5280, Note_on_c, 0, 71, 107
2, 5376, Note_off_c, 0, 71, 64
2, 5376, Note_off_c, 0, 68, 64
2, 5400, Note_on_c, 0, 66, 107
2, 5400, Note_on_c, 0, 69, 107
2, 5496, Note_off_c, 0, 69, 64
2, 5496, Note_off_c, 0, 66, 64
2, 5520, Note_on_c, 0, 68, 107
2, 5520, Note_on_c, 0, 64, 107
2, 5712, Note_off_c, 0, 64, 64
2, 5712, Note_off_c, 0, 68, 64
2, 5760, Note_on_c, 0, 80, 107
2, 5760, Note_on_c, 0, 71, 107
2, 5856, Note_off_c, 0, 71, 64
2, 5856, Note_off_c, 0, 80, 64
2, 5880, Note_on_c, 0, 78, 107
2, 5880, Note_on_c, 0, 71, 107
2, 5976, Note_off_c, 0, 78, 64
2, 6000, Note_on_c, 0, 76, 107
2, 6048, Note_off_c, 0, 76, 64
2, 6060, Note_on_c, 0, 75, 107
2, 6108, Note_off_c, 0, 75, 64
2, 6120, Note_on_c, 0, 73, 107
2, 6168, Note_off_c, 0, 73, 64
2, 6180, Note_on_c, 0, 71, 107
2, 6228, Note_off_c, 0, 71, 64
2, 6240, Note_on_c, 0, 76, 107
2, 6288, Note_off_c, 0, 76, 64
2, 6300, Note_on_c, 0, 73, 107
2, 6336, Note_off_c, 0, 71, 64
2, 6348, Note_off_c, 0, 73, 64
2, 6360, Note_on_c, 0, 73, 107
2, 6360, Note_on_c, 0, 78, 107
2, 6456, Note_off_c, 0, 78, 64
2, 6480, Note_on_c, 0, 76, 107
2, 6552, Note_off_c, 0, 73, 64
2, 6576, Note_off_c, 0, 76, 64
2, 6600, Note_on_c, 0, 75, 107
2, 6600, Note_on_c, 0, 71, 107
2, 6696, Note_off_c, 0, 75, 64
2, 6720, Note_on_c, 0, 76, 107
2, 6768, Note_off_c, 0, 76, 64
2, 6780, Note_on_c, 0, 75, 107
2, 6828, Note_off_c, 0, 75, 64
2, 6840, Note_on_c, 0, 73, 107
2, 6888, Note_off_c, 0, 73, 64
2, 6888, Note_off_c, 0, 71, 64
2, 6900, Note_on_c, 0, 71, 107
2, 6948, Note_off_c, 0, 71, 64
2, 6960, Note_on_c, 0, 73, 107
2, 6960, Note_on_c, 0, 70, 107
2, 7056, Note_off_c, 0, 70, 64
2, 7056, Note_off_c, 0, 73, 64
2, 7080, Note_on_c, 0, 66, 107
2, 7128, Note_off_c, 0, 66, 64
2, 7140, Note_on_c, 0, 68, 107
2, 7188, Note_off_c, 0, 68, 64
2, 7200, Note_on_c, 0, 70, 107
2, 7248, Note_off_c, 0, 70, 64
2, 7260, Note_on_c, 0, 71, 107
2, 7308, Note_off_c, 0, 71, 64
2, 7320, Note_on_c, 0, 73, 107
2, 7320, Note_on_c, 0, 70, 107
2, 7368, Note_off_c, 0, 73, 64
2, 7380, Note_on_c, 0, 75, 107
2, 7416, Note_off_c, 0, 70, 64
2, 7428, Note_off_c, 0, 75, 64
2, 7440, Note_on_c, 0, 76, 107
2, 7440, Note_on_c, 0, 68, 107
2, 7488, Note_off_c, 0, 76, 64
2, 7500, Note_on_c, 0, 73, 107
2, 7536, Note_off_c, 0, 68, 64
2, 7548, Note_off_c, 0, 73, 64
2, 7560, Note_on_c, 0, 80, 107
2, 7560, Note_on_c, 0, 70, 107
2, 7656, Note_off_c, 0, 70, 64
2, 7656, Note_off_c, 0, 80, 64
2, 7680, Note_on_c, 0, 78, 107
2, 7680, Note_on_c, 0, 71, 107
2, 7776, Note_off_c, 0, 78, 64
2, 7800, Note_on_c, 0, 76, 107
2, 7848, Note_off_c, 0, 76, 64
2, 7860, Note_on_c, 0, 75, 107
2, 7908, Note_off_c, 0, 75, 64
2, 7920, Note_on_c, 0, 73, 107
2, 7968, Note_off_c, 0, 73, 64
2, 7980, Note_on_c, 0, 71, 107
2, 8028, Note_off_c, 0, 71, 64
2, 8040, Note_on_c, 0, 76, 107
2, 8088, Note_off_c, 0, 76, 64
2, 8100, Note_on_c, 0, 78, 107
2, 8136, Note_off_c, 0, 71, 64
2, 8148, Note_off_c, 0, 78, 64
2, 8160, Note_on_c, 0, 75, 107
2, 8160, Note_on_c, 0, 70, 107
2, 8184, Note_off_c, 0, 75, 64
2, 8190, Note_on_c, 0, 73, 107
2, 8214, Note_off_c, 0, 73, 64
2, 8220, Note_on_c, 0, 75, 107
2, 8244, Note_off_c, 0, 75, 64
2, 8250, Note_on_c, 0, 73, 107
2, 8274, Note_off_c, 0, 73, 64
2, 8280, Note_on_c, 0, 75, 107
2, 8304, Note_off_c, 0, 75, 64
2, 8310, Note_on_c, 0, 73, 107
2, 8334, Note_off_c, 0, 73, 64
2, 8340, Note_on_c, 0, 71, 107
2, 8352, Note_off_c, 0, 70, 64
2, 8388, Note_off_c, 0, 71, 64
2, 8400, Note_on_c, 0, 71, 107
2, 8400, Note_on_c, 0, 71, 107
2, 8592, Note_off_c, 0, 71, 64
2, 8625, Note_off_c, 0, 71, 64
2, 8640, Note_on_c, 0, 66, 107
2, 8640, Note_on_c, 0, 71, 107
2, 8736, Note_off_c, 0, 71, 64
2, 8753, Note_off_c, 0, 66, 64
2, 8760, Note_on_c, 0, 68, 107
2, 8760, Note_on_c, 0, 64, 107
2, 8856, Note_off_c, 0, 68, 64
2, 8880, Note_on_c, 0, 69, 107
2, 8928, Note_off_c, 0, 69, 64
2, 8940, Note_on_c, 0, 68, 107
2, 8988, Note_off_c, 0, 68, 64
2, 9000, Note_on_c, 0, 66, 107
2, 9048, Note_off_c, 0, 66, 64
2, 9060, Note_on_c, 0, 64, 107
2, 9108, Note_off_c, 0, 64, 64
2, 9120, Note_on_c, 0, 74, 107
2, 9168, Note_off_c, 0, 74, 64
2, 9180, Note_on_c, 0, 71, 107
2, 9228, Note_off_c, 0, 71, 64
2, 9240, Note_on_c, 0, 73, 107
2, 9336, Note_off_c, 0, 73, 64
2, 9360, Note_on_c, 0, 75, 107
2, 9456, Note_off_c, 0, 75, 64
2, 9480, Note_on_c, 0, 76, 107
2, 9528, Note_off_c, 0, 64, 64
2, 9540, Note_on_c, 0, 66, 107
2, 9576, Note_off_c, 0, 76, 64
2, 9588, Note_off_c, 0, 66, 64
2, 9600, Note_on_c, 0, 68, 107
2, 9600, Note_on_c, 0, 78, 107
2, 9648, Note_off_c, 0, 78, 64
2, 9660, Note_on_c, 0, 76, 107
2, 9696, Note_off_c, 0, 68, 64
2, 9708, Note_off_c, 0, 76, 64
2, 9720, Note_on_c, 0, 70, 107
2, 9720, Note_on_c, 0, 75, 107
2, 9768, Note_off_c, 0, 75, 64
2, 9780, Note_on_c, 0, 73, 107
2, 9816, Note_off_c, 0, 70, 64
2, 9828, Note_off_c, 0, 73, 64
2, 9840, Note_on_c, 0, 81, 107
2, 9840, Note_on_c, 0, 71, 107
2, 9888, Note_off_c, 0, 81, 64
2, 9900, Note_on_c, 0, 78, 107
2, 9948, Note_off_c, 0, 78, 64
2, 9960, Note_on_c, 0, 80, 107
2, 10032, Note_off_c, 0, 71, 64
2, 10056, Note_off_c, 0, 80, 64
2, 10080, Note_on_c, 0, 78, 107
2, 10080, Note_on_c, 0, 69, 107
2, 10248, Note_off_c, 0, 78, 64
2, 10248, Note_off_c, 0, 69, 64
2, 10260, Note_on_c, 0, 66, 107
2, 10260, Note_on_c, 0, 75, 107
2, 10308, Note_off_c, 0, 75, 64
2, 10308, Note_off_c, 0, 66, 64
2, 10320, Note_on_c, 0, 76, 107
2, 10320, Note_on_c, 0, 68, 107
2, 10368, Note_off_c, 0, 68, 64
2, 10380, Note_on_c, 0, 64, 107
2, 10416, Note_off_c, 0, 76, 64
2, 10428, Note_off_c, 0, 64, 64
2, 10440, Note_on_c, 0, 73, 107
2, 10440, Note_on_c, 0, 69, 107
2, 10488, Note_off_c, 0, 69, 64
2, 10500, Note_on_c, 0, 61, 107
2, 10548, Note_off_c, 0, 61, 64
2, 10560, Note_on_c, 0, 63, 107
2, 10608, Note_off_c, 0, 73, 64
2, 10620, Note_on_c, 0, 81, 107
2, 10656, Note_off_c, 0, 63, 64
2, 10668, Note_off_c, 0, 81, 64
2, 10680, Note_on_c, 0, 64, 107
2, 10680, Note_on_c, 0, 71, 107
2, 10728, Note_off_c, 0, 71, 64
2, 10740, Note_on_c, 0, 80, 107
2, 10776, Note_off_c, 0, 64, 64
2, 10788, Note_off_c, 0, 80, 64
2, 10800, Note_on_c, 0, 66, 107
2, 10800, Note_on_c, 0, 69, 107
2, 10848, Note_off_c, 0, 69, 64
2, 10860, Note_on_c, 0, 78, 107
2, 10896, Note_off_c, 0, 66, 64
2, 10908, Note_off_c, 0, 78, 64
2, 10920, Note_on_c, 0, 68, 107
2, 10920, Note_on_c, 0, 64, 107
2, 11016, Note_off_c, 0, 64, 64
2, 11016, Note_off_c, 0, 68, 64
2, 11040, Note_on_c, 0, 66, 107
2, 11040, Note_on_c, 0, 69, 107
2, 11136, Note_off_c, 0, 69, 64
2, 11136, Note_off_c, 0, 66, 64
2, 11160, Note_on_c, 0, 63, 107
2, 11160, Note_on_c, 0, 66, 107
2, 11256, Note_off_c, 0, 66, 64
2, 11256, Note_off_c, 0, 63, 64
2, 11280, Note_on_c, 0, 64, 107
2, 11280, Note_on_c, 0, 64, 107
2, 11472, Note_off_c, 0, 64, 64
2, 11472, Note_off_c, 0, 64, 64
2, 11520, Note_on_c, 0, 80, 107
2, 11520, Note_on_c, 0, 71, 107
2, 11616, Note_off_c, 0, 71, 64
2, 11616, Note_off_c, 0, 80, 64
2, 11640, Note_on_c, 0, 78, 107
2, 11640, Note_on_c, 0, 71, 107
2, 11736, Note_off_c, 0, 78, 64
2, 11760, Note_on_c, 0, 76, 107
2, 11808, Note_off_c, 0, 76, 64
2, 11820, Note_on_c, 0, 75, 107
2, 11868, Note_off_c, 0, 75, 64
2, 11880, Note_on_c, 0, 73, 107
2, 11928, Note_off_c, 0, 73, 64
2, 11940, Note_on_c, 0, 71, 107
2, 11988, Note_off_c, 0, 71, 64
2, 12000, Note_on_c, 0, 76, 107
2, 12048, Note_off_c, 0, 76, 64
2, 12060, Note_on_c, 0, 73, 107
2, 12096, Note_off_c, 0, 71, 64
2, 12108, Note_off_c, 0, 73, 64
2, 12120, Note_on_c, 0, 73, 107
2, 12120, Note_on_c, 0, 78, 107
2, 12216, Note_off_c, 0, 78, 64
2, 12240, Note_on_c, 0, 76, 107
2, 12312, Note_off_c, 0, 73, 64
2, 12336, Note_off_c, 0, 76, 64
2, 12360, Note_on_c, 0, 75, 107
2, 12360, Note_on_c, 0, 71, 107
2, 12456, Note_off_c, 0, 75, 64
2, 12480, Note_on_c, 0, 76, 107
2, 12528, Note_off_c, 0, 76, 64
2, 12540, Note_on_c, 0, 75, 107
2, 12588, Note_off_c, 0, 75, 64
2, 12600, Note_on_c, 0, 73, 107
2, 12648, Note_off_c, 0, 73, 64
2, 12648, Note_off_c, 0, 71, 64
2, 12660, Note_on_c, 0, 71, 107
2, 12708, Note_off_c, 0, 71, 64
2, 12720, Note_on_c, 0, 73, 107
2, 12720, Note_on_c, 0, 70, 107
2, 12816, Note_off_c, 0, 70, 64
2, 12816, Note_off_c, 0, 73, 64
2, 12840, Note_on_c, 0, 66, 107
2, 12888, Note_off_c, 0, 66, 64
2, 12900, Note_on_c, 0, 68, 107
2, 12948, Note_off_c, 0, 68, 64
2, 12960, Note_on_c, 0, 70, 107
2, 13008, Note_off_c, 0, 70, 64
2, 13020, Note_on_c, 0, 71, 107
2, 13068, Note_off_c, 0, 71, 64
2, 13080, Note_on_c, 0, 73, 107
2, 13080, Note_on_c, 0, 70, 107
2, 13128, Note_off_c, 0, 73, 64
2, 13140, Note_on_c, 0, 75, 107
2, 13176, Note_off_c, 0, 70, 64
2, 13188, Note_off_c, 0, 75, 64
2, 13200, Note_on_c, 0, 76, 107
2, 13200, Note_on_c, 0, 68, 107
2, 13248, Note_off_c, 0, 76, 64
2, 13260, Note_on_c, 0, 73, 107
2, 13296, Note_off_c, 0, 68, 64
2, 13308, Note_off_c, 0, 73, 64
2, 13320, Note_on_c, 0, 80, 107
2, 13320, Note_on_c, 0, 70, 107
2, 13416, Note_off_c, 0, 70, 64
2, 13416, Note_off_c, 0, 80, 64
2, 13440, Note_on_c, 0, 78, 107
2, 13440, Note_on_c, 0, 71, 107
2, 13536, Note_off_c, 0, 78, 64
2, 13560, Note_on_c, 0, 76, 107
2, 13608, Note_off_c, 0, 76, 64
2, 13620, Note_on_c, 0, 75, 107
2, 13668, Note_off_c, 0, 75, 64
2, 13680, Note_on_c, 0, 73, 107
2, 13728, Note_off_c, 0, 73, 64
2, 13740, Note_on_c, 0, 71, 107
2, 13788, Note_off_c, 0, 71, 64
2, 13800, Note_on_c, 0, 76, 107
2, 13848, Note_off_c, 0, 76, 64
2, 13860, Note_on_c, 0, 78, 107
2, 13896, Note_off_c, 0, 71, 64
2, 13908, Note_off_c, 0, 78, 64
2, 13920, Note_on_c, 0, 75, 107
2, 13920, Note_on_c, 0, 70, 107
2, 13944, Note_off_c, 0, 75, 64
2, 13950, Note_on_c, 0, 73, 107
2, 13974, Note_off_c, 0, 73, 64
2, 13980, Note_on_c, 0, 75, 107
2, 14004, Note_off_c, 0, 75, 64
2, 14010, Note_on_c, 0, 73, 107
2, 14034, Note_off_c, 0, 73, 64
2, 14040, Note_on_c, 0, 75, 107
2, 14064, Note_off_c, 0, 75, 64
2, 14070, Note_on_c, 0, 73, 107
2, 14094, Note_off_c, 0, 73, 64
2, 14100, Note_on_c, 0, 71, 107
2, 14112, Note_off_c, 0, 70, 64
2, 14148, Note_off_c, 0, 71, 64
2, 14160, Note_on_c, 0, 71, 107
2, 14160, Note_on_c, 0, 71, 107
2, 14352, Note_off_c, 0, 71, 64
2, 14385, Note_off_c, 0, 71, 64
2, 14400, Note_on_c, 0, 66, 107
2, 14400, Note_on_c, 0, 71, 107
2, 14496, Note_off_c, 0, 71, 64
2, 14513, Note_off_c, 0, 66, 64
2, 14520, Note_on_c, 0, 68, 107
2, 14520, Note_on_c, 0, 64, 107
2, 14616, Note_off_c, 0, 68, 64
2, 14640, Note_on_c, 0, 69, 107
2, 14688, Note_off_c, 0, 69, 64
2, 14700, Note_on_c, 0, 68, 107
2, 14748, Note_off_c, 0, 68, 64
2, 14760, Note_on_c, 0, 66, 107
2, 14808, Note_off_c, 0, 66, 64
2, 14820, Note_on_c, 0, 64, 107
2, 14868, Note_off_c, 0, 64, 64
2, 14880, Note_on_c, 0, 74, 107
2, 14928, Note_off_c, 0, 74, 64
2, 14940, Note_on_c, 0, 71, 107
2, 14988, Note_off_c, 0, 71, 64
2, 15000, Note_on_c, 0, 73, 107
2, 15096, Note_off_c, 0, 73, 64
2, 15120, Note_on_c, 0, 75, 107
2, 15216, Note_off_c, 0, 75, 64
2, 15240, Note_on_c, 0, 76, 107
2, 15288, Note_off_c, 0, 64, 64
2, 15300, Note_on_c, 0, 66, 107
2, 15336, Note_off_c, 0, 76, 64
2, 15348, Note_off_c, 0, 66, 64
2, 15360, Note_on_c, 0, 68, 107
2, 15360, Note_on_c, 0, 78, 107
2, 15408, Note_off_c, 0, 78, 64
2, 15420, Note_on_c, 0, 76, 107
2, 15456, Note_off_c, 0, 68, 64
2, 15468, Note_off_c, 0, 76, 64
2, 15480, Note_on_c, 0, 70, 107
2, 15480, Note_on_c, 0, 75, 107
2, 15528, Note_off_c, 0, 75, 64
2, 15540, Note_on_c, 0, 73, 107
2, 15576, Note_off_c, 0, 70, 64
2, 15588, Note_off_c, 0, 73, 64
2, 15600, Note_on_c, 0, 81, 107
2, 15600, Note_on_c, 0, 71, 107
2, 15648, Note_off_c, 0, 81, 64
2, 15660, Note_on_c, 0, 78, 107
2, 15708, Note_off_c, 0, 78, 64
2, 15720, Note_on_c, 0, 80, 107
2, 15792, Note_off_c, 0, 71, 64
2, 15816, Note_off_c, 0, 80, 64
2, 15840, Note_on_c, 0, 78, 107
2, 15840, Note_on_c, 0, 69, 107
2, 16008, Note_off_c, 0, 78, 64
2, 16008, Note_off_c, 0, 69, 64
2, 16020, Note_on_c, 0, 66, 107
2, 16020, Note_on_c, 0, 75, 107
2, 16068, Note_off_c, 0, 75, 64
2, 16068, Note_off_c, 0, 66, 64
2, 16080, Note_on_c, 0, 76, 107
2, 16080, Note_on_c, 0, 68, 107
2, 16128, Note_off_c, 0, 68, 64
2, 16140, Note_on_c, 0, 64, 107
2, 16176, Note_off_c, 0, 76, 64
2, 16188, Note_off_c, 0, 64, 64
2, 16200, Note_on_c, 0, 73, 107
2, 16200, Note_on_c, 0, 69, 107
2, 16248, Note_off_c, 0, 69, 64
2, 16260, Note_on_c, 0, 61, 107
2, 16308, Note_off_c, 0, 61, 64
2, 16320, Note_on_c, 0, 63, 107
2, 16368, Note_off_c, 0, 73, 64
2, 16380, Note_on_c, 0, 81, 107
2, 16416, Note_off_c, 0, 63, 64
2, 16428, Note_off_c, 0, 81, 64
2, 16440, Note_on_c, 0, 64, 107
2, 16440, Note_on_c, 0, 71, 107
2, 16488, Note_off_c, 0, 71, 64
2, 16500, Note_on_c, 0, 80, 107
2, 16536, Note_off_c, 0, 64, 64
2, 16548, Note_off_c, 0, 80, 64
2, 16560, Note_on_c, 0, 66, 107
2, 16560, Note_on_c, 0, 69, 107
2, 16608, Note_off_c, 0, 69, 64
2, 16620, Note_on_c, 0, 78, 107
2, 16656, Note_off_c, 0, 66, 64
2, 16668, Note_off_c, 0, 78, 64
2, 16680, Note_on_c, 0, 68, 107
2, 16680, Note_on_c, 0, 64, 107
2, 16776, Note_off_c, 0, 64, 64
2, 16776, Note_off_c, 0, 68, 64
2, 16800, Note_on_c, 0, 66, 107
2, 16800, Note_on_c, 0, 69, 107
2, 16896, Note_off_c, 0, 69, 64
2, 16896, Note_off_c, 0, 66, 64
2, 16920, Note_on_c, 0, 63, 107
2, 16920, Note_on_c, 0, 66, 107
2, 17016, Note_off_c, 0, 66, 64
2, 17016, Note_off_c, 0, 63, 64
2, 17040, Note_on_c, 0, 64, 107
2, 17040, Note_on_c, 0, 64, 107
2, 17232, Note_off_c, 0, 64, 64
2, 17232, Note_off_c, 0, 64, 64
2, 17232, End_track
3, 0, Start_track
3, 0, Title_t, "J.S. Bach, Edition Kalmus"
3, 0, Program_c, 1, 0
3, 0, Note_on_c, 1, 64, 107
3, 96, Note_off_c, 1, 64, 64
3, 120, Note_on_c, 1, 64, 107
3, 1032, Note_off_c, 1, 64, 64
3, 1080, Note_on_c, 1, 64, 107
3, 1104, Note_off_c, 1, 64, 64
3, 1110, Note_on_c, 1, 63, 107
3, 1134, Note_off_c, 1, 63, 64
3, 1140, Note_on_c, 1, 64, 107
3, 1164, Note_off_c, 1, 64, 64
3, 1170, Note_on_c, 1, 63, 107
3, 1194, Note_off_c, 1, 63, 64
3, 1200, Note_on_c, 1, 64, 107
3, 2208, Note_off_c, 1, 64, 64
3, 2280, Note_on_c, 1, 57, 107
3, 2376, Note_off_c, 1, 57, 64
3, 2400, Note_on_c, 1, 59, 107
3, 2496, Note_off_c, 1, 59, 64
3, 2520, Note_on_c, 1, 47, 107
3, 2616, Note_off_c, 1, 47, 64
3, 2640, Note_on_c, 1, 52, 107
3, 2736, Note_off_c, 1, 52, 64
3, 2760, Note_on_c, 1, 59, 107
3, 2856, Note_off_c, 1, 59, 64
3, 2880, Note_on_c, 1, 64, 107
3, 2976, Note_off_c, 1, 64, 64
3, 3000, Note_on_c, 1, 64, 107
3, 3912, Note_off_c, 1, 64, 64
3, 3960, Note_on_c, 1, 64, 107
3, 3984, Note_off_c, 1, 64, 64
3, 3990, Note_on_c, 1, 63, 107
3, 4014, Note_off_c, 1, 63, 64
3, 4020, Note_on_c, 1, 64, 107
3, 4044, Note_off_c, 1, 64, 64
3, 4050, Note_on_c, 1, 63, 107
3, 4074, Note_off_c, 1, 63, 64
3, 4080, Note_on_c, 1, 64, 107
3, 5088, Note_off_c, 1, 64, 64
3, 5160, Note_on_c, 1, 57, 107
3, 5256, Note_off_c, 1, 57, 64
3, 5280, Note_on_c, 1, 59, 107
3, 5376, Note_off_c, 1, 59, 64
3, 5400, Note_on_c, 1, 47, 107
3, 5496, Note_off_c, 1, 47, 64
3, 5520, Note_on_c, 1, 52, 107
3, 5616, Note_off_c, 1, 52, 64
3, 5640, Note_on_c, 1, 59, 107
3, 5736, Note_off_c, 1, 59, 64
3, 5760, Note_on_c, 1, 64, 107
3, 5856, Note_off_c, 1, 64, 64
3, 5880, Note_on_c, 1, 63, 107
3, 5976, Note_off_c, 1, 63, 64
3, 6000, Note_on_c, 1, 64, 107
3, 6096, Note_off_c, 1, 64, 64
3, 6120, Note_on_c, 1, 66, 107
3, 6216, Note_off_c, 1, 66, 64
3, 6240, Note_on_c, 1, 68, 107
3, 6336, Note_off_c, 1, 68, 64
3, 6360, Note_on_c, 1, 70, 107
3, 6456, Note_off_c, 1, 70, 64
3, 6480, Note_on_c, 1, 66, 107
3, 6576, Note_off_c, 1, 66, 64
3, 6600, Note_on_c, 1, 71, 107
3, 6696, Note_off_c, 1, 71, 64
3, 6720, Note_on_c, 1, 70, 107
3, 6816, Note_off_c, 1, 70, 64
3, 6840, Note_on_c, 1, 68, 107
3, 6936, Note_off_c, 1, 68, 64
3, 6960, Note_on_c, 1, 66, 107
3, 6960, Note_on_c, 1, 66, 107
3, 7152, Note_off_c, 1, 66, 64
3, 7200, Note_on_c, 1, 66, 107
3, 7248, Note_off_c, 1, 66, 64
3, 7248, Note_off_c, 1, 66, 64
3, 7260, Note_on_c, 1, 68, 107
3, 7308, Note_off_c, 1, 68, 64
3, 7320, Note_on_c, 1, 66, 107
3, 7512, Note_off_c, 1, 66, 64
3, 7560, Note_on_c, 1, 64, 107
3, 7656, Note_off_c, 1, 64, 64
3, 7680, Note_on_c, 1, 63, 107
3, 7776, Note_off_c, 1, 63, 64
3, 7800, Note_on_c, 1, 68, 107
3, 7848, Note_off_c, 1, 68, 64
3, 7860, Note_on_c, 1, 66, 107
3, 7908, Note_off_c, 1, 66, 64
3, 7920, Note_on_c, 1, 64, 107
3, 7968, Note_off_c, 1, 64, 64
3, 7980, Note_on_c, 1, 63, 107
3, 8028, Note_off_c, 1, 63, 64
3, 8040, Note_on_c, 1, 61, 107
3, 8088, Note_off_c, 1, 61, 64
3, 8100, Note_on_c, 1, 59, 107
3, 8148, Note_off_c, 1, 59, 64
3, 8160, Note_on_c, 1, 66, 107
3, 8256, Note_off_c, 1, 66, 64
3, 8280, Note_on_c, 1, 54, 107
3, 8376, Note_off_c, 1, 54, 64
3, 8400, Note_on_c, 1, 59, 107
3, 8496, Note_off_c, 1, 59, 64
3, 8520, Note_on_c, 1, 61, 107
3, 8616, Note_off_c, 1, 61, 64
3, 8640, Note_on_c, 1, 63, 107
3, 8736, Note_off_c, 1, 63, 64
3, 8760, Note_on_c, 1, 64, 107
3, 8856, Note_off_c, 1, 64, 64
3, 8880, Note_on_c, 1, 52, 107
3, 8976, Note_off_c, 1, 52, 64
3, 9000, Note_on_c, 1, 54, 107
3, 9096, Note_off_c, 1, 54, 64
3, 9120, Note_on_c, 1, 56, 107
3, 9216, Note_off_c, 1, 56, 64
3, 9240, Note_on_c, 1, 57, 107
3, 9336, Note_off_c, 1, 57, 64
3, 9360, Note_on_c, 1, 59, 107
3, 9456, Note_off_c, 1, 59, 64
3, 9480, Note_on_c, 1, 61, 107
3, 9768, Note_off_c, 1, 61, 64
3, 9840, Note_on_c, 1, 63, 107
3, 9936, Note_off_c, 1, 63, 64
3, 9960, Note_on_c, 1, 64, 107
3, 10056, Note_off_c, 1, 64, 64
3, 10080, Note_on_c, 1, 57, 107
3, 10176, Note_off_c, 1, 57, 64
3, 10200, Note_on_c, 1, 59, 107
3, 10656, Note_off_c, 1, 59, 64
3, 10680, Note_on_c, 1, 61, 107
3, 10776, Note_off_c, 1, 61, 64
3, 10800, Note_on_c, 1, 63, 107
3, 10896, Note_off_c, 1, 63, 64
3, 10920, Note_on_c, 1, 64, 107
3, 11016, Note_off_c, 1, 64, 64
3, 11040, Note_on_c, 1, 57, 107
3, 11136, Note_off_c, 1, 57, 64
3, 11160, Note_on_c, 1, 59, 107
3, 11256, Note_off_c, 1, 59, 64
3, 11280, Note_on_c, 1, 52, 107
3, 11472, Note_off_c, 1, 52, 64
3, 11520, Note_on_c, 1, 64, 107
3, 11616, Note_off_c, 1, 64, 64
3, 11640, Note_on_c, 1, 63, 107
3, 11736, Note_off_c, 1, 63, 64
3, 11760, Note_on_c, 1, 64, 107
3, 11856, Note_off_c, 1, 64, 64
3, 11880, Note_on_c, 1, 66, 107
3, 11976, Note_off_c, 1, 66, 64
3, 12000, Note_on_c, 1, 68, 107
3, 12096, Note_off_c, 1, 68, 64
3, 12120, Note_on_c, 1, 70, 107
3, 12216, Note_off_c, 1, 70, 64
3, 12240, Note_on_c, 1, 66, 107
3, 12336, Note_off_c, 1, 66, 64
3, 12360, Note_on_c, 1, 71, 107
3, 12456, Note_off_c, 1, 71, 64
3, 12480, Note_on_c, 1, 70, 107
3, 12576, Note_off_c, 1, 70, 64
3, 12600, Note_on_c, 1, 68, 107
3, 12696, Note_off_c, 1, 68, 64
3, 12720, Note_on_c, 1, 66, 107
3, 12720, Note_on_c, 1, 66, 107
3, 12912, Note_off_c, 1, 66, 64
3, 12960, Note_on_c, 1, 66, 107
3, 13008, Note_off_c, 1, 66, 64
3, 13008, Note_off_c, 1, 66, 64
3, 13020, Note_on_c, 1, 68, 107
3, 13068, Note_off_c, 1, 68, 64
3, 13080, Note_on_c, 1, 66, 107
3, 13272, Note_off_c, 1, 66, 64
3, 13320, Note_on_c, 1, 64, 107
3, 13416, Note_off_c, 1, 64, 64
3, 13440, Note_on_c, 1, 63, 107
3, 13536, Note_off_c, 1, 63, 64
3, 13560, Note_on_c, 1, 68, 107
3, 13608, Note_off_c, 1, 68, 64
3, 13620, Note_on_c, 1, 66, 107
3, 13668, Note_off_c, 1, 66, 64
3, 13680, Note_on_c, 1, 64, 107
3, 13728, Note_off_c, 1, 64, 64
3, 13740, Note_on_c, 1, 63, 107
3, 13788, Note_off_c, 1, 63, 64
3, 13800, Note_on_c, 1, 61, 107
3, 13848, Note_off_c, 1, 61, 64
3, 13860, Note_on_c, 1, 59, 107
3, 13908, Note_off_c, 1, 59, 64
3, 13920, Note_on_c, 1, 66, 107
3, 14016, Note_off_c, 1, 66, 64
3, 14040, Note_on_c, 1, 54, 107
3, 14136, Note_off_c, 1, 54, 64
3, 14160, Note_on_c, 1, 59, 107
3, 14256, Note_off_c, 1, 59, 64
3, 14280, Note_on_c, 1, 61, 107
3, 14376, Note_off_c, 1, 61, 64
3, 14400, Note_on_c, 1, 63, 107
3, 14496, Note_off_c, 1, 63, 64
3, 14520, Note_on_c, 1, 64, 107
3, 14616, Note_off_c, 1, 64, 64
3, 14640, Note_on_c, 1, 52, 107
3, 14736, Note_off_c, 1, 52, 64
3, 14760, Note_on_c, 1, 54, 107
3, 14856, Note_off_c, 1, 54, 64
3, 14880, Note_on_c, 1, 56, 107
3, 14976, Note_off_c, 1, 56, 64
3, 15000, Note_on_c, 1, 57, 107
3, 15096, Note_off_c, 1, 57, 64
3, 15120, Note_on_c, 1, 59, 107
3, 15216, Note_off_c, 1, 59, 64
3, 15240, Note_on_c, 1, 61, 107
3, 15528, Note_off_c, 1, 61, 64
3, 15600, Note_on_c, 1, 63, 107
3, 15696, Note_off_c, 1, 63, 64
3, 15720, Note_on_c, 1, 64, 107
3, 15816, Note_off_c, 1, 64, 64
3, 15840, Note_on_c, 1, 57, 107
3, 15936, Note_off_c, 1, 57, 64
3, 15960, Note_on_c, 1, 59, 107
3, 16416, Note_off_c, 1, 59, 64
3, 16440, Note_on_c, 1, 61, 107
3, 16536, Note_off_c, 1, 61, 64
3, 16560, Note_on_c, 1, 63, 107
3, 16656, Note_off_c, 1, 63, 64
3, 16680, Note_on_c, 1, 64, 107
3, 16776, Note_off_c, 1, 64, 64
3, 16800, Note_on_c, 1, 57, 107
3, 16896, Note_off_c, 1, 57, 64
3, 16920, Note_on_c, 1, 59, 107
3, 17016, Note_off_c, 1, 59, 64
3, 17040, Note_on_c, 1, 52, 107
3, 17232, Note_off_c, 1, 52, 64
3, 17232, End_track
4, 0, Start_track
4, 0, Title_t, "Arr. Gary Bricault, (c) 1997"
4, 0, End_track
0, 0, End_of_file
