0, 0, Header, 1, 3, 384
1, 0, Start_track
1, 0, Time_signature, 4, 2, 24, 8
1, 0, Tempo, 500000
1, 276480, End_track
2, 0, Start_track
2, 0, Text_t, "harpsichord: John Sankey"
2, 0, Program_c, 0, 6
2, 0, Pitch_bend_c, 0, 8192
2, 0, Program_c, 1, 6
2, 0, Pitch_bend_c, 1, 7792
2, 0, Program_c, 2, 6
2, 0, Pitch_bend_c, 2, 7876
2, 0, Program_c, 3, 6
2, 0, Pitch_bend_c, 3, 7952
2, 0, Program_c, 4, 6
2, 0, Pitch_bend_c, 4, 7792
2, 0, Program_c, 5, 6
2, 0, Pitch_bend_c, 5, 8112
2, 0, Program_c, 6, 6
2, 0, Pitch_bend_c, 6, 7712
2, 0, Program_c, 7, 6
2, 0, Pitch_bend_c, 7, 8037
2, 0, Program_c, 8, 6
2, 0, Pitch_bend_c, 8, 7872
2, 0, Program_c, 10, 6
2, 0, Pitch_bend_c, 10, 7712
2, 0, Program_c, 11, 6
2, 0, Pitch_bend_c, 11, 8032
2, 0, Program_c, 12, 6
2, 0, Pitch_bend_c, 12, 7872
2, 0, Title_t, "Track 1"
2, 32, Note_on_c, 2, 50, 127
2, 32, Note_on_c, 2, 38, 127
2, 213, Note_on_c, 2, 62, 127
2, 302, Note_off_c, 2, 62, 127
2, 304, Note_on_c, 4, 64, 127
2, 393, Note_off_c, 4, 64, 127
2, 395, Note_on_c, 6, 66, 127
2, 484, Note_off_c, 6, 66, 127
2, 486, Note_on_c, 7, 67, 127
2, 575, Note_off_c, 7, 67, 127
2, 577, Note_on_c, 10, 69, 127
2, 759, Note_on_c, 6, 66, 127
2, 939, Note_off_c, 6, 66, 127
2, 939, Note_off_c, 10, 69, 127
2, 940, Note_on_c, 10, 69, 127
2, 1122, Note_on_c, 2, 74, 127
2, 1302, Note_off_c, 10, 69, 127
2, 1304, Note_on_c, 10, 69, 127
2, 1484, Note_off_c, 10, 69, 127
2, 1484, Note_off_c, 2, 74, 127
2, 1486, Note_on_c, 2, 74, 127
2, 1667, Note_on_c, 6, 78, 127
2, 1848, Note_off_c, 2, 74, 127
2, 1849, Note_on_c, 2, 74, 127
2, 2029, Note_off_c, 2, 74, 127
2, 2029, Note_off_c, 6, 78, 127
2, 2031, Note_on_c, 6, 78, 127
2, 2204, Note_off_c, 2, 38, 127
2, 2204, Note_off_c, 2, 50, 127
2, 2211, Note_off_c, 6, 78, 127
2, 2213, Note_on_c, 10, 81, 127
2, 2756, Note_off_c, 10, 81, 127
2, 2758, Note_on_c, 6, 78, 127
2, 2758, Note_on_c, 10, 81, 127
2, 2758, Note_on_c, 2, 62, 127
2, 3301, Note_off_c, 2, 62, 127
2, 3301, Note_off_c, 10, 81, 127
2, 3301, Note_off_c, 6, 78, 127
2, 3303, Note_on_c, 7, 79, 127
2, 3303, Note_on_c, 12, 83, 127
2, 3303, Note_on_c, 10, 69, 127
2, 3388, Note_on_c, 6, 78, 127
2, 3388, Note_on_c, 10, 81, 127
2, 3392, Note_off_c, 12, 83, 127
2, 3392, Note_off_c, 7, 79, 127
2, 3474, Note_on_c, 7, 79, 127
2, 3474, Note_on_c, 12, 83, 127
2, 3477, Note_off_c, 10, 81, 127
2, 3477, Note_off_c, 6, 78, 127
2, 3559, Note_on_c, 6, 78, 127
2, 3559, Note_on_c, 10, 81, 127
2, 3563, Note_off_c, 12, 83, 127
2, 3563, Note_off_c, 7, 79, 127
2, 3665, Note_off_c, 10, 81, 127
2, 3665, Note_off_c, 6, 78, 127
2, 3667, Note_on_c, 7, 79, 127
2, 3667, Note_on_c, 4, 76, 127
2, 3847, Note_off_c, 4, 76, 127
2, 3847, Note_off_c, 7, 79, 127
2, 3848, Note_on_c, 10, 81, 127
2, 3848, Note_on_c, 6, 78, 127
2, 3848, Note_on_c, 10, 57, 127
2, 3934, Note_on_c, 4, 76, 127
2, 3934, Note_on_c, 7, 79, 127
2, 3937, Note_off_c, 6, 78, 127
2, 3937, Note_off_c, 10, 81, 127
2, 4019, Note_on_c, 6, 78, 127
2, 4019, Note_on_c, 10, 81, 127
2, 4023, Note_off_c, 7, 79, 127
2, 4023, Note_off_c, 4, 76, 127
2, 4104, Note_on_c, 4, 76, 127
2, 4104, Note_on_c, 7, 79, 127
2, 4108, Note_off_c, 10, 81, 127
2, 4108, Note_off_c, 6, 78, 127
2, 4210, Note_off_c, 7, 79, 127
2, 4210, Note_off_c, 4, 76, 127
2, 4212, Note_on_c, 6, 78, 127
2, 4212, Note_on_c, 2, 74, 127
2, 4391, Note_off_c, 10, 57, 127
2, 4392, Note_off_c, 2, 74, 127
2, 4392, Note_off_c, 6, 78, 127
2, 4392, Note_off_c, 10, 69, 127
2, 4394, Note_on_c, 2, 74, 127
2, 4394, Note_on_c, 6, 78, 127
2, 4394, Note_on_c, 2, 62, 127
2, 4576, Note_on_c, 2, 50, 127
2, 4656, Note_off_c, 2, 62, 127
2, 4665, Note_off_c, 2, 50, 127
2, 4666, Note_on_c, 4, 52, 127
2, 4755, Note_off_c, 4, 52, 127
2, 4757, Note_on_c, 6, 54, 127
2, 4846, Note_off_c, 6, 54, 127
2, 4848, Note_on_c, 7, 55, 127
2, 4937, Note_off_c, 7, 55, 127
2, 4939, Note_on_c, 10, 57, 127
2, 5121, Note_on_c, 6, 54, 127
2, 5166, Note_off_c, 10, 57, 127
2, 5301, Note_off_c, 6, 54, 127
2, 5303, Note_on_c, 10, 57, 127
2, 5483, Note_off_c, 6, 78, 127
2, 5483, Note_off_c, 2, 74, 127
2, 5484, Note_on_c, 2, 62, 127
2, 5558, Note_off_c, 10, 57, 127
2, 5666, Note_on_c, 10, 57, 127
2, 5739, Note_off_c, 2, 62, 127
2, 5846, Note_off_c, 10, 57, 127
2, 5848, Note_on_c, 2, 62, 127
2, 6030, Note_on_c, 6, 66, 127
2, 6103, Note_off_c, 2, 62, 127
2, 6211, Note_on_c, 2, 62, 127
2, 6285, Note_off_c, 6, 66, 127
2, 6391, Note_off_c, 2, 62, 127
2, 6393, Note_on_c, 6, 66, 127
2, 6573, Note_off_c, 6, 66, 127
2, 6575, Note_on_c, 10, 69, 127
2, 7118, Note_off_c, 10, 69, 127
2, 7120, Note_on_c, 6, 78, 127
2, 7120, Note_on_c, 10, 69, 127
2, 7120, Note_on_c, 2, 50, 127
2, 7663, Note_off_c, 2, 50, 127
2, 7663, Note_off_c, 10, 69, 127
2, 7663, Note_off_c, 6, 78, 127
2, 7665, Note_on_c, 10, 69, 127
2, 7665, Note_on_c, 7, 79, 127
2, 7665, Note_on_c, 10, 57, 127
2, 7751, Note_on_c, 6, 78, 127
2, 7754, Note_off_c, 7, 79, 127
2, 7836, Note_on_c, 7, 79, 127
2, 7840, Note_off_c, 6, 78, 127
2, 7921, Note_on_c, 6, 78, 127
2, 7925, Note_off_c, 7, 79, 127
2, 8027, Note_off_c, 6, 78, 127
2, 8027, Note_off_c, 10, 69, 127
2, 8029, Note_on_c, 4, 76, 127
2, 8029, Note_on_c, 7, 67, 127
2, 8209, Note_off_c, 7, 67, 127
2, 8209, Note_off_c, 4, 76, 127
2, 8211, Note_on_c, 7, 67, 127
2, 8211, Note_on_c, 6, 78, 127
2, 8211, Note_on_c, 10, 45, 127
2, 8296, Note_on_c, 4, 76, 127
2, 8300, Note_off_c, 6, 78, 127
2, 8381, Note_on_c, 6, 78, 127
2, 8385, Note_off_c, 4, 76, 127
2, 8466, Note_on_c, 4, 76, 127
2, 8470, Note_off_c, 6, 78, 127
2, 8572, Note_off_c, 4, 76, 127
2, 8573, Note_off_c, 7, 67, 127
2, 8574, Note_on_c, 2, 74, 127
2, 8574, Note_on_c, 6, 66, 127
2, 8754, Note_off_c, 6, 66, 127
2, 8754, Note_off_c, 2, 74, 127
2, 8754, Note_off_c, 10, 45, 127
2, 8754, Note_off_c, 10, 57, 127
2, 8756, Note_on_c, 6, 66, 127
2, 8756, Note_on_c, 2, 74, 127
2, 8756, Note_on_c, 2, 50, 127
2, 8936, Note_off_c, 2, 74, 127
2, 8936, Note_off_c, 6, 66, 127
2, 8938, Note_on_c, 6, 66, 127
2, 9027, Note_off_c, 6, 66, 127
2, 9029, Note_on_c, 4, 64, 127
2, 9118, Note_off_c, 4, 64, 127
2, 9120, Note_on_c, 2, 62, 127
2, 9120, Note_on_c, 2, 38, 127
2, 9209, Note_off_c, 2, 62, 127
2, 9210, Note_on_c, 1, 61, 127
2, 9295, Note_off_c, 2, 50, 127
2, 9299, Note_off_c, 1, 61, 127
2, 9300, Note_off_c, 2, 38, 127
2, 9301, Note_on_c, 12, 59, 127
2, 9301, Note_on_c, 2, 50, 127
2, 9481, Note_off_c, 12, 59, 127
2, 9483, Note_on_c, 2, 62, 127
2, 9663, Note_off_c, 2, 62, 127
2, 9665, Note_on_c, 12, 59, 127
2, 9753, Note_off_c, 2, 50, 127
2, 9756, Note_on_c, 2, 50, 127
2, 9845, Note_off_c, 2, 50, 127
2, 9845, Note_off_c, 12, 59, 127
2, 9847, Note_on_c, 8, 56, 127
2, 9847, Note_on_c, 2, 50, 127
2, 10028, Note_on_c, 4, 64, 127
2, 10117, Note_off_c, 4, 64, 127
2, 10119, Note_on_c, 6, 66, 127
2, 10208, Note_off_c, 6, 66, 127
2, 10210, Note_on_c, 8, 68, 127
2, 10299, Note_off_c, 8, 68, 127
2, 10301, Note_on_c, 10, 69, 127
2, 10386, Note_off_c, 8, 56, 127
2, 10390, Note_off_c, 10, 69, 127
2, 10392, Note_on_c, 12, 71, 127
2, 10572, Note_off_c, 2, 50, 127
2, 10574, Note_on_c, 8, 68, 127
2, 10574, Note_on_c, 4, 52, 127
2, 10663, Note_off_c, 4, 52, 127
2, 10664, Note_on_c, 2, 50, 127
2, 10753, Note_off_c, 2, 50, 127
2, 10754, Note_off_c, 8, 68, 127
2, 10754, Note_off_c, 12, 71, 127
2, 10755, Note_on_c, 12, 71, 127
2, 10755, Note_on_c, 1, 49, 127
2, 10844, Note_off_c, 1, 49, 127
2, 10846, Note_on_c, 12, 47, 127
2, 10935, Note_off_c, 12, 47, 127
2, 10935, Note_off_c, 12, 71, 127
2, 10937, Note_on_c, 4, 76, 127
2, 10937, Note_on_c, 1, 49, 127
2, 11119, Note_on_c, 4, 64, 127
2, 11203, Note_off_c, 4, 76, 127
2, 11208, Note_off_c, 4, 64, 127
2, 11210, Note_on_c, 2, 62, 127
2, 11299, Note_off_c, 2, 62, 127
2, 11301, Note_on_c, 1, 61, 127
2, 11301, Note_on_c, 1, 37, 127
2, 11390, Note_off_c, 1, 61, 127
2, 11392, Note_on_c, 12, 59, 127
2, 11476, Note_off_c, 1, 49, 127
2, 11481, Note_off_c, 12, 59, 127
2, 11481, Note_off_c, 1, 37, 127
2, 11482, Note_on_c, 10, 57, 127
2, 11482, Note_on_c, 1, 49, 127
2, 11662, Note_off_c, 10, 57, 127
2, 11664, Note_on_c, 1, 61, 127
2, 11844, Note_off_c, 1, 61, 127
2, 11846, Note_on_c, 10, 57, 127
2, 11934, Note_off_c, 1, 49, 127
2, 11937, Note_on_c, 1, 49, 127
2, 12026, Note_off_c, 1, 49, 127
2, 12026, Note_off_c, 10, 57, 127
2, 12028, Note_on_c, 6, 54, 127
2, 12028, Note_on_c, 1, 49, 127
2, 12209, Note_on_c, 2, 62, 127
2, 12298, Note_off_c, 2, 62, 127
2, 12300, Note_on_c, 4, 64, 127
2, 12389, Note_off_c, 4, 64, 127
2, 12391, Note_on_c, 6, 66, 127
2, 12480, Note_off_c, 6, 66, 127
2, 12482, Note_on_c, 8, 68, 127
2, 12567, Note_off_c, 6, 54, 127
2, 12571, Note_off_c, 8, 68, 127
2, 12573, Note_on_c, 10, 69, 127
2, 12753, Note_off_c, 1, 49, 127
2, 12755, Note_on_c, 6, 66, 127
2, 12755, Note_on_c, 2, 50, 127
2, 12844, Note_off_c, 2, 50, 127
2, 12846, Note_on_c, 1, 49, 127
2, 12935, Note_off_c, 1, 49, 127
2, 12935, Note_off_c, 6, 66, 127
2, 12935, Note_off_c, 10, 69, 127
2, 12936, Note_on_c, 10, 69, 127
2, 12936, Note_on_c, 12, 47, 127
2, 13025, Note_off_c, 12, 47, 127
2, 13027, Note_on_c, 10, 45, 127
2, 13116, Note_off_c, 10, 45, 127
2, 13116, Note_off_c, 10, 69, 127
2, 13118, Note_on_c, 2, 74, 127
2, 13118, Note_on_c, 12, 47, 127
2, 13298, Note_off_c, 12, 47, 127
2, 13300, Note_on_c, 6, 54, 127
2, 13389, Note_off_c, 6, 54, 127
2, 13391, Note_on_c, 4, 52, 127
2, 13480, Note_off_c, 4, 52, 127
2, 13482, Note_on_c, 6, 66, 127
2, 13482, Note_on_c, 2, 50, 127
2, 13571, Note_off_c, 2, 50, 127
2, 13573, Note_on_c, 1, 49, 127
2, 13657, Note_off_c, 2, 74, 127
2, 13662, Note_off_c, 1, 49, 127
2, 13662, Note_off_c, 6, 66, 127
2, 13664, Note_on_c, 2, 74, 127
2, 13664, Note_on_c, 6, 66, 127
2, 13664, Note_on_c, 12, 47, 127
2, 13844, Note_off_c, 12, 47, 127
2, 13845, Note_on_c, 2, 50, 127
2, 14025, Note_off_c, 2, 50, 127
2, 14027, Note_on_c, 12, 47, 127
2, 14116, Note_off_c, 6, 66, 127
2, 14116, Note_off_c, 2, 74, 127
2, 14118, Note_on_c, 2, 74, 127
2, 14118, Note_on_c, 6, 66, 127
2, 14207, Note_off_c, 6, 66, 127
2, 14207, Note_off_c, 2, 74, 127
2, 14207, Note_off_c, 12, 47, 127
2, 14209, Note_on_c, 2, 74, 127
2, 14209, Note_on_c, 4, 64, 127
2, 14209, Note_on_c, 8, 44, 127
2, 14389, Note_off_c, 8, 44, 127
2, 14391, Note_on_c, 12, 47, 127
2, 14571, Note_off_c, 12, 47, 127
2, 14572, Note_on_c, 8, 44, 127
2, 14752, Note_off_c, 8, 44, 127
2, 14754, Note_on_c, 4, 40, 127
2, 14934, Note_off_c, 4, 40, 127
2, 14934, Note_off_c, 4, 64, 127
2, 14934, Note_off_c, 2, 74, 127
2, 14936, Note_on_c, 4, 76, 127
2, 14936, Note_on_c, 8, 44, 127
2, 15025, Note_off_c, 4, 76, 127
2, 15027, Note_on_c, 2, 74, 127
2, 15116, Note_off_c, 2, 74, 127
2, 15116, Note_off_c, 8, 44, 127
2, 15118, Note_on_c, 1, 73, 127
2, 15118, Note_on_c, 4, 40, 127
2, 15207, Note_off_c, 1, 73, 127
2, 15208, Note_on_c, 12, 71, 127
2, 15297, Note_off_c, 12, 71, 127
2, 15298, Note_off_c, 4, 40, 127
2, 15299, Note_on_c, 1, 73, 127
2, 15299, Note_on_c, 10, 45, 127
2, 15356, Note_on_c, 12, 71, 127
2, 15372, Note_off_c, 1, 73, 127
2, 15413, Note_on_c, 1, 73, 127
2, 15429, Note_off_c, 12, 71, 127
2, 15479, Note_off_c, 10, 45, 127
2, 15481, Note_on_c, 10, 69, 127
2, 15481, Note_on_c, 1, 49, 127
2, 15486, Note_off_c, 1, 73, 127
2, 15570, Note_off_c, 10, 69, 127
2, 15572, Note_on_c, 12, 71, 127
2, 15661, Note_off_c, 12, 71, 127
2, 15661, Note_off_c, 1, 49, 127
2, 15663, Note_on_c, 1, 73, 127
2, 15663, Note_on_c, 10, 45, 127
2, 15752, Note_off_c, 1, 73, 127
2, 15754, Note_on_c, 2, 74, 127
2, 15843, Note_off_c, 2, 74, 127
2, 15843, Note_off_c, 10, 45, 127
2, 15845, Note_on_c, 4, 76, 127
2, 15845, Note_on_c, 6, 42, 127
2, 16025, Note_off_c, 6, 42, 127
2, 16025, Note_off_c, 4, 76, 127
2, 16026, Note_on_c, 2, 74, 127
2, 16026, Note_on_c, 10, 45, 127
2, 16115, Note_off_c, 2, 74, 127
2, 16117, Note_on_c, 1, 73, 127
2, 16206, Note_off_c, 1, 73, 127
2, 16206, Note_off_c, 10, 45, 127
2, 16208, Note_on_c, 12, 71, 127
2, 16208, Note_on_c, 6, 42, 127
2, 16297, Note_off_c, 12, 71, 127
2, 16299, Note_on_c, 10, 69, 127
2, 16388, Note_off_c, 10, 69, 127
2, 16388, Note_off_c, 6, 42, 127
2, 16390, Note_on_c, 2, 74, 127
2, 16390, Note_on_c, 12, 47, 127
2, 16570, Note_off_c, 12, 47, 127
2, 16570, Note_off_c, 2, 74, 127
2, 16572, Note_on_c, 12, 71, 127
2, 16572, Note_on_c, 2, 50, 127
2, 16661, Note_off_c, 12, 71, 127
2, 16663, Note_on_c, 1, 73, 127
2, 16752, Note_off_c, 1, 73, 127
2, 16752, Note_off_c, 2, 50, 127
2, 16753, Note_on_c, 2, 74, 127
2, 16753, Note_on_c, 12, 47, 127
2, 16842, Note_off_c, 2, 74, 127
2, 16844, Note_on_c, 4, 76, 127
2, 16933, Note_off_c, 4, 76, 127
2, 16933, Note_off_c, 12, 47, 127
2, 16935, Note_on_c, 6, 78, 127
2, 16935, Note_on_c, 8, 44, 127
2, 17115, Note_off_c, 8, 44, 127
2, 17115, Note_off_c, 6, 78, 127
2, 17117, Note_on_c, 4, 76, 127
2, 17117, Note_on_c, 12, 47, 127
2, 17206, Note_off_c, 4, 76, 127
2, 17208, Note_on_c, 2, 74, 127
2, 17297, Note_off_c, 2, 74, 127
2, 17297, Note_off_c, 12, 47, 127
2, 17299, Note_on_c, 1, 73, 127
2, 17299, Note_on_c, 8, 44, 127
2, 17388, Note_off_c, 1, 73, 127
2, 17390, Note_on_c, 12, 71, 127
2, 17479, Note_off_c, 12, 71, 127
2, 17479, Note_off_c, 8, 44, 127
2, 17480, Note_on_c, 4, 76, 127
2, 17480, Note_on_c, 1, 49, 127
2, 17660, Note_off_c, 1, 49, 127
2, 17662, Note_on_c, 10, 57, 127
2, 17751, Note_off_c, 10, 57, 127
2, 17753, Note_on_c, 12, 59, 127
2, 17842, Note_off_c, 12, 59, 127
2, 17844, Note_on_c, 1, 61, 127
2, 17933, Note_off_c, 1, 61, 127
2, 17935, Note_on_c, 2, 62, 127
2, 18024, Note_off_c, 2, 62, 127
2, 18026, Note_on_c, 4, 64, 127
2, 18206, Note_off_c, 4, 64, 127
2, 18208, Note_on_c, 2, 62, 127
2, 18297, Note_off_c, 2, 62, 127
2, 18298, Note_on_c, 1, 61, 127
2, 18387, Note_off_c, 1, 61, 127
2, 18389, Note_on_c, 12, 59, 127
2, 18478, Note_off_c, 12, 59, 127
2, 18480, Note_on_c, 10, 57, 127
2, 18569, Note_off_c, 10, 57, 127
2, 18571, Note_on_c, 6, 66, 127
2, 18571, Note_on_c, 2, 50, 127
2, 18751, Note_off_c, 2, 50, 127
2, 18753, Note_on_c, 12, 59, 127
2, 18842, Note_off_c, 12, 59, 127
2, 18844, Note_on_c, 1, 61, 127
2, 18933, Note_off_c, 1, 61, 127
2, 18935, Note_on_c, 2, 62, 127
2, 19024, Note_off_c, 2, 62, 127
2, 19025, Note_on_c, 4, 64, 127
2, 19113, Note_off_c, 4, 76, 127
2, 19114, Note_off_c, 4, 64, 127
2, 19116, Note_on_c, 2, 74, 127
2, 19116, Note_on_c, 6, 66, 127
2, 19296, Note_off_c, 6, 66, 127
2, 19298, Note_on_c, 4, 64, 127
2, 19387, Note_off_c, 4, 64, 127
2, 19389, Note_on_c, 2, 62, 127
2, 19478, Note_off_c, 2, 62, 127
2, 19480, Note_on_c, 1, 61, 127
2, 19569, Note_off_c, 1, 61, 127
2, 19571, Note_on_c, 12, 59, 127
2, 19659, Note_off_c, 6, 66, 127
2, 19660, Note_off_c, 12, 59, 127
2, 19662, Note_on_c, 8, 68, 127
2, 19662, Note_on_c, 4, 52, 127
2, 19842, Note_off_c, 8, 68, 127
2, 19843, Note_on_c, 4, 64, 127
2, 19932, Note_off_c, 4, 64, 127
2, 19934, Note_on_c, 6, 66, 127
2, 20023, Note_off_c, 6, 66, 127
2, 20024, Note_off_c, 4, 52, 127
2, 20025, Note_on_c, 8, 68, 127
2, 20025, Note_on_c, 4, 40, 127
2, 20114, Note_off_c, 8, 68, 127
2, 20116, Note_on_c, 10, 69, 127
2, 20205, Note_off_c, 10, 69, 127
2, 20205, Note_off_c, 4, 40, 127
2, 20205, Note_off_c, 2, 74, 127
2, 20207, Note_on_c, 2, 74, 127
2, 20207, Note_on_c, 12, 71, 127
2, 20207, Note_on_c, 4, 40, 127
2, 20387, Note_off_c, 12, 71, 127
2, 20389, Note_on_c, 8, 68, 127
2, 20569, Note_off_c, 8, 68, 127
2, 20570, Note_on_c, 12, 71, 127
2, 20659, Note_off_c, 4, 40, 127
2, 20661, Note_on_c, 4, 40, 127
2, 20746, Note_off_c, 2, 74, 127
2, 20750, Note_off_c, 4, 40, 127
2, 20750, Note_off_c, 12, 71, 127
2, 20752, Note_on_c, 8, 80, 127
2, 20752, Note_on_c, 2, 74, 127
2, 20752, Note_on_c, 4, 40, 127
2, 20932, Note_off_c, 2, 74, 127
2, 20934, Note_on_c, 12, 71, 127
2, 21114, Note_off_c, 12, 71, 127
2, 21116, Note_on_c, 2, 74, 127
2, 21291, Note_off_c, 8, 80, 127
2, 21296, Note_off_c, 2, 74, 127
2, 21297, Note_on_c, 12, 83, 127
2, 21297, Note_on_c, 8, 80, 127
2, 21477, Note_off_c, 8, 80, 127
2, 21479, Note_on_c, 2, 74, 127
2, 21490, Note_off_c, 4, 40, 127
2, 21570, Note_on_c, 12, 47, 127
2, 21659, Note_off_c, 12, 47, 127
2, 21659, Note_off_c, 2, 74, 127
2, 21661, Note_on_c, 8, 80, 127
2, 21661, Note_on_c, 1, 49, 127
2, 21750, Note_off_c, 1, 49, 127
2, 21752, Note_on_c, 2, 50, 127
2, 21836, Note_off_c, 12, 83, 127
2, 21841, Note_off_c, 2, 50, 127
2, 21841, Note_off_c, 8, 80, 127
2, 21843, Note_on_c, 1, 73, 127
2, 21843, Note_on_c, 4, 52, 127
2, 22024, Note_on_c, 10, 81, 127
2, 22113, Note_off_c, 10, 81, 127
2, 22115, Note_on_c, 8, 80, 127
2, 22204, Note_off_c, 8, 80, 127
2, 22205, Note_off_c, 4, 52, 127
2, 22206, Note_on_c, 6, 78, 127
2, 22206, Note_on_c, 4, 40, 127
2, 22295, Note_off_c, 6, 78, 127
2, 22297, Note_on_c, 4, 76, 127
2, 22382, Note_off_c, 1, 73, 127
2, 22386, Note_off_c, 4, 76, 127
2, 22386, Note_off_c, 4, 40, 127
2, 22388, Note_on_c, 10, 69, 127
2, 22388, Note_on_c, 3, 75, 127
2, 22388, Note_on_c, 4, 40, 127
2, 22568, Note_off_c, 3, 75, 127
2, 22570, Note_on_c, 6, 78, 127
2, 22750, Note_off_c, 6, 78, 127
2, 22752, Note_on_c, 3, 75, 127
2, 22840, Note_off_c, 4, 40, 127
2, 22842, Note_on_c, 4, 40, 127
2, 22927, Note_off_c, 10, 69, 127
2, 22931, Note_off_c, 4, 40, 127
2, 22932, Note_off_c, 3, 75, 127
2, 22933, Note_on_c, 6, 66, 127
2, 22933, Note_on_c, 10, 69, 127
2, 22933, Note_on_c, 4, 40, 127
2, 23113, Note_off_c, 10, 69, 127
2, 23115, Note_on_c, 3, 75, 127
2, 23295, Note_off_c, 3, 75, 127
2, 23297, Note_on_c, 10, 69, 127
2, 23472, Note_off_c, 6, 66, 127
2, 23477, Note_off_c, 10, 69, 127
2, 23479, Note_on_c, 6, 66, 127
2, 23479, Note_on_c, 3, 63, 127
2, 23659, Note_off_c, 6, 66, 127
2, 23660, Note_on_c, 10, 69, 127
2, 23840, Note_off_c, 10, 69, 127
2, 23842, Note_on_c, 6, 66, 127
2, 24018, Note_off_c, 3, 63, 127
2, 24022, Note_off_c, 6, 66, 127
2, 24022, Note_off_c, 4, 40, 127
2, 24024, Note_on_c, 8, 68, 127
2, 24024, Note_on_c, 4, 64, 127
2, 24204, Note_off_c, 4, 64, 127
2, 24206, Note_on_c, 6, 66, 127
2, 24386, Note_off_c, 6, 66, 127
2, 24386, Note_off_c, 8, 68, 127
2, 24387, Note_on_c, 4, 64, 127
2, 24387, Note_on_c, 4, 52, 127
2, 24478, Note_on_c, 2, 62, 127
2, 24567, Note_off_c, 2, 62, 127
2, 24567, Note_off_c, 4, 52, 127
2, 24567, Note_off_c, 4, 64, 127
2, 24569, Note_on_c, 10, 69, 127
2, 24569, Note_on_c, 1, 61, 127
2, 24569, Note_on_c, 6, 54, 127
2, 24749, Note_off_c, 6, 54, 127
2, 24751, Note_on_c, 4, 52, 127
2, 24931, Note_off_c, 4, 52, 127
2, 24931, Note_off_c, 1, 61, 127
2, 24931, Note_off_c, 10, 69, 127
2, 24933, Note_on_c, 2, 74, 127
2, 24933, Note_on_c, 10, 69, 127
2, 24933, Note_on_c, 2, 50, 127
2, 25113, Note_off_c, 2, 50, 127
2, 25113, Note_off_c, 10, 69, 127
2, 25113, Note_off_c, 2, 74, 127
2, 25114, Note_on_c, 10, 69, 127
2, 25114, Note_on_c, 1, 73, 127
2, 25114, Note_on_c, 4, 52, 127
2, 25385, Note_off_c, 1, 73, 127
2, 25385, Note_off_c, 10, 69, 127
2, 25387, Note_on_c, 12, 71, 127
2, 25476, Note_off_c, 12, 71, 127
2, 25478, Note_on_c, 10, 69, 127
2, 25567, Note_off_c, 10, 69, 127
2, 25569, Note_on_c, 12, 71, 127
2, 25658, Note_off_c, 12, 71, 127
2, 25660, Note_on_c, 1, 73, 127
2, 25660, Note_on_c, 8, 68, 127
2, 25660, Note_on_c, 4, 40, 127
2, 25749, Note_off_c, 1, 73, 127
2, 25751, Note_on_c, 12, 71, 127
2, 25840, Note_off_c, 12, 71, 127
2, 25841, Note_on_c, 1, 73, 127
2, 25930, Note_off_c, 1, 73, 127
2, 25932, Note_on_c, 12, 71, 127
2, 26021, Note_off_c, 12, 71, 127
2, 26023, Note_on_c, 10, 69, 127
2, 26112, Note_off_c, 10, 69, 127
2, 26114, Note_on_c, 12, 71, 127
2, 26199, Note_off_c, 8, 68, 127
2, 26203, Note_off_c, 12, 71, 127
2, 26203, Note_off_c, 4, 40, 127
2, 26203, Note_off_c, 4, 52, 127
2, 26205, Note_on_c, 10, 69, 127
2, 26205, Note_on_c, 10, 45, 127
2, 26385, Note_off_c, 10, 69, 127
2, 26387, Note_on_c, 1, 73, 127
2, 26476, Note_off_c, 1, 73, 127
2, 26478, Note_on_c, 12, 71, 127
2, 26567, Note_off_c, 12, 71, 127
2, 26567, Note_off_c, 10, 45, 127
2, 26568, Note_on_c, 10, 69, 127
2, 26568, Note_on_c, 4, 52, 127
2, 26657, Note_off_c, 10, 69, 127
2, 26659, Note_on_c, 8, 68, 127
2, 26748, Note_off_c, 8, 68, 127
2, 26748, Note_off_c, 4, 52, 127
2, 26750, Note_on_c, 6, 66, 127
2, 26750, Note_on_c, 10, 57, 127
2, 26839, Note_off_c, 10, 57, 127
2, 26841, Note_on_c, 8, 56, 127
2, 26930, Note_off_c, 8, 56, 127
2, 26930, Note_off_c, 6, 66, 127
2, 26932, Note_on_c, 10, 69, 127
2, 26932, Note_on_c, 10, 57, 127
2, 27021, Note_off_c, 10, 69, 127
2, 27023, Note_on_c, 8, 68, 127
2, 27112, Note_off_c, 8, 68, 127
2, 27114, Note_on_c, 6, 66, 127
2, 27203, Note_off_c, 6, 66, 127
2, 27205, Note_on_c, 4, 64, 127
2, 27294, Note_off_c, 4, 64, 127
2, 27296, Note_on_c, 3, 63, 127
2, 27475, Note_off_c, 10, 57, 127
2, 27477, Note_on_c, 6, 66, 127
2, 27477, Note_on_c, 12, 59, 127
2, 27566, Note_off_c, 12, 59, 127
2, 27568, Note_on_c, 10, 57, 127
2, 27657, Note_off_c, 10, 57, 127
2, 27657, Note_off_c, 6, 66, 127
2, 27659, Note_on_c, 12, 71, 127
2, 27659, Note_on_c, 8, 56, 127
2, 27748, Note_off_c, 8, 56, 127
2, 27750, Note_on_c, 6, 54, 127
2, 27835, Note_off_c, 3, 63, 127
2, 27839, Note_off_c, 6, 54, 127
2, 27839, Note_off_c, 12, 71, 127
2, 27841, Note_on_c, 12, 71, 127
2, 27841, Note_on_c, 5, 53, 127
2, 28021, Note_off_c, 5, 53, 127
2, 28023, Note_on_c, 8, 68, 127
2, 28023, Note_on_c, 6, 54, 127
2, 28112, Note_off_c, 6, 54, 127
2, 28113, Note_on_c, 5, 53, 127
2, 28202, Note_off_c, 5, 53, 127
2, 28203, Note_off_c, 8, 68, 127
2, 28204, Note_on_c, 5, 65, 127
2, 28204, Note_on_c, 3, 51, 127
2, 28293, Note_off_c, 3, 51, 127
2, 28295, Note_on_c, 1, 49, 127
2, 28384, Note_off_c, 1, 49, 127
2, 28384, Note_off_c, 5, 65, 127
2, 28386, Note_on_c, 1, 61, 127
2, 28386, Note_on_c, 6, 54, 127
2, 28566, Note_off_c, 12, 71, 127
2, 28568, Note_on_c, 10, 69, 127
2, 28657, Note_off_c, 10, 69, 127
2, 28659, Note_on_c, 8, 68, 127
2, 28748, Note_off_c, 8, 68, 127
2, 28748, Note_off_c, 6, 54, 127
2, 28750, Note_on_c, 6, 66, 127
2, 28750, Note_on_c, 6, 42, 127
2, 28839, Note_off_c, 6, 66, 127
2, 28840, Note_on_c, 4, 64, 127
2, 28925, Note_off_c, 1, 61, 127
2, 28929, Note_off_c, 4, 64, 127
2, 28930, Note_off_c, 6, 42, 127
2, 28931, Note_on_c, 2, 62, 127
2, 28931, Note_on_c, 6, 54, 127
2, 29020, Note_off_c, 6, 54, 127
2, 29022, Note_on_c, 4, 52, 127
2, 29111, Note_off_c, 4, 52, 127
2, 29111, Note_off_c, 2, 62, 127
2, 29113, Note_on_c, 6, 66, 127
2, 29113, Note_on_c, 6, 54, 127
2, 29202, Note_off_c, 6, 66, 127
2, 29204, Note_on_c, 4, 64, 127
2, 29293, Note_off_c, 4, 64, 127
2, 29295, Note_on_c, 2, 62, 127
2, 29384, Note_off_c, 2, 62, 127
2, 29386, Note_on_c, 1, 61, 127
2, 29475, Note_off_c, 1, 61, 127
2, 29477, Note_on_c, 12, 59, 127
2, 29656, Note_off_c, 6, 54, 127
2, 29658, Note_on_c, 2, 62, 127
2, 29658, Note_on_c, 7, 55, 127
2, 29747, Note_off_c, 7, 55, 127
2, 29749, Note_on_c, 6, 54, 127
2, 29838, Note_off_c, 6, 54, 127
2, 29838, Note_off_c, 2, 62, 127
2, 29840, Note_on_c, 7, 67, 127
2, 29840, Note_on_c, 4, 52, 127
2, 29929, Note_off_c, 4, 52, 127
2, 29931, Note_on_c, 2, 50, 127
2, 30016, Note_off_c, 12, 59, 127
2, 30020, Note_off_c, 2, 50, 127
2, 30020, Note_off_c, 7, 67, 127
2, 30022, Note_on_c, 7, 67, 127
2, 30022, Note_on_c, 1, 49, 127
2, 30202, Note_off_c, 1, 49, 127
2, 30204, Note_on_c, 4, 64, 127
2, 30204, Note_on_c, 2, 50, 127
2, 30293, Note_off_c, 2, 50, 127
2, 30295, Note_on_c, 1, 49, 127
2, 30384, Note_off_c, 1, 49, 127
2, 30384, Note_off_c, 4, 64, 127
2, 30385, Note_on_c, 1, 61, 127
2, 30385, Note_on_c, 12, 47, 127
2, 30474, Note_off_c, 12, 47, 127
2, 30476, Note_on_c, 10, 45, 127
2, 30565, Note_off_c, 10, 45, 127
2, 30565, Note_off_c, 1, 61, 127
2, 30567, Note_on_c, 10, 57, 127
2, 30567, Note_on_c, 2, 50, 127
2, 30747, Note_off_c, 7, 67, 127
2, 30749, Note_on_c, 6, 66, 127
2, 30838, Note_off_c, 6, 66, 127
2, 30840, Note_on_c, 4, 64, 127
2, 30929, Note_off_c, 4, 64, 127
2, 30929, Note_off_c, 2, 50, 127
2, 30931, Note_on_c, 2, 62, 127
2, 30931, Note_on_c, 2, 38, 127
2, 31020, Note_off_c, 2, 62, 127
2, 31022, Note_on_c, 1, 61, 127
2, 31106, Note_off_c, 10, 57, 127
2, 31111, Note_off_c, 1, 61, 127
2, 31111, Note_off_c, 2, 38, 127
2, 31112, Note_on_c, 12, 59, 127
2, 31112, Note_on_c, 2, 50, 127
2, 31201, Note_off_c, 2, 50, 127
2, 31203, Note_on_c, 1, 49, 127
2, 31292, Note_off_c, 1, 49, 127
2, 31292, Note_off_c, 12, 59, 127
2, 31294, Note_on_c, 2, 62, 127
2, 31294, Note_on_c, 2, 50, 127
2, 31383, Note_off_c, 2, 62, 127
2, 31385, Note_on_c, 1, 61, 127
2, 31474, Note_off_c, 1, 61, 127
2, 31476, Note_on_c, 12, 59, 127
2, 31565, Note_off_c, 12, 59, 127
2, 31567, Note_on_c, 10, 57, 127
2, 31656, Note_off_c, 10, 57, 127
2, 31658, Note_on_c, 8, 56, 127
2, 31837, Note_off_c, 2, 50, 127
2, 31840, Note_on_c, 12, 59, 127
2, 31840, Note_on_c, 4, 52, 127
2, 31929, Note_off_c, 4, 52, 127
2, 31930, Note_on_c, 2, 50, 127
2, 32019, Note_off_c, 2, 50, 127
2, 32020, Note_off_c, 12, 59, 127
2, 32020, Note_off_c, 8, 56, 127
2, 32021, Note_on_c, 4, 64, 127
2, 32021, Note_on_c, 1, 49, 127
2, 32110, Note_off_c, 1, 49, 127
2, 32112, Note_on_c, 12, 47, 127
2, 32201, Note_off_c, 12, 47, 127
2, 32203, Note_on_c, 1, 61, 127
2, 32203, Note_on_c, 10, 45, 127
2, 32383, Note_off_c, 10, 45, 127
2, 32383, Note_off_c, 4, 64, 127
2, 32385, Note_on_c, 4, 64, 127
2, 32385, Note_on_c, 12, 47, 127
2, 32474, Note_off_c, 12, 47, 127
2, 32476, Note_on_c, 1, 49, 127
2, 32565, Note_off_c, 1, 49, 127
2, 32565, Note_off_c, 4, 64, 127
2, 32567, Note_on_c, 10, 69, 127
2, 32567, Note_on_c, 2, 50, 127
2, 32656, Note_off_c, 2, 50, 127
2, 32657, Note_on_c, 4, 52, 127
2, 32742, Note_off_c, 1, 61, 127
2, 32746, Note_off_c, 4, 52, 127
2, 32748, Note_on_c, 2, 62, 127
2, 32748, Note_on_c, 6, 54, 127
2, 32928, Note_off_c, 6, 54, 127
2, 32930, Note_on_c, 4, 52, 127
2, 33106, Note_off_c, 10, 69, 127
2, 33110, Note_off_c, 4, 52, 127
2, 33110, Note_off_c, 2, 62, 127
2, 33112, Note_on_c, 2, 62, 127
2, 33112, Note_on_c, 12, 71, 127
2, 33112, Note_on_c, 2, 50, 127
2, 33292, Note_off_c, 2, 50, 127
2, 33292, Note_off_c, 12, 71, 127
2, 33292, Note_off_c, 2, 62, 127
2, 33294, Note_on_c, 1, 61, 127
2, 33294, Note_on_c, 4, 64, 127
2, 33294, Note_on_c, 4, 52, 127
2, 33474, Note_off_c, 4, 64, 127
2, 33475, Note_on_c, 10, 69, 127
2, 33655, Note_off_c, 10, 69, 127
2, 33656, Note_off_c, 4, 52, 127
2, 33656, Note_off_c, 1, 61, 127
2, 33657, Note_on_c, 8, 68, 127
2, 33657, Note_on_c, 12, 59, 127
2, 33657, Note_on_c, 4, 40, 127
2, 33837, Note_off_c, 4, 40, 127
2, 33837, Note_off_c, 12, 59, 127
2, 33837, Note_off_c, 8, 68, 127
2, 33839, Note_on_c, 10, 69, 127
2, 33839, Note_on_c, 1, 61, 127
2, 33839, Note_on_c, 10, 45, 127
2, 34021, Note_on_c, 1, 49, 127
2, 34201, Note_off_c, 1, 49, 127
2, 34202, Note_on_c, 4, 52, 127
2, 34382, Note_off_c, 4, 52, 127
2, 34384, Note_on_c, 10, 57, 127
2, 34566, Note_on_c, 4, 52, 127
2, 34746, Note_off_c, 4, 52, 127
2, 34748, Note_on_c, 1, 49, 127
2, 34923, Note_off_c, 10, 57, 127
2, 34928, Note_off_c, 1, 49, 127
2, 34928, Note_off_c, 10, 45, 127
2, 34928, Note_off_c, 1, 61, 127
2, 34928, Note_off_c, 10, 69, 127
2, 34929, Note_on_c, 10, 57, 127
2, 34929, Note_on_c, 10, 45, 127
2, 35111, Note_on_c, 4, 76, 127
2, 35200, Note_off_c, 4, 76, 127
2, 35202, Note_on_c, 2, 74, 127
2, 35291, Note_off_c, 2, 74, 127
2, 35293, Note_on_c, 1, 73, 127
2, 35382, Note_off_c, 1, 73, 127
2, 35384, Note_on_c, 12, 71, 127
2, 35473, Note_off_c, 12, 71, 127
2, 35475, Note_on_c, 10, 69, 127
2, 35656, Note_on_c, 1, 73, 127
2, 35836, Note_off_c, 1, 73, 127
2, 35837, Note_off_c, 10, 69, 127
2, 35838, Note_on_c, 10, 69, 127
2, 36018, Note_off_c, 10, 69, 127
2, 36020, Note_on_c, 4, 64, 127
2, 36202, Note_on_c, 10, 69, 127
2, 36382, Note_off_c, 10, 69, 127
2, 36382, Note_off_c, 4, 64, 127
2, 36384, Note_on_c, 4, 64, 127
2, 36564, Note_off_c, 4, 64, 127
2, 36565, Note_on_c, 1, 61, 127
2, 36747, Note_on_c, 4, 64, 127
2, 36927, Note_off_c, 4, 64, 127
2, 36927, Note_off_c, 1, 61, 127
2, 36929, Note_on_c, 1, 61, 127
2, 37108, Note_off_c, 10, 45, 127
2, 37108, Note_off_c, 10, 57, 127
2, 37109, Note_off_c, 1, 61, 127
2, 37111, Note_on_c, 10, 57, 127
2, 37295, Note_on_c, 10, 69, 127
2, 37385, Note_off_c, 10, 69, 127
2, 37387, Note_on_c, 12, 71, 127
2, 37477, Note_off_c, 12, 71, 127
2, 37480, Note_on_c, 1, 73, 127
2, 37570, Note_off_c, 1, 73, 127
2, 37572, Note_on_c, 2, 74, 127
2, 37662, Note_off_c, 2, 74, 127
2, 37663, Note_off_c, 10, 57, 127
2, 37664, Note_on_c, 4, 76, 127
2, 37664, Note_on_c, 10, 69, 127
2, 37664, Note_on_c, 10, 57, 127
2, 37664, Note_on_c, 1, 61, 127
2, 37847, Note_off_c, 10, 69, 127
2, 37849, Note_on_c, 1, 73, 127
2, 38031, Note_off_c, 4, 76, 127
2, 38032, Note_off_c, 1, 73, 127
2, 38034, Note_on_c, 4, 76, 127
2, 38216, Note_off_c, 1, 61, 127
2, 38216, Note_off_c, 10, 57, 127
2, 38218, Note_on_c, 10, 81, 127
2, 38218, Note_on_c, 10, 57, 127
2, 38218, Note_on_c, 1, 61, 127
2, 38218, Note_on_c, 10, 69, 127
2, 38303, Note_off_c, 4, 76, 127
2, 38310, Note_on_c, 4, 76, 127
2, 38400, Note_off_c, 4, 76, 127
2, 38401, Note_off_c, 10, 81, 127
2, 38403, Note_on_c, 6, 78, 127
2, 38493, Note_off_c, 6, 78, 127
2, 38495, Note_on_c, 8, 80, 127
2, 38585, Note_off_c, 8, 80, 127
2, 38585, Note_off_c, 10, 69, 127
2, 38585, Note_off_c, 1, 61, 127
2, 38587, Note_on_c, 10, 81, 127
2, 38587, Note_on_c, 2, 62, 127
2, 38587, Note_on_c, 12, 71, 127
2, 38677, Note_off_c, 10, 81, 127
2, 38680, Note_on_c, 8, 80, 127
2, 38770, Note_off_c, 8, 80, 127
2, 38770, Note_off_c, 12, 71, 127
2, 38770, Note_off_c, 2, 62, 127
2, 38772, Note_on_c, 10, 81, 127
2, 38772, Note_on_c, 2, 62, 127
2, 38772, Note_on_c, 12, 71, 127
2, 38864, Note_on_c, 4, 76, 127
2, 38954, Note_off_c, 4, 76, 127
2, 38955, Note_off_c, 10, 81, 127
2, 38957, Note_on_c, 6, 78, 127
2, 39047, Note_off_c, 6, 78, 127
2, 39049, Note_on_c, 8, 80, 127
2, 39139, Note_off_c, 8, 80, 127
2, 39139, Note_off_c, 12, 71, 127
2, 39139, Note_off_c, 2, 62, 127
2, 39141, Note_on_c, 10, 81, 127
2, 39141, Note_on_c, 4, 64, 127
2, 39141, Note_on_c, 1, 73, 127
2, 39231, Note_off_c, 10, 81, 127
2, 39233, Note_on_c, 8, 80, 127
2, 39323, Note_off_c, 8, 80, 127
2, 39324, Note_off_c, 1, 73, 127
2, 39324, Note_off_c, 4, 64, 127
2, 39324, Note_off_c, 10, 57, 127
2, 39326, Note_on_c, 10, 81, 127
2, 39326, Note_on_c, 4, 64, 127
2, 39326, Note_on_c, 1, 73, 127
2, 39509, Note_off_c, 1, 73, 127
2, 39509, Note_off_c, 4, 64, 127
2, 39509, Note_off_c, 10, 81, 127
2, 39510, Note_on_c, 8, 80, 127
2, 39510, Note_on_c, 4, 64, 127
2, 39600, Note_off_c, 4, 64, 127
2, 39600, Note_off_c, 8, 80, 127
2, 39603, Note_on_c, 6, 78, 127
2, 39603, Note_on_c, 2, 62, 127
2, 39693, Note_off_c, 2, 62, 127
2, 39693, Note_off_c, 6, 78, 127
2, 39695, Note_on_c, 4, 76, 127
2, 39695, Note_on_c, 1, 61, 127
2, 39785, Note_off_c, 1, 61, 127
2, 39785, Note_off_c, 4, 76, 127
2, 39787, Note_on_c, 2, 74, 127
2, 39787, Note_on_c, 12, 59, 127
2, 39877, Note_off_c, 12, 59, 127
2, 39877, Note_off_c, 2, 74, 127
2, 39880, Note_on_c, 1, 73, 127
2, 39880, Note_on_c, 10, 57, 127
2, 39970, Note_off_c, 1, 73, 127
2, 39972, Note_on_c, 2, 74, 127
2, 40062, Note_off_c, 2, 74, 127
2, 40063, Note_off_c, 10, 57, 127
2, 40064, Note_on_c, 4, 76, 127
2, 40064, Note_on_c, 1, 61, 127
2, 40154, Note_off_c, 4, 76, 127
2, 40156, Note_on_c, 2, 74, 127
2, 40246, Note_off_c, 2, 74, 127
2, 40247, Note_off_c, 1, 61, 127
2, 40249, Note_on_c, 1, 73, 127
2, 40249, Note_on_c, 10, 57, 127
2, 40339, Note_off_c, 1, 73, 127
2, 40341, Note_on_c, 12, 71, 127
2, 40431, Note_off_c, 12, 71, 127
2, 40432, Note_off_c, 10, 57, 127
2, 40433, Note_on_c, 12, 71, 127
2, 40433, Note_on_c, 4, 52, 127
2, 40569, Note_off_c, 12, 71, 127
2, 40571, Note_on_c, 10, 69, 127
2, 40614, Note_off_c, 4, 52, 127
2, 40617, Note_on_c, 10, 57, 127
2, 40637, Note_off_c, 10, 69, 127
2, 40639, Note_on_c, 12, 71, 127
2, 40707, Note_off_c, 12, 71, 127
2, 40709, Note_on_c, 10, 69, 127
2, 40777, Note_off_c, 10, 69, 127
2, 40778, Note_on_c, 12, 71, 127
2, 40800, Note_off_c, 10, 57, 127
2, 40801, Note_on_c, 4, 52, 127
2, 40844, Note_off_c, 12, 71, 127
2, 40847, Note_on_c, 10, 69, 127
2, 40915, Note_off_c, 10, 69, 127
2, 40916, Note_on_c, 12, 71, 127
2, 40984, Note_off_c, 12, 71, 127
2, 40984, Note_off_c, 4, 52, 127
2, 40986, Note_on_c, 10, 69, 127
2, 40986, Note_on_c, 1, 49, 127
2, 41054, Note_off_c, 10, 69, 127
2, 41055, Note_on_c, 12, 71, 127
2, 41123, Note_off_c, 12, 71, 127
2, 41125, Note_on_c, 10, 69, 127
2, 41169, Note_off_c, 1, 49, 127
2, 41170, Note_on_c, 4, 52, 127
2, 41191, Note_off_c, 10, 69, 127
2, 41193, Note_on_c, 12, 71, 127
2, 41261, Note_off_c, 12, 71, 127
2, 41263, Note_on_c, 10, 69, 127
2, 41353, Note_off_c, 4, 52, 127
2, 41355, Note_on_c, 1, 49, 127
2, 41538, Note_off_c, 1, 49, 127
2, 41540, Note_on_c, 10, 45, 127
2, 41630, Note_off_c, 10, 69, 127
2, 41632, Note_on_c, 12, 71, 127
2, 41722, Note_off_c, 12, 71, 127
2, 41724, Note_on_c, 10, 69, 127
2, 41814, Note_off_c, 10, 69, 127
2, 41816, Note_on_c, 8, 68, 127
2, 41906, Note_off_c, 8, 68, 127
2, 41909, Note_on_c, 10, 69, 127
2, 41999, Note_off_c, 10, 69, 127
2, 42001, Note_on_c, 4, 64, 127
2, 42091, Note_off_c, 4, 64, 127
2, 42092, Note_off_c, 10, 45, 127
2, 42093, Note_on_c, 1, 61, 127
2, 42093, Note_on_c, 4, 52, 127
2, 42093, Note_on_c, 1, 49, 127
2, 42093, Note_on_c, 10, 45, 127
2, 42183, Note_off_c, 1, 61, 127
2, 42186, Note_on_c, 6, 66, 127
2, 42276, Note_off_c, 6, 66, 127
2, 42278, Note_on_c, 4, 64, 127
2, 42368, Note_off_c, 4, 64, 127
2, 42370, Note_on_c, 2, 62, 127
2, 42460, Note_off_c, 2, 62, 127
2, 42463, Note_on_c, 4, 64, 127
2, 42553, Note_off_c, 4, 64, 127
2, 42555, Note_on_c, 1, 61, 127
2, 42645, Note_off_c, 1, 61, 127
2, 42645, Note_off_c, 10, 45, 127
2, 42645, Note_off_c, 1, 49, 127
2, 42645, Note_off_c, 4, 52, 127
2, 42647, Note_on_c, 12, 59, 127
2, 42647, Note_on_c, 1, 49, 127
2, 42647, Note_on_c, 4, 52, 127
2, 42647, Note_on_c, 10, 45, 127
2, 42783, Note_off_c, 12, 59, 127
2, 42785, Note_on_c, 10, 57, 127
2, 42853, Note_off_c, 10, 57, 127
2, 42854, Note_on_c, 12, 59, 127
2, 42922, Note_off_c, 12, 59, 127
2, 42924, Note_on_c, 10, 57, 127
2, 42992, Note_off_c, 10, 57, 127
2, 42994, Note_on_c, 12, 59, 127
2, 43014, Note_off_c, 4, 52, 127
2, 43014, Note_off_c, 1, 49, 127
2, 43016, Note_on_c, 12, 47, 127
2, 43016, Note_on_c, 2, 50, 127
2, 43060, Note_off_c, 12, 59, 127
2, 43062, Note_on_c, 10, 57, 127
2, 43130, Note_off_c, 10, 57, 127
2, 43131, Note_on_c, 12, 59, 127
2, 43199, Note_off_c, 12, 59, 127
2, 43199, Note_off_c, 2, 50, 127
2, 43199, Note_off_c, 12, 47, 127
2, 43201, Note_on_c, 10, 57, 127
2, 43201, Note_on_c, 12, 47, 127
2, 43201, Note_on_c, 2, 50, 127
2, 43269, Note_off_c, 10, 57, 127
2, 43271, Note_on_c, 12, 59, 127
2, 43339, Note_off_c, 12, 59, 127
2, 43340, Note_on_c, 10, 57, 127
2, 43408, Note_off_c, 10, 57, 127
2, 43410, Note_on_c, 12, 59, 127
2, 43478, Note_off_c, 12, 59, 127
2, 43479, Note_on_c, 10, 57, 127
2, 43547, Note_off_c, 10, 57, 127
2, 43549, Note_on_c, 12, 59, 127
2, 43570, Note_off_c, 2, 50, 127
2, 43570, Note_off_c, 12, 47, 127
2, 43572, Note_on_c, 4, 52, 127
2, 43572, Note_on_c, 1, 49, 127
2, 43615, Note_off_c, 12, 59, 127
2, 43617, Note_on_c, 10, 57, 127
2, 43753, Note_off_c, 1, 49, 127
2, 43753, Note_off_c, 4, 52, 127
2, 43753, Note_off_c, 10, 45, 127
2, 43755, Note_on_c, 4, 52, 127
2, 43755, Note_on_c, 1, 49, 127
2, 43939, Note_off_c, 10, 57, 127
2, 43957, Note_on_c, 10, 57, 127
2, 44049, Note_off_c, 10, 57, 127
2, 44050, Note_on_c, 12, 59, 127
2, 44142, Note_off_c, 12, 59, 127
2, 44144, Note_on_c, 1, 61, 127
2, 44236, Note_off_c, 1, 61, 127
2, 44238, Note_on_c, 2, 62, 127
2, 44330, Note_off_c, 2, 62, 127
2, 44332, Note_on_c, 4, 64, 127
2, 44455, Note_off_c, 1, 49, 127
2, 44455, Note_off_c, 4, 52, 127
2, 44516, Note_off_c, 4, 64, 127
2, 44518, Note_on_c, 1, 61, 127
2, 44702, Note_off_c, 1, 61, 127
2, 44704, Note_on_c, 10, 57, 127
2, 44704, Note_on_c, 4, 64, 127
2, 44888, Note_off_c, 4, 64, 127
2, 44888, Note_off_c, 10, 57, 127
2, 44890, Note_on_c, 12, 59, 127
2, 44890, Note_on_c, 7, 67, 127
2, 45074, Note_off_c, 12, 59, 127
2, 45076, Note_on_c, 1, 61, 127
2, 45076, Note_on_c, 4, 76, 127
2, 45168, Note_off_c, 4, 76, 127
2, 45168, Note_off_c, 1, 61, 127
2, 45169, Note_on_c, 12, 59, 127
2, 45169, Note_on_c, 2, 74, 127
2, 45261, Note_off_c, 2, 74, 127
2, 45261, Note_off_c, 12, 59, 127
2, 45263, Note_on_c, 10, 57, 127
2, 45263, Note_on_c, 1, 73, 127
2, 45355, Note_off_c, 1, 73, 127
2, 45355, Note_off_c, 10, 57, 127
2, 45357, Note_on_c, 12, 59, 127
2, 45357, Note_on_c, 12, 71, 127
2, 45443, Note_off_c, 7, 67, 127
2, 45447, Note_off_c, 12, 71, 127
2, 45447, Note_off_c, 12, 59, 127
2, 45449, Note_on_c, 1, 61, 127
2, 45449, Note_on_c, 10, 69, 127
2, 45633, Note_off_c, 1, 61, 127
2, 45635, Note_on_c, 2, 62, 127
2, 45635, Note_on_c, 4, 76, 127
2, 45727, Note_off_c, 2, 62, 127
2, 45729, Note_on_c, 1, 61, 127
2, 45821, Note_off_c, 1, 61, 127
2, 45821, Note_off_c, 4, 76, 127
2, 45821, Note_off_c, 10, 69, 127
2, 45823, Note_on_c, 12, 59, 127
2, 45823, Note_on_c, 7, 67, 127
2, 45915, Note_off_c, 12, 59, 127
2, 45916, Note_on_c, 1, 61, 127
2, 46008, Note_off_c, 1, 61, 127
2, 46009, Note_off_c, 7, 67, 127
2, 46010, Note_on_c, 2, 62, 127
2, 46010, Note_on_c, 6, 66, 127
2, 46193, Note_off_c, 2, 62, 127
2, 46194, Note_off_c, 6, 66, 127
2, 46196, Note_on_c, 2, 62, 127
2, 46290, Note_on_c, 4, 64, 127
2, 46382, Note_off_c, 4, 64, 127
2, 46384, Note_on_c, 6, 66, 127
2, 46476, Note_off_c, 6, 66, 127
2, 46477, Note_on_c, 7, 67, 127
2, 46569, Note_off_c, 7, 67, 127
2, 46571, Note_on_c, 10, 69, 127
2, 46755, Note_off_c, 10, 69, 127
2, 46757, Note_on_c, 6, 66, 127
2, 46940, Note_off_c, 2, 62, 127
2, 46941, Note_off_c, 6, 66, 127
2, 46943, Note_on_c, 2, 50, 127
2, 46943, Note_on_c, 10, 69, 127
2, 47127, Note_off_c, 10, 69, 127
2, 47127, Note_off_c, 2, 50, 127
2, 47129, Note_on_c, 4, 52, 127
2, 47129, Note_on_c, 0, 72, 127
2, 47313, Note_off_c, 4, 52, 127
2, 47315, Note_on_c, 6, 54, 127
2, 47315, Note_on_c, 10, 81, 127
2, 47407, Note_off_c, 10, 81, 127
2, 47407, Note_off_c, 6, 54, 127
2, 47409, Note_on_c, 4, 52, 127
2, 47409, Note_on_c, 7, 79, 127
2, 47501, Note_off_c, 7, 79, 127
2, 47501, Note_off_c, 4, 52, 127
2, 47502, Note_on_c, 2, 50, 127
2, 47502, Note_on_c, 6, 78, 127
2, 47594, Note_off_c, 6, 78, 127
2, 47594, Note_off_c, 2, 50, 127
2, 47596, Note_on_c, 4, 52, 127
2, 47596, Note_on_c, 4, 76, 127
2, 47682, Note_off_c, 0, 72, 127
2, 47686, Note_off_c, 4, 76, 127
2, 47686, Note_off_c, 4, 52, 127
2, 47689, Note_on_c, 6, 54, 127
2, 47689, Note_on_c, 2, 74, 127
2, 47873, Note_off_c, 6, 54, 127
2, 47875, Note_on_c, 7, 55, 127
2, 47875, Note_on_c, 10, 81, 127
2, 47967, Note_off_c, 7, 55, 127
2, 47968, Note_on_c, 6, 54, 127
2, 48060, Note_off_c, 6, 54, 127
2, 48061, Note_off_c, 10, 81, 127
2, 48061, Note_off_c, 2, 74, 127
2, 48062, Note_on_c, 4, 52, 127
2, 48062, Note_on_c, 0, 72, 127
2, 48154, Note_off_c, 4, 52, 127
2, 48156, Note_on_c, 6, 54, 127
2, 48248, Note_off_c, 6, 54, 127
2, 48248, Note_off_c, 0, 72, 127
2, 48249, Note_on_c, 7, 55, 127
2, 48249, Note_on_c, 12, 71, 127
2, 48433, Note_off_c, 7, 55, 127
2, 48435, Note_on_c, 12, 59, 127
2, 48527, Note_off_c, 12, 59, 127
2, 48529, Note_on_c, 10, 57, 127
2, 48621, Note_off_c, 10, 57, 127
2, 48621, Note_off_c, 12, 71, 127
2, 48623, Note_on_c, 7, 55, 127
2, 48623, Note_on_c, 10, 69, 127
2, 48715, Note_off_c, 7, 55, 127
2, 48717, Note_on_c, 6, 54, 127
2, 48809, Note_off_c, 6, 54, 127
2, 48809, Note_off_c, 10, 69, 127
2, 48810, Note_on_c, 4, 52, 127
2, 48810, Note_on_c, 10, 69, 127
2, 48878, Note_off_c, 10, 69, 127
2, 48880, Note_on_c, 7, 67, 127
2, 48948, Note_off_c, 7, 67, 127
2, 48949, Note_on_c, 10, 69, 127
2, 48994, Note_off_c, 4, 52, 127
2, 48996, Note_on_c, 7, 55, 127
2, 49017, Note_off_c, 10, 69, 127
2, 49019, Note_on_c, 7, 67, 127
2, 49086, Note_off_c, 7, 55, 127
2, 49089, Note_on_c, 6, 54, 127
2, 49180, Note_off_c, 7, 67, 127
2, 49181, Note_off_c, 6, 54, 127
2, 49182, Note_on_c, 4, 52, 127
2, 49182, Note_on_c, 6, 66, 127
2, 49274, Note_off_c, 4, 52, 127
2, 49276, Note_on_c, 2, 50, 127
2, 49368, Note_off_c, 2, 50, 127
2, 49368, Note_off_c, 6, 66, 127
2, 49370, Note_on_c, 1, 49, 127
2, 49370, Note_on_c, 4, 64, 127
2, 49554, Note_off_c, 4, 64, 127
2, 49554, Note_off_c, 1, 49, 127
2, 49556, Note_on_c, 4, 52, 127
2, 49556, Note_on_c, 1, 73, 127
2, 49648, Note_off_c, 1, 73, 127
2, 49650, Note_on_c, 12, 71, 127
2, 49742, Note_off_c, 12, 71, 127
2, 49742, Note_off_c, 4, 52, 127
2, 49743, Note_on_c, 1, 49, 127
2, 49743, Note_on_c, 11, 70, 127
2, 49835, Note_off_c, 11, 70, 127
2, 49837, Note_on_c, 12, 71, 127
2, 49929, Note_off_c, 12, 71, 127
2, 49929, Note_off_c, 1, 49, 127
2, 49931, Note_on_c, 11, 46, 127
2, 49931, Note_on_c, 1, 73, 127
2, 50115, Note_off_c, 11, 46, 127
2, 50117, Note_on_c, 1, 49, 127
2, 50301, Note_off_c, 1, 49, 127
2, 50303, Note_on_c, 11, 46, 127
2, 50303, Note_on_c, 7, 67, 127
2, 50487, Note_off_c, 7, 67, 127
2, 50487, Note_off_c, 11, 46, 127
2, 50489, Note_on_c, 2, 50, 127
2, 50489, Note_on_c, 6, 66, 127
2, 50673, Note_off_c, 2, 50, 127
2, 50673, Note_off_c, 1, 73, 127
2, 50675, Note_on_c, 6, 54, 127
2, 50675, Note_on_c, 2, 74, 127
2, 50767, Note_off_c, 2, 74, 127
2, 50768, Note_on_c, 1, 73, 127
2, 50860, Note_off_c, 1, 73, 127
2, 50861, Note_off_c, 6, 54, 127
2, 50862, Note_on_c, 2, 50, 127
2, 50862, Note_on_c, 12, 71, 127
2, 50954, Note_off_c, 12, 71, 127
2, 50956, Note_on_c, 1, 73, 127
2, 51042, Note_off_c, 6, 66, 127
2, 51046, Note_off_c, 1, 73, 127
2, 51046, Note_off_c, 2, 50, 127
2, 51048, Note_on_c, 12, 47, 127
2, 51048, Note_on_c, 2, 74, 127
2, 51232, Note_off_c, 12, 47, 127
2, 51234, Note_on_c, 2, 50, 127
2, 51418, Note_off_c, 2, 50, 127
2, 51420, Note_on_c, 12, 47, 127
2, 51420, Note_on_c, 10, 69, 127
2, 51604, Note_off_c, 10, 69, 127
2, 51604, Note_off_c, 12, 47, 127
2, 51606, Note_on_c, 4, 52, 127
2, 51606, Note_on_c, 7, 67, 127
2, 51790, Note_off_c, 4, 52, 127
2, 51790, Note_off_c, 2, 74, 127
2, 51792, Note_on_c, 7, 55, 127
2, 51792, Note_on_c, 4, 76, 127
2, 51884, Note_off_c, 4, 76, 127
2, 51886, Note_on_c, 2, 74, 127
2, 51978, Note_off_c, 2, 74, 127
2, 51978, Note_off_c, 7, 55, 127
2, 51980, Note_on_c, 4, 52, 127
2, 51980, Note_on_c, 1, 73, 127
2, 52072, Note_off_c, 1, 73, 127
2, 52073, Note_on_c, 2, 74, 127
2, 52159, Note_off_c, 7, 67, 127
2, 52163, Note_off_c, 2, 74, 127
2, 52164, Note_off_c, 4, 52, 127
2, 52166, Note_on_c, 1, 49, 127
2, 52166, Note_on_c, 4, 76, 127
2, 52350, Note_off_c, 1, 49, 127
2, 52352, Note_on_c, 4, 52, 127
2, 52536, Note_off_c, 4, 52, 127
2, 52538, Note_on_c, 1, 49, 127
2, 52538, Note_on_c, 12, 71, 127
2, 52722, Note_off_c, 12, 71, 127
2, 52722, Note_off_c, 1, 49, 127
2, 52724, Note_on_c, 6, 54, 127
2, 52724, Note_on_c, 11, 70, 127
2, 52911, Note_off_c, 4, 76, 127
2, 52913, Note_on_c, 7, 79, 127
2, 53005, Note_off_c, 7, 79, 127
2, 53006, Note_on_c, 6, 78, 127
2, 53098, Note_off_c, 6, 78, 127
2, 53098, Note_off_c, 6, 54, 127
2, 53100, Note_on_c, 12, 59, 127
2, 53100, Note_on_c, 4, 76, 127
2, 53192, Note_off_c, 4, 76, 127
2, 53194, Note_on_c, 3, 75, 127
2, 53286, Note_off_c, 3, 75, 127
2, 53286, Note_off_c, 12, 59, 127
2, 53288, Note_on_c, 11, 58, 127
2, 53288, Note_on_c, 4, 76, 127
2, 53475, Note_off_c, 4, 76, 127
2, 53475, Note_off_c, 11, 58, 127
2, 53476, Note_on_c, 12, 59, 127
2, 53476, Note_on_c, 7, 79, 127
2, 53663, Note_off_c, 7, 79, 127
2, 53663, Note_off_c, 12, 59, 127
2, 53665, Note_on_c, 1, 61, 127
2, 53665, Note_on_c, 3, 75, 127
2, 53852, Note_off_c, 3, 75, 127
2, 53852, Note_off_c, 1, 61, 127
2, 53852, Note_off_c, 11, 70, 127
2, 53854, Note_on_c, 6, 54, 127
2, 53854, Note_on_c, 1, 73, 127
2, 53854, Note_on_c, 4, 76, 127
2, 54041, Note_off_c, 4, 76, 127
2, 54043, Note_on_c, 7, 79, 127
2, 54135, Note_off_c, 7, 79, 127
2, 54137, Note_on_c, 6, 78, 127
2, 54228, Note_off_c, 6, 54, 127
2, 54229, Note_off_c, 6, 78, 127
2, 54230, Note_on_c, 12, 59, 127
2, 54230, Note_on_c, 4, 76, 127
2, 54322, Note_off_c, 4, 76, 127
2, 54324, Note_on_c, 3, 75, 127
2, 54416, Note_off_c, 3, 75, 127
2, 54416, Note_off_c, 12, 59, 127
2, 54418, Note_on_c, 11, 58, 127
2, 54418, Note_on_c, 4, 76, 127
2, 54605, Note_off_c, 4, 76, 127
2, 54607, Note_on_c, 6, 78, 127
2, 54699, Note_off_c, 6, 78, 127
2, 54700, Note_on_c, 4, 76, 127
2, 54792, Note_off_c, 4, 76, 127
2, 54792, Note_off_c, 11, 58, 127
2, 54794, Note_off_c, 1, 73, 127
2, 54794, Note_on_c, 12, 59, 127
2, 54794, Note_on_c, 3, 75, 127
2, 54886, Note_off_c, 3, 75, 127
2, 54888, Note_on_c, 1, 73, 127
2, 54980, Note_off_c, 1, 73, 127
2, 54980, Note_off_c, 12, 59, 127
2, 54982, Note_on_c, 12, 47, 127
2, 54982, Note_on_c, 3, 75, 127
2, 55170, Note_on_c, 0, 72, 127
2, 55262, Note_off_c, 0, 72, 127
2, 55264, Note_on_c, 12, 71, 127
2, 55356, Note_off_c, 12, 71, 127
2, 55356, Note_off_c, 12, 47, 127
2, 55358, Note_on_c, 4, 64, 127
2, 55358, Note_on_c, 10, 69, 127
2, 55450, Note_off_c, 10, 69, 127
2, 55452, Note_on_c, 8, 68, 127
2, 55544, Note_off_c, 8, 68, 127
2, 55544, Note_off_c, 4, 64, 127
2, 55545, Note_on_c, 3, 63, 127
2, 55545, Note_on_c, 10, 69, 127
2, 55732, Note_off_c, 10, 69, 127
2, 55732, Note_off_c, 3, 63, 127
2, 55734, Note_on_c, 4, 64, 127
2, 55734, Note_on_c, 0, 72, 127
2, 55921, Note_off_c, 0, 72, 127
2, 55921, Note_off_c, 4, 64, 127
2, 55923, Note_on_c, 6, 66, 127
2, 55923, Note_on_c, 8, 68, 127
2, 56110, Note_off_c, 8, 68, 127
2, 56110, Note_off_c, 6, 66, 127
2, 56110, Note_off_c, 3, 75, 127
2, 56112, Note_on_c, 12, 59, 127
2, 56112, Note_on_c, 10, 69, 127
2, 56112, Note_on_c, 6, 78, 127
2, 56299, Note_off_c, 10, 69, 127
2, 56301, Note_on_c, 0, 72, 127
2, 56393, Note_off_c, 0, 72, 127
2, 56395, Note_on_c, 12, 71, 127
2, 56486, Note_off_c, 12, 59, 127
2, 56487, Note_off_c, 12, 71, 127
2, 56488, Note_on_c, 4, 64, 127
2, 56488, Note_on_c, 10, 69, 127
2, 56580, Note_off_c, 10, 69, 127
2, 56582, Note_on_c, 8, 68, 127
2, 56674, Note_off_c, 8, 68, 127
2, 56674, Note_off_c, 4, 64, 127
2, 56676, Note_on_c, 3, 63, 127
2, 56676, Note_on_c, 10, 69, 127
2, 56863, Note_off_c, 10, 69, 127
2, 56865, Note_on_c, 12, 71, 127
2, 56957, Note_off_c, 12, 71, 127
2, 56958, Note_on_c, 10, 69, 127
2, 57050, Note_off_c, 10, 69, 127
2, 57050, Note_off_c, 3, 63, 127
2, 57052, Note_on_c, 12, 59, 127
2, 57052, Note_on_c, 7, 67, 127
2, 57144, Note_off_c, 7, 67, 127
2, 57146, Note_on_c, 6, 66, 127
2, 57238, Note_off_c, 6, 66, 127
2, 57238, Note_off_c, 12, 59, 127
2, 57238, Note_off_c, 6, 78, 127
2, 57239, Note_on_c, 4, 52, 127
2, 57239, Note_on_c, 7, 67, 127
2, 57331, Note_off_c, 4, 52, 127
2, 57333, Note_on_c, 7, 55, 127
2, 57333, Note_on_c, 12, 71, 127
2, 57425, Note_off_c, 12, 71, 127
2, 57425, Note_off_c, 7, 55, 127
2, 57427, Note_on_c, 10, 57, 127
2, 57427, Note_on_c, 1, 73, 127
2, 57519, Note_off_c, 1, 73, 127
2, 57519, Note_off_c, 10, 57, 127
2, 57521, Note_on_c, 12, 59, 127
2, 57521, Note_on_c, 3, 75, 127
2, 57613, Note_off_c, 3, 75, 127
2, 57613, Note_off_c, 12, 59, 127
2, 57614, Note_on_c, 1, 61, 127
2, 57614, Note_on_c, 4, 76, 127
2, 57706, Note_off_c, 4, 76, 127
2, 57706, Note_off_c, 1, 61, 127
2, 57708, Note_on_c, 3, 63, 127
2, 57708, Note_on_c, 6, 78, 127
2, 57794, Note_off_c, 7, 67, 127
2, 57798, Note_off_c, 6, 78, 127
2, 57798, Note_off_c, 3, 63, 127
2, 57800, Note_on_c, 4, 64, 127
2, 57800, Note_on_c, 7, 79, 127
2, 57894, Note_on_c, 6, 78, 127
2, 57986, Note_off_c, 6, 78, 127
2, 57986, Note_off_c, 4, 64, 127
2, 57988, Note_on_c, 7, 67, 127
2, 57988, Note_on_c, 4, 76, 127
2, 58078, Note_off_c, 7, 79, 127
2, 58080, Note_off_c, 4, 76, 127
2, 58081, Note_on_c, 2, 74, 127
2, 58173, Note_off_c, 2, 74, 127
2, 58174, Note_off_c, 7, 67, 127
2, 58175, Note_on_c, 4, 64, 127
2, 58175, Note_on_c, 1, 73, 127
2, 58267, Note_off_c, 1, 73, 127
2, 58269, Note_on_c, 12, 71, 127
2, 58361, Note_off_c, 12, 71, 127
2, 58361, Note_off_c, 4, 64, 127
2, 58363, Note_on_c, 1, 61, 127
2, 58363, Note_on_c, 4, 76, 127
2, 58456, Note_on_c, 2, 74, 127
2, 58548, Note_off_c, 2, 74, 127
2, 58549, Note_off_c, 4, 76, 127
2, 58549, Note_off_c, 1, 61, 127
2, 58550, Note_on_c, 4, 64, 127
2, 58550, Note_on_c, 1, 73, 127
2, 58642, Note_off_c, 1, 73, 127
2, 58644, Note_on_c, 12, 71, 127
2, 58736, Note_off_c, 12, 71, 127
2, 58736, Note_off_c, 4, 64, 127
2, 58738, Note_on_c, 1, 61, 127
2, 58738, Note_on_c, 10, 69, 127
2, 58830, Note_off_c, 10, 69, 127
2, 58831, Note_on_c, 8, 68, 127
2, 58923, Note_off_c, 8, 68, 127
2, 58924, Note_off_c, 1, 61, 127
2, 58925, Note_on_c, 10, 57, 127
2, 58925, Note_on_c, 1, 73, 127
2, 59019, Note_on_c, 12, 71, 127
2, 59111, Note_off_c, 12, 71, 127
2, 59111, Note_off_c, 1, 73, 127
2, 59111, Note_off_c, 10, 57, 127
2, 59112, Note_on_c, 1, 61, 127
2, 59112, Note_on_c, 10, 69, 127
2, 59204, Note_off_c, 10, 69, 127
2, 59206, Note_on_c, 7, 67, 127
2, 59298, Note_off_c, 7, 67, 127
2, 59298, Note_off_c, 1, 61, 127
2, 59300, Note_on_c, 10, 57, 127
2, 59300, Note_on_c, 6, 66, 127
2, 59392, Note_off_c, 6, 66, 127
2, 59394, Note_on_c, 4, 64, 127
2, 59486, Note_off_c, 4, 64, 127
2, 59486, Note_off_c, 10, 57, 127
2, 59487, Note_on_c, 2, 50, 127
2, 59487, Note_on_c, 6, 66, 127
2, 59579, Note_off_c, 6, 66, 127
2, 59579, Note_off_c, 2, 50, 127
2, 59581, Note_on_c, 6, 54, 127
2, 59581, Note_on_c, 10, 69, 127
2, 59673, Note_off_c, 10, 69, 127
2, 59673, Note_off_c, 6, 54, 127
2, 59675, Note_on_c, 7, 55, 127
2, 59675, Note_on_c, 12, 71, 127
2, 59767, Note_off_c, 12, 71, 127
2, 59767, Note_off_c, 7, 55, 127
2, 59768, Note_on_c, 10, 57, 127
2, 59768, Note_on_c, 1, 73, 127
2, 59860, Note_off_c, 1, 73, 127
2, 59860, Note_off_c, 10, 57, 127
2, 59862, Note_on_c, 12, 59, 127
2, 59862, Note_on_c, 2, 74, 127
2, 59954, Note_off_c, 2, 74, 127
2, 59954, Note_off_c, 12, 59, 127
2, 59956, Note_on_c, 1, 61, 127
2, 59956, Note_on_c, 4, 76, 127
2, 60048, Note_off_c, 4, 76, 127
2, 60048, Note_off_c, 1, 61, 127
2, 60050, Note_on_c, 2, 62, 127
2, 60050, Note_on_c, 6, 78, 127
2, 60143, Note_on_c, 4, 76, 127
2, 60235, Note_off_c, 4, 76, 127
2, 60237, Note_on_c, 2, 74, 127
2, 60328, Note_off_c, 6, 78, 127
2, 60329, Note_off_c, 2, 74, 127
2, 60331, Note_on_c, 1, 73, 127
2, 60423, Note_off_c, 1, 73, 127
2, 60424, Note_on_c, 12, 71, 127
2, 60516, Note_off_c, 12, 71, 127
2, 60518, Note_on_c, 10, 69, 127
2, 60610, Note_off_c, 10, 69, 127
2, 60612, Note_on_c, 8, 68, 127
2, 60706, Note_on_c, 12, 71, 127
2, 60798, Note_off_c, 12, 71, 127
2, 60798, Note_off_c, 2, 62, 127
2, 60799, Note_on_c, 1, 61, 127
2, 60799, Note_on_c, 4, 76, 127
2, 60891, Note_off_c, 4, 76, 127
2, 60893, Note_on_c, 3, 75, 127
2, 60985, Note_off_c, 3, 75, 127
2, 60985, Note_off_c, 1, 61, 127
2, 60987, Note_on_c, 12, 59, 127
2, 60987, Note_on_c, 4, 76, 127
2, 61080, Note_off_c, 8, 68, 127
2, 61081, Note_on_c, 7, 67, 127
2, 61173, Note_off_c, 7, 67, 127
2, 61173, Note_off_c, 12, 59, 127
2, 61174, Note_on_c, 11, 58, 127
2, 61174, Note_on_c, 6, 66, 127
2, 61266, Note_off_c, 6, 66, 127
2, 61266, Note_off_c, 11, 58, 127
2, 61268, Note_on_c, 1, 61, 127
2, 61268, Note_on_c, 11, 70, 127
2, 61360, Note_off_c, 11, 70, 127
2, 61360, Note_off_c, 1, 61, 127
2, 61362, Note_on_c, 12, 59, 127
2, 61362, Note_on_c, 1, 73, 127
2, 61454, Note_off_c, 1, 73, 127
2, 61454, Note_off_c, 12, 59, 127
2, 61455, Note_off_c, 4, 76, 127
2, 61455, Note_on_c, 11, 58, 127
2, 61455, Note_on_c, 2, 74, 127
2, 61547, Note_off_c, 2, 74, 127
2, 61547, Note_off_c, 11, 58, 127
2, 61549, Note_on_c, 8, 56, 127
2, 61549, Note_on_c, 4, 76, 127
2, 61641, Note_off_c, 8, 56, 127
2, 61643, Note_on_c, 6, 54, 127
2, 61735, Note_off_c, 6, 54, 127
2, 61737, Note_on_c, 12, 59, 127
2, 61828, Note_off_c, 4, 76, 127
2, 61830, Note_on_c, 6, 66, 127
2, 61922, Note_off_c, 6, 66, 127
2, 61923, Note_off_c, 12, 59, 127
2, 61924, Note_on_c, 6, 54, 127
2, 61924, Note_on_c, 8, 68, 127
2, 62016, Note_off_c, 8, 68, 127
2, 62018, Note_on_c, 11, 70, 127
2, 62110, Note_off_c, 11, 70, 127
2, 62110, Note_off_c, 6, 54, 127
2, 62111, Note_on_c, 2, 50, 127
2, 62111, Note_on_c, 12, 71, 127
2, 62203, Note_off_c, 12, 71, 127
2, 62205, Note_on_c, 1, 73, 127
2, 62297, Note_off_c, 1, 73, 127
2, 62297, Note_off_c, 2, 50, 127
2, 62299, Note_on_c, 12, 47, 127
2, 62299, Note_on_c, 2, 74, 127
2, 62393, Note_on_c, 1, 73, 127
2, 62485, Note_off_c, 1, 73, 127
2, 62485, Note_off_c, 12, 47, 127
2, 62486, Note_on_c, 1, 49, 127
2, 62486, Note_on_c, 12, 71, 127
2, 62577, Note_off_c, 2, 74, 127
2, 62578, Note_off_c, 12, 71, 127
2, 62578, Note_off_c, 1, 49, 127
2, 62580, Note_on_c, 2, 50, 127
2, 62580, Note_on_c, 10, 69, 127
2, 62672, Note_off_c, 10, 69, 127
2, 62672, Note_off_c, 2, 50, 127
2, 62674, Note_on_c, 4, 52, 127
2, 62674, Note_on_c, 7, 67, 127
2, 62766, Note_off_c, 7, 67, 127
2, 62766, Note_off_c, 4, 52, 127
2, 62767, Note_on_c, 6, 54, 127
2, 62767, Note_on_c, 6, 66, 127
2, 62859, Note_off_c, 6, 66, 127
2, 62859, Note_off_c, 6, 54, 127
2, 62861, Note_on_c, 7, 55, 127
2, 62861, Note_on_c, 12, 71, 127
2, 62953, Note_off_c, 7, 55, 127
2, 62955, Note_on_c, 10, 57, 127
2, 62955, Note_on_c, 10, 69, 127
2, 63035, Note_off_c, 12, 71, 127
2, 63045, Note_off_c, 10, 69, 127
2, 63045, Note_off_c, 10, 57, 127
2, 63047, Note_on_c, 12, 59, 127
2, 63047, Note_on_c, 7, 67, 127
2, 63139, Note_off_c, 7, 67, 127
2, 63139, Note_off_c, 12, 59, 127
2, 63141, Note_on_c, 10, 57, 127
2, 63141, Note_on_c, 6, 66, 127
2, 63233, Note_off_c, 6, 66, 127
2, 63233, Note_off_c, 10, 57, 127
2, 63235, Note_on_c, 7, 55, 127
2, 63235, Note_on_c, 4, 64, 127
2, 63327, Note_off_c, 4, 64, 127
2, 63327, Note_off_c, 7, 55, 127
2, 63328, Note_on_c, 6, 54, 127
2, 63328, Note_on_c, 2, 62, 127
2, 63420, Note_off_c, 2, 62, 127
2, 63420, Note_off_c, 6, 54, 127
2, 63422, Note_on_c, 4, 52, 127
2, 63422, Note_on_c, 7, 67, 127
2, 63514, Note_off_c, 4, 52, 127
2, 63516, Note_on_c, 6, 54, 127
2, 63516, Note_on_c, 6, 66, 127
2, 63596, Note_off_c, 7, 67, 127
2, 63606, Note_off_c, 6, 66, 127
2, 63606, Note_off_c, 6, 54, 127
2, 63608, Note_on_c, 7, 55, 127
2, 63608, Note_on_c, 4, 64, 127
2, 63700, Note_off_c, 4, 64, 127
2, 63700, Note_off_c, 7, 55, 127
2, 63702, Note_on_c, 6, 54, 127
2, 63702, Note_on_c, 2, 62, 127
2, 63794, Note_off_c, 2, 62, 127
2, 63794, Note_off_c, 6, 54, 127
2, 63796, Note_on_c, 7, 55, 127
2, 63796, Note_on_c, 1, 61, 127
2, 63888, Note_off_c, 1, 61, 127
2, 63888, Note_off_c, 7, 55, 127
2, 63889, Note_on_c, 4, 52, 127
2, 63889, Note_on_c, 4, 64, 127
2, 63981, Note_off_c, 4, 64, 127
2, 63981, Note_off_c, 4, 52, 127
2, 63983, Note_on_c, 6, 54, 127
2, 63983, Note_on_c, 11, 58, 127
2, 64169, Note_on_c, 7, 79, 127
2, 64261, Note_off_c, 7, 79, 127
2, 64263, Note_on_c, 6, 78, 127
2, 64355, Note_off_c, 6, 78, 127
2, 64355, Note_off_c, 11, 58, 127
2, 64355, Note_off_c, 6, 54, 127
2, 64356, Note_on_c, 6, 42, 127
2, 64356, Note_on_c, 4, 76, 127
2, 64448, Note_off_c, 4, 76, 127
2, 64450, Note_on_c, 2, 74, 127
2, 64542, Note_off_c, 2, 74, 127
2, 64542, Note_off_c, 6, 42, 127
2, 64544, Note_on_c, 6, 42, 127
2, 64544, Note_on_c, 1, 73, 127
2, 64544, Note_on_c, 11, 70, 127
2, 64728, Note_off_c, 1, 73, 127
2, 64730, Note_on_c, 4, 76, 127
2, 64914, Note_off_c, 4, 76, 127
2, 64916, Note_on_c, 1, 73, 127
2, 65008, Note_off_c, 6, 42, 127
2, 65010, Note_on_c, 6, 42, 127
2, 65096, Note_off_c, 11, 70, 127
2, 65100, Note_off_c, 6, 42, 127
2, 65100, Note_off_c, 1, 73, 127
2, 65102, Note_on_c, 6, 42, 127
2, 65102, Note_on_c, 11, 70, 127
2, 65102, Note_on_c, 4, 64, 127
2, 65286, Note_off_c, 11, 70, 127
2, 65288, Note_on_c, 1, 73, 127
2, 65472, Note_off_c, 1, 73, 127
2, 65474, Note_on_c, 11, 70, 127
2, 65654, Note_off_c, 4, 64, 127
2, 65658, Note_off_c, 11, 70, 127
2, 65660, Note_on_c, 1, 61, 127
2, 65660, Note_on_c, 4, 64, 127
2, 65844, Note_off_c, 4, 64, 127
2, 65846, Note_on_c, 11, 70, 127
2, 65938, Note_off_c, 6, 42, 127
2, 65940, Note_on_c, 1, 49, 127
2, 66032, Note_off_c, 1, 49, 127
2, 66032, Note_off_c, 11, 70, 127
2, 66032, Note_off_c, 1, 61, 127
2, 66033, Note_on_c, 2, 50, 127
2, 66033, Note_on_c, 1, 61, 127
2, 66033, Note_on_c, 4, 64, 127
2, 66125, Note_off_c, 2, 50, 127
2, 66127, Note_on_c, 4, 52, 127
2, 66219, Note_off_c, 4, 52, 127
2, 66219, Note_off_c, 4, 64, 127
2, 66219, Note_off_c, 1, 61, 127
2, 66221, Note_on_c, 6, 54, 127
2, 66221, Note_on_c, 2, 62, 127
2, 66405, Note_off_c, 2, 62, 127
2, 66407, Note_on_c, 12, 59, 127
2, 66499, Note_off_c, 12, 59, 127
2, 66501, Note_on_c, 1, 61, 127
2, 66593, Note_off_c, 1, 61, 127
2, 66593, Note_off_c, 6, 54, 127
2, 66594, Note_on_c, 6, 42, 127
2, 66594, Note_on_c, 2, 62, 127
2, 66686, Note_off_c, 2, 62, 127
2, 66688, Note_on_c, 4, 64, 127
2, 66780, Note_off_c, 4, 64, 127
2, 66780, Note_off_c, 6, 42, 127
2, 66782, Note_on_c, 6, 42, 127
2, 66782, Note_on_c, 12, 71, 127
2, 66782, Note_on_c, 6, 66, 127
2, 66966, Note_off_c, 6, 66, 127
2, 66968, Note_on_c, 2, 62, 127
2, 67152, Note_off_c, 2, 62, 127
2, 67154, Note_on_c, 6, 66, 127
2, 67246, Note_off_c, 6, 42, 127
2, 67248, Note_on_c, 6, 42, 127
2, 67334, Note_off_c, 12, 71, 127
2, 67338, Note_off_c, 6, 42, 127
2, 67338, Note_off_c, 6, 66, 127
2, 67340, Note_on_c, 6, 42, 127
2, 67340, Note_on_c, 12, 71, 127
2, 67340, Note_on_c, 2, 74, 127
2, 67524, Note_off_c, 12, 71, 127
2, 67526, Note_on_c, 6, 66, 127
2, 67710, Note_off_c, 6, 66, 127
2, 67712, Note_on_c, 12, 71, 127
2, 67892, Note_off_c, 2, 74, 127
2, 67896, Note_off_c, 12, 71, 127
2, 67898, Note_on_c, 5, 77, 127
2, 67898, Note_on_c, 2, 74, 127
2, 68082, Note_off_c, 2, 74, 127
2, 68084, Note_on_c, 12, 71, 127
2, 68268, Note_off_c, 12, 71, 127
2, 68270, Note_on_c, 2, 74, 127
2, 68450, Note_off_c, 5, 77, 127
2, 68454, Note_off_c, 2, 74, 127
2, 68454, Note_off_c, 6, 42, 127
2, 68456, Note_on_c, 6, 78, 127
2, 68456, Note_on_c, 1, 73, 127
2, 68640, Note_off_c, 1, 73, 127
2, 68642, Note_on_c, 11, 70, 127
2, 68736, Note_on_c, 2, 50, 127
2, 68828, Note_off_c, 2, 50, 127
2, 68828, Note_off_c, 11, 70, 127
2, 68828, Note_off_c, 6, 78, 127
2, 68829, Note_on_c, 4, 52, 127
2, 68829, Note_on_c, 1, 73, 127
2, 68829, Note_on_c, 4, 76, 127
2, 68921, Note_off_c, 4, 52, 127
2, 68923, Note_on_c, 6, 54, 127
2, 69015, Note_off_c, 6, 54, 127
2, 69015, Note_off_c, 4, 76, 127
2, 69015, Note_off_c, 1, 73, 127
2, 69017, Note_on_c, 7, 55, 127
2, 69017, Note_on_c, 12, 71, 127
2, 69017, Note_on_c, 2, 74, 127
2, 69201, Note_off_c, 7, 55, 127
2, 69203, Note_on_c, 6, 54, 127
2, 69387, Note_off_c, 6, 54, 127
2, 69387, Note_off_c, 2, 74, 127
2, 69389, Note_on_c, 4, 52, 127
2, 69389, Note_on_c, 7, 79, 127
2, 69569, Note_off_c, 12, 71, 127
2, 69573, Note_off_c, 7, 79, 127
2, 69573, Note_off_c, 4, 52, 127
2, 69575, Note_on_c, 6, 54, 127
2, 69575, Note_on_c, 2, 74, 127
2, 69575, Note_on_c, 12, 71, 127
2, 70131, Note_off_c, 12, 71, 127
2, 70131, Note_off_c, 2, 74, 127
2, 70131, Note_off_c, 6, 54, 127
2, 70133, Note_on_c, 6, 42, 127
2, 70133, Note_on_c, 2, 74, 127
2, 70133, Note_on_c, 11, 70, 127
2, 70225, Note_off_c, 2, 74, 127
2, 70227, Note_on_c, 1, 73, 127
2, 70319, Note_off_c, 1, 73, 127
2, 70320, Note_on_c, 2, 74, 127
2, 70412, Note_off_c, 2, 74, 127
2, 70414, Note_on_c, 1, 73, 127
2, 70506, Note_off_c, 1, 73, 127
2, 70508, Note_on_c, 12, 71, 127
2, 70600, Note_off_c, 12, 71, 127
2, 70602, Note_on_c, 1, 73, 127
2, 70688, Note_off_c, 11, 70, 127
2, 70692, Note_off_c, 1, 73, 127
2, 70692, Note_off_c, 6, 42, 127
2, 70694, Note_on_c, 12, 47, 127
2, 70694, Note_on_c, 12, 71, 127
2, 70878, Note_off_c, 12, 71, 127
2, 70880, Note_on_c, 2, 74, 127
2, 70972, Note_off_c, 2, 74, 127
2, 70974, Note_on_c, 1, 73, 127
2, 71066, Note_off_c, 1, 73, 127
2, 71066, Note_off_c, 12, 47, 127
2, 71067, Note_on_c, 6, 54, 127
2, 71067, Note_on_c, 12, 71, 127
2, 71159, Note_off_c, 12, 71, 127
2, 71161, Note_on_c, 10, 69, 127
2, 71253, Note_off_c, 10, 69, 127
2, 71253, Note_off_c, 6, 54, 127
2, 71255, Note_on_c, 12, 59, 127
2, 71255, Note_on_c, 7, 67, 127
2, 71347, Note_off_c, 12, 59, 127
2, 71349, Note_on_c, 10, 57, 127
2, 71441, Note_off_c, 10, 57, 127
2, 71441, Note_off_c, 7, 67, 127
2, 71442, Note_on_c, 12, 59, 127
2, 71442, Note_on_c, 12, 71, 127
2, 71534, Note_off_c, 12, 71, 127
2, 71536, Note_on_c, 10, 69, 127
2, 71628, Note_off_c, 10, 69, 127
2, 71630, Note_on_c, 7, 67, 127
2, 71722, Note_off_c, 7, 67, 127
2, 71723, Note_on_c, 6, 66, 127
2, 71815, Note_off_c, 6, 66, 127
2, 71817, Note_on_c, 4, 64, 127
2, 72001, Note_off_c, 12, 59, 127
2, 72003, Note_on_c, 0, 60, 127
2, 72003, Note_on_c, 7, 67, 127
2, 72095, Note_off_c, 0, 60, 127
2, 72097, Note_on_c, 12, 59, 127
2, 72189, Note_off_c, 12, 59, 127
2, 72189, Note_off_c, 7, 67, 127
2, 72189, Note_off_c, 4, 64, 127
2, 72191, Note_on_c, 10, 57, 127
2, 72191, Note_on_c, 0, 72, 127
2, 72283, Note_off_c, 10, 57, 127
2, 72284, Note_on_c, 7, 55, 127
2, 72376, Note_off_c, 7, 55, 127
2, 72377, Note_off_c, 0, 72, 127
2, 72378, Note_on_c, 6, 54, 127
2, 72378, Note_on_c, 0, 72, 127
2, 72562, Note_off_c, 6, 54, 127
2, 72564, Note_on_c, 7, 55, 127
2, 72564, Note_on_c, 10, 69, 127
2, 72656, Note_off_c, 7, 55, 127
2, 72658, Note_on_c, 6, 54, 127
2, 72750, Note_off_c, 6, 54, 127
2, 72750, Note_off_c, 10, 69, 127
2, 72752, Note_on_c, 4, 52, 127
2, 72752, Note_on_c, 6, 66, 127
2, 72844, Note_off_c, 4, 52, 127
2, 72845, Note_on_c, 2, 50, 127
2, 72937, Note_off_c, 2, 50, 127
2, 72938, Note_off_c, 6, 66, 127
2, 72939, Note_on_c, 7, 55, 127
2, 72939, Note_on_c, 2, 62, 127
2, 73031, Note_off_c, 7, 55, 127
2, 73033, Note_on_c, 10, 57, 127
2, 73124, Note_off_c, 0, 72, 127
2, 73125, Note_off_c, 10, 57, 127
2, 73126, Note_on_c, 12, 59, 127
2, 73126, Note_on_c, 7, 67, 127
2, 73218, Note_off_c, 12, 59, 127
2, 73220, Note_on_c, 7, 55, 127
2, 73312, Note_off_c, 7, 55, 127
2, 73312, Note_off_c, 7, 67, 127
2, 73314, Note_on_c, 6, 54, 127
2, 73314, Note_on_c, 12, 71, 127
2, 73406, Note_off_c, 6, 54, 127
2, 73408, Note_on_c, 7, 55, 127
2, 73494, Note_off_c, 2, 62, 127
2, 73498, Note_off_c, 7, 55, 127
2, 73498, Note_off_c, 12, 71, 127
2, 73500, Note_on_c, 1, 49, 127
2, 73500, Note_on_c, 12, 71, 127
2, 73594, Note_on_c, 10, 69, 127
2, 73686, Note_off_c, 10, 69, 127
2, 73686, Note_off_c, 1, 49, 127
2, 73687, Note_on_c, 4, 52, 127
2, 73687, Note_on_c, 7, 67, 127
2, 73762, Note_off_c, 12, 71, 127
2, 73777, Note_off_c, 7, 67, 127
2, 73780, Note_on_c, 6, 66, 127
2, 73871, Note_off_c, 4, 52, 127
2, 73872, Note_off_c, 6, 66, 127
2, 73873, Note_on_c, 1, 49, 127
2, 73873, Note_on_c, 4, 64, 127
2, 73965, Note_off_c, 4, 64, 127
2, 73967, Note_on_c, 2, 62, 127
2, 74059, Note_off_c, 2, 62, 127
2, 74059, Note_off_c, 1, 49, 127
2, 74061, Note_on_c, 6, 54, 127
2, 74061, Note_on_c, 1, 61, 127
2, 74153, Note_off_c, 6, 54, 127
2, 74154, Note_on_c, 7, 55, 127
2, 74246, Note_off_c, 7, 55, 127
2, 74247, Note_off_c, 1, 61, 127
2, 74248, Note_on_c, 10, 57, 127
2, 74248, Note_on_c, 6, 66, 127
2, 74340, Note_off_c, 10, 57, 127
2, 74342, Note_on_c, 6, 54, 127
2, 74434, Note_off_c, 6, 54, 127
2, 74434, Note_off_c, 6, 66, 127
2, 74436, Note_on_c, 4, 52, 127
2, 74436, Note_on_c, 10, 69, 127
2, 74528, Note_off_c, 4, 52, 127
2, 74529, Note_on_c, 6, 54, 127
2, 74621, Note_off_c, 6, 54, 127
2, 74622, Note_off_c, 10, 69, 127
2, 74623, Note_on_c, 12, 47, 127
2, 74623, Note_on_c, 10, 69, 127
2, 74717, Note_on_c, 7, 67, 127
2, 74809, Note_off_c, 7, 67, 127
2, 74809, Note_off_c, 12, 47, 127
2, 74811, Note_on_c, 2, 50, 127
2, 74811, Note_on_c, 6, 66, 127
2, 74885, Note_off_c, 10, 69, 127
2, 74901, Note_off_c, 6, 66, 127
2, 74903, Note_on_c, 4, 64, 127
2, 74995, Note_off_c, 4, 64, 127
2, 74995, Note_off_c, 2, 50, 127
2, 74997, Note_on_c, 12, 47, 127
2, 74997, Note_on_c, 2, 62, 127
2, 75089, Note_off_c, 2, 62, 127
2, 75090, Note_on_c, 1, 61, 127
2, 75182, Note_off_c, 1, 61, 127
2, 75183, Note_off_c, 12, 47, 127
2, 75184, Note_on_c, 4, 52, 127
2, 75184, Note_on_c, 12, 59, 127
2, 75276, Note_off_c, 4, 52, 127
2, 75278, Note_on_c, 6, 54, 127
2, 75370, Note_off_c, 6, 54, 127
2, 75370, Note_off_c, 12, 59, 127
2, 75371, Note_on_c, 7, 55, 127
2, 75371, Note_on_c, 4, 64, 127
2, 75463, Note_off_c, 7, 55, 127
2, 75465, Note_on_c, 4, 52, 127
2, 75557, Note_off_c, 4, 52, 127
2, 75557, Note_off_c, 4, 64, 127
2, 75559, Note_on_c, 2, 50, 127
2, 75559, Note_on_c, 7, 67, 127
2, 75651, Note_off_c, 2, 50, 127
2, 75653, Note_on_c, 4, 52, 127
2, 75745, Note_off_c, 4, 52, 127
2, 75745, Note_off_c, 7, 67, 127
2, 75746, Note_on_c, 10, 45, 127
2, 75746, Note_on_c, 7, 67, 127
2, 75840, Note_on_c, 6, 66, 127
2, 75932, Note_off_c, 6, 66, 127
2, 75932, Note_off_c, 10, 45, 127
2, 75934, Note_on_c, 1, 49, 127
2, 75934, Note_on_c, 4, 64, 127
2, 76026, Note_off_c, 4, 64, 127
2, 76027, Note_on_c, 2, 62, 127
2, 76119, Note_off_c, 2, 62, 127
2, 76120, Note_off_c, 1, 49, 127
2, 76121, Note_on_c, 10, 45, 127
2, 76121, Note_on_c, 1, 61, 127
2, 76213, Note_off_c, 1, 61, 127
2, 76215, Note_on_c, 12, 59, 127
2, 76301, Note_off_c, 7, 67, 127
2, 76305, Note_off_c, 12, 59, 127
2, 76305, Note_off_c, 10, 45, 127
2, 76307, Note_on_c, 2, 50, 127
2, 76307, Note_on_c, 10, 57, 127
2, 76399, Note_off_c, 2, 50, 127
2, 76401, Note_on_c, 4, 52, 127
2, 76493, Note_off_c, 4, 52, 127
2, 76493, Note_off_c, 10, 57, 127
2, 76495, Note_on_c, 6, 54, 127
2, 76495, Note_on_c, 2, 62, 127
2, 76587, Note_off_c, 6, 54, 127
2, 76588, Note_on_c, 2, 50, 127
2, 76680, Note_off_c, 2, 50, 127
2, 76682, Note_on_c, 0, 48, 127
2, 76682, Note_on_c, 6, 66, 127
2, 76774, Note_off_c, 0, 48, 127
2, 76776, Note_on_c, 2, 50, 127
2, 76868, Note_off_c, 2, 50, 127
2, 76868, Note_off_c, 2, 62, 127
2, 76870, Note_on_c, 12, 47, 127
2, 76870, Note_on_c, 2, 62, 127
2, 76962, Note_off_c, 12, 47, 127
2, 76963, Note_on_c, 0, 48, 127
2, 77055, Note_off_c, 0, 48, 127
2, 77055, Note_off_c, 6, 66, 127
2, 77057, Note_on_c, 2, 50, 127
2, 77057, Note_on_c, 6, 66, 127
2, 77149, Note_off_c, 2, 50, 127
2, 77151, Note_on_c, 12, 47, 127
2, 77243, Note_off_c, 12, 47, 127
2, 77243, Note_off_c, 6, 66, 127
2, 77244, Note_on_c, 10, 45, 127
2, 77244, Note_on_c, 0, 72, 127
2, 77336, Note_off_c, 10, 45, 127
2, 77338, Note_on_c, 12, 47, 127
2, 77425, Note_off_c, 2, 62, 127
2, 77428, Note_off_c, 12, 47, 127
2, 77430, Note_on_c, 7, 43, 127
2, 77430, Note_on_c, 2, 62, 127
2, 77522, Note_off_c, 7, 43, 127
2, 77524, Note_on_c, 10, 45, 127
2, 77616, Note_off_c, 10, 45, 127
2, 77618, Note_on_c, 12, 47, 127
2, 77618, Note_on_c, 7, 67, 127
2, 77710, Note_off_c, 7, 67, 127
2, 77710, Note_off_c, 12, 47, 127
2, 77712, Note_on_c, 10, 45, 127
2, 77712, Note_on_c, 6, 66, 127
2, 77803, Note_off_c, 2, 62, 127
2, 77804, Note_off_c, 6, 66, 127
2, 77804, Note_off_c, 10, 45, 127
2, 77805, Note_on_c, 7, 43, 127
2, 77805, Note_on_c, 4, 64, 127
2, 77897, Note_off_c, 4, 64, 127
2, 77897, Note_off_c, 7, 43, 127
2, 77899, Note_on_c, 6, 42, 127
2, 77899, Note_on_c, 2, 62, 127
2, 77991, Note_off_c, 2, 62, 127
2, 77991, Note_off_c, 6, 42, 127
2, 77992, Note_off_c, 0, 72, 127
2, 77993, Note_on_c, 4, 40, 127
2, 77993, Note_on_c, 7, 67, 127
2, 78085, Note_off_c, 4, 40, 127
2, 78086, Note_on_c, 6, 42, 127
2, 78178, Note_off_c, 6, 42, 127
2, 78179, Note_off_c, 7, 67, 127
2, 78180, Note_on_c, 7, 43, 127
2, 78180, Note_on_c, 1, 73, 127
2, 78180, Note_on_c, 4, 64, 127
2, 78272, Note_off_c, 7, 43, 127
2, 78274, Note_on_c, 6, 42, 127
2, 78366, Note_off_c, 6, 42, 127
2, 78366, Note_off_c, 4, 64, 127
2, 78366, Note_off_c, 1, 73, 127
2, 78368, Note_on_c, 4, 40, 127
2, 78368, Note_on_c, 2, 74, 127
2, 78368, Note_on_c, 6, 66, 127
2, 78460, Note_off_c, 4, 40, 127
2, 78461, Note_on_c, 2, 38, 127
2, 78553, Note_off_c, 2, 38, 127
2, 78555, Note_on_c, 10, 45, 127
2, 78740, Note_off_c, 6, 66, 127
2, 78740, Note_off_c, 2, 74, 127
2, 78741, Note_on_c, 2, 62, 127
2, 78741, Note_on_c, 12, 71, 127
2, 78925, Note_off_c, 12, 71, 127
2, 78925, Note_off_c, 2, 62, 127
2, 78927, Note_on_c, 4, 64, 127
2, 78927, Note_on_c, 1, 73, 127
2, 79111, Note_off_c, 1, 73, 127
2, 79111, Note_off_c, 4, 64, 127
2, 79113, Note_on_c, 4, 76, 127
2, 79113, Note_on_c, 7, 67, 127
2, 79151, Note_off_c, 10, 45, 127
2, 79207, Note_on_c, 8, 44, 127
2, 79299, Note_off_c, 8, 44, 127
2, 79301, Note_on_c, 11, 46, 127
2, 79393, Note_off_c, 11, 46, 127
2, 79394, Note_on_c, 12, 47, 127
2, 79486, Note_off_c, 12, 47, 127
2, 79488, Note_on_c, 1, 49, 127
2, 79580, Note_off_c, 1, 49, 127
2, 79582, Note_on_c, 11, 46, 127
2, 79674, Note_off_c, 11, 46, 127
2, 79675, Note_on_c, 12, 47, 127
2, 79859, Note_off_c, 7, 67, 127
2, 79859, Note_off_c, 4, 76, 127
2, 79861, Note_on_c, 4, 64, 127
2, 79861, Note_on_c, 1, 73, 127
2, 80045, Note_off_c, 1, 73, 127
2, 80045, Note_off_c, 4, 64, 127
2, 80047, Note_on_c, 6, 66, 127
2, 80047, Note_on_c, 2, 74, 127
2, 80231, Note_off_c, 2, 74, 127
2, 80231, Note_off_c, 6, 66, 127
2, 80233, Note_on_c, 7, 79, 127
2, 80233, Note_on_c, 12, 71, 127
2, 80271, Note_off_c, 12, 47, 127
2, 80327, Note_on_c, 10, 45, 127
2, 80419, Note_off_c, 10, 45, 127
2, 80421, Note_on_c, 12, 47, 127
2, 80513, Note_off_c, 12, 47, 127
2, 80515, Note_on_c, 2, 50, 127
2, 80607, Note_off_c, 2, 50, 127
2, 80608, Note_on_c, 1, 49, 127
2, 80700, Note_off_c, 1, 49, 127
2, 80702, Note_on_c, 4, 52, 127
2, 80794, Note_off_c, 4, 52, 127
2, 80796, Note_on_c, 2, 50, 127
2, 80979, Note_off_c, 12, 71, 127
2, 80979, Note_off_c, 7, 79, 127
2, 80982, Note_on_c, 6, 78, 127
2, 80982, Note_on_c, 10, 69, 127
2, 81166, Note_off_c, 10, 69, 127
2, 81166, Note_off_c, 6, 78, 127
2, 81168, Note_on_c, 7, 67, 127
2, 81168, Note_on_c, 4, 76, 127
2, 81352, Note_off_c, 4, 76, 127
2, 81352, Note_off_c, 7, 67, 127
2, 81354, Note_on_c, 10, 69, 127
2, 81354, Note_on_c, 6, 78, 127
2, 81420, Note_off_c, 2, 50, 127
2, 81446, Note_on_c, 4, 52, 127
2, 81538, Note_off_c, 4, 52, 127
2, 81540, Note_on_c, 2, 50, 127
2, 81632, Note_off_c, 2, 50, 127
2, 81634, Note_on_c, 0, 48, 127
2, 81726, Note_off_c, 0, 48, 127
2, 81727, Note_on_c, 12, 47, 127
2, 81819, Note_off_c, 12, 47, 127
2, 81821, Note_on_c, 10, 45, 127
2, 81913, Note_off_c, 10, 45, 127
2, 81915, Note_on_c, 7, 43, 127
2, 82007, Note_off_c, 7, 43, 127
2, 82008, Note_on_c, 2, 50, 127
2, 82100, Note_off_c, 2, 50, 127
2, 82100, Note_off_c, 6, 78, 127
2, 82100, Note_off_c, 10, 69, 127
2, 82102, Note_on_c, 4, 52, 127
2, 82102, Note_on_c, 4, 76, 127
2, 82102, Note_on_c, 7, 67, 127
2, 82194, Note_off_c, 4, 52, 127
2, 82196, Note_on_c, 6, 54, 127
2, 82288, Note_off_c, 6, 54, 127
2, 82288, Note_off_c, 7, 67, 127
2, 82288, Note_off_c, 4, 76, 127
2, 82290, Note_on_c, 7, 55, 127
2, 82290, Note_on_c, 6, 66, 127
2, 82290, Note_on_c, 2, 74, 127
2, 82382, Note_off_c, 7, 55, 127
2, 82383, Note_on_c, 10, 57, 127
2, 82475, Note_off_c, 10, 57, 127
2, 82476, Note_off_c, 2, 74, 127
2, 82476, Note_off_c, 6, 66, 127
2, 82477, Note_on_c, 11, 58, 127
2, 82477, Note_on_c, 4, 76, 127
2, 82477, Note_on_c, 7, 67, 127
2, 82661, Note_off_c, 7, 67, 127
2, 82661, Note_off_c, 4, 76, 127
2, 82663, Note_on_c, 4, 64, 127
2, 82663, Note_on_c, 1, 73, 127
2, 82847, Note_off_c, 1, 73, 127
2, 82847, Note_off_c, 4, 64, 127
2, 82849, Note_on_c, 2, 74, 127
2, 82849, Note_on_c, 6, 66, 127
2, 83033, Note_off_c, 6, 66, 127
2, 83033, Note_off_c, 2, 74, 127
2, 83035, Note_on_c, 4, 64, 127
2, 83035, Note_on_c, 2, 74, 127
2, 83103, Note_off_c, 2, 74, 127
2, 83105, Note_on_c, 1, 73, 127
2, 83125, Note_off_c, 11, 58, 127
2, 83127, Note_on_c, 10, 57, 127
2, 83173, Note_off_c, 1, 73, 127
2, 83174, Note_on_c, 2, 74, 127
2, 83219, Note_off_c, 10, 57, 127
2, 83221, Note_on_c, 11, 58, 127
2, 83242, Note_off_c, 2, 74, 127
2, 83244, Note_on_c, 1, 73, 127
2, 83311, Note_off_c, 11, 58, 127
2, 83313, Note_on_c, 7, 55, 127
2, 83405, Note_off_c, 7, 55, 127
2, 83407, Note_on_c, 4, 52, 127
2, 83499, Note_off_c, 4, 52, 127
2, 83501, Note_on_c, 7, 55, 127
2, 83587, Note_off_c, 4, 64, 127
2, 83591, Note_off_c, 7, 55, 127
2, 83591, Note_off_c, 1, 73, 127
2, 83593, Note_on_c, 10, 57, 127
2, 83593, Note_on_c, 5, 65, 127
2, 83685, Note_off_c, 5, 65, 127
2, 83685, Note_off_c, 10, 57, 127
2, 83687, Note_on_c, 7, 55, 127
2, 83687, Note_on_c, 4, 64, 127
2, 83779, Note_off_c, 4, 64, 127
2, 83779, Note_off_c, 7, 55, 127
2, 83781, Note_on_c, 10, 57, 127
2, 83781, Note_on_c, 5, 65, 127
2, 83873, Note_off_c, 5, 65, 127
2, 83873, Note_off_c, 10, 57, 127
2, 83874, Note_on_c, 5, 53, 127
2, 83874, Note_on_c, 2, 62, 127
2, 83966, Note_off_c, 2, 62, 127
2, 83966, Note_off_c, 5, 53, 127
2, 83968, Note_on_c, 2, 50, 127
2, 83968, Note_on_c, 10, 69, 127
2, 84060, Note_off_c, 10, 69, 127
2, 84060, Note_off_c, 2, 50, 127
2, 84062, Note_on_c, 5, 53, 127
2, 84062, Note_on_c, 5, 65, 127
2, 84154, Note_off_c, 5, 65, 127
2, 84154, Note_off_c, 5, 53, 127
2, 84156, Note_on_c, 7, 55, 127
2, 84156, Note_on_c, 11, 70, 127
2, 84248, Note_off_c, 7, 55, 127
2, 84249, Note_on_c, 5, 53, 127
2, 84341, Note_off_c, 5, 53, 127
2, 84343, Note_on_c, 7, 55, 127
2, 84343, Note_on_c, 4, 64, 127
2, 84435, Note_off_c, 7, 55, 127
2, 84437, Note_on_c, 4, 52, 127
2, 84529, Note_off_c, 4, 52, 127
2, 84529, Note_off_c, 11, 70, 127
2, 84530, Note_on_c, 1, 49, 127
2, 84530, Note_on_c, 7, 67, 127
2, 84622, Note_off_c, 1, 49, 127
2, 84624, Note_on_c, 4, 52, 127
2, 84716, Note_off_c, 4, 52, 127
2, 84716, Note_off_c, 7, 67, 127
2, 84718, Note_on_c, 5, 53, 127
2, 84718, Note_on_c, 10, 69, 127
2, 84810, Note_off_c, 5, 53, 127
2, 84812, Note_on_c, 4, 52, 127
2, 84898, Note_off_c, 4, 64, 127
2, 84902, Note_off_c, 4, 52, 127
2, 84904, Note_on_c, 5, 53, 127
2, 84904, Note_on_c, 1, 61, 127
2, 84996, Note_off_c, 5, 53, 127
2, 84998, Note_on_c, 2, 50, 127
2, 85090, Note_off_c, 2, 50, 127
2, 85090, Note_off_c, 1, 61, 127
2, 85091, Note_on_c, 12, 47, 127
2, 85091, Note_on_c, 2, 62, 127
2, 85183, Note_off_c, 12, 47, 127
2, 85185, Note_on_c, 2, 50, 127
2, 85271, Note_off_c, 10, 69, 127
2, 85275, Note_off_c, 2, 50, 127
2, 85277, Note_on_c, 4, 52, 127
2, 85277, Note_on_c, 7, 67, 127
2, 85369, Note_off_c, 4, 52, 127
2, 85371, Note_on_c, 2, 50, 127
2, 85463, Note_off_c, 2, 50, 127
2, 85463, Note_off_c, 2, 62, 127
2, 85465, Note_on_c, 4, 52, 127
2, 85465, Note_on_c, 1, 61, 127
2, 85557, Note_off_c, 4, 52, 127
2, 85558, Note_on_c, 1, 49, 127
2, 85650, Note_off_c, 1, 49, 127
2, 85651, Note_off_c, 1, 61, 127
2, 85652, Note_on_c, 10, 45, 127
2, 85652, Note_on_c, 4, 64, 127
2, 85744, Note_off_c, 10, 45, 127
2, 85746, Note_on_c, 1, 49, 127
2, 85832, Note_off_c, 7, 67, 127
2, 85836, Note_off_c, 1, 49, 127
2, 85838, Note_on_c, 2, 50, 127
2, 85838, Note_on_c, 5, 65, 127
2, 85930, Note_off_c, 2, 50, 127
2, 85932, Note_on_c, 1, 49, 127
2, 86024, Note_off_c, 1, 49, 127
2, 86024, Note_off_c, 4, 64, 127
2, 86026, Note_on_c, 2, 50, 127
2, 86026, Note_on_c, 10, 57, 127
2, 86118, Note_off_c, 2, 50, 127
2, 86119, Note_on_c, 5, 53, 127
2, 86211, Note_off_c, 5, 53, 127
2, 86212, Note_off_c, 10, 57, 127
2, 86213, Note_on_c, 11, 46, 127
2, 86213, Note_on_c, 2, 62, 127
2, 86305, Note_off_c, 11, 46, 127
2, 86307, Note_on_c, 2, 50, 127
2, 86399, Note_off_c, 2, 50, 127
2, 86399, Note_off_c, 2, 62, 127
2, 86401, Note_on_c, 8, 44, 127
2, 86401, Note_on_c, 12, 59, 127
2, 86496, Note_off_c, 5, 65, 127
2, 86510, Note_on_c, 4, 64, 127
2, 86602, Note_off_c, 4, 64, 127
2, 86604, Note_on_c, 2, 62, 127
2, 86696, Note_off_c, 2, 62, 127
2, 86698, Note_on_c, 1, 61, 127
2, 86790, Note_off_c, 1, 61, 127
2, 86791, Note_on_c, 2, 62, 127
2, 86883, Note_off_c, 2, 62, 127
2, 86885, Note_on_c, 5, 65, 127
2, 86957, Note_off_c, 12, 59, 127
2, 86977, Note_off_c, 5, 65, 127
2, 86979, Note_on_c, 12, 71, 127
2, 87073, Note_on_c, 5, 65, 127
2, 87165, Note_off_c, 5, 65, 127
2, 87166, Note_on_c, 4, 64, 127
2, 87243, Note_off_c, 12, 71, 127
2, 87258, Note_off_c, 4, 64, 127
2, 87260, Note_on_c, 2, 62, 127
2, 87352, Note_off_c, 2, 62, 127
2, 87354, Note_on_c, 1, 61, 127
2, 87446, Note_off_c, 1, 61, 127
2, 87447, Note_on_c, 12, 59, 127
2, 87524, Note_off_c, 8, 44, 127
2, 87539, Note_off_c, 12, 59, 127
2, 87541, Note_on_c, 1, 61, 127
2, 87541, Note_on_c, 10, 45, 127
2, 87635, Note_on_c, 10, 57, 127
2, 87717, Note_off_c, 1, 61, 127
2, 87727, Note_off_c, 10, 57, 127
2, 87729, Note_on_c, 7, 55, 127
2, 87821, Note_off_c, 7, 55, 127
2, 87822, Note_on_c, 6, 54, 127
2, 87914, Note_off_c, 6, 54, 127
2, 87916, Note_on_c, 4, 52, 127
2, 88008, Note_off_c, 4, 52, 127
2, 88010, Note_on_c, 2, 50, 127
2, 88102, Note_off_c, 2, 50, 127
2, 88104, Note_on_c, 1, 49, 127
2, 88195, Note_off_c, 10, 45, 127
2, 88196, Note_off_c, 1, 49, 127
2, 88197, Note_on_c, 12, 47, 127
2, 88289, Note_off_c, 12, 47, 127
2, 88291, Note_on_c, 10, 45, 127
2, 88383, Note_off_c, 10, 45, 127
2, 88385, Note_on_c, 7, 43, 127
2, 88477, Note_off_c, 7, 43, 127
2, 88478, Note_on_c, 6, 42, 127
2, 88570, Note_off_c, 6, 42, 127
2, 88572, Note_on_c, 4, 40, 127
2, 88664, Note_off_c, 4, 40, 127
2, 88666, Note_on_c, 2, 38, 127
2, 88871, Note_on_c, 2, 50, 127
2, 88963, Note_off_c, 2, 50, 127
2, 88964, Note_on_c, 4, 52, 127
2, 89056, Note_off_c, 4, 52, 127
2, 89058, Note_on_c, 6, 54, 127
2, 89150, Note_off_c, 6, 54, 127
2, 89152, Note_on_c, 7, 55, 127
2, 89244, Note_off_c, 7, 55, 127
2, 89246, Note_on_c, 10, 57, 127
2, 89429, Note_off_c, 10, 57, 127
2, 89430, Note_on_c, 6, 54, 127
2, 89613, Note_off_c, 6, 54, 127
2, 89615, Note_on_c, 10, 57, 127
2, 89798, Note_off_c, 10, 57, 127
2, 89799, Note_on_c, 2, 62, 127
2, 89982, Note_off_c, 2, 62, 127
2, 89984, Note_on_c, 10, 57, 127
2, 90167, Note_off_c, 10, 57, 127
2, 90169, Note_on_c, 2, 62, 127
2, 90352, Note_off_c, 2, 62, 127
2, 90353, Note_on_c, 6, 66, 127
2, 90536, Note_off_c, 6, 66, 127
2, 90538, Note_on_c, 2, 62, 127
2, 90721, Note_off_c, 2, 62, 127
2, 90722, Note_on_c, 6, 66, 127
2, 90881, Note_off_c, 2, 38, 127
2, 90903, Note_off_c, 6, 66, 127
2, 90906, Note_on_c, 10, 69, 127
2, 91456, Note_off_c, 10, 69, 127
2, 91458, Note_on_c, 2, 50, 127
2, 91458, Note_on_c, 10, 69, 127
2, 91458, Note_on_c, 6, 78, 127
2, 92008, Note_off_c, 6, 78, 127
2, 92008, Note_off_c, 10, 69, 127
2, 92008, Note_off_c, 2, 50, 127
2, 92010, Note_on_c, 10, 57, 127
2, 92010, Note_on_c, 7, 79, 127
2, 92010, Note_on_c, 10, 69, 127
2, 92097, Note_on_c, 6, 78, 127
2, 92100, Note_off_c, 7, 79, 127
2, 92184, Note_on_c, 7, 79, 127
2, 92187, Note_off_c, 6, 78, 127
2, 92270, Note_on_c, 6, 78, 127
2, 92274, Note_off_c, 7, 79, 127
2, 92377, Note_off_c, 6, 78, 127
2, 92377, Note_off_c, 10, 69, 127
2, 92380, Note_on_c, 4, 76, 127
2, 92380, Note_on_c, 7, 67, 127
2, 92562, Note_off_c, 10, 57, 127
2, 92563, Note_off_c, 7, 67, 127
2, 92563, Note_off_c, 4, 76, 127
2, 92564, Note_on_c, 10, 45, 127
2, 92564, Note_on_c, 6, 78, 127
2, 92564, Note_on_c, 7, 67, 127
2, 92651, Note_on_c, 4, 76, 127
2, 92654, Note_off_c, 6, 78, 127
2, 92737, Note_on_c, 6, 78, 127
2, 92741, Note_off_c, 4, 76, 127
2, 92824, Note_on_c, 4, 76, 127
2, 92827, Note_off_c, 6, 78, 127
2, 92931, Note_off_c, 4, 76, 127
2, 92931, Note_off_c, 7, 67, 127
2, 92933, Note_on_c, 2, 74, 127
2, 92933, Note_on_c, 6, 66, 127
2, 93116, Note_off_c, 6, 66, 127
2, 93116, Note_off_c, 2, 74, 127
2, 93116, Note_off_c, 10, 45, 127
2, 93118, Note_on_c, 2, 50, 127
2, 93118, Note_on_c, 2, 74, 127
2, 93118, Note_on_c, 6, 66, 127
2, 93301, Note_off_c, 6, 66, 127
2, 93301, Note_off_c, 2, 74, 127
2, 93303, Note_on_c, 2, 62, 127
2, 93393, Note_off_c, 2, 62, 127
2, 93395, Note_on_c, 4, 64, 127
2, 93485, Note_off_c, 4, 64, 127
2, 93487, Note_on_c, 6, 66, 127
2, 93577, Note_off_c, 6, 66, 127
2, 93579, Note_on_c, 7, 67, 127
2, 93669, Note_off_c, 7, 67, 127
2, 93672, Note_on_c, 10, 69, 127
2, 93854, Note_off_c, 2, 50, 127
2, 93856, Note_on_c, 0, 60, 127
2, 93856, Note_on_c, 6, 66, 127
2, 93946, Note_off_c, 0, 60, 127
2, 93949, Note_on_c, 12, 59, 127
2, 94039, Note_off_c, 12, 59, 127
2, 94039, Note_off_c, 6, 66, 127
2, 94039, Note_off_c, 10, 69, 127
2, 94041, Note_on_c, 10, 57, 127
2, 94041, Note_on_c, 10, 69, 127
2, 94131, Note_off_c, 10, 57, 127
2, 94133, Note_on_c, 7, 55, 127
2, 94223, Note_off_c, 7, 55, 127
2, 94224, Note_off_c, 10, 69, 127
2, 94226, Note_on_c, 6, 54, 127
2, 94226, Note_on_c, 0, 72, 127
2, 94409, Note_off_c, 6, 54, 127
2, 94410, Note_on_c, 10, 57, 127
2, 94410, Note_on_c, 10, 69, 127
2, 94593, Note_off_c, 10, 69, 127
2, 94593, Note_off_c, 10, 57, 127
2, 94593, Note_off_c, 0, 72, 127
2, 94595, Note_on_c, 6, 54, 127
2, 94595, Note_on_c, 0, 72, 127
2, 94778, Note_off_c, 0, 72, 127
2, 94778, Note_off_c, 6, 54, 127
2, 94779, Note_on_c, 2, 50, 127
2, 94779, Note_on_c, 6, 78, 127
2, 94962, Note_off_c, 2, 50, 127
2, 94964, Note_on_c, 6, 54, 127
2, 94964, Note_on_c, 0, 72, 127
2, 95146, Note_off_c, 6, 78, 127
2, 95147, Note_off_c, 0, 72, 127
2, 95147, Note_off_c, 6, 54, 127
2, 95149, Note_on_c, 2, 50, 127
2, 95149, Note_on_c, 6, 78, 127
2, 95332, Note_off_c, 6, 78, 127
2, 95332, Note_off_c, 2, 50, 127
2, 95333, Note_on_c, 10, 45, 127
2, 95333, Note_on_c, 10, 81, 127
2, 95516, Note_off_c, 10, 45, 127
2, 95518, Note_on_c, 2, 50, 127
2, 95701, Note_off_c, 2, 50, 127
2, 95702, Note_on_c, 10, 45, 127
2, 95885, Note_off_c, 10, 45, 127
2, 95885, Note_off_c, 10, 81, 127
2, 95887, Note_on_c, 6, 42, 127
2, 95887, Note_on_c, 0, 72, 127
2, 95887, Note_on_c, 10, 69, 127
2, 96070, Note_off_c, 6, 42, 127
2, 96072, Note_on_c, 10, 45, 127
2, 96255, Note_off_c, 10, 45, 127
2, 96256, Note_on_c, 6, 42, 127
2, 96439, Note_off_c, 6, 42, 127
2, 96439, Note_off_c, 10, 69, 127
2, 96439, Note_off_c, 0, 72, 127
2, 96441, Note_on_c, 2, 38, 127
2, 96441, Note_on_c, 10, 69, 127
2, 96441, Note_on_c, 2, 74, 127
2, 96527, Note_on_c, 0, 72, 127
2, 96531, Note_off_c, 2, 74, 127
2, 96614, Note_on_c, 2, 74, 127
2, 96617, Note_off_c, 0, 72, 127
2, 96701, Note_on_c, 0, 72, 127
2, 96704, Note_off_c, 2, 74, 127
2, 96808, Note_off_c, 0, 72, 127
2, 96808, Note_off_c, 10, 69, 127
2, 96810, Note_on_c, 7, 67, 127
2, 96810, Note_on_c, 12, 71, 127
2, 96993, Note_off_c, 12, 71, 127
2, 96993, Note_off_c, 7, 67, 127
2, 96993, Note_off_c, 2, 38, 127
2, 96995, Note_on_c, 2, 50, 127
2, 96995, Note_on_c, 0, 72, 127
2, 96995, Note_on_c, 7, 67, 127
2, 97081, Note_on_c, 12, 71, 127
2, 97085, Note_off_c, 0, 72, 127
2, 97168, Note_on_c, 0, 72, 127
2, 97171, Note_off_c, 12, 71, 127
2, 97254, Note_on_c, 12, 71, 127
2, 97258, Note_off_c, 0, 72, 127
2, 97361, Note_off_c, 12, 71, 127
2, 97362, Note_off_c, 7, 67, 127
2, 97364, Note_on_c, 6, 66, 127
2, 97364, Note_on_c, 10, 69, 127
2, 97547, Note_off_c, 10, 69, 127
2, 97547, Note_off_c, 6, 66, 127
2, 97547, Note_off_c, 2, 50, 127
2, 97548, Note_on_c, 7, 43, 127
2, 97548, Note_on_c, 12, 71, 127
2, 97548, Note_on_c, 7, 67, 127
2, 97731, Note_off_c, 7, 67, 127
2, 97731, Note_off_c, 12, 71, 127
2, 97733, Note_on_c, 12, 83, 127
2, 97823, Note_off_c, 12, 83, 127
2, 97825, Note_on_c, 10, 81, 127
2, 97915, Note_off_c, 10, 81, 127
2, 97915, Note_off_c, 7, 43, 127
2, 97918, Note_on_c, 2, 50, 127
2, 97918, Note_on_c, 7, 79, 127
2, 98008, Note_off_c, 7, 79, 127
2, 98010, Note_on_c, 6, 78, 127
2, 98100, Note_off_c, 6, 78, 127
2, 98101, Note_off_c, 2, 50, 127
2, 98102, Note_on_c, 7, 55, 127
2, 98102, Note_on_c, 4, 76, 127
2, 98285, Note_off_c, 4, 76, 127
2, 98287, Note_on_c, 7, 79, 127
2, 98470, Note_off_c, 7, 79, 127
2, 98471, Note_on_c, 4, 76, 127
2, 98562, Note_off_c, 7, 55, 127
2, 98564, Note_on_c, 7, 55, 127
2, 98654, Note_off_c, 7, 55, 127
2, 98654, Note_off_c, 4, 76, 127
2, 98656, Note_on_c, 7, 55, 127
2, 98656, Note_on_c, 1, 73, 127
2, 98841, Note_on_c, 10, 57, 127
2, 98930, Note_off_c, 1, 73, 127
2, 98931, Note_off_c, 10, 57, 127
2, 98933, Note_on_c, 12, 59, 127
2, 99023, Note_off_c, 12, 59, 127
2, 99025, Note_on_c, 1, 61, 127
2, 99115, Note_off_c, 1, 61, 127
2, 99117, Note_on_c, 2, 62, 127
2, 99207, Note_off_c, 2, 62, 127
2, 99210, Note_on_c, 4, 64, 127
2, 99392, Note_off_c, 7, 55, 127
2, 99393, Note_off_c, 4, 64, 127
2, 99394, Note_on_c, 10, 45, 127
2, 99394, Note_on_c, 1, 61, 127
2, 99484, Note_off_c, 10, 45, 127
2, 99487, Note_on_c, 7, 43, 127
2, 99577, Note_off_c, 7, 43, 127
2, 99577, Note_off_c, 1, 61, 127
2, 99579, Note_on_c, 6, 42, 127
2, 99579, Note_on_c, 4, 64, 127
2, 99669, Note_off_c, 6, 42, 127
2, 99671, Note_on_c, 4, 40, 127
2, 99761, Note_off_c, 4, 40, 127
2, 99762, Note_off_c, 4, 64, 127
2, 99764, Note_on_c, 6, 42, 127
2, 99764, Note_on_c, 10, 69, 127
2, 99948, Note_on_c, 10, 81, 127
2, 100038, Note_off_c, 10, 81, 127
2, 100038, Note_off_c, 10, 69, 127
2, 100040, Note_on_c, 7, 79, 127
2, 100130, Note_off_c, 7, 79, 127
2, 100131, Note_off_c, 6, 42, 127
2, 100133, Note_on_c, 6, 54, 127
2, 100133, Note_on_c, 6, 78, 127
2, 100223, Note_off_c, 6, 78, 127
2, 100225, Note_on_c, 4, 76, 127
2, 100315, Note_off_c, 4, 76, 127
2, 100316, Note_off_c, 6, 54, 127
2, 100317, Note_on_c, 6, 54, 127
2, 100317, Note_on_c, 2, 74, 127
2, 100500, Note_off_c, 2, 74, 127
2, 100502, Note_on_c, 6, 78, 127
2, 100685, Note_off_c, 6, 78, 127
2, 100687, Note_on_c, 2, 74, 127
2, 100777, Note_off_c, 6, 54, 127
2, 100779, Note_on_c, 6, 54, 127
2, 100869, Note_off_c, 6, 54, 127
2, 100870, Note_off_c, 2, 74, 127
2, 100871, Note_on_c, 6, 54, 127
2, 100871, Note_on_c, 12, 71, 127
2, 101056, Note_on_c, 7, 55, 127
2, 101145, Note_off_c, 12, 71, 127
2, 101146, Note_off_c, 7, 55, 127
2, 101148, Note_on_c, 10, 57, 127
2, 101238, Note_off_c, 10, 57, 127
2, 101240, Note_on_c, 12, 59, 127
2, 101330, Note_off_c, 12, 59, 127
2, 101333, Note_on_c, 1, 61, 127
2, 101423, Note_off_c, 1, 61, 127
2, 101425, Note_on_c, 2, 62, 127
2, 101607, Note_off_c, 6, 54, 127
2, 101608, Note_off_c, 2, 62, 127
2, 101610, Note_on_c, 7, 43, 127
2, 101610, Note_on_c, 12, 59, 127
2, 101700, Note_off_c, 7, 43, 127
2, 101702, Note_on_c, 6, 42, 127
2, 101792, Note_off_c, 6, 42, 127
2, 101793, Note_off_c, 12, 59, 127
2, 101794, Note_on_c, 4, 40, 127
2, 101794, Note_on_c, 2, 62, 127
2, 101884, Note_off_c, 4, 40, 127
2, 101886, Note_on_c, 2, 38, 127
2, 101976, Note_off_c, 2, 38, 127
2, 101977, Note_off_c, 2, 62, 127
2, 101979, Note_on_c, 4, 40, 127
2, 101979, Note_on_c, 7, 67, 127
2, 102162, Note_off_c, 4, 40, 127
2, 102163, Note_on_c, 12, 59, 127
2, 102253, Note_off_c, 12, 59, 127
2, 102256, Note_on_c, 10, 57, 127
2, 102346, Note_off_c, 10, 57, 127
2, 102348, Note_on_c, 7, 55, 127
2, 102348, Note_on_c, 12, 71, 127
2, 102348, Note_on_c, 2, 62, 127
2, 102438, Note_off_c, 7, 55, 127
2, 102440, Note_on_c, 6, 54, 127
2, 102527, Note_off_c, 7, 67, 127
2, 102530, Note_off_c, 6, 54, 127
2, 102531, Note_off_c, 2, 62, 127
2, 102531, Note_off_c, 12, 71, 127
2, 102533, Note_on_c, 4, 52, 127
2, 102533, Note_on_c, 12, 71, 127
2, 102533, Note_on_c, 7, 67, 127
2, 102716, Note_off_c, 4, 52, 127
2, 102717, Note_on_c, 7, 55, 127
2, 102900, Note_off_c, 7, 55, 127
2, 102902, Note_on_c, 4, 52, 127
2, 102993, Note_off_c, 7, 67, 127
2, 102993, Note_off_c, 12, 71, 127
2, 102994, Note_on_c, 7, 67, 127
2, 102994, Note_on_c, 12, 71, 127
2, 103084, Note_off_c, 12, 71, 127
2, 103084, Note_off_c, 7, 67, 127
2, 103085, Note_off_c, 4, 52, 127
2, 103086, Note_on_c, 1, 49, 127
2, 103086, Note_on_c, 7, 67, 127
2, 103086, Note_on_c, 10, 69, 127
2, 103269, Note_off_c, 1, 49, 127
2, 103271, Note_on_c, 4, 52, 127
2, 103454, Note_off_c, 4, 52, 127
2, 103456, Note_on_c, 1, 49, 127
2, 103639, Note_off_c, 1, 49, 127
2, 103640, Note_on_c, 10, 45, 127
2, 103822, Note_off_c, 10, 69, 127
2, 103822, Note_off_c, 7, 67, 127
2, 103823, Note_off_c, 10, 45, 127
2, 103825, Note_on_c, 1, 49, 127
2, 103825, Note_on_c, 10, 69, 127
2, 103915, Note_off_c, 10, 69, 127
2, 103917, Note_on_c, 7, 67, 127
2, 104007, Note_off_c, 7, 67, 127
2, 104008, Note_off_c, 1, 49, 127
2, 104009, Note_on_c, 10, 45, 127
2, 104009, Note_on_c, 6, 66, 127
2, 104099, Note_off_c, 6, 66, 127
2, 104102, Note_on_c, 4, 64, 127
2, 104192, Note_off_c, 4, 64, 127
2, 104192, Note_off_c, 10, 45, 127
2, 104194, Note_on_c, 2, 50, 127
2, 104194, Note_on_c, 6, 66, 127
2, 104377, Note_off_c, 2, 50, 127
2, 104379, Note_on_c, 6, 54, 127
2, 104379, Note_on_c, 2, 62, 127
2, 104459, Note_off_c, 6, 66, 127
2, 104469, Note_off_c, 2, 62, 127
2, 104471, Note_on_c, 4, 64, 127
2, 104561, Note_off_c, 4, 64, 127
2, 104562, Note_off_c, 6, 54, 127
2, 104563, Note_on_c, 2, 50, 127
2, 104563, Note_on_c, 6, 66, 127
2, 104653, Note_off_c, 6, 66, 127
2, 104655, Note_on_c, 7, 67, 127
2, 104745, Note_off_c, 7, 67, 127
2, 104746, Note_off_c, 2, 50, 127
2, 104748, Note_on_c, 12, 47, 127
2, 104748, Note_on_c, 10, 69, 127
2, 104748, Note_on_c, 2, 74, 127
2, 104931, Note_off_c, 10, 69, 127
2, 104931, Note_off_c, 12, 47, 127
2, 104932, Note_on_c, 2, 50, 127
2, 104932, Note_on_c, 7, 67, 127
2, 105022, Note_off_c, 7, 67, 127
2, 105025, Note_on_c, 6, 66, 127
2, 105115, Note_off_c, 6, 66, 127
2, 105115, Note_off_c, 2, 50, 127
2, 105117, Note_on_c, 12, 47, 127
2, 105117, Note_on_c, 4, 64, 127
2, 105207, Note_off_c, 4, 64, 127
2, 105209, Note_on_c, 2, 62, 127
2, 105296, Note_off_c, 2, 74, 127
2, 105299, Note_off_c, 2, 62, 127
2, 105300, Note_off_c, 12, 47, 127
2, 105302, Note_on_c, 4, 52, 127
2, 105302, Note_on_c, 12, 71, 127
2, 105302, Note_on_c, 7, 67, 127
2, 105485, Note_off_c, 7, 67, 127
2, 105485, Note_off_c, 4, 52, 127
2, 105486, Note_on_c, 7, 55, 127
2, 105486, Note_on_c, 4, 64, 127
2, 105576, Note_off_c, 4, 64, 127
2, 105578, Note_on_c, 6, 66, 127
2, 105668, Note_off_c, 6, 66, 127
2, 105669, Note_off_c, 7, 55, 127
2, 105671, Note_on_c, 4, 52, 127
2, 105671, Note_on_c, 7, 67, 127
2, 105761, Note_off_c, 7, 67, 127
2, 105763, Note_on_c, 10, 69, 127
2, 105850, Note_off_c, 12, 71, 127
2, 105853, Note_off_c, 10, 69, 127
2, 105854, Note_off_c, 4, 52, 127
2, 105855, Note_on_c, 1, 49, 127
2, 105855, Note_on_c, 12, 71, 127
2, 105855, Note_on_c, 4, 76, 127
2, 106038, Note_off_c, 12, 71, 127
2, 106038, Note_off_c, 1, 49, 127
2, 106040, Note_on_c, 4, 52, 127
2, 106040, Note_on_c, 10, 69, 127
2, 106130, Note_off_c, 10, 69, 127
2, 106132, Note_on_c, 7, 67, 127
2, 106222, Note_off_c, 7, 67, 127
2, 106223, Note_off_c, 4, 52, 127
2, 106225, Note_on_c, 1, 49, 127
2, 106225, Note_on_c, 6, 66, 127
2, 106315, Note_off_c, 6, 66, 127
2, 106317, Note_on_c, 4, 64, 127
2, 106407, Note_off_c, 4, 64, 127
2, 106408, Note_off_c, 1, 49, 127
2, 106409, Note_on_c, 6, 54, 127
2, 106409, Note_on_c, 10, 69, 127
2, 106592, Note_off_c, 6, 54, 127
2, 106594, Note_on_c, 2, 50, 127
2, 106684, Note_off_c, 2, 50, 127
2, 106686, Note_on_c, 4, 52, 127
2, 106776, Note_off_c, 4, 52, 127
2, 106776, Note_off_c, 10, 69, 127
2, 106778, Note_on_c, 6, 54, 127
2, 106778, Note_on_c, 7, 67, 127
2, 106868, Note_off_c, 6, 54, 127
2, 106871, Note_on_c, 7, 55, 127
2, 106961, Note_off_c, 7, 55, 127
2, 106961, Note_off_c, 7, 67, 127
2, 106961, Note_off_c, 4, 76, 127
2, 106963, Note_on_c, 10, 57, 127
2, 106963, Note_on_c, 2, 74, 127
2, 106963, Note_on_c, 6, 66, 127
2, 107146, Note_off_c, 10, 57, 127
2, 107148, Note_on_c, 7, 55, 127
2, 107238, Note_off_c, 7, 55, 127
2, 107240, Note_on_c, 6, 54, 127
2, 107330, Note_off_c, 6, 54, 127
2, 107330, Note_off_c, 2, 74, 127
2, 107332, Note_on_c, 4, 52, 127
2, 107332, Note_on_c, 0, 72, 127
2, 107422, Note_off_c, 4, 52, 127
2, 107424, Note_on_c, 2, 50, 127
2, 107514, Note_off_c, 2, 50, 127
2, 107515, Note_off_c, 0, 72, 127
2, 107517, Note_on_c, 7, 55, 127
2, 107517, Note_on_c, 12, 71, 127
2, 107700, Note_off_c, 7, 55, 127
2, 107701, Note_on_c, 4, 52, 127
2, 107791, Note_off_c, 4, 52, 127
2, 107794, Note_on_c, 6, 54, 127
2, 107884, Note_off_c, 6, 54, 127
2, 107884, Note_off_c, 12, 71, 127
2, 107886, Note_on_c, 7, 55, 127
2, 107886, Note_on_c, 10, 69, 127
2, 107976, Note_off_c, 7, 55, 127
2, 107978, Note_on_c, 10, 57, 127
2, 108068, Note_off_c, 10, 57, 127
2, 108069, Note_off_c, 10, 69, 127
2, 108069, Note_off_c, 6, 66, 127
2, 108071, Note_on_c, 12, 59, 127
2, 108071, Note_on_c, 4, 64, 127
2, 108071, Note_on_c, 7, 67, 127
2, 108254, Note_off_c, 12, 59, 127
2, 108255, Note_on_c, 10, 57, 127
2, 108345, Note_off_c, 10, 57, 127
2, 108347, Note_on_c, 7, 55, 127
2, 108437, Note_off_c, 7, 55, 127
2, 108438, Note_off_c, 4, 64, 127
2, 108440, Note_on_c, 6, 54, 127
2, 108440, Note_on_c, 2, 62, 127
2, 108530, Note_off_c, 6, 54, 127
2, 108532, Note_on_c, 4, 52, 127
2, 108619, Note_off_c, 7, 67, 127
2, 108622, Note_off_c, 4, 52, 127
2, 108623, Note_off_c, 2, 62, 127
2, 108624, Note_on_c, 10, 57, 127
2, 108624, Note_on_c, 1, 61, 127
2, 108805, Note_off_c, 10, 57, 127
2, 108809, Note_on_c, 10, 57, 127
2, 108899, Note_off_c, 10, 57, 127
2, 108901, Note_on_c, 12, 59, 127
2, 108991, Note_off_c, 12, 59, 127
2, 108991, Note_off_c, 1, 61, 127
2, 108994, Note_on_c, 10, 45, 127
2, 108994, Note_on_c, 1, 61, 127
2, 109084, Note_off_c, 1, 61, 127
2, 109086, Note_on_c, 2, 62, 127
2, 109176, Note_off_c, 2, 62, 127
2, 109177, Note_off_c, 10, 45, 127
2, 109178, Note_on_c, 10, 45, 127
2, 109178, Note_on_c, 4, 64, 127
2, 109178, Note_on_c, 7, 67, 127
2, 109361, Note_off_c, 4, 64, 127
2, 109363, Note_on_c, 1, 61, 127
2, 109546, Note_off_c, 1, 61, 127
2, 109547, Note_on_c, 4, 64, 127
2, 109638, Note_off_c, 10, 45, 127
2, 109640, Note_on_c, 10, 45, 127
2, 109726, Note_off_c, 7, 67, 127
2, 109730, Note_off_c, 10, 45, 127
2, 109730, Note_off_c, 4, 64, 127
2, 109732, Note_on_c, 10, 45, 127
2, 109732, Note_on_c, 7, 67, 127
2, 109732, Note_on_c, 1, 73, 127
2, 109915, Note_off_c, 7, 67, 127
2, 109917, Note_on_c, 4, 64, 127
2, 110100, Note_off_c, 4, 64, 127
2, 110101, Note_on_c, 7, 67, 127
2, 110278, Note_off_c, 1, 73, 127
2, 110282, Note_off_c, 7, 67, 127
2, 110284, Note_on_c, 4, 76, 127
2, 110284, Note_on_c, 1, 73, 127
2, 110467, Note_off_c, 1, 73, 127
2, 110469, Note_on_c, 7, 67, 127
2, 110559, Note_off_c, 10, 45, 127
2, 110561, Note_on_c, 4, 52, 127
2, 110651, Note_off_c, 4, 52, 127
2, 110652, Note_off_c, 7, 67, 127
2, 110653, Note_on_c, 6, 54, 127
2, 110653, Note_on_c, 1, 73, 127
2, 110743, Note_off_c, 6, 54, 127
2, 110746, Note_on_c, 7, 55, 127
2, 110832, Note_off_c, 4, 76, 127
2, 110836, Note_off_c, 7, 55, 127
2, 110836, Note_off_c, 1, 73, 127
2, 110838, Note_on_c, 10, 57, 127
2, 110838, Note_on_c, 6, 66, 127
2, 111023, Note_on_c, 2, 74, 127
2, 111113, Note_off_c, 2, 74, 127
2, 111115, Note_on_c, 1, 73, 127
2, 111205, Note_off_c, 1, 73, 127
2, 111205, Note_off_c, 10, 57, 127
2, 111207, Note_on_c, 10, 45, 127
2, 111207, Note_on_c, 12, 71, 127
2, 111297, Note_off_c, 12, 71, 127
2, 111300, Note_on_c, 10, 69, 127
2, 111386, Note_off_c, 6, 66, 127
2, 111390, Note_off_c, 10, 69, 127
2, 111390, Note_off_c, 10, 45, 127
2, 111392, Note_on_c, 10, 45, 127
2, 111392, Note_on_c, 8, 68, 127
2, 111392, Note_on_c, 2, 62, 127
2, 111575, Note_off_c, 8, 68, 127
2, 111576, Note_on_c, 12, 71, 127
2, 111759, Note_off_c, 12, 71, 127
2, 111761, Note_on_c, 8, 68, 127
2, 111852, Note_off_c, 10, 45, 127
2, 111853, Note_on_c, 10, 45, 127
2, 111940, Note_off_c, 2, 62, 127
2, 111943, Note_off_c, 10, 45, 127
2, 111944, Note_off_c, 8, 68, 127
2, 111946, Note_on_c, 10, 45, 127
2, 111946, Note_on_c, 12, 59, 127
2, 111946, Note_on_c, 2, 62, 127
2, 112129, Note_off_c, 2, 62, 127
2, 112130, Note_on_c, 8, 68, 127
2, 112313, Note_off_c, 8, 68, 127
2, 112315, Note_on_c, 2, 62, 127
2, 112492, Note_off_c, 12, 59, 127
2, 112496, Note_off_c, 2, 62, 127
2, 112498, Note_on_c, 12, 59, 127
2, 112498, Note_on_c, 8, 56, 127
2, 112681, Note_off_c, 12, 59, 127
2, 112683, Note_on_c, 2, 62, 127
2, 112866, Note_off_c, 2, 62, 127
2, 112867, Note_on_c, 12, 59, 127
2, 113044, Note_off_c, 8, 56, 127
2, 113048, Note_off_c, 12, 59, 127
2, 113050, Note_on_c, 1, 61, 127
2, 113050, Note_on_c, 10, 57, 127
2, 113233, Note_off_c, 1, 61, 127
2, 113235, Note_on_c, 12, 59, 127
2, 113326, Note_off_c, 10, 45, 127
2, 113327, Note_on_c, 6, 42, 127
2, 113417, Note_off_c, 6, 42, 127
2, 113417, Note_off_c, 10, 57, 127
2, 113418, Note_off_c, 12, 59, 127
2, 113420, Note_on_c, 7, 43, 127
2, 113420, Note_on_c, 10, 57, 127
2, 113420, Note_on_c, 7, 55, 127
2, 113510, Note_off_c, 7, 43, 127
2, 113512, Note_on_c, 10, 45, 127
2, 113602, Note_off_c, 10, 45, 127
2, 113603, Note_off_c, 7, 55, 127
2, 113603, Note_off_c, 10, 57, 127
2, 113604, Note_on_c, 12, 47, 127
2, 113604, Note_on_c, 6, 54, 127
2, 113604, Note_on_c, 2, 62, 127
2, 113787, Note_off_c, 12, 47, 127
2, 113789, Note_on_c, 10, 45, 127
2, 113971, Note_off_c, 2, 62, 127
2, 113971, Note_off_c, 6, 54, 127
2, 113972, Note_off_c, 10, 45, 127
2, 113973, Note_on_c, 7, 43, 127
2, 113973, Note_on_c, 7, 67, 127
2, 113973, Note_on_c, 4, 64, 127
2, 114156, Note_off_c, 4, 64, 127
2, 114156, Note_off_c, 7, 43, 127
2, 114158, Note_on_c, 10, 45, 127
2, 114158, Note_on_c, 1, 61, 127
2, 114340, Note_off_c, 7, 67, 127
2, 114343, Note_on_c, 6, 66, 127
2, 114433, Note_off_c, 6, 66, 127
2, 114435, Note_on_c, 4, 64, 127
2, 114525, Note_off_c, 4, 64, 127
2, 114525, Note_off_c, 1, 61, 127
2, 114525, Note_off_c, 10, 45, 127
2, 114527, Note_on_c, 10, 57, 127
2, 114527, Note_on_c, 6, 66, 127
2, 114527, Note_on_c, 2, 62, 127
2, 114710, Note_off_c, 6, 66, 127
2, 114710, Note_off_c, 10, 57, 127
2, 114712, Note_on_c, 10, 57, 127
2, 114712, Note_on_c, 4, 64, 127
2, 114894, Note_off_c, 2, 62, 127
2, 114896, Note_on_c, 1, 61, 127
2, 114986, Note_off_c, 1, 61, 127
2, 114989, Note_on_c, 12, 59, 127
2, 115079, Note_off_c, 12, 59, 127
2, 115079, Note_off_c, 4, 64, 127
2, 115079, Note_off_c, 10, 57, 127
2, 115081, Note_on_c, 10, 45, 127
2, 115081, Note_on_c, 1, 61, 127
2, 115081, Note_on_c, 10, 69, 127
2, 115264, Note_off_c, 10, 69, 127
2, 115264, Note_off_c, 1, 61, 127
2, 115264, Note_off_c, 10, 45, 127
2, 115266, Note_on_c, 2, 50, 127
2, 115266, Note_on_c, 2, 62, 127
2, 115266, Note_on_c, 6, 66, 127
2, 115356, Note_off_c, 6, 66, 127
2, 115356, Note_off_c, 2, 62, 127
2, 115358, Note_on_c, 10, 69, 127
2, 115448, Note_off_c, 10, 69, 127
2, 115450, Note_on_c, 12, 71, 127
2, 115540, Note_off_c, 12, 71, 127
2, 115543, Note_on_c, 1, 73, 127
2, 115633, Note_off_c, 1, 73, 127
2, 115633, Note_off_c, 2, 50, 127
2, 115635, Note_on_c, 10, 57, 127
2, 115635, Note_on_c, 2, 74, 127
2, 115725, Note_off_c, 2, 74, 127
2, 115727, Note_on_c, 4, 76, 127
2, 115817, Note_off_c, 4, 76, 127
2, 115818, Note_off_c, 10, 57, 127
2, 115819, Note_on_c, 2, 62, 127
2, 115819, Note_on_c, 6, 78, 127
2, 115912, Note_on_c, 4, 76, 127
2, 116002, Note_off_c, 4, 76, 127
2, 116004, Note_on_c, 2, 74, 127
2, 116078, Note_off_c, 6, 78, 127
2, 116094, Note_off_c, 2, 74, 127
2, 116096, Note_on_c, 1, 73, 127
2, 116186, Note_off_c, 1, 73, 127
2, 116189, Note_on_c, 12, 71, 127
2, 116279, Note_off_c, 12, 71, 127
2, 116281, Note_on_c, 10, 69, 127
2, 116371, Note_off_c, 10, 69, 127
2, 116373, Note_on_c, 8, 68, 127
2, 116555, Note_off_c, 2, 62, 127
2, 116558, Note_on_c, 4, 64, 127
2, 116558, Note_on_c, 12, 71, 127
2, 116648, Note_off_c, 4, 64, 127
2, 116650, Note_on_c, 2, 62, 127
2, 116740, Note_off_c, 2, 62, 127
2, 116741, Note_off_c, 12, 71, 127
2, 116742, Note_on_c, 1, 61, 127
2, 116742, Note_on_c, 4, 76, 127
2, 116832, Note_off_c, 1, 61, 127
2, 116835, Note_on_c, 12, 59, 127
2, 116921, Note_off_c, 8, 68, 127
2, 116925, Note_off_c, 12, 59, 127
2, 116925, Note_off_c, 4, 76, 127
2, 116927, Note_on_c, 11, 58, 127
2, 116927, Note_on_c, 4, 76, 127
2, 117110, Note_off_c, 11, 58, 127
2, 117112, Note_on_c, 12, 59, 127
2, 117112, Note_on_c, 1, 73, 127
2, 117202, Note_off_c, 12, 59, 127
2, 117204, Note_on_c, 11, 58, 127
2, 117294, Note_off_c, 11, 58, 127
2, 117295, Note_off_c, 1, 73, 127
2, 117296, Note_on_c, 8, 56, 127
2, 117296, Note_on_c, 11, 70, 127
2, 117386, Note_off_c, 8, 56, 127
2, 117389, Note_on_c, 6, 54, 127
2, 117479, Note_off_c, 6, 54, 127
2, 117479, Note_off_c, 11, 70, 127
2, 117481, Note_on_c, 12, 59, 127
2, 117481, Note_on_c, 6, 66, 127
2, 117665, Note_off_c, 6, 66, 127
2, 117665, Note_off_c, 4, 76, 127
2, 117667, Note_on_c, 8, 68, 127
2, 117759, Note_off_c, 8, 68, 127
2, 117761, Note_on_c, 11, 70, 127
2, 117853, Note_off_c, 11, 70, 127
2, 117854, Note_on_c, 12, 47, 127
2, 117854, Note_on_c, 12, 71, 127
2, 117946, Note_off_c, 12, 71, 127
2, 117948, Note_on_c, 1, 73, 127
2, 118034, Note_off_c, 12, 59, 127
2, 118038, Note_off_c, 1, 73, 127
2, 118038, Note_off_c, 12, 47, 127
2, 118040, Note_on_c, 12, 59, 127
2, 118040, Note_on_c, 2, 74, 127
2, 118134, Note_on_c, 1, 73, 127
2, 118226, Note_off_c, 1, 73, 127
2, 118228, Note_on_c, 12, 71, 127
2, 118320, Note_off_c, 12, 71, 127
2, 118321, Note_on_c, 10, 69, 127
2, 118413, Note_off_c, 10, 69, 127
2, 118413, Note_off_c, 2, 74, 127
2, 118415, Note_on_c, 7, 67, 127
2, 118507, Note_off_c, 7, 67, 127
2, 118509, Note_on_c, 6, 66, 127
2, 118601, Note_off_c, 6, 66, 127
2, 118603, Note_on_c, 4, 64, 127
2, 118786, Note_off_c, 12, 59, 127
2, 118789, Note_on_c, 0, 60, 127
2, 118789, Note_on_c, 7, 67, 127
2, 118881, Note_off_c, 0, 60, 127
2, 118882, Note_on_c, 12, 59, 127
2, 118974, Note_off_c, 12, 59, 127
2, 118975, Note_off_c, 7, 67, 127
2, 118976, Note_on_c, 10, 57, 127
2, 118976, Note_on_c, 0, 72, 127
2, 119068, Note_off_c, 10, 57, 127
2, 119070, Note_on_c, 7, 55, 127
2, 119156, Note_off_c, 4, 64, 127
2, 119160, Note_off_c, 7, 55, 127
2, 119160, Note_off_c, 0, 72, 127
2, 119162, Note_on_c, 6, 54, 127
2, 119162, Note_on_c, 0, 72, 127
2, 119346, Note_off_c, 6, 54, 127
2, 119348, Note_on_c, 7, 55, 127
2, 119348, Note_on_c, 10, 69, 127
2, 119440, Note_off_c, 7, 55, 127
2, 119442, Note_on_c, 6, 54, 127
2, 119534, Note_off_c, 6, 54, 127
2, 119534, Note_off_c, 10, 69, 127
2, 119536, Note_on_c, 4, 52, 127
2, 119536, Note_on_c, 6, 66, 127
2, 119628, Note_off_c, 4, 52, 127
2, 119629, Note_on_c, 2, 50, 127
2, 119721, Note_off_c, 2, 50, 127
2, 119722, Note_off_c, 6, 66, 127
2, 119723, Note_on_c, 7, 55, 127
2, 119723, Note_on_c, 2, 62, 127
2, 119910, Note_off_c, 2, 62, 127
2, 119910, Note_off_c, 0, 72, 127
2, 119912, Note_on_c, 4, 64, 127
2, 120004, Note_off_c, 4, 64, 127
2, 120006, Note_on_c, 6, 66, 127
2, 120097, Note_off_c, 7, 55, 127
2, 120098, Note_off_c, 6, 66, 127
2, 120099, Note_on_c, 7, 43, 127
2, 120099, Note_on_c, 7, 67, 127
2, 120191, Note_off_c, 7, 67, 127
2, 120193, Note_on_c, 10, 69, 127
2, 120285, Note_off_c, 10, 69, 127
2, 120285, Note_off_c, 7, 43, 127
2, 120287, Note_on_c, 7, 55, 127
2, 120287, Note_on_c, 12, 71, 127
2, 120380, Note_on_c, 10, 69, 127
2, 120472, Note_off_c, 10, 69, 127
2, 120474, Note_on_c, 7, 67, 127
2, 120566, Note_off_c, 7, 67, 127
2, 120568, Note_on_c, 6, 66, 127
2, 120660, Note_off_c, 6, 66, 127
2, 120662, Note_on_c, 4, 64, 127
2, 120754, Note_off_c, 4, 64, 127
2, 120755, Note_on_c, 2, 62, 127
2, 120843, Note_off_c, 12, 71, 127
2, 120847, Note_off_c, 2, 62, 127
2, 120849, Note_on_c, 1, 61, 127
2, 121036, Note_off_c, 7, 55, 127
2, 121038, Note_on_c, 10, 57, 127
2, 121038, Note_on_c, 4, 64, 127
2, 121130, Note_off_c, 10, 57, 127
2, 121132, Note_on_c, 7, 55, 127
2, 121223, Note_off_c, 1, 61, 127
2, 121224, Note_off_c, 7, 55, 127
2, 121224, Note_off_c, 4, 64, 127
2, 121225, Note_on_c, 6, 54, 127
2, 121225, Note_on_c, 1, 61, 127
2, 121225, Note_on_c, 10, 69, 127
2, 121317, Note_off_c, 6, 54, 127
2, 121319, Note_on_c, 4, 52, 127
2, 121411, Note_off_c, 4, 52, 127
2, 121411, Note_off_c, 10, 69, 127
2, 121411, Note_off_c, 1, 61, 127
2, 121413, Note_on_c, 2, 50, 127
2, 121413, Note_on_c, 6, 66, 127
2, 121413, Note_on_c, 2, 62, 127
2, 121600, Note_off_c, 6, 66, 127
2, 121600, Note_off_c, 2, 50, 127
2, 121602, Note_on_c, 4, 52, 127
2, 121602, Note_on_c, 10, 69, 127
2, 121694, Note_off_c, 4, 52, 127
2, 121695, Note_on_c, 6, 54, 127
2, 121787, Note_off_c, 6, 54, 127
2, 121787, Note_off_c, 2, 62, 127
2, 121788, Note_off_c, 10, 69, 127
2, 121789, Note_on_c, 7, 55, 127
2, 121789, Note_on_c, 6, 66, 127
2, 121789, Note_on_c, 2, 74, 127
2, 121881, Note_off_c, 7, 55, 127
2, 121883, Note_on_c, 10, 57, 127
2, 121975, Note_off_c, 10, 57, 127
2, 121975, Note_off_c, 6, 66, 127
2, 121977, Note_on_c, 12, 59, 127
2, 121977, Note_on_c, 7, 67, 127
2, 122168, Note_off_c, 7, 67, 127
2, 122168, Note_off_c, 12, 59, 127
2, 122170, Note_on_c, 10, 57, 127
2, 122170, Note_on_c, 10, 69, 127
2, 122357, Note_off_c, 2, 74, 127
2, 122361, Note_off_c, 10, 69, 127
2, 122361, Note_off_c, 10, 57, 127
2, 122363, Note_on_c, 7, 55, 127
2, 122363, Note_on_c, 4, 76, 127
2, 122363, Note_on_c, 12, 71, 127
2, 122554, Note_off_c, 12, 71, 127
2, 122554, Note_off_c, 7, 55, 127
2, 122556, Note_on_c, 10, 57, 127
2, 122556, Note_on_c, 10, 69, 127
2, 122556, Note_on_c, 6, 66, 127
2, 122760, Note_off_c, 4, 76, 127
2, 122762, Note_on_c, 2, 74, 127
2, 122966, Note_off_c, 2, 74, 127
2, 122966, Note_off_c, 6, 66, 127
2, 122966, Note_off_c, 10, 69, 127
2, 122966, Note_off_c, 10, 57, 127
2, 122968, Note_on_c, 10, 45, 127
2, 122968, Note_on_c, 7, 67, 127
2, 122968, Note_on_c, 4, 64, 127
2, 122968, Note_on_c, 1, 73, 127
2, 123172, Note_off_c, 1, 73, 127
2, 123172, Note_off_c, 4, 64, 127
2, 123172, Note_off_c, 7, 67, 127
2, 123172, Note_off_c, 10, 45, 127
2, 123190, Note_on_c, 2, 74, 127
2, 123190, Note_on_c, 2, 62, 127
2, 123190, Note_on_c, 2, 38, 127
2, 123442, Note_on_c, 10, 69, 127
2, 123695, Note_on_c, 6, 66, 127
2, 123949, Note_off_c, 2, 62, 127
2, 123976, Note_on_c, 2, 62, 127
2, 126217, Note_off_c, 2, 62, 127
2, 126225, Note_off_c, 6, 66, 127
2, 126232, Note_off_c, 10, 69, 127
2, 126237, Note_off_c, 2, 38, 127
2, 126237, Note_off_c, 2, 74, 127
2, 127483, Note_on_c, 2, 62, 127
2, 127836, Note_off_c, 2, 62, 127
2, 127841, Note_on_c, 2, 62, 127
2, 128194, Note_off_c, 2, 62, 127
2, 128199, Note_on_c, 2, 62, 127
2, 128552, Note_off_c, 2, 62, 127
2, 128557, Note_on_c, 7, 55, 127
2, 129268, Note_off_c, 7, 55, 127
2, 129273, Note_on_c, 12, 59, 127
2, 130272, Note_off_c, 12, 59, 127
2, 130346, Note_on_c, 4, 52, 127
2, 130699, Note_off_c, 4, 52, 127
2, 130704, Note_on_c, 10, 57, 127
2, 131057, Note_off_c, 10, 57, 127
2, 131062, Note_on_c, 7, 55, 127
2, 131415, Note_off_c, 7, 55, 127
2, 131420, Note_on_c, 6, 54, 127
2, 131778, Note_on_c, 10, 69, 127
2, 132131, Note_off_c, 10, 69, 127
2, 132131, Note_off_c, 6, 54, 127
2, 132135, Note_on_c, 2, 50, 127
2, 132135, Note_on_c, 10, 69, 127
2, 132488, Note_off_c, 10, 69, 127
2, 132493, Note_on_c, 10, 69, 127
2, 132846, Note_off_c, 10, 69, 127
2, 132851, Note_on_c, 2, 62, 127
2, 133029, Note_off_c, 2, 50, 127
2, 133209, Note_on_c, 6, 54, 127
2, 133562, Note_off_c, 6, 54, 127
2, 133562, Note_off_c, 2, 62, 127
2, 133567, Note_on_c, 12, 59, 127
2, 133567, Note_on_c, 6, 66, 127
2, 133920, Note_off_c, 12, 59, 127
2, 133925, Note_on_c, 10, 57, 127
2, 134278, Note_off_c, 10, 57, 127
2, 134282, Note_on_c, 8, 56, 127
2, 134461, Note_off_c, 6, 66, 127
2, 134640, Note_on_c, 12, 59, 127
2, 134993, Note_off_c, 12, 59, 127
2, 134998, Note_on_c, 4, 64, 127
2, 135351, Note_off_c, 4, 64, 127
2, 135356, Note_on_c, 2, 62, 127
2, 135709, Note_off_c, 2, 62, 127
2, 135709, Note_off_c, 8, 56, 127
2, 135714, Note_on_c, 10, 57, 127
2, 135714, Note_on_c, 1, 61, 127
2, 136067, Note_off_c, 1, 61, 127
2, 136072, Note_on_c, 4, 64, 127
2, 136425, Note_off_c, 4, 64, 127
2, 136425, Note_off_c, 10, 57, 127
2, 136429, Note_on_c, 1, 61, 127
2, 136429, Note_on_c, 10, 69, 127
2, 136782, Note_off_c, 10, 69, 127
2, 136787, Note_on_c, 7, 67, 127
2, 137140, Note_off_c, 7, 67, 127
2, 137145, Note_on_c, 6, 66, 127
2, 137323, Note_off_c, 1, 61, 127
2, 137503, Note_on_c, 10, 57, 127
2, 137856, Note_off_c, 10, 57, 127
2, 137856, Note_off_c, 6, 66, 127
2, 137861, Note_on_c, 2, 62, 127
2, 137861, Note_on_c, 10, 69, 127
2, 138214, Note_off_c, 2, 62, 127
2, 138219, Note_on_c, 1, 61, 127
2, 138572, Note_off_c, 1, 61, 127
2, 138576, Note_on_c, 12, 59, 127
2, 138886, Note_off_c, 10, 69, 127
2, 138934, Note_on_c, 2, 62, 127
2, 138934, Note_on_c, 2, 74, 127
2, 139287, Note_off_c, 2, 74, 127
2, 139287, Note_off_c, 2, 62, 127
2, 139292, Note_on_c, 2, 74, 127
2, 139292, Note_on_c, 7, 67, 127
2, 139645, Note_off_c, 7, 67, 127
2, 139645, Note_off_c, 2, 74, 127
2, 139650, Note_on_c, 2, 74, 127
2, 139650, Note_on_c, 6, 66, 127
2, 140003, Note_off_c, 6, 66, 127
2, 140003, Note_off_c, 2, 74, 127
2, 140004, Note_off_c, 12, 59, 127
2, 140006, Note_on_c, 7, 67, 127
2, 140006, Note_on_c, 4, 64, 127
2, 140359, Note_off_c, 4, 64, 127
2, 140364, Note_on_c, 12, 59, 127
2, 140364, Note_on_c, 6, 66, 127
2, 140714, Note_off_c, 7, 67, 127
2, 140719, Note_off_c, 6, 66, 127
2, 140719, Note_off_c, 12, 59, 127
2, 140724, Note_on_c, 4, 64, 127
2, 140724, Note_on_c, 12, 71, 127
2, 140724, Note_on_c, 7, 67, 127
2, 141077, Note_off_c, 4, 64, 127
2, 141081, Note_on_c, 2, 62, 127
2, 141434, Note_off_c, 2, 62, 127
2, 141439, Note_on_c, 1, 61, 127
2, 141793, Note_off_c, 12, 71, 127
2, 141797, Note_on_c, 10, 57, 127
2, 141797, Note_on_c, 4, 64, 127
2, 142150, Note_off_c, 4, 64, 127
2, 142150, Note_off_c, 10, 57, 127
2, 142152, Note_off_c, 7, 67, 127
2, 142153, Note_on_c, 10, 57, 127
2, 142153, Note_on_c, 6, 66, 127
2, 142153, Note_on_c, 10, 69, 127
2, 142506, Note_off_c, 10, 69, 127
2, 142506, Note_off_c, 6, 66, 127
2, 142506, Note_off_c, 10, 57, 127
2, 142511, Note_on_c, 10, 57, 127
2, 142511, Note_on_c, 7, 67, 127
2, 142511, Note_on_c, 4, 64, 127
2, 142864, Note_off_c, 4, 64, 127
2, 142864, Note_off_c, 7, 67, 127
2, 142864, Note_off_c, 10, 57, 127
2, 142866, Note_off_c, 1, 61, 127
2, 142868, Note_on_c, 2, 50, 127
2, 142868, Note_on_c, 6, 66, 127
2, 142868, Note_on_c, 2, 62, 127
2, 143226, Note_on_c, 10, 57, 127
2, 143576, Note_off_c, 2, 62, 127
2, 143576, Note_off_c, 2, 50, 127
2, 143581, Note_off_c, 10, 57, 127
2, 143585, Note_on_c, 6, 54, 127
2, 143585, Note_on_c, 2, 62, 127
2, 143938, Note_off_c, 2, 62, 127
2, 143943, Note_on_c, 1, 61, 127
2, 144296, Note_off_c, 1, 61, 127
2, 144296, Note_off_c, 6, 66, 127
2, 144300, Note_on_c, 12, 59, 127
2, 144300, Note_on_c, 8, 68, 127
2, 144657, Note_off_c, 6, 54, 127
2, 144658, Note_on_c, 12, 47, 127
2, 145011, Note_off_c, 12, 47, 127
2, 145016, Note_on_c, 4, 52, 127
2, 145369, Note_off_c, 4, 52, 127
2, 145370, Note_off_c, 12, 59, 127
2, 145373, Note_on_c, 2, 50, 127
2, 145373, Note_on_c, 12, 59, 127
2, 145726, Note_off_c, 12, 59, 127
2, 145726, Note_off_c, 2, 50, 127
2, 145727, Note_off_c, 8, 68, 127
2, 145729, Note_on_c, 1, 49, 127
2, 145729, Note_on_c, 4, 64, 127
2, 145729, Note_on_c, 10, 69, 127
2, 146082, Note_off_c, 4, 64, 127
2, 146082, Note_off_c, 1, 49, 127
2, 146087, Note_on_c, 4, 52, 127
2, 146087, Note_on_c, 12, 47, 127
2, 146087, Note_on_c, 2, 62, 127
2, 146440, Note_off_c, 2, 62, 127
2, 146440, Note_off_c, 12, 47, 127
2, 146440, Note_off_c, 4, 52, 127
2, 146445, Note_on_c, 10, 45, 127
2, 146445, Note_on_c, 10, 57, 127
2, 146445, Note_on_c, 1, 61, 127
2, 146623, Note_off_c, 10, 69, 127
2, 146798, Note_off_c, 10, 57, 127
2, 146803, Note_on_c, 7, 55, 127
2, 146803, Note_on_c, 4, 64, 127
2, 147153, Note_off_c, 10, 45, 127
2, 147158, Note_off_c, 4, 64, 127
2, 147158, Note_off_c, 7, 55, 127
2, 147162, Note_on_c, 6, 54, 127
2, 147162, Note_on_c, 10, 69, 127
2, 147515, Note_off_c, 10, 69, 127
2, 147515, Note_off_c, 6, 54, 127
2, 147520, Note_on_c, 4, 52, 127
2, 147520, Note_on_c, 10, 45, 127
2, 147520, Note_on_c, 7, 67, 127
2, 147873, Note_off_c, 7, 67, 127
2, 147873, Note_off_c, 10, 45, 127
2, 147873, Note_off_c, 4, 52, 127
2, 147874, Note_off_c, 1, 61, 127
2, 147876, Note_on_c, 2, 50, 127
2, 147876, Note_on_c, 6, 66, 127
2, 148234, Note_on_c, 1, 49, 127
2, 148234, Note_on_c, 10, 57, 127
2, 148587, Note_off_c, 10, 57, 127
2, 148587, Note_off_c, 1, 49, 127
2, 148592, Note_on_c, 12, 47, 127
2, 148592, Note_on_c, 2, 62, 127
2, 148938, Note_off_c, 2, 50, 127
2, 148945, Note_off_c, 2, 62, 127
2, 148945, Note_off_c, 12, 47, 127
2, 148950, Note_on_c, 10, 45, 127
2, 148950, Note_on_c, 2, 50, 127
2, 148950, Note_on_c, 1, 61, 127
2, 149303, Note_off_c, 1, 61, 127
2, 149303, Note_off_c, 2, 50, 127
2, 149303, Note_off_c, 10, 45, 127
2, 149304, Note_off_c, 6, 66, 127
2, 149306, Note_on_c, 7, 43, 127
2, 149306, Note_on_c, 7, 55, 127
2, 149306, Note_on_c, 4, 64, 127
2, 149306, Note_on_c, 12, 59, 127
2, 149659, Note_off_c, 4, 64, 127
2, 149659, Note_off_c, 7, 55, 127
2, 149664, Note_on_c, 6, 54, 127
2, 149664, Note_on_c, 2, 62, 127
2, 150014, Note_off_c, 12, 59, 127
2, 150019, Note_off_c, 2, 62, 127
2, 150019, Note_off_c, 6, 54, 127
2, 150023, Note_on_c, 4, 52, 127
2, 150023, Note_on_c, 1, 61, 127
2, 150023, Note_on_c, 10, 57, 127
2, 150379, Note_off_c, 7, 43, 127
2, 150381, Note_on_c, 6, 42, 127
2, 150731, Note_off_c, 4, 52, 127
2, 150735, Note_off_c, 10, 57, 127
2, 150735, Note_off_c, 1, 61, 127
2, 150736, Note_off_c, 6, 42, 127
2, 150740, Note_on_c, 2, 50, 127
2, 150740, Note_on_c, 8, 56, 127
2, 150740, Note_on_c, 12, 47, 127
2, 150740, Note_on_c, 2, 62, 127
2, 151093, Note_off_c, 12, 47, 127
2, 151093, Note_off_c, 8, 56, 127
2, 151093, Note_off_c, 2, 50, 127
2, 151098, Note_on_c, 10, 45, 127
2, 151098, Note_on_c, 1, 49, 127
2, 151098, Note_on_c, 6, 54, 127
2, 151451, Note_off_c, 6, 54, 127
2, 151451, Note_off_c, 1, 49, 127
2, 151451, Note_off_c, 10, 45, 127
2, 151456, Note_on_c, 8, 44, 127
2, 151456, Note_on_c, 12, 47, 127
2, 151456, Note_on_c, 4, 52, 127
2, 151809, Note_off_c, 2, 62, 127
2, 151814, Note_on_c, 12, 71, 127
2, 151988, Note_off_c, 12, 71, 127
2, 151993, Note_on_c, 10, 69, 127
2, 152167, Note_off_c, 10, 69, 127
2, 152172, Note_on_c, 12, 71, 127
2, 152525, Note_off_c, 12, 71, 127
2, 152529, Note_on_c, 2, 62, 127
2, 152882, Note_off_c, 2, 62, 127
2, 152883, Note_off_c, 4, 52, 127
2, 152883, Note_off_c, 12, 47, 127
2, 152883, Note_off_c, 8, 44, 127
2, 152887, Note_on_c, 10, 45, 127
2, 152887, Note_on_c, 4, 52, 127
2, 152887, Note_on_c, 1, 61, 127
2, 153261, Note_on_c, 4, 64, 127
2, 153595, Note_off_c, 1, 61, 127
2, 153599, Note_off_c, 10, 45, 127
2, 153616, Note_off_c, 4, 64, 127
2, 153620, Note_on_c, 4, 64, 127
2, 153620, Note_on_c, 7, 43, 127
2, 153973, Note_off_c, 4, 64, 127
2, 153978, Note_on_c, 4, 64, 127
2, 154331, Note_off_c, 4, 64, 127
2, 154331, Note_off_c, 7, 43, 127
2, 154336, Note_on_c, 10, 57, 127
2, 154336, Note_on_c, 6, 42, 127
2, 154677, Note_off_c, 4, 52, 127
2, 154694, Note_on_c, 4, 64, 127
2, 154694, Note_on_c, 7, 55, 127
2, 155044, Note_off_c, 10, 57, 127
2, 155049, Note_off_c, 7, 55, 127
2, 155049, Note_off_c, 4, 64, 127
2, 155053, Note_on_c, 0, 60, 127
2, 155053, Note_on_c, 10, 69, 127
2, 155053, Note_on_c, 6, 54, 127
2, 155406, Note_off_c, 6, 54, 127
2, 155406, Note_off_c, 10, 69, 127
2, 155411, Note_on_c, 7, 67, 127
2, 155411, Note_on_c, 4, 52, 127
2, 155764, Note_off_c, 4, 52, 127
2, 155764, Note_off_c, 7, 67, 127
2, 155765, Note_off_c, 6, 42, 127
2, 155767, Note_on_c, 6, 66, 127
2, 155767, Note_on_c, 12, 47, 127
2, 155767, Note_on_c, 3, 51, 127
2, 156123, Note_off_c, 0, 60, 127
2, 156125, Note_on_c, 6, 54, 127
2, 156478, Note_off_c, 6, 54, 127
2, 156483, Note_on_c, 12, 59, 127
2, 156836, Note_off_c, 12, 59, 127
2, 156841, Note_on_c, 10, 57, 127
2, 157194, Note_off_c, 10, 57, 127
2, 157194, Note_off_c, 3, 51, 127
2, 157195, Note_off_c, 12, 47, 127
2, 157195, Note_off_c, 6, 66, 127
2, 157197, Note_on_c, 4, 52, 127
2, 157197, Note_on_c, 7, 55, 127
2, 157550, Note_off_c, 7, 55, 127
2, 157550, Note_off_c, 4, 52, 127
2, 157555, Note_on_c, 12, 71, 127
2, 157555, Note_on_c, 12, 59, 127
2, 157555, Note_on_c, 2, 50, 127
2, 157908, Note_off_c, 2, 50, 127
2, 157908, Note_off_c, 12, 59, 127
2, 157908, Note_off_c, 12, 71, 127
2, 157913, Note_on_c, 4, 64, 127
2, 157913, Note_on_c, 12, 71, 127
2, 157913, Note_on_c, 7, 55, 127
2, 158266, Note_off_c, 12, 71, 127
2, 158266, Note_off_c, 4, 64, 127
2, 158271, Note_on_c, 2, 62, 127
2, 158271, Note_on_c, 12, 71, 127
2, 158624, Note_off_c, 12, 71, 127
2, 158624, Note_off_c, 2, 62, 127
2, 158629, Note_on_c, 4, 64, 127
2, 158629, Note_on_c, 1, 61, 127
2, 158982, Note_off_c, 1, 61, 127
2, 158987, Note_on_c, 12, 59, 127
2, 159337, Note_off_c, 4, 64, 127
2, 159341, Note_off_c, 7, 55, 127
2, 159342, Note_off_c, 12, 59, 127
2, 159346, Note_on_c, 7, 67, 127
2, 159346, Note_on_c, 11, 58, 127
2, 159346, Note_on_c, 1, 49, 127
2, 159699, Note_off_c, 1, 49, 127
2, 159699, Note_off_c, 11, 58, 127
2, 159704, Note_on_c, 12, 59, 127
2, 159704, Note_on_c, 2, 50, 127
2, 160057, Note_off_c, 2, 50, 127
2, 160057, Note_off_c, 12, 59, 127
2, 160061, Note_on_c, 1, 61, 127
2, 160061, Note_on_c, 4, 52, 127
2, 160414, Note_off_c, 4, 52, 127
2, 160414, Note_off_c, 1, 61, 127
2, 160416, Note_off_c, 7, 67, 127
2, 160418, Note_on_c, 4, 64, 127
2, 160418, Note_on_c, 1, 61, 127
2, 160418, Note_on_c, 7, 55, 127
2, 160771, Note_off_c, 7, 55, 127
2, 160771, Note_off_c, 1, 61, 127
2, 160771, Note_off_c, 4, 64, 127
2, 160776, Note_on_c, 2, 62, 127
2, 160776, Note_on_c, 6, 66, 127
2, 160776, Note_on_c, 6, 54, 127
2, 160776, Note_on_c, 11, 46, 127
2, 161129, Note_off_c, 6, 66, 127
2, 161129, Note_off_c, 2, 62, 127
2, 161134, Note_on_c, 4, 64, 127
2, 161134, Note_on_c, 1, 61, 127
2, 161487, Note_off_c, 1, 61, 127
2, 161487, Note_off_c, 4, 64, 127
2, 161487, Note_off_c, 11, 46, 127
2, 161491, Note_on_c, 2, 62, 127
2, 161491, Note_on_c, 12, 59, 127
2, 161491, Note_on_c, 12, 47, 127
2, 161844, Note_off_c, 2, 62, 127
2, 161846, Note_off_c, 6, 54, 127
2, 161848, Note_on_c, 6, 66, 127
2, 161848, Note_on_c, 10, 57, 127
2, 162198, Note_off_c, 12, 47, 127
2, 162198, Note_off_c, 12, 59, 127
2, 162203, Note_off_c, 10, 57, 127
2, 162203, Note_off_c, 6, 66, 127
2, 162207, Note_on_c, 12, 71, 127
2, 162207, Note_on_c, 8, 56, 127
2, 162560, Note_off_c, 8, 56, 127
2, 162560, Note_off_c, 12, 71, 127
2, 162565, Note_on_c, 10, 69, 127
2, 162565, Note_on_c, 6, 54, 127
2, 162918, Note_off_c, 6, 54, 127
2, 162918, Note_off_c, 10, 69, 127
2, 162923, Note_on_c, 8, 68, 127
2, 162923, Note_on_c, 4, 52, 127
2, 163276, Note_off_c, 8, 68, 127
2, 163281, Note_on_c, 12, 71, 127
2, 163281, Note_on_c, 2, 50, 127
2, 163634, Note_off_c, 2, 50, 127
2, 163634, Note_off_c, 12, 71, 127
2, 163638, Note_on_c, 4, 76, 127
2, 163638, Note_on_c, 1, 49, 127
2, 163991, Note_off_c, 1, 49, 127
2, 163991, Note_off_c, 4, 76, 127
2, 163996, Note_on_c, 2, 74, 127
2, 163996, Note_on_c, 12, 47, 127
2, 164349, Note_off_c, 12, 47, 127
2, 164349, Note_off_c, 2, 74, 127
2, 164354, Note_on_c, 1, 73, 127
2, 164354, Note_on_c, 10, 45, 127
2, 164712, Note_off_c, 4, 52, 127
2, 164712, Note_on_c, 10, 69, 127
2, 164712, Note_on_c, 4, 52, 127
2, 165062, Note_off_c, 10, 45, 127
2, 165062, Note_off_c, 1, 73, 127
2, 165067, Note_off_c, 4, 52, 127
2, 165067, Note_off_c, 10, 69, 127
2, 165071, Note_on_c, 10, 69, 127
2, 165071, Note_on_c, 10, 57, 127
2, 165424, Note_off_c, 10, 57, 127
2, 165424, Note_off_c, 10, 69, 127
2, 165429, Note_on_c, 10, 69, 127
2, 165429, Note_on_c, 10, 45, 127
2, 165429, Note_on_c, 7, 55, 127
2, 165782, Note_off_c, 7, 55, 127
2, 165782, Note_off_c, 10, 45, 127
2, 165782, Note_off_c, 10, 69, 127
2, 165787, Note_on_c, 2, 62, 127
2, 165787, Note_on_c, 12, 47, 127
2, 165787, Note_on_c, 6, 54, 127
2, 166140, Note_off_c, 6, 54, 127
2, 166145, Note_on_c, 2, 74, 127
2, 166145, Note_on_c, 4, 52, 127
2, 166495, Note_off_c, 12, 47, 127
2, 166495, Note_off_c, 2, 62, 127
2, 166500, Note_off_c, 4, 52, 127
2, 166500, Note_off_c, 2, 74, 127
2, 166504, Note_on_c, 6, 66, 127
2, 166504, Note_on_c, 2, 74, 127
2, 166504, Note_on_c, 2, 50, 127
2, 166857, Note_off_c, 2, 74, 127
2, 166862, Note_on_c, 2, 74, 127
2, 166862, Note_on_c, 12, 47, 127
2, 167212, Note_off_c, 2, 50, 127
2, 167217, Note_off_c, 12, 47, 127
2, 167217, Note_off_c, 2, 74, 127
2, 167221, Note_on_c, 7, 67, 127
2, 167221, Note_on_c, 4, 52, 127
2, 167221, Note_on_c, 4, 40, 127
2, 167574, Note_off_c, 4, 52, 127
2, 167576, Note_off_c, 6, 66, 127
2, 167578, Note_on_c, 12, 59, 127
2, 167578, Note_on_c, 6, 54, 127
2, 167928, Note_off_c, 4, 40, 127
2, 167928, Note_off_c, 7, 67, 127
2, 167933, Note_off_c, 6, 54, 127
2, 167933, Note_off_c, 12, 59, 127
2, 167937, Note_on_c, 4, 64, 127
2, 167937, Note_on_c, 12, 71, 127
2, 167937, Note_on_c, 7, 55, 127
2, 168290, Note_off_c, 4, 64, 127
2, 168295, Note_on_c, 2, 62, 127
2, 168295, Note_on_c, 4, 52, 127
2, 168648, Note_off_c, 4, 52, 127
2, 168648, Note_off_c, 2, 62, 127
2, 168652, Note_on_c, 1, 61, 127
2, 168652, Note_on_c, 10, 45, 127
2, 169009, Note_off_c, 7, 55, 127
2, 169009, Note_off_c, 12, 71, 127
2, 169010, Note_on_c, 4, 64, 127
2, 169010, Note_on_c, 7, 55, 127
2, 169360, Note_off_c, 10, 45, 127
2, 169365, Note_off_c, 7, 55, 127
2, 169365, Note_off_c, 4, 64, 127
2, 169370, Note_on_c, 10, 69, 127
2, 169370, Note_on_c, 6, 54, 127
2, 169723, Note_off_c, 6, 54, 127
2, 169723, Note_off_c, 10, 69, 127
2, 169727, Note_on_c, 7, 67, 127
2, 169727, Note_on_c, 4, 52, 127
2, 169727, Note_on_c, 10, 45, 127
2, 170080, Note_off_c, 10, 45, 127
2, 170080, Note_off_c, 4, 52, 127
2, 170080, Note_off_c, 7, 67, 127
2, 170081, Note_off_c, 1, 61, 127
2, 170084, Note_on_c, 6, 66, 127
2, 170084, Note_on_c, 2, 50, 127
2, 170084, Note_on_c, 2, 38, 127
2, 170442, Note_on_c, 10, 57, 127
2, 170792, Note_off_c, 2, 38, 127
2, 170792, Note_off_c, 2, 50, 127
2, 170792, Note_off_c, 6, 66, 127
2, 170797, Note_off_c, 10, 57, 127
2, 170801, Note_on_c, 2, 62, 127
2, 171154, Note_off_c, 2, 62, 127
2, 171159, Note_on_c, 0, 60, 127
2, 171159, Note_on_c, 10, 69, 127
2, 171512, Note_off_c, 10, 69, 127
2, 171512, Note_off_c, 0, 60, 127
2, 171517, Note_on_c, 12, 59, 127
2, 171517, Note_on_c, 2, 74, 127
2, 171870, Note_off_c, 2, 74, 127
2, 171870, Note_off_c, 12, 59, 127
2, 171874, Note_on_c, 2, 62, 127
2, 171874, Note_on_c, 0, 72, 127
2, 172227, Note_off_c, 0, 72, 127
2, 172227, Note_off_c, 2, 62, 127
2, 172232, Note_on_c, 7, 67, 127
2, 172232, Note_on_c, 12, 71, 127
2, 172585, Note_off_c, 12, 71, 127
2, 172585, Note_off_c, 7, 67, 127
2, 172590, Note_on_c, 2, 74, 127
2, 172590, Note_on_c, 6, 66, 127
2, 172943, Note_off_c, 6, 66, 127
2, 172943, Note_off_c, 2, 74, 127
2, 172948, Note_on_c, 4, 64, 127
2, 172948, Note_on_c, 7, 79, 127
2, 173301, Note_off_c, 4, 64, 127
2, 173306, Note_on_c, 2, 62, 127
2, 173306, Note_on_c, 4, 52, 127
2, 173656, Note_off_c, 7, 79, 127
2, 173661, Note_off_c, 4, 52, 127
2, 173661, Note_off_c, 2, 62, 127
2, 173665, Note_on_c, 1, 61, 127
2, 173665, Note_on_c, 6, 78, 127
2, 173665, Note_on_c, 10, 57, 127
2, 174018, Note_off_c, 10, 57, 127
2, 174018, Note_off_c, 6, 78, 127
2, 174023, Note_on_c, 4, 76, 127
2, 174023, Note_on_c, 7, 55, 127
2, 174373, Note_off_c, 1, 61, 127
2, 174378, Note_off_c, 7, 55, 127
2, 174378, Note_off_c, 4, 76, 127
2, 174382, Note_on_c, 10, 81, 127
2, 174382, Note_on_c, 2, 62, 127
2, 174382, Note_on_c, 6, 54, 127
2, 174735, Note_off_c, 6, 54, 127
2, 174735, Note_off_c, 2, 62, 127
2, 174735, Note_off_c, 10, 81, 127
2, 174740, Note_on_c, 4, 64, 127
2, 174740, Note_on_c, 7, 79, 127
2, 174740, Note_on_c, 10, 57, 127
2, 175093, Note_off_c, 10, 57, 127
2, 175093, Note_off_c, 7, 79, 127
2, 175093, Note_off_c, 4, 64, 127
2, 175098, Note_on_c, 6, 78, 127
2, 175098, Note_on_c, 6, 66, 127
2, 175098, Note_on_c, 2, 62, 127
2, 175451, Note_off_c, 2, 62, 127
2, 175451, Note_off_c, 6, 78, 127
2, 175456, Note_on_c, 4, 76, 127
2, 175456, Note_on_c, 1, 61, 127
2, 175809, Note_off_c, 1, 61, 127
2, 175809, Note_off_c, 4, 76, 127
2, 175814, Note_on_c, 2, 74, 127
2, 175814, Note_on_c, 12, 59, 127
2, 176171, Note_on_c, 12, 47, 127
2, 176522, Note_off_c, 12, 59, 127
2, 176526, Note_off_c, 12, 47, 127
2, 176526, Note_off_c, 2, 74, 127
2, 176527, Note_off_c, 6, 66, 127
2, 176529, Note_on_c, 1, 73, 127
2, 176529, Note_on_c, 8, 68, 127
2, 176529, Note_on_c, 4, 52, 127
2, 176882, Note_off_c, 4, 52, 127
2, 176882, Note_off_c, 1, 73, 127
2, 176887, Note_on_c, 12, 71, 127
2, 176887, Note_on_c, 2, 50, 127
2, 177240, Note_off_c, 2, 50, 127
2, 177240, Note_off_c, 12, 71, 127
2, 177245, Note_on_c, 4, 76, 127
2, 177245, Note_on_c, 1, 49, 127
2, 177598, Note_off_c, 1, 49, 127
2, 177598, Note_off_c, 4, 76, 127
2, 177603, Note_on_c, 2, 74, 127
2, 177603, Note_on_c, 12, 59, 127
2, 177603, Note_on_c, 4, 52, 127
2, 177956, Note_off_c, 4, 52, 127
2, 177956, Note_off_c, 12, 59, 127
2, 177956, Note_off_c, 2, 74, 127
2, 177957, Note_off_c, 8, 68, 127
2, 177959, Note_on_c, 1, 73, 127
2, 177959, Note_on_c, 10, 69, 127
2, 177959, Note_on_c, 1, 61, 127
2, 177959, Note_on_c, 10, 57, 127
2, 178312, Note_off_c, 10, 57, 127
2, 178312, Note_off_c, 10, 69, 127
2, 178312, Note_off_c, 1, 73, 127
2, 178317, Note_on_c, 12, 71, 127
2, 178317, Note_on_c, 4, 64, 127
2, 178317, Note_on_c, 8, 56, 127
2, 178670, Note_off_c, 8, 56, 127
2, 178670, Note_off_c, 4, 64, 127
2, 178670, Note_off_c, 12, 71, 127
2, 178675, Note_on_c, 10, 69, 127
2, 178675, Note_on_c, 6, 54, 127
2, 179028, Note_off_c, 6, 54, 127
2, 179028, Note_off_c, 10, 69, 127
2, 179029, Note_off_c, 1, 61, 127
2, 179031, Note_on_c, 8, 68, 127
2, 179031, Note_on_c, 1, 73, 127
2, 179031, Note_on_c, 4, 52, 127
2, 179031, Note_on_c, 10, 57, 127
2, 179384, Note_off_c, 10, 57, 127
2, 179384, Note_off_c, 4, 52, 127
2, 179384, Note_off_c, 1, 73, 127
2, 179384, Note_off_c, 8, 68, 127
2, 179389, Note_on_c, 6, 66, 127
2, 179389, Note_on_c, 12, 71, 127
2, 179389, Note_on_c, 2, 62, 127
2, 179389, Note_on_c, 2, 50, 127
2, 179742, Note_off_c, 2, 62, 127
2, 179742, Note_off_c, 12, 71, 127
2, 179747, Note_on_c, 10, 69, 127
2, 179747, Note_on_c, 1, 61, 127
2, 180097, Note_off_c, 6, 66, 127
2, 180102, Note_off_c, 1, 61, 127
2, 180102, Note_off_c, 10, 69, 127
2, 180106, Note_on_c, 4, 64, 127
2, 180106, Note_on_c, 8, 68, 127
2, 180106, Note_on_c, 12, 59, 127
2, 180459, Note_off_c, 8, 68, 127
2, 180459, Note_off_c, 4, 64, 127
2, 180461, Note_off_c, 2, 50, 127
2, 180463, Note_on_c, 4, 64, 127
2, 180463, Note_on_c, 1, 49, 127
2, 180813, Note_off_c, 12, 59, 127
2, 180818, Note_off_c, 1, 49, 127
2, 180818, Note_off_c, 4, 64, 127
2, 180822, Note_on_c, 2, 62, 127
2, 180822, Note_on_c, 10, 69, 127
2, 180822, Note_on_c, 6, 54, 127
2, 180822, Note_on_c, 10, 57, 127
2, 181175, Note_off_c, 10, 57, 127
2, 181175, Note_off_c, 6, 54, 127
2, 181175, Note_off_c, 2, 62, 127
2, 181180, Note_on_c, 1, 61, 127
2, 181180, Note_on_c, 8, 56, 127
2, 181180, Note_on_c, 4, 52, 127
2, 181533, Note_off_c, 4, 52, 127
2, 181533, Note_off_c, 8, 56, 127
2, 181533, Note_off_c, 1, 61, 127
2, 181538, Note_on_c, 12, 59, 127
2, 181538, Note_on_c, 2, 50, 127
2, 181538, Note_on_c, 6, 54, 127
2, 181891, Note_off_c, 12, 59, 127
2, 181895, Note_on_c, 1, 61, 127
2, 182248, Note_off_c, 1, 61, 127
2, 182249, Note_off_c, 6, 54, 127
2, 182249, Note_off_c, 2, 50, 127
2, 182253, Note_on_c, 2, 62, 127
2, 182253, Note_on_c, 4, 52, 127
2, 182611, Note_off_c, 10, 69, 127
2, 182611, Note_on_c, 8, 68, 127
2, 182964, Note_off_c, 8, 68, 127
2, 182969, Note_on_c, 10, 69, 127
2, 182969, Note_on_c, 10, 45, 127
2, 183325, Note_off_c, 2, 62, 127
2, 183343, Note_on_c, 1, 61, 127
2, 183681, Note_off_c, 4, 52, 127
2, 183696, Note_off_c, 1, 61, 127
2, 183699, Note_on_c, 6, 66, 127
2, 183862, Note_off_c, 10, 45, 127
2, 184052, Note_off_c, 6, 66, 127
2, 184057, Note_on_c, 6, 42, 127
2, 184057, Note_on_c, 4, 64, 127
2, 184410, Note_off_c, 4, 64, 127
2, 184410, Note_off_c, 6, 42, 127
2, 184415, Note_on_c, 12, 47, 127
2, 184415, Note_on_c, 3, 63, 127
2, 184756, Note_off_c, 10, 69, 127
2, 184773, Note_on_c, 12, 59, 127
2, 184773, Note_on_c, 6, 66, 127
2, 185123, Note_off_c, 3, 63, 127
2, 185123, Note_off_c, 12, 47, 127
2, 185128, Note_off_c, 6, 66, 127
2, 185128, Note_off_c, 12, 59, 127
2, 185132, Note_on_c, 12, 59, 127
2, 185132, Note_on_c, 12, 71, 127
2, 185485, Note_off_c, 12, 71, 127
2, 185485, Note_off_c, 12, 59, 127
2, 185490, Note_on_c, 12, 59, 127
2, 185490, Note_on_c, 10, 69, 127
2, 185843, Note_off_c, 10, 69, 127
2, 185843, Note_off_c, 12, 59, 127
2, 185848, Note_on_c, 4, 52, 127
2, 185848, Note_on_c, 7, 67, 127
2, 186205, Note_on_c, 2, 50, 127
2, 186205, Note_on_c, 12, 59, 127
2, 186556, Note_off_c, 7, 67, 127
2, 186556, Note_off_c, 4, 52, 127
2, 186560, Note_off_c, 12, 59, 127
2, 186560, Note_off_c, 2, 50, 127
2, 186565, Note_on_c, 1, 49, 127
2, 186565, Note_on_c, 7, 55, 127
2, 186565, Note_on_c, 4, 64, 127
2, 186918, Note_off_c, 4, 64, 127
2, 186918, Note_off_c, 1, 49, 127
2, 186923, Note_on_c, 12, 47, 127
2, 186923, Note_on_c, 2, 62, 127
2, 187276, Note_off_c, 2, 62, 127
2, 187276, Note_off_c, 12, 47, 127
2, 187280, Note_on_c, 11, 46, 127
2, 187280, Note_on_c, 1, 61, 127
2, 187633, Note_off_c, 1, 61, 127
2, 187635, Note_off_c, 7, 55, 127
2, 187653, Note_on_c, 6, 78, 127
2, 187653, Note_on_c, 1, 49, 127
2, 187987, Note_off_c, 11, 46, 127
2, 188008, Note_off_c, 1, 49, 127
2, 188008, Note_off_c, 6, 78, 127
2, 188012, Note_on_c, 6, 78, 127
2, 188012, Note_on_c, 6, 54, 127
2, 188365, Note_off_c, 6, 54, 127
2, 188365, Note_off_c, 6, 78, 127
2, 188370, Note_on_c, 6, 78, 127
2, 188370, Note_on_c, 11, 46, 127
2, 188370, Note_on_c, 4, 52, 127
2, 188723, Note_off_c, 4, 52, 127
2, 188723, Note_off_c, 11, 46, 127
2, 188723, Note_off_c, 6, 78, 127
2, 188728, Note_on_c, 12, 71, 127
2, 188728, Note_on_c, 10, 45, 127
2, 188728, Note_on_c, 3, 51, 127
2, 189081, Note_off_c, 3, 51, 127
2, 189081, Note_off_c, 12, 71, 127
2, 189086, Note_on_c, 12, 71, 127
2, 189086, Note_on_c, 5, 53, 127
2, 189260, Note_off_c, 5, 53, 127
2, 189265, Note_on_c, 6, 54, 127
2, 189436, Note_off_c, 10, 45, 127
2, 189441, Note_off_c, 6, 54, 127
2, 189441, Note_off_c, 12, 71, 127
2, 189445, Note_on_c, 2, 74, 127
2, 189445, Note_on_c, 12, 71, 127
2, 189445, Note_on_c, 5, 53, 127
2, 189798, Note_off_c, 12, 71, 127
2, 189803, Note_on_c, 12, 71, 127
2, 189803, Note_on_c, 8, 44, 127
2, 190153, Note_off_c, 5, 53, 127
2, 190158, Note_off_c, 8, 44, 127
2, 190158, Note_off_c, 12, 71, 127
2, 190162, Note_on_c, 4, 64, 127
2, 190162, Note_on_c, 1, 49, 127
2, 190518, Note_off_c, 2, 74, 127
2, 190520, Note_on_c, 8, 68, 127
2, 190520, Note_on_c, 12, 59, 127
2, 190870, Note_off_c, 1, 49, 127
2, 190870, Note_off_c, 4, 64, 127
2, 190875, Note_off_c, 12, 59, 127
2, 190875, Note_off_c, 8, 68, 127
2, 190879, Note_on_c, 7, 67, 127
2, 190879, Note_on_c, 1, 73, 127
2, 190879, Note_on_c, 11, 58, 127
2, 191232, Note_off_c, 11, 58, 127
2, 191232, Note_off_c, 1, 73, 127
2, 191237, Note_on_c, 12, 71, 127
2, 191237, Note_on_c, 1, 61, 127
2, 191237, Note_on_c, 4, 52, 127
2, 191590, Note_off_c, 4, 52, 127
2, 191590, Note_off_c, 12, 71, 127
2, 191595, Note_on_c, 11, 70, 127
2, 191595, Note_on_c, 6, 42, 127
2, 191945, Note_off_c, 1, 61, 127
2, 191950, Note_off_c, 6, 42, 127
2, 191951, Note_off_c, 7, 67, 127
2, 191953, Note_on_c, 1, 61, 127
2, 191953, Note_on_c, 4, 64, 127
2, 191953, Note_on_c, 6, 54, 127
2, 192303, Note_off_c, 11, 70, 127
2, 192308, Note_off_c, 6, 54, 127
2, 192308, Note_off_c, 4, 64, 127
2, 192308, Note_off_c, 1, 61, 127
2, 192312, Note_on_c, 12, 71, 127
2, 192312, Note_on_c, 6, 66, 127
2, 192312, Note_on_c, 2, 62, 127
2, 192312, Note_on_c, 8, 56, 127
2, 192665, Note_off_c, 8, 56, 127
2, 192665, Note_off_c, 2, 62, 127
2, 192665, Note_off_c, 6, 66, 127
2, 192665, Note_off_c, 12, 71, 127
2, 192670, Note_on_c, 4, 64, 127
2, 192670, Note_on_c, 1, 73, 127
2, 192670, Note_on_c, 11, 58, 127
2, 192670, Note_on_c, 1, 61, 127
2, 193023, Note_off_c, 1, 61, 127
2, 193023, Note_off_c, 11, 58, 127
2, 193023, Note_off_c, 1, 73, 127
2, 193023, Note_off_c, 4, 64, 127
2, 193028, Note_on_c, 2, 74, 127
2, 193028, Note_on_c, 2, 62, 127
2, 193028, Note_on_c, 12, 59, 127
2, 193381, Note_off_c, 2, 62, 127
2, 193385, Note_on_c, 6, 66, 127
2, 193385, Note_on_c, 10, 57, 127
2, 193738, Note_off_c, 10, 57, 127
2, 193738, Note_off_c, 6, 66, 127
2, 193743, Note_on_c, 12, 71, 127
2, 193743, Note_on_c, 8, 56, 127
2, 194096, Note_off_c, 8, 56, 127
2, 194096, Note_off_c, 12, 71, 127
2, 194101, Note_on_c, 10, 69, 127
2, 194101, Note_on_c, 6, 54, 127
2, 194454, Note_off_c, 6, 54, 127
2, 194454, Note_off_c, 10, 69, 127
2, 194459, Note_on_c, 8, 68, 127
2, 194459, Note_on_c, 5, 53, 127
2, 194817, Note_off_c, 12, 59, 127
2, 194817, Note_on_c, 8, 56, 127
2, 195170, Note_off_c, 8, 56, 127
2, 195170, Note_off_c, 2, 74, 127
2, 195175, Note_on_c, 1, 73, 127
2, 195175, Note_on_c, 1, 61, 127
2, 195528, Note_off_c, 1, 61, 127
2, 195532, Note_on_c, 12, 59, 127
2, 195885, Note_off_c, 12, 59, 127
2, 195887, Note_off_c, 5, 53, 127
2, 195889, Note_on_c, 10, 57, 127
2, 196246, Note_off_c, 8, 68, 127
2, 196247, Note_on_c, 1, 61, 127
2, 196247, Note_on_c, 6, 54, 127
2, 196600, Note_off_c, 6, 54, 127
2, 196600, Note_off_c, 1, 61, 127
2, 196604, Note_on_c, 6, 66, 127
2, 196604, Note_on_c, 6, 54, 127
2, 196957, Note_off_c, 6, 54, 127
2, 196957, Note_off_c, 6, 66, 127
2, 196962, Note_on_c, 4, 64, 127
2, 196962, Note_on_c, 6, 54, 127
2, 197315, Note_off_c, 6, 54, 127
2, 197315, Note_off_c, 4, 64, 127
2, 197320, Note_on_c, 2, 62, 127
2, 197320, Note_on_c, 12, 47, 127
2, 197678, Note_off_c, 10, 57, 127
2, 197678, Note_on_c, 12, 71, 127
2, 197678, Note_on_c, 6, 54, 127
2, 197689, Note_off_c, 1, 73, 127
2, 197854, Note_off_c, 12, 71, 127
2, 197858, Note_on_c, 10, 69, 127
2, 198030, Note_off_c, 12, 47, 127
2, 198034, Note_off_c, 10, 69, 127
2, 198034, Note_off_c, 6, 54, 127
2, 198039, Note_on_c, 8, 68, 127
2, 198039, Note_on_c, 2, 50, 127
2, 198039, Note_on_c, 12, 59, 127
2, 198392, Note_off_c, 12, 59, 127
2, 198392, Note_off_c, 8, 68, 127
2, 198393, Note_off_c, 2, 62, 127
2, 198395, Note_on_c, 6, 66, 127
2, 198395, Note_on_c, 1, 61, 127
2, 198395, Note_on_c, 10, 57, 127
2, 198748, Note_off_c, 10, 57, 127
2, 198748, Note_off_c, 1, 61, 127
2, 198748, Note_off_c, 6, 66, 127
2, 198753, Note_on_c, 12, 59, 127
2, 198753, Note_on_c, 5, 65, 127
2, 198753, Note_on_c, 8, 56, 127
2, 199109, Note_off_c, 2, 50, 127
2, 199111, Note_on_c, 8, 44, 127
2, 199464, Note_off_c, 8, 44, 127
2, 199469, Note_on_c, 1, 49, 127
2, 199822, Note_off_c, 1, 49, 127
2, 199826, Note_on_c, 12, 47, 127
2, 200179, Note_off_c, 12, 47, 127
2, 200181, Note_off_c, 12, 59, 127
2, 200183, Note_on_c, 10, 45, 127
2, 200540, Note_off_c, 8, 56, 127
2, 200541, Note_on_c, 1, 61, 127
2, 200541, Note_on_c, 10, 57, 127
2, 200541, Note_on_c, 6, 54, 127
2, 200715, Note_off_c, 6, 54, 127
2, 200715, Note_off_c, 10, 57, 127
2, 200720, Note_on_c, 12, 59, 127
2, 200720, Note_on_c, 8, 56, 127
2, 200894, Note_off_c, 8, 56, 127
2, 200894, Note_off_c, 12, 59, 127
2, 200894, Note_off_c, 1, 61, 127
2, 200894, Note_off_c, 5, 65, 127
2, 200899, Note_on_c, 1, 61, 127
2, 200899, Note_on_c, 6, 66, 127
2, 200899, Note_on_c, 10, 57, 127
2, 201252, Note_off_c, 1, 61, 127
2, 201253, Note_off_c, 10, 45, 127
2, 201255, Note_on_c, 2, 62, 127
2, 201255, Note_on_c, 12, 47, 127
2, 201606, Note_off_c, 10, 57, 127
2, 201610, Note_off_c, 12, 47, 127
2, 201610, Note_off_c, 2, 62, 127
2, 201614, Note_on_c, 1, 61, 127
2, 201614, Note_on_c, 8, 56, 127
2, 201614, Note_on_c, 1, 49, 127
2, 201967, Note_off_c, 8, 56, 127
2, 201972, Note_on_c, 6, 54, 127
2, 202325, Note_off_c, 6, 54, 127
2, 202327, Note_off_c, 6, 66, 127
2, 202329, Note_on_c, 5, 65, 127
2, 202329, Note_on_c, 8, 56, 127
2, 202684, Note_off_c, 1, 61, 127
2, 202686, Note_on_c, 12, 59, 127
2, 203037, Note_off_c, 5, 65, 127
2, 203041, Note_off_c, 12, 59, 127
2, 203041, Note_off_c, 8, 56, 127
2, 203042, Note_off_c, 1, 49, 127
2, 203044, Note_on_c, 10, 57, 127
2, 203044, Note_on_c, 6, 66, 127
2, 203044, Note_on_c, 6, 54, 127
2, 203044, Note_on_c, 6, 42, 127
2, 203397, Note_off_c, 6, 42, 127
2, 203397, Note_off_c, 6, 54, 127
2, 203397, Note_off_c, 10, 57, 127
2, 203434, Note_on_c, 10, 57, 127
2, 203787, Note_off_c, 10, 57, 127
2, 203792, Note_on_c, 10, 57, 127
2, 203938, Note_off_c, 6, 66, 127
2, 204145, Note_off_c, 10, 57, 127
2, 204150, Note_on_c, 10, 81, 127
2, 204150, Note_on_c, 10, 57, 127
2, 204503, Note_off_c, 10, 57, 127
2, 204503, Note_off_c, 10, 81, 127
2, 204508, Note_on_c, 10, 81, 127
2, 204508, Note_on_c, 2, 50, 127
2, 204861, Note_off_c, 10, 81, 127
2, 204865, Note_on_c, 10, 69, 127
2, 204865, Note_on_c, 10, 81, 127
2, 205218, Note_off_c, 10, 81, 127
2, 205218, Note_off_c, 10, 69, 127
2, 205219, Note_off_c, 2, 50, 127
2, 205223, Note_on_c, 10, 69, 127
2, 205223, Note_on_c, 2, 74, 127
2, 205223, Note_on_c, 6, 54, 127
2, 205576, Note_off_c, 10, 69, 127
2, 205581, Note_on_c, 10, 69, 127
2, 205931, Note_off_c, 2, 74, 127
2, 205936, Note_off_c, 10, 69, 127
2, 205940, Note_on_c, 2, 62, 127
2, 205940, Note_on_c, 6, 78, 127
2, 206293, Note_off_c, 2, 62, 127
2, 206293, Note_off_c, 6, 54, 127
2, 206298, Note_on_c, 2, 50, 127
2, 206298, Note_on_c, 12, 47, 127
2, 206651, Note_off_c, 12, 47, 127
2, 206651, Note_off_c, 2, 50, 127
2, 206656, Note_on_c, 7, 55, 127
2, 206656, Note_on_c, 4, 52, 127
2, 207009, Note_off_c, 4, 52, 127
2, 207009, Note_off_c, 7, 55, 127
2, 207009, Note_off_c, 6, 78, 127
2, 207014, Note_on_c, 12, 71, 127
2, 207014, Note_on_c, 2, 50, 127
2, 207014, Note_on_c, 6, 54, 127
2, 207367, Note_off_c, 6, 54, 127
2, 207367, Note_off_c, 2, 50, 127
2, 207367, Note_off_c, 12, 71, 127
2, 207372, Note_on_c, 4, 76, 127
2, 207372, Note_on_c, 4, 52, 127
2, 207372, Note_on_c, 1, 49, 127
2, 207725, Note_off_c, 1, 49, 127
2, 207725, Note_off_c, 4, 76, 127
2, 207730, Note_on_c, 4, 64, 127
2, 207730, Note_on_c, 2, 74, 127
2, 207730, Note_on_c, 12, 47, 127
2, 208080, Note_off_c, 4, 52, 127
2, 208085, Note_off_c, 12, 47, 127
2, 208085, Note_off_c, 2, 74, 127
2, 208085, Note_off_c, 4, 64, 127
2, 208089, Note_on_c, 10, 69, 127
2, 208089, Note_on_c, 1, 73, 127
2, 208089, Note_on_c, 10, 45, 127
2, 208442, Note_off_c, 10, 69, 127
2, 208447, Note_on_c, 7, 67, 127
2, 208447, Note_on_c, 10, 57, 127
2, 208797, Note_off_c, 10, 45, 127
2, 208797, Note_off_c, 1, 73, 127
2, 208802, Note_off_c, 10, 57, 127
2, 208802, Note_off_c, 7, 67, 127
2, 208806, Note_on_c, 6, 66, 127
2, 208806, Note_on_c, 2, 62, 127
2, 209159, Note_off_c, 2, 62, 127
2, 209164, Note_on_c, 10, 69, 127
2, 209164, Note_on_c, 0, 60, 127
2, 209514, Note_off_c, 6, 66, 127
2, 209519, Note_off_c, 0, 60, 127
2, 209519, Note_off_c, 10, 69, 127
2, 209523, Note_on_c, 2, 74, 127
2, 209523, Note_on_c, 12, 59, 127
2, 209876, Note_off_c, 2, 74, 127
2, 209881, Note_on_c, 2, 62, 127
2, 209881, Note_on_c, 0, 72, 127
2, 210234, Note_off_c, 0, 72, 127
2, 210234, Note_off_c, 2, 62, 127
2, 210239, Note_on_c, 7, 67, 127
2, 210239, Note_on_c, 12, 71, 127
2, 210592, Note_off_c, 7, 67, 127
2, 210592, Note_off_c, 12, 59, 127
2, 210597, Note_on_c, 6, 66, 127
2, 210597, Note_on_c, 10, 57, 127
2, 210597, Note_on_c, 12, 47, 127
2, 210947, Note_off_c, 12, 71, 127
2, 210952, Note_off_c, 12, 47, 127
2, 210952, Note_off_c, 10, 57, 127
2, 210952, Note_off_c, 6, 66, 127
2, 210956, Note_on_c, 4, 64, 127
2, 210956, Note_on_c, 7, 55, 127
2, 210956, Note_on_c, 4, 52, 127
2, 211309, Note_off_c, 4, 52, 127
2, 211314, Note_on_c, 12, 71, 127
2, 211314, Note_on_c, 2, 50, 127
2, 211664, Note_off_c, 7, 55, 127
2, 211664, Note_off_c, 4, 64, 127
2, 211669, Note_off_c, 2, 50, 127
2, 211669, Note_off_c, 12, 71, 127
2, 211673, Note_on_c, 4, 76, 127
2, 211673, Note_on_c, 0, 48, 127
2, 212026, Note_off_c, 0, 48, 127
2, 212026, Note_off_c, 4, 76, 127
2, 212031, Note_on_c, 2, 74, 127
2, 212031, Note_on_c, 4, 52, 127
2, 212031, Note_on_c, 12, 47, 127
2, 212384, Note_off_c, 12, 47, 127
2, 212384, Note_off_c, 4, 52, 127
2, 212384, Note_off_c, 2, 74, 127
2, 212389, Note_on_c, 0, 72, 127
2, 212389, Note_on_c, 10, 57, 127
2, 212389, Note_on_c, 10, 45, 127
2, 212742, Note_off_c, 10, 57, 127
2, 212746, Note_on_c, 4, 64, 127
2, 212746, Note_on_c, 7, 55, 127
2, 213099, Note_off_c, 7, 55, 127
2, 213099, Note_off_c, 4, 64, 127
2, 213104, Note_on_c, 10, 69, 127
2, 213104, Note_on_c, 6, 54, 127
2, 213457, Note_off_c, 6, 54, 127
2, 213457, Note_off_c, 10, 69, 127
2, 213462, Note_on_c, 7, 67, 127
2, 213462, Note_on_c, 4, 52, 127
2, 213815, Note_off_c, 4, 52, 127
2, 213815, Note_off_c, 7, 67, 127
2, 213817, Note_off_c, 10, 45, 127
2, 213818, Note_on_c, 6, 66, 127
2, 213818, Note_on_c, 12, 47, 127
2, 213818, Note_on_c, 2, 50, 127
2, 214171, Note_off_c, 2, 50, 127
2, 214171, Note_off_c, 6, 66, 127
2, 214176, Note_on_c, 2, 62, 127
2, 214176, Note_on_c, 6, 54, 127
2, 214529, Note_off_c, 6, 54, 127
2, 214529, Note_off_c, 2, 62, 127
2, 214530, Note_off_c, 0, 72, 127
2, 214534, Note_on_c, 12, 71, 127
2, 214534, Note_on_c, 7, 67, 127
2, 214534, Note_on_c, 12, 59, 127
2, 214887, Note_off_c, 12, 59, 127
2, 214887, Note_off_c, 7, 67, 127
2, 214888, Note_off_c, 12, 47, 127
2, 214891, Note_on_c, 6, 66, 127
2, 214891, Note_on_c, 2, 50, 127
2, 214891, Note_on_c, 10, 57, 127
2, 215244, Note_off_c, 10, 57, 127
2, 215244, Note_off_c, 2, 50, 127
2, 215244, Note_off_c, 6, 66, 127
2, 215248, Note_on_c, 4, 64, 127
2, 215248, Note_on_c, 7, 55, 127
2, 215601, Note_off_c, 4, 64, 127
2, 215606, Note_on_c, 2, 62, 127
2, 215606, Note_on_c, 6, 54, 127
2, 215959, Note_off_c, 6, 54, 127
2, 215959, Note_off_c, 2, 62, 127
2, 215964, Note_on_c, 0, 60, 127
2, 215964, Note_on_c, 4, 52, 127
2, 216317, Note_off_c, 4, 52, 127
2, 216318, Note_off_c, 7, 55, 127
2, 216320, Note_off_c, 12, 71, 127
2, 216321, Note_on_c, 10, 69, 127
2, 216321, Note_on_c, 10, 57, 127
2, 216321, Note_on_c, 6, 54, 127
2, 216671, Note_off_c, 0, 60, 127
2, 216676, Note_off_c, 6, 54, 127
2, 216676, Note_off_c, 10, 57, 127
2, 216680, Note_on_c, 12, 59, 127
2, 216680, Note_on_c, 7, 55, 127
2, 217031, Note_off_c, 10, 69, 127
2, 217035, Note_off_c, 7, 55, 127
2, 217039, Note_on_c, 7, 67, 127
2, 217039, Note_on_c, 4, 64, 127
2, 217039, Note_on_c, 4, 52, 127
2, 217390, Note_off_c, 12, 59, 127
2, 217394, Note_off_c, 4, 52, 127
2, 217394, Note_off_c, 4, 64, 127
2, 217398, Note_on_c, 4, 64, 127
2, 217398, Note_on_c, 10, 57, 127
2, 217398, Note_on_c, 0, 48, 127
2, 217749, Note_off_c, 7, 67, 127
2, 217753, Note_off_c, 0, 48, 127
2, 217758, Note_on_c, 6, 66, 127
2, 217758, Note_on_c, 10, 45, 127
2, 217921, Note_off_c, 4, 64, 127
2, 217934, Note_off_c, 6, 66, 127
2, 217938, Note_on_c, 4, 64, 127
2, 218112, Note_off_c, 4, 64, 127
2, 218113, Note_off_c, 10, 45, 127
2, 218117, Note_on_c, 2, 62, 127
2, 218117, Note_on_c, 6, 66, 127
2, 218117, Note_on_c, 2, 50, 127
2, 218470, Note_off_c, 2, 50, 127
2, 218475, Note_on_c, 0, 48, 127
2, 218828, Note_off_c, 0, 48, 127
2, 218828, Note_off_c, 6, 66, 127
2, 218829, Note_off_c, 10, 57, 127
2, 218831, Note_on_c, 7, 67, 127
2, 218831, Note_on_c, 12, 47, 127
2, 218831, Note_on_c, 7, 55, 127
2, 219184, Note_off_c, 7, 55, 127
2, 219184, Note_off_c, 12, 47, 127
2, 219184, Note_off_c, 7, 67, 127
2, 219186, Note_off_c, 2, 62, 127
2, 219188, Note_on_c, 2, 50, 127
2, 219188, Note_on_c, 2, 62, 127
2, 219541, Note_off_c, 2, 62, 127
2, 219541, Note_off_c, 2, 50, 127
2, 219545, Note_on_c, 7, 55, 127
2, 219545, Note_on_c, 2, 62, 127
2, 219898, Note_off_c, 2, 62, 127
2, 219898, Note_off_c, 7, 55, 127
2, 219903, Note_on_c, 6, 54, 127
2, 219903, Note_on_c, 2, 62, 127
2, 219903, Note_on_c, 12, 71, 127
2, 220256, Note_off_c, 12, 71, 127
2, 220256, Note_off_c, 2, 62, 127
2, 220256, Note_off_c, 6, 54, 127
2, 220261, Note_on_c, 7, 55, 127
2, 220261, Note_on_c, 4, 52, 127
2, 220261, Note_on_c, 12, 71, 127
2, 220614, Note_off_c, 12, 71, 127
2, 220619, Note_on_c, 7, 79, 127
2, 220619, Note_on_c, 12, 71, 127
2, 220972, Note_off_c, 12, 71, 127
2, 220972, Note_off_c, 7, 79, 127
2, 220972, Note_off_c, 7, 55, 127
2, 220977, Note_on_c, 12, 59, 127
2, 220977, Note_on_c, 7, 79, 127
2, 220977, Note_on_c, 4, 64, 127
2, 221330, Note_off_c, 7, 79, 127
2, 221335, Note_on_c, 7, 79, 127
2, 221685, Note_off_c, 4, 64, 127
2, 221690, Note_off_c, 7, 79, 127
2, 221694, Note_on_c, 7, 67, 127
2, 221694, Note_on_c, 1, 73, 127
2, 222047, Note_off_c, 12, 59, 127
2, 222051, Note_off_c, 4, 52, 127
2, 222052, Note_on_c, 2, 50, 127
2, 222052, Note_on_c, 4, 52, 127
2, 222405, Note_off_c, 4, 52, 127
2, 222405, Note_off_c, 2, 50, 127
2, 222405, Note_off_c, 1, 73, 127
2, 222409, Note_on_c, 1, 49, 127
2, 222409, Note_on_c, 10, 57, 127
2, 222409, Note_on_c, 4, 76, 127
2, 222762, Note_off_c, 10, 57, 127
2, 222762, Note_off_c, 1, 49, 127
2, 222764, Note_off_c, 7, 67, 127
2, 222766, Note_on_c, 10, 45, 127
2, 222766, Note_on_c, 7, 55, 127
2, 222766, Note_on_c, 1, 61, 127
2, 223119, Note_off_c, 1, 61, 127
2, 223119, Note_off_c, 7, 55, 127
2, 223119, Note_off_c, 10, 45, 127
2, 223124, Note_on_c, 2, 50, 127
2, 223124, Note_on_c, 6, 54, 127
2, 223124, Note_on_c, 6, 66, 127
2, 223477, Note_off_c, 6, 66, 127
2, 223477, Note_off_c, 2, 50, 127
2, 223478, Note_off_c, 4, 76, 127
2, 223480, Note_on_c, 0, 48, 127
2, 223480, Note_on_c, 4, 64, 127
2, 223480, Note_on_c, 10, 69, 127
2, 223833, Note_off_c, 10, 69, 127
2, 223833, Note_off_c, 4, 64, 127
2, 223833, Note_off_c, 0, 48, 127
2, 223838, Note_on_c, 12, 47, 127
2, 223838, Note_on_c, 2, 74, 127
2, 223838, Note_on_c, 2, 62, 127
2, 224191, Note_off_c, 2, 74, 127
2, 224191, Note_off_c, 12, 47, 127
2, 224196, Note_on_c, 10, 45, 127
2, 224196, Note_on_c, 0, 72, 127
2, 224549, Note_off_c, 0, 72, 127
2, 224549, Note_off_c, 10, 45, 127
2, 224554, Note_on_c, 7, 43, 127
2, 224554, Note_on_c, 12, 71, 127
2, 224911, Note_off_c, 6, 54, 127
2, 224912, Note_on_c, 12, 47, 127
2, 225262, Note_off_c, 7, 43, 127
2, 225267, Note_off_c, 12, 47, 127
2, 225267, Note_off_c, 2, 62, 127
2, 225269, Note_on_c, 8, 44, 127
2, 225269, Note_on_c, 4, 52, 127
2, 225622, Note_off_c, 4, 52, 127
2, 225627, Note_on_c, 2, 50, 127
2, 225627, Note_on_c, 12, 59, 127
2, 225977, Note_off_c, 8, 44, 127
2, 225982, Note_off_c, 12, 59, 127
2, 225982, Note_off_c, 2, 50, 127
2, 225986, Note_on_c, 1, 49, 127
2, 225986, Note_on_c, 10, 45, 127
2, 225986, Note_on_c, 4, 64, 127
2, 226339, Note_off_c, 4, 64, 127
2, 226339, Note_off_c, 1, 49, 127
2, 226344, Note_off_c, 12, 71, 127
2, 226344, Note_on_c, 2, 50, 127
2, 226344, Note_on_c, 4, 64, 127
2, 226344, Note_on_c, 2, 62, 127
2, 226697, Note_off_c, 2, 62, 127
2, 226697, Note_off_c, 4, 64, 127
2, 226697, Note_off_c, 2, 50, 127
2, 226702, Note_on_c, 4, 52, 127
2, 226702, Note_on_c, 10, 69, 127
2, 226702, Note_on_c, 1, 61, 127
2, 227055, Note_off_c, 10, 69, 127
2, 227060, Note_on_c, 7, 67, 127
2, 227413, Note_off_c, 7, 67, 127
2, 227414, Note_off_c, 10, 45, 127
2, 227416, Note_on_c, 11, 46, 127
2, 227416, Note_on_c, 6, 66, 127
2, 227772, Note_off_c, 4, 52, 127
2, 227774, Note_on_c, 1, 49, 127
2, 228127, Note_off_c, 1, 49, 127
2, 228127, Note_off_c, 6, 66, 127
2, 228129, Note_off_c, 1, 61, 127
2, 228131, Note_on_c, 6, 54, 127
2, 228131, Note_on_c, 1, 73, 127
2, 228484, Note_off_c, 6, 54, 127
2, 228489, Note_on_c, 4, 52, 127
2, 228489, Note_on_c, 1, 61, 127
2, 228842, Note_off_c, 1, 61, 127
2, 228842, Note_off_c, 4, 52, 127
2, 228843, Note_off_c, 11, 46, 127
2, 228845, Note_on_c, 2, 50, 127
2, 228845, Note_on_c, 12, 47, 127
2, 228845, Note_on_c, 6, 66, 127
2, 229198, Note_off_c, 6, 66, 127
2, 229198, Note_off_c, 2, 50, 127
2, 229200, Note_off_c, 1, 73, 127
2, 229201, Note_on_c, 6, 66, 127
2, 229201, Note_on_c, 4, 64, 127
2, 229554, Note_off_c, 4, 64, 127
2, 229554, Note_off_c, 6, 66, 127
2, 229559, Note_on_c, 12, 71, 127
2, 229559, Note_on_c, 2, 62, 127
2, 229912, Note_off_c, 12, 71, 127
2, 229917, Note_on_c, 6, 54, 127
2, 229917, Note_on_c, 10, 69, 127
2, 230270, Note_off_c, 10, 69, 127
2, 230270, Note_off_c, 6, 54, 127
2, 230275, Note_on_c, 12, 59, 127
2, 230275, Note_on_c, 7, 67, 127
2, 230628, Note_off_c, 12, 59, 127
2, 230632, Note_off_c, 12, 47, 127
2, 230633, Note_on_c, 10, 57, 127
2, 230633, Note_on_c, 12, 47, 127
2, 230986, Note_off_c, 12, 47, 127
2, 230986, Note_off_c, 10, 57, 127
2, 230987, Note_off_c, 2, 62, 127
2, 230989, Note_on_c, 7, 55, 127
2, 230989, Note_on_c, 4, 52, 127
2, 231342, Note_off_c, 4, 52, 127
2, 231347, Note_on_c, 2, 50, 127
2, 231347, Note_on_c, 12, 59, 127
2, 231697, Note_off_c, 7, 55, 127
2, 231702, Note_off_c, 12, 59, 127
2, 231702, Note_off_c, 2, 50, 127
2, 231706, Note_on_c, 1, 49, 127
2, 231706, Note_on_c, 4, 64, 127
2, 232059, Note_off_c, 4, 64, 127
2, 232059, Note_off_c, 1, 49, 127
2, 232064, Note_on_c, 4, 52, 127
2, 232064, Note_on_c, 2, 62, 127
2, 232417, Note_off_c, 2, 62, 127
2, 232417, Note_off_c, 4, 52, 127
2, 232422, Note_on_c, 10, 57, 127
2, 232422, Note_on_c, 1, 61, 127
2, 232765, Note_off_c, 7, 67, 127
2, 232777, Note_off_c, 10, 57, 127
2, 232781, Note_on_c, 7, 55, 127
2, 232781, Note_on_c, 4, 64, 127
2, 233134, Note_off_c, 4, 64, 127
2, 233134, Note_off_c, 7, 55, 127
2, 233139, Note_on_c, 6, 54, 127
2, 233139, Note_on_c, 10, 69, 127
2, 233492, Note_off_c, 10, 69, 127
2, 233492, Note_off_c, 6, 54, 127
2, 233494, Note_off_c, 1, 61, 127
2, 233495, Note_on_c, 10, 57, 127
2, 233495, Note_on_c, 7, 67, 127
2, 233495, Note_on_c, 1, 61, 127
2, 233848, Note_off_c, 1, 61, 127
2, 233848, Note_off_c, 7, 67, 127
2, 233848, Note_off_c, 10, 57, 127
2, 233853, Note_on_c, 2, 62, 127
2, 233853, Note_on_c, 6, 66, 127
2, 234206, Note_off_c, 6, 66, 127
2, 234206, Note_off_c, 2, 62, 127
2, 234211, Note_on_c, 1, 61, 127
2, 234211, Note_on_c, 10, 69, 127
2, 234211, Note_on_c, 4, 64, 127
2, 234564, Note_off_c, 4, 64, 127
2, 234564, Note_off_c, 10, 69, 127
2, 234564, Note_off_c, 1, 61, 127
2, 234569, Note_on_c, 12, 59, 127
2, 234569, Note_on_c, 2, 74, 127
2, 234569, Note_on_c, 2, 62, 127
2, 234922, Note_off_c, 2, 62, 127
2, 234922, Note_off_c, 2, 74, 127
2, 234922, Note_off_c, 12, 59, 127
2, 234927, Note_on_c, 10, 57, 127
2, 234927, Note_on_c, 6, 66, 127
2, 234927, Note_on_c, 1, 73, 127
2, 235280, Note_off_c, 1, 73, 127
2, 235280, Note_off_c, 6, 66, 127
2, 235280, Note_off_c, 10, 57, 127
2, 235285, Note_on_c, 7, 55, 127
2, 235285, Note_on_c, 12, 71, 127
2, 235638, Note_off_c, 12, 71, 127
2, 235638, Note_off_c, 7, 55, 127
2, 235642, Note_on_c, 6, 54, 127
2, 235642, Note_on_c, 2, 74, 127
2, 235642, Note_on_c, 10, 69, 127
2, 235995, Note_off_c, 10, 69, 127
2, 235995, Note_off_c, 2, 74, 127
2, 235995, Note_off_c, 6, 54, 127
2, 236000, Note_on_c, 4, 52, 127
2, 236000, Note_on_c, 7, 67, 127
2, 236000, Note_on_c, 7, 79, 127
2, 236353, Note_off_c, 7, 67, 127
2, 236353, Note_off_c, 4, 52, 127
2, 236358, Note_on_c, 2, 50, 127
2, 236358, Note_on_c, 12, 71, 127
2, 236711, Note_off_c, 12, 71, 127
2, 236711, Note_off_c, 2, 50, 127
2, 236716, Note_on_c, 1, 49, 127
2, 236716, Note_on_c, 4, 76, 127
2, 237069, Note_off_c, 4, 76, 127
2, 237069, Note_off_c, 1, 49, 127
2, 237074, Note_on_c, 12, 47, 127
2, 237074, Note_on_c, 2, 74, 127
2, 237427, Note_off_c, 2, 74, 127
2, 237427, Note_off_c, 12, 47, 127
2, 237432, Note_on_c, 10, 45, 127
2, 237432, Note_on_c, 1, 73, 127
2, 237785, Note_off_c, 10, 45, 127
2, 237789, Note_off_c, 7, 79, 127
2, 237790, Note_on_c, 7, 43, 127
2, 237790, Note_on_c, 4, 76, 127
2, 238143, Note_off_c, 4, 76, 127
2, 238143, Note_off_c, 7, 43, 127
2, 238147, Note_on_c, 6, 42, 127
2, 238147, Note_on_c, 10, 81, 127
2, 238500, Note_off_c, 10, 81, 127
2, 238500, Note_off_c, 6, 42, 127
2, 238505, Note_on_c, 4, 40, 127
2, 238505, Note_on_c, 7, 79, 127
2, 238858, Note_off_c, 7, 79, 127
2, 238858, Note_off_c, 4, 40, 127
2, 238860, Note_off_c, 1, 73, 127
2, 238862, Note_on_c, 2, 38, 127
2, 238862, Note_on_c, 2, 74, 127
2, 238862, Note_on_c, 6, 78, 127
2, 239215, Note_off_c, 6, 78, 127
2, 239215, Note_off_c, 2, 74, 127
2, 239215, Note_off_c, 2, 38, 127
2, 239219, Note_on_c, 2, 62, 127
2, 239219, Note_on_c, 4, 76, 127
2, 239219, Note_on_c, 7, 79, 127
2, 239572, Note_off_c, 7, 79, 127
2, 239572, Note_off_c, 4, 76, 127
2, 239572, Note_off_c, 2, 62, 127
2, 239577, Note_on_c, 2, 62, 127
2, 239577, Note_on_c, 6, 78, 127
2, 239577, Note_on_c, 10, 81, 127
2, 239930, Note_off_c, 2, 62, 127
2, 239935, Note_on_c, 2, 62, 127
2, 239935, Note_on_c, 2, 50, 127
2, 240288, Note_off_c, 2, 50, 127
2, 240288, Note_off_c, 2, 62, 127
2, 240293, Note_on_c, 4, 52, 127
2, 240293, Note_on_c, 7, 55, 127
2, 240646, Note_off_c, 10, 81, 127
2, 240646, Note_off_c, 6, 78, 127
2, 240651, Note_on_c, 12, 71, 127
2, 240651, Note_on_c, 2, 74, 127
2, 241004, Note_off_c, 2, 74, 127
2, 241004, Note_off_c, 12, 71, 127
2, 241004, Note_off_c, 7, 55, 127
2, 241009, Note_on_c, 12, 59, 127
2, 241009, Note_on_c, 7, 79, 127
2, 241009, Note_on_c, 4, 76, 127
2, 241075, Note_off_c, 4, 52, 127
2, 241362, Note_off_c, 4, 76, 127
2, 241362, Note_off_c, 7, 79, 127
2, 241366, Note_on_c, 4, 52, 127
2, 241366, Note_on_c, 6, 78, 127
2, 241366, Note_on_c, 2, 74, 127
2, 241717, Note_off_c, 12, 59, 127
2, 241721, Note_off_c, 2, 74, 127
2, 241721, Note_off_c, 6, 78, 127
2, 241726, Note_on_c, 10, 57, 127
2, 241726, Note_on_c, 4, 76, 127
2, 241726, Note_on_c, 1, 73, 127
2, 241738, Note_off_c, 4, 52, 127
2, 242079, Note_off_c, 10, 57, 127
2, 242084, Note_on_c, 7, 55, 127
2, 242084, Note_on_c, 4, 52, 127
2, 242434, Note_off_c, 1, 73, 127
2, 242439, Note_off_c, 4, 52, 127
2, 242439, Note_off_c, 7, 55, 127
2, 242443, Note_on_c, 6, 54, 127
2, 242443, Note_on_c, 10, 57, 127
2, 242796, Note_off_c, 10, 57, 127
2, 242796, Note_off_c, 6, 54, 127
2, 242801, Note_on_c, 7, 55, 127
2, 242801, Note_on_c, 4, 52, 127
2, 242801, Note_on_c, 4, 64, 127
2, 243154, Note_off_c, 4, 64, 127
2, 243154, Note_off_c, 4, 52, 127
2, 243154, Note_off_c, 7, 55, 127
2, 243159, Note_on_c, 6, 54, 127
2, 243159, Note_on_c, 2, 50, 127
2, 243159, Note_on_c, 10, 69, 127
2, 243512, Note_off_c, 10, 69, 127
2, 243512, Note_off_c, 2, 50, 127
2, 243512, Note_off_c, 6, 54, 127
2, 243516, Note_on_c, 4, 52, 127
2, 243516, Note_on_c, 7, 55, 127
2, 243516, Note_on_c, 7, 67, 127
2, 243869, Note_off_c, 7, 67, 127
2, 243869, Note_off_c, 7, 55, 127
2, 243869, Note_off_c, 4, 52, 127
2, 243870, Note_off_c, 4, 76, 127
2, 243874, Note_on_c, 6, 54, 127
2, 243874, Note_on_c, 10, 57, 127
2, 243874, Note_on_c, 6, 66, 127
2, 243874, Note_on_c, 2, 74, 127
2, 244227, Note_off_c, 2, 74, 127
2, 244227, Note_off_c, 6, 66, 127
2, 244232, Note_on_c, 4, 64, 127
2, 244232, Note_on_c, 0, 72, 127
2, 244585, Note_off_c, 0, 72, 127
2, 244585, Note_off_c, 4, 64, 127
2, 244590, Note_on_c, 2, 62, 127
2, 244590, Note_on_c, 12, 71, 127
2, 244943, Note_off_c, 10, 57, 127
2, 244943, Note_off_c, 6, 54, 127
2, 244948, Note_on_c, 2, 50, 127
2, 244948, Note_on_c, 12, 47, 127
2, 245301, Note_off_c, 12, 47, 127
2, 245301, Note_off_c, 2, 50, 127
2, 245301, Note_off_c, 2, 62, 127
2, 245306, Note_on_c, 4, 52, 127
2, 245306, Note_on_c, 7, 55, 127
2, 245306, Note_on_c, 1, 61, 127
2, 245659, Note_off_c, 1, 61, 127
2, 245659, Note_off_c, 7, 55, 127
2, 245659, Note_off_c, 4, 52, 127
2, 245663, Note_on_c, 2, 50, 127
2, 245663, Note_on_c, 6, 54, 127
2, 245663, Note_on_c, 2, 62, 127
2, 246016, Note_off_c, 2, 62, 127
2, 246016, Note_off_c, 6, 54, 127
2, 246016, Note_off_c, 2, 50, 127
2, 246021, Note_on_c, 1, 49, 127
2, 246021, Note_on_c, 4, 52, 127
2, 246021, Note_on_c, 4, 64, 127
2, 246374, Note_off_c, 4, 64, 127
2, 246374, Note_off_c, 1, 49, 127
2, 246379, Note_off_c, 12, 71, 127
2, 246379, Note_on_c, 12, 47, 127
2, 246379, Note_on_c, 4, 64, 127
2, 246379, Note_on_c, 2, 62, 127
2, 246729, Note_off_c, 4, 52, 127
2, 246734, Note_off_c, 2, 62, 127
2, 246734, Note_off_c, 4, 64, 127
2, 246734, Note_off_c, 12, 47, 127
2, 246738, Note_on_c, 10, 45, 127
2, 246738, Note_on_c, 10, 69, 127
2, 246738, Note_on_c, 1, 61, 127
2, 247091, Note_off_c, 1, 61, 127
2, 247091, Note_off_c, 10, 69, 127
2, 247096, Note_on_c, 7, 67, 127
2, 247096, Note_on_c, 4, 64, 127
2, 247449, Note_off_c, 7, 67, 127
2, 247454, Note_on_c, 6, 66, 127
2, 247804, Note_off_c, 4, 64, 127
2, 247808, Note_off_c, 10, 45, 127
2, 247813, Note_on_c, 10, 57, 127
2, 247813, Note_on_c, 2, 62, 127
2, 248164, Note_off_c, 6, 66, 127
2, 248168, Note_off_c, 10, 57, 127
2, 248173, Note_on_c, 10, 57, 127
2, 248173, Note_on_c, 4, 64, 127
2, 248523, Note_off_c, 2, 62, 127
2, 248528, Note_off_c, 10, 57, 127
2, 248532, Note_on_c, 10, 57, 127
2, 248532, Note_on_c, 1, 61, 127
2, 248883, Note_off_c, 4, 64, 127
2, 248887, Note_off_c, 1, 61, 127
2, 248887, Note_off_c, 10, 57, 127
2, 248891, Note_on_c, 3, 51, 127
2, 248891, Note_on_c, 6, 66, 127
2, 248891, Note_on_c, 0, 60, 127
2, 249244, Note_off_c, 0, 60, 127
2, 249244, Note_off_c, 6, 66, 127
2, 249244, Note_off_c, 3, 51, 127
2, 249249, Note_on_c, 4, 52, 127
2, 249249, Note_on_c, 8, 68, 127
2, 249249, Note_on_c, 12, 59, 127
2, 249602, Note_off_c, 12, 59, 127
2, 249602, Note_off_c, 8, 68, 127
2, 249602, Note_off_c, 4, 52, 127
2, 249607, Note_on_c, 5, 53, 127
2, 249607, Note_on_c, 10, 69, 127
2, 249607, Note_on_c, 10, 57, 127
2, 249960, Note_off_c, 10, 57, 127
2, 249965, Note_on_c, 0, 60, 127
2, 250318, Note_off_c, 0, 60, 127
2, 250322, Note_on_c, 2, 62, 127
2, 250675, Note_off_c, 2, 62, 127
2, 250676, Note_off_c, 5, 53, 127
2, 250680, Note_on_c, 12, 59, 127
2, 250680, Note_on_c, 12, 47, 127
2, 250680, Note_on_c, 4, 64, 127
2, 250854, Note_off_c, 4, 64, 127
2, 250859, Note_on_c, 5, 65, 127
2, 251033, Note_off_c, 5, 65, 127
2, 251033, Note_off_c, 12, 47, 127
2, 251033, Note_off_c, 12, 59, 127
2, 251035, Note_off_c, 10, 69, 127
2, 251037, Note_on_c, 12, 59, 127
2, 251037, Note_on_c, 4, 52, 127
2, 251037, Note_on_c, 8, 68, 127
2, 251037, Note_on_c, 4, 64, 127
2, 251390, Note_off_c, 4, 52, 127
2, 251390, Note_off_c, 12, 59, 127
2, 251395, Note_on_c, 12, 59, 127
2, 251395, Note_on_c, 2, 50, 127
2, 251748, Note_off_c, 2, 50, 127
2, 251748, Note_off_c, 12, 59, 127
2, 251748, Note_off_c, 8, 68, 127
2, 251752, Note_on_c, 1, 49, 127
2, 251752, Note_on_c, 4, 52, 127
2, 251752, Note_on_c, 10, 69, 127
2, 252105, Note_off_c, 10, 69, 127
2, 252105, Note_off_c, 4, 52, 127
2, 252105, Note_off_c, 1, 49, 127
2, 252107, Note_off_c, 4, 64, 127
2, 252109, Note_on_c, 10, 45, 127
2, 252109, Note_on_c, 10, 81, 127
2, 252462, Note_off_c, 10, 81, 127
2, 252462, Note_off_c, 10, 45, 127
2, 252467, Note_on_c, 2, 50, 127
2, 252467, Note_on_c, 10, 81, 127
2, 252820, Note_off_c, 10, 81, 127
2, 252820, Note_off_c, 2, 50, 127
2, 252824, Note_on_c, 1, 49, 127
2, 252824, Note_on_c, 10, 81, 127
2, 252824, Note_on_c, 6, 78, 127
2, 253177, Note_off_c, 6, 78, 127
2, 253177, Note_off_c, 10, 81, 127
2, 253177, Note_off_c, 1, 49, 127
2, 253182, Note_on_c, 12, 47, 127
2, 253182, Note_on_c, 6, 78, 127
2, 253182, Note_on_c, 2, 74, 127
2, 253535, Note_off_c, 6, 78, 127
2, 253535, Note_off_c, 12, 47, 127
2, 253540, Note_on_c, 2, 62, 127
2, 253540, Note_on_c, 6, 78, 127
2, 253890, Note_off_c, 2, 74, 127
2, 253895, Note_off_c, 6, 78, 127
2, 253895, Note_off_c, 2, 62, 127
2, 253899, Note_on_c, 2, 62, 127
2, 253899, Note_on_c, 6, 78, 127
2, 253899, Note_on_c, 12, 71, 127
2, 254252, Note_off_c, 2, 62, 127
2, 254257, Note_on_c, 2, 62, 127
2, 254257, Note_on_c, 12, 59, 127
2, 254610, Note_off_c, 12, 59, 127
2, 254610, Note_off_c, 2, 62, 127
2, 254610, Note_off_c, 12, 71, 127
2, 254615, Note_on_c, 8, 56, 127
2, 254615, Note_on_c, 12, 59, 127
2, 254615, Note_on_c, 2, 74, 127
2, 254968, Note_off_c, 12, 59, 127
2, 254969, Note_off_c, 6, 78, 127
2, 254972, Note_on_c, 12, 59, 127
2, 254972, Note_on_c, 12, 71, 127
2, 255322, Note_off_c, 8, 56, 127
2, 255327, Note_off_c, 12, 71, 127
2, 255327, Note_off_c, 12, 59, 127
2, 255331, Note_on_c, 12, 59, 127
2, 255331, Note_on_c, 4, 52, 127
2, 255331, Note_on_c, 4, 76, 127
2, 255684, Note_off_c, 4, 76, 127
2, 255685, Note_off_c, 2, 74, 127
2, 255687, Note_on_c, 2, 74, 127
2, 255687, Note_on_c, 8, 68, 127
2, 256040, Note_off_c, 8, 68, 127
2, 256040, Note_off_c, 2, 74, 127
2, 256041, Note_off_c, 4, 52, 127
2, 256045, Note_on_c, 7, 55, 127
2, 256045, Note_on_c, 1, 73, 127
2, 256401, Note_off_c, 12, 59, 127
2, 256403, Note_on_c, 4, 52, 127
2, 256403, Note_on_c, 12, 71, 127
2, 256756, Note_off_c, 12, 71, 127
2, 256756, Note_off_c, 4, 52, 127
2, 256761, Note_on_c, 10, 57, 127
2, 256761, Note_on_c, 10, 69, 127
2, 257114, Note_off_c, 10, 57, 127
2, 257115, Note_off_c, 7, 55, 127
2, 257117, Note_on_c, 7, 55, 127
2, 257117, Note_on_c, 1, 49, 127
2, 257470, Note_off_c, 1, 49, 127
2, 257470, Note_off_c, 7, 55, 127
2, 257472, Note_off_c, 1, 73, 127
2, 257474, Note_on_c, 6, 54, 127
2, 257474, Note_on_c, 0, 72, 127
2, 257830, Note_off_c, 10, 69, 127
2, 257831, Note_on_c, 4, 52, 127
2, 257831, Note_on_c, 7, 67, 127
2, 258184, Note_off_c, 7, 67, 127
2, 258184, Note_off_c, 4, 52, 127
2, 258189, Note_on_c, 2, 50, 127
2, 258189, Note_on_c, 6, 66, 127
2, 258542, Note_off_c, 6, 66, 127
2, 258544, Note_off_c, 6, 54, 127
2, 258546, Note_on_c, 10, 57, 127
2, 258546, Note_on_c, 4, 64, 127
2, 258899, Note_off_c, 4, 64, 127
2, 258899, Note_off_c, 10, 57, 127
2, 258903, Note_on_c, 2, 62, 127
2, 258903, Note_on_c, 6, 66, 127
2, 259256, Note_off_c, 2, 62, 127
2, 259261, Note_off_c, 0, 72, 127
2, 259261, Note_on_c, 0, 60, 127
2, 259261, Note_on_c, 10, 69, 127
2, 259614, Note_off_c, 10, 69, 127
2, 259614, Note_off_c, 0, 60, 127
2, 259616, Note_off_c, 2, 50, 127
2, 259618, Note_on_c, 12, 59, 127
2, 259618, Note_on_c, 2, 74, 127
2, 259971, Note_off_c, 2, 74, 127
2, 259971, Note_off_c, 12, 59, 127
2, 259976, Note_on_c, 2, 50, 127
2, 259976, Note_on_c, 10, 57, 127
2, 259976, Note_on_c, 0, 72, 127
2, 260329, Note_off_c, 0, 72, 127
2, 260329, Note_off_c, 10, 57, 127
2, 260329, Note_off_c, 2, 50, 127
2, 260330, Note_off_c, 6, 66, 127
2, 260332, Note_on_c, 7, 55, 127
2, 260332, Note_on_c, 12, 71, 127
2, 260690, Note_on_c, 6, 54, 127
2, 260690, Note_on_c, 2, 62, 127
2, 261043, Note_off_c, 2, 62, 127
2, 261043, Note_off_c, 6, 54, 127
2, 261048, Note_on_c, 4, 52, 127
2, 261048, Note_on_c, 7, 67, 127
2, 261401, Note_off_c, 7, 67, 127
2, 261401, Note_off_c, 4, 52, 127
2, 261406, Note_on_c, 2, 50, 127
2, 261406, Note_on_c, 6, 66, 127
2, 261759, Note_off_c, 6, 66, 127
2, 261759, Note_off_c, 2, 50, 127
2, 261763, Note_on_c, 1, 49, 127
2, 261763, Note_on_c, 4, 64, 127
2, 262116, Note_off_c, 4, 64, 127
2, 262121, Note_off_c, 7, 55, 127
2, 262121, Note_on_c, 4, 52, 127
2, 262121, Note_on_c, 2, 62, 127
2, 262471, Note_off_c, 1, 49, 127
2, 262476, Note_off_c, 2, 62, 127
2, 262476, Note_off_c, 4, 52, 127
2, 262476, Note_off_c, 12, 71, 127
2, 262480, Note_on_c, 10, 57, 127
2, 262480, Note_on_c, 10, 69, 127
2, 262480, Note_on_c, 1, 61, 127
2, 262833, Note_off_c, 10, 57, 127
2, 262838, Note_on_c, 7, 55, 127
2, 262838, Note_on_c, 10, 45, 127
2, 263188, Note_off_c, 1, 61, 127
2, 263193, Note_off_c, 10, 45, 127
2, 263193, Note_off_c, 7, 55, 127
2, 263198, Note_on_c, 6, 54, 127
2, 263198, Note_on_c, 2, 50, 127
2, 263551, Note_off_c, 2, 50, 127
2, 263555, Note_on_c, 0, 48, 127
2, 263555, Note_on_c, 10, 57, 127
2, 263908, Note_off_c, 10, 57, 127
2, 263908, Note_off_c, 0, 48, 127
2, 263913, Note_on_c, 12, 47, 127
2, 263913, Note_on_c, 2, 62, 127
2, 264266, Note_off_c, 2, 62, 127
2, 264266, Note_off_c, 12, 47, 127
2, 264271, Note_on_c, 10, 45, 127
2, 264271, Note_on_c, 0, 60, 127
2, 264624, Note_off_c, 0, 60, 127
2, 264624, Note_off_c, 10, 45, 127
2, 264629, Note_on_c, 7, 43, 127
2, 264629, Note_on_c, 12, 59, 127
2, 264998, Note_off_c, 6, 54, 127
2, 264998, Note_on_c, 12, 47, 127
2, 265355, Note_off_c, 10, 69, 127
2, 265362, Note_off_c, 12, 47, 127
2, 265367, Note_on_c, 4, 52, 127
2, 265367, Note_on_c, 7, 67, 127
2, 265731, Note_off_c, 4, 52, 127
2, 265733, Note_off_c, 12, 59, 127
2, 265735, Note_on_c, 2, 50, 127
2, 265735, Note_on_c, 12, 59, 127
2, 266099, Note_off_c, 12, 59, 127
2, 266099, Note_off_c, 2, 50, 127
2, 266101, Note_off_c, 7, 43, 127
2, 266103, Note_on_c, 1, 49, 127
2, 266103, Note_on_c, 10, 45, 127
2, 266103, Note_on_c, 4, 64, 127
2, 266480, Note_off_c, 4, 64, 127
2, 266480, Note_off_c, 1, 49, 127
2, 266481, Note_off_c, 7, 67, 127
2, 266483, Note_on_c, 2, 50, 127
2, 266483, Note_on_c, 2, 62, 127
2, 266483, Note_on_c, 4, 64, 127
2, 266860, Note_off_c, 4, 64, 127
2, 266860, Note_off_c, 2, 62, 127
2, 266860, Note_off_c, 2, 50, 127
2, 266865, Note_on_c, 4, 52, 127
2, 266865, Note_on_c, 1, 61, 127
2, 266865, Note_on_c, 10, 69, 127
2, 267242, Note_off_c, 10, 69, 127
2, 267242, Note_off_c, 1, 61, 127
2, 267247, Note_on_c, 7, 67, 127
2, 267247, Note_on_c, 4, 64, 127
2, 267620, Note_off_c, 4, 52, 127
2, 267624, Note_off_c, 7, 67, 127
2, 267629, Note_on_c, 6, 66, 127
2, 268022, Note_off_c, 4, 64, 127
2, 268031, Note_on_c, 2, 50, 127
2, 268031, Note_on_c, 2, 62, 127
2, 268424, Note_off_c, 6, 66, 127
2, 268428, Note_off_c, 2, 50, 127
2, 268433, Note_on_c, 10, 57, 127
2, 268433, Note_on_c, 4, 64, 127
2, 268881, Note_off_c, 2, 62, 127
2, 268885, Note_off_c, 10, 57, 127
2, 268890, Note_on_c, 7, 55, 127
2, 268890, Note_on_c, 1, 61, 127
2, 269333, Note_off_c, 10, 45, 127
2, 269337, Note_off_c, 4, 64, 127
2, 269341, Note_off_c, 1, 61, 127
2, 269341, Note_off_c, 7, 55, 127
2, 269362, Note_on_c, 2, 62, 127
2, 269362, Note_on_c, 10, 57, 127
2, 269362, Note_on_c, 2, 38, 127
2, 269362, Note_on_c, 6, 54, 127
2, 272112, Note_off_c, 6, 54, 127
2, 272112, Note_off_c, 2, 38, 127
2, 272112, Note_off_c, 10, 57, 127
2, 272112, Note_off_c, 2, 62, 127
2, 276480, End_track
3, 0, Start_track
3, 0, Title_t, "MIDI"
3, 1536, End_track
0, 0, End_of_file
