0, 0, Header, 1, 9, 192
1, 0, Start_track
1, 0, SMPTE_offset, 96, 0, 3, 0, 0
1, 0, Time_signature, 2, 1, 48, 8
1, 0, Key_signature, 0, "major"
1, 0, Tempo, 352941
1, 81408, Tempo, 352941
1, 82176, Tempo, 750000
1, 82176, End_track
2, 0, Start_track
2, 0, MIDI_port, 0
2, 0, Title_t, "R.H."
2, 0, Program_c, 0, 0
2, 0, Control_c, 0, 7, 127
2, 0, Control_c, 0, 10, 64
2, 6528, Note_on_c, 0, 76, 110
2, 6864, Note_on_c, 0, 76, 0
2, 6912, Note_on_c, 0, 77, 110
2, 7248, Note_on_c, 0, 77, 0
2, 7296, Note_on_c, 0, 69, 110
2, 7632, Note_on_c, 0, 69, 0
2, 7680, Note_on_c, 0, 72, 110
2, 7774, Note_on_c, 0, 72, 0
2, 7776, Note_on_c, 0, 71, 110
2, 7870, Note_on_c, 0, 71, 0
2, 7872, Note_on_c, 0, 69, 110
2, 8208, Note_on_c, 0, 69, 0
2, 8256, Note_on_c, 0, 71, 110
2, 8350, Note_on_c, 0, 71, 0
2, 8352, Note_on_c, 0, 73, 110
2, 8446, Note_on_c, 0, 73, 0
2, 8448, Note_on_c, 0, 74, 110
2, 8542, Note_on_c, 0, 74, 0
2, 8544, Note_on_c, 0, 76, 110
2, 8638, Note_on_c, 0, 76, 0
2, 8640, Note_on_c, 0, 77, 110
2, 8976, Note_on_c, 0, 77, 0
2, 9024, Note_on_c, 0, 76, 110
2, 9118, Note_on_c, 0, 76, 0
2, 9120, Note_on_c, 0, 75, 110
2, 9214, Note_on_c, 0, 75, 0
2, 9216, Note_on_c, 0, 76, 110
2, 9310, Note_on_c, 0, 76, 0
2, 9312, Note_on_c, 0, 71, 110
2, 9406, Note_on_c, 0, 71, 0
2, 9408, Note_on_c, 0, 76, 110
2, 9502, Note_on_c, 0, 76, 0
2, 9504, Note_on_c, 0, 78, 110
2, 9598, Note_on_c, 0, 78, 0
2, 9600, Note_on_c, 0, 76, 110
2, 9694, Note_on_c, 0, 76, 0
2, 9696, Note_on_c, 0, 71, 110
2, 9790, Note_on_c, 0, 71, 0
2, 9792, Note_on_c, 0, 76, 110
2, 9886, Note_on_c, 0, 76, 0
2, 9888, Note_on_c, 0, 79, 110
2, 9982, Note_on_c, 0, 79, 0
2, 9984, Note_on_c, 0, 78, 110
2, 10078, Note_on_c, 0, 78, 0
2, 10080, Note_on_c, 0, 71, 110
2, 10174, Note_on_c, 0, 71, 0
2, 10176, Note_on_c, 0, 78, 110
2, 10270, Note_on_c, 0, 78, 0
2, 10272, Note_on_c, 0, 79, 110
2, 10366, Note_on_c, 0, 79, 0
2, 10368, Note_on_c, 0, 78, 110
2, 10462, Note_on_c, 0, 78, 0
2, 10464, Note_on_c, 0, 71, 110
2, 10558, Note_on_c, 0, 71, 0
2, 10560, Note_on_c, 0, 78, 110
2, 10654, Note_on_c, 0, 78, 0
2, 10656, Note_on_c, 0, 81, 110
2, 10750, Note_on_c, 0, 81, 0
2, 10752, Note_on_c, 0, 79, 110
2, 10846, Note_on_c, 0, 79, 0
2, 10848, Note_on_c, 0, 71, 110
2, 10942, Note_on_c, 0, 71, 0
2, 10944, Note_on_c, 0, 79, 110
2, 11038, Note_on_c, 0, 79, 0
2, 11040, Note_on_c, 0, 81, 110
2, 11134, Note_on_c, 0, 81, 0
2, 11136, Note_on_c, 0, 79, 110
2, 11230, Note_on_c, 0, 79, 0
2, 11232, Note_on_c, 0, 71, 110
2, 11326, Note_on_c, 0, 71, 0
2, 11328, Note_on_c, 0, 79, 110
2, 11422, Note_on_c, 0, 79, 0
2, 11424, Note_on_c, 0, 83, 110
2, 11518, Note_on_c, 0, 83, 0
2, 11520, Note_on_c, 0, 78, 110
2, 11614, Note_on_c, 0, 78, 0
2, 11616, Note_on_c, 0, 71, 110
2, 11710, Note_on_c, 0, 71, 0
2, 11712, Note_on_c, 0, 78, 110
2, 11806, Note_on_c, 0, 78, 0
2, 11808, Note_on_c, 0, 79, 110
2, 11902, Note_on_c, 0, 79, 0
2, 11904, Note_on_c, 0, 78, 110
2, 11998, Note_on_c, 0, 78, 0
2, 12000, Note_on_c, 0, 71, 110
2, 12094, Note_on_c, 0, 71, 0
2, 12096, Note_on_c, 0, 78, 110
2, 12190, Note_on_c, 0, 78, 0
2, 12192, Note_on_c, 0, 81, 110
2, 12286, Note_on_c, 0, 81, 0
2, 12288, Note_on_c, 0, 79, 110
2, 12382, Note_on_c, 0, 79, 0
2, 12384, Note_on_c, 0, 78, 110
2, 12478, Note_on_c, 0, 78, 0
2, 12480, Note_on_c, 0, 76, 110
2, 12816, Note_on_c, 0, 76, 0
2, 12864, Note_on_c, 0, 74, 110
2, 13024, Note_on_c, 0, 74, 0
2, 13056, Note_on_c, 0, 73, 110
2, 13104, Note_on_c, 0, 73, 0
2, 13248, Note_on_c, 0, 82, 110
2, 13408, Note_on_c, 0, 82, 0
2, 13440, Note_on_c, 0, 82, 110
2, 13462, Note_on_c, 0, 82, 0
2, 13464, Note_on_c, 0, 81, 110
2, 13486, Note_on_c, 0, 81, 0
2, 13488, Note_on_c, 0, 82, 110
2, 13510, Note_on_c, 0, 82, 0
2, 13512, Note_on_c, 0, 81, 110
2, 13630, Note_on_c, 0, 81, 0
2, 13632, Note_on_c, 0, 79, 110
2, 13792, Note_on_c, 0, 79, 0
2, 13824, Note_on_c, 0, 70, 110
2, 13872, Note_on_c, 0, 70, 0
2, 14016, Note_on_c, 0, 79, 110
2, 14176, Note_on_c, 0, 79, 0
2, 14208, Note_on_c, 0, 79, 110
2, 14230, Note_on_c, 0, 79, 0
2, 14232, Note_on_c, 0, 77, 110
2, 14254, Note_on_c, 0, 77, 0
2, 14256, Note_on_c, 0, 79, 110
2, 14278, Note_on_c, 0, 79, 0
2, 14280, Note_on_c, 0, 77, 110
2, 14398, Note_on_c, 0, 77, 0
2, 14400, Note_on_c, 0, 76, 110
2, 14560, Note_on_c, 0, 76, 0
2, 14592, Note_on_c, 0, 67, 110
2, 14640, Note_on_c, 0, 67, 0
2, 14784, Note_on_c, 0, 76, 110
2, 14944, Note_on_c, 0, 76, 0
2, 14976, Note_on_c, 0, 76, 110
2, 14998, Note_on_c, 0, 76, 0
2, 15000, Note_on_c, 0, 74, 110
2, 15022, Note_on_c, 0, 74, 0
2, 15024, Note_on_c, 0, 76, 110
2, 15046, Note_on_c, 0, 76, 0
2, 15048, Note_on_c, 0, 74, 110
2, 15166, Note_on_c, 0, 74, 0
2, 15168, Note_on_c, 0, 73, 110
2, 15328, Note_on_c, 0, 73, 0
2, 15360, Note_on_c, 0, 74, 110
2, 15454, Note_on_c, 0, 74, 0
2, 15456, Note_on_c, 0, 67, 110
2, 15550, Note_on_c, 0, 67, 0
2, 15552, Note_on_c, 0, 65, 110
2, 15646, Note_on_c, 0, 65, 0
2, 15648, Note_on_c, 0, 64, 110
2, 15742, Note_on_c, 0, 64, 0
2, 15744, Note_on_c, 0, 62, 110
2, 15792, Note_on_c, 0, 62, 0
2, 15936, Note_on_c, 0, 72, 110
2, 16128, Note_on_c, 0, 72, 0
2, 16128, Note_on_c, 0, 71, 110
2, 16176, Note_on_c, 0, 71, 0
2, 16320, Note_on_c, 0, 80, 110
2, 16480, Note_on_c, 0, 80, 0
2, 16512, Note_on_c, 0, 80, 110
2, 16534, Note_on_c, 0, 80, 0
2, 16536, Note_on_c, 0, 79, 110
2, 16558, Note_on_c, 0, 79, 0
2, 16560, Note_on_c, 0, 80, 110
2, 16582, Note_on_c, 0, 80, 0
2, 16584, Note_on_c, 0, 79, 110
2, 16702, Note_on_c, 0, 79, 0
2, 16704, Note_on_c, 0, 77, 110
2, 16864, Note_on_c, 0, 77, 0
2, 16896, Note_on_c, 0, 68, 110
2, 16944, Note_on_c, 0, 68, 0
2, 17088, Note_on_c, 0, 77, 110
2, 17248, Note_on_c, 0, 77, 0
2, 17280, Note_on_c, 0, 77, 110
2, 17302, Note_on_c, 0, 77, 0
2, 17304, Note_on_c, 0, 76, 110
2, 17326, Note_on_c, 0, 76, 0
2, 17328, Note_on_c, 0, 77, 110
2, 17350, Note_on_c, 0, 77, 0
2, 17352, Note_on_c, 0, 76, 110
2, 17470, Note_on_c, 0, 76, 0
2, 17472, Note_on_c, 0, 74, 110
2, 17632, Note_on_c, 0, 74, 0
2, 17664, Note_on_c, 0, 65, 110
2, 17712, Note_on_c, 0, 65, 0
2, 17856, Note_on_c, 0, 74, 110
2, 18016, Note_on_c, 0, 74, 0
2, 18048, Note_on_c, 0, 74, 110
2, 18070, Note_on_c, 0, 74, 0
2, 18072, Note_on_c, 0, 72, 110
2, 18094, Note_on_c, 0, 72, 0
2, 18096, Note_on_c, 0, 74, 110
2, 18118, Note_on_c, 0, 74, 0
2, 18120, Note_on_c, 0, 72, 110
2, 18238, Note_on_c, 0, 72, 0
2, 18240, Note_on_c, 0, 71, 110
2, 18400, Note_on_c, 0, 71, 0
2, 18432, Note_on_c, 0, 72, 110
2, 18526, Note_on_c, 0, 72, 0
2, 18528, Note_on_c, 0, 65, 110
2, 18622, Note_on_c, 0, 65, 0
2, 18624, Note_on_c, 0, 64, 110
2, 18718, Note_on_c, 0, 64, 0
2, 18720, Note_on_c, 0, 62, 110
2, 18814, Note_on_c, 0, 62, 0
2, 18816, Note_on_c, 0, 60, 110
2, 18864, Note_on_c, 0, 60, 0
2, 19008, Note_on_c, 0, 70, 110
2, 19168, Note_on_c, 0, 70, 0
2, 19200, Note_on_c, 0, 69, 110
2, 19294, Note_on_c, 0, 69, 0
2, 19296, Note_on_c, 0, 79, 110
2, 19390, Note_on_c, 0, 79, 0
2, 19392, Note_on_c, 0, 77, 110
2, 19486, Note_on_c, 0, 77, 0
2, 19488, Note_on_c, 0, 76, 110
2, 19582, Note_on_c, 0, 76, 0
2, 19584, Note_on_c, 0, 77, 110
2, 19678, Note_on_c, 0, 77, 0
2, 19680, Note_on_c, 0, 74, 110
2, 19774, Note_on_c, 0, 74, 0
2, 19776, Note_on_c, 0, 69, 110
2, 20062, Note_on_c, 0, 69, 0
2, 20064, Note_on_c, 0, 67, 110
2, 20158, Note_on_c, 0, 67, 0
2, 20160, Note_on_c, 0, 69, 110
2, 20254, Note_on_c, 0, 69, 0
2, 20256, Note_on_c, 0, 71, 110
2, 20350, Note_on_c, 0, 71, 0
2, 20352, Note_on_c, 0, 67, 110
2, 20446, Note_on_c, 0, 67, 0
2, 20448, Note_on_c, 0, 72, 110
2, 20542, Note_on_c, 0, 72, 0
2, 20544, Note_on_c, 0, 76, 110
2, 20704, Note_on_c, 0, 76, 0
2, 20736, Note_on_c, 0, 65, 110
2, 20830, Note_on_c, 0, 65, 0
2, 20832, Note_on_c, 0, 76, 110
2, 20926, Note_on_c, 0, 76, 0
2, 20928, Note_on_c, 0, 74, 110
2, 21022, Note_on_c, 0, 74, 0
2, 21024, Note_on_c, 0, 72, 110
2, 21118, Note_on_c, 0, 72, 0
2, 21120, Note_on_c, 0, 74, 110
2, 21214, Note_on_c, 0, 74, 0
2, 21216, Note_on_c, 0, 71, 110
2, 21310, Note_on_c, 0, 71, 0
2, 21312, Note_on_c, 0, 65, 110
2, 21598, Note_on_c, 0, 65, 0
2, 21600, Note_on_c, 0, 64, 110
2, 21694, Note_on_c, 0, 64, 0
2, 21696, Note_on_c, 0, 65, 110
2, 21790, Note_on_c, 0, 65, 0
2, 21792, Note_on_c, 0, 67, 110
2, 21886, Note_on_c, 0, 67, 0
2, 21888, Note_on_c, 0, 64, 110
2, 21982, Note_on_c, 0, 64, 0
2, 21984, Note_on_c, 0, 67, 110
2, 22078, Note_on_c, 0, 67, 0
2, 22080, Note_on_c, 0, 72, 110
2, 22240, Note_on_c, 0, 72, 0
2, 22272, Note_on_c, 0, 62, 110
2, 22366, Note_on_c, 0, 62, 0
2, 22368, Note_on_c, 0, 72, 110
2, 22462, Note_on_c, 0, 72, 0
2, 22464, Note_on_c, 0, 71, 110
2, 22558, Note_on_c, 0, 71, 0
2, 22560, Note_on_c, 0, 69, 110
2, 22654, Note_on_c, 0, 69, 0
2, 22656, Note_on_c, 0, 71, 110
2, 22750, Note_on_c, 0, 71, 0
2, 22752, Note_on_c, 0, 68, 110
2, 22846, Note_on_c, 0, 68, 0
2, 22848, Note_on_c, 0, 62, 110
2, 23134, Note_on_c, 0, 62, 0
2, 23136, Note_on_c, 0, 60, 110
2, 23230, Note_on_c, 0, 60, 0
2, 23232, Note_on_c, 0, 62, 110
2, 23326, Note_on_c, 0, 62, 0
2, 23328, Note_on_c, 0, 64, 110
2, 23422, Note_on_c, 0, 64, 0
2, 23424, Note_on_c, 0, 60, 110
2, 23518, Note_on_c, 0, 60, 0
2, 23520, Note_on_c, 0, 65, 110
2, 23614, Note_on_c, 0, 65, 0
2, 23616, Note_on_c, 0, 64, 110
2, 23710, Note_on_c, 0, 64, 0
2, 23712, Note_on_c, 0, 62, 110
2, 23806, Note_on_c, 0, 62, 0
2, 23808, Note_on_c, 0, 64, 110
2, 23968, Note_on_c, 0, 64, 0
2, 24000, Note_on_c, 0, 57, 110
2, 24336, Note_on_c, 0, 57, 0
2, 24384, Note_on_c, 0, 56, 110
2, 24544, Note_on_c, 0, 56, 0
2, 24576, Note_on_c, 0, 57, 110
2, 24912, Note_on_c, 0, 57, 0
2, 24960, Note_on_c, 0, 69, 110
2, 25296, Note_on_c, 0, 69, 0
2, 25344, Note_on_c, 0, 72, 110
2, 25680, Note_on_c, 0, 72, 0
2, 25728, Note_on_c, 0, 64, 110
2, 26064, Note_on_c, 0, 64, 0
2, 26112, Note_on_c, 0, 65, 110
2, 26206, Note_on_c, 0, 65, 0
2, 26208, Note_on_c, 0, 64, 110
2, 26302, Note_on_c, 0, 64, 0
2, 26304, Note_on_c, 0, 62, 110
2, 26640, Note_on_c, 0, 62, 0
2, 26688, Note_on_c, 0, 64, 110
2, 26782, Note_on_c, 0, 64, 0
2, 26784, Note_on_c, 0, 66, 110
2, 26878, Note_on_c, 0, 66, 0
2, 26880, Note_on_c, 0, 67, 110
2, 26974, Note_on_c, 0, 67, 0
2, 26976, Note_on_c, 0, 69, 110
2, 27070, Note_on_c, 0, 69, 0
2, 27072, Note_on_c, 0, 70, 110
2, 27408, Note_on_c, 0, 70, 0
2, 27456, Note_on_c, 0, 69, 110
2, 27550, Note_on_c, 0, 69, 0
2, 27552, Note_on_c, 0, 68, 110
2, 27646, Note_on_c, 0, 68, 0
2, 27648, Note_on_c, 0, 69, 110
2, 27742, Note_on_c, 0, 69, 0
2, 27744, Note_on_c, 0, 64, 110
2, 27838, Note_on_c, 0, 64, 0
2, 27840, Note_on_c, 0, 69, 110
2, 27934, Note_on_c, 0, 69, 0
2, 27936, Note_on_c, 0, 71, 110
2, 28030, Note_on_c, 0, 71, 0
2, 28032, Note_on_c, 0, 69, 110
2, 28126, Note_on_c, 0, 69, 0
2, 28128, Note_on_c, 0, 64, 110
2, 28222, Note_on_c, 0, 64, 0
2, 28224, Note_on_c, 0, 69, 110
2, 28318, Note_on_c, 0, 69, 0
2, 28320, Note_on_c, 0, 72, 110
2, 28414, Note_on_c, 0, 72, 0
2, 28416, Note_on_c, 0, 71, 110
2, 28510, Note_on_c, 0, 71, 0
2, 28512, Note_on_c, 0, 64, 110
2, 28606, Note_on_c, 0, 64, 0
2, 28608, Note_on_c, 0, 71, 110
2, 28702, Note_on_c, 0, 71, 0
2, 28704, Note_on_c, 0, 72, 110
2, 28798, Note_on_c, 0, 72, 0
2, 28800, Note_on_c, 0, 71, 110
2, 28894, Note_on_c, 0, 71, 0
2, 28896, Note_on_c, 0, 64, 110
2, 28990, Note_on_c, 0, 64, 0
2, 28992, Note_on_c, 0, 71, 110
2, 29086, Note_on_c, 0, 71, 0
2, 29088, Note_on_c, 0, 74, 110
2, 29182, Note_on_c, 0, 74, 0
2, 29184, Note_on_c, 0, 72, 110
2, 29278, Note_on_c, 0, 72, 0
2, 29280, Note_on_c, 0, 64, 110
2, 29374, Note_on_c, 0, 64, 0
2, 29376, Note_on_c, 0, 72, 110
2, 29470, Note_on_c, 0, 72, 0
2, 29472, Note_on_c, 0, 74, 110
2, 29566, Note_on_c, 0, 74, 0
2, 29568, Note_on_c, 0, 72, 110
2, 29662, Note_on_c, 0, 72, 0
2, 29664, Note_on_c, 0, 64, 110
2, 29758, Note_on_c, 0, 64, 0
2, 29760, Note_on_c, 0, 72, 110
2, 29854, Note_on_c, 0, 72, 0
2, 29856, Note_on_c, 0, 76, 110
2, 29950, Note_on_c, 0, 76, 0
2, 29952, Note_on_c, 0, 71, 110
2, 30046, Note_on_c, 0, 71, 0
2, 30048, Note_on_c, 0, 64, 110
2, 30142, Note_on_c, 0, 64, 0
2, 30144, Note_on_c, 0, 71, 110
2, 30238, Note_on_c, 0, 71, 0
2, 30240, Note_on_c, 0, 72, 110
2, 30334, Note_on_c, 0, 72, 0
2, 30336, Note_on_c, 0, 71, 110
2, 30430, Note_on_c, 0, 71, 0
2, 30432, Note_on_c, 0, 64, 110
2, 30526, Note_on_c, 0, 64, 0
2, 30528, Note_on_c, 0, 71, 110
2, 30622, Note_on_c, 0, 71, 0
2, 30624, Note_on_c, 0, 74, 110
2, 30718, Note_on_c, 0, 74, 0
2, 30720, Note_on_c, 0, 72, 110
2, 30814, Note_on_c, 0, 72, 0
2, 30816, Note_on_c, 0, 71, 110
2, 30910, Note_on_c, 0, 71, 0
2, 30912, Note_on_c, 0, 69, 110
2, 31248, Note_on_c, 0, 69, 0
2, 31296, Note_on_c, 0, 68, 110
2, 31456, Note_on_c, 0, 68, 0
2, 31488, Note_on_c, 0, 69, 110
2, 31582, Note_on_c, 0, 69, 0
2, 31584, Note_on_c, 0, 72, 110
2, 31678, Note_on_c, 0, 72, 0
2, 31680, Note_on_c, 0, 71, 110
2, 31774, Note_on_c, 0, 71, 0
2, 31776, Note_on_c, 0, 74, 110
2, 31870, Note_on_c, 0, 74, 0
2, 31872, Note_on_c, 0, 72, 110
2, 31966, Note_on_c, 0, 72, 0
2, 31968, Note_on_c, 0, 71, 110
2, 32062, Note_on_c, 0, 71, 0
2, 32064, Note_on_c, 0, 72, 110
2, 32158, Note_on_c, 0, 72, 0
2, 32160, Note_on_c, 0, 69, 110
2, 32254, Note_on_c, 0, 69, 0
2, 32256, Note_on_c, 0, 64, 110
2, 32416, Note_on_c, 0, 64, 0
2, 32448, Note_on_c, 0, 66, 110
2, 32608, Note_on_c, 0, 66, 0
2, 32640, Note_on_c, 0, 67, 110
2, 32800, Note_on_c, 0, 67, 0
2, 32832, Note_on_c, 0, 66, 110
2, 32926, Note_on_c, 0, 66, 0
2, 32928, Note_on_c, 0, 64, 110
2, 33022, Note_on_c, 0, 64, 0
2, 33024, Note_on_c, 0, 66, 110
2, 33184, Note_on_c, 0, 66, 0
2, 33216, Note_on_c, 0, 68, 110
2, 33376, Note_on_c, 0, 68, 0
2, 33408, Note_on_c, 0, 69, 110
2, 33952, Note_on_c, 0, 69, 0
2, 33984, Note_on_c, 0, 67, 110
2, 34078, Note_on_c, 0, 67, 0
2, 34080, Note_on_c, 0, 66, 110
2, 34174, Note_on_c, 0, 66, 0
2, 34176, Note_on_c, 0, 67, 110
2, 34224, Note_on_c, 0, 67, 0
2, 34368, Note_on_c, 0, 64, 110
2, 34720, Note_on_c, 0, 64, 0
2, 34752, Note_on_c, 0, 63, 110
2, 34846, Note_on_c, 0, 63, 0
2, 34848, Note_on_c, 0, 61, 110
2, 34942, Note_on_c, 0, 61, 0
2, 34944, Note_on_c, 0, 64, 110
2, 34966, Note_on_c, 0, 64, 0
2, 34968, Note_on_c, 0, 63, 110
2, 34990, Note_on_c, 0, 63, 0
2, 34992, Note_on_c, 0, 64, 110
2, 35014, Note_on_c, 0, 64, 0
2, 35016, Note_on_c, 0, 63, 110
2, 35296, Note_on_c, 0, 63, 0
2, 35328, Note_on_c, 0, 64, 110
2, 35376, Note_on_c, 0, 64, 0
2, 35520, Note_on_c, 0, 71, 110
2, 35568, Note_on_c, 0, 71, 0
2, 35712, Note_on_c, 0, 76, 110
2, 36432, Note_on_c, 0, 76, 0
2, 36480, Note_on_c, 0, 76, 110
2, 36502, Note_on_c, 0, 76, 0
2, 36504, Note_on_c, 0, 75, 110
2, 36526, Note_on_c, 0, 75, 0
2, 36528, Note_on_c, 0, 76, 110
2, 36550, Note_on_c, 0, 76, 0
2, 36552, Note_on_c, 0, 75, 110
2, 36832, Note_on_c, 0, 75, 0
2, 36864, Note_on_c, 0, 76, 110
2, 37120, Note_on_c, 0, 76, 0
2, 37152, Note_on_c, 0, 74, 110
2, 37198, Note_on_c, 0, 74, 0
2, 37200, Note_on_c, 0, 76, 110
2, 37246, Note_on_c, 0, 76, 0
2, 37248, Note_on_c, 0, 77, 110
2, 37342, Note_on_c, 0, 77, 0
2, 37344, Note_on_c, 0, 76, 110
2, 37438, Note_on_c, 0, 76, 0
2, 37440, Note_on_c, 0, 74, 110
2, 37534, Note_on_c, 0, 74, 0
2, 37536, Note_on_c, 0, 72, 110
2, 37630, Note_on_c, 0, 72, 0
2, 37632, Note_on_c, 0, 71, 110
2, 37726, Note_on_c, 0, 71, 0
2, 37728, Note_on_c, 0, 72, 110
2, 37822, Note_on_c, 0, 72, 0
2, 37824, Note_on_c, 0, 74, 110
2, 38080, Note_on_c, 0, 74, 0
2, 38112, Note_on_c, 0, 72, 110
2, 38206, Note_on_c, 0, 72, 0
2, 38208, Note_on_c, 0, 71, 110
2, 38302, Note_on_c, 0, 71, 0
2, 38304, Note_on_c, 0, 69, 110
2, 38398, Note_on_c, 0, 69, 0
2, 38400, Note_on_c, 0, 68, 110
2, 38494, Note_on_c, 0, 68, 0
2, 38496, Note_on_c, 0, 69, 110
2, 38590, Note_on_c, 0, 69, 0
2, 38592, Note_on_c, 0, 71, 110
2, 38848, Note_on_c, 0, 71, 0
2, 38880, Note_on_c, 0, 69, 110
2, 38974, Note_on_c, 0, 69, 0
2, 38976, Note_on_c, 0, 68, 110
2, 39070, Note_on_c, 0, 68, 0
2, 39072, Note_on_c, 0, 66, 110
2, 39166, Note_on_c, 0, 66, 0
2, 39168, Note_on_c, 0, 68, 110
2, 39262, Note_on_c, 0, 68, 0
2, 39264, Note_on_c, 0, 64, 110
2, 39358, Note_on_c, 0, 64, 0
2, 39360, Note_on_c, 0, 68, 110
2, 39454, Note_on_c, 0, 68, 0
2, 39456, Note_on_c, 0, 69, 110
2, 39550, Note_on_c, 0, 69, 0
2, 39552, Note_on_c, 0, 71, 110
2, 39646, Note_on_c, 0, 71, 0
2, 39648, Note_on_c, 0, 72, 110
2, 39742, Note_on_c, 0, 72, 0
2, 39744, Note_on_c, 0, 74, 110
2, 39838, Note_on_c, 0, 74, 0
2, 39840, Note_on_c, 0, 71, 110
2, 39934, Note_on_c, 0, 71, 0
2, 39936, Note_on_c, 0, 72, 110
2, 40030, Note_on_c, 0, 72, 0
2, 40032, Note_on_c, 0, 71, 110
2, 40126, Note_on_c, 0, 71, 0
2, 40128, Note_on_c, 0, 69, 110
2, 40222, Note_on_c, 0, 69, 0
2, 40224, Note_on_c, 0, 71, 110
2, 40318, Note_on_c, 0, 71, 0
2, 40320, Note_on_c, 0, 72, 110
2, 40414, Note_on_c, 0, 72, 0
2, 40416, Note_on_c, 0, 74, 110
2, 40510, Note_on_c, 0, 74, 0
2, 40512, Note_on_c, 0, 75, 110
2, 40606, Note_on_c, 0, 75, 0
2, 40608, Note_on_c, 0, 72, 110
2, 40702, Note_on_c, 0, 72, 0
2, 40704, Note_on_c, 0, 69, 110
2, 40798, Note_on_c, 0, 69, 0
2, 40800, Note_on_c, 0, 71, 110
2, 40894, Note_on_c, 0, 71, 0
2, 40896, Note_on_c, 0, 72, 110
2, 41152, Note_on_c, 0, 72, 0
2, 41184, Note_on_c, 0, 71, 110
2, 41278, Note_on_c, 0, 71, 0
2, 41280, Note_on_c, 0, 69, 110
2, 41374, Note_on_c, 0, 69, 0
2, 41376, Note_on_c, 0, 67, 110
2, 41470, Note_on_c, 0, 67, 0
2, 41472, Note_on_c, 0, 66, 110
2, 41566, Note_on_c, 0, 66, 0
2, 41568, Note_on_c, 0, 67, 110
2, 41662, Note_on_c, 0, 67, 0
2, 41664, Note_on_c, 0, 69, 110
2, 41920, Note_on_c, 0, 69, 0
2, 41952, Note_on_c, 0, 67, 110
2, 42046, Note_on_c, 0, 67, 0
2, 42048, Note_on_c, 0, 66, 110
2, 42142, Note_on_c, 0, 66, 0
2, 42144, Note_on_c, 0, 64, 110
2, 42238, Note_on_c, 0, 64, 0
2, 42240, Note_on_c, 0, 66, 110
2, 42334, Note_on_c, 0, 66, 0
2, 42336, Note_on_c, 0, 62, 110
2, 42430, Note_on_c, 0, 62, 0
2, 42432, Note_on_c, 0, 66, 110
2, 42526, Note_on_c, 0, 66, 0
2, 42528, Note_on_c, 0, 67, 110
2, 42622, Note_on_c, 0, 67, 0
2, 42624, Note_on_c, 0, 69, 110
2, 42718, Note_on_c, 0, 69, 0
2, 42720, Note_on_c, 0, 71, 110
2, 42814, Note_on_c, 0, 71, 0
2, 42816, Note_on_c, 0, 72, 110
2, 42910, Note_on_c, 0, 72, 0
2, 42912, Note_on_c, 0, 69, 110
2, 43006, Note_on_c, 0, 69, 0
2, 43008, Note_on_c, 0, 71, 110
2, 43102, Note_on_c, 0, 71, 0
2, 43104, Note_on_c, 0, 69, 110
2, 43198, Note_on_c, 0, 69, 0
2, 43200, Note_on_c, 0, 67, 110
2, 43294, Note_on_c, 0, 67, 0
2, 43296, Note_on_c, 0, 69, 110
2, 43390, Note_on_c, 0, 69, 0
2, 43392, Note_on_c, 0, 71, 110
2, 43486, Note_on_c, 0, 71, 0
2, 43488, Note_on_c, 0, 72, 110
2, 43582, Note_on_c, 0, 72, 0
2, 43584, Note_on_c, 0, 74, 110
2, 43678, Note_on_c, 0, 74, 0
2, 43680, Note_on_c, 0, 71, 110
2, 43774, Note_on_c, 0, 71, 0
2, 43776, Note_on_c, 0, 72, 110
2, 43824, Note_on_c, 0, 72, 0
2, 43968, Note_on_c, 0, 76, 110
2, 44016, Note_on_c, 0, 76, 0
2, 44160, Note_on_c, 0, 69, 110
2, 44208, Note_on_c, 0, 69, 0
2, 44352, Note_on_c, 0, 72, 110
2, 44512, Note_on_c, 0, 72, 0
2, 44544, Note_on_c, 0, 66, 110
2, 44704, Note_on_c, 0, 66, 0
2, 44736, Note_on_c, 0, 67, 110
2, 44830, Note_on_c, 0, 67, 0
2, 44832, Note_on_c, 0, 69, 110
2, 44926, Note_on_c, 0, 69, 0
2, 44928, Note_on_c, 0, 71, 110
2, 44976, Note_on_c, 0, 71, 0
2, 45120, Note_on_c, 0, 67, 110
2, 45280, Note_on_c, 0, 67, 0
2, 45312, Note_on_c, 0, 69, 110
2, 45360, Note_on_c, 0, 69, 0
2, 45504, Note_on_c, 0, 72, 110
2, 45552, Note_on_c, 0, 72, 0
2, 45696, Note_on_c, 0, 66, 110
2, 45744, Note_on_c, 0, 66, 0
2, 45888, Note_on_c, 0, 69, 110
2, 46048, Note_on_c, 0, 69, 0
2, 46080, Note_on_c, 0, 62, 110
2, 46240, Note_on_c, 0, 62, 0
2, 46272, Note_on_c, 0, 64, 110
2, 46366, Note_on_c, 0, 64, 0
2, 46368, Note_on_c, 0, 66, 110
2, 46462, Note_on_c, 0, 66, 0
2, 46464, Note_on_c, 0, 67, 110
2, 46512, Note_on_c, 0, 67, 0
2, 46656, Note_on_c, 0, 64, 110
2, 46816, Note_on_c, 0, 64, 0
2, 46848, Note_on_c, 0, 66, 110
2, 46896, Note_on_c, 0, 66, 0
2, 47040, Note_on_c, 0, 69, 110
2, 47088, Note_on_c, 0, 69, 0
2, 47232, Note_on_c, 0, 63, 110
2, 47280, Note_on_c, 0, 63, 0
2, 47424, Note_on_c, 0, 66, 110
2, 47584, Note_on_c, 0, 66, 0
2, 47616, Note_on_c, 0, 59, 110
2, 47776, Note_on_c, 0, 59, 0
2, 47808, Note_on_c, 0, 61, 110
2, 47902, Note_on_c, 0, 61, 0
2, 47904, Note_on_c, 0, 63, 110
2, 47998, Note_on_c, 0, 63, 0
2, 48000, Note_on_c, 0, 64, 110
2, 48544, Note_on_c, 0, 64, 0
2, 48576, Note_on_c, 0, 62, 110
2, 48670, Note_on_c, 0, 62, 0
2, 48672, Note_on_c, 0, 61, 110
2, 48766, Note_on_c, 0, 61, 0
2, 48768, Note_on_c, 0, 62, 110
2, 49312, Note_on_c, 0, 62, 0
2, 49344, Note_on_c, 0, 64, 110
2, 49438, Note_on_c, 0, 64, 0
2, 49440, Note_on_c, 0, 66, 110
2, 49534, Note_on_c, 0, 66, 0
2, 49536, Note_on_c, 0, 67, 110
2, 50080, Note_on_c, 0, 67, 0
2, 50112, Note_on_c, 0, 65, 110
2, 50206, Note_on_c, 0, 65, 0
2, 50208, Note_on_c, 0, 64, 110
2, 50302, Note_on_c, 0, 64, 0
2, 50304, Note_on_c, 0, 65, 110
2, 50848, Note_on_c, 0, 65, 0
2, 50880, Note_on_c, 0, 67, 110
2, 50974, Note_on_c, 0, 67, 0
2, 50976, Note_on_c, 0, 69, 110
2, 51070, Note_on_c, 0, 69, 0
2, 51072, Note_on_c, 0, 70, 110
2, 51616, Note_on_c, 0, 70, 0
2, 51648, Note_on_c, 0, 69, 110
2, 51742, Note_on_c, 0, 69, 0
2, 51744, Note_on_c, 0, 68, 110
2, 51838, Note_on_c, 0, 68, 0
2, 51840, Note_on_c, 0, 69, 110
2, 52560, Note_on_c, 0, 69, 0
2, 52608, Note_on_c, 0, 69, 110
2, 52630, Note_on_c, 0, 69, 0
2, 52632, Note_on_c, 0, 68, 110
2, 52654, Note_on_c, 0, 68, 0
2, 52656, Note_on_c, 0, 69, 110
2, 52678, Note_on_c, 0, 69, 0
2, 52680, Note_on_c, 0, 68, 110
2, 52960, Note_on_c, 0, 68, 0
2, 52992, Note_on_c, 0, 69, 110
2, 53328, Note_on_c, 0, 69, 0
2, 53376, Note_on_c, 0, 76, 110
2, 53712, Note_on_c, 0, 76, 0
2, 53760, Note_on_c, 0, 77, 110
2, 54096, Note_on_c, 0, 77, 0
2, 54144, Note_on_c, 0, 69, 110
2, 54480, Note_on_c, 0, 69, 0
2, 54528, Note_on_c, 0, 72, 110
2, 54622, Note_on_c, 0, 72, 0
2, 54624, Note_on_c, 0, 71, 110
2, 54718, Note_on_c, 0, 71, 0
2, 54720, Note_on_c, 0, 69, 110
2, 55056, Note_on_c, 0, 69, 0
2, 55104, Note_on_c, 0, 71, 110
2, 55198, Note_on_c, 0, 71, 0
2, 55200, Note_on_c, 0, 73, 110
2, 55294, Note_on_c, 0, 73, 0
2, 55296, Note_on_c, 0, 74, 110
2, 55390, Note_on_c, 0, 74, 0
2, 55392, Note_on_c, 0, 76, 110
2, 55486, Note_on_c, 0, 76, 0
2, 55488, Note_on_c, 0, 77, 110
2, 55824, Note_on_c, 0, 77, 0
2, 55872, Note_on_c, 0, 76, 110
2, 55966, Note_on_c, 0, 76, 0
2, 55968, Note_on_c, 0, 75, 110
2, 56062, Note_on_c, 0, 75, 0
2, 56064, Note_on_c, 0, 76, 110
2, 56158, Note_on_c, 0, 76, 0
2, 56160, Note_on_c, 0, 71, 110
2, 56254, Note_on_c, 0, 71, 0
2, 56256, Note_on_c, 0, 76, 110
2, 56350, Note_on_c, 0, 76, 0
2, 56352, Note_on_c, 0, 78, 110
2, 56446, Note_on_c, 0, 78, 0
2, 56448, Note_on_c, 0, 76, 110
2, 56542, Note_on_c, 0, 76, 0
2, 56544, Note_on_c, 0, 71, 110
2, 56638, Note_on_c, 0, 71, 0
2, 56640, Note_on_c, 0, 76, 110
2, 56734, Note_on_c, 0, 76, 0
2, 56736, Note_on_c, 0, 79, 110
2, 56830, Note_on_c, 0, 79, 0
2, 56832, Note_on_c, 0, 78, 110
2, 56926, Note_on_c, 0, 78, 0
2, 56928, Note_on_c, 0, 71, 110
2, 57022, Note_on_c, 0, 71, 0
2, 57024, Note_on_c, 0, 78, 110
2, 57118, Note_on_c, 0, 78, 0
2, 57120, Note_on_c, 0, 79, 110
2, 57214, Note_on_c, 0, 79, 0
2, 57216, Note_on_c, 0, 78, 110
2, 57310, Note_on_c, 0, 78, 0
2, 57312, Note_on_c, 0, 71, 110
2, 57406, Note_on_c, 0, 71, 0
2, 57408, Note_on_c, 0, 78, 110
2, 57502, Note_on_c, 0, 78, 0
2, 57504, Note_on_c, 0, 81, 110
2, 57598, Note_on_c, 0, 81, 0
2, 57600, Note_on_c, 0, 79, 110
2, 57694, Note_on_c, 0, 79, 0
2, 57696, Note_on_c, 0, 71, 110
2, 57790, Note_on_c, 0, 71, 0
2, 57792, Note_on_c, 0, 79, 110
2, 57886, Note_on_c, 0, 79, 0
2, 57888, Note_on_c, 0, 81, 110
2, 57982, Note_on_c, 0, 81, 0
2, 57984, Note_on_c, 0, 79, 110
2, 58078, Note_on_c, 0, 79, 0
2, 58080, Note_on_c, 0, 71, 110
2, 58174, Note_on_c, 0, 71, 0
2, 58176, Note_on_c, 0, 79, 110
2, 58270, Note_on_c, 0, 79, 0
2, 58272, Note_on_c, 0, 83, 110
2, 58366, Note_on_c, 0, 83, 0
2, 58368, Note_on_c, 0, 78, 110
2, 58462, Note_on_c, 0, 78, 0
2, 58464, Note_on_c, 0, 71, 110
2, 58558, Note_on_c, 0, 71, 0
2, 58560, Note_on_c, 0, 78, 110
2, 58654, Note_on_c, 0, 78, 0
2, 58656, Note_on_c, 0, 79, 110
2, 58750, Note_on_c, 0, 79, 0
2, 58752, Note_on_c, 0, 78, 110
2, 58846, Note_on_c, 0, 78, 0
2, 58848, Note_on_c, 0, 71, 110
2, 58942, Note_on_c, 0, 71, 0
2, 58944, Note_on_c, 0, 78, 110
2, 59038, Note_on_c, 0, 78, 0
2, 59040, Note_on_c, 0, 81, 110
2, 59134, Note_on_c, 0, 81, 0
2, 59136, Note_on_c, 0, 79, 110
2, 59230, Note_on_c, 0, 79, 0
2, 59232, Note_on_c, 0, 71, 110
2, 59326, Note_on_c, 0, 71, 0
2, 59328, Note_on_c, 0, 76, 110
2, 59422, Note_on_c, 0, 76, 0
2, 59424, Note_on_c, 0, 78, 110
2, 59518, Note_on_c, 0, 78, 0
2, 59520, Note_on_c, 0, 79, 110
2, 59614, Note_on_c, 0, 79, 0
2, 59616, Note_on_c, 0, 81, 110
2, 59710, Note_on_c, 0, 81, 0
2, 59712, Note_on_c, 0, 82, 110
2, 59806, Note_on_c, 0, 82, 0
2, 59808, Note_on_c, 0, 79, 110
2, 59902, Note_on_c, 0, 79, 0
2, 59904, Note_on_c, 0, 76, 110
2, 59998, Note_on_c, 0, 76, 0
2, 60000, Note_on_c, 0, 77, 110
2, 60094, Note_on_c, 0, 77, 0
2, 60096, Note_on_c, 0, 79, 110
2, 60352, Note_on_c, 0, 79, 0
2, 60384, Note_on_c, 0, 77, 110
2, 60478, Note_on_c, 0, 77, 0
2, 60480, Note_on_c, 0, 76, 110
2, 60574, Note_on_c, 0, 76, 0
2, 60576, Note_on_c, 0, 74, 110
2, 60670, Note_on_c, 0, 74, 0
2, 60672, Note_on_c, 0, 73, 110
2, 60766, Note_on_c, 0, 73, 0
2, 60768, Note_on_c, 0, 74, 110
2, 60862, Note_on_c, 0, 74, 0
2, 60864, Note_on_c, 0, 76, 110
2, 61120, Note_on_c, 0, 76, 0
2, 61152, Note_on_c, 0, 74, 110
2, 61246, Note_on_c, 0, 74, 0
2, 61248, Note_on_c, 0, 73, 110
2, 61342, Note_on_c, 0, 73, 0
2, 61344, Note_on_c, 0, 71, 110
2, 61438, Note_on_c, 0, 71, 0
2, 61440, Note_on_c, 0, 73, 110
2, 61534, Note_on_c, 0, 73, 0
2, 61536, Note_on_c, 0, 69, 110
2, 61630, Note_on_c, 0, 69, 0
2, 61632, Note_on_c, 0, 73, 110
2, 61726, Note_on_c, 0, 73, 0
2, 61728, Note_on_c, 0, 74, 110
2, 61822, Note_on_c, 0, 74, 0
2, 61824, Note_on_c, 0, 76, 110
2, 61918, Note_on_c, 0, 76, 0
2, 61920, Note_on_c, 0, 77, 110
2, 62014, Note_on_c, 0, 77, 0
2, 62016, Note_on_c, 0, 79, 110
2, 62110, Note_on_c, 0, 79, 0
2, 62112, Note_on_c, 0, 76, 110
2, 62206, Note_on_c, 0, 76, 0
2, 62208, Note_on_c, 0, 77, 110
2, 62302, Note_on_c, 0, 77, 0
2, 62304, Note_on_c, 0, 76, 110
2, 62398, Note_on_c, 0, 76, 0
2, 62400, Note_on_c, 0, 74, 110
2, 62494, Note_on_c, 0, 74, 0
2, 62496, Note_on_c, 0, 73, 110
2, 62590, Note_on_c, 0, 73, 0
2, 62592, Note_on_c, 0, 74, 110
2, 62640, Note_on_c, 0, 74, 0
2, 62784, Note_on_c, 0, 72, 110
2, 62944, Note_on_c, 0, 72, 0
2, 62976, Note_on_c, 0, 71, 110
2, 63024, Note_on_c, 0, 71, 0
2, 63168, Note_on_c, 0, 80, 110
2, 63328, Note_on_c, 0, 80, 0
2, 63360, Note_on_c, 0, 80, 110
2, 63382, Note_on_c, 0, 80, 0
2, 63384, Note_on_c, 0, 79, 110
2, 63406, Note_on_c, 0, 79, 0
2, 63408, Note_on_c, 0, 80, 110
2, 63430, Note_on_c, 0, 80, 0
2, 63432, Note_on_c, 0, 79, 110
2, 63550, Note_on_c, 0, 79, 0
2, 63552, Note_on_c, 0, 77, 110
2, 63712, Note_on_c, 0, 77, 0
2, 63744, Note_on_c, 0, 68, 110
2, 63792, Note_on_c, 0, 68, 0
2, 63936, Note_on_c, 0, 77, 110
2, 64096, Note_on_c, 0, 77, 0
2, 64128, Note_on_c, 0, 77, 110
2, 64150, Note_on_c, 0, 77, 0
2, 64152, Note_on_c, 0, 76, 110
2, 64174, Note_on_c, 0, 76, 0
2, 64176, Note_on_c, 0, 77, 110
2, 64198, Note_on_c, 0, 77, 0
2, 64200, Note_on_c, 0, 76, 110
2, 64318, Note_on_c, 0, 76, 0
2, 64320, Note_on_c, 0, 74, 110
2, 64480, Note_on_c, 0, 74, 0
2, 64512, Note_on_c, 0, 65, 110
2, 64560, Note_on_c, 0, 65, 0
2, 64704, Note_on_c, 0, 74, 110
2, 64864, Note_on_c, 0, 74, 0
2, 64896, Note_on_c, 0, 74, 110
2, 64918, Note_on_c, 0, 74, 0
2, 64920, Note_on_c, 0, 72, 110
2, 64942, Note_on_c, 0, 72, 0
2, 64944, Note_on_c, 0, 74, 110
2, 64966, Note_on_c, 0, 74, 0
2, 64968, Note_on_c, 0, 72, 110
2, 65086, Note_on_c, 0, 72, 0
2, 65088, Note_on_c, 0, 71, 110
2, 65248, Note_on_c, 0, 71, 0
2, 65280, Note_on_c, 0, 72, 110
2, 65374, Note_on_c, 0, 72, 0
2, 65376, Note_on_c, 0, 67, 110
2, 65470, Note_on_c, 0, 67, 0
2, 65472, Note_on_c, 0, 72, 110
2, 65566, Note_on_c, 0, 72, 0
2, 65568, Note_on_c, 0, 74, 110
2, 65662, Note_on_c, 0, 74, 0
2, 65664, Note_on_c, 0, 72, 110
2, 65758, Note_on_c, 0, 72, 0
2, 65760, Note_on_c, 0, 66, 110
2, 65854, Note_on_c, 0, 66, 0
2, 65856, Note_on_c, 0, 69, 110
2, 65950, Note_on_c, 0, 69, 0
2, 65952, Note_on_c, 0, 72, 110
2, 66046, Note_on_c, 0, 72, 0
2, 66048, Note_on_c, 0, 71, 110
2, 66142, Note_on_c, 0, 71, 0
2, 66144, Note_on_c, 0, 63, 110
2, 66238, Note_on_c, 0, 63, 0
2, 66240, Note_on_c, 0, 71, 110
2, 66334, Note_on_c, 0, 71, 0
2, 66336, Note_on_c, 0, 72, 110
2, 66430, Note_on_c, 0, 72, 0
2, 66432, Note_on_c, 0, 71, 110
2, 66526, Note_on_c, 0, 71, 0
2, 66528, Note_on_c, 0, 64, 110
2, 66622, Note_on_c, 0, 64, 0
2, 66624, Note_on_c, 0, 71, 110
2, 66718, Note_on_c, 0, 71, 0
2, 66720, Note_on_c, 0, 74, 110
2, 66814, Note_on_c, 0, 74, 0
2, 66816, Note_on_c, 0, 73, 110
2, 66910, Note_on_c, 0, 73, 0
2, 66912, Note_on_c, 0, 69, 110
2, 67006, Note_on_c, 0, 69, 0
2, 67008, Note_on_c, 0, 73, 110
2, 67102, Note_on_c, 0, 73, 0
2, 67104, Note_on_c, 0, 75, 110
2, 67198, Note_on_c, 0, 75, 0
2, 67200, Note_on_c, 0, 76, 110
2, 67294, Note_on_c, 0, 76, 0
2, 67296, Note_on_c, 0, 67, 110
2, 67390, Note_on_c, 0, 67, 0
2, 67392, Note_on_c, 0, 72, 110
2, 67486, Note_on_c, 0, 72, 0
2, 67488, Note_on_c, 0, 76, 110
2, 67582, Note_on_c, 0, 76, 0
2, 67584, Note_on_c, 0, 74, 110
2, 67678, Note_on_c, 0, 74, 0
2, 67680, Note_on_c, 0, 66, 110
2, 67774, Note_on_c, 0, 66, 0
2, 67776, Note_on_c, 0, 74, 110
2, 67870, Note_on_c, 0, 74, 0
2, 67872, Note_on_c, 0, 75, 110
2, 67966, Note_on_c, 0, 75, 0
2, 67968, Note_on_c, 0, 74, 110
2, 68062, Note_on_c, 0, 74, 0
2, 68064, Note_on_c, 0, 67, 110
2, 68158, Note_on_c, 0, 67, 0
2, 68160, Note_on_c, 0, 74, 110
2, 68254, Note_on_c, 0, 74, 0
2, 68256, Note_on_c, 0, 77, 110
2, 68350, Note_on_c, 0, 77, 0
2, 68352, Note_on_c, 0, 76, 110
2, 68446, Note_on_c, 0, 76, 0
2, 68448, Note_on_c, 0, 72, 110
2, 68542, Note_on_c, 0, 72, 0
2, 68544, Note_on_c, 0, 76, 110
2, 68638, Note_on_c, 0, 76, 0
2, 68640, Note_on_c, 0, 78, 110
2, 68734, Note_on_c, 0, 78, 0
2, 68736, Note_on_c, 0, 79, 110
2, 68830, Note_on_c, 0, 79, 0
2, 68832, Note_on_c, 0, 70, 110
2, 68926, Note_on_c, 0, 70, 0
2, 68928, Note_on_c, 0, 75, 110
2, 69022, Note_on_c, 0, 75, 0
2, 69024, Note_on_c, 0, 79, 110
2, 69118, Note_on_c, 0, 79, 0
2, 69120, Note_on_c, 0, 77, 110
2, 69214, Note_on_c, 0, 77, 0
2, 69216, Note_on_c, 0, 69, 110
2, 69310, Note_on_c, 0, 69, 0
2, 69312, Note_on_c, 0, 77, 110
2, 69406, Note_on_c, 0, 77, 0
2, 69408, Note_on_c, 0, 79, 110
2, 69502, Note_on_c, 0, 79, 0
2, 69504, Note_on_c, 0, 77, 110
2, 69598, Note_on_c, 0, 77, 0
2, 69600, Note_on_c, 0, 70, 110
2, 69694, Note_on_c, 0, 70, 0
2, 69696, Note_on_c, 0, 74, 110
2, 69790, Note_on_c, 0, 74, 0
2, 69792, Note_on_c, 0, 77, 110
2, 69886, Note_on_c, 0, 77, 0
2, 69888, Note_on_c, 0, 76, 110
2, 69982, Note_on_c, 0, 76, 0
2, 69984, Note_on_c, 0, 68, 110
2, 70078, Note_on_c, 0, 68, 0
2, 70080, Note_on_c, 0, 76, 110
2, 70174, Note_on_c, 0, 76, 0
2, 70176, Note_on_c, 0, 77, 110
2, 70270, Note_on_c, 0, 77, 0
2, 70272, Note_on_c, 0, 76, 110
2, 70366, Note_on_c, 0, 76, 0
2, 70368, Note_on_c, 0, 69, 110
2, 70462, Note_on_c, 0, 69, 0
2, 70464, Note_on_c, 0, 76, 110
2, 70558, Note_on_c, 0, 76, 0
2, 70560, Note_on_c, 0, 79, 110
2, 70654, Note_on_c, 0, 79, 0
2, 70656, Note_on_c, 0, 77, 110
2, 70750, Note_on_c, 0, 77, 0
2, 70752, Note_on_c, 0, 79, 110
2, 70846, Note_on_c, 0, 79, 0
2, 70848, Note_on_c, 0, 77, 110
2, 70942, Note_on_c, 0, 77, 0
2, 70944, Note_on_c, 0, 76, 110
2, 71038, Note_on_c, 0, 76, 0
2, 71040, Note_on_c, 0, 74, 110
2, 71134, Note_on_c, 0, 74, 0
2, 71136, Note_on_c, 0, 72, 110
2, 71230, Note_on_c, 0, 72, 0
2, 71232, Note_on_c, 0, 71, 110
2, 71326, Note_on_c, 0, 71, 0
2, 71328, Note_on_c, 0, 69, 110
2, 71422, Note_on_c, 0, 69, 0
2, 71424, Note_on_c, 0, 68, 110
2, 71518, Note_on_c, 0, 68, 0
2, 71520, Note_on_c, 0, 64, 110
2, 71614, Note_on_c, 0, 64, 0
2, 71616, Note_on_c, 0, 66, 110
2, 71710, Note_on_c, 0, 66, 0
2, 71712, Note_on_c, 0, 68, 110
2, 71806, Note_on_c, 0, 68, 0
2, 71808, Note_on_c, 0, 69, 110
2, 71902, Note_on_c, 0, 69, 0
2, 71904, Note_on_c, 0, 68, 110
2, 71998, Note_on_c, 0, 68, 0
2, 72000, Note_on_c, 0, 69, 110
2, 72094, Note_on_c, 0, 69, 0
2, 72096, Note_on_c, 0, 71, 110
2, 72190, Note_on_c, 0, 71, 0
2, 72192, Note_on_c, 0, 72, 110
2, 72528, Note_on_c, 0, 72, 0
2, 72576, Note_on_c, 0, 64, 110
2, 72912, Note_on_c, 0, 64, 0
2, 72960, Note_on_c, 0, 65, 110
2, 73054, Note_on_c, 0, 65, 0
2, 73056, Note_on_c, 0, 64, 110
2, 73150, Note_on_c, 0, 64, 0
2, 73152, Note_on_c, 0, 62, 110
2, 73246, Note_on_c, 0, 62, 0
2, 73248, Note_on_c, 0, 61, 110
2, 73342, Note_on_c, 0, 61, 0
2, 73344, Note_on_c, 0, 62, 110
2, 73438, Note_on_c, 0, 62, 0
2, 73440, Note_on_c, 0, 64, 110
2, 73534, Note_on_c, 0, 64, 0
2, 73536, Note_on_c, 0, 66, 110
2, 73630, Note_on_c, 0, 66, 0
2, 73632, Note_on_c, 0, 68, 110
2, 73726, Note_on_c, 0, 68, 0
2, 73728, Note_on_c, 0, 69, 110
2, 73822, Note_on_c, 0, 69, 0
2, 73824, Note_on_c, 0, 64, 110
2, 73918, Note_on_c, 0, 64, 0
2, 73920, Note_on_c, 0, 69, 110
2, 74256, Note_on_c, 0, 69, 0
2, 74304, Note_on_c, 0, 68, 110
2, 74464, Note_on_c, 0, 68, 0
2, 74496, Note_on_c, 0, 69, 110
2, 74656, Note_on_c, 0, 69, 0
2, 74688, Note_on_c, 0, 71, 110
2, 74848, Note_on_c, 0, 71, 0
2, 74880, Note_on_c, 0, 72, 110
2, 75040, Note_on_c, 0, 72, 0
2, 75072, Note_on_c, 0, 71, 110
2, 75166, Note_on_c, 0, 71, 0
2, 75168, Note_on_c, 0, 69, 110
2, 75262, Note_on_c, 0, 69, 0
2, 75264, Note_on_c, 0, 71, 110
2, 75424, Note_on_c, 0, 71, 0
2, 75456, Note_on_c, 0, 73, 110
2, 75616, Note_on_c, 0, 73, 0
2, 75648, Note_on_c, 0, 74, 110
2, 76192, Note_on_c, 0, 74, 0
2, 76224, Note_on_c, 0, 72, 110
2, 76318, Note_on_c, 0, 72, 0
2, 76320, Note_on_c, 0, 71, 110
2, 76414, Note_on_c, 0, 71, 0
2, 76416, Note_on_c, 0, 72, 110
2, 76464, Note_on_c, 0, 72, 0
2, 76608, Note_on_c, 0, 69, 110
2, 76960, Note_on_c, 0, 69, 0
2, 76992, Note_on_c, 0, 68, 110
2, 77086, Note_on_c, 0, 68, 0
2, 77088, Note_on_c, 0, 66, 110
2, 77182, Note_on_c, 0, 66, 0
2, 77184, Note_on_c, 0, 69, 110
2, 77206, Note_on_c, 0, 69, 0
2, 77208, Note_on_c, 0, 68, 110
2, 77230, Note_on_c, 0, 68, 0
2, 77232, Note_on_c, 0, 69, 110
2, 77254, Note_on_c, 0, 69, 0
2, 77256, Note_on_c, 0, 68, 110
2, 77536, Note_on_c, 0, 68, 0
2, 77568, Note_on_c, 0, 69, 110
2, 77616, Note_on_c, 0, 69, 0
2, 77760, Note_on_c, 0, 76, 110
2, 77808, Note_on_c, 0, 76, 0
2, 77952, Note_on_c, 0, 81, 110
2, 78672, Note_on_c, 0, 81, 0
2, 78720, Note_on_c, 0, 81, 110
2, 78742, Note_on_c, 0, 81, 0
2, 78744, Note_on_c, 0, 80, 110
2, 78766, Note_on_c, 0, 80, 0
2, 78768, Note_on_c, 0, 81, 110
2, 78790, Note_on_c, 0, 81, 0
2, 78792, Note_on_c, 0, 80, 110
2, 79072, Note_on_c, 0, 80, 0
2, 79104, Note_on_c, 0, 81, 110
2, 79198, Note_on_c, 0, 81, 0
2, 79200, Note_on_c, 0, 79, 110
2, 79294, Note_on_c, 0, 79, 0
2, 79296, Note_on_c, 0, 77, 110
2, 79582, Note_on_c, 0, 77, 0
2, 79584, Note_on_c, 0, 76, 110
2, 79678, Note_on_c, 0, 76, 0
2, 79680, Note_on_c, 0, 74, 110
2, 79774, Note_on_c, 0, 74, 0
2, 79776, Note_on_c, 0, 73, 110
2, 79870, Note_on_c, 0, 73, 0
2, 79872, Note_on_c, 0, 74, 110
2, 79966, Note_on_c, 0, 74, 0
2, 79968, Note_on_c, 0, 72, 110
2, 80062, Note_on_c, 0, 72, 0
2, 80064, Note_on_c, 0, 70, 110
2, 80350, Note_on_c, 0, 70, 0
2, 80352, Note_on_c, 0, 69, 110
2, 80446, Note_on_c, 0, 69, 0
2, 80448, Note_on_c, 0, 68, 110
2, 80542, Note_on_c, 0, 68, 0
2, 80544, Note_on_c, 0, 66, 110
2, 80638, Note_on_c, 0, 66, 0
2, 80640, Note_on_c, 0, 68, 110
2, 80800, Note_on_c, 0, 68, 0
2, 80832, Note_on_c, 0, 64, 110
2, 80992, Note_on_c, 0, 64, 0
2, 81024, Note_on_c, 0, 76, 110
2, 81184, Note_on_c, 0, 76, 0
2, 81216, Note_on_c, 0, 77, 110
2, 81376, Note_on_c, 0, 77, 0
2, 81408, Note_on_c, 0, 74, 110
2, 81502, Note_on_c, 0, 74, 0
2, 81504, Note_on_c, 0, 72, 110
2, 81760, Note_on_c, 0, 72, 0
2, 81792, Note_on_c, 0, 72, 110
2, 81814, Note_on_c, 0, 72, 0
2, 81816, Note_on_c, 0, 71, 110
2, 81838, Note_on_c, 0, 71, 0
2, 81840, Note_on_c, 0, 69, 110
2, 81862, Note_on_c, 0, 69, 0
2, 81864, Note_on_c, 0, 71, 110
2, 81886, Note_on_c, 0, 71, 0
2, 81888, Note_on_c, 0, 72, 110
2, 81910, Note_on_c, 0, 72, 0
2, 81912, Note_on_c, 0, 71, 110
2, 81934, Note_on_c, 0, 71, 0
2, 81936, Note_on_c, 0, 72, 110
2, 81958, Note_on_c, 0, 72, 0
2, 81960, Note_on_c, 0, 71, 110
2, 81982, Note_on_c, 0, 71, 0
2, 81984, Note_on_c, 0, 72, 110
2, 82006, Note_on_c, 0, 72, 0
2, 82008, Note_on_c, 0, 71, 110
2, 82030, Note_on_c, 0, 71, 0
2, 82032, Note_on_c, 0, 72, 110
2, 82054, Note_on_c, 0, 72, 0
2, 82056, Note_on_c, 0, 71, 110
2, 82078, Note_on_c, 0, 71, 0
2, 82080, Note_on_c, 0, 72, 110
2, 82102, Note_on_c, 0, 72, 0
2, 82104, Note_on_c, 0, 71, 110
2, 82126, Note_on_c, 0, 71, 0
2, 82128, Note_on_c, 0, 69, 110
2, 82150, Note_on_c, 0, 69, 0
2, 82152, Note_on_c, 0, 71, 110
2, 82174, Note_on_c, 0, 71, 0
2, 82176, Note_on_c, 0, 69, 110
2, 82896, Note_on_c, 0, 69, 0
2, 82896, End_track
3, 0, Start_track
3, 0, MIDI_port, 0
3, 0, Title_t, "L.H."
3, 0, Program_c, 1, 0
3, 0, Control_c, 1, 7, 127
3, 0, Control_c, 1, 10, 64
3, 384, Note_on_c, 1, 57, 110
3, 720, Note_on_c, 1, 57, 0
3, 768, Note_on_c, 1, 60, 110
3, 1104, Note_on_c, 1, 60, 0
3, 1152, Note_on_c, 1, 52, 110
3, 1488, Note_on_c, 1, 52, 0
3, 1536, Note_on_c, 1, 53, 110
3, 1630, Note_on_c, 1, 53, 0
3, 1632, Note_on_c, 1, 52, 110
3, 1726, Note_on_c, 1, 52, 0
3, 1728, Note_on_c, 1, 50, 110
3, 2064, Note_on_c, 1, 50, 0
3, 2112, Note_on_c, 1, 52, 110
3, 2206, Note_on_c, 1, 52, 0
3, 2208, Note_on_c, 1, 54, 110
3, 2302, Note_on_c, 1, 54, 0
3, 2304, Note_on_c, 1, 55, 110
3, 2398, Note_on_c, 1, 55, 0
3, 2400, Note_on_c, 1, 57, 110
3, 2494, Note_on_c, 1, 57, 0
3, 2496, Note_on_c, 1, 58, 110
3, 2832, Note_on_c, 1, 58, 0
3, 2880, Note_on_c, 1, 57, 110
3, 2974, Note_on_c, 1, 57, 0
3, 2976, Note_on_c, 1, 56, 110
3, 3070, Note_on_c, 1, 56, 0
3, 3072, Note_on_c, 1, 57, 110
3, 3166, Note_on_c, 1, 57, 0
3, 3168, Note_on_c, 1, 52, 110
3, 3262, Note_on_c, 1, 52, 0
3, 3264, Note_on_c, 1, 57, 110
3, 3358, Note_on_c, 1, 57, 0
3, 3360, Note_on_c, 1, 59, 110
3, 3454, Note_on_c, 1, 59, 0
3, 3456, Note_on_c, 1, 57, 110
3, 3550, Note_on_c, 1, 57, 0
3, 3552, Note_on_c, 1, 52, 110
3, 3646, Note_on_c, 1, 52, 0
3, 3648, Note_on_c, 1, 57, 110
3, 3742, Note_on_c, 1, 57, 0
3, 3744, Note_on_c, 1, 60, 110
3, 3838, Note_on_c, 1, 60, 0
3, 3840, Note_on_c, 1, 59, 110
3, 3934, Note_on_c, 1, 59, 0
3, 3936, Note_on_c, 1, 52, 110
3, 4030, Note_on_c, 1, 52, 0
3, 4032, Note_on_c, 1, 59, 110
3, 4126, Note_on_c, 1, 59, 0
3, 4128, Note_on_c, 1, 60, 110
3, 4222, Note_on_c, 1, 60, 0
3, 4224, Note_on_c, 1, 59, 110
3, 4318, Note_on_c, 1, 59, 0
3, 4320, Note_on_c, 1, 52, 110
3, 4414, Note_on_c, 1, 52, 0
3, 4416, Note_on_c, 1, 59, 110
3, 4510, Note_on_c, 1, 59, 0
3, 4512, Note_on_c, 1, 62, 110
3, 4606, Note_on_c, 1, 62, 0
3, 4608, Note_on_c, 1, 60, 110
3, 4702, Note_on_c, 1, 60, 0
3, 4704, Note_on_c, 1, 52, 110
3, 4798, Note_on_c, 1, 52, 0
3, 4800, Note_on_c, 1, 60, 110
3, 4894, Note_on_c, 1, 60, 0
3, 4896, Note_on_c, 1, 62, 110
3, 4990, Note_on_c, 1, 62, 0
3, 4992, Note_on_c, 1, 60, 110
3, 5086, Note_on_c, 1, 60, 0
3, 5088, Note_on_c, 1, 52, 110
3, 5182, Note_on_c, 1, 52, 0
3, 5184, Note_on_c, 1, 60, 110
3, 5278, Note_on_c, 1, 60, 0
3, 5280, Note_on_c, 1, 64, 110
3, 5374, Note_on_c, 1, 64, 0
3, 5376, Note_on_c, 1, 59, 110
3, 5470, Note_on_c, 1, 59, 0
3, 5472, Note_on_c, 1, 52, 110
3, 5566, Note_on_c, 1, 52, 0
3, 5568, Note_on_c, 1, 59, 110
3, 5662, Note_on_c, 1, 59, 0
3, 5664, Note_on_c, 1, 60, 110
3, 5758, Note_on_c, 1, 60, 0
3, 5760, Note_on_c, 1, 59, 110
3, 5854, Note_on_c, 1, 59, 0
3, 5856, Note_on_c, 1, 52, 110
3, 5950, Note_on_c, 1, 52, 0
3, 5952, Note_on_c, 1, 59, 110
3, 6046, Note_on_c, 1, 59, 0
3, 6048, Note_on_c, 1, 62, 110
3, 6142, Note_on_c, 1, 62, 0
3, 6144, Note_on_c, 1, 60, 110
3, 6238, Note_on_c, 1, 60, 0
3, 6240, Note_on_c, 1, 59, 110
3, 6334, Note_on_c, 1, 59, 0
3, 6336, Note_on_c, 1, 57, 110
3, 6672, Note_on_c, 1, 57, 0
3, 6720, Note_on_c, 1, 56, 110
3, 6880, Note_on_c, 1, 56, 0
3, 6912, Note_on_c, 1, 57, 110
3, 7006, Note_on_c, 1, 57, 0
3, 7008, Note_on_c, 1, 60, 110
3, 7102, Note_on_c, 1, 60, 0
3, 7104, Note_on_c, 1, 59, 110
3, 7198, Note_on_c, 1, 59, 0
3, 7200, Note_on_c, 1, 62, 110
3, 7294, Note_on_c, 1, 62, 0
3, 7296, Note_on_c, 1, 60, 110
3, 7390, Note_on_c, 1, 60, 0
3, 7392, Note_on_c, 1, 59, 110
3, 7486, Note_on_c, 1, 59, 0
3, 7488, Note_on_c, 1, 60, 110
3, 7582, Note_on_c, 1, 60, 0
3, 7584, Note_on_c, 1, 57, 110
3, 7678, Note_on_c, 1, 57, 0
3, 7680, Note_on_c, 1, 52, 110
3, 7840, Note_on_c, 1, 52, 0
3, 7872, Note_on_c, 1, 54, 110
3, 8032, Note_on_c, 1, 54, 0
3, 8064, Note_on_c, 1, 55, 110
3, 8224, Note_on_c, 1, 55, 0
3, 8256, Note_on_c, 1, 54, 110
3, 8350, Note_on_c, 1, 54, 0
3, 8352, Note_on_c, 1, 52, 110
3, 8446, Note_on_c, 1, 52, 0
3, 8448, Note_on_c, 1, 54, 110
3, 8608, Note_on_c, 1, 54, 0
3, 8640, Note_on_c, 1, 56, 110
3, 8800, Note_on_c, 1, 56, 0
3, 8832, Note_on_c, 1, 57, 110
3, 9376, Note_on_c, 1, 57, 0
3, 9408, Note_on_c, 1, 55, 110
3, 9502, Note_on_c, 1, 55, 0
3, 9504, Note_on_c, 1, 54, 110
3, 9598, Note_on_c, 1, 54, 0
3, 9600, Note_on_c, 1, 55, 110
3, 9648, Note_on_c, 1, 55, 0
3, 9792, Note_on_c, 1, 52, 110
3, 10144, Note_on_c, 1, 52, 0
3, 10176, Note_on_c, 1, 51, 110
3, 10270, Note_on_c, 1, 51, 0
3, 10272, Note_on_c, 1, 49, 110
3, 10366, Note_on_c, 1, 49, 0
3, 10368, Note_on_c, 1, 52, 110
3, 10390, Note_on_c, 1, 52, 0
3, 10392, Note_on_c, 1, 51, 110
3, 10414, Note_on_c, 1, 51, 0
3, 10416, Note_on_c, 1, 52, 110
3, 10438, Note_on_c, 1, 52, 0
3, 10440, Note_on_c, 1, 51, 110
3, 10720, Note_on_c, 1, 51, 0
3, 10752, Note_on_c, 1, 52, 110
3, 10800, Note_on_c, 1, 52, 0
3, 10944, Note_on_c, 1, 59, 110
3, 10992, Note_on_c, 1, 59, 0
3, 11136, Note_on_c, 1, 64, 110
3, 11856, Note_on_c, 1, 64, 0
3, 11904, Note_on_c, 1, 64, 110
3, 11926, Note_on_c, 1, 64, 0
3, 11928, Note_on_c, 1, 63, 110
3, 11950, Note_on_c, 1, 63, 0
3, 11952, Note_on_c, 1, 64, 110
3, 11974, Note_on_c, 1, 64, 0
3, 11976, Note_on_c, 1, 63, 110
3, 12256, Note_on_c, 1, 63, 0
3, 12288, Note_on_c, 1, 64, 110
3, 12336, Note_on_c, 1, 64, 0
3, 12480, Note_on_c, 1, 52, 110
3, 12574, Note_on_c, 1, 52, 0
3, 12576, Note_on_c, 1, 54, 110
3, 12670, Note_on_c, 1, 54, 0
3, 12672, Note_on_c, 1, 55, 110
3, 12766, Note_on_c, 1, 55, 0
3, 12768, Note_on_c, 1, 57, 110
3, 12862, Note_on_c, 1, 57, 0
3, 12864, Note_on_c, 1, 58, 110
3, 12958, Note_on_c, 1, 58, 0
3, 12960, Note_on_c, 1, 55, 110
3, 13054, Note_on_c, 1, 55, 0
3, 13056, Note_on_c, 1, 52, 110
3, 13150, Note_on_c, 1, 52, 0
3, 13152, Note_on_c, 1, 53, 110
3, 13246, Note_on_c, 1, 53, 0
3, 13248, Note_on_c, 1, 55, 110
3, 13504, Note_on_c, 1, 55, 0
3, 13536, Note_on_c, 1, 53, 110
3, 13630, Note_on_c, 1, 53, 0
3, 13632, Note_on_c, 1, 52, 110
3, 13726, Note_on_c, 1, 52, 0
3, 13728, Note_on_c, 1, 50, 110
3, 13822, Note_on_c, 1, 50, 0
3, 13824, Note_on_c, 1, 49, 110
3, 13918, Note_on_c, 1, 49, 0
3, 13920, Note_on_c, 1, 50, 110
3, 14014, Note_on_c, 1, 50, 0
3, 14016, Note_on_c, 1, 52, 110
3, 14272, Note_on_c, 1, 52, 0
3, 14304, Note_on_c, 1, 50, 110
3, 14398, Note_on_c, 1, 50, 0
3, 14400, Note_on_c, 1, 49, 110
3, 14494, Note_on_c, 1, 49, 0
3, 14496, Note_on_c, 1, 47, 110
3, 14590, Note_on_c, 1, 47, 0
3, 14592, Note_on_c, 1, 49, 110
3, 14686, Note_on_c, 1, 49, 0
3, 14688, Note_on_c, 1, 45, 110
3, 14782, Note_on_c, 1, 45, 0
3, 14784, Note_on_c, 1, 49, 110
3, 14878, Note_on_c, 1, 49, 0
3, 14880, Note_on_c, 1, 50, 110
3, 14974, Note_on_c, 1, 50, 0
3, 14976, Note_on_c, 1, 52, 110
3, 15070, Note_on_c, 1, 52, 0
3, 15072, Note_on_c, 1, 53, 110
3, 15166, Note_on_c, 1, 53, 0
3, 15168, Note_on_c, 1, 55, 110
3, 15262, Note_on_c, 1, 55, 0
3, 15264, Note_on_c, 1, 52, 110
3, 15358, Note_on_c, 1, 52, 0
3, 15360, Note_on_c, 1, 53, 110
3, 15454, Note_on_c, 1, 53, 0
3, 15456, Note_on_c, 1, 52, 110
3, 15550, Note_on_c, 1, 52, 0
3, 15552, Note_on_c, 1, 50, 110
3, 15646, Note_on_c, 1, 50, 0
3, 15648, Note_on_c, 1, 52, 110
3, 15742, Note_on_c, 1, 52, 0
3, 15744, Note_on_c, 1, 53, 110
3, 15838, Note_on_c, 1, 53, 0
3, 15840, Note_on_c, 1, 55, 110
3, 15934, Note_on_c, 1, 55, 0
3, 15936, Note_on_c, 1, 56, 110
3, 16030, Note_on_c, 1, 56, 0
3, 16032, Note_on_c, 1, 53, 110
3, 16126, Note_on_c, 1, 53, 0
3, 16128, Note_on_c, 1, 50, 110
3, 16222, Note_on_c, 1, 50, 0
3, 16224, Note_on_c, 1, 52, 110
3, 16318, Note_on_c, 1, 52, 0
3, 16320, Note_on_c, 1, 53, 110
3, 16576, Note_on_c, 1, 53, 0
3, 16608, Note_on_c, 1, 52, 110
3, 16702, Note_on_c, 1, 52, 0
3, 16704, Note_on_c, 1, 50, 110
3, 16798, Note_on_c, 1, 50, 0
3, 16800, Note_on_c, 1, 48, 110
3, 16894, Note_on_c, 1, 48, 0
3, 16896, Note_on_c, 1, 47, 110
3, 16990, Note_on_c, 1, 47, 0
3, 16992, Note_on_c, 1, 48, 110
3, 17086, Note_on_c, 1, 48, 0
3, 17088, Note_on_c, 1, 50, 110
3, 17344, Note_on_c, 1, 50, 0
3, 17376, Note_on_c, 1, 48, 110
3, 17470, Note_on_c, 1, 48, 0
3, 17472, Note_on_c, 1, 47, 110
3, 17566, Note_on_c, 1, 47, 0
3, 17568, Note_on_c, 1, 45, 110
3, 17662, Note_on_c, 1, 45, 0
3, 17664, Note_on_c, 1, 47, 110
3, 17758, Note_on_c, 1, 47, 0
3, 17760, Note_on_c, 1, 43, 110
3, 17854, Note_on_c, 1, 43, 0
3, 17856, Note_on_c, 1, 47, 110
3, 17950, Note_on_c, 1, 47, 0
3, 17952, Note_on_c, 1, 48, 110
3, 18046, Note_on_c, 1, 48, 0
3, 18048, Note_on_c, 1, 50, 110
3, 18142, Note_on_c, 1, 50, 0
3, 18144, Note_on_c, 1, 52, 110
3, 18238, Note_on_c, 1, 52, 0
3, 18240, Note_on_c, 1, 53, 110
3, 18334, Note_on_c, 1, 53, 0
3, 18336, Note_on_c, 1, 50, 110
3, 18430, Note_on_c, 1, 50, 0
3, 18432, Note_on_c, 1, 52, 110
3, 18526, Note_on_c, 1, 52, 0
3, 18528, Note_on_c, 1, 50, 110
3, 18622, Note_on_c, 1, 50, 0
3, 18624, Note_on_c, 1, 48, 110
3, 18718, Note_on_c, 1, 48, 0
3, 18720, Note_on_c, 1, 50, 110
3, 18814, Note_on_c, 1, 50, 0
3, 18816, Note_on_c, 1, 52, 110
3, 18910, Note_on_c, 1, 52, 0
3, 18912, Note_on_c, 1, 53, 110
3, 19006, Note_on_c, 1, 53, 0
3, 19008, Note_on_c, 1, 55, 110
3, 19102, Note_on_c, 1, 55, 0
3, 19104, Note_on_c, 1, 52, 110
3, 19198, Note_on_c, 1, 52, 0
3, 19200, Note_on_c, 1, 53, 110
3, 19248, Note_on_c, 1, 53, 0
3, 19392, Note_on_c, 1, 57, 110
3, 19440, Note_on_c, 1, 57, 0
3, 19584, Note_on_c, 1, 50, 110
3, 19632, Note_on_c, 1, 50, 0
3, 19776, Note_on_c, 1, 53, 110
3, 19936, Note_on_c, 1, 53, 0
3, 19968, Note_on_c, 1, 47, 110
3, 20128, Note_on_c, 1, 47, 0
3, 20160, Note_on_c, 1, 48, 110
3, 20254, Note_on_c, 1, 48, 0
3, 20256, Note_on_c, 1, 50, 110
3, 20350, Note_on_c, 1, 50, 0
3, 20352, Note_on_c, 1, 52, 110
3, 20400, Note_on_c, 1, 52, 0
3, 20544, Note_on_c, 1, 48, 110
3, 20704, Note_on_c, 1, 48, 0
3, 20736, Note_on_c, 1, 50, 110
3, 20784, Note_on_c, 1, 50, 0
3, 20928, Note_on_c, 1, 53, 110
3, 20976, Note_on_c, 1, 53, 0
3, 21120, Note_on_c, 1, 47, 110
3, 21168, Note_on_c, 1, 47, 0
3, 21312, Note_on_c, 1, 50, 110
3, 21472, Note_on_c, 1, 50, 0
3, 21504, Note_on_c, 1, 43, 110
3, 21664, Note_on_c, 1, 43, 0
3, 21696, Note_on_c, 1, 45, 110
3, 21790, Note_on_c, 1, 45, 0
3, 21792, Note_on_c, 1, 47, 110
3, 21886, Note_on_c, 1, 47, 0
3, 21888, Note_on_c, 1, 48, 110
3, 21936, Note_on_c, 1, 48, 0
3, 22080, Note_on_c, 1, 45, 110
3, 22240, Note_on_c, 1, 45, 0
3, 22272, Note_on_c, 1, 47, 110
3, 22320, Note_on_c, 1, 47, 0
3, 22464, Note_on_c, 1, 50, 110
3, 22512, Note_on_c, 1, 50, 0
3, 22656, Note_on_c, 1, 44, 110
3, 22704, Note_on_c, 1, 44, 0
3, 22848, Note_on_c, 1, 47, 110
3, 23008, Note_on_c, 1, 47, 0
3, 23040, Note_on_c, 1, 40, 110
3, 23200, Note_on_c, 1, 40, 0
3, 23232, Note_on_c, 1, 42, 110
3, 23326, Note_on_c, 1, 42, 0
3, 23328, Note_on_c, 1, 44, 110
3, 23422, Note_on_c, 1, 44, 0
3, 23424, Note_on_c, 1, 45, 110
3, 23472, Note_on_c, 1, 45, 0
3, 23616, Note_on_c, 1, 47, 110
3, 23776, Note_on_c, 1, 47, 0
3, 23808, Note_on_c, 1, 48, 110
3, 24144, Note_on_c, 1, 48, 0
3, 24192, Note_on_c, 1, 40, 110
3, 24528, Note_on_c, 1, 40, 0
3, 24576, Note_on_c, 1, 41, 110
3, 24670, Note_on_c, 1, 41, 0
3, 24672, Note_on_c, 1, 40, 110
3, 24766, Note_on_c, 1, 40, 0
3, 24768, Note_on_c, 1, 38, 110
3, 25054, Note_on_c, 1, 38, 0
3, 25056, Note_on_c, 1, 40, 110
3, 25150, Note_on_c, 1, 40, 0
3, 25152, Note_on_c, 1, 42, 110
3, 25246, Note_on_c, 1, 42, 0
3, 25248, Note_on_c, 1, 44, 110
3, 25342, Note_on_c, 1, 44, 0
3, 25344, Note_on_c, 1, 45, 110
3, 25438, Note_on_c, 1, 45, 0
3, 25440, Note_on_c, 1, 40, 110
3, 25534, Note_on_c, 1, 40, 0
3, 25536, Note_on_c, 1, 45, 110
3, 25872, Note_on_c, 1, 45, 0
3, 25920, Note_on_c, 1, 44, 110
3, 26080, Note_on_c, 1, 44, 0
3, 26112, Note_on_c, 1, 45, 110
3, 26272, Note_on_c, 1, 45, 0
3, 26304, Note_on_c, 1, 47, 110
3, 26464, Note_on_c, 1, 47, 0
3, 26496, Note_on_c, 1, 48, 110
3, 26656, Note_on_c, 1, 48, 0
3, 26688, Note_on_c, 1, 47, 110
3, 26782, Note_on_c, 1, 47, 0
3, 26784, Note_on_c, 1, 45, 110
3, 26878, Note_on_c, 1, 45, 0
3, 26880, Note_on_c, 1, 47, 110
3, 27040, Note_on_c, 1, 47, 0
3, 27072, Note_on_c, 1, 49, 110
3, 27232, Note_on_c, 1, 49, 0
3, 27264, Note_on_c, 1, 50, 110
3, 27808, Note_on_c, 1, 50, 0
3, 27840, Note_on_c, 1, 48, 110
3, 27934, Note_on_c, 1, 48, 0
3, 27936, Note_on_c, 1, 47, 110
3, 28030, Note_on_c, 1, 47, 0
3, 28032, Note_on_c, 1, 48, 110
3, 28080, Note_on_c, 1, 48, 0
3, 28224, Note_on_c, 1, 45, 110
3, 28576, Note_on_c, 1, 45, 0
3, 28608, Note_on_c, 1, 44, 110
3, 28702, Note_on_c, 1, 44, 0
3, 28704, Note_on_c, 1, 42, 110
3, 28798, Note_on_c, 1, 42, 0
3, 28800, Note_on_c, 1, 45, 110
3, 28822, Note_on_c, 1, 45, 0
3, 28824, Note_on_c, 1, 44, 110
3, 28846, Note_on_c, 1, 44, 0
3, 28848, Note_on_c, 1, 45, 110
3, 28870, Note_on_c, 1, 45, 0
3, 28872, Note_on_c, 1, 44, 110
3, 29152, Note_on_c, 1, 44, 0
3, 29184, Note_on_c, 1, 45, 110
3, 29232, Note_on_c, 1, 45, 0
3, 29376, Note_on_c, 1, 52, 110
3, 29424, Note_on_c, 1, 52, 0
3, 29568, Note_on_c, 1, 57, 110
3, 30288, Note_on_c, 1, 57, 0
3, 30336, Note_on_c, 1, 57, 110
3, 30358, Note_on_c, 1, 57, 0
3, 30360, Note_on_c, 1, 56, 110
3, 30382, Note_on_c, 1, 56, 0
3, 30384, Note_on_c, 1, 57, 110
3, 30406, Note_on_c, 1, 57, 0
3, 30408, Note_on_c, 1, 56, 110
3, 30688, Note_on_c, 1, 56, 0
3, 30720, Note_on_c, 1, 57, 110
3, 31056, Note_on_c, 1, 57, 0
3, 31104, Note_on_c, 1, 52, 110
3, 31440, Note_on_c, 1, 52, 0
3, 31488, Note_on_c, 1, 53, 110
3, 31824, Note_on_c, 1, 53, 0
3, 31872, Note_on_c, 1, 45, 110
3, 32208, Note_on_c, 1, 45, 0
3, 32256, Note_on_c, 1, 48, 110
3, 32350, Note_on_c, 1, 48, 0
3, 32352, Note_on_c, 1, 47, 110
3, 32446, Note_on_c, 1, 47, 0
3, 32448, Note_on_c, 1, 45, 110
3, 32784, Note_on_c, 1, 45, 0
3, 32832, Note_on_c, 1, 47, 110
3, 32926, Note_on_c, 1, 47, 0
3, 32928, Note_on_c, 1, 49, 110
3, 33022, Note_on_c, 1, 49, 0
3, 33024, Note_on_c, 1, 50, 110
3, 33118, Note_on_c, 1, 50, 0
3, 33120, Note_on_c, 1, 52, 110
3, 33214, Note_on_c, 1, 52, 0
3, 33216, Note_on_c, 1, 53, 110
3, 33552, Note_on_c, 1, 53, 0
3, 33600, Note_on_c, 1, 52, 110
3, 33694, Note_on_c, 1, 52, 0
3, 33696, Note_on_c, 1, 51, 110
3, 33790, Note_on_c, 1, 51, 0
3, 33792, Note_on_c, 1, 52, 110
3, 33886, Note_on_c, 1, 52, 0
3, 33888, Note_on_c, 1, 47, 110
3, 33982, Note_on_c, 1, 47, 0
3, 33984, Note_on_c, 1, 52, 110
3, 34078, Note_on_c, 1, 52, 0
3, 34080, Note_on_c, 1, 54, 110
3, 34174, Note_on_c, 1, 54, 0
3, 34176, Note_on_c, 1, 52, 110
3, 34270, Note_on_c, 1, 52, 0
3, 34272, Note_on_c, 1, 47, 110
3, 34366, Note_on_c, 1, 47, 0
3, 34368, Note_on_c, 1, 52, 110
3, 34462, Note_on_c, 1, 52, 0
3, 34464, Note_on_c, 1, 55, 110
3, 34558, Note_on_c, 1, 55, 0
3, 34560, Note_on_c, 1, 54, 110
3, 34654, Note_on_c, 1, 54, 0
3, 34656, Note_on_c, 1, 47, 110
3, 34750, Note_on_c, 1, 47, 0
3, 34752, Note_on_c, 1, 54, 110
3, 34846, Note_on_c, 1, 54, 0
3, 34848, Note_on_c, 1, 55, 110
3, 34942, Note_on_c, 1, 55, 0
3, 34944, Note_on_c, 1, 54, 110
3, 35038, Note_on_c, 1, 54, 0
3, 35040, Note_on_c, 1, 47, 110
3, 35134, Note_on_c, 1, 47, 0
3, 35136, Note_on_c, 1, 54, 110
3, 35230, Note_on_c, 1, 54, 0
3, 35232, Note_on_c, 1, 57, 110
3, 35326, Note_on_c, 1, 57, 0
3, 35328, Note_on_c, 1, 55, 110
3, 35422, Note_on_c, 1, 55, 0
3, 35424, Note_on_c, 1, 47, 110
3, 35518, Note_on_c, 1, 47, 0
3, 35520, Note_on_c, 1, 55, 110
3, 35614, Note_on_c, 1, 55, 0
3, 35616, Note_on_c, 1, 57, 110
3, 35710, Note_on_c, 1, 57, 0
3, 35712, Note_on_c, 1, 55, 110
3, 35806, Note_on_c, 1, 55, 0
3, 35808, Note_on_c, 1, 47, 110
3, 35902, Note_on_c, 1, 47, 0
3, 35904, Note_on_c, 1, 55, 110
3, 35998, Note_on_c, 1, 55, 0
3, 36000, Note_on_c, 1, 59, 110
3, 36094, Note_on_c, 1, 59, 0
3, 36096, Note_on_c, 1, 54, 110
3, 36190, Note_on_c, 1, 54, 0
3, 36192, Note_on_c, 1, 47, 110
3, 36286, Note_on_c, 1, 47, 0
3, 36288, Note_on_c, 1, 54, 110
3, 36382, Note_on_c, 1, 54, 0
3, 36384, Note_on_c, 1, 55, 110
3, 36478, Note_on_c, 1, 55, 0
3, 36480, Note_on_c, 1, 54, 110
3, 36574, Note_on_c, 1, 54, 0
3, 36576, Note_on_c, 1, 47, 110
3, 36670, Note_on_c, 1, 47, 0
3, 36672, Note_on_c, 1, 54, 110
3, 36766, Note_on_c, 1, 54, 0
3, 36768, Note_on_c, 1, 57, 110
3, 36862, Note_on_c, 1, 57, 0
3, 36864, Note_on_c, 1, 55, 110
3, 36958, Note_on_c, 1, 55, 0
3, 36960, Note_on_c, 1, 54, 110
3, 37054, Note_on_c, 1, 54, 0
3, 37056, Note_on_c, 1, 52, 110
3, 37392, Note_on_c, 1, 52, 0
3, 37440, Note_on_c, 1, 54, 110
3, 37600, Note_on_c, 1, 54, 0
3, 37632, Note_on_c, 1, 56, 110
3, 37680, Note_on_c, 1, 56, 0
3, 37824, Note_on_c, 1, 65, 110
3, 37984, Note_on_c, 1, 65, 0
3, 38016, Note_on_c, 1, 65, 110
3, 38038, Note_on_c, 1, 65, 0
3, 38040, Note_on_c, 1, 64, 110
3, 38062, Note_on_c, 1, 64, 0
3, 38064, Note_on_c, 1, 65, 110
3, 38086, Note_on_c, 1, 65, 0
3, 38088, Note_on_c, 1, 64, 110
3, 38206, Note_on_c, 1, 64, 0
3, 38208, Note_on_c, 1, 62, 110
3, 38368, Note_on_c, 1, 62, 0
3, 38400, Note_on_c, 1, 53, 110
3, 38448, Note_on_c, 1, 53, 0
3, 38592, Note_on_c, 1, 62, 110
3, 38752, Note_on_c, 1, 62, 0
3, 38784, Note_on_c, 1, 62, 110
3, 38806, Note_on_c, 1, 62, 0
3, 38808, Note_on_c, 1, 60, 110
3, 38830, Note_on_c, 1, 60, 0
3, 38832, Note_on_c, 1, 62, 110
3, 38854, Note_on_c, 1, 62, 0
3, 38856, Note_on_c, 1, 60, 110
3, 38974, Note_on_c, 1, 60, 0
3, 38976, Note_on_c, 1, 59, 110
3, 39136, Note_on_c, 1, 59, 0
3, 39168, Note_on_c, 1, 50, 110
3, 39216, Note_on_c, 1, 50, 0
3, 39360, Note_on_c, 1, 59, 110
3, 39520, Note_on_c, 1, 59, 0
3, 39552, Note_on_c, 1, 59, 110
3, 39574, Note_on_c, 1, 59, 0
3, 39576, Note_on_c, 1, 57, 110
3, 39598, Note_on_c, 1, 57, 0
3, 39600, Note_on_c, 1, 59, 110
3, 39622, Note_on_c, 1, 59, 0
3, 39624, Note_on_c, 1, 57, 110
3, 39742, Note_on_c, 1, 57, 0
3, 39744, Note_on_c, 1, 56, 110
3, 39904, Note_on_c, 1, 56, 0
3, 39936, Note_on_c, 1, 57, 110
3, 40030, Note_on_c, 1, 57, 0
3, 40032, Note_on_c, 1, 50, 110
3, 40126, Note_on_c, 1, 50, 0
3, 40128, Note_on_c, 1, 48, 110
3, 40222, Note_on_c, 1, 48, 0
3, 40224, Note_on_c, 1, 47, 110
3, 40318, Note_on_c, 1, 47, 0
3, 40320, Note_on_c, 1, 45, 110
3, 40368, Note_on_c, 1, 45, 0
3, 40512, Note_on_c, 1, 55, 110
3, 40672, Note_on_c, 1, 55, 0
3, 40704, Note_on_c, 1, 54, 110
3, 40752, Note_on_c, 1, 54, 0
3, 40896, Note_on_c, 1, 63, 110
3, 41056, Note_on_c, 1, 63, 0
3, 41088, Note_on_c, 1, 63, 110
3, 41110, Note_on_c, 1, 63, 0
3, 41112, Note_on_c, 1, 62, 110
3, 41134, Note_on_c, 1, 62, 0
3, 41136, Note_on_c, 1, 63, 110
3, 41158, Note_on_c, 1, 63, 0
3, 41160, Note_on_c, 1, 62, 110
3, 41278, Note_on_c, 1, 62, 0
3, 41280, Note_on_c, 1, 60, 110
3, 41440, Note_on_c, 1, 60, 0
3, 41472, Note_on_c, 1, 51, 110
3, 41520, Note_on_c, 1, 51, 0
3, 41664, Note_on_c, 1, 60, 110
3, 41824, Note_on_c, 1, 60, 0
3, 41856, Note_on_c, 1, 60, 110
3, 41878, Note_on_c, 1, 60, 0
3, 41880, Note_on_c, 1, 59, 110
3, 41902, Note_on_c, 1, 59, 0
3, 41904, Note_on_c, 1, 60, 110
3, 41926, Note_on_c, 1, 60, 0
3, 41928, Note_on_c, 1, 59, 110
3, 42046, Note_on_c, 1, 59, 0
3, 42048, Note_on_c, 1, 57, 110
3, 42208, Note_on_c, 1, 57, 0
3, 42240, Note_on_c, 1, 48, 110
3, 42288, Note_on_c, 1, 48, 0
3, 42432, Note_on_c, 1, 57, 110
3, 42592, Note_on_c, 1, 57, 0
3, 42624, Note_on_c, 1, 57, 110
3, 42646, Note_on_c, 1, 57, 0
3, 42648, Note_on_c, 1, 55, 110
3, 42670, Note_on_c, 1, 55, 0
3, 42672, Note_on_c, 1, 57, 110
3, 42694, Note_on_c, 1, 57, 0
3, 42696, Note_on_c, 1, 55, 110
3, 42814, Note_on_c, 1, 55, 0
3, 42816, Note_on_c, 1, 54, 110
3, 42976, Note_on_c, 1, 54, 0
3, 43008, Note_on_c, 1, 55, 110
3, 43102, Note_on_c, 1, 55, 0
3, 43104, Note_on_c, 1, 48, 110
3, 43198, Note_on_c, 1, 48, 0
3, 43200, Note_on_c, 1, 47, 110
3, 43294, Note_on_c, 1, 47, 0
3, 43296, Note_on_c, 1, 45, 110
3, 43390, Note_on_c, 1, 45, 0
3, 43392, Note_on_c, 1, 43, 110
3, 43440, Note_on_c, 1, 43, 0
3, 43584, Note_on_c, 1, 53, 110
3, 43744, Note_on_c, 1, 53, 0
3, 43776, Note_on_c, 1, 52, 110
3, 43870, Note_on_c, 1, 52, 0
3, 43872, Note_on_c, 1, 62, 110
3, 43966, Note_on_c, 1, 62, 0
3, 43968, Note_on_c, 1, 60, 110
3, 44062, Note_on_c, 1, 60, 0
3, 44064, Note_on_c, 1, 59, 110
3, 44158, Note_on_c, 1, 59, 0
3, 44160, Note_on_c, 1, 60, 110
3, 44254, Note_on_c, 1, 60, 0
3, 44256, Note_on_c, 1, 57, 110
3, 44350, Note_on_c, 1, 57, 0
3, 44352, Note_on_c, 1, 52, 110
3, 44638, Note_on_c, 1, 52, 0
3, 44640, Note_on_c, 1, 50, 110
3, 44734, Note_on_c, 1, 50, 0
3, 44736, Note_on_c, 1, 52, 110
3, 44830, Note_on_c, 1, 52, 0
3, 44832, Note_on_c, 1, 54, 110
3, 44926, Note_on_c, 1, 54, 0
3, 44928, Note_on_c, 1, 50, 110
3, 45022, Note_on_c, 1, 50, 0
3, 45024, Note_on_c, 1, 55, 110
3, 45118, Note_on_c, 1, 55, 0
3, 45120, Note_on_c, 1, 59, 110
3, 45280, Note_on_c, 1, 59, 0
3, 45312, Note_on_c, 1, 48, 110
3, 45406, Note_on_c, 1, 48, 0
3, 45408, Note_on_c, 1, 59, 110
3, 45502, Note_on_c, 1, 59, 0
3, 45504, Note_on_c, 1, 57, 110
3, 45598, Note_on_c, 1, 57, 0
3, 45600, Note_on_c, 1, 55, 110
3, 45694, Note_on_c, 1, 55, 0
3, 45696, Note_on_c, 1, 57, 110
3, 45790, Note_on_c, 1, 57, 0
3, 45792, Note_on_c, 1, 54, 110
3, 45886, Note_on_c, 1, 54, 0
3, 45888, Note_on_c, 1, 48, 110
3, 46174, Note_on_c, 1, 48, 0
3, 46176, Note_on_c, 1, 47, 110
3, 46270, Note_on_c, 1, 47, 0
3, 46272, Note_on_c, 1, 48, 110
3, 46366, Note_on_c, 1, 48, 0
3, 46368, Note_on_c, 1, 50, 110
3, 46462, Note_on_c, 1, 50, 0
3, 46464, Note_on_c, 1, 47, 110
3, 46558, Note_on_c, 1, 47, 0
3, 46560, Note_on_c, 1, 50, 110
3, 46654, Note_on_c, 1, 50, 0
3, 46656, Note_on_c, 1, 55, 110
3, 46816, Note_on_c, 1, 55, 0
3, 46848, Note_on_c, 1, 45, 110
3, 46942, Note_on_c, 1, 45, 0
3, 46944, Note_on_c, 1, 55, 110
3, 47038, Note_on_c, 1, 55, 0
3, 47040, Note_on_c, 1, 54, 110
3, 47134, Note_on_c, 1, 54, 0
3, 47136, Note_on_c, 1, 52, 110
3, 47230, Note_on_c, 1, 52, 0
3, 47232, Note_on_c, 1, 54, 110
3, 47326, Note_on_c, 1, 54, 0
3, 47328, Note_on_c, 1, 51, 110
3, 47422, Note_on_c, 1, 51, 0
3, 47424, Note_on_c, 1, 45, 110
3, 47710, Note_on_c, 1, 45, 0
3, 47712, Note_on_c, 1, 43, 110
3, 47806, Note_on_c, 1, 43, 0
3, 47808, Note_on_c, 1, 45, 110
3, 47902, Note_on_c, 1, 45, 0
3, 47904, Note_on_c, 1, 47, 110
3, 47998, Note_on_c, 1, 47, 0
3, 48000, Note_on_c, 1, 43, 110
3, 48094, Note_on_c, 1, 43, 0
3, 48096, Note_on_c, 1, 47, 110
3, 48190, Note_on_c, 1, 47, 0
3, 48192, Note_on_c, 1, 52, 110
3, 48286, Note_on_c, 1, 52, 0
3, 48288, Note_on_c, 1, 55, 110
3, 48382, Note_on_c, 1, 55, 0
3, 48384, Note_on_c, 1, 54, 110
3, 48478, Note_on_c, 1, 54, 0
3, 48480, Note_on_c, 1, 46, 110
3, 48574, Note_on_c, 1, 46, 0
3, 48576, Note_on_c, 1, 54, 110
3, 48670, Note_on_c, 1, 54, 0
3, 48672, Note_on_c, 1, 55, 110
3, 48766, Note_on_c, 1, 55, 0
3, 48768, Note_on_c, 1, 54, 110
3, 48862, Note_on_c, 1, 54, 0
3, 48864, Note_on_c, 1, 47, 110
3, 48958, Note_on_c, 1, 47, 0
3, 48960, Note_on_c, 1, 54, 110
3, 49054, Note_on_c, 1, 54, 0
3, 49056, Note_on_c, 1, 57, 110
3, 49150, Note_on_c, 1, 57, 0
3, 49152, Note_on_c, 1, 56, 110
3, 49246, Note_on_c, 1, 56, 0
3, 49248, Note_on_c, 1, 52, 110
3, 49342, Note_on_c, 1, 52, 0
3, 49344, Note_on_c, 1, 56, 110
3, 49438, Note_on_c, 1, 56, 0
3, 49440, Note_on_c, 1, 58, 110
3, 49534, Note_on_c, 1, 58, 0
3, 49536, Note_on_c, 1, 59, 110
3, 49630, Note_on_c, 1, 59, 0
3, 49632, Note_on_c, 1, 50, 110
3, 49726, Note_on_c, 1, 50, 0
3, 49728, Note_on_c, 1, 55, 110
3, 49822, Note_on_c, 1, 55, 0
3, 49824, Note_on_c, 1, 59, 110
3, 49918, Note_on_c, 1, 59, 0
3, 49920, Note_on_c, 1, 57, 110
3, 50014, Note_on_c, 1, 57, 0
3, 50016, Note_on_c, 1, 49, 110
3, 50110, Note_on_c, 1, 49, 0
3, 50112, Note_on_c, 1, 57, 110
3, 50206, Note_on_c, 1, 57, 0
3, 50208, Note_on_c, 1, 58, 110
3, 50302, Note_on_c, 1, 58, 0
3, 50304, Note_on_c, 1, 57, 110
3, 50398, Note_on_c, 1, 57, 0
3, 50400, Note_on_c, 1, 50, 110
3, 50494, Note_on_c, 1, 50, 0
3, 50496, Note_on_c, 1, 57, 110
3, 50590, Note_on_c, 1, 57, 0
3, 50592, Note_on_c, 1, 60, 110
3, 50686, Note_on_c, 1, 60, 0
3, 50688, Note_on_c, 1, 59, 110
3, 50782, Note_on_c, 1, 59, 0
3, 50784, Note_on_c, 1, 55, 110
3, 50878, Note_on_c, 1, 55, 0
3, 50880, Note_on_c, 1, 59, 110
3, 50974, Note_on_c, 1, 59, 0
3, 50976, Note_on_c, 1, 61, 110
3, 51070, Note_on_c, 1, 61, 0
3, 51072, Note_on_c, 1, 62, 110
3, 51166, Note_on_c, 1, 62, 0
3, 51168, Note_on_c, 1, 53, 110
3, 51262, Note_on_c, 1, 53, 0
3, 51264, Note_on_c, 1, 58, 110
3, 51358, Note_on_c, 1, 58, 0
3, 51360, Note_on_c, 1, 62, 110
3, 51454, Note_on_c, 1, 62, 0
3, 51456, Note_on_c, 1, 60, 110
3, 51550, Note_on_c, 1, 60, 0
3, 51552, Note_on_c, 1, 52, 110
3, 51646, Note_on_c, 1, 52, 0
3, 51648, Note_on_c, 1, 60, 110
3, 51742, Note_on_c, 1, 60, 0
3, 51744, Note_on_c, 1, 62, 110
3, 51838, Note_on_c, 1, 62, 0
3, 51840, Note_on_c, 1, 60, 110
3, 51934, Note_on_c, 1, 60, 0
3, 51936, Note_on_c, 1, 53, 110
3, 52030, Note_on_c, 1, 53, 0
3, 52032, Note_on_c, 1, 57, 110
3, 52126, Note_on_c, 1, 57, 0
3, 52128, Note_on_c, 1, 60, 110
3, 52222, Note_on_c, 1, 60, 0
3, 52224, Note_on_c, 1, 59, 110
3, 52318, Note_on_c, 1, 59, 0
3, 52320, Note_on_c, 1, 50, 110
3, 52414, Note_on_c, 1, 50, 0
3, 52416, Note_on_c, 1, 59, 110
3, 52510, Note_on_c, 1, 59, 0
3, 52512, Note_on_c, 1, 60, 110
3, 52606, Note_on_c, 1, 60, 0
3, 52608, Note_on_c, 1, 59, 110
3, 52702, Note_on_c, 1, 59, 0
3, 52704, Note_on_c, 1, 52, 110
3, 52798, Note_on_c, 1, 52, 0
3, 52800, Note_on_c, 1, 59, 110
3, 52894, Note_on_c, 1, 59, 0
3, 52896, Note_on_c, 1, 62, 110
3, 52990, Note_on_c, 1, 62, 0
3, 52992, Note_on_c, 1, 60, 110
3, 53086, Note_on_c, 1, 60, 0
3, 53088, Note_on_c, 1, 57, 110
3, 53182, Note_on_c, 1, 57, 0
3, 53184, Note_on_c, 1, 60, 110
3, 53278, Note_on_c, 1, 60, 0
3, 53280, Note_on_c, 1, 64, 110
3, 53374, Note_on_c, 1, 64, 0
3, 53376, Note_on_c, 1, 60, 110
3, 53470, Note_on_c, 1, 60, 0
3, 53472, Note_on_c, 1, 57, 110
3, 53566, Note_on_c, 1, 57, 0
3, 53568, Note_on_c, 1, 59, 110
3, 53662, Note_on_c, 1, 59, 0
3, 53664, Note_on_c, 1, 56, 110
3, 53758, Note_on_c, 1, 56, 0
3, 53760, Note_on_c, 1, 57, 110
3, 53854, Note_on_c, 1, 57, 0
3, 53856, Note_on_c, 1, 60, 110
3, 53950, Note_on_c, 1, 60, 0
3, 53952, Note_on_c, 1, 59, 110
3, 54046, Note_on_c, 1, 59, 0
3, 54048, Note_on_c, 1, 62, 110
3, 54142, Note_on_c, 1, 62, 0
3, 54144, Note_on_c, 1, 60, 110
3, 54238, Note_on_c, 1, 60, 0
3, 54240, Note_on_c, 1, 59, 110
3, 54334, Note_on_c, 1, 59, 0
3, 54336, Note_on_c, 1, 60, 110
3, 54430, Note_on_c, 1, 60, 0
3, 54432, Note_on_c, 1, 57, 110
3, 54526, Note_on_c, 1, 57, 0
3, 54528, Note_on_c, 1, 52, 110
3, 54688, Note_on_c, 1, 52, 0
3, 54720, Note_on_c, 1, 54, 110
3, 54880, Note_on_c, 1, 54, 0
3, 54912, Note_on_c, 1, 55, 110
3, 55072, Note_on_c, 1, 55, 0
3, 55104, Note_on_c, 1, 54, 110
3, 55198, Note_on_c, 1, 54, 0
3, 55200, Note_on_c, 1, 52, 110
3, 55294, Note_on_c, 1, 52, 0
3, 55296, Note_on_c, 1, 54, 110
3, 55456, Note_on_c, 1, 54, 0
3, 55488, Note_on_c, 1, 56, 110
3, 55648, Note_on_c, 1, 56, 0
3, 55680, Note_on_c, 1, 57, 110
3, 56224, Note_on_c, 1, 57, 0
3, 56256, Note_on_c, 1, 55, 110
3, 56350, Note_on_c, 1, 55, 0
3, 56352, Note_on_c, 1, 54, 110
3, 56446, Note_on_c, 1, 54, 0
3, 56448, Note_on_c, 1, 55, 110
3, 56496, Note_on_c, 1, 55, 0
3, 56640, Note_on_c, 1, 52, 110
3, 56992, Note_on_c, 1, 52, 0
3, 57024, Note_on_c, 1, 51, 110
3, 57118, Note_on_c, 1, 51, 0
3, 57120, Note_on_c, 1, 49, 110
3, 57214, Note_on_c, 1, 49, 0
3, 57216, Note_on_c, 1, 52, 110
3, 57238, Note_on_c, 1, 52, 0
3, 57240, Note_on_c, 1, 51, 110
3, 57262, Note_on_c, 1, 51, 0
3, 57264, Note_on_c, 1, 52, 110
3, 57286, Note_on_c, 1, 52, 0
3, 57288, Note_on_c, 1, 51, 110
3, 57568, Note_on_c, 1, 51, 0
3, 57600, Note_on_c, 1, 52, 110
3, 57648, Note_on_c, 1, 52, 0
3, 57792, Note_on_c, 1, 59, 110
3, 57840, Note_on_c, 1, 59, 0
3, 57984, Note_on_c, 1, 64, 110
3, 58704, Note_on_c, 1, 64, 0
3, 58752, Note_on_c, 1, 64, 110
3, 58774, Note_on_c, 1, 64, 0
3, 58776, Note_on_c, 1, 63, 110
3, 58798, Note_on_c, 1, 63, 0
3, 58800, Note_on_c, 1, 64, 110
3, 58822, Note_on_c, 1, 64, 0
3, 58824, Note_on_c, 1, 63, 110
3, 59104, Note_on_c, 1, 63, 0
3, 59136, Note_on_c, 1, 64, 110
3, 59472, Note_on_c, 1, 64, 0
3, 59712, Note_on_c, 1, 62, 110
3, 59872, Note_on_c, 1, 62, 0
3, 59904, Note_on_c, 1, 61, 110
3, 59952, Note_on_c, 1, 61, 0
3, 60096, Note_on_c, 1, 70, 110
3, 60256, Note_on_c, 1, 70, 0
3, 60288, Note_on_c, 1, 70, 110
3, 60310, Note_on_c, 1, 70, 0
3, 60312, Note_on_c, 1, 69, 110
3, 60334, Note_on_c, 1, 69, 0
3, 60336, Note_on_c, 1, 70, 110
3, 60358, Note_on_c, 1, 70, 0
3, 60360, Note_on_c, 1, 69, 110
3, 60478, Note_on_c, 1, 69, 0
3, 60480, Note_on_c, 1, 67, 110
3, 60640, Note_on_c, 1, 67, 0
3, 60672, Note_on_c, 1, 58, 110
3, 60720, Note_on_c, 1, 58, 0
3, 60864, Note_on_c, 1, 67, 110
3, 61024, Note_on_c, 1, 67, 0
3, 61056, Note_on_c, 1, 67, 110
3, 61078, Note_on_c, 1, 67, 0
3, 61080, Note_on_c, 1, 65, 110
3, 61102, Note_on_c, 1, 65, 0
3, 61104, Note_on_c, 1, 67, 110
3, 61126, Note_on_c, 1, 67, 0
3, 61128, Note_on_c, 1, 65, 110
3, 61246, Note_on_c, 1, 65, 0
3, 61248, Note_on_c, 1, 64, 110
3, 61408, Note_on_c, 1, 64, 0
3, 61440, Note_on_c, 1, 55, 110
3, 61488, Note_on_c, 1, 55, 0
3, 61632, Note_on_c, 1, 64, 110
3, 61792, Note_on_c, 1, 64, 0
3, 61824, Note_on_c, 1, 64, 110
3, 61846, Note_on_c, 1, 64, 0
3, 61848, Note_on_c, 1, 62, 110
3, 61870, Note_on_c, 1, 62, 0
3, 61872, Note_on_c, 1, 64, 110
3, 61894, Note_on_c, 1, 64, 0
3, 61896, Note_on_c, 1, 62, 110
3, 62014, Note_on_c, 1, 62, 0
3, 62016, Note_on_c, 1, 61, 110
3, 62176, Note_on_c, 1, 61, 0
3, 62208, Note_on_c, 1, 62, 110
3, 62302, Note_on_c, 1, 62, 0
3, 62304, Note_on_c, 1, 57, 110
3, 62398, Note_on_c, 1, 57, 0
3, 62400, Note_on_c, 1, 62, 110
3, 62494, Note_on_c, 1, 62, 0
3, 62496, Note_on_c, 1, 64, 110
3, 62590, Note_on_c, 1, 64, 0
3, 62592, Note_on_c, 1, 65, 110
3, 62686, Note_on_c, 1, 65, 0
3, 62688, Note_on_c, 1, 67, 110
3, 62782, Note_on_c, 1, 67, 0
3, 62784, Note_on_c, 1, 68, 110
3, 62878, Note_on_c, 1, 68, 0
3, 62880, Note_on_c, 1, 65, 110
3, 62974, Note_on_c, 1, 65, 0
3, 62976, Note_on_c, 1, 62, 110
3, 63070, Note_on_c, 1, 62, 0
3, 63072, Note_on_c, 1, 64, 110
3, 63166, Note_on_c, 1, 64, 0
3, 63168, Note_on_c, 1, 65, 110
3, 63424, Note_on_c, 1, 65, 0
3, 63456, Note_on_c, 1, 64, 110
3, 63550, Note_on_c, 1, 64, 0
3, 63552, Note_on_c, 1, 62, 110
3, 63646, Note_on_c, 1, 62, 0
3, 63648, Note_on_c, 1, 60, 110
3, 63742, Note_on_c, 1, 60, 0
3, 63744, Note_on_c, 1, 59, 110
3, 63838, Note_on_c, 1, 59, 0
3, 63840, Note_on_c, 1, 60, 110
3, 63934, Note_on_c, 1, 60, 0
3, 63936, Note_on_c, 1, 62, 110
3, 64192, Note_on_c, 1, 62, 0
3, 64224, Note_on_c, 1, 60, 110
3, 64318, Note_on_c, 1, 60, 0
3, 64320, Note_on_c, 1, 59, 110
3, 64414, Note_on_c, 1, 59, 0
3, 64416, Note_on_c, 1, 57, 110
3, 64510, Note_on_c, 1, 57, 0
3, 64512, Note_on_c, 1, 59, 110
3, 64606, Note_on_c, 1, 59, 0
3, 64608, Note_on_c, 1, 55, 110
3, 64702, Note_on_c, 1, 55, 0
3, 64704, Note_on_c, 1, 59, 110
3, 64798, Note_on_c, 1, 59, 0
3, 64800, Note_on_c, 1, 60, 110
3, 64894, Note_on_c, 1, 60, 0
3, 64896, Note_on_c, 1, 62, 110
3, 64990, Note_on_c, 1, 62, 0
3, 64992, Note_on_c, 1, 64, 110
3, 65086, Note_on_c, 1, 64, 0
3, 65088, Note_on_c, 1, 65, 110
3, 65182, Note_on_c, 1, 65, 0
3, 65184, Note_on_c, 1, 62, 110
3, 65278, Note_on_c, 1, 62, 0
3, 65280, Note_on_c, 1, 64, 110
3, 65328, Note_on_c, 1, 64, 0
3, 65472, Note_on_c, 1, 52, 110
3, 65520, Note_on_c, 1, 52, 0
3, 65664, Note_on_c, 1, 57, 110
3, 66208, Note_on_c, 1, 57, 0
3, 66240, Note_on_c, 1, 55, 110
3, 66334, Note_on_c, 1, 55, 0
3, 66336, Note_on_c, 1, 54, 110
3, 66430, Note_on_c, 1, 54, 0
3, 66432, Note_on_c, 1, 55, 110
3, 66976, Note_on_c, 1, 55, 0
3, 67008, Note_on_c, 1, 57, 110
3, 67102, Note_on_c, 1, 57, 0
3, 67104, Note_on_c, 1, 59, 110
3, 67198, Note_on_c, 1, 59, 0
3, 67200, Note_on_c, 1, 60, 110
3, 67744, Note_on_c, 1, 60, 0
3, 67776, Note_on_c, 1, 58, 110
3, 67870, Note_on_c, 1, 58, 0
3, 67872, Note_on_c, 1, 57, 110
3, 67966, Note_on_c, 1, 57, 0
3, 67968, Note_on_c, 1, 58, 110
3, 68512, Note_on_c, 1, 59, 0
3, 68512, Note_on_c, 1, 59, 0
3, 68544, Note_on_c, 1, 60, 110
3, 68638, Note_on_c, 1, 60, 0
3, 68640, Note_on_c, 1, 62, 110
3, 68734, Note_on_c, 1, 62, 0
3, 68736, Note_on_c, 1, 63, 110
3, 69280, Note_on_c, 1, 64, 0
3, 69280, Note_on_c, 1, 64, 0
3, 69312, Note_on_c, 1, 62, 110
3, 69406, Note_on_c, 1, 62, 0
3, 69408, Note_on_c, 1, 61, 110
3, 69502, Note_on_c, 1, 61, 0
3, 69504, Note_on_c, 1, 62, 110
3, 70224, Note_on_c, 1, 62, 0
3, 70272, Note_on_c, 1, 62, 110
3, 70294, Note_on_c, 1, 62, 0
3, 70296, Note_on_c, 1, 61, 110
3, 70318, Note_on_c, 1, 61, 0
3, 70320, Note_on_c, 1, 62, 110
3, 70342, Note_on_c, 1, 62, 0
3, 70344, Note_on_c, 1, 61, 110
3, 70624, Note_on_c, 1, 61, 0
3, 70656, Note_on_c, 1, 62, 110
3, 70816, Note_on_c, 1, 62, 0
3, 70848, Note_on_c, 1, 64, 110
3, 71008, Note_on_c, 1, 64, 0
3, 71040, Note_on_c, 1, 65, 110
3, 71200, Note_on_c, 1, 65, 0
3, 71232, Note_on_c, 1, 62, 110
3, 71392, Note_on_c, 1, 62, 0
3, 71424, Note_on_c, 1, 64, 110
3, 71472, Note_on_c, 1, 64, 0
3, 71616, Note_on_c, 1, 62, 110
3, 71776, Note_on_c, 1, 62, 0
3, 71808, Note_on_c, 1, 60, 110
3, 71968, Note_on_c, 1, 60, 0
3, 72000, Note_on_c, 1, 59, 110
3, 72160, Note_on_c, 1, 59, 0
3, 72192, Note_on_c, 1, 57, 110
3, 72286, Note_on_c, 1, 57, 0
3, 72288, Note_on_c, 1, 52, 110
3, 72382, Note_on_c, 1, 52, 0
3, 72384, Note_on_c, 1, 57, 110
3, 72720, Note_on_c, 1, 57, 0
3, 72768, Note_on_c, 1, 57, 110
3, 72790, Note_on_c, 1, 57, 0
3, 72792, Note_on_c, 1, 56, 110
3, 72814, Note_on_c, 1, 56, 0
3, 72816, Note_on_c, 1, 57, 110
3, 72838, Note_on_c, 1, 57, 0
3, 72840, Note_on_c, 1, 56, 110
3, 72958, Note_on_c, 1, 56, 0
3, 72960, Note_on_c, 1, 57, 110
3, 73296, Note_on_c, 1, 57, 0
3, 73344, Note_on_c, 1, 59, 110
3, 73680, Note_on_c, 1, 59, 0
3, 73728, Note_on_c, 1, 60, 110
3, 74064, Note_on_c, 1, 60, 0
3, 74112, Note_on_c, 1, 52, 110
3, 74448, Note_on_c, 1, 52, 0
3, 74496, Note_on_c, 1, 53, 110
3, 74590, Note_on_c, 1, 53, 0
3, 74592, Note_on_c, 1, 52, 110
3, 74686, Note_on_c, 1, 52, 0
3, 74688, Note_on_c, 1, 50, 110
3, 75024, Note_on_c, 1, 50, 0
3, 75072, Note_on_c, 1, 52, 110
3, 75166, Note_on_c, 1, 52, 0
3, 75168, Note_on_c, 1, 54, 110
3, 75262, Note_on_c, 1, 54, 0
3, 75264, Note_on_c, 1, 55, 110
3, 75358, Note_on_c, 1, 55, 0
3, 75360, Note_on_c, 1, 57, 110
3, 75454, Note_on_c, 1, 57, 0
3, 75456, Note_on_c, 1, 58, 110
3, 75792, Note_on_c, 1, 58, 0
3, 75840, Note_on_c, 1, 57, 110
3, 75934, Note_on_c, 1, 57, 0
3, 75936, Note_on_c, 1, 56, 110
3, 76030, Note_on_c, 1, 56, 0
3, 76032, Note_on_c, 1, 57, 110
3, 76126, Note_on_c, 1, 57, 0
3, 76128, Note_on_c, 1, 52, 110
3, 76222, Note_on_c, 1, 52, 0
3, 76224, Note_on_c, 1, 57, 110
3, 76318, Note_on_c, 1, 57, 0
3, 76320, Note_on_c, 1, 59, 110
3, 76414, Note_on_c, 1, 59, 0
3, 76416, Note_on_c, 1, 57, 110
3, 76510, Note_on_c, 1, 57, 0
3, 76512, Note_on_c, 1, 52, 110
3, 76606, Note_on_c, 1, 52, 0
3, 76608, Note_on_c, 1, 57, 110
3, 76702, Note_on_c, 1, 57, 0
3, 76704, Note_on_c, 1, 60, 110
3, 76798, Note_on_c, 1, 60, 0
3, 76800, Note_on_c, 1, 59, 110
3, 76894, Note_on_c, 1, 59, 0
3, 76896, Note_on_c, 1, 52, 110
3, 76990, Note_on_c, 1, 52, 0
3, 76992, Note_on_c, 1, 59, 110
3, 77086, Note_on_c, 1, 59, 0
3, 77088, Note_on_c, 1, 60, 110
3, 77182, Note_on_c, 1, 60, 0
3, 77184, Note_on_c, 1, 59, 110
3, 77278, Note_on_c, 1, 59, 0
3, 77280, Note_on_c, 1, 52, 110
3, 77374, Note_on_c, 1, 52, 0
3, 77376, Note_on_c, 1, 59, 110
3, 77470, Note_on_c, 1, 59, 0
3, 77472, Note_on_c, 1, 62, 110
3, 77566, Note_on_c, 1, 62, 0
3, 77568, Note_on_c, 1, 60, 110
3, 77662, Note_on_c, 1, 60, 0
3, 77664, Note_on_c, 1, 52, 110
3, 77758, Note_on_c, 1, 52, 0
3, 77760, Note_on_c, 1, 60, 110
3, 77854, Note_on_c, 1, 60, 0
3, 77856, Note_on_c, 1, 62, 110
3, 77950, Note_on_c, 1, 62, 0
3, 77952, Note_on_c, 1, 60, 110
3, 78046, Note_on_c, 1, 60, 0
3, 78048, Note_on_c, 1, 52, 110
3, 78142, Note_on_c, 1, 52, 0
3, 78144, Note_on_c, 1, 60, 110
3, 78238, Note_on_c, 1, 60, 0
3, 78240, Note_on_c, 1, 64, 110
3, 78334, Note_on_c, 1, 64, 0
3, 78336, Note_on_c, 1, 59, 110
3, 78430, Note_on_c, 1, 59, 0
3, 78432, Note_on_c, 1, 52, 110
3, 78526, Note_on_c, 1, 52, 0
3, 78528, Note_on_c, 1, 59, 110
3, 78622, Note_on_c, 1, 59, 0
3, 78624, Note_on_c, 1, 60, 110
3, 78718, Note_on_c, 1, 60, 0
3, 78720, Note_on_c, 1, 59, 110
3, 78814, Note_on_c, 1, 59, 0
3, 78816, Note_on_c, 1, 52, 110
3, 78910, Note_on_c, 1, 52, 0
3, 78912, Note_on_c, 1, 59, 110
3, 79006, Note_on_c, 1, 59, 0
3, 79008, Note_on_c, 1, 62, 110
3, 79102, Note_on_c, 1, 62, 0
3, 79104, Note_on_c, 1, 60, 110
3, 79198, Note_on_c, 1, 60, 0
3, 79200, Note_on_c, 1, 57, 110
3, 79294, Note_on_c, 1, 57, 0
3, 79296, Note_on_c, 1, 59, 110
3, 79390, Note_on_c, 1, 59, 0
3, 79392, Note_on_c, 1, 61, 110
3, 79486, Note_on_c, 1, 61, 0
3, 79488, Note_on_c, 1, 62, 110
3, 79582, Note_on_c, 1, 62, 0
3, 79584, Note_on_c, 1, 64, 110
3, 79678, Note_on_c, 1, 64, 0
3, 79680, Note_on_c, 1, 65, 110
3, 79774, Note_on_c, 1, 65, 0
3, 79776, Note_on_c, 1, 67, 110
3, 79870, Note_on_c, 1, 67, 0
3, 79872, Note_on_c, 1, 65, 110
3, 79966, Note_on_c, 1, 65, 0
3, 79968, Note_on_c, 1, 64, 110
3, 80062, Note_on_c, 1, 64, 0
3, 80064, Note_on_c, 1, 62, 110
3, 80158, Note_on_c, 1, 62, 0
3, 80160, Note_on_c, 1, 61, 110
3, 80254, Note_on_c, 1, 61, 0
3, 80256, Note_on_c, 1, 62, 110
3, 80416, Note_on_c, 1, 62, 0
3, 80448, Note_on_c, 1, 50, 110
3, 80800, Note_on_c, 1, 50, 0
3, 80832, Note_on_c, 1, 48, 110
3, 80926, Note_on_c, 1, 48, 0
3, 80928, Note_on_c, 1, 47, 110
3, 81022, Note_on_c, 1, 47, 0
3, 81024, Note_on_c, 1, 48, 110
3, 81184, Note_on_c, 1, 48, 0
3, 81216, Note_on_c, 1, 50, 110
3, 81376, Note_on_c, 1, 50, 0
3, 81408, Note_on_c, 1, 52, 110
3, 81568, Note_on_c, 1, 52, 0
3, 81600, Note_on_c, 1, 50, 110
3, 81760, Note_on_c, 1, 50, 0
3, 81792, Note_on_c, 1, 52, 110
3, 81952, Note_on_c, 1, 52, 0
3, 81984, Note_on_c, 1, 40, 110
3, 82144, Note_on_c, 1, 40, 0
3, 82176, Note_on_c, 1, 45, 110
3, 82896, Note_on_c, 1, 45, 0
3, 82896, Note_on_c, 1, 58, 0
3, 82896, Note_on_c, 1, 63, 0
3, 82896, End_track
4, 0, Start_track
4, 0, MIDI_port, 0
4, 0, Title_t, "Johann Sebastian Bach  (1685-1750)"
4, 0, End_track
5, 0, Start_track
5, 0, MIDI_port, 0
5, 0, Title_t, "Clavierubung Part III - Four Duets"
5, 0, End_track
6, 0, Start_track
6, 0, MIDI_port, 0
6, 0, Title_t, "Duet No. 4 in A minor - BWV 805"
6, 0, End_track
7, 0, Start_track
7, 0, MIDI_port, 0
7, 0, End_track
8, 0, Start_track
8, 0, MIDI_port, 0
8, 0, Title_t, "Sequenced by David Jao "
8, 0, End_track
9, 0, Start_track
9, 0, MIDI_port, 0
9, 0, Title_t, "with NoteWorthy Composer"
9, 0, End_track
0, 0, End_of_file
