0, 0, Header, 0, 1, 384
1, 0, Start_track
1, 0, Copyright_t, "(C) John Sankey 1998"
1, 0, Program_c, 0, 6
1, 0, Pitch_bend_c, 0, 8192
1, 0, Program_c, 1, 6
1, 0, Pitch_bend_c, 1, 7792
1, 0, Program_c, 2, 6
1, 0, Pitch_bend_c, 2, 7876
1, 0, Program_c, 3, 6
1, 0, Pitch_bend_c, 3, 7952
1, 0, Program_c, 4, 6
1, 0, Pitch_bend_c, 4, 7792
1, 0, Program_c, 5, 6
1, 0, Pitch_bend_c, 5, 8112
1, 0, Program_c, 6, 6
1, 0, Pitch_bend_c, 6, 7712
1, 0, Program_c, 7, 6
1, 0, Pitch_bend_c, 7, 8037
1, 0, Program_c, 8, 6
1, 0, Pitch_bend_c, 8, 7872
1, 0, Program_c, 10, 6
1, 0, Pitch_bend_c, 10, 7712
1, 0, Program_c, 11, 6
1, 0, Pitch_bend_c, 11, 8032
1, 0, Program_c, 12, 6
1, 0, Pitch_bend_c, 12, 7872
1, 0, Tempo, 500000
1, 48, Note_on_c, 7, 43, 127
1, 375, Note_off_c, 7, 43, 127
1, 377, Note_on_c, 12, 47, 127
1, 704, Note_off_c, 12, 47, 127
1, 706, Note_on_c, 2, 50, 127
1, 1033, Note_off_c, 2, 50, 127
1, 1035, Note_on_c, 7, 55, 127
1, 1035, Note_on_c, 7, 67, 127
1, 1198, Note_off_c, 7, 67, 127
1, 1200, Note_on_c, 6, 66, 127
1, 1363, Note_off_c, 6, 66, 127
1, 1363, Note_off_c, 7, 55, 127
1, 1365, Note_on_c, 12, 59, 127
1, 1365, Note_on_c, 4, 64, 127
1, 1528, Note_off_c, 4, 64, 127
1, 1530, Note_on_c, 2, 62, 127
1, 1693, Note_off_c, 2, 62, 127
1, 1693, Note_off_c, 12, 59, 127
1, 1695, Note_on_c, 7, 55, 127
1, 1695, Note_on_c, 12, 71, 127
1, 1959, Note_off_c, 12, 71, 127
1, 2022, Note_off_c, 7, 55, 127
1, 2024, Note_on_c, 2, 50, 127
1, 2024, Note_on_c, 10, 69, 127
1, 2351, Note_off_c, 2, 50, 127
1, 2353, Note_on_c, 6, 54, 127
1, 2574, Note_off_c, 10, 69, 127
1, 2680, Note_off_c, 6, 54, 127
1, 2682, Note_on_c, 10, 57, 127
1, 3009, Note_off_c, 10, 57, 127
1, 3011, Note_on_c, 2, 62, 127
1, 3011, Note_on_c, 7, 67, 127
1, 3174, Note_off_c, 7, 67, 127
1, 3176, Note_on_c, 6, 66, 127
1, 3339, Note_off_c, 6, 66, 127
1, 3339, Note_off_c, 2, 62, 127
1, 3341, Note_on_c, 6, 54, 127
1, 3341, Note_on_c, 4, 64, 127
1, 3504, Note_off_c, 4, 64, 127
1, 3506, Note_on_c, 2, 62, 127
1, 3669, Note_off_c, 2, 62, 127
1, 3669, Note_off_c, 6, 54, 127
1, 3671, Note_on_c, 2, 50, 127
1, 3671, Note_on_c, 0, 72, 127
1, 3935, Note_off_c, 0, 72, 127
1, 3998, Note_off_c, 2, 50, 127
1, 4000, Note_on_c, 7, 55, 127
1, 4000, Note_on_c, 12, 71, 127
1, 4327, Note_off_c, 7, 55, 127
1, 4329, Note_on_c, 2, 50, 127
1, 4651, Note_off_c, 12, 71, 127
1, 4656, Note_off_c, 2, 50, 127
1, 4658, Note_on_c, 12, 47, 127
1, 4985, Note_off_c, 12, 47, 127
1, 4987, Note_on_c, 7, 43, 127
1, 4987, Note_on_c, 2, 74, 127
1, 5150, Note_off_c, 2, 74, 127
1, 5152, Note_on_c, 12, 71, 127
1, 5315, Note_off_c, 12, 71, 127
1, 5315, Note_off_c, 7, 43, 127
1, 5317, Note_on_c, 12, 47, 127
1, 5317, Note_on_c, 10, 69, 127
1, 5480, Note_off_c, 10, 69, 127
1, 5482, Note_on_c, 7, 67, 127
1, 5645, Note_off_c, 7, 67, 127
1, 5645, Note_off_c, 12, 47, 127
1, 5647, Note_on_c, 0, 48, 127
1, 5647, Note_on_c, 4, 76, 127
1, 5810, Note_off_c, 4, 76, 127
1, 5812, Note_on_c, 0, 72, 127
1, 5975, Note_off_c, 0, 72, 127
1, 5975, Note_off_c, 0, 48, 127
1, 5977, Note_on_c, 12, 47, 127
1, 5977, Note_on_c, 2, 74, 127
1, 6140, Note_off_c, 2, 74, 127
1, 6142, Note_on_c, 12, 71, 127
1, 6305, Note_off_c, 12, 71, 127
1, 6305, Note_off_c, 12, 47, 127
1, 6307, Note_on_c, 4, 52, 127
1, 6307, Note_on_c, 10, 69, 127
1, 6470, Note_off_c, 10, 69, 127
1, 6472, Note_on_c, 7, 67, 127
1, 6635, Note_off_c, 7, 67, 127
1, 6635, Note_off_c, 4, 52, 127
1, 6637, Note_on_c, 6, 54, 127
1, 6637, Note_on_c, 0, 72, 127
1, 6800, Note_off_c, 0, 72, 127
1, 6802, Note_on_c, 10, 69, 127
1, 6965, Note_off_c, 10, 69, 127
1, 6965, Note_off_c, 6, 54, 127
1, 6967, Note_on_c, 7, 55, 127
1, 6967, Note_on_c, 0, 72, 127
1, 7130, Note_off_c, 0, 72, 127
1, 7132, Note_on_c, 12, 71, 127
1, 7295, Note_off_c, 12, 71, 127
1, 7295, Note_off_c, 7, 55, 127
1, 7297, Note_on_c, 2, 62, 127
1, 7297, Note_on_c, 10, 69, 127
1, 7460, Note_off_c, 10, 69, 127
1, 7462, Note_on_c, 7, 67, 127
1, 7625, Note_off_c, 7, 67, 127
1, 7625, Note_off_c, 2, 62, 127
1, 7627, Note_on_c, 2, 50, 127
1, 7627, Note_on_c, 10, 69, 127
1, 7790, Note_off_c, 10, 69, 127
1, 7792, Note_on_c, 6, 66, 127
1, 7955, Note_off_c, 6, 66, 127
1, 7955, Note_off_c, 2, 50, 127
1, 7957, Note_on_c, 7, 55, 127
1, 7957, Note_on_c, 7, 67, 127
1, 8120, Note_off_c, 7, 67, 127
1, 8122, Note_on_c, 2, 62, 127
1, 8283, Note_off_c, 7, 55, 127
1, 8285, Note_off_c, 2, 62, 127
1, 8287, Note_on_c, 4, 64, 127
1, 8450, Note_off_c, 4, 64, 127
1, 8452, Note_on_c, 6, 66, 127
1, 8615, Note_off_c, 6, 66, 127
1, 8617, Note_on_c, 7, 67, 127
1, 8780, Note_off_c, 7, 67, 127
1, 8782, Note_on_c, 10, 69, 127
1, 8945, Note_off_c, 10, 69, 127
1, 8947, Note_on_c, 2, 50, 127
1, 8947, Note_on_c, 12, 71, 127
1, 9110, Note_off_c, 12, 71, 127
1, 9110, Note_off_c, 2, 50, 127
1, 9112, Note_on_c, 12, 47, 127
1, 9112, Note_on_c, 2, 74, 127
1, 9275, Note_off_c, 2, 74, 127
1, 9275, Note_off_c, 12, 47, 127
1, 9277, Note_on_c, 10, 45, 127
1, 9277, Note_on_c, 0, 72, 127
1, 9440, Note_off_c, 0, 72, 127
1, 9440, Note_off_c, 10, 45, 127
1, 9442, Note_on_c, 7, 43, 127
1, 9442, Note_on_c, 12, 71, 127
1, 9605, Note_off_c, 12, 71, 127
1, 9605, Note_off_c, 7, 43, 127
1, 9607, Note_on_c, 4, 52, 127
1, 9607, Note_on_c, 0, 72, 127
1, 9770, Note_off_c, 0, 72, 127
1, 9772, Note_on_c, 10, 69, 127
1, 9897, Note_off_c, 4, 52, 127
1, 9934, Note_off_c, 10, 69, 127
1, 9936, Note_on_c, 2, 50, 127
1, 9936, Note_on_c, 12, 71, 127
1, 10099, Note_off_c, 12, 71, 127
1, 10101, Note_on_c, 7, 67, 127
1, 10264, Note_off_c, 7, 67, 127
1, 10266, Note_on_c, 10, 69, 127
1, 10417, Note_off_c, 2, 50, 127
1, 10429, Note_off_c, 10, 69, 127
1, 10431, Note_on_c, 12, 71, 127
1, 10594, Note_off_c, 12, 71, 127
1, 10596, Note_on_c, 0, 72, 127
1, 10759, Note_off_c, 0, 72, 127
1, 10761, Note_on_c, 2, 74, 127
1, 10924, Note_off_c, 2, 74, 127
1, 10926, Note_on_c, 0, 48, 127
1, 10926, Note_on_c, 4, 76, 127
1, 11089, Note_off_c, 4, 76, 127
1, 11089, Note_off_c, 0, 48, 127
1, 11091, Note_on_c, 12, 47, 127
1, 11091, Note_on_c, 7, 79, 127
1, 11254, Note_off_c, 7, 79, 127
1, 11254, Note_off_c, 12, 47, 127
1, 11256, Note_on_c, 10, 45, 127
1, 11256, Note_on_c, 6, 78, 127
1, 11419, Note_off_c, 6, 78, 127
1, 11419, Note_off_c, 10, 45, 127
1, 11421, Note_on_c, 7, 43, 127
1, 11421, Note_on_c, 4, 76, 127
1, 11584, Note_off_c, 4, 76, 127
1, 11584, Note_off_c, 7, 43, 127
1, 11586, Note_on_c, 7, 55, 127
1, 11586, Note_on_c, 2, 74, 127
1, 11749, Note_off_c, 2, 74, 127
1, 11751, Note_on_c, 1, 73, 127
1, 11876, Note_off_c, 7, 55, 127
1, 11913, Note_off_c, 1, 73, 127
1, 11915, Note_on_c, 6, 54, 127
1, 11915, Note_on_c, 10, 81, 127
1, 12078, Note_off_c, 10, 81, 127
1, 12080, Note_on_c, 2, 74, 127
1, 12243, Note_off_c, 2, 74, 127
1, 12245, Note_on_c, 4, 76, 127
1, 12396, Note_off_c, 6, 54, 127
1, 12408, Note_off_c, 4, 76, 127
1, 12410, Note_on_c, 6, 78, 127
1, 12573, Note_off_c, 6, 78, 127
1, 12575, Note_on_c, 7, 79, 127
1, 12738, Note_off_c, 7, 79, 127
1, 12740, Note_on_c, 10, 81, 127
1, 12903, Note_off_c, 10, 81, 127
1, 12905, Note_on_c, 7, 55, 127
1, 12905, Note_on_c, 12, 83, 127
1, 13068, Note_off_c, 12, 83, 127
1, 13068, Note_off_c, 7, 55, 127
1, 13070, Note_on_c, 6, 54, 127
1, 13070, Note_on_c, 10, 81, 127
1, 13233, Note_off_c, 10, 81, 127
1, 13233, Note_off_c, 6, 54, 127
1, 13235, Note_on_c, 4, 52, 127
1, 13235, Note_on_c, 7, 79, 127
1, 13398, Note_off_c, 7, 79, 127
1, 13398, Note_off_c, 4, 52, 127
1, 13400, Note_on_c, 2, 50, 127
1, 13400, Note_on_c, 6, 78, 127
1, 13563, Note_off_c, 6, 78, 127
1, 13563, Note_off_c, 2, 50, 127
1, 13565, Note_on_c, 12, 59, 127
1, 13565, Note_on_c, 7, 79, 127
1, 13728, Note_off_c, 7, 79, 127
1, 13728, Note_off_c, 12, 59, 127
1, 13730, Note_on_c, 7, 55, 127
1, 13730, Note_on_c, 4, 76, 127
1, 13893, Note_off_c, 4, 76, 127
1, 13893, Note_off_c, 7, 55, 127
1, 13895, Note_on_c, 10, 57, 127
1, 13895, Note_on_c, 6, 78, 127
1, 14058, Note_off_c, 6, 78, 127
1, 14058, Note_off_c, 10, 57, 127
1, 14060, Note_on_c, 6, 54, 127
1, 14060, Note_on_c, 10, 81, 127
1, 14223, Note_off_c, 10, 81, 127
1, 14223, Note_off_c, 6, 54, 127
1, 14225, Note_on_c, 4, 52, 127
1, 14225, Note_on_c, 7, 79, 127
1, 14388, Note_off_c, 7, 79, 127
1, 14388, Note_off_c, 4, 52, 127
1, 14390, Note_on_c, 2, 50, 127
1, 14390, Note_on_c, 6, 78, 127
1, 14553, Note_off_c, 6, 78, 127
1, 14553, Note_off_c, 2, 50, 127
1, 14555, Note_on_c, 7, 55, 127
1, 14555, Note_on_c, 4, 76, 127
1, 14718, Note_off_c, 4, 76, 127
1, 14718, Note_off_c, 7, 55, 127
1, 14720, Note_on_c, 4, 52, 127
1, 14720, Note_on_c, 2, 74, 127
1, 14883, Note_off_c, 2, 74, 127
1, 14883, Note_off_c, 4, 52, 127
1, 14885, Note_on_c, 7, 55, 127
1, 14885, Note_on_c, 1, 73, 127
1, 15048, Note_off_c, 1, 73, 127
1, 15048, Note_off_c, 7, 55, 127
1, 15050, Note_on_c, 6, 54, 127
1, 15050, Note_on_c, 2, 74, 127
1, 15213, Note_off_c, 2, 74, 127
1, 15213, Note_off_c, 6, 54, 127
1, 15215, Note_on_c, 4, 52, 127
1, 15215, Note_on_c, 4, 76, 127
1, 15378, Note_off_c, 4, 76, 127
1, 15378, Note_off_c, 4, 52, 127
1, 15380, Note_on_c, 2, 50, 127
1, 15380, Note_on_c, 6, 78, 127
1, 15543, Note_off_c, 6, 78, 127
1, 15543, Note_off_c, 2, 50, 127
1, 15545, Note_on_c, 4, 52, 127
1, 15545, Note_on_c, 7, 79, 127
1, 15708, Note_off_c, 4, 52, 127
1, 15710, Note_on_c, 1, 49, 127
1, 15873, Note_off_c, 1, 49, 127
1, 15875, Note_on_c, 2, 50, 127
1, 15974, Note_off_c, 7, 79, 127
1, 16039, Note_on_c, 4, 76, 127
1, 16202, Note_off_c, 4, 76, 127
1, 16202, Note_off_c, 2, 50, 127
1, 16204, Note_on_c, 2, 62, 127
1, 16204, Note_on_c, 6, 78, 127
1, 16367, Note_off_c, 6, 78, 127
1, 16369, Note_on_c, 2, 74, 127
1, 16532, Note_off_c, 2, 74, 127
1, 16532, Note_off_c, 2, 62, 127
1, 16534, Note_on_c, 10, 57, 127
1, 16534, Note_on_c, 1, 73, 127
1, 16697, Note_off_c, 1, 73, 127
1, 16699, Note_on_c, 2, 74, 127
1, 16862, Note_off_c, 2, 74, 127
1, 16862, Note_off_c, 10, 57, 127
1, 16864, Note_on_c, 12, 59, 127
1, 16864, Note_on_c, 7, 67, 127
1, 17027, Note_off_c, 12, 59, 127
1, 17029, Note_on_c, 0, 60, 127
1, 17146, Note_off_c, 7, 67, 127
1, 17192, Note_off_c, 0, 60, 127
1, 17194, Note_on_c, 2, 62, 127
1, 17194, Note_on_c, 5, 77, 127
1, 17357, Note_off_c, 2, 62, 127
1, 17359, Note_on_c, 12, 59, 127
1, 17522, Note_off_c, 12, 59, 127
1, 17524, Note_on_c, 7, 55, 127
1, 17687, Note_off_c, 7, 55, 127
1, 17689, Note_on_c, 12, 59, 127
1, 17852, Note_off_c, 12, 59, 127
1, 17854, Note_on_c, 0, 48, 127
1, 17967, Note_off_c, 5, 77, 127
1, 18018, Note_on_c, 2, 74, 127
1, 18181, Note_off_c, 2, 74, 127
1, 18181, Note_off_c, 0, 48, 127
1, 18183, Note_on_c, 0, 60, 127
1, 18183, Note_on_c, 4, 76, 127
1, 18346, Note_off_c, 4, 76, 127
1, 18348, Note_on_c, 0, 72, 127
1, 18511, Note_off_c, 0, 72, 127
1, 18511, Note_off_c, 0, 60, 127
1, 18513, Note_on_c, 7, 55, 127
1, 18513, Note_on_c, 12, 71, 127
1, 18676, Note_off_c, 12, 71, 127
1, 18678, Note_on_c, 0, 72, 127
1, 18841, Note_off_c, 0, 72, 127
1, 18841, Note_off_c, 7, 55, 127
1, 18843, Note_on_c, 10, 57, 127
1, 18843, Note_on_c, 6, 66, 127
1, 19006, Note_off_c, 10, 57, 127
1, 19008, Note_on_c, 12, 59, 127
1, 19125, Note_off_c, 6, 66, 127
1, 19171, Note_off_c, 12, 59, 127
1, 19173, Note_on_c, 0, 60, 127
1, 19173, Note_on_c, 4, 76, 127
1, 19336, Note_off_c, 0, 60, 127
1, 19338, Note_on_c, 10, 57, 127
1, 19501, Note_off_c, 10, 57, 127
1, 19503, Note_on_c, 6, 54, 127
1, 19666, Note_off_c, 6, 54, 127
1, 19668, Note_on_c, 10, 57, 127
1, 19831, Note_off_c, 10, 57, 127
1, 19833, Note_on_c, 12, 47, 127
1, 19946, Note_off_c, 4, 76, 127
1, 19997, Note_on_c, 0, 72, 127
1, 20160, Note_off_c, 0, 72, 127
1, 20160, Note_off_c, 12, 47, 127
1, 20162, Note_on_c, 12, 59, 127
1, 20162, Note_on_c, 2, 74, 127
1, 20325, Note_off_c, 2, 74, 127
1, 20327, Note_on_c, 12, 71, 127
1, 20490, Note_off_c, 12, 71, 127
1, 20490, Note_off_c, 12, 59, 127
1, 20492, Note_on_c, 6, 54, 127
1, 20492, Note_on_c, 10, 69, 127
1, 20655, Note_off_c, 10, 69, 127
1, 20657, Note_on_c, 12, 71, 127
1, 20820, Note_off_c, 12, 71, 127
1, 20820, Note_off_c, 6, 54, 127
1, 20822, Note_on_c, 7, 55, 127
1, 20822, Note_on_c, 4, 64, 127
1, 20985, Note_off_c, 4, 64, 127
1, 20987, Note_on_c, 12, 71, 127
1, 21150, Note_off_c, 12, 71, 127
1, 21150, Note_off_c, 7, 55, 127
1, 21152, Note_on_c, 10, 57, 127
1, 21152, Note_on_c, 0, 72, 127
1, 21315, Note_off_c, 0, 72, 127
1, 21317, Note_on_c, 10, 69, 127
1, 21480, Note_off_c, 10, 69, 127
1, 21480, Note_off_c, 10, 57, 127
1, 21482, Note_on_c, 4, 52, 127
1, 21482, Note_on_c, 7, 67, 127
1, 21645, Note_off_c, 7, 67, 127
1, 21647, Note_on_c, 10, 69, 127
1, 21810, Note_off_c, 10, 69, 127
1, 21810, Note_off_c, 4, 52, 127
1, 21812, Note_on_c, 6, 54, 127
1, 21812, Note_on_c, 2, 62, 127
1, 21975, Note_off_c, 2, 62, 127
1, 21977, Note_on_c, 10, 69, 127
1, 22140, Note_off_c, 10, 69, 127
1, 22140, Note_off_c, 6, 54, 127
1, 22142, Note_on_c, 7, 55, 127
1, 22142, Note_on_c, 12, 71, 127
1, 22305, Note_off_c, 12, 71, 127
1, 22307, Note_on_c, 7, 67, 127
1, 22470, Note_off_c, 7, 67, 127
1, 22470, Note_off_c, 7, 55, 127
1, 22472, Note_on_c, 2, 50, 127
1, 22472, Note_on_c, 6, 66, 127
1, 22635, Note_off_c, 6, 66, 127
1, 22637, Note_on_c, 7, 67, 127
1, 22800, Note_off_c, 7, 67, 127
1, 22800, Note_off_c, 2, 50, 127
1, 22802, Note_on_c, 4, 52, 127
1, 22802, Note_on_c, 0, 60, 127
1, 22965, Note_off_c, 0, 60, 127
1, 22967, Note_on_c, 7, 67, 127
1, 23130, Note_off_c, 7, 67, 127
1, 23130, Note_off_c, 4, 52, 127
1, 23132, Note_on_c, 6, 54, 127
1, 23132, Note_on_c, 10, 69, 127
1, 23295, Note_off_c, 10, 69, 127
1, 23297, Note_on_c, 6, 66, 127
1, 23460, Note_off_c, 6, 66, 127
1, 23460, Note_off_c, 6, 54, 127
1, 23462, Note_on_c, 2, 50, 127
1, 23462, Note_on_c, 4, 64, 127
1, 23625, Note_off_c, 4, 64, 127
1, 23627, Note_on_c, 6, 66, 127
1, 23790, Note_off_c, 6, 66, 127
1, 23790, Note_off_c, 2, 50, 127
1, 23792, Note_on_c, 7, 55, 127
1, 23792, Note_on_c, 12, 59, 127
1, 23955, Note_off_c, 12, 59, 127
1, 23957, Note_on_c, 2, 62, 127
1, 24118, Note_off_c, 7, 55, 127
1, 24120, Note_off_c, 2, 62, 127
1, 24122, Note_on_c, 4, 64, 127
1, 24285, Note_off_c, 4, 64, 127
1, 24287, Note_on_c, 6, 66, 127
1, 24450, Note_off_c, 6, 66, 127
1, 24452, Note_on_c, 7, 67, 127
1, 24615, Note_off_c, 7, 67, 127
1, 24617, Note_on_c, 10, 69, 127
1, 24780, Note_off_c, 10, 69, 127
1, 24782, Note_on_c, 7, 43, 127
1, 24782, Note_on_c, 12, 71, 127
1, 24945, Note_off_c, 12, 71, 127
1, 24945, Note_off_c, 7, 43, 127
1, 24947, Note_on_c, 6, 42, 127
1, 24947, Note_on_c, 2, 74, 127
1, 25110, Note_off_c, 2, 74, 127
1, 25110, Note_off_c, 6, 42, 127
1, 25112, Note_on_c, 4, 40, 127
1, 25112, Note_on_c, 0, 72, 127
1, 25275, Note_off_c, 0, 72, 127
1, 25275, Note_off_c, 4, 40, 127
1, 25277, Note_on_c, 2, 38, 127
1, 25277, Note_on_c, 12, 71, 127
1, 25440, Note_off_c, 12, 71, 127
1, 25440, Note_off_c, 2, 38, 127
1, 25442, Note_on_c, 12, 47, 127
1, 25442, Note_on_c, 10, 69, 127
1, 25605, Note_off_c, 10, 69, 127
1, 25607, Note_on_c, 7, 67, 127
1, 25732, Note_off_c, 12, 47, 127
1, 25769, Note_off_c, 7, 67, 127
1, 25771, Note_on_c, 10, 45, 127
1, 25771, Note_on_c, 6, 66, 127
1, 25934, Note_off_c, 6, 66, 127
1, 25936, Note_on_c, 7, 67, 127
1, 26099, Note_off_c, 7, 67, 127
1, 26101, Note_on_c, 10, 69, 127
1, 26252, Note_off_c, 10, 45, 127
1, 26264, Note_off_c, 10, 69, 127
1, 26266, Note_on_c, 12, 71, 127
1, 26429, Note_off_c, 12, 71, 127
1, 26431, Note_on_c, 0, 72, 127
1, 26594, Note_off_c, 0, 72, 127
1, 26596, Note_on_c, 2, 74, 127
1, 26759, Note_off_c, 2, 74, 127
1, 26761, Note_on_c, 7, 43, 127
1, 26761, Note_on_c, 4, 76, 127
1, 26924, Note_off_c, 4, 76, 127
1, 26924, Note_off_c, 7, 43, 127
1, 26926, Note_on_c, 6, 42, 127
1, 26926, Note_on_c, 10, 81, 127
1, 27089, Note_off_c, 10, 81, 127
1, 27089, Note_off_c, 6, 42, 127
1, 27091, Note_on_c, 4, 40, 127
1, 27091, Note_on_c, 7, 79, 127
1, 27254, Note_off_c, 7, 79, 127
1, 27254, Note_off_c, 4, 40, 127
1, 27256, Note_on_c, 2, 38, 127
1, 27256, Note_on_c, 6, 78, 127
1, 27419, Note_off_c, 6, 78, 127
1, 27419, Note_off_c, 2, 38, 127
1, 27421, Note_on_c, 0, 48, 127
1, 27421, Note_on_c, 4, 76, 127
1, 27584, Note_off_c, 4, 76, 127
1, 27586, Note_on_c, 2, 74, 127
1, 27711, Note_off_c, 0, 48, 127
1, 27748, Note_off_c, 2, 74, 127
1, 27750, Note_on_c, 12, 47, 127
1, 27750, Note_on_c, 7, 79, 127
1, 27913, Note_off_c, 7, 79, 127
1, 27915, Note_on_c, 2, 74, 127
1, 28078, Note_off_c, 2, 74, 127
1, 28080, Note_on_c, 4, 76, 127
1, 28231, Note_off_c, 12, 47, 127
1, 28243, Note_off_c, 4, 76, 127
1, 28245, Note_on_c, 6, 78, 127
1, 28408, Note_off_c, 6, 78, 127
1, 28410, Note_on_c, 7, 79, 127
1, 28573, Note_off_c, 7, 79, 127
1, 28575, Note_on_c, 10, 81, 127
1, 28738, Note_off_c, 10, 81, 127
1, 28740, Note_on_c, 2, 50, 127
1, 28740, Note_on_c, 12, 83, 127
1, 28903, Note_off_c, 12, 83, 127
1, 28903, Note_off_c, 2, 50, 127
1, 28905, Note_on_c, 12, 47, 127
1, 28905, Note_on_c, 7, 79, 127
1, 29068, Note_off_c, 7, 79, 127
1, 29068, Note_off_c, 12, 47, 127
1, 29070, Note_on_c, 10, 45, 127
1, 29070, Note_on_c, 6, 78, 127
1, 29233, Note_off_c, 6, 78, 127
1, 29233, Note_off_c, 10, 45, 127
1, 29235, Note_on_c, 7, 43, 127
1, 29235, Note_on_c, 7, 79, 127
1, 29398, Note_off_c, 7, 79, 127
1, 29398, Note_off_c, 7, 43, 127
1, 29400, Note_on_c, 4, 52, 127
1, 29400, Note_on_c, 0, 72, 127
1, 29563, Note_off_c, 0, 72, 127
1, 29563, Note_off_c, 4, 52, 127
1, 29565, Note_on_c, 0, 48, 127
1, 29565, Note_on_c, 10, 81, 127
1, 29728, Note_off_c, 10, 81, 127
1, 29728, Note_off_c, 0, 48, 127
1, 29730, Note_on_c, 2, 50, 127
1, 29730, Note_on_c, 12, 71, 127
1, 29893, Note_off_c, 12, 71, 127
1, 29893, Note_off_c, 2, 50, 127
1, 29895, Note_on_c, 12, 47, 127
1, 29895, Note_on_c, 7, 79, 127
1, 30058, Note_off_c, 7, 79, 127
1, 30058, Note_off_c, 12, 47, 127
1, 30060, Note_on_c, 10, 45, 127
1, 30060, Note_on_c, 6, 78, 127
1, 30223, Note_off_c, 6, 78, 127
1, 30223, Note_off_c, 10, 45, 127
1, 30225, Note_on_c, 7, 43, 127
1, 30225, Note_on_c, 7, 79, 127
1, 30388, Note_off_c, 7, 79, 127
1, 30388, Note_off_c, 7, 43, 127
1, 30390, Note_on_c, 0, 48, 127
1, 30390, Note_on_c, 10, 69, 127
1, 30553, Note_off_c, 10, 69, 127
1, 30553, Note_off_c, 0, 48, 127
1, 30555, Note_on_c, 10, 45, 127
1, 30555, Note_on_c, 0, 72, 127
1, 30718, Note_off_c, 0, 72, 127
1, 30718, Note_off_c, 10, 45, 127
1, 30720, Note_on_c, 0, 48, 127
1, 30720, Note_on_c, 6, 66, 127
1, 30883, Note_off_c, 6, 66, 127
1, 30883, Note_off_c, 0, 48, 127
1, 30885, Note_on_c, 12, 47, 127
1, 30885, Note_on_c, 7, 67, 127
1, 31048, Note_off_c, 7, 67, 127
1, 31048, Note_off_c, 12, 47, 127
1, 31050, Note_on_c, 10, 45, 127
1, 31050, Note_on_c, 10, 69, 127
1, 31213, Note_off_c, 10, 69, 127
1, 31213, Note_off_c, 10, 45, 127
1, 31215, Note_on_c, 7, 43, 127
1, 31215, Note_on_c, 12, 71, 127
1, 31378, Note_off_c, 12, 71, 127
1, 31378, Note_off_c, 7, 43, 127
1, 31380, Note_on_c, 10, 45, 127
1, 31380, Note_on_c, 0, 72, 127
1, 31543, Note_off_c, 10, 45, 127
1, 31545, Note_on_c, 6, 42, 127
1, 31708, Note_off_c, 6, 42, 127
1, 31710, Note_on_c, 7, 43, 127
1, 31873, Note_off_c, 7, 43, 127
1, 31875, Note_on_c, 2, 38, 127
1, 32038, Note_off_c, 2, 38, 127
1, 32038, Note_off_c, 0, 72, 127
1, 32040, Note_on_c, 4, 40, 127
1, 32040, Note_on_c, 12, 71, 127
1, 32203, Note_off_c, 4, 40, 127
1, 32205, Note_on_c, 6, 42, 127
1, 32366, Note_off_c, 12, 71, 127
1, 32368, Note_off_c, 6, 42, 127
1, 32370, Note_on_c, 7, 43, 127
1, 32533, Note_off_c, 7, 43, 127
1, 32535, Note_on_c, 10, 45, 127
1, 32698, Note_off_c, 10, 45, 127
1, 32700, Note_on_c, 12, 47, 127
1, 32700, Note_on_c, 2, 74, 127
1, 32863, Note_off_c, 2, 74, 127
1, 32863, Note_off_c, 12, 47, 127
1, 32865, Note_on_c, 2, 50, 127
1, 32865, Note_on_c, 12, 71, 127
1, 33028, Note_off_c, 12, 71, 127
1, 33028, Note_off_c, 2, 50, 127
1, 33030, Note_on_c, 0, 48, 127
1, 33030, Note_on_c, 10, 69, 127
1, 33193, Note_off_c, 10, 69, 127
1, 33193, Note_off_c, 0, 48, 127
1, 33195, Note_on_c, 12, 47, 127
1, 33195, Note_on_c, 7, 67, 127
1, 33358, Note_off_c, 7, 67, 127
1, 33358, Note_off_c, 12, 47, 127
1, 33360, Note_on_c, 0, 48, 127
1, 33360, Note_on_c, 4, 76, 127
1, 33523, Note_off_c, 0, 48, 127
1, 33525, Note_on_c, 10, 45, 127
1, 33608, Note_off_c, 4, 76, 127
1, 33688, Note_off_c, 10, 45, 127
1, 33690, Note_on_c, 12, 47, 127
1, 33690, Note_on_c, 2, 74, 127
1, 33853, Note_off_c, 12, 47, 127
1, 33855, Note_on_c, 7, 43, 127
1, 34018, Note_off_c, 7, 43, 127
1, 34020, Note_on_c, 10, 45, 127
1, 34183, Note_off_c, 10, 45, 127
1, 34185, Note_on_c, 12, 47, 127
1, 34308, Note_off_c, 2, 74, 127
1, 34347, Note_off_c, 12, 47, 127
1, 34349, Note_on_c, 0, 48, 127
1, 34512, Note_off_c, 0, 48, 127
1, 34514, Note_on_c, 2, 50, 127
1, 34677, Note_off_c, 2, 50, 127
1, 34679, Note_on_c, 4, 52, 127
1, 34679, Note_on_c, 0, 72, 127
1, 34842, Note_off_c, 0, 72, 127
1, 34842, Note_off_c, 4, 52, 127
1, 34844, Note_on_c, 7, 55, 127
1, 34844, Note_on_c, 12, 71, 127
1, 35007, Note_off_c, 12, 71, 127
1, 35007, Note_off_c, 7, 55, 127
1, 35009, Note_on_c, 5, 53, 127
1, 35009, Note_on_c, 10, 69, 127
1, 35172, Note_off_c, 10, 69, 127
1, 35172, Note_off_c, 5, 53, 127
1, 35174, Note_on_c, 4, 52, 127
1, 35174, Note_on_c, 7, 67, 127
1, 35337, Note_off_c, 7, 67, 127
1, 35337, Note_off_c, 4, 52, 127
1, 35339, Note_on_c, 2, 50, 127
1, 35339, Note_on_c, 7, 79, 127
1, 35502, Note_off_c, 2, 50, 127
1, 35504, Note_on_c, 1, 49, 127
1, 35604, Note_off_c, 7, 79, 127
1, 35667, Note_off_c, 1, 49, 127
1, 35669, Note_on_c, 10, 57, 127
1, 35669, Note_on_c, 6, 78, 127
1, 35832, Note_off_c, 10, 57, 127
1, 35834, Note_on_c, 2, 50, 127
1, 35997, Note_off_c, 2, 50, 127
1, 35999, Note_on_c, 4, 52, 127
1, 36162, Note_off_c, 4, 52, 127
1, 36164, Note_on_c, 6, 54, 127
1, 36322, Note_off_c, 6, 78, 127
1, 36327, Note_off_c, 6, 54, 127
1, 36329, Note_on_c, 7, 55, 127
1, 36492, Note_off_c, 7, 55, 127
1, 36494, Note_on_c, 10, 57, 127
1, 36657, Note_off_c, 10, 57, 127
1, 36659, Note_on_c, 12, 59, 127
1, 36659, Note_on_c, 7, 79, 127
1, 36822, Note_off_c, 7, 79, 127
1, 36822, Note_off_c, 12, 59, 127
1, 36824, Note_on_c, 10, 57, 127
1, 36824, Note_on_c, 6, 78, 127
1, 36987, Note_off_c, 6, 78, 127
1, 36987, Note_off_c, 10, 57, 127
1, 36989, Note_on_c, 7, 55, 127
1, 36989, Note_on_c, 4, 76, 127
1, 37152, Note_off_c, 4, 76, 127
1, 37152, Note_off_c, 7, 55, 127
1, 37154, Note_on_c, 6, 54, 127
1, 37154, Note_on_c, 2, 74, 127
1, 37317, Note_off_c, 2, 74, 127
1, 37317, Note_off_c, 6, 54, 127
1, 37319, Note_on_c, 7, 55, 127
1, 37319, Note_on_c, 12, 83, 127
1, 37482, Note_off_c, 12, 83, 127
1, 37482, Note_off_c, 7, 55, 127
1, 37484, Note_on_c, 4, 52, 127
1, 37484, Note_on_c, 7, 79, 127
1, 37647, Note_off_c, 7, 79, 127
1, 37647, Note_off_c, 4, 52, 127
1, 37649, Note_on_c, 6, 54, 127
1, 37649, Note_on_c, 10, 81, 127
1, 37812, Note_off_c, 10, 81, 127
1, 37812, Note_off_c, 6, 54, 127
1, 37814, Note_on_c, 10, 57, 127
1, 37814, Note_on_c, 6, 78, 127
1, 37977, Note_off_c, 6, 78, 127
1, 37977, Note_off_c, 10, 57, 127
1, 37979, Note_on_c, 7, 55, 127
1, 37979, Note_on_c, 4, 76, 127
1, 38142, Note_off_c, 4, 76, 127
1, 38142, Note_off_c, 7, 55, 127
1, 38144, Note_on_c, 6, 54, 127
1, 38144, Note_on_c, 2, 74, 127
1, 38307, Note_off_c, 2, 74, 127
1, 38307, Note_off_c, 6, 54, 127
1, 38309, Note_on_c, 4, 52, 127
1, 38309, Note_on_c, 7, 79, 127
1, 38472, Note_off_c, 7, 79, 127
1, 38472, Note_off_c, 4, 52, 127
1, 38474, Note_on_c, 2, 50, 127
1, 38474, Note_on_c, 4, 76, 127
1, 38637, Note_off_c, 4, 76, 127
1, 38637, Note_off_c, 2, 50, 127
1, 38639, Note_on_c, 1, 49, 127
1, 38639, Note_on_c, 7, 79, 127
1, 38802, Note_off_c, 7, 79, 127
1, 38802, Note_off_c, 1, 49, 127
1, 38804, Note_on_c, 2, 50, 127
1, 38804, Note_on_c, 6, 78, 127
1, 38967, Note_off_c, 6, 78, 127
1, 38967, Note_off_c, 2, 50, 127
1, 38969, Note_on_c, 4, 52, 127
1, 38969, Note_on_c, 4, 76, 127
1, 39132, Note_off_c, 4, 76, 127
1, 39132, Note_off_c, 4, 52, 127
1, 39134, Note_on_c, 6, 54, 127
1, 39134, Note_on_c, 2, 74, 127
1, 39297, Note_off_c, 2, 74, 127
1, 39297, Note_off_c, 6, 54, 127
1, 39299, Note_on_c, 7, 55, 127
1, 39299, Note_on_c, 4, 76, 127
1, 39462, Note_off_c, 4, 76, 127
1, 39464, Note_on_c, 1, 73, 127
1, 39627, Note_off_c, 1, 73, 127
1, 39629, Note_on_c, 2, 74, 127
1, 39792, Note_off_c, 7, 55, 127
1, 39794, Note_on_c, 4, 52, 127
1, 39957, Note_off_c, 4, 52, 127
1, 39959, Note_on_c, 6, 54, 127
1, 40122, Note_off_c, 6, 54, 127
1, 40124, Note_on_c, 2, 50, 127
1, 40287, Note_off_c, 2, 50, 127
1, 40289, Note_on_c, 1, 49, 127
1, 40452, Note_off_c, 1, 49, 127
1, 40454, Note_on_c, 2, 50, 127
1, 40617, Note_off_c, 2, 50, 127
1, 40619, Note_on_c, 12, 59, 127
1, 40772, Note_off_c, 2, 74, 127
1, 40784, Note_on_c, 6, 66, 127
1, 40947, Note_off_c, 6, 66, 127
1, 40949, Note_on_c, 7, 67, 127
1, 41112, Note_off_c, 7, 67, 127
1, 41114, Note_on_c, 4, 64, 127
1, 41277, Note_off_c, 4, 64, 127
1, 41279, Note_on_c, 2, 62, 127
1, 41442, Note_off_c, 2, 62, 127
1, 41444, Note_on_c, 4, 64, 127
1, 41607, Note_off_c, 4, 64, 127
1, 41609, Note_on_c, 0, 72, 127
1, 41719, Note_off_c, 12, 59, 127
1, 41774, Note_on_c, 2, 50, 127
1, 41937, Note_off_c, 2, 50, 127
1, 41939, Note_on_c, 4, 52, 127
1, 42102, Note_off_c, 4, 52, 127
1, 42104, Note_on_c, 0, 48, 127
1, 42267, Note_off_c, 0, 48, 127
1, 42269, Note_on_c, 12, 47, 127
1, 42432, Note_off_c, 12, 47, 127
1, 42434, Note_on_c, 0, 48, 127
1, 42597, Note_off_c, 0, 48, 127
1, 42599, Note_on_c, 10, 57, 127
1, 42752, Note_off_c, 0, 72, 127
1, 42764, Note_on_c, 4, 64, 127
1, 42927, Note_off_c, 4, 64, 127
1, 42929, Note_on_c, 6, 66, 127
1, 43092, Note_off_c, 6, 66, 127
1, 43094, Note_on_c, 2, 62, 127
1, 43257, Note_off_c, 2, 62, 127
1, 43259, Note_on_c, 1, 61, 127
1, 43422, Note_off_c, 1, 61, 127
1, 43424, Note_on_c, 2, 62, 127
1, 43587, Note_off_c, 2, 62, 127
1, 43589, Note_on_c, 12, 71, 127
1, 43699, Note_off_c, 10, 57, 127
1, 43754, Note_on_c, 6, 54, 127
1, 43917, Note_off_c, 6, 54, 127
1, 43919, Note_on_c, 7, 55, 127
1, 44082, Note_off_c, 7, 55, 127
1, 44084, Note_on_c, 4, 52, 127
1, 44247, Note_off_c, 4, 52, 127
1, 44249, Note_on_c, 3, 51, 127
1, 44412, Note_off_c, 3, 51, 127
1, 44414, Note_on_c, 4, 52, 127
1, 44577, Note_off_c, 4, 52, 127
1, 44579, Note_on_c, 0, 60, 127
1, 44732, Note_off_c, 12, 71, 127
1, 44744, Note_on_c, 4, 64, 127
1, 44907, Note_off_c, 4, 64, 127
1, 44909, Note_on_c, 3, 63, 127
1, 45072, Note_off_c, 3, 63, 127
1, 45074, Note_on_c, 4, 64, 127
1, 45237, Note_off_c, 4, 64, 127
1, 45239, Note_on_c, 6, 66, 127
1, 45402, Note_off_c, 6, 66, 127
1, 45404, Note_on_c, 7, 67, 127
1, 45567, Note_off_c, 7, 67, 127
1, 45569, Note_on_c, 10, 69, 127
1, 45696, Note_off_c, 0, 60, 127
1, 45734, Note_on_c, 12, 59, 127
1, 45897, Note_off_c, 12, 59, 127
1, 45897, Note_off_c, 10, 69, 127
1, 45899, Note_on_c, 10, 57, 127
1, 45899, Note_on_c, 12, 71, 127
1, 46062, Note_off_c, 10, 57, 127
1, 46064, Note_on_c, 7, 55, 127
1, 46227, Note_off_c, 7, 55, 127
1, 46227, Note_off_c, 12, 71, 127
1, 46229, Note_on_c, 6, 54, 127
1, 46229, Note_on_c, 0, 72, 127
1, 46392, Note_off_c, 6, 54, 127
1, 46394, Note_on_c, 4, 52, 127
1, 46557, Note_off_c, 4, 52, 127
1, 46559, Note_on_c, 2, 50, 127
1, 46722, Note_off_c, 0, 72, 127
1, 46724, Note_on_c, 12, 71, 127
1, 46887, Note_off_c, 12, 71, 127
1, 46887, Note_off_c, 2, 50, 127
1, 46889, Note_on_c, 4, 52, 127
1, 46889, Note_on_c, 10, 69, 127
1, 47052, Note_off_c, 10, 69, 127
1, 47054, Note_on_c, 7, 67, 127
1, 47217, Note_off_c, 7, 67, 127
1, 47217, Note_off_c, 4, 52, 127
1, 47219, Note_on_c, 0, 48, 127
1, 47219, Note_on_c, 6, 66, 127
1, 47382, Note_off_c, 6, 66, 127
1, 47384, Note_on_c, 4, 64, 127
1, 47547, Note_off_c, 4, 64, 127
1, 47547, Note_off_c, 0, 48, 127
1, 47549, Note_on_c, 12, 47, 127
1, 47549, Note_on_c, 3, 63, 127
1, 47712, Note_off_c, 3, 63, 127
1, 47714, Note_on_c, 4, 64, 127
1, 47877, Note_off_c, 4, 64, 127
1, 47877, Note_off_c, 12, 47, 127
1, 47879, Note_on_c, 12, 59, 127
1, 47879, Note_on_c, 6, 66, 127
1, 48042, Note_off_c, 6, 66, 127
1, 48042, Note_off_c, 12, 59, 127
1, 48044, Note_on_c, 10, 57, 127
1, 48044, Note_on_c, 7, 67, 127
1, 48207, Note_off_c, 7, 67, 127
1, 48207, Note_off_c, 10, 57, 127
1, 48209, Note_on_c, 7, 55, 127
1, 48209, Note_on_c, 10, 69, 127
1, 48372, Note_off_c, 7, 55, 127
1, 48374, Note_on_c, 6, 54, 127
1, 48537, Note_off_c, 6, 54, 127
1, 48539, Note_on_c, 4, 52, 127
1, 48702, Note_off_c, 10, 69, 127
1, 48704, Note_on_c, 6, 66, 127
1, 48867, Note_off_c, 6, 66, 127
1, 48867, Note_off_c, 4, 52, 127
1, 48869, Note_on_c, 4, 40, 127
1, 48869, Note_on_c, 7, 67, 127
1, 49032, Note_off_c, 7, 67, 127
1, 49034, Note_on_c, 4, 64, 127
1, 49197, Note_off_c, 4, 64, 127
1, 49197, Note_off_c, 4, 40, 127
1, 49199, Note_on_c, 6, 42, 127
1, 49199, Note_on_c, 3, 63, 127
1, 49362, Note_off_c, 3, 63, 127
1, 49364, Note_on_c, 4, 64, 127
1, 49527, Note_off_c, 4, 64, 127
1, 49527, Note_off_c, 6, 42, 127
1, 49529, Note_on_c, 7, 43, 127
1, 49529, Note_on_c, 12, 59, 127
1, 49692, Note_off_c, 12, 59, 127
1, 49694, Note_on_c, 4, 64, 127
1, 49857, Note_off_c, 4, 64, 127
1, 49857, Note_off_c, 7, 43, 127
1, 49859, Note_on_c, 12, 47, 127
1, 49859, Note_on_c, 7, 67, 127
1, 50022, Note_off_c, 7, 67, 127
1, 50024, Note_on_c, 4, 64, 127
1, 50187, Note_off_c, 4, 64, 127
1, 50187, Note_off_c, 12, 47, 127
1, 50189, Note_on_c, 10, 45, 127
1, 50189, Note_on_c, 3, 63, 127
1, 50352, Note_off_c, 3, 63, 127
1, 50354, Note_on_c, 4, 64, 127
1, 50517, Note_off_c, 4, 64, 127
1, 50517, Note_off_c, 10, 45, 127
1, 50519, Note_on_c, 7, 43, 127
1, 50519, Note_on_c, 12, 59, 127
1, 50682, Note_off_c, 12, 59, 127
1, 50684, Note_on_c, 4, 64, 127
1, 50847, Note_off_c, 4, 64, 127
1, 50847, Note_off_c, 7, 43, 127
1, 50849, Note_on_c, 4, 40, 127
1, 50849, Note_on_c, 7, 67, 127
1, 51012, Note_off_c, 7, 67, 127
1, 51014, Note_on_c, 4, 64, 127
1, 51177, Note_off_c, 4, 64, 127
1, 51177, Note_off_c, 4, 40, 127
1, 51179, Note_on_c, 4, 52, 127
1, 51179, Note_on_c, 2, 62, 127
1, 51342, Note_off_c, 2, 62, 127
1, 51344, Note_on_c, 4, 64, 127
1, 51507, Note_off_c, 4, 64, 127
1, 51507, Note_off_c, 4, 52, 127
1, 51509, Note_on_c, 10, 45, 127
1, 51509, Note_on_c, 1, 61, 127
1, 51672, Note_off_c, 1, 61, 127
1, 51672, Note_off_c, 10, 45, 127
1, 51674, Note_on_c, 12, 47, 127
1, 51674, Note_on_c, 2, 62, 127
1, 51837, Note_off_c, 2, 62, 127
1, 51837, Note_off_c, 12, 47, 127
1, 51839, Note_on_c, 1, 49, 127
1, 51839, Note_on_c, 4, 64, 127
1, 52002, Note_off_c, 4, 64, 127
1, 52002, Note_off_c, 1, 49, 127
1, 52004, Note_on_c, 2, 50, 127
1, 52004, Note_on_c, 6, 66, 127
1, 52167, Note_off_c, 6, 66, 127
1, 52167, Note_off_c, 2, 50, 127
1, 52169, Note_on_c, 4, 52, 127
1, 52169, Note_on_c, 7, 67, 127
1, 52332, Note_off_c, 4, 52, 127
1, 52334, Note_on_c, 1, 49, 127
1, 52497, Note_off_c, 1, 49, 127
1, 52499, Note_on_c, 2, 50, 127
1, 52662, Note_off_c, 7, 67, 127
1, 52664, Note_on_c, 4, 64, 127
1, 52827, Note_off_c, 4, 64, 127
1, 52827, Note_off_c, 2, 50, 127
1, 52829, Note_on_c, 2, 38, 127
1, 52829, Note_on_c, 6, 66, 127
1, 52992, Note_off_c, 6, 66, 127
1, 52994, Note_on_c, 2, 62, 127
1, 53157, Note_off_c, 2, 62, 127
1, 53157, Note_off_c, 2, 38, 127
1, 53159, Note_on_c, 4, 40, 127
1, 53159, Note_on_c, 1, 61, 127
1, 53322, Note_off_c, 1, 61, 127
1, 53324, Note_on_c, 2, 62, 127
1, 53487, Note_off_c, 2, 62, 127
1, 53487, Note_off_c, 4, 40, 127
1, 53489, Note_on_c, 6, 42, 127
1, 53489, Note_on_c, 10, 57, 127
1, 53652, Note_off_c, 10, 57, 127
1, 53654, Note_on_c, 2, 62, 127
1, 53817, Note_off_c, 2, 62, 127
1, 53817, Note_off_c, 6, 42, 127
1, 53819, Note_on_c, 10, 45, 127
1, 53819, Note_on_c, 6, 66, 127
1, 53982, Note_off_c, 6, 66, 127
1, 53984, Note_on_c, 2, 62, 127
1, 54147, Note_off_c, 2, 62, 127
1, 54147, Note_off_c, 10, 45, 127
1, 54149, Note_on_c, 7, 43, 127
1, 54149, Note_on_c, 1, 61, 127
1, 54312, Note_off_c, 1, 61, 127
1, 54314, Note_on_c, 2, 62, 127
1, 54477, Note_off_c, 2, 62, 127
1, 54477, Note_off_c, 7, 43, 127
1, 54479, Note_on_c, 6, 42, 127
1, 54479, Note_on_c, 10, 57, 127
1, 54642, Note_off_c, 10, 57, 127
1, 54644, Note_on_c, 2, 62, 127
1, 54807, Note_off_c, 2, 62, 127
1, 54807, Note_off_c, 6, 42, 127
1, 54809, Note_on_c, 2, 38, 127
1, 54809, Note_on_c, 6, 66, 127
1, 54972, Note_off_c, 6, 66, 127
1, 54974, Note_on_c, 2, 62, 127
1, 55137, Note_off_c, 2, 62, 127
1, 55137, Note_off_c, 2, 38, 127
1, 55139, Note_on_c, 2, 50, 127
1, 55139, Note_on_c, 0, 60, 127
1, 55302, Note_off_c, 0, 60, 127
1, 55304, Note_on_c, 2, 62, 127
1, 55467, Note_off_c, 2, 62, 127
1, 55467, Note_off_c, 2, 50, 127
1, 55469, Note_on_c, 7, 43, 127
1, 55469, Note_on_c, 12, 59, 127
1, 55632, Note_off_c, 12, 59, 127
1, 55632, Note_off_c, 7, 43, 127
1, 55634, Note_on_c, 10, 45, 127
1, 55634, Note_on_c, 0, 60, 127
1, 55797, Note_off_c, 0, 60, 127
1, 55797, Note_off_c, 10, 45, 127
1, 55799, Note_on_c, 12, 47, 127
1, 55799, Note_on_c, 2, 62, 127
1, 55962, Note_off_c, 2, 62, 127
1, 55962, Note_off_c, 12, 47, 127
1, 55964, Note_on_c, 0, 48, 127
1, 55964, Note_on_c, 4, 64, 127
1, 56127, Note_off_c, 4, 64, 127
1, 56127, Note_off_c, 0, 48, 127
1, 56129, Note_on_c, 2, 50, 127
1, 56129, Note_on_c, 5, 65, 127
1, 56292, Note_off_c, 2, 50, 127
1, 56294, Note_on_c, 12, 47, 127
1, 56457, Note_off_c, 12, 47, 127
1, 56459, Note_on_c, 0, 48, 127
1, 56622, Note_off_c, 5, 65, 127
1, 56624, Note_on_c, 4, 64, 127
1, 56787, Note_off_c, 4, 64, 127
1, 56787, Note_off_c, 0, 48, 127
1, 56789, Note_on_c, 0, 60, 127
1, 56789, Note_on_c, 3, 63, 127
1, 56952, Note_off_c, 3, 63, 127
1, 56954, Note_on_c, 4, 64, 127
1, 57117, Note_off_c, 4, 64, 127
1, 57117, Note_off_c, 0, 60, 127
1, 57119, Note_on_c, 6, 54, 127
1, 57119, Note_on_c, 10, 69, 127
1, 57282, Note_off_c, 10, 69, 127
1, 57284, Note_on_c, 4, 64, 127
1, 57447, Note_off_c, 4, 64, 127
1, 57447, Note_off_c, 6, 54, 127
1, 57449, Note_on_c, 10, 57, 127
1, 57449, Note_on_c, 0, 72, 127
1, 57612, Note_off_c, 0, 72, 127
1, 57614, Note_on_c, 10, 69, 127
1, 57777, Note_off_c, 10, 69, 127
1, 57777, Note_off_c, 10, 57, 127
1, 57779, Note_on_c, 3, 51, 127
1, 57779, Note_on_c, 8, 68, 127
1, 57942, Note_off_c, 8, 68, 127
1, 57944, Note_on_c, 10, 69, 127
1, 58107, Note_off_c, 10, 69, 127
1, 58107, Note_off_c, 3, 51, 127
1, 58109, Note_on_c, 6, 54, 127
1, 58109, Note_on_c, 3, 75, 127
1, 58272, Note_off_c, 3, 75, 127
1, 58274, Note_on_c, 10, 69, 127
1, 58437, Note_off_c, 10, 69, 127
1, 58437, Note_off_c, 6, 54, 127
1, 58439, Note_on_c, 12, 47, 127
1, 58439, Note_on_c, 6, 78, 127
1, 58602, Note_off_c, 12, 47, 127
1, 58604, Note_on_c, 1, 49, 127
1, 58767, Note_off_c, 1, 49, 127
1, 58767, Note_off_c, 6, 78, 127
1, 58769, Note_on_c, 3, 51, 127
1, 58769, Note_on_c, 12, 71, 127
1, 58932, Note_off_c, 3, 51, 127
1, 58934, Note_on_c, 4, 52, 127
1, 59097, Note_off_c, 4, 52, 127
1, 59097, Note_off_c, 12, 71, 127
1, 59099, Note_on_c, 6, 54, 127
1, 59099, Note_on_c, 10, 69, 127
1, 59262, Note_off_c, 6, 54, 127
1, 59264, Note_on_c, 3, 51, 127
1, 59427, Note_off_c, 3, 51, 127
1, 59427, Note_off_c, 10, 69, 127
1, 59429, Note_on_c, 4, 52, 127
1, 59429, Note_on_c, 7, 67, 127
1, 59592, Note_off_c, 7, 67, 127
1, 59594, Note_on_c, 12, 71, 127
1, 59757, Note_off_c, 12, 71, 127
1, 59757, Note_off_c, 4, 52, 127
1, 59759, Note_on_c, 4, 40, 127
1, 59759, Note_on_c, 1, 73, 127
1, 59922, Note_off_c, 1, 73, 127
1, 59924, Note_on_c, 3, 75, 127
1, 60085, Note_off_c, 4, 40, 127
1, 60087, Note_off_c, 3, 75, 127
1, 60089, Note_on_c, 4, 76, 127
1, 60252, Note_off_c, 4, 76, 127
1, 60254, Note_on_c, 6, 78, 127
1, 60417, Note_off_c, 6, 78, 127
1, 60419, Note_on_c, 4, 52, 127
1, 60419, Note_on_c, 7, 79, 127
1, 60582, Note_off_c, 7, 79, 127
1, 60582, Note_off_c, 4, 52, 127
1, 60584, Note_on_c, 3, 51, 127
1, 60584, Note_on_c, 12, 83, 127
1, 60747, Note_off_c, 12, 83, 127
1, 60747, Note_off_c, 3, 51, 127
1, 60749, Note_on_c, 1, 49, 127
1, 60749, Note_on_c, 10, 81, 127
1, 60912, Note_off_c, 10, 81, 127
1, 60912, Note_off_c, 1, 49, 127
1, 60914, Note_on_c, 12, 47, 127
1, 60914, Note_on_c, 7, 79, 127
1, 61077, Note_off_c, 7, 79, 127
1, 61077, Note_off_c, 12, 47, 127
1, 61079, Note_on_c, 7, 55, 127
1, 61079, Note_on_c, 6, 78, 127
1, 61242, Note_off_c, 6, 78, 127
1, 61244, Note_on_c, 4, 76, 127
1, 61369, Note_off_c, 7, 55, 127
1, 61406, Note_off_c, 4, 76, 127
1, 61408, Note_on_c, 6, 54, 127
1, 61408, Note_on_c, 3, 75, 127
1, 61571, Note_off_c, 3, 75, 127
1, 61573, Note_on_c, 1, 73, 127
1, 61736, Note_off_c, 1, 73, 127
1, 61738, Note_on_c, 3, 75, 127
1, 61889, Note_off_c, 6, 54, 127
1, 61901, Note_off_c, 3, 75, 127
1, 61903, Note_on_c, 4, 76, 127
1, 62066, Note_off_c, 4, 76, 127
1, 62068, Note_on_c, 6, 78, 127
1, 62231, Note_off_c, 6, 78, 127
1, 62233, Note_on_c, 7, 79, 127
1, 62396, Note_off_c, 7, 79, 127
1, 62398, Note_on_c, 4, 52, 127
1, 62398, Note_on_c, 10, 81, 127
1, 62561, Note_off_c, 10, 81, 127
1, 62561, Note_off_c, 4, 52, 127
1, 62563, Note_on_c, 3, 51, 127
1, 62563, Note_on_c, 6, 78, 127
1, 62726, Note_off_c, 6, 78, 127
1, 62726, Note_off_c, 3, 51, 127
1, 62728, Note_on_c, 1, 49, 127
1, 62728, Note_on_c, 4, 76, 127
1, 62891, Note_off_c, 4, 76, 127
1, 62891, Note_off_c, 1, 49, 127
1, 62893, Note_on_c, 12, 47, 127
1, 62893, Note_on_c, 3, 75, 127
1, 63056, Note_off_c, 3, 75, 127
1, 63056, Note_off_c, 12, 47, 127
1, 63058, Note_on_c, 10, 57, 127
1, 63058, Note_on_c, 1, 73, 127
1, 63221, Note_off_c, 1, 73, 127
1, 63223, Note_on_c, 12, 71, 127
1, 63348, Note_off_c, 10, 57, 127
1, 63385, Note_off_c, 12, 71, 127
1, 63387, Note_on_c, 7, 55, 127
1, 63387, Note_on_c, 4, 76, 127
1, 63550, Note_off_c, 4, 76, 127
1, 63552, Note_on_c, 7, 79, 127
1, 63715, Note_off_c, 7, 79, 127
1, 63717, Note_on_c, 6, 78, 127
1, 63868, Note_off_c, 7, 55, 127
1, 63880, Note_off_c, 6, 78, 127
1, 63882, Note_on_c, 4, 76, 127
1, 64045, Note_off_c, 4, 76, 127
1, 64047, Note_on_c, 10, 81, 127
1, 64210, Note_off_c, 10, 81, 127
1, 64212, Note_on_c, 6, 78, 127
1, 64375, Note_off_c, 6, 78, 127
1, 64377, Note_on_c, 12, 59, 127
1, 64377, Note_on_c, 7, 79, 127
1, 64540, Note_off_c, 7, 79, 127
1, 64540, Note_off_c, 12, 59, 127
1, 64542, Note_on_c, 7, 55, 127
1, 64542, Note_on_c, 12, 83, 127
1, 64705, Note_off_c, 12, 83, 127
1, 64705, Note_off_c, 7, 55, 127
1, 64707, Note_on_c, 6, 54, 127
1, 64707, Note_on_c, 10, 81, 127
1, 64870, Note_off_c, 10, 81, 127
1, 64870, Note_off_c, 6, 54, 127
1, 64872, Note_on_c, 4, 52, 127
1, 64872, Note_on_c, 7, 79, 127
1, 65035, Note_off_c, 7, 79, 127
1, 65035, Note_off_c, 4, 52, 127
1, 65037, Note_on_c, 0, 60, 127
1, 65037, Note_on_c, 10, 81, 127
1, 65200, Note_off_c, 10, 81, 127
1, 65200, Note_off_c, 0, 60, 127
1, 65202, Note_on_c, 10, 57, 127
1, 65202, Note_on_c, 6, 78, 127
1, 65365, Note_off_c, 6, 78, 127
1, 65365, Note_off_c, 10, 57, 127
1, 65367, Note_on_c, 12, 59, 127
1, 65367, Note_on_c, 7, 79, 127
1, 65530, Note_off_c, 7, 79, 127
1, 65530, Note_off_c, 12, 59, 127
1, 65532, Note_on_c, 7, 55, 127
1, 65532, Note_on_c, 12, 83, 127
1, 65695, Note_off_c, 12, 83, 127
1, 65695, Note_off_c, 7, 55, 127
1, 65697, Note_on_c, 6, 54, 127
1, 65697, Note_on_c, 10, 81, 127
1, 65860, Note_off_c, 10, 81, 127
1, 65860, Note_off_c, 6, 54, 127
1, 65862, Note_on_c, 4, 52, 127
1, 65862, Note_on_c, 7, 79, 127
1, 66025, Note_off_c, 7, 79, 127
1, 66025, Note_off_c, 4, 52, 127
1, 66027, Note_on_c, 10, 57, 127
1, 66027, Note_on_c, 6, 78, 127
1, 66190, Note_off_c, 6, 78, 127
1, 66190, Note_off_c, 10, 57, 127
1, 66192, Note_on_c, 6, 54, 127
1, 66192, Note_on_c, 4, 76, 127
1, 66355, Note_off_c, 4, 76, 127
1, 66355, Note_off_c, 6, 54, 127
1, 66357, Note_on_c, 10, 57, 127
1, 66357, Note_on_c, 3, 75, 127
1, 66520, Note_off_c, 3, 75, 127
1, 66520, Note_off_c, 10, 57, 127
1, 66522, Note_on_c, 7, 55, 127
1, 66522, Note_on_c, 4, 76, 127
1, 66685, Note_off_c, 4, 76, 127
1, 66685, Note_off_c, 7, 55, 127
1, 66687, Note_on_c, 6, 54, 127
1, 66687, Note_on_c, 6, 78, 127
1, 66850, Note_off_c, 6, 78, 127
1, 66850, Note_off_c, 6, 54, 127
1, 66852, Note_on_c, 4, 52, 127
1, 66852, Note_on_c, 12, 71, 127
1, 67015, Note_off_c, 12, 71, 127
1, 67015, Note_off_c, 4, 52, 127
1, 67017, Note_on_c, 6, 54, 127
1, 67017, Note_on_c, 10, 81, 127
1, 67180, Note_off_c, 6, 54, 127
1, 67182, Note_on_c, 3, 51, 127
1, 67345, Note_off_c, 3, 51, 127
1, 67347, Note_on_c, 4, 52, 127
1, 67510, Note_off_c, 4, 52, 127
1, 67512, Note_on_c, 12, 47, 127
1, 67675, Note_off_c, 12, 47, 127
1, 67675, Note_off_c, 10, 81, 127
1, 67677, Note_on_c, 1, 49, 127
1, 67677, Note_on_c, 7, 79, 127
1, 67840, Note_off_c, 1, 49, 127
1, 67842, Note_on_c, 3, 51, 127
1, 68003, Note_off_c, 7, 79, 127
1, 68005, Note_off_c, 3, 51, 127
1, 68007, Note_on_c, 4, 52, 127
1, 68170, Note_off_c, 4, 52, 127
1, 68172, Note_on_c, 6, 54, 127
1, 68335, Note_off_c, 6, 54, 127
1, 68337, Note_on_c, 7, 55, 127
1, 68337, Note_on_c, 12, 71, 127
1, 68500, Note_off_c, 12, 71, 127
1, 68500, Note_off_c, 7, 55, 127
1, 68502, Note_on_c, 12, 59, 127
1, 68502, Note_on_c, 7, 67, 127
1, 68665, Note_off_c, 7, 67, 127
1, 68665, Note_off_c, 12, 59, 127
1, 68667, Note_on_c, 10, 57, 127
1, 68667, Note_on_c, 6, 66, 127
1, 68830, Note_off_c, 6, 66, 127
1, 68830, Note_off_c, 10, 57, 127
1, 68832, Note_on_c, 7, 55, 127
1, 68832, Note_on_c, 4, 64, 127
1, 68995, Note_off_c, 4, 64, 127
1, 68995, Note_off_c, 7, 55, 127
1, 68997, Note_on_c, 10, 57, 127
1, 68997, Note_on_c, 0, 72, 127
1, 69160, Note_off_c, 10, 57, 127
1, 69162, Note_on_c, 6, 54, 127
1, 69262, Note_off_c, 0, 72, 127
1, 69325, Note_off_c, 6, 54, 127
1, 69327, Note_on_c, 7, 55, 127
1, 69327, Note_on_c, 12, 71, 127
1, 69490, Note_off_c, 7, 55, 127
1, 69492, Note_on_c, 4, 52, 127
1, 69655, Note_off_c, 4, 52, 127
1, 69657, Note_on_c, 6, 54, 127
1, 69820, Note_off_c, 6, 54, 127
1, 69822, Note_on_c, 7, 55, 127
1, 69945, Note_off_c, 12, 71, 127
1, 69984, Note_off_c, 7, 55, 127
1, 69986, Note_on_c, 10, 57, 127
1, 70149, Note_off_c, 10, 57, 127
1, 70151, Note_on_c, 12, 59, 127
1, 70314, Note_off_c, 12, 59, 127
1, 70316, Note_on_c, 1, 61, 127
1, 70316, Note_on_c, 10, 69, 127
1, 70479, Note_off_c, 10, 69, 127
1, 70479, Note_off_c, 1, 61, 127
1, 70481, Note_on_c, 4, 64, 127
1, 70481, Note_on_c, 7, 67, 127
1, 70644, Note_off_c, 7, 67, 127
1, 70644, Note_off_c, 4, 64, 127
1, 70646, Note_on_c, 3, 63, 127
1, 70646, Note_on_c, 6, 66, 127
1, 70809, Note_off_c, 6, 66, 127
1, 70809, Note_off_c, 3, 63, 127
1, 70811, Note_on_c, 1, 61, 127
1, 70811, Note_on_c, 4, 64, 127
1, 70974, Note_off_c, 4, 64, 127
1, 70974, Note_off_c, 1, 61, 127
1, 70976, Note_on_c, 12, 59, 127
1, 70976, Note_on_c, 4, 76, 127
1, 71139, Note_off_c, 12, 59, 127
1, 71141, Note_on_c, 11, 58, 127
1, 71241, Note_off_c, 4, 76, 127
1, 71304, Note_off_c, 11, 58, 127
1, 71306, Note_on_c, 6, 66, 127
1, 71306, Note_on_c, 3, 75, 127
1, 71469, Note_off_c, 6, 66, 127
1, 71471, Note_on_c, 12, 59, 127
1, 71634, Note_off_c, 12, 59, 127
1, 71636, Note_on_c, 1, 61, 127
1, 71799, Note_off_c, 1, 61, 127
1, 71801, Note_on_c, 3, 63, 127
1, 71959, Note_off_c, 3, 75, 127
1, 71964, Note_off_c, 3, 63, 127
1, 71966, Note_on_c, 4, 64, 127
1, 72129, Note_off_c, 4, 64, 127
1, 72131, Note_on_c, 6, 66, 127
1, 72294, Note_off_c, 6, 66, 127
1, 72296, Note_on_c, 7, 67, 127
1, 72296, Note_on_c, 4, 76, 127
1, 72459, Note_off_c, 4, 76, 127
1, 72459, Note_off_c, 7, 67, 127
1, 72461, Note_on_c, 6, 66, 127
1, 72461, Note_on_c, 2, 74, 127
1, 72624, Note_off_c, 2, 74, 127
1, 72624, Note_off_c, 6, 66, 127
1, 72626, Note_on_c, 4, 64, 127
1, 72626, Note_on_c, 1, 73, 127
1, 72789, Note_off_c, 1, 73, 127
1, 72789, Note_off_c, 4, 64, 127
1, 72791, Note_on_c, 2, 62, 127
1, 72791, Note_on_c, 12, 71, 127
1, 72954, Note_off_c, 12, 71, 127
1, 72954, Note_off_c, 2, 62, 127
1, 72956, Note_on_c, 4, 64, 127
1, 72956, Note_on_c, 7, 79, 127
1, 73119, Note_off_c, 7, 79, 127
1, 73119, Note_off_c, 4, 64, 127
1, 73121, Note_on_c, 1, 61, 127
1, 73121, Note_on_c, 4, 76, 127
1, 73284, Note_off_c, 4, 76, 127
1, 73284, Note_off_c, 1, 61, 127
1, 73286, Note_on_c, 2, 62, 127
1, 73286, Note_on_c, 6, 78, 127
1, 73449, Note_off_c, 6, 78, 127
1, 73451, Note_on_c, 2, 74, 127
1, 73614, Note_off_c, 2, 74, 127
1, 73614, Note_off_c, 2, 62, 127
1, 73616, Note_on_c, 2, 50, 127
1, 73616, Note_on_c, 1, 73, 127
1, 73779, Note_off_c, 1, 73, 127
1, 73781, Note_on_c, 12, 71, 127
1, 73944, Note_off_c, 12, 71, 127
1, 73944, Note_off_c, 2, 50, 127
1, 73946, Note_on_c, 7, 55, 127
1, 73946, Note_on_c, 4, 76, 127
1, 74109, Note_off_c, 4, 76, 127
1, 74111, Note_on_c, 1, 73, 127
1, 74274, Note_off_c, 1, 73, 127
1, 74274, Note_off_c, 7, 55, 127
1, 74276, Note_on_c, 4, 52, 127
1, 74276, Note_on_c, 4, 76, 127
1, 74439, Note_off_c, 4, 76, 127
1, 74441, Note_on_c, 2, 74, 127
1, 74604, Note_off_c, 2, 74, 127
1, 74604, Note_off_c, 4, 52, 127
1, 74606, Note_on_c, 6, 54, 127
1, 74606, Note_on_c, 1, 73, 127
1, 74769, Note_off_c, 1, 73, 127
1, 74771, Note_on_c, 12, 71, 127
1, 74934, Note_off_c, 12, 71, 127
1, 74934, Note_off_c, 6, 54, 127
1, 74936, Note_on_c, 6, 42, 127
1, 74936, Note_on_c, 1, 73, 127
1, 75099, Note_off_c, 1, 73, 127
1, 75101, Note_on_c, 11, 70, 127
1, 75264, Note_off_c, 11, 70, 127
1, 75264, Note_off_c, 6, 42, 127
1, 75266, Note_on_c, 12, 47, 127
1, 75266, Note_on_c, 12, 71, 127
1, 75429, Note_off_c, 12, 47, 127
1, 75431, Note_on_c, 6, 54, 127
1, 75594, Note_off_c, 6, 54, 127
1, 75596, Note_on_c, 8, 56, 127
1, 75759, Note_off_c, 8, 56, 127
1, 75761, Note_on_c, 11, 58, 127
1, 75924, Note_off_c, 11, 58, 127
1, 75926, Note_on_c, 12, 59, 127
1, 76089, Note_off_c, 12, 59, 127
1, 76091, Note_on_c, 1, 61, 127
1, 76254, Note_off_c, 1, 61, 127
1, 76256, Note_on_c, 2, 62, 127
1, 76419, Note_off_c, 2, 62, 127
1, 76419, Note_off_c, 12, 71, 127
1, 76421, Note_on_c, 1, 61, 127
1, 76421, Note_on_c, 11, 70, 127
1, 76584, Note_off_c, 11, 70, 127
1, 76584, Note_off_c, 1, 61, 127
1, 76586, Note_on_c, 2, 62, 127
1, 76586, Note_on_c, 12, 71, 127
1, 76749, Note_off_c, 12, 71, 127
1, 76749, Note_off_c, 2, 62, 127
1, 76751, Note_on_c, 12, 59, 127
1, 76751, Note_on_c, 2, 74, 127
1, 76914, Note_off_c, 2, 74, 127
1, 76914, Note_off_c, 12, 59, 127
1, 76916, Note_on_c, 11, 58, 127
1, 76916, Note_on_c, 1, 73, 127
1, 77079, Note_off_c, 1, 73, 127
1, 77079, Note_off_c, 11, 58, 127
1, 77081, Note_on_c, 12, 59, 127
1, 77081, Note_on_c, 4, 76, 127
1, 77244, Note_off_c, 4, 76, 127
1, 77244, Note_off_c, 12, 59, 127
1, 77246, Note_on_c, 6, 54, 127
1, 77246, Note_on_c, 2, 74, 127
1, 77409, Note_off_c, 6, 54, 127
1, 77411, Note_on_c, 12, 59, 127
1, 77574, Note_off_c, 12, 59, 127
1, 77574, Note_off_c, 2, 74, 127
1, 77576, Note_on_c, 2, 62, 127
1, 77576, Note_on_c, 12, 71, 127
1, 77739, Note_off_c, 2, 62, 127
1, 77741, Note_on_c, 12, 59, 127
1, 77904, Note_off_c, 12, 59, 127
1, 77904, Note_off_c, 12, 71, 127
1, 77906, Note_on_c, 11, 58, 127
1, 77906, Note_on_c, 2, 74, 127
1, 77987, Note_off_c, 2, 74, 127
1, 77989, Note_on_c, 1, 73, 127
1, 78070, Note_off_c, 1, 73, 127
1, 78070, Note_off_c, 11, 58, 127
1, 78072, Note_on_c, 12, 59, 127
1, 78072, Note_on_c, 12, 71, 127
1, 78153, Note_off_c, 12, 71, 127
1, 78155, Note_on_c, 1, 73, 127
1, 78236, Note_off_c, 1, 73, 127
1, 78236, Note_off_c, 12, 59, 127
1, 78238, Note_on_c, 5, 53, 127
1, 78238, Note_on_c, 2, 74, 127
1, 78401, Note_off_c, 5, 53, 127
1, 78403, Note_on_c, 12, 59, 127
1, 78566, Note_off_c, 12, 59, 127
1, 78566, Note_off_c, 2, 74, 127
1, 78568, Note_on_c, 2, 62, 127
1, 78568, Note_on_c, 8, 80, 127
1, 78731, Note_off_c, 2, 62, 127
1, 78733, Note_on_c, 12, 59, 127
1, 78896, Note_off_c, 12, 59, 127
1, 78896, Note_off_c, 8, 80, 127
1, 78898, Note_on_c, 10, 57, 127
1, 78898, Note_on_c, 12, 83, 127
1, 79061, Note_off_c, 10, 57, 127
1, 79063, Note_on_c, 12, 59, 127
1, 79226, Note_off_c, 12, 59, 127
1, 79226, Note_off_c, 12, 83, 127
1, 79228, Note_on_c, 4, 52, 127
1, 79228, Note_on_c, 2, 74, 127
1, 79391, Note_off_c, 4, 52, 127
1, 79393, Note_on_c, 12, 59, 127
1, 79556, Note_off_c, 12, 59, 127
1, 79558, Note_on_c, 4, 64, 127
1, 79721, Note_off_c, 4, 64, 127
1, 79723, Note_on_c, 2, 62, 127
1, 79886, Note_off_c, 2, 62, 127
1, 79888, Note_on_c, 0, 60, 127
1, 80051, Note_off_c, 0, 60, 127
1, 80053, Note_on_c, 12, 59, 127
1, 80216, Note_off_c, 12, 59, 127
1, 80216, Note_off_c, 2, 74, 127
1, 80218, Note_on_c, 10, 57, 127
1, 80381, Note_off_c, 10, 57, 127
1, 80383, Note_on_c, 12, 59, 127
1, 80383, Note_on_c, 8, 68, 127
1, 80546, Note_off_c, 8, 68, 127
1, 80546, Note_off_c, 12, 59, 127
1, 80548, Note_on_c, 0, 60, 127
1, 80548, Note_on_c, 10, 69, 127
1, 80711, Note_off_c, 10, 69, 127
1, 80711, Note_off_c, 0, 60, 127
1, 80713, Note_on_c, 10, 57, 127
1, 80713, Note_on_c, 0, 72, 127
1, 80876, Note_off_c, 0, 72, 127
1, 80876, Note_off_c, 10, 57, 127
1, 80878, Note_on_c, 8, 56, 127
1, 80878, Note_on_c, 12, 71, 127
1, 81041, Note_off_c, 12, 71, 127
1, 81041, Note_off_c, 8, 56, 127
1, 81043, Note_on_c, 10, 57, 127
1, 81043, Note_on_c, 2, 74, 127
1, 81206, Note_off_c, 2, 74, 127
1, 81206, Note_off_c, 10, 57, 127
1, 81208, Note_on_c, 4, 52, 127
1, 81208, Note_on_c, 0, 72, 127
1, 81371, Note_off_c, 4, 52, 127
1, 81373, Note_on_c, 10, 57, 127
1, 81536, Note_off_c, 10, 57, 127
1, 81536, Note_off_c, 0, 72, 127
1, 81538, Note_on_c, 0, 60, 127
1, 81538, Note_on_c, 10, 69, 127
1, 81701, Note_off_c, 0, 60, 127
1, 81703, Note_on_c, 10, 57, 127
1, 81866, Note_off_c, 10, 57, 127
1, 81866, Note_off_c, 10, 69, 127
1, 81868, Note_on_c, 8, 56, 127
1, 81868, Note_on_c, 0, 72, 127
1, 81949, Note_off_c, 0, 72, 127
1, 81951, Note_on_c, 12, 71, 127
1, 82032, Note_off_c, 12, 71, 127
1, 82032, Note_off_c, 8, 56, 127
1, 82034, Note_on_c, 10, 57, 127
1, 82034, Note_on_c, 10, 69, 127
1, 82115, Note_off_c, 10, 69, 127
1, 82117, Note_on_c, 12, 71, 127
1, 82198, Note_off_c, 12, 71, 127
1, 82198, Note_off_c, 10, 57, 127
1, 82200, Note_on_c, 3, 51, 127
1, 82200, Note_on_c, 0, 72, 127
1, 82363, Note_off_c, 3, 51, 127
1, 82365, Note_on_c, 10, 57, 127
1, 82528, Note_off_c, 10, 57, 127
1, 82528, Note_off_c, 0, 72, 127
1, 82530, Note_on_c, 0, 60, 127
1, 82530, Note_on_c, 6, 78, 127
1, 82693, Note_off_c, 0, 60, 127
1, 82695, Note_on_c, 10, 57, 127
1, 82858, Note_off_c, 10, 57, 127
1, 82858, Note_off_c, 6, 78, 127
1, 82860, Note_on_c, 7, 55, 127
1, 82860, Note_on_c, 10, 81, 127
1, 83023, Note_off_c, 7, 55, 127
1, 83025, Note_on_c, 10, 57, 127
1, 83188, Note_off_c, 10, 57, 127
1, 83188, Note_off_c, 10, 81, 127
1, 83190, Note_on_c, 2, 50, 127
1, 83190, Note_on_c, 0, 72, 127
1, 83353, Note_off_c, 2, 50, 127
1, 83355, Note_on_c, 10, 57, 127
1, 83518, Note_off_c, 10, 57, 127
1, 83520, Note_on_c, 2, 62, 127
1, 83683, Note_off_c, 2, 62, 127
1, 83685, Note_on_c, 0, 60, 127
1, 83848, Note_off_c, 0, 60, 127
1, 83850, Note_on_c, 12, 59, 127
1, 84013, Note_off_c, 12, 59, 127
1, 84015, Note_on_c, 10, 57, 127
1, 84178, Note_off_c, 10, 57, 127
1, 84180, Note_on_c, 7, 55, 127
1, 84343, Note_off_c, 0, 72, 127
1, 84345, Note_on_c, 10, 69, 127
1, 84508, Note_off_c, 10, 69, 127
1, 84508, Note_off_c, 7, 55, 127
1, 84510, Note_on_c, 7, 43, 127
1, 84510, Note_on_c, 12, 71, 127
1, 84673, Note_off_c, 12, 71, 127
1, 84675, Note_on_c, 7, 67, 127
1, 84838, Note_off_c, 7, 67, 127
1, 84838, Note_off_c, 7, 43, 127
1, 84840, Note_on_c, 12, 47, 127
1, 84840, Note_on_c, 6, 66, 127
1, 85003, Note_off_c, 6, 66, 127
1, 85005, Note_on_c, 7, 67, 127
1, 85168, Note_off_c, 7, 67, 127
1, 85168, Note_off_c, 12, 47, 127
1, 85170, Note_on_c, 0, 48, 127
1, 85170, Note_on_c, 4, 64, 127
1, 85333, Note_off_c, 4, 64, 127
1, 85335, Note_on_c, 12, 71, 127
1, 85498, Note_off_c, 12, 71, 127
1, 85498, Note_off_c, 0, 48, 127
1, 85500, Note_on_c, 10, 45, 127
1, 85500, Note_on_c, 0, 72, 127
1, 85663, Note_off_c, 0, 72, 127
1, 85665, Note_on_c, 10, 69, 127
1, 85828, Note_off_c, 10, 69, 127
1, 85828, Note_off_c, 10, 45, 127
1, 85830, Note_on_c, 0, 48, 127
1, 85830, Note_on_c, 7, 67, 127
1, 85993, Note_off_c, 7, 67, 127
1, 85995, Note_on_c, 10, 69, 127
1, 86158, Note_off_c, 10, 69, 127
1, 86158, Note_off_c, 0, 48, 127
1, 86160, Note_on_c, 2, 50, 127
1, 86160, Note_on_c, 6, 66, 127
1, 86323, Note_off_c, 6, 66, 127
1, 86325, Note_on_c, 0, 72, 127
1, 86488, Note_off_c, 0, 72, 127
1, 86488, Note_off_c, 2, 50, 127
1, 86490, Note_on_c, 12, 47, 127
1, 86490, Note_on_c, 2, 74, 127
1, 86653, Note_off_c, 2, 74, 127
1, 86655, Note_on_c, 12, 71, 127
1, 86818, Note_off_c, 12, 71, 127
1, 86818, Note_off_c, 12, 47, 127
1, 86820, Note_on_c, 2, 50, 127
1, 86820, Note_on_c, 10, 69, 127
1, 86983, Note_off_c, 10, 69, 127
1, 86985, Note_on_c, 12, 71, 127
1, 87148, Note_off_c, 12, 71, 127
1, 87148, Note_off_c, 2, 50, 127
1, 87150, Note_on_c, 4, 52, 127
1, 87150, Note_on_c, 7, 67, 127
1, 87313, Note_off_c, 7, 67, 127
1, 87315, Note_on_c, 2, 74, 127
1, 87478, Note_off_c, 2, 74, 127
1, 87478, Note_off_c, 4, 52, 127
1, 87480, Note_on_c, 0, 48, 127
1, 87480, Note_on_c, 4, 76, 127
1, 87643, Note_off_c, 4, 76, 127
1, 87645, Note_on_c, 0, 72, 127
1, 87808, Note_off_c, 0, 72, 127
1, 87808, Note_off_c, 0, 48, 127
1, 87810, Note_on_c, 4, 52, 127
1, 87810, Note_on_c, 12, 71, 127
1, 87973, Note_off_c, 12, 71, 127
1, 87975, Note_on_c, 0, 72, 127
1, 88138, Note_off_c, 0, 72, 127
1, 88138, Note_off_c, 4, 52, 127
1, 88140, Note_on_c, 5, 53, 127
1, 88140, Note_on_c, 10, 69, 127
1, 88303, Note_off_c, 10, 69, 127
1, 88305, Note_on_c, 4, 76, 127
1, 88468, Note_off_c, 4, 76, 127
1, 88468, Note_off_c, 5, 53, 127
1, 88470, Note_on_c, 10, 45, 127
1, 88470, Note_on_c, 5, 77, 127
1, 88633, Note_off_c, 5, 77, 127
1, 88635, Note_on_c, 2, 74, 127
1, 88766, Note_off_c, 10, 45, 127
1, 88798, Note_off_c, 2, 74, 127
1, 88800, Note_on_c, 5, 53, 127
1, 88800, Note_on_c, 0, 72, 127
1, 88963, Note_off_c, 0, 72, 127
1, 88965, Note_on_c, 2, 74, 127
1, 89128, Note_off_c, 2, 74, 127
1, 89130, Note_on_c, 12, 71, 127
1, 89293, Note_off_c, 5, 53, 127
1, 89295, Note_on_c, 4, 52, 127
1, 89378, Note_off_c, 12, 71, 127
1, 89458, Note_off_c, 4, 52, 127
1, 89460, Note_on_c, 5, 53, 127
1, 89460, Note_on_c, 7, 79, 127
1, 89623, Note_off_c, 5, 53, 127
1, 89625, Note_on_c, 12, 47, 127
1, 89788, Note_off_c, 12, 47, 127
1, 89790, Note_on_c, 10, 45, 127
1, 89953, Note_off_c, 10, 45, 127
1, 89955, Note_on_c, 12, 47, 127
1, 90118, Note_off_c, 12, 47, 127
1, 90120, Note_on_c, 4, 52, 127
1, 90283, Note_off_c, 7, 79, 127
1, 90285, Note_on_c, 0, 72, 127
1, 90448, Note_off_c, 0, 72, 127
1, 90448, Note_off_c, 4, 52, 127
1, 90450, Note_on_c, 10, 57, 127
1, 90450, Note_on_c, 5, 77, 127
1, 90613, Note_off_c, 5, 77, 127
1, 90615, Note_on_c, 4, 76, 127
1, 90778, Note_off_c, 4, 76, 127
1, 90778, Note_off_c, 10, 57, 127
1, 90780, Note_on_c, 5, 53, 127
1, 90780, Note_on_c, 2, 74, 127
1, 90943, Note_off_c, 2, 74, 127
1, 90945, Note_on_c, 0, 72, 127
1, 91108, Note_off_c, 0, 72, 127
1, 91108, Note_off_c, 5, 53, 127
1, 91110, Note_on_c, 7, 55, 127
1, 91110, Note_on_c, 12, 71, 127
1, 91273, Note_off_c, 12, 71, 127
1, 91275, Note_on_c, 0, 72, 127
1, 91438, Note_off_c, 0, 72, 127
1, 91438, Note_off_c, 7, 55, 127
1, 91440, Note_on_c, 7, 43, 127
1, 91440, Note_on_c, 12, 71, 127
1, 91603, Note_off_c, 12, 71, 127
1, 91605, Note_on_c, 10, 69, 127
1, 91768, Note_off_c, 10, 69, 127
1, 91770, Note_on_c, 7, 67, 127
1, 91921, Note_off_c, 7, 43, 127
1, 91933, Note_off_c, 7, 67, 127
1, 91935, Note_on_c, 5, 65, 127
1, 92098, Note_off_c, 5, 65, 127
1, 92100, Note_on_c, 0, 48, 127
1, 92100, Note_on_c, 4, 64, 127
1, 92263, Note_off_c, 4, 64, 127
1, 92263, Note_off_c, 0, 48, 127
1, 92265, Note_on_c, 12, 47, 127
1, 92265, Note_on_c, 7, 67, 127
1, 92428, Note_off_c, 7, 67, 127
1, 92428, Note_off_c, 12, 47, 127
1, 92430, Note_on_c, 10, 45, 127
1, 92430, Note_on_c, 5, 65, 127
1, 92593, Note_off_c, 5, 65, 127
1, 92593, Note_off_c, 10, 45, 127
1, 92595, Note_on_c, 7, 43, 127
1, 92595, Note_on_c, 4, 64, 127
1, 92758, Note_off_c, 4, 64, 127
1, 92758, Note_off_c, 7, 43, 127
1, 92760, Note_on_c, 4, 52, 127
1, 92760, Note_on_c, 2, 62, 127
1, 92923, Note_off_c, 2, 62, 127
1, 92925, Note_on_c, 0, 60, 127
1, 93050, Note_off_c, 4, 52, 127
1, 93087, Note_off_c, 0, 60, 127
1, 93089, Note_on_c, 2, 50, 127
1, 93089, Note_on_c, 12, 59, 127
1, 93252, Note_off_c, 12, 59, 127
1, 93254, Note_on_c, 0, 60, 127
1, 93417, Note_off_c, 0, 60, 127
1, 93419, Note_on_c, 2, 62, 127
1, 93570, Note_off_c, 2, 50, 127
1, 93582, Note_off_c, 2, 62, 127
1, 93584, Note_on_c, 4, 64, 127
1, 93747, Note_off_c, 4, 64, 127
1, 93749, Note_on_c, 5, 65, 127
1, 93912, Note_off_c, 5, 65, 127
1, 93914, Note_on_c, 7, 67, 127
1, 94077, Note_off_c, 7, 67, 127
1, 94079, Note_on_c, 0, 48, 127
1, 94079, Note_on_c, 10, 69, 127
1, 94242, Note_off_c, 10, 69, 127
1, 94242, Note_off_c, 0, 48, 127
1, 94244, Note_on_c, 12, 47, 127
1, 94244, Note_on_c, 2, 74, 127
1, 94407, Note_off_c, 2, 74, 127
1, 94407, Note_off_c, 12, 47, 127
1, 94409, Note_on_c, 10, 45, 127
1, 94409, Note_on_c, 0, 72, 127
1, 94572, Note_off_c, 0, 72, 127
1, 94572, Note_off_c, 10, 45, 127
1, 94574, Note_on_c, 7, 43, 127
1, 94574, Note_on_c, 12, 71, 127
1, 94737, Note_off_c, 12, 71, 127
1, 94737, Note_off_c, 7, 43, 127
1, 94739, Note_on_c, 5, 53, 127
1, 94739, Note_on_c, 10, 69, 127
1, 94902, Note_off_c, 10, 69, 127
1, 94904, Note_on_c, 7, 67, 127
1, 95029, Note_off_c, 5, 53, 127
1, 95066, Note_off_c, 7, 67, 127
1, 95068, Note_on_c, 4, 52, 127
1, 95068, Note_on_c, 0, 72, 127
1, 95231, Note_off_c, 0, 72, 127
1, 95233, Note_on_c, 7, 67, 127
1, 95396, Note_off_c, 7, 67, 127
1, 95398, Note_on_c, 10, 69, 127
1, 95549, Note_off_c, 4, 52, 127
1, 95561, Note_off_c, 10, 69, 127
1, 95563, Note_on_c, 12, 71, 127
1, 95726, Note_off_c, 12, 71, 127
1, 95728, Note_on_c, 0, 72, 127
1, 95891, Note_off_c, 0, 72, 127
1, 95893, Note_on_c, 2, 74, 127
1, 96056, Note_off_c, 2, 74, 127
1, 96058, Note_on_c, 7, 55, 127
1, 96058, Note_on_c, 4, 76, 127
1, 96221, Note_off_c, 4, 76, 127
1, 96221, Note_off_c, 7, 55, 127
1, 96223, Note_on_c, 4, 52, 127
1, 96223, Note_on_c, 7, 79, 127
1, 96386, Note_off_c, 7, 79, 127
1, 96386, Note_off_c, 4, 52, 127
1, 96388, Note_on_c, 2, 50, 127
1, 96388, Note_on_c, 5, 77, 127
1, 96551, Note_off_c, 5, 77, 127
1, 96551, Note_off_c, 2, 50, 127
1, 96553, Note_on_c, 0, 48, 127
1, 96553, Note_on_c, 4, 76, 127
1, 96716, Note_off_c, 4, 76, 127
1, 96716, Note_off_c, 0, 48, 127
1, 96718, Note_on_c, 10, 57, 127
1, 96718, Note_on_c, 5, 77, 127
1, 96881, Note_off_c, 5, 77, 127
1, 96881, Note_off_c, 10, 57, 127
1, 96883, Note_on_c, 5, 53, 127
1, 96883, Note_on_c, 2, 74, 127
1, 97046, Note_off_c, 2, 74, 127
1, 97046, Note_off_c, 5, 53, 127
1, 97048, Note_on_c, 7, 55, 127
1, 97048, Note_on_c, 4, 76, 127
1, 97211, Note_off_c, 4, 76, 127
1, 97211, Note_off_c, 7, 55, 127
1, 97213, Note_on_c, 4, 52, 127
1, 97213, Note_on_c, 0, 84, 127
1, 97376, Note_off_c, 0, 84, 127
1, 97376, Note_off_c, 4, 52, 127
1, 97378, Note_on_c, 2, 50, 127
1, 97378, Note_on_c, 12, 83, 127
1, 97541, Note_off_c, 12, 83, 127
1, 97541, Note_off_c, 2, 50, 127
1, 97543, Note_on_c, 0, 48, 127
1, 97543, Note_on_c, 0, 84, 127
1, 97706, Note_off_c, 0, 84, 127
1, 97706, Note_off_c, 0, 48, 127
1, 97708, Note_on_c, 5, 53, 127
1, 97708, Note_on_c, 10, 81, 127
1, 97871, Note_off_c, 10, 81, 127
1, 97871, Note_off_c, 5, 53, 127
1, 97873, Note_on_c, 2, 50, 127
1, 97873, Note_on_c, 5, 77, 127
1, 98036, Note_off_c, 5, 77, 127
1, 98036, Note_off_c, 2, 50, 127
1, 98038, Note_on_c, 5, 53, 127
1, 98038, Note_on_c, 7, 79, 127
1, 98201, Note_off_c, 7, 79, 127
1, 98201, Note_off_c, 5, 53, 127
1, 98203, Note_on_c, 4, 52, 127
1, 98203, Note_on_c, 0, 72, 127
1, 98366, Note_off_c, 0, 72, 127
1, 98366, Note_off_c, 4, 52, 127
1, 98368, Note_on_c, 2, 50, 127
1, 98368, Note_on_c, 12, 71, 127
1, 98531, Note_off_c, 12, 71, 127
1, 98531, Note_off_c, 2, 50, 127
1, 98533, Note_on_c, 0, 48, 127
1, 98533, Note_on_c, 0, 72, 127
1, 98696, Note_off_c, 0, 72, 127
1, 98696, Note_off_c, 0, 48, 127
1, 98698, Note_on_c, 2, 50, 127
1, 98698, Note_on_c, 5, 77, 127
1, 98861, Note_off_c, 2, 50, 127
1, 98863, Note_on_c, 12, 47, 127
1, 99026, Note_off_c, 12, 47, 127
1, 99028, Note_on_c, 0, 48, 127
1, 99191, Note_off_c, 5, 77, 127
1, 99193, Note_on_c, 2, 74, 127
1, 99356, Note_off_c, 2, 74, 127
1, 99356, Note_off_c, 0, 48, 127
1, 99358, Note_on_c, 0, 60, 127
1, 99358, Note_on_c, 4, 76, 127
1, 99521, Note_off_c, 4, 76, 127
1, 99523, Note_on_c, 0, 72, 127
1, 99686, Note_off_c, 0, 72, 127
1, 99686, Note_off_c, 0, 60, 127
1, 99688, Note_on_c, 7, 55, 127
1, 99688, Note_on_c, 12, 71, 127
1, 99851, Note_off_c, 12, 71, 127
1, 99853, Note_on_c, 0, 72, 127
1, 100016, Note_off_c, 0, 72, 127
1, 100016, Note_off_c, 7, 55, 127
1, 100018, Note_on_c, 10, 57, 127
1, 100018, Note_on_c, 6, 78, 127
1, 100181, Note_off_c, 10, 57, 127
1, 100183, Note_on_c, 12, 59, 127
1, 100326, Note_off_c, 6, 78, 127
1, 100346, Note_off_c, 12, 59, 127
1, 100348, Note_on_c, 0, 60, 127
1, 100348, Note_on_c, 10, 81, 127
1, 100511, Note_off_c, 0, 60, 127
1, 100513, Note_on_c, 10, 57, 127
1, 100656, Note_off_c, 10, 81, 127
1, 100676, Note_off_c, 10, 57, 127
1, 100678, Note_on_c, 7, 55, 127
1, 100678, Note_on_c, 0, 84, 127
1, 100841, Note_off_c, 7, 55, 127
1, 100843, Note_on_c, 6, 54, 127
1, 101006, Note_off_c, 6, 54, 127
1, 101008, Note_on_c, 12, 59, 127
1, 101171, Note_off_c, 0, 84, 127
1, 101173, Note_on_c, 0, 72, 127
1, 101336, Note_off_c, 0, 72, 127
1, 101336, Note_off_c, 12, 59, 127
1, 101338, Note_on_c, 12, 47, 127
1, 101338, Note_on_c, 2, 74, 127
1, 101501, Note_off_c, 2, 74, 127
1, 101503, Note_on_c, 12, 71, 127
1, 101666, Note_off_c, 12, 71, 127
1, 101666, Note_off_c, 12, 47, 127
1, 101668, Note_on_c, 6, 54, 127
1, 101668, Note_on_c, 10, 69, 127
1, 101831, Note_off_c, 10, 69, 127
1, 101833, Note_on_c, 12, 71, 127
1, 101996, Note_off_c, 12, 71, 127
1, 101996, Note_off_c, 6, 54, 127
1, 101998, Note_on_c, 8, 56, 127
1, 101998, Note_on_c, 4, 64, 127
1, 102161, Note_off_c, 8, 56, 127
1, 102163, Note_on_c, 10, 57, 127
1, 102297, Note_off_c, 4, 64, 127
1, 102326, Note_off_c, 10, 57, 127
1, 102328, Note_on_c, 12, 59, 127
1, 102328, Note_on_c, 2, 74, 127
1, 102491, Note_off_c, 12, 59, 127
1, 102493, Note_on_c, 8, 56, 127
1, 102656, Note_off_c, 8, 56, 127
1, 102658, Note_on_c, 6, 54, 127
1, 102821, Note_off_c, 6, 54, 127
1, 102823, Note_on_c, 4, 52, 127
1, 102986, Note_off_c, 4, 52, 127
1, 102988, Note_on_c, 10, 45, 127
1, 103151, Note_off_c, 2, 74, 127
1, 103153, Note_on_c, 12, 71, 127
1, 103316, Note_off_c, 12, 71, 127
1, 103316, Note_off_c, 10, 45, 127
1, 103318, Note_on_c, 10, 57, 127
1, 103318, Note_on_c, 0, 72, 127
1, 103481, Note_off_c, 0, 72, 127
1, 103483, Note_on_c, 10, 69, 127
1, 103646, Note_off_c, 10, 69, 127
1, 103646, Note_off_c, 10, 57, 127
1, 103648, Note_on_c, 12, 59, 127
1, 103648, Note_on_c, 8, 68, 127
1, 103811, Note_off_c, 8, 68, 127
1, 103813, Note_on_c, 10, 69, 127
1, 103976, Note_off_c, 10, 69, 127
1, 103976, Note_off_c, 12, 59, 127
1, 103978, Note_on_c, 0, 60, 127
1, 103978, Note_on_c, 4, 76, 127
1, 104141, Note_off_c, 4, 76, 127
1, 104143, Note_on_c, 12, 71, 127
1, 104306, Note_off_c, 12, 71, 127
1, 104306, Note_off_c, 0, 60, 127
1, 104308, Note_on_c, 10, 57, 127
1, 104308, Note_on_c, 0, 72, 127
1, 104471, Note_off_c, 0, 72, 127
1, 104473, Note_on_c, 10, 69, 127
1, 104636, Note_off_c, 10, 69, 127
1, 104636, Note_off_c, 10, 57, 127
1, 104638, Note_on_c, 0, 60, 127
1, 104638, Note_on_c, 8, 68, 127
1, 104801, Note_off_c, 8, 68, 127
1, 104803, Note_on_c, 10, 69, 127
1, 104966, Note_off_c, 10, 69, 127
1, 104966, Note_off_c, 0, 60, 127
1, 104968, Note_on_c, 2, 62, 127
1, 104968, Note_on_c, 6, 78, 127
1, 105131, Note_off_c, 6, 78, 127
1, 105133, Note_on_c, 0, 72, 127
1, 105296, Note_off_c, 0, 72, 127
1, 105296, Note_off_c, 2, 62, 127
1, 105298, Note_on_c, 12, 59, 127
1, 105298, Note_on_c, 2, 74, 127
1, 105461, Note_off_c, 2, 74, 127
1, 105463, Note_on_c, 12, 71, 127
1, 105626, Note_off_c, 12, 71, 127
1, 105626, Note_off_c, 12, 59, 127
1, 105628, Note_on_c, 2, 62, 127
1, 105628, Note_on_c, 10, 69, 127
1, 105791, Note_off_c, 10, 69, 127
1, 105793, Note_on_c, 12, 71, 127
1, 105956, Note_off_c, 12, 71, 127
1, 105956, Note_off_c, 2, 62, 127
1, 105958, Note_on_c, 4, 64, 127
1, 105958, Note_on_c, 7, 79, 127
1, 106121, Note_off_c, 7, 79, 127
1, 106123, Note_on_c, 2, 74, 127
1, 106286, Note_off_c, 2, 74, 127
1, 106286, Note_off_c, 4, 64, 127
1, 106288, Note_on_c, 0, 60, 127
1, 106288, Note_on_c, 4, 76, 127
1, 106451, Note_off_c, 4, 76, 127
1, 106453, Note_on_c, 0, 72, 127
1, 106616, Note_off_c, 0, 72, 127
1, 106616, Note_off_c, 0, 60, 127
1, 106618, Note_on_c, 10, 57, 127
1, 106618, Note_on_c, 12, 71, 127
1, 106781, Note_off_c, 12, 71, 127
1, 106783, Note_on_c, 0, 72, 127
1, 106946, Note_off_c, 0, 72, 127
1, 106946, Note_off_c, 10, 57, 127
1, 106948, Note_on_c, 6, 54, 127
1, 106948, Note_on_c, 10, 81, 127
1, 107111, Note_off_c, 10, 81, 127
1, 107113, Note_on_c, 7, 79, 127
1, 107276, Note_off_c, 7, 79, 127
1, 107276, Note_off_c, 6, 54, 127
1, 107278, Note_on_c, 2, 50, 127
1, 107278, Note_on_c, 6, 78, 127
1, 107441, Note_off_c, 6, 78, 127
1, 107443, Note_on_c, 4, 76, 127
1, 107604, Note_off_c, 2, 50, 127
1, 107606, Note_off_c, 4, 76, 127
1, 107608, Note_on_c, 2, 74, 127
1, 107771, Note_off_c, 2, 74, 127
1, 107773, Note_on_c, 0, 72, 127
1, 107936, Note_off_c, 0, 72, 127
1, 107938, Note_on_c, 7, 55, 127
1, 107938, Note_on_c, 12, 71, 127
1, 108101, Note_off_c, 12, 71, 127
1, 108101, Note_off_c, 7, 55, 127
1, 108103, Note_on_c, 6, 54, 127
1, 108103, Note_on_c, 2, 74, 127
1, 108266, Note_off_c, 2, 74, 127
1, 108266, Note_off_c, 6, 54, 127
1, 108268, Note_on_c, 4, 52, 127
1, 108268, Note_on_c, 0, 72, 127
1, 108431, Note_off_c, 0, 72, 127
1, 108431, Note_off_c, 4, 52, 127
1, 108433, Note_on_c, 2, 50, 127
1, 108433, Note_on_c, 12, 71, 127
1, 108596, Note_off_c, 12, 71, 127
1, 108596, Note_off_c, 2, 50, 127
1, 108598, Note_on_c, 12, 59, 127
1, 108598, Note_on_c, 10, 69, 127
1, 108761, Note_off_c, 10, 69, 127
1, 108763, Note_on_c, 7, 67, 127
1, 108888, Note_off_c, 12, 59, 127
1, 108925, Note_off_c, 7, 67, 127
1, 108927, Note_on_c, 10, 57, 127
1, 108927, Note_on_c, 6, 66, 127
1, 109090, Note_off_c, 6, 66, 127
1, 109092, Note_on_c, 4, 76, 127
1, 109255, Note_off_c, 4, 76, 127
1, 109257, Note_on_c, 2, 74, 127
1, 109408, Note_off_c, 10, 57, 127
1, 109420, Note_off_c, 2, 74, 127
1, 109422, Note_on_c, 0, 72, 127
1, 109585, Note_off_c, 0, 72, 127
1, 109587, Note_on_c, 12, 71, 127
1, 109750, Note_off_c, 12, 71, 127
1, 109752, Note_on_c, 10, 69, 127
1, 109915, Note_off_c, 10, 69, 127
1, 109917, Note_on_c, 12, 59, 127
1, 109917, Note_on_c, 7, 67, 127
1, 110080, Note_off_c, 7, 67, 127
1, 110080, Note_off_c, 12, 59, 127
1, 110082, Note_on_c, 2, 62, 127
1, 110082, Note_on_c, 6, 66, 127
1, 110245, Note_off_c, 6, 66, 127
1, 110245, Note_off_c, 2, 62, 127
1, 110247, Note_on_c, 0, 60, 127
1, 110247, Note_on_c, 4, 64, 127
1, 110410, Note_off_c, 4, 64, 127
1, 110410, Note_off_c, 0, 60, 127
1, 110412, Note_on_c, 12, 59, 127
1, 110412, Note_on_c, 2, 62, 127
1, 110575, Note_off_c, 2, 62, 127
1, 110575, Note_off_c, 12, 59, 127
1, 110577, Note_on_c, 10, 57, 127
1, 110577, Note_on_c, 12, 71, 127
1, 110740, Note_off_c, 10, 57, 127
1, 110742, Note_on_c, 7, 55, 127
1, 110850, Note_off_c, 12, 71, 127
1, 110905, Note_off_c, 7, 55, 127
1, 110907, Note_on_c, 6, 54, 127
1, 110907, Note_on_c, 10, 69, 127
1, 111070, Note_off_c, 6, 54, 127
1, 111072, Note_on_c, 4, 64, 127
1, 111235, Note_off_c, 4, 64, 127
1, 111237, Note_on_c, 2, 62, 127
1, 111388, Note_off_c, 10, 69, 127
1, 111400, Note_off_c, 2, 62, 127
1, 111402, Note_on_c, 0, 60, 127
1, 111565, Note_off_c, 0, 60, 127
1, 111567, Note_on_c, 12, 59, 127
1, 111730, Note_off_c, 12, 59, 127
1, 111732, Note_on_c, 10, 57, 127
1, 111895, Note_off_c, 10, 57, 127
1, 111897, Note_on_c, 7, 55, 127
1, 112060, Note_off_c, 7, 55, 127
1, 112062, Note_on_c, 6, 54, 127
1, 112062, Note_on_c, 10, 57, 127
1, 112225, Note_off_c, 10, 57, 127
1, 112225, Note_off_c, 6, 54, 127
1, 112227, Note_on_c, 4, 52, 127
1, 112227, Note_on_c, 12, 59, 127
1, 112390, Note_off_c, 12, 59, 127
1, 112390, Note_off_c, 4, 52, 127
1, 112392, Note_on_c, 2, 50, 127
1, 112392, Note_on_c, 0, 60, 127
1, 112555, Note_off_c, 0, 60, 127
1, 112555, Note_off_c, 2, 50, 127
1, 112557, Note_on_c, 0, 60, 127
1, 112557, Note_on_c, 2, 62, 127
1, 112720, Note_off_c, 2, 62, 127
1, 112722, Note_on_c, 4, 64, 127
1, 112822, Note_off_c, 0, 60, 127
1, 112885, Note_off_c, 4, 64, 127
1, 112887, Note_on_c, 12, 59, 127
1, 112887, Note_on_c, 6, 66, 127
1, 113050, Note_off_c, 6, 66, 127
1, 113052, Note_on_c, 7, 67, 127
1, 113215, Note_off_c, 7, 67, 127
1, 113217, Note_on_c, 10, 69, 127
1, 113368, Note_off_c, 12, 59, 127
1, 113380, Note_off_c, 10, 69, 127
1, 113382, Note_on_c, 12, 71, 127
1, 113545, Note_off_c, 12, 71, 127
1, 113547, Note_on_c, 0, 72, 127
1, 113710, Note_off_c, 0, 72, 127
1, 113712, Note_on_c, 2, 74, 127
1, 113875, Note_off_c, 2, 74, 127
1, 113877, Note_on_c, 7, 67, 127
1, 114040, Note_off_c, 7, 67, 127
1, 114042, Note_on_c, 12, 47, 127
1, 114042, Note_on_c, 6, 66, 127
1, 114205, Note_off_c, 6, 66, 127
1, 114205, Note_off_c, 12, 47, 127
1, 114207, Note_on_c, 0, 48, 127
1, 114207, Note_on_c, 4, 64, 127
1, 114370, Note_off_c, 4, 64, 127
1, 114370, Note_off_c, 0, 48, 127
1, 114372, Note_on_c, 2, 50, 127
1, 114372, Note_on_c, 2, 62, 127
1, 114535, Note_off_c, 2, 62, 127
1, 114535, Note_off_c, 2, 50, 127
1, 114537, Note_on_c, 4, 52, 127
1, 114537, Note_on_c, 0, 72, 127
1, 114700, Note_off_c, 4, 52, 127
1, 114702, Note_on_c, 6, 54, 127
1, 114802, Note_off_c, 0, 72, 127
1, 114865, Note_off_c, 6, 54, 127
1, 114867, Note_on_c, 7, 55, 127
1, 114867, Note_on_c, 12, 71, 127
1, 115030, Note_off_c, 7, 55, 127
1, 115032, Note_on_c, 10, 57, 127
1, 115195, Note_off_c, 10, 57, 127
1, 115197, Note_on_c, 12, 59, 127
1, 115360, Note_off_c, 12, 59, 127
1, 115362, Note_on_c, 0, 60, 127
1, 115525, Note_off_c, 0, 60, 127
1, 115527, Note_on_c, 2, 62, 127
1, 115690, Note_off_c, 2, 62, 127
1, 115692, Note_on_c, 4, 64, 127
1, 115855, Note_off_c, 4, 64, 127
1, 115857, Note_on_c, 2, 62, 127
1, 116020, Note_off_c, 2, 62, 127
1, 116022, Note_on_c, 12, 59, 127
1, 116185, Note_off_c, 12, 59, 127
1, 116187, Note_on_c, 10, 57, 127
1, 116350, Note_off_c, 10, 57, 127
1, 116352, Note_on_c, 7, 55, 127
1, 116515, Note_off_c, 7, 55, 127
1, 116517, Note_on_c, 4, 64, 127
1, 116680, Note_off_c, 4, 64, 127
1, 116682, Note_on_c, 0, 60, 127
1, 116845, Note_off_c, 0, 60, 127
1, 116847, Note_on_c, 2, 62, 127
1, 117010, Note_off_c, 2, 62, 127
1, 117012, Note_on_c, 12, 59, 127
1, 117175, Note_off_c, 12, 59, 127
1, 117177, Note_on_c, 10, 57, 127
1, 117340, Note_off_c, 10, 57, 127
1, 117342, Note_on_c, 7, 55, 127
1, 117505, Note_off_c, 7, 55, 127
1, 117507, Note_on_c, 0, 60, 127
1, 117670, Note_off_c, 0, 60, 127
1, 117672, Note_on_c, 10, 57, 127
1, 117835, Note_off_c, 10, 57, 127
1, 117837, Note_on_c, 12, 59, 127
1, 117837, Note_on_c, 2, 74, 127
1, 117840, Note_off_c, 12, 71, 127
1, 117999, Note_off_c, 2, 74, 127
1, 117999, Note_off_c, 12, 59, 127
1, 118001, Note_on_c, 2, 62, 127
1, 118001, Note_on_c, 12, 71, 127
1, 118164, Note_off_c, 12, 71, 127
1, 118164, Note_off_c, 2, 62, 127
1, 118166, Note_on_c, 0, 60, 127
1, 118166, Note_on_c, 10, 69, 127
1, 118329, Note_off_c, 10, 69, 127
1, 118329, Note_off_c, 0, 60, 127
1, 118331, Note_on_c, 12, 59, 127
1, 118331, Note_on_c, 7, 67, 127
1, 118494, Note_off_c, 7, 67, 127
1, 118494, Note_off_c, 12, 59, 127
1, 118496, Note_on_c, 0, 60, 127
1, 118496, Note_on_c, 4, 76, 127
1, 118659, Note_off_c, 4, 76, 127
1, 118659, Note_off_c, 0, 60, 127
1, 118661, Note_on_c, 10, 57, 127
1, 118661, Note_on_c, 0, 72, 127
1, 118824, Note_off_c, 0, 72, 127
1, 118824, Note_off_c, 10, 57, 127
1, 118826, Note_on_c, 12, 59, 127
1, 118826, Note_on_c, 2, 74, 127
1, 118989, Note_off_c, 2, 74, 127
1, 118989, Note_off_c, 12, 59, 127
1, 118991, Note_on_c, 7, 55, 127
1, 118991, Note_on_c, 12, 71, 127
1, 119154, Note_off_c, 12, 71, 127
1, 119154, Note_off_c, 7, 55, 127
1, 119156, Note_on_c, 6, 54, 127
1, 119156, Note_on_c, 10, 69, 127
1, 119319, Note_off_c, 10, 69, 127
1, 119319, Note_off_c, 6, 54, 127
1, 119321, Note_on_c, 4, 52, 127
1, 119321, Note_on_c, 7, 67, 127
1, 119484, Note_off_c, 7, 67, 127
1, 119484, Note_off_c, 4, 52, 127
1, 119486, Note_on_c, 10, 57, 127
1, 119486, Note_on_c, 0, 72, 127
1, 119649, Note_off_c, 0, 72, 127
1, 119649, Note_off_c, 10, 57, 127
1, 119651, Note_on_c, 6, 54, 127
1, 119651, Note_on_c, 10, 69, 127
1, 119814, Note_off_c, 10, 69, 127
1, 119814, Note_off_c, 6, 54, 127
1, 119816, Note_on_c, 7, 55, 127
1, 119816, Note_on_c, 12, 71, 127
1, 119979, Note_off_c, 12, 71, 127
1, 119979, Note_off_c, 7, 55, 127
1, 119981, Note_on_c, 12, 59, 127
1, 119981, Note_on_c, 2, 74, 127
1, 120144, Note_off_c, 2, 74, 127
1, 120144, Note_off_c, 12, 59, 127
1, 120146, Note_on_c, 10, 57, 127
1, 120146, Note_on_c, 0, 72, 127
1, 120309, Note_off_c, 0, 72, 127
1, 120309, Note_off_c, 10, 57, 127
1, 120311, Note_on_c, 7, 55, 127
1, 120311, Note_on_c, 12, 71, 127
1, 120474, Note_off_c, 12, 71, 127
1, 120474, Note_off_c, 7, 55, 127
1, 120476, Note_on_c, 10, 57, 127
1, 120476, Note_on_c, 0, 72, 127
1, 120639, Note_off_c, 0, 72, 127
1, 120639, Note_off_c, 10, 57, 127
1, 120641, Note_on_c, 6, 54, 127
1, 120641, Note_on_c, 10, 69, 127
1, 120804, Note_off_c, 10, 69, 127
1, 120804, Note_off_c, 6, 54, 127
1, 120806, Note_on_c, 7, 55, 127
1, 120806, Note_on_c, 12, 71, 127
1, 120969, Note_off_c, 12, 71, 127
1, 120969, Note_off_c, 7, 55, 127
1, 120971, Note_on_c, 12, 59, 127
1, 120971, Note_on_c, 7, 67, 127
1, 121134, Note_off_c, 7, 67, 127
1, 121134, Note_off_c, 12, 59, 127
1, 121136, Note_on_c, 10, 57, 127
1, 121136, Note_on_c, 6, 66, 127
1, 121299, Note_off_c, 6, 66, 127
1, 121299, Note_off_c, 10, 57, 127
1, 121301, Note_on_c, 7, 55, 127
1, 121301, Note_on_c, 4, 64, 127
1, 121464, Note_off_c, 4, 64, 127
1, 121464, Note_off_c, 7, 55, 127
1, 121466, Note_on_c, 0, 60, 127
1, 121466, Note_on_c, 10, 69, 127
1, 121629, Note_off_c, 10, 69, 127
1, 121629, Note_off_c, 0, 60, 127
1, 121631, Note_on_c, 10, 57, 127
1, 121631, Note_on_c, 6, 66, 127
1, 121794, Note_off_c, 6, 66, 127
1, 121794, Note_off_c, 10, 57, 127
1, 121796, Note_on_c, 12, 59, 127
1, 121796, Note_on_c, 7, 67, 127
1, 121959, Note_off_c, 7, 67, 127
1, 121959, Note_off_c, 12, 59, 127
1, 121961, Note_on_c, 7, 55, 127
1, 121961, Note_on_c, 12, 71, 127
1, 122124, Note_off_c, 12, 71, 127
1, 122124, Note_off_c, 7, 55, 127
1, 122126, Note_on_c, 6, 54, 127
1, 122126, Note_on_c, 10, 69, 127
1, 122289, Note_off_c, 10, 69, 127
1, 122289, Note_off_c, 6, 54, 127
1, 122291, Note_on_c, 4, 52, 127
1, 122291, Note_on_c, 7, 67, 127
1, 122454, Note_off_c, 7, 67, 127
1, 122454, Note_off_c, 4, 52, 127
1, 122456, Note_on_c, 6, 54, 127
1, 122456, Note_on_c, 10, 69, 127
1, 122619, Note_off_c, 10, 69, 127
1, 122619, Note_off_c, 6, 54, 127
1, 122621, Note_on_c, 3, 51, 127
1, 122621, Note_on_c, 6, 66, 127
1, 122784, Note_off_c, 6, 66, 127
1, 122784, Note_off_c, 3, 51, 127
1, 122786, Note_on_c, 4, 52, 127
1, 122786, Note_on_c, 7, 67, 127
1, 122949, Note_off_c, 7, 67, 127
1, 122949, Note_off_c, 4, 52, 127
1, 122951, Note_on_c, 7, 55, 127
1, 122951, Note_on_c, 4, 64, 127
1, 123114, Note_off_c, 4, 64, 127
1, 123114, Note_off_c, 7, 55, 127
1, 123116, Note_on_c, 5, 53, 127
1, 123116, Note_on_c, 2, 62, 127
1, 123279, Note_off_c, 2, 62, 127
1, 123279, Note_off_c, 5, 53, 127
1, 123281, Note_on_c, 4, 52, 127
1, 123281, Note_on_c, 0, 60, 127
1, 123444, Note_off_c, 0, 60, 127
1, 123444, Note_off_c, 4, 52, 127
1, 123446, Note_on_c, 10, 57, 127
1, 123446, Note_on_c, 5, 65, 127
1, 123609, Note_off_c, 5, 65, 127
1, 123609, Note_off_c, 10, 57, 127
1, 123611, Note_on_c, 5, 53, 127
1, 123611, Note_on_c, 2, 62, 127
1, 123774, Note_off_c, 2, 62, 127
1, 123774, Note_off_c, 5, 53, 127
1, 123776, Note_on_c, 7, 55, 127
1, 123776, Note_on_c, 4, 64, 127
1, 123939, Note_off_c, 4, 64, 127
1, 123939, Note_off_c, 7, 55, 127
1, 123941, Note_on_c, 4, 52, 127
1, 123941, Note_on_c, 7, 67, 127
1, 124104, Note_off_c, 7, 67, 127
1, 124104, Note_off_c, 4, 52, 127
1, 124106, Note_on_c, 2, 50, 127
1, 124106, Note_on_c, 5, 65, 127
1, 124269, Note_off_c, 5, 65, 127
1, 124269, Note_off_c, 2, 50, 127
1, 124271, Note_on_c, 0, 48, 127
1, 124271, Note_on_c, 4, 64, 127
1, 124434, Note_off_c, 4, 64, 127
1, 124434, Note_off_c, 0, 48, 127
1, 124436, Note_on_c, 2, 50, 127
1, 124436, Note_on_c, 5, 65, 127
1, 124599, Note_off_c, 5, 65, 127
1, 124599, Note_off_c, 2, 50, 127
1, 124601, Note_on_c, 12, 47, 127
1, 124601, Note_on_c, 2, 62, 127
1, 124764, Note_off_c, 2, 62, 127
1, 124764, Note_off_c, 12, 47, 127
1, 124766, Note_on_c, 0, 48, 127
1, 124766, Note_on_c, 4, 64, 127
1, 124929, Note_off_c, 4, 64, 127
1, 124931, Note_on_c, 5, 65, 127
1, 125094, Note_off_c, 5, 65, 127
1, 125094, Note_off_c, 0, 48, 127
1, 125096, Note_on_c, 0, 60, 127
1, 125096, Note_on_c, 7, 67, 127
1, 125259, Note_off_c, 7, 67, 127
1, 125261, Note_on_c, 10, 69, 127
1, 125424, Note_off_c, 10, 69, 127
1, 125424, Note_off_c, 0, 60, 127
1, 125426, Note_on_c, 12, 59, 127
1, 125426, Note_on_c, 2, 62, 127
1, 125589, Note_off_c, 2, 62, 127
1, 125591, Note_on_c, 5, 65, 127
1, 125754, Note_off_c, 5, 65, 127
1, 125754, Note_off_c, 12, 59, 127
1, 125756, Note_on_c, 0, 60, 127
1, 125756, Note_on_c, 4, 64, 127
1, 125919, Note_off_c, 4, 64, 127
1, 125921, Note_on_c, 10, 69, 127
1, 126084, Note_off_c, 10, 69, 127
1, 126084, Note_off_c, 0, 60, 127
1, 126086, Note_on_c, 10, 57, 127
1, 126086, Note_on_c, 12, 71, 127
1, 126249, Note_off_c, 12, 71, 127
1, 126251, Note_on_c, 0, 72, 127
1, 126414, Note_off_c, 0, 72, 127
1, 126414, Note_off_c, 10, 57, 127
1, 126416, Note_on_c, 0, 60, 127
1, 126416, Note_on_c, 4, 64, 127
1, 126579, Note_off_c, 4, 64, 127
1, 126581, Note_on_c, 7, 67, 127
1, 126744, Note_off_c, 7, 67, 127
1, 126744, Note_off_c, 0, 60, 127
1, 126746, Note_on_c, 2, 50, 127
1, 126746, Note_on_c, 6, 66, 127
1, 126909, Note_off_c, 6, 66, 127
1, 126911, Note_on_c, 7, 67, 127
1, 127074, Note_off_c, 7, 67, 127
1, 127074, Note_off_c, 2, 50, 127
1, 127076, Note_on_c, 2, 62, 127
1, 127076, Note_on_c, 10, 69, 127
1, 127239, Note_off_c, 10, 69, 127
1, 127241, Note_on_c, 12, 71, 127
1, 127404, Note_off_c, 12, 71, 127
1, 127404, Note_off_c, 2, 62, 127
1, 127406, Note_on_c, 1, 61, 127
1, 127406, Note_on_c, 4, 64, 127
1, 127569, Note_off_c, 4, 64, 127
1, 127571, Note_on_c, 7, 67, 127
1, 127734, Note_off_c, 7, 67, 127
1, 127734, Note_off_c, 1, 61, 127
1, 127736, Note_on_c, 2, 62, 127
1, 127736, Note_on_c, 6, 66, 127
1, 127899, Note_off_c, 6, 66, 127
1, 127901, Note_on_c, 12, 71, 127
1, 128064, Note_off_c, 12, 71, 127
1, 128064, Note_off_c, 2, 62, 127
1, 128066, Note_on_c, 12, 59, 127
1, 128066, Note_on_c, 0, 72, 127
1, 128229, Note_off_c, 0, 72, 127
1, 128231, Note_on_c, 2, 74, 127
1, 128394, Note_off_c, 2, 74, 127
1, 128394, Note_off_c, 12, 59, 127
1, 128396, Note_on_c, 2, 62, 127
1, 128396, Note_on_c, 6, 66, 127
1, 128559, Note_off_c, 6, 66, 127
1, 128561, Note_on_c, 10, 69, 127
1, 128724, Note_off_c, 10, 69, 127
1, 128724, Note_off_c, 2, 62, 127
1, 128726, Note_on_c, 4, 52, 127
1, 128726, Note_on_c, 7, 67, 127
1, 128889, Note_off_c, 7, 67, 127
1, 128891, Note_on_c, 10, 69, 127
1, 129054, Note_off_c, 10, 69, 127
1, 129054, Note_off_c, 4, 52, 127
1, 129056, Note_on_c, 4, 64, 127
1, 129056, Note_on_c, 12, 71, 127
1, 129219, Note_off_c, 12, 71, 127
1, 129221, Note_on_c, 0, 72, 127
1, 129384, Note_off_c, 0, 72, 127
1, 129384, Note_off_c, 4, 64, 127
1, 129386, Note_on_c, 3, 63, 127
1, 129386, Note_on_c, 6, 66, 127
1, 129549, Note_off_c, 6, 66, 127
1, 129551, Note_on_c, 10, 69, 127
1, 129714, Note_off_c, 10, 69, 127
1, 129714, Note_off_c, 3, 63, 127
1, 129716, Note_on_c, 4, 64, 127
1, 129716, Note_on_c, 7, 67, 127
1, 129879, Note_off_c, 7, 67, 127
1, 129881, Note_on_c, 0, 72, 127
1, 130044, Note_off_c, 0, 72, 127
1, 130044, Note_off_c, 4, 64, 127
1, 130046, Note_on_c, 0, 60, 127
1, 130046, Note_on_c, 2, 74, 127
1, 130209, Note_off_c, 2, 74, 127
1, 130211, Note_on_c, 4, 76, 127
1, 130374, Note_off_c, 4, 76, 127
1, 130374, Note_off_c, 0, 60, 127
1, 130376, Note_on_c, 4, 64, 127
1, 130376, Note_on_c, 7, 67, 127
1, 130539, Note_off_c, 7, 67, 127
1, 130541, Note_on_c, 12, 71, 127
1, 130704, Note_off_c, 12, 71, 127
1, 130704, Note_off_c, 4, 64, 127
1, 130706, Note_on_c, 6, 54, 127
1, 130706, Note_on_c, 10, 69, 127
1, 130869, Note_off_c, 10, 69, 127
1, 130871, Note_on_c, 7, 67, 127
1, 131034, Note_off_c, 7, 67, 127
1, 131034, Note_off_c, 6, 54, 127
1, 131036, Note_on_c, 4, 52, 127
1, 131036, Note_on_c, 10, 69, 127
1, 131199, Note_off_c, 10, 69, 127
1, 131201, Note_on_c, 12, 71, 127
1, 131364, Note_off_c, 12, 71, 127
1, 131364, Note_off_c, 4, 52, 127
1, 131366, Note_on_c, 2, 50, 127
1, 131366, Note_on_c, 0, 72, 127
1, 131519, Note_off_c, 0, 72, 127
1, 131531, Note_on_c, 2, 74, 127
1, 131684, Note_off_c, 2, 74, 127
1, 131694, Note_off_c, 2, 50, 127
1, 131696, Note_on_c, 7, 55, 127
1, 131696, Note_on_c, 0, 72, 127
1, 131859, Note_off_c, 0, 72, 127
1, 131861, Note_on_c, 12, 71, 127
1, 132024, Note_off_c, 12, 71, 127
1, 132024, Note_off_c, 7, 55, 127
1, 132026, Note_on_c, 0, 48, 127
1, 132026, Note_on_c, 10, 69, 127
1, 132189, Note_off_c, 10, 69, 127
1, 132189, Note_off_c, 0, 48, 127
1, 132191, Note_on_c, 12, 47, 127
1, 132191, Note_on_c, 7, 67, 127
1, 132354, Note_off_c, 7, 67, 127
1, 132354, Note_off_c, 12, 47, 127
1, 132356, Note_on_c, 10, 45, 127
1, 132356, Note_on_c, 5, 77, 127
1, 132519, Note_off_c, 10, 45, 127
1, 132521, Note_on_c, 7, 43, 127
1, 132621, Note_off_c, 5, 77, 127
1, 132684, Note_off_c, 7, 43, 127
1, 132686, Note_on_c, 0, 48, 127
1, 132686, Note_on_c, 4, 76, 127
1, 132849, Note_off_c, 0, 48, 127
1, 132851, Note_on_c, 7, 55, 127
1, 133014, Note_off_c, 7, 55, 127
1, 133016, Note_on_c, 10, 57, 127
1, 133167, Note_off_c, 4, 76, 127
1, 133179, Note_off_c, 10, 57, 127
1, 133181, Note_on_c, 12, 59, 127
1, 133344, Note_off_c, 12, 59, 127
1, 133346, Note_on_c, 0, 60, 127
1, 133509, Note_off_c, 0, 60, 127
1, 133511, Note_on_c, 2, 62, 127
1, 133674, Note_off_c, 2, 62, 127
1, 133676, Note_on_c, 4, 64, 127
1, 133676, Note_on_c, 2, 74, 127
1, 133839, Note_off_c, 2, 74, 127
1, 133841, Note_on_c, 1, 73, 127
1, 134004, Note_off_c, 1, 73, 127
1, 134004, Note_off_c, 4, 64, 127
1, 134006, Note_on_c, 2, 50, 127
1, 134006, Note_on_c, 12, 71, 127
1, 134169, Note_off_c, 12, 71, 127
1, 134169, Note_off_c, 2, 50, 127
1, 134171, Note_on_c, 1, 49, 127
1, 134171, Note_on_c, 10, 69, 127
1, 134334, Note_off_c, 10, 69, 127
1, 134334, Note_off_c, 1, 49, 127
1, 134336, Note_on_c, 12, 47, 127
1, 134336, Note_on_c, 7, 79, 127
1, 134499, Note_off_c, 12, 47, 127
1, 134501, Note_on_c, 10, 45, 127
1, 134592, Note_off_c, 7, 79, 127
1, 134664, Note_off_c, 10, 45, 127
1, 134666, Note_on_c, 2, 50, 127
1, 134666, Note_on_c, 6, 78, 127
1, 134829, Note_off_c, 2, 50, 127
1, 134831, Note_on_c, 10, 57, 127
1, 134994, Note_off_c, 10, 57, 127
1, 134996, Note_on_c, 12, 59, 127
1, 135159, Note_off_c, 12, 59, 127
1, 135161, Note_on_c, 1, 61, 127
1, 135319, Note_off_c, 6, 78, 127
1, 135324, Note_off_c, 1, 61, 127
1, 135326, Note_on_c, 2, 62, 127
1, 135489, Note_off_c, 2, 62, 127
1, 135491, Note_on_c, 4, 64, 127
1, 135654, Note_off_c, 4, 64, 127
1, 135656, Note_on_c, 6, 66, 127
1, 135656, Note_on_c, 10, 81, 127
1, 135819, Note_off_c, 10, 81, 127
1, 135821, Note_on_c, 6, 78, 127
1, 135984, Note_off_c, 6, 78, 127
1, 135984, Note_off_c, 6, 66, 127
1, 135986, Note_on_c, 7, 55, 127
1, 135986, Note_on_c, 4, 76, 127
1, 136149, Note_off_c, 4, 76, 127
1, 136149, Note_off_c, 7, 55, 127
1, 136151, Note_on_c, 6, 54, 127
1, 136151, Note_on_c, 2, 74, 127
1, 136314, Note_off_c, 2, 74, 127
1, 136314, Note_off_c, 6, 54, 127
1, 136316, Note_on_c, 4, 52, 127
1, 136316, Note_on_c, 0, 84, 127
1, 136479, Note_off_c, 4, 52, 127
1, 136481, Note_on_c, 2, 50, 127
1, 136644, Note_off_c, 2, 50, 127
1, 136644, Note_off_c, 0, 84, 127
1, 136646, Note_on_c, 7, 55, 127
1, 136646, Note_on_c, 12, 83, 127
1, 136809, Note_off_c, 12, 83, 127
1, 136811, Note_on_c, 7, 79, 127
1, 136974, Note_off_c, 7, 79, 127
1, 136974, Note_off_c, 7, 55, 127
1, 136976, Note_on_c, 4, 52, 127
1, 136976, Note_on_c, 10, 81, 127
1, 137139, Note_off_c, 10, 81, 127
1, 137141, Note_on_c, 12, 83, 127
1, 137304, Note_off_c, 12, 83, 127
1, 137304, Note_off_c, 4, 52, 127
1, 137306, Note_on_c, 0, 48, 127
1, 137306, Note_on_c, 4, 76, 127
1, 137469, Note_off_c, 4, 76, 127
1, 137471, Note_on_c, 7, 79, 127
1, 137634, Note_off_c, 7, 79, 127
1, 137634, Note_off_c, 0, 48, 127
1, 137636, Note_on_c, 10, 45, 127
1, 137636, Note_on_c, 0, 72, 127
1, 137799, Note_off_c, 0, 72, 127
1, 137801, Note_on_c, 6, 78, 127
1, 137964, Note_off_c, 6, 78, 127
1, 137964, Note_off_c, 10, 45, 127
1, 137966, Note_on_c, 2, 50, 127
1, 137966, Note_on_c, 7, 79, 127
1, 138129, Note_off_c, 7, 79, 127
1, 138131, Note_on_c, 10, 81, 127
1, 138294, Note_off_c, 10, 81, 127
1, 138294, Note_off_c, 2, 50, 127
1, 138296, Note_on_c, 2, 38, 127
1, 138296, Note_on_c, 2, 74, 127
1, 138459, Note_off_c, 2, 74, 127
1, 138461, Note_on_c, 6, 78, 127
1, 138624, Note_off_c, 6, 78, 127
1, 138624, Note_off_c, 2, 38, 127
1, 138626, Note_on_c, 7, 43, 127
1, 138626, Note_on_c, 12, 71, 127
1, 138789, Note_off_c, 12, 71, 127
1, 138791, Note_on_c, 2, 74, 127
1, 138952, Note_off_c, 7, 43, 127
1, 138954, Note_off_c, 2, 74, 127
1, 138956, Note_on_c, 4, 76, 127
1, 139119, Note_off_c, 4, 76, 127
1, 139121, Note_on_c, 5, 77, 127
1, 139284, Note_off_c, 5, 77, 127
1, 139286, Note_on_c, 12, 71, 127
1, 139449, Note_off_c, 12, 71, 127
1, 139451, Note_on_c, 2, 74, 127
1, 139614, Note_off_c, 2, 74, 127
1, 139616, Note_on_c, 7, 67, 127
1, 139779, Note_off_c, 7, 67, 127
1, 139781, Note_on_c, 2, 62, 127
1, 139781, Note_on_c, 12, 71, 127
1, 139944, Note_off_c, 12, 71, 127
1, 139944, Note_off_c, 2, 62, 127
1, 139946, Note_on_c, 4, 64, 127
1, 139946, Note_on_c, 0, 72, 127
1, 140109, Note_off_c, 0, 72, 127
1, 140109, Note_off_c, 4, 64, 127
1, 140111, Note_on_c, 5, 65, 127
1, 140111, Note_on_c, 2, 74, 127
1, 140274, Note_off_c, 2, 74, 127
1, 140274, Note_off_c, 5, 65, 127
1, 140276, Note_on_c, 12, 59, 127
1, 140276, Note_on_c, 7, 67, 127
1, 140439, Note_off_c, 7, 67, 127
1, 140439, Note_off_c, 12, 59, 127
1, 140441, Note_on_c, 2, 62, 127
1, 140441, Note_on_c, 12, 71, 127
1, 140604, Note_off_c, 12, 71, 127
1, 140604, Note_off_c, 2, 62, 127
1, 140606, Note_on_c, 7, 55, 127
1, 140606, Note_on_c, 2, 62, 127
1, 140769, Note_off_c, 2, 62, 127
1, 140769, Note_off_c, 7, 55, 127
1, 140771, Note_on_c, 12, 59, 127
1, 140771, Note_on_c, 7, 67, 127
1, 140934, Note_off_c, 7, 67, 127
1, 140934, Note_off_c, 12, 59, 127
1, 140936, Note_on_c, 0, 60, 127
1, 140936, Note_on_c, 10, 69, 127
1, 141099, Note_off_c, 10, 69, 127
1, 141099, Note_off_c, 0, 60, 127
1, 141101, Note_on_c, 2, 62, 127
1, 141101, Note_on_c, 12, 71, 127
1, 141264, Note_off_c, 12, 71, 127
1, 141264, Note_off_c, 2, 62, 127
1, 141266, Note_on_c, 7, 55, 127
1, 141266, Note_on_c, 2, 62, 127
1, 141429, Note_off_c, 2, 62, 127
1, 141429, Note_off_c, 7, 55, 127
1, 141431, Note_on_c, 12, 59, 127
1, 141431, Note_on_c, 7, 67, 127
1, 141594, Note_off_c, 7, 67, 127
1, 141594, Note_off_c, 12, 59, 127
1, 141596, Note_on_c, 2, 50, 127
1, 141596, Note_on_c, 12, 59, 127
1, 141759, Note_off_c, 12, 59, 127
1, 141759, Note_off_c, 2, 50, 127
1, 141761, Note_on_c, 5, 53, 127
1, 141761, Note_on_c, 2, 62, 127
1, 141924, Note_off_c, 2, 62, 127
1, 141924, Note_off_c, 5, 53, 127
1, 141926, Note_on_c, 7, 55, 127
1, 141926, Note_on_c, 4, 64, 127
1, 142089, Note_off_c, 4, 64, 127
1, 142089, Note_off_c, 7, 55, 127
1, 142091, Note_on_c, 10, 57, 127
1, 142091, Note_on_c, 5, 65, 127
1, 142254, Note_off_c, 5, 65, 127
1, 142254, Note_off_c, 10, 57, 127
1, 142256, Note_on_c, 2, 50, 127
1, 142256, Note_on_c, 12, 59, 127
1, 142419, Note_off_c, 12, 59, 127
1, 142419, Note_off_c, 2, 50, 127
1, 142421, Note_on_c, 5, 53, 127
1, 142421, Note_on_c, 2, 62, 127
1, 142584, Note_off_c, 2, 62, 127
1, 142584, Note_off_c, 5, 53, 127
1, 142586, Note_on_c, 12, 47, 127
1, 142586, Note_on_c, 7, 55, 127
1, 142749, Note_off_c, 12, 47, 127
1, 142751, Note_on_c, 2, 50, 127
1, 142912, Note_off_c, 7, 55, 127
1, 142914, Note_off_c, 2, 50, 127
1, 142916, Note_on_c, 4, 52, 127
1, 143079, Note_off_c, 4, 52, 127
1, 143081, Note_on_c, 5, 53, 127
1, 143244, Note_off_c, 5, 53, 127
1, 143246, Note_on_c, 12, 47, 127
1, 143409, Note_off_c, 12, 47, 127
1, 143411, Note_on_c, 2, 50, 127
1, 143574, Note_off_c, 2, 50, 127
1, 143576, Note_on_c, 7, 43, 127
1, 143576, Note_on_c, 4, 64, 127
1, 143739, Note_off_c, 4, 64, 127
1, 143741, Note_on_c, 2, 62, 127
1, 143904, Note_off_c, 2, 62, 127
1, 143904, Note_off_c, 7, 43, 127
1, 143906, Note_on_c, 10, 45, 127
1, 143906, Note_on_c, 0, 60, 127
1, 144069, Note_off_c, 0, 60, 127
1, 144071, Note_on_c, 12, 59, 127
1, 144234, Note_off_c, 12, 59, 127
1, 144234, Note_off_c, 10, 45, 127
1, 144236, Note_on_c, 12, 47, 127
1, 144236, Note_on_c, 5, 65, 127
1, 144500, Note_off_c, 5, 65, 127
1, 144563, Note_off_c, 12, 47, 127
1, 144565, Note_on_c, 0, 48, 127
1, 144565, Note_on_c, 4, 64, 127
1, 144728, Note_off_c, 0, 48, 127
1, 144730, Note_on_c, 2, 50, 127
1, 144893, Note_off_c, 2, 50, 127
1, 144895, Note_on_c, 4, 52, 127
1, 145046, Note_off_c, 4, 64, 127
1, 145058, Note_off_c, 4, 52, 127
1, 145060, Note_on_c, 6, 54, 127
1, 145223, Note_off_c, 6, 54, 127
1, 145225, Note_on_c, 7, 55, 127
1, 145388, Note_off_c, 7, 55, 127
1, 145390, Note_on_c, 10, 57, 127
1, 145553, Note_off_c, 10, 57, 127
1, 145555, Note_on_c, 12, 59, 127
1, 145555, Note_on_c, 7, 67, 127
1, 145718, Note_off_c, 7, 67, 127
1, 145718, Note_off_c, 12, 59, 127
1, 145720, Note_on_c, 2, 62, 127
1, 145720, Note_on_c, 6, 66, 127
1, 145883, Note_off_c, 6, 66, 127
1, 145883, Note_off_c, 2, 62, 127
1, 145885, Note_on_c, 0, 60, 127
1, 145885, Note_on_c, 4, 64, 127
1, 146048, Note_off_c, 4, 64, 127
1, 146048, Note_off_c, 0, 60, 127
1, 146050, Note_on_c, 12, 59, 127
1, 146050, Note_on_c, 2, 62, 127
1, 146213, Note_off_c, 2, 62, 127
1, 146213, Note_off_c, 12, 59, 127
1, 146215, Note_on_c, 10, 57, 127
1, 146215, Note_on_c, 0, 72, 127
1, 146378, Note_off_c, 10, 57, 127
1, 146380, Note_on_c, 7, 55, 127
1, 146480, Note_off_c, 0, 72, 127
1, 146543, Note_off_c, 7, 55, 127
1, 146545, Note_on_c, 6, 54, 127
1, 146545, Note_on_c, 0, 72, 127
1, 146626, Note_off_c, 0, 72, 127
1, 146628, Note_on_c, 12, 71, 127
1, 146709, Note_off_c, 12, 71, 127
1, 146709, Note_off_c, 6, 54, 127
1, 146711, Note_on_c, 10, 57, 127
1, 146711, Note_on_c, 0, 72, 127
1, 146874, Note_off_c, 10, 57, 127
1, 146876, Note_on_c, 7, 55, 127
1, 147039, Note_off_c, 7, 55, 127
1, 147041, Note_on_c, 6, 54, 127
1, 147204, Note_off_c, 6, 54, 127
1, 147206, Note_on_c, 4, 52, 127
1, 147369, Note_off_c, 4, 52, 127
1, 147371, Note_on_c, 2, 50, 127
1, 147534, Note_off_c, 2, 50, 127
1, 147536, Note_on_c, 7, 55, 127
1, 147701, Note_off_c, 0, 72, 127
1, 147703, Note_on_c, 12, 71, 127
1, 147868, Note_off_c, 12, 71, 127
1, 147868, Note_off_c, 7, 55, 127
1, 147870, Note_on_c, 4, 52, 127
1, 147870, Note_on_c, 10, 69, 127
1, 148035, Note_off_c, 10, 69, 127
1, 148037, Note_on_c, 7, 67, 127
1, 148202, Note_off_c, 7, 67, 127
1, 148202, Note_off_c, 4, 52, 127
1, 148204, Note_on_c, 0, 48, 127
1, 148204, Note_on_c, 4, 76, 127
1, 148372, Note_off_c, 4, 76, 127
1, 148374, Note_on_c, 0, 72, 127
1, 148542, Note_off_c, 0, 72, 127
1, 148542, Note_off_c, 0, 48, 127
1, 148544, Note_on_c, 7, 55, 127
1, 148544, Note_on_c, 2, 74, 127
1, 148712, Note_off_c, 2, 74, 127
1, 148714, Note_on_c, 12, 71, 127
1, 148882, Note_off_c, 12, 71, 127
1, 148882, Note_off_c, 7, 55, 127
1, 148884, Note_on_c, 12, 47, 127
1, 148884, Note_on_c, 10, 69, 127
1, 149054, Note_off_c, 10, 69, 127
1, 149056, Note_on_c, 7, 67, 127
1, 149226, Note_off_c, 7, 67, 127
1, 149226, Note_off_c, 12, 47, 127
1, 149228, Note_on_c, 4, 52, 127
1, 149228, Note_on_c, 0, 72, 127
1, 149398, Note_off_c, 0, 72, 127
1, 149400, Note_on_c, 10, 69, 127
1, 149570, Note_off_c, 10, 69, 127
1, 149570, Note_off_c, 4, 52, 127
1, 149572, Note_on_c, 0, 48, 127
1, 149572, Note_on_c, 0, 72, 127
1, 149762, Note_off_c, 0, 72, 127
1, 149764, Note_on_c, 12, 71, 127
1, 149954, Note_off_c, 12, 71, 127
1, 149954, Note_off_c, 0, 48, 127
1, 149956, Note_on_c, 2, 50, 127
1, 149956, Note_on_c, 10, 69, 127
1, 150146, Note_off_c, 10, 69, 127
1, 150148, Note_on_c, 7, 67, 127
1, 150338, Note_off_c, 7, 67, 127
1, 150338, Note_off_c, 2, 50, 127
1, 150340, Note_on_c, 2, 38, 127
1, 150340, Note_on_c, 10, 69, 127
1, 150530, Note_off_c, 10, 69, 127
1, 150532, Note_on_c, 6, 66, 127
1, 150722, Note_off_c, 6, 66, 127
1, 150722, Note_off_c, 2, 38, 127
1, 150756, Note_on_c, 7, 67, 127
1, 150756, Note_on_c, 7, 43, 127
1, 154256, Note_off_c, 7, 43, 127
1, 154256, Note_off_c, 7, 67, 127
1, 159744, End_track
0, 0, End_of_file
