0, 0, Header, 1, 3, 384
1, 0, Start_track
1, 0, Time_signature, 4, 2, 24, 8
1, 0, Tempo, 500000
1, 170496, End_track
2, 0, Start_track
2, 0, Text_t, "harpsichord: John Sankey"
2, 0, Program_c, 0, 6
2, 0, Pitch_bend_c, 0, 8192
2, 0, Program_c, 1, 6
2, 0, Pitch_bend_c, 1, 7792
2, 0, Program_c, 2, 6
2, 0, Pitch_bend_c, 2, 7876
2, 0, Program_c, 3, 6
2, 0, Pitch_bend_c, 3, 7952
2, 0, Program_c, 4, 6
2, 0, Pitch_bend_c, 4, 7792
2, 0, Program_c, 5, 6
2, 0, Pitch_bend_c, 5, 8112
2, 0, Program_c, 6, 6
2, 0, Pitch_bend_c, 6, 7712
2, 0, Program_c, 7, 6
2, 0, Pitch_bend_c, 7, 8037
2, 0, Program_c, 8, 6
2, 0, Pitch_bend_c, 8, 7872
2, 0, Program_c, 10, 6
2, 0, Pitch_bend_c, 10, 7712
2, 0, Program_c, 11, 6
2, 0, Pitch_bend_c, 11, 8032
2, 0, Program_c, 12, 6
2, 0, Pitch_bend_c, 12, 7872
2, 0, Title_t, "Track 1"
2, 64, Note_on_c, 0, 72, 127
2, 64, Note_on_c, 0, 48, 127
2, 183, Note_on_c, 3, 63, 127
2, 183, Note_on_c, 7, 55, 127
2, 284, Note_off_c, 7, 55, 127
2, 284, Note_off_c, 3, 63, 127
2, 302, Note_on_c, 2, 62, 127
2, 302, Note_on_c, 5, 53, 127
2, 403, Note_off_c, 5, 53, 127
2, 403, Note_off_c, 2, 62, 127
2, 421, Note_on_c, 3, 63, 127
2, 421, Note_on_c, 7, 55, 127
2, 522, Note_off_c, 7, 55, 127
2, 522, Note_off_c, 3, 63, 127
2, 540, Note_on_c, 0, 60, 127
2, 540, Note_on_c, 3, 51, 127
2, 659, Note_on_c, 3, 63, 127
2, 659, Note_on_c, 7, 55, 127
2, 760, Note_off_c, 7, 55, 127
2, 760, Note_off_c, 3, 63, 127
2, 778, Note_on_c, 2, 62, 127
2, 778, Note_on_c, 5, 53, 127
2, 879, Note_off_c, 5, 53, 127
2, 879, Note_off_c, 2, 62, 127
2, 897, Note_on_c, 3, 63, 127
2, 897, Note_on_c, 7, 55, 127
2, 996, Note_off_c, 3, 51, 127
2, 996, Note_off_c, 0, 60, 127
2, 998, Note_off_c, 7, 55, 127
2, 998, Note_off_c, 3, 63, 127
2, 1006, Note_off_c, 0, 48, 127
2, 1006, Note_off_c, 0, 72, 127
2, 1016, Note_on_c, 0, 72, 127
2, 1016, Note_on_c, 0, 48, 127
2, 1135, Note_on_c, 3, 63, 127
2, 1135, Note_on_c, 7, 55, 127
2, 1236, Note_off_c, 7, 55, 127
2, 1236, Note_off_c, 3, 63, 127
2, 1254, Note_on_c, 2, 62, 127
2, 1254, Note_on_c, 5, 53, 127
2, 1355, Note_off_c, 5, 53, 127
2, 1355, Note_off_c, 2, 62, 127
2, 1373, Note_on_c, 3, 63, 127
2, 1373, Note_on_c, 7, 55, 127
2, 1474, Note_off_c, 7, 55, 127
2, 1474, Note_off_c, 3, 63, 127
2, 1492, Note_on_c, 0, 60, 127
2, 1492, Note_on_c, 3, 51, 127
2, 1611, Note_on_c, 3, 63, 127
2, 1611, Note_on_c, 7, 55, 127
2, 1712, Note_off_c, 7, 55, 127
2, 1712, Note_off_c, 3, 63, 127
2, 1730, Note_on_c, 2, 62, 127
2, 1730, Note_on_c, 5, 53, 127
2, 1831, Note_off_c, 5, 53, 127
2, 1831, Note_off_c, 2, 62, 127
2, 1849, Note_on_c, 3, 63, 127
2, 1849, Note_on_c, 7, 55, 127
2, 1948, Note_off_c, 3, 51, 127
2, 1948, Note_off_c, 0, 60, 127
2, 1950, Note_off_c, 7, 55, 127
2, 1950, Note_off_c, 3, 63, 127
2, 1958, Note_off_c, 0, 48, 127
2, 1958, Note_off_c, 0, 72, 127
2, 1968, Note_on_c, 8, 68, 127
2, 1968, Note_on_c, 0, 48, 127
2, 2087, Note_on_c, 5, 65, 127
2, 2087, Note_on_c, 8, 56, 127
2, 2188, Note_off_c, 8, 56, 127
2, 2188, Note_off_c, 5, 65, 127
2, 2206, Note_on_c, 4, 64, 127
2, 2206, Note_on_c, 7, 55, 127
2, 2307, Note_off_c, 7, 55, 127
2, 2307, Note_off_c, 4, 64, 127
2, 2325, Note_on_c, 5, 65, 127
2, 2325, Note_on_c, 8, 56, 127
2, 2426, Note_off_c, 8, 56, 127
2, 2426, Note_off_c, 5, 65, 127
2, 2444, Note_on_c, 0, 60, 127
2, 2444, Note_on_c, 5, 53, 127
2, 2563, Note_on_c, 5, 65, 127
2, 2563, Note_on_c, 8, 56, 127
2, 2664, Note_off_c, 8, 56, 127
2, 2664, Note_off_c, 5, 65, 127
2, 2682, Note_on_c, 4, 64, 127
2, 2682, Note_on_c, 7, 55, 127
2, 2783, Note_off_c, 7, 55, 127
2, 2783, Note_off_c, 4, 64, 127
2, 2801, Note_on_c, 5, 65, 127
2, 2801, Note_on_c, 8, 56, 127
2, 2900, Note_off_c, 5, 53, 127
2, 2900, Note_off_c, 0, 60, 127
2, 2902, Note_off_c, 8, 56, 127
2, 2902, Note_off_c, 5, 65, 127
2, 2910, Note_off_c, 0, 48, 127
2, 2910, Note_off_c, 8, 68, 127
2, 2920, Note_on_c, 8, 68, 127
2, 2920, Note_on_c, 0, 48, 127
2, 3040, Note_on_c, 5, 65, 127
2, 3040, Note_on_c, 8, 56, 127
2, 3141, Note_off_c, 8, 56, 127
2, 3141, Note_off_c, 5, 65, 127
2, 3159, Note_on_c, 4, 64, 127
2, 3159, Note_on_c, 7, 55, 127
2, 3260, Note_off_c, 7, 55, 127
2, 3260, Note_off_c, 4, 64, 127
2, 3278, Note_on_c, 5, 65, 127
2, 3278, Note_on_c, 8, 56, 127
2, 3379, Note_off_c, 8, 56, 127
2, 3379, Note_off_c, 5, 65, 127
2, 3397, Note_on_c, 0, 60, 127
2, 3397, Note_on_c, 5, 53, 127
2, 3516, Note_on_c, 5, 65, 127
2, 3516, Note_on_c, 8, 56, 127
2, 3617, Note_off_c, 8, 56, 127
2, 3617, Note_off_c, 5, 65, 127
2, 3635, Note_on_c, 4, 64, 127
2, 3635, Note_on_c, 7, 55, 127
2, 3736, Note_off_c, 7, 55, 127
2, 3736, Note_off_c, 4, 64, 127
2, 3754, Note_on_c, 5, 65, 127
2, 3754, Note_on_c, 8, 56, 127
2, 3853, Note_off_c, 5, 53, 127
2, 3853, Note_off_c, 0, 60, 127
2, 3855, Note_off_c, 8, 56, 127
2, 3855, Note_off_c, 5, 65, 127
2, 3862, Note_off_c, 0, 48, 127
2, 3862, Note_off_c, 8, 68, 127
2, 3873, Note_on_c, 12, 71, 127
2, 3873, Note_on_c, 0, 48, 127
2, 3992, Note_on_c, 5, 65, 127
2, 3992, Note_on_c, 8, 56, 127
2, 4093, Note_off_c, 8, 56, 127
2, 4093, Note_off_c, 5, 65, 127
2, 4111, Note_on_c, 3, 63, 127
2, 4111, Note_on_c, 7, 55, 127
2, 4212, Note_off_c, 7, 55, 127
2, 4212, Note_off_c, 3, 63, 127
2, 4230, Note_on_c, 5, 65, 127
2, 4230, Note_on_c, 8, 56, 127
2, 4331, Note_off_c, 8, 56, 127
2, 4331, Note_off_c, 5, 65, 127
2, 4349, Note_on_c, 2, 62, 127
2, 4349, Note_on_c, 5, 53, 127
2, 4468, Note_on_c, 5, 65, 127
2, 4468, Note_on_c, 8, 56, 127
2, 4569, Note_off_c, 8, 56, 127
2, 4569, Note_off_c, 5, 65, 127
2, 4587, Note_on_c, 3, 63, 127
2, 4587, Note_on_c, 7, 55, 127
2, 4688, Note_off_c, 7, 55, 127
2, 4688, Note_off_c, 3, 63, 127
2, 4706, Note_on_c, 5, 65, 127
2, 4706, Note_on_c, 8, 56, 127
2, 4805, Note_off_c, 5, 53, 127
2, 4805, Note_off_c, 2, 62, 127
2, 4807, Note_off_c, 8, 56, 127
2, 4807, Note_off_c, 5, 65, 127
2, 4815, Note_off_c, 0, 48, 127
2, 4815, Note_off_c, 12, 71, 127
2, 4825, Note_on_c, 12, 71, 127
2, 4825, Note_on_c, 0, 48, 127
2, 4944, Note_on_c, 5, 65, 127
2, 4944, Note_on_c, 8, 56, 127
2, 5045, Note_off_c, 8, 56, 127
2, 5045, Note_off_c, 5, 65, 127
2, 5063, Note_on_c, 3, 63, 127
2, 5063, Note_on_c, 7, 55, 127
2, 5164, Note_off_c, 7, 55, 127
2, 5164, Note_off_c, 3, 63, 127
2, 5182, Note_on_c, 5, 65, 127
2, 5182, Note_on_c, 8, 56, 127
2, 5283, Note_off_c, 8, 56, 127
2, 5283, Note_off_c, 5, 65, 127
2, 5301, Note_on_c, 2, 62, 127
2, 5301, Note_on_c, 5, 53, 127
2, 5420, Note_on_c, 5, 65, 127
2, 5420, Note_on_c, 8, 56, 127
2, 5521, Note_off_c, 8, 56, 127
2, 5521, Note_off_c, 5, 65, 127
2, 5539, Note_on_c, 3, 63, 127
2, 5539, Note_on_c, 7, 55, 127
2, 5640, Note_off_c, 7, 55, 127
2, 5640, Note_off_c, 3, 63, 127
2, 5658, Note_on_c, 5, 65, 127
2, 5658, Note_on_c, 8, 56, 127
2, 5757, Note_off_c, 5, 53, 127
2, 5757, Note_off_c, 2, 62, 127
2, 5759, Note_off_c, 8, 56, 127
2, 5759, Note_off_c, 5, 65, 127
2, 5767, Note_off_c, 0, 48, 127
2, 5767, Note_off_c, 12, 71, 127
2, 5777, Note_on_c, 0, 72, 127
2, 5777, Note_on_c, 0, 48, 127
2, 5896, Note_on_c, 7, 67, 127
2, 5896, Note_on_c, 3, 51, 127
2, 5997, Note_off_c, 3, 51, 127
2, 5997, Note_off_c, 7, 67, 127
2, 6016, Note_on_c, 5, 65, 127
2, 6016, Note_on_c, 2, 50, 127
2, 6117, Note_off_c, 2, 50, 127
2, 6117, Note_off_c, 5, 65, 127
2, 6135, Note_on_c, 7, 67, 127
2, 6135, Note_on_c, 3, 51, 127
2, 6236, Note_off_c, 3, 51, 127
2, 6236, Note_off_c, 7, 67, 127
2, 6254, Note_on_c, 3, 63, 127
2, 6254, Note_on_c, 7, 55, 127
2, 6373, Note_on_c, 7, 67, 127
2, 6373, Note_on_c, 3, 51, 127
2, 6474, Note_off_c, 3, 51, 127
2, 6474, Note_off_c, 7, 67, 127
2, 6492, Note_on_c, 5, 65, 127
2, 6492, Note_on_c, 2, 50, 127
2, 6593, Note_off_c, 2, 50, 127
2, 6593, Note_off_c, 5, 65, 127
2, 6611, Note_on_c, 7, 67, 127
2, 6611, Note_on_c, 3, 51, 127
2, 6710, Note_off_c, 7, 55, 127
2, 6710, Note_off_c, 3, 63, 127
2, 6712, Note_off_c, 3, 51, 127
2, 6712, Note_off_c, 7, 67, 127
2, 6719, Note_off_c, 0, 48, 127
2, 6719, Note_off_c, 0, 72, 127
2, 6730, Note_on_c, 0, 72, 127
2, 6730, Note_on_c, 0, 48, 127
2, 6849, Note_on_c, 7, 67, 127
2, 6849, Note_on_c, 3, 51, 127
2, 6950, Note_off_c, 3, 51, 127
2, 6950, Note_off_c, 7, 67, 127
2, 6968, Note_on_c, 5, 65, 127
2, 6968, Note_on_c, 2, 50, 127
2, 7069, Note_off_c, 2, 50, 127
2, 7069, Note_off_c, 5, 65, 127
2, 7087, Note_on_c, 7, 67, 127
2, 7087, Note_on_c, 3, 51, 127
2, 7188, Note_off_c, 3, 51, 127
2, 7188, Note_off_c, 7, 67, 127
2, 7206, Note_on_c, 3, 63, 127
2, 7206, Note_on_c, 7, 55, 127
2, 7325, Note_on_c, 7, 67, 127
2, 7325, Note_on_c, 3, 51, 127
2, 7426, Note_off_c, 3, 51, 127
2, 7426, Note_off_c, 7, 67, 127
2, 7444, Note_on_c, 5, 65, 127
2, 7444, Note_on_c, 2, 50, 127
2, 7486, Note_off_c, 7, 55, 127
2, 7486, Note_off_c, 3, 63, 127
2, 7545, Note_off_c, 2, 50, 127
2, 7545, Note_off_c, 5, 65, 127
2, 7563, Note_on_c, 7, 67, 127
2, 7563, Note_on_c, 3, 51, 127
2, 7664, Note_off_c, 3, 51, 127
2, 7664, Note_off_c, 7, 67, 127
2, 7672, Note_off_c, 0, 48, 127
2, 7672, Note_off_c, 0, 72, 127
2, 7682, Note_on_c, 3, 75, 127
2, 7682, Note_on_c, 0, 48, 127
2, 7801, Note_on_c, 8, 68, 127
2, 7801, Note_on_c, 0, 60, 127
2, 7902, Note_off_c, 0, 60, 127
2, 7902, Note_off_c, 8, 68, 127
2, 7920, Note_on_c, 7, 67, 127
2, 7920, Note_on_c, 11, 58, 127
2, 8021, Note_off_c, 11, 58, 127
2, 8021, Note_off_c, 7, 67, 127
2, 8039, Note_on_c, 8, 68, 127
2, 8039, Note_on_c, 0, 60, 127
2, 8140, Note_off_c, 0, 60, 127
2, 8140, Note_off_c, 8, 68, 127
2, 8158, Note_on_c, 3, 63, 127
2, 8158, Note_on_c, 8, 56, 127
2, 8277, Note_on_c, 8, 68, 127
2, 8277, Note_on_c, 0, 60, 127
2, 8378, Note_off_c, 0, 60, 127
2, 8378, Note_off_c, 8, 68, 127
2, 8396, Note_on_c, 7, 67, 127
2, 8396, Note_on_c, 11, 58, 127
2, 8497, Note_off_c, 11, 58, 127
2, 8497, Note_off_c, 7, 67, 127
2, 8515, Note_on_c, 8, 68, 127
2, 8515, Note_on_c, 0, 60, 127
2, 8614, Note_off_c, 8, 56, 127
2, 8614, Note_off_c, 3, 63, 127
2, 8616, Note_off_c, 0, 60, 127
2, 8616, Note_off_c, 8, 68, 127
2, 8624, Note_off_c, 0, 48, 127
2, 8624, Note_off_c, 3, 75, 127
2, 8634, Note_on_c, 3, 75, 127
2, 8634, Note_on_c, 0, 48, 127
2, 8753, Note_on_c, 8, 68, 127
2, 8753, Note_on_c, 0, 60, 127
2, 8854, Note_off_c, 0, 60, 127
2, 8854, Note_off_c, 8, 68, 127
2, 8872, Note_on_c, 7, 67, 127
2, 8872, Note_on_c, 11, 58, 127
2, 8973, Note_off_c, 11, 58, 127
2, 8973, Note_off_c, 7, 67, 127
2, 8992, Note_on_c, 8, 68, 127
2, 8992, Note_on_c, 0, 60, 127
2, 9093, Note_off_c, 0, 60, 127
2, 9093, Note_off_c, 8, 68, 127
2, 9111, Note_on_c, 3, 63, 127
2, 9111, Note_on_c, 8, 56, 127
2, 9230, Note_on_c, 8, 68, 127
2, 9230, Note_on_c, 0, 60, 127
2, 9331, Note_off_c, 0, 60, 127
2, 9331, Note_off_c, 8, 68, 127
2, 9349, Note_on_c, 7, 67, 127
2, 9349, Note_on_c, 11, 58, 127
2, 9450, Note_off_c, 11, 58, 127
2, 9450, Note_off_c, 7, 67, 127
2, 9468, Note_on_c, 8, 68, 127
2, 9468, Note_on_c, 0, 60, 127
2, 9567, Note_off_c, 8, 56, 127
2, 9567, Note_off_c, 3, 63, 127
2, 9569, Note_off_c, 0, 60, 127
2, 9569, Note_off_c, 8, 68, 127
2, 9576, Note_off_c, 0, 48, 127
2, 9576, Note_off_c, 3, 75, 127
2, 9587, Note_on_c, 2, 74, 127
2, 9587, Note_on_c, 0, 48, 127
2, 9706, Note_on_c, 6, 66, 127
2, 9706, Note_on_c, 10, 57, 127
2, 9807, Note_off_c, 10, 57, 127
2, 9807, Note_off_c, 6, 66, 127
2, 9825, Note_on_c, 4, 64, 127
2, 9825, Note_on_c, 7, 55, 127
2, 9926, Note_off_c, 7, 55, 127
2, 9926, Note_off_c, 4, 64, 127
2, 9944, Note_on_c, 6, 66, 127
2, 9944, Note_on_c, 10, 57, 127
2, 10045, Note_off_c, 10, 57, 127
2, 10045, Note_off_c, 6, 66, 127
2, 10063, Note_on_c, 2, 62, 127
2, 10063, Note_on_c, 6, 54, 127
2, 10182, Note_on_c, 6, 66, 127
2, 10182, Note_on_c, 10, 57, 127
2, 10283, Note_off_c, 10, 57, 127
2, 10283, Note_off_c, 6, 66, 127
2, 10301, Note_on_c, 4, 64, 127
2, 10301, Note_on_c, 7, 55, 127
2, 10402, Note_off_c, 7, 55, 127
2, 10402, Note_off_c, 4, 64, 127
2, 10420, Note_on_c, 6, 66, 127
2, 10420, Note_on_c, 10, 57, 127
2, 10519, Note_off_c, 6, 54, 127
2, 10519, Note_off_c, 2, 62, 127
2, 10521, Note_off_c, 10, 57, 127
2, 10521, Note_off_c, 6, 66, 127
2, 10529, Note_off_c, 0, 48, 127
2, 10529, Note_off_c, 2, 74, 127
2, 10539, Note_on_c, 2, 74, 127
2, 10539, Note_on_c, 0, 48, 127
2, 10658, Note_on_c, 6, 66, 127
2, 10658, Note_on_c, 10, 57, 127
2, 10759, Note_off_c, 10, 57, 127
2, 10759, Note_off_c, 6, 66, 127
2, 10777, Note_on_c, 4, 64, 127
2, 10777, Note_on_c, 7, 55, 127
2, 10878, Note_off_c, 7, 55, 127
2, 10878, Note_off_c, 4, 64, 127
2, 10896, Note_on_c, 6, 66, 127
2, 10896, Note_on_c, 10, 57, 127
2, 10997, Note_off_c, 10, 57, 127
2, 10997, Note_off_c, 6, 66, 127
2, 11015, Note_on_c, 2, 62, 127
2, 11015, Note_on_c, 6, 54, 127
2, 11134, Note_on_c, 6, 66, 127
2, 11134, Note_on_c, 10, 57, 127
2, 11235, Note_off_c, 10, 57, 127
2, 11235, Note_off_c, 6, 66, 127
2, 11253, Note_on_c, 4, 64, 127
2, 11253, Note_on_c, 7, 55, 127
2, 11354, Note_off_c, 7, 55, 127
2, 11354, Note_off_c, 4, 64, 127
2, 11372, Note_on_c, 6, 66, 127
2, 11372, Note_on_c, 10, 57, 127
2, 11471, Note_off_c, 6, 54, 127
2, 11471, Note_off_c, 2, 62, 127
2, 11473, Note_off_c, 10, 57, 127
2, 11473, Note_off_c, 6, 66, 127
2, 11481, Note_off_c, 0, 48, 127
2, 11481, Note_off_c, 2, 74, 127
2, 11491, Note_on_c, 2, 74, 127
2, 11491, Note_on_c, 11, 46, 127
2, 11610, Note_on_c, 7, 67, 127
2, 11610, Note_on_c, 11, 58, 127
2, 11711, Note_off_c, 11, 58, 127
2, 11711, Note_off_c, 7, 67, 127
2, 11729, Note_on_c, 6, 66, 127
2, 11729, Note_on_c, 10, 57, 127
2, 11830, Note_off_c, 10, 57, 127
2, 11830, Note_off_c, 6, 66, 127
2, 11848, Note_on_c, 7, 67, 127
2, 11848, Note_on_c, 11, 58, 127
2, 11949, Note_off_c, 11, 58, 127
2, 11949, Note_off_c, 7, 67, 127
2, 11968, Note_on_c, 2, 62, 127
2, 11968, Note_on_c, 7, 55, 127
2, 12087, Note_on_c, 7, 67, 127
2, 12087, Note_on_c, 11, 58, 127
2, 12188, Note_off_c, 11, 58, 127
2, 12188, Note_off_c, 7, 67, 127
2, 12206, Note_on_c, 6, 66, 127
2, 12206, Note_on_c, 10, 57, 127
2, 12307, Note_off_c, 10, 57, 127
2, 12307, Note_off_c, 6, 66, 127
2, 12325, Note_on_c, 7, 67, 127
2, 12325, Note_on_c, 11, 58, 127
2, 12424, Note_off_c, 7, 55, 127
2, 12424, Note_off_c, 2, 62, 127
2, 12426, Note_off_c, 11, 58, 127
2, 12426, Note_off_c, 7, 67, 127
2, 12433, Note_off_c, 11, 46, 127
2, 12433, Note_off_c, 2, 74, 127
2, 12444, Note_on_c, 2, 74, 127
2, 12444, Note_on_c, 11, 46, 127
2, 12563, Note_on_c, 7, 67, 127
2, 12563, Note_on_c, 11, 58, 127
2, 12664, Note_off_c, 11, 58, 127
2, 12664, Note_off_c, 7, 67, 127
2, 12682, Note_on_c, 6, 66, 127
2, 12682, Note_on_c, 10, 57, 127
2, 12783, Note_off_c, 10, 57, 127
2, 12783, Note_off_c, 6, 66, 127
2, 12801, Note_on_c, 7, 67, 127
2, 12801, Note_on_c, 11, 58, 127
2, 12902, Note_off_c, 11, 58, 127
2, 12902, Note_off_c, 7, 67, 127
2, 12920, Note_on_c, 2, 62, 127
2, 12920, Note_on_c, 7, 55, 127
2, 13039, Note_on_c, 7, 67, 127
2, 13039, Note_on_c, 11, 58, 127
2, 13140, Note_off_c, 11, 58, 127
2, 13140, Note_off_c, 7, 67, 127
2, 13158, Note_on_c, 6, 66, 127
2, 13158, Note_on_c, 10, 57, 127
2, 13259, Note_off_c, 10, 57, 127
2, 13259, Note_off_c, 6, 66, 127
2, 13277, Note_on_c, 7, 67, 127
2, 13277, Note_on_c, 11, 58, 127
2, 13376, Note_off_c, 7, 55, 127
2, 13376, Note_off_c, 2, 62, 127
2, 13378, Note_off_c, 11, 58, 127
2, 13378, Note_off_c, 7, 67, 127
2, 13386, Note_off_c, 11, 46, 127
2, 13386, Note_off_c, 2, 74, 127
2, 13396, Note_on_c, 0, 72, 127
2, 13396, Note_on_c, 11, 46, 127
2, 13515, Note_on_c, 4, 64, 127
2, 13515, Note_on_c, 7, 55, 127
2, 13616, Note_off_c, 7, 55, 127
2, 13616, Note_off_c, 4, 64, 127
2, 13634, Note_on_c, 2, 62, 127
2, 13634, Note_on_c, 5, 53, 127
2, 13735, Note_off_c, 5, 53, 127
2, 13735, Note_off_c, 2, 62, 127
2, 13753, Note_on_c, 4, 64, 127
2, 13753, Note_on_c, 7, 55, 127
2, 13854, Note_off_c, 7, 55, 127
2, 13854, Note_off_c, 4, 64, 127
2, 13872, Note_on_c, 0, 60, 127
2, 13872, Note_on_c, 4, 52, 127
2, 13991, Note_on_c, 4, 64, 127
2, 13991, Note_on_c, 7, 55, 127
2, 14092, Note_off_c, 7, 55, 127
2, 14092, Note_off_c, 4, 64, 127
2, 14110, Note_on_c, 2, 62, 127
2, 14110, Note_on_c, 5, 53, 127
2, 14211, Note_off_c, 5, 53, 127
2, 14211, Note_off_c, 2, 62, 127
2, 14229, Note_on_c, 4, 64, 127
2, 14229, Note_on_c, 7, 55, 127
2, 14328, Note_off_c, 4, 52, 127
2, 14328, Note_off_c, 0, 60, 127
2, 14330, Note_off_c, 7, 55, 127
2, 14330, Note_off_c, 4, 64, 127
2, 14338, Note_off_c, 11, 46, 127
2, 14338, Note_off_c, 0, 72, 127
2, 14348, Note_on_c, 0, 72, 127
2, 14348, Note_on_c, 11, 46, 127
2, 14467, Note_on_c, 4, 64, 127
2, 14467, Note_on_c, 7, 55, 127
2, 14568, Note_off_c, 7, 55, 127
2, 14568, Note_off_c, 4, 64, 127
2, 14586, Note_on_c, 2, 62, 127
2, 14586, Note_on_c, 5, 53, 127
2, 14687, Note_off_c, 5, 53, 127
2, 14687, Note_off_c, 2, 62, 127
2, 14705, Note_on_c, 4, 64, 127
2, 14705, Note_on_c, 7, 55, 127
2, 14806, Note_off_c, 7, 55, 127
2, 14806, Note_off_c, 4, 64, 127
2, 14824, Note_on_c, 0, 60, 127
2, 14824, Note_on_c, 4, 52, 127
2, 14944, Note_on_c, 4, 64, 127
2, 14944, Note_on_c, 7, 55, 127
2, 15045, Note_off_c, 7, 55, 127
2, 15045, Note_off_c, 4, 64, 127
2, 15063, Note_on_c, 2, 62, 127
2, 15063, Note_on_c, 5, 53, 127
2, 15164, Note_off_c, 5, 53, 127
2, 15164, Note_off_c, 2, 62, 127
2, 15182, Note_on_c, 4, 64, 127
2, 15182, Note_on_c, 7, 55, 127
2, 15280, Note_off_c, 4, 52, 127
2, 15280, Note_off_c, 0, 60, 127
2, 15283, Note_off_c, 7, 55, 127
2, 15283, Note_off_c, 4, 64, 127
2, 15290, Note_off_c, 11, 46, 127
2, 15290, Note_off_c, 0, 72, 127
2, 15301, Note_on_c, 0, 72, 127
2, 15301, Note_on_c, 8, 44, 127
2, 15420, Note_on_c, 5, 65, 127
2, 15420, Note_on_c, 8, 56, 127
2, 15521, Note_off_c, 8, 56, 127
2, 15521, Note_off_c, 5, 65, 127
2, 15539, Note_on_c, 4, 64, 127
2, 15539, Note_on_c, 7, 55, 127
2, 15640, Note_off_c, 7, 55, 127
2, 15640, Note_off_c, 4, 64, 127
2, 15658, Note_on_c, 5, 65, 127
2, 15658, Note_on_c, 8, 56, 127
2, 15759, Note_off_c, 8, 56, 127
2, 15759, Note_off_c, 5, 65, 127
2, 15777, Note_on_c, 0, 60, 127
2, 15777, Note_on_c, 5, 53, 127
2, 15896, Note_on_c, 5, 65, 127
2, 15896, Note_on_c, 8, 56, 127
2, 15997, Note_off_c, 8, 56, 127
2, 15997, Note_off_c, 5, 65, 127
2, 16015, Note_on_c, 4, 64, 127
2, 16015, Note_on_c, 7, 55, 127
2, 16116, Note_off_c, 7, 55, 127
2, 16116, Note_off_c, 4, 64, 127
2, 16134, Note_on_c, 5, 65, 127
2, 16134, Note_on_c, 8, 56, 127
2, 16233, Note_off_c, 5, 53, 127
2, 16233, Note_off_c, 0, 60, 127
2, 16235, Note_off_c, 8, 56, 127
2, 16235, Note_off_c, 5, 65, 127
2, 16243, Note_off_c, 8, 44, 127
2, 16243, Note_off_c, 0, 72, 127
2, 16253, Note_on_c, 0, 72, 127
2, 16253, Note_on_c, 8, 44, 127
2, 16372, Note_on_c, 5, 65, 127
2, 16372, Note_on_c, 8, 56, 127
2, 16473, Note_off_c, 8, 56, 127
2, 16473, Note_off_c, 5, 65, 127
2, 16491, Note_on_c, 4, 64, 127
2, 16491, Note_on_c, 7, 55, 127
2, 16592, Note_off_c, 7, 55, 127
2, 16592, Note_off_c, 4, 64, 127
2, 16610, Note_on_c, 5, 65, 127
2, 16610, Note_on_c, 8, 56, 127
2, 16711, Note_off_c, 8, 56, 127
2, 16711, Note_off_c, 5, 65, 127
2, 16729, Note_on_c, 0, 60, 127
2, 16729, Note_on_c, 5, 53, 127
2, 16848, Note_on_c, 5, 65, 127
2, 16848, Note_on_c, 8, 56, 127
2, 16949, Note_off_c, 8, 56, 127
2, 16949, Note_off_c, 5, 65, 127
2, 16967, Note_on_c, 4, 64, 127
2, 16967, Note_on_c, 7, 55, 127
2, 17068, Note_off_c, 7, 55, 127
2, 17068, Note_off_c, 4, 64, 127
2, 17086, Note_on_c, 5, 65, 127
2, 17086, Note_on_c, 8, 56, 127
2, 17185, Note_off_c, 5, 53, 127
2, 17185, Note_off_c, 0, 60, 127
2, 17187, Note_off_c, 8, 56, 127
2, 17187, Note_off_c, 5, 65, 127
2, 17195, Note_off_c, 8, 44, 127
2, 17195, Note_off_c, 0, 72, 127
2, 17205, Note_on_c, 11, 70, 127
2, 17205, Note_on_c, 8, 44, 127
2, 17324, Note_on_c, 5, 65, 127
2, 17324, Note_on_c, 2, 50, 127
2, 17425, Note_off_c, 2, 50, 127
2, 17425, Note_off_c, 5, 65, 127
2, 17443, Note_on_c, 3, 63, 127
2, 17443, Note_on_c, 0, 48, 127
2, 17544, Note_off_c, 0, 48, 127
2, 17544, Note_off_c, 3, 63, 127
2, 17562, Note_on_c, 5, 65, 127
2, 17562, Note_on_c, 2, 50, 127
2, 17663, Note_off_c, 2, 50, 127
2, 17663, Note_off_c, 5, 65, 127
2, 17681, Note_on_c, 2, 62, 127
2, 17681, Note_on_c, 5, 53, 127
2, 17800, Note_on_c, 5, 65, 127
2, 17800, Note_on_c, 2, 50, 127
2, 17901, Note_off_c, 2, 50, 127
2, 17901, Note_off_c, 5, 65, 127
2, 17920, Note_on_c, 3, 63, 127
2, 17920, Note_on_c, 0, 48, 127
2, 18021, Note_off_c, 0, 48, 127
2, 18021, Note_off_c, 3, 63, 127
2, 18039, Note_on_c, 5, 65, 127
2, 18039, Note_on_c, 2, 50, 127
2, 18137, Note_off_c, 5, 53, 127
2, 18137, Note_off_c, 2, 62, 127
2, 18140, Note_off_c, 2, 50, 127
2, 18140, Note_off_c, 5, 65, 127
2, 18147, Note_off_c, 8, 44, 127
2, 18147, Note_off_c, 11, 70, 127
2, 18158, Note_on_c, 11, 70, 127
2, 18158, Note_on_c, 8, 44, 127
2, 18277, Note_on_c, 5, 65, 127
2, 18277, Note_on_c, 2, 50, 127
2, 18378, Note_off_c, 2, 50, 127
2, 18378, Note_off_c, 5, 65, 127
2, 18396, Note_on_c, 3, 63, 127
2, 18396, Note_on_c, 0, 48, 127
2, 18497, Note_off_c, 0, 48, 127
2, 18497, Note_off_c, 3, 63, 127
2, 18515, Note_on_c, 5, 65, 127
2, 18515, Note_on_c, 2, 50, 127
2, 18616, Note_off_c, 2, 50, 127
2, 18616, Note_off_c, 5, 65, 127
2, 18634, Note_on_c, 2, 62, 127
2, 18634, Note_on_c, 5, 53, 127
2, 18753, Note_on_c, 5, 65, 127
2, 18753, Note_on_c, 2, 50, 127
2, 18854, Note_off_c, 2, 50, 127
2, 18854, Note_off_c, 5, 65, 127
2, 18872, Note_on_c, 3, 63, 127
2, 18872, Note_on_c, 0, 48, 127
2, 18973, Note_off_c, 0, 48, 127
2, 18973, Note_off_c, 3, 63, 127
2, 18991, Note_on_c, 5, 65, 127
2, 18991, Note_on_c, 2, 50, 127
2, 19090, Note_off_c, 5, 53, 127
2, 19090, Note_off_c, 2, 62, 127
2, 19092, Note_off_c, 2, 50, 127
2, 19092, Note_off_c, 5, 65, 127
2, 19100, Note_off_c, 8, 44, 127
2, 19100, Note_off_c, 11, 70, 127
2, 19110, Note_on_c, 11, 70, 127
2, 19110, Note_on_c, 7, 43, 127
2, 19229, Note_on_c, 7, 67, 127
2, 19229, Note_on_c, 3, 51, 127
2, 19330, Note_off_c, 3, 51, 127
2, 19330, Note_off_c, 7, 67, 127
2, 19348, Note_on_c, 5, 65, 127
2, 19348, Note_on_c, 2, 50, 127
2, 19449, Note_off_c, 2, 50, 127
2, 19449, Note_off_c, 5, 65, 127
2, 19467, Note_on_c, 7, 67, 127
2, 19467, Note_on_c, 3, 51, 127
2, 19568, Note_off_c, 3, 51, 127
2, 19568, Note_off_c, 7, 67, 127
2, 19586, Note_on_c, 3, 63, 127
2, 19586, Note_on_c, 7, 55, 127
2, 19705, Note_on_c, 7, 67, 127
2, 19705, Note_on_c, 3, 51, 127
2, 19806, Note_off_c, 3, 51, 127
2, 19806, Note_off_c, 7, 67, 127
2, 19824, Note_on_c, 5, 65, 127
2, 19824, Note_on_c, 2, 50, 127
2, 19925, Note_off_c, 2, 50, 127
2, 19925, Note_off_c, 5, 65, 127
2, 19943, Note_on_c, 7, 67, 127
2, 19943, Note_on_c, 3, 51, 127
2, 20042, Note_off_c, 7, 55, 127
2, 20042, Note_off_c, 3, 63, 127
2, 20044, Note_off_c, 3, 51, 127
2, 20044, Note_off_c, 7, 67, 127
2, 20052, Note_off_c, 7, 43, 127
2, 20052, Note_off_c, 11, 70, 127
2, 20062, Note_on_c, 11, 70, 127
2, 20062, Note_on_c, 7, 43, 127
2, 20181, Note_on_c, 7, 67, 127
2, 20181, Note_on_c, 3, 51, 127
2, 20282, Note_off_c, 3, 51, 127
2, 20282, Note_off_c, 7, 67, 127
2, 20300, Note_on_c, 5, 65, 127
2, 20300, Note_on_c, 2, 50, 127
2, 20401, Note_off_c, 2, 50, 127
2, 20401, Note_off_c, 5, 65, 127
2, 20419, Note_on_c, 7, 67, 127
2, 20419, Note_on_c, 3, 51, 127
2, 20520, Note_off_c, 3, 51, 127
2, 20520, Note_off_c, 7, 67, 127
2, 20538, Note_on_c, 3, 63, 127
2, 20538, Note_on_c, 7, 55, 127
2, 20657, Note_on_c, 7, 67, 127
2, 20657, Note_on_c, 3, 51, 127
2, 20758, Note_off_c, 3, 51, 127
2, 20758, Note_off_c, 7, 67, 127
2, 20776, Note_on_c, 5, 65, 127
2, 20776, Note_on_c, 2, 50, 127
2, 20877, Note_off_c, 2, 50, 127
2, 20877, Note_off_c, 5, 65, 127
2, 20896, Note_on_c, 7, 67, 127
2, 20896, Note_on_c, 3, 51, 127
2, 20994, Note_off_c, 7, 55, 127
2, 20994, Note_off_c, 3, 63, 127
2, 20997, Note_off_c, 3, 51, 127
2, 20997, Note_off_c, 7, 67, 127
2, 21004, Note_off_c, 7, 43, 127
2, 21004, Note_off_c, 11, 70, 127
2, 21015, Note_on_c, 8, 68, 127
2, 21015, Note_on_c, 0, 48, 127
2, 21134, Note_on_c, 7, 67, 127
2, 21134, Note_on_c, 3, 51, 127
2, 21235, Note_off_c, 3, 51, 127
2, 21235, Note_off_c, 7, 67, 127
2, 21253, Note_on_c, 5, 65, 127
2, 21253, Note_on_c, 2, 50, 127
2, 21354, Note_off_c, 2, 50, 127
2, 21354, Note_off_c, 5, 65, 127
2, 21372, Note_on_c, 7, 67, 127
2, 21372, Note_on_c, 3, 51, 127
2, 21473, Note_off_c, 3, 51, 127
2, 21473, Note_off_c, 7, 67, 127
2, 21491, Note_on_c, 3, 63, 127
2, 21491, Note_on_c, 8, 56, 127
2, 21531, Note_off_c, 3, 63, 127
2, 21610, Note_on_c, 7, 67, 127
2, 21610, Note_on_c, 3, 51, 127
2, 21711, Note_off_c, 3, 51, 127
2, 21711, Note_off_c, 7, 67, 127
2, 21729, Note_on_c, 5, 65, 127
2, 21729, Note_on_c, 2, 50, 127
2, 21830, Note_off_c, 2, 50, 127
2, 21830, Note_off_c, 5, 65, 127
2, 21848, Note_on_c, 7, 67, 127
2, 21848, Note_on_c, 3, 51, 127
2, 21891, Note_off_c, 8, 56, 127
2, 21949, Note_off_c, 3, 51, 127
2, 21949, Note_off_c, 7, 67, 127
2, 21957, Note_off_c, 0, 48, 127
2, 21957, Note_off_c, 8, 68, 127
2, 21967, Note_on_c, 8, 68, 127
2, 21967, Note_on_c, 0, 48, 127
2, 22086, Note_on_c, 7, 67, 127
2, 22086, Note_on_c, 3, 51, 127
2, 22187, Note_off_c, 3, 51, 127
2, 22187, Note_off_c, 7, 67, 127
2, 22205, Note_on_c, 5, 65, 127
2, 22205, Note_on_c, 2, 50, 127
2, 22306, Note_off_c, 2, 50, 127
2, 22306, Note_off_c, 5, 65, 127
2, 22324, Note_on_c, 7, 67, 127
2, 22324, Note_on_c, 3, 51, 127
2, 22425, Note_off_c, 3, 51, 127
2, 22425, Note_off_c, 7, 67, 127
2, 22443, Note_on_c, 3, 63, 127
2, 22443, Note_on_c, 8, 56, 127
2, 22562, Note_on_c, 7, 67, 127
2, 22562, Note_on_c, 3, 51, 127
2, 22663, Note_off_c, 3, 51, 127
2, 22663, Note_off_c, 7, 67, 127
2, 22681, Note_on_c, 5, 65, 127
2, 22681, Note_on_c, 2, 50, 127
2, 22782, Note_off_c, 2, 50, 127
2, 22782, Note_off_c, 5, 65, 127
2, 22793, Note_off_c, 8, 56, 127
2, 22793, Note_off_c, 3, 63, 127
2, 22800, Note_on_c, 7, 67, 127
2, 22800, Note_on_c, 3, 51, 127
2, 22901, Note_off_c, 3, 51, 127
2, 22901, Note_off_c, 7, 67, 127
2, 22909, Note_off_c, 0, 48, 127
2, 22909, Note_off_c, 8, 68, 127
2, 22919, Note_on_c, 8, 68, 127
2, 22919, Note_on_c, 2, 50, 127
2, 23038, Note_on_c, 2, 62, 127
2, 23038, Note_on_c, 5, 53, 127
2, 23139, Note_off_c, 5, 53, 127
2, 23139, Note_off_c, 2, 62, 127
2, 23157, Note_on_c, 0, 60, 127
2, 23157, Note_on_c, 3, 51, 127
2, 23258, Note_off_c, 3, 51, 127
2, 23258, Note_off_c, 0, 60, 127
2, 23276, Note_on_c, 2, 62, 127
2, 23276, Note_on_c, 5, 53, 127
2, 23377, Note_off_c, 5, 53, 127
2, 23377, Note_off_c, 2, 62, 127
2, 23395, Note_on_c, 11, 58, 127
2, 23395, Note_on_c, 8, 56, 127
2, 23514, Note_on_c, 2, 62, 127
2, 23514, Note_on_c, 5, 53, 127
2, 23615, Note_off_c, 5, 53, 127
2, 23615, Note_off_c, 2, 62, 127
2, 23633, Note_on_c, 0, 60, 127
2, 23633, Note_on_c, 3, 51, 127
2, 23734, Note_off_c, 3, 51, 127
2, 23734, Note_off_c, 0, 60, 127
2, 23745, Note_off_c, 8, 56, 127
2, 23745, Note_off_c, 11, 58, 127
2, 23752, Note_on_c, 2, 62, 127
2, 23752, Note_on_c, 5, 53, 127
2, 23853, Note_off_c, 5, 53, 127
2, 23853, Note_off_c, 2, 62, 127
2, 23861, Note_off_c, 2, 50, 127
2, 23861, Note_off_c, 8, 68, 127
2, 23872, Note_on_c, 8, 68, 127
2, 23872, Note_on_c, 2, 50, 127
2, 23991, Note_on_c, 2, 62, 127
2, 23991, Note_on_c, 5, 53, 127
2, 24092, Note_off_c, 5, 53, 127
2, 24092, Note_off_c, 2, 62, 127
2, 24110, Note_on_c, 0, 60, 127
2, 24110, Note_on_c, 3, 51, 127
2, 24211, Note_off_c, 3, 51, 127
2, 24211, Note_off_c, 0, 60, 127
2, 24229, Note_on_c, 2, 62, 127
2, 24229, Note_on_c, 5, 53, 127
2, 24330, Note_off_c, 5, 53, 127
2, 24330, Note_off_c, 2, 62, 127
2, 24348, Note_on_c, 11, 58, 127
2, 24348, Note_on_c, 8, 56, 127
2, 24467, Note_on_c, 2, 62, 127
2, 24467, Note_on_c, 5, 53, 127
2, 24568, Note_off_c, 5, 53, 127
2, 24568, Note_off_c, 2, 62, 127
2, 24586, Note_on_c, 0, 60, 127
2, 24586, Note_on_c, 3, 51, 127
2, 24648, Note_off_c, 8, 56, 127
2, 24648, Note_off_c, 11, 58, 127
2, 24687, Note_off_c, 3, 51, 127
2, 24687, Note_off_c, 0, 60, 127
2, 24705, Note_on_c, 2, 62, 127
2, 24705, Note_on_c, 5, 53, 127
2, 24806, Note_off_c, 5, 53, 127
2, 24806, Note_off_c, 2, 62, 127
2, 24814, Note_off_c, 2, 50, 127
2, 24814, Note_off_c, 8, 68, 127
2, 24824, Note_on_c, 7, 67, 127
2, 24824, Note_on_c, 3, 51, 127
2, 24943, Note_on_c, 11, 58, 127
2, 24943, Note_on_c, 7, 55, 127
2, 25044, Note_off_c, 7, 55, 127
2, 25044, Note_off_c, 11, 58, 127
2, 25062, Note_on_c, 8, 56, 127
2, 25062, Note_on_c, 5, 53, 127
2, 25163, Note_off_c, 5, 53, 127
2, 25163, Note_off_c, 8, 56, 127
2, 25181, Note_on_c, 11, 58, 127
2, 25181, Note_on_c, 7, 55, 127
2, 25282, Note_off_c, 7, 55, 127
2, 25282, Note_off_c, 11, 58, 127
2, 25295, Note_off_c, 7, 67, 127
2, 25300, Note_on_c, 3, 63, 127
2, 25300, Note_on_c, 8, 56, 127
2, 25401, Note_off_c, 8, 56, 127
2, 25419, Note_on_c, 11, 58, 127
2, 25419, Note_on_c, 7, 55, 127
2, 25520, Note_off_c, 7, 55, 127
2, 25520, Note_off_c, 11, 58, 127
2, 25538, Note_on_c, 8, 56, 127
2, 25538, Note_on_c, 5, 53, 127
2, 25639, Note_off_c, 5, 53, 127
2, 25639, Note_off_c, 8, 56, 127
2, 25657, Note_on_c, 11, 58, 127
2, 25657, Note_on_c, 7, 55, 127
2, 25758, Note_off_c, 7, 55, 127
2, 25758, Note_off_c, 11, 58, 127
2, 25766, Note_off_c, 3, 51, 127
2, 25771, Note_off_c, 3, 63, 127
2, 25776, Note_on_c, 7, 67, 127
2, 25776, Note_on_c, 3, 51, 127
2, 25895, Note_on_c, 11, 58, 127
2, 25895, Note_on_c, 7, 55, 127
2, 25996, Note_off_c, 7, 55, 127
2, 25996, Note_off_c, 11, 58, 127
2, 26014, Note_on_c, 8, 56, 127
2, 26014, Note_on_c, 5, 53, 127
2, 26115, Note_off_c, 5, 53, 127
2, 26115, Note_off_c, 8, 56, 127
2, 26133, Note_on_c, 11, 58, 127
2, 26133, Note_on_c, 7, 55, 127
2, 26234, Note_off_c, 7, 55, 127
2, 26234, Note_off_c, 11, 58, 127
2, 26247, Note_off_c, 7, 67, 127
2, 26252, Note_on_c, 3, 63, 127
2, 26252, Note_on_c, 8, 56, 127
2, 26353, Note_off_c, 8, 56, 127
2, 26371, Note_on_c, 11, 58, 127
2, 26371, Note_on_c, 7, 55, 127
2, 26472, Note_off_c, 7, 55, 127
2, 26472, Note_off_c, 11, 58, 127
2, 26490, Note_on_c, 8, 56, 127
2, 26490, Note_on_c, 5, 53, 127
2, 26591, Note_off_c, 5, 53, 127
2, 26591, Note_off_c, 8, 56, 127
2, 26609, Note_on_c, 11, 58, 127
2, 26609, Note_on_c, 7, 55, 127
2, 26710, Note_off_c, 7, 55, 127
2, 26710, Note_off_c, 11, 58, 127
2, 26718, Note_off_c, 3, 51, 127
2, 26723, Note_off_c, 3, 63, 127
2, 26728, Note_on_c, 5, 65, 127
2, 26728, Note_on_c, 3, 51, 127
2, 26848, Note_on_c, 0, 60, 127
2, 26848, Note_on_c, 10, 57, 127
2, 26949, Note_off_c, 10, 57, 127
2, 26949, Note_off_c, 0, 60, 127
2, 26967, Note_on_c, 11, 58, 127
2, 26967, Note_on_c, 7, 55, 127
2, 27068, Note_off_c, 7, 55, 127
2, 27068, Note_off_c, 11, 58, 127
2, 27086, Note_on_c, 0, 60, 127
2, 27086, Note_on_c, 10, 57, 127
2, 27187, Note_off_c, 10, 57, 127
2, 27187, Note_off_c, 0, 60, 127
2, 27205, Note_on_c, 10, 57, 127
2, 27205, Note_on_c, 5, 53, 127
2, 27306, Note_off_c, 10, 57, 127
2, 27324, Note_on_c, 0, 60, 127
2, 27324, Note_on_c, 10, 57, 127
2, 27425, Note_off_c, 10, 57, 127
2, 27425, Note_off_c, 0, 60, 127
2, 27443, Note_on_c, 11, 58, 127
2, 27443, Note_on_c, 7, 55, 127
2, 27544, Note_off_c, 7, 55, 127
2, 27544, Note_off_c, 11, 58, 127
2, 27562, Note_on_c, 0, 60, 127
2, 27562, Note_on_c, 10, 57, 127
2, 27661, Note_off_c, 5, 53, 127
2, 27663, Note_off_c, 10, 57, 127
2, 27663, Note_off_c, 0, 60, 127
2, 27670, Note_off_c, 3, 51, 127
2, 27670, Note_off_c, 5, 65, 127
2, 27681, Note_on_c, 5, 65, 127
2, 27681, Note_on_c, 3, 51, 127
2, 27800, Note_on_c, 0, 60, 127
2, 27800, Note_on_c, 10, 57, 127
2, 27901, Note_off_c, 10, 57, 127
2, 27901, Note_off_c, 0, 60, 127
2, 27919, Note_on_c, 11, 58, 127
2, 27919, Note_on_c, 7, 55, 127
2, 28020, Note_off_c, 7, 55, 127
2, 28020, Note_off_c, 11, 58, 127
2, 28038, Note_on_c, 0, 60, 127
2, 28038, Note_on_c, 10, 57, 127
2, 28139, Note_off_c, 10, 57, 127
2, 28139, Note_off_c, 0, 60, 127
2, 28157, Note_on_c, 10, 57, 127
2, 28157, Note_on_c, 5, 53, 127
2, 28258, Note_off_c, 10, 57, 127
2, 28276, Note_on_c, 0, 60, 127
2, 28276, Note_on_c, 10, 57, 127
2, 28377, Note_off_c, 10, 57, 127
2, 28377, Note_off_c, 0, 60, 127
2, 28395, Note_on_c, 11, 58, 127
2, 28395, Note_on_c, 7, 55, 127
2, 28496, Note_off_c, 7, 55, 127
2, 28496, Note_off_c, 11, 58, 127
2, 28514, Note_on_c, 0, 60, 127
2, 28514, Note_on_c, 10, 57, 127
2, 28609, Note_off_c, 5, 53, 127
2, 28615, Note_off_c, 10, 57, 127
2, 28615, Note_off_c, 0, 60, 127
2, 28623, Note_off_c, 3, 51, 127
2, 28623, Note_off_c, 5, 65, 127
2, 28633, Note_on_c, 5, 65, 127
2, 28633, Note_on_c, 2, 50, 127
2, 28752, Note_on_c, 2, 62, 127
2, 28752, Note_on_c, 5, 53, 127
2, 28853, Note_off_c, 5, 53, 127
2, 28853, Note_off_c, 2, 62, 127
2, 28871, Note_on_c, 0, 60, 127
2, 28871, Note_on_c, 3, 51, 127
2, 28972, Note_off_c, 3, 51, 127
2, 28972, Note_off_c, 0, 60, 127
2, 28990, Note_on_c, 2, 62, 127
2, 28990, Note_on_c, 5, 53, 127
2, 29091, Note_off_c, 5, 53, 127
2, 29091, Note_off_c, 2, 62, 127
2, 29109, Note_on_c, 12, 59, 127
2, 29109, Note_on_c, 8, 56, 127
2, 29228, Note_on_c, 2, 62, 127
2, 29228, Note_on_c, 5, 53, 127
2, 29329, Note_off_c, 5, 53, 127
2, 29329, Note_off_c, 2, 62, 127
2, 29344, Note_off_c, 8, 56, 127
2, 29347, Note_on_c, 0, 60, 127
2, 29347, Note_on_c, 3, 51, 127
2, 29448, Note_off_c, 3, 51, 127
2, 29448, Note_off_c, 0, 60, 127
2, 29466, Note_on_c, 2, 62, 127
2, 29466, Note_on_c, 5, 53, 127
2, 29567, Note_off_c, 5, 53, 127
2, 29567, Note_off_c, 2, 62, 127
2, 29575, Note_off_c, 2, 50, 127
2, 29575, Note_off_c, 5, 65, 127
2, 29585, Note_on_c, 5, 65, 127
2, 29585, Note_on_c, 2, 50, 127
2, 29659, Note_off_c, 12, 59, 127
2, 29704, Note_on_c, 2, 62, 127
2, 29704, Note_on_c, 5, 53, 127
2, 29805, Note_off_c, 5, 53, 127
2, 29805, Note_off_c, 2, 62, 127
2, 29824, Note_on_c, 0, 60, 127
2, 29824, Note_on_c, 3, 51, 127
2, 29925, Note_off_c, 3, 51, 127
2, 29925, Note_off_c, 0, 60, 127
2, 29943, Note_on_c, 2, 62, 127
2, 29943, Note_on_c, 5, 53, 127
2, 30044, Note_off_c, 5, 53, 127
2, 30044, Note_off_c, 2, 62, 127
2, 30062, Note_on_c, 12, 59, 127
2, 30062, Note_on_c, 8, 56, 127
2, 30181, Note_on_c, 2, 62, 127
2, 30181, Note_on_c, 5, 53, 127
2, 30282, Note_off_c, 5, 53, 127
2, 30282, Note_off_c, 2, 62, 127
2, 30297, Note_off_c, 8, 56, 127
2, 30300, Note_on_c, 0, 60, 127
2, 30300, Note_on_c, 3, 51, 127
2, 30401, Note_off_c, 3, 51, 127
2, 30401, Note_off_c, 0, 60, 127
2, 30419, Note_on_c, 2, 62, 127
2, 30419, Note_on_c, 5, 53, 127
2, 30512, Note_off_c, 12, 59, 127
2, 30520, Note_off_c, 5, 53, 127
2, 30520, Note_off_c, 2, 62, 127
2, 30527, Note_off_c, 2, 50, 127
2, 30527, Note_off_c, 5, 65, 127
2, 30538, Note_on_c, 5, 65, 127
2, 30538, Note_on_c, 0, 48, 127
2, 30657, Note_on_c, 2, 62, 127
2, 30657, Note_on_c, 5, 53, 127
2, 30758, Note_off_c, 5, 53, 127
2, 30758, Note_off_c, 2, 62, 127
2, 30776, Note_on_c, 0, 60, 127
2, 30776, Note_on_c, 4, 52, 127
2, 30877, Note_off_c, 4, 52, 127
2, 30877, Note_off_c, 0, 60, 127
2, 30895, Note_on_c, 2, 62, 127
2, 30895, Note_on_c, 5, 53, 127
2, 30996, Note_off_c, 5, 53, 127
2, 30996, Note_off_c, 2, 62, 127
2, 31014, Note_on_c, 12, 59, 127
2, 31014, Note_on_c, 8, 56, 127
2, 31133, Note_on_c, 2, 62, 127
2, 31133, Note_on_c, 5, 53, 127
2, 31234, Note_off_c, 5, 53, 127
2, 31234, Note_off_c, 2, 62, 127
2, 31252, Note_on_c, 0, 60, 127
2, 31252, Note_on_c, 4, 52, 127
2, 31294, Note_off_c, 12, 59, 127
2, 31353, Note_off_c, 4, 52, 127
2, 31353, Note_off_c, 0, 60, 127
2, 31371, Note_on_c, 2, 62, 127
2, 31371, Note_on_c, 5, 53, 127
2, 31470, Note_off_c, 8, 56, 127
2, 31472, Note_off_c, 5, 53, 127
2, 31472, Note_off_c, 2, 62, 127
2, 31480, Note_off_c, 0, 48, 127
2, 31480, Note_off_c, 5, 65, 127
2, 31490, Note_on_c, 5, 65, 127
2, 31490, Note_on_c, 0, 48, 127
2, 31609, Note_on_c, 2, 62, 127
2, 31609, Note_on_c, 5, 53, 127
2, 31710, Note_off_c, 5, 53, 127
2, 31710, Note_off_c, 2, 62, 127
2, 31728, Note_on_c, 0, 60, 127
2, 31728, Note_on_c, 4, 52, 127
2, 31829, Note_off_c, 4, 52, 127
2, 31829, Note_off_c, 0, 60, 127
2, 31847, Note_on_c, 2, 62, 127
2, 31847, Note_on_c, 5, 53, 127
2, 31948, Note_off_c, 5, 53, 127
2, 31948, Note_off_c, 2, 62, 127
2, 31966, Note_on_c, 12, 59, 127
2, 31966, Note_on_c, 8, 56, 127
2, 32067, Note_off_c, 12, 59, 127
2, 32085, Note_on_c, 2, 62, 127
2, 32085, Note_on_c, 5, 53, 127
2, 32186, Note_off_c, 5, 53, 127
2, 32186, Note_off_c, 2, 62, 127
2, 32204, Note_on_c, 0, 60, 127
2, 32204, Note_on_c, 4, 52, 127
2, 32246, Note_off_c, 8, 56, 127
2, 32305, Note_off_c, 4, 52, 127
2, 32305, Note_off_c, 0, 60, 127
2, 32323, Note_on_c, 2, 62, 127
2, 32323, Note_on_c, 5, 53, 127
2, 32424, Note_off_c, 5, 53, 127
2, 32424, Note_off_c, 2, 62, 127
2, 32432, Note_off_c, 0, 48, 127
2, 32432, Note_off_c, 5, 65, 127
2, 32442, Note_on_c, 3, 63, 127
2, 32442, Note_on_c, 0, 48, 127
2, 32561, Note_on_c, 0, 60, 127
2, 32561, Note_on_c, 3, 51, 127
2, 32662, Note_off_c, 3, 51, 127
2, 32662, Note_off_c, 0, 60, 127
2, 32680, Note_on_c, 12, 59, 127
2, 32680, Note_on_c, 2, 50, 127
2, 32781, Note_off_c, 2, 50, 127
2, 32781, Note_off_c, 12, 59, 127
2, 32800, Note_on_c, 0, 60, 127
2, 32800, Note_on_c, 3, 51, 127
2, 32901, Note_off_c, 3, 51, 127
2, 32901, Note_off_c, 0, 60, 127
2, 32919, Note_on_c, 7, 55, 127
2, 32919, Note_on_c, 5, 53, 127
2, 33020, Note_off_c, 5, 53, 127
2, 33038, Note_on_c, 0, 60, 127
2, 33038, Note_on_c, 3, 51, 127
2, 33139, Note_off_c, 3, 51, 127
2, 33139, Note_off_c, 0, 60, 127
2, 33157, Note_on_c, 12, 59, 127
2, 33157, Note_on_c, 2, 50, 127
2, 33169, Note_off_c, 7, 55, 127
2, 33258, Note_off_c, 2, 50, 127
2, 33258, Note_off_c, 12, 59, 127
2, 33276, Note_on_c, 0, 60, 127
2, 33276, Note_on_c, 3, 51, 127
2, 33377, Note_off_c, 3, 51, 127
2, 33377, Note_off_c, 0, 60, 127
2, 33384, Note_off_c, 0, 48, 127
2, 33384, Note_off_c, 3, 63, 127
2, 33395, Note_on_c, 3, 63, 127
2, 33395, Note_on_c, 11, 46, 127
2, 33514, Note_on_c, 0, 60, 127
2, 33514, Note_on_c, 3, 51, 127
2, 33615, Note_off_c, 3, 51, 127
2, 33615, Note_off_c, 0, 60, 127
2, 33633, Note_on_c, 12, 59, 127
2, 33633, Note_on_c, 2, 50, 127
2, 33734, Note_off_c, 2, 50, 127
2, 33734, Note_off_c, 12, 59, 127
2, 33752, Note_on_c, 0, 60, 127
2, 33752, Note_on_c, 3, 51, 127
2, 33853, Note_off_c, 3, 51, 127
2, 33853, Note_off_c, 0, 60, 127
2, 33871, Note_on_c, 7, 55, 127
2, 33871, Note_on_c, 5, 53, 127
2, 33972, Note_off_c, 5, 53, 127
2, 33990, Note_on_c, 0, 60, 127
2, 33990, Note_on_c, 3, 51, 127
2, 34071, Note_off_c, 7, 55, 127
2, 34091, Note_off_c, 3, 51, 127
2, 34091, Note_off_c, 0, 60, 127
2, 34109, Note_on_c, 12, 59, 127
2, 34109, Note_on_c, 2, 50, 127
2, 34210, Note_off_c, 2, 50, 127
2, 34210, Note_off_c, 12, 59, 127
2, 34228, Note_on_c, 0, 60, 127
2, 34228, Note_on_c, 3, 51, 127
2, 34329, Note_off_c, 3, 51, 127
2, 34329, Note_off_c, 0, 60, 127
2, 34337, Note_off_c, 11, 46, 127
2, 34337, Note_off_c, 3, 63, 127
2, 34347, Note_on_c, 5, 53, 127
2, 34347, Note_on_c, 8, 44, 127
2, 34467, Note_on_c, 3, 63, 127
2, 34467, Note_on_c, 0, 48, 127
2, 34569, Note_off_c, 0, 48, 127
2, 34569, Note_off_c, 3, 63, 127
2, 34588, Note_on_c, 2, 62, 127
2, 34588, Note_on_c, 12, 47, 127
2, 34690, Note_off_c, 12, 47, 127
2, 34690, Note_off_c, 2, 62, 127
2, 34708, Note_on_c, 3, 63, 127
2, 34708, Note_on_c, 0, 48, 127
2, 34810, Note_off_c, 0, 48, 127
2, 34810, Note_off_c, 3, 63, 127
2, 34828, Note_on_c, 5, 65, 127
2, 34828, Note_on_c, 2, 50, 127
2, 34930, Note_off_c, 2, 50, 127
2, 34930, Note_off_c, 5, 65, 127
2, 34948, Note_on_c, 3, 63, 127
2, 34948, Note_on_c, 0, 48, 127
2, 35050, Note_off_c, 0, 48, 127
2, 35050, Note_off_c, 3, 63, 127
2, 35069, Note_on_c, 2, 62, 127
2, 35069, Note_on_c, 12, 47, 127
2, 35171, Note_off_c, 12, 47, 127
2, 35171, Note_off_c, 2, 62, 127
2, 35189, Note_on_c, 3, 63, 127
2, 35189, Note_on_c, 0, 48, 127
2, 35291, Note_off_c, 0, 48, 127
2, 35291, Note_off_c, 3, 63, 127
2, 35299, Note_off_c, 8, 44, 127
2, 35299, Note_off_c, 5, 53, 127
2, 35309, Note_on_c, 5, 53, 127
2, 35309, Note_on_c, 8, 44, 127
2, 35430, Note_on_c, 3, 63, 127
2, 35430, Note_on_c, 0, 48, 127
2, 35532, Note_off_c, 0, 48, 127
2, 35532, Note_off_c, 3, 63, 127
2, 35550, Note_on_c, 2, 62, 127
2, 35550, Note_on_c, 12, 47, 127
2, 35652, Note_off_c, 12, 47, 127
2, 35652, Note_off_c, 2, 62, 127
2, 35670, Note_on_c, 3, 63, 127
2, 35670, Note_on_c, 0, 48, 127
2, 35772, Note_off_c, 0, 48, 127
2, 35772, Note_off_c, 3, 63, 127
2, 35790, Note_on_c, 5, 65, 127
2, 35790, Note_on_c, 2, 50, 127
2, 35892, Note_off_c, 2, 50, 127
2, 35892, Note_off_c, 5, 65, 127
2, 35911, Note_on_c, 3, 63, 127
2, 35911, Note_on_c, 0, 48, 127
2, 36013, Note_off_c, 0, 48, 127
2, 36013, Note_off_c, 3, 63, 127
2, 36031, Note_on_c, 2, 62, 127
2, 36031, Note_on_c, 12, 47, 127
2, 36133, Note_off_c, 12, 47, 127
2, 36133, Note_off_c, 2, 62, 127
2, 36151, Note_on_c, 3, 63, 127
2, 36151, Note_on_c, 0, 48, 127
2, 36239, Note_off_c, 5, 53, 127
2, 36253, Note_off_c, 0, 48, 127
2, 36253, Note_off_c, 3, 63, 127
2, 36261, Note_off_c, 8, 44, 127
2, 36272, Note_on_c, 6, 54, 127
2, 36272, Note_on_c, 10, 45, 127
2, 36392, Note_on_c, 0, 60, 127
2, 36392, Note_on_c, 3, 51, 127
2, 36494, Note_off_c, 3, 51, 127
2, 36494, Note_off_c, 0, 60, 127
2, 36512, Note_on_c, 12, 59, 127
2, 36512, Note_on_c, 2, 50, 127
2, 36614, Note_off_c, 2, 50, 127
2, 36614, Note_off_c, 12, 59, 127
2, 36632, Note_on_c, 0, 60, 127
2, 36632, Note_on_c, 3, 51, 127
2, 36734, Note_off_c, 3, 51, 127
2, 36734, Note_off_c, 0, 60, 127
2, 36753, Note_on_c, 3, 63, 127
2, 36753, Note_on_c, 0, 48, 127
2, 36854, Note_off_c, 3, 63, 127
2, 36873, Note_on_c, 0, 60, 127
2, 36873, Note_on_c, 3, 51, 127
2, 36975, Note_off_c, 3, 51, 127
2, 36975, Note_off_c, 0, 60, 127
2, 36993, Note_on_c, 12, 59, 127
2, 36993, Note_on_c, 2, 50, 127
2, 37095, Note_off_c, 2, 50, 127
2, 37095, Note_off_c, 12, 59, 127
2, 37113, Note_on_c, 0, 60, 127
2, 37113, Note_on_c, 3, 51, 127
2, 37214, Note_off_c, 0, 48, 127
2, 37215, Note_off_c, 3, 51, 127
2, 37215, Note_off_c, 0, 60, 127
2, 37224, Note_off_c, 10, 45, 127
2, 37224, Note_off_c, 6, 54, 127
2, 37234, Note_on_c, 6, 54, 127
2, 37234, Note_on_c, 10, 45, 127
2, 37354, Note_on_c, 0, 60, 127
2, 37354, Note_on_c, 3, 51, 127
2, 37456, Note_off_c, 3, 51, 127
2, 37456, Note_off_c, 0, 60, 127
2, 37474, Note_on_c, 12, 59, 127
2, 37474, Note_on_c, 2, 50, 127
2, 37576, Note_off_c, 2, 50, 127
2, 37576, Note_off_c, 12, 59, 127
2, 37595, Note_on_c, 0, 60, 127
2, 37595, Note_on_c, 3, 51, 127
2, 37684, Note_off_c, 6, 54, 127
2, 37697, Note_off_c, 3, 51, 127
2, 37697, Note_off_c, 0, 60, 127
2, 37715, Note_on_c, 3, 63, 127
2, 37715, Note_on_c, 0, 48, 127
2, 37816, Note_off_c, 3, 63, 127
2, 37835, Note_on_c, 0, 60, 127
2, 37835, Note_on_c, 3, 51, 127
2, 37937, Note_off_c, 3, 51, 127
2, 37937, Note_off_c, 0, 60, 127
2, 37955, Note_on_c, 12, 59, 127
2, 37955, Note_on_c, 2, 50, 127
2, 38057, Note_off_c, 2, 50, 127
2, 38057, Note_off_c, 12, 59, 127
2, 38076, Note_on_c, 0, 60, 127
2, 38076, Note_on_c, 3, 51, 127
2, 38176, Note_off_c, 0, 48, 127
2, 38178, Note_off_c, 3, 51, 127
2, 38178, Note_off_c, 0, 60, 127
2, 38186, Note_off_c, 10, 45, 127
2, 38196, Note_on_c, 3, 63, 127
2, 38196, Note_on_c, 7, 43, 127
2, 38315, Note_on_c, 0, 60, 127
2, 38315, Note_on_c, 3, 51, 127
2, 38416, Note_off_c, 3, 51, 127
2, 38416, Note_off_c, 0, 60, 127
2, 38434, Note_on_c, 12, 59, 127
2, 38434, Note_on_c, 2, 50, 127
2, 38535, Note_off_c, 2, 50, 127
2, 38535, Note_off_c, 12, 59, 127
2, 38553, Note_on_c, 0, 60, 127
2, 38553, Note_on_c, 3, 51, 127
2, 38654, Note_off_c, 3, 51, 127
2, 38654, Note_off_c, 0, 60, 127
2, 38672, Note_on_c, 7, 55, 127
2, 38672, Note_on_c, 5, 53, 127
2, 38791, Note_on_c, 0, 60, 127
2, 38791, Note_on_c, 3, 51, 127
2, 38892, Note_off_c, 3, 51, 127
2, 38892, Note_off_c, 0, 60, 127
2, 38910, Note_on_c, 12, 59, 127
2, 38910, Note_on_c, 2, 50, 127
2, 38952, Note_off_c, 5, 53, 127
2, 39011, Note_off_c, 2, 50, 127
2, 39011, Note_off_c, 12, 59, 127
2, 39029, Note_on_c, 0, 60, 127
2, 39029, Note_on_c, 3, 51, 127
2, 39032, Note_off_c, 7, 55, 127
2, 39130, Note_off_c, 3, 51, 127
2, 39130, Note_off_c, 0, 60, 127
2, 39138, Note_off_c, 7, 43, 127
2, 39138, Note_off_c, 3, 63, 127
2, 39148, Note_on_c, 3, 63, 127
2, 39148, Note_on_c, 7, 43, 127
2, 39267, Note_on_c, 0, 60, 127
2, 39267, Note_on_c, 3, 51, 127
2, 39368, Note_off_c, 3, 51, 127
2, 39368, Note_off_c, 0, 60, 127
2, 39386, Note_on_c, 12, 59, 127
2, 39386, Note_on_c, 2, 50, 127
2, 39487, Note_off_c, 2, 50, 127
2, 39487, Note_off_c, 12, 59, 127
2, 39505, Note_on_c, 0, 60, 127
2, 39505, Note_on_c, 3, 51, 127
2, 39606, Note_off_c, 3, 51, 127
2, 39606, Note_off_c, 0, 60, 127
2, 39624, Note_on_c, 7, 55, 127
2, 39624, Note_on_c, 5, 53, 127
2, 39744, Note_on_c, 0, 60, 127
2, 39744, Note_on_c, 3, 51, 127
2, 39845, Note_off_c, 3, 51, 127
2, 39845, Note_off_c, 0, 60, 127
2, 39863, Note_on_c, 12, 59, 127
2, 39863, Note_on_c, 2, 50, 127
2, 39904, Note_off_c, 5, 53, 127
2, 39964, Note_off_c, 2, 50, 127
2, 39964, Note_off_c, 12, 59, 127
2, 39964, Note_off_c, 7, 55, 127
2, 39982, Note_on_c, 0, 60, 127
2, 39982, Note_on_c, 3, 51, 127
2, 40083, Note_off_c, 3, 51, 127
2, 40083, Note_off_c, 0, 60, 127
2, 40090, Note_off_c, 7, 43, 127
2, 40090, Note_off_c, 3, 63, 127
2, 40101, Note_on_c, 6, 66, 127
2, 40101, Note_on_c, 7, 43, 127
2, 40220, Note_on_c, 0, 60, 127
2, 40220, Note_on_c, 3, 51, 127
2, 40321, Note_off_c, 3, 51, 127
2, 40321, Note_off_c, 0, 60, 127
2, 40339, Note_on_c, 12, 59, 127
2, 40339, Note_on_c, 2, 50, 127
2, 40440, Note_off_c, 2, 50, 127
2, 40440, Note_off_c, 12, 59, 127
2, 40458, Note_on_c, 0, 60, 127
2, 40458, Note_on_c, 3, 51, 127
2, 40559, Note_off_c, 3, 51, 127
2, 40559, Note_off_c, 0, 60, 127
2, 40577, Note_on_c, 10, 57, 127
2, 40577, Note_on_c, 0, 48, 127
2, 40696, Note_on_c, 0, 60, 127
2, 40696, Note_on_c, 3, 51, 127
2, 40797, Note_off_c, 3, 51, 127
2, 40797, Note_off_c, 0, 60, 127
2, 40815, Note_on_c, 12, 59, 127
2, 40815, Note_on_c, 2, 50, 127
2, 40916, Note_off_c, 2, 50, 127
2, 40916, Note_off_c, 12, 59, 127
2, 40934, Note_on_c, 0, 60, 127
2, 40934, Note_on_c, 3, 51, 127
2, 40937, Note_off_c, 10, 57, 127
2, 41033, Note_off_c, 0, 48, 127
2, 41035, Note_off_c, 3, 51, 127
2, 41035, Note_off_c, 0, 60, 127
2, 41043, Note_off_c, 7, 43, 127
2, 41043, Note_off_c, 6, 66, 127
2, 41053, Note_on_c, 6, 66, 127
2, 41053, Note_on_c, 7, 43, 127
2, 41172, Note_on_c, 0, 60, 127
2, 41172, Note_on_c, 3, 51, 127
2, 41273, Note_off_c, 3, 51, 127
2, 41273, Note_off_c, 0, 60, 127
2, 41291, Note_on_c, 12, 59, 127
2, 41291, Note_on_c, 2, 50, 127
2, 41392, Note_off_c, 2, 50, 127
2, 41392, Note_off_c, 12, 59, 127
2, 41410, Note_on_c, 0, 60, 127
2, 41410, Note_on_c, 3, 51, 127
2, 41511, Note_off_c, 3, 51, 127
2, 41511, Note_off_c, 0, 60, 127
2, 41529, Note_on_c, 10, 57, 127
2, 41529, Note_on_c, 0, 48, 127
2, 41648, Note_on_c, 0, 60, 127
2, 41648, Note_on_c, 3, 51, 127
2, 41749, Note_off_c, 3, 51, 127
2, 41749, Note_off_c, 0, 60, 127
2, 41767, Note_on_c, 12, 59, 127
2, 41767, Note_on_c, 2, 50, 127
2, 41868, Note_off_c, 2, 50, 127
2, 41868, Note_off_c, 12, 59, 127
2, 41886, Note_on_c, 0, 60, 127
2, 41886, Note_on_c, 3, 51, 127
2, 41889, Note_off_c, 10, 57, 127
2, 41985, Note_off_c, 0, 48, 127
2, 41987, Note_off_c, 3, 51, 127
2, 41987, Note_off_c, 0, 60, 127
2, 41995, Note_off_c, 7, 43, 127
2, 41995, Note_off_c, 6, 66, 127
2, 42005, Note_on_c, 7, 67, 127
2, 42005, Note_on_c, 7, 43, 127
2, 42124, Note_on_c, 0, 60, 127
2, 42124, Note_on_c, 3, 51, 127
2, 42225, Note_off_c, 3, 51, 127
2, 42225, Note_off_c, 0, 60, 127
2, 42243, Note_on_c, 12, 59, 127
2, 42243, Note_on_c, 2, 50, 127
2, 42344, Note_off_c, 2, 50, 127
2, 42344, Note_off_c, 12, 59, 127
2, 42362, Note_on_c, 0, 60, 127
2, 42362, Note_on_c, 3, 51, 127
2, 42463, Note_off_c, 3, 51, 127
2, 42463, Note_off_c, 0, 60, 127
2, 42481, Note_on_c, 2, 62, 127
2, 42481, Note_on_c, 5, 53, 127
2, 42600, Note_on_c, 0, 60, 127
2, 42600, Note_on_c, 3, 51, 127
2, 42701, Note_off_c, 3, 51, 127
2, 42701, Note_off_c, 0, 60, 127
2, 42720, Note_on_c, 12, 59, 127
2, 42720, Note_on_c, 2, 50, 127
2, 42761, Note_off_c, 5, 53, 127
2, 42821, Note_off_c, 2, 50, 127
2, 42821, Note_off_c, 12, 59, 127
2, 42839, Note_on_c, 0, 60, 127
2, 42839, Note_on_c, 3, 51, 127
2, 42861, Note_off_c, 2, 62, 127
2, 42940, Note_off_c, 3, 51, 127
2, 42940, Note_off_c, 0, 60, 127
2, 42947, Note_off_c, 7, 43, 127
2, 42947, Note_off_c, 7, 67, 127
2, 42958, Note_on_c, 7, 67, 127
2, 42958, Note_on_c, 7, 43, 127
2, 43077, Note_on_c, 0, 60, 127
2, 43077, Note_on_c, 3, 51, 127
2, 43178, Note_off_c, 3, 51, 127
2, 43178, Note_off_c, 0, 60, 127
2, 43196, Note_on_c, 12, 59, 127
2, 43196, Note_on_c, 2, 50, 127
2, 43297, Note_off_c, 2, 50, 127
2, 43297, Note_off_c, 12, 59, 127
2, 43315, Note_on_c, 0, 60, 127
2, 43315, Note_on_c, 3, 51, 127
2, 43416, Note_off_c, 3, 51, 127
2, 43416, Note_off_c, 0, 60, 127
2, 43434, Note_on_c, 2, 62, 127
2, 43434, Note_on_c, 5, 53, 127
2, 43535, Note_off_c, 5, 53, 127
2, 43535, Note_off_c, 2, 62, 127
2, 43553, Note_on_c, 0, 60, 127
2, 43553, Note_on_c, 3, 51, 127
2, 43654, Note_off_c, 3, 51, 127
2, 43654, Note_off_c, 0, 60, 127
2, 43672, Note_on_c, 12, 59, 127
2, 43672, Note_on_c, 2, 50, 127
2, 43773, Note_off_c, 2, 50, 127
2, 43773, Note_off_c, 12, 59, 127
2, 43791, Note_on_c, 0, 60, 127
2, 43791, Note_on_c, 3, 51, 127
2, 43892, Note_off_c, 3, 51, 127
2, 43892, Note_off_c, 0, 60, 127
2, 43900, Note_off_c, 7, 43, 127
2, 43900, Note_off_c, 7, 67, 127
2, 43910, Note_on_c, 8, 68, 127
2, 43910, Note_on_c, 7, 43, 127
2, 44029, Note_on_c, 0, 60, 127
2, 44029, Note_on_c, 3, 51, 127
2, 44130, Note_off_c, 3, 51, 127
2, 44130, Note_off_c, 0, 60, 127
2, 44148, Note_on_c, 12, 59, 127
2, 44148, Note_on_c, 2, 50, 127
2, 44249, Note_off_c, 2, 50, 127
2, 44249, Note_off_c, 12, 59, 127
2, 44267, Note_on_c, 0, 60, 127
2, 44267, Note_on_c, 3, 51, 127
2, 44368, Note_off_c, 3, 51, 127
2, 44368, Note_off_c, 0, 60, 127
2, 44386, Note_on_c, 2, 62, 127
2, 44386, Note_on_c, 5, 53, 127
2, 44487, Note_off_c, 5, 53, 127
2, 44487, Note_off_c, 2, 62, 127
2, 44505, Note_on_c, 0, 60, 127
2, 44505, Note_on_c, 3, 51, 127
2, 44606, Note_off_c, 3, 51, 127
2, 44606, Note_off_c, 0, 60, 127
2, 44624, Note_on_c, 12, 59, 127
2, 44624, Note_on_c, 2, 50, 127
2, 44725, Note_off_c, 2, 50, 127
2, 44725, Note_off_c, 12, 59, 127
2, 44743, Note_on_c, 0, 60, 127
2, 44743, Note_on_c, 3, 51, 127
2, 44844, Note_off_c, 3, 51, 127
2, 44844, Note_off_c, 0, 60, 127
2, 44852, Note_off_c, 7, 43, 127
2, 44852, Note_off_c, 8, 68, 127
2, 44862, Note_on_c, 8, 68, 127
2, 44862, Note_on_c, 7, 43, 127
2, 44963, Note_off_c, 8, 68, 127
2, 44981, Note_on_c, 0, 60, 127
2, 44981, Note_on_c, 3, 51, 127
2, 45071, Note_off_c, 3, 51, 127
2, 45082, Note_off_c, 0, 60, 127
2, 45100, Note_on_c, 12, 59, 127
2, 45100, Note_on_c, 2, 50, 127
2, 45190, Note_off_c, 2, 50, 127
2, 45201, Note_off_c, 12, 59, 127
2, 45219, Note_on_c, 0, 60, 127
2, 45219, Note_on_c, 3, 51, 127
2, 45309, Note_off_c, 3, 51, 127
2, 45320, Note_off_c, 0, 60, 127
2, 45338, Note_on_c, 2, 62, 127
2, 45338, Note_on_c, 5, 53, 127
2, 45428, Note_off_c, 5, 53, 127
2, 45439, Note_off_c, 2, 62, 127
2, 45457, Note_on_c, 0, 60, 127
2, 45457, Note_on_c, 3, 51, 127
2, 45547, Note_off_c, 3, 51, 127
2, 45558, Note_off_c, 0, 60, 127
2, 45576, Note_on_c, 12, 59, 127
2, 45576, Note_on_c, 2, 50, 127
2, 45666, Note_off_c, 2, 50, 127
2, 45677, Note_off_c, 12, 59, 127
2, 45696, Note_on_c, 0, 60, 127
2, 45696, Note_on_c, 3, 51, 127
2, 45786, Note_off_c, 3, 51, 127
2, 45797, Note_off_c, 0, 60, 127
2, 45804, Note_off_c, 7, 43, 127
2, 45824, Note_on_c, 12, 59, 127
2, 45824, Note_on_c, 7, 43, 127
2, 45964, Note_on_c, 12, 47, 127
2, 46080, Note_on_c, 2, 50, 127
2, 46189, Note_off_c, 2, 50, 127
2, 46196, Note_on_c, 5, 53, 127
2, 46285, Note_off_c, 12, 59, 127
2, 46305, Note_off_c, 5, 53, 127
2, 46313, Note_on_c, 8, 56, 127
2, 46422, Note_off_c, 8, 56, 127
2, 46429, Note_on_c, 5, 53, 127
2, 46538, Note_off_c, 5, 53, 127
2, 46546, Note_on_c, 4, 52, 127
2, 46655, Note_off_c, 4, 52, 127
2, 46662, Note_on_c, 5, 53, 127
2, 46771, Note_off_c, 5, 53, 127
2, 46779, Note_on_c, 12, 59, 127
2, 46888, Note_off_c, 12, 59, 127
2, 46896, Note_on_c, 5, 53, 127
2, 47005, Note_off_c, 5, 53, 127
2, 47012, Note_on_c, 2, 62, 127
2, 47121, Note_off_c, 2, 62, 127
2, 47129, Note_on_c, 12, 59, 127
2, 47238, Note_off_c, 12, 59, 127
2, 47245, Note_on_c, 8, 56, 127
2, 47354, Note_off_c, 8, 56, 127
2, 47362, Note_on_c, 5, 53, 127
2, 47471, Note_off_c, 5, 53, 127
2, 47478, Note_on_c, 4, 52, 127
2, 47587, Note_off_c, 4, 52, 127
2, 47595, Note_on_c, 5, 53, 127
2, 47681, Note_off_c, 7, 43, 127
2, 47700, Note_off_c, 12, 47, 127
2, 47704, Note_off_c, 5, 53, 127
2, 47705, Note_on_c, 7, 43, 127
2, 47863, Note_on_c, 0, 48, 127
2, 47982, Note_on_c, 3, 51, 127
2, 48101, Note_on_c, 7, 55, 127
2, 48212, Note_off_c, 7, 55, 127
2, 48220, Note_on_c, 0, 60, 127
2, 48331, Note_off_c, 0, 60, 127
2, 48339, Note_on_c, 7, 55, 127
2, 48450, Note_off_c, 7, 55, 127
2, 48458, Note_on_c, 6, 54, 127
2, 48569, Note_off_c, 6, 54, 127
2, 48577, Note_on_c, 7, 55, 127
2, 48688, Note_off_c, 7, 55, 127
2, 48696, Note_on_c, 3, 63, 127
2, 48807, Note_off_c, 3, 63, 127
2, 48815, Note_on_c, 0, 60, 127
2, 48926, Note_off_c, 0, 60, 127
2, 48934, Note_on_c, 7, 67, 127
2, 49045, Note_off_c, 7, 67, 127
2, 49053, Note_on_c, 3, 63, 127
2, 49164, Note_off_c, 3, 63, 127
2, 49172, Note_on_c, 0, 60, 127
2, 49283, Note_off_c, 0, 60, 127
2, 49291, Note_on_c, 8, 56, 127
2, 49402, Note_off_c, 8, 56, 127
2, 49410, Note_on_c, 7, 55, 127
2, 49521, Note_off_c, 7, 55, 127
2, 49529, Note_on_c, 8, 56, 127
2, 49594, Note_off_c, 3, 51, 127
2, 49602, Note_off_c, 7, 43, 127
2, 49636, Note_off_c, 0, 48, 127
2, 49640, Note_off_c, 8, 56, 127
2, 49655, Note_on_c, 7, 43, 127
2, 49803, Note_on_c, 10, 45, 127
2, 49926, Note_on_c, 6, 54, 127
2, 50048, Note_on_c, 0, 60, 127
2, 50163, Note_off_c, 0, 60, 127
2, 50171, Note_on_c, 3, 63, 127
2, 50286, Note_off_c, 3, 63, 127
2, 50294, Note_on_c, 0, 60, 127
2, 50409, Note_off_c, 0, 60, 127
2, 50417, Note_on_c, 12, 59, 127
2, 50532, Note_off_c, 12, 59, 127
2, 50539, Note_on_c, 0, 60, 127
2, 50654, Note_off_c, 0, 60, 127
2, 50662, Note_on_c, 6, 66, 127
2, 50777, Note_off_c, 6, 66, 127
2, 50785, Note_on_c, 0, 60, 127
2, 50900, Note_off_c, 0, 60, 127
2, 50908, Note_on_c, 10, 69, 127
2, 51023, Note_off_c, 10, 69, 127
2, 51031, Note_on_c, 6, 66, 127
2, 51146, Note_off_c, 6, 66, 127
2, 51153, Note_on_c, 3, 63, 127
2, 51268, Note_off_c, 3, 63, 127
2, 51276, Note_on_c, 0, 60, 127
2, 51391, Note_off_c, 0, 60, 127
2, 51399, Note_on_c, 12, 59, 127
2, 51514, Note_off_c, 12, 59, 127
2, 51540, Note_on_c, 0, 60, 127
2, 51685, Note_off_c, 6, 54, 127
2, 51687, Note_off_c, 10, 45, 127
2, 51692, Note_off_c, 0, 60, 127
2, 51692, Note_off_c, 7, 43, 127
2, 51707, Note_on_c, 7, 43, 127
2, 52111, Note_on_c, 2, 74, 127
2, 52192, Note_off_c, 2, 74, 127
2, 52195, Note_on_c, 0, 72, 127
2, 52276, Note_off_c, 0, 72, 127
2, 52279, Note_on_c, 2, 74, 127
2, 52360, Note_off_c, 2, 74, 127
2, 52364, Note_on_c, 3, 75, 127
2, 52448, Note_on_c, 0, 72, 127
2, 52522, Note_off_c, 3, 75, 127
2, 52529, Note_off_c, 0, 72, 127
2, 52532, Note_on_c, 12, 71, 127
2, 52613, Note_off_c, 12, 71, 127
2, 52617, Note_on_c, 0, 72, 127
2, 52698, Note_off_c, 0, 72, 127
2, 52701, Note_on_c, 10, 69, 127
2, 52785, Note_on_c, 0, 72, 127
2, 52859, Note_off_c, 10, 69, 127
2, 52866, Note_off_c, 0, 72, 127
2, 52870, Note_on_c, 12, 71, 127
2, 52951, Note_off_c, 12, 71, 127
2, 52954, Note_on_c, 0, 72, 127
2, 53035, Note_off_c, 0, 72, 127
2, 53038, Note_on_c, 2, 74, 127
2, 53038, Note_on_c, 7, 55, 127
2, 53123, Note_on_c, 12, 71, 127
2, 53196, Note_off_c, 2, 74, 127
2, 53204, Note_off_c, 12, 71, 127
2, 53207, Note_on_c, 10, 69, 127
2, 53288, Note_off_c, 10, 69, 127
2, 53291, Note_on_c, 12, 71, 127
2, 53345, Note_off_c, 7, 43, 127
2, 53372, Note_off_c, 12, 71, 127
2, 53376, Note_on_c, 7, 67, 127
2, 53413, Note_off_c, 7, 55, 127
2, 53460, Note_on_c, 12, 71, 127
2, 53460, Note_on_c, 2, 62, 127
2, 53534, Note_off_c, 7, 67, 127
2, 53541, Note_off_c, 2, 62, 127
2, 53541, Note_off_c, 12, 71, 127
2, 53544, Note_on_c, 10, 69, 127
2, 53544, Note_on_c, 0, 60, 127
2, 53625, Note_off_c, 0, 60, 127
2, 53625, Note_off_c, 10, 69, 127
2, 53629, Note_on_c, 12, 71, 127
2, 53629, Note_on_c, 2, 62, 127
2, 53710, Note_off_c, 2, 62, 127
2, 53710, Note_off_c, 12, 71, 127
2, 53713, Note_on_c, 0, 72, 127
2, 53713, Note_on_c, 3, 63, 127
2, 53797, Note_on_c, 10, 69, 127
2, 53797, Note_on_c, 0, 60, 127
2, 53871, Note_off_c, 3, 63, 127
2, 53871, Note_off_c, 0, 72, 127
2, 53878, Note_off_c, 0, 60, 127
2, 53878, Note_off_c, 10, 69, 127
2, 53882, Note_on_c, 7, 67, 127
2, 53882, Note_on_c, 12, 59, 127
2, 53963, Note_off_c, 12, 59, 127
2, 53963, Note_off_c, 7, 67, 127
2, 53966, Note_on_c, 10, 69, 127
2, 53966, Note_on_c, 0, 60, 127
2, 54047, Note_off_c, 0, 60, 127
2, 54047, Note_off_c, 10, 69, 127
2, 54050, Note_on_c, 6, 66, 127
2, 54050, Note_on_c, 10, 57, 127
2, 54135, Note_on_c, 10, 69, 127
2, 54135, Note_on_c, 0, 60, 127
2, 54208, Note_off_c, 10, 57, 127
2, 54208, Note_off_c, 6, 66, 127
2, 54216, Note_off_c, 0, 60, 127
2, 54216, Note_off_c, 10, 69, 127
2, 54219, Note_on_c, 7, 67, 127
2, 54219, Note_on_c, 12, 59, 127
2, 54300, Note_off_c, 12, 59, 127
2, 54300, Note_off_c, 7, 67, 127
2, 54303, Note_on_c, 10, 69, 127
2, 54303, Note_on_c, 0, 60, 127
2, 54384, Note_off_c, 0, 60, 127
2, 54384, Note_off_c, 10, 69, 127
2, 54387, Note_on_c, 12, 71, 127
2, 54387, Note_on_c, 2, 62, 127
2, 54472, Note_on_c, 7, 67, 127
2, 54472, Note_on_c, 12, 59, 127
2, 54545, Note_off_c, 2, 62, 127
2, 54545, Note_off_c, 12, 71, 127
2, 54553, Note_off_c, 12, 59, 127
2, 54553, Note_off_c, 7, 67, 127
2, 54556, Note_on_c, 6, 66, 127
2, 54556, Note_on_c, 10, 57, 127
2, 54637, Note_off_c, 10, 57, 127
2, 54637, Note_off_c, 6, 66, 127
2, 54640, Note_on_c, 7, 67, 127
2, 54640, Note_on_c, 12, 59, 127
2, 54721, Note_off_c, 12, 59, 127
2, 54721, Note_off_c, 7, 67, 127
2, 54725, Note_on_c, 2, 62, 127
2, 54725, Note_on_c, 7, 55, 127
2, 54806, Note_off_c, 7, 55, 127
2, 54806, Note_off_c, 2, 62, 127
2, 54809, Note_on_c, 7, 79, 127
2, 54809, Note_on_c, 12, 59, 127
2, 54890, Note_off_c, 12, 59, 127
2, 54890, Note_off_c, 7, 79, 127
2, 54893, Note_on_c, 5, 77, 127
2, 54893, Note_on_c, 10, 57, 127
2, 54974, Note_off_c, 10, 57, 127
2, 54974, Note_off_c, 5, 77, 127
2, 54978, Note_on_c, 7, 79, 127
2, 54978, Note_on_c, 12, 59, 127
2, 55059, Note_off_c, 12, 59, 127
2, 55059, Note_off_c, 7, 79, 127
2, 55062, Note_on_c, 8, 80, 127
2, 55062, Note_on_c, 0, 60, 127
2, 55146, Note_on_c, 5, 77, 127
2, 55146, Note_on_c, 8, 56, 127
2, 55220, Note_off_c, 0, 60, 127
2, 55220, Note_off_c, 8, 80, 127
2, 55227, Note_off_c, 8, 56, 127
2, 55227, Note_off_c, 5, 77, 127
2, 55231, Note_on_c, 3, 75, 127
2, 55231, Note_on_c, 7, 55, 127
2, 55312, Note_off_c, 7, 55, 127
2, 55312, Note_off_c, 3, 75, 127
2, 55315, Note_on_c, 5, 77, 127
2, 55315, Note_on_c, 8, 56, 127
2, 55396, Note_off_c, 8, 56, 127
2, 55396, Note_off_c, 5, 77, 127
2, 55399, Note_on_c, 2, 74, 127
2, 55399, Note_on_c, 5, 53, 127
2, 55484, Note_on_c, 5, 77, 127
2, 55484, Note_on_c, 10, 57, 127
2, 55557, Note_off_c, 5, 53, 127
2, 55557, Note_off_c, 2, 74, 127
2, 55565, Note_off_c, 10, 57, 127
2, 55565, Note_off_c, 5, 77, 127
2, 55568, Note_on_c, 3, 75, 127
2, 55568, Note_on_c, 7, 55, 127
2, 55649, Note_off_c, 7, 55, 127
2, 55649, Note_off_c, 3, 75, 127
2, 55652, Note_on_c, 5, 77, 127
2, 55652, Note_on_c, 10, 57, 127
2, 55733, Note_off_c, 10, 57, 127
2, 55733, Note_off_c, 5, 77, 127
2, 55737, Note_on_c, 7, 79, 127
2, 55737, Note_on_c, 12, 59, 127
2, 55821, Note_on_c, 3, 75, 127
2, 55821, Note_on_c, 7, 55, 127
2, 55895, Note_off_c, 12, 59, 127
2, 55895, Note_off_c, 7, 79, 127
2, 55902, Note_off_c, 7, 55, 127
2, 55902, Note_off_c, 3, 75, 127
2, 55905, Note_on_c, 2, 74, 127
2, 55905, Note_on_c, 5, 53, 127
2, 55986, Note_off_c, 5, 53, 127
2, 55986, Note_off_c, 2, 74, 127
2, 55990, Note_on_c, 3, 75, 127
2, 55990, Note_on_c, 7, 55, 127
2, 56071, Note_off_c, 7, 55, 127
2, 56071, Note_off_c, 3, 75, 127
2, 56074, Note_on_c, 0, 72, 127
2, 56074, Note_on_c, 3, 51, 127
2, 56155, Note_off_c, 3, 51, 127
2, 56158, Note_on_c, 3, 75, 127
2, 56158, Note_on_c, 7, 67, 127
2, 56232, Note_off_c, 0, 72, 127
2, 56239, Note_off_c, 7, 67, 127
2, 56239, Note_off_c, 3, 75, 127
2, 56243, Note_on_c, 2, 74, 127
2, 56243, Note_on_c, 5, 65, 127
2, 56324, Note_off_c, 5, 65, 127
2, 56324, Note_off_c, 2, 74, 127
2, 56327, Note_on_c, 3, 75, 127
2, 56327, Note_on_c, 7, 67, 127
2, 56408, Note_off_c, 7, 67, 127
2, 56408, Note_off_c, 3, 75, 127
2, 56411, Note_on_c, 5, 77, 127
2, 56411, Note_on_c, 8, 68, 127
2, 56495, Note_on_c, 2, 74, 127
2, 56495, Note_on_c, 5, 65, 127
2, 56569, Note_off_c, 8, 68, 127
2, 56569, Note_off_c, 5, 77, 127
2, 56576, Note_off_c, 5, 65, 127
2, 56576, Note_off_c, 2, 74, 127
2, 56580, Note_on_c, 0, 72, 127
2, 56580, Note_on_c, 3, 63, 127
2, 56661, Note_off_c, 3, 63, 127
2, 56661, Note_off_c, 0, 72, 127
2, 56664, Note_on_c, 2, 74, 127
2, 56664, Note_on_c, 5, 65, 127
2, 56745, Note_off_c, 5, 65, 127
2, 56745, Note_off_c, 2, 74, 127
2, 56748, Note_on_c, 12, 71, 127
2, 56748, Note_on_c, 2, 62, 127
2, 56833, Note_on_c, 2, 74, 127
2, 56833, Note_on_c, 5, 65, 127
2, 56906, Note_off_c, 2, 62, 127
2, 56906, Note_off_c, 12, 71, 127
2, 56914, Note_off_c, 5, 65, 127
2, 56914, Note_off_c, 2, 74, 127
2, 56917, Note_on_c, 0, 72, 127
2, 56917, Note_on_c, 3, 63, 127
2, 56998, Note_off_c, 3, 63, 127
2, 56998, Note_off_c, 0, 72, 127
2, 57001, Note_on_c, 2, 74, 127
2, 57001, Note_on_c, 5, 65, 127
2, 57082, Note_off_c, 5, 65, 127
2, 57082, Note_off_c, 2, 74, 127
2, 57086, Note_on_c, 3, 75, 127
2, 57086, Note_on_c, 7, 67, 127
2, 57170, Note_on_c, 0, 72, 127
2, 57170, Note_on_c, 3, 63, 127
2, 57244, Note_off_c, 7, 67, 127
2, 57244, Note_off_c, 3, 75, 127
2, 57251, Note_off_c, 3, 63, 127
2, 57251, Note_off_c, 0, 72, 127
2, 57254, Note_on_c, 12, 71, 127
2, 57254, Note_on_c, 2, 62, 127
2, 57335, Note_off_c, 2, 62, 127
2, 57335, Note_off_c, 12, 71, 127
2, 57339, Note_on_c, 0, 72, 127
2, 57339, Note_on_c, 3, 63, 127
2, 57420, Note_off_c, 3, 63, 127
2, 57420, Note_off_c, 0, 72, 127
2, 57423, Note_on_c, 7, 67, 127
2, 57423, Note_on_c, 0, 60, 127
2, 57507, Note_on_c, 0, 72, 127
2, 57507, Note_on_c, 3, 63, 127
2, 57581, Note_off_c, 0, 60, 127
2, 57581, Note_off_c, 7, 67, 127
2, 57588, Note_off_c, 3, 63, 127
2, 57588, Note_off_c, 0, 72, 127
2, 57592, Note_on_c, 12, 71, 127
2, 57592, Note_on_c, 2, 62, 127
2, 57673, Note_off_c, 2, 62, 127
2, 57673, Note_off_c, 12, 71, 127
2, 57676, Note_on_c, 0, 72, 127
2, 57676, Note_on_c, 3, 63, 127
2, 57757, Note_off_c, 3, 63, 127
2, 57757, Note_off_c, 0, 72, 127
2, 57760, Note_on_c, 8, 68, 127
2, 57760, Note_on_c, 5, 65, 127
2, 57845, Note_on_c, 5, 77, 127
2, 57845, Note_on_c, 2, 62, 127
2, 57929, Note_off_c, 2, 62, 127
2, 57929, Note_off_c, 5, 77, 127
2, 57931, Note_on_c, 3, 75, 127
2, 57931, Note_on_c, 0, 60, 127
2, 58001, Note_off_c, 5, 65, 127
2, 58001, Note_off_c, 8, 68, 127
2, 58015, Note_off_c, 0, 60, 127
2, 58015, Note_off_c, 3, 75, 127
2, 58018, Note_on_c, 5, 77, 127
2, 58018, Note_on_c, 2, 62, 127
2, 58102, Note_off_c, 2, 62, 127
2, 58102, Note_off_c, 5, 77, 127
2, 58105, Note_on_c, 7, 67, 127
2, 58105, Note_on_c, 3, 63, 127
2, 58192, Note_on_c, 3, 75, 127
2, 58192, Note_on_c, 0, 60, 127
2, 58276, Note_off_c, 0, 60, 127
2, 58276, Note_off_c, 3, 75, 127
2, 58279, Note_on_c, 2, 74, 127
2, 58279, Note_on_c, 12, 59, 127
2, 58349, Note_off_c, 3, 63, 127
2, 58349, Note_off_c, 7, 67, 127
2, 58363, Note_off_c, 12, 59, 127
2, 58363, Note_off_c, 2, 74, 127
2, 58365, Note_on_c, 3, 75, 127
2, 58365, Note_on_c, 0, 60, 127
2, 58449, Note_off_c, 0, 60, 127
2, 58449, Note_off_c, 3, 75, 127
2, 58452, Note_on_c, 5, 65, 127
2, 58452, Note_on_c, 2, 62, 127
2, 58539, Note_on_c, 2, 74, 127
2, 58539, Note_on_c, 12, 59, 127
2, 58623, Note_off_c, 12, 59, 127
2, 58623, Note_off_c, 2, 74, 127
2, 58626, Note_on_c, 0, 72, 127
2, 58626, Note_on_c, 10, 57, 127
2, 58696, Note_off_c, 2, 62, 127
2, 58696, Note_off_c, 5, 65, 127
2, 58710, Note_off_c, 10, 57, 127
2, 58710, Note_off_c, 0, 72, 127
2, 58713, Note_on_c, 2, 74, 127
2, 58713, Note_on_c, 12, 59, 127
2, 58797, Note_off_c, 12, 59, 127
2, 58797, Note_off_c, 2, 74, 127
2, 58799, Note_on_c, 3, 63, 127
2, 58799, Note_on_c, 0, 60, 127
2, 58883, Note_off_c, 3, 63, 127
2, 58886, Note_on_c, 0, 72, 127
2, 58886, Note_on_c, 3, 63, 127
2, 58970, Note_off_c, 3, 63, 127
2, 58970, Note_off_c, 0, 72, 127
2, 58973, Note_on_c, 12, 71, 127
2, 58973, Note_on_c, 2, 62, 127
2, 59043, Note_off_c, 0, 60, 127
2, 59057, Note_off_c, 2, 62, 127
2, 59057, Note_off_c, 12, 71, 127
2, 59060, Note_on_c, 0, 72, 127
2, 59060, Note_on_c, 3, 63, 127
2, 59144, Note_off_c, 3, 63, 127
2, 59144, Note_off_c, 0, 72, 127
2, 59147, Note_on_c, 8, 68, 127
2, 59147, Note_on_c, 5, 53, 127
2, 59240, Note_on_c, 5, 65, 127
2, 59240, Note_on_c, 2, 62, 127
2, 59321, Note_off_c, 8, 68, 127
2, 59330, Note_off_c, 2, 62, 127
2, 59330, Note_off_c, 5, 65, 127
2, 59333, Note_on_c, 3, 63, 127
2, 59333, Note_on_c, 0, 60, 127
2, 59408, Note_off_c, 5, 53, 127
2, 59423, Note_off_c, 0, 60, 127
2, 59423, Note_off_c, 3, 63, 127
2, 59426, Note_on_c, 5, 65, 127
2, 59426, Note_on_c, 2, 62, 127
2, 59516, Note_off_c, 2, 62, 127
2, 59516, Note_off_c, 5, 65, 127
2, 59519, Note_on_c, 7, 67, 127
2, 59519, Note_on_c, 3, 51, 127
2, 59612, Note_on_c, 3, 63, 127
2, 59612, Note_on_c, 0, 60, 127
2, 59693, Note_off_c, 7, 67, 127
2, 59702, Note_off_c, 0, 60, 127
2, 59702, Note_off_c, 3, 63, 127
2, 59705, Note_on_c, 2, 62, 127
2, 59705, Note_on_c, 12, 59, 127
2, 59780, Note_off_c, 3, 51, 127
2, 59795, Note_off_c, 12, 59, 127
2, 59795, Note_off_c, 2, 62, 127
2, 59798, Note_on_c, 3, 63, 127
2, 59798, Note_on_c, 0, 60, 127
2, 59888, Note_off_c, 0, 60, 127
2, 59888, Note_off_c, 3, 63, 127
2, 59891, Note_on_c, 5, 65, 127
2, 59891, Note_on_c, 2, 50, 127
2, 59984, Note_on_c, 2, 62, 127
2, 59984, Note_on_c, 12, 59, 127
2, 60065, Note_off_c, 5, 65, 127
2, 60074, Note_off_c, 12, 59, 127
2, 60074, Note_off_c, 2, 62, 127
2, 60077, Note_on_c, 0, 60, 127
2, 60077, Note_on_c, 10, 57, 127
2, 60152, Note_off_c, 2, 50, 127
2, 60167, Note_off_c, 10, 57, 127
2, 60167, Note_off_c, 0, 60, 127
2, 60180, Note_on_c, 2, 62, 127
2, 60180, Note_on_c, 12, 59, 127
2, 60290, Note_off_c, 12, 59, 127
2, 60290, Note_off_c, 2, 62, 127
2, 60311, Note_on_c, 11, 58, 127
2, 60311, Note_on_c, 7, 55, 127
2, 60311, Note_on_c, 0, 48, 127
2, 60311, Note_on_c, 5, 65, 127
2, 60582, Note_on_c, 4, 64, 127
2, 60591, Note_off_c, 5, 65, 127
2, 60632, Note_off_c, 4, 64, 127
2, 60637, Note_on_c, 5, 65, 127
2, 60687, Note_off_c, 5, 65, 127
2, 60691, Note_on_c, 4, 64, 127
2, 60741, Note_off_c, 4, 64, 127
2, 60746, Note_on_c, 5, 65, 127
2, 60796, Note_off_c, 5, 65, 127
2, 60800, Note_on_c, 4, 64, 127
2, 60850, Note_off_c, 4, 64, 127
2, 60855, Note_on_c, 5, 65, 127
2, 60905, Note_off_c, 5, 65, 127
2, 60910, Note_on_c, 4, 64, 127
2, 61865, Note_off_c, 4, 64, 127
2, 61975, Note_on_c, 0, 60, 127
2, 62080, Note_off_c, 0, 60, 127
2, 62084, Note_on_c, 2, 62, 127
2, 62189, Note_off_c, 2, 62, 127
2, 62193, Note_on_c, 4, 64, 127
2, 62298, Note_off_c, 4, 64, 127
2, 62302, Note_on_c, 5, 65, 127
2, 62407, Note_off_c, 5, 65, 127
2, 62411, Note_on_c, 7, 67, 127
2, 62516, Note_off_c, 7, 67, 127
2, 62520, Note_on_c, 8, 68, 127
2, 62625, Note_off_c, 8, 68, 127
2, 62630, Note_on_c, 11, 70, 127
2, 62735, Note_off_c, 11, 70, 127
2, 62739, Note_on_c, 0, 72, 127
2, 62844, Note_off_c, 0, 72, 127
2, 62848, Note_on_c, 11, 70, 127
2, 62916, Note_off_c, 0, 48, 127
2, 62916, Note_off_c, 7, 55, 127
2, 62916, Note_off_c, 11, 58, 127
2, 62953, Note_off_c, 11, 70, 127
2, 62957, Note_on_c, 8, 68, 127
2, 63062, Note_off_c, 8, 68, 127
2, 63066, Note_on_c, 7, 67, 127
2, 63171, Note_off_c, 7, 67, 127
2, 63175, Note_on_c, 5, 65, 127
2, 63389, Note_off_c, 5, 65, 127
2, 63393, Note_on_c, 7, 67, 127
2, 63498, Note_off_c, 7, 67, 127
2, 63503, Note_on_c, 4, 64, 127
2, 63608, Note_off_c, 4, 64, 127
2, 63612, Note_on_c, 5, 65, 127
2, 63612, Note_on_c, 8, 56, 127
2, 63612, Note_on_c, 0, 60, 127
2, 63612, Note_on_c, 5, 53, 127
2, 63612, Note_on_c, 0, 48, 127
2, 63662, Note_off_c, 5, 65, 127
2, 63666, Note_on_c, 4, 64, 127
2, 63716, Note_off_c, 4, 64, 127
2, 63721, Note_on_c, 5, 65, 127
2, 63771, Note_off_c, 5, 65, 127
2, 63775, Note_on_c, 4, 64, 127
2, 63825, Note_off_c, 4, 64, 127
2, 63830, Note_on_c, 5, 65, 127
2, 64538, Note_off_c, 5, 65, 127
2, 64550, Note_on_c, 7, 67, 127
2, 64578, Note_off_c, 0, 60, 127
2, 64674, Note_off_c, 7, 67, 127
2, 64678, Note_on_c, 5, 65, 127
2, 64792, Note_off_c, 5, 65, 127
2, 64796, Note_on_c, 4, 64, 127
2, 64910, Note_off_c, 4, 64, 127
2, 64914, Note_on_c, 5, 65, 127
2, 65028, Note_off_c, 5, 65, 127
2, 65032, Note_on_c, 7, 67, 127
2, 65146, Note_off_c, 7, 67, 127
2, 65149, Note_on_c, 8, 68, 127
2, 65263, Note_off_c, 8, 68, 127
2, 65267, Note_on_c, 7, 67, 127
2, 65381, Note_off_c, 7, 67, 127
2, 65385, Note_on_c, 5, 65, 127
2, 65499, Note_off_c, 5, 65, 127
2, 65503, Note_on_c, 3, 63, 127
2, 65617, Note_off_c, 3, 63, 127
2, 65621, Note_on_c, 2, 62, 127
2, 65735, Note_off_c, 2, 62, 127
2, 65738, Note_on_c, 3, 63, 127
2, 65852, Note_off_c, 3, 63, 127
2, 65856, Note_on_c, 5, 65, 127
2, 65970, Note_off_c, 5, 65, 127
2, 65974, Note_on_c, 2, 62, 127
2, 65985, Note_off_c, 0, 48, 127
2, 65985, Note_off_c, 5, 53, 127
2, 65985, Note_off_c, 8, 56, 127
2, 66088, Note_off_c, 2, 62, 127
2, 66092, Note_on_c, 3, 63, 127
2, 66206, Note_off_c, 3, 63, 127
2, 66210, Note_on_c, 5, 65, 127
2, 66324, Note_off_c, 5, 65, 127
2, 66327, Note_on_c, 12, 59, 127
2, 66530, Note_on_c, 0, 36, 127
2, 66648, Note_on_c, 12, 47, 127
2, 66765, Note_on_c, 2, 50, 127
2, 66879, Note_off_c, 2, 50, 127
2, 66883, Note_on_c, 5, 53, 127
2, 66914, Note_off_c, 12, 59, 127
2, 66997, Note_off_c, 5, 53, 127
2, 67001, Note_on_c, 8, 56, 127
2, 67115, Note_off_c, 8, 56, 127
2, 67119, Note_on_c, 7, 55, 127
2, 67233, Note_off_c, 7, 55, 127
2, 67237, Note_on_c, 5, 53, 127
2, 67351, Note_off_c, 5, 53, 127
2, 67354, Note_on_c, 12, 59, 127
2, 67472, Note_on_c, 5, 53, 127
2, 67574, Note_off_c, 12, 59, 127
2, 67586, Note_off_c, 5, 53, 127
2, 67590, Note_on_c, 2, 62, 127
2, 67708, Note_on_c, 5, 53, 127
2, 67810, Note_off_c, 2, 62, 127
2, 67822, Note_off_c, 5, 53, 127
2, 67826, Note_on_c, 12, 59, 127
2, 67940, Note_off_c, 12, 59, 127
2, 67943, Note_on_c, 8, 56, 127
2, 68057, Note_off_c, 8, 56, 127
2, 68061, Note_on_c, 7, 55, 127
2, 68175, Note_off_c, 7, 55, 127
2, 68179, Note_on_c, 5, 53, 127
2, 68222, Note_off_c, 0, 36, 127
2, 68230, Note_off_c, 12, 47, 127
2, 68291, Note_off_c, 5, 53, 127
2, 68296, Note_on_c, 0, 36, 127
2, 68296, Note_on_c, 4, 52, 127
2, 68413, Note_on_c, 1, 61, 127
2, 68527, Note_off_c, 1, 61, 127
2, 68531, Note_on_c, 11, 58, 127
2, 68645, Note_off_c, 11, 58, 127
2, 68649, Note_on_c, 7, 55, 127
2, 68737, Note_off_c, 4, 52, 127
2, 68763, Note_off_c, 7, 55, 127
2, 68767, Note_on_c, 0, 60, 127
2, 68881, Note_off_c, 0, 60, 127
2, 68885, Note_on_c, 8, 56, 127
2, 68999, Note_off_c, 8, 56, 127
2, 69002, Note_on_c, 5, 53, 127
2, 69116, Note_off_c, 5, 53, 127
2, 69120, Note_on_c, 8, 56, 127
2, 69234, Note_off_c, 8, 56, 127
2, 69238, Note_on_c, 7, 55, 127
2, 69356, Note_on_c, 11, 58, 127
2, 69458, Note_off_c, 7, 55, 127
2, 69470, Note_off_c, 11, 58, 127
2, 69474, Note_on_c, 7, 55, 127
2, 69588, Note_off_c, 7, 55, 127
2, 69591, Note_on_c, 4, 52, 127
2, 69705, Note_off_c, 4, 52, 127
2, 69709, Note_on_c, 8, 56, 127
2, 69823, Note_off_c, 8, 56, 127
2, 69827, Note_on_c, 5, 53, 127
2, 69941, Note_off_c, 5, 53, 127
2, 69945, Note_on_c, 2, 50, 127
2, 70060, Note_off_c, 2, 50, 127
2, 70064, Note_on_c, 5, 53, 127
2, 70179, Note_off_c, 5, 53, 127
2, 70183, Note_on_c, 4, 52, 127
2, 70302, Note_on_c, 7, 55, 127
2, 70406, Note_off_c, 4, 52, 127
2, 70417, Note_off_c, 7, 55, 127
2, 70421, Note_on_c, 4, 52, 127
2, 70536, Note_off_c, 4, 52, 127
2, 70540, Note_on_c, 0, 48, 127
2, 70655, Note_off_c, 0, 48, 127
2, 70659, Note_on_c, 5, 53, 127
2, 70778, Note_on_c, 2, 50, 127
2, 70882, Note_off_c, 5, 53, 127
2, 70882, Note_off_c, 0, 36, 127
2, 70893, Note_off_c, 2, 50, 127
2, 70897, Note_on_c, 12, 47, 127
2, 71012, Note_off_c, 12, 47, 127
2, 71016, Note_on_c, 2, 50, 127
2, 71152, Note_off_c, 2, 50, 127
2, 71181, Note_on_c, 0, 36, 127
2, 71347, Note_on_c, 7, 43, 127
2, 71488, Note_on_c, 0, 48, 127
2, 71630, Note_on_c, 2, 50, 127
2, 71766, Note_off_c, 2, 50, 127
2, 71771, Note_on_c, 4, 52, 127
2, 71912, Note_on_c, 7, 55, 127
2, 72048, Note_off_c, 7, 55, 127
2, 72054, Note_on_c, 11, 58, 127
2, 72167, Note_off_c, 4, 52, 127
2, 72190, Note_off_c, 11, 58, 127
2, 72195, Note_on_c, 7, 55, 127
2, 72331, Note_off_c, 7, 55, 127
2, 72336, Note_on_c, 8, 56, 127
2, 72478, Note_on_c, 0, 60, 127
2, 72614, Note_off_c, 0, 60, 127
2, 72619, Note_on_c, 5, 65, 127
2, 72732, Note_off_c, 8, 56, 127
2, 72755, Note_off_c, 5, 65, 127
2, 72760, Note_on_c, 2, 62, 127
2, 72896, Note_off_c, 2, 62, 127
2, 72902, Note_on_c, 5, 65, 127
2, 73043, Note_on_c, 8, 68, 127
2, 73167, Note_off_c, 5, 65, 127
2, 73180, Note_off_c, 8, 68, 127
2, 73186, Note_on_c, 0, 72, 127
2, 73362, Note_off_c, 0, 72, 127
2, 73363, Note_on_c, 12, 71, 127
2, 73562, Note_off_c, 12, 71, 127
2, 73568, Note_on_c, 0, 72, 127
2, 73948, Note_on_c, 7, 67, 127
2, 74328, Note_off_c, 7, 67, 127
2, 74329, Note_on_c, 5, 65, 127
2, 74710, Note_on_c, 2, 62, 127
2, 75081, Note_off_c, 5, 65, 127
2, 75084, Note_off_c, 2, 62, 127
2, 75090, Note_on_c, 4, 64, 127
2, 75099, Note_off_c, 7, 43, 127
2, 77319, Note_off_c, 0, 36, 127
2, 77329, Note_off_c, 0, 48, 127
2, 77331, Note_off_c, 0, 72, 127
2, 77333, Note_off_c, 4, 64, 127
2, 78399, Note_on_c, 0, 72, 127
2, 78565, Note_off_c, 0, 72, 127
2, 78566, Note_on_c, 12, 71, 127
2, 78732, Note_off_c, 12, 71, 127
2, 78734, Note_on_c, 0, 72, 127
2, 79068, Note_off_c, 0, 72, 127
2, 79070, Note_on_c, 7, 67, 127
2, 79350, Note_off_c, 7, 67, 127
2, 79406, Note_on_c, 8, 68, 127
2, 79740, Note_off_c, 8, 68, 127
2, 79742, Note_on_c, 0, 72, 127
2, 79908, Note_off_c, 0, 72, 127
2, 79909, Note_on_c, 12, 71, 127
2, 80075, Note_off_c, 12, 71, 127
2, 80076, Note_on_c, 0, 72, 127
2, 80410, Note_off_c, 0, 72, 127
2, 80412, Note_on_c, 2, 74, 127
2, 80697, Note_off_c, 2, 74, 127
2, 80749, Note_on_c, 7, 67, 127
2, 81083, Note_off_c, 7, 67, 127
2, 81085, Note_on_c, 0, 72, 127
2, 81251, Note_off_c, 0, 72, 127
2, 81252, Note_on_c, 12, 71, 127
2, 81418, Note_off_c, 12, 71, 127
2, 81419, Note_on_c, 0, 72, 127
2, 81753, Note_off_c, 0, 72, 127
2, 81755, Note_on_c, 2, 74, 127
2, 82045, Note_off_c, 2, 74, 127
2, 82091, Note_on_c, 5, 65, 127
2, 82257, Note_off_c, 5, 65, 127
2, 82259, Note_on_c, 7, 67, 127
2, 82426, Note_on_c, 8, 68, 127
2, 82432, Note_off_c, 7, 67, 127
2, 82496, Note_on_c, 7, 67, 127
2, 82498, Note_off_c, 8, 68, 127
2, 82566, Note_on_c, 8, 68, 127
2, 82568, Note_off_c, 7, 67, 127
2, 83097, Note_on_c, 7, 67, 127
2, 83109, Note_off_c, 8, 68, 127
2, 83259, Note_off_c, 7, 67, 127
2, 83266, Note_on_c, 5, 65, 127
2, 83428, Note_off_c, 5, 65, 127
2, 83434, Note_on_c, 3, 63, 127
2, 83600, Note_off_c, 3, 63, 127
2, 83602, Note_on_c, 0, 72, 127
2, 83768, Note_off_c, 0, 72, 127
2, 83769, Note_on_c, 7, 79, 127
2, 83769, Note_on_c, 12, 71, 127
2, 83935, Note_off_c, 12, 71, 127
2, 83935, Note_off_c, 7, 79, 127
2, 83937, Note_on_c, 6, 78, 127
2, 83937, Note_on_c, 10, 69, 127
2, 84103, Note_off_c, 10, 69, 127
2, 84103, Note_off_c, 6, 78, 127
2, 84104, Note_on_c, 7, 79, 127
2, 84104, Note_on_c, 7, 67, 127
2, 84270, Note_off_c, 7, 67, 127
2, 84271, Note_on_c, 5, 65, 127
2, 84437, Note_off_c, 5, 65, 127
2, 84437, Note_off_c, 7, 79, 127
2, 84439, Note_on_c, 0, 72, 127
2, 84439, Note_on_c, 3, 63, 127
2, 84605, Note_off_c, 3, 63, 127
2, 84606, Note_on_c, 2, 62, 127
2, 84659, Note_off_c, 0, 72, 127
2, 84772, Note_off_c, 2, 62, 127
2, 84774, Note_on_c, 3, 75, 127
2, 84774, Note_on_c, 0, 60, 127
2, 85108, Note_off_c, 0, 60, 127
2, 85108, Note_off_c, 3, 75, 127
2, 85110, Note_on_c, 7, 79, 127
2, 85110, Note_on_c, 3, 75, 127
2, 85276, Note_off_c, 7, 79, 127
2, 85277, Note_on_c, 6, 78, 127
2, 85443, Note_off_c, 6, 78, 127
2, 85443, Note_off_c, 3, 75, 127
2, 85444, Note_on_c, 7, 79, 127
2, 85444, Note_on_c, 2, 74, 127
2, 85778, Note_off_c, 2, 74, 127
2, 85778, Note_off_c, 7, 79, 127
2, 85780, Note_on_c, 10, 81, 127
2, 85780, Note_on_c, 0, 72, 127
2, 86020, Note_off_c, 10, 81, 127
2, 86114, Note_off_c, 0, 72, 127
2, 86116, Note_on_c, 2, 74, 127
2, 86116, Note_on_c, 11, 70, 127
2, 86450, Note_off_c, 11, 70, 127
2, 86450, Note_off_c, 2, 74, 127
2, 86453, Note_on_c, 7, 79, 127
2, 86453, Note_on_c, 10, 69, 127
2, 86619, Note_off_c, 7, 79, 127
2, 86620, Note_on_c, 6, 78, 127
2, 86786, Note_off_c, 6, 78, 127
2, 86786, Note_off_c, 10, 69, 127
2, 86787, Note_on_c, 7, 79, 127
2, 86787, Note_on_c, 11, 70, 127
2, 87121, Note_off_c, 11, 70, 127
2, 87121, Note_off_c, 7, 79, 127
2, 87123, Note_on_c, 10, 81, 127
2, 87123, Note_on_c, 0, 72, 127
2, 87423, Note_off_c, 10, 81, 127
2, 87457, Note_off_c, 0, 72, 127
2, 87459, Note_on_c, 0, 72, 127
2, 87459, Note_on_c, 6, 66, 127
2, 87625, Note_off_c, 0, 72, 127
2, 87627, Note_on_c, 2, 74, 127
2, 87792, Note_off_c, 6, 66, 127
2, 87793, Note_off_c, 2, 74, 127
2, 87794, Note_on_c, 0, 72, 127
2, 87794, Note_on_c, 7, 67, 127
2, 87875, Note_off_c, 0, 72, 127
2, 87877, Note_on_c, 2, 74, 127
2, 87958, Note_off_c, 2, 74, 127
2, 87960, Note_on_c, 3, 75, 127
2, 88126, Note_off_c, 7, 67, 127
2, 88128, Note_on_c, 10, 69, 127
2, 88462, Note_off_c, 10, 69, 127
2, 88464, Note_on_c, 2, 74, 127
2, 88464, Note_on_c, 6, 66, 127
2, 88469, Note_off_c, 3, 75, 127
2, 88630, Note_off_c, 2, 74, 127
2, 88631, Note_on_c, 0, 72, 127
2, 88797, Note_off_c, 0, 72, 127
2, 88797, Note_off_c, 6, 66, 127
2, 88799, Note_on_c, 11, 70, 127
2, 88799, Note_on_c, 7, 67, 127
2, 89133, Note_off_c, 11, 70, 127
2, 89135, Note_on_c, 3, 75, 127
2, 89288, Note_off_c, 7, 67, 127
2, 89301, Note_off_c, 3, 75, 127
2, 89302, Note_on_c, 2, 74, 127
2, 89468, Note_off_c, 2, 74, 127
2, 89469, Note_on_c, 3, 75, 127
2, 89638, Note_on_c, 0, 60, 127
2, 89739, Note_off_c, 3, 75, 127
2, 89804, Note_off_c, 0, 60, 127
2, 89805, Note_on_c, 7, 67, 127
2, 89805, Note_on_c, 2, 62, 127
2, 89971, Note_off_c, 2, 62, 127
2, 89973, Note_on_c, 3, 63, 127
2, 90138, Note_off_c, 7, 67, 127
2, 90139, Note_off_c, 3, 63, 127
2, 90140, Note_on_c, 8, 68, 127
2, 90140, Note_on_c, 5, 65, 127
2, 90306, Note_off_c, 5, 65, 127
2, 90308, Note_on_c, 7, 67, 127
2, 90473, Note_off_c, 8, 68, 127
2, 90474, Note_off_c, 7, 67, 127
2, 90475, Note_on_c, 5, 77, 127
2, 90475, Note_on_c, 8, 68, 127
2, 90641, Note_off_c, 5, 77, 127
2, 90642, Note_on_c, 3, 75, 127
2, 90808, Note_off_c, 3, 75, 127
2, 90810, Note_on_c, 5, 77, 127
2, 90894, Note_off_c, 8, 68, 127
2, 90979, Note_on_c, 2, 62, 127
2, 91080, Note_off_c, 5, 77, 127
2, 91145, Note_off_c, 2, 62, 127
2, 91146, Note_on_c, 10, 69, 127
2, 91146, Note_on_c, 3, 63, 127
2, 91312, Note_off_c, 3, 63, 127
2, 91313, Note_on_c, 5, 65, 127
2, 91479, Note_off_c, 5, 65, 127
2, 91479, Note_off_c, 10, 69, 127
2, 91481, Note_on_c, 11, 70, 127
2, 91481, Note_on_c, 7, 67, 127
2, 91647, Note_off_c, 7, 67, 127
2, 91648, Note_on_c, 10, 69, 127
2, 91814, Note_off_c, 10, 69, 127
2, 91814, Note_off_c, 11, 70, 127
2, 91816, Note_on_c, 7, 79, 127
2, 91816, Note_on_c, 11, 70, 127
2, 91982, Note_off_c, 7, 79, 127
2, 91983, Note_on_c, 5, 77, 127
2, 92149, Note_off_c, 5, 77, 127
2, 92150, Note_on_c, 7, 79, 127
2, 92235, Note_off_c, 11, 70, 127
2, 92319, Note_on_c, 3, 63, 127
2, 92420, Note_off_c, 7, 79, 127
2, 92485, Note_off_c, 3, 63, 127
2, 92486, Note_on_c, 12, 71, 127
2, 92486, Note_on_c, 5, 65, 127
2, 92652, Note_off_c, 5, 65, 127
2, 92654, Note_on_c, 7, 67, 127
2, 92819, Note_off_c, 12, 71, 127
2, 92820, Note_off_c, 7, 67, 127
2, 92821, Note_on_c, 0, 72, 127
2, 92821, Note_on_c, 8, 68, 127
2, 92902, Note_off_c, 0, 72, 127
2, 92904, Note_on_c, 12, 71, 127
2, 92985, Note_off_c, 12, 71, 127
2, 92985, Note_off_c, 8, 68, 127
2, 92987, Note_on_c, 0, 72, 127
2, 92987, Note_on_c, 7, 67, 127
2, 93153, Note_off_c, 7, 67, 127
2, 93153, Note_off_c, 0, 72, 127
2, 93155, Note_on_c, 2, 74, 127
2, 93155, Note_on_c, 5, 65, 127
2, 93321, Note_off_c, 5, 65, 127
2, 93321, Note_off_c, 2, 74, 127
2, 93322, Note_on_c, 3, 75, 127
2, 93322, Note_on_c, 3, 63, 127
2, 93488, Note_off_c, 3, 63, 127
2, 93488, Note_off_c, 3, 75, 127
2, 93490, Note_on_c, 5, 77, 127
2, 93490, Note_on_c, 2, 62, 127
2, 93824, Note_off_c, 2, 62, 127
2, 93826, Note_on_c, 0, 72, 127
2, 93992, Note_off_c, 0, 72, 127
2, 93993, Note_on_c, 12, 71, 127
2, 94159, Note_off_c, 12, 71, 127
2, 94160, Note_on_c, 0, 72, 127
2, 94496, Note_on_c, 3, 75, 127
2, 94496, Note_on_c, 0, 60, 127
2, 94506, Note_off_c, 5, 77, 127
2, 94662, Note_off_c, 0, 60, 127
2, 94663, Note_off_c, 0, 72, 127
2, 94664, Note_on_c, 2, 74, 127
2, 94664, Note_on_c, 12, 59, 127
2, 94673, Note_off_c, 3, 75, 127
2, 94830, Note_off_c, 12, 59, 127
2, 94830, Note_off_c, 2, 74, 127
2, 94831, Note_on_c, 0, 72, 127
2, 94831, Note_on_c, 0, 60, 127
2, 94997, Note_off_c, 0, 72, 127
2, 94999, Note_on_c, 11, 70, 127
2, 95164, Note_off_c, 0, 60, 127
2, 95165, Note_off_c, 11, 70, 127
2, 95166, Note_on_c, 8, 68, 127
2, 95166, Note_on_c, 7, 55, 127
2, 95332, Note_off_c, 8, 68, 127
2, 95333, Note_on_c, 7, 67, 127
2, 95456, Note_off_c, 7, 55, 127
2, 95499, Note_off_c, 7, 67, 127
2, 95501, Note_on_c, 5, 65, 127
2, 95501, Note_on_c, 8, 56, 127
2, 95835, Note_off_c, 8, 56, 127
2, 95835, Note_off_c, 5, 65, 127
2, 95837, Note_on_c, 8, 80, 127
2, 95837, Note_on_c, 5, 77, 127
2, 95837, Note_on_c, 0, 60, 127
2, 96003, Note_off_c, 0, 60, 127
2, 96004, Note_on_c, 12, 59, 127
2, 96170, Note_off_c, 12, 59, 127
2, 96170, Note_off_c, 5, 77, 127
2, 96170, Note_off_c, 8, 80, 127
2, 96172, Note_on_c, 7, 79, 127
2, 96172, Note_on_c, 3, 75, 127
2, 96172, Note_on_c, 0, 60, 127
2, 96506, Note_off_c, 0, 60, 127
2, 96506, Note_off_c, 3, 75, 127
2, 96506, Note_off_c, 7, 79, 127
2, 96508, Note_on_c, 5, 77, 127
2, 96508, Note_on_c, 2, 74, 127
2, 96508, Note_on_c, 2, 62, 127
2, 96798, Note_off_c, 2, 62, 127
2, 96840, Note_off_c, 2, 74, 127
2, 96841, Note_off_c, 5, 77, 127
2, 96842, Note_on_c, 3, 75, 127
2, 96842, Note_on_c, 7, 55, 127
2, 97176, Note_off_c, 7, 55, 127
2, 97176, Note_off_c, 3, 75, 127
2, 97179, Note_on_c, 2, 74, 127
2, 97179, Note_on_c, 8, 68, 127
2, 97179, Note_on_c, 0, 60, 127
2, 97345, Note_off_c, 0, 60, 127
2, 97346, Note_on_c, 12, 59, 127
2, 97512, Note_off_c, 12, 59, 127
2, 97512, Note_off_c, 8, 68, 127
2, 97512, Note_off_c, 2, 74, 127
2, 97513, Note_on_c, 3, 75, 127
2, 97513, Note_on_c, 7, 67, 127
2, 97513, Note_on_c, 0, 60, 127
2, 97847, Note_off_c, 0, 60, 127
2, 97847, Note_off_c, 7, 67, 127
2, 97847, Note_off_c, 3, 75, 127
2, 97849, Note_on_c, 5, 77, 127
2, 97849, Note_on_c, 5, 65, 127
2, 97849, Note_on_c, 2, 62, 127
2, 98139, Note_off_c, 2, 62, 127
2, 98183, Note_off_c, 5, 65, 127
2, 98183, Note_off_c, 5, 77, 127
2, 98185, Note_on_c, 12, 71, 127
2, 98185, Note_on_c, 7, 67, 127
2, 98185, Note_on_c, 5, 53, 127
2, 98351, Note_off_c, 5, 53, 127
2, 98353, Note_on_c, 7, 55, 127
2, 98518, Note_off_c, 7, 67, 127
2, 98518, Note_off_c, 12, 71, 127
2, 98519, Note_off_c, 7, 55, 127
2, 98520, Note_on_c, 0, 72, 127
2, 98520, Note_on_c, 5, 65, 127
2, 98520, Note_on_c, 8, 56, 127
2, 98686, Note_off_c, 5, 65, 127
2, 98688, Note_on_c, 3, 63, 127
2, 98853, Note_off_c, 0, 72, 127
2, 98854, Note_off_c, 3, 63, 127
2, 98855, Note_on_c, 2, 74, 127
2, 98855, Note_on_c, 5, 65, 127
2, 99189, Note_off_c, 5, 65, 127
2, 99189, Note_off_c, 2, 74, 127
2, 99189, Note_off_c, 8, 56, 127
2, 99191, Note_on_c, 0, 72, 127
2, 99191, Note_on_c, 2, 62, 127
2, 99191, Note_on_c, 7, 55, 127
2, 99272, Note_off_c, 0, 72, 127
2, 99274, Note_on_c, 12, 71, 127
2, 99355, Note_off_c, 12, 71, 127
2, 99355, Note_off_c, 7, 55, 127
2, 99357, Note_on_c, 10, 69, 127
2, 99357, Note_on_c, 5, 53, 127
2, 99438, Note_off_c, 10, 69, 127
2, 99440, Note_on_c, 12, 71, 127
2, 99521, Note_off_c, 12, 71, 127
2, 99521, Note_off_c, 5, 53, 127
2, 99522, Note_off_c, 2, 62, 127
2, 99523, Note_on_c, 0, 72, 127
2, 99523, Note_on_c, 7, 67, 127
2, 99523, Note_on_c, 3, 51, 127
2, 99689, Note_off_c, 3, 51, 127
2, 99691, Note_on_c, 0, 60, 127
2, 99856, Note_off_c, 0, 72, 127
2, 99857, Note_off_c, 0, 60, 127
2, 99858, Note_on_c, 7, 79, 127
2, 99858, Note_on_c, 12, 59, 127
2, 100024, Note_off_c, 12, 59, 127
2, 100024, Note_off_c, 7, 79, 127
2, 100026, Note_on_c, 6, 78, 127
2, 100026, Note_on_c, 10, 57, 127
2, 100192, Note_off_c, 10, 57, 127
2, 100192, Note_off_c, 6, 78, 127
2, 100193, Note_on_c, 7, 79, 127
2, 100193, Note_on_c, 7, 55, 127
2, 100359, Note_off_c, 7, 55, 127
2, 100360, Note_off_c, 7, 67, 127
2, 100360, Note_on_c, 5, 53, 127
2, 100463, Note_off_c, 7, 79, 127
2, 100526, Note_off_c, 5, 53, 127
2, 100528, Note_on_c, 2, 74, 127
2, 100528, Note_on_c, 12, 71, 127
2, 100528, Note_on_c, 3, 51, 127
2, 100694, Note_off_c, 3, 51, 127
2, 100695, Note_on_c, 2, 50, 127
2, 100861, Note_off_c, 2, 50, 127
2, 100861, Note_off_c, 12, 71, 127
2, 100861, Note_off_c, 2, 74, 127
2, 100863, Note_on_c, 3, 75, 127
2, 100863, Note_on_c, 0, 72, 127
2, 100863, Note_on_c, 0, 48, 127
2, 101029, Note_off_c, 0, 48, 127
2, 101030, Note_on_c, 2, 50, 127
2, 101196, Note_off_c, 2, 50, 127
2, 101196, Note_off_c, 0, 72, 127
2, 101197, Note_on_c, 0, 72, 127
2, 101197, Note_on_c, 3, 51, 127
2, 101363, Note_off_c, 3, 51, 127
2, 101363, Note_off_c, 0, 72, 127
2, 101365, Note_on_c, 12, 71, 127
2, 101365, Note_on_c, 2, 50, 127
2, 101531, Note_off_c, 2, 50, 127
2, 101531, Note_off_c, 12, 71, 127
2, 101532, Note_on_c, 0, 72, 127
2, 101532, Note_on_c, 0, 48, 127
2, 101698, Note_off_c, 0, 48, 127
2, 101700, Note_off_c, 3, 75, 127
2, 101700, Note_on_c, 11, 46, 127
2, 101865, Note_off_c, 0, 72, 127
2, 101866, Note_off_c, 11, 46, 127
2, 101867, Note_on_c, 4, 76, 127
2, 101867, Note_on_c, 7, 67, 127
2, 101867, Note_on_c, 8, 44, 127
2, 102033, Note_off_c, 8, 44, 127
2, 102034, Note_on_c, 7, 43, 127
2, 102200, Note_off_c, 7, 43, 127
2, 102200, Note_off_c, 7, 67, 127
2, 102200, Note_off_c, 4, 76, 127
2, 102202, Note_on_c, 5, 77, 127
2, 102202, Note_on_c, 8, 68, 127
2, 102202, Note_on_c, 5, 41, 127
2, 102368, Note_off_c, 5, 41, 127
2, 102369, Note_on_c, 11, 58, 127
2, 102535, Note_off_c, 11, 58, 127
2, 102535, Note_off_c, 5, 77, 127
2, 102537, Note_on_c, 5, 77, 127
2, 102537, Note_on_c, 8, 56, 127
2, 102703, Note_off_c, 8, 56, 127
2, 102703, Note_off_c, 5, 77, 127
2, 102704, Note_on_c, 4, 76, 127
2, 102704, Note_on_c, 7, 55, 127
2, 102870, Note_off_c, 7, 55, 127
2, 102870, Note_off_c, 4, 76, 127
2, 102871, Note_on_c, 5, 77, 127
2, 102871, Note_on_c, 5, 53, 127
2, 103037, Note_off_c, 5, 53, 127
2, 103039, Note_off_c, 8, 68, 127
2, 103039, Note_on_c, 3, 51, 127
2, 103141, Note_off_c, 5, 77, 127
2, 103205, Note_off_c, 3, 51, 127
2, 103206, Note_on_c, 0, 72, 127
2, 103206, Note_on_c, 10, 69, 127
2, 103206, Note_on_c, 2, 50, 127
2, 103372, Note_off_c, 2, 50, 127
2, 103374, Note_on_c, 0, 48, 127
2, 103539, Note_off_c, 10, 69, 127
2, 103539, Note_off_c, 0, 72, 127
2, 103540, Note_off_c, 0, 48, 127
2, 103541, Note_on_c, 2, 74, 127
2, 103541, Note_on_c, 11, 70, 127
2, 103541, Note_on_c, 11, 46, 127
2, 103707, Note_off_c, 11, 46, 127
2, 103708, Note_on_c, 0, 48, 127
2, 103874, Note_off_c, 0, 48, 127
2, 103874, Note_off_c, 11, 70, 127
2, 103876, Note_on_c, 11, 70, 127
2, 103876, Note_on_c, 2, 50, 127
2, 104042, Note_off_c, 2, 50, 127
2, 104042, Note_off_c, 11, 70, 127
2, 104043, Note_on_c, 10, 69, 127
2, 104043, Note_on_c, 0, 48, 127
2, 104209, Note_off_c, 0, 48, 127
2, 104209, Note_off_c, 10, 69, 127
2, 104211, Note_on_c, 11, 70, 127
2, 104211, Note_on_c, 11, 46, 127
2, 104377, Note_off_c, 11, 46, 127
2, 104378, Note_off_c, 2, 74, 127
2, 104378, Note_on_c, 8, 44, 127
2, 104544, Note_off_c, 8, 44, 127
2, 104544, Note_off_c, 11, 70, 127
2, 104545, Note_on_c, 2, 74, 127
2, 104545, Note_on_c, 5, 65, 127
2, 104545, Note_on_c, 7, 43, 127
2, 104711, Note_off_c, 7, 43, 127
2, 104713, Note_on_c, 5, 41, 127
2, 104878, Note_off_c, 5, 65, 127
2, 104878, Note_off_c, 2, 74, 127
2, 104879, Note_off_c, 5, 41, 127
2, 104880, Note_on_c, 3, 75, 127
2, 104880, Note_on_c, 7, 67, 127
2, 104880, Note_on_c, 3, 39, 127
2, 105046, Note_off_c, 3, 39, 127
2, 105048, Note_on_c, 8, 56, 127
2, 105213, Note_off_c, 3, 75, 127
2, 105214, Note_off_c, 8, 56, 127
2, 105215, Note_on_c, 3, 75, 127
2, 105215, Note_on_c, 7, 55, 127
2, 105381, Note_off_c, 7, 55, 127
2, 105381, Note_off_c, 3, 75, 127
2, 105382, Note_on_c, 2, 74, 127
2, 105382, Note_on_c, 5, 53, 127
2, 105548, Note_off_c, 5, 53, 127
2, 105548, Note_off_c, 2, 74, 127
2, 105550, Note_on_c, 3, 75, 127
2, 105550, Note_on_c, 3, 51, 127
2, 105716, Note_off_c, 3, 51, 127
2, 105717, Note_off_c, 7, 67, 127
2, 105717, Note_on_c, 1, 49, 127
2, 105820, Note_off_c, 3, 75, 127
2, 105883, Note_off_c, 1, 49, 127
2, 105885, Note_on_c, 11, 70, 127
2, 105885, Note_on_c, 7, 67, 127
2, 105885, Note_on_c, 0, 48, 127
2, 106051, Note_off_c, 0, 48, 127
2, 106052, Note_on_c, 11, 46, 127
2, 106218, Note_off_c, 11, 46, 127
2, 106218, Note_off_c, 7, 67, 127
2, 106218, Note_off_c, 11, 70, 127
2, 106219, Note_on_c, 0, 72, 127
2, 106219, Note_on_c, 8, 68, 127
2, 106219, Note_on_c, 8, 44, 127
2, 106553, Note_off_c, 8, 44, 127
2, 106553, Note_off_c, 8, 68, 127
2, 106553, Note_off_c, 0, 72, 127
2, 106555, Note_on_c, 3, 75, 127
2, 106555, Note_on_c, 8, 68, 127
2, 106555, Note_on_c, 0, 60, 127
2, 106721, Note_off_c, 3, 75, 127
2, 106723, Note_on_c, 2, 74, 127
2, 106888, Note_off_c, 0, 60, 127
2, 106888, Note_off_c, 8, 68, 127
2, 106889, Note_off_c, 2, 74, 127
2, 106890, Note_on_c, 3, 75, 127
2, 106890, Note_on_c, 7, 67, 127
2, 106890, Note_on_c, 11, 58, 127
2, 107224, Note_off_c, 11, 58, 127
2, 107224, Note_off_c, 7, 67, 127
2, 107224, Note_off_c, 3, 75, 127
2, 107226, Note_on_c, 5, 77, 127
2, 107226, Note_on_c, 5, 65, 127
2, 107226, Note_on_c, 8, 56, 127
2, 107496, Note_off_c, 5, 77, 127
2, 107558, Note_off_c, 5, 65, 127
2, 107559, Note_off_c, 8, 56, 127
2, 107561, Note_on_c, 11, 70, 127
2, 107561, Note_on_c, 7, 55, 127
2, 107895, Note_off_c, 7, 55, 127
2, 107895, Note_off_c, 11, 70, 127
2, 107897, Note_on_c, 3, 75, 127
2, 107897, Note_on_c, 8, 56, 127
2, 107897, Note_on_c, 5, 53, 127
2, 108063, Note_off_c, 3, 75, 127
2, 108064, Note_on_c, 2, 74, 127
2, 108230, Note_off_c, 2, 74, 127
2, 108230, Note_off_c, 5, 53, 127
2, 108230, Note_off_c, 8, 56, 127
2, 108232, Note_on_c, 3, 75, 127
2, 108232, Note_on_c, 11, 58, 127
2, 108232, Note_on_c, 7, 55, 127
2, 108566, Note_off_c, 7, 55, 127
2, 108566, Note_off_c, 11, 58, 127
2, 108566, Note_off_c, 3, 75, 127
2, 108568, Note_on_c, 5, 77, 127
2, 108568, Note_on_c, 0, 60, 127
2, 108568, Note_on_c, 8, 56, 127
2, 108838, Note_off_c, 5, 77, 127
2, 108902, Note_off_c, 8, 56, 127
2, 108904, Note_on_c, 8, 68, 127
2, 108904, Note_on_c, 2, 50, 127
2, 109057, Note_off_c, 0, 60, 127
2, 109070, Note_off_c, 8, 68, 127
2, 109071, Note_on_c, 11, 70, 127
2, 109237, Note_off_c, 11, 70, 127
2, 109237, Note_off_c, 2, 50, 127
2, 109239, Note_on_c, 8, 68, 127
2, 109239, Note_on_c, 8, 56, 127
2, 109239, Note_on_c, 3, 51, 127
2, 109320, Note_off_c, 8, 68, 127
2, 109322, Note_on_c, 11, 70, 127
2, 109403, Note_off_c, 11, 70, 127
2, 109403, Note_off_c, 8, 56, 127
2, 109405, Note_on_c, 0, 72, 127
2, 109405, Note_on_c, 7, 55, 127
2, 109571, Note_off_c, 7, 55, 127
2, 109571, Note_off_c, 3, 51, 127
2, 109572, Note_on_c, 8, 56, 127
2, 109572, Note_on_c, 5, 53, 127
2, 109906, Note_off_c, 5, 53, 127
2, 109906, Note_off_c, 8, 56, 127
2, 109907, Note_off_c, 0, 72, 127
2, 109908, Note_on_c, 11, 70, 127
2, 109908, Note_on_c, 5, 53, 127
2, 109908, Note_on_c, 2, 50, 127
2, 110074, Note_off_c, 11, 70, 127
2, 110076, Note_on_c, 8, 68, 127
2, 110241, Note_off_c, 2, 50, 127
2, 110241, Note_off_c, 5, 53, 127
2, 110242, Note_off_c, 8, 68, 127
2, 110243, Note_on_c, 7, 67, 127
2, 110243, Note_on_c, 11, 58, 127
2, 110243, Note_on_c, 3, 51, 127
2, 110409, Note_off_c, 7, 67, 127
2, 110411, Note_on_c, 3, 63, 127
2, 110576, Note_off_c, 3, 51, 127
2, 110576, Note_off_c, 11, 58, 127
2, 110577, Note_off_c, 3, 63, 127
2, 110578, Note_on_c, 5, 65, 127
2, 110578, Note_on_c, 0, 60, 127
2, 110578, Note_on_c, 8, 56, 127
2, 110744, Note_off_c, 5, 65, 127
2, 110745, Note_on_c, 7, 67, 127
2, 110911, Note_off_c, 7, 67, 127
2, 110911, Note_off_c, 8, 56, 127
2, 110911, Note_off_c, 0, 60, 127
2, 110913, Note_on_c, 8, 68, 127
2, 110913, Note_on_c, 11, 58, 127
2, 110913, Note_on_c, 7, 55, 127
2, 111079, Note_off_c, 8, 68, 127
2, 111080, Note_on_c, 11, 70, 127
2, 111246, Note_off_c, 11, 70, 127
2, 111246, Note_off_c, 7, 55, 127
2, 111246, Note_off_c, 11, 58, 127
2, 111248, Note_on_c, 0, 72, 127
2, 111248, Note_on_c, 8, 56, 127
2, 111248, Note_on_c, 5, 53, 127
2, 111414, Note_off_c, 0, 72, 127
2, 111415, Note_on_c, 2, 74, 127
2, 111581, Note_off_c, 2, 74, 127
2, 111581, Note_off_c, 5, 53, 127
2, 111581, Note_off_c, 8, 56, 127
2, 111582, Note_on_c, 3, 75, 127
2, 111582, Note_on_c, 11, 58, 127
2, 111582, Note_on_c, 7, 55, 127
2, 111748, Note_off_c, 3, 75, 127
2, 111750, Note_on_c, 2, 74, 127
2, 111896, Note_off_c, 7, 55, 127
2, 111896, Note_off_c, 11, 58, 127
2, 111917, Note_off_c, 2, 74, 127
2, 111918, Note_on_c, 0, 72, 127
2, 111918, Note_on_c, 7, 55, 127
2, 111918, Note_on_c, 3, 51, 127
2, 112084, Note_off_c, 0, 72, 127
2, 112086, Note_on_c, 2, 74, 127
2, 112251, Note_off_c, 3, 51, 127
2, 112251, Note_off_c, 7, 55, 127
2, 112252, Note_off_c, 2, 74, 127
2, 112253, Note_on_c, 3, 75, 127
2, 112253, Note_on_c, 5, 53, 127
2, 112253, Note_on_c, 2, 50, 127
2, 112419, Note_off_c, 3, 75, 127
2, 112421, Note_on_c, 5, 77, 127
2, 112586, Note_off_c, 2, 50, 127
2, 112586, Note_off_c, 5, 53, 127
2, 112587, Note_off_c, 5, 77, 127
2, 112588, Note_on_c, 7, 79, 127
2, 112588, Note_on_c, 3, 51, 127
2, 112588, Note_on_c, 0, 48, 127
2, 112754, Note_off_c, 7, 79, 127
2, 112755, Note_on_c, 10, 81, 127
2, 112921, Note_off_c, 10, 81, 127
2, 112921, Note_off_c, 0, 48, 127
2, 112921, Note_off_c, 3, 51, 127
2, 112923, Note_on_c, 11, 82, 127
2, 112923, Note_on_c, 5, 53, 127
2, 112923, Note_on_c, 2, 50, 127
2, 113089, Note_off_c, 11, 82, 127
2, 113090, Note_on_c, 5, 65, 127
2, 113219, Note_off_c, 2, 50, 127
2, 113219, Note_off_c, 5, 53, 127
2, 113256, Note_off_c, 5, 65, 127
2, 113258, Note_on_c, 7, 67, 127
2, 113258, Note_on_c, 1, 61, 127
2, 113258, Note_on_c, 11, 58, 127
2, 113424, Note_off_c, 7, 67, 127
2, 113425, Note_on_c, 8, 68, 127
2, 113591, Note_off_c, 8, 68, 127
2, 113591, Note_off_c, 11, 58, 127
2, 113591, Note_off_c, 1, 61, 127
2, 113592, Note_on_c, 11, 70, 127
2, 113592, Note_on_c, 0, 60, 127
2, 113592, Note_on_c, 8, 56, 127
2, 113758, Note_off_c, 11, 70, 127
2, 113760, Note_on_c, 0, 72, 127
2, 113925, Note_off_c, 8, 56, 127
2, 113925, Note_off_c, 0, 60, 127
2, 113926, Note_off_c, 0, 72, 127
2, 113927, Note_on_c, 2, 74, 127
2, 113927, Note_on_c, 11, 58, 127
2, 113927, Note_on_c, 7, 55, 127
2, 114093, Note_off_c, 2, 74, 127
2, 114095, Note_on_c, 4, 76, 127
2, 114260, Note_off_c, 7, 55, 127
2, 114260, Note_off_c, 11, 58, 127
2, 114261, Note_off_c, 4, 76, 127
2, 114262, Note_on_c, 5, 77, 127
2, 114262, Note_on_c, 0, 60, 127
2, 114262, Note_on_c, 8, 56, 127
2, 114428, Note_off_c, 5, 77, 127
2, 114429, Note_on_c, 3, 75, 127
2, 114576, Note_off_c, 8, 56, 127
2, 114576, Note_off_c, 0, 60, 127
2, 114596, Note_off_c, 3, 75, 127
2, 114598, Note_on_c, 2, 74, 127
2, 114598, Note_on_c, 8, 56, 127
2, 114598, Note_on_c, 5, 53, 127
2, 114764, Note_off_c, 2, 74, 127
2, 114765, Note_on_c, 3, 75, 127
2, 114931, Note_off_c, 3, 75, 127
2, 114931, Note_off_c, 5, 53, 127
2, 114931, Note_off_c, 8, 56, 127
2, 114933, Note_on_c, 5, 77, 127
2, 114933, Note_on_c, 7, 55, 127
2, 114933, Note_on_c, 3, 51, 127
2, 115099, Note_off_c, 5, 77, 127
2, 115100, Note_on_c, 7, 79, 127
2, 115266, Note_off_c, 7, 79, 127
2, 115266, Note_off_c, 3, 51, 127
2, 115266, Note_off_c, 7, 55, 127
2, 115268, Note_on_c, 10, 81, 127
2, 115268, Note_on_c, 5, 53, 127
2, 115268, Note_on_c, 2, 50, 127
2, 115434, Note_off_c, 10, 81, 127
2, 115435, Note_on_c, 12, 83, 127
2, 115601, Note_off_c, 12, 83, 127
2, 115601, Note_off_c, 2, 50, 127
2, 115601, Note_off_c, 5, 53, 127
2, 115602, Note_on_c, 0, 84, 127
2, 115602, Note_on_c, 7, 55, 127
2, 115602, Note_on_c, 3, 51, 127
2, 115935, Note_off_c, 0, 84, 127
2, 115937, Note_on_c, 12, 83, 127
2, 115937, Note_on_c, 7, 67, 127
2, 115944, Note_off_c, 3, 51, 127
2, 115944, Note_off_c, 7, 55, 127
2, 116103, Note_off_c, 7, 67, 127
2, 116103, Note_off_c, 12, 83, 127
2, 116105, Note_on_c, 10, 81, 127
2, 116105, Note_on_c, 6, 66, 127
2, 116271, Note_off_c, 6, 66, 127
2, 116271, Note_off_c, 10, 81, 127
2, 116272, Note_on_c, 7, 79, 127
2, 116272, Note_on_c, 7, 67, 127
2, 116438, Note_off_c, 7, 79, 127
2, 116439, Note_on_c, 5, 77, 127
2, 116605, Note_off_c, 5, 77, 127
2, 116605, Note_off_c, 7, 67, 127
2, 116607, Note_on_c, 3, 75, 127
2, 116607, Note_on_c, 0, 60, 127
2, 116773, Note_off_c, 3, 75, 127
2, 116774, Note_on_c, 2, 74, 127
2, 116940, Note_off_c, 2, 74, 127
2, 116940, Note_off_c, 0, 60, 127
2, 116942, Note_on_c, 0, 72, 127
2, 116942, Note_on_c, 3, 63, 127
2, 117276, Note_off_c, 3, 63, 127
2, 117276, Note_off_c, 0, 72, 127
2, 117278, Note_on_c, 3, 75, 127
2, 117278, Note_on_c, 7, 67, 127
2, 117278, Note_on_c, 0, 48, 127
2, 117444, Note_off_c, 7, 67, 127
2, 117445, Note_on_c, 6, 66, 127
2, 117611, Note_off_c, 6, 66, 127
2, 117611, Note_off_c, 0, 48, 127
2, 117611, Note_off_c, 3, 75, 127
2, 117612, Note_on_c, 2, 74, 127
2, 117612, Note_on_c, 7, 67, 127
2, 117612, Note_on_c, 11, 46, 127
2, 117946, Note_off_c, 11, 46, 127
2, 117946, Note_off_c, 7, 67, 127
2, 117946, Note_off_c, 2, 74, 127
2, 117949, Note_on_c, 0, 72, 127
2, 117949, Note_on_c, 10, 69, 127
2, 117949, Note_on_c, 10, 45, 127
2, 118281, Note_off_c, 10, 45, 127
2, 118282, Note_off_c, 10, 69, 127
2, 118282, Note_off_c, 0, 72, 127
2, 118283, Note_on_c, 11, 70, 127
2, 118283, Note_on_c, 2, 62, 127
2, 118617, Note_off_c, 2, 62, 127
2, 118617, Note_off_c, 11, 70, 127
2, 118619, Note_on_c, 10, 69, 127
2, 118619, Note_on_c, 7, 67, 127
2, 118619, Note_on_c, 3, 51, 127
2, 118785, Note_off_c, 7, 67, 127
2, 118787, Note_on_c, 6, 66, 127
2, 118952, Note_off_c, 3, 51, 127
2, 118952, Note_off_c, 10, 69, 127
2, 118953, Note_off_c, 6, 66, 127
2, 118954, Note_on_c, 11, 70, 127
2, 118954, Note_on_c, 7, 67, 127
2, 118954, Note_on_c, 2, 50, 127
2, 119288, Note_off_c, 2, 50, 127
2, 119288, Note_off_c, 7, 67, 127
2, 119288, Note_off_c, 11, 70, 127
2, 119290, Note_on_c, 0, 72, 127
2, 119290, Note_on_c, 10, 69, 127
2, 119290, Note_on_c, 0, 48, 127
2, 119624, Note_off_c, 0, 48, 127
2, 119624, Note_off_c, 10, 69, 127
2, 119624, Note_off_c, 0, 72, 127
2, 119626, Note_on_c, 6, 66, 127
2, 119626, Note_on_c, 0, 60, 127
2, 119626, Note_on_c, 2, 50, 127
2, 119792, Note_off_c, 0, 60, 127
2, 119794, Note_on_c, 2, 62, 127
2, 119959, Note_off_c, 2, 50, 127
2, 119959, Note_off_c, 6, 66, 127
2, 119960, Note_off_c, 2, 62, 127
2, 119961, Note_on_c, 7, 67, 127
2, 119961, Note_on_c, 0, 60, 127
2, 119961, Note_on_c, 0, 48, 127
2, 120042, Note_off_c, 0, 60, 127
2, 120044, Note_on_c, 2, 62, 127
2, 120125, Note_off_c, 2, 62, 127
2, 120125, Note_off_c, 0, 48, 127
2, 120127, Note_on_c, 3, 63, 127
2, 120127, Note_on_c, 11, 46, 127
2, 120293, Note_off_c, 11, 46, 127
2, 120293, Note_off_c, 7, 67, 127
2, 120295, Note_on_c, 10, 69, 127
2, 120295, Note_on_c, 0, 48, 127
2, 120629, Note_off_c, 0, 48, 127
2, 120629, Note_off_c, 10, 69, 127
2, 120629, Note_off_c, 3, 63, 127
2, 120631, Note_on_c, 6, 66, 127
2, 120631, Note_on_c, 2, 62, 127
2, 120631, Note_on_c, 2, 50, 127
2, 120797, Note_off_c, 2, 62, 127
2, 120798, Note_on_c, 0, 60, 127
2, 120964, Note_off_c, 0, 60, 127
2, 120964, Note_off_c, 2, 50, 127
2, 120964, Note_off_c, 6, 66, 127
2, 120965, Note_on_c, 7, 67, 127
2, 120965, Note_on_c, 11, 58, 127
2, 120965, Note_on_c, 7, 43, 127
2, 121297, Note_off_c, 11, 58, 127
2, 121298, Note_off_c, 7, 43, 127
2, 121298, Note_off_c, 7, 67, 127
2, 121300, Note_on_c, 2, 74, 127
2, 121300, Note_on_c, 11, 58, 127
2, 121466, Note_off_c, 11, 58, 127
2, 121466, Note_off_c, 2, 74, 127
2, 121468, Note_on_c, 0, 72, 127
2, 121468, Note_on_c, 10, 57, 127
2, 121634, Note_off_c, 10, 57, 127
2, 121634, Note_off_c, 0, 72, 127
2, 121635, Note_on_c, 2, 74, 127
2, 121635, Note_on_c, 11, 58, 127
2, 121804, Note_on_c, 2, 62, 127
2, 121969, Note_off_c, 11, 58, 127
2, 121970, Note_off_c, 2, 62, 127
2, 121971, Note_on_c, 4, 64, 127
2, 121971, Note_on_c, 2, 50, 127
2, 122137, Note_off_c, 4, 64, 127
2, 122138, Note_on_c, 6, 66, 127
2, 122304, Note_off_c, 6, 66, 127
2, 122304, Note_off_c, 2, 50, 127
2, 122306, Note_on_c, 7, 67, 127
2, 122306, Note_on_c, 3, 51, 127
2, 122472, Note_off_c, 7, 67, 127
2, 122473, Note_off_c, 2, 74, 127
2, 122473, Note_on_c, 10, 69, 127
2, 122639, Note_off_c, 10, 69, 127
2, 122639, Note_off_c, 3, 51, 127
2, 122641, Note_on_c, 4, 76, 127
2, 122641, Note_on_c, 11, 70, 127
2, 122641, Note_on_c, 0, 60, 127
2, 122807, Note_off_c, 0, 60, 127
2, 122807, Note_off_c, 4, 76, 127
2, 122808, Note_on_c, 2, 74, 127
2, 122808, Note_on_c, 11, 58, 127
2, 122974, Note_off_c, 11, 58, 127
2, 122974, Note_off_c, 2, 74, 127
2, 122975, Note_on_c, 4, 76, 127
2, 122975, Note_on_c, 0, 60, 127
2, 123141, Note_off_c, 11, 70, 127
2, 123143, Note_on_c, 4, 64, 127
2, 123308, Note_off_c, 0, 60, 127
2, 123309, Note_off_c, 4, 64, 127
2, 123310, Note_on_c, 5, 65, 127
2, 123310, Note_on_c, 4, 52, 127
2, 123476, Note_off_c, 5, 65, 127
2, 123478, Note_on_c, 7, 67, 127
2, 123638, Note_off_c, 4, 76, 127
2, 123643, Note_off_c, 4, 52, 127
2, 123644, Note_off_c, 7, 67, 127
2, 123645, Note_on_c, 10, 69, 127
2, 123645, Note_on_c, 5, 53, 127
2, 123811, Note_off_c, 10, 69, 127
2, 123812, Note_on_c, 11, 70, 127
2, 123978, Note_off_c, 11, 70, 127
2, 123978, Note_off_c, 5, 53, 127
2, 123980, Note_on_c, 6, 78, 127
2, 123980, Note_on_c, 0, 72, 127
2, 123980, Note_on_c, 2, 62, 127
2, 124146, Note_off_c, 2, 62, 127
2, 124146, Note_off_c, 6, 78, 127
2, 124147, Note_on_c, 4, 76, 127
2, 124147, Note_on_c, 0, 60, 127
2, 124313, Note_off_c, 0, 60, 127
2, 124313, Note_off_c, 4, 76, 127
2, 124315, Note_on_c, 6, 78, 127
2, 124315, Note_on_c, 2, 62, 127
2, 124480, Note_off_c, 0, 72, 127
2, 124482, Note_on_c, 6, 66, 127
2, 124647, Note_off_c, 6, 78, 127
2, 124648, Note_off_c, 6, 66, 127
2, 124648, Note_off_c, 2, 62, 127
2, 124649, Note_on_c, 7, 67, 127
2, 124649, Note_on_c, 6, 54, 127
2, 124815, Note_off_c, 7, 67, 127
2, 124817, Note_on_c, 10, 69, 127
2, 124982, Note_off_c, 6, 54, 127
2, 124983, Note_off_c, 10, 69, 127
2, 124984, Note_on_c, 11, 70, 127
2, 124984, Note_on_c, 7, 55, 127
2, 125318, Note_off_c, 11, 70, 127
2, 125320, Note_on_c, 7, 67, 127
2, 125320, Note_on_c, 3, 63, 127
2, 125486, Note_off_c, 3, 63, 127
2, 125486, Note_off_c, 7, 67, 127
2, 125488, Note_on_c, 5, 65, 127
2, 125488, Note_on_c, 2, 62, 127
2, 125654, Note_off_c, 2, 62, 127
2, 125654, Note_off_c, 5, 65, 127
2, 125655, Note_on_c, 7, 67, 127
2, 125655, Note_on_c, 3, 63, 127
2, 125752, Note_off_c, 7, 55, 127
2, 125823, Note_on_c, 7, 43, 127
2, 125988, Note_off_c, 3, 63, 127
2, 125989, Note_off_c, 7, 43, 127
2, 125990, Note_on_c, 7, 55, 127
2, 125990, Note_on_c, 10, 45, 127
2, 126156, Note_off_c, 10, 45, 127
2, 126157, Note_on_c, 12, 47, 127
2, 126318, Note_off_c, 7, 67, 127
2, 126323, Note_off_c, 12, 47, 127
2, 126323, Note_off_c, 7, 55, 127
2, 126325, Note_on_c, 8, 56, 127
2, 126325, Note_on_c, 0, 48, 127
2, 126491, Note_off_c, 0, 48, 127
2, 126492, Note_on_c, 2, 50, 127
2, 126658, Note_off_c, 2, 50, 127
2, 126658, Note_off_c, 8, 56, 127
2, 126660, Note_on_c, 10, 69, 127
2, 126660, Note_on_c, 5, 65, 127
2, 126660, Note_on_c, 3, 51, 127
2, 126826, Note_off_c, 5, 65, 127
2, 126826, Note_off_c, 10, 69, 127
2, 126827, Note_on_c, 7, 67, 127
2, 126827, Note_on_c, 3, 63, 127
2, 126993, Note_off_c, 3, 63, 127
2, 126993, Note_off_c, 7, 67, 127
2, 126994, Note_on_c, 10, 69, 127
2, 126994, Note_on_c, 5, 65, 127
2, 127079, Note_off_c, 3, 51, 127
2, 127163, Note_on_c, 10, 45, 127
2, 127328, Note_off_c, 5, 65, 127
2, 127329, Note_off_c, 10, 45, 127
2, 127330, Note_on_c, 10, 57, 127
2, 127330, Note_on_c, 11, 46, 127
2, 127496, Note_off_c, 11, 46, 127
2, 127498, Note_on_c, 0, 48, 127
2, 127658, Note_off_c, 10, 69, 127
2, 127663, Note_off_c, 10, 57, 127
2, 127664, Note_off_c, 0, 48, 127
2, 127665, Note_on_c, 11, 58, 127
2, 127665, Note_on_c, 2, 50, 127
2, 127831, Note_off_c, 2, 50, 127
2, 127833, Note_on_c, 3, 51, 127
2, 127998, Note_off_c, 11, 58, 127
2, 127999, Note_off_c, 3, 51, 127
2, 128000, Note_on_c, 12, 71, 127
2, 128000, Note_on_c, 7, 67, 127
2, 128000, Note_on_c, 5, 53, 127
2, 128166, Note_off_c, 7, 67, 127
2, 128166, Note_off_c, 12, 71, 127
2, 128167, Note_on_c, 10, 69, 127
2, 128167, Note_on_c, 5, 65, 127
2, 128333, Note_off_c, 5, 65, 127
2, 128333, Note_off_c, 10, 69, 127
2, 128335, Note_on_c, 12, 71, 127
2, 128335, Note_on_c, 7, 67, 127
2, 128419, Note_off_c, 5, 53, 127
2, 128503, Note_on_c, 12, 47, 127
2, 128669, Note_off_c, 12, 47, 127
2, 128669, Note_off_c, 7, 67, 127
2, 128671, Note_on_c, 12, 59, 127
2, 128671, Note_on_c, 0, 48, 127
2, 128837, Note_off_c, 0, 48, 127
2, 128838, Note_on_c, 2, 50, 127
2, 128999, Note_off_c, 12, 71, 127
2, 129004, Note_off_c, 2, 50, 127
2, 129004, Note_off_c, 12, 59, 127
2, 129006, Note_on_c, 0, 60, 127
2, 129006, Note_on_c, 3, 51, 127
2, 129172, Note_off_c, 0, 60, 127
2, 129173, Note_on_c, 5, 65, 127
2, 129339, Note_off_c, 5, 65, 127
2, 129340, Note_on_c, 0, 72, 127
2, 129340, Note_on_c, 3, 63, 127
2, 129506, Note_off_c, 3, 63, 127
2, 129506, Note_off_c, 0, 72, 127
2, 129508, Note_on_c, 12, 71, 127
2, 129508, Note_on_c, 2, 62, 127
2, 129674, Note_off_c, 2, 62, 127
2, 129674, Note_off_c, 12, 71, 127
2, 129675, Note_on_c, 0, 72, 127
2, 129675, Note_on_c, 0, 60, 127
2, 129806, Note_off_c, 3, 51, 127
2, 129841, Note_off_c, 0, 60, 127
2, 129843, Note_on_c, 11, 58, 127
2, 130008, Note_off_c, 0, 72, 127
2, 130009, Note_off_c, 11, 58, 127
2, 130010, Note_on_c, 7, 67, 127
2, 130010, Note_on_c, 8, 56, 127
2, 130010, Note_on_c, 4, 52, 127
2, 130176, Note_off_c, 8, 56, 127
2, 130177, Note_on_c, 7, 55, 127
2, 130343, Note_off_c, 7, 55, 127
2, 130343, Note_off_c, 4, 52, 127
2, 130343, Note_off_c, 7, 67, 127
2, 130345, Note_on_c, 8, 68, 127
2, 130345, Note_on_c, 5, 53, 127
2, 130679, Note_off_c, 5, 53, 127
2, 130679, Note_off_c, 8, 68, 127
2, 130681, Note_on_c, 0, 72, 127
2, 130681, Note_on_c, 8, 68, 127
2, 130681, Note_on_c, 5, 41, 127
2, 130847, Note_off_c, 0, 72, 127
2, 130848, Note_on_c, 12, 71, 127
2, 131014, Note_off_c, 12, 71, 127
2, 131014, Note_off_c, 5, 41, 127
2, 131014, Note_off_c, 8, 68, 127
2, 131016, Note_on_c, 0, 72, 127
2, 131016, Note_on_c, 7, 67, 127
2, 131016, Note_on_c, 3, 39, 127
2, 131350, Note_off_c, 3, 39, 127
2, 131350, Note_off_c, 7, 67, 127
2, 131350, Note_off_c, 0, 72, 127
2, 131352, Note_on_c, 2, 74, 127
2, 131352, Note_on_c, 5, 65, 127
2, 131352, Note_on_c, 2, 38, 127
2, 131684, Note_off_c, 2, 38, 127
2, 131685, Note_off_c, 5, 65, 127
2, 131685, Note_off_c, 2, 74, 127
2, 131686, Note_on_c, 7, 67, 127
2, 131686, Note_on_c, 3, 63, 127
2, 132020, Note_off_c, 3, 63, 127
2, 132020, Note_off_c, 7, 67, 127
2, 132023, Note_on_c, 0, 72, 127
2, 132023, Note_on_c, 2, 62, 127
2, 132023, Note_on_c, 8, 44, 127
2, 132189, Note_off_c, 0, 72, 127
2, 132190, Note_on_c, 12, 71, 127
2, 132356, Note_off_c, 12, 71, 127
2, 132356, Note_off_c, 8, 44, 127
2, 132356, Note_off_c, 2, 62, 127
2, 132357, Note_on_c, 0, 72, 127
2, 132357, Note_on_c, 3, 63, 127
2, 132357, Note_on_c, 7, 43, 127
2, 132691, Note_off_c, 7, 43, 127
2, 132691, Note_off_c, 3, 63, 127
2, 132691, Note_off_c, 0, 72, 127
2, 132693, Note_on_c, 2, 74, 127
2, 132693, Note_on_c, 5, 65, 127
2, 132693, Note_on_c, 5, 41, 127
2, 132963, Note_off_c, 2, 74, 127
2, 133027, Note_off_c, 5, 41, 127
2, 133027, Note_off_c, 5, 65, 127
2, 133029, Note_on_c, 5, 65, 127
2, 133029, Note_on_c, 12, 59, 127
2, 133029, Note_on_c, 7, 43, 127
2, 133195, Note_off_c, 5, 65, 127
2, 133197, Note_on_c, 7, 67, 127
2, 133362, Note_off_c, 7, 43, 127
2, 133362, Note_off_c, 12, 59, 127
2, 133363, Note_off_c, 7, 67, 127
2, 133364, Note_on_c, 5, 65, 127
2, 133364, Note_on_c, 0, 60, 127
2, 133364, Note_on_c, 5, 41, 127
2, 133445, Note_off_c, 5, 65, 127
2, 133447, Note_on_c, 7, 67, 127
2, 133528, Note_off_c, 7, 67, 127
2, 133528, Note_off_c, 5, 41, 127
2, 133530, Note_on_c, 8, 68, 127
2, 133530, Note_on_c, 3, 39, 127
2, 133696, Note_off_c, 3, 39, 127
2, 133696, Note_off_c, 0, 60, 127
2, 133698, Note_on_c, 2, 62, 127
2, 133698, Note_on_c, 5, 41, 127
2, 134032, Note_off_c, 5, 41, 127
2, 134032, Note_off_c, 2, 62, 127
2, 134032, Note_off_c, 8, 68, 127
2, 134034, Note_on_c, 7, 67, 127
2, 134034, Note_on_c, 12, 59, 127
2, 134034, Note_on_c, 7, 43, 127
2, 134200, Note_off_c, 7, 67, 127
2, 134201, Note_on_c, 5, 65, 127
2, 134367, Note_off_c, 5, 65, 127
2, 134367, Note_off_c, 7, 43, 127
2, 134367, Note_off_c, 12, 59, 127
2, 134369, Note_on_c, 3, 63, 127
2, 134369, Note_on_c, 0, 60, 127
2, 134369, Note_on_c, 0, 48, 127
2, 134535, Note_off_c, 0, 48, 127
2, 134536, Note_on_c, 2, 50, 127
2, 134702, Note_off_c, 2, 50, 127
2, 134702, Note_off_c, 3, 63, 127
2, 134703, Note_on_c, 0, 72, 127
2, 134703, Note_on_c, 3, 51, 127
2, 134869, Note_off_c, 3, 51, 127
2, 134869, Note_off_c, 0, 72, 127
2, 134871, Note_on_c, 12, 71, 127
2, 134871, Note_on_c, 2, 50, 127
2, 135032, Note_off_c, 0, 60, 127
2, 135037, Note_off_c, 2, 50, 127
2, 135037, Note_off_c, 12, 71, 127
2, 135038, Note_on_c, 0, 72, 127
2, 135038, Note_on_c, 0, 48, 127
2, 135204, Note_off_c, 0, 48, 127
2, 135206, Note_on_c, 11, 46, 127
2, 135308, Note_off_c, 0, 72, 127
2, 135372, Note_off_c, 11, 46, 127
2, 135373, Note_on_c, 7, 67, 127
2, 135373, Note_on_c, 4, 64, 127
2, 135373, Note_on_c, 8, 44, 127
2, 135539, Note_off_c, 8, 44, 127
2, 135540, Note_on_c, 7, 43, 127
2, 135706, Note_off_c, 7, 43, 127
2, 135706, Note_off_c, 4, 64, 127
2, 135706, Note_off_c, 7, 67, 127
2, 135708, Note_on_c, 8, 68, 127
2, 135708, Note_on_c, 5, 65, 127
2, 135708, Note_on_c, 5, 41, 127
2, 135874, Note_off_c, 5, 41, 127
2, 135875, Note_on_c, 11, 58, 127
2, 136041, Note_off_c, 11, 58, 127
2, 136041, Note_off_c, 5, 65, 127
2, 136043, Note_on_c, 5, 65, 127
2, 136043, Note_on_c, 8, 56, 127
2, 136209, Note_off_c, 8, 56, 127
2, 136209, Note_off_c, 5, 65, 127
2, 136210, Note_on_c, 4, 64, 127
2, 136210, Note_on_c, 7, 55, 127
2, 136376, Note_off_c, 7, 55, 127
2, 136376, Note_off_c, 4, 64, 127
2, 136377, Note_on_c, 5, 65, 127
2, 136377, Note_on_c, 5, 53, 127
2, 136543, Note_off_c, 5, 53, 127
2, 136545, Note_on_c, 3, 51, 127
2, 136614, Note_off_c, 8, 68, 127
2, 136710, Note_off_c, 5, 65, 127
2, 136711, Note_off_c, 3, 51, 127
2, 136712, Note_on_c, 10, 69, 127
2, 136712, Note_on_c, 0, 60, 127
2, 136712, Note_on_c, 2, 50, 127
2, 136878, Note_off_c, 2, 50, 127
2, 136880, Note_on_c, 0, 48, 127
2, 137045, Note_off_c, 0, 60, 127
2, 137045, Note_off_c, 10, 69, 127
2, 137046, Note_off_c, 0, 48, 127
2, 137047, Note_on_c, 11, 70, 127
2, 137047, Note_on_c, 2, 62, 127
2, 137047, Note_on_c, 11, 46, 127
2, 137213, Note_off_c, 11, 46, 127
2, 137214, Note_on_c, 0, 48, 127
2, 137380, Note_off_c, 0, 48, 127
2, 137380, Note_off_c, 11, 70, 127
2, 137382, Note_on_c, 11, 70, 127
2, 137382, Note_on_c, 2, 50, 127
2, 137548, Note_off_c, 2, 50, 127
2, 137548, Note_off_c, 11, 70, 127
2, 137549, Note_on_c, 10, 69, 127
2, 137549, Note_on_c, 0, 48, 127
2, 137715, Note_off_c, 0, 48, 127
2, 137715, Note_off_c, 10, 69, 127
2, 137717, Note_on_c, 11, 70, 127
2, 137717, Note_on_c, 11, 46, 127
2, 137883, Note_off_c, 11, 46, 127
2, 137884, Note_off_c, 2, 62, 127
2, 137884, Note_on_c, 8, 44, 127
2, 137987, Note_off_c, 11, 70, 127
2, 138050, Note_off_c, 8, 44, 127
2, 138051, Note_on_c, 5, 65, 127
2, 138051, Note_on_c, 2, 62, 127
2, 138051, Note_on_c, 7, 43, 127
2, 138217, Note_off_c, 7, 43, 127
2, 138219, Note_on_c, 5, 41, 127
2, 138384, Note_off_c, 2, 62, 127
2, 138384, Note_off_c, 5, 65, 127
2, 138385, Note_off_c, 5, 41, 127
2, 138386, Note_on_c, 7, 67, 127
2, 138386, Note_on_c, 3, 63, 127
2, 138386, Note_on_c, 3, 39, 127
2, 138552, Note_off_c, 3, 39, 127
2, 138554, Note_on_c, 8, 56, 127
2, 138719, Note_off_c, 3, 63, 127
2, 138720, Note_off_c, 8, 56, 127
2, 138721, Note_on_c, 3, 63, 127
2, 138721, Note_on_c, 7, 55, 127
2, 138887, Note_off_c, 7, 55, 127
2, 138887, Note_off_c, 3, 63, 127
2, 138888, Note_on_c, 2, 62, 127
2, 138888, Note_on_c, 5, 53, 127
2, 139054, Note_off_c, 5, 53, 127
2, 139054, Note_off_c, 2, 62, 127
2, 139056, Note_on_c, 3, 63, 127
2, 139056, Note_on_c, 3, 51, 127
2, 139222, Note_off_c, 3, 51, 127
2, 139223, Note_on_c, 1, 49, 127
2, 139311, Note_off_c, 7, 67, 127
2, 139390, Note_off_c, 1, 49, 127
2, 139390, Note_off_c, 3, 63, 127
2, 139392, Note_on_c, 7, 67, 127
2, 139392, Note_on_c, 11, 58, 127
2, 139392, Note_on_c, 0, 48, 127
2, 139558, Note_off_c, 0, 48, 127
2, 139559, Note_on_c, 11, 46, 127
2, 139725, Note_off_c, 11, 46, 127
2, 139725, Note_off_c, 11, 58, 127
2, 139727, Note_on_c, 0, 60, 127
2, 139727, Note_on_c, 8, 44, 127
2, 139893, Note_off_c, 8, 44, 127
2, 139894, Note_on_c, 11, 46, 127
2, 140060, Note_off_c, 11, 46, 127
2, 140060, Note_off_c, 7, 67, 127
2, 140061, Note_on_c, 8, 68, 127
2, 140061, Note_on_c, 0, 48, 127
2, 140227, Note_off_c, 0, 48, 127
2, 140227, Note_off_c, 8, 68, 127
2, 140229, Note_on_c, 11, 70, 127
2, 140229, Note_on_c, 11, 46, 127
2, 140395, Note_off_c, 11, 46, 127
2, 140395, Note_off_c, 11, 70, 127
2, 140396, Note_on_c, 0, 72, 127
2, 140396, Note_on_c, 8, 44, 127
2, 140562, Note_off_c, 8, 44, 127
2, 140562, Note_off_c, 0, 72, 127
2, 140564, Note_on_c, 12, 71, 127
2, 140564, Note_on_c, 7, 43, 127
2, 140730, Note_off_c, 7, 43, 127
2, 140730, Note_off_c, 12, 71, 127
2, 140731, Note_on_c, 0, 72, 127
2, 140731, Note_on_c, 5, 41, 127
2, 140897, Note_off_c, 5, 41, 127
2, 140897, Note_off_c, 0, 72, 127
2, 140898, Note_on_c, 8, 68, 127
2, 140898, Note_on_c, 3, 39, 127
2, 141064, Note_off_c, 3, 39, 127
2, 141064, Note_off_c, 8, 68, 127
2, 141066, Note_on_c, 5, 65, 127
2, 141066, Note_on_c, 2, 38, 127
2, 141232, Note_off_c, 2, 38, 127
2, 141233, Note_on_c, 7, 55, 127
2, 141296, Note_off_c, 0, 60, 127
2, 141399, Note_off_c, 7, 55, 127
2, 141401, Note_on_c, 2, 62, 127
2, 141401, Note_on_c, 5, 53, 127
2, 141567, Note_off_c, 5, 53, 127
2, 141567, Note_off_c, 2, 62, 127
2, 141568, Note_on_c, 3, 63, 127
2, 141568, Note_on_c, 3, 51, 127
2, 141729, Note_off_c, 5, 65, 127
2, 141734, Note_off_c, 3, 51, 127
2, 141734, Note_off_c, 3, 63, 127
2, 141735, Note_on_c, 5, 65, 127
2, 141735, Note_on_c, 2, 50, 127
2, 141901, Note_off_c, 2, 50, 127
2, 141901, Note_off_c, 5, 65, 127
2, 141903, Note_on_c, 3, 63, 127
2, 141903, Note_on_c, 0, 48, 127
2, 142069, Note_off_c, 0, 48, 127
2, 142069, Note_off_c, 3, 63, 127
2, 142070, Note_on_c, 5, 65, 127
2, 142070, Note_on_c, 12, 47, 127
2, 142236, Note_off_c, 12, 47, 127
2, 142238, Note_on_c, 2, 62, 127
2, 142238, Note_on_c, 10, 45, 127
2, 142402, Note_off_c, 5, 65, 127
2, 142404, Note_off_c, 10, 45, 127
2, 142404, Note_off_c, 2, 62, 127
2, 142405, Note_on_c, 12, 59, 127
2, 142405, Note_on_c, 7, 43, 127
2, 142737, Note_off_c, 12, 59, 127
2, 142741, Note_on_c, 2, 74, 127
2, 142907, Note_off_c, 2, 74, 127
2, 142908, Note_on_c, 0, 72, 127
2, 143074, Note_off_c, 0, 72, 127
2, 143076, Note_on_c, 2, 74, 127
2, 143346, Note_off_c, 2, 74, 127
2, 143412, Note_on_c, 5, 65, 127
2, 143412, Note_on_c, 12, 59, 127
2, 143746, Note_off_c, 12, 59, 127
2, 143746, Note_off_c, 5, 65, 127
2, 143748, Note_on_c, 3, 63, 127
2, 143748, Note_on_c, 0, 60, 127
2, 143803, Note_off_c, 7, 43, 127
2, 143915, Note_on_c, 7, 43, 127
2, 144080, Note_off_c, 0, 60, 127
2, 144081, Note_off_c, 7, 43, 127
2, 144081, Note_off_c, 3, 63, 127
2, 144083, Note_on_c, 3, 75, 127
2, 144083, Note_on_c, 10, 45, 127
2, 144249, Note_off_c, 10, 45, 127
2, 144249, Note_off_c, 3, 75, 127
2, 144250, Note_on_c, 2, 74, 127
2, 144250, Note_on_c, 12, 47, 127
2, 144416, Note_off_c, 12, 47, 127
2, 144416, Note_off_c, 2, 74, 127
2, 144418, Note_on_c, 3, 75, 127
2, 144418, Note_on_c, 0, 48, 127
2, 144584, Note_off_c, 0, 48, 127
2, 144585, Note_on_c, 2, 50, 127
2, 144688, Note_off_c, 3, 75, 127
2, 144751, Note_off_c, 2, 50, 127
2, 144752, Note_on_c, 7, 67, 127
2, 144752, Note_on_c, 3, 63, 127
2, 144752, Note_on_c, 3, 51, 127
2, 144918, Note_off_c, 3, 51, 127
2, 144920, Note_on_c, 5, 53, 127
2, 145085, Note_off_c, 3, 63, 127
2, 145085, Note_off_c, 7, 67, 127
2, 145086, Note_off_c, 5, 53, 127
2, 145087, Note_on_c, 5, 65, 127
2, 145087, Note_on_c, 2, 62, 127
2, 145087, Note_on_c, 7, 55, 127
2, 145253, Note_off_c, 7, 55, 127
2, 145255, Note_on_c, 5, 53, 127
2, 145420, Note_off_c, 5, 65, 127
2, 145421, Note_off_c, 5, 53, 127
2, 145422, Note_on_c, 5, 77, 127
2, 145422, Note_on_c, 8, 56, 127
2, 145588, Note_off_c, 8, 56, 127
2, 145588, Note_off_c, 5, 77, 127
2, 145589, Note_on_c, 3, 75, 127
2, 145589, Note_on_c, 7, 55, 127
2, 145755, Note_off_c, 7, 55, 127
2, 145755, Note_off_c, 3, 75, 127
2, 145757, Note_on_c, 5, 77, 127
2, 145757, Note_on_c, 5, 53, 127
2, 145923, Note_off_c, 5, 53, 127
2, 145924, Note_off_c, 2, 62, 127
2, 145924, Note_on_c, 3, 51, 127
2, 146027, Note_off_c, 5, 77, 127
2, 146090, Note_off_c, 3, 51, 127
2, 146092, Note_on_c, 8, 68, 127
2, 146092, Note_on_c, 5, 65, 127
2, 146092, Note_on_c, 2, 50, 127
2, 146258, Note_off_c, 2, 50, 127
2, 146259, Note_on_c, 0, 48, 127
2, 146425, Note_off_c, 0, 48, 127
2, 146425, Note_off_c, 8, 68, 127
2, 146426, Note_on_c, 7, 67, 127
2, 146426, Note_on_c, 12, 47, 127
2, 146592, Note_off_c, 7, 67, 127
2, 146594, Note_on_c, 5, 77, 127
2, 146755, Note_off_c, 5, 65, 127
2, 146759, Note_off_c, 12, 47, 127
2, 146760, Note_off_c, 5, 77, 127
2, 146761, Note_on_c, 3, 75, 127
2, 146761, Note_on_c, 0, 48, 127
2, 146927, Note_off_c, 0, 48, 127
2, 146927, Note_off_c, 3, 75, 127
2, 146929, Note_on_c, 2, 74, 127
2, 146929, Note_on_c, 12, 47, 127
2, 147095, Note_off_c, 12, 47, 127
2, 147095, Note_off_c, 2, 74, 127
2, 147096, Note_on_c, 0, 72, 127
2, 147096, Note_on_c, 0, 48, 127
2, 147262, Note_off_c, 0, 72, 127
2, 147263, Note_on_c, 12, 71, 127
2, 147429, Note_off_c, 12, 71, 127
2, 147429, Note_off_c, 0, 48, 127
2, 147431, Note_on_c, 10, 69, 127
2, 147431, Note_on_c, 5, 65, 127
2, 147431, Note_on_c, 7, 43, 127
2, 147597, Note_off_c, 10, 69, 127
2, 147598, Note_on_c, 7, 67, 127
2, 147764, Note_off_c, 7, 67, 127
2, 147764, Note_off_c, 7, 43, 127
2, 147764, Note_off_c, 5, 65, 127
2, 147766, Note_on_c, 0, 72, 127
2, 147766, Note_on_c, 3, 63, 127
2, 147766, Note_on_c, 8, 44, 127
2, 148100, Note_off_c, 8, 44, 127
2, 148100, Note_off_c, 3, 63, 127
2, 148100, Note_off_c, 0, 72, 127
2, 148102, Note_on_c, 5, 77, 127
2, 148102, Note_on_c, 8, 68, 127
2, 148102, Note_on_c, 0, 48, 127
2, 148268, Note_off_c, 0, 48, 127
2, 148269, Note_on_c, 12, 47, 127
2, 148435, Note_off_c, 12, 47, 127
2, 148435, Note_off_c, 8, 68, 127
2, 148435, Note_off_c, 5, 77, 127
2, 148436, Note_on_c, 3, 75, 127
2, 148436, Note_on_c, 7, 67, 127
2, 148436, Note_on_c, 0, 48, 127
2, 148770, Note_off_c, 0, 48, 127
2, 148770, Note_off_c, 7, 67, 127
2, 148770, Note_off_c, 3, 75, 127
2, 148772, Note_on_c, 2, 74, 127
2, 148772, Note_on_c, 5, 65, 127
2, 148772, Note_on_c, 2, 50, 127
2, 149104, Note_off_c, 2, 74, 127
2, 149105, Note_off_c, 2, 50, 127
2, 149105, Note_off_c, 5, 65, 127
2, 149107, Note_on_c, 3, 63, 127
2, 149107, Note_on_c, 7, 43, 127
2, 149441, Note_off_c, 7, 43, 127
2, 149441, Note_off_c, 3, 63, 127
2, 149443, Note_on_c, 8, 68, 127
2, 149443, Note_on_c, 2, 62, 127
2, 149443, Note_on_c, 0, 48, 127
2, 149609, Note_off_c, 0, 48, 127
2, 149611, Note_on_c, 12, 47, 127
2, 149776, Note_off_c, 2, 62, 127
2, 149776, Note_off_c, 8, 68, 127
2, 149777, Note_off_c, 12, 47, 127
2, 149778, Note_on_c, 7, 67, 127
2, 149778, Note_on_c, 3, 63, 127
2, 149778, Note_on_c, 0, 48, 127
2, 150112, Note_off_c, 0, 48, 127
2, 150112, Note_off_c, 3, 63, 127
2, 150112, Note_off_c, 7, 67, 127
2, 150114, Note_on_c, 5, 65, 127
2, 150114, Note_on_c, 2, 62, 127
2, 150114, Note_on_c, 2, 50, 127
2, 150448, Note_off_c, 2, 50, 127
2, 150448, Note_off_c, 2, 62, 127
2, 150448, Note_off_c, 5, 65, 127
2, 150450, Note_on_c, 7, 67, 127
2, 150450, Note_on_c, 12, 59, 127
2, 150450, Note_on_c, 5, 41, 127
2, 150626, Note_off_c, 5, 41, 127
2, 150629, Note_on_c, 7, 43, 127
2, 150790, Note_off_c, 12, 59, 127
2, 150790, Note_off_c, 7, 67, 127
2, 150805, Note_off_c, 7, 43, 127
2, 150807, Note_on_c, 5, 65, 127
2, 150807, Note_on_c, 0, 60, 127
2, 150807, Note_on_c, 8, 44, 127
2, 150983, Note_off_c, 5, 65, 127
2, 150986, Note_on_c, 3, 63, 127
2, 151142, Note_off_c, 3, 63, 127
2, 151147, Note_off_c, 0, 60, 127
2, 151161, Note_off_c, 8, 44, 127
2, 151164, Note_on_c, 5, 65, 127
2, 151164, Note_on_c, 2, 62, 127
2, 151164, Note_on_c, 8, 44, 127
2, 151494, Note_off_c, 2, 62, 127
2, 151494, Note_off_c, 5, 65, 127
2, 151518, Note_off_c, 8, 44, 127
2, 151522, Note_on_c, 2, 62, 127
2, 151522, Note_on_c, 12, 59, 127
2, 151522, Note_on_c, 7, 43, 127
2, 151698, Note_off_c, 7, 43, 127
2, 151700, Note_on_c, 5, 41, 127
2, 151842, Note_off_c, 12, 59, 127
2, 151842, Note_off_c, 2, 62, 127
2, 151876, Note_off_c, 5, 41, 127
2, 151895, Note_on_c, 3, 39, 127
2, 151895, Note_on_c, 12, 59, 127
2, 151895, Note_on_c, 8, 68, 127
2, 151895, Note_on_c, 2, 62, 127
2, 152286, Note_off_c, 2, 62, 127
2, 152286, Note_off_c, 8, 68, 127
2, 152286, Note_off_c, 12, 59, 127
2, 152321, Note_on_c, 0, 60, 127
2, 152321, Note_on_c, 7, 67, 127
2, 153075, Note_off_c, 3, 39, 127
2, 153091, Note_off_c, 7, 67, 127
2, 153091, Note_off_c, 0, 60, 127
2, 153126, Note_on_c, 10, 69, 127
2, 153126, Note_on_c, 0, 60, 127
2, 153126, Note_on_c, 3, 51, 127
2, 153517, Note_off_c, 3, 51, 127
2, 153517, Note_off_c, 0, 60, 127
2, 153517, Note_off_c, 10, 69, 127
2, 153520, Note_on_c, 12, 71, 127
2, 153520, Note_on_c, 5, 65, 127
2, 153520, Note_on_c, 2, 50, 127
2, 153714, Note_off_c, 5, 65, 127
2, 153717, Note_on_c, 2, 62, 127
2, 153911, Note_off_c, 2, 62, 127
2, 153911, Note_off_c, 2, 50, 127
2, 153911, Note_off_c, 12, 71, 127
2, 153914, Note_on_c, 0, 72, 127
2, 153914, Note_on_c, 3, 63, 127
2, 153914, Note_on_c, 0, 48, 127
2, 154108, Note_off_c, 3, 63, 127
2, 154111, Note_on_c, 0, 60, 127
2, 154304, Note_off_c, 0, 48, 127
2, 154305, Note_off_c, 0, 72, 127
2, 154309, Note_on_c, 5, 65, 127
2, 154309, Note_on_c, 7, 55, 127
2, 154503, Note_off_c, 5, 65, 127
2, 154506, Note_on_c, 3, 63, 127
2, 154693, Note_off_c, 0, 60, 127
2, 154700, Note_off_c, 3, 63, 127
2, 154700, Note_off_c, 7, 55, 127
2, 154703, Note_on_c, 2, 62, 127
2, 154703, Note_on_c, 12, 59, 127
2, 154703, Note_on_c, 7, 43, 127
2, 154897, Note_off_c, 2, 62, 127
2, 154900, Note_on_c, 0, 60, 127
2, 154953, Note_off_c, 12, 59, 127
2, 155094, Note_off_c, 0, 60, 127
2, 155094, Note_off_c, 7, 43, 127
2, 155097, Note_on_c, 0, 60, 127
2, 155097, Note_on_c, 0, 36, 127
2, 155097, Note_on_c, 0, 48, 127
2, 155492, Note_on_c, 0, 72, 127
2, 155686, Note_off_c, 0, 72, 127
2, 155689, Note_on_c, 12, 71, 127
2, 155883, Note_off_c, 12, 71, 127
2, 155886, Note_on_c, 0, 72, 127
2, 156277, Note_off_c, 0, 72, 127
2, 156277, Note_off_c, 0, 60, 127
2, 156280, Note_on_c, 7, 67, 127
2, 156280, Note_on_c, 4, 64, 127
2, 156671, Note_off_c, 4, 64, 127
2, 156671, Note_off_c, 7, 67, 127
2, 156671, Note_off_c, 0, 48, 127
2, 156674, Note_on_c, 8, 68, 127
2, 156674, Note_on_c, 5, 65, 127
2, 156674, Note_on_c, 0, 48, 127
2, 157065, Note_off_c, 8, 68, 127
2, 157069, Note_on_c, 0, 72, 127
2, 157263, Note_off_c, 0, 72, 127
2, 157266, Note_on_c, 12, 71, 127
2, 157460, Note_off_c, 12, 71, 127
2, 157463, Note_on_c, 0, 72, 127
2, 157854, Note_off_c, 0, 72, 127
2, 157854, Note_off_c, 5, 65, 127
2, 157857, Note_on_c, 2, 74, 127
2, 157857, Note_on_c, 12, 71, 127
2, 157857, Note_on_c, 8, 68, 127
2, 157857, Note_on_c, 5, 65, 127
2, 158248, Note_off_c, 5, 65, 127
2, 158248, Note_off_c, 8, 68, 127
2, 158248, Note_off_c, 12, 71, 127
2, 158248, Note_off_c, 2, 74, 127
2, 158248, Note_off_c, 0, 48, 127
2, 158252, Note_on_c, 7, 67, 127
2, 158252, Note_on_c, 5, 65, 127
2, 158252, Note_on_c, 0, 48, 127
2, 158643, Note_off_c, 5, 65, 127
2, 158643, Note_off_c, 7, 67, 127
2, 158646, Note_on_c, 0, 72, 127
2, 158646, Note_on_c, 3, 63, 127
2, 158840, Note_off_c, 3, 63, 127
2, 158840, Note_off_c, 0, 72, 127
2, 158843, Note_on_c, 12, 71, 127
2, 158843, Note_on_c, 2, 62, 127
2, 159037, Note_off_c, 2, 62, 127
2, 159037, Note_off_c, 12, 71, 127
2, 159040, Note_on_c, 0, 72, 127
2, 159040, Note_on_c, 3, 63, 127
2, 159431, Note_off_c, 3, 63, 127
2, 159431, Note_off_c, 0, 72, 127
2, 159435, Note_on_c, 2, 74, 127
2, 159435, Note_on_c, 8, 68, 127
2, 159435, Note_on_c, 5, 65, 127
2, 159826, Note_off_c, 5, 65, 127
2, 159826, Note_off_c, 8, 68, 127
2, 159826, Note_off_c, 2, 74, 127
2, 159845, Note_on_c, 2, 62, 127
2, 159845, Note_on_c, 12, 59, 127
2, 159845, Note_on_c, 5, 65, 127
2, 160050, Note_off_c, 5, 65, 127
2, 160053, Note_on_c, 7, 67, 127
2, 160258, Note_off_c, 7, 67, 127
2, 160262, Note_on_c, 8, 68, 127
2, 160675, Note_off_c, 12, 59, 127
2, 160675, Note_off_c, 2, 62, 127
2, 160726, Note_on_c, 2, 62, 127
2, 160726, Note_on_c, 5, 65, 127
2, 160726, Note_on_c, 12, 59, 127
2, 161162, Note_off_c, 8, 68, 127
2, 161246, Note_on_c, 7, 67, 127
2, 161502, Note_off_c, 7, 67, 127
2, 161504, Note_off_c, 5, 65, 127
2, 161505, Note_on_c, 5, 65, 127
2, 161697, Note_off_c, 0, 48, 127
2, 161761, Note_off_c, 5, 65, 127
2, 161761, Note_off_c, 12, 59, 127
2, 161761, Note_off_c, 2, 62, 127
2, 161764, Note_on_c, 4, 64, 127
2, 161764, Note_on_c, 0, 60, 127
2, 161764, Note_on_c, 7, 55, 127
2, 161764, Note_on_c, 0, 48, 127
2, 165834, Note_off_c, 0, 36, 127
2, 165903, Note_off_c, 0, 48, 127
2, 165903, Note_off_c, 7, 55, 127
2, 165903, Note_off_c, 0, 60, 127
2, 165903, Note_off_c, 4, 64, 127
2, 170496, End_track
3, 0, Start_track
3, 0, Title_t, "MIDI"
3, 1536, End_track
0, 0, End_of_file
