0, 0, Header, 1, 4, 240
1, 0, Start_track
1, 0, Time_signature, 1, 1, 48, 8
1, 0, Tempo, 300000
1, 480, Time_signature, 4, 2, 48, 8
1, 7200, Time_signature, 1, 1, 48, 8
1, 7680, Time_signature, 1, 1, 48, 8
1, 8160, Time_signature, 4, 2, 48, 8
1, 14880, Time_signature, 1, 1, 48, 8
1, 15840, Time_signature, 4, 2, 48, 8
1, 39840, Time_signature, 1, 1, 48, 8
1, 40800, Time_signature, 4, 2, 48, 8
1, 64800, Time_signature, 1, 1, 48, 8
1, 64800, End_track
2, 0, Start_track
2, 0, Title_t, "English Suite 3, 5a Gavotte 1"
2, 0, Program_c, 0, 0
2, 0, Note_on_c, 0, 79, 107
2, 192, Note_off_c, 0, 79, 64
2, 240, Note_on_c, 0, 82, 107
2, 336, Note_off_c, 0, 82, 64
2, 360, Note_on_c, 0, 81, 107
2, 456, Note_off_c, 0, 81, 64
2, 480, Note_on_c, 0, 82, 107
2, 672, Note_off_c, 0, 82, 64
2, 720, Note_on_c, 0, 79, 107
2, 816, Note_off_c, 0, 79, 64
2, 840, Note_on_c, 0, 74, 107
2, 936, Note_off_c, 0, 74, 64
2, 960, Note_on_c, 0, 81, 107
2, 1152, Note_off_c, 0, 81, 64
2, 1200, Note_on_c, 0, 78, 107
2, 1296, Note_off_c, 0, 78, 64
2, 1320, Note_on_c, 0, 74, 107
2, 1416, Note_off_c, 0, 74, 64
2, 1440, Note_on_c, 0, 79, 107
2, 1824, Note_off_c, 0, 79, 64
2, 1920, Note_on_c, 0, 75, 107
2, 2112, Note_off_c, 0, 75, 64
2, 2160, Note_on_c, 0, 72, 107
2, 2256, Note_off_c, 0, 72, 64
2, 2280, Note_on_c, 0, 69, 107
2, 2376, Note_off_c, 0, 69, 64
2, 2400, Note_on_c, 0, 74, 107
2, 2592, Note_off_c, 0, 74, 64
2, 2640, Note_on_c, 0, 70, 107
2, 2736, Note_off_c, 0, 70, 64
2, 2760, Note_on_c, 0, 67, 107
2, 2856, Note_off_c, 0, 67, 64
2, 2880, Note_on_c, 0, 72, 107
2, 2976, Note_off_c, 0, 72, 64
2, 3000, Note_on_c, 0, 69, 107
2, 3096, Note_off_c, 0, 69, 64
2, 3120, Note_on_c, 0, 74, 107
2, 3312, Note_off_c, 0, 74, 64
2, 3360, Note_on_c, 0, 70, 107
2, 3552, Note_off_c, 0, 70, 64
2, 3600, Note_on_c, 0, 69, 107
2, 3696, Note_off_c, 0, 69, 64
2, 3720, Note_on_c, 0, 67, 107
2, 3816, Note_off_c, 0, 67, 64
2, 3840, Note_on_c, 0, 79, 107
2, 4032, Note_off_c, 0, 79, 64
2, 4080, Note_on_c, 0, 82, 107
2, 4176, Note_off_c, 0, 82, 64
2, 4200, Note_on_c, 0, 81, 107
2, 4296, Note_off_c, 0, 81, 64
2, 4320, Note_on_c, 0, 82, 107
2, 4512, Note_off_c, 0, 82, 64
2, 4560, Note_on_c, 0, 79, 107
2, 4656, Note_off_c, 0, 79, 64
2, 4680, Note_on_c, 0, 74, 107
2, 4776, Note_off_c, 0, 74, 64
2, 4800, Note_on_c, 0, 81, 107
2, 4992, Note_off_c, 0, 81, 64
2, 5040, Note_on_c, 0, 78, 107
2, 5136, Note_off_c, 0, 78, 64
2, 5160, Note_on_c, 0, 74, 107
2, 5256, Note_off_c, 0, 74, 64
2, 5280, Note_on_c, 0, 79, 107
2, 5568, Note_off_c, 0, 79, 64
2, 5640, Note_on_c, 0, 77, 107
2, 5736, Note_off_c, 0, 77, 64
2, 5760, Note_on_c, 0, 75, 107
2, 5856, Note_off_c, 0, 75, 64
2, 5880, Note_on_c, 0, 74, 107
2, 5976, Note_off_c, 0, 74, 64
2, 6000, Note_on_c, 0, 72, 107
2, 6096, Note_off_c, 0, 72, 64
2, 6120, Note_on_c, 0, 70, 107
2, 6216, Note_off_c, 0, 70, 64
2, 6240, Note_on_c, 0, 81, 107
2, 6336, Note_off_c, 0, 81, 64
2, 6360, Note_on_c, 0, 82, 107
2, 6456, Note_off_c, 0, 82, 64
2, 6480, Note_on_c, 0, 74, 107
2, 6576, Note_off_c, 0, 74, 64
2, 6600, Note_on_c, 0, 75, 107
2, 6696, Note_off_c, 0, 75, 64
2, 6720, Note_on_c, 0, 77, 107
2, 6816, Note_off_c, 0, 77, 64
2, 6840, Note_on_c, 0, 72, 107
2, 6936, Note_off_c, 0, 72, 64
2, 6960, Note_on_c, 0, 74, 107
2, 7152, Note_off_c, 0, 74, 64
2, 7200, Note_on_c, 0, 72, 105
2, 7440, Note_off_c, 0, 72, 64
2, 7440, Note_on_c, 0, 70, 105
2, 7665, Note_off_c, 0, 70, 64
2, 7680, Note_on_c, 0, 79, 107
2, 7872, Note_off_c, 0, 79, 64
2, 7920, Note_on_c, 0, 82, 107
2, 8016, Note_off_c, 0, 82, 64
2, 8040, Note_on_c, 0, 81, 107
2, 8136, Note_off_c, 0, 81, 64
2, 8160, Note_on_c, 0, 82, 107
2, 8352, Note_off_c, 0, 82, 64
2, 8400, Note_on_c, 0, 79, 107
2, 8496, Note_off_c, 0, 79, 64
2, 8520, Note_on_c, 0, 74, 107
2, 8616, Note_off_c, 0, 74, 64
2, 8640, Note_on_c, 0, 81, 107
2, 8832, Note_off_c, 0, 81, 64
2, 8880, Note_on_c, 0, 78, 107
2, 8976, Note_off_c, 0, 78, 64
2, 9000, Note_on_c, 0, 74, 107
2, 9096, Note_off_c, 0, 74, 64
2, 9120, Note_on_c, 0, 79, 107
2, 9504, Note_off_c, 0, 79, 64
2, 9600, Note_on_c, 0, 75, 107
2, 9792, Note_off_c, 0, 75, 64
2, 9840, Note_on_c, 0, 72, 107
2, 9936, Note_off_c, 0, 72, 64
2, 9960, Note_on_c, 0, 69, 107
2, 10056, Note_off_c, 0, 69, 64
2, 10080, Note_on_c, 0, 74, 107
2, 10272, Note_off_c, 0, 74, 64
2, 10320, Note_on_c, 0, 70, 107
2, 10416, Note_off_c, 0, 70, 64
2, 10440, Note_on_c, 0, 67, 107
2, 10536, Note_off_c, 0, 67, 64
2, 10560, Note_on_c, 0, 72, 107
2, 10656, Note_off_c, 0, 72, 64
2, 10680, Note_on_c, 0, 69, 107
2, 10776, Note_off_c, 0, 69, 64
2, 10800, Note_on_c, 0, 74, 107
2, 10992, Note_off_c, 0, 74, 64
2, 11040, Note_on_c, 0, 70, 107
2, 11232, Note_off_c, 0, 70, 64
2, 11280, Note_on_c, 0, 69, 107
2, 11376, Note_off_c, 0, 69, 64
2, 11400, Note_on_c, 0, 67, 107
2, 11496, Note_off_c, 0, 67, 64
2, 11520, Note_on_c, 0, 79, 107
2, 11712, Note_off_c, 0, 79, 64
2, 11760, Note_on_c, 0, 82, 107
2, 11856, Note_off_c, 0, 82, 64
2, 11880, Note_on_c, 0, 81, 107
2, 11976, Note_off_c, 0, 81, 64
2, 12000, Note_on_c, 0, 82, 107
2, 12192, Note_off_c, 0, 82, 64
2, 12240, Note_on_c, 0, 79, 107
2, 12336, Note_off_c, 0, 79, 64
2, 12360, Note_on_c, 0, 74, 107
2, 12456, Note_off_c, 0, 74, 64
2, 12480, Note_on_c, 0, 81, 107
2, 12672, Note_off_c, 0, 81, 64
2, 12720, Note_on_c, 0, 78, 107
2, 12816, Note_off_c, 0, 78, 64
2, 12840, Note_on_c, 0, 74, 107
2, 12936, Note_off_c, 0, 74, 64
2, 12960, Note_on_c, 0, 79, 107
2, 13248, Note_off_c, 0, 79, 64
2, 13320, Note_on_c, 0, 77, 107
2, 13416, Note_off_c, 0, 77, 64
2, 13440, Note_on_c, 0, 75, 107
2, 13536, Note_off_c, 0, 75, 64
2, 13560, Note_on_c, 0, 74, 107
2, 13656, Note_off_c, 0, 74, 64
2, 13680, Note_on_c, 0, 72, 107
2, 13776, Note_off_c, 0, 72, 64
2, 13800, Note_on_c, 0, 70, 107
2, 13896, Note_off_c, 0, 70, 64
2, 13920, Note_on_c, 0, 81, 107
2, 14016, Note_off_c, 0, 81, 64
2, 14040, Note_on_c, 0, 82, 107
2, 14136, Note_off_c, 0, 82, 64
2, 14160, Note_on_c, 0, 74, 107
2, 14256, Note_off_c, 0, 74, 64
2, 14280, Note_on_c, 0, 75, 107
2, 14376, Note_off_c, 0, 75, 64
2, 14400, Note_on_c, 0, 77, 107
2, 14496, Note_off_c, 0, 77, 64
2, 14520, Note_on_c, 0, 72, 107
2, 14616, Note_off_c, 0, 72, 64
2, 14640, Note_on_c, 0, 74, 107
2, 14832, Note_off_c, 0, 74, 64
2, 14880, Note_on_c, 0, 72, 107
2, 15105, Note_off_c, 0, 72, 64
2, 15120, Note_on_c, 0, 70, 107
2, 15345, Note_off_c, 0, 70, 64
2, 15360, Note_on_c, 0, 74, 107
2, 15552, Note_off_c, 0, 74, 64
2, 15600, Note_on_c, 0, 77, 107
2, 15696, Note_off_c, 0, 77, 64
2, 15720, Note_on_c, 0, 75, 107
2, 15816, Note_off_c, 0, 75, 64
2, 15840, Note_on_c, 0, 77, 107
2, 16032, Note_off_c, 0, 77, 64
2, 16080, Note_on_c, 0, 74, 107
2, 16193, Note_off_c, 0, 74, 64
2, 16200, Note_on_c, 0, 70, 107
2, 16313, Note_off_c, 0, 70, 64
2, 16320, Note_on_c, 0, 79, 107
2, 16545, Note_off_c, 0, 79, 64
2, 16560, Note_on_c, 0, 75, 107
2, 16656, Note_off_c, 0, 75, 64
2, 16680, Note_on_c, 0, 70, 107
2, 16776, Note_off_c, 0, 70, 64
2, 16800, Note_on_c, 0, 77, 107
2, 17184, Note_off_c, 0, 77, 64
2, 17280, Note_on_c, 0, 82, 107
2, 17376, Note_off_c, 0, 82, 64
2, 17400, Note_on_c, 0, 81, 107
2, 17496, Note_off_c, 0, 81, 64
2, 17520, Note_on_c, 0, 79, 107
2, 17616, Note_off_c, 0, 79, 64
2, 17640, Note_on_c, 0, 81, 107
2, 17736, Note_off_c, 0, 81, 64
2, 17760, Note_on_c, 0, 82, 107
2, 17856, Note_off_c, 0, 82, 64
2, 17880, Note_on_c, 0, 79, 107
2, 17976, Note_off_c, 0, 79, 64
2, 18000, Note_on_c, 0, 76, 107
2, 18096, Note_off_c, 0, 76, 64
2, 18120, Note_on_c, 0, 72, 107
2, 18216, Note_off_c, 0, 72, 64
2, 18240, Note_on_c, 0, 82, 107
2, 18336, Note_off_c, 0, 82, 64
2, 18360, Note_on_c, 0, 81, 107
2, 18456, Note_off_c, 0, 81, 64
2, 18480, Note_on_c, 0, 79, 107
2, 18576, Note_off_c, 0, 79, 64
2, 18600, Note_on_c, 0, 81, 107
2, 18696, Note_off_c, 0, 81, 64
2, 18720, Note_on_c, 0, 82, 107
2, 18816, Note_off_c, 0, 82, 64
2, 18840, Note_on_c, 0, 81, 107
2, 18936, Note_off_c, 0, 81, 64
2, 18960, Note_on_c, 0, 79, 107
2, 19056, Note_off_c, 0, 79, 64
2, 19080, Note_on_c, 0, 77, 107
2, 19176, Note_off_c, 0, 77, 64
2, 19200, Note_on_c, 0, 79, 107
2, 19296, Note_off_c, 0, 79, 64
2, 19320, Note_on_c, 0, 77, 107
2, 19416, Note_off_c, 0, 77, 64
2, 19440, Note_on_c, 0, 76, 107
2, 19536, Note_off_c, 0, 76, 64
2, 19560, Note_on_c, 0, 77, 107
2, 19656, Note_off_c, 0, 77, 64
2, 19680, Note_on_c, 0, 79, 107
2, 19776, Note_off_c, 0, 79, 64
2, 19800, Note_on_c, 0, 76, 107
2, 19896, Note_off_c, 0, 76, 64
2, 19920, Note_on_c, 0, 73, 107
2, 20016, Note_off_c, 0, 73, 64
2, 20040, Note_on_c, 0, 69, 107
2, 20136, Note_off_c, 0, 69, 64
2, 20160, Note_on_c, 0, 79, 107
2, 20256, Note_off_c, 0, 79, 64
2, 20280, Note_on_c, 0, 77, 107
2, 20376, Note_off_c, 0, 77, 64
2, 20400, Note_on_c, 0, 76, 107
2, 20496, Note_off_c, 0, 76, 64
2, 20520, Note_on_c, 0, 77, 107
2, 20616, Note_off_c, 0, 77, 64
2, 20640, Note_on_c, 0, 79, 107
2, 20736, Note_off_c, 0, 79, 64
2, 20760, Note_on_c, 0, 77, 107
2, 20856, Note_off_c, 0, 77, 64
2, 20880, Note_on_c, 0, 76, 107
2, 20976, Note_off_c, 0, 76, 64
2, 21000, Note_on_c, 0, 74, 107
2, 21096, Note_off_c, 0, 74, 64
2, 21120, Note_on_c, 0, 81, 107
2, 21312, Note_off_c, 0, 81, 64
2, 21360, Note_on_c, 0, 81, 107
2, 21552, Note_off_c, 0, 81, 64
2, 21600, Note_on_c, 0, 81, 107
2, 21657, Note_off_c, 0, 81, 64
2, 21660, Note_on_c, 0, 79, 107
2, 21717, Note_off_c, 0, 79, 64
2, 21720, Note_on_c, 0, 81, 107
2, 21777, Note_off_c, 0, 81, 64
2, 21780, Note_on_c, 0, 79, 107
2, 21837, Note_off_c, 0, 79, 64
2, 21840, Note_on_c, 0, 81, 107
2, 21897, Note_off_c, 0, 81, 64
2, 21900, Note_on_c, 0, 79, 107
2, 21957, Note_off_c, 0, 79, 64
2, 21960, Note_on_c, 0, 81, 107
2, 22017, Note_off_c, 0, 81, 64
2, 22020, Note_on_c, 0, 79, 107
2, 22077, Note_off_c, 0, 79, 64
2, 22080, Note_on_c, 0, 81, 107
2, 22137, Note_off_c, 0, 81, 64
2, 22140, Note_on_c, 0, 79, 107
2, 22197, Note_off_c, 0, 79, 64
2, 22200, Note_on_c, 0, 81, 107
2, 22257, Note_off_c, 0, 81, 64
2, 22260, Note_on_c, 0, 79, 107
2, 22317, Note_off_c, 0, 79, 64
2, 22320, Note_on_c, 0, 81, 107
2, 22377, Note_off_c, 0, 81, 64
2, 22380, Note_on_c, 0, 79, 107
2, 22437, Note_off_c, 0, 79, 64
2, 22440, Note_on_c, 0, 81, 107
2, 22497, Note_off_c, 0, 81, 64
2, 22500, Note_on_c, 0, 79, 105
2, 22548, Note_off_c, 0, 79, 64
2, 22560, Note_on_c, 0, 81, 107
2, 22656, Note_off_c, 0, 81, 64
2, 22680, Note_on_c, 0, 77, 107
2, 22776, Note_off_c, 0, 77, 64
2, 22800, Note_on_c, 0, 79, 107
2, 22896, Note_off_c, 0, 79, 64
2, 22920, Note_on_c, 0, 81, 107
2, 23016, Note_off_c, 0, 81, 64
2, 23040, Note_on_c, 0, 82, 107
2, 23136, Note_off_c, 0, 82, 64
2, 23160, Note_on_c, 0, 81, 107
2, 23256, Note_off_c, 0, 81, 64
2, 23280, Note_on_c, 0, 79, 107
2, 23376, Note_off_c, 0, 79, 64
2, 23400, Note_on_c, 0, 77, 107
2, 23496, Note_off_c, 0, 77, 64
2, 23520, Note_on_c, 0, 76, 107
2, 23616, Note_off_c, 0, 76, 64
2, 23640, Note_on_c, 0, 74, 107
2, 23736, Note_off_c, 0, 74, 64
2, 23760, Note_on_c, 0, 73, 107
2, 23856, Note_off_c, 0, 73, 64
2, 23880, Note_on_c, 0, 74, 107
2, 23976, Note_off_c, 0, 74, 64
2, 24000, Note_on_c, 0, 79, 107
2, 24096, Note_off_c, 0, 79, 64
2, 24120, Note_on_c, 0, 77, 107
2, 24216, Note_off_c, 0, 77, 64
2, 24240, Note_on_c, 0, 76, 107
2, 24336, Note_off_c, 0, 76, 64
2, 24360, Note_on_c, 0, 77, 107
2, 24456, Note_off_c, 0, 77, 64
2, 24480, Note_on_c, 0, 74, 107
2, 24864, Note_off_c, 0, 74, 64
2, 24960, Note_on_c, 0, 74, 107
2, 25152, Note_off_c, 0, 74, 64
2, 25200, Note_on_c, 0, 77, 107
2, 25296, Note_off_c, 0, 77, 64
2, 25320, Note_on_c, 0, 75, 107
2, 25416, Note_off_c, 0, 75, 64
2, 25440, Note_on_c, 0, 77, 107
2, 25632, Note_off_c, 0, 77, 64
2, 25680, Note_on_c, 0, 74, 107
2, 25776, Note_off_c, 0, 74, 64
2, 25800, Note_on_c, 0, 71, 107
2, 25896, Note_off_c, 0, 71, 64
2, 25920, Note_on_c, 0, 80, 107
2, 26112, Note_off_c, 0, 80, 64
2, 26160, Note_on_c, 0, 77, 107
2, 26256, Note_off_c, 0, 77, 64
2, 26280, Note_on_c, 0, 74, 107
2, 26376, Note_off_c, 0, 74, 64
2, 26400, Note_on_c, 0, 75, 107
2, 26592, Note_off_c, 0, 75, 64
2, 26640, Note_on_c, 0, 72, 107
2, 26736, Note_off_c, 0, 72, 64
2, 26760, Note_on_c, 0, 67, 107
2, 26856, Note_off_c, 0, 67, 64
2, 26880, Note_on_c, 0, 79, 107
2, 27072, Note_off_c, 0, 79, 64
2, 27120, Note_on_c, 0, 75, 107
2, 27216, Note_off_c, 0, 75, 64
2, 27240, Note_on_c, 0, 72, 107
2, 27336, Note_off_c, 0, 72, 64
2, 27360, Note_on_c, 0, 74, 107
2, 27552, Note_off_c, 0, 74, 64
2, 27600, Note_on_c, 0, 70, 107
2, 27696, Note_off_c, 0, 70, 64
2, 27720, Note_on_c, 0, 67, 107
2, 27816, Note_off_c, 0, 67, 64
2, 27840, Note_on_c, 0, 79, 107
2, 28032, Note_off_c, 0, 79, 64
2, 28080, Note_on_c, 0, 74, 107
2, 28176, Note_off_c, 0, 74, 64
2, 28200, Note_on_c, 0, 70, 107
2, 28296, Note_off_c, 0, 70, 64
2, 28320, Note_on_c, 0, 72, 107
2, 28512, Note_off_c, 0, 72, 64
2, 28560, Note_on_c, 0, 69, 107
2, 28656, Note_off_c, 0, 69, 64
2, 28680, Note_on_c, 0, 66, 107
2, 28776, Note_off_c, 0, 66, 64
2, 28800, Note_on_c, 0, 75, 107
2, 28992, Note_off_c, 0, 75, 64
2, 29040, Note_on_c, 0, 72, 107
2, 29136, Note_off_c, 0, 72, 64
2, 29160, Note_on_c, 0, 69, 107
2, 29256, Note_off_c, 0, 69, 64
2, 29280, Note_on_c, 0, 74, 107
2, 29472, Note_off_c, 0, 74, 64
2, 29520, Note_on_c, 0, 70, 107
2, 29616, Note_off_c, 0, 70, 64
2, 29640, Note_on_c, 0, 67, 107
2, 29736, Note_off_c, 0, 67, 64
2, 29760, Note_on_c, 0, 72, 107
2, 29856, Note_off_c, 0, 72, 64
2, 29880, Note_on_c, 0, 69, 107
2, 29976, Note_off_c, 0, 69, 64
2, 30000, Note_on_c, 0, 70, 107
2, 30096, Note_off_c, 0, 70, 64
2, 30120, Note_on_c, 0, 67, 107
2, 30216, Note_off_c, 0, 67, 64
2, 30240, Note_on_c, 0, 69, 107
2, 30336, Note_off_c, 0, 69, 64
2, 30360, Note_on_c, 0, 62, 107
2, 30456, Note_off_c, 0, 62, 64
2, 30480, Note_on_c, 0, 64, 107
2, 30576, Note_off_c, 0, 64, 64
2, 30600, Note_on_c, 0, 66, 107
2, 30696, Note_off_c, 0, 66, 64
2, 30720, Note_on_c, 0, 67, 107
2, 30816, Note_off_c, 0, 67, 64
2, 30840, Note_on_c, 0, 69, 107
2, 30936, Note_off_c, 0, 69, 64
2, 30960, Note_on_c, 0, 70, 107
2, 31056, Note_off_c, 0, 70, 64
2, 31080, Note_on_c, 0, 67, 107
2, 31176, Note_off_c, 0, 67, 64
2, 31200, Note_on_c, 0, 75, 107
2, 31296, Note_off_c, 0, 75, 64
2, 31320, Note_on_c, 0, 72, 107
2, 31416, Note_off_c, 0, 72, 64
2, 31440, Note_on_c, 0, 74, 107
2, 31536, Note_off_c, 0, 74, 64
2, 31560, Note_on_c, 0, 70, 107
2, 31656, Note_off_c, 0, 70, 64
2, 31680, Note_on_c, 0, 72, 107
2, 31776, Note_off_c, 0, 72, 64
2, 31800, Note_on_c, 0, 69, 107
2, 31896, Note_off_c, 0, 69, 64
2, 31920, Note_on_c, 0, 70, 107
2, 32016, Note_off_c, 0, 70, 64
2, 32040, Note_on_c, 0, 67, 107
2, 32136, Note_off_c, 0, 67, 64
2, 32160, Note_on_c, 0, 69, 107
2, 32352, Note_off_c, 0, 69, 64
2, 32400, Note_on_c, 0, 62, 107
2, 32592, Note_off_c, 0, 62, 64
2, 32640, Note_on_c, 0, 67, 107
2, 32832, Note_off_c, 0, 67, 64
2, 32880, Note_on_c, 0, 70, 107
2, 32976, Note_off_c, 0, 70, 64
2, 33000, Note_on_c, 0, 69, 107
2, 33096, Note_off_c, 0, 69, 64
2, 33120, Note_on_c, 0, 70, 107
2, 33216, Note_off_c, 0, 70, 64
2, 33240, Note_on_c, 0, 66, 107
2, 33336, Note_off_c, 0, 66, 64
2, 33360, Note_on_c, 0, 67, 107
2, 33456, Note_off_c, 0, 67, 64
2, 33480, Note_on_c, 0, 62, 107
2, 33576, Note_off_c, 0, 62, 64
2, 33600, Note_on_c, 0, 71, 107
2, 33696, Note_off_c, 0, 71, 64
2, 33720, Note_on_c, 0, 65, 107
2, 33816, Note_off_c, 0, 65, 64
2, 33840, Note_on_c, 0, 67, 107
2, 33936, Note_off_c, 0, 67, 64
2, 33960, Note_on_c, 0, 62, 107
2, 34056, Note_off_c, 0, 62, 64
2, 34080, Note_on_c, 0, 72, 107
2, 34176, Note_off_c, 0, 72, 64
2, 34200, Note_on_c, 0, 62, 107
2, 34296, Note_off_c, 0, 62, 64
2, 34320, Note_on_c, 0, 63, 107
2, 34416, Note_off_c, 0, 63, 64
2, 34440, Note_on_c, 0, 67, 107
2, 34536, Note_off_c, 0, 67, 64
2, 34560, Note_on_c, 0, 72, 107
2, 34656, Note_off_c, 0, 72, 64
2, 34680, Note_on_c, 0, 67, 107
2, 34776, Note_off_c, 0, 67, 64
2, 34800, Note_on_c, 0, 74, 107
2, 34896, Note_off_c, 0, 74, 64
2, 34920, Note_on_c, 0, 67, 107
2, 35016, Note_off_c, 0, 67, 64
2, 35040, Note_on_c, 0, 75, 107
2, 35136, Note_off_c, 0, 75, 64
2, 35160, Note_on_c, 0, 71, 107
2, 35256, Note_off_c, 0, 71, 64
2, 35280, Note_on_c, 0, 72, 107
2, 35376, Note_off_c, 0, 72, 64
2, 35400, Note_on_c, 0, 67, 107
2, 35496, Note_off_c, 0, 67, 64
2, 35520, Note_on_c, 0, 75, 107
2, 35616, Note_off_c, 0, 75, 64
2, 35640, Note_on_c, 0, 70, 107
2, 35736, Note_off_c, 0, 70, 64
2, 35760, Note_on_c, 0, 72, 107
2, 35856, Note_off_c, 0, 72, 64
2, 35880, Note_on_c, 0, 67, 107
2, 35976, Note_off_c, 0, 67, 64
2, 36000, Note_on_c, 0, 77, 107
2, 36096, Note_off_c, 0, 77, 64
2, 36120, Note_on_c, 0, 67, 107
2, 36216, Note_off_c, 0, 67, 64
2, 36240, Note_on_c, 0, 69, 107
2, 36336, Note_off_c, 0, 69, 64
2, 36360, Note_on_c, 0, 72, 107
2, 36456, Note_off_c, 0, 72, 64
2, 36480, Note_on_c, 0, 78, 107
2, 36576, Note_off_c, 0, 78, 64
2, 36600, Note_on_c, 0, 72, 107
2, 36696, Note_off_c, 0, 72, 64
2, 36720, Note_on_c, 0, 79, 107
2, 36816, Note_off_c, 0, 79, 64
2, 36840, Note_on_c, 0, 72, 107
2, 36936, Note_off_c, 0, 72, 64
2, 36960, Note_on_c, 0, 81, 107
2, 37056, Note_off_c, 0, 81, 64
2, 37080, Note_on_c, 0, 76, 107
2, 37176, Note_off_c, 0, 76, 64
2, 37200, Note_on_c, 0, 78, 107
2, 37296, Note_off_c, 0, 78, 64
2, 37320, Note_on_c, 0, 74, 107
2, 37416, Note_off_c, 0, 74, 64
2, 37440, Note_on_c, 0, 82, 107
2, 37536, Note_off_c, 0, 82, 64
2, 37560, Note_on_c, 0, 78, 107
2, 37656, Note_off_c, 0, 78, 64
2, 37680, Note_on_c, 0, 79, 107
2, 37776, Note_off_c, 0, 79, 64
2, 37800, Note_on_c, 0, 74, 107
2, 37896, Note_off_c, 0, 74, 64
2, 37920, Note_on_c, 0, 84, 107
2, 38016, Note_off_c, 0, 84, 64
2, 38040, Note_on_c, 0, 81, 107
2, 38136, Note_off_c, 0, 81, 64
2, 38160, Note_on_c, 0, 74, 107
2, 38256, Note_off_c, 0, 74, 64
2, 38280, Note_on_c, 0, 84, 107
2, 38376, Note_off_c, 0, 84, 64
2, 38400, Note_on_c, 0, 82, 107
2, 38496, Note_off_c, 0, 82, 64
2, 38520, Note_on_c, 0, 81, 107
2, 38616, Note_off_c, 0, 81, 64
2, 38640, Note_on_c, 0, 79, 107
2, 38736, Note_off_c, 0, 79, 64
2, 38760, Note_on_c, 0, 78, 107
2, 38856, Note_off_c, 0, 78, 64
2, 38880, Note_on_c, 0, 79, 107
2, 38976, Note_off_c, 0, 79, 64
2, 39000, Note_on_c, 0, 74, 107
2, 39096, Note_off_c, 0, 74, 64
2, 39120, Note_on_c, 0, 75, 107
2, 39216, Note_off_c, 0, 75, 64
2, 39240, Note_on_c, 0, 72, 107
2, 39336, Note_off_c, 0, 72, 64
2, 39360, Note_on_c, 0, 70, 107
2, 39552, Note_off_c, 0, 70, 64
2, 39600, Note_on_c, 0, 69, 107
2, 39624, Note_off_c, 0, 69, 64
2, 39630, Note_on_c, 0, 70, 107
2, 39654, Note_off_c, 0, 70, 64
2, 39660, Note_on_c, 0, 69, 107
2, 39689, Note_off_c, 0, 69, 64
2, 39690, Note_on_c, 0, 67, 105
2, 39816, Note_off_c, 0, 67, 64
2, 39840, Note_on_c, 0, 67, 107
2, 40224, Note_off_c, 0, 67, 64
2, 40320, Note_on_c, 0, 74, 107
2, 40512, Note_off_c, 0, 74, 64
2, 40560, Note_on_c, 0, 77, 107
2, 40656, Note_off_c, 0, 77, 64
2, 40680, Note_on_c, 0, 75, 107
2, 40776, Note_off_c, 0, 75, 64
2, 40800, Note_on_c, 0, 77, 107
2, 40992, Note_off_c, 0, 77, 64
2, 41040, Note_on_c, 0, 74, 107
2, 41153, Note_off_c, 0, 74, 64
2, 41160, Note_on_c, 0, 70, 107
2, 41273, Note_off_c, 0, 70, 64
2, 41280, Note_on_c, 0, 79, 107
2, 41505, Note_off_c, 0, 79, 64
2, 41520, Note_on_c, 0, 75, 107
2, 41616, Note_off_c, 0, 75, 64
2, 41640, Note_on_c, 0, 70, 107
2, 41736, Note_off_c, 0, 70, 64
2, 41760, Note_on_c, 0, 77, 107
2, 42144, Note_off_c, 0, 77, 64
2, 42240, Note_on_c, 0, 82, 107
2, 42336, Note_off_c, 0, 82, 64
2, 42360, Note_on_c, 0, 81, 107
2, 42456, Note_off_c, 0, 81, 64
2, 42480, Note_on_c, 0, 79, 107
2, 42576, Note_off_c, 0, 79, 64
2, 42600, Note_on_c, 0, 81, 107
2, 42696, Note_off_c, 0, 81, 64
2, 42720, Note_on_c, 0, 82, 107
2, 42816, Note_off_c, 0, 82, 64
2, 42840, Note_on_c, 0, 79, 107
2, 42936, Note_off_c, 0, 79, 64
2, 42960, Note_on_c, 0, 76, 107
2, 43056, Note_off_c, 0, 76, 64
2, 43080, Note_on_c, 0, 72, 107
2, 43176, Note_off_c, 0, 72, 64
2, 43200, Note_on_c, 0, 82, 107
2, 43296, Note_off_c, 0, 82, 64
2, 43320, Note_on_c, 0, 81, 107
2, 43416, Note_off_c, 0, 81, 64
2, 43440, Note_on_c, 0, 79, 107
2, 43536, Note_off_c, 0, 79, 64
2, 43560, Note_on_c, 0, 81, 107
2, 43656, Note_off_c, 0, 81, 64
2, 43680, Note_on_c, 0, 82, 107
2, 43776, Note_off_c, 0, 82, 64
2, 43800, Note_on_c, 0, 81, 107
2, 43896, Note_off_c, 0, 81, 64
2, 43920, Note_on_c, 0, 79, 107
2, 44016, Note_off_c, 0, 79, 64
2, 44040, Note_on_c, 0, 77, 107
2, 44136, Note_off_c, 0, 77, 64
2, 44160, Note_on_c, 0, 79, 107
2, 44256, Note_off_c, 0, 79, 64
2, 44280, Note_on_c, 0, 77, 107
2, 44376, Note_off_c, 0, 77, 64
2, 44400, Note_on_c, 0, 76, 107
2, 44496, Note_off_c, 0, 76, 64
2, 44520, Note_on_c, 0, 77, 107
2, 44616, Note_off_c, 0, 77, 64
2, 44640, Note_on_c, 0, 79, 107
2, 44736, Note_off_c, 0, 79, 64
2, 44760, Note_on_c, 0, 76, 107
2, 44856, Note_off_c, 0, 76, 64
2, 44880, Note_on_c, 0, 73, 107
2, 44976, Note_off_c, 0, 73, 64
2, 45000, Note_on_c, 0, 69, 107
2, 45096, Note_off_c, 0, 69, 64
2, 45120, Note_on_c, 0, 79, 107
2, 45216, Note_off_c, 0, 79, 64
2, 45240, Note_on_c, 0, 77, 107
2, 45336, Note_off_c, 0, 77, 64
2, 45360, Note_on_c, 0, 76, 107
2, 45456, Note_off_c, 0, 76, 64
2, 45480, Note_on_c, 0, 77, 107
2, 45576, Note_off_c, 0, 77, 64
2, 45600, Note_on_c, 0, 79, 107
2, 45696, Note_off_c, 0, 79, 64
2, 45720, Note_on_c, 0, 77, 107
2, 45816, Note_off_c, 0, 77, 64
2, 45840, Note_on_c, 0, 76, 107
2, 45936, Note_off_c, 0, 76, 64
2, 45960, Note_on_c, 0, 74, 107
2, 46056, Note_off_c, 0, 74, 64
2, 46080, Note_on_c, 0, 81, 107
2, 46272, Note_off_c, 0, 81, 64
2, 46320, Note_on_c, 0, 81, 107
2, 46512, Note_off_c, 0, 81, 64
2, 46560, Note_on_c, 0, 81, 107
2, 46617, Note_off_c, 0, 81, 64
2, 46620, Note_on_c, 0, 79, 107
2, 46677, Note_off_c, 0, 79, 64
2, 46680, Note_on_c, 0, 81, 107
2, 46737, Note_off_c, 0, 81, 64
2, 46740, Note_on_c, 0, 79, 107
2, 46797, Note_off_c, 0, 79, 64
2, 46800, Note_on_c, 0, 81, 107
2, 46857, Note_off_c, 0, 81, 64
2, 46860, Note_on_c, 0, 79, 107
2, 46917, Note_off_c, 0, 79, 64
2, 46920, Note_on_c, 0, 81, 107
2, 46977, Note_off_c, 0, 81, 64
2, 46980, Note_on_c, 0, 79, 107
2, 47037, Note_off_c, 0, 79, 64
2, 47040, Note_on_c, 0, 81, 107
2, 47097, Note_off_c, 0, 81, 64
2, 47100, Note_on_c, 0, 79, 107
2, 47157, Note_off_c, 0, 79, 64
2, 47160, Note_on_c, 0, 81, 107
2, 47217, Note_off_c, 0, 81, 64
2, 47220, Note_on_c, 0, 79, 107
2, 47277, Note_off_c, 0, 79, 64
2, 47280, Note_on_c, 0, 81, 107
2, 47337, Note_off_c, 0, 81, 64
2, 47340, Note_on_c, 0, 79, 107
2, 47397, Note_off_c, 0, 79, 64
2, 47400, Note_on_c, 0, 81, 107
2, 47457, Note_off_c, 0, 81, 64
2, 47460, Note_on_c, 0, 79, 105
2, 47508, Note_off_c, 0, 79, 64
2, 47520, Note_on_c, 0, 81, 107
2, 47616, Note_off_c, 0, 81, 64
2, 47640, Note_on_c, 0, 77, 107
2, 47736, Note_off_c, 0, 77, 64
2, 47760, Note_on_c, 0, 79, 107
2, 47856, Note_off_c, 0, 79, 64
2, 47880, Note_on_c, 0, 81, 107
2, 47976, Note_off_c, 0, 81, 64
2, 48000, Note_on_c, 0, 82, 107
2, 48096, Note_off_c, 0, 82, 64
2, 48120, Note_on_c, 0, 81, 107
2, 48216, Note_off_c, 0, 81, 64
2, 48240, Note_on_c, 0, 79, 107
2, 48336, Note_off_c, 0, 79, 64
2, 48360, Note_on_c, 0, 77, 107
2, 48456, Note_off_c, 0, 77, 64
2, 48480, Note_on_c, 0, 76, 107
2, 48576, Note_off_c, 0, 76, 64
2, 48600, Note_on_c, 0, 74, 107
2, 48696, Note_off_c, 0, 74, 64
2, 48720, Note_on_c, 0, 73, 107
2, 48816, Note_off_c, 0, 73, 64
2, 48840, Note_on_c, 0, 74, 107
2, 48936, Note_off_c, 0, 74, 64
2, 48960, Note_on_c, 0, 79, 107
2, 49056, Note_off_c, 0, 79, 64
2, 49080, Note_on_c, 0, 77, 107
2, 49176, Note_off_c, 0, 77, 64
2, 49200, Note_on_c, 0, 76, 107
2, 49296, Note_off_c, 0, 76, 64
2, 49320, Note_on_c, 0, 77, 107
2, 49416, Note_off_c, 0, 77, 64
2, 49440, Note_on_c, 0, 74, 107
2, 49824, Note_off_c, 0, 74, 64
2, 49920, Note_on_c, 0, 74, 107
2, 50112, Note_off_c, 0, 74, 64
2, 50160, Note_on_c, 0, 77, 107
2, 50256, Note_off_c, 0, 77, 64
2, 50280, Note_on_c, 0, 75, 107
2, 50376, Note_off_c, 0, 75, 64
2, 50400, Note_on_c, 0, 77, 107
2, 50592, Note_off_c, 0, 77, 64
2, 50640, Note_on_c, 0, 74, 107
2, 50736, Note_off_c, 0, 74, 64
2, 50760, Note_on_c, 0, 71, 107
2, 50856, Note_off_c, 0, 71, 64
2, 50880, Note_on_c, 0, 80, 107
2, 51072, Note_off_c, 0, 80, 64
2, 51120, Note_on_c, 0, 77, 107
2, 51216, Note_off_c, 0, 77, 64
2, 51240, Note_on_c, 0, 74, 107
2, 51336, Note_off_c, 0, 74, 64
2, 51360, Note_on_c, 0, 75, 107
2, 51552, Note_off_c, 0, 75, 64
2, 51600, Note_on_c, 0, 72, 107
2, 51696, Note_off_c, 0, 72, 64
2, 51720, Note_on_c, 0, 67, 107
2, 51816, Note_off_c, 0, 67, 64
2, 51840, Note_on_c, 0, 79, 107
2, 52032, Note_off_c, 0, 79, 64
2, 52080, Note_on_c, 0, 75, 107
2, 52176, Note_off_c, 0, 75, 64
2, 52200, Note_on_c, 0, 72, 107
2, 52296, Note_off_c, 0, 72, 64
2, 52320, Note_on_c, 0, 74, 107
2, 52512, Note_off_c, 0, 74, 64
2, 52560, Note_on_c, 0, 70, 107
2, 52656, Note_off_c, 0, 70, 64
2, 52680, Note_on_c, 0, 67, 107
2, 52776, Note_off_c, 0, 67, 64
2, 52800, Note_on_c, 0, 79, 107
2, 52992, Note_off_c, 0, 79, 64
2, 53040, Note_on_c, 0, 74, 107
2, 53136, Note_off_c, 0, 74, 64
2, 53160, Note_on_c, 0, 70, 107
2, 53256, Note_off_c, 0, 70, 64
2, 53280, Note_on_c, 0, 72, 107
2, 53472, Note_off_c, 0, 72, 64
2, 53520, Note_on_c, 0, 69, 107
2, 53616, Note_off_c, 0, 69, 64
2, 53640, Note_on_c, 0, 66, 107
2, 53736, Note_off_c, 0, 66, 64
2, 53760, Note_on_c, 0, 75, 107
2, 53952, Note_off_c, 0, 75, 64
2, 54000, Note_on_c, 0, 72, 107
2, 54096, Note_off_c, 0, 72, 64
2, 54120, Note_on_c, 0, 69, 107
2, 54216, Note_off_c, 0, 69, 64
2, 54240, Note_on_c, 0, 74, 107
2, 54432, Note_off_c, 0, 74, 64
2, 54480, Note_on_c, 0, 70, 107
2, 54576, Note_off_c, 0, 70, 64
2, 54600, Note_on_c, 0, 67, 107
2, 54696, Note_off_c, 0, 67, 64
2, 54720, Note_on_c, 0, 72, 107
2, 54816, Note_off_c, 0, 72, 64
2, 54840, Note_on_c, 0, 69, 107
2, 54936, Note_off_c, 0, 69, 64
2, 54960, Note_on_c, 0, 70, 107
2, 55056, Note_off_c, 0, 70, 64
2, 55080, Note_on_c, 0, 67, 107
2, 55176, Note_off_c, 0, 67, 64
2, 55200, Note_on_c, 0, 69, 107
2, 55296, Note_off_c, 0, 69, 64
2, 55320, Note_on_c, 0, 62, 107
2, 55416, Note_off_c, 0, 62, 64
2, 55440, Note_on_c, 0, 64, 107
2, 55536, Note_off_c, 0, 64, 64
2, 55560, Note_on_c, 0, 66, 107
2, 55656, Note_off_c, 0, 66, 64
2, 55680, Note_on_c, 0, 67, 107
2, 55776, Note_off_c, 0, 67, 64
2, 55800, Note_on_c, 0, 69, 107
2, 55896, Note_off_c, 0, 69, 64
2, 55920, Note_on_c, 0, 70, 107
2, 56016, Note_off_c, 0, 70, 64
2, 56040, Note_on_c, 0, 67, 107
2, 56136, Note_off_c, 0, 67, 64
2, 56160, Note_on_c, 0, 75, 107
2, 56256, Note_off_c, 0, 75, 64
2, 56280, Note_on_c, 0, 72, 107
2, 56376, Note_off_c, 0, 72, 64
2, 56400, Note_on_c, 0, 74, 107
2, 56496, Note_off_c, 0, 74, 64
2, 56520, Note_on_c, 0, 70, 107
2, 56616, Note_off_c, 0, 70, 64
2, 56640, Note_on_c, 0, 72, 107
2, 56736, Note_off_c, 0, 72, 64
2, 56760, Note_on_c, 0, 69, 107
2, 56856, Note_off_c, 0, 69, 64
2, 56880, Note_on_c, 0, 70, 107
2, 56976, Note_off_c, 0, 70, 64
2, 57000, Note_on_c, 0, 67, 107
2, 57096, Note_off_c, 0, 67, 64
2, 57120, Note_on_c, 0, 69, 107
2, 57312, Note_off_c, 0, 69, 64
2, 57360, Note_on_c, 0, 62, 107
2, 57552, Note_off_c, 0, 62, 64
2, 57600, Note_on_c, 0, 67, 107
2, 57792, Note_off_c, 0, 67, 64
2, 57840, Note_on_c, 0, 70, 107
2, 57936, Note_off_c, 0, 70, 64
2, 57960, Note_on_c, 0, 69, 107
2, 58056, Note_off_c, 0, 69, 64
2, 58080, Note_on_c, 0, 70, 107
2, 58176, Note_off_c, 0, 70, 64
2, 58200, Note_on_c, 0, 66, 107
2, 58296, Note_off_c, 0, 66, 64
2, 58320, Note_on_c, 0, 67, 107
2, 58416, Note_off_c, 0, 67, 64
2, 58440, Note_on_c, 0, 62, 107
2, 58536, Note_off_c, 0, 62, 64
2, 58560, Note_on_c, 0, 71, 107
2, 58656, Note_off_c, 0, 71, 64
2, 58680, Note_on_c, 0, 65, 107
2, 58776, Note_off_c, 0, 65, 64
2, 58800, Note_on_c, 0, 67, 107
2, 58896, Note_off_c, 0, 67, 64
2, 58920, Note_on_c, 0, 62, 107
2, 59016, Note_off_c, 0, 62, 64
2, 59040, Note_on_c, 0, 72, 107
2, 59136, Note_off_c, 0, 72, 64
2, 59160, Note_on_c, 0, 62, 107
2, 59256, Note_off_c, 0, 62, 64
2, 59280, Note_on_c, 0, 63, 107
2, 59376, Note_off_c, 0, 63, 64
2, 59400, Note_on_c, 0, 67, 107
2, 59496, Note_off_c, 0, 67, 64
2, 59520, Note_on_c, 0, 72, 107
2, 59616, Note_off_c, 0, 72, 64
2, 59640, Note_on_c, 0, 67, 107
2, 59736, Note_off_c, 0, 67, 64
2, 59760, Note_on_c, 0, 74, 107
2, 59856, Note_off_c, 0, 74, 64
2, 59880, Note_on_c, 0, 67, 107
2, 59976, Note_off_c, 0, 67, 64
2, 60000, Note_on_c, 0, 75, 107
2, 60096, Note_off_c, 0, 75, 64
2, 60120, Note_on_c, 0, 71, 107
2, 60216, Note_off_c, 0, 71, 64
2, 60240, Note_on_c, 0, 72, 107
2, 60336, Note_off_c, 0, 72, 64
2, 60360, Note_on_c, 0, 67, 107
2, 60456, Note_off_c, 0, 67, 64
2, 60480, Note_on_c, 0, 75, 107
2, 60576, Note_off_c, 0, 75, 64
2, 60600, Note_on_c, 0, 70, 107
2, 60696, Note_off_c, 0, 70, 64
2, 60720, Note_on_c, 0, 72, 107
2, 60816, Note_off_c, 0, 72, 64
2, 60840, Note_on_c, 0, 67, 107
2, 60936, Note_off_c, 0, 67, 64
2, 60960, Note_on_c, 0, 77, 107
2, 61056, Note_off_c, 0, 77, 64
2, 61080, Note_on_c, 0, 67, 107
2, 61176, Note_off_c, 0, 67, 64
2, 61200, Note_on_c, 0, 69, 107
2, 61296, Note_off_c, 0, 69, 64
2, 61320, Note_on_c, 0, 72, 107
2, 61416, Note_off_c, 0, 72, 64
2, 61440, Note_on_c, 0, 78, 107
2, 61536, Note_off_c, 0, 78, 64
2, 61560, Note_on_c, 0, 72, 107
2, 61656, Note_off_c, 0, 72, 64
2, 61680, Note_on_c, 0, 79, 107
2, 61776, Note_off_c, 0, 79, 64
2, 61800, Note_on_c, 0, 72, 107
2, 61896, Note_off_c, 0, 72, 64
2, 61920, Note_on_c, 0, 81, 107
2, 62016, Note_off_c, 0, 81, 64
2, 62040, Note_on_c, 0, 76, 107
2, 62136, Note_off_c, 0, 76, 64
2, 62160, Note_on_c, 0, 78, 107
2, 62256, Note_off_c, 0, 78, 64
2, 62280, Note_on_c, 0, 74, 107
2, 62376, Note_off_c, 0, 74, 64
2, 62400, Note_on_c, 0, 82, 107
2, 62496, Note_off_c, 0, 82, 64
2, 62520, Note_on_c, 0, 78, 107
2, 62616, Note_off_c, 0, 78, 64
2, 62640, Note_on_c, 0, 79, 107
2, 62736, Note_off_c, 0, 79, 64
2, 62760, Note_on_c, 0, 74, 107
2, 62856, Note_off_c, 0, 74, 64
2, 62880, Note_on_c, 0, 84, 107
2, 62976, Note_off_c, 0, 84, 64
2, 63000, Note_on_c, 0, 81, 107
2, 63096, Note_off_c, 0, 81, 64
2, 63120, Note_on_c, 0, 74, 107
2, 63216, Note_off_c, 0, 74, 64
2, 63240, Note_on_c, 0, 84, 107
2, 63336, Note_off_c, 0, 84, 64
2, 63360, Note_on_c, 0, 82, 107
2, 63456, Note_off_c, 0, 82, 64
2, 63480, Note_on_c, 0, 81, 107
2, 63576, Note_off_c, 0, 81, 64
2, 63600, Note_on_c, 0, 79, 107
2, 63696, Note_off_c, 0, 79, 64
2, 63720, Note_on_c, 0, 78, 107
2, 63816, Note_off_c, 0, 78, 64
2, 63840, Note_on_c, 0, 79, 107
2, 63936, Note_off_c, 0, 79, 64
2, 63960, Note_on_c, 0, 74, 107
2, 64056, Note_off_c, 0, 74, 64
2, 64080, Note_on_c, 0, 75, 107
2, 64176, Note_off_c, 0, 75, 64
2, 64200, Note_on_c, 0, 72, 107
2, 64296, Note_off_c, 0, 72, 64
2, 64320, Note_on_c, 0, 70, 107
2, 64512, Note_off_c, 0, 70, 64
2, 64560, Note_on_c, 0, 69, 107
2, 64584, Note_off_c, 0, 69, 64
2, 64590, Note_on_c, 0, 70, 107
2, 64614, Note_off_c, 0, 70, 64
2, 64620, Note_on_c, 0, 69, 107
2, 64649, Note_off_c, 0, 69, 64
2, 64650, Note_on_c, 0, 67, 105
2, 64776, Note_off_c, 0, 67, 64
2, 64800, Note_on_c, 0, 67, 107
2, 65184, Note_off_c, 0, 67, 64
2, 65184, End_track
3, 0, Start_track
3, 0, Title_t, "J.S. Bach, Edition Wood"
3, 0, Program_c, 1, 0
3, 0, Note_on_c, 1, 43, 107
3, 192, Note_off_c, 1, 43, 64
3, 240, Note_on_c, 1, 50, 107
3, 432, Note_off_c, 1, 50, 64
3, 480, Note_on_c, 1, 55, 107
3, 672, Note_off_c, 1, 55, 64
3, 720, Note_on_c, 1, 58, 107
3, 912, Note_off_c, 1, 58, 64
3, 960, Note_on_c, 1, 60, 107
3, 1152, Note_off_c, 1, 60, 64
3, 1200, Note_on_c, 1, 62, 107
3, 1392, Note_off_c, 1, 62, 64
3, 1440, Note_on_c, 1, 63, 107
3, 1536, Note_off_c, 1, 63, 64
3, 1560, Note_on_c, 1, 65, 107
3, 1656, Note_off_c, 1, 65, 64
3, 1680, Note_on_c, 1, 63, 107
3, 1776, Note_off_c, 1, 63, 64
3, 1800, Note_on_c, 1, 62, 107
3, 1896, Note_off_c, 1, 62, 64
3, 1920, Note_on_c, 1, 60, 107
3, 2016, Note_off_c, 1, 60, 64
3, 2040, Note_on_c, 1, 58, 107
3, 2136, Note_off_c, 1, 58, 64
3, 2160, Note_on_c, 1, 57, 107
3, 2256, Note_off_c, 1, 57, 64
3, 2280, Note_on_c, 1, 60, 107
3, 2376, Note_off_c, 1, 60, 64
3, 2400, Note_on_c, 1, 58, 107
3, 2496, Note_off_c, 1, 58, 64
3, 2520, Note_on_c, 1, 57, 107
3, 2616, Note_off_c, 1, 57, 64
3, 2640, Note_on_c, 1, 55, 107
3, 2736, Note_off_c, 1, 55, 64
3, 2760, Note_on_c, 1, 58, 107
3, 2856, Note_off_c, 1, 58, 64
3, 2880, Note_on_c, 1, 57, 107
3, 2976, Note_off_c, 1, 57, 64
3, 3000, Note_on_c, 1, 55, 107
3, 3096, Note_off_c, 1, 55, 64
3, 3120, Note_on_c, 1, 54, 107
3, 3216, Note_off_c, 1, 54, 64
3, 3240, Note_on_c, 1, 50, 107
3, 3336, Note_off_c, 1, 50, 64
3, 3360, Note_on_c, 1, 55, 107
3, 3552, Note_off_c, 1, 55, 64
3, 3600, Note_on_c, 1, 50, 107
3, 3792, Note_off_c, 1, 50, 64
3, 3840, Note_on_c, 1, 46, 107
3, 4032, Note_off_c, 1, 46, 64
3, 4080, Note_on_c, 1, 50, 107
3, 4272, Note_off_c, 1, 50, 64
3, 4320, Note_on_c, 1, 55, 107
3, 4512, Note_off_c, 1, 55, 64
3, 4560, Note_on_c, 1, 58, 107
3, 4752, Note_off_c, 1, 58, 64
3, 4800, Note_on_c, 1, 60, 107
3, 4992, Note_off_c, 1, 60, 64
3, 5040, Note_on_c, 1, 62, 107
3, 5232, Note_off_c, 1, 62, 64
3, 5280, Note_on_c, 1, 63, 107
3, 5376, Note_off_c, 1, 63, 64
3, 5400, Note_on_c, 1, 65, 107
3, 5496, Note_off_c, 1, 65, 64
3, 5520, Note_on_c, 1, 63, 107
3, 5616, Note_off_c, 1, 63, 64
3, 5640, Note_on_c, 1, 62, 107
3, 5736, Note_off_c, 1, 62, 64
3, 5760, Note_on_c, 1, 60, 107
3, 5856, Note_off_c, 1, 60, 64
3, 5880, Note_on_c, 1, 58, 107
3, 5976, Note_off_c, 1, 58, 64
3, 6000, Note_on_c, 1, 57, 107
3, 6096, Note_off_c, 1, 57, 64
3, 6120, Note_on_c, 1, 55, 107
3, 6216, Note_off_c, 1, 55, 64
3, 6240, Note_on_c, 1, 53, 107
3, 6432, Note_off_c, 1, 53, 64
3, 6480, Note_on_c, 1, 55, 107
3, 6672, Note_off_c, 1, 55, 64
3, 6720, Note_on_c, 1, 51, 107
3, 6912, Note_off_c, 1, 51, 64
3, 6960, Note_on_c, 1, 53, 107
3, 7152, Note_off_c, 1, 53, 64
3, 7200, Note_on_c, 1, 46, 107
3, 7296, Note_off_c, 1, 46, 64
3, 7320, Note_on_c, 1, 48, 107
3, 7416, Note_off_c, 1, 48, 64
3, 7440, Note_on_c, 1, 46, 107
3, 7536, Note_off_c, 1, 46, 64
3, 7560, Note_on_c, 1, 45, 107
3, 7656, Note_off_c, 1, 45, 64
3, 7680, Note_on_c, 1, 43, 107
3, 7872, Note_off_c, 1, 43, 64
3, 7920, Note_on_c, 1, 50, 107
3, 8112, Note_off_c, 1, 50, 64
3, 8160, Note_on_c, 1, 55, 107
3, 8352, Note_off_c, 1, 55, 64
3, 8400, Note_on_c, 1, 58, 107
3, 8592, Note_off_c, 1, 58, 64
3, 8640, Note_on_c, 1, 60, 107
3, 8832, Note_off_c, 1, 60, 64
3, 8880, Note_on_c, 1, 62, 107
3, 9072, Note_off_c, 1, 62, 64
3, 9120, Note_on_c, 1, 63, 107
3, 9216, Note_off_c, 1, 63, 64
3, 9240, Note_on_c, 1, 65, 107
3, 9336, Note_off_c, 1, 65, 64
3, 9360, Note_on_c, 1, 63, 107
3, 9456, Note_off_c, 1, 63, 64
3, 9480, Note_on_c, 1, 62, 107
3, 9576, Note_off_c, 1, 62, 64
3, 9600, Note_on_c, 1, 60, 107
3, 9696, Note_off_c, 1, 60, 64
3, 9720, Note_on_c, 1, 58, 107
3, 9816, Note_off_c, 1, 58, 64
3, 9840, Note_on_c, 1, 57, 107
3, 9936, Note_off_c, 1, 57, 64
3, 9960, Note_on_c, 1, 60, 107
3, 10056, Note_off_c, 1, 60, 64
3, 10080, Note_on_c, 1, 58, 107
3, 10176, Note_off_c, 1, 58, 64
3, 10200, Note_on_c, 1, 57, 107
3, 10296, Note_off_c, 1, 57, 64
3, 10320, Note_on_c, 1, 55, 107
3, 10416, Note_off_c, 1, 55, 64
3, 10440, Note_on_c, 1, 58, 107
3, 10536, Note_off_c, 1, 58, 64
3, 10560, Note_on_c, 1, 57, 107
3, 10656, Note_off_c, 1, 57, 64
3, 10680, Note_on_c, 1, 55, 107
3, 10776, Note_off_c, 1, 55, 64
3, 10800, Note_on_c, 1, 54, 107
3, 10896, Note_off_c, 1, 54, 64
3, 10920, Note_on_c, 1, 50, 107
3, 11016, Note_off_c, 1, 50, 64
3, 11040, Note_on_c, 1, 55, 107
3, 11232, Note_off_c, 1, 55, 64
3, 11280, Note_on_c, 1, 50, 107
3, 11472, Note_off_c, 1, 50, 64
3, 11520, Note_on_c, 1, 46, 107
3, 11712, Note_off_c, 1, 46, 64
3, 11760, Note_on_c, 1, 50, 107
3, 11952, Note_off_c, 1, 50, 64
3, 12000, Note_on_c, 1, 55, 107
3, 12192, Note_off_c, 1, 55, 64
3, 12240, Note_on_c, 1, 58, 107
3, 12432, Note_off_c, 1, 58, 64
3, 12480, Note_on_c, 1, 60, 107
3, 12672, Note_off_c, 1, 60, 64
3, 12720, Note_on_c, 1, 62, 107
3, 12912, Note_off_c, 1, 62, 64
3, 12960, Note_on_c, 1, 63, 107
3, 13056, Note_off_c, 1, 63, 64
3, 13080, Note_on_c, 1, 65, 107
3, 13176, Note_off_c, 1, 65, 64
3, 13200, Note_on_c, 1, 63, 107
3, 13296, Note_off_c, 1, 63, 64
3, 13320, Note_on_c, 1, 62, 107
3, 13416, Note_off_c, 1, 62, 64
3, 13440, Note_on_c, 1, 60, 107
3, 13536, Note_off_c, 1, 60, 64
3, 13560, Note_on_c, 1, 58, 107
3, 13656, Note_off_c, 1, 58, 64
3, 13680, Note_on_c, 1, 57, 107
3, 13776, Note_off_c, 1, 57, 64
3, 13800, Note_on_c, 1, 55, 107
3, 13896, Note_off_c, 1, 55, 64
3, 13920, Note_on_c, 1, 53, 107
3, 14112, Note_off_c, 1, 53, 64
3, 14160, Note_on_c, 1, 55, 107
3, 14352, Note_off_c, 1, 55, 64
3, 14400, Note_on_c, 1, 51, 107
3, 14592, Note_off_c, 1, 51, 64
3, 14640, Note_on_c, 1, 53, 107
3, 14832, Note_off_c, 1, 53, 64
3, 14880, Note_on_c, 1, 46, 107
3, 14976, Note_off_c, 1, 46, 64
3, 15000, Note_on_c, 1, 53, 107
3, 15096, Note_off_c, 1, 53, 64
3, 15120, Note_on_c, 1, 55, 107
3, 15216, Note_off_c, 1, 55, 64
3, 15240, Note_on_c, 1, 57, 107
3, 15336, Note_off_c, 1, 57, 64
3, 15360, Note_on_c, 1, 58, 107
3, 15552, Note_off_c, 1, 58, 64
3, 15600, Note_on_c, 1, 60, 107
3, 15792, Note_off_c, 1, 60, 64
3, 15840, Note_on_c, 1, 62, 107
3, 16032, Note_off_c, 1, 62, 64
3, 16080, Note_on_c, 1, 58, 107
3, 16272, Note_off_c, 1, 58, 64
3, 16320, Note_on_c, 1, 63, 107
3, 16512, Note_off_c, 1, 63, 64
3, 16560, Note_on_c, 1, 60, 107
3, 16752, Note_off_c, 1, 60, 64
3, 16800, Note_on_c, 1, 62, 107
3, 16896, Note_off_c, 1, 62, 64
3, 16920, Note_on_c, 1, 60, 107
3, 17016, Note_off_c, 1, 60, 64
3, 17040, Note_on_c, 1, 58, 107
3, 17136, Note_off_c, 1, 58, 64
3, 17160, Note_on_c, 1, 57, 107
3, 17256, Note_off_c, 1, 57, 64
3, 17280, Note_on_c, 1, 55, 107
3, 17472, Note_off_c, 1, 55, 64
3, 17520, Note_on_c, 1, 53, 107
3, 17712, Note_off_c, 1, 53, 64
3, 17760, Note_on_c, 1, 52, 107
3, 17952, Note_off_c, 1, 52, 64
3, 18000, Note_on_c, 1, 48, 107
3, 18192, Note_off_c, 1, 48, 64
3, 18240, Note_on_c, 1, 50, 107
3, 18432, Note_off_c, 1, 50, 64
3, 18480, Note_on_c, 1, 52, 107
3, 18672, Note_off_c, 1, 52, 64
3, 18720, Note_on_c, 1, 53, 107
3, 18912, Note_off_c, 1, 53, 64
3, 18960, Note_on_c, 1, 55, 107
3, 19056, Note_off_c, 1, 55, 64
3, 19080, Note_on_c, 1, 57, 107
3, 19176, Note_off_c, 1, 57, 64
3, 19200, Note_on_c, 1, 58, 107
3, 19392, Note_off_c, 1, 58, 64
3, 19440, Note_on_c, 1, 55, 107
3, 19632, Note_off_c, 1, 55, 64
3, 19680, Note_on_c, 1, 52, 107
3, 19872, Note_off_c, 1, 52, 64
3, 19920, Note_on_c, 1, 45, 107
3, 20112, Note_off_c, 1, 45, 64
3, 20160, Note_on_c, 1, 47, 107
3, 20352, Note_off_c, 1, 47, 64
3, 20400, Note_on_c, 1, 49, 107
3, 20592, Note_off_c, 1, 49, 64
3, 20640, Note_on_c, 1, 50, 107
3, 20832, Note_off_c, 1, 50, 64
3, 20880, Note_on_c, 1, 38, 107
3, 21072, Note_off_c, 1, 38, 64
3, 21120, Note_on_c, 1, 62, 107
3, 21312, Note_off_c, 1, 62, 64
3, 21360, Note_on_c, 1, 65, 107
3, 21456, Note_off_c, 1, 65, 64
3, 21480, Note_on_c, 1, 64, 107
3, 21576, Note_off_c, 1, 64, 64
3, 21600, Note_on_c, 1, 65, 107
3, 21792, Note_off_c, 1, 65, 64
3, 21840, Note_on_c, 1, 62, 107
3, 21936, Note_off_c, 1, 62, 64
3, 21960, Note_on_c, 1, 57, 107
3, 22056, Note_off_c, 1, 57, 64
3, 22080, Note_on_c, 1, 64, 107
3, 22272, Note_off_c, 1, 64, 64
3, 22320, Note_on_c, 1, 61, 107
3, 22416, Note_off_c, 1, 61, 64
3, 22440, Note_on_c, 1, 57, 107
3, 22536, Note_off_c, 1, 57, 64
3, 22560, Note_on_c, 1, 62, 107
3, 22944, Note_off_c, 1, 62, 64
3, 23040, Note_on_c, 1, 55, 107
3, 23232, Note_off_c, 1, 55, 64
3, 23280, Note_on_c, 1, 57, 107
3, 23472, Note_off_c, 1, 57, 64
3, 23520, Note_on_c, 1, 58, 107
3, 23712, Note_off_c, 1, 58, 64
3, 23760, Note_on_c, 1, 55, 107
3, 23952, Note_off_c, 1, 55, 64
3, 24000, Note_on_c, 1, 57, 107
3, 24192, Note_off_c, 1, 57, 64
3, 24240, Note_on_c, 1, 45, 107
3, 24432, Note_off_c, 1, 45, 64
3, 24480, Note_on_c, 1, 38, 107
3, 24576, Note_off_c, 1, 38, 64
3, 24600, Note_on_c, 1, 50, 107
3, 24696, Note_off_c, 1, 50, 64
3, 24720, Note_on_c, 1, 51, 107
3, 24816, Note_off_c, 1, 51, 64
3, 24840, Note_on_c, 1, 53, 107
3, 24936, Note_off_c, 1, 53, 64
3, 24960, Note_on_c, 1, 55, 107
3, 25140, Note_off_c, 1, 55, 64
3, 25200, Note_on_c, 1, 55, 107
3, 25380, Note_off_c, 1, 55, 64
3, 25440, Note_on_c, 1, 56, 107
3, 25488, Note_off_c, 1, 56, 64
3, 25500, Note_on_c, 1, 55, 107
3, 25548, Note_off_c, 1, 55, 64
3, 25560, Note_on_c, 1, 56, 107
3, 25608, Note_off_c, 1, 56, 64
3, 25620, Note_on_c, 1, 55, 107
3, 25668, Note_off_c, 1, 55, 64
3, 25680, Note_on_c, 1, 56, 107
3, 25728, Note_off_c, 1, 56, 64
3, 25740, Note_on_c, 1, 55, 107
3, 25788, Note_off_c, 1, 55, 64
3, 25800, Note_on_c, 1, 56, 107
3, 25848, Note_off_c, 1, 56, 64
3, 25860, Note_on_c, 1, 55, 107
3, 25908, Note_off_c, 1, 55, 64
3, 25920, Note_on_c, 1, 56, 107
3, 25968, Note_off_c, 1, 56, 64
3, 25980, Note_on_c, 1, 55, 107
3, 26028, Note_off_c, 1, 55, 64
3, 26040, Note_on_c, 1, 56, 107
3, 26088, Note_off_c, 1, 56, 64
3, 26100, Note_on_c, 1, 55, 107
3, 26148, Note_off_c, 1, 55, 64
3, 26160, Note_on_c, 1, 56, 107
3, 26208, Note_off_c, 1, 56, 64
3, 26220, Note_on_c, 1, 55, 107
3, 26268, Note_off_c, 1, 55, 64
3, 26280, Note_on_c, 1, 56, 107
3, 26328, Note_off_c, 1, 56, 64
3, 26340, Note_on_c, 1, 55, 107
3, 26784, Note_off_c, 1, 55, 64
3, 26880, Note_on_c, 1, 55, 107
3, 27072, Note_off_c, 1, 55, 64
3, 27120, Note_on_c, 1, 55, 107
3, 27312, Note_off_c, 1, 55, 64
3, 27360, Note_on_c, 1, 55, 107
3, 27744, Note_off_c, 1, 55, 64
3, 27840, Note_on_c, 1, 55, 107
3, 28032, Note_off_c, 1, 55, 64
3, 28080, Note_on_c, 1, 55, 107
3, 28272, Note_off_c, 1, 55, 64
3, 28320, Note_on_c, 1, 55, 107
3, 28704, Note_off_c, 1, 55, 64
3, 28800, Note_on_c, 1, 55, 107
3, 28896, Note_off_c, 1, 55, 64
3, 28920, Note_on_c, 1, 55, 107
3, 29016, Note_off_c, 1, 55, 64
3, 29040, Note_on_c, 1, 55, 107
3, 29136, Note_off_c, 1, 55, 64
3, 29160, Note_on_c, 1, 55, 107
3, 29256, Note_off_c, 1, 55, 64
3, 29280, Note_on_c, 1, 55, 107
3, 29376, Note_off_c, 1, 55, 64
3, 29400, Note_on_c, 1, 55, 107
3, 29496, Note_off_c, 1, 55, 64
3, 29520, Note_on_c, 1, 55, 107
3, 29616, Note_off_c, 1, 55, 64
3, 29640, Note_on_c, 1, 55, 107
3, 29736, Note_off_c, 1, 55, 64
3, 29760, Note_on_c, 1, 55, 107
3, 29856, Note_off_c, 1, 55, 64
3, 29880, Note_on_c, 1, 54, 107
3, 29976, Note_off_c, 1, 54, 64
3, 30000, Note_on_c, 1, 55, 107
3, 30192, Note_off_c, 1, 55, 64
3, 30240, Note_on_c, 1, 50, 107
3, 30432, Note_off_c, 1, 50, 64
3, 30480, Note_on_c, 1, 48, 107
3, 30672, Note_off_c, 1, 48, 64
3, 30720, Note_on_c, 1, 46, 107
3, 30912, Note_off_c, 1, 46, 64
3, 30960, Note_on_c, 1, 50, 107
3, 31152, Note_off_c, 1, 50, 64
3, 31200, Note_on_c, 1, 42, 107
3, 31392, Note_off_c, 1, 42, 64
3, 31440, Note_on_c, 1, 50, 107
3, 31632, Note_off_c, 1, 50, 64
3, 31680, Note_on_c, 1, 43, 107
3, 31872, Note_off_c, 1, 43, 64
3, 31920, Note_on_c, 1, 50, 107
3, 32112, Note_off_c, 1, 50, 64
3, 32160, Note_on_c, 1, 38, 107
3, 32352, Note_off_c, 1, 38, 64
3, 32400, Note_on_c, 1, 50, 107
3, 32496, Note_off_c, 1, 50, 64
3, 32520, Note_on_c, 1, 48, 107
3, 32616, Note_off_c, 1, 48, 64
3, 32640, Note_on_c, 1, 46, 107
3, 32832, Note_off_c, 1, 46, 64
3, 32880, Note_on_c, 1, 45, 107
3, 33072, Note_off_c, 1, 45, 64
3, 33120, Note_on_c, 1, 43, 107
3, 33300, Note_off_c, 1, 43, 64
3, 33600, Note_on_c, 1, 41, 107
3, 33780, Note_off_c, 1, 41, 64
3, 34080, Note_on_c, 1, 39, 107
3, 34260, Note_off_c, 1, 39, 64
3, 34320, Note_on_c, 1, 55, 107
3, 34416, Note_off_c, 1, 55, 64
3, 34440, Note_on_c, 1, 53, 107
3, 34536, Note_off_c, 1, 53, 64
3, 34560, Note_on_c, 1, 51, 107
3, 34752, Note_off_c, 1, 51, 64
3, 34800, Note_on_c, 1, 50, 107
3, 34992, Note_off_c, 1, 50, 64
3, 35040, Note_on_c, 1, 48, 107
3, 35220, Note_off_c, 1, 48, 64
3, 35520, Note_on_c, 1, 46, 107
3, 35700, Note_off_c, 1, 46, 64
3, 36000, Note_on_c, 1, 45, 107
3, 36180, Note_off_c, 1, 45, 64
3, 36240, Note_on_c, 1, 60, 107
3, 36336, Note_off_c, 1, 60, 64
3, 36360, Note_on_c, 1, 58, 107
3, 36456, Note_off_c, 1, 58, 64
3, 36480, Note_on_c, 1, 57, 107
3, 36672, Note_off_c, 1, 57, 64
3, 36720, Note_on_c, 1, 55, 107
3, 36912, Note_off_c, 1, 55, 64
3, 36960, Note_on_c, 1, 54, 107
3, 37140, Note_off_c, 1, 54, 64
3, 37440, Note_on_c, 1, 52, 107
3, 37620, Note_off_c, 1, 52, 64
3, 37920, Note_on_c, 1, 50, 107
3, 38100, Note_off_c, 1, 50, 64
3, 38160, Note_on_c, 1, 54, 107
3, 38352, Note_off_c, 1, 54, 64
3, 38400, Note_on_c, 1, 55, 107
3, 38592, Note_off_c, 1, 55, 64
3, 38640, Note_on_c, 1, 57, 107
3, 38832, Note_off_c, 1, 57, 64
3, 38880, Note_on_c, 1, 58, 107
3, 39072, Note_off_c, 1, 58, 64
3, 39120, Note_on_c, 1, 60, 107
3, 39312, Note_off_c, 1, 60, 64
3, 39360, Note_on_c, 1, 62, 107
3, 39552, Note_off_c, 1, 62, 64
3, 39600, Note_on_c, 1, 50, 107
3, 39792, Note_off_c, 1, 50, 64
3, 39840, Note_on_c, 1, 43, 107
3, 40224, Note_off_c, 1, 43, 64
3, 40320, Note_on_c, 1, 58, 107
3, 40512, Note_off_c, 1, 58, 64
3, 40560, Note_on_c, 1, 60, 107
3, 40752, Note_off_c, 1, 60, 64
3, 40800, Note_on_c, 1, 62, 107
3, 40992, Note_off_c, 1, 62, 64
3, 41040, Note_on_c, 1, 58, 107
3, 41232, Note_off_c, 1, 58, 64
3, 41280, Note_on_c, 1, 63, 107
3, 41472, Note_off_c, 1, 63, 64
3, 41520, Note_on_c, 1, 60, 107
3, 41712, Note_off_c, 1, 60, 64
3, 41760, Note_on_c, 1, 62, 107
3, 41856, Note_off_c, 1, 62, 64
3, 41880, Note_on_c, 1, 60, 107
3, 41976, Note_off_c, 1, 60, 64
3, 42000, Note_on_c, 1, 58, 107
3, 42096, Note_off_c, 1, 58, 64
3, 42120, Note_on_c, 1, 57, 107
3, 42216, Note_off_c, 1, 57, 64
3, 42240, Note_on_c, 1, 55, 107
3, 42432, Note_off_c, 1, 55, 64
3, 42480, Note_on_c, 1, 53, 107
3, 42672, Note_off_c, 1, 53, 64
3, 42720, Note_on_c, 1, 52, 107
3, 42912, Note_off_c, 1, 52, 64
3, 42960, Note_on_c, 1, 48, 107
3, 43152, Note_off_c, 1, 48, 64
3, 43200, Note_on_c, 1, 50, 107
3, 43392, Note_off_c, 1, 50, 64
3, 43440, Note_on_c, 1, 52, 107
3, 43632, Note_off_c, 1, 52, 64
3, 43680, Note_on_c, 1, 53, 107
3, 43872, Note_off_c, 1, 53, 64
3, 43920, Note_on_c, 1, 55, 107
3, 44016, Note_off_c, 1, 55, 64
3, 44040, Note_on_c, 1, 57, 107
3, 44136, Note_off_c, 1, 57, 64
3, 44160, Note_on_c, 1, 58, 107
3, 44352, Note_off_c, 1, 58, 64
3, 44400, Note_on_c, 1, 55, 107
3, 44592, Note_off_c, 1, 55, 64
3, 44640, Note_on_c, 1, 52, 107
3, 44832, Note_off_c, 1, 52, 64
3, 44880, Note_on_c, 1, 45, 107
3, 45072, Note_off_c, 1, 45, 64
3, 45120, Note_on_c, 1, 47, 107
3, 45312, Note_off_c, 1, 47, 64
3, 45360, Note_on_c, 1, 49, 107
3, 45552, Note_off_c, 1, 49, 64
3, 45600, Note_on_c, 1, 50, 107
3, 45792, Note_off_c, 1, 50, 64
3, 45840, Note_on_c, 1, 38, 107
3, 46032, Note_off_c, 1, 38, 64
3, 46080, Note_on_c, 1, 62, 107
3, 46272, Note_off_c, 1, 62, 64
3, 46320, Note_on_c, 1, 65, 107
3, 46416, Note_off_c, 1, 65, 64
3, 46440, Note_on_c, 1, 64, 107
3, 46536, Note_off_c, 1, 64, 64
3, 46560, Note_on_c, 1, 65, 107
3, 46752, Note_off_c, 1, 65, 64
3, 46800, Note_on_c, 1, 62, 107
3, 46896, Note_off_c, 1, 62, 64
3, 46920, Note_on_c, 1, 57, 107
3, 47016, Note_off_c, 1, 57, 64
3, 47040, Note_on_c, 1, 64, 107
3, 47232, Note_off_c, 1, 64, 64
3, 47280, Note_on_c, 1, 61, 107
3, 47376, Note_off_c, 1, 61, 64
3, 47400, Note_on_c, 1, 57, 107
3, 47496, Note_off_c, 1, 57, 64
3, 47520, Note_on_c, 1, 62, 107
3, 47904, Note_off_c, 1, 62, 64
3, 48000, Note_on_c, 1, 55, 107
3, 48192, Note_off_c, 1, 55, 64
3, 48240, Note_on_c, 1, 57, 107
3, 48432, Note_off_c, 1, 57, 64
3, 48480, Note_on_c, 1, 58, 107
3, 48672, Note_off_c, 1, 58, 64
3, 48720, Note_on_c, 1, 55, 107
3, 48912, Note_off_c, 1, 55, 64
3, 48960, Note_on_c, 1, 57, 107
3, 49152, Note_off_c, 1, 57, 64
3, 49200, Note_on_c, 1, 45, 107
3, 49392, Note_off_c, 1, 45, 64
3, 49440, Note_on_c, 1, 38, 107
3, 49536, Note_off_c, 1, 38, 64
3, 49560, Note_on_c, 1, 50, 107
3, 49656, Note_off_c, 1, 50, 64
3, 49680, Note_on_c, 1, 51, 107
3, 49776, Note_off_c, 1, 51, 64
3, 49800, Note_on_c, 1, 53, 107
3, 49896, Note_off_c, 1, 53, 64
3, 49920, Note_on_c, 1, 55, 107
3, 50100, Note_off_c, 1, 55, 64
3, 50160, Note_on_c, 1, 55, 107
3, 50340, Note_off_c, 1, 55, 64
3, 50400, Note_on_c, 1, 56, 107
3, 50448, Note_off_c, 1, 56, 64
3, 50460, Note_on_c, 1, 55, 107
3, 50508, Note_off_c, 1, 55, 64
3, 50520, Note_on_c, 1, 56, 107
3, 50568, Note_off_c, 1, 56, 64
3, 50580, Note_on_c, 1, 55, 107
3, 50628, Note_off_c, 1, 55, 64
3, 50640, Note_on_c, 1, 56, 107
3, 50688, Note_off_c, 1, 56, 64
3, 50700, Note_on_c, 1, 55, 107
3, 50748, Note_off_c, 1, 55, 64
3, 50760, Note_on_c, 1, 56, 107
3, 50808, Note_off_c, 1, 56, 64
3, 50820, Note_on_c, 1, 55, 107
3, 50868, Note_off_c, 1, 55, 64
3, 50880, Note_on_c, 1, 56, 107
3, 50928, Note_off_c, 1, 56, 64
3, 50940, Note_on_c, 1, 55, 107
3, 50988, Note_off_c, 1, 55, 64
3, 51000, Note_on_c, 1, 56, 107
3, 51048, Note_off_c, 1, 56, 64
3, 51060, Note_on_c, 1, 55, 107
3, 51108, Note_off_c, 1, 55, 64
3, 51120, Note_on_c, 1, 56, 107
3, 51168, Note_off_c, 1, 56, 64
3, 51180, Note_on_c, 1, 55, 107
3, 51228, Note_off_c, 1, 55, 64
3, 51240, Note_on_c, 1, 56, 107
3, 51288, Note_off_c, 1, 56, 64
3, 51300, Note_on_c, 1, 55, 107
3, 51744, Note_off_c, 1, 55, 64
3, 51840, Note_on_c, 1, 55, 107
3, 52032, Note_off_c, 1, 55, 64
3, 52080, Note_on_c, 1, 55, 107
3, 52272, Note_off_c, 1, 55, 64
3, 52320, Note_on_c, 1, 55, 107
3, 52704, Note_off_c, 1, 55, 64
3, 52800, Note_on_c, 1, 55, 107
3, 52992, Note_off_c, 1, 55, 64
3, 53040, Note_on_c, 1, 55, 107
3, 53232, Note_off_c, 1, 55, 64
3, 53280, Note_on_c, 1, 55, 107
3, 53664, Note_off_c, 1, 55, 64
3, 53760, Note_on_c, 1, 55, 107
3, 53856, Note_off_c, 1, 55, 64
3, 53880, Note_on_c, 1, 55, 107
3, 53976, Note_off_c, 1, 55, 64
3, 54000, Note_on_c, 1, 55, 107
3, 54096, Note_off_c, 1, 55, 64
3, 54120, Note_on_c, 1, 55, 107
3, 54216, Note_off_c, 1, 55, 64
3, 54240, Note_on_c, 1, 55, 107
3, 54336, Note_off_c, 1, 55, 64
3, 54360, Note_on_c, 1, 55, 107
3, 54456, Note_off_c, 1, 55, 64
3, 54480, Note_on_c, 1, 55, 107
3, 54576, Note_off_c, 1, 55, 64
3, 54600, Note_on_c, 1, 55, 107
3, 54696, Note_off_c, 1, 55, 64
3, 54720, Note_on_c, 1, 55, 107
3, 54816, Note_off_c, 1, 55, 64
3, 54840, Note_on_c, 1, 54, 107
3, 54936, Note_off_c, 1, 54, 64
3, 54960, Note_on_c, 1, 55, 107
3, 55152, Note_off_c, 1, 55, 64
3, 55200, Note_on_c, 1, 50, 107
3, 55392, Note_off_c, 1, 50, 64
3, 55440, Note_on_c, 1, 48, 107
3, 55632, Note_off_c, 1, 48, 64
3, 55680, Note_on_c, 1, 46, 107
3, 55872, Note_off_c, 1, 46, 64
3, 55920, Note_on_c, 1, 50, 107
3, 56112, Note_off_c, 1, 50, 64
3, 56160, Note_on_c, 1, 42, 107
3, 56352, Note_off_c, 1, 42, 64
3, 56400, Note_on_c, 1, 50, 107
3, 56592, Note_off_c, 1, 50, 64
3, 56640, Note_on_c, 1, 43, 107
3, 56832, Note_off_c, 1, 43, 64
3, 56880, Note_on_c, 1, 50, 107
3, 57072, Note_off_c, 1, 50, 64
3, 57120, Note_on_c, 1, 38, 107
3, 57312, Note_off_c, 1, 38, 64
3, 57360, Note_on_c, 1, 50, 107
3, 57456, Note_off_c, 1, 50, 64
3, 57480, Note_on_c, 1, 48, 107
3, 57576, Note_off_c, 1, 48, 64
3, 57600, Note_on_c, 1, 46, 107
3, 57792, Note_off_c, 1, 46, 64
3, 57840, Note_on_c, 1, 45, 107
3, 58032, Note_off_c, 1, 45, 64
3, 58080, Note_on_c, 1, 43, 107
3, 58260, Note_off_c, 1, 43, 64
3, 58560, Note_on_c, 1, 41, 107
3, 58740, Note_off_c, 1, 41, 64
3, 59040, Note_on_c, 1, 39, 107
3, 59220, Note_off_c, 1, 39, 64
3, 59280, Note_on_c, 1, 55, 107
3, 59376, Note_off_c, 1, 55, 64
3, 59400, Note_on_c, 1, 53, 107
3, 59496, Note_off_c, 1, 53, 64
3, 59520, Note_on_c, 1, 51, 107
3, 59712, Note_off_c, 1, 51, 64
3, 59760, Note_on_c, 1, 50, 107
3, 59952, Note_off_c, 1, 50, 64
3, 60000, Note_on_c, 1, 48, 107
3, 60180, Note_off_c, 1, 48, 64
3, 60480, Note_on_c, 1, 46, 107
3, 60660, Note_off_c, 1, 46, 64
3, 60960, Note_on_c, 1, 45, 107
3, 61140, Note_off_c, 1, 45, 64
3, 61200, Note_on_c, 1, 60, 107
3, 61296, Note_off_c, 1, 60, 64
3, 61320, Note_on_c, 1, 58, 107
3, 61416, Note_off_c, 1, 58, 64
3, 61440, Note_on_c, 1, 57, 107
3, 61632, Note_off_c, 1, 57, 64
3, 61680, Note_on_c, 1, 55, 107
3, 61872, Note_off_c, 1, 55, 64
3, 61920, Note_on_c, 1, 54, 107
3, 62100, Note_off_c, 1, 54, 64
3, 62400, Note_on_c, 1, 52, 107
3, 62580, Note_off_c, 1, 52, 64
3, 62880, Note_on_c, 1, 50, 107
3, 63060, Note_off_c, 1, 50, 64
3, 63120, Note_on_c, 1, 54, 107
3, 63312, Note_off_c, 1, 54, 64
3, 63360, Note_on_c, 1, 55, 107
3, 63552, Note_off_c, 1, 55, 64
3, 63600, Note_on_c, 1, 57, 107
3, 63792, Note_off_c, 1, 57, 64
3, 63840, Note_on_c, 1, 58, 107
3, 64032, Note_off_c, 1, 58, 64
3, 64080, Note_on_c, 1, 60, 107
3, 64272, Note_off_c, 1, 60, 64
3, 64320, Note_on_c, 1, 62, 107
3, 64512, Note_off_c, 1, 62, 64
3, 64560, Note_on_c, 1, 50, 107
3, 64752, Note_off_c, 1, 50, 64
3, 64800, Note_on_c, 1, 43, 107
3, 65184, Note_off_c, 1, 43, 64
3, 65184, End_track
4, 0, Start_track
4, 0, Title_t, "Arr. Gary Bricault, (c) 1997"
4, 0, End_track
0, 0, End_of_file
