0, 0, Header, 1, 4, 240
1, 0, Start_track
1, 0, Time_signature, 1, 4, 6, 8
1, 0, Tempo, 666667
1, 60, Time_signature, 4, 2, 24, 8
1, 60, Tempo, 652174
1, 11580, Time_signature, 1, 4, 6, 8
1, 11580, Tempo, 666667
1, 11640, Time_signature, 4, 2, 24, 8
1, 11640, Tempo, 652174
1, 23160, Time_signature, 1, 4, 6, 8
1, 23160, Tempo, 666667
1, 23220, Time_signature, 4, 2, 24, 8
1, 23220, Tempo, 652174
1, 34740, Time_signature, 1, 4, 6, 8
1, 34740, Tempo, 666667
1, 34800, Time_signature, 4, 2, 24, 8
1, 34800, Tempo, 652174
1, 34800, End_track
2, 0, Start_track
2, 0, Title_t, "English Suite 3 2. Allemande"
2, 0, Program_c, 0, 0
2, 0, Note_on_c, 0, 70, 107
2, 48, Note_off_c, 0, 70, 64
2, 60, Note_on_c, 0, 70, 107
2, 60, Note_on_c, 0, 67, 107
2, 252, Note_off_c, 0, 67, 64
2, 348, Note_off_c, 0, 70, 64
2, 360, Note_on_c, 0, 79, 107
2, 408, Note_off_c, 0, 79, 64
2, 420, Note_on_c, 0, 78, 107
2, 468, Note_off_c, 0, 78, 64
2, 480, Note_on_c, 0, 79, 107
2, 528, Note_off_c, 0, 79, 64
2, 540, Note_on_c, 0, 69, 107
2, 540, Note_on_c, 0, 72, 107
2, 732, Note_off_c, 0, 69, 64
2, 828, Note_off_c, 0, 72, 64
2, 840, Note_on_c, 0, 81, 107
2, 888, Note_off_c, 0, 81, 64
2, 900, Note_on_c, 0, 79, 107
2, 948, Note_off_c, 0, 79, 64
2, 960, Note_on_c, 0, 81, 107
2, 1008, Note_off_c, 0, 81, 64
2, 1020, Note_on_c, 0, 74, 107
2, 1068, Note_off_c, 0, 74, 64
2, 1080, Note_on_c, 0, 70, 107
2, 1128, Note_off_c, 0, 70, 64
2, 1140, Note_on_c, 0, 74, 107
2, 1188, Note_off_c, 0, 74, 64
2, 1200, Note_on_c, 0, 77, 107
2, 1248, Note_off_c, 0, 77, 64
2, 1260, Note_on_c, 0, 79, 107
2, 1308, Note_off_c, 0, 79, 64
2, 1320, Note_on_c, 0, 82, 107
2, 1368, Note_off_c, 0, 82, 64
2, 1380, Note_on_c, 0, 81, 107
2, 1428, Note_off_c, 0, 81, 64
2, 1440, Note_on_c, 0, 79, 107
2, 1488, Note_off_c, 0, 79, 64
2, 1500, Note_on_c, 0, 78, 107
2, 1548, Note_off_c, 0, 78, 64
2, 1560, Note_on_c, 0, 79, 107
2, 1608, Note_off_c, 0, 79, 64
2, 1620, Note_on_c, 0, 81, 107
2, 1668, Note_off_c, 0, 81, 64
2, 1680, Note_on_c, 0, 75, 107
2, 1728, Note_off_c, 0, 75, 64
2, 1740, Note_on_c, 0, 74, 107
2, 1788, Note_off_c, 0, 74, 64
2, 1800, Note_on_c, 0, 72, 107
2, 1848, Note_off_c, 0, 72, 64
2, 1860, Note_on_c, 0, 70, 107
2, 1908, Note_off_c, 0, 70, 64
2, 1920, Note_on_c, 0, 69, 107
2, 1968, Note_off_c, 0, 69, 64
2, 1980, Note_on_c, 0, 70, 107
2, 2040, Note_on_c, 0, 67, 107
2, 2088, Note_off_c, 0, 67, 64
2, 2100, Note_on_c, 0, 65, 107
2, 2148, Note_off_c, 0, 65, 64
2, 2160, Note_on_c, 0, 62, 107
2, 2208, Note_off_c, 0, 62, 64
2, 2220, Note_on_c, 0, 63, 107
2, 2268, Note_off_c, 0, 70, 64
2, 2280, Note_on_c, 0, 70, 107
2, 2328, Note_off_c, 0, 70, 64
2, 2340, Note_on_c, 0, 72, 107
2, 2388, Note_off_c, 0, 72, 64
2, 2400, Note_on_c, 0, 75, 107
2, 2448, Note_off_c, 0, 75, 64
2, 2460, Note_on_c, 0, 69, 107
2, 2508, Note_off_c, 0, 63, 64
2, 2520, Note_on_c, 0, 65, 107
2, 2568, Note_off_c, 0, 65, 64
2, 2580, Note_on_c, 0, 63, 107
2, 2628, Note_off_c, 0, 63, 64
2, 2640, Note_on_c, 0, 60, 107
2, 2688, Note_off_c, 0, 60, 64
2, 2700, Note_on_c, 0, 62, 107
2, 2748, Note_off_c, 0, 69, 64
2, 2760, Note_on_c, 0, 69, 107
2, 2808, Note_off_c, 0, 69, 64
2, 2820, Note_on_c, 0, 70, 107
2, 2868, Note_off_c, 0, 70, 64
2, 2880, Note_on_c, 0, 74, 107
2, 2928, Note_off_c, 0, 74, 64
2, 2940, Note_on_c, 0, 67, 107
2, 2988, Note_off_c, 0, 62, 64
2, 3000, Note_on_c, 0, 63, 107
2, 3048, Note_off_c, 0, 63, 64
2, 3060, Note_on_c, 0, 62, 107
2, 3108, Note_off_c, 0, 62, 64
2, 3120, Note_on_c, 0, 58, 107
2, 3168, Note_off_c, 0, 58, 64
2, 3180, Note_on_c, 0, 60, 107
2, 3228, Note_off_c, 0, 67, 64
2, 3240, Note_on_c, 0, 67, 107
2, 3288, Note_off_c, 0, 67, 64
2, 3300, Note_on_c, 0, 69, 107
2, 3348, Note_off_c, 0, 69, 64
2, 3360, Note_on_c, 0, 72, 107
2, 3408, Note_off_c, 0, 72, 64
2, 3420, Note_on_c, 0, 66, 107
2, 3468, Note_off_c, 0, 66, 64
2, 3480, Note_on_c, 0, 69, 107
2, 3516, Note_off_c, 0, 60, 64
2, 3528, Note_off_c, 0, 69, 64
2, 3540, Note_on_c, 0, 57, 107
2, 3540, Note_on_c, 0, 72, 107
2, 3588, Note_off_c, 0, 72, 64
2, 3600, Note_on_c, 0, 74, 107
2, 3636, Note_off_c, 0, 57, 64
2, 3648, Note_off_c, 0, 74, 64
2, 3660, Note_on_c, 0, 67, 107
2, 3660, Note_on_c, 0, 58, 107
2, 3708, Note_off_c, 0, 67, 64
2, 3720, Note_on_c, 0, 70, 107
2, 3756, Note_off_c, 0, 58, 64
2, 3768, Note_off_c, 0, 70, 64
2, 3780, Note_on_c, 0, 74, 107
2, 3780, Note_on_c, 0, 55, 107
2, 3828, Note_off_c, 0, 74, 64
2, 3840, Note_on_c, 0, 75, 107
2, 3876, Note_off_c, 0, 55, 64
2, 3888, Note_off_c, 0, 75, 64
2, 3900, Note_on_c, 0, 69, 107
2, 3948, Note_off_c, 0, 69, 64
2, 3960, Note_on_c, 0, 72, 107
2, 4008, Note_off_c, 0, 72, 64
2, 4020, Note_on_c, 0, 74, 107
2, 4068, Note_off_c, 0, 74, 64
2, 4080, Note_on_c, 0, 78, 107
2, 4128, Note_off_c, 0, 78, 64
2, 4140, Note_on_c, 0, 70, 107
2, 4188, Note_off_c, 0, 70, 64
2, 4200, Note_on_c, 0, 74, 107
2, 4248, Note_off_c, 0, 74, 64
2, 4260, Note_on_c, 0, 78, 107
2, 4308, Note_off_c, 0, 78, 64
2, 4320, Note_on_c, 0, 79, 107
2, 4368, Note_off_c, 0, 79, 64
2, 4380, Note_on_c, 0, 81, 107
2, 4428, Note_off_c, 0, 81, 64
2, 4440, Note_on_c, 0, 79, 107
2, 4488, Note_off_c, 0, 79, 64
2, 4500, Note_on_c, 0, 78, 107
2, 4548, Note_off_c, 0, 78, 64
2, 4560, Note_on_c, 0, 76, 107
2, 4608, Note_off_c, 0, 76, 64
2, 4620, Note_on_c, 0, 74, 107
2, 4668, Note_off_c, 0, 74, 64
2, 4680, Note_on_c, 0, 75, 107
2, 4728, Note_off_c, 0, 75, 64
2, 4740, Note_on_c, 0, 75, 107
2, 4752, Note_off_c, 0, 75, 64
2, 4755, Note_on_c, 0, 77, 107
2, 4767, Note_off_c, 0, 77, 64
2, 4770, Note_on_c, 0, 75, 107
2, 4794, Note_off_c, 0, 75, 64
2, 4800, Note_on_c, 0, 74, 107
2, 4824, Note_off_c, 0, 74, 64
2, 4830, Note_on_c, 0, 75, 107
2, 4854, Note_off_c, 0, 75, 64
2, 4860, Note_on_c, 0, 77, 107
2, 4860, Note_on_c, 0, 74, 107
2, 4860, Note_on_c, 0, 71, 107
2, 5052, Note_off_c, 0, 74, 64
2, 5148, Note_off_c, 0, 71, 64
2, 5160, Note_on_c, 0, 72, 107
2, 5208, Note_off_c, 0, 72, 64
2, 5220, Note_on_c, 0, 72, 107
2, 5232, Note_off_c, 0, 72, 64
2, 5235, Note_on_c, 0, 74, 107
2, 5244, Note_off_c, 0, 77, 64
2, 5247, Note_off_c, 0, 74, 64
2, 5250, Note_on_c, 0, 72, 107
2, 5274, Note_off_c, 0, 72, 64
2, 5280, Note_on_c, 0, 71, 107
2, 5304, Note_off_c, 0, 71, 64
2, 5310, Note_on_c, 0, 72, 107
2, 5339, Note_off_c, 0, 72, 64
2, 5340, Note_on_c, 0, 74, 107
2, 5388, Note_off_c, 0, 74, 64
2, 5400, Note_on_c, 0, 75, 107
2, 5448, Note_off_c, 0, 75, 64
2, 5460, Note_on_c, 0, 75, 107
2, 5472, Note_off_c, 0, 75, 64
2, 5475, Note_on_c, 0, 77, 107
2, 5487, Note_off_c, 0, 77, 64
2, 5490, Note_on_c, 0, 75, 107
2, 5514, Note_off_c, 0, 75, 64
2, 5520, Note_on_c, 0, 74, 107
2, 5544, Note_off_c, 0, 74, 64
2, 5550, Note_on_c, 0, 75, 107
2, 5574, Note_off_c, 0, 75, 64
2, 5580, Note_on_c, 0, 77, 107
2, 5628, Note_off_c, 0, 77, 64
2, 5640, Note_on_c, 0, 80, 107
2, 5688, Note_off_c, 0, 80, 64
2, 5700, Note_on_c, 0, 79, 107
2, 5748, Note_off_c, 0, 79, 64
2, 5760, Note_on_c, 0, 77, 107
2, 5808, Note_off_c, 0, 77, 64
2, 5820, Note_on_c, 0, 75, 107
2, 5868, Note_off_c, 0, 75, 64
2, 5880, Note_on_c, 0, 72, 107
2, 5928, Note_off_c, 0, 72, 64
2, 5940, Note_on_c, 0, 75, 107
2, 5988, Note_off_c, 0, 75, 64
2, 6000, Note_on_c, 0, 79, 107
2, 6048, Note_off_c, 0, 79, 64
2, 6060, Note_on_c, 0, 84, 107
2, 6108, Note_off_c, 0, 84, 64
2, 6120, Note_on_c, 0, 82, 107
2, 6168, Note_off_c, 0, 82, 64
2, 6180, Note_on_c, 0, 81, 107
2, 6228, Note_off_c, 0, 81, 64
2, 6240, Note_on_c, 0, 79, 107
2, 6288, Note_off_c, 0, 79, 64
2, 6300, Note_on_c, 0, 78, 107
2, 6348, Note_off_c, 0, 78, 64
2, 6360, Note_on_c, 0, 79, 107
2, 6408, Note_off_c, 0, 79, 64
2, 6420, Note_on_c, 0, 81, 107
2, 6468, Note_off_c, 0, 81, 64
2, 6480, Note_on_c, 0, 75, 107
2, 6528, Note_off_c, 0, 75, 64
2, 6540, Note_on_c, 0, 74, 107
2, 6588, Note_off_c, 0, 74, 64
2, 6600, Note_on_c, 0, 72, 107
2, 6648, Note_off_c, 0, 72, 64
2, 6660, Note_on_c, 0, 70, 107
2, 6708, Note_off_c, 0, 70, 64
2, 6720, Note_on_c, 0, 69, 107
2, 6768, Note_off_c, 0, 69, 64
2, 6780, Note_on_c, 0, 70, 107
2, 7164, Note_off_c, 0, 70, 64
2, 7260, Note_on_c, 0, 69, 107
2, 7788, Note_off_c, 0, 69, 64
2, 7800, Note_on_c, 0, 62, 107
2, 7848, Note_off_c, 0, 62, 64
2, 7860, Note_on_c, 0, 65, 107
2, 7908, Note_off_c, 0, 65, 64
2, 7920, Note_on_c, 0, 69, 107
2, 7968, Note_off_c, 0, 69, 64
2, 7980, Note_on_c, 0, 74, 107
2, 8028, Note_off_c, 0, 74, 64
2, 8040, Note_on_c, 0, 77, 107
2, 8088, Note_off_c, 0, 77, 64
2, 8100, Note_on_c, 0, 76, 107
2, 8148, Note_off_c, 0, 76, 64
2, 8160, Note_on_c, 0, 74, 107
2, 8208, Note_off_c, 0, 74, 64
2, 8220, Note_on_c, 0, 73, 107
2, 8268, Note_off_c, 0, 73, 64
2, 8280, Note_on_c, 0, 74, 107
2, 8328, Note_off_c, 0, 74, 64
2, 8340, Note_on_c, 0, 76, 107
2, 8388, Note_off_c, 0, 76, 64
2, 8400, Note_on_c, 0, 70, 107
2, 8448, Note_off_c, 0, 70, 64
2, 8460, Note_on_c, 0, 69, 107
2, 8508, Note_off_c, 0, 69, 64
2, 8520, Note_on_c, 0, 67, 107
2, 8568, Note_off_c, 0, 67, 64
2, 8580, Note_on_c, 0, 65, 107
2, 8628, Note_off_c, 0, 65, 64
2, 8640, Note_on_c, 0, 64, 107
2, 8688, Note_off_c, 0, 64, 64
2, 8700, Note_on_c, 0, 66, 107
2, 8748, Note_off_c, 0, 66, 64
2, 8760, Note_on_c, 0, 67, 107
2, 8808, Note_off_c, 0, 67, 64
2, 8820, Note_on_c, 0, 69, 107
2, 8868, Note_off_c, 0, 69, 64
2, 8880, Note_on_c, 0, 63, 107
2, 8928, Note_off_c, 0, 63, 64
2, 8940, Note_on_c, 0, 62, 107
2, 8988, Note_off_c, 0, 62, 64
2, 9000, Note_on_c, 0, 60, 107
2, 9048, Note_off_c, 0, 60, 64
2, 9060, Note_on_c, 0, 58, 107
2, 9108, Note_off_c, 0, 58, 64
2, 9120, Note_on_c, 0, 57, 107
2, 9168, Note_off_c, 0, 57, 64
2, 10020, Note_on_c, 0, 73, 105
2, 10133, Note_off_c, 0, 73, 64
2, 10140, Note_on_c, 0, 74, 107
2, 10140, Note_on_c, 0, 74, 107
2, 10197, Note_off_c, 0, 74, 64
2, 10200, Note_on_c, 0, 76, 107
2, 10257, Note_off_c, 0, 76, 64
2, 10260, Note_on_c, 0, 77, 107
2, 10317, Note_off_c, 0, 77, 64
2, 10320, Note_on_c, 0, 82, 107
2, 10332, Note_off_c, 0, 74, 64
2, 10377, Note_off_c, 0, 82, 64
2, 10380, Note_on_c, 0, 77, 105
2, 10380, Note_on_c, 0, 72, 107
2, 10392, Note_off_c, 0, 77, 64
2, 10395, Note_on_c, 0, 76, 105
2, 10407, Note_off_c, 0, 76, 64
2, 10410, Note_on_c, 0, 77, 105
2, 10422, Note_off_c, 0, 77, 64
2, 10425, Note_on_c, 0, 76, 105
2, 10437, Note_off_c, 0, 76, 64
2, 10440, Note_on_c, 0, 77, 105
2, 10452, Note_off_c, 0, 77, 64
2, 10455, Note_on_c, 0, 76, 105
2, 10467, Note_off_c, 0, 76, 64
2, 10470, Note_on_c, 0, 77, 105
2, 10482, Note_off_c, 0, 77, 64
2, 10485, Note_on_c, 0, 76, 105
2, 10557, Note_off_c, 0, 76, 64
2, 10560, Note_on_c, 0, 74, 105
2, 10572, Note_off_c, 0, 72, 64
2, 10617, Note_off_c, 0, 74, 64
2, 10620, Note_on_c, 0, 74, 107
2, 10680, Note_on_c, 0, 72, 107
2, 10728, Note_off_c, 0, 72, 64
2, 10740, Note_on_c, 0, 70, 107
2, 10788, Note_off_c, 0, 70, 64
2, 10800, Note_on_c, 0, 69, 107
2, 10848, Note_off_c, 0, 69, 64
2, 10860, Note_on_c, 0, 67, 107
2, 10860, Note_on_c, 0, 67, 107
2, 10908, Note_off_c, 0, 67, 64
2, 10920, Note_on_c, 0, 69, 107
2, 10968, Note_off_c, 0, 69, 64
2, 10980, Note_on_c, 0, 70, 107
2, 11052, Note_off_c, 0, 67, 64
2, 11076, Note_off_c, 0, 70, 64
2, 11100, Note_on_c, 0, 69, 107
2, 11100, Note_on_c, 0, 66, 107
2, 11388, Note_off_c, 0, 74, 64
2, 11388, Note_off_c, 0, 66, 64
2, 11388, Note_off_c, 0, 69, 64
2, 11580, Note_on_c, 0, 70, 107
2, 11628, Note_off_c, 0, 70, 64
2, 11640, Note_on_c, 0, 70, 107
2, 11640, Note_on_c, 0, 67, 107
2, 11832, Note_off_c, 0, 67, 64
2, 11928, Note_off_c, 0, 70, 64
2, 11940, Note_on_c, 0, 79, 107
2, 11988, Note_off_c, 0, 79, 64
2, 12000, Note_on_c, 0, 78, 107
2, 12048, Note_off_c, 0, 78, 64
2, 12060, Note_on_c, 0, 79, 107
2, 12108, Note_off_c, 0, 79, 64
2, 12120, Note_on_c, 0, 69, 107
2, 12120, Note_on_c, 0, 72, 107
2, 12312, Note_off_c, 0, 69, 64
2, 12408, Note_off_c, 0, 72, 64
2, 12420, Note_on_c, 0, 81, 107
2, 12468, Note_off_c, 0, 81, 64
2, 12480, Note_on_c, 0, 79, 107
2, 12528, Note_off_c, 0, 79, 64
2, 12540, Note_on_c, 0, 81, 107
2, 12588, Note_off_c, 0, 81, 64
2, 12600, Note_on_c, 0, 74, 107
2, 12648, Note_off_c, 0, 74, 64
2, 12660, Note_on_c, 0, 70, 107
2, 12708, Note_off_c, 0, 70, 64
2, 12720, Note_on_c, 0, 74, 107
2, 12768, Note_off_c, 0, 74, 64
2, 12780, Note_on_c, 0, 77, 107
2, 12828, Note_off_c, 0, 77, 64
2, 12840, Note_on_c, 0, 79, 107
2, 12888, Note_off_c, 0, 79, 64
2, 12900, Note_on_c, 0, 82, 107
2, 12948, Note_off_c, 0, 82, 64
2, 12960, Note_on_c, 0, 81, 107
2, 13008, Note_off_c, 0, 81, 64
2, 13020, Note_on_c, 0, 79, 107
2, 13068, Note_off_c, 0, 79, 64
2, 13080, Note_on_c, 0, 78, 107
2, 13128, Note_off_c, 0, 78, 64
2, 13140, Note_on_c, 0, 79, 107
2, 13188, Note_off_c, 0, 79, 64
2, 13200, Note_on_c, 0, 81, 107
2, 13248, Note_off_c, 0, 81, 64
2, 13260, Note_on_c, 0, 75, 107
2, 13308, Note_off_c, 0, 75, 64
2, 13320, Note_on_c, 0, 74, 107
2, 13368, Note_off_c, 0, 74, 64
2, 13380, Note_on_c, 0, 72, 107
2, 13428, Note_off_c, 0, 72, 64
2, 13440, Note_on_c, 0, 70, 107
2, 13488, Note_off_c, 0, 70, 64
2, 13500, Note_on_c, 0, 69, 107
2, 13548, Note_off_c, 0, 69, 64
2, 13560, Note_on_c, 0, 70, 107
2, 13620, Note_on_c, 0, 67, 107
2, 13668, Note_off_c, 0, 67, 64
2, 13680, Note_on_c, 0, 65, 107
2, 13728, Note_off_c, 0, 65, 64
2, 13740, Note_on_c, 0, 62, 107
2, 13788, Note_off_c, 0, 62, 64
2, 13800, Note_on_c, 0, 63, 107
2, 13848, Note_off_c, 0, 70, 64
2, 13860, Note_on_c, 0, 70, 107
2, 13908, Note_off_c, 0, 70, 64
2, 13920, Note_on_c, 0, 72, 107
2, 13968, Note_off_c, 0, 72, 64
2, 13980, Note_on_c, 0, 75, 107
2, 14028, Note_off_c, 0, 75, 64
2, 14040, Note_on_c, 0, 69, 107
2, 14088, Note_off_c, 0, 63, 64
2, 14100, Note_on_c, 0, 65, 107
2, 14148, Note_off_c, 0, 65, 64
2, 14160, Note_on_c, 0, 63, 107
2, 14208, Note_off_c, 0, 63, 64
2, 14220, Note_on_c, 0, 60, 107
2, 14268, Note_off_c, 0, 60, 64
2, 14280, Note_on_c, 0, 62, 107
2, 14328, Note_off_c, 0, 69, 64
2, 14340, Note_on_c, 0, 69, 107
2, 14388, Note_off_c, 0, 69, 64
2, 14400, Note_on_c, 0, 70, 107
2, 14448, Note_off_c, 0, 70, 64
2, 14460, Note_on_c, 0, 74, 107
2, 14508, Note_off_c, 0, 74, 64
2, 14520, Note_on_c, 0, 67, 107
2, 14568, Note_off_c, 0, 62, 64
2, 14580, Note_on_c, 0, 63, 107
2, 14628, Note_off_c, 0, 63, 64
2, 14640, Note_on_c, 0, 62, 107
2, 14688, Note_off_c, 0, 62, 64
2, 14700, Note_on_c, 0, 58, 107
2, 14748, Note_off_c, 0, 58, 64
2, 14760, Note_on_c, 0, 60, 107
2, 14808, Note_off_c, 0, 67, 64
2, 14820, Note_on_c, 0, 67, 107
2, 14868, Note_off_c, 0, 67, 64
2, 14880, Note_on_c, 0, 69, 107
2, 14928, Note_off_c, 0, 69, 64
2, 14940, Note_on_c, 0, 72, 107
2, 14988, Note_off_c, 0, 72, 64
2, 15000, Note_on_c, 0, 66, 107
2, 15048, Note_off_c, 0, 66, 64
2, 15060, Note_on_c, 0, 69, 107
2, 15096, Note_off_c, 0, 60, 64
2, 15108, Note_off_c, 0, 69, 64
2, 15120, Note_on_c, 0, 57, 107
2, 15120, Note_on_c, 0, 72, 107
2, 15168, Note_off_c, 0, 72, 64
2, 15180, Note_on_c, 0, 74, 107
2, 15216, Note_off_c, 0, 57, 64
2, 15228, Note_off_c, 0, 74, 64
2, 15240, Note_on_c, 0, 67, 107
2, 15240, Note_on_c, 0, 58, 107
2, 15288, Note_off_c, 0, 67, 64
2, 15300, Note_on_c, 0, 70, 107
2, 15336, Note_off_c, 0, 58, 64
2, 15348, Note_off_c, 0, 70, 64
2, 15360, Note_on_c, 0, 74, 107
2, 15360, Note_on_c, 0, 55, 107
2, 15408, Note_off_c, 0, 74, 64
2, 15420, Note_on_c, 0, 75, 107
2, 15456, Note_off_c, 0, 55, 64
2, 15468, Note_off_c, 0, 75, 64
2, 15480, Note_on_c, 0, 69, 107
2, 15528, Note_off_c, 0, 69, 64
2, 15540, Note_on_c, 0, 72, 107
2, 15588, Note_off_c, 0, 72, 64
2, 15600, Note_on_c, 0, 74, 107
2, 15648, Note_off_c, 0, 74, 64
2, 15660, Note_on_c, 0, 78, 107
2, 15708, Note_off_c, 0, 78, 64
2, 15720, Note_on_c, 0, 70, 107
2, 15768, Note_off_c, 0, 70, 64
2, 15780, Note_on_c, 0, 74, 107
2, 15828, Note_off_c, 0, 74, 64
2, 15840, Note_on_c, 0, 78, 107
2, 15888, Note_off_c, 0, 78, 64
2, 15900, Note_on_c, 0, 79, 107
2, 15948, Note_off_c, 0, 79, 64
2, 15960, Note_on_c, 0, 81, 107
2, 16008, Note_off_c, 0, 81, 64
2, 16020, Note_on_c, 0, 79, 107
2, 16068, Note_off_c, 0, 79, 64
2, 16080, Note_on_c, 0, 78, 107
2, 16128, Note_off_c, 0, 78, 64
2, 16140, Note_on_c, 0, 76, 107
2, 16188, Note_off_c, 0, 76, 64
2, 16200, Note_on_c, 0, 74, 107
2, 16248, Note_off_c, 0, 74, 64
2, 16260, Note_on_c, 0, 75, 107
2, 16308, Note_off_c, 0, 75, 64
2, 16320, Note_on_c, 0, 75, 107
2, 16332, Note_off_c, 0, 75, 64
2, 16335, Note_on_c, 0, 77, 107
2, 16347, Note_off_c, 0, 77, 64
2, 16350, Note_on_c, 0, 75, 107
2, 16374, Note_off_c, 0, 75, 64
2, 16380, Note_on_c, 0, 74, 107
2, 16404, Note_off_c, 0, 74, 64
2, 16410, Note_on_c, 0, 75, 107
2, 16434, Note_off_c, 0, 75, 64
2, 16440, Note_on_c, 0, 77, 107
2, 16440, Note_on_c, 0, 74, 107
2, 16440, Note_on_c, 0, 71, 107
2, 16632, Note_off_c, 0, 74, 64
2, 16728, Note_off_c, 0, 71, 64
2, 16740, Note_on_c, 0, 72, 107
2, 16788, Note_off_c, 0, 72, 64
2, 16800, Note_on_c, 0, 72, 107
2, 16812, Note_off_c, 0, 72, 64
2, 16815, Note_on_c, 0, 74, 107
2, 16824, Note_off_c, 0, 77, 64
2, 16827, Note_off_c, 0, 74, 64
2, 16830, Note_on_c, 0, 72, 107
2, 16854, Note_off_c, 0, 72, 64
2, 16860, Note_on_c, 0, 71, 107
2, 16884, Note_off_c, 0, 71, 64
2, 16890, Note_on_c, 0, 72, 107
2, 16919, Note_off_c, 0, 72, 64
2, 16920, Note_on_c, 0, 74, 107
2, 16968, Note_off_c, 0, 74, 64
2, 16980, Note_on_c, 0, 75, 107
2, 17028, Note_off_c, 0, 75, 64
2, 17040, Note_on_c, 0, 75, 107
2, 17052, Note_off_c, 0, 75, 64
2, 17055, Note_on_c, 0, 77, 107
2, 17067, Note_off_c, 0, 77, 64
2, 17070, Note_on_c, 0, 75, 107
2, 17094, Note_off_c, 0, 75, 64
2, 17100, Note_on_c, 0, 74, 107
2, 17124, Note_off_c, 0, 74, 64
2, 17130, Note_on_c, 0, 75, 107
2, 17154, Note_off_c, 0, 75, 64
2, 17160, Note_on_c, 0, 77, 107
2, 17208, Note_off_c, 0, 77, 64
2, 17220, Note_on_c, 0, 80, 107
2, 17268, Note_off_c, 0, 80, 64
2, 17280, Note_on_c, 0, 79, 107
2, 17328, Note_off_c, 0, 79, 64
2, 17340, Note_on_c, 0, 77, 107
2, 17388, Note_off_c, 0, 77, 64
2, 17400, Note_on_c, 0, 75, 107
2, 17448, Note_off_c, 0, 75, 64
2, 17460, Note_on_c, 0, 72, 107
2, 17508, Note_off_c, 0, 72, 64
2, 17520, Note_on_c, 0, 75, 107
2, 17568, Note_off_c, 0, 75, 64
2, 17580, Note_on_c, 0, 79, 107
2, 17628, Note_off_c, 0, 79, 64
2, 17640, Note_on_c, 0, 84, 107
2, 17688, Note_off_c, 0, 84, 64
2, 17700, Note_on_c, 0, 82, 107
2, 17748, Note_off_c, 0, 82, 64
2, 17760, Note_on_c, 0, 81, 107
2, 17808, Note_off_c, 0, 81, 64
2, 17820, Note_on_c, 0, 79, 107
2, 17868, Note_off_c, 0, 79, 64
2, 17880, Note_on_c, 0, 78, 107
2, 17928, Note_off_c, 0, 78, 64
2, 17940, Note_on_c, 0, 79, 107
2, 17988, Note_off_c, 0, 79, 64
2, 18000, Note_on_c, 0, 81, 107
2, 18048, Note_off_c, 0, 81, 64
2, 18060, Note_on_c, 0, 75, 107
2, 18108, Note_off_c, 0, 75, 64
2, 18120, Note_on_c, 0, 74, 107
2, 18168, Note_off_c, 0, 74, 64
2, 18180, Note_on_c, 0, 72, 107
2, 18228, Note_off_c, 0, 72, 64
2, 18240, Note_on_c, 0, 70, 107
2, 18288, Note_off_c, 0, 70, 64
2, 18300, Note_on_c, 0, 69, 107
2, 18348, Note_off_c, 0, 69, 64
2, 18360, Note_on_c, 0, 70, 107
2, 18744, Note_off_c, 0, 70, 64
2, 18840, Note_on_c, 0, 69, 107
2, 19368, Note_off_c, 0, 69, 64
2, 19380, Note_on_c, 0, 62, 107
2, 19428, Note_off_c, 0, 62, 64
2, 19440, Note_on_c, 0, 65, 107
2, 19488, Note_off_c, 0, 65, 64
2, 19500, Note_on_c, 0, 69, 107
2, 19548, Note_off_c, 0, 69, 64
2, 19560, Note_on_c, 0, 74, 107
2, 19608, Note_off_c, 0, 74, 64
2, 19620, Note_on_c, 0, 77, 107
2, 19668, Note_off_c, 0, 77, 64
2, 19680, Note_on_c, 0, 76, 107
2, 19728, Note_off_c, 0, 76, 64
2, 19740, Note_on_c, 0, 74, 107
2, 19788, Note_off_c, 0, 74, 64
2, 19800, Note_on_c, 0, 73, 107
2, 19848, Note_off_c, 0, 73, 64
2, 19860, Note_on_c, 0, 74, 107
2, 19908, Note_off_c, 0, 74, 64
2, 19920, Note_on_c, 0, 76, 107
2, 19968, Note_off_c, 0, 76, 64
2, 19980, Note_on_c, 0, 70, 107
2, 20028, Note_off_c, 0, 70, 64
2, 20040, Note_on_c, 0, 69, 107
2, 20088, Note_off_c, 0, 69, 64
2, 20100, Note_on_c, 0, 67, 107
2, 20148, Note_off_c, 0, 67, 64
2, 20160, Note_on_c, 0, 65, 107
2, 20208, Note_off_c, 0, 65, 64
2, 20220, Note_on_c, 0, 64, 107
2, 20268, Note_off_c, 0, 64, 64
2, 20280, Note_on_c, 0, 66, 107
2, 20328, Note_off_c, 0, 66, 64
2, 20340, Note_on_c, 0, 67, 107
2, 20388, Note_off_c, 0, 67, 64
2, 20400, Note_on_c, 0, 69, 107
2, 20448, Note_off_c, 0, 69, 64
2, 20460, Note_on_c, 0, 63, 107
2, 20508, Note_off_c, 0, 63, 64
2, 20520, Note_on_c, 0, 62, 107
2, 20568, Note_off_c, 0, 62, 64
2, 20580, Note_on_c, 0, 60, 107
2, 20628, Note_off_c, 0, 60, 64
2, 20640, Note_on_c, 0, 58, 107
2, 20688, Note_off_c, 0, 58, 64
2, 20700, Note_on_c, 0, 57, 107
2, 20748, Note_off_c, 0, 57, 64
2, 21600, Note_on_c, 0, 73, 105
2, 21713, Note_off_c, 0, 73, 64
2, 21720, Note_on_c, 0, 74, 107
2, 21720, Note_on_c, 0, 74, 107
2, 21777, Note_off_c, 0, 74, 64
2, 21780, Note_on_c, 0, 76, 107
2, 21837, Note_off_c, 0, 76, 64
2, 21840, Note_on_c, 0, 77, 107
2, 21897, Note_off_c, 0, 77, 64
2, 21900, Note_on_c, 0, 82, 107
2, 21912, Note_off_c, 0, 74, 64
2, 21957, Note_off_c, 0, 82, 64
2, 21960, Note_on_c, 0, 77, 105
2, 21960, Note_on_c, 0, 72, 107
2, 21972, Note_off_c, 0, 77, 64
2, 21975, Note_on_c, 0, 76, 105
2, 21987, Note_off_c, 0, 76, 64
2, 21990, Note_on_c, 0, 77, 105
2, 22002, Note_off_c, 0, 77, 64
2, 22005, Note_on_c, 0, 76, 105
2, 22017, Note_off_c, 0, 76, 64
2, 22020, Note_on_c, 0, 77, 105
2, 22032, Note_off_c, 0, 77, 64
2, 22035, Note_on_c, 0, 76, 105
2, 22047, Note_off_c, 0, 76, 64
2, 22050, Note_on_c, 0, 77, 105
2, 22062, Note_off_c, 0, 77, 64
2, 22065, Note_on_c, 0, 76, 105
2, 22137, Note_off_c, 0, 76, 64
2, 22140, Note_on_c, 0, 74, 105
2, 22152, Note_off_c, 0, 72, 64
2, 22197, Note_off_c, 0, 74, 64
2, 22200, Note_on_c, 0, 74, 107
2, 22260, Note_on_c, 0, 72, 107
2, 22308, Note_off_c, 0, 72, 64
2, 22320, Note_on_c, 0, 70, 107
2, 22368, Note_off_c, 0, 70, 64
2, 22380, Note_on_c, 0, 69, 107
2, 22428, Note_off_c, 0, 69, 64
2, 22440, Note_on_c, 0, 67, 107
2, 22440, Note_on_c, 0, 67, 107
2, 22488, Note_off_c, 0, 67, 64
2, 22500, Note_on_c, 0, 69, 107
2, 22548, Note_off_c, 0, 69, 64
2, 22560, Note_on_c, 0, 70, 107
2, 22632, Note_off_c, 0, 67, 64
2, 22656, Note_off_c, 0, 70, 64
2, 22680, Note_on_c, 0, 69, 107
2, 22680, Note_on_c, 0, 66, 107
2, 22968, Note_off_c, 0, 74, 64
2, 22968, Note_off_c, 0, 66, 64
2, 22968, Note_off_c, 0, 69, 64
2, 23160, Note_on_c, 0, 69, 107
2, 23208, Note_off_c, 0, 69, 64
2, 23220, Note_on_c, 0, 69, 107
2, 23268, Note_off_c, 0, 69, 64
2, 23280, Note_on_c, 0, 81, 107
2, 23328, Note_off_c, 0, 81, 64
2, 23340, Note_on_c, 0, 78, 107
2, 23388, Note_off_c, 0, 78, 64
2, 23400, Note_on_c, 0, 74, 107
2, 23448, Note_off_c, 0, 74, 64
2, 23460, Note_on_c, 0, 69, 107
2, 23508, Note_off_c, 0, 69, 64
2, 23520, Note_on_c, 0, 66, 107
2, 23568, Note_off_c, 0, 66, 64
2, 23580, Note_on_c, 0, 67, 107
2, 23628, Note_off_c, 0, 67, 64
2, 23640, Note_on_c, 0, 69, 107
2, 23688, Note_off_c, 0, 69, 64
2, 23700, Note_on_c, 0, 71, 107
2, 23748, Note_off_c, 0, 71, 64
2, 23760, Note_on_c, 0, 69, 107
2, 23808, Note_off_c, 0, 69, 64
2, 23820, Note_on_c, 0, 67, 107
2, 23868, Note_off_c, 0, 67, 64
2, 23880, Note_on_c, 0, 72, 107
2, 23928, Note_off_c, 0, 72, 64
2, 23940, Note_on_c, 0, 74, 107
2, 23988, Note_off_c, 0, 74, 64
2, 24000, Note_on_c, 0, 75, 107
2, 24048, Note_off_c, 0, 75, 64
2, 24060, Note_on_c, 0, 77, 107
2, 24108, Note_off_c, 0, 77, 64
2, 24120, Note_on_c, 0, 79, 107
2, 24168, Note_off_c, 0, 79, 64
2, 24180, Note_on_c, 0, 75, 107
2, 24192, Note_off_c, 0, 75, 64
2, 24195, Note_on_c, 0, 77, 107
2, 24207, Note_off_c, 0, 77, 64
2, 24210, Note_on_c, 0, 75, 107
2, 24282, Note_off_c, 0, 75, 64
2, 24300, Note_on_c, 0, 74, 107
2, 24348, Note_off_c, 0, 74, 64
2, 24360, Note_on_c, 0, 72, 107
2, 24408, Note_off_c, 0, 72, 64
2, 24420, Note_on_c, 0, 79, 107
2, 24432, Note_off_c, 0, 79, 64
2, 24435, Note_on_c, 0, 78, 107
2, 24447, Note_off_c, 0, 78, 64
2, 24450, Note_on_c, 0, 79, 107
2, 24576, Note_off_c, 0, 79, 64
2, 24600, Note_on_c, 0, 79, 107
2, 24648, Note_off_c, 0, 79, 64
2, 24660, Note_on_c, 0, 79, 107
2, 24708, Note_off_c, 0, 79, 64
2, 24720, Note_on_c, 0, 70, 107
2, 24768, Note_off_c, 0, 70, 64
2, 24780, Note_on_c, 0, 69, 107
2, 24828, Note_off_c, 0, 69, 64
2, 24840, Note_on_c, 0, 72, 107
2, 24888, Note_off_c, 0, 72, 64
2, 24900, Note_on_c, 0, 70, 107
2, 24948, Note_off_c, 0, 70, 64
2, 24960, Note_on_c, 0, 69, 107
2, 25008, Note_off_c, 0, 69, 64
2, 25020, Note_on_c, 0, 67, 107
2, 25068, Note_off_c, 0, 67, 64
2, 25080, Note_on_c, 0, 76, 107
2, 25128, Note_off_c, 0, 76, 64
2, 25140, Note_on_c, 0, 77, 107
2, 25284, Note_off_c, 0, 77, 64
2, 25320, Note_on_c, 0, 75, 107
2, 25368, Note_off_c, 0, 75, 64
2, 25380, Note_on_c, 0, 74, 107
2, 25428, Note_off_c, 0, 74, 64
2, 25440, Note_on_c, 0, 72, 107
2, 25488, Note_off_c, 0, 72, 64
2, 25500, Note_on_c, 0, 70, 107
2, 25548, Note_off_c, 0, 70, 64
2, 25560, Note_on_c, 0, 69, 107
2, 25608, Note_off_c, 0, 69, 64
2, 25620, Note_on_c, 0, 67, 107
2, 25668, Note_off_c, 0, 67, 64
2, 25680, Note_on_c, 0, 65, 107
2, 25728, Note_off_c, 0, 65, 64
2, 25740, Note_on_c, 0, 67, 107
2, 25788, Note_off_c, 0, 67, 64
2, 25800, Note_on_c, 0, 70, 107
2, 25848, Note_off_c, 0, 70, 64
2, 25860, Note_on_c, 0, 72, 107
2, 25908, Note_off_c, 0, 72, 64
2, 25920, Note_on_c, 0, 74, 107
2, 25968, Note_off_c, 0, 74, 64
2, 25980, Note_on_c, 0, 75, 107
2, 26028, Note_off_c, 0, 75, 64
2, 26040, Note_on_c, 0, 72, 107
2, 26088, Note_off_c, 0, 72, 64
2, 26100, Note_on_c, 0, 70, 107
2, 26148, Note_off_c, 0, 70, 64
2, 26160, Note_on_c, 0, 69, 107
2, 26208, Note_off_c, 0, 69, 64
2, 26220, Note_on_c, 0, 67, 107
2, 26268, Note_off_c, 0, 67, 64
2, 26280, Note_on_c, 0, 65, 107
2, 26328, Note_off_c, 0, 65, 64
2, 26340, Note_on_c, 0, 77, 107
2, 26484, Note_off_c, 0, 77, 64
2, 26520, Note_on_c, 0, 69, 107
2, 26568, Note_off_c, 0, 69, 64
2, 26580, Note_on_c, 0, 70, 107
2, 26628, Note_off_c, 0, 70, 64
2, 26640, Note_on_c, 0, 75, 107
2, 26688, Note_off_c, 0, 75, 64
2, 26700, Note_on_c, 0, 74, 107
2, 26748, Note_off_c, 0, 74, 64
2, 26760, Note_on_c, 0, 72, 107
2, 26808, Note_off_c, 0, 72, 64
2, 26820, Note_on_c, 0, 74, 107
2, 26820, Note_on_c, 0, 69, 110
2, 26832, Note_off_c, 0, 74, 64
2, 26835, Note_on_c, 0, 72, 107
2, 26847, Note_off_c, 0, 72, 64
2, 26850, Note_on_c, 0, 74, 107
2, 26865, Note_off_c, 0, 74, 64
2, 26865, Note_on_c, 0, 72, 105
2, 26877, Note_off_c, 0, 72, 64
2, 26880, Note_on_c, 0, 74, 105
2, 26892, Note_off_c, 0, 74, 64
2, 26895, Note_on_c, 0, 72, 105
2, 26907, Note_off_c, 0, 72, 64
2, 26910, Note_on_c, 0, 74, 105
2, 26922, Note_off_c, 0, 74, 64
2, 26925, Note_on_c, 0, 72, 105
2, 26997, Note_off_c, 0, 72, 64
2, 27000, Note_on_c, 0, 70, 107
2, 27012, Note_off_c, 0, 69, 64
2, 27048, Note_off_c, 0, 70, 64
2, 27060, Note_on_c, 0, 70, 107
2, 27348, Note_off_c, 0, 70, 64
2, 27360, Note_on_c, 0, 74, 107
2, 27408, Note_off_c, 0, 74, 64
2, 27420, Note_on_c, 0, 72, 107
2, 27468, Note_off_c, 0, 72, 64
2, 27480, Note_on_c, 0, 74, 107
2, 27528, Note_off_c, 0, 74, 64
2, 27540, Note_on_c, 0, 63, 107
2, 27588, Note_off_c, 0, 63, 64
2, 27600, Note_on_c, 0, 62, 107
2, 27648, Note_off_c, 0, 62, 64
2, 27660, Note_on_c, 0, 60, 107
2, 27828, Note_off_c, 0, 60, 64
2, 27840, Note_on_c, 0, 69, 107
2, 27888, Note_off_c, 0, 69, 64
2, 27900, Note_on_c, 0, 70, 107
2, 27948, Note_off_c, 0, 70, 64
2, 27960, Note_on_c, 0, 72, 107
2, 28008, Note_off_c, 0, 72, 64
2, 28020, Note_on_c, 0, 66, 107
2, 28068, Note_off_c, 0, 66, 64
2, 28080, Note_on_c, 0, 74, 107
2, 28128, Note_off_c, 0, 74, 64
2, 28140, Note_on_c, 0, 69, 107
2, 28188, Note_off_c, 0, 69, 64
2, 28200, Note_on_c, 0, 66, 107
2, 28248, Note_off_c, 0, 66, 64
2, 28260, Note_on_c, 0, 62, 107
2, 28308, Note_off_c, 0, 62, 64
2, 28320, Note_on_c, 0, 61, 107
2, 28368, Note_off_c, 0, 61, 64
2, 28380, Note_on_c, 0, 62, 107
2, 28428, Note_off_c, 0, 62, 64
2, 28440, Note_on_c, 0, 64, 107
2, 28488, Note_off_c, 0, 64, 64
2, 28500, Note_on_c, 0, 66, 107
2, 28548, Note_off_c, 0, 66, 64
2, 28560, Note_on_c, 0, 64, 107
2, 28608, Note_off_c, 0, 64, 64
2, 28620, Note_on_c, 0, 62, 107
2, 28668, Note_off_c, 0, 62, 64
2, 28680, Note_on_c, 0, 67, 107
2, 28728, Note_off_c, 0, 67, 64
2, 28740, Note_on_c, 0, 69, 107
2, 28788, Note_off_c, 0, 69, 64
2, 28800, Note_on_c, 0, 71, 107
2, 28848, Note_off_c, 0, 71, 64
2, 28860, Note_on_c, 0, 72, 107
2, 28908, Note_off_c, 0, 72, 64
2, 28920, Note_on_c, 0, 74, 107
2, 28968, Note_off_c, 0, 74, 64
2, 28980, Note_on_c, 0, 70, 107
2, 29028, Note_off_c, 0, 70, 64
2, 29040, Note_on_c, 0, 69, 107
2, 29088, Note_off_c, 0, 69, 64
2, 29100, Note_on_c, 0, 67, 107
2, 29148, Note_off_c, 0, 67, 64
2, 29160, Note_on_c, 0, 69, 107
2, 29208, Note_off_c, 0, 69, 64
2, 29220, Note_on_c, 0, 70, 107
2, 29268, Note_off_c, 0, 70, 64
2, 29280, Note_on_c, 0, 72, 107
2, 29328, Note_off_c, 0, 72, 64
2, 29340, Note_on_c, 0, 74, 107
2, 29388, Note_off_c, 0, 74, 64
2, 29400, Note_on_c, 0, 75, 107
2, 29448, Note_off_c, 0, 75, 64
2, 29460, Note_on_c, 0, 77, 107
2, 29556, Note_off_c, 0, 77, 64
2, 29580, Note_on_c, 0, 70, 107
2, 29676, Note_off_c, 0, 70, 64
2, 29700, Note_on_c, 0, 80, 107
2, 29712, Note_off_c, 0, 80, 64
2, 29715, Note_on_c, 0, 79, 107
2, 29727, Note_off_c, 0, 79, 64
2, 29730, Note_on_c, 0, 80, 107
2, 29856, Note_off_c, 0, 80, 64
2, 29880, Note_on_c, 0, 82, 107
2, 29928, Note_off_c, 0, 82, 64
2, 29940, Note_on_c, 0, 79, 107
2, 30000, Note_on_c, 0, 77, 107
2, 30048, Note_off_c, 0, 77, 64
2, 30060, Note_on_c, 0, 75, 107
2, 30108, Note_off_c, 0, 75, 64
2, 30120, Note_on_c, 0, 74, 107
2, 30168, Note_off_c, 0, 74, 64
2, 30180, Note_on_c, 0, 72, 107
2, 30228, Note_off_c, 0, 72, 64
2, 30240, Note_on_c, 0, 74, 107
2, 30288, Note_off_c, 0, 74, 64
2, 30300, Note_on_c, 0, 75, 107
2, 30324, Note_off_c, 0, 79, 64
2, 30348, Note_off_c, 0, 75, 64
2, 30360, Note_on_c, 0, 70, 107
2, 30408, Note_off_c, 0, 70, 64
2, 30420, Note_on_c, 0, 69, 107
2, 30420, Note_on_c, 0, 77, 107
2, 30612, Note_off_c, 0, 69, 64
2, 30660, Note_on_c, 0, 68, 107
2, 30708, Note_off_c, 0, 77, 64
2, 30720, Note_on_c, 0, 75, 107
2, 30768, Note_off_c, 0, 75, 64
2, 30780, Note_on_c, 0, 74, 107
2, 30828, Note_off_c, 0, 74, 64
2, 30840, Note_on_c, 0, 72, 107
2, 30888, Note_off_c, 0, 72, 64
2, 30900, Note_on_c, 0, 71, 107
2, 30948, Note_off_c, 0, 68, 64
2, 30960, Note_on_c, 0, 68, 107
2, 31008, Note_off_c, 0, 68, 64
2, 31020, Note_on_c, 0, 67, 107
2, 31092, Note_off_c, 0, 71, 64
2, 31116, Note_off_c, 0, 67, 64
2, 31140, Note_on_c, 0, 75, 107
2, 31140, Note_on_c, 0, 67, 107
2, 31152, Note_off_c, 0, 75, 64
2, 31155, Note_on_c, 0, 74, 107
2, 31167, Note_off_c, 0, 74, 64
2, 31170, Note_on_c, 0, 75, 107
2, 31296, Note_off_c, 0, 75, 64
2, 31320, Note_on_c, 0, 75, 107
2, 31332, Note_off_c, 0, 67, 64
2, 31368, Note_off_c, 0, 75, 64
2, 31380, Note_on_c, 0, 75, 107
2, 31380, Note_on_c, 0, 69, 107
2, 31428, Note_off_c, 0, 75, 64
2, 31440, Note_on_c, 0, 74, 107
2, 31476, Note_off_c, 0, 69, 64
2, 31488, Note_off_c, 0, 74, 64
2, 31500, Note_on_c, 0, 72, 107
2, 31548, Note_off_c, 0, 72, 64
2, 31560, Note_on_c, 0, 70, 107
2, 31608, Note_off_c, 0, 70, 64
2, 31620, Note_on_c, 0, 69, 107
2, 31668, Note_off_c, 0, 69, 64
2, 31680, Note_on_c, 0, 70, 107
2, 31728, Note_off_c, 0, 70, 64
2, 31740, Note_on_c, 0, 72, 107
2, 31788, Note_off_c, 0, 72, 64
2, 31800, Note_on_c, 0, 67, 107
2, 31848, Note_off_c, 0, 67, 64
2, 31860, Note_on_c, 0, 66, 107
2, 31908, Note_off_c, 0, 66, 64
2, 31920, Note_on_c, 0, 67, 107
2, 31968, Note_off_c, 0, 67, 64
2, 31980, Note_on_c, 0, 69, 107
2, 32076, Note_off_c, 0, 69, 64
2, 32100, Note_on_c, 0, 69, 107
2, 32112, Note_off_c, 0, 69, 64
2, 32115, Note_on_c, 0, 68, 107
2, 32127, Note_off_c, 0, 68, 64
2, 32130, Note_on_c, 0, 69, 107
2, 32256, Note_off_c, 0, 69, 64
2, 32280, Note_on_c, 0, 69, 107
2, 32328, Note_off_c, 0, 69, 64
2, 32340, Note_on_c, 0, 69, 107
2, 32388, Note_off_c, 0, 69, 64
2, 32400, Note_on_c, 0, 67, 107
2, 32448, Note_off_c, 0, 67, 64
2, 32460, Note_on_c, 0, 66, 107
2, 32508, Note_off_c, 0, 66, 64
2, 32520, Note_on_c, 0, 67, 107
2, 32568, Note_off_c, 0, 67, 64
2, 32580, Note_on_c, 0, 72, 107
2, 32640, Note_on_c, 0, 70, 107
2, 32688, Note_off_c, 0, 70, 64
2, 32700, Note_on_c, 0, 69, 107
2, 32724, Note_off_c, 0, 72, 64
2, 32748, Note_off_c, 0, 69, 64
2, 32760, Note_on_c, 0, 67, 107
2, 32760, Note_on_c, 0, 72, 107
2, 32808, Note_off_c, 0, 72, 64
2, 32808, Note_off_c, 0, 67, 64
2, 32820, Note_on_c, 0, 69, 107
2, 32820, Note_on_c, 0, 72, 107
2, 33012, Note_off_c, 0, 72, 64
2, 33012, Note_off_c, 0, 69, 64
2, 33180, Note_on_c, 0, 66, 107
2, 33276, Note_off_c, 0, 66, 64
2, 33300, Note_on_c, 0, 67, 107
2, 33300, Note_on_c, 0, 67, 107
2, 33348, Note_off_c, 0, 67, 64
2, 33360, Note_on_c, 0, 69, 107
2, 33408, Note_off_c, 0, 69, 64
2, 33420, Note_on_c, 0, 70, 107
2, 33468, Note_off_c, 0, 70, 64
2, 33480, Note_on_c, 0, 75, 107
2, 33492, Note_off_c, 0, 67, 64
2, 33528, Note_off_c, 0, 75, 64
2, 33540, Note_on_c, 0, 70, 107
2, 33540, Note_on_c, 0, 66, 107
2, 33552, Note_off_c, 0, 70, 64
2, 33555, Note_on_c, 0, 69, 107
2, 33567, Note_off_c, 0, 69, 64
2, 33570, Note_on_c, 0, 70, 107
2, 33585, Note_off_c, 0, 70, 64
2, 33585, Note_on_c, 0, 69, 105
2, 33597, Note_off_c, 0, 69, 64
2, 33600, Note_on_c, 0, 70, 105
2, 33612, Note_off_c, 0, 70, 64
2, 33615, Note_on_c, 0, 69, 105
2, 33627, Note_off_c, 0, 69, 64
2, 33630, Note_on_c, 0, 70, 105
2, 33642, Note_off_c, 0, 70, 64
2, 33645, Note_on_c, 0, 69, 105
2, 33708, Note_off_c, 0, 69, 64
2, 33720, Note_on_c, 0, 67, 107
2, 33720, Note_on_c, 0, 67, 107
2, 33732, Note_off_c, 0, 66, 64
2, 33768, Note_off_c, 0, 67, 64
2, 33768, Note_off_c, 0, 67, 64
2, 33780, Note_on_c, 0, 67, 107
2, 33840, Note_on_c, 0, 65, 107
2, 33888, Note_off_c, 0, 65, 64
2, 33900, Note_on_c, 0, 63, 107
2, 33948, Note_off_c, 0, 63, 64
2, 33960, Note_on_c, 0, 62, 107
2, 34008, Note_off_c, 0, 62, 64
2, 34020, Note_on_c, 0, 60, 105
2, 34020, Note_on_c, 0, 60, 107
2, 34068, Note_off_c, 0, 60, 64
2, 34080, Note_on_c, 0, 62, 107
2, 34128, Note_off_c, 0, 62, 64
2, 34140, Note_on_c, 0, 63, 107
2, 34212, Note_off_c, 0, 60, 64
2, 34236, Note_off_c, 0, 63, 64
2, 34260, Note_on_c, 0, 58, 107
2, 34260, Note_on_c, 0, 62, 107
2, 34548, Note_off_c, 0, 67, 64
2, 34548, Note_off_c, 0, 62, 64
2, 34548, Note_off_c, 0, 58, 64
2, 34740, Note_on_c, 0, 69, 107
2, 34788, Note_off_c, 0, 69, 64
2, 34800, Note_on_c, 0, 69, 107
2, 34848, Note_off_c, 0, 69, 64
2, 34860, Note_on_c, 0, 81, 107
2, 34908, Note_off_c, 0, 81, 64
2, 34920, Note_on_c, 0, 78, 107
2, 34968, Note_off_c, 0, 78, 64
2, 34980, Note_on_c, 0, 74, 107
2, 35028, Note_off_c, 0, 74, 64
2, 35040, Note_on_c, 0, 69, 107
2, 35088, Note_off_c, 0, 69, 64
2, 35100, Note_on_c, 0, 66, 107
2, 35148, Note_off_c, 0, 66, 64
2, 35160, Note_on_c, 0, 67, 107
2, 35208, Note_off_c, 0, 67, 64
2, 35220, Note_on_c, 0, 69, 107
2, 35268, Note_off_c, 0, 69, 64
2, 35280, Note_on_c, 0, 71, 107
2, 35328, Note_off_c, 0, 71, 64
2, 35340, Note_on_c, 0, 69, 107
2, 35388, Note_off_c, 0, 69, 64
2, 35400, Note_on_c, 0, 67, 107
2, 35448, Note_off_c, 0, 67, 64
2, 35460, Note_on_c, 0, 72, 107
2, 35508, Note_off_c, 0, 72, 64
2, 35520, Note_on_c, 0, 74, 107
2, 35568, Note_off_c, 0, 74, 64
2, 35580, Note_on_c, 0, 75, 107
2, 35628, Note_off_c, 0, 75, 64
2, 35640, Note_on_c, 0, 77, 107
2, 35688, Note_off_c, 0, 77, 64
2, 35700, Note_on_c, 0, 79, 107
2, 35748, Note_off_c, 0, 79, 64
2, 35760, Note_on_c, 0, 75, 107
2, 35772, Note_off_c, 0, 75, 64
2, 35775, Note_on_c, 0, 77, 107
2, 35787, Note_off_c, 0, 77, 64
2, 35790, Note_on_c, 0, 75, 107
2, 35862, Note_off_c, 0, 75, 64
2, 35880, Note_on_c, 0, 74, 107
2, 35928, Note_off_c, 0, 74, 64
2, 35940, Note_on_c, 0, 72, 107
2, 35988, Note_off_c, 0, 72, 64
2, 36000, Note_on_c, 0, 79, 107
2, 36012, Note_off_c, 0, 79, 64
2, 36015, Note_on_c, 0, 78, 107
2, 36027, Note_off_c, 0, 78, 64
2, 36030, Note_on_c, 0, 79, 107
2, 36156, Note_off_c, 0, 79, 64
2, 36180, Note_on_c, 0, 79, 107
2, 36228, Note_off_c, 0, 79, 64
2, 36240, Note_on_c, 0, 79, 107
2, 36288, Note_off_c, 0, 79, 64
2, 36300, Note_on_c, 0, 70, 107
2, 36348, Note_off_c, 0, 70, 64
2, 36360, Note_on_c, 0, 69, 107
2, 36408, Note_off_c, 0, 69, 64
2, 36420, Note_on_c, 0, 72, 107
2, 36468, Note_off_c, 0, 72, 64
2, 36480, Note_on_c, 0, 70, 107
2, 36528, Note_off_c, 0, 70, 64
2, 36540, Note_on_c, 0, 69, 107
2, 36588, Note_off_c, 0, 69, 64
2, 36600, Note_on_c, 0, 67, 107
2, 36648, Note_off_c, 0, 67, 64
2, 36660, Note_on_c, 0, 76, 107
2, 36708, Note_off_c, 0, 76, 64
2, 36720, Note_on_c, 0, 77, 107
2, 36864, Note_off_c, 0, 77, 64
2, 36900, Note_on_c, 0, 75, 107
2, 36948, Note_off_c, 0, 75, 64
2, 36960, Note_on_c, 0, 74, 107
2, 37008, Note_off_c, 0, 74, 64
2, 37020, Note_on_c, 0, 72, 107
2, 37068, Note_off_c, 0, 72, 64
2, 37080, Note_on_c, 0, 70, 107
2, 37128, Note_off_c, 0, 70, 64
2, 37140, Note_on_c, 0, 69, 107
2, 37188, Note_off_c, 0, 69, 64
2, 37200, Note_on_c, 0, 67, 107
2, 37248, Note_off_c, 0, 67, 64
2, 37260, Note_on_c, 0, 65, 107
2, 37308, Note_off_c, 0, 65, 64
2, 37320, Note_on_c, 0, 67, 107
2, 37368, Note_off_c, 0, 67, 64
2, 37380, Note_on_c, 0, 70, 107
2, 37428, Note_off_c, 0, 70, 64
2, 37440, Note_on_c, 0, 72, 107
2, 37488, Note_off_c, 0, 72, 64
2, 37500, Note_on_c, 0, 74, 107
2, 37548, Note_off_c, 0, 74, 64
2, 37560, Note_on_c, 0, 75, 107
2, 37608, Note_off_c, 0, 75, 64
2, 37620, Note_on_c, 0, 72, 107
2, 37668, Note_off_c, 0, 72, 64
2, 37680, Note_on_c, 0, 70, 107
2, 37728, Note_off_c, 0, 70, 64
2, 37740, Note_on_c, 0, 69, 107
2, 37788, Note_off_c, 0, 69, 64
2, 37800, Note_on_c, 0, 67, 107
2, 37848, Note_off_c, 0, 67, 64
2, 37860, Note_on_c, 0, 65, 107
2, 37908, Note_off_c, 0, 65, 64
2, 37920, Note_on_c, 0, 77, 107
2, 38064, Note_off_c, 0, 77, 64
2, 38100, Note_on_c, 0, 69, 107
2, 38148, Note_off_c, 0, 69, 64
2, 38160, Note_on_c, 0, 70, 107
2, 38208, Note_off_c, 0, 70, 64
2, 38220, Note_on_c, 0, 75, 107
2, 38268, Note_off_c, 0, 75, 64
2, 38280, Note_on_c, 0, 74, 107
2, 38328, Note_off_c, 0, 74, 64
2, 38340, Note_on_c, 0, 72, 107
2, 38388, Note_off_c, 0, 72, 64
2, 38400, Note_on_c, 0, 74, 107
2, 38400, Note_on_c, 0, 69, 110
2, 38412, Note_off_c, 0, 74, 64
2, 38415, Note_on_c, 0, 72, 107
2, 38427, Note_off_c, 0, 72, 64
2, 38430, Note_on_c, 0, 74, 107
2, 38445, Note_off_c, 0, 74, 64
2, 38445, Note_on_c, 0, 72, 105
2, 38457, Note_off_c, 0, 72, 64
2, 38460, Note_on_c, 0, 74, 105
2, 38472, Note_off_c, 0, 74, 64
2, 38475, Note_on_c, 0, 72, 105
2, 38487, Note_off_c, 0, 72, 64
2, 38490, Note_on_c, 0, 74, 105
2, 38502, Note_off_c, 0, 74, 64
2, 38505, Note_on_c, 0, 72, 105
2, 38577, Note_off_c, 0, 72, 64
2, 38580, Note_on_c, 0, 70, 107
2, 38592, Note_off_c, 0, 69, 64
2, 38628, Note_off_c, 0, 70, 64
2, 38640, Note_on_c, 0, 70, 107
2, 38928, Note_off_c, 0, 70, 64
2, 38940, Note_on_c, 0, 74, 107
2, 38988, Note_off_c, 0, 74, 64
2, 39000, Note_on_c, 0, 72, 107
2, 39048, Note_off_c, 0, 72, 64
2, 39060, Note_on_c, 0, 74, 107
2, 39108, Note_off_c, 0, 74, 64
2, 39120, Note_on_c, 0, 63, 107
2, 39168, Note_off_c, 0, 63, 64
2, 39180, Note_on_c, 0, 62, 107
2, 39228, Note_off_c, 0, 62, 64
2, 39240, Note_on_c, 0, 60, 107
2, 39408, Note_off_c, 0, 60, 64
2, 39420, Note_on_c, 0, 69, 107
2, 39468, Note_off_c, 0, 69, 64
2, 39480, Note_on_c, 0, 70, 107
2, 39528, Note_off_c, 0, 70, 64
2, 39540, Note_on_c, 0, 72, 107
2, 39588, Note_off_c, 0, 72, 64
2, 39600, Note_on_c, 0, 66, 107
2, 39648, Note_off_c, 0, 66, 64
2, 39660, Note_on_c, 0, 74, 107
2, 39708, Note_off_c, 0, 74, 64
2, 39720, Note_on_c, 0, 69, 107
2, 39768, Note_off_c, 0, 69, 64
2, 39780, Note_on_c, 0, 66, 107
2, 39828, Note_off_c, 0, 66, 64
2, 39840, Note_on_c, 0, 62, 107
2, 39888, Note_off_c, 0, 62, 64
2, 39900, Note_on_c, 0, 61, 107
2, 39948, Note_off_c, 0, 61, 64
2, 39960, Note_on_c, 0, 62, 107
2, 40008, Note_off_c, 0, 62, 64
2, 40020, Note_on_c, 0, 64, 107
2, 40068, Note_off_c, 0, 64, 64
2, 40080, Note_on_c, 0, 66, 107
2, 40128, Note_off_c, 0, 66, 64
2, 40140, Note_on_c, 0, 64, 107
2, 40188, Note_off_c, 0, 64, 64
2, 40200, Note_on_c, 0, 62, 107
2, 40248, Note_off_c, 0, 62, 64
2, 40260, Note_on_c, 0, 67, 107
2, 40308, Note_off_c, 0, 67, 64
2, 40320, Note_on_c, 0, 69, 107
2, 40368, Note_off_c, 0, 69, 64
2, 40380, Note_on_c, 0, 71, 107
2, 40428, Note_off_c, 0, 71, 64
2, 40440, Note_on_c, 0, 72, 107
2, 40488, Note_off_c, 0, 72, 64
2, 40500, Note_on_c, 0, 74, 107
2, 40548, Note_off_c, 0, 74, 64
2, 40560, Note_on_c, 0, 70, 107
2, 40608, Note_off_c, 0, 70, 64
2, 40620, Note_on_c, 0, 69, 107
2, 40668, Note_off_c, 0, 69, 64
2, 40680, Note_on_c, 0, 67, 107
2, 40728, Note_off_c, 0, 67, 64
2, 40740, Note_on_c, 0, 69, 107
2, 40788, Note_off_c, 0, 69, 64
2, 40800, Note_on_c, 0, 70, 107
2, 40848, Note_off_c, 0, 70, 64
2, 40860, Note_on_c, 0, 72, 107
2, 40908, Note_off_c, 0, 72, 64
2, 40920, Note_on_c, 0, 74, 107
2, 40968, Note_off_c, 0, 74, 64
2, 40980, Note_on_c, 0, 75, 107
2, 41028, Note_off_c, 0, 75, 64
2, 41040, Note_on_c, 0, 77, 107
2, 41136, Note_off_c, 0, 77, 64
2, 41160, Note_on_c, 0, 70, 107
2, 41256, Note_off_c, 0, 70, 64
2, 41280, Note_on_c, 0, 80, 107
2, 41292, Note_off_c, 0, 80, 64
2, 41295, Note_on_c, 0, 79, 107
2, 41307, Note_off_c, 0, 79, 64
2, 41310, Note_on_c, 0, 80, 107
2, 41436, Note_off_c, 0, 80, 64
2, 41460, Note_on_c, 0, 82, 107
2, 41508, Note_off_c, 0, 82, 64
2, 41520, Note_on_c, 0, 79, 107
2, 41580, Note_on_c, 0, 77, 107
2, 41628, Note_off_c, 0, 77, 64
2, 41640, Note_on_c, 0, 75, 107
2, 41688, Note_off_c, 0, 75, 64
2, 41700, Note_on_c, 0, 74, 107
2, 41748, Note_off_c, 0, 74, 64
2, 41760, Note_on_c, 0, 72, 107
2, 41808, Note_off_c, 0, 72, 64
2, 41820, Note_on_c, 0, 74, 107
2, 41868, Note_off_c, 0, 74, 64
2, 41880, Note_on_c, 0, 75, 107
2, 41904, Note_off_c, 0, 79, 64
2, 41928, Note_off_c, 0, 75, 64
2, 41940, Note_on_c, 0, 70, 107
2, 41988, Note_off_c, 0, 70, 64
2, 42000, Note_on_c, 0, 69, 107
2, 42000, Note_on_c, 0, 77, 107
2, 42192, Note_off_c, 0, 69, 64
2, 42240, Note_on_c, 0, 68, 107
2, 42288, Note_off_c, 0, 77, 64
2, 42300, Note_on_c, 0, 75, 107
2, 42348, Note_off_c, 0, 75, 64
2, 42360, Note_on_c, 0, 74, 107
2, 42408, Note_off_c, 0, 74, 64
2, 42420, Note_on_c, 0, 72, 107
2, 42468, Note_off_c, 0, 72, 64
2, 42480, Note_on_c, 0, 71, 107
2, 42528, Note_off_c, 0, 68, 64
2, 42540, Note_on_c, 0, 68, 107
2, 42588, Note_off_c, 0, 68, 64
2, 42600, Note_on_c, 0, 67, 107
2, 42672, Note_off_c, 0, 71, 64
2, 42696, Note_off_c, 0, 67, 64
2, 42720, Note_on_c, 0, 75, 107
2, 42720, Note_on_c, 0, 67, 107
2, 42732, Note_off_c, 0, 75, 64
2, 42735, Note_on_c, 0, 74, 107
2, 42747, Note_off_c, 0, 74, 64
2, 42750, Note_on_c, 0, 75, 107
2, 42876, Note_off_c, 0, 75, 64
2, 42900, Note_on_c, 0, 75, 107
2, 42912, Note_off_c, 0, 67, 64
2, 42948, Note_off_c, 0, 75, 64
2, 42960, Note_on_c, 0, 75, 107
2, 42960, Note_on_c, 0, 69, 107
2, 43008, Note_off_c, 0, 75, 64
2, 43020, Note_on_c, 0, 74, 107
2, 43056, Note_off_c, 0, 69, 64
2, 43068, Note_off_c, 0, 74, 64
2, 43080, Note_on_c, 0, 72, 107
2, 43128, Note_off_c, 0, 72, 64
2, 43140, Note_on_c, 0, 70, 107
2, 43188, Note_off_c, 0, 70, 64
2, 43200, Note_on_c, 0, 69, 107
2, 43248, Note_off_c, 0, 69, 64
2, 43260, Note_on_c, 0, 70, 107
2, 43308, Note_off_c, 0, 70, 64
2, 43320, Note_on_c, 0, 72, 107
2, 43368, Note_off_c, 0, 72, 64
2, 43380, Note_on_c, 0, 67, 107
2, 43428, Note_off_c, 0, 67, 64
2, 43440, Note_on_c, 0, 66, 107
2, 43488, Note_off_c, 0, 66, 64
2, 43500, Note_on_c, 0, 67, 107
2, 43548, Note_off_c, 0, 67, 64
2, 43560, Note_on_c, 0, 69, 107
2, 43656, Note_off_c, 0, 69, 64
2, 43680, Note_on_c, 0, 69, 107
2, 43692, Note_off_c, 0, 69, 64
2, 43695, Note_on_c, 0, 68, 107
2, 43707, Note_off_c, 0, 68, 64
2, 43710, Note_on_c, 0, 69, 107
2, 43836, Note_off_c, 0, 69, 64
2, 43860, Note_on_c, 0, 69, 107
2, 43908, Note_off_c, 0, 69, 64
2, 43920, Note_on_c, 0, 69, 107
2, 43968, Note_off_c, 0, 69, 64
2, 43980, Note_on_c, 0, 67, 107
2, 44028, Note_off_c, 0, 67, 64
2, 44040, Note_on_c, 0, 66, 107
2, 44088, Note_off_c, 0, 66, 64
2, 44100, Note_on_c, 0, 67, 107
2, 44148, Note_off_c, 0, 67, 64
2, 44160, Note_on_c, 0, 72, 107
2, 44220, Note_on_c, 0, 70, 107
2, 44268, Note_off_c, 0, 70, 64
2, 44280, Note_on_c, 0, 69, 107
2, 44304, Note_off_c, 0, 72, 64
2, 44328, Note_off_c, 0, 69, 64
2, 44340, Note_on_c, 0, 67, 107
2, 44340, Note_on_c, 0, 72, 107
2, 44388, Note_off_c, 0, 72, 64
2, 44388, Note_off_c, 0, 67, 64
2, 44400, Note_on_c, 0, 69, 107
2, 44400, Note_on_c, 0, 72, 107
2, 44592, Note_off_c, 0, 72, 64
2, 44592, Note_off_c, 0, 69, 64
2, 44760, Note_on_c, 0, 66, 107
2, 44856, Note_off_c, 0, 66, 64
2, 44880, Note_on_c, 0, 67, 107
2, 44880, Note_on_c, 0, 67, 107
2, 44928, Note_off_c, 0, 67, 64
2, 44940, Note_on_c, 0, 69, 107
2, 44988, Note_off_c, 0, 69, 64
2, 45000, Note_on_c, 0, 70, 107
2, 45048, Note_off_c, 0, 70, 64
2, 45060, Note_on_c, 0, 75, 107
2, 45072, Note_off_c, 0, 67, 64
2, 45108, Note_off_c, 0, 75, 64
2, 45120, Note_on_c, 0, 70, 107
2, 45120, Note_on_c, 0, 66, 107
2, 45132, Note_off_c, 0, 70, 64
2, 45135, Note_on_c, 0, 69, 107
2, 45147, Note_off_c, 0, 69, 64
2, 45150, Note_on_c, 0, 70, 107
2, 45165, Note_off_c, 0, 70, 64
2, 45165, Note_on_c, 0, 69, 105
2, 45177, Note_off_c, 0, 69, 64
2, 45180, Note_on_c, 0, 70, 105
2, 45192, Note_off_c, 0, 70, 64
2, 45195, Note_on_c, 0, 69, 105
2, 45207, Note_off_c, 0, 69, 64
2, 45210, Note_on_c, 0, 70, 105
2, 45222, Note_off_c, 0, 70, 64
2, 45225, Note_on_c, 0, 69, 105
2, 45288, Note_off_c, 0, 69, 64
2, 45300, Note_on_c, 0, 67, 107
2, 45300, Note_on_c, 0, 67, 107
2, 45312, Note_off_c, 0, 66, 64
2, 45348, Note_off_c, 0, 67, 64
2, 45348, Note_off_c, 0, 67, 64
2, 45360, Note_on_c, 0, 67, 107
2, 45420, Note_on_c, 0, 65, 107
2, 45468, Note_off_c, 0, 65, 64
2, 45480, Note_on_c, 0, 63, 107
2, 45528, Note_off_c, 0, 63, 64
2, 45540, Note_on_c, 0, 62, 107
2, 45588, Note_off_c, 0, 62, 64
2, 45600, Note_on_c, 0, 60, 105
2, 45600, Note_on_c, 0, 60, 107
2, 45648, Note_off_c, 0, 60, 64
2, 45660, Note_on_c, 0, 62, 107
2, 45708, Note_off_c, 0, 62, 64
2, 45720, Note_on_c, 0, 63, 107
2, 45792, Note_off_c, 0, 60, 64
2, 45816, Note_off_c, 0, 63, 64
2, 45840, Note_on_c, 0, 58, 107
2, 45840, Note_on_c, 0, 62, 107
2, 46128, Note_off_c, 0, 67, 64
2, 46128, Note_off_c, 0, 62, 64
2, 46128, Note_off_c, 0, 58, 64
2, 46128, End_track
3, 0, Start_track
3, 0, Title_t, "J.S. Bach, Edition Wood"
3, 0, Program_c, 1, 0
3, 120, Note_on_c, 1, 43, 110
3, 168, Note_off_c, 1, 43, 64
3, 180, Note_on_c, 1, 46, 110
3, 228, Note_off_c, 1, 46, 64
3, 240, Note_on_c, 1, 50, 110
3, 288, Note_off_c, 1, 50, 64
3, 300, Note_on_c, 1, 55, 110
3, 348, Note_off_c, 1, 55, 64
3, 360, Note_on_c, 1, 58, 110
3, 408, Note_off_c, 1, 58, 64
3, 420, Note_on_c, 1, 57, 110
3, 468, Note_off_c, 1, 57, 64
3, 480, Note_on_c, 1, 55, 110
3, 528, Note_off_c, 1, 55, 64
3, 540, Note_on_c, 1, 54, 110
3, 588, Note_off_c, 1, 54, 64
3, 600, Note_on_c, 1, 55, 110
3, 648, Note_off_c, 1, 55, 64
3, 660, Note_on_c, 1, 57, 110
3, 708, Note_off_c, 1, 57, 64
3, 720, Note_on_c, 1, 51, 110
3, 768, Note_off_c, 1, 51, 64
3, 780, Note_on_c, 1, 50, 110
3, 828, Note_off_c, 1, 50, 64
3, 840, Note_on_c, 1, 48, 110
3, 888, Note_off_c, 1, 48, 64
3, 900, Note_on_c, 1, 46, 110
3, 948, Note_off_c, 1, 46, 64
3, 960, Note_on_c, 1, 45, 110
3, 1008, Note_off_c, 1, 45, 64
3, 1020, Note_on_c, 1, 46, 110
3, 1308, Note_off_c, 1, 46, 64
3, 1320, Note_on_c, 1, 50, 110
3, 1368, Note_off_c, 1, 50, 64
3, 1380, Note_on_c, 1, 48, 110
3, 1428, Note_off_c, 1, 48, 64
3, 1440, Note_on_c, 1, 51, 110
3, 1488, Note_off_c, 1, 51, 64
3, 1500, Note_on_c, 1, 50, 110
3, 1788, Note_off_c, 1, 50, 64
3, 1800, Note_on_c, 1, 52, 110
3, 1848, Note_off_c, 1, 52, 64
3, 1860, Note_on_c, 1, 54, 110
3, 1908, Note_off_c, 1, 54, 64
3, 1920, Note_on_c, 1, 50, 110
3, 1968, Note_off_c, 1, 50, 64
3, 1980, Note_on_c, 1, 55, 110
3, 2268, Note_off_c, 1, 55, 64
3, 2340, Note_on_c, 1, 51, 110
3, 2436, Note_off_c, 1, 51, 64
3, 2460, Note_on_c, 1, 53, 110
3, 2748, Note_off_c, 1, 53, 64
3, 2820, Note_on_c, 1, 50, 110
3, 2916, Note_off_c, 1, 50, 64
3, 2940, Note_on_c, 1, 51, 110
3, 3228, Note_off_c, 1, 51, 64
3, 3300, Note_on_c, 1, 48, 110
3, 3396, Note_off_c, 1, 48, 64
3, 3420, Note_on_c, 1, 50, 110
3, 3804, Note_off_c, 1, 50, 64
3, 3900, Note_on_c, 1, 50, 110
3, 3900, Note_on_c, 1, 54, 110
3, 3996, Note_off_c, 1, 54, 64
3, 3996, Note_off_c, 1, 50, 64
3, 4020, Note_on_c, 1, 48, 110
3, 4020, Note_on_c, 1, 57, 110
3, 4116, Note_off_c, 1, 57, 64
3, 4116, Note_off_c, 1, 48, 64
3, 4140, Note_on_c, 1, 50, 110
3, 4140, Note_on_c, 1, 46, 110
3, 4236, Note_off_c, 1, 46, 64
3, 4260, Note_on_c, 1, 43, 110
3, 4356, Note_off_c, 1, 43, 64
3, 4380, Note_on_c, 1, 38, 110
3, 4476, Note_off_c, 1, 38, 64
3, 4476, Note_off_c, 1, 50, 64
3, 4500, Note_on_c, 1, 62, 110
3, 4668, Note_off_c, 1, 62, 64
3, 4680, Note_on_c, 1, 60, 110
3, 4728, Note_off_c, 1, 60, 64
3, 4740, Note_on_c, 1, 59, 110
3, 4788, Note_off_c, 1, 59, 64
3, 4800, Note_on_c, 1, 57, 110
3, 4848, Note_off_c, 1, 57, 64
3, 4860, Note_on_c, 1, 55, 110
3, 4908, Note_off_c, 1, 55, 64
3, 4920, Note_on_c, 1, 50, 110
3, 4968, Note_off_c, 1, 50, 64
3, 4980, Note_on_c, 1, 55, 110
3, 5028, Note_off_c, 1, 55, 64
3, 5040, Note_on_c, 1, 59, 110
3, 5088, Note_off_c, 1, 59, 64
3, 5100, Note_on_c, 1, 62, 110
3, 5148, Note_off_c, 1, 62, 64
3, 5160, Note_on_c, 1, 63, 110
3, 5208, Note_off_c, 1, 63, 64
3, 5220, Note_on_c, 1, 62, 110
3, 5268, Note_off_c, 1, 62, 64
3, 5280, Note_on_c, 1, 60, 110
3, 5328, Note_off_c, 1, 60, 64
3, 5340, Note_on_c, 1, 59, 110
3, 5388, Note_off_c, 1, 59, 64
3, 5400, Note_on_c, 1, 60, 110
3, 5448, Note_off_c, 1, 60, 64
3, 5460, Note_on_c, 1, 62, 110
3, 5508, Note_off_c, 1, 62, 64
3, 5520, Note_on_c, 1, 56, 110
3, 5568, Note_off_c, 1, 56, 64
3, 5580, Note_on_c, 1, 55, 110
3, 5628, Note_off_c, 1, 55, 64
3, 5640, Note_on_c, 1, 53, 110
3, 5688, Note_off_c, 1, 53, 64
3, 5700, Note_on_c, 1, 51, 110
3, 5748, Note_off_c, 1, 51, 64
3, 5760, Note_on_c, 1, 50, 110
3, 5808, Note_off_c, 1, 50, 64
3, 5820, Note_on_c, 1, 48, 110
3, 6108, Note_off_c, 1, 48, 64
3, 6120, Note_on_c, 1, 48, 110
3, 6168, Note_off_c, 1, 48, 64
3, 6180, Note_on_c, 1, 51, 110
3, 6228, Note_off_c, 1, 51, 64
3, 6240, Note_on_c, 1, 55, 110
3, 6288, Note_off_c, 1, 55, 64
3, 6300, Note_on_c, 1, 60, 110
3, 6396, Note_off_c, 1, 60, 64
3, 6420, Note_on_c, 1, 48, 110
3, 6420, Note_on_c, 1, 50, 110
3, 6516, Note_off_c, 1, 50, 64
3, 6516, Note_off_c, 1, 48, 64
3, 6540, Note_on_c, 1, 52, 110
3, 6540, Note_on_c, 1, 46, 110
3, 6636, Note_off_c, 1, 46, 64
3, 6636, Note_off_c, 1, 52, 64
3, 6660, Note_on_c, 1, 54, 110
3, 6660, Note_on_c, 1, 45, 110
3, 6756, Note_off_c, 1, 45, 64
3, 6756, Note_off_c, 1, 54, 64
3, 6780, Note_on_c, 1, 43, 110
3, 6840, Note_on_c, 1, 55, 110
3, 6888, Note_off_c, 1, 55, 64
3, 6900, Note_on_c, 1, 58, 110
3, 6948, Note_off_c, 1, 58, 64
3, 6960, Note_on_c, 1, 62, 110
3, 7008, Note_off_c, 1, 62, 64
3, 7020, Note_on_c, 1, 67, 110
3, 7068, Note_off_c, 1, 67, 64
3, 7080, Note_on_c, 1, 65, 110
3, 7128, Note_off_c, 1, 65, 64
3, 7140, Note_on_c, 1, 63, 110
3, 7188, Note_off_c, 1, 63, 64
3, 7200, Note_on_c, 1, 62, 110
3, 7248, Note_off_c, 1, 62, 64
3, 7260, Note_on_c, 1, 61, 110
3, 7308, Note_off_c, 1, 61, 64
3, 7320, Note_on_c, 1, 62, 110
3, 7368, Note_off_c, 1, 62, 64
3, 7380, Note_on_c, 1, 64, 110
3, 7428, Note_off_c, 1, 64, 64
3, 7440, Note_on_c, 1, 58, 110
3, 7488, Note_off_c, 1, 58, 64
3, 7500, Note_on_c, 1, 57, 110
3, 7548, Note_off_c, 1, 57, 64
3, 7548, Note_off_c, 1, 43, 64
3, 7560, Note_on_c, 1, 55, 110
3, 7608, Note_off_c, 1, 55, 64
3, 7620, Note_on_c, 1, 53, 110
3, 7668, Note_off_c, 1, 53, 64
3, 7680, Note_on_c, 1, 52, 110
3, 7728, Note_off_c, 1, 52, 64
3, 7740, Note_on_c, 1, 41, 110
3, 7740, Note_on_c, 1, 50, 110
3, 7932, Note_off_c, 1, 50, 64
3, 7932, Note_off_c, 1, 41, 64
3, 8100, Note_on_c, 1, 53, 110
3, 8100, Note_on_c, 1, 57, 110
3, 8196, Note_off_c, 1, 57, 64
3, 8196, Note_off_c, 1, 53, 64
3, 8220, Note_on_c, 1, 55, 110
3, 8220, Note_on_c, 1, 52, 110
3, 8316, Note_off_c, 1, 52, 64
3, 8340, Note_on_c, 1, 50, 110
3, 8412, Note_off_c, 1, 55, 64
3, 8436, Note_off_c, 1, 50, 64
3, 8460, Note_on_c, 1, 52, 110
3, 8460, Note_on_c, 1, 49, 110
3, 8556, Note_off_c, 1, 49, 64
3, 8580, Note_on_c, 1, 45, 110
3, 8652, Note_off_c, 1, 52, 64
3, 8676, Note_off_c, 1, 45, 64
3, 8700, Note_on_c, 1, 50, 110
3, 8700, Note_on_c, 1, 50, 110
3, 8796, Note_off_c, 1, 50, 64
3, 8796, Note_off_c, 1, 50, 64
3, 8820, Note_on_c, 1, 48, 110
3, 8916, Note_off_c, 1, 48, 64
3, 8940, Note_on_c, 1, 46, 110
3, 9036, Note_off_c, 1, 46, 64
3, 9060, Note_on_c, 1, 45, 110
3, 9156, Note_off_c, 1, 45, 64
3, 9180, Note_on_c, 1, 43, 110
3, 9180, Note_on_c, 1, 58, 110
3, 9228, Note_off_c, 1, 58, 64
3, 9240, Note_on_c, 1, 60, 110
3, 9276, Note_off_c, 1, 43, 64
3, 9288, Note_off_c, 1, 60, 64
3, 9300, Note_on_c, 1, 62, 110
3, 9300, Note_on_c, 1, 41, 110
3, 9348, Note_off_c, 1, 62, 64
3, 9360, Note_on_c, 1, 56, 110
3, 9396, Note_off_c, 1, 41, 64
3, 9408, Note_off_c, 1, 56, 64
3, 9420, Note_on_c, 1, 39, 110
3, 9420, Note_on_c, 1, 55, 110
3, 9468, Note_off_c, 1, 55, 64
3, 9480, Note_on_c, 1, 53, 110
3, 9516, Note_off_c, 1, 39, 64
3, 9528, Note_off_c, 1, 53, 64
3, 9540, Note_on_c, 1, 51, 110
3, 9540, Note_on_c, 1, 38, 110
3, 9588, Note_off_c, 1, 51, 64
3, 9600, Note_on_c, 1, 50, 110
3, 9636, Note_off_c, 1, 38, 64
3, 9648, Note_off_c, 1, 50, 64
3, 9660, Note_on_c, 1, 49, 110
3, 9660, Note_on_c, 1, 37, 110
3, 9708, Note_off_c, 1, 49, 64
3, 9720, Note_on_c, 1, 50, 110
3, 9768, Note_off_c, 1, 50, 64
3, 9780, Note_on_c, 1, 52, 110
3, 9828, Note_off_c, 1, 52, 64
3, 9840, Note_on_c, 1, 46, 110
3, 9852, Note_off_c, 1, 37, 64
3, 9888, Note_off_c, 1, 46, 64
3, 9900, Note_on_c, 1, 45, 110
3, 9948, Note_off_c, 1, 45, 64
3, 9960, Note_on_c, 1, 43, 110
3, 10008, Note_off_c, 1, 43, 64
3, 10020, Note_on_c, 1, 41, 110
3, 10068, Note_off_c, 1, 41, 64
3, 10080, Note_on_c, 1, 40, 110
3, 10128, Note_off_c, 1, 40, 64
3, 10140, Note_on_c, 1, 41, 110
3, 10236, Note_off_c, 1, 41, 64
3, 10260, Note_on_c, 1, 43, 110
3, 10356, Note_off_c, 1, 43, 64
3, 10380, Note_on_c, 1, 45, 110
3, 10476, Note_off_c, 1, 45, 64
3, 10500, Note_on_c, 1, 45, 110
3, 10596, Note_off_c, 1, 45, 64
3, 10620, Note_on_c, 1, 38, 105
3, 10812, Note_off_c, 1, 38, 64
3, 11040, Note_on_c, 1, 61, 110
3, 11088, Note_off_c, 1, 61, 64
3, 11100, Note_on_c, 1, 62, 110
3, 11160, Note_on_c, 1, 54, 110
3, 11208, Note_off_c, 1, 54, 64
3, 11220, Note_on_c, 1, 55, 110
3, 11268, Note_off_c, 1, 55, 64
3, 11280, Note_on_c, 1, 57, 110
3, 11328, Note_off_c, 1, 57, 64
3, 11340, Note_on_c, 1, 50, 110
3, 11388, Note_off_c, 1, 62, 64
3, 11436, Note_off_c, 1, 50, 64
3, 11700, Note_on_c, 1, 43, 110
3, 11748, Note_off_c, 1, 43, 64
3, 11760, Note_on_c, 1, 46, 110
3, 11808, Note_off_c, 1, 46, 64
3, 11820, Note_on_c, 1, 50, 110
3, 11868, Note_off_c, 1, 50, 64
3, 11880, Note_on_c, 1, 55, 110
3, 11928, Note_off_c, 1, 55, 64
3, 11940, Note_on_c, 1, 58, 110
3, 11988, Note_off_c, 1, 58, 64
3, 12000, Note_on_c, 1, 57, 110
3, 12048, Note_off_c, 1, 57, 64
3, 12060, Note_on_c, 1, 55, 110
3, 12108, Note_off_c, 1, 55, 64
3, 12120, Note_on_c, 1, 54, 110
3, 12168, Note_off_c, 1, 54, 64
3, 12180, Note_on_c, 1, 55, 110
3, 12228, Note_off_c, 1, 55, 64
3, 12240, Note_on_c, 1, 57, 110
3, 12288, Note_off_c, 1, 57, 64
3, 12300, Note_on_c, 1, 51, 110
3, 12348, Note_off_c, 1, 51, 64
3, 12360, Note_on_c, 1, 50, 110
3, 12408, Note_off_c, 1, 50, 64
3, 12420, Note_on_c, 1, 48, 110
3, 12468, Note_off_c, 1, 48, 64
3, 12480, Note_on_c, 1, 46, 110
3, 12528, Note_off_c, 1, 46, 64
3, 12540, Note_on_c, 1, 45, 110
3, 12588, Note_off_c, 1, 45, 64
3, 12600, Note_on_c, 1, 46, 110
3, 12888, Note_off_c, 1, 46, 64
3, 12900, Note_on_c, 1, 50, 110
3, 12948, Note_off_c, 1, 50, 64
3, 12960, Note_on_c, 1, 48, 110
3, 13008, Note_off_c, 1, 48, 64
3, 13020, Note_on_c, 1, 51, 110
3, 13068, Note_off_c, 1, 51, 64
3, 13080, Note_on_c, 1, 50, 110
3, 13368, Note_off_c, 1, 50, 64
3, 13380, Note_on_c, 1, 52, 110
3, 13428, Note_off_c, 1, 52, 64
3, 13440, Note_on_c, 1, 54, 110
3, 13488, Note_off_c, 1, 54, 64
3, 13500, Note_on_c, 1, 50, 110
3, 13548, Note_off_c, 1, 50, 64
3, 13560, Note_on_c, 1, 55, 110
3, 13848, Note_off_c, 1, 55, 64
3, 13920, Note_on_c, 1, 51, 110
3, 14016, Note_off_c, 1, 51, 64
3, 14040, Note_on_c, 1, 53, 110
3, 14328, Note_off_c, 1, 53, 64
3, 14400, Note_on_c, 1, 50, 110
3, 14496, Note_off_c, 1, 50, 64
3, 14520, Note_on_c, 1, 51, 110
3, 14808, Note_off_c, 1, 51, 64
3, 14880, Note_on_c, 1, 48, 110
3, 14976, Note_off_c, 1, 48, 64
3, 15000, Note_on_c, 1, 50, 110
3, 15384, Note_off_c, 1, 50, 64
3, 15480, Note_on_c, 1, 50, 110
3, 15480, Note_on_c, 1, 54, 110
3, 15576, Note_off_c, 1, 54, 64
3, 15576, Note_off_c, 1, 50, 64
3, 15600, Note_on_c, 1, 48, 110
3, 15600, Note_on_c, 1, 57, 110
3, 15696, Note_off_c, 1, 57, 64
3, 15696, Note_off_c, 1, 48, 64
3, 15720, Note_on_c, 1, 50, 110
3, 15720, Note_on_c, 1, 46, 110
3, 15816, Note_off_c, 1, 46, 64
3, 15840, Note_on_c, 1, 43, 110
3, 15936, Note_off_c, 1, 43, 64
3, 15960, Note_on_c, 1, 38, 110
3, 16056, Note_off_c, 1, 38, 64
3, 16056, Note_off_c, 1, 50, 64
3, 16080, Note_on_c, 1, 62, 110
3, 16248, Note_off_c, 1, 62, 64
3, 16260, Note_on_c, 1, 60, 110
3, 16308, Note_off_c, 1, 60, 64
3, 16320, Note_on_c, 1, 59, 110
3, 16368, Note_off_c, 1, 59, 64
3, 16380, Note_on_c, 1, 57, 110
3, 16428, Note_off_c, 1, 57, 64
3, 16440, Note_on_c, 1, 55, 110
3, 16488, Note_off_c, 1, 55, 64
3, 16500, Note_on_c, 1, 50, 110
3, 16548, Note_off_c, 1, 50, 64
3, 16560, Note_on_c, 1, 55, 110
3, 16608, Note_off_c, 1, 55, 64
3, 16620, Note_on_c, 1, 59, 110
3, 16668, Note_off_c, 1, 59, 64
3, 16680, Note_on_c, 1, 62, 110
3, 16728, Note_off_c, 1, 62, 64
3, 16740, Note_on_c, 1, 63, 110
3, 16788, Note_off_c, 1, 63, 64
3, 16800, Note_on_c, 1, 62, 110
3, 16848, Note_off_c, 1, 62, 64
3, 16860, Note_on_c, 1, 60, 110
3, 16908, Note_off_c, 1, 60, 64
3, 16920, Note_on_c, 1, 59, 110
3, 16968, Note_off_c, 1, 59, 64
3, 16980, Note_on_c, 1, 60, 110
3, 17028, Note_off_c, 1, 60, 64
3, 17040, Note_on_c, 1, 62, 110
3, 17088, Note_off_c, 1, 62, 64
3, 17100, Note_on_c, 1, 56, 110
3, 17148, Note_off_c, 1, 56, 64
3, 17160, Note_on_c, 1, 55, 110
3, 17208, Note_off_c, 1, 55, 64
3, 17220, Note_on_c, 1, 53, 110
3, 17268, Note_off_c, 1, 53, 64
3, 17280, Note_on_c, 1, 51, 110
3, 17328, Note_off_c, 1, 51, 64
3, 17340, Note_on_c, 1, 50, 110
3, 17388, Note_off_c, 1, 50, 64
3, 17400, Note_on_c, 1, 48, 110
3, 17688, Note_off_c, 1, 48, 64
3, 17700, Note_on_c, 1, 48, 110
3, 17748, Note_off_c, 1, 48, 64
3, 17760, Note_on_c, 1, 51, 110
3, 17808, Note_off_c, 1, 51, 64
3, 17820, Note_on_c, 1, 55, 110
3, 17868, Note_off_c, 1, 55, 64
3, 17880, Note_on_c, 1, 60, 110
3, 17976, Note_off_c, 1, 60, 64
3, 18000, Note_on_c, 1, 48, 110
3, 18000, Note_on_c, 1, 50, 110
3, 18096, Note_off_c, 1, 50, 64
3, 18096, Note_off_c, 1, 48, 64
3, 18120, Note_on_c, 1, 52, 110
3, 18120, Note_on_c, 1, 46, 110
3, 18216, Note_off_c, 1, 46, 64
3, 18216, Note_off_c, 1, 52, 64
3, 18240, Note_on_c, 1, 54, 110
3, 18240, Note_on_c, 1, 45, 110
3, 18336, Note_off_c, 1, 45, 64
3, 18336, Note_off_c, 1, 54, 64
3, 18360, Note_on_c, 1, 43, 110
3, 18420, Note_on_c, 1, 55, 110
3, 18468, Note_off_c, 1, 55, 64
3, 18480, Note_on_c, 1, 58, 110
3, 18528, Note_off_c, 1, 58, 64
3, 18540, Note_on_c, 1, 62, 110
3, 18588, Note_off_c, 1, 62, 64
3, 18600, Note_on_c, 1, 67, 110
3, 18648, Note_off_c, 1, 67, 64
3, 18660, Note_on_c, 1, 65, 110
3, 18708, Note_off_c, 1, 65, 64
3, 18720, Note_on_c, 1, 63, 110
3, 18768, Note_off_c, 1, 63, 64
3, 18780, Note_on_c, 1, 62, 110
3, 18828, Note_off_c, 1, 62, 64
3, 18840, Note_on_c, 1, 61, 110
3, 18888, Note_off_c, 1, 61, 64
3, 18900, Note_on_c, 1, 62, 110
3, 18948, Note_off_c, 1, 62, 64
3, 18960, Note_on_c, 1, 64, 110
3, 19008, Note_off_c, 1, 64, 64
3, 19020, Note_on_c, 1, 58, 110
3, 19068, Note_off_c, 1, 58, 64
3, 19080, Note_on_c, 1, 57, 110
3, 19128, Note_off_c, 1, 57, 64
3, 19128, Note_off_c, 1, 43, 64
3, 19140, Note_on_c, 1, 55, 110
3, 19188, Note_off_c, 1, 55, 64
3, 19200, Note_on_c, 1, 53, 110
3, 19248, Note_off_c, 1, 53, 64
3, 19260, Note_on_c, 1, 52, 110
3, 19308, Note_off_c, 1, 52, 64
3, 19320, Note_on_c, 1, 41, 110
3, 19320, Note_on_c, 1, 50, 110
3, 19512, Note_off_c, 1, 50, 64
3, 19512, Note_off_c, 1, 41, 64
3, 19680, Note_on_c, 1, 53, 110
3, 19680, Note_on_c, 1, 57, 110
3, 19776, Note_off_c, 1, 57, 64
3, 19776, Note_off_c, 1, 53, 64
3, 19800, Note_on_c, 1, 55, 110
3, 19800, Note_on_c, 1, 52, 110
3, 19896, Note_off_c, 1, 52, 64
3, 19920, Note_on_c, 1, 50, 110
3, 19992, Note_off_c, 1, 55, 64
3, 20016, Note_off_c, 1, 50, 64
3, 20040, Note_on_c, 1, 52, 110
3, 20040, Note_on_c, 1, 49, 110
3, 20136, Note_off_c, 1, 49, 64
3, 20160, Note_on_c, 1, 45, 110
3, 20232, Note_off_c, 1, 52, 64
3, 20256, Note_off_c, 1, 45, 64
3, 20280, Note_on_c, 1, 50, 110
3, 20280, Note_on_c, 1, 50, 110
3, 20376, Note_off_c, 1, 50, 64
3, 20376, Note_off_c, 1, 50, 64
3, 20400, Note_on_c, 1, 48, 110
3, 20496, Note_off_c, 1, 48, 64
3, 20520, Note_on_c, 1, 46, 110
3, 20616, Note_off_c, 1, 46, 64
3, 20640, Note_on_c, 1, 45, 110
3, 20736, Note_off_c, 1, 45, 64
3, 20760, Note_on_c, 1, 43, 110
3, 20760, Note_on_c, 1, 58, 110
3, 20808, Note_off_c, 1, 58, 64
3, 20820, Note_on_c, 1, 60, 110
3, 20856, Note_off_c, 1, 43, 64
3, 20868, Note_off_c, 1, 60, 64
3, 20880, Note_on_c, 1, 62, 110
3, 20880, Note_on_c, 1, 41, 110
3, 20928, Note_off_c, 1, 62, 64
3, 20940, Note_on_c, 1, 56, 110
3, 20976, Note_off_c, 1, 41, 64
3, 20988, Note_off_c, 1, 56, 64
3, 21000, Note_on_c, 1, 39, 110
3, 21000, Note_on_c, 1, 55, 110
3, 21048, Note_off_c, 1, 55, 64
3, 21060, Note_on_c, 1, 53, 110
3, 21096, Note_off_c, 1, 39, 64
3, 21108, Note_off_c, 1, 53, 64
3, 21120, Note_on_c, 1, 51, 110
3, 21120, Note_on_c, 1, 38, 110
3, 21168, Note_off_c, 1, 51, 64
3, 21180, Note_on_c, 1, 50, 110
3, 21216, Note_off_c, 1, 38, 64
3, 21228, Note_off_c, 1, 50, 64
3, 21240, Note_on_c, 1, 49, 110
3, 21240, Note_on_c, 1, 37, 110
3, 21288, Note_off_c, 1, 49, 64
3, 21300, Note_on_c, 1, 50, 110
3, 21348, Note_off_c, 1, 50, 64
3, 21360, Note_on_c, 1, 52, 110
3, 21408, Note_off_c, 1, 52, 64
3, 21420, Note_on_c, 1, 46, 110
3, 21432, Note_off_c, 1, 37, 64
3, 21468, Note_off_c, 1, 46, 64
3, 21480, Note_on_c, 1, 45, 110
3, 21528, Note_off_c, 1, 45, 64
3, 21540, Note_on_c, 1, 43, 110
3, 21588, Note_off_c, 1, 43, 64
3, 21600, Note_on_c, 1, 41, 110
3, 21648, Note_off_c, 1, 41, 64
3, 21660, Note_on_c, 1, 40, 110
3, 21708, Note_off_c, 1, 40, 64
3, 21720, Note_on_c, 1, 41, 110
3, 21816, Note_off_c, 1, 41, 64
3, 21840, Note_on_c, 1, 43, 110
3, 21936, Note_off_c, 1, 43, 64
3, 21960, Note_on_c, 1, 45, 110
3, 22056, Note_off_c, 1, 45, 64
3, 22080, Note_on_c, 1, 45, 110
3, 22176, Note_off_c, 1, 45, 64
3, 22200, Note_on_c, 1, 38, 105
3, 22392, Note_off_c, 1, 38, 64
3, 22620, Note_on_c, 1, 61, 110
3, 22668, Note_off_c, 1, 61, 64
3, 22680, Note_on_c, 1, 62, 110
3, 22740, Note_on_c, 1, 54, 110
3, 22788, Note_off_c, 1, 54, 64
3, 22800, Note_on_c, 1, 55, 110
3, 22848, Note_off_c, 1, 55, 64
3, 22860, Note_on_c, 1, 57, 110
3, 22908, Note_off_c, 1, 57, 64
3, 22920, Note_on_c, 1, 50, 110
3, 22968, Note_off_c, 1, 62, 64
3, 23016, Note_off_c, 1, 50, 64
3, 23220, Note_on_c, 1, 50, 110
3, 23508, Note_off_c, 1, 50, 64
3, 23520, Note_on_c, 1, 57, 110
3, 23568, Note_off_c, 1, 57, 64
3, 23580, Note_on_c, 1, 58, 110
3, 23628, Note_off_c, 1, 58, 64
3, 23640, Note_on_c, 1, 60, 110
3, 23688, Note_off_c, 1, 60, 64
3, 23700, Note_on_c, 1, 53, 110
3, 23796, Note_off_c, 1, 53, 64
3, 23820, Note_on_c, 1, 60, 110
3, 23820, Note_on_c, 1, 51, 110
3, 23916, Note_off_c, 1, 51, 64
3, 23940, Note_on_c, 1, 53, 110
3, 24012, Note_off_c, 1, 60, 64
3, 24036, Note_off_c, 1, 53, 64
3, 24060, Note_on_c, 1, 59, 110
3, 24060, Note_on_c, 1, 55, 110
3, 24156, Note_off_c, 1, 55, 64
3, 24156, Note_off_c, 1, 59, 64
3, 24180, Note_on_c, 1, 48, 110
3, 24228, Note_off_c, 1, 48, 64
3, 24240, Note_on_c, 1, 60, 110
3, 24240, Note_on_c, 1, 60, 110
3, 24288, Note_off_c, 1, 60, 64
3, 24300, Note_on_c, 1, 55, 110
3, 24336, Note_off_c, 1, 60, 64
3, 24348, Note_off_c, 1, 55, 64
3, 24360, Note_on_c, 1, 51, 110
3, 24408, Note_off_c, 1, 51, 64
3, 24420, Note_on_c, 1, 48, 110
3, 24468, Note_off_c, 1, 48, 64
3, 24480, Note_on_c, 1, 47, 110
3, 24528, Note_off_c, 1, 47, 64
3, 24540, Note_on_c, 1, 48, 110
3, 24588, Note_off_c, 1, 48, 64
3, 24600, Note_on_c, 1, 50, 110
3, 24648, Note_off_c, 1, 50, 64
3, 24660, Note_on_c, 1, 52, 110
3, 24708, Note_off_c, 1, 52, 64
3, 24720, Note_on_c, 1, 50, 110
3, 24768, Note_off_c, 1, 50, 64
3, 24780, Note_on_c, 1, 48, 110
3, 24828, Note_off_c, 1, 48, 64
3, 24840, Note_on_c, 1, 53, 110
3, 24888, Note_off_c, 1, 53, 64
3, 24900, Note_on_c, 1, 55, 110
3, 24948, Note_off_c, 1, 55, 64
3, 24960, Note_on_c, 1, 57, 110
3, 25008, Note_off_c, 1, 57, 64
3, 25020, Note_on_c, 1, 58, 110
3, 25068, Note_off_c, 1, 58, 64
3, 25080, Note_on_c, 1, 60, 110
3, 25128, Note_off_c, 1, 60, 64
3, 25140, Note_on_c, 1, 57, 110
3, 25188, Note_off_c, 1, 57, 64
3, 25200, Note_on_c, 1, 55, 110
3, 25248, Note_off_c, 1, 55, 64
3, 25260, Note_on_c, 1, 53, 110
3, 25356, Note_off_c, 1, 53, 64
3, 25380, Note_on_c, 1, 58, 110
3, 25476, Note_off_c, 1, 58, 64
3, 25500, Note_on_c, 1, 50, 110
3, 25596, Note_off_c, 1, 50, 64
3, 25620, Note_on_c, 1, 51, 110
3, 25716, Note_off_c, 1, 51, 64
3, 25740, Note_on_c, 1, 39, 110
3, 25836, Note_off_c, 1, 39, 64
3, 25860, Note_on_c, 1, 51, 110
3, 25956, Note_off_c, 1, 51, 64
3, 25980, Note_on_c, 1, 48, 110
3, 26076, Note_off_c, 1, 48, 64
3, 26100, Note_on_c, 1, 53, 110
3, 26148, Note_off_c, 1, 53, 64
3, 26160, Note_on_c, 1, 41, 110
3, 26208, Note_off_c, 1, 41, 64
3, 26220, Note_on_c, 1, 45, 110
3, 26268, Note_off_c, 1, 45, 64
3, 26280, Note_on_c, 1, 48, 110
3, 26328, Note_off_c, 1, 48, 64
3, 26340, Note_on_c, 1, 51, 110
3, 26388, Note_off_c, 1, 51, 64
3, 26400, Note_on_c, 1, 55, 110
3, 26448, Note_off_c, 1, 55, 64
3, 26460, Note_on_c, 1, 53, 110
3, 26508, Note_off_c, 1, 53, 64
3, 26520, Note_on_c, 1, 51, 110
3, 26568, Note_off_c, 1, 51, 64
3, 26580, Note_on_c, 1, 50, 110
3, 26628, Note_off_c, 1, 50, 64
3, 26640, Note_on_c, 1, 48, 110
3, 26688, Note_off_c, 1, 48, 64
3, 26700, Note_on_c, 1, 46, 110
3, 26748, Note_off_c, 1, 46, 64
3, 26760, Note_on_c, 1, 51, 110
3, 26808, Note_off_c, 1, 51, 64
3, 26820, Note_on_c, 1, 53, 110
3, 26916, Note_off_c, 1, 53, 64
3, 26940, Note_on_c, 1, 41, 110
3, 27036, Note_off_c, 1, 41, 64
3, 27060, Note_on_c, 1, 46, 110
3, 27108, Note_off_c, 1, 46, 64
3, 27120, Note_on_c, 1, 58, 110
3, 27168, Note_off_c, 1, 58, 64
3, 27180, Note_on_c, 1, 53, 110
3, 27228, Note_off_c, 1, 53, 64
3, 27240, Note_on_c, 1, 50, 110
3, 27288, Note_off_c, 1, 50, 64
3, 27300, Note_on_c, 1, 46, 110
3, 27348, Note_off_c, 1, 46, 64
3, 27360, Note_on_c, 1, 43, 110
3, 27408, Note_off_c, 1, 43, 64
3, 27420, Note_on_c, 1, 45, 110
3, 27468, Note_off_c, 1, 45, 64
3, 27480, Note_on_c, 1, 46, 110
3, 27528, Note_off_c, 1, 46, 64
3, 27540, Note_on_c, 1, 48, 110
3, 27588, Note_off_c, 1, 48, 64
3, 27600, Note_on_c, 1, 46, 110
3, 27648, Note_off_c, 1, 46, 64
3, 27660, Note_on_c, 1, 45, 110
3, 27708, Note_off_c, 1, 45, 64
3, 27720, Note_on_c, 1, 50, 110
3, 27768, Note_off_c, 1, 50, 64
3, 27780, Note_on_c, 1, 52, 110
3, 27828, Note_off_c, 1, 52, 64
3, 27840, Note_on_c, 1, 54, 110
3, 27888, Note_off_c, 1, 54, 64
3, 27900, Note_on_c, 1, 55, 110
3, 27948, Note_off_c, 1, 55, 64
3, 27960, Note_on_c, 1, 57, 110
3, 28008, Note_off_c, 1, 57, 64
3, 28020, Note_on_c, 1, 50, 110
3, 28308, Note_off_c, 1, 50, 64
3, 28320, Note_on_c, 1, 55, 110
3, 28368, Note_off_c, 1, 55, 64
3, 28380, Note_on_c, 1, 54, 110
3, 28428, Note_off_c, 1, 54, 64
3, 28440, Note_on_c, 1, 55, 110
3, 28488, Note_off_c, 1, 55, 64
3, 28500, Note_on_c, 1, 48, 110
3, 28596, Note_off_c, 1, 48, 64
3, 28620, Note_on_c, 1, 46, 110
3, 28716, Note_off_c, 1, 46, 64
3, 28740, Note_on_c, 1, 48, 110
3, 28836, Note_off_c, 1, 48, 64
3, 28860, Note_on_c, 1, 50, 110
3, 28956, Note_off_c, 1, 50, 64
3, 28980, Note_on_c, 1, 55, 110
3, 29028, Note_off_c, 1, 55, 64
3, 29040, Note_on_c, 1, 43, 110
3, 29088, Note_off_c, 1, 43, 64
3, 29100, Note_on_c, 1, 46, 110
3, 29148, Note_off_c, 1, 46, 64
3, 29160, Note_on_c, 1, 50, 110
3, 29208, Note_off_c, 1, 50, 64
3, 29220, Note_on_c, 1, 55, 110
3, 29268, Note_off_c, 1, 55, 64
3, 29280, Note_on_c, 1, 55, 110
3, 29328, Note_off_c, 1, 55, 64
3, 29340, Note_on_c, 1, 53, 110
3, 29388, Note_off_c, 1, 53, 64
3, 29400, Note_on_c, 1, 51, 110
3, 29448, Note_off_c, 1, 51, 64
3, 29460, Note_on_c, 1, 50, 110
3, 29508, Note_off_c, 1, 50, 64
3, 29520, Note_on_c, 1, 51, 110
3, 29568, Note_off_c, 1, 51, 64
3, 29580, Note_on_c, 1, 53, 110
3, 29628, Note_off_c, 1, 53, 64
3, 29640, Note_on_c, 1, 48, 110
3, 29688, Note_off_c, 1, 48, 64
3, 29700, Note_on_c, 1, 46, 110
3, 29748, Note_off_c, 1, 46, 64
3, 29760, Note_on_c, 1, 44, 110
3, 29808, Note_off_c, 1, 44, 64
3, 29820, Note_on_c, 1, 43, 110
3, 29868, Note_off_c, 1, 43, 64
3, 29880, Note_on_c, 1, 41, 110
3, 29928, Note_off_c, 1, 41, 64
3, 29940, Note_on_c, 1, 39, 110
3, 30132, Note_off_c, 1, 39, 64
3, 30180, Note_on_c, 1, 51, 110
3, 30468, Note_off_c, 1, 51, 64
3, 30480, Note_on_c, 1, 67, 110
3, 30528, Note_off_c, 1, 67, 64
3, 30540, Note_on_c, 1, 65, 110
3, 30588, Note_off_c, 1, 65, 64
3, 30600, Note_on_c, 1, 63, 110
3, 30648, Note_off_c, 1, 63, 64
3, 30660, Note_on_c, 1, 62, 110
3, 30708, Note_off_c, 1, 62, 64
3, 30720, Note_on_c, 1, 63, 110
3, 30768, Note_off_c, 1, 63, 64
3, 30780, Note_on_c, 1, 65, 110
3, 30828, Note_off_c, 1, 65, 64
3, 30840, Note_on_c, 1, 56, 110
3, 30888, Note_off_c, 1, 56, 64
3, 30900, Note_on_c, 1, 55, 110
3, 30948, Note_off_c, 1, 55, 64
3, 30960, Note_on_c, 1, 53, 110
3, 31008, Note_off_c, 1, 53, 64
3, 31020, Note_on_c, 1, 51, 110
3, 31068, Note_off_c, 1, 51, 64
3, 31080, Note_on_c, 1, 50, 110
3, 31128, Note_off_c, 1, 50, 64
3, 31140, Note_on_c, 1, 48, 110
3, 31188, Note_off_c, 1, 48, 64
3, 31200, Note_on_c, 1, 50, 110
3, 31248, Note_off_c, 1, 50, 64
3, 31260, Note_on_c, 1, 51, 110
3, 31308, Note_off_c, 1, 51, 64
3, 31320, Note_on_c, 1, 43, 110
3, 31368, Note_off_c, 1, 43, 64
3, 31380, Note_on_c, 1, 42, 110
3, 31476, Note_off_c, 1, 42, 64
3, 31500, Note_on_c, 1, 43, 110
3, 31596, Note_off_c, 1, 43, 64
3, 31620, Note_on_c, 1, 48, 110
3, 31716, Note_off_c, 1, 48, 64
3, 31740, Note_on_c, 1, 45, 110
3, 31836, Note_off_c, 1, 45, 64
3, 31860, Note_on_c, 1, 50, 110
3, 31956, Note_off_c, 1, 50, 64
3, 32040, Note_on_c, 1, 63, 110
3, 32088, Note_off_c, 1, 63, 64
3, 32100, Note_on_c, 1, 62, 110
3, 32148, Note_off_c, 1, 62, 64
3, 32160, Note_on_c, 1, 60, 110
3, 32208, Note_off_c, 1, 60, 64
3, 32220, Note_on_c, 1, 58, 110
3, 32268, Note_off_c, 1, 58, 64
3, 32280, Note_on_c, 1, 57, 110
3, 32328, Note_off_c, 1, 57, 64
3, 32340, Note_on_c, 1, 58, 110
3, 32388, Note_off_c, 1, 58, 64
3, 32400, Note_on_c, 1, 60, 110
3, 32448, Note_off_c, 1, 60, 64
3, 32460, Note_on_c, 1, 62, 110
3, 32508, Note_off_c, 1, 62, 64
3, 32520, Note_on_c, 1, 58, 110
3, 32568, Note_off_c, 1, 58, 64
3, 32580, Note_on_c, 1, 57, 110
3, 32628, Note_off_c, 1, 57, 64
3, 32640, Note_on_c, 1, 55, 110
3, 32688, Note_off_c, 1, 55, 64
3, 32700, Note_on_c, 1, 54, 110
3, 32748, Note_off_c, 1, 54, 64
3, 32760, Note_on_c, 1, 52, 110
3, 32808, Note_off_c, 1, 52, 64
3, 32820, Note_on_c, 1, 54, 110
3, 32868, Note_off_c, 1, 54, 64
3, 32880, Note_on_c, 1, 55, 110
3, 32928, Note_off_c, 1, 55, 64
3, 32940, Note_on_c, 1, 57, 110
3, 32988, Note_off_c, 1, 57, 64
3, 33000, Note_on_c, 1, 51, 110
3, 33048, Note_off_c, 1, 51, 64
3, 33060, Note_on_c, 1, 50, 110
3, 33108, Note_off_c, 1, 50, 64
3, 33120, Note_on_c, 1, 48, 110
3, 33168, Note_off_c, 1, 48, 64
3, 33180, Note_on_c, 1, 46, 110
3, 33228, Note_off_c, 1, 46, 64
3, 33240, Note_on_c, 1, 45, 110
3, 33288, Note_off_c, 1, 45, 64
3, 33300, Note_on_c, 1, 46, 110
3, 33396, Note_off_c, 1, 46, 64
3, 33420, Note_on_c, 1, 48, 110
3, 33516, Note_off_c, 1, 48, 64
3, 33540, Note_on_c, 1, 50, 110
3, 33636, Note_off_c, 1, 50, 64
3, 33660, Note_on_c, 1, 38, 110
3, 33756, Note_off_c, 1, 38, 64
3, 33780, Note_on_c, 1, 43, 110
3, 33972, Note_off_c, 1, 43, 64
3, 34200, Note_on_c, 1, 54, 110
3, 34248, Note_off_c, 1, 54, 64
3, 34260, Note_on_c, 1, 55, 110
3, 34320, Note_on_c, 1, 46, 110
3, 34368, Note_off_c, 1, 46, 64
3, 34380, Note_on_c, 1, 48, 110
3, 34428, Note_off_c, 1, 48, 64
3, 34440, Note_on_c, 1, 50, 110
3, 34488, Note_off_c, 1, 50, 64
3, 34500, Note_on_c, 1, 43, 110
3, 34548, Note_off_c, 1, 55, 64
3, 34596, Note_off_c, 1, 43, 64
3, 34800, Note_on_c, 1, 50, 110
3, 35088, Note_off_c, 1, 50, 64
3, 35100, Note_on_c, 1, 57, 110
3, 35148, Note_off_c, 1, 57, 64
3, 35160, Note_on_c, 1, 58, 110
3, 35208, Note_off_c, 1, 58, 64
3, 35220, Note_on_c, 1, 60, 110
3, 35268, Note_off_c, 1, 60, 64
3, 35280, Note_on_c, 1, 53, 110
3, 35376, Note_off_c, 1, 53, 64
3, 35400, Note_on_c, 1, 60, 110
3, 35400, Note_on_c, 1, 51, 110
3, 35496, Note_off_c, 1, 51, 64
3, 35520, Note_on_c, 1, 53, 110
3, 35592, Note_off_c, 1, 60, 64
3, 35616, Note_off_c, 1, 53, 64
3, 35640, Note_on_c, 1, 59, 110
3, 35640, Note_on_c, 1, 55, 110
3, 35736, Note_off_c, 1, 55, 64
3, 35736, Note_off_c, 1, 59, 64
3, 35760, Note_on_c, 1, 48, 110
3, 35808, Note_off_c, 1, 48, 64
3, 35820, Note_on_c, 1, 60, 110
3, 35820, Note_on_c, 1, 60, 110
3, 35868, Note_off_c, 1, 60, 64
3, 35880, Note_on_c, 1, 55, 110
3, 35916, Note_off_c, 1, 60, 64
3, 35928, Note_off_c, 1, 55, 64
3, 35940, Note_on_c, 1, 51, 110
3, 35988, Note_off_c, 1, 51, 64
3, 36000, Note_on_c, 1, 48, 110
3, 36048, Note_off_c, 1, 48, 64
3, 36060, Note_on_c, 1, 47, 110
3, 36108, Note_off_c, 1, 47, 64
3, 36120, Note_on_c, 1, 48, 110
3, 36168, Note_off_c, 1, 48, 64
3, 36180, Note_on_c, 1, 50, 110
3, 36228, Note_off_c, 1, 50, 64
3, 36240, Note_on_c, 1, 52, 110
3, 36288, Note_off_c, 1, 52, 64
3, 36300, Note_on_c, 1, 50, 110
3, 36348, Note_off_c, 1, 50, 64
3, 36360, Note_on_c, 1, 48, 110
3, 36408, Note_off_c, 1, 48, 64
3, 36420, Note_on_c, 1, 53, 110
3, 36468, Note_off_c, 1, 53, 64
3, 36480, Note_on_c, 1, 55, 110
3, 36528, Note_off_c, 1, 55, 64
3, 36540, Note_on_c, 1, 57, 110
3, 36588, Note_off_c, 1, 57, 64
3, 36600, Note_on_c, 1, 58, 110
3, 36648, Note_off_c, 1, 58, 64
3, 36660, Note_on_c, 1, 60, 110
3, 36708, Note_off_c, 1, 60, 64
3, 36720, Note_on_c, 1, 57, 110
3, 36768, Note_off_c, 1, 57, 64
3, 36780, Note_on_c, 1, 55, 110
3, 36828, Note_off_c, 1, 55, 64
3, 36840, Note_on_c, 1, 53, 110
3, 36936, Note_off_c, 1, 53, 64
3, 36960, Note_on_c, 1, 58, 110
3, 37056, Note_off_c, 1, 58, 64
3, 37080, Note_on_c, 1, 50, 110
3, 37176, Note_off_c, 1, 50, 64
3, 37200, Note_on_c, 1, 51, 110
3, 37296, Note_off_c, 1, 51, 64
3, 37320, Note_on_c, 1, 39, 110
3, 37416, Note_off_c, 1, 39, 64
3, 37440, Note_on_c, 1, 51, 110
3, 37536, Note_off_c, 1, 51, 64
3, 37560, Note_on_c, 1, 48, 110
3, 37656, Note_off_c, 1, 48, 64
3, 37680, Note_on_c, 1, 53, 110
3, 37728, Note_off_c, 1, 53, 64
3, 37740, Note_on_c, 1, 41, 110
3, 37788, Note_off_c, 1, 41, 64
3, 37800, Note_on_c, 1, 45, 110
3, 37848, Note_off_c, 1, 45, 64
3, 37860, Note_on_c, 1, 48, 110
3, 37908, Note_off_c, 1, 48, 64
3, 37920, Note_on_c, 1, 51, 110
3, 37968, Note_off_c, 1, 51, 64
3, 37980, Note_on_c, 1, 55, 110
3, 38028, Note_off_c, 1, 55, 64
3, 38040, Note_on_c, 1, 53, 110
3, 38088, Note_off_c, 1, 53, 64
3, 38100, Note_on_c, 1, 51, 110
3, 38148, Note_off_c, 1, 51, 64
3, 38160, Note_on_c, 1, 50, 110
3, 38208, Note_off_c, 1, 50, 64
3, 38220, Note_on_c, 1, 48, 110
3, 38268, Note_off_c, 1, 48, 64
3, 38280, Note_on_c, 1, 46, 110
3, 38328, Note_off_c, 1, 46, 64
3, 38340, Note_on_c, 1, 51, 110
3, 38388, Note_off_c, 1, 51, 64
3, 38400, Note_on_c, 1, 53, 110
3, 38496, Note_off_c, 1, 53, 64
3, 38520, Note_on_c, 1, 41, 110
3, 38616, Note_off_c, 1, 41, 64
3, 38640, Note_on_c, 1, 46, 110
3, 38688, Note_off_c, 1, 46, 64
3, 38700, Note_on_c, 1, 58, 110
3, 38748, Note_off_c, 1, 58, 64
3, 38760, Note_on_c, 1, 53, 110
3, 38808, Note_off_c, 1, 53, 64
3, 38820, Note_on_c, 1, 50, 110
3, 38868, Note_off_c, 1, 50, 64
3, 38880, Note_on_c, 1, 46, 110
3, 38928, Note_off_c, 1, 46, 64
3, 38940, Note_on_c, 1, 43, 110
3, 38988, Note_off_c, 1, 43, 64
3, 39000, Note_on_c, 1, 45, 110
3, 39048, Note_off_c, 1, 45, 64
3, 39060, Note_on_c, 1, 46, 110
3, 39108, Note_off_c, 1, 46, 64
3, 39120, Note_on_c, 1, 48, 110
3, 39168, Note_off_c, 1, 48, 64
3, 39180, Note_on_c, 1, 46, 110
3, 39228, Note_off_c, 1, 46, 64
3, 39240, Note_on_c, 1, 45, 110
3, 39288, Note_off_c, 1, 45, 64
3, 39300, Note_on_c, 1, 50, 110
3, 39348, Note_off_c, 1, 50, 64
3, 39360, Note_on_c, 1, 52, 110
3, 39408, Note_off_c, 1, 52, 64
3, 39420, Note_on_c, 1, 54, 110
3, 39468, Note_off_c, 1, 54, 64
3, 39480, Note_on_c, 1, 55, 110
3, 39528, Note_off_c, 1, 55, 64
3, 39540, Note_on_c, 1, 57, 110
3, 39588, Note_off_c, 1, 57, 64
3, 39600, Note_on_c, 1, 50, 110
3, 39888, Note_off_c, 1, 50, 64
3, 39900, Note_on_c, 1, 55, 110
3, 39948, Note_off_c, 1, 55, 64
3, 39960, Note_on_c, 1, 54, 110
3, 40008, Note_off_c, 1, 54, 64
3, 40020, Note_on_c, 1, 55, 110
3, 40068, Note_off_c, 1, 55, 64
3, 40080, Note_on_c, 1, 48, 110
3, 40176, Note_off_c, 1, 48, 64
3, 40200, Note_on_c, 1, 46, 110
3, 40296, Note_off_c, 1, 46, 64
3, 40320, Note_on_c, 1, 48, 110
3, 40416, Note_off_c, 1, 48, 64
3, 40440, Note_on_c, 1, 50, 110
3, 40536, Note_off_c, 1, 50, 64
3, 40560, Note_on_c, 1, 55, 110
3, 40608, Note_off_c, 1, 55, 64
3, 40620, Note_on_c, 1, 43, 110
3, 40668, Note_off_c, 1, 43, 64
3, 40680, Note_on_c, 1, 46, 110
3, 40728, Note_off_c, 1, 46, 64
3, 40740, Note_on_c, 1, 50, 110
3, 40788, Note_off_c, 1, 50, 64
3, 40800, Note_on_c, 1, 55, 110
3, 40848, Note_off_c, 1, 55, 64
3, 40860, Note_on_c, 1, 55, 110
3, 40908, Note_off_c, 1, 55, 64
3, 40920, Note_on_c, 1, 53, 110
3, 40968, Note_off_c, 1, 53, 64
3, 40980, Note_on_c, 1, 51, 110
3, 41028, Note_off_c, 1, 51, 64
3, 41040, Note_on_c, 1, 50, 110
3, 41088, Note_off_c, 1, 50, 64
3, 41100, Note_on_c, 1, 51, 110
3, 41148, Note_off_c, 1, 51, 64
3, 41160, Note_on_c, 1, 53, 110
3, 41208, Note_off_c, 1, 53, 64
3, 41220, Note_on_c, 1, 48, 110
3, 41268, Note_off_c, 1, 48, 64
3, 41280, Note_on_c, 1, 46, 110
3, 41328, Note_off_c, 1, 46, 64
3, 41340, Note_on_c, 1, 44, 110
3, 41388, Note_off_c, 1, 44, 64
3, 41400, Note_on_c, 1, 43, 110
3, 41448, Note_off_c, 1, 43, 64
3, 41460, Note_on_c, 1, 41, 110
3, 41508, Note_off_c, 1, 41, 64
3, 41520, Note_on_c, 1, 39, 110
3, 41712, Note_off_c, 1, 39, 64
3, 41760, Note_on_c, 1, 51, 110
3, 42048, Note_off_c, 1, 51, 64
3, 42060, Note_on_c, 1, 67, 110
3, 42108, Note_off_c, 1, 67, 64
3, 42120, Note_on_c, 1, 65, 110
3, 42168, Note_off_c, 1, 65, 64
3, 42180, Note_on_c, 1, 63, 110
3, 42228, Note_off_c, 1, 63, 64
3, 42240, Note_on_c, 1, 62, 110
3, 42288, Note_off_c, 1, 62, 64
3, 42300, Note_on_c, 1, 63, 110
3, 42348, Note_off_c, 1, 63, 64
3, 42360, Note_on_c, 1, 65, 110
3, 42408, Note_off_c, 1, 65, 64
3, 42420, Note_on_c, 1, 56, 110
3, 42468, Note_off_c, 1, 56, 64
3, 42480, Note_on_c, 1, 55, 110
3, 42528, Note_off_c, 1, 55, 64
3, 42540, Note_on_c, 1, 53, 110
3, 42588, Note_off_c, 1, 53, 64
3, 42600, Note_on_c, 1, 51, 110
3, 42648, Note_off_c, 1, 51, 64
3, 42660, Note_on_c, 1, 50, 110
3, 42708, Note_off_c, 1, 50, 64
3, 42720, Note_on_c, 1, 48, 110
3, 42768, Note_off_c, 1, 48, 64
3, 42780, Note_on_c, 1, 50, 110
3, 42828, Note_off_c, 1, 50, 64
3, 42840, Note_on_c, 1, 51, 110
3, 42888, Note_off_c, 1, 51, 64
3, 42900, Note_on_c, 1, 43, 110
3, 42948, Note_off_c, 1, 43, 64
3, 42960, Note_on_c, 1, 42, 110
3, 43056, Note_off_c, 1, 42, 64
3, 43080, Note_on_c, 1, 43, 110
3, 43176, Note_off_c, 1, 43, 64
3, 43200, Note_on_c, 1, 48, 110
3, 43296, Note_off_c, 1, 48, 64
3, 43320, Note_on_c, 1, 45, 110
3, 43416, Note_off_c, 1, 45, 64
3, 43440, Note_on_c, 1, 50, 110
3, 43536, Note_off_c, 1, 50, 64
3, 43620, Note_on_c, 1, 63, 110
3, 43668, Note_off_c, 1, 63, 64
3, 43680, Note_on_c, 1, 62, 110
3, 43728, Note_off_c, 1, 62, 64
3, 43740, Note_on_c, 1, 60, 110
3, 43788, Note_off_c, 1, 60, 64
3, 43800, Note_on_c, 1, 58, 110
3, 43848, Note_off_c, 1, 58, 64
3, 43860, Note_on_c, 1, 57, 110
3, 43908, Note_off_c, 1, 57, 64
3, 43920, Note_on_c, 1, 58, 110
3, 43968, Note_off_c, 1, 58, 64
3, 43980, Note_on_c, 1, 60, 110
3, 44028, Note_off_c, 1, 60, 64
3, 44040, Note_on_c, 1, 62, 110
3, 44088, Note_off_c, 1, 62, 64
3, 44100, Note_on_c, 1, 58, 110
3, 44148, Note_off_c, 1, 58, 64
3, 44160, Note_on_c, 1, 57, 110
3, 44208, Note_off_c, 1, 57, 64
3, 44220, Note_on_c, 1, 55, 110
3, 44268, Note_off_c, 1, 55, 64
3, 44280, Note_on_c, 1, 54, 110
3, 44328, Note_off_c, 1, 54, 64
3, 44340, Note_on_c, 1, 52, 110
3, 44388, Note_off_c, 1, 52, 64
3, 44400, Note_on_c, 1, 54, 110
3, 44448, Note_off_c, 1, 54, 64
3, 44460, Note_on_c, 1, 55, 110
3, 44508, Note_off_c, 1, 55, 64
3, 44520, Note_on_c, 1, 57, 110
3, 44568, Note_off_c, 1, 57, 64
3, 44580, Note_on_c, 1, 51, 110
3, 44628, Note_off_c, 1, 51, 64
3, 44640, Note_on_c, 1, 50, 110
3, 44688, Note_off_c, 1, 50, 64
3, 44700, Note_on_c, 1, 48, 110
3, 44748, Note_off_c, 1, 48, 64
3, 44760, Note_on_c, 1, 46, 110
3, 44808, Note_off_c, 1, 46, 64
3, 44820, Note_on_c, 1, 45, 110
3, 44868, Note_off_c, 1, 45, 64
3, 44880, Note_on_c, 1, 46, 110
3, 44976, Note_off_c, 1, 46, 64
3, 45000, Note_on_c, 1, 48, 110
3, 45096, Note_off_c, 1, 48, 64
3, 45120, Note_on_c, 1, 50, 110
3, 45216, Note_off_c, 1, 50, 64
3, 45240, Note_on_c, 1, 38, 110
3, 45336, Note_off_c, 1, 38, 64
3, 45360, Note_on_c, 1, 43, 110
3, 45552, Note_off_c, 1, 43, 64
3, 45780, Note_on_c, 1, 54, 110
3, 45828, Note_off_c, 1, 54, 64
3, 45840, Note_on_c, 1, 55, 110
3, 45900, Note_on_c, 1, 46, 110
3, 45948, Note_off_c, 1, 46, 64
3, 45960, Note_on_c, 1, 48, 110
3, 46008, Note_off_c, 1, 48, 64
3, 46020, Note_on_c, 1, 50, 110
3, 46068, Note_off_c, 1, 50, 64
3, 46080, Note_on_c, 1, 43, 110
3, 46128, Note_off_c, 1, 55, 64
3, 46176, Note_off_c, 1, 43, 64
3, 46176, End_track
4, 0, Start_track
4, 0, Title_t, "Arr. Gary Bricault, (c) 1997"
4, 0, End_track
0, 0, End_of_file
