0, 0, Header, 1, 3, 384
1, 0, Start_track
1, 0, Time_signature, 4, 2, 24, 8
1, 0, Tempo, 500000
1, 319488, End_track
2, 0, Start_track
2, 0, Text_t, "harpsichord: John Sankey"
2, 0, Program_c, 0, 6
2, 0, Pitch_bend_c, 0, 8192
2, 0, Program_c, 1, 6
2, 0, Pitch_bend_c, 1, 7792
2, 0, Program_c, 2, 6
2, 0, Pitch_bend_c, 2, 7876
2, 0, Program_c, 3, 6
2, 0, Pitch_bend_c, 3, 7952
2, 0, Program_c, 4, 6
2, 0, Pitch_bend_c, 4, 7792
2, 0, Program_c, 5, 6
2, 0, Pitch_bend_c, 5, 8112
2, 0, Program_c, 6, 6
2, 0, Pitch_bend_c, 6, 7712
2, 0, Program_c, 7, 6
2, 0, Pitch_bend_c, 7, 8037
2, 0, Program_c, 8, 6
2, 0, Pitch_bend_c, 8, 7872
2, 0, Program_c, 10, 6
2, 0, Pitch_bend_c, 10, 7712
2, 0, Program_c, 11, 6
2, 0, Pitch_bend_c, 11, 8032
2, 0, Program_c, 12, 6
2, 0, Pitch_bend_c, 12, 7872
2, 0, Title_t, "Track 1"
2, 32, Note_on_c, 1, 49, 127
2, 347, Note_off_c, 1, 49, 127
2, 348, Note_on_c, 4, 52, 127
2, 663, Note_off_c, 4, 52, 127
2, 665, Note_on_c, 8, 56, 127
2, 980, Note_off_c, 8, 56, 127
2, 982, Note_on_c, 1, 61, 127
2, 1138, Note_off_c, 1, 61, 127
2, 1140, Note_on_c, 0, 60, 127
2, 1296, Note_off_c, 0, 60, 127
2, 1299, Note_on_c, 1, 61, 127
2, 1616, Note_on_c, 8, 68, 127
2, 1931, Note_off_c, 8, 68, 127
2, 1932, Note_on_c, 4, 64, 127
2, 1932, Note_on_c, 1, 73, 127
2, 2088, Note_off_c, 1, 73, 127
2, 2091, Note_on_c, 0, 72, 127
2, 2247, Note_off_c, 0, 72, 127
2, 2249, Note_on_c, 1, 73, 127
2, 2564, Note_off_c, 1, 73, 127
2, 2566, Note_on_c, 4, 76, 127
2, 2880, Note_off_c, 4, 64, 127
2, 2881, Note_off_c, 4, 76, 127
2, 2883, Note_on_c, 6, 66, 127
2, 2883, Note_on_c, 4, 76, 127
2, 3163, Note_off_c, 1, 61, 127
2, 3200, Note_on_c, 12, 59, 127
2, 3514, Note_off_c, 4, 76, 127
2, 3515, Note_off_c, 12, 59, 127
2, 3516, Note_on_c, 3, 75, 127
2, 3516, Note_on_c, 10, 57, 127
2, 3831, Note_off_c, 10, 57, 127
2, 3831, Note_off_c, 6, 66, 127
2, 3833, Note_on_c, 8, 68, 127
2, 3833, Note_on_c, 12, 59, 127
2, 4308, Note_off_c, 3, 75, 127
2, 4308, Note_on_c, 3, 75, 127
2, 4464, Note_off_c, 3, 75, 127
2, 4467, Note_on_c, 4, 76, 127
2, 4623, Note_off_c, 4, 76, 127
2, 4625, Note_on_c, 6, 78, 127
2, 4781, Note_off_c, 6, 78, 127
2, 4781, Note_off_c, 8, 68, 127
2, 4784, Note_on_c, 8, 80, 127
2, 4784, Note_on_c, 3, 63, 127
2, 4940, Note_off_c, 8, 80, 127
2, 4942, Note_on_c, 6, 78, 127
2, 5098, Note_off_c, 6, 78, 127
2, 5100, Note_on_c, 8, 80, 127
2, 5245, Note_off_c, 12, 59, 127
2, 5259, Note_on_c, 4, 52, 127
2, 5415, Note_off_c, 4, 52, 127
2, 5415, Note_off_c, 8, 80, 127
2, 5417, Note_on_c, 8, 80, 127
2, 5417, Note_on_c, 6, 54, 127
2, 5573, Note_off_c, 6, 54, 127
2, 5576, Note_on_c, 8, 56, 127
2, 5732, Note_off_c, 8, 56, 127
2, 5732, Note_off_c, 8, 80, 127
2, 5732, Note_off_c, 3, 63, 127
2, 5734, Note_on_c, 8, 80, 127
2, 5734, Note_on_c, 1, 61, 127
2, 5734, Note_on_c, 8, 56, 127
2, 6049, Note_off_c, 8, 56, 127
2, 6051, Note_on_c, 10, 57, 127
2, 6365, Note_off_c, 8, 80, 127
2, 6368, Note_on_c, 1, 73, 127
2, 6683, Note_off_c, 1, 73, 127
2, 6684, Note_on_c, 6, 78, 127
2, 6839, Note_on_c, 5, 77, 127
2, 6840, Note_off_c, 6, 78, 127
2, 6995, Note_off_c, 5, 77, 127
2, 6995, Note_on_c, 6, 78, 127
2, 7153, Note_off_c, 1, 61, 127
2, 7158, Note_off_c, 10, 57, 127
2, 7160, Note_on_c, 4, 76, 127
2, 7160, Note_on_c, 8, 56, 127
2, 7316, Note_off_c, 8, 56, 127
2, 7316, Note_off_c, 4, 76, 127
2, 7318, Note_on_c, 3, 75, 127
2, 7318, Note_on_c, 6, 54, 127
2, 7474, Note_off_c, 6, 54, 127
2, 7474, Note_off_c, 3, 75, 127
2, 7476, Note_on_c, 1, 73, 127
2, 7476, Note_on_c, 4, 52, 127
2, 7632, Note_off_c, 4, 52, 127
2, 7632, Note_off_c, 1, 73, 127
2, 7635, Note_on_c, 1, 73, 127
2, 7635, Note_on_c, 3, 51, 127
2, 7950, Note_off_c, 1, 73, 127
2, 7952, Note_on_c, 0, 72, 127
2, 8266, Note_off_c, 3, 51, 127
2, 8267, Note_off_c, 0, 72, 127
2, 8267, Note_off_c, 6, 78, 127
2, 8268, Note_on_c, 6, 78, 127
2, 8268, Note_on_c, 3, 75, 127
2, 8268, Note_on_c, 6, 54, 127
2, 8583, Note_off_c, 6, 54, 127
2, 8583, Note_off_c, 3, 75, 127
2, 8583, Note_off_c, 6, 78, 127
2, 8585, Note_on_c, 6, 78, 127
2, 8585, Note_on_c, 10, 69, 127
2, 8585, Note_on_c, 0, 48, 127
2, 8900, Note_off_c, 10, 69, 127
2, 8902, Note_on_c, 8, 68, 127
2, 9212, Note_off_c, 6, 78, 127
2, 9216, Note_off_c, 0, 48, 127
2, 9217, Note_off_c, 8, 68, 127
2, 9219, Note_on_c, 8, 80, 127
2, 9219, Note_on_c, 0, 72, 127
2, 9219, Note_on_c, 8, 44, 127
2, 9534, Note_off_c, 8, 44, 127
2, 9534, Note_off_c, 0, 72, 127
2, 9534, Note_off_c, 8, 80, 127
2, 9536, Note_on_c, 6, 78, 127
2, 9536, Note_on_c, 1, 73, 127
2, 9536, Note_on_c, 1, 49, 127
2, 9818, Note_on_c, 4, 76, 127
2, 9831, Note_off_c, 6, 78, 127
2, 9925, Note_off_c, 4, 76, 127
2, 9928, Note_on_c, 6, 78, 127
2, 10035, Note_off_c, 6, 78, 127
2, 10039, Note_on_c, 4, 76, 127
2, 10146, Note_off_c, 4, 76, 127
2, 10149, Note_on_c, 6, 78, 127
2, 10256, Note_off_c, 6, 78, 127
2, 10260, Note_on_c, 4, 76, 127
2, 10367, Note_off_c, 4, 76, 127
2, 10370, Note_on_c, 6, 78, 127
2, 10477, Note_off_c, 6, 78, 127
2, 10481, Note_on_c, 4, 76, 127
2, 10484, Note_off_c, 1, 49, 127
2, 10486, Note_on_c, 1, 37, 127
2, 10588, Note_off_c, 4, 76, 127
2, 10592, Note_on_c, 6, 78, 127
2, 10695, Note_off_c, 6, 78, 127
2, 10697, Note_on_c, 4, 76, 127
2, 10800, Note_off_c, 4, 76, 127
2, 10801, Note_off_c, 1, 73, 127
2, 10803, Note_on_c, 3, 75, 127
2, 10803, Note_on_c, 0, 72, 127
2, 11118, Note_off_c, 0, 72, 127
2, 11118, Note_off_c, 3, 75, 127
2, 11120, Note_on_c, 4, 76, 127
2, 11120, Note_on_c, 1, 73, 127
2, 11434, Note_off_c, 1, 37, 127
2, 11435, Note_off_c, 1, 73, 127
2, 11435, Note_off_c, 4, 76, 127
2, 11436, Note_on_c, 4, 76, 127
2, 11436, Note_on_c, 0, 72, 127
2, 11436, Note_on_c, 8, 44, 127
2, 11751, Note_off_c, 8, 44, 127
2, 11753, Note_on_c, 0, 48, 127
2, 12067, Note_off_c, 4, 76, 127
2, 12068, Note_off_c, 0, 48, 127
2, 12070, Note_on_c, 3, 75, 127
2, 12070, Note_on_c, 3, 51, 127
2, 12384, Note_off_c, 0, 72, 127
2, 12385, Note_off_c, 3, 51, 127
2, 12387, Note_on_c, 8, 56, 127
2, 12697, Note_off_c, 3, 75, 127
2, 12860, Note_off_c, 8, 56, 127
2, 12862, Note_on_c, 10, 57, 127
2, 13018, Note_off_c, 10, 57, 127
2, 13020, Note_on_c, 3, 75, 127
2, 13020, Note_on_c, 8, 56, 127
2, 13176, Note_off_c, 8, 56, 127
2, 13179, Note_on_c, 6, 54, 127
2, 13335, Note_off_c, 6, 54, 127
2, 13335, Note_off_c, 3, 75, 127
2, 13337, Note_on_c, 3, 75, 127
2, 13337, Note_on_c, 8, 56, 127
2, 13493, Note_off_c, 8, 56, 127
2, 13496, Note_on_c, 6, 54, 127
2, 13652, Note_off_c, 6, 54, 127
2, 13652, Note_off_c, 3, 75, 127
2, 13654, Note_on_c, 4, 76, 127
2, 13654, Note_on_c, 8, 56, 127
2, 13969, Note_off_c, 8, 56, 127
2, 13969, Note_off_c, 4, 76, 127
2, 13971, Note_on_c, 8, 68, 127
2, 13971, Note_on_c, 0, 72, 127
2, 13971, Note_on_c, 8, 56, 127
2, 14286, Note_off_c, 8, 56, 127
2, 14286, Note_off_c, 0, 72, 127
2, 14286, Note_off_c, 8, 68, 127
2, 14288, Note_on_c, 0, 72, 127
2, 14288, Note_on_c, 10, 69, 127
2, 14288, Note_on_c, 8, 56, 127
2, 14603, Note_off_c, 0, 72, 127
2, 14604, Note_on_c, 1, 73, 127
2, 14761, Note_off_c, 8, 56, 127
2, 14763, Note_on_c, 1, 49, 127
2, 14919, Note_off_c, 1, 49, 127
2, 14921, Note_on_c, 3, 51, 127
2, 15077, Note_off_c, 3, 51, 127
2, 15080, Note_on_c, 5, 53, 127
2, 15236, Note_off_c, 5, 53, 127
2, 15236, Note_off_c, 10, 69, 127
2, 15238, Note_on_c, 6, 54, 127
2, 15394, Note_off_c, 6, 54, 127
2, 15396, Note_on_c, 5, 53, 127
2, 15552, Note_off_c, 5, 53, 127
2, 15555, Note_on_c, 6, 54, 127
2, 15711, Note_off_c, 6, 54, 127
2, 15711, Note_off_c, 1, 73, 127
2, 15713, Note_on_c, 4, 76, 127
2, 15713, Note_on_c, 8, 56, 127
2, 15869, Note_off_c, 8, 56, 127
2, 15869, Note_off_c, 4, 76, 127
2, 15872, Note_on_c, 3, 75, 127
2, 15872, Note_on_c, 6, 54, 127
2, 16028, Note_off_c, 6, 54, 127
2, 16028, Note_off_c, 3, 75, 127
2, 16030, Note_on_c, 1, 73, 127
2, 16030, Note_on_c, 4, 52, 127
2, 16186, Note_off_c, 4, 52, 127
2, 16186, Note_off_c, 1, 73, 127
2, 16188, Note_on_c, 1, 73, 127
2, 16188, Note_on_c, 6, 54, 127
2, 16503, Note_off_c, 1, 73, 127
2, 16505, Note_on_c, 10, 81, 127
2, 16819, Note_off_c, 6, 54, 127
2, 16820, Note_off_c, 10, 81, 127
2, 16822, Note_on_c, 1, 73, 127
2, 16822, Note_on_c, 10, 69, 127
2, 16822, Note_on_c, 6, 54, 127
2, 17137, Note_off_c, 6, 54, 127
2, 17137, Note_off_c, 10, 69, 127
2, 17137, Note_off_c, 1, 73, 127
2, 17139, Note_on_c, 8, 68, 127
2, 17139, Note_on_c, 1, 73, 127
2, 17139, Note_on_c, 6, 54, 127
2, 17454, Note_off_c, 6, 54, 127
2, 17454, Note_off_c, 1, 73, 127
2, 17456, Note_on_c, 0, 72, 127
2, 17456, Note_on_c, 8, 56, 127
2, 17612, Note_off_c, 8, 56, 127
2, 17614, Note_on_c, 6, 54, 127
2, 17766, Note_off_c, 8, 68, 127
2, 17770, Note_off_c, 6, 54, 127
2, 17771, Note_off_c, 0, 72, 127
2, 17772, Note_on_c, 8, 68, 127
2, 17772, Note_on_c, 4, 52, 127
2, 17928, Note_off_c, 4, 52, 127
2, 17931, Note_on_c, 3, 51, 127
2, 18087, Note_off_c, 3, 51, 127
2, 18089, Note_on_c, 1, 73, 127
2, 18089, Note_on_c, 4, 52, 127
2, 18245, Note_off_c, 1, 73, 127
2, 18248, Note_on_c, 0, 72, 127
2, 18404, Note_off_c, 0, 72, 127
2, 18406, Note_on_c, 1, 73, 127
2, 18552, Note_off_c, 8, 68, 127
2, 18723, Note_on_c, 8, 56, 127
2, 19038, Note_off_c, 8, 56, 127
2, 19040, Note_on_c, 1, 61, 127
2, 19354, Note_off_c, 4, 52, 127
2, 19356, Note_on_c, 3, 51, 127
2, 19667, Note_off_c, 1, 61, 127
2, 19671, Note_off_c, 3, 51, 127
2, 19673, Note_on_c, 4, 64, 127
2, 19673, Note_on_c, 1, 49, 127
2, 19988, Note_off_c, 1, 49, 127
2, 19988, Note_off_c, 4, 64, 127
2, 19990, Note_on_c, 3, 63, 127
2, 19990, Note_on_c, 6, 54, 127
2, 20305, Note_off_c, 6, 54, 127
2, 20307, Note_on_c, 4, 52, 127
2, 20617, Note_off_c, 1, 73, 127
2, 20622, Note_off_c, 4, 52, 127
2, 20624, Note_on_c, 3, 75, 127
2, 20624, Note_on_c, 3, 51, 127
2, 20939, Note_off_c, 3, 51, 127
2, 20939, Note_off_c, 3, 75, 127
2, 20940, Note_on_c, 1, 73, 127
2, 20940, Note_on_c, 8, 56, 127
2, 21255, Note_off_c, 1, 73, 127
2, 21257, Note_on_c, 12, 71, 127
2, 21409, Note_off_c, 3, 63, 127
2, 21416, Note_on_c, 3, 63, 127
2, 21571, Note_off_c, 8, 56, 127
2, 21572, Note_off_c, 3, 63, 127
2, 21574, Note_on_c, 5, 65, 127
2, 21574, Note_on_c, 6, 54, 127
2, 21730, Note_off_c, 5, 65, 127
2, 21732, Note_on_c, 6, 66, 127
2, 21888, Note_off_c, 6, 66, 127
2, 21889, Note_off_c, 6, 54, 127
2, 21891, Note_on_c, 8, 68, 127
2, 21891, Note_on_c, 6, 54, 127
2, 22206, Note_off_c, 6, 54, 127
2, 22208, Note_on_c, 5, 53, 127
2, 22500, Note_off_c, 5, 53, 127
2, 22522, Note_off_c, 8, 68, 127
2, 22524, Note_on_c, 8, 68, 127
2, 22524, Note_on_c, 6, 54, 127
2, 22680, Note_off_c, 6, 54, 127
2, 22683, Note_on_c, 8, 56, 127
2, 22839, Note_off_c, 8, 56, 127
2, 22839, Note_off_c, 8, 68, 127
2, 22841, Note_on_c, 8, 68, 127
2, 22841, Note_on_c, 10, 57, 127
2, 23156, Note_off_c, 10, 57, 127
2, 23158, Note_on_c, 12, 59, 127
2, 23472, Note_off_c, 8, 68, 127
2, 23473, Note_off_c, 12, 59, 127
2, 23475, Note_on_c, 1, 61, 127
2, 23475, Note_on_c, 8, 56, 127
2, 23781, Note_off_c, 12, 71, 127
2, 23790, Note_off_c, 8, 56, 127
2, 23790, Note_off_c, 1, 61, 127
2, 23792, Note_on_c, 12, 71, 127
2, 23792, Note_on_c, 6, 66, 127
2, 23792, Note_on_c, 6, 54, 127
2, 23895, Note_off_c, 12, 71, 127
2, 23899, Note_on_c, 10, 69, 127
2, 24002, Note_off_c, 10, 69, 127
2, 24006, Note_on_c, 12, 71, 127
2, 24107, Note_off_c, 6, 54, 127
2, 24108, Note_on_c, 8, 56, 127
2, 24109, Note_off_c, 12, 71, 127
2, 24113, Note_on_c, 10, 69, 127
2, 24423, Note_off_c, 8, 56, 127
2, 24425, Note_on_c, 8, 68, 127
2, 24425, Note_on_c, 4, 52, 127
2, 24426, Note_off_c, 10, 69, 127
2, 24740, Note_off_c, 4, 52, 127
2, 24740, Note_off_c, 8, 68, 127
2, 24742, Note_on_c, 8, 68, 127
2, 24742, Note_on_c, 3, 51, 127
2, 25057, Note_off_c, 3, 51, 127
2, 25057, Note_off_c, 8, 68, 127
2, 25059, Note_on_c, 10, 69, 127
2, 25059, Note_on_c, 4, 52, 127
2, 25374, Note_off_c, 4, 52, 127
2, 25374, Note_off_c, 10, 69, 127
2, 25376, Note_off_c, 6, 66, 127
2, 25376, Note_on_c, 6, 66, 127
2, 25376, Note_on_c, 12, 71, 127
2, 25376, Note_on_c, 1, 49, 127
2, 25691, Note_off_c, 1, 49, 127
2, 25691, Note_off_c, 12, 71, 127
2, 25691, Note_off_c, 6, 66, 127
2, 25692, Note_on_c, 10, 69, 127
2, 25692, Note_on_c, 6, 66, 127
2, 25692, Note_on_c, 0, 48, 127
2, 26007, Note_off_c, 0, 48, 127
2, 26007, Note_off_c, 10, 69, 127
2, 26009, Note_on_c, 8, 68, 127
2, 26009, Note_on_c, 11, 46, 127
2, 26319, Note_off_c, 6, 66, 127
2, 26324, Note_off_c, 11, 46, 127
2, 26326, Note_on_c, 8, 44, 127
2, 26641, Note_off_c, 8, 44, 127
2, 26643, Note_on_c, 4, 64, 127
2, 26643, Note_on_c, 1, 49, 127
2, 26649, Note_off_c, 8, 68, 127
2, 26799, Note_off_c, 4, 64, 127
2, 26801, Note_on_c, 3, 63, 127
2, 26957, Note_off_c, 3, 63, 127
2, 26958, Note_off_c, 1, 49, 127
2, 26960, Note_on_c, 4, 64, 127
2, 26960, Note_on_c, 3, 51, 127
2, 27275, Note_off_c, 3, 51, 127
2, 27276, Note_on_c, 8, 68, 127
2, 27276, Note_on_c, 12, 47, 127
2, 27591, Note_off_c, 12, 47, 127
2, 27591, Note_off_c, 8, 68, 127
2, 27593, Note_on_c, 1, 73, 127
2, 27593, Note_on_c, 10, 45, 127
2, 27908, Note_off_c, 10, 45, 127
2, 27908, Note_off_c, 4, 64, 127
2, 27910, Note_on_c, 3, 63, 127
2, 27910, Note_on_c, 12, 47, 127
2, 28225, Note_off_c, 12, 47, 127
2, 28225, Note_off_c, 3, 63, 127
2, 28227, Note_on_c, 4, 64, 127
2, 28227, Note_on_c, 8, 44, 127
2, 28542, Note_off_c, 8, 44, 127
2, 28542, Note_off_c, 4, 64, 127
2, 28544, Note_on_c, 3, 63, 127
2, 28544, Note_on_c, 7, 43, 127
2, 28859, Note_off_c, 7, 43, 127
2, 28860, Note_on_c, 5, 41, 127
2, 29175, Note_off_c, 5, 41, 127
2, 29177, Note_off_c, 1, 73, 127
2, 29177, Note_on_c, 3, 75, 127
2, 29177, Note_on_c, 3, 39, 127
2, 29492, Note_off_c, 3, 39, 127
2, 29492, Note_off_c, 3, 75, 127
2, 29494, Note_on_c, 1, 73, 127
2, 29494, Note_on_c, 8, 44, 127
2, 29809, Note_off_c, 8, 44, 127
2, 29811, Note_on_c, 12, 47, 127
2, 30125, Note_off_c, 1, 73, 127
2, 30126, Note_off_c, 12, 47, 127
2, 30128, Note_on_c, 12, 71, 127
2, 30128, Note_on_c, 11, 46, 127
2, 30441, Note_off_c, 3, 63, 127
2, 30443, Note_off_c, 11, 46, 127
2, 30444, Note_on_c, 8, 68, 127
2, 30444, Note_on_c, 12, 47, 127
2, 30590, Note_off_c, 12, 71, 127
2, 30759, Note_off_c, 12, 47, 127
2, 30761, Note_on_c, 11, 70, 127
2, 30761, Note_on_c, 1, 49, 127
2, 31076, Note_off_c, 1, 49, 127
2, 31076, Note_off_c, 11, 70, 127
2, 31078, Note_on_c, 12, 71, 127
2, 31078, Note_on_c, 3, 51, 127
2, 31393, Note_off_c, 3, 51, 127
2, 31393, Note_off_c, 12, 71, 127
2, 31395, Note_on_c, 12, 71, 127
2, 31395, Note_on_c, 4, 52, 127
2, 31710, Note_off_c, 4, 52, 127
2, 31712, Note_on_c, 6, 54, 127
2, 32026, Note_off_c, 12, 71, 127
2, 32027, Note_off_c, 6, 54, 127
2, 32028, Note_off_c, 8, 68, 127
2, 32028, Note_on_c, 11, 70, 127
2, 32028, Note_on_c, 3, 51, 127
2, 32343, Note_off_c, 3, 51, 127
2, 32345, Note_on_c, 7, 67, 127
2, 32345, Note_on_c, 1, 49, 127
2, 32655, Note_off_c, 11, 70, 127
2, 32660, Note_off_c, 1, 49, 127
2, 32662, Note_on_c, 3, 51, 127
2, 32976, Note_off_c, 7, 67, 127
2, 32977, Note_off_c, 3, 51, 127
2, 32979, Note_on_c, 12, 71, 127
2, 32979, Note_on_c, 8, 68, 127
2, 32979, Note_on_c, 12, 47, 127
2, 33294, Note_off_c, 12, 47, 127
2, 33294, Note_off_c, 8, 68, 127
2, 33294, Note_off_c, 12, 71, 127
2, 33296, Note_on_c, 11, 70, 127
2, 33296, Note_on_c, 1, 73, 127
2, 33296, Note_on_c, 11, 46, 127
2, 33452, Note_off_c, 11, 46, 127
2, 33454, Note_on_c, 12, 47, 127
2, 33610, Note_off_c, 12, 47, 127
2, 33612, Note_on_c, 1, 49, 127
2, 33927, Note_off_c, 1, 49, 127
2, 33929, Note_on_c, 11, 46, 127
2, 34244, Note_off_c, 11, 46, 127
2, 34246, Note_on_c, 3, 39, 127
2, 34561, Note_off_c, 1, 73, 127
2, 34563, Note_on_c, 4, 76, 127
2, 34878, Note_off_c, 4, 76, 127
2, 34880, Note_off_c, 11, 70, 127
2, 34880, Note_on_c, 3, 75, 127
2, 34880, Note_on_c, 12, 71, 127
2, 35195, Note_off_c, 12, 71, 127
2, 35195, Note_off_c, 3, 75, 127
2, 35196, Note_on_c, 1, 73, 127
2, 35196, Note_on_c, 3, 75, 127
2, 35511, Note_off_c, 3, 75, 127
2, 35513, Note_on_c, 4, 76, 127
2, 35623, Note_off_c, 4, 76, 127
2, 35625, Note_on_c, 3, 75, 127
2, 35698, Note_off_c, 3, 39, 127
2, 35735, Note_off_c, 3, 75, 127
2, 35737, Note_on_c, 4, 76, 127
2, 35830, Note_on_c, 7, 55, 127
2, 36145, Note_off_c, 7, 55, 127
2, 36147, Note_on_c, 7, 55, 127
2, 36462, Note_off_c, 7, 55, 127
2, 36464, Note_on_c, 8, 56, 127
2, 36597, Note_off_c, 4, 76, 127
2, 36780, Note_off_c, 1, 73, 127
2, 36780, Note_on_c, 11, 70, 127
2, 36780, Note_on_c, 1, 73, 127
2, 37095, Note_off_c, 1, 73, 127
2, 37095, Note_off_c, 11, 70, 127
2, 37097, Note_on_c, 3, 75, 127
2, 37097, Note_on_c, 12, 71, 127
2, 37253, Note_off_c, 3, 75, 127
2, 37256, Note_on_c, 1, 73, 127
2, 37412, Note_off_c, 1, 73, 127
2, 37412, Note_off_c, 8, 56, 127
2, 37414, Note_on_c, 3, 75, 127
2, 37414, Note_on_c, 6, 54, 127
2, 37729, Note_off_c, 6, 54, 127
2, 37729, Note_off_c, 3, 75, 127
2, 37731, Note_on_c, 4, 76, 127
2, 37731, Note_on_c, 4, 52, 127
2, 38045, Note_off_c, 12, 71, 127
2, 38046, Note_off_c, 4, 52, 127
2, 38046, Note_off_c, 4, 76, 127
2, 38048, Note_on_c, 6, 78, 127
2, 38048, Note_on_c, 0, 72, 127
2, 38048, Note_on_c, 3, 51, 127
2, 38363, Note_off_c, 6, 78, 127
2, 38364, Note_on_c, 4, 76, 127
2, 38679, Note_off_c, 4, 76, 127
2, 38679, Note_off_c, 3, 51, 127
2, 38681, Note_on_c, 3, 75, 127
2, 38681, Note_on_c, 8, 56, 127
2, 38996, Note_off_c, 8, 56, 127
2, 38996, Note_off_c, 3, 75, 127
2, 38996, Note_off_c, 0, 72, 127
2, 38998, Note_on_c, 1, 73, 127
2, 38998, Note_on_c, 5, 77, 127
2, 38998, Note_on_c, 3, 51, 127
2, 39117, Note_on_c, 1, 49, 127
2, 39121, Note_off_c, 3, 51, 127
2, 39236, Note_on_c, 3, 51, 127
2, 39240, Note_off_c, 1, 49, 127
2, 39313, Note_off_c, 5, 77, 127
2, 39315, Note_on_c, 8, 80, 127
2, 39354, Note_on_c, 1, 49, 127
2, 39359, Note_off_c, 3, 51, 127
2, 39473, Note_on_c, 3, 51, 127
2, 39477, Note_off_c, 1, 49, 127
2, 39592, Note_on_c, 1, 49, 127
2, 39596, Note_off_c, 3, 51, 127
2, 39630, Note_off_c, 8, 80, 127
2, 39632, Note_on_c, 7, 79, 127
2, 39711, Note_on_c, 0, 48, 127
2, 39715, Note_off_c, 1, 49, 127
2, 39830, Note_on_c, 1, 49, 127
2, 39834, Note_off_c, 0, 48, 127
2, 39946, Note_off_c, 1, 73, 127
2, 39947, Note_off_c, 7, 79, 127
2, 39948, Note_on_c, 8, 80, 127
2, 39948, Note_on_c, 12, 71, 127
2, 39953, Note_off_c, 1, 49, 127
2, 39953, Note_on_c, 3, 51, 127
2, 40067, Note_on_c, 2, 50, 127
2, 40076, Note_off_c, 3, 51, 127
2, 40186, Note_on_c, 3, 51, 127
2, 40190, Note_off_c, 2, 50, 127
2, 40263, Note_off_c, 8, 80, 127
2, 40265, Note_on_c, 7, 79, 127
2, 40305, Note_on_c, 2, 50, 127
2, 40309, Note_off_c, 3, 51, 127
2, 40424, Note_on_c, 3, 51, 127
2, 40428, Note_off_c, 2, 50, 127
2, 40542, Note_on_c, 2, 50, 127
2, 40547, Note_off_c, 3, 51, 127
2, 40580, Note_off_c, 7, 79, 127
2, 40582, Note_on_c, 5, 77, 127
2, 40661, Note_on_c, 0, 48, 127
2, 40665, Note_off_c, 2, 50, 127
2, 40780, Note_on_c, 2, 50, 127
2, 40784, Note_off_c, 0, 48, 127
2, 40896, Note_off_c, 12, 71, 127
2, 40897, Note_off_c, 2, 50, 127
2, 40897, Note_off_c, 5, 77, 127
2, 40899, Note_on_c, 11, 70, 127
2, 40899, Note_on_c, 7, 79, 127
2, 40899, Note_on_c, 3, 51, 127
2, 41214, Note_off_c, 11, 70, 127
2, 41216, Note_on_c, 1, 73, 127
2, 41526, Note_off_c, 7, 79, 127
2, 41531, Note_off_c, 1, 73, 127
2, 41532, Note_on_c, 8, 80, 127
2, 41532, Note_on_c, 12, 71, 127
2, 41847, Note_off_c, 12, 71, 127
2, 41847, Note_off_c, 8, 80, 127
2, 41849, Note_on_c, 11, 82, 127
2, 41849, Note_on_c, 1, 73, 127
2, 42004, Note_off_c, 3, 51, 127
2, 42005, Note_off_c, 1, 73, 127
2, 42008, Note_on_c, 3, 75, 127
2, 42164, Note_off_c, 3, 75, 127
2, 42166, Note_on_c, 4, 76, 127
2, 42476, Note_off_c, 11, 82, 127
2, 42481, Note_off_c, 4, 76, 127
2, 42483, Note_on_c, 3, 75, 127
2, 42483, Note_on_c, 7, 79, 127
2, 42483, Note_on_c, 3, 63, 127
2, 42798, Note_off_c, 3, 63, 127
2, 42798, Note_off_c, 7, 79, 127
2, 42798, Note_off_c, 3, 75, 127
2, 42800, Note_on_c, 8, 80, 127
2, 42800, Note_on_c, 1, 73, 127
2, 42800, Note_on_c, 4, 64, 127
2, 43115, Note_off_c, 4, 64, 127
2, 43115, Note_off_c, 1, 73, 127
2, 43116, Note_on_c, 12, 71, 127
2, 43116, Note_on_c, 3, 63, 127
2, 43427, Note_off_c, 8, 80, 127
2, 43431, Note_off_c, 3, 63, 127
2, 43431, Note_off_c, 12, 71, 127
2, 43433, Note_on_c, 1, 73, 127
2, 43433, Note_on_c, 11, 82, 127
2, 43433, Note_on_c, 1, 61, 127
2, 43748, Note_off_c, 1, 61, 127
2, 43748, Note_off_c, 11, 82, 127
2, 43748, Note_off_c, 1, 73, 127
2, 43750, Note_on_c, 8, 80, 127
2, 43750, Note_on_c, 11, 70, 127
2, 43750, Note_on_c, 3, 63, 127
2, 44698, Note_off_c, 3, 63, 127
2, 44700, Note_on_c, 3, 51, 127
2, 44836, Note_on_c, 7, 79, 127
2, 44840, Note_off_c, 8, 80, 127
2, 44941, Note_on_c, 8, 80, 127
2, 44949, Note_off_c, 7, 79, 127
2, 45047, Note_on_c, 7, 79, 127
2, 45054, Note_off_c, 8, 80, 127
2, 45332, Note_off_c, 7, 79, 127
2, 45334, Note_off_c, 11, 70, 127
2, 45334, Note_on_c, 12, 71, 127
2, 45334, Note_on_c, 8, 80, 127
2, 45648, Note_off_c, 3, 51, 127
2, 45649, Note_off_c, 8, 80, 127
2, 45649, Note_off_c, 12, 71, 127
2, 45651, Note_on_c, 12, 71, 127
2, 45651, Note_on_c, 8, 80, 127
2, 45651, Note_on_c, 8, 44, 127
2, 45966, Note_off_c, 8, 44, 127
2, 45968, Note_on_c, 12, 47, 127
2, 46283, Note_off_c, 12, 47, 127
2, 46284, Note_on_c, 3, 51, 127
2, 46599, Note_off_c, 3, 51, 127
2, 46599, Note_off_c, 8, 80, 127
2, 46601, Note_on_c, 8, 56, 127
2, 47233, Note_off_c, 12, 71, 127
2, 47235, Note_on_c, 3, 75, 127
2, 47550, Note_off_c, 3, 75, 127
2, 47552, Note_on_c, 3, 75, 127
2, 47866, Note_off_c, 8, 56, 127
2, 47867, Note_off_c, 3, 75, 127
2, 47868, Note_on_c, 4, 76, 127
2, 48183, Note_off_c, 4, 76, 127
2, 48185, Note_on_c, 1, 73, 127
2, 48500, Note_off_c, 1, 73, 127
2, 48502, Note_on_c, 12, 71, 127
2, 48817, Note_off_c, 12, 71, 127
2, 48819, Note_on_c, 11, 70, 127
2, 48977, Note_on_c, 1, 49, 127
2, 49133, Note_off_c, 1, 49, 127
2, 49136, Note_on_c, 3, 51, 127
2, 49292, Note_off_c, 3, 51, 127
2, 49294, Note_on_c, 4, 52, 127
2, 49450, Note_off_c, 4, 52, 127
2, 49452, Note_on_c, 6, 54, 127
2, 49926, Note_off_c, 11, 70, 127
2, 49928, Note_on_c, 1, 73, 127
2, 50083, Note_off_c, 6, 54, 127
2, 50084, Note_off_c, 1, 73, 127
2, 50086, Note_on_c, 12, 71, 127
2, 50086, Note_on_c, 6, 42, 127
2, 50242, Note_off_c, 12, 71, 127
2, 50244, Note_on_c, 11, 70, 127
2, 50400, Note_off_c, 11, 70, 127
2, 50401, Note_off_c, 6, 42, 127
2, 50403, Note_on_c, 3, 75, 127
2, 50403, Note_on_c, 6, 54, 127
2, 50559, Note_off_c, 6, 54, 127
2, 50561, Note_on_c, 4, 52, 127
2, 50717, Note_off_c, 4, 52, 127
2, 50718, Note_off_c, 3, 75, 127
2, 50720, Note_on_c, 6, 78, 127
2, 50720, Note_on_c, 6, 54, 127
2, 50876, Note_off_c, 6, 78, 127
2, 50878, Note_on_c, 4, 76, 127
2, 51034, Note_off_c, 4, 76, 127
2, 51036, Note_on_c, 6, 78, 127
2, 51351, Note_off_c, 6, 78, 127
2, 51351, Note_off_c, 6, 54, 127
2, 51353, Note_on_c, 1, 73, 127
2, 51353, Note_on_c, 6, 54, 127
2, 51468, Note_on_c, 0, 72, 127
2, 51473, Note_off_c, 1, 73, 127
2, 51583, Note_on_c, 1, 73, 127
2, 51588, Note_off_c, 0, 72, 127
2, 51699, Note_on_c, 0, 72, 127
2, 51703, Note_off_c, 1, 73, 127
2, 51819, Note_off_c, 0, 72, 127
2, 51822, Note_on_c, 11, 70, 127
2, 51970, Note_off_c, 11, 70, 127
2, 51987, Note_on_c, 8, 68, 127
2, 52301, Note_off_c, 6, 54, 127
2, 52302, Note_off_c, 8, 68, 127
2, 52304, Note_on_c, 1, 73, 127
2, 52304, Note_on_c, 6, 54, 127
2, 52421, Note_off_c, 6, 54, 127
2, 52422, Note_on_c, 4, 52, 127
2, 52539, Note_off_c, 4, 52, 127
2, 52541, Note_on_c, 6, 54, 127
2, 52658, Note_off_c, 6, 54, 127
2, 52660, Note_on_c, 4, 52, 127
2, 52777, Note_off_c, 4, 52, 127
2, 52779, Note_on_c, 6, 54, 127
2, 52896, Note_off_c, 6, 54, 127
2, 52898, Note_on_c, 4, 52, 127
2, 52937, Note_on_c, 8, 80, 127
2, 53015, Note_off_c, 4, 52, 127
2, 53016, Note_on_c, 3, 51, 127
2, 53133, Note_off_c, 3, 51, 127
2, 53135, Note_on_c, 4, 52, 127
2, 53252, Note_off_c, 4, 52, 127
2, 53252, Note_off_c, 8, 80, 127
2, 53254, Note_on_c, 8, 80, 127
2, 53254, Note_on_c, 8, 56, 127
2, 53371, Note_off_c, 8, 56, 127
2, 53373, Note_on_c, 6, 54, 127
2, 53490, Note_off_c, 6, 54, 127
2, 53492, Note_on_c, 8, 56, 127
2, 53569, Note_off_c, 8, 80, 127
2, 53571, Note_on_c, 10, 81, 127
2, 53609, Note_off_c, 8, 56, 127
2, 53610, Note_on_c, 6, 54, 127
2, 53727, Note_off_c, 6, 54, 127
2, 53729, Note_on_c, 8, 56, 127
2, 53846, Note_off_c, 8, 56, 127
2, 53848, Note_on_c, 6, 54, 127
2, 53886, Note_off_c, 10, 81, 127
2, 53888, Note_on_c, 6, 78, 127
2, 53965, Note_off_c, 6, 54, 127
2, 53967, Note_on_c, 4, 52, 127
2, 54084, Note_off_c, 4, 52, 127
2, 54086, Note_on_c, 6, 54, 127
2, 54203, Note_off_c, 6, 54, 127
2, 54203, Note_off_c, 6, 78, 127
2, 54204, Note_on_c, 4, 76, 127
2, 54204, Note_on_c, 8, 56, 127
2, 54519, Note_off_c, 4, 76, 127
2, 54521, Note_on_c, 3, 75, 127
2, 54828, Note_off_c, 1, 73, 127
2, 54835, Note_off_c, 8, 56, 127
2, 54838, Note_on_c, 10, 57, 127
2, 55152, Note_off_c, 3, 75, 127
2, 55153, Note_off_c, 10, 57, 127
2, 55155, Note_on_c, 12, 71, 127
2, 55155, Note_on_c, 8, 56, 127
2, 55630, Note_on_c, 6, 78, 127
2, 55786, Note_off_c, 6, 78, 127
2, 55786, Note_off_c, 8, 56, 127
2, 55788, Note_on_c, 5, 77, 127
2, 55788, Note_on_c, 6, 54, 127
2, 55944, Note_off_c, 5, 77, 127
2, 55947, Note_on_c, 3, 75, 127
2, 56103, Note_off_c, 3, 75, 127
2, 56103, Note_off_c, 6, 54, 127
2, 56105, Note_on_c, 8, 80, 127
2, 56105, Note_on_c, 5, 53, 127
2, 56420, Note_off_c, 5, 53, 127
2, 56420, Note_off_c, 8, 80, 127
2, 56422, Note_on_c, 12, 83, 127
2, 56422, Note_on_c, 6, 54, 127
2, 56578, Note_off_c, 12, 83, 127
2, 56580, Note_on_c, 10, 81, 127
2, 56736, Note_off_c, 10, 81, 127
2, 56737, Note_off_c, 6, 54, 127
2, 56739, Note_on_c, 12, 83, 127
2, 56739, Note_on_c, 8, 56, 127
2, 57054, Note_off_c, 8, 56, 127
2, 57054, Note_off_c, 12, 83, 127
2, 57056, Note_on_c, 6, 78, 127
2, 57056, Note_on_c, 1, 49, 127
2, 57212, Note_off_c, 6, 78, 127
2, 57214, Note_on_c, 5, 77, 127
2, 57370, Note_off_c, 5, 77, 127
2, 57372, Note_on_c, 3, 75, 127
2, 57679, Note_off_c, 12, 71, 127
2, 57687, Note_off_c, 3, 75, 127
2, 57689, Note_on_c, 1, 73, 127
2, 58004, Note_off_c, 1, 73, 127
2, 58006, Note_on_c, 10, 69, 127
2, 58006, Note_on_c, 6, 78, 127
2, 58321, Note_off_c, 10, 69, 127
2, 58321, Note_off_c, 1, 49, 127
2, 58323, Note_on_c, 12, 71, 127
2, 58638, Note_off_c, 12, 71, 127
2, 58640, Note_on_c, 10, 69, 127
2, 58640, Note_on_c, 1, 61, 127
2, 58955, Note_off_c, 1, 61, 127
2, 58955, Note_off_c, 10, 69, 127
2, 58956, Note_on_c, 10, 69, 127
2, 58956, Note_on_c, 1, 61, 127
2, 59271, Note_off_c, 1, 61, 127
2, 59271, Note_off_c, 10, 69, 127
2, 59273, Note_on_c, 8, 68, 127
2, 59273, Note_on_c, 2, 62, 127
2, 59588, Note_off_c, 2, 62, 127
2, 59588, Note_off_c, 8, 68, 127
2, 59590, Note_on_c, 10, 69, 127
2, 59590, Note_on_c, 12, 59, 127
2, 59905, Note_off_c, 12, 59, 127
2, 59905, Note_off_c, 10, 69, 127
2, 59907, Note_on_c, 12, 71, 127
2, 59907, Note_on_c, 10, 57, 127
2, 60224, Note_on_c, 4, 76, 127
2, 60233, Note_off_c, 6, 78, 127
2, 60538, Note_off_c, 10, 57, 127
2, 60539, Note_off_c, 4, 76, 127
2, 60540, Note_on_c, 3, 75, 127
2, 60540, Note_on_c, 8, 56, 127
2, 60855, Note_off_c, 3, 75, 127
2, 60857, Note_on_c, 4, 76, 127
2, 61295, Note_off_c, 8, 56, 127
2, 61332, Note_on_c, 12, 59, 127
2, 61488, Note_off_c, 12, 59, 127
2, 61491, Note_off_c, 12, 71, 127
2, 61491, Note_on_c, 1, 73, 127
2, 61491, Note_on_c, 11, 58, 127
2, 61647, Note_off_c, 11, 58, 127
2, 61649, Note_on_c, 8, 56, 127
2, 61805, Note_off_c, 8, 56, 127
2, 61806, Note_off_c, 1, 73, 127
2, 61808, Note_on_c, 12, 71, 127
2, 61808, Note_on_c, 1, 61, 127
2, 62123, Note_off_c, 1, 61, 127
2, 62123, Note_off_c, 12, 71, 127
2, 62124, Note_on_c, 11, 70, 127
2, 62124, Note_on_c, 4, 64, 127
2, 62280, Note_off_c, 4, 64, 127
2, 62283, Note_on_c, 3, 63, 127
2, 62439, Note_off_c, 3, 63, 127
2, 62439, Note_off_c, 11, 70, 127
2, 62441, Note_on_c, 8, 68, 127
2, 62441, Note_on_c, 4, 64, 127
2, 62756, Note_off_c, 4, 64, 127
2, 62756, Note_off_c, 8, 68, 127
2, 62758, Note_on_c, 1, 73, 127
2, 62758, Note_on_c, 12, 59, 127
2, 62914, Note_off_c, 12, 59, 127
2, 62914, Note_off_c, 1, 73, 127
2, 62916, Note_on_c, 12, 71, 127
2, 62916, Note_on_c, 11, 58, 127
2, 63072, Note_off_c, 11, 58, 127
2, 63072, Note_off_c, 12, 71, 127
2, 63075, Note_on_c, 1, 73, 127
2, 63075, Note_on_c, 8, 56, 127
2, 63390, Note_off_c, 8, 56, 127
2, 63390, Note_off_c, 1, 73, 127
2, 63392, Note_on_c, 11, 70, 127
2, 63392, Note_on_c, 6, 54, 127
2, 63707, Note_off_c, 6, 54, 127
2, 63707, Note_off_c, 11, 70, 127
2, 63708, Note_on_c, 6, 66, 127
2, 63708, Note_on_c, 12, 59, 127
2, 63864, Note_off_c, 12, 59, 127
2, 63867, Note_on_c, 11, 58, 127
2, 64023, Note_off_c, 11, 58, 127
2, 64025, Note_off_c, 4, 76, 127
2, 64025, Note_on_c, 3, 75, 127
2, 64025, Note_on_c, 12, 59, 127
2, 64340, Note_off_c, 12, 59, 127
2, 64340, Note_off_c, 3, 75, 127
2, 64342, Note_on_c, 1, 73, 127
2, 64342, Note_on_c, 12, 47, 127
2, 64657, Note_off_c, 12, 47, 127
2, 64657, Note_off_c, 1, 73, 127
2, 64659, Note_on_c, 3, 75, 127
2, 64659, Note_on_c, 12, 59, 127
2, 64815, Note_off_c, 12, 59, 127
2, 64817, Note_on_c, 11, 58, 127
2, 64973, Note_off_c, 11, 58, 127
2, 64974, Note_off_c, 3, 75, 127
2, 64976, Note_on_c, 1, 73, 127
2, 64976, Note_on_c, 12, 59, 127
2, 65291, Note_off_c, 1, 73, 127
2, 65292, Note_off_c, 6, 66, 127
2, 65292, Note_on_c, 12, 71, 127
2, 65292, Note_on_c, 8, 68, 127
2, 65607, Note_off_c, 8, 68, 127
2, 65607, Note_off_c, 12, 71, 127
2, 65609, Note_on_c, 1, 73, 127
2, 65609, Note_on_c, 4, 64, 127
2, 65924, Note_off_c, 4, 64, 127
2, 65924, Note_off_c, 12, 59, 127
2, 65926, Note_on_c, 3, 63, 127
2, 65926, Note_on_c, 1, 61, 127
2, 66082, Note_off_c, 1, 61, 127
2, 66084, Note_on_c, 12, 59, 127
2, 66240, Note_off_c, 12, 59, 127
2, 66241, Note_off_c, 3, 63, 127
2, 66243, Note_on_c, 1, 61, 127
2, 66243, Note_on_c, 10, 57, 127
2, 66399, Note_off_c, 10, 57, 127
2, 66401, Note_on_c, 8, 56, 127
2, 66557, Note_off_c, 8, 56, 127
2, 66558, Note_off_c, 1, 61, 127
2, 66560, Note_on_c, 6, 66, 127
2, 66560, Note_on_c, 10, 57, 127
2, 66716, Note_off_c, 10, 57, 127
2, 66718, Note_on_c, 8, 56, 127
2, 66874, Note_off_c, 8, 56, 127
2, 66875, Note_off_c, 6, 66, 127
2, 66876, Note_on_c, 8, 68, 127
2, 66876, Note_on_c, 10, 57, 127
2, 67191, Note_off_c, 10, 57, 127
2, 67191, Note_off_c, 8, 68, 127
2, 67193, Note_off_c, 1, 73, 127
2, 67193, Note_on_c, 6, 78, 127
2, 67193, Note_on_c, 10, 69, 127
2, 67193, Note_on_c, 10, 45, 127
2, 67508, Note_off_c, 10, 45, 127
2, 67508, Note_off_c, 10, 69, 127
2, 67508, Note_off_c, 6, 78, 127
2, 67510, Note_on_c, 4, 76, 127
2, 67510, Note_on_c, 8, 68, 127
2, 67510, Note_on_c, 10, 57, 127
2, 67666, Note_off_c, 10, 57, 127
2, 67668, Note_on_c, 8, 56, 127
2, 67824, Note_off_c, 8, 56, 127
2, 67825, Note_off_c, 8, 68, 127
2, 67825, Note_off_c, 4, 76, 127
2, 67827, Note_on_c, 3, 75, 127
2, 67827, Note_on_c, 6, 66, 127
2, 67827, Note_on_c, 10, 57, 127
2, 68142, Note_off_c, 6, 66, 127
2, 68142, Note_off_c, 3, 75, 127
2, 68144, Note_on_c, 4, 64, 127
2, 68144, Note_on_c, 1, 73, 127
2, 68459, Note_off_c, 1, 73, 127
2, 68459, Note_off_c, 4, 64, 127
2, 68460, Note_on_c, 3, 63, 127
2, 68460, Note_on_c, 12, 71, 127
2, 68775, Note_off_c, 3, 63, 127
2, 68775, Note_off_c, 10, 57, 127
2, 68777, Note_on_c, 1, 61, 127
2, 68777, Note_on_c, 12, 59, 127
2, 68933, Note_off_c, 12, 59, 127
2, 68936, Note_on_c, 10, 57, 127
2, 69092, Note_off_c, 10, 57, 127
2, 69092, Note_off_c, 1, 61, 127
2, 69094, Note_on_c, 12, 59, 127
2, 69094, Note_on_c, 8, 56, 127
2, 69250, Note_off_c, 8, 56, 127
2, 69252, Note_on_c, 6, 54, 127
2, 69408, Note_off_c, 6, 54, 127
2, 69409, Note_off_c, 12, 59, 127
2, 69411, Note_on_c, 4, 64, 127
2, 69411, Note_on_c, 8, 56, 127
2, 69725, Note_off_c, 12, 71, 127
2, 69728, Note_on_c, 10, 69, 127
2, 70042, Note_off_c, 8, 56, 127
2, 70043, Note_off_c, 10, 69, 127
2, 70044, Note_on_c, 8, 68, 127
2, 70044, Note_on_c, 1, 61, 127
2, 70359, Note_off_c, 1, 61, 127
2, 70359, Note_off_c, 8, 68, 127
2, 70361, Note_on_c, 1, 73, 127
2, 70361, Note_on_c, 12, 59, 127
2, 70676, Note_off_c, 12, 59, 127
2, 70676, Note_off_c, 1, 73, 127
2, 70678, Note_on_c, 3, 75, 127
2, 70678, Note_on_c, 10, 57, 127
2, 70993, Note_off_c, 10, 57, 127
2, 70993, Note_off_c, 3, 75, 127
2, 70995, Note_on_c, 4, 76, 127
2, 70995, Note_on_c, 8, 56, 127
2, 71310, Note_off_c, 8, 56, 127
2, 71310, Note_off_c, 4, 76, 127
2, 71312, Note_on_c, 10, 69, 127
2, 71312, Note_on_c, 6, 54, 127
2, 71627, Note_off_c, 6, 54, 127
2, 71627, Note_off_c, 10, 69, 127
2, 71628, Note_on_c, 12, 71, 127
2, 71628, Note_on_c, 8, 56, 127
2, 71943, Note_off_c, 8, 56, 127
2, 71943, Note_off_c, 12, 71, 127
2, 71945, Note_on_c, 1, 73, 127
2, 71945, Note_on_c, 10, 57, 127
2, 72260, Note_off_c, 10, 57, 127
2, 72260, Note_off_c, 1, 73, 127
2, 72262, Note_on_c, 10, 69, 127
2, 72262, Note_on_c, 12, 59, 127
2, 72418, Note_off_c, 12, 59, 127
2, 72420, Note_on_c, 10, 57, 127
2, 72576, Note_off_c, 10, 57, 127
2, 72577, Note_off_c, 10, 69, 127
2, 72579, Note_on_c, 8, 68, 127
2, 72579, Note_on_c, 12, 59, 127
2, 72735, Note_off_c, 8, 68, 127
2, 72737, Note_on_c, 6, 66, 127
2, 72884, Note_off_c, 4, 64, 127
2, 72893, Note_off_c, 6, 66, 127
2, 72896, Note_on_c, 4, 64, 127
2, 73052, Note_off_c, 4, 64, 127
2, 73054, Note_on_c, 6, 66, 127
2, 73210, Note_off_c, 6, 66, 127
2, 73210, Note_off_c, 12, 59, 127
2, 73212, Note_on_c, 3, 63, 127
2, 73212, Note_on_c, 8, 68, 127
2, 73212, Note_on_c, 12, 47, 127
2, 73401, Note_off_c, 8, 68, 127
2, 73404, Note_on_c, 6, 66, 127
2, 73507, Note_off_c, 6, 66, 127
2, 73513, Note_on_c, 8, 68, 127
2, 73616, Note_off_c, 8, 68, 127
2, 73622, Note_on_c, 6, 66, 127
2, 73725, Note_off_c, 6, 66, 127
2, 73730, Note_on_c, 8, 68, 127
2, 73833, Note_off_c, 8, 68, 127
2, 73839, Note_on_c, 6, 66, 127
2, 73942, Note_off_c, 6, 66, 127
2, 73948, Note_on_c, 4, 64, 127
2, 74051, Note_off_c, 4, 64, 127
2, 74057, Note_on_c, 6, 66, 127
2, 74160, Note_off_c, 6, 66, 127
2, 74160, Note_off_c, 12, 47, 127
2, 74160, Note_off_c, 3, 63, 127
2, 74163, Note_on_c, 4, 64, 127
2, 74163, Note_on_c, 4, 52, 127
2, 74480, Note_on_c, 8, 68, 127
2, 74790, Note_off_c, 4, 64, 127
2, 74795, Note_off_c, 8, 68, 127
2, 74796, Note_on_c, 12, 71, 127
2, 75111, Note_off_c, 12, 71, 127
2, 75113, Note_on_c, 4, 76, 127
2, 75269, Note_off_c, 4, 76, 127
2, 75272, Note_on_c, 3, 75, 127
2, 75428, Note_off_c, 3, 75, 127
2, 75428, Note_off_c, 4, 52, 127
2, 75430, Note_on_c, 4, 76, 127
2, 75430, Note_on_c, 8, 56, 127
2, 75586, Note_off_c, 8, 56, 127
2, 75588, Note_on_c, 6, 54, 127
2, 75744, Note_off_c, 6, 54, 127
2, 75745, Note_off_c, 4, 76, 127
2, 75747, Note_on_c, 4, 76, 127
2, 75747, Note_on_c, 4, 52, 127
2, 75903, Note_off_c, 4, 52, 127
2, 75905, Note_on_c, 3, 51, 127
2, 76061, Note_off_c, 3, 51, 127
2, 76062, Note_off_c, 4, 76, 127
2, 76064, Note_on_c, 4, 76, 127
2, 76064, Note_on_c, 1, 49, 127
2, 76220, Note_off_c, 4, 76, 127
2, 76222, Note_on_c, 3, 75, 127
2, 76378, Note_off_c, 3, 75, 127
2, 76379, Note_off_c, 1, 49, 127
2, 76380, Note_on_c, 4, 76, 127
2, 76380, Note_on_c, 12, 59, 127
2, 76695, Note_off_c, 12, 59, 127
2, 76695, Note_off_c, 4, 76, 127
2, 76697, Note_on_c, 4, 76, 127
2, 76697, Note_on_c, 11, 58, 127
2, 77012, Note_off_c, 11, 58, 127
2, 77012, Note_off_c, 4, 76, 127
2, 77014, Note_on_c, 4, 76, 127
2, 77014, Note_on_c, 12, 59, 127
2, 77329, Note_off_c, 4, 76, 127
2, 77331, Note_on_c, 6, 78, 127
2, 77331, Note_on_c, 3, 63, 127
2, 77487, Note_off_c, 6, 78, 127
2, 77489, Note_on_c, 4, 76, 127
2, 77645, Note_off_c, 4, 76, 127
2, 77646, Note_off_c, 3, 63, 127
2, 77648, Note_on_c, 3, 75, 127
2, 77648, Note_on_c, 6, 66, 127
2, 77804, Note_off_c, 3, 75, 127
2, 77806, Note_on_c, 1, 73, 127
2, 77962, Note_off_c, 1, 73, 127
2, 77963, Note_off_c, 6, 66, 127
2, 77964, Note_on_c, 12, 71, 127
2, 77964, Note_on_c, 3, 75, 127
2, 78120, Note_off_c, 12, 71, 127
2, 78123, Note_on_c, 10, 69, 127
2, 78279, Note_off_c, 10, 69, 127
2, 78281, Note_on_c, 12, 71, 127
2, 78433, Note_off_c, 12, 59, 127
2, 78440, Note_on_c, 10, 57, 127
2, 78591, Note_off_c, 3, 75, 127
2, 78596, Note_off_c, 10, 57, 127
2, 78596, Note_off_c, 12, 71, 127
2, 78598, Note_on_c, 12, 71, 127
2, 78598, Note_on_c, 5, 77, 127
2, 78598, Note_on_c, 8, 56, 127
2, 78754, Note_off_c, 8, 56, 127
2, 78756, Note_on_c, 6, 54, 127
2, 78912, Note_off_c, 6, 54, 127
2, 78913, Note_off_c, 5, 77, 127
2, 78913, Note_off_c, 12, 71, 127
2, 78915, Note_on_c, 6, 78, 127
2, 78915, Note_on_c, 12, 71, 127
2, 78915, Note_on_c, 8, 56, 127
2, 79071, Note_off_c, 12, 71, 127
2, 79073, Note_on_c, 10, 69, 127
2, 79228, Note_off_c, 6, 78, 127
2, 79229, Note_off_c, 10, 69, 127
2, 79232, Note_on_c, 5, 77, 127
2, 79232, Note_on_c, 12, 71, 127
2, 79546, Note_off_c, 8, 56, 127
2, 79547, Note_off_c, 12, 71, 127
2, 79547, Note_off_c, 5, 77, 127
2, 79548, Note_on_c, 6, 78, 127
2, 79548, Note_on_c, 12, 71, 127
2, 79548, Note_on_c, 1, 61, 127
2, 79863, Note_off_c, 1, 61, 127
2, 79863, Note_off_c, 12, 71, 127
2, 79863, Note_off_c, 6, 78, 127
2, 79865, Note_on_c, 12, 71, 127
2, 79865, Note_on_c, 6, 78, 127
2, 79865, Note_on_c, 6, 54, 127
2, 80180, Note_off_c, 6, 54, 127
2, 80180, Note_off_c, 12, 71, 127
2, 80182, Note_on_c, 1, 73, 127
2, 80182, Note_on_c, 10, 57, 127
2, 80338, Note_off_c, 1, 73, 127
2, 80340, Note_on_c, 12, 71, 127
2, 80496, Note_off_c, 12, 71, 127
2, 80497, Note_off_c, 10, 57, 127
2, 80499, Note_on_c, 10, 69, 127
2, 80499, Note_on_c, 1, 61, 127
2, 80655, Note_off_c, 10, 69, 127
2, 80657, Note_on_c, 8, 68, 127
2, 80813, Note_off_c, 8, 68, 127
2, 80814, Note_off_c, 1, 61, 127
2, 80816, Note_on_c, 10, 69, 127
2, 80816, Note_on_c, 6, 66, 127
2, 80972, Note_off_c, 6, 66, 127
2, 80974, Note_on_c, 5, 65, 127
2, 81130, Note_off_c, 5, 65, 127
2, 81130, Note_off_c, 6, 78, 127
2, 81132, Note_on_c, 10, 81, 127
2, 81132, Note_on_c, 6, 66, 127
2, 81288, Note_off_c, 10, 81, 127
2, 81291, Note_on_c, 8, 80, 127
2, 81447, Note_off_c, 8, 80, 127
2, 81447, Note_off_c, 6, 66, 127
2, 81449, Note_on_c, 6, 78, 127
2, 81449, Note_on_c, 6, 66, 127
2, 81605, Note_off_c, 6, 78, 127
2, 81608, Note_on_c, 4, 76, 127
2, 81764, Note_off_c, 4, 76, 127
2, 81764, Note_off_c, 6, 66, 127
2, 81766, Note_on_c, 2, 74, 127
2, 81766, Note_on_c, 6, 66, 127
2, 81922, Note_off_c, 6, 66, 127
2, 81924, Note_on_c, 5, 65, 127
2, 82080, Note_off_c, 5, 65, 127
2, 82081, Note_off_c, 2, 74, 127
2, 82083, Note_on_c, 6, 78, 127
2, 82083, Note_on_c, 6, 66, 127
2, 82239, Note_off_c, 6, 78, 127
2, 82241, Note_on_c, 4, 76, 127
2, 82397, Note_off_c, 4, 76, 127
2, 82398, Note_off_c, 6, 66, 127
2, 82400, Note_off_c, 10, 69, 127
2, 82400, Note_on_c, 10, 69, 127
2, 82400, Note_on_c, 6, 78, 127
2, 82400, Note_on_c, 6, 66, 127
2, 82715, Note_off_c, 6, 66, 127
2, 82715, Note_off_c, 6, 78, 127
2, 82715, Note_off_c, 10, 69, 127
2, 82716, Note_on_c, 8, 68, 127
2, 82716, Note_on_c, 1, 73, 127
2, 82716, Note_on_c, 6, 66, 127
2, 83029, Note_off_c, 8, 68, 127
2, 83031, Note_off_c, 6, 66, 127
2, 83031, Note_off_c, 1, 73, 127
2, 83033, Note_on_c, 0, 72, 127
2, 83033, Note_on_c, 8, 68, 127
2, 83192, Note_on_c, 6, 66, 127
2, 83348, Note_off_c, 6, 66, 127
2, 83348, Note_off_c, 0, 72, 127
2, 83350, Note_on_c, 3, 75, 127
2, 83350, Note_on_c, 4, 64, 127
2, 83506, Note_off_c, 4, 64, 127
2, 83508, Note_on_c, 3, 63, 127
2, 83660, Note_off_c, 8, 68, 127
2, 83664, Note_off_c, 3, 63, 127
2, 83665, Note_off_c, 3, 75, 127
2, 83667, Note_on_c, 8, 80, 127
2, 83667, Note_on_c, 4, 64, 127
2, 83823, Note_off_c, 4, 64, 127
2, 83825, Note_on_c, 3, 63, 127
2, 83981, Note_off_c, 3, 63, 127
2, 83984, Note_on_c, 4, 64, 127
2, 84299, Note_off_c, 4, 64, 127
2, 84300, Note_on_c, 8, 68, 127
2, 84300, Note_on_c, 4, 64, 127
2, 84615, Note_off_c, 4, 64, 127
2, 84615, Note_off_c, 8, 68, 127
2, 84617, Note_on_c, 1, 73, 127
2, 84617, Note_on_c, 4, 64, 127
2, 84773, Note_off_c, 4, 64, 127
2, 84776, Note_on_c, 3, 63, 127
2, 84932, Note_off_c, 3, 63, 127
2, 84934, Note_on_c, 4, 64, 127
2, 85086, Note_off_c, 8, 80, 127
2, 85092, Note_on_c, 8, 80, 127
2, 85248, Note_off_c, 8, 80, 127
2, 85249, Note_off_c, 4, 64, 127
2, 85251, Note_on_c, 11, 82, 127
2, 85251, Note_on_c, 4, 64, 127
2, 85407, Note_off_c, 11, 82, 127
2, 85409, Note_on_c, 12, 83, 127
2, 85565, Note_off_c, 12, 83, 127
2, 85566, Note_off_c, 4, 64, 127
2, 85568, Note_on_c, 12, 83, 127
2, 85568, Note_on_c, 4, 64, 127
2, 85686, Note_on_c, 11, 82, 127
2, 85691, Note_off_c, 12, 83, 127
2, 85805, Note_on_c, 12, 83, 127
2, 85809, Note_off_c, 11, 82, 127
2, 85883, Note_off_c, 4, 64, 127
2, 85884, Note_on_c, 6, 66, 127
2, 85924, Note_on_c, 11, 82, 127
2, 85928, Note_off_c, 12, 83, 127
2, 86040, Note_off_c, 6, 66, 127
2, 86043, Note_on_c, 12, 83, 127
2, 86043, Note_on_c, 4, 64, 127
2, 86047, Note_off_c, 11, 82, 127
2, 86162, Note_on_c, 11, 82, 127
2, 86166, Note_off_c, 12, 83, 127
2, 86199, Note_off_c, 4, 64, 127
2, 86201, Note_on_c, 2, 62, 127
2, 86280, Note_on_c, 8, 80, 127
2, 86285, Note_off_c, 11, 82, 127
2, 86357, Note_off_c, 2, 62, 127
2, 86360, Note_on_c, 1, 61, 127
2, 86399, Note_on_c, 11, 82, 127
2, 86403, Note_off_c, 8, 80, 127
2, 86514, Note_off_c, 1, 73, 127
2, 86516, Note_off_c, 11, 82, 127
2, 86516, Note_off_c, 1, 61, 127
2, 86518, Note_on_c, 12, 83, 127
2, 86518, Note_on_c, 2, 62, 127
2, 86674, Note_off_c, 2, 62, 127
2, 86676, Note_on_c, 1, 61, 127
2, 86832, Note_off_c, 1, 61, 127
2, 86835, Note_on_c, 2, 62, 127
2, 86991, Note_off_c, 12, 83, 127
2, 86993, Note_on_c, 10, 81, 127
2, 87149, Note_off_c, 10, 81, 127
2, 87150, Note_off_c, 2, 62, 127
2, 87152, Note_on_c, 6, 66, 127
2, 87152, Note_on_c, 8, 80, 127
2, 87152, Note_on_c, 2, 62, 127
2, 87308, Note_off_c, 8, 80, 127
2, 87310, Note_on_c, 6, 78, 127
2, 87465, Note_off_c, 6, 66, 127
2, 87466, Note_off_c, 6, 78, 127
2, 87467, Note_off_c, 2, 62, 127
2, 87468, Note_on_c, 6, 78, 127
2, 87468, Note_on_c, 12, 71, 127
2, 87468, Note_on_c, 2, 62, 127
2, 87624, Note_off_c, 2, 62, 127
2, 87627, Note_on_c, 1, 61, 127
2, 87783, Note_off_c, 1, 61, 127
2, 87783, Note_off_c, 6, 78, 127
2, 87785, Note_on_c, 8, 80, 127
2, 87785, Note_on_c, 2, 62, 127
2, 88095, Note_off_c, 12, 71, 127
2, 88100, Note_off_c, 2, 62, 127
2, 88100, Note_off_c, 8, 80, 127
2, 88102, Note_on_c, 8, 68, 127
2, 88102, Note_on_c, 5, 77, 127
2, 88102, Note_on_c, 2, 62, 127
2, 88417, Note_off_c, 2, 62, 127
2, 88417, Note_off_c, 5, 77, 127
2, 88417, Note_off_c, 8, 68, 127
2, 88419, Note_on_c, 5, 77, 127
2, 88419, Note_on_c, 10, 69, 127
2, 88419, Note_on_c, 1, 61, 127
2, 88734, Note_off_c, 5, 77, 127
2, 88736, Note_on_c, 6, 78, 127
2, 89046, Note_off_c, 10, 69, 127
2, 89050, Note_off_c, 1, 61, 127
2, 89051, Note_off_c, 6, 78, 127
2, 89052, Note_on_c, 12, 71, 127
2, 89052, Note_on_c, 8, 80, 127
2, 89052, Note_on_c, 12, 59, 127
2, 89367, Note_off_c, 12, 59, 127
2, 89367, Note_off_c, 8, 80, 127
2, 89367, Note_off_c, 12, 71, 127
2, 89369, Note_on_c, 8, 68, 127
2, 89369, Note_on_c, 6, 78, 127
2, 89369, Note_on_c, 1, 61, 127
2, 89831, Note_off_c, 8, 68, 127
2, 89844, Note_on_c, 12, 71, 127
2, 89996, Note_off_c, 6, 78, 127
2, 90000, Note_off_c, 12, 71, 127
2, 90003, Note_on_c, 5, 77, 127
2, 90003, Note_on_c, 1, 73, 127
2, 90159, Note_off_c, 1, 73, 127
2, 90161, Note_on_c, 2, 74, 127
2, 90317, Note_off_c, 2, 74, 127
2, 90317, Note_off_c, 1, 61, 127
2, 90320, Note_on_c, 2, 74, 127
2, 90320, Note_on_c, 1, 49, 127
2, 90635, Note_off_c, 2, 74, 127
2, 90636, Note_on_c, 1, 73, 127
2, 90951, Note_off_c, 1, 73, 127
2, 90951, Note_off_c, 5, 77, 127
2, 90953, Note_on_c, 12, 71, 127
2, 90953, Note_on_c, 6, 78, 127
2, 91268, Note_off_c, 6, 78, 127
2, 91268, Note_off_c, 12, 71, 127
2, 91268, Note_off_c, 1, 49, 127
2, 91270, Note_on_c, 10, 69, 127
2, 91270, Note_on_c, 6, 78, 127
2, 91270, Note_on_c, 6, 42, 127
2, 91585, Note_off_c, 6, 42, 127
2, 91587, Note_on_c, 10, 45, 127
2, 91902, Note_off_c, 10, 45, 127
2, 91904, Note_on_c, 1, 49, 127
2, 92218, Note_off_c, 10, 69, 127
2, 92219, Note_off_c, 1, 49, 127
2, 92220, Note_on_c, 6, 54, 127
2, 92693, Note_off_c, 6, 78, 127
2, 92696, Note_on_c, 6, 78, 127
2, 92852, Note_off_c, 6, 78, 127
2, 92854, Note_on_c, 8, 80, 127
2, 92854, Note_on_c, 1, 61, 127
2, 93010, Note_off_c, 8, 80, 127
2, 93012, Note_on_c, 10, 81, 127
2, 93167, Note_off_c, 1, 61, 127
2, 93168, Note_off_c, 10, 81, 127
2, 93171, Note_on_c, 4, 76, 127
2, 93171, Note_on_c, 6, 66, 127
2, 93486, Note_off_c, 4, 76, 127
2, 93488, Note_on_c, 2, 74, 127
2, 93798, Note_off_c, 6, 66, 127
2, 93803, Note_off_c, 2, 74, 127
2, 93804, Note_on_c, 10, 69, 127
2, 93804, Note_on_c, 1, 73, 127
2, 94119, Note_off_c, 1, 73, 127
2, 94119, Note_off_c, 10, 69, 127
2, 94121, Note_on_c, 8, 68, 127
2, 94121, Note_on_c, 1, 73, 127
2, 94435, Note_off_c, 6, 54, 127
2, 94436, Note_off_c, 1, 73, 127
2, 94438, Note_on_c, 12, 71, 127
2, 94438, Note_on_c, 4, 52, 127
2, 94594, Note_off_c, 12, 71, 127
2, 94596, Note_on_c, 2, 74, 127
2, 94752, Note_off_c, 2, 74, 127
2, 94753, Note_off_c, 4, 52, 127
2, 94755, Note_on_c, 1, 73, 127
2, 94755, Note_on_c, 2, 50, 127
2, 94911, Note_off_c, 1, 73, 127
2, 94913, Note_on_c, 12, 71, 127
2, 95069, Note_off_c, 12, 71, 127
2, 95070, Note_off_c, 2, 50, 127
2, 95072, Note_on_c, 8, 80, 127
2, 95072, Note_on_c, 2, 50, 127
2, 95387, Note_off_c, 2, 50, 127
2, 95388, Note_on_c, 4, 52, 127
2, 95540, Note_off_c, 8, 68, 127
2, 95547, Note_on_c, 8, 68, 127
2, 95703, Note_off_c, 8, 68, 127
2, 95705, Note_on_c, 10, 69, 127
2, 95861, Note_off_c, 10, 69, 127
2, 95864, Note_on_c, 12, 71, 127
2, 96020, Note_off_c, 12, 71, 127
2, 96022, Note_on_c, 1, 73, 127
2, 96495, Note_off_c, 4, 52, 127
2, 96497, Note_on_c, 10, 45, 127
2, 96653, Note_off_c, 10, 45, 127
2, 96653, Note_off_c, 1, 73, 127
2, 96656, Note_off_c, 8, 80, 127
2, 96656, Note_on_c, 1, 73, 127
2, 96656, Note_on_c, 10, 81, 127
2, 96656, Note_on_c, 12, 47, 127
2, 96812, Note_off_c, 12, 47, 127
2, 96814, Note_on_c, 1, 49, 127
2, 96970, Note_off_c, 1, 49, 127
2, 96971, Note_off_c, 10, 81, 127
2, 96971, Note_off_c, 1, 73, 127
2, 96972, Note_on_c, 1, 73, 127
2, 96972, Note_on_c, 8, 80, 127
2, 96972, Note_on_c, 2, 50, 127
2, 97287, Note_off_c, 8, 80, 127
2, 97289, Note_on_c, 6, 78, 127
2, 97599, Note_off_c, 1, 73, 127
2, 97606, Note_on_c, 6, 66, 127
2, 97921, Note_off_c, 6, 66, 127
2, 97923, Note_on_c, 12, 71, 127
2, 98395, Note_off_c, 2, 50, 127
2, 98398, Note_on_c, 10, 81, 127
2, 98398, Note_on_c, 1, 49, 127
2, 98401, Note_off_c, 6, 78, 127
2, 98554, Note_off_c, 1, 49, 127
2, 98554, Note_off_c, 10, 81, 127
2, 98556, Note_on_c, 8, 80, 127
2, 98556, Note_on_c, 12, 47, 127
2, 98712, Note_off_c, 12, 47, 127
2, 98712, Note_off_c, 8, 80, 127
2, 98715, Note_on_c, 6, 78, 127
2, 98715, Note_on_c, 10, 45, 127
2, 98871, Note_off_c, 10, 45, 127
2, 98871, Note_off_c, 6, 78, 127
2, 98873, Note_on_c, 6, 78, 127
2, 98873, Note_on_c, 8, 44, 127
2, 99188, Note_off_c, 6, 78, 127
2, 99190, Note_on_c, 5, 77, 127
2, 99504, Note_off_c, 8, 44, 127
2, 99505, Note_off_c, 5, 77, 127
2, 99507, Note_off_c, 12, 71, 127
2, 99507, Note_on_c, 12, 71, 127
2, 99507, Note_on_c, 8, 80, 127
2, 99507, Note_on_c, 12, 47, 127
2, 99822, Note_off_c, 12, 47, 127
2, 99822, Note_off_c, 8, 80, 127
2, 99822, Note_off_c, 12, 71, 127
2, 99824, Note_on_c, 12, 71, 127
2, 99824, Note_on_c, 2, 74, 127
2, 99824, Note_on_c, 5, 41, 127
2, 100139, Note_off_c, 2, 74, 127
2, 100140, Note_on_c, 1, 73, 127
2, 100451, Note_off_c, 12, 71, 127
2, 100455, Note_off_c, 1, 73, 127
2, 100455, Note_off_c, 5, 41, 127
2, 100457, Note_on_c, 12, 71, 127
2, 100457, Note_on_c, 5, 77, 127
2, 100457, Note_on_c, 1, 37, 127
2, 100772, Note_off_c, 1, 37, 127
2, 100772, Note_off_c, 5, 77, 127
2, 100772, Note_off_c, 12, 71, 127
2, 100774, Note_on_c, 12, 71, 127
2, 100774, Note_on_c, 6, 78, 127
2, 100774, Note_on_c, 6, 42, 127
2, 101089, Note_off_c, 12, 71, 127
2, 101091, Note_on_c, 10, 69, 127
2, 101247, Note_off_c, 6, 42, 127
2, 101249, Note_on_c, 1, 49, 127
2, 101401, Note_off_c, 6, 78, 127
2, 101405, Note_off_c, 1, 49, 127
2, 101408, Note_on_c, 10, 81, 127
2, 101408, Note_on_c, 3, 51, 127
2, 101564, Note_off_c, 3, 51, 127
2, 101566, Note_on_c, 4, 52, 127
2, 101722, Note_off_c, 4, 52, 127
2, 101723, Note_off_c, 10, 81, 127
2, 101724, Note_on_c, 3, 75, 127
2, 101724, Note_on_c, 6, 54, 127
2, 102039, Note_off_c, 3, 75, 127
2, 102039, Note_off_c, 10, 69, 127
2, 102041, Note_on_c, 4, 76, 127
2, 102041, Note_on_c, 8, 68, 127
2, 102355, Note_off_c, 6, 54, 127
2, 102356, Note_off_c, 8, 68, 127
2, 102356, Note_off_c, 4, 76, 127
2, 102358, Note_on_c, 10, 69, 127
2, 102358, Note_on_c, 6, 78, 127
2, 102358, Note_on_c, 6, 54, 127
2, 102673, Note_off_c, 6, 54, 127
2, 102673, Note_off_c, 6, 78, 127
2, 102673, Note_off_c, 10, 69, 127
2, 102675, Note_on_c, 1, 73, 127
2, 102675, Note_on_c, 8, 68, 127
2, 102675, Note_on_c, 6, 54, 127
2, 102990, Note_off_c, 6, 54, 127
2, 102990, Note_off_c, 1, 73, 127
2, 102992, Note_on_c, 0, 72, 127
2, 102992, Note_on_c, 8, 56, 127
2, 103148, Note_off_c, 8, 56, 127
2, 103150, Note_on_c, 6, 54, 127
2, 103302, Note_off_c, 8, 68, 127
2, 103306, Note_off_c, 6, 54, 127
2, 103308, Note_on_c, 8, 68, 127
2, 103308, Note_on_c, 4, 52, 127
2, 103464, Note_off_c, 4, 52, 127
2, 103467, Note_on_c, 3, 51, 127
2, 103619, Note_off_c, 0, 72, 127
2, 103623, Note_off_c, 3, 51, 127
2, 103623, Note_off_c, 8, 68, 127
2, 103625, Note_on_c, 1, 73, 127
2, 103625, Note_on_c, 4, 52, 127
2, 103940, Note_off_c, 4, 52, 127
2, 103942, Note_on_c, 6, 54, 127
2, 104098, Note_off_c, 6, 54, 127
2, 104100, Note_on_c, 4, 52, 127
2, 104256, Note_off_c, 4, 52, 127
2, 104259, Note_on_c, 8, 68, 127
2, 104259, Note_on_c, 3, 51, 127
2, 104415, Note_off_c, 3, 51, 127
2, 104417, Note_on_c, 1, 49, 127
2, 104573, Note_off_c, 1, 49, 127
2, 104574, Note_off_c, 8, 68, 127
2, 104576, Note_on_c, 10, 69, 127
2, 104576, Note_on_c, 6, 54, 127
2, 104732, Note_off_c, 10, 69, 127
2, 104734, Note_on_c, 8, 68, 127
2, 104890, Note_off_c, 8, 68, 127
2, 104891, Note_off_c, 6, 54, 127
2, 104892, Note_on_c, 10, 69, 127
2, 104892, Note_on_c, 10, 57, 127
2, 105048, Note_off_c, 10, 57, 127
2, 105051, Note_on_c, 8, 56, 127
2, 105207, Note_off_c, 8, 56, 127
2, 105207, Note_off_c, 10, 69, 127
2, 105209, Note_on_c, 4, 64, 127
2, 105209, Note_on_c, 10, 57, 127
2, 105524, Note_off_c, 10, 57, 127
2, 105524, Note_off_c, 4, 64, 127
2, 105526, Note_on_c, 6, 66, 127
2, 105526, Note_on_c, 3, 51, 127
2, 105841, Note_off_c, 3, 51, 127
2, 105843, Note_on_c, 4, 52, 127
2, 105996, Note_off_c, 1, 73, 127
2, 106001, Note_on_c, 4, 76, 127
2, 106157, Note_off_c, 4, 76, 127
2, 106158, Note_off_c, 4, 52, 127
2, 106160, Note_on_c, 3, 75, 127
2, 106160, Note_on_c, 6, 54, 127
2, 106316, Note_off_c, 3, 75, 127
2, 106318, Note_on_c, 1, 73, 127
2, 106474, Note_off_c, 1, 73, 127
2, 106475, Note_off_c, 6, 54, 127
2, 106476, Note_on_c, 1, 73, 127
2, 106476, Note_on_c, 8, 56, 127
2, 106791, Note_off_c, 1, 73, 127
2, 106793, Note_on_c, 0, 72, 127
2, 106945, Note_off_c, 6, 66, 127
2, 106952, Note_on_c, 10, 69, 127
2, 107107, Note_off_c, 8, 56, 127
2, 107108, Note_off_c, 10, 69, 127
2, 107110, Note_on_c, 8, 68, 127
2, 107110, Note_on_c, 3, 51, 127
2, 107266, Note_off_c, 8, 68, 127
2, 107268, Note_on_c, 6, 66, 127
2, 107424, Note_off_c, 6, 66, 127
2, 107425, Note_off_c, 3, 51, 127
2, 107427, Note_on_c, 6, 66, 127
2, 107427, Note_on_c, 0, 48, 127
2, 107741, Note_off_c, 0, 72, 127
2, 107744, Note_on_c, 3, 75, 127
2, 108054, Note_off_c, 6, 66, 127
2, 108058, Note_off_c, 0, 48, 127
2, 108059, Note_off_c, 3, 75, 127
2, 108060, Note_on_c, 6, 66, 127
2, 108060, Note_on_c, 8, 44, 127
2, 108375, Note_off_c, 8, 44, 127
2, 108375, Note_off_c, 6, 66, 127
2, 108377, Note_on_c, 6, 66, 127
2, 108377, Note_on_c, 1, 49, 127
2, 108850, Note_off_c, 1, 49, 127
2, 108852, Note_on_c, 8, 56, 127
2, 109008, Note_off_c, 8, 56, 127
2, 109011, Note_on_c, 11, 58, 127
2, 109167, Note_off_c, 11, 58, 127
2, 109169, Note_on_c, 0, 60, 127
2, 109325, Note_off_c, 0, 60, 127
2, 109325, Note_off_c, 6, 66, 127
2, 109328, Note_on_c, 4, 64, 127
2, 109328, Note_on_c, 1, 61, 127
2, 109643, Note_off_c, 1, 61, 127
2, 109644, Note_on_c, 3, 63, 127
2, 109959, Note_off_c, 3, 63, 127
2, 109961, Note_on_c, 8, 68, 127
2, 109961, Note_on_c, 12, 59, 127
2, 110276, Note_off_c, 12, 59, 127
2, 110276, Note_off_c, 8, 68, 127
2, 110278, Note_on_c, 1, 73, 127
2, 110278, Note_on_c, 10, 57, 127
2, 110434, Note_off_c, 1, 73, 127
2, 110436, Note_on_c, 0, 72, 127
2, 110592, Note_off_c, 0, 72, 127
2, 110593, Note_off_c, 10, 57, 127
2, 110595, Note_on_c, 1, 73, 127
2, 110595, Note_on_c, 12, 59, 127
2, 110910, Note_off_c, 12, 59, 127
2, 110910, Note_off_c, 1, 73, 127
2, 110910, Note_off_c, 4, 64, 127
2, 110912, Note_on_c, 1, 73, 127
2, 110912, Note_on_c, 4, 76, 127
2, 110912, Note_on_c, 8, 56, 127
2, 111227, Note_off_c, 8, 56, 127
2, 111227, Note_off_c, 4, 76, 127
2, 111227, Note_off_c, 1, 73, 127
2, 111228, Note_on_c, 1, 73, 127
2, 111228, Note_on_c, 4, 76, 127
2, 111228, Note_on_c, 6, 54, 127
2, 111543, Note_off_c, 4, 76, 127
2, 111545, Note_on_c, 3, 75, 127
2, 111701, Note_off_c, 6, 54, 127
2, 111704, Note_on_c, 3, 51, 127
2, 111860, Note_off_c, 3, 51, 127
2, 111862, Note_on_c, 4, 52, 127
2, 112018, Note_off_c, 4, 52, 127
2, 112020, Note_on_c, 6, 54, 127
2, 112176, Note_off_c, 6, 54, 127
2, 112176, Note_off_c, 1, 73, 127
2, 112179, Note_on_c, 0, 72, 127
2, 112179, Note_on_c, 8, 56, 127
2, 112494, Note_off_c, 8, 56, 127
2, 112496, Note_on_c, 10, 57, 127
2, 112640, Note_off_c, 3, 75, 127
2, 112654, Note_on_c, 3, 75, 127
2, 112810, Note_off_c, 3, 75, 127
2, 112811, Note_off_c, 10, 57, 127
2, 112812, Note_on_c, 4, 76, 127
2, 112812, Note_on_c, 6, 54, 127
2, 112968, Note_off_c, 4, 76, 127
2, 112971, Note_on_c, 6, 78, 127
2, 113127, Note_off_c, 6, 78, 127
2, 113127, Note_off_c, 6, 54, 127
2, 113127, Note_off_c, 0, 72, 127
2, 113129, Note_on_c, 8, 80, 127
2, 113129, Note_on_c, 6, 54, 127
2, 113246, Note_off_c, 6, 54, 127
2, 113248, Note_on_c, 5, 53, 127
2, 113365, Note_off_c, 5, 53, 127
2, 113367, Note_on_c, 6, 54, 127
2, 113446, Note_on_c, 12, 71, 127
2, 113484, Note_off_c, 6, 54, 127
2, 113486, Note_on_c, 5, 53, 127
2, 113602, Note_off_c, 12, 71, 127
2, 113603, Note_off_c, 5, 53, 127
2, 113604, Note_on_c, 11, 70, 127
2, 113604, Note_on_c, 6, 54, 127
2, 113721, Note_off_c, 6, 54, 127
2, 113723, Note_on_c, 5, 53, 127
2, 113756, Note_off_c, 8, 80, 127
2, 113760, Note_off_c, 11, 70, 127
2, 113763, Note_on_c, 12, 71, 127
2, 113763, Note_on_c, 8, 80, 127
2, 113840, Note_off_c, 5, 53, 127
2, 113842, Note_on_c, 3, 51, 127
2, 113959, Note_off_c, 3, 51, 127
2, 113961, Note_on_c, 5, 53, 127
2, 114078, Note_off_c, 5, 53, 127
2, 114078, Note_off_c, 8, 80, 127
2, 114078, Note_off_c, 12, 71, 127
2, 114080, Note_on_c, 12, 71, 127
2, 114080, Note_on_c, 10, 81, 127
2, 114080, Note_on_c, 6, 54, 127
2, 114236, Note_off_c, 10, 81, 127
2, 114238, Note_on_c, 8, 80, 127
2, 114315, Note_off_c, 8, 80, 127
2, 114317, Note_on_c, 10, 81, 127
2, 114394, Note_off_c, 10, 81, 127
2, 114396, Note_on_c, 8, 80, 127
2, 114711, Note_off_c, 8, 80, 127
2, 114713, Note_on_c, 1, 73, 127
2, 115028, Note_off_c, 1, 73, 127
2, 115028, Note_off_c, 12, 71, 127
2, 115030, Note_on_c, 11, 70, 127
2, 115030, Note_on_c, 6, 78, 127
2, 115503, Note_off_c, 11, 70, 127
2, 115505, Note_on_c, 12, 71, 127
2, 115661, Note_off_c, 12, 71, 127
2, 115662, Note_off_c, 6, 54, 127
2, 115664, Note_on_c, 11, 70, 127
2, 115664, Note_on_c, 4, 52, 127
2, 115820, Note_off_c, 11, 70, 127
2, 115822, Note_on_c, 8, 68, 127
2, 115978, Note_off_c, 8, 68, 127
2, 115979, Note_off_c, 4, 52, 127
2, 115980, Note_on_c, 10, 69, 127
2, 115980, Note_on_c, 3, 51, 127
2, 116295, Note_off_c, 3, 51, 127
2, 116297, Note_on_c, 4, 52, 127
2, 116611, Note_off_c, 10, 69, 127
2, 116612, Note_off_c, 4, 52, 127
2, 116614, Note_off_c, 6, 78, 127
2, 116614, Note_on_c, 10, 69, 127
2, 116614, Note_on_c, 6, 78, 127
2, 116614, Note_on_c, 1, 49, 127
2, 116929, Note_off_c, 1, 49, 127
2, 116929, Note_off_c, 6, 78, 127
2, 116929, Note_off_c, 10, 69, 127
2, 116931, Note_on_c, 6, 78, 127
2, 116931, Note_on_c, 10, 69, 127
2, 116931, Note_on_c, 0, 48, 127
2, 117246, Note_off_c, 10, 69, 127
2, 117248, Note_on_c, 8, 68, 127
2, 117558, Note_off_c, 6, 78, 127
2, 117562, Note_off_c, 0, 48, 127
2, 117563, Note_off_c, 8, 68, 127
2, 117564, Note_on_c, 0, 72, 127
2, 117564, Note_on_c, 8, 80, 127
2, 117564, Note_on_c, 8, 44, 127
2, 117879, Note_off_c, 8, 44, 127
2, 117879, Note_off_c, 8, 80, 127
2, 117879, Note_off_c, 0, 72, 127
2, 117881, Note_on_c, 1, 73, 127
2, 117881, Note_on_c, 6, 78, 127
2, 117881, Note_on_c, 1, 49, 127
2, 118163, Note_off_c, 6, 78, 127
2, 118163, Note_on_c, 4, 76, 127
2, 118274, Note_on_c, 6, 78, 127
2, 118275, Note_off_c, 4, 76, 127
2, 118384, Note_on_c, 4, 76, 127
2, 118386, Note_off_c, 6, 78, 127
2, 118495, Note_on_c, 6, 78, 127
2, 118496, Note_off_c, 4, 76, 127
2, 118605, Note_on_c, 4, 76, 127
2, 118607, Note_off_c, 6, 78, 127
2, 118716, Note_on_c, 6, 78, 127
2, 118717, Note_off_c, 4, 76, 127
2, 118827, Note_on_c, 4, 76, 127
2, 118828, Note_off_c, 6, 78, 127
2, 118829, Note_off_c, 1, 49, 127
2, 118832, Note_on_c, 1, 37, 127
2, 118937, Note_on_c, 6, 78, 127
2, 118939, Note_off_c, 4, 76, 127
2, 119040, Note_off_c, 6, 78, 127
2, 119043, Note_on_c, 4, 76, 127
2, 119146, Note_off_c, 4, 76, 127
2, 119146, Note_off_c, 1, 73, 127
2, 119148, Note_on_c, 3, 75, 127
2, 119148, Note_on_c, 0, 72, 127
2, 119463, Note_off_c, 0, 72, 127
2, 119463, Note_off_c, 3, 75, 127
2, 119465, Note_on_c, 1, 73, 127
2, 119465, Note_on_c, 4, 76, 127
2, 119780, Note_off_c, 4, 76, 127
2, 119780, Note_off_c, 1, 73, 127
2, 119780, Note_off_c, 1, 37, 127
2, 119782, Note_on_c, 0, 72, 127
2, 119782, Note_on_c, 4, 76, 127
2, 119782, Note_on_c, 8, 44, 127
2, 120097, Note_off_c, 8, 44, 127
2, 120099, Note_on_c, 0, 48, 127
2, 120413, Note_off_c, 4, 76, 127
2, 120414, Note_off_c, 0, 48, 127
2, 120416, Note_on_c, 3, 75, 127
2, 120416, Note_on_c, 3, 51, 127
2, 120730, Note_off_c, 0, 72, 127
2, 120731, Note_off_c, 3, 51, 127
2, 120732, Note_on_c, 8, 56, 127
2, 121043, Note_off_c, 3, 75, 127
2, 121205, Note_off_c, 8, 56, 127
2, 121208, Note_on_c, 10, 57, 127
2, 121364, Note_off_c, 10, 57, 127
2, 121366, Note_on_c, 3, 75, 127
2, 121366, Note_on_c, 8, 56, 127
2, 121522, Note_off_c, 8, 56, 127
2, 121524, Note_on_c, 6, 54, 127
2, 121680, Note_off_c, 6, 54, 127
2, 121681, Note_off_c, 3, 75, 127
2, 121683, Note_on_c, 3, 75, 127
2, 121683, Note_on_c, 8, 56, 127
2, 121839, Note_off_c, 8, 56, 127
2, 121841, Note_on_c, 6, 54, 127
2, 121997, Note_off_c, 6, 54, 127
2, 121998, Note_off_c, 3, 75, 127
2, 122000, Note_on_c, 4, 76, 127
2, 122000, Note_on_c, 8, 56, 127
2, 122315, Note_off_c, 8, 56, 127
2, 122315, Note_off_c, 4, 76, 127
2, 122316, Note_on_c, 8, 68, 127
2, 122316, Note_on_c, 0, 72, 127
2, 122316, Note_on_c, 8, 56, 127
2, 122631, Note_off_c, 8, 56, 127
2, 122631, Note_off_c, 0, 72, 127
2, 122631, Note_off_c, 8, 68, 127
2, 122633, Note_on_c, 0, 72, 127
2, 122633, Note_on_c, 10, 69, 127
2, 122633, Note_on_c, 8, 56, 127
2, 122948, Note_off_c, 0, 72, 127
2, 122950, Note_on_c, 1, 73, 127
2, 123106, Note_off_c, 8, 56, 127
2, 123108, Note_on_c, 1, 49, 127
2, 123264, Note_off_c, 1, 49, 127
2, 123267, Note_on_c, 3, 51, 127
2, 123423, Note_off_c, 3, 51, 127
2, 123425, Note_on_c, 5, 53, 127
2, 123581, Note_off_c, 5, 53, 127
2, 123581, Note_off_c, 10, 69, 127
2, 123584, Note_on_c, 6, 54, 127
2, 123740, Note_off_c, 6, 54, 127
2, 123742, Note_on_c, 5, 53, 127
2, 123898, Note_off_c, 5, 53, 127
2, 123900, Note_on_c, 6, 54, 127
2, 124056, Note_off_c, 6, 54, 127
2, 124057, Note_off_c, 1, 73, 127
2, 124059, Note_on_c, 4, 76, 127
2, 124059, Note_on_c, 8, 56, 127
2, 124215, Note_off_c, 8, 56, 127
2, 124215, Note_off_c, 4, 76, 127
2, 124217, Note_on_c, 3, 75, 127
2, 124217, Note_on_c, 6, 54, 127
2, 124373, Note_off_c, 6, 54, 127
2, 124373, Note_off_c, 3, 75, 127
2, 124376, Note_on_c, 1, 73, 127
2, 124376, Note_on_c, 4, 52, 127
2, 124532, Note_off_c, 4, 52, 127
2, 124532, Note_off_c, 1, 73, 127
2, 124534, Note_on_c, 1, 73, 127
2, 124534, Note_on_c, 6, 54, 127
2, 124690, Note_off_c, 6, 54, 127
2, 124692, Note_on_c, 4, 52, 127
2, 124848, Note_off_c, 4, 52, 127
2, 124849, Note_off_c, 1, 73, 127
2, 124851, Note_on_c, 10, 81, 127
2, 124851, Note_on_c, 6, 54, 127
2, 125166, Note_off_c, 6, 54, 127
2, 125166, Note_off_c, 10, 81, 127
2, 125168, Note_on_c, 1, 73, 127
2, 125168, Note_on_c, 10, 69, 127
2, 125168, Note_on_c, 6, 54, 127
2, 125483, Note_off_c, 6, 54, 127
2, 125483, Note_off_c, 10, 69, 127
2, 125483, Note_off_c, 1, 73, 127
2, 125484, Note_on_c, 8, 68, 127
2, 125484, Note_on_c, 1, 73, 127
2, 125484, Note_on_c, 6, 54, 127
2, 125799, Note_off_c, 1, 73, 127
2, 125801, Note_on_c, 0, 72, 127
2, 125957, Note_off_c, 6, 54, 127
2, 125960, Note_on_c, 0, 48, 127
2, 126111, Note_off_c, 8, 68, 127
2, 126116, Note_off_c, 0, 48, 127
2, 126116, Note_off_c, 0, 72, 127
2, 126118, Note_on_c, 8, 68, 127
2, 126118, Note_on_c, 1, 49, 127
2, 126274, Note_off_c, 1, 49, 127
2, 126276, Note_on_c, 3, 51, 127
2, 126432, Note_off_c, 3, 51, 127
2, 126433, Note_off_c, 8, 68, 127
2, 126435, Note_on_c, 8, 80, 127
2, 126435, Note_on_c, 4, 52, 127
2, 126908, Note_off_c, 4, 52, 127
2, 126910, Note_on_c, 6, 54, 127
2, 127066, Note_off_c, 6, 54, 127
2, 127068, Note_on_c, 8, 68, 127
2, 127068, Note_on_c, 4, 52, 127
2, 127224, Note_off_c, 4, 52, 127
2, 127227, Note_on_c, 3, 51, 127
2, 127383, Note_off_c, 3, 51, 127
2, 127383, Note_off_c, 8, 68, 127
2, 127385, Note_on_c, 1, 73, 127
2, 127385, Note_on_c, 4, 52, 127
2, 127541, Note_off_c, 1, 73, 127
2, 127544, Note_on_c, 3, 75, 127
2, 127700, Note_off_c, 3, 75, 127
2, 127702, Note_on_c, 4, 76, 127
2, 128016, Note_off_c, 4, 52, 127
2, 128017, Note_off_c, 4, 76, 127
2, 128019, Note_off_c, 8, 80, 127
2, 128019, Note_on_c, 1, 73, 127
2, 128019, Note_on_c, 8, 80, 127
2, 128019, Note_on_c, 4, 52, 127
2, 128334, Note_off_c, 4, 52, 127
2, 128334, Note_off_c, 8, 80, 127
2, 128334, Note_off_c, 1, 73, 127
2, 128336, Note_on_c, 12, 71, 127
2, 128336, Note_on_c, 8, 80, 127
2, 128336, Note_on_c, 4, 52, 127
2, 128651, Note_off_c, 12, 71, 127
2, 128652, Note_on_c, 11, 70, 127
2, 128809, Note_off_c, 4, 52, 127
2, 128811, Note_on_c, 11, 46, 127
2, 128967, Note_off_c, 11, 46, 127
2, 128969, Note_on_c, 0, 48, 127
2, 129125, Note_off_c, 0, 48, 127
2, 129128, Note_on_c, 1, 49, 127
2, 129284, Note_off_c, 1, 49, 127
2, 129284, Note_off_c, 8, 80, 127
2, 129286, Note_on_c, 7, 79, 127
2, 129286, Note_on_c, 3, 51, 127
2, 129754, Note_off_c, 11, 70, 127
2, 129759, Note_off_c, 3, 51, 127
2, 129761, Note_on_c, 1, 73, 127
2, 129761, Note_on_c, 4, 52, 127
2, 129917, Note_off_c, 4, 52, 127
2, 129917, Note_off_c, 1, 73, 127
2, 129920, Note_on_c, 12, 71, 127
2, 129920, Note_on_c, 3, 51, 127
2, 130076, Note_off_c, 3, 51, 127
2, 130076, Note_off_c, 12, 71, 127
2, 130078, Note_on_c, 11, 70, 127
2, 130078, Note_on_c, 1, 49, 127
2, 130234, Note_off_c, 1, 49, 127
2, 130234, Note_off_c, 11, 70, 127
2, 130236, Note_on_c, 0, 72, 127
2, 130236, Note_on_c, 3, 51, 127
2, 130551, Note_off_c, 0, 72, 127
2, 130551, Note_off_c, 7, 79, 127
2, 130553, Note_on_c, 1, 73, 127
2, 130867, Note_off_c, 3, 51, 127
2, 130868, Note_off_c, 1, 73, 127
2, 130870, Note_on_c, 6, 78, 127
2, 130870, Note_on_c, 3, 75, 127
2, 130870, Note_on_c, 3, 51, 127
2, 131185, Note_off_c, 3, 51, 127
2, 131185, Note_off_c, 3, 75, 127
2, 131185, Note_off_c, 6, 78, 127
2, 131187, Note_on_c, 6, 78, 127
2, 131187, Note_on_c, 8, 68, 127
2, 131187, Note_on_c, 3, 51, 127
2, 131500, Note_off_c, 6, 78, 127
2, 131504, Note_on_c, 5, 77, 127
2, 131660, Note_off_c, 5, 77, 127
2, 131660, Note_off_c, 3, 51, 127
2, 131662, Note_on_c, 3, 75, 127
2, 131662, Note_on_c, 8, 44, 127
2, 131818, Note_off_c, 8, 44, 127
2, 131818, Note_off_c, 3, 75, 127
2, 131820, Note_on_c, 1, 73, 127
2, 131820, Note_on_c, 11, 46, 127
2, 131976, Note_off_c, 11, 46, 127
2, 131976, Note_off_c, 1, 73, 127
2, 131979, Note_on_c, 3, 75, 127
2, 131979, Note_on_c, 0, 48, 127
2, 132135, Note_off_c, 0, 48, 127
2, 132135, Note_off_c, 3, 75, 127
2, 132137, Note_on_c, 3, 75, 127
2, 132137, Note_on_c, 1, 49, 127
2, 132452, Note_off_c, 3, 75, 127
2, 132454, Note_on_c, 4, 76, 127
2, 132606, Note_off_c, 8, 68, 127
2, 132610, Note_off_c, 1, 49, 127
2, 132612, Note_on_c, 4, 64, 127
2, 132612, Note_on_c, 3, 51, 127
2, 132768, Note_off_c, 3, 51, 127
2, 132768, Note_off_c, 4, 64, 127
2, 132771, Note_on_c, 6, 66, 127
2, 132771, Note_on_c, 1, 49, 127
2, 132927, Note_off_c, 1, 49, 127
2, 132927, Note_off_c, 6, 66, 127
2, 132929, Note_on_c, 8, 68, 127
2, 132929, Note_on_c, 0, 48, 127
2, 133085, Note_off_c, 0, 48, 127
2, 133085, Note_off_c, 8, 68, 127
2, 133088, Note_on_c, 10, 69, 127
2, 133088, Note_on_c, 1, 49, 127
2, 133403, Note_off_c, 1, 49, 127
2, 133403, Note_off_c, 10, 69, 127
2, 133404, Note_on_c, 1, 73, 127
2, 133404, Note_on_c, 3, 51, 127
2, 133560, Note_off_c, 1, 73, 127
2, 133563, Note_on_c, 0, 72, 127
2, 133719, Note_off_c, 0, 72, 127
2, 133719, Note_off_c, 3, 51, 127
2, 133721, Note_on_c, 1, 73, 127
2, 133721, Note_on_c, 4, 52, 127
2, 134036, Note_off_c, 4, 52, 127
2, 134036, Note_off_c, 1, 73, 127
2, 134038, Note_on_c, 6, 66, 127
2, 134038, Note_on_c, 10, 45, 127
2, 134351, Note_off_c, 4, 76, 127
2, 134355, Note_on_c, 3, 75, 127
2, 134669, Note_off_c, 10, 45, 127
2, 134670, Note_off_c, 3, 75, 127
2, 134672, Note_on_c, 1, 73, 127
2, 134672, Note_on_c, 10, 57, 127
2, 134987, Note_off_c, 10, 57, 127
2, 134987, Note_off_c, 1, 73, 127
2, 134988, Note_on_c, 1, 73, 127
2, 134988, Note_on_c, 10, 57, 127
2, 135144, Note_off_c, 10, 57, 127
2, 135147, Note_on_c, 8, 56, 127
2, 135303, Note_off_c, 8, 56, 127
2, 135303, Note_off_c, 1, 73, 127
2, 135305, Note_on_c, 0, 72, 127
2, 135305, Note_on_c, 10, 57, 127
2, 135461, Note_off_c, 10, 57, 127
2, 135464, Note_on_c, 3, 51, 127
2, 135620, Note_off_c, 3, 51, 127
2, 135622, Note_off_c, 6, 66, 127
2, 135622, Note_on_c, 8, 68, 127
2, 135622, Note_on_c, 4, 52, 127
2, 135778, Note_off_c, 4, 52, 127
2, 135780, Note_on_c, 6, 54, 127
2, 135932, Note_off_c, 0, 72, 127
2, 135936, Note_off_c, 6, 54, 127
2, 135937, Note_off_c, 8, 68, 127
2, 135939, Note_on_c, 6, 66, 127
2, 135939, Note_on_c, 12, 71, 127
2, 135939, Note_on_c, 8, 56, 127
2, 136254, Note_off_c, 6, 66, 127
2, 136256, Note_on_c, 5, 65, 127
2, 136570, Note_off_c, 8, 56, 127
2, 136571, Note_off_c, 5, 65, 127
2, 136572, Note_on_c, 3, 63, 127
2, 136572, Note_on_c, 8, 56, 127
2, 136887, Note_off_c, 8, 56, 127
2, 136887, Note_off_c, 3, 63, 127
2, 136889, Note_on_c, 3, 63, 127
2, 136889, Note_on_c, 8, 56, 127
2, 137204, Note_off_c, 3, 63, 127
2, 137206, Note_on_c, 5, 65, 127
2, 137520, Note_off_c, 8, 56, 127
2, 137523, Note_off_c, 12, 71, 127
2, 137523, Note_on_c, 1, 73, 127
2, 137523, Note_on_c, 1, 49, 127
2, 137833, Note_off_c, 5, 65, 127
2, 137838, Note_off_c, 1, 49, 127
2, 137838, Note_off_c, 1, 73, 127
2, 137840, Note_on_c, 12, 71, 127
2, 137840, Note_on_c, 6, 66, 127
2, 137840, Note_on_c, 6, 54, 127
2, 137996, Note_off_c, 6, 54, 127
2, 137998, Note_on_c, 5, 53, 127
2, 138154, Note_off_c, 5, 53, 127
2, 138155, Note_off_c, 12, 71, 127
2, 138156, Note_on_c, 10, 69, 127
2, 138156, Note_on_c, 6, 54, 127
2, 138467, Note_off_c, 6, 66, 127
2, 138471, Note_off_c, 6, 54, 127
2, 138471, Note_off_c, 10, 69, 127
2, 138473, Note_on_c, 4, 64, 127
2, 138473, Note_on_c, 8, 68, 127
2, 138473, Note_on_c, 6, 54, 127
2, 138788, Note_off_c, 6, 54, 127
2, 138788, Note_off_c, 8, 68, 127
2, 138788, Note_off_c, 4, 64, 127
2, 138790, Note_on_c, 8, 68, 127
2, 138790, Note_on_c, 4, 64, 127
2, 138790, Note_on_c, 6, 54, 127
2, 138946, Note_off_c, 6, 54, 127
2, 138948, Note_on_c, 5, 53, 127
2, 139104, Note_off_c, 5, 53, 127
2, 139105, Note_off_c, 4, 64, 127
2, 139105, Note_off_c, 8, 68, 127
2, 139107, Note_on_c, 3, 63, 127
2, 139107, Note_on_c, 6, 66, 127
2, 139107, Note_on_c, 6, 54, 127
2, 139422, Note_off_c, 6, 54, 127
2, 139422, Note_off_c, 6, 66, 127
2, 139422, Note_off_c, 3, 63, 127
2, 139424, Note_on_c, 4, 64, 127
2, 139424, Note_on_c, 1, 61, 127
2, 139424, Note_on_c, 6, 54, 127
2, 139739, Note_off_c, 6, 54, 127
2, 139739, Note_off_c, 1, 61, 127
2, 139739, Note_off_c, 4, 64, 127
2, 139740, Note_on_c, 0, 60, 127
2, 139740, Note_on_c, 4, 64, 127
2, 139740, Note_on_c, 6, 54, 127
2, 140055, Note_off_c, 6, 54, 127
2, 140055, Note_off_c, 4, 64, 127
2, 140055, Note_off_c, 0, 60, 127
2, 140057, Note_on_c, 3, 63, 127
2, 140057, Note_on_c, 8, 56, 127
2, 140213, Note_off_c, 8, 56, 127
2, 140213, Note_off_c, 3, 63, 127
2, 140216, Note_on_c, 8, 68, 127
2, 140216, Note_on_c, 6, 54, 127
2, 140372, Note_off_c, 6, 54, 127
2, 140372, Note_off_c, 8, 68, 127
2, 140374, Note_on_c, 0, 72, 127
2, 140374, Note_on_c, 4, 52, 127
2, 140530, Note_off_c, 4, 52, 127
2, 140530, Note_off_c, 0, 72, 127
2, 140532, Note_on_c, 3, 75, 127
2, 140532, Note_on_c, 3, 51, 127
2, 140688, Note_off_c, 3, 51, 127
2, 140688, Note_off_c, 3, 75, 127
2, 140691, Note_on_c, 8, 80, 127
2, 140691, Note_on_c, 6, 54, 127
2, 140810, Note_on_c, 4, 52, 127
2, 140823, Note_off_c, 6, 54, 127
2, 140847, Note_off_c, 8, 80, 127
2, 140849, Note_on_c, 6, 78, 127
2, 140928, Note_on_c, 6, 54, 127
2, 140942, Note_off_c, 4, 52, 127
2, 141005, Note_off_c, 6, 78, 127
2, 141008, Note_on_c, 8, 80, 127
2, 141047, Note_on_c, 4, 52, 127
2, 141060, Note_off_c, 6, 54, 127
2, 141166, Note_on_c, 6, 54, 127
2, 141179, Note_off_c, 4, 52, 127
2, 141285, Note_on_c, 4, 52, 127
2, 141298, Note_off_c, 6, 54, 127
2, 141323, Note_off_c, 8, 80, 127
2, 141324, Note_on_c, 8, 80, 127
2, 141404, Note_on_c, 6, 54, 127
2, 141417, Note_off_c, 4, 52, 127
2, 141522, Note_on_c, 4, 52, 127
2, 141536, Note_off_c, 6, 54, 127
2, 141639, Note_off_c, 8, 80, 127
2, 141641, Note_on_c, 8, 80, 127
2, 141641, Note_on_c, 6, 54, 127
2, 141654, Note_off_c, 4, 52, 127
2, 141760, Note_on_c, 4, 52, 127
2, 141773, Note_off_c, 6, 54, 127
2, 141797, Note_off_c, 8, 80, 127
2, 141800, Note_on_c, 6, 78, 127
2, 141879, Note_on_c, 6, 54, 127
2, 141892, Note_off_c, 4, 52, 127
2, 141956, Note_off_c, 6, 78, 127
2, 141958, Note_on_c, 8, 80, 127
2, 141998, Note_on_c, 4, 52, 127
2, 142011, Note_off_c, 6, 54, 127
2, 142116, Note_on_c, 6, 54, 127
2, 142130, Note_off_c, 4, 52, 127
2, 142235, Note_on_c, 4, 52, 127
2, 142248, Note_off_c, 6, 54, 127
2, 142273, Note_off_c, 8, 80, 127
2, 142275, Note_on_c, 8, 80, 127
2, 142352, Note_off_c, 4, 52, 127
2, 142354, Note_on_c, 3, 51, 127
2, 142471, Note_off_c, 3, 51, 127
2, 142473, Note_on_c, 4, 52, 127
2, 142590, Note_off_c, 4, 52, 127
2, 142590, Note_off_c, 8, 80, 127
2, 142592, Note_on_c, 8, 80, 127
2, 142592, Note_on_c, 3, 51, 127
2, 142907, Note_off_c, 8, 80, 127
2, 142908, Note_on_c, 10, 81, 127
2, 143064, Note_off_c, 10, 81, 127
2, 143065, Note_off_c, 3, 51, 127
2, 143067, Note_on_c, 8, 80, 127
2, 143067, Note_on_c, 3, 63, 127
2, 143223, Note_off_c, 3, 63, 127
2, 143223, Note_off_c, 8, 80, 127
2, 143225, Note_on_c, 6, 78, 127
2, 143225, Note_on_c, 6, 66, 127
2, 143381, Note_off_c, 6, 66, 127
2, 143381, Note_off_c, 6, 78, 127
2, 143384, Note_on_c, 4, 76, 127
2, 143384, Note_on_c, 11, 70, 127
2, 143540, Note_off_c, 11, 70, 127
2, 143540, Note_off_c, 4, 76, 127
2, 143542, Note_on_c, 6, 78, 127
2, 143542, Note_on_c, 3, 75, 127
2, 143698, Note_off_c, 3, 75, 127
2, 143700, Note_on_c, 1, 73, 127
2, 143856, Note_off_c, 1, 73, 127
2, 143859, Note_on_c, 3, 75, 127
2, 144015, Note_off_c, 3, 75, 127
2, 144017, Note_on_c, 4, 52, 127
2, 144173, Note_off_c, 4, 52, 127
2, 144173, Note_off_c, 6, 78, 127
2, 144176, Note_on_c, 3, 75, 127
2, 144176, Note_on_c, 6, 78, 127
2, 144176, Note_on_c, 3, 51, 127
2, 144332, Note_off_c, 3, 51, 127
2, 144334, Note_on_c, 1, 49, 127
2, 144490, Note_off_c, 1, 49, 127
2, 144491, Note_off_c, 6, 78, 127
2, 144491, Note_off_c, 3, 75, 127
2, 144492, Note_on_c, 6, 78, 127
2, 144492, Note_on_c, 3, 75, 127
2, 144492, Note_on_c, 0, 48, 127
2, 144648, Note_off_c, 0, 48, 127
2, 144651, Note_on_c, 1, 49, 127
2, 144807, Note_off_c, 1, 49, 127
2, 144809, Note_on_c, 3, 51, 127
2, 145123, Note_off_c, 3, 75, 127
2, 145123, Note_off_c, 6, 78, 127
2, 145124, Note_off_c, 3, 51, 127
2, 145126, Note_on_c, 3, 75, 127
2, 145126, Note_on_c, 6, 78, 127
2, 145126, Note_on_c, 8, 44, 127
2, 145441, Note_off_c, 8, 44, 127
2, 145441, Note_off_c, 6, 78, 127
2, 145441, Note_off_c, 3, 75, 127
2, 145443, Note_on_c, 3, 75, 127
2, 145443, Note_on_c, 6, 78, 127
2, 145443, Note_on_c, 1, 49, 127
2, 145758, Note_off_c, 6, 78, 127
2, 145758, Note_off_c, 3, 75, 127
2, 145760, Note_on_c, 4, 76, 127
2, 145916, Note_off_c, 4, 76, 127
2, 145916, Note_off_c, 1, 49, 127
2, 145918, Note_on_c, 3, 75, 127
2, 145918, Note_on_c, 3, 51, 127
2, 146074, Note_off_c, 3, 51, 127
2, 146074, Note_off_c, 3, 75, 127
2, 146076, Note_on_c, 1, 73, 127
2, 146076, Note_on_c, 4, 52, 127
2, 146232, Note_off_c, 4, 52, 127
2, 146232, Note_off_c, 1, 73, 127
2, 146235, Note_on_c, 0, 72, 127
2, 146235, Note_on_c, 8, 56, 127
2, 146391, Note_off_c, 8, 56, 127
2, 146391, Note_off_c, 0, 72, 127
2, 146393, Note_on_c, 4, 76, 127
2, 146393, Note_on_c, 1, 73, 127
2, 146393, Note_on_c, 1, 61, 127
2, 146549, Note_off_c, 1, 61, 127
2, 146552, Note_on_c, 0, 60, 127
2, 146708, Note_off_c, 0, 60, 127
2, 146708, Note_off_c, 1, 73, 127
2, 146708, Note_off_c, 4, 76, 127
2, 146710, Note_on_c, 3, 75, 127
2, 146710, Note_on_c, 6, 78, 127
2, 146710, Note_on_c, 1, 61, 127
2, 147025, Note_off_c, 1, 61, 127
2, 147025, Note_off_c, 6, 78, 127
2, 147025, Note_off_c, 3, 75, 127
2, 147027, Note_on_c, 4, 76, 127
2, 147027, Note_on_c, 8, 80, 127
2, 147027, Note_on_c, 1, 61, 127
2, 147342, Note_off_c, 1, 61, 127
2, 147342, Note_off_c, 8, 80, 127
2, 147342, Note_off_c, 4, 76, 127
2, 147344, Note_on_c, 1, 73, 127
2, 147344, Note_on_c, 11, 70, 127
2, 147344, Note_on_c, 1, 61, 127
2, 147659, Note_off_c, 11, 70, 127
2, 147659, Note_off_c, 1, 73, 127
2, 147660, Note_on_c, 3, 75, 127
2, 147660, Note_on_c, 12, 71, 127
2, 147975, Note_off_c, 12, 71, 127
2, 147975, Note_off_c, 3, 75, 127
2, 147975, Note_off_c, 1, 61, 127
2, 147977, Note_on_c, 1, 73, 127
2, 147977, Note_on_c, 4, 76, 127
2, 147977, Note_on_c, 1, 61, 127
2, 148292, Note_off_c, 1, 61, 127
2, 148292, Note_off_c, 4, 76, 127
2, 148292, Note_off_c, 1, 73, 127
2, 148294, Note_on_c, 7, 67, 127
2, 148294, Note_on_c, 12, 71, 127
2, 148294, Note_on_c, 1, 61, 127
2, 148609, Note_off_c, 1, 61, 127
2, 148609, Note_off_c, 12, 71, 127
2, 148611, Note_on_c, 11, 70, 127
2, 148611, Note_on_c, 3, 63, 127
2, 148767, Note_off_c, 3, 63, 127
2, 148769, Note_on_c, 1, 61, 127
2, 148921, Note_off_c, 7, 67, 127
2, 148925, Note_off_c, 1, 61, 127
2, 148928, Note_on_c, 3, 63, 127
2, 148928, Note_on_c, 12, 59, 127
2, 149084, Note_off_c, 12, 59, 127
2, 149086, Note_on_c, 11, 58, 127
2, 149238, Note_off_c, 11, 70, 127
2, 149242, Note_off_c, 11, 58, 127
2, 149243, Note_off_c, 3, 63, 127
2, 149244, Note_on_c, 3, 75, 127
2, 149244, Note_on_c, 12, 59, 127
2, 149400, Note_off_c, 3, 75, 127
2, 149403, Note_on_c, 1, 73, 127
2, 149559, Note_off_c, 1, 73, 127
2, 149559, Note_off_c, 12, 59, 127
2, 149561, Note_on_c, 3, 75, 127
2, 149561, Note_on_c, 12, 59, 127
2, 149717, Note_off_c, 12, 59, 127
2, 149720, Note_on_c, 11, 58, 127
2, 149876, Note_off_c, 11, 58, 127
2, 149878, Note_on_c, 3, 63, 127
2, 149878, Note_on_c, 12, 59, 127
2, 150193, Note_off_c, 12, 59, 127
2, 150193, Note_off_c, 3, 63, 127
2, 150195, Note_on_c, 8, 68, 127
2, 150195, Note_on_c, 12, 59, 127
2, 150351, Note_off_c, 12, 59, 127
2, 150353, Note_on_c, 11, 58, 127
2, 150509, Note_off_c, 11, 58, 127
2, 150512, Note_on_c, 12, 59, 127
2, 150666, Note_off_c, 3, 75, 127
2, 150670, Note_on_c, 3, 75, 127
2, 150826, Note_off_c, 3, 75, 127
2, 150827, Note_off_c, 12, 59, 127
2, 150828, Note_on_c, 5, 77, 127
2, 150828, Note_on_c, 12, 59, 127
2, 150984, Note_off_c, 5, 77, 127
2, 150987, Note_on_c, 6, 78, 127
2, 151143, Note_off_c, 6, 78, 127
2, 151143, Note_off_c, 12, 59, 127
2, 151145, Note_on_c, 6, 78, 127
2, 151145, Note_on_c, 12, 59, 127
2, 151262, Note_off_c, 6, 78, 127
2, 151264, Note_on_c, 5, 77, 127
2, 151381, Note_off_c, 5, 77, 127
2, 151383, Note_on_c, 6, 78, 127
2, 151460, Note_off_c, 12, 59, 127
2, 151462, Note_on_c, 1, 61, 127
2, 151500, Note_off_c, 6, 78, 127
2, 151502, Note_on_c, 5, 77, 127
2, 151618, Note_off_c, 1, 61, 127
2, 151619, Note_off_c, 5, 77, 127
2, 151620, Note_on_c, 6, 78, 127
2, 151620, Note_on_c, 12, 59, 127
2, 151737, Note_off_c, 6, 78, 127
2, 151739, Note_on_c, 5, 77, 127
2, 151776, Note_off_c, 12, 59, 127
2, 151779, Note_on_c, 10, 57, 127
2, 151856, Note_off_c, 5, 77, 127
2, 151858, Note_on_c, 3, 75, 127
2, 151935, Note_off_c, 10, 57, 127
2, 151937, Note_on_c, 8, 56, 127
2, 151975, Note_off_c, 3, 75, 127
2, 151977, Note_on_c, 5, 77, 127
2, 152092, Note_off_c, 8, 68, 127
2, 152093, Note_off_c, 8, 56, 127
2, 152094, Note_off_c, 5, 77, 127
2, 152096, Note_on_c, 6, 78, 127
2, 152096, Note_on_c, 1, 61, 127
2, 152096, Note_on_c, 10, 57, 127
2, 152252, Note_off_c, 10, 57, 127
2, 152254, Note_on_c, 6, 54, 127
2, 152409, Note_off_c, 1, 61, 127
2, 152410, Note_off_c, 6, 54, 127
2, 152412, Note_on_c, 8, 56, 127
2, 152568, Note_off_c, 8, 56, 127
2, 152569, Note_off_c, 6, 78, 127
2, 152571, Note_on_c, 4, 76, 127
2, 152571, Note_on_c, 10, 57, 127
2, 152727, Note_off_c, 10, 57, 127
2, 152727, Note_off_c, 4, 76, 127
2, 152729, Note_on_c, 2, 74, 127
2, 152729, Note_on_c, 12, 59, 127
2, 152885, Note_off_c, 12, 59, 127
2, 152885, Note_off_c, 2, 74, 127
2, 152888, Note_on_c, 1, 73, 127
2, 152888, Note_on_c, 1, 61, 127
2, 153044, Note_off_c, 1, 61, 127
2, 153044, Note_off_c, 1, 73, 127
2, 153046, Note_on_c, 12, 71, 127
2, 153046, Note_on_c, 2, 62, 127
2, 153202, Note_off_c, 2, 62, 127
2, 153204, Note_on_c, 1, 61, 127
2, 153360, Note_off_c, 1, 61, 127
2, 153363, Note_on_c, 2, 62, 127
2, 153521, Note_on_c, 10, 69, 127
2, 153677, Note_off_c, 10, 69, 127
2, 153678, Note_off_c, 2, 62, 127
2, 153680, Note_on_c, 8, 68, 127
2, 153680, Note_on_c, 12, 59, 127
2, 153836, Note_off_c, 8, 68, 127
2, 153838, Note_on_c, 6, 66, 127
2, 153994, Note_off_c, 6, 66, 127
2, 153995, Note_off_c, 12, 59, 127
2, 153996, Note_on_c, 8, 68, 127
2, 153996, Note_on_c, 6, 54, 127
2, 154311, Note_off_c, 6, 54, 127
2, 154313, Note_on_c, 5, 53, 127
2, 154469, Note_off_c, 5, 53, 127
2, 154472, Note_on_c, 1, 49, 127
2, 154628, Note_off_c, 1, 49, 127
2, 154630, Note_off_c, 12, 71, 127
2, 154630, Note_on_c, 1, 73, 127
2, 154630, Note_on_c, 3, 51, 127
2, 154786, Note_off_c, 3, 51, 127
2, 154788, Note_on_c, 5, 53, 127
2, 154944, Note_off_c, 5, 53, 127
2, 154945, Note_off_c, 1, 73, 127
2, 154947, Note_on_c, 12, 71, 127
2, 154947, Note_on_c, 6, 54, 127
2, 155262, Note_off_c, 6, 54, 127
2, 155264, Note_on_c, 10, 57, 127
2, 155420, Note_off_c, 10, 57, 127
2, 155422, Note_on_c, 8, 56, 127
2, 155574, Note_off_c, 12, 71, 127
2, 155578, Note_off_c, 8, 56, 127
2, 155580, Note_on_c, 10, 69, 127
2, 155580, Note_on_c, 6, 54, 127
2, 155736, Note_off_c, 6, 54, 127
2, 155739, Note_on_c, 4, 52, 127
2, 155893, Note_off_c, 10, 69, 127
2, 155893, Note_off_c, 8, 68, 127
2, 155895, Note_off_c, 4, 52, 127
2, 155897, Note_on_c, 6, 66, 127
2, 155897, Note_on_c, 12, 71, 127
2, 155897, Note_on_c, 3, 51, 127
2, 156014, Note_off_c, 12, 71, 127
2, 156016, Note_on_c, 10, 69, 127
2, 156133, Note_off_c, 10, 69, 127
2, 156135, Note_on_c, 12, 71, 127
2, 156212, Note_off_c, 3, 51, 127
2, 156214, Note_on_c, 4, 52, 127
2, 156252, Note_off_c, 12, 71, 127
2, 156254, Note_on_c, 10, 69, 127
2, 156371, Note_off_c, 10, 69, 127
2, 156372, Note_on_c, 12, 71, 127
2, 156489, Note_off_c, 12, 71, 127
2, 156491, Note_on_c, 10, 69, 127
2, 156529, Note_off_c, 4, 52, 127
2, 156531, Note_on_c, 1, 49, 127
2, 156608, Note_off_c, 10, 69, 127
2, 156610, Note_on_c, 8, 68, 127
2, 156727, Note_off_c, 8, 68, 127
2, 156729, Note_on_c, 10, 69, 127
2, 156846, Note_off_c, 10, 69, 127
2, 156846, Note_off_c, 1, 49, 127
2, 156848, Note_on_c, 8, 68, 127
2, 156848, Note_on_c, 0, 48, 127
2, 157004, Note_off_c, 0, 48, 127
2, 157006, Note_on_c, 1, 49, 127
2, 157162, Note_off_c, 1, 49, 127
2, 157162, Note_off_c, 6, 66, 127
2, 157164, Note_on_c, 3, 51, 127
2, 157479, Note_off_c, 3, 51, 127
2, 157481, Note_on_c, 8, 44, 127
2, 157796, Note_off_c, 8, 44, 127
2, 157798, Note_on_c, 4, 64, 127
2, 157798, Note_on_c, 1, 49, 127
2, 157954, Note_off_c, 4, 64, 127
2, 157956, Note_on_c, 3, 63, 127
2, 158112, Note_off_c, 3, 63, 127
2, 158113, Note_off_c, 1, 49, 127
2, 158115, Note_on_c, 4, 64, 127
2, 158115, Note_on_c, 4, 52, 127
2, 158148, Note_off_c, 8, 68, 127
2, 158430, Note_off_c, 4, 52, 127
2, 158432, Note_on_c, 8, 68, 127
2, 158432, Note_on_c, 3, 51, 127
2, 158747, Note_off_c, 3, 51, 127
2, 158747, Note_off_c, 8, 68, 127
2, 158748, Note_on_c, 1, 73, 127
2, 158748, Note_on_c, 4, 52, 127
2, 159063, Note_off_c, 4, 52, 127
2, 159063, Note_off_c, 4, 64, 127
2, 159065, Note_on_c, 3, 63, 127
2, 159065, Note_on_c, 6, 54, 127
2, 159380, Note_off_c, 6, 54, 127
2, 159380, Note_off_c, 3, 63, 127
2, 159382, Note_on_c, 4, 64, 127
2, 159382, Note_on_c, 8, 56, 127
2, 159697, Note_off_c, 8, 56, 127
2, 159697, Note_off_c, 4, 64, 127
2, 159699, Note_on_c, 4, 64, 127
2, 159699, Note_on_c, 10, 57, 127
2, 160014, Note_off_c, 10, 57, 127
2, 160016, Note_on_c, 12, 59, 127
2, 160331, Note_off_c, 12, 59, 127
2, 160332, Note_on_c, 8, 56, 127
2, 160645, Note_off_c, 1, 73, 127
2, 160647, Note_off_c, 8, 56, 127
2, 160647, Note_off_c, 4, 64, 127
2, 160649, Note_on_c, 0, 72, 127
2, 160649, Note_on_c, 3, 63, 127
2, 160649, Note_on_c, 6, 54, 127
2, 160964, Note_off_c, 6, 54, 127
2, 160966, Note_on_c, 8, 56, 127
2, 161280, Note_off_c, 3, 63, 127
2, 161280, Note_off_c, 0, 72, 127
2, 161281, Note_off_c, 8, 56, 127
2, 161283, Note_on_c, 1, 73, 127
2, 161283, Note_on_c, 4, 64, 127
2, 161283, Note_on_c, 4, 52, 127
2, 161598, Note_off_c, 4, 52, 127
2, 161598, Note_off_c, 4, 64, 127
2, 161598, Note_off_c, 1, 73, 127
2, 161600, Note_on_c, 6, 66, 127
2, 161600, Note_on_c, 3, 75, 127
2, 161600, Note_on_c, 3, 51, 127
2, 161756, Note_off_c, 3, 51, 127
2, 161758, Note_on_c, 4, 52, 127
2, 161914, Note_off_c, 4, 52, 127
2, 161916, Note_on_c, 6, 54, 127
2, 162231, Note_off_c, 6, 54, 127
2, 162233, Note_on_c, 3, 51, 127
2, 162548, Note_off_c, 3, 51, 127
2, 162550, Note_on_c, 8, 44, 127
2, 162865, Note_off_c, 6, 66, 127
2, 162867, Note_on_c, 10, 69, 127
2, 163182, Note_off_c, 10, 69, 127
2, 163184, Note_off_c, 3, 75, 127
2, 163184, Note_on_c, 8, 68, 127
2, 163184, Note_on_c, 4, 76, 127
2, 163499, Note_off_c, 4, 76, 127
2, 163499, Note_off_c, 8, 68, 127
2, 163500, Note_on_c, 4, 76, 127
2, 163500, Note_on_c, 8, 68, 127
2, 163815, Note_off_c, 8, 68, 127
2, 163815, Note_off_c, 4, 76, 127
2, 163817, Note_on_c, 10, 69, 127
2, 163817, Note_on_c, 6, 78, 127
2, 163969, Note_off_c, 8, 44, 127
2, 164134, Note_on_c, 0, 60, 127
2, 164449, Note_off_c, 0, 60, 127
2, 164451, Note_on_c, 0, 60, 127
2, 164766, Note_off_c, 0, 60, 127
2, 164768, Note_on_c, 1, 61, 127
2, 165082, Note_off_c, 6, 78, 127
2, 165082, Note_off_c, 10, 69, 127
2, 165084, Note_on_c, 3, 75, 127
2, 165084, Note_on_c, 6, 66, 127
2, 165399, Note_off_c, 6, 66, 127
2, 165399, Note_off_c, 3, 75, 127
2, 165401, Note_on_c, 4, 76, 127
2, 165401, Note_on_c, 8, 68, 127
2, 165716, Note_off_c, 1, 61, 127
2, 165718, Note_on_c, 12, 59, 127
2, 166028, Note_off_c, 8, 68, 127
2, 166033, Note_off_c, 12, 59, 127
2, 166035, Note_on_c, 10, 69, 127
2, 166035, Note_on_c, 10, 57, 127
2, 166349, Note_off_c, 4, 76, 127
2, 166350, Note_off_c, 10, 57, 127
2, 166350, Note_off_c, 10, 69, 127
2, 166352, Note_on_c, 12, 71, 127
2, 166352, Note_on_c, 5, 77, 127
2, 166352, Note_on_c, 8, 56, 127
2, 166667, Note_off_c, 12, 71, 127
2, 166668, Note_on_c, 10, 69, 127
2, 166983, Note_off_c, 10, 69, 127
2, 166983, Note_off_c, 8, 56, 127
2, 166985, Note_on_c, 8, 68, 127
2, 166985, Note_on_c, 1, 61, 127
2, 167300, Note_off_c, 1, 61, 127
2, 167300, Note_off_c, 8, 68, 127
2, 167300, Note_off_c, 5, 77, 127
2, 167302, Note_on_c, 6, 78, 127
2, 167302, Note_on_c, 11, 70, 127
2, 167302, Note_on_c, 8, 56, 127
2, 167419, Note_off_c, 8, 56, 127
2, 167421, Note_on_c, 6, 54, 127
2, 167538, Note_off_c, 6, 54, 127
2, 167540, Note_on_c, 8, 56, 127
2, 167617, Note_off_c, 11, 70, 127
2, 167619, Note_on_c, 1, 73, 127
2, 167657, Note_off_c, 8, 56, 127
2, 167658, Note_on_c, 6, 54, 127
2, 167775, Note_off_c, 6, 54, 127
2, 167777, Note_on_c, 8, 56, 127
2, 167894, Note_off_c, 8, 56, 127
2, 167896, Note_on_c, 6, 54, 127
2, 167934, Note_off_c, 1, 73, 127
2, 167936, Note_on_c, 0, 72, 127
2, 168013, Note_off_c, 6, 54, 127
2, 168015, Note_on_c, 5, 53, 127
2, 168132, Note_off_c, 5, 53, 127
2, 168134, Note_on_c, 6, 54, 127
2, 168250, Note_off_c, 6, 78, 127
2, 168251, Note_off_c, 6, 54, 127
2, 168251, Note_off_c, 0, 72, 127
2, 168252, Note_on_c, 1, 73, 127
2, 168252, Note_on_c, 4, 76, 127
2, 168252, Note_on_c, 8, 56, 127
2, 168369, Note_off_c, 8, 56, 127
2, 168371, Note_on_c, 7, 55, 127
2, 168488, Note_off_c, 7, 55, 127
2, 168490, Note_on_c, 8, 56, 127
2, 168567, Note_off_c, 1, 73, 127
2, 168569, Note_on_c, 0, 72, 127
2, 168607, Note_off_c, 8, 56, 127
2, 168609, Note_on_c, 7, 55, 127
2, 168726, Note_off_c, 7, 55, 127
2, 168728, Note_on_c, 8, 56, 127
2, 168845, Note_off_c, 8, 56, 127
2, 168846, Note_on_c, 7, 55, 127
2, 168884, Note_off_c, 0, 72, 127
2, 168886, Note_on_c, 11, 70, 127
2, 168963, Note_off_c, 7, 55, 127
2, 168965, Note_on_c, 5, 53, 127
2, 169082, Note_off_c, 5, 53, 127
2, 169084, Note_on_c, 7, 55, 127
2, 169200, Note_off_c, 4, 76, 127
2, 169201, Note_off_c, 7, 55, 127
2, 169201, Note_off_c, 11, 70, 127
2, 169203, Note_on_c, 3, 75, 127
2, 169203, Note_on_c, 0, 72, 127
2, 169203, Note_on_c, 8, 56, 127
2, 169518, Note_off_c, 3, 75, 127
2, 169520, Note_on_c, 6, 78, 127
2, 169830, Note_off_c, 0, 72, 127
2, 169835, Note_off_c, 6, 78, 127
2, 169836, Note_on_c, 4, 76, 127
2, 169836, Note_on_c, 1, 73, 127
2, 170151, Note_off_c, 1, 73, 127
2, 170151, Note_off_c, 4, 76, 127
2, 170153, Note_on_c, 3, 75, 127
2, 170153, Note_on_c, 6, 78, 127
2, 170309, Note_off_c, 6, 78, 127
2, 170312, Note_on_c, 8, 80, 127
2, 170468, Note_off_c, 8, 80, 127
2, 170470, Note_on_c, 10, 81, 127
2, 170622, Note_off_c, 8, 56, 127
2, 170780, Note_off_c, 3, 75, 127
2, 170785, Note_off_c, 10, 81, 127
2, 170787, Note_on_c, 8, 80, 127
2, 170787, Note_on_c, 0, 72, 127
2, 170787, Note_on_c, 8, 44, 127
2, 171102, Note_off_c, 8, 44, 127
2, 171102, Note_off_c, 0, 72, 127
2, 171102, Note_off_c, 8, 80, 127
2, 171104, Note_on_c, 1, 73, 127
2, 171104, Note_on_c, 6, 78, 127
2, 171104, Note_on_c, 10, 45, 127
2, 171424, Note_off_c, 10, 45, 127
2, 171424, Note_off_c, 6, 78, 127
2, 171425, Note_on_c, 4, 76, 127
2, 171425, Note_on_c, 8, 44, 127
2, 171740, Note_off_c, 1, 73, 127
2, 171745, Note_off_c, 8, 44, 127
2, 171745, Note_off_c, 4, 76, 127
2, 171747, Note_on_c, 10, 69, 127
2, 171747, Note_on_c, 3, 75, 127
2, 171747, Note_on_c, 6, 42, 127
2, 172067, Note_off_c, 6, 42, 127
2, 172067, Note_off_c, 3, 75, 127
2, 172067, Note_off_c, 10, 69, 127
2, 172069, Note_on_c, 4, 64, 127
2, 172069, Note_on_c, 1, 73, 127
2, 172069, Note_on_c, 8, 44, 127
2, 172729, Note_off_c, 8, 44, 127
2, 172730, Note_on_c, 7, 55, 127
2, 173058, Note_off_c, 7, 55, 127
2, 173059, Note_off_c, 1, 73, 127
2, 173059, Note_off_c, 4, 64, 127
2, 173060, Note_on_c, 3, 63, 127
2, 173060, Note_on_c, 1, 73, 127
2, 173060, Note_on_c, 8, 56, 127
2, 173173, Note_off_c, 1, 73, 127
2, 173174, Note_on_c, 0, 72, 127
2, 173287, Note_off_c, 0, 72, 127
2, 173288, Note_on_c, 1, 73, 127
2, 173401, Note_off_c, 1, 73, 127
2, 173402, Note_on_c, 0, 72, 127
2, 173738, Note_off_c, 0, 72, 127
2, 173739, Note_off_c, 8, 56, 127
2, 173739, Note_off_c, 3, 63, 127
2, 173742, Note_on_c, 4, 64, 127
2, 173742, Note_on_c, 1, 73, 127
2, 173742, Note_on_c, 8, 44, 127
2, 174080, Note_off_c, 8, 44, 127
2, 174080, Note_off_c, 1, 73, 127
2, 174080, Note_off_c, 4, 64, 127
2, 174097, Note_on_c, 1, 61, 127
2, 174097, Note_on_c, 1, 37, 127
2, 174098, Note_on_c, 4, 64, 127
2, 174099, Note_on_c, 8, 68, 127
2, 174100, Note_on_c, 1, 73, 127
2, 177157, Note_off_c, 1, 37, 127
2, 177157, Note_off_c, 1, 61, 127
2, 177158, Note_off_c, 4, 64, 127
2, 177159, Note_off_c, 8, 68, 127
2, 177160, Note_off_c, 1, 73, 127
2, 177210, Note_on_c, 1, 49, 127
2, 177368, Note_off_c, 1, 49, 127
2, 177370, Note_on_c, 0, 48, 127
2, 177528, Note_off_c, 0, 48, 127
2, 177530, Note_on_c, 1, 49, 127
2, 177688, Note_off_c, 1, 49, 127
2, 177690, Note_on_c, 3, 51, 127
2, 177848, Note_off_c, 3, 51, 127
2, 177850, Note_on_c, 1, 49, 127
2, 178008, Note_off_c, 1, 49, 127
2, 178010, Note_on_c, 3, 51, 127
2, 178168, Note_off_c, 3, 51, 127
2, 178170, Note_on_c, 8, 44, 127
2, 178328, Note_off_c, 8, 44, 127
2, 178330, Note_on_c, 11, 46, 127
2, 178488, Note_off_c, 11, 46, 127
2, 178490, Note_on_c, 0, 48, 127
2, 178648, Note_off_c, 0, 48, 127
2, 178650, Note_on_c, 1, 49, 127
2, 178808, Note_off_c, 1, 49, 127
2, 178810, Note_on_c, 3, 51, 127
2, 178968, Note_off_c, 3, 51, 127
2, 178970, Note_on_c, 4, 52, 127
2, 179128, Note_off_c, 4, 52, 127
2, 179130, Note_on_c, 6, 54, 127
2, 179288, Note_off_c, 6, 54, 127
2, 179290, Note_on_c, 4, 52, 127
2, 179448, Note_off_c, 4, 52, 127
2, 179451, Note_on_c, 6, 54, 127
2, 179609, Note_off_c, 6, 54, 127
2, 179611, Note_on_c, 3, 51, 127
2, 179769, Note_off_c, 3, 51, 127
2, 179771, Note_on_c, 8, 56, 127
2, 179929, Note_off_c, 8, 56, 127
2, 179931, Note_on_c, 6, 54, 127
2, 180089, Note_off_c, 6, 54, 127
2, 180091, Note_on_c, 4, 52, 127
2, 180091, Note_on_c, 8, 68, 127
2, 180249, Note_off_c, 8, 68, 127
2, 180249, Note_off_c, 4, 52, 127
2, 180251, Note_on_c, 3, 51, 127
2, 180251, Note_on_c, 7, 67, 127
2, 180409, Note_off_c, 7, 67, 127
2, 180409, Note_off_c, 3, 51, 127
2, 180411, Note_on_c, 4, 52, 127
2, 180411, Note_on_c, 8, 68, 127
2, 180569, Note_off_c, 8, 68, 127
2, 180569, Note_off_c, 4, 52, 127
2, 180571, Note_on_c, 1, 49, 127
2, 180571, Note_on_c, 11, 70, 127
2, 180729, Note_off_c, 11, 70, 127
2, 180731, Note_on_c, 8, 68, 127
2, 180889, Note_off_c, 8, 68, 127
2, 180891, Note_on_c, 11, 70, 127
2, 181049, Note_off_c, 11, 70, 127
2, 181051, Note_on_c, 3, 63, 127
2, 181209, Note_off_c, 3, 63, 127
2, 181211, Note_on_c, 5, 65, 127
2, 181369, Note_off_c, 5, 65, 127
2, 181371, Note_on_c, 7, 67, 127
2, 181529, Note_off_c, 7, 67, 127
2, 181529, Note_off_c, 1, 49, 127
2, 181531, Note_on_c, 12, 47, 127
2, 181531, Note_on_c, 8, 68, 127
2, 181689, Note_off_c, 8, 68, 127
2, 181691, Note_on_c, 11, 70, 127
2, 181849, Note_off_c, 11, 70, 127
2, 181851, Note_on_c, 12, 71, 127
2, 182009, Note_off_c, 12, 71, 127
2, 182009, Note_off_c, 12, 47, 127
2, 182011, Note_on_c, 11, 46, 127
2, 182011, Note_on_c, 1, 73, 127
2, 182169, Note_off_c, 1, 73, 127
2, 182171, Note_on_c, 12, 71, 127
2, 182329, Note_off_c, 12, 71, 127
2, 182331, Note_on_c, 1, 73, 127
2, 182489, Note_off_c, 1, 73, 127
2, 182489, Note_off_c, 11, 46, 127
2, 182491, Note_on_c, 7, 55, 127
2, 182491, Note_on_c, 11, 70, 127
2, 182649, Note_off_c, 11, 70, 127
2, 182652, Note_on_c, 3, 75, 127
2, 182810, Note_off_c, 3, 75, 127
2, 182812, Note_on_c, 1, 73, 127
2, 182969, Note_off_c, 7, 55, 127
2, 182970, Note_off_c, 1, 73, 127
2, 182972, Note_on_c, 8, 44, 127
2, 182972, Note_on_c, 12, 71, 127
2, 183130, Note_off_c, 12, 71, 127
2, 183132, Note_on_c, 11, 70, 127
2, 183290, Note_off_c, 11, 70, 127
2, 183292, Note_on_c, 12, 71, 127
2, 183450, Note_off_c, 12, 71, 127
2, 183450, Note_off_c, 8, 44, 127
2, 183452, Note_on_c, 4, 52, 127
2, 183452, Note_on_c, 8, 68, 127
2, 183610, Note_off_c, 8, 68, 127
2, 183612, Note_on_c, 1, 73, 127
2, 183770, Note_off_c, 1, 73, 127
2, 183772, Note_on_c, 12, 71, 127
2, 183930, Note_off_c, 12, 71, 127
2, 183932, Note_on_c, 10, 69, 127
2, 184090, Note_off_c, 10, 69, 127
2, 184092, Note_on_c, 8, 68, 127
2, 184250, Note_off_c, 8, 68, 127
2, 184252, Note_on_c, 10, 69, 127
2, 184410, Note_off_c, 10, 69, 127
2, 184410, Note_off_c, 4, 52, 127
2, 184412, Note_on_c, 3, 51, 127
2, 184412, Note_on_c, 6, 66, 127
2, 184570, Note_off_c, 6, 66, 127
2, 184572, Note_on_c, 12, 71, 127
2, 184730, Note_off_c, 12, 71, 127
2, 184732, Note_on_c, 10, 69, 127
2, 184890, Note_off_c, 10, 69, 127
2, 184890, Note_off_c, 3, 51, 127
2, 184892, Note_on_c, 4, 52, 127
2, 184892, Note_on_c, 1, 61, 127
2, 184892, Note_on_c, 8, 68, 127
2, 185050, Note_off_c, 1, 61, 127
2, 185052, Note_on_c, 0, 60, 127
2, 185210, Note_off_c, 0, 60, 127
2, 185212, Note_on_c, 1, 61, 127
2, 185370, Note_off_c, 1, 61, 127
2, 185370, Note_off_c, 8, 68, 127
2, 185370, Note_off_c, 4, 52, 127
2, 185372, Note_on_c, 0, 48, 127
2, 185372, Note_on_c, 3, 63, 127
2, 185372, Note_on_c, 6, 66, 127
2, 185530, Note_off_c, 3, 63, 127
2, 185532, Note_on_c, 1, 61, 127
2, 185690, Note_off_c, 1, 61, 127
2, 185692, Note_on_c, 3, 63, 127
2, 185850, Note_off_c, 3, 63, 127
2, 185850, Note_off_c, 0, 48, 127
2, 185853, Note_on_c, 1, 49, 127
2, 185853, Note_on_c, 8, 56, 127
2, 186011, Note_off_c, 8, 56, 127
2, 186013, Note_on_c, 11, 58, 127
2, 186171, Note_off_c, 11, 58, 127
2, 186173, Note_on_c, 0, 60, 127
2, 186330, Note_off_c, 6, 66, 127
2, 186331, Note_off_c, 0, 60, 127
2, 186331, Note_off_c, 1, 49, 127
2, 186333, Note_on_c, 1, 61, 127
2, 186333, Note_on_c, 4, 64, 127
2, 186493, Note_on_c, 3, 63, 127
2, 186651, Note_off_c, 3, 63, 127
2, 186651, Note_off_c, 4, 64, 127
2, 186653, Note_on_c, 4, 64, 127
2, 186811, Note_off_c, 4, 64, 127
2, 186813, Note_on_c, 6, 66, 127
2, 186813, Note_on_c, 3, 63, 127
2, 186971, Note_off_c, 6, 66, 127
2, 186973, Note_on_c, 4, 64, 127
2, 187131, Note_off_c, 4, 64, 127
2, 187133, Note_on_c, 6, 66, 127
2, 187291, Note_off_c, 6, 66, 127
2, 187291, Note_off_c, 3, 63, 127
2, 187291, Note_off_c, 1, 61, 127
2, 187293, Note_on_c, 0, 60, 127
2, 187293, Note_on_c, 3, 63, 127
2, 187293, Note_on_c, 3, 75, 127
2, 187451, Note_off_c, 3, 63, 127
2, 187453, Note_on_c, 8, 68, 127
2, 187611, Note_off_c, 8, 68, 127
2, 187613, Note_on_c, 6, 66, 127
2, 187771, Note_off_c, 6, 66, 127
2, 187771, Note_off_c, 3, 75, 127
2, 187771, Note_off_c, 0, 60, 127
2, 187773, Note_on_c, 1, 61, 127
2, 187773, Note_on_c, 4, 64, 127
2, 187773, Note_on_c, 8, 68, 127
2, 187931, Note_off_c, 4, 64, 127
2, 187933, Note_on_c, 3, 63, 127
2, 188091, Note_off_c, 3, 63, 127
2, 188093, Note_on_c, 4, 64, 127
2, 188251, Note_off_c, 4, 64, 127
2, 188251, Note_off_c, 8, 68, 127
2, 188251, Note_off_c, 1, 61, 127
2, 188253, Note_on_c, 6, 54, 127
2, 188253, Note_on_c, 1, 61, 127
2, 188253, Note_on_c, 10, 69, 127
2, 188411, Note_off_c, 1, 61, 127
2, 188413, Note_on_c, 6, 66, 127
2, 188571, Note_off_c, 6, 66, 127
2, 188573, Note_on_c, 4, 64, 127
2, 188731, Note_off_c, 4, 64, 127
2, 188731, Note_off_c, 6, 54, 127
2, 188733, Note_on_c, 12, 59, 127
2, 188733, Note_on_c, 3, 63, 127
2, 188891, Note_off_c, 3, 63, 127
2, 188893, Note_on_c, 1, 61, 127
2, 189051, Note_off_c, 1, 61, 127
2, 189054, Note_on_c, 3, 63, 127
2, 189211, Note_off_c, 12, 59, 127
2, 189211, Note_off_c, 10, 69, 127
2, 189212, Note_off_c, 3, 63, 127
2, 189214, Note_on_c, 4, 52, 127
2, 189214, Note_on_c, 12, 59, 127
2, 189214, Note_on_c, 8, 68, 127
2, 189374, Note_on_c, 4, 64, 127
2, 189532, Note_off_c, 4, 64, 127
2, 189534, Note_on_c, 3, 63, 127
2, 189692, Note_off_c, 3, 63, 127
2, 189692, Note_off_c, 12, 59, 127
2, 189692, Note_off_c, 4, 52, 127
2, 189694, Note_on_c, 10, 57, 127
2, 189694, Note_on_c, 1, 61, 127
2, 189852, Note_off_c, 1, 61, 127
2, 189854, Note_on_c, 3, 63, 127
2, 190012, Note_off_c, 3, 63, 127
2, 190014, Note_on_c, 4, 64, 127
2, 190172, Note_off_c, 4, 64, 127
2, 190172, Note_off_c, 8, 68, 127
2, 190174, Note_on_c, 3, 63, 127
2, 190174, Note_on_c, 6, 66, 127
2, 190332, Note_off_c, 3, 63, 127
2, 190334, Note_on_c, 4, 64, 127
2, 190492, Note_off_c, 4, 64, 127
2, 190494, Note_on_c, 1, 61, 127
2, 190652, Note_off_c, 1, 61, 127
2, 190652, Note_off_c, 10, 57, 127
2, 190654, Note_on_c, 8, 56, 127
2, 190654, Note_on_c, 0, 60, 127
2, 190812, Note_off_c, 6, 66, 127
2, 190814, Note_on_c, 8, 68, 127
2, 190972, Note_off_c, 8, 68, 127
2, 190974, Note_on_c, 10, 69, 127
2, 191132, Note_off_c, 10, 69, 127
2, 191134, Note_on_c, 8, 68, 127
2, 191292, Note_off_c, 8, 68, 127
2, 191294, Note_on_c, 10, 69, 127
2, 191452, Note_off_c, 10, 69, 127
2, 191454, Note_on_c, 6, 66, 127
2, 191612, Note_off_c, 6, 66, 127
2, 191614, Note_on_c, 4, 64, 127
2, 191772, Note_off_c, 8, 56, 127
2, 191774, Note_on_c, 6, 54, 127
2, 191932, Note_off_c, 6, 54, 127
2, 191934, Note_on_c, 8, 56, 127
2, 192092, Note_off_c, 8, 56, 127
2, 192092, Note_off_c, 0, 60, 127
2, 192094, Note_on_c, 4, 52, 127
2, 192094, Note_on_c, 1, 61, 127
2, 192252, Note_off_c, 4, 52, 127
2, 192255, Note_on_c, 10, 57, 127
2, 192413, Note_off_c, 10, 57, 127
2, 192415, Note_on_c, 8, 56, 127
2, 192572, Note_off_c, 4, 64, 127
2, 192573, Note_off_c, 8, 56, 127
2, 192575, Note_on_c, 6, 54, 127
2, 192575, Note_on_c, 3, 63, 127
2, 192733, Note_off_c, 6, 54, 127
2, 192735, Note_on_c, 4, 52, 127
2, 192893, Note_off_c, 4, 52, 127
2, 192895, Note_on_c, 6, 54, 127
2, 193052, Note_off_c, 1, 61, 127
2, 193053, Note_off_c, 6, 54, 127
2, 193055, Note_on_c, 3, 51, 127
2, 193055, Note_on_c, 0, 60, 127
2, 193213, Note_off_c, 3, 51, 127
2, 193215, Note_on_c, 8, 56, 127
2, 193373, Note_off_c, 8, 56, 127
2, 193375, Note_on_c, 6, 54, 127
2, 193533, Note_off_c, 6, 54, 127
2, 193533, Note_off_c, 0, 60, 127
2, 193533, Note_off_c, 3, 63, 127
2, 193535, Note_on_c, 4, 52, 127
2, 193535, Note_on_c, 1, 61, 127
2, 193535, Note_on_c, 8, 68, 127
2, 193693, Note_off_c, 8, 68, 127
2, 193693, Note_off_c, 4, 52, 127
2, 193695, Note_on_c, 3, 51, 127
2, 193695, Note_on_c, 6, 66, 127
2, 193853, Note_off_c, 6, 66, 127
2, 193853, Note_off_c, 3, 51, 127
2, 193855, Note_on_c, 4, 52, 127
2, 193855, Note_on_c, 8, 68, 127
2, 194013, Note_off_c, 8, 68, 127
2, 194013, Note_off_c, 4, 52, 127
2, 194015, Note_on_c, 1, 49, 127
2, 194015, Note_on_c, 4, 64, 127
2, 194173, Note_off_c, 4, 64, 127
2, 194173, Note_off_c, 1, 49, 127
2, 194175, Note_on_c, 6, 54, 127
2, 194175, Note_on_c, 10, 69, 127
2, 194333, Note_off_c, 10, 69, 127
2, 194333, Note_off_c, 6, 54, 127
2, 194335, Note_on_c, 4, 52, 127
2, 194335, Note_on_c, 8, 68, 127
2, 194493, Note_off_c, 8, 68, 127
2, 194493, Note_off_c, 4, 52, 127
2, 194495, Note_on_c, 3, 51, 127
2, 194495, Note_on_c, 6, 66, 127
2, 194653, Note_off_c, 6, 66, 127
2, 194655, Note_on_c, 4, 64, 127
2, 194813, Note_off_c, 4, 64, 127
2, 194815, Note_on_c, 6, 66, 127
2, 194973, Note_off_c, 6, 66, 127
2, 194973, Note_off_c, 3, 51, 127
2, 194973, Note_off_c, 1, 61, 127
2, 194975, Note_on_c, 8, 56, 127
2, 194975, Note_on_c, 12, 59, 127
2, 194975, Note_on_c, 3, 63, 127
2, 195133, Note_off_c, 3, 63, 127
2, 195135, Note_on_c, 8, 68, 127
2, 195293, Note_off_c, 8, 68, 127
2, 195295, Note_on_c, 6, 66, 127
2, 195453, Note_off_c, 6, 66, 127
2, 195453, Note_off_c, 8, 56, 127
2, 195456, Note_on_c, 1, 49, 127
2, 195456, Note_on_c, 5, 65, 127
2, 195614, Note_off_c, 5, 65, 127
2, 195616, Note_on_c, 3, 63, 127
2, 195774, Note_off_c, 3, 63, 127
2, 195776, Note_on_c, 1, 61, 127
2, 195933, Note_off_c, 12, 59, 127
2, 195934, Note_off_c, 1, 61, 127
2, 195936, Note_on_c, 10, 57, 127
2, 195936, Note_on_c, 6, 66, 127
2, 196094, Note_off_c, 10, 57, 127
2, 196096, Note_on_c, 8, 56, 127
2, 196254, Note_off_c, 8, 56, 127
2, 196256, Note_on_c, 6, 54, 127
2, 196414, Note_off_c, 6, 54, 127
2, 196416, Note_on_c, 8, 56, 127
2, 196574, Note_off_c, 1, 49, 127
2, 196576, Note_on_c, 12, 47, 127
2, 196734, Note_off_c, 12, 47, 127
2, 196736, Note_on_c, 1, 49, 127
2, 196894, Note_off_c, 1, 49, 127
2, 196894, Note_off_c, 6, 66, 127
2, 196896, Note_on_c, 8, 44, 127
2, 196896, Note_on_c, 4, 64, 127
2, 197054, Note_off_c, 8, 44, 127
2, 197056, Note_on_c, 1, 49, 127
2, 197214, Note_off_c, 1, 49, 127
2, 197216, Note_on_c, 12, 47, 127
2, 197374, Note_off_c, 12, 47, 127
2, 197374, Note_off_c, 8, 56, 127
2, 197376, Note_on_c, 11, 46, 127
2, 197376, Note_on_c, 6, 54, 127
2, 197534, Note_off_c, 11, 46, 127
2, 197536, Note_on_c, 8, 44, 127
2, 197694, Note_off_c, 8, 44, 127
2, 197696, Note_on_c, 6, 42, 127
2, 197854, Note_off_c, 6, 42, 127
2, 197854, Note_off_c, 4, 64, 127
2, 197856, Note_on_c, 12, 47, 127
2, 197856, Note_on_c, 3, 63, 127
2, 198014, Note_off_c, 3, 63, 127
2, 198016, Note_on_c, 1, 61, 127
2, 198174, Note_off_c, 1, 61, 127
2, 198176, Note_on_c, 12, 59, 127
2, 198334, Note_off_c, 12, 59, 127
2, 198334, Note_off_c, 6, 54, 127
2, 198336, Note_on_c, 4, 52, 127
2, 198336, Note_on_c, 1, 61, 127
2, 198494, Note_off_c, 4, 52, 127
2, 198496, Note_on_c, 3, 51, 127
2, 198654, Note_off_c, 3, 51, 127
2, 198657, Note_on_c, 4, 52, 127
2, 198814, Note_off_c, 12, 47, 127
2, 198815, Note_off_c, 4, 52, 127
2, 198817, Note_on_c, 10, 45, 127
2, 198817, Note_on_c, 1, 49, 127
2, 198975, Note_off_c, 1, 49, 127
2, 198977, Note_on_c, 6, 54, 127
2, 199135, Note_off_c, 6, 54, 127
2, 199137, Note_on_c, 4, 52, 127
2, 199294, Note_off_c, 1, 61, 127
2, 199295, Note_off_c, 4, 52, 127
2, 199297, Note_on_c, 3, 51, 127
2, 199297, Note_on_c, 12, 59, 127
2, 199455, Note_off_c, 3, 51, 127
2, 199457, Note_on_c, 1, 49, 127
2, 199615, Note_off_c, 1, 49, 127
2, 199617, Note_on_c, 12, 47, 127
2, 199775, Note_off_c, 12, 47, 127
2, 199775, Note_off_c, 10, 45, 127
2, 199777, Note_on_c, 8, 44, 127
2, 199777, Note_on_c, 4, 52, 127
2, 199935, Note_off_c, 8, 44, 127
2, 199937, Note_on_c, 6, 42, 127
2, 200095, Note_off_c, 6, 42, 127
2, 200097, Note_on_c, 4, 40, 127
2, 200255, Note_off_c, 4, 40, 127
2, 200255, Note_off_c, 12, 59, 127
2, 200257, Note_on_c, 6, 42, 127
2, 200257, Note_on_c, 10, 57, 127
2, 200415, Note_off_c, 10, 57, 127
2, 200417, Note_on_c, 8, 56, 127
2, 200575, Note_off_c, 8, 56, 127
2, 200577, Note_on_c, 10, 57, 127
2, 200735, Note_off_c, 10, 57, 127
2, 200735, Note_off_c, 6, 42, 127
2, 200735, Note_off_c, 4, 52, 127
2, 200737, Note_on_c, 12, 47, 127
2, 200737, Note_on_c, 3, 51, 127
2, 200737, Note_on_c, 6, 54, 127
2, 200895, Note_off_c, 6, 54, 127
2, 200897, Note_on_c, 12, 59, 127
2, 201055, Note_off_c, 12, 59, 127
2, 201057, Note_on_c, 10, 57, 127
2, 201215, Note_off_c, 10, 57, 127
2, 201215, Note_off_c, 3, 51, 127
2, 201215, Note_off_c, 12, 47, 127
2, 201217, Note_on_c, 4, 40, 127
2, 201217, Note_on_c, 4, 52, 127
2, 201217, Note_on_c, 8, 56, 127
2, 201375, Note_off_c, 8, 56, 127
2, 201377, Note_on_c, 12, 59, 127
2, 201535, Note_off_c, 12, 59, 127
2, 201537, Note_on_c, 4, 64, 127
2, 201667, Note_off_c, 4, 40, 127
2, 201697, Note_on_c, 6, 54, 127
2, 201726, Note_off_c, 4, 52, 127
2, 201855, Note_off_c, 4, 64, 127
2, 201858, Note_on_c, 3, 63, 127
2, 202016, Note_off_c, 3, 63, 127
2, 202018, Note_on_c, 1, 61, 127
2, 202175, Note_off_c, 6, 54, 127
2, 202176, Note_off_c, 1, 61, 127
2, 202178, Note_on_c, 8, 56, 127
2, 202178, Note_on_c, 12, 59, 127
2, 202336, Note_off_c, 12, 59, 127
2, 202338, Note_on_c, 4, 64, 127
2, 202496, Note_off_c, 4, 64, 127
2, 202498, Note_on_c, 8, 68, 127
2, 202656, Note_off_c, 8, 56, 127
2, 202658, Note_on_c, 11, 58, 127
2, 202816, Note_off_c, 8, 68, 127
2, 202818, Note_on_c, 6, 66, 127
2, 202976, Note_off_c, 6, 66, 127
2, 202978, Note_on_c, 4, 64, 127
2, 203136, Note_off_c, 4, 64, 127
2, 203136, Note_off_c, 11, 58, 127
2, 203138, Note_on_c, 12, 47, 127
2, 203138, Note_on_c, 12, 59, 127
2, 203138, Note_on_c, 3, 63, 127
2, 203296, Note_off_c, 12, 47, 127
2, 203298, Note_on_c, 10, 45, 127
2, 203456, Note_off_c, 10, 45, 127
2, 203458, Note_on_c, 12, 47, 127
2, 203616, Note_off_c, 12, 47, 127
2, 203616, Note_off_c, 3, 63, 127
2, 203618, Note_on_c, 1, 49, 127
2, 203618, Note_on_c, 5, 65, 127
2, 203776, Note_off_c, 1, 49, 127
2, 203778, Note_on_c, 12, 47, 127
2, 203936, Note_off_c, 12, 47, 127
2, 203938, Note_on_c, 1, 49, 127
2, 204096, Note_off_c, 1, 49, 127
2, 204096, Note_off_c, 5, 65, 127
2, 204098, Note_on_c, 6, 42, 127
2, 204098, Note_on_c, 6, 66, 127
2, 204256, Note_off_c, 12, 59, 127
2, 204258, Note_on_c, 10, 57, 127
2, 204416, Note_off_c, 10, 57, 127
2, 204418, Note_on_c, 12, 59, 127
2, 204576, Note_off_c, 12, 59, 127
2, 204576, Note_off_c, 6, 42, 127
2, 204578, Note_on_c, 4, 40, 127
2, 204578, Note_on_c, 1, 61, 127
2, 204736, Note_off_c, 1, 61, 127
2, 204738, Note_on_c, 3, 63, 127
2, 204896, Note_off_c, 3, 63, 127
2, 204898, Note_on_c, 4, 64, 127
2, 205056, Note_off_c, 4, 64, 127
2, 205056, Note_off_c, 4, 40, 127
2, 205056, Note_off_c, 6, 66, 127
2, 205059, Note_on_c, 3, 39, 127
2, 205059, Note_on_c, 6, 66, 127
2, 205059, Note_on_c, 11, 70, 127
2, 205217, Note_off_c, 6, 66, 127
2, 205219, Note_on_c, 4, 64, 127
2, 205377, Note_off_c, 4, 64, 127
2, 205379, Note_on_c, 6, 66, 127
2, 205537, Note_off_c, 6, 66, 127
2, 205537, Note_off_c, 11, 70, 127
2, 205537, Note_off_c, 3, 39, 127
2, 205539, Note_on_c, 8, 44, 127
2, 205539, Note_on_c, 3, 63, 127
2, 205539, Note_on_c, 0, 72, 127
2, 205697, Note_off_c, 3, 63, 127
2, 205699, Note_on_c, 8, 68, 127
2, 205857, Note_off_c, 8, 68, 127
2, 205859, Note_on_c, 6, 66, 127
2, 206017, Note_off_c, 6, 66, 127
2, 206017, Note_off_c, 0, 72, 127
2, 206017, Note_off_c, 8, 44, 127
2, 206019, Note_on_c, 1, 49, 127
2, 206019, Note_on_c, 4, 64, 127
2, 206019, Note_on_c, 1, 73, 127
2, 206177, Note_off_c, 1, 73, 127
2, 206177, Note_off_c, 1, 49, 127
2, 206179, Note_on_c, 3, 51, 127
2, 206179, Note_on_c, 0, 72, 127
2, 206337, Note_off_c, 0, 72, 127
2, 206337, Note_off_c, 3, 51, 127
2, 206339, Note_on_c, 4, 52, 127
2, 206339, Note_on_c, 1, 73, 127
2, 206494, Note_off_c, 4, 64, 127
2, 206497, Note_off_c, 1, 73, 127
2, 206497, Note_off_c, 4, 52, 127
2, 206499, Note_on_c, 6, 54, 127
2, 206499, Note_on_c, 3, 75, 127
2, 206657, Note_off_c, 3, 75, 127
2, 206659, Note_on_c, 1, 73, 127
2, 206817, Note_off_c, 1, 73, 127
2, 206819, Note_on_c, 3, 75, 127
2, 206977, Note_off_c, 3, 75, 127
2, 206979, Note_on_c, 8, 68, 127
2, 207137, Note_off_c, 8, 68, 127
2, 207137, Note_off_c, 6, 54, 127
2, 207139, Note_on_c, 4, 52, 127
2, 207139, Note_on_c, 11, 70, 127
2, 207297, Note_off_c, 11, 70, 127
2, 207297, Note_off_c, 4, 52, 127
2, 207299, Note_on_c, 3, 51, 127
2, 207299, Note_on_c, 0, 72, 127
2, 207457, Note_off_c, 0, 72, 127
2, 207457, Note_off_c, 3, 51, 127
2, 207459, Note_on_c, 4, 52, 127
2, 207459, Note_on_c, 1, 73, 127
2, 207617, Note_off_c, 1, 73, 127
2, 207617, Note_off_c, 4, 52, 127
2, 207619, Note_on_c, 6, 54, 127
2, 207619, Note_on_c, 3, 75, 127
2, 207777, Note_off_c, 3, 75, 127
2, 207777, Note_off_c, 6, 54, 127
2, 207779, Note_on_c, 8, 56, 127
2, 207779, Note_on_c, 4, 76, 127
2, 207937, Note_off_c, 4, 76, 127
2, 207937, Note_off_c, 8, 56, 127
2, 207939, Note_on_c, 10, 57, 127
2, 207939, Note_on_c, 6, 78, 127
2, 208097, Note_off_c, 6, 78, 127
2, 208097, Note_off_c, 10, 57, 127
2, 208099, Note_on_c, 8, 56, 127
2, 208099, Note_on_c, 4, 76, 127
2, 208257, Note_off_c, 4, 76, 127
2, 208257, Note_off_c, 8, 56, 127
2, 208260, Note_on_c, 6, 54, 127
2, 208260, Note_on_c, 6, 78, 127
2, 208418, Note_off_c, 6, 78, 127
2, 208418, Note_off_c, 6, 54, 127
2, 208420, Note_on_c, 8, 56, 127
2, 208420, Note_on_c, 3, 75, 127
2, 208578, Note_off_c, 3, 75, 127
2, 208578, Note_off_c, 8, 56, 127
2, 208580, Note_on_c, 11, 58, 127
2, 208580, Note_on_c, 8, 80, 127
2, 208738, Note_off_c, 8, 80, 127
2, 208738, Note_off_c, 11, 58, 127
2, 208740, Note_on_c, 0, 60, 127
2, 208740, Note_on_c, 6, 78, 127
2, 208898, Note_off_c, 6, 78, 127
2, 208898, Note_off_c, 0, 60, 127
2, 208900, Note_on_c, 1, 61, 127
2, 208900, Note_on_c, 8, 68, 127
2, 208900, Note_on_c, 4, 76, 127
2, 209058, Note_off_c, 4, 76, 127
2, 209058, Note_off_c, 8, 68, 127
2, 209060, Note_on_c, 7, 67, 127
2, 209060, Note_on_c, 3, 75, 127
2, 209218, Note_off_c, 3, 75, 127
2, 209218, Note_off_c, 7, 67, 127
2, 209220, Note_on_c, 8, 68, 127
2, 209220, Note_on_c, 4, 76, 127
2, 209378, Note_off_c, 4, 76, 127
2, 209378, Note_off_c, 8, 68, 127
2, 209380, Note_on_c, 11, 70, 127
2, 209380, Note_on_c, 1, 73, 127
2, 209538, Note_off_c, 1, 73, 127
2, 209538, Note_off_c, 11, 70, 127
2, 209540, Note_on_c, 8, 68, 127
2, 209540, Note_on_c, 12, 71, 127
2, 209698, Note_off_c, 12, 71, 127
2, 209698, Note_off_c, 8, 68, 127
2, 209700, Note_on_c, 11, 70, 127
2, 209700, Note_on_c, 1, 73, 127
2, 209858, Note_off_c, 1, 73, 127
2, 209858, Note_off_c, 11, 70, 127
2, 209860, Note_on_c, 3, 63, 127
2, 209860, Note_on_c, 11, 82, 127
2, 210018, Note_off_c, 3, 63, 127
2, 210020, Note_on_c, 5, 65, 127
2, 210178, Note_off_c, 5, 65, 127
2, 210180, Note_on_c, 7, 67, 127
2, 210338, Note_off_c, 7, 67, 127
2, 210338, Note_off_c, 11, 82, 127
2, 210338, Note_off_c, 1, 61, 127
2, 210340, Note_on_c, 12, 59, 127
2, 210340, Note_on_c, 8, 68, 127
2, 210340, Note_on_c, 3, 75, 127
2, 210498, Note_off_c, 8, 68, 127
2, 210500, Note_on_c, 11, 70, 127
2, 210658, Note_off_c, 11, 70, 127
2, 210660, Note_on_c, 12, 71, 127
2, 210818, Note_off_c, 12, 71, 127
2, 210818, Note_off_c, 3, 75, 127
2, 210818, Note_off_c, 12, 59, 127
2, 210820, Note_on_c, 11, 58, 127
2, 210820, Note_on_c, 1, 73, 127
2, 210820, Note_on_c, 5, 77, 127
2, 210978, Note_off_c, 1, 73, 127
2, 210980, Note_on_c, 12, 71, 127
2, 211138, Note_off_c, 12, 71, 127
2, 211140, Note_on_c, 1, 73, 127
2, 211298, Note_off_c, 1, 73, 127
2, 211298, Note_off_c, 5, 77, 127
2, 211298, Note_off_c, 11, 58, 127
2, 211300, Note_on_c, 3, 63, 127
2, 211300, Note_on_c, 11, 70, 127
2, 211300, Note_on_c, 7, 79, 127
2, 211458, Note_off_c, 11, 70, 127
2, 211461, Note_on_c, 3, 75, 127
2, 211619, Note_off_c, 3, 75, 127
2, 211621, Note_on_c, 1, 73, 127
2, 211778, Note_off_c, 7, 79, 127
2, 211778, Note_off_c, 3, 63, 127
2, 211779, Note_off_c, 1, 73, 127
2, 211781, Note_on_c, 8, 56, 127
2, 211781, Note_on_c, 12, 71, 127
2, 211781, Note_on_c, 8, 80, 127
2, 211939, Note_off_c, 12, 71, 127
2, 211941, Note_on_c, 11, 70, 127
2, 212099, Note_off_c, 11, 70, 127
2, 212101, Note_on_c, 12, 71, 127
2, 212259, Note_off_c, 12, 71, 127
2, 212259, Note_off_c, 8, 80, 127
2, 212259, Note_off_c, 8, 56, 127
2, 212261, Note_on_c, 1, 61, 127
2, 212261, Note_on_c, 8, 68, 127
2, 212261, Note_on_c, 4, 76, 127
2, 212419, Note_off_c, 8, 68, 127
2, 212421, Note_on_c, 1, 73, 127
2, 212579, Note_off_c, 1, 73, 127
2, 212581, Note_on_c, 12, 71, 127
2, 212739, Note_off_c, 12, 71, 127
2, 212739, Note_off_c, 1, 61, 127
2, 212741, Note_on_c, 6, 54, 127
2, 212741, Note_on_c, 10, 69, 127
2, 212899, Note_off_c, 10, 69, 127
2, 212901, Note_on_c, 8, 68, 127
2, 213059, Note_off_c, 8, 68, 127
2, 213061, Note_on_c, 10, 69, 127
2, 213219, Note_off_c, 10, 69, 127
2, 213219, Note_off_c, 6, 54, 127
2, 213219, Note_off_c, 4, 76, 127
2, 213221, Note_on_c, 12, 59, 127
2, 213221, Note_on_c, 6, 66, 127
2, 213221, Note_on_c, 3, 75, 127
2, 213379, Note_off_c, 6, 66, 127
2, 213381, Note_on_c, 12, 71, 127
2, 213539, Note_off_c, 12, 71, 127
2, 213541, Note_on_c, 10, 69, 127
2, 213699, Note_off_c, 10, 69, 127
2, 213699, Note_off_c, 3, 75, 127
2, 213699, Note_off_c, 12, 59, 127
2, 213701, Note_on_c, 4, 52, 127
2, 213701, Note_on_c, 8, 68, 127
2, 213701, Note_on_c, 4, 76, 127
2, 213859, Note_off_c, 8, 68, 127
2, 213859, Note_off_c, 4, 52, 127
2, 213861, Note_on_c, 3, 51, 127
2, 213861, Note_on_c, 6, 66, 127
2, 214019, Note_off_c, 6, 66, 127
2, 214019, Note_off_c, 3, 51, 127
2, 214021, Note_on_c, 4, 52, 127
2, 214021, Note_on_c, 8, 68, 127
2, 214179, Note_off_c, 8, 68, 127
2, 214179, Note_off_c, 4, 52, 127
2, 214181, Note_on_c, 6, 54, 127
2, 214181, Note_on_c, 11, 70, 127
2, 214339, Note_off_c, 11, 70, 127
2, 214339, Note_off_c, 6, 54, 127
2, 214341, Note_on_c, 4, 52, 127
2, 214341, Note_on_c, 8, 68, 127
2, 214499, Note_off_c, 8, 68, 127
2, 214499, Note_off_c, 4, 52, 127
2, 214501, Note_on_c, 6, 54, 127
2, 214501, Note_on_c, 11, 70, 127
2, 214659, Note_off_c, 11, 70, 127
2, 214659, Note_off_c, 6, 54, 127
2, 214659, Note_off_c, 4, 76, 127
2, 214662, Note_on_c, 12, 47, 127
2, 214662, Note_on_c, 12, 71, 127
2, 214662, Note_on_c, 3, 75, 127
2, 214820, Note_off_c, 12, 47, 127
2, 214822, Note_on_c, 1, 49, 127
2, 214980, Note_off_c, 1, 49, 127
2, 214982, Note_on_c, 3, 51, 127
2, 215140, Note_off_c, 3, 51, 127
2, 215140, Note_off_c, 3, 75, 127
2, 215142, Note_on_c, 4, 52, 127
2, 215142, Note_on_c, 2, 74, 127
2, 215300, Note_off_c, 4, 52, 127
2, 215302, Note_on_c, 6, 54, 127
2, 215460, Note_off_c, 6, 54, 127
2, 215462, Note_on_c, 8, 56, 127
2, 215620, Note_off_c, 8, 56, 127
2, 215620, Note_off_c, 2, 74, 127
2, 215622, Note_on_c, 10, 57, 127
2, 215622, Note_on_c, 1, 73, 127
2, 215780, Note_off_c, 10, 57, 127
2, 215782, Note_on_c, 8, 56, 127
2, 215940, Note_off_c, 8, 56, 127
2, 215942, Note_on_c, 10, 57, 127
2, 216100, Note_off_c, 10, 57, 127
2, 216100, Note_off_c, 1, 73, 127
2, 216100, Note_off_c, 12, 71, 127
2, 216102, Note_on_c, 6, 54, 127
2, 216102, Note_on_c, 10, 69, 127
2, 216102, Note_on_c, 3, 75, 127
2, 216260, Note_off_c, 3, 75, 127
2, 216260, Note_off_c, 6, 54, 127
2, 216262, Note_on_c, 12, 59, 127
2, 216262, Note_on_c, 4, 76, 127
2, 216420, Note_off_c, 4, 76, 127
2, 216420, Note_off_c, 12, 59, 127
2, 216422, Note_on_c, 10, 57, 127
2, 216422, Note_on_c, 6, 78, 127
2, 216580, Note_off_c, 6, 78, 127
2, 216580, Note_off_c, 10, 57, 127
2, 216582, Note_on_c, 8, 56, 127
2, 216582, Note_on_c, 12, 71, 127
2, 216740, Note_off_c, 8, 56, 127
2, 216742, Note_on_c, 6, 54, 127
2, 216900, Note_off_c, 6, 54, 127
2, 216902, Note_on_c, 8, 56, 127
2, 217060, Note_off_c, 8, 56, 127
2, 217060, Note_off_c, 12, 71, 127
2, 217060, Note_off_c, 10, 69, 127
2, 217062, Note_on_c, 4, 52, 127
2, 217062, Note_on_c, 8, 68, 127
2, 217062, Note_on_c, 1, 73, 127
2, 217220, Note_off_c, 1, 73, 127
2, 217220, Note_off_c, 4, 52, 127
2, 217222, Note_on_c, 10, 57, 127
2, 217222, Note_on_c, 3, 75, 127
2, 217380, Note_off_c, 3, 75, 127
2, 217380, Note_off_c, 10, 57, 127
2, 217382, Note_on_c, 8, 56, 127
2, 217382, Note_on_c, 4, 76, 127
2, 217540, Note_off_c, 4, 76, 127
2, 217540, Note_off_c, 8, 56, 127
2, 217542, Note_on_c, 6, 54, 127
2, 217542, Note_on_c, 10, 69, 127
2, 217700, Note_off_c, 6, 54, 127
2, 217702, Note_on_c, 4, 52, 127
2, 217860, Note_off_c, 4, 52, 127
2, 217863, Note_on_c, 6, 54, 127
2, 218020, Note_off_c, 10, 69, 127
2, 218020, Note_off_c, 8, 68, 127
2, 218021, Note_off_c, 6, 54, 127
2, 218023, Note_on_c, 3, 51, 127
2, 218023, Note_on_c, 6, 66, 127
2, 218023, Note_on_c, 12, 71, 127
2, 218181, Note_off_c, 12, 71, 127
2, 218181, Note_off_c, 3, 51, 127
2, 218183, Note_on_c, 8, 56, 127
2, 218183, Note_on_c, 1, 73, 127
2, 218341, Note_off_c, 1, 73, 127
2, 218341, Note_off_c, 8, 56, 127
2, 218343, Note_on_c, 6, 54, 127
2, 218343, Note_on_c, 3, 75, 127
2, 218501, Note_off_c, 3, 75, 127
2, 218501, Note_off_c, 6, 54, 127
2, 218503, Note_on_c, 4, 52, 127
2, 218503, Note_on_c, 8, 68, 127
2, 218661, Note_off_c, 4, 52, 127
2, 218663, Note_on_c, 3, 51, 127
2, 218821, Note_off_c, 3, 51, 127
2, 218823, Note_on_c, 4, 52, 127
2, 218981, Note_off_c, 4, 52, 127
2, 218981, Note_off_c, 6, 66, 127
2, 218983, Note_on_c, 1, 49, 127
2, 218983, Note_on_c, 4, 64, 127
2, 219141, Note_off_c, 8, 68, 127
2, 219143, Note_on_c, 12, 71, 127
2, 219301, Note_off_c, 12, 71, 127
2, 219303, Note_on_c, 11, 70, 127
2, 219332, Note_off_c, 1, 49, 127
2, 219461, Note_off_c, 11, 70, 127
2, 219461, Note_off_c, 4, 64, 127
2, 219463, Note_on_c, 8, 56, 127
2, 219463, Note_on_c, 3, 63, 127
2, 219463, Note_on_c, 12, 71, 127
2, 219621, Note_off_c, 8, 56, 127
2, 219623, Note_on_c, 6, 54, 127
2, 219781, Note_off_c, 6, 54, 127
2, 219783, Note_on_c, 8, 56, 127
2, 219941, Note_off_c, 8, 56, 127
2, 219941, Note_off_c, 3, 63, 127
2, 219943, Note_on_c, 4, 52, 127
2, 219943, Note_on_c, 8, 68, 127
2, 220101, Note_off_c, 12, 71, 127
2, 220103, Note_on_c, 3, 75, 127
2, 220261, Note_off_c, 3, 75, 127
2, 220263, Note_on_c, 1, 73, 127
2, 220292, Note_off_c, 4, 52, 127
2, 220421, Note_off_c, 1, 73, 127
2, 220421, Note_off_c, 8, 68, 127
2, 220423, Note_on_c, 12, 59, 127
2, 220423, Note_on_c, 6, 66, 127
2, 220423, Note_on_c, 3, 75, 127
2, 220581, Note_off_c, 12, 59, 127
2, 220583, Note_on_c, 11, 58, 127
2, 220741, Note_off_c, 11, 58, 127
2, 220743, Note_on_c, 12, 59, 127
2, 220901, Note_off_c, 12, 59, 127
2, 220901, Note_off_c, 6, 66, 127
2, 220903, Note_on_c, 8, 56, 127
2, 220903, Note_on_c, 12, 71, 127
2, 221061, Note_off_c, 3, 75, 127
2, 221064, Note_on_c, 6, 78, 127
2, 221222, Note_off_c, 6, 78, 127
2, 221224, Note_on_c, 4, 76, 127
2, 221252, Note_off_c, 8, 56, 127
2, 221382, Note_off_c, 4, 76, 127
2, 221384, Note_on_c, 3, 63, 127
2, 221384, Note_on_c, 6, 78, 127
2, 221542, Note_off_c, 6, 78, 127
2, 221544, Note_on_c, 8, 80, 127
2, 221701, Note_off_c, 12, 71, 127
2, 221702, Note_off_c, 8, 80, 127
2, 221704, Note_on_c, 10, 69, 127
2, 221704, Note_on_c, 6, 78, 127
2, 221862, Note_off_c, 6, 78, 127
2, 221862, Note_off_c, 3, 63, 127
2, 221864, Note_on_c, 4, 64, 127
2, 221864, Note_on_c, 4, 76, 127
2, 222022, Note_off_c, 4, 76, 127
2, 222024, Note_on_c, 6, 78, 127
2, 222182, Note_off_c, 6, 78, 127
2, 222182, Note_off_c, 10, 69, 127
2, 222184, Note_on_c, 8, 68, 127
2, 222184, Note_on_c, 4, 76, 127
2, 222342, Note_off_c, 4, 76, 127
2, 222342, Note_off_c, 8, 68, 127
2, 222344, Note_on_c, 6, 66, 127
2, 222344, Note_on_c, 12, 83, 127
2, 222502, Note_off_c, 12, 83, 127
2, 222504, Note_on_c, 11, 82, 127
2, 222662, Note_off_c, 11, 82, 127
2, 222664, Note_on_c, 8, 80, 127
2, 222822, Note_off_c, 8, 80, 127
2, 222822, Note_off_c, 6, 66, 127
2, 222822, Note_off_c, 4, 64, 127
2, 222824, Note_on_c, 3, 63, 127
2, 222824, Note_on_c, 12, 71, 127
2, 222824, Note_on_c, 6, 78, 127
2, 222982, Note_off_c, 6, 78, 127
2, 222982, Note_off_c, 3, 63, 127
2, 222984, Note_on_c, 1, 61, 127
2, 222984, Note_on_c, 4, 76, 127
2, 223142, Note_off_c, 4, 76, 127
2, 223142, Note_off_c, 1, 61, 127
2, 223144, Note_on_c, 12, 59, 127
2, 223144, Note_on_c, 3, 75, 127
2, 223302, Note_off_c, 3, 75, 127
2, 223302, Note_off_c, 12, 59, 127
2, 223304, Note_on_c, 6, 66, 127
2, 223304, Note_on_c, 1, 73, 127
2, 223462, Note_off_c, 1, 73, 127
2, 223464, Note_on_c, 3, 75, 127
2, 223622, Note_off_c, 3, 75, 127
2, 223622, Note_off_c, 6, 66, 127
2, 223622, Note_off_c, 12, 71, 127
2, 223624, Note_on_c, 6, 54, 127
2, 223624, Note_on_c, 11, 70, 127
2, 223624, Note_on_c, 1, 73, 127
2, 223782, Note_off_c, 1, 73, 127
2, 223782, Note_off_c, 11, 70, 127
2, 223782, Note_off_c, 6, 54, 127
2, 223784, Note_on_c, 8, 56, 127
2, 223784, Note_on_c, 8, 68, 127
2, 223784, Note_on_c, 4, 76, 127
2, 223942, Note_off_c, 4, 76, 127
2, 223944, Note_on_c, 12, 71, 127
2, 224102, Note_off_c, 12, 71, 127
2, 224102, Note_off_c, 8, 68, 127
2, 224102, Note_off_c, 8, 56, 127
2, 224104, Note_on_c, 11, 58, 127
2, 224104, Note_on_c, 7, 67, 127
2, 224104, Note_on_c, 1, 73, 127
2, 224262, Note_off_c, 1, 73, 127
2, 224262, Note_off_c, 7, 67, 127
2, 224262, Note_off_c, 11, 58, 127
2, 224265, Note_on_c, 12, 59, 127
2, 224265, Note_on_c, 6, 66, 127
2, 224265, Note_on_c, 3, 75, 127
2, 224423, Note_off_c, 3, 75, 127
2, 224425, Note_on_c, 4, 76, 127
2, 224583, Note_off_c, 4, 76, 127
2, 224583, Note_off_c, 6, 66, 127
2, 224583, Note_off_c, 12, 59, 127
2, 224585, Note_on_c, 8, 56, 127
2, 224585, Note_on_c, 0, 60, 127
2, 224585, Note_on_c, 3, 75, 127
2, 224743, Note_off_c, 3, 75, 127
2, 224743, Note_off_c, 0, 60, 127
2, 224743, Note_off_c, 8, 56, 127
2, 224745, Note_on_c, 11, 58, 127
2, 224745, Note_on_c, 1, 61, 127
2, 224745, Note_on_c, 6, 78, 127
2, 224903, Note_off_c, 6, 78, 127
2, 224905, Note_on_c, 1, 73, 127
2, 225063, Note_off_c, 1, 73, 127
2, 225063, Note_off_c, 1, 61, 127
2, 225063, Note_off_c, 11, 58, 127
2, 225065, Note_on_c, 0, 60, 127
2, 225065, Note_on_c, 3, 63, 127
2, 225065, Note_on_c, 3, 75, 127
2, 225223, Note_off_c, 3, 75, 127
2, 225223, Note_off_c, 3, 63, 127
2, 225223, Note_off_c, 0, 60, 127
2, 225225, Note_on_c, 1, 61, 127
2, 225225, Note_on_c, 1, 73, 127
2, 225225, Note_on_c, 4, 76, 127
2, 225383, Note_off_c, 1, 73, 127
2, 225383, Note_off_c, 1, 61, 127
2, 225385, Note_on_c, 12, 59, 127
2, 225385, Note_on_c, 3, 75, 127
2, 225543, Note_off_c, 3, 75, 127
2, 225543, Note_off_c, 12, 59, 127
2, 225545, Note_on_c, 10, 57, 127
2, 225545, Note_on_c, 1, 73, 127
2, 225703, Note_off_c, 1, 73, 127
2, 225703, Note_off_c, 10, 57, 127
2, 225703, Note_off_c, 4, 76, 127
2, 225705, Note_on_c, 10, 57, 127
2, 225705, Note_on_c, 12, 71, 127
2, 225705, Note_on_c, 5, 77, 127
2, 225784, Note_off_c, 10, 57, 127
2, 225786, Note_on_c, 8, 56, 127
2, 225865, Note_off_c, 8, 56, 127
2, 225865, Note_off_c, 12, 71, 127
2, 225867, Note_on_c, 10, 57, 127
2, 225867, Note_on_c, 1, 73, 127
2, 225946, Note_off_c, 10, 57, 127
2, 225948, Note_on_c, 8, 56, 127
2, 226027, Note_off_c, 8, 56, 127
2, 226027, Note_off_c, 1, 73, 127
2, 226028, Note_on_c, 10, 57, 127
2, 226028, Note_on_c, 12, 71, 127
2, 226107, Note_off_c, 10, 57, 127
2, 226109, Note_on_c, 8, 56, 127
2, 226188, Note_off_c, 8, 56, 127
2, 226188, Note_off_c, 12, 71, 127
2, 226188, Note_off_c, 5, 77, 127
2, 226190, Note_on_c, 10, 69, 127
2, 226190, Note_on_c, 6, 78, 127
2, 226190, Note_on_c, 6, 54, 127
2, 226348, Note_off_c, 10, 69, 127
2, 226350, Note_on_c, 4, 76, 127
2, 226508, Note_off_c, 4, 76, 127
2, 226510, Note_on_c, 2, 74, 127
2, 226665, Note_off_c, 6, 54, 127
2, 226668, Note_off_c, 2, 74, 127
2, 226670, Note_on_c, 1, 73, 127
2, 226828, Note_off_c, 1, 73, 127
2, 226830, Note_on_c, 12, 71, 127
2, 226988, Note_off_c, 12, 71, 127
2, 226988, Note_off_c, 6, 78, 127
2, 226990, Note_on_c, 10, 69, 127
2, 226990, Note_on_c, 6, 78, 127
2, 227148, Note_off_c, 6, 78, 127
2, 227148, Note_off_c, 10, 69, 127
2, 227150, Note_on_c, 8, 68, 127
2, 227150, Note_on_c, 5, 77, 127
2, 227308, Note_off_c, 8, 68, 127
2, 227310, Note_on_c, 10, 69, 127
2, 227468, Note_off_c, 10, 69, 127
2, 227468, Note_off_c, 5, 77, 127
2, 227470, Note_on_c, 8, 68, 127
2, 227470, Note_on_c, 4, 76, 127
2, 227628, Note_off_c, 4, 76, 127
2, 227628, Note_off_c, 8, 68, 127
2, 227631, Note_on_c, 12, 71, 127
2, 227631, Note_on_c, 3, 75, 127
2, 227789, Note_off_c, 12, 71, 127
2, 227791, Note_on_c, 6, 66, 127
2, 227949, Note_off_c, 6, 66, 127
2, 227949, Note_off_c, 3, 75, 127
2, 227951, Note_on_c, 8, 68, 127
2, 227951, Note_on_c, 2, 74, 127
2, 228109, Note_off_c, 2, 74, 127
2, 228109, Note_off_c, 8, 68, 127
2, 228111, Note_on_c, 10, 69, 127
2, 228111, Note_on_c, 1, 73, 127
2, 228269, Note_off_c, 10, 69, 127
2, 228271, Note_on_c, 12, 71, 127
2, 228429, Note_off_c, 12, 71, 127
2, 228429, Note_off_c, 1, 73, 127
2, 228431, Note_on_c, 10, 69, 127
2, 228431, Note_on_c, 6, 78, 127
2, 228589, Note_off_c, 6, 78, 127
2, 228589, Note_off_c, 10, 69, 127
2, 228591, Note_on_c, 1, 73, 127
2, 228591, Note_on_c, 5, 77, 127
2, 228749, Note_off_c, 1, 73, 127
2, 228751, Note_on_c, 8, 68, 127
2, 228909, Note_off_c, 8, 68, 127
2, 228909, Note_off_c, 5, 77, 127
2, 228911, Note_on_c, 11, 70, 127
2, 228911, Note_on_c, 4, 76, 127
2, 229069, Note_off_c, 4, 76, 127
2, 229069, Note_off_c, 11, 70, 127
2, 229071, Note_on_c, 8, 56, 127
2, 229071, Note_on_c, 12, 71, 127
2, 229071, Note_on_c, 3, 75, 127
2, 229229, Note_off_c, 8, 56, 127
2, 229231, Note_on_c, 10, 57, 127
2, 229389, Note_off_c, 10, 57, 127
2, 229389, Note_off_c, 3, 75, 127
2, 229391, Note_on_c, 8, 56, 127
2, 229391, Note_on_c, 5, 77, 127
2, 229549, Note_off_c, 5, 77, 127
2, 229549, Note_off_c, 8, 56, 127
2, 229551, Note_on_c, 6, 54, 127
2, 229551, Note_on_c, 6, 78, 127
2, 229709, Note_off_c, 6, 54, 127
2, 229711, Note_on_c, 8, 56, 127
2, 229869, Note_off_c, 8, 56, 127
2, 229869, Note_off_c, 12, 71, 127
2, 229871, Note_on_c, 6, 54, 127
2, 229871, Note_on_c, 10, 69, 127
2, 230029, Note_off_c, 10, 69, 127
2, 230029, Note_off_c, 6, 54, 127
2, 230031, Note_on_c, 1, 61, 127
2, 230031, Note_on_c, 8, 68, 127
2, 230189, Note_off_c, 1, 61, 127
2, 230191, Note_on_c, 12, 59, 127
2, 230349, Note_off_c, 12, 59, 127
2, 230349, Note_off_c, 8, 68, 127
2, 230351, Note_on_c, 10, 57, 127
2, 230351, Note_on_c, 0, 72, 127
2, 230509, Note_off_c, 0, 72, 127
2, 230509, Note_off_c, 10, 57, 127
2, 230509, Note_off_c, 6, 78, 127
2, 230511, Note_on_c, 8, 56, 127
2, 230511, Note_on_c, 1, 73, 127
2, 230511, Note_on_c, 4, 76, 127
2, 230669, Note_off_c, 8, 56, 127
2, 230671, Note_on_c, 6, 54, 127
2, 230829, Note_off_c, 6, 54, 127
2, 230832, Note_on_c, 4, 52, 127
2, 230989, Note_off_c, 1, 73, 127
2, 230990, Note_off_c, 4, 52, 127
2, 230992, Note_on_c, 3, 51, 127
2, 230992, Note_on_c, 6, 66, 127
2, 231150, Note_off_c, 3, 51, 127
2, 231152, Note_on_c, 4, 52, 127
2, 231310, Note_off_c, 4, 52, 127
2, 231312, Note_on_c, 3, 51, 127
2, 231469, Note_off_c, 4, 76, 127
2, 231470, Note_off_c, 3, 51, 127
2, 231472, Note_on_c, 6, 54, 127
2, 231472, Note_on_c, 3, 75, 127
2, 231630, Note_off_c, 6, 54, 127
2, 231630, Note_off_c, 6, 66, 127
2, 231632, Note_on_c, 1, 49, 127
2, 231632, Note_on_c, 4, 64, 127
2, 231790, Note_off_c, 4, 64, 127
2, 231790, Note_off_c, 1, 49, 127
2, 231792, Note_on_c, 3, 51, 127
2, 231792, Note_on_c, 6, 66, 127
2, 231950, Note_off_c, 6, 66, 127
2, 231950, Note_off_c, 3, 51, 127
2, 231952, Note_on_c, 4, 52, 127
2, 231952, Note_on_c, 8, 68, 127
2, 232110, Note_off_c, 4, 52, 127
2, 232112, Note_on_c, 6, 54, 127
2, 232270, Note_off_c, 6, 54, 127
2, 232270, Note_off_c, 3, 75, 127
2, 232272, Note_on_c, 4, 52, 127
2, 232272, Note_on_c, 1, 73, 127
2, 232430, Note_off_c, 1, 73, 127
2, 232430, Note_off_c, 4, 52, 127
2, 232432, Note_on_c, 8, 56, 127
2, 232432, Note_on_c, 0, 72, 127
2, 232590, Note_off_c, 8, 56, 127
2, 232590, Note_off_c, 8, 68, 127
2, 232592, Note_on_c, 3, 51, 127
2, 232592, Note_on_c, 6, 66, 127
2, 232750, Note_off_c, 6, 66, 127
2, 232750, Note_off_c, 3, 51, 127
2, 232750, Note_off_c, 0, 72, 127
2, 232752, Note_on_c, 5, 53, 127
2, 232752, Note_on_c, 8, 68, 127
2, 232752, Note_on_c, 12, 71, 127
2, 232910, Note_off_c, 12, 71, 127
2, 232910, Note_off_c, 8, 68, 127
2, 232910, Note_off_c, 5, 53, 127
2, 232912, Note_on_c, 6, 54, 127
2, 232912, Note_on_c, 1, 61, 127
2, 232912, Note_on_c, 11, 70, 127
2, 233070, Note_off_c, 1, 61, 127
2, 233072, Note_on_c, 0, 60, 127
2, 233230, Note_off_c, 0, 60, 127
2, 233230, Note_off_c, 11, 70, 127
2, 233232, Note_on_c, 1, 61, 127
2, 233232, Note_on_c, 10, 69, 127
2, 233390, Note_off_c, 10, 69, 127
2, 233390, Note_off_c, 1, 61, 127
2, 233392, Note_on_c, 3, 63, 127
2, 233392, Note_on_c, 6, 78, 127
2, 233550, Note_off_c, 6, 78, 127
2, 233550, Note_off_c, 3, 63, 127
2, 233552, Note_on_c, 1, 61, 127
2, 233552, Note_on_c, 4, 76, 127
2, 233710, Note_off_c, 4, 76, 127
2, 233710, Note_off_c, 1, 61, 127
2, 233712, Note_on_c, 3, 63, 127
2, 233712, Note_on_c, 6, 78, 127
2, 233870, Note_off_c, 6, 78, 127
2, 233870, Note_off_c, 3, 63, 127
2, 233872, Note_on_c, 8, 56, 127
2, 233872, Note_on_c, 0, 72, 127
2, 234030, Note_off_c, 0, 72, 127
2, 234030, Note_off_c, 8, 56, 127
2, 234033, Note_on_c, 11, 58, 127
2, 234033, Note_on_c, 1, 73, 127
2, 234191, Note_off_c, 1, 73, 127
2, 234191, Note_off_c, 11, 58, 127
2, 234193, Note_on_c, 0, 60, 127
2, 234193, Note_on_c, 3, 75, 127
2, 234350, Note_off_c, 6, 54, 127
2, 234351, Note_off_c, 3, 75, 127
2, 234351, Note_off_c, 0, 60, 127
2, 234353, Note_on_c, 4, 52, 127
2, 234353, Note_on_c, 1, 61, 127
2, 234353, Note_on_c, 8, 68, 127
2, 234511, Note_off_c, 1, 61, 127
2, 234513, Note_on_c, 3, 63, 127
2, 234671, Note_off_c, 3, 63, 127
2, 234673, Note_on_c, 4, 64, 127
2, 234831, Note_off_c, 4, 64, 127
2, 234831, Note_off_c, 8, 68, 127
2, 234831, Note_off_c, 4, 52, 127
2, 234833, Note_on_c, 3, 51, 127
2, 234833, Note_on_c, 6, 66, 127
2, 234833, Note_on_c, 11, 70, 127
2, 234991, Note_off_c, 6, 66, 127
2, 234993, Note_on_c, 4, 64, 127
2, 235151, Note_off_c, 4, 64, 127
2, 235153, Note_on_c, 6, 66, 127
2, 235311, Note_off_c, 6, 66, 127
2, 235311, Note_off_c, 11, 70, 127
2, 235311, Note_off_c, 3, 51, 127
2, 235313, Note_on_c, 8, 56, 127
2, 235313, Note_on_c, 3, 63, 127
2, 235313, Note_on_c, 0, 72, 127
2, 235471, Note_off_c, 3, 63, 127
2, 235473, Note_on_c, 8, 68, 127
2, 235631, Note_off_c, 8, 68, 127
2, 235633, Note_on_c, 6, 66, 127
2, 235791, Note_off_c, 6, 66, 127
2, 235791, Note_off_c, 0, 72, 127
2, 235791, Note_off_c, 8, 56, 127
2, 235793, Note_on_c, 1, 49, 127
2, 235793, Note_on_c, 4, 64, 127
2, 235793, Note_on_c, 1, 73, 127
2, 235951, Note_off_c, 4, 64, 127
2, 235953, Note_on_c, 3, 63, 127
2, 236111, Note_off_c, 3, 63, 127
2, 236113, Note_on_c, 4, 64, 127
2, 236271, Note_off_c, 4, 64, 127
2, 236271, Note_off_c, 1, 73, 127
2, 236271, Note_off_c, 1, 49, 127
2, 236273, Note_on_c, 6, 54, 127
2, 236273, Note_on_c, 1, 61, 127
2, 236273, Note_on_c, 10, 69, 127
2, 236431, Note_off_c, 1, 61, 127
2, 236433, Note_on_c, 6, 66, 127
2, 236591, Note_off_c, 6, 66, 127
2, 236593, Note_on_c, 4, 64, 127
2, 236751, Note_off_c, 4, 64, 127
2, 236751, Note_off_c, 6, 54, 127
2, 236753, Note_on_c, 12, 47, 127
2, 236753, Note_on_c, 3, 63, 127
2, 236911, Note_off_c, 3, 63, 127
2, 236913, Note_on_c, 1, 61, 127
2, 237071, Note_off_c, 1, 61, 127
2, 237073, Note_on_c, 3, 63, 127
2, 237231, Note_off_c, 3, 63, 127
2, 237231, Note_off_c, 12, 47, 127
2, 237231, Note_off_c, 10, 69, 127
2, 237234, Note_on_c, 4, 52, 127
2, 237234, Note_on_c, 12, 59, 127
2, 237234, Note_on_c, 8, 68, 127
2, 237392, Note_off_c, 12, 59, 127
2, 237394, Note_on_c, 4, 64, 127
2, 237552, Note_off_c, 4, 64, 127
2, 237554, Note_on_c, 3, 63, 127
2, 237712, Note_off_c, 3, 63, 127
2, 237712, Note_off_c, 4, 52, 127
2, 237714, Note_on_c, 12, 47, 127
2, 237714, Note_on_c, 1, 61, 127
2, 237793, Note_off_c, 12, 47, 127
2, 237795, Note_on_c, 10, 45, 127
2, 237874, Note_off_c, 10, 45, 127
2, 237874, Note_off_c, 1, 61, 127
2, 237875, Note_on_c, 12, 47, 127
2, 237875, Note_on_c, 3, 63, 127
2, 237954, Note_off_c, 12, 47, 127
2, 237956, Note_on_c, 10, 45, 127
2, 238035, Note_off_c, 10, 45, 127
2, 238035, Note_off_c, 3, 63, 127
2, 238037, Note_on_c, 12, 47, 127
2, 238037, Note_on_c, 4, 64, 127
2, 238116, Note_off_c, 12, 47, 127
2, 238118, Note_on_c, 10, 45, 127
2, 238197, Note_off_c, 4, 64, 127
2, 238197, Note_off_c, 8, 68, 127
2, 238199, Note_on_c, 3, 63, 127
2, 238199, Note_on_c, 6, 66, 127
2, 238357, Note_off_c, 3, 63, 127
2, 238359, Note_on_c, 4, 64, 127
2, 238517, Note_off_c, 4, 64, 127
2, 238519, Note_on_c, 1, 61, 127
2, 238677, Note_off_c, 1, 61, 127
2, 238677, Note_off_c, 6, 66, 127
2, 238677, Note_off_c, 10, 45, 127
2, 238679, Note_on_c, 8, 44, 127
2, 238679, Note_on_c, 0, 60, 127
2, 238679, Note_on_c, 8, 68, 127
2, 238837, Note_off_c, 8, 68, 127
2, 238839, Note_on_c, 3, 63, 127
2, 238997, Note_off_c, 3, 63, 127
2, 238999, Note_on_c, 8, 68, 127
2, 239157, Note_off_c, 0, 60, 127
2, 239157, Note_off_c, 8, 44, 127
2, 239159, Note_on_c, 11, 46, 127
2, 239159, Note_on_c, 1, 61, 127
2, 239317, Note_off_c, 8, 68, 127
2, 239319, Note_on_c, 6, 66, 127
2, 239477, Note_off_c, 6, 66, 127
2, 239479, Note_on_c, 4, 64, 127
2, 239637, Note_off_c, 4, 64, 127
2, 239637, Note_off_c, 1, 61, 127
2, 239637, Note_off_c, 11, 46, 127
2, 239639, Note_on_c, 0, 48, 127
2, 239639, Note_on_c, 3, 63, 127
2, 239799, Note_on_c, 6, 66, 127
2, 239957, Note_off_c, 6, 66, 127
2, 239959, Note_on_c, 10, 69, 127
2, 240117, Note_off_c, 3, 63, 127
2, 240117, Note_off_c, 0, 48, 127
2, 240119, Note_on_c, 8, 44, 127
2, 240119, Note_on_c, 0, 60, 127
2, 240277, Note_off_c, 10, 69, 127
2, 240279, Note_on_c, 8, 68, 127
2, 240437, Note_off_c, 8, 68, 127
2, 240439, Note_on_c, 6, 66, 127
2, 240597, Note_off_c, 6, 66, 127
2, 240597, Note_off_c, 0, 60, 127
2, 240597, Note_off_c, 8, 44, 127
2, 240600, Note_on_c, 1, 49, 127
2, 240600, Note_on_c, 1, 61, 127
2, 240600, Note_on_c, 4, 64, 127
2, 240758, Note_off_c, 1, 61, 127
2, 240760, Note_on_c, 8, 56, 127
2, 240918, Note_off_c, 8, 56, 127
2, 240920, Note_on_c, 1, 61, 127
2, 241078, Note_off_c, 4, 64, 127
2, 241078, Note_off_c, 1, 49, 127
2, 241080, Note_on_c, 3, 51, 127
2, 241080, Note_on_c, 6, 66, 127
2, 241238, Note_off_c, 1, 61, 127
2, 241240, Note_on_c, 12, 59, 127
2, 241398, Note_off_c, 12, 59, 127
2, 241400, Note_on_c, 10, 57, 127
2, 241558, Note_off_c, 10, 57, 127
2, 241558, Note_off_c, 6, 66, 127
2, 241558, Note_off_c, 3, 51, 127
2, 241560, Note_on_c, 4, 52, 127
2, 241560, Note_on_c, 8, 56, 127
2, 241560, Note_on_c, 8, 68, 127
2, 241718, Note_off_c, 8, 56, 127
2, 241720, Note_on_c, 12, 59, 127
2, 241878, Note_off_c, 12, 59, 127
2, 241880, Note_on_c, 2, 62, 127
2, 242038, Note_off_c, 4, 52, 127
2, 242040, Note_on_c, 5, 53, 127
2, 242198, Note_off_c, 2, 62, 127
2, 242200, Note_on_c, 1, 61, 127
2, 242358, Note_off_c, 1, 61, 127
2, 242360, Note_on_c, 12, 59, 127
2, 242518, Note_off_c, 12, 59, 127
2, 242518, Note_off_c, 5, 53, 127
2, 242518, Note_off_c, 8, 68, 127
2, 242520, Note_on_c, 6, 54, 127
2, 242520, Note_on_c, 10, 57, 127
2, 242520, Note_on_c, 6, 78, 127
2, 242678, Note_off_c, 10, 57, 127
2, 242680, Note_on_c, 12, 59, 127
2, 242838, Note_off_c, 12, 59, 127
2, 242840, Note_on_c, 1, 61, 127
2, 242998, Note_off_c, 6, 54, 127
2, 243000, Note_on_c, 2, 50, 127
2, 243158, Note_off_c, 1, 61, 127
2, 243160, Note_on_c, 6, 54, 127
2, 243318, Note_off_c, 6, 54, 127
2, 243320, Note_on_c, 12, 59, 127
2, 243478, Note_off_c, 2, 50, 127
2, 243478, Note_off_c, 6, 78, 127
2, 243480, Note_on_c, 1, 49, 127
2, 243480, Note_on_c, 5, 77, 127
2, 243638, Note_off_c, 12, 59, 127
2, 243640, Note_on_c, 11, 58, 127
2, 243798, Note_off_c, 11, 58, 127
2, 243801, Note_on_c, 8, 56, 127
2, 243958, Note_off_c, 5, 77, 127
2, 243958, Note_off_c, 1, 49, 127
2, 243959, Note_off_c, 8, 56, 127
2, 243961, Note_on_c, 6, 54, 127
2, 243961, Note_on_c, 11, 58, 127
2, 243961, Note_on_c, 4, 76, 127
2, 244119, Note_off_c, 6, 54, 127
2, 244121, Note_on_c, 4, 52, 127
2, 244279, Note_off_c, 4, 52, 127
2, 244281, Note_on_c, 6, 54, 127
2, 244439, Note_off_c, 6, 54, 127
2, 244439, Note_off_c, 4, 76, 127
2, 244439, Note_off_c, 11, 58, 127
2, 244441, Note_on_c, 12, 47, 127
2, 244441, Note_on_c, 12, 59, 127
2, 244441, Note_on_c, 3, 75, 127
2, 244599, Note_off_c, 12, 47, 127
2, 244601, Note_on_c, 8, 56, 127
2, 244759, Note_off_c, 8, 56, 127
2, 244761, Note_on_c, 6, 54, 127
2, 244919, Note_off_c, 6, 54, 127
2, 244919, Note_off_c, 3, 75, 127
2, 244919, Note_off_c, 12, 59, 127
2, 244921, Note_on_c, 5, 53, 127
2, 244921, Note_on_c, 12, 71, 127
2, 244921, Note_on_c, 8, 80, 127
2, 245079, Note_off_c, 5, 53, 127
2, 245081, Note_on_c, 3, 51, 127
2, 245239, Note_off_c, 3, 51, 127
2, 245241, Note_on_c, 5, 53, 127
2, 245399, Note_off_c, 5, 53, 127
2, 245399, Note_off_c, 8, 80, 127
2, 245399, Note_off_c, 12, 71, 127
2, 245401, Note_on_c, 6, 54, 127
2, 245401, Note_on_c, 11, 70, 127
2, 245401, Note_on_c, 1, 73, 127
2, 245559, Note_off_c, 6, 54, 127
2, 245561, Note_on_c, 8, 56, 127
2, 245719, Note_off_c, 8, 56, 127
2, 245721, Note_on_c, 4, 52, 127
2, 245879, Note_off_c, 4, 52, 127
2, 245879, Note_off_c, 1, 73, 127
2, 245879, Note_off_c, 11, 70, 127
2, 245881, Note_on_c, 3, 51, 127
2, 245881, Note_on_c, 10, 69, 127
2, 245881, Note_on_c, 6, 78, 127
2, 246039, Note_off_c, 3, 51, 127
2, 246041, Note_on_c, 4, 52, 127
2, 246199, Note_off_c, 4, 52, 127
2, 246201, Note_on_c, 1, 49, 127
2, 246359, Note_off_c, 1, 49, 127
2, 246359, Note_off_c, 10, 69, 127
2, 246361, Note_on_c, 0, 48, 127
2, 246361, Note_on_c, 8, 68, 127
2, 246519, Note_off_c, 0, 48, 127
2, 246521, Note_on_c, 1, 49, 127
2, 246679, Note_off_c, 1, 49, 127
2, 246681, Note_on_c, 3, 51, 127
2, 246839, Note_off_c, 3, 51, 127
2, 246839, Note_off_c, 8, 68, 127
2, 246839, Note_off_c, 6, 78, 127
2, 246841, Note_on_c, 4, 52, 127
2, 246841, Note_on_c, 1, 73, 127
2, 246841, Note_on_c, 4, 76, 127
2, 246999, Note_off_c, 4, 52, 127
2, 247002, Note_on_c, 3, 51, 127
2, 247160, Note_off_c, 3, 51, 127
2, 247162, Note_on_c, 1, 49, 127
2, 247319, Note_off_c, 4, 76, 127
2, 247320, Note_off_c, 1, 49, 127
2, 247322, Note_on_c, 8, 56, 127
2, 247322, Note_on_c, 3, 75, 127
2, 247479, Note_off_c, 1, 73, 127
2, 247482, Note_on_c, 12, 71, 127
2, 247640, Note_off_c, 12, 71, 127
2, 247640, Note_off_c, 8, 56, 127
2, 247642, Note_on_c, 3, 51, 127
2, 247642, Note_on_c, 11, 70, 127
2, 247800, Note_off_c, 11, 70, 127
2, 247800, Note_off_c, 3, 51, 127
2, 247800, Note_off_c, 3, 75, 127
2, 247802, Note_on_c, 8, 56, 127
2, 247802, Note_on_c, 12, 71, 127
2, 247802, Note_on_c, 4, 76, 127
2, 247960, Note_off_c, 12, 71, 127
2, 247962, Note_on_c, 1, 73, 127
2, 248120, Note_off_c, 1, 73, 127
2, 248122, Note_on_c, 12, 71, 127
2, 248280, Note_off_c, 12, 71, 127
2, 248280, Note_off_c, 8, 56, 127
2, 248282, Note_on_c, 7, 55, 127
2, 248282, Note_on_c, 11, 70, 127
2, 248440, Note_off_c, 11, 70, 127
2, 248442, Note_on_c, 12, 71, 127
2, 248600, Note_off_c, 12, 71, 127
2, 248602, Note_on_c, 1, 73, 127
2, 248760, Note_off_c, 1, 73, 127
2, 248760, Note_off_c, 7, 55, 127
2, 248760, Note_off_c, 4, 76, 127
2, 248762, Note_on_c, 6, 54, 127
2, 248762, Note_on_c, 12, 71, 127
2, 248762, Note_on_c, 3, 75, 127
2, 248920, Note_off_c, 12, 71, 127
2, 248922, Note_on_c, 1, 73, 127
2, 249080, Note_off_c, 1, 73, 127
2, 249082, Note_on_c, 11, 70, 127
2, 249240, Note_off_c, 11, 70, 127
2, 249240, Note_off_c, 6, 54, 127
2, 249242, Note_on_c, 5, 53, 127
2, 249242, Note_on_c, 8, 68, 127
2, 249400, Note_off_c, 3, 75, 127
2, 249402, Note_on_c, 1, 73, 127
2, 249560, Note_off_c, 1, 73, 127
2, 249562, Note_on_c, 0, 72, 127
2, 249720, Note_off_c, 0, 72, 127
2, 249720, Note_off_c, 5, 53, 127
2, 249722, Note_on_c, 11, 58, 127
2, 249722, Note_on_c, 1, 73, 127
2, 249880, Note_off_c, 1, 73, 127
2, 249882, Note_on_c, 3, 75, 127
2, 250040, Note_off_c, 3, 75, 127
2, 250042, Note_on_c, 4, 76, 127
2, 250200, Note_off_c, 11, 58, 127
2, 250200, Note_off_c, 8, 68, 127
2, 250203, Note_on_c, 3, 51, 127
2, 250203, Note_on_c, 7, 67, 127
2, 250360, Note_off_c, 4, 76, 127
2, 250363, Note_on_c, 3, 75, 127
2, 250521, Note_off_c, 3, 75, 127
2, 250523, Note_on_c, 1, 73, 127
2, 250681, Note_off_c, 1, 73, 127
2, 250681, Note_off_c, 7, 67, 127
2, 250683, Note_on_c, 8, 68, 127
2, 250683, Note_on_c, 12, 71, 127
2, 250841, Note_off_c, 12, 71, 127
2, 250841, Note_off_c, 3, 51, 127
2, 250843, Note_on_c, 4, 52, 127
2, 250843, Note_on_c, 1, 73, 127
2, 251001, Note_off_c, 1, 73, 127
2, 251001, Note_off_c, 4, 52, 127
2, 251003, Note_on_c, 3, 51, 127
2, 251003, Note_on_c, 12, 71, 127
2, 251161, Note_off_c, 12, 71, 127
2, 251161, Note_off_c, 3, 51, 127
2, 251163, Note_on_c, 1, 49, 127
2, 251163, Note_on_c, 11, 70, 127
2, 251321, Note_off_c, 1, 49, 127
2, 251323, Note_on_c, 12, 47, 127
2, 251481, Note_off_c, 12, 47, 127
2, 251483, Note_on_c, 1, 49, 127
2, 251641, Note_off_c, 1, 49, 127
2, 251641, Note_off_c, 8, 68, 127
2, 251643, Note_on_c, 11, 46, 127
2, 251643, Note_on_c, 7, 67, 127
2, 251801, Note_off_c, 11, 46, 127
2, 251803, Note_on_c, 3, 51, 127
2, 251961, Note_off_c, 3, 51, 127
2, 251963, Note_on_c, 1, 49, 127
2, 252121, Note_off_c, 1, 49, 127
2, 252121, Note_off_c, 7, 67, 127
2, 252121, Note_off_c, 11, 70, 127
2, 252123, Note_on_c, 12, 47, 127
2, 252123, Note_on_c, 8, 68, 127
2, 252123, Note_on_c, 3, 75, 127
2, 252281, Note_off_c, 3, 75, 127
2, 252281, Note_off_c, 12, 47, 127
2, 252283, Note_on_c, 11, 46, 127
2, 252283, Note_on_c, 1, 73, 127
2, 252441, Note_off_c, 1, 73, 127
2, 252441, Note_off_c, 11, 46, 127
2, 252443, Note_on_c, 12, 47, 127
2, 252443, Note_on_c, 3, 75, 127
2, 252601, Note_off_c, 3, 75, 127
2, 252601, Note_off_c, 12, 47, 127
2, 252603, Note_on_c, 8, 44, 127
2, 252603, Note_on_c, 12, 71, 127
2, 252761, Note_off_c, 12, 71, 127
2, 252761, Note_off_c, 8, 44, 127
2, 252763, Note_on_c, 1, 49, 127
2, 252763, Note_on_c, 4, 76, 127
2, 252921, Note_off_c, 4, 76, 127
2, 252921, Note_off_c, 1, 49, 127
2, 252923, Note_on_c, 12, 47, 127
2, 252923, Note_on_c, 3, 75, 127
2, 253081, Note_off_c, 3, 75, 127
2, 253081, Note_off_c, 12, 47, 127
2, 253083, Note_on_c, 11, 46, 127
2, 253083, Note_on_c, 1, 73, 127
2, 253241, Note_off_c, 1, 73, 127
2, 253243, Note_on_c, 12, 71, 127
2, 253401, Note_off_c, 12, 71, 127
2, 253404, Note_on_c, 1, 73, 127
2, 253561, Note_off_c, 11, 46, 127
2, 253561, Note_off_c, 8, 68, 127
2, 253562, Note_off_c, 1, 73, 127
2, 253564, Note_on_c, 3, 51, 127
2, 253564, Note_on_c, 6, 66, 127
2, 253564, Note_on_c, 11, 70, 127
2, 253722, Note_off_c, 11, 70, 127
2, 253724, Note_on_c, 3, 75, 127
2, 253882, Note_off_c, 3, 75, 127
2, 253884, Note_on_c, 1, 73, 127
2, 254042, Note_off_c, 1, 73, 127
2, 254042, Note_off_c, 3, 51, 127
2, 254044, Note_on_c, 8, 44, 127
2, 254044, Note_on_c, 0, 72, 127
2, 254202, Note_off_c, 0, 72, 127
2, 254204, Note_on_c, 11, 70, 127
2, 254362, Note_off_c, 11, 70, 127
2, 254364, Note_on_c, 8, 68, 127
2, 254522, Note_off_c, 8, 68, 127
2, 254522, Note_off_c, 6, 66, 127
2, 254524, Note_on_c, 4, 64, 127
2, 254524, Note_on_c, 1, 73, 127
2, 254682, Note_off_c, 4, 64, 127
2, 254684, Note_on_c, 3, 63, 127
2, 254842, Note_off_c, 3, 63, 127
2, 254844, Note_on_c, 1, 61, 127
2, 255002, Note_off_c, 1, 61, 127
2, 255002, Note_off_c, 8, 44, 127
2, 255004, Note_on_c, 8, 56, 127
2, 255004, Note_on_c, 3, 63, 127
2, 255162, Note_off_c, 8, 56, 127
2, 255164, Note_on_c, 6, 54, 127
2, 255322, Note_off_c, 6, 54, 127
2, 255324, Note_on_c, 8, 56, 127
2, 255482, Note_off_c, 8, 56, 127
2, 255482, Note_off_c, 1, 73, 127
2, 255484, Note_on_c, 3, 51, 127
2, 255484, Note_on_c, 12, 71, 127
2, 255642, Note_off_c, 3, 51, 127
2, 255644, Note_on_c, 8, 56, 127
2, 255802, Note_off_c, 8, 56, 127
2, 255804, Note_on_c, 6, 54, 127
2, 255962, Note_off_c, 6, 54, 127
2, 255962, Note_off_c, 3, 63, 127
2, 255964, Note_on_c, 5, 53, 127
2, 255964, Note_on_c, 1, 61, 127
2, 256122, Note_off_c, 5, 53, 127
2, 256124, Note_on_c, 3, 51, 127
2, 256282, Note_off_c, 3, 51, 127
2, 256284, Note_on_c, 1, 49, 127
2, 256442, Note_off_c, 1, 49, 127
2, 256442, Note_off_c, 12, 71, 127
2, 256444, Note_on_c, 6, 54, 127
2, 256444, Note_on_c, 10, 69, 127
2, 256602, Note_off_c, 10, 69, 127
2, 256605, Note_on_c, 8, 68, 127
2, 256763, Note_off_c, 8, 68, 127
2, 256765, Note_on_c, 6, 66, 127
2, 256922, Note_off_c, 1, 61, 127
2, 256923, Note_off_c, 6, 66, 127
2, 256925, Note_on_c, 12, 59, 127
2, 256925, Note_on_c, 8, 68, 127
2, 257083, Note_off_c, 12, 59, 127
2, 257085, Note_on_c, 10, 57, 127
2, 257243, Note_off_c, 10, 57, 127
2, 257245, Note_on_c, 12, 59, 127
2, 257402, Note_off_c, 6, 54, 127
2, 257403, Note_off_c, 12, 59, 127
2, 257405, Note_on_c, 4, 52, 127
2, 257405, Note_on_c, 8, 56, 127
2, 257563, Note_off_c, 8, 56, 127
2, 257565, Note_on_c, 1, 61, 127
2, 257723, Note_off_c, 1, 61, 127
2, 257725, Note_on_c, 12, 59, 127
2, 257883, Note_off_c, 12, 59, 127
2, 257883, Note_off_c, 8, 68, 127
2, 257885, Note_on_c, 11, 58, 127
2, 257885, Note_on_c, 6, 66, 127
2, 258043, Note_off_c, 11, 58, 127
2, 258045, Note_on_c, 8, 56, 127
2, 258203, Note_off_c, 8, 56, 127
2, 258205, Note_on_c, 6, 54, 127
2, 258363, Note_off_c, 6, 54, 127
2, 258363, Note_off_c, 4, 52, 127
2, 258365, Note_on_c, 3, 51, 127
2, 258365, Note_on_c, 12, 59, 127
2, 258523, Note_off_c, 3, 51, 127
2, 258525, Note_on_c, 1, 49, 127
2, 258683, Note_off_c, 1, 49, 127
2, 258685, Note_on_c, 12, 47, 127
2, 258843, Note_off_c, 12, 47, 127
2, 258843, Note_off_c, 6, 66, 127
2, 258845, Note_on_c, 1, 49, 127
2, 258845, Note_on_c, 4, 64, 127
2, 259003, Note_off_c, 4, 64, 127
2, 259005, Note_on_c, 3, 63, 127
2, 259163, Note_off_c, 3, 63, 127
2, 259165, Note_on_c, 4, 64, 127
2, 259323, Note_off_c, 4, 64, 127
2, 259323, Note_off_c, 1, 49, 127
2, 259323, Note_off_c, 12, 59, 127
2, 259325, Note_on_c, 6, 54, 127
2, 259325, Note_on_c, 11, 58, 127
2, 259325, Note_on_c, 1, 61, 127
2, 259483, Note_off_c, 1, 61, 127
2, 259485, Note_on_c, 6, 66, 127
2, 259643, Note_off_c, 6, 66, 127
2, 259645, Note_on_c, 4, 64, 127
2, 259803, Note_off_c, 4, 64, 127
2, 259803, Note_off_c, 11, 58, 127
2, 259803, Note_off_c, 6, 54, 127
2, 259806, Note_on_c, 12, 47, 127
2, 259806, Note_on_c, 12, 59, 127
2, 259806, Note_on_c, 3, 63, 127
2, 259964, Note_off_c, 3, 63, 127
2, 259966, Note_on_c, 6, 66, 127
2, 260124, Note_off_c, 6, 66, 127
2, 260126, Note_on_c, 12, 71, 127
2, 260281, Note_off_c, 12, 47, 127
2, 260284, Note_off_c, 12, 59, 127
2, 260286, Note_on_c, 1, 61, 127
2, 260444, Note_off_c, 12, 71, 127
2, 260446, Note_on_c, 10, 69, 127
2, 260604, Note_off_c, 10, 69, 127
2, 260606, Note_on_c, 12, 59, 127
2, 260606, Note_on_c, 8, 68, 127
2, 260764, Note_off_c, 8, 68, 127
2, 260764, Note_off_c, 12, 59, 127
2, 260764, Note_off_c, 1, 61, 127
2, 260766, Note_on_c, 10, 57, 127
2, 260766, Note_on_c, 3, 63, 127
2, 260766, Note_on_c, 6, 66, 127
2, 260924, Note_off_c, 6, 66, 127
2, 260926, Note_on_c, 5, 77, 127
2, 261084, Note_off_c, 5, 77, 127
2, 261086, Note_on_c, 6, 78, 127
2, 261244, Note_off_c, 6, 78, 127
2, 261244, Note_off_c, 3, 63, 127
2, 261244, Note_off_c, 10, 57, 127
2, 261246, Note_on_c, 8, 56, 127
2, 261246, Note_on_c, 5, 65, 127
2, 261246, Note_on_c, 8, 80, 127
2, 261404, Note_off_c, 8, 80, 127
2, 261406, Note_on_c, 1, 73, 127
2, 261564, Note_off_c, 1, 73, 127
2, 261566, Note_on_c, 12, 71, 127
2, 261724, Note_off_c, 12, 71, 127
2, 261724, Note_off_c, 5, 65, 127
2, 261724, Note_off_c, 8, 56, 127
2, 261726, Note_on_c, 6, 54, 127
2, 261726, Note_on_c, 6, 66, 127
2, 261726, Note_on_c, 10, 69, 127
2, 261884, Note_off_c, 6, 66, 127
2, 261886, Note_on_c, 1, 61, 127
2, 262044, Note_off_c, 1, 61, 127
2, 262046, Note_on_c, 6, 66, 127
2, 262204, Note_off_c, 6, 54, 127
2, 262206, Note_on_c, 8, 56, 127
2, 262364, Note_off_c, 6, 66, 127
2, 262366, Note_on_c, 4, 64, 127
2, 262445, Note_off_c, 10, 69, 127
2, 262526, Note_off_c, 4, 64, 127
2, 262528, Note_on_c, 2, 62, 127
2, 262528, Note_on_c, 6, 78, 127
2, 262686, Note_off_c, 6, 78, 127
2, 262686, Note_off_c, 2, 62, 127
2, 262686, Note_off_c, 8, 56, 127
2, 262688, Note_on_c, 11, 58, 127
2, 262688, Note_on_c, 1, 61, 127
2, 262688, Note_on_c, 4, 76, 127
2, 262846, Note_off_c, 1, 61, 127
2, 262848, Note_on_c, 0, 72, 127
2, 263006, Note_off_c, 0, 72, 127
2, 263008, Note_on_c, 1, 73, 127
2, 263166, Note_off_c, 1, 73, 127
2, 263166, Note_off_c, 4, 76, 127
2, 263166, Note_off_c, 11, 58, 127
2, 263168, Note_on_c, 0, 60, 127
2, 263168, Note_on_c, 3, 75, 127
2, 263328, Note_on_c, 8, 68, 127
2, 263486, Note_off_c, 8, 68, 127
2, 263488, Note_on_c, 6, 66, 127
2, 263646, Note_off_c, 6, 66, 127
2, 263646, Note_off_c, 0, 60, 127
2, 263648, Note_on_c, 1, 61, 127
2, 263648, Note_on_c, 4, 64, 127
2, 263806, Note_off_c, 3, 75, 127
2, 263808, Note_on_c, 1, 73, 127
2, 263966, Note_off_c, 1, 73, 127
2, 263966, Note_off_c, 4, 64, 127
2, 263968, Note_on_c, 8, 56, 127
2, 263968, Note_on_c, 3, 75, 127
2, 264123, Note_off_c, 1, 61, 127
2, 264126, Note_off_c, 3, 75, 127
2, 264126, Note_off_c, 8, 56, 127
2, 264129, Note_on_c, 1, 61, 127
2, 264129, Note_on_c, 4, 76, 127
2, 264289, Note_on_c, 10, 69, 127
2, 264447, Note_off_c, 10, 69, 127
2, 264449, Note_on_c, 1, 49, 127
2, 264449, Note_on_c, 8, 68, 127
2, 264604, Note_off_c, 4, 76, 127
2, 264607, Note_off_c, 8, 68, 127
2, 264607, Note_off_c, 1, 49, 127
2, 264609, Note_on_c, 3, 51, 127
2, 264609, Note_on_c, 6, 66, 127
2, 264767, Note_off_c, 6, 66, 127
2, 264767, Note_off_c, 1, 61, 127
2, 264769, Note_on_c, 12, 59, 127
2, 264769, Note_on_c, 3, 75, 127
2, 264927, Note_off_c, 3, 75, 127
2, 264927, Note_off_c, 12, 59, 127
2, 264927, Note_off_c, 3, 51, 127
2, 264929, Note_on_c, 1, 61, 127
2, 264929, Note_on_c, 4, 76, 127
2, 265087, Note_off_c, 4, 76, 127
2, 265087, Note_off_c, 1, 61, 127
2, 265089, Note_on_c, 3, 63, 127
2, 265089, Note_on_c, 6, 78, 127
2, 265247, Note_off_c, 3, 63, 127
2, 265249, Note_on_c, 4, 64, 127
2, 265249, Note_on_c, 12, 71, 127
2, 265407, Note_off_c, 12, 71, 127
2, 265407, Note_off_c, 4, 64, 127
2, 265407, Note_off_c, 6, 78, 127
2, 265409, Note_on_c, 3, 63, 127
2, 265409, Note_on_c, 6, 66, 127
2, 265409, Note_on_c, 10, 69, 127
2, 265567, Note_off_c, 10, 69, 127
2, 265567, Note_off_c, 6, 66, 127
2, 265567, Note_off_c, 3, 63, 127
2, 265569, Note_on_c, 4, 64, 127
2, 265569, Note_on_c, 8, 68, 127
2, 265727, Note_off_c, 8, 68, 127
2, 265729, Note_on_c, 4, 52, 127
2, 265729, Note_on_c, 8, 80, 127
2, 265887, Note_off_c, 8, 80, 127
2, 265887, Note_off_c, 4, 52, 127
2, 265887, Note_off_c, 4, 64, 127
2, 265889, Note_on_c, 6, 54, 127
2, 265889, Note_on_c, 10, 81, 127
2, 266047, Note_off_c, 10, 81, 127
2, 266047, Note_off_c, 6, 54, 127
2, 266049, Note_on_c, 8, 56, 127
2, 266049, Note_on_c, 12, 83, 127
2, 266207, Note_off_c, 12, 83, 127
2, 266207, Note_off_c, 8, 56, 127
2, 266209, Note_on_c, 6, 54, 127
2, 266209, Note_on_c, 4, 76, 127
2, 266367, Note_off_c, 4, 76, 127
2, 266367, Note_off_c, 6, 54, 127
2, 266369, Note_on_c, 8, 56, 127
2, 266369, Note_on_c, 2, 74, 127
2, 266527, Note_off_c, 2, 74, 127
2, 266527, Note_off_c, 8, 56, 127
2, 266529, Note_on_c, 10, 57, 127
2, 266529, Note_on_c, 1, 73, 127
2, 266687, Note_off_c, 10, 57, 127
2, 266689, Note_on_c, 8, 56, 127
2, 266689, Note_on_c, 5, 65, 127
2, 266847, Note_off_c, 5, 65, 127
2, 266847, Note_off_c, 8, 56, 127
2, 266849, Note_on_c, 6, 54, 127
2, 266849, Note_on_c, 6, 66, 127
2, 267007, Note_off_c, 6, 66, 127
2, 267007, Note_off_c, 6, 54, 127
2, 267009, Note_on_c, 5, 53, 127
2, 267009, Note_on_c, 8, 68, 127
2, 267167, Note_off_c, 8, 68, 127
2, 267167, Note_off_c, 5, 53, 127
2, 267169, Note_on_c, 3, 51, 127
2, 267169, Note_on_c, 1, 61, 127
2, 267327, Note_off_c, 1, 61, 127
2, 267327, Note_off_c, 3, 51, 127
2, 267330, Note_on_c, 5, 53, 127
2, 267330, Note_on_c, 12, 59, 127
2, 267488, Note_off_c, 12, 59, 127
2, 267488, Note_off_c, 5, 53, 127
2, 267490, Note_on_c, 6, 54, 127
2, 267490, Note_on_c, 10, 57, 127
2, 267647, Note_off_c, 1, 73, 127
2, 267650, Note_on_c, 0, 72, 127
2, 267808, Note_off_c, 0, 72, 127
2, 267808, Note_off_c, 10, 57, 127
2, 267810, Note_on_c, 1, 61, 127
2, 267810, Note_on_c, 1, 73, 127
2, 267968, Note_off_c, 1, 73, 127
2, 267968, Note_off_c, 1, 61, 127
2, 267970, Note_on_c, 0, 60, 127
2, 267970, Note_on_c, 3, 75, 127
2, 268128, Note_off_c, 3, 75, 127
2, 268130, Note_on_c, 1, 73, 127
2, 268288, Note_off_c, 1, 73, 127
2, 268290, Note_on_c, 3, 75, 127
2, 268448, Note_off_c, 3, 75, 127
2, 268448, Note_off_c, 0, 60, 127
2, 268448, Note_off_c, 6, 54, 127
2, 268450, Note_on_c, 5, 53, 127
2, 268450, Note_on_c, 1, 61, 127
2, 268450, Note_on_c, 8, 68, 127
2, 268608, Note_off_c, 8, 68, 127
2, 268610, Note_on_c, 11, 70, 127
2, 268768, Note_off_c, 11, 70, 127
2, 268770, Note_on_c, 0, 72, 127
2, 268928, Note_off_c, 0, 72, 127
2, 268928, Note_off_c, 5, 53, 127
2, 268930, Note_on_c, 4, 52, 127
2, 268930, Note_on_c, 1, 73, 127
2, 269088, Note_off_c, 1, 73, 127
2, 269090, Note_on_c, 3, 75, 127
2, 269248, Note_off_c, 3, 75, 127
2, 269250, Note_on_c, 4, 76, 127
2, 269408, Note_off_c, 4, 76, 127
2, 269408, Note_off_c, 4, 52, 127
2, 269410, Note_on_c, 3, 51, 127
2, 269410, Note_on_c, 6, 78, 127
2, 269568, Note_off_c, 6, 78, 127
2, 269570, Note_on_c, 4, 76, 127
2, 269728, Note_off_c, 4, 76, 127
2, 269730, Note_on_c, 6, 78, 127
2, 269888, Note_off_c, 6, 78, 127
2, 269888, Note_off_c, 3, 51, 127
2, 269888, Note_off_c, 1, 61, 127
2, 269890, Note_on_c, 8, 56, 127
2, 269890, Note_on_c, 0, 60, 127
2, 269890, Note_on_c, 3, 75, 127
2, 270048, Note_off_c, 3, 75, 127
2, 270050, Note_on_c, 8, 80, 127
2, 270208, Note_off_c, 8, 80, 127
2, 270210, Note_on_c, 6, 78, 127
2, 270368, Note_off_c, 6, 78, 127
2, 270368, Note_off_c, 0, 60, 127
2, 270368, Note_off_c, 8, 56, 127
2, 270370, Note_on_c, 1, 49, 127
2, 270370, Note_on_c, 1, 61, 127
2, 270370, Note_on_c, 4, 76, 127
2, 270528, Note_off_c, 1, 61, 127
2, 270531, Note_on_c, 4, 64, 127
2, 270689, Note_off_c, 4, 64, 127
2, 270691, Note_on_c, 10, 69, 127
2, 270848, Note_off_c, 4, 76, 127
2, 270848, Note_off_c, 1, 49, 127
2, 270851, Note_on_c, 12, 47, 127
2, 270851, Note_on_c, 3, 75, 127
2, 271009, Note_off_c, 10, 69, 127
2, 271011, Note_on_c, 7, 67, 127
2, 271169, Note_off_c, 7, 67, 127
2, 271171, Note_on_c, 8, 68, 127
2, 271329, Note_off_c, 3, 75, 127
2, 271329, Note_off_c, 12, 47, 127
2, 271331, Note_on_c, 10, 45, 127
2, 271331, Note_on_c, 1, 73, 127
2, 271489, Note_off_c, 8, 68, 127
2, 271491, Note_on_c, 6, 66, 127
2, 271649, Note_off_c, 6, 66, 127
2, 271651, Note_on_c, 5, 65, 127
2, 271809, Note_off_c, 5, 65, 127
2, 271811, Note_on_c, 6, 66, 127
2, 271969, Note_off_c, 1, 73, 127
2, 271971, Note_on_c, 1, 73, 127
2, 272050, Note_off_c, 10, 45, 127
2, 272131, Note_off_c, 1, 73, 127
2, 272133, Note_on_c, 11, 46, 127
2, 272133, Note_on_c, 4, 76, 127
2, 272291, Note_off_c, 4, 76, 127
2, 272291, Note_off_c, 11, 46, 127
2, 272293, Note_on_c, 12, 47, 127
2, 272293, Note_on_c, 3, 75, 127
2, 272451, Note_off_c, 6, 66, 127
2, 272453, Note_on_c, 3, 63, 127
2, 272611, Note_off_c, 3, 63, 127
2, 272613, Note_on_c, 8, 68, 127
2, 272771, Note_off_c, 3, 75, 127
2, 272771, Note_off_c, 12, 47, 127
2, 272773, Note_on_c, 10, 45, 127
2, 272773, Note_on_c, 1, 73, 127
2, 272931, Note_off_c, 8, 68, 127
2, 272933, Note_on_c, 5, 65, 127
2, 273091, Note_off_c, 5, 65, 127
2, 273093, Note_on_c, 6, 66, 127
2, 273251, Note_off_c, 1, 73, 127
2, 273251, Note_off_c, 10, 45, 127
2, 273253, Note_on_c, 8, 44, 127
2, 273253, Note_on_c, 12, 71, 127
2, 273411, Note_off_c, 6, 66, 127
2, 273413, Note_on_c, 4, 64, 127
2, 273571, Note_off_c, 4, 64, 127
2, 273573, Note_on_c, 3, 63, 127
2, 273731, Note_off_c, 3, 63, 127
2, 273733, Note_on_c, 4, 64, 127
2, 273891, Note_off_c, 12, 71, 127
2, 273893, Note_on_c, 12, 71, 127
2, 273972, Note_off_c, 8, 44, 127
2, 274053, Note_off_c, 12, 71, 127
2, 274055, Note_on_c, 8, 56, 127
2, 274055, Note_on_c, 2, 74, 127
2, 274213, Note_off_c, 2, 74, 127
2, 274213, Note_off_c, 8, 56, 127
2, 274215, Note_on_c, 10, 57, 127
2, 274215, Note_on_c, 1, 73, 127
2, 274373, Note_off_c, 1, 73, 127
2, 274373, Note_off_c, 10, 57, 127
2, 274375, Note_on_c, 8, 56, 127
2, 274375, Note_on_c, 12, 71, 127
2, 274533, Note_off_c, 12, 71, 127
2, 274533, Note_off_c, 8, 56, 127
2, 274535, Note_on_c, 10, 57, 127
2, 274535, Note_on_c, 1, 73, 127
2, 274693, Note_off_c, 1, 73, 127
2, 274693, Note_off_c, 10, 57, 127
2, 274693, Note_off_c, 4, 64, 127
2, 274695, Note_on_c, 12, 59, 127
2, 274695, Note_on_c, 3, 63, 127
2, 274695, Note_on_c, 6, 66, 127
2, 274853, Note_off_c, 6, 66, 127
2, 274853, Note_off_c, 12, 59, 127
2, 274855, Note_on_c, 10, 57, 127
2, 274855, Note_on_c, 12, 71, 127
2, 275013, Note_off_c, 12, 71, 127
2, 275013, Note_off_c, 10, 57, 127
2, 275015, Note_on_c, 12, 59, 127
2, 275015, Note_on_c, 10, 69, 127
2, 275173, Note_off_c, 10, 69, 127
2, 275173, Note_off_c, 12, 59, 127
2, 275173, Note_off_c, 3, 63, 127
2, 275175, Note_on_c, 4, 52, 127
2, 275175, Note_on_c, 2, 62, 127
2, 275175, Note_on_c, 8, 68, 127
2, 275333, Note_off_c, 8, 68, 127
2, 275335, Note_on_c, 6, 66, 127
2, 275493, Note_off_c, 6, 66, 127
2, 275495, Note_on_c, 8, 68, 127
2, 275653, Note_off_c, 8, 68, 127
2, 275653, Note_off_c, 2, 62, 127
2, 275653, Note_off_c, 4, 52, 127
2, 275655, Note_on_c, 10, 57, 127
2, 275655, Note_on_c, 1, 61, 127
2, 275655, Note_on_c, 4, 64, 127
2, 275813, Note_off_c, 4, 64, 127
2, 275815, Note_on_c, 10, 69, 127
2, 275973, Note_off_c, 10, 69, 127
2, 275976, Note_on_c, 8, 68, 127
2, 276133, Note_off_c, 1, 61, 127
2, 276133, Note_off_c, 10, 57, 127
2, 276134, Note_off_c, 8, 68, 127
2, 276136, Note_on_c, 3, 51, 127
2, 276136, Note_on_c, 0, 60, 127
2, 276136, Note_on_c, 6, 66, 127
2, 276294, Note_off_c, 6, 66, 127
2, 276296, Note_on_c, 4, 64, 127
2, 276454, Note_off_c, 4, 64, 127
2, 276456, Note_on_c, 6, 66, 127
2, 276614, Note_off_c, 6, 66, 127
2, 276614, Note_off_c, 0, 60, 127
2, 276614, Note_off_c, 3, 51, 127
2, 276616, Note_on_c, 4, 52, 127
2, 276616, Note_on_c, 12, 59, 127
2, 276616, Note_on_c, 8, 68, 127
2, 276774, Note_off_c, 8, 68, 127
2, 276776, Note_on_c, 6, 66, 127
2, 276934, Note_off_c, 6, 66, 127
2, 276936, Note_on_c, 8, 68, 127
2, 277094, Note_off_c, 8, 68, 127
2, 277094, Note_off_c, 12, 59, 127
2, 277094, Note_off_c, 4, 52, 127
2, 277096, Note_on_c, 10, 45, 127
2, 277096, Note_on_c, 1, 61, 127
2, 277096, Note_on_c, 10, 69, 127
2, 277254, Note_off_c, 1, 61, 127
2, 277254, Note_off_c, 10, 45, 127
2, 277256, Note_on_c, 12, 47, 127
2, 277256, Note_on_c, 2, 62, 127
2, 277414, Note_off_c, 2, 62, 127
2, 277414, Note_off_c, 12, 47, 127
2, 277416, Note_on_c, 1, 49, 127
2, 277416, Note_on_c, 1, 61, 127
2, 277574, Note_off_c, 1, 61, 127
2, 277574, Note_off_c, 1, 49, 127
2, 277576, Note_on_c, 2, 50, 127
2, 277576, Note_on_c, 12, 59, 127
2, 277734, Note_off_c, 12, 59, 127
2, 277734, Note_off_c, 2, 50, 127
2, 277736, Note_on_c, 4, 52, 127
2, 277736, Note_on_c, 1, 61, 127
2, 277894, Note_off_c, 1, 61, 127
2, 277894, Note_off_c, 4, 52, 127
2, 277896, Note_on_c, 2, 50, 127
2, 277896, Note_on_c, 12, 59, 127
2, 278054, Note_off_c, 12, 59, 127
2, 278054, Note_off_c, 2, 50, 127
2, 278056, Note_on_c, 1, 49, 127
2, 278056, Note_on_c, 4, 64, 127
2, 278214, Note_off_c, 4, 64, 127
2, 278214, Note_off_c, 1, 49, 127
2, 278216, Note_on_c, 12, 47, 127
2, 278216, Note_on_c, 2, 62, 127
2, 278374, Note_off_c, 2, 62, 127
2, 278374, Note_off_c, 12, 47, 127
2, 278376, Note_on_c, 10, 45, 127
2, 278376, Note_on_c, 1, 61, 127
2, 278534, Note_off_c, 1, 61, 127
2, 278534, Note_off_c, 10, 45, 127
2, 278534, Note_off_c, 10, 69, 127
2, 278536, Note_on_c, 4, 52, 127
2, 278536, Note_on_c, 12, 59, 127
2, 278536, Note_on_c, 8, 68, 127
2, 278694, Note_off_c, 12, 59, 127
2, 278696, Note_on_c, 10, 57, 127
2, 278854, Note_off_c, 10, 57, 127
2, 278856, Note_on_c, 8, 56, 127
2, 279014, Note_off_c, 8, 56, 127
2, 279014, Note_off_c, 8, 68, 127
2, 279016, Note_on_c, 6, 54, 127
2, 279016, Note_on_c, 10, 69, 127
2, 279174, Note_off_c, 10, 69, 127
2, 279174, Note_off_c, 6, 54, 127
2, 279177, Note_on_c, 10, 57, 127
2, 279177, Note_on_c, 1, 73, 127
2, 279335, Note_off_c, 1, 73, 127
2, 279335, Note_off_c, 10, 57, 127
2, 279337, Note_on_c, 8, 56, 127
2, 279337, Note_on_c, 12, 71, 127
2, 279494, Note_off_c, 4, 52, 127
2, 279495, Note_off_c, 12, 71, 127
2, 279495, Note_off_c, 8, 56, 127
2, 279497, Note_on_c, 3, 51, 127
2, 279497, Note_on_c, 10, 57, 127
2, 279497, Note_on_c, 1, 73, 127
2, 279655, Note_off_c, 1, 73, 127
2, 279655, Note_off_c, 10, 57, 127
2, 279657, Note_on_c, 4, 52, 127
2, 279657, Note_on_c, 12, 71, 127
2, 279815, Note_off_c, 12, 71, 127
2, 279815, Note_off_c, 4, 52, 127
2, 279817, Note_on_c, 6, 54, 127
2, 279817, Note_on_c, 10, 69, 127
2, 279975, Note_off_c, 10, 69, 127
2, 279975, Note_off_c, 6, 54, 127
2, 279975, Note_off_c, 3, 51, 127
2, 279977, Note_on_c, 2, 50, 127
2, 279977, Note_on_c, 8, 56, 127
2, 279977, Note_on_c, 12, 71, 127
2, 280135, Note_off_c, 12, 71, 127
2, 280135, Note_off_c, 8, 56, 127
2, 280137, Note_on_c, 10, 57, 127
2, 280137, Note_on_c, 5, 65, 127
2, 280295, Note_off_c, 5, 65, 127
2, 280295, Note_off_c, 10, 57, 127
2, 280297, Note_on_c, 8, 56, 127
2, 280297, Note_on_c, 6, 66, 127
2, 280455, Note_off_c, 6, 66, 127
2, 280455, Note_off_c, 8, 56, 127
2, 280455, Note_off_c, 2, 50, 127
2, 280457, Note_on_c, 1, 49, 127
2, 280457, Note_on_c, 12, 59, 127
2, 280457, Note_on_c, 5, 65, 127
2, 280615, Note_off_c, 5, 65, 127
2, 280615, Note_off_c, 12, 59, 127
2, 280617, Note_on_c, 6, 54, 127
2, 280775, Note_off_c, 6, 54, 127
2, 280777, Note_on_c, 8, 56, 127
2, 280935, Note_off_c, 8, 56, 127
2, 280937, Note_on_c, 10, 57, 127
2, 280937, Note_on_c, 1, 73, 127
2, 281095, Note_off_c, 1, 49, 127
2, 281097, Note_on_c, 0, 48, 127
2, 281255, Note_off_c, 0, 48, 127
2, 281257, Note_on_c, 1, 49, 127
2, 281415, Note_off_c, 1, 49, 127
2, 281415, Note_off_c, 10, 57, 127
2, 281417, Note_on_c, 3, 51, 127
2, 281417, Note_on_c, 10, 69, 127
2, 281575, Note_off_c, 3, 51, 127
2, 281577, Note_on_c, 1, 49, 127
2, 281735, Note_off_c, 1, 49, 127
2, 281737, Note_on_c, 3, 51, 127
2, 281895, Note_off_c, 3, 51, 127
2, 281895, Note_off_c, 1, 73, 127
2, 281897, Note_on_c, 8, 44, 127
2, 281897, Note_on_c, 0, 72, 127
2, 282055, Note_off_c, 8, 44, 127
2, 282055, Note_off_c, 10, 69, 127
2, 282057, Note_on_c, 11, 46, 127
2, 282057, Note_on_c, 8, 68, 127
2, 282215, Note_off_c, 8, 68, 127
2, 282215, Note_off_c, 11, 46, 127
2, 282217, Note_on_c, 0, 48, 127
2, 282217, Note_on_c, 6, 66, 127
2, 282375, Note_off_c, 6, 66, 127
2, 282375, Note_off_c, 0, 48, 127
2, 282375, Note_off_c, 0, 72, 127
2, 282378, Note_on_c, 1, 49, 127
2, 282378, Note_on_c, 5, 65, 127
2, 282378, Note_on_c, 12, 71, 127
2, 282536, Note_off_c, 5, 65, 127
2, 282536, Note_off_c, 1, 49, 127
2, 282538, Note_on_c, 3, 51, 127
2, 282538, Note_on_c, 6, 66, 127
2, 282696, Note_off_c, 6, 66, 127
2, 282696, Note_off_c, 3, 51, 127
2, 282698, Note_on_c, 5, 53, 127
2, 282698, Note_on_c, 8, 68, 127
2, 282856, Note_off_c, 8, 68, 127
2, 282856, Note_off_c, 5, 53, 127
2, 282856, Note_off_c, 12, 71, 127
2, 282858, Note_on_c, 6, 54, 127
2, 282858, Note_on_c, 1, 61, 127
2, 282858, Note_on_c, 11, 70, 127
2, 283016, Note_off_c, 6, 54, 127
2, 283018, Note_on_c, 4, 52, 127
2, 283176, Note_off_c, 4, 52, 127
2, 283178, Note_on_c, 6, 54, 127
2, 283336, Note_off_c, 6, 54, 127
2, 283336, Note_off_c, 11, 70, 127
2, 283336, Note_off_c, 1, 61, 127
2, 283338, Note_on_c, 3, 51, 127
2, 283338, Note_on_c, 0, 60, 127
2, 283338, Note_on_c, 3, 75, 127
2, 283496, Note_off_c, 3, 51, 127
2, 283498, Note_on_c, 8, 56, 127
2, 283656, Note_off_c, 8, 56, 127
2, 283658, Note_on_c, 6, 54, 127
2, 283816, Note_off_c, 6, 54, 127
2, 283816, Note_off_c, 3, 75, 127
2, 283816, Note_off_c, 0, 60, 127
2, 283818, Note_on_c, 4, 52, 127
2, 283818, Note_on_c, 8, 68, 127
2, 283976, Note_off_c, 4, 52, 127
2, 283978, Note_on_c, 3, 51, 127
2, 283978, Note_on_c, 6, 66, 127
2, 284136, Note_off_c, 6, 66, 127
2, 284136, Note_off_c, 3, 51, 127
2, 284136, Note_off_c, 8, 68, 127
2, 284138, Note_on_c, 4, 52, 127
2, 284138, Note_on_c, 8, 68, 127
2, 284296, Note_off_c, 8, 68, 127
2, 284296, Note_off_c, 4, 52, 127
2, 284298, Note_on_c, 1, 49, 127
2, 284298, Note_on_c, 4, 64, 127
2, 284298, Note_on_c, 1, 73, 127
2, 284456, Note_off_c, 4, 64, 127
2, 284456, Note_off_c, 1, 49, 127
2, 284458, Note_on_c, 6, 54, 127
2, 284458, Note_on_c, 10, 69, 127
2, 284616, Note_off_c, 10, 69, 127
2, 284616, Note_off_c, 6, 54, 127
2, 284618, Note_on_c, 4, 52, 127
2, 284618, Note_on_c, 8, 68, 127
2, 284776, Note_off_c, 8, 68, 127
2, 284776, Note_off_c, 4, 52, 127
2, 284778, Note_on_c, 3, 51, 127
2, 284778, Note_on_c, 6, 66, 127
2, 284936, Note_off_c, 6, 66, 127
2, 284938, Note_on_c, 4, 64, 127
2, 285096, Note_off_c, 4, 64, 127
2, 285098, Note_on_c, 6, 66, 127
2, 285256, Note_off_c, 6, 66, 127
2, 285256, Note_off_c, 3, 51, 127
2, 285256, Note_off_c, 1, 73, 127
2, 285258, Note_on_c, 8, 56, 127
2, 285258, Note_on_c, 3, 63, 127
2, 285258, Note_on_c, 0, 72, 127
2, 285416, Note_off_c, 3, 63, 127
2, 285418, Note_on_c, 8, 68, 127
2, 285576, Note_off_c, 8, 68, 127
2, 285579, Note_on_c, 6, 66, 127
2, 285736, Note_off_c, 0, 72, 127
2, 285736, Note_off_c, 8, 56, 127
2, 285737, Note_off_c, 6, 66, 127
2, 285739, Note_on_c, 1, 49, 127
2, 285739, Note_on_c, 4, 64, 127
2, 285739, Note_on_c, 1, 73, 127
2, 285897, Note_off_c, 4, 64, 127
2, 285899, Note_on_c, 3, 63, 127
2, 286057, Note_off_c, 3, 63, 127
2, 286059, Note_on_c, 4, 64, 127
2, 286217, Note_off_c, 4, 64, 127
2, 286217, Note_off_c, 1, 73, 127
2, 286217, Note_off_c, 1, 49, 127
2, 286219, Note_on_c, 6, 54, 127
2, 286219, Note_on_c, 1, 61, 127
2, 286219, Note_on_c, 10, 69, 127
2, 286377, Note_off_c, 10, 69, 127
2, 286377, Note_off_c, 1, 61, 127
2, 286379, Note_on_c, 6, 66, 127
2, 286379, Note_on_c, 8, 68, 127
2, 286537, Note_off_c, 8, 68, 127
2, 286537, Note_off_c, 6, 66, 127
2, 286539, Note_on_c, 4, 64, 127
2, 286539, Note_on_c, 10, 69, 127
2, 286697, Note_off_c, 10, 69, 127
2, 286697, Note_off_c, 4, 64, 127
2, 286697, Note_off_c, 6, 54, 127
2, 286699, Note_on_c, 12, 59, 127
2, 286699, Note_on_c, 3, 63, 127
2, 286699, Note_on_c, 6, 66, 127
2, 286857, Note_off_c, 6, 66, 127
2, 286857, Note_off_c, 3, 63, 127
2, 286859, Note_on_c, 1, 61, 127
2, 286859, Note_on_c, 12, 71, 127
2, 287017, Note_off_c, 12, 71, 127
2, 287017, Note_off_c, 1, 61, 127
2, 287019, Note_on_c, 3, 63, 127
2, 287019, Note_on_c, 10, 69, 127
2, 287177, Note_off_c, 10, 69, 127
2, 287177, Note_off_c, 3, 63, 127
2, 287177, Note_off_c, 12, 59, 127
2, 287179, Note_on_c, 4, 52, 127
2, 287179, Note_on_c, 12, 59, 127
2, 287179, Note_on_c, 8, 68, 127
2, 287337, Note_off_c, 8, 68, 127
2, 287337, Note_off_c, 12, 59, 127
2, 287339, Note_on_c, 4, 64, 127
2, 287339, Note_on_c, 6, 66, 127
2, 287497, Note_off_c, 6, 66, 127
2, 287497, Note_off_c, 4, 64, 127
2, 287499, Note_on_c, 2, 62, 127
2, 287499, Note_on_c, 8, 68, 127
2, 287657, Note_off_c, 8, 68, 127
2, 287657, Note_off_c, 2, 62, 127
2, 287657, Note_off_c, 4, 52, 127
2, 287659, Note_on_c, 10, 57, 127
2, 287659, Note_on_c, 1, 61, 127
2, 287659, Note_on_c, 4, 64, 127
2, 287817, Note_off_c, 4, 64, 127
2, 287819, Note_on_c, 10, 69, 127
2, 287977, Note_off_c, 10, 69, 127
2, 287979, Note_on_c, 8, 68, 127
2, 288137, Note_off_c, 8, 68, 127
2, 288137, Note_off_c, 10, 57, 127
2, 288139, Note_on_c, 3, 51, 127
2, 288139, Note_on_c, 6, 66, 127
2, 288297, Note_off_c, 1, 61, 127
2, 288299, Note_on_c, 0, 60, 127
2, 288457, Note_off_c, 0, 60, 127
2, 288459, Note_on_c, 11, 58, 127
2, 288617, Note_off_c, 11, 58, 127
2, 288617, Note_off_c, 3, 51, 127
2, 288619, Note_on_c, 8, 56, 127
2, 288619, Note_on_c, 0, 60, 127
2, 288777, Note_off_c, 6, 66, 127
2, 288780, Note_on_c, 4, 64, 127
2, 288938, Note_off_c, 4, 64, 127
2, 288940, Note_on_c, 3, 63, 127
2, 289097, Note_off_c, 0, 60, 127
2, 289098, Note_off_c, 3, 63, 127
2, 289100, Note_on_c, 1, 61, 127
2, 289100, Note_on_c, 4, 64, 127
2, 289258, Note_off_c, 4, 64, 127
2, 289260, Note_on_c, 8, 68, 127
2, 289418, Note_off_c, 8, 68, 127
2, 289420, Note_on_c, 1, 73, 127
2, 289578, Note_off_c, 1, 61, 127
2, 289580, Note_on_c, 3, 63, 127
2, 289738, Note_off_c, 1, 73, 127
2, 289740, Note_on_c, 0, 72, 127
2, 289898, Note_off_c, 0, 72, 127
2, 289900, Note_on_c, 11, 70, 127
2, 290058, Note_off_c, 11, 70, 127
2, 290058, Note_off_c, 3, 63, 127
2, 290060, Note_on_c, 6, 66, 127
2, 290060, Note_on_c, 0, 72, 127
2, 290218, Note_off_c, 0, 72, 127
2, 290220, Note_on_c, 3, 75, 127
2, 290378, Note_off_c, 3, 75, 127
2, 290380, Note_on_c, 8, 80, 127
2, 290538, Note_off_c, 6, 66, 127
2, 290540, Note_on_c, 4, 64, 127
2, 290698, Note_off_c, 4, 64, 127
2, 290698, Note_off_c, 8, 80, 127
2, 290700, Note_on_c, 3, 63, 127
2, 290700, Note_on_c, 6, 78, 127
2, 290858, Note_off_c, 6, 78, 127
2, 290858, Note_off_c, 3, 63, 127
2, 290860, Note_on_c, 1, 61, 127
2, 290860, Note_on_c, 4, 76, 127
2, 291018, Note_off_c, 4, 76, 127
2, 291018, Note_off_c, 1, 61, 127
2, 291020, Note_on_c, 7, 67, 127
2, 291020, Note_on_c, 3, 75, 127
2, 291178, Note_off_c, 3, 75, 127
2, 291180, Note_on_c, 4, 76, 127
2, 291338, Note_off_c, 4, 76, 127
2, 291340, Note_on_c, 1, 73, 127
2, 291498, Note_off_c, 1, 73, 127
2, 291498, Note_off_c, 7, 67, 127
2, 291500, Note_on_c, 8, 68, 127
2, 291500, Note_on_c, 0, 72, 127
2, 291658, Note_off_c, 0, 72, 127
2, 291660, Note_on_c, 1, 73, 127
2, 291818, Note_off_c, 1, 73, 127
2, 291818, Note_off_c, 8, 56, 127
2, 291820, Note_on_c, 6, 54, 127
2, 291820, Note_on_c, 3, 75, 127
2, 291975, Note_off_c, 8, 68, 127
2, 291978, Note_off_c, 3, 75, 127
2, 291978, Note_off_c, 6, 54, 127
2, 291981, Note_on_c, 4, 52, 127
2, 291981, Note_on_c, 8, 68, 127
2, 292141, Note_on_c, 8, 80, 127
2, 292299, Note_off_c, 8, 80, 127
2, 292299, Note_off_c, 8, 68, 127
2, 292299, Note_off_c, 4, 52, 127
2, 292301, Note_on_c, 3, 51, 127
2, 292301, Note_on_c, 6, 78, 127
2, 292459, Note_off_c, 6, 78, 127
2, 292459, Note_off_c, 3, 51, 127
2, 292461, Note_on_c, 1, 49, 127
2, 292461, Note_on_c, 8, 56, 127
2, 292461, Note_on_c, 4, 76, 127
2, 292619, Note_off_c, 4, 76, 127
2, 292619, Note_off_c, 8, 56, 127
2, 292621, Note_on_c, 7, 55, 127
2, 292621, Note_on_c, 3, 75, 127
2, 292779, Note_off_c, 3, 75, 127
2, 292779, Note_off_c, 7, 55, 127
2, 292781, Note_on_c, 8, 56, 127
2, 292781, Note_on_c, 4, 76, 127
2, 292939, Note_off_c, 4, 76, 127
2, 292939, Note_off_c, 8, 56, 127
2, 292941, Note_on_c, 11, 58, 127
2, 292941, Note_on_c, 8, 68, 127
2, 293020, Note_off_c, 8, 68, 127
2, 293022, Note_on_c, 7, 67, 127
2, 293101, Note_off_c, 7, 67, 127
2, 293101, Note_off_c, 11, 58, 127
2, 293103, Note_on_c, 8, 56, 127
2, 293103, Note_on_c, 8, 68, 127
2, 293182, Note_off_c, 8, 68, 127
2, 293183, Note_on_c, 7, 67, 127
2, 293262, Note_off_c, 7, 67, 127
2, 293263, Note_off_c, 8, 56, 127
2, 293264, Note_on_c, 11, 58, 127
2, 293264, Note_on_c, 5, 65, 127
2, 293343, Note_off_c, 5, 65, 127
2, 293345, Note_on_c, 7, 67, 127
2, 293424, Note_off_c, 7, 67, 127
2, 293424, Note_off_c, 11, 58, 127
2, 293424, Note_off_c, 1, 49, 127
2, 293426, Note_on_c, 0, 48, 127
2, 293426, Note_on_c, 3, 51, 127
2, 293426, Note_on_c, 8, 68, 127
2, 293584, Note_off_c, 3, 51, 127
2, 293586, Note_on_c, 5, 53, 127
2, 293744, Note_off_c, 5, 53, 127
2, 293746, Note_on_c, 7, 55, 127
2, 293904, Note_off_c, 7, 55, 127
2, 293904, Note_off_c, 0, 48, 127
2, 293906, Note_on_c, 12, 47, 127
2, 293906, Note_on_c, 8, 56, 127
2, 294064, Note_off_c, 8, 56, 127
2, 294066, Note_on_c, 11, 58, 127
2, 294224, Note_off_c, 11, 58, 127
2, 294226, Note_on_c, 12, 59, 127
2, 294384, Note_off_c, 12, 59, 127
2, 294384, Note_off_c, 12, 47, 127
2, 294386, Note_on_c, 11, 46, 127
2, 294386, Note_on_c, 1, 61, 127
2, 294544, Note_off_c, 1, 61, 127
2, 294546, Note_on_c, 12, 59, 127
2, 294704, Note_off_c, 12, 59, 127
2, 294706, Note_on_c, 1, 61, 127
2, 294864, Note_off_c, 1, 61, 127
2, 294864, Note_off_c, 11, 46, 127
2, 294864, Note_off_c, 8, 68, 127
2, 294866, Note_on_c, 3, 51, 127
2, 294866, Note_on_c, 11, 58, 127
2, 294866, Note_on_c, 6, 66, 127
2, 295024, Note_off_c, 11, 58, 127
2, 295026, Note_on_c, 3, 63, 127
2, 295184, Note_off_c, 3, 63, 127
2, 295186, Note_on_c, 1, 61, 127
2, 295344, Note_off_c, 1, 61, 127
2, 295344, Note_off_c, 3, 51, 127
2, 295347, Note_on_c, 8, 44, 127
2, 295347, Note_on_c, 0, 60, 127
2, 295504, Note_off_c, 6, 66, 127
2, 295507, Note_on_c, 4, 64, 127
2, 295665, Note_off_c, 4, 64, 127
2, 295667, Note_on_c, 6, 66, 127
2, 295696, Note_off_c, 8, 44, 127
2, 295825, Note_off_c, 6, 66, 127
2, 295825, Note_off_c, 0, 60, 127
2, 295827, Note_on_c, 8, 56, 127
2, 295827, Note_on_c, 12, 59, 127
2, 295827, Note_on_c, 3, 63, 127
2, 295985, Note_off_c, 3, 63, 127
2, 295985, Note_off_c, 8, 56, 127
2, 295987, Note_on_c, 6, 54, 127
2, 295987, Note_on_c, 8, 68, 127
2, 296145, Note_off_c, 8, 68, 127
2, 296145, Note_off_c, 6, 54, 127
2, 296147, Note_on_c, 8, 56, 127
2, 296147, Note_on_c, 6, 66, 127
2, 296305, Note_off_c, 6, 66, 127
2, 296305, Note_off_c, 8, 56, 127
2, 296307, Note_on_c, 1, 49, 127
2, 296307, Note_on_c, 5, 65, 127
2, 296465, Note_off_c, 12, 59, 127
2, 296467, Note_on_c, 11, 58, 127
2, 296625, Note_off_c, 11, 58, 127
2, 296627, Note_on_c, 12, 59, 127
2, 296656, Note_off_c, 1, 49, 127
2, 296785, Note_off_c, 12, 59, 127
2, 296785, Note_off_c, 5, 65, 127
2, 296787, Note_on_c, 1, 49, 127
2, 296787, Note_on_c, 8, 56, 127
2, 296787, Note_on_c, 4, 64, 127
2, 296945, Note_off_c, 8, 56, 127
2, 296945, Note_off_c, 1, 49, 127
2, 296947, Note_on_c, 12, 47, 127
2, 296947, Note_on_c, 1, 61, 127
2, 297105, Note_off_c, 1, 61, 127
2, 297105, Note_off_c, 12, 47, 127
2, 297107, Note_on_c, 1, 49, 127
2, 297107, Note_on_c, 12, 59, 127
2, 297265, Note_off_c, 12, 59, 127
2, 297265, Note_off_c, 1, 49, 127
2, 297267, Note_on_c, 6, 42, 127
2, 297267, Note_on_c, 11, 58, 127
2, 297425, Note_off_c, 4, 64, 127
2, 297427, Note_on_c, 3, 63, 127
2, 297585, Note_off_c, 3, 63, 127
2, 297587, Note_on_c, 4, 64, 127
2, 297616, Note_off_c, 6, 42, 127
2, 297745, Note_off_c, 4, 64, 127
2, 297745, Note_off_c, 11, 58, 127
2, 297747, Note_on_c, 6, 54, 127
2, 297747, Note_on_c, 10, 57, 127
2, 297747, Note_on_c, 1, 61, 127
2, 297905, Note_off_c, 1, 61, 127
2, 297905, Note_off_c, 6, 54, 127
2, 297907, Note_on_c, 4, 52, 127
2, 297907, Note_on_c, 6, 66, 127
2, 298065, Note_off_c, 6, 66, 127
2, 298065, Note_off_c, 4, 52, 127
2, 298067, Note_on_c, 6, 54, 127
2, 298067, Note_on_c, 4, 64, 127
2, 298225, Note_off_c, 4, 64, 127
2, 298225, Note_off_c, 6, 54, 127
2, 298227, Note_on_c, 12, 47, 127
2, 298227, Note_on_c, 3, 63, 127
2, 298385, Note_off_c, 3, 63, 127
2, 298387, Note_on_c, 1, 61, 127
2, 298545, Note_off_c, 1, 61, 127
2, 298548, Note_on_c, 12, 59, 127
2, 298705, Note_off_c, 10, 57, 127
2, 298706, Note_off_c, 12, 59, 127
2, 298708, Note_on_c, 8, 56, 127
2, 298708, Note_on_c, 4, 64, 127
2, 298866, Note_off_c, 8, 56, 127
2, 298868, Note_on_c, 6, 54, 127
2, 299026, Note_off_c, 6, 54, 127
2, 299028, Note_on_c, 4, 52, 127
2, 299186, Note_off_c, 4, 52, 127
2, 299188, Note_on_c, 6, 54, 127
2, 299346, Note_off_c, 6, 54, 127
2, 299346, Note_off_c, 4, 64, 127
2, 299348, Note_on_c, 8, 56, 127
2, 299348, Note_on_c, 3, 63, 127
2, 299506, Note_off_c, 3, 63, 127
2, 299506, Note_off_c, 8, 56, 127
2, 299508, Note_on_c, 11, 58, 127
2, 299508, Note_on_c, 1, 61, 127
2, 299666, Note_off_c, 1, 61, 127
2, 299666, Note_off_c, 11, 58, 127
2, 299668, Note_on_c, 12, 59, 127
2, 299668, Note_on_c, 3, 63, 127
2, 299825, Note_off_c, 12, 47, 127
2, 299826, Note_off_c, 3, 63, 127
2, 299828, Note_on_c, 1, 49, 127
2, 299828, Note_on_c, 5, 65, 127
2, 299986, Note_off_c, 5, 65, 127
2, 299986, Note_off_c, 1, 49, 127
2, 299988, Note_on_c, 2, 50, 127
2, 299988, Note_on_c, 6, 66, 127
2, 300146, Note_off_c, 6, 66, 127
2, 300146, Note_off_c, 2, 50, 127
2, 300148, Note_on_c, 5, 41, 127
2, 300148, Note_on_c, 8, 68, 127
2, 300306, Note_off_c, 12, 59, 127
2, 300308, Note_on_c, 1, 61, 127
2, 300466, Note_off_c, 1, 61, 127
2, 300468, Note_on_c, 2, 62, 127
2, 300626, Note_off_c, 2, 62, 127
2, 300626, Note_off_c, 5, 41, 127
2, 300628, Note_on_c, 5, 53, 127
2, 300628, Note_on_c, 1, 61, 127
2, 300786, Note_off_c, 1, 61, 127
2, 300788, Note_on_c, 2, 62, 127
2, 300946, Note_off_c, 2, 62, 127
2, 300948, Note_on_c, 12, 59, 127
2, 301106, Note_off_c, 12, 59, 127
2, 301106, Note_off_c, 5, 53, 127
2, 301108, Note_on_c, 6, 54, 127
2, 301108, Note_on_c, 10, 57, 127
2, 301266, Note_off_c, 8, 68, 127
2, 301268, Note_on_c, 6, 66, 127
2, 301426, Note_off_c, 6, 66, 127
2, 301426, Note_off_c, 6, 54, 127
2, 301428, Note_on_c, 8, 56, 127
2, 301428, Note_on_c, 5, 65, 127
2, 301583, Note_off_c, 10, 57, 127
2, 301586, Note_off_c, 5, 65, 127
2, 301586, Note_off_c, 8, 56, 127
2, 301588, Note_on_c, 10, 57, 127
2, 301588, Note_on_c, 6, 66, 127
2, 301746, Note_off_c, 6, 66, 127
2, 301749, Note_on_c, 10, 69, 127
2, 301907, Note_off_c, 10, 69, 127
2, 301909, Note_on_c, 1, 73, 127
2, 302067, Note_off_c, 1, 73, 127
2, 302069, Note_on_c, 1, 61, 127
2, 302069, Note_on_c, 6, 78, 127
2, 302227, Note_off_c, 1, 61, 127
2, 302229, Note_on_c, 0, 60, 127
2, 302386, Note_off_c, 10, 57, 127
2, 302387, Note_off_c, 0, 60, 127
2, 302389, Note_on_c, 8, 56, 127
2, 302389, Note_on_c, 1, 61, 127
2, 302547, Note_off_c, 1, 61, 127
2, 302547, Note_off_c, 8, 56, 127
2, 302549, Note_on_c, 6, 54, 127
2, 302549, Note_on_c, 3, 63, 127
2, 302707, Note_off_c, 3, 63, 127
2, 302709, Note_on_c, 1, 61, 127
2, 302867, Note_off_c, 1, 61, 127
2, 302869, Note_on_c, 3, 63, 127
2, 303027, Note_off_c, 3, 63, 127
2, 303027, Note_off_c, 6, 54, 127
2, 303027, Note_off_c, 6, 78, 127
2, 303029, Note_on_c, 8, 56, 127
2, 303029, Note_on_c, 5, 77, 127
2, 303189, Note_on_c, 11, 58, 127
2, 303347, Note_off_c, 11, 58, 127
2, 303349, Note_on_c, 0, 60, 127
2, 303507, Note_off_c, 0, 60, 127
2, 303507, Note_off_c, 5, 77, 127
2, 303509, Note_on_c, 1, 61, 127
2, 303509, Note_on_c, 4, 76, 127
2, 303667, Note_off_c, 1, 61, 127
2, 303669, Note_on_c, 3, 63, 127
2, 303827, Note_off_c, 3, 63, 127
2, 303829, Note_on_c, 4, 64, 127
2, 303987, Note_off_c, 4, 64, 127
2, 303987, Note_off_c, 4, 76, 127
2, 303989, Note_on_c, 6, 66, 127
2, 303989, Note_on_c, 3, 75, 127
2, 304147, Note_off_c, 6, 66, 127
2, 304149, Note_on_c, 4, 64, 127
2, 304307, Note_off_c, 4, 64, 127
2, 304309, Note_on_c, 6, 66, 127
2, 304467, Note_off_c, 6, 66, 127
2, 304467, Note_off_c, 3, 75, 127
2, 304469, Note_on_c, 3, 63, 127
2, 304469, Note_on_c, 8, 80, 127
2, 304627, Note_off_c, 3, 63, 127
2, 304629, Note_on_c, 8, 68, 127
2, 304787, Note_off_c, 8, 68, 127
2, 304789, Note_on_c, 6, 66, 127
2, 304947, Note_off_c, 6, 66, 127
2, 304947, Note_off_c, 8, 80, 127
2, 304950, Note_on_c, 4, 64, 127
2, 304950, Note_on_c, 1, 73, 127
2, 305108, Note_off_c, 4, 64, 127
2, 305108, Note_off_c, 8, 56, 127
2, 305110, Note_on_c, 6, 54, 127
2, 305110, Note_on_c, 3, 63, 127
2, 305268, Note_off_c, 3, 63, 127
2, 305268, Note_off_c, 6, 54, 127
2, 305270, Note_on_c, 8, 56, 127
2, 305270, Note_on_c, 4, 64, 127
2, 305428, Note_off_c, 4, 64, 127
2, 305428, Note_off_c, 8, 56, 127
2, 305430, Note_on_c, 10, 57, 127
2, 305430, Note_on_c, 1, 61, 127
2, 305588, Note_off_c, 1, 61, 127
2, 305588, Note_off_c, 10, 57, 127
2, 305590, Note_on_c, 8, 56, 127
2, 305590, Note_on_c, 6, 66, 127
2, 305748, Note_off_c, 6, 66, 127
2, 305748, Note_off_c, 8, 56, 127
2, 305750, Note_on_c, 10, 57, 127
2, 305750, Note_on_c, 4, 64, 127
2, 305908, Note_off_c, 4, 64, 127
2, 305908, Note_off_c, 10, 57, 127
2, 305910, Note_on_c, 3, 51, 127
2, 305910, Note_on_c, 6, 66, 127
2, 306068, Note_off_c, 3, 51, 127
2, 306068, Note_off_c, 1, 73, 127
2, 306070, Note_on_c, 4, 52, 127
2, 306070, Note_on_c, 0, 72, 127
2, 306228, Note_off_c, 0, 72, 127
2, 306228, Note_off_c, 4, 52, 127
2, 306230, Note_on_c, 6, 54, 127
2, 306230, Note_on_c, 11, 70, 127
2, 306388, Note_off_c, 11, 70, 127
2, 306388, Note_off_c, 6, 54, 127
2, 306390, Note_on_c, 8, 56, 127
2, 306390, Note_on_c, 0, 72, 127
2, 306548, Note_off_c, 0, 72, 127
2, 306548, Note_off_c, 8, 56, 127
2, 306550, Note_on_c, 11, 58, 127
2, 306550, Note_on_c, 11, 70, 127
2, 306708, Note_off_c, 11, 70, 127
2, 306708, Note_off_c, 11, 58, 127
2, 306710, Note_on_c, 0, 60, 127
2, 306710, Note_on_c, 8, 68, 127
2, 306868, Note_off_c, 8, 68, 127
2, 306868, Note_off_c, 0, 60, 127
2, 306868, Note_off_c, 6, 66, 127
2, 306870, Note_on_c, 1, 61, 127
2, 306870, Note_on_c, 5, 65, 127
2, 306870, Note_on_c, 8, 80, 127
2, 307030, Note_off_c, 1, 61, 127
2, 307032, Note_on_c, 0, 60, 127
2, 307192, Note_off_c, 0, 60, 127
2, 307194, Note_on_c, 1, 61, 127
2, 307353, Note_off_c, 8, 80, 127
2, 307353, Note_off_c, 5, 65, 127
2, 307354, Note_off_c, 1, 61, 127
2, 307355, Note_on_c, 11, 58, 127
2, 307355, Note_on_c, 4, 64, 127
2, 307355, Note_on_c, 7, 79, 127
2, 307515, Note_off_c, 11, 58, 127
2, 307517, Note_on_c, 3, 63, 127
2, 307677, Note_off_c, 3, 63, 127
2, 307679, Note_on_c, 1, 61, 127
2, 307838, Note_off_c, 7, 79, 127
2, 307838, Note_off_c, 4, 64, 127
2, 307839, Note_off_c, 1, 61, 127
2, 307840, Note_on_c, 0, 60, 127
2, 307840, Note_on_c, 3, 63, 127
2, 307840, Note_on_c, 6, 78, 127
2, 308000, Note_off_c, 0, 60, 127
2, 308002, Note_on_c, 11, 58, 127
2, 308162, Note_off_c, 11, 58, 127
2, 308164, Note_on_c, 0, 60, 127
2, 308323, Note_off_c, 6, 78, 127
2, 308323, Note_off_c, 3, 63, 127
2, 308324, Note_off_c, 0, 60, 127
2, 308325, Note_on_c, 8, 56, 127
2, 308325, Note_on_c, 8, 68, 127
2, 308325, Note_on_c, 5, 77, 127
2, 308485, Note_off_c, 8, 56, 127
2, 308487, Note_on_c, 1, 61, 127
2, 308647, Note_off_c, 1, 61, 127
2, 308649, Note_on_c, 12, 59, 127
2, 308808, Note_off_c, 5, 77, 127
2, 308808, Note_off_c, 8, 68, 127
2, 308809, Note_off_c, 12, 59, 127
2, 308811, Note_on_c, 10, 57, 127
2, 308811, Note_on_c, 1, 61, 127
2, 308811, Note_on_c, 4, 76, 127
2, 308972, Note_off_c, 10, 57, 127
2, 308974, Note_on_c, 8, 56, 127
2, 309135, Note_off_c, 8, 56, 127
2, 309137, Note_on_c, 10, 57, 127
2, 309298, Note_off_c, 10, 57, 127
2, 309299, Note_off_c, 4, 76, 127
2, 309299, Note_off_c, 1, 61, 127
2, 309301, Note_on_c, 0, 48, 127
2, 309301, Note_on_c, 6, 66, 127
2, 309301, Note_on_c, 3, 75, 127
2, 309462, Note_off_c, 0, 48, 127
2, 309464, Note_on_c, 1, 49, 127
2, 309625, Note_off_c, 1, 49, 127
2, 309626, Note_off_c, 3, 75, 127
2, 309627, Note_on_c, 3, 51, 127
2, 309627, Note_on_c, 1, 73, 127
2, 309788, Note_off_c, 1, 73, 127
2, 309788, Note_off_c, 3, 51, 127
2, 309791, Note_on_c, 4, 52, 127
2, 309791, Note_on_c, 0, 72, 127
2, 309960, Note_off_c, 4, 52, 127
2, 309962, Note_on_c, 3, 51, 127
2, 310131, Note_off_c, 3, 51, 127
2, 310132, Note_off_c, 0, 72, 127
2, 310134, Note_on_c, 4, 52, 127
2, 310134, Note_on_c, 8, 68, 127
2, 310303, Note_off_c, 8, 68, 127
2, 310303, Note_off_c, 4, 52, 127
2, 310304, Note_off_c, 6, 66, 127
2, 310305, Note_on_c, 7, 43, 127
2, 310305, Note_on_c, 4, 64, 127
2, 310305, Note_on_c, 1, 73, 127
2, 310474, Note_off_c, 7, 43, 127
2, 310477, Note_on_c, 8, 44, 127
2, 310654, Note_off_c, 4, 64, 127
2, 310655, Note_off_c, 8, 44, 127
2, 310657, Note_on_c, 10, 45, 127
2, 310657, Note_on_c, 3, 63, 127
2, 310835, Note_off_c, 3, 63, 127
2, 310835, Note_off_c, 10, 45, 127
2, 310837, Note_on_c, 8, 44, 127
2, 310837, Note_on_c, 4, 64, 127
2, 311025, Note_off_c, 4, 64, 127
2, 311026, Note_on_c, 10, 69, 127
2, 311214, Note_off_c, 10, 69, 127
2, 311216, Note_on_c, 8, 68, 127
2, 311403, Note_off_c, 1, 73, 127
2, 311404, Note_off_c, 8, 68, 127
2, 311406, Note_on_c, 6, 66, 127
2, 311406, Note_on_c, 0, 72, 127
2, 311622, Note_off_c, 6, 66, 127
2, 311624, Note_on_c, 4, 64, 127
2, 311840, Note_off_c, 4, 64, 127
2, 311845, Note_on_c, 3, 63, 127
2, 312057, Note_off_c, 0, 72, 127
2, 312058, Note_off_c, 8, 44, 127
2, 312061, Note_off_c, 3, 63, 127
2, 312075, Note_on_c, 1, 73, 127
2, 312075, Note_on_c, 5, 65, 127
2, 312075, Note_on_c, 1, 37, 127
2, 314678, Note_off_c, 1, 37, 127
2, 314678, Note_off_c, 5, 65, 127
2, 314678, Note_off_c, 1, 73, 127
2, 319488, End_track
3, 0, Start_track
3, 0, Title_t, "MIDI"
3, 1536, End_track
0, 0, End_of_file
