0, 0, Header, 1, 4, 240
1, 0, Start_track
1, 0, Title_t, "untitled"
1, 0, SMPTE_offset, 96, 0, 3, 0, 0
1, 0, Time_signature, 1, 3, 12, 8
1, 0, Key_signature, 0, "major"
1, 0, Tempo, 416667
1, 120, Time_signature, 3, 1, 48, 8
1, 11640, Time_signature, 1, 3, 12, 8
1, 11760, Time_signature, 3, 1, 48, 8
1, 23280, Time_signature, 1, 3, 12, 8
1, 23400, Time_signature, 3, 1, 48, 8
1, 46440, Time_signature, 1, 3, 12, 8
1, 46560, Time_signature, 3, 1, 48, 8
1, 46560, End_track
2, 0, Start_track
2, 0, MIDI_port, 0
2, 0, Title_t, "English Suite 1, 5. Double 1"
2, 0, Program_c, 0, 0
2, 0, Control_c, 0, 7, 100
2, 0, Control_c, 0, 10, 64
2, 0, Note_on_c, 0, 69, 107
2, 96, Note_on_c, 0, 69, 0
2, 120, Note_on_c, 0, 69, 107
2, 240, Note_on_c, 0, 64, 107
2, 360, Note_on_c, 0, 61, 107
2, 696, Note_on_c, 0, 69, 0
2, 744, Note_on_c, 0, 61, 0
2, 744, Note_on_c, 0, 64, 0
2, 840, Note_on_c, 0, 64, 107
2, 1032, Note_on_c, 0, 64, 0
2, 1080, Note_on_c, 0, 66, 107
2, 1104, Note_on_c, 0, 66, 0
2, 1110, Note_on_c, 0, 65, 107
2, 1134, Note_on_c, 0, 65, 0
2, 1140, Note_on_c, 0, 66, 107
2, 1200, Note_on_c, 0, 66, 107
2, 1440, Note_on_c, 0, 67, 107
2, 1488, Note_on_c, 0, 66, 0
2, 1488, Note_on_c, 0, 66, 0
2, 1536, Note_on_c, 0, 67, 0
2, 1560, Note_on_c, 0, 66, 107
2, 1608, Note_on_c, 0, 66, 0
2, 1620, Note_on_c, 0, 62, 107
2, 1668, Note_on_c, 0, 62, 0
2, 1680, Note_on_c, 0, 64, 107
2, 1728, Note_on_c, 0, 64, 0
2, 1740, Note_on_c, 0, 66, 107
2, 1788, Note_on_c, 0, 66, 0
2, 1800, Note_on_c, 0, 68, 107
2, 1848, Note_on_c, 0, 68, 0
2, 1860, Note_on_c, 0, 69, 107
2, 1908, Note_on_c, 0, 69, 0
2, 1920, Note_on_c, 0, 71, 107
2, 1968, Note_on_c, 0, 71, 0
2, 1980, Note_on_c, 0, 73, 107
2, 2028, Note_on_c, 0, 73, 0
2, 2040, Note_on_c, 0, 74, 107
2, 2160, Note_on_c, 0, 71, 107
2, 2256, Note_on_c, 0, 71, 0
2, 2280, Note_on_c, 0, 68, 107
2, 2328, Note_on_c, 0, 74, 0
2, 2400, Note_on_c, 0, 76, 107
2, 2472, Note_on_c, 0, 68, 0
2, 2496, Note_on_c, 0, 76, 0
2, 2520, Note_on_c, 0, 73, 107
2, 2544, Note_on_c, 0, 73, 0
2, 2550, Note_on_c, 0, 74, 107
2, 2574, Note_on_c, 0, 74, 0
2, 2580, Note_on_c, 0, 73, 107
2, 2640, Note_on_c, 0, 71, 107
2, 2736, Note_on_c, 0, 71, 0
2, 2760, Note_on_c, 0, 69, 107
2, 2832, Note_on_c, 0, 73, 0
2, 2880, Note_on_c, 0, 74, 107
2, 2952, Note_on_c, 0, 69, 0
2, 2976, Note_on_c, 0, 74, 0
2, 3000, Note_on_c, 0, 71, 107
2, 3120, Note_on_c, 0, 68, 107
2, 3240, Note_on_c, 0, 64, 107
2, 3576, Note_on_c, 0, 71, 0
2, 3624, Note_on_c, 0, 64, 0
2, 3624, Note_on_c, 0, 68, 0
2, 3720, Note_on_c, 0, 64, 107
2, 3750, Note_on_c, 0, 71, 107
2, 3780, Note_on_c, 0, 76, 107
2, 3876, Note_on_c, 0, 76, 0
2, 3876, Note_on_c, 0, 71, 0
2, 3912, Note_on_c, 0, 64, 0
2, 3960, Note_on_c, 0, 71, 107
2, 3960, Note_on_c, 0, 74, 107
2, 3984, Note_on_c, 0, 74, 0
2, 3990, Note_on_c, 0, 73, 107
2, 4014, Note_on_c, 0, 73, 0
2, 4020, Note_on_c, 0, 74, 107
2, 4320, Note_on_c, 0, 76, 107
2, 4344, Note_on_c, 0, 71, 0
2, 4368, Note_on_c, 0, 74, 0
2, 4440, Note_on_c, 0, 74, 107
2, 4464, Note_on_c, 0, 76, 0
2, 4536, Note_on_c, 0, 74, 0
2, 4560, Note_on_c, 0, 73, 107
2, 4656, Note_on_c, 0, 73, 0
2, 4680, Note_on_c, 0, 71, 107
2, 4776, Note_on_c, 0, 71, 0
2, 4800, Note_on_c, 0, 69, 107
2, 4896, Note_on_c, 0, 69, 0
2, 4920, Note_on_c, 0, 68, 107
2, 5016, Note_on_c, 0, 68, 0
2, 5040, Note_on_c, 0, 66, 107
2, 5136, Note_on_c, 0, 66, 0
2, 5160, Note_on_c, 0, 78, 107
2, 5352, Note_on_c, 0, 78, 0
2, 5400, Note_on_c, 0, 78, 107
2, 5424, Note_on_c, 0, 78, 0
2, 5430, Note_on_c, 0, 76, 107
2, 5454, Note_on_c, 0, 76, 0
2, 5460, Note_on_c, 0, 74, 107
2, 5484, Note_on_c, 0, 74, 0
2, 5490, Note_on_c, 0, 76, 107
2, 5514, Note_on_c, 0, 76, 0
2, 5520, Note_on_c, 0, 78, 107
2, 5544, Note_on_c, 0, 78, 0
2, 5550, Note_on_c, 0, 76, 107
2, 5574, Note_on_c, 0, 76, 0
2, 5580, Note_on_c, 0, 78, 107
2, 5604, Note_on_c, 0, 78, 0
2, 5610, Note_on_c, 0, 76, 107
2, 5634, Note_on_c, 0, 76, 0
2, 5640, Note_on_c, 0, 78, 107
2, 5664, Note_on_c, 0, 78, 0
2, 5670, Note_on_c, 0, 76, 107
2, 5694, Note_on_c, 0, 76, 0
2, 5700, Note_on_c, 0, 74, 107
2, 5724, Note_on_c, 0, 74, 0
2, 5730, Note_on_c, 0, 76, 107
2, 5754, Note_on_c, 0, 76, 0
2, 5760, Note_on_c, 0, 78, 107
2, 5856, Note_on_c, 0, 78, 0
2, 5880, Note_on_c, 0, 76, 107
2, 5976, Note_on_c, 0, 76, 0
2, 6000, Note_on_c, 0, 75, 107
2, 6096, Note_on_c, 0, 75, 0
2, 6120, Note_on_c, 0, 73, 107
2, 6216, Note_on_c, 0, 73, 0
2, 6240, Note_on_c, 0, 71, 107
2, 6336, Note_on_c, 0, 71, 0
2, 6360, Note_on_c, 0, 69, 107
2, 6456, Note_on_c, 0, 69, 0
2, 6480, Note_on_c, 0, 68, 107
2, 6576, Note_on_c, 0, 68, 0
2, 6600, Note_on_c, 0, 83, 107
2, 6792, Note_on_c, 0, 83, 0
2, 6840, Note_on_c, 0, 81, 107
2, 6864, Note_on_c, 0, 81, 0
2, 6870, Note_on_c, 0, 80, 107
2, 6894, Note_on_c, 0, 80, 0
2, 6900, Note_on_c, 0, 81, 107
2, 7200, Note_on_c, 0, 83, 107
2, 7248, Note_on_c, 0, 81, 0
2, 7296, Note_on_c, 0, 83, 0
2, 7320, Note_on_c, 0, 80, 107
2, 7416, Note_on_c, 0, 80, 0
2, 7440, Note_on_c, 0, 78, 107
2, 7536, Note_on_c, 0, 78, 0
2, 7560, Note_on_c, 0, 80, 107
2, 7656, Note_on_c, 0, 80, 0
2, 7680, Note_on_c, 0, 81, 107
2, 7776, Note_on_c, 0, 81, 0
2, 7800, Note_on_c, 0, 83, 107
2, 7896, Note_on_c, 0, 83, 0
2, 7920, Note_on_c, 0, 80, 107
2, 8016, Note_on_c, 0, 80, 0
2, 8040, Note_on_c, 0, 81, 107
2, 8136, Note_on_c, 0, 81, 0
2, 8160, Note_on_c, 0, 83, 107
2, 8256, Note_on_c, 0, 83, 0
2, 8280, Note_on_c, 0, 73, 107
2, 8304, Note_on_c, 0, 73, 0
2, 8310, Note_on_c, 0, 74, 107
2, 8334, Note_on_c, 0, 74, 0
2, 8340, Note_on_c, 0, 73, 107
2, 8388, Note_on_c, 0, 73, 0
2, 8400, Note_on_c, 0, 71, 107
2, 8496, Note_on_c, 0, 71, 0
2, 8520, Note_on_c, 0, 73, 107
2, 8616, Note_on_c, 0, 73, 0
2, 8640, Note_on_c, 0, 81, 107
2, 8736, Note_on_c, 0, 81, 0
2, 8760, Note_on_c, 0, 75, 107
2, 8856, Note_on_c, 0, 75, 0
2, 8880, Note_on_c, 0, 73, 107
2, 8976, Note_on_c, 0, 73, 0
2, 9000, Note_on_c, 0, 75, 107
2, 9096, Note_on_c, 0, 75, 0
2, 9120, Note_on_c, 0, 76, 107
2, 9216, Note_on_c, 0, 76, 0
2, 9240, Note_on_c, 0, 78, 107
2, 9336, Note_on_c, 0, 78, 0
2, 9360, Note_on_c, 0, 69, 107
2, 9456, Note_on_c, 0, 69, 0
2, 9480, Note_on_c, 0, 68, 107
2, 9576, Note_on_c, 0, 68, 0
2, 9600, Note_on_c, 0, 76, 107
2, 9696, Note_on_c, 0, 76, 0
2, 9720, Note_on_c, 0, 66, 107
2, 9840, Note_on_c, 0, 69, 107
2, 9960, Note_on_c, 0, 76, 107
2, 10032, Note_on_c, 0, 69, 0
2, 10056, Note_on_c, 0, 76, 0
2, 10080, Note_on_c, 0, 75, 107
2, 10104, Note_on_c, 0, 66, 0
2, 10176, Note_on_c, 0, 75, 0
2, 10200, Note_on_c, 0, 76, 107
2, 10320, Note_on_c, 0, 71, 107
2, 10440, Note_on_c, 0, 68, 107
2, 10560, Note_on_c, 0, 63, 107
2, 10656, Note_on_c, 0, 63, 0
2, 10680, Note_on_c, 0, 64, 107
2, 11304, Note_on_c, 0, 64, 0
2, 11304, Note_on_c, 0, 68, 0
2, 11304, Note_on_c, 0, 76, 0
2, 11400, Note_on_c, 0, 71, 0
2, 11640, Note_on_c, 0, 69, 107
2, 11736, Note_on_c, 0, 69, 0
2, 11760, Note_on_c, 0, 69, 107
2, 11880, Note_on_c, 0, 64, 107
2, 12000, Note_on_c, 0, 61, 107
2, 12336, Note_on_c, 0, 69, 0
2, 12384, Note_on_c, 0, 61, 0
2, 12384, Note_on_c, 0, 64, 0
2, 12480, Note_on_c, 0, 64, 107
2, 12672, Note_on_c, 0, 64, 0
2, 12720, Note_on_c, 0, 66, 107
2, 12744, Note_on_c, 0, 66, 0
2, 12750, Note_on_c, 0, 65, 107
2, 12774, Note_on_c, 0, 65, 0
2, 12780, Note_on_c, 0, 66, 107
2, 12840, Note_on_c, 0, 66, 107
2, 13080, Note_on_c, 0, 67, 107
2, 13128, Note_on_c, 0, 66, 0
2, 13128, Note_on_c, 0, 66, 0
2, 13176, Note_on_c, 0, 67, 0
2, 13200, Note_on_c, 0, 66, 107
2, 13248, Note_on_c, 0, 66, 0
2, 13260, Note_on_c, 0, 62, 107
2, 13308, Note_on_c, 0, 62, 0
2, 13320, Note_on_c, 0, 64, 107
2, 13368, Note_on_c, 0, 64, 0
2, 13380, Note_on_c, 0, 66, 107
2, 13428, Note_on_c, 0, 66, 0
2, 13440, Note_on_c, 0, 68, 107
2, 13488, Note_on_c, 0, 68, 0
2, 13500, Note_on_c, 0, 69, 107
2, 13548, Note_on_c, 0, 69, 0
2, 13560, Note_on_c, 0, 71, 107
2, 13608, Note_on_c, 0, 71, 0
2, 13620, Note_on_c, 0, 73, 107
2, 13668, Note_on_c, 0, 73, 0
2, 13680, Note_on_c, 0, 74, 107
2, 13800, Note_on_c, 0, 71, 107
2, 13896, Note_on_c, 0, 71, 0
2, 13920, Note_on_c, 0, 68, 107
2, 13968, Note_on_c, 0, 74, 0
2, 14040, Note_on_c, 0, 76, 107
2, 14112, Note_on_c, 0, 68, 0
2, 14136, Note_on_c, 0, 76, 0
2, 14160, Note_on_c, 0, 73, 107
2, 14184, Note_on_c, 0, 73, 0
2, 14190, Note_on_c, 0, 74, 107
2, 14214, Note_on_c, 0, 74, 0
2, 14220, Note_on_c, 0, 73, 107
2, 14280, Note_on_c, 0, 71, 107
2, 14376, Note_on_c, 0, 71, 0
2, 14400, Note_on_c, 0, 69, 107
2, 14472, Note_on_c, 0, 73, 0
2, 14520, Note_on_c, 0, 74, 107
2, 14592, Note_on_c, 0, 69, 0
2, 14616, Note_on_c, 0, 74, 0
2, 14640, Note_on_c, 0, 71, 107
2, 14760, Note_on_c, 0, 68, 107
2, 14880, Note_on_c, 0, 64, 107
2, 15216, Note_on_c, 0, 71, 0
2, 15264, Note_on_c, 0, 64, 0
2, 15264, Note_on_c, 0, 68, 0
2, 15360, Note_on_c, 0, 64, 107
2, 15390, Note_on_c, 0, 71, 107
2, 15420, Note_on_c, 0, 76, 107
2, 15516, Note_on_c, 0, 76, 0
2, 15516, Note_on_c, 0, 71, 0
2, 15552, Note_on_c, 0, 64, 0
2, 15600, Note_on_c, 0, 71, 107
2, 15600, Note_on_c, 0, 74, 107
2, 15624, Note_on_c, 0, 74, 0
2, 15630, Note_on_c, 0, 73, 107
2, 15654, Note_on_c, 0, 73, 0
2, 15660, Note_on_c, 0, 74, 107
2, 15960, Note_on_c, 0, 76, 107
2, 15984, Note_on_c, 0, 71, 0
2, 16008, Note_on_c, 0, 74, 0
2, 16080, Note_on_c, 0, 74, 107
2, 16104, Note_on_c, 0, 76, 0
2, 16176, Note_on_c, 0, 74, 0
2, 16200, Note_on_c, 0, 73, 107
2, 16296, Note_on_c, 0, 73, 0
2, 16320, Note_on_c, 0, 71, 107
2, 16416, Note_on_c, 0, 71, 0
2, 16440, Note_on_c, 0, 69, 107
2, 16536, Note_on_c, 0, 69, 0
2, 16560, Note_on_c, 0, 68, 107
2, 16656, Note_on_c, 0, 68, 0
2, 16680, Note_on_c, 0, 66, 107
2, 16776, Note_on_c, 0, 66, 0
2, 16800, Note_on_c, 0, 78, 107
2, 16992, Note_on_c, 0, 78, 0
2, 17040, Note_on_c, 0, 78, 107
2, 17064, Note_on_c, 0, 78, 0
2, 17070, Note_on_c, 0, 76, 107
2, 17094, Note_on_c, 0, 76, 0
2, 17100, Note_on_c, 0, 74, 107
2, 17124, Note_on_c, 0, 74, 0
2, 17130, Note_on_c, 0, 76, 107
2, 17154, Note_on_c, 0, 76, 0
2, 17160, Note_on_c, 0, 78, 107
2, 17184, Note_on_c, 0, 78, 0
2, 17190, Note_on_c, 0, 76, 107
2, 17214, Note_on_c, 0, 76, 0
2, 17220, Note_on_c, 0, 78, 107
2, 17244, Note_on_c, 0, 78, 0
2, 17250, Note_on_c, 0, 76, 107
2, 17274, Note_on_c, 0, 76, 0
2, 17280, Note_on_c, 0, 78, 107
2, 17304, Note_on_c, 0, 78, 0
2, 17310, Note_on_c, 0, 76, 107
2, 17334, Note_on_c, 0, 76, 0
2, 17340, Note_on_c, 0, 74, 107
2, 17364, Note_on_c, 0, 74, 0
2, 17370, Note_on_c, 0, 76, 107
2, 17394, Note_on_c, 0, 76, 0
2, 17400, Note_on_c, 0, 78, 107
2, 17496, Note_on_c, 0, 78, 0
2, 17520, Note_on_c, 0, 76, 107
2, 17616, Note_on_c, 0, 76, 0
2, 17640, Note_on_c, 0, 75, 107
2, 17736, Note_on_c, 0, 75, 0
2, 17760, Note_on_c, 0, 73, 107
2, 17856, Note_on_c, 0, 73, 0
2, 17880, Note_on_c, 0, 71, 107
2, 17976, Note_on_c, 0, 71, 0
2, 18000, Note_on_c, 0, 69, 107
2, 18096, Note_on_c, 0, 69, 0
2, 18120, Note_on_c, 0, 68, 107
2, 18216, Note_on_c, 0, 68, 0
2, 18240, Note_on_c, 0, 83, 107
2, 18432, Note_on_c, 0, 83, 0
2, 18480, Note_on_c, 0, 81, 107
2, 18504, Note_on_c, 0, 81, 0
2, 18510, Note_on_c, 0, 80, 107
2, 18534, Note_on_c, 0, 80, 0
2, 18540, Note_on_c, 0, 81, 107
2, 18840, Note_on_c, 0, 83, 107
2, 18888, Note_on_c, 0, 81, 0
2, 18936, Note_on_c, 0, 83, 0
2, 18960, Note_on_c, 0, 80, 107
2, 19056, Note_on_c, 0, 80, 0
2, 19080, Note_on_c, 0, 78, 107
2, 19176, Note_on_c, 0, 78, 0
2, 19200, Note_on_c, 0, 80, 107
2, 19296, Note_on_c, 0, 80, 0
2, 19320, Note_on_c, 0, 81, 107
2, 19416, Note_on_c, 0, 81, 0
2, 19440, Note_on_c, 0, 83, 107
2, 19536, Note_on_c, 0, 83, 0
2, 19560, Note_on_c, 0, 80, 107
2, 19656, Note_on_c, 0, 80, 0
2, 19680, Note_on_c, 0, 81, 107
2, 19776, Note_on_c, 0, 81, 0
2, 19800, Note_on_c, 0, 83, 107
2, 19896, Note_on_c, 0, 83, 0
2, 19920, Note_on_c, 0, 73, 107
2, 19944, Note_on_c, 0, 73, 0
2, 19950, Note_on_c, 0, 74, 107
2, 19974, Note_on_c, 0, 74, 0
2, 19980, Note_on_c, 0, 73, 107
2, 20028, Note_on_c, 0, 73, 0
2, 20040, Note_on_c, 0, 71, 107
2, 20136, Note_on_c, 0, 71, 0
2, 20160, Note_on_c, 0, 73, 107
2, 20256, Note_on_c, 0, 73, 0
2, 20280, Note_on_c, 0, 81, 107
2, 20376, Note_on_c, 0, 81, 0
2, 20400, Note_on_c, 0, 75, 107
2, 20496, Note_on_c, 0, 75, 0
2, 20520, Note_on_c, 0, 73, 107
2, 20616, Note_on_c, 0, 73, 0
2, 20640, Note_on_c, 0, 75, 107
2, 20736, Note_on_c, 0, 75, 0
2, 20760, Note_on_c, 0, 76, 107
2, 20856, Note_on_c, 0, 76, 0
2, 20880, Note_on_c, 0, 78, 107
2, 20976, Note_on_c, 0, 78, 0
2, 21000, Note_on_c, 0, 69, 107
2, 21096, Note_on_c, 0, 69, 0
2, 21120, Note_on_c, 0, 68, 107
2, 21216, Note_on_c, 0, 68, 0
2, 21240, Note_on_c, 0, 76, 107
2, 21336, Note_on_c, 0, 76, 0
2, 21360, Note_on_c, 0, 66, 107
2, 21480, Note_on_c, 0, 69, 107
2, 21600, Note_on_c, 0, 76, 107
2, 21672, Note_on_c, 0, 69, 0
2, 21696, Note_on_c, 0, 76, 0
2, 21720, Note_on_c, 0, 75, 107
2, 21744, Note_on_c, 0, 66, 0
2, 21816, Note_on_c, 0, 75, 0
2, 21840, Note_on_c, 0, 76, 107
2, 21960, Note_on_c, 0, 71, 107
2, 22080, Note_on_c, 0, 68, 107
2, 22200, Note_on_c, 0, 63, 107
2, 22296, Note_on_c, 0, 63, 0
2, 22320, Note_on_c, 0, 64, 107
2, 22944, Note_on_c, 0, 64, 0
2, 22944, Note_on_c, 0, 68, 0
2, 22944, Note_on_c, 0, 76, 0
2, 23040, Note_on_c, 0, 71, 0
2, 23280, Note_on_c, 0, 71, 107
2, 23400, Note_on_c, 0, 71, 0
2, 23400, Note_on_c, 0, 71, 107
2, 23520, Note_on_c, 0, 68, 107
2, 23640, Note_on_c, 0, 64, 107
2, 23976, Note_on_c, 0, 71, 0
2, 24024, Note_on_c, 0, 64, 0
2, 24024, Note_on_c, 0, 68, 0
2, 24120, Note_on_c, 0, 64, 107
2, 24120, Note_on_c, 0, 68, 107
2, 24312, Note_on_c, 0, 68, 0
2, 24312, Note_on_c, 0, 64, 0
2, 24360, Note_on_c, 0, 66, 107
2, 24360, Note_on_c, 0, 69, 107
2, 24384, Note_on_c, 0, 69, 0
2, 24390, Note_on_c, 0, 68, 107
2, 24414, Note_on_c, 0, 68, 0
2, 24420, Note_on_c, 0, 69, 107
2, 24648, Note_on_c, 0, 66, 0
2, 24720, Note_on_c, 0, 68, 107
2, 24720, Note_on_c, 0, 71, 107
2, 24768, Note_on_c, 0, 69, 0
2, 24816, Note_on_c, 0, 71, 0
2, 24816, Note_on_c, 0, 68, 0
2, 24840, Note_on_c, 0, 69, 107
2, 24840, Note_on_c, 0, 73, 107
2, 24936, Note_on_c, 0, 73, 0
2, 24953, Note_on_c, 0, 69, 0
2, 24960, Note_on_c, 0, 71, 107
2, 25008, Note_on_c, 0, 71, 0
2, 25020, Note_on_c, 0, 69, 107
2, 25068, Note_on_c, 0, 69, 0
2, 25080, Note_on_c, 0, 71, 107
2, 25128, Note_on_c, 0, 71, 0
2, 25140, Note_on_c, 0, 73, 107
2, 25188, Note_on_c, 0, 73, 0
2, 25200, Note_on_c, 0, 74, 107
2, 25248, Note_on_c, 0, 74, 0
2, 25260, Note_on_c, 0, 76, 107
2, 25308, Note_on_c, 0, 76, 0
2, 25320, Note_on_c, 0, 78, 107
2, 25440, Note_on_c, 0, 74, 107
2, 25553, Note_on_c, 0, 74, 0
2, 25560, Note_on_c, 0, 71, 107
2, 25608, Note_on_c, 0, 78, 0
2, 25680, Note_on_c, 0, 79, 107
2, 25776, Note_on_c, 0, 79, 0
2, 25800, Note_on_c, 0, 78, 107
2, 25896, Note_on_c, 0, 78, 0
2, 25920, Note_on_c, 0, 76, 107
2, 26010, Note_on_c, 0, 71, 0
2, 26016, Note_on_c, 0, 76, 0
2, 26040, Note_on_c, 0, 74, 107
2, 26040, Note_on_c, 0, 70, 107
2, 26136, Note_on_c, 0, 74, 0
2, 26160, Note_on_c, 0, 73, 107
2, 26232, Note_on_c, 0, 70, 0
2, 26256, Note_on_c, 0, 73, 0
2, 26280, Note_on_c, 0, 74, 107
2, 26400, Note_on_c, 0, 71, 107
2, 26520, Note_on_c, 0, 66, 107
2, 26664, Note_on_c, 0, 74, 0
2, 26904, Note_on_c, 0, 66, 0
2, 27000, Note_on_c, 0, 71, 107
2, 27030, Note_on_c, 0, 78, 107
2, 27060, Note_on_c, 0, 83, 107
2, 27096, Note_on_c, 0, 71, 0
2, 27156, Note_on_c, 0, 83, 0
2, 27192, Note_on_c, 0, 71, 0
2, 27204, Note_on_c, 0, 78, 0
2, 27240, Note_on_c, 0, 83, 107
2, 27240, Note_on_c, 0, 78, 107
2, 27264, Note_on_c, 0, 83, 0
2, 27270, Note_on_c, 0, 81, 107
2, 27294, Note_on_c, 0, 81, 0
2, 27300, Note_on_c, 0, 80, 107
2, 27324, Note_on_c, 0, 80, 0
2, 27330, Note_on_c, 0, 81, 107
2, 27354, Note_on_c, 0, 81, 0
2, 27360, Note_on_c, 0, 83, 107
2, 27384, Note_on_c, 0, 83, 0
2, 27390, Note_on_c, 0, 81, 107
2, 27414, Note_on_c, 0, 81, 0
2, 27420, Note_on_c, 0, 83, 107
2, 27444, Note_on_c, 0, 83, 0
2, 27450, Note_on_c, 0, 81, 107
2, 27474, Note_on_c, 0, 81, 0
2, 27480, Note_on_c, 0, 83, 107
2, 27504, Note_on_c, 0, 83, 0
2, 27510, Note_on_c, 0, 81, 107
2, 27534, Note_on_c, 0, 81, 0
2, 27540, Note_on_c, 0, 80, 107
2, 27564, Note_on_c, 0, 80, 0
2, 27570, Note_on_c, 0, 81, 107
2, 27594, Note_on_c, 0, 81, 0
2, 27600, Note_on_c, 0, 83, 107
2, 27624, Note_on_c, 0, 78, 0
2, 27696, Note_on_c, 0, 83, 0
2, 27720, Note_on_c, 0, 81, 107
2, 27816, Note_on_c, 0, 81, 0
2, 27840, Note_on_c, 0, 79, 107
2, 27936, Note_on_c, 0, 79, 0
2, 27960, Note_on_c, 0, 78, 107
2, 28056, Note_on_c, 0, 78, 0
2, 28080, Note_on_c, 0, 76, 107
2, 28176, Note_on_c, 0, 76, 0
2, 28200, Note_on_c, 0, 74, 107
2, 28296, Note_on_c, 0, 74, 0
2, 28320, Note_on_c, 0, 73, 107
2, 28416, Note_on_c, 0, 73, 0
2, 28440, Note_on_c, 0, 71, 107
2, 28536, Note_on_c, 0, 71, 0
2, 28560, Note_on_c, 0, 73, 107
2, 28656, Note_on_c, 0, 73, 0
2, 28680, Note_on_c, 0, 74, 107
2, 28776, Note_on_c, 0, 74, 0
2, 28800, Note_on_c, 0, 78, 107
2, 28896, Note_on_c, 0, 78, 0
2, 28920, Note_on_c, 0, 76, 107
2, 29016, Note_on_c, 0, 76, 0
2, 29040, Note_on_c, 0, 74, 107
2, 29136, Note_on_c, 0, 74, 0
2, 29160, Note_on_c, 0, 73, 107
2, 29184, Note_on_c, 0, 73, 0
2, 29190, Note_on_c, 0, 74, 107
2, 29214, Note_on_c, 0, 74, 0
2, 29220, Note_on_c, 0, 73, 107
2, 29277, Note_on_c, 0, 73, 0
2, 29280, Note_on_c, 0, 71, 107
2, 29376, Note_on_c, 0, 71, 0
2, 29400, Note_on_c, 0, 69, 107
2, 29496, Note_on_c, 0, 69, 0
2, 29520, Note_on_c, 0, 71, 107
2, 29616, Note_on_c, 0, 71, 0
2, 29640, Note_on_c, 0, 73, 107
2, 29736, Note_on_c, 0, 73, 0
2, 29760, Note_on_c, 0, 74, 107
2, 29856, Note_on_c, 0, 74, 0
2, 29880, Note_on_c, 0, 76, 107
2, 29976, Note_on_c, 0, 76, 0
2, 30000, Note_on_c, 0, 78, 107
2, 30096, Note_on_c, 0, 78, 0
2, 30120, Note_on_c, 0, 79, 107
2, 30216, Note_on_c, 0, 79, 0
2, 30240, Note_on_c, 0, 83, 107
2, 30336, Note_on_c, 0, 83, 0
2, 30360, Note_on_c, 0, 81, 107
2, 30456, Note_on_c, 0, 81, 0
2, 30480, Note_on_c, 0, 79, 107
2, 30576, Note_on_c, 0, 79, 0
2, 30600, Note_on_c, 0, 78, 107
2, 30696, Note_on_c, 0, 78, 0
2, 30720, Note_on_c, 0, 79, 107
2, 30816, Note_on_c, 0, 79, 0
2, 30840, Note_on_c, 0, 78, 107
2, 30936, Note_on_c, 0, 78, 0
2, 30960, Note_on_c, 0, 76, 107
2, 31056, Note_on_c, 0, 76, 0
2, 31080, Note_on_c, 0, 74, 107
2, 31176, Note_on_c, 0, 74, 0
2, 31200, Note_on_c, 0, 73, 107
2, 31296, Note_on_c, 0, 73, 0
2, 31320, Note_on_c, 0, 71, 107
2, 31416, Note_on_c, 0, 71, 0
2, 31440, Note_on_c, 0, 76, 107
2, 31536, Note_on_c, 0, 76, 0
2, 31560, Note_on_c, 0, 73, 107
2, 31584, Note_on_c, 0, 73, 0
2, 31590, Note_on_c, 0, 74, 107
2, 31614, Note_on_c, 0, 74, 0
2, 31620, Note_on_c, 0, 73, 107
2, 31872, Note_on_c, 0, 73, 0
2, 31920, Note_on_c, 0, 74, 107
2, 32016, Note_on_c, 0, 74, 0
2, 32040, Note_on_c, 0, 74, 107
2, 32160, Note_on_c, 0, 69, 107
2, 32280, Note_on_c, 0, 66, 107
2, 32616, Note_on_c, 0, 74, 0
2, 32664, Note_on_c, 0, 66, 0
2, 32664, Note_on_c, 0, 69, 0
2, 32760, Note_on_c, 0, 78, 107
2, 32808, Note_on_c, 0, 78, 0
2, 32820, Note_on_c, 0, 79, 107
2, 32868, Note_on_c, 0, 79, 0
2, 32880, Note_on_c, 0, 81, 107
2, 32993, Note_on_c, 0, 81, 0
2, 33000, Note_on_c, 0, 79, 107
2, 33024, Note_on_c, 0, 79, 0
2, 33030, Note_on_c, 0, 78, 107
2, 33054, Note_on_c, 0, 78, 0
2, 33060, Note_on_c, 0, 79, 107
2, 33360, Note_on_c, 0, 78, 107
2, 33408, Note_on_c, 0, 79, 0
2, 33456, Note_on_c, 0, 78, 0
2, 33480, Note_on_c, 0, 78, 107
2, 33576, Note_on_c, 0, 78, 0
2, 33600, Note_on_c, 0, 76, 107
2, 33696, Note_on_c, 0, 76, 0
2, 33720, Note_on_c, 0, 74, 107
2, 33816, Note_on_c, 0, 74, 0
2, 33840, Note_on_c, 0, 73, 107
2, 33936, Note_on_c, 0, 73, 0
2, 33960, Note_on_c, 0, 74, 107
2, 34056, Note_on_c, 0, 74, 0
2, 34080, Note_on_c, 0, 73, 107
2, 34176, Note_on_c, 0, 73, 0
2, 34200, Note_on_c, 0, 71, 107
2, 34296, Note_on_c, 0, 71, 0
2, 34320, Note_on_c, 0, 70, 107
2, 34416, Note_on_c, 0, 70, 0
2, 34440, Note_on_c, 0, 71, 107
2, 34536, Note_on_c, 0, 71, 0
2, 34560, Note_on_c, 0, 70, 107
2, 34656, Note_on_c, 0, 70, 0
2, 34680, Note_on_c, 0, 71, 107
2, 34776, Note_on_c, 0, 71, 0
2, 34800, Note_on_c, 0, 73, 107
2, 34896, Note_on_c, 0, 73, 0
2, 34920, Note_on_c, 0, 70, 107
2, 35016, Note_on_c, 0, 70, 0
2, 35040, Note_on_c, 0, 68, 107
2, 35136, Note_on_c, 0, 68, 0
2, 35160, Note_on_c, 0, 66, 107
2, 35256, Note_on_c, 0, 66, 0
2, 35280, Note_on_c, 0, 68, 107
2, 35376, Note_on_c, 0, 68, 0
2, 35400, Note_on_c, 0, 70, 107
2, 35496, Note_on_c, 0, 70, 0
2, 35520, Note_on_c, 0, 71, 107
2, 35616, Note_on_c, 0, 71, 0
2, 35640, Note_on_c, 0, 73, 107
2, 35736, Note_on_c, 0, 73, 0
2, 35760, Note_on_c, 0, 74, 107
2, 35856, Note_on_c, 0, 74, 0
2, 35880, Note_on_c, 0, 76, 107
2, 35976, Note_on_c, 0, 76, 0
2, 36000, Note_on_c, 0, 79, 107
2, 36096, Note_on_c, 0, 79, 0
2, 36120, Note_on_c, 0, 78, 107
2, 36216, Note_on_c, 0, 78, 0
2, 36240, Note_on_c, 0, 76, 107
2, 36336, Note_on_c, 0, 76, 0
2, 36360, Note_on_c, 0, 74, 107
2, 36456, Note_on_c, 0, 74, 0
2, 36480, Note_on_c, 0, 76, 107
2, 36576, Note_on_c, 0, 76, 0
2, 36600, Note_on_c, 0, 74, 107
2, 36696, Note_on_c, 0, 74, 0
2, 36720, Note_on_c, 0, 73, 107
2, 36816, Note_on_c, 0, 73, 0
2, 36840, Note_on_c, 0, 71, 107
2, 36936, Note_on_c, 0, 71, 0
2, 36960, Note_on_c, 0, 70, 107
2, 37056, Note_on_c, 0, 70, 0
2, 37080, Note_on_c, 0, 71, 107
2, 37176, Note_on_c, 0, 71, 0
2, 37200, Note_on_c, 0, 73, 107
2, 37296, Note_on_c, 0, 73, 0
2, 37320, Note_on_c, 0, 73, 107
2, 37320, Note_on_c, 0, 70, 107
2, 37344, Note_on_c, 0, 73, 0
2, 37350, Note_on_c, 0, 74, 107
2, 37374, Note_on_c, 0, 74, 0
2, 37380, Note_on_c, 0, 73, 107
2, 37680, Note_on_c, 0, 71, 107
2, 37704, Note_on_c, 0, 70, 0
2, 37728, Note_on_c, 0, 73, 0
2, 37776, Note_on_c, 0, 71, 0
2, 37800, Note_on_c, 0, 71, 107
2, 37920, Note_on_c, 0, 66, 107
2, 38040, Note_on_c, 0, 62, 107
2, 38376, Note_on_c, 0, 71, 0
2, 38424, Note_on_c, 0, 62, 0
2, 38424, Note_on_c, 0, 66, 0
2, 38520, Note_on_c, 0, 71, 107
2, 38712, Note_on_c, 0, 71, 0
2, 38730, Note_on_c, 0, 73, 107
2, 38730, Note_on_c, 0, 74, 107
2, 38745, Note_on_c, 0, 74, 0
2, 38745, Note_on_c, 0, 73, 0
2, 38760, Note_on_c, 0, 76, 107
2, 39048, Note_on_c, 0, 76, 0
2, 39120, Note_on_c, 0, 74, 107
2, 39216, Note_on_c, 0, 74, 0
2, 39240, Note_on_c, 0, 73, 107
2, 39336, Note_on_c, 0, 73, 0
2, 39360, Note_on_c, 0, 74, 107
2, 39456, Note_on_c, 0, 74, 0
2, 39480, Note_on_c, 0, 73, 107
2, 39576, Note_on_c, 0, 73, 0
2, 39600, Note_on_c, 0, 71, 107
2, 39696, Note_on_c, 0, 71, 0
2, 39720, Note_on_c, 0, 69, 107
2, 39816, Note_on_c, 0, 69, 0
2, 39840, Note_on_c, 0, 68, 107
2, 39936, Note_on_c, 0, 68, 0
2, 39960, Note_on_c, 0, 66, 107
2, 40056, Note_on_c, 0, 66, 0
2, 40080, Note_on_c, 0, 68, 107
2, 40176, Note_on_c, 0, 68, 0
2, 40200, Note_on_c, 0, 69, 107
2, 40296, Note_on_c, 0, 69, 0
2, 40320, Note_on_c, 0, 73, 107
2, 40416, Note_on_c, 0, 73, 0
2, 40440, Note_on_c, 0, 71, 107
2, 40536, Note_on_c, 0, 71, 0
2, 40560, Note_on_c, 0, 69, 107
2, 40656, Note_on_c, 0, 69, 0
2, 40680, Note_on_c, 0, 68, 107
2, 40776, Note_on_c, 0, 68, 0
2, 40800, Note_on_c, 0, 66, 107
2, 40896, Note_on_c, 0, 66, 0
2, 40920, Note_on_c, 0, 64, 107
2, 41016, Note_on_c, 0, 64, 0
2, 41040, Note_on_c, 0, 66, 107
2, 41136, Note_on_c, 0, 66, 0
2, 41160, Note_on_c, 0, 68, 107
2, 41256, Note_on_c, 0, 68, 0
2, 41280, Note_on_c, 0, 69, 107
2, 41376, Note_on_c, 0, 69, 0
2, 41400, Note_on_c, 0, 71, 107
2, 41496, Note_on_c, 0, 71, 0
2, 41520, Note_on_c, 0, 73, 107
2, 41616, Note_on_c, 0, 73, 0
2, 41640, Note_on_c, 0, 74, 107
2, 41736, Note_on_c, 0, 74, 0
2, 41760, Note_on_c, 0, 73, 107
2, 41856, Note_on_c, 0, 73, 0
2, 41880, Note_on_c, 0, 71, 107
2, 41904, Note_on_c, 0, 71, 0
2, 41910, Note_on_c, 0, 73, 107
2, 41934, Note_on_c, 0, 73, 0
2, 41940, Note_on_c, 0, 71, 107
2, 41988, Note_on_c, 0, 71, 0
2, 42000, Note_on_c, 0, 69, 107
2, 42096, Note_on_c, 0, 69, 0
2, 42120, Note_on_c, 0, 76, 107
2, 42216, Note_on_c, 0, 76, 0
2, 42240, Note_on_c, 0, 74, 107
2, 42336, Note_on_c, 0, 74, 0
2, 42360, Note_on_c, 0, 73, 107
2, 42456, Note_on_c, 0, 73, 0
2, 42480, Note_on_c, 0, 74, 107
2, 42576, Note_on_c, 0, 74, 0
2, 42600, Note_on_c, 0, 76, 107
2, 42696, Note_on_c, 0, 76, 0
2, 42720, Note_on_c, 0, 78, 107
2, 42816, Note_on_c, 0, 78, 0
2, 42840, Note_on_c, 0, 79, 107
2, 42936, Note_on_c, 0, 79, 0
2, 42960, Note_on_c, 0, 78, 107
2, 43056, Note_on_c, 0, 78, 0
2, 43080, Note_on_c, 0, 79, 107
2, 43176, Note_on_c, 0, 79, 0
2, 43200, Note_on_c, 0, 83, 107
2, 43296, Note_on_c, 0, 83, 0
2, 43320, Note_on_c, 0, 81, 107
2, 43416, Note_on_c, 0, 81, 0
2, 43440, Note_on_c, 0, 79, 107
2, 43536, Note_on_c, 0, 79, 0
2, 43560, Note_on_c, 0, 78, 107
2, 43656, Note_on_c, 0, 78, 0
2, 43680, Note_on_c, 0, 76, 107
2, 43776, Note_on_c, 0, 76, 0
2, 43800, Note_on_c, 0, 78, 107
2, 43896, Note_on_c, 0, 78, 0
2, 43920, Note_on_c, 0, 80, 107
2, 44016, Note_on_c, 0, 80, 0
2, 44040, Note_on_c, 0, 81, 107
2, 44136, Note_on_c, 0, 81, 0
2, 44160, Note_on_c, 0, 74, 107
2, 44256, Note_on_c, 0, 74, 0
2, 44280, Note_on_c, 0, 73, 107
2, 44376, Note_on_c, 0, 73, 0
2, 44400, Note_on_c, 0, 71, 107
2, 44496, Note_on_c, 0, 71, 0
2, 44520, Note_on_c, 0, 71, 107
2, 44544, Note_on_c, 0, 71, 0
2, 44550, Note_on_c, 0, 73, 107
2, 44574, Note_on_c, 0, 73, 0
2, 44580, Note_on_c, 0, 71, 107
2, 44832, Note_on_c, 0, 71, 0
2, 44880, Note_on_c, 0, 69, 107
2, 44976, Note_on_c, 0, 69, 0
2, 45000, Note_on_c, 0, 69, 107
2, 45120, Note_on_c, 0, 64, 107
2, 45240, Note_on_c, 0, 61, 107
2, 46104, Note_on_c, 0, 61, 0
2, 46104, Note_on_c, 0, 64, 0
2, 46104, Note_on_c, 0, 69, 0
2, 46440, Note_on_c, 0, 71, 107
2, 46560, Note_on_c, 0, 71, 0
2, 46560, Note_on_c, 0, 71, 107
2, 46680, Note_on_c, 0, 68, 107
2, 46800, Note_on_c, 0, 64, 107
2, 47136, Note_on_c, 0, 71, 0
2, 47184, Note_on_c, 0, 64, 0
2, 47184, Note_on_c, 0, 68, 0
2, 47280, Note_on_c, 0, 64, 107
2, 47280, Note_on_c, 0, 68, 107
2, 47472, Note_on_c, 0, 68, 0
2, 47472, Note_on_c, 0, 64, 0
2, 47520, Note_on_c, 0, 66, 107
2, 47520, Note_on_c, 0, 69, 107
2, 47544, Note_on_c, 0, 69, 0
2, 47550, Note_on_c, 0, 68, 107
2, 47574, Note_on_c, 0, 68, 0
2, 47580, Note_on_c, 0, 69, 107
2, 47808, Note_on_c, 0, 66, 0
2, 47880, Note_on_c, 0, 68, 107
2, 47880, Note_on_c, 0, 71, 107
2, 47928, Note_on_c, 0, 69, 0
2, 47976, Note_on_c, 0, 71, 0
2, 47976, Note_on_c, 0, 68, 0
2, 48000, Note_on_c, 0, 69, 107
2, 48000, Note_on_c, 0, 73, 107
2, 48096, Note_on_c, 0, 73, 0
2, 48113, Note_on_c, 0, 69, 0
2, 48120, Note_on_c, 0, 71, 107
2, 48168, Note_on_c, 0, 71, 0
2, 48180, Note_on_c, 0, 69, 107
2, 48228, Note_on_c, 0, 69, 0
2, 48240, Note_on_c, 0, 71, 107
2, 48288, Note_on_c, 0, 71, 0
2, 48300, Note_on_c, 0, 73, 107
2, 48348, Note_on_c, 0, 73, 0
2, 48360, Note_on_c, 0, 74, 107
2, 48408, Note_on_c, 0, 74, 0
2, 48420, Note_on_c, 0, 76, 107
2, 48468, Note_on_c, 0, 76, 0
2, 48480, Note_on_c, 0, 78, 107
2, 48600, Note_on_c, 0, 74, 107
2, 48713, Note_on_c, 0, 74, 0
2, 48720, Note_on_c, 0, 71, 107
2, 48768, Note_on_c, 0, 78, 0
2, 48840, Note_on_c, 0, 79, 107
2, 48936, Note_on_c, 0, 79, 0
2, 48960, Note_on_c, 0, 78, 107
2, 49056, Note_on_c, 0, 78, 0
2, 49080, Note_on_c, 0, 76, 107
2, 49170, Note_on_c, 0, 71, 0
2, 49176, Note_on_c, 0, 76, 0
2, 49200, Note_on_c, 0, 74, 107
2, 49200, Note_on_c, 0, 70, 107
2, 49296, Note_on_c, 0, 74, 0
2, 49320, Note_on_c, 0, 73, 107
2, 49392, Note_on_c, 0, 70, 0
2, 49416, Note_on_c, 0, 73, 0
2, 49440, Note_on_c, 0, 74, 107
2, 49560, Note_on_c, 0, 71, 107
2, 49680, Note_on_c, 0, 66, 107
2, 49824, Note_on_c, 0, 74, 0
2, 50064, Note_on_c, 0, 66, 0
2, 50160, Note_on_c, 0, 71, 107
2, 50190, Note_on_c, 0, 78, 107
2, 50220, Note_on_c, 0, 83, 107
2, 50256, Note_on_c, 0, 71, 0
2, 50316, Note_on_c, 0, 83, 0
2, 50352, Note_on_c, 0, 71, 0
2, 50364, Note_on_c, 0, 78, 0
2, 50400, Note_on_c, 0, 83, 107
2, 50400, Note_on_c, 0, 78, 107
2, 50424, Note_on_c, 0, 83, 0
2, 50430, Note_on_c, 0, 81, 107
2, 50454, Note_on_c, 0, 81, 0
2, 50460, Note_on_c, 0, 80, 107
2, 50484, Note_on_c, 0, 80, 0
2, 50490, Note_on_c, 0, 81, 107
2, 50514, Note_on_c, 0, 81, 0
2, 50520, Note_on_c, 0, 83, 107
2, 50544, Note_on_c, 0, 83, 0
2, 50550, Note_on_c, 0, 81, 107
2, 50574, Note_on_c, 0, 81, 0
2, 50580, Note_on_c, 0, 83, 107
2, 50604, Note_on_c, 0, 83, 0
2, 50610, Note_on_c, 0, 81, 107
2, 50634, Note_on_c, 0, 81, 0
2, 50640, Note_on_c, 0, 83, 107
2, 50664, Note_on_c, 0, 83, 0
2, 50670, Note_on_c, 0, 81, 107
2, 50694, Note_on_c, 0, 81, 0
2, 50700, Note_on_c, 0, 80, 107
2, 50724, Note_on_c, 0, 80, 0
2, 50730, Note_on_c, 0, 81, 107
2, 50754, Note_on_c, 0, 81, 0
2, 50760, Note_on_c, 0, 83, 107
2, 50784, Note_on_c, 0, 78, 0
2, 50856, Note_on_c, 0, 83, 0
2, 50880, Note_on_c, 0, 81, 107
2, 50976, Note_on_c, 0, 81, 0
2, 51000, Note_on_c, 0, 79, 107
2, 51096, Note_on_c, 0, 79, 0
2, 51120, Note_on_c, 0, 78, 107
2, 51216, Note_on_c, 0, 78, 0
2, 51240, Note_on_c, 0, 76, 107
2, 51336, Note_on_c, 0, 76, 0
2, 51360, Note_on_c, 0, 74, 107
2, 51456, Note_on_c, 0, 74, 0
2, 51480, Note_on_c, 0, 73, 107
2, 51576, Note_on_c, 0, 73, 0
2, 51600, Note_on_c, 0, 71, 107
2, 51696, Note_on_c, 0, 71, 0
2, 51720, Note_on_c, 0, 73, 107
2, 51816, Note_on_c, 0, 73, 0
2, 51840, Note_on_c, 0, 74, 107
2, 51936, Note_on_c, 0, 74, 0
2, 51960, Note_on_c, 0, 78, 107
2, 52056, Note_on_c, 0, 78, 0
2, 52080, Note_on_c, 0, 76, 107
2, 52176, Note_on_c, 0, 76, 0
2, 52200, Note_on_c, 0, 74, 107
2, 52296, Note_on_c, 0, 74, 0
2, 52320, Note_on_c, 0, 73, 107
2, 52344, Note_on_c, 0, 73, 0
2, 52350, Note_on_c, 0, 74, 107
2, 52374, Note_on_c, 0, 74, 0
2, 52380, Note_on_c, 0, 73, 107
2, 52437, Note_on_c, 0, 73, 0
2, 52440, Note_on_c, 0, 71, 107
2, 52536, Note_on_c, 0, 71, 0
2, 52560, Note_on_c, 0, 69, 107
2, 52656, Note_on_c, 0, 69, 0
2, 52680, Note_on_c, 0, 71, 107
2, 52776, Note_on_c, 0, 71, 0
2, 52800, Note_on_c, 0, 73, 107
2, 52896, Note_on_c, 0, 73, 0
2, 52920, Note_on_c, 0, 74, 107
2, 53016, Note_on_c, 0, 74, 0
2, 53040, Note_on_c, 0, 76, 107
2, 53136, Note_on_c, 0, 76, 0
2, 53160, Note_on_c, 0, 78, 107
2, 53256, Note_on_c, 0, 78, 0
2, 53280, Note_on_c, 0, 79, 107
2, 53376, Note_on_c, 0, 79, 0
2, 53400, Note_on_c, 0, 83, 107
2, 53496, Note_on_c, 0, 83, 0
2, 53520, Note_on_c, 0, 81, 107
2, 53616, Note_on_c, 0, 81, 0
2, 53640, Note_on_c, 0, 79, 107
2, 53736, Note_on_c, 0, 79, 0
2, 53760, Note_on_c, 0, 78, 107
2, 53856, Note_on_c, 0, 78, 0
2, 53880, Note_on_c, 0, 79, 107
2, 53976, Note_on_c, 0, 79, 0
2, 54000, Note_on_c, 0, 78, 107
2, 54096, Note_on_c, 0, 78, 0
2, 54120, Note_on_c, 0, 76, 107
2, 54216, Note_on_c, 0, 76, 0
2, 54240, Note_on_c, 0, 74, 107
2, 54336, Note_on_c, 0, 74, 0
2, 54360, Note_on_c, 0, 73, 107
2, 54456, Note_on_c, 0, 73, 0
2, 54480, Note_on_c, 0, 71, 107
2, 54576, Note_on_c, 0, 71, 0
2, 54600, Note_on_c, 0, 76, 107
2, 54696, Note_on_c, 0, 76, 0
2, 54720, Note_on_c, 0, 73, 107
2, 54744, Note_on_c, 0, 73, 0
2, 54750, Note_on_c, 0, 74, 107
2, 54774, Note_on_c, 0, 74, 0
2, 54780, Note_on_c, 0, 73, 107
2, 55032, Note_on_c, 0, 73, 0
2, 55080, Note_on_c, 0, 74, 107
2, 55176, Note_on_c, 0, 74, 0
2, 55200, Note_on_c, 0, 74, 107
2, 55320, Note_on_c, 0, 69, 107
2, 55440, Note_on_c, 0, 66, 107
2, 55776, Note_on_c, 0, 74, 0
2, 55824, Note_on_c, 0, 66, 0
2, 55824, Note_on_c, 0, 69, 0
2, 55920, Note_on_c, 0, 78, 107
2, 55968, Note_on_c, 0, 78, 0
2, 55980, Note_on_c, 0, 79, 107
2, 56028, Note_on_c, 0, 79, 0
2, 56040, Note_on_c, 0, 81, 107
2, 56153, Note_on_c, 0, 81, 0
2, 56160, Note_on_c, 0, 79, 107
2, 56184, Note_on_c, 0, 79, 0
2, 56190, Note_on_c, 0, 78, 107
2, 56214, Note_on_c, 0, 78, 0
2, 56220, Note_on_c, 0, 79, 107
2, 56520, Note_on_c, 0, 78, 107
2, 56568, Note_on_c, 0, 79, 0
2, 56616, Note_on_c, 0, 78, 0
2, 56640, Note_on_c, 0, 78, 107
2, 56736, Note_on_c, 0, 78, 0
2, 56760, Note_on_c, 0, 76, 107
2, 56856, Note_on_c, 0, 76, 0
2, 56880, Note_on_c, 0, 74, 107
2, 56976, Note_on_c, 0, 74, 0
2, 57000, Note_on_c, 0, 73, 107
2, 57096, Note_on_c, 0, 73, 0
2, 57120, Note_on_c, 0, 74, 107
2, 57216, Note_on_c, 0, 74, 0
2, 57240, Note_on_c, 0, 73, 107
2, 57336, Note_on_c, 0, 73, 0
2, 57360, Note_on_c, 0, 71, 107
2, 57456, Note_on_c, 0, 71, 0
2, 57480, Note_on_c, 0, 70, 107
2, 57576, Note_on_c, 0, 70, 0
2, 57600, Note_on_c, 0, 71, 107
2, 57696, Note_on_c, 0, 71, 0
2, 57720, Note_on_c, 0, 70, 107
2, 57816, Note_on_c, 0, 70, 0
2, 57840, Note_on_c, 0, 71, 107
2, 57936, Note_on_c, 0, 71, 0
2, 57960, Note_on_c, 0, 73, 107
2, 58056, Note_on_c, 0, 73, 0
2, 58080, Note_on_c, 0, 70, 107
2, 58176, Note_on_c, 0, 70, 0
2, 58200, Note_on_c, 0, 68, 107
2, 58296, Note_on_c, 0, 68, 0
2, 58320, Note_on_c, 0, 66, 107
2, 58416, Note_on_c, 0, 66, 0
2, 58440, Note_on_c, 0, 68, 107
2, 58536, Note_on_c, 0, 68, 0
2, 58560, Note_on_c, 0, 70, 107
2, 58656, Note_on_c, 0, 70, 0
2, 58680, Note_on_c, 0, 71, 107
2, 58776, Note_on_c, 0, 71, 0
2, 58800, Note_on_c, 0, 73, 107
2, 58896, Note_on_c, 0, 73, 0
2, 58920, Note_on_c, 0, 74, 107
2, 59016, Note_on_c, 0, 74, 0
2, 59040, Note_on_c, 0, 76, 107
2, 59136, Note_on_c, 0, 76, 0
2, 59160, Note_on_c, 0, 79, 107
2, 59256, Note_on_c, 0, 79, 0
2, 59280, Note_on_c, 0, 78, 107
2, 59376, Note_on_c, 0, 78, 0
2, 59400, Note_on_c, 0, 76, 107
2, 59496, Note_on_c, 0, 76, 0
2, 59520, Note_on_c, 0, 74, 107
2, 59616, Note_on_c, 0, 74, 0
2, 59640, Note_on_c, 0, 76, 107
2, 59736, Note_on_c, 0, 76, 0
2, 59760, Note_on_c, 0, 74, 107
2, 59856, Note_on_c, 0, 74, 0
2, 59880, Note_on_c, 0, 73, 107
2, 59976, Note_on_c, 0, 73, 0
2, 60000, Note_on_c, 0, 71, 107
2, 60096, Note_on_c, 0, 71, 0
2, 60120, Note_on_c, 0, 70, 107
2, 60216, Note_on_c, 0, 70, 0
2, 60240, Note_on_c, 0, 71, 107
2, 60336, Note_on_c, 0, 71, 0
2, 60360, Note_on_c, 0, 73, 107
2, 60456, Note_on_c, 0, 73, 0
2, 60480, Note_on_c, 0, 73, 107
2, 60480, Note_on_c, 0, 70, 107
2, 60504, Note_on_c, 0, 73, 0
2, 60510, Note_on_c, 0, 74, 107
2, 60534, Note_on_c, 0, 74, 0
2, 60540, Note_on_c, 0, 73, 107
2, 60840, Note_on_c, 0, 71, 107
2, 60864, Note_on_c, 0, 70, 0
2, 60888, Note_on_c, 0, 73, 0
2, 60936, Note_on_c, 0, 71, 0
2, 60960, Note_on_c, 0, 71, 107
2, 61080, Note_on_c, 0, 66, 107
2, 61200, Note_on_c, 0, 62, 107
2, 61536, Note_on_c, 0, 71, 0
2, 61584, Note_on_c, 0, 62, 0
2, 61584, Note_on_c, 0, 66, 0
2, 61680, Note_on_c, 0, 71, 107
2, 61872, Note_on_c, 0, 71, 0
2, 61890, Note_on_c, 0, 73, 107
2, 61890, Note_on_c, 0, 74, 107
2, 61905, Note_on_c, 0, 74, 0
2, 61905, Note_on_c, 0, 73, 0
2, 61920, Note_on_c, 0, 76, 107
2, 62208, Note_on_c, 0, 76, 0
2, 62280, Note_on_c, 0, 74, 107
2, 62376, Note_on_c, 0, 74, 0
2, 62400, Note_on_c, 0, 73, 107
2, 62496, Note_on_c, 0, 73, 0
2, 62520, Note_on_c, 0, 74, 107
2, 62616, Note_on_c, 0, 74, 0
2, 62640, Note_on_c, 0, 73, 107
2, 62736, Note_on_c, 0, 73, 0
2, 62760, Note_on_c, 0, 71, 107
2, 62856, Note_on_c, 0, 71, 0
2, 62880, Note_on_c, 0, 69, 107
2, 62976, Note_on_c, 0, 69, 0
2, 63000, Note_on_c, 0, 68, 107
2, 63096, Note_on_c, 0, 68, 0
2, 63120, Note_on_c, 0, 66, 107
2, 63216, Note_on_c, 0, 66, 0
2, 63240, Note_on_c, 0, 68, 107
2, 63336, Note_on_c, 0, 68, 0
2, 63360, Note_on_c, 0, 69, 107
2, 63456, Note_on_c, 0, 69, 0
2, 63480, Note_on_c, 0, 73, 107
2, 63576, Note_on_c, 0, 73, 0
2, 63600, Note_on_c, 0, 71, 107
2, 63696, Note_on_c, 0, 71, 0
2, 63720, Note_on_c, 0, 69, 107
2, 63816, Note_on_c, 0, 69, 0
2, 63840, Note_on_c, 0, 68, 107
2, 63936, Note_on_c, 0, 68, 0
2, 63960, Note_on_c, 0, 66, 107
2, 64056, Note_on_c, 0, 66, 0
2, 64080, Note_on_c, 0, 64, 107
2, 64176, Note_on_c, 0, 64, 0
2, 64200, Note_on_c, 0, 66, 107
2, 64296, Note_on_c, 0, 66, 0
2, 64320, Note_on_c, 0, 68, 107
2, 64416, Note_on_c, 0, 68, 0
2, 64440, Note_on_c, 0, 69, 107
2, 64536, Note_on_c, 0, 69, 0
2, 64560, Note_on_c, 0, 71, 107
2, 64656, Note_on_c, 0, 71, 0
2, 64680, Note_on_c, 0, 73, 107
2, 64776, Note_on_c, 0, 73, 0
2, 64800, Note_on_c, 0, 74, 107
2, 64896, Note_on_c, 0, 74, 0
2, 64920, Note_on_c, 0, 73, 107
2, 65016, Note_on_c, 0, 73, 0
2, 65040, Note_on_c, 0, 71, 107
2, 65064, Note_on_c, 0, 71, 0
2, 65070, Note_on_c, 0, 73, 107
2, 65094, Note_on_c, 0, 73, 0
2, 65100, Note_on_c, 0, 71, 107
2, 65148, Note_on_c, 0, 71, 0
2, 65160, Note_on_c, 0, 69, 107
2, 65256, Note_on_c, 0, 69, 0
2, 65280, Note_on_c, 0, 76, 107
2, 65376, Note_on_c, 0, 76, 0
2, 65400, Note_on_c, 0, 74, 107
2, 65496, Note_on_c, 0, 74, 0
2, 65520, Note_on_c, 0, 73, 107
2, 65616, Note_on_c, 0, 73, 0
2, 65640, Note_on_c, 0, 74, 107
2, 65736, Note_on_c, 0, 74, 0
2, 65760, Note_on_c, 0, 76, 107
2, 65856, Note_on_c, 0, 76, 0
2, 65880, Note_on_c, 0, 78, 107
2, 65976, Note_on_c, 0, 78, 0
2, 66000, Note_on_c, 0, 79, 107
2, 66096, Note_on_c, 0, 79, 0
2, 66120, Note_on_c, 0, 78, 107
2, 66216, Note_on_c, 0, 78, 0
2, 66240, Note_on_c, 0, 79, 107
2, 66336, Note_on_c, 0, 79, 0
2, 66360, Note_on_c, 0, 83, 107
2, 66456, Note_on_c, 0, 83, 0
2, 66480, Note_on_c, 0, 81, 107
2, 66576, Note_on_c, 0, 81, 0
2, 66600, Note_on_c, 0, 79, 107
2, 66696, Note_on_c, 0, 79, 0
2, 66720, Note_on_c, 0, 78, 107
2, 66816, Note_on_c, 0, 78, 0
2, 66840, Note_on_c, 0, 76, 107
2, 66936, Note_on_c, 0, 76, 0
2, 66960, Note_on_c, 0, 78, 107
2, 67056, Note_on_c, 0, 78, 0
2, 67080, Note_on_c, 0, 80, 107
2, 67176, Note_on_c, 0, 80, 0
2, 67200, Note_on_c, 0, 81, 107
2, 67296, Note_on_c, 0, 81, 0
2, 67320, Note_on_c, 0, 74, 107
2, 67416, Note_on_c, 0, 74, 0
2, 67440, Note_on_c, 0, 73, 107
2, 67536, Note_on_c, 0, 73, 0
2, 67560, Note_on_c, 0, 71, 107
2, 67656, Note_on_c, 0, 71, 0
2, 67680, Note_on_c, 0, 71, 107
2, 67704, Note_on_c, 0, 71, 0
2, 67710, Note_on_c, 0, 73, 107
2, 67734, Note_on_c, 0, 73, 0
2, 67740, Note_on_c, 0, 71, 107
2, 67992, Note_on_c, 0, 71, 0
2, 68040, Note_on_c, 0, 69, 107
2, 68136, Note_on_c, 0, 69, 0
2, 68160, Note_on_c, 0, 69, 107
2, 68280, Note_on_c, 0, 64, 107
2, 68400, Note_on_c, 0, 61, 107
2, 69264, Note_on_c, 0, 61, 0
2, 69264, Note_on_c, 0, 64, 0
2, 69264, Note_on_c, 0, 69, 0
2, 69264, End_track
3, 0, Start_track
3, 0, MIDI_port, 0
3, 0, Title_t, "J.S. Bach, Edition Wood"
3, 0, Program_c, 1, 0
3, 0, Control_c, 1, 7, 100
3, 0, Control_c, 1, 10, 64
3, 120, Note_on_c, 1, 45, 107
3, 408, Note_on_c, 1, 45, 0
3, 420, Note_on_c, 1, 57, 107
3, 468, Note_on_c, 1, 57, 0
3, 480, Note_on_c, 1, 56, 107
3, 528, Note_on_c, 1, 56, 0
3, 540, Note_on_c, 1, 54, 107
3, 588, Note_on_c, 1, 54, 0
3, 600, Note_on_c, 1, 52, 107
3, 696, Note_on_c, 1, 52, 0
3, 720, Note_on_c, 1, 54, 107
3, 768, Note_on_c, 1, 54, 0
3, 780, Note_on_c, 1, 50, 107
3, 828, Note_on_c, 1, 50, 0
3, 840, Note_on_c, 1, 49, 107
3, 936, Note_on_c, 1, 49, 0
3, 960, Note_on_c, 1, 50, 107
3, 1008, Note_on_c, 1, 50, 0
3, 1020, Note_on_c, 1, 52, 107
3, 1068, Note_on_c, 1, 52, 0
3, 1080, Note_on_c, 1, 50, 107
3, 1176, Note_on_c, 1, 50, 0
3, 1200, Note_on_c, 1, 52, 107
3, 1248, Note_on_c, 1, 52, 0
3, 1260, Note_on_c, 1, 49, 107
3, 1308, Note_on_c, 1, 49, 0
3, 1320, Note_on_c, 1, 47, 107
3, 1416, Note_on_c, 1, 47, 0
3, 1440, Note_on_c, 1, 49, 107
3, 1488, Note_on_c, 1, 49, 0
3, 1500, Note_on_c, 1, 45, 107
3, 1548, Note_on_c, 1, 45, 0
3, 1560, Note_on_c, 1, 50, 107
3, 1752, Note_on_c, 1, 50, 0
3, 1800, Note_on_c, 1, 49, 107
3, 1992, Note_on_c, 1, 49, 0
3, 2040, Note_on_c, 1, 47, 107
3, 2232, Note_on_c, 1, 47, 0
3, 2280, Note_on_c, 1, 52, 107
3, 2472, Note_on_c, 1, 52, 0
3, 2520, Note_on_c, 1, 45, 107
3, 2712, Note_on_c, 1, 45, 0
3, 2760, Note_on_c, 1, 38, 107
3, 2952, Note_on_c, 1, 38, 0
3, 3000, Note_on_c, 1, 40, 107
3, 3288, Note_on_c, 1, 40, 0
3, 3300, Note_on_c, 1, 52, 107
3, 3348, Note_on_c, 1, 52, 0
3, 3360, Note_on_c, 1, 50, 107
3, 3408, Note_on_c, 1, 50, 0
3, 3420, Note_on_c, 1, 49, 107
3, 3468, Note_on_c, 1, 49, 0
3, 3480, Note_on_c, 1, 47, 107
3, 3576, Note_on_c, 1, 47, 0
3, 3600, Note_on_c, 1, 49, 107
3, 3648, Note_on_c, 1, 49, 0
3, 3660, Note_on_c, 1, 45, 107
3, 3708, Note_on_c, 1, 45, 0
3, 3720, Note_on_c, 1, 44, 107
3, 3816, Note_on_c, 1, 44, 0
3, 3840, Note_on_c, 1, 45, 107
3, 3888, Note_on_c, 1, 45, 0
3, 3900, Note_on_c, 1, 47, 107
3, 3948, Note_on_c, 1, 47, 0
3, 3960, Note_on_c, 1, 45, 107
3, 4056, Note_on_c, 1, 45, 0
3, 4080, Note_on_c, 1, 47, 107
3, 4128, Note_on_c, 1, 47, 0
3, 4140, Note_on_c, 1, 44, 107
3, 4188, Note_on_c, 1, 44, 0
3, 4200, Note_on_c, 1, 42, 107
3, 4296, Note_on_c, 1, 42, 0
3, 4320, Note_on_c, 1, 44, 107
3, 4368, Note_on_c, 1, 44, 0
3, 4380, Note_on_c, 1, 40, 107
3, 4428, Note_on_c, 1, 40, 0
3, 4440, Note_on_c, 1, 45, 107
3, 4632, Note_on_c, 1, 45, 0
3, 4680, Note_on_c, 1, 47, 107
3, 4872, Note_on_c, 1, 47, 0
3, 4920, Note_on_c, 1, 49, 107
3, 5112, Note_on_c, 1, 49, 0
3, 5160, Note_on_c, 1, 42, 107
3, 5352, Note_on_c, 1, 42, 0
3, 5400, Note_on_c, 1, 44, 107
3, 5592, Note_on_c, 1, 44, 0
3, 5640, Note_on_c, 1, 46, 107
3, 5832, Note_on_c, 1, 46, 0
3, 5880, Note_on_c, 1, 47, 107
3, 6072, Note_on_c, 1, 47, 0
3, 6120, Note_on_c, 1, 49, 107
3, 6312, Note_on_c, 1, 49, 0
3, 6360, Note_on_c, 1, 51, 107
3, 6552, Note_on_c, 1, 51, 0
3, 6600, Note_on_c, 1, 44, 107
3, 6792, Note_on_c, 1, 44, 0
3, 6840, Note_on_c, 1, 49, 107
3, 7032, Note_on_c, 1, 49, 0
3, 7080, Note_on_c, 1, 51, 107
3, 7272, Note_on_c, 1, 51, 0
3, 7320, Note_on_c, 1, 52, 107
3, 7512, Note_on_c, 1, 52, 0
3, 7560, Note_on_c, 1, 54, 107
3, 7752, Note_on_c, 1, 54, 0
3, 7800, Note_on_c, 1, 56, 107
3, 7992, Note_on_c, 1, 56, 0
3, 8040, Note_on_c, 1, 52, 107
3, 8232, Note_on_c, 1, 52, 0
3, 8280, Note_on_c, 1, 57, 107
3, 8472, Note_on_c, 1, 57, 0
3, 8520, Note_on_c, 1, 54, 107
3, 8712, Note_on_c, 1, 54, 0
3, 8760, Note_on_c, 1, 59, 107
3, 8985, Note_on_c, 1, 59, 0
3, 9000, Note_on_c, 1, 61, 107
3, 9225, Note_on_c, 1, 61, 0
3, 9240, Note_on_c, 1, 63, 107
3, 9465, Note_on_c, 1, 63, 0
3, 9480, Note_on_c, 1, 64, 107
3, 9576, Note_on_c, 1, 64, 0
3, 9600, Note_on_c, 1, 57, 107
3, 9696, Note_on_c, 1, 57, 0
3, 9720, Note_on_c, 1, 59, 107
3, 9912, Note_on_c, 1, 59, 0
3, 9960, Note_on_c, 1, 47, 107
3, 10152, Note_on_c, 1, 47, 0
3, 10200, Note_on_c, 1, 52, 107
3, 10200, Note_on_c, 1, 52, 107
3, 10680, Note_on_c, 1, 52, 0
3, 10680, Note_on_c, 1, 52, 107
3, 10776, Note_on_c, 1, 52, 0
3, 10800, Note_on_c, 1, 47, 107
3, 10896, Note_on_c, 1, 47, 0
3, 10920, Note_on_c, 1, 40, 107
3, 11304, Note_on_c, 1, 52, 0
3, 11400, Note_on_c, 1, 40, 0
3, 11760, Note_on_c, 1, 45, 107
3, 12048, Note_on_c, 1, 45, 0
3, 12060, Note_on_c, 1, 57, 107
3, 12108, Note_on_c, 1, 57, 0
3, 12120, Note_on_c, 1, 56, 107
3, 12168, Note_on_c, 1, 56, 0
3, 12180, Note_on_c, 1, 54, 107
3, 12228, Note_on_c, 1, 54, 0
3, 12240, Note_on_c, 1, 52, 107
3, 12336, Note_on_c, 1, 52, 0
3, 12360, Note_on_c, 1, 54, 107
3, 12408, Note_on_c, 1, 54, 0
3, 12420, Note_on_c, 1, 50, 107
3, 12468, Note_on_c, 1, 50, 0
3, 12480, Note_on_c, 1, 49, 107
3, 12576, Note_on_c, 1, 49, 0
3, 12600, Note_on_c, 1, 50, 107
3, 12648, Note_on_c, 1, 50, 0
3, 12660, Note_on_c, 1, 52, 107
3, 12708, Note_on_c, 1, 52, 0
3, 12720, Note_on_c, 1, 50, 107
3, 12816, Note_on_c, 1, 50, 0
3, 12840, Note_on_c, 1, 52, 107
3, 12888, Note_on_c, 1, 52, 0
3, 12900, Note_on_c, 1, 49, 107
3, 12948, Note_on_c, 1, 49, 0
3, 12960, Note_on_c, 1, 47, 107
3, 13056, Note_on_c, 1, 47, 0
3, 13080, Note_on_c, 1, 49, 107
3, 13128, Note_on_c, 1, 49, 0
3, 13140, Note_on_c, 1, 45, 107
3, 13188, Note_on_c, 1, 45, 0
3, 13200, Note_on_c, 1, 50, 107
3, 13392, Note_on_c, 1, 50, 0
3, 13440, Note_on_c, 1, 49, 107
3, 13632, Note_on_c, 1, 49, 0
3, 13680, Note_on_c, 1, 47, 107
3, 13872, Note_on_c, 1, 47, 0
3, 13920, Note_on_c, 1, 52, 107
3, 14112, Note_on_c, 1, 52, 0
3, 14160, Note_on_c, 1, 45, 107
3, 14352, Note_on_c, 1, 45, 0
3, 14400, Note_on_c, 1, 38, 107
3, 14592, Note_on_c, 1, 38, 0
3, 14640, Note_on_c, 1, 40, 107
3, 14928, Note_on_c, 1, 40, 0
3, 14940, Note_on_c, 1, 52, 107
3, 14988, Note_on_c, 1, 52, 0
3, 15000, Note_on_c, 1, 50, 107
3, 15048, Note_on_c, 1, 50, 0
3, 15060, Note_on_c, 1, 49, 107
3, 15108, Note_on_c, 1, 49, 0
3, 15120, Note_on_c, 1, 47, 107
3, 15216, Note_on_c, 1, 47, 0
3, 15240, Note_on_c, 1, 49, 107
3, 15288, Note_on_c, 1, 49, 0
3, 15300, Note_on_c, 1, 45, 107
3, 15348, Note_on_c, 1, 45, 0
3, 15360, Note_on_c, 1, 44, 107
3, 15456, Note_on_c, 1, 44, 0
3, 15480, Note_on_c, 1, 45, 107
3, 15528, Note_on_c, 1, 45, 0
3, 15540, Note_on_c, 1, 47, 107
3, 15588, Note_on_c, 1, 47, 0
3, 15600, Note_on_c, 1, 45, 107
3, 15696, Note_on_c, 1, 45, 0
3, 15720, Note_on_c, 1, 47, 107
3, 15768, Note_on_c, 1, 47, 0
3, 15780, Note_on_c, 1, 44, 107
3, 15828, Note_on_c, 1, 44, 0
3, 15840, Note_on_c, 1, 42, 107
3, 15936, Note_on_c, 1, 42, 0
3, 15960, Note_on_c, 1, 44, 107
3, 16008, Note_on_c, 1, 44, 0
3, 16020, Note_on_c, 1, 40, 107
3, 16068, Note_on_c, 1, 40, 0
3, 16080, Note_on_c, 1, 45, 107
3, 16272, Note_on_c, 1, 45, 0
3, 16320, Note_on_c, 1, 47, 107
3, 16512, Note_on_c, 1, 47, 0
3, 16560, Note_on_c, 1, 49, 107
3, 16752, Note_on_c, 1, 49, 0
3, 16800, Note_on_c, 1, 42, 107
3, 16992, Note_on_c, 1, 42, 0
3, 17040, Note_on_c, 1, 44, 107
3, 17232, Note_on_c, 1, 44, 0
3, 17280, Note_on_c, 1, 46, 107
3, 17472, Note_on_c, 1, 46, 0
3, 17520, Note_on_c, 1, 47, 107
3, 17712, Note_on_c, 1, 47, 0
3, 17760, Note_on_c, 1, 49, 107
3, 17952, Note_on_c, 1, 49, 0
3, 18000, Note_on_c, 1, 51, 107
3, 18192, Note_on_c, 1, 51, 0
3, 18240, Note_on_c, 1, 44, 107
3, 18432, Note_on_c, 1, 44, 0
3, 18480, Note_on_c, 1, 49, 107
3, 18672, Note_on_c, 1, 49, 0
3, 18720, Note_on_c, 1, 51, 107
3, 18912, Note_on_c, 1, 51, 0
3, 18960, Note_on_c, 1, 52, 107
3, 19152, Note_on_c, 1, 52, 0
3, 19200, Note_on_c, 1, 54, 107
3, 19392, Note_on_c, 1, 54, 0
3, 19440, Note_on_c, 1, 56, 107
3, 19632, Note_on_c, 1, 56, 0
3, 19680, Note_on_c, 1, 52, 107
3, 19872, Note_on_c, 1, 52, 0
3, 19920, Note_on_c, 1, 57, 107
3, 20112, Note_on_c, 1, 57, 0
3, 20160, Note_on_c, 1, 54, 107
3, 20352, Note_on_c, 1, 54, 0
3, 20400, Note_on_c, 1, 59, 107
3, 20625, Note_on_c, 1, 59, 0
3, 20640, Note_on_c, 1, 61, 107
3, 20865, Note_on_c, 1, 61, 0
3, 20880, Note_on_c, 1, 63, 107
3, 21105, Note_on_c, 1, 63, 0
3, 21120, Note_on_c, 1, 64, 107
3, 21216, Note_on_c, 1, 64, 0
3, 21240, Note_on_c, 1, 57, 107
3, 21336, Note_on_c, 1, 57, 0
3, 21360, Note_on_c, 1, 59, 107
3, 21552, Note_on_c, 1, 59, 0
3, 21600, Note_on_c, 1, 47, 107
3, 21792, Note_on_c, 1, 47, 0
3, 21840, Note_on_c, 1, 52, 107
3, 21840, Note_on_c, 1, 52, 107
3, 22320, Note_on_c, 1, 52, 0
3, 22320, Note_on_c, 1, 52, 107
3, 22416, Note_on_c, 1, 52, 0
3, 22440, Note_on_c, 1, 47, 107
3, 22536, Note_on_c, 1, 47, 0
3, 22560, Note_on_c, 1, 40, 107
3, 22944, Note_on_c, 1, 52, 0
3, 23040, Note_on_c, 1, 40, 0
3, 23400, Note_on_c, 1, 40, 107
3, 23688, Note_on_c, 1, 40, 0
3, 23700, Note_on_c, 1, 56, 107
3, 23748, Note_on_c, 1, 56, 0
3, 23760, Note_on_c, 1, 54, 107
3, 23808, Note_on_c, 1, 54, 0
3, 23820, Note_on_c, 1, 52, 107
3, 23868, Note_on_c, 1, 52, 0
3, 23880, Note_on_c, 1, 50, 107
3, 23976, Note_on_c, 1, 50, 0
3, 24000, Note_on_c, 1, 52, 107
3, 24048, Note_on_c, 1, 52, 0
3, 24060, Note_on_c, 1, 49, 107
3, 24108, Note_on_c, 1, 49, 0
3, 24120, Note_on_c, 1, 50, 107
3, 24216, Note_on_c, 1, 50, 0
3, 24240, Note_on_c, 1, 52, 107
3, 24288, Note_on_c, 1, 52, 0
3, 24300, Note_on_c, 1, 54, 107
3, 24348, Note_on_c, 1, 54, 0
3, 24360, Note_on_c, 1, 52, 107
3, 24456, Note_on_c, 1, 52, 0
3, 24480, Note_on_c, 1, 54, 107
3, 24528, Note_on_c, 1, 54, 0
3, 24540, Note_on_c, 1, 50, 107
3, 24588, Note_on_c, 1, 50, 0
3, 24600, Note_on_c, 1, 49, 107
3, 24696, Note_on_c, 1, 49, 0
3, 24720, Note_on_c, 1, 50, 107
3, 24768, Note_on_c, 1, 50, 0
3, 24780, Note_on_c, 1, 47, 107
3, 24828, Note_on_c, 1, 47, 0
3, 24840, Note_on_c, 1, 45, 107
3, 25032, Note_on_c, 1, 45, 0
3, 25080, Note_on_c, 1, 49, 107
3, 25272, Note_on_c, 1, 49, 0
3, 25320, Note_on_c, 1, 50, 107
3, 25512, Note_on_c, 1, 50, 0
3, 25560, Note_on_c, 1, 55, 107
3, 25752, Note_on_c, 1, 55, 0
3, 25800, Note_on_c, 1, 49, 107
3, 25992, Note_on_c, 1, 49, 0
3, 26040, Note_on_c, 1, 54, 107
3, 26232, Note_on_c, 1, 54, 0
3, 26280, Note_on_c, 1, 47, 107
3, 26568, Note_on_c, 1, 47, 0
3, 26580, Note_on_c, 1, 59, 107
3, 26628, Note_on_c, 1, 59, 0
3, 26640, Note_on_c, 1, 57, 107
3, 26688, Note_on_c, 1, 57, 0
3, 26700, Note_on_c, 1, 55, 107
3, 26748, Note_on_c, 1, 55, 0
3, 26760, Note_on_c, 1, 54, 107
3, 26856, Note_on_c, 1, 54, 0
3, 26880, Note_on_c, 1, 55, 107
3, 26928, Note_on_c, 1, 55, 0
3, 26940, Note_on_c, 1, 52, 107
3, 26988, Note_on_c, 1, 52, 0
3, 27000, Note_on_c, 1, 50, 107
3, 27096, Note_on_c, 1, 50, 0
3, 27120, Note_on_c, 1, 52, 107
3, 27168, Note_on_c, 1, 52, 0
3, 27180, Note_on_c, 1, 54, 107
3, 27228, Note_on_c, 1, 54, 0
3, 27240, Note_on_c, 1, 52, 107
3, 27336, Note_on_c, 1, 52, 0
3, 27360, Note_on_c, 1, 54, 107
3, 27408, Note_on_c, 1, 54, 0
3, 27420, Note_on_c, 1, 51, 107
3, 27468, Note_on_c, 1, 51, 0
3, 27480, Note_on_c, 1, 49, 107
3, 27576, Note_on_c, 1, 49, 0
3, 27600, Note_on_c, 1, 51, 107
3, 27657, Note_on_c, 1, 51, 0
3, 27660, Note_on_c, 1, 47, 107
3, 27717, Note_on_c, 1, 47, 0
3, 27720, Note_on_c, 1, 52, 107
3, 27912, Note_on_c, 1, 52, 0
3, 27960, Note_on_c, 1, 54, 107
3, 28152, Note_on_c, 1, 54, 0
3, 28200, Note_on_c, 1, 55, 107
3, 28392, Note_on_c, 1, 55, 0
3, 28440, Note_on_c, 1, 54, 107
3, 28632, Note_on_c, 1, 54, 0
3, 28680, Note_on_c, 1, 52, 107
3, 28704, Note_on_c, 1, 52, 0
3, 28710, Note_on_c, 1, 54, 107
3, 28734, Note_on_c, 1, 54, 0
3, 28740, Note_on_c, 1, 52, 107
3, 28896, Note_on_c, 1, 52, 0
3, 28920, Note_on_c, 1, 50, 107
3, 29112, Note_on_c, 1, 50, 0
3, 29160, Note_on_c, 1, 57, 107
3, 29400, Note_on_c, 1, 61, 107
3, 29592, Note_on_c, 1, 61, 0
3, 29640, Note_on_c, 1, 64, 107
3, 29736, Note_on_c, 1, 57, 0
3, 29832, Note_on_c, 1, 64, 0
3, 29880, Note_on_c, 1, 61, 107
3, 29880, Note_on_c, 1, 57, 107
3, 30072, Note_on_c, 1, 57, 0
3, 30072, Note_on_c, 1, 61, 0
3, 30120, Note_on_c, 1, 59, 107
3, 30120, Note_on_c, 1, 62, 107
3, 30312, Note_on_c, 1, 62, 0
3, 30312, Note_on_c, 1, 59, 0
3, 30360, Note_on_c, 1, 61, 107
3, 30360, Note_on_c, 1, 64, 107
3, 30552, Note_on_c, 1, 64, 0
3, 30552, Note_on_c, 1, 61, 0
3, 30600, Note_on_c, 1, 62, 107
3, 30600, Note_on_c, 1, 62, 107
3, 30792, Note_on_c, 1, 62, 0
3, 30792, Note_on_c, 1, 62, 0
3, 30840, Note_on_c, 1, 50, 107
3, 30936, Note_on_c, 1, 50, 0
3, 30960, Note_on_c, 1, 52, 107
3, 31056, Note_on_c, 1, 52, 0
3, 31080, Note_on_c, 1, 54, 107
3, 31272, Note_on_c, 1, 54, 0
3, 31320, Note_on_c, 1, 55, 107
3, 31512, Note_on_c, 1, 55, 0
3, 31560, Note_on_c, 1, 57, 107
3, 31560, Note_on_c, 1, 57, 107
3, 31752, Note_on_c, 1, 57, 0
3, 31800, Note_on_c, 1, 45, 107
3, 31944, Note_on_c, 1, 57, 0
3, 31992, Note_on_c, 1, 45, 0
3, 32040, Note_on_c, 1, 38, 107
3, 32328, Note_on_c, 1, 38, 0
3, 32340, Note_on_c, 1, 50, 107
3, 32388, Note_on_c, 1, 50, 0
3, 32400, Note_on_c, 1, 49, 107
3, 32448, Note_on_c, 1, 49, 0
3, 32460, Note_on_c, 1, 47, 107
3, 32508, Note_on_c, 1, 47, 0
3, 32520, Note_on_c, 1, 49, 107
3, 32616, Note_on_c, 1, 49, 0
3, 32640, Note_on_c, 1, 50, 107
3, 32688, Note_on_c, 1, 50, 0
3, 32700, Note_on_c, 1, 47, 107
3, 32748, Note_on_c, 1, 47, 0
3, 32760, Note_on_c, 1, 46, 107
3, 32856, Note_on_c, 1, 46, 0
3, 32880, Note_on_c, 1, 47, 107
3, 32928, Note_on_c, 1, 47, 0
3, 32940, Note_on_c, 1, 49, 107
3, 32988, Note_on_c, 1, 49, 0
3, 33000, Note_on_c, 1, 47, 107
3, 33096, Note_on_c, 1, 47, 0
3, 33120, Note_on_c, 1, 49, 107
3, 33168, Note_on_c, 1, 49, 0
3, 33180, Note_on_c, 1, 45, 107
3, 33228, Note_on_c, 1, 45, 0
3, 33240, Note_on_c, 1, 43, 107
3, 33336, Note_on_c, 1, 43, 0
3, 33360, Note_on_c, 1, 45, 107
3, 33408, Note_on_c, 1, 45, 0
3, 33420, Note_on_c, 1, 42, 107
3, 33468, Note_on_c, 1, 42, 0
3, 33480, Note_on_c, 1, 43, 107
3, 33672, Note_on_c, 1, 43, 0
3, 33720, Note_on_c, 1, 42, 107
3, 33744, Note_on_c, 1, 42, 0
3, 33750, Note_on_c, 1, 43, 107
3, 33774, Note_on_c, 1, 43, 0
3, 33780, Note_on_c, 1, 42, 107
3, 33953, Note_on_c, 1, 42, 0
3, 33960, Note_on_c, 1, 40, 107
3, 34152, Note_on_c, 1, 40, 0
3, 34200, Note_on_c, 1, 49, 107
3, 34392, Note_on_c, 1, 49, 0
3, 34440, Note_on_c, 1, 50, 107
3, 34632, Note_on_c, 1, 50, 0
3, 34680, Note_on_c, 1, 52, 107
3, 34872, Note_on_c, 1, 52, 0
3, 34920, Note_on_c, 1, 54, 107
3, 35160, Note_on_c, 1, 58, 107
3, 35352, Note_on_c, 1, 58, 0
3, 35400, Note_on_c, 1, 61, 107
3, 35496, Note_on_c, 1, 54, 0
3, 35592, Note_on_c, 1, 61, 0
3, 35640, Note_on_c, 1, 54, 107
3, 35640, Note_on_c, 1, 58, 107
3, 35832, Note_on_c, 1, 58, 0
3, 35832, Note_on_c, 1, 54, 0
3, 35880, Note_on_c, 1, 56, 107
3, 35880, Note_on_c, 1, 59, 107
3, 36072, Note_on_c, 1, 59, 0
3, 36072, Note_on_c, 1, 56, 0
3, 36120, Note_on_c, 1, 61, 107
3, 36120, Note_on_c, 1, 58, 107
3, 36312, Note_on_c, 1, 58, 0
3, 36312, Note_on_c, 1, 61, 0
3, 36360, Note_on_c, 1, 59, 107
3, 36456, Note_on_c, 1, 59, 0
3, 36480, Note_on_c, 1, 61, 107
3, 36576, Note_on_c, 1, 61, 0
3, 36600, Note_on_c, 1, 59, 107
3, 36696, Note_on_c, 1, 59, 0
3, 36720, Note_on_c, 1, 57, 107
3, 36816, Note_on_c, 1, 57, 0
3, 36840, Note_on_c, 1, 55, 107
3, 36936, Note_on_c, 1, 55, 0
3, 36960, Note_on_c, 1, 54, 107
3, 37056, Note_on_c, 1, 54, 0
3, 37080, Note_on_c, 1, 55, 107
3, 37176, Note_on_c, 1, 55, 0
3, 37200, Note_on_c, 1, 52, 107
3, 37296, Note_on_c, 1, 52, 0
3, 37320, Note_on_c, 1, 54, 107
3, 37320, Note_on_c, 1, 54, 107
3, 37545, Note_on_c, 1, 54, 0
3, 37560, Note_on_c, 1, 42, 107
3, 37704, Note_on_c, 1, 54, 0
3, 37752, Note_on_c, 1, 42, 0
3, 37800, Note_on_c, 1, 35, 107
3, 38088, Note_on_c, 1, 35, 0
3, 38100, Note_on_c, 1, 52, 107
3, 38148, Note_on_c, 1, 52, 0
3, 38160, Note_on_c, 1, 50, 107
3, 38208, Note_on_c, 1, 50, 0
3, 38220, Note_on_c, 1, 49, 107
3, 38268, Note_on_c, 1, 49, 0
3, 38280, Note_on_c, 1, 47, 107
3, 38376, Note_on_c, 1, 47, 0
3, 38400, Note_on_c, 1, 49, 107
3, 38448, Note_on_c, 1, 49, 0
3, 38460, Note_on_c, 1, 45, 107
3, 38508, Note_on_c, 1, 45, 0
3, 38520, Note_on_c, 1, 44, 107
3, 38616, Note_on_c, 1, 44, 0
3, 38640, Note_on_c, 1, 45, 107
3, 38688, Note_on_c, 1, 45, 0
3, 38700, Note_on_c, 1, 47, 107
3, 38748, Note_on_c, 1, 47, 0
3, 38760, Note_on_c, 1, 45, 107
3, 38856, Note_on_c, 1, 45, 0
3, 38880, Note_on_c, 1, 47, 107
3, 38928, Note_on_c, 1, 47, 0
3, 38940, Note_on_c, 1, 44, 107
3, 38988, Note_on_c, 1, 44, 0
3, 39000, Note_on_c, 1, 42, 107
3, 39096, Note_on_c, 1, 42, 0
3, 39120, Note_on_c, 1, 44, 107
3, 39168, Note_on_c, 1, 44, 0
3, 39180, Note_on_c, 1, 40, 107
3, 39228, Note_on_c, 1, 40, 0
3, 39240, Note_on_c, 1, 45, 107
3, 39432, Note_on_c, 1, 45, 0
3, 39480, Note_on_c, 1, 47, 107
3, 39672, Note_on_c, 1, 47, 0
3, 39720, Note_on_c, 1, 49, 107
3, 39912, Note_on_c, 1, 49, 0
3, 39960, Note_on_c, 1, 50, 107
3, 40152, Note_on_c, 1, 50, 0
3, 40200, Note_on_c, 1, 47, 107
3, 40224, Note_on_c, 1, 47, 0
3, 40230, Note_on_c, 1, 49, 107
3, 40254, Note_on_c, 1, 49, 0
3, 40260, Note_on_c, 1, 47, 107
3, 40512, Note_on_c, 1, 47, 0
3, 40560, Note_on_c, 1, 45, 107
3, 40680, Note_on_c, 1, 52, 107
3, 40752, Note_on_c, 1, 45, 0
3, 40872, Note_on_c, 1, 52, 0
3, 40920, Note_on_c, 1, 56, 107
3, 41112, Note_on_c, 1, 56, 0
3, 41160, Note_on_c, 1, 59, 107
3, 41400, Note_on_c, 1, 52, 107
3, 41544, Note_on_c, 1, 59, 0
3, 41592, Note_on_c, 1, 52, 0
3, 41640, Note_on_c, 1, 57, 107
3, 41832, Note_on_c, 1, 57, 0
3, 41880, Note_on_c, 1, 59, 107
3, 42072, Note_on_c, 1, 59, 0
3, 42120, Note_on_c, 1, 61, 107
3, 42360, Note_on_c, 1, 64, 107
3, 42552, Note_on_c, 1, 64, 0
3, 42600, Note_on_c, 1, 69, 107
3, 42696, Note_on_c, 1, 61, 0
3, 42792, Note_on_c, 1, 69, 0
3, 42840, Note_on_c, 1, 61, 107
3, 42840, Note_on_c, 1, 57, 107
3, 43032, Note_on_c, 1, 57, 0
3, 43032, Note_on_c, 1, 61, 0
3, 43080, Note_on_c, 1, 62, 107
3, 43080, Note_on_c, 1, 59, 107
3, 43272, Note_on_c, 1, 59, 0
3, 43272, Note_on_c, 1, 62, 0
3, 43320, Note_on_c, 1, 64, 107
3, 43320, Note_on_c, 1, 61, 107
3, 43512, Note_on_c, 1, 61, 0
3, 43512, Note_on_c, 1, 64, 0
3, 43560, Note_on_c, 1, 62, 107
3, 43752, Note_on_c, 1, 62, 0
3, 43800, Note_on_c, 1, 61, 107
3, 43913, Note_on_c, 1, 61, 0
3, 43920, Note_on_c, 1, 59, 107
3, 44016, Note_on_c, 1, 59, 0
3, 44040, Note_on_c, 1, 61, 107
3, 44232, Note_on_c, 1, 61, 0
3, 44280, Note_on_c, 1, 62, 107
3, 44472, Note_on_c, 1, 62, 0
3, 44520, Note_on_c, 1, 64, 107
3, 44712, Note_on_c, 1, 64, 0
3, 44760, Note_on_c, 1, 52, 107
3, 44952, Note_on_c, 1, 52, 0
3, 45000, Note_on_c, 1, 45, 107
3, 45000, Note_on_c, 1, 45, 107
3, 45360, Note_on_c, 1, 56, 107
3, 45384, Note_on_c, 1, 45, 0
3, 45456, Note_on_c, 1, 56, 0
3, 45480, Note_on_c, 1, 57, 107
3, 45480, Note_on_c, 1, 45, 107
3, 45576, Note_on_c, 1, 45, 0
3, 45600, Note_on_c, 1, 40, 107
3, 45696, Note_on_c, 1, 40, 0
3, 45720, Note_on_c, 1, 33, 107
3, 46104, Note_on_c, 1, 33, 0
3, 46104, Note_on_c, 1, 45, 0
3, 46104, Note_on_c, 1, 57, 0
3, 46560, Note_on_c, 1, 40, 107
3, 46848, Note_on_c, 1, 40, 0
3, 46860, Note_on_c, 1, 56, 107
3, 46908, Note_on_c, 1, 56, 0
3, 46920, Note_on_c, 1, 54, 107
3, 46968, Note_on_c, 1, 54, 0
3, 46980, Note_on_c, 1, 52, 107
3, 47028, Note_on_c, 1, 52, 0
3, 47040, Note_on_c, 1, 50, 107
3, 47136, Note_on_c, 1, 50, 0
3, 47160, Note_on_c, 1, 52, 107
3, 47208, Note_on_c, 1, 52, 0
3, 47220, Note_on_c, 1, 49, 107
3, 47268, Note_on_c, 1, 49, 0
3, 47280, Note_on_c, 1, 50, 107
3, 47376, Note_on_c, 1, 50, 0
3, 47400, Note_on_c, 1, 52, 107
3, 47448, Note_on_c, 1, 52, 0
3, 47460, Note_on_c, 1, 54, 107
3, 47508, Note_on_c, 1, 54, 0
3, 47520, Note_on_c, 1, 52, 107
3, 47616, Note_on_c, 1, 52, 0
3, 47640, Note_on_c, 1, 54, 107
3, 47688, Note_on_c, 1, 54, 0
3, 47700, Note_on_c, 1, 50, 107
3, 47748, Note_on_c, 1, 50, 0
3, 47760, Note_on_c, 1, 49, 107
3, 47856, Note_on_c, 1, 49, 0
3, 47880, Note_on_c, 1, 50, 107
3, 47928, Note_on_c, 1, 50, 0
3, 47940, Note_on_c, 1, 47, 107
3, 47988, Note_on_c, 1, 47, 0
3, 48000, Note_on_c, 1, 45, 107
3, 48192, Note_on_c, 1, 45, 0
3, 48240, Note_on_c, 1, 49, 107
3, 48432, Note_on_c, 1, 49, 0
3, 48480, Note_on_c, 1, 50, 107
3, 48672, Note_on_c, 1, 50, 0
3, 48720, Note_on_c, 1, 55, 107
3, 48912, Note_on_c, 1, 55, 0
3, 48960, Note_on_c, 1, 49, 107
3, 49152, Note_on_c, 1, 49, 0
3, 49200, Note_on_c, 1, 54, 107
3, 49392, Note_on_c, 1, 54, 0
3, 49440, Note_on_c, 1, 47, 107
3, 49728, Note_on_c, 1, 47, 0
3, 49740, Note_on_c, 1, 59, 107
3, 49788, Note_on_c, 1, 59, 0
3, 49800, Note_on_c, 1, 57, 107
3, 49848, Note_on_c, 1, 57, 0
3, 49860, Note_on_c, 1, 55, 107
3, 49908, Note_on_c, 1, 55, 0
3, 49920, Note_on_c, 1, 54, 107
3, 50016, Note_on_c, 1, 54, 0
3, 50040, Note_on_c, 1, 55, 107
3, 50088, Note_on_c, 1, 55, 0
3, 50100, Note_on_c, 1, 52, 107
3, 50148, Note_on_c, 1, 52, 0
3, 50160, Note_on_c, 1, 50, 107
3, 50256, Note_on_c, 1, 50, 0
3, 50280, Note_on_c, 1, 52, 107
3, 50328, Note_on_c, 1, 52, 0
3, 50340, Note_on_c, 1, 54, 107
3, 50388, Note_on_c, 1, 54, 0
3, 50400, Note_on_c, 1, 52, 107
3, 50496, Note_on_c, 1, 52, 0
3, 50520, Note_on_c, 1, 54, 107
3, 50568, Note_on_c, 1, 54, 0
3, 50580, Note_on_c, 1, 51, 107
3, 50628, Note_on_c, 1, 51, 0
3, 50640, Note_on_c, 1, 49, 107
3, 50736, Note_on_c, 1, 49, 0
3, 50760, Note_on_c, 1, 51, 107
3, 50817, Note_on_c, 1, 51, 0
3, 50820, Note_on_c, 1, 47, 107
3, 50877, Note_on_c, 1, 47, 0
3, 50880, Note_on_c, 1, 52, 107
3, 51072, Note_on_c, 1, 52, 0
3, 51120, Note_on_c, 1, 54, 107
3, 51312, Note_on_c, 1, 54, 0
3, 51360, Note_on_c, 1, 55, 107
3, 51552, Note_on_c, 1, 55, 0
3, 51600, Note_on_c, 1, 54, 107
3, 51792, Note_on_c, 1, 54, 0
3, 51840, Note_on_c, 1, 52, 107
3, 51864, Note_on_c, 1, 52, 0
3, 51870, Note_on_c, 1, 54, 107
3, 51894, Note_on_c, 1, 54, 0
3, 51900, Note_on_c, 1, 52, 107
3, 52056, Note_on_c, 1, 52, 0
3, 52080, Note_on_c, 1, 50, 107
3, 52272, Note_on_c, 1, 50, 0
3, 52320, Note_on_c, 1, 57, 107
3, 52560, Note_on_c, 1, 61, 107
3, 52752, Note_on_c, 1, 61, 0
3, 52800, Note_on_c, 1, 64, 107
3, 52896, Note_on_c, 1, 57, 0
3, 52992, Note_on_c, 1, 64, 0
3, 53040, Note_on_c, 1, 61, 107
3, 53040, Note_on_c, 1, 57, 107
3, 53232, Note_on_c, 1, 57, 0
3, 53232, Note_on_c, 1, 61, 0
3, 53280, Note_on_c, 1, 59, 107
3, 53280, Note_on_c, 1, 62, 107
3, 53472, Note_on_c, 1, 62, 0
3, 53472, Note_on_c, 1, 59, 0
3, 53520, Note_on_c, 1, 61, 107
3, 53520, Note_on_c, 1, 64, 107
3, 53712, Note_on_c, 1, 64, 0
3, 53712, Note_on_c, 1, 61, 0
3, 53760, Note_on_c, 1, 62, 107
3, 53760, Note_on_c, 1, 62, 107
3, 53952, Note_on_c, 1, 62, 0
3, 53952, Note_on_c, 1, 62, 0
3, 54000, Note_on_c, 1, 50, 107
3, 54096, Note_on_c, 1, 50, 0
3, 54120, Note_on_c, 1, 52, 107
3, 54216, Note_on_c, 1, 52, 0
3, 54240, Note_on_c, 1, 54, 107
3, 54432, Note_on_c, 1, 54, 0
3, 54480, Note_on_c, 1, 55, 107
3, 54672, Note_on_c, 1, 55, 0
3, 54720, Note_on_c, 1, 57, 107
3, 54720, Note_on_c, 1, 57, 107
3, 54912, Note_on_c, 1, 57, 0
3, 54960, Note_on_c, 1, 45, 107
3, 55104, Note_on_c, 1, 57, 0
3, 55152, Note_on_c, 1, 45, 0
3, 55200, Note_on_c, 1, 38, 107
3, 55488, Note_on_c, 1, 38, 0
3, 55500, Note_on_c, 1, 50, 107
3, 55548, Note_on_c, 1, 50, 0
3, 55560, Note_on_c, 1, 49, 107
3, 55608, Note_on_c, 1, 49, 0
3, 55620, Note_on_c, 1, 47, 107
3, 55668, Note_on_c, 1, 47, 0
3, 55680, Note_on_c, 1, 49, 107
3, 55776, Note_on_c, 1, 49, 0
3, 55800, Note_on_c, 1, 50, 107
3, 55848, Note_on_c, 1, 50, 0
3, 55860, Note_on_c, 1, 47, 107
3, 55908, Note_on_c, 1, 47, 0
3, 55920, Note_on_c, 1, 46, 107
3, 56016, Note_on_c, 1, 46, 0
3, 56040, Note_on_c, 1, 47, 107
3, 56088, Note_on_c, 1, 47, 0
3, 56100, Note_on_c, 1, 49, 107
3, 56148, Note_on_c, 1, 49, 0
3, 56160, Note_on_c, 1, 47, 107
3, 56256, Note_on_c, 1, 47, 0
3, 56280, Note_on_c, 1, 49, 107
3, 56328, Note_on_c, 1, 49, 0
3, 56340, Note_on_c, 1, 45, 107
3, 56388, Note_on_c, 1, 45, 0
3, 56400, Note_on_c, 1, 43, 107
3, 56496, Note_on_c, 1, 43, 0
3, 56520, Note_on_c, 1, 45, 107
3, 56568, Note_on_c, 1, 45, 0
3, 56580, Note_on_c, 1, 42, 107
3, 56628, Note_on_c, 1, 42, 0
3, 56640, Note_on_c, 1, 43, 107
3, 56832, Note_on_c, 1, 43, 0
3, 56880, Note_on_c, 1, 42, 107
3, 56904, Note_on_c, 1, 42, 0
3, 56910, Note_on_c, 1, 43, 107
3, 56934, Note_on_c, 1, 43, 0
3, 56940, Note_on_c, 1, 42, 107
3, 57113, Note_on_c, 1, 42, 0
3, 57120, Note_on_c, 1, 40, 107
3, 57312, Note_on_c, 1, 40, 0
3, 57360, Note_on_c, 1, 49, 107
3, 57552, Note_on_c, 1, 49, 0
3, 57600, Note_on_c, 1, 50, 107
3, 57792, Note_on_c, 1, 50, 0
3, 57840, Note_on_c, 1, 52, 107
3, 58032, Note_on_c, 1, 52, 0
3, 58080, Note_on_c, 1, 54, 107
3, 58320, Note_on_c, 1, 58, 107
3, 58512, Note_on_c, 1, 58, 0
3, 58560, Note_on_c, 1, 61, 107
3, 58656, Note_on_c, 1, 54, 0
3, 58752, Note_on_c, 1, 61, 0
3, 58800, Note_on_c, 1, 54, 107
3, 58800, Note_on_c, 1, 58, 107
3, 58992, Note_on_c, 1, 58, 0
3, 58992, Note_on_c, 1, 54, 0
3, 59040, Note_on_c, 1, 56, 107
3, 59040, Note_on_c, 1, 59, 107
3, 59232, Note_on_c, 1, 59, 0
3, 59232, Note_on_c, 1, 56, 0
3, 59280, Note_on_c, 1, 61, 107
3, 59280, Note_on_c, 1, 58, 107
3, 59472, Note_on_c, 1, 58, 0
3, 59472, Note_on_c, 1, 61, 0
3, 59520, Note_on_c, 1, 59, 107
3, 59616, Note_on_c, 1, 59, 0
3, 59640, Note_on_c, 1, 61, 107
3, 59736, Note_on_c, 1, 61, 0
3, 59760, Note_on_c, 1, 59, 107
3, 59856, Note_on_c, 1, 59, 0
3, 59880, Note_on_c, 1, 57, 107
3, 59976, Note_on_c, 1, 57, 0
3, 60000, Note_on_c, 1, 55, 107
3, 60096, Note_on_c, 1, 55, 0
3, 60120, Note_on_c, 1, 54, 107
3, 60216, Note_on_c, 1, 54, 0
3, 60240, Note_on_c, 1, 55, 107
3, 60336, Note_on_c, 1, 55, 0
3, 60360, Note_on_c, 1, 52, 107
3, 60456, Note_on_c, 1, 52, 0
3, 60480, Note_on_c, 1, 54, 107
3, 60480, Note_on_c, 1, 54, 107
3, 60705, Note_on_c, 1, 54, 0
3, 60720, Note_on_c, 1, 42, 107
3, 60864, Note_on_c, 1, 54, 0
3, 60912, Note_on_c, 1, 42, 0
3, 60960, Note_on_c, 1, 35, 107
3, 61248, Note_on_c, 1, 35, 0
3, 61260, Note_on_c, 1, 52, 107
3, 61308, Note_on_c, 1, 52, 0
3, 61320, Note_on_c, 1, 50, 107
3, 61368, Note_on_c, 1, 50, 0
3, 61380, Note_on_c, 1, 49, 107
3, 61428, Note_on_c, 1, 49, 0
3, 61440, Note_on_c, 1, 47, 107
3, 61536, Note_on_c, 1, 47, 0
3, 61560, Note_on_c, 1, 49, 107
3, 61608, Note_on_c, 1, 49, 0
3, 61620, Note_on_c, 1, 45, 107
3, 61668, Note_on_c, 1, 45, 0
3, 61680, Note_on_c, 1, 44, 107
3, 61776, Note_on_c, 1, 44, 0
3, 61800, Note_on_c, 1, 45, 107
3, 61848, Note_on_c, 1, 45, 0
3, 61860, Note_on_c, 1, 47, 107
3, 61908, Note_on_c, 1, 47, 0
3, 61920, Note_on_c, 1, 45, 107
3, 62016, Note_on_c, 1, 45, 0
3, 62040, Note_on_c, 1, 47, 107
3, 62088, Note_on_c, 1, 47, 0
3, 62100, Note_on_c, 1, 44, 107
3, 62148, Note_on_c, 1, 44, 0
3, 62160, Note_on_c, 1, 42, 107
3, 62256, Note_on_c, 1, 42, 0
3, 62280, Note_on_c, 1, 44, 107
3, 62328, Note_on_c, 1, 44, 0
3, 62340, Note_on_c, 1, 40, 107
3, 62388, Note_on_c, 1, 40, 0
3, 62400, Note_on_c, 1, 45, 107
3, 62592, Note_on_c, 1, 45, 0
3, 62640, Note_on_c, 1, 47, 107
3, 62832, Note_on_c, 1, 47, 0
3, 62880, Note_on_c, 1, 49, 107
3, 63072, Note_on_c, 1, 49, 0
3, 63120, Note_on_c, 1, 50, 107
3, 63312, Note_on_c, 1, 50, 0
3, 63360, Note_on_c, 1, 47, 107
3, 63384, Note_on_c, 1, 47, 0
3, 63390, Note_on_c, 1, 49, 107
3, 63414, Note_on_c, 1, 49, 0
3, 63420, Note_on_c, 1, 47, 107
3, 63672, Note_on_c, 1, 47, 0
3, 63720, Note_on_c, 1, 45, 107
3, 63840, Note_on_c, 1, 52, 107
3, 63912, Note_on_c, 1, 45, 0
3, 64032, Note_on_c, 1, 52, 0
3, 64080, Note_on_c, 1, 56, 107
3, 64272, Note_on_c, 1, 56, 0
3, 64320, Note_on_c, 1, 59, 107
3, 64560, Note_on_c, 1, 52, 107
3, 64704, Note_on_c, 1, 59, 0
3, 64752, Note_on_c, 1, 52, 0
3, 64800, Note_on_c, 1, 57, 107
3, 64992, Note_on_c, 1, 57, 0
3, 65040, Note_on_c, 1, 59, 107
3, 65232, Note_on_c, 1, 59, 0
3, 65280, Note_on_c, 1, 61, 107
3, 65520, Note_on_c, 1, 64, 107
3, 65712, Note_on_c, 1, 64, 0
3, 65760, Note_on_c, 1, 69, 107
3, 65856, Note_on_c, 1, 61, 0
3, 65952, Note_on_c, 1, 69, 0
3, 66000, Note_on_c, 1, 61, 107
3, 66000, Note_on_c, 1, 57, 107
3, 66192, Note_on_c, 1, 57, 0
3, 66192, Note_on_c, 1, 61, 0
3, 66240, Note_on_c, 1, 62, 107
3, 66240, Note_on_c, 1, 59, 107
3, 66432, Note_on_c, 1, 59, 0
3, 66432, Note_on_c, 1, 62, 0
3, 66480, Note_on_c, 1, 64, 107
3, 66480, Note_on_c, 1, 61, 107
3, 66672, Note_on_c, 1, 61, 0
3, 66672, Note_on_c, 1, 64, 0
3, 66720, Note_on_c, 1, 62, 107
3, 66912, Note_on_c, 1, 62, 0
3, 66960, Note_on_c, 1, 61, 107
3, 67073, Note_on_c, 1, 61, 0
3, 67080, Note_on_c, 1, 59, 107
3, 67176, Note_on_c, 1, 59, 0
3, 67200, Note_on_c, 1, 61, 107
3, 67392, Note_on_c, 1, 61, 0
3, 67440, Note_on_c, 1, 62, 107
3, 67632, Note_on_c, 1, 62, 0
3, 67680, Note_on_c, 1, 64, 107
3, 67872, Note_on_c, 1, 64, 0
3, 67920, Note_on_c, 1, 52, 107
3, 68112, Note_on_c, 1, 52, 0
3, 68160, Note_on_c, 1, 45, 107
3, 68160, Note_on_c, 1, 45, 107
3, 68520, Note_on_c, 1, 56, 107
3, 68544, Note_on_c, 1, 45, 0
3, 68616, Note_on_c, 1, 56, 0
3, 68640, Note_on_c, 1, 57, 107
3, 68640, Note_on_c, 1, 45, 107
3, 68736, Note_on_c, 1, 45, 0
3, 68760, Note_on_c, 1, 40, 107
3, 68856, Note_on_c, 1, 40, 0
3, 68880, Note_on_c, 1, 33, 107
3, 69264, Note_on_c, 1, 33, 0
3, 69264, Note_on_c, 1, 45, 0
3, 69264, Note_on_c, 1, 57, 0
3, 69264, End_track
4, 0, Start_track
4, 0, MIDI_port, 0
4, 0, Title_t, "Arr. Gary Bricault, (c) 1997"
4, 0, End_track
0, 0, End_of_file
