0, 0, Header, 1, 3, 384
1, 0, Start_track
1, 0, Time_signature, 4, 2, 24, 8
1, 0, Tempo, 500000
1, 403968, End_track
2, 0, Start_track
2, 0, Text_t, "harpsichord: John Sankey"
2, 0, Program_c, 0, 6
2, 0, Pitch_bend_c, 0, 8192
2, 0, Program_c, 1, 6
2, 0, Pitch_bend_c, 1, 7792
2, 0, Program_c, 2, 6
2, 0, Pitch_bend_c, 2, 7876
2, 0, Program_c, 3, 6
2, 0, Pitch_bend_c, 3, 7952
2, 0, Program_c, 4, 6
2, 0, Pitch_bend_c, 4, 7792
2, 0, Program_c, 5, 6
2, 0, Pitch_bend_c, 5, 8112
2, 0, Program_c, 6, 6
2, 0, Pitch_bend_c, 6, 7712
2, 0, Program_c, 7, 6
2, 0, Pitch_bend_c, 7, 8037
2, 0, Program_c, 8, 6
2, 0, Pitch_bend_c, 8, 7872
2, 0, Program_c, 10, 6
2, 0, Pitch_bend_c, 10, 7712
2, 0, Program_c, 11, 6
2, 0, Pitch_bend_c, 11, 8032
2, 0, Program_c, 12, 6
2, 0, Pitch_bend_c, 12, 7872
2, 0, Title_t, "Ger.8l"
2, 64, Note_on_c, 12, 71, 127
2, 197, Note_off_c, 12, 71, 127
2, 224, Note_on_c, 12, 71, 127
2, 224, Note_on_c, 7, 55, 127
2, 384, Note_on_c, 12, 59, 127
2, 542, Note_off_c, 12, 59, 127
2, 545, Note_on_c, 2, 62, 127
2, 703, Note_off_c, 2, 62, 127
2, 703, Note_off_c, 12, 71, 127
2, 705, Note_on_c, 0, 72, 127
2, 705, Note_on_c, 7, 67, 127
2, 858, Note_off_c, 7, 55, 127
2, 863, Note_off_c, 0, 72, 127
2, 865, Note_on_c, 2, 74, 127
2, 865, Note_on_c, 10, 57, 127
2, 943, Note_off_c, 2, 74, 127
2, 946, Note_on_c, 0, 72, 127
2, 1022, Note_off_c, 7, 67, 127
2, 1024, Note_off_c, 0, 72, 127
2, 1026, Note_on_c, 2, 74, 127
2, 1026, Note_on_c, 7, 67, 127
2, 1104, Note_off_c, 2, 74, 127
2, 1106, Note_on_c, 0, 72, 127
2, 1184, Note_off_c, 0, 72, 127
2, 1184, Note_off_c, 7, 67, 127
2, 1186, Note_on_c, 2, 74, 127
2, 1186, Note_on_c, 6, 66, 127
2, 1264, Note_off_c, 2, 74, 127
2, 1266, Note_on_c, 0, 72, 127
2, 1344, Note_off_c, 0, 72, 127
2, 1344, Note_off_c, 6, 66, 127
2, 1346, Note_on_c, 12, 71, 127
2, 1346, Note_on_c, 4, 64, 127
2, 1424, Note_off_c, 12, 71, 127
2, 1427, Note_on_c, 0, 72, 127
2, 1499, Note_off_c, 10, 57, 127
2, 1504, Note_off_c, 4, 64, 127
2, 1505, Note_off_c, 0, 72, 127
2, 1507, Note_on_c, 2, 74, 127
2, 1507, Note_on_c, 12, 59, 127
2, 1667, Note_on_c, 2, 62, 127
2, 1825, Note_off_c, 2, 62, 127
2, 1827, Note_on_c, 6, 66, 127
2, 1985, Note_off_c, 6, 66, 127
2, 1988, Note_on_c, 7, 67, 127
2, 2148, Note_on_c, 12, 71, 127
2, 2291, Note_off_c, 2, 74, 127
2, 2308, Note_on_c, 2, 74, 127
2, 2466, Note_off_c, 2, 74, 127
2, 2467, Note_off_c, 12, 59, 127
2, 2469, Note_on_c, 6, 78, 127
2, 2469, Note_on_c, 12, 59, 127
2, 2627, Note_off_c, 6, 78, 127
2, 2629, Note_on_c, 7, 79, 127
2, 2782, Note_off_c, 12, 71, 127
2, 2787, Note_off_c, 7, 79, 127
2, 2787, Note_off_c, 12, 59, 127
2, 2789, Note_on_c, 4, 76, 127
2, 2789, Note_on_c, 0, 60, 127
2, 2947, Note_off_c, 4, 76, 127
2, 2950, Note_on_c, 7, 79, 127
2, 3107, Note_off_c, 0, 60, 127
2, 3108, Note_off_c, 7, 79, 127
2, 3110, Note_on_c, 2, 74, 127
2, 3110, Note_on_c, 12, 59, 127
2, 3268, Note_off_c, 2, 74, 127
2, 3270, Note_on_c, 7, 79, 127
2, 3428, Note_off_c, 7, 79, 127
2, 3428, Note_off_c, 12, 59, 127
2, 3431, Note_on_c, 0, 72, 127
2, 3431, Note_on_c, 10, 57, 127
2, 3589, Note_off_c, 0, 72, 127
2, 3591, Note_on_c, 12, 71, 127
2, 3741, Note_off_c, 7, 67, 127
2, 3749, Note_off_c, 12, 71, 127
2, 3751, Note_on_c, 0, 72, 127
2, 3751, Note_on_c, 6, 66, 127
2, 3909, Note_off_c, 0, 72, 127
2, 3912, Note_on_c, 10, 81, 127
2, 4065, Note_off_c, 10, 57, 127
2, 4069, Note_off_c, 6, 66, 127
2, 4070, Note_off_c, 10, 81, 127
2, 4072, Note_on_c, 0, 72, 127
2, 4072, Note_on_c, 7, 55, 127
2, 4230, Note_off_c, 0, 72, 127
2, 4232, Note_on_c, 12, 71, 127
2, 4390, Note_off_c, 12, 71, 127
2, 4392, Note_on_c, 10, 69, 127
2, 4392, Note_on_c, 12, 59, 127
2, 4550, Note_off_c, 10, 69, 127
2, 4553, Note_on_c, 7, 67, 127
2, 4710, Note_off_c, 12, 59, 127
2, 4711, Note_off_c, 7, 67, 127
2, 4713, Note_on_c, 12, 71, 127
2, 4713, Note_on_c, 2, 62, 127
2, 4873, Note_off_c, 7, 55, 127
2, 4873, Note_on_c, 6, 54, 127
2, 5030, Note_off_c, 2, 62, 127
2, 5031, Note_off_c, 6, 54, 127
2, 5034, Note_on_c, 7, 67, 127
2, 5034, Note_on_c, 4, 52, 127
2, 5192, Note_off_c, 4, 52, 127
2, 5194, Note_on_c, 2, 50, 127
2, 5351, Note_off_c, 7, 67, 127
2, 5352, Note_off_c, 2, 50, 127
2, 5354, Note_on_c, 4, 64, 127
2, 5354, Note_on_c, 1, 49, 127
2, 5481, Note_off_c, 12, 71, 127
2, 5515, Note_on_c, 4, 76, 127
2, 5673, Note_off_c, 4, 76, 127
2, 5675, Note_on_c, 10, 69, 127
2, 5675, Note_on_c, 4, 52, 127
2, 5833, Note_off_c, 10, 69, 127
2, 5835, Note_on_c, 4, 76, 127
2, 5988, Note_off_c, 4, 64, 127
2, 5993, Note_off_c, 4, 76, 127
2, 5993, Note_off_c, 4, 52, 127
2, 5996, Note_on_c, 7, 67, 127
2, 5996, Note_on_c, 10, 57, 127
2, 6154, Note_off_c, 7, 67, 127
2, 6156, Note_on_c, 6, 66, 127
2, 6314, Note_off_c, 6, 66, 127
2, 6314, Note_off_c, 1, 49, 127
2, 6316, Note_on_c, 7, 67, 127
2, 6316, Note_on_c, 1, 49, 127
2, 6474, Note_off_c, 7, 67, 127
2, 6477, Note_on_c, 4, 76, 127
2, 6630, Note_off_c, 10, 57, 127
2, 6634, Note_off_c, 1, 49, 127
2, 6635, Note_off_c, 4, 76, 127
2, 6637, Note_on_c, 7, 67, 127
2, 6637, Note_on_c, 2, 50, 127
2, 6795, Note_off_c, 7, 67, 127
2, 6797, Note_on_c, 6, 66, 127
2, 6955, Note_off_c, 6, 66, 127
2, 6958, Note_on_c, 4, 64, 127
2, 6958, Note_on_c, 6, 54, 127
2, 7116, Note_off_c, 4, 64, 127
2, 7118, Note_on_c, 2, 62, 127
2, 7276, Note_off_c, 2, 62, 127
2, 7276, Note_off_c, 6, 54, 127
2, 7278, Note_on_c, 4, 64, 127
2, 7278, Note_on_c, 10, 57, 127
2, 7436, Note_off_c, 4, 64, 127
2, 7439, Note_on_c, 6, 66, 127
2, 7597, Note_off_c, 6, 66, 127
2, 7597, Note_off_c, 2, 50, 127
2, 7599, Note_on_c, 7, 67, 127
2, 7599, Note_on_c, 0, 48, 127
2, 7757, Note_off_c, 7, 67, 127
2, 7759, Note_on_c, 6, 66, 127
2, 7912, Note_off_c, 10, 57, 127
2, 7917, Note_off_c, 6, 66, 127
2, 7917, Note_off_c, 0, 48, 127
2, 7920, Note_on_c, 7, 67, 127
2, 7920, Note_on_c, 12, 47, 127
2, 7920, Note_on_c, 2, 50, 127
2, 8078, Note_off_c, 7, 67, 127
2, 8080, Note_on_c, 10, 69, 127
2, 8238, Note_off_c, 10, 69, 127
2, 8238, Note_off_c, 2, 50, 127
2, 8240, Note_on_c, 7, 67, 127
2, 8240, Note_on_c, 7, 55, 127
2, 8398, Note_off_c, 7, 67, 127
2, 8400, Note_on_c, 10, 69, 127
2, 8554, Note_off_c, 12, 47, 127
2, 8558, Note_off_c, 10, 69, 127
2, 8561, Note_on_c, 12, 71, 127
2, 8561, Note_on_c, 10, 45, 127
2, 8639, Note_off_c, 12, 71, 127
2, 8641, Note_on_c, 10, 69, 127
2, 8719, Note_off_c, 10, 69, 127
2, 8721, Note_on_c, 12, 71, 127
2, 8799, Note_off_c, 12, 71, 127
2, 8801, Note_on_c, 10, 69, 127
2, 8874, Note_off_c, 7, 55, 127
2, 8879, Note_off_c, 10, 69, 127
2, 8881, Note_on_c, 12, 71, 127
2, 8881, Note_on_c, 6, 54, 127
2, 8959, Note_off_c, 12, 71, 127
2, 8962, Note_on_c, 10, 69, 127
2, 9040, Note_off_c, 10, 69, 127
2, 9042, Note_on_c, 7, 67, 127
2, 9120, Note_off_c, 7, 67, 127
2, 9122, Note_on_c, 10, 69, 127
2, 9195, Note_off_c, 10, 45, 127
2, 9199, Note_off_c, 6, 54, 127
2, 9200, Note_off_c, 10, 69, 127
2, 9202, Note_on_c, 12, 71, 127
2, 9202, Note_on_c, 7, 55, 127
2, 9362, Note_on_c, 7, 43, 127
2, 9520, Note_off_c, 7, 43, 127
2, 9523, Note_on_c, 12, 47, 127
2, 9681, Note_off_c, 12, 47, 127
2, 9683, Note_on_c, 2, 50, 127
2, 9769, Note_off_c, 7, 55, 127
2, 9769, Note_off_c, 12, 71, 127
2, 9841, Note_off_c, 2, 50, 127
2, 9843, Note_on_c, 7, 55, 127
2, 10004, Note_on_c, 12, 71, 127
2, 10161, Note_off_c, 7, 55, 127
2, 10162, Note_off_c, 12, 71, 127
2, 10164, Note_on_c, 4, 76, 127
2, 10164, Note_on_c, 10, 57, 127
2, 10322, Note_off_c, 10, 57, 127
2, 10322, Note_off_c, 4, 76, 127
2, 10324, Note_on_c, 3, 75, 127
2, 10324, Note_on_c, 12, 59, 127
2, 10482, Note_off_c, 12, 59, 127
2, 10482, Note_off_c, 3, 75, 127
2, 10485, Note_on_c, 4, 76, 127
2, 10485, Note_on_c, 0, 60, 127
2, 10643, Note_off_c, 4, 76, 127
2, 10645, Note_on_c, 6, 78, 127
2, 10803, Note_off_c, 6, 78, 127
2, 10803, Note_off_c, 0, 60, 127
2, 10805, Note_on_c, 4, 76, 127
2, 10805, Note_on_c, 4, 64, 127
2, 10805, Note_on_c, 7, 55, 127
2, 10963, Note_off_c, 4, 76, 127
2, 10966, Note_on_c, 6, 78, 127
2, 11123, Note_off_c, 7, 55, 127
2, 11124, Note_off_c, 6, 78, 127
2, 11126, Note_on_c, 7, 79, 127
2, 11126, Note_on_c, 10, 57, 127
2, 11204, Note_off_c, 7, 79, 127
2, 11206, Note_on_c, 6, 78, 127
2, 11284, Note_off_c, 6, 78, 127
2, 11286, Note_on_c, 7, 79, 127
2, 11364, Note_off_c, 7, 79, 127
2, 11366, Note_on_c, 6, 78, 127
2, 11439, Note_off_c, 4, 64, 127
2, 11444, Note_off_c, 6, 78, 127
2, 11444, Note_off_c, 10, 57, 127
2, 11447, Note_on_c, 7, 79, 127
2, 11447, Note_on_c, 12, 59, 127
2, 11447, Note_on_c, 3, 63, 127
2, 11525, Note_off_c, 7, 79, 127
2, 11527, Note_on_c, 6, 78, 127
2, 11605, Note_off_c, 6, 78, 127
2, 11607, Note_on_c, 4, 76, 127
2, 11685, Note_off_c, 4, 76, 127
2, 11687, Note_on_c, 6, 78, 127
2, 11765, Note_off_c, 6, 78, 127
2, 11765, Note_off_c, 3, 63, 127
2, 11765, Note_off_c, 12, 59, 127
2, 11767, Note_on_c, 7, 79, 127
2, 11767, Note_on_c, 4, 64, 127
2, 11928, Note_on_c, 12, 59, 127
2, 12086, Note_off_c, 12, 59, 127
2, 12088, Note_on_c, 7, 55, 127
2, 12246, Note_off_c, 7, 55, 127
2, 12248, Note_on_c, 12, 59, 127
2, 12401, Note_off_c, 4, 64, 127
2, 12406, Note_off_c, 12, 59, 127
2, 12408, Note_on_c, 4, 52, 127
2, 12566, Note_off_c, 7, 79, 127
2, 12569, Note_on_c, 6, 78, 127
2, 12726, Note_off_c, 4, 52, 127
2, 12727, Note_off_c, 6, 78, 127
2, 12729, Note_on_c, 4, 76, 127
2, 12729, Note_on_c, 7, 55, 127
2, 12887, Note_off_c, 4, 76, 127
2, 12889, Note_on_c, 2, 74, 127
2, 13047, Note_off_c, 2, 74, 127
2, 13047, Note_off_c, 7, 55, 127
2, 13050, Note_on_c, 1, 73, 127
2, 13050, Note_on_c, 10, 57, 127
2, 13210, Note_on_c, 4, 76, 127
2, 13250, Note_off_c, 1, 73, 127
2, 13368, Note_off_c, 4, 76, 127
2, 13370, Note_on_c, 12, 71, 127
2, 13370, Note_on_c, 12, 59, 127
2, 13531, Note_on_c, 4, 76, 127
2, 13570, Note_off_c, 12, 71, 127
2, 13688, Note_off_c, 12, 59, 127
2, 13689, Note_off_c, 4, 76, 127
2, 13691, Note_on_c, 10, 69, 127
2, 13691, Note_on_c, 1, 61, 127
2, 13849, Note_off_c, 10, 69, 127
2, 13851, Note_on_c, 7, 79, 127
2, 14009, Note_off_c, 7, 79, 127
2, 14010, Note_off_c, 10, 57, 127
2, 14012, Note_on_c, 6, 78, 127
2, 14012, Note_on_c, 10, 57, 127
2, 14170, Note_off_c, 6, 78, 127
2, 14172, Note_on_c, 4, 76, 127
2, 14325, Note_off_c, 1, 61, 127
2, 14330, Note_off_c, 4, 76, 127
2, 14330, Note_off_c, 10, 57, 127
2, 14332, Note_on_c, 6, 78, 127
2, 14332, Note_on_c, 2, 62, 127
2, 14332, Note_on_c, 2, 50, 127
2, 14493, Note_on_c, 10, 81, 127
2, 14532, Note_off_c, 6, 78, 127
2, 14650, Note_off_c, 2, 50, 127
2, 14651, Note_off_c, 10, 81, 127
2, 14653, Note_on_c, 4, 76, 127
2, 14653, Note_on_c, 4, 52, 127
2, 14813, Note_on_c, 10, 81, 127
2, 14853, Note_off_c, 4, 76, 127
2, 14971, Note_off_c, 10, 81, 127
2, 14971, Note_off_c, 4, 52, 127
2, 14974, Note_on_c, 2, 74, 127
2, 14974, Note_on_c, 6, 54, 127
2, 15132, Note_off_c, 2, 74, 127
2, 15134, Note_on_c, 0, 72, 127
2, 15292, Note_off_c, 0, 72, 127
2, 15292, Note_off_c, 6, 54, 127
2, 15294, Note_on_c, 12, 71, 127
2, 15294, Note_on_c, 2, 50, 127
2, 15452, Note_off_c, 12, 71, 127
2, 15455, Note_on_c, 10, 69, 127
2, 15612, Note_off_c, 2, 50, 127
2, 15613, Note_off_c, 10, 69, 127
2, 15615, Note_on_c, 12, 71, 127
2, 15615, Note_on_c, 7, 55, 127
2, 15775, Note_on_c, 2, 74, 127
2, 15815, Note_off_c, 12, 71, 127
2, 15933, Note_off_c, 2, 74, 127
2, 15935, Note_off_c, 2, 62, 127
2, 15936, Note_on_c, 10, 69, 127
2, 15936, Note_on_c, 0, 60, 127
2, 16096, Note_on_c, 2, 74, 127
2, 16136, Note_off_c, 10, 69, 127
2, 16254, Note_off_c, 2, 74, 127
2, 16254, Note_off_c, 0, 60, 127
2, 16256, Note_on_c, 7, 67, 127
2, 16256, Note_on_c, 12, 59, 127
2, 16416, Note_on_c, 2, 74, 127
2, 16456, Note_off_c, 7, 67, 127
2, 16574, Note_off_c, 2, 74, 127
2, 16574, Note_off_c, 12, 59, 127
2, 16577, Note_on_c, 6, 66, 127
2, 16577, Note_on_c, 10, 57, 127
2, 16737, Note_on_c, 2, 74, 127
2, 16777, Note_off_c, 6, 66, 127
2, 16895, Note_off_c, 2, 74, 127
2, 16895, Note_off_c, 10, 57, 127
2, 16895, Note_off_c, 7, 55, 127
2, 16897, Note_on_c, 4, 64, 127
2, 16897, Note_on_c, 7, 55, 127
2, 17055, Note_off_c, 4, 64, 127
2, 17058, Note_on_c, 2, 74, 127
2, 17216, Note_off_c, 2, 74, 127
2, 17218, Note_on_c, 1, 73, 127
2, 17218, Note_on_c, 4, 52, 127
2, 17376, Note_off_c, 1, 73, 127
2, 17378, Note_on_c, 12, 71, 127
2, 17536, Note_off_c, 12, 71, 127
2, 17536, Note_off_c, 4, 52, 127
2, 17539, Note_on_c, 1, 73, 127
2, 17539, Note_on_c, 10, 45, 127
2, 17697, Note_off_c, 1, 73, 127
2, 17699, Note_on_c, 4, 76, 127
2, 17857, Note_off_c, 4, 76, 127
2, 17857, Note_off_c, 10, 45, 127
2, 17857, Note_off_c, 7, 55, 127
2, 17859, Note_on_c, 10, 69, 127
2, 17859, Note_on_c, 4, 52, 127
2, 17859, Note_on_c, 1, 49, 127
2, 18017, Note_off_c, 10, 69, 127
2, 18020, Note_on_c, 7, 79, 127
2, 18177, Note_off_c, 1, 49, 127
2, 18177, Note_off_c, 4, 52, 127
2, 18178, Note_off_c, 7, 79, 127
2, 18180, Note_on_c, 6, 78, 127
2, 18180, Note_on_c, 2, 50, 127
2, 18338, Note_off_c, 6, 78, 127
2, 18340, Note_on_c, 4, 76, 127
2, 18498, Note_off_c, 4, 76, 127
2, 18501, Note_on_c, 6, 78, 127
2, 18501, Note_on_c, 7, 43, 127
2, 18647, Note_off_c, 2, 50, 127
2, 18659, Note_off_c, 6, 78, 127
2, 18661, Note_on_c, 2, 74, 127
2, 18661, Note_on_c, 4, 52, 127
2, 18801, Note_off_c, 2, 74, 127
2, 18818, Note_off_c, 7, 43, 127
2, 18819, Note_off_c, 4, 52, 127
2, 18821, Note_on_c, 2, 74, 127
2, 18821, Note_on_c, 6, 54, 127
2, 18821, Note_on_c, 10, 45, 127
2, 18899, Note_off_c, 2, 74, 127
2, 18901, Note_on_c, 1, 73, 127
2, 18979, Note_off_c, 1, 73, 127
2, 18982, Note_on_c, 2, 74, 127
2, 19060, Note_off_c, 2, 74, 127
2, 19062, Note_on_c, 1, 73, 127
2, 19139, Note_off_c, 6, 54, 127
2, 19142, Note_on_c, 7, 55, 127
2, 19300, Note_off_c, 1, 73, 127
2, 19302, Note_on_c, 2, 74, 127
2, 19455, Note_off_c, 10, 45, 127
2, 19460, Note_off_c, 2, 74, 127
2, 19460, Note_off_c, 7, 55, 127
2, 19463, Note_on_c, 2, 74, 127
2, 19463, Note_on_c, 2, 50, 127
2, 19463, Note_on_c, 6, 54, 127
2, 19621, Note_off_c, 6, 54, 127
2, 19623, Note_on_c, 2, 62, 127
2, 19696, Note_off_c, 2, 50, 127
2, 19781, Note_off_c, 2, 62, 127
2, 19783, Note_on_c, 4, 52, 127
2, 19783, Note_on_c, 7, 55, 127
2, 19941, Note_off_c, 7, 55, 127
2, 19944, Note_on_c, 2, 62, 127
2, 20016, Note_off_c, 4, 52, 127
2, 20102, Note_off_c, 2, 62, 127
2, 20104, Note_on_c, 6, 54, 127
2, 20104, Note_on_c, 10, 57, 127
2, 20262, Note_off_c, 10, 57, 127
2, 20262, Note_off_c, 2, 74, 127
2, 20264, Note_on_c, 6, 78, 127
2, 20264, Note_on_c, 2, 62, 127
2, 20337, Note_off_c, 6, 54, 127
2, 20422, Note_off_c, 2, 62, 127
2, 20422, Note_off_c, 6, 78, 127
2, 20424, Note_on_c, 10, 81, 127
2, 20424, Note_on_c, 2, 50, 127
2, 20424, Note_on_c, 6, 54, 127
2, 20582, Note_off_c, 6, 54, 127
2, 20582, Note_off_c, 2, 50, 127
2, 20582, Note_off_c, 10, 81, 127
2, 20585, Note_on_c, 0, 84, 127
2, 20585, Note_on_c, 2, 62, 127
2, 20743, Note_off_c, 2, 62, 127
2, 20743, Note_off_c, 0, 84, 127
2, 20745, Note_on_c, 12, 83, 127
2, 20745, Note_on_c, 7, 55, 127
2, 20905, Note_on_c, 2, 62, 127
2, 20978, Note_off_c, 7, 55, 127
2, 21063, Note_off_c, 2, 62, 127
2, 21066, Note_on_c, 10, 57, 127
2, 21224, Note_off_c, 12, 83, 127
2, 21226, Note_on_c, 10, 81, 127
2, 21226, Note_on_c, 2, 62, 127
2, 21299, Note_off_c, 10, 57, 127
2, 21384, Note_off_c, 2, 62, 127
2, 21384, Note_off_c, 10, 81, 127
2, 21386, Note_on_c, 7, 79, 127
2, 21386, Note_on_c, 12, 59, 127
2, 21544, Note_off_c, 7, 79, 127
2, 21547, Note_on_c, 6, 78, 127
2, 21547, Note_on_c, 2, 62, 127
2, 21619, Note_off_c, 12, 59, 127
2, 21705, Note_off_c, 2, 62, 127
2, 21705, Note_off_c, 6, 78, 127
2, 21707, Note_on_c, 4, 76, 127
2, 21707, Note_on_c, 7, 55, 127
2, 21865, Note_off_c, 7, 55, 127
2, 21865, Note_off_c, 4, 76, 127
2, 21867, Note_on_c, 2, 74, 127
2, 21867, Note_on_c, 2, 62, 127
2, 22025, Note_off_c, 2, 62, 127
2, 22025, Note_off_c, 2, 74, 127
2, 22028, Note_on_c, 7, 79, 127
2, 22028, Note_on_c, 4, 52, 127
2, 22188, Note_on_c, 2, 62, 127
2, 22261, Note_off_c, 4, 52, 127
2, 22346, Note_off_c, 2, 62, 127
2, 22348, Note_on_c, 6, 54, 127
2, 22507, Note_off_c, 7, 79, 127
2, 22509, Note_on_c, 6, 78, 127
2, 22509, Note_on_c, 2, 62, 127
2, 22581, Note_off_c, 6, 54, 127
2, 22667, Note_off_c, 2, 62, 127
2, 22667, Note_off_c, 6, 78, 127
2, 22669, Note_on_c, 4, 76, 127
2, 22669, Note_on_c, 7, 55, 127
2, 22827, Note_off_c, 4, 76, 127
2, 22829, Note_on_c, 2, 74, 127
2, 22829, Note_on_c, 2, 62, 127
2, 22902, Note_off_c, 7, 55, 127
2, 22987, Note_off_c, 2, 62, 127
2, 22987, Note_off_c, 2, 74, 127
2, 22990, Note_on_c, 1, 73, 127
2, 22990, Note_on_c, 4, 52, 127
2, 23148, Note_off_c, 4, 52, 127
2, 23148, Note_off_c, 1, 73, 127
2, 23150, Note_on_c, 12, 71, 127
2, 23150, Note_on_c, 2, 62, 127
2, 23308, Note_off_c, 2, 62, 127
2, 23308, Note_off_c, 12, 71, 127
2, 23310, Note_on_c, 1, 73, 127
2, 23310, Note_on_c, 10, 57, 127
2, 23468, Note_off_c, 10, 57, 127
2, 23468, Note_off_c, 1, 73, 127
2, 23471, Note_on_c, 10, 69, 127
2, 23471, Note_on_c, 1, 61, 127
2, 23629, Note_off_c, 1, 61, 127
2, 23629, Note_off_c, 10, 69, 127
2, 23631, Note_on_c, 2, 74, 127
2, 23631, Note_on_c, 12, 59, 127
2, 23789, Note_off_c, 12, 59, 127
2, 23789, Note_off_c, 2, 74, 127
2, 23791, Note_on_c, 10, 69, 127
2, 23791, Note_on_c, 2, 62, 127
2, 23949, Note_off_c, 2, 62, 127
2, 23949, Note_off_c, 10, 69, 127
2, 23952, Note_on_c, 4, 76, 127
2, 23952, Note_on_c, 1, 61, 127
2, 24110, Note_off_c, 1, 61, 127
2, 24110, Note_off_c, 4, 76, 127
2, 24112, Note_on_c, 10, 69, 127
2, 24112, Note_on_c, 4, 64, 127
2, 24270, Note_off_c, 4, 64, 127
2, 24270, Note_off_c, 10, 69, 127
2, 24272, Note_on_c, 7, 79, 127
2, 24272, Note_on_c, 10, 57, 127
2, 24430, Note_off_c, 10, 57, 127
2, 24430, Note_off_c, 7, 79, 127
2, 24432, Note_on_c, 4, 76, 127
2, 24432, Note_on_c, 1, 61, 127
2, 24590, Note_off_c, 1, 61, 127
2, 24590, Note_off_c, 4, 76, 127
2, 24593, Note_on_c, 5, 77, 127
2, 24593, Note_on_c, 2, 62, 127
2, 24751, Note_off_c, 5, 77, 127
2, 24753, Note_on_c, 10, 69, 127
2, 24911, Note_off_c, 10, 69, 127
2, 24911, Note_off_c, 2, 62, 127
2, 24913, Note_on_c, 2, 74, 127
2, 24913, Note_on_c, 0, 60, 127
2, 25071, Note_off_c, 2, 74, 127
2, 25074, Note_on_c, 4, 76, 127
2, 25231, Note_off_c, 0, 60, 127
2, 25232, Note_off_c, 4, 76, 127
2, 25234, Note_on_c, 5, 77, 127
2, 25234, Note_on_c, 11, 58, 127
2, 25392, Note_off_c, 5, 77, 127
2, 25394, Note_on_c, 2, 74, 127
2, 25552, Note_off_c, 2, 74, 127
2, 25552, Note_off_c, 11, 58, 127
2, 25555, Note_on_c, 6, 78, 127
2, 25555, Note_on_c, 10, 57, 127
2, 25713, Note_off_c, 6, 78, 127
2, 25715, Note_on_c, 2, 74, 127
2, 25873, Note_off_c, 2, 74, 127
2, 25873, Note_off_c, 10, 57, 127
2, 25875, Note_on_c, 7, 79, 127
2, 25875, Note_on_c, 11, 58, 127
2, 26036, Note_on_c, 2, 74, 127
2, 26108, Note_off_c, 7, 79, 127
2, 26193, Note_off_c, 11, 58, 127
2, 26196, Note_on_c, 11, 82, 127
2, 26196, Note_on_c, 7, 55, 127
2, 26354, Note_off_c, 11, 82, 127
2, 26356, Note_on_c, 10, 81, 127
2, 26503, Note_off_c, 2, 74, 127
2, 26514, Note_off_c, 10, 81, 127
2, 26514, Note_off_c, 7, 55, 127
2, 26517, Note_on_c, 8, 80, 127
2, 26517, Note_on_c, 4, 52, 127
2, 26677, Note_on_c, 2, 74, 127
2, 26835, Note_off_c, 2, 74, 127
2, 26835, Note_off_c, 4, 52, 127
2, 26837, Note_on_c, 1, 73, 127
2, 26837, Note_on_c, 10, 57, 127
2, 26917, Note_off_c, 8, 80, 127
2, 26995, Note_off_c, 1, 73, 127
2, 26998, Note_on_c, 7, 79, 127
2, 27155, Note_off_c, 10, 57, 127
2, 27156, Note_off_c, 7, 79, 127
2, 27158, Note_on_c, 6, 78, 127
2, 27158, Note_on_c, 2, 62, 127
2, 27318, Note_on_c, 0, 72, 127
2, 27476, Note_off_c, 0, 72, 127
2, 27476, Note_off_c, 2, 62, 127
2, 27479, Note_on_c, 12, 71, 127
2, 27479, Note_on_c, 7, 55, 127
2, 27625, Note_off_c, 6, 78, 127
2, 27637, Note_off_c, 12, 71, 127
2, 27639, Note_on_c, 4, 76, 127
2, 27797, Note_off_c, 7, 55, 127
2, 27799, Note_on_c, 6, 66, 127
2, 27799, Note_on_c, 10, 69, 127
2, 27799, Note_on_c, 10, 57, 127
2, 27956, Note_off_c, 4, 76, 127
2, 27957, Note_off_c, 10, 69, 127
2, 27960, Note_on_c, 2, 74, 127
2, 28032, Note_off_c, 6, 66, 127
2, 28120, Note_on_c, 4, 64, 127
2, 28120, Note_on_c, 7, 67, 127
2, 28277, Note_off_c, 2, 74, 127
2, 28278, Note_off_c, 7, 67, 127
2, 28280, Note_on_c, 1, 73, 127
2, 28353, Note_off_c, 4, 64, 127
2, 28438, Note_off_c, 1, 73, 127
2, 28438, Note_off_c, 10, 57, 127
2, 28440, Note_on_c, 2, 74, 127
2, 28440, Note_on_c, 2, 62, 127
2, 28601, Note_on_c, 7, 67, 127
2, 28759, Note_off_c, 7, 67, 127
2, 28761, Note_on_c, 10, 69, 127
2, 28921, Note_on_c, 4, 64, 127
2, 29079, Note_off_c, 4, 64, 127
2, 29082, Note_on_c, 6, 66, 127
2, 29239, Note_off_c, 2, 62, 127
2, 29242, Note_on_c, 1, 61, 127
2, 29400, Note_off_c, 1, 61, 127
2, 29402, Note_on_c, 2, 62, 127
2, 29563, Note_on_c, 10, 57, 127
2, 29721, Note_off_c, 10, 57, 127
2, 29723, Note_on_c, 2, 50, 127
2, 30581, Note_on_c, 6, 78, 127
2, 30602, Note_off_c, 2, 62, 127
2, 30790, Note_off_c, 2, 74, 127
2, 30821, Note_off_c, 10, 69, 127
2, 30822, Note_off_c, 6, 66, 127
2, 30885, Note_off_c, 6, 78, 127
2, 30893, Note_off_c, 2, 50, 127
2, 30910, Note_on_c, 2, 50, 127
2, 30910, Note_on_c, 6, 78, 127
2, 30910, Note_on_c, 2, 74, 127
2, 30910, Note_on_c, 10, 69, 127
2, 31068, Note_off_c, 2, 50, 127
2, 31070, Note_on_c, 6, 54, 127
2, 31228, Note_off_c, 6, 54, 127
2, 31230, Note_on_c, 10, 57, 127
2, 31388, Note_off_c, 10, 57, 127
2, 31389, Note_off_c, 10, 69, 127
2, 31389, Note_off_c, 2, 74, 127
2, 31389, Note_off_c, 6, 78, 127
2, 31391, Note_on_c, 0, 60, 127
2, 31391, Note_on_c, 7, 79, 127
2, 31549, Note_off_c, 7, 79, 127
2, 31549, Note_off_c, 0, 60, 127
2, 31551, Note_on_c, 12, 59, 127
2, 31551, Note_on_c, 10, 81, 127
2, 31629, Note_off_c, 10, 81, 127
2, 31631, Note_on_c, 7, 79, 127
2, 31709, Note_off_c, 7, 79, 127
2, 31709, Note_off_c, 12, 59, 127
2, 31711, Note_on_c, 10, 57, 127
2, 31711, Note_on_c, 10, 81, 127
2, 31789, Note_off_c, 10, 81, 127
2, 31791, Note_on_c, 7, 79, 127
2, 31869, Note_off_c, 7, 79, 127
2, 31869, Note_off_c, 10, 57, 127
2, 31872, Note_on_c, 12, 59, 127
2, 31872, Note_on_c, 10, 81, 127
2, 31950, Note_off_c, 10, 81, 127
2, 31952, Note_on_c, 7, 79, 127
2, 32030, Note_off_c, 7, 79, 127
2, 32030, Note_off_c, 12, 59, 127
2, 32032, Note_on_c, 7, 55, 127
2, 32032, Note_on_c, 6, 78, 127
2, 32110, Note_off_c, 6, 78, 127
2, 32112, Note_on_c, 7, 79, 127
2, 32190, Note_off_c, 7, 79, 127
2, 32190, Note_off_c, 7, 55, 127
2, 32192, Note_on_c, 6, 54, 127
2, 32192, Note_on_c, 10, 81, 127
2, 32352, Note_on_c, 10, 57, 127
2, 32510, Note_off_c, 10, 57, 127
2, 32513, Note_on_c, 0, 60, 127
2, 32671, Note_off_c, 0, 60, 127
2, 32673, Note_on_c, 4, 64, 127
2, 32831, Note_off_c, 4, 64, 127
2, 32833, Note_on_c, 2, 62, 127
2, 32926, Note_off_c, 10, 81, 127
2, 32994, Note_on_c, 0, 72, 127
2, 33151, Note_off_c, 2, 62, 127
2, 33152, Note_off_c, 0, 72, 127
2, 33152, Note_off_c, 6, 54, 127
2, 33154, Note_on_c, 10, 57, 127
2, 33154, Note_on_c, 6, 54, 127
2, 33154, Note_on_c, 2, 74, 127
2, 33312, Note_off_c, 2, 74, 127
2, 33314, Note_on_c, 10, 69, 127
2, 33472, Note_off_c, 10, 69, 127
2, 33472, Note_off_c, 6, 54, 127
2, 33472, Note_off_c, 10, 57, 127
2, 33475, Note_on_c, 7, 55, 127
2, 33475, Note_on_c, 12, 71, 127
2, 33633, Note_off_c, 12, 71, 127
2, 33635, Note_on_c, 3, 75, 127
2, 33793, Note_off_c, 3, 75, 127
2, 33793, Note_off_c, 7, 55, 127
2, 33795, Note_on_c, 4, 52, 127
2, 33795, Note_on_c, 0, 48, 127
2, 33795, Note_on_c, 4, 76, 127
2, 33953, Note_off_c, 4, 76, 127
2, 33956, Note_on_c, 7, 79, 127
2, 34113, Note_off_c, 0, 48, 127
2, 34114, Note_off_c, 7, 79, 127
2, 34116, Note_on_c, 10, 45, 127
2, 34116, Note_on_c, 6, 78, 127
2, 34276, Note_on_c, 0, 72, 127
2, 34429, Note_off_c, 4, 52, 127
2, 34433, Note_off_c, 6, 78, 127
2, 34434, Note_off_c, 0, 72, 127
2, 34434, Note_off_c, 10, 45, 127
2, 34437, Note_on_c, 3, 51, 127
2, 34437, Note_on_c, 12, 47, 127
2, 34437, Note_on_c, 12, 71, 127
2, 34595, Note_off_c, 12, 71, 127
2, 34597, Note_on_c, 10, 81, 127
2, 34755, Note_off_c, 10, 81, 127
2, 34755, Note_off_c, 12, 47, 127
2, 34755, Note_off_c, 3, 51, 127
2, 34757, Note_on_c, 4, 40, 127
2, 34757, Note_on_c, 4, 52, 127
2, 34757, Note_on_c, 7, 79, 127
2, 34918, Note_on_c, 3, 75, 127
2, 34957, Note_off_c, 7, 79, 127
2, 35076, Note_off_c, 3, 75, 127
2, 35078, Note_on_c, 4, 76, 127
2, 35236, Note_off_c, 4, 76, 127
2, 35238, Note_on_c, 7, 79, 127
2, 35391, Note_off_c, 4, 52, 127
2, 35391, Note_off_c, 4, 40, 127
2, 35396, Note_off_c, 7, 79, 127
2, 35399, Note_on_c, 0, 72, 127
2, 35477, Note_off_c, 0, 72, 127
2, 35479, Note_on_c, 12, 71, 127
2, 35557, Note_off_c, 12, 71, 127
2, 35559, Note_on_c, 4, 52, 127
2, 35559, Note_on_c, 0, 72, 127
2, 35717, Note_off_c, 4, 52, 127
2, 35719, Note_on_c, 6, 54, 127
2, 35877, Note_off_c, 6, 54, 127
2, 35877, Note_off_c, 0, 72, 127
2, 35880, Note_on_c, 2, 50, 127
2, 35880, Note_on_c, 0, 72, 127
2, 36038, Note_off_c, 0, 72, 127
2, 36038, Note_off_c, 2, 50, 127
2, 36040, Note_on_c, 7, 55, 127
2, 36040, Note_on_c, 0, 72, 127
2, 36198, Note_off_c, 0, 72, 127
2, 36200, Note_on_c, 10, 69, 127
2, 36358, Note_off_c, 10, 69, 127
2, 36358, Note_off_c, 7, 55, 127
2, 36360, Note_on_c, 7, 43, 127
2, 36360, Note_on_c, 12, 71, 127
2, 36518, Note_off_c, 12, 71, 127
2, 36521, Note_on_c, 4, 76, 127
2, 36677, Note_off_c, 7, 43, 127
2, 36679, Note_off_c, 4, 76, 127
2, 36681, Note_on_c, 10, 69, 127
2, 36759, Note_off_c, 10, 69, 127
2, 36761, Note_on_c, 8, 68, 127
2, 36839, Note_off_c, 8, 68, 127
2, 36841, Note_on_c, 1, 49, 127
2, 36841, Note_on_c, 10, 69, 127
2, 36999, Note_off_c, 1, 49, 127
2, 37002, Note_on_c, 3, 51, 127
2, 37159, Note_off_c, 10, 69, 127
2, 37160, Note_off_c, 3, 51, 127
2, 37162, Note_on_c, 12, 47, 127
2, 37162, Note_on_c, 10, 69, 127
2, 37320, Note_off_c, 10, 69, 127
2, 37320, Note_off_c, 12, 47, 127
2, 37322, Note_on_c, 4, 52, 127
2, 37322, Note_on_c, 10, 69, 127
2, 37480, Note_off_c, 10, 69, 127
2, 37483, Note_on_c, 6, 66, 127
2, 37640, Note_off_c, 4, 52, 127
2, 37641, Note_off_c, 6, 66, 127
2, 37643, Note_on_c, 4, 40, 127
2, 37643, Note_on_c, 7, 67, 127
2, 37801, Note_off_c, 7, 67, 127
2, 37803, Note_on_c, 0, 72, 127
2, 37960, Note_off_c, 4, 40, 127
2, 37961, Note_off_c, 0, 72, 127
2, 37964, Note_on_c, 5, 65, 127
2, 38042, Note_off_c, 5, 65, 127
2, 38044, Note_on_c, 4, 64, 127
2, 38122, Note_off_c, 4, 64, 127
2, 38124, Note_on_c, 10, 45, 127
2, 38124, Note_on_c, 5, 65, 127
2, 38282, Note_off_c, 10, 45, 127
2, 38284, Note_on_c, 12, 47, 127
2, 38442, Note_off_c, 12, 47, 127
2, 38442, Note_off_c, 5, 65, 127
2, 38445, Note_on_c, 7, 43, 127
2, 38445, Note_on_c, 5, 65, 127
2, 38603, Note_off_c, 5, 65, 127
2, 38603, Note_off_c, 7, 43, 127
2, 38605, Note_on_c, 0, 48, 127
2, 38605, Note_on_c, 5, 65, 127
2, 38765, Note_on_c, 3, 63, 127
2, 38805, Note_off_c, 5, 65, 127
2, 38923, Note_off_c, 3, 63, 127
2, 38923, Note_off_c, 0, 48, 127
2, 38926, Note_on_c, 1, 49, 127
2, 38926, Note_on_c, 4, 64, 127
2, 39084, Note_off_c, 4, 64, 127
2, 39086, Note_on_c, 10, 69, 127
2, 39244, Note_off_c, 10, 69, 127
2, 39244, Note_off_c, 1, 49, 127
2, 39246, Note_on_c, 2, 50, 127
2, 39246, Note_on_c, 7, 67, 127
2, 39407, Note_on_c, 4, 64, 127
2, 39446, Note_off_c, 7, 67, 127
2, 39564, Note_off_c, 2, 50, 127
2, 39565, Note_off_c, 4, 64, 127
2, 39567, Note_on_c, 3, 51, 127
2, 39567, Note_on_c, 6, 66, 127
2, 39725, Note_off_c, 6, 66, 127
2, 39727, Note_on_c, 12, 71, 127
2, 39885, Note_off_c, 12, 71, 127
2, 39885, Note_off_c, 3, 51, 127
2, 39888, Note_on_c, 4, 52, 127
2, 39888, Note_on_c, 10, 69, 127
2, 40048, Note_on_c, 6, 66, 127
2, 40088, Note_off_c, 10, 69, 127
2, 40206, Note_off_c, 6, 66, 127
2, 40206, Note_off_c, 4, 52, 127
2, 40208, Note_on_c, 4, 40, 127
2, 40208, Note_on_c, 7, 67, 127
2, 40366, Note_off_c, 7, 67, 127
2, 40368, Note_on_c, 0, 72, 127
2, 40526, Note_off_c, 0, 72, 127
2, 40526, Note_off_c, 4, 40, 127
2, 40529, Note_on_c, 6, 42, 127
2, 40529, Note_on_c, 12, 71, 127
2, 40689, Note_on_c, 7, 67, 127
2, 40729, Note_off_c, 12, 71, 127
2, 40847, Note_off_c, 7, 67, 127
2, 40847, Note_off_c, 6, 42, 127
2, 40849, Note_on_c, 6, 54, 127
2, 40849, Note_on_c, 10, 69, 127
2, 41007, Note_off_c, 10, 69, 127
2, 41010, Note_on_c, 2, 74, 127
2, 41167, Note_off_c, 6, 54, 127
2, 41168, Note_off_c, 2, 74, 127
2, 41170, Note_on_c, 7, 55, 127
2, 41170, Note_on_c, 0, 72, 127
2, 41328, Note_off_c, 0, 72, 127
2, 41330, Note_on_c, 10, 69, 127
2, 41488, Note_off_c, 10, 69, 127
2, 41488, Note_off_c, 7, 55, 127
2, 41491, Note_on_c, 7, 43, 127
2, 41491, Note_on_c, 12, 71, 127
2, 41649, Note_off_c, 12, 71, 127
2, 41651, Note_on_c, 2, 74, 127
2, 41808, Note_off_c, 7, 43, 127
2, 41809, Note_off_c, 2, 74, 127
2, 41811, Note_on_c, 7, 79, 127
2, 41889, Note_off_c, 7, 79, 127
2, 41892, Note_on_c, 6, 78, 127
2, 41970, Note_off_c, 6, 78, 127
2, 41972, Note_on_c, 4, 52, 127
2, 41972, Note_on_c, 7, 79, 127
2, 42132, Note_on_c, 7, 55, 127
2, 42290, Note_off_c, 7, 55, 127
2, 42290, Note_off_c, 7, 79, 127
2, 42292, Note_on_c, 12, 59, 127
2, 42292, Note_on_c, 7, 79, 127
2, 42439, Note_off_c, 4, 52, 127
2, 42450, Note_off_c, 7, 79, 127
2, 42450, Note_off_c, 12, 59, 127
2, 42453, Note_on_c, 0, 48, 127
2, 42453, Note_on_c, 7, 79, 127
2, 42611, Note_off_c, 7, 79, 127
2, 42613, Note_on_c, 12, 71, 127
2, 42771, Note_off_c, 12, 71, 127
2, 42773, Note_on_c, 7, 55, 127
2, 42773, Note_on_c, 0, 72, 127
2, 42931, Note_off_c, 0, 72, 127
2, 42934, Note_on_c, 4, 76, 127
2, 43087, Note_off_c, 0, 48, 127
2, 43091, Note_off_c, 7, 55, 127
2, 43092, Note_off_c, 4, 76, 127
2, 43094, Note_on_c, 0, 60, 127
2, 43094, Note_on_c, 10, 69, 127
2, 43254, Note_on_c, 7, 79, 127
2, 43412, Note_off_c, 7, 79, 127
2, 43415, Note_on_c, 10, 57, 127
2, 43415, Note_on_c, 6, 78, 127
2, 43573, Note_off_c, 6, 78, 127
2, 43575, Note_on_c, 10, 81, 127
2, 43728, Note_off_c, 0, 60, 127
2, 43733, Note_off_c, 10, 81, 127
2, 43733, Note_off_c, 10, 57, 127
2, 43735, Note_on_c, 12, 59, 127
2, 43735, Note_on_c, 3, 75, 127
2, 43895, Note_off_c, 10, 69, 127
2, 43896, Note_on_c, 10, 69, 127
2, 44054, Note_off_c, 10, 69, 127
2, 44056, Note_on_c, 4, 52, 127
2, 44056, Note_on_c, 7, 67, 127
2, 44169, Note_off_c, 3, 75, 127
2, 44216, Note_on_c, 4, 76, 127
2, 44369, Note_off_c, 12, 59, 127
2, 44373, Note_off_c, 7, 67, 127
2, 44374, Note_off_c, 4, 52, 127
2, 44376, Note_on_c, 12, 59, 127
2, 44376, Note_on_c, 6, 66, 127
2, 44537, Note_on_c, 10, 69, 127
2, 44683, Note_off_c, 4, 76, 127
2, 44697, Note_on_c, 12, 47, 127
2, 44697, Note_on_c, 4, 76, 127
2, 44855, Note_off_c, 4, 76, 127
2, 44857, Note_on_c, 3, 75, 127
2, 45004, Note_off_c, 10, 69, 127
2, 45010, Note_off_c, 6, 66, 127
2, 45015, Note_off_c, 3, 75, 127
2, 45015, Note_off_c, 12, 47, 127
2, 45018, Note_on_c, 4, 52, 127
2, 45018, Note_on_c, 4, 76, 127
2, 45178, Note_on_c, 12, 71, 127
2, 45338, Note_on_c, 7, 67, 127
2, 45488, Note_off_c, 12, 59, 127
2, 45499, Note_on_c, 12, 59, 127
2, 45652, Note_off_c, 4, 52, 127
2, 45657, Note_off_c, 12, 59, 127
2, 45659, Note_on_c, 4, 64, 127
2, 45817, Note_off_c, 4, 64, 127
2, 45819, Note_on_c, 1, 61, 127
2, 45977, Note_off_c, 1, 61, 127
2, 45980, Note_on_c, 2, 62, 127
2, 46138, Note_off_c, 2, 62, 127
2, 46138, Note_off_c, 12, 71, 127
2, 46139, Note_off_c, 7, 67, 127
2, 46140, Note_on_c, 12, 59, 127
2, 46298, Note_off_c, 12, 59, 127
2, 46298, Note_off_c, 4, 76, 127
2, 46300, Note_on_c, 1, 61, 127
2, 46461, Note_on_c, 10, 69, 127
2, 46619, Note_off_c, 10, 69, 127
2, 46621, Note_on_c, 12, 71, 127
2, 46779, Note_off_c, 12, 71, 127
2, 46781, Note_on_c, 7, 67, 127
2, 46934, Note_off_c, 1, 61, 127
2, 46939, Note_off_c, 7, 67, 127
2, 46942, Note_on_c, 10, 69, 127
2, 47100, Note_off_c, 10, 69, 127
2, 47102, Note_on_c, 10, 57, 127
2, 47102, Note_on_c, 6, 66, 127
2, 47260, Note_off_c, 6, 66, 127
2, 47260, Note_off_c, 10, 57, 127
2, 47262, Note_on_c, 12, 59, 127
2, 47262, Note_on_c, 7, 67, 127
2, 47420, Note_off_c, 7, 67, 127
2, 47420, Note_off_c, 12, 59, 127
2, 47423, Note_on_c, 1, 61, 127
2, 47423, Note_on_c, 4, 76, 127
2, 47581, Note_off_c, 4, 76, 127
2, 47581, Note_off_c, 1, 61, 127
2, 47583, Note_on_c, 2, 62, 127
2, 47583, Note_on_c, 7, 67, 127
2, 47741, Note_off_c, 7, 67, 127
2, 47743, Note_on_c, 4, 64, 127
2, 47901, Note_off_c, 4, 64, 127
2, 47904, Note_on_c, 6, 66, 127
2, 48064, Note_on_c, 10, 69, 127
2, 48224, Note_on_c, 0, 72, 127
2, 48382, Note_off_c, 2, 62, 127
2, 48384, Note_on_c, 10, 57, 127
2, 48542, Note_off_c, 10, 57, 127
2, 48545, Note_on_c, 6, 54, 127
2, 48698, Note_off_c, 10, 69, 127
2, 48703, Note_off_c, 6, 54, 127
2, 48705, Note_off_c, 6, 66, 127
2, 48705, Note_on_c, 2, 50, 127
2, 48863, Note_off_c, 2, 50, 127
2, 48865, Note_on_c, 7, 55, 127
2, 48958, Note_off_c, 0, 72, 127
2, 49026, Note_on_c, 10, 69, 127
2, 49184, Note_off_c, 10, 69, 127
2, 49186, Note_on_c, 12, 71, 127
2, 49344, Note_off_c, 12, 71, 127
2, 49346, Note_on_c, 2, 74, 127
2, 49504, Note_off_c, 2, 74, 127
2, 49507, Note_on_c, 5, 77, 127
2, 49664, Note_off_c, 7, 55, 127
2, 49667, Note_on_c, 10, 57, 127
2, 49667, Note_on_c, 0, 72, 127
2, 49825, Note_off_c, 0, 72, 127
2, 49825, Note_off_c, 10, 57, 127
2, 49827, Note_on_c, 12, 59, 127
2, 49827, Note_on_c, 2, 74, 127
2, 49985, Note_off_c, 2, 74, 127
2, 49985, Note_off_c, 12, 59, 127
2, 49988, Note_on_c, 7, 55, 127
2, 49988, Note_on_c, 12, 71, 127
2, 50146, Note_off_c, 12, 71, 127
2, 50146, Note_off_c, 7, 55, 127
2, 50148, Note_on_c, 0, 60, 127
2, 50148, Note_on_c, 7, 67, 127
2, 50308, Note_off_c, 5, 77, 127
2, 50308, Note_on_c, 12, 71, 127
2, 50466, Note_off_c, 12, 71, 127
2, 50469, Note_on_c, 0, 72, 127
2, 50627, Note_off_c, 0, 72, 127
2, 50629, Note_on_c, 4, 76, 127
2, 50782, Note_off_c, 7, 67, 127
2, 50787, Note_off_c, 4, 76, 127
2, 50789, Note_on_c, 6, 78, 127
2, 50947, Note_off_c, 0, 60, 127
2, 50950, Note_on_c, 10, 57, 127
2, 50950, Note_on_c, 2, 74, 127
2, 51106, Note_off_c, 6, 78, 127
2, 51108, Note_off_c, 10, 57, 127
2, 51110, Note_on_c, 12, 59, 127
2, 51110, Note_on_c, 7, 79, 127
2, 51267, Note_off_c, 2, 74, 127
2, 51268, Note_off_c, 12, 59, 127
2, 51270, Note_on_c, 2, 62, 127
2, 51270, Note_on_c, 2, 74, 127
2, 51427, Note_off_c, 7, 79, 127
2, 51428, Note_off_c, 2, 62, 127
2, 51431, Note_on_c, 6, 54, 127
2, 51431, Note_on_c, 10, 81, 127
2, 51587, Note_off_c, 2, 74, 127
2, 51589, Note_off_c, 6, 54, 127
2, 51591, Note_on_c, 10, 57, 127
2, 51591, Note_on_c, 2, 74, 127
2, 51748, Note_off_c, 10, 81, 127
2, 51749, Note_off_c, 10, 57, 127
2, 51751, Note_on_c, 7, 55, 127
2, 51751, Note_on_c, 12, 83, 127
2, 51908, Note_off_c, 2, 74, 127
2, 51909, Note_off_c, 7, 55, 127
2, 51912, Note_on_c, 12, 59, 127
2, 51912, Note_on_c, 2, 74, 127
2, 52068, Note_off_c, 12, 83, 127
2, 52070, Note_off_c, 2, 74, 127
2, 52070, Note_off_c, 12, 59, 127
2, 52072, Note_on_c, 0, 48, 127
2, 52072, Note_on_c, 4, 76, 127
2, 52230, Note_off_c, 0, 48, 127
2, 52232, Note_on_c, 4, 52, 127
2, 52232, Note_on_c, 12, 71, 127
2, 52390, Note_off_c, 12, 71, 127
2, 52390, Note_off_c, 4, 52, 127
2, 52392, Note_on_c, 10, 45, 127
2, 52392, Note_on_c, 0, 72, 127
2, 52539, Note_off_c, 4, 76, 127
2, 52550, Note_off_c, 10, 45, 127
2, 52553, Note_on_c, 0, 48, 127
2, 52553, Note_on_c, 10, 81, 127
2, 52711, Note_off_c, 10, 81, 127
2, 52711, Note_off_c, 0, 48, 127
2, 52713, Note_on_c, 2, 50, 127
2, 52713, Note_on_c, 7, 79, 127
2, 52871, Note_off_c, 7, 79, 127
2, 52873, Note_on_c, 4, 76, 127
2, 53031, Note_off_c, 4, 76, 127
2, 53034, Note_on_c, 2, 38, 127
2, 53034, Note_on_c, 6, 78, 127
2, 53193, Note_off_c, 0, 72, 127
2, 53194, Note_on_c, 10, 69, 127
2, 53351, Note_off_c, 6, 78, 127
2, 53352, Note_off_c, 10, 69, 127
2, 53354, Note_on_c, 12, 71, 127
2, 53515, Note_on_c, 7, 67, 127
2, 53671, Note_off_c, 12, 71, 127
2, 53675, Note_on_c, 4, 76, 127
2, 53832, Note_off_c, 7, 67, 127
2, 53835, Note_on_c, 7, 67, 127
2, 53908, Note_off_c, 4, 76, 127
2, 53993, Note_off_c, 7, 67, 127
2, 53994, Note_off_c, 2, 38, 127
2, 53996, Note_on_c, 6, 66, 127
2, 54149, Note_off_c, 2, 50, 127
2, 54154, Note_off_c, 6, 66, 127
2, 54156, Note_on_c, 6, 54, 127
2, 54156, Note_on_c, 2, 62, 127
2, 54314, Note_off_c, 2, 62, 127
2, 54314, Note_off_c, 6, 54, 127
2, 54316, Note_on_c, 4, 52, 127
2, 54316, Note_on_c, 7, 67, 127
2, 54474, Note_off_c, 7, 67, 127
2, 54474, Note_off_c, 4, 52, 127
2, 54477, Note_on_c, 7, 55, 127
2, 54477, Note_on_c, 2, 62, 127
2, 54635, Note_off_c, 2, 62, 127
2, 54635, Note_off_c, 7, 55, 127
2, 54637, Note_on_c, 6, 54, 127
2, 54637, Note_on_c, 10, 69, 127
2, 54795, Note_off_c, 10, 69, 127
2, 54795, Note_off_c, 6, 54, 127
2, 54797, Note_on_c, 10, 57, 127
2, 54797, Note_on_c, 2, 62, 127
2, 54955, Note_off_c, 2, 62, 127
2, 54955, Note_off_c, 10, 57, 127
2, 54958, Note_on_c, 2, 50, 127
2, 54958, Note_on_c, 0, 72, 127
2, 55116, Note_off_c, 0, 72, 127
2, 55116, Note_off_c, 2, 50, 127
2, 55118, Note_on_c, 6, 54, 127
2, 55118, Note_on_c, 10, 69, 127
2, 55276, Note_off_c, 10, 69, 127
2, 55276, Note_off_c, 6, 54, 127
2, 55278, Note_on_c, 7, 55, 127
2, 55278, Note_on_c, 11, 70, 127
2, 55439, Note_on_c, 2, 62, 127
2, 55595, Note_off_c, 11, 70, 127
2, 55596, Note_off_c, 7, 55, 127
2, 55597, Note_off_c, 2, 62, 127
2, 55599, Note_on_c, 5, 53, 127
2, 55599, Note_on_c, 7, 67, 127
2, 55757, Note_off_c, 7, 67, 127
2, 55759, Note_on_c, 10, 69, 127
2, 55917, Note_off_c, 10, 69, 127
2, 55917, Note_off_c, 5, 53, 127
2, 55920, Note_on_c, 3, 51, 127
2, 55920, Note_on_c, 11, 70, 127
2, 56078, Note_off_c, 11, 70, 127
2, 56080, Note_on_c, 7, 67, 127
2, 56238, Note_off_c, 7, 67, 127
2, 56238, Note_off_c, 3, 51, 127
2, 56240, Note_on_c, 2, 50, 127
2, 56240, Note_on_c, 12, 71, 127
2, 56398, Note_off_c, 12, 71, 127
2, 56400, Note_on_c, 7, 67, 127
2, 56558, Note_off_c, 7, 67, 127
2, 56558, Note_off_c, 2, 50, 127
2, 56561, Note_on_c, 3, 51, 127
2, 56561, Note_on_c, 0, 72, 127
2, 56721, Note_on_c, 7, 67, 127
2, 56794, Note_off_c, 0, 72, 127
2, 56879, Note_off_c, 7, 67, 127
2, 56879, Note_off_c, 3, 51, 127
2, 56881, Note_on_c, 0, 48, 127
2, 56881, Note_on_c, 3, 75, 127
2, 57039, Note_off_c, 3, 75, 127
2, 57042, Note_on_c, 2, 74, 127
2, 57199, Note_off_c, 0, 48, 127
2, 57200, Note_off_c, 2, 74, 127
2, 57202, Note_on_c, 10, 45, 127
2, 57202, Note_on_c, 1, 73, 127
2, 57362, Note_on_c, 7, 67, 127
2, 57520, Note_off_c, 7, 67, 127
2, 57520, Note_off_c, 10, 45, 127
2, 57523, Note_on_c, 2, 50, 127
2, 57523, Note_on_c, 6, 66, 127
2, 57602, Note_off_c, 1, 73, 127
2, 57681, Note_off_c, 6, 66, 127
2, 57683, Note_on_c, 0, 72, 127
2, 57841, Note_off_c, 0, 72, 127
2, 57841, Note_off_c, 2, 50, 127
2, 57843, Note_on_c, 7, 55, 127
2, 57843, Note_on_c, 12, 71, 127
2, 58004, Note_on_c, 5, 65, 127
2, 58161, Note_off_c, 7, 55, 127
2, 58162, Note_off_c, 5, 65, 127
2, 58164, Note_on_c, 0, 48, 127
2, 58164, Note_on_c, 4, 64, 127
2, 58310, Note_off_c, 12, 71, 127
2, 58324, Note_on_c, 0, 60, 127
2, 58324, Note_on_c, 10, 69, 127
2, 58481, Note_off_c, 4, 64, 127
2, 58481, Note_off_c, 0, 48, 127
2, 58482, Note_off_c, 0, 60, 127
2, 58485, Note_on_c, 2, 50, 127
2, 58485, Note_on_c, 12, 59, 127
2, 58485, Note_on_c, 2, 62, 127
2, 58641, Note_off_c, 10, 69, 127
2, 58645, Note_on_c, 7, 67, 127
2, 58802, Note_off_c, 2, 62, 127
2, 58803, Note_off_c, 12, 59, 127
2, 58805, Note_on_c, 10, 57, 127
2, 58805, Note_on_c, 0, 60, 127
2, 58962, Note_off_c, 7, 67, 127
2, 58966, Note_on_c, 6, 66, 127
2, 59119, Note_off_c, 2, 50, 127
2, 59122, Note_off_c, 0, 60, 127
2, 59123, Note_off_c, 10, 57, 127
2, 59124, Note_off_c, 6, 66, 127
2, 59126, Note_on_c, 7, 55, 127
2, 59126, Note_on_c, 7, 67, 127
2, 59286, Note_on_c, 0, 60, 127
2, 59444, Note_off_c, 0, 60, 127
2, 59447, Note_on_c, 2, 62, 127
2, 59607, Note_on_c, 10, 57, 127
2, 59765, Note_off_c, 10, 57, 127
2, 59767, Note_on_c, 12, 59, 127
2, 59925, Note_off_c, 7, 55, 127
2, 59928, Note_on_c, 6, 54, 127
2, 60086, Note_off_c, 6, 54, 127
2, 60093, Note_on_c, 7, 55, 127
2, 60277, Note_on_c, 2, 50, 127
2, 60435, Note_off_c, 2, 50, 127
2, 60485, Note_on_c, 7, 43, 127
2, 60883, Note_off_c, 2, 62, 127
2, 60887, Note_off_c, 12, 59, 127
2, 60894, Note_off_c, 7, 55, 127
2, 61046, Note_off_c, 7, 67, 127
2, 61335, Note_off_c, 7, 43, 127
2, 61636, Note_on_c, 7, 79, 127
2, 61807, Note_off_c, 7, 79, 127
2, 61871, Note_on_c, 7, 55, 127
2, 61871, Note_on_c, 7, 79, 127
2, 61871, Note_on_c, 2, 74, 127
2, 61871, Note_on_c, 12, 71, 127
2, 62089, Note_off_c, 2, 74, 127
2, 62089, Note_off_c, 7, 79, 127
2, 62102, Note_on_c, 6, 78, 127
2, 62206, Note_off_c, 12, 71, 127
2, 62215, Note_off_c, 6, 78, 127
2, 62217, Note_on_c, 4, 76, 127
2, 62326, Note_off_c, 7, 55, 127
2, 62330, Note_off_c, 4, 76, 127
2, 62332, Note_on_c, 2, 74, 127
2, 62445, Note_off_c, 2, 74, 127
2, 62447, Note_on_c, 0, 72, 127
2, 62560, Note_off_c, 0, 72, 127
2, 62563, Note_on_c, 2, 62, 127
2, 62563, Note_on_c, 12, 71, 127
2, 62676, Note_off_c, 12, 71, 127
2, 62678, Note_on_c, 10, 69, 127
2, 62781, Note_off_c, 2, 62, 127
2, 62791, Note_off_c, 10, 69, 127
2, 62793, Note_on_c, 7, 67, 127
2, 62793, Note_on_c, 12, 71, 127
2, 62906, Note_off_c, 12, 71, 127
2, 62908, Note_on_c, 2, 74, 127
2, 63011, Note_off_c, 7, 67, 127
2, 63021, Note_off_c, 2, 74, 127
2, 63024, Note_on_c, 6, 66, 127
2, 63024, Note_on_c, 10, 69, 127
2, 63137, Note_off_c, 10, 69, 127
2, 63139, Note_on_c, 0, 72, 127
2, 63242, Note_off_c, 6, 66, 127
2, 63252, Note_off_c, 0, 72, 127
2, 63254, Note_on_c, 7, 67, 127
2, 63254, Note_on_c, 12, 71, 127
2, 63472, Note_off_c, 12, 71, 127
2, 63472, Note_off_c, 7, 67, 127
2, 63485, Note_on_c, 6, 66, 127
2, 63485, Note_on_c, 7, 67, 127
2, 63598, Note_off_c, 6, 66, 127
2, 63600, Note_on_c, 4, 64, 127
2, 63703, Note_off_c, 7, 67, 127
2, 63713, Note_off_c, 4, 64, 127
2, 63715, Note_on_c, 2, 62, 127
2, 63715, Note_on_c, 12, 71, 127
2, 63828, Note_off_c, 2, 62, 127
2, 63830, Note_on_c, 0, 60, 127
2, 63933, Note_off_c, 12, 71, 127
2, 63943, Note_off_c, 0, 60, 127
2, 63945, Note_on_c, 12, 59, 127
2, 63945, Note_on_c, 2, 74, 127
2, 64058, Note_off_c, 12, 59, 127
2, 64061, Note_on_c, 10, 57, 127
2, 64163, Note_off_c, 2, 74, 127
2, 64174, Note_off_c, 10, 57, 127
2, 64176, Note_on_c, 12, 59, 127
2, 64176, Note_on_c, 7, 79, 127
2, 64289, Note_off_c, 12, 59, 127
2, 64291, Note_on_c, 2, 62, 127
2, 64394, Note_off_c, 7, 79, 127
2, 64404, Note_off_c, 2, 62, 127
2, 64406, Note_on_c, 10, 57, 127
2, 64406, Note_on_c, 6, 78, 127
2, 64519, Note_off_c, 10, 57, 127
2, 64522, Note_on_c, 0, 60, 127
2, 64624, Note_off_c, 6, 78, 127
2, 64635, Note_off_c, 0, 60, 127
2, 64637, Note_on_c, 12, 59, 127
2, 64637, Note_on_c, 7, 79, 127
2, 64750, Note_off_c, 7, 79, 127
2, 64752, Note_on_c, 10, 81, 127
2, 64855, Note_off_c, 12, 59, 127
2, 64865, Note_off_c, 10, 81, 127
2, 64867, Note_on_c, 7, 55, 127
2, 64867, Note_on_c, 12, 83, 127
2, 64980, Note_off_c, 12, 83, 127
2, 64982, Note_on_c, 7, 79, 127
2, 65085, Note_off_c, 7, 55, 127
2, 65095, Note_off_c, 7, 79, 127
2, 65098, Note_on_c, 12, 59, 127
2, 65098, Note_on_c, 2, 74, 127
2, 65211, Note_off_c, 2, 74, 127
2, 65213, Note_on_c, 5, 77, 127
2, 65316, Note_off_c, 12, 59, 127
2, 65326, Note_off_c, 5, 77, 127
2, 65328, Note_on_c, 7, 55, 127
2, 65328, Note_on_c, 4, 76, 127
2, 65441, Note_off_c, 4, 76, 127
2, 65443, Note_on_c, 2, 74, 127
2, 65546, Note_off_c, 7, 55, 127
2, 65556, Note_off_c, 2, 74, 127
2, 65559, Note_on_c, 0, 60, 127
2, 65559, Note_on_c, 4, 76, 127
2, 65672, Note_off_c, 4, 76, 127
2, 65674, Note_on_c, 10, 81, 127
2, 65777, Note_off_c, 0, 60, 127
2, 65787, Note_off_c, 10, 81, 127
2, 65789, Note_on_c, 10, 57, 127
2, 65789, Note_on_c, 12, 83, 127
2, 65902, Note_off_c, 12, 83, 127
2, 65904, Note_on_c, 0, 84, 127
2, 66007, Note_off_c, 10, 57, 127
2, 66017, Note_off_c, 0, 84, 127
2, 66020, Note_on_c, 2, 62, 127
2, 66020, Note_on_c, 6, 78, 127
2, 66238, Note_off_c, 6, 78, 127
2, 66238, Note_off_c, 2, 62, 127
2, 66250, Note_on_c, 0, 60, 127
2, 66250, Note_on_c, 2, 74, 127
2, 66363, Note_off_c, 0, 60, 127
2, 66365, Note_on_c, 12, 59, 127
2, 66478, Note_off_c, 2, 74, 127
2, 66480, Note_off_c, 12, 59, 127
2, 66482, Note_on_c, 10, 57, 127
2, 66595, Note_off_c, 10, 57, 127
2, 66597, Note_on_c, 7, 55, 127
2, 66597, Note_on_c, 4, 76, 127
2, 66710, Note_off_c, 4, 76, 127
2, 66710, Note_off_c, 7, 55, 127
2, 66713, Note_on_c, 6, 54, 127
2, 66713, Note_on_c, 2, 74, 127
2, 66826, Note_off_c, 2, 74, 127
2, 66826, Note_off_c, 6, 54, 127
2, 66828, Note_on_c, 4, 52, 127
2, 66828, Note_on_c, 0, 72, 127
2, 66941, Note_off_c, 0, 72, 127
2, 66941, Note_off_c, 4, 52, 127
2, 66943, Note_on_c, 2, 50, 127
2, 66943, Note_on_c, 12, 71, 127
2, 67056, Note_off_c, 2, 50, 127
2, 67058, Note_on_c, 6, 54, 127
2, 67058, Note_on_c, 2, 74, 127
2, 67111, Note_off_c, 12, 71, 127
2, 67173, Note_off_c, 2, 74, 127
2, 67173, Note_off_c, 6, 54, 127
2, 67175, Note_on_c, 0, 48, 127
2, 67175, Note_on_c, 10, 69, 127
2, 67288, Note_off_c, 0, 48, 127
2, 67290, Note_on_c, 6, 54, 127
2, 67290, Note_on_c, 2, 74, 127
2, 67343, Note_off_c, 10, 69, 127
2, 67405, Note_off_c, 2, 74, 127
2, 67405, Note_off_c, 6, 54, 127
2, 67407, Note_on_c, 12, 47, 127
2, 67407, Note_on_c, 7, 67, 127
2, 67523, Note_on_c, 2, 74, 127
2, 67575, Note_off_c, 7, 67, 127
2, 67625, Note_off_c, 12, 47, 127
2, 67636, Note_off_c, 2, 74, 127
2, 67638, Note_on_c, 10, 45, 127
2, 67638, Note_on_c, 6, 66, 127
2, 67753, Note_on_c, 2, 74, 127
2, 67806, Note_off_c, 6, 66, 127
2, 67856, Note_off_c, 10, 45, 127
2, 67866, Note_off_c, 2, 74, 127
2, 67868, Note_on_c, 12, 47, 127
2, 67868, Note_on_c, 7, 67, 127
2, 67981, Note_off_c, 7, 67, 127
2, 67983, Note_on_c, 2, 74, 127
2, 68086, Note_off_c, 12, 47, 127
2, 68096, Note_off_c, 2, 74, 127
2, 68099, Note_on_c, 7, 43, 127
2, 68099, Note_on_c, 0, 72, 127
2, 68212, Note_off_c, 0, 72, 127
2, 68214, Note_on_c, 12, 71, 127
2, 68317, Note_off_c, 7, 43, 127
2, 68327, Note_off_c, 12, 71, 127
2, 68329, Note_on_c, 10, 45, 127
2, 68329, Note_on_c, 10, 69, 127
2, 68442, Note_off_c, 10, 69, 127
2, 68444, Note_on_c, 7, 67, 127
2, 68547, Note_off_c, 10, 45, 127
2, 68557, Note_off_c, 7, 67, 127
2, 68560, Note_on_c, 12, 47, 127
2, 68560, Note_on_c, 5, 65, 127
2, 68675, Note_on_c, 2, 74, 127
2, 68728, Note_off_c, 5, 65, 127
2, 68778, Note_off_c, 12, 47, 127
2, 68788, Note_off_c, 2, 74, 127
2, 68790, Note_on_c, 0, 48, 127
2, 68790, Note_on_c, 4, 64, 127
2, 68905, Note_on_c, 2, 74, 127
2, 68958, Note_off_c, 4, 64, 127
2, 69008, Note_off_c, 0, 48, 127
2, 69018, Note_off_c, 2, 74, 127
2, 69021, Note_on_c, 12, 47, 127
2, 69021, Note_on_c, 2, 62, 127
2, 69136, Note_on_c, 2, 74, 127
2, 69189, Note_off_c, 2, 62, 127
2, 69239, Note_off_c, 12, 47, 127
2, 69249, Note_off_c, 2, 74, 127
2, 69251, Note_on_c, 0, 48, 127
2, 69251, Note_on_c, 4, 64, 127
2, 69364, Note_off_c, 4, 64, 127
2, 69366, Note_on_c, 2, 74, 127
2, 69469, Note_off_c, 0, 48, 127
2, 69479, Note_off_c, 2, 74, 127
2, 69481, Note_on_c, 10, 45, 127
2, 69481, Note_on_c, 0, 72, 127
2, 69594, Note_off_c, 0, 72, 127
2, 69597, Note_on_c, 12, 71, 127
2, 69699, Note_off_c, 10, 45, 127
2, 69710, Note_off_c, 12, 71, 127
2, 69712, Note_on_c, 12, 47, 127
2, 69712, Note_on_c, 10, 69, 127
2, 69825, Note_off_c, 10, 69, 127
2, 69827, Note_on_c, 7, 67, 127
2, 69930, Note_off_c, 12, 47, 127
2, 69940, Note_off_c, 7, 67, 127
2, 69942, Note_on_c, 0, 48, 127
2, 69942, Note_on_c, 10, 69, 127
2, 70055, Note_off_c, 10, 69, 127
2, 70058, Note_on_c, 0, 72, 127
2, 70160, Note_off_c, 0, 48, 127
2, 70171, Note_off_c, 0, 72, 127
2, 70173, Note_on_c, 2, 50, 127
2, 70173, Note_on_c, 6, 66, 127
2, 70286, Note_off_c, 6, 66, 127
2, 70288, Note_on_c, 4, 64, 127
2, 70391, Note_off_c, 2, 50, 127
2, 70401, Note_off_c, 4, 64, 127
2, 70403, Note_on_c, 0, 48, 127
2, 70403, Note_on_c, 2, 62, 127
2, 70516, Note_off_c, 2, 62, 127
2, 70516, Note_off_c, 0, 48, 127
2, 70519, Note_on_c, 12, 47, 127
2, 70519, Note_on_c, 4, 64, 127
2, 70632, Note_off_c, 4, 64, 127
2, 70632, Note_off_c, 12, 47, 127
2, 70634, Note_on_c, 10, 45, 127
2, 70634, Note_on_c, 6, 66, 127
2, 70747, Note_off_c, 6, 66, 127
2, 70747, Note_off_c, 10, 45, 127
2, 70749, Note_on_c, 7, 43, 127
2, 70749, Note_on_c, 7, 67, 127
2, 70862, Note_off_c, 7, 67, 127
2, 70862, Note_off_c, 7, 43, 127
2, 70864, Note_on_c, 6, 42, 127
2, 70864, Note_on_c, 10, 69, 127
2, 70977, Note_off_c, 10, 69, 127
2, 70977, Note_off_c, 6, 42, 127
2, 70979, Note_on_c, 4, 40, 127
2, 70979, Note_on_c, 12, 71, 127
2, 71092, Note_off_c, 12, 71, 127
2, 71092, Note_off_c, 4, 40, 127
2, 71095, Note_on_c, 2, 38, 127
2, 71095, Note_on_c, 0, 72, 127
2, 71208, Note_off_c, 0, 72, 127
2, 71208, Note_off_c, 2, 38, 127
2, 71210, Note_on_c, 6, 42, 127
2, 71210, Note_on_c, 10, 69, 127
2, 71323, Note_off_c, 10, 69, 127
2, 71323, Note_off_c, 6, 42, 127
2, 71325, Note_on_c, 10, 45, 127
2, 71325, Note_on_c, 2, 74, 127
2, 71438, Note_off_c, 2, 74, 127
2, 71438, Note_off_c, 10, 45, 127
2, 71440, Note_on_c, 2, 50, 127
2, 71440, Note_on_c, 10, 69, 127
2, 71553, Note_off_c, 10, 69, 127
2, 71553, Note_off_c, 2, 50, 127
2, 71556, Note_on_c, 7, 43, 127
2, 71556, Note_on_c, 12, 71, 127
2, 71671, Note_on_c, 7, 67, 127
2, 71784, Note_off_c, 7, 67, 127
2, 71786, Note_on_c, 6, 66, 127
2, 71899, Note_off_c, 6, 66, 127
2, 71901, Note_on_c, 4, 64, 127
2, 72014, Note_off_c, 4, 64, 127
2, 72017, Note_on_c, 2, 62, 127
2, 72130, Note_off_c, 2, 62, 127
2, 72132, Note_on_c, 0, 60, 127
2, 72245, Note_off_c, 0, 60, 127
2, 72247, Note_on_c, 12, 59, 127
2, 72360, Note_off_c, 12, 59, 127
2, 72362, Note_on_c, 10, 57, 127
2, 72475, Note_off_c, 10, 57, 127
2, 72476, Note_off_c, 12, 71, 127
2, 72476, Note_off_c, 7, 43, 127
2, 72477, Note_on_c, 7, 55, 127
2, 72590, Note_off_c, 7, 55, 127
2, 72593, Note_on_c, 12, 59, 127
2, 72706, Note_off_c, 12, 59, 127
2, 72708, Note_on_c, 6, 54, 127
2, 72708, Note_on_c, 12, 71, 127
2, 72821, Note_off_c, 6, 54, 127
2, 72823, Note_on_c, 10, 57, 127
2, 72923, Note_off_c, 12, 71, 127
2, 72938, Note_off_c, 10, 57, 127
2, 72940, Note_on_c, 7, 55, 127
2, 72940, Note_on_c, 4, 76, 127
2, 73053, Note_off_c, 4, 76, 127
2, 73055, Note_on_c, 6, 78, 127
2, 73158, Note_off_c, 7, 55, 127
2, 73168, Note_off_c, 6, 78, 127
2, 73171, Note_on_c, 4, 52, 127
2, 73171, Note_on_c, 7, 79, 127
2, 73284, Note_off_c, 7, 79, 127
2, 73286, Note_on_c, 4, 76, 127
2, 73389, Note_off_c, 4, 52, 127
2, 73399, Note_off_c, 4, 76, 127
2, 73401, Note_on_c, 7, 55, 127
2, 73401, Note_on_c, 12, 71, 127
2, 73516, Note_on_c, 4, 76, 127
2, 73544, Note_off_c, 12, 71, 127
2, 73619, Note_off_c, 7, 55, 127
2, 73629, Note_off_c, 4, 76, 127
2, 73631, Note_on_c, 4, 52, 127
2, 73631, Note_on_c, 6, 78, 127
2, 73744, Note_off_c, 6, 78, 127
2, 73747, Note_on_c, 7, 79, 127
2, 73849, Note_off_c, 4, 52, 127
2, 73860, Note_off_c, 7, 79, 127
2, 73862, Note_on_c, 12, 59, 127
2, 73862, Note_on_c, 3, 75, 127
2, 73977, Note_on_c, 10, 81, 127
2, 74005, Note_off_c, 3, 75, 127
2, 74080, Note_off_c, 12, 59, 127
2, 74090, Note_off_c, 10, 81, 127
2, 74092, Note_on_c, 12, 47, 127
2, 74092, Note_on_c, 7, 79, 127
2, 74205, Note_off_c, 7, 79, 127
2, 74208, Note_on_c, 6, 78, 127
2, 74310, Note_off_c, 12, 47, 127
2, 74321, Note_off_c, 6, 78, 127
2, 74323, Note_on_c, 4, 52, 127
2, 74323, Note_on_c, 7, 79, 127
2, 74436, Note_off_c, 4, 52, 127
2, 74438, Note_on_c, 6, 54, 127
2, 74541, Note_off_c, 7, 79, 127
2, 74551, Note_off_c, 6, 54, 127
2, 74553, Note_on_c, 7, 55, 127
2, 74553, Note_on_c, 4, 76, 127
2, 74666, Note_off_c, 7, 55, 127
2, 74668, Note_on_c, 4, 52, 127
2, 74771, Note_off_c, 4, 76, 127
2, 74781, Note_off_c, 4, 52, 127
2, 74784, Note_on_c, 1, 49, 127
2, 74784, Note_on_c, 7, 79, 127
2, 74897, Note_off_c, 1, 49, 127
2, 74899, Note_on_c, 7, 55, 127
2, 75002, Note_off_c, 7, 79, 127
2, 75012, Note_off_c, 7, 55, 127
2, 75014, Note_on_c, 12, 47, 127
2, 75014, Note_on_c, 2, 74, 127
2, 75127, Note_off_c, 12, 47, 127
2, 75129, Note_on_c, 7, 55, 127
2, 75232, Note_off_c, 2, 74, 127
2, 75242, Note_off_c, 7, 55, 127
2, 75245, Note_on_c, 10, 45, 127
2, 75245, Note_on_c, 1, 73, 127
2, 75358, Note_off_c, 10, 45, 127
2, 75360, Note_on_c, 7, 55, 127
2, 75463, Note_off_c, 1, 73, 127
2, 75473, Note_off_c, 7, 55, 127
2, 75475, Note_on_c, 6, 54, 127
2, 75475, Note_on_c, 10, 81, 127
2, 75588, Note_off_c, 6, 54, 127
2, 75590, Note_on_c, 4, 52, 127
2, 75693, Note_off_c, 10, 81, 127
2, 75703, Note_off_c, 4, 52, 127
2, 75706, Note_on_c, 6, 54, 127
2, 75706, Note_on_c, 2, 74, 127
2, 75819, Note_off_c, 2, 74, 127
2, 75821, Note_on_c, 4, 76, 127
2, 75924, Note_off_c, 6, 54, 127
2, 75934, Note_off_c, 4, 76, 127
2, 75936, Note_on_c, 2, 50, 127
2, 75936, Note_on_c, 6, 78, 127
2, 76049, Note_off_c, 6, 78, 127
2, 76051, Note_on_c, 2, 74, 127
2, 76154, Note_off_c, 2, 50, 127
2, 76164, Note_off_c, 2, 74, 127
2, 76166, Note_on_c, 6, 54, 127
2, 76166, Note_on_c, 10, 69, 127
2, 76279, Note_off_c, 10, 69, 127
2, 76282, Note_on_c, 0, 72, 127
2, 76384, Note_off_c, 6, 54, 127
2, 76395, Note_off_c, 0, 72, 127
2, 76397, Note_on_c, 2, 50, 127
2, 76397, Note_on_c, 12, 71, 127
2, 76510, Note_off_c, 12, 71, 127
2, 76512, Note_on_c, 10, 69, 127
2, 76615, Note_off_c, 2, 50, 127
2, 76625, Note_off_c, 10, 69, 127
2, 76627, Note_on_c, 7, 55, 127
2, 76627, Note_on_c, 12, 71, 127
2, 76740, Note_off_c, 12, 71, 127
2, 76743, Note_on_c, 4, 76, 127
2, 76845, Note_off_c, 7, 55, 127
2, 76856, Note_off_c, 4, 76, 127
2, 76858, Note_on_c, 4, 52, 127
2, 76858, Note_on_c, 6, 78, 127
2, 76971, Note_off_c, 6, 78, 127
2, 76973, Note_on_c, 7, 79, 127
2, 77076, Note_off_c, 4, 52, 127
2, 77086, Note_off_c, 7, 79, 127
2, 77088, Note_on_c, 10, 57, 127
2, 77088, Note_on_c, 1, 73, 127
2, 77306, Note_off_c, 1, 73, 127
2, 77306, Note_off_c, 10, 57, 127
2, 77319, Note_on_c, 7, 55, 127
2, 77319, Note_on_c, 10, 69, 127
2, 77432, Note_off_c, 7, 55, 127
2, 77434, Note_on_c, 6, 54, 127
2, 77547, Note_off_c, 10, 69, 127
2, 77549, Note_off_c, 6, 54, 127
2, 77551, Note_on_c, 4, 52, 127
2, 77664, Note_off_c, 4, 52, 127
2, 77666, Note_on_c, 2, 50, 127
2, 77779, Note_off_c, 2, 50, 127
2, 77781, Note_on_c, 1, 49, 127
2, 77781, Note_on_c, 10, 69, 127
2, 77894, Note_off_c, 10, 69, 127
2, 77894, Note_off_c, 1, 49, 127
2, 77897, Note_on_c, 12, 47, 127
2, 77897, Note_on_c, 12, 71, 127
2, 78010, Note_off_c, 12, 71, 127
2, 78010, Note_off_c, 12, 47, 127
2, 78012, Note_on_c, 10, 45, 127
2, 78012, Note_on_c, 1, 73, 127
2, 78125, Note_off_c, 1, 73, 127
2, 78125, Note_off_c, 10, 45, 127
2, 78127, Note_on_c, 4, 52, 127
2, 78127, Note_on_c, 2, 74, 127
2, 78240, Note_off_c, 2, 74, 127
2, 78240, Note_off_c, 4, 52, 127
2, 78242, Note_on_c, 7, 43, 127
2, 78242, Note_on_c, 4, 76, 127
2, 78355, Note_off_c, 4, 76, 127
2, 78355, Note_off_c, 7, 43, 127
2, 78358, Note_on_c, 4, 52, 127
2, 78358, Note_on_c, 1, 73, 127
2, 78471, Note_off_c, 1, 73, 127
2, 78471, Note_off_c, 4, 52, 127
2, 78473, Note_on_c, 6, 42, 127
2, 78473, Note_on_c, 2, 74, 127
2, 78586, Note_off_c, 2, 74, 127
2, 78588, Note_on_c, 4, 76, 127
2, 78691, Note_off_c, 6, 42, 127
2, 78701, Note_off_c, 4, 76, 127
2, 78703, Note_on_c, 4, 40, 127
2, 78703, Note_on_c, 10, 69, 127
2, 78816, Note_off_c, 10, 69, 127
2, 78818, Note_on_c, 1, 73, 127
2, 78921, Note_off_c, 4, 40, 127
2, 78931, Note_off_c, 1, 73, 127
2, 78934, Note_on_c, 6, 42, 127
2, 78934, Note_on_c, 2, 74, 127
2, 79047, Note_off_c, 2, 74, 127
2, 79049, Note_on_c, 4, 76, 127
2, 79152, Note_off_c, 6, 42, 127
2, 79162, Note_off_c, 4, 76, 127
2, 79164, Note_on_c, 10, 45, 127
2, 79164, Note_on_c, 10, 69, 127
2, 79279, Note_on_c, 2, 74, 127
2, 79332, Note_off_c, 10, 69, 127
2, 79382, Note_off_c, 10, 45, 127
2, 79392, Note_off_c, 2, 74, 127
2, 79395, Note_on_c, 2, 50, 127
2, 79395, Note_on_c, 6, 66, 127
2, 79510, Note_on_c, 2, 74, 127
2, 79563, Note_off_c, 6, 66, 127
2, 79613, Note_off_c, 2, 50, 127
2, 79623, Note_off_c, 2, 74, 127
2, 79625, Note_on_c, 6, 42, 127
2, 79625, Note_on_c, 10, 69, 127
2, 79740, Note_on_c, 4, 76, 127
2, 79793, Note_off_c, 10, 69, 127
2, 79843, Note_off_c, 6, 42, 127
2, 79853, Note_off_c, 4, 76, 127
2, 79856, Note_on_c, 7, 43, 127
2, 79856, Note_on_c, 2, 74, 127
2, 79969, Note_off_c, 2, 74, 127
2, 79971, Note_on_c, 4, 76, 127
2, 80074, Note_off_c, 7, 43, 127
2, 80084, Note_off_c, 4, 76, 127
2, 80086, Note_on_c, 10, 45, 127
2, 80086, Note_on_c, 12, 71, 127
2, 80199, Note_off_c, 12, 71, 127
2, 80201, Note_on_c, 1, 73, 127
2, 80304, Note_off_c, 10, 45, 127
2, 80314, Note_off_c, 1, 73, 127
2, 80316, Note_on_c, 12, 47, 127
2, 80316, Note_on_c, 2, 74, 127
2, 80429, Note_off_c, 2, 74, 127
2, 80432, Note_on_c, 4, 76, 127
2, 80534, Note_off_c, 12, 47, 127
2, 80545, Note_off_c, 4, 76, 127
2, 80547, Note_on_c, 7, 43, 127
2, 80547, Note_on_c, 12, 71, 127
2, 80662, Note_on_c, 2, 74, 127
2, 80715, Note_off_c, 12, 71, 127
2, 80765, Note_off_c, 7, 43, 127
2, 80775, Note_off_c, 2, 74, 127
2, 80777, Note_on_c, 4, 40, 127
2, 80777, Note_on_c, 7, 67, 127
2, 80893, Note_on_c, 2, 74, 127
2, 80945, Note_off_c, 7, 67, 127
2, 80995, Note_off_c, 4, 40, 127
2, 81006, Note_off_c, 2, 74, 127
2, 81008, Note_on_c, 7, 43, 127
2, 81008, Note_on_c, 12, 71, 127
2, 81123, Note_on_c, 2, 74, 127
2, 81176, Note_off_c, 12, 71, 127
2, 81226, Note_off_c, 7, 43, 127
2, 81236, Note_off_c, 2, 74, 127
2, 81238, Note_on_c, 10, 45, 127
2, 81238, Note_on_c, 1, 73, 127
2, 81351, Note_off_c, 1, 73, 127
2, 81354, Note_on_c, 2, 74, 127
2, 81456, Note_off_c, 10, 45, 127
2, 81467, Note_off_c, 2, 74, 127
2, 81469, Note_on_c, 12, 47, 127
2, 81469, Note_on_c, 4, 76, 127
2, 81582, Note_off_c, 4, 76, 127
2, 81584, Note_on_c, 1, 73, 127
2, 81687, Note_off_c, 12, 47, 127
2, 81697, Note_off_c, 1, 73, 127
2, 81699, Note_on_c, 1, 49, 127
2, 81699, Note_on_c, 7, 67, 127
2, 81812, Note_off_c, 7, 67, 127
2, 81814, Note_on_c, 12, 71, 127
2, 81917, Note_off_c, 1, 49, 127
2, 81927, Note_off_c, 12, 71, 127
2, 81930, Note_on_c, 2, 50, 127
2, 81930, Note_on_c, 10, 69, 127
2, 82043, Note_off_c, 10, 69, 127
2, 82045, Note_on_c, 7, 67, 127
2, 82148, Note_off_c, 2, 50, 127
2, 82158, Note_off_c, 7, 67, 127
2, 82160, Note_on_c, 10, 45, 127
2, 82160, Note_on_c, 6, 66, 127
2, 82275, Note_on_c, 2, 74, 127
2, 82303, Note_off_c, 6, 66, 127
2, 82378, Note_off_c, 10, 45, 127
2, 82391, Note_on_c, 7, 55, 127
2, 82391, Note_on_c, 4, 64, 127
2, 82418, Note_off_c, 2, 74, 127
2, 82506, Note_on_c, 1, 73, 127
2, 82534, Note_off_c, 4, 64, 127
2, 82609, Note_off_c, 7, 55, 127
2, 82619, Note_off_c, 1, 73, 127
2, 82621, Note_on_c, 6, 54, 127
2, 82621, Note_on_c, 2, 74, 127
2, 82839, Note_off_c, 2, 74, 127
2, 82851, Note_on_c, 2, 50, 127
2, 82851, Note_on_c, 1, 73, 127
2, 82964, Note_off_c, 1, 73, 127
2, 82967, Note_on_c, 12, 71, 127
2, 83076, Note_off_c, 6, 54, 127
2, 83080, Note_off_c, 12, 71, 127
2, 83082, Note_on_c, 6, 54, 127
2, 83082, Note_on_c, 10, 69, 127
2, 83195, Note_off_c, 10, 69, 127
2, 83197, Note_on_c, 7, 67, 127
2, 83300, Note_off_c, 6, 54, 127
2, 83310, Note_off_c, 7, 67, 127
2, 83312, Note_on_c, 10, 57, 127
2, 83312, Note_on_c, 6, 66, 127
2, 83425, Note_off_c, 6, 66, 127
2, 83428, Note_on_c, 4, 64, 127
2, 83540, Note_off_c, 10, 57, 127
2, 83543, Note_off_c, 4, 64, 127
2, 83545, Note_on_c, 2, 62, 127
2, 83890, Note_off_c, 2, 62, 127
2, 83892, Note_on_c, 6, 78, 127
2, 84005, Note_off_c, 6, 78, 127
2, 84006, Note_off_c, 2, 50, 127
2, 84007, Note_on_c, 2, 62, 127
2, 84007, Note_on_c, 6, 78, 127
2, 84007, Note_on_c, 2, 74, 127
2, 84007, Note_on_c, 10, 69, 127
2, 84225, Note_off_c, 2, 62, 127
2, 84238, Note_on_c, 0, 60, 127
2, 84351, Note_off_c, 0, 60, 127
2, 84353, Note_on_c, 12, 59, 127
2, 84466, Note_off_c, 12, 59, 127
2, 84468, Note_on_c, 10, 57, 127
2, 84581, Note_off_c, 10, 57, 127
2, 84583, Note_on_c, 7, 55, 127
2, 84696, Note_off_c, 7, 55, 127
2, 84696, Note_off_c, 10, 69, 127
2, 84696, Note_off_c, 2, 74, 127
2, 84696, Note_off_c, 6, 78, 127
2, 84699, Note_on_c, 6, 54, 127
2, 84699, Note_on_c, 2, 74, 127
2, 84812, Note_off_c, 2, 74, 127
2, 84812, Note_off_c, 6, 54, 127
2, 84814, Note_on_c, 4, 52, 127
2, 84814, Note_on_c, 4, 76, 127
2, 84927, Note_off_c, 4, 76, 127
2, 84927, Note_off_c, 4, 52, 127
2, 84929, Note_on_c, 2, 50, 127
2, 84929, Note_on_c, 6, 78, 127
2, 85042, Note_off_c, 6, 78, 127
2, 85042, Note_off_c, 2, 50, 127
2, 85044, Note_on_c, 10, 57, 127
2, 85044, Note_on_c, 7, 79, 127
2, 85157, Note_off_c, 7, 79, 127
2, 85157, Note_off_c, 10, 57, 127
2, 85159, Note_on_c, 0, 48, 127
2, 85159, Note_on_c, 10, 81, 127
2, 85272, Note_off_c, 10, 81, 127
2, 85272, Note_off_c, 0, 48, 127
2, 85275, Note_on_c, 10, 57, 127
2, 85275, Note_on_c, 6, 78, 127
2, 85388, Note_off_c, 6, 78, 127
2, 85388, Note_off_c, 10, 57, 127
2, 85390, Note_on_c, 12, 47, 127
2, 85390, Note_on_c, 7, 79, 127
2, 85608, Note_off_c, 7, 79, 127
2, 85608, Note_off_c, 12, 47, 127
2, 85620, Note_on_c, 2, 50, 127
2, 85620, Note_on_c, 6, 78, 127
2, 85733, Note_off_c, 6, 78, 127
2, 85736, Note_on_c, 4, 76, 127
2, 85838, Note_off_c, 2, 50, 127
2, 85849, Note_off_c, 4, 76, 127
2, 85851, Note_on_c, 7, 55, 127
2, 85851, Note_on_c, 2, 74, 127
2, 85964, Note_off_c, 2, 74, 127
2, 85966, Note_on_c, 0, 72, 127
2, 86069, Note_off_c, 7, 55, 127
2, 86079, Note_off_c, 0, 72, 127
2, 86081, Note_on_c, 10, 57, 127
2, 86081, Note_on_c, 12, 71, 127
2, 86194, Note_off_c, 12, 71, 127
2, 86197, Note_on_c, 10, 69, 127
2, 86299, Note_off_c, 10, 57, 127
2, 86310, Note_off_c, 10, 69, 127
2, 86312, Note_on_c, 12, 59, 127
2, 86312, Note_on_c, 7, 67, 127
2, 86425, Note_off_c, 7, 67, 127
2, 86427, Note_on_c, 12, 71, 127
2, 86530, Note_off_c, 12, 59, 127
2, 86540, Note_off_c, 12, 71, 127
2, 86542, Note_on_c, 7, 55, 127
2, 86542, Note_on_c, 2, 74, 127
2, 86655, Note_off_c, 2, 74, 127
2, 86657, Note_on_c, 5, 77, 127
2, 86760, Note_off_c, 7, 55, 127
2, 86770, Note_off_c, 5, 77, 127
2, 86773, Note_on_c, 0, 60, 127
2, 86773, Note_on_c, 4, 76, 127
2, 86886, Note_off_c, 4, 76, 127
2, 86888, Note_on_c, 2, 74, 127
2, 86991, Note_off_c, 0, 60, 127
2, 87001, Note_off_c, 2, 74, 127
2, 87003, Note_on_c, 4, 64, 127
2, 87003, Note_on_c, 0, 72, 127
2, 87116, Note_off_c, 0, 72, 127
2, 87118, Note_on_c, 12, 71, 127
2, 87221, Note_off_c, 4, 64, 127
2, 87231, Note_off_c, 12, 71, 127
2, 87234, Note_on_c, 0, 60, 127
2, 87234, Note_on_c, 10, 69, 127
2, 87347, Note_off_c, 10, 69, 127
2, 87349, Note_on_c, 6, 78, 127
2, 87452, Note_off_c, 0, 60, 127
2, 87462, Note_off_c, 6, 78, 127
2, 87464, Note_on_c, 12, 59, 127
2, 87464, Note_on_c, 7, 79, 127
2, 87577, Note_off_c, 7, 79, 127
2, 87579, Note_on_c, 10, 81, 127
2, 87682, Note_off_c, 12, 59, 127
2, 87692, Note_off_c, 10, 81, 127
2, 87694, Note_on_c, 0, 60, 127
2, 87694, Note_on_c, 7, 79, 127
2, 87807, Note_off_c, 7, 79, 127
2, 87810, Note_on_c, 6, 78, 127
2, 87912, Note_off_c, 0, 60, 127
2, 87923, Note_off_c, 6, 78, 127
2, 87925, Note_on_c, 10, 57, 127
2, 87925, Note_on_c, 7, 79, 127
2, 88038, Note_off_c, 7, 79, 127
2, 88040, Note_on_c, 4, 76, 127
2, 88143, Note_off_c, 10, 57, 127
2, 88153, Note_off_c, 4, 76, 127
2, 88155, Note_on_c, 12, 59, 127
2, 88155, Note_on_c, 3, 75, 127
2, 88373, Note_off_c, 3, 75, 127
2, 88373, Note_off_c, 12, 59, 127
2, 88386, Note_on_c, 10, 57, 127
2, 88386, Note_on_c, 12, 71, 127
2, 88499, Note_off_c, 10, 57, 127
2, 88501, Note_on_c, 7, 55, 127
2, 88614, Note_off_c, 12, 71, 127
2, 88616, Note_off_c, 7, 55, 127
2, 88618, Note_on_c, 6, 54, 127
2, 88731, Note_off_c, 6, 54, 127
2, 88733, Note_on_c, 4, 52, 127
2, 88846, Note_off_c, 4, 52, 127
2, 88848, Note_on_c, 3, 51, 127
2, 88848, Note_on_c, 12, 83, 127
2, 88961, Note_off_c, 12, 83, 127
2, 88961, Note_off_c, 3, 51, 127
2, 88964, Note_on_c, 1, 49, 127
2, 88964, Note_on_c, 10, 81, 127
2, 89077, Note_off_c, 10, 81, 127
2, 89077, Note_off_c, 1, 49, 127
2, 89079, Note_on_c, 12, 47, 127
2, 89079, Note_on_c, 7, 79, 127
2, 89192, Note_off_c, 7, 79, 127
2, 89192, Note_off_c, 12, 47, 127
2, 89194, Note_on_c, 6, 54, 127
2, 89194, Note_on_c, 6, 78, 127
2, 89307, Note_off_c, 6, 78, 127
2, 89307, Note_off_c, 6, 54, 127
2, 89309, Note_on_c, 10, 45, 127
2, 89309, Note_on_c, 4, 76, 127
2, 89422, Note_off_c, 4, 76, 127
2, 89422, Note_off_c, 10, 45, 127
2, 89425, Note_on_c, 6, 54, 127
2, 89425, Note_on_c, 3, 75, 127
2, 89538, Note_off_c, 3, 75, 127
2, 89538, Note_off_c, 6, 54, 127
2, 89540, Note_on_c, 7, 43, 127
2, 89540, Note_on_c, 4, 76, 127
2, 89653, Note_off_c, 7, 43, 127
2, 89655, Note_on_c, 10, 45, 127
2, 89758, Note_off_c, 4, 76, 127
2, 89768, Note_off_c, 10, 45, 127
2, 89770, Note_on_c, 6, 42, 127
2, 89770, Note_on_c, 6, 78, 127
2, 89883, Note_off_c, 6, 78, 127
2, 89883, Note_off_c, 6, 42, 127
2, 89886, Note_on_c, 10, 45, 127
2, 89886, Note_on_c, 3, 75, 127
2, 89999, Note_off_c, 3, 75, 127
2, 89999, Note_off_c, 10, 45, 127
2, 90001, Note_on_c, 7, 43, 127
2, 90001, Note_on_c, 4, 76, 127
2, 90114, Note_off_c, 7, 43, 127
2, 90116, Note_on_c, 10, 45, 127
2, 90219, Note_off_c, 4, 76, 127
2, 90229, Note_off_c, 10, 45, 127
2, 90231, Note_on_c, 6, 42, 127
2, 90231, Note_on_c, 6, 78, 127
2, 90344, Note_off_c, 6, 78, 127
2, 90344, Note_off_c, 6, 42, 127
2, 90346, Note_on_c, 10, 45, 127
2, 90346, Note_on_c, 3, 75, 127
2, 90459, Note_off_c, 3, 75, 127
2, 90459, Note_off_c, 10, 45, 127
2, 90462, Note_on_c, 7, 43, 127
2, 90462, Note_on_c, 4, 76, 127
2, 90575, Note_off_c, 7, 43, 127
2, 90577, Note_on_c, 12, 47, 127
2, 90690, Note_off_c, 12, 47, 127
2, 90692, Note_on_c, 4, 40, 127
2, 90692, Note_on_c, 12, 71, 127
2, 90805, Note_off_c, 4, 40, 127
2, 90807, Note_on_c, 7, 43, 127
2, 90910, Note_off_c, 12, 71, 127
2, 90920, Note_off_c, 7, 43, 127
2, 90923, Note_on_c, 10, 45, 127
2, 90923, Note_on_c, 0, 72, 127
2, 91036, Note_off_c, 10, 45, 127
2, 91038, Note_on_c, 12, 47, 127
2, 91141, Note_off_c, 0, 72, 127
2, 91151, Note_off_c, 12, 47, 127
2, 91153, Note_on_c, 7, 43, 127
2, 91153, Note_on_c, 2, 74, 127
2, 91266, Note_off_c, 2, 74, 127
2, 91266, Note_off_c, 7, 43, 127
2, 91268, Note_on_c, 12, 47, 127
2, 91268, Note_on_c, 12, 71, 127
2, 91381, Note_off_c, 12, 71, 127
2, 91381, Note_off_c, 12, 47, 127
2, 91384, Note_on_c, 10, 45, 127
2, 91384, Note_on_c, 0, 72, 127
2, 91497, Note_off_c, 10, 45, 127
2, 91499, Note_on_c, 12, 47, 127
2, 91602, Note_off_c, 0, 72, 127
2, 91612, Note_off_c, 12, 47, 127
2, 91614, Note_on_c, 7, 43, 127
2, 91614, Note_on_c, 2, 74, 127
2, 91727, Note_off_c, 2, 74, 127
2, 91727, Note_off_c, 7, 43, 127
2, 91729, Note_on_c, 12, 47, 127
2, 91729, Note_on_c, 12, 71, 127
2, 91842, Note_off_c, 12, 71, 127
2, 91842, Note_off_c, 12, 47, 127
2, 91844, Note_on_c, 10, 45, 127
2, 91844, Note_on_c, 0, 72, 127
2, 91957, Note_off_c, 10, 45, 127
2, 91960, Note_on_c, 0, 48, 127
2, 92062, Note_off_c, 0, 72, 127
2, 92073, Note_off_c, 0, 48, 127
2, 92075, Note_on_c, 6, 42, 127
2, 92075, Note_on_c, 10, 81, 127
2, 92075, Note_on_c, 0, 72, 127
2, 92081, Note_off_c, 4, 76, 127
2, 92188, Note_off_c, 6, 42, 127
2, 92190, Note_on_c, 10, 45, 127
2, 92293, Note_off_c, 0, 72, 127
2, 92293, Note_off_c, 10, 81, 127
2, 92303, Note_off_c, 10, 45, 127
2, 92305, Note_on_c, 12, 47, 127
2, 92305, Note_on_c, 7, 79, 127
2, 92305, Note_on_c, 12, 71, 127
2, 92523, Note_off_c, 12, 71, 127
2, 92523, Note_off_c, 7, 79, 127
2, 92523, Note_off_c, 12, 47, 127
2, 92536, Note_on_c, 1, 49, 127
2, 92536, Note_on_c, 10, 69, 127
2, 92536, Note_on_c, 6, 78, 127
2, 92649, Note_off_c, 1, 49, 127
2, 92651, Note_on_c, 3, 51, 127
2, 92754, Note_off_c, 10, 69, 127
2, 92764, Note_off_c, 3, 51, 127
2, 92766, Note_on_c, 4, 52, 127
2, 92766, Note_on_c, 7, 67, 127
2, 92879, Note_off_c, 4, 52, 127
2, 92882, Note_on_c, 6, 54, 127
2, 92991, Note_off_c, 6, 78, 127
2, 92995, Note_off_c, 6, 54, 127
2, 92997, Note_on_c, 7, 55, 127
2, 92997, Note_on_c, 4, 76, 127
2, 93110, Note_off_c, 7, 55, 127
2, 93112, Note_on_c, 10, 57, 127
2, 93221, Note_off_c, 7, 67, 127
2, 93225, Note_off_c, 10, 57, 127
2, 93227, Note_on_c, 12, 59, 127
2, 93227, Note_on_c, 6, 66, 127
2, 93332, Note_off_c, 4, 76, 127
2, 93342, Note_on_c, 10, 69, 127
2, 93445, Note_off_c, 12, 59, 127
2, 93455, Note_off_c, 10, 69, 127
2, 93458, Note_on_c, 12, 47, 127
2, 93458, Note_on_c, 4, 76, 127
2, 93571, Note_off_c, 4, 76, 127
2, 93573, Note_on_c, 3, 75, 127
2, 93676, Note_off_c, 12, 47, 127
2, 93682, Note_off_c, 6, 66, 127
2, 93686, Note_off_c, 3, 75, 127
2, 93688, Note_on_c, 4, 52, 127
2, 93688, Note_on_c, 4, 76, 127
2, 93906, Note_off_c, 4, 52, 127
2, 93919, Note_on_c, 6, 54, 127
2, 93919, Note_on_c, 0, 72, 127
2, 94032, Note_off_c, 6, 54, 127
2, 94034, Note_on_c, 7, 55, 127
2, 94137, Note_off_c, 0, 72, 127
2, 94147, Note_off_c, 7, 55, 127
2, 94149, Note_on_c, 10, 57, 127
2, 94149, Note_on_c, 12, 71, 127
2, 94262, Note_off_c, 10, 57, 127
2, 94264, Note_on_c, 12, 59, 127
2, 94367, Note_off_c, 12, 71, 127
2, 94377, Note_off_c, 12, 59, 127
2, 94380, Note_on_c, 1, 61, 127
2, 94380, Note_on_c, 10, 69, 127
2, 94493, Note_off_c, 1, 61, 127
2, 94495, Note_on_c, 3, 63, 127
2, 94598, Note_off_c, 10, 69, 127
2, 94608, Note_off_c, 3, 63, 127
2, 94610, Note_on_c, 4, 64, 127
2, 94610, Note_on_c, 7, 67, 127
2, 94723, Note_off_c, 4, 64, 127
2, 94725, Note_on_c, 1, 61, 127
2, 94828, Note_off_c, 7, 67, 127
2, 94838, Note_off_c, 1, 61, 127
2, 94840, Note_off_c, 4, 76, 127
2, 94840, Note_on_c, 2, 62, 127
2, 94840, Note_on_c, 4, 76, 127
2, 94953, Note_off_c, 2, 62, 127
2, 94956, Note_on_c, 12, 59, 127
2, 95058, Note_off_c, 4, 76, 127
2, 95069, Note_off_c, 12, 59, 127
2, 95071, Note_on_c, 1, 61, 127
2, 95071, Note_on_c, 10, 69, 127
2, 95184, Note_off_c, 1, 61, 127
2, 95186, Note_on_c, 2, 62, 127
2, 95289, Note_off_c, 10, 69, 127
2, 95299, Note_off_c, 2, 62, 127
2, 95301, Note_on_c, 1, 61, 127
2, 95301, Note_on_c, 12, 71, 127
2, 95414, Note_off_c, 12, 71, 127
2, 95414, Note_off_c, 1, 61, 127
2, 95417, Note_on_c, 12, 59, 127
2, 95417, Note_on_c, 1, 73, 127
2, 95530, Note_off_c, 1, 73, 127
2, 95530, Note_off_c, 12, 59, 127
2, 95532, Note_on_c, 10, 57, 127
2, 95532, Note_on_c, 2, 74, 127
2, 95645, Note_off_c, 2, 74, 127
2, 95645, Note_off_c, 10, 57, 127
2, 95647, Note_on_c, 7, 55, 127
2, 95647, Note_on_c, 4, 76, 127
2, 95760, Note_off_c, 4, 76, 127
2, 95760, Note_off_c, 7, 55, 127
2, 95762, Note_on_c, 6, 54, 127
2, 95762, Note_on_c, 6, 78, 127
2, 95875, Note_off_c, 6, 78, 127
2, 95875, Note_off_c, 6, 54, 127
2, 95877, Note_on_c, 4, 52, 127
2, 95877, Note_on_c, 7, 79, 127
2, 95990, Note_off_c, 7, 79, 127
2, 95990, Note_off_c, 4, 52, 127
2, 95993, Note_on_c, 6, 54, 127
2, 95993, Note_on_c, 10, 81, 127
2, 96106, Note_off_c, 10, 81, 127
2, 96106, Note_off_c, 6, 54, 127
2, 96108, Note_on_c, 2, 62, 127
2, 96108, Note_on_c, 6, 78, 127
2, 96221, Note_off_c, 6, 78, 127
2, 96221, Note_off_c, 2, 62, 127
2, 96223, Note_on_c, 4, 52, 127
2, 96223, Note_on_c, 7, 79, 127
2, 96336, Note_off_c, 7, 79, 127
2, 96336, Note_off_c, 4, 52, 127
2, 96338, Note_on_c, 1, 61, 127
2, 96338, Note_on_c, 4, 76, 127
2, 96451, Note_off_c, 4, 76, 127
2, 96451, Note_off_c, 1, 61, 127
2, 96454, Note_on_c, 2, 62, 127
2, 96454, Note_on_c, 6, 78, 127
2, 96567, Note_off_c, 6, 78, 127
2, 96569, Note_on_c, 7, 79, 127
2, 96672, Note_off_c, 2, 62, 127
2, 96682, Note_off_c, 7, 79, 127
2, 96684, Note_on_c, 2, 50, 127
2, 96684, Note_on_c, 6, 78, 127
2, 96797, Note_off_c, 6, 78, 127
2, 96797, Note_off_c, 2, 50, 127
2, 96799, Note_on_c, 4, 52, 127
2, 96799, Note_on_c, 4, 76, 127
2, 96912, Note_off_c, 4, 76, 127
2, 96912, Note_off_c, 4, 52, 127
2, 96915, Note_on_c, 6, 54, 127
2, 96915, Note_on_c, 2, 74, 127
2, 97028, Note_off_c, 2, 74, 127
2, 97028, Note_off_c, 6, 54, 127
2, 97030, Note_on_c, 7, 55, 127
2, 97030, Note_on_c, 4, 76, 127
2, 97143, Note_off_c, 4, 76, 127
2, 97143, Note_off_c, 7, 55, 127
2, 97145, Note_on_c, 10, 57, 127
2, 97145, Note_on_c, 6, 78, 127
2, 97258, Note_off_c, 6, 78, 127
2, 97258, Note_off_c, 10, 57, 127
2, 97260, Note_on_c, 12, 59, 127
2, 97260, Note_on_c, 7, 79, 127
2, 97373, Note_off_c, 7, 79, 127
2, 97373, Note_off_c, 12, 59, 127
2, 97375, Note_on_c, 0, 60, 127
2, 97375, Note_on_c, 10, 81, 127
2, 97488, Note_off_c, 10, 81, 127
2, 97488, Note_off_c, 0, 60, 127
2, 97491, Note_on_c, 2, 62, 127
2, 97491, Note_on_c, 12, 83, 127
2, 97604, Note_off_c, 12, 83, 127
2, 97604, Note_off_c, 2, 62, 127
2, 97606, Note_on_c, 4, 64, 127
2, 97606, Note_on_c, 0, 84, 127
2, 97719, Note_off_c, 0, 84, 127
2, 97719, Note_off_c, 4, 64, 127
2, 97721, Note_on_c, 6, 66, 127
2, 97721, Note_on_c, 10, 81, 127
2, 97834, Note_off_c, 10, 81, 127
2, 97834, Note_off_c, 6, 66, 127
2, 97836, Note_on_c, 7, 67, 127
2, 97836, Note_on_c, 12, 83, 127
2, 97949, Note_off_c, 12, 83, 127
2, 97952, Note_on_c, 6, 78, 127
2, 98054, Note_off_c, 7, 67, 127
2, 98065, Note_off_c, 6, 78, 127
2, 98067, Note_on_c, 12, 59, 127
2, 98067, Note_on_c, 7, 79, 127
2, 98180, Note_off_c, 7, 79, 127
2, 98182, Note_on_c, 2, 74, 127
2, 98285, Note_off_c, 12, 59, 127
2, 98295, Note_off_c, 2, 74, 127
2, 98297, Note_on_c, 0, 60, 127
2, 98297, Note_on_c, 4, 76, 127
2, 98410, Note_off_c, 4, 76, 127
2, 98413, Note_on_c, 12, 71, 127
2, 98515, Note_off_c, 0, 60, 127
2, 98526, Note_off_c, 12, 71, 127
2, 98528, Note_on_c, 4, 64, 127
2, 98528, Note_on_c, 0, 72, 127
2, 98641, Note_off_c, 0, 72, 127
2, 98643, Note_on_c, 7, 67, 127
2, 98746, Note_off_c, 4, 64, 127
2, 98756, Note_off_c, 7, 67, 127
2, 98758, Note_on_c, 0, 60, 127
2, 98758, Note_on_c, 10, 69, 127
2, 98871, Note_off_c, 10, 69, 127
2, 98873, Note_on_c, 0, 72, 127
2, 98976, Note_off_c, 0, 60, 127
2, 98986, Note_off_c, 0, 72, 127
2, 98989, Note_on_c, 10, 57, 127
2, 98989, Note_on_c, 4, 64, 127
2, 99102, Note_off_c, 4, 64, 127
2, 99104, Note_on_c, 7, 67, 127
2, 99207, Note_off_c, 10, 57, 127
2, 99217, Note_off_c, 7, 67, 127
2, 99219, Note_on_c, 2, 62, 127
2, 99219, Note_on_c, 6, 66, 127
2, 99332, Note_off_c, 6, 66, 127
2, 99334, Note_on_c, 10, 69, 127
2, 99437, Note_off_c, 2, 62, 127
2, 99447, Note_off_c, 10, 69, 127
2, 99450, Note_on_c, 0, 60, 127
2, 99450, Note_on_c, 2, 62, 127
2, 99563, Note_off_c, 2, 62, 127
2, 99563, Note_off_c, 0, 60, 127
2, 99565, Note_on_c, 12, 59, 127
2, 99565, Note_on_c, 4, 64, 127
2, 99678, Note_off_c, 4, 64, 127
2, 99678, Note_off_c, 12, 59, 127
2, 99680, Note_on_c, 10, 57, 127
2, 99680, Note_on_c, 6, 66, 127
2, 99793, Note_off_c, 6, 66, 127
2, 99793, Note_off_c, 10, 57, 127
2, 99795, Note_on_c, 7, 55, 127
2, 99795, Note_on_c, 7, 67, 127
2, 99908, Note_off_c, 7, 67, 127
2, 99908, Note_off_c, 7, 55, 127
2, 99911, Note_on_c, 6, 54, 127
2, 99911, Note_on_c, 10, 69, 127
2, 100024, Note_off_c, 10, 69, 127
2, 100024, Note_off_c, 6, 54, 127
2, 100026, Note_on_c, 4, 52, 127
2, 100026, Note_on_c, 12, 71, 127
2, 100139, Note_off_c, 12, 71, 127
2, 100139, Note_off_c, 4, 52, 127
2, 100141, Note_on_c, 2, 50, 127
2, 100141, Note_on_c, 0, 72, 127
2, 100254, Note_off_c, 0, 72, 127
2, 100254, Note_off_c, 2, 50, 127
2, 100256, Note_on_c, 10, 57, 127
2, 100256, Note_on_c, 2, 74, 127
2, 100369, Note_off_c, 2, 74, 127
2, 100369, Note_off_c, 10, 57, 127
2, 100371, Note_on_c, 0, 48, 127
2, 100371, Note_on_c, 4, 76, 127
2, 100484, Note_off_c, 4, 76, 127
2, 100484, Note_off_c, 0, 48, 127
2, 100487, Note_on_c, 10, 57, 127
2, 100487, Note_on_c, 6, 78, 127
2, 100600, Note_off_c, 6, 78, 127
2, 100600, Note_off_c, 10, 57, 127
2, 100602, Note_on_c, 12, 47, 127
2, 100602, Note_on_c, 7, 79, 127
2, 100715, Note_off_c, 7, 79, 127
2, 100717, Note_on_c, 10, 81, 127
2, 100820, Note_off_c, 12, 47, 127
2, 100830, Note_off_c, 10, 81, 127
2, 100832, Note_on_c, 10, 45, 127
2, 100832, Note_on_c, 2, 74, 127
2, 100945, Note_off_c, 2, 74, 127
2, 100948, Note_on_c, 6, 78, 127
2, 101050, Note_off_c, 10, 45, 127
2, 101061, Note_off_c, 6, 78, 127
2, 101063, Note_on_c, 12, 47, 127
2, 101063, Note_on_c, 7, 79, 127
2, 101176, Note_off_c, 7, 79, 127
2, 101178, Note_on_c, 10, 81, 127
2, 101281, Note_off_c, 12, 47, 127
2, 101291, Note_off_c, 10, 81, 127
2, 101293, Note_on_c, 2, 50, 127
2, 101293, Note_on_c, 2, 74, 127
2, 101409, Note_on_c, 7, 79, 127
2, 101461, Note_off_c, 2, 74, 127
2, 101511, Note_off_c, 2, 50, 127
2, 101522, Note_off_c, 7, 79, 127
2, 101524, Note_on_c, 7, 55, 127
2, 101524, Note_on_c, 12, 71, 127
2, 101639, Note_on_c, 7, 79, 127
2, 101692, Note_off_c, 12, 71, 127
2, 101742, Note_off_c, 7, 55, 127
2, 101752, Note_off_c, 7, 79, 127
2, 101754, Note_on_c, 12, 47, 127
2, 101754, Note_on_c, 2, 74, 127
2, 101869, Note_on_c, 10, 81, 127
2, 101922, Note_off_c, 2, 74, 127
2, 101972, Note_off_c, 12, 47, 127
2, 101982, Note_off_c, 10, 81, 127
2, 101985, Note_on_c, 0, 48, 127
2, 101985, Note_on_c, 7, 79, 127
2, 102098, Note_off_c, 7, 79, 127
2, 102100, Note_on_c, 10, 81, 127
2, 102203, Note_off_c, 0, 48, 127
2, 102213, Note_off_c, 10, 81, 127
2, 102215, Note_on_c, 2, 50, 127
2, 102215, Note_on_c, 4, 76, 127
2, 102328, Note_off_c, 4, 76, 127
2, 102330, Note_on_c, 6, 78, 127
2, 102433, Note_off_c, 2, 50, 127
2, 102443, Note_off_c, 6, 78, 127
2, 102446, Note_on_c, 4, 52, 127
2, 102446, Note_on_c, 7, 79, 127
2, 102559, Note_off_c, 7, 79, 127
2, 102561, Note_on_c, 10, 81, 127
2, 102664, Note_off_c, 4, 52, 127
2, 102674, Note_off_c, 10, 81, 127
2, 102676, Note_on_c, 0, 48, 127
2, 102676, Note_on_c, 4, 76, 127
2, 102791, Note_on_c, 7, 79, 127
2, 102844, Note_off_c, 4, 76, 127
2, 102894, Note_off_c, 0, 48, 127
2, 102904, Note_off_c, 7, 79, 127
2, 102907, Note_on_c, 10, 45, 127
2, 102907, Note_on_c, 0, 72, 127
2, 103022, Note_on_c, 7, 79, 127
2, 103075, Note_off_c, 0, 72, 127
2, 103125, Note_off_c, 10, 45, 127
2, 103135, Note_off_c, 7, 79, 127
2, 103137, Note_on_c, 0, 48, 127
2, 103137, Note_on_c, 4, 76, 127
2, 103252, Note_on_c, 7, 79, 127
2, 103305, Note_off_c, 4, 76, 127
2, 103355, Note_off_c, 0, 48, 127
2, 103368, Note_off_c, 7, 79, 127
2, 103371, Note_on_c, 6, 78, 127
2, 103371, Note_on_c, 2, 50, 127
2, 103487, Note_off_c, 6, 78, 127
2, 103489, Note_on_c, 7, 79, 127
2, 103594, Note_off_c, 2, 50, 127
2, 103604, Note_off_c, 7, 79, 127
2, 103606, Note_on_c, 10, 81, 127
2, 103606, Note_on_c, 4, 52, 127
2, 103722, Note_off_c, 10, 81, 127
2, 103725, Note_on_c, 6, 78, 127
2, 103829, Note_off_c, 4, 52, 127
2, 103840, Note_off_c, 6, 78, 127
2, 103842, Note_on_c, 0, 72, 127
2, 103842, Note_on_c, 6, 54, 127
2, 103958, Note_off_c, 0, 72, 127
2, 103960, Note_on_c, 4, 76, 127
2, 104065, Note_off_c, 6, 54, 127
2, 104075, Note_off_c, 4, 76, 127
2, 104077, Note_on_c, 2, 74, 127
2, 104077, Note_on_c, 7, 55, 127
2, 104193, Note_off_c, 2, 74, 127
2, 104196, Note_on_c, 0, 72, 127
2, 104300, Note_off_c, 7, 55, 127
2, 104316, Note_off_c, 0, 72, 127
2, 104318, Note_on_c, 12, 71, 127
2, 104318, Note_on_c, 2, 50, 127
2, 104445, Note_on_c, 7, 79, 127
2, 104473, Note_off_c, 12, 71, 127
2, 104570, Note_on_c, 10, 69, 127
2, 104570, Note_on_c, 0, 60, 127
2, 104598, Note_off_c, 7, 79, 127
2, 104695, Note_on_c, 6, 78, 127
2, 104723, Note_off_c, 10, 69, 127
2, 104805, Note_off_c, 0, 60, 127
2, 104813, Note_off_c, 2, 50, 127
2, 104823, Note_off_c, 6, 78, 127
2, 104825, Note_on_c, 7, 79, 127
2, 104825, Note_on_c, 12, 59, 127
2, 105075, Note_off_c, 7, 79, 127
2, 105094, Note_on_c, 6, 78, 127
2, 105094, Note_on_c, 7, 55, 127
2, 105222, Note_off_c, 6, 78, 127
2, 105229, Note_on_c, 4, 76, 127
2, 105352, Note_off_c, 12, 59, 127
2, 105364, Note_off_c, 4, 76, 127
2, 105366, Note_on_c, 2, 74, 127
2, 105366, Note_on_c, 12, 59, 127
2, 105501, Note_off_c, 2, 74, 127
2, 105512, Note_on_c, 0, 72, 127
2, 105629, Note_off_c, 12, 59, 127
2, 105647, Note_off_c, 0, 72, 127
2, 105652, Note_on_c, 12, 71, 127
2, 105652, Note_on_c, 2, 62, 127
2, 105787, Note_off_c, 12, 71, 127
2, 105792, Note_on_c, 10, 69, 127
2, 105927, Note_off_c, 2, 62, 127
2, 105955, Note_off_c, 10, 69, 127
2, 105968, Note_on_c, 7, 67, 127
2, 106424, Note_off_c, 7, 55, 127
2, 107768, Note_off_c, 7, 67, 127
2, 109515, Note_on_c, 12, 71, 127
2, 109515, Note_on_c, 7, 43, 127
2, 109671, Note_off_c, 12, 71, 127
2, 109673, Note_on_c, 10, 69, 127
2, 109829, Note_off_c, 10, 69, 127
2, 109832, Note_on_c, 12, 71, 127
2, 110148, Note_on_c, 7, 55, 127
2, 110461, Note_off_c, 12, 71, 127
2, 110463, Note_on_c, 0, 72, 127
2, 110776, Note_off_c, 0, 72, 127
2, 110777, Note_off_c, 7, 43, 127
2, 110779, Note_on_c, 12, 71, 127
2, 110779, Note_on_c, 4, 52, 127
2, 110882, Note_off_c, 12, 71, 127
2, 110884, Note_on_c, 10, 69, 127
2, 110987, Note_off_c, 10, 69, 127
2, 110989, Note_on_c, 12, 71, 127
2, 111092, Note_off_c, 12, 71, 127
2, 111095, Note_on_c, 10, 69, 127
2, 111251, Note_off_c, 10, 69, 127
2, 111253, Note_on_c, 7, 67, 127
2, 111409, Note_off_c, 7, 67, 127
2, 111410, Note_off_c, 4, 52, 127
2, 111412, Note_on_c, 2, 74, 127
2, 111412, Note_on_c, 12, 47, 127
2, 112021, Note_off_c, 2, 74, 127
2, 112043, Note_off_c, 12, 47, 127
2, 112045, Note_on_c, 2, 74, 127
2, 112045, Note_on_c, 0, 48, 127
2, 112354, Note_off_c, 7, 55, 127
2, 112358, Note_off_c, 2, 74, 127
2, 112360, Note_on_c, 4, 76, 127
2, 112360, Note_on_c, 7, 55, 127
2, 112516, Note_off_c, 4, 76, 127
2, 112519, Note_on_c, 2, 74, 127
2, 112675, Note_off_c, 2, 74, 127
2, 112675, Note_off_c, 7, 55, 127
2, 112678, Note_on_c, 4, 76, 127
2, 112678, Note_on_c, 10, 57, 127
2, 112991, Note_off_c, 10, 57, 127
2, 112993, Note_on_c, 12, 59, 127
2, 113138, Note_off_c, 4, 76, 127
2, 113308, Note_off_c, 12, 59, 127
2, 113309, Note_off_c, 0, 48, 127
2, 113311, Note_on_c, 7, 67, 127
2, 113311, Note_on_c, 0, 60, 127
2, 113311, Note_on_c, 10, 57, 127
2, 113624, Note_off_c, 7, 67, 127
2, 113626, Note_on_c, 6, 66, 127
2, 113940, Note_off_c, 10, 57, 127
2, 113940, Note_off_c, 0, 60, 127
2, 113942, Note_on_c, 6, 54, 127
2, 113942, Note_on_c, 10, 57, 127
2, 114255, Note_off_c, 6, 66, 127
2, 114258, Note_on_c, 0, 72, 127
2, 114571, Note_off_c, 0, 72, 127
2, 114571, Note_off_c, 10, 57, 127
2, 114571, Note_off_c, 6, 54, 127
2, 114573, Note_on_c, 0, 72, 127
2, 114573, Note_on_c, 7, 55, 127
2, 114676, Note_off_c, 0, 72, 127
2, 114678, Note_on_c, 12, 71, 127
2, 114781, Note_off_c, 12, 71, 127
2, 114784, Note_on_c, 0, 72, 127
2, 114887, Note_off_c, 0, 72, 127
2, 114889, Note_on_c, 12, 71, 127
2, 115045, Note_off_c, 12, 71, 127
2, 115047, Note_on_c, 10, 69, 127
2, 115203, Note_off_c, 10, 69, 127
2, 115206, Note_on_c, 10, 69, 127
2, 115206, Note_on_c, 2, 50, 127
2, 115519, Note_off_c, 7, 55, 127
2, 115522, Note_on_c, 4, 52, 127
2, 115835, Note_off_c, 4, 52, 127
2, 115837, Note_on_c, 6, 54, 127
2, 116150, Note_off_c, 6, 54, 127
2, 116153, Note_on_c, 10, 57, 127
2, 116466, Note_off_c, 10, 57, 127
2, 116466, Note_off_c, 2, 50, 127
2, 116466, Note_off_c, 10, 69, 127
2, 116469, Note_on_c, 2, 62, 127
2, 116784, Note_on_c, 2, 50, 127
2, 117093, Note_off_c, 2, 62, 127
2, 117097, Note_off_c, 2, 50, 127
2, 117110, Note_on_c, 0, 48, 127
2, 117110, Note_on_c, 6, 78, 127
2, 117266, Note_off_c, 6, 78, 127
2, 117269, Note_on_c, 4, 76, 127
2, 117425, Note_off_c, 4, 76, 127
2, 117427, Note_on_c, 6, 78, 127
2, 117743, Note_on_c, 10, 57, 127
2, 118043, Note_off_c, 6, 78, 127
2, 118058, Note_on_c, 7, 79, 127
2, 118371, Note_off_c, 7, 79, 127
2, 118372, Note_off_c, 0, 48, 127
2, 118374, Note_on_c, 0, 48, 127
2, 118374, Note_on_c, 6, 78, 127
2, 118477, Note_off_c, 6, 78, 127
2, 118479, Note_on_c, 4, 76, 127
2, 118582, Note_off_c, 4, 76, 127
2, 118584, Note_on_c, 6, 78, 127
2, 118687, Note_off_c, 6, 78, 127
2, 118690, Note_on_c, 4, 76, 127
2, 118846, Note_off_c, 4, 76, 127
2, 118848, Note_on_c, 2, 74, 127
2, 119004, Note_off_c, 2, 74, 127
2, 119005, Note_off_c, 0, 48, 127
2, 119005, Note_off_c, 10, 57, 127
2, 119007, Note_on_c, 12, 47, 127
2, 119007, Note_on_c, 7, 79, 127
2, 119323, Note_on_c, 2, 50, 127
2, 119623, Note_off_c, 7, 79, 127
2, 119631, Note_off_c, 12, 47, 127
2, 119636, Note_off_c, 2, 50, 127
2, 119638, Note_on_c, 7, 55, 127
2, 119638, Note_on_c, 4, 52, 127
2, 119638, Note_on_c, 0, 72, 127
2, 119794, Note_off_c, 0, 72, 127
2, 119797, Note_on_c, 12, 71, 127
2, 119953, Note_off_c, 12, 71, 127
2, 119956, Note_on_c, 0, 72, 127
2, 120269, Note_off_c, 4, 52, 127
2, 120271, Note_on_c, 0, 48, 127
2, 120585, Note_off_c, 0, 72, 127
2, 120587, Note_on_c, 2, 74, 127
2, 120743, Note_off_c, 2, 74, 127
2, 120745, Note_on_c, 4, 76, 127
2, 120901, Note_off_c, 4, 76, 127
2, 120902, Note_off_c, 0, 48, 127
2, 120904, Note_on_c, 2, 50, 127
2, 120904, Note_on_c, 10, 69, 127
2, 121533, Note_off_c, 7, 55, 127
2, 121535, Note_off_c, 10, 69, 127
2, 121537, Note_on_c, 6, 54, 127
2, 121537, Note_on_c, 2, 74, 127
2, 121850, Note_off_c, 6, 54, 127
2, 121853, Note_on_c, 4, 52, 127
2, 122009, Note_off_c, 2, 74, 127
2, 122011, Note_on_c, 0, 72, 127
2, 122167, Note_off_c, 0, 72, 127
2, 122168, Note_off_c, 4, 52, 127
2, 122170, Note_on_c, 6, 54, 127
2, 122170, Note_on_c, 12, 71, 127
2, 122642, Note_off_c, 12, 71, 127
2, 122644, Note_on_c, 0, 72, 127
2, 122799, Note_off_c, 2, 50, 127
2, 122800, Note_off_c, 0, 72, 127
2, 122801, Note_off_c, 6, 54, 127
2, 122803, Note_on_c, 7, 55, 127
2, 122803, Note_on_c, 0, 72, 127
2, 122928, Note_off_c, 0, 72, 127
2, 122928, Note_on_c, 12, 71, 127
2, 123053, Note_off_c, 12, 71, 127
2, 123057, Note_on_c, 0, 72, 127
2, 123182, Note_off_c, 0, 72, 127
2, 123182, Note_on_c, 12, 71, 127
2, 123307, Note_off_c, 12, 71, 127
2, 123307, Note_on_c, 0, 72, 127
2, 123432, Note_off_c, 0, 72, 127
2, 123436, Note_on_c, 12, 71, 127
2, 123436, Note_on_c, 2, 50, 127
2, 123748, Note_off_c, 12, 71, 127
2, 123751, Note_on_c, 10, 69, 127
2, 124064, Note_off_c, 10, 69, 127
2, 124065, Note_off_c, 2, 50, 127
2, 124067, Note_on_c, 7, 43, 127
2, 124067, Note_on_c, 7, 67, 127
2, 124527, Note_off_c, 7, 67, 127
2, 124696, Note_off_c, 7, 55, 127
2, 124698, Note_off_c, 7, 43, 127
2, 124720, Note_on_c, 7, 55, 127
2, 124720, Note_on_c, 12, 83, 127
2, 125036, Note_on_c, 12, 59, 127
2, 125349, Note_off_c, 12, 59, 127
2, 125351, Note_on_c, 4, 64, 127
2, 125608, Note_off_c, 12, 83, 127
2, 125669, Note_on_c, 7, 79, 127
2, 125982, Note_off_c, 7, 79, 127
2, 125982, Note_off_c, 4, 64, 127
2, 125984, Note_on_c, 2, 62, 127
2, 125984, Note_on_c, 7, 79, 127
2, 126087, Note_off_c, 7, 79, 127
2, 126089, Note_on_c, 6, 78, 127
2, 126192, Note_off_c, 6, 78, 127
2, 126195, Note_on_c, 7, 79, 127
2, 126298, Note_off_c, 7, 79, 127
2, 126300, Note_on_c, 6, 78, 127
2, 126456, Note_off_c, 6, 78, 127
2, 126459, Note_on_c, 4, 76, 127
2, 126615, Note_off_c, 4, 76, 127
2, 126615, Note_off_c, 2, 62, 127
2, 126617, Note_on_c, 1, 61, 127
2, 126617, Note_on_c, 10, 81, 127
2, 126926, Note_off_c, 7, 55, 127
2, 126933, Note_on_c, 7, 55, 127
2, 127241, Note_off_c, 1, 61, 127
2, 127246, Note_off_c, 7, 55, 127
2, 127246, Note_off_c, 10, 81, 127
2, 127248, Note_on_c, 6, 54, 127
2, 127248, Note_on_c, 2, 74, 127
2, 127564, Note_on_c, 10, 57, 127
2, 127877, Note_off_c, 10, 57, 127
2, 127880, Note_on_c, 2, 62, 127
2, 128037, Note_off_c, 2, 74, 127
2, 128197, Note_on_c, 6, 78, 127
2, 128510, Note_off_c, 6, 78, 127
2, 128510, Note_off_c, 6, 54, 127
2, 128511, Note_off_c, 2, 62, 127
2, 128513, Note_on_c, 7, 55, 127
2, 128513, Note_on_c, 12, 71, 127
2, 128828, Note_on_c, 6, 54, 127
2, 129141, Note_off_c, 6, 54, 127
2, 129144, Note_on_c, 4, 52, 127
2, 129301, Note_off_c, 12, 71, 127
2, 129303, Note_on_c, 2, 74, 127
2, 129459, Note_off_c, 2, 74, 127
2, 129459, Note_off_c, 4, 52, 127
2, 129461, Note_on_c, 2, 50, 127
2, 129461, Note_on_c, 1, 73, 127
2, 129617, Note_off_c, 1, 73, 127
2, 129620, Note_on_c, 12, 71, 127
2, 129776, Note_off_c, 12, 71, 127
2, 129776, Note_off_c, 2, 50, 127
2, 129778, Note_on_c, 1, 49, 127
2, 129778, Note_on_c, 4, 76, 127
2, 129934, Note_off_c, 4, 76, 127
2, 129937, Note_on_c, 7, 79, 127
2, 130093, Note_off_c, 7, 79, 127
2, 130093, Note_off_c, 1, 49, 127
2, 130096, Note_on_c, 12, 47, 127
2, 130096, Note_on_c, 6, 78, 127
2, 130252, Note_off_c, 6, 78, 127
2, 130254, Note_on_c, 4, 76, 127
2, 130410, Note_off_c, 4, 76, 127
2, 130411, Note_off_c, 12, 47, 127
2, 130413, Note_on_c, 10, 45, 127
2, 130413, Note_on_c, 2, 74, 127
2, 130516, Note_off_c, 2, 74, 127
2, 130518, Note_on_c, 1, 73, 127
2, 130621, Note_off_c, 1, 73, 127
2, 130624, Note_on_c, 2, 74, 127
2, 130722, Note_off_c, 7, 55, 127
2, 130727, Note_off_c, 2, 74, 127
2, 130729, Note_on_c, 4, 52, 127
2, 130729, Note_on_c, 1, 73, 127
2, 130832, Note_off_c, 1, 73, 127
2, 130834, Note_on_c, 2, 74, 127
2, 130937, Note_off_c, 2, 74, 127
2, 130939, Note_on_c, 1, 73, 127
2, 131042, Note_off_c, 4, 52, 127
2, 131044, Note_on_c, 10, 57, 127
2, 131357, Note_off_c, 10, 57, 127
2, 131358, Note_off_c, 1, 73, 127
2, 131360, Note_on_c, 7, 55, 127
2, 131360, Note_on_c, 12, 71, 127
2, 131673, Note_off_c, 12, 71, 127
2, 131673, Note_off_c, 7, 55, 127
2, 131673, Note_off_c, 10, 45, 127
2, 131676, Note_on_c, 6, 54, 127
2, 131676, Note_on_c, 10, 69, 127
2, 131991, Note_on_c, 2, 50, 127
2, 132136, Note_off_c, 10, 69, 127
2, 132302, Note_off_c, 6, 54, 127
2, 132319, Note_on_c, 10, 69, 127
2, 132319, Note_on_c, 4, 52, 127
2, 132475, Note_off_c, 10, 69, 127
2, 132477, Note_on_c, 7, 67, 127
2, 132618, Note_off_c, 2, 50, 127
2, 132633, Note_off_c, 7, 67, 127
2, 132636, Note_on_c, 6, 66, 127
2, 132636, Note_on_c, 2, 50, 127
2, 132949, Note_off_c, 2, 50, 127
2, 132949, Note_off_c, 6, 66, 127
2, 132951, Note_on_c, 7, 67, 127
2, 132951, Note_on_c, 1, 49, 127
2, 133264, Note_off_c, 7, 67, 127
2, 133265, Note_off_c, 4, 52, 127
2, 133267, Note_on_c, 4, 76, 127
2, 133267, Note_on_c, 4, 52, 127
2, 133580, Note_off_c, 4, 52, 127
2, 133583, Note_on_c, 10, 57, 127
2, 133896, Note_off_c, 4, 76, 127
2, 133896, Note_off_c, 1, 49, 127
2, 133898, Note_on_c, 2, 74, 127
2, 133898, Note_on_c, 12, 47, 127
2, 134054, Note_off_c, 2, 74, 127
2, 134057, Note_on_c, 1, 73, 127
2, 134213, Note_off_c, 1, 73, 127
2, 134213, Note_off_c, 12, 47, 127
2, 134216, Note_on_c, 7, 79, 127
2, 134216, Note_on_c, 10, 45, 127
2, 134529, Note_off_c, 7, 79, 127
2, 134529, Note_off_c, 10, 57, 127
2, 134531, Note_on_c, 6, 78, 127
2, 134531, Note_on_c, 2, 50, 127
2, 134687, Note_off_c, 6, 78, 127
2, 134690, Note_on_c, 4, 76, 127
2, 134846, Note_off_c, 4, 76, 127
2, 134846, Note_off_c, 2, 50, 127
2, 134849, Note_on_c, 10, 81, 127
2, 134849, Note_on_c, 1, 49, 127
2, 135162, Note_off_c, 10, 45, 127
2, 135164, Note_on_c, 7, 43, 127
2, 135321, Note_off_c, 10, 81, 127
2, 135323, Note_on_c, 6, 78, 127
2, 135475, Note_off_c, 1, 49, 127
2, 135479, Note_off_c, 6, 78, 127
2, 135479, Note_off_c, 7, 43, 127
2, 135482, Note_on_c, 4, 76, 127
2, 135482, Note_on_c, 2, 50, 127
2, 135482, Note_on_c, 6, 42, 127
2, 135795, Note_off_c, 2, 50, 127
2, 135795, Note_off_c, 4, 76, 127
2, 135797, Note_on_c, 2, 74, 127
2, 135797, Note_on_c, 4, 52, 127
2, 136110, Note_off_c, 4, 52, 127
2, 136113, Note_on_c, 6, 54, 127
2, 136421, Note_off_c, 2, 74, 127
2, 136427, Note_off_c, 6, 42, 127
2, 136428, Note_on_c, 7, 43, 127
2, 136587, Note_on_c, 12, 71, 127
2, 136739, Note_off_c, 6, 54, 127
2, 136743, Note_off_c, 12, 71, 127
2, 136743, Note_off_c, 7, 43, 127
2, 136746, Note_on_c, 2, 74, 127
2, 136746, Note_on_c, 4, 52, 127
2, 136746, Note_on_c, 10, 45, 127
2, 136954, Note_off_c, 2, 74, 127
2, 136956, Note_on_c, 1, 73, 127
2, 137059, Note_off_c, 1, 73, 127
2, 137059, Note_off_c, 4, 52, 127
2, 137061, Note_on_c, 2, 74, 127
2, 137061, Note_on_c, 6, 54, 127
2, 137164, Note_off_c, 2, 74, 127
2, 137167, Note_on_c, 1, 73, 127
2, 137270, Note_off_c, 1, 73, 127
2, 137272, Note_on_c, 2, 74, 127
2, 137374, Note_off_c, 6, 54, 127
2, 137375, Note_off_c, 2, 74, 127
2, 137377, Note_on_c, 1, 73, 127
2, 137377, Note_on_c, 7, 55, 127
2, 137837, Note_off_c, 1, 73, 127
2, 137860, Note_on_c, 2, 74, 127
2, 138006, Note_off_c, 2, 74, 127
2, 138008, Note_off_c, 10, 45, 127
2, 138010, Note_on_c, 2, 74, 127
2, 138010, Note_on_c, 2, 50, 127
2, 138323, Note_off_c, 7, 55, 127
2, 138326, Note_on_c, 6, 54, 127
2, 138482, Note_off_c, 6, 54, 127
2, 138484, Note_on_c, 4, 52, 127
2, 138640, Note_off_c, 4, 52, 127
2, 138643, Note_on_c, 6, 54, 127
2, 138956, Note_off_c, 2, 50, 127
2, 138958, Note_on_c, 2, 50, 127
2, 139267, Note_off_c, 6, 54, 127
2, 139271, Note_off_c, 2, 50, 127
2, 139272, Note_off_c, 2, 74, 127
2, 139274, Note_on_c, 2, 38, 127
2, 139905, Note_off_c, 2, 38, 127
2, 139937, Note_on_c, 2, 50, 127
2, 139937, Note_on_c, 6, 78, 127
2, 140570, Note_on_c, 2, 62, 127
2, 140870, Note_off_c, 6, 78, 127
2, 140887, Note_on_c, 7, 79, 127
2, 141200, Note_off_c, 7, 79, 127
2, 141201, Note_off_c, 2, 50, 127
2, 141203, Note_on_c, 0, 60, 127
2, 141203, Note_on_c, 10, 81, 127
2, 141675, Note_off_c, 10, 81, 127
2, 141677, Note_on_c, 6, 78, 127
2, 141833, Note_off_c, 6, 78, 127
2, 141834, Note_off_c, 0, 60, 127
2, 141836, Note_on_c, 12, 59, 127
2, 141836, Note_on_c, 2, 74, 127
2, 142151, Note_off_c, 2, 62, 127
2, 142152, Note_on_c, 2, 62, 127
2, 142465, Note_off_c, 2, 62, 127
2, 142465, Note_off_c, 2, 74, 127
2, 142467, Note_on_c, 0, 60, 127
2, 142467, Note_on_c, 7, 79, 127
2, 142780, Note_off_c, 0, 60, 127
2, 142781, Note_off_c, 12, 59, 127
2, 142783, Note_on_c, 12, 59, 127
2, 143098, Note_on_c, 10, 57, 127
2, 143256, Note_off_c, 7, 79, 127
2, 143413, Note_off_c, 10, 57, 127
2, 143416, Note_on_c, 7, 55, 127
2, 143416, Note_on_c, 10, 81, 127
2, 143572, Note_off_c, 10, 81, 127
2, 143574, Note_on_c, 12, 83, 127
2, 143730, Note_off_c, 12, 83, 127
2, 143731, Note_off_c, 7, 55, 127
2, 143731, Note_off_c, 12, 59, 127
2, 143733, Note_on_c, 0, 60, 127
2, 143733, Note_on_c, 4, 76, 127
2, 144049, Note_on_c, 0, 48, 127
2, 144362, Note_off_c, 0, 48, 127
2, 144364, Note_on_c, 2, 50, 127
2, 144658, Note_off_c, 4, 76, 127
2, 144679, Note_off_c, 0, 60, 127
2, 144682, Note_on_c, 12, 59, 127
2, 144682, Note_on_c, 2, 74, 127
2, 144990, Note_off_c, 2, 50, 127
2, 144995, Note_off_c, 2, 74, 127
2, 144995, Note_off_c, 12, 59, 127
2, 144997, Note_on_c, 10, 57, 127
2, 144997, Note_on_c, 4, 52, 127
2, 144997, Note_on_c, 0, 72, 127
2, 145310, Note_off_c, 10, 57, 127
2, 145313, Note_on_c, 8, 56, 127
2, 145469, Note_off_c, 0, 72, 127
2, 145471, Note_on_c, 12, 71, 127
2, 145623, Note_off_c, 4, 52, 127
2, 145627, Note_off_c, 12, 71, 127
2, 145628, Note_off_c, 8, 56, 127
2, 145630, Note_on_c, 10, 57, 127
2, 145630, Note_on_c, 0, 72, 127
2, 145786, Note_off_c, 0, 72, 127
2, 145789, Note_on_c, 12, 71, 127
2, 145945, Note_off_c, 12, 71, 127
2, 145947, Note_on_c, 4, 52, 127
2, 145947, Note_on_c, 0, 72, 127
2, 146256, Note_off_c, 10, 57, 127
2, 146260, Note_off_c, 4, 52, 127
2, 146263, Note_on_c, 10, 45, 127
2, 146576, Note_off_c, 10, 45, 127
2, 146576, Note_off_c, 0, 72, 127
2, 146579, Note_on_c, 12, 47, 127
2, 146579, Note_on_c, 12, 71, 127
2, 146892, Note_off_c, 12, 71, 127
2, 146892, Note_off_c, 12, 47, 127
2, 146894, Note_on_c, 0, 48, 127
2, 146894, Note_on_c, 10, 69, 127
2, 147207, Note_off_c, 0, 48, 127
2, 147210, Note_on_c, 4, 52, 127
2, 147354, Note_off_c, 10, 69, 127
2, 147525, Note_off_c, 4, 52, 127
2, 147537, Note_on_c, 0, 84, 127
2, 147537, Note_on_c, 10, 57, 127
2, 147853, Note_on_c, 0, 60, 127
2, 148166, Note_off_c, 0, 60, 127
2, 148169, Note_on_c, 6, 66, 127
2, 148482, Note_off_c, 10, 57, 127
2, 148482, Note_off_c, 0, 84, 127
2, 148484, Note_on_c, 12, 83, 127
2, 148484, Note_on_c, 10, 57, 127
2, 148640, Note_off_c, 12, 83, 127
2, 148643, Note_on_c, 10, 81, 127
2, 148795, Note_off_c, 6, 66, 127
2, 148799, Note_off_c, 10, 81, 127
2, 148799, Note_off_c, 10, 57, 127
2, 148801, Note_on_c, 12, 83, 127
2, 148801, Note_on_c, 7, 55, 127
2, 149117, Note_on_c, 12, 59, 127
2, 149273, Note_off_c, 12, 83, 127
2, 149276, Note_on_c, 4, 76, 127
2, 149427, Note_off_c, 7, 55, 127
2, 149432, Note_off_c, 4, 76, 127
2, 149432, Note_off_c, 12, 59, 127
2, 149434, Note_on_c, 4, 76, 127
2, 149434, Note_on_c, 6, 54, 127
2, 149642, Note_off_c, 4, 76, 127
2, 149645, Note_on_c, 3, 75, 127
2, 149748, Note_off_c, 3, 75, 127
2, 149750, Note_on_c, 4, 76, 127
2, 149750, Note_on_c, 10, 57, 127
2, 149853, Note_off_c, 4, 76, 127
2, 149855, Note_on_c, 3, 75, 127
2, 149958, Note_off_c, 3, 75, 127
2, 149960, Note_on_c, 4, 76, 127
2, 150063, Note_off_c, 4, 76, 127
2, 150063, Note_off_c, 10, 57, 127
2, 150066, Note_on_c, 3, 75, 127
2, 150066, Note_on_c, 0, 60, 127
2, 150379, Note_off_c, 3, 75, 127
2, 150379, Note_off_c, 6, 54, 127
2, 150381, Note_on_c, 4, 76, 127
2, 150381, Note_on_c, 4, 52, 127
2, 150537, Note_off_c, 4, 76, 127
2, 150540, Note_on_c, 6, 78, 127
2, 150692, Note_off_c, 0, 60, 127
2, 150696, Note_off_c, 6, 78, 127
2, 150696, Note_off_c, 4, 52, 127
2, 150699, Note_on_c, 12, 71, 127
2, 150699, Note_on_c, 6, 54, 127
2, 150699, Note_on_c, 3, 51, 127
2, 151133, Note_off_c, 12, 71, 127
2, 151173, Note_on_c, 10, 81, 127
2, 151329, Note_off_c, 10, 81, 127
2, 151330, Note_off_c, 3, 51, 127
2, 151330, Note_off_c, 6, 54, 127
2, 151332, Note_on_c, 7, 79, 127
2, 151332, Note_on_c, 4, 52, 127
2, 151645, Note_off_c, 4, 52, 127
2, 151647, Note_on_c, 6, 54, 127
2, 151647, Note_on_c, 10, 45, 127
2, 151804, Note_off_c, 7, 79, 127
2, 151806, Note_on_c, 6, 78, 127
2, 151962, Note_off_c, 6, 78, 127
2, 151962, Note_off_c, 10, 45, 127
2, 151964, Note_on_c, 4, 76, 127
2, 151964, Note_on_c, 12, 47, 127
2, 152172, Note_off_c, 4, 76, 127
2, 152175, Note_on_c, 3, 75, 127
2, 152273, Note_off_c, 6, 54, 127
2, 152278, Note_off_c, 3, 75, 127
2, 152280, Note_on_c, 4, 76, 127
2, 152280, Note_on_c, 7, 55, 127
2, 152383, Note_off_c, 4, 76, 127
2, 152385, Note_on_c, 3, 75, 127
2, 152488, Note_off_c, 3, 75, 127
2, 152490, Note_on_c, 4, 76, 127
2, 152593, Note_off_c, 4, 76, 127
2, 152593, Note_off_c, 7, 55, 127
2, 152596, Note_on_c, 3, 75, 127
2, 152596, Note_on_c, 10, 57, 127
2, 152909, Note_off_c, 3, 75, 127
2, 152911, Note_on_c, 4, 76, 127
2, 153224, Note_off_c, 4, 76, 127
2, 153224, Note_off_c, 12, 47, 127
2, 153227, Note_on_c, 4, 76, 127
2, 153227, Note_on_c, 4, 52, 127
2, 153383, Note_off_c, 4, 76, 127
2, 153386, Note_on_c, 3, 75, 127
2, 153542, Note_off_c, 3, 75, 127
2, 153542, Note_off_c, 10, 57, 127
2, 153544, Note_on_c, 4, 76, 127
2, 153544, Note_on_c, 7, 55, 127
2, 153700, Note_off_c, 7, 55, 127
2, 153703, Note_on_c, 6, 54, 127
2, 153859, Note_off_c, 6, 54, 127
2, 153862, Note_on_c, 7, 55, 127
2, 154175, Note_off_c, 4, 52, 127
2, 154177, Note_on_c, 4, 52, 127
2, 154486, Note_off_c, 7, 55, 127
2, 154493, Note_on_c, 4, 40, 127
2, 154637, Note_off_c, 4, 52, 127
2, 154808, Note_off_c, 4, 76, 127
2, 155124, Note_off_c, 4, 40, 127
2, 155146, Note_on_c, 12, 71, 127
2, 155146, Note_on_c, 7, 55, 127
2, 155146, Note_on_c, 4, 52, 127
2, 155302, Note_off_c, 12, 71, 127
2, 155304, Note_on_c, 10, 69, 127
2, 155460, Note_off_c, 10, 69, 127
2, 155463, Note_on_c, 12, 71, 127
2, 155777, Note_off_c, 4, 52, 127
2, 155779, Note_on_c, 2, 50, 127
2, 156092, Note_off_c, 12, 71, 127
2, 156094, Note_on_c, 0, 72, 127
2, 156407, Note_off_c, 0, 72, 127
2, 156408, Note_off_c, 2, 50, 127
2, 156410, Note_on_c, 12, 71, 127
2, 156410, Note_on_c, 0, 48, 127
2, 156513, Note_off_c, 12, 71, 127
2, 156515, Note_on_c, 10, 69, 127
2, 156618, Note_off_c, 10, 69, 127
2, 156620, Note_on_c, 12, 71, 127
2, 156723, Note_off_c, 12, 71, 127
2, 156726, Note_on_c, 10, 69, 127
2, 156882, Note_off_c, 10, 69, 127
2, 156884, Note_on_c, 7, 67, 127
2, 157040, Note_off_c, 7, 67, 127
2, 157041, Note_off_c, 0, 48, 127
2, 157043, Note_on_c, 5, 77, 127
2, 157043, Note_on_c, 12, 47, 127
2, 157199, Note_off_c, 5, 77, 127
2, 157202, Note_on_c, 4, 76, 127
2, 157358, Note_off_c, 4, 76, 127
2, 157360, Note_on_c, 5, 77, 127
2, 157669, Note_off_c, 7, 55, 127
2, 157674, Note_off_c, 12, 47, 127
2, 157676, Note_on_c, 0, 48, 127
2, 157991, Note_on_c, 4, 52, 127
2, 158304, Note_off_c, 4, 52, 127
2, 158305, Note_off_c, 5, 77, 127
2, 158307, Note_on_c, 4, 76, 127
2, 158307, Note_on_c, 5, 53, 127
2, 158620, Note_off_c, 5, 53, 127
2, 158623, Note_on_c, 7, 55, 127
2, 158767, Note_off_c, 4, 76, 127
2, 158938, Note_off_c, 7, 55, 127
2, 158938, Note_off_c, 0, 48, 127
2, 158940, Note_on_c, 2, 74, 127
2, 158940, Note_on_c, 10, 57, 127
2, 158940, Note_on_c, 5, 53, 127
2, 159253, Note_off_c, 10, 57, 127
2, 159253, Note_off_c, 2, 74, 127
2, 159256, Note_on_c, 0, 72, 127
2, 159256, Note_on_c, 12, 59, 127
2, 159412, Note_off_c, 0, 72, 127
2, 159414, Note_on_c, 12, 71, 127
2, 159570, Note_off_c, 12, 71, 127
2, 159571, Note_off_c, 12, 59, 127
2, 159573, Note_on_c, 10, 81, 127
2, 159573, Note_on_c, 0, 60, 127
2, 159886, Note_off_c, 5, 53, 127
2, 159889, Note_on_c, 7, 55, 127
2, 160045, Note_off_c, 10, 81, 127
2, 160047, Note_on_c, 7, 79, 127
2, 160203, Note_off_c, 7, 79, 127
2, 160204, Note_off_c, 7, 55, 127
2, 160206, Note_on_c, 5, 77, 127
2, 160206, Note_on_c, 10, 57, 127
2, 160362, Note_off_c, 5, 77, 127
2, 160365, Note_on_c, 4, 76, 127
2, 160521, Note_off_c, 4, 76, 127
2, 160521, Note_off_c, 10, 57, 127
2, 160523, Note_on_c, 2, 74, 127
2, 160523, Note_on_c, 5, 53, 127
2, 160679, Note_off_c, 2, 74, 127
2, 160682, Note_on_c, 0, 72, 127
2, 160838, Note_off_c, 0, 72, 127
2, 160838, Note_off_c, 5, 53, 127
2, 160840, Note_on_c, 4, 76, 127
2, 160840, Note_on_c, 7, 55, 127
2, 161470, Note_off_c, 0, 60, 127
2, 161471, Note_off_c, 4, 76, 127
2, 161473, Note_on_c, 4, 76, 127
2, 161473, Note_on_c, 12, 59, 127
2, 161576, Note_off_c, 4, 76, 127
2, 161579, Note_on_c, 2, 74, 127
2, 161682, Note_off_c, 2, 74, 127
2, 161684, Note_on_c, 0, 72, 127
2, 161787, Note_off_c, 0, 72, 127
2, 161789, Note_on_c, 2, 74, 127
2, 162102, Note_off_c, 2, 74, 127
2, 162102, Note_off_c, 12, 59, 127
2, 162102, Note_off_c, 7, 55, 127
2, 162105, Note_on_c, 0, 72, 127
2, 162105, Note_on_c, 0, 60, 127
2, 162105, Note_on_c, 0, 48, 127
2, 162565, Note_off_c, 0, 72, 127
2, 162736, Note_off_c, 0, 60, 127
2, 162748, Note_on_c, 6, 54, 127
2, 162748, Note_on_c, 12, 71, 127
2, 163051, Note_off_c, 0, 48, 127
2, 163061, Note_off_c, 12, 71, 127
2, 163063, Note_on_c, 4, 52, 127
2, 163063, Note_on_c, 10, 69, 127
2, 163376, Note_off_c, 4, 52, 127
2, 163379, Note_on_c, 2, 50, 127
2, 163692, Note_off_c, 2, 50, 127
2, 163692, Note_off_c, 10, 69, 127
2, 163695, Note_on_c, 0, 48, 127
2, 163695, Note_on_c, 12, 71, 127
2, 164008, Note_off_c, 12, 71, 127
2, 164008, Note_off_c, 0, 48, 127
2, 164008, Note_off_c, 6, 54, 127
2, 164010, Note_on_c, 12, 47, 127
2, 164010, Note_on_c, 10, 69, 127
2, 164113, Note_off_c, 10, 69, 127
2, 164115, Note_on_c, 7, 67, 127
2, 164218, Note_off_c, 7, 67, 127
2, 164221, Note_on_c, 10, 69, 127
2, 164323, Note_off_c, 12, 47, 127
2, 164324, Note_off_c, 10, 69, 127
2, 164326, Note_on_c, 10, 45, 127
2, 164326, Note_on_c, 7, 67, 127
2, 164482, Note_off_c, 7, 67, 127
2, 164484, Note_on_c, 6, 66, 127
2, 164640, Note_off_c, 6, 66, 127
2, 164641, Note_off_c, 10, 45, 127
2, 164643, Note_on_c, 7, 55, 127
2, 164643, Note_on_c, 12, 47, 127
2, 164643, Note_on_c, 2, 74, 127
2, 164956, Note_off_c, 12, 47, 127
2, 164959, Note_on_c, 2, 50, 127
2, 165272, Note_off_c, 2, 50, 127
2, 165272, Note_off_c, 2, 74, 127
2, 165274, Note_on_c, 0, 48, 127
2, 165274, Note_on_c, 2, 74, 127
2, 165587, Note_off_c, 2, 74, 127
2, 165587, Note_off_c, 0, 48, 127
2, 165590, Note_on_c, 12, 47, 127
2, 165590, Note_on_c, 4, 76, 127
2, 165746, Note_off_c, 4, 76, 127
2, 165749, Note_on_c, 2, 74, 127
2, 165905, Note_off_c, 2, 74, 127
2, 165905, Note_off_c, 12, 47, 127
2, 165905, Note_off_c, 7, 55, 127
2, 165907, Note_on_c, 10, 45, 127
2, 165907, Note_on_c, 4, 76, 127
2, 166220, Note_off_c, 10, 45, 127
2, 166223, Note_on_c, 7, 43, 127
2, 166367, Note_off_c, 4, 76, 127
2, 166538, Note_off_c, 7, 43, 127
2, 166540, Note_on_c, 6, 42, 127
2, 166540, Note_on_c, 2, 62, 127
2, 166696, Note_off_c, 2, 62, 127
2, 166699, Note_on_c, 4, 64, 127
2, 166855, Note_off_c, 4, 64, 127
2, 166858, Note_on_c, 10, 45, 127
2, 166858, Note_on_c, 6, 66, 127
2, 167014, Note_off_c, 6, 66, 127
2, 167016, Note_on_c, 7, 67, 127
2, 167172, Note_off_c, 7, 67, 127
2, 167173, Note_off_c, 10, 45, 127
2, 167175, Note_on_c, 2, 50, 127
2, 167175, Note_on_c, 10, 69, 127
2, 167331, Note_off_c, 10, 69, 127
2, 167333, Note_on_c, 12, 71, 127
2, 167489, Note_off_c, 12, 71, 127
2, 167490, Note_off_c, 6, 42, 127
2, 167492, Note_on_c, 6, 42, 127
2, 167492, Note_on_c, 0, 72, 127
2, 167648, Note_off_c, 0, 72, 127
2, 167651, Note_on_c, 10, 69, 127
2, 167807, Note_off_c, 10, 69, 127
2, 167807, Note_off_c, 6, 42, 127
2, 167809, Note_on_c, 7, 43, 127
2, 167809, Note_on_c, 12, 71, 127
2, 167912, Note_off_c, 12, 71, 127
2, 167915, Note_on_c, 10, 69, 127
2, 168018, Note_off_c, 10, 69, 127
2, 168020, Note_on_c, 7, 67, 127
2, 168122, Note_off_c, 7, 43, 127
2, 168123, Note_off_c, 7, 67, 127
2, 168123, Note_off_c, 2, 50, 127
2, 168125, Note_on_c, 0, 48, 127
2, 168125, Note_on_c, 4, 52, 127
2, 168125, Note_on_c, 10, 69, 127
2, 168228, Note_off_c, 10, 69, 127
2, 168230, Note_on_c, 7, 67, 127
2, 168333, Note_off_c, 7, 67, 127
2, 168335, Note_on_c, 6, 66, 127
2, 168438, Note_off_c, 6, 66, 127
2, 168438, Note_off_c, 4, 52, 127
2, 168438, Note_off_c, 0, 48, 127
2, 168441, Note_on_c, 2, 50, 127
2, 168441, Note_on_c, 7, 67, 127
2, 168756, Note_on_c, 12, 59, 127
2, 169069, Note_off_c, 12, 59, 127
2, 169070, Note_off_c, 7, 67, 127
2, 169072, Note_on_c, 10, 57, 127
2, 169072, Note_on_c, 7, 67, 127
2, 169175, Note_off_c, 7, 67, 127
2, 169177, Note_on_c, 6, 66, 127
2, 169280, Note_off_c, 6, 66, 127
2, 169282, Note_on_c, 7, 67, 127
2, 169385, Note_off_c, 7, 67, 127
2, 169385, Note_off_c, 10, 57, 127
2, 169388, Note_on_c, 7, 55, 127
2, 169388, Note_on_c, 6, 66, 127
2, 169544, Note_off_c, 6, 66, 127
2, 169546, Note_on_c, 4, 64, 127
2, 169702, Note_off_c, 4, 64, 127
2, 169703, Note_off_c, 7, 55, 127
2, 169705, Note_on_c, 6, 54, 127
2, 169705, Note_on_c, 2, 62, 127
2, 169857, Note_off_c, 2, 50, 127
2, 170022, Note_on_c, 0, 48, 127
2, 170167, Note_off_c, 2, 62, 127
2, 170332, Note_off_c, 6, 54, 127
2, 170337, Note_off_c, 0, 48, 127
2, 170370, Note_on_c, 2, 74, 127
2, 170370, Note_on_c, 12, 47, 127
2, 170526, Note_off_c, 2, 74, 127
2, 170528, Note_on_c, 0, 72, 127
2, 170684, Note_off_c, 0, 72, 127
2, 170687, Note_on_c, 2, 74, 127
2, 170687, Note_on_c, 2, 50, 127
2, 171000, Note_off_c, 2, 50, 127
2, 171002, Note_on_c, 7, 55, 127
2, 171316, Note_off_c, 2, 74, 127
2, 171316, Note_off_c, 12, 47, 127
2, 171318, Note_on_c, 4, 76, 127
2, 171318, Note_on_c, 12, 47, 127
2, 171631, Note_off_c, 12, 47, 127
2, 171631, Note_off_c, 4, 76, 127
2, 171634, Note_on_c, 2, 74, 127
2, 171634, Note_on_c, 10, 45, 127
2, 171737, Note_off_c, 2, 74, 127
2, 171739, Note_on_c, 0, 72, 127
2, 171842, Note_off_c, 0, 72, 127
2, 171844, Note_on_c, 2, 74, 127
2, 171947, Note_off_c, 2, 74, 127
2, 171947, Note_off_c, 10, 45, 127
2, 171949, Note_on_c, 0, 72, 127
2, 171949, Note_on_c, 7, 43, 127
2, 172105, Note_off_c, 0, 72, 127
2, 172108, Note_on_c, 12, 71, 127
2, 172264, Note_off_c, 12, 71, 127
2, 172264, Note_off_c, 7, 43, 127
2, 172267, Note_on_c, 4, 76, 127
2, 172267, Note_on_c, 0, 48, 127
2, 172581, Note_off_c, 7, 55, 127
2, 172582, Note_on_c, 4, 52, 127
2, 172895, Note_off_c, 4, 52, 127
2, 172898, Note_on_c, 10, 57, 127
2, 173003, Note_on_c, 6, 78, 127
2, 173004, Note_off_c, 4, 76, 127
2, 173106, Note_off_c, 6, 78, 127
2, 173108, Note_on_c, 7, 79, 127
2, 173211, Note_off_c, 7, 79, 127
2, 173212, Note_off_c, 0, 48, 127
2, 173214, Note_on_c, 6, 78, 127
2, 173214, Note_on_c, 10, 45, 127
2, 173317, Note_off_c, 6, 78, 127
2, 173319, Note_on_c, 7, 79, 127
2, 173422, Note_off_c, 7, 79, 127
2, 173424, Note_on_c, 6, 78, 127
2, 173527, Note_off_c, 6, 78, 127
2, 173527, Note_off_c, 10, 45, 127
2, 173529, Note_on_c, 7, 79, 127
2, 173529, Note_on_c, 2, 50, 127
2, 173632, Note_off_c, 7, 79, 127
2, 173634, Note_on_c, 6, 78, 127
2, 173737, Note_off_c, 6, 78, 127
2, 173740, Note_on_c, 7, 79, 127
2, 173842, Note_off_c, 2, 50, 127
2, 173843, Note_off_c, 7, 79, 127
2, 173845, Note_on_c, 6, 78, 127
2, 173845, Note_on_c, 0, 48, 127
2, 173948, Note_off_c, 6, 78, 127
2, 173950, Note_on_c, 4, 76, 127
2, 174053, Note_off_c, 4, 76, 127
2, 174055, Note_on_c, 6, 78, 127
2, 174158, Note_off_c, 6, 78, 127
2, 174158, Note_off_c, 0, 48, 127
2, 174158, Note_off_c, 10, 57, 127
2, 174160, Note_on_c, 7, 79, 127
2, 174160, Note_on_c, 12, 47, 127
2, 174476, Note_on_c, 2, 50, 127
2, 174784, Note_off_c, 12, 47, 127
2, 174789, Note_off_c, 2, 50, 127
2, 174792, Note_on_c, 1, 49, 127
2, 175071, Note_off_c, 7, 79, 127
2, 175109, Note_on_c, 10, 81, 127
2, 175109, Note_on_c, 4, 52, 127
2, 175265, Note_off_c, 10, 81, 127
2, 175268, Note_on_c, 12, 83, 127
2, 175424, Note_off_c, 12, 83, 127
2, 175424, Note_off_c, 4, 52, 127
2, 175426, Note_on_c, 10, 81, 127
2, 175426, Note_on_c, 10, 57, 127
2, 175582, Note_off_c, 10, 81, 127
2, 175585, Note_on_c, 6, 78, 127
2, 175741, Note_off_c, 6, 78, 127
2, 175742, Note_off_c, 1, 49, 127
2, 175744, Note_on_c, 7, 79, 127
2, 175744, Note_on_c, 10, 45, 127
2, 176057, Note_off_c, 10, 45, 127
2, 176057, Note_off_c, 7, 79, 127
2, 176059, Note_on_c, 7, 79, 127
2, 176059, Note_on_c, 2, 50, 127
2, 176267, Note_off_c, 7, 79, 127
2, 176270, Note_on_c, 6, 78, 127
2, 176372, Note_off_c, 10, 57, 127
2, 176373, Note_off_c, 6, 78, 127
2, 176375, Note_on_c, 7, 79, 127
2, 176375, Note_on_c, 10, 57, 127
2, 176478, Note_off_c, 7, 79, 127
2, 176480, Note_on_c, 6, 78, 127
2, 176583, Note_off_c, 6, 78, 127
2, 176585, Note_on_c, 7, 79, 127
2, 176688, Note_off_c, 7, 79, 127
2, 176688, Note_off_c, 10, 57, 127
2, 176690, Note_on_c, 6, 78, 127
2, 176690, Note_on_c, 2, 62, 127
2, 177003, Note_off_c, 2, 62, 127
2, 177003, Note_off_c, 6, 78, 127
2, 177006, Note_on_c, 4, 76, 127
2, 177006, Note_on_c, 0, 60, 127
2, 177319, Note_off_c, 0, 60, 127
2, 177319, Note_off_c, 4, 76, 127
2, 177322, Note_on_c, 2, 74, 127
2, 177322, Note_on_c, 12, 59, 127
2, 177635, Note_off_c, 12, 59, 127
2, 177637, Note_on_c, 10, 57, 127
2, 177782, Note_off_c, 2, 74, 127
2, 177867, Note_off_c, 2, 50, 127
2, 177950, Note_off_c, 10, 57, 127
2, 177963, Note_on_c, 4, 52, 127
2, 177963, Note_on_c, 7, 55, 127
2, 177963, Note_on_c, 2, 74, 127
2, 178119, Note_off_c, 2, 74, 127
2, 178122, Note_on_c, 0, 72, 127
2, 178278, Note_off_c, 0, 72, 127
2, 178278, Note_off_c, 4, 52, 127
2, 178280, Note_on_c, 2, 50, 127
2, 178280, Note_on_c, 12, 71, 127
2, 178436, Note_off_c, 12, 71, 127
2, 178439, Note_on_c, 0, 72, 127
2, 178590, Note_off_c, 7, 55, 127
2, 178595, Note_off_c, 0, 72, 127
2, 178595, Note_off_c, 2, 50, 127
2, 178598, Note_on_c, 0, 48, 127
2, 178598, Note_on_c, 10, 57, 127
2, 178598, Note_on_c, 6, 66, 127
2, 178911, Note_off_c, 0, 48, 127
2, 178913, Note_on_c, 12, 47, 127
2, 179222, Note_off_c, 10, 57, 127
2, 179226, Note_off_c, 12, 47, 127
2, 179229, Note_on_c, 10, 45, 127
2, 179514, Note_off_c, 6, 66, 127
2, 179544, Note_off_c, 10, 45, 127
2, 179546, Note_on_c, 7, 43, 127
2, 179546, Note_on_c, 7, 67, 127
2, 179702, Note_off_c, 7, 67, 127
2, 179705, Note_on_c, 10, 69, 127
2, 179861, Note_off_c, 10, 69, 127
2, 179861, Note_off_c, 7, 43, 127
2, 179863, Note_on_c, 6, 42, 127
2, 179863, Note_on_c, 2, 62, 127
2, 180176, Note_off_c, 2, 62, 127
2, 180176, Note_off_c, 6, 42, 127
2, 180179, Note_on_c, 0, 48, 127
2, 180179, Note_on_c, 4, 64, 127
2, 180335, Note_off_c, 4, 64, 127
2, 180338, Note_on_c, 6, 66, 127
2, 180494, Note_off_c, 6, 66, 127
2, 180494, Note_off_c, 0, 48, 127
2, 180496, Note_on_c, 12, 47, 127
2, 180496, Note_on_c, 7, 67, 127
2, 180652, Note_off_c, 7, 67, 127
2, 180655, Note_on_c, 10, 69, 127
2, 180811, Note_off_c, 10, 69, 127
2, 180811, Note_off_c, 12, 47, 127
2, 180814, Note_on_c, 10, 45, 127
2, 180814, Note_on_c, 0, 48, 127
2, 180814, Note_on_c, 12, 71, 127
2, 180970, Note_off_c, 12, 71, 127
2, 180972, Note_on_c, 0, 72, 127
2, 181128, Note_off_c, 0, 72, 127
2, 181129, Note_off_c, 0, 48, 127
2, 181129, Note_off_c, 10, 45, 127
2, 181131, Note_on_c, 7, 43, 127
2, 181131, Note_on_c, 12, 47, 127
2, 181131, Note_on_c, 2, 74, 127
2, 181287, Note_off_c, 2, 74, 127
2, 181290, Note_on_c, 7, 79, 127
2, 181446, Note_off_c, 7, 79, 127
2, 181446, Note_off_c, 12, 47, 127
2, 181446, Note_off_c, 7, 43, 127
2, 181448, Note_on_c, 0, 48, 127
2, 181448, Note_on_c, 10, 45, 127
2, 181448, Note_on_c, 6, 78, 127
2, 181604, Note_off_c, 6, 78, 127
2, 181607, Note_on_c, 4, 76, 127
2, 181763, Note_off_c, 4, 76, 127
2, 181763, Note_off_c, 10, 45, 127
2, 181763, Note_off_c, 0, 48, 127
2, 181766, Note_on_c, 12, 47, 127
2, 181766, Note_on_c, 2, 50, 127
2, 181766, Note_on_c, 2, 74, 127
2, 181872, Note_off_c, 2, 74, 127
2, 181874, Note_on_c, 0, 72, 127
2, 181980, Note_off_c, 0, 72, 127
2, 181986, Note_on_c, 12, 71, 127
2, 182092, Note_off_c, 12, 71, 127
2, 182096, Note_off_c, 2, 50, 127
2, 182096, Note_off_c, 12, 47, 127
2, 182098, Note_on_c, 7, 55, 127
2, 182098, Note_on_c, 0, 48, 127
2, 182098, Note_on_c, 4, 76, 127
2, 182204, Note_off_c, 4, 76, 127
2, 182210, Note_on_c, 2, 74, 127
2, 182316, Note_off_c, 2, 74, 127
2, 182322, Note_on_c, 0, 72, 127
2, 182428, Note_off_c, 0, 72, 127
2, 182428, Note_off_c, 0, 48, 127
2, 182434, Note_on_c, 12, 71, 127
2, 182434, Note_on_c, 2, 50, 127
2, 182759, Note_off_c, 7, 55, 127
2, 182778, Note_on_c, 4, 52, 127
2, 183118, Note_off_c, 4, 52, 127
2, 183120, Note_off_c, 12, 71, 127
2, 183125, Note_on_c, 6, 54, 127
2, 183125, Note_on_c, 12, 71, 127
2, 183235, Note_off_c, 12, 71, 127
2, 183242, Note_on_c, 10, 69, 127
2, 183352, Note_off_c, 10, 69, 127
2, 183360, Note_on_c, 12, 71, 127
2, 183470, Note_off_c, 12, 71, 127
2, 183475, Note_off_c, 6, 54, 127
2, 183479, Note_on_c, 0, 60, 127
2, 183479, Note_on_c, 10, 69, 127
2, 183651, Note_off_c, 10, 69, 127
2, 183658, Note_on_c, 7, 67, 127
2, 183813, Note_off_c, 2, 50, 127
2, 183830, Note_off_c, 7, 67, 127
2, 183836, Note_on_c, 7, 67, 127
2, 183836, Note_on_c, 7, 55, 127
2, 184182, Note_off_c, 0, 60, 127
2, 184202, Note_on_c, 12, 59, 127
2, 184379, Note_off_c, 12, 59, 127
2, 184387, Note_on_c, 10, 57, 127
2, 184564, Note_off_c, 10, 57, 127
2, 184571, Note_on_c, 12, 59, 127
2, 184919, Note_off_c, 7, 55, 127
2, 184958, Note_on_c, 7, 55, 127
2, 185314, Note_off_c, 12, 59, 127
2, 185400, Note_on_c, 7, 43, 127
2, 185404, Note_off_c, 7, 55, 127
2, 186030, Note_off_c, 7, 67, 127
2, 187600, Note_off_c, 7, 43, 127
2, 188828, Note_on_c, 7, 55, 127
2, 188828, Note_on_c, 12, 83, 127
2, 188828, Note_on_c, 2, 74, 127
2, 189138, Note_off_c, 2, 74, 127
2, 189138, Note_off_c, 12, 83, 127
2, 189138, Note_off_c, 7, 55, 127
2, 189140, Note_on_c, 7, 67, 127
2, 189140, Note_on_c, 7, 79, 127
2, 189140, Note_on_c, 12, 71, 127
2, 189450, Note_off_c, 12, 71, 127
2, 189450, Note_off_c, 7, 79, 127
2, 189450, Note_off_c, 7, 67, 127
2, 189453, Note_on_c, 6, 66, 127
2, 189453, Note_on_c, 10, 69, 127
2, 189453, Note_on_c, 2, 74, 127
2, 189763, Note_off_c, 2, 74, 127
2, 189763, Note_off_c, 6, 66, 127
2, 189765, Note_on_c, 6, 54, 127
2, 189765, Note_on_c, 4, 76, 127
2, 189918, Note_off_c, 4, 76, 127
2, 189920, Note_on_c, 6, 78, 127
2, 190070, Note_off_c, 10, 69, 127
2, 190075, Note_off_c, 6, 78, 127
2, 190075, Note_off_c, 6, 54, 127
2, 190077, Note_on_c, 4, 52, 127
2, 190077, Note_on_c, 7, 79, 127
2, 190077, Note_on_c, 12, 71, 127
2, 190387, Note_off_c, 12, 71, 127
2, 190387, Note_off_c, 7, 79, 127
2, 190387, Note_off_c, 4, 52, 127
2, 190390, Note_on_c, 4, 64, 127
2, 190390, Note_on_c, 4, 76, 127
2, 190390, Note_on_c, 7, 67, 127
2, 190700, Note_off_c, 7, 67, 127
2, 190700, Note_off_c, 4, 76, 127
2, 190700, Note_off_c, 4, 64, 127
2, 190702, Note_on_c, 2, 62, 127
2, 190702, Note_on_c, 6, 66, 127
2, 190702, Note_on_c, 12, 71, 127
2, 191012, Note_off_c, 2, 62, 127
2, 191014, Note_on_c, 2, 50, 127
2, 191157, Note_off_c, 12, 71, 127
2, 191324, Note_off_c, 2, 50, 127
2, 191324, Note_off_c, 6, 66, 127
2, 191326, Note_on_c, 0, 48, 127
2, 191326, Note_on_c, 4, 76, 127
2, 191326, Note_on_c, 7, 67, 127
2, 191636, Note_off_c, 7, 67, 127
2, 191636, Note_off_c, 4, 76, 127
2, 191636, Note_off_c, 0, 48, 127
2, 191639, Note_on_c, 0, 60, 127
2, 191639, Note_on_c, 0, 72, 127
2, 191639, Note_on_c, 10, 69, 127
2, 191949, Note_off_c, 10, 69, 127
2, 191949, Note_off_c, 0, 72, 127
2, 191949, Note_off_c, 0, 60, 127
2, 191951, Note_on_c, 2, 62, 127
2, 191951, Note_on_c, 10, 69, 127
2, 191951, Note_on_c, 6, 66, 127
2, 192261, Note_off_c, 6, 66, 127
2, 192261, Note_off_c, 10, 69, 127
2, 192261, Note_off_c, 2, 62, 127
2, 192263, Note_on_c, 10, 57, 127
2, 192263, Note_on_c, 12, 71, 127
2, 192416, Note_off_c, 12, 71, 127
2, 192419, Note_on_c, 0, 72, 127
2, 192571, Note_off_c, 10, 57, 127
2, 192572, Note_off_c, 0, 72, 127
2, 192574, Note_on_c, 6, 54, 127
2, 192574, Note_on_c, 2, 74, 127
2, 192574, Note_on_c, 10, 69, 127
2, 192727, Note_off_c, 2, 74, 127
2, 192729, Note_on_c, 12, 71, 127
2, 192881, Note_off_c, 10, 69, 127
2, 192882, Note_off_c, 12, 71, 127
2, 192882, Note_off_c, 6, 54, 127
2, 192885, Note_on_c, 2, 50, 127
2, 192885, Note_on_c, 0, 72, 127
2, 193038, Note_off_c, 0, 72, 127
2, 193040, Note_on_c, 10, 69, 127
2, 193193, Note_off_c, 10, 69, 127
2, 193193, Note_off_c, 2, 50, 127
2, 193195, Note_on_c, 7, 55, 127
2, 193195, Note_on_c, 0, 72, 127
2, 193195, Note_on_c, 7, 67, 127
2, 193348, Note_off_c, 0, 72, 127
2, 193350, Note_on_c, 12, 71, 127
2, 193502, Note_off_c, 7, 67, 127
2, 193503, Note_off_c, 12, 71, 127
2, 193503, Note_off_c, 7, 55, 127
2, 193506, Note_on_c, 2, 50, 127
2, 193506, Note_on_c, 10, 69, 127
2, 193659, Note_off_c, 10, 69, 127
2, 193661, Note_on_c, 7, 67, 127
2, 193814, Note_off_c, 7, 67, 127
2, 193814, Note_off_c, 2, 50, 127
2, 193816, Note_on_c, 7, 43, 127
2, 193816, Note_on_c, 12, 83, 127
2, 193816, Note_on_c, 2, 74, 127
2, 193969, Note_off_c, 7, 43, 127
2, 193972, Note_on_c, 2, 50, 127
2, 194124, Note_off_c, 2, 74, 127
2, 194124, Note_off_c, 12, 83, 127
2, 194125, Note_off_c, 2, 50, 127
2, 194127, Note_on_c, 4, 52, 127
2, 194127, Note_on_c, 7, 79, 127
2, 194127, Note_on_c, 12, 71, 127
2, 194280, Note_off_c, 4, 52, 127
2, 194282, Note_on_c, 6, 54, 127
2, 194435, Note_off_c, 6, 54, 127
2, 194435, Note_off_c, 12, 71, 127
2, 194435, Note_off_c, 7, 79, 127
2, 194438, Note_on_c, 7, 55, 127
2, 194438, Note_on_c, 1, 73, 127
2, 194438, Note_on_c, 4, 76, 127
2, 194591, Note_off_c, 7, 55, 127
2, 194593, Note_on_c, 10, 57, 127
2, 194746, Note_off_c, 10, 57, 127
2, 194746, Note_off_c, 4, 76, 127
2, 194746, Note_off_c, 1, 73, 127
2, 194748, Note_on_c, 7, 55, 127
2, 194748, Note_on_c, 4, 76, 127
2, 194748, Note_on_c, 1, 73, 127
2, 194901, Note_off_c, 1, 73, 127
2, 194901, Note_off_c, 4, 76, 127
2, 194901, Note_off_c, 7, 55, 127
2, 194904, Note_on_c, 6, 54, 127
2, 194904, Note_on_c, 2, 74, 127
2, 194904, Note_on_c, 6, 78, 127
2, 195057, Note_off_c, 6, 78, 127
2, 195057, Note_off_c, 2, 74, 127
2, 195057, Note_off_c, 6, 54, 127
2, 195059, Note_on_c, 4, 52, 127
2, 195059, Note_on_c, 7, 79, 127
2, 195059, Note_on_c, 4, 76, 127
2, 195212, Note_off_c, 4, 52, 127
2, 195214, Note_on_c, 2, 50, 127
2, 195367, Note_off_c, 2, 50, 127
2, 195367, Note_off_c, 4, 76, 127
2, 195367, Note_off_c, 7, 79, 127
2, 195370, Note_on_c, 4, 52, 127
2, 195370, Note_on_c, 4, 76, 127
2, 195370, Note_on_c, 1, 73, 127
2, 195523, Note_off_c, 4, 52, 127
2, 195525, Note_on_c, 6, 54, 127
2, 195678, Note_off_c, 6, 54, 127
2, 195678, Note_off_c, 1, 73, 127
2, 195678, Note_off_c, 4, 76, 127
2, 195680, Note_on_c, 7, 55, 127
2, 195680, Note_on_c, 10, 69, 127
2, 195680, Note_on_c, 1, 73, 127
2, 195833, Note_off_c, 7, 55, 127
2, 195835, Note_on_c, 10, 57, 127
2, 195988, Note_off_c, 10, 57, 127
2, 195988, Note_off_c, 1, 73, 127
2, 195991, Note_on_c, 12, 59, 127
2, 195991, Note_on_c, 2, 74, 127
2, 196144, Note_off_c, 2, 74, 127
2, 196144, Note_off_c, 12, 59, 127
2, 196146, Note_on_c, 1, 61, 127
2, 196146, Note_on_c, 4, 76, 127
2, 196299, Note_off_c, 4, 76, 127
2, 196299, Note_off_c, 1, 61, 127
2, 196301, Note_on_c, 2, 62, 127
2, 196301, Note_on_c, 6, 78, 127
2, 196454, Note_off_c, 6, 78, 127
2, 196457, Note_on_c, 2, 74, 127
2, 196609, Note_off_c, 2, 62, 127
2, 196610, Note_off_c, 2, 74, 127
2, 196612, Note_on_c, 1, 61, 127
2, 196612, Note_on_c, 7, 79, 127
2, 196765, Note_off_c, 7, 79, 127
2, 196767, Note_on_c, 4, 76, 127
2, 196920, Note_off_c, 4, 76, 127
2, 196920, Note_off_c, 1, 61, 127
2, 196923, Note_on_c, 2, 62, 127
2, 196923, Note_on_c, 6, 78, 127
2, 197076, Note_off_c, 6, 78, 127
2, 197078, Note_on_c, 2, 74, 127
2, 197231, Note_off_c, 2, 74, 127
2, 197231, Note_off_c, 2, 62, 127
2, 197233, Note_off_c, 10, 69, 127
2, 197233, Note_on_c, 6, 54, 127
2, 197233, Note_on_c, 10, 81, 127
2, 197233, Note_on_c, 2, 74, 127
2, 197386, Note_off_c, 6, 54, 127
2, 197389, Note_on_c, 7, 55, 127
2, 197541, Note_off_c, 10, 81, 127
2, 197542, Note_off_c, 7, 55, 127
2, 197544, Note_on_c, 10, 57, 127
2, 197544, Note_on_c, 7, 79, 127
2, 197697, Note_off_c, 7, 79, 127
2, 197699, Note_on_c, 6, 78, 127
2, 197849, Note_off_c, 2, 74, 127
2, 197854, Note_off_c, 6, 78, 127
2, 197854, Note_off_c, 10, 57, 127
2, 197856, Note_on_c, 10, 45, 127
2, 197856, Note_on_c, 4, 76, 127
2, 197856, Note_on_c, 1, 73, 127
2, 198009, Note_off_c, 4, 76, 127
2, 198011, Note_on_c, 6, 78, 127
2, 198163, Note_off_c, 1, 73, 127
2, 198164, Note_off_c, 6, 78, 127
2, 198164, Note_off_c, 10, 45, 127
2, 198167, Note_on_c, 2, 50, 127
2, 198167, Note_on_c, 2, 74, 127
2, 198621, Note_off_c, 2, 74, 127
2, 198788, Note_off_c, 2, 50, 127
2, 198790, Note_on_c, 2, 62, 127
2, 198790, Note_on_c, 10, 69, 127
2, 198790, Note_on_c, 6, 66, 127
2, 199100, Note_off_c, 6, 66, 127
2, 199100, Note_off_c, 10, 69, 127
2, 199100, Note_off_c, 2, 62, 127
2, 199102, Note_on_c, 10, 57, 127
2, 199102, Note_on_c, 10, 69, 127
2, 199102, Note_on_c, 6, 66, 127
2, 199102, Note_on_c, 2, 74, 127
2, 199412, Note_off_c, 2, 74, 127
2, 199412, Note_off_c, 6, 66, 127
2, 199412, Note_off_c, 10, 69, 127
2, 199412, Note_off_c, 10, 57, 127
2, 199414, Note_on_c, 7, 55, 127
2, 199414, Note_on_c, 10, 69, 127
2, 199414, Note_on_c, 6, 78, 127
2, 199414, Note_on_c, 2, 74, 127
2, 199567, Note_off_c, 7, 55, 127
2, 199570, Note_on_c, 6, 54, 127
2, 199723, Note_off_c, 6, 54, 127
2, 199725, Note_on_c, 4, 52, 127
2, 199878, Note_off_c, 4, 52, 127
2, 199880, Note_on_c, 2, 50, 127
2, 200033, Note_off_c, 2, 50, 127
2, 200033, Note_off_c, 2, 74, 127
2, 200033, Note_off_c, 6, 78, 127
2, 200033, Note_off_c, 10, 69, 127
2, 200035, Note_on_c, 10, 57, 127
2, 200035, Note_on_c, 7, 79, 127
2, 200188, Note_off_c, 7, 79, 127
2, 200191, Note_on_c, 6, 78, 127
2, 200343, Note_off_c, 10, 57, 127
2, 200344, Note_off_c, 6, 78, 127
2, 200346, Note_on_c, 0, 60, 127
2, 200346, Note_on_c, 4, 76, 127
2, 200499, Note_off_c, 4, 76, 127
2, 200501, Note_on_c, 2, 74, 127
2, 200654, Note_off_c, 2, 74, 127
2, 200654, Note_off_c, 0, 60, 127
2, 200657, Note_on_c, 12, 59, 127
2, 200657, Note_on_c, 7, 67, 127
2, 200657, Note_on_c, 7, 79, 127
2, 200657, Note_on_c, 2, 74, 127
2, 200810, Note_off_c, 12, 59, 127
2, 200812, Note_on_c, 0, 60, 127
2, 200965, Note_off_c, 0, 60, 127
2, 200965, Note_off_c, 2, 74, 127
2, 200965, Note_off_c, 7, 79, 127
2, 200965, Note_off_c, 7, 67, 127
2, 200967, Note_on_c, 12, 59, 127
2, 200967, Note_on_c, 2, 74, 127
2, 201120, Note_off_c, 12, 59, 127
2, 201123, Note_on_c, 10, 57, 127
2, 201275, Note_off_c, 2, 74, 127
2, 201276, Note_off_c, 10, 57, 127
2, 201278, Note_on_c, 7, 55, 127
2, 201278, Note_on_c, 7, 79, 127
2, 201278, Note_on_c, 2, 74, 127
2, 201278, Note_on_c, 12, 83, 127
2, 201431, Note_off_c, 7, 55, 127
2, 201433, Note_on_c, 10, 57, 127
2, 201586, Note_off_c, 10, 57, 127
2, 201586, Note_off_c, 12, 83, 127
2, 201586, Note_off_c, 2, 74, 127
2, 201586, Note_off_c, 7, 79, 127
2, 201589, Note_on_c, 12, 59, 127
2, 201589, Note_on_c, 12, 71, 127
2, 201589, Note_on_c, 7, 79, 127
2, 201742, Note_off_c, 12, 59, 127
2, 201744, Note_on_c, 7, 55, 127
2, 201897, Note_off_c, 7, 55, 127
2, 201897, Note_off_c, 7, 79, 127
2, 201897, Note_off_c, 12, 71, 127
2, 201899, Note_on_c, 0, 60, 127
2, 201899, Note_on_c, 4, 76, 127
2, 201899, Note_on_c, 7, 67, 127
2, 202052, Note_off_c, 0, 60, 127
2, 202055, Note_on_c, 2, 62, 127
2, 202207, Note_off_c, 7, 67, 127
2, 202207, Note_off_c, 4, 76, 127
2, 202208, Note_off_c, 2, 62, 127
2, 202210, Note_on_c, 0, 60, 127
2, 202210, Note_on_c, 10, 69, 127
2, 202210, Note_on_c, 6, 78, 127
2, 202363, Note_off_c, 6, 78, 127
2, 202363, Note_off_c, 10, 69, 127
2, 202363, Note_off_c, 0, 60, 127
2, 202365, Note_on_c, 12, 59, 127
2, 202365, Note_on_c, 12, 71, 127
2, 202365, Note_on_c, 7, 79, 127
2, 202518, Note_off_c, 7, 79, 127
2, 202518, Note_off_c, 12, 71, 127
2, 202518, Note_off_c, 12, 59, 127
2, 202520, Note_on_c, 10, 57, 127
2, 202520, Note_on_c, 10, 81, 127
2, 202520, Note_on_c, 0, 72, 127
2, 202673, Note_off_c, 10, 57, 127
2, 202676, Note_on_c, 12, 59, 127
2, 202828, Note_off_c, 0, 72, 127
2, 202828, Note_off_c, 10, 81, 127
2, 202829, Note_off_c, 12, 59, 127
2, 202831, Note_on_c, 0, 60, 127
2, 202831, Note_on_c, 10, 69, 127
2, 202831, Note_on_c, 6, 78, 127
2, 202984, Note_off_c, 0, 60, 127
2, 202986, Note_on_c, 10, 57, 127
2, 203139, Note_off_c, 10, 57, 127
2, 203139, Note_off_c, 6, 78, 127
2, 203139, Note_off_c, 10, 69, 127
2, 203142, Note_on_c, 12, 59, 127
2, 203142, Note_on_c, 3, 75, 127
2, 203142, Note_on_c, 6, 66, 127
2, 203452, Note_off_c, 12, 59, 127
2, 203454, Note_on_c, 12, 47, 127
2, 203597, Note_off_c, 3, 75, 127
2, 203762, Note_off_c, 12, 47, 127
2, 203764, Note_off_c, 6, 66, 127
2, 203766, Note_on_c, 12, 71, 127
2, 203922, Note_on_c, 1, 73, 127
2, 204073, Note_off_c, 12, 71, 127
2, 204075, Note_off_c, 1, 73, 127
2, 204077, Note_on_c, 6, 66, 127
2, 204077, Note_on_c, 3, 75, 127
2, 204230, Note_off_c, 3, 75, 127
2, 204232, Note_on_c, 4, 76, 127
2, 204385, Note_off_c, 4, 76, 127
2, 204385, Note_off_c, 6, 66, 127
2, 204388, Note_on_c, 3, 63, 127
2, 204388, Note_on_c, 6, 78, 127
2, 204541, Note_off_c, 6, 78, 127
2, 204543, Note_on_c, 7, 79, 127
2, 204696, Note_off_c, 7, 79, 127
2, 204696, Note_off_c, 3, 63, 127
2, 204698, Note_on_c, 3, 63, 127
2, 204698, Note_on_c, 6, 78, 127
2, 204851, Note_off_c, 6, 78, 127
2, 204851, Note_off_c, 3, 63, 127
2, 204853, Note_on_c, 4, 64, 127
2, 204853, Note_on_c, 4, 76, 127
2, 205006, Note_off_c, 4, 76, 127
2, 205006, Note_off_c, 4, 64, 127
2, 205009, Note_on_c, 6, 66, 127
2, 205009, Note_on_c, 3, 75, 127
2, 205162, Note_off_c, 3, 75, 127
2, 205164, Note_on_c, 4, 76, 127
2, 205317, Note_off_c, 4, 76, 127
2, 205317, Note_off_c, 6, 66, 127
2, 205319, Note_on_c, 3, 63, 127
2, 205319, Note_on_c, 6, 78, 127
2, 205472, Note_off_c, 6, 78, 127
2, 205475, Note_on_c, 7, 79, 127
2, 205627, Note_off_c, 3, 63, 127
2, 205628, Note_off_c, 7, 79, 127
2, 205630, Note_on_c, 12, 59, 127
2, 205630, Note_on_c, 10, 81, 127
2, 205783, Note_off_c, 10, 81, 127
2, 205785, Note_on_c, 12, 83, 127
2, 205938, Note_off_c, 12, 83, 127
2, 205938, Note_off_c, 12, 59, 127
2, 205941, Note_on_c, 12, 59, 127
2, 205941, Note_on_c, 10, 81, 127
2, 206094, Note_off_c, 10, 81, 127
2, 206094, Note_off_c, 12, 59, 127
2, 206096, Note_on_c, 1, 61, 127
2, 206096, Note_on_c, 7, 79, 127
2, 206249, Note_off_c, 7, 79, 127
2, 206249, Note_off_c, 1, 61, 127
2, 206251, Note_on_c, 3, 63, 127
2, 206251, Note_on_c, 6, 78, 127
2, 206404, Note_off_c, 6, 78, 127
2, 206407, Note_on_c, 7, 79, 127
2, 206559, Note_off_c, 3, 63, 127
2, 206560, Note_off_c, 7, 79, 127
2, 206562, Note_on_c, 12, 59, 127
2, 206562, Note_on_c, 10, 81, 127
2, 206715, Note_off_c, 10, 81, 127
2, 206717, Note_on_c, 12, 83, 127
2, 206870, Note_off_c, 12, 83, 127
2, 206870, Note_off_c, 12, 59, 127
2, 206872, Note_on_c, 7, 55, 127
2, 206872, Note_on_c, 0, 84, 127
2, 207025, Note_off_c, 0, 84, 127
2, 207025, Note_off_c, 7, 55, 127
2, 207028, Note_on_c, 6, 54, 127
2, 207028, Note_on_c, 10, 81, 127
2, 207181, Note_off_c, 10, 81, 127
2, 207181, Note_off_c, 6, 54, 127
2, 207183, Note_on_c, 7, 55, 127
2, 207183, Note_on_c, 12, 83, 127
2, 207336, Note_off_c, 7, 55, 127
2, 207338, Note_on_c, 10, 57, 127
2, 207491, Note_off_c, 10, 57, 127
2, 207491, Note_off_c, 12, 83, 127
2, 207494, Note_on_c, 12, 59, 127
2, 207494, Note_on_c, 7, 67, 127
2, 207494, Note_on_c, 4, 76, 127
2, 207804, Note_off_c, 4, 76, 127
2, 207804, Note_off_c, 7, 67, 127
2, 207804, Note_off_c, 12, 59, 127
2, 207806, Note_on_c, 12, 47, 127
2, 207806, Note_on_c, 6, 78, 127
2, 207806, Note_on_c, 10, 69, 127
2, 207959, Note_off_c, 6, 78, 127
2, 207961, Note_on_c, 3, 75, 127
2, 208113, Note_off_c, 10, 69, 127
2, 208114, Note_off_c, 3, 75, 127
2, 208114, Note_off_c, 12, 47, 127
2, 208117, Note_on_c, 4, 52, 127
2, 208117, Note_on_c, 4, 76, 127
2, 208117, Note_on_c, 7, 67, 127
2, 208427, Note_off_c, 4, 52, 127
2, 208429, Note_on_c, 12, 47, 127
2, 208507, Note_off_c, 4, 76, 127
2, 208739, Note_off_c, 12, 47, 127
2, 208739, Note_off_c, 7, 67, 127
2, 208741, Note_on_c, 4, 40, 127
2, 208741, Note_on_c, 12, 71, 127
2, 208741, Note_on_c, 7, 67, 127
2, 208894, Note_off_c, 4, 40, 127
2, 208897, Note_on_c, 6, 42, 127
2, 209049, Note_off_c, 7, 67, 127
2, 209049, Note_off_c, 12, 71, 127
2, 209050, Note_off_c, 6, 42, 127
2, 209052, Note_on_c, 7, 43, 127
2, 209052, Note_on_c, 4, 76, 127
2, 209052, Note_on_c, 12, 71, 127
2, 209205, Note_off_c, 7, 43, 127
2, 209207, Note_on_c, 10, 45, 127
2, 209360, Note_off_c, 10, 45, 127
2, 209360, Note_off_c, 12, 71, 127
2, 209360, Note_off_c, 4, 76, 127
2, 209362, Note_on_c, 12, 47, 127
2, 209362, Note_on_c, 7, 79, 127
2, 209362, Note_on_c, 2, 74, 127
2, 209515, Note_off_c, 12, 47, 127
2, 209518, Note_on_c, 0, 48, 127
2, 209671, Note_off_c, 0, 48, 127
2, 209673, Note_on_c, 2, 50, 127
2, 209816, Note_off_c, 7, 79, 127
2, 209828, Note_off_c, 2, 50, 127
2, 209830, Note_on_c, 4, 52, 127
2, 209983, Note_off_c, 4, 52, 127
2, 209983, Note_off_c, 2, 74, 127
2, 209985, Note_on_c, 5, 53, 127
2, 209985, Note_on_c, 0, 72, 127
2, 210138, Note_off_c, 0, 72, 127
2, 210138, Note_off_c, 5, 53, 127
2, 210141, Note_on_c, 7, 55, 127
2, 210141, Note_on_c, 12, 71, 127
2, 210294, Note_off_c, 12, 71, 127
2, 210294, Note_off_c, 7, 55, 127
2, 210296, Note_on_c, 10, 57, 127
2, 210296, Note_on_c, 10, 69, 127
2, 210449, Note_off_c, 10, 69, 127
2, 210449, Note_off_c, 10, 57, 127
2, 210451, Note_on_c, 12, 59, 127
2, 210451, Note_on_c, 7, 67, 127
2, 210604, Note_off_c, 7, 67, 127
2, 210604, Note_off_c, 12, 59, 127
2, 210607, Note_on_c, 0, 60, 127
2, 210607, Note_on_c, 5, 77, 127
2, 210760, Note_off_c, 5, 77, 127
2, 210760, Note_off_c, 0, 60, 127
2, 210762, Note_on_c, 2, 62, 127
2, 210762, Note_on_c, 2, 74, 127
2, 210915, Note_off_c, 2, 74, 127
2, 210915, Note_off_c, 2, 62, 127
2, 210917, Note_on_c, 0, 60, 127
2, 210917, Note_on_c, 4, 76, 127
2, 211070, Note_off_c, 0, 60, 127
2, 211073, Note_on_c, 12, 59, 127
2, 211175, Note_off_c, 4, 76, 127
2, 211226, Note_off_c, 12, 59, 127
2, 211228, Note_on_c, 10, 57, 127
2, 211228, Note_on_c, 6, 66, 127
2, 211381, Note_off_c, 6, 66, 127
2, 211381, Note_off_c, 10, 57, 127
2, 211383, Note_on_c, 7, 55, 127
2, 211383, Note_on_c, 7, 67, 127
2, 211536, Note_off_c, 7, 67, 127
2, 211536, Note_off_c, 7, 55, 127
2, 211538, Note_on_c, 6, 54, 127
2, 211538, Note_on_c, 10, 69, 127
2, 211691, Note_off_c, 10, 69, 127
2, 211691, Note_off_c, 6, 54, 127
2, 211694, Note_on_c, 4, 52, 127
2, 211694, Note_on_c, 12, 71, 127
2, 211847, Note_off_c, 12, 71, 127
2, 211847, Note_off_c, 4, 52, 127
2, 211849, Note_on_c, 2, 50, 127
2, 211849, Note_on_c, 0, 72, 127
2, 212002, Note_off_c, 0, 72, 127
2, 212002, Note_off_c, 2, 50, 127
2, 212004, Note_on_c, 0, 48, 127
2, 212004, Note_on_c, 10, 69, 127
2, 212157, Note_off_c, 10, 69, 127
2, 212157, Note_off_c, 0, 48, 127
2, 212160, Note_on_c, 12, 47, 127
2, 212160, Note_on_c, 12, 71, 127
2, 212313, Note_off_c, 12, 71, 127
2, 212313, Note_off_c, 12, 47, 127
2, 212315, Note_on_c, 10, 45, 127
2, 212315, Note_on_c, 0, 72, 127
2, 212468, Note_off_c, 0, 72, 127
2, 212468, Note_off_c, 10, 45, 127
2, 212470, Note_on_c, 7, 43, 127
2, 212470, Note_on_c, 2, 74, 127
2, 212623, Note_off_c, 2, 74, 127
2, 212623, Note_off_c, 7, 43, 127
2, 212626, Note_on_c, 10, 45, 127
2, 212626, Note_on_c, 0, 72, 127
2, 212779, Note_off_c, 0, 72, 127
2, 212779, Note_off_c, 10, 45, 127
2, 212781, Note_on_c, 12, 47, 127
2, 212781, Note_on_c, 2, 74, 127
2, 212934, Note_off_c, 2, 74, 127
2, 212934, Note_off_c, 12, 47, 127
2, 212936, Note_on_c, 0, 48, 127
2, 212936, Note_on_c, 4, 76, 127
2, 213089, Note_off_c, 4, 76, 127
2, 213089, Note_off_c, 0, 48, 127
2, 213092, Note_on_c, 2, 50, 127
2, 213092, Note_on_c, 10, 69, 127
2, 213092, Note_on_c, 6, 66, 127
2, 213245, Note_off_c, 2, 50, 127
2, 213247, Note_on_c, 10, 45, 127
2, 213400, Note_off_c, 10, 45, 127
2, 213402, Note_on_c, 6, 42, 127
2, 213546, Note_off_c, 10, 69, 127
2, 213557, Note_off_c, 6, 42, 127
2, 213559, Note_on_c, 10, 45, 127
2, 213712, Note_off_c, 10, 45, 127
2, 213713, Note_off_c, 6, 66, 127
2, 213714, Note_on_c, 2, 38, 127
2, 213714, Note_on_c, 10, 81, 127
2, 213714, Note_on_c, 0, 84, 127
2, 213867, Note_off_c, 2, 38, 127
2, 213870, Note_on_c, 4, 40, 127
2, 214022, Note_off_c, 0, 84, 127
2, 214022, Note_off_c, 10, 81, 127
2, 214023, Note_off_c, 4, 40, 127
2, 214025, Note_on_c, 6, 42, 127
2, 214025, Note_on_c, 10, 81, 127
2, 214025, Note_on_c, 2, 74, 127
2, 214178, Note_off_c, 6, 42, 127
2, 214180, Note_on_c, 7, 43, 127
2, 214333, Note_off_c, 7, 43, 127
2, 214333, Note_off_c, 2, 74, 127
2, 214333, Note_off_c, 10, 81, 127
2, 214336, Note_on_c, 10, 45, 127
2, 214336, Note_on_c, 6, 78, 127
2, 214336, Note_on_c, 0, 72, 127
2, 214489, Note_off_c, 10, 45, 127
2, 214491, Note_on_c, 12, 47, 127
2, 214644, Note_off_c, 12, 47, 127
2, 214644, Note_off_c, 6, 78, 127
2, 214646, Note_on_c, 10, 45, 127
2, 214646, Note_on_c, 6, 78, 127
2, 214799, Note_off_c, 6, 78, 127
2, 214799, Note_off_c, 10, 45, 127
2, 214802, Note_on_c, 7, 43, 127
2, 214802, Note_on_c, 7, 79, 127
2, 214952, Note_off_c, 0, 72, 127
2, 214957, Note_off_c, 7, 79, 127
2, 214957, Note_off_c, 7, 43, 127
2, 214959, Note_on_c, 0, 72, 127
2, 214959, Note_on_c, 10, 81, 127
2, 214959, Note_on_c, 6, 42, 127
2, 215115, Note_off_c, 6, 42, 127
2, 215117, Note_on_c, 7, 43, 127
2, 215273, Note_off_c, 7, 43, 127
2, 215276, Note_off_c, 10, 81, 127
2, 215276, Note_off_c, 0, 72, 127
2, 215278, Note_on_c, 10, 69, 127
2, 215278, Note_on_c, 6, 78, 127
2, 215278, Note_on_c, 10, 45, 127
2, 215434, Note_off_c, 10, 45, 127
2, 215438, Note_on_c, 12, 47, 127
2, 215594, Note_off_c, 12, 47, 127
2, 215595, Note_off_c, 6, 78, 127
2, 215595, Note_off_c, 10, 69, 127
2, 215598, Note_on_c, 2, 74, 127
2, 215598, Note_on_c, 6, 66, 127
2, 215598, Note_on_c, 0, 48, 127
2, 215754, Note_off_c, 0, 48, 127
2, 215759, Note_on_c, 2, 50, 127
2, 215915, Note_off_c, 2, 50, 127
2, 215915, Note_off_c, 2, 74, 127
2, 215919, Note_on_c, 2, 74, 127
2, 215919, Note_on_c, 0, 48, 127
2, 216075, Note_off_c, 0, 48, 127
2, 216075, Note_off_c, 2, 74, 127
2, 216079, Note_on_c, 4, 76, 127
2, 216079, Note_on_c, 12, 47, 127
2, 216230, Note_off_c, 6, 66, 127
2, 216235, Note_off_c, 12, 47, 127
2, 216235, Note_off_c, 4, 76, 127
2, 216240, Note_on_c, 0, 72, 127
2, 216240, Note_on_c, 6, 78, 127
2, 216240, Note_on_c, 10, 45, 127
2, 216403, Note_off_c, 10, 45, 127
2, 216403, Note_off_c, 6, 78, 127
2, 216407, Note_on_c, 7, 79, 127
2, 216407, Note_on_c, 12, 47, 127
2, 216570, Note_off_c, 12, 47, 127
2, 216570, Note_off_c, 7, 79, 127
2, 216577, Note_on_c, 10, 81, 127
2, 216577, Note_on_c, 0, 48, 127
2, 216740, Note_off_c, 0, 48, 127
2, 216740, Note_off_c, 10, 81, 127
2, 216747, Note_on_c, 6, 78, 127
2, 216747, Note_on_c, 2, 50, 127
2, 216910, Note_off_c, 2, 50, 127
2, 216910, Note_off_c, 6, 78, 127
2, 216911, Note_off_c, 0, 72, 127
2, 216918, Note_on_c, 12, 71, 127
2, 216918, Note_on_c, 7, 79, 127
2, 216918, Note_on_c, 4, 52, 127
2, 217091, Note_off_c, 7, 79, 127
2, 217095, Note_on_c, 4, 76, 127
2, 217268, Note_off_c, 4, 76, 127
2, 217272, Note_off_c, 12, 71, 127
2, 217273, Note_off_c, 4, 52, 127
2, 217277, Note_on_c, 0, 72, 127
2, 217277, Note_on_c, 10, 81, 127
2, 217277, Note_on_c, 0, 48, 127
2, 217632, Note_off_c, 0, 48, 127
2, 217632, Note_off_c, 10, 81, 127
2, 217632, Note_off_c, 0, 72, 127
2, 217639, Note_on_c, 7, 79, 127
2, 217639, Note_on_c, 10, 69, 127
2, 217639, Note_on_c, 2, 50, 127
2, 217727, Note_off_c, 7, 79, 127
2, 217736, Note_on_c, 6, 78, 127
2, 217824, Note_off_c, 6, 78, 127
2, 217828, Note_on_c, 7, 79, 127
2, 217916, Note_off_c, 7, 79, 127
2, 217930, Note_on_c, 6, 78, 127
2, 218018, Note_off_c, 2, 50, 127
2, 218026, Note_on_c, 2, 38, 127
2, 218210, Note_off_c, 6, 78, 127
2, 218217, Note_on_c, 7, 79, 127
2, 218397, Note_off_c, 10, 69, 127
2, 218400, Note_off_c, 7, 79, 127
2, 218401, Note_off_c, 2, 38, 127
2, 218414, Note_on_c, 7, 79, 127
2, 218414, Note_on_c, 12, 71, 127
2, 218414, Note_on_c, 7, 43, 127
2, 220514, Note_off_c, 7, 43, 127
2, 220514, Note_off_c, 12, 71, 127
2, 220514, Note_off_c, 7, 79, 127
2, 221114, Note_on_c, 12, 71, 127
2, 221270, Note_off_c, 12, 71, 127
2, 221308, Note_on_c, 2, 74, 127
2, 221464, Note_off_c, 2, 74, 127
2, 221485, Note_on_c, 7, 79, 127
2, 221561, Note_off_c, 7, 79, 127
2, 221563, Note_on_c, 6, 78, 127
2, 221639, Note_off_c, 6, 78, 127
2, 221642, Note_on_c, 2, 62, 127
2, 221642, Note_on_c, 7, 79, 127
2, 221798, Note_off_c, 2, 62, 127
2, 221800, Note_on_c, 12, 59, 127
2, 221956, Note_off_c, 12, 59, 127
2, 221957, Note_off_c, 7, 79, 127
2, 221959, Note_on_c, 7, 55, 127
2, 221959, Note_on_c, 10, 81, 127
2, 222115, Note_off_c, 10, 81, 127
2, 222115, Note_off_c, 7, 55, 127
2, 222118, Note_on_c, 6, 54, 127
2, 222118, Note_on_c, 12, 83, 127
2, 222194, Note_off_c, 12, 83, 127
2, 222196, Note_on_c, 10, 81, 127
2, 222272, Note_off_c, 10, 81, 127
2, 222273, Note_off_c, 6, 54, 127
2, 222275, Note_on_c, 0, 60, 127
2, 222275, Note_on_c, 12, 83, 127
2, 222351, Note_off_c, 12, 83, 127
2, 222353, Note_on_c, 10, 81, 127
2, 222429, Note_off_c, 10, 81, 127
2, 222430, Note_off_c, 0, 60, 127
2, 222432, Note_on_c, 10, 57, 127
2, 222432, Note_on_c, 12, 83, 127
2, 222508, Note_off_c, 12, 83, 127
2, 222510, Note_on_c, 10, 81, 127
2, 222586, Note_off_c, 10, 81, 127
2, 222587, Note_off_c, 10, 57, 127
2, 222589, Note_on_c, 6, 54, 127
2, 222589, Note_on_c, 7, 79, 127
2, 222665, Note_off_c, 7, 79, 127
2, 222667, Note_on_c, 10, 81, 127
2, 222743, Note_off_c, 10, 81, 127
2, 222744, Note_off_c, 6, 54, 127
2, 222746, Note_on_c, 7, 55, 127
2, 222746, Note_on_c, 12, 83, 127
2, 222902, Note_off_c, 7, 55, 127
2, 222904, Note_on_c, 12, 59, 127
2, 223060, Note_off_c, 12, 59, 127
2, 223061, Note_off_c, 12, 83, 127
2, 223063, Note_on_c, 7, 55, 127
2, 223063, Note_on_c, 10, 81, 127
2, 223219, Note_off_c, 10, 81, 127
2, 223219, Note_off_c, 7, 55, 127
2, 223222, Note_on_c, 2, 50, 127
2, 223222, Note_on_c, 12, 83, 127
2, 223378, Note_off_c, 12, 83, 127
2, 223378, Note_off_c, 2, 50, 127
2, 223380, Note_on_c, 12, 47, 127
2, 223380, Note_on_c, 7, 79, 127
2, 223536, Note_off_c, 12, 47, 127
2, 223539, Note_on_c, 2, 50, 127
2, 223695, Note_off_c, 2, 50, 127
2, 223695, Note_off_c, 7, 79, 127
2, 223697, Note_on_c, 12, 47, 127
2, 223697, Note_on_c, 2, 74, 127
2, 223853, Note_off_c, 2, 74, 127
2, 223853, Note_off_c, 12, 47, 127
2, 223856, Note_on_c, 7, 43, 127
2, 223856, Note_on_c, 12, 71, 127
2, 224012, Note_off_c, 12, 71, 127
2, 224012, Note_off_c, 7, 43, 127
2, 224015, Note_on_c, 0, 48, 127
2, 224015, Note_on_c, 4, 76, 127
2, 224171, Note_off_c, 0, 48, 127
2, 224173, Note_on_c, 7, 43, 127
2, 224312, Note_off_c, 4, 76, 127
2, 224329, Note_off_c, 7, 43, 127
2, 224332, Note_on_c, 4, 52, 127
2, 224332, Note_on_c, 0, 72, 127
2, 224488, Note_off_c, 0, 72, 127
2, 224488, Note_off_c, 4, 52, 127
2, 224491, Note_on_c, 0, 48, 127
2, 224491, Note_on_c, 10, 69, 127
2, 224647, Note_off_c, 10, 69, 127
2, 224647, Note_off_c, 0, 48, 127
2, 224649, Note_on_c, 2, 50, 127
2, 224649, Note_on_c, 6, 66, 127
2, 224805, Note_off_c, 2, 50, 127
2, 224808, Note_on_c, 10, 45, 127
2, 224946, Note_off_c, 6, 66, 127
2, 224964, Note_off_c, 10, 45, 127
2, 224967, Note_on_c, 6, 54, 127
2, 224967, Note_on_c, 2, 74, 127
2, 225123, Note_off_c, 2, 74, 127
2, 225123, Note_off_c, 6, 54, 127
2, 225125, Note_on_c, 2, 50, 127
2, 225125, Note_on_c, 10, 69, 127
2, 225281, Note_off_c, 10, 69, 127
2, 225281, Note_off_c, 2, 50, 127
2, 225284, Note_on_c, 7, 55, 127
2, 225284, Note_on_c, 0, 72, 127
2, 225440, Note_off_c, 0, 72, 127
2, 225443, Note_on_c, 12, 71, 127
2, 225599, Note_off_c, 12, 71, 127
2, 225599, Note_off_c, 7, 55, 127
2, 225601, Note_on_c, 2, 50, 127
2, 225601, Note_on_c, 10, 69, 127
2, 225757, Note_off_c, 10, 69, 127
2, 225760, Note_on_c, 12, 71, 127
2, 225916, Note_off_c, 12, 71, 127
2, 225916, Note_off_c, 2, 50, 127
2, 225919, Note_on_c, 12, 47, 127
2, 225919, Note_on_c, 7, 67, 127
2, 226075, Note_off_c, 7, 67, 127
2, 226077, Note_on_c, 10, 69, 127
2, 226233, Note_off_c, 10, 69, 127
2, 226234, Note_off_c, 12, 47, 127
2, 226236, Note_on_c, 2, 50, 127
2, 226236, Note_on_c, 12, 71, 127
2, 226392, Note_off_c, 12, 71, 127
2, 226395, Note_on_c, 2, 74, 127
2, 226551, Note_off_c, 2, 74, 127
2, 226551, Note_off_c, 2, 50, 127
2, 226553, Note_on_c, 7, 43, 127
2, 226553, Note_on_c, 7, 79, 127
2, 226629, Note_off_c, 7, 79, 127
2, 226632, Note_on_c, 6, 78, 127
2, 226708, Note_off_c, 6, 78, 127
2, 226708, Note_off_c, 7, 43, 127
2, 226710, Note_on_c, 2, 62, 127
2, 226710, Note_on_c, 7, 79, 127
2, 226866, Note_off_c, 2, 62, 127
2, 226869, Note_on_c, 12, 59, 127
2, 227025, Note_off_c, 12, 59, 127
2, 227025, Note_off_c, 7, 79, 127
2, 227027, Note_on_c, 7, 55, 127
2, 227027, Note_on_c, 10, 81, 127
2, 227183, Note_off_c, 10, 81, 127
2, 227183, Note_off_c, 7, 55, 127
2, 227186, Note_on_c, 6, 54, 127
2, 227186, Note_on_c, 12, 83, 127
2, 227262, Note_off_c, 12, 83, 127
2, 227265, Note_on_c, 10, 81, 127
2, 227341, Note_off_c, 10, 81, 127
2, 227341, Note_off_c, 6, 54, 127
2, 227343, Note_on_c, 0, 60, 127
2, 227343, Note_on_c, 12, 83, 127
2, 227419, Note_off_c, 12, 83, 127
2, 227422, Note_on_c, 10, 81, 127
2, 227498, Note_off_c, 10, 81, 127
2, 227498, Note_off_c, 0, 60, 127
2, 227500, Note_on_c, 10, 57, 127
2, 227500, Note_on_c, 12, 83, 127
2, 227576, Note_off_c, 12, 83, 127
2, 227579, Note_on_c, 10, 81, 127
2, 227655, Note_off_c, 10, 81, 127
2, 227655, Note_off_c, 10, 57, 127
2, 227657, Note_on_c, 6, 54, 127
2, 227657, Note_on_c, 7, 79, 127
2, 227733, Note_off_c, 7, 79, 127
2, 227736, Note_on_c, 10, 81, 127
2, 227812, Note_off_c, 10, 81, 127
2, 227812, Note_off_c, 6, 54, 127
2, 227814, Note_on_c, 7, 55, 127
2, 227814, Note_on_c, 12, 83, 127
2, 227970, Note_off_c, 7, 55, 127
2, 227973, Note_on_c, 12, 59, 127
2, 228129, Note_off_c, 12, 59, 127
2, 228129, Note_off_c, 12, 83, 127
2, 228131, Note_on_c, 7, 55, 127
2, 228131, Note_on_c, 10, 81, 127
2, 228287, Note_off_c, 10, 81, 127
2, 228287, Note_off_c, 7, 55, 127
2, 228290, Note_on_c, 2, 50, 127
2, 228290, Note_on_c, 12, 83, 127
2, 228446, Note_off_c, 12, 83, 127
2, 228446, Note_off_c, 2, 50, 127
2, 228449, Note_on_c, 12, 47, 127
2, 228449, Note_on_c, 7, 79, 127
2, 228605, Note_off_c, 12, 47, 127
2, 228607, Note_on_c, 7, 55, 127
2, 228763, Note_off_c, 7, 55, 127
2, 228764, Note_off_c, 7, 79, 127
2, 228766, Note_on_c, 2, 50, 127
2, 228766, Note_on_c, 10, 81, 127
2, 228922, Note_off_c, 10, 81, 127
2, 228922, Note_off_c, 2, 50, 127
2, 228925, Note_on_c, 12, 47, 127
2, 228925, Note_on_c, 0, 84, 127
2, 229081, Note_off_c, 0, 84, 127
2, 229081, Note_off_c, 12, 47, 127
2, 229083, Note_on_c, 7, 43, 127
2, 229083, Note_on_c, 12, 83, 127
2, 229239, Note_off_c, 7, 43, 127
2, 229242, Note_on_c, 12, 47, 127
2, 229380, Note_off_c, 12, 83, 127
2, 229398, Note_off_c, 12, 47, 127
2, 229401, Note_on_c, 1, 49, 127
2, 229401, Note_on_c, 4, 76, 127
2, 229557, Note_off_c, 4, 76, 127
2, 229557, Note_off_c, 1, 49, 127
2, 229559, Note_on_c, 4, 52, 127
2, 229559, Note_on_c, 7, 79, 127
2, 229715, Note_off_c, 7, 79, 127
2, 229715, Note_off_c, 4, 52, 127
2, 229718, Note_on_c, 6, 42, 127
2, 229718, Note_on_c, 10, 81, 127
2, 229874, Note_off_c, 6, 42, 127
2, 229876, Note_on_c, 10, 45, 127
2, 230015, Note_off_c, 10, 81, 127
2, 230032, Note_off_c, 10, 45, 127
2, 230035, Note_on_c, 2, 50, 127
2, 230035, Note_on_c, 12, 71, 127
2, 230191, Note_off_c, 12, 71, 127
2, 230194, Note_on_c, 2, 74, 127
2, 230350, Note_off_c, 2, 74, 127
2, 230350, Note_off_c, 2, 50, 127
2, 230352, Note_on_c, 4, 40, 127
2, 230352, Note_on_c, 7, 79, 127
2, 230508, Note_off_c, 4, 40, 127
2, 230511, Note_on_c, 7, 43, 127
2, 230649, Note_off_c, 7, 79, 127
2, 230667, Note_off_c, 7, 43, 127
2, 230670, Note_on_c, 10, 45, 127
2, 230670, Note_on_c, 1, 73, 127
2, 230826, Note_off_c, 1, 73, 127
2, 230826, Note_off_c, 10, 45, 127
2, 230828, Note_on_c, 1, 49, 127
2, 230828, Note_on_c, 4, 76, 127
2, 230984, Note_off_c, 4, 76, 127
2, 230984, Note_off_c, 1, 49, 127
2, 230987, Note_on_c, 2, 50, 127
2, 230987, Note_on_c, 6, 78, 127
2, 231143, Note_off_c, 2, 50, 127
2, 231146, Note_on_c, 4, 52, 127
2, 231284, Note_off_c, 6, 78, 127
2, 231302, Note_off_c, 4, 52, 127
2, 231304, Note_on_c, 6, 54, 127
2, 231304, Note_on_c, 2, 74, 127
2, 231460, Note_off_c, 2, 74, 127
2, 231460, Note_off_c, 6, 54, 127
2, 231463, Note_on_c, 2, 50, 127
2, 231463, Note_on_c, 6, 78, 127
2, 231619, Note_off_c, 6, 78, 127
2, 231619, Note_off_c, 2, 50, 127
2, 231622, Note_on_c, 7, 55, 127
2, 231622, Note_on_c, 12, 83, 127
2, 231778, Note_off_c, 7, 55, 127
2, 231780, Note_on_c, 4, 52, 127
2, 231936, Note_off_c, 4, 52, 127
2, 231937, Note_off_c, 12, 83, 127
2, 231939, Note_on_c, 6, 54, 127
2, 231939, Note_on_c, 10, 81, 127
2, 232095, Note_off_c, 6, 54, 127
2, 232098, Note_on_c, 2, 50, 127
2, 232254, Note_off_c, 2, 50, 127
2, 232254, Note_off_c, 10, 81, 127
2, 232256, Note_on_c, 10, 57, 127
2, 232256, Note_on_c, 7, 79, 127
2, 232412, Note_off_c, 7, 79, 127
2, 232415, Note_on_c, 6, 78, 127
2, 232571, Note_off_c, 6, 78, 127
2, 232571, Note_off_c, 10, 57, 127
2, 232574, Note_on_c, 10, 45, 127
2, 232574, Note_on_c, 7, 79, 127
2, 232730, Note_off_c, 7, 79, 127
2, 232732, Note_on_c, 4, 76, 127
2, 232888, Note_off_c, 4, 76, 127
2, 232889, Note_off_c, 10, 45, 127
2, 232891, Note_on_c, 2, 50, 127
2, 232891, Note_on_c, 2, 74, 127
2, 233047, Note_off_c, 2, 50, 127
2, 233049, Note_on_c, 10, 45, 127
2, 233205, Note_off_c, 10, 45, 127
2, 233208, Note_on_c, 6, 42, 127
2, 233364, Note_off_c, 6, 42, 127
2, 233367, Note_on_c, 10, 45, 127
2, 233518, Note_off_c, 2, 74, 127
2, 233523, Note_off_c, 10, 45, 127
2, 233525, Note_on_c, 2, 38, 127
2, 233837, Note_off_c, 2, 38, 127
2, 233841, Note_on_c, 10, 81, 127
2, 233997, Note_off_c, 10, 81, 127
2, 234000, Note_on_c, 6, 78, 127
2, 234156, Note_off_c, 6, 78, 127
2, 234158, Note_on_c, 2, 74, 127
2, 234317, Note_on_c, 2, 62, 127
2, 234473, Note_off_c, 2, 62, 127
2, 234476, Note_on_c, 10, 57, 127
2, 234632, Note_off_c, 10, 57, 127
2, 234632, Note_off_c, 2, 74, 127
2, 234634, Note_on_c, 6, 54, 127
2, 234634, Note_on_c, 4, 76, 127
2, 234710, Note_off_c, 4, 76, 127
2, 234713, Note_on_c, 6, 78, 127
2, 234789, Note_off_c, 6, 78, 127
2, 234789, Note_off_c, 6, 54, 127
2, 234791, Note_on_c, 2, 50, 127
2, 234791, Note_on_c, 7, 79, 127
2, 234867, Note_off_c, 7, 79, 127
2, 234870, Note_on_c, 6, 78, 127
2, 234946, Note_off_c, 6, 78, 127
2, 234946, Note_off_c, 2, 50, 127
2, 234948, Note_on_c, 10, 57, 127
2, 234948, Note_on_c, 7, 79, 127
2, 235024, Note_off_c, 7, 79, 127
2, 235027, Note_on_c, 6, 78, 127
2, 235103, Note_off_c, 6, 78, 127
2, 235103, Note_off_c, 10, 57, 127
2, 235105, Note_on_c, 6, 54, 127
2, 235105, Note_on_c, 7, 79, 127
2, 235181, Note_off_c, 7, 79, 127
2, 235184, Note_on_c, 6, 78, 127
2, 235260, Note_off_c, 6, 78, 127
2, 235260, Note_off_c, 6, 54, 127
2, 235262, Note_on_c, 2, 50, 127
2, 235262, Note_on_c, 4, 76, 127
2, 235338, Note_off_c, 4, 76, 127
2, 235341, Note_on_c, 6, 78, 127
2, 235417, Note_off_c, 6, 78, 127
2, 235417, Note_off_c, 2, 50, 127
2, 235419, Note_on_c, 12, 47, 127
2, 235419, Note_on_c, 7, 79, 127
2, 235575, Note_off_c, 12, 47, 127
2, 235578, Note_on_c, 12, 59, 127
2, 235734, Note_off_c, 12, 59, 127
2, 235736, Note_on_c, 7, 55, 127
2, 235892, Note_off_c, 7, 55, 127
2, 235895, Note_on_c, 2, 50, 127
2, 236051, Note_off_c, 2, 50, 127
2, 236054, Note_on_c, 12, 47, 127
2, 236210, Note_off_c, 12, 47, 127
2, 236212, Note_on_c, 2, 50, 127
2, 236310, Note_off_c, 7, 79, 127
2, 236368, Note_off_c, 2, 50, 127
2, 236371, Note_on_c, 12, 47, 127
2, 236371, Note_on_c, 2, 74, 127
2, 236527, Note_off_c, 2, 74, 127
2, 236527, Note_off_c, 12, 47, 127
2, 236530, Note_on_c, 7, 43, 127
2, 236530, Note_on_c, 7, 79, 127
2, 236686, Note_off_c, 7, 79, 127
2, 236686, Note_off_c, 7, 43, 127
2, 236688, Note_on_c, 10, 45, 127
2, 236688, Note_on_c, 0, 84, 127
2, 236844, Note_off_c, 10, 45, 127
2, 236847, Note_on_c, 0, 48, 127
2, 236985, Note_off_c, 0, 84, 127
2, 237003, Note_off_c, 0, 48, 127
2, 237006, Note_on_c, 10, 45, 127
2, 237006, Note_on_c, 3, 75, 127
2, 237162, Note_off_c, 3, 75, 127
2, 237162, Note_off_c, 10, 45, 127
2, 237164, Note_on_c, 6, 42, 127
2, 237164, Note_on_c, 6, 78, 127
2, 237320, Note_off_c, 6, 78, 127
2, 237320, Note_off_c, 6, 42, 127
2, 237323, Note_on_c, 7, 43, 127
2, 237323, Note_on_c, 12, 83, 127
2, 237479, Note_off_c, 7, 43, 127
2, 237482, Note_on_c, 12, 47, 127
2, 237620, Note_off_c, 12, 83, 127
2, 237638, Note_off_c, 12, 47, 127
2, 237640, Note_on_c, 7, 43, 127
2, 237640, Note_on_c, 4, 76, 127
2, 237796, Note_off_c, 4, 76, 127
2, 237796, Note_off_c, 7, 43, 127
2, 237799, Note_on_c, 4, 40, 127
2, 237799, Note_on_c, 7, 79, 127
2, 237955, Note_off_c, 7, 79, 127
2, 237955, Note_off_c, 4, 40, 127
2, 237958, Note_on_c, 12, 47, 127
2, 237958, Note_on_c, 6, 78, 127
2, 238114, Note_off_c, 6, 78, 127
2, 238116, Note_on_c, 4, 76, 127
2, 238272, Note_off_c, 4, 76, 127
2, 238273, Note_off_c, 12, 47, 127
2, 238275, Note_on_c, 1, 49, 127
2, 238275, Note_on_c, 3, 75, 127
2, 238431, Note_off_c, 3, 75, 127
2, 238434, Note_on_c, 1, 73, 127
2, 238590, Note_off_c, 1, 73, 127
2, 238590, Note_off_c, 1, 49, 127
2, 238592, Note_on_c, 3, 51, 127
2, 238592, Note_on_c, 12, 71, 127
2, 238748, Note_off_c, 3, 51, 127
2, 238751, Note_on_c, 6, 54, 127
2, 238907, Note_off_c, 6, 54, 127
2, 238907, Note_off_c, 12, 71, 127
2, 238909, Note_on_c, 12, 59, 127
2, 238909, Note_on_c, 10, 81, 127
2, 239065, Note_off_c, 10, 81, 127
2, 239065, Note_off_c, 12, 59, 127
2, 239068, Note_on_c, 3, 51, 127
2, 239068, Note_on_c, 6, 78, 127
2, 239224, Note_off_c, 6, 78, 127
2, 239224, Note_off_c, 3, 51, 127
2, 239227, Note_on_c, 4, 52, 127
2, 239227, Note_on_c, 12, 71, 127
2, 239383, Note_off_c, 4, 52, 127
2, 239385, Note_on_c, 7, 55, 127
2, 239524, Note_off_c, 12, 71, 127
2, 239541, Note_off_c, 7, 55, 127
2, 239544, Note_on_c, 12, 59, 127
2, 239544, Note_on_c, 7, 79, 127
2, 239700, Note_off_c, 7, 79, 127
2, 239700, Note_off_c, 12, 59, 127
2, 239703, Note_on_c, 2, 50, 127
2, 239703, Note_on_c, 4, 76, 127
2, 239859, Note_off_c, 4, 76, 127
2, 239859, Note_off_c, 2, 50, 127
2, 239861, Note_on_c, 1, 49, 127
2, 239861, Note_on_c, 11, 70, 127
2, 240017, Note_off_c, 1, 49, 127
2, 240020, Note_on_c, 4, 52, 127
2, 240158, Note_off_c, 11, 70, 127
2, 240176, Note_off_c, 4, 52, 127
2, 240179, Note_on_c, 12, 59, 127
2, 240179, Note_on_c, 7, 79, 127
2, 240335, Note_off_c, 7, 79, 127
2, 240335, Note_off_c, 12, 59, 127
2, 240337, Note_on_c, 1, 49, 127
2, 240337, Note_on_c, 4, 76, 127
2, 240493, Note_off_c, 4, 76, 127
2, 240493, Note_off_c, 1, 49, 127
2, 240496, Note_on_c, 3, 51, 127
2, 240496, Note_on_c, 10, 69, 127
2, 240652, Note_off_c, 3, 51, 127
2, 240655, Note_on_c, 6, 54, 127
2, 240793, Note_off_c, 10, 69, 127
2, 240811, Note_off_c, 6, 54, 127
2, 240813, Note_on_c, 10, 57, 127
2, 240813, Note_on_c, 6, 78, 127
2, 240969, Note_off_c, 6, 78, 127
2, 240969, Note_off_c, 10, 57, 127
2, 240972, Note_on_c, 0, 60, 127
2, 240972, Note_on_c, 3, 75, 127
2, 241128, Note_off_c, 3, 75, 127
2, 241128, Note_off_c, 0, 60, 127
2, 241131, Note_on_c, 12, 59, 127
2, 241131, Note_on_c, 8, 68, 127
2, 241287, Note_off_c, 12, 59, 127
2, 241289, Note_on_c, 4, 52, 127
2, 241428, Note_off_c, 8, 68, 127
2, 241445, Note_off_c, 4, 52, 127
2, 241448, Note_on_c, 8, 56, 127
2, 241448, Note_on_c, 5, 77, 127
2, 241604, Note_off_c, 5, 77, 127
2, 241604, Note_off_c, 8, 56, 127
2, 241607, Note_on_c, 12, 59, 127
2, 241607, Note_on_c, 3, 75, 127
2, 241752, Note_off_c, 3, 75, 127
2, 241763, Note_off_c, 12, 59, 127
2, 241765, Note_on_c, 0, 60, 127
2, 241765, Note_on_c, 4, 76, 127
2, 241921, Note_off_c, 0, 60, 127
2, 241924, Note_on_c, 4, 64, 127
2, 242080, Note_off_c, 4, 64, 127
2, 242080, Note_off_c, 4, 76, 127
2, 242082, Note_on_c, 0, 60, 127
2, 242082, Note_on_c, 6, 78, 127
2, 242238, Note_off_c, 0, 60, 127
2, 242241, Note_on_c, 10, 57, 127
2, 242379, Note_off_c, 6, 78, 127
2, 242397, Note_off_c, 10, 57, 127
2, 242400, Note_on_c, 12, 59, 127
2, 242400, Note_on_c, 12, 71, 127
2, 242713, Note_off_c, 12, 71, 127
2, 242713, Note_off_c, 12, 59, 127
2, 242715, Note_on_c, 12, 47, 127
2, 242715, Note_on_c, 3, 75, 127
2, 243012, Note_off_c, 3, 75, 127
2, 243030, Note_off_c, 12, 47, 127
2, 243033, Note_on_c, 4, 52, 127
2, 243033, Note_on_c, 4, 76, 127
2, 243189, Note_off_c, 4, 52, 127
2, 243191, Note_on_c, 12, 47, 127
2, 243347, Note_off_c, 12, 47, 127
2, 243350, Note_on_c, 7, 43, 127
2, 243506, Note_off_c, 7, 43, 127
2, 243509, Note_on_c, 12, 47, 127
2, 243660, Note_off_c, 4, 76, 127
2, 243665, Note_off_c, 12, 47, 127
2, 243667, Note_on_c, 4, 40, 127
2, 243979, Note_off_c, 4, 40, 127
2, 243983, Note_on_c, 7, 79, 127
2, 244131, Note_off_c, 7, 79, 127
2, 244142, Note_on_c, 4, 76, 127
2, 244290, Note_off_c, 4, 76, 127
2, 244300, Note_on_c, 12, 71, 127
2, 244459, Note_on_c, 4, 64, 127
2, 244615, Note_off_c, 4, 64, 127
2, 244618, Note_on_c, 12, 59, 127
2, 244774, Note_off_c, 12, 59, 127
2, 244774, Note_off_c, 12, 71, 127
2, 244776, Note_on_c, 7, 55, 127
2, 244776, Note_on_c, 0, 72, 127
2, 244932, Note_off_c, 0, 72, 127
2, 244932, Note_off_c, 7, 55, 127
2, 244935, Note_on_c, 4, 52, 127
2, 244935, Note_on_c, 2, 74, 127
2, 245011, Note_off_c, 2, 74, 127
2, 245013, Note_on_c, 0, 72, 127
2, 245089, Note_off_c, 0, 72, 127
2, 245090, Note_off_c, 4, 52, 127
2, 245092, Note_on_c, 7, 55, 127
2, 245092, Note_on_c, 2, 74, 127
2, 245168, Note_off_c, 2, 74, 127
2, 245170, Note_on_c, 0, 72, 127
2, 245246, Note_off_c, 0, 72, 127
2, 245247, Note_off_c, 7, 55, 127
2, 245249, Note_on_c, 0, 48, 127
2, 245249, Note_on_c, 2, 74, 127
2, 245325, Note_off_c, 2, 74, 127
2, 245327, Note_on_c, 0, 72, 127
2, 245403, Note_off_c, 0, 72, 127
2, 245404, Note_off_c, 0, 48, 127
2, 245406, Note_on_c, 4, 52, 127
2, 245406, Note_on_c, 12, 71, 127
2, 245482, Note_off_c, 12, 71, 127
2, 245484, Note_on_c, 0, 72, 127
2, 245560, Note_off_c, 0, 72, 127
2, 245561, Note_off_c, 4, 52, 127
2, 245563, Note_on_c, 12, 47, 127
2, 245563, Note_on_c, 2, 74, 127
2, 245719, Note_off_c, 12, 47, 127
2, 245721, Note_on_c, 12, 59, 127
2, 245877, Note_off_c, 12, 59, 127
2, 245878, Note_off_c, 2, 74, 127
2, 245880, Note_on_c, 7, 55, 127
2, 245880, Note_on_c, 12, 71, 127
2, 246036, Note_off_c, 12, 71, 127
2, 246036, Note_off_c, 7, 55, 127
2, 246039, Note_on_c, 2, 50, 127
2, 246039, Note_on_c, 2, 74, 127
2, 246195, Note_off_c, 2, 74, 127
2, 246195, Note_off_c, 2, 50, 127
2, 246197, Note_on_c, 12, 47, 127
2, 246197, Note_on_c, 7, 79, 127
2, 246353, Note_off_c, 12, 47, 127
2, 246356, Note_on_c, 2, 50, 127
2, 246512, Note_off_c, 2, 50, 127
2, 246512, Note_off_c, 7, 79, 127
2, 246515, Note_on_c, 7, 43, 127
2, 246515, Note_on_c, 12, 83, 127
2, 246671, Note_off_c, 12, 83, 127
2, 246671, Note_off_c, 7, 43, 127
2, 246673, Note_on_c, 12, 47, 127
2, 246673, Note_on_c, 7, 79, 127
2, 246829, Note_off_c, 7, 79, 127
2, 246829, Note_off_c, 12, 47, 127
2, 246832, Note_on_c, 0, 48, 127
2, 246832, Note_on_c, 4, 76, 127
2, 246988, Note_off_c, 0, 48, 127
2, 246991, Note_on_c, 4, 52, 127
2, 247129, Note_off_c, 4, 76, 127
2, 247147, Note_off_c, 4, 52, 127
2, 247149, Note_on_c, 5, 53, 127
2, 247149, Note_on_c, 10, 69, 127
2, 247305, Note_off_c, 10, 69, 127
2, 247308, Note_on_c, 0, 72, 127
2, 247464, Note_off_c, 0, 72, 127
2, 247464, Note_off_c, 5, 53, 127
2, 247467, Note_on_c, 12, 47, 127
2, 247467, Note_on_c, 2, 74, 127
2, 247623, Note_off_c, 12, 47, 127
2, 247625, Note_on_c, 2, 50, 127
2, 247764, Note_off_c, 2, 74, 127
2, 247781, Note_off_c, 2, 50, 127
2, 247784, Note_on_c, 4, 52, 127
2, 247784, Note_on_c, 8, 68, 127
2, 247940, Note_off_c, 8, 68, 127
2, 247943, Note_on_c, 12, 71, 127
2, 248099, Note_off_c, 12, 71, 127
2, 248099, Note_off_c, 4, 52, 127
2, 248101, Note_on_c, 10, 45, 127
2, 248101, Note_on_c, 0, 72, 127
2, 248257, Note_off_c, 10, 45, 127
2, 248260, Note_on_c, 0, 48, 127
2, 248416, Note_off_c, 0, 48, 127
2, 248416, Note_off_c, 0, 72, 127
2, 248418, Note_on_c, 4, 52, 127
2, 248418, Note_on_c, 12, 71, 127
2, 248574, Note_off_c, 12, 71, 127
2, 248574, Note_off_c, 4, 52, 127
2, 248577, Note_on_c, 7, 55, 127
2, 248577, Note_on_c, 0, 72, 127
2, 248733, Note_off_c, 0, 72, 127
2, 248733, Note_off_c, 7, 55, 127
2, 248736, Note_on_c, 6, 54, 127
2, 248736, Note_on_c, 10, 69, 127
2, 248892, Note_off_c, 6, 54, 127
2, 248894, Note_on_c, 10, 57, 127
2, 248999, Note_off_c, 10, 69, 127
2, 249050, Note_off_c, 10, 57, 127
2, 249053, Note_on_c, 6, 54, 127
2, 249053, Note_on_c, 2, 74, 127
2, 249209, Note_off_c, 2, 74, 127
2, 249209, Note_off_c, 6, 54, 127
2, 249212, Note_on_c, 2, 50, 127
2, 249212, Note_on_c, 10, 69, 127
2, 249368, Note_off_c, 10, 69, 127
2, 249368, Note_off_c, 2, 50, 127
2, 249370, Note_on_c, 7, 55, 127
2, 249370, Note_on_c, 12, 71, 127
2, 249526, Note_off_c, 7, 55, 127
2, 249529, Note_on_c, 2, 50, 127
2, 249667, Note_off_c, 12, 71, 127
2, 249685, Note_off_c, 2, 50, 127
2, 249688, Note_on_c, 12, 47, 127
2, 249688, Note_on_c, 7, 67, 127
2, 249844, Note_off_c, 7, 67, 127
2, 249844, Note_off_c, 12, 47, 127
2, 249846, Note_on_c, 2, 50, 127
2, 249846, Note_on_c, 12, 71, 127
2, 250002, Note_off_c, 12, 71, 127
2, 250002, Note_off_c, 2, 50, 127
2, 250005, Note_on_c, 7, 43, 127
2, 250005, Note_on_c, 4, 76, 127
2, 250161, Note_off_c, 7, 43, 127
2, 250164, Note_on_c, 12, 47, 127
2, 250302, Note_off_c, 4, 76, 127
2, 250320, Note_off_c, 12, 47, 127
2, 250322, Note_on_c, 4, 52, 127
2, 250322, Note_on_c, 7, 79, 127
2, 250478, Note_off_c, 7, 79, 127
2, 250478, Note_off_c, 4, 52, 127
2, 250481, Note_on_c, 7, 55, 127
2, 250481, Note_on_c, 12, 71, 127
2, 250637, Note_off_c, 12, 71, 127
2, 250637, Note_off_c, 7, 55, 127
2, 250640, Note_on_c, 10, 57, 127
2, 250640, Note_on_c, 0, 72, 127
2, 250796, Note_off_c, 10, 57, 127
2, 250798, Note_on_c, 4, 52, 127
2, 250937, Note_off_c, 0, 72, 127
2, 250954, Note_off_c, 4, 52, 127
2, 250957, Note_on_c, 0, 48, 127
2, 250957, Note_on_c, 10, 69, 127
2, 251113, Note_off_c, 10, 69, 127
2, 251113, Note_off_c, 0, 48, 127
2, 251116, Note_on_c, 4, 52, 127
2, 251116, Note_on_c, 0, 72, 127
2, 251272, Note_off_c, 0, 72, 127
2, 251272, Note_off_c, 4, 52, 127
2, 251274, Note_on_c, 10, 45, 127
2, 251274, Note_on_c, 6, 78, 127
2, 251430, Note_off_c, 10, 45, 127
2, 251433, Note_on_c, 0, 48, 127
2, 251571, Note_off_c, 6, 78, 127
2, 251589, Note_off_c, 0, 48, 127
2, 251591, Note_on_c, 6, 54, 127
2, 251591, Note_on_c, 10, 81, 127
2, 251747, Note_off_c, 10, 81, 127
2, 251747, Note_off_c, 6, 54, 127
2, 251750, Note_on_c, 10, 57, 127
2, 251750, Note_on_c, 0, 72, 127
2, 251906, Note_off_c, 0, 72, 127
2, 251906, Note_off_c, 10, 57, 127
2, 251909, Note_on_c, 12, 59, 127
2, 251909, Note_on_c, 2, 74, 127
2, 252065, Note_off_c, 12, 59, 127
2, 252067, Note_on_c, 7, 55, 127
2, 252206, Note_off_c, 2, 74, 127
2, 252223, Note_off_c, 7, 55, 127
2, 252226, Note_on_c, 2, 50, 127
2, 252226, Note_on_c, 12, 71, 127
2, 252382, Note_off_c, 12, 71, 127
2, 252382, Note_off_c, 2, 50, 127
2, 252385, Note_on_c, 7, 55, 127
2, 252385, Note_on_c, 2, 74, 127
2, 252541, Note_off_c, 2, 74, 127
2, 252541, Note_off_c, 7, 55, 127
2, 252543, Note_on_c, 12, 47, 127
2, 252543, Note_on_c, 7, 79, 127
2, 252699, Note_off_c, 12, 47, 127
2, 252702, Note_on_c, 2, 50, 127
2, 252840, Note_off_c, 7, 79, 127
2, 252858, Note_off_c, 2, 50, 127
2, 252861, Note_on_c, 7, 55, 127
2, 252861, Note_on_c, 12, 83, 127
2, 253017, Note_off_c, 12, 83, 127
2, 253017, Note_off_c, 7, 55, 127
2, 253019, Note_on_c, 12, 59, 127
2, 253019, Note_on_c, 7, 79, 127
2, 253175, Note_off_c, 7, 79, 127
2, 253175, Note_off_c, 12, 59, 127
2, 253178, Note_on_c, 2, 62, 127
2, 253178, Note_on_c, 10, 81, 127
2, 253334, Note_off_c, 10, 81, 127
2, 253334, Note_off_c, 2, 62, 127
2, 253337, Note_on_c, 4, 64, 127
2, 253337, Note_on_c, 7, 79, 127
2, 253493, Note_off_c, 7, 79, 127
2, 253493, Note_off_c, 4, 64, 127
2, 253495, Note_on_c, 2, 62, 127
2, 253495, Note_on_c, 6, 78, 127
2, 253651, Note_off_c, 6, 78, 127
2, 253651, Note_off_c, 2, 62, 127
2, 253654, Note_on_c, 0, 60, 127
2, 253654, Note_on_c, 4, 76, 127
2, 253810, Note_off_c, 4, 76, 127
2, 253810, Note_off_c, 0, 60, 127
2, 253813, Note_on_c, 12, 59, 127
2, 253813, Note_on_c, 2, 74, 127
2, 253969, Note_off_c, 12, 59, 127
2, 253971, Note_on_c, 2, 62, 127
2, 254127, Note_off_c, 2, 62, 127
2, 254128, Note_off_c, 2, 74, 127
2, 254130, Note_on_c, 12, 59, 127
2, 254130, Note_on_c, 7, 79, 127
2, 254286, Note_off_c, 7, 79, 127
2, 254286, Note_off_c, 12, 59, 127
2, 254289, Note_on_c, 7, 55, 127
2, 254289, Note_on_c, 2, 74, 127
2, 254445, Note_off_c, 2, 74, 127
2, 254445, Note_off_c, 7, 55, 127
2, 254447, Note_on_c, 0, 48, 127
2, 254447, Note_on_c, 4, 76, 127
2, 254603, Note_off_c, 0, 48, 127
2, 254606, Note_on_c, 4, 52, 127
2, 254744, Note_off_c, 4, 76, 127
2, 254762, Note_off_c, 4, 52, 127
2, 254764, Note_on_c, 6, 54, 127
2, 254764, Note_on_c, 10, 69, 127
2, 254920, Note_off_c, 10, 69, 127
2, 254920, Note_off_c, 6, 54, 127
2, 254923, Note_on_c, 10, 57, 127
2, 254923, Note_on_c, 0, 72, 127
2, 255079, Note_off_c, 0, 72, 127
2, 255079, Note_off_c, 10, 57, 127
2, 255082, Note_on_c, 12, 47, 127
2, 255082, Note_on_c, 2, 74, 127
2, 255238, Note_off_c, 12, 47, 127
2, 255240, Note_on_c, 2, 50, 127
2, 255379, Note_off_c, 2, 74, 127
2, 255396, Note_off_c, 2, 50, 127
2, 255399, Note_on_c, 7, 55, 127
2, 255399, Note_on_c, 4, 64, 127
2, 255555, Note_off_c, 4, 64, 127
2, 255558, Note_on_c, 7, 67, 127
2, 255714, Note_off_c, 7, 67, 127
2, 255714, Note_off_c, 7, 55, 127
2, 255716, Note_on_c, 10, 45, 127
2, 255716, Note_on_c, 0, 72, 127
2, 255872, Note_off_c, 10, 45, 127
2, 255875, Note_on_c, 0, 48, 127
2, 256013, Note_off_c, 0, 72, 127
2, 256031, Note_off_c, 0, 48, 127
2, 256034, Note_on_c, 2, 50, 127
2, 256034, Note_on_c, 6, 66, 127
2, 256190, Note_off_c, 6, 66, 127
2, 256190, Note_off_c, 2, 50, 127
2, 256192, Note_on_c, 6, 54, 127
2, 256192, Note_on_c, 10, 69, 127
2, 256348, Note_off_c, 10, 69, 127
2, 256348, Note_off_c, 6, 54, 127
2, 256351, Note_on_c, 12, 71, 127
2, 256351, Note_on_c, 7, 55, 127
2, 256511, Note_off_c, 7, 55, 127
2, 256513, Note_on_c, 2, 50, 127
2, 256656, Note_off_c, 12, 71, 127
2, 256673, Note_off_c, 2, 50, 127
2, 256677, Note_on_c, 12, 47, 127
2, 256677, Note_on_c, 7, 67, 127
2, 256840, Note_off_c, 7, 67, 127
2, 256840, Note_off_c, 12, 47, 127
2, 256844, Note_on_c, 2, 50, 127
2, 256844, Note_on_c, 12, 71, 127
2, 257007, Note_off_c, 12, 71, 127
2, 257007, Note_off_c, 2, 50, 127
2, 257012, Note_on_c, 2, 74, 127
2, 257012, Note_on_c, 7, 55, 127
2, 257179, Note_off_c, 7, 55, 127
2, 257179, Note_off_c, 2, 74, 127
2, 257184, Note_on_c, 12, 71, 127
2, 257184, Note_on_c, 2, 50, 127
2, 257351, Note_off_c, 2, 50, 127
2, 257351, Note_off_c, 12, 71, 127
2, 257358, Note_on_c, 12, 47, 127
2, 257358, Note_on_c, 7, 79, 127
2, 257530, Note_off_c, 12, 47, 127
2, 257535, Note_on_c, 7, 43, 127
2, 257707, Note_off_c, 7, 43, 127
2, 257710, Note_off_c, 7, 79, 127
2, 257715, Note_on_c, 0, 72, 127
2, 257715, Note_on_c, 2, 50, 127
2, 257892, Note_off_c, 0, 72, 127
2, 257897, Note_on_c, 12, 71, 127
2, 258074, Note_off_c, 12, 71, 127
2, 258077, Note_off_c, 2, 50, 127
2, 258083, Note_on_c, 10, 69, 127
2, 258083, Note_on_c, 2, 38, 127
2, 258268, Note_off_c, 10, 69, 127
2, 258271, Note_on_c, 7, 67, 127
2, 258456, Note_off_c, 7, 67, 127
2, 258462, Note_off_c, 2, 38, 127
2, 258477, Note_on_c, 7, 43, 127
2, 258477, Note_on_c, 7, 67, 127
2, 260677, Note_off_c, 7, 67, 127
2, 260677, Note_off_c, 7, 43, 127
2, 262167, Note_on_c, 2, 74, 127
2, 262320, Note_off_c, 2, 74, 127
2, 262320, Note_on_c, 12, 71, 127
2, 262701, Note_on_c, 10, 69, 127
2, 262704, Note_off_c, 12, 71, 127
2, 262854, Note_off_c, 10, 69, 127
2, 262864, Note_on_c, 7, 67, 127
2, 263557, Note_on_c, 2, 62, 127
2, 263710, Note_off_c, 2, 62, 127
2, 263711, Note_on_c, 12, 59, 127
2, 264095, Note_off_c, 12, 59, 127
2, 264095, Note_on_c, 10, 57, 127
2, 264248, Note_off_c, 10, 57, 127
2, 264249, Note_on_c, 7, 55, 127
2, 264707, Note_off_c, 7, 67, 127
2, 264922, Note_off_c, 7, 55, 127
2, 264942, Note_on_c, 6, 54, 127
2, 264942, Note_on_c, 10, 69, 127
2, 265170, Note_off_c, 10, 69, 127
2, 265170, Note_off_c, 6, 54, 127
2, 265172, Note_on_c, 7, 55, 127
2, 265172, Note_on_c, 12, 71, 127
2, 265285, Note_off_c, 7, 55, 127
2, 265288, Note_on_c, 12, 59, 127
2, 265401, Note_off_c, 12, 59, 127
2, 265403, Note_on_c, 2, 62, 127
2, 265516, Note_off_c, 2, 62, 127
2, 265518, Note_on_c, 7, 67, 127
2, 265631, Note_off_c, 7, 67, 127
2, 265631, Note_off_c, 12, 71, 127
2, 265633, Note_on_c, 6, 66, 127
2, 265633, Note_on_c, 10, 69, 127
2, 266326, Note_on_c, 10, 45, 127
2, 266479, Note_off_c, 10, 45, 127
2, 266480, Note_on_c, 6, 42, 127
2, 266849, Note_off_c, 6, 42, 127
2, 266864, Note_on_c, 4, 40, 127
2, 267017, Note_off_c, 4, 40, 127
2, 267018, Note_on_c, 2, 38, 127
2, 267691, Note_off_c, 2, 38, 127
2, 267707, Note_off_c, 10, 69, 127
2, 267707, Note_off_c, 6, 66, 127
2, 267709, Note_on_c, 2, 50, 127
2, 267709, Note_on_c, 7, 67, 127
2, 267709, Note_on_c, 12, 71, 127
2, 267937, Note_off_c, 12, 71, 127
2, 267937, Note_off_c, 7, 67, 127
2, 267937, Note_off_c, 2, 50, 127
2, 267940, Note_on_c, 0, 48, 127
2, 267940, Note_on_c, 10, 69, 127
2, 267940, Note_on_c, 0, 72, 127
2, 268399, Note_off_c, 0, 72, 127
2, 268399, Note_off_c, 10, 69, 127
2, 268399, Note_off_c, 0, 48, 127
2, 268400, Note_on_c, 12, 47, 127
2, 268400, Note_on_c, 2, 74, 127
2, 268859, Note_off_c, 12, 47, 127
2, 268861, Note_on_c, 4, 52, 127
2, 268861, Note_on_c, 7, 67, 127
2, 269073, Note_off_c, 2, 74, 127
2, 269094, Note_on_c, 7, 79, 127
2, 269321, Note_off_c, 4, 52, 127
2, 269322, Note_off_c, 7, 79, 127
2, 269324, Note_on_c, 0, 48, 127
2, 269324, Note_on_c, 4, 76, 127
2, 269783, Note_off_c, 4, 76, 127
2, 269783, Note_off_c, 0, 48, 127
2, 269785, Note_on_c, 10, 45, 127
2, 269785, Note_on_c, 2, 74, 127
2, 269898, Note_off_c, 2, 74, 127
2, 269900, Note_on_c, 0, 72, 127
2, 270013, Note_off_c, 0, 72, 127
2, 270013, Note_off_c, 10, 45, 127
2, 270015, Note_on_c, 0, 48, 127
2, 270015, Note_on_c, 2, 74, 127
2, 270128, Note_off_c, 2, 74, 127
2, 270131, Note_on_c, 0, 72, 127
2, 270243, Note_off_c, 0, 48, 127
2, 270243, Note_off_c, 7, 67, 127
2, 270246, Note_on_c, 12, 47, 127
2, 270246, Note_on_c, 6, 66, 127
2, 270466, Note_off_c, 0, 72, 127
2, 270473, Note_off_c, 12, 47, 127
2, 270475, Note_on_c, 10, 45, 127
2, 270475, Note_on_c, 12, 71, 127
2, 270703, Note_off_c, 12, 71, 127
2, 270703, Note_off_c, 10, 45, 127
2, 270705, Note_on_c, 2, 50, 127
2, 270705, Note_on_c, 0, 72, 127
2, 270933, Note_off_c, 0, 72, 127
2, 270933, Note_off_c, 2, 50, 127
2, 270936, Note_on_c, 2, 38, 127
2, 270936, Note_on_c, 10, 69, 127
2, 271156, Note_off_c, 6, 66, 127
2, 271163, Note_off_c, 10, 69, 127
2, 271163, Note_off_c, 2, 38, 127
2, 271164, Note_on_c, 7, 43, 127
2, 271164, Note_on_c, 7, 67, 127
2, 271164, Note_on_c, 0, 72, 127
2, 271277, Note_off_c, 0, 72, 127
2, 271280, Note_on_c, 12, 71, 127
2, 271393, Note_off_c, 12, 71, 127
2, 271395, Note_on_c, 0, 72, 127
2, 271508, Note_off_c, 0, 72, 127
2, 271510, Note_on_c, 12, 71, 127
2, 271623, Note_off_c, 12, 71, 127
2, 271623, Note_off_c, 7, 43, 127
2, 271625, Note_on_c, 12, 47, 127
2, 271625, Note_on_c, 0, 72, 127
2, 271738, Note_off_c, 0, 72, 127
2, 271740, Note_on_c, 12, 71, 127
2, 271853, Note_off_c, 12, 71, 127
2, 271856, Note_on_c, 10, 69, 127
2, 272075, Note_off_c, 7, 67, 127
2, 272082, Note_off_c, 12, 47, 127
2, 272083, Note_off_c, 10, 69, 127
2, 272084, Note_on_c, 2, 50, 127
2, 272084, Note_on_c, 7, 67, 127
2, 272543, Note_off_c, 7, 67, 127
2, 272543, Note_off_c, 2, 50, 127
2, 272545, Note_on_c, 7, 55, 127
2, 272545, Note_on_c, 2, 62, 127
2, 272545, Note_on_c, 7, 67, 127
2, 272545, Note_on_c, 12, 59, 127
2, 273004, Note_off_c, 12, 59, 127
2, 273004, Note_off_c, 2, 62, 127
2, 273218, Note_off_c, 7, 67, 127
2, 273238, Note_on_c, 12, 71, 127
2, 273458, Note_off_c, 7, 55, 127
2, 273465, Note_off_c, 12, 71, 127
2, 273467, Note_on_c, 2, 74, 127
2, 273926, Note_off_c, 2, 74, 127
2, 273928, Note_on_c, 7, 79, 127
2, 274041, Note_off_c, 7, 79, 127
2, 274043, Note_on_c, 7, 43, 127
2, 274043, Note_on_c, 6, 78, 127
2, 274156, Note_off_c, 6, 78, 127
2, 274156, Note_off_c, 7, 43, 127
2, 274159, Note_on_c, 10, 45, 127
2, 274159, Note_on_c, 7, 79, 127
2, 274272, Note_off_c, 10, 45, 127
2, 274274, Note_on_c, 12, 47, 127
2, 274387, Note_off_c, 12, 47, 127
2, 274389, Note_on_c, 0, 48, 127
2, 274502, Note_off_c, 0, 48, 127
2, 274504, Note_on_c, 2, 50, 127
2, 274617, Note_off_c, 2, 50, 127
2, 274618, Note_off_c, 7, 79, 127
2, 274620, Note_on_c, 4, 52, 127
2, 274620, Note_on_c, 10, 81, 127
2, 274733, Note_off_c, 4, 52, 127
2, 274735, Note_on_c, 6, 54, 127
2, 274848, Note_off_c, 6, 54, 127
2, 274848, Note_off_c, 10, 81, 127
2, 274850, Note_on_c, 7, 55, 127
2, 274850, Note_on_c, 12, 83, 127
2, 274963, Note_off_c, 7, 55, 127
2, 274965, Note_on_c, 12, 59, 127
2, 275078, Note_off_c, 12, 59, 127
2, 275080, Note_on_c, 10, 57, 127
2, 275193, Note_off_c, 10, 57, 127
2, 275196, Note_on_c, 7, 55, 127
2, 275309, Note_off_c, 7, 55, 127
2, 275309, Note_off_c, 12, 83, 127
2, 275311, Note_on_c, 7, 55, 127
2, 275311, Note_on_c, 2, 74, 127
2, 275311, Note_on_c, 10, 69, 127
2, 275311, Note_on_c, 4, 64, 127
2, 275539, Note_off_c, 2, 74, 127
2, 275541, Note_on_c, 1, 73, 127
2, 275885, Note_off_c, 7, 55, 127
2, 275887, Note_on_c, 12, 59, 127
2, 276000, Note_off_c, 12, 59, 127
2, 276000, Note_off_c, 1, 73, 127
2, 276002, Note_on_c, 10, 57, 127
2, 276002, Note_on_c, 4, 76, 127
2, 276115, Note_off_c, 10, 57, 127
2, 276118, Note_on_c, 7, 55, 127
2, 276222, Note_off_c, 4, 64, 127
2, 276222, Note_off_c, 10, 69, 127
2, 276229, Note_off_c, 7, 55, 127
2, 276229, Note_off_c, 4, 76, 127
2, 276231, Note_on_c, 6, 54, 127
2, 276231, Note_on_c, 10, 81, 127
2, 276344, Note_off_c, 6, 54, 127
2, 276346, Note_on_c, 7, 55, 127
2, 276459, Note_off_c, 7, 55, 127
2, 276462, Note_on_c, 4, 52, 127
2, 276690, Note_off_c, 4, 52, 127
2, 276690, Note_off_c, 10, 81, 127
2, 276692, Note_on_c, 6, 54, 127
2, 276692, Note_on_c, 3, 75, 127
2, 276805, Note_off_c, 3, 75, 127
2, 276807, Note_on_c, 4, 76, 127
2, 276920, Note_off_c, 4, 76, 127
2, 276922, Note_on_c, 6, 78, 127
2, 277035, Note_off_c, 6, 78, 127
2, 277038, Note_on_c, 7, 79, 127
2, 277151, Note_off_c, 7, 79, 127
2, 277151, Note_off_c, 6, 54, 127
2, 277153, Note_on_c, 3, 51, 127
2, 277153, Note_on_c, 10, 81, 127
2, 277266, Note_off_c, 10, 81, 127
2, 277268, Note_on_c, 0, 84, 127
2, 277381, Note_off_c, 0, 84, 127
2, 277383, Note_on_c, 12, 83, 127
2, 277496, Note_off_c, 12, 83, 127
2, 277499, Note_on_c, 10, 81, 127
2, 277612, Note_off_c, 10, 81, 127
2, 277612, Note_off_c, 3, 51, 127
2, 277614, Note_on_c, 12, 47, 127
2, 277614, Note_on_c, 7, 79, 127
2, 277727, Note_off_c, 7, 79, 127
2, 277729, Note_on_c, 10, 81, 127
2, 277842, Note_off_c, 10, 81, 127
2, 277844, Note_on_c, 6, 78, 127
2, 278072, Note_off_c, 6, 78, 127
2, 278075, Note_on_c, 7, 79, 127
2, 278094, Note_off_c, 12, 47, 127
2, 278192, Note_on_c, 4, 52, 127
2, 278305, Note_off_c, 4, 52, 127
2, 278307, Note_on_c, 7, 55, 127
2, 278420, Note_off_c, 7, 55, 127
2, 278422, Note_on_c, 6, 54, 127
2, 278535, Note_off_c, 6, 54, 127
2, 278537, Note_on_c, 4, 52, 127
2, 278650, Note_off_c, 4, 52, 127
2, 278653, Note_on_c, 2, 50, 127
2, 278766, Note_off_c, 2, 50, 127
2, 278768, Note_on_c, 1, 49, 127
2, 278768, Note_on_c, 4, 76, 127
2, 278881, Note_off_c, 1, 49, 127
2, 278883, Note_on_c, 2, 50, 127
2, 278996, Note_off_c, 2, 50, 127
2, 278996, Note_off_c, 4, 76, 127
2, 278998, Note_on_c, 4, 52, 127
2, 278998, Note_on_c, 1, 73, 127
2, 279111, Note_off_c, 4, 52, 127
2, 279114, Note_on_c, 1, 49, 127
2, 279227, Note_off_c, 1, 49, 127
2, 279229, Note_on_c, 2, 50, 127
2, 279342, Note_off_c, 2, 50, 127
2, 279344, Note_on_c, 4, 52, 127
2, 279457, Note_off_c, 4, 52, 127
2, 279457, Note_off_c, 1, 73, 127
2, 279459, Note_on_c, 6, 42, 127
2, 279459, Note_on_c, 12, 71, 127
2, 279687, Note_off_c, 12, 71, 127
2, 279690, Note_on_c, 10, 69, 127
2, 280033, Note_off_c, 6, 42, 127
2, 280035, Note_on_c, 12, 47, 127
2, 280140, Note_off_c, 7, 79, 127
2, 280146, Note_off_c, 12, 47, 127
2, 280149, Note_on_c, 1, 49, 127
2, 280149, Note_on_c, 4, 76, 127
2, 280377, Note_off_c, 4, 76, 127
2, 280377, Note_off_c, 1, 49, 127
2, 280379, Note_on_c, 2, 50, 127
2, 280379, Note_on_c, 6, 78, 127
2, 280607, Note_off_c, 2, 50, 127
2, 280610, Note_on_c, 4, 52, 127
2, 280838, Note_off_c, 4, 52, 127
2, 280838, Note_off_c, 6, 78, 127
2, 280840, Note_off_c, 10, 69, 127
2, 280840, Note_on_c, 6, 54, 127
2, 280840, Note_on_c, 10, 69, 127
2, 280840, Note_on_c, 7, 67, 127
2, 281177, Note_off_c, 7, 67, 127
2, 281177, Note_off_c, 10, 69, 127
2, 281299, Note_off_c, 6, 54, 127
2, 281301, Note_on_c, 7, 43, 127
2, 281301, Note_on_c, 6, 66, 127
2, 281301, Note_on_c, 12, 71, 127
2, 281638, Note_off_c, 12, 71, 127
2, 281638, Note_off_c, 6, 66, 127
2, 281760, Note_off_c, 7, 43, 127
2, 281762, Note_on_c, 10, 45, 127
2, 281762, Note_on_c, 1, 73, 127
2, 281762, Note_on_c, 4, 64, 127
2, 282099, Note_off_c, 4, 64, 127
2, 282099, Note_off_c, 1, 73, 127
2, 282221, Note_off_c, 10, 45, 127
2, 282223, Note_on_c, 2, 50, 127
2, 282223, Note_on_c, 6, 66, 127
2, 282223, Note_on_c, 2, 74, 127
2, 282223, Note_on_c, 10, 69, 127
2, 282847, Note_off_c, 2, 50, 127
2, 282914, Note_on_c, 10, 45, 127
2, 283106, Note_off_c, 10, 45, 127
2, 283106, Note_on_c, 6, 42, 127
2, 283607, Note_on_c, 2, 38, 127
2, 283612, Note_off_c, 6, 42, 127
2, 284066, Note_off_c, 10, 69, 127
2, 284066, Note_off_c, 2, 74, 127
2, 284066, Note_off_c, 6, 66, 127
2, 284301, Note_on_c, 10, 81, 127
2, 284454, Note_off_c, 10, 81, 127
2, 284454, Note_on_c, 6, 78, 127
2, 284520, Note_off_c, 2, 38, 127
2, 284913, Note_off_c, 6, 78, 127
2, 284915, Note_on_c, 4, 76, 127
2, 285134, Note_on_c, 2, 74, 127
2, 285143, Note_off_c, 4, 76, 127
2, 285685, Note_on_c, 10, 69, 127
2, 285865, Note_on_c, 6, 66, 127
2, 285888, Note_off_c, 10, 69, 127
2, 286350, Note_on_c, 0, 60, 127
2, 286977, Note_off_c, 2, 74, 127
2, 287017, Note_off_c, 6, 66, 127
2, 287068, Note_on_c, 7, 67, 127
2, 287068, Note_on_c, 4, 76, 127
2, 287260, Note_off_c, 4, 76, 127
2, 287260, Note_off_c, 7, 67, 127
2, 287265, Note_on_c, 10, 69, 127
2, 287265, Note_on_c, 6, 78, 127
2, 287731, Note_off_c, 0, 60, 127
2, 287745, Note_off_c, 6, 78, 127
2, 287745, Note_off_c, 10, 69, 127
2, 287761, Note_on_c, 2, 62, 127
2, 287761, Note_on_c, 12, 59, 127
2, 287761, Note_on_c, 7, 79, 127
2, 287991, Note_on_c, 2, 74, 127
2, 288222, Note_on_c, 12, 71, 127
2, 288450, Note_off_c, 12, 59, 127
2, 288450, Note_off_c, 2, 62, 127
2, 288452, Note_on_c, 2, 62, 127
2, 288452, Note_on_c, 7, 67, 127
2, 288680, Note_off_c, 2, 62, 127
2, 288683, Note_on_c, 12, 59, 127
2, 289144, Note_on_c, 5, 53, 127
2, 289826, Note_off_c, 7, 79, 127
2, 289833, Note_off_c, 7, 67, 127
2, 289833, Note_off_c, 12, 71, 127
2, 289833, Note_off_c, 2, 74, 127
2, 289835, Note_off_c, 12, 59, 127
2, 289835, Note_on_c, 0, 60, 127
2, 289835, Note_on_c, 10, 81, 127
2, 290063, Note_off_c, 10, 81, 127
2, 290063, Note_off_c, 0, 60, 127
2, 290065, Note_on_c, 2, 62, 127
2, 290065, Note_on_c, 12, 83, 127
2, 290522, Note_off_c, 2, 62, 127
2, 290524, Note_off_c, 12, 83, 127
2, 290525, Note_off_c, 5, 53, 127
2, 290526, Note_on_c, 4, 52, 127
2, 290526, Note_on_c, 0, 84, 127
2, 290639, Note_off_c, 0, 84, 127
2, 290642, Note_on_c, 12, 83, 127
2, 290755, Note_off_c, 12, 83, 127
2, 290757, Note_on_c, 10, 81, 127
2, 290870, Note_off_c, 10, 81, 127
2, 290872, Note_on_c, 8, 80, 127
2, 290985, Note_off_c, 8, 80, 127
2, 290985, Note_off_c, 4, 52, 127
2, 290987, Note_on_c, 0, 60, 127
2, 290987, Note_on_c, 5, 53, 127
2, 290987, Note_on_c, 10, 81, 127
2, 291331, Note_off_c, 10, 81, 127
2, 291333, Note_on_c, 4, 76, 127
2, 291446, Note_off_c, 4, 76, 127
2, 291446, Note_off_c, 5, 53, 127
2, 291446, Note_off_c, 0, 60, 127
2, 291448, Note_on_c, 12, 59, 127
2, 291448, Note_on_c, 2, 50, 127
2, 291448, Note_on_c, 5, 77, 127
2, 291448, Note_on_c, 10, 69, 127
2, 291907, Note_off_c, 5, 77, 127
2, 291907, Note_off_c, 2, 50, 127
2, 291909, Note_on_c, 4, 52, 127
2, 291909, Note_on_c, 0, 72, 127
2, 292137, Note_off_c, 0, 72, 127
2, 292140, Note_on_c, 12, 71, 127
2, 292359, Note_off_c, 12, 59, 127
2, 292370, Note_on_c, 12, 59, 127
2, 292599, Note_off_c, 12, 71, 127
2, 292600, Note_on_c, 5, 77, 127
2, 292828, Note_off_c, 5, 77, 127
2, 292829, Note_off_c, 12, 59, 127
2, 292829, Note_off_c, 10, 69, 127
2, 292831, Note_on_c, 4, 64, 127
2, 292831, Note_on_c, 4, 76, 127
2, 292831, Note_on_c, 8, 68, 127
2, 293290, Note_off_c, 8, 68, 127
2, 293290, Note_off_c, 4, 76, 127
2, 293290, Note_off_c, 4, 64, 127
2, 293290, Note_off_c, 4, 52, 127
2, 293292, Note_on_c, 10, 57, 127
2, 293292, Note_on_c, 2, 74, 127
2, 293292, Note_on_c, 10, 69, 127
2, 293405, Note_off_c, 2, 74, 127
2, 293407, Note_on_c, 0, 72, 127
2, 293520, Note_off_c, 0, 72, 127
2, 293522, Note_on_c, 2, 74, 127
2, 293635, Note_off_c, 2, 74, 127
2, 293638, Note_on_c, 0, 72, 127
2, 293751, Note_off_c, 0, 72, 127
2, 293753, Note_on_c, 4, 52, 127
2, 293753, Note_on_c, 2, 74, 127
2, 293866, Note_off_c, 2, 74, 127
2, 293868, Note_on_c, 0, 72, 127
2, 293981, Note_off_c, 0, 72, 127
2, 293983, Note_on_c, 12, 71, 127
2, 294203, Note_off_c, 10, 69, 127
2, 294210, Note_off_c, 12, 71, 127
2, 294210, Note_off_c, 4, 52, 127
2, 294212, Note_on_c, 0, 48, 127
2, 294212, Note_on_c, 10, 69, 127
2, 294671, Note_off_c, 10, 69, 127
2, 294671, Note_off_c, 0, 48, 127
2, 294671, Note_off_c, 10, 57, 127
2, 294673, Note_on_c, 10, 45, 127
2, 294673, Note_on_c, 10, 69, 127
2, 295132, Note_off_c, 10, 45, 127
2, 295133, Note_off_c, 10, 69, 127
2, 295134, Note_on_c, 12, 47, 127
2, 295249, Note_on_c, 0, 72, 127
2, 295362, Note_off_c, 0, 72, 127
2, 295364, Note_on_c, 12, 71, 127
2, 295477, Note_off_c, 12, 71, 127
2, 295480, Note_on_c, 10, 69, 127
2, 295593, Note_off_c, 10, 69, 127
2, 295593, Note_off_c, 12, 47, 127
2, 295595, Note_on_c, 0, 48, 127
2, 295595, Note_on_c, 4, 76, 127
2, 296054, Note_off_c, 4, 76, 127
2, 296054, Note_off_c, 0, 48, 127
2, 296056, Note_on_c, 2, 38, 127
2, 296056, Note_on_c, 6, 66, 127
2, 296284, Note_off_c, 2, 38, 127
2, 296286, Note_on_c, 10, 45, 127
2, 296514, Note_off_c, 10, 45, 127
2, 296517, Note_on_c, 2, 50, 127
2, 296745, Note_off_c, 2, 50, 127
2, 296745, Note_off_c, 6, 66, 127
2, 296747, Note_on_c, 4, 52, 127
2, 296747, Note_on_c, 10, 69, 127
2, 296860, Note_off_c, 4, 52, 127
2, 296862, Note_on_c, 6, 54, 127
2, 296975, Note_off_c, 6, 54, 127
2, 296975, Note_off_c, 10, 69, 127
2, 296978, Note_on_c, 4, 52, 127
2, 296978, Note_on_c, 0, 72, 127
2, 297208, Note_on_c, 6, 54, 127
2, 297321, Note_off_c, 6, 54, 127
2, 297323, Note_on_c, 7, 55, 127
2, 297433, Note_off_c, 4, 52, 127
2, 297434, Note_off_c, 7, 55, 127
2, 297437, Note_on_c, 6, 54, 127
2, 297437, Note_on_c, 2, 62, 127
2, 297665, Note_off_c, 6, 54, 127
2, 297667, Note_on_c, 7, 55, 127
2, 297780, Note_off_c, 7, 55, 127
2, 297782, Note_on_c, 10, 57, 127
2, 297895, Note_off_c, 10, 57, 127
2, 297898, Note_on_c, 12, 47, 127
2, 298011, Note_off_c, 2, 62, 127
2, 298013, Note_on_c, 6, 66, 127
2, 298126, Note_off_c, 6, 66, 127
2, 298126, Note_off_c, 12, 47, 127
2, 298128, Note_on_c, 2, 50, 127
2, 298128, Note_on_c, 4, 64, 127
2, 298241, Note_off_c, 4, 64, 127
2, 298243, Note_on_c, 2, 62, 127
2, 298356, Note_off_c, 2, 62, 127
2, 298356, Note_off_c, 2, 50, 127
2, 298357, Note_off_c, 0, 72, 127
2, 298359, Note_on_c, 7, 55, 127
2, 298359, Note_on_c, 12, 71, 127
2, 298589, Note_on_c, 12, 59, 127
2, 298817, Note_off_c, 12, 59, 127
2, 298818, Note_off_c, 12, 71, 127
2, 298820, Note_on_c, 0, 60, 127
2, 298820, Note_on_c, 10, 69, 127
2, 299032, Note_off_c, 7, 55, 127
2, 299052, Note_on_c, 7, 55, 127
2, 299277, Note_off_c, 0, 60, 127
2, 299279, Note_off_c, 7, 55, 127
2, 299280, Note_on_c, 6, 54, 127
2, 299508, Note_off_c, 6, 54, 127
2, 299509, Note_off_c, 10, 69, 127
2, 299511, Note_on_c, 4, 52, 127
2, 299511, Note_on_c, 4, 76, 127
2, 299739, Note_off_c, 4, 76, 127
2, 299739, Note_off_c, 4, 52, 127
2, 299741, Note_on_c, 3, 51, 127
2, 299741, Note_on_c, 10, 81, 127
2, 299969, Note_off_c, 3, 51, 127
2, 299972, Note_on_c, 4, 52, 127
2, 300200, Note_off_c, 4, 52, 127
2, 300202, Note_on_c, 3, 51, 127
2, 300202, Note_on_c, 12, 71, 127
2, 300430, Note_off_c, 3, 51, 127
2, 300433, Note_on_c, 4, 52, 127
2, 300546, Note_off_c, 4, 52, 127
2, 300548, Note_on_c, 6, 54, 127
2, 300661, Note_off_c, 6, 54, 127
2, 300663, Note_on_c, 12, 47, 127
2, 300759, Note_off_c, 10, 81, 127
2, 300780, Note_on_c, 10, 81, 127
2, 300893, Note_off_c, 10, 81, 127
2, 300893, Note_off_c, 12, 47, 127
2, 300895, Note_on_c, 3, 51, 127
2, 300895, Note_on_c, 7, 79, 127
2, 301008, Note_off_c, 7, 79, 127
2, 301011, Note_on_c, 6, 78, 127
2, 301123, Note_off_c, 3, 51, 127
2, 301124, Note_off_c, 6, 78, 127
2, 301126, Note_on_c, 4, 52, 127
2, 301126, Note_on_c, 7, 79, 127
2, 301354, Note_off_c, 4, 52, 127
2, 301356, Note_on_c, 6, 54, 127
2, 301469, Note_off_c, 6, 54, 127
2, 301471, Note_on_c, 7, 55, 127
2, 301584, Note_off_c, 7, 55, 127
2, 301584, Note_off_c, 12, 71, 127
2, 301585, Note_off_c, 7, 79, 127
2, 301587, Note_on_c, 10, 57, 127
2, 301587, Note_on_c, 0, 72, 127
2, 301700, Note_off_c, 0, 72, 127
2, 301702, Note_on_c, 12, 71, 127
2, 301815, Note_off_c, 12, 71, 127
2, 301817, Note_on_c, 10, 69, 127
2, 301930, Note_off_c, 10, 69, 127
2, 301932, Note_on_c, 7, 67, 127
2, 302045, Note_off_c, 7, 67, 127
2, 302048, Note_on_c, 6, 66, 127
2, 302161, Note_off_c, 6, 66, 127
2, 302163, Note_on_c, 4, 76, 127
2, 302276, Note_off_c, 4, 76, 127
2, 302278, Note_on_c, 6, 54, 127
2, 302278, Note_on_c, 2, 74, 127
2, 302391, Note_off_c, 2, 74, 127
2, 302393, Note_on_c, 0, 72, 127
2, 302506, Note_off_c, 0, 72, 127
2, 302506, Note_off_c, 6, 54, 127
2, 302509, Note_on_c, 0, 48, 127
2, 302509, Note_on_c, 2, 74, 127
2, 302846, Note_off_c, 2, 74, 127
2, 302968, Note_off_c, 0, 48, 127
2, 302969, Note_on_c, 12, 47, 127
2, 302969, Note_on_c, 0, 60, 127
2, 302969, Note_on_c, 2, 62, 127
2, 303306, Note_off_c, 2, 62, 127
2, 303306, Note_off_c, 0, 60, 127
2, 303428, Note_off_c, 12, 47, 127
2, 303429, Note_off_c, 10, 57, 127
2, 303430, Note_on_c, 0, 48, 127
2, 303430, Note_on_c, 7, 55, 127
2, 303430, Note_on_c, 12, 59, 127
2, 303430, Note_on_c, 4, 64, 127
2, 303767, Note_off_c, 4, 64, 127
2, 303767, Note_off_c, 12, 59, 127
2, 303889, Note_off_c, 7, 55, 127
2, 303889, Note_off_c, 0, 48, 127
2, 303891, Note_on_c, 2, 50, 127
2, 303891, Note_on_c, 10, 57, 127
2, 303891, Note_on_c, 6, 66, 127
2, 304228, Note_off_c, 6, 66, 127
2, 304228, Note_off_c, 10, 57, 127
2, 304350, Note_off_c, 2, 50, 127
2, 304352, Note_on_c, 7, 43, 127
2, 304352, Note_on_c, 12, 59, 127
2, 304352, Note_on_c, 7, 67, 127
2, 304352, Note_on_c, 2, 62, 127
2, 305041, Note_off_c, 7, 43, 127
2, 305044, Note_on_c, 12, 47, 127
2, 305272, Note_off_c, 12, 47, 127
2, 305274, Note_on_c, 2, 50, 127
2, 305733, Note_off_c, 2, 50, 127
2, 305735, Note_on_c, 7, 55, 127
2, 307115, Note_off_c, 2, 62, 127
2, 307115, Note_off_c, 7, 67, 127
2, 307115, Note_off_c, 12, 59, 127
2, 308135, Note_off_c, 7, 55, 127
2, 309182, Note_on_c, 2, 74, 127
2, 309312, Note_off_c, 2, 74, 127
2, 309314, Note_on_c, 7, 79, 127
2, 309444, Note_off_c, 7, 79, 127
2, 309446, Note_on_c, 12, 83, 127
2, 309576, Note_off_c, 12, 83, 127
2, 309578, Note_on_c, 6, 78, 127
2, 309708, Note_off_c, 6, 78, 127
2, 309712, Note_on_c, 7, 79, 127
2, 309842, Note_off_c, 7, 79, 127
2, 309844, Note_on_c, 12, 83, 127
2, 309974, Note_off_c, 12, 83, 127
2, 309976, Note_on_c, 2, 74, 127
2, 310106, Note_off_c, 2, 74, 127
2, 310109, Note_on_c, 7, 79, 127
2, 310239, Note_off_c, 7, 79, 127
2, 310241, Note_on_c, 12, 83, 127
2, 310371, Note_off_c, 12, 83, 127
2, 310373, Note_on_c, 6, 78, 127
2, 310503, Note_off_c, 6, 78, 127
2, 310505, Note_on_c, 7, 79, 127
2, 310635, Note_off_c, 7, 79, 127
2, 310638, Note_on_c, 12, 83, 127
2, 310768, Note_off_c, 12, 83, 127
2, 310770, Note_on_c, 2, 74, 127
2, 310900, Note_off_c, 2, 74, 127
2, 310902, Note_on_c, 4, 76, 127
2, 311032, Note_off_c, 4, 76, 127
2, 311034, Note_on_c, 0, 72, 127
2, 311164, Note_off_c, 0, 72, 127
2, 311167, Note_on_c, 7, 67, 127
2, 311297, Note_off_c, 7, 67, 127
2, 311299, Note_on_c, 7, 79, 127
2, 311494, Note_off_c, 7, 79, 127
2, 311562, Note_on_c, 0, 72, 127
2, 311692, Note_off_c, 0, 72, 127
2, 311695, Note_on_c, 2, 74, 127
2, 311825, Note_off_c, 2, 74, 127
2, 311828, Note_on_c, 12, 71, 127
2, 311958, Note_off_c, 12, 71, 127
2, 311960, Note_on_c, 7, 67, 127
2, 312090, Note_off_c, 7, 67, 127
2, 312092, Note_on_c, 7, 79, 127
2, 312287, Note_off_c, 7, 79, 127
2, 312355, Note_on_c, 12, 71, 127
2, 312485, Note_off_c, 12, 71, 127
2, 312487, Note_on_c, 0, 72, 127
2, 312617, Note_off_c, 0, 72, 127
2, 312620, Note_on_c, 2, 74, 127
2, 312750, Note_off_c, 2, 74, 127
2, 312752, Note_on_c, 4, 76, 127
2, 312882, Note_off_c, 4, 76, 127
2, 312884, Note_on_c, 2, 74, 127
2, 313014, Note_off_c, 2, 74, 127
2, 313016, Note_on_c, 4, 76, 127
2, 313146, Note_off_c, 4, 76, 127
2, 313149, Note_on_c, 0, 72, 127
2, 313279, Note_off_c, 0, 72, 127
2, 313281, Note_on_c, 12, 71, 127
2, 313411, Note_off_c, 12, 71, 127
2, 313413, Note_on_c, 2, 74, 127
2, 313543, Note_off_c, 2, 74, 127
2, 313545, Note_on_c, 7, 79, 127
2, 313675, Note_off_c, 7, 79, 127
2, 313678, Note_on_c, 12, 83, 127
2, 313808, Note_off_c, 12, 83, 127
2, 313811, Note_on_c, 10, 81, 127
2, 313941, Note_off_c, 10, 81, 127
2, 313943, Note_on_c, 7, 67, 127
2, 313943, Note_on_c, 7, 79, 127
2, 314073, Note_off_c, 7, 79, 127
2, 314073, Note_off_c, 7, 67, 127
2, 314076, Note_on_c, 10, 81, 127
2, 314076, Note_on_c, 2, 74, 127
2, 314206, Note_off_c, 2, 74, 127
2, 314208, Note_on_c, 6, 78, 127
2, 314338, Note_off_c, 6, 78, 127
2, 314338, Note_off_c, 10, 81, 127
2, 314340, Note_on_c, 10, 81, 127
2, 314340, Note_on_c, 1, 73, 127
2, 314470, Note_off_c, 1, 73, 127
2, 314470, Note_off_c, 10, 81, 127
2, 314472, Note_on_c, 2, 74, 127
2, 314472, Note_on_c, 10, 81, 127
2, 314602, Note_off_c, 2, 74, 127
2, 314605, Note_on_c, 6, 78, 127
2, 314734, Note_off_c, 10, 81, 127
2, 314735, Note_off_c, 6, 78, 127
2, 314737, Note_on_c, 10, 81, 127
2, 314737, Note_on_c, 10, 69, 127
2, 314867, Note_off_c, 10, 69, 127
2, 314867, Note_off_c, 10, 81, 127
2, 314869, Note_on_c, 10, 81, 127
2, 314869, Note_on_c, 2, 74, 127
2, 314999, Note_off_c, 2, 74, 127
2, 315002, Note_on_c, 6, 78, 127
2, 315131, Note_off_c, 10, 81, 127
2, 315132, Note_off_c, 6, 78, 127
2, 315134, Note_on_c, 10, 81, 127
2, 315134, Note_on_c, 1, 73, 127
2, 315264, Note_off_c, 1, 73, 127
2, 315264, Note_off_c, 10, 81, 127
2, 315266, Note_on_c, 2, 74, 127
2, 315266, Note_on_c, 10, 81, 127
2, 315396, Note_off_c, 2, 74, 127
2, 315398, Note_on_c, 6, 78, 127
2, 315528, Note_off_c, 6, 78, 127
2, 315528, Note_off_c, 10, 81, 127
2, 315531, Note_on_c, 10, 81, 127
2, 315531, Note_on_c, 10, 69, 127
2, 315661, Note_off_c, 10, 69, 127
2, 315661, Note_off_c, 10, 81, 127
2, 315663, Note_on_c, 2, 74, 127
2, 315663, Note_on_c, 12, 71, 127
2, 315793, Note_off_c, 12, 71, 127
2, 315793, Note_off_c, 2, 74, 127
2, 315795, Note_on_c, 7, 67, 127
2, 315795, Note_on_c, 7, 79, 127
2, 315925, Note_off_c, 7, 79, 127
2, 315925, Note_off_c, 7, 67, 127
2, 315928, Note_on_c, 2, 62, 127
2, 315928, Note_on_c, 12, 83, 127
2, 316058, Note_off_c, 12, 83, 127
2, 316058, Note_off_c, 2, 62, 127
2, 316061, Note_on_c, 2, 74, 127
2, 316061, Note_on_c, 12, 83, 127
2, 316191, Note_off_c, 12, 83, 127
2, 316193, Note_on_c, 7, 79, 127
2, 316257, Note_off_c, 2, 74, 127
2, 316325, Note_off_c, 7, 79, 127
2, 316327, Note_on_c, 7, 67, 127
2, 316327, Note_on_c, 2, 74, 127
2, 316457, Note_off_c, 2, 74, 127
2, 316457, Note_off_c, 7, 67, 127
2, 316459, Note_on_c, 10, 69, 127
2, 316459, Note_on_c, 2, 74, 127
2, 316589, Note_off_c, 2, 74, 127
2, 316589, Note_off_c, 10, 69, 127
2, 316592, Note_on_c, 6, 78, 127
2, 316592, Note_on_c, 6, 66, 127
2, 316722, Note_off_c, 6, 66, 127
2, 316722, Note_off_c, 6, 78, 127
2, 316724, Note_on_c, 2, 62, 127
2, 316724, Note_on_c, 10, 81, 127
2, 316854, Note_off_c, 10, 81, 127
2, 316854, Note_off_c, 2, 62, 127
2, 316856, Note_on_c, 2, 74, 127
2, 316856, Note_on_c, 10, 81, 127
2, 316986, Note_off_c, 10, 81, 127
2, 316988, Note_on_c, 6, 78, 127
2, 317052, Note_off_c, 2, 74, 127
2, 317120, Note_off_c, 6, 78, 127
2, 317122, Note_on_c, 6, 66, 127
2, 317122, Note_on_c, 2, 74, 127
2, 317252, Note_off_c, 2, 74, 127
2, 317252, Note_off_c, 6, 66, 127
2, 317255, Note_on_c, 7, 67, 127
2, 317255, Note_on_c, 2, 74, 127
2, 317385, Note_off_c, 7, 67, 127
2, 317387, Note_on_c, 10, 69, 127
2, 317517, Note_off_c, 10, 69, 127
2, 317519, Note_on_c, 12, 71, 127
2, 317646, Note_off_c, 2, 74, 127
2, 317649, Note_off_c, 12, 71, 127
2, 317651, Note_on_c, 10, 69, 127
2, 317651, Note_on_c, 1, 73, 127
2, 317781, Note_off_c, 10, 69, 127
2, 317784, Note_on_c, 12, 71, 127
2, 317914, Note_off_c, 12, 71, 127
2, 317916, Note_on_c, 7, 67, 127
2, 318042, Note_off_c, 1, 73, 127
2, 318046, Note_off_c, 7, 67, 127
2, 318048, Note_on_c, 6, 66, 127
2, 318048, Note_on_c, 2, 74, 127
2, 318178, Note_off_c, 6, 66, 127
2, 318181, Note_on_c, 10, 69, 127
2, 318311, Note_off_c, 10, 69, 127
2, 318313, Note_on_c, 0, 72, 127
2, 318439, Note_off_c, 2, 74, 127
2, 318443, Note_off_c, 0, 72, 127
2, 318445, Note_on_c, 4, 76, 127
2, 318445, Note_on_c, 6, 78, 127
2, 318575, Note_off_c, 4, 76, 127
2, 318578, Note_on_c, 2, 74, 127
2, 318708, Note_off_c, 2, 74, 127
2, 318711, Note_on_c, 2, 62, 127
2, 318711, Note_on_c, 0, 72, 127
2, 318836, Note_off_c, 6, 78, 127
2, 318841, Note_off_c, 0, 72, 127
2, 318841, Note_off_c, 2, 62, 127
2, 318843, Note_on_c, 7, 67, 127
2, 318843, Note_on_c, 12, 71, 127
2, 318843, Note_on_c, 7, 79, 127
2, 318973, Note_off_c, 12, 71, 127
2, 318973, Note_off_c, 7, 67, 127
2, 318975, Note_on_c, 12, 71, 127
2, 319105, Note_off_c, 12, 71, 127
2, 319105, Note_off_c, 7, 79, 127
2, 319108, Note_on_c, 6, 66, 127
2, 319108, Note_on_c, 10, 81, 127
2, 319108, Note_on_c, 2, 74, 127
2, 319238, Note_off_c, 2, 74, 127
2, 319238, Note_off_c, 10, 81, 127
2, 319238, Note_off_c, 6, 66, 127
2, 319240, Note_on_c, 7, 67, 127
2, 319240, Note_on_c, 2, 74, 127
2, 319240, Note_on_c, 12, 83, 127
2, 319370, Note_off_c, 7, 67, 127
2, 319372, Note_on_c, 12, 71, 127
2, 319502, Note_off_c, 12, 71, 127
2, 319502, Note_off_c, 12, 83, 127
2, 319502, Note_off_c, 2, 74, 127
2, 319504, Note_on_c, 2, 62, 127
2, 319504, Note_on_c, 2, 74, 127
2, 319504, Note_on_c, 0, 84, 127
2, 319634, Note_off_c, 0, 84, 127
2, 319634, Note_off_c, 2, 74, 127
2, 319634, Note_off_c, 2, 62, 127
2, 319637, Note_on_c, 7, 67, 127
2, 319637, Note_on_c, 2, 74, 127
2, 319637, Note_on_c, 12, 83, 127
2, 319767, Note_off_c, 7, 67, 127
2, 319769, Note_on_c, 12, 71, 127
2, 319899, Note_off_c, 12, 71, 127
2, 319899, Note_off_c, 12, 83, 127
2, 319899, Note_off_c, 2, 74, 127
2, 319901, Note_on_c, 6, 66, 127
2, 319901, Note_on_c, 10, 81, 127
2, 319901, Note_on_c, 2, 74, 127
2, 320031, Note_off_c, 2, 74, 127
2, 320031, Note_off_c, 10, 81, 127
2, 320031, Note_off_c, 6, 66, 127
2, 320034, Note_on_c, 7, 67, 127
2, 320034, Note_on_c, 7, 79, 127
2, 320034, Note_on_c, 2, 74, 127
2, 320164, Note_off_c, 7, 67, 127
2, 320166, Note_on_c, 12, 71, 127
2, 320296, Note_off_c, 12, 71, 127
2, 320296, Note_off_c, 2, 74, 127
2, 320298, Note_on_c, 2, 62, 127
2, 320298, Note_on_c, 12, 71, 127
2, 320428, Note_off_c, 12, 71, 127
2, 320428, Note_off_c, 2, 62, 127
2, 320430, Note_on_c, 4, 64, 127
2, 320430, Note_on_c, 7, 67, 127
2, 320560, Note_off_c, 7, 67, 127
2, 320560, Note_off_c, 4, 64, 127
2, 320563, Note_on_c, 0, 60, 127
2, 320563, Note_on_c, 0, 72, 127
2, 320693, Note_off_c, 0, 72, 127
2, 320693, Note_off_c, 0, 60, 127
2, 320695, Note_on_c, 7, 55, 127
2, 320695, Note_on_c, 4, 76, 127
2, 320825, Note_off_c, 4, 76, 127
2, 320825, Note_off_c, 7, 55, 127
2, 320828, Note_on_c, 7, 67, 127
2, 320828, Note_on_c, 4, 76, 127
2, 320958, Note_off_c, 4, 76, 127
2, 320960, Note_on_c, 0, 72, 127
2, 321024, Note_off_c, 7, 67, 127
2, 321092, Note_off_c, 0, 72, 127
2, 321094, Note_on_c, 0, 60, 127
2, 321094, Note_on_c, 7, 67, 127
2, 321224, Note_off_c, 7, 67, 127
2, 321224, Note_off_c, 0, 60, 127
2, 321227, Note_on_c, 2, 62, 127
2, 321227, Note_on_c, 7, 67, 127
2, 321357, Note_off_c, 7, 67, 127
2, 321357, Note_off_c, 2, 62, 127
2, 321359, Note_on_c, 12, 59, 127
2, 321359, Note_on_c, 12, 71, 127
2, 321489, Note_off_c, 12, 71, 127
2, 321489, Note_off_c, 12, 59, 127
2, 321491, Note_on_c, 7, 55, 127
2, 321491, Note_on_c, 2, 74, 127
2, 321621, Note_off_c, 2, 74, 127
2, 321621, Note_off_c, 7, 55, 127
2, 321624, Note_on_c, 7, 67, 127
2, 321624, Note_on_c, 2, 74, 127
2, 321754, Note_off_c, 2, 74, 127
2, 321756, Note_on_c, 12, 71, 127
2, 321820, Note_off_c, 7, 67, 127
2, 321888, Note_off_c, 12, 71, 127
2, 321890, Note_on_c, 12, 59, 127
2, 321890, Note_on_c, 7, 67, 127
2, 322020, Note_off_c, 7, 67, 127
2, 322020, Note_off_c, 12, 59, 127
2, 322022, Note_on_c, 0, 60, 127
2, 322022, Note_on_c, 10, 69, 127
2, 322023, Note_off_c, 7, 79, 127
2, 322152, Note_off_c, 0, 60, 127
2, 322154, Note_on_c, 2, 62, 127
2, 322284, Note_off_c, 2, 62, 127
2, 322287, Note_on_c, 4, 64, 127
2, 322417, Note_off_c, 4, 64, 127
2, 322419, Note_on_c, 2, 62, 127
2, 322419, Note_on_c, 6, 78, 127
2, 322549, Note_off_c, 2, 62, 127
2, 322551, Note_on_c, 4, 64, 127
2, 322681, Note_off_c, 4, 64, 127
2, 322683, Note_on_c, 0, 60, 127
2, 322813, Note_off_c, 0, 60, 127
2, 322814, Note_off_c, 6, 78, 127
2, 322814, Note_off_c, 10, 69, 127
2, 322816, Note_on_c, 12, 59, 127
2, 322816, Note_on_c, 7, 67, 127
2, 322816, Note_on_c, 7, 79, 127
2, 322946, Note_off_c, 12, 59, 127
2, 322948, Note_on_c, 2, 62, 127
2, 323078, Note_off_c, 2, 62, 127
2, 323078, Note_off_c, 7, 79, 127
2, 323078, Note_off_c, 7, 67, 127
2, 323080, Note_on_c, 10, 57, 127
2, 323210, Note_off_c, 10, 57, 127
2, 323213, Note_on_c, 12, 59, 127
2, 323343, Note_off_c, 12, 59, 127
2, 323345, Note_on_c, 2, 62, 127
2, 323475, Note_off_c, 2, 62, 127
2, 323478, Note_on_c, 7, 55, 127
2, 323478, Note_on_c, 2, 74, 127
2, 323608, Note_off_c, 2, 74, 127
2, 323608, Note_off_c, 7, 55, 127
2, 323610, Note_on_c, 0, 60, 127
2, 323610, Note_on_c, 4, 76, 127
2, 323740, Note_off_c, 4, 76, 127
2, 323743, Note_on_c, 7, 79, 127
2, 323872, Note_off_c, 0, 60, 127
2, 323873, Note_off_c, 7, 79, 127
2, 323875, Note_on_c, 12, 59, 127
2, 323875, Note_on_c, 2, 74, 127
2, 324005, Note_off_c, 2, 74, 127
2, 324005, Note_off_c, 12, 59, 127
2, 324007, Note_on_c, 0, 60, 127
2, 324007, Note_on_c, 4, 76, 127
2, 324137, Note_off_c, 4, 76, 127
2, 324140, Note_on_c, 7, 79, 127
2, 324269, Note_off_c, 0, 60, 127
2, 324270, Note_off_c, 7, 79, 127
2, 324272, Note_on_c, 7, 55, 127
2, 324272, Note_on_c, 12, 71, 127
2, 324402, Note_off_c, 12, 71, 127
2, 324402, Note_off_c, 7, 55, 127
2, 324404, Note_on_c, 10, 57, 127
2, 324404, Note_on_c, 0, 72, 127
2, 324534, Note_off_c, 10, 57, 127
2, 324536, Note_on_c, 0, 60, 127
2, 324666, Note_off_c, 0, 60, 127
2, 324666, Note_off_c, 0, 72, 127
2, 324669, Note_on_c, 7, 55, 127
2, 324799, Note_off_c, 7, 55, 127
2, 324801, Note_on_c, 10, 57, 127
2, 324931, Note_off_c, 10, 57, 127
2, 324933, Note_on_c, 0, 60, 127
2, 325063, Note_off_c, 0, 60, 127
2, 325066, Note_on_c, 4, 52, 127
2, 325066, Note_on_c, 7, 79, 127
2, 325196, Note_off_c, 7, 79, 127
2, 325196, Note_off_c, 4, 52, 127
2, 325198, Note_on_c, 6, 54, 127
2, 325198, Note_on_c, 10, 81, 127
2, 325328, Note_off_c, 10, 81, 127
2, 325330, Note_on_c, 0, 84, 127
2, 325460, Note_off_c, 0, 84, 127
2, 325460, Note_off_c, 6, 54, 127
2, 325462, Note_on_c, 4, 52, 127
2, 325462, Note_on_c, 7, 79, 127
2, 325592, Note_off_c, 7, 79, 127
2, 325592, Note_off_c, 4, 52, 127
2, 325595, Note_on_c, 6, 54, 127
2, 325595, Note_on_c, 10, 81, 127
2, 325725, Note_off_c, 10, 81, 127
2, 325728, Note_on_c, 0, 84, 127
2, 325857, Note_off_c, 6, 54, 127
2, 325858, Note_off_c, 0, 84, 127
2, 325860, Note_on_c, 10, 57, 127
2, 325860, Note_on_c, 4, 76, 127
2, 325990, Note_off_c, 4, 76, 127
2, 325990, Note_off_c, 10, 57, 127
2, 325992, Note_on_c, 2, 62, 127
2, 325992, Note_on_c, 6, 78, 127
2, 326122, Note_off_c, 6, 78, 127
2, 326122, Note_off_c, 2, 62, 127
2, 326125, Note_on_c, 6, 66, 127
2, 326125, Note_on_c, 10, 81, 127
2, 326255, Note_off_c, 10, 81, 127
2, 326255, Note_off_c, 6, 66, 127
2, 326257, Note_on_c, 1, 61, 127
2, 326257, Note_on_c, 4, 76, 127
2, 326387, Note_off_c, 4, 76, 127
2, 326387, Note_off_c, 1, 61, 127
2, 326389, Note_on_c, 2, 62, 127
2, 326389, Note_on_c, 6, 78, 127
2, 326519, Note_off_c, 6, 78, 127
2, 326519, Note_off_c, 2, 62, 127
2, 326522, Note_on_c, 6, 66, 127
2, 326522, Note_on_c, 10, 81, 127
2, 326652, Note_off_c, 10, 81, 127
2, 326652, Note_off_c, 6, 66, 127
2, 326654, Note_on_c, 10, 57, 127
2, 326654, Note_on_c, 1, 73, 127
2, 326784, Note_off_c, 1, 73, 127
2, 326784, Note_off_c, 10, 57, 127
2, 326786, Note_on_c, 12, 59, 127
2, 326786, Note_on_c, 2, 74, 127
2, 326916, Note_off_c, 2, 74, 127
2, 326916, Note_off_c, 12, 59, 127
2, 326918, Note_on_c, 2, 62, 127
2, 326918, Note_on_c, 6, 78, 127
2, 327048, Note_off_c, 6, 78, 127
2, 327048, Note_off_c, 2, 62, 127
2, 327051, Note_on_c, 10, 57, 127
2, 327051, Note_on_c, 1, 73, 127
2, 327181, Note_off_c, 1, 73, 127
2, 327181, Note_off_c, 10, 57, 127
2, 327183, Note_on_c, 12, 59, 127
2, 327183, Note_on_c, 2, 74, 127
2, 327313, Note_off_c, 2, 74, 127
2, 327313, Note_off_c, 12, 59, 127
2, 327315, Note_on_c, 2, 62, 127
2, 327315, Note_on_c, 6, 78, 127
2, 327445, Note_off_c, 6, 78, 127
2, 327445, Note_off_c, 2, 62, 127
2, 327448, Note_on_c, 6, 54, 127
2, 327448, Note_on_c, 10, 69, 127
2, 327578, Note_off_c, 10, 69, 127
2, 327578, Note_off_c, 6, 54, 127
2, 327580, Note_on_c, 7, 55, 127
2, 327580, Note_on_c, 12, 71, 127
2, 327710, Note_off_c, 12, 71, 127
2, 327712, Note_on_c, 2, 74, 127
2, 327842, Note_off_c, 2, 74, 127
2, 327842, Note_off_c, 7, 55, 127
2, 327845, Note_on_c, 4, 52, 127
2, 327845, Note_on_c, 1, 73, 127
2, 327975, Note_off_c, 1, 73, 127
2, 327975, Note_off_c, 4, 52, 127
2, 327978, Note_on_c, 6, 54, 127
2, 327978, Note_on_c, 2, 74, 127
2, 328108, Note_off_c, 2, 74, 127
2, 328110, Note_on_c, 4, 76, 127
2, 328240, Note_off_c, 4, 76, 127
2, 328240, Note_off_c, 6, 54, 127
2, 328242, Note_on_c, 7, 55, 127
2, 328242, Note_on_c, 12, 71, 127
2, 328372, Note_off_c, 12, 71, 127
2, 328372, Note_off_c, 7, 55, 127
2, 328375, Note_on_c, 10, 57, 127
2, 328375, Note_on_c, 1, 73, 127
2, 328505, Note_off_c, 1, 73, 127
2, 328507, Note_on_c, 4, 76, 127
2, 328637, Note_off_c, 4, 76, 127
2, 328637, Note_off_c, 10, 57, 127
2, 328639, Note_on_c, 6, 54, 127
2, 328639, Note_on_c, 2, 74, 127
2, 328769, Note_off_c, 2, 74, 127
2, 328769, Note_off_c, 6, 54, 127
2, 328771, Note_on_c, 7, 55, 127
2, 328771, Note_on_c, 4, 76, 127
2, 328901, Note_off_c, 4, 76, 127
2, 328904, Note_on_c, 6, 78, 127
2, 329033, Note_off_c, 7, 55, 127
2, 329034, Note_off_c, 6, 78, 127
2, 329036, Note_on_c, 10, 57, 127
2, 329036, Note_on_c, 1, 73, 127
2, 329166, Note_off_c, 1, 73, 127
2, 329166, Note_off_c, 10, 57, 127
2, 329168, Note_on_c, 12, 59, 127
2, 329168, Note_on_c, 2, 74, 127
2, 329298, Note_off_c, 2, 74, 127
2, 329300, Note_on_c, 6, 78, 127
2, 329430, Note_off_c, 6, 78, 127
2, 329430, Note_off_c, 12, 59, 127
2, 329433, Note_on_c, 1, 61, 127
2, 329433, Note_on_c, 4, 76, 127
2, 329563, Note_off_c, 4, 76, 127
2, 329563, Note_off_c, 1, 61, 127
2, 329565, Note_on_c, 2, 62, 127
2, 329565, Note_on_c, 6, 78, 127
2, 329695, Note_off_c, 6, 78, 127
2, 329697, Note_on_c, 10, 81, 127
2, 329827, Note_off_c, 10, 81, 127
2, 329827, Note_off_c, 2, 62, 127
2, 329830, Note_on_c, 12, 59, 127
2, 329830, Note_on_c, 7, 79, 127
2, 329960, Note_off_c, 7, 79, 127
2, 329960, Note_off_c, 12, 59, 127
2, 329962, Note_on_c, 1, 61, 127
2, 329962, Note_on_c, 10, 81, 127
2, 330092, Note_off_c, 10, 81, 127
2, 330092, Note_off_c, 1, 61, 127
2, 330095, Note_on_c, 4, 64, 127
2, 330225, Note_off_c, 4, 64, 127
2, 330227, Note_on_c, 10, 69, 127
2, 330357, Note_off_c, 10, 69, 127
2, 330360, Note_on_c, 1, 73, 127
2, 330490, Note_off_c, 1, 73, 127
2, 330492, Note_on_c, 4, 76, 127
2, 330622, Note_off_c, 4, 76, 127
2, 330624, Note_on_c, 10, 45, 127
2, 330624, Note_on_c, 7, 79, 127
2, 330754, Note_off_c, 7, 79, 127
2, 330754, Note_off_c, 10, 45, 127
2, 330757, Note_on_c, 2, 50, 127
2, 330757, Note_on_c, 6, 78, 127
2, 330887, Note_off_c, 2, 50, 127
2, 330889, Note_on_c, 6, 54, 127
2, 331019, Note_off_c, 6, 54, 127
2, 331019, Note_off_c, 6, 78, 127
2, 331021, Note_on_c, 1, 49, 127
2, 331021, Note_on_c, 4, 76, 127
2, 331021, Note_on_c, 10, 69, 127
2, 331151, Note_off_c, 10, 69, 127
2, 331151, Note_off_c, 4, 76, 127
2, 331151, Note_off_c, 1, 49, 127
2, 331153, Note_on_c, 2, 50, 127
2, 331153, Note_on_c, 6, 78, 127
2, 331153, Note_on_c, 10, 69, 127
2, 331283, Note_off_c, 2, 50, 127
2, 331286, Note_on_c, 6, 54, 127
2, 331415, Note_off_c, 10, 69, 127
2, 331415, Note_off_c, 6, 78, 127
2, 331416, Note_off_c, 6, 54, 127
2, 331418, Note_on_c, 10, 45, 127
2, 331418, Note_on_c, 7, 79, 127
2, 331418, Note_on_c, 10, 69, 127
2, 331548, Note_off_c, 10, 69, 127
2, 331548, Note_off_c, 7, 79, 127
2, 331548, Note_off_c, 10, 45, 127
2, 331550, Note_on_c, 2, 50, 127
2, 331550, Note_on_c, 10, 69, 127
2, 331550, Note_on_c, 6, 78, 127
2, 331680, Note_off_c, 2, 50, 127
2, 331683, Note_on_c, 6, 54, 127
2, 331812, Note_off_c, 6, 78, 127
2, 331812, Note_off_c, 10, 69, 127
2, 331813, Note_off_c, 6, 54, 127
2, 331815, Note_on_c, 1, 49, 127
2, 331815, Note_on_c, 10, 69, 127
2, 331815, Note_on_c, 4, 76, 127
2, 331945, Note_off_c, 4, 76, 127
2, 331945, Note_off_c, 10, 69, 127
2, 331945, Note_off_c, 1, 49, 127
2, 331947, Note_on_c, 2, 50, 127
2, 331947, Note_on_c, 10, 69, 127
2, 331947, Note_on_c, 2, 74, 127
2, 332077, Note_off_c, 2, 50, 127
2, 332079, Note_on_c, 6, 54, 127
2, 332209, Note_off_c, 6, 54, 127
2, 332209, Note_off_c, 10, 69, 127
2, 332212, Note_on_c, 10, 45, 127
2, 332212, Note_on_c, 6, 66, 127
2, 332342, Note_off_c, 6, 66, 127
2, 332342, Note_off_c, 10, 45, 127
2, 332345, Note_on_c, 12, 47, 127
2, 332345, Note_on_c, 2, 62, 127
2, 332475, Note_off_c, 2, 62, 127
2, 332475, Note_off_c, 12, 47, 127
2, 332477, Note_on_c, 7, 43, 127
2, 332477, Note_on_c, 7, 67, 127
2, 332607, Note_off_c, 7, 67, 127
2, 332607, Note_off_c, 7, 43, 127
2, 332609, Note_on_c, 2, 38, 127
2, 332609, Note_on_c, 12, 71, 127
2, 332739, Note_off_c, 12, 71, 127
2, 332739, Note_off_c, 2, 38, 127
2, 332742, Note_on_c, 2, 50, 127
2, 332742, Note_on_c, 12, 71, 127
2, 332872, Note_off_c, 12, 71, 127
2, 332874, Note_on_c, 7, 67, 127
2, 332938, Note_off_c, 2, 50, 127
2, 333006, Note_off_c, 7, 67, 127
2, 333008, Note_on_c, 7, 43, 127
2, 333008, Note_on_c, 2, 62, 127
2, 333138, Note_off_c, 2, 62, 127
2, 333138, Note_off_c, 7, 43, 127
2, 333140, Note_on_c, 10, 45, 127
2, 333140, Note_on_c, 2, 62, 127
2, 333270, Note_off_c, 2, 62, 127
2, 333270, Note_off_c, 10, 45, 127
2, 333273, Note_on_c, 6, 42, 127
2, 333273, Note_on_c, 6, 66, 127
2, 333403, Note_off_c, 6, 66, 127
2, 333403, Note_off_c, 6, 42, 127
2, 333405, Note_on_c, 2, 38, 127
2, 333405, Note_on_c, 10, 69, 127
2, 333535, Note_off_c, 10, 69, 127
2, 333535, Note_off_c, 2, 38, 127
2, 333537, Note_on_c, 2, 50, 127
2, 333537, Note_on_c, 10, 69, 127
2, 333667, Note_off_c, 10, 69, 127
2, 333669, Note_on_c, 6, 66, 127
2, 333733, Note_off_c, 2, 50, 127
2, 333801, Note_off_c, 6, 66, 127
2, 333803, Note_on_c, 6, 42, 127
2, 333803, Note_on_c, 2, 62, 127
2, 333933, Note_off_c, 2, 62, 127
2, 333933, Note_off_c, 6, 42, 127
2, 333934, Note_off_c, 2, 74, 127
2, 333936, Note_on_c, 7, 43, 127
2, 333936, Note_on_c, 4, 64, 127
2, 334066, Note_off_c, 7, 43, 127
2, 334068, Note_on_c, 10, 45, 127
2, 334198, Note_off_c, 10, 45, 127
2, 334200, Note_on_c, 12, 47, 127
2, 334200, Note_on_c, 2, 74, 127
2, 334330, Note_off_c, 2, 74, 127
2, 334330, Note_off_c, 12, 47, 127
2, 334332, Note_on_c, 10, 45, 127
2, 334332, Note_on_c, 1, 73, 127
2, 334462, Note_off_c, 10, 45, 127
2, 334465, Note_on_c, 12, 47, 127
2, 334594, Note_off_c, 1, 73, 127
2, 334595, Note_off_c, 12, 47, 127
2, 334597, Note_on_c, 10, 45, 127
2, 334597, Note_on_c, 12, 71, 127
2, 334727, Note_off_c, 12, 71, 127
2, 334727, Note_off_c, 10, 45, 127
2, 334729, Note_on_c, 6, 42, 127
2, 334729, Note_on_c, 10, 69, 127
2, 334859, Note_off_c, 6, 42, 127
2, 334862, Note_on_c, 7, 43, 127
2, 334987, Note_off_c, 4, 64, 127
2, 334992, Note_off_c, 7, 43, 127
2, 334995, Note_on_c, 10, 45, 127
2, 334995, Note_on_c, 2, 62, 127
2, 335120, Note_off_c, 10, 69, 127
2, 335125, Note_off_c, 10, 45, 127
2, 335127, Note_on_c, 7, 43, 127
2, 335127, Note_on_c, 12, 71, 127
2, 335257, Note_off_c, 7, 43, 127
2, 335259, Note_on_c, 10, 45, 127
2, 335389, Note_off_c, 10, 45, 127
2, 335389, Note_off_c, 12, 71, 127
2, 335392, Note_on_c, 6, 42, 127
2, 335392, Note_on_c, 10, 69, 127
2, 335522, Note_off_c, 10, 69, 127
2, 335522, Note_off_c, 6, 42, 127
2, 335524, Note_on_c, 4, 40, 127
2, 335524, Note_on_c, 7, 67, 127
2, 335654, Note_off_c, 4, 40, 127
2, 335656, Note_on_c, 6, 42, 127
2, 335786, Note_off_c, 6, 42, 127
2, 335787, Note_off_c, 2, 62, 127
2, 335789, Note_on_c, 7, 43, 127
2, 335789, Note_on_c, 1, 61, 127
2, 335915, Note_off_c, 7, 67, 127
2, 335919, Note_off_c, 7, 43, 127
2, 335921, Note_on_c, 6, 42, 127
2, 335921, Note_on_c, 10, 69, 127
2, 336051, Note_off_c, 6, 42, 127
2, 336053, Note_on_c, 7, 43, 127
2, 336183, Note_off_c, 7, 43, 127
2, 336183, Note_off_c, 10, 69, 127
2, 336185, Note_on_c, 4, 40, 127
2, 336185, Note_on_c, 7, 67, 127
2, 336277, Note_off_c, 7, 67, 127
2, 336316, Note_off_c, 1, 61, 127
2, 336317, Note_off_c, 4, 40, 127
2, 336319, Note_on_c, 2, 38, 127
2, 336319, Note_on_c, 6, 66, 127
2, 336452, Note_on_c, 2, 62, 127
2, 336581, Note_off_c, 6, 66, 127
2, 336581, Note_off_c, 2, 38, 127
2, 336584, Note_on_c, 4, 40, 127
2, 336584, Note_on_c, 7, 67, 127
2, 336714, Note_off_c, 7, 67, 127
2, 336714, Note_off_c, 4, 40, 127
2, 336716, Note_on_c, 6, 42, 127
2, 336716, Note_on_c, 10, 69, 127
2, 336843, Note_off_c, 2, 62, 127
2, 336848, Note_on_c, 2, 62, 127
2, 336978, Note_off_c, 10, 69, 127
2, 336978, Note_off_c, 6, 42, 127
2, 336981, Note_on_c, 7, 43, 127
2, 336981, Note_on_c, 12, 71, 127
2, 337094, Note_off_c, 12, 71, 127
2, 337110, Note_off_c, 2, 62, 127
2, 337111, Note_off_c, 7, 43, 127
2, 337113, Note_on_c, 10, 45, 127
2, 337113, Note_on_c, 1, 61, 127
2, 337245, Note_on_c, 10, 57, 127
2, 337375, Note_off_c, 1, 61, 127
2, 337375, Note_off_c, 10, 45, 127
2, 337378, Note_on_c, 12, 47, 127
2, 337378, Note_on_c, 2, 62, 127
2, 337508, Note_off_c, 2, 62, 127
2, 337508, Note_off_c, 12, 47, 127
2, 337511, Note_on_c, 1, 49, 127
2, 337511, Note_on_c, 4, 64, 127
2, 337636, Note_off_c, 10, 57, 127
2, 337643, Note_on_c, 10, 57, 127
2, 337773, Note_off_c, 4, 64, 127
2, 337773, Note_off_c, 1, 49, 127
2, 337775, Note_on_c, 2, 50, 127
2, 337775, Note_on_c, 6, 66, 127
2, 337888, Note_off_c, 6, 66, 127
2, 337905, Note_off_c, 2, 50, 127
2, 337905, Note_off_c, 10, 57, 127
2, 337908, Note_on_c, 4, 40, 127
2, 337908, Note_on_c, 7, 67, 127
2, 338040, Note_on_c, 4, 64, 127
2, 338170, Note_off_c, 7, 67, 127
2, 338170, Note_off_c, 4, 40, 127
2, 338172, Note_on_c, 6, 42, 127
2, 338172, Note_on_c, 10, 69, 127
2, 338302, Note_off_c, 10, 69, 127
2, 338302, Note_off_c, 6, 42, 127
2, 338305, Note_on_c, 7, 43, 127
2, 338305, Note_on_c, 12, 71, 127
2, 338431, Note_off_c, 4, 64, 127
2, 338437, Note_on_c, 4, 64, 127
2, 338567, Note_off_c, 12, 71, 127
2, 338567, Note_off_c, 7, 43, 127
2, 338569, Note_on_c, 10, 45, 127
2, 338569, Note_on_c, 1, 73, 127
2, 338682, Note_off_c, 1, 73, 127
2, 338699, Note_off_c, 10, 45, 127
2, 338699, Note_off_c, 4, 64, 127
2, 338701, Note_on_c, 12, 47, 127
2, 338701, Note_on_c, 2, 62, 127
2, 338834, Note_on_c, 12, 59, 127
2, 338963, Note_off_c, 2, 62, 127
2, 338963, Note_off_c, 12, 47, 127
2, 338966, Note_on_c, 1, 49, 127
2, 338966, Note_on_c, 4, 64, 127
2, 339096, Note_off_c, 4, 64, 127
2, 339096, Note_off_c, 1, 49, 127
2, 339098, Note_on_c, 2, 50, 127
2, 339098, Note_on_c, 6, 66, 127
2, 339225, Note_off_c, 12, 59, 127
2, 339230, Note_on_c, 12, 59, 127
2, 339360, Note_off_c, 6, 66, 127
2, 339360, Note_off_c, 2, 50, 127
2, 339363, Note_on_c, 4, 52, 127
2, 339363, Note_on_c, 7, 67, 127
2, 339486, Note_off_c, 7, 67, 127
2, 339494, Note_off_c, 12, 59, 127
2, 339495, Note_off_c, 4, 52, 127
2, 339497, Note_on_c, 6, 54, 127
2, 339497, Note_on_c, 10, 69, 127
2, 339629, Note_on_c, 6, 66, 127
2, 339759, Note_off_c, 6, 66, 127
2, 339759, Note_off_c, 6, 54, 127
2, 339762, Note_on_c, 7, 55, 127
2, 339762, Note_on_c, 1, 61, 127
2, 339892, Note_off_c, 1, 61, 127
2, 339892, Note_off_c, 7, 55, 127
2, 339895, Note_on_c, 6, 54, 127
2, 339895, Note_on_c, 2, 62, 127
2, 340025, Note_off_c, 2, 62, 127
2, 340027, Note_on_c, 6, 66, 127
2, 340157, Note_off_c, 6, 66, 127
2, 340157, Note_off_c, 6, 54, 127
2, 340159, Note_on_c, 4, 52, 127
2, 340159, Note_on_c, 10, 57, 127
2, 340289, Note_off_c, 10, 57, 127
2, 340289, Note_off_c, 4, 52, 127
2, 340291, Note_on_c, 6, 54, 127
2, 340291, Note_on_c, 2, 62, 127
2, 340421, Note_off_c, 2, 62, 127
2, 340424, Note_on_c, 6, 66, 127
2, 340553, Note_off_c, 6, 54, 127
2, 340554, Note_off_c, 6, 66, 127
2, 340556, Note_on_c, 7, 55, 127
2, 340556, Note_on_c, 1, 61, 127
2, 340686, Note_off_c, 1, 61, 127
2, 340686, Note_off_c, 7, 55, 127
2, 340688, Note_on_c, 6, 54, 127
2, 340688, Note_on_c, 2, 62, 127
2, 340818, Note_off_c, 2, 62, 127
2, 340821, Note_on_c, 6, 66, 127
2, 340950, Note_off_c, 6, 54, 127
2, 340951, Note_off_c, 6, 66, 127
2, 340953, Note_on_c, 4, 52, 127
2, 340953, Note_on_c, 10, 57, 127
2, 341078, Note_off_c, 10, 69, 127
2, 341083, Note_off_c, 10, 57, 127
2, 341083, Note_off_c, 4, 52, 127
2, 341085, Note_on_c, 2, 50, 127
2, 341085, Note_on_c, 12, 59, 127
2, 341215, Note_off_c, 12, 59, 127
2, 341215, Note_off_c, 2, 50, 127
2, 341217, Note_on_c, 7, 55, 127
2, 341217, Note_on_c, 7, 67, 127
2, 341347, Note_off_c, 7, 67, 127
2, 341347, Note_off_c, 7, 55, 127
2, 341350, Note_on_c, 12, 59, 127
2, 341350, Note_on_c, 2, 62, 127
2, 341480, Note_off_c, 2, 62, 127
2, 341480, Note_off_c, 12, 59, 127
2, 341482, Note_on_c, 12, 59, 127
2, 341482, Note_on_c, 2, 74, 127
2, 341612, Note_off_c, 12, 59, 127
2, 341614, Note_on_c, 7, 55, 127
2, 341678, Note_off_c, 2, 74, 127
2, 341746, Note_off_c, 7, 55, 127
2, 341748, Note_on_c, 2, 50, 127
2, 341748, Note_on_c, 7, 67, 127
2, 341878, Note_off_c, 7, 67, 127
2, 341878, Note_off_c, 2, 50, 127
2, 341880, Note_on_c, 2, 50, 127
2, 341880, Note_on_c, 10, 69, 127
2, 342010, Note_off_c, 10, 69, 127
2, 342010, Note_off_c, 2, 50, 127
2, 342013, Note_on_c, 6, 54, 127
2, 342013, Note_on_c, 6, 66, 127
2, 342143, Note_off_c, 6, 66, 127
2, 342143, Note_off_c, 6, 54, 127
2, 342145, Note_on_c, 10, 57, 127
2, 342145, Note_on_c, 2, 62, 127
2, 342275, Note_off_c, 2, 62, 127
2, 342275, Note_off_c, 10, 57, 127
2, 342278, Note_on_c, 10, 57, 127
2, 342278, Note_on_c, 2, 74, 127
2, 342408, Note_off_c, 10, 57, 127
2, 342411, Note_on_c, 6, 54, 127
2, 342474, Note_off_c, 2, 74, 127
2, 342543, Note_off_c, 6, 54, 127
2, 342544, Note_on_c, 2, 50, 127
2, 342544, Note_on_c, 6, 66, 127
2, 342674, Note_off_c, 6, 66, 127
2, 342674, Note_off_c, 2, 50, 127
2, 342677, Note_on_c, 2, 50, 127
2, 342677, Note_on_c, 4, 52, 127
2, 342677, Note_on_c, 7, 67, 127
2, 342807, Note_off_c, 7, 67, 127
2, 342809, Note_on_c, 10, 69, 127
2, 342939, Note_off_c, 10, 69, 127
2, 342941, Note_on_c, 12, 71, 127
2, 343071, Note_off_c, 12, 71, 127
2, 343072, Note_off_c, 4, 52, 127
2, 343072, Note_off_c, 2, 50, 127
2, 343074, Note_on_c, 1, 49, 127
2, 343074, Note_on_c, 4, 52, 127
2, 343074, Note_on_c, 10, 69, 127
2, 343204, Note_off_c, 10, 69, 127
2, 343206, Note_on_c, 12, 71, 127
2, 343336, Note_off_c, 12, 71, 127
2, 343338, Note_on_c, 7, 67, 127
2, 343468, Note_off_c, 7, 67, 127
2, 343469, Note_off_c, 4, 52, 127
2, 343469, Note_off_c, 1, 49, 127
2, 343470, Note_on_c, 2, 50, 127
2, 343470, Note_on_c, 6, 66, 127
2, 343600, Note_off_c, 6, 66, 127
2, 343603, Note_on_c, 10, 69, 127
2, 343732, Note_off_c, 2, 50, 127
2, 343733, Note_off_c, 10, 69, 127
2, 343735, Note_on_c, 4, 52, 127
2, 343735, Note_on_c, 7, 67, 127
2, 343865, Note_off_c, 7, 67, 127
2, 343865, Note_off_c, 4, 52, 127
2, 343867, Note_on_c, 6, 54, 127
2, 343867, Note_on_c, 10, 69, 127
2, 343997, Note_off_c, 10, 69, 127
2, 344000, Note_on_c, 1, 73, 127
2, 344129, Note_off_c, 6, 54, 127
2, 344130, Note_off_c, 1, 73, 127
2, 344132, Note_on_c, 7, 55, 127
2, 344132, Note_on_c, 12, 71, 127
2, 344262, Note_off_c, 12, 71, 127
2, 344262, Note_off_c, 7, 55, 127
2, 344264, Note_on_c, 10, 57, 127
2, 344264, Note_on_c, 1, 73, 127
2, 344394, Note_off_c, 1, 73, 127
2, 344394, Note_off_c, 10, 57, 127
2, 344396, Note_on_c, 1, 61, 127
2, 344396, Note_on_c, 4, 76, 127
2, 344526, Note_off_c, 4, 76, 127
2, 344526, Note_off_c, 1, 61, 127
2, 344529, Note_on_c, 10, 57, 127
2, 344529, Note_on_c, 7, 79, 127
2, 344659, Note_off_c, 7, 79, 127
2, 344659, Note_off_c, 10, 57, 127
2, 344662, Note_on_c, 4, 52, 127
2, 344662, Note_on_c, 7, 79, 127
2, 344792, Note_off_c, 7, 79, 127
2, 344792, Note_off_c, 4, 52, 127
2, 344794, Note_on_c, 10, 57, 127
2, 344794, Note_on_c, 4, 76, 127
2, 344924, Note_off_c, 4, 76, 127
2, 344924, Note_off_c, 10, 57, 127
2, 344927, Note_on_c, 4, 52, 127
2, 344927, Note_on_c, 1, 73, 127
2, 345057, Note_off_c, 1, 73, 127
2, 345057, Note_off_c, 4, 52, 127
2, 345059, Note_on_c, 1, 49, 127
2, 345059, Note_on_c, 10, 69, 127
2, 345189, Note_off_c, 10, 69, 127
2, 345189, Note_off_c, 1, 49, 127
2, 345191, Note_on_c, 4, 52, 127
2, 345191, Note_on_c, 1, 73, 127
2, 345321, Note_off_c, 1, 73, 127
2, 345321, Note_off_c, 4, 52, 127
2, 345323, Note_on_c, 1, 49, 127
2, 345323, Note_on_c, 4, 76, 127
2, 345453, Note_off_c, 4, 76, 127
2, 345453, Note_off_c, 1, 49, 127
2, 345456, Note_on_c, 10, 45, 127
2, 345456, Note_on_c, 7, 79, 127
2, 345586, Note_off_c, 7, 79, 127
2, 345586, Note_off_c, 10, 45, 127
2, 345588, Note_on_c, 12, 47, 127
2, 345588, Note_on_c, 6, 78, 127
2, 345718, Note_off_c, 6, 78, 127
2, 345718, Note_off_c, 12, 47, 127
2, 345720, Note_on_c, 1, 49, 127
2, 345720, Note_on_c, 4, 76, 127
2, 345850, Note_off_c, 4, 76, 127
2, 345850, Note_off_c, 1, 49, 127
2, 345852, Note_on_c, 2, 50, 127
2, 345852, Note_on_c, 6, 78, 127
2, 345982, Note_off_c, 6, 78, 127
2, 345985, Note_on_c, 4, 76, 127
2, 346114, Note_off_c, 2, 50, 127
2, 346115, Note_off_c, 4, 76, 127
2, 346117, Note_on_c, 7, 55, 127
2, 346117, Note_on_c, 2, 74, 127
2, 346117, Note_on_c, 12, 71, 127
2, 346247, Note_off_c, 12, 71, 127
2, 346247, Note_off_c, 7, 55, 127
2, 346249, Note_on_c, 10, 57, 127
2, 346249, Note_on_c, 10, 69, 127
2, 346379, Note_off_c, 2, 74, 127
2, 346382, Note_on_c, 4, 76, 127
2, 346511, Note_off_c, 10, 69, 127
2, 346511, Note_off_c, 10, 57, 127
2, 346512, Note_off_c, 4, 76, 127
2, 346514, Note_on_c, 10, 45, 127
2, 346514, Note_on_c, 1, 73, 127
2, 346514, Note_on_c, 7, 67, 127
2, 346644, Note_off_c, 1, 73, 127
2, 346644, Note_off_c, 10, 45, 127
2, 346646, Note_on_c, 2, 38, 127
2, 346646, Note_on_c, 2, 74, 127
2, 346776, Note_off_c, 7, 67, 127
2, 346778, Note_on_c, 6, 42, 127
2, 346778, Note_on_c, 10, 69, 127
2, 346908, Note_off_c, 6, 42, 127
2, 346912, Note_on_c, 10, 45, 127
2, 346912, Note_on_c, 6, 66, 127
2, 347042, Note_off_c, 10, 45, 127
2, 347044, Note_on_c, 2, 50, 127
2, 347044, Note_on_c, 2, 62, 127
2, 347169, Note_off_c, 10, 69, 127
2, 347173, Note_off_c, 2, 38, 127
2, 347174, Note_off_c, 2, 62, 127
2, 347174, Note_off_c, 6, 66, 127
2, 347255, Note_off_c, 2, 74, 127
2, 347275, Note_off_c, 2, 50, 127
2, 347307, Note_on_c, 10, 57, 127
2, 347437, Note_off_c, 10, 57, 127
2, 347439, Note_on_c, 6, 54, 127
2, 347569, Note_off_c, 6, 54, 127
2, 347571, Note_on_c, 2, 50, 127
2, 347701, Note_off_c, 2, 50, 127
2, 347704, Note_on_c, 7, 55, 127
2, 347834, Note_off_c, 7, 55, 127
2, 347836, Note_on_c, 6, 54, 127
2, 347966, Note_off_c, 6, 54, 127
2, 347968, Note_on_c, 2, 50, 127
2, 348098, Note_off_c, 2, 50, 127
2, 348101, Note_on_c, 10, 57, 127
2, 348231, Note_off_c, 10, 57, 127
2, 348233, Note_on_c, 6, 54, 127
2, 348363, Note_off_c, 6, 54, 127
2, 348365, Note_on_c, 2, 50, 127
2, 348495, Note_off_c, 2, 50, 127
2, 348497, Note_on_c, 7, 55, 127
2, 348627, Note_off_c, 7, 55, 127
2, 348630, Note_on_c, 6, 54, 127
2, 348760, Note_off_c, 6, 54, 127
2, 348762, Note_on_c, 2, 50, 127
2, 348892, Note_off_c, 2, 50, 127
2, 348895, Note_on_c, 10, 57, 127
2, 349025, Note_off_c, 10, 57, 127
2, 349028, Note_on_c, 6, 54, 127
2, 349158, Note_off_c, 6, 54, 127
2, 349160, Note_on_c, 10, 57, 127
2, 349290, Note_off_c, 10, 57, 127
2, 349292, Note_on_c, 0, 60, 127
2, 349422, Note_off_c, 0, 60, 127
2, 349424, Note_on_c, 2, 50, 127
2, 349619, Note_off_c, 2, 50, 127
2, 349687, Note_on_c, 12, 59, 127
2, 349817, Note_off_c, 12, 59, 127
2, 349820, Note_on_c, 7, 55, 127
2, 349950, Note_off_c, 7, 55, 127
2, 349952, Note_on_c, 12, 59, 127
2, 350082, Note_off_c, 12, 59, 127
2, 350084, Note_on_c, 2, 62, 127
2, 350214, Note_off_c, 2, 62, 127
2, 350216, Note_on_c, 4, 52, 127
2, 350411, Note_off_c, 4, 52, 127
2, 350479, Note_on_c, 0, 60, 127
2, 350609, Note_off_c, 0, 60, 127
2, 350612, Note_on_c, 10, 57, 127
2, 350742, Note_off_c, 10, 57, 127
2, 350745, Note_on_c, 0, 60, 127
2, 350875, Note_off_c, 0, 60, 127
2, 350877, Note_on_c, 4, 64, 127
2, 351007, Note_off_c, 4, 64, 127
2, 351009, Note_on_c, 6, 54, 127
2, 351139, Note_off_c, 6, 54, 127
2, 351142, Note_on_c, 2, 62, 127
2, 351272, Note_off_c, 2, 62, 127
2, 351274, Note_on_c, 0, 60, 127
2, 351404, Note_off_c, 0, 60, 127
2, 351406, Note_on_c, 12, 59, 127
2, 351536, Note_off_c, 12, 59, 127
2, 351539, Note_on_c, 7, 55, 127
2, 351669, Note_off_c, 7, 55, 127
2, 351671, Note_on_c, 2, 50, 127
2, 351801, Note_off_c, 2, 50, 127
2, 351803, Note_on_c, 7, 55, 127
2, 351933, Note_off_c, 7, 55, 127
2, 351935, Note_on_c, 2, 50, 127
2, 352065, Note_off_c, 2, 50, 127
2, 352068, Note_on_c, 12, 47, 127
2, 352068, Note_on_c, 2, 62, 127
2, 352198, Note_off_c, 2, 62, 127
2, 352198, Note_off_c, 12, 47, 127
2, 352200, Note_on_c, 7, 43, 127
2, 352200, Note_on_c, 12, 59, 127
2, 352330, Note_off_c, 12, 59, 127
2, 352332, Note_on_c, 7, 55, 127
2, 352462, Note_off_c, 7, 55, 127
2, 352462, Note_off_c, 7, 43, 127
2, 352464, Note_on_c, 4, 52, 127
2, 352464, Note_on_c, 0, 60, 127
2, 352594, Note_off_c, 0, 60, 127
2, 352594, Note_off_c, 4, 52, 127
2, 352597, Note_on_c, 2, 50, 127
2, 352597, Note_on_c, 12, 59, 127
2, 352727, Note_off_c, 12, 59, 127
2, 352729, Note_on_c, 7, 55, 127
2, 352859, Note_off_c, 7, 55, 127
2, 352859, Note_off_c, 2, 50, 127
2, 352862, Note_on_c, 6, 42, 127
2, 352862, Note_on_c, 2, 62, 127
2, 352992, Note_off_c, 2, 62, 127
2, 352992, Note_off_c, 6, 42, 127
2, 352995, Note_on_c, 7, 43, 127
2, 352995, Note_on_c, 12, 59, 127
2, 353125, Note_off_c, 12, 59, 127
2, 353127, Note_on_c, 7, 55, 127
2, 353257, Note_off_c, 7, 55, 127
2, 353257, Note_off_c, 7, 43, 127
2, 353259, Note_on_c, 4, 52, 127
2, 353259, Note_on_c, 0, 60, 127
2, 353389, Note_off_c, 0, 60, 127
2, 353389, Note_off_c, 4, 52, 127
2, 353391, Note_on_c, 2, 50, 127
2, 353391, Note_on_c, 12, 59, 127
2, 353521, Note_off_c, 12, 59, 127
2, 353524, Note_on_c, 7, 55, 127
2, 353653, Note_off_c, 2, 50, 127
2, 353654, Note_off_c, 7, 55, 127
2, 353656, Note_on_c, 6, 42, 127
2, 353656, Note_on_c, 2, 62, 127
2, 353786, Note_off_c, 2, 62, 127
2, 353786, Note_off_c, 6, 42, 127
2, 353788, Note_on_c, 7, 43, 127
2, 353788, Note_on_c, 12, 59, 127
2, 353918, Note_off_c, 12, 59, 127
2, 353918, Note_off_c, 7, 43, 127
2, 353921, Note_on_c, 12, 47, 127
2, 353921, Note_on_c, 2, 62, 127
2, 354051, Note_off_c, 2, 62, 127
2, 354051, Note_off_c, 12, 47, 127
2, 354053, Note_on_c, 2, 50, 127
2, 354053, Note_on_c, 5, 65, 127
2, 354183, Note_off_c, 5, 65, 127
2, 354183, Note_off_c, 2, 50, 127
2, 354185, Note_on_c, 12, 47, 127
2, 354185, Note_on_c, 7, 55, 127
2, 354315, Note_off_c, 12, 47, 127
2, 354317, Note_on_c, 7, 43, 127
2, 354381, Note_off_c, 7, 55, 127
2, 354449, Note_off_c, 7, 43, 127
2, 354451, Note_on_c, 0, 48, 127
2, 354451, Note_on_c, 4, 64, 127
2, 354581, Note_off_c, 4, 64, 127
2, 354581, Note_off_c, 0, 48, 127
2, 354584, Note_on_c, 10, 45, 127
2, 354584, Note_on_c, 0, 60, 127
2, 354714, Note_off_c, 0, 60, 127
2, 354714, Note_off_c, 10, 45, 127
2, 354716, Note_on_c, 0, 48, 127
2, 354716, Note_on_c, 4, 64, 127
2, 354846, Note_off_c, 4, 64, 127
2, 354846, Note_off_c, 0, 48, 127
2, 354848, Note_on_c, 4, 52, 127
2, 354848, Note_on_c, 7, 67, 127
2, 354978, Note_off_c, 7, 67, 127
2, 354978, Note_off_c, 4, 52, 127
2, 354980, Note_on_c, 0, 48, 127
2, 354980, Note_on_c, 10, 57, 127
2, 355110, Note_off_c, 0, 48, 127
2, 355113, Note_on_c, 10, 45, 127
2, 355176, Note_off_c, 10, 57, 127
2, 355245, Note_off_c, 10, 45, 127
2, 355247, Note_on_c, 2, 50, 127
2, 355247, Note_on_c, 5, 65, 127
2, 355377, Note_off_c, 5, 65, 127
2, 355377, Note_off_c, 2, 50, 127
2, 355379, Note_on_c, 12, 47, 127
2, 355379, Note_on_c, 2, 62, 127
2, 355509, Note_off_c, 2, 62, 127
2, 355509, Note_off_c, 12, 47, 127
2, 355512, Note_on_c, 2, 50, 127
2, 355512, Note_on_c, 5, 65, 127
2, 355642, Note_off_c, 5, 65, 127
2, 355642, Note_off_c, 2, 50, 127
2, 355645, Note_on_c, 5, 53, 127
2, 355645, Note_on_c, 10, 69, 127
2, 355775, Note_off_c, 10, 69, 127
2, 355775, Note_off_c, 5, 53, 127
2, 355777, Note_on_c, 2, 50, 127
2, 355777, Note_on_c, 12, 59, 127
2, 355907, Note_off_c, 12, 59, 127
2, 355907, Note_off_c, 2, 50, 127
2, 355909, Note_on_c, 12, 47, 127
2, 355909, Note_on_c, 7, 67, 127
2, 356039, Note_off_c, 7, 67, 127
2, 356039, Note_off_c, 12, 47, 127
2, 356041, Note_on_c, 2, 50, 127
2, 356041, Note_on_c, 5, 65, 127
2, 356171, Note_off_c, 5, 65, 127
2, 356171, Note_off_c, 2, 50, 127
2, 356174, Note_on_c, 0, 48, 127
2, 356174, Note_on_c, 4, 64, 127
2, 356304, Note_off_c, 0, 48, 127
2, 356306, Note_on_c, 4, 52, 127
2, 356436, Note_off_c, 4, 52, 127
2, 356436, Note_off_c, 4, 64, 127
2, 356438, Note_on_c, 7, 55, 127
2, 356568, Note_off_c, 7, 55, 127
2, 356571, Note_on_c, 4, 52, 127
2, 356701, Note_off_c, 4, 52, 127
2, 356703, Note_on_c, 0, 48, 127
2, 356833, Note_off_c, 0, 48, 127
2, 356835, Note_on_c, 4, 52, 127
2, 356835, Note_on_c, 0, 60, 127
2, 356965, Note_off_c, 0, 60, 127
2, 356965, Note_off_c, 4, 52, 127
2, 356967, Note_on_c, 6, 42, 127
2, 356967, Note_on_c, 10, 57, 127
2, 357097, Note_off_c, 10, 57, 127
2, 357100, Note_on_c, 0, 60, 127
2, 357229, Note_off_c, 6, 42, 127
2, 357230, Note_off_c, 0, 60, 127
2, 357232, Note_on_c, 4, 64, 127
2, 357362, Note_off_c, 4, 64, 127
2, 357364, Note_on_c, 0, 60, 127
2, 357494, Note_off_c, 0, 60, 127
2, 357496, Note_on_c, 10, 57, 127
2, 357626, Note_off_c, 10, 57, 127
2, 357629, Note_on_c, 10, 45, 127
2, 357629, Note_on_c, 0, 60, 127
2, 357759, Note_off_c, 0, 60, 127
2, 357759, Note_off_c, 10, 45, 127
2, 357762, Note_on_c, 12, 47, 127
2, 357762, Note_on_c, 6, 54, 127
2, 357892, Note_off_c, 12, 47, 127
2, 357894, Note_on_c, 2, 50, 127
2, 358024, Note_off_c, 2, 50, 127
2, 358024, Note_off_c, 6, 54, 127
2, 358027, Note_on_c, 6, 54, 127
2, 358027, Note_on_c, 2, 62, 127
2, 358157, Note_off_c, 2, 62, 127
2, 358157, Note_off_c, 6, 54, 127
2, 358159, Note_on_c, 2, 50, 127
2, 358159, Note_on_c, 12, 59, 127
2, 358289, Note_off_c, 2, 50, 127
2, 358291, Note_on_c, 12, 47, 127
2, 358421, Note_off_c, 12, 47, 127
2, 358421, Note_off_c, 12, 59, 127
2, 358423, Note_on_c, 2, 50, 127
2, 358423, Note_on_c, 10, 57, 127
2, 358553, Note_off_c, 10, 57, 127
2, 358553, Note_off_c, 2, 50, 127
2, 358556, Note_on_c, 4, 40, 127
2, 358556, Note_on_c, 7, 55, 127
2, 358686, Note_off_c, 7, 55, 127
2, 358688, Note_on_c, 12, 59, 127
2, 358818, Note_off_c, 12, 59, 127
2, 358818, Note_off_c, 4, 40, 127
2, 358820, Note_on_c, 2, 62, 127
2, 358950, Note_off_c, 2, 62, 127
2, 358953, Note_on_c, 12, 59, 127
2, 359083, Note_off_c, 12, 59, 127
2, 359085, Note_on_c, 7, 55, 127
2, 359215, Note_off_c, 7, 55, 127
2, 359217, Note_on_c, 7, 43, 127
2, 359217, Note_on_c, 12, 59, 127
2, 359347, Note_off_c, 12, 59, 127
2, 359347, Note_off_c, 7, 43, 127
2, 359349, Note_on_c, 10, 45, 127
2, 359349, Note_on_c, 4, 52, 127
2, 359479, Note_off_c, 10, 45, 127
2, 359482, Note_on_c, 0, 48, 127
2, 359611, Note_off_c, 4, 52, 127
2, 359612, Note_off_c, 0, 48, 127
2, 359614, Note_on_c, 4, 52, 127
2, 359614, Note_on_c, 0, 60, 127
2, 359744, Note_off_c, 0, 60, 127
2, 359744, Note_off_c, 4, 52, 127
2, 359746, Note_on_c, 0, 48, 127
2, 359746, Note_on_c, 10, 57, 127
2, 359876, Note_off_c, 0, 48, 127
2, 359879, Note_on_c, 10, 45, 127
2, 360008, Note_off_c, 10, 57, 127
2, 360009, Note_off_c, 10, 45, 127
2, 360012, Note_on_c, 0, 48, 127
2, 360012, Note_on_c, 7, 67, 127
2, 360142, Note_off_c, 7, 67, 127
2, 360142, Note_off_c, 0, 48, 127
2, 360144, Note_on_c, 2, 50, 127
2, 360144, Note_on_c, 6, 66, 127
2, 360274, Note_off_c, 6, 66, 127
2, 360276, Note_on_c, 2, 62, 127
2, 360406, Note_off_c, 2, 62, 127
2, 360409, Note_on_c, 12, 59, 127
2, 360409, Note_on_c, 7, 67, 127
2, 360539, Note_off_c, 7, 67, 127
2, 360539, Note_off_c, 12, 59, 127
2, 360541, Note_on_c, 10, 57, 127
2, 360541, Note_on_c, 6, 66, 127
2, 360671, Note_off_c, 6, 66, 127
2, 360673, Note_on_c, 2, 62, 127
2, 360803, Note_off_c, 2, 62, 127
2, 360803, Note_off_c, 2, 50, 127
2, 360805, Note_on_c, 1, 49, 127
2, 360805, Note_on_c, 10, 69, 127
2, 360935, Note_off_c, 10, 69, 127
2, 360935, Note_off_c, 1, 49, 127
2, 360938, Note_on_c, 2, 50, 127
2, 360938, Note_on_c, 6, 66, 127
2, 361068, Note_off_c, 6, 66, 127
2, 361070, Note_on_c, 2, 62, 127
2, 361200, Note_off_c, 2, 62, 127
2, 361200, Note_off_c, 10, 57, 127
2, 361202, Note_on_c, 12, 59, 127
2, 361202, Note_on_c, 7, 67, 127
2, 361332, Note_off_c, 7, 67, 127
2, 361332, Note_off_c, 12, 59, 127
2, 361335, Note_on_c, 10, 57, 127
2, 361335, Note_on_c, 6, 66, 127
2, 361465, Note_off_c, 6, 66, 127
2, 361467, Note_on_c, 2, 62, 127
2, 361597, Note_off_c, 2, 62, 127
2, 361597, Note_off_c, 2, 50, 127
2, 361599, Note_on_c, 1, 49, 127
2, 361599, Note_on_c, 10, 69, 127
2, 361726, Note_off_c, 10, 57, 127
2, 361729, Note_off_c, 10, 69, 127
2, 361729, Note_off_c, 1, 49, 127
2, 361731, Note_on_c, 2, 50, 127
2, 361731, Note_on_c, 6, 66, 127
2, 361861, Note_off_c, 6, 66, 127
2, 361861, Note_off_c, 2, 50, 127
2, 361864, Note_on_c, 6, 54, 127
2, 361864, Note_on_c, 10, 69, 127
2, 361994, Note_off_c, 10, 69, 127
2, 361994, Note_off_c, 6, 54, 127
2, 361996, Note_on_c, 10, 57, 127
2, 361996, Note_on_c, 0, 72, 127
2, 362126, Note_off_c, 0, 72, 127
2, 362126, Note_off_c, 10, 57, 127
2, 362128, Note_on_c, 6, 54, 127
2, 362128, Note_on_c, 2, 62, 127
2, 362258, Note_off_c, 6, 54, 127
2, 362262, Note_on_c, 2, 50, 127
2, 362324, Note_off_c, 2, 62, 127
2, 362394, Note_off_c, 2, 50, 127
2, 362395, Note_on_c, 7, 55, 127
2, 362395, Note_on_c, 12, 71, 127
2, 362525, Note_off_c, 12, 71, 127
2, 362525, Note_off_c, 7, 55, 127
2, 362528, Note_on_c, 4, 52, 127
2, 362528, Note_on_c, 7, 67, 127
2, 362658, Note_off_c, 7, 67, 127
2, 362658, Note_off_c, 4, 52, 127
2, 362660, Note_on_c, 7, 55, 127
2, 362660, Note_on_c, 12, 71, 127
2, 362790, Note_off_c, 12, 71, 127
2, 362790, Note_off_c, 7, 55, 127
2, 362792, Note_on_c, 12, 59, 127
2, 362792, Note_on_c, 2, 74, 127
2, 362922, Note_off_c, 2, 74, 127
2, 362922, Note_off_c, 12, 59, 127
2, 362925, Note_on_c, 7, 55, 127
2, 362925, Note_on_c, 4, 64, 127
2, 363055, Note_off_c, 7, 55, 127
2, 363057, Note_on_c, 4, 52, 127
2, 363121, Note_off_c, 4, 64, 127
2, 363189, Note_off_c, 4, 52, 127
2, 363191, Note_on_c, 10, 57, 127
2, 363191, Note_on_c, 0, 72, 127
2, 363321, Note_off_c, 0, 72, 127
2, 363321, Note_off_c, 10, 57, 127
2, 363323, Note_on_c, 6, 54, 127
2, 363323, Note_on_c, 10, 69, 127
2, 363453, Note_off_c, 10, 69, 127
2, 363453, Note_off_c, 6, 54, 127
2, 363455, Note_on_c, 10, 57, 127
2, 363455, Note_on_c, 0, 72, 127
2, 363585, Note_off_c, 0, 72, 127
2, 363585, Note_off_c, 10, 57, 127
2, 363588, Note_on_c, 0, 60, 127
2, 363588, Note_on_c, 4, 76, 127
2, 363718, Note_off_c, 4, 76, 127
2, 363718, Note_off_c, 0, 60, 127
2, 363720, Note_on_c, 10, 57, 127
2, 363720, Note_on_c, 6, 66, 127
2, 363850, Note_off_c, 6, 66, 127
2, 363850, Note_off_c, 10, 57, 127
2, 363852, Note_on_c, 6, 54, 127
2, 363852, Note_on_c, 2, 74, 127
2, 363982, Note_off_c, 2, 74, 127
2, 363982, Note_off_c, 6, 54, 127
2, 363985, Note_on_c, 10, 57, 127
2, 363985, Note_on_c, 0, 72, 127
2, 364115, Note_off_c, 0, 72, 127
2, 364115, Note_off_c, 10, 57, 127
2, 364117, Note_on_c, 7, 55, 127
2, 364117, Note_on_c, 12, 71, 127
2, 364247, Note_off_c, 12, 71, 127
2, 364247, Note_off_c, 7, 55, 127
2, 364249, Note_on_c, 12, 59, 127
2, 364249, Note_on_c, 2, 74, 127
2, 364379, Note_off_c, 2, 74, 127
2, 364379, Note_off_c, 12, 59, 127
2, 364381, Note_on_c, 2, 62, 127
2, 364381, Note_on_c, 7, 79, 127
2, 364511, Note_off_c, 7, 79, 127
2, 364511, Note_off_c, 2, 62, 127
2, 364514, Note_on_c, 12, 59, 127
2, 364514, Note_on_c, 2, 74, 127
2, 364644, Note_off_c, 2, 74, 127
2, 364644, Note_off_c, 12, 59, 127
2, 364646, Note_on_c, 2, 62, 127
2, 364646, Note_on_c, 7, 79, 127
2, 364776, Note_off_c, 7, 79, 127
2, 364776, Note_off_c, 2, 62, 127
2, 364778, Note_on_c, 7, 67, 127
2, 364778, Note_on_c, 12, 83, 127
2, 364908, Note_off_c, 12, 83, 127
2, 364908, Note_off_c, 7, 67, 127
2, 364911, Note_on_c, 0, 60, 127
2, 364911, Note_on_c, 4, 76, 127
2, 365041, Note_off_c, 4, 76, 127
2, 365041, Note_off_c, 0, 60, 127
2, 365044, Note_on_c, 4, 64, 127
2, 365044, Note_on_c, 7, 79, 127
2, 365174, Note_off_c, 7, 79, 127
2, 365174, Note_off_c, 4, 64, 127
2, 365176, Note_on_c, 7, 67, 127
2, 365176, Note_on_c, 12, 71, 127
2, 365306, Note_off_c, 12, 71, 127
2, 365306, Note_off_c, 7, 67, 127
2, 365308, Note_on_c, 4, 64, 127
2, 365308, Note_on_c, 0, 72, 127
2, 365438, Note_off_c, 0, 72, 127
2, 365438, Note_off_c, 4, 64, 127
2, 365441, Note_on_c, 0, 60, 127
2, 365441, Note_on_c, 4, 76, 127
2, 365571, Note_off_c, 4, 76, 127
2, 365571, Note_off_c, 0, 60, 127
2, 365573, Note_on_c, 4, 64, 127
2, 365573, Note_on_c, 7, 67, 127
2, 365703, Note_off_c, 7, 67, 127
2, 365703, Note_off_c, 4, 64, 127
2, 365705, Note_on_c, 6, 54, 127
2, 365705, Note_on_c, 10, 69, 127
2, 365835, Note_off_c, 10, 69, 127
2, 365835, Note_off_c, 6, 54, 127
2, 365837, Note_on_c, 10, 57, 127
2, 365837, Note_on_c, 0, 72, 127
2, 365967, Note_off_c, 0, 72, 127
2, 365967, Note_off_c, 10, 57, 127
2, 365970, Note_on_c, 0, 60, 127
2, 365970, Note_on_c, 6, 78, 127
2, 366100, Note_off_c, 6, 78, 127
2, 366100, Note_off_c, 0, 60, 127
2, 366102, Note_on_c, 10, 57, 127
2, 366102, Note_on_c, 0, 72, 127
2, 366232, Note_off_c, 0, 72, 127
2, 366232, Note_off_c, 10, 57, 127
2, 366234, Note_on_c, 0, 60, 127
2, 366234, Note_on_c, 6, 78, 127
2, 366364, Note_off_c, 6, 78, 127
2, 366364, Note_off_c, 0, 60, 127
2, 366367, Note_on_c, 6, 66, 127
2, 366367, Note_on_c, 10, 81, 127
2, 366497, Note_off_c, 10, 81, 127
2, 366497, Note_off_c, 6, 66, 127
2, 366499, Note_on_c, 12, 59, 127
2, 366499, Note_on_c, 3, 75, 127
2, 366629, Note_off_c, 3, 75, 127
2, 366629, Note_off_c, 12, 59, 127
2, 366631, Note_on_c, 3, 63, 127
2, 366631, Note_on_c, 6, 78, 127
2, 366761, Note_off_c, 6, 78, 127
2, 366761, Note_off_c, 3, 63, 127
2, 366763, Note_on_c, 6, 66, 127
2, 366763, Note_on_c, 10, 69, 127
2, 366893, Note_off_c, 10, 69, 127
2, 366893, Note_off_c, 6, 66, 127
2, 366896, Note_on_c, 3, 63, 127
2, 366896, Note_on_c, 12, 71, 127
2, 367026, Note_off_c, 12, 71, 127
2, 367026, Note_off_c, 3, 63, 127
2, 367028, Note_on_c, 12, 59, 127
2, 367028, Note_on_c, 3, 75, 127
2, 367158, Note_off_c, 3, 75, 127
2, 367158, Note_off_c, 12, 59, 127
2, 367161, Note_on_c, 3, 63, 127
2, 367161, Note_on_c, 6, 66, 127
2, 367291, Note_off_c, 6, 66, 127
2, 367291, Note_off_c, 3, 63, 127
2, 367294, Note_on_c, 4, 52, 127
2, 367294, Note_on_c, 7, 67, 127
2, 367424, Note_off_c, 7, 67, 127
2, 367424, Note_off_c, 4, 52, 127
2, 367426, Note_on_c, 7, 55, 127
2, 367426, Note_on_c, 12, 71, 127
2, 367556, Note_off_c, 12, 71, 127
2, 367556, Note_off_c, 7, 55, 127
2, 367558, Note_on_c, 12, 59, 127
2, 367558, Note_on_c, 4, 76, 127
2, 367688, Note_off_c, 4, 76, 127
2, 367688, Note_off_c, 12, 59, 127
2, 367690, Note_on_c, 7, 55, 127
2, 367690, Note_on_c, 12, 71, 127
2, 367820, Note_off_c, 12, 71, 127
2, 367820, Note_off_c, 7, 55, 127
2, 367823, Note_on_c, 12, 59, 127
2, 367823, Note_on_c, 4, 76, 127
2, 367953, Note_off_c, 4, 76, 127
2, 367953, Note_off_c, 12, 59, 127
2, 367955, Note_on_c, 4, 64, 127
2, 367955, Note_on_c, 7, 79, 127
2, 368085, Note_off_c, 7, 79, 127
2, 368085, Note_off_c, 4, 64, 127
2, 368087, Note_on_c, 10, 57, 127
2, 368087, Note_on_c, 0, 72, 127
2, 368217, Note_off_c, 0, 72, 127
2, 368217, Note_off_c, 10, 57, 127
2, 368219, Note_on_c, 0, 60, 127
2, 368219, Note_on_c, 4, 76, 127
2, 368349, Note_off_c, 4, 76, 127
2, 368349, Note_off_c, 0, 60, 127
2, 368352, Note_on_c, 4, 64, 127
2, 368352, Note_on_c, 8, 68, 127
2, 368482, Note_off_c, 8, 68, 127
2, 368482, Note_off_c, 4, 64, 127
2, 368484, Note_on_c, 0, 60, 127
2, 368484, Note_on_c, 10, 69, 127
2, 368614, Note_off_c, 10, 69, 127
2, 368614, Note_off_c, 0, 60, 127
2, 368616, Note_on_c, 10, 57, 127
2, 368616, Note_on_c, 0, 72, 127
2, 368746, Note_off_c, 0, 72, 127
2, 368746, Note_off_c, 10, 57, 127
2, 368749, Note_on_c, 0, 60, 127
2, 368749, Note_on_c, 4, 76, 127
2, 368879, Note_off_c, 4, 76, 127
2, 368879, Note_off_c, 0, 60, 127
2, 368881, Note_on_c, 4, 64, 127
2, 368881, Note_on_c, 10, 81, 127
2, 369011, Note_off_c, 4, 64, 127
2, 369013, Note_on_c, 10, 69, 127
2, 369143, Note_off_c, 10, 69, 127
2, 369145, Note_on_c, 0, 72, 127
2, 369272, Note_off_c, 10, 81, 127
2, 369275, Note_off_c, 0, 72, 127
2, 369278, Note_on_c, 10, 69, 127
2, 369408, Note_off_c, 10, 69, 127
2, 369411, Note_on_c, 6, 66, 127
2, 369541, Note_off_c, 6, 66, 127
2, 369543, Note_on_c, 10, 69, 127
2, 369543, Note_on_c, 4, 52, 127
2, 369673, Note_off_c, 4, 52, 127
2, 369673, Note_off_c, 10, 69, 127
2, 369676, Note_on_c, 3, 51, 127
2, 369676, Note_on_c, 12, 71, 127
2, 369806, Note_off_c, 3, 51, 127
2, 369808, Note_on_c, 12, 47, 127
2, 369938, Note_off_c, 12, 47, 127
2, 369940, Note_on_c, 4, 52, 127
2, 369940, Note_on_c, 7, 79, 127
2, 370070, Note_off_c, 7, 79, 127
2, 370070, Note_off_c, 4, 52, 127
2, 370072, Note_on_c, 3, 51, 127
2, 370072, Note_on_c, 6, 78, 127
2, 370202, Note_off_c, 3, 51, 127
2, 370205, Note_on_c, 12, 47, 127
2, 370335, Note_off_c, 12, 47, 127
2, 370335, Note_off_c, 12, 71, 127
2, 370337, Note_on_c, 6, 54, 127
2, 370337, Note_on_c, 10, 69, 127
2, 370467, Note_off_c, 10, 69, 127
2, 370467, Note_off_c, 6, 54, 127
2, 370469, Note_on_c, 3, 51, 127
2, 370469, Note_on_c, 12, 71, 127
2, 370599, Note_off_c, 3, 51, 127
2, 370602, Note_on_c, 12, 47, 127
2, 370731, Note_off_c, 6, 78, 127
2, 370732, Note_off_c, 12, 47, 127
2, 370734, Note_on_c, 4, 52, 127
2, 370734, Note_on_c, 7, 79, 127
2, 370864, Note_off_c, 7, 79, 127
2, 370864, Note_off_c, 4, 52, 127
2, 370866, Note_on_c, 3, 51, 127
2, 370866, Note_on_c, 6, 78, 127
2, 370996, Note_off_c, 3, 51, 127
2, 370998, Note_on_c, 12, 47, 127
2, 371128, Note_off_c, 12, 47, 127
2, 371128, Note_off_c, 12, 71, 127
2, 371131, Note_on_c, 6, 54, 127
2, 371131, Note_on_c, 10, 69, 127
2, 371261, Note_off_c, 10, 69, 127
2, 371261, Note_off_c, 6, 54, 127
2, 371263, Note_on_c, 3, 51, 127
2, 371263, Note_on_c, 12, 71, 127
2, 371393, Note_off_c, 12, 71, 127
2, 371393, Note_off_c, 3, 51, 127
2, 371393, Note_off_c, 6, 78, 127
2, 371395, Note_on_c, 6, 54, 127
2, 371395, Note_on_c, 3, 75, 127
2, 371525, Note_off_c, 3, 75, 127
2, 371525, Note_off_c, 6, 54, 127
2, 371528, Note_on_c, 10, 57, 127
2, 371528, Note_on_c, 6, 78, 127
2, 371658, Note_off_c, 6, 78, 127
2, 371658, Note_off_c, 10, 57, 127
2, 371661, Note_on_c, 12, 47, 127
2, 371661, Note_on_c, 7, 79, 127
2, 371661, Note_on_c, 3, 75, 127
2, 371791, Note_off_c, 3, 75, 127
2, 371793, Note_on_c, 12, 71, 127
2, 371857, Note_off_c, 12, 47, 127
2, 371925, Note_off_c, 12, 71, 127
2, 371927, Note_on_c, 7, 55, 127
2, 371927, Note_on_c, 4, 76, 127
2, 372057, Note_off_c, 4, 76, 127
2, 372057, Note_off_c, 7, 55, 127
2, 372059, Note_on_c, 4, 52, 127
2, 372059, Note_on_c, 1, 73, 127
2, 372189, Note_off_c, 1, 73, 127
2, 372189, Note_off_c, 4, 52, 127
2, 372192, Note_on_c, 7, 55, 127
2, 372192, Note_on_c, 4, 76, 127
2, 372322, Note_off_c, 4, 76, 127
2, 372322, Note_off_c, 7, 55, 127
2, 372322, Note_off_c, 7, 79, 127
2, 372324, Note_on_c, 12, 59, 127
2, 372324, Note_on_c, 7, 79, 127
2, 372454, Note_off_c, 7, 79, 127
2, 372454, Note_off_c, 12, 59, 127
2, 372456, Note_on_c, 1, 49, 127
2, 372456, Note_on_c, 10, 81, 127
2, 372456, Note_on_c, 4, 76, 127
2, 372586, Note_off_c, 4, 76, 127
2, 372588, Note_on_c, 1, 73, 127
2, 372652, Note_off_c, 1, 49, 127
2, 372720, Note_off_c, 1, 73, 127
2, 372722, Note_on_c, 10, 57, 127
2, 372722, Note_on_c, 6, 78, 127
2, 372852, Note_off_c, 6, 78, 127
2, 372852, Note_off_c, 10, 57, 127
2, 372855, Note_on_c, 6, 54, 127
2, 372855, Note_on_c, 3, 75, 127
2, 372985, Note_off_c, 3, 75, 127
2, 372985, Note_off_c, 6, 54, 127
2, 372987, Note_on_c, 10, 57, 127
2, 372987, Note_on_c, 6, 78, 127
2, 373117, Note_off_c, 6, 78, 127
2, 373117, Note_off_c, 10, 57, 127
2, 373117, Note_off_c, 10, 81, 127
2, 373119, Note_on_c, 0, 60, 127
2, 373119, Note_on_c, 10, 81, 127
2, 373249, Note_off_c, 10, 81, 127
2, 373249, Note_off_c, 0, 60, 127
2, 373251, Note_on_c, 3, 51, 127
2, 373251, Note_on_c, 12, 83, 127
2, 373251, Note_on_c, 6, 78, 127
2, 373381, Note_off_c, 6, 78, 127
2, 373381, Note_off_c, 3, 51, 127
2, 373384, Note_on_c, 12, 59, 127
2, 373384, Note_on_c, 3, 75, 127
2, 373514, Note_off_c, 3, 75, 127
2, 373514, Note_off_c, 12, 59, 127
2, 373516, Note_on_c, 10, 57, 127
2, 373516, Note_on_c, 6, 78, 127
2, 373646, Note_off_c, 6, 78, 127
2, 373646, Note_off_c, 10, 57, 127
2, 373648, Note_on_c, 7, 55, 127
2, 373648, Note_on_c, 4, 76, 127
2, 373778, Note_off_c, 4, 76, 127
2, 373778, Note_off_c, 7, 55, 127
2, 373781, Note_on_c, 4, 52, 127
2, 373781, Note_on_c, 7, 79, 127
2, 373911, Note_off_c, 7, 79, 127
2, 373911, Note_off_c, 4, 52, 127
2, 373913, Note_on_c, 12, 47, 127
2, 373913, Note_on_c, 3, 75, 127
2, 374043, Note_off_c, 3, 75, 127
2, 374043, Note_off_c, 12, 47, 127
2, 374045, Note_on_c, 4, 52, 127
2, 374045, Note_on_c, 4, 76, 127
2, 374175, Note_off_c, 4, 76, 127
2, 374175, Note_off_c, 4, 52, 127
2, 374178, Note_on_c, 12, 47, 127
2, 374178, Note_on_c, 7, 79, 127
2, 374308, Note_off_c, 7, 79, 127
2, 374308, Note_off_c, 12, 47, 127
2, 374311, Note_on_c, 7, 43, 127
2, 374311, Note_on_c, 3, 75, 127
2, 374438, Note_off_c, 12, 83, 127
2, 374441, Note_off_c, 3, 75, 127
2, 374441, Note_off_c, 7, 43, 127
2, 374443, Note_on_c, 0, 48, 127
2, 374443, Note_on_c, 4, 76, 127
2, 374573, Note_off_c, 4, 76, 127
2, 374575, Note_on_c, 8, 80, 127
2, 374705, Note_off_c, 8, 80, 127
2, 374708, Note_on_c, 10, 81, 127
2, 374838, Note_off_c, 10, 81, 127
2, 374840, Note_on_c, 5, 77, 127
2, 374927, Note_off_c, 0, 48, 127
2, 374970, Note_off_c, 5, 77, 127
2, 374972, Note_on_c, 12, 47, 127
2, 374972, Note_on_c, 3, 75, 127
2, 375102, Note_off_c, 3, 75, 127
2, 375102, Note_off_c, 12, 47, 127
2, 375104, Note_on_c, 0, 48, 127
2, 375104, Note_on_c, 4, 76, 127
2, 375234, Note_off_c, 4, 76, 127
2, 375234, Note_off_c, 0, 48, 127
2, 375237, Note_on_c, 10, 45, 127
2, 375237, Note_on_c, 0, 72, 127
2, 375367, Note_off_c, 0, 72, 127
2, 375367, Note_off_c, 10, 45, 127
2, 375369, Note_on_c, 12, 47, 127
2, 375369, Note_on_c, 8, 68, 127
2, 375499, Note_off_c, 8, 68, 127
2, 375499, Note_off_c, 12, 47, 127
2, 375501, Note_on_c, 0, 48, 127
2, 375501, Note_on_c, 10, 69, 127
2, 375631, Note_off_c, 10, 69, 127
2, 375631, Note_off_c, 0, 48, 127
2, 375634, Note_on_c, 10, 45, 127
2, 375634, Note_on_c, 5, 65, 127
2, 375764, Note_off_c, 5, 65, 127
2, 375764, Note_off_c, 10, 45, 127
2, 375766, Note_on_c, 12, 47, 127
2, 375766, Note_on_c, 3, 63, 127
2, 375896, Note_off_c, 3, 63, 127
2, 375896, Note_off_c, 12, 47, 127
2, 375898, Note_on_c, 0, 48, 127
2, 375898, Note_on_c, 4, 64, 127
2, 376028, Note_off_c, 4, 64, 127
2, 376028, Note_off_c, 0, 48, 127
2, 376030, Note_on_c, 6, 42, 127
2, 376030, Note_on_c, 3, 63, 127
2, 376160, Note_off_c, 3, 63, 127
2, 376160, Note_off_c, 6, 42, 127
2, 376163, Note_on_c, 10, 45, 127
2, 376163, Note_on_c, 6, 66, 127
2, 376293, Note_off_c, 6, 66, 127
2, 376293, Note_off_c, 10, 45, 127
2, 376295, Note_on_c, 0, 48, 127
2, 376295, Note_on_c, 10, 69, 127
2, 376425, Note_off_c, 10, 69, 127
2, 376425, Note_off_c, 0, 48, 127
2, 376428, Note_on_c, 3, 51, 127
2, 376428, Note_on_c, 0, 72, 127
2, 376558, Note_off_c, 0, 72, 127
2, 376558, Note_off_c, 3, 51, 127
2, 376560, Note_on_c, 6, 54, 127
2, 376560, Note_on_c, 12, 71, 127
2, 376690, Note_off_c, 12, 71, 127
2, 376690, Note_off_c, 6, 54, 127
2, 376693, Note_on_c, 10, 57, 127
2, 376693, Note_on_c, 3, 75, 127
2, 376823, Note_off_c, 3, 75, 127
2, 376823, Note_off_c, 10, 57, 127
2, 376825, Note_on_c, 7, 55, 127
2, 376825, Note_on_c, 4, 76, 127
2, 376955, Note_off_c, 4, 76, 127
2, 376955, Note_off_c, 7, 55, 127
2, 376957, Note_on_c, 6, 54, 127
2, 376957, Note_on_c, 6, 78, 127
2, 377087, Note_off_c, 6, 78, 127
2, 377087, Note_off_c, 6, 54, 127
2, 377090, Note_on_c, 4, 52, 127
2, 377090, Note_on_c, 7, 79, 127
2, 377220, Note_off_c, 7, 79, 127
2, 377220, Note_off_c, 4, 52, 127
2, 377222, Note_on_c, 12, 59, 127
2, 377222, Note_on_c, 12, 71, 127
2, 377352, Note_off_c, 12, 71, 127
2, 377354, Note_on_c, 4, 76, 127
2, 377484, Note_off_c, 4, 76, 127
2, 377484, Note_off_c, 12, 59, 127
2, 377486, Note_on_c, 12, 47, 127
2, 377486, Note_on_c, 3, 75, 127
2, 377486, Note_on_c, 10, 69, 127
2, 377616, Note_off_c, 10, 69, 127
2, 377616, Note_off_c, 3, 75, 127
2, 377616, Note_off_c, 12, 47, 127
2, 377619, Note_on_c, 4, 52, 127
2, 377619, Note_on_c, 4, 76, 127
2, 377619, Note_on_c, 7, 67, 127
2, 377749, Note_off_c, 7, 67, 127
2, 377751, Note_on_c, 4, 64, 127
2, 377881, Note_off_c, 4, 64, 127
2, 377881, Note_off_c, 4, 52, 127
2, 377883, Note_on_c, 0, 60, 127
2, 377883, Note_on_c, 10, 69, 127
2, 378013, Note_off_c, 10, 69, 127
2, 378013, Note_off_c, 0, 60, 127
2, 378016, Note_on_c, 12, 59, 127
2, 378016, Note_on_c, 7, 67, 127
2, 378146, Note_off_c, 7, 67, 127
2, 378148, Note_on_c, 4, 64, 127
2, 378278, Note_off_c, 4, 64, 127
2, 378278, Note_off_c, 12, 59, 127
2, 378280, Note_on_c, 3, 51, 127
2, 378280, Note_on_c, 12, 71, 127
2, 378410, Note_off_c, 12, 71, 127
2, 378410, Note_off_c, 3, 51, 127
2, 378412, Note_on_c, 4, 52, 127
2, 378412, Note_on_c, 7, 67, 127
2, 378542, Note_off_c, 7, 67, 127
2, 378545, Note_on_c, 4, 64, 127
2, 378674, Note_off_c, 4, 52, 127
2, 378675, Note_off_c, 4, 64, 127
2, 378678, Note_on_c, 0, 60, 127
2, 378678, Note_on_c, 10, 69, 127
2, 378808, Note_off_c, 10, 69, 127
2, 378808, Note_off_c, 0, 60, 127
2, 378810, Note_on_c, 12, 59, 127
2, 378810, Note_on_c, 7, 67, 127
2, 378940, Note_off_c, 7, 67, 127
2, 378943, Note_on_c, 4, 64, 127
2, 379072, Note_off_c, 12, 59, 127
2, 379073, Note_off_c, 4, 64, 127
2, 379075, Note_on_c, 3, 51, 127
2, 379075, Note_on_c, 12, 71, 127
2, 379200, Note_off_c, 4, 76, 127
2, 379205, Note_off_c, 12, 71, 127
2, 379205, Note_off_c, 3, 51, 127
2, 379207, Note_on_c, 4, 52, 127
2, 379207, Note_on_c, 8, 68, 127
2, 379337, Note_off_c, 8, 68, 127
2, 379337, Note_off_c, 4, 52, 127
2, 379339, Note_on_c, 8, 56, 127
2, 379339, Note_on_c, 12, 71, 127
2, 379469, Note_off_c, 12, 71, 127
2, 379469, Note_off_c, 8, 56, 127
2, 379472, Note_on_c, 12, 59, 127
2, 379472, Note_on_c, 2, 74, 127
2, 379602, Note_off_c, 2, 74, 127
2, 379602, Note_off_c, 12, 59, 127
2, 379604, Note_on_c, 8, 56, 127
2, 379604, Note_on_c, 4, 64, 127
2, 379734, Note_off_c, 8, 56, 127
2, 379736, Note_on_c, 4, 52, 127
2, 379800, Note_off_c, 4, 64, 127
2, 379868, Note_off_c, 4, 52, 127
2, 379870, Note_on_c, 10, 57, 127
2, 379870, Note_on_c, 0, 72, 127
2, 380000, Note_off_c, 0, 72, 127
2, 380000, Note_off_c, 10, 57, 127
2, 380002, Note_on_c, 6, 54, 127
2, 380002, Note_on_c, 10, 69, 127
2, 380132, Note_off_c, 10, 69, 127
2, 380132, Note_off_c, 6, 54, 127
2, 380135, Note_on_c, 10, 57, 127
2, 380135, Note_on_c, 0, 72, 127
2, 380265, Note_off_c, 0, 72, 127
2, 380265, Note_off_c, 10, 57, 127
2, 380267, Note_on_c, 0, 60, 127
2, 380267, Note_on_c, 4, 76, 127
2, 380397, Note_off_c, 4, 76, 127
2, 380397, Note_off_c, 0, 60, 127
2, 380399, Note_on_c, 10, 57, 127
2, 380399, Note_on_c, 6, 66, 127
2, 380529, Note_off_c, 10, 57, 127
2, 380532, Note_on_c, 6, 54, 127
2, 380595, Note_off_c, 6, 66, 127
2, 380664, Note_off_c, 6, 54, 127
2, 380665, Note_on_c, 12, 59, 127
2, 380665, Note_on_c, 2, 74, 127
2, 380795, Note_off_c, 2, 74, 127
2, 380795, Note_off_c, 12, 59, 127
2, 380798, Note_on_c, 8, 56, 127
2, 380798, Note_on_c, 12, 71, 127
2, 380928, Note_off_c, 12, 71, 127
2, 380928, Note_off_c, 8, 56, 127
2, 380930, Note_on_c, 12, 59, 127
2, 380930, Note_on_c, 2, 74, 127
2, 381060, Note_off_c, 2, 74, 127
2, 381060, Note_off_c, 12, 59, 127
2, 381062, Note_on_c, 2, 62, 127
2, 381062, Note_on_c, 5, 77, 127
2, 381192, Note_off_c, 2, 62, 127
2, 381195, Note_on_c, 12, 59, 127
2, 381195, Note_on_c, 8, 68, 127
2, 381324, Note_off_c, 5, 77, 127
2, 381325, Note_off_c, 12, 59, 127
2, 381328, Note_on_c, 8, 56, 127
2, 381328, Note_on_c, 4, 76, 127
2, 381458, Note_off_c, 4, 76, 127
2, 381458, Note_off_c, 8, 56, 127
2, 381460, Note_on_c, 12, 59, 127
2, 381460, Note_on_c, 2, 74, 127
2, 381586, Note_off_c, 8, 68, 127
2, 381590, Note_off_c, 2, 74, 127
2, 381590, Note_off_c, 12, 59, 127
2, 381592, Note_on_c, 10, 57, 127
2, 381592, Note_on_c, 0, 72, 127
2, 381722, Note_off_c, 0, 72, 127
2, 381725, Note_on_c, 10, 69, 127
2, 381855, Note_off_c, 10, 69, 127
2, 381857, Note_on_c, 5, 65, 127
2, 381857, Note_on_c, 2, 74, 127
2, 381987, Note_off_c, 2, 74, 127
2, 381987, Note_off_c, 5, 65, 127
2, 381989, Note_on_c, 4, 64, 127
2, 381989, Note_on_c, 0, 72, 127
2, 382119, Note_off_c, 0, 72, 127
2, 382122, Note_on_c, 10, 69, 127
2, 382251, Note_off_c, 10, 57, 127
2, 382252, Note_off_c, 10, 69, 127
2, 382254, Note_on_c, 8, 56, 127
2, 382254, Note_on_c, 4, 76, 127
2, 382384, Note_off_c, 4, 76, 127
2, 382384, Note_off_c, 8, 56, 127
2, 382386, Note_on_c, 10, 57, 127
2, 382386, Note_on_c, 0, 72, 127
2, 382516, Note_off_c, 0, 72, 127
2, 382518, Note_on_c, 10, 69, 127
2, 382648, Note_off_c, 10, 69, 127
2, 382648, Note_off_c, 4, 64, 127
2, 382651, Note_on_c, 5, 65, 127
2, 382651, Note_on_c, 2, 74, 127
2, 382781, Note_off_c, 2, 74, 127
2, 382781, Note_off_c, 5, 65, 127
2, 382783, Note_on_c, 4, 64, 127
2, 382783, Note_on_c, 0, 72, 127
2, 382913, Note_off_c, 0, 72, 127
2, 382915, Note_on_c, 10, 69, 127
2, 383045, Note_off_c, 10, 69, 127
2, 383045, Note_off_c, 10, 57, 127
2, 383048, Note_on_c, 8, 56, 127
2, 383048, Note_on_c, 4, 76, 127
2, 383178, Note_off_c, 4, 76, 127
2, 383178, Note_off_c, 8, 56, 127
2, 383180, Note_on_c, 10, 57, 127
2, 383180, Note_on_c, 1, 73, 127
2, 383310, Note_off_c, 1, 73, 127
2, 383310, Note_off_c, 10, 57, 127
2, 383312, Note_on_c, 1, 61, 127
2, 383312, Note_on_c, 4, 76, 127
2, 383442, Note_off_c, 4, 76, 127
2, 383442, Note_off_c, 1, 61, 127
2, 383442, Note_off_c, 4, 64, 127
2, 383445, Note_on_c, 4, 64, 127
2, 383445, Note_on_c, 7, 79, 127
2, 383575, Note_off_c, 7, 79, 127
2, 383575, Note_off_c, 4, 64, 127
2, 383578, Note_on_c, 1, 61, 127
2, 383578, Note_on_c, 10, 69, 127
2, 383708, Note_off_c, 1, 61, 127
2, 383710, Note_on_c, 10, 57, 127
2, 383840, Note_off_c, 10, 57, 127
2, 383840, Note_off_c, 10, 69, 127
2, 383842, Note_on_c, 2, 62, 127
2, 383842, Note_on_c, 6, 78, 127
2, 383972, Note_off_c, 6, 78, 127
2, 383972, Note_off_c, 2, 62, 127
2, 383974, Note_on_c, 12, 59, 127
2, 383974, Note_on_c, 2, 74, 127
2, 384104, Note_off_c, 2, 74, 127
2, 384104, Note_off_c, 12, 59, 127
2, 384107, Note_on_c, 2, 62, 127
2, 384107, Note_on_c, 6, 78, 127
2, 384237, Note_off_c, 6, 78, 127
2, 384237, Note_off_c, 2, 62, 127
2, 384239, Note_on_c, 6, 66, 127
2, 384239, Note_on_c, 10, 81, 127
2, 384369, Note_off_c, 10, 81, 127
2, 384369, Note_off_c, 6, 66, 127
2, 384371, Note_on_c, 2, 62, 127
2, 384371, Note_on_c, 12, 71, 127
2, 384501, Note_off_c, 2, 62, 127
2, 384504, Note_on_c, 12, 59, 127
2, 384633, Note_off_c, 12, 71, 127
2, 384634, Note_off_c, 12, 59, 127
2, 384636, Note_on_c, 4, 64, 127
2, 384636, Note_on_c, 7, 79, 127
2, 384766, Note_off_c, 7, 79, 127
2, 384766, Note_off_c, 4, 64, 127
2, 384768, Note_on_c, 1, 61, 127
2, 384768, Note_on_c, 4, 76, 127
2, 384898, Note_off_c, 4, 76, 127
2, 384898, Note_off_c, 1, 61, 127
2, 384900, Note_on_c, 4, 64, 127
2, 384900, Note_on_c, 7, 79, 127
2, 385030, Note_off_c, 7, 79, 127
2, 385030, Note_off_c, 4, 64, 127
2, 385033, Note_on_c, 7, 67, 127
2, 385033, Note_on_c, 12, 83, 127
2, 385163, Note_off_c, 7, 67, 127
2, 385165, Note_on_c, 4, 64, 127
2, 385165, Note_on_c, 1, 73, 127
2, 385295, Note_off_c, 1, 73, 127
2, 385295, Note_off_c, 4, 64, 127
2, 385295, Note_off_c, 12, 83, 127
2, 385297, Note_on_c, 1, 61, 127
2, 385297, Note_on_c, 10, 81, 127
2, 385427, Note_off_c, 10, 81, 127
2, 385427, Note_off_c, 1, 61, 127
2, 385430, Note_on_c, 4, 64, 127
2, 385430, Note_on_c, 7, 79, 127
2, 385560, Note_off_c, 7, 79, 127
2, 385560, Note_off_c, 4, 64, 127
2, 385562, Note_on_c, 2, 62, 127
2, 385562, Note_on_c, 6, 78, 127
2, 385692, Note_off_c, 6, 78, 127
2, 385695, Note_on_c, 2, 74, 127
2, 385824, Note_off_c, 2, 62, 127
2, 385825, Note_off_c, 2, 74, 127
2, 385827, Note_on_c, 12, 71, 127
2, 385827, Note_on_c, 7, 79, 127
2, 385957, Note_off_c, 7, 79, 127
2, 385957, Note_off_c, 12, 71, 127
2, 385960, Note_on_c, 10, 69, 127
2, 385960, Note_on_c, 6, 78, 127
2, 386090, Note_off_c, 6, 78, 127
2, 386092, Note_on_c, 2, 74, 127
2, 386222, Note_off_c, 2, 74, 127
2, 386222, Note_off_c, 10, 69, 127
2, 386224, Note_on_c, 1, 61, 127
2, 386224, Note_on_c, 10, 81, 127
2, 386354, Note_off_c, 10, 81, 127
2, 386354, Note_off_c, 1, 61, 127
2, 386357, Note_on_c, 2, 62, 127
2, 386357, Note_on_c, 6, 78, 127
2, 386487, Note_off_c, 6, 78, 127
2, 386489, Note_on_c, 2, 74, 127
2, 386619, Note_off_c, 2, 74, 127
2, 386619, Note_off_c, 2, 62, 127
2, 386621, Note_on_c, 12, 71, 127
2, 386621, Note_on_c, 7, 79, 127
2, 386751, Note_off_c, 7, 79, 127
2, 386751, Note_off_c, 12, 71, 127
2, 386753, Note_on_c, 10, 69, 127
2, 386753, Note_on_c, 6, 78, 127
2, 386883, Note_off_c, 6, 78, 127
2, 386886, Note_on_c, 2, 74, 127
2, 387015, Note_off_c, 10, 69, 127
2, 387016, Note_off_c, 2, 74, 127
2, 387018, Note_on_c, 1, 61, 127
2, 387018, Note_on_c, 10, 81, 127
2, 387148, Note_off_c, 10, 81, 127
2, 387148, Note_off_c, 1, 61, 127
2, 387150, Note_on_c, 2, 62, 127
2, 387150, Note_on_c, 6, 78, 127
2, 387280, Note_off_c, 6, 78, 127
2, 387280, Note_off_c, 2, 62, 127
2, 387282, Note_on_c, 6, 66, 127
2, 387282, Note_on_c, 10, 81, 127
2, 387412, Note_off_c, 10, 81, 127
2, 387412, Note_off_c, 6, 66, 127
2, 387415, Note_on_c, 10, 69, 127
2, 387415, Note_on_c, 0, 84, 127
2, 387545, Note_off_c, 0, 84, 127
2, 387545, Note_off_c, 10, 69, 127
2, 387547, Note_on_c, 6, 66, 127
2, 387547, Note_on_c, 2, 74, 127
2, 387677, Note_off_c, 6, 66, 127
2, 387679, Note_on_c, 2, 62, 127
2, 387743, Note_off_c, 2, 74, 127
2, 387811, Note_off_c, 2, 62, 127
2, 387813, Note_on_c, 7, 67, 127
2, 387813, Note_on_c, 12, 83, 127
2, 387943, Note_off_c, 12, 83, 127
2, 387943, Note_off_c, 7, 67, 127
2, 387946, Note_on_c, 0, 60, 127
2, 387946, Note_on_c, 4, 76, 127
2, 388076, Note_off_c, 4, 76, 127
2, 388076, Note_off_c, 0, 60, 127
2, 388078, Note_on_c, 4, 64, 127
2, 388078, Note_on_c, 7, 79, 127
2, 388208, Note_off_c, 7, 79, 127
2, 388208, Note_off_c, 4, 64, 127
2, 388211, Note_on_c, 7, 67, 127
2, 388211, Note_on_c, 12, 83, 127
2, 388341, Note_off_c, 12, 83, 127
2, 388341, Note_off_c, 7, 67, 127
2, 388343, Note_on_c, 4, 64, 127
2, 388343, Note_on_c, 0, 72, 127
2, 388473, Note_off_c, 4, 64, 127
2, 388476, Note_on_c, 0, 60, 127
2, 388539, Note_off_c, 0, 72, 127
2, 388608, Note_off_c, 0, 60, 127
2, 388610, Note_on_c, 6, 66, 127
2, 388610, Note_on_c, 10, 81, 127
2, 388740, Note_off_c, 10, 81, 127
2, 388740, Note_off_c, 6, 66, 127
2, 388742, Note_on_c, 12, 59, 127
2, 388742, Note_on_c, 2, 74, 127
2, 388872, Note_off_c, 2, 74, 127
2, 388872, Note_off_c, 12, 59, 127
2, 388874, Note_on_c, 2, 62, 127
2, 388874, Note_on_c, 6, 78, 127
2, 389004, Note_off_c, 6, 78, 127
2, 389004, Note_off_c, 2, 62, 127
2, 389006, Note_on_c, 6, 66, 127
2, 389006, Note_on_c, 10, 81, 127
2, 389136, Note_off_c, 10, 81, 127
2, 389136, Note_off_c, 6, 66, 127
2, 389139, Note_on_c, 2, 62, 127
2, 389139, Note_on_c, 12, 71, 127
2, 389269, Note_off_c, 2, 62, 127
2, 389271, Note_on_c, 12, 59, 127
2, 389335, Note_off_c, 12, 71, 127
2, 389403, Note_off_c, 12, 59, 127
2, 389405, Note_on_c, 4, 64, 127
2, 389405, Note_on_c, 7, 79, 127
2, 389535, Note_off_c, 7, 79, 127
2, 389535, Note_off_c, 4, 64, 127
2, 389537, Note_on_c, 10, 57, 127
2, 389537, Note_on_c, 0, 72, 127
2, 389667, Note_off_c, 0, 72, 127
2, 389667, Note_off_c, 10, 57, 127
2, 389670, Note_on_c, 0, 60, 127
2, 389670, Note_on_c, 4, 76, 127
2, 389800, Note_off_c, 4, 76, 127
2, 389800, Note_off_c, 0, 60, 127
2, 389802, Note_on_c, 4, 64, 127
2, 389802, Note_on_c, 7, 79, 127
2, 389932, Note_off_c, 7, 79, 127
2, 389932, Note_off_c, 4, 64, 127
2, 389934, Note_on_c, 0, 60, 127
2, 389934, Note_on_c, 10, 69, 127
2, 390064, Note_off_c, 10, 69, 127
2, 390064, Note_off_c, 0, 60, 127
2, 390066, Note_on_c, 10, 57, 127
2, 390066, Note_on_c, 0, 72, 127
2, 390196, Note_off_c, 0, 72, 127
2, 390196, Note_off_c, 10, 57, 127
2, 390199, Note_on_c, 0, 60, 127
2, 390199, Note_on_c, 4, 76, 127
2, 390329, Note_off_c, 4, 76, 127
2, 390329, Note_off_c, 0, 60, 127
2, 390331, Note_on_c, 2, 62, 127
2, 390331, Note_on_c, 6, 66, 127
2, 390461, Note_off_c, 6, 66, 127
2, 390461, Note_off_c, 2, 62, 127
2, 390463, Note_on_c, 10, 57, 127
2, 390463, Note_on_c, 10, 69, 127
2, 390593, Note_off_c, 10, 69, 127
2, 390593, Note_off_c, 10, 57, 127
2, 390595, Note_on_c, 6, 54, 127
2, 390595, Note_on_c, 0, 72, 127
2, 390725, Note_off_c, 0, 72, 127
2, 390725, Note_off_c, 6, 54, 127
2, 390728, Note_on_c, 2, 50, 127
2, 390728, Note_on_c, 2, 62, 127
2, 390858, Note_off_c, 2, 62, 127
2, 390861, Note_on_c, 6, 66, 127
2, 390990, Note_off_c, 2, 50, 127
2, 390991, Note_off_c, 6, 66, 127
2, 390993, Note_on_c, 10, 45, 127
2, 390993, Note_on_c, 10, 69, 127
2, 391123, Note_off_c, 10, 69, 127
2, 391123, Note_off_c, 10, 45, 127
2, 391126, Note_on_c, 6, 42, 127
2, 391126, Note_on_c, 0, 72, 127
2, 391256, Note_off_c, 6, 42, 127
2, 391258, Note_on_c, 2, 38, 127
2, 391388, Note_off_c, 2, 38, 127
2, 391390, Note_on_c, 7, 43, 127
2, 391390, Note_on_c, 12, 71, 127
2, 391520, Note_off_c, 12, 71, 127
2, 391520, Note_off_c, 7, 43, 127
2, 391522, Note_on_c, 6, 42, 127
2, 391522, Note_on_c, 10, 69, 127
2, 391652, Note_off_c, 6, 42, 127
2, 391655, Note_on_c, 2, 38, 127
2, 391785, Note_off_c, 2, 38, 127
2, 391785, Note_off_c, 0, 72, 127
2, 391787, Note_on_c, 10, 45, 127
2, 391787, Note_on_c, 0, 72, 127
2, 391913, Note_off_c, 10, 69, 127
2, 391917, Note_off_c, 10, 45, 127
2, 391919, Note_on_c, 6, 42, 127
2, 391919, Note_on_c, 2, 62, 127
2, 392049, Note_off_c, 6, 42, 127
2, 392052, Note_on_c, 2, 38, 127
2, 392181, Note_off_c, 2, 62, 127
2, 392182, Note_off_c, 2, 38, 127
2, 392184, Note_on_c, 7, 43, 127
2, 392184, Note_on_c, 12, 71, 127
2, 392314, Note_off_c, 12, 71, 127
2, 392314, Note_off_c, 7, 43, 127
2, 392316, Note_on_c, 6, 42, 127
2, 392316, Note_on_c, 10, 69, 127
2, 392446, Note_off_c, 6, 42, 127
2, 392446, Note_off_c, 0, 72, 127
2, 392448, Note_on_c, 2, 38, 127
2, 392578, Note_off_c, 2, 38, 127
2, 392581, Note_on_c, 10, 45, 127
2, 392581, Note_on_c, 0, 72, 127
2, 392707, Note_off_c, 10, 69, 127
2, 392711, Note_off_c, 10, 45, 127
2, 392713, Note_on_c, 6, 42, 127
2, 392713, Note_on_c, 2, 62, 127
2, 392843, Note_off_c, 2, 62, 127
2, 392843, Note_off_c, 6, 42, 127
2, 392845, Note_on_c, 10, 45, 127
2, 392845, Note_on_c, 6, 66, 127
2, 392975, Note_off_c, 6, 66, 127
2, 392975, Note_off_c, 10, 45, 127
2, 392978, Note_on_c, 0, 48, 127
2, 392978, Note_on_c, 10, 69, 127
2, 393108, Note_off_c, 10, 69, 127
2, 393108, Note_off_c, 0, 48, 127
2, 393111, Note_on_c, 2, 38, 127
2, 393111, Note_on_c, 6, 66, 127
2, 393240, Note_off_c, 0, 72, 127
2, 393243, Note_on_c, 10, 69, 127
2, 393307, Note_off_c, 2, 38, 127
2, 393375, Note_off_c, 10, 69, 127
2, 393377, Note_on_c, 12, 47, 127
2, 393377, Note_on_c, 2, 74, 127
2, 393504, Note_off_c, 6, 66, 127
2, 393507, Note_off_c, 12, 47, 127
2, 393509, Note_on_c, 7, 43, 127
2, 393509, Note_on_c, 4, 64, 127
2, 393639, Note_off_c, 4, 64, 127
2, 393639, Note_off_c, 7, 43, 127
2, 393642, Note_on_c, 12, 47, 127
2, 393642, Note_on_c, 7, 67, 127
2, 393772, Note_off_c, 7, 67, 127
2, 393772, Note_off_c, 12, 47, 127
2, 393774, Note_on_c, 2, 50, 127
2, 393774, Note_on_c, 12, 71, 127
2, 393904, Note_off_c, 12, 71, 127
2, 393904, Note_off_c, 2, 50, 127
2, 393906, Note_on_c, 4, 40, 127
2, 393906, Note_on_c, 7, 67, 127
2, 394036, Note_off_c, 2, 74, 127
2, 394038, Note_on_c, 12, 71, 127
2, 394102, Note_off_c, 4, 40, 127
2, 394170, Note_off_c, 12, 71, 127
2, 394172, Note_on_c, 0, 48, 127
2, 394172, Note_on_c, 4, 76, 127
2, 394299, Note_off_c, 7, 67, 127
2, 394302, Note_off_c, 0, 48, 127
2, 394305, Note_on_c, 10, 45, 127
2, 394305, Note_on_c, 6, 66, 127
2, 394435, Note_off_c, 6, 66, 127
2, 394435, Note_off_c, 10, 45, 127
2, 394437, Note_on_c, 0, 48, 127
2, 394437, Note_on_c, 10, 69, 127
2, 394567, Note_off_c, 10, 69, 127
2, 394567, Note_off_c, 0, 48, 127
2, 394569, Note_on_c, 4, 52, 127
2, 394569, Note_on_c, 0, 72, 127
2, 394699, Note_off_c, 0, 72, 127
2, 394699, Note_off_c, 4, 52, 127
2, 394702, Note_on_c, 6, 42, 127
2, 394702, Note_on_c, 10, 69, 127
2, 394831, Note_off_c, 4, 76, 127
2, 394832, Note_off_c, 6, 42, 127
2, 394834, Note_on_c, 2, 50, 127
2, 394834, Note_on_c, 0, 72, 127
2, 394964, Note_off_c, 0, 72, 127
2, 394964, Note_off_c, 2, 50, 127
2, 394966, Note_on_c, 6, 78, 127
2, 394966, Note_on_c, 0, 48, 127
2, 395093, Note_off_c, 10, 69, 127
2, 395098, Note_off_c, 0, 48, 127
2, 395098, Note_off_c, 6, 78, 127
2, 395100, Note_on_c, 7, 79, 127
2, 395100, Note_on_c, 12, 47, 127
2, 395232, Note_off_c, 12, 47, 127
2, 395236, Note_on_c, 2, 74, 127
2, 395236, Note_on_c, 2, 50, 127
2, 395368, Note_off_c, 2, 50, 127
2, 395368, Note_off_c, 2, 74, 127
2, 395371, Note_on_c, 12, 71, 127
2, 395371, Note_on_c, 7, 55, 127
2, 395503, Note_off_c, 7, 55, 127
2, 395503, Note_off_c, 12, 71, 127
2, 395507, Note_on_c, 7, 67, 127
2, 395507, Note_on_c, 12, 59, 127
2, 395638, Note_off_c, 7, 79, 127
2, 395639, Note_off_c, 12, 59, 127
2, 395643, Note_on_c, 5, 77, 127
2, 395643, Note_on_c, 7, 55, 127
2, 395775, Note_off_c, 7, 55, 127
2, 395775, Note_off_c, 5, 77, 127
2, 395778, Note_on_c, 12, 59, 127
2, 395778, Note_on_c, 2, 74, 127
2, 395907, Note_off_c, 7, 67, 127
2, 395912, Note_off_c, 2, 74, 127
2, 395912, Note_off_c, 12, 59, 127
2, 395914, Note_on_c, 0, 60, 127
2, 395914, Note_on_c, 4, 76, 127
2, 396048, Note_off_c, 0, 60, 127
2, 396055, Note_on_c, 10, 57, 127
2, 396055, Note_on_c, 0, 72, 127
2, 396189, Note_off_c, 0, 72, 127
2, 396189, Note_off_c, 10, 57, 127
2, 396189, Note_off_c, 4, 76, 127
2, 396195, Note_on_c, 6, 54, 127
2, 396195, Note_on_c, 10, 69, 127
2, 396329, Note_off_c, 10, 69, 127
2, 396329, Note_off_c, 6, 54, 127
2, 396335, Note_on_c, 2, 50, 127
2, 396335, Note_on_c, 6, 66, 127
2, 396469, Note_off_c, 2, 50, 127
2, 396476, Note_on_c, 6, 54, 127
2, 396476, Note_on_c, 10, 69, 127
2, 396610, Note_off_c, 10, 69, 127
2, 396610, Note_off_c, 6, 54, 127
2, 396610, Note_off_c, 6, 66, 127
2, 396616, Note_on_c, 0, 72, 127
2, 396616, Note_on_c, 10, 57, 127
2, 396753, Note_off_c, 10, 57, 127
2, 396753, Note_off_c, 0, 72, 127
2, 396758, Note_on_c, 12, 71, 127
2, 396758, Note_on_c, 7, 55, 127
2, 396895, Note_off_c, 12, 71, 127
2, 396901, Note_on_c, 10, 69, 127
2, 397038, Note_off_c, 10, 69, 127
2, 397041, Note_off_c, 7, 55, 127
2, 397045, Note_on_c, 0, 48, 127
2, 397045, Note_on_c, 7, 67, 127
2, 397045, Note_on_c, 4, 64, 127
2, 397187, Note_off_c, 4, 64, 127
2, 397187, Note_off_c, 7, 67, 127
2, 397187, Note_off_c, 0, 48, 127
2, 397194, Note_on_c, 2, 50, 127
2, 397194, Note_on_c, 7, 67, 127
2, 397194, Note_on_c, 2, 62, 127
2, 397336, Note_off_c, 7, 67, 127
2, 397345, Note_on_c, 10, 69, 127
2, 397486, Note_off_c, 2, 62, 127
2, 397486, Note_off_c, 2, 50, 127
2, 397491, Note_off_c, 10, 69, 127
2, 397496, Note_on_c, 2, 38, 127
2, 397496, Note_on_c, 6, 66, 127
2, 397496, Note_on_c, 0, 60, 127
2, 397646, Note_off_c, 6, 66, 127
2, 397646, Note_off_c, 2, 38, 127
2, 397652, Note_on_c, 7, 43, 127
2, 397652, Note_on_c, 7, 67, 127
2, 397804, Note_off_c, 0, 60, 127
2, 397819, Note_on_c, 12, 47, 127
2, 397819, Note_on_c, 2, 62, 127
2, 397990, Note_off_c, 12, 47, 127
2, 398004, Note_on_c, 2, 50, 127
2, 398004, Note_on_c, 12, 59, 127
2, 398175, Note_off_c, 2, 50, 127
2, 398272, Note_on_c, 7, 55, 127
2, 398535, Note_off_c, 2, 62, 127
2, 398593, Note_off_c, 7, 67, 127
2, 398593, Note_off_c, 7, 43, 127
2, 398719, Note_off_c, 12, 59, 127
2, 399672, Note_off_c, 7, 55, 127
2, 403968, End_track
3, 0, Start_track
3, 0, Title_t, "MIDI"
3, 1536, End_track
0, 0, End_of_file
