0, 0, Header, 1, 3, 384
1, 0, Start_track
1, 0, Time_signature, 4, 2, 24, 8
1, 0, Tempo, 500000
1, 348672, End_track
2, 0, Start_track
2, 0, Text_t, "harpsichord: John Sankey"
2, 0, Program_c, 0, 6
2, 0, Pitch_bend_c, 0, 8192
2, 0, Program_c, 1, 6
2, 0, Pitch_bend_c, 1, 7792
2, 0, Program_c, 2, 6
2, 0, Pitch_bend_c, 2, 7876
2, 0, Program_c, 3, 6
2, 0, Pitch_bend_c, 3, 7952
2, 0, Program_c, 4, 6
2, 0, Pitch_bend_c, 4, 7792
2, 0, Program_c, 5, 6
2, 0, Pitch_bend_c, 5, 8112
2, 0, Program_c, 6, 6
2, 0, Pitch_bend_c, 6, 7712
2, 0, Program_c, 7, 6
2, 0, Pitch_bend_c, 7, 8037
2, 0, Program_c, 8, 6
2, 0, Pitch_bend_c, 8, 7872
2, 0, Program_c, 10, 6
2, 0, Pitch_bend_c, 10, 7712
2, 0, Program_c, 11, 6
2, 0, Pitch_bend_c, 11, 8032
2, 0, Program_c, 12, 6
2, 0, Pitch_bend_c, 12, 7872
2, 0, Title_t, "Ger.8l"
2, 62, Note_on_c, 6, 66, 127
2, 234, Note_off_c, 6, 66, 127
2, 237, Note_on_c, 12, 71, 127
2, 409, Note_off_c, 12, 71, 127
2, 412, Note_on_c, 11, 70, 127
2, 584, Note_off_c, 11, 70, 127
2, 586, Note_on_c, 12, 71, 127
2, 671, Note_off_c, 12, 71, 127
2, 674, Note_on_c, 11, 70, 127
2, 759, Note_off_c, 11, 70, 127
2, 761, Note_on_c, 6, 54, 127
2, 761, Note_on_c, 12, 71, 127
2, 933, Note_off_c, 6, 54, 127
2, 936, Note_on_c, 12, 59, 127
2, 1108, Note_off_c, 12, 59, 127
2, 1108, Note_off_c, 12, 71, 127
2, 1111, Note_on_c, 11, 58, 127
2, 1111, Note_on_c, 1, 73, 127
2, 1283, Note_off_c, 1, 73, 127
2, 1283, Note_off_c, 11, 58, 127
2, 1285, Note_on_c, 12, 59, 127
2, 1285, Note_on_c, 2, 74, 127
2, 1457, Note_off_c, 2, 74, 127
2, 1460, Note_on_c, 12, 71, 127
2, 1632, Note_off_c, 12, 71, 127
2, 1632, Note_off_c, 12, 59, 127
2, 1635, Note_on_c, 1, 61, 127
2, 1635, Note_on_c, 4, 76, 127
2, 1807, Note_off_c, 4, 76, 127
2, 1809, Note_on_c, 12, 71, 127
2, 1981, Note_off_c, 12, 71, 127
2, 1982, Note_off_c, 1, 61, 127
2, 1984, Note_on_c, 2, 62, 127
2, 1984, Note_on_c, 6, 78, 127
2, 2156, Note_off_c, 2, 62, 127
2, 2159, Note_on_c, 12, 59, 127
2, 2331, Note_off_c, 12, 59, 127
2, 2331, Note_off_c, 6, 78, 127
2, 2334, Note_on_c, 7, 67, 127
2, 2334, Note_on_c, 12, 71, 127
2, 2506, Note_off_c, 7, 67, 127
2, 2508, Note_on_c, 6, 66, 127
2, 2680, Note_off_c, 6, 66, 127
2, 2683, Note_on_c, 7, 67, 127
2, 2768, Note_off_c, 7, 67, 127
2, 2770, Note_on_c, 6, 66, 127
2, 2789, Note_off_c, 12, 71, 127
2, 2855, Note_off_c, 6, 66, 127
2, 2858, Note_on_c, 7, 67, 127
2, 2858, Note_on_c, 12, 71, 127
2, 3030, Note_off_c, 12, 71, 127
2, 3032, Note_on_c, 4, 76, 127
2, 3204, Note_off_c, 4, 76, 127
2, 3205, Note_off_c, 7, 67, 127
2, 3207, Note_on_c, 6, 66, 127
2, 3207, Note_on_c, 2, 74, 127
2, 3379, Note_off_c, 2, 74, 127
2, 3379, Note_off_c, 6, 66, 127
2, 3382, Note_on_c, 4, 64, 127
2, 3382, Note_on_c, 7, 79, 127
2, 3554, Note_off_c, 7, 79, 127
2, 3557, Note_on_c, 4, 76, 127
2, 3729, Note_off_c, 4, 76, 127
2, 3729, Note_off_c, 4, 64, 127
2, 3731, Note_on_c, 1, 61, 127
2, 3731, Note_on_c, 11, 82, 127
2, 3903, Note_off_c, 11, 82, 127
2, 3906, Note_on_c, 12, 83, 127
2, 4078, Note_off_c, 12, 83, 127
2, 4078, Note_off_c, 1, 61, 127
2, 4081, Note_on_c, 6, 66, 127
2, 4081, Note_on_c, 1, 73, 127
2, 4253, Note_off_c, 1, 73, 127
2, 4256, Note_on_c, 7, 79, 127
2, 4428, Note_off_c, 7, 79, 127
2, 4428, Note_off_c, 6, 66, 127
2, 4430, Note_on_c, 6, 54, 127
2, 4430, Note_on_c, 6, 78, 127
2, 4602, Note_off_c, 6, 78, 127
2, 4605, Note_on_c, 4, 76, 127
2, 4777, Note_off_c, 4, 76, 127
2, 4777, Note_off_c, 6, 54, 127
2, 4780, Note_on_c, 12, 59, 127
2, 4780, Note_on_c, 2, 74, 127
2, 4952, Note_off_c, 2, 74, 127
2, 4954, Note_on_c, 6, 78, 127
2, 5126, Note_off_c, 6, 78, 127
2, 5127, Note_off_c, 12, 59, 127
2, 5129, Note_on_c, 1, 61, 127
2, 5129, Note_on_c, 12, 71, 127
2, 5301, Note_off_c, 12, 71, 127
2, 5304, Note_on_c, 11, 70, 127
2, 5476, Note_off_c, 11, 70, 127
2, 5476, Note_off_c, 1, 61, 127
2, 5479, Note_on_c, 2, 62, 127
2, 5479, Note_on_c, 12, 71, 127
2, 5651, Note_off_c, 12, 71, 127
2, 5653, Note_on_c, 2, 74, 127
2, 5825, Note_off_c, 2, 74, 127
2, 5826, Note_off_c, 2, 62, 127
2, 5828, Note_on_c, 12, 59, 127
2, 5828, Note_on_c, 7, 67, 127
2, 6000, Note_off_c, 7, 67, 127
2, 6003, Note_on_c, 6, 66, 127
2, 6175, Note_off_c, 6, 66, 127
2, 6175, Note_off_c, 12, 59, 127
2, 6177, Note_on_c, 4, 52, 127
2, 6177, Note_on_c, 7, 67, 127
2, 6349, Note_off_c, 4, 52, 127
2, 6352, Note_on_c, 12, 59, 127
2, 6431, Note_off_c, 7, 67, 127
2, 6524, Note_off_c, 12, 59, 127
2, 6527, Note_on_c, 4, 64, 127
2, 6527, Note_on_c, 12, 83, 127
2, 6699, Note_off_c, 4, 64, 127
2, 6702, Note_on_c, 2, 62, 127
2, 6874, Note_off_c, 2, 62, 127
2, 6876, Note_on_c, 1, 61, 127
2, 7049, Note_off_c, 12, 83, 127
2, 7051, Note_on_c, 7, 79, 127
2, 7223, Note_off_c, 7, 79, 127
2, 7223, Note_off_c, 1, 61, 127
2, 7226, Note_on_c, 12, 59, 127
2, 7226, Note_on_c, 4, 76, 127
2, 7398, Note_off_c, 4, 76, 127
2, 7400, Note_on_c, 2, 74, 127
2, 7572, Note_off_c, 2, 74, 127
2, 7573, Note_off_c, 12, 59, 127
2, 7575, Note_on_c, 10, 57, 127
2, 7575, Note_on_c, 1, 73, 127
2, 7747, Note_off_c, 1, 73, 127
2, 7750, Note_on_c, 4, 76, 127
2, 7922, Note_off_c, 4, 76, 127
2, 7922, Note_off_c, 10, 57, 127
2, 7925, Note_on_c, 7, 55, 127
2, 7925, Note_on_c, 10, 69, 127
2, 8097, Note_off_c, 10, 69, 127
2, 8099, Note_on_c, 7, 67, 127
2, 8271, Note_off_c, 7, 67, 127
2, 8272, Note_off_c, 7, 55, 127
2, 8274, Note_on_c, 6, 54, 127
2, 8274, Note_on_c, 10, 69, 127
2, 8446, Note_off_c, 10, 69, 127
2, 8449, Note_on_c, 1, 73, 127
2, 8621, Note_off_c, 1, 73, 127
2, 8621, Note_off_c, 6, 54, 127
2, 8624, Note_on_c, 4, 52, 127
2, 8624, Note_on_c, 6, 66, 127
2, 8796, Note_off_c, 6, 66, 127
2, 8798, Note_on_c, 4, 64, 127
2, 8970, Note_off_c, 4, 64, 127
2, 8971, Note_off_c, 4, 52, 127
2, 8973, Note_on_c, 2, 50, 127
2, 8973, Note_on_c, 6, 66, 127
2, 9145, Note_off_c, 2, 50, 127
2, 9148, Note_on_c, 10, 57, 127
2, 9227, Note_off_c, 6, 66, 127
2, 9320, Note_off_c, 10, 57, 127
2, 9322, Note_on_c, 2, 62, 127
2, 9322, Note_on_c, 10, 81, 127
2, 9494, Note_off_c, 2, 62, 127
2, 9497, Note_on_c, 1, 61, 127
2, 9669, Note_off_c, 1, 61, 127
2, 9672, Note_on_c, 12, 59, 127
2, 9844, Note_off_c, 10, 81, 127
2, 9847, Note_on_c, 6, 78, 127
2, 10019, Note_off_c, 6, 78, 127
2, 10019, Note_off_c, 12, 59, 127
2, 10021, Note_on_c, 10, 57, 127
2, 10021, Note_on_c, 2, 74, 127
2, 10193, Note_off_c, 2, 74, 127
2, 10196, Note_on_c, 1, 73, 127
2, 10368, Note_off_c, 1, 73, 127
2, 10368, Note_off_c, 10, 57, 127
2, 10371, Note_on_c, 7, 55, 127
2, 10371, Note_on_c, 12, 71, 127
2, 10543, Note_off_c, 12, 71, 127
2, 10545, Note_on_c, 2, 74, 127
2, 10717, Note_off_c, 2, 74, 127
2, 10718, Note_off_c, 7, 55, 127
2, 10720, Note_on_c, 6, 54, 127
2, 10720, Note_on_c, 7, 67, 127
2, 10892, Note_off_c, 7, 67, 127
2, 10895, Note_on_c, 6, 66, 127
2, 11067, Note_off_c, 6, 66, 127
2, 11067, Note_off_c, 6, 54, 127
2, 11070, Note_on_c, 4, 52, 127
2, 11070, Note_on_c, 7, 67, 127
2, 11242, Note_off_c, 7, 67, 127
2, 11244, Note_on_c, 12, 71, 127
2, 11416, Note_off_c, 12, 71, 127
2, 11417, Note_off_c, 4, 52, 127
2, 11419, Note_on_c, 2, 50, 127
2, 11419, Note_on_c, 4, 76, 127
2, 11591, Note_off_c, 4, 76, 127
2, 11594, Note_on_c, 2, 74, 127
2, 11766, Note_off_c, 2, 74, 127
2, 11766, Note_off_c, 2, 50, 127
2, 11768, Note_on_c, 1, 49, 127
2, 11768, Note_on_c, 4, 76, 127
2, 11940, Note_off_c, 1, 49, 127
2, 11943, Note_on_c, 4, 52, 127
2, 12115, Note_off_c, 4, 52, 127
2, 12118, Note_on_c, 10, 57, 127
2, 12208, Note_off_c, 4, 76, 127
2, 12290, Note_off_c, 10, 57, 127
2, 12293, Note_on_c, 7, 55, 127
2, 12293, Note_on_c, 4, 64, 127
2, 12465, Note_off_c, 4, 64, 127
2, 12465, Note_off_c, 7, 55, 127
2, 12467, Note_on_c, 10, 57, 127
2, 12467, Note_on_c, 6, 66, 127
2, 12639, Note_off_c, 6, 66, 127
2, 12642, Note_on_c, 10, 69, 127
2, 12814, Note_off_c, 10, 69, 127
2, 12817, Note_on_c, 2, 74, 127
2, 12989, Note_off_c, 2, 74, 127
2, 12989, Note_off_c, 10, 57, 127
2, 12992, Note_on_c, 6, 54, 127
2, 12992, Note_on_c, 1, 73, 127
2, 13164, Note_off_c, 1, 73, 127
2, 13164, Note_off_c, 6, 54, 127
2, 13166, Note_on_c, 12, 47, 127
2, 13166, Note_on_c, 2, 74, 127
2, 13338, Note_off_c, 12, 47, 127
2, 13341, Note_on_c, 6, 54, 127
2, 13513, Note_off_c, 6, 54, 127
2, 13516, Note_on_c, 12, 59, 127
2, 13637, Note_off_c, 2, 74, 127
2, 13688, Note_off_c, 12, 59, 127
2, 13690, Note_on_c, 10, 57, 127
2, 13690, Note_on_c, 12, 71, 127
2, 13862, Note_off_c, 12, 71, 127
2, 13862, Note_off_c, 10, 57, 127
2, 13865, Note_on_c, 7, 55, 127
2, 13865, Note_on_c, 4, 76, 127
2, 14037, Note_off_c, 4, 76, 127
2, 14040, Note_on_c, 7, 79, 127
2, 14212, Note_off_c, 7, 79, 127
2, 14212, Note_off_c, 7, 55, 127
2, 14215, Note_on_c, 10, 57, 127
2, 14215, Note_on_c, 12, 83, 127
2, 14387, Note_off_c, 12, 83, 127
2, 14389, Note_on_c, 1, 73, 127
2, 14561, Note_off_c, 1, 73, 127
2, 14562, Note_off_c, 10, 57, 127
2, 14564, Note_on_c, 2, 50, 127
2, 14564, Note_on_c, 2, 74, 127
2, 14680, Note_off_c, 2, 74, 127
2, 14739, Note_on_c, 6, 66, 127
2, 14911, Note_off_c, 6, 66, 127
2, 14913, Note_on_c, 12, 71, 127
2, 15085, Note_off_c, 12, 71, 127
2, 15088, Note_on_c, 11, 70, 127
2, 15260, Note_off_c, 11, 70, 127
2, 15263, Note_on_c, 12, 71, 127
2, 15364, Note_off_c, 2, 50, 127
2, 15438, Note_on_c, 12, 47, 127
2, 15610, Note_off_c, 12, 47, 127
2, 15612, Note_on_c, 7, 55, 127
2, 15784, Note_off_c, 7, 55, 127
2, 15787, Note_on_c, 6, 54, 127
2, 15959, Note_off_c, 6, 54, 127
2, 15962, Note_on_c, 7, 55, 127
2, 16063, Note_off_c, 12, 71, 127
2, 16136, Note_on_c, 11, 70, 127
2, 16308, Note_off_c, 11, 70, 127
2, 16309, Note_off_c, 7, 55, 127
2, 16311, Note_on_c, 1, 49, 127
2, 16311, Note_on_c, 4, 76, 127
2, 16483, Note_off_c, 4, 76, 127
2, 16486, Note_on_c, 2, 74, 127
2, 16658, Note_off_c, 2, 74, 127
2, 16661, Note_on_c, 4, 76, 127
2, 16784, Note_off_c, 1, 49, 127
2, 16835, Note_on_c, 6, 54, 127
2, 17007, Note_off_c, 6, 54, 127
2, 17010, Note_on_c, 12, 59, 127
2, 17182, Note_off_c, 12, 59, 127
2, 17185, Note_on_c, 11, 58, 127
2, 17357, Note_off_c, 11, 58, 127
2, 17360, Note_on_c, 12, 59, 127
2, 17461, Note_off_c, 4, 76, 127
2, 17534, Note_on_c, 2, 74, 127
2, 17706, Note_off_c, 2, 74, 127
2, 17707, Note_off_c, 12, 59, 127
2, 17709, Note_on_c, 12, 47, 127
2, 17709, Note_on_c, 8, 80, 127
2, 17881, Note_off_c, 8, 80, 127
2, 17884, Note_on_c, 6, 78, 127
2, 18056, Note_off_c, 6, 78, 127
2, 18058, Note_on_c, 8, 80, 127
2, 18182, Note_off_c, 12, 47, 127
2, 18233, Note_on_c, 5, 53, 127
2, 18405, Note_off_c, 5, 53, 127
2, 18408, Note_on_c, 10, 57, 127
2, 18580, Note_off_c, 10, 57, 127
2, 18583, Note_on_c, 8, 56, 127
2, 18755, Note_off_c, 8, 56, 127
2, 18757, Note_on_c, 10, 57, 127
2, 18858, Note_off_c, 8, 80, 127
2, 18932, Note_on_c, 1, 73, 127
2, 19104, Note_off_c, 1, 73, 127
2, 19107, Note_on_c, 6, 78, 127
2, 19279, Note_off_c, 6, 78, 127
2, 19281, Note_on_c, 5, 77, 127
2, 19453, Note_off_c, 5, 77, 127
2, 19456, Note_on_c, 6, 78, 127
2, 19621, Note_off_c, 10, 57, 127
2, 19631, Note_on_c, 6, 54, 127
2, 19631, Note_on_c, 10, 81, 127
2, 19639, Note_off_c, 6, 78, 127
2, 19803, Note_off_c, 10, 81, 127
2, 19803, Note_off_c, 6, 54, 127
2, 19806, Note_on_c, 12, 59, 127
2, 19806, Note_on_c, 8, 80, 127
2, 19978, Note_off_c, 8, 80, 127
2, 19978, Note_off_c, 12, 59, 127
2, 19980, Note_on_c, 10, 57, 127
2, 19980, Note_on_c, 6, 78, 127
2, 20152, Note_off_c, 6, 78, 127
2, 20152, Note_off_c, 10, 57, 127
2, 20155, Note_on_c, 12, 59, 127
2, 20155, Note_on_c, 5, 77, 127
2, 20327, Note_off_c, 12, 59, 127
2, 20330, Note_on_c, 2, 62, 127
2, 20482, Note_off_c, 5, 77, 127
2, 20502, Note_off_c, 2, 62, 127
2, 20504, Note_on_c, 1, 61, 127
2, 20504, Note_on_c, 1, 73, 127
2, 20676, Note_off_c, 1, 61, 127
2, 20679, Note_on_c, 12, 59, 127
2, 20777, Note_off_c, 1, 73, 127
2, 20851, Note_off_c, 12, 59, 127
2, 20854, Note_on_c, 10, 57, 127
2, 20854, Note_on_c, 6, 78, 127
2, 21026, Note_off_c, 10, 57, 127
2, 21029, Note_on_c, 6, 54, 127
2, 21201, Note_off_c, 6, 54, 127
2, 21203, Note_on_c, 12, 59, 127
2, 21375, Note_off_c, 12, 59, 127
2, 21376, Note_off_c, 6, 78, 127
2, 21378, Note_on_c, 11, 58, 127
2, 21378, Note_on_c, 4, 76, 127
2, 21550, Note_off_c, 4, 76, 127
2, 21550, Note_off_c, 11, 58, 127
2, 21553, Note_on_c, 12, 59, 127
2, 21553, Note_on_c, 2, 74, 127
2, 21725, Note_off_c, 2, 74, 127
2, 21728, Note_on_c, 6, 66, 127
2, 21900, Note_off_c, 6, 66, 127
2, 21900, Note_off_c, 12, 59, 127
2, 21902, Note_on_c, 10, 57, 127
2, 21902, Note_on_c, 12, 71, 127
2, 22074, Note_off_c, 12, 71, 127
2, 22077, Note_on_c, 10, 69, 127
2, 22249, Note_off_c, 10, 69, 127
2, 22249, Note_off_c, 10, 57, 127
2, 22252, Note_on_c, 8, 56, 127
2, 22252, Note_on_c, 12, 71, 127
2, 22424, Note_off_c, 8, 56, 127
2, 22426, Note_on_c, 5, 53, 127
2, 22598, Note_off_c, 5, 53, 127
2, 22601, Note_on_c, 2, 62, 127
2, 22773, Note_off_c, 2, 62, 127
2, 22776, Note_on_c, 1, 61, 127
2, 22948, Note_off_c, 1, 61, 127
2, 22951, Note_on_c, 2, 62, 127
2, 23052, Note_off_c, 12, 71, 127
2, 23125, Note_on_c, 10, 69, 127
2, 23297, Note_off_c, 10, 69, 127
2, 23298, Note_off_c, 2, 62, 127
2, 23300, Note_on_c, 12, 59, 127
2, 23300, Note_on_c, 8, 68, 127
2, 23472, Note_off_c, 8, 68, 127
2, 23475, Note_on_c, 12, 71, 127
2, 23647, Note_off_c, 12, 71, 127
2, 23647, Note_off_c, 12, 59, 127
2, 23649, Note_on_c, 8, 56, 127
2, 23649, Note_on_c, 5, 65, 127
2, 23821, Note_off_c, 5, 65, 127
2, 23824, Note_on_c, 2, 74, 127
2, 23996, Note_off_c, 2, 74, 127
2, 23996, Note_off_c, 8, 56, 127
2, 23999, Note_on_c, 5, 53, 127
2, 23999, Note_on_c, 1, 73, 127
2, 24171, Note_off_c, 1, 73, 127
2, 24174, Note_on_c, 12, 71, 127
2, 24346, Note_off_c, 12, 71, 127
2, 24346, Note_off_c, 5, 53, 127
2, 24348, Note_on_c, 6, 54, 127
2, 24348, Note_on_c, 10, 69, 127
2, 24520, Note_off_c, 10, 69, 127
2, 24523, Note_on_c, 5, 65, 127
2, 24695, Note_off_c, 5, 65, 127
2, 24695, Note_off_c, 6, 54, 127
2, 24698, Note_on_c, 12, 47, 127
2, 24698, Note_on_c, 6, 66, 127
2, 24870, Note_off_c, 6, 66, 127
2, 24872, Note_on_c, 12, 71, 127
2, 25044, Note_off_c, 12, 71, 127
2, 25045, Note_off_c, 12, 47, 127
2, 25047, Note_on_c, 1, 49, 127
2, 25047, Note_on_c, 12, 71, 127
2, 25132, Note_off_c, 12, 71, 127
2, 25135, Note_on_c, 10, 69, 127
2, 25220, Note_off_c, 10, 69, 127
2, 25222, Note_on_c, 12, 71, 127
2, 25307, Note_off_c, 12, 71, 127
2, 25309, Note_on_c, 10, 69, 127
2, 25394, Note_off_c, 10, 69, 127
2, 25394, Note_off_c, 1, 49, 127
2, 25397, Note_on_c, 1, 37, 127
2, 25397, Note_on_c, 8, 68, 127
2, 25569, Note_off_c, 8, 68, 127
2, 25571, Note_on_c, 6, 66, 127
2, 25743, Note_off_c, 6, 66, 127
2, 25744, Note_off_c, 1, 37, 127
2, 25746, Note_on_c, 6, 42, 127
2, 25746, Note_on_c, 6, 66, 127
2, 25918, Note_off_c, 6, 42, 127
2, 25921, Note_on_c, 6, 54, 127
2, 26093, Note_off_c, 6, 54, 127
2, 26096, Note_on_c, 4, 64, 127
2, 26268, Note_off_c, 4, 64, 127
2, 26270, Note_on_c, 2, 62, 127
2, 26442, Note_off_c, 2, 62, 127
2, 26445, Note_on_c, 4, 64, 127
2, 26617, Note_off_c, 4, 64, 127
2, 26620, Note_on_c, 6, 54, 127
2, 26792, Note_off_c, 6, 54, 127
2, 26794, Note_on_c, 2, 62, 127
2, 26966, Note_off_c, 2, 62, 127
2, 26969, Note_on_c, 1, 61, 127
2, 27141, Note_off_c, 1, 61, 127
2, 27141, Note_off_c, 6, 66, 127
2, 27144, Note_on_c, 2, 62, 127
2, 27316, Note_off_c, 2, 62, 127
2, 27319, Note_on_c, 6, 54, 127
2, 27319, Note_on_c, 12, 71, 127
2, 27491, Note_off_c, 12, 71, 127
2, 27491, Note_off_c, 6, 54, 127
2, 27493, Note_on_c, 1, 61, 127
2, 27493, Note_on_c, 4, 76, 127
2, 27665, Note_off_c, 4, 76, 127
2, 27665, Note_off_c, 1, 61, 127
2, 27668, Note_on_c, 12, 59, 127
2, 27668, Note_on_c, 2, 74, 127
2, 27840, Note_off_c, 2, 74, 127
2, 27840, Note_off_c, 12, 59, 127
2, 27843, Note_on_c, 1, 61, 127
2, 27843, Note_on_c, 4, 76, 127
2, 28015, Note_off_c, 1, 61, 127
2, 28017, Note_on_c, 6, 54, 127
2, 28017, Note_on_c, 11, 70, 127
2, 28170, Note_off_c, 4, 76, 127
2, 28189, Note_off_c, 11, 70, 127
2, 28189, Note_off_c, 6, 54, 127
2, 28192, Note_on_c, 12, 59, 127
2, 28192, Note_on_c, 2, 74, 127
2, 28364, Note_off_c, 2, 74, 127
2, 28364, Note_off_c, 12, 59, 127
2, 28367, Note_on_c, 11, 58, 127
2, 28367, Note_on_c, 1, 73, 127
2, 28539, Note_off_c, 1, 73, 127
2, 28539, Note_off_c, 11, 58, 127
2, 28542, Note_on_c, 12, 59, 127
2, 28542, Note_on_c, 2, 74, 127
2, 28716, Note_on_c, 8, 68, 127
2, 28851, Note_off_c, 2, 74, 127
2, 28888, Note_off_c, 8, 68, 127
2, 28891, Note_on_c, 1, 73, 127
2, 29063, Note_off_c, 1, 73, 127
2, 29066, Note_on_c, 12, 71, 127
2, 29238, Note_off_c, 12, 71, 127
2, 29240, Note_on_c, 1, 73, 127
2, 29413, Note_off_c, 12, 59, 127
2, 29415, Note_on_c, 5, 53, 127
2, 29587, Note_off_c, 5, 53, 127
2, 29590, Note_on_c, 10, 57, 127
2, 29762, Note_off_c, 10, 57, 127
2, 29765, Note_on_c, 8, 56, 127
2, 29937, Note_off_c, 8, 56, 127
2, 29939, Note_on_c, 10, 57, 127
2, 30077, Note_off_c, 1, 73, 127
2, 30114, Note_on_c, 6, 66, 127
2, 30286, Note_off_c, 6, 66, 127
2, 30286, Note_off_c, 10, 57, 127
2, 30289, Note_on_c, 6, 54, 127
2, 30289, Note_on_c, 2, 74, 127
2, 30461, Note_off_c, 2, 74, 127
2, 30464, Note_on_c, 1, 73, 127
2, 30636, Note_off_c, 1, 73, 127
2, 30636, Note_off_c, 6, 54, 127
2, 30638, Note_on_c, 1, 61, 127
2, 30638, Note_on_c, 6, 66, 127
2, 30723, Note_off_c, 6, 66, 127
2, 30726, Note_on_c, 5, 65, 127
2, 30811, Note_off_c, 5, 65, 127
2, 30813, Note_on_c, 6, 66, 127
2, 30898, Note_off_c, 6, 66, 127
2, 30900, Note_on_c, 5, 65, 127
2, 30985, Note_off_c, 1, 61, 127
2, 30988, Note_on_c, 1, 49, 127
2, 31160, Note_off_c, 5, 65, 127
2, 31162, Note_on_c, 6, 66, 127
2, 31334, Note_off_c, 6, 66, 127
2, 31335, Note_off_c, 1, 49, 127
2, 31337, Note_on_c, 6, 54, 127
2, 31337, Note_on_c, 6, 66, 127
2, 31512, Note_on_c, 4, 64, 127
2, 31684, Note_off_c, 4, 64, 127
2, 31687, Note_on_c, 11, 58, 127
2, 31687, Note_on_c, 2, 62, 127
2, 31859, Note_off_c, 2, 62, 127
2, 31861, Note_on_c, 1, 61, 127
2, 32033, Note_off_c, 1, 61, 127
2, 32036, Note_on_c, 2, 62, 127
2, 32209, Note_off_c, 11, 58, 127
2, 32211, Note_on_c, 12, 59, 127
2, 32383, Note_off_c, 12, 59, 127
2, 32383, Note_off_c, 2, 62, 127
2, 32385, Note_on_c, 11, 58, 127
2, 32385, Note_on_c, 1, 61, 127
2, 32557, Note_off_c, 1, 61, 127
2, 32557, Note_off_c, 11, 58, 127
2, 32560, Note_on_c, 8, 56, 127
2, 32560, Note_on_c, 12, 59, 127
2, 32732, Note_off_c, 12, 59, 127
2, 32732, Note_off_c, 8, 56, 127
2, 32735, Note_on_c, 11, 58, 127
2, 32735, Note_on_c, 1, 61, 127
2, 33426, Note_off_c, 1, 61, 127
2, 33426, Note_off_c, 11, 58, 127
2, 33537, Note_off_c, 6, 66, 127
2, 33537, Note_off_c, 6, 54, 127
2, 33608, Note_on_c, 1, 73, 127
2, 33780, Note_off_c, 1, 73, 127
2, 33783, Note_on_c, 8, 68, 127
2, 33955, Note_off_c, 8, 68, 127
2, 33958, Note_on_c, 12, 71, 127
2, 34130, Note_off_c, 12, 71, 127
2, 34133, Note_on_c, 11, 70, 127
2, 34307, Note_on_c, 6, 66, 127
2, 34479, Note_off_c, 6, 66, 127
2, 34482, Note_on_c, 1, 61, 127
2, 34624, Note_off_c, 11, 70, 127
2, 34654, Note_off_c, 1, 61, 127
2, 34657, Note_on_c, 4, 64, 127
2, 34657, Note_on_c, 1, 73, 127
2, 34829, Note_off_c, 1, 73, 127
2, 34829, Note_off_c, 4, 64, 127
2, 34832, Note_on_c, 2, 62, 127
2, 34832, Note_on_c, 6, 66, 127
2, 35004, Note_off_c, 6, 66, 127
2, 35006, Note_on_c, 6, 78, 127
2, 35178, Note_off_c, 6, 78, 127
2, 35179, Note_off_c, 2, 62, 127
2, 35181, Note_on_c, 11, 58, 127
2, 35181, Note_on_c, 1, 73, 127
2, 35353, Note_off_c, 1, 73, 127
2, 35356, Note_on_c, 4, 76, 127
2, 35526, Note_off_c, 11, 58, 127
2, 35528, Note_off_c, 4, 76, 127
2, 35530, Note_on_c, 2, 74, 127
2, 35705, Note_on_c, 12, 59, 127
2, 35877, Note_off_c, 12, 59, 127
2, 35880, Note_on_c, 6, 54, 127
2, 36021, Note_off_c, 2, 74, 127
2, 36052, Note_off_c, 6, 54, 127
2, 36055, Note_on_c, 10, 57, 127
2, 36055, Note_on_c, 6, 78, 127
2, 36227, Note_off_c, 6, 78, 127
2, 36227, Note_off_c, 10, 57, 127
2, 36229, Note_on_c, 7, 55, 127
2, 36229, Note_on_c, 12, 71, 127
2, 36401, Note_off_c, 12, 71, 127
2, 36404, Note_on_c, 12, 83, 127
2, 36576, Note_off_c, 12, 83, 127
2, 36576, Note_off_c, 7, 55, 127
2, 36579, Note_on_c, 3, 51, 127
2, 36579, Note_on_c, 6, 78, 127
2, 36751, Note_off_c, 6, 78, 127
2, 36753, Note_on_c, 10, 81, 127
2, 36925, Note_off_c, 10, 81, 127
2, 36926, Note_off_c, 3, 51, 127
2, 36928, Note_on_c, 4, 52, 127
2, 36928, Note_on_c, 7, 79, 127
2, 37100, Note_off_c, 7, 79, 127
2, 37103, Note_on_c, 4, 76, 127
2, 37275, Note_off_c, 4, 76, 127
2, 37275, Note_off_c, 4, 52, 127
2, 37278, Note_on_c, 7, 55, 127
2, 37278, Note_on_c, 12, 71, 127
2, 37450, Note_off_c, 12, 71, 127
2, 37452, Note_on_c, 2, 74, 127
2, 37624, Note_off_c, 2, 74, 127
2, 37625, Note_off_c, 7, 55, 127
2, 37627, Note_on_c, 10, 57, 127
2, 37627, Note_on_c, 0, 72, 127
2, 37799, Note_off_c, 0, 72, 127
2, 37802, Note_on_c, 7, 79, 127
2, 37974, Note_off_c, 7, 79, 127
2, 37974, Note_off_c, 10, 57, 127
2, 37976, Note_on_c, 0, 60, 127
2, 37976, Note_on_c, 6, 78, 127
2, 38148, Note_off_c, 6, 78, 127
2, 38151, Note_on_c, 10, 81, 127
2, 38285, Note_off_c, 0, 60, 127
2, 38323, Note_off_c, 10, 81, 127
2, 38326, Note_on_c, 4, 76, 127
2, 38498, Note_off_c, 4, 76, 127
2, 38501, Note_on_c, 12, 59, 127
2, 38501, Note_on_c, 3, 75, 127
2, 38673, Note_off_c, 3, 75, 127
2, 38673, Note_off_c, 12, 59, 127
2, 38675, Note_on_c, 6, 54, 127
2, 38675, Note_on_c, 1, 73, 127
2, 38847, Note_off_c, 1, 73, 127
2, 38847, Note_off_c, 6, 54, 127
2, 38850, Note_on_c, 10, 57, 127
2, 38850, Note_on_c, 12, 71, 127
2, 39022, Note_off_c, 10, 57, 127
2, 39025, Note_on_c, 7, 55, 127
2, 39050, Note_off_c, 12, 71, 127
2, 39200, Note_on_c, 4, 76, 127
2, 39372, Note_off_c, 4, 76, 127
2, 39372, Note_off_c, 7, 55, 127
2, 39374, Note_on_c, 4, 52, 127
2, 39374, Note_on_c, 12, 71, 127
2, 39546, Note_off_c, 12, 71, 127
2, 39549, Note_on_c, 2, 74, 127
2, 39721, Note_off_c, 2, 74, 127
2, 39721, Note_off_c, 4, 52, 127
2, 39724, Note_on_c, 10, 57, 127
2, 39724, Note_on_c, 0, 72, 127
2, 39898, Note_on_c, 4, 76, 127
2, 39924, Note_off_c, 0, 72, 127
2, 40070, Note_off_c, 4, 76, 127
2, 40071, Note_off_c, 10, 57, 127
2, 40073, Note_on_c, 6, 54, 127
2, 40073, Note_on_c, 10, 69, 127
2, 40245, Note_off_c, 10, 69, 127
2, 40248, Note_on_c, 0, 72, 127
2, 40420, Note_off_c, 0, 72, 127
2, 40420, Note_off_c, 6, 54, 127
2, 40423, Note_on_c, 7, 55, 127
2, 40423, Note_on_c, 12, 71, 127
2, 40597, Note_on_c, 4, 76, 127
2, 40623, Note_off_c, 12, 71, 127
2, 40769, Note_off_c, 4, 76, 127
2, 40770, Note_off_c, 7, 55, 127
2, 40772, Note_on_c, 4, 52, 127
2, 40772, Note_on_c, 7, 67, 127
2, 40944, Note_off_c, 7, 67, 127
2, 40947, Note_on_c, 12, 71, 127
2, 41119, Note_off_c, 12, 71, 127
2, 41119, Note_off_c, 4, 52, 127
2, 41121, Note_on_c, 0, 60, 127
2, 41121, Note_on_c, 10, 69, 127
2, 41296, Note_on_c, 4, 76, 127
2, 41321, Note_off_c, 10, 69, 127
2, 41468, Note_off_c, 4, 76, 127
2, 41468, Note_off_c, 0, 60, 127
2, 41471, Note_on_c, 10, 57, 127
2, 41471, Note_on_c, 6, 66, 127
2, 41643, Note_off_c, 6, 66, 127
2, 41646, Note_on_c, 10, 69, 127
2, 41818, Note_off_c, 10, 69, 127
2, 41818, Note_off_c, 10, 57, 127
2, 41820, Note_on_c, 12, 59, 127
2, 41820, Note_on_c, 7, 67, 127
2, 41995, Note_on_c, 4, 76, 127
2, 42020, Note_off_c, 7, 67, 127
2, 42167, Note_off_c, 4, 76, 127
2, 42167, Note_off_c, 12, 59, 127
2, 42170, Note_on_c, 7, 55, 127
2, 42170, Note_on_c, 4, 64, 127
2, 42342, Note_off_c, 4, 64, 127
2, 42344, Note_on_c, 7, 67, 127
2, 42516, Note_off_c, 7, 67, 127
2, 42517, Note_off_c, 7, 55, 127
2, 42519, Note_on_c, 10, 57, 127
2, 42519, Note_on_c, 6, 66, 127
2, 42691, Note_off_c, 6, 66, 127
2, 42694, Note_on_c, 4, 76, 127
2, 42866, Note_off_c, 4, 76, 127
2, 42866, Note_off_c, 10, 57, 127
2, 42869, Note_on_c, 6, 54, 127
2, 42869, Note_on_c, 3, 75, 127
2, 43041, Note_off_c, 3, 75, 127
2, 43043, Note_on_c, 10, 81, 127
2, 43215, Note_off_c, 10, 81, 127
2, 43216, Note_off_c, 6, 54, 127
2, 43218, Note_on_c, 12, 47, 127
2, 43218, Note_on_c, 4, 76, 127
2, 43303, Note_off_c, 4, 76, 127
2, 43305, Note_on_c, 6, 78, 127
2, 43390, Note_off_c, 6, 78, 127
2, 43390, Note_off_c, 12, 47, 127
2, 43393, Note_on_c, 12, 59, 127
2, 43393, Note_on_c, 7, 79, 127
2, 43478, Note_off_c, 7, 79, 127
2, 43480, Note_on_c, 6, 78, 127
2, 43565, Note_off_c, 6, 78, 127
2, 43565, Note_off_c, 12, 59, 127
2, 43568, Note_on_c, 6, 54, 127
2, 43568, Note_on_c, 7, 79, 127
2, 43653, Note_off_c, 7, 79, 127
2, 43655, Note_on_c, 6, 78, 127
2, 43740, Note_off_c, 6, 78, 127
2, 43740, Note_off_c, 6, 54, 127
2, 43742, Note_on_c, 10, 57, 127
2, 43742, Note_on_c, 4, 76, 127
2, 43914, Note_off_c, 4, 76, 127
2, 43914, Note_off_c, 10, 57, 127
2, 43917, Note_on_c, 7, 55, 127
2, 43917, Note_on_c, 4, 76, 127
2, 44089, Note_off_c, 7, 55, 127
2, 44092, Note_on_c, 12, 59, 127
2, 44264, Note_off_c, 12, 59, 127
2, 44266, Note_on_c, 3, 51, 127
2, 44426, Note_off_c, 4, 76, 127
2, 44438, Note_off_c, 3, 51, 127
2, 44441, Note_on_c, 6, 54, 127
2, 44613, Note_off_c, 6, 54, 127
2, 44616, Note_on_c, 4, 52, 127
2, 44791, Note_on_c, 7, 79, 127
2, 44963, Note_off_c, 7, 79, 127
2, 44963, Note_off_c, 4, 52, 127
2, 44965, Note_on_c, 7, 55, 127
2, 44965, Note_on_c, 12, 71, 127
2, 45137, Note_off_c, 12, 71, 127
2, 45140, Note_on_c, 2, 74, 127
2, 45312, Note_off_c, 2, 74, 127
2, 45312, Note_off_c, 7, 55, 127
2, 45315, Note_on_c, 10, 57, 127
2, 45315, Note_on_c, 1, 73, 127
2, 45487, Note_off_c, 10, 57, 127
2, 45489, Note_on_c, 10, 69, 127
2, 45661, Note_off_c, 10, 69, 127
2, 45664, Note_on_c, 4, 64, 127
2, 45824, Note_off_c, 1, 73, 127
2, 45836, Note_off_c, 4, 64, 127
2, 45839, Note_on_c, 7, 67, 127
2, 45839, Note_on_c, 4, 76, 127
2, 46011, Note_off_c, 4, 76, 127
2, 46011, Note_off_c, 7, 67, 127
2, 46014, Note_on_c, 6, 66, 127
2, 46014, Note_on_c, 10, 69, 127
2, 46186, Note_off_c, 10, 69, 127
2, 46188, Note_on_c, 10, 81, 127
2, 46360, Note_off_c, 10, 81, 127
2, 46361, Note_off_c, 6, 66, 127
2, 46363, Note_on_c, 1, 61, 127
2, 46363, Note_on_c, 4, 76, 127
2, 46535, Note_off_c, 4, 76, 127
2, 46538, Note_on_c, 7, 79, 127
2, 46708, Note_off_c, 1, 61, 127
2, 46710, Note_off_c, 7, 79, 127
2, 46712, Note_on_c, 6, 78, 127
2, 46887, Note_on_c, 2, 62, 127
2, 47059, Note_off_c, 2, 62, 127
2, 47062, Note_on_c, 11, 58, 127
2, 47234, Note_off_c, 11, 58, 127
2, 47237, Note_on_c, 1, 61, 127
2, 47409, Note_off_c, 1, 61, 127
2, 47411, Note_on_c, 12, 59, 127
2, 47494, Note_off_c, 6, 78, 127
2, 47586, Note_on_c, 2, 74, 127
2, 47758, Note_off_c, 2, 74, 127
2, 47758, Note_off_c, 12, 59, 127
2, 47761, Note_on_c, 6, 54, 127
2, 47761, Note_on_c, 11, 70, 127
2, 47933, Note_off_c, 11, 70, 127
2, 47936, Note_on_c, 1, 73, 127
2, 48108, Note_off_c, 1, 73, 127
2, 48108, Note_off_c, 6, 54, 127
2, 48110, Note_on_c, 7, 55, 127
2, 48110, Note_on_c, 12, 71, 127
2, 48282, Note_off_c, 7, 55, 127
2, 48285, Note_on_c, 7, 67, 127
2, 48457, Note_off_c, 7, 67, 127
2, 48460, Note_on_c, 2, 62, 127
2, 48619, Note_off_c, 12, 71, 127
2, 48632, Note_off_c, 2, 62, 127
2, 48634, Note_on_c, 6, 66, 127
2, 48634, Note_on_c, 2, 74, 127
2, 48806, Note_off_c, 2, 74, 127
2, 48806, Note_off_c, 6, 66, 127
2, 48809, Note_on_c, 4, 64, 127
2, 48809, Note_on_c, 7, 67, 127
2, 48981, Note_off_c, 7, 67, 127
2, 48984, Note_on_c, 7, 79, 127
2, 49156, Note_off_c, 7, 79, 127
2, 49156, Note_off_c, 4, 64, 127
2, 49159, Note_on_c, 12, 59, 127
2, 49159, Note_on_c, 2, 74, 127
2, 49331, Note_off_c, 2, 74, 127
2, 49333, Note_on_c, 6, 78, 127
2, 49504, Note_off_c, 12, 59, 127
2, 49505, Note_off_c, 6, 78, 127
2, 49508, Note_on_c, 4, 76, 127
2, 49683, Note_on_c, 1, 61, 127
2, 49855, Note_off_c, 1, 61, 127
2, 49857, Note_on_c, 8, 56, 127
2, 50029, Note_off_c, 8, 56, 127
2, 50032, Note_on_c, 12, 59, 127
2, 50204, Note_off_c, 12, 59, 127
2, 50207, Note_on_c, 11, 58, 127
2, 50290, Note_off_c, 4, 76, 127
2, 50382, Note_on_c, 1, 73, 127
2, 50554, Note_off_c, 1, 73, 127
2, 50554, Note_off_c, 11, 58, 127
2, 50556, Note_on_c, 5, 53, 127
2, 50556, Note_on_c, 8, 68, 127
2, 50728, Note_off_c, 8, 68, 127
2, 50731, Note_on_c, 12, 71, 127
2, 50903, Note_off_c, 12, 71, 127
2, 50903, Note_off_c, 5, 53, 127
2, 50906, Note_on_c, 6, 54, 127
2, 50906, Note_on_c, 11, 70, 127
2, 51078, Note_off_c, 6, 54, 127
2, 51080, Note_on_c, 6, 66, 127
2, 51252, Note_off_c, 6, 66, 127
2, 51255, Note_on_c, 1, 61, 127
2, 51415, Note_off_c, 11, 70, 127
2, 51427, Note_off_c, 1, 61, 127
2, 51430, Note_on_c, 4, 64, 127
2, 51430, Note_on_c, 1, 73, 127
2, 51602, Note_off_c, 1, 73, 127
2, 51602, Note_off_c, 4, 64, 127
2, 51605, Note_on_c, 2, 62, 127
2, 51605, Note_on_c, 6, 66, 127
2, 51777, Note_off_c, 6, 66, 127
2, 51779, Note_on_c, 6, 78, 127
2, 51951, Note_off_c, 6, 78, 127
2, 51952, Note_off_c, 2, 62, 127
2, 51954, Note_on_c, 11, 58, 127
2, 51954, Note_on_c, 1, 73, 127
2, 52126, Note_off_c, 1, 73, 127
2, 52129, Note_on_c, 4, 76, 127
2, 52299, Note_off_c, 11, 58, 127
2, 52301, Note_off_c, 4, 76, 127
2, 52304, Note_on_c, 2, 74, 127
2, 52478, Note_on_c, 12, 59, 127
2, 52650, Note_off_c, 12, 59, 127
2, 52653, Note_on_c, 6, 54, 127
2, 52825, Note_off_c, 6, 54, 127
2, 52828, Note_on_c, 10, 57, 127
2, 53000, Note_off_c, 10, 57, 127
2, 53002, Note_on_c, 7, 55, 127
2, 53123, Note_off_c, 2, 74, 127
2, 53177, Note_on_c, 12, 71, 127
2, 53349, Note_off_c, 12, 71, 127
2, 53349, Note_off_c, 7, 55, 127
2, 53352, Note_on_c, 3, 51, 127
2, 53352, Note_on_c, 6, 66, 127
2, 53524, Note_off_c, 6, 66, 127
2, 53527, Note_on_c, 10, 69, 127
2, 53699, Note_off_c, 10, 69, 127
2, 53699, Note_off_c, 3, 51, 127
2, 53701, Note_on_c, 4, 52, 127
2, 53701, Note_on_c, 7, 67, 127
2, 53873, Note_off_c, 7, 67, 127
2, 53876, Note_on_c, 12, 71, 127
2, 54048, Note_off_c, 12, 71, 127
2, 54048, Note_off_c, 4, 52, 127
2, 54051, Note_on_c, 2, 50, 127
2, 54051, Note_on_c, 4, 64, 127
2, 54223, Note_off_c, 4, 64, 127
2, 54225, Note_on_c, 2, 74, 127
2, 54397, Note_off_c, 2, 74, 127
2, 54398, Note_off_c, 2, 50, 127
2, 54400, Note_on_c, 4, 52, 127
2, 54400, Note_on_c, 1, 73, 127
2, 54572, Note_off_c, 1, 73, 127
2, 54575, Note_on_c, 4, 76, 127
2, 54747, Note_off_c, 4, 76, 127
2, 54747, Note_off_c, 4, 52, 127
2, 54750, Note_on_c, 1, 49, 127
2, 54750, Note_on_c, 7, 79, 127
2, 54922, Note_off_c, 7, 79, 127
2, 54924, Note_on_c, 12, 71, 127
2, 55095, Note_off_c, 1, 49, 127
2, 55096, Note_off_c, 12, 71, 127
2, 55099, Note_on_c, 11, 70, 127
2, 55271, Note_off_c, 11, 70, 127
2, 55274, Note_on_c, 6, 54, 127
2, 55274, Note_on_c, 1, 73, 127
2, 55446, Note_off_c, 1, 73, 127
2, 55446, Note_off_c, 6, 54, 127
2, 55448, Note_on_c, 1, 49, 127
2, 55448, Note_on_c, 6, 66, 127
2, 55620, Note_off_c, 1, 49, 127
2, 55623, Note_on_c, 4, 52, 127
2, 55793, Note_off_c, 6, 66, 127
2, 55795, Note_off_c, 4, 52, 127
2, 55798, Note_on_c, 2, 50, 127
2, 55973, Note_on_c, 12, 71, 127
2, 56145, Note_off_c, 12, 71, 127
2, 56145, Note_off_c, 2, 50, 127
2, 56147, Note_on_c, 12, 47, 127
2, 56147, Note_on_c, 6, 66, 127
2, 56319, Note_off_c, 6, 66, 127
2, 56322, Note_on_c, 10, 69, 127
2, 56494, Note_off_c, 10, 69, 127
2, 56494, Note_off_c, 12, 47, 127
2, 56497, Note_on_c, 4, 52, 127
2, 56497, Note_on_c, 7, 67, 127
2, 56672, Note_on_c, 12, 71, 127
2, 56697, Note_off_c, 7, 67, 127
2, 56844, Note_off_c, 12, 71, 127
2, 56844, Note_off_c, 4, 52, 127
2, 56846, Note_on_c, 1, 49, 127
2, 56846, Note_on_c, 4, 64, 127
2, 57018, Note_off_c, 4, 64, 127
2, 57021, Note_on_c, 7, 67, 127
2, 57193, Note_off_c, 7, 67, 127
2, 57193, Note_off_c, 1, 49, 127
2, 57196, Note_on_c, 2, 50, 127
2, 57196, Note_on_c, 6, 66, 127
2, 57370, Note_on_c, 12, 71, 127
2, 57396, Note_off_c, 6, 66, 127
2, 57542, Note_off_c, 12, 71, 127
2, 57543, Note_off_c, 2, 50, 127
2, 57545, Note_on_c, 12, 47, 127
2, 57545, Note_on_c, 2, 62, 127
2, 57717, Note_off_c, 2, 62, 127
2, 57720, Note_on_c, 6, 66, 127
2, 57892, Note_off_c, 6, 66, 127
2, 57892, Note_off_c, 12, 47, 127
2, 57895, Note_on_c, 7, 55, 127
2, 57895, Note_on_c, 4, 64, 127
2, 58069, Note_on_c, 12, 71, 127
2, 58095, Note_off_c, 4, 64, 127
2, 58241, Note_off_c, 12, 71, 127
2, 58242, Note_off_c, 7, 55, 127
2, 58244, Note_on_c, 4, 52, 127
2, 58244, Note_on_c, 1, 61, 127
2, 58416, Note_off_c, 1, 61, 127
2, 58419, Note_on_c, 4, 64, 127
2, 58591, Note_off_c, 4, 64, 127
2, 58591, Note_off_c, 4, 52, 127
2, 58593, Note_on_c, 6, 54, 127
2, 58593, Note_on_c, 2, 62, 127
2, 58768, Note_on_c, 12, 71, 127
2, 58793, Note_off_c, 2, 62, 127
2, 58940, Note_off_c, 12, 71, 127
2, 58940, Note_off_c, 6, 54, 127
2, 58943, Note_on_c, 2, 50, 127
2, 58943, Note_on_c, 12, 59, 127
2, 59115, Note_off_c, 12, 59, 127
2, 59118, Note_on_c, 2, 62, 127
2, 59290, Note_off_c, 2, 62, 127
2, 59290, Note_off_c, 2, 50, 127
2, 59292, Note_on_c, 4, 52, 127
2, 59292, Note_on_c, 1, 61, 127
2, 59464, Note_off_c, 1, 61, 127
2, 59467, Note_on_c, 12, 71, 127
2, 59639, Note_off_c, 12, 71, 127
2, 59639, Note_off_c, 4, 52, 127
2, 59642, Note_on_c, 1, 49, 127
2, 59642, Note_on_c, 11, 70, 127
2, 59814, Note_off_c, 11, 70, 127
2, 59816, Note_on_c, 4, 76, 127
2, 59988, Note_off_c, 4, 76, 127
2, 59989, Note_off_c, 1, 49, 127
2, 59991, Note_on_c, 6, 54, 127
2, 59991, Note_on_c, 2, 74, 127
2, 60076, Note_off_c, 2, 74, 127
2, 60079, Note_on_c, 1, 73, 127
2, 60164, Note_off_c, 1, 73, 127
2, 60166, Note_on_c, 2, 74, 127
2, 60251, Note_off_c, 2, 74, 127
2, 60253, Note_on_c, 1, 73, 127
2, 60338, Note_off_c, 1, 73, 127
2, 60338, Note_off_c, 6, 54, 127
2, 60341, Note_on_c, 6, 42, 127
2, 60341, Note_on_c, 2, 74, 127
2, 60426, Note_off_c, 2, 74, 127
2, 60428, Note_on_c, 1, 73, 127
2, 60513, Note_off_c, 1, 73, 127
2, 60515, Note_on_c, 12, 71, 127
2, 60687, Note_off_c, 12, 71, 127
2, 60688, Note_off_c, 6, 42, 127
2, 60690, Note_on_c, 7, 43, 127
2, 60690, Note_on_c, 12, 71, 127
2, 60826, Note_off_c, 12, 71, 127
2, 60865, Note_on_c, 7, 67, 127
2, 61037, Note_off_c, 7, 67, 127
2, 61040, Note_on_c, 6, 78, 127
2, 61212, Note_off_c, 6, 78, 127
2, 61214, Note_on_c, 3, 75, 127
2, 61386, Note_off_c, 3, 75, 127
2, 61389, Note_on_c, 4, 76, 127
2, 61527, Note_off_c, 7, 43, 127
2, 61564, Note_on_c, 4, 40, 127
2, 61736, Note_off_c, 4, 40, 127
2, 61738, Note_on_c, 1, 49, 127
2, 61910, Note_off_c, 1, 49, 127
2, 61913, Note_on_c, 11, 46, 127
2, 62085, Note_off_c, 11, 46, 127
2, 62088, Note_on_c, 12, 47, 127
2, 62208, Note_off_c, 4, 76, 127
2, 62263, Note_on_c, 12, 71, 127
2, 62435, Note_off_c, 12, 71, 127
2, 62437, Note_on_c, 8, 80, 127
2, 62609, Note_off_c, 8, 80, 127
2, 62612, Note_on_c, 5, 77, 127
2, 62784, Note_off_c, 5, 77, 127
2, 62787, Note_on_c, 6, 78, 127
2, 62925, Note_off_c, 12, 47, 127
2, 62961, Note_on_c, 11, 46, 127
2, 63133, Note_off_c, 11, 46, 127
2, 63136, Note_on_c, 4, 52, 127
2, 63296, Note_off_c, 6, 78, 127
2, 63308, Note_off_c, 4, 52, 127
2, 63311, Note_on_c, 1, 49, 127
2, 63311, Note_on_c, 4, 76, 127
2, 63483, Note_off_c, 4, 76, 127
2, 63483, Note_off_c, 1, 49, 127
2, 63486, Note_on_c, 7, 55, 127
2, 63486, Note_on_c, 2, 74, 127
2, 63666, Note_off_c, 2, 74, 127
2, 63668, Note_on_c, 1, 73, 127
2, 63848, Note_off_c, 1, 73, 127
2, 63851, Note_off_c, 7, 55, 127
2, 63853, Note_on_c, 4, 52, 127
2, 63853, Note_on_c, 2, 74, 127
2, 64033, Note_off_c, 2, 74, 127
2, 64039, Note_on_c, 12, 71, 127
2, 64218, Note_off_c, 4, 52, 127
2, 64219, Note_off_c, 12, 71, 127
2, 64225, Note_on_c, 6, 54, 127
2, 64225, Note_on_c, 12, 71, 127
2, 64314, Note_off_c, 12, 71, 127
2, 64317, Note_on_c, 11, 70, 127
2, 64406, Note_off_c, 11, 70, 127
2, 64410, Note_on_c, 12, 71, 127
2, 64499, Note_off_c, 12, 71, 127
2, 64503, Note_on_c, 11, 70, 127
2, 64590, Note_off_c, 6, 54, 127
2, 64592, Note_off_c, 11, 70, 127
2, 64596, Note_on_c, 6, 42, 127
2, 64596, Note_on_c, 12, 71, 127
2, 64685, Note_off_c, 12, 71, 127
2, 64689, Note_on_c, 11, 70, 127
2, 64778, Note_off_c, 11, 70, 127
2, 64781, Note_on_c, 12, 71, 127
2, 64961, Note_off_c, 12, 71, 127
2, 64961, Note_off_c, 6, 42, 127
2, 64967, Note_on_c, 12, 71, 127
2, 64967, Note_on_c, 12, 47, 127
2, 65155, Note_on_c, 10, 57, 127
2, 65338, Note_off_c, 10, 57, 127
2, 65346, Note_on_c, 3, 63, 127
2, 65346, Note_on_c, 7, 55, 127
2, 65529, Note_off_c, 7, 55, 127
2, 65537, Note_on_c, 6, 54, 127
2, 65720, Note_off_c, 6, 54, 127
2, 65728, Note_on_c, 7, 55, 127
2, 65913, Note_off_c, 3, 63, 127
2, 65928, Note_on_c, 4, 64, 127
2, 66122, Note_off_c, 4, 64, 127
2, 66126, Note_off_c, 7, 55, 127
2, 66132, Note_on_c, 3, 63, 127
2, 66132, Note_on_c, 6, 54, 127
2, 66326, Note_off_c, 6, 54, 127
2, 66326, Note_off_c, 3, 63, 127
2, 66334, Note_on_c, 1, 61, 127
2, 66334, Note_on_c, 4, 52, 127
2, 66528, Note_off_c, 4, 52, 127
2, 66528, Note_off_c, 1, 61, 127
2, 66582, Note_on_c, 3, 63, 127
2, 66582, Note_on_c, 6, 54, 127
2, 67867, Note_off_c, 12, 71, 127
2, 68367, Note_off_c, 12, 47, 127
2, 68582, Note_off_c, 6, 54, 127
2, 68582, Note_off_c, 3, 63, 127
2, 68678, Note_on_c, 6, 78, 127
2, 68830, Note_off_c, 6, 78, 127
2, 68860, Note_on_c, 6, 78, 127
2, 68860, Note_on_c, 2, 74, 127
2, 68860, Note_on_c, 12, 71, 127
2, 69033, Note_on_c, 4, 64, 127
2, 69204, Note_off_c, 4, 64, 127
2, 69206, Note_on_c, 2, 62, 127
2, 69377, Note_off_c, 2, 62, 127
2, 69379, Note_on_c, 1, 61, 127
2, 69550, Note_off_c, 1, 61, 127
2, 69552, Note_on_c, 2, 62, 127
2, 69723, Note_off_c, 2, 62, 127
2, 69725, Note_on_c, 12, 59, 127
2, 69882, Note_off_c, 12, 71, 127
2, 69882, Note_off_c, 2, 74, 127
2, 69892, Note_off_c, 12, 59, 127
2, 69898, Note_on_c, 11, 58, 127
2, 70048, Note_off_c, 6, 78, 127
2, 70071, Note_on_c, 7, 79, 127
2, 70241, Note_off_c, 11, 58, 127
2, 70242, Note_off_c, 7, 79, 127
2, 70244, Note_on_c, 6, 78, 127
2, 70244, Note_on_c, 1, 61, 127
2, 70415, Note_off_c, 6, 78, 127
2, 70417, Note_on_c, 4, 76, 127
2, 70587, Note_off_c, 1, 61, 127
2, 70588, Note_off_c, 4, 76, 127
2, 70589, Note_on_c, 6, 78, 127
2, 70589, Note_on_c, 6, 54, 127
2, 70760, Note_off_c, 6, 78, 127
2, 70762, Note_on_c, 1, 73, 127
2, 70932, Note_off_c, 6, 54, 127
2, 70933, Note_off_c, 1, 73, 127
2, 70935, Note_on_c, 2, 74, 127
2, 70935, Note_on_c, 12, 59, 127
2, 71108, Note_on_c, 1, 73, 127
2, 71278, Note_off_c, 12, 59, 127
2, 71279, Note_off_c, 1, 73, 127
2, 71281, Note_on_c, 12, 71, 127
2, 71281, Note_on_c, 2, 62, 127
2, 71452, Note_off_c, 12, 71, 127
2, 71454, Note_on_c, 11, 70, 127
2, 71624, Note_off_c, 2, 62, 127
2, 71625, Note_off_c, 11, 70, 127
2, 71627, Note_on_c, 12, 71, 127
2, 71627, Note_on_c, 12, 59, 127
2, 71798, Note_off_c, 12, 71, 127
2, 71800, Note_on_c, 6, 66, 127
2, 71970, Note_off_c, 12, 59, 127
2, 71971, Note_off_c, 6, 66, 127
2, 71973, Note_on_c, 7, 67, 127
2, 71973, Note_on_c, 4, 52, 127
2, 72123, Note_off_c, 2, 74, 127
2, 72146, Note_on_c, 2, 74, 127
2, 72316, Note_off_c, 4, 52, 127
2, 72317, Note_off_c, 2, 74, 127
2, 72318, Note_on_c, 1, 73, 127
2, 72318, Note_on_c, 7, 55, 127
2, 72489, Note_off_c, 1, 73, 127
2, 72491, Note_on_c, 12, 71, 127
2, 72661, Note_off_c, 7, 55, 127
2, 72662, Note_off_c, 12, 71, 127
2, 72664, Note_on_c, 1, 73, 127
2, 72664, Note_on_c, 4, 52, 127
2, 72835, Note_off_c, 1, 73, 127
2, 72837, Note_on_c, 4, 76, 127
2, 73007, Note_off_c, 4, 52, 127
2, 73008, Note_off_c, 4, 76, 127
2, 73010, Note_on_c, 11, 70, 127
2, 73010, Note_on_c, 6, 54, 127
2, 73181, Note_off_c, 7, 67, 127
2, 73183, Note_on_c, 7, 67, 127
2, 73354, Note_off_c, 7, 67, 127
2, 73356, Note_on_c, 6, 66, 127
2, 73514, Note_off_c, 6, 54, 127
2, 73527, Note_off_c, 6, 66, 127
2, 73529, Note_on_c, 4, 64, 127
2, 73700, Note_off_c, 4, 64, 127
2, 73702, Note_on_c, 6, 66, 127
2, 73873, Note_off_c, 6, 66, 127
2, 73874, Note_off_c, 11, 70, 127
2, 73875, Note_on_c, 1, 61, 127
2, 74046, Note_off_c, 1, 61, 127
2, 74047, Note_on_c, 12, 71, 127
2, 74047, Note_on_c, 2, 62, 127
2, 74218, Note_off_c, 2, 62, 127
2, 74220, Note_on_c, 4, 64, 127
2, 74390, Note_off_c, 12, 71, 127
2, 74391, Note_off_c, 4, 64, 127
2, 74393, Note_on_c, 1, 73, 127
2, 74393, Note_on_c, 2, 62, 127
2, 74476, Note_off_c, 1, 73, 127
2, 74479, Note_on_c, 12, 71, 127
2, 74562, Note_off_c, 12, 71, 127
2, 74562, Note_off_c, 2, 62, 127
2, 74564, Note_on_c, 1, 73, 127
2, 74564, Note_on_c, 1, 61, 127
2, 74647, Note_off_c, 1, 73, 127
2, 74650, Note_on_c, 12, 71, 127
2, 74733, Note_off_c, 12, 71, 127
2, 74733, Note_off_c, 1, 61, 127
2, 74735, Note_on_c, 1, 73, 127
2, 74735, Note_on_c, 2, 62, 127
2, 74818, Note_off_c, 1, 73, 127
2, 74821, Note_on_c, 12, 71, 127
2, 74904, Note_off_c, 12, 71, 127
2, 74904, Note_off_c, 2, 62, 127
2, 74906, Note_on_c, 11, 70, 127
2, 74906, Note_on_c, 12, 59, 127
2, 74989, Note_off_c, 11, 70, 127
2, 74992, Note_on_c, 12, 71, 127
2, 75075, Note_off_c, 12, 71, 127
2, 75075, Note_off_c, 12, 59, 127
2, 75078, Note_on_c, 12, 71, 127
2, 75078, Note_on_c, 1, 61, 127
2, 75249, Note_off_c, 1, 61, 127
2, 75250, Note_on_c, 4, 76, 127
2, 75250, Note_on_c, 12, 59, 127
2, 75276, Note_off_c, 12, 71, 127
2, 75421, Note_off_c, 12, 59, 127
2, 75423, Note_on_c, 1, 73, 127
2, 75423, Note_on_c, 11, 58, 127
2, 75573, Note_off_c, 4, 76, 127
2, 75594, Note_off_c, 11, 58, 127
2, 75596, Note_on_c, 6, 78, 127
2, 75596, Note_on_c, 8, 56, 127
2, 75767, Note_off_c, 8, 56, 127
2, 75767, Note_off_c, 6, 78, 127
2, 75769, Note_on_c, 2, 74, 127
2, 75769, Note_on_c, 11, 58, 127
2, 75927, Note_off_c, 1, 73, 127
2, 75940, Note_off_c, 11, 58, 127
2, 75940, Note_off_c, 2, 74, 127
2, 75942, Note_on_c, 1, 73, 127
2, 75942, Note_on_c, 6, 54, 127
2, 76113, Note_off_c, 6, 54, 127
2, 76113, Note_off_c, 1, 73, 127
2, 76115, Note_on_c, 12, 71, 127
2, 76115, Note_on_c, 2, 74, 127
2, 76115, Note_on_c, 12, 59, 127
2, 76286, Note_off_c, 12, 59, 127
2, 76286, Note_off_c, 2, 74, 127
2, 76288, Note_on_c, 4, 76, 127
2, 76288, Note_on_c, 4, 52, 127
2, 76457, Note_off_c, 12, 71, 127
2, 76459, Note_off_c, 4, 52, 127
2, 76459, Note_off_c, 4, 76, 127
2, 76461, Note_on_c, 11, 70, 127
2, 76461, Note_on_c, 2, 74, 127
2, 76461, Note_on_c, 6, 54, 127
2, 76546, Note_off_c, 2, 74, 127
2, 76546, Note_on_c, 1, 73, 127
2, 76631, Note_off_c, 1, 73, 127
2, 76632, Note_on_c, 2, 74, 127
2, 76717, Note_off_c, 2, 74, 127
2, 76717, Note_on_c, 1, 73, 127
2, 76801, Note_off_c, 6, 54, 127
2, 76803, Note_on_c, 6, 42, 127
2, 76960, Note_off_c, 1, 73, 127
2, 76976, Note_on_c, 6, 78, 127
2, 77141, Note_off_c, 11, 70, 127
2, 77146, Note_off_c, 6, 42, 127
2, 77147, Note_off_c, 6, 78, 127
2, 77149, Note_on_c, 12, 71, 127
2, 77149, Note_on_c, 2, 74, 127
2, 77149, Note_on_c, 12, 47, 127
2, 77320, Note_off_c, 12, 47, 127
2, 77322, Note_on_c, 7, 67, 127
2, 77493, Note_off_c, 7, 67, 127
2, 77494, Note_on_c, 6, 66, 127
2, 77616, Note_off_c, 2, 74, 127
2, 77665, Note_off_c, 6, 66, 127
2, 77665, Note_off_c, 12, 71, 127
2, 77667, Note_on_c, 1, 73, 127
2, 77667, Note_on_c, 4, 64, 127
2, 77838, Note_off_c, 4, 64, 127
2, 77838, Note_off_c, 1, 73, 127
2, 77840, Note_on_c, 12, 71, 127
2, 77840, Note_on_c, 6, 66, 127
2, 78011, Note_off_c, 6, 66, 127
2, 78011, Note_off_c, 12, 71, 127
2, 78013, Note_on_c, 1, 73, 127
2, 78013, Note_on_c, 2, 62, 127
2, 78184, Note_off_c, 2, 62, 127
2, 78184, Note_off_c, 1, 73, 127
2, 78186, Note_on_c, 2, 74, 127
2, 78186, Note_on_c, 12, 59, 127
2, 78357, Note_off_c, 12, 59, 127
2, 78357, Note_off_c, 2, 74, 127
2, 78359, Note_on_c, 7, 79, 127
2, 78359, Note_on_c, 4, 64, 127
2, 78530, Note_off_c, 4, 64, 127
2, 78530, Note_off_c, 7, 79, 127
2, 78532, Note_on_c, 6, 78, 127
2, 78532, Note_on_c, 2, 62, 127
2, 78703, Note_off_c, 2, 62, 127
2, 78703, Note_off_c, 6, 78, 127
2, 78705, Note_on_c, 4, 76, 127
2, 78705, Note_on_c, 1, 61, 127
2, 78876, Note_off_c, 1, 61, 127
2, 78876, Note_off_c, 4, 76, 127
2, 78878, Note_on_c, 6, 78, 127
2, 78878, Note_on_c, 2, 62, 127
2, 79049, Note_off_c, 2, 62, 127
2, 79049, Note_off_c, 6, 78, 127
2, 79051, Note_on_c, 2, 74, 127
2, 79051, Note_on_c, 12, 59, 127
2, 79222, Note_off_c, 12, 59, 127
2, 79222, Note_off_c, 2, 74, 127
2, 79223, Note_on_c, 10, 81, 127
2, 79223, Note_on_c, 6, 54, 127
2, 79394, Note_off_c, 6, 54, 127
2, 79396, Note_on_c, 7, 79, 127
2, 79396, Note_on_c, 12, 59, 127
2, 79567, Note_off_c, 12, 59, 127
2, 79567, Note_off_c, 7, 79, 127
2, 79569, Note_on_c, 6, 78, 127
2, 79569, Note_on_c, 10, 57, 127
2, 79740, Note_off_c, 10, 57, 127
2, 79740, Note_off_c, 6, 78, 127
2, 79742, Note_on_c, 4, 76, 127
2, 79742, Note_on_c, 7, 55, 127
2, 79913, Note_off_c, 7, 55, 127
2, 79913, Note_off_c, 4, 76, 127
2, 79915, Note_on_c, 2, 74, 127
2, 79915, Note_on_c, 10, 57, 127
2, 80086, Note_off_c, 10, 57, 127
2, 80086, Note_off_c, 2, 74, 127
2, 80088, Note_on_c, 1, 73, 127
2, 80088, Note_on_c, 6, 54, 127
2, 80244, Note_off_c, 10, 81, 127
2, 80259, Note_off_c, 6, 54, 127
2, 80259, Note_off_c, 1, 73, 127
2, 80261, Note_on_c, 2, 74, 127
2, 80261, Note_on_c, 12, 47, 127
2, 80434, Note_on_c, 4, 76, 127
2, 80443, Note_off_c, 2, 74, 127
2, 80605, Note_off_c, 4, 76, 127
2, 80607, Note_on_c, 2, 74, 127
2, 80607, Note_on_c, 10, 57, 127
2, 80778, Note_off_c, 2, 74, 127
2, 80780, Note_on_c, 1, 73, 127
2, 80950, Note_off_c, 10, 57, 127
2, 80951, Note_off_c, 1, 73, 127
2, 80952, Note_on_c, 2, 74, 127
2, 80952, Note_on_c, 8, 56, 127
2, 81123, Note_off_c, 2, 74, 127
2, 81125, Note_on_c, 12, 83, 127
2, 81275, Note_off_c, 8, 56, 127
2, 81296, Note_off_c, 12, 83, 127
2, 81296, Note_off_c, 12, 47, 127
2, 81298, Note_on_c, 2, 74, 127
2, 81298, Note_on_c, 10, 57, 127
2, 81471, Note_on_c, 6, 54, 127
2, 81641, Note_off_c, 2, 74, 127
2, 81642, Note_off_c, 6, 54, 127
2, 81644, Note_on_c, 1, 73, 127
2, 81644, Note_on_c, 4, 52, 127
2, 81815, Note_off_c, 4, 52, 127
2, 81817, Note_on_c, 2, 50, 127
2, 81988, Note_off_c, 2, 50, 127
2, 81990, Note_on_c, 4, 52, 127
2, 82161, Note_off_c, 4, 52, 127
2, 82163, Note_on_c, 1, 49, 127
2, 82184, Note_off_c, 1, 73, 127
2, 82311, Note_off_c, 10, 57, 127
2, 82324, Note_off_c, 1, 49, 127
2, 82336, Note_on_c, 6, 78, 127
2, 82336, Note_on_c, 1, 73, 127
2, 82336, Note_on_c, 6, 66, 127
2, 82336, Note_on_c, 11, 46, 127
2, 82507, Note_off_c, 11, 46, 127
2, 82509, Note_on_c, 7, 55, 127
2, 82679, Note_off_c, 6, 66, 127
2, 82679, Note_off_c, 1, 73, 127
2, 82679, Note_off_c, 6, 78, 127
2, 82680, Note_off_c, 7, 55, 127
2, 82681, Note_on_c, 4, 76, 127
2, 82681, Note_on_c, 12, 71, 127
2, 82681, Note_on_c, 6, 54, 127
2, 82764, Note_off_c, 4, 76, 127
2, 82767, Note_on_c, 2, 74, 127
2, 82850, Note_off_c, 2, 74, 127
2, 82850, Note_off_c, 6, 54, 127
2, 82853, Note_on_c, 4, 76, 127
2, 82853, Note_on_c, 4, 52, 127
2, 82936, Note_off_c, 4, 76, 127
2, 82938, Note_on_c, 2, 74, 127
2, 83022, Note_off_c, 4, 52, 127
2, 83024, Note_on_c, 6, 54, 127
2, 83181, Note_off_c, 12, 71, 127
2, 83194, Note_off_c, 2, 74, 127
2, 83195, Note_off_c, 6, 54, 127
2, 83197, Note_on_c, 11, 70, 127
2, 83197, Note_on_c, 1, 73, 127
2, 83197, Note_on_c, 2, 50, 127
2, 83368, Note_off_c, 2, 50, 127
2, 83368, Note_off_c, 1, 73, 127
2, 83368, Note_off_c, 11, 70, 127
2, 83369, Note_on_c, 2, 74, 127
2, 83369, Note_on_c, 12, 71, 127
2, 83369, Note_on_c, 12, 47, 127
2, 83540, Note_off_c, 12, 47, 127
2, 83542, Note_on_c, 10, 57, 127
2, 83713, Note_off_c, 10, 57, 127
2, 83715, Note_on_c, 8, 56, 127
2, 83885, Note_off_c, 2, 74, 127
2, 83886, Note_off_c, 8, 56, 127
2, 83888, Note_on_c, 1, 73, 127
2, 83888, Note_on_c, 6, 54, 127
2, 84053, Note_off_c, 12, 71, 127
2, 84059, Note_off_c, 6, 54, 127
2, 84059, Note_off_c, 1, 73, 127
2, 84061, Note_on_c, 12, 71, 127
2, 84061, Note_on_c, 8, 56, 127
2, 84232, Note_off_c, 8, 56, 127
2, 84234, Note_on_c, 12, 59, 127
2, 84405, Note_off_c, 12, 59, 127
2, 84407, Note_on_c, 5, 53, 127
2, 84546, Note_off_c, 12, 71, 127
2, 84578, Note_off_c, 5, 53, 127
2, 84580, Note_on_c, 10, 69, 127
2, 84580, Note_on_c, 1, 61, 127
2, 84751, Note_off_c, 1, 61, 127
2, 84751, Note_off_c, 10, 69, 127
2, 84753, Note_on_c, 8, 68, 127
2, 84753, Note_on_c, 12, 59, 127
2, 84924, Note_off_c, 12, 59, 127
2, 84924, Note_off_c, 8, 68, 127
2, 84926, Note_on_c, 6, 66, 127
2, 84926, Note_on_c, 10, 57, 127
2, 85097, Note_off_c, 10, 57, 127
2, 85097, Note_off_c, 6, 66, 127
2, 85098, Note_on_c, 8, 68, 127
2, 85098, Note_on_c, 12, 59, 127
2, 85269, Note_off_c, 12, 59, 127
2, 85269, Note_off_c, 8, 68, 127
2, 85271, Note_on_c, 12, 71, 127
2, 85271, Note_on_c, 2, 62, 127
2, 85442, Note_off_c, 2, 62, 127
2, 85442, Note_off_c, 12, 71, 127
2, 85444, Note_on_c, 1, 61, 127
2, 85444, Note_on_c, 5, 65, 127
2, 85617, Note_on_c, 1, 49, 127
2, 85788, Note_off_c, 1, 49, 127
2, 85790, Note_on_c, 12, 47, 127
2, 85961, Note_off_c, 12, 47, 127
2, 85963, Note_on_c, 10, 45, 127
2, 86134, Note_off_c, 10, 45, 127
2, 86136, Note_on_c, 12, 47, 127
2, 86307, Note_off_c, 12, 47, 127
2, 86308, Note_off_c, 5, 65, 127
2, 86309, Note_on_c, 8, 44, 127
2, 86379, Note_off_c, 1, 61, 127
2, 86478, Note_off_c, 8, 44, 127
2, 86480, Note_on_c, 1, 61, 127
2, 86480, Note_on_c, 6, 66, 127
2, 86480, Note_on_c, 1, 73, 127
2, 86480, Note_on_c, 10, 45, 127
2, 86651, Note_off_c, 10, 45, 127
2, 86653, Note_on_c, 12, 47, 127
2, 86823, Note_off_c, 1, 73, 127
2, 86823, Note_off_c, 6, 66, 127
2, 86823, Note_off_c, 1, 61, 127
2, 86824, Note_off_c, 12, 47, 127
2, 86826, Note_on_c, 2, 74, 127
2, 86826, Note_on_c, 10, 45, 127
2, 86909, Note_off_c, 2, 74, 127
2, 86911, Note_on_c, 1, 73, 127
2, 86994, Note_off_c, 1, 73, 127
2, 86995, Note_off_c, 10, 45, 127
2, 86997, Note_on_c, 2, 74, 127
2, 86997, Note_on_c, 8, 44, 127
2, 87080, Note_off_c, 2, 74, 127
2, 87082, Note_on_c, 1, 73, 127
2, 87165, Note_off_c, 1, 73, 127
2, 87166, Note_off_c, 8, 44, 127
2, 87168, Note_on_c, 2, 74, 127
2, 87168, Note_on_c, 10, 45, 127
2, 87251, Note_off_c, 2, 74, 127
2, 87253, Note_on_c, 1, 73, 127
2, 87336, Note_off_c, 1, 73, 127
2, 87337, Note_off_c, 10, 45, 127
2, 87339, Note_on_c, 0, 72, 127
2, 87339, Note_on_c, 6, 42, 127
2, 87422, Note_off_c, 0, 72, 127
2, 87424, Note_on_c, 1, 73, 127
2, 87508, Note_off_c, 6, 42, 127
2, 87510, Note_on_c, 8, 80, 127
2, 87510, Note_on_c, 5, 41, 127
2, 87681, Note_off_c, 5, 41, 127
2, 87683, Note_on_c, 6, 42, 127
2, 87854, Note_off_c, 6, 42, 127
2, 87856, Note_on_c, 5, 41, 127
2, 88026, Note_off_c, 8, 80, 127
2, 88027, Note_off_c, 5, 41, 127
2, 88029, Note_on_c, 12, 83, 127
2, 88029, Note_on_c, 3, 39, 127
2, 88200, Note_off_c, 3, 39, 127
2, 88200, Note_off_c, 12, 83, 127
2, 88202, Note_on_c, 10, 81, 127
2, 88202, Note_on_c, 5, 41, 127
2, 88373, Note_off_c, 5, 41, 127
2, 88373, Note_off_c, 10, 81, 127
2, 88374, Note_on_c, 8, 80, 127
2, 88374, Note_on_c, 1, 37, 127
2, 88545, Note_off_c, 1, 37, 127
2, 88545, Note_off_c, 8, 80, 127
2, 88547, Note_on_c, 10, 81, 127
2, 88547, Note_on_c, 6, 42, 127
2, 88718, Note_off_c, 6, 42, 127
2, 88718, Note_off_c, 10, 81, 127
2, 88720, Note_on_c, 12, 83, 127
2, 88720, Note_on_c, 4, 52, 127
2, 88803, Note_off_c, 1, 73, 127
2, 88889, Note_off_c, 4, 52, 127
2, 88889, Note_off_c, 12, 83, 127
2, 88891, Note_on_c, 12, 71, 127
2, 88891, Note_on_c, 10, 81, 127
2, 88891, Note_on_c, 2, 50, 127
2, 88976, Note_off_c, 10, 81, 127
2, 88977, Note_on_c, 8, 80, 127
2, 89060, Note_off_c, 2, 50, 127
2, 89062, Note_off_c, 8, 80, 127
2, 89062, Note_on_c, 10, 81, 127
2, 89062, Note_on_c, 1, 49, 127
2, 89147, Note_off_c, 10, 81, 127
2, 89148, Note_on_c, 8, 80, 127
2, 89231, Note_off_c, 1, 49, 127
2, 89233, Note_on_c, 2, 50, 127
2, 89391, Note_off_c, 8, 80, 127
2, 89404, Note_off_c, 2, 50, 127
2, 89404, Note_off_c, 12, 71, 127
2, 89406, Note_on_c, 6, 78, 127
2, 89406, Note_on_c, 10, 69, 127
2, 89406, Note_on_c, 10, 45, 127
2, 89577, Note_off_c, 10, 45, 127
2, 89577, Note_off_c, 10, 69, 127
2, 89577, Note_off_c, 6, 78, 127
2, 89579, Note_on_c, 8, 68, 127
2, 89579, Note_on_c, 5, 77, 127
2, 89579, Note_on_c, 12, 47, 127
2, 89750, Note_off_c, 12, 47, 127
2, 89752, Note_on_c, 12, 59, 127
2, 89923, Note_off_c, 12, 59, 127
2, 89925, Note_on_c, 10, 57, 127
2, 90028, Note_off_c, 5, 77, 127
2, 90094, Note_off_c, 10, 57, 127
2, 90094, Note_off_c, 8, 68, 127
2, 90096, Note_on_c, 5, 77, 127
2, 90096, Note_on_c, 8, 56, 127
2, 90267, Note_off_c, 8, 56, 127
2, 90267, Note_off_c, 5, 77, 127
2, 90269, Note_on_c, 1, 73, 127
2, 90269, Note_on_c, 6, 66, 127
2, 90269, Note_on_c, 6, 78, 127
2, 90269, Note_on_c, 10, 57, 127
2, 90440, Note_off_c, 10, 57, 127
2, 90442, Note_on_c, 6, 54, 127
2, 90613, Note_off_c, 6, 54, 127
2, 90615, Note_on_c, 2, 62, 127
2, 90764, Note_off_c, 6, 78, 127
2, 90785, Note_off_c, 6, 66, 127
2, 90785, Note_off_c, 1, 73, 127
2, 90786, Note_off_c, 2, 62, 127
2, 90788, Note_on_c, 8, 80, 127
2, 90788, Note_on_c, 12, 59, 127
2, 90959, Note_off_c, 12, 59, 127
2, 90959, Note_off_c, 8, 80, 127
2, 90961, Note_on_c, 10, 81, 127
2, 90961, Note_on_c, 5, 77, 127
2, 90961, Note_on_c, 1, 61, 127
2, 91044, Note_off_c, 10, 81, 127
2, 91046, Note_on_c, 8, 80, 127
2, 91129, Note_off_c, 8, 80, 127
2, 91132, Note_on_c, 10, 81, 127
2, 91215, Note_off_c, 10, 81, 127
2, 91217, Note_on_c, 8, 80, 127
2, 91301, Note_off_c, 1, 61, 127
2, 91303, Note_on_c, 1, 49, 127
2, 91461, Note_off_c, 5, 77, 127
2, 91473, Note_off_c, 8, 80, 127
2, 91476, Note_on_c, 6, 78, 127
2, 91646, Note_off_c, 1, 49, 127
2, 91647, Note_off_c, 6, 78, 127
2, 91649, Note_on_c, 6, 78, 127
2, 91649, Note_on_c, 6, 54, 127
2, 91993, Note_on_c, 6, 42, 127
2, 92337, Note_on_c, 1, 49, 127
2, 92679, Note_off_c, 1, 49, 127
2, 92679, Note_off_c, 6, 54, 127
2, 92681, Note_on_c, 1, 73, 127
2, 92681, Note_on_c, 6, 66, 127
2, 92681, Note_on_c, 11, 70, 127
2, 92681, Note_on_c, 6, 54, 127
2, 93361, Note_off_c, 11, 70, 127
2, 93361, Note_off_c, 6, 66, 127
2, 93361, Note_off_c, 1, 73, 127
2, 93367, Note_off_c, 6, 42, 127
2, 93405, Note_off_c, 6, 78, 127
2, 93541, Note_on_c, 1, 73, 127
2, 93581, Note_off_c, 6, 54, 127
2, 93693, Note_off_c, 1, 73, 127
2, 93714, Note_on_c, 1, 73, 127
2, 93714, Note_on_c, 6, 54, 127
2, 93887, Note_on_c, 12, 71, 127
2, 94057, Note_off_c, 6, 54, 127
2, 94058, Note_off_c, 12, 71, 127
2, 94060, Note_on_c, 11, 70, 127
2, 94060, Note_on_c, 6, 42, 127
2, 94231, Note_off_c, 11, 70, 127
2, 94233, Note_on_c, 8, 68, 127
2, 94403, Note_off_c, 6, 42, 127
2, 94404, Note_off_c, 8, 68, 127
2, 94406, Note_on_c, 11, 70, 127
2, 94406, Note_on_c, 6, 54, 127
2, 94577, Note_off_c, 11, 70, 127
2, 94579, Note_on_c, 6, 66, 127
2, 94749, Note_off_c, 6, 54, 127
2, 94752, Note_on_c, 11, 58, 127
2, 94752, Note_on_c, 4, 52, 127
2, 94922, Note_off_c, 6, 66, 127
2, 94922, Note_off_c, 1, 73, 127
2, 94923, Note_off_c, 4, 52, 127
2, 94925, Note_on_c, 2, 74, 127
2, 94925, Note_on_c, 6, 54, 127
2, 95096, Note_off_c, 6, 54, 127
2, 95096, Note_off_c, 2, 74, 127
2, 95098, Note_on_c, 1, 73, 127
2, 95098, Note_on_c, 4, 52, 127
2, 95269, Note_off_c, 4, 52, 127
2, 95269, Note_off_c, 1, 73, 127
2, 95270, Note_on_c, 12, 71, 127
2, 95270, Note_on_c, 2, 50, 127
2, 95436, Note_off_c, 11, 58, 127
2, 95441, Note_off_c, 2, 50, 127
2, 95441, Note_off_c, 12, 71, 127
2, 95443, Note_on_c, 1, 73, 127
2, 95443, Note_on_c, 4, 52, 127
2, 95614, Note_off_c, 4, 52, 127
2, 95614, Note_off_c, 1, 73, 127
2, 95616, Note_on_c, 11, 70, 127
2, 95616, Note_on_c, 1, 49, 127
2, 95787, Note_off_c, 1, 49, 127
2, 95787, Note_off_c, 11, 70, 127
2, 95789, Note_on_c, 12, 71, 127
2, 95789, Note_on_c, 2, 50, 127
2, 95962, Note_on_c, 6, 54, 127
2, 96133, Note_off_c, 6, 54, 127
2, 96135, Note_on_c, 12, 59, 127
2, 96293, Note_off_c, 2, 50, 127
2, 96305, Note_off_c, 12, 71, 127
2, 96308, Note_on_c, 1, 73, 127
2, 96308, Note_on_c, 1, 49, 127
2, 96477, Note_off_c, 12, 59, 127
2, 96479, Note_off_c, 1, 49, 127
2, 96479, Note_off_c, 1, 73, 127
2, 96481, Note_on_c, 2, 74, 127
2, 96481, Note_on_c, 12, 47, 127
2, 96652, Note_off_c, 12, 47, 127
2, 96652, Note_off_c, 2, 74, 127
2, 96654, Note_on_c, 4, 76, 127
2, 96654, Note_on_c, 6, 54, 127
2, 96825, Note_off_c, 6, 54, 127
2, 96825, Note_off_c, 4, 76, 127
2, 96827, Note_on_c, 2, 74, 127
2, 96827, Note_on_c, 12, 59, 127
2, 96998, Note_off_c, 12, 59, 127
2, 96998, Note_off_c, 2, 74, 127
2, 96999, Note_on_c, 1, 73, 127
2, 96999, Note_on_c, 10, 57, 127
2, 97170, Note_off_c, 10, 57, 127
2, 97170, Note_off_c, 1, 73, 127
2, 97172, Note_on_c, 2, 74, 127
2, 97172, Note_on_c, 8, 56, 127
2, 97343, Note_off_c, 8, 56, 127
2, 97343, Note_off_c, 2, 74, 127
2, 97345, Note_on_c, 12, 71, 127
2, 97345, Note_on_c, 6, 54, 127
2, 97516, Note_off_c, 6, 54, 127
2, 97516, Note_off_c, 12, 71, 127
2, 97518, Note_on_c, 4, 76, 127
2, 97518, Note_on_c, 8, 56, 127
2, 97689, Note_off_c, 8, 56, 127
2, 97691, Note_on_c, 4, 52, 127
2, 97861, Note_off_c, 4, 76, 127
2, 97862, Note_off_c, 4, 52, 127
2, 97864, Note_on_c, 2, 74, 127
2, 97864, Note_on_c, 10, 45, 127
2, 97947, Note_off_c, 2, 74, 127
2, 97949, Note_on_c, 1, 73, 127
2, 98032, Note_off_c, 1, 73, 127
2, 98033, Note_off_c, 10, 45, 127
2, 98035, Note_on_c, 2, 74, 127
2, 98035, Note_on_c, 4, 52, 127
2, 98118, Note_off_c, 2, 74, 127
2, 98121, Note_on_c, 1, 73, 127
2, 98204, Note_off_c, 1, 73, 127
2, 98204, Note_off_c, 4, 52, 127
2, 98206, Note_on_c, 2, 74, 127
2, 98206, Note_on_c, 10, 57, 127
2, 98289, Note_off_c, 2, 74, 127
2, 98292, Note_on_c, 1, 73, 127
2, 98375, Note_off_c, 1, 73, 127
2, 98375, Note_off_c, 10, 57, 127
2, 98377, Note_on_c, 12, 71, 127
2, 98377, Note_on_c, 7, 55, 127
2, 98548, Note_off_c, 7, 55, 127
2, 98548, Note_off_c, 12, 71, 127
2, 98550, Note_on_c, 10, 69, 127
2, 98550, Note_on_c, 6, 54, 127
2, 98721, Note_off_c, 6, 54, 127
2, 98723, Note_on_c, 4, 52, 127
2, 98894, Note_off_c, 4, 52, 127
2, 98896, Note_on_c, 6, 54, 127
2, 98981, Note_off_c, 10, 69, 127
2, 99065, Note_off_c, 6, 54, 127
2, 99067, Note_on_c, 12, 83, 127
2, 99067, Note_on_c, 2, 50, 127
2, 99238, Note_off_c, 2, 50, 127
2, 99238, Note_off_c, 12, 83, 127
2, 99240, Note_on_c, 10, 81, 127
2, 99240, Note_on_c, 2, 62, 127
2, 99411, Note_off_c, 10, 81, 127
2, 99413, Note_on_c, 7, 79, 127
2, 99584, Note_off_c, 7, 79, 127
2, 99586, Note_on_c, 10, 81, 127
2, 99756, Note_off_c, 2, 62, 127
2, 99757, Note_off_c, 10, 81, 127
2, 99759, Note_on_c, 6, 78, 127
2, 99759, Note_on_c, 2, 50, 127
2, 99930, Note_off_c, 2, 50, 127
2, 99930, Note_off_c, 6, 78, 127
2, 99931, Note_on_c, 12, 83, 127
2, 99931, Note_on_c, 7, 55, 127
2, 100102, Note_off_c, 7, 55, 127
2, 100104, Note_on_c, 6, 54, 127
2, 100275, Note_off_c, 6, 54, 127
2, 100277, Note_on_c, 7, 55, 127
2, 100447, Note_off_c, 12, 83, 127
2, 100448, Note_off_c, 7, 55, 127
2, 100450, Note_on_c, 10, 81, 127
2, 100450, Note_on_c, 10, 57, 127
2, 100621, Note_off_c, 10, 57, 127
2, 100621, Note_off_c, 10, 81, 127
2, 100623, Note_on_c, 7, 79, 127
2, 100623, Note_on_c, 12, 59, 127
2, 100794, Note_off_c, 12, 59, 127
2, 100796, Note_on_c, 7, 55, 127
2, 100946, Note_off_c, 7, 79, 127
2, 100967, Note_off_c, 7, 55, 127
2, 100969, Note_on_c, 6, 78, 127
2, 100969, Note_on_c, 0, 60, 127
2, 101140, Note_off_c, 6, 78, 127
2, 101142, Note_on_c, 4, 76, 127
2, 101313, Note_off_c, 4, 76, 127
2, 101315, Note_on_c, 3, 75, 127
2, 101315, Note_on_c, 6, 78, 127
2, 101485, Note_off_c, 0, 60, 127
2, 101488, Note_on_c, 12, 59, 127
2, 101659, Note_off_c, 12, 59, 127
2, 101660, Note_on_c, 10, 57, 127
2, 101831, Note_off_c, 10, 57, 127
2, 101831, Note_off_c, 6, 78, 127
2, 101831, Note_off_c, 3, 75, 127
2, 101833, Note_on_c, 7, 79, 127
2, 101833, Note_on_c, 4, 76, 127
2, 101833, Note_on_c, 7, 55, 127
2, 102004, Note_off_c, 7, 55, 127
2, 102004, Note_off_c, 4, 76, 127
2, 102004, Note_off_c, 7, 79, 127
2, 102006, Note_on_c, 10, 81, 127
2, 102006, Note_on_c, 6, 78, 127
2, 102006, Note_on_c, 6, 54, 127
2, 102177, Note_off_c, 6, 54, 127
2, 102179, Note_on_c, 7, 55, 127
2, 102350, Note_off_c, 7, 55, 127
2, 102352, Note_on_c, 10, 57, 127
2, 102473, Note_off_c, 6, 78, 127
2, 102522, Note_off_c, 10, 81, 127
2, 102523, Note_off_c, 10, 57, 127
2, 102525, Note_on_c, 3, 75, 127
2, 102525, Note_on_c, 6, 54, 127
2, 102696, Note_off_c, 6, 54, 127
2, 102696, Note_off_c, 3, 75, 127
2, 102698, Note_on_c, 4, 76, 127
2, 102698, Note_on_c, 7, 55, 127
2, 102869, Note_off_c, 7, 55, 127
2, 102869, Note_off_c, 4, 76, 127
2, 102871, Note_on_c, 6, 78, 127
2, 102871, Note_on_c, 0, 60, 127
2, 103042, Note_off_c, 0, 60, 127
2, 103042, Note_off_c, 6, 78, 127
2, 103044, Note_on_c, 4, 76, 127
2, 103044, Note_on_c, 12, 59, 127
2, 103215, Note_off_c, 12, 59, 127
2, 103215, Note_off_c, 4, 76, 127
2, 103217, Note_on_c, 6, 78, 127
2, 103217, Note_on_c, 10, 57, 127
2, 103388, Note_off_c, 10, 57, 127
2, 103388, Note_off_c, 6, 78, 127
2, 103389, Note_on_c, 7, 79, 127
2, 103389, Note_on_c, 12, 59, 127
2, 103472, Note_off_c, 7, 79, 127
2, 103475, Note_on_c, 6, 78, 127
2, 103558, Note_off_c, 6, 78, 127
2, 103558, Note_off_c, 12, 59, 127
2, 103561, Note_on_c, 7, 79, 127
2, 103561, Note_on_c, 1, 61, 127
2, 103644, Note_off_c, 7, 79, 127
2, 103646, Note_on_c, 6, 78, 127
2, 103729, Note_off_c, 6, 78, 127
2, 103730, Note_off_c, 1, 61, 127
2, 103732, Note_on_c, 7, 79, 127
2, 103732, Note_on_c, 3, 63, 127
2, 103815, Note_off_c, 7, 79, 127
2, 103817, Note_on_c, 6, 78, 127
2, 103900, Note_off_c, 6, 78, 127
2, 103901, Note_off_c, 3, 63, 127
2, 103903, Note_on_c, 4, 76, 127
2, 103903, Note_on_c, 12, 59, 127
2, 103986, Note_off_c, 4, 76, 127
2, 103988, Note_on_c, 6, 78, 127
2, 104071, Note_off_c, 6, 78, 127
2, 104072, Note_off_c, 12, 59, 127
2, 104074, Note_on_c, 7, 79, 127
2, 104074, Note_on_c, 4, 64, 127
2, 104245, Note_off_c, 7, 79, 127
2, 104247, Note_on_c, 10, 81, 127
2, 104418, Note_off_c, 10, 81, 127
2, 104420, Note_on_c, 7, 79, 127
2, 104569, Note_off_c, 4, 64, 127
2, 104591, Note_off_c, 7, 79, 127
2, 104592, Note_on_c, 6, 78, 127
2, 104592, Note_on_c, 2, 62, 127
2, 104763, Note_off_c, 2, 62, 127
2, 104763, Note_off_c, 6, 78, 127
2, 104765, Note_on_c, 7, 79, 127
2, 104765, Note_on_c, 0, 60, 127
2, 104936, Note_off_c, 0, 60, 127
2, 104936, Note_off_c, 7, 79, 127
2, 104938, Note_on_c, 4, 76, 127
2, 104938, Note_on_c, 12, 59, 127
2, 105109, Note_off_c, 12, 59, 127
2, 105109, Note_off_c, 4, 76, 127
2, 105111, Note_on_c, 6, 78, 127
2, 105111, Note_on_c, 0, 60, 127
2, 105282, Note_off_c, 0, 60, 127
2, 105284, Note_on_c, 10, 57, 127
2, 105454, Note_off_c, 6, 78, 127
2, 105455, Note_off_c, 10, 57, 127
2, 105457, Note_on_c, 4, 76, 127
2, 105457, Note_on_c, 12, 59, 127
2, 105540, Note_off_c, 4, 76, 127
2, 105543, Note_on_c, 3, 75, 127
2, 105626, Note_off_c, 3, 75, 127
2, 105628, Note_on_c, 4, 76, 127
2, 105711, Note_off_c, 4, 76, 127
2, 105714, Note_on_c, 3, 75, 127
2, 105797, Note_off_c, 3, 75, 127
2, 105797, Note_off_c, 12, 59, 127
2, 105799, Note_on_c, 4, 76, 127
2, 105799, Note_on_c, 12, 47, 127
2, 105882, Note_off_c, 4, 76, 127
2, 105885, Note_on_c, 3, 75, 127
2, 105968, Note_off_c, 3, 75, 127
2, 105970, Note_on_c, 4, 76, 127
2, 106141, Note_off_c, 4, 76, 127
2, 106141, Note_off_c, 12, 47, 127
2, 106143, Note_on_c, 12, 71, 127
2, 106143, Note_on_c, 4, 76, 127
2, 106143, Note_on_c, 7, 67, 127
2, 106143, Note_on_c, 4, 52, 127
2, 106314, Note_off_c, 4, 52, 127
2, 106316, Note_on_c, 10, 57, 127
2, 106487, Note_off_c, 10, 57, 127
2, 106489, Note_on_c, 7, 55, 127
2, 106660, Note_off_c, 7, 55, 127
2, 106662, Note_on_c, 6, 54, 127
2, 106833, Note_off_c, 6, 54, 127
2, 106835, Note_on_c, 7, 55, 127
2, 107006, Note_off_c, 7, 55, 127
2, 107008, Note_on_c, 4, 52, 127
2, 107151, Note_off_c, 7, 67, 127
2, 107151, Note_off_c, 12, 71, 127
2, 107178, Note_off_c, 4, 76, 127
2, 107179, Note_off_c, 4, 52, 127
2, 107181, Note_on_c, 1, 61, 127
2, 107352, Note_off_c, 1, 61, 127
2, 107353, Note_on_c, 6, 78, 127
2, 107353, Note_on_c, 2, 62, 127
2, 107524, Note_off_c, 2, 62, 127
2, 107524, Note_off_c, 6, 78, 127
2, 107526, Note_on_c, 4, 76, 127
2, 107526, Note_on_c, 1, 61, 127
2, 107697, Note_off_c, 1, 61, 127
2, 107697, Note_off_c, 4, 76, 127
2, 107699, Note_on_c, 2, 74, 127
2, 107699, Note_on_c, 12, 59, 127
2, 107870, Note_off_c, 12, 59, 127
2, 107870, Note_off_c, 2, 74, 127
2, 107872, Note_on_c, 4, 76, 127
2, 107872, Note_on_c, 1, 61, 127
2, 108043, Note_off_c, 1, 61, 127
2, 108043, Note_off_c, 4, 76, 127
2, 108045, Note_on_c, 7, 79, 127
2, 108045, Note_on_c, 10, 57, 127
2, 108216, Note_off_c, 10, 57, 127
2, 108216, Note_off_c, 7, 79, 127
2, 108218, Note_on_c, 1, 73, 127
2, 108218, Note_on_c, 7, 67, 127
2, 108389, Note_off_c, 7, 67, 127
2, 108391, Note_on_c, 10, 69, 127
2, 108562, Note_off_c, 10, 69, 127
2, 108564, Note_on_c, 7, 67, 127
2, 108714, Note_off_c, 1, 73, 127
2, 108735, Note_off_c, 7, 67, 127
2, 108737, Note_on_c, 2, 74, 127
2, 108737, Note_on_c, 6, 66, 127
2, 108908, Note_off_c, 6, 66, 127
2, 108908, Note_off_c, 2, 74, 127
2, 108910, Note_on_c, 4, 76, 127
2, 108910, Note_on_c, 7, 67, 127
2, 109081, Note_off_c, 7, 67, 127
2, 109082, Note_on_c, 4, 64, 127
2, 109253, Note_off_c, 4, 64, 127
2, 109255, Note_on_c, 6, 66, 127
2, 109377, Note_off_c, 4, 76, 127
2, 109428, Note_on_c, 2, 74, 127
2, 109599, Note_off_c, 2, 74, 127
2, 109601, Note_on_c, 1, 73, 127
2, 109772, Note_off_c, 1, 73, 127
2, 109774, Note_on_c, 12, 71, 127
2, 109945, Note_off_c, 12, 71, 127
2, 109947, Note_on_c, 1, 73, 127
2, 110118, Note_off_c, 1, 73, 127
2, 110120, Note_on_c, 4, 76, 127
2, 110291, Note_off_c, 4, 76, 127
2, 110293, Note_on_c, 10, 69, 127
2, 110463, Note_off_c, 6, 66, 127
2, 110466, Note_on_c, 12, 59, 127
2, 110637, Note_off_c, 12, 59, 127
2, 110639, Note_on_c, 10, 57, 127
2, 110797, Note_off_c, 10, 69, 127
2, 110810, Note_off_c, 10, 57, 127
2, 110811, Note_on_c, 12, 71, 127
2, 110811, Note_on_c, 7, 55, 127
2, 110982, Note_off_c, 7, 55, 127
2, 110982, Note_off_c, 12, 71, 127
2, 110984, Note_on_c, 0, 72, 127
2, 110984, Note_on_c, 10, 57, 127
2, 111155, Note_off_c, 10, 57, 127
2, 111155, Note_off_c, 0, 72, 127
2, 111157, Note_on_c, 2, 74, 127
2, 111157, Note_on_c, 6, 54, 127
2, 111328, Note_off_c, 6, 54, 127
2, 111328, Note_off_c, 2, 74, 127
2, 111330, Note_on_c, 0, 72, 127
2, 111330, Note_on_c, 2, 62, 127
2, 111501, Note_off_c, 2, 62, 127
2, 111501, Note_off_c, 0, 72, 127
2, 111503, Note_on_c, 12, 71, 127
2, 111503, Note_on_c, 7, 55, 127
2, 111674, Note_off_c, 7, 55, 127
2, 111674, Note_off_c, 12, 71, 127
2, 111676, Note_on_c, 0, 72, 127
2, 111676, Note_on_c, 6, 54, 127
2, 111847, Note_off_c, 6, 54, 127
2, 111847, Note_off_c, 0, 72, 127
2, 111849, Note_on_c, 10, 69, 127
2, 111849, Note_on_c, 4, 52, 127
2, 112020, Note_off_c, 4, 52, 127
2, 112020, Note_off_c, 10, 69, 127
2, 112022, Note_on_c, 2, 74, 127
2, 112022, Note_on_c, 6, 54, 127
2, 112193, Note_off_c, 6, 54, 127
2, 112195, Note_on_c, 2, 50, 127
2, 112365, Note_off_c, 2, 74, 127
2, 112366, Note_off_c, 2, 50, 127
2, 112368, Note_on_c, 12, 71, 127
2, 112368, Note_on_c, 7, 55, 127
2, 112539, Note_off_c, 7, 55, 127
2, 112540, Note_on_c, 12, 59, 127
2, 112711, Note_off_c, 12, 59, 127
2, 112713, Note_on_c, 10, 57, 127
2, 112835, Note_off_c, 12, 71, 127
2, 112884, Note_off_c, 10, 57, 127
2, 112886, Note_on_c, 1, 73, 127
2, 112886, Note_on_c, 7, 55, 127
2, 113057, Note_off_c, 7, 55, 127
2, 113057, Note_off_c, 1, 73, 127
2, 113059, Note_on_c, 3, 75, 127
2, 113059, Note_on_c, 6, 54, 127
2, 113230, Note_off_c, 6, 54, 127
2, 113230, Note_off_c, 3, 75, 127
2, 113232, Note_on_c, 4, 76, 127
2, 113232, Note_on_c, 4, 52, 127
2, 113403, Note_off_c, 4, 52, 127
2, 113403, Note_off_c, 4, 76, 127
2, 113405, Note_on_c, 6, 78, 127
2, 113405, Note_on_c, 3, 51, 127
2, 113576, Note_off_c, 3, 51, 127
2, 113576, Note_off_c, 6, 78, 127
2, 113578, Note_on_c, 7, 79, 127
2, 113578, Note_on_c, 4, 52, 127
2, 113749, Note_off_c, 4, 52, 127
2, 113749, Note_off_c, 7, 79, 127
2, 113751, Note_on_c, 6, 78, 127
2, 113751, Note_on_c, 3, 51, 127
2, 113922, Note_off_c, 3, 51, 127
2, 113922, Note_off_c, 6, 78, 127
2, 113924, Note_on_c, 12, 71, 127
2, 113924, Note_on_c, 1, 49, 127
2, 114095, Note_off_c, 1, 49, 127
2, 114095, Note_off_c, 12, 71, 127
2, 114097, Note_on_c, 10, 81, 127
2, 114097, Note_on_c, 3, 51, 127
2, 114268, Note_off_c, 3, 51, 127
2, 114269, Note_on_c, 12, 47, 127
2, 114402, Note_off_c, 10, 81, 127
2, 114440, Note_off_c, 12, 47, 127
2, 114442, Note_on_c, 7, 79, 127
2, 114442, Note_on_c, 4, 52, 127
2, 114613, Note_off_c, 4, 52, 127
2, 114615, Note_on_c, 3, 51, 127
2, 114786, Note_off_c, 3, 51, 127
2, 114788, Note_on_c, 4, 52, 127
2, 114958, Note_off_c, 7, 79, 127
2, 114959, Note_off_c, 4, 52, 127
2, 114961, Note_on_c, 6, 78, 127
2, 114961, Note_on_c, 6, 54, 127
2, 115132, Note_off_c, 6, 54, 127
2, 115132, Note_off_c, 6, 78, 127
2, 115134, Note_on_c, 4, 76, 127
2, 115134, Note_on_c, 7, 55, 127
2, 115305, Note_off_c, 7, 55, 127
2, 115307, Note_on_c, 4, 52, 127
2, 115477, Note_off_c, 4, 76, 127
2, 115478, Note_off_c, 4, 52, 127
2, 115480, Note_on_c, 2, 74, 127
2, 115480, Note_on_c, 10, 57, 127
2, 115651, Note_off_c, 2, 74, 127
2, 115653, Note_on_c, 1, 73, 127
2, 115824, Note_off_c, 1, 73, 127
2, 115826, Note_on_c, 12, 71, 127
2, 115826, Note_on_c, 2, 74, 127
2, 115996, Note_off_c, 10, 57, 127
2, 115998, Note_on_c, 7, 55, 127
2, 116169, Note_off_c, 7, 55, 127
2, 116171, Note_on_c, 6, 54, 127
2, 116342, Note_off_c, 6, 54, 127
2, 116342, Note_off_c, 2, 74, 127
2, 116342, Note_off_c, 12, 71, 127
2, 116344, Note_on_c, 4, 76, 127
2, 116344, Note_on_c, 1, 73, 127
2, 116344, Note_on_c, 4, 52, 127
2, 116515, Note_off_c, 4, 52, 127
2, 116515, Note_off_c, 1, 73, 127
2, 116515, Note_off_c, 4, 76, 127
2, 116517, Note_on_c, 6, 78, 127
2, 116517, Note_on_c, 2, 74, 127
2, 116517, Note_on_c, 2, 50, 127
2, 116688, Note_off_c, 2, 50, 127
2, 116690, Note_on_c, 4, 52, 127
2, 116861, Note_off_c, 4, 52, 127
2, 116863, Note_on_c, 2, 50, 127
2, 116984, Note_off_c, 2, 74, 127
2, 117033, Note_off_c, 6, 78, 127
2, 117034, Note_off_c, 2, 50, 127
2, 117036, Note_on_c, 11, 70, 127
2, 117036, Note_on_c, 1, 49, 127
2, 117207, Note_off_c, 1, 49, 127
2, 117207, Note_off_c, 11, 70, 127
2, 117209, Note_on_c, 12, 71, 127
2, 117209, Note_on_c, 2, 50, 127
2, 117380, Note_off_c, 2, 50, 127
2, 117380, Note_off_c, 12, 71, 127
2, 117382, Note_on_c, 1, 73, 127
2, 117382, Note_on_c, 12, 47, 127
2, 117553, Note_off_c, 12, 47, 127
2, 117553, Note_off_c, 1, 73, 127
2, 117555, Note_on_c, 12, 71, 127
2, 117555, Note_on_c, 7, 55, 127
2, 117726, Note_off_c, 7, 55, 127
2, 117726, Note_off_c, 12, 71, 127
2, 117727, Note_on_c, 1, 73, 127
2, 117727, Note_on_c, 6, 54, 127
2, 117898, Note_off_c, 6, 54, 127
2, 117898, Note_off_c, 1, 73, 127
2, 117900, Note_on_c, 2, 74, 127
2, 117900, Note_on_c, 4, 52, 127
2, 117983, Note_off_c, 2, 74, 127
2, 117986, Note_on_c, 1, 73, 127
2, 118069, Note_off_c, 1, 73, 127
2, 118069, Note_off_c, 4, 52, 127
2, 118071, Note_on_c, 2, 74, 127
2, 118071, Note_on_c, 2, 50, 127
2, 118154, Note_off_c, 2, 74, 127
2, 118157, Note_on_c, 1, 73, 127
2, 118240, Note_off_c, 1, 73, 127
2, 118240, Note_off_c, 2, 50, 127
2, 118242, Note_on_c, 2, 74, 127
2, 118242, Note_on_c, 4, 52, 127
2, 118325, Note_off_c, 2, 74, 127
2, 118328, Note_on_c, 1, 73, 127
2, 118411, Note_off_c, 1, 73, 127
2, 118411, Note_off_c, 4, 52, 127
2, 118414, Note_on_c, 12, 71, 127
2, 118414, Note_on_c, 6, 54, 127
2, 118497, Note_off_c, 12, 71, 127
2, 118499, Note_on_c, 1, 73, 127
2, 118582, Note_off_c, 1, 73, 127
2, 118583, Note_off_c, 6, 54, 127
2, 118585, Note_on_c, 2, 74, 127
2, 118585, Note_on_c, 12, 47, 127
2, 118756, Note_off_c, 12, 47, 127
2, 118756, Note_off_c, 2, 74, 127
2, 118758, Note_on_c, 4, 76, 127
2, 118758, Note_on_c, 6, 54, 127
2, 118929, Note_off_c, 6, 54, 127
2, 118929, Note_off_c, 4, 76, 127
2, 118930, Note_on_c, 2, 74, 127
2, 118930, Note_on_c, 12, 59, 127
2, 119101, Note_off_c, 12, 59, 127
2, 119101, Note_off_c, 2, 74, 127
2, 119103, Note_on_c, 1, 73, 127
2, 119103, Note_on_c, 10, 57, 127
2, 119274, Note_off_c, 10, 57, 127
2, 119274, Note_off_c, 1, 73, 127
2, 119276, Note_on_c, 2, 74, 127
2, 119276, Note_on_c, 7, 55, 127
2, 119447, Note_off_c, 7, 55, 127
2, 119447, Note_off_c, 2, 74, 127
2, 119449, Note_on_c, 12, 71, 127
2, 119449, Note_on_c, 6, 54, 127
2, 119620, Note_off_c, 6, 54, 127
2, 119620, Note_off_c, 12, 71, 127
2, 119622, Note_on_c, 1, 73, 127
2, 119622, Note_on_c, 4, 52, 127
2, 119793, Note_off_c, 4, 52, 127
2, 119795, Note_on_c, 1, 49, 127
2, 119909, Note_off_c, 1, 73, 127
2, 119966, Note_off_c, 1, 49, 127
2, 119968, Note_on_c, 12, 71, 127
2, 119968, Note_on_c, 6, 54, 127
2, 120051, Note_off_c, 12, 71, 127
2, 120053, Note_on_c, 11, 70, 127
2, 120136, Note_off_c, 11, 70, 127
2, 120137, Note_off_c, 6, 54, 127
2, 120139, Note_on_c, 12, 71, 127
2, 120139, Note_on_c, 4, 52, 127
2, 120222, Note_off_c, 12, 71, 127
2, 120224, Note_on_c, 11, 70, 127
2, 120307, Note_off_c, 11, 70, 127
2, 120308, Note_off_c, 4, 52, 127
2, 120310, Note_on_c, 12, 71, 127
2, 120310, Note_on_c, 6, 54, 127
2, 120393, Note_off_c, 12, 71, 127
2, 120396, Note_on_c, 11, 70, 127
2, 120479, Note_off_c, 11, 70, 127
2, 120479, Note_off_c, 6, 54, 127
2, 120481, Note_on_c, 12, 71, 127
2, 120481, Note_on_c, 6, 42, 127
2, 120652, Note_off_c, 6, 42, 127
2, 120652, Note_off_c, 12, 71, 127
2, 120654, Note_on_c, 12, 71, 127
2, 120654, Note_on_c, 7, 43, 127
2, 120825, Note_off_c, 7, 43, 127
2, 120827, Note_on_c, 12, 47, 127
2, 120998, Note_off_c, 12, 47, 127
2, 121000, Note_on_c, 1, 49, 127
2, 121171, Note_off_c, 1, 49, 127
2, 121173, Note_on_c, 10, 69, 127
2, 121173, Note_on_c, 3, 51, 127
2, 121344, Note_off_c, 3, 51, 127
2, 121344, Note_off_c, 10, 69, 127
2, 121346, Note_on_c, 7, 67, 127
2, 121346, Note_on_c, 4, 52, 127
2, 121517, Note_off_c, 7, 67, 127
2, 121518, Note_on_c, 6, 66, 127
2, 121689, Note_off_c, 6, 66, 127
2, 121691, Note_on_c, 7, 67, 127
2, 121862, Note_off_c, 7, 67, 127
2, 121862, Note_off_c, 4, 52, 127
2, 121864, Note_on_c, 4, 64, 127
2, 121864, Note_on_c, 6, 54, 127
2, 122035, Note_off_c, 6, 54, 127
2, 122035, Note_off_c, 12, 71, 127
2, 122037, Note_on_c, 1, 73, 127
2, 122037, Note_on_c, 4, 52, 127
2, 122208, Note_off_c, 4, 52, 127
2, 122210, Note_on_c, 2, 50, 127
2, 122380, Note_off_c, 1, 73, 127
2, 122381, Note_off_c, 2, 50, 127
2, 122383, Note_on_c, 2, 74, 127
2, 122383, Note_on_c, 4, 52, 127
2, 122554, Note_off_c, 4, 52, 127
2, 122554, Note_off_c, 2, 74, 127
2, 122556, Note_on_c, 1, 49, 127
2, 122556, Note_on_c, 4, 76, 127
2, 122728, Note_off_c, 4, 64, 127
2, 122730, Note_off_c, 4, 76, 127
2, 122730, Note_off_c, 1, 49, 127
2, 122732, Note_on_c, 11, 58, 127
2, 122732, Note_on_c, 6, 66, 127
2, 122906, Note_off_c, 6, 66, 127
2, 122911, Note_on_c, 4, 76, 127
2, 123085, Note_off_c, 4, 76, 127
2, 123085, Note_off_c, 11, 58, 127
2, 123089, Note_on_c, 6, 54, 127
2, 123089, Note_on_c, 2, 74, 127
2, 123263, Note_off_c, 2, 74, 127
2, 123267, Note_on_c, 1, 73, 127
2, 123442, Note_off_c, 6, 54, 127
2, 123445, Note_off_c, 1, 73, 127
2, 123449, Note_on_c, 2, 74, 127
2, 123449, Note_on_c, 12, 59, 127
2, 123627, Note_off_c, 2, 74, 127
2, 123633, Note_on_c, 12, 71, 127
2, 123811, Note_off_c, 12, 59, 127
2, 123817, Note_on_c, 7, 79, 127
2, 123817, Note_on_c, 4, 52, 127
2, 123993, Note_off_c, 12, 71, 127
2, 124177, Note_off_c, 4, 52, 127
2, 124177, Note_off_c, 7, 79, 127
2, 124187, Note_on_c, 6, 54, 127
2, 124187, Note_on_c, 2, 74, 127
2, 124187, Note_on_c, 11, 70, 127
2, 124276, Note_off_c, 2, 74, 127
2, 124279, Note_on_c, 1, 73, 127
2, 124368, Note_off_c, 1, 73, 127
2, 124374, Note_on_c, 2, 74, 127
2, 124463, Note_off_c, 2, 74, 127
2, 124467, Note_on_c, 1, 73, 127
2, 124556, Note_off_c, 6, 54, 127
2, 124562, Note_on_c, 6, 42, 127
2, 124731, Note_off_c, 11, 70, 127
2, 124745, Note_off_c, 1, 73, 127
2, 124751, Note_on_c, 12, 71, 127
2, 124933, Note_off_c, 6, 42, 127
2, 124942, Note_off_c, 12, 71, 127
2, 124946, Note_on_c, 12, 47, 127
2, 124946, Note_on_c, 12, 71, 127
2, 125346, Note_on_c, 2, 50, 127
2, 125739, Note_off_c, 2, 50, 127
2, 125746, Note_on_c, 6, 54, 127
2, 126139, Note_off_c, 6, 54, 127
2, 126147, Note_on_c, 12, 59, 127
2, 126147, Note_on_c, 6, 66, 127
2, 126147, Note_on_c, 2, 62, 127
2, 128247, Note_off_c, 2, 62, 127
2, 128297, Note_off_c, 6, 66, 127
2, 128346, Note_off_c, 12, 71, 127
2, 128346, Note_off_c, 12, 47, 127
2, 128347, Note_off_c, 12, 59, 127
2, 130426, Note_on_c, 12, 71, 127
2, 130426, Note_on_c, 12, 59, 127
2, 130426, Note_on_c, 2, 62, 127
2, 130802, Note_off_c, 12, 71, 127
2, 130805, Note_on_c, 2, 74, 127
2, 131181, Note_off_c, 2, 74, 127
2, 131183, Note_on_c, 6, 78, 127
2, 131559, Note_off_c, 6, 78, 127
2, 131562, Note_on_c, 12, 83, 127
2, 131938, Note_off_c, 2, 62, 127
2, 131938, Note_off_c, 12, 59, 127
2, 131940, Note_on_c, 4, 64, 127
2, 131940, Note_on_c, 1, 61, 127
2, 132191, Note_off_c, 12, 83, 127
2, 132317, Note_on_c, 11, 82, 127
2, 132693, Note_off_c, 11, 82, 127
2, 132693, Note_off_c, 1, 61, 127
2, 132693, Note_off_c, 4, 64, 127
2, 132695, Note_on_c, 12, 83, 127
2, 132695, Note_on_c, 2, 62, 127
2, 132695, Note_on_c, 6, 66, 127
2, 133071, Note_off_c, 12, 83, 127
2, 133074, Note_on_c, 6, 78, 127
2, 133450, Note_off_c, 6, 78, 127
2, 133453, Note_on_c, 4, 76, 127
2, 133640, Note_off_c, 4, 76, 127
2, 133642, Note_on_c, 2, 74, 127
2, 133829, Note_off_c, 2, 74, 127
2, 133831, Note_on_c, 1, 73, 127
2, 134018, Note_off_c, 1, 73, 127
2, 134020, Note_on_c, 12, 71, 127
2, 134207, Note_off_c, 6, 66, 127
2, 134207, Note_off_c, 2, 62, 127
2, 134210, Note_on_c, 1, 61, 127
2, 134210, Note_on_c, 4, 64, 127
2, 134493, Note_off_c, 12, 71, 127
2, 134588, Note_on_c, 11, 70, 127
2, 134964, Note_off_c, 11, 70, 127
2, 134965, Note_off_c, 4, 64, 127
2, 134965, Note_off_c, 1, 61, 127
2, 134967, Note_on_c, 12, 71, 127
2, 134967, Note_on_c, 12, 59, 127
2, 134967, Note_on_c, 2, 62, 127
2, 135321, Note_off_c, 12, 71, 127
2, 135345, Note_on_c, 7, 79, 127
2, 135722, Note_off_c, 2, 62, 127
2, 135722, Note_off_c, 12, 59, 127
2, 135724, Note_on_c, 10, 57, 127
2, 135724, Note_on_c, 1, 61, 127
2, 135876, Note_off_c, 7, 79, 127
2, 135911, Note_on_c, 6, 78, 127
2, 136098, Note_off_c, 6, 78, 127
2, 136101, Note_on_c, 4, 76, 127
2, 136288, Note_off_c, 4, 76, 127
2, 136290, Note_on_c, 6, 78, 127
2, 136477, Note_off_c, 1, 61, 127
2, 136477, Note_off_c, 10, 57, 127
2, 136479, Note_on_c, 7, 55, 127
2, 136479, Note_on_c, 12, 59, 127
2, 136644, Note_off_c, 6, 78, 127
2, 136669, Note_on_c, 4, 76, 127
2, 136856, Note_off_c, 4, 76, 127
2, 136858, Note_on_c, 2, 74, 127
2, 137045, Note_off_c, 2, 74, 127
2, 137047, Note_on_c, 4, 76, 127
2, 137234, Note_off_c, 4, 76, 127
2, 137234, Note_off_c, 7, 55, 127
2, 137236, Note_on_c, 4, 76, 127
2, 137236, Note_on_c, 6, 54, 127
2, 137612, Note_off_c, 12, 59, 127
2, 137615, Note_on_c, 11, 58, 127
2, 137991, Note_off_c, 11, 58, 127
2, 137994, Note_on_c, 1, 61, 127
2, 138370, Note_off_c, 1, 61, 127
2, 138372, Note_on_c, 6, 66, 127
2, 138748, Note_off_c, 6, 54, 127
2, 138751, Note_on_c, 11, 58, 127
2, 139120, Note_off_c, 6, 66, 127
2, 139127, Note_on_c, 6, 66, 127
2, 139497, Note_off_c, 11, 58, 127
2, 139500, Note_off_c, 4, 76, 127
2, 139504, Note_on_c, 12, 59, 127
2, 139693, Note_on_c, 2, 74, 127
2, 139875, Note_off_c, 6, 66, 127
2, 139880, Note_off_c, 2, 74, 127
2, 139883, Note_on_c, 1, 73, 127
2, 139883, Note_on_c, 7, 67, 127
2, 140070, Note_off_c, 1, 73, 127
2, 140072, Note_on_c, 12, 71, 127
2, 140253, Note_off_c, 12, 59, 127
2, 140259, Note_off_c, 12, 71, 127
2, 140261, Note_on_c, 1, 73, 127
2, 140261, Note_on_c, 10, 57, 127
2, 140448, Note_off_c, 1, 73, 127
2, 140451, Note_on_c, 10, 69, 127
2, 140632, Note_off_c, 7, 67, 127
2, 140638, Note_off_c, 10, 69, 127
2, 140640, Note_on_c, 7, 67, 127
2, 140640, Note_on_c, 6, 66, 127
2, 140827, Note_off_c, 7, 67, 127
2, 140829, Note_on_c, 10, 69, 127
2, 141010, Note_off_c, 10, 57, 127
2, 141016, Note_off_c, 10, 69, 127
2, 141018, Note_on_c, 12, 71, 127
2, 141018, Note_on_c, 7, 55, 127
2, 141205, Note_off_c, 12, 71, 127
2, 141208, Note_on_c, 1, 73, 127
2, 141389, Note_off_c, 6, 66, 127
2, 141395, Note_off_c, 1, 73, 127
2, 141397, Note_on_c, 2, 74, 127
2, 141397, Note_on_c, 4, 64, 127
2, 141584, Note_off_c, 2, 74, 127
2, 141586, Note_on_c, 4, 76, 127
2, 141767, Note_off_c, 7, 55, 127
2, 141773, Note_off_c, 4, 76, 127
2, 141775, Note_on_c, 10, 69, 127
2, 141775, Note_on_c, 6, 54, 127
2, 141940, Note_off_c, 10, 69, 127
2, 141965, Note_on_c, 6, 66, 127
2, 142146, Note_off_c, 4, 64, 127
2, 142152, Note_off_c, 6, 66, 127
2, 142154, Note_on_c, 4, 64, 127
2, 142154, Note_on_c, 2, 62, 127
2, 142341, Note_off_c, 4, 64, 127
2, 142343, Note_on_c, 6, 66, 127
2, 142524, Note_off_c, 6, 54, 127
2, 142530, Note_off_c, 6, 66, 127
2, 142533, Note_on_c, 7, 67, 127
2, 142533, Note_on_c, 4, 52, 127
2, 142720, Note_off_c, 7, 67, 127
2, 142722, Note_on_c, 10, 69, 127
2, 142903, Note_off_c, 2, 62, 127
2, 142909, Note_off_c, 10, 69, 127
2, 142911, Note_on_c, 12, 71, 127
2, 142911, Note_on_c, 1, 61, 127
2, 143098, Note_off_c, 12, 71, 127
2, 143100, Note_on_c, 1, 73, 127
2, 143282, Note_off_c, 4, 52, 127
2, 143287, Note_off_c, 1, 73, 127
2, 143290, Note_on_c, 2, 74, 127
2, 143290, Note_on_c, 6, 54, 127
2, 143477, Note_off_c, 2, 74, 127
2, 143479, Note_on_c, 4, 76, 127
2, 143660, Note_off_c, 1, 61, 127
2, 143666, Note_off_c, 4, 76, 127
2, 143668, Note_on_c, 6, 78, 127
2, 143668, Note_on_c, 2, 62, 127
2, 143855, Note_off_c, 6, 78, 127
2, 143858, Note_on_c, 7, 79, 127
2, 144039, Note_off_c, 6, 54, 127
2, 144045, Note_off_c, 7, 79, 127
2, 144047, Note_on_c, 10, 81, 127
2, 144047, Note_on_c, 7, 55, 127
2, 144234, Note_off_c, 10, 81, 127
2, 144236, Note_on_c, 12, 83, 127
2, 144403, Note_off_c, 12, 83, 127
2, 144417, Note_off_c, 2, 62, 127
2, 144425, Note_on_c, 1, 73, 127
2, 144425, Note_on_c, 4, 64, 127
2, 144612, Note_off_c, 1, 73, 127
2, 144615, Note_on_c, 2, 74, 127
2, 144784, Note_off_c, 2, 74, 127
2, 144795, Note_off_c, 7, 55, 127
2, 144799, Note_off_c, 4, 64, 127
2, 144802, Note_on_c, 6, 66, 127
2, 144802, Note_on_c, 10, 57, 127
2, 144802, Note_on_c, 1, 61, 127
2, 144989, Note_off_c, 6, 66, 127
2, 144991, Note_on_c, 4, 64, 127
2, 145178, Note_off_c, 4, 64, 127
2, 145178, Note_off_c, 1, 61, 127
2, 145178, Note_off_c, 10, 57, 127
2, 145181, Note_on_c, 6, 66, 127
2, 145181, Note_on_c, 2, 62, 127
2, 145181, Note_on_c, 7, 55, 127
2, 145368, Note_off_c, 6, 66, 127
2, 145370, Note_on_c, 2, 74, 127
2, 145539, Note_off_c, 2, 74, 127
2, 145557, Note_off_c, 7, 55, 127
2, 145559, Note_on_c, 7, 67, 127
2, 145559, Note_on_c, 10, 57, 127
2, 145746, Note_off_c, 7, 67, 127
2, 145749, Note_on_c, 6, 66, 127
2, 145930, Note_off_c, 2, 62, 127
2, 145936, Note_off_c, 6, 66, 127
2, 145938, Note_on_c, 7, 67, 127
2, 145938, Note_on_c, 1, 61, 127
2, 146125, Note_off_c, 7, 67, 127
2, 146127, Note_on_c, 4, 64, 127
2, 146308, Note_off_c, 10, 57, 127
2, 146314, Note_off_c, 4, 64, 127
2, 146314, Note_off_c, 1, 61, 127
2, 146316, Note_on_c, 2, 62, 127
2, 146316, Note_on_c, 2, 50, 127
2, 146506, Note_on_c, 4, 52, 127
2, 146693, Note_off_c, 4, 52, 127
2, 146695, Note_on_c, 6, 54, 127
2, 146882, Note_off_c, 2, 62, 127
2, 146884, Note_on_c, 10, 57, 127
2, 147071, Note_off_c, 10, 57, 127
2, 147073, Note_on_c, 2, 62, 127
2, 147263, Note_on_c, 10, 57, 127
2, 147444, Note_off_c, 6, 54, 127
2, 147452, Note_on_c, 6, 54, 127
2, 147637, Note_off_c, 2, 50, 127
2, 147641, Note_on_c, 2, 50, 127
2, 147828, Note_off_c, 2, 50, 127
2, 147831, Note_on_c, 10, 45, 127
2, 148018, Note_off_c, 10, 45, 127
2, 148020, Note_on_c, 6, 42, 127
2, 148207, Note_off_c, 6, 42, 127
2, 148209, Note_on_c, 2, 38, 127
2, 148452, Note_off_c, 2, 62, 127
2, 148482, Note_off_c, 10, 57, 127
2, 148505, Note_off_c, 6, 54, 127
2, 148586, Note_on_c, 6, 66, 127
2, 148586, Note_on_c, 2, 50, 127
2, 148609, Note_off_c, 2, 38, 127
2, 148678, Note_off_c, 6, 66, 127
2, 148681, Note_on_c, 4, 64, 127
2, 148773, Note_off_c, 4, 64, 127
2, 148775, Note_on_c, 6, 66, 127
2, 148964, Note_on_c, 6, 54, 127
2, 149340, Note_off_c, 6, 54, 127
2, 149343, Note_on_c, 10, 57, 127
2, 149719, Note_off_c, 10, 57, 127
2, 149722, Note_on_c, 2, 62, 127
2, 150098, Note_off_c, 2, 50, 127
2, 150100, Note_on_c, 4, 52, 127
2, 150154, Note_off_c, 6, 66, 127
2, 150195, Note_on_c, 7, 67, 127
2, 150287, Note_off_c, 7, 67, 127
2, 150289, Note_on_c, 10, 69, 127
2, 150381, Note_off_c, 10, 69, 127
2, 150384, Note_on_c, 7, 67, 127
2, 150471, Note_off_c, 2, 62, 127
2, 150476, Note_off_c, 7, 67, 127
2, 150479, Note_on_c, 10, 69, 127
2, 150479, Note_on_c, 1, 61, 127
2, 150571, Note_off_c, 10, 69, 127
2, 150573, Note_on_c, 7, 67, 127
2, 150665, Note_off_c, 7, 67, 127
2, 150668, Note_on_c, 6, 66, 127
2, 150760, Note_off_c, 6, 66, 127
2, 150763, Note_on_c, 7, 67, 127
2, 150849, Note_off_c, 4, 52, 127
2, 150855, Note_off_c, 7, 67, 127
2, 150855, Note_off_c, 1, 61, 127
2, 150857, Note_on_c, 10, 69, 127
2, 150857, Note_on_c, 6, 54, 127
2, 151236, Note_on_c, 2, 62, 127
2, 151605, Note_off_c, 6, 54, 127
2, 151613, Note_on_c, 10, 57, 127
2, 151969, Note_off_c, 10, 69, 127
2, 151989, Note_off_c, 10, 57, 127
2, 151991, Note_on_c, 12, 71, 127
2, 151991, Note_on_c, 6, 54, 127
2, 152178, Note_off_c, 12, 71, 127
2, 152180, Note_on_c, 1, 73, 127
2, 152367, Note_off_c, 1, 73, 127
2, 152367, Note_off_c, 6, 54, 127
2, 152370, Note_on_c, 2, 74, 127
2, 152370, Note_on_c, 4, 52, 127
2, 152557, Note_off_c, 2, 74, 127
2, 152559, Note_on_c, 4, 76, 127
2, 152746, Note_off_c, 4, 76, 127
2, 152746, Note_off_c, 2, 62, 127
2, 152748, Note_on_c, 6, 78, 127
2, 152748, Note_on_c, 1, 61, 127
2, 152935, Note_off_c, 6, 78, 127
2, 152938, Note_on_c, 4, 76, 127
2, 153119, Note_off_c, 4, 52, 127
2, 153124, Note_off_c, 1, 61, 127
2, 153125, Note_off_c, 4, 76, 127
2, 153127, Note_on_c, 6, 78, 127
2, 153127, Note_on_c, 2, 50, 127
2, 153316, Note_on_c, 2, 74, 127
2, 153501, Note_off_c, 6, 78, 127
2, 153503, Note_off_c, 2, 74, 127
2, 153503, Note_off_c, 2, 50, 127
2, 153505, Note_on_c, 1, 73, 127
2, 153505, Note_on_c, 2, 62, 127
2, 153692, Note_off_c, 1, 73, 127
2, 153695, Note_on_c, 12, 71, 127
2, 153882, Note_off_c, 12, 71, 127
2, 153884, Note_on_c, 4, 76, 127
2, 154071, Note_off_c, 2, 62, 127
2, 154073, Note_on_c, 10, 69, 127
2, 154073, Note_on_c, 1, 61, 127
2, 154258, Note_off_c, 4, 76, 127
2, 154260, Note_off_c, 1, 61, 127
2, 154260, Note_off_c, 10, 69, 127
2, 154262, Note_on_c, 8, 68, 127
2, 154262, Note_on_c, 12, 59, 127
2, 154449, Note_off_c, 12, 59, 127
2, 154449, Note_off_c, 8, 68, 127
2, 154452, Note_on_c, 10, 69, 127
2, 154452, Note_on_c, 1, 61, 127
2, 154639, Note_off_c, 10, 69, 127
2, 154641, Note_on_c, 2, 74, 127
2, 154828, Note_off_c, 1, 61, 127
2, 154830, Note_on_c, 8, 68, 127
2, 154830, Note_on_c, 12, 59, 127
2, 155015, Note_off_c, 2, 74, 127
2, 155017, Note_off_c, 12, 59, 127
2, 155017, Note_off_c, 8, 68, 127
2, 155020, Note_on_c, 6, 66, 127
2, 155020, Note_on_c, 10, 57, 127
2, 155207, Note_off_c, 10, 57, 127
2, 155207, Note_off_c, 6, 66, 127
2, 155209, Note_on_c, 8, 68, 127
2, 155209, Note_on_c, 12, 59, 127
2, 155396, Note_off_c, 12, 59, 127
2, 155396, Note_off_c, 8, 68, 127
2, 155398, Note_on_c, 4, 64, 127
2, 155398, Note_on_c, 10, 57, 127
2, 155587, Note_on_c, 8, 68, 127
2, 155774, Note_off_c, 8, 68, 127
2, 155777, Note_on_c, 12, 71, 127
2, 155964, Note_off_c, 12, 71, 127
2, 155966, Note_on_c, 2, 74, 127
2, 156153, Note_off_c, 2, 74, 127
2, 156155, Note_on_c, 10, 69, 127
2, 156155, Note_on_c, 1, 73, 127
2, 156531, Note_off_c, 10, 57, 127
2, 156534, Note_on_c, 8, 56, 127
2, 156721, Note_off_c, 8, 56, 127
2, 156723, Note_on_c, 10, 57, 127
2, 156910, Note_off_c, 10, 57, 127
2, 156912, Note_on_c, 12, 59, 127
2, 157099, Note_off_c, 12, 59, 127
2, 157102, Note_on_c, 8, 56, 127
2, 157289, Note_off_c, 8, 56, 127
2, 157291, Note_on_c, 10, 57, 127
2, 157467, Note_off_c, 4, 64, 127
2, 157476, Note_off_c, 10, 57, 127
2, 157478, Note_on_c, 6, 54, 127
2, 157665, Note_off_c, 6, 54, 127
2, 157665, Note_off_c, 1, 73, 127
2, 157665, Note_off_c, 10, 69, 127
2, 157668, Note_on_c, 2, 74, 127
2, 157668, Note_on_c, 5, 53, 127
2, 157855, Note_off_c, 5, 53, 127
2, 157857, Note_on_c, 8, 56, 127
2, 158044, Note_off_c, 8, 56, 127
2, 158046, Note_on_c, 10, 57, 127
2, 158233, Note_off_c, 10, 57, 127
2, 158236, Note_on_c, 12, 59, 127
2, 158423, Note_off_c, 12, 59, 127
2, 158425, Note_on_c, 12, 83, 127
2, 158425, Note_on_c, 10, 57, 127
2, 158612, Note_off_c, 10, 57, 127
2, 158614, Note_on_c, 8, 56, 127
2, 158801, Note_off_c, 8, 56, 127
2, 158803, Note_on_c, 6, 54, 127
2, 158990, Note_off_c, 6, 54, 127
2, 158993, Note_on_c, 5, 53, 127
2, 159180, Note_off_c, 5, 53, 127
2, 159180, Note_off_c, 12, 83, 127
2, 159180, Note_off_c, 2, 74, 127
2, 159182, Note_on_c, 1, 73, 127
2, 159182, Note_on_c, 10, 81, 127
2, 159182, Note_on_c, 6, 54, 127
2, 159369, Note_off_c, 6, 54, 127
2, 159371, Note_on_c, 8, 56, 127
2, 159558, Note_off_c, 8, 56, 127
2, 159561, Note_on_c, 10, 57, 127
2, 159748, Note_off_c, 10, 57, 127
2, 159750, Note_on_c, 6, 54, 127
2, 159871, Note_off_c, 1, 73, 127
2, 159937, Note_off_c, 6, 54, 127
2, 159939, Note_on_c, 12, 71, 127
2, 159939, Note_on_c, 1, 49, 127
2, 159970, Note_off_c, 10, 81, 127
2, 160124, Note_off_c, 1, 49, 127
2, 160127, Note_on_c, 5, 53, 127
2, 160314, Note_off_c, 5, 53, 127
2, 160316, Note_on_c, 6, 54, 127
2, 160503, Note_off_c, 6, 54, 127
2, 160505, Note_on_c, 8, 56, 127
2, 160692, Note_off_c, 8, 56, 127
2, 160694, Note_on_c, 8, 80, 127
2, 160694, Note_on_c, 6, 54, 127
2, 160881, Note_off_c, 6, 54, 127
2, 160884, Note_on_c, 5, 53, 127
2, 161071, Note_off_c, 5, 53, 127
2, 161073, Note_on_c, 3, 51, 127
2, 161260, Note_off_c, 3, 51, 127
2, 161262, Note_on_c, 1, 49, 127
2, 161449, Note_off_c, 1, 49, 127
2, 161449, Note_off_c, 8, 80, 127
2, 161449, Note_off_c, 12, 71, 127
2, 161451, Note_on_c, 10, 69, 127
2, 161451, Note_on_c, 6, 78, 127
2, 161451, Note_on_c, 2, 50, 127
2, 161638, Note_off_c, 2, 50, 127
2, 161641, Note_on_c, 4, 52, 127
2, 161828, Note_off_c, 4, 52, 127
2, 161830, Note_on_c, 6, 54, 127
2, 162017, Note_off_c, 6, 54, 127
2, 162019, Note_on_c, 2, 50, 127
2, 162140, Note_off_c, 10, 69, 127
2, 162206, Note_off_c, 2, 50, 127
2, 162209, Note_on_c, 8, 68, 127
2, 162209, Note_on_c, 12, 47, 127
2, 162239, Note_off_c, 6, 78, 127
2, 162583, Note_off_c, 12, 47, 127
2, 162585, Note_on_c, 1, 49, 127
2, 162772, Note_off_c, 1, 49, 127
2, 162775, Note_on_c, 2, 50, 127
2, 162962, Note_off_c, 2, 50, 127
2, 162964, Note_on_c, 6, 78, 127
2, 162964, Note_on_c, 1, 49, 127
2, 163151, Note_off_c, 1, 49, 127
2, 163153, Note_on_c, 12, 47, 127
2, 163340, Note_off_c, 12, 47, 127
2, 163342, Note_on_c, 10, 45, 127
2, 163529, Note_off_c, 10, 45, 127
2, 163532, Note_on_c, 8, 44, 127
2, 163719, Note_off_c, 8, 44, 127
2, 163719, Note_off_c, 6, 78, 127
2, 163721, Note_on_c, 6, 78, 127
2, 163721, Note_on_c, 1, 49, 127
2, 163844, Note_off_c, 6, 78, 127
2, 163847, Note_on_c, 5, 77, 127
2, 163970, Note_off_c, 5, 77, 127
2, 163972, Note_on_c, 6, 78, 127
2, 164095, Note_off_c, 6, 78, 127
2, 164095, Note_off_c, 1, 49, 127
2, 164098, Note_on_c, 5, 77, 127
2, 164098, Note_on_c, 1, 37, 127
2, 164221, Note_off_c, 5, 77, 127
2, 164223, Note_on_c, 3, 75, 127
2, 164346, Note_off_c, 3, 75, 127
2, 164349, Note_on_c, 5, 77, 127
2, 164471, Note_off_c, 8, 68, 127
2, 164472, Note_off_c, 5, 77, 127
2, 164472, Note_off_c, 1, 37, 127
2, 164475, Note_on_c, 10, 69, 127
2, 164475, Note_on_c, 6, 78, 127
2, 164475, Note_on_c, 6, 42, 127
2, 164853, Note_on_c, 10, 45, 127
2, 165223, Note_off_c, 6, 42, 127
2, 165227, Note_off_c, 10, 45, 127
2, 165230, Note_on_c, 1, 49, 127
2, 165606, Note_off_c, 1, 49, 127
2, 165608, Note_on_c, 6, 54, 127
2, 165985, Note_off_c, 6, 78, 127
2, 165985, Note_off_c, 10, 69, 127
2, 165987, Note_on_c, 4, 52, 127
2, 166356, Note_off_c, 6, 54, 127
2, 166364, Note_on_c, 7, 55, 127
2, 166733, Note_off_c, 4, 52, 127
2, 166738, Note_off_c, 7, 55, 127
2, 166740, Note_on_c, 0, 72, 127
2, 166740, Note_on_c, 10, 57, 127
2, 166740, Note_on_c, 3, 51, 127
2, 166927, Note_off_c, 0, 72, 127
2, 166930, Note_on_c, 12, 71, 127
2, 167117, Note_off_c, 12, 71, 127
2, 167119, Note_on_c, 0, 72, 127
2, 167306, Note_off_c, 0, 72, 127
2, 167308, Note_on_c, 6, 78, 127
2, 167495, Note_off_c, 6, 78, 127
2, 167495, Note_off_c, 10, 57, 127
2, 167498, Note_on_c, 10, 81, 127
2, 167498, Note_on_c, 12, 59, 127
2, 167685, Note_off_c, 10, 81, 127
2, 167687, Note_on_c, 7, 79, 127
2, 167874, Note_off_c, 7, 79, 127
2, 167876, Note_on_c, 10, 81, 127
2, 168063, Note_off_c, 10, 81, 127
2, 168065, Note_on_c, 0, 84, 127
2, 168252, Note_off_c, 0, 84, 127
2, 168253, Note_off_c, 12, 59, 127
2, 168255, Note_on_c, 12, 83, 127
2, 168255, Note_on_c, 0, 60, 127
2, 168442, Note_off_c, 12, 83, 127
2, 168444, Note_on_c, 10, 81, 127
2, 168631, Note_off_c, 10, 81, 127
2, 168633, Note_on_c, 7, 79, 127
2, 168820, Note_off_c, 7, 79, 127
2, 168822, Note_on_c, 6, 78, 127
2, 169007, Note_off_c, 3, 51, 127
2, 169009, Note_off_c, 6, 78, 127
2, 169012, Note_on_c, 4, 76, 127
2, 169012, Note_on_c, 4, 52, 127
2, 169199, Note_off_c, 4, 76, 127
2, 169201, Note_on_c, 3, 75, 127
2, 169390, Note_on_c, 6, 78, 127
2, 169575, Note_off_c, 3, 75, 127
2, 169580, Note_on_c, 10, 81, 127
2, 169764, Note_off_c, 6, 78, 127
2, 169767, Note_off_c, 10, 81, 127
2, 169767, Note_off_c, 0, 60, 127
2, 169769, Note_on_c, 4, 76, 127
2, 169769, Note_on_c, 7, 79, 127
2, 169769, Note_on_c, 12, 59, 127
2, 169956, Note_off_c, 12, 59, 127
2, 169958, Note_on_c, 10, 57, 127
2, 170145, Note_off_c, 10, 57, 127
2, 170147, Note_on_c, 0, 60, 127
2, 170334, Note_off_c, 0, 60, 127
2, 170337, Note_on_c, 12, 59, 127
2, 170524, Note_off_c, 12, 59, 127
2, 170526, Note_on_c, 10, 57, 127
2, 170713, Note_off_c, 10, 57, 127
2, 170715, Note_on_c, 7, 55, 127
2, 170902, Note_off_c, 7, 55, 127
2, 170904, Note_off_c, 4, 52, 127
2, 170905, Note_on_c, 6, 54, 127
2, 171092, Note_off_c, 6, 54, 127
2, 171094, Note_on_c, 4, 52, 127
2, 171110, Note_off_c, 7, 79, 127
2, 171110, Note_off_c, 4, 76, 127
2, 171281, Note_off_c, 4, 52, 127
2, 171283, Note_on_c, 12, 71, 127
2, 171283, Note_on_c, 6, 78, 127
2, 171283, Note_on_c, 2, 50, 127
2, 171470, Note_off_c, 2, 50, 127
2, 171472, Note_on_c, 1, 49, 127
2, 171659, Note_off_c, 1, 49, 127
2, 171662, Note_on_c, 2, 50, 127
2, 171849, Note_off_c, 2, 50, 127
2, 171851, Note_on_c, 6, 54, 127
2, 172038, Note_off_c, 6, 54, 127
2, 172038, Note_off_c, 6, 78, 127
2, 172038, Note_off_c, 12, 71, 127
2, 172040, Note_on_c, 1, 73, 127
2, 172040, Note_on_c, 5, 77, 127
2, 172040, Note_on_c, 12, 59, 127
2, 172227, Note_off_c, 12, 59, 127
2, 172230, Note_on_c, 11, 58, 127
2, 172417, Note_off_c, 11, 58, 127
2, 172419, Note_on_c, 12, 59, 127
2, 172606, Note_off_c, 12, 59, 127
2, 172608, Note_on_c, 2, 62, 127
2, 172795, Note_off_c, 2, 62, 127
2, 172795, Note_off_c, 5, 77, 127
2, 172795, Note_off_c, 1, 73, 127
2, 172797, Note_on_c, 2, 74, 127
2, 172797, Note_on_c, 6, 78, 127
2, 172797, Note_on_c, 1, 61, 127
2, 172984, Note_off_c, 1, 61, 127
2, 172987, Note_on_c, 12, 59, 127
2, 173174, Note_off_c, 12, 59, 127
2, 173176, Note_on_c, 10, 57, 127
2, 173363, Note_off_c, 10, 57, 127
2, 173365, Note_on_c, 8, 56, 127
2, 173552, Note_off_c, 8, 56, 127
2, 173552, Note_off_c, 6, 78, 127
2, 173554, Note_on_c, 8, 80, 127
2, 173554, Note_on_c, 6, 54, 127
2, 173741, Note_off_c, 6, 54, 127
2, 173744, Note_on_c, 5, 53, 127
2, 173931, Note_off_c, 5, 53, 127
2, 173933, Note_on_c, 8, 56, 127
2, 174120, Note_off_c, 8, 56, 127
2, 174122, Note_on_c, 12, 59, 127
2, 174309, Note_off_c, 2, 74, 127
2, 174312, Note_on_c, 1, 73, 127
2, 174312, Note_on_c, 6, 54, 127
2, 174500, Note_off_c, 8, 80, 127
2, 174501, Note_on_c, 6, 78, 127
2, 174673, Note_off_c, 12, 59, 127
2, 174688, Note_off_c, 6, 78, 127
2, 174690, Note_on_c, 5, 77, 127
2, 174690, Note_on_c, 12, 59, 127
2, 174877, Note_off_c, 5, 77, 127
2, 174879, Note_on_c, 8, 80, 127
2, 175066, Note_off_c, 8, 80, 127
2, 175066, Note_off_c, 12, 59, 127
2, 175069, Note_on_c, 6, 78, 127
2, 175069, Note_on_c, 11, 58, 127
2, 175256, Note_off_c, 6, 78, 127
2, 175258, Note_on_c, 4, 76, 127
2, 175445, Note_off_c, 4, 76, 127
2, 175445, Note_off_c, 1, 73, 127
2, 175447, Note_on_c, 2, 74, 127
2, 175634, Note_off_c, 2, 74, 127
2, 175637, Note_on_c, 1, 73, 127
2, 175778, Note_off_c, 11, 58, 127
2, 175824, Note_off_c, 1, 73, 127
2, 175824, Note_off_c, 6, 54, 127
2, 175826, Note_on_c, 2, 74, 127
2, 175826, Note_on_c, 12, 47, 127
2, 176013, Note_off_c, 2, 74, 127
2, 176015, Note_on_c, 12, 71, 127
2, 176202, Note_off_c, 12, 71, 127
2, 176204, Note_on_c, 11, 70, 127
2, 176204, Note_on_c, 2, 50, 127
2, 176391, Note_off_c, 11, 70, 127
2, 176394, Note_on_c, 12, 71, 127
2, 176580, Note_off_c, 2, 50, 127
2, 176581, Note_off_c, 12, 71, 127
2, 176583, Note_on_c, 6, 66, 127
2, 176583, Note_on_c, 6, 54, 127
2, 176770, Note_off_c, 6, 66, 127
2, 176772, Note_on_c, 12, 71, 127
2, 176959, Note_off_c, 12, 71, 127
2, 176959, Note_off_c, 6, 54, 127
2, 176962, Note_on_c, 1, 73, 127
2, 176962, Note_on_c, 12, 59, 127
2, 177149, Note_off_c, 1, 73, 127
2, 177151, Note_on_c, 2, 74, 127
2, 177338, Note_off_c, 12, 47, 127
2, 177340, Note_on_c, 4, 64, 127
2, 177340, Note_on_c, 1, 49, 127
2, 177525, Note_off_c, 2, 74, 127
2, 177529, Note_on_c, 1, 73, 127
2, 177556, Note_off_c, 4, 64, 127
2, 177710, Note_off_c, 12, 59, 127
2, 177714, Note_off_c, 1, 73, 127
2, 177717, Note_on_c, 2, 74, 127
2, 177717, Note_on_c, 11, 58, 127
2, 177904, Note_off_c, 2, 74, 127
2, 177906, Note_on_c, 4, 76, 127
2, 178088, Note_off_c, 1, 49, 127
2, 178093, Note_off_c, 11, 58, 127
2, 178095, Note_on_c, 6, 66, 127
2, 178095, Note_on_c, 2, 50, 127
2, 178280, Note_off_c, 4, 76, 127
2, 178285, Note_on_c, 2, 74, 127
2, 178311, Note_off_c, 6, 66, 127
2, 178472, Note_off_c, 2, 74, 127
2, 178474, Note_on_c, 4, 76, 127
2, 178474, Note_on_c, 12, 59, 127
2, 178661, Note_off_c, 4, 76, 127
2, 178663, Note_on_c, 6, 78, 127
2, 178850, Note_off_c, 12, 59, 127
2, 178853, Note_on_c, 8, 68, 127
2, 178853, Note_on_c, 6, 54, 127
2, 179037, Note_off_c, 6, 78, 127
2, 179042, Note_on_c, 4, 76, 127
2, 179069, Note_off_c, 8, 68, 127
2, 179228, Note_off_c, 2, 50, 127
2, 179229, Note_off_c, 4, 76, 127
2, 179231, Note_on_c, 6, 78, 127
2, 179231, Note_on_c, 12, 47, 127
2, 179418, Note_off_c, 6, 78, 127
2, 179420, Note_on_c, 7, 79, 127
2, 179602, Note_off_c, 6, 54, 127
2, 179610, Note_on_c, 1, 73, 127
2, 179610, Note_on_c, 7, 55, 127
2, 179774, Note_off_c, 7, 79, 127
2, 179797, Note_off_c, 1, 73, 127
2, 179799, Note_on_c, 7, 79, 127
2, 179980, Note_off_c, 12, 47, 127
2, 179986, Note_off_c, 7, 79, 127
2, 179988, Note_on_c, 6, 78, 127
2, 179988, Note_on_c, 11, 46, 127
2, 180175, Note_off_c, 6, 78, 127
2, 180177, Note_on_c, 4, 76, 127
2, 180359, Note_off_c, 7, 55, 127
2, 180364, Note_off_c, 4, 76, 127
2, 180364, Note_off_c, 11, 46, 127
2, 180367, Note_on_c, 6, 54, 127
2, 180367, Note_on_c, 12, 47, 127
2, 180367, Note_on_c, 2, 74, 127
2, 180558, Note_off_c, 2, 74, 127
2, 180560, Note_on_c, 12, 83, 127
2, 180751, Note_off_c, 12, 83, 127
2, 180752, Note_off_c, 12, 47, 127
2, 180752, Note_off_c, 6, 54, 127
2, 180754, Note_on_c, 1, 49, 127
2, 180754, Note_on_c, 11, 58, 127
2, 180754, Note_on_c, 7, 79, 127
2, 180945, Note_off_c, 7, 79, 127
2, 180949, Note_on_c, 4, 76, 127
2, 181139, Note_off_c, 11, 58, 127
2, 181139, Note_off_c, 1, 49, 127
2, 181140, Note_off_c, 4, 76, 127
2, 181144, Note_on_c, 2, 50, 127
2, 181144, Note_on_c, 12, 59, 127
2, 181144, Note_on_c, 6, 78, 127
2, 181335, Note_off_c, 6, 78, 127
2, 181339, Note_on_c, 12, 71, 127
2, 181529, Note_off_c, 12, 59, 127
2, 181529, Note_off_c, 2, 50, 127
2, 181530, Note_off_c, 12, 71, 127
2, 181533, Note_on_c, 4, 52, 127
2, 181533, Note_on_c, 1, 61, 127
2, 181533, Note_on_c, 11, 70, 127
2, 181724, Note_off_c, 11, 70, 127
2, 181728, Note_on_c, 12, 71, 127
2, 181918, Note_off_c, 1, 61, 127
2, 181918, Note_off_c, 4, 52, 127
2, 181919, Note_off_c, 12, 71, 127
2, 181923, Note_on_c, 6, 66, 127
2, 181923, Note_on_c, 2, 62, 127
2, 181923, Note_on_c, 6, 54, 127
2, 182117, Note_off_c, 6, 66, 127
2, 182119, Note_on_c, 12, 71, 127
2, 182313, Note_off_c, 12, 71, 127
2, 182317, Note_off_c, 2, 62, 127
2, 182320, Note_on_c, 1, 73, 127
2, 182320, Note_on_c, 4, 64, 127
2, 182514, Note_off_c, 1, 73, 127
2, 182520, Note_on_c, 11, 70, 127
2, 182712, Note_off_c, 6, 54, 127
2, 182714, Note_off_c, 11, 70, 127
2, 182720, Note_on_c, 12, 59, 127
2, 182720, Note_on_c, 12, 71, 127
2, 182902, Note_off_c, 4, 64, 127
2, 182926, Note_on_c, 1, 61, 127
2, 183124, Note_off_c, 1, 61, 127
2, 183131, Note_on_c, 2, 62, 127
2, 183341, Note_on_c, 6, 66, 127
2, 183535, Note_off_c, 12, 71, 127
2, 183539, Note_off_c, 6, 66, 127
2, 183546, Note_on_c, 12, 71, 127
2, 183761, Note_on_c, 6, 66, 127
2, 183946, Note_off_c, 2, 62, 127
2, 183953, Note_off_c, 12, 59, 127
2, 183979, Note_on_c, 2, 62, 127
2, 184198, Note_on_c, 12, 59, 127
2, 184409, Note_off_c, 12, 59, 127
2, 184418, Note_on_c, 6, 54, 127
2, 184634, Note_off_c, 6, 54, 127
2, 184642, Note_on_c, 2, 50, 127
2, 184886, Note_off_c, 2, 50, 127
2, 184896, Note_on_c, 12, 47, 127
2, 186261, Note_off_c, 6, 66, 127
2, 186279, Note_off_c, 2, 62, 127
2, 186746, Note_off_c, 12, 71, 127
2, 187196, Note_off_c, 12, 47, 127
2, 188536, Note_on_c, 12, 59, 127
2, 188536, Note_on_c, 2, 62, 127
2, 188536, Note_on_c, 6, 66, 127
2, 188850, Note_off_c, 6, 66, 127
2, 188850, Note_off_c, 2, 62, 127
2, 188853, Note_on_c, 1, 61, 127
2, 188853, Note_on_c, 12, 71, 127
2, 189009, Note_off_c, 12, 71, 127
2, 189011, Note_on_c, 11, 70, 127
2, 189166, Note_off_c, 1, 61, 127
2, 189167, Note_off_c, 11, 70, 127
2, 189170, Note_on_c, 2, 62, 127
2, 189170, Note_on_c, 12, 71, 127
2, 189326, Note_off_c, 12, 71, 127
2, 189328, Note_on_c, 1, 73, 127
2, 189483, Note_off_c, 2, 62, 127
2, 189484, Note_off_c, 1, 73, 127
2, 189486, Note_on_c, 6, 66, 127
2, 189486, Note_on_c, 2, 74, 127
2, 189642, Note_off_c, 2, 74, 127
2, 189645, Note_on_c, 12, 71, 127
2, 189799, Note_off_c, 6, 66, 127
2, 189801, Note_off_c, 12, 71, 127
2, 189803, Note_on_c, 4, 64, 127
2, 189803, Note_on_c, 7, 79, 127
2, 190083, Note_off_c, 7, 79, 127
2, 190117, Note_off_c, 4, 64, 127
2, 190120, Note_on_c, 2, 62, 127
2, 190120, Note_on_c, 7, 79, 127
2, 190276, Note_off_c, 7, 79, 127
2, 190278, Note_on_c, 6, 78, 127
2, 190433, Note_off_c, 2, 62, 127
2, 190434, Note_off_c, 6, 78, 127
2, 190434, Note_off_c, 12, 59, 127
2, 190436, Note_on_c, 7, 55, 127
2, 190436, Note_on_c, 1, 61, 127
2, 190436, Note_on_c, 4, 76, 127
2, 190750, Note_off_c, 4, 76, 127
2, 190750, Note_off_c, 1, 61, 127
2, 190753, Note_on_c, 12, 59, 127
2, 190753, Note_on_c, 2, 74, 127
2, 191049, Note_off_c, 2, 74, 127
2, 191067, Note_off_c, 12, 59, 127
2, 191070, Note_on_c, 4, 64, 127
2, 191070, Note_on_c, 1, 73, 127
2, 191384, Note_off_c, 1, 73, 127
2, 191384, Note_off_c, 7, 55, 127
2, 191386, Note_on_c, 6, 54, 127
2, 191386, Note_on_c, 12, 71, 127
2, 191542, Note_off_c, 12, 71, 127
2, 191542, Note_off_c, 6, 54, 127
2, 191545, Note_on_c, 4, 52, 127
2, 191545, Note_on_c, 11, 70, 127
2, 191696, Note_off_c, 4, 64, 127
2, 191701, Note_off_c, 11, 70, 127
2, 191701, Note_off_c, 4, 52, 127
2, 191703, Note_on_c, 6, 54, 127
2, 191703, Note_on_c, 2, 50, 127
2, 191703, Note_on_c, 12, 71, 127
2, 191859, Note_off_c, 12, 71, 127
2, 191861, Note_on_c, 1, 73, 127
2, 192017, Note_off_c, 1, 73, 127
2, 192017, Note_off_c, 2, 50, 127
2, 192020, Note_on_c, 1, 49, 127
2, 192020, Note_on_c, 2, 74, 127
2, 192176, Note_off_c, 2, 74, 127
2, 192178, Note_on_c, 4, 76, 127
2, 192329, Note_off_c, 6, 54, 127
2, 192334, Note_off_c, 4, 76, 127
2, 192334, Note_off_c, 1, 49, 127
2, 192336, Note_on_c, 2, 50, 127
2, 192336, Note_on_c, 12, 59, 127
2, 192336, Note_on_c, 6, 78, 127
2, 192650, Note_off_c, 6, 78, 127
2, 192650, Note_off_c, 2, 50, 127
2, 192653, Note_on_c, 4, 52, 127
2, 192653, Note_on_c, 4, 76, 127
2, 192809, Note_off_c, 4, 76, 127
2, 192811, Note_on_c, 2, 74, 127
2, 192962, Note_off_c, 12, 59, 127
2, 192967, Note_off_c, 2, 74, 127
2, 192967, Note_off_c, 4, 52, 127
2, 192970, Note_on_c, 6, 54, 127
2, 192970, Note_on_c, 11, 58, 127
2, 192970, Note_on_c, 4, 76, 127
2, 193126, Note_off_c, 4, 76, 127
2, 193128, Note_on_c, 2, 74, 127
2, 193284, Note_off_c, 2, 74, 127
2, 193284, Note_off_c, 11, 58, 127
2, 193284, Note_off_c, 6, 54, 127
2, 193286, Note_on_c, 12, 47, 127
2, 193286, Note_on_c, 12, 59, 127
2, 193286, Note_on_c, 1, 73, 127
2, 193442, Note_off_c, 1, 73, 127
2, 193445, Note_on_c, 12, 71, 127
2, 193585, Note_off_c, 12, 71, 127
2, 193600, Note_off_c, 12, 59, 127
2, 193600, Note_off_c, 12, 47, 127
2, 193603, Note_on_c, 12, 59, 127
2, 193603, Note_on_c, 2, 74, 127
2, 193759, Note_off_c, 2, 74, 127
2, 193761, Note_on_c, 1, 73, 127
2, 193917, Note_off_c, 1, 73, 127
2, 193920, Note_on_c, 1, 61, 127
2, 193920, Note_on_c, 12, 71, 127
2, 194076, Note_off_c, 12, 71, 127
2, 194078, Note_on_c, 11, 70, 127
2, 194234, Note_off_c, 11, 70, 127
2, 194234, Note_off_c, 1, 61, 127
2, 194236, Note_on_c, 2, 62, 127
2, 194236, Note_on_c, 12, 71, 127
2, 194392, Note_off_c, 12, 71, 127
2, 194395, Note_on_c, 1, 73, 127
2, 194550, Note_off_c, 2, 62, 127
2, 194551, Note_off_c, 1, 73, 127
2, 194553, Note_on_c, 6, 66, 127
2, 194553, Note_on_c, 2, 74, 127
2, 194709, Note_off_c, 2, 74, 127
2, 194711, Note_on_c, 12, 71, 127
2, 194867, Note_off_c, 12, 71, 127
2, 194867, Note_off_c, 6, 66, 127
2, 194870, Note_on_c, 4, 64, 127
2, 194870, Note_on_c, 7, 79, 127
2, 195150, Note_off_c, 7, 79, 127
2, 195184, Note_off_c, 4, 64, 127
2, 195186, Note_on_c, 2, 62, 127
2, 195186, Note_on_c, 7, 79, 127
2, 195342, Note_off_c, 7, 79, 127
2, 195345, Note_on_c, 6, 78, 127
2, 195499, Note_off_c, 12, 59, 127
2, 195500, Note_off_c, 2, 62, 127
2, 195501, Note_off_c, 6, 78, 127
2, 195503, Note_on_c, 1, 61, 127
2, 195503, Note_on_c, 4, 76, 127
2, 195817, Note_off_c, 4, 76, 127
2, 195820, Note_on_c, 10, 57, 127
2, 195820, Note_on_c, 6, 78, 127
2, 195976, Note_off_c, 6, 78, 127
2, 195976, Note_off_c, 10, 57, 127
2, 195978, Note_on_c, 7, 55, 127
2, 195978, Note_on_c, 7, 79, 127
2, 196134, Note_off_c, 7, 79, 127
2, 196134, Note_off_c, 7, 55, 127
2, 196136, Note_on_c, 6, 54, 127
2, 196136, Note_on_c, 10, 81, 127
2, 196450, Note_off_c, 10, 81, 127
2, 196450, Note_off_c, 6, 54, 127
2, 196451, Note_off_c, 1, 61, 127
2, 196453, Note_on_c, 4, 52, 127
2, 196453, Note_on_c, 4, 64, 127
2, 196453, Note_on_c, 1, 73, 127
2, 196749, Note_off_c, 1, 73, 127
2, 196767, Note_off_c, 4, 64, 127
2, 196767, Note_off_c, 4, 52, 127
2, 196770, Note_on_c, 6, 54, 127
2, 196770, Note_on_c, 2, 62, 127
2, 196770, Note_on_c, 2, 74, 127
2, 196926, Note_off_c, 2, 74, 127
2, 196928, Note_on_c, 1, 73, 127
2, 197084, Note_off_c, 1, 73, 127
2, 197084, Note_off_c, 6, 54, 127
2, 197087, Note_on_c, 7, 55, 127
2, 197087, Note_on_c, 12, 71, 127
2, 197243, Note_off_c, 12, 71, 127
2, 197245, Note_on_c, 10, 69, 127
2, 197392, Note_off_c, 10, 69, 127
2, 197401, Note_off_c, 7, 55, 127
2, 197403, Note_on_c, 10, 57, 127
2, 197403, Note_on_c, 7, 79, 127
2, 197559, Note_off_c, 7, 79, 127
2, 197562, Note_on_c, 6, 78, 127
2, 197718, Note_off_c, 6, 78, 127
2, 197718, Note_off_c, 2, 62, 127
2, 197720, Note_on_c, 1, 61, 127
2, 197720, Note_on_c, 4, 76, 127
2, 197876, Note_off_c, 4, 76, 127
2, 197878, Note_on_c, 6, 78, 127
2, 198029, Note_off_c, 10, 57, 127
2, 198034, Note_off_c, 6, 78, 127
2, 198034, Note_off_c, 1, 61, 127
2, 198037, Note_on_c, 2, 62, 127
2, 198037, Note_on_c, 2, 74, 127
2, 198353, Note_on_c, 2, 50, 127
2, 198499, Note_off_c, 2, 74, 127
2, 198597, Note_off_c, 2, 62, 127
2, 198667, Note_off_c, 2, 50, 127
2, 198670, Note_on_c, 6, 54, 127
2, 198670, Note_on_c, 2, 50, 127
2, 198670, Note_on_c, 10, 69, 127
2, 198984, Note_off_c, 10, 69, 127
2, 198984, Note_off_c, 2, 50, 127
2, 198984, Note_off_c, 6, 54, 127
2, 198987, Note_on_c, 7, 55, 127
2, 198987, Note_on_c, 4, 52, 127
2, 198987, Note_on_c, 2, 74, 127
2, 199143, Note_off_c, 2, 74, 127
2, 199145, Note_on_c, 1, 73, 127
2, 199301, Note_off_c, 1, 73, 127
2, 199301, Note_off_c, 4, 52, 127
2, 199301, Note_off_c, 7, 55, 127
2, 199303, Note_on_c, 6, 54, 127
2, 199303, Note_on_c, 10, 57, 127
2, 199303, Note_on_c, 2, 74, 127
2, 199459, Note_off_c, 2, 74, 127
2, 199462, Note_on_c, 4, 76, 127
2, 199617, Note_off_c, 6, 54, 127
2, 199618, Note_off_c, 4, 76, 127
2, 199620, Note_on_c, 2, 50, 127
2, 199620, Note_on_c, 6, 78, 127
2, 199776, Note_off_c, 6, 78, 127
2, 199778, Note_on_c, 2, 74, 127
2, 199929, Note_off_c, 10, 57, 127
2, 199934, Note_off_c, 2, 74, 127
2, 199937, Note_on_c, 12, 59, 127
2, 199937, Note_on_c, 7, 67, 127
2, 200246, Note_off_c, 2, 50, 127
2, 200251, Note_off_c, 7, 67, 127
2, 200253, Note_on_c, 2, 50, 127
2, 200253, Note_on_c, 7, 67, 127
2, 200409, Note_off_c, 7, 67, 127
2, 200412, Note_on_c, 6, 66, 127
2, 200563, Note_off_c, 12, 59, 127
2, 200568, Note_off_c, 6, 66, 127
2, 200570, Note_on_c, 10, 57, 127
2, 200570, Note_on_c, 7, 67, 127
2, 200715, Note_off_c, 2, 50, 127
2, 200728, Note_on_c, 1, 49, 127
2, 200884, Note_off_c, 1, 49, 127
2, 200884, Note_off_c, 7, 67, 127
2, 200887, Note_on_c, 12, 47, 127
2, 200887, Note_on_c, 4, 76, 127
2, 201043, Note_off_c, 12, 47, 127
2, 201045, Note_on_c, 10, 45, 127
2, 201201, Note_off_c, 10, 45, 127
2, 201201, Note_off_c, 4, 76, 127
2, 201203, Note_on_c, 2, 50, 127
2, 201203, Note_on_c, 7, 67, 127
2, 201359, Note_off_c, 7, 67, 127
2, 201362, Note_on_c, 6, 66, 127
2, 201518, Note_off_c, 6, 66, 127
2, 201518, Note_off_c, 10, 57, 127
2, 201520, Note_on_c, 10, 57, 127
2, 201520, Note_on_c, 4, 64, 127
2, 201676, Note_off_c, 4, 64, 127
2, 201678, Note_on_c, 6, 66, 127
2, 201834, Note_off_c, 6, 66, 127
2, 201834, Note_off_c, 10, 57, 127
2, 201837, Note_on_c, 12, 59, 127
2, 201837, Note_on_c, 8, 68, 127
2, 201993, Note_off_c, 8, 68, 127
2, 201995, Note_on_c, 10, 69, 127
2, 202151, Note_off_c, 10, 69, 127
2, 202151, Note_off_c, 12, 59, 127
2, 202151, Note_off_c, 2, 50, 127
2, 202153, Note_on_c, 1, 49, 127
2, 202153, Note_on_c, 10, 57, 127
2, 202153, Note_on_c, 12, 71, 127
2, 202309, Note_off_c, 12, 71, 127
2, 202312, Note_on_c, 1, 73, 127
2, 202467, Note_off_c, 1, 49, 127
2, 202468, Note_off_c, 1, 73, 127
2, 202470, Note_on_c, 12, 47, 127
2, 202470, Note_on_c, 2, 74, 127
2, 202626, Note_off_c, 2, 74, 127
2, 202628, Note_on_c, 1, 73, 127
2, 202779, Note_off_c, 10, 57, 127
2, 202784, Note_off_c, 1, 73, 127
2, 202784, Note_off_c, 12, 47, 127
2, 202787, Note_on_c, 8, 56, 127
2, 202787, Note_on_c, 4, 52, 127
2, 202787, Note_on_c, 12, 71, 127
2, 202943, Note_off_c, 12, 71, 127
2, 202945, Note_on_c, 4, 76, 127
2, 203101, Note_off_c, 4, 76, 127
2, 203101, Note_off_c, 4, 52, 127
2, 203101, Note_off_c, 8, 56, 127
2, 203103, Note_on_c, 10, 45, 127
2, 203103, Note_on_c, 10, 57, 127
2, 203103, Note_on_c, 2, 74, 127
2, 203259, Note_off_c, 2, 74, 127
2, 203262, Note_on_c, 1, 73, 127
2, 203417, Note_off_c, 10, 57, 127
2, 203418, Note_off_c, 1, 73, 127
2, 203420, Note_on_c, 4, 52, 127
2, 203420, Note_on_c, 12, 71, 127
2, 203576, Note_off_c, 12, 71, 127
2, 203578, Note_on_c, 10, 69, 127
2, 203709, Note_off_c, 10, 69, 127
2, 203729, Note_off_c, 10, 45, 127
2, 203734, Note_off_c, 4, 52, 127
2, 203737, Note_on_c, 10, 57, 127
2, 203737, Note_on_c, 1, 73, 127
2, 204051, Note_off_c, 1, 73, 127
2, 204051, Note_off_c, 10, 57, 127
2, 204053, Note_on_c, 12, 59, 127
2, 204053, Note_on_c, 8, 56, 127
2, 204053, Note_on_c, 6, 78, 127
2, 204209, Note_off_c, 6, 78, 127
2, 204212, Note_on_c, 5, 77, 127
2, 204367, Note_off_c, 8, 56, 127
2, 204367, Note_off_c, 12, 59, 127
2, 204368, Note_off_c, 5, 77, 127
2, 204370, Note_on_c, 1, 61, 127
2, 204370, Note_on_c, 10, 57, 127
2, 204370, Note_on_c, 6, 78, 127
2, 204526, Note_off_c, 6, 78, 127
2, 204529, Note_on_c, 8, 80, 127
2, 204684, Note_off_c, 10, 57, 127
2, 204685, Note_off_c, 8, 80, 127
2, 204687, Note_on_c, 6, 54, 127
2, 204687, Note_on_c, 10, 81, 127
2, 204843, Note_off_c, 10, 81, 127
2, 204845, Note_on_c, 8, 80, 127
2, 204996, Note_off_c, 1, 61, 127
2, 205001, Note_off_c, 8, 80, 127
2, 205001, Note_off_c, 6, 54, 127
2, 205004, Note_on_c, 6, 54, 127
2, 205004, Note_on_c, 2, 50, 127
2, 205004, Note_on_c, 12, 83, 127
2, 205160, Note_off_c, 12, 83, 127
2, 205162, Note_on_c, 10, 81, 127
2, 205318, Note_off_c, 10, 81, 127
2, 205318, Note_off_c, 6, 54, 127
2, 205320, Note_on_c, 12, 59, 127
2, 205320, Note_on_c, 8, 80, 127
2, 205476, Note_off_c, 8, 80, 127
2, 205479, Note_on_c, 6, 78, 127
2, 205630, Note_off_c, 2, 50, 127
2, 205635, Note_off_c, 6, 78, 127
2, 205637, Note_on_c, 1, 49, 127
2, 205637, Note_on_c, 5, 77, 127
2, 205793, Note_off_c, 5, 77, 127
2, 205795, Note_on_c, 3, 75, 127
2, 205946, Note_off_c, 12, 59, 127
2, 205951, Note_off_c, 3, 75, 127
2, 205951, Note_off_c, 1, 49, 127
2, 205954, Note_on_c, 8, 56, 127
2, 205954, Note_on_c, 12, 47, 127
2, 205954, Note_on_c, 6, 78, 127
2, 206110, Note_off_c, 6, 78, 127
2, 206112, Note_on_c, 5, 77, 127
2, 206268, Note_off_c, 5, 77, 127
2, 206268, Note_off_c, 8, 56, 127
2, 206270, Note_on_c, 5, 53, 127
2, 206270, Note_on_c, 3, 75, 127
2, 206426, Note_off_c, 3, 75, 127
2, 206429, Note_on_c, 1, 73, 127
2, 206580, Note_off_c, 12, 47, 127
2, 206584, Note_off_c, 5, 53, 127
2, 206585, Note_off_c, 1, 73, 127
2, 206587, Note_on_c, 6, 54, 127
2, 206587, Note_on_c, 10, 45, 127
2, 206587, Note_on_c, 6, 78, 127
2, 206743, Note_off_c, 10, 45, 127
2, 206745, Note_on_c, 12, 47, 127
2, 206901, Note_off_c, 12, 47, 127
2, 206901, Note_off_c, 6, 78, 127
2, 206904, Note_on_c, 1, 49, 127
2, 206904, Note_on_c, 12, 71, 127
2, 207060, Note_off_c, 12, 71, 127
2, 207062, Note_on_c, 10, 69, 127
2, 207213, Note_off_c, 6, 54, 127
2, 207218, Note_off_c, 10, 69, 127
2, 207220, Note_on_c, 5, 53, 127
2, 207220, Note_on_c, 8, 68, 127
2, 207376, Note_off_c, 8, 68, 127
2, 207379, Note_on_c, 10, 69, 127
2, 207530, Note_off_c, 1, 49, 127
2, 207534, Note_off_c, 5, 53, 127
2, 207535, Note_off_c, 10, 69, 127
2, 207537, Note_on_c, 6, 42, 127
2, 207537, Note_on_c, 6, 66, 127
2, 207851, Note_off_c, 6, 42, 127
2, 207854, Note_on_c, 6, 54, 127
2, 208010, Note_off_c, 6, 54, 127
2, 208012, Note_on_c, 4, 52, 127
2, 208168, Note_off_c, 4, 52, 127
2, 208170, Note_on_c, 6, 54, 127
2, 208326, Note_off_c, 6, 54, 127
2, 208329, Note_on_c, 8, 56, 127
2, 208485, Note_off_c, 8, 56, 127
2, 208485, Note_off_c, 6, 66, 127
2, 208487, Note_on_c, 10, 57, 127
2, 208643, Note_off_c, 10, 57, 127
2, 208645, Note_on_c, 6, 54, 127
2, 208801, Note_off_c, 6, 54, 127
2, 208804, Note_on_c, 3, 51, 127
2, 208804, Note_on_c, 10, 81, 127
2, 209118, Note_off_c, 10, 81, 127
2, 209118, Note_off_c, 3, 51, 127
2, 209120, Note_on_c, 6, 54, 127
2, 209120, Note_on_c, 3, 75, 127
2, 209276, Note_off_c, 3, 75, 127
2, 209279, Note_on_c, 1, 73, 127
2, 209434, Note_off_c, 6, 54, 127
2, 209435, Note_off_c, 1, 73, 127
2, 209437, Note_on_c, 12, 59, 127
2, 209437, Note_on_c, 3, 75, 127
2, 209593, Note_off_c, 3, 75, 127
2, 209595, Note_on_c, 4, 76, 127
2, 209751, Note_off_c, 4, 76, 127
2, 209751, Note_off_c, 12, 59, 127
2, 209754, Note_on_c, 10, 57, 127
2, 209754, Note_on_c, 6, 78, 127
2, 209910, Note_off_c, 6, 78, 127
2, 209912, Note_on_c, 3, 75, 127
2, 210068, Note_off_c, 3, 75, 127
2, 210068, Note_off_c, 10, 57, 127
2, 210070, Note_on_c, 7, 55, 127
2, 210070, Note_on_c, 12, 83, 127
2, 210226, Note_off_c, 12, 83, 127
2, 210226, Note_off_c, 7, 55, 127
2, 210229, Note_on_c, 6, 54, 127
2, 210229, Note_on_c, 10, 81, 127
2, 210385, Note_off_c, 10, 81, 127
2, 210385, Note_off_c, 6, 54, 127
2, 210387, Note_on_c, 4, 52, 127
2, 210387, Note_on_c, 7, 79, 127
2, 210543, Note_off_c, 7, 79, 127
2, 210543, Note_off_c, 4, 52, 127
2, 210545, Note_on_c, 6, 54, 127
2, 210545, Note_on_c, 10, 81, 127
2, 210701, Note_off_c, 10, 81, 127
2, 210701, Note_off_c, 6, 54, 127
2, 210704, Note_on_c, 7, 55, 127
2, 210704, Note_on_c, 12, 83, 127
2, 210860, Note_off_c, 7, 55, 127
2, 210862, Note_on_c, 6, 54, 127
2, 211018, Note_off_c, 6, 54, 127
2, 211020, Note_on_c, 4, 52, 127
2, 211176, Note_off_c, 4, 52, 127
2, 211179, Note_on_c, 2, 50, 127
2, 211335, Note_off_c, 2, 50, 127
2, 211337, Note_on_c, 1, 49, 127
2, 211495, Note_off_c, 12, 83, 127
2, 211651, Note_off_c, 1, 49, 127
2, 211654, Note_on_c, 4, 52, 127
2, 211654, Note_on_c, 1, 73, 127
2, 211810, Note_off_c, 1, 73, 127
2, 211812, Note_on_c, 12, 71, 127
2, 211968, Note_off_c, 12, 71, 127
2, 211968, Note_off_c, 4, 52, 127
2, 211970, Note_on_c, 10, 57, 127
2, 211970, Note_on_c, 1, 73, 127
2, 212126, Note_off_c, 1, 73, 127
2, 212129, Note_on_c, 2, 74, 127
2, 212284, Note_off_c, 10, 57, 127
2, 212285, Note_off_c, 2, 74, 127
2, 212287, Note_on_c, 7, 55, 127
2, 212287, Note_on_c, 4, 76, 127
2, 212443, Note_off_c, 4, 76, 127
2, 212446, Note_on_c, 1, 73, 127
2, 212601, Note_off_c, 7, 55, 127
2, 212602, Note_off_c, 1, 73, 127
2, 212604, Note_on_c, 6, 54, 127
2, 212604, Note_on_c, 10, 81, 127
2, 212760, Note_off_c, 10, 81, 127
2, 212760, Note_off_c, 6, 54, 127
2, 212762, Note_on_c, 4, 52, 127
2, 212762, Note_on_c, 7, 79, 127
2, 212918, Note_off_c, 7, 79, 127
2, 212918, Note_off_c, 4, 52, 127
2, 212921, Note_on_c, 2, 50, 127
2, 212921, Note_on_c, 6, 78, 127
2, 213077, Note_off_c, 6, 78, 127
2, 213077, Note_off_c, 2, 50, 127
2, 213079, Note_on_c, 4, 52, 127
2, 213079, Note_on_c, 7, 79, 127
2, 213235, Note_off_c, 7, 79, 127
2, 213235, Note_off_c, 4, 52, 127
2, 213237, Note_on_c, 6, 54, 127
2, 213237, Note_on_c, 10, 81, 127
2, 213393, Note_off_c, 6, 54, 127
2, 213396, Note_on_c, 4, 52, 127
2, 213552, Note_off_c, 4, 52, 127
2, 213554, Note_on_c, 2, 50, 127
2, 213710, Note_off_c, 2, 50, 127
2, 213712, Note_on_c, 1, 49, 127
2, 213868, Note_off_c, 1, 49, 127
2, 213871, Note_on_c, 12, 47, 127
2, 214027, Note_off_c, 12, 47, 127
2, 214029, Note_on_c, 2, 50, 127
2, 214094, Note_off_c, 10, 81, 127
2, 214185, Note_off_c, 2, 50, 127
2, 214187, Note_on_c, 7, 55, 127
2, 214187, Note_on_c, 12, 71, 127
2, 214343, Note_off_c, 12, 71, 127
2, 214343, Note_off_c, 7, 55, 127
2, 214346, Note_on_c, 6, 54, 127
2, 214346, Note_on_c, 11, 70, 127
2, 214502, Note_off_c, 11, 70, 127
2, 214502, Note_off_c, 6, 54, 127
2, 214504, Note_on_c, 4, 52, 127
2, 214504, Note_on_c, 12, 71, 127
2, 214660, Note_off_c, 4, 52, 127
2, 214662, Note_on_c, 2, 50, 127
2, 214800, Note_off_c, 12, 71, 127
2, 214818, Note_off_c, 2, 50, 127
2, 214821, Note_on_c, 1, 49, 127
2, 214821, Note_on_c, 7, 79, 127
2, 214977, Note_off_c, 1, 49, 127
2, 214979, Note_on_c, 12, 47, 127
2, 215117, Note_off_c, 7, 79, 127
2, 215135, Note_off_c, 12, 47, 127
2, 215137, Note_on_c, 1, 49, 127
2, 215137, Note_on_c, 11, 70, 127
2, 215293, Note_off_c, 11, 70, 127
2, 215293, Note_off_c, 1, 49, 127
2, 215296, Note_on_c, 2, 50, 127
2, 215296, Note_on_c, 12, 71, 127
2, 215452, Note_off_c, 12, 71, 127
2, 215452, Note_off_c, 2, 50, 127
2, 215454, Note_on_c, 4, 52, 127
2, 215454, Note_on_c, 1, 73, 127
2, 215610, Note_off_c, 1, 73, 127
2, 215610, Note_off_c, 4, 52, 127
2, 215612, Note_on_c, 6, 54, 127
2, 215612, Note_on_c, 2, 74, 127
2, 215768, Note_off_c, 2, 74, 127
2, 215768, Note_off_c, 6, 54, 127
2, 215771, Note_on_c, 8, 56, 127
2, 215771, Note_on_c, 4, 76, 127
2, 215927, Note_off_c, 8, 56, 127
2, 215929, Note_on_c, 11, 58, 127
2, 216067, Note_off_c, 4, 76, 127
2, 216085, Note_off_c, 11, 58, 127
2, 216087, Note_on_c, 12, 59, 127
2, 216087, Note_on_c, 7, 67, 127
2, 216243, Note_off_c, 12, 59, 127
2, 216246, Note_on_c, 11, 58, 127
2, 216402, Note_off_c, 11, 58, 127
2, 216404, Note_on_c, 12, 59, 127
2, 216558, Note_off_c, 7, 67, 127
2, 216562, Note_on_c, 6, 66, 127
2, 216718, Note_off_c, 6, 66, 127
2, 216718, Note_off_c, 12, 59, 127
2, 216721, Note_on_c, 11, 58, 127
2, 216721, Note_on_c, 4, 64, 127
2, 216877, Note_off_c, 4, 64, 127
2, 216879, Note_on_c, 6, 66, 127
2, 217035, Note_off_c, 6, 66, 127
2, 217035, Note_off_c, 11, 58, 127
2, 217037, Note_on_c, 12, 59, 127
2, 217037, Note_on_c, 2, 74, 127
2, 217193, Note_off_c, 2, 74, 127
2, 217196, Note_on_c, 12, 71, 127
2, 217351, Note_off_c, 12, 59, 127
2, 217352, Note_off_c, 12, 71, 127
2, 217354, Note_on_c, 7, 55, 127
2, 217354, Note_on_c, 11, 70, 127
2, 217510, Note_off_c, 11, 70, 127
2, 217512, Note_on_c, 12, 71, 127
2, 217668, Note_off_c, 12, 71, 127
2, 217668, Note_off_c, 7, 55, 127
2, 217671, Note_on_c, 6, 54, 127
2, 217671, Note_on_c, 4, 76, 127
2, 217827, Note_off_c, 4, 76, 127
2, 217829, Note_on_c, 2, 74, 127
2, 217985, Note_off_c, 2, 74, 127
2, 217987, Note_on_c, 12, 59, 127
2, 217987, Note_on_c, 1, 73, 127
2, 218143, Note_off_c, 1, 73, 127
2, 218146, Note_on_c, 12, 71, 127
2, 218301, Note_off_c, 12, 59, 127
2, 218302, Note_off_c, 12, 71, 127
2, 218304, Note_on_c, 11, 58, 127
2, 218304, Note_on_c, 1, 73, 127
2, 218584, Note_off_c, 1, 73, 127
2, 218619, Note_off_c, 6, 54, 127
2, 218621, Note_on_c, 4, 52, 127
2, 218621, Note_on_c, 6, 66, 127
2, 218930, Note_off_c, 11, 58, 127
2, 218935, Note_off_c, 4, 52, 127
2, 218937, Note_on_c, 2, 50, 127
2, 219241, Note_off_c, 6, 66, 127
2, 219252, Note_on_c, 6, 54, 127
2, 219252, Note_on_c, 12, 71, 127
2, 219408, Note_off_c, 12, 71, 127
2, 219411, Note_on_c, 11, 70, 127
2, 219566, Note_off_c, 6, 54, 127
2, 219567, Note_off_c, 11, 70, 127
2, 219569, Note_on_c, 12, 59, 127
2, 219569, Note_on_c, 12, 71, 127
2, 219725, Note_off_c, 12, 71, 127
2, 219727, Note_on_c, 1, 73, 127
2, 219883, Note_off_c, 1, 73, 127
2, 219883, Note_off_c, 2, 50, 127
2, 219886, Note_on_c, 12, 47, 127
2, 219886, Note_on_c, 2, 74, 127
2, 220042, Note_off_c, 2, 74, 127
2, 220044, Note_on_c, 12, 71, 127
2, 220200, Note_off_c, 12, 71, 127
2, 220200, Note_off_c, 12, 47, 127
2, 220202, Note_on_c, 1, 49, 127
2, 220202, Note_on_c, 7, 79, 127
2, 220516, Note_off_c, 7, 79, 127
2, 220517, Note_off_c, 12, 59, 127
2, 220519, Note_on_c, 4, 52, 127
2, 220519, Note_on_c, 7, 79, 127
2, 220675, Note_off_c, 7, 79, 127
2, 220677, Note_on_c, 6, 78, 127
2, 220833, Note_off_c, 6, 78, 127
2, 220833, Note_off_c, 4, 52, 127
2, 220836, Note_on_c, 11, 58, 127
2, 220836, Note_on_c, 4, 76, 127
2, 221132, Note_off_c, 4, 76, 127
2, 221150, Note_off_c, 11, 58, 127
2, 221150, Note_off_c, 1, 49, 127
2, 221152, Note_on_c, 12, 59, 127
2, 221152, Note_on_c, 2, 50, 127
2, 221152, Note_on_c, 2, 74, 127
2, 221448, Note_off_c, 2, 74, 127
2, 221466, Note_off_c, 2, 50, 127
2, 221466, Note_off_c, 12, 59, 127
2, 221469, Note_on_c, 1, 61, 127
2, 221469, Note_on_c, 4, 52, 127
2, 221469, Note_on_c, 1, 73, 127
2, 221783, Note_off_c, 1, 73, 127
2, 221783, Note_off_c, 4, 52, 127
2, 221786, Note_on_c, 6, 54, 127
2, 221786, Note_on_c, 12, 71, 127
2, 221942, Note_off_c, 12, 71, 127
2, 221944, Note_on_c, 11, 70, 127
2, 222095, Note_off_c, 1, 61, 127
2, 222100, Note_off_c, 11, 70, 127
2, 222100, Note_off_c, 6, 54, 127
2, 222102, Note_on_c, 7, 55, 127
2, 222102, Note_on_c, 12, 59, 127
2, 222102, Note_on_c, 12, 71, 127
2, 222258, Note_off_c, 12, 71, 127
2, 222261, Note_on_c, 1, 73, 127
2, 222416, Note_off_c, 7, 55, 127
2, 222417, Note_off_c, 1, 73, 127
2, 222419, Note_on_c, 6, 54, 127
2, 222419, Note_on_c, 2, 74, 127
2, 222575, Note_off_c, 2, 74, 127
2, 222575, Note_off_c, 6, 54, 127
2, 222577, Note_on_c, 4, 52, 127
2, 222577, Note_on_c, 4, 76, 127
2, 222733, Note_off_c, 4, 76, 127
2, 222733, Note_off_c, 4, 52, 127
2, 222736, Note_on_c, 2, 50, 127
2, 222736, Note_on_c, 6, 78, 127
2, 222892, Note_off_c, 6, 78, 127
2, 222894, Note_on_c, 4, 76, 127
2, 223050, Note_off_c, 4, 76, 127
2, 223050, Note_off_c, 2, 50, 127
2, 223050, Note_off_c, 12, 59, 127
2, 223052, Note_on_c, 6, 54, 127
2, 223052, Note_on_c, 11, 58, 127
2, 223052, Note_on_c, 2, 74, 127
2, 223208, Note_off_c, 2, 74, 127
2, 223211, Note_on_c, 1, 73, 127
2, 223366, Note_off_c, 11, 58, 127
2, 223366, Note_off_c, 6, 54, 127
2, 223367, Note_off_c, 1, 73, 127
2, 223369, Note_on_c, 12, 59, 127
2, 223369, Note_on_c, 4, 76, 127
2, 223525, Note_off_c, 4, 76, 127
2, 223527, Note_on_c, 2, 74, 127
2, 223683, Note_off_c, 2, 74, 127
2, 223683, Note_off_c, 12, 59, 127
2, 223686, Note_on_c, 10, 57, 127
2, 223686, Note_on_c, 1, 73, 127
2, 223842, Note_off_c, 1, 73, 127
2, 223844, Note_on_c, 12, 71, 127
2, 224000, Note_off_c, 12, 71, 127
2, 224000, Note_off_c, 10, 57, 127
2, 224003, Note_on_c, 7, 55, 127
2, 224003, Note_on_c, 2, 74, 127
2, 224159, Note_off_c, 2, 74, 127
2, 224161, Note_on_c, 1, 73, 127
2, 224317, Note_off_c, 1, 73, 127
2, 224317, Note_off_c, 7, 55, 127
2, 224319, Note_on_c, 6, 54, 127
2, 224319, Note_on_c, 12, 71, 127
2, 224475, Note_off_c, 12, 71, 127
2, 224478, Note_on_c, 11, 70, 127
2, 224633, Note_off_c, 6, 54, 127
2, 224634, Note_off_c, 11, 70, 127
2, 224636, Note_on_c, 4, 52, 127
2, 224636, Note_on_c, 7, 79, 127
2, 224792, Note_off_c, 7, 79, 127
2, 224794, Note_on_c, 6, 78, 127
2, 224950, Note_off_c, 6, 78, 127
2, 224950, Note_off_c, 4, 52, 127
2, 224953, Note_on_c, 7, 55, 127
2, 224953, Note_on_c, 4, 76, 127
2, 225109, Note_off_c, 4, 76, 127
2, 225111, Note_on_c, 3, 75, 127
2, 225267, Note_off_c, 3, 75, 127
2, 225267, Note_off_c, 7, 55, 127
2, 225269, Note_on_c, 10, 81, 127
2, 225269, Note_on_c, 1, 49, 127
2, 225429, Note_off_c, 10, 81, 127
2, 225431, Note_on_c, 7, 79, 127
2, 225591, Note_off_c, 7, 79, 127
2, 225592, Note_off_c, 1, 49, 127
2, 225595, Note_on_c, 6, 78, 127
2, 225595, Note_on_c, 7, 55, 127
2, 225755, Note_off_c, 6, 78, 127
2, 225759, Note_on_c, 4, 76, 127
2, 225918, Note_off_c, 7, 55, 127
2, 225919, Note_off_c, 4, 76, 127
2, 225923, Note_on_c, 6, 54, 127
2, 225923, Note_on_c, 12, 83, 127
2, 226086, Note_off_c, 12, 83, 127
2, 226090, Note_on_c, 11, 82, 127
2, 226253, Note_off_c, 11, 82, 127
2, 226256, Note_off_c, 6, 54, 127
2, 226259, Note_on_c, 4, 52, 127
2, 226259, Note_on_c, 8, 80, 127
2, 226422, Note_off_c, 8, 80, 127
2, 226429, Note_on_c, 6, 78, 127
2, 226592, Note_off_c, 6, 78, 127
2, 226592, Note_off_c, 4, 52, 127
2, 226598, Note_on_c, 12, 83, 127
2, 226598, Note_on_c, 4, 64, 127
2, 226763, Note_off_c, 4, 64, 127
2, 226769, Note_on_c, 2, 62, 127
2, 226934, Note_off_c, 2, 62, 127
2, 226938, Note_off_c, 12, 83, 127
2, 226942, Note_on_c, 6, 78, 127
2, 226942, Note_on_c, 1, 61, 127
2, 227107, Note_off_c, 1, 61, 127
2, 227115, Note_on_c, 12, 59, 127
2, 227280, Note_off_c, 12, 59, 127
2, 227282, Note_off_c, 6, 78, 127
2, 227288, Note_on_c, 6, 66, 127
2, 227288, Note_on_c, 4, 76, 127
2, 227459, Note_off_c, 4, 76, 127
2, 227464, Note_on_c, 2, 74, 127
2, 227635, Note_off_c, 2, 74, 127
2, 227639, Note_off_c, 6, 66, 127
2, 227643, Note_on_c, 6, 54, 127
2, 227643, Note_on_c, 1, 73, 127
2, 227814, Note_off_c, 1, 73, 127
2, 227823, Note_on_c, 12, 71, 127
2, 227994, Note_off_c, 12, 71, 127
2, 227994, Note_off_c, 6, 54, 127
2, 228001, Note_on_c, 12, 59, 127
2, 228001, Note_on_c, 12, 71, 127
2, 228185, Note_on_c, 6, 66, 127
2, 228374, Note_on_c, 2, 62, 127
2, 228567, Note_off_c, 12, 59, 127
2, 228582, Note_on_c, 6, 54, 127
2, 228791, Note_off_c, 6, 54, 127
2, 228847, Note_on_c, 12, 47, 127
2, 229574, Note_off_c, 2, 62, 127
2, 229602, Note_off_c, 6, 66, 127
2, 230101, Note_off_c, 12, 71, 127
2, 230447, Note_off_c, 12, 47, 127
2, 230991, Note_on_c, 2, 74, 127
2, 230991, Note_on_c, 12, 47, 127
2, 231135, Note_on_c, 6, 78, 127
2, 231276, Note_off_c, 6, 78, 127
2, 231278, Note_off_c, 12, 47, 127
2, 231279, Note_on_c, 12, 59, 127
2, 231279, Note_on_c, 12, 83, 127
2, 231411, Note_off_c, 2, 74, 127
2, 231422, Note_off_c, 12, 83, 127
2, 231424, Note_on_c, 6, 78, 127
2, 231550, Note_off_c, 12, 59, 127
2, 231565, Note_off_c, 6, 78, 127
2, 231568, Note_on_c, 11, 58, 127
2, 231568, Note_on_c, 1, 73, 127
2, 231709, Note_off_c, 1, 73, 127
2, 231712, Note_on_c, 6, 78, 127
2, 231837, Note_off_c, 11, 58, 127
2, 231853, Note_off_c, 6, 78, 127
2, 231856, Note_on_c, 12, 59, 127
2, 231856, Note_on_c, 2, 74, 127
2, 231997, Note_off_c, 2, 74, 127
2, 231999, Note_on_c, 6, 78, 127
2, 232140, Note_off_c, 6, 78, 127
2, 232141, Note_off_c, 12, 59, 127
2, 232143, Note_on_c, 2, 62, 127
2, 232143, Note_on_c, 12, 71, 127
2, 232284, Note_off_c, 12, 71, 127
2, 232287, Note_on_c, 6, 78, 127
2, 232412, Note_off_c, 2, 62, 127
2, 232428, Note_off_c, 6, 78, 127
2, 232431, Note_on_c, 6, 66, 127
2, 232431, Note_on_c, 11, 70, 127
2, 232572, Note_off_c, 11, 70, 127
2, 232575, Note_on_c, 6, 78, 127
2, 232700, Note_off_c, 6, 66, 127
2, 232716, Note_off_c, 6, 78, 127
2, 232718, Note_on_c, 2, 62, 127
2, 232718, Note_on_c, 12, 71, 127
2, 232862, Note_on_c, 6, 78, 127
2, 233003, Note_off_c, 6, 78, 127
2, 233003, Note_off_c, 2, 62, 127
2, 233006, Note_on_c, 12, 59, 127
2, 233006, Note_on_c, 12, 83, 127
2, 233138, Note_off_c, 12, 71, 127
2, 233149, Note_off_c, 12, 83, 127
2, 233152, Note_on_c, 6, 78, 127
2, 233277, Note_off_c, 12, 59, 127
2, 233293, Note_off_c, 6, 78, 127
2, 233295, Note_on_c, 11, 58, 127
2, 233295, Note_on_c, 1, 73, 127
2, 233436, Note_off_c, 1, 73, 127
2, 233439, Note_on_c, 6, 78, 127
2, 233564, Note_off_c, 11, 58, 127
2, 233580, Note_off_c, 6, 78, 127
2, 233583, Note_on_c, 12, 59, 127
2, 233583, Note_on_c, 2, 74, 127
2, 233724, Note_off_c, 2, 74, 127
2, 233727, Note_on_c, 6, 78, 127
2, 233868, Note_off_c, 6, 78, 127
2, 233868, Note_off_c, 12, 59, 127
2, 233870, Note_on_c, 2, 50, 127
2, 233870, Note_on_c, 12, 71, 127
2, 234011, Note_off_c, 12, 71, 127
2, 234014, Note_on_c, 6, 78, 127
2, 234139, Note_off_c, 2, 50, 127
2, 234155, Note_off_c, 6, 78, 127
2, 234158, Note_on_c, 6, 54, 127
2, 234158, Note_on_c, 11, 70, 127
2, 234299, Note_off_c, 11, 70, 127
2, 234302, Note_on_c, 6, 78, 127
2, 234427, Note_off_c, 6, 54, 127
2, 234443, Note_off_c, 6, 78, 127
2, 234446, Note_on_c, 12, 47, 127
2, 234446, Note_on_c, 2, 74, 127
2, 234589, Note_on_c, 6, 78, 127
2, 234731, Note_off_c, 2, 74, 127
2, 234732, Note_off_c, 6, 78, 127
2, 234733, Note_off_c, 12, 47, 127
2, 234735, Note_on_c, 12, 59, 127
2, 234735, Note_on_c, 2, 74, 127
2, 234876, Note_off_c, 2, 74, 127
2, 234879, Note_on_c, 12, 71, 127
2, 235004, Note_off_c, 12, 59, 127
2, 235020, Note_off_c, 12, 71, 127
2, 235022, Note_on_c, 4, 52, 127
2, 235022, Note_on_c, 7, 79, 127
2, 235163, Note_off_c, 7, 79, 127
2, 235166, Note_on_c, 4, 76, 127
2, 235291, Note_off_c, 4, 52, 127
2, 235307, Note_off_c, 4, 76, 127
2, 235310, Note_on_c, 10, 45, 127
2, 235310, Note_on_c, 1, 73, 127
2, 235454, Note_on_c, 4, 76, 127
2, 235595, Note_off_c, 1, 73, 127
2, 235597, Note_off_c, 4, 76, 127
2, 235597, Note_off_c, 10, 45, 127
2, 235599, Note_on_c, 10, 57, 127
2, 235599, Note_on_c, 1, 73, 127
2, 235740, Note_off_c, 1, 73, 127
2, 235743, Note_on_c, 10, 69, 127
2, 235868, Note_off_c, 10, 57, 127
2, 235884, Note_off_c, 10, 69, 127
2, 235887, Note_on_c, 2, 50, 127
2, 235887, Note_on_c, 6, 78, 127
2, 236028, Note_off_c, 6, 78, 127
2, 236031, Note_on_c, 2, 74, 127
2, 236156, Note_off_c, 2, 50, 127
2, 236172, Note_off_c, 2, 74, 127
2, 236175, Note_on_c, 7, 43, 127
2, 236175, Note_on_c, 12, 71, 127
2, 236318, Note_on_c, 6, 78, 127
2, 236460, Note_off_c, 12, 71, 127
2, 236461, Note_off_c, 6, 78, 127
2, 236462, Note_off_c, 7, 43, 127
2, 236464, Note_on_c, 7, 55, 127
2, 236464, Note_on_c, 4, 76, 127
2, 236605, Note_off_c, 4, 76, 127
2, 236608, Note_on_c, 2, 74, 127
2, 236733, Note_off_c, 7, 55, 127
2, 236749, Note_off_c, 2, 74, 127
2, 236751, Note_on_c, 4, 52, 127
2, 236751, Note_on_c, 1, 73, 127
2, 236892, Note_off_c, 1, 73, 127
2, 236895, Note_on_c, 12, 71, 127
2, 237020, Note_off_c, 4, 52, 127
2, 237036, Note_off_c, 12, 71, 127
2, 237039, Note_on_c, 6, 54, 127
2, 237039, Note_on_c, 11, 70, 127
2, 237180, Note_off_c, 6, 54, 127
2, 237183, Note_on_c, 7, 55, 127
2, 237183, Note_on_c, 6, 66, 127
2, 237204, Note_off_c, 11, 70, 127
2, 237326, Note_off_c, 6, 66, 127
2, 237326, Note_off_c, 7, 55, 127
2, 237328, Note_on_c, 6, 54, 127
2, 237328, Note_on_c, 11, 70, 127
2, 237469, Note_off_c, 11, 70, 127
2, 237469, Note_off_c, 6, 54, 127
2, 237472, Note_on_c, 4, 52, 127
2, 237472, Note_on_c, 1, 73, 127
2, 237606, Note_off_c, 4, 52, 127
2, 237613, Note_off_c, 1, 73, 127
2, 237616, Note_on_c, 2, 50, 127
2, 237616, Note_on_c, 6, 78, 127
2, 237750, Note_off_c, 2, 50, 127
2, 237757, Note_off_c, 6, 78, 127
2, 237760, Note_on_c, 1, 49, 127
2, 237760, Note_on_c, 4, 76, 127
2, 237894, Note_off_c, 1, 49, 127
2, 237901, Note_off_c, 4, 76, 127
2, 237904, Note_on_c, 12, 47, 127
2, 237904, Note_on_c, 2, 74, 127
2, 238047, Note_on_c, 6, 78, 127
2, 238188, Note_off_c, 6, 78, 127
2, 238189, Note_off_c, 12, 47, 127
2, 238191, Note_on_c, 12, 59, 127
2, 238191, Note_on_c, 12, 83, 127
2, 238324, Note_off_c, 2, 74, 127
2, 238334, Note_off_c, 12, 83, 127
2, 238337, Note_on_c, 6, 78, 127
2, 238462, Note_off_c, 12, 59, 127
2, 238478, Note_off_c, 6, 78, 127
2, 238480, Note_on_c, 11, 58, 127
2, 238480, Note_on_c, 1, 73, 127
2, 238621, Note_off_c, 1, 73, 127
2, 238624, Note_on_c, 6, 78, 127
2, 238749, Note_off_c, 11, 58, 127
2, 238765, Note_off_c, 6, 78, 127
2, 238768, Note_on_c, 12, 59, 127
2, 238768, Note_on_c, 2, 74, 127
2, 238909, Note_off_c, 2, 74, 127
2, 238912, Note_on_c, 6, 78, 127
2, 239053, Note_off_c, 6, 78, 127
2, 239053, Note_off_c, 12, 59, 127
2, 239056, Note_on_c, 2, 62, 127
2, 239056, Note_on_c, 12, 71, 127
2, 239197, Note_off_c, 12, 71, 127
2, 239199, Note_on_c, 6, 78, 127
2, 239325, Note_off_c, 2, 62, 127
2, 239340, Note_off_c, 6, 78, 127
2, 239343, Note_on_c, 6, 66, 127
2, 239343, Note_on_c, 11, 70, 127
2, 239484, Note_off_c, 11, 70, 127
2, 239487, Note_on_c, 6, 78, 127
2, 239612, Note_off_c, 6, 66, 127
2, 239628, Note_off_c, 6, 78, 127
2, 239631, Note_on_c, 2, 62, 127
2, 239631, Note_on_c, 12, 71, 127
2, 239775, Note_on_c, 6, 78, 127
2, 239916, Note_off_c, 6, 78, 127
2, 239916, Note_off_c, 2, 62, 127
2, 239918, Note_on_c, 12, 59, 127
2, 239918, Note_on_c, 12, 83, 127
2, 240051, Note_off_c, 12, 71, 127
2, 240061, Note_off_c, 12, 83, 127
2, 240064, Note_on_c, 6, 78, 127
2, 240189, Note_off_c, 12, 59, 127
2, 240205, Note_off_c, 6, 78, 127
2, 240208, Note_on_c, 11, 58, 127
2, 240208, Note_on_c, 1, 73, 127
2, 240349, Note_off_c, 1, 73, 127
2, 240351, Note_on_c, 6, 78, 127
2, 240477, Note_off_c, 11, 58, 127
2, 240492, Note_off_c, 6, 78, 127
2, 240495, Note_on_c, 12, 59, 127
2, 240495, Note_on_c, 2, 74, 127
2, 240636, Note_off_c, 2, 74, 127
2, 240639, Note_on_c, 6, 78, 127
2, 240780, Note_off_c, 6, 78, 127
2, 240780, Note_off_c, 12, 59, 127
2, 240783, Note_on_c, 2, 50, 127
2, 240783, Note_on_c, 12, 71, 127
2, 240924, Note_off_c, 12, 71, 127
2, 240927, Note_on_c, 6, 78, 127
2, 241052, Note_off_c, 2, 50, 127
2, 241068, Note_off_c, 6, 78, 127
2, 241070, Note_on_c, 6, 54, 127
2, 241070, Note_on_c, 11, 70, 127
2, 241211, Note_off_c, 11, 70, 127
2, 241214, Note_on_c, 6, 78, 127
2, 241339, Note_off_c, 6, 54, 127
2, 241355, Note_off_c, 6, 78, 127
2, 241358, Note_on_c, 12, 47, 127
2, 241358, Note_on_c, 2, 74, 127
2, 241502, Note_on_c, 6, 78, 127
2, 241643, Note_off_c, 2, 74, 127
2, 241645, Note_off_c, 6, 78, 127
2, 241645, Note_off_c, 12, 47, 127
2, 241647, Note_on_c, 12, 59, 127
2, 241647, Note_on_c, 2, 74, 127
2, 241788, Note_off_c, 2, 74, 127
2, 241791, Note_on_c, 12, 71, 127
2, 241916, Note_off_c, 12, 59, 127
2, 241932, Note_off_c, 12, 71, 127
2, 241935, Note_on_c, 4, 52, 127
2, 241935, Note_on_c, 7, 79, 127
2, 242076, Note_off_c, 7, 79, 127
2, 242079, Note_on_c, 4, 76, 127
2, 242204, Note_off_c, 4, 52, 127
2, 242220, Note_off_c, 4, 76, 127
2, 242222, Note_on_c, 10, 45, 127
2, 242222, Note_on_c, 1, 73, 127
2, 242366, Note_on_c, 4, 76, 127
2, 242507, Note_off_c, 1, 73, 127
2, 242509, Note_off_c, 4, 76, 127
2, 242509, Note_off_c, 10, 45, 127
2, 242512, Note_on_c, 10, 57, 127
2, 242512, Note_on_c, 1, 73, 127
2, 242653, Note_off_c, 1, 73, 127
2, 242656, Note_on_c, 10, 69, 127
2, 242781, Note_off_c, 10, 57, 127
2, 242797, Note_off_c, 10, 69, 127
2, 242799, Note_on_c, 1, 49, 127
2, 242799, Note_on_c, 10, 81, 127
2, 242940, Note_off_c, 10, 81, 127
2, 242943, Note_on_c, 4, 76, 127
2, 243068, Note_off_c, 1, 49, 127
2, 243084, Note_off_c, 4, 76, 127
2, 243087, Note_on_c, 2, 50, 127
2, 243087, Note_on_c, 6, 78, 127
2, 243231, Note_on_c, 10, 81, 127
2, 243372, Note_off_c, 6, 78, 127
2, 243374, Note_off_c, 10, 81, 127
2, 243374, Note_off_c, 2, 50, 127
2, 243376, Note_on_c, 6, 54, 127
2, 243376, Note_on_c, 6, 78, 127
2, 243517, Note_off_c, 6, 78, 127
2, 243520, Note_on_c, 2, 74, 127
2, 243645, Note_off_c, 6, 54, 127
2, 243661, Note_off_c, 2, 74, 127
2, 243664, Note_on_c, 10, 57, 127
2, 243664, Note_on_c, 10, 69, 127
2, 243805, Note_off_c, 10, 69, 127
2, 243808, Note_on_c, 1, 73, 127
2, 243933, Note_off_c, 10, 57, 127
2, 243949, Note_off_c, 1, 73, 127
2, 243951, Note_on_c, 2, 50, 127
2, 243951, Note_on_c, 2, 74, 127
2, 244238, Note_off_c, 2, 50, 127
2, 244241, Note_on_c, 10, 45, 127
2, 244512, Note_off_c, 10, 45, 127
2, 244524, Note_off_c, 2, 74, 127
2, 244530, Note_on_c, 2, 38, 127
2, 244801, Note_off_c, 2, 38, 127
2, 244820, Note_on_c, 6, 54, 127
2, 244820, Note_on_c, 10, 81, 127
2, 244961, Note_off_c, 10, 81, 127
2, 244963, Note_on_c, 10, 57, 127
2, 244963, Note_on_c, 7, 79, 127
2, 245105, Note_off_c, 6, 54, 127
2, 245106, Note_off_c, 7, 79, 127
2, 245106, Note_off_c, 10, 57, 127
2, 245109, Note_on_c, 2, 62, 127
2, 245109, Note_on_c, 6, 78, 127
2, 245250, Note_off_c, 6, 78, 127
2, 245250, Note_off_c, 2, 62, 127
2, 245253, Note_on_c, 10, 57, 127
2, 245253, Note_on_c, 4, 76, 127
2, 245394, Note_off_c, 4, 76, 127
2, 245394, Note_off_c, 10, 57, 127
2, 245396, Note_on_c, 4, 52, 127
2, 245396, Note_on_c, 2, 74, 127
2, 245537, Note_off_c, 2, 74, 127
2, 245537, Note_off_c, 4, 52, 127
2, 245540, Note_on_c, 10, 57, 127
2, 245540, Note_on_c, 1, 73, 127
2, 245681, Note_off_c, 1, 73, 127
2, 245681, Note_off_c, 10, 57, 127
2, 245684, Note_on_c, 6, 54, 127
2, 245684, Note_on_c, 2, 74, 127
2, 245825, Note_off_c, 2, 74, 127
2, 245825, Note_off_c, 6, 54, 127
2, 245828, Note_on_c, 10, 57, 127
2, 245828, Note_on_c, 4, 76, 127
2, 245969, Note_off_c, 4, 76, 127
2, 245969, Note_off_c, 10, 57, 127
2, 245972, Note_on_c, 2, 50, 127
2, 245972, Note_on_c, 6, 78, 127
2, 246113, Note_off_c, 6, 78, 127
2, 246113, Note_off_c, 2, 50, 127
2, 246115, Note_on_c, 10, 57, 127
2, 246115, Note_on_c, 2, 74, 127
2, 246256, Note_off_c, 2, 74, 127
2, 246256, Note_off_c, 10, 57, 127
2, 246259, Note_on_c, 1, 49, 127
2, 246259, Note_on_c, 4, 76, 127
2, 246400, Note_off_c, 4, 76, 127
2, 246400, Note_off_c, 1, 49, 127
2, 246403, Note_on_c, 10, 57, 127
2, 246403, Note_on_c, 7, 79, 127
2, 246544, Note_off_c, 7, 79, 127
2, 246544, Note_off_c, 10, 57, 127
2, 246547, Note_on_c, 2, 50, 127
2, 246547, Note_on_c, 6, 78, 127
2, 246688, Note_off_c, 6, 78, 127
2, 246691, Note_on_c, 10, 57, 127
2, 246691, Note_on_c, 7, 79, 127
2, 246832, Note_off_c, 2, 50, 127
2, 246834, Note_off_c, 7, 79, 127
2, 246834, Note_off_c, 10, 57, 127
2, 246836, Note_on_c, 2, 62, 127
2, 246836, Note_on_c, 10, 81, 127
2, 246977, Note_off_c, 2, 62, 127
2, 246980, Note_on_c, 10, 57, 127
2, 247045, Note_off_c, 10, 81, 127
2, 247121, Note_off_c, 10, 57, 127
2, 247124, Note_on_c, 4, 52, 127
2, 247124, Note_on_c, 1, 73, 127
2, 247265, Note_off_c, 4, 52, 127
2, 247267, Note_on_c, 10, 57, 127
2, 247333, Note_off_c, 1, 73, 127
2, 247408, Note_off_c, 10, 57, 127
2, 247411, Note_on_c, 6, 54, 127
2, 247411, Note_on_c, 2, 74, 127
2, 247552, Note_off_c, 2, 74, 127
2, 247552, Note_off_c, 6, 54, 127
2, 247555, Note_on_c, 10, 57, 127
2, 247555, Note_on_c, 4, 76, 127
2, 247696, Note_off_c, 4, 76, 127
2, 247696, Note_off_c, 10, 57, 127
2, 247699, Note_on_c, 2, 50, 127
2, 247699, Note_on_c, 6, 78, 127
2, 247840, Note_off_c, 2, 50, 127
2, 247843, Note_on_c, 10, 57, 127
2, 247939, Note_off_c, 6, 78, 127
2, 247986, Note_off_c, 10, 57, 127
2, 247988, Note_on_c, 1, 49, 127
2, 247988, Note_on_c, 4, 76, 127
2, 248129, Note_off_c, 1, 49, 127
2, 248132, Note_on_c, 10, 57, 127
2, 248228, Note_off_c, 4, 76, 127
2, 248275, Note_off_c, 10, 57, 127
2, 248278, Note_on_c, 2, 50, 127
2, 248278, Note_on_c, 6, 78, 127
2, 248421, Note_on_c, 6, 54, 127
2, 248487, Note_off_c, 2, 50, 127
2, 248562, Note_off_c, 6, 54, 127
2, 248563, Note_off_c, 6, 78, 127
2, 248565, Note_on_c, 2, 50, 127
2, 248565, Note_on_c, 12, 83, 127
2, 248706, Note_off_c, 2, 50, 127
2, 248709, Note_on_c, 12, 47, 127
2, 248774, Note_off_c, 12, 83, 127
2, 248850, Note_off_c, 12, 47, 127
2, 248853, Note_on_c, 12, 59, 127
2, 248853, Note_on_c, 8, 80, 127
2, 248994, Note_off_c, 12, 59, 127
2, 248996, Note_on_c, 8, 56, 127
2, 249062, Note_off_c, 8, 80, 127
2, 249137, Note_off_c, 8, 56, 127
2, 249140, Note_on_c, 5, 53, 127
2, 249140, Note_on_c, 12, 71, 127
2, 249281, Note_off_c, 12, 71, 127
2, 249284, Note_on_c, 8, 56, 127
2, 249284, Note_on_c, 1, 73, 127
2, 249349, Note_off_c, 5, 53, 127
2, 249425, Note_off_c, 1, 73, 127
2, 249425, Note_off_c, 8, 56, 127
2, 249428, Note_on_c, 1, 49, 127
2, 249428, Note_on_c, 2, 74, 127
2, 249569, Note_off_c, 1, 49, 127
2, 249572, Note_on_c, 8, 56, 127
2, 249637, Note_off_c, 2, 74, 127
2, 249713, Note_off_c, 8, 56, 127
2, 249715, Note_on_c, 5, 53, 127
2, 249715, Note_on_c, 1, 73, 127
2, 249856, Note_off_c, 5, 53, 127
2, 249859, Note_on_c, 8, 56, 127
2, 249924, Note_off_c, 1, 73, 127
2, 250000, Note_off_c, 8, 56, 127
2, 250003, Note_on_c, 6, 54, 127
2, 250003, Note_on_c, 12, 71, 127
2, 250144, Note_off_c, 12, 71, 127
2, 250147, Note_on_c, 10, 69, 127
2, 250288, Note_off_c, 10, 69, 127
2, 250288, Note_off_c, 6, 54, 127
2, 250290, Note_on_c, 1, 61, 127
2, 250290, Note_on_c, 8, 68, 127
2, 250431, Note_off_c, 8, 68, 127
2, 250434, Note_on_c, 6, 66, 127
2, 250559, Note_off_c, 1, 61, 127
2, 250575, Note_off_c, 6, 66, 127
2, 250578, Note_on_c, 1, 49, 127
2, 250578, Note_on_c, 8, 68, 127
2, 250719, Note_off_c, 8, 68, 127
2, 250722, Note_on_c, 5, 65, 127
2, 250847, Note_off_c, 1, 49, 127
2, 250863, Note_off_c, 5, 65, 127
2, 250866, Note_on_c, 6, 54, 127
2, 250866, Note_on_c, 6, 66, 127
2, 251009, Note_on_c, 10, 57, 127
2, 251075, Note_off_c, 6, 54, 127
2, 251150, Note_off_c, 10, 57, 127
2, 251153, Note_on_c, 1, 61, 127
2, 251294, Note_off_c, 1, 61, 127
2, 251297, Note_on_c, 10, 57, 127
2, 251435, Note_off_c, 6, 66, 127
2, 251438, Note_off_c, 10, 57, 127
2, 251441, Note_on_c, 4, 52, 127
2, 251582, Note_off_c, 4, 52, 127
2, 251584, Note_on_c, 10, 57, 127
2, 251725, Note_off_c, 10, 57, 127
2, 251728, Note_on_c, 3, 51, 127
2, 251728, Note_on_c, 10, 69, 127
2, 251869, Note_off_c, 3, 51, 127
2, 251872, Note_on_c, 6, 54, 127
2, 252013, Note_off_c, 6, 54, 127
2, 252016, Note_on_c, 12, 47, 127
2, 252157, Note_off_c, 12, 47, 127
2, 252157, Note_off_c, 10, 69, 127
2, 252160, Note_on_c, 6, 54, 127
2, 252160, Note_on_c, 12, 71, 127
2, 252230, Note_off_c, 12, 71, 127
2, 252232, Note_on_c, 0, 72, 127
2, 252302, Note_off_c, 0, 72, 127
2, 252303, Note_off_c, 6, 54, 127
2, 252305, Note_on_c, 3, 51, 127
2, 252305, Note_on_c, 12, 71, 127
2, 252446, Note_off_c, 3, 51, 127
2, 252449, Note_on_c, 6, 54, 127
2, 252514, Note_off_c, 12, 71, 127
2, 252590, Note_off_c, 6, 54, 127
2, 252593, Note_on_c, 4, 52, 127
2, 252593, Note_on_c, 10, 69, 127
2, 252734, Note_off_c, 10, 69, 127
2, 252737, Note_on_c, 7, 67, 127
2, 252878, Note_off_c, 7, 67, 127
2, 252878, Note_off_c, 4, 52, 127
2, 252880, Note_on_c, 12, 47, 127
2, 252880, Note_on_c, 10, 69, 127
2, 253021, Note_off_c, 10, 69, 127
2, 253024, Note_on_c, 6, 66, 127
2, 253149, Note_off_c, 12, 47, 127
2, 253165, Note_off_c, 6, 66, 127
2, 253168, Note_on_c, 4, 40, 127
2, 253168, Note_on_c, 7, 67, 127
2, 253309, Note_off_c, 7, 67, 127
2, 253312, Note_on_c, 4, 64, 127
2, 253437, Note_off_c, 4, 40, 127
2, 253453, Note_off_c, 4, 64, 127
2, 253455, Note_on_c, 5, 53, 127
2, 253455, Note_on_c, 12, 71, 127
2, 253596, Note_off_c, 5, 53, 127
2, 253599, Note_on_c, 8, 56, 127
2, 253740, Note_off_c, 8, 56, 127
2, 253743, Note_on_c, 1, 49, 127
2, 253884, Note_off_c, 1, 49, 127
2, 253884, Note_off_c, 12, 71, 127
2, 253887, Note_on_c, 8, 56, 127
2, 253887, Note_on_c, 1, 73, 127
2, 253957, Note_off_c, 1, 73, 127
2, 253960, Note_on_c, 2, 74, 127
2, 254030, Note_off_c, 2, 74, 127
2, 254030, Note_off_c, 8, 56, 127
2, 254032, Note_on_c, 5, 53, 127
2, 254032, Note_on_c, 1, 73, 127
2, 254173, Note_off_c, 5, 53, 127
2, 254176, Note_on_c, 8, 56, 127
2, 254241, Note_off_c, 1, 73, 127
2, 254317, Note_off_c, 8, 56, 127
2, 254320, Note_on_c, 6, 54, 127
2, 254320, Note_on_c, 12, 71, 127
2, 254461, Note_off_c, 12, 71, 127
2, 254464, Note_on_c, 11, 70, 127
2, 254605, Note_off_c, 11, 70, 127
2, 254605, Note_off_c, 6, 54, 127
2, 254608, Note_on_c, 1, 49, 127
2, 254608, Note_on_c, 12, 71, 127
2, 254749, Note_off_c, 12, 71, 127
2, 254751, Note_on_c, 8, 68, 127
2, 254877, Note_off_c, 1, 49, 127
2, 254892, Note_off_c, 8, 68, 127
2, 254895, Note_on_c, 6, 42, 127
2, 254895, Note_on_c, 11, 70, 127
2, 255036, Note_off_c, 11, 70, 127
2, 255039, Note_on_c, 6, 66, 127
2, 255164, Note_off_c, 6, 42, 127
2, 255180, Note_off_c, 6, 66, 127
2, 255183, Note_on_c, 6, 54, 127
2, 255183, Note_on_c, 1, 73, 127
2, 255326, Note_on_c, 11, 70, 127
2, 255467, Note_off_c, 11, 70, 127
2, 255468, Note_off_c, 6, 54, 127
2, 255470, Note_on_c, 1, 49, 127
2, 255470, Note_on_c, 6, 66, 127
2, 255603, Note_off_c, 1, 73, 127
2, 255613, Note_off_c, 6, 66, 127
2, 255616, Note_on_c, 11, 70, 127
2, 255741, Note_off_c, 1, 49, 127
2, 255757, Note_off_c, 11, 70, 127
2, 255760, Note_on_c, 11, 46, 127
2, 255760, Note_on_c, 1, 73, 127
2, 255901, Note_off_c, 1, 73, 127
2, 255903, Note_on_c, 4, 76, 127
2, 256029, Note_off_c, 11, 46, 127
2, 256044, Note_off_c, 4, 76, 127
2, 256047, Note_on_c, 6, 42, 127
2, 256047, Note_on_c, 7, 79, 127
2, 256191, Note_on_c, 1, 73, 127
2, 256212, Note_off_c, 7, 79, 127
2, 256334, Note_off_c, 1, 73, 127
2, 256334, Note_off_c, 6, 42, 127
2, 256337, Note_on_c, 8, 44, 127
2, 256337, Note_on_c, 6, 78, 127
2, 256480, Note_on_c, 1, 73, 127
2, 256502, Note_off_c, 6, 78, 127
2, 256608, Note_off_c, 8, 44, 127
2, 256623, Note_off_c, 1, 73, 127
2, 256626, Note_on_c, 11, 46, 127
2, 256626, Note_on_c, 4, 76, 127
2, 256767, Note_off_c, 4, 76, 127
2, 256770, Note_on_c, 1, 73, 127
2, 256895, Note_off_c, 11, 46, 127
2, 256911, Note_off_c, 1, 73, 127
2, 256913, Note_on_c, 12, 47, 127
2, 256913, Note_on_c, 2, 74, 127
2, 257057, Note_on_c, 1, 73, 127
2, 257198, Note_off_c, 1, 73, 127
2, 257198, Note_off_c, 12, 47, 127
2, 257201, Note_on_c, 6, 54, 127
2, 257201, Note_on_c, 12, 71, 127
2, 257333, Note_off_c, 2, 74, 127
2, 257344, Note_off_c, 12, 71, 127
2, 257347, Note_on_c, 2, 74, 127
2, 257472, Note_off_c, 6, 54, 127
2, 257488, Note_off_c, 2, 74, 127
2, 257490, Note_on_c, 12, 59, 127
2, 257490, Note_on_c, 6, 78, 127
2, 257631, Note_off_c, 6, 78, 127
2, 257634, Note_on_c, 12, 83, 127
2, 257759, Note_off_c, 12, 59, 127
2, 257775, Note_off_c, 12, 83, 127
2, 257778, Note_on_c, 2, 62, 127
2, 257778, Note_on_c, 6, 78, 127
2, 257922, Note_on_c, 12, 71, 127
2, 257943, Note_off_c, 6, 78, 127
2, 258065, Note_off_c, 12, 71, 127
2, 258065, Note_off_c, 2, 62, 127
2, 258067, Note_on_c, 1, 61, 127
2, 258067, Note_on_c, 4, 76, 127
2, 258211, Note_on_c, 12, 71, 127
2, 258232, Note_off_c, 4, 76, 127
2, 258338, Note_off_c, 1, 61, 127
2, 258354, Note_off_c, 12, 71, 127
2, 258357, Note_on_c, 12, 59, 127
2, 258357, Note_on_c, 2, 74, 127
2, 258498, Note_off_c, 2, 74, 127
2, 258500, Note_on_c, 12, 71, 127
2, 258626, Note_off_c, 12, 59, 127
2, 258641, Note_off_c, 12, 71, 127
2, 258644, Note_on_c, 4, 52, 127
2, 258644, Note_on_c, 1, 73, 127
2, 258788, Note_on_c, 12, 71, 127
2, 258824, Note_off_c, 1, 73, 127
2, 258931, Note_off_c, 12, 71, 127
2, 258931, Note_off_c, 4, 52, 127
2, 258934, Note_on_c, 6, 54, 127
2, 258934, Note_on_c, 2, 74, 127
2, 259077, Note_on_c, 12, 71, 127
2, 259099, Note_off_c, 2, 74, 127
2, 259205, Note_off_c, 6, 54, 127
2, 259220, Note_off_c, 12, 71, 127
2, 259223, Note_on_c, 7, 55, 127
2, 259223, Note_on_c, 4, 76, 127
2, 259364, Note_off_c, 4, 76, 127
2, 259367, Note_on_c, 12, 71, 127
2, 259492, Note_off_c, 7, 55, 127
2, 259508, Note_off_c, 12, 71, 127
2, 259511, Note_on_c, 2, 50, 127
2, 259511, Note_on_c, 6, 78, 127
2, 259654, Note_on_c, 12, 71, 127
2, 259691, Note_off_c, 6, 78, 127
2, 259797, Note_off_c, 12, 71, 127
2, 259798, Note_off_c, 2, 50, 127
2, 259800, Note_on_c, 4, 52, 127
2, 259800, Note_on_c, 7, 79, 127
2, 259944, Note_on_c, 12, 71, 127
2, 259965, Note_off_c, 7, 79, 127
2, 260071, Note_off_c, 4, 52, 127
2, 260087, Note_off_c, 12, 71, 127
2, 260089, Note_on_c, 1, 49, 127
2, 260089, Note_on_c, 4, 76, 127
2, 260230, Note_off_c, 4, 76, 127
2, 260233, Note_on_c, 12, 71, 127
2, 260358, Note_off_c, 1, 49, 127
2, 260374, Note_off_c, 12, 71, 127
2, 260377, Note_on_c, 2, 50, 127
2, 260377, Note_on_c, 6, 78, 127
2, 260664, Note_off_c, 6, 78, 127
2, 260664, Note_off_c, 2, 50, 127
2, 260666, Note_on_c, 4, 52, 127
2, 260666, Note_on_c, 4, 76, 127
2, 260807, Note_off_c, 4, 76, 127
2, 260810, Note_on_c, 2, 74, 127
2, 260935, Note_off_c, 4, 52, 127
2, 260951, Note_off_c, 2, 74, 127
2, 260954, Note_on_c, 6, 54, 127
2, 260954, Note_on_c, 1, 73, 127
2, 261095, Note_off_c, 1, 73, 127
2, 261098, Note_on_c, 2, 74, 127
2, 261223, Note_off_c, 6, 54, 127
2, 261239, Note_off_c, 2, 74, 127
2, 261241, Note_on_c, 12, 59, 127
2, 261241, Note_on_c, 12, 71, 127
2, 261528, Note_off_c, 12, 59, 127
2, 261531, Note_on_c, 6, 54, 127
2, 261802, Note_off_c, 6, 54, 127
2, 261814, Note_off_c, 12, 71, 127
2, 261820, Note_on_c, 12, 47, 127
2, 262091, Note_off_c, 12, 47, 127
2, 262110, Note_on_c, 12, 59, 127
2, 262110, Note_on_c, 2, 62, 127
2, 262110, Note_on_c, 6, 66, 127
2, 262251, Note_off_c, 6, 66, 127
2, 262253, Note_on_c, 7, 67, 127
2, 262395, Note_off_c, 2, 62, 127
2, 262396, Note_off_c, 7, 67, 127
2, 262399, Note_on_c, 10, 69, 127
2, 262399, Note_on_c, 3, 63, 127
2, 262686, Note_off_c, 3, 63, 127
2, 262686, Note_off_c, 10, 69, 127
2, 262688, Note_on_c, 7, 67, 127
2, 262688, Note_on_c, 4, 64, 127
2, 262959, Note_off_c, 7, 67, 127
2, 262975, Note_off_c, 4, 64, 127
2, 262976, Note_off_c, 12, 59, 127
2, 262978, Note_on_c, 3, 51, 127
2, 262978, Note_on_c, 10, 69, 127
2, 262978, Note_on_c, 6, 66, 127
2, 263048, Note_off_c, 10, 69, 127
2, 263050, Note_on_c, 12, 71, 127
2, 263120, Note_off_c, 12, 71, 127
2, 263123, Note_on_c, 0, 72, 127
2, 263264, Note_off_c, 0, 72, 127
2, 263267, Note_on_c, 12, 71, 127
2, 263554, Note_off_c, 12, 71, 127
2, 263556, Note_on_c, 10, 69, 127
2, 263827, Note_off_c, 10, 69, 127
2, 263844, Note_off_c, 6, 66, 127
2, 263844, Note_off_c, 3, 51, 127
2, 263846, Note_on_c, 4, 52, 127
2, 263846, Note_on_c, 7, 67, 127
2, 263846, Note_on_c, 4, 64, 127
2, 264133, Note_off_c, 7, 67, 127
2, 264133, Note_off_c, 4, 52, 127
2, 264135, Note_on_c, 10, 45, 127
2, 264135, Note_on_c, 12, 71, 127
2, 264276, Note_off_c, 12, 71, 127
2, 264279, Note_on_c, 10, 69, 127
2, 264404, Note_off_c, 10, 45, 127
2, 264417, Note_off_c, 4, 64, 127
2, 264420, Note_off_c, 10, 69, 127
2, 264423, Note_on_c, 12, 47, 127
2, 264423, Note_on_c, 3, 63, 127
2, 264423, Note_on_c, 7, 67, 127
2, 264564, Note_off_c, 7, 67, 127
2, 264567, Note_on_c, 6, 66, 127
2, 264692, Note_off_c, 12, 47, 127
2, 264706, Note_off_c, 3, 63, 127
2, 264708, Note_off_c, 6, 66, 127
2, 264710, Note_on_c, 4, 40, 127
2, 264710, Note_on_c, 10, 69, 127
2, 264710, Note_on_c, 4, 64, 127
2, 264851, Note_off_c, 10, 69, 127
2, 264854, Note_on_c, 7, 67, 127
2, 264995, Note_off_c, 7, 67, 127
2, 264995, Note_off_c, 4, 40, 127
2, 264998, Note_on_c, 12, 47, 127
2, 264998, Note_on_c, 6, 66, 127
2, 265139, Note_off_c, 6, 66, 127
2, 265142, Note_on_c, 7, 67, 127
2, 265267, Note_off_c, 12, 47, 127
2, 265279, Note_off_c, 4, 64, 127
2, 265283, Note_off_c, 7, 67, 127
2, 265285, Note_on_c, 4, 52, 127
2, 265285, Note_on_c, 4, 64, 127
2, 265429, Note_on_c, 7, 67, 127
2, 265554, Note_off_c, 4, 52, 127
2, 265563, Note_off_c, 7, 67, 127
2, 265568, Note_off_c, 4, 64, 127
2, 265573, Note_on_c, 7, 55, 127
2, 265573, Note_on_c, 11, 70, 127
2, 265714, Note_off_c, 11, 70, 127
2, 265717, Note_on_c, 12, 71, 127
2, 265858, Note_off_c, 12, 71, 127
2, 265861, Note_on_c, 4, 64, 127
2, 265861, Note_on_c, 1, 73, 127
2, 266002, Note_off_c, 1, 73, 127
2, 266004, Note_on_c, 11, 70, 127
2, 266145, Note_off_c, 11, 70, 127
2, 266146, Note_off_c, 4, 64, 127
2, 266148, Note_on_c, 2, 62, 127
2, 266148, Note_on_c, 12, 71, 127
2, 266282, Note_off_c, 12, 71, 127
2, 266292, Note_on_c, 2, 74, 127
2, 266433, Note_off_c, 2, 74, 127
2, 266433, Note_off_c, 2, 62, 127
2, 266433, Note_off_c, 7, 55, 127
2, 266436, Note_on_c, 11, 46, 127
2, 266436, Note_on_c, 4, 76, 127
2, 266506, Note_off_c, 4, 76, 127
2, 266508, Note_on_c, 6, 78, 127
2, 266578, Note_off_c, 6, 78, 127
2, 266581, Note_on_c, 7, 79, 127
2, 266722, Note_off_c, 7, 79, 127
2, 266725, Note_on_c, 6, 78, 127
2, 266869, Note_on_c, 1, 73, 127
2, 267010, Note_off_c, 1, 73, 127
2, 267013, Note_on_c, 6, 66, 127
2, 267129, Note_off_c, 6, 78, 127
2, 267156, Note_on_c, 4, 76, 127
2, 267298, Note_off_c, 6, 66, 127
2, 267299, Note_off_c, 4, 76, 127
2, 267300, Note_off_c, 11, 46, 127
2, 267302, Note_on_c, 12, 47, 127
2, 267302, Note_on_c, 2, 74, 127
2, 267302, Note_on_c, 12, 71, 127
2, 267443, Note_off_c, 2, 74, 127
2, 267446, Note_on_c, 1, 73, 127
2, 267587, Note_off_c, 1, 73, 127
2, 267587, Note_off_c, 12, 47, 127
2, 267590, Note_on_c, 10, 45, 127
2, 267590, Note_on_c, 4, 76, 127
2, 267731, Note_off_c, 4, 76, 127
2, 267733, Note_on_c, 2, 74, 127
2, 267859, Note_off_c, 10, 45, 127
2, 267871, Note_off_c, 12, 71, 127
2, 267874, Note_off_c, 2, 74, 127
2, 267877, Note_on_c, 7, 43, 127
2, 267877, Note_on_c, 1, 73, 127
2, 268018, Note_off_c, 1, 73, 127
2, 268021, Note_on_c, 12, 71, 127
2, 268146, Note_off_c, 7, 43, 127
2, 268162, Note_off_c, 12, 71, 127
2, 268165, Note_on_c, 6, 42, 127
2, 268165, Note_on_c, 11, 70, 127
2, 268165, Note_on_c, 6, 78, 127
2, 268736, Note_off_c, 6, 78, 127
2, 268736, Note_off_c, 11, 70, 127
2, 269029, Note_off_c, 6, 42, 127
2, 269031, Note_on_c, 6, 54, 127
2, 269031, Note_on_c, 0, 72, 127
2, 269031, Note_on_c, 10, 81, 127
2, 269172, Note_off_c, 6, 54, 127
2, 269175, Note_on_c, 7, 55, 127
2, 269316, Note_off_c, 7, 55, 127
2, 269316, Note_off_c, 10, 81, 127
2, 269316, Note_off_c, 0, 72, 127
2, 269319, Note_on_c, 10, 57, 127
2, 269319, Note_on_c, 6, 78, 127
2, 269319, Note_on_c, 0, 72, 127
2, 269590, Note_off_c, 10, 57, 127
2, 269606, Note_off_c, 0, 72, 127
2, 269606, Note_off_c, 6, 78, 127
2, 269608, Note_on_c, 7, 55, 127
2, 269608, Note_on_c, 12, 71, 127
2, 269608, Note_on_c, 4, 76, 127
2, 269879, Note_off_c, 7, 55, 127
2, 269895, Note_off_c, 4, 76, 127
2, 269895, Note_off_c, 12, 71, 127
2, 269897, Note_on_c, 0, 60, 127
2, 269897, Note_on_c, 12, 71, 127
2, 269897, Note_on_c, 3, 75, 127
2, 270038, Note_off_c, 12, 71, 127
2, 270041, Note_on_c, 10, 69, 127
2, 270182, Note_off_c, 10, 69, 127
2, 270182, Note_off_c, 0, 60, 127
2, 270185, Note_on_c, 12, 59, 127
2, 270185, Note_on_c, 10, 69, 127
2, 270326, Note_off_c, 10, 69, 127
2, 270329, Note_on_c, 7, 67, 127
2, 270454, Note_off_c, 12, 59, 127
2, 270470, Note_off_c, 7, 67, 127
2, 270472, Note_on_c, 10, 57, 127
2, 270472, Note_on_c, 7, 67, 127
2, 270613, Note_off_c, 7, 67, 127
2, 270615, Note_off_c, 3, 75, 127
2, 270616, Note_on_c, 6, 66, 127
2, 270741, Note_off_c, 10, 57, 127
2, 270757, Note_off_c, 6, 66, 127
2, 270760, Note_on_c, 7, 55, 127
2, 270760, Note_on_c, 12, 71, 127
2, 270760, Note_on_c, 4, 76, 127
2, 270901, Note_off_c, 7, 55, 127
2, 270904, Note_on_c, 6, 54, 127
2, 271045, Note_off_c, 6, 54, 127
2, 271045, Note_off_c, 4, 76, 127
2, 271048, Note_on_c, 10, 57, 127
2, 271048, Note_on_c, 6, 78, 127
2, 271189, Note_off_c, 10, 57, 127
2, 271191, Note_on_c, 7, 55, 127
2, 271332, Note_off_c, 7, 55, 127
2, 271333, Note_off_c, 6, 78, 127
2, 271335, Note_on_c, 6, 54, 127
2, 271335, Note_on_c, 7, 79, 127
2, 271476, Note_off_c, 6, 54, 127
2, 271479, Note_on_c, 4, 52, 127
2, 271604, Note_off_c, 7, 79, 127
2, 271620, Note_off_c, 4, 52, 127
2, 271620, Note_off_c, 12, 71, 127
2, 271623, Note_on_c, 10, 57, 127
2, 271623, Note_on_c, 1, 73, 127
2, 271764, Note_off_c, 1, 73, 127
2, 271766, Note_on_c, 12, 71, 127
2, 271907, Note_off_c, 12, 71, 127
2, 271910, Note_on_c, 4, 64, 127
2, 271910, Note_on_c, 2, 74, 127
2, 272051, Note_off_c, 2, 74, 127
2, 272054, Note_on_c, 1, 73, 127
2, 272195, Note_off_c, 1, 73, 127
2, 272195, Note_off_c, 4, 64, 127
2, 272198, Note_on_c, 7, 67, 127
2, 272198, Note_on_c, 12, 71, 127
2, 272339, Note_off_c, 12, 71, 127
2, 272342, Note_on_c, 10, 69, 127
2, 272483, Note_off_c, 10, 69, 127
2, 272483, Note_off_c, 7, 67, 127
2, 272485, Note_on_c, 6, 66, 127
2, 272485, Note_on_c, 2, 74, 127
2, 272626, Note_off_c, 2, 74, 127
2, 272626, Note_off_c, 6, 66, 127
2, 272629, Note_on_c, 7, 67, 127
2, 272629, Note_on_c, 4, 76, 127
2, 272770, Note_off_c, 4, 76, 127
2, 272770, Note_off_c, 7, 67, 127
2, 272773, Note_on_c, 10, 69, 127
2, 272773, Note_on_c, 6, 78, 127
2, 272914, Note_off_c, 6, 78, 127
2, 272917, Note_on_c, 2, 74, 127
2, 273058, Note_off_c, 2, 74, 127
2, 273058, Note_off_c, 10, 69, 127
2, 273060, Note_on_c, 7, 67, 127
2, 273060, Note_on_c, 4, 76, 127
2, 273201, Note_off_c, 4, 76, 127
2, 273204, Note_on_c, 7, 79, 127
2, 273346, Note_off_c, 10, 57, 127
2, 273347, Note_off_c, 7, 79, 127
2, 273350, Note_on_c, 12, 83, 127
2, 273636, Note_off_c, 7, 67, 127
2, 273637, Note_off_c, 12, 83, 127
2, 273639, Note_on_c, 6, 66, 127
2, 273639, Note_on_c, 12, 59, 127
2, 273639, Note_on_c, 10, 81, 127
2, 273893, Note_off_c, 10, 81, 127
2, 273908, Note_off_c, 12, 59, 127
2, 273924, Note_off_c, 6, 66, 127
2, 273927, Note_on_c, 4, 64, 127
2, 273927, Note_on_c, 1, 61, 127
2, 273927, Note_on_c, 7, 79, 127
2, 274181, Note_off_c, 7, 79, 127
2, 274196, Note_off_c, 1, 61, 127
2, 274212, Note_off_c, 4, 64, 127
2, 274214, Note_on_c, 2, 62, 127
2, 274214, Note_on_c, 6, 78, 127
2, 274355, Note_off_c, 6, 78, 127
2, 274358, Note_on_c, 4, 76, 127
2, 274499, Note_off_c, 4, 76, 127
2, 274499, Note_off_c, 2, 62, 127
2, 274502, Note_on_c, 7, 55, 127
2, 274502, Note_on_c, 2, 74, 127
2, 274502, Note_on_c, 7, 79, 127
2, 274643, Note_off_c, 7, 79, 127
2, 274646, Note_on_c, 6, 78, 127
2, 274771, Note_off_c, 7, 55, 127
2, 274785, Note_off_c, 2, 74, 127
2, 274787, Note_off_c, 6, 78, 127
2, 274789, Note_on_c, 10, 57, 127
2, 274789, Note_on_c, 4, 76, 127
2, 274789, Note_on_c, 1, 73, 127
2, 274930, Note_off_c, 4, 76, 127
2, 274933, Note_on_c, 6, 78, 127
2, 275058, Note_off_c, 10, 57, 127
2, 275072, Note_off_c, 1, 73, 127
2, 275074, Note_off_c, 6, 78, 127
2, 275077, Note_on_c, 2, 50, 127
2, 275077, Note_on_c, 2, 74, 127
2, 275364, Note_off_c, 2, 50, 127
2, 275366, Note_on_c, 10, 45, 127
2, 275637, Note_off_c, 10, 45, 127
2, 275650, Note_off_c, 2, 74, 127
2, 275656, Note_on_c, 2, 38, 127
2, 275927, Note_off_c, 2, 38, 127
2, 275945, Note_on_c, 2, 50, 127
2, 275945, Note_on_c, 10, 81, 127
2, 275945, Note_on_c, 6, 78, 127
2, 276088, Note_off_c, 6, 78, 127
2, 276088, Note_off_c, 10, 81, 127
2, 276088, Note_off_c, 2, 50, 127
2, 276091, Note_on_c, 4, 52, 127
2, 276091, Note_on_c, 4, 76, 127
2, 276091, Note_on_c, 7, 79, 127
2, 276234, Note_off_c, 7, 79, 127
2, 276234, Note_off_c, 4, 76, 127
2, 276234, Note_off_c, 4, 52, 127
2, 276236, Note_on_c, 6, 54, 127
2, 276236, Note_on_c, 6, 78, 127
2, 276236, Note_on_c, 2, 74, 127
2, 276379, Note_off_c, 6, 54, 127
2, 276382, Note_on_c, 4, 52, 127
2, 276509, Note_off_c, 2, 74, 127
2, 276525, Note_off_c, 4, 52, 127
2, 276525, Note_off_c, 6, 78, 127
2, 276528, Note_on_c, 6, 54, 127
2, 276528, Note_on_c, 4, 76, 127
2, 276528, Note_on_c, 7, 79, 127
2, 276671, Note_off_c, 6, 54, 127
2, 276673, Note_on_c, 7, 55, 127
2, 276801, Note_off_c, 4, 76, 127
2, 276816, Note_off_c, 7, 55, 127
2, 276817, Note_off_c, 7, 79, 127
2, 276819, Note_on_c, 10, 57, 127
2, 276819, Note_on_c, 4, 76, 127
2, 276819, Note_on_c, 1, 73, 127
2, 276962, Note_off_c, 10, 57, 127
2, 276964, Note_on_c, 12, 59, 127
2, 277107, Note_off_c, 12, 59, 127
2, 277108, Note_off_c, 1, 73, 127
2, 277108, Note_off_c, 4, 76, 127
2, 277110, Note_on_c, 1, 61, 127
2, 277110, Note_on_c, 2, 74, 127
2, 277110, Note_on_c, 6, 78, 127
2, 277253, Note_off_c, 1, 61, 127
2, 277256, Note_on_c, 12, 59, 127
2, 277383, Note_off_c, 2, 74, 127
2, 277399, Note_off_c, 12, 59, 127
2, 277399, Note_off_c, 6, 78, 127
2, 277401, Note_on_c, 11, 58, 127
2, 277401, Note_on_c, 4, 76, 127
2, 277401, Note_on_c, 7, 79, 127
2, 277544, Note_off_c, 11, 58, 127
2, 277547, Note_on_c, 1, 61, 127
2, 277674, Note_off_c, 7, 79, 127
2, 277688, Note_off_c, 4, 76, 127
2, 277690, Note_off_c, 1, 61, 127
2, 277692, Note_on_c, 2, 50, 127
2, 277692, Note_on_c, 6, 78, 127
2, 277838, Note_on_c, 2, 74, 127
2, 277981, Note_off_c, 6, 78, 127
2, 277983, Note_off_c, 2, 74, 127
2, 277983, Note_off_c, 2, 50, 127
2, 277985, Note_on_c, 7, 55, 127
2, 277985, Note_on_c, 1, 73, 127
2, 277985, Note_on_c, 4, 76, 127
2, 278121, Note_off_c, 1, 73, 127
2, 278128, Note_off_c, 4, 76, 127
2, 278131, Note_on_c, 2, 74, 127
2, 278131, Note_on_c, 12, 71, 127
2, 278258, Note_off_c, 7, 55, 127
2, 278267, Note_off_c, 12, 71, 127
2, 278274, Note_off_c, 2, 74, 127
2, 278277, Note_on_c, 4, 52, 127
2, 278277, Note_on_c, 1, 73, 127
2, 278277, Note_on_c, 11, 70, 127
2, 278413, Note_off_c, 11, 70, 127
2, 278420, Note_off_c, 1, 73, 127
2, 278422, Note_on_c, 12, 71, 127
2, 278550, Note_off_c, 4, 52, 127
2, 278558, Note_off_c, 12, 71, 127
2, 278568, Note_on_c, 12, 71, 127
2, 278568, Note_on_c, 6, 54, 127
2, 278715, Note_off_c, 12, 71, 127
2, 278717, Note_on_c, 11, 70, 127
2, 278864, Note_off_c, 11, 70, 127
2, 278868, Note_on_c, 8, 68, 127
2, 278868, Note_on_c, 12, 59, 127
2, 279015, Note_off_c, 8, 68, 127
2, 279019, Note_on_c, 11, 70, 127
2, 279150, Note_off_c, 12, 59, 127
2, 279166, Note_off_c, 11, 70, 127
2, 279170, Note_on_c, 6, 66, 127
2, 279170, Note_on_c, 11, 58, 127
2, 279317, Note_off_c, 6, 66, 127
2, 279321, Note_on_c, 11, 70, 127
2, 279459, Note_off_c, 11, 70, 127
2, 279472, Note_on_c, 1, 73, 127
2, 279546, Note_off_c, 11, 58, 127
2, 279623, Note_off_c, 1, 73, 127
2, 279627, Note_on_c, 12, 59, 127
2, 279627, Note_on_c, 2, 74, 127
2, 279778, Note_off_c, 2, 74, 127
2, 279778, Note_off_c, 12, 59, 127
2, 279784, Note_on_c, 1, 61, 127
2, 279784, Note_on_c, 4, 76, 127
2, 279935, Note_off_c, 4, 76, 127
2, 279935, Note_off_c, 1, 61, 127
2, 279940, Note_on_c, 11, 58, 127
2, 279940, Note_on_c, 1, 73, 127
2, 280091, Note_off_c, 1, 73, 127
2, 280091, Note_off_c, 11, 58, 127
2, 280097, Note_on_c, 12, 59, 127
2, 280097, Note_on_c, 2, 74, 127
2, 280248, Note_off_c, 2, 74, 127
2, 280248, Note_off_c, 12, 59, 127
2, 280253, Note_on_c, 2, 62, 127
2, 280253, Note_on_c, 6, 78, 127
2, 280300, Note_off_c, 6, 54, 127
2, 280404, Note_off_c, 6, 78, 127
2, 280404, Note_off_c, 2, 62, 127
2, 280410, Note_on_c, 7, 79, 127
2, 280410, Note_on_c, 4, 64, 127
2, 280724, Note_off_c, 4, 64, 127
2, 280724, Note_off_c, 7, 79, 127
2, 280728, Note_on_c, 6, 78, 127
2, 280728, Note_on_c, 8, 56, 127
2, 280728, Note_on_c, 2, 62, 127
2, 281024, Note_off_c, 2, 62, 127
2, 281024, Note_off_c, 8, 56, 127
2, 281024, Note_off_c, 6, 78, 127
2, 281048, Note_on_c, 4, 76, 127
2, 281048, Note_on_c, 1, 61, 127
2, 281048, Note_on_c, 11, 58, 127
2, 281344, Note_off_c, 11, 58, 127
2, 281344, Note_off_c, 1, 61, 127
2, 281344, Note_off_c, 4, 76, 127
2, 281369, Note_on_c, 2, 74, 127
2, 281369, Note_on_c, 12, 59, 127
2, 281530, Note_off_c, 2, 74, 127
2, 281534, Note_on_c, 1, 73, 127
2, 281695, Note_off_c, 1, 73, 127
2, 281702, Note_off_c, 12, 59, 127
2, 281704, Note_on_c, 12, 71, 127
2, 281704, Note_on_c, 4, 76, 127
2, 281704, Note_on_c, 4, 52, 127
2, 281865, Note_off_c, 4, 76, 127
2, 281873, Note_on_c, 2, 74, 127
2, 282017, Note_off_c, 4, 52, 127
2, 282017, Note_off_c, 12, 71, 127
2, 282036, Note_off_c, 2, 74, 127
2, 282042, Note_on_c, 1, 73, 127
2, 282042, Note_on_c, 11, 70, 127
2, 282042, Note_on_c, 6, 54, 127
2, 282203, Note_off_c, 1, 73, 127
2, 282219, Note_on_c, 2, 74, 127
2, 282353, Note_off_c, 11, 70, 127
2, 282403, Note_off_c, 2, 74, 127
2, 282406, Note_off_c, 6, 54, 127
2, 282426, Note_on_c, 12, 71, 127
2, 282426, Note_on_c, 12, 47, 127
2, 284426, Note_off_c, 12, 47, 127
2, 284426, Note_off_c, 12, 71, 127
2, 285002, Note_on_c, 12, 71, 127
2, 285202, Note_off_c, 12, 71, 127
2, 285289, Note_on_c, 6, 66, 127
2, 285836, Note_off_c, 6, 66, 127
2, 285839, Note_on_c, 12, 59, 127
2, 285839, Note_on_c, 12, 71, 127
2, 285906, Note_off_c, 12, 71, 127
2, 285908, Note_on_c, 1, 73, 127
2, 285975, Note_off_c, 1, 73, 127
2, 285977, Note_on_c, 2, 74, 127
2, 286041, Note_off_c, 12, 59, 127
2, 286113, Note_off_c, 2, 74, 127
2, 286115, Note_on_c, 6, 54, 127
2, 286115, Note_on_c, 1, 73, 127
2, 286662, Note_off_c, 1, 73, 127
2, 286662, Note_off_c, 6, 54, 127
2, 286665, Note_on_c, 2, 62, 127
2, 286665, Note_on_c, 6, 78, 127
2, 286865, Note_off_c, 2, 62, 127
2, 286938, Note_off_c, 6, 78, 127
2, 286940, Note_on_c, 1, 61, 127
2, 286940, Note_on_c, 4, 76, 127
2, 287213, Note_off_c, 4, 76, 127
2, 287215, Note_on_c, 6, 78, 127
2, 287351, Note_off_c, 6, 78, 127
2, 287353, Note_on_c, 4, 76, 127
2, 287489, Note_off_c, 4, 76, 127
2, 287489, Note_off_c, 1, 61, 127
2, 287491, Note_on_c, 6, 66, 127
2, 287491, Note_on_c, 2, 74, 127
2, 287627, Note_off_c, 2, 74, 127
2, 287630, Note_on_c, 1, 73, 127
2, 287693, Note_off_c, 6, 66, 127
2, 287766, Note_off_c, 1, 73, 127
2, 287768, Note_on_c, 12, 59, 127
2, 287768, Note_on_c, 2, 74, 127
2, 287904, Note_off_c, 2, 74, 127
2, 287906, Note_on_c, 1, 73, 127
2, 288042, Note_off_c, 1, 73, 127
2, 288045, Note_on_c, 12, 71, 127
2, 288181, Note_off_c, 12, 71, 127
2, 288183, Note_on_c, 2, 74, 127
2, 288314, Note_off_c, 12, 59, 127
2, 288317, Note_off_c, 2, 74, 127
2, 288319, Note_on_c, 6, 78, 127
2, 288455, Note_off_c, 6, 78, 127
2, 288458, Note_on_c, 2, 74, 127
2, 288594, Note_off_c, 2, 74, 127
2, 288596, Note_on_c, 12, 83, 127
2, 288733, Note_on_c, 6, 78, 127
2, 288867, Note_off_c, 12, 83, 127
2, 288869, Note_off_c, 6, 78, 127
2, 288871, Note_on_c, 2, 74, 127
2, 289007, Note_off_c, 2, 74, 127
2, 289009, Note_on_c, 12, 59, 127
2, 289009, Note_on_c, 12, 71, 127
2, 289145, Note_off_c, 12, 71, 127
2, 289145, Note_off_c, 12, 59, 127
2, 289148, Note_on_c, 2, 62, 127
2, 289148, Note_on_c, 6, 78, 127
2, 289284, Note_off_c, 6, 78, 127
2, 289284, Note_off_c, 2, 62, 127
2, 289286, Note_on_c, 12, 59, 127
2, 289286, Note_on_c, 2, 74, 127
2, 289422, Note_off_c, 2, 74, 127
2, 289422, Note_off_c, 12, 59, 127
2, 289424, Note_on_c, 4, 64, 127
2, 289424, Note_on_c, 7, 79, 127
2, 289560, Note_off_c, 4, 64, 127
2, 289562, Note_on_c, 12, 59, 127
2, 289562, Note_on_c, 4, 76, 127
2, 289697, Note_off_c, 7, 79, 127
2, 289698, Note_off_c, 4, 76, 127
2, 289698, Note_off_c, 12, 59, 127
2, 289701, Note_on_c, 7, 55, 127
2, 289701, Note_on_c, 12, 71, 127
2, 289837, Note_off_c, 12, 71, 127
2, 289837, Note_off_c, 7, 55, 127
2, 289839, Note_on_c, 4, 52, 127
2, 289839, Note_on_c, 4, 76, 127
2, 289975, Note_off_c, 4, 76, 127
2, 289975, Note_off_c, 4, 52, 127
2, 289977, Note_on_c, 12, 59, 127
2, 289977, Note_on_c, 7, 79, 127
2, 290113, Note_off_c, 7, 79, 127
2, 290113, Note_off_c, 12, 59, 127
2, 290116, Note_on_c, 7, 55, 127
2, 290116, Note_on_c, 4, 76, 127
2, 290252, Note_off_c, 4, 76, 127
2, 290252, Note_off_c, 7, 55, 127
2, 290254, Note_on_c, 1, 61, 127
2, 290254, Note_on_c, 10, 81, 127
2, 290390, Note_off_c, 1, 61, 127
2, 290392, Note_on_c, 10, 57, 127
2, 290392, Note_on_c, 4, 76, 127
2, 290527, Note_off_c, 10, 81, 127
2, 290528, Note_off_c, 4, 76, 127
2, 290528, Note_off_c, 10, 57, 127
2, 290531, Note_on_c, 4, 52, 127
2, 290531, Note_on_c, 1, 73, 127
2, 290667, Note_off_c, 1, 73, 127
2, 290667, Note_off_c, 4, 52, 127
2, 290669, Note_on_c, 10, 57, 127
2, 290669, Note_on_c, 10, 69, 127
2, 290805, Note_off_c, 10, 69, 127
2, 290805, Note_off_c, 10, 57, 127
2, 290807, Note_on_c, 1, 61, 127
2, 290807, Note_on_c, 4, 76, 127
2, 290943, Note_off_c, 4, 76, 127
2, 290943, Note_off_c, 1, 61, 127
2, 290946, Note_on_c, 10, 57, 127
2, 290946, Note_on_c, 1, 73, 127
2, 291082, Note_off_c, 1, 73, 127
2, 291082, Note_off_c, 10, 57, 127
2, 291084, Note_on_c, 2, 62, 127
2, 291084, Note_on_c, 6, 78, 127
2, 291220, Note_off_c, 2, 62, 127
2, 291222, Note_on_c, 10, 57, 127
2, 291222, Note_on_c, 2, 74, 127
2, 291357, Note_off_c, 6, 78, 127
2, 291358, Note_off_c, 2, 74, 127
2, 291358, Note_off_c, 10, 57, 127
2, 291361, Note_on_c, 6, 54, 127
2, 291361, Note_on_c, 10, 69, 127
2, 291497, Note_off_c, 10, 69, 127
2, 291497, Note_off_c, 6, 54, 127
2, 291499, Note_on_c, 2, 50, 127
2, 291499, Note_on_c, 2, 74, 127
2, 291635, Note_off_c, 2, 74, 127
2, 291635, Note_off_c, 2, 50, 127
2, 291637, Note_on_c, 10, 57, 127
2, 291637, Note_on_c, 6, 78, 127
2, 291773, Note_off_c, 6, 78, 127
2, 291773, Note_off_c, 10, 57, 127
2, 291776, Note_on_c, 6, 54, 127
2, 291776, Note_on_c, 2, 74, 127
2, 291912, Note_off_c, 2, 74, 127
2, 291912, Note_off_c, 6, 54, 127
2, 291914, Note_on_c, 12, 59, 127
2, 291914, Note_on_c, 7, 79, 127
2, 292050, Note_on_c, 2, 74, 127
2, 292085, Note_off_c, 7, 79, 127
2, 292186, Note_off_c, 2, 74, 127
2, 292187, Note_off_c, 12, 59, 127
2, 292189, Note_on_c, 10, 57, 127
2, 292189, Note_on_c, 6, 78, 127
2, 292325, Note_on_c, 2, 74, 127
2, 292360, Note_off_c, 6, 78, 127
2, 292431, Note_off_c, 10, 57, 127
2, 292459, Note_off_c, 2, 74, 127
2, 292462, Note_on_c, 7, 55, 127
2, 292462, Note_on_c, 4, 76, 127
2, 292598, Note_off_c, 4, 76, 127
2, 292600, Note_on_c, 2, 74, 127
2, 292705, Note_off_c, 7, 55, 127
2, 292734, Note_off_c, 2, 74, 127
2, 292737, Note_on_c, 6, 54, 127
2, 292737, Note_on_c, 10, 81, 127
2, 292873, Note_on_c, 2, 74, 127
2, 292908, Note_off_c, 10, 81, 127
2, 293009, Note_off_c, 2, 74, 127
2, 293010, Note_off_c, 6, 54, 127
2, 293011, Note_on_c, 4, 52, 127
2, 293011, Note_on_c, 7, 79, 127
2, 293148, Note_on_c, 2, 74, 127
2, 293182, Note_off_c, 7, 79, 127
2, 293253, Note_off_c, 4, 52, 127
2, 293282, Note_off_c, 2, 74, 127
2, 293284, Note_on_c, 2, 50, 127
2, 293284, Note_on_c, 6, 78, 127
2, 293420, Note_off_c, 6, 78, 127
2, 293423, Note_on_c, 2, 74, 127
2, 293527, Note_off_c, 2, 50, 127
2, 293557, Note_off_c, 2, 74, 127
2, 293559, Note_on_c, 7, 55, 127
2, 293559, Note_on_c, 12, 83, 127
2, 293696, Note_on_c, 2, 62, 127
2, 293715, Note_off_c, 7, 55, 127
2, 293832, Note_off_c, 2, 62, 127
2, 293832, Note_off_c, 12, 83, 127
2, 293834, Note_on_c, 6, 54, 127
2, 293834, Note_on_c, 10, 81, 127
2, 293971, Note_on_c, 2, 62, 127
2, 293990, Note_off_c, 6, 54, 127
2, 294034, Note_off_c, 10, 81, 127
2, 294107, Note_off_c, 2, 62, 127
2, 294109, Note_on_c, 4, 52, 127
2, 294109, Note_on_c, 7, 79, 127
2, 294245, Note_off_c, 4, 52, 127
2, 294247, Note_on_c, 2, 62, 127
2, 294311, Note_off_c, 7, 79, 127
2, 294383, Note_off_c, 2, 62, 127
2, 294385, Note_on_c, 10, 57, 127
2, 294385, Note_on_c, 6, 78, 127
2, 294522, Note_on_c, 2, 62, 127
2, 294541, Note_off_c, 10, 57, 127
2, 294658, Note_off_c, 2, 62, 127
2, 294658, Note_off_c, 6, 78, 127
2, 294660, Note_on_c, 7, 55, 127
2, 294660, Note_on_c, 4, 76, 127
2, 294797, Note_on_c, 2, 62, 127
2, 294816, Note_off_c, 7, 55, 127
2, 294860, Note_off_c, 4, 76, 127
2, 294933, Note_off_c, 2, 62, 127
2, 294935, Note_on_c, 6, 54, 127
2, 294935, Note_on_c, 2, 74, 127
2, 295071, Note_off_c, 6, 54, 127
2, 295073, Note_on_c, 2, 62, 127
2, 295137, Note_off_c, 2, 74, 127
2, 295209, Note_off_c, 2, 62, 127
2, 295212, Note_on_c, 7, 55, 127
2, 295212, Note_on_c, 4, 76, 127
2, 295348, Note_off_c, 4, 76, 127
2, 295348, Note_off_c, 7, 55, 127
2, 295350, Note_on_c, 6, 54, 127
2, 295350, Note_on_c, 2, 74, 127
2, 295486, Note_off_c, 2, 74, 127
2, 295486, Note_off_c, 6, 54, 127
2, 295488, Note_on_c, 4, 52, 127
2, 295488, Note_on_c, 1, 73, 127
2, 295625, Note_on_c, 7, 55, 127
2, 295625, Note_on_c, 4, 76, 127
2, 295644, Note_off_c, 4, 52, 127
2, 295659, Note_off_c, 1, 73, 127
2, 295761, Note_off_c, 4, 76, 127
2, 295761, Note_off_c, 7, 55, 127
2, 295763, Note_on_c, 2, 50, 127
2, 295763, Note_on_c, 12, 71, 127
2, 295899, Note_off_c, 12, 71, 127
2, 295899, Note_off_c, 2, 50, 127
2, 295902, Note_on_c, 7, 55, 127
2, 295902, Note_on_c, 4, 76, 127
2, 296038, Note_off_c, 4, 76, 127
2, 296038, Note_off_c, 7, 55, 127
2, 296040, Note_on_c, 1, 49, 127
2, 296040, Note_on_c, 10, 69, 127
2, 296176, Note_on_c, 7, 55, 127
2, 296176, Note_on_c, 4, 76, 127
2, 296196, Note_off_c, 1, 49, 127
2, 296211, Note_off_c, 10, 69, 127
2, 296312, Note_off_c, 4, 76, 127
2, 296312, Note_off_c, 7, 55, 127
2, 296315, Note_on_c, 12, 47, 127
2, 296315, Note_on_c, 7, 67, 127
2, 296451, Note_on_c, 7, 55, 127
2, 296451, Note_on_c, 4, 76, 127
2, 296471, Note_off_c, 12, 47, 127
2, 296486, Note_off_c, 7, 67, 127
2, 296587, Note_off_c, 4, 76, 127
2, 296587, Note_off_c, 7, 55, 127
2, 296590, Note_on_c, 10, 45, 127
2, 296590, Note_on_c, 6, 66, 127
2, 296726, Note_off_c, 6, 66, 127
2, 296726, Note_off_c, 10, 45, 127
2, 296728, Note_on_c, 6, 54, 127
2, 296728, Note_on_c, 2, 74, 127
2, 296864, Note_off_c, 2, 74, 127
2, 296864, Note_off_c, 6, 54, 127
2, 296866, Note_on_c, 7, 43, 127
2, 296866, Note_on_c, 4, 64, 127
2, 297003, Note_on_c, 4, 52, 127
2, 297003, Note_on_c, 2, 74, 127
2, 297022, Note_off_c, 7, 43, 127
2, 297037, Note_off_c, 4, 64, 127
2, 297139, Note_off_c, 2, 74, 127
2, 297139, Note_off_c, 4, 52, 127
2, 297141, Note_on_c, 10, 45, 127
2, 297141, Note_on_c, 1, 73, 127
2, 297277, Note_off_c, 1, 73, 127
2, 297279, Note_on_c, 12, 71, 127
2, 297384, Note_off_c, 10, 45, 127
2, 297413, Note_off_c, 12, 71, 127
2, 297416, Note_on_c, 1, 49, 127
2, 297416, Note_on_c, 10, 69, 127
2, 297552, Note_off_c, 10, 69, 127
2, 297554, Note_on_c, 7, 67, 127
2, 297659, Note_off_c, 1, 49, 127
2, 297688, Note_off_c, 7, 67, 127
2, 297691, Note_on_c, 2, 50, 127
2, 297691, Note_on_c, 6, 66, 127
2, 297827, Note_off_c, 6, 66, 127
2, 297829, Note_on_c, 4, 64, 127
2, 297965, Note_off_c, 4, 64, 127
2, 297965, Note_off_c, 2, 50, 127
2, 297967, Note_on_c, 2, 38, 127
2, 297967, Note_on_c, 2, 62, 127
2, 298103, Note_off_c, 2, 62, 127
2, 298106, Note_on_c, 4, 64, 127
2, 298210, Note_off_c, 2, 38, 127
2, 298240, Note_off_c, 4, 64, 127
2, 298242, Note_on_c, 7, 43, 127
2, 298242, Note_on_c, 6, 66, 127
2, 298378, Note_off_c, 6, 66, 127
2, 298380, Note_on_c, 7, 67, 127
2, 298485, Note_off_c, 7, 43, 127
2, 298514, Note_off_c, 7, 67, 127
2, 298517, Note_on_c, 6, 42, 127
2, 298517, Note_on_c, 10, 69, 127
2, 298653, Note_off_c, 10, 69, 127
2, 298655, Note_on_c, 2, 62, 127
2, 298791, Note_off_c, 2, 62, 127
2, 298794, Note_on_c, 6, 66, 127
2, 298930, Note_off_c, 6, 66, 127
2, 298932, Note_on_c, 10, 69, 127
2, 299048, Note_off_c, 6, 42, 127
2, 299066, Note_off_c, 10, 69, 127
2, 299068, Note_on_c, 12, 47, 127
2, 299068, Note_on_c, 2, 74, 127
2, 299204, Note_off_c, 12, 47, 127
2, 299207, Note_on_c, 1, 49, 127
2, 299274, Note_off_c, 1, 49, 127
2, 299276, Note_on_c, 2, 50, 127
2, 299343, Note_off_c, 2, 50, 127
2, 299345, Note_on_c, 8, 44, 127
2, 299481, Note_off_c, 2, 74, 127
2, 299483, Note_on_c, 12, 71, 127
2, 299619, Note_off_c, 12, 71, 127
2, 299622, Note_on_c, 8, 68, 127
2, 299758, Note_off_c, 8, 68, 127
2, 299760, Note_on_c, 4, 64, 127
2, 299876, Note_off_c, 8, 44, 127
2, 299894, Note_off_c, 4, 64, 127
2, 299896, Note_on_c, 4, 52, 127
2, 299896, Note_on_c, 1, 73, 127
2, 300032, Note_off_c, 1, 73, 127
2, 300035, Note_on_c, 10, 69, 127
2, 300170, Note_off_c, 4, 52, 127
2, 300171, Note_off_c, 10, 69, 127
2, 300173, Note_on_c, 2, 50, 127
2, 300173, Note_on_c, 6, 78, 127
2, 300309, Note_off_c, 6, 78, 127
2, 300311, Note_on_c, 2, 74, 127
2, 300447, Note_off_c, 2, 74, 127
2, 300447, Note_off_c, 2, 50, 127
2, 300450, Note_on_c, 4, 52, 127
2, 300450, Note_on_c, 10, 81, 127
2, 300539, Note_off_c, 10, 81, 127
2, 300541, Note_on_c, 8, 80, 127
2, 300584, Note_off_c, 4, 52, 127
2, 300586, Note_on_c, 2, 50, 127
2, 300630, Note_off_c, 8, 80, 127
2, 300632, Note_on_c, 10, 81, 127
2, 300720, Note_off_c, 2, 50, 127
2, 300721, Note_off_c, 10, 81, 127
2, 300723, Note_on_c, 1, 49, 127
2, 300723, Note_on_c, 8, 80, 127
2, 300812, Note_off_c, 8, 80, 127
2, 300814, Note_on_c, 6, 78, 127
2, 300857, Note_off_c, 1, 49, 127
2, 300859, Note_on_c, 12, 47, 127
2, 300903, Note_off_c, 6, 78, 127
2, 300905, Note_on_c, 8, 80, 127
2, 300993, Note_off_c, 12, 47, 127
2, 300994, Note_off_c, 8, 80, 127
2, 300996, Note_on_c, 1, 49, 127
2, 300996, Note_on_c, 10, 81, 127
2, 301132, Note_off_c, 1, 49, 127
2, 301134, Note_on_c, 12, 47, 127
2, 301270, Note_off_c, 12, 47, 127
2, 301272, Note_on_c, 10, 45, 127
2, 301272, Note_on_c, 10, 69, 127
2, 301408, Note_off_c, 10, 45, 127
2, 301411, Note_on_c, 12, 47, 127
2, 301542, Note_off_c, 10, 81, 127
2, 301545, Note_off_c, 12, 47, 127
2, 301545, Note_off_c, 10, 69, 127
2, 301547, Note_on_c, 1, 49, 127
2, 301547, Note_on_c, 10, 81, 127
2, 301683, Note_off_c, 1, 49, 127
2, 301686, Note_on_c, 10, 45, 127
2, 301822, Note_off_c, 10, 45, 127
2, 301824, Note_on_c, 2, 50, 127
2, 301824, Note_on_c, 12, 71, 127
2, 301960, Note_off_c, 2, 50, 127
2, 301962, Note_on_c, 12, 47, 127
2, 302093, Note_off_c, 10, 81, 127
2, 302096, Note_off_c, 12, 47, 127
2, 302099, Note_on_c, 6, 42, 127
2, 302099, Note_on_c, 10, 81, 127
2, 302224, Note_off_c, 12, 71, 127
2, 302233, Note_off_c, 10, 81, 127
2, 302233, Note_off_c, 6, 42, 127
2, 302235, Note_on_c, 2, 38, 127
2, 302235, Note_on_c, 8, 80, 127
2, 302371, Note_off_c, 8, 80, 127
2, 302371, Note_off_c, 2, 38, 127
2, 302373, Note_on_c, 2, 50, 127
2, 302373, Note_on_c, 10, 81, 127
2, 302509, Note_off_c, 10, 81, 127
2, 302509, Note_off_c, 2, 50, 127
2, 302512, Note_on_c, 12, 47, 127
2, 302512, Note_on_c, 12, 83, 127
2, 302648, Note_off_c, 12, 83, 127
2, 302648, Note_off_c, 12, 47, 127
2, 302650, Note_on_c, 4, 52, 127
2, 302650, Note_on_c, 8, 80, 127
2, 302786, Note_off_c, 4, 52, 127
2, 302788, Note_on_c, 12, 47, 127
2, 302924, Note_off_c, 12, 47, 127
2, 302927, Note_on_c, 8, 44, 127
2, 303063, Note_off_c, 8, 44, 127
2, 303065, Note_on_c, 4, 40, 127
2, 303201, Note_off_c, 4, 40, 127
2, 303203, Note_on_c, 2, 50, 127
2, 303339, Note_off_c, 2, 50, 127
2, 303342, Note_on_c, 12, 47, 127
2, 303478, Note_off_c, 12, 47, 127
2, 303478, Note_off_c, 8, 80, 127
2, 303480, Note_on_c, 1, 49, 127
2, 303616, Note_off_c, 1, 49, 127
2, 303618, Note_on_c, 10, 45, 127
2, 303754, Note_off_c, 10, 45, 127
2, 303757, Note_on_c, 1, 49, 127
2, 303757, Note_on_c, 10, 69, 127
2, 303893, Note_off_c, 10, 69, 127
2, 303893, Note_off_c, 1, 49, 127
2, 303895, Note_on_c, 4, 52, 127
2, 303895, Note_on_c, 8, 80, 127
2, 304031, Note_off_c, 8, 80, 127
2, 304031, Note_off_c, 4, 52, 127
2, 304033, Note_on_c, 10, 57, 127
2, 304033, Note_on_c, 10, 81, 127
2, 304169, Note_off_c, 10, 81, 127
2, 304169, Note_off_c, 10, 57, 127
2, 304172, Note_on_c, 1, 49, 127
2, 304172, Note_on_c, 8, 80, 127
2, 304308, Note_off_c, 8, 80, 127
2, 304308, Note_off_c, 1, 49, 127
2, 304310, Note_on_c, 2, 50, 127
2, 304310, Note_on_c, 6, 78, 127
2, 304446, Note_off_c, 6, 78, 127
2, 304446, Note_off_c, 2, 50, 127
2, 304448, Note_on_c, 10, 45, 127
2, 304448, Note_on_c, 5, 77, 127
2, 304584, Note_off_c, 5, 77, 127
2, 304584, Note_off_c, 10, 45, 127
2, 304587, Note_on_c, 2, 50, 127
2, 304587, Note_on_c, 6, 78, 127
2, 304723, Note_off_c, 2, 50, 127
2, 304725, Note_on_c, 6, 54, 127
2, 304861, Note_off_c, 6, 54, 127
2, 304863, Note_on_c, 10, 57, 127
2, 304999, Note_off_c, 10, 57, 127
2, 305002, Note_on_c, 6, 54, 127
2, 305138, Note_off_c, 6, 54, 127
2, 305140, Note_on_c, 12, 59, 127
2, 305220, Note_off_c, 6, 78, 127
2, 305276, Note_off_c, 12, 59, 127
2, 305278, Note_on_c, 10, 57, 127
2, 305278, Note_on_c, 10, 81, 127
2, 305414, Note_off_c, 10, 81, 127
2, 305414, Note_off_c, 10, 57, 127
2, 305417, Note_on_c, 12, 59, 127
2, 305417, Note_on_c, 8, 80, 127
2, 305553, Note_off_c, 8, 80, 127
2, 305553, Note_off_c, 12, 59, 127
2, 305555, Note_on_c, 1, 61, 127
2, 305555, Note_on_c, 6, 78, 127
2, 305691, Note_off_c, 6, 78, 127
2, 305691, Note_off_c, 1, 61, 127
2, 305693, Note_on_c, 2, 62, 127
2, 305693, Note_on_c, 5, 77, 127
2, 305829, Note_off_c, 5, 77, 127
2, 305829, Note_off_c, 2, 62, 127
2, 305831, Note_on_c, 12, 59, 127
2, 305831, Note_on_c, 6, 78, 127
2, 305967, Note_off_c, 6, 78, 127
2, 305967, Note_off_c, 12, 59, 127
2, 305970, Note_on_c, 1, 61, 127
2, 305970, Note_on_c, 5, 77, 127
2, 306106, Note_off_c, 1, 61, 127
2, 306108, Note_on_c, 12, 59, 127
2, 306108, Note_on_c, 8, 80, 127
2, 306142, Note_off_c, 5, 77, 127
2, 306244, Note_off_c, 8, 80, 127
2, 306244, Note_off_c, 12, 59, 127
2, 306246, Note_on_c, 10, 57, 127
2, 306246, Note_on_c, 1, 73, 127
2, 306382, Note_off_c, 1, 73, 127
2, 306382, Note_off_c, 10, 57, 127
2, 306385, Note_on_c, 1, 61, 127
2, 306385, Note_on_c, 12, 71, 127
2, 306521, Note_off_c, 12, 71, 127
2, 306521, Note_off_c, 1, 61, 127
2, 306523, Note_on_c, 6, 54, 127
2, 306523, Note_on_c, 10, 69, 127
2, 306659, Note_off_c, 6, 54, 127
2, 306661, Note_on_c, 10, 57, 127
2, 306661, Note_on_c, 6, 78, 127
2, 306695, Note_off_c, 10, 69, 127
2, 306797, Note_off_c, 6, 78, 127
2, 306797, Note_off_c, 10, 57, 127
2, 306800, Note_on_c, 12, 59, 127
2, 306800, Note_on_c, 2, 74, 127
2, 306936, Note_off_c, 12, 59, 127
2, 306938, Note_on_c, 6, 54, 127
2, 307074, Note_off_c, 6, 54, 127
2, 307074, Note_off_c, 2, 74, 127
2, 307076, Note_on_c, 10, 57, 127
2, 307076, Note_on_c, 1, 73, 127
2, 307212, Note_off_c, 10, 57, 127
2, 307215, Note_on_c, 6, 54, 127
2, 307278, Note_off_c, 1, 73, 127
2, 307351, Note_off_c, 6, 54, 127
2, 307353, Note_on_c, 8, 56, 127
2, 307353, Note_on_c, 12, 71, 127
2, 307489, Note_off_c, 8, 56, 127
2, 307491, Note_on_c, 6, 54, 127
2, 307555, Note_off_c, 12, 71, 127
2, 307627, Note_off_c, 6, 54, 127
2, 307630, Note_on_c, 1, 61, 127
2, 307630, Note_on_c, 10, 69, 127
2, 307766, Note_off_c, 1, 61, 127
2, 307768, Note_on_c, 6, 54, 127
2, 307904, Note_off_c, 6, 54, 127
2, 307904, Note_off_c, 10, 69, 127
2, 307906, Note_on_c, 12, 59, 127
2, 307906, Note_on_c, 8, 68, 127
2, 308042, Note_off_c, 12, 59, 127
2, 308045, Note_on_c, 6, 54, 127
2, 308108, Note_off_c, 8, 68, 127
2, 308181, Note_off_c, 6, 54, 127
2, 308183, Note_on_c, 10, 57, 127
2, 308183, Note_on_c, 6, 66, 127
2, 308319, Note_off_c, 10, 57, 127
2, 308321, Note_on_c, 6, 54, 127
2, 308385, Note_off_c, 6, 66, 127
2, 308457, Note_off_c, 6, 54, 127
2, 308460, Note_on_c, 2, 62, 127
2, 308460, Note_on_c, 12, 71, 127
2, 308596, Note_off_c, 12, 71, 127
2, 308598, Note_on_c, 6, 78, 127
2, 308734, Note_off_c, 6, 78, 127
2, 308734, Note_off_c, 2, 62, 127
2, 308736, Note_on_c, 1, 61, 127
2, 308736, Note_on_c, 10, 69, 127
2, 308872, Note_off_c, 10, 69, 127
2, 308875, Note_on_c, 6, 78, 127
2, 308979, Note_off_c, 1, 61, 127
2, 309009, Note_off_c, 6, 78, 127
2, 309011, Note_on_c, 12, 59, 127
2, 309011, Note_on_c, 8, 68, 127
2, 309147, Note_off_c, 8, 68, 127
2, 309149, Note_on_c, 6, 78, 127
2, 309254, Note_off_c, 12, 59, 127
2, 309283, Note_off_c, 6, 78, 127
2, 309286, Note_on_c, 10, 57, 127
2, 309286, Note_on_c, 1, 73, 127
2, 309422, Note_off_c, 1, 73, 127
2, 309424, Note_on_c, 6, 78, 127
2, 309560, Note_off_c, 6, 78, 127
2, 309560, Note_off_c, 10, 57, 127
2, 309562, Note_on_c, 8, 56, 127
2, 309562, Note_on_c, 12, 71, 127
2, 309698, Note_off_c, 12, 71, 127
2, 309701, Note_on_c, 6, 78, 127
2, 309805, Note_off_c, 8, 56, 127
2, 309835, Note_off_c, 6, 78, 127
2, 309837, Note_on_c, 6, 54, 127
2, 309837, Note_on_c, 10, 69, 127
2, 309973, Note_off_c, 10, 69, 127
2, 309976, Note_on_c, 6, 78, 127
2, 310080, Note_off_c, 6, 54, 127
2, 310110, Note_off_c, 6, 78, 127
2, 310112, Note_on_c, 8, 56, 127
2, 310112, Note_on_c, 12, 83, 127
2, 310248, Note_off_c, 12, 83, 127
2, 310248, Note_off_c, 8, 56, 127
2, 310250, Note_on_c, 6, 54, 127
2, 310250, Note_on_c, 10, 81, 127
2, 310386, Note_off_c, 10, 81, 127
2, 310386, Note_off_c, 6, 54, 127
2, 310389, Note_on_c, 5, 53, 127
2, 310389, Note_on_c, 8, 80, 127
2, 310525, Note_on_c, 8, 56, 127
2, 310525, Note_on_c, 12, 83, 127
2, 310545, Note_off_c, 5, 53, 127
2, 310560, Note_off_c, 8, 80, 127
2, 310661, Note_off_c, 12, 83, 127
2, 310661, Note_off_c, 8, 56, 127
2, 310664, Note_on_c, 2, 50, 127
2, 310664, Note_on_c, 6, 78, 127
2, 310800, Note_on_c, 8, 56, 127
2, 310800, Note_on_c, 12, 83, 127
2, 310820, Note_off_c, 2, 50, 127
2, 310835, Note_off_c, 6, 78, 127
2, 310936, Note_off_c, 12, 83, 127
2, 310936, Note_off_c, 8, 56, 127
2, 310938, Note_on_c, 1, 49, 127
2, 310938, Note_on_c, 5, 77, 127
2, 311075, Note_on_c, 8, 56, 127
2, 311075, Note_on_c, 12, 83, 127
2, 311094, Note_off_c, 1, 49, 127
2, 311109, Note_off_c, 5, 77, 127
2, 311211, Note_off_c, 12, 83, 127
2, 311211, Note_off_c, 8, 56, 127
2, 311213, Note_on_c, 12, 47, 127
2, 311213, Note_on_c, 2, 74, 127
2, 311350, Note_on_c, 8, 56, 127
2, 311350, Note_on_c, 12, 83, 127
2, 311369, Note_off_c, 12, 47, 127
2, 311384, Note_off_c, 2, 74, 127
2, 311486, Note_off_c, 12, 83, 127
2, 311486, Note_off_c, 8, 56, 127
2, 311488, Note_on_c, 10, 45, 127
2, 311488, Note_on_c, 1, 73, 127
2, 311625, Note_on_c, 6, 54, 127
2, 311625, Note_on_c, 10, 81, 127
2, 311644, Note_off_c, 10, 45, 127
2, 311659, Note_off_c, 1, 73, 127
2, 311761, Note_off_c, 10, 81, 127
2, 311761, Note_off_c, 6, 54, 127
2, 311763, Note_on_c, 2, 50, 127
2, 311763, Note_on_c, 12, 71, 127
2, 311899, Note_off_c, 2, 50, 127
2, 311901, Note_on_c, 12, 47, 127
2, 311901, Note_on_c, 8, 80, 127
2, 311935, Note_off_c, 12, 71, 127
2, 312037, Note_off_c, 8, 80, 127
2, 312037, Note_off_c, 12, 47, 127
2, 312039, Note_on_c, 1, 49, 127
2, 312039, Note_on_c, 1, 73, 127
2, 312282, Note_off_c, 1, 49, 127
2, 312312, Note_off_c, 1, 73, 127
2, 312314, Note_on_c, 1, 37, 127
2, 312314, Note_on_c, 5, 77, 127
2, 312514, Note_off_c, 5, 77, 127
2, 312557, Note_off_c, 1, 37, 127
2, 312589, Note_on_c, 6, 42, 127
2, 312589, Note_on_c, 6, 78, 127
2, 313133, Note_off_c, 6, 42, 127
2, 313136, Note_off_c, 6, 78, 127
2, 313139, Note_on_c, 1, 73, 127
2, 313339, Note_off_c, 1, 73, 127
2, 313414, Note_on_c, 12, 71, 127
2, 313550, Note_off_c, 12, 71, 127
2, 313552, Note_on_c, 11, 70, 127
2, 313688, Note_off_c, 11, 70, 127
2, 313690, Note_on_c, 8, 68, 127
2, 313826, Note_off_c, 8, 68, 127
2, 313829, Note_on_c, 6, 66, 127
2, 313965, Note_off_c, 6, 66, 127
2, 313967, Note_on_c, 6, 54, 127
2, 313967, Note_on_c, 6, 78, 127
2, 314103, Note_off_c, 6, 78, 127
2, 314105, Note_on_c, 11, 70, 127
2, 314210, Note_off_c, 6, 54, 127
2, 314239, Note_off_c, 11, 70, 127
2, 314242, Note_on_c, 4, 52, 127
2, 314242, Note_on_c, 12, 71, 127
2, 314378, Note_off_c, 12, 71, 127
2, 314378, Note_off_c, 4, 52, 127
2, 314380, Note_on_c, 2, 50, 127
2, 314380, Note_on_c, 1, 73, 127
2, 314516, Note_off_c, 1, 73, 127
2, 314516, Note_off_c, 2, 50, 127
2, 314518, Note_on_c, 1, 49, 127
2, 314518, Note_on_c, 2, 74, 127
2, 314654, Note_off_c, 1, 49, 127
2, 314657, Note_on_c, 12, 47, 127
2, 314793, Note_off_c, 12, 47, 127
2, 314795, Note_on_c, 12, 59, 127
2, 314931, Note_off_c, 12, 59, 127
2, 314933, Note_on_c, 2, 50, 127
2, 315064, Note_off_c, 2, 74, 127
2, 315067, Note_off_c, 2, 50, 127
2, 315070, Note_on_c, 4, 52, 127
2, 315206, Note_off_c, 4, 52, 127
2, 315208, Note_on_c, 6, 54, 127
2, 315208, Note_on_c, 1, 73, 127
2, 315344, Note_off_c, 1, 73, 127
2, 315344, Note_off_c, 6, 54, 127
2, 315346, Note_on_c, 8, 56, 127
2, 315346, Note_on_c, 12, 71, 127
2, 315482, Note_off_c, 12, 71, 127
2, 315485, Note_on_c, 10, 69, 127
2, 315621, Note_off_c, 10, 69, 127
2, 315623, Note_on_c, 4, 76, 127
2, 315759, Note_off_c, 4, 76, 127
2, 315761, Note_on_c, 12, 71, 127
2, 315806, Note_off_c, 8, 56, 127
2, 315895, Note_off_c, 12, 71, 127
2, 315898, Note_on_c, 10, 57, 127
2, 315898, Note_on_c, 1, 73, 127
2, 316034, Note_off_c, 10, 57, 127
2, 316036, Note_on_c, 7, 55, 127
2, 316172, Note_off_c, 7, 55, 127
2, 316172, Note_off_c, 1, 73, 127
2, 316175, Note_on_c, 6, 54, 127
2, 316175, Note_on_c, 10, 69, 127
2, 316311, Note_off_c, 6, 54, 127
2, 316313, Note_on_c, 4, 52, 127
2, 316377, Note_off_c, 10, 69, 127
2, 316449, Note_off_c, 4, 52, 127
2, 316451, Note_on_c, 10, 57, 127
2, 316451, Note_on_c, 1, 73, 127
2, 316587, Note_off_c, 10, 57, 127
2, 316589, Note_on_c, 4, 52, 127
2, 316653, Note_off_c, 1, 73, 127
2, 316725, Note_off_c, 4, 52, 127
2, 316728, Note_on_c, 6, 54, 127
2, 316728, Note_on_c, 2, 74, 127
2, 316864, Note_off_c, 6, 54, 127
2, 316866, Note_on_c, 2, 50, 127
2, 316866, Note_on_c, 10, 69, 127
2, 317001, Note_off_c, 2, 74, 127
2, 317002, Note_off_c, 10, 69, 127
2, 317002, Note_off_c, 2, 50, 127
2, 317004, Note_on_c, 6, 54, 127
2, 317004, Note_on_c, 6, 66, 127
2, 317140, Note_off_c, 6, 66, 127
2, 317140, Note_off_c, 6, 54, 127
2, 317143, Note_on_c, 10, 57, 127
2, 317143, Note_on_c, 2, 62, 127
2, 317279, Note_off_c, 2, 62, 127
2, 317279, Note_off_c, 10, 57, 127
2, 317281, Note_on_c, 2, 62, 127
2, 317281, Note_on_c, 10, 69, 127
2, 317417, Note_off_c, 10, 69, 127
2, 317417, Note_off_c, 2, 62, 127
2, 317419, Note_on_c, 10, 57, 127
2, 317419, Note_on_c, 6, 66, 127
2, 317555, Note_off_c, 6, 66, 127
2, 317555, Note_off_c, 10, 57, 127
2, 317558, Note_on_c, 7, 55, 127
2, 317558, Note_on_c, 12, 71, 127
2, 317694, Note_off_c, 12, 71, 127
2, 317694, Note_off_c, 7, 55, 127
2, 317696, Note_on_c, 2, 50, 127
2, 317696, Note_on_c, 7, 67, 127
2, 317832, Note_off_c, 7, 67, 127
2, 317832, Note_off_c, 2, 50, 127
2, 317834, Note_on_c, 7, 55, 127
2, 317834, Note_on_c, 2, 74, 127
2, 317970, Note_off_c, 2, 74, 127
2, 317970, Note_off_c, 7, 55, 127
2, 317973, Note_on_c, 12, 59, 127
2, 317973, Note_on_c, 12, 71, 127
2, 318109, Note_off_c, 12, 71, 127
2, 318109, Note_off_c, 12, 59, 127
2, 318111, Note_on_c, 2, 62, 127
2, 318111, Note_on_c, 7, 79, 127
2, 318247, Note_off_c, 7, 79, 127
2, 318247, Note_off_c, 2, 62, 127
2, 318249, Note_on_c, 12, 59, 127
2, 318249, Note_on_c, 2, 74, 127
2, 318385, Note_off_c, 2, 74, 127
2, 318385, Note_off_c, 12, 59, 127
2, 318388, Note_on_c, 8, 56, 127
2, 318388, Note_on_c, 4, 76, 127
2, 318524, Note_off_c, 8, 56, 127
2, 318526, Note_on_c, 4, 52, 127
2, 318526, Note_on_c, 12, 71, 127
2, 318661, Note_off_c, 4, 76, 127
2, 318662, Note_off_c, 12, 71, 127
2, 318662, Note_off_c, 4, 52, 127
2, 318664, Note_on_c, 8, 56, 127
2, 318664, Note_on_c, 8, 68, 127
2, 318800, Note_off_c, 8, 68, 127
2, 318800, Note_off_c, 8, 56, 127
2, 318803, Note_on_c, 12, 59, 127
2, 318803, Note_on_c, 4, 64, 127
2, 318939, Note_off_c, 4, 64, 127
2, 318939, Note_off_c, 12, 59, 127
2, 318941, Note_on_c, 4, 64, 127
2, 318941, Note_on_c, 12, 71, 127
2, 319077, Note_off_c, 12, 71, 127
2, 319077, Note_off_c, 4, 64, 127
2, 319079, Note_on_c, 12, 59, 127
2, 319079, Note_on_c, 8, 68, 127
2, 319215, Note_off_c, 8, 68, 127
2, 319215, Note_off_c, 12, 59, 127
2, 319218, Note_on_c, 10, 57, 127
2, 319218, Note_on_c, 1, 73, 127
2, 319354, Note_off_c, 1, 73, 127
2, 319354, Note_off_c, 10, 57, 127
2, 319356, Note_on_c, 4, 52, 127
2, 319356, Note_on_c, 10, 69, 127
2, 319492, Note_off_c, 10, 69, 127
2, 319492, Note_off_c, 4, 52, 127
2, 319494, Note_on_c, 10, 57, 127
2, 319494, Note_on_c, 4, 76, 127
2, 319630, Note_off_c, 4, 76, 127
2, 319630, Note_off_c, 10, 57, 127
2, 319633, Note_on_c, 1, 61, 127
2, 319633, Note_on_c, 1, 73, 127
2, 319769, Note_off_c, 1, 73, 127
2, 319769, Note_off_c, 1, 61, 127
2, 319771, Note_on_c, 4, 64, 127
2, 319771, Note_on_c, 10, 81, 127
2, 319907, Note_off_c, 10, 81, 127
2, 319907, Note_off_c, 4, 64, 127
2, 319909, Note_on_c, 1, 61, 127
2, 319909, Note_on_c, 4, 76, 127
2, 320045, Note_off_c, 4, 76, 127
2, 320045, Note_off_c, 1, 61, 127
2, 320047, Note_on_c, 11, 58, 127
2, 320047, Note_on_c, 6, 78, 127
2, 320183, Note_off_c, 11, 58, 127
2, 320186, Note_on_c, 6, 54, 127
2, 320186, Note_on_c, 1, 73, 127
2, 320320, Note_off_c, 6, 78, 127
2, 320322, Note_off_c, 1, 73, 127
2, 320322, Note_off_c, 6, 54, 127
2, 320324, Note_on_c, 11, 58, 127
2, 320324, Note_on_c, 11, 70, 127
2, 320460, Note_off_c, 11, 70, 127
2, 320460, Note_off_c, 11, 58, 127
2, 320462, Note_on_c, 1, 61, 127
2, 320462, Note_on_c, 6, 66, 127
2, 320598, Note_off_c, 6, 66, 127
2, 320598, Note_off_c, 1, 61, 127
2, 320601, Note_on_c, 6, 66, 127
2, 320601, Note_on_c, 1, 73, 127
2, 320737, Note_off_c, 1, 73, 127
2, 320737, Note_off_c, 6, 66, 127
2, 320739, Note_on_c, 1, 61, 127
2, 320739, Note_on_c, 11, 70, 127
2, 320875, Note_off_c, 11, 70, 127
2, 320875, Note_off_c, 1, 61, 127
2, 320877, Note_on_c, 12, 59, 127
2, 320877, Note_on_c, 2, 74, 127
2, 321013, Note_off_c, 2, 74, 127
2, 321013, Note_off_c, 12, 59, 127
2, 321016, Note_on_c, 2, 62, 127
2, 321016, Note_on_c, 12, 71, 127
2, 321152, Note_off_c, 12, 71, 127
2, 321152, Note_off_c, 2, 62, 127
2, 321154, Note_on_c, 1, 61, 127
2, 321154, Note_on_c, 6, 78, 127
2, 321290, Note_off_c, 6, 78, 127
2, 321290, Note_off_c, 1, 61, 127
2, 321292, Note_on_c, 12, 59, 127
2, 321292, Note_on_c, 2, 74, 127
2, 321428, Note_off_c, 2, 74, 127
2, 321428, Note_off_c, 12, 59, 127
2, 321431, Note_on_c, 10, 57, 127
2, 321431, Note_on_c, 12, 83, 127
2, 321567, Note_off_c, 12, 83, 127
2, 321567, Note_off_c, 10, 57, 127
2, 321569, Note_on_c, 7, 55, 127
2, 321569, Note_on_c, 3, 75, 127
2, 321705, Note_off_c, 3, 75, 127
2, 321705, Note_off_c, 7, 55, 127
2, 321707, Note_on_c, 0, 60, 127
2, 321707, Note_on_c, 10, 81, 127
2, 321844, Note_on_c, 4, 76, 127
2, 321863, Note_off_c, 10, 81, 127
2, 321980, Note_off_c, 4, 76, 127
2, 321980, Note_off_c, 0, 60, 127
2, 321982, Note_on_c, 12, 59, 127
2, 321982, Note_on_c, 7, 79, 127
2, 322119, Note_on_c, 4, 76, 127
2, 322138, Note_off_c, 7, 79, 127
2, 322224, Note_off_c, 12, 59, 127
2, 322253, Note_off_c, 4, 76, 127
2, 322255, Note_on_c, 10, 57, 127
2, 322255, Note_on_c, 6, 78, 127
2, 322391, Note_off_c, 6, 78, 127
2, 322393, Note_on_c, 4, 76, 127
2, 322498, Note_off_c, 10, 57, 127
2, 322527, Note_off_c, 4, 76, 127
2, 322530, Note_on_c, 7, 55, 127
2, 322530, Note_on_c, 12, 83, 127
2, 322666, Note_on_c, 4, 76, 127
2, 322686, Note_off_c, 12, 83, 127
2, 322802, Note_off_c, 4, 76, 127
2, 322803, Note_off_c, 7, 55, 127
2, 322805, Note_on_c, 6, 54, 127
2, 322805, Note_on_c, 10, 81, 127
2, 322941, Note_on_c, 4, 76, 127
2, 322961, Note_off_c, 10, 81, 127
2, 323047, Note_off_c, 6, 54, 127
2, 323075, Note_off_c, 4, 76, 127
2, 323078, Note_on_c, 4, 52, 127
2, 323078, Note_on_c, 7, 79, 127
2, 323214, Note_off_c, 7, 79, 127
2, 323216, Note_on_c, 4, 76, 127
2, 323321, Note_off_c, 4, 52, 127
2, 323350, Note_off_c, 4, 76, 127
2, 323353, Note_on_c, 10, 57, 127
2, 323353, Note_on_c, 0, 84, 127
2, 323489, Note_on_c, 4, 64, 127
2, 323509, Note_off_c, 10, 57, 127
2, 323625, Note_off_c, 4, 64, 127
2, 323626, Note_off_c, 0, 84, 127
2, 323627, Note_on_c, 7, 55, 127
2, 323627, Note_on_c, 12, 83, 127
2, 323764, Note_on_c, 4, 64, 127
2, 323783, Note_off_c, 7, 55, 127
2, 323827, Note_off_c, 12, 83, 127
2, 323900, Note_off_c, 4, 64, 127
2, 323902, Note_on_c, 6, 54, 127
2, 323902, Note_on_c, 10, 81, 127
2, 324038, Note_off_c, 10, 81, 127
2, 324038, Note_off_c, 6, 54, 127
2, 324041, Note_on_c, 4, 64, 127
2, 324177, Note_off_c, 4, 64, 127
2, 324179, Note_on_c, 12, 59, 127
2, 324179, Note_on_c, 7, 79, 127
2, 324315, Note_on_c, 4, 64, 127
2, 324335, Note_off_c, 12, 59, 127
2, 324451, Note_off_c, 4, 64, 127
2, 324452, Note_off_c, 7, 79, 127
2, 324454, Note_on_c, 10, 57, 127
2, 324454, Note_on_c, 6, 78, 127
2, 324590, Note_on_c, 4, 64, 127
2, 324610, Note_off_c, 10, 57, 127
2, 324654, Note_off_c, 6, 78, 127
2, 324726, Note_off_c, 4, 64, 127
2, 324729, Note_on_c, 7, 55, 127
2, 324729, Note_on_c, 4, 76, 127
2, 324865, Note_off_c, 4, 76, 127
2, 324865, Note_off_c, 7, 55, 127
2, 324867, Note_on_c, 4, 64, 127
2, 325003, Note_off_c, 4, 64, 127
2, 325005, Note_on_c, 10, 57, 127
2, 325005, Note_on_c, 6, 78, 127
2, 325141, Note_off_c, 6, 78, 127
2, 325141, Note_off_c, 10, 57, 127
2, 325143, Note_on_c, 7, 55, 127
2, 325143, Note_on_c, 4, 76, 127
2, 325279, Note_off_c, 4, 76, 127
2, 325279, Note_off_c, 7, 55, 127
2, 325282, Note_on_c, 6, 54, 127
2, 325282, Note_on_c, 3, 75, 127
2, 325418, Note_off_c, 3, 75, 127
2, 325418, Note_off_c, 6, 54, 127
2, 325420, Note_on_c, 10, 57, 127
2, 325420, Note_on_c, 6, 78, 127
2, 325556, Note_off_c, 6, 78, 127
2, 325556, Note_off_c, 10, 57, 127
2, 325558, Note_on_c, 4, 52, 127
2, 325558, Note_on_c, 0, 72, 127
2, 325694, Note_off_c, 0, 72, 127
2, 325694, Note_off_c, 4, 52, 127
2, 325697, Note_on_c, 10, 57, 127
2, 325697, Note_on_c, 6, 78, 127
2, 325833, Note_off_c, 6, 78, 127
2, 325833, Note_off_c, 10, 57, 127
2, 325835, Note_on_c, 3, 51, 127
2, 325835, Note_on_c, 12, 71, 127
2, 325971, Note_off_c, 12, 71, 127
2, 325971, Note_off_c, 3, 51, 127
2, 325973, Note_on_c, 10, 57, 127
2, 325973, Note_on_c, 6, 78, 127
2, 326109, Note_off_c, 6, 78, 127
2, 326109, Note_off_c, 10, 57, 127
2, 326112, Note_on_c, 0, 48, 127
2, 326112, Note_on_c, 10, 69, 127
2, 326248, Note_off_c, 10, 69, 127
2, 326248, Note_off_c, 0, 48, 127
2, 326250, Note_on_c, 10, 57, 127
2, 326250, Note_on_c, 6, 78, 127
2, 326386, Note_off_c, 6, 78, 127
2, 326386, Note_off_c, 10, 57, 127
2, 326388, Note_on_c, 12, 47, 127
2, 326388, Note_on_c, 7, 67, 127
2, 326524, Note_off_c, 7, 67, 127
2, 326524, Note_off_c, 12, 47, 127
2, 326527, Note_on_c, 7, 55, 127
2, 326527, Note_on_c, 4, 76, 127
2, 326663, Note_off_c, 4, 76, 127
2, 326663, Note_off_c, 7, 55, 127
2, 326665, Note_on_c, 10, 45, 127
2, 326665, Note_on_c, 6, 66, 127
2, 326801, Note_off_c, 6, 66, 127
2, 326801, Note_off_c, 10, 45, 127
2, 326803, Note_on_c, 6, 54, 127
2, 326803, Note_on_c, 10, 69, 127
2, 326939, Note_off_c, 10, 69, 127
2, 326939, Note_off_c, 6, 54, 127
2, 326942, Note_on_c, 12, 47, 127
2, 326942, Note_on_c, 4, 76, 127
2, 327078, Note_off_c, 4, 76, 127
2, 327078, Note_off_c, 12, 47, 127
2, 327080, Note_on_c, 7, 55, 127
2, 327080, Note_on_c, 3, 75, 127
2, 327216, Note_off_c, 3, 75, 127
2, 327216, Note_off_c, 7, 55, 127
2, 327218, Note_on_c, 12, 47, 127
2, 327218, Note_on_c, 1, 73, 127
2, 327354, Note_off_c, 1, 73, 127
2, 327354, Note_off_c, 12, 47, 127
2, 327357, Note_on_c, 10, 57, 127
2, 327357, Note_on_c, 3, 75, 127
2, 327493, Note_off_c, 3, 75, 127
2, 327493, Note_off_c, 10, 57, 127
2, 327495, Note_on_c, 4, 52, 127
2, 327495, Note_on_c, 4, 76, 127
2, 327631, Note_off_c, 4, 52, 127
2, 327633, Note_on_c, 10, 57, 127
2, 327769, Note_off_c, 10, 57, 127
2, 327772, Note_on_c, 7, 55, 127
2, 327897, Note_off_c, 4, 76, 127
2, 327906, Note_off_c, 7, 55, 127
2, 327908, Note_on_c, 6, 54, 127
2, 328044, Note_off_c, 6, 54, 127
2, 328046, Note_on_c, 7, 55, 127
2, 328046, Note_on_c, 4, 76, 127
2, 328182, Note_off_c, 7, 55, 127
2, 328185, Note_on_c, 4, 52, 127
2, 328248, Note_off_c, 4, 76, 127
2, 328321, Note_off_c, 4, 52, 127
2, 328323, Note_on_c, 10, 57, 127
2, 328323, Note_on_c, 2, 74, 127
2, 328459, Note_off_c, 2, 74, 127
2, 328461, Note_on_c, 1, 73, 127
2, 328597, Note_off_c, 1, 73, 127
2, 328600, Note_on_c, 10, 45, 127
2, 328600, Note_on_c, 12, 71, 127
2, 328639, Note_off_c, 10, 57, 127
2, 328736, Note_off_c, 12, 71, 127
2, 328738, Note_on_c, 10, 69, 127
2, 328843, Note_off_c, 10, 45, 127
2, 328872, Note_off_c, 10, 69, 127
2, 328874, Note_on_c, 10, 57, 127
2, 328874, Note_on_c, 10, 81, 127
2, 329010, Note_off_c, 10, 81, 127
2, 329013, Note_on_c, 1, 73, 127
2, 329117, Note_off_c, 10, 57, 127
2, 329147, Note_off_c, 1, 73, 127
2, 329149, Note_on_c, 7, 55, 127
2, 329149, Note_on_c, 2, 74, 127
2, 329285, Note_off_c, 2, 74, 127
2, 329285, Note_off_c, 7, 55, 127
2, 329288, Note_on_c, 6, 54, 127
2, 329288, Note_on_c, 4, 76, 127
2, 329424, Note_off_c, 4, 76, 127
2, 329424, Note_off_c, 6, 54, 127
2, 329426, Note_on_c, 4, 52, 127
2, 329426, Note_on_c, 6, 78, 127
2, 329562, Note_off_c, 4, 52, 127
2, 329564, Note_on_c, 2, 50, 127
2, 329700, Note_off_c, 2, 50, 127
2, 329703, Note_on_c, 2, 62, 127
2, 329839, Note_off_c, 2, 62, 127
2, 329841, Note_on_c, 6, 54, 127
2, 329972, Note_off_c, 6, 78, 127
2, 329975, Note_off_c, 6, 54, 127
2, 329977, Note_on_c, 7, 55, 127
2, 330113, Note_off_c, 7, 55, 127
2, 330116, Note_on_c, 10, 57, 127
2, 330116, Note_on_c, 2, 74, 127
2, 330252, Note_off_c, 2, 74, 127
2, 330252, Note_off_c, 10, 57, 127
2, 330254, Note_on_c, 12, 59, 127
2, 330254, Note_on_c, 1, 73, 127
2, 330390, Note_off_c, 1, 73, 127
2, 330392, Note_on_c, 12, 71, 127
2, 330528, Note_off_c, 12, 71, 127
2, 330531, Note_on_c, 7, 79, 127
2, 330667, Note_off_c, 7, 79, 127
2, 330669, Note_on_c, 12, 71, 127
2, 330805, Note_off_c, 12, 71, 127
2, 330807, Note_on_c, 1, 73, 127
2, 330887, Note_off_c, 12, 59, 127
2, 330943, Note_off_c, 1, 73, 127
2, 330946, Note_on_c, 7, 55, 127
2, 330946, Note_on_c, 2, 74, 127
2, 331082, Note_off_c, 2, 74, 127
2, 331082, Note_off_c, 7, 55, 127
2, 331084, Note_on_c, 6, 54, 127
2, 331084, Note_on_c, 4, 76, 127
2, 331220, Note_off_c, 6, 54, 127
2, 331222, Note_on_c, 4, 52, 127
2, 331358, Note_off_c, 4, 52, 127
2, 331361, Note_on_c, 1, 61, 127
2, 331497, Note_off_c, 1, 61, 127
2, 331499, Note_on_c, 4, 52, 127
2, 331635, Note_off_c, 4, 52, 127
2, 331637, Note_on_c, 6, 54, 127
2, 331660, Note_off_c, 4, 76, 127
2, 331773, Note_off_c, 6, 54, 127
2, 331776, Note_on_c, 7, 55, 127
2, 331776, Note_on_c, 1, 73, 127
2, 331912, Note_off_c, 1, 73, 127
2, 331912, Note_off_c, 7, 55, 127
2, 331914, Note_on_c, 6, 54, 127
2, 331914, Note_on_c, 12, 71, 127
2, 332050, Note_off_c, 12, 71, 127
2, 332050, Note_off_c, 6, 54, 127
2, 332052, Note_on_c, 4, 52, 127
2, 332052, Note_on_c, 11, 70, 127
2, 332188, Note_off_c, 11, 70, 127
2, 332188, Note_off_c, 4, 52, 127
2, 332191, Note_on_c, 2, 50, 127
2, 332191, Note_on_c, 6, 78, 127
2, 332327, Note_off_c, 6, 78, 127
2, 332327, Note_off_c, 2, 50, 127
2, 332329, Note_on_c, 1, 49, 127
2, 332329, Note_on_c, 11, 70, 127
2, 332465, Note_off_c, 11, 70, 127
2, 332465, Note_off_c, 1, 49, 127
2, 332467, Note_on_c, 2, 50, 127
2, 332467, Note_on_c, 12, 71, 127
2, 332603, Note_off_c, 12, 71, 127
2, 332603, Note_off_c, 2, 50, 127
2, 332605, Note_on_c, 4, 52, 127
2, 332605, Note_on_c, 1, 73, 127
2, 332741, Note_off_c, 1, 73, 127
2, 332741, Note_off_c, 4, 52, 127
2, 332744, Note_on_c, 2, 50, 127
2, 332744, Note_on_c, 2, 74, 127
2, 332880, Note_off_c, 2, 50, 127
2, 332882, Note_on_c, 1, 49, 127
2, 333018, Note_off_c, 1, 49, 127
2, 333020, Note_on_c, 12, 47, 127
2, 333156, Note_off_c, 12, 47, 127
2, 333159, Note_on_c, 10, 45, 127
2, 333295, Note_off_c, 10, 45, 127
2, 333297, Note_on_c, 7, 43, 127
2, 333348, Note_off_c, 2, 74, 127
2, 333434, Note_on_c, 7, 67, 127
2, 333570, Note_off_c, 7, 67, 127
2, 333570, Note_off_c, 7, 43, 127
2, 333572, Note_on_c, 12, 47, 127
2, 333572, Note_on_c, 6, 66, 127
2, 333708, Note_off_c, 6, 66, 127
2, 333710, Note_on_c, 4, 64, 127
2, 333815, Note_off_c, 12, 47, 127
2, 333844, Note_off_c, 4, 64, 127
2, 333847, Note_on_c, 4, 52, 127
2, 333847, Note_on_c, 2, 74, 127
2, 333983, Note_off_c, 2, 74, 127
2, 333985, Note_on_c, 1, 73, 127
2, 334090, Note_off_c, 4, 52, 127
2, 334119, Note_off_c, 1, 73, 127
2, 334122, Note_on_c, 6, 42, 127
2, 334122, Note_on_c, 12, 71, 127
2, 334258, Note_off_c, 12, 71, 127
2, 334258, Note_off_c, 6, 42, 127
2, 334260, Note_on_c, 6, 54, 127
2, 334260, Note_on_c, 11, 70, 127
2, 334396, Note_off_c, 11, 70, 127
2, 334396, Note_off_c, 6, 54, 127
2, 334398, Note_on_c, 4, 52, 127
2, 334398, Note_on_c, 8, 68, 127
2, 334534, Note_off_c, 8, 68, 127
2, 334534, Note_off_c, 4, 52, 127
2, 334537, Note_on_c, 2, 50, 127
2, 334537, Note_on_c, 6, 66, 127
2, 334673, Note_off_c, 6, 66, 127
2, 334673, Note_off_c, 2, 50, 127
2, 334675, Note_on_c, 8, 68, 127
2, 334675, Note_on_c, 1, 49, 127
2, 334813, Note_off_c, 1, 49, 127
2, 334813, Note_off_c, 8, 68, 127
2, 334815, Note_on_c, 11, 70, 127
2, 334815, Note_on_c, 12, 47, 127
2, 334953, Note_off_c, 12, 47, 127
2, 334953, Note_off_c, 11, 70, 127
2, 334957, Note_on_c, 12, 71, 127
2, 334957, Note_on_c, 7, 55, 127
2, 335095, Note_off_c, 12, 71, 127
2, 335099, Note_on_c, 4, 76, 127
2, 335237, Note_off_c, 4, 76, 127
2, 335237, Note_off_c, 7, 55, 127
2, 335241, Note_on_c, 12, 71, 127
2, 335241, Note_on_c, 6, 54, 127
2, 335379, Note_off_c, 12, 71, 127
2, 335383, Note_on_c, 2, 74, 127
2, 335492, Note_off_c, 6, 54, 127
2, 335521, Note_off_c, 2, 74, 127
2, 335525, Note_on_c, 12, 71, 127
2, 335525, Note_on_c, 4, 52, 127
2, 335663, Note_off_c, 12, 71, 127
2, 335667, Note_on_c, 1, 73, 127
2, 335776, Note_off_c, 4, 52, 127
2, 335805, Note_off_c, 1, 73, 127
2, 335809, Note_on_c, 12, 71, 127
2, 335809, Note_on_c, 2, 50, 127
2, 335947, Note_off_c, 12, 71, 127
2, 335949, Note_on_c, 6, 78, 127
2, 336087, Note_off_c, 6, 78, 127
2, 336089, Note_off_c, 2, 50, 127
2, 336091, Note_on_c, 12, 71, 127
2, 336091, Note_on_c, 1, 49, 127
2, 336229, Note_off_c, 12, 71, 127
2, 336233, Note_on_c, 4, 76, 127
2, 336342, Note_off_c, 1, 49, 127
2, 336371, Note_off_c, 4, 76, 127
2, 336375, Note_on_c, 12, 47, 127
2, 336375, Note_on_c, 12, 71, 127
2, 336516, Note_off_c, 12, 71, 127
2, 336520, Note_on_c, 2, 74, 127
2, 336633, Note_off_c, 12, 47, 127
2, 336661, Note_off_c, 2, 74, 127
2, 336666, Note_on_c, 4, 52, 127
2, 336666, Note_on_c, 7, 79, 127
2, 336807, Note_off_c, 4, 52, 127
2, 336812, Note_on_c, 12, 59, 127
2, 336953, Note_off_c, 12, 59, 127
2, 336953, Note_off_c, 7, 79, 127
2, 336957, Note_on_c, 2, 50, 127
2, 336957, Note_on_c, 6, 78, 127
2, 337098, Note_off_c, 2, 50, 127
2, 337103, Note_on_c, 12, 59, 127
2, 337168, Note_off_c, 6, 78, 127
2, 337244, Note_off_c, 12, 59, 127
2, 337248, Note_on_c, 1, 49, 127
2, 337248, Note_on_c, 4, 76, 127
2, 337389, Note_off_c, 1, 49, 127
2, 337394, Note_on_c, 12, 59, 127
2, 337459, Note_off_c, 4, 76, 127
2, 337535, Note_off_c, 12, 59, 127
2, 337540, Note_on_c, 6, 54, 127
2, 337540, Note_on_c, 2, 74, 127
2, 337681, Note_off_c, 6, 54, 127
2, 337685, Note_on_c, 12, 59, 127
2, 337826, Note_off_c, 12, 59, 127
2, 337829, Note_off_c, 2, 74, 127
2, 337833, Note_on_c, 4, 52, 127
2, 337833, Note_on_c, 1, 73, 127
2, 337974, Note_off_c, 4, 52, 127
2, 337978, Note_on_c, 12, 59, 127
2, 338044, Note_off_c, 1, 73, 127
2, 338119, Note_off_c, 12, 59, 127
2, 338124, Note_on_c, 2, 50, 127
2, 338124, Note_on_c, 12, 71, 127
2, 338273, Note_off_c, 2, 50, 127
2, 338277, Note_on_c, 12, 59, 127
2, 338347, Note_off_c, 12, 71, 127
2, 338424, Note_off_c, 12, 59, 127
2, 338429, Note_on_c, 1, 61, 127
2, 338429, Note_on_c, 4, 76, 127
2, 338578, Note_off_c, 4, 76, 127
2, 338578, Note_off_c, 1, 61, 127
2, 338584, Note_on_c, 12, 59, 127
2, 338584, Note_on_c, 2, 74, 127
2, 338733, Note_off_c, 2, 74, 127
2, 338733, Note_off_c, 12, 59, 127
2, 338739, Note_on_c, 11, 58, 127
2, 338739, Note_on_c, 1, 73, 127
2, 338894, Note_on_c, 1, 61, 127
2, 338894, Note_on_c, 4, 76, 127
2, 338913, Note_off_c, 1, 73, 127
2, 338913, Note_off_c, 11, 58, 127
2, 339043, Note_off_c, 4, 76, 127
2, 339043, Note_off_c, 1, 61, 127
2, 339048, Note_on_c, 7, 55, 127
2, 339048, Note_on_c, 12, 71, 127
2, 339197, Note_off_c, 12, 71, 127
2, 339197, Note_off_c, 7, 55, 127
2, 339205, Note_on_c, 1, 61, 127
2, 339205, Note_on_c, 4, 76, 127
2, 339354, Note_off_c, 4, 76, 127
2, 339354, Note_off_c, 1, 61, 127
2, 339360, Note_on_c, 6, 54, 127
2, 339360, Note_on_c, 11, 70, 127
2, 339514, Note_on_c, 1, 61, 127
2, 339514, Note_on_c, 4, 76, 127
2, 339534, Note_off_c, 11, 70, 127
2, 339534, Note_off_c, 6, 54, 127
2, 339663, Note_off_c, 4, 76, 127
2, 339663, Note_off_c, 1, 61, 127
2, 339669, Note_on_c, 4, 52, 127
2, 339669, Note_on_c, 7, 67, 127
2, 339824, Note_on_c, 1, 61, 127
2, 339824, Note_on_c, 4, 76, 127
2, 339843, Note_off_c, 7, 67, 127
2, 339843, Note_off_c, 4, 52, 127
2, 339973, Note_off_c, 4, 76, 127
2, 339973, Note_off_c, 1, 61, 127
2, 339978, Note_on_c, 6, 66, 127
2, 339978, Note_on_c, 2, 50, 127
2, 340130, Note_off_c, 2, 50, 127
2, 340130, Note_off_c, 6, 66, 127
2, 340137, Note_on_c, 2, 74, 127
2, 340137, Note_on_c, 12, 59, 127
2, 340289, Note_off_c, 12, 59, 127
2, 340289, Note_off_c, 2, 74, 127
2, 340295, Note_on_c, 4, 64, 127
2, 340295, Note_on_c, 7, 55, 127
2, 340447, Note_off_c, 7, 55, 127
2, 340453, Note_on_c, 1, 73, 127
2, 340453, Note_on_c, 4, 52, 127
2, 340473, Note_off_c, 4, 64, 127
2, 340605, Note_off_c, 4, 52, 127
2, 340605, Note_off_c, 1, 73, 127
2, 340612, Note_on_c, 6, 66, 127
2, 340612, Note_on_c, 6, 54, 127
2, 340841, Note_off_c, 6, 66, 127
2, 340890, Note_off_c, 6, 54, 127
2, 340932, Note_on_c, 11, 70, 127
2, 340932, Note_on_c, 6, 42, 127
2, 341217, Note_off_c, 6, 42, 127
2, 341217, Note_off_c, 11, 70, 127
2, 341305, Note_on_c, 12, 71, 127
2, 341305, Note_on_c, 12, 47, 127
2, 344256, Note_off_c, 12, 47, 127
2, 344256, Note_off_c, 12, 71, 127
2, 348672, End_track
3, 0, Start_track
3, 0, Title_t, "MIDI"
3, 1536, End_track
0, 0, End_of_file
