0, 0, Header, 1, 3, 384
1, 0, Start_track
1, 0, Time_signature, 4, 2, 24, 8
1, 0, Tempo, 500000
1, 265728, End_track
2, 0, Start_track
2, 0, Text_t, "harpsichord: John Sankey"
2, 0, Program_c, 0, 6
2, 0, Pitch_bend_c, 0, 8192
2, 0, Program_c, 1, 6
2, 0, Pitch_bend_c, 1, 7792
2, 0, Program_c, 2, 6
2, 0, Pitch_bend_c, 2, 7876
2, 0, Program_c, 3, 6
2, 0, Pitch_bend_c, 3, 7952
2, 0, Program_c, 4, 6
2, 0, Pitch_bend_c, 4, 7792
2, 0, Program_c, 5, 6
2, 0, Pitch_bend_c, 5, 8112
2, 0, Program_c, 6, 6
2, 0, Pitch_bend_c, 6, 7712
2, 0, Program_c, 7, 6
2, 0, Pitch_bend_c, 7, 8037
2, 0, Program_c, 8, 6
2, 0, Pitch_bend_c, 8, 7872
2, 0, Program_c, 10, 6
2, 0, Pitch_bend_c, 10, 7712
2, 0, Program_c, 11, 6
2, 0, Pitch_bend_c, 11, 8032
2, 0, Program_c, 12, 6
2, 0, Pitch_bend_c, 12, 7872
2, 0, Title_t, "Track 1"
2, 64, Note_on_c, 11, 58, 127
2, 64, Note_on_c, 1, 61, 127
2, 746, Note_off_c, 11, 58, 127
2, 750, Note_on_c, 11, 58, 127
2, 750, Note_on_c, 5, 65, 127
2, 750, Note_on_c, 11, 70, 127
2, 1178, Note_off_c, 11, 70, 127
2, 1186, Note_on_c, 0, 72, 127
2, 1432, Note_off_c, 11, 58, 127
2, 1435, Note_off_c, 0, 72, 127
2, 1436, Note_on_c, 11, 58, 127
2, 1436, Note_on_c, 1, 73, 127
2, 1436, Note_on_c, 11, 70, 127
2, 2108, Note_off_c, 5, 65, 127
2, 2118, Note_off_c, 11, 70, 127
2, 2118, Note_off_c, 1, 73, 127
2, 2118, Note_off_c, 11, 58, 127
2, 2119, Note_off_c, 1, 61, 127
2, 2123, Note_on_c, 1, 61, 127
2, 2123, Note_on_c, 11, 58, 127
2, 2123, Note_on_c, 5, 65, 127
2, 2123, Note_on_c, 11, 70, 127
2, 2123, Note_on_c, 1, 73, 127
2, 2805, Note_off_c, 1, 73, 127
2, 2805, Note_off_c, 11, 70, 127
2, 2805, Note_off_c, 5, 65, 127
2, 2805, Note_off_c, 11, 58, 127
2, 2805, Note_off_c, 1, 61, 127
2, 2809, Note_on_c, 11, 58, 127
2, 2809, Note_on_c, 3, 63, 127
2, 2809, Note_on_c, 6, 66, 127
2, 2809, Note_on_c, 1, 73, 127
2, 2809, Note_on_c, 11, 70, 127
2, 3491, Note_off_c, 11, 70, 127
2, 3491, Note_off_c, 1, 73, 127
2, 3491, Note_off_c, 11, 58, 127
2, 3496, Note_on_c, 11, 58, 127
2, 3496, Note_on_c, 10, 69, 127
2, 3496, Note_on_c, 0, 72, 127
2, 3910, Note_off_c, 0, 72, 127
2, 3910, Note_off_c, 10, 69, 127
2, 3911, Note_on_c, 11, 70, 127
2, 3911, Note_on_c, 1, 73, 127
2, 4175, Note_off_c, 1, 73, 127
2, 4175, Note_off_c, 11, 70, 127
2, 4178, Note_off_c, 11, 58, 127
2, 4182, Note_on_c, 11, 58, 127
2, 4182, Note_on_c, 0, 72, 127
2, 4182, Note_on_c, 3, 75, 127
2, 4864, Note_off_c, 3, 75, 127
2, 4864, Note_off_c, 0, 72, 127
2, 4864, Note_off_c, 11, 58, 127
2, 4864, Note_off_c, 6, 66, 127
2, 4864, Note_off_c, 3, 63, 127
2, 4870, Note_on_c, 11, 58, 127
2, 4870, Note_on_c, 6, 66, 127
2, 4870, Note_on_c, 3, 63, 127
2, 4870, Note_on_c, 0, 60, 127
2, 4870, Note_on_c, 0, 72, 127
2, 4870, Note_on_c, 10, 69, 127
2, 4870, Note_on_c, 3, 75, 127
2, 5552, Note_off_c, 3, 75, 127
2, 5552, Note_off_c, 10, 69, 127
2, 5552, Note_off_c, 0, 72, 127
2, 5552, Note_off_c, 0, 60, 127
2, 5552, Note_off_c, 3, 63, 127
2, 5552, Note_off_c, 6, 66, 127
2, 5552, Note_off_c, 11, 58, 127
2, 5556, Note_on_c, 11, 58, 127
2, 5556, Note_on_c, 5, 65, 127
2, 5556, Note_on_c, 1, 61, 127
2, 5556, Note_on_c, 3, 75, 127
2, 5556, Note_on_c, 0, 72, 127
2, 6238, Note_off_c, 0, 72, 127
2, 6238, Note_off_c, 3, 75, 127
2, 6238, Note_off_c, 11, 58, 127
2, 6242, Note_on_c, 11, 58, 127
2, 6242, Note_on_c, 11, 70, 127
2, 6242, Note_on_c, 1, 73, 127
2, 6656, Note_off_c, 1, 73, 127
2, 6656, Note_off_c, 11, 70, 127
2, 6658, Note_on_c, 0, 72, 127
2, 6658, Note_on_c, 3, 75, 127
2, 6922, Note_off_c, 3, 75, 127
2, 6922, Note_off_c, 0, 72, 127
2, 6924, Note_off_c, 11, 58, 127
2, 6929, Note_on_c, 11, 58, 127
2, 6929, Note_on_c, 5, 77, 127
2, 6929, Note_on_c, 1, 73, 127
2, 7611, Note_off_c, 1, 73, 127
2, 7611, Note_off_c, 5, 77, 127
2, 7611, Note_off_c, 11, 58, 127
2, 7611, Note_off_c, 1, 61, 127
2, 7611, Note_off_c, 5, 65, 127
2, 7615, Note_on_c, 11, 58, 127
2, 7615, Note_on_c, 1, 61, 127
2, 7615, Note_on_c, 5, 65, 127
2, 7615, Note_on_c, 1, 73, 127
2, 7615, Note_on_c, 11, 70, 127
2, 7615, Note_on_c, 5, 77, 127
2, 8297, Note_off_c, 5, 77, 127
2, 8297, Note_off_c, 11, 70, 127
2, 8297, Note_off_c, 1, 73, 127
2, 8297, Note_off_c, 5, 65, 127
2, 8297, Note_off_c, 1, 61, 127
2, 8297, Note_off_c, 11, 58, 127
2, 8302, Note_on_c, 11, 58, 127
2, 8302, Note_on_c, 0, 60, 127
2, 8302, Note_on_c, 1, 73, 127
2, 8302, Note_on_c, 10, 69, 127
2, 8302, Note_on_c, 5, 77, 127
2, 8984, Note_off_c, 5, 77, 127
2, 8984, Note_off_c, 1, 73, 127
2, 8984, Note_off_c, 11, 58, 127
2, 8989, Note_on_c, 11, 58, 127
2, 8989, Note_on_c, 0, 72, 127
2, 8989, Note_on_c, 3, 75, 127
2, 9403, Note_off_c, 3, 75, 127
2, 9403, Note_off_c, 0, 72, 127
2, 9403, Note_on_c, 5, 77, 127
2, 9403, Note_on_c, 1, 73, 127
2, 9667, Note_off_c, 1, 73, 127
2, 9667, Note_off_c, 5, 77, 127
2, 9671, Note_off_c, 11, 58, 127
2, 9676, Note_on_c, 11, 58, 127
2, 9676, Note_on_c, 3, 75, 127
2, 9676, Note_on_c, 6, 78, 127
2, 10357, Note_off_c, 10, 69, 127
2, 10357, Note_off_c, 0, 60, 127
2, 10358, Note_off_c, 6, 78, 127
2, 10358, Note_off_c, 3, 75, 127
2, 10358, Note_off_c, 11, 58, 127
2, 10362, Note_on_c, 0, 60, 127
2, 10362, Note_on_c, 11, 58, 127
2, 10362, Note_on_c, 10, 69, 127
2, 10362, Note_on_c, 6, 78, 127
2, 10362, Note_on_c, 3, 75, 127
2, 11044, Note_off_c, 3, 75, 127
2, 11044, Note_off_c, 6, 78, 127
2, 11044, Note_off_c, 10, 69, 127
2, 11044, Note_off_c, 11, 58, 127
2, 11044, Note_off_c, 0, 60, 127
2, 11048, Note_on_c, 11, 58, 127
2, 11048, Note_on_c, 3, 75, 127
2, 11048, Note_on_c, 11, 70, 127
2, 11048, Note_on_c, 6, 78, 127
2, 11730, Note_off_c, 6, 78, 127
2, 11730, Note_off_c, 3, 75, 127
2, 11730, Note_off_c, 11, 58, 127
2, 11735, Note_on_c, 11, 58, 127
2, 11735, Note_on_c, 5, 77, 127
2, 11735, Note_on_c, 1, 73, 127
2, 12116, Note_off_c, 5, 77, 127
2, 12116, Note_on_c, 0, 60, 127
2, 12116, Note_on_c, 3, 75, 127
2, 12134, Note_off_c, 11, 58, 127
2, 12414, Note_off_c, 3, 75, 127
2, 12414, Note_off_c, 0, 60, 127
2, 12421, Note_on_c, 1, 61, 127
2, 12421, Note_on_c, 5, 77, 127
2, 13093, Note_off_c, 1, 73, 127
2, 13103, Note_off_c, 5, 77, 127
2, 13103, Note_off_c, 1, 61, 127
2, 13103, Note_off_c, 11, 70, 127
2, 13109, Note_on_c, 1, 61, 127
2, 13109, Note_on_c, 1, 73, 127
2, 13109, Note_on_c, 5, 77, 127
2, 13109, Note_on_c, 11, 70, 127
2, 13791, Note_off_c, 11, 70, 127
2, 13791, Note_off_c, 5, 77, 127
2, 13791, Note_off_c, 1, 61, 127
2, 13795, Note_on_c, 1, 61, 127
2, 13795, Note_on_c, 11, 70, 127
2, 13795, Note_on_c, 7, 67, 127
2, 13795, Note_on_c, 5, 77, 127
2, 14467, Note_off_c, 1, 73, 127
2, 14477, Note_off_c, 5, 77, 127
2, 14477, Note_off_c, 7, 67, 127
2, 14477, Note_off_c, 1, 61, 127
2, 14482, Note_on_c, 0, 60, 127
2, 14482, Note_on_c, 6, 66, 127
2, 14482, Note_on_c, 3, 75, 127
2, 14834, Note_on_c, 1, 61, 127
2, 14834, Note_on_c, 1, 73, 127
2, 14836, Note_off_c, 3, 75, 127
2, 14836, Note_off_c, 0, 60, 127
2, 15164, Note_off_c, 1, 73, 127
2, 15164, Note_off_c, 1, 61, 127
2, 15168, Note_on_c, 3, 63, 127
2, 15168, Note_on_c, 0, 72, 127
2, 15840, Note_off_c, 6, 66, 127
2, 15850, Note_off_c, 0, 72, 127
2, 15850, Note_off_c, 3, 63, 127
2, 15850, Note_off_c, 11, 70, 127
2, 15854, Note_on_c, 3, 63, 127
2, 15854, Note_on_c, 11, 70, 127
2, 15854, Note_on_c, 6, 66, 127
2, 15854, Note_on_c, 1, 73, 127
2, 16213, Note_off_c, 1, 73, 127
2, 16214, Note_on_c, 3, 75, 127
2, 16536, Note_off_c, 6, 66, 127
2, 16536, Note_off_c, 11, 70, 127
2, 16536, Note_off_c, 3, 63, 127
2, 16544, Note_off_c, 3, 75, 127
2, 16547, Note_on_c, 10, 69, 127
2, 16547, Note_on_c, 3, 63, 127
2, 16547, Note_on_c, 5, 65, 127
2, 17244, Note_on_c, 11, 70, 127
2, 17244, Note_on_c, 5, 77, 127
2, 17244, Note_on_c, 1, 61, 127
2, 17247, Note_off_c, 5, 65, 127
2, 17247, Note_off_c, 3, 63, 127
2, 17247, Note_off_c, 10, 69, 127
2, 17643, Note_off_c, 1, 61, 127
2, 17643, Note_off_c, 11, 70, 127
2, 17644, Note_on_c, 0, 72, 127
2, 17644, Note_on_c, 3, 63, 127
2, 17922, Note_off_c, 3, 63, 127
2, 17922, Note_off_c, 0, 72, 127
2, 17931, Note_on_c, 1, 73, 127
2, 17931, Note_on_c, 5, 65, 127
2, 18602, Note_off_c, 5, 77, 127
2, 18613, Note_off_c, 5, 65, 127
2, 18617, Note_on_c, 7, 79, 127
2, 18617, Note_on_c, 5, 65, 127
2, 18989, Note_on_c, 10, 81, 127
2, 18991, Note_off_c, 7, 79, 127
2, 19296, Note_off_c, 10, 81, 127
2, 19299, Note_off_c, 5, 65, 127
2, 19304, Note_on_c, 11, 82, 127
2, 19304, Note_on_c, 5, 65, 127
2, 19304, Note_on_c, 6, 66, 127
2, 19986, Note_off_c, 5, 65, 127
2, 19986, Note_off_c, 1, 73, 127
2, 19990, Note_on_c, 0, 72, 127
2, 19990, Note_on_c, 3, 63, 127
2, 20389, Note_off_c, 3, 63, 127
2, 20389, Note_off_c, 0, 72, 127
2, 20391, Note_on_c, 1, 73, 127
2, 20391, Note_on_c, 1, 61, 127
2, 20669, Note_off_c, 1, 61, 127
2, 20669, Note_off_c, 1, 73, 127
2, 20676, Note_on_c, 3, 75, 127
2, 20676, Note_on_c, 0, 60, 127
2, 21358, Note_off_c, 0, 60, 127
2, 21359, Note_off_c, 11, 82, 127
2, 21363, Note_on_c, 10, 81, 127
2, 21363, Note_on_c, 11, 58, 127
2, 21728, Note_on_c, 11, 82, 127
2, 21730, Note_off_c, 10, 81, 127
2, 22042, Note_off_c, 11, 82, 127
2, 22045, Note_off_c, 11, 58, 127
2, 22050, Note_on_c, 0, 84, 127
2, 22050, Note_on_c, 10, 57, 127
2, 22731, Note_off_c, 3, 75, 127
2, 22737, Note_on_c, 3, 75, 127
2, 22737, Note_on_c, 6, 78, 127
2, 23129, Note_off_c, 6, 78, 127
2, 23129, Note_off_c, 3, 75, 127
2, 23130, Note_on_c, 5, 77, 127
2, 23130, Note_on_c, 1, 73, 127
2, 23415, Note_off_c, 1, 73, 127
2, 23415, Note_off_c, 5, 77, 127
2, 23416, Note_off_c, 6, 66, 127
2, 23423, Note_on_c, 3, 75, 127
2, 23423, Note_on_c, 0, 72, 127
2, 23766, Note_off_c, 10, 57, 127
2, 24105, Note_off_c, 0, 84, 127
2, 24110, Note_on_c, 0, 84, 127
2, 24110, Note_on_c, 10, 57, 127
2, 24502, Note_off_c, 10, 57, 127
2, 24502, Note_off_c, 0, 84, 127
2, 24503, Note_on_c, 11, 82, 127
2, 24503, Note_on_c, 11, 58, 127
2, 24788, Note_off_c, 11, 58, 127
2, 24788, Note_off_c, 11, 82, 127
2, 24796, Note_on_c, 10, 81, 127
2, 24796, Note_on_c, 0, 60, 127
2, 25478, Note_off_c, 0, 72, 127
2, 25478, Note_off_c, 3, 75, 127
2, 25482, Note_on_c, 0, 72, 127
2, 25482, Note_on_c, 3, 75, 127
2, 25874, Note_off_c, 3, 75, 127
2, 25874, Note_off_c, 0, 72, 127
2, 25876, Note_on_c, 11, 70, 127
2, 25876, Note_on_c, 1, 73, 127
2, 26161, Note_off_c, 1, 73, 127
2, 26161, Note_off_c, 11, 70, 127
2, 26170, Note_on_c, 10, 69, 127
2, 26170, Note_on_c, 0, 72, 127
2, 26512, Note_off_c, 0, 60, 127
2, 26851, Note_off_c, 10, 81, 127
2, 26856, Note_on_c, 10, 81, 127
2, 26856, Note_on_c, 0, 60, 127
2, 27236, Note_on_c, 1, 61, 127
2, 27236, Note_on_c, 0, 84, 127
2, 27237, Note_off_c, 0, 60, 127
2, 27237, Note_off_c, 10, 81, 127
2, 27536, Note_off_c, 0, 84, 127
2, 27536, Note_off_c, 1, 61, 127
2, 27543, Note_on_c, 5, 77, 127
2, 27543, Note_on_c, 3, 63, 127
2, 28225, Note_off_c, 0, 72, 127
2, 28225, Note_off_c, 10, 69, 127
2, 28229, Note_on_c, 5, 65, 127
2, 28229, Note_on_c, 10, 69, 127
2, 28621, Note_off_c, 10, 69, 127
2, 28621, Note_off_c, 5, 65, 127
2, 28623, Note_on_c, 11, 70, 127
2, 28623, Note_on_c, 7, 67, 127
2, 28908, Note_off_c, 7, 67, 127
2, 28908, Note_off_c, 11, 70, 127
2, 28916, Note_on_c, 10, 69, 127
2, 28916, Note_on_c, 0, 72, 127
2, 29598, Note_off_c, 0, 72, 127
2, 29598, Note_off_c, 3, 63, 127
2, 29602, Note_on_c, 0, 72, 127
2, 29602, Note_on_c, 3, 63, 127
2, 29994, Note_off_c, 3, 63, 127
2, 29994, Note_off_c, 0, 72, 127
2, 29996, Note_on_c, 1, 73, 127
2, 29996, Note_on_c, 1, 61, 127
2, 30281, Note_off_c, 1, 61, 127
2, 30281, Note_off_c, 1, 73, 127
2, 30290, Note_on_c, 3, 75, 127
2, 30290, Note_on_c, 0, 60, 127
2, 30971, Note_off_c, 10, 69, 127
2, 30972, Note_off_c, 0, 60, 127
2, 30972, Note_off_c, 3, 75, 127
2, 30976, Note_on_c, 0, 72, 127
2, 30976, Note_on_c, 10, 69, 127
2, 30976, Note_on_c, 0, 60, 127
2, 31368, Note_off_c, 0, 60, 127
2, 31368, Note_off_c, 10, 69, 127
2, 31368, Note_off_c, 0, 72, 127
2, 31370, Note_on_c, 1, 73, 127
2, 31370, Note_on_c, 11, 70, 127
2, 31370, Note_on_c, 11, 58, 127
2, 31655, Note_off_c, 11, 58, 127
2, 31655, Note_off_c, 11, 70, 127
2, 31655, Note_off_c, 1, 73, 127
2, 31662, Note_on_c, 0, 72, 127
2, 31662, Note_on_c, 3, 75, 127
2, 31662, Note_on_c, 10, 57, 127
2, 32344, Note_off_c, 10, 57, 127
2, 32344, Note_off_c, 0, 72, 127
2, 32349, Note_on_c, 10, 69, 127
2, 32349, Note_on_c, 7, 55, 127
2, 32714, Note_on_c, 5, 53, 127
2, 32716, Note_off_c, 7, 55, 127
2, 33028, Note_off_c, 5, 53, 127
2, 33028, Note_off_c, 10, 69, 127
2, 33035, Note_on_c, 5, 65, 127
2, 33035, Note_on_c, 11, 58, 127
2, 33693, Note_off_c, 5, 77, 127
2, 33717, Note_off_c, 3, 75, 127
2, 33722, Note_on_c, 1, 73, 127
2, 33722, Note_on_c, 5, 77, 127
2, 34114, Note_off_c, 5, 77, 127
2, 34114, Note_off_c, 1, 73, 127
2, 34115, Note_on_c, 3, 75, 127
2, 34115, Note_on_c, 0, 72, 127
2, 34400, Note_off_c, 0, 72, 127
2, 34400, Note_off_c, 3, 75, 127
2, 34409, Note_on_c, 1, 73, 127
2, 34409, Note_on_c, 11, 70, 127
2, 35090, Note_off_c, 5, 65, 127
2, 35091, Note_off_c, 11, 70, 127
2, 35091, Note_off_c, 1, 73, 127
2, 35096, Note_on_c, 3, 75, 127
2, 35096, Note_on_c, 10, 69, 127
2, 35096, Note_on_c, 6, 66, 127
2, 35457, Note_on_c, 0, 72, 127
2, 35457, Note_on_c, 3, 63, 127
2, 35459, Note_off_c, 6, 66, 127
2, 35459, Note_off_c, 3, 75, 127
2, 35776, Note_off_c, 10, 69, 127
2, 35777, Note_off_c, 11, 58, 127
2, 35785, Note_off_c, 3, 63, 127
2, 35785, Note_off_c, 0, 72, 127
2, 35798, Note_on_c, 5, 65, 127
2, 35798, Note_on_c, 11, 58, 127
2, 35798, Note_on_c, 1, 73, 127
2, 35798, Note_on_c, 11, 70, 127
2, 36518, Note_off_c, 11, 70, 127
2, 36518, Note_off_c, 11, 58, 127
2, 36518, Note_off_c, 5, 65, 127
2, 36532, Note_on_c, 11, 70, 127
2, 36532, Note_on_c, 1, 61, 127
2, 36898, Note_off_c, 1, 73, 127
2, 36924, Note_off_c, 1, 61, 127
2, 36924, Note_off_c, 11, 70, 127
2, 36926, Note_on_c, 0, 72, 127
2, 36926, Note_on_c, 0, 60, 127
2, 37211, Note_off_c, 0, 60, 127
2, 37211, Note_off_c, 0, 72, 127
2, 37219, Note_on_c, 1, 73, 127
2, 37219, Note_on_c, 11, 58, 127
2, 37901, Note_off_c, 11, 58, 127
2, 37901, Note_off_c, 1, 73, 127
2, 37905, Note_on_c, 1, 73, 127
2, 37905, Note_on_c, 5, 65, 127
2, 37905, Note_on_c, 11, 70, 127
2, 37905, Note_on_c, 8, 56, 127
2, 38587, Note_off_c, 8, 56, 127
2, 38587, Note_off_c, 11, 70, 127
2, 38587, Note_off_c, 5, 65, 127
2, 38587, Note_off_c, 1, 73, 127
2, 38592, Note_on_c, 1, 73, 127
2, 38592, Note_on_c, 11, 70, 127
2, 38592, Note_on_c, 3, 63, 127
2, 38592, Note_on_c, 7, 55, 127
2, 39274, Note_off_c, 7, 55, 127
2, 39274, Note_off_c, 3, 63, 127
2, 39274, Note_off_c, 11, 70, 127
2, 39274, Note_off_c, 1, 73, 127
2, 39279, Note_on_c, 0, 72, 127
2, 39279, Note_on_c, 3, 63, 127
2, 39279, Note_on_c, 8, 68, 127
2, 39279, Note_on_c, 8, 56, 127
2, 39693, Note_off_c, 8, 56, 127
2, 39693, Note_off_c, 0, 72, 127
2, 39693, Note_on_c, 7, 55, 127
2, 39693, Note_on_c, 11, 70, 127
2, 39957, Note_off_c, 11, 70, 127
2, 39957, Note_off_c, 7, 55, 127
2, 39966, Note_on_c, 0, 72, 127
2, 39966, Note_on_c, 5, 53, 127
2, 40637, Note_off_c, 8, 68, 127
2, 40637, Note_off_c, 3, 63, 127
2, 40648, Note_off_c, 5, 53, 127
2, 40648, Note_off_c, 0, 72, 127
2, 40652, Note_on_c, 5, 65, 127
2, 40652, Note_on_c, 8, 68, 127
2, 40652, Note_on_c, 0, 72, 127
2, 40652, Note_on_c, 3, 51, 127
2, 41334, Note_off_c, 3, 51, 127
2, 41334, Note_off_c, 0, 72, 127
2, 41334, Note_off_c, 8, 68, 127
2, 41334, Note_off_c, 5, 65, 127
2, 41338, Note_on_c, 0, 72, 127
2, 41338, Note_on_c, 5, 65, 127
2, 41338, Note_on_c, 8, 68, 127
2, 41338, Note_on_c, 2, 50, 127
2, 42020, Note_off_c, 2, 50, 127
2, 42020, Note_off_c, 8, 68, 127
2, 42020, Note_off_c, 5, 65, 127
2, 42020, Note_off_c, 0, 72, 127
2, 42025, Note_on_c, 5, 65, 127
2, 42025, Note_on_c, 7, 67, 127
2, 42025, Note_on_c, 11, 70, 127
2, 42025, Note_on_c, 7, 55, 127
2, 42417, Note_off_c, 7, 55, 127
2, 42417, Note_off_c, 11, 70, 127
2, 42418, Note_on_c, 8, 68, 127
2, 42418, Note_on_c, 5, 53, 127
2, 42703, Note_off_c, 5, 53, 127
2, 42703, Note_off_c, 8, 68, 127
2, 42711, Note_on_c, 11, 70, 127
2, 42711, Note_on_c, 4, 52, 127
2, 43383, Note_off_c, 7, 67, 127
2, 43383, Note_off_c, 5, 65, 127
2, 43393, Note_off_c, 4, 52, 127
2, 43393, Note_off_c, 11, 70, 127
2, 43399, Note_on_c, 7, 67, 127
2, 43399, Note_on_c, 5, 65, 127
2, 43399, Note_on_c, 11, 70, 127
2, 43399, Note_on_c, 7, 55, 127
2, 44081, Note_off_c, 7, 55, 127
2, 44081, Note_off_c, 11, 70, 127
2, 44081, Note_off_c, 5, 65, 127
2, 44081, Note_off_c, 7, 67, 127
2, 44085, Note_on_c, 7, 67, 127
2, 44085, Note_on_c, 11, 70, 127
2, 44085, Note_on_c, 4, 64, 127
2, 44085, Note_on_c, 0, 48, 127
2, 44767, Note_off_c, 0, 48, 127
2, 44767, Note_off_c, 4, 64, 127
2, 44767, Note_off_c, 11, 70, 127
2, 44767, Note_off_c, 7, 67, 127
2, 44772, Note_on_c, 0, 60, 127
2, 44772, Note_on_c, 5, 65, 127
2, 44772, Note_on_c, 8, 68, 127
2, 44772, Note_on_c, 5, 53, 127
2, 45164, Note_off_c, 5, 53, 127
2, 45164, Note_off_c, 8, 68, 127
2, 45165, Note_on_c, 7, 67, 127
2, 45165, Note_on_c, 3, 51, 127
2, 45450, Note_off_c, 3, 51, 127
2, 45450, Note_off_c, 7, 67, 127
2, 45458, Note_on_c, 8, 68, 127
2, 45458, Note_on_c, 1, 49, 127
2, 46130, Note_off_c, 5, 65, 127
2, 46130, Note_off_c, 0, 60, 127
2, 46140, Note_off_c, 1, 49, 127
2, 46140, Note_off_c, 8, 68, 127
2, 46144, Note_on_c, 0, 60, 127
2, 46144, Note_on_c, 5, 65, 127
2, 46144, Note_on_c, 8, 68, 127
2, 46144, Note_on_c, 0, 48, 127
2, 46826, Note_off_c, 0, 48, 127
2, 46826, Note_off_c, 8, 68, 127
2, 46826, Note_off_c, 5, 65, 127
2, 46826, Note_off_c, 0, 60, 127
2, 46831, Note_on_c, 8, 68, 127
2, 46831, Note_on_c, 1, 61, 127
2, 46831, Note_on_c, 5, 65, 127
2, 46831, Note_on_c, 11, 46, 127
2, 47513, Note_off_c, 11, 46, 127
2, 47513, Note_off_c, 5, 65, 127
2, 47513, Note_off_c, 1, 61, 127
2, 47513, Note_off_c, 8, 68, 127
2, 47518, Note_on_c, 7, 67, 127
2, 47518, Note_on_c, 1, 61, 127
2, 47518, Note_on_c, 11, 46, 127
2, 47518, Note_on_c, 11, 58, 127
2, 47880, Note_on_c, 8, 68, 127
2, 47882, Note_off_c, 7, 67, 127
2, 48197, Note_off_c, 8, 68, 127
2, 48200, Note_off_c, 11, 46, 127
2, 48205, Note_on_c, 11, 70, 127
2, 48205, Note_on_c, 11, 46, 127
2, 48876, Note_off_c, 11, 58, 127
2, 48876, Note_off_c, 1, 61, 127
2, 48887, Note_off_c, 11, 46, 127
2, 48887, Note_off_c, 11, 70, 127
2, 48891, Note_on_c, 1, 61, 127
2, 48891, Note_on_c, 7, 67, 127
2, 48891, Note_on_c, 11, 58, 127
2, 48891, Note_on_c, 11, 46, 127
2, 49573, Note_off_c, 11, 46, 127
2, 49573, Note_off_c, 11, 58, 127
2, 49573, Note_off_c, 7, 67, 127
2, 49573, Note_off_c, 1, 61, 127
2, 49586, Note_on_c, 0, 60, 127
2, 49586, Note_on_c, 4, 64, 127
2, 49586, Note_on_c, 7, 55, 127
2, 49586, Note_on_c, 11, 46, 127
2, 50268, Note_off_c, 11, 46, 127
2, 50268, Note_off_c, 7, 55, 127
2, 50268, Note_off_c, 4, 64, 127
2, 50268, Note_off_c, 0, 60, 127
2, 50280, Note_on_c, 5, 65, 127
2, 50280, Note_on_c, 0, 72, 127
2, 50280, Note_on_c, 8, 44, 127
2, 50280, Note_on_c, 8, 56, 127
2, 50643, Note_off_c, 5, 65, 127
2, 50645, Note_on_c, 4, 64, 127
2, 50959, Note_off_c, 4, 64, 127
2, 50962, Note_off_c, 8, 44, 127
2, 50966, Note_on_c, 5, 65, 127
2, 50966, Note_on_c, 1, 49, 127
2, 51638, Note_off_c, 8, 56, 127
2, 51638, Note_off_c, 0, 72, 127
2, 51648, Note_off_c, 1, 49, 127
2, 51648, Note_off_c, 5, 65, 127
2, 51654, Note_on_c, 5, 65, 127
2, 51654, Note_on_c, 11, 70, 127
2, 51654, Note_on_c, 7, 55, 127
2, 51654, Note_on_c, 1, 49, 127
2, 52036, Note_off_c, 11, 70, 127
2, 52036, Note_on_c, 8, 68, 127
2, 52046, Note_off_c, 7, 55, 127
2, 52046, Note_on_c, 5, 53, 127
2, 52331, Note_off_c, 5, 53, 127
2, 52331, Note_off_c, 8, 68, 127
2, 52333, Note_off_c, 1, 49, 127
2, 52333, Note_off_c, 5, 65, 127
2, 52340, Note_on_c, 5, 65, 127
2, 52340, Note_on_c, 11, 70, 127
2, 52340, Note_on_c, 1, 49, 127
2, 52340, Note_on_c, 7, 55, 127
2, 53022, Note_off_c, 7, 55, 127
2, 53022, Note_off_c, 1, 49, 127
2, 53022, Note_off_c, 11, 70, 127
2, 53022, Note_off_c, 5, 65, 127
2, 53027, Note_on_c, 4, 64, 127
2, 53027, Note_on_c, 11, 70, 127
2, 53027, Note_on_c, 7, 55, 127
2, 53027, Note_on_c, 0, 48, 127
2, 53388, Note_on_c, 2, 62, 127
2, 53388, Note_on_c, 11, 46, 127
2, 53390, Note_off_c, 0, 48, 127
2, 53390, Note_off_c, 4, 64, 127
2, 53702, Note_off_c, 11, 46, 127
2, 53706, Note_off_c, 2, 62, 127
2, 53706, Note_off_c, 7, 55, 127
2, 53713, Note_on_c, 4, 64, 127
2, 53713, Note_on_c, 7, 55, 127
2, 53713, Note_on_c, 0, 48, 127
2, 54385, Note_off_c, 11, 70, 127
2, 54395, Note_off_c, 0, 48, 127
2, 54395, Note_off_c, 7, 55, 127
2, 54395, Note_off_c, 4, 64, 127
2, 54400, Note_on_c, 0, 60, 127
2, 54400, Note_on_c, 8, 68, 127
2, 54400, Note_on_c, 4, 64, 127
2, 54400, Note_on_c, 0, 48, 127
2, 54792, Note_off_c, 8, 68, 127
2, 54793, Note_on_c, 7, 67, 127
2, 55078, Note_off_c, 7, 67, 127
2, 55079, Note_off_c, 4, 64, 127
2, 55079, Note_off_c, 0, 60, 127
2, 55082, Note_off_c, 0, 48, 127
2, 55086, Note_on_c, 0, 60, 127
2, 55086, Note_on_c, 8, 68, 127
2, 55086, Note_on_c, 4, 64, 127
2, 55086, Note_on_c, 0, 48, 127
2, 55768, Note_off_c, 0, 48, 127
2, 55768, Note_off_c, 4, 64, 127
2, 55768, Note_off_c, 8, 68, 127
2, 55768, Note_off_c, 0, 60, 127
2, 55772, Note_on_c, 5, 65, 127
2, 55772, Note_on_c, 8, 68, 127
2, 55772, Note_on_c, 0, 60, 127
2, 55772, Note_on_c, 5, 41, 127
2, 56139, Note_off_c, 5, 65, 127
2, 56141, Note_on_c, 3, 63, 127
2, 56451, Note_off_c, 3, 63, 127
2, 56451, Note_off_c, 0, 60, 127
2, 56454, Note_off_c, 5, 41, 127
2, 56460, Note_on_c, 1, 61, 127
2, 56460, Note_on_c, 11, 46, 127
2, 57130, Note_off_c, 8, 68, 127
2, 57142, Note_off_c, 11, 46, 127
2, 57142, Note_off_c, 1, 61, 127
2, 57146, Note_on_c, 6, 66, 127
2, 57146, Note_on_c, 1, 61, 127
2, 57146, Note_on_c, 11, 58, 127
2, 57146, Note_on_c, 11, 46, 127
2, 57538, Note_off_c, 11, 58, 127
2, 57538, Note_off_c, 6, 66, 127
2, 57540, Note_on_c, 5, 65, 127
2, 57540, Note_on_c, 10, 57, 127
2, 57825, Note_off_c, 10, 57, 127
2, 57825, Note_off_c, 5, 65, 127
2, 57825, Note_off_c, 11, 46, 127
2, 57825, Note_off_c, 1, 61, 127
2, 57833, Note_on_c, 6, 66, 127
2, 57833, Note_on_c, 1, 61, 127
2, 57833, Note_on_c, 11, 46, 127
2, 57833, Note_on_c, 11, 58, 127
2, 58515, Note_off_c, 11, 58, 127
2, 58515, Note_off_c, 11, 46, 127
2, 58515, Note_off_c, 1, 61, 127
2, 58515, Note_off_c, 6, 66, 127
2, 58519, Note_on_c, 11, 70, 127
2, 58519, Note_on_c, 1, 73, 127
2, 58519, Note_on_c, 6, 54, 127
2, 58519, Note_on_c, 11, 46, 127
2, 58911, Note_off_c, 6, 54, 127
2, 58911, Note_off_c, 11, 70, 127
2, 58913, Note_on_c, 10, 69, 127
2, 58913, Note_on_c, 5, 53, 127
2, 59198, Note_off_c, 5, 53, 127
2, 59198, Note_off_c, 10, 69, 127
2, 59198, Note_off_c, 11, 46, 127
2, 59206, Note_on_c, 11, 70, 127
2, 59206, Note_on_c, 11, 46, 127
2, 59206, Note_on_c, 6, 54, 127
2, 59877, Note_off_c, 1, 73, 127
2, 59888, Note_off_c, 11, 46, 127
2, 59892, Note_on_c, 0, 72, 127
2, 59892, Note_on_c, 11, 46, 127
2, 60253, Note_off_c, 11, 70, 127
2, 60264, Note_on_c, 11, 70, 127
2, 60266, Note_off_c, 0, 72, 127
2, 60564, Note_off_c, 6, 54, 127
2, 60571, Note_off_c, 11, 70, 127
2, 60574, Note_off_c, 11, 46, 127
2, 60580, Note_on_c, 0, 72, 127
2, 60580, Note_on_c, 4, 76, 127
2, 60580, Note_on_c, 7, 55, 127
2, 60580, Note_on_c, 11, 46, 127
2, 61272, Note_off_c, 11, 46, 127
2, 61272, Note_off_c, 7, 55, 127
2, 61272, Note_off_c, 4, 76, 127
2, 61272, Note_off_c, 0, 72, 127
2, 61282, Note_on_c, 8, 44, 127
2, 61282, Note_on_c, 8, 56, 127
2, 61282, Note_on_c, 0, 72, 127
2, 61282, Note_on_c, 5, 65, 127
2, 61674, Note_off_c, 5, 65, 127
2, 61674, Note_off_c, 8, 56, 127
2, 61676, Note_on_c, 7, 55, 127
2, 61676, Note_on_c, 7, 67, 127
2, 61961, Note_off_c, 7, 67, 127
2, 61961, Note_off_c, 7, 55, 127
2, 61961, Note_off_c, 0, 72, 127
2, 61961, Note_off_c, 8, 44, 127
2, 61968, Note_on_c, 1, 49, 127
2, 61968, Note_on_c, 5, 53, 127
2, 61968, Note_on_c, 8, 68, 127
2, 61968, Note_on_c, 5, 77, 127
2, 62650, Note_off_c, 8, 68, 127
2, 62650, Note_off_c, 1, 49, 127
2, 62655, Note_on_c, 0, 48, 127
2, 62655, Note_on_c, 0, 72, 127
2, 62655, Note_on_c, 8, 68, 127
2, 63337, Note_off_c, 8, 68, 127
2, 63337, Note_off_c, 0, 72, 127
2, 63337, Note_off_c, 0, 48, 127
2, 63341, Note_on_c, 11, 46, 127
2, 63341, Note_on_c, 1, 73, 127
2, 63341, Note_on_c, 8, 68, 127
2, 64023, Note_off_c, 8, 68, 127
2, 64023, Note_off_c, 1, 73, 127
2, 64023, Note_off_c, 11, 46, 127
2, 64023, Note_off_c, 5, 53, 127
2, 64028, Note_on_c, 4, 52, 127
2, 64028, Note_on_c, 1, 49, 127
2, 64028, Note_on_c, 11, 70, 127
2, 64028, Note_on_c, 7, 67, 127
2, 64420, Note_off_c, 7, 67, 127
2, 64420, Note_off_c, 4, 52, 127
2, 64421, Note_on_c, 5, 53, 127
2, 64421, Note_on_c, 8, 68, 127
2, 64706, Note_off_c, 8, 68, 127
2, 64706, Note_off_c, 5, 53, 127
2, 64707, Note_off_c, 11, 70, 127
2, 64707, Note_off_c, 1, 49, 127
2, 64710, Note_off_c, 5, 77, 127
2, 64715, Note_on_c, 7, 55, 127
2, 64715, Note_on_c, 0, 48, 127
2, 64715, Note_on_c, 11, 70, 127
2, 64715, Note_on_c, 4, 76, 127
2, 65397, Note_off_c, 4, 76, 127
2, 65397, Note_off_c, 11, 70, 127
2, 65397, Note_off_c, 0, 48, 127
2, 65397, Note_off_c, 7, 55, 127
2, 65402, Note_on_c, 0, 48, 127
2, 65402, Note_on_c, 7, 55, 127
2, 65402, Note_on_c, 0, 72, 127
2, 65402, Note_on_c, 11, 70, 127
2, 66084, Note_off_c, 11, 70, 127
2, 66084, Note_off_c, 0, 72, 127
2, 66084, Note_off_c, 7, 55, 127
2, 66084, Note_off_c, 0, 48, 127
2, 66088, Note_on_c, 5, 41, 127
2, 66088, Note_on_c, 5, 53, 127
2, 66088, Note_on_c, 11, 70, 127
2, 66088, Note_on_c, 0, 72, 127
2, 66088, Note_on_c, 5, 77, 127
2, 66770, Note_off_c, 0, 72, 127
2, 66770, Note_off_c, 11, 70, 127
2, 66774, Note_on_c, 0, 72, 127
2, 66774, Note_on_c, 8, 68, 127
2, 67128, Note_on_c, 11, 70, 127
2, 67128, Note_on_c, 7, 67, 127
2, 67131, Note_off_c, 8, 68, 127
2, 67131, Note_off_c, 0, 72, 127
2, 67446, Note_off_c, 5, 41, 127
2, 67468, Note_off_c, 7, 67, 127
2, 67468, Note_off_c, 11, 70, 127
2, 67493, Note_on_c, 0, 72, 127
2, 67493, Note_on_c, 8, 68, 127
2, 68179, Note_off_c, 5, 77, 127
2, 68198, Note_off_c, 5, 53, 127
2, 68211, Note_on_c, 5, 53, 127
2, 68211, Note_on_c, 5, 77, 127
2, 68568, Note_off_c, 5, 77, 127
2, 68584, Note_on_c, 3, 75, 127
2, 68867, Note_off_c, 0, 72, 127
2, 68890, Note_off_c, 3, 75, 127
2, 68893, Note_off_c, 5, 53, 127
2, 68899, Note_on_c, 11, 58, 127
2, 68899, Note_on_c, 2, 74, 127
2, 69564, Note_off_c, 8, 68, 127
2, 69585, Note_on_c, 8, 68, 127
2, 69585, Note_on_c, 12, 71, 127
2, 69952, Note_off_c, 12, 71, 127
2, 69952, Note_off_c, 8, 68, 127
2, 69968, Note_on_c, 11, 70, 127
2, 69968, Note_on_c, 6, 66, 127
2, 70264, Note_off_c, 6, 66, 127
2, 70264, Note_off_c, 11, 70, 127
2, 70272, Note_on_c, 5, 65, 127
2, 70272, Note_on_c, 8, 68, 127
2, 70615, Note_off_c, 11, 58, 127
2, 70954, Note_off_c, 2, 74, 127
2, 70958, Note_on_c, 11, 58, 127
2, 70958, Note_on_c, 3, 75, 127
2, 71315, Note_off_c, 3, 75, 127
2, 71331, Note_on_c, 5, 77, 127
2, 71630, Note_off_c, 8, 68, 127
2, 71630, Note_off_c, 5, 65, 127
2, 71637, Note_off_c, 5, 77, 127
2, 71640, Note_off_c, 11, 58, 127
2, 71644, Note_on_c, 3, 51, 127
2, 71644, Note_on_c, 6, 78, 127
2, 72331, Note_on_c, 3, 63, 127
2, 72331, Note_on_c, 6, 66, 127
2, 72698, Note_off_c, 6, 66, 127
2, 72698, Note_off_c, 3, 63, 127
2, 72714, Note_on_c, 8, 68, 127
2, 72714, Note_on_c, 5, 65, 127
2, 73010, Note_off_c, 5, 65, 127
2, 73010, Note_off_c, 8, 68, 127
2, 73017, Note_on_c, 6, 66, 127
2, 73017, Note_on_c, 11, 70, 127
2, 73360, Note_off_c, 3, 51, 127
2, 73699, Note_off_c, 6, 78, 127
2, 73705, Note_on_c, 3, 51, 127
2, 73705, Note_on_c, 3, 75, 127
2, 74062, Note_off_c, 3, 75, 127
2, 74076, Note_on_c, 1, 73, 127
2, 74375, Note_off_c, 11, 70, 127
2, 74375, Note_off_c, 6, 66, 127
2, 74382, Note_off_c, 1, 73, 127
2, 74387, Note_off_c, 3, 51, 127
2, 74391, Note_on_c, 8, 56, 127
2, 74391, Note_on_c, 0, 72, 127
2, 75078, Note_on_c, 0, 60, 127
2, 75078, Note_on_c, 3, 63, 127
2, 75445, Note_off_c, 3, 63, 127
2, 75445, Note_off_c, 0, 60, 127
2, 75460, Note_on_c, 5, 65, 127
2, 75460, Note_on_c, 1, 61, 127
2, 75756, Note_off_c, 1, 61, 127
2, 75756, Note_off_c, 5, 65, 127
2, 75764, Note_on_c, 3, 63, 127
2, 75764, Note_on_c, 6, 66, 127
2, 76107, Note_off_c, 8, 56, 127
2, 76446, Note_off_c, 0, 72, 127
2, 76450, Note_on_c, 8, 56, 127
2, 76450, Note_on_c, 1, 73, 127
2, 76807, Note_off_c, 1, 73, 127
2, 76823, Note_on_c, 3, 75, 127
2, 77122, Note_off_c, 6, 66, 127
2, 77122, Note_off_c, 3, 63, 127
2, 77132, Note_off_c, 8, 56, 127
2, 77136, Note_off_c, 3, 75, 127
2, 77137, Note_on_c, 1, 49, 127
2, 77137, Note_on_c, 5, 77, 127
2, 77824, Note_on_c, 5, 65, 127
2, 77824, Note_on_c, 8, 68, 127
2, 78186, Note_on_c, 6, 66, 127
2, 78186, Note_on_c, 3, 63, 127
2, 78198, Note_off_c, 8, 68, 127
2, 78198, Note_off_c, 5, 65, 127
2, 78504, Note_off_c, 3, 63, 127
2, 78504, Note_off_c, 6, 66, 127
2, 78511, Note_on_c, 1, 61, 127
2, 78511, Note_on_c, 5, 65, 127
2, 79067, Note_off_c, 1, 49, 127
2, 79192, Note_off_c, 5, 77, 127
2, 79193, Note_off_c, 5, 65, 127
2, 79193, Note_off_c, 1, 61, 127
2, 79197, Note_on_c, 1, 49, 127
2, 79197, Note_on_c, 1, 61, 127
2, 79197, Note_on_c, 5, 65, 127
2, 79197, Note_on_c, 1, 73, 127
2, 79573, Note_off_c, 1, 73, 127
2, 79575, Note_on_c, 0, 72, 127
2, 79876, Note_off_c, 5, 65, 127
2, 79878, Note_off_c, 0, 72, 127
2, 79879, Note_off_c, 1, 61, 127
2, 79879, Note_off_c, 1, 49, 127
2, 79884, Note_on_c, 6, 54, 127
2, 79884, Note_on_c, 1, 61, 127
2, 79884, Note_on_c, 11, 70, 127
2, 79884, Note_on_c, 6, 66, 127
2, 80566, Note_off_c, 6, 66, 127
2, 80566, Note_off_c, 11, 70, 127
2, 80566, Note_off_c, 1, 61, 127
2, 80566, Note_off_c, 6, 54, 127
2, 80570, Note_on_c, 6, 54, 127
2, 80570, Note_on_c, 1, 61, 127
2, 80570, Note_on_c, 11, 70, 127
2, 80570, Note_on_c, 6, 66, 127
2, 80962, Note_off_c, 6, 54, 127
2, 80964, Note_on_c, 5, 53, 127
2, 81249, Note_off_c, 5, 53, 127
2, 81249, Note_off_c, 1, 61, 127
2, 81252, Note_off_c, 6, 66, 127
2, 81252, Note_off_c, 11, 70, 127
2, 81256, Note_on_c, 3, 51, 127
2, 81256, Note_on_c, 3, 63, 127
2, 81256, Note_on_c, 6, 78, 127
2, 81256, Note_on_c, 11, 70, 127
2, 81938, Note_off_c, 11, 70, 127
2, 81938, Note_off_c, 6, 78, 127
2, 81938, Note_off_c, 3, 63, 127
2, 81938, Note_off_c, 3, 51, 127
2, 81944, Note_on_c, 3, 63, 127
2, 81944, Note_on_c, 3, 51, 127
2, 81944, Note_on_c, 6, 78, 127
2, 81944, Note_on_c, 11, 70, 127
2, 82326, Note_off_c, 6, 78, 127
2, 82326, Note_off_c, 3, 63, 127
2, 82326, Note_on_c, 5, 65, 127
2, 82326, Note_on_c, 5, 77, 127
2, 82621, Note_off_c, 5, 77, 127
2, 82621, Note_off_c, 5, 65, 127
2, 82623, Note_off_c, 11, 70, 127
2, 82623, Note_off_c, 3, 51, 127
2, 82630, Note_on_c, 0, 60, 127
2, 82630, Note_on_c, 6, 66, 127
2, 82630, Note_on_c, 11, 70, 127
2, 82630, Note_on_c, 3, 75, 127
2, 83312, Note_off_c, 3, 75, 127
2, 83312, Note_off_c, 11, 70, 127
2, 83312, Note_off_c, 6, 66, 127
2, 83312, Note_off_c, 0, 60, 127
2, 83317, Note_on_c, 6, 66, 127
2, 83317, Note_on_c, 0, 60, 127
2, 83317, Note_on_c, 3, 75, 127
2, 83317, Note_on_c, 10, 69, 127
2, 83709, Note_off_c, 10, 69, 127
2, 83709, Note_off_c, 0, 60, 127
2, 83710, Note_on_c, 11, 58, 127
2, 83710, Note_on_c, 11, 70, 127
2, 83995, Note_off_c, 11, 70, 127
2, 83995, Note_off_c, 11, 58, 127
2, 83996, Note_off_c, 3, 75, 127
2, 83996, Note_off_c, 6, 66, 127
2, 84003, Note_on_c, 10, 57, 127
2, 84003, Note_on_c, 6, 66, 127
2, 84003, Note_on_c, 0, 84, 127
2, 84003, Note_on_c, 0, 72, 127
2, 84685, Note_off_c, 0, 72, 127
2, 84685, Note_off_c, 0, 84, 127
2, 84685, Note_off_c, 6, 66, 127
2, 84685, Note_off_c, 10, 57, 127
2, 84690, Note_on_c, 5, 65, 127
2, 84690, Note_on_c, 10, 57, 127
2, 84690, Note_on_c, 0, 72, 127
2, 84690, Note_on_c, 0, 84, 127
2, 85072, Note_off_c, 0, 84, 127
2, 85073, Note_on_c, 11, 82, 127
2, 85368, Note_off_c, 11, 82, 127
2, 85369, Note_off_c, 0, 72, 127
2, 85372, Note_off_c, 10, 57, 127
2, 85372, Note_off_c, 5, 65, 127
2, 85376, Note_on_c, 3, 63, 127
2, 85376, Note_on_c, 5, 77, 127
2, 85376, Note_on_c, 0, 72, 127
2, 85376, Note_on_c, 10, 81, 127
2, 86058, Note_off_c, 10, 81, 127
2, 86058, Note_off_c, 0, 72, 127
2, 86058, Note_off_c, 5, 77, 127
2, 86058, Note_off_c, 3, 63, 127
2, 86064, Note_on_c, 5, 65, 127
2, 86064, Note_on_c, 5, 77, 127
2, 86064, Note_on_c, 0, 72, 127
2, 86064, Note_on_c, 10, 81, 127
2, 86456, Note_off_c, 5, 65, 127
2, 86456, Note_on_c, 3, 63, 127
2, 86741, Note_off_c, 3, 63, 127
2, 86746, Note_off_c, 10, 81, 127
2, 86746, Note_off_c, 0, 72, 127
2, 86746, Note_off_c, 5, 77, 127
2, 86750, Note_on_c, 2, 62, 127
2, 86751, Note_on_c, 11, 70, 127
2, 86752, Note_on_c, 5, 77, 127
2, 86753, Note_on_c, 11, 82, 127
2, 87432, Note_off_c, 2, 62, 127
2, 87433, Note_off_c, 11, 70, 127
2, 87434, Note_off_c, 5, 77, 127
2, 87435, Note_off_c, 11, 82, 127
2, 87436, Note_on_c, 2, 62, 127
2, 87436, Note_on_c, 11, 82, 127
2, 87436, Note_on_c, 5, 77, 127
2, 87436, Note_on_c, 11, 70, 127
2, 87818, Note_off_c, 11, 82, 127
2, 87820, Note_on_c, 8, 80, 127
2, 88115, Note_off_c, 8, 80, 127
2, 88115, Note_off_c, 11, 70, 127
2, 88115, Note_off_c, 5, 77, 127
2, 88118, Note_off_c, 2, 62, 127
2, 88123, Note_on_c, 3, 63, 127
2, 88123, Note_on_c, 6, 78, 127
2, 88123, Note_on_c, 11, 70, 127
2, 88123, Note_on_c, 5, 77, 127
2, 88805, Note_off_c, 5, 77, 127
2, 88805, Note_off_c, 11, 70, 127
2, 88805, Note_off_c, 6, 78, 127
2, 88805, Note_off_c, 3, 63, 127
2, 88809, Note_on_c, 3, 63, 127
2, 88809, Note_on_c, 11, 70, 127
2, 88809, Note_on_c, 6, 78, 127
2, 88809, Note_on_c, 3, 75, 127
2, 89201, Note_off_c, 3, 63, 127
2, 89203, Note_on_c, 1, 61, 127
2, 89488, Note_off_c, 1, 61, 127
2, 89491, Note_off_c, 3, 75, 127
2, 89491, Note_off_c, 6, 78, 127
2, 89491, Note_off_c, 11, 70, 127
2, 89496, Note_on_c, 0, 60, 127
2, 89496, Note_on_c, 3, 75, 127
2, 89496, Note_on_c, 11, 70, 127
2, 89496, Note_on_c, 6, 78, 127
2, 90178, Note_off_c, 6, 78, 127
2, 90178, Note_off_c, 11, 70, 127
2, 90178, Note_off_c, 3, 75, 127
2, 90178, Note_off_c, 0, 60, 127
2, 90182, Note_on_c, 0, 60, 127
2, 90182, Note_on_c, 6, 78, 127
2, 90182, Note_on_c, 3, 75, 127
2, 90182, Note_on_c, 10, 69, 127
2, 90574, Note_off_c, 10, 69, 127
2, 90574, Note_off_c, 0, 60, 127
2, 90576, Note_on_c, 11, 58, 127
2, 90576, Note_on_c, 11, 70, 127
2, 90861, Note_off_c, 11, 70, 127
2, 90861, Note_off_c, 11, 58, 127
2, 90861, Note_off_c, 3, 75, 127
2, 90861, Note_off_c, 6, 78, 127
2, 90870, Note_on_c, 10, 57, 127
2, 90870, Note_on_c, 0, 72, 127
2, 90870, Note_on_c, 6, 78, 127
2, 90870, Note_on_c, 3, 75, 127
2, 91552, Note_off_c, 3, 75, 127
2, 91552, Note_off_c, 6, 78, 127
2, 91552, Note_off_c, 0, 72, 127
2, 91552, Note_off_c, 10, 57, 127
2, 91556, Note_on_c, 10, 57, 127
2, 91556, Note_on_c, 5, 65, 127
2, 91556, Note_on_c, 5, 77, 127
2, 91556, Note_on_c, 1, 73, 127
2, 91930, Note_off_c, 1, 73, 127
2, 91930, Note_off_c, 5, 65, 127
2, 91932, Note_on_c, 0, 72, 127
2, 91932, Note_on_c, 3, 63, 127
2, 92235, Note_off_c, 3, 63, 127
2, 92235, Note_off_c, 0, 72, 127
2, 92235, Note_off_c, 10, 57, 127
2, 92242, Note_on_c, 1, 61, 127
2, 92242, Note_on_c, 11, 58, 127
2, 92242, Note_on_c, 11, 70, 127
2, 92942, Note_off_c, 11, 70, 127
2, 92942, Note_off_c, 11, 58, 127
2, 92942, Note_off_c, 1, 61, 127
2, 92945, Note_on_c, 6, 78, 127
2, 92945, Note_on_c, 11, 70, 127
2, 92945, Note_on_c, 1, 61, 127
2, 92945, Note_on_c, 11, 58, 127
2, 92947, Note_off_c, 5, 77, 127
2, 93317, Note_on_c, 8, 56, 127
2, 93317, Note_on_c, 5, 77, 127
2, 93319, Note_off_c, 11, 58, 127
2, 93319, Note_off_c, 6, 78, 127
2, 93624, Note_off_c, 5, 77, 127
2, 93624, Note_off_c, 8, 56, 127
2, 93624, Note_off_c, 1, 61, 127
2, 93624, Note_off_c, 11, 70, 127
2, 93631, Note_on_c, 11, 70, 127
2, 93631, Note_on_c, 3, 75, 127
2, 93631, Note_on_c, 1, 61, 127
2, 93631, Note_on_c, 6, 54, 127
2, 94313, Note_off_c, 6, 54, 127
2, 94313, Note_off_c, 1, 61, 127
2, 94313, Note_off_c, 3, 75, 127
2, 94313, Note_off_c, 11, 70, 127
2, 94318, Note_on_c, 10, 69, 127
2, 94318, Note_on_c, 3, 75, 127
2, 94318, Note_on_c, 0, 60, 127
2, 94318, Note_on_c, 6, 54, 127
2, 94699, Note_off_c, 6, 54, 127
2, 94700, Note_off_c, 0, 60, 127
2, 94700, Note_off_c, 3, 75, 127
2, 94700, Note_off_c, 10, 69, 127
2, 94701, Note_on_c, 5, 53, 127
2, 94701, Note_on_c, 1, 73, 127
2, 94701, Note_on_c, 11, 70, 127
2, 94701, Note_on_c, 1, 61, 127
2, 94996, Note_off_c, 1, 61, 127
2, 94996, Note_off_c, 1, 73, 127
2, 94996, Note_off_c, 5, 53, 127
2, 95005, Note_on_c, 0, 72, 127
2, 95005, Note_on_c, 3, 63, 127
2, 95005, Note_on_c, 3, 51, 127
2, 95665, Note_off_c, 11, 70, 127
2, 95687, Note_off_c, 3, 51, 127
2, 95687, Note_off_c, 3, 63, 127
2, 95687, Note_off_c, 0, 72, 127
2, 95692, Note_on_c, 10, 69, 127
2, 95692, Note_on_c, 0, 72, 127
2, 95692, Note_on_c, 5, 65, 127
2, 95692, Note_on_c, 3, 51, 127
2, 96084, Note_off_c, 3, 51, 127
2, 96084, Note_off_c, 0, 72, 127
2, 96084, Note_off_c, 10, 69, 127
2, 96085, Note_on_c, 11, 70, 127
2, 96085, Note_on_c, 1, 73, 127
2, 96085, Note_on_c, 1, 49, 127
2, 96370, Note_off_c, 1, 49, 127
2, 96370, Note_off_c, 1, 73, 127
2, 96370, Note_off_c, 11, 70, 127
2, 96371, Note_off_c, 5, 65, 127
2, 96378, Note_on_c, 6, 66, 127
2, 96378, Note_on_c, 3, 75, 127
2, 96378, Note_on_c, 10, 69, 127
2, 96378, Note_on_c, 0, 48, 127
2, 97060, Note_off_c, 0, 48, 127
2, 97060, Note_off_c, 10, 69, 127
2, 97060, Note_off_c, 3, 75, 127
2, 97060, Note_off_c, 6, 66, 127
2, 97064, Note_on_c, 10, 69, 127
2, 97064, Note_on_c, 6, 66, 127
2, 97064, Note_on_c, 0, 72, 127
2, 97064, Note_on_c, 0, 48, 127
2, 97456, Note_off_c, 0, 48, 127
2, 97456, Note_off_c, 0, 72, 127
2, 97456, Note_off_c, 10, 69, 127
2, 97458, Note_on_c, 1, 73, 127
2, 97458, Note_on_c, 11, 70, 127
2, 97458, Note_on_c, 11, 46, 127
2, 97743, Note_off_c, 11, 46, 127
2, 97743, Note_off_c, 11, 70, 127
2, 97743, Note_off_c, 1, 73, 127
2, 97743, Note_off_c, 6, 66, 127
2, 97751, Note_on_c, 3, 75, 127
2, 97751, Note_on_c, 5, 65, 127
2, 97751, Note_on_c, 0, 72, 127
2, 97751, Note_on_c, 10, 45, 127
2, 98433, Note_off_c, 10, 45, 127
2, 98433, Note_off_c, 0, 72, 127
2, 98433, Note_off_c, 5, 65, 127
2, 98433, Note_off_c, 3, 75, 127
2, 98437, Note_on_c, 11, 70, 127
2, 98437, Note_on_c, 1, 73, 127
2, 98437, Note_on_c, 5, 65, 127
2, 98437, Note_on_c, 5, 41, 127
2, 98797, Note_off_c, 1, 73, 127
2, 98797, Note_off_c, 11, 70, 127
2, 98805, Note_on_c, 10, 69, 127
2, 98805, Note_on_c, 0, 72, 127
2, 99116, Note_off_c, 0, 72, 127
2, 99116, Note_off_c, 10, 69, 127
2, 99116, Note_off_c, 5, 65, 127
2, 99119, Note_off_c, 5, 41, 127
2, 99125, Note_on_c, 11, 46, 127
2, 99126, Note_on_c, 5, 65, 127
2, 99127, Note_on_c, 11, 70, 127
2, 99128, Note_on_c, 1, 73, 127
2, 99807, Note_off_c, 11, 46, 127
2, 99811, Note_on_c, 11, 46, 127
2, 100189, Note_off_c, 11, 46, 127
2, 100190, Note_on_c, 8, 44, 127
2, 100490, Note_off_c, 8, 44, 127
2, 100498, Note_on_c, 6, 42, 127
2, 101180, Note_off_c, 6, 42, 127
2, 101181, Note_off_c, 5, 65, 127
2, 101182, Note_off_c, 11, 70, 127
2, 101184, Note_on_c, 11, 70, 127
2, 101184, Note_on_c, 5, 65, 127
2, 101184, Note_on_c, 6, 42, 127
2, 101546, Note_off_c, 6, 42, 127
2, 101547, Note_on_c, 5, 41, 127
2, 101862, Note_off_c, 5, 41, 127
2, 101866, Note_off_c, 5, 65, 127
2, 101866, Note_off_c, 11, 70, 127
2, 101870, Note_on_c, 6, 66, 127
2, 101870, Note_on_c, 11, 70, 127
2, 101870, Note_on_c, 3, 39, 127
2, 102552, Note_off_c, 3, 39, 127
2, 102557, Note_on_c, 6, 78, 127
2, 102557, Note_on_c, 3, 39, 127
2, 102949, Note_off_c, 6, 78, 127
2, 102950, Note_on_c, 5, 77, 127
2, 103228, Note_off_c, 11, 70, 127
2, 103235, Note_off_c, 5, 77, 127
2, 103239, Note_off_c, 3, 39, 127
2, 103240, Note_off_c, 1, 73, 127
2, 103244, Note_on_c, 3, 75, 127
2, 103244, Note_on_c, 3, 39, 127
2, 103636, Note_off_c, 3, 75, 127
2, 103637, Note_on_c, 1, 73, 127
2, 103922, Note_off_c, 1, 73, 127
2, 103925, Note_off_c, 6, 66, 127
2, 103926, Note_off_c, 3, 39, 127
2, 103931, Note_on_c, 3, 63, 127
2, 103931, Note_on_c, 6, 66, 127
2, 103931, Note_on_c, 0, 72, 127
2, 103931, Note_on_c, 3, 39, 127
2, 104292, Note_on_c, 1, 61, 127
2, 104292, Note_on_c, 11, 70, 127
2, 104293, Note_off_c, 0, 72, 127
2, 104293, Note_off_c, 3, 63, 127
2, 104610, Note_off_c, 6, 66, 127
2, 104613, Note_off_c, 3, 39, 127
2, 104622, Note_off_c, 11, 70, 127
2, 104622, Note_off_c, 1, 61, 127
2, 104625, Note_on_c, 0, 60, 127
2, 104625, Note_on_c, 10, 69, 127
2, 104625, Note_on_c, 5, 65, 127
2, 104625, Note_on_c, 5, 41, 127
2, 105357, Note_off_c, 5, 65, 127
2, 105365, Note_off_c, 5, 41, 127
2, 105365, Note_off_c, 10, 69, 127
2, 105365, Note_off_c, 0, 60, 127
2, 105376, Note_on_c, 5, 65, 127
2, 105376, Note_on_c, 5, 53, 127
2, 105376, Note_on_c, 10, 57, 127
2, 105768, Note_off_c, 10, 57, 127
2, 105768, Note_off_c, 5, 65, 127
2, 105769, Note_on_c, 7, 67, 127
2, 105769, Note_on_c, 11, 58, 127
2, 106054, Note_off_c, 11, 58, 127
2, 106054, Note_off_c, 7, 67, 127
2, 106055, Note_off_c, 5, 53, 127
2, 106062, Note_on_c, 10, 69, 127
2, 106062, Note_on_c, 5, 53, 127
2, 106062, Note_on_c, 0, 60, 127
2, 106744, Note_off_c, 0, 60, 127
2, 106744, Note_off_c, 5, 53, 127
2, 106744, Note_off_c, 10, 69, 127
2, 106748, Note_on_c, 10, 69, 127
2, 106748, Note_on_c, 3, 63, 127
2, 106748, Note_on_c, 5, 65, 127
2, 106748, Note_on_c, 0, 60, 127
2, 106748, Note_on_c, 5, 53, 127
2, 107430, Note_off_c, 5, 53, 127
2, 107430, Note_off_c, 0, 60, 127
2, 107430, Note_off_c, 5, 65, 127
2, 107430, Note_off_c, 3, 63, 127
2, 107430, Note_off_c, 10, 69, 127
2, 107435, Note_on_c, 10, 69, 127
2, 107435, Note_on_c, 1, 61, 127
2, 107435, Note_on_c, 5, 65, 127
2, 107435, Note_on_c, 5, 53, 127
2, 107435, Note_on_c, 11, 58, 127
2, 108117, Note_off_c, 5, 53, 127
2, 108117, Note_off_c, 5, 65, 127
2, 108117, Note_off_c, 1, 61, 127
2, 108117, Note_off_c, 10, 69, 127
2, 108122, Note_on_c, 4, 64, 127
2, 108122, Note_on_c, 7, 67, 127
2, 108122, Note_on_c, 5, 53, 127
2, 108514, Note_off_c, 7, 67, 127
2, 108514, Note_off_c, 4, 64, 127
2, 108515, Note_on_c, 10, 69, 127
2, 108515, Note_on_c, 5, 65, 127
2, 108800, Note_off_c, 5, 65, 127
2, 108800, Note_off_c, 10, 69, 127
2, 108804, Note_off_c, 5, 53, 127
2, 108809, Note_on_c, 7, 67, 127
2, 108809, Note_on_c, 11, 70, 127
2, 108809, Note_on_c, 5, 53, 127
2, 109490, Note_off_c, 11, 58, 127
2, 109491, Note_off_c, 5, 53, 127
2, 109491, Note_off_c, 11, 70, 127
2, 109491, Note_off_c, 7, 67, 127
2, 109495, Note_on_c, 11, 70, 127
2, 109495, Note_on_c, 4, 64, 127
2, 109495, Note_on_c, 7, 67, 127
2, 109495, Note_on_c, 5, 53, 127
2, 109495, Note_on_c, 1, 61, 127
2, 110177, Note_off_c, 1, 61, 127
2, 110177, Note_off_c, 5, 53, 127
2, 110177, Note_off_c, 7, 67, 127
2, 110177, Note_off_c, 4, 64, 127
2, 110177, Note_off_c, 11, 70, 127
2, 110182, Note_on_c, 7, 67, 127
2, 110182, Note_on_c, 4, 64, 127
2, 110182, Note_on_c, 11, 70, 127
2, 110182, Note_on_c, 5, 53, 127
2, 110182, Note_on_c, 0, 60, 127
2, 110864, Note_off_c, 0, 60, 127
2, 110864, Note_off_c, 5, 53, 127
2, 110864, Note_off_c, 11, 70, 127
2, 110864, Note_off_c, 4, 64, 127
2, 110864, Note_off_c, 7, 67, 127
2, 110868, Note_on_c, 5, 65, 127
2, 110868, Note_on_c, 10, 69, 127
2, 110868, Note_on_c, 5, 53, 127
2, 110868, Note_on_c, 0, 60, 127
2, 111260, Note_off_c, 0, 60, 127
2, 111260, Note_off_c, 10, 69, 127
2, 111262, Note_on_c, 11, 70, 127
2, 111262, Note_on_c, 7, 67, 127
2, 111262, Note_on_c, 1, 61, 127
2, 111547, Note_off_c, 1, 61, 127
2, 111547, Note_off_c, 7, 67, 127
2, 111547, Note_off_c, 11, 70, 127
2, 111547, Note_off_c, 5, 53, 127
2, 111554, Note_on_c, 10, 69, 127
2, 111554, Note_on_c, 0, 72, 127
2, 111554, Note_on_c, 5, 53, 127
2, 111554, Note_on_c, 3, 63, 127
2, 112226, Note_off_c, 5, 65, 127
2, 112236, Note_off_c, 3, 63, 127
2, 112236, Note_off_c, 5, 53, 127
2, 112236, Note_off_c, 0, 72, 127
2, 112236, Note_off_c, 10, 69, 127
2, 112242, Note_on_c, 10, 69, 127
2, 112242, Note_on_c, 0, 72, 127
2, 112242, Note_on_c, 5, 65, 127
2, 112242, Note_on_c, 3, 63, 127
2, 112242, Note_on_c, 5, 53, 127
2, 112924, Note_off_c, 5, 53, 127
2, 112924, Note_off_c, 3, 63, 127
2, 112924, Note_off_c, 5, 65, 127
2, 112924, Note_off_c, 0, 72, 127
2, 112924, Note_off_c, 10, 69, 127
2, 112928, Note_on_c, 0, 72, 127
2, 112928, Note_on_c, 5, 65, 127
2, 112928, Note_on_c, 10, 69, 127
2, 112928, Note_on_c, 1, 61, 127
2, 112928, Note_on_c, 5, 53, 127
2, 113610, Note_off_c, 5, 53, 127
2, 113610, Note_off_c, 1, 61, 127
2, 113610, Note_off_c, 10, 69, 127
2, 113610, Note_off_c, 5, 65, 127
2, 113610, Note_off_c, 0, 72, 127
2, 113615, Note_on_c, 11, 70, 127
2, 113615, Note_on_c, 7, 67, 127
2, 113615, Note_on_c, 5, 53, 127
2, 113615, Note_on_c, 1, 61, 127
2, 114007, Note_off_c, 1, 61, 127
2, 114007, Note_off_c, 7, 67, 127
2, 114007, Note_off_c, 11, 70, 127
2, 114008, Note_on_c, 0, 72, 127
2, 114008, Note_on_c, 10, 69, 127
2, 114008, Note_on_c, 0, 60, 127
2, 114293, Note_off_c, 0, 60, 127
2, 114293, Note_off_c, 10, 69, 127
2, 114293, Note_off_c, 0, 72, 127
2, 114294, Note_off_c, 5, 53, 127
2, 114301, Note_on_c, 11, 70, 127
2, 114301, Note_on_c, 1, 73, 127
2, 114301, Note_on_c, 11, 58, 127
2, 114301, Note_on_c, 5, 53, 127
2, 114983, Note_off_c, 5, 53, 127
2, 114983, Note_off_c, 11, 58, 127
2, 114983, Note_off_c, 1, 73, 127
2, 114983, Note_off_c, 11, 70, 127
2, 114988, Note_on_c, 1, 73, 127
2, 114988, Note_on_c, 5, 65, 127
2, 114988, Note_on_c, 11, 70, 127
2, 114988, Note_on_c, 11, 58, 127
2, 114988, Note_on_c, 5, 53, 127
2, 115350, Note_off_c, 11, 58, 127
2, 115351, Note_on_c, 8, 56, 127
2, 115666, Note_off_c, 8, 56, 127
2, 115667, Note_off_c, 5, 53, 127
2, 115670, Note_off_c, 11, 70, 127
2, 115670, Note_off_c, 5, 65, 127
2, 115670, Note_off_c, 1, 73, 127
2, 115674, Note_on_c, 11, 70, 127
2, 115674, Note_on_c, 1, 73, 127
2, 115674, Note_on_c, 6, 66, 127
2, 115674, Note_on_c, 5, 53, 127
2, 115674, Note_on_c, 6, 54, 127
2, 116356, Note_off_c, 6, 54, 127
2, 116356, Note_off_c, 5, 53, 127
2, 116356, Note_off_c, 6, 66, 127
2, 116356, Note_off_c, 1, 73, 127
2, 116356, Note_off_c, 11, 70, 127
2, 116362, Note_on_c, 10, 69, 127
2, 116362, Note_on_c, 0, 72, 127
2, 116362, Note_on_c, 6, 66, 127
2, 116362, Note_on_c, 3, 51, 127
2, 116362, Note_on_c, 6, 54, 127
2, 116754, Note_off_c, 6, 54, 127
2, 116754, Note_off_c, 3, 51, 127
2, 116754, Note_off_c, 0, 72, 127
2, 116754, Note_off_c, 10, 69, 127
2, 116754, Note_on_c, 1, 73, 127
2, 116754, Note_on_c, 11, 70, 127
2, 116754, Note_on_c, 5, 53, 127
2, 116754, Note_on_c, 1, 49, 127
2, 117039, Note_off_c, 1, 49, 127
2, 117039, Note_off_c, 5, 53, 127
2, 117039, Note_off_c, 11, 70, 127
2, 117039, Note_off_c, 1, 73, 127
2, 117041, Note_off_c, 6, 66, 127
2, 117048, Note_on_c, 0, 72, 127
2, 117048, Note_on_c, 6, 66, 127
2, 117048, Note_on_c, 10, 69, 127
2, 117048, Note_on_c, 3, 75, 127
2, 117048, Note_on_c, 0, 48, 127
2, 117048, Note_on_c, 6, 54, 127
2, 117048, Note_on_c, 3, 51, 127
2, 117730, Note_off_c, 3, 51, 127
2, 117730, Note_off_c, 6, 54, 127
2, 117730, Note_off_c, 0, 48, 127
2, 117730, Note_off_c, 3, 75, 127
2, 117730, Note_off_c, 10, 69, 127
2, 117730, Note_off_c, 6, 66, 127
2, 117730, Note_off_c, 0, 72, 127
2, 117734, Note_on_c, 10, 69, 127
2, 117734, Note_on_c, 0, 72, 127
2, 117734, Note_on_c, 3, 75, 127
2, 117734, Note_on_c, 6, 66, 127
2, 117734, Note_on_c, 6, 54, 127
2, 117734, Note_on_c, 0, 48, 127
2, 117734, Note_on_c, 3, 51, 127
2, 118126, Note_off_c, 3, 51, 127
2, 118126, Note_off_c, 0, 48, 127
2, 118126, Note_off_c, 3, 75, 127
2, 118126, Note_off_c, 0, 72, 127
2, 118128, Note_on_c, 5, 77, 127
2, 118128, Note_on_c, 1, 73, 127
2, 118128, Note_on_c, 11, 46, 127
2, 118128, Note_on_c, 1, 49, 127
2, 118483, Note_off_c, 1, 49, 127
2, 118483, Note_off_c, 11, 46, 127
2, 118483, Note_off_c, 1, 73, 127
2, 118483, Note_off_c, 5, 77, 127
2, 118484, Note_off_c, 6, 66, 127
2, 118484, Note_off_c, 10, 69, 127
2, 118489, Note_off_c, 6, 54, 127
2, 118499, Note_on_c, 10, 45, 127
2, 118500, Note_on_c, 3, 51, 127
2, 118501, Note_on_c, 6, 66, 127
2, 118501, Note_on_c, 6, 54, 127
2, 118502, Note_on_c, 0, 72, 127
2, 118502, Note_on_c, 10, 69, 127
2, 118503, Note_on_c, 3, 75, 127
2, 118503, Note_on_c, 6, 78, 127
2, 120499, Note_off_c, 10, 45, 127
2, 120500, Note_off_c, 3, 51, 127
2, 120501, Note_off_c, 6, 54, 127
2, 120501, Note_off_c, 6, 66, 127
2, 120502, Note_off_c, 10, 69, 127
2, 120502, Note_off_c, 0, 72, 127
2, 120503, Note_off_c, 6, 78, 127
2, 120503, Note_off_c, 3, 75, 127
2, 120609, Note_on_c, 5, 77, 127
2, 120609, Note_on_c, 0, 72, 127
2, 120609, Note_on_c, 5, 65, 127
2, 120609, Note_on_c, 10, 57, 127
2, 121291, Note_off_c, 10, 57, 127
2, 121291, Note_off_c, 5, 65, 127
2, 121291, Note_off_c, 0, 72, 127
2, 121291, Note_off_c, 5, 77, 127
2, 121296, Note_on_c, 1, 73, 127
2, 121296, Note_on_c, 5, 65, 127
2, 121296, Note_on_c, 11, 70, 127
2, 121296, Note_on_c, 11, 58, 127
2, 121978, Note_off_c, 11, 58, 127
2, 121978, Note_off_c, 11, 70, 127
2, 121978, Note_off_c, 5, 65, 127
2, 121978, Note_off_c, 1, 73, 127
2, 121982, Note_on_c, 3, 75, 127
2, 121982, Note_on_c, 11, 70, 127
2, 121982, Note_on_c, 11, 58, 127
2, 121982, Note_on_c, 6, 54, 127
2, 122344, Note_on_c, 6, 66, 127
2, 122344, Note_on_c, 0, 72, 127
2, 122344, Note_on_c, 3, 51, 127
2, 122346, Note_off_c, 3, 75, 127
2, 122347, Note_off_c, 6, 54, 127
2, 122356, Note_off_c, 11, 70, 127
2, 122661, Note_off_c, 3, 51, 127
2, 122661, Note_off_c, 0, 72, 127
2, 122661, Note_off_c, 6, 66, 127
2, 122661, Note_off_c, 11, 58, 127
2, 122668, Note_on_c, 1, 73, 127
2, 122668, Note_on_c, 5, 65, 127
2, 122668, Note_on_c, 11, 70, 127
2, 122668, Note_on_c, 5, 53, 127
2, 123350, Note_off_c, 11, 70, 127
2, 123350, Note_off_c, 5, 65, 127
2, 123350, Note_off_c, 1, 73, 127
2, 123355, Note_on_c, 3, 63, 127
2, 123355, Note_on_c, 10, 69, 127
2, 123355, Note_on_c, 0, 72, 127
2, 123355, Note_on_c, 5, 41, 127
2, 123718, Note_off_c, 0, 72, 127
2, 123720, Note_on_c, 11, 70, 127
2, 124050, Note_off_c, 11, 70, 127
2, 124056, Note_off_c, 10, 69, 127
2, 124056, Note_off_c, 3, 63, 127
2, 124057, Note_off_c, 5, 41, 127
2, 124057, Note_on_c, 11, 46, 127
2, 124057, Note_on_c, 11, 70, 127
2, 124057, Note_on_c, 2, 62, 127
2, 124777, Note_off_c, 11, 46, 127
2, 124780, Note_off_c, 2, 62, 127
2, 124786, Note_off_c, 5, 53, 127
2, 124792, Note_on_c, 2, 62, 127
2, 124792, Note_on_c, 5, 65, 127
2, 124792, Note_on_c, 5, 53, 127
2, 124792, Note_on_c, 11, 46, 127
2, 125170, Note_off_c, 5, 65, 127
2, 125170, Note_off_c, 2, 62, 127
2, 125171, Note_on_c, 3, 63, 127
2, 125171, Note_on_c, 6, 66, 127
2, 125184, Note_off_c, 5, 53, 127
2, 125185, Note_on_c, 3, 51, 127
2, 125493, Note_off_c, 11, 46, 127
2, 125501, Note_off_c, 6, 66, 127
2, 125501, Note_off_c, 3, 63, 127
2, 125505, Note_off_c, 3, 51, 127
2, 125511, Note_on_c, 5, 65, 127
2, 125511, Note_on_c, 8, 68, 127
2, 125511, Note_on_c, 11, 46, 127
2, 125511, Note_on_c, 2, 50, 127
2, 125869, Note_on_c, 0, 48, 127
2, 125871, Note_off_c, 2, 50, 127
2, 126187, Note_off_c, 0, 48, 127
2, 126190, Note_off_c, 11, 46, 127
2, 126193, Note_off_c, 8, 68, 127
2, 126193, Note_off_c, 5, 65, 127
2, 126198, Note_on_c, 5, 65, 127
2, 126198, Note_on_c, 8, 68, 127
2, 126198, Note_on_c, 3, 51, 127
2, 126198, Note_on_c, 11, 46, 127
2, 126555, Note_on_c, 2, 50, 127
2, 126558, Note_off_c, 3, 51, 127
2, 126831, Note_off_c, 11, 70, 127
2, 126873, Note_off_c, 2, 50, 127
2, 126877, Note_off_c, 11, 46, 127
2, 126880, Note_off_c, 8, 68, 127
2, 126880, Note_off_c, 5, 65, 127
2, 126884, Note_on_c, 11, 70, 127
2, 126884, Note_on_c, 5, 65, 127
2, 126884, Note_on_c, 8, 68, 127
2, 126884, Note_on_c, 11, 46, 127
2, 126884, Note_on_c, 2, 50, 127
2, 127566, Note_off_c, 2, 50, 127
2, 127566, Note_off_c, 11, 46, 127
2, 127566, Note_off_c, 8, 68, 127
2, 127566, Note_off_c, 5, 65, 127
2, 127586, Note_on_c, 11, 46, 127
2, 127586, Note_on_c, 3, 51, 127
2, 127586, Note_on_c, 6, 66, 127
2, 127586, Note_on_c, 3, 63, 127
2, 127953, Note_off_c, 3, 51, 127
2, 127971, Note_on_c, 5, 53, 127
2, 128309, Note_off_c, 5, 53, 127
2, 128311, Note_off_c, 11, 46, 127
2, 128321, Note_on_c, 6, 54, 127
2, 128321, Note_on_c, 11, 46, 127
2, 128993, Note_off_c, 3, 63, 127
2, 128993, Note_off_c, 6, 66, 127
2, 129011, Note_off_c, 11, 46, 127
2, 129011, Note_off_c, 6, 54, 127
2, 129023, Note_on_c, 6, 54, 127
2, 129023, Note_on_c, 11, 46, 127
2, 129023, Note_on_c, 5, 65, 127
2, 129023, Note_on_c, 2, 62, 127
2, 129415, Note_off_c, 2, 62, 127
2, 129415, Note_off_c, 5, 65, 127
2, 129449, Note_on_c, 0, 60, 127
2, 129449, Note_on_c, 3, 63, 127
2, 129849, Note_off_c, 3, 63, 127
2, 129849, Note_off_c, 0, 60, 127
2, 129853, Note_off_c, 11, 46, 127
2, 129853, Note_off_c, 6, 54, 127
2, 129871, Note_on_c, 11, 46, 127
2, 129871, Note_on_c, 5, 53, 127
2, 129871, Note_on_c, 5, 65, 127
2, 129871, Note_on_c, 2, 62, 127
2, 132584, Note_off_c, 11, 70, 127
2, 132871, Note_off_c, 5, 65, 127
2, 133071, Note_off_c, 5, 53, 127
2, 133071, Note_off_c, 11, 46, 127
2, 133371, Note_off_c, 2, 62, 127
2, 133584, Note_on_c, 11, 70, 127
2, 134421, Note_off_c, 11, 70, 127
2, 134422, Note_on_c, 5, 65, 127
2, 135568, Note_off_c, 5, 65, 127
2, 135681, Note_on_c, 6, 78, 127
2, 136099, Note_off_c, 6, 78, 127
2, 136100, Note_on_c, 5, 77, 127
2, 136518, Note_off_c, 5, 77, 127
2, 136520, Note_on_c, 3, 75, 127
2, 136938, Note_off_c, 3, 75, 127
2, 136939, Note_on_c, 1, 73, 127
2, 136939, Note_on_c, 5, 65, 127
2, 137357, Note_off_c, 1, 73, 127
2, 137357, Note_on_c, 0, 72, 127
2, 137775, Note_off_c, 0, 72, 127
2, 137776, Note_off_c, 5, 65, 127
2, 137777, Note_on_c, 11, 58, 127
2, 137777, Note_on_c, 1, 73, 127
2, 138195, Note_off_c, 1, 73, 127
2, 138195, Note_on_c, 3, 75, 127
2, 138613, Note_off_c, 3, 75, 127
2, 138614, Note_on_c, 5, 77, 127
2, 138920, Note_off_c, 11, 58, 127
2, 139028, Note_off_c, 5, 77, 127
2, 139030, Note_on_c, 1, 73, 127
2, 139030, Note_on_c, 4, 76, 127
2, 139236, Note_off_c, 4, 76, 127
2, 139237, Note_on_c, 5, 77, 127
2, 139441, Note_off_c, 1, 73, 127
2, 139443, Note_off_c, 5, 77, 127
2, 139445, Note_on_c, 7, 79, 127
2, 139445, Note_on_c, 0, 72, 127
2, 139863, Note_off_c, 0, 72, 127
2, 139864, Note_on_c, 11, 70, 127
2, 140282, Note_off_c, 11, 70, 127
2, 140282, Note_on_c, 8, 68, 127
2, 140700, Note_off_c, 8, 68, 127
2, 140700, Note_off_c, 7, 79, 127
2, 140702, Note_on_c, 7, 67, 127
2, 140702, Note_on_c, 8, 80, 127
2, 140908, Note_off_c, 8, 80, 127
2, 140909, Note_on_c, 7, 79, 127
2, 141113, Note_off_c, 7, 67, 127
2, 141115, Note_off_c, 7, 79, 127
2, 141117, Note_on_c, 8, 68, 127
2, 141117, Note_on_c, 5, 77, 127
2, 141535, Note_off_c, 8, 68, 127
2, 141537, Note_on_c, 11, 70, 127
2, 141955, Note_off_c, 11, 70, 127
2, 141955, Note_on_c, 0, 72, 127
2, 142260, Note_off_c, 5, 77, 127
2, 142374, Note_on_c, 3, 75, 127
2, 142580, Note_off_c, 3, 75, 127
2, 142582, Note_on_c, 1, 73, 127
2, 142788, Note_off_c, 1, 73, 127
2, 142789, Note_on_c, 3, 75, 127
2, 143095, Note_off_c, 0, 72, 127
2, 143203, Note_off_c, 3, 75, 127
2, 143205, Note_on_c, 11, 70, 127
2, 143205, Note_on_c, 5, 77, 127
2, 143411, Note_off_c, 11, 70, 127
2, 143413, Note_on_c, 10, 69, 127
2, 143616, Note_off_c, 5, 77, 127
2, 143619, Note_off_c, 10, 69, 127
2, 143620, Note_on_c, 11, 70, 127
2, 143620, Note_on_c, 6, 78, 127
2, 144038, Note_off_c, 11, 70, 127
2, 144040, Note_on_c, 0, 72, 127
2, 144458, Note_off_c, 0, 72, 127
2, 144459, Note_on_c, 1, 73, 127
2, 144763, Note_off_c, 6, 78, 127
2, 144877, Note_on_c, 5, 77, 127
2, 145083, Note_off_c, 5, 77, 127
2, 145085, Note_on_c, 3, 75, 127
2, 145291, Note_off_c, 3, 75, 127
2, 145293, Note_on_c, 5, 77, 127
2, 145599, Note_off_c, 1, 73, 127
2, 145707, Note_off_c, 5, 77, 127
2, 145708, Note_on_c, 0, 72, 127
2, 145708, Note_on_c, 7, 79, 127
2, 145914, Note_off_c, 0, 72, 127
2, 145916, Note_on_c, 11, 70, 127
2, 146119, Note_off_c, 7, 79, 127
2, 146122, Note_off_c, 11, 70, 127
2, 146123, Note_on_c, 0, 72, 127
2, 146123, Note_on_c, 8, 80, 127
2, 146541, Note_off_c, 0, 72, 127
2, 146542, Note_on_c, 2, 74, 127
2, 146960, Note_off_c, 2, 74, 127
2, 146961, Note_on_c, 3, 75, 127
2, 147266, Note_off_c, 8, 80, 127
2, 147380, Note_on_c, 7, 79, 127
2, 147586, Note_off_c, 7, 79, 127
2, 147588, Note_on_c, 5, 77, 127
2, 147794, Note_off_c, 5, 77, 127
2, 147796, Note_on_c, 7, 79, 127
2, 148199, Note_off_c, 3, 75, 127
2, 148214, Note_off_c, 7, 79, 127
2, 148215, Note_on_c, 1, 73, 127
2, 148215, Note_on_c, 10, 81, 127
2, 148421, Note_off_c, 1, 73, 127
2, 148422, Note_on_c, 0, 72, 127
2, 148626, Note_off_c, 10, 81, 127
2, 148628, Note_off_c, 0, 72, 127
2, 148630, Note_on_c, 11, 58, 127
2, 148630, Note_on_c, 1, 73, 127
2, 148630, Note_on_c, 11, 82, 127
2, 149048, Note_off_c, 1, 73, 127
2, 149049, Note_on_c, 3, 75, 127
2, 149467, Note_off_c, 3, 75, 127
2, 149467, Note_off_c, 11, 58, 127
2, 149468, Note_on_c, 5, 53, 127
2, 149468, Note_on_c, 5, 77, 127
2, 149885, Note_off_c, 11, 82, 127
2, 149891, Note_on_c, 10, 81, 127
2, 150097, Note_off_c, 10, 81, 127
2, 150099, Note_on_c, 7, 79, 127
2, 150305, Note_off_c, 7, 79, 127
2, 150305, Note_on_c, 10, 81, 127
2, 150611, Note_off_c, 5, 53, 127
2, 150719, Note_off_c, 10, 81, 127
2, 150720, Note_off_c, 5, 77, 127
2, 150721, Note_on_c, 6, 66, 127
2, 150721, Note_on_c, 11, 82, 127
2, 150721, Note_on_c, 3, 75, 127
2, 150927, Note_off_c, 3, 75, 127
2, 150929, Note_on_c, 1, 73, 127
2, 151132, Note_off_c, 11, 82, 127
2, 151135, Note_off_c, 1, 73, 127
2, 151135, Note_off_c, 6, 66, 127
2, 151137, Note_on_c, 5, 65, 127
2, 151137, Note_on_c, 0, 84, 127
2, 151137, Note_on_c, 3, 75, 127
2, 151555, Note_off_c, 5, 65, 127
2, 151556, Note_on_c, 3, 63, 127
2, 151974, Note_off_c, 3, 63, 127
2, 151975, Note_on_c, 5, 53, 127
2, 151975, Note_on_c, 1, 61, 127
2, 152392, Note_off_c, 3, 75, 127
2, 152392, Note_off_c, 0, 84, 127
2, 152393, Note_off_c, 1, 61, 127
2, 152394, Note_on_c, 0, 60, 127
2, 152394, Note_on_c, 5, 77, 127
2, 152394, Note_on_c, 11, 82, 127
2, 152600, Note_off_c, 11, 82, 127
2, 152600, Note_off_c, 5, 77, 127
2, 152601, Note_on_c, 3, 75, 127
2, 152601, Note_on_c, 10, 81, 127
2, 152807, Note_off_c, 10, 81, 127
2, 152807, Note_off_c, 3, 75, 127
2, 152808, Note_off_c, 0, 60, 127
2, 152809, Note_off_c, 5, 53, 127
2, 152809, Note_on_c, 11, 46, 127
2, 152809, Note_on_c, 11, 58, 127
2, 152809, Note_on_c, 11, 82, 127
2, 152809, Note_on_c, 1, 73, 127
2, 153212, Note_off_c, 11, 46, 127
2, 153227, Note_off_c, 1, 73, 127
2, 153227, Note_off_c, 11, 82, 127
2, 153227, Note_off_c, 11, 58, 127
2, 153228, Note_on_c, 0, 60, 127
2, 153228, Note_on_c, 0, 72, 127
2, 153228, Note_on_c, 8, 80, 127
2, 153434, Note_off_c, 0, 60, 127
2, 153436, Note_on_c, 1, 61, 127
2, 153642, Note_off_c, 1, 61, 127
2, 153642, Note_off_c, 8, 80, 127
2, 153642, Note_off_c, 0, 72, 127
2, 153643, Note_on_c, 3, 63, 127
2, 153643, Note_on_c, 6, 78, 127
2, 153643, Note_on_c, 11, 70, 127
2, 154061, Note_off_c, 6, 78, 127
2, 154061, Note_off_c, 3, 63, 127
2, 154062, Note_on_c, 5, 65, 127
2, 154062, Note_on_c, 1, 61, 127
2, 154062, Note_on_c, 5, 77, 127
2, 154480, Note_off_c, 5, 77, 127
2, 154480, Note_off_c, 1, 61, 127
2, 154480, Note_off_c, 5, 65, 127
2, 154481, Note_on_c, 6, 66, 127
2, 154481, Note_on_c, 0, 60, 127
2, 154481, Note_on_c, 3, 75, 127
2, 154898, Note_off_c, 11, 70, 127
2, 154899, Note_off_c, 0, 60, 127
2, 154900, Note_on_c, 11, 58, 127
2, 154900, Note_on_c, 10, 69, 127
2, 155106, Note_off_c, 10, 69, 127
2, 155108, Note_on_c, 11, 70, 127
2, 155314, Note_off_c, 11, 70, 127
2, 155314, Note_off_c, 11, 58, 127
2, 155315, Note_off_c, 6, 66, 127
2, 155316, Note_on_c, 10, 57, 127
2, 155316, Note_on_c, 5, 65, 127
2, 155316, Note_on_c, 0, 72, 127
2, 155733, Note_off_c, 3, 75, 127
2, 155734, Note_off_c, 0, 72, 127
2, 155734, Note_off_c, 5, 65, 127
2, 155734, Note_off_c, 10, 57, 127
2, 155734, Note_on_c, 3, 63, 127
2, 155734, Note_on_c, 5, 53, 127
2, 155734, Note_on_c, 10, 69, 127
2, 155734, Note_on_c, 5, 77, 127
2, 155940, Note_off_c, 5, 77, 127
2, 155942, Note_on_c, 6, 78, 127
2, 156145, Note_off_c, 10, 69, 127
2, 156148, Note_off_c, 6, 78, 127
2, 156148, Note_off_c, 5, 53, 127
2, 156148, Note_off_c, 3, 63, 127
2, 156150, Note_on_c, 7, 55, 127
2, 156150, Note_on_c, 1, 61, 127
2, 156150, Note_on_c, 11, 70, 127
2, 156150, Note_on_c, 5, 77, 127
2, 156568, Note_off_c, 5, 77, 127
2, 156568, Note_off_c, 11, 70, 127
2, 156568, Note_off_c, 1, 61, 127
2, 156568, Note_off_c, 7, 55, 127
2, 156569, Note_on_c, 0, 60, 127
2, 156569, Note_on_c, 10, 57, 127
2, 156569, Note_on_c, 3, 75, 127
2, 156569, Note_on_c, 0, 72, 127
2, 156987, Note_off_c, 3, 75, 127
2, 156987, Note_off_c, 10, 57, 127
2, 156987, Note_off_c, 0, 60, 127
2, 156988, Note_on_c, 11, 46, 127
2, 156988, Note_on_c, 11, 58, 127
2, 156988, Note_on_c, 1, 61, 127
2, 156988, Note_on_c, 1, 73, 127
2, 157406, Note_off_c, 1, 61, 127
2, 157406, Note_off_c, 11, 58, 127
2, 157406, Note_off_c, 0, 72, 127
2, 157407, Note_on_c, 0, 48, 127
2, 157407, Note_on_c, 3, 63, 127
2, 157407, Note_on_c, 11, 70, 127
2, 157613, Note_off_c, 11, 70, 127
2, 157614, Note_on_c, 10, 69, 127
2, 157818, Note_off_c, 3, 63, 127
2, 157820, Note_off_c, 10, 69, 127
2, 157821, Note_off_c, 0, 48, 127
2, 157822, Note_off_c, 11, 46, 127
2, 157822, Note_on_c, 5, 41, 127
2, 157822, Note_on_c, 1, 49, 127
2, 157822, Note_on_c, 11, 70, 127
2, 157822, Note_on_c, 5, 65, 127
2, 158240, Note_off_c, 5, 65, 127
2, 158240, Note_off_c, 1, 49, 127
2, 158241, Note_on_c, 3, 51, 127
2, 158241, Note_on_c, 6, 66, 127
2, 158652, Note_off_c, 1, 73, 127
2, 158659, Note_off_c, 6, 66, 127
2, 158659, Note_off_c, 3, 51, 127
2, 158660, Note_on_c, 5, 53, 127
2, 158660, Note_on_c, 0, 60, 127
2, 158660, Note_on_c, 0, 72, 127
2, 158965, Note_off_c, 5, 41, 127
2, 159074, Note_off_c, 5, 53, 127
2, 159076, Note_on_c, 6, 54, 127
2, 159486, Note_off_c, 11, 70, 127
2, 159494, Note_off_c, 6, 54, 127
2, 159494, Note_off_c, 0, 60, 127
2, 159494, Note_on_c, 5, 53, 127
2, 159494, Note_on_c, 8, 56, 127
2, 159494, Note_on_c, 5, 65, 127
2, 159494, Note_on_c, 8, 68, 127
2, 159912, Note_off_c, 5, 53, 127
2, 159914, Note_on_c, 3, 51, 127
2, 160324, Note_off_c, 0, 72, 127
2, 160331, Note_off_c, 8, 56, 127
2, 160332, Note_off_c, 3, 51, 127
2, 160332, Note_on_c, 2, 50, 127
2, 160332, Note_on_c, 11, 58, 127
2, 160332, Note_on_c, 11, 70, 127
2, 160749, Note_off_c, 5, 65, 127
2, 160750, Note_off_c, 2, 50, 127
2, 160751, Note_on_c, 11, 46, 127
2, 160751, Note_on_c, 2, 62, 127
2, 161169, Note_off_c, 2, 62, 127
2, 161169, Note_off_c, 11, 46, 127
2, 161171, Note_on_c, 0, 48, 127
2, 161171, Note_on_c, 3, 63, 127
2, 161589, Note_off_c, 3, 63, 127
2, 161589, Note_off_c, 0, 48, 127
2, 161589, Note_on_c, 2, 50, 127
2, 161589, Note_on_c, 5, 65, 127
2, 162003, Note_off_c, 8, 68, 127
2, 162007, Note_off_c, 2, 50, 127
2, 162008, Note_on_c, 3, 51, 127
2, 162008, Note_on_c, 6, 66, 127
2, 162426, Note_off_c, 3, 51, 127
2, 162426, Note_off_c, 5, 65, 127
2, 162426, Note_on_c, 5, 53, 127
2, 162426, Note_on_c, 3, 63, 127
2, 162632, Note_off_c, 3, 63, 127
2, 162635, Note_on_c, 2, 62, 127
2, 162840, Note_off_c, 5, 53, 127
2, 162841, Note_off_c, 2, 62, 127
2, 162842, Note_on_c, 3, 51, 127
2, 162842, Note_on_c, 3, 63, 127
2, 163252, Note_off_c, 11, 70, 127
2, 163260, Note_off_c, 3, 51, 127
2, 163260, Note_on_c, 1, 49, 127
2, 163260, Note_on_c, 3, 75, 127
2, 163672, Note_off_c, 11, 58, 127
2, 163678, Note_off_c, 3, 75, 127
2, 163678, Note_off_c, 1, 49, 127
2, 163680, Note_on_c, 0, 48, 127
2, 163680, Note_on_c, 0, 60, 127
2, 163680, Note_on_c, 8, 68, 127
2, 164098, Note_off_c, 0, 60, 127
2, 164098, Note_off_c, 0, 48, 127
2, 164099, Note_on_c, 0, 48, 127
2, 164099, Note_on_c, 8, 44, 127
2, 164517, Note_off_c, 8, 44, 127
2, 164517, Note_off_c, 0, 48, 127
2, 164518, Note_on_c, 1, 49, 127
2, 164518, Note_on_c, 11, 46, 127
2, 164936, Note_off_c, 11, 46, 127
2, 164936, Note_off_c, 1, 49, 127
2, 164937, Note_on_c, 0, 48, 127
2, 164937, Note_on_c, 3, 51, 127
2, 165348, Note_off_c, 6, 66, 127
2, 165351, Note_off_c, 3, 63, 127
2, 165355, Note_off_c, 3, 51, 127
2, 165355, Note_off_c, 0, 48, 127
2, 165356, Note_on_c, 5, 53, 127
2, 165356, Note_on_c, 1, 49, 127
2, 165356, Note_on_c, 5, 65, 127
2, 165774, Note_off_c, 5, 53, 127
2, 165774, Note_on_c, 3, 51, 127
2, 166189, Note_off_c, 8, 68, 127
2, 166192, Note_off_c, 3, 51, 127
2, 166193, Note_off_c, 5, 65, 127
2, 166193, Note_off_c, 1, 49, 127
2, 166194, Note_on_c, 5, 53, 127
2, 166194, Note_on_c, 11, 46, 127
2, 166194, Note_on_c, 1, 73, 127
2, 166194, Note_on_c, 11, 70, 127
2, 166194, Note_on_c, 5, 65, 127
2, 166612, Note_off_c, 5, 53, 127
2, 166613, Note_on_c, 6, 54, 127
2, 167031, Note_off_c, 6, 54, 127
2, 167031, Note_off_c, 11, 70, 127
2, 167031, Note_off_c, 1, 73, 127
2, 167031, Note_off_c, 11, 46, 127
2, 167031, Note_on_c, 8, 56, 127
2, 167031, Note_on_c, 5, 53, 127
2, 167031, Note_on_c, 8, 68, 127
2, 167031, Note_on_c, 0, 72, 127
2, 167449, Note_off_c, 8, 56, 127
2, 167451, Note_on_c, 11, 58, 127
2, 167657, Note_off_c, 11, 58, 127
2, 167658, Note_on_c, 0, 60, 127
2, 167864, Note_off_c, 0, 60, 127
2, 167865, Note_off_c, 0, 72, 127
2, 167865, Note_off_c, 8, 68, 127
2, 167865, Note_off_c, 5, 53, 127
2, 167865, Note_on_c, 1, 49, 127
2, 167865, Note_on_c, 11, 58, 127
2, 167865, Note_on_c, 5, 77, 127
2, 167865, Note_on_c, 1, 73, 127
2, 168283, Note_off_c, 11, 58, 127
2, 168285, Note_on_c, 8, 56, 127
2, 168699, Note_off_c, 5, 65, 127
2, 168702, Note_off_c, 1, 49, 127
2, 168703, Note_off_c, 8, 56, 127
2, 168703, Note_on_c, 3, 51, 127
2, 168703, Note_on_c, 6, 54, 127
2, 168703, Note_on_c, 11, 70, 127
2, 169120, Note_off_c, 1, 73, 127
2, 169121, Note_off_c, 11, 70, 127
2, 169121, Note_off_c, 6, 54, 127
2, 169121, Note_off_c, 3, 51, 127
2, 169122, Note_on_c, 5, 53, 127
2, 169122, Note_on_c, 8, 56, 127
2, 169122, Note_on_c, 8, 68, 127
2, 169122, Note_on_c, 0, 72, 127
2, 169533, Note_off_c, 5, 77, 127
2, 169540, Note_off_c, 0, 72, 127
2, 169540, Note_off_c, 8, 68, 127
2, 169540, Note_off_c, 8, 56, 127
2, 169540, Note_off_c, 5, 53, 127
2, 169540, Note_on_c, 6, 54, 127
2, 169540, Note_on_c, 11, 58, 127
2, 169540, Note_on_c, 11, 70, 127
2, 169540, Note_on_c, 6, 66, 127
2, 169540, Note_on_c, 3, 75, 127
2, 169958, Note_off_c, 3, 75, 127
2, 169958, Note_off_c, 6, 66, 127
2, 169958, Note_off_c, 11, 58, 127
2, 169960, Note_on_c, 0, 60, 127
2, 169960, Note_on_c, 1, 73, 127
2, 169960, Note_on_c, 5, 65, 127
2, 170166, Note_off_c, 0, 60, 127
2, 170168, Note_on_c, 1, 61, 127
2, 170374, Note_off_c, 1, 61, 127
2, 170374, Note_off_c, 5, 65, 127
2, 170374, Note_off_c, 1, 73, 127
2, 170374, Note_off_c, 11, 70, 127
2, 170375, Note_on_c, 8, 56, 127
2, 170375, Note_on_c, 8, 68, 127
2, 170375, Note_on_c, 3, 63, 127
2, 170375, Note_on_c, 0, 72, 127
2, 170792, Note_off_c, 6, 54, 127
2, 170798, Note_on_c, 5, 53, 127
2, 171215, Note_off_c, 0, 72, 127
2, 171215, Note_off_c, 3, 63, 127
2, 171216, Note_off_c, 5, 53, 127
2, 171218, Note_on_c, 3, 51, 127
2, 171218, Note_on_c, 1, 73, 127
2, 171218, Note_on_c, 5, 65, 127
2, 171636, Note_off_c, 3, 51, 127
2, 171636, Note_on_c, 1, 49, 127
2, 172046, Note_off_c, 8, 56, 127
2, 172054, Note_off_c, 1, 49, 127
2, 172055, Note_off_c, 5, 65, 127
2, 172055, Note_on_c, 8, 56, 127
2, 172055, Note_on_c, 3, 63, 127
2, 172472, Note_off_c, 8, 68, 127
2, 172474, Note_on_c, 11, 70, 127
2, 172886, Note_off_c, 1, 73, 127
2, 172892, Note_off_c, 11, 70, 127
2, 172893, Note_on_c, 8, 44, 127
2, 172893, Note_on_c, 8, 68, 127
2, 172893, Note_on_c, 0, 72, 127
2, 173311, Note_off_c, 8, 68, 127
2, 173311, Note_on_c, 6, 66, 127
2, 173723, Note_off_c, 3, 63, 127
2, 173729, Note_off_c, 6, 66, 127
2, 173730, Note_off_c, 0, 72, 127
2, 173730, Note_off_c, 8, 44, 127
2, 173731, Note_on_c, 1, 49, 127
2, 173731, Note_on_c, 1, 61, 127
2, 173731, Note_on_c, 5, 65, 127
2, 173731, Note_on_c, 1, 73, 127
2, 174149, Note_off_c, 5, 65, 127
2, 174149, Note_off_c, 1, 61, 127
2, 174149, Note_on_c, 0, 60, 127
2, 174149, Note_on_c, 3, 63, 127
2, 174564, Note_off_c, 8, 56, 127
2, 174567, Note_off_c, 3, 63, 127
2, 174567, Note_off_c, 0, 60, 127
2, 174568, Note_off_c, 1, 73, 127
2, 174568, Note_off_c, 1, 49, 127
2, 174568, Note_on_c, 8, 68, 127
2, 174568, Note_on_c, 1, 61, 127
2, 174568, Note_on_c, 5, 65, 127
2, 174986, Note_off_c, 5, 65, 127
2, 174986, Note_off_c, 1, 61, 127
2, 174986, Note_on_c, 6, 66, 127
2, 174986, Note_on_c, 3, 63, 127
2, 175404, Note_off_c, 3, 63, 127
2, 175404, Note_off_c, 6, 66, 127
2, 175405, Note_off_c, 8, 68, 127
2, 175406, Note_on_c, 5, 65, 127
2, 175406, Note_on_c, 8, 68, 127
2, 175824, Note_on_c, 12, 83, 127
2, 176242, Note_off_c, 12, 83, 127
2, 176243, Note_off_c, 8, 68, 127
2, 176243, Note_off_c, 5, 65, 127
2, 176243, Note_on_c, 2, 62, 127
2, 176243, Note_on_c, 5, 65, 127
2, 176243, Note_on_c, 11, 82, 127
2, 176661, Note_off_c, 11, 82, 127
2, 176663, Note_on_c, 8, 80, 127
2, 177080, Note_off_c, 5, 65, 127
2, 177080, Note_off_c, 2, 62, 127
2, 177081, Note_off_c, 8, 80, 127
2, 177081, Note_on_c, 11, 70, 127
2, 177081, Note_on_c, 3, 63, 127
2, 177081, Note_on_c, 6, 78, 127
2, 177499, Note_off_c, 6, 78, 127
2, 177500, Note_on_c, 5, 77, 127
2, 177918, Note_off_c, 5, 77, 127
2, 177918, Note_off_c, 3, 63, 127
2, 177918, Note_off_c, 11, 70, 127
2, 177920, Note_on_c, 3, 63, 127
2, 177920, Note_on_c, 6, 78, 127
2, 178338, Note_off_c, 6, 78, 127
2, 178339, Note_on_c, 5, 65, 127
2, 178339, Note_on_c, 8, 80, 127
2, 178757, Note_off_c, 8, 80, 127
2, 178757, Note_off_c, 5, 65, 127
2, 178757, Note_off_c, 3, 63, 127
2, 178757, Note_on_c, 6, 66, 127
2, 178757, Note_on_c, 11, 82, 127
2, 179175, Note_off_c, 11, 82, 127
2, 179175, Note_off_c, 6, 66, 127
2, 179177, Note_on_c, 3, 63, 127
2, 179177, Note_on_c, 10, 81, 127
2, 179177, Note_on_c, 6, 78, 127
2, 179383, Note_off_c, 10, 81, 127
2, 179384, Note_on_c, 11, 82, 127
2, 179588, Note_off_c, 6, 78, 127
2, 179588, Note_off_c, 3, 63, 127
2, 179590, Note_off_c, 11, 82, 127
2, 179591, Note_on_c, 0, 84, 127
2, 179591, Note_on_c, 5, 77, 127
2, 179591, Note_on_c, 10, 69, 127
2, 180009, Note_off_c, 10, 69, 127
2, 180009, Note_off_c, 5, 77, 127
2, 180011, Note_on_c, 7, 67, 127
2, 180011, Note_on_c, 3, 75, 127
2, 180217, Note_off_c, 7, 67, 127
2, 180219, Note_on_c, 5, 65, 127
2, 180422, Note_off_c, 3, 75, 127
2, 180425, Note_off_c, 5, 65, 127
2, 180425, Note_on_c, 11, 58, 127
2, 180425, Note_on_c, 11, 70, 127
2, 180425, Note_on_c, 1, 73, 127
2, 180843, Note_off_c, 11, 70, 127
2, 180843, Note_off_c, 0, 84, 127
2, 180845, Note_on_c, 11, 82, 127
2, 180845, Note_on_c, 5, 77, 127
2, 181262, Note_off_c, 1, 73, 127
2, 181262, Note_off_c, 11, 58, 127
2, 181263, Note_off_c, 5, 77, 127
2, 181264, Note_on_c, 5, 53, 127
2, 181264, Note_on_c, 3, 75, 127
2, 181264, Note_on_c, 0, 72, 127
2, 181682, Note_off_c, 11, 82, 127
2, 181682, Note_on_c, 10, 81, 127
2, 182100, Note_off_c, 10, 81, 127
2, 182101, Note_off_c, 0, 72, 127
2, 182101, Note_off_c, 3, 75, 127
2, 182102, Note_on_c, 11, 82, 127
2, 182102, Note_on_c, 11, 70, 127
2, 182102, Note_on_c, 2, 74, 127
2, 182407, Note_off_c, 5, 53, 127
2, 182520, Note_on_c, 6, 66, 127
2, 182938, Note_off_c, 6, 66, 127
2, 182939, Note_off_c, 2, 74, 127
2, 182940, Note_on_c, 5, 65, 127
2, 182940, Note_on_c, 3, 75, 127
2, 183358, Note_off_c, 5, 65, 127
2, 183358, Note_on_c, 3, 63, 127
2, 183776, Note_off_c, 3, 63, 127
2, 183777, Note_off_c, 3, 75, 127
2, 183778, Note_on_c, 2, 62, 127
2, 183778, Note_on_c, 5, 77, 127
2, 184196, Note_off_c, 2, 62, 127
2, 184196, Note_on_c, 11, 58, 127
2, 184611, Note_off_c, 11, 82, 127
2, 184614, Note_off_c, 11, 58, 127
2, 184615, Note_on_c, 0, 60, 127
2, 184615, Note_on_c, 8, 80, 127
2, 185033, Note_off_c, 0, 60, 127
2, 185034, Note_on_c, 2, 62, 127
2, 185452, Note_off_c, 2, 62, 127
2, 185452, Note_off_c, 8, 80, 127
2, 185453, Note_on_c, 3, 51, 127
2, 185453, Note_on_c, 3, 63, 127
2, 185453, Note_on_c, 6, 78, 127
2, 185871, Note_off_c, 3, 63, 127
2, 185871, Note_off_c, 5, 77, 127
2, 185871, Note_on_c, 5, 53, 127
2, 185871, Note_on_c, 3, 75, 127
2, 186077, Note_off_c, 3, 75, 127
2, 186080, Note_on_c, 2, 74, 127
2, 186285, Note_off_c, 5, 53, 127
2, 186286, Note_off_c, 2, 74, 127
2, 186287, Note_off_c, 3, 51, 127
2, 186287, Note_on_c, 11, 46, 127
2, 186287, Note_on_c, 6, 54, 127
2, 186287, Note_on_c, 3, 75, 127
2, 186705, Note_off_c, 6, 54, 127
2, 186706, Note_on_c, 8, 56, 127
2, 187117, Note_off_c, 6, 78, 127
2, 187124, Note_off_c, 8, 56, 127
2, 187125, Note_on_c, 11, 58, 127
2, 187125, Note_on_c, 5, 77, 127
2, 187430, Note_off_c, 11, 46, 127
2, 187539, Note_off_c, 11, 58, 127
2, 187540, Note_on_c, 12, 59, 127
2, 187951, Note_off_c, 3, 75, 127
2, 187958, Note_off_c, 12, 59, 127
2, 187959, Note_off_c, 5, 77, 127
2, 187960, Note_on_c, 11, 58, 127
2, 187960, Note_on_c, 1, 61, 127
2, 187960, Note_on_c, 1, 73, 127
2, 187960, Note_on_c, 4, 76, 127
2, 188378, Note_off_c, 11, 58, 127
2, 188379, Note_on_c, 8, 56, 127
2, 188797, Note_off_c, 8, 56, 127
2, 188797, Note_off_c, 4, 76, 127
2, 188797, Note_off_c, 1, 61, 127
2, 188797, Note_on_c, 7, 55, 127
2, 188797, Note_on_c, 3, 63, 127
2, 188797, Note_on_c, 3, 75, 127
2, 189215, Note_off_c, 3, 75, 127
2, 189215, Note_off_c, 3, 63, 127
2, 189215, Note_off_c, 7, 55, 127
2, 189215, Note_off_c, 1, 73, 127
2, 189217, Note_on_c, 3, 51, 127
2, 189217, Note_on_c, 7, 55, 127
2, 189217, Note_on_c, 3, 75, 127
2, 189423, Note_off_c, 3, 75, 127
2, 189424, Note_on_c, 4, 76, 127
2, 189630, Note_off_c, 4, 76, 127
2, 189631, Note_off_c, 7, 55, 127
2, 189631, Note_off_c, 3, 51, 127
2, 189631, Note_on_c, 8, 56, 127
2, 189631, Note_on_c, 5, 53, 127
2, 189631, Note_on_c, 3, 75, 127
2, 190049, Note_off_c, 5, 53, 127
2, 190049, Note_off_c, 8, 56, 127
2, 190051, Note_on_c, 7, 55, 127
2, 190051, Note_on_c, 11, 58, 127
2, 190051, Note_on_c, 1, 73, 127
2, 190462, Note_off_c, 11, 70, 127
2, 190469, Note_off_c, 1, 73, 127
2, 190469, Note_off_c, 11, 58, 127
2, 190469, Note_off_c, 7, 55, 127
2, 190469, Note_on_c, 12, 59, 127
2, 190469, Note_on_c, 8, 56, 127
2, 190469, Note_on_c, 8, 68, 127
2, 190469, Note_on_c, 12, 71, 127
2, 190887, Note_off_c, 8, 68, 127
2, 190887, Note_off_c, 8, 56, 127
2, 190887, Note_off_c, 12, 59, 127
2, 190888, Note_on_c, 6, 54, 127
2, 190888, Note_on_c, 11, 58, 127
2, 190888, Note_on_c, 11, 70, 127
2, 191299, Note_off_c, 3, 75, 127
2, 191306, Note_off_c, 11, 70, 127
2, 191306, Note_off_c, 11, 58, 127
2, 191306, Note_off_c, 6, 54, 127
2, 191306, Note_off_c, 12, 71, 127
2, 191308, Note_on_c, 8, 56, 127
2, 191308, Note_on_c, 4, 52, 127
2, 191308, Note_on_c, 4, 76, 127
2, 191308, Note_on_c, 12, 71, 127
2, 191308, Note_on_c, 8, 80, 127
2, 191726, Note_off_c, 4, 52, 127
2, 191726, Note_off_c, 8, 56, 127
2, 191726, Note_on_c, 3, 51, 127
2, 191726, Note_on_c, 6, 54, 127
2, 192144, Note_off_c, 6, 54, 127
2, 192144, Note_off_c, 3, 51, 127
2, 192145, Note_off_c, 12, 71, 127
2, 192145, Note_on_c, 4, 52, 127
2, 192145, Note_on_c, 1, 49, 127
2, 192145, Note_on_c, 11, 70, 127
2, 192355, Note_off_c, 4, 76, 127
2, 192356, Note_on_c, 4, 76, 127
2, 192562, Note_off_c, 4, 76, 127
2, 192563, Note_off_c, 1, 49, 127
2, 192563, Note_on_c, 11, 46, 127
2, 192563, Note_on_c, 3, 75, 127
2, 192976, Note_off_c, 8, 80, 127
2, 192981, Note_off_c, 11, 46, 127
2, 192982, Note_off_c, 4, 52, 127
2, 192983, Note_on_c, 3, 51, 127
2, 192983, Note_on_c, 7, 79, 127
2, 193188, Note_off_c, 3, 75, 127
2, 193190, Note_on_c, 4, 76, 127
2, 193396, Note_off_c, 4, 76, 127
2, 193398, Note_on_c, 3, 39, 127
2, 193398, Note_on_c, 3, 75, 127
2, 193604, Note_off_c, 3, 75, 127
2, 193606, Note_on_c, 1, 73, 127
2, 193809, Note_off_c, 11, 70, 127
2, 193815, Note_off_c, 1, 73, 127
2, 193816, Note_off_c, 3, 39, 127
2, 193817, Note_off_c, 7, 79, 127
2, 193818, Note_on_c, 8, 44, 127
2, 193818, Note_on_c, 8, 68, 127
2, 193818, Note_on_c, 8, 80, 127
2, 193818, Note_on_c, 0, 72, 127
2, 194235, Note_off_c, 3, 51, 127
2, 194240, Note_on_c, 8, 56, 127
2, 194658, Note_off_c, 8, 56, 127
2, 194658, Note_off_c, 0, 72, 127
2, 194658, Note_off_c, 8, 80, 127
2, 194658, Note_off_c, 8, 68, 127
2, 194658, Note_off_c, 8, 44, 127
2, 194659, Note_on_c, 11, 46, 127
2, 194659, Note_on_c, 6, 54, 127
2, 194659, Note_on_c, 1, 61, 127
2, 195077, Note_off_c, 6, 54, 127
2, 195077, Note_off_c, 11, 46, 127
2, 195077, Note_on_c, 8, 44, 127
2, 195077, Note_on_c, 5, 53, 127
2, 195495, Note_off_c, 5, 53, 127
2, 195495, Note_off_c, 8, 44, 127
2, 195497, Note_on_c, 6, 42, 127
2, 195497, Note_on_c, 3, 51, 127
2, 195802, Note_off_c, 1, 61, 127
2, 195911, Note_off_c, 3, 51, 127
2, 195911, Note_on_c, 1, 49, 127
2, 195911, Note_on_c, 5, 77, 127
2, 196329, Note_off_c, 5, 77, 127
2, 196329, Note_off_c, 1, 49, 127
2, 196331, Note_off_c, 6, 42, 127
2, 196331, Note_on_c, 11, 58, 127
2, 196331, Note_on_c, 6, 54, 127
2, 196331, Note_on_c, 3, 75, 127
2, 196749, Note_off_c, 3, 75, 127
2, 196750, Note_on_c, 1, 73, 127
2, 197168, Note_off_c, 1, 73, 127
2, 197168, Note_off_c, 11, 58, 127
2, 197168, Note_on_c, 8, 56, 127
2, 197168, Note_on_c, 0, 72, 127
2, 197586, Note_off_c, 0, 72, 127
2, 197586, Note_off_c, 8, 56, 127
2, 197586, Note_off_c, 6, 54, 127
2, 197588, Note_on_c, 5, 53, 127
2, 197588, Note_on_c, 8, 68, 127
2, 197588, Note_on_c, 6, 66, 127
2, 198006, Note_off_c, 6, 66, 127
2, 198006, Note_off_c, 8, 68, 127
2, 198006, Note_off_c, 5, 53, 127
2, 198006, Note_on_c, 6, 54, 127
2, 198006, Note_on_c, 5, 65, 127
2, 198006, Note_on_c, 11, 70, 127
2, 198424, Note_off_c, 11, 70, 127
2, 198424, Note_off_c, 5, 65, 127
2, 198424, Note_off_c, 6, 54, 127
2, 198425, Note_on_c, 8, 56, 127
2, 198425, Note_on_c, 3, 63, 127
2, 198425, Note_on_c, 0, 72, 127
2, 198843, Note_off_c, 0, 72, 127
2, 198843, Note_off_c, 3, 63, 127
2, 198843, Note_off_c, 8, 56, 127
2, 198843, Note_on_c, 11, 58, 127
2, 198843, Note_on_c, 1, 61, 127
2, 198843, Note_on_c, 1, 73, 127
2, 199261, Note_off_c, 1, 61, 127
2, 199263, Note_on_c, 6, 66, 127
2, 199680, Note_off_c, 11, 58, 127
2, 199681, Note_on_c, 6, 54, 127
2, 200100, Note_off_c, 6, 66, 127
2, 200100, Note_on_c, 5, 65, 127
2, 200518, Note_off_c, 5, 65, 127
2, 200518, Note_off_c, 6, 54, 127
2, 200520, Note_on_c, 8, 56, 127
2, 200520, Note_on_c, 3, 63, 127
2, 200938, Note_off_c, 8, 56, 127
2, 200939, Note_on_c, 11, 58, 127
2, 201352, Note_off_c, 1, 73, 127
2, 201357, Note_off_c, 11, 58, 127
2, 201358, Note_on_c, 8, 56, 127
2, 201358, Note_on_c, 0, 72, 127
2, 201776, Note_off_c, 8, 56, 127
2, 201777, Note_on_c, 6, 54, 127
2, 202188, Note_off_c, 3, 63, 127
2, 202195, Note_off_c, 6, 54, 127
2, 202195, Note_off_c, 0, 72, 127
2, 202196, Note_on_c, 8, 56, 127
2, 202196, Note_on_c, 5, 53, 127
2, 202196, Note_on_c, 1, 73, 127
2, 202614, Note_off_c, 1, 73, 127
2, 202614, Note_on_c, 12, 71, 127
2, 202820, Note_off_c, 12, 71, 127
2, 202822, Note_on_c, 11, 70, 127
2, 203028, Note_off_c, 11, 70, 127
2, 203030, Note_off_c, 8, 56, 127
2, 203030, Note_on_c, 12, 71, 127
2, 203030, Note_on_c, 8, 68, 127
2, 203448, Note_off_c, 8, 68, 127
2, 203448, Note_off_c, 5, 53, 127
2, 203448, Note_on_c, 3, 51, 127
2, 203448, Note_on_c, 6, 66, 127
2, 203654, Note_off_c, 6, 66, 127
2, 203654, Note_off_c, 3, 51, 127
2, 203657, Note_on_c, 1, 49, 127
2, 203657, Note_on_c, 5, 65, 127
2, 203863, Note_off_c, 5, 65, 127
2, 203863, Note_off_c, 1, 49, 127
2, 203864, Note_on_c, 3, 51, 127
2, 203864, Note_on_c, 6, 66, 127
2, 204282, Note_off_c, 6, 66, 127
2, 204282, Note_off_c, 3, 51, 127
2, 204282, Note_off_c, 12, 71, 127
2, 204282, Note_on_c, 5, 53, 127
2, 204282, Note_on_c, 11, 70, 127
2, 204282, Note_on_c, 1, 61, 127
2, 204488, Note_off_c, 11, 70, 127
2, 204491, Note_on_c, 8, 68, 127
2, 204696, Note_off_c, 5, 53, 127
2, 204697, Note_off_c, 8, 68, 127
2, 204699, Note_on_c, 6, 54, 127
2, 204699, Note_on_c, 11, 70, 127
2, 205116, Note_off_c, 1, 61, 127
2, 205117, Note_off_c, 11, 70, 127
2, 205117, Note_on_c, 3, 63, 127
2, 205117, Note_on_c, 0, 72, 127
2, 205535, Note_off_c, 0, 72, 127
2, 205535, Note_off_c, 3, 63, 127
2, 205537, Note_on_c, 8, 56, 127
2, 205537, Note_on_c, 1, 73, 127
2, 205954, Note_off_c, 6, 54, 127
2, 205955, Note_off_c, 8, 56, 127
2, 205956, Note_on_c, 5, 53, 127
2, 205956, Note_on_c, 8, 68, 127
2, 206162, Note_off_c, 8, 68, 127
2, 206162, Note_off_c, 5, 53, 127
2, 206162, Note_on_c, 3, 51, 127
2, 206162, Note_on_c, 6, 66, 127
2, 206368, Note_off_c, 6, 66, 127
2, 206368, Note_off_c, 3, 51, 127
2, 206371, Note_on_c, 5, 53, 127
2, 206371, Note_on_c, 8, 68, 127
2, 206789, Note_off_c, 8, 68, 127
2, 206789, Note_off_c, 5, 53, 127
2, 206789, Note_off_c, 1, 73, 127
2, 206790, Note_on_c, 7, 55, 127
2, 206790, Note_on_c, 3, 63, 127
2, 206790, Note_on_c, 0, 72, 127
2, 206996, Note_off_c, 0, 72, 127
2, 206997, Note_on_c, 11, 70, 127
2, 207203, Note_off_c, 11, 70, 127
2, 207204, Note_off_c, 7, 55, 127
2, 207205, Note_on_c, 8, 56, 127
2, 207205, Note_on_c, 0, 72, 127
2, 207623, Note_off_c, 0, 72, 127
2, 207624, Note_off_c, 3, 63, 127
2, 207624, Note_on_c, 2, 74, 127
2, 207624, Note_on_c, 5, 65, 127
2, 208042, Note_off_c, 5, 65, 127
2, 208042, Note_off_c, 2, 74, 127
2, 208042, Note_on_c, 11, 58, 127
2, 208042, Note_on_c, 3, 75, 127
2, 208460, Note_off_c, 8, 56, 127
2, 208465, Note_on_c, 7, 55, 127
2, 208671, Note_off_c, 7, 55, 127
2, 208674, Note_on_c, 5, 53, 127
2, 208880, Note_off_c, 5, 53, 127
2, 208880, Note_on_c, 7, 55, 127
2, 209297, Note_off_c, 3, 75, 127
2, 209297, Note_off_c, 11, 58, 127
2, 209298, Note_off_c, 7, 55, 127
2, 209300, Note_on_c, 10, 57, 127
2, 209300, Note_on_c, 5, 65, 127
2, 209300, Note_on_c, 1, 73, 127
2, 209506, Note_off_c, 1, 73, 127
2, 209508, Note_on_c, 0, 72, 127
2, 209714, Note_off_c, 0, 72, 127
2, 209714, Note_off_c, 10, 57, 127
2, 209715, Note_on_c, 11, 58, 127
2, 209715, Note_on_c, 1, 73, 127
2, 209921, Note_off_c, 1, 73, 127
2, 209921, Note_off_c, 11, 58, 127
2, 209922, Note_on_c, 0, 60, 127
2, 209922, Note_on_c, 3, 75, 127
2, 210128, Note_off_c, 3, 75, 127
2, 210128, Note_off_c, 0, 60, 127
2, 210130, Note_off_c, 5, 65, 127
2, 210131, Note_on_c, 11, 58, 127
2, 210131, Note_on_c, 1, 73, 127
2, 210337, Note_off_c, 1, 73, 127
2, 210339, Note_on_c, 0, 60, 127
2, 210339, Note_on_c, 3, 75, 127
2, 210542, Note_off_c, 11, 58, 127
2, 210545, Note_off_c, 3, 75, 127
2, 210545, Note_off_c, 0, 60, 127
2, 210546, Note_on_c, 1, 61, 127
2, 210546, Note_on_c, 5, 77, 127
2, 210752, Note_off_c, 1, 61, 127
2, 210754, Note_on_c, 0, 60, 127
2, 210960, Note_off_c, 0, 60, 127
2, 210961, Note_on_c, 11, 58, 127
2, 210961, Note_on_c, 1, 73, 127
2, 211167, Note_off_c, 11, 58, 127
2, 211169, Note_on_c, 8, 56, 127
2, 211375, Note_off_c, 8, 56, 127
2, 211375, Note_off_c, 1, 73, 127
2, 211376, Note_off_c, 5, 77, 127
2, 211378, Note_on_c, 6, 54, 127
2, 211378, Note_on_c, 3, 75, 127
2, 211378, Note_on_c, 0, 72, 127
2, 211584, Note_off_c, 6, 54, 127
2, 211584, Note_on_c, 5, 53, 127
2, 211790, Note_off_c, 5, 53, 127
2, 211792, Note_off_c, 0, 72, 127
2, 211792, Note_on_c, 6, 54, 127
2, 211792, Note_on_c, 11, 70, 127
2, 211998, Note_off_c, 6, 54, 127
2, 212000, Note_on_c, 3, 51, 127
2, 212206, Note_off_c, 3, 51, 127
2, 212206, Note_off_c, 11, 70, 127
2, 212208, Note_on_c, 5, 53, 127
2, 212208, Note_on_c, 10, 69, 127
2, 212414, Note_off_c, 10, 69, 127
2, 212417, Note_on_c, 11, 70, 127
2, 212623, Note_off_c, 11, 70, 127
2, 212623, Note_off_c, 3, 75, 127
2, 212623, Note_on_c, 3, 75, 127
2, 212623, Note_on_c, 0, 72, 127
2, 212829, Note_off_c, 0, 72, 127
2, 212831, Note_on_c, 10, 69, 127
2, 213034, Note_off_c, 3, 75, 127
2, 213037, Note_off_c, 10, 69, 127
2, 213038, Note_off_c, 5, 53, 127
2, 213040, Note_on_c, 11, 46, 127
2, 213040, Note_on_c, 1, 73, 127
2, 213040, Note_on_c, 5, 65, 127
2, 213458, Note_off_c, 5, 65, 127
2, 213458, Note_off_c, 1, 73, 127
2, 213458, Note_on_c, 0, 72, 127
2, 213458, Note_on_c, 8, 68, 127
2, 213876, Note_off_c, 8, 68, 127
2, 213876, Note_off_c, 0, 72, 127
2, 213877, Note_on_c, 11, 70, 127
2, 213877, Note_on_c, 6, 66, 127
2, 214083, Note_off_c, 11, 70, 127
2, 214085, Note_on_c, 0, 72, 127
2, 214128, Note_off_c, 11, 46, 127
2, 214288, Note_off_c, 6, 66, 127
2, 214291, Note_off_c, 0, 72, 127
2, 214293, Note_on_c, 1, 61, 127
2, 214293, Note_on_c, 5, 65, 127
2, 214293, Note_on_c, 1, 73, 127
2, 214499, Note_off_c, 1, 73, 127
2, 214500, Note_on_c, 11, 70, 127
2, 214706, Note_off_c, 11, 70, 127
2, 214707, Note_off_c, 5, 65, 127
2, 214707, Note_off_c, 1, 61, 127
2, 214708, Note_on_c, 3, 63, 127
2, 214708, Note_on_c, 0, 60, 127
2, 214708, Note_on_c, 8, 68, 127
2, 214808, Note_off_c, 8, 68, 127
2, 214811, Note_on_c, 6, 66, 127
2, 214911, Note_off_c, 6, 66, 127
2, 214912, Note_on_c, 8, 68, 127
2, 215012, Note_off_c, 8, 68, 127
2, 215014, Note_on_c, 6, 66, 127
2, 215114, Note_off_c, 6, 66, 127
2, 215115, Note_off_c, 0, 60, 127
2, 215117, Note_on_c, 11, 58, 127
2, 215117, Note_on_c, 8, 68, 127
2, 215217, Note_off_c, 8, 68, 127
2, 215219, Note_on_c, 6, 66, 127
2, 215319, Note_off_c, 6, 66, 127
2, 215321, Note_on_c, 8, 68, 127
2, 215421, Note_off_c, 8, 68, 127
2, 215423, Note_on_c, 6, 66, 127
2, 215523, Note_off_c, 6, 66, 127
2, 215524, Note_off_c, 11, 58, 127
2, 215525, Note_on_c, 10, 57, 127
2, 215525, Note_on_c, 5, 65, 127
2, 215525, Note_on_c, 5, 77, 127
2, 215943, Note_off_c, 10, 57, 127
2, 215943, Note_off_c, 3, 63, 127
2, 215944, Note_on_c, 2, 62, 127
2, 215944, Note_on_c, 8, 56, 127
2, 216150, Note_off_c, 2, 62, 127
2, 216152, Note_on_c, 0, 60, 127
2, 216358, Note_off_c, 0, 60, 127
2, 216359, Note_off_c, 5, 77, 127
2, 216359, Note_off_c, 5, 65, 127
2, 216360, Note_on_c, 2, 62, 127
2, 216360, Note_on_c, 11, 70, 127
2, 216778, Note_off_c, 8, 56, 127
2, 216779, Note_on_c, 6, 54, 127
2, 216985, Note_off_c, 6, 54, 127
2, 216986, Note_on_c, 5, 53, 127
2, 217192, Note_off_c, 5, 53, 127
2, 217194, Note_off_c, 2, 62, 127
2, 217195, Note_on_c, 6, 54, 127
2, 217195, Note_on_c, 3, 63, 127
2, 217500, Note_off_c, 11, 70, 127
2, 217609, Note_off_c, 6, 54, 127
2, 217609, Note_on_c, 8, 56, 127
2, 217609, Note_on_c, 12, 83, 127
2, 218027, Note_off_c, 12, 83, 127
2, 218027, Note_off_c, 8, 56, 127
2, 218029, Note_off_c, 3, 63, 127
2, 218029, Note_on_c, 11, 58, 127
2, 218029, Note_on_c, 11, 82, 127
2, 218029, Note_on_c, 2, 62, 127
2, 218447, Note_off_c, 11, 82, 127
2, 218447, Note_on_c, 8, 80, 127
2, 218447, Note_on_c, 5, 77, 127
2, 218865, Note_off_c, 5, 77, 127
2, 218865, Note_off_c, 8, 80, 127
2, 218866, Note_off_c, 2, 62, 127
2, 218866, Note_off_c, 11, 58, 127
2, 218866, Note_on_c, 3, 51, 127
2, 218866, Note_on_c, 3, 63, 127
2, 218866, Note_on_c, 3, 75, 127
2, 218866, Note_on_c, 6, 78, 127
2, 219284, Note_off_c, 3, 75, 127
2, 219284, Note_off_c, 3, 63, 127
2, 219285, Note_on_c, 11, 70, 127
2, 219285, Note_on_c, 1, 73, 127
2, 219703, Note_off_c, 1, 73, 127
2, 219703, Note_off_c, 11, 70, 127
2, 219703, Note_off_c, 6, 78, 127
2, 219703, Note_off_c, 3, 51, 127
2, 219704, Note_on_c, 8, 44, 127
2, 219704, Note_on_c, 8, 68, 127
2, 219704, Note_on_c, 12, 71, 127
2, 219704, Note_on_c, 4, 76, 127
2, 220122, Note_off_c, 4, 76, 127
2, 220122, Note_off_c, 8, 68, 127
2, 220122, Note_on_c, 3, 75, 127
2, 220122, Note_on_c, 6, 66, 127
2, 220540, Note_off_c, 6, 66, 127
2, 220540, Note_off_c, 3, 75, 127
2, 220541, Note_off_c, 12, 71, 127
2, 220542, Note_on_c, 5, 53, 127
2, 220542, Note_on_c, 2, 74, 127
2, 220542, Note_on_c, 5, 65, 127
2, 220542, Note_on_c, 11, 70, 127
2, 220959, Note_off_c, 8, 44, 127
2, 220963, Note_on_c, 6, 42, 127
2, 221381, Note_off_c, 6, 42, 127
2, 221382, Note_off_c, 5, 65, 127
2, 221382, Note_off_c, 2, 74, 127
2, 221382, Note_off_c, 5, 53, 127
2, 221383, Note_on_c, 5, 41, 127
2, 221383, Note_on_c, 11, 46, 127
2, 221383, Note_on_c, 3, 75, 127
2, 221383, Note_on_c, 6, 66, 127
2, 221801, Note_off_c, 5, 41, 127
2, 221801, Note_on_c, 3, 39, 127
2, 222219, Note_off_c, 3, 39, 127
2, 222220, Note_off_c, 6, 66, 127
2, 222220, Note_off_c, 3, 75, 127
2, 222220, Note_off_c, 11, 46, 127
2, 222220, Note_on_c, 11, 46, 127
2, 222220, Note_on_c, 5, 65, 127
2, 222640, Note_on_c, 12, 59, 127
2, 223058, Note_off_c, 12, 59, 127
2, 223059, Note_on_c, 11, 58, 127
2, 223059, Note_on_c, 2, 74, 127
2, 223477, Note_off_c, 11, 58, 127
2, 223478, Note_on_c, 8, 56, 127
2, 223888, Note_off_c, 5, 65, 127
2, 223888, Note_off_c, 11, 46, 127
2, 223888, Note_off_c, 11, 70, 127
2, 223896, Note_off_c, 8, 56, 127
2, 223896, Note_off_c, 2, 74, 127
2, 223897, Note_on_c, 3, 51, 127
2, 223897, Note_on_c, 6, 54, 127
2, 223897, Note_on_c, 3, 63, 127
2, 223897, Note_on_c, 11, 70, 127
2, 223897, Note_on_c, 3, 75, 127
2, 224315, Note_off_c, 6, 54, 127
2, 224316, Note_on_c, 5, 53, 127
2, 224734, Note_off_c, 5, 53, 127
2, 224734, Note_off_c, 3, 75, 127
2, 224734, Note_off_c, 11, 70, 127
2, 224734, Note_off_c, 3, 63, 127
2, 224734, Note_on_c, 6, 54, 127
2, 224734, Note_on_c, 3, 63, 127
2, 224734, Note_on_c, 11, 58, 127
2, 225152, Note_off_c, 6, 54, 127
2, 225152, Note_off_c, 3, 51, 127
2, 225154, Note_on_c, 5, 53, 127
2, 225154, Note_on_c, 8, 56, 127
2, 225571, Note_off_c, 11, 58, 127
2, 225572, Note_off_c, 8, 56, 127
2, 225572, Note_off_c, 5, 53, 127
2, 225572, Note_on_c, 6, 54, 127
2, 225572, Note_on_c, 11, 58, 127
2, 225877, Note_off_c, 3, 63, 127
2, 225986, Note_off_c, 11, 58, 127
2, 225988, Note_on_c, 0, 60, 127
2, 225988, Note_on_c, 5, 77, 127
2, 225988, Note_on_c, 1, 73, 127
2, 226194, Note_off_c, 0, 60, 127
2, 226196, Note_on_c, 1, 61, 127
2, 226402, Note_off_c, 1, 61, 127
2, 226402, Note_off_c, 1, 73, 127
2, 226402, Note_off_c, 5, 77, 127
2, 226402, Note_on_c, 3, 63, 127
2, 226402, Note_on_c, 3, 75, 127
2, 226402, Note_on_c, 0, 72, 127
2, 226820, Note_off_c, 0, 72, 127
2, 226820, Note_off_c, 3, 75, 127
2, 226822, Note_on_c, 11, 70, 127
2, 226822, Note_on_c, 1, 73, 127
2, 227240, Note_off_c, 1, 73, 127
2, 227240, Note_off_c, 11, 70, 127
2, 227241, Note_on_c, 10, 69, 127
2, 227241, Note_on_c, 0, 72, 127
2, 227657, Note_off_c, 3, 63, 127
2, 227658, Note_off_c, 6, 54, 127
2, 227659, Note_off_c, 0, 72, 127
2, 227659, Note_off_c, 10, 69, 127
2, 227660, Note_on_c, 5, 53, 127
2, 227660, Note_on_c, 1, 61, 127
2, 227660, Note_on_c, 7, 67, 127
2, 227660, Note_on_c, 11, 70, 127
2, 228078, Note_off_c, 11, 70, 127
2, 228078, Note_off_c, 7, 67, 127
2, 228078, Note_off_c, 1, 61, 127
2, 228078, Note_off_c, 5, 53, 127
2, 228080, Note_on_c, 3, 51, 127
2, 228080, Note_on_c, 0, 60, 127
2, 228080, Note_on_c, 0, 72, 127
2, 228080, Note_on_c, 10, 69, 127
2, 228498, Note_off_c, 10, 69, 127
2, 228498, Note_off_c, 0, 72, 127
2, 228498, Note_off_c, 0, 60, 127
2, 228498, Note_off_c, 3, 51, 127
2, 228498, Note_on_c, 1, 49, 127
2, 228498, Note_on_c, 11, 58, 127
2, 228498, Note_on_c, 11, 70, 127
2, 228498, Note_on_c, 1, 73, 127
2, 228916, Note_off_c, 1, 73, 127
2, 228916, Note_off_c, 11, 70, 127
2, 228916, Note_off_c, 11, 58, 127
2, 228916, Note_off_c, 1, 49, 127
2, 228917, Note_on_c, 10, 57, 127
2, 228917, Note_on_c, 0, 48, 127
2, 228917, Note_on_c, 0, 72, 127
2, 228917, Note_on_c, 3, 75, 127
2, 229335, Note_off_c, 3, 75, 127
2, 229335, Note_off_c, 0, 72, 127
2, 229335, Note_on_c, 3, 75, 127
2, 229335, Note_on_c, 6, 78, 127
2, 229753, Note_off_c, 6, 78, 127
2, 229753, Note_off_c, 3, 75, 127
2, 229754, Note_off_c, 0, 48, 127
2, 229754, Note_off_c, 10, 57, 127
2, 229755, Note_on_c, 5, 53, 127
2, 229755, Note_on_c, 8, 56, 127
2, 229755, Note_on_c, 1, 73, 127
2, 229755, Note_on_c, 5, 77, 127
2, 230173, Note_off_c, 5, 77, 127
2, 230173, Note_off_c, 1, 73, 127
2, 230173, Note_on_c, 3, 75, 127
2, 230173, Note_on_c, 12, 71, 127
2, 230591, Note_off_c, 12, 71, 127
2, 230591, Note_off_c, 3, 75, 127
2, 230592, Note_off_c, 5, 53, 127
2, 230592, Note_on_c, 11, 46, 127
2, 230592, Note_on_c, 11, 70, 127
2, 230592, Note_on_c, 2, 74, 127
2, 231010, Note_off_c, 2, 74, 127
2, 231010, Note_off_c, 11, 70, 127
2, 231011, Note_on_c, 2, 74, 127
2, 231011, Note_on_c, 5, 77, 127
2, 231423, Note_off_c, 8, 56, 127
2, 231429, Note_off_c, 5, 77, 127
2, 231429, Note_off_c, 2, 74, 127
2, 231429, Note_off_c, 11, 46, 127
2, 231430, Note_on_c, 6, 54, 127
2, 231430, Note_on_c, 3, 51, 127
2, 231430, Note_on_c, 0, 72, 127
2, 231430, Note_on_c, 3, 75, 127
2, 231848, Note_off_c, 3, 75, 127
2, 231848, Note_off_c, 0, 72, 127
2, 231848, Note_on_c, 1, 73, 127
2, 231848, Note_on_c, 11, 70, 127
2, 232266, Note_off_c, 11, 70, 127
2, 232266, Note_off_c, 1, 73, 127
2, 232268, Note_on_c, 10, 69, 127
2, 232268, Note_on_c, 0, 72, 127
2, 232685, Note_off_c, 3, 51, 127
2, 232685, Note_off_c, 6, 54, 127
2, 232687, Note_on_c, 5, 53, 127
2, 232687, Note_on_c, 1, 49, 127
2, 233105, Note_off_c, 1, 49, 127
2, 233105, Note_off_c, 5, 53, 127
2, 233105, Note_off_c, 0, 72, 127
2, 233105, Note_off_c, 10, 69, 127
2, 233105, Note_on_c, 3, 51, 127
2, 233105, Note_on_c, 0, 48, 127
2, 233105, Note_on_c, 11, 70, 127
2, 233105, Note_on_c, 1, 73, 127
2, 233523, Note_off_c, 0, 48, 127
2, 233523, Note_off_c, 3, 51, 127
2, 233525, Note_on_c, 1, 49, 127
2, 233525, Note_on_c, 11, 46, 127
2, 233942, Note_off_c, 11, 70, 127
2, 233943, Note_off_c, 11, 46, 127
2, 233943, Note_off_c, 1, 49, 127
2, 233943, Note_on_c, 11, 58, 127
2, 233943, Note_on_c, 6, 54, 127
2, 233943, Note_on_c, 3, 63, 127
2, 234360, Note_off_c, 1, 73, 127
2, 234366, Note_on_c, 0, 72, 127
2, 234783, Note_off_c, 3, 63, 127
2, 234783, Note_off_c, 6, 54, 127
2, 234784, Note_on_c, 7, 55, 127
2, 234784, Note_on_c, 4, 64, 127
2, 235202, Note_off_c, 11, 58, 127
2, 235203, Note_off_c, 0, 72, 127
2, 235203, Note_on_c, 0, 60, 127
2, 235203, Note_on_c, 11, 70, 127
2, 235621, Note_off_c, 11, 70, 127
2, 235621, Note_off_c, 0, 60, 127
2, 235621, Note_off_c, 4, 64, 127
2, 235621, Note_off_c, 7, 55, 127
2, 235622, Note_on_c, 5, 53, 127
2, 235622, Note_on_c, 1, 61, 127
2, 235622, Note_on_c, 5, 65, 127
2, 235622, Note_on_c, 10, 69, 127
2, 236040, Note_off_c, 10, 69, 127
2, 236040, Note_off_c, 5, 65, 127
2, 236040, Note_off_c, 1, 61, 127
2, 236041, Note_on_c, 0, 60, 127
2, 236041, Note_on_c, 6, 78, 127
2, 236041, Note_on_c, 10, 69, 127
2, 236459, Note_off_c, 10, 69, 127
2, 236459, Note_off_c, 6, 78, 127
2, 236459, Note_off_c, 0, 60, 127
2, 236460, Note_on_c, 1, 61, 127
2, 236460, Note_on_c, 11, 70, 127
2, 236460, Note_on_c, 5, 77, 127
2, 236878, Note_off_c, 5, 77, 127
2, 236878, Note_off_c, 11, 70, 127
2, 236878, Note_off_c, 1, 61, 127
2, 236880, Note_on_c, 3, 63, 127
2, 236880, Note_on_c, 0, 72, 127
2, 236880, Note_on_c, 3, 75, 127
2, 237294, Note_off_c, 3, 63, 127
2, 237298, Note_off_c, 3, 75, 127
2, 237298, Note_on_c, 5, 65, 127
2, 237298, Note_on_c, 1, 73, 127
2, 237717, Note_off_c, 0, 72, 127
2, 237717, Note_on_c, 11, 70, 127
2, 238135, Note_off_c, 1, 73, 127
2, 238137, Note_on_c, 5, 41, 127
2, 238137, Note_on_c, 0, 72, 127
2, 238554, Note_off_c, 11, 70, 127
2, 238555, Note_on_c, 10, 69, 127
2, 238965, Note_off_c, 5, 53, 127
2, 238973, Note_off_c, 10, 69, 127
2, 238974, Note_off_c, 0, 72, 127
2, 238974, Note_off_c, 5, 41, 127
2, 238974, Note_on_c, 6, 42, 127
2, 238974, Note_on_c, 11, 70, 127
2, 239392, Note_on_c, 8, 68, 127
2, 239807, Note_off_c, 5, 65, 127
2, 239810, Note_off_c, 8, 68, 127
2, 239812, Note_on_c, 6, 66, 127
2, 239812, Note_on_c, 3, 63, 127
2, 240230, Note_off_c, 3, 63, 127
2, 240230, Note_off_c, 6, 66, 127
2, 240230, Note_on_c, 1, 61, 127
2, 240230, Note_on_c, 5, 65, 127
2, 240642, Note_off_c, 11, 70, 127
2, 240648, Note_off_c, 5, 65, 127
2, 240648, Note_off_c, 1, 61, 127
2, 240649, Note_on_c, 8, 68, 127
2, 240649, Note_on_c, 3, 63, 127
2, 240649, Note_on_c, 12, 59, 127
2, 241067, Note_off_c, 3, 63, 127
2, 241067, Note_off_c, 6, 42, 127
2, 241068, Note_on_c, 5, 41, 127
2, 241068, Note_on_c, 2, 62, 127
2, 241274, Note_off_c, 2, 62, 127
2, 241276, Note_on_c, 3, 63, 127
2, 241482, Note_off_c, 3, 63, 127
2, 241482, Note_off_c, 5, 41, 127
2, 241483, Note_on_c, 3, 39, 127
2, 241483, Note_on_c, 5, 65, 127
2, 241901, Note_off_c, 3, 39, 127
2, 241902, Note_on_c, 2, 38, 127
2, 242313, Note_off_c, 12, 59, 127
2, 242313, Note_off_c, 8, 68, 127
2, 242320, Note_off_c, 2, 38, 127
2, 242321, Note_on_c, 3, 39, 127
2, 242321, Note_on_c, 11, 58, 127
2, 242321, Note_on_c, 6, 66, 127
2, 242738, Note_off_c, 5, 65, 127
2, 242739, Note_off_c, 11, 58, 127
2, 242740, Note_on_c, 5, 65, 127
2, 242740, Note_on_c, 1, 61, 127
2, 243158, Note_off_c, 1, 61, 127
2, 243158, Note_off_c, 5, 65, 127
2, 243158, Note_off_c, 3, 39, 127
2, 243160, Note_on_c, 3, 51, 127
2, 243160, Note_on_c, 3, 63, 127
2, 243160, Note_on_c, 0, 60, 127
2, 243578, Note_off_c, 0, 60, 127
2, 243578, Note_off_c, 3, 63, 127
2, 243579, Note_on_c, 1, 61, 127
2, 243579, Note_on_c, 11, 58, 127
2, 243989, Note_off_c, 6, 66, 127
2, 243997, Note_off_c, 11, 58, 127
2, 243997, Note_off_c, 1, 61, 127
2, 243997, Note_on_c, 10, 57, 127
2, 243997, Note_on_c, 5, 65, 127
2, 243997, Note_on_c, 0, 60, 127
2, 244415, Note_off_c, 0, 60, 127
2, 244415, Note_off_c, 3, 51, 127
2, 244417, Note_on_c, 1, 49, 127
2, 244417, Note_on_c, 3, 63, 127
2, 244623, Note_off_c, 1, 49, 127
2, 244623, Note_on_c, 0, 48, 127
2, 244828, Note_off_c, 3, 63, 127
2, 244829, Note_off_c, 0, 48, 127
2, 244831, Note_off_c, 10, 57, 127
2, 244831, Note_on_c, 1, 49, 127
2, 244831, Note_on_c, 11, 58, 127
2, 244831, Note_on_c, 11, 70, 127
2, 245249, Note_off_c, 1, 49, 127
2, 245251, Note_on_c, 3, 51, 127
2, 245251, Note_on_c, 1, 61, 127
2, 245661, Note_off_c, 5, 65, 127
2, 245668, Note_off_c, 11, 70, 127
2, 245668, Note_off_c, 11, 58, 127
2, 245669, Note_off_c, 1, 61, 127
2, 245669, Note_off_c, 3, 51, 127
2, 245669, Note_on_c, 5, 53, 127
2, 245669, Note_on_c, 10, 57, 127
2, 245669, Note_on_c, 5, 65, 127
2, 245669, Note_on_c, 0, 60, 127
2, 246087, Note_off_c, 5, 53, 127
2, 246088, Note_on_c, 3, 51, 127
2, 246506, Note_off_c, 3, 51, 127
2, 246506, Note_off_c, 0, 60, 127
2, 246506, Note_off_c, 5, 65, 127
2, 246506, Note_off_c, 10, 57, 127
2, 246506, Note_on_c, 1, 49, 127
2, 246506, Note_on_c, 11, 58, 127
2, 246924, Note_off_c, 1, 49, 127
2, 246926, Note_on_c, 0, 48, 127
2, 246926, Note_on_c, 6, 78, 127
2, 247343, Note_off_c, 11, 58, 127
2, 247344, Note_off_c, 6, 78, 127
2, 247344, Note_off_c, 0, 48, 127
2, 247344, Note_on_c, 1, 49, 127
2, 247344, Note_on_c, 5, 53, 127
2, 247344, Note_on_c, 5, 77, 127
2, 247762, Note_off_c, 5, 77, 127
2, 247762, Note_off_c, 1, 49, 127
2, 247763, Note_on_c, 10, 45, 127
2, 247763, Note_on_c, 3, 75, 127
2, 247763, Note_on_c, 0, 72, 127
2, 248181, Note_off_c, 0, 72, 127
2, 248181, Note_off_c, 3, 75, 127
2, 248181, Note_off_c, 10, 45, 127
2, 248181, Note_off_c, 5, 53, 127
2, 248183, Note_on_c, 11, 46, 127
2, 248183, Note_on_c, 11, 70, 127
2, 248183, Note_on_c, 1, 73, 127
2, 248601, Note_off_c, 1, 73, 127
2, 248601, Note_off_c, 11, 70, 127
2, 248601, Note_on_c, 0, 72, 127
2, 248601, Note_on_c, 10, 69, 127
2, 248601, Note_on_c, 6, 66, 127
2, 249019, Note_off_c, 6, 66, 127
2, 249019, Note_off_c, 10, 69, 127
2, 249019, Note_off_c, 0, 72, 127
2, 249020, Note_off_c, 11, 46, 127
2, 249020, Note_on_c, 5, 41, 127
2, 249020, Note_on_c, 11, 70, 127
2, 249020, Note_on_c, 5, 65, 127
2, 249020, Note_on_c, 1, 73, 127
2, 249423, Note_off_c, 5, 41, 127
2, 249438, Note_off_c, 1, 73, 127
2, 249438, Note_off_c, 5, 65, 127
2, 249438, Note_off_c, 11, 70, 127
2, 249440, Note_on_c, 0, 60, 127
2, 249440, Note_on_c, 3, 63, 127
2, 249440, Note_on_c, 10, 69, 127
2, 249440, Note_on_c, 3, 75, 127
2, 249858, Note_off_c, 3, 75, 127
2, 249858, Note_off_c, 10, 69, 127
2, 249858, Note_off_c, 3, 63, 127
2, 249858, Note_off_c, 0, 60, 127
2, 249859, Note_on_c, 11, 58, 127
2, 249859, Note_on_c, 1, 61, 127
2, 249859, Note_on_c, 11, 70, 127
2, 249859, Note_on_c, 5, 77, 127
2, 250277, Note_off_c, 5, 77, 127
2, 250277, Note_off_c, 11, 70, 127
2, 250277, Note_off_c, 1, 61, 127
2, 250277, Note_off_c, 11, 58, 127
2, 250277, Note_on_c, 6, 54, 127
2, 250277, Note_on_c, 0, 60, 127
2, 250277, Note_on_c, 10, 57, 127
2, 250277, Note_on_c, 3, 75, 127
2, 250277, Note_on_c, 0, 72, 127
2, 250695, Note_off_c, 0, 72, 127
2, 250695, Note_off_c, 3, 75, 127
2, 250695, Note_off_c, 10, 57, 127
2, 250695, Note_off_c, 0, 60, 127
2, 250695, Note_off_c, 6, 54, 127
2, 250697, Note_on_c, 5, 53, 127
2, 250697, Note_on_c, 11, 58, 127
2, 250697, Note_on_c, 1, 61, 127
2, 250697, Note_on_c, 11, 70, 127
2, 250697, Note_on_c, 1, 73, 127
2, 250903, Note_off_c, 1, 61, 127
2, 250908, Note_on_c, 3, 63, 127
2, 251111, Note_off_c, 1, 73, 127
2, 251111, Note_off_c, 11, 70, 127
2, 251114, Note_off_c, 3, 63, 127
2, 251115, Note_off_c, 11, 58, 127
2, 251115, Note_off_c, 5, 53, 127
2, 251115, Note_on_c, 0, 60, 127
2, 251115, Note_on_c, 3, 51, 127
2, 251115, Note_on_c, 0, 72, 127
2, 251115, Note_on_c, 5, 65, 127
2, 251115, Note_on_c, 10, 69, 127
2, 251533, Note_off_c, 10, 69, 127
2, 251533, Note_off_c, 0, 72, 127
2, 251533, Note_off_c, 3, 51, 127
2, 251533, Note_off_c, 0, 60, 127
2, 251534, Note_on_c, 1, 49, 127
2, 251534, Note_on_c, 1, 61, 127
2, 251534, Note_on_c, 11, 70, 127
2, 251952, Note_off_c, 1, 61, 127
2, 251952, Note_off_c, 1, 49, 127
2, 251952, Note_off_c, 5, 65, 127
2, 251952, Note_on_c, 3, 63, 127
2, 251952, Note_on_c, 0, 48, 127
2, 251952, Note_on_c, 6, 66, 127
2, 252370, Note_off_c, 6, 66, 127
2, 252370, Note_off_c, 0, 48, 127
2, 252370, Note_off_c, 3, 63, 127
2, 252372, Note_on_c, 2, 50, 127
2, 252372, Note_on_c, 11, 58, 127
2, 252372, Note_on_c, 8, 68, 127
2, 252372, Note_on_c, 5, 65, 127
2, 252789, Note_off_c, 11, 70, 127
2, 252790, Note_off_c, 5, 65, 127
2, 252790, Note_off_c, 8, 68, 127
2, 252790, Note_off_c, 2, 50, 127
2, 252790, Note_on_c, 3, 51, 127
2, 252790, Note_on_c, 3, 63, 127
2, 252790, Note_on_c, 6, 66, 127
2, 252790, Note_on_c, 0, 72, 127
2, 253208, Note_off_c, 0, 72, 127
2, 253208, Note_off_c, 6, 66, 127
2, 253208, Note_off_c, 3, 63, 127
2, 253208, Note_off_c, 3, 51, 127
2, 253209, Note_on_c, 5, 53, 127
2, 253209, Note_on_c, 1, 61, 127
2, 253209, Note_on_c, 5, 65, 127
2, 253209, Note_on_c, 1, 73, 127
2, 253415, Note_off_c, 5, 53, 127
2, 253418, Note_on_c, 6, 54, 127
2, 253624, Note_off_c, 6, 54, 127
2, 253625, Note_on_c, 4, 52, 127
2, 253831, Note_off_c, 4, 52, 127
2, 253832, Note_on_c, 5, 53, 127
2, 254036, Note_off_c, 11, 58, 127
2, 254041, Note_off_c, 5, 53, 127
2, 254043, Note_off_c, 5, 65, 127
2, 254043, Note_off_c, 1, 61, 127
2, 254043, Note_on_c, 4, 40, 127
2, 254043, Note_on_c, 7, 67, 127
2, 254461, Note_off_c, 1, 73, 127
2, 254491, Note_on_c, 1, 73, 127
2, 254933, Note_off_c, 1, 73, 127
2, 254936, Note_on_c, 0, 72, 127
2, 254936, Note_on_c, 0, 60, 127
2, 255378, Note_off_c, 0, 72, 127
2, 255380, Note_on_c, 11, 70, 127
2, 255815, Note_off_c, 7, 67, 127
2, 255822, Note_off_c, 11, 70, 127
2, 255822, Note_off_c, 4, 40, 127
2, 255823, Note_off_c, 0, 60, 127
2, 255823, Note_on_c, 11, 70, 127
2, 255823, Note_on_c, 5, 65, 127
2, 255823, Note_on_c, 0, 60, 127
2, 255823, Note_on_c, 5, 41, 127
2, 256291, Note_off_c, 5, 65, 127
2, 256295, Note_on_c, 6, 66, 127
2, 256763, Note_off_c, 6, 66, 127
2, 256763, Note_off_c, 11, 70, 127
2, 256765, Note_on_c, 5, 53, 127
2, 256765, Note_on_c, 10, 69, 127
2, 256765, Note_on_c, 5, 65, 127
2, 257261, Note_off_c, 5, 65, 127
2, 257271, Note_on_c, 3, 63, 127
2, 257698, Note_off_c, 5, 41, 127
2, 257698, Note_off_c, 0, 60, 127
2, 257761, Note_off_c, 10, 69, 127
2, 257767, Note_off_c, 3, 63, 127
2, 257773, Note_on_c, 11, 46, 127
2, 257773, Note_on_c, 2, 62, 127
2, 257773, Note_on_c, 11, 58, 127
2, 257773, Note_on_c, 11, 70, 127
2, 261120, Note_off_c, 11, 70, 127
2, 261120, Note_off_c, 11, 58, 127
2, 261120, Note_off_c, 2, 62, 127
2, 261120, Note_off_c, 11, 46, 127
2, 261120, Note_off_c, 5, 53, 127
2, 265728, End_track
3, 0, Start_track
3, 0, Title_t, "MIDI"
3, 1536, End_track
0, 0, End_of_file
