0, 0, Header, 1, 4, 240
1, 0, Start_track
1, 0, Title_t, "untitled"
1, 0, SMPTE_offset, 96, 0, 3, 0, 0
1, 0, Time_signature, 1, 2, 24, 8
1, 0, Key_signature, 0, "major"
1, 0, Tempo, 300000
1, 240, Time_signature, 4, 2, 24, 8
1, 30000, Time_signature, 3, 2, 24, 8
1, 30720, Time_signature, 1, 2, 24, 8
1, 30960, Time_signature, 4, 2, 24, 8
1, 60720, Time_signature, 3, 2, 24, 8
1, 61440, Time_signature, 1, 2, 24, 8
1, 61680, Time_signature, 4, 2, 24, 8
1, 91440, Time_signature, 3, 2, 24, 8
1, 91440, End_track
2, 0, Start_track
2, 0, MIDI_port, 0
2, 0, Title_t, "English Suite 1, 8. Bourree 1"
2, 0, Program_c, 0, 0
2, 0, Control_c, 0, 7, 100
2, 0, Control_c, 0, 10, 64
2, 0, Note_on_c, 0, 64, 93
2, 180, Note_on_c, 0, 64, 0
2, 240, Note_on_c, 0, 69, 93
2, 336, Note_on_c, 0, 69, 0
2, 360, Note_on_c, 0, 68, 93
2, 456, Note_on_c, 0, 68, 0
2, 480, Note_on_c, 0, 71, 93
2, 576, Note_on_c, 0, 71, 0
2, 600, Note_on_c, 0, 69, 93
2, 696, Note_on_c, 0, 69, 0
2, 720, Note_on_c, 0, 73, 93
2, 816, Note_on_c, 0, 73, 0
2, 840, Note_on_c, 0, 71, 93
2, 936, Note_on_c, 0, 71, 0
2, 960, Note_on_c, 0, 69, 93
2, 1056, Note_on_c, 0, 69, 0
2, 1080, Note_on_c, 0, 68, 93
2, 1193, Note_on_c, 0, 68, 0
2, 1200, Note_on_c, 0, 69, 93
2, 1392, Note_on_c, 0, 69, 0
2, 1440, Note_on_c, 0, 64, 93
2, 1632, Note_on_c, 0, 64, 0
2, 1680, Note_on_c, 0, 61, 93
2, 1776, Note_on_c, 0, 61, 0
2, 1800, Note_on_c, 0, 64, 93
2, 1896, Note_on_c, 0, 64, 0
2, 1920, Note_on_c, 0, 69, 93
2, 2016, Note_on_c, 0, 69, 0
2, 2040, Note_on_c, 0, 71, 93
2, 2136, Note_on_c, 0, 71, 0
2, 2160, Note_on_c, 0, 73, 93
2, 2256, Note_on_c, 0, 73, 0
2, 2280, Note_on_c, 0, 71, 93
2, 2376, Note_on_c, 0, 71, 0
2, 2400, Note_on_c, 0, 74, 93
2, 2496, Note_on_c, 0, 74, 0
2, 2520, Note_on_c, 0, 73, 93
2, 2616, Note_on_c, 0, 73, 0
2, 2640, Note_on_c, 0, 76, 93
2, 2736, Note_on_c, 0, 76, 0
2, 2760, Note_on_c, 0, 74, 93
2, 2856, Note_on_c, 0, 74, 0
2, 2880, Note_on_c, 0, 73, 93
2, 2976, Note_on_c, 0, 73, 0
2, 3000, Note_on_c, 0, 71, 93
2, 3096, Note_on_c, 0, 71, 0
2, 3120, Note_on_c, 0, 74, 93
2, 3216, Note_on_c, 0, 74, 0
2, 3240, Note_on_c, 0, 73, 93
2, 3336, Note_on_c, 0, 73, 0
2, 3360, Note_on_c, 0, 71, 93
2, 3456, Note_on_c, 0, 71, 0
2, 3480, Note_on_c, 0, 73, 93
2, 3576, Note_on_c, 0, 73, 0
2, 3600, Note_on_c, 0, 69, 93
2, 3696, Note_on_c, 0, 69, 0
2, 3720, Note_on_c, 0, 71, 93
2, 3816, Note_on_c, 0, 71, 0
2, 3840, Note_on_c, 0, 73, 93
2, 3936, Note_on_c, 0, 73, 0
2, 3960, Note_on_c, 0, 74, 93
2, 4056, Note_on_c, 0, 74, 0
2, 4080, Note_on_c, 0, 76, 93
2, 4272, Note_on_c, 0, 76, 0
2, 4290, Note_on_c, 0, 79, 92
2, 4320, Note_on_c, 0, 79, 0
2, 4320, Note_on_c, 0, 78, 93
2, 4545, Note_on_c, 0, 78, 0
2, 4560, Note_on_c, 0, 79, 93
2, 4584, Note_on_c, 0, 79, 0
2, 4590, Note_on_c, 0, 78, 93
2, 4614, Note_on_c, 0, 78, 0
2, 4620, Note_on_c, 0, 79, 93
2, 4872, Note_on_c, 0, 79, 0
2, 4920, Note_on_c, 0, 81, 93
2, 5016, Note_on_c, 0, 81, 0
2, 5040, Note_on_c, 0, 78, 93
2, 5232, Note_on_c, 0, 78, 0
2, 5250, Note_on_c, 0, 81, 92
2, 5280, Note_on_c, 0, 81, 0
2, 5280, Note_on_c, 0, 80, 93
2, 5472, Note_on_c, 0, 80, 0
2, 5520, Note_on_c, 0, 81, 93
2, 5544, Note_on_c, 0, 81, 0
2, 5550, Note_on_c, 0, 80, 93
2, 5574, Note_on_c, 0, 80, 0
2, 5580, Note_on_c, 0, 81, 93
2, 5832, Note_on_c, 0, 81, 0
2, 5880, Note_on_c, 0, 83, 93
2, 5976, Note_on_c, 0, 83, 0
2, 6000, Note_on_c, 0, 80, 93
2, 6096, Note_on_c, 0, 80, 0
2, 6120, Note_on_c, 0, 81, 93
2, 6216, Note_on_c, 0, 81, 0
2, 6240, Note_on_c, 0, 80, 93
2, 6336, Note_on_c, 0, 80, 0
2, 6360, Note_on_c, 0, 81, 93
2, 6456, Note_on_c, 0, 81, 0
2, 6480, Note_on_c, 0, 81, 93
2, 6504, Note_on_c, 0, 81, 0
2, 6510, Note_on_c, 0, 83, 93
2, 6534, Note_on_c, 0, 83, 0
2, 6540, Note_on_c, 0, 81, 93
2, 6792, Note_on_c, 0, 81, 0
2, 6840, Note_on_c, 0, 80, 93
2, 6888, Note_on_c, 0, 80, 0
2, 6900, Note_on_c, 0, 81, 93
2, 6948, Note_on_c, 0, 81, 0
2, 6960, Note_on_c, 0, 83, 93
2, 7344, Note_on_c, 0, 83, 0
2, 7680, Note_on_c, 0, 64, 93
2, 7860, Note_on_c, 0, 64, 0
2, 7920, Note_on_c, 0, 69, 93
2, 8016, Note_on_c, 0, 69, 0
2, 8040, Note_on_c, 0, 68, 93
2, 8136, Note_on_c, 0, 68, 0
2, 8160, Note_on_c, 0, 71, 93
2, 8256, Note_on_c, 0, 71, 0
2, 8280, Note_on_c, 0, 69, 93
2, 8376, Note_on_c, 0, 69, 0
2, 8400, Note_on_c, 0, 73, 93
2, 8496, Note_on_c, 0, 73, 0
2, 8520, Note_on_c, 0, 71, 93
2, 8616, Note_on_c, 0, 71, 0
2, 8640, Note_on_c, 0, 69, 93
2, 8736, Note_on_c, 0, 69, 0
2, 8760, Note_on_c, 0, 68, 93
2, 8873, Note_on_c, 0, 68, 0
2, 8880, Note_on_c, 0, 69, 93
2, 9072, Note_on_c, 0, 69, 0
2, 9120, Note_on_c, 0, 64, 93
2, 9312, Note_on_c, 0, 64, 0
2, 9360, Note_on_c, 0, 61, 93
2, 9456, Note_on_c, 0, 61, 0
2, 9480, Note_on_c, 0, 64, 93
2, 9576, Note_on_c, 0, 64, 0
2, 9600, Note_on_c, 0, 69, 93
2, 9696, Note_on_c, 0, 69, 0
2, 9720, Note_on_c, 0, 71, 93
2, 9816, Note_on_c, 0, 71, 0
2, 9840, Note_on_c, 0, 73, 93
2, 9936, Note_on_c, 0, 73, 0
2, 9960, Note_on_c, 0, 71, 93
2, 10056, Note_on_c, 0, 71, 0
2, 10080, Note_on_c, 0, 74, 93
2, 10176, Note_on_c, 0, 74, 0
2, 10200, Note_on_c, 0, 73, 93
2, 10296, Note_on_c, 0, 73, 0
2, 10320, Note_on_c, 0, 76, 93
2, 10416, Note_on_c, 0, 76, 0
2, 10440, Note_on_c, 0, 74, 93
2, 10536, Note_on_c, 0, 74, 0
2, 10560, Note_on_c, 0, 73, 93
2, 10656, Note_on_c, 0, 73, 0
2, 10680, Note_on_c, 0, 71, 93
2, 10776, Note_on_c, 0, 71, 0
2, 10800, Note_on_c, 0, 74, 93
2, 10896, Note_on_c, 0, 74, 0
2, 10920, Note_on_c, 0, 73, 93
2, 11016, Note_on_c, 0, 73, 0
2, 11040, Note_on_c, 0, 71, 93
2, 11136, Note_on_c, 0, 71, 0
2, 11160, Note_on_c, 0, 73, 93
2, 11256, Note_on_c, 0, 73, 0
2, 11280, Note_on_c, 0, 69, 93
2, 11376, Note_on_c, 0, 69, 0
2, 11400, Note_on_c, 0, 68, 93
2, 11496, Note_on_c, 0, 68, 0
2, 11520, Note_on_c, 0, 71, 93
2, 11616, Note_on_c, 0, 71, 0
2, 11640, Note_on_c, 0, 69, 93
2, 11736, Note_on_c, 0, 69, 0
2, 11760, Note_on_c, 0, 73, 93
2, 11856, Note_on_c, 0, 73, 0
2, 11880, Note_on_c, 0, 71, 93
2, 11976, Note_on_c, 0, 71, 0
2, 12000, Note_on_c, 0, 69, 93
2, 12096, Note_on_c, 0, 69, 0
2, 12120, Note_on_c, 0, 68, 93
2, 12216, Note_on_c, 0, 68, 0
2, 12240, Note_on_c, 0, 66, 93
2, 12336, Note_on_c, 0, 66, 0
2, 12360, Note_on_c, 0, 64, 93
2, 12456, Note_on_c, 0, 64, 0
2, 12480, Note_on_c, 0, 68, 93
2, 12576, Note_on_c, 0, 68, 0
2, 12600, Note_on_c, 0, 66, 93
2, 12696, Note_on_c, 0, 66, 0
2, 12720, Note_on_c, 0, 69, 93
2, 12816, Note_on_c, 0, 69, 0
2, 12840, Note_on_c, 0, 68, 93
2, 12936, Note_on_c, 0, 68, 0
2, 12960, Note_on_c, 0, 66, 93
2, 13056, Note_on_c, 0, 66, 0
2, 13080, Note_on_c, 0, 64, 93
2, 13176, Note_on_c, 0, 64, 0
2, 13200, Note_on_c, 0, 63, 93
2, 13296, Note_on_c, 0, 63, 0
2, 13320, Note_on_c, 0, 61, 93
2, 13416, Note_on_c, 0, 61, 0
2, 13440, Note_on_c, 0, 64, 93
2, 13536, Note_on_c, 0, 64, 0
2, 13560, Note_on_c, 0, 63, 93
2, 13656, Note_on_c, 0, 63, 0
2, 13680, Note_on_c, 0, 66, 93
2, 13776, Note_on_c, 0, 66, 0
2, 13800, Note_on_c, 0, 59, 93
2, 13896, Note_on_c, 0, 59, 0
2, 13920, Note_on_c, 0, 71, 93
2, 14112, Note_on_c, 0, 71, 0
2, 14160, Note_on_c, 0, 68, 93
2, 14184, Note_on_c, 0, 68, 0
2, 14190, Note_on_c, 0, 69, 93
2, 14214, Note_on_c, 0, 69, 0
2, 14220, Note_on_c, 0, 68, 93
2, 14376, Note_on_c, 0, 68, 0
2, 14400, Note_on_c, 0, 66, 93
2, 14496, Note_on_c, 0, 66, 0
2, 14520, Note_on_c, 0, 64, 93
2, 14616, Note_on_c, 0, 64, 0
2, 14640, Note_on_c, 0, 64, 93
2, 15216, Note_on_c, 0, 64, 0
2, 15360, Note_on_c, 0, 64, 93
2, 15540, Note_on_c, 0, 64, 0
2, 15600, Note_on_c, 0, 69, 93
2, 15696, Note_on_c, 0, 69, 0
2, 15720, Note_on_c, 0, 68, 93
2, 15816, Note_on_c, 0, 68, 0
2, 15840, Note_on_c, 0, 71, 93
2, 15936, Note_on_c, 0, 71, 0
2, 15960, Note_on_c, 0, 69, 93
2, 16056, Note_on_c, 0, 69, 0
2, 16080, Note_on_c, 0, 73, 93
2, 16176, Note_on_c, 0, 73, 0
2, 16200, Note_on_c, 0, 71, 93
2, 16296, Note_on_c, 0, 71, 0
2, 16320, Note_on_c, 0, 69, 93
2, 16416, Note_on_c, 0, 69, 0
2, 16440, Note_on_c, 0, 68, 93
2, 16536, Note_on_c, 0, 68, 0
2, 16560, Note_on_c, 0, 69, 93
2, 16752, Note_on_c, 0, 69, 0
2, 16800, Note_on_c, 0, 64, 93
2, 16992, Note_on_c, 0, 64, 0
2, 17040, Note_on_c, 0, 61, 93
2, 17136, Note_on_c, 0, 61, 0
2, 17160, Note_on_c, 0, 64, 93
2, 17256, Note_on_c, 0, 64, 0
2, 17280, Note_on_c, 0, 69, 93
2, 17376, Note_on_c, 0, 69, 0
2, 17400, Note_on_c, 0, 71, 93
2, 17496, Note_on_c, 0, 71, 0
2, 17520, Note_on_c, 0, 73, 93
2, 17616, Note_on_c, 0, 73, 0
2, 17640, Note_on_c, 0, 71, 93
2, 17736, Note_on_c, 0, 71, 0
2, 17760, Note_on_c, 0, 74, 93
2, 17856, Note_on_c, 0, 74, 0
2, 17880, Note_on_c, 0, 73, 93
2, 17976, Note_on_c, 0, 73, 0
2, 18000, Note_on_c, 0, 76, 93
2, 18096, Note_on_c, 0, 76, 0
2, 18120, Note_on_c, 0, 74, 93
2, 18216, Note_on_c, 0, 74, 0
2, 18240, Note_on_c, 0, 73, 93
2, 18336, Note_on_c, 0, 73, 0
2, 18360, Note_on_c, 0, 71, 93
2, 18456, Note_on_c, 0, 71, 0
2, 18480, Note_on_c, 0, 74, 93
2, 18576, Note_on_c, 0, 74, 0
2, 18600, Note_on_c, 0, 73, 93
2, 18696, Note_on_c, 0, 73, 0
2, 18720, Note_on_c, 0, 71, 93
2, 18816, Note_on_c, 0, 71, 0
2, 18840, Note_on_c, 0, 73, 93
2, 18936, Note_on_c, 0, 73, 0
2, 18960, Note_on_c, 0, 69, 93
2, 19056, Note_on_c, 0, 69, 0
2, 19080, Note_on_c, 0, 71, 93
2, 19176, Note_on_c, 0, 71, 0
2, 19200, Note_on_c, 0, 73, 93
2, 19296, Note_on_c, 0, 73, 0
2, 19320, Note_on_c, 0, 74, 93
2, 19416, Note_on_c, 0, 74, 0
2, 19440, Note_on_c, 0, 76, 93
2, 19632, Note_on_c, 0, 76, 0
2, 19650, Note_on_c, 0, 79, 92
2, 19680, Note_on_c, 0, 79, 0
2, 19680, Note_on_c, 0, 78, 93
2, 19905, Note_on_c, 0, 78, 0
2, 19920, Note_on_c, 0, 79, 93
2, 19944, Note_on_c, 0, 79, 0
2, 19950, Note_on_c, 0, 78, 93
2, 19974, Note_on_c, 0, 78, 0
2, 19980, Note_on_c, 0, 79, 93
2, 20232, Note_on_c, 0, 79, 0
2, 20280, Note_on_c, 0, 81, 93
2, 20376, Note_on_c, 0, 81, 0
2, 20400, Note_on_c, 0, 78, 93
2, 20592, Note_on_c, 0, 78, 0
2, 20610, Note_on_c, 0, 81, 92
2, 20640, Note_on_c, 0, 81, 0
2, 20640, Note_on_c, 0, 80, 93
2, 20832, Note_on_c, 0, 80, 0
2, 20880, Note_on_c, 0, 81, 93
2, 20904, Note_on_c, 0, 81, 0
2, 20910, Note_on_c, 0, 80, 93
2, 20934, Note_on_c, 0, 80, 0
2, 20940, Note_on_c, 0, 81, 93
2, 21192, Note_on_c, 0, 81, 0
2, 21240, Note_on_c, 0, 83, 93
2, 21336, Note_on_c, 0, 83, 0
2, 21360, Note_on_c, 0, 80, 93
2, 21456, Note_on_c, 0, 80, 0
2, 21480, Note_on_c, 0, 81, 93
2, 21576, Note_on_c, 0, 81, 0
2, 21600, Note_on_c, 0, 80, 93
2, 21696, Note_on_c, 0, 80, 0
2, 21720, Note_on_c, 0, 81, 93
2, 21816, Note_on_c, 0, 81, 0
2, 21840, Note_on_c, 0, 81, 93
2, 21864, Note_on_c, 0, 81, 0
2, 21870, Note_on_c, 0, 83, 93
2, 21894, Note_on_c, 0, 83, 0
2, 21900, Note_on_c, 0, 81, 93
2, 22152, Note_on_c, 0, 81, 0
2, 22200, Note_on_c, 0, 80, 93
2, 22248, Note_on_c, 0, 80, 0
2, 22260, Note_on_c, 0, 81, 93
2, 22308, Note_on_c, 0, 81, 0
2, 22320, Note_on_c, 0, 83, 93
2, 22704, Note_on_c, 0, 83, 0
2, 23040, Note_on_c, 0, 64, 93
2, 23220, Note_on_c, 0, 64, 0
2, 23280, Note_on_c, 0, 69, 93
2, 23376, Note_on_c, 0, 69, 0
2, 23400, Note_on_c, 0, 68, 93
2, 23496, Note_on_c, 0, 68, 0
2, 23520, Note_on_c, 0, 71, 93
2, 23616, Note_on_c, 0, 71, 0
2, 23640, Note_on_c, 0, 69, 93
2, 23736, Note_on_c, 0, 69, 0
2, 23760, Note_on_c, 0, 73, 93
2, 23856, Note_on_c, 0, 73, 0
2, 23880, Note_on_c, 0, 71, 93
2, 23976, Note_on_c, 0, 71, 0
2, 24000, Note_on_c, 0, 69, 93
2, 24096, Note_on_c, 0, 69, 0
2, 24120, Note_on_c, 0, 68, 93
2, 24233, Note_on_c, 0, 68, 0
2, 24240, Note_on_c, 0, 69, 93
2, 24432, Note_on_c, 0, 69, 0
2, 24480, Note_on_c, 0, 64, 93
2, 24672, Note_on_c, 0, 64, 0
2, 24720, Note_on_c, 0, 61, 93
2, 24816, Note_on_c, 0, 61, 0
2, 24840, Note_on_c, 0, 64, 93
2, 24936, Note_on_c, 0, 64, 0
2, 24960, Note_on_c, 0, 69, 93
2, 25056, Note_on_c, 0, 69, 0
2, 25080, Note_on_c, 0, 71, 93
2, 25176, Note_on_c, 0, 71, 0
2, 25200, Note_on_c, 0, 73, 93
2, 25296, Note_on_c, 0, 73, 0
2, 25320, Note_on_c, 0, 71, 93
2, 25416, Note_on_c, 0, 71, 0
2, 25440, Note_on_c, 0, 74, 93
2, 25536, Note_on_c, 0, 74, 0
2, 25560, Note_on_c, 0, 73, 93
2, 25656, Note_on_c, 0, 73, 0
2, 25680, Note_on_c, 0, 76, 93
2, 25776, Note_on_c, 0, 76, 0
2, 25800, Note_on_c, 0, 74, 93
2, 25896, Note_on_c, 0, 74, 0
2, 25920, Note_on_c, 0, 73, 93
2, 26016, Note_on_c, 0, 73, 0
2, 26040, Note_on_c, 0, 71, 93
2, 26136, Note_on_c, 0, 71, 0
2, 26160, Note_on_c, 0, 74, 93
2, 26256, Note_on_c, 0, 74, 0
2, 26280, Note_on_c, 0, 73, 93
2, 26376, Note_on_c, 0, 73, 0
2, 26400, Note_on_c, 0, 71, 93
2, 26496, Note_on_c, 0, 71, 0
2, 26520, Note_on_c, 0, 73, 93
2, 26616, Note_on_c, 0, 73, 0
2, 26640, Note_on_c, 0, 69, 93
2, 26736, Note_on_c, 0, 69, 0
2, 26760, Note_on_c, 0, 68, 93
2, 26856, Note_on_c, 0, 68, 0
2, 26880, Note_on_c, 0, 71, 93
2, 26976, Note_on_c, 0, 71, 0
2, 27000, Note_on_c, 0, 69, 93
2, 27096, Note_on_c, 0, 69, 0
2, 27120, Note_on_c, 0, 73, 93
2, 27216, Note_on_c, 0, 73, 0
2, 27240, Note_on_c, 0, 71, 93
2, 27336, Note_on_c, 0, 71, 0
2, 27360, Note_on_c, 0, 69, 93
2, 27456, Note_on_c, 0, 69, 0
2, 27480, Note_on_c, 0, 68, 93
2, 27576, Note_on_c, 0, 68, 0
2, 27600, Note_on_c, 0, 66, 93
2, 27696, Note_on_c, 0, 66, 0
2, 27720, Note_on_c, 0, 64, 93
2, 27816, Note_on_c, 0, 64, 0
2, 27840, Note_on_c, 0, 68, 93
2, 27936, Note_on_c, 0, 68, 0
2, 27960, Note_on_c, 0, 66, 93
2, 28056, Note_on_c, 0, 66, 0
2, 28080, Note_on_c, 0, 69, 93
2, 28176, Note_on_c, 0, 69, 0
2, 28200, Note_on_c, 0, 68, 93
2, 28296, Note_on_c, 0, 68, 0
2, 28320, Note_on_c, 0, 66, 93
2, 28416, Note_on_c, 0, 66, 0
2, 28440, Note_on_c, 0, 64, 93
2, 28536, Note_on_c, 0, 64, 0
2, 28560, Note_on_c, 0, 63, 93
2, 28656, Note_on_c, 0, 63, 0
2, 28680, Note_on_c, 0, 61, 93
2, 28776, Note_on_c, 0, 61, 0
2, 28800, Note_on_c, 0, 64, 93
2, 28896, Note_on_c, 0, 64, 0
2, 28920, Note_on_c, 0, 63, 93
2, 29016, Note_on_c, 0, 63, 0
2, 29040, Note_on_c, 0, 66, 93
2, 29136, Note_on_c, 0, 66, 0
2, 29160, Note_on_c, 0, 59, 93
2, 29256, Note_on_c, 0, 59, 0
2, 29280, Note_on_c, 0, 71, 93
2, 29472, Note_on_c, 0, 71, 0
2, 29520, Note_on_c, 0, 68, 93
2, 29544, Note_on_c, 0, 68, 0
2, 29550, Note_on_c, 0, 69, 93
2, 29574, Note_on_c, 0, 69, 0
2, 29580, Note_on_c, 0, 68, 93
2, 29736, Note_on_c, 0, 68, 0
2, 29760, Note_on_c, 0, 66, 93
2, 29856, Note_on_c, 0, 66, 0
2, 29880, Note_on_c, 0, 64, 93
2, 29976, Note_on_c, 0, 64, 0
2, 30000, Note_on_c, 0, 64, 93
2, 30576, Note_on_c, 0, 64, 0
2, 30720, Note_on_c, 0, 64, 93
2, 30900, Note_on_c, 0, 64, 0
2, 30960, Note_on_c, 0, 71, 93
2, 31056, Note_on_c, 0, 71, 0
2, 31080, Note_on_c, 0, 69, 93
2, 31176, Note_on_c, 0, 69, 0
2, 31200, Note_on_c, 0, 73, 93
2, 31296, Note_on_c, 0, 73, 0
2, 31320, Note_on_c, 0, 71, 93
2, 31416, Note_on_c, 0, 71, 0
2, 31440, Note_on_c, 0, 74, 93
2, 31536, Note_on_c, 0, 74, 0
2, 31560, Note_on_c, 0, 73, 93
2, 31656, Note_on_c, 0, 73, 0
2, 31680, Note_on_c, 0, 76, 93
2, 31872, Note_on_c, 0, 76, 0
2, 31920, Note_on_c, 0, 73, 93
2, 31944, Note_on_c, 0, 73, 0
2, 31950, Note_on_c, 0, 74, 93
2, 31974, Note_on_c, 0, 74, 0
2, 31980, Note_on_c, 0, 73, 93
2, 32136, Note_on_c, 0, 73, 0
2, 32160, Note_on_c, 0, 71, 93
2, 32256, Note_on_c, 0, 71, 0
2, 32280, Note_on_c, 0, 73, 93
2, 32376, Note_on_c, 0, 73, 0
2, 32400, Note_on_c, 0, 69, 93
2, 32496, Note_on_c, 0, 69, 0
2, 32520, Note_on_c, 0, 71, 93
2, 32616, Note_on_c, 0, 71, 0
2, 32640, Note_on_c, 0, 73, 93
2, 32736, Note_on_c, 0, 73, 0
2, 32760, Note_on_c, 0, 74, 93
2, 32856, Note_on_c, 0, 74, 0
2, 32880, Note_on_c, 0, 76, 93
2, 32976, Note_on_c, 0, 76, 0
2, 33000, Note_on_c, 0, 74, 93
2, 33096, Note_on_c, 0, 74, 0
2, 33120, Note_on_c, 0, 78, 93
2, 33216, Note_on_c, 0, 78, 0
2, 33240, Note_on_c, 0, 76, 93
2, 33336, Note_on_c, 0, 76, 0
2, 33360, Note_on_c, 0, 79, 93
2, 33456, Note_on_c, 0, 79, 0
2, 33480, Note_on_c, 0, 78, 93
2, 33576, Note_on_c, 0, 78, 0
2, 33600, Note_on_c, 0, 81, 93
2, 33825, Note_on_c, 0, 81, 0
2, 33840, Note_on_c, 0, 78, 93
2, 33864, Note_on_c, 0, 78, 0
2, 33870, Note_on_c, 0, 79, 93
2, 33894, Note_on_c, 0, 79, 0
2, 33900, Note_on_c, 0, 78, 93
2, 33948, Note_on_c, 0, 78, 0
2, 33960, Note_on_c, 0, 78, 93
2, 34056, Note_on_c, 0, 78, 0
2, 34080, Note_on_c, 0, 76, 93
2, 34176, Note_on_c, 0, 76, 0
2, 34200, Note_on_c, 0, 78, 93
2, 34296, Note_on_c, 0, 78, 0
2, 34320, Note_on_c, 0, 74, 93
2, 34512, Note_on_c, 0, 74, 0
2, 34560, Note_on_c, 0, 78, 93
2, 34752, Note_on_c, 0, 78, 0
2, 34800, Note_on_c, 0, 78, 93
2, 34896, Note_on_c, 0, 78, 0
2, 34920, Note_on_c, 0, 74, 93
2, 35016, Note_on_c, 0, 74, 0
2, 35040, Note_on_c, 0, 73, 93
2, 35136, Note_on_c, 0, 73, 0
2, 35160, Note_on_c, 0, 71, 93
2, 35256, Note_on_c, 0, 71, 0
2, 35280, Note_on_c, 0, 74, 93
2, 35376, Note_on_c, 0, 74, 0
2, 35400, Note_on_c, 0, 73, 93
2, 35496, Note_on_c, 0, 73, 0
2, 35520, Note_on_c, 0, 76, 93
2, 35616, Note_on_c, 0, 76, 0
2, 35640, Note_on_c, 0, 74, 93
2, 35736, Note_on_c, 0, 74, 0
2, 35760, Note_on_c, 0, 76, 93
2, 35856, Note_on_c, 0, 76, 0
2, 35880, Note_on_c, 0, 73, 93
2, 35976, Note_on_c, 0, 73, 0
2, 36000, Note_on_c, 0, 71, 93
2, 36096, Note_on_c, 0, 71, 0
2, 36120, Note_on_c, 0, 70, 93
2, 36216, Note_on_c, 0, 70, 0
2, 36240, Note_on_c, 0, 73, 93
2, 36336, Note_on_c, 0, 73, 0
2, 36360, Note_on_c, 0, 71, 93
2, 36456, Note_on_c, 0, 71, 0
2, 36480, Note_on_c, 0, 74, 93
2, 36576, Note_on_c, 0, 74, 0
2, 36600, Note_on_c, 0, 73, 93
2, 36696, Note_on_c, 0, 73, 0
2, 36720, Note_on_c, 0, 76, 93
2, 36816, Note_on_c, 0, 76, 0
2, 36840, Note_on_c, 0, 74, 93
2, 36936, Note_on_c, 0, 74, 0
2, 36960, Note_on_c, 0, 73, 93
2, 37056, Note_on_c, 0, 73, 0
2, 37080, Note_on_c, 0, 71, 93
2, 37176, Note_on_c, 0, 71, 0
2, 37200, Note_on_c, 0, 74, 93
2, 37296, Note_on_c, 0, 74, 0
2, 37320, Note_on_c, 0, 73, 93
2, 37416, Note_on_c, 0, 73, 0
2, 37440, Note_on_c, 0, 71, 93
2, 37536, Note_on_c, 0, 71, 0
2, 37560, Note_on_c, 0, 70, 93
2, 37656, Note_on_c, 0, 70, 0
2, 37680, Note_on_c, 0, 71, 93
2, 38256, Note_on_c, 0, 71, 0
2, 38400, Note_on_c, 0, 71, 93
2, 38580, Note_on_c, 0, 71, 0
2, 38640, Note_on_c, 0, 78, 93
2, 38736, Note_on_c, 0, 78, 0
2, 38760, Note_on_c, 0, 76, 93
2, 38856, Note_on_c, 0, 76, 0
2, 38880, Note_on_c, 0, 80, 93
2, 38976, Note_on_c, 0, 80, 0
2, 39000, Note_on_c, 0, 78, 93
2, 39096, Note_on_c, 0, 78, 0
2, 39120, Note_on_c, 0, 81, 93
2, 39216, Note_on_c, 0, 81, 0
2, 39240, Note_on_c, 0, 80, 93
2, 39336, Note_on_c, 0, 80, 0
2, 39360, Note_on_c, 0, 83, 93
2, 39552, Note_on_c, 0, 83, 0
2, 39600, Note_on_c, 0, 80, 93
2, 39624, Note_on_c, 0, 80, 0
2, 39630, Note_on_c, 0, 81, 93
2, 39654, Note_on_c, 0, 81, 0
2, 39660, Note_on_c, 0, 80, 93
2, 39816, Note_on_c, 0, 80, 0
2, 39840, Note_on_c, 0, 78, 93
2, 39936, Note_on_c, 0, 78, 0
2, 39960, Note_on_c, 0, 80, 93
2, 40056, Note_on_c, 0, 80, 0
2, 40080, Note_on_c, 0, 76, 93
2, 40272, Note_on_c, 0, 76, 0
2, 40320, Note_on_c, 0, 64, 93
2, 40512, Note_on_c, 0, 64, 0
2, 40560, Note_on_c, 0, 71, 93
2, 40656, Note_on_c, 0, 71, 0
2, 40680, Note_on_c, 0, 69, 93
2, 40776, Note_on_c, 0, 69, 0
2, 40800, Note_on_c, 0, 73, 93
2, 40896, Note_on_c, 0, 73, 0
2, 40920, Note_on_c, 0, 71, 93
2, 41016, Note_on_c, 0, 71, 0
2, 41040, Note_on_c, 0, 74, 93
2, 41136, Note_on_c, 0, 74, 0
2, 41160, Note_on_c, 0, 73, 93
2, 41256, Note_on_c, 0, 73, 0
2, 41280, Note_on_c, 0, 76, 93
2, 41472, Note_on_c, 0, 76, 0
2, 41520, Note_on_c, 0, 73, 93
2, 41544, Note_on_c, 0, 73, 0
2, 41550, Note_on_c, 0, 74, 93
2, 41574, Note_on_c, 0, 74, 0
2, 41580, Note_on_c, 0, 73, 93
2, 41736, Note_on_c, 0, 73, 0
2, 41760, Note_on_c, 0, 71, 93
2, 41856, Note_on_c, 0, 71, 0
2, 41880, Note_on_c, 0, 73, 93
2, 41976, Note_on_c, 0, 73, 0
2, 42000, Note_on_c, 0, 69, 93
2, 42096, Note_on_c, 0, 69, 0
2, 42120, Note_on_c, 0, 71, 93
2, 42216, Note_on_c, 0, 71, 0
2, 42240, Note_on_c, 0, 73, 93
2, 42336, Note_on_c, 0, 73, 0
2, 42360, Note_on_c, 0, 74, 93
2, 42456, Note_on_c, 0, 74, 0
2, 42480, Note_on_c, 0, 76, 93
2, 42576, Note_on_c, 0, 76, 0
2, 42600, Note_on_c, 0, 73, 93
2, 42696, Note_on_c, 0, 73, 0
2, 42720, Note_on_c, 0, 71, 93
2, 42816, Note_on_c, 0, 71, 0
2, 42840, Note_on_c, 0, 69, 93
2, 42936, Note_on_c, 0, 69, 0
2, 42960, Note_on_c, 0, 76, 93
2, 43056, Note_on_c, 0, 76, 0
2, 43080, Note_on_c, 0, 74, 93
2, 43176, Note_on_c, 0, 74, 0
2, 43200, Note_on_c, 0, 78, 93
2, 43296, Note_on_c, 0, 78, 0
2, 43320, Note_on_c, 0, 76, 93
2, 43416, Note_on_c, 0, 76, 0
2, 43440, Note_on_c, 0, 79, 93
2, 43536, Note_on_c, 0, 79, 0
2, 43560, Note_on_c, 0, 73, 93
2, 43656, Note_on_c, 0, 73, 0
2, 43680, Note_on_c, 0, 71, 93
2, 43776, Note_on_c, 0, 71, 0
2, 43800, Note_on_c, 0, 69, 93
2, 43896, Note_on_c, 0, 69, 0
2, 43920, Note_on_c, 0, 74, 93
2, 44016, Note_on_c, 0, 74, 0
2, 44040, Note_on_c, 0, 73, 93
2, 44136, Note_on_c, 0, 73, 0
2, 44160, Note_on_c, 0, 76, 93
2, 44256, Note_on_c, 0, 76, 0
2, 44280, Note_on_c, 0, 74, 93
2, 44376, Note_on_c, 0, 74, 0
2, 44400, Note_on_c, 0, 78, 93
2, 44496, Note_on_c, 0, 78, 0
2, 44520, Note_on_c, 0, 73, 93
2, 44616, Note_on_c, 0, 73, 0
2, 44640, Note_on_c, 0, 71, 93
2, 44736, Note_on_c, 0, 71, 0
2, 44760, Note_on_c, 0, 69, 93
2, 44856, Note_on_c, 0, 69, 0
2, 44880, Note_on_c, 0, 76, 93
2, 44976, Note_on_c, 0, 76, 0
2, 45000, Note_on_c, 0, 74, 93
2, 45096, Note_on_c, 0, 74, 0
2, 45120, Note_on_c, 0, 78, 93
2, 45216, Note_on_c, 0, 78, 0
2, 45240, Note_on_c, 0, 76, 93
2, 45336, Note_on_c, 0, 76, 0
2, 45360, Note_on_c, 0, 79, 93
2, 45456, Note_on_c, 0, 79, 0
2, 45480, Note_on_c, 0, 73, 93
2, 45576, Note_on_c, 0, 73, 0
2, 45600, Note_on_c, 0, 71, 93
2, 45696, Note_on_c, 0, 71, 0
2, 45720, Note_on_c, 0, 69, 93
2, 45816, Note_on_c, 0, 69, 0
2, 45840, Note_on_c, 0, 74, 93
2, 45936, Note_on_c, 0, 74, 0
2, 45960, Note_on_c, 0, 73, 93
2, 46056, Note_on_c, 0, 73, 0
2, 46080, Note_on_c, 0, 76, 93
2, 46176, Note_on_c, 0, 76, 0
2, 46200, Note_on_c, 0, 74, 93
2, 46296, Note_on_c, 0, 74, 0
2, 46320, Note_on_c, 0, 78, 93
2, 46416, Note_on_c, 0, 78, 0
2, 46440, Note_on_c, 0, 74, 93
2, 46536, Note_on_c, 0, 74, 0
2, 46560, Note_on_c, 0, 73, 93
2, 46656, Note_on_c, 0, 73, 0
2, 46680, Note_on_c, 0, 71, 93
2, 46776, Note_on_c, 0, 71, 0
2, 46800, Note_on_c, 0, 78, 93
2, 46896, Note_on_c, 0, 78, 0
2, 46920, Note_on_c, 0, 76, 93
2, 47016, Note_on_c, 0, 76, 0
2, 47040, Note_on_c, 0, 80, 93
2, 47136, Note_on_c, 0, 80, 0
2, 47160, Note_on_c, 0, 78, 93
2, 47256, Note_on_c, 0, 78, 0
2, 47280, Note_on_c, 0, 81, 93
2, 47376, Note_on_c, 0, 81, 0
2, 47400, Note_on_c, 0, 75, 93
2, 47496, Note_on_c, 0, 75, 0
2, 47520, Note_on_c, 0, 73, 93
2, 47616, Note_on_c, 0, 73, 0
2, 47640, Note_on_c, 0, 71, 93
2, 47736, Note_on_c, 0, 71, 0
2, 47760, Note_on_c, 0, 76, 93
2, 47856, Note_on_c, 0, 76, 0
2, 47880, Note_on_c, 0, 75, 93
2, 47976, Note_on_c, 0, 75, 0
2, 48000, Note_on_c, 0, 78, 93
2, 48096, Note_on_c, 0, 78, 0
2, 48120, Note_on_c, 0, 76, 93
2, 48216, Note_on_c, 0, 76, 0
2, 48240, Note_on_c, 0, 80, 93
2, 48336, Note_on_c, 0, 80, 0
2, 48360, Note_on_c, 0, 75, 93
2, 48456, Note_on_c, 0, 75, 0
2, 48480, Note_on_c, 0, 73, 93
2, 48576, Note_on_c, 0, 73, 0
2, 48600, Note_on_c, 0, 71, 93
2, 48696, Note_on_c, 0, 71, 0
2, 48720, Note_on_c, 0, 78, 93
2, 48816, Note_on_c, 0, 78, 0
2, 48840, Note_on_c, 0, 76, 93
2, 48936, Note_on_c, 0, 76, 0
2, 48960, Note_on_c, 0, 80, 93
2, 49056, Note_on_c, 0, 80, 0
2, 49080, Note_on_c, 0, 78, 93
2, 49176, Note_on_c, 0, 78, 0
2, 49200, Note_on_c, 0, 81, 93
2, 49296, Note_on_c, 0, 81, 0
2, 49320, Note_on_c, 0, 75, 93
2, 49416, Note_on_c, 0, 75, 0
2, 49440, Note_on_c, 0, 73, 93
2, 49536, Note_on_c, 0, 73, 0
2, 49560, Note_on_c, 0, 71, 93
2, 49656, Note_on_c, 0, 71, 0
2, 49680, Note_on_c, 0, 76, 93
2, 49776, Note_on_c, 0, 76, 0
2, 49800, Note_on_c, 0, 75, 93
2, 49896, Note_on_c, 0, 75, 0
2, 49920, Note_on_c, 0, 78, 93
2, 50016, Note_on_c, 0, 78, 0
2, 50040, Note_on_c, 0, 76, 93
2, 50136, Note_on_c, 0, 76, 0
2, 50160, Note_on_c, 0, 80, 93
2, 50256, Note_on_c, 0, 80, 0
2, 50280, Note_on_c, 0, 78, 93
2, 50376, Note_on_c, 0, 78, 0
2, 50400, Note_on_c, 0, 76, 93
2, 50496, Note_on_c, 0, 76, 0
2, 50520, Note_on_c, 0, 78, 93
2, 50616, Note_on_c, 0, 78, 0
2, 50640, Note_on_c, 0, 80, 93
2, 50736, Note_on_c, 0, 80, 0
2, 50760, Note_on_c, 0, 78, 93
2, 50856, Note_on_c, 0, 78, 0
2, 50880, Note_on_c, 0, 81, 93
2, 50976, Note_on_c, 0, 81, 0
2, 51000, Note_on_c, 0, 80, 93
2, 51096, Note_on_c, 0, 80, 0
2, 51120, Note_on_c, 0, 83, 93
2, 51216, Note_on_c, 0, 83, 0
2, 51240, Note_on_c, 0, 81, 93
2, 51336, Note_on_c, 0, 81, 0
2, 51360, Note_on_c, 0, 80, 93
2, 51456, Note_on_c, 0, 80, 0
2, 51480, Note_on_c, 0, 78, 93
2, 51576, Note_on_c, 0, 78, 0
2, 51600, Note_on_c, 0, 81, 93
2, 51696, Note_on_c, 0, 81, 0
2, 51720, Note_on_c, 0, 80, 93
2, 51816, Note_on_c, 0, 80, 0
2, 51840, Note_on_c, 0, 78, 93
2, 51936, Note_on_c, 0, 78, 0
2, 51960, Note_on_c, 0, 76, 93
2, 52056, Note_on_c, 0, 76, 0
2, 52080, Note_on_c, 0, 81, 93
2, 52368, Note_on_c, 0, 81, 0
2, 52440, Note_on_c, 0, 83, 93
2, 52536, Note_on_c, 0, 83, 0
2, 52560, Note_on_c, 0, 80, 93
2, 52584, Note_on_c, 0, 80, 0
2, 52590, Note_on_c, 0, 78, 93
2, 52614, Note_on_c, 0, 78, 0
2, 52620, Note_on_c, 0, 80, 93
2, 52905, Note_on_c, 0, 80, 0
2, 52920, Note_on_c, 0, 81, 93
2, 53016, Note_on_c, 0, 81, 0
2, 53040, Note_on_c, 0, 81, 93
2, 53616, Note_on_c, 0, 81, 0
2, 53760, Note_on_c, 0, 76, 93
2, 53952, Note_on_c, 0, 76, 0
2, 54000, Note_on_c, 0, 76, 93
2, 54096, Note_on_c, 0, 76, 0
2, 54120, Note_on_c, 0, 73, 93
2, 54216, Note_on_c, 0, 73, 0
2, 54240, Note_on_c, 0, 71, 93
2, 54336, Note_on_c, 0, 71, 0
2, 54360, Note_on_c, 0, 69, 93
2, 54456, Note_on_c, 0, 69, 0
2, 54480, Note_on_c, 0, 73, 93
2, 54576, Note_on_c, 0, 73, 0
2, 54600, Note_on_c, 0, 71, 93
2, 54696, Note_on_c, 0, 71, 0
2, 54720, Note_on_c, 0, 74, 93
2, 54816, Note_on_c, 0, 74, 0
2, 54840, Note_on_c, 0, 73, 93
2, 54936, Note_on_c, 0, 73, 0
2, 54960, Note_on_c, 0, 74, 93
2, 55056, Note_on_c, 0, 74, 0
2, 55080, Note_on_c, 0, 71, 93
2, 55176, Note_on_c, 0, 71, 0
2, 55200, Note_on_c, 0, 69, 93
2, 55296, Note_on_c, 0, 69, 0
2, 55320, Note_on_c, 0, 68, 93
2, 55416, Note_on_c, 0, 68, 0
2, 55440, Note_on_c, 0, 71, 93
2, 55536, Note_on_c, 0, 71, 0
2, 55560, Note_on_c, 0, 69, 93
2, 55656, Note_on_c, 0, 69, 0
2, 55680, Note_on_c, 0, 73, 93
2, 55776, Note_on_c, 0, 73, 0
2, 55800, Note_on_c, 0, 71, 93
2, 55896, Note_on_c, 0, 71, 0
2, 55920, Note_on_c, 0, 74, 93
2, 56016, Note_on_c, 0, 74, 0
2, 56040, Note_on_c, 0, 73, 93
2, 56136, Note_on_c, 0, 73, 0
2, 56160, Note_on_c, 0, 71, 93
2, 56256, Note_on_c, 0, 71, 0
2, 56280, Note_on_c, 0, 69, 93
2, 56376, Note_on_c, 0, 69, 0
2, 56400, Note_on_c, 0, 73, 93
2, 56496, Note_on_c, 0, 73, 0
2, 56520, Note_on_c, 0, 71, 93
2, 56616, Note_on_c, 0, 71, 0
2, 56640, Note_on_c, 0, 69, 93
2, 56736, Note_on_c, 0, 69, 0
2, 56760, Note_on_c, 0, 68, 93
2, 56856, Note_on_c, 0, 68, 0
2, 56880, Note_on_c, 0, 69, 93
2, 56970, Note_on_c, 0, 69, 0
2, 57000, Note_on_c, 0, 64, 93
2, 57096, Note_on_c, 0, 64, 0
2, 57120, Note_on_c, 0, 66, 93
2, 57216, Note_on_c, 0, 66, 0
2, 57240, Note_on_c, 0, 68, 93
2, 57336, Note_on_c, 0, 68, 0
2, 57360, Note_on_c, 0, 69, 93
2, 57456, Note_on_c, 0, 69, 0
2, 57480, Note_on_c, 0, 71, 93
2, 57576, Note_on_c, 0, 71, 0
2, 57600, Note_on_c, 0, 73, 93
2, 57696, Note_on_c, 0, 73, 0
2, 57720, Note_on_c, 0, 74, 93
2, 57816, Note_on_c, 0, 74, 0
2, 57840, Note_on_c, 0, 76, 93
2, 57936, Note_on_c, 0, 76, 0
2, 57960, Note_on_c, 0, 73, 93
2, 58056, Note_on_c, 0, 73, 0
2, 58080, Note_on_c, 0, 71, 93
2, 58176, Note_on_c, 0, 71, 0
2, 58200, Note_on_c, 0, 69, 93
2, 58296, Note_on_c, 0, 69, 0
2, 58320, Note_on_c, 0, 73, 93
2, 58416, Note_on_c, 0, 73, 0
2, 58440, Note_on_c, 0, 71, 93
2, 58536, Note_on_c, 0, 71, 0
2, 58560, Note_on_c, 0, 74, 93
2, 58656, Note_on_c, 0, 74, 0
2, 58680, Note_on_c, 0, 73, 93
2, 58776, Note_on_c, 0, 73, 0
2, 58800, Note_on_c, 0, 74, 93
2, 58896, Note_on_c, 0, 74, 0
2, 58920, Note_on_c, 0, 71, 93
2, 59016, Note_on_c, 0, 71, 0
2, 59040, Note_on_c, 0, 69, 93
2, 59136, Note_on_c, 0, 69, 0
2, 59160, Note_on_c, 0, 68, 93
2, 59256, Note_on_c, 0, 68, 0
2, 59280, Note_on_c, 0, 71, 93
2, 59376, Note_on_c, 0, 71, 0
2, 59400, Note_on_c, 0, 69, 93
2, 59496, Note_on_c, 0, 69, 0
2, 59520, Note_on_c, 0, 73, 93
2, 59616, Note_on_c, 0, 73, 0
2, 59640, Note_on_c, 0, 71, 93
2, 59736, Note_on_c, 0, 71, 0
2, 59760, Note_on_c, 0, 74, 93
2, 59856, Note_on_c, 0, 74, 0
2, 59880, Note_on_c, 0, 73, 93
2, 59976, Note_on_c, 0, 73, 0
2, 60000, Note_on_c, 0, 71, 93
2, 60096, Note_on_c, 0, 71, 0
2, 60120, Note_on_c, 0, 69, 93
2, 60216, Note_on_c, 0, 69, 0
2, 60240, Note_on_c, 0, 73, 93
2, 60336, Note_on_c, 0, 73, 0
2, 60360, Note_on_c, 0, 71, 93
2, 60456, Note_on_c, 0, 71, 0
2, 60480, Note_on_c, 0, 69, 93
2, 60576, Note_on_c, 0, 69, 0
2, 60600, Note_on_c, 0, 68, 93
2, 60696, Note_on_c, 0, 68, 0
2, 60720, Note_on_c, 0, 69, 93
2, 60744, Note_on_c, 0, 69, 0
2, 60750, Note_on_c, 0, 68, 93
2, 60774, Note_on_c, 0, 68, 0
2, 60780, Note_on_c, 0, 69, 93
2, 61344, Note_on_c, 0, 69, 0
2, 61440, Note_on_c, 0, 64, 93
2, 61620, Note_on_c, 0, 64, 0
2, 61680, Note_on_c, 0, 71, 93
2, 61776, Note_on_c, 0, 71, 0
2, 61800, Note_on_c, 0, 69, 93
2, 61896, Note_on_c, 0, 69, 0
2, 61920, Note_on_c, 0, 73, 93
2, 62016, Note_on_c, 0, 73, 0
2, 62040, Note_on_c, 0, 71, 93
2, 62136, Note_on_c, 0, 71, 0
2, 62160, Note_on_c, 0, 74, 93
2, 62256, Note_on_c, 0, 74, 0
2, 62280, Note_on_c, 0, 73, 93
2, 62376, Note_on_c, 0, 73, 0
2, 62400, Note_on_c, 0, 76, 93
2, 62592, Note_on_c, 0, 76, 0
2, 62640, Note_on_c, 0, 73, 93
2, 62664, Note_on_c, 0, 73, 0
2, 62670, Note_on_c, 0, 74, 93
2, 62694, Note_on_c, 0, 74, 0
2, 62700, Note_on_c, 0, 73, 93
2, 62856, Note_on_c, 0, 73, 0
2, 62880, Note_on_c, 0, 71, 93
2, 62976, Note_on_c, 0, 71, 0
2, 63000, Note_on_c, 0, 73, 93
2, 63096, Note_on_c, 0, 73, 0
2, 63120, Note_on_c, 0, 69, 93
2, 63216, Note_on_c, 0, 69, 0
2, 63240, Note_on_c, 0, 71, 93
2, 63336, Note_on_c, 0, 71, 0
2, 63360, Note_on_c, 0, 73, 93
2, 63456, Note_on_c, 0, 73, 0
2, 63480, Note_on_c, 0, 74, 93
2, 63576, Note_on_c, 0, 74, 0
2, 63600, Note_on_c, 0, 76, 93
2, 63696, Note_on_c, 0, 76, 0
2, 63720, Note_on_c, 0, 74, 93
2, 63816, Note_on_c, 0, 74, 0
2, 63840, Note_on_c, 0, 78, 93
2, 63936, Note_on_c, 0, 78, 0
2, 63960, Note_on_c, 0, 76, 93
2, 64056, Note_on_c, 0, 76, 0
2, 64080, Note_on_c, 0, 79, 93
2, 64176, Note_on_c, 0, 79, 0
2, 64200, Note_on_c, 0, 78, 93
2, 64296, Note_on_c, 0, 78, 0
2, 64320, Note_on_c, 0, 81, 93
2, 64545, Note_on_c, 0, 81, 0
2, 64560, Note_on_c, 0, 78, 93
2, 64584, Note_on_c, 0, 78, 0
2, 64590, Note_on_c, 0, 79, 93
2, 64614, Note_on_c, 0, 79, 0
2, 64620, Note_on_c, 0, 78, 93
2, 64668, Note_on_c, 0, 78, 0
2, 64680, Note_on_c, 0, 78, 93
2, 64776, Note_on_c, 0, 78, 0
2, 64800, Note_on_c, 0, 76, 93
2, 64896, Note_on_c, 0, 76, 0
2, 64920, Note_on_c, 0, 78, 93
2, 65016, Note_on_c, 0, 78, 0
2, 65040, Note_on_c, 0, 74, 93
2, 65232, Note_on_c, 0, 74, 0
2, 65280, Note_on_c, 0, 78, 93
2, 65472, Note_on_c, 0, 78, 0
2, 65520, Note_on_c, 0, 78, 93
2, 65616, Note_on_c, 0, 78, 0
2, 65640, Note_on_c, 0, 74, 93
2, 65736, Note_on_c, 0, 74, 0
2, 65760, Note_on_c, 0, 73, 93
2, 65856, Note_on_c, 0, 73, 0
2, 65880, Note_on_c, 0, 71, 93
2, 65976, Note_on_c, 0, 71, 0
2, 66000, Note_on_c, 0, 74, 93
2, 66096, Note_on_c, 0, 74, 0
2, 66120, Note_on_c, 0, 73, 93
2, 66216, Note_on_c, 0, 73, 0
2, 66240, Note_on_c, 0, 76, 93
2, 66336, Note_on_c, 0, 76, 0
2, 66360, Note_on_c, 0, 74, 93
2, 66456, Note_on_c, 0, 74, 0
2, 66480, Note_on_c, 0, 76, 93
2, 66576, Note_on_c, 0, 76, 0
2, 66600, Note_on_c, 0, 73, 93
2, 66696, Note_on_c, 0, 73, 0
2, 66720, Note_on_c, 0, 71, 93
2, 66816, Note_on_c, 0, 71, 0
2, 66840, Note_on_c, 0, 70, 93
2, 66936, Note_on_c, 0, 70, 0
2, 66960, Note_on_c, 0, 73, 93
2, 67056, Note_on_c, 0, 73, 0
2, 67080, Note_on_c, 0, 71, 93
2, 67176, Note_on_c, 0, 71, 0
2, 67200, Note_on_c, 0, 74, 93
2, 67296, Note_on_c, 0, 74, 0
2, 67320, Note_on_c, 0, 73, 93
2, 67416, Note_on_c, 0, 73, 0
2, 67440, Note_on_c, 0, 76, 93
2, 67536, Note_on_c, 0, 76, 0
2, 67560, Note_on_c, 0, 74, 93
2, 67656, Note_on_c, 0, 74, 0
2, 67680, Note_on_c, 0, 73, 93
2, 67776, Note_on_c, 0, 73, 0
2, 67800, Note_on_c, 0, 71, 93
2, 67896, Note_on_c, 0, 71, 0
2, 67920, Note_on_c, 0, 74, 93
2, 68016, Note_on_c, 0, 74, 0
2, 68040, Note_on_c, 0, 73, 93
2, 68136, Note_on_c, 0, 73, 0
2, 68160, Note_on_c, 0, 71, 93
2, 68256, Note_on_c, 0, 71, 0
2, 68280, Note_on_c, 0, 70, 93
2, 68376, Note_on_c, 0, 70, 0
2, 68400, Note_on_c, 0, 71, 93
2, 68976, Note_on_c, 0, 71, 0
2, 69120, Note_on_c, 0, 71, 93
2, 69300, Note_on_c, 0, 71, 0
2, 69360, Note_on_c, 0, 78, 93
2, 69456, Note_on_c, 0, 78, 0
2, 69480, Note_on_c, 0, 76, 93
2, 69576, Note_on_c, 0, 76, 0
2, 69600, Note_on_c, 0, 80, 93
2, 69696, Note_on_c, 0, 80, 0
2, 69720, Note_on_c, 0, 78, 93
2, 69816, Note_on_c, 0, 78, 0
2, 69840, Note_on_c, 0, 81, 93
2, 69936, Note_on_c, 0, 81, 0
2, 69960, Note_on_c, 0, 80, 93
2, 70056, Note_on_c, 0, 80, 0
2, 70080, Note_on_c, 0, 83, 93
2, 70272, Note_on_c, 0, 83, 0
2, 70320, Note_on_c, 0, 80, 93
2, 70344, Note_on_c, 0, 80, 0
2, 70350, Note_on_c, 0, 81, 93
2, 70374, Note_on_c, 0, 81, 0
2, 70380, Note_on_c, 0, 80, 93
2, 70536, Note_on_c, 0, 80, 0
2, 70560, Note_on_c, 0, 78, 93
2, 70656, Note_on_c, 0, 78, 0
2, 70680, Note_on_c, 0, 80, 93
2, 70776, Note_on_c, 0, 80, 0
2, 70800, Note_on_c, 0, 76, 93
2, 70992, Note_on_c, 0, 76, 0
2, 71040, Note_on_c, 0, 64, 93
2, 71232, Note_on_c, 0, 64, 0
2, 71280, Note_on_c, 0, 71, 93
2, 71376, Note_on_c, 0, 71, 0
2, 71400, Note_on_c, 0, 69, 93
2, 71496, Note_on_c, 0, 69, 0
2, 71520, Note_on_c, 0, 73, 93
2, 71616, Note_on_c, 0, 73, 0
2, 71640, Note_on_c, 0, 71, 93
2, 71736, Note_on_c, 0, 71, 0
2, 71760, Note_on_c, 0, 74, 93
2, 71856, Note_on_c, 0, 74, 0
2, 71880, Note_on_c, 0, 73, 93
2, 71976, Note_on_c, 0, 73, 0
2, 72000, Note_on_c, 0, 76, 93
2, 72192, Note_on_c, 0, 76, 0
2, 72240, Note_on_c, 0, 73, 93
2, 72264, Note_on_c, 0, 73, 0
2, 72270, Note_on_c, 0, 74, 93
2, 72294, Note_on_c, 0, 74, 0
2, 72300, Note_on_c, 0, 73, 93
2, 72456, Note_on_c, 0, 73, 0
2, 72480, Note_on_c, 0, 71, 93
2, 72576, Note_on_c, 0, 71, 0
2, 72600, Note_on_c, 0, 73, 93
2, 72696, Note_on_c, 0, 73, 0
2, 72720, Note_on_c, 0, 69, 93
2, 72816, Note_on_c, 0, 69, 0
2, 72840, Note_on_c, 0, 71, 93
2, 72936, Note_on_c, 0, 71, 0
2, 72960, Note_on_c, 0, 73, 93
2, 73056, Note_on_c, 0, 73, 0
2, 73080, Note_on_c, 0, 74, 93
2, 73176, Note_on_c, 0, 74, 0
2, 73200, Note_on_c, 0, 76, 93
2, 73296, Note_on_c, 0, 76, 0
2, 73320, Note_on_c, 0, 73, 93
2, 73416, Note_on_c, 0, 73, 0
2, 73440, Note_on_c, 0, 71, 93
2, 73536, Note_on_c, 0, 71, 0
2, 73560, Note_on_c, 0, 69, 93
2, 73656, Note_on_c, 0, 69, 0
2, 73680, Note_on_c, 0, 76, 93
2, 73776, Note_on_c, 0, 76, 0
2, 73800, Note_on_c, 0, 74, 93
2, 73896, Note_on_c, 0, 74, 0
2, 73920, Note_on_c, 0, 78, 93
2, 74016, Note_on_c, 0, 78, 0
2, 74040, Note_on_c, 0, 76, 93
2, 74136, Note_on_c, 0, 76, 0
2, 74160, Note_on_c, 0, 79, 93
2, 74256, Note_on_c, 0, 79, 0
2, 74280, Note_on_c, 0, 73, 93
2, 74376, Note_on_c, 0, 73, 0
2, 74400, Note_on_c, 0, 71, 93
2, 74496, Note_on_c, 0, 71, 0
2, 74520, Note_on_c, 0, 69, 93
2, 74616, Note_on_c, 0, 69, 0
2, 74640, Note_on_c, 0, 74, 93
2, 74736, Note_on_c, 0, 74, 0
2, 74760, Note_on_c, 0, 73, 93
2, 74856, Note_on_c, 0, 73, 0
2, 74880, Note_on_c, 0, 76, 93
2, 74976, Note_on_c, 0, 76, 0
2, 75000, Note_on_c, 0, 74, 93
2, 75096, Note_on_c, 0, 74, 0
2, 75120, Note_on_c, 0, 78, 93
2, 75216, Note_on_c, 0, 78, 0
2, 75240, Note_on_c, 0, 73, 93
2, 75336, Note_on_c, 0, 73, 0
2, 75360, Note_on_c, 0, 71, 93
2, 75456, Note_on_c, 0, 71, 0
2, 75480, Note_on_c, 0, 69, 93
2, 75576, Note_on_c, 0, 69, 0
2, 75600, Note_on_c, 0, 76, 93
2, 75696, Note_on_c, 0, 76, 0
2, 75720, Note_on_c, 0, 74, 93
2, 75816, Note_on_c, 0, 74, 0
2, 75840, Note_on_c, 0, 78, 93
2, 75936, Note_on_c, 0, 78, 0
2, 75960, Note_on_c, 0, 76, 93
2, 76056, Note_on_c, 0, 76, 0
2, 76080, Note_on_c, 0, 79, 93
2, 76176, Note_on_c, 0, 79, 0
2, 76200, Note_on_c, 0, 73, 93
2, 76296, Note_on_c, 0, 73, 0
2, 76320, Note_on_c, 0, 71, 93
2, 76416, Note_on_c, 0, 71, 0
2, 76440, Note_on_c, 0, 69, 93
2, 76536, Note_on_c, 0, 69, 0
2, 76560, Note_on_c, 0, 74, 93
2, 76656, Note_on_c, 0, 74, 0
2, 76680, Note_on_c, 0, 73, 93
2, 76776, Note_on_c, 0, 73, 0
2, 76800, Note_on_c, 0, 76, 93
2, 76896, Note_on_c, 0, 76, 0
2, 76920, Note_on_c, 0, 74, 93
2, 77016, Note_on_c, 0, 74, 0
2, 77040, Note_on_c, 0, 78, 93
2, 77136, Note_on_c, 0, 78, 0
2, 77160, Note_on_c, 0, 74, 93
2, 77256, Note_on_c, 0, 74, 0
2, 77280, Note_on_c, 0, 73, 93
2, 77376, Note_on_c, 0, 73, 0
2, 77400, Note_on_c, 0, 71, 93
2, 77496, Note_on_c, 0, 71, 0
2, 77520, Note_on_c, 0, 78, 93
2, 77616, Note_on_c, 0, 78, 0
2, 77640, Note_on_c, 0, 76, 93
2, 77736, Note_on_c, 0, 76, 0
2, 77760, Note_on_c, 0, 80, 93
2, 77856, Note_on_c, 0, 80, 0
2, 77880, Note_on_c, 0, 78, 93
2, 77976, Note_on_c, 0, 78, 0
2, 78000, Note_on_c, 0, 81, 93
2, 78096, Note_on_c, 0, 81, 0
2, 78120, Note_on_c, 0, 75, 93
2, 78216, Note_on_c, 0, 75, 0
2, 78240, Note_on_c, 0, 73, 93
2, 78336, Note_on_c, 0, 73, 0
2, 78360, Note_on_c, 0, 71, 93
2, 78456, Note_on_c, 0, 71, 0
2, 78480, Note_on_c, 0, 76, 93
2, 78576, Note_on_c, 0, 76, 0
2, 78600, Note_on_c, 0, 75, 93
2, 78696, Note_on_c, 0, 75, 0
2, 78720, Note_on_c, 0, 78, 93
2, 78816, Note_on_c, 0, 78, 0
2, 78840, Note_on_c, 0, 76, 93
2, 78936, Note_on_c, 0, 76, 0
2, 78960, Note_on_c, 0, 80, 93
2, 79056, Note_on_c, 0, 80, 0
2, 79080, Note_on_c, 0, 75, 93
2, 79176, Note_on_c, 0, 75, 0
2, 79200, Note_on_c, 0, 73, 93
2, 79296, Note_on_c, 0, 73, 0
2, 79320, Note_on_c, 0, 71, 93
2, 79416, Note_on_c, 0, 71, 0
2, 79440, Note_on_c, 0, 78, 93
2, 79536, Note_on_c, 0, 78, 0
2, 79560, Note_on_c, 0, 76, 93
2, 79656, Note_on_c, 0, 76, 0
2, 79680, Note_on_c, 0, 80, 93
2, 79776, Note_on_c, 0, 80, 0
2, 79800, Note_on_c, 0, 78, 93
2, 79896, Note_on_c, 0, 78, 0
2, 79920, Note_on_c, 0, 81, 93
2, 80016, Note_on_c, 0, 81, 0
2, 80040, Note_on_c, 0, 75, 93
2, 80136, Note_on_c, 0, 75, 0
2, 80160, Note_on_c, 0, 73, 93
2, 80256, Note_on_c, 0, 73, 0
2, 80280, Note_on_c, 0, 71, 93
2, 80376, Note_on_c, 0, 71, 0
2, 80400, Note_on_c, 0, 76, 93
2, 80496, Note_on_c, 0, 76, 0
2, 80520, Note_on_c, 0, 75, 93
2, 80616, Note_on_c, 0, 75, 0
2, 80640, Note_on_c, 0, 78, 93
2, 80736, Note_on_c, 0, 78, 0
2, 80760, Note_on_c, 0, 76, 93
2, 80856, Note_on_c, 0, 76, 0
2, 80880, Note_on_c, 0, 80, 93
2, 80976, Note_on_c, 0, 80, 0
2, 81000, Note_on_c, 0, 78, 93
2, 81096, Note_on_c, 0, 78, 0
2, 81120, Note_on_c, 0, 76, 93
2, 81216, Note_on_c, 0, 76, 0
2, 81240, Note_on_c, 0, 78, 93
2, 81336, Note_on_c, 0, 78, 0
2, 81360, Note_on_c, 0, 80, 93
2, 81456, Note_on_c, 0, 80, 0
2, 81480, Note_on_c, 0, 78, 93
2, 81576, Note_on_c, 0, 78, 0
2, 81600, Note_on_c, 0, 81, 93
2, 81696, Note_on_c, 0, 81, 0
2, 81720, Note_on_c, 0, 80, 93
2, 81816, Note_on_c, 0, 80, 0
2, 81840, Note_on_c, 0, 83, 93
2, 81936, Note_on_c, 0, 83, 0
2, 81960, Note_on_c, 0, 81, 93
2, 82056, Note_on_c, 0, 81, 0
2, 82080, Note_on_c, 0, 80, 93
2, 82176, Note_on_c, 0, 80, 0
2, 82200, Note_on_c, 0, 78, 93
2, 82296, Note_on_c, 0, 78, 0
2, 82320, Note_on_c, 0, 81, 93
2, 82416, Note_on_c, 0, 81, 0
2, 82440, Note_on_c, 0, 80, 93
2, 82536, Note_on_c, 0, 80, 0
2, 82560, Note_on_c, 0, 78, 93
2, 82656, Note_on_c, 0, 78, 0
2, 82680, Note_on_c, 0, 76, 93
2, 82776, Note_on_c, 0, 76, 0
2, 82800, Note_on_c, 0, 81, 93
2, 83088, Note_on_c, 0, 81, 0
2, 83160, Note_on_c, 0, 83, 93
2, 83256, Note_on_c, 0, 83, 0
2, 83280, Note_on_c, 0, 80, 93
2, 83304, Note_on_c, 0, 80, 0
2, 83310, Note_on_c, 0, 78, 93
2, 83334, Note_on_c, 0, 78, 0
2, 83340, Note_on_c, 0, 80, 93
2, 83625, Note_on_c, 0, 80, 0
2, 83640, Note_on_c, 0, 81, 93
2, 83736, Note_on_c, 0, 81, 0
2, 83760, Note_on_c, 0, 81, 93
2, 84336, Note_on_c, 0, 81, 0
2, 84480, Note_on_c, 0, 76, 93
2, 84672, Note_on_c, 0, 76, 0
2, 84720, Note_on_c, 0, 76, 93
2, 84816, Note_on_c, 0, 76, 0
2, 84840, Note_on_c, 0, 73, 93
2, 84936, Note_on_c, 0, 73, 0
2, 84960, Note_on_c, 0, 71, 93
2, 85056, Note_on_c, 0, 71, 0
2, 85080, Note_on_c, 0, 69, 93
2, 85176, Note_on_c, 0, 69, 0
2, 85200, Note_on_c, 0, 73, 93
2, 85296, Note_on_c, 0, 73, 0
2, 85320, Note_on_c, 0, 71, 93
2, 85416, Note_on_c, 0, 71, 0
2, 85440, Note_on_c, 0, 74, 93
2, 85536, Note_on_c, 0, 74, 0
2, 85560, Note_on_c, 0, 73, 93
2, 85656, Note_on_c, 0, 73, 0
2, 85680, Note_on_c, 0, 74, 93
2, 85776, Note_on_c, 0, 74, 0
2, 85800, Note_on_c, 0, 71, 93
2, 85896, Note_on_c, 0, 71, 0
2, 85920, Note_on_c, 0, 69, 93
2, 86016, Note_on_c, 0, 69, 0
2, 86040, Note_on_c, 0, 68, 93
2, 86136, Note_on_c, 0, 68, 0
2, 86160, Note_on_c, 0, 71, 93
2, 86256, Note_on_c, 0, 71, 0
2, 86280, Note_on_c, 0, 69, 93
2, 86376, Note_on_c, 0, 69, 0
2, 86400, Note_on_c, 0, 73, 93
2, 86496, Note_on_c, 0, 73, 0
2, 86520, Note_on_c, 0, 71, 93
2, 86616, Note_on_c, 0, 71, 0
2, 86640, Note_on_c, 0, 74, 93
2, 86736, Note_on_c, 0, 74, 0
2, 86760, Note_on_c, 0, 73, 93
2, 86856, Note_on_c, 0, 73, 0
2, 86880, Note_on_c, 0, 71, 93
2, 86976, Note_on_c, 0, 71, 0
2, 87000, Note_on_c, 0, 69, 93
2, 87096, Note_on_c, 0, 69, 0
2, 87120, Note_on_c, 0, 73, 93
2, 87216, Note_on_c, 0, 73, 0
2, 87240, Note_on_c, 0, 71, 93
2, 87336, Note_on_c, 0, 71, 0
2, 87360, Note_on_c, 0, 69, 93
2, 87456, Note_on_c, 0, 69, 0
2, 87480, Note_on_c, 0, 68, 93
2, 87576, Note_on_c, 0, 68, 0
2, 87600, Note_on_c, 0, 69, 93
2, 87690, Note_on_c, 0, 69, 0
2, 87720, Note_on_c, 0, 64, 93
2, 87816, Note_on_c, 0, 64, 0
2, 87840, Note_on_c, 0, 66, 93
2, 87936, Note_on_c, 0, 66, 0
2, 87960, Note_on_c, 0, 68, 93
2, 88056, Note_on_c, 0, 68, 0
2, 88080, Note_on_c, 0, 69, 93
2, 88176, Note_on_c, 0, 69, 0
2, 88200, Note_on_c, 0, 71, 93
2, 88296, Note_on_c, 0, 71, 0
2, 88320, Note_on_c, 0, 73, 93
2, 88416, Note_on_c, 0, 73, 0
2, 88440, Note_on_c, 0, 74, 93
2, 88536, Note_on_c, 0, 74, 0
2, 88560, Note_on_c, 0, 76, 93
2, 88656, Note_on_c, 0, 76, 0
2, 88680, Note_on_c, 0, 73, 93
2, 88776, Note_on_c, 0, 73, 0
2, 88800, Note_on_c, 0, 71, 93
2, 88896, Note_on_c, 0, 71, 0
2, 88920, Note_on_c, 0, 69, 93
2, 89016, Note_on_c, 0, 69, 0
2, 89040, Note_on_c, 0, 73, 93
2, 89136, Note_on_c, 0, 73, 0
2, 89160, Note_on_c, 0, 71, 93
2, 89256, Note_on_c, 0, 71, 0
2, 89280, Note_on_c, 0, 74, 93
2, 89376, Note_on_c, 0, 74, 0
2, 89400, Note_on_c, 0, 73, 93
2, 89496, Note_on_c, 0, 73, 0
2, 89520, Note_on_c, 0, 74, 93
2, 89616, Note_on_c, 0, 74, 0
2, 89640, Note_on_c, 0, 71, 93
2, 89736, Note_on_c, 0, 71, 0
2, 89760, Note_on_c, 0, 69, 93
2, 89856, Note_on_c, 0, 69, 0
2, 89880, Note_on_c, 0, 68, 93
2, 89976, Note_on_c, 0, 68, 0
2, 90000, Note_on_c, 0, 71, 93
2, 90096, Note_on_c, 0, 71, 0
2, 90120, Note_on_c, 0, 69, 93
2, 90216, Note_on_c, 0, 69, 0
2, 90240, Note_on_c, 0, 73, 93
2, 90336, Note_on_c, 0, 73, 0
2, 90360, Note_on_c, 0, 71, 93
2, 90456, Note_on_c, 0, 71, 0
2, 90480, Note_on_c, 0, 74, 93
2, 90576, Note_on_c, 0, 74, 0
2, 90600, Note_on_c, 0, 73, 93
2, 90696, Note_on_c, 0, 73, 0
2, 90720, Note_on_c, 0, 71, 93
2, 90816, Note_on_c, 0, 71, 0
2, 90840, Note_on_c, 0, 69, 93
2, 90936, Note_on_c, 0, 69, 0
2, 90960, Note_on_c, 0, 73, 93
2, 91056, Note_on_c, 0, 73, 0
2, 91080, Note_on_c, 0, 71, 93
2, 91176, Note_on_c, 0, 71, 0
2, 91200, Note_on_c, 0, 69, 93
2, 91296, Note_on_c, 0, 69, 0
2, 91320, Note_on_c, 0, 68, 93
2, 91416, Note_on_c, 0, 68, 0
2, 91440, Note_on_c, 0, 69, 93
2, 91464, Note_on_c, 0, 69, 0
2, 91470, Note_on_c, 0, 68, 93
2, 91494, Note_on_c, 0, 68, 0
2, 91500, Note_on_c, 0, 69, 93
2, 92064, Note_on_c, 0, 69, 0
2, 92064, End_track
3, 0, Start_track
3, 0, MIDI_port, 0
3, 0, Title_t, "J.S. Bach, Edition Wood"
3, 0, Program_c, 1, 0
3, 0, Control_c, 1, 7, 100
3, 0, Control_c, 1, 10, 64
3, 1920, Note_on_c, 1, 52, 93
3, 2100, Note_on_c, 1, 52, 0
3, 2160, Note_on_c, 1, 57, 93
3, 2256, Note_on_c, 1, 57, 0
3, 2280, Note_on_c, 1, 56, 93
3, 2376, Note_on_c, 1, 56, 0
3, 2400, Note_on_c, 1, 59, 93
3, 2496, Note_on_c, 1, 59, 0
3, 2520, Note_on_c, 1, 57, 93
3, 2616, Note_on_c, 1, 57, 0
3, 2640, Note_on_c, 1, 61, 93
3, 2736, Note_on_c, 1, 61, 0
3, 2760, Note_on_c, 1, 59, 93
3, 2856, Note_on_c, 1, 59, 0
3, 2880, Note_on_c, 1, 57, 93
3, 2976, Note_on_c, 1, 57, 0
3, 3000, Note_on_c, 1, 56, 93
3, 3096, Note_on_c, 1, 56, 0
3, 3120, Note_on_c, 1, 57, 93
3, 3312, Note_on_c, 1, 57, 0
3, 3360, Note_on_c, 1, 52, 93
3, 3552, Note_on_c, 1, 52, 0
3, 3600, Note_on_c, 1, 49, 93
3, 3696, Note_on_c, 1, 49, 0
3, 3720, Note_on_c, 1, 52, 93
3, 3816, Note_on_c, 1, 52, 0
3, 3840, Note_on_c, 1, 57, 93
3, 3936, Note_on_c, 1, 57, 0
3, 3960, Note_on_c, 1, 59, 93
3, 4056, Note_on_c, 1, 59, 0
3, 4080, Note_on_c, 1, 61, 93
3, 4176, Note_on_c, 1, 61, 0
3, 4200, Note_on_c, 1, 59, 93
3, 4296, Note_on_c, 1, 59, 0
3, 4320, Note_on_c, 1, 62, 93
3, 4416, Note_on_c, 1, 62, 0
3, 4440, Note_on_c, 1, 61, 93
3, 4536, Note_on_c, 1, 61, 0
3, 4560, Note_on_c, 1, 64, 93
3, 4656, Note_on_c, 1, 64, 0
3, 4680, Note_on_c, 1, 62, 93
3, 4776, Note_on_c, 1, 62, 0
3, 4800, Note_on_c, 1, 61, 93
3, 4896, Note_on_c, 1, 61, 0
3, 4920, Note_on_c, 1, 57, 93
3, 5016, Note_on_c, 1, 57, 0
3, 5040, Note_on_c, 1, 62, 93
3, 5136, Note_on_c, 1, 62, 0
3, 5160, Note_on_c, 1, 61, 93
3, 5256, Note_on_c, 1, 61, 0
3, 5280, Note_on_c, 1, 64, 93
3, 5376, Note_on_c, 1, 64, 0
3, 5400, Note_on_c, 1, 62, 93
3, 5496, Note_on_c, 1, 62, 0
3, 5520, Note_on_c, 1, 66, 93
3, 5616, Note_on_c, 1, 66, 0
3, 5640, Note_on_c, 1, 64, 93
3, 5736, Note_on_c, 1, 64, 0
3, 5760, Note_on_c, 1, 63, 93
3, 5856, Note_on_c, 1, 63, 0
3, 5880, Note_on_c, 1, 59, 93
3, 5976, Note_on_c, 1, 59, 0
3, 6000, Note_on_c, 1, 64, 93
3, 6096, Note_on_c, 1, 64, 0
3, 6120, Note_on_c, 1, 66, 93
3, 6216, Note_on_c, 1, 66, 0
3, 6240, Note_on_c, 1, 64, 93
3, 6336, Note_on_c, 1, 64, 0
3, 6360, Note_on_c, 1, 62, 93
3, 6456, Note_on_c, 1, 62, 0
3, 6480, Note_on_c, 1, 61, 93
3, 6576, Note_on_c, 1, 61, 0
3, 6600, Note_on_c, 1, 59, 93
3, 6696, Note_on_c, 1, 59, 0
3, 6720, Note_on_c, 1, 61, 93
3, 6816, Note_on_c, 1, 61, 0
3, 6840, Note_on_c, 1, 57, 93
3, 6936, Note_on_c, 1, 57, 0
3, 6960, Note_on_c, 1, 64, 93
3, 7056, Note_on_c, 1, 64, 0
3, 7080, Note_on_c, 1, 63, 93
3, 7176, Note_on_c, 1, 63, 0
3, 7200, Note_on_c, 1, 66, 93
3, 7296, Note_on_c, 1, 66, 0
3, 7320, Note_on_c, 1, 64, 93
3, 7416, Note_on_c, 1, 64, 0
3, 7440, Note_on_c, 1, 68, 93
3, 7536, Note_on_c, 1, 68, 0
3, 7560, Note_on_c, 1, 66, 93
3, 7656, Note_on_c, 1, 66, 0
3, 7680, Note_on_c, 1, 64, 93
3, 7776, Note_on_c, 1, 64, 0
3, 7800, Note_on_c, 1, 62, 93
3, 7896, Note_on_c, 1, 62, 0
3, 7920, Note_on_c, 1, 61, 93
3, 8016, Note_on_c, 1, 61, 0
3, 8040, Note_on_c, 1, 59, 93
3, 8136, Note_on_c, 1, 59, 0
3, 8160, Note_on_c, 1, 62, 93
3, 8256, Note_on_c, 1, 62, 0
3, 8280, Note_on_c, 1, 61, 93
3, 8376, Note_on_c, 1, 61, 0
3, 8400, Note_on_c, 1, 64, 93
3, 8496, Note_on_c, 1, 64, 0
3, 8520, Note_on_c, 1, 62, 93
3, 8616, Note_on_c, 1, 62, 0
3, 8640, Note_on_c, 1, 61, 93
3, 8736, Note_on_c, 1, 61, 0
3, 8760, Note_on_c, 1, 59, 93
3, 8856, Note_on_c, 1, 59, 0
3, 8880, Note_on_c, 1, 61, 93
3, 8976, Note_on_c, 1, 61, 0
3, 9000, Note_on_c, 1, 62, 93
3, 9096, Note_on_c, 1, 62, 0
3, 9120, Note_on_c, 1, 61, 93
3, 9216, Note_on_c, 1, 61, 0
3, 9240, Note_on_c, 1, 59, 93
3, 9336, Note_on_c, 1, 59, 0
3, 9360, Note_on_c, 1, 57, 93
3, 9552, Note_on_c, 1, 57, 0
3, 9600, Note_on_c, 1, 52, 93
3, 9792, Note_on_c, 1, 52, 0
3, 9840, Note_on_c, 1, 57, 93
3, 9936, Note_on_c, 1, 57, 0
3, 9960, Note_on_c, 1, 56, 93
3, 10056, Note_on_c, 1, 56, 0
3, 10080, Note_on_c, 1, 59, 93
3, 10176, Note_on_c, 1, 59, 0
3, 10200, Note_on_c, 1, 57, 93
3, 10296, Note_on_c, 1, 57, 0
3, 10320, Note_on_c, 1, 61, 93
3, 10416, Note_on_c, 1, 61, 0
3, 10440, Note_on_c, 1, 59, 93
3, 10536, Note_on_c, 1, 59, 0
3, 10560, Note_on_c, 1, 57, 93
3, 10656, Note_on_c, 1, 57, 0
3, 10680, Note_on_c, 1, 56, 93
3, 10776, Note_on_c, 1, 56, 0
3, 10800, Note_on_c, 1, 57, 93
3, 10992, Note_on_c, 1, 57, 0
3, 11040, Note_on_c, 1, 52, 93
3, 11232, Note_on_c, 1, 52, 0
3, 11280, Note_on_c, 1, 49, 93
3, 11472, Note_on_c, 1, 49, 0
3, 11520, Note_on_c, 1, 52, 93
3, 11712, Note_on_c, 1, 52, 0
3, 11760, Note_on_c, 1, 45, 93
3, 11952, Note_on_c, 1, 45, 0
3, 12000, Note_on_c, 1, 52, 93
3, 12192, Note_on_c, 1, 52, 0
3, 12240, Note_on_c, 1, 57, 93
3, 12336, Note_on_c, 1, 57, 0
3, 12360, Note_on_c, 1, 56, 93
3, 12456, Note_on_c, 1, 56, 0
3, 12480, Note_on_c, 1, 59, 93
3, 12576, Note_on_c, 1, 59, 0
3, 12600, Note_on_c, 1, 57, 93
3, 12696, Note_on_c, 1, 57, 0
3, 12720, Note_on_c, 1, 61, 93
3, 12816, Note_on_c, 1, 61, 0
3, 12840, Note_on_c, 1, 59, 93
3, 12936, Note_on_c, 1, 59, 0
3, 12960, Note_on_c, 1, 57, 93
3, 13056, Note_on_c, 1, 57, 0
3, 13080, Note_on_c, 1, 56, 93
3, 13176, Note_on_c, 1, 56, 0
3, 13200, Note_on_c, 1, 54, 93
3, 13296, Note_on_c, 1, 54, 0
3, 13320, Note_on_c, 1, 52, 93
3, 13416, Note_on_c, 1, 52, 0
3, 13440, Note_on_c, 1, 56, 93
3, 13536, Note_on_c, 1, 56, 0
3, 13560, Note_on_c, 1, 54, 93
3, 13656, Note_on_c, 1, 54, 0
3, 13680, Note_on_c, 1, 57, 93
3, 13776, Note_on_c, 1, 57, 0
3, 13800, Note_on_c, 1, 56, 93
3, 13896, Note_on_c, 1, 56, 0
3, 13920, Note_on_c, 1, 54, 93
3, 14016, Note_on_c, 1, 54, 0
3, 14040, Note_on_c, 1, 52, 93
3, 14136, Note_on_c, 1, 52, 0
3, 14160, Note_on_c, 1, 59, 93
3, 14340, Note_on_c, 1, 59, 0
3, 14400, Note_on_c, 1, 47, 93
3, 14580, Note_on_c, 1, 47, 0
3, 14640, Note_on_c, 1, 52, 93
3, 14736, Note_on_c, 1, 52, 0
3, 14760, Note_on_c, 1, 51, 93
3, 14856, Note_on_c, 1, 51, 0
3, 14880, Note_on_c, 1, 54, 93
3, 14976, Note_on_c, 1, 54, 0
3, 15000, Note_on_c, 1, 52, 93
3, 15096, Note_on_c, 1, 52, 0
3, 15120, Note_on_c, 1, 56, 93
3, 15216, Note_on_c, 1, 56, 0
3, 15240, Note_on_c, 1, 54, 93
3, 15336, Note_on_c, 1, 54, 0
3, 15360, Note_on_c, 1, 52, 93
3, 15456, Note_on_c, 1, 52, 0
3, 15480, Note_on_c, 1, 50, 93
3, 15576, Note_on_c, 1, 50, 0
3, 15600, Note_on_c, 1, 49, 93
3, 15624, Note_on_c, 1, 49, 0
3, 15630, Note_on_c, 1, 50, 93
3, 15654, Note_on_c, 1, 50, 0
3, 15660, Note_on_c, 1, 49, 93
3, 15816, Note_on_c, 1, 49, 0
3, 15840, Note_on_c, 1, 47, 93
3, 15936, Note_on_c, 1, 47, 0
3, 15960, Note_on_c, 1, 49, 93
3, 16056, Note_on_c, 1, 49, 0
3, 16080, Note_on_c, 1, 45, 93
3, 16272, Note_on_c, 1, 45, 0
3, 17280, Note_on_c, 1, 52, 93
3, 17460, Note_on_c, 1, 52, 0
3, 17520, Note_on_c, 1, 57, 93
3, 17616, Note_on_c, 1, 57, 0
3, 17640, Note_on_c, 1, 56, 93
3, 17736, Note_on_c, 1, 56, 0
3, 17760, Note_on_c, 1, 59, 93
3, 17856, Note_on_c, 1, 59, 0
3, 17880, Note_on_c, 1, 57, 93
3, 17976, Note_on_c, 1, 57, 0
3, 18000, Note_on_c, 1, 61, 93
3, 18096, Note_on_c, 1, 61, 0
3, 18120, Note_on_c, 1, 59, 93
3, 18216, Note_on_c, 1, 59, 0
3, 18240, Note_on_c, 1, 57, 93
3, 18336, Note_on_c, 1, 57, 0
3, 18360, Note_on_c, 1, 56, 93
3, 18456, Note_on_c, 1, 56, 0
3, 18480, Note_on_c, 1, 57, 93
3, 18672, Note_on_c, 1, 57, 0
3, 18720, Note_on_c, 1, 52, 93
3, 18912, Note_on_c, 1, 52, 0
3, 18960, Note_on_c, 1, 49, 93
3, 19056, Note_on_c, 1, 49, 0
3, 19080, Note_on_c, 1, 52, 93
3, 19176, Note_on_c, 1, 52, 0
3, 19200, Note_on_c, 1, 57, 93
3, 19296, Note_on_c, 1, 57, 0
3, 19320, Note_on_c, 1, 59, 93
3, 19416, Note_on_c, 1, 59, 0
3, 19440, Note_on_c, 1, 61, 93
3, 19536, Note_on_c, 1, 61, 0
3, 19560, Note_on_c, 1, 59, 93
3, 19656, Note_on_c, 1, 59, 0
3, 19680, Note_on_c, 1, 62, 93
3, 19776, Note_on_c, 1, 62, 0
3, 19800, Note_on_c, 1, 61, 93
3, 19896, Note_on_c, 1, 61, 0
3, 19920, Note_on_c, 1, 64, 93
3, 20016, Note_on_c, 1, 64, 0
3, 20040, Note_on_c, 1, 62, 93
3, 20136, Note_on_c, 1, 62, 0
3, 20160, Note_on_c, 1, 61, 93
3, 20256, Note_on_c, 1, 61, 0
3, 20280, Note_on_c, 1, 57, 93
3, 20376, Note_on_c, 1, 57, 0
3, 20400, Note_on_c, 1, 62, 93
3, 20496, Note_on_c, 1, 62, 0
3, 20520, Note_on_c, 1, 61, 93
3, 20616, Note_on_c, 1, 61, 0
3, 20640, Note_on_c, 1, 64, 93
3, 20736, Note_on_c, 1, 64, 0
3, 20760, Note_on_c, 1, 62, 93
3, 20856, Note_on_c, 1, 62, 0
3, 20880, Note_on_c, 1, 66, 93
3, 20976, Note_on_c, 1, 66, 0
3, 21000, Note_on_c, 1, 64, 93
3, 21096, Note_on_c, 1, 64, 0
3, 21120, Note_on_c, 1, 63, 93
3, 21216, Note_on_c, 1, 63, 0
3, 21240, Note_on_c, 1, 59, 93
3, 21336, Note_on_c, 1, 59, 0
3, 21360, Note_on_c, 1, 64, 93
3, 21456, Note_on_c, 1, 64, 0
3, 21480, Note_on_c, 1, 66, 93
3, 21576, Note_on_c, 1, 66, 0
3, 21600, Note_on_c, 1, 64, 93
3, 21696, Note_on_c, 1, 64, 0
3, 21720, Note_on_c, 1, 62, 93
3, 21816, Note_on_c, 1, 62, 0
3, 21840, Note_on_c, 1, 61, 93
3, 21936, Note_on_c, 1, 61, 0
3, 21960, Note_on_c, 1, 59, 93
3, 22056, Note_on_c, 1, 59, 0
3, 22080, Note_on_c, 1, 61, 93
3, 22176, Note_on_c, 1, 61, 0
3, 22200, Note_on_c, 1, 57, 93
3, 22296, Note_on_c, 1, 57, 0
3, 22320, Note_on_c, 1, 64, 93
3, 22416, Note_on_c, 1, 64, 0
3, 22440, Note_on_c, 1, 63, 93
3, 22536, Note_on_c, 1, 63, 0
3, 22560, Note_on_c, 1, 66, 93
3, 22656, Note_on_c, 1, 66, 0
3, 22680, Note_on_c, 1, 64, 93
3, 22776, Note_on_c, 1, 64, 0
3, 22800, Note_on_c, 1, 68, 93
3, 22896, Note_on_c, 1, 68, 0
3, 22920, Note_on_c, 1, 66, 93
3, 23016, Note_on_c, 1, 66, 0
3, 23040, Note_on_c, 1, 64, 93
3, 23136, Note_on_c, 1, 64, 0
3, 23160, Note_on_c, 1, 62, 93
3, 23256, Note_on_c, 1, 62, 0
3, 23280, Note_on_c, 1, 61, 93
3, 23376, Note_on_c, 1, 61, 0
3, 23400, Note_on_c, 1, 59, 93
3, 23496, Note_on_c, 1, 59, 0
3, 23520, Note_on_c, 1, 62, 93
3, 23616, Note_on_c, 1, 62, 0
3, 23640, Note_on_c, 1, 61, 93
3, 23736, Note_on_c, 1, 61, 0
3, 23760, Note_on_c, 1, 64, 93
3, 23856, Note_on_c, 1, 64, 0
3, 23880, Note_on_c, 1, 62, 93
3, 23976, Note_on_c, 1, 62, 0
3, 24000, Note_on_c, 1, 61, 93
3, 24096, Note_on_c, 1, 61, 0
3, 24120, Note_on_c, 1, 59, 93
3, 24216, Note_on_c, 1, 59, 0
3, 24240, Note_on_c, 1, 61, 93
3, 24336, Note_on_c, 1, 61, 0
3, 24360, Note_on_c, 1, 62, 93
3, 24456, Note_on_c, 1, 62, 0
3, 24480, Note_on_c, 1, 61, 93
3, 24576, Note_on_c, 1, 61, 0
3, 24600, Note_on_c, 1, 59, 93
3, 24696, Note_on_c, 1, 59, 0
3, 24720, Note_on_c, 1, 57, 93
3, 24912, Note_on_c, 1, 57, 0
3, 24960, Note_on_c, 1, 52, 93
3, 25152, Note_on_c, 1, 52, 0
3, 25200, Note_on_c, 1, 57, 93
3, 25296, Note_on_c, 1, 57, 0
3, 25320, Note_on_c, 1, 56, 93
3, 25416, Note_on_c, 1, 56, 0
3, 25440, Note_on_c, 1, 59, 93
3, 25536, Note_on_c, 1, 59, 0
3, 25560, Note_on_c, 1, 57, 93
3, 25656, Note_on_c, 1, 57, 0
3, 25680, Note_on_c, 1, 61, 93
3, 25776, Note_on_c, 1, 61, 0
3, 25800, Note_on_c, 1, 59, 93
3, 25896, Note_on_c, 1, 59, 0
3, 25920, Note_on_c, 1, 57, 93
3, 26016, Note_on_c, 1, 57, 0
3, 26040, Note_on_c, 1, 56, 93
3, 26136, Note_on_c, 1, 56, 0
3, 26160, Note_on_c, 1, 57, 93
3, 26352, Note_on_c, 1, 57, 0
3, 26400, Note_on_c, 1, 52, 93
3, 26592, Note_on_c, 1, 52, 0
3, 26640, Note_on_c, 1, 49, 93
3, 26832, Note_on_c, 1, 49, 0
3, 26880, Note_on_c, 1, 52, 93
3, 27072, Note_on_c, 1, 52, 0
3, 27120, Note_on_c, 1, 45, 93
3, 27312, Note_on_c, 1, 45, 0
3, 27360, Note_on_c, 1, 52, 93
3, 27552, Note_on_c, 1, 52, 0
3, 27600, Note_on_c, 1, 57, 93
3, 27696, Note_on_c, 1, 57, 0
3, 27720, Note_on_c, 1, 56, 93
3, 27816, Note_on_c, 1, 56, 0
3, 27840, Note_on_c, 1, 59, 93
3, 27936, Note_on_c, 1, 59, 0
3, 27960, Note_on_c, 1, 57, 93
3, 28056, Note_on_c, 1, 57, 0
3, 28080, Note_on_c, 1, 61, 93
3, 28176, Note_on_c, 1, 61, 0
3, 28200, Note_on_c, 1, 59, 93
3, 28296, Note_on_c, 1, 59, 0
3, 28320, Note_on_c, 1, 57, 93
3, 28416, Note_on_c, 1, 57, 0
3, 28440, Note_on_c, 1, 56, 93
3, 28536, Note_on_c, 1, 56, 0
3, 28560, Note_on_c, 1, 54, 93
3, 28656, Note_on_c, 1, 54, 0
3, 28680, Note_on_c, 1, 52, 93
3, 28776, Note_on_c, 1, 52, 0
3, 28800, Note_on_c, 1, 56, 93
3, 28896, Note_on_c, 1, 56, 0
3, 28920, Note_on_c, 1, 54, 93
3, 29016, Note_on_c, 1, 54, 0
3, 29040, Note_on_c, 1, 57, 93
3, 29136, Note_on_c, 1, 57, 0
3, 29160, Note_on_c, 1, 56, 93
3, 29256, Note_on_c, 1, 56, 0
3, 29280, Note_on_c, 1, 54, 93
3, 29376, Note_on_c, 1, 54, 0
3, 29400, Note_on_c, 1, 52, 93
3, 29496, Note_on_c, 1, 52, 0
3, 29520, Note_on_c, 1, 59, 93
3, 29700, Note_on_c, 1, 59, 0
3, 29760, Note_on_c, 1, 47, 93
3, 29940, Note_on_c, 1, 47, 0
3, 30000, Note_on_c, 1, 52, 93
3, 30240, Note_on_c, 1, 47, 93
3, 30420, Note_on_c, 1, 47, 0
3, 30480, Note_on_c, 1, 40, 93
3, 30672, Note_on_c, 1, 40, 0
3, 30720, Note_on_c, 1, 52, 0
3, 31680, Note_on_c, 1, 52, 93
3, 31860, Note_on_c, 1, 52, 0
3, 31920, Note_on_c, 1, 57, 93
3, 32016, Note_on_c, 1, 57, 0
3, 32040, Note_on_c, 1, 56, 93
3, 32136, Note_on_c, 1, 56, 0
3, 32160, Note_on_c, 1, 59, 93
3, 32256, Note_on_c, 1, 59, 0
3, 32280, Note_on_c, 1, 57, 93
3, 32376, Note_on_c, 1, 57, 0
3, 32400, Note_on_c, 1, 61, 93
3, 32496, Note_on_c, 1, 61, 0
3, 32520, Note_on_c, 1, 59, 93
3, 32616, Note_on_c, 1, 59, 0
3, 32640, Note_on_c, 1, 64, 93
3, 32832, Note_on_c, 1, 64, 0
3, 32880, Note_on_c, 1, 61, 93
3, 32904, Note_on_c, 1, 61, 0
3, 32910, Note_on_c, 1, 62, 93
3, 32934, Note_on_c, 1, 62, 0
3, 32940, Note_on_c, 1, 61, 93
3, 33096, Note_on_c, 1, 61, 0
3, 33120, Note_on_c, 1, 59, 93
3, 33216, Note_on_c, 1, 59, 0
3, 33240, Note_on_c, 1, 61, 93
3, 33336, Note_on_c, 1, 61, 0
3, 33360, Note_on_c, 1, 57, 93
3, 33552, Note_on_c, 1, 57, 0
3, 33600, Note_on_c, 1, 45, 93
3, 33780, Note_on_c, 1, 45, 0
3, 33840, Note_on_c, 1, 50, 93
3, 33936, Note_on_c, 1, 50, 0
3, 33960, Note_on_c, 1, 49, 93
3, 34056, Note_on_c, 1, 49, 0
3, 34080, Note_on_c, 1, 52, 93
3, 34176, Note_on_c, 1, 52, 0
3, 34200, Note_on_c, 1, 50, 93
3, 34296, Note_on_c, 1, 50, 0
3, 34320, Note_on_c, 1, 54, 93
3, 34416, Note_on_c, 1, 54, 0
3, 34440, Note_on_c, 1, 50, 93
3, 34536, Note_on_c, 1, 50, 0
3, 34560, Note_on_c, 1, 62, 93
3, 34752, Note_on_c, 1, 62, 0
3, 34800, Note_on_c, 1, 43, 113
3, 35184, Note_on_c, 1, 43, 0
3, 35520, Note_on_c, 1, 61, 93
3, 35700, Note_on_c, 1, 61, 0
3, 35760, Note_on_c, 1, 42, 113
3, 36144, Note_on_c, 1, 42, 0
3, 36480, Note_on_c, 1, 59, 93
3, 36660, Note_on_c, 1, 59, 0
3, 36720, Note_on_c, 1, 55, 93
3, 36900, Note_on_c, 1, 55, 0
3, 36960, Note_on_c, 1, 50, 93
3, 37140, Note_on_c, 1, 50, 0
3, 37200, Note_on_c, 1, 52, 93
3, 37380, Note_on_c, 1, 52, 0
3, 37440, Note_on_c, 1, 54, 93
3, 37620, Note_on_c, 1, 54, 0
3, 37680, Note_on_c, 1, 47, 93
3, 37776, Note_on_c, 1, 47, 0
3, 37800, Note_on_c, 1, 46, 93
3, 37896, Note_on_c, 1, 46, 0
3, 37920, Note_on_c, 1, 49, 93
3, 38016, Note_on_c, 1, 49, 0
3, 38040, Note_on_c, 1, 47, 93
3, 38136, Note_on_c, 1, 47, 0
3, 38160, Note_on_c, 1, 50, 93
3, 38256, Note_on_c, 1, 50, 0
3, 38280, Note_on_c, 1, 49, 93
3, 38376, Note_on_c, 1, 49, 0
3, 38400, Note_on_c, 1, 52, 93
3, 38592, Note_on_c, 1, 52, 0
3, 38640, Note_on_c, 1, 51, 93
3, 38664, Note_on_c, 1, 51, 0
3, 38670, Note_on_c, 1, 52, 93
3, 38694, Note_on_c, 1, 52, 0
3, 38700, Note_on_c, 1, 51, 93
3, 39048, Note_on_c, 1, 51, 0
3, 39360, Note_on_c, 1, 47, 93
3, 39540, Note_on_c, 1, 47, 0
3, 39600, Note_on_c, 1, 52, 93
3, 39696, Note_on_c, 1, 52, 0
3, 39720, Note_on_c, 1, 51, 93
3, 39816, Note_on_c, 1, 51, 0
3, 39840, Note_on_c, 1, 54, 93
3, 39936, Note_on_c, 1, 54, 0
3, 39960, Note_on_c, 1, 52, 93
3, 40056, Note_on_c, 1, 52, 0
3, 40080, Note_on_c, 1, 56, 93
3, 40176, Note_on_c, 1, 56, 0
3, 40200, Note_on_c, 1, 54, 93
3, 40296, Note_on_c, 1, 54, 0
3, 40320, Note_on_c, 1, 57, 93
3, 40512, Note_on_c, 1, 57, 0
3, 40560, Note_on_c, 1, 56, 93
3, 40584, Note_on_c, 1, 56, 0
3, 40590, Note_on_c, 1, 57, 93
3, 40614, Note_on_c, 1, 57, 0
3, 40620, Note_on_c, 1, 56, 93
3, 40968, Note_on_c, 1, 56, 0
3, 41280, Note_on_c, 1, 52, 93
3, 41460, Note_on_c, 1, 52, 0
3, 41520, Note_on_c, 1, 57, 93
3, 41616, Note_on_c, 1, 57, 0
3, 41640, Note_on_c, 1, 56, 93
3, 41736, Note_on_c, 1, 56, 0
3, 41760, Note_on_c, 1, 59, 93
3, 41856, Note_on_c, 1, 59, 0
3, 41880, Note_on_c, 1, 57, 93
3, 41976, Note_on_c, 1, 57, 0
3, 42000, Note_on_c, 1, 61, 93
3, 42096, Note_on_c, 1, 61, 0
3, 42120, Note_on_c, 1, 59, 93
3, 42216, Note_on_c, 1, 59, 0
3, 42240, Note_on_c, 1, 64, 93
3, 42432, Note_on_c, 1, 64, 0
3, 42480, Note_on_c, 1, 61, 93
3, 42504, Note_on_c, 1, 61, 0
3, 42510, Note_on_c, 1, 62, 93
3, 42534, Note_on_c, 1, 62, 0
3, 42540, Note_on_c, 1, 61, 93
3, 42588, Note_on_c, 1, 61, 0
3, 42600, Note_on_c, 1, 61, 93
3, 42696, Note_on_c, 1, 61, 0
3, 42720, Note_on_c, 1, 62, 93
3, 42912, Note_on_c, 1, 62, 0
3, 42960, Note_on_c, 1, 61, 93
3, 43152, Note_on_c, 1, 61, 0
3, 43200, Note_on_c, 1, 59, 93
3, 43392, Note_on_c, 1, 59, 0
3, 43440, Note_on_c, 1, 57, 93
3, 43620, Note_on_c, 1, 57, 0
3, 43680, Note_on_c, 1, 57, 93
3, 43860, Note_on_c, 1, 57, 0
3, 43920, Note_on_c, 1, 57, 93
3, 44100, Note_on_c, 1, 57, 0
3, 44160, Note_on_c, 1, 57, 93
3, 44340, Note_on_c, 1, 57, 0
3, 44400, Note_on_c, 1, 57, 93
3, 44580, Note_on_c, 1, 57, 0
3, 44640, Note_on_c, 1, 57, 93
3, 44820, Note_on_c, 1, 57, 0
3, 44880, Note_on_c, 1, 57, 93
3, 45060, Note_on_c, 1, 57, 0
3, 45120, Note_on_c, 1, 57, 93
3, 45300, Note_on_c, 1, 57, 0
3, 45360, Note_on_c, 1, 57, 93
3, 45552, Note_on_c, 1, 57, 0
3, 45600, Note_on_c, 1, 55, 93
3, 45792, Note_on_c, 1, 55, 0
3, 45840, Note_on_c, 1, 54, 93
3, 46032, Note_on_c, 1, 54, 0
3, 46080, Note_on_c, 1, 52, 93
3, 46272, Note_on_c, 1, 52, 0
3, 46320, Note_on_c, 1, 50, 93
3, 46512, Note_on_c, 1, 50, 0
3, 46560, Note_on_c, 1, 52, 93
3, 46752, Note_on_c, 1, 52, 0
3, 46800, Note_on_c, 1, 50, 93
3, 46992, Note_on_c, 1, 50, 0
3, 47040, Note_on_c, 1, 49, 93
3, 47232, Note_on_c, 1, 49, 0
3, 47280, Note_on_c, 1, 47, 93
3, 47460, Note_on_c, 1, 47, 0
3, 47520, Note_on_c, 1, 47, 93
3, 47700, Note_on_c, 1, 47, 0
3, 47760, Note_on_c, 1, 47, 93
3, 47940, Note_on_c, 1, 47, 0
3, 48000, Note_on_c, 1, 47, 93
3, 48180, Note_on_c, 1, 47, 0
3, 48240, Note_on_c, 1, 47, 93
3, 48420, Note_on_c, 1, 47, 0
3, 48480, Note_on_c, 1, 47, 93
3, 48660, Note_on_c, 1, 47, 0
3, 48720, Note_on_c, 1, 47, 93
3, 48900, Note_on_c, 1, 47, 0
3, 48960, Note_on_c, 1, 47, 93
3, 49140, Note_on_c, 1, 47, 0
3, 49200, Note_on_c, 1, 47, 93
3, 49380, Note_on_c, 1, 47, 0
3, 49440, Note_on_c, 1, 45, 93
3, 49632, Note_on_c, 1, 45, 0
3, 49680, Note_on_c, 1, 44, 93
3, 49872, Note_on_c, 1, 44, 0
3, 49920, Note_on_c, 1, 42, 93
3, 50112, Note_on_c, 1, 42, 0
3, 50160, Note_on_c, 1, 40, 93
3, 50340, Note_on_c, 1, 40, 0
3, 50400, Note_on_c, 1, 40, 93
3, 50580, Note_on_c, 1, 40, 0
3, 50640, Note_on_c, 1, 40, 93
3, 50820, Note_on_c, 1, 40, 0
3, 50880, Note_on_c, 1, 40, 93
3, 51060, Note_on_c, 1, 40, 0
3, 51120, Note_on_c, 1, 38, 93
3, 51300, Note_on_c, 1, 38, 0
3, 51360, Note_on_c, 1, 38, 93
3, 51540, Note_on_c, 1, 38, 0
3, 51600, Note_on_c, 1, 38, 93
3, 51780, Note_on_c, 1, 38, 0
3, 51840, Note_on_c, 1, 52, 93
3, 52020, Note_on_c, 1, 52, 0
3, 52080, Note_on_c, 1, 49, 93
3, 52272, Note_on_c, 1, 49, 0
3, 52320, Note_on_c, 1, 50, 93
3, 52512, Note_on_c, 1, 50, 0
3, 52560, Note_on_c, 1, 52, 93
3, 52584, Note_on_c, 1, 52, 0
3, 52590, Note_on_c, 1, 50, 93
3, 52614, Note_on_c, 1, 50, 0
3, 52620, Note_on_c, 1, 52, 93
3, 52776, Note_on_c, 1, 52, 0
3, 52800, Note_on_c, 1, 40, 93
3, 52992, Note_on_c, 1, 40, 0
3, 53040, Note_on_c, 1, 45, 93
3, 53130, Note_on_c, 1, 45, 0
3, 53160, Note_on_c, 1, 52, 93
3, 53256, Note_on_c, 1, 52, 0
3, 53280, Note_on_c, 1, 54, 93
3, 53376, Note_on_c, 1, 54, 0
3, 53400, Note_on_c, 1, 56, 93
3, 53496, Note_on_c, 1, 56, 0
3, 53520, Note_on_c, 1, 57, 93
3, 53616, Note_on_c, 1, 57, 0
3, 53640, Note_on_c, 1, 59, 93
3, 53736, Note_on_c, 1, 59, 0
3, 53760, Note_on_c, 1, 61, 93
3, 53952, Note_on_c, 1, 61, 0
3, 54000, Note_on_c, 1, 42, 113
3, 54384, Note_on_c, 1, 42, 0
3, 54720, Note_on_c, 1, 59, 93
3, 54900, Note_on_c, 1, 59, 0
3, 54960, Note_on_c, 1, 40, 113
3, 55344, Note_on_c, 1, 40, 0
3, 55680, Note_on_c, 1, 57, 93
3, 55860, Note_on_c, 1, 57, 0
3, 55920, Note_on_c, 1, 54, 93
3, 56112, Note_on_c, 1, 54, 0
3, 56160, Note_on_c, 1, 49, 93
3, 56352, Note_on_c, 1, 49, 0
3, 56400, Note_on_c, 1, 50, 93
3, 56592, Note_on_c, 1, 50, 0
3, 56640, Note_on_c, 1, 52, 93
3, 56832, Note_on_c, 1, 52, 0
3, 56880, Note_on_c, 1, 45, 93
3, 56976, Note_on_c, 1, 45, 0
3, 57000, Note_on_c, 1, 44, 93
3, 57096, Note_on_c, 1, 44, 0
3, 57120, Note_on_c, 1, 45, 93
3, 57216, Note_on_c, 1, 45, 0
3, 57240, Note_on_c, 1, 47, 93
3, 57336, Note_on_c, 1, 47, 0
3, 57360, Note_on_c, 1, 49, 93
3, 57456, Note_on_c, 1, 49, 0
3, 57480, Note_on_c, 1, 50, 93
3, 57576, Note_on_c, 1, 50, 0
3, 57600, Note_on_c, 1, 52, 93
3, 57696, Note_on_c, 1, 52, 0
3, 57720, Note_on_c, 1, 49, 93
3, 57816, Note_on_c, 1, 49, 0
3, 57840, Note_on_c, 1, 54, 93
3, 58224, Note_on_c, 1, 54, 0
3, 58560, Note_on_c, 1, 47, 93
3, 58740, Note_on_c, 1, 47, 0
3, 58800, Note_on_c, 1, 52, 93
3, 59184, Note_on_c, 1, 52, 0
3, 59520, Note_on_c, 1, 45, 93
3, 59700, Note_on_c, 1, 45, 0
3, 59760, Note_on_c, 1, 42, 93
3, 59940, Note_on_c, 1, 42, 0
3, 60000, Note_on_c, 1, 37, 93
3, 60180, Note_on_c, 1, 37, 0
3, 60240, Note_on_c, 1, 38, 93
3, 60420, Note_on_c, 1, 38, 0
3, 60480, Note_on_c, 1, 40, 93
3, 60660, Note_on_c, 1, 40, 0
3, 60720, Note_on_c, 1, 33, 93
3, 60960, Note_on_c, 1, 40, 93
3, 61140, Note_on_c, 1, 40, 0
3, 61200, Note_on_c, 1, 45, 93
3, 61296, Note_on_c, 1, 33, 0
3, 61392, Note_on_c, 1, 45, 0
3, 62400, Note_on_c, 1, 52, 93
3, 62580, Note_on_c, 1, 52, 0
3, 62640, Note_on_c, 1, 57, 93
3, 62736, Note_on_c, 1, 57, 0
3, 62760, Note_on_c, 1, 56, 93
3, 62856, Note_on_c, 1, 56, 0
3, 62880, Note_on_c, 1, 59, 93
3, 62976, Note_on_c, 1, 59, 0
3, 63000, Note_on_c, 1, 57, 93
3, 63096, Note_on_c, 1, 57, 0
3, 63120, Note_on_c, 1, 61, 93
3, 63216, Note_on_c, 1, 61, 0
3, 63240, Note_on_c, 1, 59, 93
3, 63336, Note_on_c, 1, 59, 0
3, 63360, Note_on_c, 1, 64, 93
3, 63552, Note_on_c, 1, 64, 0
3, 63600, Note_on_c, 1, 61, 93
3, 63624, Note_on_c, 1, 61, 0
3, 63630, Note_on_c, 1, 62, 93
3, 63654, Note_on_c, 1, 62, 0
3, 63660, Note_on_c, 1, 61, 93
3, 63816, Note_on_c, 1, 61, 0
3, 63840, Note_on_c, 1, 59, 93
3, 63936, Note_on_c, 1, 59, 0
3, 63960, Note_on_c, 1, 61, 93
3, 64056, Note_on_c, 1, 61, 0
3, 64080, Note_on_c, 1, 57, 93
3, 64272, Note_on_c, 1, 57, 0
3, 64320, Note_on_c, 1, 45, 93
3, 64500, Note_on_c, 1, 45, 0
3, 64560, Note_on_c, 1, 50, 93
3, 64656, Note_on_c, 1, 50, 0
3, 64680, Note_on_c, 1, 49, 93
3, 64776, Note_on_c, 1, 49, 0
3, 64800, Note_on_c, 1, 52, 93
3, 64896, Note_on_c, 1, 52, 0
3, 64920, Note_on_c, 1, 50, 93
3, 65016, Note_on_c, 1, 50, 0
3, 65040, Note_on_c, 1, 54, 93
3, 65136, Note_on_c, 1, 54, 0
3, 65160, Note_on_c, 1, 50, 93
3, 65256, Note_on_c, 1, 50, 0
3, 65280, Note_on_c, 1, 62, 93
3, 65472, Note_on_c, 1, 62, 0
3, 65520, Note_on_c, 1, 43, 113
3, 65904, Note_on_c, 1, 43, 0
3, 66240, Note_on_c, 1, 61, 93
3, 66420, Note_on_c, 1, 61, 0
3, 66480, Note_on_c, 1, 42, 113
3, 66864, Note_on_c, 1, 42, 0
3, 67200, Note_on_c, 1, 59, 93
3, 67380, Note_on_c, 1, 59, 0
3, 67440, Note_on_c, 1, 55, 93
3, 67620, Note_on_c, 1, 55, 0
3, 67680, Note_on_c, 1, 50, 93
3, 67860, Note_on_c, 1, 50, 0
3, 67920, Note_on_c, 1, 52, 93
3, 68100, Note_on_c, 1, 52, 0
3, 68160, Note_on_c, 1, 54, 93
3, 68340, Note_on_c, 1, 54, 0
3, 68400, Note_on_c, 1, 47, 93
3, 68496, Note_on_c, 1, 47, 0
3, 68520, Note_on_c, 1, 46, 93
3, 68616, Note_on_c, 1, 46, 0
3, 68640, Note_on_c, 1, 49, 93
3, 68736, Note_on_c, 1, 49, 0
3, 68760, Note_on_c, 1, 47, 93
3, 68856, Note_on_c, 1, 47, 0
3, 68880, Note_on_c, 1, 50, 93
3, 68976, Note_on_c, 1, 50, 0
3, 69000, Note_on_c, 1, 49, 93
3, 69096, Note_on_c, 1, 49, 0
3, 69120, Note_on_c, 1, 52, 93
3, 69312, Note_on_c, 1, 52, 0
3, 69360, Note_on_c, 1, 51, 93
3, 69384, Note_on_c, 1, 51, 0
3, 69390, Note_on_c, 1, 52, 93
3, 69414, Note_on_c, 1, 52, 0
3, 69420, Note_on_c, 1, 51, 93
3, 69768, Note_on_c, 1, 51, 0
3, 70080, Note_on_c, 1, 47, 93
3, 70260, Note_on_c, 1, 47, 0
3, 70320, Note_on_c, 1, 52, 93
3, 70416, Note_on_c, 1, 52, 0
3, 70440, Note_on_c, 1, 51, 93
3, 70536, Note_on_c, 1, 51, 0
3, 70560, Note_on_c, 1, 54, 93
3, 70656, Note_on_c, 1, 54, 0
3, 70680, Note_on_c, 1, 52, 93
3, 70776, Note_on_c, 1, 52, 0
3, 70800, Note_on_c, 1, 56, 93
3, 70896, Note_on_c, 1, 56, 0
3, 70920, Note_on_c, 1, 54, 93
3, 71016, Note_on_c, 1, 54, 0
3, 71040, Note_on_c, 1, 57, 93
3, 71232, Note_on_c, 1, 57, 0
3, 71280, Note_on_c, 1, 56, 93
3, 71304, Note_on_c, 1, 56, 0
3, 71310, Note_on_c, 1, 57, 93
3, 71334, Note_on_c, 1, 57, 0
3, 71340, Note_on_c, 1, 56, 93
3, 71688, Note_on_c, 1, 56, 0
3, 72000, Note_on_c, 1, 52, 93
3, 72180, Note_on_c, 1, 52, 0
3, 72240, Note_on_c, 1, 57, 93
3, 72336, Note_on_c, 1, 57, 0
3, 72360, Note_on_c, 1, 56, 93
3, 72456, Note_on_c, 1, 56, 0
3, 72480, Note_on_c, 1, 59, 93
3, 72576, Note_on_c, 1, 59, 0
3, 72600, Note_on_c, 1, 57, 93
3, 72696, Note_on_c, 1, 57, 0
3, 72720, Note_on_c, 1, 61, 93
3, 72816, Note_on_c, 1, 61, 0
3, 72840, Note_on_c, 1, 59, 93
3, 72936, Note_on_c, 1, 59, 0
3, 72960, Note_on_c, 1, 64, 93
3, 73152, Note_on_c, 1, 64, 0
3, 73200, Note_on_c, 1, 61, 93
3, 73224, Note_on_c, 1, 61, 0
3, 73230, Note_on_c, 1, 62, 93
3, 73254, Note_on_c, 1, 62, 0
3, 73260, Note_on_c, 1, 61, 93
3, 73308, Note_on_c, 1, 61, 0
3, 73320, Note_on_c, 1, 61, 93
3, 73416, Note_on_c, 1, 61, 0
3, 73440, Note_on_c, 1, 62, 93
3, 73632, Note_on_c, 1, 62, 0
3, 73680, Note_on_c, 1, 61, 93
3, 73872, Note_on_c, 1, 61, 0
3, 73920, Note_on_c, 1, 59, 93
3, 74112, Note_on_c, 1, 59, 0
3, 74160, Note_on_c, 1, 57, 93
3, 74340, Note_on_c, 1, 57, 0
3, 74400, Note_on_c, 1, 57, 93
3, 74580, Note_on_c, 1, 57, 0
3, 74640, Note_on_c, 1, 57, 93
3, 74820, Note_on_c, 1, 57, 0
3, 74880, Note_on_c, 1, 57, 93
3, 75060, Note_on_c, 1, 57, 0
3, 75120, Note_on_c, 1, 57, 93
3, 75300, Note_on_c, 1, 57, 0
3, 75360, Note_on_c, 1, 57, 93
3, 75540, Note_on_c, 1, 57, 0
3, 75600, Note_on_c, 1, 57, 93
3, 75780, Note_on_c, 1, 57, 0
3, 75840, Note_on_c, 1, 57, 93
3, 76020, Note_on_c, 1, 57, 0
3, 76080, Note_on_c, 1, 57, 93
3, 76272, Note_on_c, 1, 57, 0
3, 76320, Note_on_c, 1, 55, 93
3, 76512, Note_on_c, 1, 55, 0
3, 76560, Note_on_c, 1, 54, 93
3, 76752, Note_on_c, 1, 54, 0
3, 76800, Note_on_c, 1, 52, 93
3, 76992, Note_on_c, 1, 52, 0
3, 77040, Note_on_c, 1, 50, 93
3, 77232, Note_on_c, 1, 50, 0
3, 77280, Note_on_c, 1, 52, 93
3, 77472, Note_on_c, 1, 52, 0
3, 77520, Note_on_c, 1, 50, 93
3, 77712, Note_on_c, 1, 50, 0
3, 77760, Note_on_c, 1, 49, 93
3, 77952, Note_on_c, 1, 49, 0
3, 78000, Note_on_c, 1, 47, 93
3, 78180, Note_on_c, 1, 47, 0
3, 78240, Note_on_c, 1, 47, 93
3, 78420, Note_on_c, 1, 47, 0
3, 78480, Note_on_c, 1, 47, 93
3, 78660, Note_on_c, 1, 47, 0
3, 78720, Note_on_c, 1, 47, 93
3, 78900, Note_on_c, 1, 47, 0
3, 78960, Note_on_c, 1, 47, 93
3, 79140, Note_on_c, 1, 47, 0
3, 79200, Note_on_c, 1, 47, 93
3, 79380, Note_on_c, 1, 47, 0
3, 79440, Note_on_c, 1, 47, 93
3, 79620, Note_on_c, 1, 47, 0
3, 79680, Note_on_c, 1, 47, 93
3, 79860, Note_on_c, 1, 47, 0
3, 79920, Note_on_c, 1, 47, 93
3, 80100, Note_on_c, 1, 47, 0
3, 80160, Note_on_c, 1, 45, 93
3, 80352, Note_on_c, 1, 45, 0
3, 80400, Note_on_c, 1, 44, 93
3, 80592, Note_on_c, 1, 44, 0
3, 80640, Note_on_c, 1, 42, 93
3, 80832, Note_on_c, 1, 42, 0
3, 80880, Note_on_c, 1, 40, 93
3, 81060, Note_on_c, 1, 40, 0
3, 81120, Note_on_c, 1, 40, 93
3, 81300, Note_on_c, 1, 40, 0
3, 81360, Note_on_c, 1, 40, 93
3, 81540, Note_on_c, 1, 40, 0
3, 81600, Note_on_c, 1, 40, 93
3, 81780, Note_on_c, 1, 40, 0
3, 81840, Note_on_c, 1, 38, 93
3, 82020, Note_on_c, 1, 38, 0
3, 82080, Note_on_c, 1, 38, 93
3, 82260, Note_on_c, 1, 38, 0
3, 82320, Note_on_c, 1, 38, 93
3, 82500, Note_on_c, 1, 38, 0
3, 82560, Note_on_c, 1, 52, 93
3, 82740, Note_on_c, 1, 52, 0
3, 82800, Note_on_c, 1, 49, 93
3, 82992, Note_on_c, 1, 49, 0
3, 83040, Note_on_c, 1, 50, 93
3, 83232, Note_on_c, 1, 50, 0
3, 83280, Note_on_c, 1, 52, 93
3, 83304, Note_on_c, 1, 52, 0
3, 83310, Note_on_c, 1, 50, 93
3, 83334, Note_on_c, 1, 50, 0
3, 83340, Note_on_c, 1, 52, 93
3, 83496, Note_on_c, 1, 52, 0
3, 83520, Note_on_c, 1, 40, 93
3, 83712, Note_on_c, 1, 40, 0
3, 83760, Note_on_c, 1, 45, 93
3, 83850, Note_on_c, 1, 45, 0
3, 83880, Note_on_c, 1, 52, 93
3, 83976, Note_on_c, 1, 52, 0
3, 84000, Note_on_c, 1, 54, 93
3, 84096, Note_on_c, 1, 54, 0
3, 84120, Note_on_c, 1, 56, 93
3, 84216, Note_on_c, 1, 56, 0
3, 84240, Note_on_c, 1, 57, 93
3, 84336, Note_on_c, 1, 57, 0
3, 84360, Note_on_c, 1, 59, 93
3, 84456, Note_on_c, 1, 59, 0
3, 84480, Note_on_c, 1, 61, 93
3, 84672, Note_on_c, 1, 61, 0
3, 84720, Note_on_c, 1, 42, 113
3, 85104, Note_on_c, 1, 42, 0
3, 85440, Note_on_c, 1, 59, 93
3, 85620, Note_on_c, 1, 59, 0
3, 85680, Note_on_c, 1, 40, 113
3, 86064, Note_on_c, 1, 40, 0
3, 86400, Note_on_c, 1, 57, 93
3, 86580, Note_on_c, 1, 57, 0
3, 86640, Note_on_c, 1, 54, 93
3, 86832, Note_on_c, 1, 54, 0
3, 86880, Note_on_c, 1, 49, 93
3, 87072, Note_on_c, 1, 49, 0
3, 87120, Note_on_c, 1, 50, 93
3, 87312, Note_on_c, 1, 50, 0
3, 87360, Note_on_c, 1, 52, 93
3, 87552, Note_on_c, 1, 52, 0
3, 87600, Note_on_c, 1, 45, 93
3, 87696, Note_on_c, 1, 45, 0
3, 87720, Note_on_c, 1, 44, 93
3, 87816, Note_on_c, 1, 44, 0
3, 87840, Note_on_c, 1, 45, 93
3, 87936, Note_on_c, 1, 45, 0
3, 87960, Note_on_c, 1, 47, 93
3, 88056, Note_on_c, 1, 47, 0
3, 88080, Note_on_c, 1, 49, 93
3, 88176, Note_on_c, 1, 49, 0
3, 88200, Note_on_c, 1, 50, 93
3, 88296, Note_on_c, 1, 50, 0
3, 88320, Note_on_c, 1, 52, 93
3, 88416, Note_on_c, 1, 52, 0
3, 88440, Note_on_c, 1, 49, 93
3, 88536, Note_on_c, 1, 49, 0
3, 88560, Note_on_c, 1, 54, 93
3, 88944, Note_on_c, 1, 54, 0
3, 89280, Note_on_c, 1, 47, 93
3, 89460, Note_on_c, 1, 47, 0
3, 89520, Note_on_c, 1, 52, 93
3, 89904, Note_on_c, 1, 52, 0
3, 90240, Note_on_c, 1, 45, 93
3, 90420, Note_on_c, 1, 45, 0
3, 90480, Note_on_c, 1, 42, 93
3, 90660, Note_on_c, 1, 42, 0
3, 90720, Note_on_c, 1, 37, 93
3, 90900, Note_on_c, 1, 37, 0
3, 90960, Note_on_c, 1, 38, 93
3, 91140, Note_on_c, 1, 38, 0
3, 91200, Note_on_c, 1, 40, 93
3, 91380, Note_on_c, 1, 40, 0
3, 91440, Note_on_c, 1, 33, 93
3, 91680, Note_on_c, 1, 40, 93
3, 91860, Note_on_c, 1, 40, 0
3, 91920, Note_on_c, 1, 45, 93
3, 92016, Note_on_c, 1, 33, 0
3, 92112, Note_on_c, 1, 45, 0
3, 92112, End_track
4, 0, Start_track
4, 0, MIDI_port, 0
4, 0, Title_t, "Arr. Gary Bricault, (c) 1997"
4, 0, End_track
0, 0, End_of_file
