0, 0, Header, 1, 3, 384
1, 0, Start_track
1, 0, Time_signature, 4, 2, 24, 8
1, 0, Tempo, 500000
1, 637440, End_track
2, 0, Start_track
2, 0, Text_t, "harpsichord: John Sankey"
2, 0, Program_c, 0, 6
2, 0, Pitch_bend_c, 0, 8192
2, 0, Program_c, 1, 6
2, 0, Pitch_bend_c, 1, 7792
2, 0, Program_c, 2, 6
2, 0, Pitch_bend_c, 2, 7876
2, 0, Program_c, 3, 6
2, 0, Pitch_bend_c, 3, 7952
2, 0, Program_c, 4, 6
2, 0, Pitch_bend_c, 4, 7792
2, 0, Program_c, 5, 6
2, 0, Pitch_bend_c, 5, 8112
2, 0, Program_c, 6, 6
2, 0, Pitch_bend_c, 6, 7712
2, 0, Program_c, 7, 6
2, 0, Pitch_bend_c, 7, 8037
2, 0, Program_c, 8, 6
2, 0, Pitch_bend_c, 8, 7872
2, 0, Program_c, 10, 6
2, 0, Pitch_bend_c, 10, 7712
2, 0, Program_c, 11, 6
2, 0, Pitch_bend_c, 11, 8032
2, 0, Program_c, 12, 6
2, 0, Pitch_bend_c, 12, 7872
2, 0, Title_t, "Track 1"
2, 164, Note_on_c, 0, 60, 127
2, 326, Note_off_c, 0, 60, 127
2, 328, Note_on_c, 2, 62, 127
2, 490, Note_off_c, 2, 62, 127
2, 492, Note_on_c, 4, 64, 127
2, 654, Note_off_c, 4, 64, 127
2, 656, Note_on_c, 5, 65, 127
2, 818, Note_off_c, 5, 65, 127
2, 820, Note_on_c, 7, 67, 127
2, 982, Note_off_c, 7, 67, 127
2, 984, Note_on_c, 10, 69, 127
2, 1146, Note_off_c, 10, 69, 127
2, 1149, Note_on_c, 5, 65, 127
2, 1311, Note_off_c, 5, 65, 127
2, 1313, Note_on_c, 11, 70, 127
2, 1475, Note_off_c, 11, 70, 127
2, 1477, Note_on_c, 0, 72, 127
2, 1639, Note_off_c, 0, 72, 127
2, 1641, Note_on_c, 11, 70, 127
2, 1803, Note_off_c, 11, 70, 127
2, 1805, Note_on_c, 10, 69, 127
2, 1967, Note_off_c, 10, 69, 127
2, 1969, Note_on_c, 7, 67, 127
2, 2131, Note_off_c, 7, 67, 127
2, 2134, Note_on_c, 0, 72, 127
2, 2296, Note_off_c, 0, 72, 127
2, 2298, Note_on_c, 11, 70, 127
2, 2460, Note_off_c, 11, 70, 127
2, 2462, Note_on_c, 0, 72, 127
2, 2624, Note_off_c, 0, 72, 127
2, 2626, Note_on_c, 10, 69, 127
2, 2790, Note_on_c, 0, 48, 127
2, 2899, Note_off_c, 10, 69, 127
2, 2952, Note_off_c, 0, 48, 127
2, 2954, Note_on_c, 2, 50, 127
2, 2954, Note_on_c, 5, 65, 127
2, 3116, Note_off_c, 2, 50, 127
2, 3119, Note_on_c, 4, 52, 127
2, 3210, Note_off_c, 5, 65, 127
2, 3281, Note_off_c, 4, 52, 127
2, 3283, Note_on_c, 5, 53, 127
2, 3283, Note_on_c, 5, 77, 127
2, 3365, Note_on_c, 4, 76, 127
2, 3368, Note_off_c, 5, 77, 127
2, 3445, Note_off_c, 5, 53, 127
2, 3447, Note_on_c, 7, 55, 127
2, 3447, Note_on_c, 5, 77, 127
2, 3450, Note_off_c, 4, 76, 127
2, 3609, Note_off_c, 7, 55, 127
2, 3611, Note_on_c, 10, 57, 127
2, 3773, Note_off_c, 10, 57, 127
2, 3773, Note_off_c, 5, 77, 127
2, 3775, Note_on_c, 5, 53, 127
2, 3775, Note_on_c, 5, 77, 127
2, 3937, Note_off_c, 5, 77, 127
2, 3937, Note_off_c, 5, 53, 127
2, 3939, Note_on_c, 11, 58, 127
2, 3939, Note_on_c, 5, 77, 127
2, 4101, Note_off_c, 11, 58, 127
2, 4104, Note_on_c, 0, 60, 127
2, 4266, Note_off_c, 0, 60, 127
2, 4268, Note_on_c, 11, 58, 127
2, 4429, Note_off_c, 5, 77, 127
2, 4430, Note_off_c, 11, 58, 127
2, 4432, Note_on_c, 10, 57, 127
2, 4432, Note_on_c, 7, 79, 127
2, 4594, Note_off_c, 7, 79, 127
2, 4594, Note_off_c, 10, 57, 127
2, 4596, Note_on_c, 7, 55, 127
2, 4596, Note_on_c, 5, 77, 127
2, 4703, Note_off_c, 5, 77, 127
2, 4705, Note_on_c, 4, 76, 127
2, 4758, Note_off_c, 7, 55, 127
2, 4760, Note_on_c, 0, 60, 127
2, 4760, Note_on_c, 5, 77, 127
2, 4766, Note_off_c, 4, 76, 127
2, 4815, Note_on_c, 4, 76, 127
2, 4823, Note_off_c, 5, 77, 127
2, 4870, Note_on_c, 5, 77, 127
2, 4878, Note_off_c, 4, 76, 127
2, 4920, Note_off_c, 0, 60, 127
2, 4924, Note_on_c, 11, 58, 127
2, 4924, Note_on_c, 4, 76, 127
2, 4933, Note_off_c, 5, 77, 127
2, 5086, Note_off_c, 4, 76, 127
2, 5086, Note_off_c, 11, 58, 127
2, 5088, Note_on_c, 0, 60, 127
2, 5088, Note_on_c, 5, 77, 127
2, 5250, Note_off_c, 5, 77, 127
2, 5250, Note_off_c, 0, 60, 127
2, 5253, Note_on_c, 10, 57, 127
2, 5253, Note_on_c, 5, 77, 127
2, 5415, Note_off_c, 5, 77, 127
2, 5417, Note_on_c, 7, 79, 127
2, 5560, Note_off_c, 10, 57, 127
2, 5579, Note_off_c, 7, 79, 127
2, 5581, Note_on_c, 5, 53, 127
2, 5581, Note_on_c, 5, 77, 127
2, 5743, Note_off_c, 5, 77, 127
2, 5745, Note_on_c, 4, 76, 127
2, 5868, Note_off_c, 5, 53, 127
2, 5907, Note_off_c, 4, 76, 127
2, 5909, Note_on_c, 5, 65, 127
2, 5909, Note_on_c, 2, 74, 127
2, 5989, Note_off_c, 5, 65, 127
2, 5991, Note_on_c, 4, 64, 127
2, 6071, Note_off_c, 4, 64, 127
2, 6071, Note_off_c, 2, 74, 127
2, 6073, Note_on_c, 5, 65, 127
2, 6073, Note_on_c, 4, 76, 127
2, 6235, Note_off_c, 4, 76, 127
2, 6238, Note_on_c, 5, 77, 127
2, 6399, Note_off_c, 5, 65, 127
2, 6400, Note_off_c, 5, 77, 127
2, 6402, Note_on_c, 5, 65, 127
2, 6402, Note_on_c, 10, 81, 127
2, 6564, Note_off_c, 10, 81, 127
2, 6564, Note_off_c, 5, 65, 127
2, 6566, Note_on_c, 5, 65, 127
2, 6566, Note_on_c, 12, 71, 127
2, 6728, Note_off_c, 12, 71, 127
2, 6730, Note_on_c, 0, 72, 127
2, 6892, Note_off_c, 0, 72, 127
2, 6894, Note_on_c, 2, 74, 127
2, 7056, Note_off_c, 2, 74, 127
2, 7056, Note_off_c, 5, 65, 127
2, 7058, Note_on_c, 7, 67, 127
2, 7058, Note_on_c, 7, 79, 127
2, 7220, Note_off_c, 7, 79, 127
2, 7220, Note_off_c, 7, 67, 127
2, 7223, Note_on_c, 5, 65, 127
2, 7223, Note_on_c, 0, 72, 127
2, 7303, Note_off_c, 5, 65, 127
2, 7305, Note_on_c, 4, 64, 127
2, 7385, Note_off_c, 4, 64, 127
2, 7385, Note_off_c, 0, 72, 127
2, 7387, Note_on_c, 5, 65, 127
2, 7387, Note_on_c, 2, 74, 127
2, 7467, Note_off_c, 5, 65, 127
2, 7469, Note_on_c, 4, 64, 127
2, 7549, Note_off_c, 4, 64, 127
2, 7549, Note_off_c, 2, 74, 127
2, 7551, Note_on_c, 5, 65, 127
2, 7551, Note_on_c, 4, 76, 127
2, 7631, Note_off_c, 5, 65, 127
2, 7633, Note_on_c, 4, 64, 127
2, 7713, Note_off_c, 4, 64, 127
2, 7713, Note_off_c, 4, 76, 127
2, 7715, Note_on_c, 4, 64, 127
2, 7715, Note_on_c, 7, 79, 127
2, 7877, Note_off_c, 7, 79, 127
2, 7877, Note_off_c, 4, 64, 127
2, 7879, Note_on_c, 4, 64, 127
2, 7879, Note_on_c, 10, 69, 127
2, 8041, Note_off_c, 10, 69, 127
2, 8043, Note_on_c, 12, 71, 127
2, 8205, Note_off_c, 12, 71, 127
2, 8205, Note_off_c, 4, 64, 127
2, 8208, Note_on_c, 10, 57, 127
2, 8208, Note_on_c, 0, 72, 127
2, 8370, Note_off_c, 0, 72, 127
2, 8372, Note_on_c, 5, 77, 127
2, 8498, Note_off_c, 10, 57, 127
2, 8534, Note_off_c, 5, 77, 127
2, 8536, Note_on_c, 2, 62, 127
2, 8536, Note_on_c, 12, 71, 127
2, 8616, Note_off_c, 2, 62, 127
2, 8618, Note_on_c, 0, 60, 127
2, 8698, Note_off_c, 0, 60, 127
2, 8698, Note_off_c, 12, 71, 127
2, 8700, Note_on_c, 2, 62, 127
2, 8700, Note_on_c, 0, 72, 127
2, 8862, Note_off_c, 0, 72, 127
2, 8864, Note_on_c, 2, 74, 127
2, 9026, Note_off_c, 2, 74, 127
2, 9026, Note_off_c, 2, 62, 127
2, 9028, Note_on_c, 2, 62, 127
2, 9028, Note_on_c, 5, 77, 127
2, 9190, Note_off_c, 5, 77, 127
2, 9190, Note_off_c, 2, 62, 127
2, 9192, Note_on_c, 2, 62, 127
2, 9192, Note_on_c, 7, 67, 127
2, 9354, Note_off_c, 7, 67, 127
2, 9357, Note_on_c, 10, 69, 127
2, 9519, Note_off_c, 10, 69, 127
2, 9521, Note_on_c, 12, 71, 127
2, 9682, Note_off_c, 2, 62, 127
2, 9683, Note_off_c, 12, 71, 127
2, 9685, Note_on_c, 4, 64, 127
2, 9685, Note_on_c, 4, 76, 127
2, 9847, Note_off_c, 4, 76, 127
2, 9847, Note_off_c, 4, 64, 127
2, 9849, Note_on_c, 2, 62, 127
2, 9849, Note_on_c, 10, 69, 127
2, 9929, Note_off_c, 2, 62, 127
2, 9931, Note_on_c, 0, 60, 127
2, 10011, Note_off_c, 0, 60, 127
2, 10011, Note_off_c, 10, 69, 127
2, 10013, Note_on_c, 2, 62, 127
2, 10013, Note_on_c, 12, 71, 127
2, 10093, Note_off_c, 2, 62, 127
2, 10095, Note_on_c, 0, 60, 127
2, 10175, Note_off_c, 0, 60, 127
2, 10175, Note_off_c, 12, 71, 127
2, 10177, Note_on_c, 2, 62, 127
2, 10177, Note_on_c, 0, 72, 127
2, 10257, Note_off_c, 2, 62, 127
2, 10260, Note_on_c, 0, 60, 127
2, 10339, Note_off_c, 0, 72, 127
2, 10340, Note_off_c, 0, 60, 127
2, 10342, Note_on_c, 0, 60, 127
2, 10342, Note_on_c, 4, 76, 127
2, 10504, Note_off_c, 4, 76, 127
2, 10504, Note_off_c, 0, 60, 127
2, 10506, Note_on_c, 0, 60, 127
2, 10506, Note_on_c, 5, 65, 127
2, 10668, Note_off_c, 0, 60, 127
2, 10670, Note_on_c, 4, 64, 127
2, 10832, Note_off_c, 4, 64, 127
2, 10832, Note_off_c, 5, 65, 127
2, 10834, Note_on_c, 2, 62, 127
2, 10834, Note_on_c, 10, 69, 127
2, 10996, Note_off_c, 2, 62, 127
2, 10998, Note_on_c, 0, 60, 127
2, 11160, Note_off_c, 0, 60, 127
2, 11160, Note_off_c, 10, 69, 127
2, 11162, Note_on_c, 12, 59, 127
2, 11162, Note_on_c, 2, 74, 127
2, 11242, Note_off_c, 2, 74, 127
2, 11244, Note_on_c, 0, 72, 127
2, 11324, Note_off_c, 0, 72, 127
2, 11324, Note_off_c, 12, 59, 127
2, 11327, Note_on_c, 10, 57, 127
2, 11327, Note_on_c, 2, 74, 127
2, 11489, Note_off_c, 10, 57, 127
2, 11491, Note_on_c, 7, 55, 127
2, 11653, Note_off_c, 7, 55, 127
2, 11653, Note_off_c, 2, 74, 127
2, 11655, Note_on_c, 5, 53, 127
2, 11655, Note_on_c, 2, 74, 127
2, 11817, Note_off_c, 2, 74, 127
2, 11817, Note_off_c, 5, 53, 127
2, 11819, Note_on_c, 4, 52, 127
2, 11819, Note_on_c, 2, 74, 127
2, 11981, Note_off_c, 2, 74, 127
2, 11983, Note_on_c, 7, 67, 127
2, 12145, Note_off_c, 7, 67, 127
2, 12147, Note_on_c, 10, 69, 127
2, 12309, Note_off_c, 10, 69, 127
2, 12312, Note_on_c, 12, 71, 127
2, 12474, Note_off_c, 12, 71, 127
2, 12476, Note_on_c, 0, 72, 127
2, 12619, Note_off_c, 4, 52, 127
2, 12638, Note_off_c, 0, 72, 127
2, 12640, Note_on_c, 2, 50, 127
2, 12640, Note_on_c, 2, 74, 127
2, 12802, Note_off_c, 2, 74, 127
2, 12802, Note_off_c, 2, 50, 127
2, 12804, Note_on_c, 0, 48, 127
2, 12804, Note_on_c, 4, 76, 127
2, 12966, Note_off_c, 4, 76, 127
2, 12966, Note_off_c, 0, 48, 127
2, 12968, Note_on_c, 12, 47, 127
2, 12968, Note_on_c, 0, 72, 127
2, 13130, Note_off_c, 0, 72, 127
2, 13130, Note_off_c, 12, 47, 127
2, 13132, Note_on_c, 10, 45, 127
2, 13132, Note_on_c, 5, 77, 127
2, 13294, Note_off_c, 5, 77, 127
2, 13294, Note_off_c, 10, 45, 127
2, 13296, Note_on_c, 7, 43, 127
2, 13296, Note_on_c, 7, 79, 127
2, 13458, Note_off_c, 7, 79, 127
2, 13458, Note_off_c, 7, 43, 127
2, 13461, Note_on_c, 10, 45, 127
2, 13461, Note_on_c, 5, 77, 127
2, 13623, Note_off_c, 5, 77, 127
2, 13623, Note_off_c, 10, 45, 127
2, 13625, Note_on_c, 5, 41, 127
2, 13625, Note_on_c, 4, 76, 127
2, 13787, Note_off_c, 4, 76, 127
2, 13787, Note_off_c, 5, 41, 127
2, 13789, Note_on_c, 7, 43, 127
2, 13789, Note_on_c, 2, 74, 127
2, 13951, Note_off_c, 2, 74, 127
2, 13953, Note_on_c, 7, 79, 127
2, 14115, Note_off_c, 7, 79, 127
2, 14115, Note_off_c, 7, 43, 127
2, 14117, Note_on_c, 7, 55, 127
2, 14117, Note_on_c, 5, 77, 127
2, 14279, Note_off_c, 5, 77, 127
2, 14281, Note_on_c, 7, 79, 127
2, 14443, Note_off_c, 7, 79, 127
2, 14443, Note_off_c, 7, 55, 127
2, 14446, Note_on_c, 0, 48, 127
2, 14446, Note_on_c, 4, 76, 127
2, 14608, Note_off_c, 0, 48, 127
2, 14610, Note_on_c, 7, 55, 127
2, 14716, Note_off_c, 4, 76, 127
2, 14772, Note_off_c, 7, 55, 127
2, 14774, Note_on_c, 10, 57, 127
2, 14774, Note_on_c, 0, 72, 127
2, 14936, Note_off_c, 10, 57, 127
2, 14938, Note_on_c, 12, 59, 127
2, 15044, Note_off_c, 0, 72, 127
2, 15100, Note_off_c, 12, 59, 127
2, 15102, Note_on_c, 0, 60, 127
2, 15102, Note_on_c, 0, 84, 127
2, 15184, Note_on_c, 12, 83, 127
2, 15187, Note_off_c, 0, 84, 127
2, 15264, Note_off_c, 0, 60, 127
2, 15266, Note_on_c, 2, 62, 127
2, 15266, Note_on_c, 0, 84, 127
2, 15269, Note_off_c, 12, 83, 127
2, 15428, Note_off_c, 2, 62, 127
2, 15431, Note_on_c, 4, 64, 127
2, 15592, Note_off_c, 0, 84, 127
2, 15593, Note_off_c, 4, 64, 127
2, 15595, Note_on_c, 0, 60, 127
2, 15595, Note_on_c, 0, 84, 127
2, 15757, Note_off_c, 0, 84, 127
2, 15757, Note_off_c, 0, 60, 127
2, 15759, Note_on_c, 5, 65, 127
2, 15759, Note_on_c, 0, 84, 127
2, 15921, Note_off_c, 5, 65, 127
2, 15923, Note_on_c, 7, 67, 127
2, 16085, Note_off_c, 7, 67, 127
2, 16087, Note_on_c, 5, 65, 127
2, 16167, Note_off_c, 0, 84, 127
2, 16169, Note_on_c, 12, 83, 127
2, 16249, Note_off_c, 12, 83, 127
2, 16249, Note_off_c, 5, 65, 127
2, 16251, Note_on_c, 4, 64, 127
2, 16251, Note_on_c, 0, 84, 127
2, 16331, Note_off_c, 0, 84, 127
2, 16333, Note_on_c, 10, 81, 127
2, 16413, Note_off_c, 10, 81, 127
2, 16413, Note_off_c, 4, 64, 127
2, 16416, Note_on_c, 2, 62, 127
2, 16416, Note_on_c, 12, 83, 127
2, 16498, Note_on_c, 10, 81, 127
2, 16527, Note_off_c, 12, 83, 127
2, 16578, Note_off_c, 2, 62, 127
2, 16580, Note_on_c, 7, 67, 127
2, 16580, Note_on_c, 12, 83, 127
2, 16609, Note_off_c, 10, 81, 127
2, 16742, Note_off_c, 7, 67, 127
2, 16744, Note_on_c, 5, 65, 127
2, 16906, Note_off_c, 5, 65, 127
2, 16906, Note_off_c, 12, 83, 127
2, 16908, Note_on_c, 7, 67, 127
2, 16908, Note_on_c, 12, 83, 127
2, 17070, Note_off_c, 12, 83, 127
2, 17070, Note_off_c, 7, 67, 127
2, 17072, Note_on_c, 0, 60, 127
2, 17072, Note_on_c, 12, 83, 127
2, 17234, Note_off_c, 0, 60, 127
2, 17236, Note_on_c, 2, 62, 127
2, 17398, Note_off_c, 2, 62, 127
2, 17398, Note_off_c, 12, 83, 127
2, 17400, Note_on_c, 4, 64, 127
2, 17400, Note_on_c, 4, 76, 127
2, 17562, Note_off_c, 4, 64, 127
2, 17565, Note_on_c, 5, 65, 127
2, 17670, Note_off_c, 4, 76, 127
2, 17727, Note_off_c, 5, 65, 127
2, 17729, Note_on_c, 5, 53, 127
2, 17729, Note_on_c, 10, 81, 127
2, 17809, Note_off_c, 10, 81, 127
2, 17811, Note_on_c, 7, 79, 127
2, 17891, Note_off_c, 7, 79, 127
2, 17891, Note_off_c, 5, 53, 127
2, 17893, Note_on_c, 7, 55, 127
2, 17893, Note_on_c, 10, 81, 127
2, 18055, Note_off_c, 7, 55, 127
2, 18057, Note_on_c, 10, 57, 127
2, 18219, Note_off_c, 10, 57, 127
2, 18219, Note_off_c, 10, 81, 127
2, 18221, Note_on_c, 0, 60, 127
2, 18221, Note_on_c, 10, 81, 127
2, 18383, Note_off_c, 10, 81, 127
2, 18383, Note_off_c, 0, 60, 127
2, 18385, Note_on_c, 12, 59, 127
2, 18385, Note_on_c, 10, 81, 127
2, 18547, Note_off_c, 12, 59, 127
2, 18550, Note_on_c, 0, 60, 127
2, 18712, Note_off_c, 0, 60, 127
2, 18714, Note_on_c, 2, 62, 127
2, 18875, Note_off_c, 10, 81, 127
2, 18876, Note_off_c, 2, 62, 127
2, 18878, Note_on_c, 5, 65, 127
2, 18878, Note_on_c, 7, 79, 127
2, 18958, Note_off_c, 7, 79, 127
2, 18960, Note_on_c, 5, 77, 127
2, 19040, Note_off_c, 5, 77, 127
2, 19040, Note_off_c, 5, 65, 127
2, 19042, Note_on_c, 4, 52, 127
2, 19042, Note_on_c, 7, 79, 127
2, 19124, Note_on_c, 5, 77, 127
2, 19171, Note_off_c, 7, 79, 127
2, 19204, Note_off_c, 4, 52, 127
2, 19206, Note_on_c, 5, 53, 127
2, 19206, Note_on_c, 7, 79, 127
2, 19253, Note_off_c, 5, 77, 127
2, 19368, Note_off_c, 5, 53, 127
2, 19370, Note_on_c, 7, 55, 127
2, 19532, Note_off_c, 7, 55, 127
2, 19532, Note_off_c, 7, 79, 127
2, 19535, Note_on_c, 12, 59, 127
2, 19535, Note_on_c, 7, 79, 127
2, 19697, Note_off_c, 7, 79, 127
2, 19697, Note_off_c, 12, 59, 127
2, 19699, Note_on_c, 10, 57, 127
2, 19699, Note_on_c, 7, 79, 127
2, 19861, Note_off_c, 10, 57, 127
2, 19863, Note_on_c, 12, 59, 127
2, 20025, Note_off_c, 12, 59, 127
2, 20025, Note_off_c, 7, 79, 127
2, 20027, Note_on_c, 0, 60, 127
2, 20027, Note_on_c, 0, 72, 127
2, 20189, Note_off_c, 0, 60, 127
2, 20191, Note_on_c, 4, 64, 127
2, 20297, Note_off_c, 0, 72, 127
2, 20353, Note_off_c, 4, 64, 127
2, 20355, Note_on_c, 2, 50, 127
2, 20355, Note_on_c, 5, 77, 127
2, 20437, Note_on_c, 4, 76, 127
2, 20471, Note_off_c, 5, 77, 127
2, 20517, Note_off_c, 2, 50, 127
2, 20520, Note_on_c, 4, 52, 127
2, 20520, Note_on_c, 5, 77, 127
2, 20553, Note_off_c, 4, 76, 127
2, 20682, Note_off_c, 4, 52, 127
2, 20684, Note_on_c, 5, 53, 127
2, 20846, Note_off_c, 5, 53, 127
2, 20846, Note_off_c, 5, 77, 127
2, 20848, Note_on_c, 10, 57, 127
2, 20848, Note_on_c, 5, 77, 127
2, 21010, Note_off_c, 5, 77, 127
2, 21010, Note_off_c, 10, 57, 127
2, 21012, Note_on_c, 7, 55, 127
2, 21012, Note_on_c, 5, 77, 127
2, 21174, Note_off_c, 5, 77, 127
2, 21176, Note_on_c, 10, 81, 127
2, 21338, Note_off_c, 10, 81, 127
2, 21338, Note_off_c, 7, 55, 127
2, 21340, Note_on_c, 0, 48, 127
2, 21340, Note_on_c, 7, 79, 127
2, 21502, Note_off_c, 7, 79, 127
2, 21504, Note_on_c, 5, 77, 127
2, 21666, Note_off_c, 5, 77, 127
2, 21666, Note_off_c, 0, 48, 127
2, 21669, Note_on_c, 0, 60, 127
2, 21669, Note_on_c, 4, 76, 127
2, 21749, Note_off_c, 0, 60, 127
2, 21751, Note_on_c, 12, 59, 127
2, 21831, Note_off_c, 12, 59, 127
2, 21831, Note_off_c, 4, 76, 127
2, 21833, Note_on_c, 0, 60, 127
2, 21833, Note_on_c, 5, 77, 127
2, 21995, Note_off_c, 5, 77, 127
2, 21997, Note_on_c, 7, 79, 127
2, 22159, Note_off_c, 7, 79, 127
2, 22159, Note_off_c, 0, 60, 127
2, 22161, Note_on_c, 0, 60, 127
2, 22161, Note_on_c, 4, 76, 127
2, 22323, Note_off_c, 4, 76, 127
2, 22323, Note_off_c, 0, 60, 127
2, 22325, Note_on_c, 0, 60, 127
2, 22325, Note_on_c, 5, 77, 127
2, 22487, Note_off_c, 5, 77, 127
2, 22489, Note_on_c, 7, 79, 127
2, 22651, Note_off_c, 7, 79, 127
2, 22654, Note_on_c, 5, 77, 127
2, 22815, Note_off_c, 0, 60, 127
2, 22816, Note_off_c, 5, 77, 127
2, 22818, Note_on_c, 2, 62, 127
2, 22818, Note_on_c, 4, 76, 127
2, 22980, Note_off_c, 4, 76, 127
2, 22980, Note_off_c, 2, 62, 127
2, 22982, Note_on_c, 0, 60, 127
2, 22982, Note_on_c, 2, 74, 127
2, 23085, Note_on_c, 11, 58, 127
2, 23101, Note_off_c, 0, 60, 127
2, 23144, Note_off_c, 2, 74, 127
2, 23146, Note_on_c, 7, 79, 127
2, 23170, Note_on_c, 0, 60, 127
2, 23185, Note_off_c, 11, 58, 127
2, 23238, Note_on_c, 11, 58, 127
2, 23253, Note_off_c, 0, 60, 127
2, 23306, Note_off_c, 11, 58, 127
2, 23307, Note_on_c, 0, 60, 127
2, 23308, Note_off_c, 7, 79, 127
2, 23310, Note_on_c, 5, 77, 127
2, 23375, Note_on_c, 11, 58, 127
2, 23390, Note_off_c, 0, 60, 127
2, 23458, Note_off_c, 11, 58, 127
2, 23472, Note_off_c, 5, 77, 127
2, 23474, Note_on_c, 7, 79, 127
2, 23474, Note_on_c, 11, 58, 127
2, 23636, Note_off_c, 11, 58, 127
2, 23636, Note_off_c, 7, 79, 127
2, 23639, Note_on_c, 11, 58, 127
2, 23639, Note_on_c, 4, 76, 127
2, 23801, Note_off_c, 4, 76, 127
2, 23803, Note_on_c, 0, 72, 127
2, 23965, Note_off_c, 0, 72, 127
2, 23965, Note_off_c, 11, 58, 127
2, 23967, Note_on_c, 0, 60, 127
2, 23967, Note_on_c, 2, 74, 127
2, 24129, Note_off_c, 2, 74, 127
2, 24129, Note_off_c, 0, 60, 127
2, 24131, Note_on_c, 11, 58, 127
2, 24131, Note_on_c, 4, 76, 127
2, 24293, Note_off_c, 4, 76, 127
2, 24293, Note_off_c, 11, 58, 127
2, 24295, Note_on_c, 10, 57, 127
2, 24295, Note_on_c, 5, 77, 127
2, 24457, Note_off_c, 5, 77, 127
2, 24457, Note_off_c, 10, 57, 127
2, 24459, Note_on_c, 7, 55, 127
2, 24459, Note_on_c, 7, 79, 127
2, 24621, Note_off_c, 7, 79, 127
2, 24621, Note_off_c, 7, 55, 127
2, 24624, Note_on_c, 5, 53, 127
2, 24624, Note_on_c, 10, 81, 127
2, 24786, Note_off_c, 10, 81, 127
2, 24786, Note_off_c, 5, 53, 127
2, 24788, Note_on_c, 4, 52, 127
2, 24788, Note_on_c, 5, 77, 127
2, 24950, Note_off_c, 5, 77, 127
2, 24950, Note_off_c, 4, 52, 127
2, 24952, Note_on_c, 2, 50, 127
2, 24952, Note_on_c, 11, 82, 127
2, 25114, Note_off_c, 11, 82, 127
2, 25114, Note_off_c, 2, 50, 127
2, 25116, Note_on_c, 0, 48, 127
2, 25116, Note_on_c, 0, 84, 127
2, 25278, Note_off_c, 0, 84, 127
2, 25278, Note_off_c, 0, 48, 127
2, 25280, Note_on_c, 2, 50, 127
2, 25280, Note_on_c, 11, 82, 127
2, 25442, Note_off_c, 11, 82, 127
2, 25442, Note_off_c, 2, 50, 127
2, 25444, Note_on_c, 11, 46, 127
2, 25444, Note_on_c, 10, 81, 127
2, 25606, Note_off_c, 10, 81, 127
2, 25606, Note_off_c, 11, 46, 127
2, 25608, Note_on_c, 0, 48, 127
2, 25608, Note_on_c, 7, 79, 127
2, 25770, Note_off_c, 7, 79, 127
2, 25773, Note_on_c, 0, 84, 127
2, 25934, Note_off_c, 0, 48, 127
2, 25935, Note_off_c, 0, 84, 127
2, 25937, Note_on_c, 0, 36, 127
2, 25937, Note_on_c, 11, 82, 127
2, 26099, Note_off_c, 11, 82, 127
2, 26101, Note_on_c, 0, 84, 127
2, 26263, Note_off_c, 0, 84, 127
2, 26263, Note_off_c, 0, 36, 127
2, 26265, Note_on_c, 5, 41, 127
2, 26265, Note_on_c, 10, 81, 127
2, 26427, Note_off_c, 10, 81, 127
2, 26429, Note_on_c, 11, 82, 127
2, 26591, Note_off_c, 11, 82, 127
2, 26593, Note_on_c, 10, 81, 127
2, 26755, Note_off_c, 10, 81, 127
2, 26758, Note_on_c, 7, 79, 127
2, 26920, Note_off_c, 7, 79, 127
2, 26922, Note_on_c, 5, 77, 127
2, 27084, Note_off_c, 5, 77, 127
2, 27085, Note_off_c, 5, 41, 127
2, 27086, Note_on_c, 4, 76, 127
2, 27248, Note_off_c, 4, 76, 127
2, 27250, Note_on_c, 5, 53, 127
2, 27250, Note_on_c, 2, 74, 127
2, 27412, Note_off_c, 2, 74, 127
2, 27414, Note_on_c, 0, 72, 127
2, 27576, Note_off_c, 0, 72, 127
2, 27576, Note_off_c, 5, 53, 127
2, 27578, Note_on_c, 7, 55, 127
2, 27578, Note_on_c, 12, 71, 127
2, 27740, Note_off_c, 12, 71, 127
2, 27740, Note_off_c, 7, 55, 127
2, 27743, Note_on_c, 0, 60, 127
2, 27743, Note_on_c, 7, 67, 127
2, 27905, Note_off_c, 7, 67, 127
2, 27905, Note_off_c, 0, 60, 127
2, 27907, Note_on_c, 12, 59, 127
2, 27907, Note_on_c, 10, 69, 127
2, 28069, Note_off_c, 10, 69, 127
2, 28069, Note_off_c, 12, 59, 127
2, 28071, Note_on_c, 10, 57, 127
2, 28071, Note_on_c, 12, 71, 127
2, 28233, Note_off_c, 12, 71, 127
2, 28233, Note_off_c, 10, 57, 127
2, 28235, Note_on_c, 7, 55, 127
2, 28235, Note_on_c, 0, 72, 127
2, 28397, Note_off_c, 0, 72, 127
2, 28397, Note_off_c, 7, 55, 127
2, 28399, Note_on_c, 5, 53, 127
2, 28399, Note_on_c, 2, 74, 127
2, 28561, Note_off_c, 2, 74, 127
2, 28561, Note_off_c, 5, 53, 127
2, 28563, Note_on_c, 4, 52, 127
2, 28563, Note_on_c, 4, 76, 127
2, 28725, Note_off_c, 4, 76, 127
2, 28725, Note_off_c, 4, 52, 127
2, 28728, Note_on_c, 2, 50, 127
2, 28728, Note_on_c, 5, 77, 127
2, 28890, Note_off_c, 5, 77, 127
2, 28890, Note_off_c, 2, 50, 127
2, 28892, Note_on_c, 0, 48, 127
2, 28892, Note_on_c, 7, 79, 127
2, 29136, Note_off_c, 7, 79, 127
2, 29138, Note_on_c, 10, 81, 127
2, 29218, Note_off_c, 10, 81, 127
2, 29218, Note_off_c, 0, 48, 127
2, 29220, Note_on_c, 5, 53, 127
2, 29220, Note_on_c, 7, 79, 127
2, 29300, Note_off_c, 7, 79, 127
2, 29302, Note_on_c, 5, 77, 127
2, 29382, Note_off_c, 5, 77, 127
2, 29384, Note_on_c, 7, 79, 127
2, 29464, Note_off_c, 7, 79, 127
2, 29466, Note_on_c, 10, 81, 127
2, 29546, Note_off_c, 10, 81, 127
2, 29546, Note_off_c, 5, 53, 127
2, 29548, Note_on_c, 7, 55, 127
2, 29548, Note_on_c, 4, 76, 127
2, 29655, Note_off_c, 4, 76, 127
2, 29658, Note_on_c, 2, 74, 127
2, 29712, Note_on_c, 4, 76, 127
2, 29738, Note_off_c, 2, 74, 127
2, 29767, Note_on_c, 2, 74, 127
2, 29792, Note_off_c, 4, 76, 127
2, 29822, Note_on_c, 4, 76, 127
2, 29847, Note_off_c, 2, 74, 127
2, 29874, Note_off_c, 7, 55, 127
2, 29877, Note_on_c, 7, 43, 127
2, 29877, Note_on_c, 2, 74, 127
2, 29902, Note_off_c, 4, 76, 127
2, 30039, Note_off_c, 2, 74, 127
2, 30041, Note_on_c, 0, 72, 127
2, 30203, Note_off_c, 0, 72, 127
2, 30203, Note_off_c, 7, 43, 127
2, 30205, Note_on_c, 0, 36, 127
2, 30205, Note_on_c, 0, 72, 127
2, 30367, Note_off_c, 0, 72, 127
2, 30369, Note_on_c, 7, 67, 127
2, 30531, Note_off_c, 7, 67, 127
2, 30533, Note_on_c, 10, 69, 127
2, 30695, Note_off_c, 10, 69, 127
2, 30697, Note_on_c, 12, 71, 127
2, 30859, Note_off_c, 12, 71, 127
2, 30859, Note_off_c, 0, 36, 127
2, 30862, Note_on_c, 0, 60, 127
2, 30862, Note_on_c, 0, 72, 127
2, 30942, Note_off_c, 0, 60, 127
2, 30944, Note_on_c, 12, 59, 127
2, 31024, Note_off_c, 12, 59, 127
2, 31024, Note_off_c, 0, 72, 127
2, 31026, Note_on_c, 0, 60, 127
2, 31026, Note_on_c, 2, 74, 127
2, 31188, Note_off_c, 2, 74, 127
2, 31190, Note_on_c, 4, 76, 127
2, 31352, Note_off_c, 4, 76, 127
2, 31352, Note_off_c, 0, 60, 127
2, 31354, Note_on_c, 0, 60, 127
2, 31354, Note_on_c, 0, 72, 127
2, 31516, Note_off_c, 0, 72, 127
2, 31516, Note_off_c, 0, 60, 127
2, 31518, Note_on_c, 0, 60, 127
2, 31518, Note_on_c, 5, 77, 127
2, 31680, Note_off_c, 5, 77, 127
2, 31682, Note_on_c, 7, 79, 127
2, 31844, Note_off_c, 7, 79, 127
2, 31847, Note_on_c, 5, 77, 127
2, 32008, Note_off_c, 0, 60, 127
2, 32009, Note_off_c, 5, 77, 127
2, 32011, Note_on_c, 2, 62, 127
2, 32011, Note_on_c, 4, 76, 127
2, 32173, Note_off_c, 4, 76, 127
2, 32173, Note_off_c, 2, 62, 127
2, 32175, Note_on_c, 0, 60, 127
2, 32175, Note_on_c, 2, 74, 127
2, 32255, Note_off_c, 0, 60, 127
2, 32257, Note_on_c, 11, 58, 127
2, 32337, Note_off_c, 11, 58, 127
2, 32337, Note_off_c, 2, 74, 127
2, 32339, Note_on_c, 0, 60, 127
2, 32339, Note_on_c, 7, 79, 127
2, 32419, Note_off_c, 0, 60, 127
2, 32421, Note_on_c, 11, 58, 127
2, 32501, Note_off_c, 11, 58, 127
2, 32501, Note_off_c, 7, 79, 127
2, 32503, Note_on_c, 0, 60, 127
2, 32503, Note_on_c, 5, 77, 127
2, 32583, Note_off_c, 0, 60, 127
2, 32585, Note_on_c, 11, 58, 127
2, 32665, Note_off_c, 11, 58, 127
2, 32665, Note_off_c, 5, 77, 127
2, 32667, Note_on_c, 11, 58, 127
2, 32667, Note_on_c, 7, 79, 127
2, 32829, Note_off_c, 7, 79, 127
2, 32829, Note_off_c, 11, 58, 127
2, 32832, Note_on_c, 11, 58, 127
2, 32832, Note_on_c, 4, 76, 127
2, 32994, Note_off_c, 11, 58, 127
2, 32996, Note_on_c, 0, 48, 127
2, 33102, Note_off_c, 4, 76, 127
2, 33158, Note_off_c, 0, 48, 127
2, 33160, Note_on_c, 2, 50, 127
2, 33160, Note_on_c, 0, 72, 127
2, 33322, Note_off_c, 2, 50, 127
2, 33324, Note_on_c, 4, 52, 127
2, 33430, Note_off_c, 0, 72, 127
2, 33486, Note_off_c, 4, 52, 127
2, 33488, Note_on_c, 5, 53, 127
2, 33488, Note_on_c, 5, 77, 127
2, 33568, Note_off_c, 5, 77, 127
2, 33570, Note_on_c, 4, 76, 127
2, 33650, Note_off_c, 4, 76, 127
2, 33650, Note_off_c, 5, 53, 127
2, 33652, Note_on_c, 7, 55, 127
2, 33652, Note_on_c, 5, 77, 127
2, 33814, Note_off_c, 7, 55, 127
2, 33816, Note_on_c, 10, 57, 127
2, 33978, Note_off_c, 10, 57, 127
2, 33978, Note_off_c, 5, 77, 127
2, 33981, Note_on_c, 5, 53, 127
2, 33981, Note_on_c, 5, 77, 127
2, 34143, Note_off_c, 5, 77, 127
2, 34143, Note_off_c, 5, 53, 127
2, 34145, Note_on_c, 11, 58, 127
2, 34145, Note_on_c, 5, 77, 127
2, 34307, Note_off_c, 11, 58, 127
2, 34309, Note_on_c, 0, 60, 127
2, 34471, Note_off_c, 0, 60, 127
2, 34473, Note_on_c, 11, 58, 127
2, 34635, Note_off_c, 11, 58, 127
2, 34635, Note_off_c, 5, 77, 127
2, 34637, Note_on_c, 10, 57, 127
2, 34637, Note_on_c, 7, 79, 127
2, 34799, Note_off_c, 7, 79, 127
2, 34799, Note_off_c, 10, 57, 127
2, 34801, Note_on_c, 7, 55, 127
2, 34801, Note_on_c, 3, 75, 127
2, 34881, Note_off_c, 3, 75, 127
2, 34884, Note_on_c, 2, 74, 127
2, 34963, Note_off_c, 7, 55, 127
2, 34964, Note_off_c, 2, 74, 127
2, 34966, Note_on_c, 0, 60, 127
2, 34966, Note_on_c, 3, 75, 127
2, 35128, Note_off_c, 0, 60, 127
2, 35130, Note_on_c, 11, 58, 127
2, 35292, Note_off_c, 11, 58, 127
2, 35292, Note_off_c, 3, 75, 127
2, 35294, Note_on_c, 0, 60, 127
2, 35294, Note_on_c, 3, 75, 127
2, 35456, Note_off_c, 3, 75, 127
2, 35456, Note_off_c, 0, 60, 127
2, 35458, Note_on_c, 10, 57, 127
2, 35458, Note_on_c, 3, 75, 127
2, 35620, Note_off_c, 3, 75, 127
2, 35622, Note_on_c, 5, 65, 127
2, 35784, Note_off_c, 5, 65, 127
2, 35784, Note_off_c, 10, 57, 127
2, 35786, Note_on_c, 5, 53, 127
2, 35786, Note_on_c, 7, 67, 127
2, 35948, Note_off_c, 7, 67, 127
2, 35951, Note_on_c, 10, 69, 127
2, 36112, Note_off_c, 5, 53, 127
2, 36113, Note_off_c, 10, 69, 127
2, 36115, Note_on_c, 11, 58, 127
2, 36115, Note_on_c, 11, 70, 127
2, 36195, Note_off_c, 11, 58, 127
2, 36197, Note_on_c, 10, 57, 127
2, 36277, Note_off_c, 10, 57, 127
2, 36277, Note_off_c, 11, 70, 127
2, 36279, Note_on_c, 11, 58, 127
2, 36279, Note_on_c, 0, 72, 127
2, 36441, Note_off_c, 0, 72, 127
2, 36443, Note_on_c, 2, 74, 127
2, 36605, Note_off_c, 2, 74, 127
2, 36605, Note_off_c, 11, 58, 127
2, 36607, Note_on_c, 11, 58, 127
2, 36607, Note_on_c, 11, 70, 127
2, 36769, Note_off_c, 11, 70, 127
2, 36769, Note_off_c, 11, 58, 127
2, 36771, Note_on_c, 11, 58, 127
2, 36771, Note_on_c, 3, 75, 127
2, 36933, Note_off_c, 3, 75, 127
2, 36936, Note_on_c, 5, 77, 127
2, 37098, Note_off_c, 5, 77, 127
2, 37100, Note_on_c, 3, 75, 127
2, 37261, Note_off_c, 11, 58, 127
2, 37262, Note_off_c, 3, 75, 127
2, 37264, Note_on_c, 0, 60, 127
2, 37264, Note_on_c, 2, 74, 127
2, 37426, Note_off_c, 2, 74, 127
2, 37426, Note_off_c, 0, 60, 127
2, 37428, Note_on_c, 11, 58, 127
2, 37428, Note_on_c, 0, 72, 127
2, 37508, Note_off_c, 11, 58, 127
2, 37510, Note_on_c, 10, 57, 127
2, 37590, Note_off_c, 10, 57, 127
2, 37590, Note_off_c, 0, 72, 127
2, 37592, Note_on_c, 11, 58, 127
2, 37592, Note_on_c, 5, 77, 127
2, 37672, Note_off_c, 11, 58, 127
2, 37674, Note_on_c, 10, 57, 127
2, 37754, Note_off_c, 10, 57, 127
2, 37754, Note_off_c, 5, 77, 127
2, 37756, Note_on_c, 11, 58, 127
2, 37756, Note_on_c, 3, 75, 127
2, 37836, Note_off_c, 11, 58, 127
2, 37838, Note_on_c, 10, 57, 127
2, 37918, Note_off_c, 10, 57, 127
2, 37918, Note_off_c, 3, 75, 127
2, 37920, Note_on_c, 7, 55, 127
2, 37920, Note_on_c, 5, 77, 127
2, 38000, Note_off_c, 7, 55, 127
2, 38003, Note_on_c, 10, 57, 127
2, 38082, Note_off_c, 5, 77, 127
2, 38083, Note_off_c, 10, 57, 127
2, 38085, Note_on_c, 11, 58, 127
2, 38085, Note_on_c, 2, 74, 127
2, 38247, Note_off_c, 11, 58, 127
2, 38249, Note_on_c, 2, 50, 127
2, 38411, Note_off_c, 2, 50, 127
2, 38413, Note_on_c, 4, 52, 127
2, 38413, Note_on_c, 11, 70, 127
2, 38575, Note_off_c, 4, 52, 127
2, 38577, Note_on_c, 5, 53, 127
2, 38585, Note_off_c, 2, 74, 127
2, 38663, Note_off_c, 11, 70, 127
2, 38739, Note_off_c, 5, 53, 127
2, 38741, Note_on_c, 7, 55, 127
2, 38741, Note_on_c, 2, 74, 127
2, 38743, Note_on_c, 7, 79, 127
2, 38745, Note_on_c, 11, 82, 127
2, 38903, Note_off_c, 7, 55, 127
2, 38905, Note_on_c, 10, 57, 127
2, 39067, Note_off_c, 10, 57, 127
2, 39070, Note_on_c, 11, 58, 127
2, 39231, Note_off_c, 11, 82, 127
2, 39231, Note_off_c, 7, 79, 127
2, 39231, Note_off_c, 2, 74, 127
2, 39232, Note_off_c, 11, 58, 127
2, 39234, Note_on_c, 7, 55, 127
2, 39234, Note_on_c, 11, 82, 127
2, 39234, Note_on_c, 7, 79, 127
2, 39234, Note_on_c, 2, 74, 127
2, 39390, Note_off_c, 2, 74, 127
2, 39390, Note_off_c, 7, 79, 127
2, 39390, Note_off_c, 11, 82, 127
2, 39390, Note_off_c, 7, 55, 127
2, 39398, Note_on_c, 0, 60, 127
2, 39398, Note_on_c, 4, 76, 127
2, 39400, Note_on_c, 7, 79, 127
2, 39401, Note_on_c, 11, 82, 127
2, 39560, Note_off_c, 0, 60, 127
2, 39562, Note_on_c, 0, 48, 127
2, 39724, Note_off_c, 0, 48, 127
2, 39726, Note_on_c, 2, 50, 127
2, 39888, Note_off_c, 2, 50, 127
2, 39888, Note_off_c, 4, 76, 127
2, 39890, Note_off_c, 7, 79, 127
2, 39890, Note_on_c, 4, 52, 127
2, 39890, Note_on_c, 4, 76, 127
2, 39890, Note_on_c, 0, 84, 127
2, 39890, Note_on_c, 7, 79, 127
2, 39891, Note_off_c, 11, 82, 127
2, 40052, Note_off_c, 7, 79, 127
2, 40052, Note_off_c, 0, 84, 127
2, 40052, Note_off_c, 4, 76, 127
2, 40052, Note_off_c, 4, 52, 127
2, 40055, Note_on_c, 5, 53, 127
2, 40055, Note_on_c, 4, 76, 127
2, 40056, Note_on_c, 5, 77, 127
2, 40058, Note_on_c, 10, 81, 127
2, 40217, Note_off_c, 5, 53, 127
2, 40219, Note_on_c, 7, 55, 127
2, 40381, Note_off_c, 7, 55, 127
2, 40383, Note_on_c, 10, 57, 127
2, 40524, Note_off_c, 10, 81, 127
2, 40545, Note_off_c, 10, 57, 127
2, 40545, Note_off_c, 4, 76, 127
2, 40546, Note_off_c, 5, 77, 127
2, 40547, Note_on_c, 5, 53, 127
2, 40547, Note_on_c, 5, 77, 127
2, 40547, Note_on_c, 4, 76, 127
2, 40547, Note_on_c, 10, 81, 127
2, 40709, Note_off_c, 10, 81, 127
2, 40709, Note_off_c, 4, 76, 127
2, 40709, Note_off_c, 5, 77, 127
2, 40709, Note_off_c, 5, 53, 127
2, 40711, Note_on_c, 11, 58, 127
2, 40711, Note_on_c, 2, 74, 127
2, 40711, Note_on_c, 10, 81, 127
2, 40711, Note_on_c, 5, 77, 127
2, 40873, Note_off_c, 11, 58, 127
2, 40875, Note_on_c, 10, 57, 127
2, 41037, Note_off_c, 10, 57, 127
2, 41037, Note_off_c, 10, 81, 127
2, 41037, Note_off_c, 2, 74, 127
2, 41040, Note_on_c, 7, 55, 127
2, 41040, Note_on_c, 2, 74, 127
2, 41202, Note_off_c, 7, 55, 127
2, 41204, Note_on_c, 5, 53, 127
2, 41360, Note_off_c, 5, 77, 127
2, 41366, Note_off_c, 5, 53, 127
2, 41366, Note_off_c, 2, 74, 127
2, 41368, Note_on_c, 4, 52, 127
2, 41368, Note_on_c, 2, 74, 127
2, 41368, Note_on_c, 7, 79, 127
2, 41530, Note_off_c, 4, 52, 127
2, 41532, Note_on_c, 2, 50, 127
2, 41694, Note_off_c, 2, 50, 127
2, 41696, Note_on_c, 0, 48, 127
2, 41858, Note_off_c, 0, 48, 127
2, 41858, Note_off_c, 7, 79, 127
2, 41858, Note_off_c, 2, 74, 127
2, 41860, Note_on_c, 11, 46, 127
2, 41860, Note_on_c, 2, 74, 127
2, 41860, Note_on_c, 7, 79, 127
2, 42022, Note_off_c, 7, 79, 127
2, 42022, Note_off_c, 2, 74, 127
2, 42022, Note_off_c, 11, 46, 127
2, 42024, Note_on_c, 10, 45, 127
2, 42024, Note_on_c, 7, 79, 127
2, 42024, Note_on_c, 0, 72, 127
2, 42186, Note_off_c, 10, 45, 127
2, 42189, Note_on_c, 11, 46, 127
2, 42351, Note_off_c, 11, 46, 127
2, 42353, Note_on_c, 0, 48, 127
2, 42514, Note_off_c, 0, 72, 127
2, 42514, Note_off_c, 7, 79, 127
2, 42515, Note_off_c, 0, 48, 127
2, 42517, Note_on_c, 4, 52, 127
2, 42517, Note_on_c, 10, 81, 127
2, 42517, Note_on_c, 0, 72, 127
2, 42679, Note_off_c, 0, 72, 127
2, 42679, Note_off_c, 10, 81, 127
2, 42679, Note_off_c, 4, 52, 127
2, 42681, Note_on_c, 2, 50, 127
2, 42681, Note_on_c, 5, 77, 127
2, 42681, Note_on_c, 0, 72, 127
2, 42843, Note_off_c, 2, 50, 127
2, 42845, Note_on_c, 4, 52, 127
2, 43007, Note_off_c, 4, 52, 127
2, 43009, Note_on_c, 5, 53, 127
2, 43171, Note_off_c, 5, 53, 127
2, 43171, Note_off_c, 0, 72, 127
2, 43171, Note_off_c, 5, 77, 127
2, 43174, Note_on_c, 10, 57, 127
2, 43174, Note_on_c, 0, 72, 127
2, 43174, Note_on_c, 5, 77, 127
2, 43336, Note_off_c, 5, 77, 127
2, 43336, Note_off_c, 0, 72, 127
2, 43336, Note_off_c, 10, 57, 127
2, 43338, Note_on_c, 7, 55, 127
2, 43338, Note_on_c, 11, 70, 127
2, 43338, Note_on_c, 5, 77, 127
2, 43500, Note_off_c, 7, 55, 127
2, 43502, Note_on_c, 7, 43, 127
2, 43664, Note_off_c, 7, 43, 127
2, 43666, Note_on_c, 10, 45, 127
2, 43828, Note_off_c, 10, 45, 127
2, 43828, Note_off_c, 5, 77, 127
2, 43828, Note_off_c, 11, 70, 127
2, 43830, Note_on_c, 11, 46, 127
2, 43830, Note_on_c, 11, 70, 127
2, 43830, Note_on_c, 7, 79, 127
2, 43992, Note_off_c, 7, 79, 127
2, 43992, Note_off_c, 11, 70, 127
2, 43992, Note_off_c, 11, 46, 127
2, 43994, Note_on_c, 0, 48, 127
2, 43994, Note_on_c, 5, 77, 127
2, 43994, Note_on_c, 11, 70, 127
2, 44103, Note_off_c, 5, 77, 127
2, 44104, Note_on_c, 4, 76, 127
2, 44156, Note_off_c, 0, 48, 127
2, 44159, Note_on_c, 10, 45, 127
2, 44170, Note_off_c, 4, 76, 127
2, 44172, Note_on_c, 5, 77, 127
2, 44238, Note_off_c, 5, 77, 127
2, 44241, Note_on_c, 4, 76, 127
2, 44307, Note_off_c, 4, 76, 127
2, 44309, Note_on_c, 5, 77, 127
2, 44321, Note_off_c, 10, 45, 127
2, 44323, Note_on_c, 11, 46, 127
2, 44375, Note_off_c, 5, 77, 127
2, 44377, Note_on_c, 4, 76, 127
2, 44484, Note_off_c, 11, 70, 127
2, 44485, Note_off_c, 11, 46, 127
2, 44487, Note_on_c, 0, 48, 127
2, 44487, Note_on_c, 11, 70, 127
2, 44489, Note_on_c, 5, 77, 127
2, 44500, Note_off_c, 4, 76, 127
2, 44649, Note_off_c, 5, 77, 127
2, 44649, Note_off_c, 11, 70, 127
2, 44649, Note_off_c, 0, 48, 127
2, 44651, Note_on_c, 2, 38, 127
2, 44651, Note_on_c, 5, 77, 127
2, 44651, Note_on_c, 10, 69, 127
2, 44977, Note_off_c, 10, 69, 127
2, 44977, Note_off_c, 5, 77, 127
2, 44979, Note_on_c, 2, 62, 127
2, 45141, Note_off_c, 2, 62, 127
2, 45144, Note_on_c, 4, 64, 127
2, 45306, Note_off_c, 4, 64, 127
2, 45308, Note_on_c, 5, 65, 127
2, 45470, Note_off_c, 5, 65, 127
2, 45471, Note_off_c, 2, 38, 127
2, 45472, Note_on_c, 7, 67, 127
2, 45634, Note_off_c, 7, 67, 127
2, 45636, Note_on_c, 2, 50, 127
2, 45636, Note_on_c, 10, 69, 127
2, 45798, Note_off_c, 10, 69, 127
2, 45800, Note_on_c, 5, 65, 127
2, 45962, Note_off_c, 5, 65, 127
2, 45962, Note_off_c, 2, 50, 127
2, 45964, Note_on_c, 7, 55, 127
2, 45964, Note_on_c, 11, 70, 127
2, 46126, Note_off_c, 11, 70, 127
2, 46126, Note_off_c, 7, 55, 127
2, 46128, Note_on_c, 10, 57, 127
2, 46128, Note_on_c, 0, 72, 127
2, 46290, Note_off_c, 0, 72, 127
2, 46290, Note_off_c, 10, 57, 127
2, 46293, Note_on_c, 7, 55, 127
2, 46293, Note_on_c, 11, 70, 127
2, 46455, Note_off_c, 11, 70, 127
2, 46455, Note_off_c, 7, 55, 127
2, 46457, Note_on_c, 5, 53, 127
2, 46457, Note_on_c, 10, 69, 127
2, 46619, Note_off_c, 10, 69, 127
2, 46619, Note_off_c, 5, 53, 127
2, 46621, Note_on_c, 4, 52, 127
2, 46621, Note_on_c, 7, 67, 127
2, 46783, Note_off_c, 7, 67, 127
2, 46783, Note_off_c, 4, 52, 127
2, 46785, Note_on_c, 0, 48, 127
2, 46785, Note_on_c, 0, 72, 127
2, 46947, Note_off_c, 0, 72, 127
2, 46947, Note_off_c, 0, 48, 127
2, 46949, Note_on_c, 2, 50, 127
2, 46949, Note_on_c, 11, 70, 127
2, 47111, Note_off_c, 11, 70, 127
2, 47111, Note_off_c, 2, 50, 127
2, 47113, Note_on_c, 4, 52, 127
2, 47113, Note_on_c, 0, 72, 127
2, 47275, Note_off_c, 0, 72, 127
2, 47275, Note_off_c, 4, 52, 127
2, 47278, Note_on_c, 5, 53, 127
2, 47278, Note_on_c, 10, 69, 127
2, 47440, Note_off_c, 5, 53, 127
2, 47442, Note_on_c, 7, 55, 127
2, 47548, Note_off_c, 10, 69, 127
2, 47604, Note_off_c, 7, 55, 127
2, 47606, Note_on_c, 5, 53, 127
2, 47606, Note_on_c, 0, 60, 127
2, 47768, Note_off_c, 5, 53, 127
2, 47770, Note_on_c, 4, 52, 127
2, 47876, Note_off_c, 0, 60, 127
2, 47932, Note_off_c, 4, 52, 127
2, 47934, Note_on_c, 2, 50, 127
2, 47934, Note_on_c, 5, 65, 127
2, 48016, Note_on_c, 4, 64, 127
2, 48022, Note_off_c, 5, 65, 127
2, 48096, Note_off_c, 2, 50, 127
2, 48098, Note_on_c, 0, 48, 127
2, 48098, Note_on_c, 5, 65, 127
2, 48104, Note_off_c, 4, 64, 127
2, 48260, Note_off_c, 0, 48, 127
2, 48263, Note_on_c, 11, 46, 127
2, 48424, Note_off_c, 5, 65, 127
2, 48425, Note_off_c, 11, 46, 127
2, 48427, Note_on_c, 10, 45, 127
2, 48427, Note_on_c, 10, 57, 127
2, 48427, Note_on_c, 5, 65, 127
2, 48427, Note_on_c, 0, 60, 127
2, 48589, Note_off_c, 0, 60, 127
2, 48589, Note_off_c, 5, 65, 127
2, 48589, Note_off_c, 10, 57, 127
2, 48589, Note_off_c, 10, 45, 127
2, 48591, Note_on_c, 11, 46, 127
2, 48591, Note_on_c, 7, 55, 127
2, 48591, Note_on_c, 5, 65, 127
2, 48591, Note_on_c, 2, 62, 127
2, 48753, Note_off_c, 2, 62, 127
2, 48755, Note_on_c, 0, 60, 127
2, 48917, Note_off_c, 0, 60, 127
2, 48917, Note_off_c, 11, 46, 127
2, 48919, Note_on_c, 7, 43, 127
2, 48919, Note_on_c, 11, 58, 127
2, 49069, Note_off_c, 7, 55, 127
2, 49081, Note_off_c, 11, 58, 127
2, 49083, Note_on_c, 10, 57, 127
2, 49240, Note_off_c, 5, 65, 127
2, 49245, Note_off_c, 10, 57, 127
2, 49245, Note_off_c, 7, 43, 127
2, 49248, Note_on_c, 0, 48, 127
2, 49248, Note_on_c, 4, 64, 127
2, 49248, Note_on_c, 7, 55, 127
2, 49412, Note_on_c, 0, 60, 127
2, 49572, Note_off_c, 7, 55, 127
2, 49574, Note_off_c, 0, 60, 127
2, 49574, Note_off_c, 0, 48, 127
2, 49576, Note_on_c, 0, 36, 127
2, 49576, Note_on_c, 11, 58, 127
2, 49726, Note_off_c, 4, 64, 127
2, 49738, Note_off_c, 11, 58, 127
2, 49740, Note_on_c, 0, 60, 127
2, 49740, Note_on_c, 4, 64, 127
2, 49902, Note_off_c, 4, 64, 127
2, 49902, Note_off_c, 0, 60, 127
2, 49902, Note_off_c, 0, 36, 127
2, 49904, Note_on_c, 5, 41, 127
2, 49904, Note_on_c, 5, 65, 127
2, 49904, Note_on_c, 10, 57, 127
2, 50230, Note_off_c, 5, 41, 127
2, 50232, Note_on_c, 5, 53, 127
2, 50394, Note_off_c, 5, 53, 127
2, 50397, Note_on_c, 4, 52, 127
2, 50553, Note_off_c, 10, 57, 127
2, 50559, Note_off_c, 4, 52, 127
2, 50561, Note_on_c, 5, 53, 127
2, 50725, Note_on_c, 5, 77, 127
2, 50887, Note_off_c, 5, 77, 127
2, 50887, Note_off_c, 5, 53, 127
2, 50887, Note_off_c, 5, 65, 127
2, 50889, Note_on_c, 7, 55, 127
2, 50889, Note_on_c, 4, 76, 127
2, 51053, Note_on_c, 5, 77, 127
2, 51077, Note_off_c, 4, 76, 127
2, 51215, Note_off_c, 5, 77, 127
2, 51215, Note_off_c, 7, 55, 127
2, 51217, Note_on_c, 10, 57, 127
2, 51217, Note_on_c, 0, 72, 127
2, 51382, Note_on_c, 5, 77, 127
2, 51422, Note_off_c, 0, 72, 127
2, 51543, Note_off_c, 10, 57, 127
2, 51544, Note_off_c, 5, 77, 127
2, 51546, Note_on_c, 11, 58, 127
2, 51546, Note_on_c, 2, 74, 127
2, 51710, Note_on_c, 5, 77, 127
2, 51751, Note_off_c, 2, 74, 127
2, 51872, Note_off_c, 5, 77, 127
2, 51872, Note_off_c, 11, 58, 127
2, 51874, Note_on_c, 10, 57, 127
2, 51874, Note_on_c, 0, 72, 127
2, 52038, Note_on_c, 5, 77, 127
2, 52079, Note_off_c, 0, 72, 127
2, 52200, Note_off_c, 5, 77, 127
2, 52200, Note_off_c, 10, 57, 127
2, 52202, Note_on_c, 7, 55, 127
2, 52202, Note_on_c, 11, 70, 127
2, 52367, Note_on_c, 5, 77, 127
2, 52407, Note_off_c, 11, 70, 127
2, 52528, Note_off_c, 7, 55, 127
2, 52529, Note_off_c, 5, 77, 127
2, 52531, Note_on_c, 5, 53, 127
2, 52531, Note_on_c, 10, 69, 127
2, 52695, Note_on_c, 5, 77, 127
2, 52736, Note_off_c, 10, 69, 127
2, 52857, Note_off_c, 5, 77, 127
2, 52859, Note_on_c, 2, 62, 127
2, 52859, Note_on_c, 11, 70, 127
2, 53021, Note_off_c, 11, 70, 127
2, 53023, Note_on_c, 5, 77, 127
2, 53185, Note_off_c, 5, 77, 127
2, 53185, Note_off_c, 2, 62, 127
2, 53187, Note_on_c, 0, 60, 127
2, 53187, Note_on_c, 10, 69, 127
2, 53349, Note_off_c, 10, 69, 127
2, 53352, Note_on_c, 5, 77, 127
2, 53513, Note_off_c, 0, 60, 127
2, 53514, Note_off_c, 5, 77, 127
2, 53516, Note_on_c, 11, 58, 127
2, 53516, Note_on_c, 7, 67, 127
2, 53678, Note_off_c, 7, 67, 127
2, 53680, Note_on_c, 5, 77, 127
2, 53842, Note_off_c, 5, 77, 127
2, 53842, Note_off_c, 11, 58, 127
2, 53844, Note_on_c, 10, 57, 127
2, 53844, Note_on_c, 5, 65, 127
2, 54006, Note_off_c, 5, 65, 127
2, 54008, Note_on_c, 5, 77, 127
2, 54170, Note_off_c, 5, 77, 127
2, 54170, Note_off_c, 10, 57, 127
2, 54172, Note_off_c, 5, 53, 127
2, 54172, Note_on_c, 11, 58, 127
2, 54172, Note_on_c, 5, 53, 127
2, 54172, Note_on_c, 7, 67, 127
2, 54334, Note_off_c, 7, 67, 127
2, 54336, Note_on_c, 5, 77, 127
2, 54498, Note_off_c, 5, 77, 127
2, 54498, Note_off_c, 5, 53, 127
2, 54498, Note_off_c, 11, 58, 127
2, 54501, Note_on_c, 4, 52, 127
2, 54501, Note_on_c, 0, 60, 127
2, 54501, Note_on_c, 10, 69, 127
2, 54663, Note_off_c, 10, 69, 127
2, 54665, Note_on_c, 5, 77, 127
2, 54827, Note_off_c, 5, 77, 127
2, 54827, Note_off_c, 0, 60, 127
2, 54827, Note_off_c, 4, 52, 127
2, 54829, Note_on_c, 2, 50, 127
2, 54829, Note_on_c, 2, 62, 127
2, 54829, Note_on_c, 12, 71, 127
2, 54991, Note_off_c, 12, 71, 127
2, 54993, Note_on_c, 5, 77, 127
2, 55155, Note_off_c, 5, 77, 127
2, 55155, Note_off_c, 2, 62, 127
2, 55155, Note_off_c, 2, 50, 127
2, 55157, Note_on_c, 0, 48, 127
2, 55157, Note_on_c, 7, 55, 127
2, 55157, Note_on_c, 0, 72, 127
2, 55157, Note_on_c, 4, 76, 127
2, 55319, Note_off_c, 4, 76, 127
2, 55319, Note_off_c, 0, 72, 127
2, 55321, Note_on_c, 7, 67, 127
2, 55483, Note_off_c, 7, 67, 127
2, 55486, Note_on_c, 10, 69, 127
2, 55648, Note_off_c, 10, 69, 127
2, 55650, Note_on_c, 12, 71, 127
2, 55806, Note_off_c, 0, 48, 127
2, 55812, Note_off_c, 12, 71, 127
2, 55814, Note_on_c, 0, 72, 127
2, 55976, Note_off_c, 0, 72, 127
2, 55976, Note_off_c, 7, 55, 127
2, 55978, Note_on_c, 0, 60, 127
2, 55978, Note_on_c, 2, 74, 127
2, 56140, Note_off_c, 2, 74, 127
2, 56140, Note_off_c, 0, 60, 127
2, 56142, Note_on_c, 12, 59, 127
2, 56142, Note_on_c, 4, 76, 127
2, 56222, Note_off_c, 4, 76, 127
2, 56224, Note_on_c, 2, 74, 127
2, 56304, Note_off_c, 2, 74, 127
2, 56304, Note_off_c, 12, 59, 127
2, 56306, Note_on_c, 0, 60, 127
2, 56306, Note_on_c, 0, 72, 127
2, 56386, Note_off_c, 0, 72, 127
2, 56388, Note_on_c, 2, 74, 127
2, 56468, Note_off_c, 2, 74, 127
2, 56468, Note_off_c, 0, 60, 127
2, 56471, Note_on_c, 7, 55, 127
2, 56471, Note_on_c, 4, 76, 127
2, 56633, Note_off_c, 7, 55, 127
2, 56635, Note_on_c, 0, 60, 127
2, 56797, Note_off_c, 0, 60, 127
2, 56797, Note_off_c, 4, 76, 127
2, 56799, Note_on_c, 10, 57, 127
2, 56799, Note_on_c, 5, 77, 127
2, 56961, Note_off_c, 10, 57, 127
2, 56963, Note_on_c, 0, 60, 127
2, 57125, Note_off_c, 0, 60, 127
2, 57125, Note_off_c, 5, 77, 127
2, 57127, Note_on_c, 7, 55, 127
2, 57127, Note_on_c, 4, 76, 127
2, 57289, Note_off_c, 7, 55, 127
2, 57291, Note_on_c, 0, 60, 127
2, 57453, Note_off_c, 0, 60, 127
2, 57453, Note_off_c, 4, 76, 127
2, 57456, Note_on_c, 5, 53, 127
2, 57456, Note_on_c, 2, 74, 127
2, 57618, Note_off_c, 5, 53, 127
2, 57620, Note_on_c, 0, 60, 127
2, 57782, Note_off_c, 0, 60, 127
2, 57782, Note_off_c, 2, 74, 127
2, 57784, Note_on_c, 4, 52, 127
2, 57784, Note_on_c, 0, 72, 127
2, 57946, Note_off_c, 4, 52, 127
2, 57948, Note_on_c, 0, 60, 127
2, 58110, Note_off_c, 0, 60, 127
2, 58112, Note_on_c, 5, 53, 127
2, 58112, Note_on_c, 10, 81, 127
2, 58274, Note_off_c, 5, 53, 127
2, 58276, Note_on_c, 0, 60, 127
2, 58438, Note_off_c, 0, 60, 127
2, 58438, Note_off_c, 10, 81, 127
2, 58440, Note_on_c, 4, 52, 127
2, 58440, Note_on_c, 7, 79, 127
2, 58602, Note_off_c, 4, 52, 127
2, 58605, Note_on_c, 0, 60, 127
2, 58766, Note_off_c, 7, 79, 127
2, 58767, Note_off_c, 0, 60, 127
2, 58769, Note_on_c, 2, 50, 127
2, 58769, Note_on_c, 5, 77, 127
2, 58931, Note_off_c, 2, 50, 127
2, 58933, Note_on_c, 0, 60, 127
2, 59095, Note_off_c, 0, 60, 127
2, 59095, Note_off_c, 5, 77, 127
2, 59097, Note_on_c, 0, 48, 127
2, 59097, Note_on_c, 4, 76, 127
2, 59259, Note_off_c, 0, 48, 127
2, 59261, Note_on_c, 0, 60, 127
2, 59423, Note_off_c, 0, 60, 127
2, 59423, Note_off_c, 4, 76, 127
2, 59425, Note_off_c, 0, 72, 127
2, 59425, Note_on_c, 2, 50, 127
2, 59425, Note_on_c, 0, 72, 127
2, 59425, Note_on_c, 5, 77, 127
2, 59587, Note_off_c, 2, 50, 127
2, 59590, Note_on_c, 0, 60, 127
2, 59751, Note_off_c, 5, 77, 127
2, 59751, Note_off_c, 0, 72, 127
2, 59752, Note_off_c, 0, 60, 127
2, 59754, Note_on_c, 4, 52, 127
2, 59754, Note_on_c, 7, 79, 127
2, 59754, Note_on_c, 12, 71, 127
2, 59916, Note_off_c, 4, 52, 127
2, 59918, Note_on_c, 0, 60, 127
2, 60080, Note_off_c, 0, 60, 127
2, 60080, Note_off_c, 12, 71, 127
2, 60080, Note_off_c, 7, 79, 127
2, 60082, Note_on_c, 5, 53, 127
2, 60082, Note_on_c, 10, 69, 127
2, 60082, Note_on_c, 10, 81, 127
2, 60244, Note_off_c, 5, 53, 127
2, 60246, Note_on_c, 0, 60, 127
2, 60408, Note_off_c, 0, 60, 127
2, 60408, Note_off_c, 10, 81, 127
2, 60408, Note_off_c, 10, 69, 127
2, 60410, Note_on_c, 12, 59, 127
2, 60410, Note_on_c, 7, 55, 127
2, 60410, Note_on_c, 12, 71, 127
2, 60410, Note_on_c, 2, 74, 127
2, 60575, Note_on_c, 7, 67, 127
2, 60734, Note_off_c, 12, 71, 127
2, 60736, Note_off_c, 7, 55, 127
2, 60736, Note_off_c, 12, 59, 127
2, 60737, Note_off_c, 7, 67, 127
2, 60739, Note_on_c, 7, 43, 127
2, 60739, Note_on_c, 12, 71, 127
2, 60888, Note_off_c, 2, 74, 127
2, 60901, Note_off_c, 12, 71, 127
2, 60903, Note_on_c, 2, 74, 127
2, 61065, Note_off_c, 2, 74, 127
2, 61067, Note_on_c, 12, 71, 127
2, 61217, Note_off_c, 7, 43, 127
2, 61231, Note_on_c, 7, 67, 127
2, 61391, Note_off_c, 12, 71, 127
2, 61393, Note_off_c, 7, 67, 127
2, 61395, Note_on_c, 7, 55, 127
2, 61395, Note_on_c, 12, 71, 127
2, 61557, Note_off_c, 12, 71, 127
2, 61560, Note_on_c, 2, 74, 127
2, 61721, Note_off_c, 7, 55, 127
2, 61722, Note_off_c, 2, 74, 127
2, 61724, Note_on_c, 2, 50, 127
2, 61724, Note_on_c, 5, 77, 127
2, 61888, Note_on_c, 2, 62, 127
2, 62048, Note_off_c, 5, 77, 127
2, 62050, Note_off_c, 2, 62, 127
2, 62052, Note_on_c, 5, 65, 127
2, 62052, Note_on_c, 5, 77, 127
2, 62214, Note_off_c, 5, 65, 127
2, 62216, Note_on_c, 10, 69, 127
2, 62373, Note_off_c, 2, 50, 127
2, 62376, Note_off_c, 5, 77, 127
2, 62378, Note_off_c, 10, 69, 127
2, 62380, Note_on_c, 5, 65, 127
2, 62380, Note_on_c, 5, 77, 127
2, 62542, Note_off_c, 5, 65, 127
2, 62544, Note_on_c, 2, 62, 127
2, 62704, Note_off_c, 5, 77, 127
2, 62706, Note_off_c, 2, 62, 127
2, 62709, Note_on_c, 5, 65, 127
2, 62709, Note_on_c, 5, 77, 127
2, 62871, Note_off_c, 5, 65, 127
2, 62873, Note_on_c, 10, 69, 127
2, 63033, Note_off_c, 5, 77, 127
2, 63035, Note_off_c, 10, 69, 127
2, 63037, Note_on_c, 5, 77, 127
2, 63037, Note_on_c, 12, 71, 127
2, 63201, Note_on_c, 7, 55, 127
2, 63363, Note_off_c, 7, 55, 127
2, 63363, Note_off_c, 12, 71, 127
2, 63363, Note_off_c, 5, 77, 127
2, 63365, Note_on_c, 12, 59, 127
2, 63365, Note_on_c, 5, 77, 127
2, 63365, Note_on_c, 2, 74, 127
2, 63527, Note_off_c, 12, 59, 127
2, 63529, Note_on_c, 2, 62, 127
2, 63691, Note_off_c, 2, 62, 127
2, 63691, Note_off_c, 2, 74, 127
2, 63691, Note_off_c, 5, 77, 127
2, 63694, Note_on_c, 12, 59, 127
2, 63694, Note_on_c, 5, 77, 127
2, 63694, Note_on_c, 2, 74, 127
2, 63856, Note_off_c, 12, 59, 127
2, 63858, Note_on_c, 7, 55, 127
2, 64020, Note_off_c, 7, 55, 127
2, 64020, Note_off_c, 2, 74, 127
2, 64020, Note_off_c, 5, 77, 127
2, 64022, Note_on_c, 12, 59, 127
2, 64022, Note_on_c, 5, 77, 127
2, 64022, Note_on_c, 2, 74, 127
2, 64184, Note_off_c, 12, 59, 127
2, 64186, Note_on_c, 2, 62, 127
2, 64348, Note_off_c, 2, 74, 127
2, 64348, Note_off_c, 5, 77, 127
2, 64350, Note_on_c, 4, 76, 127
2, 64350, Note_on_c, 2, 74, 127
2, 64350, Note_on_c, 7, 67, 127
2, 64425, Note_off_c, 2, 62, 127
2, 64514, Note_on_c, 0, 48, 127
2, 64676, Note_off_c, 0, 48, 127
2, 64676, Note_off_c, 7, 67, 127
2, 64676, Note_off_c, 2, 74, 127
2, 64676, Note_off_c, 4, 76, 127
2, 64679, Note_on_c, 4, 52, 127
2, 64679, Note_on_c, 7, 67, 127
2, 64679, Note_on_c, 2, 74, 127
2, 64679, Note_on_c, 4, 76, 127
2, 64841, Note_off_c, 4, 52, 127
2, 64843, Note_on_c, 7, 55, 127
2, 65005, Note_off_c, 7, 55, 127
2, 65005, Note_off_c, 4, 76, 127
2, 65005, Note_off_c, 2, 74, 127
2, 65005, Note_off_c, 7, 67, 127
2, 65007, Note_on_c, 4, 52, 127
2, 65007, Note_on_c, 0, 72, 127
2, 65007, Note_on_c, 7, 67, 127
2, 65007, Note_on_c, 4, 76, 127
2, 65169, Note_off_c, 4, 52, 127
2, 65171, Note_on_c, 0, 48, 127
2, 65333, Note_off_c, 0, 48, 127
2, 65333, Note_off_c, 4, 76, 127
2, 65333, Note_off_c, 7, 67, 127
2, 65333, Note_off_c, 0, 72, 127
2, 65335, Note_on_c, 4, 52, 127
2, 65335, Note_on_c, 7, 67, 127
2, 65335, Note_on_c, 4, 76, 127
2, 65335, Note_on_c, 0, 72, 127
2, 65497, Note_off_c, 4, 52, 127
2, 65499, Note_on_c, 7, 55, 127
2, 65661, Note_off_c, 7, 55, 127
2, 65661, Note_off_c, 0, 72, 127
2, 65661, Note_off_c, 4, 76, 127
2, 65661, Note_off_c, 7, 67, 127
2, 65664, Note_on_c, 10, 57, 127
2, 65664, Note_on_c, 0, 72, 127
2, 65664, Note_on_c, 5, 65, 127
2, 65664, Note_on_c, 4, 76, 127
2, 65826, Note_off_c, 10, 57, 127
2, 65828, Note_on_c, 5, 41, 127
2, 65990, Note_off_c, 5, 41, 127
2, 65990, Note_off_c, 4, 76, 127
2, 65990, Note_off_c, 5, 65, 127
2, 65990, Note_off_c, 0, 72, 127
2, 65992, Note_on_c, 10, 45, 127
2, 65992, Note_on_c, 4, 76, 127
2, 65992, Note_on_c, 0, 72, 127
2, 65992, Note_on_c, 5, 65, 127
2, 66154, Note_off_c, 10, 45, 127
2, 66156, Note_on_c, 0, 48, 127
2, 66318, Note_off_c, 0, 48, 127
2, 66318, Note_off_c, 5, 65, 127
2, 66318, Note_off_c, 0, 72, 127
2, 66318, Note_off_c, 4, 76, 127
2, 66320, Note_on_c, 10, 45, 127
2, 66320, Note_on_c, 0, 72, 127
2, 66320, Note_on_c, 5, 65, 127
2, 66320, Note_on_c, 4, 76, 127
2, 66482, Note_off_c, 10, 45, 127
2, 66484, Note_on_c, 5, 41, 127
2, 66646, Note_off_c, 5, 41, 127
2, 66646, Note_off_c, 4, 76, 127
2, 66646, Note_off_c, 5, 65, 127
2, 66646, Note_off_c, 0, 72, 127
2, 66648, Note_on_c, 10, 45, 127
2, 66648, Note_on_c, 4, 76, 127
2, 66648, Note_on_c, 0, 72, 127
2, 66648, Note_on_c, 5, 65, 127
2, 66810, Note_off_c, 10, 45, 127
2, 66813, Note_on_c, 0, 48, 127
2, 66974, Note_off_c, 5, 65, 127
2, 66974, Note_off_c, 0, 72, 127
2, 66974, Note_off_c, 4, 76, 127
2, 66975, Note_off_c, 0, 48, 127
2, 66977, Note_on_c, 12, 47, 127
2, 66977, Note_on_c, 5, 65, 127
2, 66977, Note_on_c, 2, 74, 127
2, 66977, Note_on_c, 7, 67, 127
2, 67139, Note_off_c, 12, 47, 127
2, 67141, Note_on_c, 7, 43, 127
2, 67303, Note_off_c, 7, 43, 127
2, 67303, Note_off_c, 7, 67, 127
2, 67303, Note_off_c, 2, 74, 127
2, 67303, Note_off_c, 5, 65, 127
2, 67305, Note_on_c, 12, 47, 127
2, 67305, Note_on_c, 5, 65, 127
2, 67305, Note_on_c, 2, 74, 127
2, 67305, Note_on_c, 7, 67, 127
2, 67467, Note_off_c, 12, 47, 127
2, 67469, Note_on_c, 2, 50, 127
2, 67631, Note_off_c, 2, 50, 127
2, 67631, Note_off_c, 7, 67, 127
2, 67631, Note_off_c, 2, 74, 127
2, 67631, Note_off_c, 5, 65, 127
2, 67633, Note_on_c, 12, 47, 127
2, 67633, Note_on_c, 7, 67, 127
2, 67633, Note_on_c, 5, 65, 127
2, 67633, Note_on_c, 2, 74, 127
2, 67795, Note_off_c, 12, 47, 127
2, 67798, Note_on_c, 7, 43, 127
2, 67959, Note_off_c, 2, 74, 127
2, 67959, Note_off_c, 5, 65, 127
2, 67959, Note_off_c, 7, 67, 127
2, 67960, Note_off_c, 7, 43, 127
2, 67962, Note_on_c, 12, 47, 127
2, 67962, Note_on_c, 7, 67, 127
2, 67962, Note_on_c, 5, 65, 127
2, 67962, Note_on_c, 2, 74, 127
2, 68124, Note_off_c, 12, 47, 127
2, 68126, Note_on_c, 2, 50, 127
2, 68288, Note_off_c, 2, 50, 127
2, 68288, Note_off_c, 2, 74, 127
2, 68288, Note_off_c, 5, 65, 127
2, 68288, Note_off_c, 7, 67, 127
2, 68290, Note_on_c, 4, 40, 127
2, 68290, Note_on_c, 5, 65, 127
2, 68290, Note_on_c, 2, 74, 127
2, 68290, Note_on_c, 7, 67, 127
2, 68616, Note_off_c, 7, 67, 127
2, 68616, Note_off_c, 2, 74, 127
2, 68616, Note_off_c, 5, 65, 127
2, 68616, Note_off_c, 4, 40, 127
2, 68618, Note_on_c, 4, 52, 127
2, 68618, Note_on_c, 7, 67, 127
2, 68618, Note_on_c, 4, 64, 127
2, 68618, Note_on_c, 0, 72, 127
2, 68780, Note_off_c, 4, 52, 127
2, 68783, Note_on_c, 5, 53, 127
2, 68944, Note_off_c, 0, 72, 127
2, 68944, Note_off_c, 4, 64, 127
2, 68944, Note_off_c, 7, 67, 127
2, 68945, Note_off_c, 5, 53, 127
2, 68947, Note_on_c, 7, 55, 127
2, 68947, Note_on_c, 0, 72, 127
2, 68947, Note_on_c, 7, 67, 127
2, 68947, Note_on_c, 2, 62, 127
2, 69273, Note_off_c, 2, 62, 127
2, 69273, Note_off_c, 7, 67, 127
2, 69273, Note_off_c, 0, 72, 127
2, 69273, Note_off_c, 7, 55, 127
2, 69275, Note_on_c, 7, 43, 127
2, 69275, Note_on_c, 7, 67, 127
2, 69275, Note_on_c, 2, 62, 127
2, 69275, Note_on_c, 0, 72, 127
2, 69355, Note_off_c, 0, 72, 127
2, 69357, Note_on_c, 12, 71, 127
2, 69437, Note_off_c, 12, 71, 127
2, 69439, Note_on_c, 10, 69, 127
2, 69519, Note_off_c, 10, 69, 127
2, 69521, Note_on_c, 12, 71, 127
2, 69601, Note_off_c, 12, 71, 127
2, 69601, Note_off_c, 2, 62, 127
2, 69601, Note_off_c, 7, 67, 127
2, 69601, Note_off_c, 7, 43, 127
2, 69603, Note_on_c, 0, 36, 127
2, 69603, Note_on_c, 4, 64, 127
2, 69603, Note_on_c, 0, 72, 127
2, 69603, Note_on_c, 7, 67, 127
2, 69765, Note_off_c, 7, 67, 127
2, 69765, Note_off_c, 0, 72, 127
2, 69768, Note_on_c, 7, 55, 127
2, 69930, Note_off_c, 7, 55, 127
2, 69932, Note_on_c, 10, 57, 127
2, 70094, Note_off_c, 10, 57, 127
2, 70096, Note_on_c, 12, 59, 127
2, 70252, Note_off_c, 4, 64, 127
2, 70257, Note_off_c, 0, 36, 127
2, 70258, Note_off_c, 12, 59, 127
2, 70260, Note_on_c, 0, 48, 127
2, 70260, Note_on_c, 0, 60, 127
2, 70340, Note_off_c, 0, 48, 127
2, 70342, Note_on_c, 12, 47, 127
2, 70422, Note_off_c, 12, 47, 127
2, 70422, Note_off_c, 0, 60, 127
2, 70424, Note_on_c, 0, 48, 127
2, 70424, Note_on_c, 2, 62, 127
2, 70586, Note_off_c, 2, 62, 127
2, 70588, Note_on_c, 4, 64, 127
2, 70750, Note_off_c, 4, 64, 127
2, 70750, Note_off_c, 0, 48, 127
2, 70752, Note_on_c, 0, 48, 127
2, 70752, Note_on_c, 0, 60, 127
2, 70914, Note_off_c, 0, 60, 127
2, 70914, Note_off_c, 0, 48, 127
2, 70917, Note_on_c, 0, 48, 127
2, 70917, Note_on_c, 5, 65, 127
2, 71079, Note_off_c, 5, 65, 127
2, 71081, Note_on_c, 7, 67, 127
2, 71243, Note_off_c, 7, 67, 127
2, 71245, Note_on_c, 5, 65, 127
2, 71407, Note_off_c, 5, 65, 127
2, 71407, Note_off_c, 0, 48, 127
2, 71409, Note_on_c, 2, 50, 127
2, 71409, Note_on_c, 4, 64, 127
2, 71571, Note_off_c, 4, 64, 127
2, 71571, Note_off_c, 2, 50, 127
2, 71573, Note_on_c, 0, 48, 127
2, 71573, Note_on_c, 2, 62, 127
2, 71655, Note_on_c, 12, 47, 127
2, 71667, Note_off_c, 0, 48, 127
2, 71735, Note_off_c, 2, 62, 127
2, 71737, Note_on_c, 0, 48, 127
2, 71737, Note_on_c, 7, 67, 127
2, 71749, Note_off_c, 12, 47, 127
2, 71820, Note_on_c, 12, 47, 127
2, 71831, Note_off_c, 0, 48, 127
2, 71899, Note_off_c, 7, 67, 127
2, 71902, Note_on_c, 0, 48, 127
2, 71902, Note_on_c, 5, 65, 127
2, 71914, Note_off_c, 12, 47, 127
2, 71984, Note_on_c, 12, 47, 127
2, 71996, Note_off_c, 0, 48, 127
2, 72064, Note_off_c, 5, 65, 127
2, 72066, Note_on_c, 0, 48, 127
2, 72066, Note_on_c, 7, 67, 127
2, 72078, Note_off_c, 12, 47, 127
2, 72228, Note_off_c, 7, 67, 127
2, 72228, Note_off_c, 0, 48, 127
2, 72230, Note_on_c, 0, 48, 127
2, 72230, Note_on_c, 4, 64, 127
2, 72392, Note_off_c, 0, 48, 127
2, 72394, Note_on_c, 7, 43, 127
2, 72556, Note_off_c, 7, 43, 127
2, 72556, Note_off_c, 4, 64, 127
2, 72558, Note_on_c, 10, 45, 127
2, 72558, Note_on_c, 0, 60, 127
2, 72720, Note_off_c, 10, 45, 127
2, 72722, Note_on_c, 12, 47, 127
2, 72884, Note_off_c, 12, 47, 127
2, 72884, Note_off_c, 0, 60, 127
2, 72887, Note_on_c, 0, 48, 127
2, 72887, Note_on_c, 0, 72, 127
2, 73049, Note_off_c, 0, 48, 127
2, 73051, Note_on_c, 2, 50, 127
2, 73213, Note_off_c, 2, 50, 127
2, 73213, Note_off_c, 0, 72, 127
2, 73215, Note_on_c, 4, 52, 127
2, 73215, Note_on_c, 4, 64, 127
2, 73215, Note_on_c, 0, 72, 127
2, 73377, Note_off_c, 4, 52, 127
2, 73379, Note_on_c, 0, 48, 127
2, 73541, Note_off_c, 0, 48, 127
2, 73541, Note_off_c, 0, 72, 127
2, 73541, Note_off_c, 4, 64, 127
2, 73543, Note_on_c, 5, 53, 127
2, 73543, Note_on_c, 0, 72, 127
2, 73543, Note_on_c, 2, 62, 127
2, 73705, Note_off_c, 5, 53, 127
2, 73707, Note_on_c, 7, 55, 127
2, 73869, Note_off_c, 7, 55, 127
2, 73869, Note_off_c, 0, 72, 127
2, 73872, Note_on_c, 5, 53, 127
2, 73872, Note_on_c, 12, 71, 127
2, 74034, Note_off_c, 12, 71, 127
2, 74034, Note_off_c, 5, 53, 127
2, 74036, Note_on_c, 4, 52, 127
2, 74036, Note_on_c, 0, 72, 127
2, 74192, Note_off_c, 2, 62, 127
2, 74198, Note_off_c, 0, 72, 127
2, 74198, Note_off_c, 4, 52, 127
2, 74200, Note_on_c, 2, 50, 127
2, 74200, Note_on_c, 2, 74, 127
2, 74362, Note_off_c, 2, 50, 127
2, 74364, Note_on_c, 7, 55, 127
2, 74526, Note_off_c, 7, 55, 127
2, 74526, Note_off_c, 2, 74, 127
2, 74528, Note_on_c, 5, 53, 127
2, 74528, Note_on_c, 2, 74, 127
2, 74528, Note_on_c, 12, 71, 127
2, 74690, Note_off_c, 5, 53, 127
2, 74692, Note_on_c, 7, 55, 127
2, 74854, Note_off_c, 7, 55, 127
2, 74854, Note_off_c, 12, 71, 127
2, 74854, Note_off_c, 2, 74, 127
2, 74856, Note_on_c, 4, 52, 127
2, 74856, Note_on_c, 2, 74, 127
2, 74856, Note_on_c, 7, 67, 127
2, 75018, Note_off_c, 4, 52, 127
2, 75021, Note_on_c, 7, 55, 127
2, 75182, Note_off_c, 2, 74, 127
2, 75183, Note_off_c, 7, 55, 127
2, 75185, Note_on_c, 10, 57, 127
2, 75185, Note_on_c, 0, 72, 127
2, 75347, Note_off_c, 0, 72, 127
2, 75347, Note_off_c, 10, 57, 127
2, 75349, Note_on_c, 12, 59, 127
2, 75349, Note_on_c, 2, 74, 127
2, 75505, Note_off_c, 7, 67, 127
2, 75511, Note_off_c, 2, 74, 127
2, 75511, Note_off_c, 12, 59, 127
2, 75513, Note_on_c, 0, 60, 127
2, 75513, Note_on_c, 4, 76, 127
2, 75675, Note_off_c, 0, 60, 127
2, 75677, Note_on_c, 2, 62, 127
2, 75839, Note_off_c, 2, 62, 127
2, 75839, Note_off_c, 4, 76, 127
2, 75841, Note_on_c, 4, 64, 127
2, 75841, Note_on_c, 4, 76, 127
2, 75841, Note_on_c, 0, 72, 127
2, 76003, Note_off_c, 4, 64, 127
2, 76006, Note_on_c, 0, 60, 127
2, 76167, Note_off_c, 0, 72, 127
2, 76167, Note_off_c, 4, 76, 127
2, 76168, Note_off_c, 0, 60, 127
2, 76170, Note_on_c, 5, 65, 127
2, 76170, Note_on_c, 10, 69, 127
2, 76170, Note_on_c, 4, 76, 127
2, 76332, Note_off_c, 5, 65, 127
2, 76334, Note_on_c, 7, 67, 127
2, 76496, Note_off_c, 7, 67, 127
2, 76496, Note_off_c, 4, 76, 127
2, 76498, Note_on_c, 5, 65, 127
2, 76498, Note_on_c, 2, 74, 127
2, 76660, Note_off_c, 2, 74, 127
2, 76660, Note_off_c, 5, 65, 127
2, 76662, Note_on_c, 4, 64, 127
2, 76662, Note_on_c, 4, 76, 127
2, 76819, Note_off_c, 10, 69, 127
2, 76824, Note_off_c, 4, 76, 127
2, 76824, Note_off_c, 4, 64, 127
2, 76826, Note_on_c, 2, 62, 127
2, 76826, Note_on_c, 5, 77, 127
2, 76988, Note_off_c, 2, 62, 127
2, 76991, Note_on_c, 4, 64, 127
2, 77152, Note_off_c, 5, 77, 127
2, 77153, Note_off_c, 4, 64, 127
2, 77155, Note_on_c, 5, 65, 127
2, 77155, Note_on_c, 5, 77, 127
2, 77155, Note_on_c, 10, 69, 127
2, 77317, Note_off_c, 5, 65, 127
2, 77319, Note_on_c, 2, 62, 127
2, 77481, Note_off_c, 2, 62, 127
2, 77481, Note_off_c, 10, 69, 127
2, 77481, Note_off_c, 5, 77, 127
2, 77483, Note_on_c, 7, 67, 127
2, 77483, Note_on_c, 5, 77, 127
2, 77483, Note_on_c, 12, 71, 127
2, 77645, Note_off_c, 7, 67, 127
2, 77647, Note_on_c, 10, 69, 127
2, 77809, Note_off_c, 10, 69, 127
2, 77809, Note_off_c, 5, 77, 127
2, 77811, Note_on_c, 7, 67, 127
2, 77811, Note_on_c, 4, 76, 127
2, 77973, Note_off_c, 4, 76, 127
2, 77973, Note_off_c, 7, 67, 127
2, 77976, Note_on_c, 5, 65, 127
2, 77976, Note_on_c, 5, 77, 127
2, 78132, Note_off_c, 12, 71, 127
2, 78138, Note_off_c, 5, 77, 127
2, 78138, Note_off_c, 5, 65, 127
2, 78140, Note_on_c, 4, 64, 127
2, 78140, Note_on_c, 7, 79, 127
2, 78302, Note_off_c, 4, 64, 127
2, 78304, Note_on_c, 5, 65, 127
2, 78466, Note_off_c, 5, 65, 127
2, 78466, Note_off_c, 7, 79, 127
2, 78468, Note_on_c, 7, 67, 127
2, 78468, Note_on_c, 7, 79, 127
2, 78468, Note_on_c, 12, 71, 127
2, 78630, Note_off_c, 7, 67, 127
2, 78632, Note_on_c, 4, 64, 127
2, 78794, Note_off_c, 4, 64, 127
2, 78794, Note_off_c, 12, 71, 127
2, 78794, Note_off_c, 7, 79, 127
2, 78796, Note_on_c, 10, 69, 127
2, 78796, Note_on_c, 0, 72, 127
2, 78796, Note_on_c, 7, 79, 127
2, 78958, Note_off_c, 7, 79, 127
2, 78960, Note_on_c, 12, 83, 127
2, 79122, Note_off_c, 12, 83, 127
2, 79122, Note_off_c, 10, 69, 127
2, 79125, Note_on_c, 7, 67, 127
2, 79125, Note_on_c, 10, 81, 127
2, 79287, Note_off_c, 10, 81, 127
2, 79289, Note_on_c, 7, 79, 127
2, 79451, Note_off_c, 7, 79, 127
2, 79451, Note_off_c, 7, 67, 127
2, 79453, Note_on_c, 10, 69, 127
2, 79453, Note_on_c, 6, 78, 127
2, 79615, Note_off_c, 6, 78, 127
2, 79617, Note_on_c, 7, 79, 127
2, 79779, Note_off_c, 7, 79, 127
2, 79779, Note_off_c, 10, 69, 127
2, 79781, Note_on_c, 2, 62, 127
2, 79781, Note_on_c, 4, 76, 127
2, 79943, Note_off_c, 4, 76, 127
2, 79945, Note_on_c, 6, 78, 127
2, 80107, Note_off_c, 6, 78, 127
2, 80107, Note_off_c, 2, 62, 127
2, 80107, Note_off_c, 0, 72, 127
2, 80110, Note_on_c, 7, 67, 127
2, 80110, Note_on_c, 7, 79, 127
2, 80274, Note_on_c, 0, 72, 127
2, 80434, Note_off_c, 7, 79, 127
2, 80436, Note_off_c, 0, 72, 127
2, 80438, Note_on_c, 2, 74, 127
2, 80438, Note_on_c, 12, 71, 127
2, 80600, Note_off_c, 12, 71, 127
2, 80602, Note_on_c, 10, 69, 127
2, 80762, Note_off_c, 2, 74, 127
2, 80764, Note_off_c, 10, 69, 127
2, 80766, Note_on_c, 12, 71, 127
2, 80766, Note_on_c, 7, 79, 127
2, 80929, Note_off_c, 7, 67, 127
2, 80930, Note_on_c, 5, 65, 127
2, 81092, Note_off_c, 5, 65, 127
2, 81095, Note_on_c, 4, 64, 127
2, 81256, Note_off_c, 7, 79, 127
2, 81256, Note_off_c, 12, 71, 127
2, 81257, Note_off_c, 4, 64, 127
2, 81259, Note_on_c, 2, 62, 127
2, 81259, Note_on_c, 12, 71, 127
2, 81259, Note_on_c, 7, 79, 127
2, 81421, Note_off_c, 7, 79, 127
2, 81421, Note_off_c, 12, 71, 127
2, 81421, Note_off_c, 2, 62, 127
2, 81423, Note_on_c, 1, 61, 127
2, 81423, Note_on_c, 7, 79, 127
2, 81423, Note_on_c, 10, 69, 127
2, 81585, Note_off_c, 1, 61, 127
2, 81587, Note_on_c, 10, 57, 127
2, 81749, Note_off_c, 10, 57, 127
2, 81751, Note_on_c, 12, 59, 127
2, 81913, Note_off_c, 12, 59, 127
2, 81913, Note_off_c, 7, 79, 127
2, 81915, Note_on_c, 1, 61, 127
2, 81915, Note_on_c, 10, 81, 127
2, 82072, Note_off_c, 10, 69, 127
2, 82077, Note_off_c, 10, 81, 127
2, 82077, Note_off_c, 1, 61, 127
2, 82080, Note_on_c, 2, 62, 127
2, 82080, Note_on_c, 5, 77, 127
2, 82080, Note_on_c, 10, 69, 127
2, 82160, Note_off_c, 5, 77, 127
2, 82162, Note_on_c, 4, 76, 127
2, 82242, Note_off_c, 4, 76, 127
2, 82242, Note_off_c, 2, 62, 127
2, 82244, Note_on_c, 4, 64, 127
2, 82244, Note_on_c, 5, 77, 127
2, 82406, Note_off_c, 4, 64, 127
2, 82408, Note_on_c, 5, 65, 127
2, 82568, Note_off_c, 5, 77, 127
2, 82570, Note_off_c, 5, 65, 127
2, 82570, Note_off_c, 10, 69, 127
2, 82572, Note_on_c, 2, 62, 127
2, 82572, Note_on_c, 10, 69, 127
2, 82572, Note_on_c, 5, 77, 127
2, 82734, Note_off_c, 5, 77, 127
2, 82734, Note_off_c, 10, 69, 127
2, 82734, Note_off_c, 2, 62, 127
2, 82736, Note_on_c, 7, 67, 127
2, 82736, Note_on_c, 5, 77, 127
2, 82736, Note_on_c, 12, 71, 127
2, 82898, Note_off_c, 7, 67, 127
2, 82900, Note_on_c, 10, 69, 127
2, 83062, Note_off_c, 10, 69, 127
2, 83064, Note_on_c, 7, 67, 127
2, 83214, Note_off_c, 5, 77, 127
2, 83226, Note_off_c, 7, 67, 127
2, 83229, Note_on_c, 5, 65, 127
2, 83229, Note_on_c, 4, 76, 127
2, 83309, Note_off_c, 4, 76, 127
2, 83311, Note_on_c, 2, 74, 127
2, 83385, Note_off_c, 12, 71, 127
2, 83391, Note_off_c, 2, 74, 127
2, 83391, Note_off_c, 5, 65, 127
2, 83393, Note_on_c, 4, 64, 127
2, 83393, Note_on_c, 0, 72, 127
2, 83475, Note_on_c, 2, 74, 127
2, 83555, Note_off_c, 4, 64, 127
2, 83557, Note_on_c, 10, 69, 127
2, 83557, Note_on_c, 4, 76, 127
2, 83637, Note_off_c, 2, 74, 127
2, 83719, Note_off_c, 10, 69, 127
2, 83721, Note_on_c, 7, 67, 127
2, 83881, Note_off_c, 4, 76, 127
2, 83883, Note_off_c, 7, 67, 127
2, 83883, Note_off_c, 0, 72, 127
2, 83885, Note_on_c, 10, 69, 127
2, 83885, Note_on_c, 0, 72, 127
2, 83885, Note_on_c, 4, 76, 127
2, 84047, Note_off_c, 4, 76, 127
2, 84047, Note_off_c, 0, 72, 127
2, 84047, Note_off_c, 10, 69, 127
2, 84049, Note_on_c, 5, 65, 127
2, 84049, Note_on_c, 4, 76, 127
2, 84049, Note_on_c, 10, 69, 127
2, 84211, Note_off_c, 4, 76, 127
2, 84214, Note_on_c, 7, 79, 127
2, 84376, Note_off_c, 7, 79, 127
2, 84378, Note_on_c, 5, 77, 127
2, 84540, Note_off_c, 5, 77, 127
2, 84542, Note_on_c, 4, 76, 127
2, 84698, Note_off_c, 10, 69, 127
2, 84704, Note_off_c, 4, 76, 127
2, 84706, Note_on_c, 2, 74, 127
2, 84868, Note_off_c, 2, 74, 127
2, 84869, Note_off_c, 5, 65, 127
2, 84870, Note_on_c, 0, 72, 127
2, 85032, Note_off_c, 0, 72, 127
2, 85034, Note_on_c, 5, 53, 127
2, 85034, Note_on_c, 12, 71, 127
2, 85196, Note_off_c, 12, 71, 127
2, 85199, Note_on_c, 10, 69, 127
2, 85361, Note_off_c, 10, 69, 127
2, 85363, Note_on_c, 12, 71, 127
2, 85524, Note_off_c, 5, 53, 127
2, 85527, Note_on_c, 10, 57, 127
2, 85689, Note_off_c, 10, 57, 127
2, 85689, Note_off_c, 12, 71, 127
2, 85691, Note_on_c, 7, 55, 127
2, 85691, Note_on_c, 7, 67, 127
2, 85853, Note_off_c, 7, 55, 127
2, 85855, Note_on_c, 5, 53, 127
2, 86017, Note_off_c, 5, 53, 127
2, 86017, Note_off_c, 7, 67, 127
2, 86019, Note_on_c, 4, 52, 127
2, 86019, Note_on_c, 0, 72, 127
2, 86181, Note_off_c, 4, 52, 127
2, 86184, Note_on_c, 2, 50, 127
2, 86346, Note_off_c, 2, 50, 127
2, 86348, Note_on_c, 0, 48, 127
2, 86509, Note_off_c, 0, 72, 127
2, 86510, Note_off_c, 0, 48, 127
2, 86512, Note_on_c, 12, 47, 127
2, 86512, Note_on_c, 0, 72, 127
2, 86512, Note_on_c, 4, 64, 127
2, 86674, Note_off_c, 4, 64, 127
2, 86674, Note_off_c, 0, 72, 127
2, 86674, Note_off_c, 12, 47, 127
2, 86676, Note_on_c, 10, 45, 127
2, 86676, Note_on_c, 4, 64, 127
2, 86676, Note_on_c, 0, 72, 127
2, 86838, Note_off_c, 10, 45, 127
2, 86840, Note_on_c, 7, 43, 127
2, 87002, Note_off_c, 7, 43, 127
2, 87004, Note_on_c, 10, 45, 127
2, 87166, Note_off_c, 10, 45, 127
2, 87166, Note_off_c, 0, 72, 127
2, 87166, Note_off_c, 4, 64, 127
2, 87168, Note_on_c, 5, 41, 127
2, 87168, Note_on_c, 2, 74, 127
2, 87168, Note_on_c, 5, 65, 127
2, 87330, Note_off_c, 5, 65, 127
2, 87330, Note_off_c, 2, 74, 127
2, 87330, Note_off_c, 5, 41, 127
2, 87333, Note_on_c, 7, 43, 127
2, 87333, Note_on_c, 2, 62, 127
2, 87333, Note_on_c, 0, 72, 127
2, 87435, Note_on_c, 12, 71, 127
2, 87444, Note_off_c, 0, 72, 127
2, 87507, Note_on_c, 0, 72, 127
2, 87515, Note_off_c, 12, 71, 127
2, 87579, Note_on_c, 12, 71, 127
2, 87587, Note_off_c, 0, 72, 127
2, 87659, Note_off_c, 7, 43, 127
2, 87661, Note_on_c, 7, 55, 127
2, 87818, Note_off_c, 12, 71, 127
2, 87823, Note_off_c, 2, 62, 127
2, 87825, Note_on_c, 4, 64, 127
2, 87825, Note_on_c, 0, 72, 127
2, 87987, Note_off_c, 0, 72, 127
2, 87987, Note_off_c, 4, 64, 127
2, 87987, Note_off_c, 7, 55, 127
2, 87989, Note_on_c, 0, 36, 127
2, 87989, Note_on_c, 0, 72, 127
2, 87989, Note_on_c, 4, 64, 127
2, 88315, Note_off_c, 0, 36, 127
2, 88318, Note_on_c, 0, 48, 127
2, 88480, Note_off_c, 0, 48, 127
2, 88482, Note_on_c, 12, 47, 127
2, 88638, Note_off_c, 4, 64, 127
2, 88638, Note_off_c, 0, 72, 127
2, 88644, Note_off_c, 12, 47, 127
2, 88646, Note_on_c, 0, 48, 127
2, 88810, Note_on_c, 0, 72, 127
2, 88972, Note_off_c, 0, 72, 127
2, 88972, Note_off_c, 0, 48, 127
2, 88974, Note_on_c, 2, 50, 127
2, 88974, Note_on_c, 12, 71, 127
2, 89136, Note_off_c, 12, 71, 127
2, 89138, Note_on_c, 0, 72, 127
2, 89300, Note_off_c, 0, 72, 127
2, 89300, Note_off_c, 2, 50, 127
2, 89303, Note_on_c, 4, 52, 127
2, 89303, Note_on_c, 7, 67, 127
2, 89467, Note_on_c, 0, 72, 127
2, 89542, Note_off_c, 7, 67, 127
2, 89629, Note_off_c, 0, 72, 127
2, 89629, Note_off_c, 4, 52, 127
2, 89631, Note_on_c, 5, 53, 127
2, 89631, Note_on_c, 10, 69, 127
2, 89795, Note_on_c, 0, 72, 127
2, 89870, Note_off_c, 10, 69, 127
2, 89957, Note_off_c, 0, 72, 127
2, 89957, Note_off_c, 5, 53, 127
2, 89959, Note_on_c, 4, 52, 127
2, 89959, Note_on_c, 7, 67, 127
2, 90123, Note_on_c, 0, 72, 127
2, 90198, Note_off_c, 7, 67, 127
2, 90285, Note_off_c, 0, 72, 127
2, 90285, Note_off_c, 4, 52, 127
2, 90288, Note_on_c, 2, 50, 127
2, 90288, Note_on_c, 5, 65, 127
2, 90452, Note_on_c, 0, 72, 127
2, 90527, Note_off_c, 5, 65, 127
2, 90614, Note_off_c, 0, 72, 127
2, 90614, Note_off_c, 2, 50, 127
2, 90616, Note_on_c, 0, 48, 127
2, 90616, Note_on_c, 4, 64, 127
2, 90780, Note_on_c, 0, 72, 127
2, 90855, Note_off_c, 4, 64, 127
2, 90942, Note_off_c, 0, 72, 127
2, 90944, Note_on_c, 10, 57, 127
2, 90944, Note_on_c, 5, 65, 127
2, 91106, Note_off_c, 5, 65, 127
2, 91108, Note_on_c, 0, 72, 127
2, 91270, Note_off_c, 0, 72, 127
2, 91270, Note_off_c, 10, 57, 127
2, 91272, Note_on_c, 7, 55, 127
2, 91272, Note_on_c, 4, 64, 127
2, 91434, Note_off_c, 4, 64, 127
2, 91437, Note_on_c, 0, 72, 127
2, 91598, Note_off_c, 7, 55, 127
2, 91599, Note_off_c, 0, 72, 127
2, 91601, Note_on_c, 5, 53, 127
2, 91601, Note_on_c, 2, 62, 127
2, 91763, Note_off_c, 2, 62, 127
2, 91765, Note_on_c, 0, 72, 127
2, 91927, Note_off_c, 0, 72, 127
2, 91927, Note_off_c, 5, 53, 127
2, 91929, Note_on_c, 4, 52, 127
2, 91929, Note_on_c, 0, 60, 127
2, 92091, Note_off_c, 0, 60, 127
2, 92093, Note_on_c, 0, 72, 127
2, 92255, Note_off_c, 0, 72, 127
2, 92255, Note_off_c, 4, 52, 127
2, 92257, Note_off_c, 0, 48, 127
2, 92257, Note_on_c, 0, 48, 127
2, 92257, Note_on_c, 6, 54, 127
2, 92257, Note_on_c, 2, 62, 127
2, 92419, Note_off_c, 2, 62, 127
2, 92422, Note_on_c, 0, 72, 127
2, 92583, Note_off_c, 6, 54, 127
2, 92583, Note_off_c, 0, 48, 127
2, 92584, Note_off_c, 0, 72, 127
2, 92586, Note_on_c, 11, 46, 127
2, 92586, Note_on_c, 7, 55, 127
2, 92586, Note_on_c, 4, 64, 127
2, 92748, Note_off_c, 4, 64, 127
2, 92750, Note_on_c, 0, 72, 127
2, 92912, Note_off_c, 0, 72, 127
2, 92912, Note_off_c, 7, 55, 127
2, 92912, Note_off_c, 11, 46, 127
2, 92914, Note_on_c, 10, 45, 127
2, 92914, Note_on_c, 10, 57, 127
2, 92914, Note_on_c, 6, 66, 127
2, 93076, Note_off_c, 6, 66, 127
2, 93078, Note_on_c, 0, 72, 127
2, 93240, Note_off_c, 0, 72, 127
2, 93240, Note_off_c, 10, 57, 127
2, 93240, Note_off_c, 10, 45, 127
2, 93242, Note_on_c, 2, 50, 127
2, 93242, Note_on_c, 7, 43, 127
2, 93242, Note_on_c, 7, 67, 127
2, 93242, Note_on_c, 11, 70, 127
2, 93404, Note_off_c, 7, 67, 127
2, 93407, Note_on_c, 2, 62, 127
2, 93566, Note_off_c, 11, 70, 127
2, 93569, Note_off_c, 2, 62, 127
2, 93571, Note_on_c, 4, 64, 127
2, 93733, Note_off_c, 4, 64, 127
2, 93735, Note_on_c, 6, 66, 127
2, 93891, Note_off_c, 7, 43, 127
2, 93897, Note_off_c, 6, 66, 127
2, 93899, Note_on_c, 7, 67, 127
2, 94028, Note_off_c, 2, 50, 127
2, 94061, Note_off_c, 7, 67, 127
2, 94063, Note_on_c, 7, 55, 127
2, 94063, Note_on_c, 10, 69, 127
2, 94225, Note_off_c, 10, 69, 127
2, 94225, Note_off_c, 7, 55, 127
2, 94227, Note_on_c, 6, 54, 127
2, 94227, Note_on_c, 11, 70, 127
2, 94307, Note_off_c, 11, 70, 127
2, 94309, Note_on_c, 10, 69, 127
2, 94389, Note_off_c, 10, 69, 127
2, 94389, Note_off_c, 6, 54, 127
2, 94392, Note_on_c, 7, 55, 127
2, 94392, Note_on_c, 7, 67, 127
2, 94472, Note_off_c, 7, 67, 127
2, 94474, Note_on_c, 10, 69, 127
2, 94554, Note_off_c, 10, 69, 127
2, 94554, Note_off_c, 7, 55, 127
2, 94556, Note_on_c, 2, 50, 127
2, 94556, Note_on_c, 11, 70, 127
2, 94718, Note_off_c, 2, 50, 127
2, 94720, Note_on_c, 7, 55, 127
2, 94882, Note_off_c, 7, 55, 127
2, 94882, Note_off_c, 11, 70, 127
2, 94884, Note_on_c, 3, 51, 127
2, 94884, Note_on_c, 0, 72, 127
2, 95046, Note_off_c, 3, 51, 127
2, 95048, Note_on_c, 7, 55, 127
2, 95210, Note_off_c, 7, 55, 127
2, 95210, Note_off_c, 0, 72, 127
2, 95212, Note_on_c, 2, 50, 127
2, 95212, Note_on_c, 11, 70, 127
2, 95374, Note_off_c, 2, 50, 127
2, 95376, Note_on_c, 7, 55, 127
2, 95538, Note_off_c, 7, 55, 127
2, 95538, Note_off_c, 11, 70, 127
2, 95541, Note_on_c, 0, 48, 127
2, 95541, Note_on_c, 10, 69, 127
2, 95703, Note_off_c, 0, 48, 127
2, 95705, Note_on_c, 7, 55, 127
2, 95867, Note_off_c, 7, 55, 127
2, 95867, Note_off_c, 10, 69, 127
2, 95869, Note_on_c, 11, 46, 127
2, 95869, Note_on_c, 7, 67, 127
2, 96031, Note_off_c, 11, 46, 127
2, 96033, Note_on_c, 7, 55, 127
2, 96195, Note_off_c, 7, 55, 127
2, 96197, Note_on_c, 0, 48, 127
2, 96197, Note_on_c, 3, 75, 127
2, 96359, Note_off_c, 0, 48, 127
2, 96361, Note_on_c, 7, 55, 127
2, 96523, Note_off_c, 7, 55, 127
2, 96523, Note_off_c, 3, 75, 127
2, 96526, Note_on_c, 11, 46, 127
2, 96526, Note_on_c, 2, 74, 127
2, 96688, Note_off_c, 11, 46, 127
2, 96690, Note_on_c, 7, 55, 127
2, 96852, Note_off_c, 7, 55, 127
2, 96852, Note_off_c, 2, 74, 127
2, 96854, Note_on_c, 10, 45, 127
2, 96854, Note_on_c, 0, 72, 127
2, 97016, Note_off_c, 10, 45, 127
2, 97018, Note_on_c, 7, 55, 127
2, 97180, Note_off_c, 7, 55, 127
2, 97180, Note_off_c, 0, 72, 127
2, 97182, Note_on_c, 7, 43, 127
2, 97182, Note_on_c, 11, 70, 127
2, 97344, Note_off_c, 7, 43, 127
2, 97346, Note_on_c, 7, 55, 127
2, 97508, Note_off_c, 7, 55, 127
2, 97508, Note_off_c, 11, 70, 127
2, 97510, Note_off_c, 7, 67, 127
2, 97511, Note_on_c, 10, 45, 127
2, 97511, Note_on_c, 7, 67, 127
2, 97511, Note_on_c, 0, 72, 127
2, 97673, Note_off_c, 10, 45, 127
2, 97675, Note_on_c, 7, 55, 127
2, 97837, Note_off_c, 7, 55, 127
2, 97837, Note_off_c, 0, 72, 127
2, 97837, Note_off_c, 7, 67, 127
2, 97839, Note_on_c, 12, 47, 127
2, 97839, Note_on_c, 5, 65, 127
2, 97839, Note_on_c, 2, 74, 127
2, 98001, Note_off_c, 12, 47, 127
2, 98003, Note_on_c, 7, 55, 127
2, 98165, Note_off_c, 7, 55, 127
2, 98165, Note_off_c, 2, 74, 127
2, 98165, Note_off_c, 5, 65, 127
2, 98167, Note_on_c, 1, 49, 127
2, 98167, Note_on_c, 4, 64, 127
2, 98167, Note_on_c, 4, 76, 127
2, 98329, Note_off_c, 1, 49, 127
2, 98331, Note_on_c, 7, 55, 127
2, 98493, Note_off_c, 7, 55, 127
2, 98493, Note_off_c, 4, 76, 127
2, 98493, Note_off_c, 4, 64, 127
2, 98496, Note_on_c, 5, 53, 127
2, 98496, Note_on_c, 2, 62, 127
2, 98496, Note_on_c, 10, 69, 127
2, 98658, Note_off_c, 5, 53, 127
2, 98660, Note_on_c, 7, 55, 127
2, 98822, Note_off_c, 7, 55, 127
2, 98822, Note_off_c, 10, 69, 127
2, 98822, Note_off_c, 2, 62, 127
2, 98824, Note_on_c, 5, 53, 127
2, 98824, Note_on_c, 10, 69, 127
2, 98824, Note_on_c, 2, 62, 127
2, 98986, Note_off_c, 2, 62, 127
2, 98986, Note_off_c, 5, 53, 127
2, 98988, Note_on_c, 4, 52, 127
2, 98988, Note_on_c, 4, 64, 127
2, 99148, Note_off_c, 10, 69, 127
2, 99150, Note_off_c, 4, 64, 127
2, 99150, Note_off_c, 4, 52, 127
2, 99152, Note_on_c, 2, 50, 127
2, 99152, Note_on_c, 2, 74, 127
2, 99152, Note_on_c, 5, 65, 127
2, 99314, Note_off_c, 2, 50, 127
2, 99316, Note_on_c, 4, 52, 127
2, 99478, Note_off_c, 4, 52, 127
2, 99480, Note_on_c, 5, 53, 127
2, 99642, Note_off_c, 5, 53, 127
2, 99642, Note_off_c, 5, 65, 127
2, 99642, Note_off_c, 2, 74, 127
2, 99645, Note_on_c, 2, 50, 127
2, 99645, Note_on_c, 5, 65, 127
2, 99645, Note_on_c, 2, 74, 127
2, 99807, Note_off_c, 2, 74, 127
2, 99807, Note_off_c, 5, 65, 127
2, 99807, Note_off_c, 2, 50, 127
2, 99809, Note_on_c, 7, 55, 127
2, 99809, Note_on_c, 4, 64, 127
2, 99809, Note_on_c, 2, 74, 127
2, 99971, Note_off_c, 7, 55, 127
2, 99973, Note_on_c, 10, 57, 127
2, 100135, Note_off_c, 10, 57, 127
2, 100137, Note_on_c, 7, 55, 127
2, 100299, Note_off_c, 7, 55, 127
2, 100299, Note_off_c, 2, 74, 127
2, 100301, Note_on_c, 5, 53, 127
2, 100301, Note_on_c, 4, 76, 127
2, 100458, Note_off_c, 4, 64, 127
2, 100463, Note_off_c, 4, 76, 127
2, 100463, Note_off_c, 5, 53, 127
2, 100465, Note_on_c, 4, 52, 127
2, 100465, Note_on_c, 2, 74, 127
2, 100541, Note_on_c, 1, 73, 127
2, 100545, Note_off_c, 2, 74, 127
2, 100604, Note_on_c, 2, 74, 127
2, 100621, Note_off_c, 1, 73, 127
2, 100627, Note_off_c, 4, 52, 127
2, 100630, Note_on_c, 10, 57, 127
2, 100667, Note_on_c, 1, 73, 127
2, 100684, Note_off_c, 2, 74, 127
2, 100730, Note_on_c, 2, 74, 127
2, 100747, Note_off_c, 1, 73, 127
2, 100792, Note_off_c, 10, 57, 127
2, 100794, Note_on_c, 7, 55, 127
2, 100794, Note_on_c, 1, 73, 127
2, 100810, Note_off_c, 2, 74, 127
2, 100956, Note_off_c, 1, 73, 127
2, 100956, Note_off_c, 7, 55, 127
2, 100958, Note_on_c, 10, 57, 127
2, 100958, Note_on_c, 2, 74, 127
2, 101120, Note_off_c, 2, 74, 127
2, 101120, Note_off_c, 10, 57, 127
2, 101122, Note_on_c, 5, 53, 127
2, 101122, Note_on_c, 2, 74, 127
2, 101284, Note_off_c, 2, 74, 127
2, 101286, Note_on_c, 10, 69, 127
2, 101448, Note_off_c, 10, 69, 127
2, 101450, Note_on_c, 10, 57, 127
2, 101450, Note_on_c, 12, 71, 127
2, 101612, Note_off_c, 12, 71, 127
2, 101615, Note_on_c, 1, 73, 127
2, 101771, Note_off_c, 5, 53, 127
2, 101776, Note_off_c, 10, 57, 127
2, 101777, Note_off_c, 1, 73, 127
2, 101779, Note_on_c, 2, 62, 127
2, 101779, Note_on_c, 2, 74, 127
2, 101941, Note_off_c, 2, 74, 127
2, 101943, Note_on_c, 4, 76, 127
2, 102105, Note_off_c, 4, 76, 127
2, 102105, Note_off_c, 2, 62, 127
2, 102107, Note_on_c, 11, 58, 127
2, 102107, Note_on_c, 2, 62, 127
2, 102107, Note_on_c, 5, 77, 127
2, 102269, Note_off_c, 5, 77, 127
2, 102271, Note_on_c, 2, 74, 127
2, 102433, Note_off_c, 2, 74, 127
2, 102433, Note_off_c, 2, 62, 127
2, 102433, Note_off_c, 11, 58, 127
2, 102435, Note_on_c, 11, 58, 127
2, 102435, Note_on_c, 2, 62, 127
2, 102435, Note_on_c, 7, 79, 127
2, 102597, Note_off_c, 7, 79, 127
2, 102600, Note_on_c, 10, 81, 127
2, 102761, Note_off_c, 2, 62, 127
2, 102762, Note_off_c, 10, 81, 127
2, 102764, Note_on_c, 1, 61, 127
2, 102764, Note_on_c, 7, 79, 127
2, 102926, Note_off_c, 7, 79, 127
2, 102926, Note_off_c, 1, 61, 127
2, 102928, Note_on_c, 2, 62, 127
2, 102928, Note_on_c, 5, 77, 127
2, 103084, Note_off_c, 11, 58, 127
2, 103090, Note_off_c, 5, 77, 127
2, 103090, Note_off_c, 2, 62, 127
2, 103092, Note_on_c, 4, 64, 127
2, 103092, Note_on_c, 4, 76, 127
2, 103254, Note_off_c, 4, 76, 127
2, 103256, Note_on_c, 10, 81, 127
2, 103418, Note_off_c, 10, 81, 127
2, 103418, Note_off_c, 4, 64, 127
2, 103420, Note_on_c, 10, 57, 127
2, 103420, Note_on_c, 1, 61, 127
2, 103420, Note_on_c, 4, 64, 127
2, 103420, Note_on_c, 7, 79, 127
2, 103582, Note_off_c, 7, 79, 127
2, 103584, Note_on_c, 10, 81, 127
2, 103746, Note_off_c, 10, 81, 127
2, 103746, Note_off_c, 4, 64, 127
2, 103746, Note_off_c, 1, 61, 127
2, 103746, Note_off_c, 10, 57, 127
2, 103749, Note_on_c, 4, 64, 127
2, 103749, Note_on_c, 2, 50, 127
2, 103749, Note_on_c, 10, 57, 127
2, 103749, Note_on_c, 5, 77, 127
2, 103911, Note_off_c, 5, 77, 127
2, 103913, Note_on_c, 7, 79, 127
2, 104075, Note_off_c, 7, 79, 127
2, 104075, Note_off_c, 4, 64, 127
2, 104077, Note_on_c, 2, 62, 127
2, 104077, Note_on_c, 5, 77, 127
2, 104227, Note_off_c, 2, 50, 127
2, 104239, Note_off_c, 5, 77, 127
2, 104239, Note_off_c, 2, 62, 127
2, 104241, Note_on_c, 4, 64, 127
2, 104241, Note_on_c, 4, 76, 127
2, 104398, Note_off_c, 10, 57, 127
2, 104403, Note_off_c, 4, 76, 127
2, 104403, Note_off_c, 4, 64, 127
2, 104405, Note_on_c, 5, 65, 127
2, 104405, Note_on_c, 2, 74, 127
2, 104567, Note_off_c, 2, 74, 127
2, 104569, Note_on_c, 5, 77, 127
2, 104731, Note_off_c, 5, 77, 127
2, 104731, Note_off_c, 5, 65, 127
2, 104734, Note_on_c, 5, 65, 127
2, 104734, Note_on_c, 2, 62, 127
2, 104734, Note_on_c, 7, 79, 127
2, 104896, Note_off_c, 7, 79, 127
2, 104898, Note_on_c, 10, 81, 127
2, 105060, Note_off_c, 10, 81, 127
2, 105060, Note_off_c, 2, 62, 127
2, 105060, Note_off_c, 5, 65, 127
2, 105062, Note_on_c, 2, 62, 127
2, 105062, Note_on_c, 7, 55, 127
2, 105062, Note_on_c, 5, 65, 127
2, 105062, Note_on_c, 11, 82, 127
2, 105224, Note_off_c, 11, 82, 127
2, 105226, Note_on_c, 0, 84, 127
2, 105386, Note_off_c, 7, 55, 127
2, 105386, Note_off_c, 2, 62, 127
2, 105388, Note_off_c, 0, 84, 127
2, 105388, Note_off_c, 5, 65, 127
2, 105390, Note_on_c, 4, 64, 127
2, 105390, Note_on_c, 11, 82, 127
2, 105552, Note_off_c, 11, 82, 127
2, 105552, Note_off_c, 4, 64, 127
2, 105554, Note_on_c, 5, 65, 127
2, 105554, Note_on_c, 10, 81, 127
2, 105716, Note_off_c, 10, 81, 127
2, 105716, Note_off_c, 5, 65, 127
2, 105719, Note_on_c, 7, 67, 127
2, 105719, Note_on_c, 7, 79, 127
2, 105881, Note_off_c, 7, 79, 127
2, 105883, Note_on_c, 0, 84, 127
2, 106045, Note_off_c, 0, 84, 127
2, 106045, Note_off_c, 7, 67, 127
2, 106047, Note_on_c, 4, 64, 127
2, 106047, Note_on_c, 0, 60, 127
2, 106047, Note_on_c, 7, 67, 127
2, 106047, Note_on_c, 11, 82, 127
2, 106209, Note_off_c, 11, 82, 127
2, 106211, Note_on_c, 0, 84, 127
2, 106373, Note_off_c, 0, 84, 127
2, 106373, Note_off_c, 7, 67, 127
2, 106373, Note_off_c, 0, 60, 127
2, 106373, Note_off_c, 4, 64, 127
2, 106375, Note_on_c, 7, 67, 127
2, 106375, Note_on_c, 0, 60, 127
2, 106375, Note_on_c, 5, 53, 127
2, 106375, Note_on_c, 10, 81, 127
2, 106537, Note_off_c, 10, 81, 127
2, 106539, Note_on_c, 11, 82, 127
2, 106701, Note_off_c, 11, 82, 127
2, 106701, Note_off_c, 7, 67, 127
2, 106704, Note_on_c, 5, 65, 127
2, 106704, Note_on_c, 10, 81, 127
2, 106866, Note_off_c, 10, 81, 127
2, 106866, Note_off_c, 5, 65, 127
2, 106868, Note_on_c, 7, 67, 127
2, 106868, Note_on_c, 7, 79, 127
2, 107024, Note_off_c, 5, 53, 127
2, 107024, Note_off_c, 0, 60, 127
2, 107030, Note_off_c, 7, 79, 127
2, 107030, Note_off_c, 7, 67, 127
2, 107032, Note_on_c, 10, 69, 127
2, 107032, Note_on_c, 5, 77, 127
2, 107194, Note_off_c, 5, 77, 127
2, 107196, Note_on_c, 4, 76, 127
2, 107358, Note_off_c, 4, 76, 127
2, 107358, Note_off_c, 10, 69, 127
2, 107360, Note_on_c, 10, 69, 127
2, 107360, Note_on_c, 5, 65, 127
2, 107360, Note_on_c, 2, 74, 127
2, 107522, Note_off_c, 2, 74, 127
2, 107524, Note_on_c, 1, 73, 127
2, 107686, Note_off_c, 1, 73, 127
2, 107686, Note_off_c, 5, 65, 127
2, 107686, Note_off_c, 10, 69, 127
2, 107688, Note_on_c, 12, 59, 127
2, 107688, Note_on_c, 2, 74, 127
2, 107688, Note_on_c, 10, 69, 127
2, 107850, Note_off_c, 10, 69, 127
2, 107853, Note_on_c, 0, 72, 127
2, 108014, Note_off_c, 12, 59, 127
2, 108015, Note_off_c, 0, 72, 127
2, 108017, Note_on_c, 0, 60, 127
2, 108017, Note_on_c, 12, 71, 127
2, 108179, Note_off_c, 12, 71, 127
2, 108179, Note_off_c, 0, 60, 127
2, 108181, Note_on_c, 2, 62, 127
2, 108181, Note_on_c, 10, 69, 127
2, 108343, Note_off_c, 10, 69, 127
2, 108343, Note_off_c, 2, 62, 127
2, 108345, Note_on_c, 4, 64, 127
2, 108345, Note_on_c, 8, 68, 127
2, 108507, Note_off_c, 8, 68, 127
2, 108509, Note_on_c, 10, 69, 127
2, 108671, Note_off_c, 10, 69, 127
2, 108671, Note_off_c, 4, 64, 127
2, 108673, Note_on_c, 4, 52, 127
2, 108673, Note_on_c, 6, 66, 127
2, 108835, Note_off_c, 6, 66, 127
2, 108838, Note_on_c, 8, 68, 127
2, 108999, Note_off_c, 4, 52, 127
2, 108999, Note_off_c, 2, 74, 127
2, 109000, Note_off_c, 8, 68, 127
2, 109002, Note_on_c, 10, 57, 127
2, 109002, Note_on_c, 10, 69, 127
2, 109166, Note_on_c, 2, 74, 127
2, 109328, Note_off_c, 2, 74, 127
2, 109330, Note_on_c, 0, 72, 127
2, 109492, Note_off_c, 0, 72, 127
2, 109494, Note_on_c, 12, 71, 127
2, 109656, Note_off_c, 12, 71, 127
2, 109658, Note_on_c, 0, 72, 127
2, 109820, Note_off_c, 0, 72, 127
2, 109821, Note_off_c, 10, 57, 127
2, 109823, Note_on_c, 7, 55, 127
2, 109823, Note_on_c, 12, 71, 127
2, 109985, Note_off_c, 12, 71, 127
2, 109985, Note_off_c, 7, 55, 127
2, 109987, Note_on_c, 5, 53, 127
2, 109987, Note_on_c, 0, 72, 127
2, 110144, Note_off_c, 10, 69, 127
2, 110149, Note_off_c, 0, 72, 127
2, 110149, Note_off_c, 5, 53, 127
2, 110151, Note_on_c, 4, 52, 127
2, 110151, Note_on_c, 10, 69, 127
2, 110313, Note_off_c, 10, 69, 127
2, 110313, Note_off_c, 4, 52, 127
2, 110315, Note_on_c, 2, 50, 127
2, 110315, Note_on_c, 11, 70, 127
2, 110477, Note_off_c, 2, 50, 127
2, 110479, Note_on_c, 11, 46, 127
2, 110641, Note_off_c, 11, 46, 127
2, 110643, Note_on_c, 0, 48, 127
2, 110805, Note_off_c, 0, 48, 127
2, 110808, Note_on_c, 2, 50, 127
2, 110808, Note_on_c, 10, 69, 127
2, 110970, Note_off_c, 10, 69, 127
2, 110970, Note_off_c, 2, 50, 127
2, 110972, Note_on_c, 3, 51, 127
2, 110972, Note_on_c, 7, 67, 127
2, 111134, Note_off_c, 3, 51, 127
2, 111136, Note_on_c, 5, 53, 127
2, 111298, Note_off_c, 5, 53, 127
2, 111300, Note_on_c, 7, 55, 127
2, 111460, Note_off_c, 11, 70, 127
2, 111462, Note_off_c, 7, 55, 127
2, 111464, Note_on_c, 3, 51, 127
2, 111464, Note_on_c, 11, 70, 127
2, 111626, Note_off_c, 11, 70, 127
2, 111626, Note_off_c, 3, 51, 127
2, 111628, Note_on_c, 1, 49, 127
2, 111628, Note_on_c, 10, 69, 127
2, 111790, Note_off_c, 1, 49, 127
2, 111792, Note_on_c, 2, 50, 127
2, 111954, Note_off_c, 2, 50, 127
2, 111957, Note_on_c, 1, 49, 127
2, 112117, Note_off_c, 7, 67, 127
2, 112119, Note_off_c, 1, 49, 127
2, 112121, Note_on_c, 12, 47, 127
2, 112121, Note_on_c, 7, 67, 127
2, 112283, Note_off_c, 7, 67, 127
2, 112283, Note_off_c, 12, 47, 127
2, 112285, Note_on_c, 10, 45, 127
2, 112285, Note_on_c, 5, 65, 127
2, 112447, Note_off_c, 10, 45, 127
2, 112449, Note_on_c, 2, 50, 127
2, 112611, Note_off_c, 2, 50, 127
2, 112613, Note_on_c, 0, 48, 127
2, 112773, Note_off_c, 10, 69, 127
2, 112775, Note_off_c, 0, 48, 127
2, 112775, Note_off_c, 5, 65, 127
2, 112777, Note_on_c, 2, 50, 127
2, 112777, Note_on_c, 10, 69, 127
2, 112777, Note_on_c, 5, 65, 127
2, 112939, Note_off_c, 10, 69, 127
2, 112939, Note_off_c, 2, 50, 127
2, 112942, Note_on_c, 7, 43, 127
2, 112942, Note_on_c, 10, 69, 127
2, 113101, Note_off_c, 5, 65, 127
2, 113104, Note_off_c, 10, 69, 127
2, 113106, Note_on_c, 4, 64, 127
2, 113106, Note_on_c, 0, 72, 127
2, 113268, Note_off_c, 0, 72, 127
2, 113268, Note_off_c, 4, 64, 127
2, 113270, Note_on_c, 11, 70, 127
2, 113270, Note_on_c, 2, 62, 127
2, 113432, Note_off_c, 2, 62, 127
2, 113432, Note_off_c, 11, 70, 127
2, 113434, Note_on_c, 0, 60, 127
2, 113434, Note_on_c, 10, 69, 127
2, 113596, Note_off_c, 10, 69, 127
2, 113596, Note_off_c, 0, 60, 127
2, 113596, Note_off_c, 7, 43, 127
2, 113598, Note_on_c, 11, 58, 127
2, 113598, Note_on_c, 7, 67, 127
2, 113760, Note_off_c, 7, 67, 127
2, 113760, Note_off_c, 11, 58, 127
2, 113762, Note_on_c, 10, 57, 127
2, 113762, Note_on_c, 5, 65, 127
2, 113924, Note_off_c, 5, 65, 127
2, 113924, Note_off_c, 10, 57, 127
2, 113927, Note_on_c, 7, 55, 127
2, 113927, Note_on_c, 4, 64, 127
2, 114089, Note_off_c, 4, 64, 127
2, 114089, Note_off_c, 7, 55, 127
2, 114091, Note_on_c, 5, 53, 127
2, 114091, Note_on_c, 2, 62, 127
2, 114253, Note_off_c, 2, 62, 127
2, 114253, Note_off_c, 5, 53, 127
2, 114255, Note_on_c, 4, 52, 127
2, 114255, Note_on_c, 1, 61, 127
2, 114419, Note_on_c, 11, 46, 127
2, 114581, Note_off_c, 11, 46, 127
2, 114581, Note_off_c, 1, 61, 127
2, 114583, Note_on_c, 10, 45, 127
2, 114583, Note_on_c, 10, 57, 127
2, 114745, Note_off_c, 10, 45, 127
2, 114747, Note_on_c, 7, 43, 127
2, 114904, Note_off_c, 4, 52, 127
2, 114909, Note_off_c, 7, 43, 127
2, 114909, Note_off_c, 10, 57, 127
2, 114912, Note_on_c, 5, 41, 127
2, 114912, Note_on_c, 2, 62, 127
2, 114912, Note_on_c, 10, 69, 127
2, 114912, Note_on_c, 10, 57, 127
2, 115074, Note_off_c, 5, 41, 127
2, 115076, Note_on_c, 4, 40, 127
2, 115238, Note_off_c, 4, 40, 127
2, 115240, Note_on_c, 2, 38, 127
2, 115402, Note_off_c, 2, 38, 127
2, 115402, Note_off_c, 10, 57, 127
2, 115402, Note_off_c, 10, 69, 127
2, 115402, Note_off_c, 2, 62, 127
2, 115404, Note_on_c, 1, 37, 127
2, 115404, Note_on_c, 4, 64, 127
2, 115404, Note_on_c, 10, 57, 127
2, 115566, Note_off_c, 10, 57, 127
2, 115566, Note_off_c, 4, 64, 127
2, 115566, Note_off_c, 1, 37, 127
2, 115568, Note_on_c, 2, 38, 127
2, 115568, Note_on_c, 2, 62, 127
2, 115568, Note_on_c, 5, 65, 127
2, 115568, Note_on_c, 10, 57, 127
2, 115894, Note_off_c, 10, 57, 127
2, 115894, Note_off_c, 2, 38, 127
2, 115896, Note_on_c, 7, 43, 127
2, 115896, Note_on_c, 12, 59, 127
2, 116046, Note_off_c, 5, 65, 127
2, 116061, Note_on_c, 7, 67, 127
2, 116217, Note_off_c, 2, 62, 127
2, 116220, Note_off_c, 12, 59, 127
2, 116222, Note_off_c, 7, 43, 127
2, 116223, Note_off_c, 7, 67, 127
2, 116225, Note_on_c, 10, 45, 127
2, 116225, Note_on_c, 5, 65, 127
2, 116225, Note_on_c, 1, 61, 127
2, 116334, Note_on_c, 4, 64, 127
2, 116341, Note_off_c, 5, 65, 127
2, 116409, Note_on_c, 5, 65, 127
2, 116414, Note_off_c, 4, 64, 127
2, 116485, Note_on_c, 4, 64, 127
2, 116489, Note_off_c, 5, 65, 127
2, 116551, Note_off_c, 10, 45, 127
2, 116553, Note_on_c, 10, 45, 127
2, 116560, Note_on_c, 5, 65, 127
2, 116565, Note_off_c, 4, 64, 127
2, 116635, Note_on_c, 4, 64, 127
2, 116640, Note_off_c, 5, 65, 127
2, 116703, Note_off_c, 1, 61, 127
2, 116715, Note_off_c, 4, 64, 127
2, 116717, Note_on_c, 2, 62, 127
2, 116879, Note_off_c, 2, 62, 127
2, 116879, Note_off_c, 10, 45, 127
2, 116881, Note_on_c, 2, 38, 127
2, 116881, Note_on_c, 2, 62, 127
2, 117043, Note_off_c, 2, 62, 127
2, 117046, Note_on_c, 4, 64, 127
2, 117208, Note_off_c, 4, 64, 127
2, 117210, Note_on_c, 5, 65, 127
2, 117372, Note_off_c, 5, 65, 127
2, 117374, Note_on_c, 10, 69, 127
2, 117536, Note_off_c, 10, 69, 127
2, 117538, Note_on_c, 5, 65, 127
2, 117700, Note_off_c, 5, 65, 127
2, 117701, Note_off_c, 2, 38, 127
2, 117702, Note_on_c, 7, 67, 127
2, 117864, Note_off_c, 7, 67, 127
2, 117866, Note_on_c, 2, 62, 127
2, 117866, Note_on_c, 10, 69, 127
2, 118028, Note_off_c, 10, 69, 127
2, 118031, Note_on_c, 2, 74, 127
2, 118192, Note_off_c, 2, 62, 127
2, 118193, Note_off_c, 2, 74, 127
2, 118195, Note_on_c, 12, 59, 127
2, 118195, Note_on_c, 7, 67, 127
2, 118357, Note_off_c, 7, 67, 127
2, 118359, Note_on_c, 10, 69, 127
2, 118521, Note_off_c, 10, 69, 127
2, 118521, Note_off_c, 12, 59, 127
2, 118523, Note_on_c, 7, 55, 127
2, 118523, Note_on_c, 12, 71, 127
2, 118685, Note_off_c, 12, 71, 127
2, 118687, Note_on_c, 2, 74, 127
2, 118849, Note_off_c, 2, 74, 127
2, 118851, Note_on_c, 12, 71, 127
2, 119001, Note_off_c, 7, 55, 127
2, 119013, Note_off_c, 12, 71, 127
2, 119016, Note_on_c, 0, 72, 127
2, 119178, Note_off_c, 0, 72, 127
2, 119180, Note_on_c, 7, 55, 127
2, 119180, Note_on_c, 2, 74, 127
2, 119342, Note_off_c, 2, 74, 127
2, 119344, Note_on_c, 7, 79, 127
2, 119506, Note_off_c, 7, 79, 127
2, 119506, Note_off_c, 7, 55, 127
2, 119508, Note_on_c, 4, 52, 127
2, 119508, Note_on_c, 0, 60, 127
2, 119670, Note_off_c, 0, 60, 127
2, 119672, Note_on_c, 2, 62, 127
2, 119834, Note_off_c, 2, 62, 127
2, 119834, Note_off_c, 4, 52, 127
2, 119836, Note_on_c, 0, 48, 127
2, 119836, Note_on_c, 4, 64, 127
2, 119998, Note_off_c, 4, 64, 127
2, 120000, Note_on_c, 7, 67, 127
2, 120162, Note_off_c, 7, 67, 127
2, 120165, Note_on_c, 4, 64, 127
2, 120314, Note_off_c, 0, 48, 127
2, 120327, Note_off_c, 4, 64, 127
2, 120329, Note_on_c, 5, 65, 127
2, 120491, Note_off_c, 5, 65, 127
2, 120493, Note_on_c, 0, 60, 127
2, 120493, Note_on_c, 7, 67, 127
2, 120655, Note_off_c, 7, 67, 127
2, 120657, Note_on_c, 0, 72, 127
2, 120819, Note_off_c, 0, 72, 127
2, 120819, Note_off_c, 0, 60, 127
2, 120821, Note_on_c, 10, 57, 127
2, 120821, Note_on_c, 5, 65, 127
2, 120983, Note_off_c, 5, 65, 127
2, 120985, Note_on_c, 7, 67, 127
2, 121147, Note_off_c, 7, 67, 127
2, 121147, Note_off_c, 10, 57, 127
2, 121150, Note_on_c, 5, 53, 127
2, 121150, Note_on_c, 10, 69, 127
2, 121312, Note_off_c, 10, 69, 127
2, 121314, Note_on_c, 0, 72, 127
2, 121476, Note_off_c, 0, 72, 127
2, 121478, Note_on_c, 10, 69, 127
2, 121628, Note_off_c, 5, 53, 127
2, 121640, Note_off_c, 10, 69, 127
2, 121642, Note_on_c, 11, 70, 127
2, 121804, Note_off_c, 11, 70, 127
2, 121806, Note_on_c, 5, 53, 127
2, 121806, Note_on_c, 0, 72, 127
2, 121968, Note_off_c, 0, 72, 127
2, 121970, Note_on_c, 5, 77, 127
2, 122132, Note_off_c, 5, 77, 127
2, 122132, Note_off_c, 5, 53, 127
2, 122135, Note_on_c, 2, 50, 127
2, 122135, Note_on_c, 12, 59, 127
2, 122297, Note_off_c, 12, 59, 127
2, 122299, Note_on_c, 0, 60, 127
2, 122461, Note_off_c, 0, 60, 127
2, 122461, Note_off_c, 2, 50, 127
2, 122463, Note_on_c, 12, 47, 127
2, 122463, Note_on_c, 2, 62, 127
2, 122625, Note_off_c, 2, 62, 127
2, 122627, Note_on_c, 5, 65, 127
2, 122789, Note_off_c, 5, 65, 127
2, 122791, Note_on_c, 2, 62, 127
2, 122941, Note_off_c, 12, 47, 127
2, 122953, Note_off_c, 2, 62, 127
2, 122955, Note_on_c, 4, 64, 127
2, 123117, Note_off_c, 4, 64, 127
2, 123120, Note_on_c, 12, 59, 127
2, 123120, Note_on_c, 5, 65, 127
2, 123282, Note_off_c, 5, 65, 127
2, 123284, Note_on_c, 12, 71, 127
2, 123446, Note_off_c, 12, 71, 127
2, 123446, Note_off_c, 12, 59, 127
2, 123448, Note_on_c, 8, 56, 127
2, 123448, Note_on_c, 4, 64, 127
2, 123610, Note_off_c, 4, 64, 127
2, 123612, Note_on_c, 6, 66, 127
2, 123774, Note_off_c, 6, 66, 127
2, 123774, Note_off_c, 8, 56, 127
2, 123776, Note_on_c, 4, 52, 127
2, 123776, Note_on_c, 8, 68, 127
2, 123938, Note_off_c, 8, 68, 127
2, 123940, Note_on_c, 12, 71, 127
2, 124102, Note_off_c, 12, 71, 127
2, 124104, Note_on_c, 8, 68, 127
2, 124254, Note_off_c, 4, 52, 127
2, 124266, Note_off_c, 8, 68, 127
2, 124269, Note_on_c, 10, 69, 127
2, 124431, Note_off_c, 10, 69, 127
2, 124433, Note_on_c, 4, 52, 127
2, 124433, Note_on_c, 12, 71, 127
2, 124595, Note_off_c, 12, 71, 127
2, 124597, Note_on_c, 4, 76, 127
2, 124759, Note_off_c, 4, 76, 127
2, 124759, Note_off_c, 4, 52, 127
2, 124761, Note_on_c, 0, 48, 127
2, 124761, Note_on_c, 10, 69, 127
2, 124923, Note_off_c, 10, 69, 127
2, 124925, Note_on_c, 12, 71, 127
2, 125087, Note_off_c, 12, 71, 127
2, 125087, Note_off_c, 0, 48, 127
2, 125089, Note_on_c, 10, 45, 127
2, 125089, Note_on_c, 0, 72, 127
2, 125251, Note_off_c, 0, 72, 127
2, 125254, Note_on_c, 4, 76, 127
2, 125416, Note_off_c, 4, 76, 127
2, 125418, Note_on_c, 7, 67, 127
2, 125567, Note_off_c, 10, 45, 127
2, 125580, Note_off_c, 7, 67, 127
2, 125582, Note_on_c, 10, 69, 127
2, 125744, Note_off_c, 10, 69, 127
2, 125746, Note_on_c, 1, 49, 127
2, 125746, Note_on_c, 11, 70, 127
2, 125908, Note_off_c, 11, 70, 127
2, 125910, Note_on_c, 4, 76, 127
2, 126072, Note_off_c, 4, 76, 127
2, 126072, Note_off_c, 1, 49, 127
2, 126074, Note_on_c, 2, 50, 127
2, 126074, Note_on_c, 6, 66, 127
2, 126236, Note_off_c, 6, 66, 127
2, 126239, Note_on_c, 7, 67, 127
2, 126400, Note_off_c, 2, 50, 127
2, 126401, Note_off_c, 7, 67, 127
2, 126403, Note_on_c, 2, 38, 127
2, 126403, Note_on_c, 10, 69, 127
2, 126565, Note_off_c, 10, 69, 127
2, 126567, Note_on_c, 4, 76, 127
2, 126729, Note_off_c, 4, 76, 127
2, 126731, Note_on_c, 5, 65, 127
2, 126881, Note_off_c, 2, 38, 127
2, 126893, Note_off_c, 5, 65, 127
2, 126895, Note_on_c, 7, 67, 127
2, 127057, Note_off_c, 7, 67, 127
2, 127059, Note_on_c, 5, 53, 127
2, 127059, Note_on_c, 10, 69, 127
2, 127221, Note_off_c, 10, 69, 127
2, 127224, Note_on_c, 2, 74, 127
2, 127385, Note_off_c, 5, 53, 127
2, 127386, Note_off_c, 2, 74, 127
2, 127388, Note_on_c, 8, 44, 127
2, 127388, Note_on_c, 4, 64, 127
2, 127550, Note_off_c, 4, 64, 127
2, 127552, Note_on_c, 6, 66, 127
2, 127714, Note_off_c, 6, 66, 127
2, 127714, Note_off_c, 8, 44, 127
2, 127716, Note_on_c, 4, 52, 127
2, 127716, Note_on_c, 8, 68, 127
2, 127878, Note_off_c, 8, 68, 127
2, 127880, Note_on_c, 2, 74, 127
2, 128042, Note_off_c, 2, 74, 127
2, 128044, Note_on_c, 4, 64, 127
2, 128194, Note_off_c, 4, 52, 127
2, 128206, Note_off_c, 4, 64, 127
2, 128208, Note_on_c, 8, 68, 127
2, 128370, Note_off_c, 8, 68, 127
2, 128373, Note_on_c, 10, 57, 127
2, 128373, Note_on_c, 10, 69, 127
2, 128535, Note_off_c, 10, 69, 127
2, 128537, Note_on_c, 0, 72, 127
2, 128699, Note_off_c, 0, 72, 127
2, 128699, Note_off_c, 10, 57, 127
2, 128701, Note_on_c, 12, 59, 127
2, 128701, Note_on_c, 3, 63, 127
2, 128863, Note_off_c, 3, 63, 127
2, 128865, Note_on_c, 4, 64, 127
2, 129027, Note_off_c, 4, 64, 127
2, 129027, Note_off_c, 12, 59, 127
2, 129029, Note_on_c, 10, 57, 127
2, 129029, Note_on_c, 6, 66, 127
2, 129191, Note_off_c, 6, 66, 127
2, 129193, Note_on_c, 0, 72, 127
2, 129355, Note_off_c, 0, 72, 127
2, 129355, Note_off_c, 10, 57, 127
2, 129358, Note_on_c, 12, 59, 127
2, 129358, Note_on_c, 2, 62, 127
2, 129520, Note_off_c, 2, 62, 127
2, 129522, Note_on_c, 4, 64, 127
2, 129684, Note_off_c, 4, 64, 127
2, 129684, Note_off_c, 12, 59, 127
2, 129686, Note_on_c, 8, 56, 127
2, 129686, Note_on_c, 5, 65, 127
2, 129848, Note_off_c, 5, 65, 127
2, 129850, Note_on_c, 12, 71, 127
2, 130012, Note_off_c, 8, 56, 127
2, 130014, Note_on_c, 10, 57, 127
2, 130014, Note_on_c, 1, 61, 127
2, 130055, Note_off_c, 12, 71, 127
2, 130176, Note_off_c, 1, 61, 127
2, 130178, Note_on_c, 2, 62, 127
2, 130340, Note_off_c, 2, 62, 127
2, 130340, Note_off_c, 10, 57, 127
2, 130343, Note_on_c, 7, 55, 127
2, 130343, Note_on_c, 4, 64, 127
2, 130505, Note_off_c, 4, 64, 127
2, 130507, Note_on_c, 12, 71, 127
2, 130669, Note_off_c, 7, 55, 127
2, 130671, Note_on_c, 5, 53, 127
2, 130671, Note_on_c, 0, 60, 127
2, 130763, Note_off_c, 12, 71, 127
2, 130833, Note_off_c, 0, 60, 127
2, 130835, Note_on_c, 2, 62, 127
2, 130997, Note_off_c, 2, 62, 127
2, 130997, Note_off_c, 5, 53, 127
2, 130999, Note_on_c, 0, 48, 127
2, 130999, Note_on_c, 4, 64, 127
2, 131161, Note_off_c, 4, 64, 127
2, 131163, Note_on_c, 10, 69, 127
2, 131325, Note_off_c, 0, 48, 127
2, 131328, Note_on_c, 2, 50, 127
2, 131328, Note_on_c, 12, 59, 127
2, 131490, Note_off_c, 12, 59, 127
2, 131492, Note_on_c, 0, 60, 127
2, 131505, Note_off_c, 10, 69, 127
2, 131654, Note_off_c, 0, 60, 127
2, 131654, Note_off_c, 2, 50, 127
2, 131656, Note_on_c, 12, 47, 127
2, 131656, Note_on_c, 2, 62, 127
2, 131818, Note_off_c, 2, 62, 127
2, 131820, Note_on_c, 10, 69, 127
2, 131982, Note_off_c, 12, 47, 127
2, 131984, Note_on_c, 4, 52, 127
2, 131984, Note_on_c, 12, 59, 127
2, 132146, Note_off_c, 12, 59, 127
2, 132148, Note_on_c, 0, 60, 127
2, 132298, Note_off_c, 10, 69, 127
2, 132310, Note_off_c, 0, 60, 127
2, 132310, Note_off_c, 4, 52, 127
2, 132312, Note_on_c, 4, 40, 127
2, 132312, Note_on_c, 2, 62, 127
2, 132474, Note_off_c, 2, 62, 127
2, 132477, Note_on_c, 8, 68, 127
2, 132638, Note_off_c, 4, 40, 127
2, 132639, Note_off_c, 8, 68, 127
2, 132641, Note_on_c, 10, 45, 127
2, 132641, Note_on_c, 10, 69, 127
2, 132641, Note_on_c, 0, 60, 127
2, 132803, Note_off_c, 10, 45, 127
2, 132805, Note_on_c, 4, 52, 127
2, 132967, Note_off_c, 4, 52, 127
2, 132969, Note_on_c, 6, 54, 127
2, 133131, Note_off_c, 6, 54, 127
2, 133133, Note_on_c, 8, 56, 127
2, 133290, Note_off_c, 0, 60, 127
2, 133295, Note_off_c, 8, 56, 127
2, 133297, Note_on_c, 10, 57, 127
2, 133459, Note_off_c, 10, 57, 127
2, 133462, Note_on_c, 12, 59, 127
2, 133624, Note_off_c, 12, 59, 127
2, 133624, Note_off_c, 10, 69, 127
2, 133626, Note_on_c, 0, 60, 127
2, 133788, Note_off_c, 0, 60, 127
2, 133790, Note_on_c, 10, 57, 127
2, 133952, Note_off_c, 10, 57, 127
2, 133954, Note_on_c, 2, 62, 127
2, 134116, Note_off_c, 2, 62, 127
2, 134118, Note_on_c, 4, 64, 127
2, 134280, Note_off_c, 4, 64, 127
2, 134282, Note_on_c, 2, 62, 127
2, 134444, Note_off_c, 2, 62, 127
2, 134447, Note_on_c, 0, 60, 127
2, 134609, Note_off_c, 0, 60, 127
2, 134611, Note_on_c, 12, 59, 127
2, 134773, Note_off_c, 12, 59, 127
2, 134775, Note_on_c, 4, 64, 127
2, 134937, Note_off_c, 4, 64, 127
2, 134939, Note_on_c, 2, 62, 127
2, 135101, Note_off_c, 2, 62, 127
2, 135103, Note_on_c, 4, 64, 127
2, 135265, Note_off_c, 4, 64, 127
2, 135267, Note_on_c, 0, 60, 127
2, 135432, Note_on_c, 5, 77, 127
2, 135557, Note_off_c, 0, 60, 127
2, 135594, Note_off_c, 5, 77, 127
2, 135596, Note_on_c, 4, 52, 127
2, 135596, Note_on_c, 4, 76, 127
2, 135758, Note_off_c, 4, 76, 127
2, 135760, Note_on_c, 2, 74, 127
2, 135922, Note_off_c, 2, 74, 127
2, 135922, Note_off_c, 4, 52, 127
2, 135924, Note_on_c, 10, 57, 127
2, 135924, Note_on_c, 0, 72, 127
2, 136086, Note_off_c, 0, 72, 127
2, 136088, Note_on_c, 12, 71, 127
2, 136250, Note_off_c, 12, 71, 127
2, 136250, Note_off_c, 10, 57, 127
2, 136252, Note_on_c, 10, 57, 127
2, 136252, Note_on_c, 10, 69, 127
2, 136414, Note_off_c, 10, 69, 127
2, 136416, Note_on_c, 0, 72, 127
2, 136578, Note_off_c, 0, 72, 127
2, 136578, Note_off_c, 10, 57, 127
2, 136581, Note_on_c, 10, 57, 127
2, 136581, Note_on_c, 5, 65, 127
2, 136745, Note_on_c, 4, 76, 127
2, 136786, Note_off_c, 5, 65, 127
2, 136907, Note_off_c, 4, 76, 127
2, 136907, Note_off_c, 10, 57, 127
2, 136909, Note_on_c, 8, 56, 127
2, 136909, Note_on_c, 2, 74, 127
2, 137071, Note_off_c, 2, 74, 127
2, 137071, Note_off_c, 8, 56, 127
2, 137073, Note_on_c, 10, 57, 127
2, 137073, Note_on_c, 0, 72, 127
2, 137235, Note_off_c, 0, 72, 127
2, 137235, Note_off_c, 10, 57, 127
2, 137237, Note_on_c, 12, 59, 127
2, 137237, Note_on_c, 12, 71, 127
2, 137399, Note_off_c, 12, 71, 127
2, 137401, Note_on_c, 10, 69, 127
2, 137563, Note_off_c, 10, 69, 127
2, 137563, Note_off_c, 12, 59, 127
2, 137566, Note_on_c, 12, 59, 127
2, 137566, Note_on_c, 8, 68, 127
2, 137728, Note_off_c, 8, 68, 127
2, 137730, Note_on_c, 12, 71, 127
2, 137892, Note_off_c, 12, 71, 127
2, 137892, Note_off_c, 12, 59, 127
2, 137894, Note_on_c, 12, 59, 127
2, 137894, Note_on_c, 4, 64, 127
2, 138058, Note_on_c, 2, 74, 127
2, 138099, Note_off_c, 4, 64, 127
2, 138220, Note_off_c, 2, 74, 127
2, 138220, Note_off_c, 12, 59, 127
2, 138222, Note_on_c, 10, 57, 127
2, 138222, Note_on_c, 0, 72, 127
2, 138384, Note_off_c, 0, 72, 127
2, 138384, Note_off_c, 10, 57, 127
2, 138386, Note_on_c, 12, 59, 127
2, 138386, Note_on_c, 12, 71, 127
2, 138548, Note_off_c, 12, 71, 127
2, 138548, Note_off_c, 12, 59, 127
2, 138551, Note_on_c, 0, 60, 127
2, 138551, Note_on_c, 10, 69, 127
2, 138713, Note_off_c, 10, 69, 127
2, 138715, Note_on_c, 7, 67, 127
2, 138877, Note_off_c, 7, 67, 127
2, 138877, Note_off_c, 0, 60, 127
2, 138879, Note_on_c, 0, 60, 127
2, 138879, Note_on_c, 5, 65, 127
2, 139041, Note_off_c, 5, 65, 127
2, 139043, Note_on_c, 10, 69, 127
2, 139205, Note_off_c, 10, 69, 127
2, 139207, Note_on_c, 2, 62, 127
2, 139369, Note_off_c, 0, 60, 127
2, 139371, Note_on_c, 0, 60, 127
2, 139533, Note_off_c, 0, 60, 127
2, 139536, Note_on_c, 12, 59, 127
2, 139536, Note_on_c, 8, 68, 127
2, 139698, Note_off_c, 8, 68, 127
2, 139698, Note_off_c, 12, 59, 127
2, 139700, Note_on_c, 10, 57, 127
2, 139700, Note_on_c, 10, 69, 127
2, 139856, Note_off_c, 2, 62, 127
2, 139862, Note_off_c, 10, 69, 127
2, 139862, Note_off_c, 10, 57, 127
2, 139864, Note_on_c, 8, 56, 127
2, 139864, Note_on_c, 12, 71, 127
2, 140026, Note_off_c, 8, 56, 127
2, 140028, Note_on_c, 6, 54, 127
2, 140190, Note_off_c, 6, 54, 127
2, 140190, Note_off_c, 12, 71, 127
2, 140192, Note_on_c, 4, 52, 127
2, 140192, Note_on_c, 2, 62, 127
2, 140192, Note_on_c, 8, 68, 127
2, 140192, Note_on_c, 12, 71, 127
2, 140354, Note_off_c, 4, 52, 127
2, 140356, Note_on_c, 8, 56, 127
2, 140518, Note_off_c, 8, 56, 127
2, 140518, Note_off_c, 12, 71, 127
2, 140518, Note_off_c, 8, 68, 127
2, 140518, Note_off_c, 2, 62, 127
2, 140520, Note_on_c, 0, 48, 127
2, 140520, Note_on_c, 4, 64, 127
2, 140520, Note_on_c, 8, 68, 127
2, 140520, Note_on_c, 12, 71, 127
2, 140682, Note_off_c, 0, 48, 127
2, 140685, Note_on_c, 5, 53, 127
2, 140846, Note_off_c, 12, 71, 127
2, 140846, Note_off_c, 8, 68, 127
2, 140846, Note_off_c, 4, 64, 127
2, 140847, Note_off_c, 5, 53, 127
2, 140849, Note_on_c, 4, 52, 127
2, 140849, Note_on_c, 10, 69, 127
2, 141011, Note_off_c, 10, 69, 127
2, 141011, Note_off_c, 4, 52, 127
2, 141013, Note_on_c, 2, 50, 127
2, 141013, Note_on_c, 12, 71, 127
2, 141175, Note_off_c, 12, 71, 127
2, 141175, Note_off_c, 2, 50, 127
2, 141177, Note_on_c, 0, 48, 127
2, 141177, Note_on_c, 0, 72, 127
2, 141339, Note_off_c, 0, 48, 127
2, 141341, Note_on_c, 12, 47, 127
2, 141503, Note_off_c, 12, 47, 127
2, 141503, Note_off_c, 0, 72, 127
2, 141505, Note_on_c, 10, 45, 127
2, 141505, Note_on_c, 4, 64, 127
2, 141505, Note_on_c, 0, 72, 127
2, 141505, Note_on_c, 10, 69, 127
2, 141667, Note_off_c, 10, 45, 127
2, 141670, Note_on_c, 0, 48, 127
2, 141831, Note_off_c, 10, 69, 127
2, 141831, Note_off_c, 0, 72, 127
2, 141831, Note_off_c, 4, 64, 127
2, 141832, Note_off_c, 0, 48, 127
2, 141834, Note_on_c, 6, 42, 127
2, 141834, Note_on_c, 10, 69, 127
2, 141834, Note_on_c, 0, 72, 127
2, 141834, Note_on_c, 2, 62, 127
2, 141996, Note_off_c, 6, 42, 127
2, 141998, Note_on_c, 4, 52, 127
2, 142160, Note_off_c, 4, 52, 127
2, 142160, Note_off_c, 0, 72, 127
2, 142160, Note_off_c, 10, 69, 127
2, 142162, Note_on_c, 2, 50, 127
2, 142162, Note_on_c, 12, 71, 127
2, 142162, Note_on_c, 8, 68, 127
2, 142324, Note_off_c, 8, 68, 127
2, 142324, Note_off_c, 12, 71, 127
2, 142324, Note_off_c, 2, 50, 127
2, 142326, Note_on_c, 0, 48, 127
2, 142326, Note_on_c, 10, 69, 127
2, 142326, Note_on_c, 0, 72, 127
2, 142483, Note_off_c, 2, 62, 127
2, 142488, Note_off_c, 0, 72, 127
2, 142488, Note_off_c, 10, 69, 127
2, 142488, Note_off_c, 0, 48, 127
2, 142490, Note_on_c, 12, 47, 127
2, 142490, Note_on_c, 12, 71, 127
2, 142490, Note_on_c, 2, 74, 127
2, 142652, Note_off_c, 12, 47, 127
2, 142655, Note_on_c, 10, 45, 127
2, 142816, Note_off_c, 2, 74, 127
2, 142816, Note_off_c, 12, 71, 127
2, 142817, Note_off_c, 10, 45, 127
2, 142819, Note_on_c, 8, 44, 127
2, 142819, Note_on_c, 2, 74, 127
2, 142819, Note_on_c, 12, 71, 127
2, 142819, Note_on_c, 5, 65, 127
2, 142981, Note_off_c, 8, 44, 127
2, 142983, Note_on_c, 12, 47, 127
2, 143145, Note_off_c, 12, 47, 127
2, 143145, Note_off_c, 5, 65, 127
2, 143145, Note_off_c, 12, 71, 127
2, 143145, Note_off_c, 2, 74, 127
2, 143147, Note_on_c, 4, 40, 127
2, 143147, Note_on_c, 4, 64, 127
2, 143147, Note_on_c, 2, 74, 127
2, 143147, Note_on_c, 12, 71, 127
2, 143473, Note_off_c, 12, 71, 127
2, 143473, Note_off_c, 2, 74, 127
2, 143473, Note_off_c, 4, 40, 127
2, 143475, Note_on_c, 0, 48, 127
2, 143475, Note_on_c, 0, 72, 127
2, 143475, Note_on_c, 10, 69, 127
2, 143637, Note_off_c, 10, 69, 127
2, 143637, Note_off_c, 0, 72, 127
2, 143637, Note_off_c, 0, 48, 127
2, 143640, Note_on_c, 2, 50, 127
2, 143640, Note_on_c, 12, 71, 127
2, 143796, Note_off_c, 4, 64, 127
2, 143802, Note_off_c, 12, 71, 127
2, 143802, Note_off_c, 2, 50, 127
2, 143804, Note_on_c, 4, 52, 127
2, 143804, Note_on_c, 0, 72, 127
2, 143804, Note_on_c, 8, 68, 127
2, 143884, Note_off_c, 0, 72, 127
2, 143886, Note_on_c, 12, 71, 127
2, 143966, Note_off_c, 12, 71, 127
2, 143968, Note_on_c, 0, 72, 127
2, 144048, Note_off_c, 0, 72, 127
2, 144050, Note_on_c, 12, 71, 127
2, 144130, Note_off_c, 12, 71, 127
2, 144130, Note_off_c, 4, 52, 127
2, 144132, Note_on_c, 4, 40, 127
2, 144132, Note_on_c, 0, 72, 127
2, 144212, Note_off_c, 0, 72, 127
2, 144214, Note_on_c, 12, 71, 127
2, 144282, Note_off_c, 8, 68, 127
2, 144294, Note_off_c, 12, 71, 127
2, 144296, Note_on_c, 10, 69, 127
2, 144458, Note_off_c, 10, 69, 127
2, 144458, Note_off_c, 4, 40, 127
2, 144460, Note_on_c, 10, 45, 127
2, 144460, Note_on_c, 10, 69, 127
2, 144622, Note_off_c, 10, 69, 127
2, 144624, Note_on_c, 10, 69, 127
2, 144786, Note_off_c, 10, 69, 127
2, 144786, Note_off_c, 10, 45, 127
2, 144789, Note_on_c, 10, 57, 127
2, 144789, Note_on_c, 0, 72, 127
2, 144951, Note_off_c, 0, 72, 127
2, 144953, Note_on_c, 4, 76, 127
2, 145115, Note_off_c, 4, 76, 127
2, 145115, Note_off_c, 10, 57, 127
2, 145117, Note_on_c, 10, 57, 127
2, 145117, Note_on_c, 0, 72, 127
2, 145279, Note_off_c, 0, 72, 127
2, 145281, Note_on_c, 10, 69, 127
2, 145443, Note_off_c, 10, 69, 127
2, 145443, Note_off_c, 10, 57, 127
2, 145445, Note_on_c, 7, 55, 127
2, 145445, Note_on_c, 0, 72, 127
2, 145607, Note_off_c, 0, 72, 127
2, 145609, Note_on_c, 4, 76, 127
2, 145771, Note_off_c, 7, 55, 127
2, 145774, Note_on_c, 5, 53, 127
2, 145774, Note_on_c, 10, 81, 127
2, 145781, Note_off_c, 4, 76, 127
2, 145938, Note_on_c, 5, 65, 127
2, 146098, Note_off_c, 10, 81, 127
2, 146102, Note_on_c, 10, 69, 127
2, 146102, Note_on_c, 10, 81, 127
2, 146262, Note_off_c, 5, 65, 127
2, 146264, Note_off_c, 10, 69, 127
2, 146266, Note_on_c, 0, 72, 127
2, 146423, Note_off_c, 5, 53, 127
2, 146426, Note_off_c, 10, 81, 127
2, 146428, Note_off_c, 0, 72, 127
2, 146430, Note_on_c, 10, 69, 127
2, 146430, Note_on_c, 10, 81, 127
2, 146592, Note_off_c, 10, 69, 127
2, 146594, Note_on_c, 5, 65, 127
2, 146754, Note_off_c, 10, 81, 127
2, 146756, Note_off_c, 5, 65, 127
2, 146759, Note_on_c, 10, 69, 127
2, 146759, Note_on_c, 10, 81, 127
2, 146921, Note_off_c, 10, 69, 127
2, 146923, Note_on_c, 0, 72, 127
2, 147083, Note_off_c, 10, 81, 127
2, 147085, Note_off_c, 0, 72, 127
2, 147087, Note_on_c, 10, 81, 127
2, 147087, Note_on_c, 2, 74, 127
2, 147251, Note_on_c, 11, 58, 127
2, 147413, Note_off_c, 11, 58, 127
2, 147413, Note_off_c, 2, 74, 127
2, 147413, Note_off_c, 10, 81, 127
2, 147415, Note_on_c, 2, 62, 127
2, 147415, Note_on_c, 5, 77, 127
2, 147415, Note_on_c, 10, 81, 127
2, 147577, Note_off_c, 2, 62, 127
2, 147579, Note_on_c, 5, 65, 127
2, 147741, Note_off_c, 5, 65, 127
2, 147741, Note_off_c, 10, 81, 127
2, 147741, Note_off_c, 5, 77, 127
2, 147744, Note_on_c, 2, 62, 127
2, 147744, Note_on_c, 10, 81, 127
2, 147744, Note_on_c, 5, 77, 127
2, 147906, Note_off_c, 2, 62, 127
2, 147908, Note_on_c, 11, 58, 127
2, 148070, Note_off_c, 11, 58, 127
2, 148070, Note_off_c, 5, 77, 127
2, 148070, Note_off_c, 10, 81, 127
2, 148072, Note_on_c, 2, 62, 127
2, 148072, Note_on_c, 10, 81, 127
2, 148072, Note_on_c, 5, 77, 127
2, 148234, Note_off_c, 2, 62, 127
2, 148236, Note_on_c, 5, 65, 127
2, 148398, Note_off_c, 5, 77, 127
2, 148398, Note_off_c, 10, 81, 127
2, 148400, Note_on_c, 5, 77, 127
2, 148400, Note_on_c, 7, 67, 127
2, 148400, Note_on_c, 7, 79, 127
2, 148475, Note_off_c, 5, 65, 127
2, 148564, Note_on_c, 4, 52, 127
2, 148726, Note_off_c, 4, 52, 127
2, 148726, Note_off_c, 7, 79, 127
2, 148726, Note_off_c, 7, 67, 127
2, 148726, Note_off_c, 5, 77, 127
2, 148728, Note_on_c, 7, 55, 127
2, 148728, Note_on_c, 7, 79, 127
2, 148728, Note_on_c, 5, 77, 127
2, 148728, Note_on_c, 11, 70, 127
2, 148890, Note_off_c, 7, 55, 127
2, 148893, Note_on_c, 11, 58, 127
2, 149054, Note_off_c, 11, 70, 127
2, 149054, Note_off_c, 5, 77, 127
2, 149054, Note_off_c, 7, 79, 127
2, 149055, Note_off_c, 11, 58, 127
2, 149057, Note_on_c, 7, 55, 127
2, 149057, Note_on_c, 11, 70, 127
2, 149057, Note_on_c, 4, 76, 127
2, 149057, Note_on_c, 7, 79, 127
2, 149219, Note_off_c, 7, 55, 127
2, 149221, Note_on_c, 4, 52, 127
2, 149383, Note_off_c, 4, 52, 127
2, 149383, Note_off_c, 7, 79, 127
2, 149383, Note_off_c, 4, 76, 127
2, 149383, Note_off_c, 11, 70, 127
2, 149385, Note_on_c, 7, 55, 127
2, 149385, Note_on_c, 4, 76, 127
2, 149385, Note_on_c, 11, 70, 127
2, 149385, Note_on_c, 7, 79, 127
2, 149547, Note_off_c, 7, 55, 127
2, 149549, Note_on_c, 11, 58, 127
2, 149711, Note_off_c, 11, 58, 127
2, 149711, Note_off_c, 7, 79, 127
2, 149711, Note_off_c, 11, 70, 127
2, 149711, Note_off_c, 4, 76, 127
2, 149713, Note_on_c, 1, 61, 127
2, 149713, Note_on_c, 4, 76, 127
2, 149713, Note_on_c, 10, 69, 127
2, 149713, Note_on_c, 7, 79, 127
2, 149875, Note_off_c, 1, 61, 127
2, 149878, Note_on_c, 10, 45, 127
2, 150039, Note_off_c, 7, 79, 127
2, 150039, Note_off_c, 10, 69, 127
2, 150039, Note_off_c, 4, 76, 127
2, 150040, Note_off_c, 10, 45, 127
2, 150042, Note_on_c, 1, 49, 127
2, 150042, Note_on_c, 4, 76, 127
2, 150042, Note_on_c, 10, 69, 127
2, 150042, Note_on_c, 7, 79, 127
2, 150204, Note_off_c, 1, 49, 127
2, 150206, Note_on_c, 4, 52, 127
2, 150368, Note_off_c, 4, 52, 127
2, 150368, Note_off_c, 7, 79, 127
2, 150368, Note_off_c, 10, 69, 127
2, 150368, Note_off_c, 4, 76, 127
2, 150370, Note_on_c, 1, 49, 127
2, 150370, Note_on_c, 4, 76, 127
2, 150370, Note_on_c, 10, 69, 127
2, 150370, Note_on_c, 7, 79, 127
2, 150532, Note_off_c, 1, 49, 127
2, 150534, Note_on_c, 10, 45, 127
2, 150696, Note_off_c, 10, 45, 127
2, 150696, Note_off_c, 7, 79, 127
2, 150696, Note_off_c, 10, 69, 127
2, 150696, Note_off_c, 4, 76, 127
2, 150698, Note_on_c, 1, 49, 127
2, 150698, Note_on_c, 4, 76, 127
2, 150698, Note_on_c, 10, 69, 127
2, 150698, Note_on_c, 7, 79, 127
2, 150860, Note_off_c, 1, 49, 127
2, 150863, Note_on_c, 4, 52, 127
2, 151024, Note_off_c, 7, 79, 127
2, 151024, Note_off_c, 10, 69, 127
2, 151024, Note_off_c, 4, 76, 127
2, 151025, Note_off_c, 4, 52, 127
2, 151027, Note_on_c, 5, 53, 127
2, 151027, Note_on_c, 10, 69, 127
2, 151027, Note_on_c, 7, 79, 127
2, 151027, Note_on_c, 4, 76, 127
2, 151189, Note_off_c, 5, 53, 127
2, 151191, Note_on_c, 2, 38, 127
2, 151353, Note_off_c, 2, 38, 127
2, 151353, Note_off_c, 4, 76, 127
2, 151353, Note_off_c, 7, 79, 127
2, 151355, Note_on_c, 5, 41, 127
2, 151355, Note_on_c, 5, 77, 127
2, 151355, Note_on_c, 2, 74, 127
2, 151517, Note_off_c, 5, 41, 127
2, 151519, Note_on_c, 10, 45, 127
2, 151676, Note_off_c, 10, 69, 127
2, 151681, Note_off_c, 10, 45, 127
2, 151681, Note_off_c, 2, 74, 127
2, 151681, Note_off_c, 5, 77, 127
2, 151683, Note_on_c, 5, 41, 127
2, 151683, Note_on_c, 5, 77, 127
2, 151683, Note_on_c, 10, 69, 127
2, 151683, Note_on_c, 2, 74, 127
2, 151845, Note_off_c, 5, 41, 127
2, 151848, Note_on_c, 2, 38, 127
2, 152009, Note_off_c, 2, 74, 127
2, 152009, Note_off_c, 10, 69, 127
2, 152009, Note_off_c, 5, 77, 127
2, 152010, Note_off_c, 2, 38, 127
2, 152012, Note_on_c, 5, 41, 127
2, 152012, Note_on_c, 5, 77, 127
2, 152012, Note_on_c, 2, 74, 127
2, 152012, Note_on_c, 10, 69, 127
2, 152174, Note_off_c, 5, 41, 127
2, 152176, Note_on_c, 10, 45, 127
2, 152338, Note_off_c, 10, 45, 127
2, 152338, Note_off_c, 10, 69, 127
2, 152338, Note_off_c, 2, 74, 127
2, 152338, Note_off_c, 5, 77, 127
2, 152340, Note_on_c, 11, 46, 127
2, 152340, Note_on_c, 2, 74, 127
2, 152340, Note_on_c, 5, 77, 127
2, 152340, Note_on_c, 7, 67, 127
2, 152502, Note_off_c, 7, 67, 127
2, 152504, Note_on_c, 7, 67, 127
2, 152666, Note_off_c, 7, 67, 127
2, 152668, Note_on_c, 11, 70, 127
2, 152784, Note_off_c, 2, 74, 127
2, 152830, Note_off_c, 11, 70, 127
2, 152832, Note_on_c, 2, 74, 127
2, 152989, Note_off_c, 5, 77, 127
2, 152994, Note_off_c, 2, 74, 127
2, 152997, Note_on_c, 11, 70, 127
2, 153159, Note_off_c, 11, 70, 127
2, 153160, Note_off_c, 11, 46, 127
2, 153161, Note_on_c, 7, 67, 127
2, 153323, Note_off_c, 7, 67, 127
2, 153325, Note_on_c, 11, 58, 127
2, 153325, Note_on_c, 11, 70, 127
2, 153487, Note_off_c, 11, 70, 127
2, 153489, Note_on_c, 2, 74, 127
2, 153651, Note_off_c, 2, 74, 127
2, 153651, Note_off_c, 11, 58, 127
2, 153653, Note_on_c, 1, 49, 127
2, 153653, Note_on_c, 4, 76, 127
2, 153941, Note_off_c, 4, 76, 127
2, 153979, Note_off_c, 1, 49, 127
2, 153982, Note_on_c, 2, 50, 127
2, 153982, Note_on_c, 5, 65, 127
2, 153982, Note_on_c, 2, 74, 127
2, 153982, Note_on_c, 10, 69, 127
2, 154308, Note_off_c, 10, 69, 127
2, 154308, Note_off_c, 2, 74, 127
2, 154308, Note_off_c, 5, 65, 127
2, 154308, Note_off_c, 2, 50, 127
2, 154310, Note_on_c, 10, 57, 127
2, 154310, Note_on_c, 4, 64, 127
2, 154310, Note_on_c, 2, 74, 127
2, 154310, Note_on_c, 10, 69, 127
2, 154636, Note_off_c, 10, 69, 127
2, 154636, Note_off_c, 2, 74, 127
2, 154636, Note_off_c, 4, 64, 127
2, 154636, Note_off_c, 10, 57, 127
2, 154638, Note_on_c, 10, 45, 127
2, 154638, Note_on_c, 4, 64, 127
2, 154638, Note_on_c, 7, 67, 127
2, 154638, Note_on_c, 2, 74, 127
2, 154638, Note_on_c, 10, 69, 127
2, 154718, Note_off_c, 2, 74, 127
2, 154720, Note_on_c, 1, 73, 127
2, 154800, Note_off_c, 1, 73, 127
2, 154802, Note_on_c, 12, 71, 127
2, 154882, Note_off_c, 12, 71, 127
2, 154884, Note_on_c, 1, 73, 127
2, 154964, Note_off_c, 1, 73, 127
2, 154964, Note_off_c, 10, 69, 127
2, 154964, Note_off_c, 7, 67, 127
2, 154964, Note_off_c, 4, 64, 127
2, 154964, Note_off_c, 10, 45, 127
2, 154967, Note_on_c, 2, 38, 127
2, 154967, Note_on_c, 5, 65, 127
2, 154967, Note_on_c, 2, 74, 127
2, 154967, Note_on_c, 10, 69, 127
2, 155129, Note_off_c, 10, 69, 127
2, 155129, Note_off_c, 2, 74, 127
2, 155129, Note_off_c, 5, 65, 127
2, 155131, Note_on_c, 10, 57, 127
2, 155293, Note_off_c, 10, 57, 127
2, 155295, Note_on_c, 12, 59, 127
2, 155457, Note_off_c, 12, 59, 127
2, 155459, Note_on_c, 1, 61, 127
2, 155621, Note_off_c, 1, 61, 127
2, 155623, Note_on_c, 2, 62, 127
2, 155785, Note_off_c, 2, 62, 127
2, 155787, Note_off_c, 2, 38, 127
2, 155787, Note_on_c, 4, 64, 127
2, 155949, Note_off_c, 4, 64, 127
2, 155952, Note_on_c, 2, 50, 127
2, 155952, Note_on_c, 10, 57, 127
2, 155952, Note_on_c, 5, 65, 127
2, 156114, Note_off_c, 5, 65, 127
2, 156116, Note_on_c, 2, 62, 127
2, 156278, Note_off_c, 2, 62, 127
2, 156278, Note_off_c, 10, 57, 127
2, 156278, Note_off_c, 2, 50, 127
2, 156280, Note_on_c, 11, 58, 127
2, 156280, Note_on_c, 2, 50, 127
2, 156280, Note_on_c, 7, 67, 127
2, 156442, Note_off_c, 7, 67, 127
2, 156444, Note_on_c, 10, 69, 127
2, 156606, Note_off_c, 10, 69, 127
2, 156606, Note_off_c, 2, 50, 127
2, 156608, Note_on_c, 4, 52, 127
2, 156608, Note_on_c, 7, 67, 127
2, 156770, Note_off_c, 7, 67, 127
2, 156770, Note_off_c, 4, 52, 127
2, 156772, Note_on_c, 2, 50, 127
2, 156772, Note_on_c, 5, 65, 127
2, 156929, Note_off_c, 11, 58, 127
2, 156934, Note_off_c, 5, 65, 127
2, 156934, Note_off_c, 2, 50, 127
2, 156936, Note_on_c, 0, 48, 127
2, 156936, Note_on_c, 4, 64, 127
2, 157098, Note_off_c, 4, 64, 127
2, 157101, Note_on_c, 10, 69, 127
2, 157262, Note_off_c, 0, 48, 127
2, 157263, Note_off_c, 10, 69, 127
2, 157265, Note_on_c, 0, 48, 127
2, 157265, Note_on_c, 4, 52, 127
2, 157265, Note_on_c, 7, 67, 127
2, 157427, Note_off_c, 7, 67, 127
2, 157429, Note_on_c, 10, 69, 127
2, 157591, Note_off_c, 10, 69, 127
2, 157591, Note_off_c, 4, 52, 127
2, 157591, Note_off_c, 0, 48, 127
2, 157593, Note_on_c, 0, 48, 127
2, 157593, Note_on_c, 10, 57, 127
2, 157593, Note_on_c, 6, 66, 127
2, 157757, Note_on_c, 2, 62, 127
2, 157798, Note_off_c, 6, 66, 127
2, 157919, Note_off_c, 2, 62, 127
2, 157919, Note_off_c, 0, 48, 127
2, 157921, Note_on_c, 2, 50, 127
2, 157921, Note_on_c, 4, 64, 127
2, 158083, Note_off_c, 4, 64, 127
2, 158083, Note_off_c, 2, 50, 127
2, 158086, Note_on_c, 0, 48, 127
2, 158086, Note_on_c, 6, 66, 127
2, 158242, Note_off_c, 10, 57, 127
2, 158248, Note_off_c, 6, 66, 127
2, 158248, Note_off_c, 0, 48, 127
2, 158250, Note_on_c, 11, 46, 127
2, 158250, Note_on_c, 7, 67, 127
2, 158412, Note_off_c, 7, 67, 127
2, 158414, Note_on_c, 10, 69, 127
2, 158576, Note_off_c, 10, 69, 127
2, 158576, Note_off_c, 11, 46, 127
2, 158578, Note_on_c, 11, 46, 127
2, 158578, Note_on_c, 7, 55, 127
2, 158578, Note_on_c, 11, 70, 127
2, 158740, Note_off_c, 11, 70, 127
2, 158742, Note_on_c, 7, 67, 127
2, 158904, Note_off_c, 7, 67, 127
2, 158904, Note_off_c, 7, 55, 127
2, 158904, Note_off_c, 11, 46, 127
2, 158906, Note_on_c, 11, 46, 127
2, 158906, Note_on_c, 4, 52, 127
2, 158906, Note_on_c, 0, 72, 127
2, 159071, Note_on_c, 4, 64, 127
2, 159230, Note_off_c, 0, 72, 127
2, 159232, Note_off_c, 11, 46, 127
2, 159233, Note_off_c, 4, 64, 127
2, 159235, Note_on_c, 0, 48, 127
2, 159235, Note_on_c, 5, 65, 127
2, 159397, Note_off_c, 5, 65, 127
2, 159397, Note_off_c, 0, 48, 127
2, 159399, Note_on_c, 11, 46, 127
2, 159399, Note_on_c, 7, 67, 127
2, 159555, Note_off_c, 4, 52, 127
2, 159561, Note_off_c, 7, 67, 127
2, 159561, Note_off_c, 11, 46, 127
2, 159563, Note_on_c, 10, 45, 127
2, 159563, Note_on_c, 10, 69, 127
2, 159725, Note_off_c, 10, 69, 127
2, 159727, Note_on_c, 11, 70, 127
2, 159889, Note_off_c, 11, 70, 127
2, 159889, Note_off_c, 10, 45, 127
2, 159891, Note_on_c, 10, 45, 127
2, 159891, Note_on_c, 6, 54, 127
2, 159891, Note_on_c, 0, 72, 127
2, 160053, Note_off_c, 0, 72, 127
2, 160056, Note_on_c, 10, 69, 127
2, 160217, Note_off_c, 6, 54, 127
2, 160217, Note_off_c, 10, 45, 127
2, 160218, Note_off_c, 10, 69, 127
2, 160220, Note_on_c, 11, 58, 127
2, 160220, Note_on_c, 10, 45, 127
2, 160220, Note_on_c, 2, 74, 127
2, 160382, Note_off_c, 2, 74, 127
2, 160384, Note_on_c, 6, 66, 127
2, 160546, Note_off_c, 6, 66, 127
2, 160546, Note_off_c, 10, 45, 127
2, 160548, Note_on_c, 11, 46, 127
2, 160548, Note_on_c, 7, 67, 127
2, 160710, Note_off_c, 7, 67, 127
2, 160710, Note_off_c, 11, 46, 127
2, 160712, Note_on_c, 10, 45, 127
2, 160712, Note_on_c, 10, 69, 127
2, 160869, Note_off_c, 11, 58, 127
2, 160874, Note_off_c, 10, 69, 127
2, 160874, Note_off_c, 10, 45, 127
2, 160876, Note_on_c, 7, 43, 127
2, 160876, Note_on_c, 11, 70, 127
2, 161040, Note_on_c, 0, 72, 127
2, 161081, Note_off_c, 11, 70, 127
2, 161202, Note_off_c, 0, 72, 127
2, 161202, Note_off_c, 7, 43, 127
2, 161205, Note_on_c, 7, 55, 127
2, 161205, Note_on_c, 11, 58, 127
2, 161205, Note_on_c, 2, 74, 127
2, 161367, Note_off_c, 2, 74, 127
2, 161369, Note_on_c, 11, 70, 127
2, 161531, Note_off_c, 11, 70, 127
2, 161531, Note_off_c, 11, 58, 127
2, 161531, Note_off_c, 7, 55, 127
2, 161533, Note_on_c, 7, 55, 127
2, 161533, Note_on_c, 0, 60, 127
2, 161533, Note_on_c, 10, 57, 127
2, 161533, Note_on_c, 3, 75, 127
2, 161695, Note_off_c, 3, 75, 127
2, 161697, Note_on_c, 2, 74, 127
2, 161859, Note_off_c, 2, 74, 127
2, 161859, Note_off_c, 10, 57, 127
2, 161859, Note_off_c, 0, 60, 127
2, 161859, Note_off_c, 7, 55, 127
2, 161861, Note_on_c, 10, 57, 127
2, 161861, Note_on_c, 0, 72, 127
2, 162023, Note_off_c, 0, 72, 127
2, 162023, Note_off_c, 10, 57, 127
2, 162025, Note_on_c, 7, 55, 127
2, 162025, Note_on_c, 11, 70, 127
2, 162187, Note_off_c, 11, 70, 127
2, 162187, Note_off_c, 7, 55, 127
2, 162190, Note_on_c, 6, 54, 127
2, 162190, Note_on_c, 10, 69, 127
2, 162352, Note_off_c, 10, 69, 127
2, 162354, Note_on_c, 2, 74, 127
2, 162516, Note_off_c, 2, 74, 127
2, 162516, Note_off_c, 6, 54, 127
2, 162518, Note_on_c, 6, 54, 127
2, 162518, Note_on_c, 2, 50, 127
2, 162518, Note_on_c, 0, 72, 127
2, 162680, Note_off_c, 0, 72, 127
2, 162682, Note_on_c, 2, 74, 127
2, 162844, Note_off_c, 2, 74, 127
2, 162844, Note_off_c, 2, 50, 127
2, 162844, Note_off_c, 6, 54, 127
2, 162846, Note_on_c, 7, 55, 127
2, 162846, Note_on_c, 11, 70, 127
2, 163008, Note_off_c, 7, 55, 127
2, 163010, Note_on_c, 5, 53, 127
2, 163010, Note_on_c, 10, 69, 127
2, 163172, Note_off_c, 10, 69, 127
2, 163172, Note_off_c, 5, 53, 127
2, 163175, Note_on_c, 3, 51, 127
2, 163175, Note_on_c, 7, 67, 127
2, 163337, Note_off_c, 7, 67, 127
2, 163337, Note_off_c, 3, 51, 127
2, 163339, Note_on_c, 2, 50, 127
2, 163339, Note_on_c, 5, 65, 127
2, 163501, Note_off_c, 5, 65, 127
2, 163501, Note_off_c, 2, 50, 127
2, 163503, Note_on_c, 0, 48, 127
2, 163503, Note_on_c, 3, 63, 127
2, 163665, Note_off_c, 0, 48, 127
2, 163667, Note_on_c, 5, 53, 127
2, 163829, Note_off_c, 5, 53, 127
2, 163829, Note_off_c, 11, 70, 127
2, 163831, Note_on_c, 3, 51, 127
2, 163831, Note_on_c, 10, 69, 127
2, 163993, Note_off_c, 3, 51, 127
2, 163995, Note_on_c, 5, 53, 127
2, 164152, Note_off_c, 3, 63, 127
2, 164157, Note_off_c, 5, 53, 127
2, 164160, Note_on_c, 11, 46, 127
2, 164160, Note_on_c, 2, 62, 127
2, 164322, Note_off_c, 11, 46, 127
2, 164324, Note_on_c, 0, 48, 127
2, 164480, Note_off_c, 10, 69, 127
2, 164486, Note_off_c, 0, 48, 127
2, 164488, Note_on_c, 2, 50, 127
2, 164488, Note_on_c, 7, 67, 127
2, 164650, Note_off_c, 2, 50, 127
2, 164652, Note_on_c, 3, 51, 127
2, 164809, Note_off_c, 2, 62, 127
2, 164814, Note_off_c, 3, 51, 127
2, 164816, Note_on_c, 10, 45, 127
2, 164816, Note_on_c, 0, 60, 127
2, 164978, Note_off_c, 10, 45, 127
2, 164980, Note_on_c, 2, 50, 127
2, 165137, Note_off_c, 7, 67, 127
2, 165142, Note_off_c, 2, 50, 127
2, 165144, Note_on_c, 0, 48, 127
2, 165144, Note_on_c, 6, 66, 127
2, 165306, Note_off_c, 0, 48, 127
2, 165309, Note_on_c, 2, 50, 127
2, 165465, Note_off_c, 0, 60, 127
2, 165470, Note_off_c, 6, 66, 127
2, 165471, Note_off_c, 2, 50, 127
2, 165473, Note_on_c, 7, 43, 127
2, 165473, Note_on_c, 7, 67, 127
2, 165473, Note_on_c, 11, 58, 127
2, 165635, Note_off_c, 7, 67, 127
2, 165637, Note_on_c, 5, 65, 127
2, 165797, Note_off_c, 11, 58, 127
2, 165799, Note_off_c, 5, 65, 127
2, 165799, Note_off_c, 7, 43, 127
2, 165801, Note_on_c, 11, 46, 127
2, 165801, Note_on_c, 3, 63, 127
2, 165963, Note_off_c, 3, 63, 127
2, 165965, Note_on_c, 2, 62, 127
2, 166127, Note_off_c, 2, 62, 127
2, 166127, Note_off_c, 11, 46, 127
2, 166129, Note_on_c, 0, 48, 127
2, 166129, Note_on_c, 3, 63, 127
2, 166294, Note_on_c, 11, 58, 127
2, 166455, Note_off_c, 0, 48, 127
2, 166456, Note_off_c, 11, 58, 127
2, 166458, Note_on_c, 10, 45, 127
2, 166458, Note_on_c, 0, 60, 127
2, 166622, Note_on_c, 6, 54, 127
2, 166778, Note_off_c, 3, 63, 127
2, 166782, Note_off_c, 0, 60, 127
2, 166784, Note_off_c, 6, 54, 127
2, 166784, Note_off_c, 10, 45, 127
2, 166786, Note_on_c, 11, 46, 127
2, 166786, Note_on_c, 7, 55, 127
2, 166948, Note_off_c, 7, 55, 127
2, 166950, Note_on_c, 3, 63, 127
2, 167112, Note_off_c, 3, 63, 127
2, 167112, Note_off_c, 11, 46, 127
2, 167114, Note_on_c, 0, 48, 127
2, 167114, Note_on_c, 2, 62, 127
2, 167276, Note_off_c, 2, 62, 127
2, 167279, Note_on_c, 0, 60, 127
2, 167440, Note_off_c, 0, 48, 127
2, 167441, Note_off_c, 0, 60, 127
2, 167443, Note_on_c, 2, 50, 127
2, 167443, Note_on_c, 11, 58, 127
2, 167607, Note_on_c, 7, 67, 127
2, 167682, Note_off_c, 11, 58, 127
2, 167769, Note_off_c, 2, 50, 127
2, 167771, Note_on_c, 2, 38, 127
2, 167771, Note_on_c, 10, 57, 127
2, 167812, Note_off_c, 7, 67, 127
2, 167935, Note_on_c, 6, 66, 127
2, 167976, Note_off_c, 10, 57, 127
2, 168097, Note_off_c, 6, 66, 127
2, 168097, Note_off_c, 2, 38, 127
2, 168099, Note_on_c, 7, 43, 127
2, 168099, Note_on_c, 7, 67, 127
2, 168264, Note_on_c, 2, 50, 127
2, 168304, Note_off_c, 7, 43, 127
2, 168372, Note_off_c, 7, 67, 127
2, 168426, Note_off_c, 2, 50, 127
2, 168428, Note_on_c, 4, 52, 127
2, 168428, Note_on_c, 11, 70, 127
2, 168590, Note_off_c, 11, 70, 127
2, 168590, Note_off_c, 4, 52, 127
2, 168592, Note_on_c, 6, 54, 127
2, 168592, Note_on_c, 10, 69, 127
2, 168754, Note_off_c, 10, 69, 127
2, 168754, Note_off_c, 6, 54, 127
2, 168756, Note_on_c, 7, 55, 127
2, 168756, Note_on_c, 11, 70, 127
2, 168918, Note_off_c, 7, 55, 127
2, 168920, Note_on_c, 10, 57, 127
2, 169082, Note_off_c, 10, 57, 127
2, 169082, Note_off_c, 11, 70, 127
2, 169084, Note_on_c, 11, 58, 127
2, 169084, Note_on_c, 11, 70, 127
2, 169084, Note_on_c, 7, 79, 127
2, 169246, Note_off_c, 11, 58, 127
2, 169248, Note_on_c, 7, 55, 127
2, 169410, Note_off_c, 7, 55, 127
2, 169410, Note_off_c, 7, 79, 127
2, 169410, Note_off_c, 11, 70, 127
2, 169413, Note_on_c, 0, 60, 127
2, 169413, Note_on_c, 10, 69, 127
2, 169413, Note_on_c, 7, 79, 127
2, 169575, Note_off_c, 0, 60, 127
2, 169577, Note_on_c, 2, 62, 127
2, 169739, Note_off_c, 2, 62, 127
2, 169739, Note_off_c, 7, 79, 127
2, 169741, Note_on_c, 0, 60, 127
2, 169741, Note_on_c, 10, 81, 127
2, 169903, Note_off_c, 10, 81, 127
2, 169903, Note_off_c, 0, 60, 127
2, 169905, Note_on_c, 11, 58, 127
2, 169905, Note_on_c, 7, 79, 127
2, 170062, Note_off_c, 10, 69, 127
2, 170067, Note_off_c, 7, 79, 127
2, 170067, Note_off_c, 11, 58, 127
2, 170069, Note_on_c, 10, 57, 127
2, 170069, Note_on_c, 5, 77, 127
2, 170231, Note_off_c, 10, 57, 127
2, 170233, Note_on_c, 2, 62, 127
2, 170395, Note_off_c, 2, 62, 127
2, 170395, Note_off_c, 5, 77, 127
2, 170398, Note_on_c, 0, 60, 127
2, 170398, Note_on_c, 5, 77, 127
2, 170398, Note_on_c, 10, 69, 127
2, 170560, Note_off_c, 0, 60, 127
2, 170562, Note_on_c, 2, 62, 127
2, 170724, Note_off_c, 2, 62, 127
2, 170724, Note_off_c, 10, 69, 127
2, 170724, Note_off_c, 5, 77, 127
2, 170726, Note_on_c, 11, 58, 127
2, 170726, Note_on_c, 5, 77, 127
2, 170726, Note_on_c, 7, 67, 127
2, 170888, Note_off_c, 11, 58, 127
2, 170890, Note_on_c, 7, 55, 127
2, 171052, Note_off_c, 7, 55, 127
2, 171052, Note_off_c, 5, 77, 127
2, 171054, Note_on_c, 10, 57, 127
2, 171054, Note_on_c, 7, 79, 127
2, 171216, Note_off_c, 7, 79, 127
2, 171216, Note_off_c, 10, 57, 127
2, 171218, Note_on_c, 11, 58, 127
2, 171218, Note_on_c, 5, 77, 127
2, 171375, Note_off_c, 7, 67, 127
2, 171380, Note_off_c, 5, 77, 127
2, 171380, Note_off_c, 11, 58, 127
2, 171383, Note_on_c, 0, 60, 127
2, 171383, Note_on_c, 3, 75, 127
2, 171545, Note_off_c, 0, 60, 127
2, 171547, Note_on_c, 2, 62, 127
2, 171709, Note_off_c, 2, 62, 127
2, 171709, Note_off_c, 3, 75, 127
2, 171711, Note_on_c, 3, 63, 127
2, 171711, Note_on_c, 0, 72, 127
2, 171711, Note_on_c, 3, 75, 127
2, 171873, Note_off_c, 3, 63, 127
2, 171875, Note_on_c, 0, 60, 127
2, 172037, Note_off_c, 0, 60, 127
2, 172037, Note_off_c, 3, 75, 127
2, 172037, Note_off_c, 0, 72, 127
2, 172039, Note_on_c, 5, 65, 127
2, 172039, Note_on_c, 10, 69, 127
2, 172039, Note_on_c, 3, 75, 127
2, 172201, Note_off_c, 5, 65, 127
2, 172203, Note_on_c, 10, 57, 127
2, 172365, Note_off_c, 10, 57, 127
2, 172365, Note_off_c, 3, 75, 127
2, 172368, Note_on_c, 11, 58, 127
2, 172368, Note_on_c, 5, 77, 127
2, 172530, Note_off_c, 5, 77, 127
2, 172530, Note_off_c, 11, 58, 127
2, 172532, Note_on_c, 0, 60, 127
2, 172532, Note_on_c, 3, 75, 127
2, 172688, Note_off_c, 10, 69, 127
2, 172694, Note_off_c, 3, 75, 127
2, 172694, Note_off_c, 0, 60, 127
2, 172696, Note_on_c, 2, 62, 127
2, 172696, Note_on_c, 2, 74, 127
2, 172858, Note_off_c, 2, 62, 127
2, 172860, Note_on_c, 3, 63, 127
2, 173022, Note_off_c, 3, 63, 127
2, 173022, Note_off_c, 2, 74, 127
2, 173024, Note_on_c, 5, 65, 127
2, 173024, Note_on_c, 2, 74, 127
2, 173024, Note_on_c, 0, 72, 127
2, 173186, Note_off_c, 5, 65, 127
2, 173188, Note_on_c, 2, 62, 127
2, 173350, Note_off_c, 2, 62, 127
2, 173350, Note_off_c, 0, 72, 127
2, 173350, Note_off_c, 2, 74, 127
2, 173352, Note_on_c, 7, 67, 127
2, 173352, Note_on_c, 2, 74, 127
2, 173352, Note_on_c, 11, 70, 127
2, 173514, Note_off_c, 7, 67, 127
2, 173517, Note_on_c, 11, 58, 127
2, 173678, Note_off_c, 2, 74, 127
2, 173679, Note_off_c, 11, 58, 127
2, 173681, Note_on_c, 0, 60, 127
2, 173681, Note_on_c, 3, 75, 127
2, 173843, Note_off_c, 3, 75, 127
2, 173843, Note_off_c, 0, 60, 127
2, 173845, Note_on_c, 2, 62, 127
2, 173845, Note_on_c, 2, 74, 127
2, 174001, Note_off_c, 11, 70, 127
2, 174007, Note_off_c, 2, 74, 127
2, 174007, Note_off_c, 2, 62, 127
2, 174009, Note_on_c, 3, 63, 127
2, 174009, Note_on_c, 0, 72, 127
2, 174171, Note_off_c, 3, 63, 127
2, 174173, Note_on_c, 5, 65, 127
2, 174335, Note_off_c, 5, 65, 127
2, 174335, Note_off_c, 0, 72, 127
2, 174337, Note_on_c, 7, 67, 127
2, 174337, Note_on_c, 0, 72, 127
2, 174337, Note_on_c, 11, 70, 127
2, 174499, Note_off_c, 7, 67, 127
2, 174502, Note_on_c, 4, 64, 127
2, 174663, Note_off_c, 11, 70, 127
2, 174663, Note_off_c, 0, 72, 127
2, 174664, Note_off_c, 4, 64, 127
2, 174666, Note_on_c, 5, 65, 127
2, 174666, Note_on_c, 0, 72, 127
2, 174666, Note_on_c, 10, 69, 127
2, 174828, Note_off_c, 5, 65, 127
2, 174830, Note_on_c, 7, 67, 127
2, 174990, Note_off_c, 10, 69, 127
2, 174992, Note_off_c, 7, 67, 127
2, 174994, Note_on_c, 5, 65, 127
2, 175158, Note_on_c, 3, 63, 127
2, 175320, Note_off_c, 3, 63, 127
2, 175320, Note_off_c, 0, 72, 127
2, 175322, Note_on_c, 2, 62, 127
2, 175322, Note_on_c, 11, 70, 127
2, 175484, Note_off_c, 2, 62, 127
2, 175487, Note_on_c, 0, 60, 127
2, 175648, Note_off_c, 11, 70, 127
2, 175648, Note_off_c, 5, 65, 127
2, 175649, Note_off_c, 0, 60, 127
2, 175651, Note_on_c, 11, 58, 127
2, 175651, Note_on_c, 5, 65, 127
2, 175651, Note_on_c, 2, 62, 127
2, 175651, Note_on_c, 11, 70, 127
2, 175811, Note_off_c, 2, 62, 127
2, 175813, Note_off_c, 11, 58, 127
2, 175815, Note_on_c, 2, 62, 127
2, 175977, Note_off_c, 2, 62, 127
2, 175977, Note_off_c, 11, 70, 127
2, 175977, Note_off_c, 5, 65, 127
2, 175979, Note_on_c, 7, 55, 127
2, 175979, Note_on_c, 2, 62, 127
2, 175979, Note_on_c, 11, 70, 127
2, 175979, Note_on_c, 7, 67, 127
2, 176141, Note_off_c, 7, 55, 127
2, 176143, Note_on_c, 5, 65, 127
2, 176305, Note_off_c, 5, 65, 127
2, 176305, Note_off_c, 7, 67, 127
2, 176305, Note_off_c, 11, 70, 127
2, 176305, Note_off_c, 2, 62, 127
2, 176307, Note_on_c, 3, 63, 127
2, 176307, Note_on_c, 10, 69, 127
2, 176469, Note_off_c, 10, 69, 127
2, 176469, Note_off_c, 3, 63, 127
2, 176472, Note_on_c, 2, 62, 127
2, 176472, Note_on_c, 11, 70, 127
2, 176634, Note_off_c, 11, 70, 127
2, 176634, Note_off_c, 2, 62, 127
2, 176636, Note_on_c, 0, 60, 127
2, 176636, Note_on_c, 0, 72, 127
2, 176798, Note_off_c, 0, 60, 127
2, 176800, Note_on_c, 11, 58, 127
2, 176962, Note_off_c, 11, 58, 127
2, 176962, Note_off_c, 0, 72, 127
2, 176964, Note_on_c, 10, 57, 127
2, 176964, Note_on_c, 7, 67, 127
2, 176964, Note_on_c, 0, 72, 127
2, 176964, Note_on_c, 3, 63, 127
2, 177126, Note_off_c, 10, 57, 127
2, 177128, Note_on_c, 0, 60, 127
2, 177290, Note_off_c, 0, 60, 127
2, 177290, Note_off_c, 3, 63, 127
2, 177290, Note_off_c, 0, 72, 127
2, 177290, Note_off_c, 7, 67, 127
2, 177292, Note_on_c, 5, 53, 127
2, 177292, Note_on_c, 10, 69, 127
2, 177292, Note_on_c, 0, 72, 127
2, 177292, Note_on_c, 3, 63, 127
2, 177452, Note_off_c, 3, 63, 127
2, 177454, Note_off_c, 5, 53, 127
2, 177456, Note_on_c, 3, 63, 127
2, 177618, Note_off_c, 3, 63, 127
2, 177618, Note_off_c, 0, 72, 127
2, 177618, Note_off_c, 10, 69, 127
2, 177621, Note_on_c, 2, 62, 127
2, 177621, Note_on_c, 11, 70, 127
2, 177783, Note_off_c, 11, 70, 127
2, 177783, Note_off_c, 2, 62, 127
2, 177785, Note_on_c, 0, 60, 127
2, 177785, Note_on_c, 0, 72, 127
2, 177947, Note_off_c, 0, 72, 127
2, 177947, Note_off_c, 0, 60, 127
2, 177949, Note_on_c, 11, 58, 127
2, 177949, Note_on_c, 2, 74, 127
2, 178111, Note_off_c, 11, 58, 127
2, 178113, Note_on_c, 10, 57, 127
2, 178275, Note_off_c, 10, 57, 127
2, 178275, Note_off_c, 2, 74, 127
2, 178277, Note_on_c, 7, 55, 127
2, 178277, Note_on_c, 11, 70, 127
2, 178277, Note_on_c, 5, 65, 127
2, 178277, Note_on_c, 2, 74, 127
2, 178439, Note_off_c, 7, 55, 127
2, 178441, Note_on_c, 11, 58, 127
2, 178603, Note_off_c, 11, 58, 127
2, 178603, Note_off_c, 2, 74, 127
2, 178603, Note_off_c, 5, 65, 127
2, 178603, Note_off_c, 11, 70, 127
2, 178606, Note_on_c, 3, 51, 127
2, 178606, Note_on_c, 11, 70, 127
2, 178606, Note_on_c, 2, 74, 127
2, 178606, Note_on_c, 7, 67, 127
2, 178768, Note_off_c, 3, 51, 127
2, 178770, Note_on_c, 5, 53, 127
2, 178932, Note_off_c, 5, 53, 127
2, 178932, Note_off_c, 7, 67, 127
2, 178932, Note_off_c, 2, 74, 127
2, 178932, Note_off_c, 11, 70, 127
2, 178934, Note_on_c, 3, 51, 127
2, 178934, Note_on_c, 0, 72, 127
2, 179096, Note_off_c, 0, 72, 127
2, 179096, Note_off_c, 3, 51, 127
2, 179098, Note_on_c, 2, 50, 127
2, 179098, Note_on_c, 2, 74, 127
2, 179260, Note_off_c, 2, 74, 127
2, 179260, Note_off_c, 2, 50, 127
2, 179262, Note_on_c, 0, 48, 127
2, 179262, Note_on_c, 3, 75, 127
2, 179424, Note_off_c, 0, 48, 127
2, 179426, Note_on_c, 11, 46, 127
2, 179588, Note_off_c, 11, 46, 127
2, 179588, Note_off_c, 3, 75, 127
2, 179591, Note_on_c, 10, 45, 127
2, 179591, Note_on_c, 3, 75, 127
2, 179591, Note_on_c, 0, 72, 127
2, 179591, Note_on_c, 7, 67, 127
2, 179753, Note_off_c, 10, 45, 127
2, 179755, Note_on_c, 0, 48, 127
2, 179917, Note_off_c, 0, 48, 127
2, 179917, Note_off_c, 7, 67, 127
2, 179917, Note_off_c, 0, 72, 127
2, 179917, Note_off_c, 3, 75, 127
2, 179919, Note_on_c, 5, 41, 127
2, 179919, Note_on_c, 10, 69, 127
2, 179919, Note_on_c, 3, 75, 127
2, 179919, Note_on_c, 0, 72, 127
2, 180245, Note_off_c, 0, 72, 127
2, 180245, Note_off_c, 3, 75, 127
2, 180245, Note_off_c, 10, 69, 127
2, 180245, Note_off_c, 5, 41, 127
2, 180247, Note_on_c, 11, 46, 127
2, 180247, Note_on_c, 2, 74, 127
2, 180247, Note_on_c, 11, 70, 127
2, 180409, Note_off_c, 11, 70, 127
2, 180409, Note_off_c, 2, 74, 127
2, 180411, Note_on_c, 0, 72, 127
2, 180573, Note_off_c, 0, 72, 127
2, 180573, Note_off_c, 11, 46, 127
2, 180576, Note_on_c, 5, 53, 127
2, 180576, Note_on_c, 10, 69, 127
2, 180576, Note_on_c, 2, 74, 127
2, 180656, Note_off_c, 2, 74, 127
2, 180658, Note_on_c, 0, 72, 127
2, 180738, Note_off_c, 0, 72, 127
2, 180740, Note_on_c, 2, 74, 127
2, 180820, Note_off_c, 2, 74, 127
2, 180822, Note_on_c, 0, 72, 127
2, 180902, Note_off_c, 0, 72, 127
2, 180902, Note_off_c, 5, 53, 127
2, 180904, Note_on_c, 5, 41, 127
2, 180904, Note_on_c, 2, 74, 127
2, 180984, Note_off_c, 2, 74, 127
2, 180986, Note_on_c, 0, 72, 127
2, 181054, Note_off_c, 10, 69, 127
2, 181066, Note_off_c, 0, 72, 127
2, 181068, Note_on_c, 11, 70, 127
2, 181230, Note_off_c, 11, 70, 127
2, 181230, Note_off_c, 5, 41, 127
2, 181232, Note_on_c, 11, 46, 127
2, 181232, Note_on_c, 11, 70, 127
2, 181394, Note_off_c, 11, 70, 127
2, 181394, Note_off_c, 11, 46, 127
2, 181396, Note_on_c, 5, 53, 127
2, 181396, Note_on_c, 10, 69, 127
2, 181558, Note_off_c, 10, 69, 127
2, 181558, Note_off_c, 5, 53, 127
2, 181560, Note_on_c, 7, 55, 127
2, 181560, Note_on_c, 11, 70, 127
2, 181722, Note_off_c, 11, 70, 127
2, 181722, Note_off_c, 7, 55, 127
2, 181725, Note_on_c, 10, 57, 127
2, 181725, Note_on_c, 0, 72, 127
2, 181887, Note_off_c, 0, 72, 127
2, 181887, Note_off_c, 10, 57, 127
2, 181889, Note_on_c, 11, 58, 127
2, 181889, Note_on_c, 2, 74, 127
2, 182051, Note_off_c, 11, 58, 127
2, 182053, Note_on_c, 0, 60, 127
2, 182053, Note_on_c, 3, 75, 127
2, 182215, Note_off_c, 3, 75, 127
2, 182215, Note_off_c, 0, 60, 127
2, 182217, Note_on_c, 2, 62, 127
2, 182217, Note_on_c, 5, 77, 127
2, 182367, Note_off_c, 2, 74, 127
2, 182379, Note_off_c, 2, 62, 127
2, 182381, Note_off_c, 5, 77, 127
2, 182381, Note_on_c, 11, 58, 127
2, 182381, Note_on_c, 11, 82, 127
2, 182543, Note_off_c, 11, 82, 127
2, 182543, Note_off_c, 11, 58, 127
2, 182545, Note_on_c, 3, 63, 127
2, 182545, Note_on_c, 0, 72, 127
2, 182707, Note_off_c, 3, 63, 127
2, 182710, Note_on_c, 5, 65, 127
2, 182710, Note_on_c, 2, 74, 127
2, 182750, Note_off_c, 0, 72, 127
2, 182872, Note_off_c, 2, 74, 127
2, 182872, Note_off_c, 5, 65, 127
2, 182874, Note_on_c, 3, 63, 127
2, 182874, Note_on_c, 3, 75, 127
2, 183036, Note_off_c, 3, 75, 127
2, 183036, Note_off_c, 3, 63, 127
2, 183038, Note_on_c, 2, 62, 127
2, 183038, Note_on_c, 11, 82, 127
2, 183200, Note_off_c, 11, 82, 127
2, 183200, Note_off_c, 2, 62, 127
2, 183202, Note_on_c, 0, 60, 127
2, 183202, Note_on_c, 10, 69, 127
2, 183364, Note_off_c, 0, 60, 127
2, 183366, Note_on_c, 5, 65, 127
2, 183366, Note_on_c, 11, 70, 127
2, 183528, Note_off_c, 11, 70, 127
2, 183528, Note_off_c, 5, 65, 127
2, 183530, Note_on_c, 3, 63, 127
2, 183530, Note_on_c, 0, 72, 127
2, 183680, Note_off_c, 10, 69, 127
2, 183692, Note_off_c, 0, 72, 127
2, 183692, Note_off_c, 3, 63, 127
2, 183695, Note_on_c, 5, 65, 127
2, 183695, Note_on_c, 10, 81, 127
2, 183857, Note_off_c, 10, 81, 127
2, 183857, Note_off_c, 5, 65, 127
2, 183859, Note_on_c, 2, 62, 127
2, 183859, Note_on_c, 11, 70, 127
2, 184021, Note_off_c, 2, 62, 127
2, 184023, Note_on_c, 3, 63, 127
2, 184023, Note_on_c, 0, 72, 127
2, 184064, Note_off_c, 11, 70, 127
2, 184185, Note_off_c, 0, 72, 127
2, 184185, Note_off_c, 3, 63, 127
2, 184187, Note_on_c, 2, 62, 127
2, 184187, Note_on_c, 2, 74, 127
2, 184349, Note_off_c, 2, 74, 127
2, 184349, Note_off_c, 2, 62, 127
2, 184351, Note_on_c, 0, 60, 127
2, 184351, Note_on_c, 5, 77, 127
2, 184513, Note_off_c, 5, 77, 127
2, 184513, Note_off_c, 0, 60, 127
2, 184515, Note_on_c, 11, 58, 127
2, 184515, Note_on_c, 7, 67, 127
2, 184677, Note_off_c, 11, 58, 127
2, 184680, Note_on_c, 3, 63, 127
2, 184680, Note_on_c, 10, 69, 127
2, 184842, Note_off_c, 10, 69, 127
2, 184842, Note_off_c, 3, 63, 127
2, 184844, Note_on_c, 2, 62, 127
2, 184844, Note_on_c, 11, 70, 127
2, 184993, Note_off_c, 7, 67, 127
2, 185006, Note_off_c, 11, 70, 127
2, 185006, Note_off_c, 2, 62, 127
2, 185008, Note_on_c, 3, 63, 127
2, 185008, Note_on_c, 7, 79, 127
2, 185170, Note_off_c, 7, 79, 127
2, 185170, Note_off_c, 3, 63, 127
2, 185172, Note_on_c, 0, 60, 127
2, 185172, Note_on_c, 10, 69, 127
2, 185334, Note_off_c, 0, 60, 127
2, 185336, Note_on_c, 2, 62, 127
2, 185336, Note_on_c, 11, 70, 127
2, 185377, Note_off_c, 10, 69, 127
2, 185498, Note_off_c, 11, 70, 127
2, 185498, Note_off_c, 2, 62, 127
2, 185500, Note_on_c, 0, 60, 127
2, 185500, Note_on_c, 0, 72, 127
2, 185662, Note_off_c, 0, 72, 127
2, 185662, Note_off_c, 0, 60, 127
2, 185664, Note_on_c, 11, 58, 127
2, 185664, Note_on_c, 3, 75, 127
2, 185826, Note_off_c, 3, 75, 127
2, 185826, Note_off_c, 11, 58, 127
2, 185829, Note_on_c, 10, 57, 127
2, 185829, Note_on_c, 5, 65, 127
2, 185991, Note_off_c, 10, 57, 127
2, 185993, Note_on_c, 2, 62, 127
2, 185993, Note_on_c, 7, 67, 127
2, 186155, Note_off_c, 7, 67, 127
2, 186155, Note_off_c, 2, 62, 127
2, 186157, Note_on_c, 0, 60, 127
2, 186157, Note_on_c, 10, 69, 127
2, 186307, Note_off_c, 5, 65, 127
2, 186319, Note_off_c, 10, 69, 127
2, 186319, Note_off_c, 0, 60, 127
2, 186321, Note_on_c, 2, 62, 127
2, 186321, Note_on_c, 5, 77, 127
2, 186483, Note_off_c, 5, 77, 127
2, 186483, Note_off_c, 2, 62, 127
2, 186485, Note_on_c, 11, 58, 127
2, 186485, Note_on_c, 7, 67, 127
2, 186647, Note_off_c, 11, 58, 127
2, 186649, Note_on_c, 0, 60, 127
2, 186649, Note_on_c, 10, 69, 127
2, 186690, Note_off_c, 7, 67, 127
2, 186811, Note_off_c, 10, 69, 127
2, 186811, Note_off_c, 0, 60, 127
2, 186814, Note_on_c, 11, 58, 127
2, 186814, Note_on_c, 11, 70, 127
2, 186976, Note_off_c, 11, 70, 127
2, 186976, Note_off_c, 11, 58, 127
2, 186978, Note_on_c, 10, 57, 127
2, 186978, Note_on_c, 2, 74, 127
2, 187140, Note_off_c, 2, 74, 127
2, 187140, Note_off_c, 10, 57, 127
2, 187142, Note_on_c, 7, 55, 127
2, 187142, Note_on_c, 3, 63, 127
2, 187304, Note_off_c, 7, 55, 127
2, 187306, Note_on_c, 0, 60, 127
2, 187306, Note_on_c, 5, 65, 127
2, 187449, Note_off_c, 3, 63, 127
2, 187468, Note_off_c, 5, 65, 127
2, 187468, Note_off_c, 0, 60, 127
2, 187470, Note_on_c, 11, 58, 127
2, 187470, Note_on_c, 7, 67, 127
2, 187632, Note_off_c, 7, 67, 127
2, 187632, Note_off_c, 11, 58, 127
2, 187634, Note_on_c, 0, 60, 127
2, 187634, Note_on_c, 3, 75, 127
2, 187796, Note_off_c, 3, 75, 127
2, 187796, Note_off_c, 0, 60, 127
2, 187799, Note_on_c, 10, 57, 127
2, 187799, Note_on_c, 5, 65, 127
2, 187961, Note_off_c, 10, 57, 127
2, 187963, Note_on_c, 11, 58, 127
2, 187963, Note_on_c, 7, 67, 127
2, 188004, Note_off_c, 5, 65, 127
2, 188125, Note_off_c, 7, 67, 127
2, 188125, Note_off_c, 11, 58, 127
2, 188127, Note_on_c, 10, 57, 127
2, 188127, Note_on_c, 10, 69, 127
2, 188289, Note_off_c, 10, 69, 127
2, 188289, Note_off_c, 10, 57, 127
2, 188291, Note_on_c, 7, 55, 127
2, 188291, Note_on_c, 0, 72, 127
2, 188453, Note_off_c, 0, 72, 127
2, 188453, Note_off_c, 7, 55, 127
2, 188455, Note_on_c, 5, 53, 127
2, 188455, Note_on_c, 2, 62, 127
2, 188617, Note_off_c, 5, 53, 127
2, 188619, Note_on_c, 11, 58, 127
2, 188619, Note_on_c, 3, 63, 127
2, 188694, Note_off_c, 2, 62, 127
2, 188781, Note_off_c, 3, 63, 127
2, 188781, Note_off_c, 11, 58, 127
2, 188784, Note_on_c, 10, 57, 127
2, 188784, Note_on_c, 5, 65, 127
2, 188946, Note_off_c, 5, 65, 127
2, 188946, Note_off_c, 10, 57, 127
2, 188948, Note_on_c, 11, 58, 127
2, 188948, Note_on_c, 2, 74, 127
2, 189110, Note_off_c, 2, 74, 127
2, 189110, Note_off_c, 11, 58, 127
2, 189112, Note_on_c, 7, 55, 127
2, 189112, Note_on_c, 3, 63, 127
2, 189276, Note_on_c, 2, 74, 127
2, 189385, Note_off_c, 3, 63, 127
2, 189438, Note_off_c, 2, 74, 127
2, 189438, Note_off_c, 7, 55, 127
2, 189440, Note_on_c, 5, 53, 127
2, 189440, Note_on_c, 2, 62, 127
2, 189604, Note_on_c, 2, 74, 127
2, 189628, Note_off_c, 2, 62, 127
2, 189766, Note_off_c, 2, 74, 127
2, 189766, Note_off_c, 5, 53, 127
2, 189768, Note_on_c, 7, 55, 127
2, 189768, Note_on_c, 3, 63, 127
2, 189933, Note_on_c, 0, 72, 127
2, 189956, Note_off_c, 3, 63, 127
2, 190094, Note_off_c, 7, 55, 127
2, 190095, Note_off_c, 0, 72, 127
2, 190097, Note_on_c, 10, 57, 127
2, 190097, Note_on_c, 0, 60, 127
2, 190261, Note_on_c, 0, 72, 127
2, 190285, Note_off_c, 0, 60, 127
2, 190423, Note_off_c, 0, 72, 127
2, 190423, Note_off_c, 10, 57, 127
2, 190425, Note_on_c, 11, 58, 127
2, 190425, Note_on_c, 2, 62, 127
2, 190589, Note_on_c, 0, 72, 127
2, 190698, Note_off_c, 2, 62, 127
2, 190751, Note_off_c, 0, 72, 127
2, 190751, Note_off_c, 11, 58, 127
2, 190753, Note_on_c, 0, 60, 127
2, 190753, Note_on_c, 3, 63, 127
2, 190915, Note_off_c, 3, 63, 127
2, 190918, Note_on_c, 0, 72, 127
2, 191079, Note_off_c, 0, 60, 127
2, 191080, Note_off_c, 0, 72, 127
2, 191082, Note_on_c, 2, 62, 127
2, 191082, Note_on_c, 5, 65, 127
2, 191244, Note_off_c, 5, 65, 127
2, 191246, Note_on_c, 11, 70, 127
2, 191408, Note_off_c, 11, 70, 127
2, 191408, Note_off_c, 2, 62, 127
2, 191410, Note_on_c, 11, 46, 127
2, 191410, Note_on_c, 2, 62, 127
2, 191572, Note_off_c, 2, 62, 127
2, 191574, Note_on_c, 11, 70, 127
2, 191736, Note_off_c, 11, 70, 127
2, 191736, Note_off_c, 11, 46, 127
2, 191738, Note_on_c, 3, 51, 127
2, 191738, Note_on_c, 7, 67, 127
2, 191903, Note_on_c, 11, 70, 127
2, 191977, Note_off_c, 7, 67, 127
2, 192064, Note_off_c, 3, 51, 127
2, 192065, Note_off_c, 11, 70, 127
2, 192067, Note_on_c, 2, 50, 127
2, 192067, Note_on_c, 5, 65, 127
2, 192231, Note_on_c, 11, 70, 127
2, 192306, Note_off_c, 5, 65, 127
2, 192393, Note_off_c, 11, 70, 127
2, 192393, Note_off_c, 2, 50, 127
2, 192395, Note_on_c, 0, 48, 127
2, 192395, Note_on_c, 3, 63, 127
2, 192559, Note_on_c, 11, 70, 127
2, 192651, Note_off_c, 3, 63, 127
2, 192721, Note_off_c, 11, 70, 127
2, 192721, Note_off_c, 0, 48, 127
2, 192723, Note_on_c, 3, 51, 127
2, 192723, Note_on_c, 7, 67, 127
2, 192885, Note_off_c, 7, 67, 127
2, 192888, Note_on_c, 11, 70, 127
2, 193049, Note_off_c, 3, 51, 127
2, 193050, Note_off_c, 11, 70, 127
2, 193052, Note_on_c, 2, 50, 127
2, 193052, Note_on_c, 5, 65, 127
2, 193216, Note_on_c, 11, 70, 127
2, 193291, Note_off_c, 5, 65, 127
2, 193378, Note_off_c, 11, 70, 127
2, 193378, Note_off_c, 2, 50, 127
2, 193380, Note_on_c, 0, 48, 127
2, 193380, Note_on_c, 3, 63, 127
2, 193544, Note_on_c, 11, 70, 127
2, 193636, Note_off_c, 3, 63, 127
2, 193706, Note_off_c, 11, 70, 127
2, 193706, Note_off_c, 0, 48, 127
2, 193708, Note_on_c, 11, 46, 127
2, 193708, Note_on_c, 2, 62, 127
2, 193872, Note_on_c, 11, 70, 127
2, 193981, Note_off_c, 2, 62, 127
2, 194034, Note_off_c, 11, 70, 127
2, 194037, Note_on_c, 0, 48, 127
2, 194037, Note_on_c, 0, 60, 127
2, 194199, Note_off_c, 0, 60, 127
2, 194201, Note_on_c, 11, 70, 127
2, 194363, Note_off_c, 11, 70, 127
2, 194363, Note_off_c, 0, 48, 127
2, 194365, Note_on_c, 2, 50, 127
2, 194365, Note_on_c, 11, 58, 127
2, 194527, Note_off_c, 11, 58, 127
2, 194529, Note_on_c, 11, 70, 127
2, 194691, Note_off_c, 11, 70, 127
2, 194691, Note_off_c, 2, 50, 127
2, 194691, Note_off_c, 11, 46, 127
2, 194693, Note_on_c, 4, 52, 127
2, 194693, Note_on_c, 11, 46, 127
2, 194693, Note_on_c, 0, 60, 127
2, 194855, Note_off_c, 0, 60, 127
2, 194857, Note_on_c, 11, 70, 127
2, 195019, Note_off_c, 11, 70, 127
2, 195019, Note_off_c, 11, 46, 127
2, 195019, Note_off_c, 4, 52, 127
2, 195022, Note_on_c, 10, 45, 127
2, 195022, Note_on_c, 5, 53, 127
2, 195022, Note_on_c, 2, 62, 127
2, 195184, Note_off_c, 2, 62, 127
2, 195186, Note_on_c, 11, 70, 127
2, 195348, Note_off_c, 11, 70, 127
2, 195348, Note_off_c, 5, 53, 127
2, 195348, Note_off_c, 10, 45, 127
2, 195350, Note_on_c, 7, 55, 127
2, 195350, Note_on_c, 7, 43, 127
2, 195350, Note_on_c, 4, 64, 127
2, 195512, Note_off_c, 4, 64, 127
2, 195514, Note_on_c, 11, 70, 127
2, 195676, Note_off_c, 11, 70, 127
2, 195676, Note_off_c, 7, 43, 127
2, 195676, Note_off_c, 7, 55, 127
2, 195678, Note_on_c, 0, 48, 127
2, 195678, Note_on_c, 5, 41, 127
2, 195678, Note_on_c, 10, 69, 127
2, 195678, Note_on_c, 5, 65, 127
2, 195840, Note_off_c, 5, 65, 127
2, 195842, Note_on_c, 0, 60, 127
2, 196004, Note_off_c, 0, 60, 127
2, 196007, Note_on_c, 2, 62, 127
2, 196156, Note_off_c, 10, 69, 127
2, 196169, Note_off_c, 2, 62, 127
2, 196171, Note_on_c, 4, 64, 127
2, 196327, Note_off_c, 5, 41, 127
2, 196333, Note_off_c, 4, 64, 127
2, 196335, Note_on_c, 5, 65, 127
2, 196447, Note_off_c, 0, 48, 127
2, 196497, Note_off_c, 5, 65, 127
2, 196499, Note_on_c, 5, 53, 127
2, 196499, Note_on_c, 7, 67, 127
2, 196661, Note_off_c, 7, 67, 127
2, 196661, Note_off_c, 5, 53, 127
2, 196663, Note_on_c, 4, 52, 127
2, 196663, Note_on_c, 10, 69, 127
2, 196743, Note_off_c, 10, 69, 127
2, 196745, Note_on_c, 7, 67, 127
2, 196825, Note_off_c, 7, 67, 127
2, 196825, Note_off_c, 4, 52, 127
2, 196827, Note_on_c, 5, 53, 127
2, 196827, Note_on_c, 5, 65, 127
2, 196907, Note_off_c, 5, 65, 127
2, 196909, Note_on_c, 7, 67, 127
2, 196989, Note_off_c, 7, 67, 127
2, 196989, Note_off_c, 5, 53, 127
2, 196992, Note_on_c, 0, 48, 127
2, 196992, Note_on_c, 10, 69, 127
2, 197154, Note_off_c, 0, 48, 127
2, 197156, Note_on_c, 5, 53, 127
2, 197318, Note_off_c, 5, 53, 127
2, 197318, Note_off_c, 10, 69, 127
2, 197320, Note_on_c, 2, 50, 127
2, 197320, Note_on_c, 11, 70, 127
2, 197482, Note_off_c, 2, 50, 127
2, 197484, Note_on_c, 5, 53, 127
2, 197646, Note_off_c, 5, 53, 127
2, 197646, Note_off_c, 11, 70, 127
2, 197648, Note_on_c, 0, 48, 127
2, 197648, Note_on_c, 10, 69, 127
2, 197810, Note_off_c, 0, 48, 127
2, 197812, Note_on_c, 5, 53, 127
2, 197974, Note_off_c, 5, 53, 127
2, 197974, Note_off_c, 10, 69, 127
2, 197976, Note_on_c, 11, 46, 127
2, 197976, Note_on_c, 7, 67, 127
2, 198138, Note_off_c, 11, 46, 127
2, 198141, Note_on_c, 5, 53, 127
2, 198302, Note_off_c, 7, 67, 127
2, 198303, Note_off_c, 5, 53, 127
2, 198305, Note_on_c, 10, 45, 127
2, 198305, Note_on_c, 5, 65, 127
2, 198467, Note_off_c, 10, 45, 127
2, 198469, Note_on_c, 5, 53, 127
2, 198631, Note_off_c, 5, 53, 127
2, 198633, Note_on_c, 11, 46, 127
2, 198633, Note_on_c, 2, 74, 127
2, 198795, Note_off_c, 11, 46, 127
2, 198797, Note_on_c, 5, 53, 127
2, 198959, Note_off_c, 5, 53, 127
2, 198959, Note_off_c, 2, 74, 127
2, 198961, Note_on_c, 10, 45, 127
2, 198961, Note_on_c, 0, 72, 127
2, 199123, Note_off_c, 10, 45, 127
2, 199126, Note_on_c, 5, 53, 127
2, 199287, Note_off_c, 0, 72, 127
2, 199288, Note_off_c, 5, 53, 127
2, 199290, Note_on_c, 7, 43, 127
2, 199290, Note_on_c, 11, 70, 127
2, 199452, Note_off_c, 7, 43, 127
2, 199454, Note_on_c, 5, 53, 127
2, 199616, Note_off_c, 5, 53, 127
2, 199616, Note_off_c, 11, 70, 127
2, 199618, Note_on_c, 5, 41, 127
2, 199618, Note_on_c, 10, 69, 127
2, 199780, Note_off_c, 5, 41, 127
2, 199782, Note_on_c, 5, 53, 127
2, 199944, Note_off_c, 5, 53, 127
2, 199944, Note_off_c, 10, 69, 127
2, 199946, Note_on_c, 7, 43, 127
2, 199946, Note_on_c, 11, 70, 127
2, 200108, Note_off_c, 7, 43, 127
2, 200111, Note_on_c, 5, 53, 127
2, 200272, Note_off_c, 11, 70, 127
2, 200273, Note_off_c, 5, 53, 127
2, 200275, Note_on_c, 10, 45, 127
2, 200275, Note_on_c, 0, 72, 127
2, 200437, Note_off_c, 10, 45, 127
2, 200439, Note_on_c, 5, 53, 127
2, 200601, Note_off_c, 5, 53, 127
2, 200601, Note_off_c, 0, 72, 127
2, 200603, Note_on_c, 11, 46, 127
2, 200603, Note_on_c, 2, 74, 127
2, 200765, Note_off_c, 11, 46, 127
2, 200767, Note_on_c, 5, 53, 127
2, 200921, Note_off_c, 5, 65, 127
2, 200929, Note_off_c, 5, 53, 127
2, 200929, Note_off_c, 2, 74, 127
2, 200931, Note_on_c, 0, 48, 127
2, 200931, Note_on_c, 7, 67, 127
2, 201093, Note_off_c, 0, 48, 127
2, 201096, Note_on_c, 7, 43, 127
2, 201258, Note_off_c, 7, 43, 127
2, 201260, Note_on_c, 10, 45, 127
2, 201260, Note_on_c, 4, 64, 127
2, 201422, Note_off_c, 4, 64, 127
2, 201422, Note_off_c, 10, 45, 127
2, 201424, Note_on_c, 12, 47, 127
2, 201424, Note_on_c, 2, 62, 127
2, 201580, Note_off_c, 7, 67, 127
2, 201586, Note_off_c, 2, 62, 127
2, 201586, Note_off_c, 12, 47, 127
2, 201588, Note_on_c, 0, 48, 127
2, 201588, Note_on_c, 4, 64, 127
2, 201750, Note_off_c, 0, 48, 127
2, 201752, Note_on_c, 2, 50, 127
2, 201914, Note_off_c, 2, 50, 127
2, 201914, Note_off_c, 4, 64, 127
2, 201916, Note_on_c, 4, 52, 127
2, 201916, Note_on_c, 4, 64, 127
2, 201916, Note_on_c, 7, 67, 127
2, 201916, Note_on_c, 0, 72, 127
2, 202078, Note_off_c, 4, 52, 127
2, 202080, Note_on_c, 0, 48, 127
2, 202242, Note_off_c, 0, 48, 127
2, 202242, Note_off_c, 0, 72, 127
2, 202242, Note_off_c, 7, 67, 127
2, 202242, Note_off_c, 4, 64, 127
2, 202245, Note_on_c, 5, 53, 127
2, 202245, Note_on_c, 2, 62, 127
2, 202245, Note_on_c, 0, 72, 127
2, 202245, Note_on_c, 10, 69, 127
2, 202407, Note_off_c, 5, 53, 127
2, 202409, Note_on_c, 7, 55, 127
2, 202571, Note_off_c, 7, 55, 127
2, 202571, Note_off_c, 0, 72, 127
2, 202573, Note_on_c, 5, 53, 127
2, 202573, Note_on_c, 2, 74, 127
2, 202735, Note_off_c, 2, 74, 127
2, 202735, Note_off_c, 5, 53, 127
2, 202737, Note_on_c, 4, 52, 127
2, 202737, Note_on_c, 0, 72, 127
2, 202894, Note_off_c, 10, 69, 127
2, 202894, Note_off_c, 2, 62, 127
2, 202899, Note_off_c, 0, 72, 127
2, 202899, Note_off_c, 4, 52, 127
2, 202901, Note_on_c, 2, 50, 127
2, 202901, Note_on_c, 11, 70, 127
2, 203063, Note_off_c, 2, 50, 127
2, 203065, Note_on_c, 7, 55, 127
2, 203227, Note_off_c, 7, 55, 127
2, 203227, Note_off_c, 11, 70, 127
2, 203230, Note_on_c, 5, 53, 127
2, 203230, Note_on_c, 7, 67, 127
2, 203230, Note_on_c, 2, 62, 127
2, 203230, Note_on_c, 11, 70, 127
2, 203392, Note_off_c, 5, 53, 127
2, 203394, Note_on_c, 7, 55, 127
2, 203554, Note_off_c, 11, 70, 127
2, 203554, Note_off_c, 2, 62, 127
2, 203554, Note_off_c, 7, 67, 127
2, 203556, Note_off_c, 7, 55, 127
2, 203558, Note_on_c, 4, 52, 127
2, 203558, Note_on_c, 11, 70, 127
2, 203558, Note_on_c, 7, 67, 127
2, 203558, Note_on_c, 0, 60, 127
2, 203720, Note_off_c, 4, 52, 127
2, 203722, Note_on_c, 0, 48, 127
2, 203884, Note_off_c, 0, 48, 127
2, 203884, Note_off_c, 11, 70, 127
2, 203886, Note_on_c, 2, 50, 127
2, 203886, Note_on_c, 0, 72, 127
2, 204048, Note_off_c, 0, 72, 127
2, 204048, Note_off_c, 2, 50, 127
2, 204050, Note_on_c, 4, 52, 127
2, 204050, Note_on_c, 11, 70, 127
2, 204207, Note_off_c, 0, 60, 127
2, 204207, Note_off_c, 7, 67, 127
2, 204212, Note_off_c, 11, 70, 127
2, 204212, Note_off_c, 4, 52, 127
2, 204215, Note_on_c, 5, 53, 127
2, 204215, Note_on_c, 10, 69, 127
2, 204377, Note_off_c, 5, 53, 127
2, 204379, Note_on_c, 7, 55, 127
2, 204541, Note_off_c, 7, 55, 127
2, 204541, Note_off_c, 10, 69, 127
2, 204543, Note_on_c, 10, 57, 127
2, 204543, Note_on_c, 5, 77, 127
2, 204543, Note_on_c, 0, 72, 127
2, 204543, Note_on_c, 10, 69, 127
2, 204705, Note_off_c, 10, 57, 127
2, 204707, Note_on_c, 5, 53, 127
2, 204869, Note_off_c, 5, 53, 127
2, 204869, Note_off_c, 10, 69, 127
2, 204869, Note_off_c, 0, 72, 127
2, 204869, Note_off_c, 5, 77, 127
2, 204871, Note_on_c, 11, 58, 127
2, 204871, Note_on_c, 7, 67, 127
2, 204871, Note_on_c, 5, 77, 127
2, 204871, Note_on_c, 2, 74, 127
2, 205033, Note_off_c, 11, 58, 127
2, 205035, Note_on_c, 0, 60, 127
2, 205197, Note_off_c, 0, 60, 127
2, 205197, Note_off_c, 5, 77, 127
2, 205200, Note_on_c, 11, 58, 127
2, 205200, Note_on_c, 7, 79, 127
2, 205362, Note_off_c, 7, 79, 127
2, 205362, Note_off_c, 11, 58, 127
2, 205364, Note_on_c, 10, 57, 127
2, 205364, Note_on_c, 5, 77, 127
2, 205520, Note_off_c, 2, 74, 127
2, 205520, Note_off_c, 7, 67, 127
2, 205526, Note_off_c, 5, 77, 127
2, 205526, Note_off_c, 10, 57, 127
2, 205528, Note_on_c, 7, 55, 127
2, 205528, Note_on_c, 3, 75, 127
2, 205690, Note_off_c, 7, 55, 127
2, 205692, Note_on_c, 0, 60, 127
2, 205854, Note_off_c, 0, 60, 127
2, 205854, Note_off_c, 3, 75, 127
2, 205856, Note_on_c, 11, 58, 127
2, 205856, Note_on_c, 3, 75, 127
2, 205856, Note_on_c, 0, 72, 127
2, 205856, Note_on_c, 7, 67, 127
2, 206018, Note_off_c, 11, 58, 127
2, 206020, Note_on_c, 0, 60, 127
2, 206182, Note_off_c, 0, 60, 127
2, 206182, Note_off_c, 7, 67, 127
2, 206182, Note_off_c, 0, 72, 127
2, 206182, Note_off_c, 3, 75, 127
2, 206184, Note_on_c, 10, 57, 127
2, 206184, Note_on_c, 0, 72, 127
2, 206184, Note_on_c, 5, 65, 127
2, 206184, Note_on_c, 3, 75, 127
2, 206346, Note_off_c, 10, 57, 127
2, 206349, Note_on_c, 5, 53, 127
2, 206510, Note_off_c, 3, 75, 127
2, 206511, Note_off_c, 5, 53, 127
2, 206513, Note_on_c, 7, 55, 127
2, 206513, Note_on_c, 5, 77, 127
2, 206675, Note_off_c, 5, 77, 127
2, 206675, Note_off_c, 7, 55, 127
2, 206677, Note_on_c, 10, 57, 127
2, 206677, Note_on_c, 3, 75, 127
2, 206833, Note_off_c, 5, 65, 127
2, 206833, Note_off_c, 0, 72, 127
2, 206839, Note_off_c, 3, 75, 127
2, 206839, Note_off_c, 10, 57, 127
2, 206841, Note_on_c, 11, 58, 127
2, 206841, Note_on_c, 2, 74, 127
2, 207003, Note_off_c, 11, 58, 127
2, 207005, Note_on_c, 0, 60, 127
2, 207167, Note_off_c, 0, 60, 127
2, 207167, Note_off_c, 2, 74, 127
2, 207169, Note_on_c, 2, 62, 127
2, 207169, Note_on_c, 5, 77, 127
2, 207169, Note_on_c, 2, 74, 127
2, 207169, Note_on_c, 11, 82, 127
2, 207331, Note_off_c, 2, 62, 127
2, 207334, Note_on_c, 11, 58, 127
2, 207495, Note_off_c, 11, 82, 127
2, 207495, Note_off_c, 2, 74, 127
2, 207495, Note_off_c, 5, 77, 127
2, 207496, Note_off_c, 11, 58, 127
2, 207498, Note_on_c, 3, 63, 127
2, 207498, Note_on_c, 11, 82, 127
2, 207498, Note_on_c, 0, 72, 127
2, 207498, Note_on_c, 7, 79, 127
2, 207660, Note_off_c, 3, 63, 127
2, 207662, Note_on_c, 5, 65, 127
2, 207824, Note_off_c, 5, 65, 127
2, 207824, Note_off_c, 11, 82, 127
2, 207826, Note_on_c, 3, 63, 127
2, 207826, Note_on_c, 0, 84, 127
2, 207988, Note_off_c, 0, 84, 127
2, 207988, Note_off_c, 3, 63, 127
2, 207990, Note_on_c, 2, 62, 127
2, 207990, Note_on_c, 11, 82, 127
2, 208147, Note_off_c, 7, 79, 127
2, 208147, Note_off_c, 0, 72, 127
2, 208152, Note_off_c, 11, 82, 127
2, 208152, Note_off_c, 2, 62, 127
2, 208154, Note_on_c, 0, 60, 127
2, 208154, Note_on_c, 10, 81, 127
2, 208316, Note_off_c, 0, 60, 127
2, 208319, Note_on_c, 5, 65, 127
2, 208480, Note_off_c, 10, 81, 127
2, 208481, Note_off_c, 5, 65, 127
2, 208483, Note_on_c, 3, 63, 127
2, 208483, Note_on_c, 5, 77, 127
2, 208483, Note_on_c, 0, 72, 127
2, 208483, Note_on_c, 10, 81, 127
2, 208645, Note_off_c, 3, 63, 127
2, 208647, Note_on_c, 5, 65, 127
2, 208809, Note_off_c, 5, 65, 127
2, 208809, Note_off_c, 10, 81, 127
2, 208809, Note_off_c, 0, 72, 127
2, 208809, Note_off_c, 5, 77, 127
2, 208811, Note_on_c, 2, 62, 127
2, 208811, Note_on_c, 11, 70, 127
2, 208811, Note_on_c, 10, 81, 127
2, 208811, Note_on_c, 5, 77, 127
2, 208973, Note_off_c, 2, 62, 127
2, 208975, Note_on_c, 3, 63, 127
2, 209137, Note_off_c, 3, 63, 127
2, 209137, Note_off_c, 10, 81, 127
2, 209139, Note_on_c, 2, 62, 127
2, 209139, Note_on_c, 11, 82, 127
2, 209301, Note_off_c, 11, 82, 127
2, 209301, Note_off_c, 2, 62, 127
2, 209304, Note_on_c, 0, 60, 127
2, 209304, Note_on_c, 10, 81, 127
2, 209460, Note_off_c, 5, 77, 127
2, 209460, Note_off_c, 11, 70, 127
2, 209466, Note_off_c, 10, 81, 127
2, 209466, Note_off_c, 0, 60, 127
2, 209468, Note_on_c, 11, 58, 127
2, 209468, Note_on_c, 7, 79, 127
2, 209630, Note_off_c, 11, 58, 127
2, 209632, Note_on_c, 10, 57, 127
2, 209794, Note_off_c, 10, 57, 127
2, 209794, Note_off_c, 7, 79, 127
2, 209796, Note_on_c, 7, 55, 127
2, 209796, Note_on_c, 2, 74, 127
2, 209796, Note_on_c, 11, 70, 127
2, 209796, Note_on_c, 7, 79, 127
2, 209958, Note_off_c, 7, 55, 127
2, 209960, Note_on_c, 5, 53, 127
2, 210122, Note_off_c, 5, 53, 127
2, 210122, Note_off_c, 7, 79, 127
2, 210122, Note_off_c, 11, 70, 127
2, 210122, Note_off_c, 2, 74, 127
2, 210124, Note_on_c, 4, 52, 127
2, 210124, Note_on_c, 0, 72, 127
2, 210124, Note_on_c, 7, 79, 127
2, 210124, Note_on_c, 2, 74, 127
2, 210286, Note_off_c, 4, 52, 127
2, 210288, Note_on_c, 2, 50, 127
2, 210450, Note_off_c, 2, 50, 127
2, 210450, Note_off_c, 2, 74, 127
2, 210450, Note_off_c, 7, 79, 127
2, 210450, Note_off_c, 0, 72, 127
2, 210453, Note_on_c, 0, 48, 127
2, 210453, Note_on_c, 10, 81, 127
2, 210615, Note_off_c, 10, 81, 127
2, 210615, Note_off_c, 0, 48, 127
2, 210617, Note_on_c, 11, 46, 127
2, 210617, Note_on_c, 7, 79, 127
2, 210779, Note_off_c, 7, 79, 127
2, 210779, Note_off_c, 11, 46, 127
2, 210781, Note_on_c, 10, 45, 127
2, 210781, Note_on_c, 5, 77, 127
2, 210943, Note_off_c, 5, 77, 127
2, 210943, Note_off_c, 10, 45, 127
2, 210945, Note_on_c, 7, 43, 127
2, 210945, Note_on_c, 10, 81, 127
2, 211107, Note_off_c, 10, 81, 127
2, 211107, Note_off_c, 7, 43, 127
2, 211109, Note_on_c, 10, 45, 127
2, 211109, Note_on_c, 7, 79, 127
2, 211271, Note_off_c, 7, 79, 127
2, 211271, Note_off_c, 10, 45, 127
2, 211273, Note_on_c, 5, 41, 127
2, 211273, Note_on_c, 5, 77, 127
2, 211435, Note_off_c, 5, 77, 127
2, 211435, Note_off_c, 5, 41, 127
2, 211438, Note_on_c, 0, 36, 127
2, 211438, Note_on_c, 4, 76, 127
2, 211600, Note_off_c, 4, 76, 127
2, 211602, Note_on_c, 2, 74, 127
2, 211711, Note_off_c, 0, 36, 127
2, 211764, Note_off_c, 2, 74, 127
2, 211766, Note_on_c, 7, 55, 127
2, 211766, Note_on_c, 0, 72, 127
2, 211928, Note_off_c, 0, 72, 127
2, 211930, Note_on_c, 2, 74, 127
2, 212092, Note_off_c, 2, 74, 127
2, 212092, Note_off_c, 7, 55, 127
2, 212094, Note_on_c, 0, 60, 127
2, 212094, Note_on_c, 4, 76, 127
2, 212256, Note_off_c, 4, 76, 127
2, 212258, Note_on_c, 2, 74, 127
2, 212420, Note_off_c, 2, 74, 127
2, 212420, Note_off_c, 0, 60, 127
2, 212423, Note_on_c, 0, 60, 127
2, 212423, Note_on_c, 4, 76, 127
2, 212585, Note_off_c, 4, 76, 127
2, 212587, Note_on_c, 0, 72, 127
2, 212749, Note_off_c, 0, 72, 127
2, 212749, Note_off_c, 0, 60, 127
2, 212751, Note_on_c, 0, 60, 127
2, 212751, Note_on_c, 2, 74, 127
2, 212913, Note_off_c, 2, 74, 127
2, 212915, Note_on_c, 4, 76, 127
2, 213077, Note_off_c, 4, 76, 127
2, 213077, Note_off_c, 0, 60, 127
2, 213079, Note_on_c, 2, 62, 127
2, 213079, Note_on_c, 5, 77, 127
2, 213241, Note_off_c, 5, 77, 127
2, 213241, Note_off_c, 2, 62, 127
2, 213243, Note_on_c, 0, 60, 127
2, 213243, Note_on_c, 10, 81, 127
2, 213405, Note_off_c, 10, 81, 127
2, 213405, Note_off_c, 0, 60, 127
2, 213408, Note_on_c, 11, 58, 127
2, 213408, Note_on_c, 7, 79, 127
2, 213570, Note_off_c, 7, 79, 127
2, 213572, Note_on_c, 10, 81, 127
2, 213734, Note_off_c, 10, 81, 127
2, 213734, Note_off_c, 11, 58, 127
2, 213736, Note_on_c, 11, 58, 127
2, 213736, Note_on_c, 11, 82, 127
2, 213898, Note_off_c, 11, 82, 127
2, 213900, Note_on_c, 2, 74, 127
2, 214062, Note_off_c, 2, 74, 127
2, 214062, Note_off_c, 11, 58, 127
2, 214064, Note_on_c, 11, 58, 127
2, 214064, Note_on_c, 0, 72, 127
2, 214226, Note_off_c, 0, 72, 127
2, 214228, Note_on_c, 2, 74, 127
2, 214390, Note_off_c, 2, 74, 127
2, 214390, Note_off_c, 11, 58, 127
2, 214392, Note_on_c, 0, 60, 127
2, 214392, Note_on_c, 4, 76, 127
2, 214554, Note_off_c, 4, 76, 127
2, 214554, Note_off_c, 0, 60, 127
2, 214557, Note_on_c, 11, 58, 127
2, 214557, Note_on_c, 7, 79, 127
2, 214719, Note_off_c, 7, 79, 127
2, 214719, Note_off_c, 11, 58, 127
2, 214721, Note_on_c, 10, 57, 127
2, 214721, Note_on_c, 5, 77, 127
2, 214883, Note_off_c, 5, 77, 127
2, 214885, Note_on_c, 7, 79, 127
2, 215047, Note_off_c, 7, 79, 127
2, 215047, Note_off_c, 10, 57, 127
2, 215049, Note_on_c, 10, 57, 127
2, 215049, Note_on_c, 10, 81, 127
2, 215211, Note_off_c, 10, 81, 127
2, 215213, Note_on_c, 0, 72, 127
2, 215375, Note_off_c, 0, 72, 127
2, 215375, Note_off_c, 10, 57, 127
2, 215377, Note_on_c, 10, 57, 127
2, 215377, Note_on_c, 11, 70, 127
2, 215539, Note_off_c, 11, 70, 127
2, 215542, Note_on_c, 0, 72, 127
2, 215703, Note_off_c, 10, 57, 127
2, 215704, Note_off_c, 0, 72, 127
2, 215706, Note_on_c, 11, 58, 127
2, 215706, Note_on_c, 2, 74, 127
2, 215868, Note_off_c, 2, 74, 127
2, 215868, Note_off_c, 11, 58, 127
2, 215870, Note_on_c, 10, 57, 127
2, 215870, Note_on_c, 5, 77, 127
2, 216032, Note_off_c, 5, 77, 127
2, 216032, Note_off_c, 10, 57, 127
2, 216034, Note_on_c, 7, 55, 127
2, 216034, Note_on_c, 4, 76, 127
2, 216196, Note_off_c, 4, 76, 127
2, 216196, Note_off_c, 7, 55, 127
2, 216198, Note_on_c, 5, 53, 127
2, 216198, Note_on_c, 5, 77, 127
2, 216360, Note_off_c, 5, 77, 127
2, 216360, Note_off_c, 5, 53, 127
2, 216362, Note_on_c, 4, 52, 127
2, 216362, Note_on_c, 7, 79, 127
2, 216524, Note_off_c, 4, 52, 127
2, 216527, Note_on_c, 7, 55, 127
2, 216527, Note_on_c, 11, 70, 127
2, 216550, Note_off_c, 7, 79, 127
2, 216689, Note_off_c, 11, 70, 127
2, 216689, Note_off_c, 7, 55, 127
2, 216691, Note_on_c, 5, 53, 127
2, 216691, Note_on_c, 10, 69, 127
2, 216853, Note_off_c, 5, 53, 127
2, 216855, Note_on_c, 11, 58, 127
2, 216990, Note_off_c, 10, 69, 127
2, 217017, Note_off_c, 11, 58, 127
2, 217019, Note_on_c, 10, 57, 127
2, 217019, Note_on_c, 0, 72, 127
2, 217181, Note_off_c, 10, 57, 127
2, 217183, Note_on_c, 7, 55, 127
2, 217318, Note_off_c, 0, 72, 127
2, 217345, Note_off_c, 7, 55, 127
2, 217347, Note_on_c, 5, 53, 127
2, 217347, Note_on_c, 5, 77, 127
2, 217429, Note_off_c, 5, 77, 127
2, 217429, Note_on_c, 4, 76, 127
2, 217509, Note_off_c, 5, 53, 127
2, 217511, Note_off_c, 4, 76, 127
2, 217512, Note_on_c, 4, 52, 127
2, 217512, Note_on_c, 5, 77, 127
2, 217674, Note_off_c, 4, 52, 127
2, 217676, Note_on_c, 2, 50, 127
2, 217836, Note_off_c, 5, 77, 127
2, 217838, Note_off_c, 2, 50, 127
2, 217840, Note_on_c, 5, 53, 127
2, 217840, Note_on_c, 5, 77, 127
2, 218002, Note_off_c, 5, 77, 127
2, 218002, Note_off_c, 5, 53, 127
2, 218004, Note_on_c, 11, 46, 127
2, 218004, Note_on_c, 5, 77, 127
2, 218166, Note_off_c, 5, 77, 127
2, 218166, Note_off_c, 11, 46, 127
2, 218168, Note_on_c, 2, 50, 127
2, 218168, Note_on_c, 11, 82, 127
2, 218330, Note_off_c, 11, 82, 127
2, 218330, Note_off_c, 2, 50, 127
2, 218332, Note_on_c, 0, 48, 127
2, 218332, Note_on_c, 10, 81, 127
2, 218494, Note_off_c, 10, 81, 127
2, 218494, Note_off_c, 0, 48, 127
2, 218496, Note_on_c, 11, 46, 127
2, 218496, Note_on_c, 7, 79, 127
2, 218658, Note_off_c, 7, 79, 127
2, 218658, Note_off_c, 11, 46, 127
2, 218661, Note_on_c, 0, 48, 127
2, 218661, Note_on_c, 10, 81, 127
2, 218736, Note_on_c, 7, 79, 127
2, 218741, Note_off_c, 10, 81, 127
2, 218799, Note_on_c, 10, 81, 127
2, 218816, Note_off_c, 7, 79, 127
2, 218862, Note_on_c, 7, 79, 127
2, 218879, Note_off_c, 10, 81, 127
2, 218926, Note_on_c, 10, 81, 127
2, 218942, Note_off_c, 7, 79, 127
2, 218987, Note_off_c, 0, 48, 127
2, 218989, Note_on_c, 0, 36, 127
2, 218989, Note_on_c, 7, 79, 127
2, 219006, Note_off_c, 10, 81, 127
2, 219151, Note_off_c, 7, 79, 127
2, 219153, Note_on_c, 5, 77, 127
2, 219315, Note_off_c, 5, 77, 127
2, 219315, Note_off_c, 0, 36, 127
2, 219317, Note_on_c, 5, 41, 127
2, 219317, Note_on_c, 5, 77, 127
2, 219479, Note_off_c, 5, 41, 127
2, 219481, Note_on_c, 0, 36, 127
2, 219643, Note_off_c, 0, 36, 127
2, 219646, Note_on_c, 2, 38, 127
2, 219808, Note_off_c, 2, 38, 127
2, 219810, Note_on_c, 4, 40, 127
2, 219972, Note_off_c, 4, 40, 127
2, 219974, Note_on_c, 5, 41, 127
2, 220136, Note_off_c, 5, 41, 127
2, 220137, Note_off_c, 5, 77, 127
2, 220138, Note_on_c, 7, 43, 127
2, 220300, Note_off_c, 7, 43, 127
2, 220302, Note_on_c, 10, 45, 127
2, 220302, Note_on_c, 5, 65, 127
2, 220464, Note_off_c, 10, 45, 127
2, 220466, Note_on_c, 5, 41, 127
2, 220628, Note_off_c, 5, 41, 127
2, 220628, Note_off_c, 5, 65, 127
2, 220631, Note_on_c, 0, 48, 127
2, 220631, Note_on_c, 4, 64, 127
2, 220793, Note_off_c, 4, 64, 127
2, 220795, Note_on_c, 5, 65, 127
2, 220957, Note_off_c, 5, 65, 127
2, 220959, Note_on_c, 0, 36, 127
2, 220959, Note_on_c, 7, 67, 127
2, 221121, Note_off_c, 7, 67, 127
2, 221123, Note_on_c, 11, 58, 127
2, 221285, Note_off_c, 11, 58, 127
2, 221287, Note_on_c, 10, 57, 127
2, 221449, Note_off_c, 10, 57, 127
2, 221451, Note_on_c, 11, 58, 127
2, 221613, Note_off_c, 11, 58, 127
2, 221614, Note_off_c, 0, 48, 127
2, 221616, Note_on_c, 0, 48, 127
2, 221616, Note_on_c, 0, 60, 127
2, 221778, Note_off_c, 0, 60, 127
2, 221780, Note_on_c, 5, 65, 127
2, 221942, Note_off_c, 5, 65, 127
2, 221942, Note_off_c, 0, 48, 127
2, 221944, Note_on_c, 0, 48, 127
2, 221944, Note_on_c, 4, 64, 127
2, 222106, Note_off_c, 4, 64, 127
2, 222108, Note_on_c, 5, 65, 127
2, 222270, Note_off_c, 5, 65, 127
2, 222270, Note_off_c, 0, 36, 127
2, 222272, Note_on_c, 0, 36, 127
2, 222272, Note_on_c, 7, 67, 127
2, 222434, Note_off_c, 7, 67, 127
2, 222436, Note_on_c, 11, 58, 127
2, 222598, Note_off_c, 11, 58, 127
2, 222600, Note_on_c, 10, 57, 127
2, 222762, Note_off_c, 10, 57, 127
2, 222765, Note_on_c, 11, 58, 127
2, 222927, Note_off_c, 11, 58, 127
2, 222927, Note_off_c, 0, 48, 127
2, 222929, Note_on_c, 0, 48, 127
2, 222929, Note_on_c, 0, 60, 127
2, 223091, Note_off_c, 0, 60, 127
2, 223093, Note_on_c, 4, 64, 127
2, 223255, Note_off_c, 4, 64, 127
2, 223255, Note_off_c, 0, 48, 127
2, 223257, Note_on_c, 0, 48, 127
2, 223257, Note_on_c, 5, 65, 127
2, 223419, Note_off_c, 5, 65, 127
2, 223421, Note_on_c, 7, 67, 127
2, 223583, Note_off_c, 7, 67, 127
2, 223583, Note_off_c, 0, 36, 127
2, 223585, Note_on_c, 0, 36, 127
2, 223585, Note_on_c, 8, 68, 127
2, 223747, Note_off_c, 8, 68, 127
2, 223750, Note_on_c, 0, 60, 127
2, 223912, Note_off_c, 0, 60, 127
2, 223914, Note_on_c, 12, 59, 127
2, 224076, Note_off_c, 12, 59, 127
2, 224078, Note_on_c, 0, 60, 127
2, 224240, Note_off_c, 0, 60, 127
2, 224240, Note_off_c, 0, 48, 127
2, 224242, Note_on_c, 0, 48, 127
2, 224242, Note_on_c, 2, 62, 127
2, 224404, Note_off_c, 2, 62, 127
2, 224406, Note_on_c, 4, 64, 127
2, 224568, Note_off_c, 4, 64, 127
2, 224568, Note_off_c, 0, 48, 127
2, 224570, Note_on_c, 0, 48, 127
2, 224570, Note_on_c, 5, 65, 127
2, 224732, Note_off_c, 5, 65, 127
2, 224735, Note_on_c, 7, 67, 127
2, 224896, Note_off_c, 0, 36, 127
2, 224897, Note_off_c, 7, 67, 127
2, 224899, Note_on_c, 0, 36, 127
2, 224899, Note_on_c, 8, 68, 127
2, 225061, Note_off_c, 8, 68, 127
2, 225063, Note_on_c, 0, 60, 127
2, 225225, Note_off_c, 0, 60, 127
2, 225227, Note_on_c, 12, 59, 127
2, 225389, Note_off_c, 12, 59, 127
2, 225391, Note_on_c, 0, 60, 127
2, 225553, Note_off_c, 0, 60, 127
2, 225553, Note_off_c, 0, 48, 127
2, 225555, Note_on_c, 0, 48, 127
2, 225555, Note_on_c, 2, 62, 127
2, 225717, Note_off_c, 2, 62, 127
2, 225720, Note_on_c, 5, 65, 127
2, 225881, Note_off_c, 0, 48, 127
2, 225882, Note_off_c, 5, 65, 127
2, 225884, Note_on_c, 0, 48, 127
2, 225884, Note_on_c, 4, 64, 127
2, 226046, Note_off_c, 4, 64, 127
2, 226048, Note_on_c, 5, 65, 127
2, 226210, Note_off_c, 5, 65, 127
2, 226210, Note_off_c, 0, 36, 127
2, 226212, Note_on_c, 0, 36, 127
2, 226212, Note_on_c, 7, 67, 127
2, 226374, Note_off_c, 7, 67, 127
2, 226376, Note_on_c, 0, 60, 127
2, 226533, Note_off_c, 0, 48, 127
2, 226538, Note_off_c, 0, 60, 127
2, 226540, Note_on_c, 11, 58, 127
2, 226702, Note_off_c, 11, 58, 127
2, 226704, Note_on_c, 0, 60, 127
2, 226866, Note_off_c, 0, 60, 127
2, 226869, Note_on_c, 1, 61, 127
2, 227031, Note_off_c, 1, 61, 127
2, 227033, Note_on_c, 8, 56, 127
2, 227195, Note_off_c, 8, 56, 127
2, 227197, Note_on_c, 7, 55, 127
2, 227359, Note_off_c, 7, 55, 127
2, 227361, Note_on_c, 8, 56, 127
2, 227523, Note_off_c, 8, 56, 127
2, 227525, Note_on_c, 11, 58, 127
2, 227687, Note_off_c, 11, 58, 127
2, 227689, Note_on_c, 5, 53, 127
2, 227851, Note_off_c, 5, 53, 127
2, 227854, Note_on_c, 4, 52, 127
2, 228016, Note_off_c, 4, 52, 127
2, 228018, Note_on_c, 5, 53, 127
2, 228178, Note_off_c, 0, 36, 127
2, 228180, Note_off_c, 5, 53, 127
2, 228182, Note_on_c, 7, 55, 127
2, 228344, Note_off_c, 7, 55, 127
2, 228346, Note_on_c, 0, 48, 127
2, 228508, Note_off_c, 0, 48, 127
2, 228510, Note_on_c, 11, 46, 127
2, 228672, Note_off_c, 11, 46, 127
2, 228674, Note_on_c, 0, 48, 127
2, 228836, Note_off_c, 0, 48, 127
2, 228839, Note_on_c, 1, 49, 127
2, 229001, Note_off_c, 1, 49, 127
2, 229003, Note_on_c, 8, 44, 127
2, 229165, Note_off_c, 8, 44, 127
2, 229167, Note_on_c, 7, 43, 127
2, 229329, Note_off_c, 7, 43, 127
2, 229331, Note_on_c, 8, 44, 127
2, 229493, Note_off_c, 8, 44, 127
2, 229495, Note_on_c, 11, 46, 127
2, 229657, Note_off_c, 11, 46, 127
2, 229659, Note_on_c, 5, 41, 127
2, 229821, Note_off_c, 5, 41, 127
2, 229824, Note_on_c, 4, 40, 127
2, 230150, Note_off_c, 4, 40, 127
2, 230152, Note_on_c, 10, 69, 127
2, 230152, Note_on_c, 5, 65, 127
2, 230152, Note_on_c, 5, 41, 127
2, 230314, Note_off_c, 10, 69, 127
2, 230316, Note_on_c, 11, 70, 127
2, 230398, Note_on_c, 0, 72, 127
2, 230403, Note_off_c, 11, 70, 127
2, 230476, Note_off_c, 5, 65, 127
2, 230478, Note_off_c, 0, 72, 127
2, 230478, Note_off_c, 5, 41, 127
2, 230480, Note_on_c, 5, 65, 127
2, 230480, Note_on_c, 10, 69, 127
2, 230480, Note_on_c, 0, 48, 127
2, 230806, Note_off_c, 0, 48, 127
2, 230806, Note_off_c, 10, 69, 127
2, 230806, Note_off_c, 5, 65, 127
2, 230808, Note_on_c, 4, 64, 127
2, 230808, Note_on_c, 7, 67, 127
2, 230808, Note_on_c, 0, 36, 127
2, 230970, Note_off_c, 7, 67, 127
2, 230970, Note_off_c, 4, 64, 127
2, 230973, Note_on_c, 5, 65, 127
2, 231134, Note_off_c, 0, 36, 127
2, 231135, Note_off_c, 5, 65, 127
2, 231137, Note_on_c, 5, 65, 127
2, 231137, Note_on_c, 5, 41, 127
2, 231299, Note_off_c, 5, 65, 127
2, 231301, Note_on_c, 0, 60, 127
2, 231463, Note_off_c, 0, 60, 127
2, 231465, Note_on_c, 2, 62, 127
2, 231615, Note_off_c, 5, 41, 127
2, 231627, Note_off_c, 2, 62, 127
2, 231629, Note_on_c, 4, 64, 127
2, 231791, Note_off_c, 4, 64, 127
2, 231793, Note_on_c, 5, 65, 127
2, 231955, Note_off_c, 5, 65, 127
2, 231958, Note_on_c, 7, 67, 127
2, 232120, Note_off_c, 7, 67, 127
2, 232122, Note_on_c, 10, 69, 127
2, 232284, Note_off_c, 10, 69, 127
2, 232286, Note_on_c, 5, 65, 127
2, 232448, Note_off_c, 5, 65, 127
2, 232450, Note_on_c, 11, 70, 127
2, 232612, Note_off_c, 11, 70, 127
2, 232614, Note_on_c, 0, 72, 127
2, 232776, Note_off_c, 0, 72, 127
2, 232778, Note_on_c, 11, 70, 127
2, 232940, Note_off_c, 11, 70, 127
2, 232943, Note_on_c, 10, 69, 127
2, 233105, Note_off_c, 10, 69, 127
2, 233107, Note_on_c, 7, 67, 127
2, 233269, Note_off_c, 7, 67, 127
2, 233271, Note_on_c, 0, 72, 127
2, 233433, Note_off_c, 0, 72, 127
2, 233435, Note_on_c, 11, 70, 127
2, 233597, Note_off_c, 11, 70, 127
2, 233599, Note_on_c, 0, 72, 127
2, 233761, Note_off_c, 0, 72, 127
2, 233763, Note_on_c, 10, 69, 127
2, 233843, Note_off_c, 10, 69, 127
2, 233845, Note_on_c, 7, 67, 127
2, 233925, Note_off_c, 7, 67, 127
2, 233928, Note_on_c, 0, 48, 127
2, 233928, Note_on_c, 10, 69, 127
2, 234090, Note_off_c, 10, 69, 127
2, 234090, Note_off_c, 0, 48, 127
2, 234092, Note_on_c, 5, 65, 127
2, 234092, Note_on_c, 2, 50, 127
2, 234254, Note_off_c, 2, 50, 127
2, 234256, Note_on_c, 4, 52, 127
2, 234418, Note_off_c, 4, 52, 127
2, 234418, Note_off_c, 5, 65, 127
2, 234420, Note_on_c, 5, 77, 127
2, 234420, Note_on_c, 5, 53, 127
2, 234500, Note_off_c, 5, 77, 127
2, 234502, Note_on_c, 4, 76, 127
2, 234582, Note_off_c, 4, 76, 127
2, 234582, Note_off_c, 5, 53, 127
2, 234584, Note_on_c, 5, 77, 127
2, 234584, Note_on_c, 7, 55, 127
2, 234746, Note_off_c, 7, 55, 127
2, 234748, Note_on_c, 10, 57, 127
2, 234910, Note_off_c, 10, 57, 127
2, 234910, Note_off_c, 5, 77, 127
2, 234912, Note_on_c, 5, 77, 127
2, 234912, Note_on_c, 5, 53, 127
2, 235074, Note_off_c, 5, 53, 127
2, 235074, Note_off_c, 5, 77, 127
2, 235077, Note_on_c, 5, 77, 127
2, 235077, Note_on_c, 11, 58, 127
2, 235239, Note_off_c, 11, 58, 127
2, 235241, Note_on_c, 0, 60, 127
2, 235403, Note_off_c, 0, 60, 127
2, 235405, Note_on_c, 11, 58, 127
2, 235567, Note_off_c, 11, 58, 127
2, 235567, Note_off_c, 5, 77, 127
2, 235569, Note_on_c, 7, 79, 127
2, 235569, Note_on_c, 10, 57, 127
2, 235731, Note_off_c, 10, 57, 127
2, 235731, Note_off_c, 7, 79, 127
2, 235733, Note_on_c, 5, 77, 127
2, 235733, Note_on_c, 7, 55, 127
2, 235809, Note_on_c, 4, 76, 127
2, 235813, Note_off_c, 5, 77, 127
2, 235872, Note_on_c, 5, 77, 127
2, 235889, Note_off_c, 4, 76, 127
2, 235895, Note_off_c, 7, 55, 127
2, 235897, Note_on_c, 0, 60, 127
2, 235935, Note_on_c, 4, 76, 127
2, 235952, Note_off_c, 5, 77, 127
2, 235998, Note_on_c, 5, 77, 127
2, 236015, Note_off_c, 4, 76, 127
2, 236059, Note_off_c, 0, 60, 127
2, 236062, Note_on_c, 11, 58, 127
2, 236062, Note_on_c, 4, 76, 127
2, 236078, Note_off_c, 5, 77, 127
2, 236224, Note_off_c, 4, 76, 127
2, 236224, Note_off_c, 11, 58, 127
2, 236226, Note_on_c, 5, 77, 127
2, 236226, Note_on_c, 0, 60, 127
2, 236388, Note_off_c, 0, 60, 127
2, 236388, Note_off_c, 5, 77, 127
2, 236390, Note_on_c, 5, 77, 127
2, 236390, Note_on_c, 10, 57, 127
2, 236552, Note_off_c, 5, 77, 127
2, 236554, Note_on_c, 7, 79, 127
2, 236716, Note_off_c, 7, 79, 127
2, 236716, Note_off_c, 10, 57, 127
2, 236718, Note_on_c, 5, 77, 127
2, 236718, Note_on_c, 5, 53, 127
2, 236880, Note_off_c, 5, 77, 127
2, 236882, Note_on_c, 4, 76, 127
2, 237044, Note_off_c, 4, 76, 127
2, 237044, Note_off_c, 5, 53, 127
2, 237047, Note_on_c, 2, 74, 127
2, 237047, Note_on_c, 5, 65, 127
2, 237127, Note_off_c, 5, 65, 127
2, 237129, Note_on_c, 4, 64, 127
2, 237209, Note_off_c, 4, 64, 127
2, 237209, Note_off_c, 2, 74, 127
2, 237211, Note_on_c, 4, 76, 127
2, 237211, Note_on_c, 5, 65, 127
2, 237373, Note_off_c, 4, 76, 127
2, 237375, Note_on_c, 5, 77, 127
2, 237537, Note_off_c, 5, 77, 127
2, 237537, Note_off_c, 5, 65, 127
2, 237539, Note_on_c, 10, 81, 127
2, 237539, Note_on_c, 5, 65, 127
2, 237701, Note_off_c, 5, 65, 127
2, 237701, Note_off_c, 10, 81, 127
2, 237703, Note_on_c, 12, 71, 127
2, 237703, Note_on_c, 5, 65, 127
2, 237865, Note_off_c, 12, 71, 127
2, 237867, Note_on_c, 0, 72, 127
2, 238029, Note_off_c, 0, 72, 127
2, 238032, Note_on_c, 2, 74, 127
2, 238193, Note_off_c, 5, 65, 127
2, 238194, Note_off_c, 2, 74, 127
2, 238196, Note_on_c, 7, 79, 127
2, 238196, Note_on_c, 7, 67, 127
2, 238358, Note_off_c, 7, 67, 127
2, 238358, Note_off_c, 7, 79, 127
2, 238360, Note_on_c, 0, 72, 127
2, 238360, Note_on_c, 5, 65, 127
2, 238522, Note_off_c, 5, 65, 127
2, 238522, Note_off_c, 0, 72, 127
2, 238524, Note_on_c, 2, 74, 127
2, 238524, Note_on_c, 4, 64, 127
2, 238604, Note_off_c, 4, 64, 127
2, 238606, Note_on_c, 5, 65, 127
2, 238686, Note_off_c, 5, 65, 127
2, 238686, Note_off_c, 2, 74, 127
2, 238688, Note_on_c, 4, 76, 127
2, 238688, Note_on_c, 4, 64, 127
2, 238850, Note_off_c, 4, 64, 127
2, 238850, Note_off_c, 4, 76, 127
2, 238852, Note_on_c, 7, 79, 127
2, 238852, Note_on_c, 4, 64, 127
2, 239014, Note_off_c, 4, 64, 127
2, 239014, Note_off_c, 7, 79, 127
2, 239016, Note_on_c, 10, 69, 127
2, 239016, Note_on_c, 4, 64, 127
2, 239178, Note_off_c, 10, 69, 127
2, 239181, Note_on_c, 12, 71, 127
2, 239342, Note_off_c, 4, 64, 127
2, 239343, Note_off_c, 12, 71, 127
2, 239345, Note_on_c, 0, 72, 127
2, 239345, Note_on_c, 10, 57, 127
2, 239507, Note_off_c, 0, 72, 127
2, 239509, Note_on_c, 5, 77, 127
2, 239671, Note_off_c, 5, 77, 127
2, 239671, Note_off_c, 10, 57, 127
2, 239673, Note_on_c, 12, 71, 127
2, 239673, Note_on_c, 2, 62, 127
2, 239753, Note_off_c, 2, 62, 127
2, 239755, Note_on_c, 0, 60, 127
2, 239835, Note_off_c, 0, 60, 127
2, 239835, Note_off_c, 12, 71, 127
2, 239837, Note_on_c, 0, 72, 127
2, 239837, Note_on_c, 2, 62, 127
2, 239999, Note_off_c, 0, 72, 127
2, 240001, Note_on_c, 2, 74, 127
2, 240163, Note_off_c, 2, 74, 127
2, 240163, Note_off_c, 2, 62, 127
2, 240166, Note_on_c, 5, 77, 127
2, 240166, Note_on_c, 2, 62, 127
2, 240328, Note_off_c, 2, 62, 127
2, 240328, Note_off_c, 5, 77, 127
2, 240330, Note_on_c, 7, 67, 127
2, 240330, Note_on_c, 2, 62, 127
2, 240492, Note_off_c, 7, 67, 127
2, 240494, Note_on_c, 10, 69, 127
2, 240656, Note_off_c, 10, 69, 127
2, 240658, Note_on_c, 12, 71, 127
2, 240820, Note_off_c, 12, 71, 127
2, 240820, Note_off_c, 2, 62, 127
2, 240822, Note_on_c, 4, 76, 127
2, 240822, Note_on_c, 4, 64, 127
2, 240984, Note_off_c, 4, 64, 127
2, 240984, Note_off_c, 4, 76, 127
2, 240986, Note_on_c, 10, 69, 127
2, 240986, Note_on_c, 2, 62, 127
2, 241148, Note_off_c, 2, 62, 127
2, 241148, Note_off_c, 10, 69, 127
2, 241151, Note_on_c, 12, 71, 127
2, 241151, Note_on_c, 0, 60, 127
2, 241231, Note_off_c, 0, 60, 127
2, 241233, Note_on_c, 2, 62, 127
2, 241313, Note_off_c, 2, 62, 127
2, 241313, Note_off_c, 12, 71, 127
2, 241315, Note_on_c, 0, 72, 127
2, 241315, Note_on_c, 0, 60, 127
2, 241477, Note_off_c, 0, 60, 127
2, 241477, Note_off_c, 0, 72, 127
2, 241479, Note_on_c, 4, 76, 127
2, 241479, Note_on_c, 0, 60, 127
2, 241641, Note_off_c, 0, 60, 127
2, 241641, Note_off_c, 4, 76, 127
2, 241643, Note_on_c, 5, 65, 127
2, 241643, Note_on_c, 0, 60, 127
2, 241805, Note_off_c, 0, 60, 127
2, 241807, Note_on_c, 4, 64, 127
2, 241969, Note_off_c, 4, 64, 127
2, 241969, Note_off_c, 5, 65, 127
2, 241971, Note_on_c, 10, 69, 127
2, 241971, Note_on_c, 2, 62, 127
2, 242133, Note_off_c, 2, 62, 127
2, 242136, Note_on_c, 0, 60, 127
2, 242297, Note_off_c, 10, 69, 127
2, 242298, Note_off_c, 0, 60, 127
2, 242300, Note_on_c, 2, 74, 127
2, 242300, Note_on_c, 12, 59, 127
2, 242380, Note_off_c, 2, 74, 127
2, 242382, Note_on_c, 0, 72, 127
2, 242462, Note_off_c, 0, 72, 127
2, 242462, Note_off_c, 12, 59, 127
2, 242464, Note_on_c, 2, 74, 127
2, 242464, Note_on_c, 10, 57, 127
2, 242626, Note_off_c, 10, 57, 127
2, 242628, Note_on_c, 7, 55, 127
2, 242790, Note_off_c, 7, 55, 127
2, 242790, Note_off_c, 2, 74, 127
2, 242792, Note_on_c, 2, 74, 127
2, 242792, Note_on_c, 5, 53, 127
2, 242954, Note_off_c, 5, 53, 127
2, 242954, Note_off_c, 2, 74, 127
2, 242956, Note_on_c, 2, 74, 127
2, 242956, Note_on_c, 4, 52, 127
2, 243120, Note_on_c, 7, 67, 127
2, 243195, Note_off_c, 2, 74, 127
2, 243282, Note_off_c, 7, 67, 127
2, 243285, Note_on_c, 10, 69, 127
2, 243447, Note_off_c, 10, 69, 127
2, 243449, Note_on_c, 12, 71, 127
2, 243611, Note_off_c, 12, 71, 127
2, 243613, Note_on_c, 0, 72, 127
2, 243727, Note_off_c, 4, 52, 127
2, 243775, Note_off_c, 0, 72, 127
2, 243777, Note_on_c, 2, 74, 127
2, 243777, Note_on_c, 2, 50, 127
2, 243939, Note_off_c, 2, 50, 127
2, 243939, Note_off_c, 2, 74, 127
2, 243941, Note_on_c, 4, 76, 127
2, 243941, Note_on_c, 0, 48, 127
2, 244103, Note_off_c, 0, 48, 127
2, 244103, Note_off_c, 4, 76, 127
2, 244105, Note_on_c, 0, 72, 127
2, 244105, Note_on_c, 12, 47, 127
2, 244267, Note_off_c, 12, 47, 127
2, 244267, Note_off_c, 0, 72, 127
2, 244270, Note_on_c, 5, 77, 127
2, 244270, Note_on_c, 10, 45, 127
2, 244432, Note_off_c, 10, 45, 127
2, 244432, Note_off_c, 5, 77, 127
2, 244434, Note_on_c, 7, 79, 127
2, 244434, Note_on_c, 7, 43, 127
2, 244596, Note_off_c, 7, 43, 127
2, 244596, Note_off_c, 7, 79, 127
2, 244598, Note_on_c, 5, 77, 127
2, 244598, Note_on_c, 10, 45, 127
2, 244760, Note_off_c, 10, 45, 127
2, 244760, Note_off_c, 5, 77, 127
2, 244762, Note_on_c, 4, 76, 127
2, 244762, Note_on_c, 5, 41, 127
2, 244924, Note_off_c, 5, 41, 127
2, 244924, Note_off_c, 4, 76, 127
2, 244926, Note_on_c, 2, 74, 127
2, 244926, Note_on_c, 7, 43, 127
2, 245088, Note_off_c, 2, 74, 127
2, 245090, Note_on_c, 7, 79, 127
2, 245252, Note_off_c, 7, 79, 127
2, 245252, Note_off_c, 7, 43, 127
2, 245255, Note_on_c, 5, 77, 127
2, 245255, Note_on_c, 7, 55, 127
2, 245417, Note_off_c, 5, 77, 127
2, 245419, Note_on_c, 7, 79, 127
2, 245581, Note_off_c, 7, 79, 127
2, 245581, Note_off_c, 7, 55, 127
2, 245583, Note_on_c, 4, 76, 127
2, 245583, Note_on_c, 0, 48, 127
2, 245745, Note_off_c, 0, 48, 127
2, 245747, Note_on_c, 7, 55, 127
2, 245909, Note_off_c, 7, 55, 127
2, 245909, Note_off_c, 4, 76, 127
2, 245911, Note_on_c, 0, 72, 127
2, 245911, Note_on_c, 10, 57, 127
2, 246073, Note_off_c, 10, 57, 127
2, 246075, Note_on_c, 12, 59, 127
2, 246237, Note_off_c, 12, 59, 127
2, 246237, Note_off_c, 0, 72, 127
2, 246240, Note_on_c, 0, 84, 127
2, 246240, Note_on_c, 0, 60, 127
2, 246320, Note_off_c, 0, 84, 127
2, 246322, Note_on_c, 12, 83, 127
2, 246402, Note_off_c, 12, 83, 127
2, 246402, Note_off_c, 0, 60, 127
2, 246404, Note_on_c, 0, 84, 127
2, 246404, Note_on_c, 2, 62, 127
2, 246566, Note_off_c, 2, 62, 127
2, 246568, Note_on_c, 4, 64, 127
2, 246730, Note_off_c, 4, 64, 127
2, 246730, Note_off_c, 0, 84, 127
2, 246732, Note_on_c, 0, 84, 127
2, 246732, Note_on_c, 0, 60, 127
2, 246894, Note_off_c, 0, 60, 127
2, 246894, Note_off_c, 0, 84, 127
2, 246896, Note_on_c, 0, 84, 127
2, 246896, Note_on_c, 5, 65, 127
2, 247058, Note_off_c, 5, 65, 127
2, 247060, Note_on_c, 7, 67, 127
2, 247222, Note_off_c, 7, 67, 127
2, 247224, Note_on_c, 5, 65, 127
2, 247304, Note_off_c, 0, 84, 127
2, 247307, Note_on_c, 12, 83, 127
2, 247386, Note_off_c, 5, 65, 127
2, 247387, Note_off_c, 12, 83, 127
2, 247389, Note_on_c, 0, 84, 127
2, 247389, Note_on_c, 4, 64, 127
2, 247469, Note_off_c, 0, 84, 127
2, 247471, Note_on_c, 10, 81, 127
2, 247551, Note_off_c, 10, 81, 127
2, 247551, Note_off_c, 4, 64, 127
2, 247553, Note_on_c, 0, 84, 127
2, 247553, Note_on_c, 2, 62, 127
2, 247655, Note_on_c, 12, 83, 127
2, 247662, Note_off_c, 0, 84, 127
2, 247715, Note_off_c, 2, 62, 127
2, 247717, Note_on_c, 7, 67, 127
2, 247731, Note_on_c, 0, 84, 127
2, 247735, Note_off_c, 12, 83, 127
2, 247806, Note_on_c, 12, 83, 127
2, 247811, Note_off_c, 0, 84, 127
2, 247879, Note_off_c, 7, 67, 127
2, 247881, Note_on_c, 5, 65, 127
2, 247881, Note_on_c, 0, 84, 127
2, 247886, Note_off_c, 12, 83, 127
2, 247956, Note_on_c, 12, 83, 127
2, 247961, Note_off_c, 0, 84, 127
2, 248034, Note_off_c, 12, 83, 127
2, 248043, Note_off_c, 5, 65, 127
2, 248045, Note_on_c, 12, 83, 127
2, 248045, Note_on_c, 7, 67, 127
2, 248207, Note_off_c, 7, 67, 127
2, 248207, Note_off_c, 12, 83, 127
2, 248209, Note_on_c, 12, 83, 127
2, 248209, Note_on_c, 0, 60, 127
2, 248371, Note_off_c, 0, 60, 127
2, 248374, Note_on_c, 2, 62, 127
2, 248535, Note_off_c, 12, 83, 127
2, 248536, Note_off_c, 2, 62, 127
2, 248538, Note_on_c, 4, 76, 127
2, 248538, Note_on_c, 4, 64, 127
2, 248700, Note_off_c, 4, 64, 127
2, 248702, Note_on_c, 7, 67, 127
2, 248864, Note_off_c, 7, 67, 127
2, 248864, Note_off_c, 4, 76, 127
2, 248866, Note_on_c, 10, 81, 127
2, 248866, Note_on_c, 5, 53, 127
2, 248946, Note_off_c, 10, 81, 127
2, 248948, Note_on_c, 7, 79, 127
2, 249028, Note_off_c, 7, 79, 127
2, 249028, Note_off_c, 5, 53, 127
2, 249030, Note_on_c, 10, 81, 127
2, 249030, Note_on_c, 7, 55, 127
2, 249192, Note_off_c, 7, 55, 127
2, 249194, Note_on_c, 10, 57, 127
2, 249356, Note_off_c, 10, 57, 127
2, 249356, Note_off_c, 10, 81, 127
2, 249359, Note_on_c, 10, 81, 127
2, 249359, Note_on_c, 0, 60, 127
2, 249521, Note_off_c, 0, 60, 127
2, 249521, Note_off_c, 10, 81, 127
2, 249523, Note_on_c, 10, 81, 127
2, 249523, Note_on_c, 12, 59, 127
2, 249685, Note_off_c, 12, 59, 127
2, 249687, Note_on_c, 0, 60, 127
2, 249849, Note_off_c, 0, 60, 127
2, 249851, Note_on_c, 2, 62, 127
2, 250013, Note_off_c, 2, 62, 127
2, 250013, Note_off_c, 10, 81, 127
2, 250015, Note_on_c, 7, 79, 127
2, 250015, Note_on_c, 5, 65, 127
2, 250095, Note_off_c, 7, 79, 127
2, 250097, Note_on_c, 5, 77, 127
2, 250177, Note_off_c, 5, 77, 127
2, 250177, Note_off_c, 5, 65, 127
2, 250179, Note_on_c, 4, 52, 127
2, 250179, Note_on_c, 4, 76, 127
2, 250261, Note_on_c, 5, 77, 127
2, 250341, Note_off_c, 4, 76, 127
2, 250341, Note_off_c, 4, 52, 127
2, 250343, Note_off_c, 5, 77, 127
2, 250344, Note_on_c, 5, 53, 127
2, 250344, Note_on_c, 7, 79, 127
2, 250506, Note_off_c, 5, 53, 127
2, 250508, Note_on_c, 7, 55, 127
2, 250668, Note_off_c, 7, 79, 127
2, 250670, Note_off_c, 7, 55, 127
2, 250672, Note_on_c, 7, 79, 127
2, 250672, Note_on_c, 12, 59, 127
2, 250834, Note_off_c, 12, 59, 127
2, 250834, Note_off_c, 7, 79, 127
2, 250836, Note_on_c, 7, 79, 127
2, 250836, Note_on_c, 10, 57, 127
2, 250998, Note_off_c, 10, 57, 127
2, 251000, Note_on_c, 12, 59, 127
2, 251162, Note_off_c, 12, 59, 127
2, 251162, Note_off_c, 7, 79, 127
2, 251164, Note_on_c, 0, 72, 127
2, 251164, Note_on_c, 0, 60, 127
2, 251326, Note_off_c, 0, 60, 127
2, 251328, Note_on_c, 4, 64, 127
2, 251490, Note_off_c, 4, 64, 127
2, 251490, Note_off_c, 0, 72, 127
2, 251493, Note_on_c, 5, 77, 127
2, 251493, Note_on_c, 2, 50, 127
2, 251573, Note_off_c, 5, 77, 127
2, 251575, Note_on_c, 4, 76, 127
2, 251655, Note_off_c, 4, 76, 127
2, 251655, Note_off_c, 2, 50, 127
2, 251657, Note_on_c, 5, 77, 127
2, 251657, Note_on_c, 4, 52, 127
2, 251819, Note_off_c, 4, 52, 127
2, 251821, Note_on_c, 5, 53, 127
2, 251983, Note_off_c, 5, 53, 127
2, 251983, Note_off_c, 5, 77, 127
2, 251985, Note_on_c, 5, 77, 127
2, 251985, Note_on_c, 10, 57, 127
2, 252147, Note_off_c, 10, 57, 127
2, 252147, Note_off_c, 5, 77, 127
2, 252149, Note_on_c, 5, 77, 127
2, 252149, Note_on_c, 7, 55, 127
2, 252311, Note_off_c, 5, 77, 127
2, 252313, Note_on_c, 10, 81, 127
2, 252439, Note_off_c, 7, 55, 127
2, 252475, Note_off_c, 10, 81, 127
2, 252478, Note_on_c, 7, 79, 127
2, 252478, Note_on_c, 0, 48, 127
2, 252640, Note_off_c, 7, 79, 127
2, 252642, Note_on_c, 5, 77, 127
2, 252768, Note_off_c, 0, 48, 127
2, 252804, Note_off_c, 5, 77, 127
2, 252806, Note_on_c, 4, 76, 127
2, 252806, Note_on_c, 0, 60, 127
2, 252886, Note_off_c, 0, 60, 127
2, 252888, Note_on_c, 12, 59, 127
2, 252968, Note_off_c, 12, 59, 127
2, 252968, Note_off_c, 4, 76, 127
2, 252970, Note_on_c, 5, 77, 127
2, 252970, Note_on_c, 0, 60, 127
2, 253132, Note_off_c, 5, 77, 127
2, 253134, Note_on_c, 7, 79, 127
2, 253296, Note_off_c, 7, 79, 127
2, 253296, Note_off_c, 0, 60, 127
2, 253298, Note_on_c, 4, 76, 127
2, 253298, Note_on_c, 0, 60, 127
2, 253460, Note_off_c, 0, 60, 127
2, 253460, Note_off_c, 4, 76, 127
2, 253463, Note_on_c, 5, 77, 127
2, 253463, Note_on_c, 0, 60, 127
2, 253625, Note_off_c, 5, 77, 127
2, 253627, Note_on_c, 7, 79, 127
2, 253789, Note_off_c, 7, 79, 127
2, 253791, Note_on_c, 5, 77, 127
2, 253953, Note_off_c, 5, 77, 127
2, 253953, Note_off_c, 0, 60, 127
2, 253955, Note_on_c, 4, 76, 127
2, 253955, Note_on_c, 2, 62, 127
2, 254117, Note_off_c, 2, 62, 127
2, 254117, Note_off_c, 4, 76, 127
2, 254119, Note_on_c, 2, 74, 127
2, 254119, Note_on_c, 0, 60, 127
2, 254281, Note_off_c, 0, 60, 127
2, 254281, Note_off_c, 2, 74, 127
2, 254283, Note_on_c, 7, 79, 127
2, 254283, Note_on_c, 11, 58, 127
2, 254363, Note_off_c, 11, 58, 127
2, 254365, Note_on_c, 0, 60, 127
2, 254445, Note_off_c, 0, 60, 127
2, 254445, Note_off_c, 7, 79, 127
2, 254448, Note_on_c, 5, 77, 127
2, 254448, Note_on_c, 11, 58, 127
2, 254610, Note_off_c, 11, 58, 127
2, 254610, Note_off_c, 5, 77, 127
2, 254612, Note_on_c, 7, 79, 127
2, 254612, Note_on_c, 11, 58, 127
2, 254774, Note_off_c, 11, 58, 127
2, 254774, Note_off_c, 7, 79, 127
2, 254776, Note_on_c, 4, 76, 127
2, 254776, Note_on_c, 11, 58, 127
2, 254938, Note_off_c, 4, 76, 127
2, 254940, Note_on_c, 0, 72, 127
2, 255102, Note_off_c, 0, 72, 127
2, 255102, Note_off_c, 11, 58, 127
2, 255104, Note_on_c, 2, 74, 127
2, 255104, Note_on_c, 0, 60, 127
2, 255266, Note_off_c, 0, 60, 127
2, 255266, Note_off_c, 2, 74, 127
2, 255268, Note_on_c, 4, 76, 127
2, 255268, Note_on_c, 11, 58, 127
2, 255430, Note_off_c, 11, 58, 127
2, 255430, Note_off_c, 4, 76, 127
2, 255432, Note_on_c, 5, 77, 127
2, 255432, Note_on_c, 10, 57, 127
2, 255594, Note_off_c, 10, 57, 127
2, 255594, Note_off_c, 5, 77, 127
2, 255597, Note_on_c, 7, 79, 127
2, 255597, Note_on_c, 7, 55, 127
2, 255759, Note_off_c, 7, 55, 127
2, 255759, Note_off_c, 7, 79, 127
2, 255761, Note_on_c, 10, 81, 127
2, 255761, Note_on_c, 5, 53, 127
2, 255923, Note_off_c, 5, 53, 127
2, 255923, Note_off_c, 10, 81, 127
2, 255925, Note_on_c, 5, 77, 127
2, 255925, Note_on_c, 4, 52, 127
2, 256087, Note_off_c, 4, 52, 127
2, 256087, Note_off_c, 5, 77, 127
2, 256089, Note_on_c, 11, 82, 127
2, 256089, Note_on_c, 2, 50, 127
2, 256251, Note_off_c, 2, 50, 127
2, 256251, Note_off_c, 11, 82, 127
2, 256253, Note_on_c, 0, 84, 127
2, 256253, Note_on_c, 0, 48, 127
2, 256415, Note_off_c, 0, 48, 127
2, 256415, Note_off_c, 0, 84, 127
2, 256417, Note_on_c, 11, 82, 127
2, 256417, Note_on_c, 2, 50, 127
2, 256579, Note_off_c, 2, 50, 127
2, 256579, Note_off_c, 11, 82, 127
2, 256582, Note_on_c, 10, 81, 127
2, 256582, Note_on_c, 11, 46, 127
2, 256744, Note_off_c, 11, 46, 127
2, 256744, Note_off_c, 10, 81, 127
2, 256746, Note_on_c, 7, 79, 127
2, 256746, Note_on_c, 0, 48, 127
2, 256908, Note_off_c, 7, 79, 127
2, 256910, Note_on_c, 0, 84, 127
2, 257072, Note_off_c, 0, 84, 127
2, 257072, Note_off_c, 0, 48, 127
2, 257074, Note_on_c, 11, 82, 127
2, 257074, Note_on_c, 0, 36, 127
2, 257236, Note_off_c, 11, 82, 127
2, 257238, Note_on_c, 0, 84, 127
2, 257400, Note_off_c, 0, 84, 127
2, 257400, Note_off_c, 0, 36, 127
2, 257402, Note_on_c, 10, 81, 127
2, 257402, Note_on_c, 5, 41, 127
2, 257564, Note_off_c, 10, 81, 127
2, 257567, Note_on_c, 11, 82, 127
2, 257729, Note_off_c, 11, 82, 127
2, 257731, Note_on_c, 10, 81, 127
2, 257893, Note_off_c, 10, 81, 127
2, 257895, Note_on_c, 7, 79, 127
2, 258057, Note_off_c, 7, 79, 127
2, 258059, Note_on_c, 5, 77, 127
2, 258221, Note_off_c, 5, 77, 127
2, 258222, Note_off_c, 5, 41, 127
2, 258223, Note_on_c, 4, 76, 127
2, 258385, Note_off_c, 4, 76, 127
2, 258387, Note_on_c, 2, 74, 127
2, 258387, Note_on_c, 5, 53, 127
2, 258549, Note_off_c, 2, 74, 127
2, 258552, Note_on_c, 0, 72, 127
2, 258713, Note_off_c, 5, 53, 127
2, 258714, Note_off_c, 0, 72, 127
2, 258716, Note_on_c, 12, 71, 127
2, 258716, Note_on_c, 7, 55, 127
2, 258878, Note_off_c, 7, 55, 127
2, 258878, Note_off_c, 12, 71, 127
2, 258880, Note_on_c, 7, 67, 127
2, 258880, Note_on_c, 0, 60, 127
2, 259042, Note_off_c, 0, 60, 127
2, 259042, Note_off_c, 7, 67, 127
2, 259044, Note_on_c, 10, 69, 127
2, 259044, Note_on_c, 12, 59, 127
2, 259206, Note_off_c, 12, 59, 127
2, 259206, Note_off_c, 10, 69, 127
2, 259208, Note_on_c, 12, 71, 127
2, 259208, Note_on_c, 10, 57, 127
2, 259370, Note_off_c, 10, 57, 127
2, 259370, Note_off_c, 12, 71, 127
2, 259372, Note_on_c, 0, 72, 127
2, 259372, Note_on_c, 7, 55, 127
2, 259534, Note_off_c, 7, 55, 127
2, 259534, Note_off_c, 0, 72, 127
2, 259536, Note_on_c, 2, 74, 127
2, 259536, Note_on_c, 5, 53, 127
2, 259698, Note_off_c, 5, 53, 127
2, 259698, Note_off_c, 2, 74, 127
2, 259701, Note_on_c, 4, 76, 127
2, 259701, Note_on_c, 4, 52, 127
2, 259863, Note_off_c, 4, 52, 127
2, 259863, Note_off_c, 4, 76, 127
2, 259865, Note_on_c, 5, 77, 127
2, 259865, Note_on_c, 2, 50, 127
2, 260027, Note_off_c, 2, 50, 127
2, 260027, Note_off_c, 5, 77, 127
2, 260029, Note_on_c, 7, 79, 127
2, 260029, Note_on_c, 0, 48, 127
2, 260273, Note_off_c, 7, 79, 127
2, 260275, Note_on_c, 10, 81, 127
2, 260355, Note_off_c, 10, 81, 127
2, 260355, Note_off_c, 0, 48, 127
2, 260357, Note_on_c, 7, 79, 127
2, 260357, Note_on_c, 5, 53, 127
2, 260437, Note_off_c, 7, 79, 127
2, 260439, Note_on_c, 5, 77, 127
2, 260519, Note_off_c, 5, 77, 127
2, 260521, Note_on_c, 7, 79, 127
2, 260601, Note_off_c, 7, 79, 127
2, 260604, Note_on_c, 10, 81, 127
2, 260683, Note_off_c, 5, 53, 127
2, 260684, Note_off_c, 10, 81, 127
2, 260686, Note_on_c, 4, 76, 127
2, 260686, Note_on_c, 7, 55, 127
2, 260848, Note_off_c, 4, 76, 127
2, 260850, Note_on_c, 2, 74, 127
2, 260930, Note_off_c, 2, 74, 127
2, 260932, Note_on_c, 4, 76, 127
2, 261012, Note_off_c, 4, 76, 127
2, 261012, Note_off_c, 7, 55, 127
2, 261014, Note_on_c, 7, 43, 127
2, 261014, Note_on_c, 2, 74, 127
2, 261176, Note_off_c, 2, 74, 127
2, 261178, Note_on_c, 0, 72, 127
2, 261340, Note_off_c, 0, 72, 127
2, 261340, Note_off_c, 7, 43, 127
2, 261342, Note_on_c, 0, 72, 127
2, 261342, Note_on_c, 0, 36, 127
2, 261504, Note_off_c, 0, 72, 127
2, 261506, Note_on_c, 7, 67, 127
2, 261668, Note_off_c, 7, 67, 127
2, 261671, Note_on_c, 10, 69, 127
2, 261786, Note_off_c, 0, 36, 127
2, 261833, Note_off_c, 10, 69, 127
2, 261835, Note_on_c, 12, 71, 127
2, 261997, Note_off_c, 12, 71, 127
2, 261999, Note_on_c, 0, 72, 127
2, 261999, Note_on_c, 0, 60, 127
2, 262079, Note_off_c, 0, 60, 127
2, 262081, Note_on_c, 12, 59, 127
2, 262161, Note_off_c, 12, 59, 127
2, 262161, Note_off_c, 0, 72, 127
2, 262163, Note_on_c, 2, 74, 127
2, 262163, Note_on_c, 0, 60, 127
2, 262325, Note_off_c, 2, 74, 127
2, 262327, Note_on_c, 4, 76, 127
2, 262489, Note_off_c, 4, 76, 127
2, 262489, Note_off_c, 0, 60, 127
2, 262491, Note_on_c, 0, 72, 127
2, 262491, Note_on_c, 0, 60, 127
2, 262653, Note_off_c, 0, 60, 127
2, 262653, Note_off_c, 0, 72, 127
2, 262656, Note_on_c, 5, 77, 127
2, 262656, Note_on_c, 0, 60, 127
2, 262818, Note_off_c, 5, 77, 127
2, 262820, Note_on_c, 7, 79, 127
2, 262982, Note_off_c, 7, 79, 127
2, 262984, Note_on_c, 5, 77, 127
2, 263146, Note_off_c, 5, 77, 127
2, 263146, Note_off_c, 0, 60, 127
2, 263148, Note_on_c, 4, 76, 127
2, 263148, Note_on_c, 2, 62, 127
2, 263310, Note_off_c, 2, 62, 127
2, 263310, Note_off_c, 4, 76, 127
2, 263312, Note_on_c, 2, 74, 127
2, 263312, Note_on_c, 0, 60, 127
2, 263474, Note_off_c, 0, 60, 127
2, 263474, Note_off_c, 2, 74, 127
2, 263476, Note_on_c, 7, 79, 127
2, 263476, Note_on_c, 11, 58, 127
2, 263556, Note_off_c, 11, 58, 127
2, 263558, Note_on_c, 0, 60, 127
2, 263638, Note_off_c, 0, 60, 127
2, 263638, Note_off_c, 7, 79, 127
2, 263640, Note_on_c, 5, 77, 127
2, 263640, Note_on_c, 11, 58, 127
2, 263802, Note_off_c, 11, 58, 127
2, 263802, Note_off_c, 5, 77, 127
2, 263805, Note_on_c, 7, 79, 127
2, 263805, Note_on_c, 11, 58, 127
2, 263967, Note_off_c, 11, 58, 127
2, 263967, Note_off_c, 7, 79, 127
2, 263969, Note_on_c, 4, 76, 127
2, 263969, Note_on_c, 11, 58, 127
2, 264131, Note_off_c, 11, 58, 127
2, 264133, Note_on_c, 0, 48, 127
2, 264242, Note_off_c, 4, 76, 127
2, 264295, Note_off_c, 0, 48, 127
2, 264297, Note_on_c, 0, 72, 127
2, 264297, Note_on_c, 2, 50, 127
2, 264459, Note_off_c, 2, 50, 127
2, 264461, Note_on_c, 4, 52, 127
2, 264570, Note_off_c, 0, 72, 127
2, 264623, Note_off_c, 4, 52, 127
2, 264625, Note_on_c, 5, 77, 127
2, 264625, Note_on_c, 5, 53, 127
2, 264705, Note_off_c, 5, 77, 127
2, 264708, Note_on_c, 4, 76, 127
2, 264787, Note_off_c, 5, 53, 127
2, 264788, Note_off_c, 4, 76, 127
2, 264790, Note_on_c, 5, 77, 127
2, 264790, Note_on_c, 7, 55, 127
2, 264952, Note_off_c, 7, 55, 127
2, 264954, Note_on_c, 10, 57, 127
2, 265116, Note_off_c, 10, 57, 127
2, 265116, Note_off_c, 5, 77, 127
2, 265118, Note_on_c, 5, 77, 127
2, 265118, Note_on_c, 5, 53, 127
2, 265280, Note_off_c, 5, 53, 127
2, 265280, Note_off_c, 5, 77, 127
2, 265282, Note_on_c, 5, 77, 127
2, 265282, Note_on_c, 11, 58, 127
2, 265444, Note_off_c, 11, 58, 127
2, 265446, Note_on_c, 0, 60, 127
2, 265608, Note_off_c, 0, 60, 127
2, 265610, Note_on_c, 11, 58, 127
2, 265772, Note_off_c, 11, 58, 127
2, 265772, Note_off_c, 5, 77, 127
2, 265775, Note_on_c, 7, 79, 127
2, 265775, Note_on_c, 10, 57, 127
2, 265937, Note_off_c, 10, 57, 127
2, 265937, Note_off_c, 7, 79, 127
2, 265939, Note_on_c, 5, 77, 127
2, 265939, Note_on_c, 7, 55, 127
2, 266101, Note_off_c, 7, 55, 127
2, 266101, Note_off_c, 5, 77, 127
2, 266103, Note_on_c, 3, 75, 127
2, 266103, Note_on_c, 0, 60, 127
2, 266183, Note_off_c, 3, 75, 127
2, 266185, Note_on_c, 5, 77, 127
2, 266265, Note_off_c, 5, 77, 127
2, 266265, Note_off_c, 0, 60, 127
2, 266267, Note_on_c, 3, 75, 127
2, 266267, Note_on_c, 11, 58, 127
2, 266429, Note_off_c, 11, 58, 127
2, 266429, Note_off_c, 3, 75, 127
2, 266431, Note_on_c, 3, 75, 127
2, 266431, Note_on_c, 0, 60, 127
2, 266593, Note_off_c, 0, 60, 127
2, 266593, Note_off_c, 3, 75, 127
2, 266595, Note_on_c, 3, 75, 127
2, 266595, Note_on_c, 10, 57, 127
2, 266757, Note_off_c, 3, 75, 127
2, 266760, Note_on_c, 5, 65, 127
2, 266902, Note_off_c, 10, 57, 127
2, 266922, Note_off_c, 5, 65, 127
2, 266924, Note_on_c, 7, 67, 127
2, 266924, Note_on_c, 5, 53, 127
2, 267086, Note_off_c, 7, 67, 127
2, 267088, Note_on_c, 10, 69, 127
2, 267231, Note_off_c, 5, 53, 127
2, 267250, Note_off_c, 10, 69, 127
2, 267252, Note_on_c, 11, 70, 127
2, 267252, Note_on_c, 11, 58, 127
2, 267332, Note_off_c, 11, 58, 127
2, 267334, Note_on_c, 10, 57, 127
2, 267414, Note_off_c, 10, 57, 127
2, 267414, Note_off_c, 11, 70, 127
2, 267416, Note_on_c, 0, 72, 127
2, 267416, Note_on_c, 11, 58, 127
2, 267578, Note_off_c, 0, 72, 127
2, 267580, Note_on_c, 2, 74, 127
2, 267742, Note_off_c, 2, 74, 127
2, 267742, Note_off_c, 11, 58, 127
2, 267744, Note_on_c, 11, 70, 127
2, 267744, Note_on_c, 11, 58, 127
2, 267906, Note_off_c, 11, 58, 127
2, 267906, Note_off_c, 11, 70, 127
2, 267909, Note_on_c, 3, 75, 127
2, 267909, Note_on_c, 11, 58, 127
2, 268071, Note_off_c, 3, 75, 127
2, 268073, Note_on_c, 5, 77, 127
2, 268235, Note_off_c, 5, 77, 127
2, 268237, Note_on_c, 3, 75, 127
2, 268399, Note_off_c, 3, 75, 127
2, 268399, Note_off_c, 11, 58, 127
2, 268401, Note_on_c, 2, 74, 127
2, 268401, Note_on_c, 0, 60, 127
2, 268563, Note_off_c, 0, 60, 127
2, 268563, Note_off_c, 2, 74, 127
2, 268565, Note_on_c, 0, 72, 127
2, 268565, Note_on_c, 11, 58, 127
2, 268727, Note_off_c, 11, 58, 127
2, 268727, Note_off_c, 0, 72, 127
2, 268729, Note_on_c, 5, 77, 127
2, 268729, Note_on_c, 10, 57, 127
2, 268809, Note_off_c, 10, 57, 127
2, 268812, Note_on_c, 11, 58, 127
2, 268891, Note_off_c, 5, 77, 127
2, 268892, Note_off_c, 11, 58, 127
2, 268894, Note_on_c, 3, 75, 127
2, 268894, Note_on_c, 10, 57, 127
2, 269056, Note_off_c, 10, 57, 127
2, 269056, Note_off_c, 3, 75, 127
2, 269058, Note_on_c, 5, 77, 127
2, 269058, Note_on_c, 11, 58, 127
2, 269220, Note_off_c, 11, 58, 127
2, 269220, Note_off_c, 5, 77, 127
2, 269222, Note_on_c, 2, 74, 127
2, 269222, Note_on_c, 11, 58, 127
2, 269384, Note_off_c, 11, 58, 127
2, 269386, Note_on_c, 2, 50, 127
2, 269495, Note_off_c, 2, 74, 127
2, 269548, Note_off_c, 2, 50, 127
2, 269550, Note_on_c, 11, 70, 127
2, 269550, Note_on_c, 4, 52, 127
2, 269712, Note_off_c, 4, 52, 127
2, 269714, Note_on_c, 5, 53, 127
2, 269823, Note_off_c, 11, 70, 127
2, 269876, Note_off_c, 5, 53, 127
2, 269879, Note_on_c, 2, 74, 127
2, 269879, Note_on_c, 11, 82, 127
2, 269879, Note_on_c, 7, 79, 127
2, 269879, Note_on_c, 7, 55, 127
2, 270041, Note_off_c, 7, 55, 127
2, 270043, Note_on_c, 10, 57, 127
2, 270205, Note_off_c, 10, 57, 127
2, 270207, Note_on_c, 11, 58, 127
2, 270369, Note_off_c, 11, 58, 127
2, 270369, Note_off_c, 7, 79, 127
2, 270369, Note_off_c, 11, 82, 127
2, 270369, Note_off_c, 2, 74, 127
2, 270371, Note_on_c, 2, 74, 127
2, 270371, Note_on_c, 7, 79, 127
2, 270371, Note_on_c, 11, 82, 127
2, 270371, Note_on_c, 7, 55, 127
2, 270533, Note_off_c, 7, 55, 127
2, 270533, Note_off_c, 11, 82, 127
2, 270533, Note_off_c, 7, 79, 127
2, 270533, Note_off_c, 2, 74, 127
2, 270535, Note_on_c, 11, 82, 127
2, 270535, Note_on_c, 4, 76, 127
2, 270535, Note_on_c, 7, 79, 127
2, 270535, Note_on_c, 0, 60, 127
2, 270697, Note_off_c, 0, 60, 127
2, 270699, Note_on_c, 0, 48, 127
2, 270861, Note_off_c, 0, 48, 127
2, 270864, Note_on_c, 2, 50, 127
2, 271025, Note_off_c, 7, 79, 127
2, 271025, Note_off_c, 4, 76, 127
2, 271025, Note_off_c, 11, 82, 127
2, 271026, Note_off_c, 2, 50, 127
2, 271028, Note_on_c, 0, 84, 127
2, 271028, Note_on_c, 4, 76, 127
2, 271028, Note_on_c, 7, 79, 127
2, 271028, Note_on_c, 4, 52, 127
2, 271190, Note_off_c, 4, 52, 127
2, 271190, Note_off_c, 7, 79, 127
2, 271190, Note_off_c, 4, 76, 127
2, 271190, Note_off_c, 0, 84, 127
2, 271192, Note_on_c, 4, 76, 127
2, 271192, Note_on_c, 5, 77, 127
2, 271192, Note_on_c, 10, 81, 127
2, 271192, Note_on_c, 5, 53, 127
2, 271354, Note_off_c, 5, 53, 127
2, 271356, Note_on_c, 7, 55, 127
2, 271518, Note_off_c, 7, 55, 127
2, 271520, Note_on_c, 10, 57, 127
2, 271682, Note_off_c, 10, 57, 127
2, 271682, Note_off_c, 10, 81, 127
2, 271682, Note_off_c, 5, 77, 127
2, 271682, Note_off_c, 4, 76, 127
2, 271684, Note_on_c, 10, 81, 127
2, 271684, Note_on_c, 4, 76, 127
2, 271684, Note_on_c, 5, 77, 127
2, 271684, Note_on_c, 5, 53, 127
2, 271846, Note_off_c, 5, 53, 127
2, 271846, Note_off_c, 5, 77, 127
2, 271846, Note_off_c, 4, 76, 127
2, 271846, Note_off_c, 10, 81, 127
2, 271848, Note_on_c, 2, 74, 127
2, 271848, Note_on_c, 10, 81, 127
2, 271848, Note_on_c, 5, 77, 127
2, 271848, Note_on_c, 11, 58, 127
2, 272010, Note_off_c, 11, 58, 127
2, 272013, Note_on_c, 10, 57, 127
2, 272174, Note_off_c, 10, 81, 127
2, 272174, Note_off_c, 2, 74, 127
2, 272175, Note_off_c, 10, 57, 127
2, 272177, Note_on_c, 2, 74, 127
2, 272177, Note_on_c, 7, 55, 127
2, 272339, Note_off_c, 7, 55, 127
2, 272341, Note_on_c, 5, 53, 127
2, 272497, Note_off_c, 5, 77, 127
2, 272503, Note_off_c, 5, 53, 127
2, 272503, Note_off_c, 2, 74, 127
2, 272505, Note_on_c, 7, 79, 127
2, 272505, Note_on_c, 2, 74, 127
2, 272505, Note_on_c, 4, 52, 127
2, 272667, Note_off_c, 4, 52, 127
2, 272669, Note_on_c, 2, 50, 127
2, 272831, Note_off_c, 2, 50, 127
2, 272833, Note_on_c, 0, 48, 127
2, 272995, Note_off_c, 0, 48, 127
2, 272995, Note_off_c, 2, 74, 127
2, 272995, Note_off_c, 7, 79, 127
2, 272998, Note_on_c, 2, 74, 127
2, 272998, Note_on_c, 7, 79, 127
2, 272998, Note_on_c, 11, 46, 127
2, 273160, Note_off_c, 11, 46, 127
2, 273160, Note_off_c, 7, 79, 127
2, 273160, Note_off_c, 2, 74, 127
2, 273162, Note_on_c, 0, 72, 127
2, 273162, Note_on_c, 7, 79, 127
2, 273162, Note_on_c, 10, 45, 127
2, 273324, Note_off_c, 10, 45, 127
2, 273326, Note_on_c, 11, 46, 127
2, 273488, Note_off_c, 11, 46, 127
2, 273490, Note_on_c, 0, 48, 127
2, 273652, Note_off_c, 0, 48, 127
2, 273652, Note_off_c, 7, 79, 127
2, 273652, Note_off_c, 0, 72, 127
2, 273654, Note_on_c, 0, 72, 127
2, 273654, Note_on_c, 10, 81, 127
2, 273654, Note_on_c, 4, 52, 127
2, 273816, Note_off_c, 4, 52, 127
2, 273816, Note_off_c, 10, 81, 127
2, 273816, Note_off_c, 0, 72, 127
2, 273818, Note_on_c, 0, 72, 127
2, 273818, Note_on_c, 5, 77, 127
2, 273818, Note_on_c, 2, 50, 127
2, 273898, Note_off_c, 5, 77, 127
2, 273900, Note_on_c, 4, 76, 127
2, 273980, Note_off_c, 4, 76, 127
2, 273980, Note_off_c, 2, 50, 127
2, 273983, Note_on_c, 4, 52, 127
2, 273983, Note_on_c, 5, 77, 127
2, 274145, Note_off_c, 4, 52, 127
2, 274147, Note_on_c, 5, 53, 127
2, 274307, Note_off_c, 5, 77, 127
2, 274308, Note_off_c, 0, 72, 127
2, 274309, Note_off_c, 5, 53, 127
2, 274311, Note_on_c, 5, 77, 127
2, 274311, Note_on_c, 0, 72, 127
2, 274311, Note_on_c, 10, 57, 127
2, 274473, Note_off_c, 10, 57, 127
2, 274473, Note_off_c, 0, 72, 127
2, 274473, Note_off_c, 5, 77, 127
2, 274475, Note_on_c, 5, 77, 127
2, 274475, Note_on_c, 11, 70, 127
2, 274475, Note_on_c, 7, 55, 127
2, 274637, Note_off_c, 7, 55, 127
2, 274639, Note_on_c, 7, 43, 127
2, 274801, Note_off_c, 7, 43, 127
2, 274803, Note_on_c, 10, 45, 127
2, 274965, Note_off_c, 10, 45, 127
2, 274965, Note_off_c, 11, 70, 127
2, 274965, Note_off_c, 5, 77, 127
2, 274968, Note_on_c, 7, 79, 127
2, 274968, Note_on_c, 11, 70, 127
2, 274968, Note_on_c, 11, 46, 127
2, 275130, Note_off_c, 11, 46, 127
2, 275130, Note_off_c, 11, 70, 127
2, 275130, Note_off_c, 7, 79, 127
2, 275132, Note_on_c, 11, 70, 127
2, 275132, Note_on_c, 5, 77, 127
2, 275132, Note_on_c, 0, 48, 127
2, 275294, Note_off_c, 0, 48, 127
2, 275294, Note_off_c, 5, 77, 127
2, 275296, Note_on_c, 10, 45, 127
2, 275296, Note_on_c, 4, 76, 127
2, 275376, Note_off_c, 4, 76, 127
2, 275378, Note_on_c, 5, 77, 127
2, 275458, Note_off_c, 5, 77, 127
2, 275458, Note_off_c, 10, 45, 127
2, 275460, Note_on_c, 11, 46, 127
2, 275460, Note_on_c, 4, 76, 127
2, 275622, Note_off_c, 4, 76, 127
2, 275622, Note_off_c, 11, 46, 127
2, 275622, Note_off_c, 11, 70, 127
2, 275624, Note_on_c, 11, 70, 127
2, 275624, Note_on_c, 5, 77, 127
2, 275624, Note_on_c, 0, 48, 127
2, 275786, Note_off_c, 0, 48, 127
2, 275786, Note_off_c, 5, 77, 127
2, 275786, Note_off_c, 11, 70, 127
2, 275788, Note_on_c, 5, 77, 127
2, 275788, Note_on_c, 10, 69, 127
2, 275788, Note_on_c, 2, 38, 127
2, 276114, Note_off_c, 10, 69, 127
2, 276114, Note_off_c, 5, 77, 127
2, 276117, Note_on_c, 2, 62, 127
2, 276279, Note_off_c, 2, 62, 127
2, 276281, Note_on_c, 4, 64, 127
2, 276443, Note_off_c, 4, 64, 127
2, 276445, Note_on_c, 5, 65, 127
2, 276540, Note_off_c, 2, 38, 127
2, 276607, Note_off_c, 5, 65, 127
2, 276609, Note_on_c, 7, 67, 127
2, 276771, Note_off_c, 7, 67, 127
2, 276773, Note_on_c, 10, 69, 127
2, 276773, Note_on_c, 2, 50, 127
2, 276935, Note_off_c, 10, 69, 127
2, 276937, Note_on_c, 5, 65, 127
2, 277099, Note_off_c, 5, 65, 127
2, 277099, Note_off_c, 2, 50, 127
2, 277102, Note_on_c, 11, 70, 127
2, 277102, Note_on_c, 7, 55, 127
2, 277264, Note_off_c, 7, 55, 127
2, 277264, Note_off_c, 11, 70, 127
2, 277266, Note_on_c, 0, 72, 127
2, 277266, Note_on_c, 10, 57, 127
2, 277428, Note_off_c, 10, 57, 127
2, 277428, Note_off_c, 0, 72, 127
2, 277430, Note_on_c, 11, 70, 127
2, 277430, Note_on_c, 7, 55, 127
2, 277592, Note_off_c, 7, 55, 127
2, 277592, Note_off_c, 11, 70, 127
2, 277594, Note_on_c, 10, 69, 127
2, 277594, Note_on_c, 5, 53, 127
2, 277756, Note_off_c, 5, 53, 127
2, 277756, Note_off_c, 10, 69, 127
2, 277758, Note_on_c, 7, 67, 127
2, 277758, Note_on_c, 4, 52, 127
2, 277920, Note_off_c, 4, 52, 127
2, 277920, Note_off_c, 7, 67, 127
2, 277922, Note_on_c, 0, 72, 127
2, 277922, Note_on_c, 0, 48, 127
2, 278084, Note_off_c, 0, 48, 127
2, 278084, Note_off_c, 0, 72, 127
2, 278087, Note_on_c, 11, 70, 127
2, 278087, Note_on_c, 2, 50, 127
2, 278249, Note_off_c, 2, 50, 127
2, 278249, Note_off_c, 11, 70, 127
2, 278251, Note_on_c, 0, 72, 127
2, 278251, Note_on_c, 4, 52, 127
2, 278413, Note_off_c, 4, 52, 127
2, 278413, Note_off_c, 0, 72, 127
2, 278415, Note_on_c, 10, 69, 127
2, 278415, Note_on_c, 5, 53, 127
2, 278579, Note_off_c, 5, 53, 127
2, 278581, Note_on_c, 7, 55, 127
2, 278692, Note_off_c, 10, 69, 127
2, 278745, Note_off_c, 7, 55, 127
2, 278747, Note_on_c, 0, 60, 127
2, 278747, Note_on_c, 5, 53, 127
2, 278911, Note_off_c, 5, 53, 127
2, 278912, Note_on_c, 4, 52, 127
2, 279024, Note_off_c, 0, 60, 127
2, 279076, Note_off_c, 4, 52, 127
2, 279078, Note_on_c, 2, 50, 127
2, 279078, Note_on_c, 2, 62, 127
2, 279166, Note_on_c, 4, 64, 127
2, 279250, Note_off_c, 2, 50, 127
2, 279253, Note_off_c, 4, 64, 127
2, 279253, Note_on_c, 0, 48, 127
2, 279253, Note_on_c, 5, 65, 127
2, 279425, Note_off_c, 0, 48, 127
2, 279427, Note_on_c, 11, 46, 127
2, 279598, Note_off_c, 5, 65, 127
2, 279599, Note_off_c, 11, 46, 127
2, 279599, Note_off_c, 2, 62, 127
2, 279602, Note_on_c, 0, 60, 127
2, 279602, Note_on_c, 10, 57, 127
2, 279602, Note_on_c, 5, 65, 127
2, 279602, Note_on_c, 10, 45, 127
2, 279774, Note_off_c, 10, 45, 127
2, 279774, Note_off_c, 5, 65, 127
2, 279774, Note_off_c, 10, 57, 127
2, 279774, Note_off_c, 0, 60, 127
2, 279776, Note_on_c, 7, 55, 127
2, 279776, Note_on_c, 5, 65, 127
2, 279776, Note_on_c, 2, 62, 127
2, 279776, Note_on_c, 11, 46, 127
2, 279958, Note_off_c, 2, 62, 127
2, 279961, Note_on_c, 0, 60, 127
2, 280143, Note_off_c, 0, 60, 127
2, 280143, Note_off_c, 11, 46, 127
2, 280145, Note_on_c, 11, 58, 127
2, 280145, Note_on_c, 7, 43, 127
2, 280327, Note_off_c, 11, 58, 127
2, 280330, Note_on_c, 10, 57, 127
2, 280507, Note_off_c, 5, 65, 127
2, 280507, Note_off_c, 7, 55, 127
2, 280512, Note_off_c, 10, 57, 127
2, 280512, Note_off_c, 7, 43, 127
2, 280515, Note_on_c, 4, 64, 127
2, 280515, Note_on_c, 7, 55, 127
2, 280515, Note_on_c, 0, 48, 127
2, 280720, Note_on_c, 0, 60, 127
2, 280923, Note_off_c, 0, 60, 127
2, 280923, Note_off_c, 0, 48, 127
2, 280925, Note_on_c, 11, 58, 127
2, 280925, Note_on_c, 0, 36, 127
2, 281113, Note_off_c, 4, 64, 127
2, 281128, Note_off_c, 11, 58, 127
2, 281130, Note_on_c, 0, 60, 127
2, 281130, Note_on_c, 4, 64, 127
2, 281327, Note_off_c, 7, 55, 127
2, 281333, Note_off_c, 4, 64, 127
2, 281333, Note_off_c, 0, 60, 127
2, 281333, Note_off_c, 0, 36, 127
2, 281336, Note_on_c, 5, 65, 127
2, 281336, Note_on_c, 10, 57, 127
2, 281336, Note_on_c, 5, 41, 127
2, 283772, Note_off_c, 5, 41, 127
2, 283772, Note_off_c, 10, 57, 127
2, 283772, Note_off_c, 5, 65, 127
2, 284539, Note_on_c, 5, 77, 127
2, 284711, Note_off_c, 5, 77, 127
2, 284714, Note_on_c, 5, 53, 127
2, 284714, Note_on_c, 0, 72, 127
2, 284714, Note_on_c, 10, 69, 127
2, 284714, Note_on_c, 5, 77, 127
2, 285061, Note_off_c, 5, 53, 127
2, 285063, Note_on_c, 5, 41, 127
2, 285148, Note_off_c, 5, 77, 127
2, 285148, Note_off_c, 10, 69, 127
2, 285148, Note_off_c, 0, 72, 127
2, 285150, Note_on_c, 5, 77, 127
2, 285235, Note_off_c, 5, 77, 127
2, 285237, Note_on_c, 4, 76, 127
2, 285322, Note_off_c, 4, 76, 127
2, 285324, Note_on_c, 2, 74, 127
2, 285409, Note_off_c, 2, 74, 127
2, 285411, Note_on_c, 0, 72, 127
2, 285463, Note_off_c, 5, 41, 127
2, 285583, Note_off_c, 0, 72, 127
2, 285586, Note_on_c, 5, 65, 127
2, 285586, Note_on_c, 2, 74, 127
2, 285758, Note_off_c, 2, 74, 127
2, 285758, Note_off_c, 5, 65, 127
2, 285760, Note_on_c, 4, 64, 127
2, 285760, Note_on_c, 0, 72, 127
2, 285932, Note_off_c, 0, 72, 127
2, 285932, Note_off_c, 4, 64, 127
2, 285935, Note_on_c, 2, 62, 127
2, 285935, Note_on_c, 11, 70, 127
2, 286107, Note_off_c, 11, 70, 127
2, 286107, Note_off_c, 2, 62, 127
2, 286109, Note_on_c, 0, 60, 127
2, 286109, Note_on_c, 10, 69, 127
2, 286216, Note_off_c, 10, 69, 127
2, 286225, Note_on_c, 11, 70, 127
2, 286332, Note_off_c, 11, 70, 127
2, 286342, Note_on_c, 0, 72, 127
2, 286449, Note_off_c, 0, 72, 127
2, 286456, Note_off_c, 0, 60, 127
2, 286458, Note_on_c, 5, 65, 127
2, 286458, Note_on_c, 10, 69, 127
2, 286565, Note_off_c, 10, 69, 127
2, 286574, Note_on_c, 11, 70, 127
2, 286681, Note_off_c, 11, 70, 127
2, 286690, Note_on_c, 0, 72, 127
2, 286797, Note_off_c, 0, 72, 127
2, 286805, Note_off_c, 5, 65, 127
2, 286807, Note_on_c, 10, 57, 127
2, 286807, Note_on_c, 5, 65, 127
2, 286914, Note_off_c, 5, 65, 127
2, 286923, Note_on_c, 7, 67, 127
2, 287030, Note_off_c, 7, 67, 127
2, 287039, Note_on_c, 10, 69, 127
2, 287146, Note_off_c, 10, 69, 127
2, 287154, Note_off_c, 10, 57, 127
2, 287156, Note_on_c, 0, 60, 127
2, 287156, Note_on_c, 5, 65, 127
2, 287263, Note_off_c, 5, 65, 127
2, 287272, Note_on_c, 7, 67, 127
2, 287379, Note_off_c, 7, 67, 127
2, 287388, Note_on_c, 10, 69, 127
2, 287495, Note_off_c, 10, 69, 127
2, 287503, Note_off_c, 0, 60, 127
2, 287504, Note_on_c, 5, 53, 127
2, 287504, Note_on_c, 0, 60, 127
2, 287611, Note_off_c, 5, 53, 127
2, 287621, Note_on_c, 7, 55, 127
2, 287728, Note_off_c, 7, 55, 127
2, 287737, Note_on_c, 10, 57, 127
2, 287844, Note_off_c, 10, 57, 127
2, 287851, Note_off_c, 0, 60, 127
2, 287853, Note_on_c, 5, 53, 127
2, 287853, Note_on_c, 5, 65, 127
2, 287960, Note_off_c, 5, 53, 127
2, 287970, Note_on_c, 7, 55, 127
2, 288077, Note_off_c, 7, 55, 127
2, 288086, Note_on_c, 10, 57, 127
2, 288193, Note_off_c, 10, 57, 127
2, 288200, Note_off_c, 5, 65, 127
2, 288202, Note_on_c, 2, 50, 127
2, 288202, Note_on_c, 7, 67, 127
2, 288287, Note_off_c, 7, 67, 127
2, 288289, Note_on_c, 5, 65, 127
2, 288309, Note_off_c, 2, 50, 127
2, 288318, Note_on_c, 4, 52, 127
2, 288374, Note_off_c, 5, 65, 127
2, 288376, Note_on_c, 7, 67, 127
2, 288425, Note_off_c, 4, 52, 127
2, 288435, Note_on_c, 5, 53, 127
2, 288461, Note_off_c, 7, 67, 127
2, 288464, Note_on_c, 5, 65, 127
2, 288542, Note_off_c, 5, 53, 127
2, 288549, Note_off_c, 5, 65, 127
2, 288551, Note_on_c, 2, 50, 127
2, 288551, Note_on_c, 7, 67, 127
2, 288636, Note_off_c, 7, 67, 127
2, 288638, Note_on_c, 5, 65, 127
2, 288658, Note_off_c, 2, 50, 127
2, 288667, Note_on_c, 4, 52, 127
2, 288723, Note_off_c, 5, 65, 127
2, 288725, Note_on_c, 4, 64, 127
2, 288774, Note_off_c, 4, 52, 127
2, 288783, Note_on_c, 5, 53, 127
2, 288810, Note_off_c, 4, 64, 127
2, 288813, Note_on_c, 5, 65, 127
2, 288890, Note_off_c, 5, 53, 127
2, 288898, Note_off_c, 5, 65, 127
2, 288900, Note_on_c, 11, 46, 127
2, 288900, Note_on_c, 7, 67, 127
2, 289007, Note_off_c, 11, 46, 127
2, 289016, Note_on_c, 0, 48, 127
2, 289123, Note_off_c, 0, 48, 127
2, 289132, Note_on_c, 2, 50, 127
2, 289239, Note_off_c, 2, 50, 127
2, 289247, Note_off_c, 7, 67, 127
2, 289249, Note_on_c, 11, 46, 127
2, 289249, Note_on_c, 5, 65, 127
2, 289249, Note_on_c, 7, 67, 127
2, 289356, Note_off_c, 11, 46, 127
2, 289365, Note_on_c, 0, 48, 127
2, 289472, Note_off_c, 0, 48, 127
2, 289481, Note_on_c, 2, 50, 127
2, 289588, Note_off_c, 2, 50, 127
2, 289596, Note_off_c, 7, 67, 127
2, 289596, Note_off_c, 5, 65, 127
2, 289597, Note_on_c, 7, 43, 127
2, 289597, Note_on_c, 10, 69, 127
2, 289597, Note_on_c, 4, 64, 127
2, 289682, Note_off_c, 10, 69, 127
2, 289685, Note_on_c, 7, 67, 127
2, 289769, Note_off_c, 7, 43, 127
2, 289770, Note_off_c, 7, 67, 127
2, 289772, Note_on_c, 0, 48, 127
2, 289772, Note_on_c, 10, 69, 127
2, 289857, Note_off_c, 10, 69, 127
2, 289859, Note_on_c, 7, 67, 127
2, 289944, Note_off_c, 7, 67, 127
2, 289944, Note_off_c, 0, 48, 127
2, 289946, Note_on_c, 11, 46, 127
2, 289946, Note_on_c, 10, 69, 127
2, 290031, Note_off_c, 10, 69, 127
2, 290033, Note_on_c, 7, 67, 127
2, 290118, Note_off_c, 7, 67, 127
2, 290118, Note_off_c, 11, 46, 127
2, 290121, Note_on_c, 0, 48, 127
2, 290121, Note_on_c, 5, 65, 127
2, 290206, Note_off_c, 5, 65, 127
2, 290208, Note_on_c, 7, 67, 127
2, 290287, Note_off_c, 4, 64, 127
2, 290293, Note_off_c, 7, 67, 127
2, 290293, Note_off_c, 0, 48, 127
2, 290295, Note_on_c, 5, 41, 127
2, 290295, Note_on_c, 5, 65, 127
2, 290295, Note_on_c, 10, 69, 127
2, 290467, Note_off_c, 10, 69, 127
2, 290470, Note_on_c, 0, 72, 127
2, 290642, Note_off_c, 0, 72, 127
2, 290642, Note_off_c, 5, 41, 127
2, 290644, Note_on_c, 5, 53, 127
2, 290644, Note_on_c, 2, 74, 127
2, 290816, Note_off_c, 2, 74, 127
2, 290818, Note_on_c, 4, 76, 127
2, 290985, Note_off_c, 5, 65, 127
2, 290990, Note_off_c, 4, 76, 127
2, 290991, Note_off_c, 5, 53, 127
2, 290993, Note_on_c, 7, 55, 127
2, 290993, Note_on_c, 5, 77, 127
2, 291078, Note_off_c, 7, 55, 127
2, 291080, Note_on_c, 5, 53, 127
2, 291165, Note_off_c, 5, 53, 127
2, 291167, Note_on_c, 7, 55, 127
2, 291167, Note_on_c, 0, 72, 127
2, 291252, Note_off_c, 7, 55, 127
2, 291254, Note_on_c, 5, 53, 127
2, 291339, Note_off_c, 5, 53, 127
2, 291339, Note_off_c, 0, 72, 127
2, 291342, Note_on_c, 7, 55, 127
2, 291342, Note_on_c, 11, 70, 127
2, 291427, Note_off_c, 7, 55, 127
2, 291429, Note_on_c, 5, 53, 127
2, 291514, Note_off_c, 5, 53, 127
2, 291514, Note_off_c, 11, 70, 127
2, 291516, Note_on_c, 4, 52, 127
2, 291516, Note_on_c, 10, 69, 127
2, 291601, Note_off_c, 4, 52, 127
2, 291603, Note_on_c, 5, 53, 127
2, 291688, Note_off_c, 5, 53, 127
2, 291688, Note_off_c, 10, 69, 127
2, 291690, Note_on_c, 7, 55, 127
2, 291690, Note_on_c, 11, 70, 127
2, 291865, Note_off_c, 5, 77, 127
2, 291865, Note_on_c, 5, 77, 127
2, 292037, Note_off_c, 5, 77, 127
2, 292037, Note_off_c, 7, 55, 127
2, 292039, Note_on_c, 7, 55, 127
2, 292039, Note_on_c, 4, 76, 127
2, 292211, Note_off_c, 4, 76, 127
2, 292214, Note_on_c, 5, 77, 127
2, 292386, Note_off_c, 5, 77, 127
2, 292386, Note_off_c, 7, 55, 127
2, 292388, Note_on_c, 10, 57, 127
2, 292388, Note_on_c, 7, 79, 127
2, 292473, Note_off_c, 10, 57, 127
2, 292475, Note_on_c, 7, 55, 127
2, 292560, Note_off_c, 7, 55, 127
2, 292560, Note_off_c, 7, 79, 127
2, 292563, Note_on_c, 10, 57, 127
2, 292563, Note_on_c, 4, 76, 127
2, 292648, Note_off_c, 10, 57, 127
2, 292650, Note_on_c, 7, 55, 127
2, 292735, Note_off_c, 7, 55, 127
2, 292735, Note_off_c, 4, 76, 127
2, 292737, Note_on_c, 10, 57, 127
2, 292737, Note_on_c, 5, 77, 127
2, 292822, Note_off_c, 10, 57, 127
2, 292824, Note_on_c, 7, 55, 127
2, 292909, Note_off_c, 7, 55, 127
2, 292909, Note_off_c, 5, 77, 127
2, 292911, Note_on_c, 5, 53, 127
2, 292911, Note_on_c, 7, 79, 127
2, 292996, Note_off_c, 5, 53, 127
2, 292999, Note_on_c, 7, 55, 127
2, 293083, Note_off_c, 7, 79, 127
2, 293084, Note_off_c, 7, 55, 127
2, 293086, Note_on_c, 10, 57, 127
2, 293086, Note_on_c, 0, 72, 127
2, 293252, Note_off_c, 11, 70, 127
2, 293260, Note_on_c, 11, 70, 127
2, 293432, Note_off_c, 11, 70, 127
2, 293435, Note_on_c, 10, 69, 127
2, 293607, Note_off_c, 10, 69, 127
2, 293609, Note_on_c, 7, 67, 127
2, 293776, Note_off_c, 10, 57, 127
2, 293781, Note_off_c, 7, 67, 127
2, 293784, Note_on_c, 10, 69, 127
2, 293956, Note_off_c, 10, 69, 127
2, 293958, Note_on_c, 5, 65, 127
2, 294130, Note_off_c, 5, 65, 127
2, 294132, Note_on_c, 10, 57, 127
2, 294132, Note_on_c, 7, 67, 127
2, 294304, Note_off_c, 7, 67, 127
2, 294307, Note_on_c, 10, 69, 127
2, 294479, Note_off_c, 10, 69, 127
2, 294479, Note_off_c, 10, 57, 127
2, 294481, Note_on_c, 11, 58, 127
2, 294481, Note_on_c, 2, 62, 127
2, 294648, Note_off_c, 0, 72, 127
2, 294656, Note_on_c, 0, 72, 127
2, 294828, Note_off_c, 0, 72, 127
2, 294830, Note_on_c, 11, 70, 127
2, 295002, Note_off_c, 11, 70, 127
2, 295004, Note_on_c, 10, 69, 127
2, 295171, Note_off_c, 2, 62, 127
2, 295171, Note_off_c, 11, 58, 127
2, 295176, Note_off_c, 10, 69, 127
2, 295179, Note_on_c, 11, 70, 127
2, 295351, Note_off_c, 11, 70, 127
2, 295353, Note_on_c, 7, 67, 127
2, 295525, Note_off_c, 7, 67, 127
2, 295528, Note_on_c, 11, 58, 127
2, 295528, Note_on_c, 10, 69, 127
2, 295528, Note_on_c, 2, 62, 127
2, 295700, Note_off_c, 10, 69, 127
2, 295702, Note_on_c, 11, 70, 127
2, 295873, Note_off_c, 2, 62, 127
2, 295874, Note_off_c, 11, 70, 127
2, 295875, Note_off_c, 11, 58, 127
2, 295877, Note_on_c, 11, 58, 127
2, 295877, Note_on_c, 4, 64, 127
2, 295877, Note_on_c, 0, 60, 127
2, 296049, Note_off_c, 4, 64, 127
2, 296051, Note_on_c, 7, 67, 127
2, 296223, Note_off_c, 7, 67, 127
2, 296225, Note_on_c, 10, 69, 127
2, 296397, Note_off_c, 10, 69, 127
2, 296400, Note_on_c, 11, 70, 127
2, 296567, Note_off_c, 0, 60, 127
2, 296572, Note_off_c, 11, 70, 127
2, 296574, Note_on_c, 0, 72, 127
2, 296749, Note_on_c, 0, 60, 127
2, 296921, Note_off_c, 0, 60, 127
2, 296923, Note_on_c, 2, 62, 127
2, 297095, Note_off_c, 2, 62, 127
2, 297097, Note_on_c, 4, 64, 127
2, 297269, Note_off_c, 4, 64, 127
2, 297270, Note_off_c, 11, 58, 127
2, 297272, Note_on_c, 10, 57, 127
2, 297272, Note_on_c, 5, 65, 127
2, 297446, Note_off_c, 0, 72, 127
2, 297446, Note_on_c, 11, 70, 127
2, 297618, Note_off_c, 11, 70, 127
2, 297619, Note_off_c, 10, 57, 127
2, 297621, Note_on_c, 2, 62, 127
2, 297621, Note_on_c, 10, 69, 127
2, 297793, Note_off_c, 10, 69, 127
2, 297795, Note_on_c, 2, 74, 127
2, 297967, Note_off_c, 2, 74, 127
2, 297968, Note_off_c, 2, 62, 127
2, 297970, Note_on_c, 7, 55, 127
2, 297970, Note_on_c, 0, 72, 127
2, 298055, Note_off_c, 0, 72, 127
2, 298057, Note_on_c, 11, 70, 127
2, 298142, Note_off_c, 11, 70, 127
2, 298144, Note_on_c, 0, 72, 127
2, 298229, Note_off_c, 0, 72, 127
2, 298231, Note_on_c, 11, 70, 127
2, 298316, Note_off_c, 11, 70, 127
2, 298316, Note_off_c, 5, 65, 127
2, 298317, Note_off_c, 7, 55, 127
2, 298318, Note_on_c, 0, 60, 127
2, 298318, Note_on_c, 0, 72, 127
2, 298318, Note_on_c, 4, 64, 127
2, 298403, Note_off_c, 0, 72, 127
2, 298406, Note_on_c, 11, 70, 127
2, 298491, Note_off_c, 11, 70, 127
2, 298493, Note_on_c, 10, 69, 127
2, 298578, Note_off_c, 10, 69, 127
2, 298580, Note_on_c, 11, 70, 127
2, 298663, Note_off_c, 4, 64, 127
2, 298665, Note_off_c, 11, 70, 127
2, 298665, Note_off_c, 0, 60, 127
2, 298667, Note_on_c, 5, 53, 127
2, 298667, Note_on_c, 10, 69, 127
2, 298667, Note_on_c, 5, 65, 127
2, 298839, Note_off_c, 10, 69, 127
2, 298842, Note_on_c, 0, 72, 127
2, 299014, Note_off_c, 0, 72, 127
2, 299014, Note_off_c, 5, 53, 127
2, 299016, Note_on_c, 4, 52, 127
2, 299016, Note_on_c, 2, 74, 127
2, 299188, Note_off_c, 2, 74, 127
2, 299191, Note_on_c, 4, 76, 127
2, 299357, Note_off_c, 5, 65, 127
2, 299363, Note_off_c, 4, 76, 127
2, 299363, Note_off_c, 4, 52, 127
2, 299365, Note_on_c, 2, 50, 127
2, 299365, Note_on_c, 5, 77, 127
2, 299539, Note_on_c, 10, 69, 127
2, 299711, Note_off_c, 10, 69, 127
2, 299712, Note_off_c, 2, 50, 127
2, 299714, Note_on_c, 0, 48, 127
2, 299714, Note_on_c, 12, 71, 127
2, 299886, Note_off_c, 12, 71, 127
2, 299888, Note_on_c, 0, 72, 127
2, 300060, Note_off_c, 0, 72, 127
2, 300061, Note_off_c, 0, 48, 127
2, 300063, Note_on_c, 12, 47, 127
2, 300063, Note_on_c, 2, 74, 127
2, 300235, Note_off_c, 12, 47, 127
2, 300237, Note_on_c, 2, 50, 127
2, 300409, Note_off_c, 2, 50, 127
2, 300409, Note_off_c, 5, 77, 127
2, 300410, Note_off_c, 2, 74, 127
2, 300411, Note_on_c, 4, 52, 127
2, 300411, Note_on_c, 4, 76, 127
2, 300411, Note_on_c, 0, 72, 127
2, 300583, Note_off_c, 4, 52, 127
2, 300586, Note_on_c, 5, 53, 127
2, 300758, Note_off_c, 5, 53, 127
2, 300758, Note_off_c, 0, 72, 127
2, 300758, Note_off_c, 4, 76, 127
2, 300760, Note_on_c, 7, 55, 127
2, 300760, Note_on_c, 2, 74, 127
2, 300760, Note_on_c, 12, 71, 127
2, 300932, Note_off_c, 2, 74, 127
2, 300935, Note_on_c, 7, 79, 127
2, 301107, Note_off_c, 7, 79, 127
2, 301107, Note_off_c, 7, 55, 127
2, 301109, Note_on_c, 7, 43, 127
2, 301109, Note_on_c, 5, 77, 127
2, 301281, Note_off_c, 5, 77, 127
2, 301284, Note_on_c, 7, 79, 127
2, 301450, Note_off_c, 12, 71, 127
2, 301456, Note_off_c, 7, 79, 127
2, 301456, Note_off_c, 7, 43, 127
2, 301458, Note_on_c, 0, 48, 127
2, 301458, Note_on_c, 0, 72, 127
2, 301458, Note_on_c, 4, 76, 127
2, 301565, Note_off_c, 0, 48, 127
2, 301574, Note_on_c, 2, 50, 127
2, 301681, Note_off_c, 2, 50, 127
2, 301688, Note_off_c, 0, 72, 127
2, 301689, Note_on_c, 7, 67, 127
2, 301691, Note_on_c, 4, 52, 127
2, 301798, Note_off_c, 4, 52, 127
2, 301803, Note_off_c, 7, 67, 127
2, 301807, Note_on_c, 0, 48, 127
2, 301807, Note_on_c, 10, 69, 127
2, 301914, Note_off_c, 0, 48, 127
2, 301923, Note_on_c, 2, 50, 127
2, 302030, Note_off_c, 2, 50, 127
2, 302037, Note_off_c, 10, 69, 127
2, 302038, Note_on_c, 12, 71, 127
2, 302039, Note_on_c, 4, 52, 127
2, 302146, Note_off_c, 4, 52, 127
2, 302152, Note_off_c, 12, 71, 127
2, 302156, Note_on_c, 10, 45, 127
2, 302156, Note_on_c, 0, 72, 127
2, 302263, Note_off_c, 10, 45, 127
2, 302272, Note_on_c, 12, 47, 127
2, 302330, Note_off_c, 4, 76, 127
2, 302379, Note_off_c, 12, 47, 127
2, 302387, Note_on_c, 4, 76, 127
2, 302388, Note_on_c, 0, 48, 127
2, 302495, Note_off_c, 0, 48, 127
2, 302501, Note_off_c, 4, 76, 127
2, 302505, Note_on_c, 10, 45, 127
2, 302505, Note_on_c, 5, 77, 127
2, 302612, Note_off_c, 10, 45, 127
2, 302621, Note_on_c, 12, 47, 127
2, 302728, Note_off_c, 12, 47, 127
2, 302735, Note_off_c, 5, 77, 127
2, 302735, Note_on_c, 7, 79, 127
2, 302737, Note_on_c, 0, 48, 127
2, 302844, Note_off_c, 0, 48, 127
2, 302849, Note_off_c, 7, 79, 127
2, 302853, Note_on_c, 5, 41, 127
2, 302853, Note_on_c, 10, 81, 127
2, 302960, Note_off_c, 10, 81, 127
2, 302970, Note_on_c, 12, 83, 127
2, 303077, Note_off_c, 12, 83, 127
2, 303086, Note_on_c, 0, 84, 127
2, 303193, Note_off_c, 0, 84, 127
2, 303200, Note_off_c, 5, 41, 127
2, 303202, Note_on_c, 10, 57, 127
2, 303202, Note_on_c, 10, 81, 127
2, 303309, Note_off_c, 10, 81, 127
2, 303318, Note_on_c, 12, 83, 127
2, 303425, Note_off_c, 12, 83, 127
2, 303435, Note_on_c, 0, 84, 127
2, 303542, Note_off_c, 0, 84, 127
2, 303549, Note_off_c, 10, 57, 127
2, 303551, Note_on_c, 2, 50, 127
2, 303551, Note_on_c, 5, 77, 127
2, 303658, Note_off_c, 5, 77, 127
2, 303667, Note_on_c, 7, 79, 127
2, 303774, Note_off_c, 7, 79, 127
2, 303784, Note_on_c, 10, 81, 127
2, 303891, Note_off_c, 10, 81, 127
2, 303898, Note_off_c, 2, 50, 127
2, 303900, Note_on_c, 5, 53, 127
2, 303900, Note_on_c, 5, 77, 127
2, 304007, Note_off_c, 5, 77, 127
2, 304016, Note_on_c, 7, 79, 127
2, 304123, Note_off_c, 7, 79, 127
2, 304132, Note_on_c, 10, 81, 127
2, 304239, Note_off_c, 10, 81, 127
2, 304245, Note_off_c, 0, 72, 127
2, 304247, Note_off_c, 5, 53, 127
2, 304249, Note_on_c, 12, 47, 127
2, 304249, Note_on_c, 2, 74, 127
2, 304356, Note_off_c, 12, 47, 127
2, 304365, Note_on_c, 0, 48, 127
2, 304472, Note_off_c, 0, 48, 127
2, 304480, Note_on_c, 0, 72, 127
2, 304481, Note_on_c, 2, 50, 127
2, 304588, Note_off_c, 2, 50, 127
2, 304594, Note_off_c, 0, 72, 127
2, 304598, Note_on_c, 12, 47, 127
2, 304598, Note_on_c, 12, 71, 127
2, 304705, Note_off_c, 12, 47, 127
2, 304714, Note_on_c, 0, 48, 127
2, 304821, Note_off_c, 0, 48, 127
2, 304828, Note_off_c, 12, 71, 127
2, 304828, Note_on_c, 10, 69, 127
2, 304830, Note_on_c, 2, 50, 127
2, 304937, Note_off_c, 2, 50, 127
2, 304942, Note_off_c, 10, 69, 127
2, 304946, Note_on_c, 7, 43, 127
2, 304946, Note_on_c, 12, 71, 127
2, 305053, Note_off_c, 7, 43, 127
2, 305063, Note_on_c, 10, 45, 127
2, 305121, Note_off_c, 2, 74, 127
2, 305170, Note_off_c, 10, 45, 127
2, 305177, Note_on_c, 2, 74, 127
2, 305179, Note_on_c, 12, 47, 127
2, 305286, Note_off_c, 12, 47, 127
2, 305291, Note_off_c, 2, 74, 127
2, 305295, Note_on_c, 7, 43, 127
2, 305295, Note_on_c, 4, 76, 127
2, 305402, Note_off_c, 7, 43, 127
2, 305412, Note_on_c, 10, 45, 127
2, 305519, Note_off_c, 10, 45, 127
2, 305525, Note_off_c, 4, 76, 127
2, 305526, Note_on_c, 5, 77, 127
2, 305528, Note_on_c, 12, 47, 127
2, 305635, Note_off_c, 12, 47, 127
2, 305640, Note_off_c, 5, 77, 127
2, 305644, Note_on_c, 4, 40, 127
2, 305644, Note_on_c, 7, 79, 127
2, 305751, Note_off_c, 7, 79, 127
2, 305760, Note_on_c, 10, 81, 127
2, 305867, Note_off_c, 10, 81, 127
2, 305877, Note_on_c, 12, 83, 127
2, 305984, Note_off_c, 12, 83, 127
2, 305991, Note_off_c, 4, 40, 127
2, 305993, Note_on_c, 7, 55, 127
2, 305993, Note_on_c, 7, 79, 127
2, 306100, Note_off_c, 7, 79, 127
2, 306109, Note_on_c, 10, 81, 127
2, 306216, Note_off_c, 10, 81, 127
2, 306225, Note_on_c, 12, 83, 127
2, 306332, Note_off_c, 12, 83, 127
2, 306340, Note_off_c, 7, 55, 127
2, 306342, Note_on_c, 0, 48, 127
2, 306342, Note_on_c, 4, 76, 127
2, 306449, Note_off_c, 4, 76, 127
2, 306458, Note_on_c, 5, 77, 127
2, 306565, Note_off_c, 5, 77, 127
2, 306574, Note_on_c, 7, 79, 127
2, 306681, Note_off_c, 7, 79, 127
2, 306689, Note_off_c, 0, 48, 127
2, 306691, Note_on_c, 4, 52, 127
2, 306691, Note_on_c, 4, 76, 127
2, 306798, Note_off_c, 4, 76, 127
2, 306807, Note_on_c, 5, 77, 127
2, 306914, Note_off_c, 5, 77, 127
2, 306923, Note_on_c, 7, 79, 127
2, 307030, Note_off_c, 7, 79, 127
2, 307035, Note_off_c, 12, 71, 127
2, 307038, Note_off_c, 4, 52, 127
2, 307039, Note_on_c, 10, 45, 127
2, 307039, Note_on_c, 0, 72, 127
2, 307146, Note_off_c, 10, 45, 127
2, 307156, Note_on_c, 12, 47, 127
2, 307263, Note_off_c, 12, 47, 127
2, 307270, Note_on_c, 12, 71, 127
2, 307272, Note_on_c, 0, 48, 127
2, 307379, Note_off_c, 0, 48, 127
2, 307384, Note_off_c, 12, 71, 127
2, 307388, Note_on_c, 10, 45, 127
2, 307388, Note_on_c, 10, 69, 127
2, 307495, Note_off_c, 10, 45, 127
2, 307505, Note_on_c, 12, 47, 127
2, 307612, Note_off_c, 12, 47, 127
2, 307618, Note_off_c, 10, 69, 127
2, 307619, Note_on_c, 7, 67, 127
2, 307621, Note_on_c, 0, 48, 127
2, 307728, Note_off_c, 0, 48, 127
2, 307733, Note_off_c, 7, 67, 127
2, 307737, Note_on_c, 6, 42, 127
2, 307737, Note_on_c, 10, 69, 127
2, 307844, Note_off_c, 6, 42, 127
2, 307853, Note_on_c, 7, 43, 127
2, 307911, Note_off_c, 0, 72, 127
2, 307960, Note_off_c, 7, 43, 127
2, 307968, Note_on_c, 3, 75, 127
2, 307970, Note_on_c, 10, 45, 127
2, 308077, Note_off_c, 10, 45, 127
2, 308082, Note_off_c, 3, 75, 127
2, 308086, Note_on_c, 6, 42, 127
2, 308086, Note_on_c, 2, 74, 127
2, 308193, Note_off_c, 6, 42, 127
2, 308202, Note_on_c, 7, 43, 127
2, 308309, Note_off_c, 7, 43, 127
2, 308316, Note_off_c, 2, 74, 127
2, 308317, Note_on_c, 0, 72, 127
2, 308319, Note_on_c, 10, 45, 127
2, 308426, Note_off_c, 10, 45, 127
2, 308431, Note_off_c, 0, 72, 127
2, 308435, Note_on_c, 2, 38, 127
2, 308435, Note_on_c, 6, 78, 127
2, 308542, Note_off_c, 6, 78, 127
2, 308551, Note_on_c, 7, 79, 127
2, 308658, Note_off_c, 7, 79, 127
2, 308667, Note_on_c, 10, 81, 127
2, 308774, Note_off_c, 10, 81, 127
2, 308782, Note_off_c, 2, 38, 127
2, 308784, Note_on_c, 10, 45, 127
2, 308784, Note_on_c, 6, 78, 127
2, 308891, Note_off_c, 6, 78, 127
2, 308900, Note_on_c, 7, 79, 127
2, 309007, Note_off_c, 7, 79, 127
2, 309016, Note_on_c, 10, 81, 127
2, 309123, Note_off_c, 10, 81, 127
2, 309131, Note_off_c, 10, 45, 127
2, 309132, Note_on_c, 6, 42, 127
2, 309132, Note_on_c, 0, 72, 127
2, 309239, Note_off_c, 0, 72, 127
2, 309249, Note_on_c, 2, 74, 127
2, 309356, Note_off_c, 2, 74, 127
2, 309365, Note_on_c, 3, 75, 127
2, 309472, Note_off_c, 3, 75, 127
2, 309479, Note_off_c, 6, 42, 127
2, 309481, Note_on_c, 2, 38, 127
2, 309481, Note_on_c, 0, 72, 127
2, 309588, Note_off_c, 0, 72, 127
2, 309598, Note_on_c, 2, 74, 127
2, 309705, Note_off_c, 2, 74, 127
2, 309714, Note_on_c, 3, 75, 127
2, 309821, Note_off_c, 3, 75, 127
2, 309826, Note_off_c, 10, 69, 127
2, 309828, Note_off_c, 2, 38, 127
2, 309830, Note_on_c, 7, 43, 127
2, 309830, Note_on_c, 7, 67, 127
2, 309830, Note_on_c, 12, 71, 127
2, 309937, Note_off_c, 12, 71, 127
2, 309946, Note_on_c, 0, 72, 127
2, 310053, Note_off_c, 0, 72, 127
2, 310063, Note_on_c, 2, 74, 127
2, 310170, Note_off_c, 2, 74, 127
2, 310179, Note_on_c, 12, 71, 127
2, 310286, Note_off_c, 12, 71, 127
2, 310295, Note_on_c, 0, 72, 127
2, 310402, Note_off_c, 0, 72, 127
2, 310412, Note_on_c, 2, 74, 127
2, 310519, Note_off_c, 2, 74, 127
2, 310520, Note_off_c, 7, 67, 127
2, 310528, Note_on_c, 7, 67, 127
2, 310635, Note_off_c, 7, 67, 127
2, 310644, Note_on_c, 10, 69, 127
2, 310702, Note_off_c, 7, 43, 127
2, 310751, Note_off_c, 10, 69, 127
2, 310760, Note_on_c, 12, 71, 127
2, 310877, Note_on_c, 7, 55, 127
2, 310877, Note_on_c, 5, 65, 127
2, 310984, Note_off_c, 5, 65, 127
2, 310993, Note_on_c, 7, 67, 127
2, 311100, Note_off_c, 7, 67, 127
2, 311109, Note_on_c, 8, 68, 127
2, 311216, Note_off_c, 8, 68, 127
2, 311223, Note_off_c, 12, 71, 127
2, 311224, Note_off_c, 7, 55, 127
2, 311226, Note_on_c, 8, 56, 127
2, 311226, Note_on_c, 3, 63, 127
2, 311226, Note_on_c, 0, 72, 127
2, 311398, Note_off_c, 8, 56, 127
2, 311400, Note_on_c, 7, 55, 127
2, 311572, Note_off_c, 7, 55, 127
2, 311573, Note_off_c, 0, 72, 127
2, 311573, Note_off_c, 3, 63, 127
2, 311574, Note_on_c, 6, 54, 127
2, 311574, Note_on_c, 3, 75, 127
2, 311746, Note_off_c, 6, 54, 127
2, 311749, Note_on_c, 7, 55, 127
2, 311921, Note_off_c, 7, 55, 127
2, 311923, Note_on_c, 0, 48, 127
2, 311923, Note_on_c, 8, 68, 127
2, 312095, Note_off_c, 0, 48, 127
2, 312098, Note_on_c, 7, 55, 127
2, 312264, Note_off_c, 3, 75, 127
2, 312270, Note_off_c, 7, 55, 127
2, 312272, Note_on_c, 6, 54, 127
2, 312272, Note_on_c, 0, 72, 127
2, 312444, Note_off_c, 6, 54, 127
2, 312446, Note_on_c, 7, 55, 127
2, 312613, Note_off_c, 8, 68, 127
2, 312618, Note_off_c, 7, 55, 127
2, 312621, Note_on_c, 10, 57, 127
2, 312621, Note_on_c, 6, 66, 127
2, 312793, Note_off_c, 10, 57, 127
2, 312795, Note_on_c, 7, 55, 127
2, 312962, Note_off_c, 0, 72, 127
2, 312967, Note_off_c, 7, 55, 127
2, 312970, Note_on_c, 6, 54, 127
2, 312970, Note_on_c, 10, 69, 127
2, 313142, Note_off_c, 6, 54, 127
2, 313144, Note_on_c, 7, 55, 127
2, 313311, Note_off_c, 6, 66, 127
2, 313316, Note_off_c, 7, 55, 127
2, 313319, Note_on_c, 0, 48, 127
2, 313319, Note_on_c, 2, 62, 127
2, 313491, Note_off_c, 0, 48, 127
2, 313493, Note_on_c, 3, 51, 127
2, 313660, Note_off_c, 10, 69, 127
2, 313665, Note_off_c, 3, 51, 127
2, 313667, Note_on_c, 2, 50, 127
2, 313667, Note_on_c, 6, 66, 127
2, 313839, Note_off_c, 2, 50, 127
2, 313842, Note_on_c, 0, 48, 127
2, 314009, Note_off_c, 2, 62, 127
2, 314014, Note_off_c, 0, 48, 127
2, 314014, Note_off_c, 6, 66, 127
2, 314016, Note_on_c, 5, 53, 127
2, 314016, Note_on_c, 12, 59, 127
2, 314191, Note_on_c, 2, 62, 127
2, 314363, Note_off_c, 2, 62, 127
2, 314365, Note_on_c, 7, 67, 127
2, 314523, Note_off_c, 12, 59, 127
2, 314538, Note_on_c, 12, 59, 127
2, 314708, Note_off_c, 7, 67, 127
2, 314710, Note_off_c, 12, 59, 127
2, 314712, Note_on_c, 0, 60, 127
2, 314884, Note_off_c, 0, 60, 127
2, 314884, Note_off_c, 5, 53, 127
2, 314887, Note_on_c, 5, 53, 127
2, 314887, Note_on_c, 10, 69, 127
2, 315059, Note_off_c, 10, 69, 127
2, 315059, Note_off_c, 5, 53, 127
2, 315061, Note_on_c, 4, 52, 127
2, 315061, Note_on_c, 2, 62, 127
2, 315233, Note_off_c, 2, 62, 127
2, 315233, Note_off_c, 4, 52, 127
2, 315235, Note_on_c, 2, 50, 127
2, 315235, Note_on_c, 12, 71, 127
2, 315407, Note_off_c, 12, 71, 127
2, 315407, Note_off_c, 2, 50, 127
2, 315410, Note_on_c, 0, 48, 127
2, 315410, Note_on_c, 4, 64, 127
2, 315582, Note_off_c, 0, 48, 127
2, 315584, Note_on_c, 4, 52, 127
2, 315584, Note_on_c, 7, 67, 127
2, 315756, Note_off_c, 7, 67, 127
2, 315756, Note_off_c, 4, 52, 127
2, 315759, Note_on_c, 10, 57, 127
2, 315759, Note_on_c, 0, 72, 127
2, 315917, Note_off_c, 4, 64, 127
2, 315930, Note_off_c, 10, 57, 127
2, 315931, Note_on_c, 5, 53, 127
2, 315931, Note_on_c, 4, 64, 127
2, 316103, Note_off_c, 4, 64, 127
2, 316103, Note_off_c, 5, 53, 127
2, 316106, Note_on_c, 7, 55, 127
2, 316106, Note_on_c, 2, 62, 127
2, 316265, Note_off_c, 0, 72, 127
2, 316279, Note_on_c, 0, 72, 127
2, 316449, Note_off_c, 2, 62, 127
2, 316451, Note_off_c, 7, 55, 127
2, 316453, Note_on_c, 7, 43, 127
2, 316453, Note_on_c, 5, 65, 127
2, 316624, Note_off_c, 0, 72, 127
2, 316627, Note_on_c, 12, 71, 127
2, 316798, Note_off_c, 5, 65, 127
2, 316799, Note_off_c, 12, 71, 127
2, 316800, Note_off_c, 7, 43, 127
2, 316802, Note_on_c, 0, 48, 127
2, 316802, Note_on_c, 0, 72, 127
2, 316802, Note_on_c, 7, 67, 127
2, 316802, Note_on_c, 4, 64, 127
2, 316976, Note_on_c, 0, 36, 127
2, 317151, Note_on_c, 4, 40, 127
2, 317323, Note_off_c, 4, 40, 127
2, 317325, Note_on_c, 7, 43, 127
2, 317492, Note_off_c, 0, 48, 127
2, 317497, Note_off_c, 7, 43, 127
2, 317499, Note_on_c, 0, 48, 127
2, 317848, Note_off_c, 0, 36, 127
2, 318021, Note_off_c, 4, 64, 127
2, 318021, Note_off_c, 7, 67, 127
2, 318021, Note_off_c, 0, 72, 127
2, 318023, Note_on_c, 7, 79, 127
2, 318194, Note_off_c, 0, 48, 127
2, 318195, Note_off_c, 7, 79, 127
2, 318197, Note_on_c, 0, 48, 127
2, 318197, Note_on_c, 4, 76, 127
2, 318197, Note_on_c, 0, 72, 127
2, 318197, Note_on_c, 7, 79, 127
2, 318629, Note_off_c, 0, 48, 127
2, 318632, Note_on_c, 7, 43, 127
2, 318717, Note_off_c, 7, 43, 127
2, 318719, Note_on_c, 10, 45, 127
2, 318804, Note_off_c, 10, 45, 127
2, 318806, Note_on_c, 12, 47, 127
2, 318886, Note_off_c, 0, 72, 127
2, 318886, Note_off_c, 4, 76, 127
2, 318891, Note_off_c, 12, 47, 127
2, 318893, Note_on_c, 0, 48, 127
2, 319065, Note_off_c, 0, 48, 127
2, 319065, Note_off_c, 7, 79, 127
2, 319068, Note_on_c, 12, 47, 127
2, 319068, Note_on_c, 7, 67, 127
2, 319240, Note_off_c, 7, 67, 127
2, 319240, Note_off_c, 12, 47, 127
2, 319242, Note_on_c, 0, 48, 127
2, 319242, Note_on_c, 10, 69, 127
2, 319414, Note_off_c, 10, 69, 127
2, 319414, Note_off_c, 0, 48, 127
2, 319416, Note_on_c, 2, 50, 127
2, 319416, Note_on_c, 12, 71, 127
2, 319588, Note_off_c, 12, 71, 127
2, 319588, Note_off_c, 2, 50, 127
2, 319591, Note_on_c, 4, 52, 127
2, 319591, Note_on_c, 0, 72, 127
2, 319698, Note_off_c, 4, 52, 127
2, 319707, Note_on_c, 2, 50, 127
2, 319814, Note_off_c, 2, 50, 127
2, 319823, Note_on_c, 0, 48, 127
2, 319930, Note_off_c, 0, 48, 127
2, 319938, Note_off_c, 0, 72, 127
2, 319940, Note_on_c, 4, 52, 127
2, 319940, Note_on_c, 7, 67, 127
2, 320047, Note_off_c, 4, 52, 127
2, 320056, Note_on_c, 2, 50, 127
2, 320163, Note_off_c, 2, 50, 127
2, 320172, Note_on_c, 0, 48, 127
2, 320279, Note_off_c, 0, 48, 127
2, 320287, Note_off_c, 7, 67, 127
2, 320289, Note_on_c, 7, 55, 127
2, 320289, Note_on_c, 4, 76, 127
2, 320396, Note_off_c, 7, 55, 127
2, 320405, Note_on_c, 5, 53, 127
2, 320512, Note_off_c, 5, 53, 127
2, 320521, Note_on_c, 4, 52, 127
2, 320628, Note_off_c, 4, 52, 127
2, 320636, Note_off_c, 4, 76, 127
2, 320637, Note_on_c, 7, 55, 127
2, 320637, Note_on_c, 0, 72, 127
2, 320744, Note_off_c, 7, 55, 127
2, 320754, Note_on_c, 5, 53, 127
2, 320861, Note_off_c, 5, 53, 127
2, 320870, Note_on_c, 4, 52, 127
2, 320977, Note_off_c, 4, 52, 127
2, 320984, Note_off_c, 0, 72, 127
2, 320986, Note_on_c, 0, 60, 127
2, 320986, Note_on_c, 7, 79, 127
2, 321093, Note_off_c, 7, 79, 127
2, 321102, Note_on_c, 5, 77, 127
2, 321209, Note_off_c, 5, 77, 127
2, 321219, Note_on_c, 4, 76, 127
2, 321326, Note_off_c, 4, 76, 127
2, 321333, Note_off_c, 0, 60, 127
2, 321335, Note_on_c, 7, 55, 127
2, 321335, Note_on_c, 7, 79, 127
2, 321442, Note_off_c, 7, 79, 127
2, 321451, Note_on_c, 5, 77, 127
2, 321558, Note_off_c, 5, 77, 127
2, 321568, Note_on_c, 4, 76, 127
2, 321675, Note_off_c, 4, 76, 127
2, 321682, Note_off_c, 7, 55, 127
2, 321684, Note_on_c, 7, 55, 127
2, 321684, Note_on_c, 0, 84, 127
2, 321856, Note_off_c, 0, 84, 127
2, 321858, Note_on_c, 7, 79, 127
2, 322030, Note_off_c, 7, 79, 127
2, 322033, Note_on_c, 7, 79, 127
2, 322118, Note_off_c, 7, 79, 127
2, 322118, Note_off_c, 7, 55, 127
2, 322120, Note_on_c, 12, 59, 127
2, 322120, Note_on_c, 5, 77, 127
2, 322205, Note_off_c, 5, 77, 127
2, 322205, Note_off_c, 12, 59, 127
2, 322207, Note_on_c, 10, 57, 127
2, 322207, Note_on_c, 4, 76, 127
2, 322292, Note_off_c, 10, 57, 127
2, 322294, Note_on_c, 7, 55, 127
2, 322379, Note_off_c, 7, 55, 127
2, 322379, Note_off_c, 4, 76, 127
2, 322382, Note_on_c, 5, 53, 127
2, 322382, Note_on_c, 10, 81, 127
2, 322489, Note_off_c, 10, 81, 127
2, 322498, Note_on_c, 7, 79, 127
2, 322605, Note_off_c, 7, 79, 127
2, 322614, Note_on_c, 5, 77, 127
2, 322721, Note_off_c, 5, 77, 127
2, 322729, Note_off_c, 5, 53, 127
2, 322730, Note_on_c, 5, 53, 127
2, 322730, Note_on_c, 5, 77, 127
2, 322837, Note_off_c, 5, 77, 127
2, 322847, Note_on_c, 4, 76, 127
2, 322954, Note_off_c, 4, 76, 127
2, 322963, Note_on_c, 2, 74, 127
2, 323070, Note_off_c, 2, 74, 127
2, 323077, Note_off_c, 5, 53, 127
2, 323079, Note_on_c, 5, 53, 127
2, 323079, Note_on_c, 12, 83, 127
2, 323251, Note_off_c, 12, 83, 127
2, 323254, Note_on_c, 5, 77, 127
2, 323426, Note_off_c, 5, 77, 127
2, 323428, Note_on_c, 5, 77, 127
2, 323513, Note_off_c, 5, 77, 127
2, 323513, Note_off_c, 5, 53, 127
2, 323515, Note_on_c, 10, 57, 127
2, 323515, Note_on_c, 4, 76, 127
2, 323600, Note_off_c, 4, 76, 127
2, 323600, Note_off_c, 10, 57, 127
2, 323602, Note_on_c, 7, 55, 127
2, 323602, Note_on_c, 2, 74, 127
2, 323687, Note_off_c, 7, 55, 127
2, 323690, Note_on_c, 5, 53, 127
2, 323774, Note_off_c, 2, 74, 127
2, 323775, Note_off_c, 5, 53, 127
2, 323777, Note_on_c, 4, 52, 127
2, 323777, Note_on_c, 0, 72, 127
2, 323951, Note_on_c, 7, 55, 127
2, 324123, Note_off_c, 7, 55, 127
2, 324124, Note_off_c, 0, 72, 127
2, 324126, Note_on_c, 10, 57, 127
2, 324126, Note_on_c, 7, 79, 127
2, 324298, Note_off_c, 10, 57, 127
2, 324300, Note_on_c, 12, 59, 127
2, 324467, Note_off_c, 4, 52, 127
2, 324472, Note_off_c, 12, 59, 127
2, 324473, Note_off_c, 7, 79, 127
2, 324475, Note_on_c, 0, 60, 127
2, 324475, Note_on_c, 10, 81, 127
2, 324555, Note_on_c, 7, 79, 127
2, 324560, Note_off_c, 10, 81, 127
2, 324634, Note_on_c, 10, 81, 127
2, 324638, Note_off_c, 7, 79, 127
2, 324647, Note_on_c, 7, 55, 127
2, 324712, Note_on_c, 7, 79, 127
2, 324717, Note_off_c, 10, 81, 127
2, 324818, Note_off_c, 7, 55, 127
2, 324820, Note_on_c, 5, 53, 127
2, 324901, Note_off_c, 7, 79, 127
2, 324907, Note_on_c, 11, 82, 127
2, 324992, Note_off_c, 11, 82, 127
2, 324992, Note_off_c, 5, 53, 127
2, 324994, Note_on_c, 4, 52, 127
2, 324994, Note_on_c, 10, 81, 127
2, 325079, Note_off_c, 10, 81, 127
2, 325082, Note_on_c, 7, 79, 127
2, 325166, Note_off_c, 4, 52, 127
2, 325167, Note_off_c, 7, 79, 127
2, 325169, Note_on_c, 2, 50, 127
2, 325169, Note_on_c, 5, 77, 127
2, 325343, Note_off_c, 0, 60, 127
2, 325343, Note_on_c, 0, 60, 127
2, 325515, Note_off_c, 0, 60, 127
2, 325516, Note_off_c, 5, 77, 127
2, 325518, Note_on_c, 12, 59, 127
2, 325518, Note_on_c, 5, 77, 127
2, 325690, Note_off_c, 12, 59, 127
2, 325692, Note_on_c, 10, 57, 127
2, 325859, Note_off_c, 2, 50, 127
2, 325864, Note_off_c, 10, 57, 127
2, 325865, Note_off_c, 5, 77, 127
2, 325867, Note_on_c, 12, 59, 127
2, 325867, Note_on_c, 7, 79, 127
2, 325947, Note_on_c, 5, 77, 127
2, 325952, Note_off_c, 7, 79, 127
2, 326026, Note_on_c, 7, 79, 127
2, 326030, Note_off_c, 5, 77, 127
2, 326039, Note_on_c, 7, 55, 127
2, 326104, Note_on_c, 5, 77, 127
2, 326109, Note_off_c, 7, 79, 127
2, 326210, Note_off_c, 7, 55, 127
2, 326212, Note_on_c, 5, 53, 127
2, 326293, Note_off_c, 5, 77, 127
2, 326299, Note_on_c, 10, 81, 127
2, 326384, Note_off_c, 10, 81, 127
2, 326384, Note_off_c, 5, 53, 127
2, 326386, Note_on_c, 7, 55, 127
2, 326386, Note_on_c, 7, 79, 127
2, 326471, Note_off_c, 7, 79, 127
2, 326474, Note_on_c, 5, 77, 127
2, 326554, Note_off_c, 12, 59, 127
2, 326558, Note_off_c, 7, 55, 127
2, 326559, Note_off_c, 5, 77, 127
2, 326561, Note_on_c, 0, 48, 127
2, 326561, Note_on_c, 4, 76, 127
2, 326733, Note_off_c, 4, 76, 127
2, 326735, Note_on_c, 2, 74, 127
2, 326907, Note_off_c, 2, 74, 127
2, 326910, Note_on_c, 7, 55, 127
2, 326910, Note_on_c, 4, 76, 127
2, 327082, Note_off_c, 4, 76, 127
2, 327084, Note_on_c, 5, 77, 127
2, 327251, Note_off_c, 0, 48, 127
2, 327256, Note_off_c, 5, 77, 127
2, 327257, Note_off_c, 7, 55, 127
2, 327258, Note_on_c, 0, 60, 127
2, 327258, Note_on_c, 4, 76, 127
2, 327343, Note_off_c, 0, 60, 127
2, 327346, Note_on_c, 12, 59, 127
2, 327430, Note_off_c, 4, 76, 127
2, 327431, Note_off_c, 12, 59, 127
2, 327433, Note_on_c, 7, 79, 127
2, 327433, Note_on_c, 0, 60, 127
2, 327518, Note_off_c, 0, 60, 127
2, 327520, Note_on_c, 12, 59, 127
2, 327605, Note_off_c, 12, 59, 127
2, 327605, Note_off_c, 7, 79, 127
2, 327607, Note_on_c, 6, 78, 127
2, 327607, Note_on_c, 0, 60, 127
2, 327779, Note_off_c, 6, 78, 127
2, 327782, Note_on_c, 4, 76, 127
2, 327954, Note_off_c, 4, 76, 127
2, 327956, Note_on_c, 6, 78, 127
2, 328114, Note_off_c, 0, 60, 127
2, 328129, Note_on_c, 10, 57, 127
2, 328301, Note_off_c, 10, 57, 127
2, 328301, Note_off_c, 6, 78, 127
2, 328303, Note_on_c, 12, 59, 127
2, 328303, Note_on_c, 2, 74, 127
2, 328475, Note_off_c, 12, 59, 127
2, 328478, Note_on_c, 0, 60, 127
2, 328650, Note_off_c, 0, 60, 127
2, 328650, Note_off_c, 2, 74, 127
2, 328652, Note_on_c, 12, 59, 127
2, 328652, Note_on_c, 7, 79, 127
2, 328731, Note_on_c, 6, 78, 127
2, 328737, Note_off_c, 7, 79, 127
2, 328808, Note_on_c, 7, 79, 127
2, 328814, Note_off_c, 6, 78, 127
2, 328823, Note_off_c, 12, 59, 127
2, 328825, Note_on_c, 2, 62, 127
2, 328885, Note_on_c, 6, 78, 127
2, 328891, Note_off_c, 7, 79, 127
2, 328962, Note_on_c, 7, 79, 127
2, 328968, Note_off_c, 6, 78, 127
2, 328996, Note_off_c, 2, 62, 127
2, 328998, Note_on_c, 1, 61, 127
2, 329170, Note_off_c, 1, 61, 127
2, 329172, Note_on_c, 12, 59, 127
2, 329344, Note_off_c, 12, 59, 127
2, 329346, Note_on_c, 1, 61, 127
2, 329505, Note_off_c, 7, 79, 127
2, 329519, Note_on_c, 7, 67, 127
2, 329519, Note_on_c, 4, 76, 127
2, 329691, Note_off_c, 4, 76, 127
2, 329691, Note_off_c, 7, 67, 127
2, 329694, Note_on_c, 10, 69, 127
2, 329694, Note_on_c, 5, 77, 127
2, 329866, Note_off_c, 5, 77, 127
2, 329866, Note_off_c, 10, 69, 127
2, 329868, Note_on_c, 7, 79, 127
2, 329868, Note_on_c, 11, 70, 127
2, 330040, Note_off_c, 11, 70, 127
2, 330040, Note_off_c, 7, 79, 127
2, 330040, Note_off_c, 1, 61, 127
2, 330042, Note_on_c, 2, 62, 127
2, 330042, Note_on_c, 10, 69, 127
2, 330042, Note_on_c, 5, 77, 127
2, 330214, Note_off_c, 5, 77, 127
2, 330214, Note_off_c, 10, 69, 127
2, 330217, Note_on_c, 10, 81, 127
2, 330217, Note_on_c, 0, 72, 127
2, 330389, Note_off_c, 0, 72, 127
2, 330389, Note_off_c, 10, 81, 127
2, 330391, Note_on_c, 11, 70, 127
2, 330391, Note_on_c, 7, 79, 127
2, 330563, Note_off_c, 7, 79, 127
2, 330563, Note_off_c, 11, 70, 127
2, 330566, Note_on_c, 10, 69, 127
2, 330566, Note_on_c, 5, 77, 127
2, 330738, Note_off_c, 5, 77, 127
2, 330738, Note_off_c, 10, 69, 127
2, 330740, Note_on_c, 4, 76, 127
2, 330740, Note_on_c, 7, 67, 127
2, 330912, Note_off_c, 7, 67, 127
2, 330912, Note_off_c, 4, 76, 127
2, 330914, Note_on_c, 5, 65, 127
2, 330914, Note_on_c, 2, 74, 127
2, 331086, Note_off_c, 2, 74, 127
2, 331086, Note_off_c, 5, 65, 127
2, 331089, Note_on_c, 4, 76, 127
2, 331089, Note_on_c, 7, 67, 127
2, 331261, Note_off_c, 7, 67, 127
2, 331261, Note_off_c, 4, 76, 127
2, 331263, Note_on_c, 5, 77, 127
2, 331263, Note_on_c, 10, 69, 127
2, 331435, Note_off_c, 10, 69, 127
2, 331435, Note_off_c, 5, 77, 127
2, 331435, Note_off_c, 2, 62, 127
2, 331438, Note_on_c, 1, 61, 127
2, 331438, Note_on_c, 7, 67, 127
2, 331438, Note_on_c, 4, 76, 127
2, 331610, Note_off_c, 4, 76, 127
2, 331610, Note_off_c, 7, 67, 127
2, 331612, Note_on_c, 7, 79, 127
2, 331612, Note_on_c, 11, 70, 127
2, 331784, Note_off_c, 11, 70, 127
2, 331784, Note_off_c, 7, 79, 127
2, 331787, Note_on_c, 5, 77, 127
2, 331787, Note_on_c, 10, 69, 127
2, 331959, Note_off_c, 10, 69, 127
2, 331959, Note_off_c, 5, 77, 127
2, 331961, Note_on_c, 7, 67, 127
2, 331961, Note_on_c, 4, 76, 127
2, 332133, Note_off_c, 4, 76, 127
2, 332133, Note_off_c, 7, 67, 127
2, 332133, Note_off_c, 1, 61, 127
2, 332135, Note_on_c, 2, 62, 127
2, 332135, Note_on_c, 2, 74, 127
2, 332135, Note_on_c, 5, 65, 127
2, 332482, Note_off_c, 2, 62, 127
2, 332484, Note_on_c, 7, 55, 127
2, 332656, Note_off_c, 5, 65, 127
2, 332656, Note_off_c, 2, 74, 127
2, 332659, Note_on_c, 4, 76, 127
2, 332659, Note_on_c, 7, 67, 127
2, 332831, Note_off_c, 7, 67, 127
2, 332831, Note_off_c, 4, 76, 127
2, 332831, Note_off_c, 7, 55, 127
2, 332833, Note_on_c, 10, 57, 127
2, 332833, Note_on_c, 4, 64, 127
2, 332833, Note_on_c, 2, 74, 127
2, 332992, Note_off_c, 2, 74, 127
2, 332992, Note_on_c, 1, 73, 127
2, 333060, Note_on_c, 2, 74, 127
2, 333062, Note_off_c, 1, 73, 127
2, 333129, Note_on_c, 1, 73, 127
2, 333130, Note_off_c, 2, 74, 127
2, 333178, Note_off_c, 10, 57, 127
2, 333180, Note_on_c, 10, 45, 127
2, 333199, Note_on_c, 2, 74, 127
2, 333200, Note_off_c, 1, 73, 127
2, 333267, Note_on_c, 1, 73, 127
2, 333269, Note_off_c, 2, 74, 127
2, 333352, Note_off_c, 1, 73, 127
2, 333355, Note_on_c, 2, 74, 127
2, 333522, Note_off_c, 4, 64, 127
2, 333527, Note_off_c, 2, 74, 127
2, 333527, Note_off_c, 10, 45, 127
2, 333529, Note_on_c, 2, 38, 127
2, 333529, Note_on_c, 2, 74, 127
2, 333529, Note_on_c, 5, 65, 127
2, 333876, Note_off_c, 2, 74, 127
2, 333876, Note_off_c, 2, 38, 127
2, 333878, Note_on_c, 2, 50, 127
2, 333878, Note_on_c, 10, 69, 127
2, 333963, Note_off_c, 10, 69, 127
2, 333965, Note_on_c, 11, 70, 127
2, 334050, Note_off_c, 11, 70, 127
2, 334052, Note_on_c, 10, 69, 127
2, 334137, Note_off_c, 10, 69, 127
2, 334140, Note_on_c, 11, 70, 127
2, 334225, Note_off_c, 11, 70, 127
2, 334227, Note_on_c, 0, 72, 127
2, 334312, Note_off_c, 0, 72, 127
2, 334314, Note_on_c, 11, 70, 127
2, 334399, Note_off_c, 11, 70, 127
2, 334399, Note_off_c, 2, 50, 127
2, 334401, Note_on_c, 2, 50, 127
2, 334401, Note_on_c, 0, 72, 127
2, 334486, Note_off_c, 0, 72, 127
2, 334488, Note_on_c, 11, 70, 127
2, 334573, Note_off_c, 11, 70, 127
2, 334573, Note_off_c, 2, 50, 127
2, 334576, Note_on_c, 0, 48, 127
2, 334576, Note_on_c, 0, 72, 127
2, 334661, Note_off_c, 0, 72, 127
2, 334663, Note_on_c, 11, 70, 127
2, 334748, Note_off_c, 11, 70, 127
2, 334748, Note_off_c, 0, 48, 127
2, 334750, Note_on_c, 11, 46, 127
2, 334750, Note_on_c, 10, 69, 127
2, 334835, Note_off_c, 10, 69, 127
2, 334837, Note_on_c, 11, 70, 127
2, 334922, Note_off_c, 11, 70, 127
2, 334922, Note_off_c, 11, 46, 127
2, 334924, Note_on_c, 10, 45, 127
2, 334924, Note_on_c, 0, 72, 127
2, 335096, Note_off_c, 0, 72, 127
2, 335099, Note_on_c, 3, 75, 127
2, 335271, Note_off_c, 3, 75, 127
2, 335271, Note_off_c, 10, 45, 127
2, 335273, Note_on_c, 10, 57, 127
2, 335273, Note_on_c, 2, 74, 127
2, 335358, Note_off_c, 10, 57, 127
2, 335360, Note_on_c, 11, 58, 127
2, 335445, Note_off_c, 11, 58, 127
2, 335445, Note_off_c, 2, 74, 127
2, 335448, Note_on_c, 10, 57, 127
2, 335448, Note_on_c, 0, 72, 127
2, 335533, Note_off_c, 10, 57, 127
2, 335535, Note_on_c, 11, 58, 127
2, 335620, Note_off_c, 11, 58, 127
2, 335620, Note_off_c, 0, 72, 127
2, 335622, Note_on_c, 0, 60, 127
2, 335622, Note_on_c, 2, 74, 127
2, 335707, Note_off_c, 0, 60, 127
2, 335709, Note_on_c, 11, 58, 127
2, 335794, Note_off_c, 11, 58, 127
2, 335794, Note_off_c, 2, 74, 127
2, 335796, Note_on_c, 0, 60, 127
2, 335796, Note_on_c, 11, 70, 127
2, 335881, Note_off_c, 0, 60, 127
2, 335884, Note_on_c, 11, 58, 127
2, 335968, Note_off_c, 11, 70, 127
2, 335969, Note_off_c, 11, 58, 127
2, 335971, Note_on_c, 0, 60, 127
2, 335971, Note_on_c, 0, 72, 127
2, 336056, Note_off_c, 0, 60, 127
2, 336058, Note_on_c, 11, 58, 127
2, 336143, Note_off_c, 11, 58, 127
2, 336143, Note_off_c, 0, 72, 127
2, 336145, Note_on_c, 10, 57, 127
2, 336145, Note_on_c, 2, 74, 127
2, 336230, Note_off_c, 10, 57, 127
2, 336233, Note_on_c, 11, 58, 127
2, 336309, Note_off_c, 5, 65, 127
2, 336317, Note_off_c, 2, 74, 127
2, 336318, Note_off_c, 11, 58, 127
2, 336320, Note_on_c, 0, 60, 127
2, 336320, Note_on_c, 7, 67, 127
2, 336320, Note_on_c, 4, 64, 127
2, 336667, Note_off_c, 0, 60, 127
2, 336669, Note_on_c, 0, 48, 127
2, 336754, Note_off_c, 7, 67, 127
2, 336756, Note_on_c, 10, 69, 127
2, 336841, Note_off_c, 10, 69, 127
2, 336843, Note_on_c, 7, 67, 127
2, 336928, Note_off_c, 7, 67, 127
2, 336930, Note_on_c, 10, 69, 127
2, 337015, Note_off_c, 10, 69, 127
2, 337017, Note_on_c, 11, 70, 127
2, 337102, Note_off_c, 11, 70, 127
2, 337105, Note_on_c, 10, 69, 127
2, 337190, Note_off_c, 10, 69, 127
2, 337190, Note_off_c, 0, 48, 127
2, 337192, Note_on_c, 0, 48, 127
2, 337192, Note_on_c, 11, 70, 127
2, 337277, Note_off_c, 11, 70, 127
2, 337279, Note_on_c, 10, 69, 127
2, 337364, Note_off_c, 10, 69, 127
2, 337364, Note_off_c, 0, 48, 127
2, 337366, Note_on_c, 11, 46, 127
2, 337366, Note_on_c, 11, 70, 127
2, 337451, Note_off_c, 11, 70, 127
2, 337453, Note_on_c, 10, 69, 127
2, 337538, Note_off_c, 10, 69, 127
2, 337538, Note_off_c, 11, 46, 127
2, 337541, Note_on_c, 10, 45, 127
2, 337541, Note_on_c, 7, 67, 127
2, 337626, Note_off_c, 7, 67, 127
2, 337628, Note_on_c, 10, 69, 127
2, 337713, Note_off_c, 10, 69, 127
2, 337713, Note_off_c, 10, 45, 127
2, 337713, Note_off_c, 4, 64, 127
2, 337715, Note_on_c, 7, 43, 127
2, 337715, Note_on_c, 11, 70, 127
2, 337715, Note_on_c, 3, 63, 127
2, 337887, Note_off_c, 11, 70, 127
2, 337890, Note_on_c, 2, 74, 127
2, 338062, Note_off_c, 2, 74, 127
2, 338062, Note_off_c, 7, 43, 127
2, 338064, Note_on_c, 7, 55, 127
2, 338064, Note_on_c, 0, 72, 127
2, 338149, Note_off_c, 7, 55, 127
2, 338151, Note_on_c, 10, 57, 127
2, 338236, Note_off_c, 10, 57, 127
2, 338236, Note_off_c, 0, 72, 127
2, 338238, Note_on_c, 7, 55, 127
2, 338238, Note_on_c, 11, 70, 127
2, 338323, Note_off_c, 7, 55, 127
2, 338326, Note_on_c, 10, 57, 127
2, 338410, Note_off_c, 11, 70, 127
2, 338411, Note_off_c, 10, 57, 127
2, 338413, Note_on_c, 11, 58, 127
2, 338413, Note_on_c, 0, 72, 127
2, 338498, Note_off_c, 11, 58, 127
2, 338500, Note_on_c, 10, 57, 127
2, 338585, Note_off_c, 10, 57, 127
2, 338585, Note_off_c, 0, 72, 127
2, 338587, Note_on_c, 11, 58, 127
2, 338587, Note_on_c, 10, 69, 127
2, 338672, Note_off_c, 11, 58, 127
2, 338674, Note_on_c, 10, 57, 127
2, 338759, Note_off_c, 10, 57, 127
2, 338759, Note_off_c, 10, 69, 127
2, 338762, Note_on_c, 11, 58, 127
2, 338762, Note_on_c, 11, 70, 127
2, 338847, Note_off_c, 11, 58, 127
2, 338849, Note_on_c, 10, 57, 127
2, 338934, Note_off_c, 10, 57, 127
2, 338934, Note_off_c, 11, 70, 127
2, 338936, Note_on_c, 7, 55, 127
2, 338936, Note_on_c, 0, 72, 127
2, 339021, Note_off_c, 7, 55, 127
2, 339023, Note_on_c, 10, 57, 127
2, 339108, Note_off_c, 10, 57, 127
2, 339108, Note_off_c, 0, 72, 127
2, 339108, Note_off_c, 3, 63, 127
2, 339110, Note_on_c, 11, 58, 127
2, 339110, Note_on_c, 2, 62, 127
2, 339110, Note_on_c, 5, 65, 127
2, 339282, Note_off_c, 5, 65, 127
2, 339285, Note_on_c, 5, 65, 127
2, 339370, Note_off_c, 5, 65, 127
2, 339372, Note_on_c, 7, 67, 127
2, 339455, Note_off_c, 2, 62, 127
2, 339457, Note_off_c, 7, 67, 127
2, 339457, Note_off_c, 11, 58, 127
2, 339459, Note_on_c, 11, 46, 127
2, 339459, Note_on_c, 10, 69, 127
2, 339544, Note_off_c, 10, 69, 127
2, 339547, Note_on_c, 7, 67, 127
2, 339632, Note_off_c, 7, 67, 127
2, 339634, Note_on_c, 5, 65, 127
2, 339719, Note_off_c, 5, 65, 127
2, 339721, Note_on_c, 7, 67, 127
2, 339804, Note_off_c, 11, 46, 127
2, 339806, Note_off_c, 7, 67, 127
2, 339808, Note_on_c, 10, 69, 127
2, 339980, Note_off_c, 10, 69, 127
2, 339983, Note_on_c, 5, 53, 127
2, 339983, Note_on_c, 10, 69, 127
2, 340068, Note_off_c, 10, 69, 127
2, 340068, Note_off_c, 5, 53, 127
2, 340070, Note_on_c, 7, 55, 127
2, 340070, Note_on_c, 11, 70, 127
2, 340155, Note_off_c, 11, 70, 127
2, 340155, Note_off_c, 7, 55, 127
2, 340157, Note_on_c, 10, 57, 127
2, 340157, Note_on_c, 0, 72, 127
2, 340242, Note_off_c, 0, 72, 127
2, 340242, Note_off_c, 10, 57, 127
2, 340244, Note_on_c, 7, 55, 127
2, 340244, Note_on_c, 11, 70, 127
2, 340329, Note_off_c, 11, 70, 127
2, 340329, Note_off_c, 7, 55, 127
2, 340331, Note_on_c, 5, 53, 127
2, 340331, Note_on_c, 10, 69, 127
2, 340416, Note_off_c, 10, 69, 127
2, 340416, Note_off_c, 5, 53, 127
2, 340419, Note_on_c, 7, 55, 127
2, 340419, Note_on_c, 11, 70, 127
2, 340504, Note_off_c, 11, 70, 127
2, 340504, Note_off_c, 7, 55, 127
2, 340506, Note_on_c, 10, 57, 127
2, 340506, Note_on_c, 0, 72, 127
2, 340613, Note_off_c, 0, 72, 127
2, 340613, Note_off_c, 10, 57, 127
2, 340622, Note_on_c, 7, 55, 127
2, 340622, Note_on_c, 11, 70, 127
2, 340729, Note_off_c, 11, 70, 127
2, 340729, Note_off_c, 7, 55, 127
2, 340738, Note_on_c, 10, 57, 127
2, 340738, Note_on_c, 0, 72, 127
2, 340845, Note_off_c, 0, 72, 127
2, 340845, Note_off_c, 10, 57, 127
2, 340855, Note_on_c, 11, 58, 127
2, 340855, Note_on_c, 2, 74, 127
2, 340962, Note_off_c, 2, 74, 127
2, 340962, Note_off_c, 11, 58, 127
2, 340971, Note_on_c, 10, 57, 127
2, 340971, Note_on_c, 0, 72, 127
2, 341078, Note_off_c, 0, 72, 127
2, 341078, Note_off_c, 10, 57, 127
2, 341087, Note_on_c, 11, 58, 127
2, 341087, Note_on_c, 2, 74, 127
2, 341194, Note_off_c, 2, 74, 127
2, 341194, Note_off_c, 11, 58, 127
2, 341204, Note_on_c, 0, 60, 127
2, 341204, Note_on_c, 4, 76, 127
2, 341311, Note_off_c, 4, 76, 127
2, 341311, Note_off_c, 0, 60, 127
2, 341320, Note_on_c, 11, 58, 127
2, 341320, Note_on_c, 2, 74, 127
2, 341427, Note_off_c, 2, 74, 127
2, 341427, Note_off_c, 11, 58, 127
2, 341436, Note_on_c, 0, 60, 127
2, 341436, Note_on_c, 4, 76, 127
2, 341543, Note_off_c, 4, 76, 127
2, 341543, Note_off_c, 0, 60, 127
2, 341552, Note_on_c, 2, 62, 127
2, 341552, Note_on_c, 5, 77, 127
2, 341659, Note_off_c, 5, 77, 127
2, 341659, Note_off_c, 2, 62, 127
2, 341669, Note_on_c, 0, 60, 127
2, 341669, Note_on_c, 4, 76, 127
2, 341776, Note_off_c, 4, 76, 127
2, 341776, Note_off_c, 0, 60, 127
2, 341785, Note_on_c, 2, 62, 127
2, 341785, Note_on_c, 5, 77, 127
2, 341892, Note_off_c, 5, 77, 127
2, 341892, Note_off_c, 2, 62, 127
2, 341901, Note_on_c, 4, 64, 127
2, 341901, Note_on_c, 7, 79, 127
2, 342008, Note_off_c, 7, 79, 127
2, 342008, Note_off_c, 4, 64, 127
2, 342017, Note_on_c, 2, 62, 127
2, 342017, Note_on_c, 5, 77, 127
2, 342124, Note_off_c, 5, 77, 127
2, 342124, Note_off_c, 2, 62, 127
2, 342134, Note_on_c, 4, 64, 127
2, 342134, Note_on_c, 7, 79, 127
2, 342241, Note_off_c, 7, 79, 127
2, 342241, Note_off_c, 4, 64, 127
2, 342250, Note_on_c, 5, 65, 127
2, 342250, Note_on_c, 10, 81, 127
2, 342424, Note_on_c, 10, 57, 127
2, 342424, Note_on_c, 0, 72, 127
2, 342596, Note_off_c, 0, 72, 127
2, 342596, Note_off_c, 10, 57, 127
2, 342599, Note_on_c, 11, 58, 127
2, 342599, Note_on_c, 2, 74, 127
2, 342757, Note_off_c, 10, 81, 127
2, 342757, Note_off_c, 5, 65, 127
2, 342772, Note_on_c, 5, 65, 127
2, 342772, Note_on_c, 10, 81, 127
2, 342944, Note_off_c, 10, 81, 127
2, 342944, Note_off_c, 5, 65, 127
2, 342946, Note_on_c, 11, 70, 127
2, 342946, Note_on_c, 7, 79, 127
2, 343018, Note_on_c, 10, 81, 127
2, 343021, Note_off_c, 7, 79, 127
2, 343090, Note_on_c, 7, 79, 127
2, 343093, Note_off_c, 10, 81, 127
2, 343117, Note_off_c, 11, 70, 127
2, 343119, Note_on_c, 10, 69, 127
2, 343161, Note_on_c, 5, 77, 127
2, 343165, Note_off_c, 7, 79, 127
2, 343284, Note_off_c, 5, 77, 127
2, 343284, Note_off_c, 2, 74, 127
2, 343289, Note_off_c, 11, 58, 127
2, 343290, Note_off_c, 10, 69, 127
2, 343291, Note_on_c, 0, 60, 127
2, 343291, Note_on_c, 7, 67, 127
2, 343291, Note_on_c, 4, 76, 127
2, 343291, Note_on_c, 0, 72, 127
2, 343463, Note_off_c, 4, 76, 127
2, 343463, Note_off_c, 7, 67, 127
2, 343466, Note_on_c, 10, 69, 127
2, 343466, Note_on_c, 5, 77, 127
2, 343636, Note_off_c, 0, 72, 127
2, 343638, Note_off_c, 5, 77, 127
2, 343638, Note_off_c, 10, 69, 127
2, 343640, Note_on_c, 4, 76, 127
2, 343640, Note_on_c, 7, 67, 127
2, 343812, Note_off_c, 7, 67, 127
2, 343812, Note_off_c, 4, 76, 127
2, 343815, Note_on_c, 2, 74, 127
2, 343815, Note_on_c, 5, 65, 127
2, 343987, Note_off_c, 5, 65, 127
2, 343987, Note_off_c, 2, 74, 127
2, 343989, Note_on_c, 0, 72, 127
2, 343989, Note_on_c, 4, 64, 127
2, 344161, Note_off_c, 0, 60, 127
2, 344164, Note_on_c, 11, 58, 127
2, 344334, Note_off_c, 4, 64, 127
2, 344336, Note_off_c, 11, 58, 127
2, 344338, Note_on_c, 10, 57, 127
2, 344510, Note_off_c, 10, 57, 127
2, 344510, Note_off_c, 0, 72, 127
2, 344512, Note_on_c, 7, 55, 127
2, 344512, Note_on_c, 0, 72, 127
2, 344684, Note_off_c, 0, 72, 127
2, 344684, Note_off_c, 7, 55, 127
2, 344687, Note_on_c, 5, 53, 127
2, 344687, Note_on_c, 1, 73, 127
2, 344861, Note_off_c, 1, 73, 127
2, 344863, Note_on_c, 0, 72, 127
2, 345037, Note_off_c, 0, 72, 127
2, 345039, Note_on_c, 8, 56, 127
2, 345039, Note_on_c, 12, 71, 127
2, 345213, Note_off_c, 12, 71, 127
2, 345215, Note_on_c, 0, 72, 127
2, 345384, Note_off_c, 5, 53, 127
2, 345391, Note_on_c, 2, 50, 127
2, 345391, Note_on_c, 5, 65, 127
2, 345563, Note_off_c, 0, 72, 127
2, 345565, Note_off_c, 5, 65, 127
2, 345567, Note_on_c, 0, 72, 127
2, 345736, Note_off_c, 8, 56, 127
2, 345741, Note_off_c, 0, 72, 127
2, 345744, Note_on_c, 5, 53, 127
2, 345744, Note_on_c, 12, 71, 127
2, 345918, Note_off_c, 12, 71, 127
2, 345920, Note_on_c, 0, 72, 127
2, 346088, Note_off_c, 2, 50, 127
2, 346094, Note_off_c, 0, 72, 127
2, 346096, Note_on_c, 12, 47, 127
2, 346096, Note_on_c, 2, 74, 127
2, 346270, Note_off_c, 2, 74, 127
2, 346272, Note_on_c, 0, 72, 127
2, 346441, Note_off_c, 5, 53, 127
2, 346446, Note_off_c, 0, 72, 127
2, 346448, Note_on_c, 2, 50, 127
2, 346448, Note_on_c, 12, 71, 127
2, 346622, Note_off_c, 12, 71, 127
2, 346624, Note_on_c, 0, 72, 127
2, 346793, Note_off_c, 12, 47, 127
2, 346800, Note_on_c, 7, 43, 127
2, 346800, Note_on_c, 5, 65, 127
2, 346972, Note_off_c, 0, 72, 127
2, 346974, Note_off_c, 5, 65, 127
2, 346976, Note_on_c, 8, 68, 127
2, 347145, Note_off_c, 2, 50, 127
2, 347150, Note_off_c, 8, 68, 127
2, 347153, Note_on_c, 12, 47, 127
2, 347153, Note_on_c, 7, 67, 127
2, 347327, Note_off_c, 7, 67, 127
2, 347329, Note_on_c, 5, 65, 127
2, 347497, Note_off_c, 7, 43, 127
2, 347503, Note_off_c, 5, 65, 127
2, 347503, Note_off_c, 12, 47, 127
2, 347505, Note_on_c, 4, 40, 127
2, 347505, Note_on_c, 11, 70, 127
2, 347681, Note_on_c, 1, 73, 127
2, 347853, Note_off_c, 11, 70, 127
2, 347855, Note_off_c, 1, 73, 127
2, 347857, Note_on_c, 11, 70, 127
2, 348033, Note_on_c, 7, 67, 127
2, 348202, Note_off_c, 4, 40, 127
2, 348207, Note_off_c, 7, 67, 127
2, 348209, Note_on_c, 4, 64, 127
2, 348371, Note_off_c, 11, 70, 127
2, 348385, Note_off_c, 4, 64, 127
2, 348387, Note_on_c, 11, 58, 127
2, 348387, Note_on_c, 7, 67, 127
2, 348561, Note_off_c, 7, 67, 127
2, 348561, Note_off_c, 11, 58, 127
2, 348563, Note_on_c, 10, 57, 127
2, 348563, Note_on_c, 0, 72, 127
2, 348737, Note_off_c, 0, 72, 127
2, 348737, Note_off_c, 10, 57, 127
2, 348739, Note_on_c, 7, 55, 127
2, 348739, Note_on_c, 11, 70, 127
2, 348913, Note_off_c, 11, 70, 127
2, 348913, Note_off_c, 7, 55, 127
2, 348916, Note_on_c, 5, 53, 127
2, 348916, Note_on_c, 10, 69, 127
2, 349097, Note_off_c, 5, 53, 127
2, 349099, Note_on_c, 10, 57, 127
2, 349099, Note_on_c, 0, 72, 127
2, 349280, Note_off_c, 0, 72, 127
2, 349280, Note_off_c, 10, 57, 127
2, 349282, Note_on_c, 2, 62, 127
2, 349282, Note_on_c, 5, 77, 127
2, 349449, Note_off_c, 10, 69, 127
2, 349463, Note_off_c, 2, 62, 127
2, 349465, Note_on_c, 11, 58, 127
2, 349465, Note_on_c, 10, 69, 127
2, 349646, Note_off_c, 10, 69, 127
2, 349646, Note_off_c, 11, 58, 127
2, 349647, Note_on_c, 0, 60, 127
2, 349647, Note_on_c, 7, 67, 127
2, 349824, Note_off_c, 5, 77, 127
2, 349839, Note_on_c, 5, 77, 127
2, 350026, Note_off_c, 7, 67, 127
2, 350028, Note_off_c, 0, 60, 127
2, 350031, Note_on_c, 0, 48, 127
2, 350031, Note_on_c, 11, 70, 127
2, 350218, Note_off_c, 5, 77, 127
2, 350222, Note_on_c, 4, 76, 127
2, 350410, Note_off_c, 11, 70, 127
2, 350411, Note_off_c, 4, 76, 127
2, 350412, Note_off_c, 0, 48, 127
2, 350414, Note_on_c, 5, 53, 127
2, 350414, Note_on_c, 5, 77, 127
2, 350414, Note_on_c, 0, 72, 127
2, 350414, Note_on_c, 10, 69, 127
2, 350697, Note_on_c, 5, 41, 127
2, 350981, Note_on_c, 10, 45, 127
2, 351225, Note_off_c, 10, 45, 127
2, 351265, Note_on_c, 0, 48, 127
2, 351509, Note_off_c, 0, 48, 127
2, 351546, Note_off_c, 5, 53, 127
2, 351551, Note_on_c, 5, 53, 127
2, 351984, Note_off_c, 5, 41, 127
2, 353551, Note_off_c, 5, 53, 127
2, 354214, Note_off_c, 10, 69, 127
2, 354214, Note_off_c, 0, 72, 127
2, 354214, Note_off_c, 5, 77, 127
2, 354309, Note_on_c, 5, 77, 127
2, 354476, Note_off_c, 5, 77, 127
2, 354479, Note_on_c, 5, 53, 127
2, 354479, Note_on_c, 5, 77, 127
2, 354646, Note_off_c, 5, 53, 127
2, 354648, Note_on_c, 7, 55, 127
2, 354815, Note_off_c, 7, 55, 127
2, 354817, Note_on_c, 10, 57, 127
2, 354954, Note_off_c, 5, 77, 127
2, 354986, Note_on_c, 0, 72, 127
2, 355153, Note_off_c, 0, 72, 127
2, 355153, Note_off_c, 10, 57, 127
2, 355156, Note_on_c, 11, 58, 127
2, 355156, Note_on_c, 2, 74, 127
2, 355492, Note_off_c, 11, 58, 127
2, 355494, Note_on_c, 0, 60, 127
2, 355631, Note_off_c, 2, 74, 127
2, 355664, Note_on_c, 5, 77, 127
2, 355830, Note_off_c, 0, 60, 127
2, 355831, Note_off_c, 5, 77, 127
2, 355833, Note_on_c, 2, 62, 127
2, 355833, Note_on_c, 0, 72, 127
2, 356169, Note_off_c, 0, 72, 127
2, 356169, Note_off_c, 2, 62, 127
2, 356171, Note_on_c, 4, 64, 127
2, 356171, Note_on_c, 0, 72, 127
2, 356253, Note_off_c, 0, 72, 127
2, 356255, Note_on_c, 11, 70, 127
2, 356337, Note_off_c, 11, 70, 127
2, 356339, Note_on_c, 10, 69, 127
2, 356421, Note_off_c, 10, 69, 127
2, 356423, Note_on_c, 11, 70, 127
2, 356504, Note_off_c, 4, 64, 127
2, 356505, Note_off_c, 11, 70, 127
2, 356507, Note_on_c, 5, 65, 127
2, 356507, Note_on_c, 10, 69, 127
2, 356674, Note_off_c, 10, 69, 127
2, 356676, Note_on_c, 0, 72, 127
2, 356843, Note_off_c, 0, 72, 127
2, 356845, Note_on_c, 2, 74, 127
2, 356982, Note_off_c, 5, 65, 127
2, 357010, Note_off_c, 2, 74, 127
2, 357013, Note_on_c, 0, 60, 127
2, 357013, Note_on_c, 4, 76, 127
2, 357180, Note_off_c, 4, 76, 127
2, 357180, Note_off_c, 0, 60, 127
2, 357182, Note_on_c, 2, 62, 127
2, 357182, Note_on_c, 5, 77, 127
2, 357349, Note_off_c, 5, 77, 127
2, 357351, Note_on_c, 10, 81, 127
2, 357518, Note_off_c, 10, 81, 127
2, 357521, Note_on_c, 7, 79, 127
2, 357657, Note_off_c, 2, 62, 127
2, 357686, Note_off_c, 7, 79, 127
2, 357688, Note_on_c, 5, 65, 127
2, 357688, Note_on_c, 10, 81, 127
2, 357855, Note_off_c, 10, 81, 127
2, 357855, Note_off_c, 5, 65, 127
2, 357857, Note_on_c, 0, 60, 127
2, 357857, Note_on_c, 11, 82, 127
2, 358024, Note_off_c, 11, 82, 127
2, 358027, Note_on_c, 10, 81, 127
2, 358193, Note_off_c, 0, 60, 127
2, 358194, Note_off_c, 10, 81, 127
2, 358196, Note_on_c, 0, 60, 127
2, 358196, Note_on_c, 7, 79, 127
2, 358278, Note_off_c, 0, 60, 127
2, 358280, Note_on_c, 11, 58, 127
2, 358361, Note_off_c, 7, 79, 127
2, 358362, Note_off_c, 11, 58, 127
2, 358364, Note_on_c, 10, 57, 127
2, 358364, Note_on_c, 5, 77, 127
2, 358446, Note_off_c, 10, 57, 127
2, 358447, Note_on_c, 11, 58, 127
2, 358529, Note_off_c, 11, 58, 127
2, 358529, Note_off_c, 5, 77, 127
2, 358531, Note_on_c, 10, 57, 127
2, 358531, Note_on_c, 0, 84, 127
2, 358698, Note_off_c, 10, 57, 127
2, 358701, Note_on_c, 5, 53, 127
2, 358867, Note_off_c, 0, 84, 127
2, 358868, Note_off_c, 5, 53, 127
2, 358870, Note_on_c, 7, 55, 127
2, 358870, Note_on_c, 0, 72, 127
2, 359037, Note_off_c, 7, 55, 127
2, 359039, Note_on_c, 10, 57, 127
2, 359206, Note_off_c, 10, 57, 127
2, 359206, Note_off_c, 0, 72, 127
2, 359208, Note_on_c, 11, 58, 127
2, 359208, Note_on_c, 2, 74, 127
2, 359375, Note_off_c, 11, 58, 127
2, 359378, Note_on_c, 0, 60, 127
2, 359545, Note_off_c, 0, 60, 127
2, 359547, Note_on_c, 10, 57, 127
2, 359683, Note_off_c, 2, 74, 127
2, 359712, Note_off_c, 10, 57, 127
2, 359715, Note_on_c, 11, 58, 127
2, 359715, Note_on_c, 11, 82, 127
2, 359882, Note_off_c, 11, 82, 127
2, 359882, Note_off_c, 11, 58, 127
2, 359884, Note_on_c, 0, 60, 127
2, 359884, Note_on_c, 10, 81, 127
2, 360051, Note_off_c, 0, 60, 127
2, 360053, Note_on_c, 12, 59, 127
2, 360220, Note_off_c, 12, 59, 127
2, 360220, Note_off_c, 10, 81, 127
2, 360222, Note_on_c, 10, 57, 127
2, 360222, Note_on_c, 10, 81, 127
2, 360304, Note_off_c, 10, 81, 127
2, 360306, Note_on_c, 7, 79, 127
2, 360387, Note_off_c, 10, 57, 127
2, 360388, Note_off_c, 7, 79, 127
2, 360390, Note_on_c, 7, 55, 127
2, 360390, Note_on_c, 5, 77, 127
2, 360557, Note_off_c, 5, 77, 127
2, 360557, Note_off_c, 7, 55, 127
2, 360559, Note_on_c, 0, 60, 127
2, 360559, Note_on_c, 5, 77, 127
2, 360699, Note_off_c, 5, 77, 127
2, 360699, Note_on_c, 4, 76, 127
2, 360724, Note_off_c, 0, 60, 127
2, 360727, Note_on_c, 12, 59, 127
2, 360770, Note_on_c, 5, 77, 127
2, 360772, Note_off_c, 4, 76, 127
2, 360840, Note_on_c, 4, 76, 127
2, 360843, Note_off_c, 5, 77, 127
2, 360894, Note_off_c, 12, 59, 127
2, 360896, Note_on_c, 0, 60, 127
2, 360910, Note_on_c, 5, 77, 127
2, 360913, Note_off_c, 4, 76, 127
2, 360980, Note_on_c, 4, 76, 127
2, 360983, Note_off_c, 5, 77, 127
2, 361061, Note_off_c, 0, 60, 127
2, 361062, Note_off_c, 4, 76, 127
2, 361064, Note_on_c, 2, 62, 127
2, 361064, Note_on_c, 5, 77, 127
2, 361231, Note_off_c, 5, 77, 127
2, 361231, Note_off_c, 2, 62, 127
2, 361233, Note_on_c, 4, 64, 127
2, 361233, Note_on_c, 7, 79, 127
2, 361400, Note_off_c, 4, 64, 127
2, 361402, Note_on_c, 7, 67, 127
2, 361569, Note_off_c, 7, 67, 127
2, 361569, Note_off_c, 7, 79, 127
2, 361572, Note_on_c, 5, 65, 127
2, 361572, Note_on_c, 10, 81, 127
2, 361739, Note_off_c, 10, 81, 127
2, 361739, Note_off_c, 5, 65, 127
2, 361741, Note_on_c, 7, 67, 127
2, 361741, Note_on_c, 11, 82, 127
2, 361908, Note_off_c, 11, 82, 127
2, 361908, Note_off_c, 7, 67, 127
2, 361910, Note_on_c, 1, 61, 127
2, 361910, Note_on_c, 10, 81, 127
2, 362077, Note_off_c, 10, 81, 127
2, 362079, Note_on_c, 7, 79, 127
2, 362246, Note_off_c, 7, 79, 127
2, 362246, Note_off_c, 1, 61, 127
2, 362249, Note_on_c, 10, 57, 127
2, 362249, Note_on_c, 5, 77, 127
2, 362416, Note_off_c, 5, 77, 127
2, 362418, Note_on_c, 4, 76, 127
2, 362585, Note_off_c, 4, 76, 127
2, 362585, Note_off_c, 10, 57, 127
2, 362587, Note_on_c, 2, 62, 127
2, 362587, Note_on_c, 5, 77, 127
2, 362669, Note_off_c, 5, 77, 127
2, 362671, Note_on_c, 4, 76, 127
2, 362753, Note_off_c, 4, 76, 127
2, 362755, Note_on_c, 5, 77, 127
2, 362922, Note_off_c, 2, 62, 127
2, 362924, Note_on_c, 2, 50, 127
2, 363091, Note_off_c, 2, 50, 127
2, 363091, Note_off_c, 5, 77, 127
2, 363093, Note_on_c, 4, 52, 127
2, 363093, Note_on_c, 4, 76, 127
2, 363260, Note_off_c, 4, 76, 127
2, 363260, Note_off_c, 4, 52, 127
2, 363263, Note_on_c, 5, 53, 127
2, 363263, Note_on_c, 2, 74, 127
2, 363430, Note_off_c, 5, 53, 127
2, 363432, Note_on_c, 7, 55, 127
2, 363599, Note_off_c, 7, 55, 127
2, 363599, Note_off_c, 2, 74, 127
2, 363601, Note_on_c, 4, 52, 127
2, 363601, Note_on_c, 0, 72, 127
2, 363768, Note_off_c, 0, 72, 127
2, 363768, Note_off_c, 4, 52, 127
2, 363771, Note_on_c, 5, 53, 127
2, 363771, Note_on_c, 12, 71, 127
2, 363938, Note_off_c, 12, 71, 127
2, 363938, Note_off_c, 5, 53, 127
2, 363940, Note_on_c, 7, 55, 127
2, 363940, Note_on_c, 0, 72, 127
2, 364022, Note_off_c, 0, 72, 127
2, 364024, Note_on_c, 12, 71, 127
2, 364105, Note_off_c, 7, 55, 127
2, 364106, Note_off_c, 12, 71, 127
2, 364108, Note_on_c, 6, 54, 127
2, 364108, Note_on_c, 0, 72, 127
2, 364275, Note_off_c, 6, 54, 127
2, 364277, Note_on_c, 4, 52, 127
2, 364444, Note_off_c, 4, 52, 127
2, 364444, Note_off_c, 0, 72, 127
2, 364446, Note_on_c, 2, 50, 127
2, 364446, Note_on_c, 2, 74, 127
2, 364613, Note_off_c, 2, 74, 127
2, 364613, Note_off_c, 2, 50, 127
2, 364615, Note_on_c, 7, 55, 127
2, 364615, Note_on_c, 0, 72, 127
2, 364755, Note_off_c, 0, 72, 127
2, 364756, Note_on_c, 12, 71, 127
2, 364780, Note_off_c, 7, 55, 127
2, 364783, Note_on_c, 10, 57, 127
2, 364826, Note_on_c, 0, 72, 127
2, 364838, Note_off_c, 12, 71, 127
2, 364896, Note_on_c, 12, 71, 127
2, 364908, Note_off_c, 0, 72, 127
2, 364950, Note_off_c, 10, 57, 127
2, 364952, Note_on_c, 7, 55, 127
2, 364966, Note_on_c, 0, 72, 127
2, 364978, Note_off_c, 12, 71, 127
2, 365036, Note_on_c, 12, 71, 127
2, 365048, Note_off_c, 0, 72, 127
2, 365117, Note_off_c, 7, 55, 127
2, 365118, Note_off_c, 12, 71, 127
2, 365120, Note_on_c, 5, 53, 127
2, 365120, Note_on_c, 10, 69, 127
2, 365287, Note_off_c, 10, 69, 127
2, 365287, Note_off_c, 5, 53, 127
2, 365289, Note_on_c, 4, 52, 127
2, 365289, Note_on_c, 7, 67, 127
2, 365456, Note_off_c, 4, 52, 127
2, 365458, Note_on_c, 7, 55, 127
2, 365625, Note_off_c, 7, 55, 127
2, 365628, Note_on_c, 5, 53, 127
2, 365730, Note_off_c, 7, 67, 127
2, 365795, Note_off_c, 5, 53, 127
2, 365797, Note_on_c, 4, 52, 127
2, 365797, Note_on_c, 7, 79, 127
2, 365964, Note_off_c, 7, 79, 127
2, 365964, Note_off_c, 4, 52, 127
2, 365966, Note_on_c, 2, 50, 127
2, 365966, Note_on_c, 5, 77, 127
2, 366133, Note_off_c, 5, 77, 127
2, 366133, Note_off_c, 2, 50, 127
2, 366136, Note_on_c, 0, 48, 127
2, 366136, Note_on_c, 4, 76, 127
2, 366303, Note_off_c, 4, 76, 127
2, 366303, Note_off_c, 0, 48, 127
2, 366305, Note_on_c, 0, 60, 127
2, 366305, Note_on_c, 2, 74, 127
2, 366472, Note_off_c, 2, 74, 127
2, 366474, Note_on_c, 0, 72, 127
2, 366641, Note_off_c, 0, 72, 127
2, 366641, Note_off_c, 0, 60, 127
2, 366643, Note_on_c, 5, 53, 127
2, 366643, Note_on_c, 10, 81, 127
2, 366810, Note_off_c, 5, 53, 127
2, 366813, Note_on_c, 4, 52, 127
2, 366980, Note_off_c, 4, 52, 127
2, 366982, Note_on_c, 2, 50, 127
2, 367118, Note_off_c, 10, 81, 127
2, 367147, Note_off_c, 2, 50, 127
2, 367150, Note_on_c, 0, 48, 127
2, 367150, Note_on_c, 4, 76, 127
2, 367317, Note_off_c, 4, 76, 127
2, 367317, Note_off_c, 0, 48, 127
2, 367319, Note_on_c, 12, 47, 127
2, 367319, Note_on_c, 5, 77, 127
2, 367486, Note_off_c, 12, 47, 127
2, 367488, Note_on_c, 7, 43, 127
2, 367655, Note_off_c, 7, 43, 127
2, 367657, Note_on_c, 0, 48, 127
2, 367794, Note_off_c, 5, 77, 127
2, 367827, Note_on_c, 7, 79, 127
2, 367993, Note_off_c, 0, 48, 127
2, 367994, Note_off_c, 7, 79, 127
2, 367996, Note_on_c, 7, 55, 127
2, 367996, Note_on_c, 4, 76, 127
2, 368116, Note_on_c, 2, 74, 127
2, 368119, Note_off_c, 4, 76, 127
2, 368193, Note_on_c, 4, 76, 127
2, 368198, Note_off_c, 2, 74, 127
2, 368270, Note_on_c, 2, 74, 127
2, 368275, Note_off_c, 4, 76, 127
2, 368331, Note_off_c, 7, 55, 127
2, 368333, Note_on_c, 7, 43, 127
2, 368347, Note_on_c, 4, 76, 127
2, 368352, Note_off_c, 2, 74, 127
2, 368424, Note_on_c, 2, 74, 127
2, 368429, Note_off_c, 4, 76, 127
2, 368501, Note_on_c, 0, 72, 127
2, 368506, Note_off_c, 2, 74, 127
2, 368668, Note_off_c, 0, 72, 127
2, 368668, Note_off_c, 7, 43, 127
2, 368670, Note_on_c, 0, 48, 127
2, 368670, Note_on_c, 0, 72, 127
2, 369008, Note_on_c, 0, 36, 127
2, 369347, Note_on_c, 7, 43, 127
2, 369683, Note_off_c, 7, 43, 127
2, 369684, Note_off_c, 0, 48, 127
2, 369686, Note_on_c, 0, 48, 127
2, 369686, Note_on_c, 4, 64, 127
2, 369686, Note_on_c, 7, 67, 127
2, 370361, Note_off_c, 0, 72, 127
2, 370529, Note_off_c, 7, 67, 127
2, 370529, Note_off_c, 4, 64, 127
2, 370530, Note_on_c, 7, 67, 127
2, 370697, Note_off_c, 7, 67, 127
2, 370698, Note_off_c, 0, 48, 127
2, 370699, Note_off_c, 0, 36, 127
2, 370700, Note_on_c, 0, 48, 127
2, 370700, Note_on_c, 7, 67, 127
2, 371038, Note_on_c, 2, 50, 127
2, 371206, Note_off_c, 7, 67, 127
2, 371207, Note_on_c, 0, 72, 127
2, 371374, Note_off_c, 0, 72, 127
2, 371374, Note_off_c, 2, 50, 127
2, 371377, Note_on_c, 4, 52, 127
2, 371377, Note_on_c, 0, 72, 127
2, 371505, Note_off_c, 0, 72, 127
2, 371505, Note_on_c, 11, 70, 127
2, 371580, Note_on_c, 0, 72, 127
2, 371587, Note_off_c, 11, 70, 127
2, 371655, Note_on_c, 11, 70, 127
2, 371662, Note_off_c, 0, 72, 127
2, 371712, Note_off_c, 4, 52, 127
2, 371714, Note_on_c, 5, 53, 127
2, 371731, Note_on_c, 0, 72, 127
2, 371737, Note_off_c, 11, 70, 127
2, 371806, Note_on_c, 11, 70, 127
2, 371813, Note_off_c, 0, 72, 127
2, 371881, Note_on_c, 10, 69, 127
2, 371888, Note_off_c, 11, 70, 127
2, 372048, Note_off_c, 10, 69, 127
2, 372049, Note_off_c, 5, 53, 127
2, 372050, Note_on_c, 7, 55, 127
2, 372050, Note_on_c, 11, 70, 127
2, 372217, Note_off_c, 11, 70, 127
2, 372220, Note_on_c, 2, 74, 127
2, 372386, Note_off_c, 7, 55, 127
2, 372387, Note_off_c, 2, 74, 127
2, 372389, Note_on_c, 4, 52, 127
2, 372389, Note_on_c, 0, 72, 127
2, 372724, Note_off_c, 0, 48, 127
2, 372725, Note_off_c, 0, 72, 127
2, 372725, Note_off_c, 4, 52, 127
2, 372728, Note_on_c, 5, 53, 127
2, 372728, Note_on_c, 10, 69, 127
2, 372895, Note_off_c, 10, 69, 127
2, 372897, Note_on_c, 0, 72, 127
2, 373064, Note_off_c, 0, 72, 127
2, 373066, Note_on_c, 2, 74, 127
2, 373233, Note_off_c, 2, 74, 127
2, 373236, Note_on_c, 5, 65, 127
2, 373236, Note_on_c, 3, 75, 127
2, 373403, Note_off_c, 3, 75, 127
2, 373403, Note_off_c, 5, 65, 127
2, 373405, Note_on_c, 5, 65, 127
2, 373405, Note_on_c, 5, 77, 127
2, 373518, Note_on_c, 3, 63, 127
2, 373526, Note_off_c, 5, 65, 127
2, 373572, Note_off_c, 5, 77, 127
2, 373574, Note_on_c, 10, 69, 127
2, 373600, Note_off_c, 3, 63, 127
2, 373601, Note_on_c, 5, 65, 127
2, 373678, Note_on_c, 3, 63, 127
2, 373683, Note_off_c, 5, 65, 127
2, 373739, Note_off_c, 10, 69, 127
2, 373742, Note_on_c, 11, 70, 127
2, 373755, Note_on_c, 5, 65, 127
2, 373760, Note_off_c, 3, 63, 127
2, 373832, Note_on_c, 3, 63, 127
2, 373837, Note_off_c, 5, 65, 127
2, 373907, Note_off_c, 11, 70, 127
2, 373909, Note_on_c, 2, 62, 127
2, 373909, Note_on_c, 7, 79, 127
2, 373914, Note_off_c, 3, 63, 127
2, 374076, Note_off_c, 7, 79, 127
2, 374076, Note_off_c, 2, 62, 127
2, 374079, Note_on_c, 3, 63, 127
2, 374079, Note_on_c, 0, 72, 127
2, 374246, Note_off_c, 0, 72, 127
2, 374246, Note_off_c, 3, 63, 127
2, 374248, Note_on_c, 7, 67, 127
2, 374248, Note_on_c, 3, 75, 127
2, 374415, Note_off_c, 3, 75, 127
2, 374415, Note_off_c, 7, 67, 127
2, 374417, Note_on_c, 5, 65, 127
2, 374417, Note_on_c, 2, 74, 127
2, 374584, Note_off_c, 2, 74, 127
2, 374586, Note_on_c, 3, 75, 127
2, 374752, Note_off_c, 5, 53, 127
2, 374753, Note_off_c, 5, 65, 127
2, 374756, Note_on_c, 11, 58, 127
2, 374922, Note_off_c, 3, 75, 127
2, 374923, Note_off_c, 11, 58, 127
2, 374925, Note_on_c, 5, 53, 127
2, 374925, Note_on_c, 3, 75, 127
2, 375092, Note_off_c, 3, 75, 127
2, 375092, Note_off_c, 5, 53, 127
2, 375094, Note_on_c, 7, 55, 127
2, 375094, Note_on_c, 2, 74, 127
2, 375261, Note_off_c, 2, 74, 127
2, 375261, Note_off_c, 7, 55, 127
2, 375264, Note_on_c, 10, 57, 127
2, 375264, Note_on_c, 0, 72, 127
2, 375431, Note_off_c, 0, 72, 127
2, 375431, Note_off_c, 10, 57, 127
2, 375433, Note_on_c, 11, 58, 127
2, 375433, Note_on_c, 11, 70, 127
2, 375517, Note_on_c, 0, 72, 127
2, 375598, Note_off_c, 11, 58, 127
2, 375599, Note_off_c, 0, 72, 127
2, 375600, Note_on_c, 2, 50, 127
2, 375600, Note_on_c, 2, 74, 127
2, 375767, Note_off_c, 2, 50, 127
2, 375770, Note_on_c, 4, 52, 127
2, 375936, Note_off_c, 2, 74, 127
2, 375937, Note_off_c, 4, 52, 127
2, 375939, Note_on_c, 0, 60, 127
2, 375939, Note_on_c, 3, 75, 127
2, 376101, Note_off_c, 11, 70, 127
2, 376106, Note_off_c, 3, 75, 127
2, 376106, Note_off_c, 0, 60, 127
2, 376108, Note_on_c, 6, 54, 127
2, 376108, Note_on_c, 10, 69, 127
2, 376190, Note_off_c, 10, 69, 127
2, 376192, Note_on_c, 11, 70, 127
2, 376273, Note_off_c, 6, 54, 127
2, 376276, Note_on_c, 10, 57, 127
2, 376276, Note_on_c, 0, 72, 127
2, 376443, Note_off_c, 10, 57, 127
2, 376445, Note_on_c, 7, 55, 127
2, 376611, Note_off_c, 0, 72, 127
2, 376612, Note_off_c, 7, 55, 127
2, 376614, Note_on_c, 10, 57, 127
2, 376614, Note_on_c, 0, 72, 127
2, 376781, Note_off_c, 0, 72, 127
2, 376781, Note_off_c, 10, 57, 127
2, 376784, Note_on_c, 6, 54, 127
2, 376784, Note_on_c, 0, 72, 127
2, 376784, Note_on_c, 10, 69, 127
2, 376790, Note_off_c, 11, 70, 127
2, 376866, Note_off_c, 0, 72, 127
2, 376868, Note_on_c, 11, 70, 127
2, 376950, Note_off_c, 11, 70, 127
2, 376951, Note_on_c, 0, 72, 127
2, 377119, Note_off_c, 6, 54, 127
2, 377121, Note_on_c, 2, 50, 127
2, 377287, Note_off_c, 0, 72, 127
2, 377290, Note_on_c, 2, 74, 127
2, 377452, Note_off_c, 10, 69, 127
2, 377457, Note_off_c, 2, 74, 127
2, 377457, Note_off_c, 2, 50, 127
2, 377459, Note_on_c, 7, 55, 127
2, 377459, Note_on_c, 7, 67, 127
2, 377459, Note_on_c, 0, 72, 127
2, 377596, Note_on_c, 11, 70, 127
2, 377597, Note_off_c, 0, 72, 127
2, 377670, Note_on_c, 0, 72, 127
2, 377678, Note_off_c, 11, 70, 127
2, 377743, Note_on_c, 11, 70, 127
2, 377752, Note_off_c, 0, 72, 127
2, 377794, Note_off_c, 7, 55, 127
2, 377796, Note_on_c, 0, 48, 127
2, 377817, Note_on_c, 0, 72, 127
2, 377825, Note_off_c, 11, 70, 127
2, 377890, Note_on_c, 11, 70, 127
2, 377899, Note_off_c, 0, 72, 127
2, 377964, Note_on_c, 10, 69, 127
2, 377972, Note_off_c, 11, 70, 127
2, 378125, Note_off_c, 7, 67, 127
2, 378131, Note_off_c, 10, 69, 127
2, 378131, Note_off_c, 0, 48, 127
2, 378133, Note_on_c, 2, 50, 127
2, 378133, Note_on_c, 11, 70, 127
2, 378133, Note_on_c, 6, 66, 127
2, 378244, Note_off_c, 11, 70, 127
2, 378244, Note_on_c, 10, 69, 127
2, 378323, Note_on_c, 11, 70, 127
2, 378326, Note_off_c, 10, 69, 127
2, 378401, Note_on_c, 10, 69, 127
2, 378405, Note_off_c, 11, 70, 127
2, 378468, Note_off_c, 2, 50, 127
2, 378470, Note_on_c, 2, 38, 127
2, 378480, Note_on_c, 11, 70, 127
2, 378483, Note_off_c, 10, 69, 127
2, 378559, Note_on_c, 10, 69, 127
2, 378562, Note_off_c, 11, 70, 127
2, 378623, Note_off_c, 6, 66, 127
2, 378637, Note_on_c, 7, 67, 127
2, 378641, Note_off_c, 10, 69, 127
2, 378804, Note_off_c, 7, 67, 127
2, 378805, Note_off_c, 2, 38, 127
2, 378807, Note_on_c, 7, 43, 127
2, 378807, Note_on_c, 7, 67, 127
2, 378974, Note_off_c, 7, 43, 127
2, 378976, Note_on_c, 2, 50, 127
2, 379143, Note_off_c, 2, 50, 127
2, 379145, Note_on_c, 4, 52, 127
2, 379312, Note_off_c, 4, 52, 127
2, 379315, Note_on_c, 6, 54, 127
2, 379482, Note_off_c, 6, 54, 127
2, 379484, Note_on_c, 7, 55, 127
2, 379651, Note_off_c, 7, 55, 127
2, 379653, Note_off_c, 7, 67, 127
2, 379653, Note_on_c, 11, 58, 127
2, 379820, Note_off_c, 11, 58, 127
2, 379822, Note_on_c, 10, 57, 127
2, 379822, Note_on_c, 7, 79, 127
2, 379989, Note_off_c, 10, 57, 127
2, 379992, Note_on_c, 11, 58, 127
2, 380158, Note_off_c, 7, 79, 127
2, 380159, Note_off_c, 11, 58, 127
2, 380161, Note_on_c, 0, 60, 127
2, 380161, Note_on_c, 4, 76, 127
2, 380289, Note_on_c, 2, 74, 127
2, 380292, Note_off_c, 4, 76, 127
2, 380328, Note_off_c, 0, 60, 127
2, 380330, Note_on_c, 11, 58, 127
2, 380356, Note_on_c, 4, 76, 127
2, 380371, Note_off_c, 2, 74, 127
2, 380423, Note_on_c, 2, 74, 127
2, 380438, Note_off_c, 4, 76, 127
2, 380489, Note_on_c, 4, 76, 127
2, 380495, Note_off_c, 11, 58, 127
2, 380498, Note_on_c, 10, 57, 127
2, 380505, Note_off_c, 2, 74, 127
2, 380556, Note_on_c, 2, 74, 127
2, 380571, Note_off_c, 4, 76, 127
2, 380665, Note_off_c, 10, 57, 127
2, 380667, Note_on_c, 7, 55, 127
2, 380675, Note_off_c, 2, 74, 127
2, 380684, Note_on_c, 4, 76, 127
2, 380832, Note_off_c, 4, 76, 127
2, 380832, Note_off_c, 7, 55, 127
2, 380835, Note_on_c, 2, 62, 127
2, 380835, Note_on_c, 5, 77, 127
2, 380917, Note_off_c, 5, 77, 127
2, 380919, Note_on_c, 4, 76, 127
2, 381001, Note_off_c, 4, 76, 127
2, 381002, Note_on_c, 5, 77, 127
2, 381170, Note_off_c, 2, 62, 127
2, 381172, Note_on_c, 2, 50, 127
2, 381338, Note_off_c, 5, 77, 127
2, 381341, Note_on_c, 4, 76, 127
2, 381508, Note_off_c, 4, 76, 127
2, 381510, Note_on_c, 2, 74, 127
2, 381678, Note_off_c, 2, 50, 127
2, 381679, Note_on_c, 5, 53, 127
2, 381834, Note_off_c, 2, 74, 127
2, 381846, Note_off_c, 5, 53, 127
2, 381849, Note_on_c, 4, 52, 127
2, 381849, Note_on_c, 0, 72, 127
2, 382016, Note_off_c, 0, 72, 127
2, 382016, Note_off_c, 4, 52, 127
2, 382018, Note_on_c, 5, 53, 127
2, 382018, Note_on_c, 11, 70, 127
2, 382185, Note_off_c, 11, 70, 127
2, 382185, Note_off_c, 5, 53, 127
2, 382187, Note_on_c, 7, 55, 127
2, 382187, Note_on_c, 11, 70, 127
2, 382322, Note_off_c, 11, 70, 127
2, 382324, Note_on_c, 10, 69, 127
2, 382352, Note_off_c, 7, 55, 127
2, 382355, Note_on_c, 5, 53, 127
2, 382391, Note_on_c, 11, 70, 127
2, 382406, Note_off_c, 10, 69, 127
2, 382458, Note_on_c, 10, 69, 127
2, 382473, Note_off_c, 11, 70, 127
2, 382522, Note_off_c, 5, 53, 127
2, 382524, Note_on_c, 4, 52, 127
2, 382524, Note_on_c, 11, 70, 127
2, 382540, Note_off_c, 10, 69, 127
2, 382591, Note_on_c, 10, 69, 127
2, 382606, Note_off_c, 11, 70, 127
2, 382689, Note_off_c, 4, 52, 127
2, 382692, Note_on_c, 2, 50, 127
2, 382709, Note_on_c, 11, 70, 127
2, 382719, Note_off_c, 10, 69, 127
2, 382857, Note_off_c, 11, 70, 127
2, 382857, Note_off_c, 2, 50, 127
2, 382859, Note_on_c, 10, 57, 127
2, 382859, Note_on_c, 0, 72, 127
2, 383026, Note_off_c, 10, 57, 127
2, 383029, Note_on_c, 11, 58, 127
2, 383196, Note_off_c, 11, 58, 127
2, 383198, Note_on_c, 10, 57, 127
2, 383334, Note_off_c, 0, 72, 127
2, 383363, Note_off_c, 10, 57, 127
2, 383366, Note_on_c, 7, 55, 127
2, 383366, Note_on_c, 11, 70, 127
2, 383533, Note_off_c, 11, 70, 127
2, 383533, Note_off_c, 7, 55, 127
2, 383535, Note_on_c, 5, 53, 127
2, 383535, Note_on_c, 10, 69, 127
2, 383702, Note_off_c, 5, 53, 127
2, 383704, Note_on_c, 10, 57, 127
2, 383871, Note_off_c, 10, 57, 127
2, 383871, Note_off_c, 10, 69, 127
2, 383873, Note_on_c, 11, 58, 127
2, 383873, Note_on_c, 7, 67, 127
2, 384040, Note_off_c, 7, 67, 127
2, 384040, Note_off_c, 11, 58, 127
2, 384043, Note_on_c, 0, 60, 127
2, 384043, Note_on_c, 5, 65, 127
2, 384210, Note_off_c, 5, 65, 127
2, 384210, Note_off_c, 0, 60, 127
2, 384212, Note_on_c, 2, 62, 127
2, 384212, Note_on_c, 11, 70, 127
2, 384294, Note_off_c, 11, 70, 127
2, 384296, Note_on_c, 10, 69, 127
2, 384377, Note_off_c, 2, 62, 127
2, 384378, Note_off_c, 10, 69, 127
2, 384380, Note_on_c, 3, 63, 127
2, 384380, Note_on_c, 11, 70, 127
2, 384547, Note_off_c, 3, 63, 127
2, 384549, Note_on_c, 2, 62, 127
2, 384716, Note_off_c, 2, 62, 127
2, 384716, Note_off_c, 11, 70, 127
2, 384718, Note_on_c, 0, 60, 127
2, 384718, Note_on_c, 0, 72, 127
2, 384885, Note_off_c, 0, 72, 127
2, 384885, Note_off_c, 0, 60, 127
2, 384887, Note_on_c, 11, 58, 127
2, 384887, Note_on_c, 2, 74, 127
2, 384969, Note_off_c, 2, 74, 127
2, 384971, Note_on_c, 0, 72, 127
2, 385052, Note_off_c, 11, 58, 127
2, 385053, Note_off_c, 0, 72, 127
2, 385055, Note_on_c, 2, 62, 127
2, 385055, Note_on_c, 2, 74, 127
2, 385222, Note_off_c, 2, 62, 127
2, 385224, Note_on_c, 4, 64, 127
2, 385391, Note_off_c, 4, 64, 127
2, 385391, Note_off_c, 2, 74, 127
2, 385394, Note_on_c, 5, 65, 127
2, 385394, Note_on_c, 0, 72, 127
2, 385561, Note_off_c, 0, 72, 127
2, 385561, Note_off_c, 5, 65, 127
2, 385563, Note_on_c, 7, 67, 127
2, 385563, Note_on_c, 11, 70, 127
2, 385730, Note_off_c, 11, 70, 127
2, 385732, Note_on_c, 10, 69, 127
2, 385899, Note_off_c, 10, 69, 127
2, 385899, Note_off_c, 7, 67, 127
2, 385901, Note_on_c, 2, 50, 127
2, 385901, Note_on_c, 7, 67, 127
2, 386068, Note_off_c, 7, 67, 127
2, 386071, Note_on_c, 11, 70, 127
2, 386237, Note_off_c, 2, 50, 127
2, 386238, Note_off_c, 11, 70, 127
2, 386240, Note_on_c, 4, 52, 127
2, 386240, Note_on_c, 10, 69, 127
2, 386407, Note_off_c, 10, 69, 127
2, 386409, Note_on_c, 7, 67, 127
2, 386576, Note_off_c, 7, 67, 127
2, 386576, Note_off_c, 4, 52, 127
2, 386579, Note_on_c, 5, 53, 127
2, 386579, Note_on_c, 10, 69, 127
2, 386746, Note_off_c, 10, 69, 127
2, 386748, Note_on_c, 5, 65, 127
2, 386915, Note_off_c, 5, 65, 127
2, 386915, Note_off_c, 5, 53, 127
2, 386917, Note_on_c, 0, 48, 127
2, 386917, Note_on_c, 4, 64, 127
2, 386994, Note_on_c, 2, 62, 127
2, 386999, Note_off_c, 4, 64, 127
2, 387071, Note_on_c, 4, 64, 127
2, 387076, Note_off_c, 2, 62, 127
2, 387082, Note_off_c, 0, 48, 127
2, 387085, Note_on_c, 4, 52, 127
2, 387252, Note_off_c, 4, 52, 127
2, 387254, Note_on_c, 2, 50, 127
2, 387370, Note_off_c, 4, 64, 127
2, 387421, Note_off_c, 2, 50, 127
2, 387423, Note_on_c, 4, 52, 127
2, 387423, Note_on_c, 2, 62, 127
2, 387590, Note_off_c, 2, 62, 127
2, 387590, Note_off_c, 4, 52, 127
2, 387593, Note_on_c, 5, 53, 127
2, 387593, Note_on_c, 0, 60, 127
2, 387760, Note_off_c, 5, 53, 127
2, 387762, Note_on_c, 4, 52, 127
2, 387892, Note_off_c, 0, 60, 127
2, 387929, Note_off_c, 4, 52, 127
2, 387931, Note_on_c, 2, 50, 127
2, 387933, Note_on_c, 0, 72, 127
2, 388098, Note_off_c, 2, 50, 127
2, 388101, Note_on_c, 0, 48, 127
2, 388268, Note_off_c, 0, 48, 127
2, 388269, Note_off_c, 0, 72, 127
2, 388270, Note_on_c, 11, 46, 127
2, 388270, Note_on_c, 5, 77, 127
2, 388352, Note_off_c, 5, 77, 127
2, 388354, Note_on_c, 4, 76, 127
2, 388435, Note_off_c, 11, 46, 127
2, 388436, Note_off_c, 4, 76, 127
2, 388437, Note_on_c, 10, 45, 127
2, 388437, Note_on_c, 5, 77, 127
2, 388604, Note_off_c, 10, 45, 127
2, 388607, Note_on_c, 7, 43, 127
2, 388773, Note_off_c, 5, 77, 127
2, 388774, Note_off_c, 7, 43, 127
2, 388776, Note_on_c, 5, 41, 127
2, 388776, Note_on_c, 7, 79, 127
2, 388858, Note_off_c, 7, 79, 127
2, 388860, Note_on_c, 10, 81, 127
2, 388941, Note_off_c, 5, 41, 127
2, 388942, Note_off_c, 10, 81, 127
2, 388944, Note_on_c, 11, 46, 127
2, 388944, Note_on_c, 10, 81, 127
2, 389280, Note_off_c, 10, 81, 127
2, 389282, Note_on_c, 7, 79, 127
2, 389449, Note_off_c, 7, 79, 127
2, 389451, Note_on_c, 5, 77, 127
2, 389618, Note_off_c, 5, 77, 127
2, 389621, Note_on_c, 4, 76, 127
2, 389788, Note_off_c, 4, 76, 127
2, 389788, Note_off_c, 11, 46, 127
2, 389790, Note_on_c, 0, 48, 127
2, 389790, Note_on_c, 2, 74, 127
2, 389957, Note_off_c, 2, 74, 127
2, 389957, Note_off_c, 0, 48, 127
2, 389959, Note_on_c, 2, 50, 127
2, 389959, Note_on_c, 11, 82, 127
2, 390126, Note_off_c, 2, 50, 127
2, 390129, Note_on_c, 0, 48, 127
2, 390295, Note_off_c, 11, 82, 127
2, 390296, Note_off_c, 0, 48, 127
2, 390298, Note_on_c, 11, 46, 127
2, 390298, Note_on_c, 5, 77, 127
2, 390433, Note_off_c, 5, 77, 127
2, 390435, Note_on_c, 4, 76, 127
2, 390463, Note_off_c, 11, 46, 127
2, 390465, Note_on_c, 10, 45, 127
2, 390501, Note_on_c, 5, 77, 127
2, 390517, Note_off_c, 4, 76, 127
2, 390568, Note_on_c, 4, 76, 127
2, 390583, Note_off_c, 5, 77, 127
2, 390632, Note_off_c, 10, 45, 127
2, 390635, Note_on_c, 7, 43, 127
2, 390635, Note_on_c, 5, 77, 127
2, 390650, Note_off_c, 4, 76, 127
2, 390701, Note_on_c, 4, 76, 127
2, 390717, Note_off_c, 5, 77, 127
2, 390800, Note_off_c, 7, 43, 127
2, 390802, Note_on_c, 5, 41, 127
2, 390819, Note_on_c, 5, 77, 127
2, 390825, Note_off_c, 4, 76, 127
2, 390964, Note_off_c, 5, 77, 127
2, 390967, Note_off_c, 5, 41, 127
2, 390970, Note_on_c, 4, 40, 127
2, 390970, Note_on_c, 7, 67, 127
2, 390970, Note_on_c, 11, 70, 127
2, 391053, Note_off_c, 11, 70, 127
2, 391055, Note_on_c, 10, 69, 127
2, 391138, Note_off_c, 10, 69, 127
2, 391139, Note_off_c, 4, 40, 127
2, 391141, Note_on_c, 0, 48, 127
2, 391141, Note_on_c, 11, 70, 127
2, 391310, Note_off_c, 0, 48, 127
2, 391312, Note_on_c, 2, 50, 127
2, 391481, Note_off_c, 2, 50, 127
2, 391481, Note_off_c, 11, 70, 127
2, 391483, Note_on_c, 4, 52, 127
2, 391483, Note_on_c, 0, 72, 127
2, 391647, Note_off_c, 7, 67, 127
2, 391652, Note_off_c, 0, 72, 127
2, 391652, Note_off_c, 4, 52, 127
2, 391654, Note_on_c, 5, 53, 127
2, 391654, Note_on_c, 11, 70, 127
2, 391654, Note_on_c, 5, 65, 127
2, 391765, Note_on_c, 10, 69, 127
2, 391770, Note_off_c, 11, 70, 127
2, 391847, Note_on_c, 11, 70, 127
2, 391855, Note_off_c, 10, 69, 127
2, 391931, Note_on_c, 10, 69, 127
2, 391939, Note_off_c, 11, 70, 127
2, 392015, Note_on_c, 11, 70, 127
2, 392023, Note_off_c, 10, 69, 127
2, 392023, Note_off_c, 5, 53, 127
2, 392025, Note_on_c, 11, 46, 127
2, 392099, Note_on_c, 10, 69, 127
2, 392107, Note_off_c, 11, 70, 127
2, 392211, Note_off_c, 10, 69, 127
2, 392211, Note_on_c, 7, 67, 127
2, 392389, Note_off_c, 5, 65, 127
2, 392393, Note_off_c, 7, 67, 127
2, 392394, Note_off_c, 11, 46, 127
2, 392396, Note_on_c, 0, 48, 127
2, 392396, Note_on_c, 10, 69, 127
2, 392396, Note_on_c, 4, 64, 127
2, 392486, Note_off_c, 10, 69, 127
2, 392488, Note_on_c, 7, 67, 127
2, 392578, Note_off_c, 7, 67, 127
2, 392581, Note_on_c, 10, 69, 127
2, 392671, Note_off_c, 10, 69, 127
2, 392673, Note_on_c, 7, 67, 127
2, 392763, Note_off_c, 7, 67, 127
2, 392763, Note_off_c, 0, 48, 127
2, 392765, Note_on_c, 0, 36, 127
2, 392765, Note_on_c, 10, 69, 127
2, 392855, Note_off_c, 10, 69, 127
2, 392858, Note_on_c, 7, 67, 127
2, 392934, Note_off_c, 4, 64, 127
2, 392948, Note_off_c, 7, 67, 127
2, 392950, Note_on_c, 5, 65, 127
2, 393132, Note_off_c, 5, 65, 127
2, 393132, Note_off_c, 0, 36, 127
2, 393135, Note_on_c, 5, 41, 127
2, 393135, Note_on_c, 5, 65, 127
2, 393552, Note_on_c, 10, 45, 127
2, 393967, Note_off_c, 10, 45, 127
2, 393969, Note_on_c, 0, 48, 127
2, 394384, Note_off_c, 0, 48, 127
2, 394386, Note_on_c, 5, 53, 127
2, 394386, Note_on_c, 0, 60, 127
2, 394386, Note_on_c, 10, 57, 127
2, 396620, Note_off_c, 10, 57, 127
2, 396620, Note_off_c, 0, 60, 127
2, 396620, Note_off_c, 5, 53, 127
2, 396621, Note_off_c, 5, 65, 127
2, 396621, Note_off_c, 5, 41, 127
2, 398230, Note_on_c, 5, 53, 127
2, 398230, Note_on_c, 0, 60, 127
2, 398230, Note_on_c, 0, 72, 127
2, 398230, Note_on_c, 5, 65, 127
2, 398230, Note_on_c, 10, 69, 127
2, 398557, Note_off_c, 0, 72, 127
2, 398560, Note_on_c, 3, 75, 127
2, 398721, Note_off_c, 3, 75, 127
2, 398724, Note_on_c, 2, 74, 127
2, 398885, Note_off_c, 2, 74, 127
2, 398887, Note_on_c, 3, 75, 127
2, 399541, Note_off_c, 10, 69, 127
2, 399541, Note_off_c, 5, 65, 127
2, 399541, Note_off_c, 0, 60, 127
2, 399541, Note_off_c, 5, 53, 127
2, 399561, Note_on_c, 5, 53, 127
2, 399561, Note_on_c, 10, 69, 127
2, 399561, Note_on_c, 5, 65, 127
2, 399561, Note_on_c, 0, 60, 127
2, 400198, Note_off_c, 3, 75, 127
2, 400209, Note_off_c, 0, 60, 127
2, 400209, Note_off_c, 5, 65, 127
2, 400209, Note_off_c, 10, 69, 127
2, 400209, Note_off_c, 5, 53, 127
2, 400235, Note_on_c, 11, 46, 127
2, 400235, Note_on_c, 11, 58, 127
2, 400235, Note_on_c, 11, 70, 127
2, 400235, Note_on_c, 5, 65, 127
2, 400235, Note_on_c, 2, 74, 127
2, 400562, Note_off_c, 2, 74, 127
2, 400562, Note_off_c, 5, 65, 127
2, 400562, Note_off_c, 11, 70, 127
2, 400564, Note_on_c, 0, 72, 127
2, 400564, Note_on_c, 10, 69, 127
2, 400564, Note_on_c, 3, 63, 127
2, 400891, Note_off_c, 3, 63, 127
2, 400891, Note_off_c, 10, 69, 127
2, 400891, Note_off_c, 0, 72, 127
2, 400893, Note_on_c, 2, 74, 127
2, 400893, Note_on_c, 5, 65, 127
2, 400893, Note_on_c, 11, 70, 127
2, 401548, Note_off_c, 11, 58, 127
2, 401548, Note_off_c, 11, 46, 127
2, 401567, Note_on_c, 11, 58, 127
2, 401567, Note_on_c, 11, 46, 127
2, 402204, Note_off_c, 11, 70, 127
2, 402204, Note_off_c, 5, 65, 127
2, 402204, Note_off_c, 2, 74, 127
2, 402215, Note_off_c, 11, 46, 127
2, 402215, Note_off_c, 11, 58, 127
2, 402240, Note_on_c, 11, 58, 127
2, 402240, Note_on_c, 4, 64, 127
2, 402240, Note_on_c, 0, 60, 127
2, 402240, Note_on_c, 7, 67, 127
2, 402567, Note_off_c, 7, 67, 127
2, 402570, Note_on_c, 10, 69, 127
2, 402890, Note_off_c, 0, 60, 127
2, 402890, Note_off_c, 4, 64, 127
2, 402896, Note_off_c, 11, 58, 127
2, 402897, Note_off_c, 10, 69, 127
2, 402899, Note_on_c, 10, 57, 127
2, 402899, Note_on_c, 0, 60, 127
2, 402899, Note_on_c, 10, 69, 127
2, 402899, Note_on_c, 5, 65, 127
2, 403226, Note_off_c, 10, 69, 127
2, 403228, Note_on_c, 11, 70, 127
2, 403549, Note_off_c, 5, 65, 127
2, 403549, Note_off_c, 0, 60, 127
2, 403555, Note_off_c, 11, 70, 127
2, 403555, Note_off_c, 10, 57, 127
2, 403558, Note_on_c, 7, 55, 127
2, 403558, Note_on_c, 4, 64, 127
2, 403558, Note_on_c, 0, 60, 127
2, 403558, Note_on_c, 11, 70, 127
2, 403885, Note_off_c, 11, 70, 127
2, 403887, Note_on_c, 0, 72, 127
2, 404208, Note_off_c, 0, 60, 127
2, 404208, Note_off_c, 4, 64, 127
2, 404214, Note_off_c, 0, 72, 127
2, 404214, Note_off_c, 7, 55, 127
2, 404217, Note_on_c, 5, 53, 127
2, 404217, Note_on_c, 0, 60, 127
2, 404217, Note_on_c, 11, 70, 127
2, 404217, Note_on_c, 5, 65, 127
2, 404378, Note_off_c, 11, 70, 127
2, 404380, Note_on_c, 10, 69, 127
2, 404541, Note_off_c, 10, 69, 127
2, 404544, Note_on_c, 11, 70, 127
2, 404705, Note_off_c, 11, 70, 127
2, 404708, Note_on_c, 10, 69, 127
2, 404864, Note_off_c, 5, 65, 127
2, 404864, Note_off_c, 0, 60, 127
2, 404869, Note_off_c, 10, 69, 127
2, 404870, Note_off_c, 5, 53, 127
2, 404872, Note_on_c, 0, 48, 127
2, 404872, Note_on_c, 7, 67, 127
2, 404872, Note_on_c, 11, 58, 127
2, 404872, Note_on_c, 4, 64, 127
2, 405199, Note_off_c, 7, 67, 127
2, 405200, Note_on_c, 10, 69, 127
2, 405522, Note_off_c, 4, 64, 127
2, 405522, Note_off_c, 11, 58, 127
2, 405527, Note_off_c, 10, 69, 127
2, 405528, Note_off_c, 0, 48, 127
2, 405530, Note_on_c, 5, 41, 127
2, 405530, Note_on_c, 5, 65, 127
2, 405530, Note_on_c, 0, 60, 127
2, 405530, Note_on_c, 10, 57, 127
2, 406251, Note_off_c, 10, 57, 127
2, 406251, Note_off_c, 0, 60, 127
2, 406251, Note_off_c, 5, 65, 127
2, 406251, Note_off_c, 5, 41, 127
2, 406270, Note_on_c, 10, 69, 127
2, 406270, Note_on_c, 0, 60, 127
2, 406270, Note_on_c, 5, 65, 127
2, 406270, Note_on_c, 5, 53, 127
2, 406597, Note_off_c, 5, 53, 127
2, 406597, Note_off_c, 10, 69, 127
2, 406599, Note_on_c, 0, 72, 127
2, 406599, Note_on_c, 8, 56, 127
2, 406760, Note_off_c, 8, 56, 127
2, 406760, Note_off_c, 0, 72, 127
2, 406763, Note_on_c, 12, 71, 127
2, 406763, Note_on_c, 7, 55, 127
2, 406918, Note_off_c, 5, 65, 127
2, 406918, Note_off_c, 0, 60, 127
2, 406924, Note_off_c, 7, 55, 127
2, 406924, Note_off_c, 12, 71, 127
2, 406927, Note_on_c, 2, 62, 127
2, 406927, Note_on_c, 0, 72, 127
2, 406927, Note_on_c, 5, 65, 127
2, 406927, Note_on_c, 8, 56, 127
2, 407034, Note_off_c, 0, 72, 127
2, 407036, Note_on_c, 12, 71, 127
2, 407143, Note_off_c, 12, 71, 127
2, 407145, Note_on_c, 0, 72, 127
2, 407252, Note_off_c, 0, 72, 127
2, 407254, Note_on_c, 12, 71, 127
2, 407902, Note_off_c, 12, 71, 127
2, 407928, Note_on_c, 0, 72, 127
2, 408238, Note_off_c, 8, 56, 127
2, 408238, Note_off_c, 5, 65, 127
2, 408238, Note_off_c, 2, 62, 127
2, 408255, Note_off_c, 0, 72, 127
2, 408274, Note_on_c, 5, 65, 127
2, 408274, Note_on_c, 3, 75, 127
2, 408274, Note_on_c, 7, 55, 127
2, 408274, Note_on_c, 12, 47, 127
2, 408435, Note_off_c, 3, 75, 127
2, 408438, Note_on_c, 2, 74, 127
2, 408599, Note_off_c, 2, 74, 127
2, 408599, Note_off_c, 12, 47, 127
2, 408601, Note_on_c, 0, 72, 127
2, 408601, Note_on_c, 10, 45, 127
2, 408762, Note_off_c, 0, 72, 127
2, 408765, Note_on_c, 2, 74, 127
2, 408921, Note_off_c, 7, 55, 127
2, 408921, Note_off_c, 5, 65, 127
2, 408926, Note_off_c, 2, 74, 127
2, 408926, Note_off_c, 10, 45, 127
2, 408929, Note_on_c, 12, 47, 127
2, 408929, Note_on_c, 7, 55, 127
2, 408929, Note_on_c, 7, 67, 127
2, 408929, Note_on_c, 2, 74, 127
2, 409093, Note_on_c, 3, 75, 127
2, 409254, Note_off_c, 3, 75, 127
2, 409257, Note_on_c, 5, 77, 127
2, 409877, Note_off_c, 12, 47, 127
2, 409896, Note_on_c, 0, 48, 127
2, 410073, Note_off_c, 0, 48, 127
2, 410077, Note_on_c, 2, 50, 127
2, 410240, Note_off_c, 5, 77, 127
2, 410240, Note_off_c, 2, 74, 127
2, 410240, Note_off_c, 7, 67, 127
2, 410240, Note_off_c, 7, 55, 127
2, 410254, Note_off_c, 2, 50, 127
2, 410259, Note_on_c, 4, 76, 127
2, 410259, Note_on_c, 7, 67, 127
2, 410259, Note_on_c, 7, 55, 127
2, 410259, Note_on_c, 4, 52, 127
2, 410586, Note_off_c, 4, 52, 127
2, 410586, Note_off_c, 7, 55, 127
2, 410586, Note_off_c, 7, 67, 127
2, 410586, Note_off_c, 4, 76, 127
2, 410588, Note_on_c, 5, 65, 127
2, 410588, Note_on_c, 2, 74, 127
2, 410588, Note_on_c, 10, 57, 127
2, 410588, Note_on_c, 5, 53, 127
2, 410915, Note_off_c, 5, 53, 127
2, 410915, Note_off_c, 10, 57, 127
2, 410915, Note_off_c, 2, 74, 127
2, 410915, Note_off_c, 5, 65, 127
2, 410918, Note_on_c, 5, 65, 127
2, 410918, Note_on_c, 2, 74, 127
2, 410918, Note_on_c, 10, 57, 127
2, 410918, Note_on_c, 5, 53, 127
2, 411245, Note_off_c, 5, 53, 127
2, 411245, Note_off_c, 10, 57, 127
2, 411245, Note_off_c, 2, 74, 127
2, 411245, Note_off_c, 5, 65, 127
2, 411247, Note_on_c, 0, 72, 127
2, 411247, Note_on_c, 4, 64, 127
2, 411247, Note_on_c, 7, 55, 127
2, 411574, Note_off_c, 7, 55, 127
2, 411574, Note_off_c, 4, 64, 127
2, 411574, Note_off_c, 0, 72, 127
2, 411576, Note_on_c, 0, 72, 127
2, 411576, Note_on_c, 4, 64, 127
2, 411576, Note_on_c, 7, 55, 127
2, 411903, Note_off_c, 4, 64, 127
2, 411903, Note_off_c, 0, 72, 127
2, 411906, Note_on_c, 2, 62, 127
2, 411906, Note_on_c, 12, 71, 127
2, 411906, Note_on_c, 7, 43, 127
2, 412226, Note_off_c, 7, 55, 127
2, 412233, Note_off_c, 7, 43, 127
2, 412233, Note_off_c, 12, 71, 127
2, 412233, Note_off_c, 2, 62, 127
2, 412235, Note_on_c, 2, 62, 127
2, 412235, Note_on_c, 12, 71, 127
2, 412235, Note_on_c, 7, 55, 127
2, 412235, Note_on_c, 0, 48, 127
2, 412562, Note_off_c, 12, 71, 127
2, 412562, Note_off_c, 2, 62, 127
2, 412565, Note_on_c, 4, 64, 127
2, 412565, Note_on_c, 0, 72, 127
2, 412891, Note_off_c, 0, 48, 127
2, 412891, Note_off_c, 7, 55, 127
2, 412892, Note_off_c, 0, 72, 127
2, 412892, Note_off_c, 4, 64, 127
2, 412894, Note_on_c, 0, 72, 127
2, 412894, Note_on_c, 4, 64, 127
2, 412894, Note_on_c, 7, 67, 127
2, 412894, Note_on_c, 0, 48, 127
2, 412894, Note_on_c, 0, 36, 127
2, 414194, Note_off_c, 0, 36, 127
2, 414194, Note_off_c, 0, 48, 127
2, 414233, Note_off_c, 7, 67, 127
2, 414233, Note_off_c, 4, 64, 127
2, 414233, Note_off_c, 0, 72, 127
2, 414259, Note_on_c, 0, 60, 127
2, 414259, Note_on_c, 0, 72, 127
2, 414259, Note_on_c, 7, 67, 127
2, 414259, Note_on_c, 4, 76, 127
2, 414586, Note_off_c, 4, 76, 127
2, 414589, Note_on_c, 5, 77, 127
2, 414750, Note_off_c, 5, 77, 127
2, 414753, Note_on_c, 7, 79, 127
2, 414907, Note_off_c, 7, 67, 127
2, 414907, Note_off_c, 0, 72, 127
2, 414914, Note_off_c, 7, 79, 127
2, 414914, Note_off_c, 0, 60, 127
2, 414916, Note_on_c, 11, 58, 127
2, 414916, Note_on_c, 5, 77, 127
2, 414916, Note_on_c, 7, 67, 127
2, 414916, Note_on_c, 0, 72, 127
2, 415132, Note_off_c, 5, 77, 127
2, 415151, Note_on_c, 4, 76, 127
2, 415258, Note_off_c, 4, 76, 127
2, 415260, Note_on_c, 5, 77, 127
2, 415367, Note_off_c, 5, 77, 127
2, 415370, Note_on_c, 4, 76, 127
2, 415477, Note_off_c, 4, 76, 127
2, 415479, Note_on_c, 5, 77, 127
2, 415586, Note_off_c, 5, 77, 127
2, 415588, Note_on_c, 4, 76, 127
2, 415695, Note_off_c, 4, 76, 127
2, 415697, Note_on_c, 5, 77, 127
2, 415804, Note_off_c, 5, 77, 127
2, 415806, Note_on_c, 4, 76, 127
2, 415913, Note_off_c, 4, 76, 127
2, 415915, Note_on_c, 2, 74, 127
2, 416076, Note_off_c, 2, 74, 127
2, 416079, Note_on_c, 4, 76, 127
2, 416224, Note_off_c, 0, 72, 127
2, 416224, Note_off_c, 7, 67, 127
2, 416224, Note_off_c, 11, 58, 127
2, 416240, Note_off_c, 4, 76, 127
2, 416259, Note_on_c, 1, 61, 127
2, 416259, Note_on_c, 10, 57, 127
2, 416259, Note_on_c, 4, 64, 127
2, 416259, Note_on_c, 10, 69, 127
2, 416259, Note_on_c, 4, 76, 127
2, 416259, Note_on_c, 7, 79, 127
2, 416914, Note_off_c, 7, 79, 127
2, 416914, Note_off_c, 4, 76, 127
2, 416914, Note_off_c, 10, 69, 127
2, 416914, Note_off_c, 4, 64, 127
2, 416914, Note_off_c, 10, 57, 127
2, 416914, Note_off_c, 1, 61, 127
2, 416917, Note_on_c, 7, 55, 127
2, 416917, Note_on_c, 4, 64, 127
2, 416917, Note_on_c, 10, 69, 127
2, 416917, Note_on_c, 2, 74, 127
2, 417242, Note_off_c, 2, 74, 127
2, 417263, Note_on_c, 1, 73, 127
2, 417370, Note_off_c, 1, 73, 127
2, 417372, Note_on_c, 2, 74, 127
2, 417479, Note_off_c, 2, 74, 127
2, 417481, Note_on_c, 1, 73, 127
2, 417588, Note_off_c, 1, 73, 127
2, 417590, Note_on_c, 2, 74, 127
2, 417751, Note_off_c, 2, 74, 127
2, 417754, Note_on_c, 1, 73, 127
2, 417915, Note_off_c, 1, 73, 127
2, 417918, Note_on_c, 12, 71, 127
2, 418079, Note_off_c, 12, 71, 127
2, 418082, Note_on_c, 1, 73, 127
2, 418227, Note_off_c, 10, 69, 127
2, 418267, Note_off_c, 1, 73, 127
2, 418273, Note_on_c, 11, 82, 127
2, 418273, Note_on_c, 1, 73, 127
2, 418600, Note_off_c, 11, 82, 127
2, 418608, Note_on_c, 10, 81, 127
2, 418922, Note_off_c, 7, 55, 127
2, 418923, Note_off_c, 1, 73, 127
2, 418934, Note_off_c, 4, 64, 127
2, 418935, Note_off_c, 10, 81, 127
2, 418936, Note_on_c, 10, 81, 127
2, 418936, Note_on_c, 2, 74, 127
2, 418936, Note_on_c, 5, 65, 127
2, 418936, Note_on_c, 5, 53, 127
2, 419263, Note_off_c, 10, 81, 127
2, 419266, Note_on_c, 7, 79, 127
2, 419586, Note_off_c, 2, 74, 127
2, 419592, Note_off_c, 5, 53, 127
2, 419592, Note_off_c, 5, 65, 127
2, 419593, Note_off_c, 7, 79, 127
2, 419596, Note_on_c, 4, 76, 127
2, 419596, Note_on_c, 7, 79, 127
2, 419596, Note_on_c, 4, 52, 127
2, 419596, Note_on_c, 1, 61, 127
2, 419757, Note_off_c, 7, 79, 127
2, 419759, Note_on_c, 5, 77, 127
2, 419920, Note_off_c, 5, 77, 127
2, 419923, Note_on_c, 7, 79, 127
2, 420074, Note_off_c, 4, 76, 127
2, 420089, Note_on_c, 4, 76, 127
2, 420248, Note_off_c, 7, 79, 127
2, 420250, Note_off_c, 4, 76, 127
2, 420251, Note_off_c, 1, 61, 127
2, 420251, Note_off_c, 4, 52, 127
2, 420269, Note_on_c, 2, 50, 127
2, 420269, Note_on_c, 2, 62, 127
2, 420269, Note_on_c, 10, 69, 127
2, 420269, Note_on_c, 7, 79, 127
2, 420394, Note_on_c, 5, 77, 127
2, 420396, Note_off_c, 7, 79, 127
2, 420519, Note_on_c, 7, 79, 127
2, 420521, Note_off_c, 5, 77, 127
2, 420643, Note_on_c, 5, 77, 127
2, 420646, Note_off_c, 7, 79, 127
2, 420917, Note_off_c, 10, 69, 127
2, 420924, Note_off_c, 2, 62, 127
2, 420924, Note_off_c, 2, 50, 127
2, 420925, Note_on_c, 10, 57, 127
2, 420925, Note_on_c, 1, 61, 127
2, 420925, Note_on_c, 4, 76, 127
2, 420925, Note_on_c, 7, 67, 127
2, 420929, Note_off_c, 5, 77, 127
2, 421252, Note_off_c, 4, 76, 127
2, 421255, Note_on_c, 5, 77, 127
2, 421575, Note_off_c, 7, 67, 127
2, 421581, Note_off_c, 1, 61, 127
2, 421581, Note_off_c, 10, 57, 127
2, 421582, Note_off_c, 5, 77, 127
2, 421585, Note_on_c, 2, 62, 127
2, 421585, Note_on_c, 2, 74, 127
2, 421585, Note_on_c, 5, 65, 127
2, 422295, Note_off_c, 5, 65, 127
2, 422295, Note_off_c, 2, 74, 127
2, 422295, Note_off_c, 2, 62, 127
2, 422324, Note_on_c, 2, 74, 127
2, 422324, Note_on_c, 10, 69, 127
2, 422324, Note_on_c, 6, 78, 127
2, 422324, Note_on_c, 2, 62, 127
2, 422324, Note_on_c, 0, 60, 127
2, 422651, Note_off_c, 6, 78, 127
2, 422670, Note_on_c, 10, 81, 127
2, 422831, Note_off_c, 10, 81, 127
2, 422834, Note_on_c, 7, 79, 127
2, 422972, Note_off_c, 10, 69, 127
2, 422972, Note_off_c, 2, 74, 127
2, 422979, Note_off_c, 0, 60, 127
2, 422979, Note_off_c, 2, 62, 127
2, 422995, Note_off_c, 7, 79, 127
2, 422998, Note_on_c, 2, 62, 127
2, 422998, Note_on_c, 11, 58, 127
2, 422998, Note_on_c, 2, 74, 127
2, 422998, Note_on_c, 7, 67, 127
2, 422998, Note_on_c, 7, 79, 127
2, 424092, Note_off_c, 7, 67, 127
2, 424092, Note_off_c, 2, 74, 127
2, 424092, Note_off_c, 2, 62, 127
2, 424309, Note_off_c, 7, 79, 127
2, 424309, Note_off_c, 11, 58, 127
2, 424311, Note_on_c, 6, 54, 127
2, 424311, Note_on_c, 0, 60, 127
2, 424311, Note_on_c, 3, 75, 127
2, 424311, Note_on_c, 10, 69, 127
2, 424472, Note_off_c, 3, 75, 127
2, 424475, Note_on_c, 0, 72, 127
2, 424636, Note_off_c, 0, 72, 127
2, 424639, Note_on_c, 2, 74, 127
2, 424959, Note_off_c, 10, 69, 127
2, 424966, Note_off_c, 2, 74, 127
2, 424966, Note_off_c, 0, 60, 127
2, 424966, Note_off_c, 6, 54, 127
2, 424968, Note_on_c, 12, 59, 127
2, 424968, Note_on_c, 5, 53, 127
2, 424968, Note_on_c, 2, 74, 127
2, 424968, Note_on_c, 8, 68, 127
2, 425951, Note_off_c, 2, 74, 127
2, 425971, Note_on_c, 2, 74, 127
2, 426131, Note_off_c, 8, 68, 127
2, 426131, Note_off_c, 12, 59, 127
2, 426281, Note_off_c, 5, 53, 127
2, 426298, Note_off_c, 2, 74, 127
2, 426301, Note_on_c, 7, 67, 127
2, 426301, Note_on_c, 7, 79, 127
2, 426301, Note_on_c, 0, 60, 127
2, 426301, Note_on_c, 3, 51, 127
2, 426792, Note_off_c, 7, 79, 127
2, 426792, Note_off_c, 7, 67, 127
2, 426793, Note_on_c, 10, 81, 127
2, 426954, Note_off_c, 10, 81, 127
2, 426956, Note_off_c, 3, 51, 127
2, 426956, Note_off_c, 0, 60, 127
2, 426957, Note_on_c, 7, 79, 127
2, 426957, Note_on_c, 10, 81, 127
2, 426957, Note_on_c, 3, 75, 127
2, 426957, Note_on_c, 0, 60, 127
2, 426957, Note_on_c, 0, 48, 127
2, 427612, Note_off_c, 0, 48, 127
2, 427612, Note_off_c, 3, 75, 127
2, 427612, Note_off_c, 7, 79, 127
2, 427614, Note_on_c, 2, 74, 127
2, 427614, Note_on_c, 6, 78, 127
2, 427614, Note_on_c, 2, 50, 127
2, 427940, Note_off_c, 10, 81, 127
2, 427941, Note_off_c, 6, 78, 127
2, 427944, Note_on_c, 7, 79, 127
2, 428264, Note_off_c, 2, 74, 127
2, 428270, Note_off_c, 2, 50, 127
2, 428271, Note_off_c, 7, 79, 127
2, 428273, Note_on_c, 7, 79, 127
2, 428273, Note_on_c, 2, 74, 127
2, 428273, Note_on_c, 7, 55, 127
2, 428601, Note_off_c, 0, 60, 127
2, 428644, Note_on_c, 10, 57, 127
2, 428952, Note_off_c, 7, 79, 127
2, 428975, Note_off_c, 7, 55, 127
2, 428988, Note_off_c, 2, 74, 127
2, 428997, Note_on_c, 7, 79, 127
2, 428997, Note_on_c, 7, 67, 127
2, 428997, Note_on_c, 2, 74, 127
2, 428997, Note_on_c, 7, 55, 127
2, 428997, Note_on_c, 11, 58, 127
2, 429014, Note_off_c, 10, 57, 127
2, 430022, Note_off_c, 11, 58, 127
2, 430022, Note_off_c, 2, 74, 127
2, 430022, Note_off_c, 7, 67, 127
2, 430308, Note_off_c, 7, 55, 127
2, 430308, Note_off_c, 7, 79, 127
2, 430345, Note_on_c, 7, 67, 127
2, 430345, Note_on_c, 12, 71, 127
2, 430345, Note_on_c, 2, 62, 127
2, 430345, Note_on_c, 7, 55, 127
2, 430345, Note_on_c, 5, 53, 127
2, 430672, Note_off_c, 12, 71, 127
2, 430674, Note_on_c, 2, 74, 127
2, 430835, Note_off_c, 2, 74, 127
2, 430838, Note_on_c, 0, 72, 127
2, 430993, Note_off_c, 2, 62, 127
2, 430993, Note_off_c, 7, 67, 127
2, 430999, Note_off_c, 0, 72, 127
2, 431000, Note_off_c, 5, 53, 127
2, 431000, Note_off_c, 7, 55, 127
2, 431002, Note_on_c, 0, 60, 127
2, 431002, Note_on_c, 0, 72, 127
2, 431002, Note_on_c, 7, 67, 127
2, 431002, Note_on_c, 4, 52, 127
2, 431002, Note_on_c, 7, 55, 127
2, 431985, Note_off_c, 0, 72, 127
2, 432021, Note_on_c, 0, 72, 127
2, 432096, Note_off_c, 7, 55, 127
2, 432096, Note_off_c, 7, 67, 127
2, 432096, Note_off_c, 0, 60, 127
2, 432313, Note_off_c, 4, 52, 127
2, 432346, Note_off_c, 0, 72, 127
2, 432348, Note_on_c, 5, 65, 127
2, 432348, Note_on_c, 10, 69, 127
2, 432348, Note_on_c, 5, 77, 127
2, 432348, Note_on_c, 0, 60, 127
2, 432348, Note_on_c, 3, 51, 127
2, 432675, Note_off_c, 5, 77, 127
2, 432675, Note_off_c, 10, 69, 127
2, 432678, Note_on_c, 10, 69, 127
2, 432998, Note_off_c, 5, 65, 127
2, 433004, Note_off_c, 3, 51, 127
2, 433004, Note_off_c, 0, 60, 127
2, 433005, Note_off_c, 10, 69, 127
2, 433007, Note_on_c, 11, 70, 127
2, 433007, Note_on_c, 5, 65, 127
2, 433007, Note_on_c, 11, 58, 127
2, 433007, Note_on_c, 2, 50, 127
2, 433990, Note_off_c, 11, 70, 127
2, 434027, Note_on_c, 0, 72, 127
2, 434101, Note_off_c, 11, 58, 127
2, 434101, Note_off_c, 5, 65, 127
2, 434188, Note_off_c, 0, 72, 127
2, 434191, Note_on_c, 2, 74, 127
2, 434318, Note_off_c, 2, 50, 127
2, 434352, Note_off_c, 2, 74, 127
2, 434355, Note_on_c, 3, 75, 127
2, 434355, Note_on_c, 7, 67, 127
2, 434355, Note_on_c, 0, 72, 127
2, 434355, Note_on_c, 11, 58, 127
2, 434355, Note_on_c, 0, 48, 127
2, 434682, Note_off_c, 3, 75, 127
2, 434683, Note_on_c, 7, 79, 127
2, 435005, Note_off_c, 0, 72, 127
2, 435005, Note_off_c, 7, 67, 127
2, 435010, Note_off_c, 7, 79, 127
2, 435011, Note_off_c, 0, 48, 127
2, 435011, Note_off_c, 11, 58, 127
2, 435013, Note_on_c, 0, 72, 127
2, 435013, Note_on_c, 5, 77, 127
2, 435013, Note_on_c, 0, 60, 127
2, 435013, Note_on_c, 5, 53, 127
2, 435013, Note_on_c, 11, 58, 127
2, 435340, Note_off_c, 5, 77, 127
2, 435342, Note_on_c, 3, 75, 127
2, 435663, Note_off_c, 0, 72, 127
2, 435669, Note_off_c, 3, 75, 127
2, 435669, Note_off_c, 11, 58, 127
2, 435669, Note_off_c, 5, 53, 127
2, 435669, Note_off_c, 0, 60, 127
2, 435672, Note_on_c, 0, 72, 127
2, 435672, Note_on_c, 2, 74, 127
2, 435672, Note_on_c, 5, 65, 127
2, 435672, Note_on_c, 10, 57, 127
2, 435672, Note_on_c, 5, 53, 127
2, 435999, Note_off_c, 2, 74, 127
2, 436034, Note_on_c, 3, 75, 127
2, 436322, Note_off_c, 5, 65, 127
2, 436322, Note_off_c, 0, 72, 127
2, 436328, Note_off_c, 5, 53, 127
2, 436328, Note_off_c, 10, 57, 127
2, 436347, Note_on_c, 11, 58, 127
2, 436347, Note_on_c, 5, 65, 127
2, 436347, Note_on_c, 11, 70, 127
2, 436351, Note_off_c, 3, 75, 127
2, 436466, Note_on_c, 0, 72, 127
2, 436580, Note_off_c, 0, 72, 127
2, 436585, Note_on_c, 2, 74, 127
2, 436994, Note_off_c, 2, 74, 127
2, 437002, Note_off_c, 11, 70, 127
2, 437002, Note_off_c, 5, 65, 127
2, 437002, Note_off_c, 11, 58, 127
2, 437004, Note_on_c, 5, 53, 127
2, 437004, Note_on_c, 10, 57, 127
2, 437004, Note_on_c, 0, 72, 127
2, 437004, Note_on_c, 3, 63, 127
2, 437331, Note_off_c, 0, 72, 127
2, 437333, Note_on_c, 2, 74, 127
2, 437654, Note_off_c, 3, 63, 127
2, 437660, Note_off_c, 10, 57, 127
2, 437660, Note_off_c, 5, 53, 127
2, 437671, Note_off_c, 2, 74, 127
2, 437679, Note_on_c, 11, 70, 127
2, 437679, Note_on_c, 2, 62, 127
2, 437679, Note_on_c, 11, 58, 127
2, 437679, Note_on_c, 11, 46, 127
2, 438400, Note_off_c, 11, 46, 127
2, 438400, Note_off_c, 11, 58, 127
2, 438400, Note_off_c, 2, 62, 127
2, 438400, Note_off_c, 11, 70, 127
2, 438418, Note_on_c, 12, 47, 127
2, 438418, Note_on_c, 7, 67, 127
2, 438418, Note_on_c, 2, 62, 127
2, 438418, Note_on_c, 5, 65, 127
2, 438745, Note_off_c, 7, 67, 127
2, 438747, Note_on_c, 10, 69, 127
2, 438908, Note_off_c, 10, 69, 127
2, 438911, Note_on_c, 7, 67, 127
2, 439066, Note_off_c, 5, 65, 127
2, 439066, Note_off_c, 2, 62, 127
2, 439072, Note_off_c, 7, 67, 127
2, 439073, Note_off_c, 12, 47, 127
2, 439075, Note_on_c, 0, 48, 127
2, 439075, Note_on_c, 7, 67, 127
2, 439075, Note_on_c, 5, 65, 127
2, 439075, Note_on_c, 2, 62, 127
2, 439730, Note_off_c, 2, 62, 127
2, 439730, Note_off_c, 5, 65, 127
2, 439749, Note_on_c, 0, 60, 127
2, 439749, Note_on_c, 4, 64, 127
2, 440307, Note_off_c, 7, 67, 127
2, 440388, Note_off_c, 0, 48, 127
2, 440405, Note_off_c, 4, 64, 127
2, 440405, Note_off_c, 0, 60, 127
2, 440441, Note_on_c, 5, 65, 127
2, 440441, Note_on_c, 7, 67, 127
2, 440441, Note_on_c, 11, 58, 127
2, 440441, Note_on_c, 1, 49, 127
2, 440768, Note_off_c, 7, 67, 127
2, 440769, Note_on_c, 8, 68, 127
2, 440930, Note_off_c, 8, 68, 127
2, 440933, Note_on_c, 7, 67, 127
2, 441089, Note_off_c, 5, 65, 127
2, 441094, Note_off_c, 7, 67, 127
2, 441096, Note_off_c, 1, 49, 127
2, 441096, Note_off_c, 11, 58, 127
2, 441097, Note_on_c, 12, 71, 127
2, 441097, Note_on_c, 5, 65, 127
2, 441097, Note_on_c, 8, 56, 127
2, 441097, Note_on_c, 2, 50, 127
2, 441916, Note_off_c, 8, 56, 127
2, 441920, Note_on_c, 8, 56, 127
2, 442021, Note_off_c, 2, 50, 127
2, 442117, Note_on_c, 10, 69, 127
2, 442117, Note_on_c, 7, 55, 127
2, 442124, Note_off_c, 8, 56, 127
2, 442148, Note_off_c, 12, 71, 127
2, 442260, Note_off_c, 5, 65, 127
2, 442278, Note_off_c, 7, 55, 127
2, 442278, Note_off_c, 10, 69, 127
2, 442280, Note_on_c, 12, 71, 127
2, 442280, Note_on_c, 5, 53, 127
2, 442443, Note_off_c, 5, 53, 127
2, 442443, Note_off_c, 12, 71, 127
2, 442446, Note_on_c, 0, 72, 127
2, 442446, Note_on_c, 7, 67, 127
2, 442446, Note_on_c, 0, 60, 127
2, 442446, Note_on_c, 7, 55, 127
2, 442446, Note_on_c, 4, 52, 127
2, 442798, Note_off_c, 4, 52, 127
2, 442798, Note_off_c, 7, 55, 127
2, 442798, Note_off_c, 0, 60, 127
2, 442798, Note_off_c, 7, 67, 127
2, 442798, Note_off_c, 0, 72, 127
2, 442801, Note_on_c, 0, 60, 127
2, 442801, Note_on_c, 10, 57, 127
2, 442801, Note_on_c, 5, 53, 127
2, 443153, Note_off_c, 5, 53, 127
2, 443153, Note_off_c, 10, 57, 127
2, 443153, Note_off_c, 0, 60, 127
2, 443154, Note_on_c, 0, 60, 127
2, 443154, Note_on_c, 5, 65, 127
2, 443154, Note_on_c, 10, 57, 127
2, 443154, Note_on_c, 10, 45, 127
2, 443506, Note_off_c, 10, 45, 127
2, 443506, Note_off_c, 10, 57, 127
2, 443506, Note_off_c, 5, 65, 127
2, 443506, Note_off_c, 0, 60, 127
2, 443508, Note_on_c, 2, 62, 127
2, 443508, Note_on_c, 5, 65, 127
2, 443508, Note_on_c, 11, 70, 127
2, 443508, Note_on_c, 5, 53, 127
2, 443508, Note_on_c, 11, 46, 127
2, 443860, Note_off_c, 11, 46, 127
2, 443860, Note_off_c, 5, 53, 127
2, 443860, Note_off_c, 11, 70, 127
2, 443860, Note_off_c, 5, 65, 127
2, 443860, Note_off_c, 2, 62, 127
2, 443862, Note_on_c, 0, 60, 127
2, 443862, Note_on_c, 10, 69, 127
2, 443862, Note_on_c, 5, 65, 127
2, 443862, Note_on_c, 0, 48, 127
2, 444214, Note_off_c, 0, 48, 127
2, 444214, Note_off_c, 5, 65, 127
2, 444214, Note_off_c, 10, 69, 127
2, 444214, Note_off_c, 0, 60, 127
2, 444216, Note_on_c, 7, 67, 127
2, 444216, Note_on_c, 11, 58, 127
2, 444216, Note_on_c, 4, 64, 127
2, 444216, Note_on_c, 0, 36, 127
2, 444568, Note_off_c, 0, 36, 127
2, 444568, Note_off_c, 4, 64, 127
2, 444568, Note_off_c, 11, 58, 127
2, 444568, Note_off_c, 7, 67, 127
2, 444570, Note_on_c, 11, 58, 127
2, 444570, Note_on_c, 0, 60, 127
2, 444570, Note_on_c, 5, 65, 127
2, 444570, Note_on_c, 5, 41, 127
2, 444570, Note_on_c, 0, 48, 127
2, 444990, Note_off_c, 5, 65, 127
2, 444993, Note_on_c, 4, 64, 127
2, 445406, Note_off_c, 0, 60, 127
2, 445406, Note_off_c, 11, 58, 127
2, 445413, Note_off_c, 4, 64, 127
2, 445413, Note_off_c, 0, 48, 127
2, 445413, Note_off_c, 5, 41, 127
2, 445416, Note_on_c, 0, 60, 127
2, 445416, Note_on_c, 5, 65, 127
2, 445416, Note_on_c, 10, 57, 127
2, 445416, Note_on_c, 5, 53, 127
2, 445416, Note_on_c, 5, 41, 127
2, 447589, Note_off_c, 5, 41, 127
2, 447589, Note_off_c, 5, 53, 127
2, 447589, Note_off_c, 10, 57, 127
2, 447589, Note_off_c, 5, 65, 127
2, 447589, Note_off_c, 0, 60, 127
2, 448606, Note_on_c, 5, 53, 127
2, 448606, Note_on_c, 5, 65, 127
2, 448818, Note_off_c, 5, 65, 127
2, 448827, Note_on_c, 7, 67, 127
2, 449038, Note_off_c, 5, 53, 127
2, 449039, Note_off_c, 7, 67, 127
2, 449047, Note_on_c, 4, 52, 127
2, 449047, Note_on_c, 10, 69, 127
2, 449149, Note_off_c, 10, 69, 127
2, 449160, Note_on_c, 7, 67, 127
2, 449261, Note_off_c, 4, 52, 127
2, 449262, Note_off_c, 7, 67, 127
2, 449271, Note_on_c, 2, 50, 127
2, 449271, Note_on_c, 10, 69, 127
2, 449373, Note_off_c, 10, 69, 127
2, 449381, Note_on_c, 7, 67, 127
2, 449483, Note_off_c, 7, 67, 127
2, 449485, Note_off_c, 2, 50, 127
2, 449493, Note_on_c, 4, 52, 127
2, 449493, Note_on_c, 10, 69, 127
2, 449595, Note_off_c, 10, 69, 127
2, 449604, Note_on_c, 7, 67, 127
2, 449706, Note_off_c, 7, 67, 127
2, 449707, Note_off_c, 4, 52, 127
2, 449716, Note_on_c, 0, 48, 127
2, 449716, Note_on_c, 5, 65, 127
2, 449818, Note_off_c, 5, 65, 127
2, 449827, Note_on_c, 7, 67, 127
2, 449929, Note_off_c, 7, 67, 127
2, 449930, Note_off_c, 0, 48, 127
2, 449938, Note_on_c, 5, 53, 127
2, 449938, Note_on_c, 10, 69, 127
2, 450150, Note_off_c, 10, 69, 127
2, 450160, Note_on_c, 11, 70, 127
2, 450370, Note_off_c, 5, 53, 127
2, 450372, Note_off_c, 11, 70, 127
2, 450380, Note_on_c, 5, 41, 127
2, 450380, Note_on_c, 0, 72, 127
2, 450592, Note_off_c, 5, 41, 127
2, 450602, Note_on_c, 7, 43, 127
2, 450696, Note_off_c, 0, 72, 127
2, 450816, Note_off_c, 7, 43, 127
2, 450824, Note_on_c, 10, 45, 127
2, 450824, Note_on_c, 5, 77, 127
2, 451036, Note_off_c, 10, 45, 127
2, 451046, Note_on_c, 11, 46, 127
2, 451140, Note_off_c, 5, 77, 127
2, 451260, Note_off_c, 11, 46, 127
2, 451268, Note_on_c, 0, 48, 127
2, 451268, Note_on_c, 10, 69, 127
2, 451480, Note_off_c, 10, 69, 127
2, 451480, Note_off_c, 0, 48, 127
2, 451489, Note_on_c, 2, 50, 127
2, 451489, Note_on_c, 11, 70, 127
2, 451701, Note_off_c, 11, 70, 127
2, 451701, Note_off_c, 2, 50, 127
2, 451709, Note_on_c, 4, 52, 127
2, 451709, Note_on_c, 0, 72, 127
2, 451921, Note_off_c, 4, 52, 127
2, 451931, Note_on_c, 7, 55, 127
2, 452025, Note_off_c, 0, 72, 127
2, 452145, Note_off_c, 7, 55, 127
2, 452153, Note_on_c, 6, 54, 127
2, 452153, Note_on_c, 2, 74, 127
2, 452365, Note_off_c, 6, 54, 127
2, 452373, Note_on_c, 10, 57, 127
2, 452469, Note_off_c, 2, 74, 127
2, 452587, Note_off_c, 10, 57, 127
2, 452596, Note_on_c, 7, 55, 127
2, 452596, Note_on_c, 0, 72, 127
2, 452808, Note_off_c, 7, 55, 127
2, 452817, Note_on_c, 10, 57, 127
2, 452928, Note_off_c, 0, 72, 127
2, 452938, Note_on_c, 11, 70, 127
2, 453029, Note_off_c, 11, 70, 127
2, 453029, Note_off_c, 10, 57, 127
2, 453038, Note_on_c, 11, 58, 127
2, 453038, Note_on_c, 0, 72, 127
2, 453136, Note_off_c, 0, 72, 127
2, 453149, Note_on_c, 11, 70, 127
2, 453247, Note_off_c, 11, 70, 127
2, 453252, Note_off_c, 11, 58, 127
2, 453260, Note_on_c, 10, 57, 127
2, 453260, Note_on_c, 0, 72, 127
2, 453358, Note_off_c, 0, 72, 127
2, 453372, Note_on_c, 11, 70, 127
2, 453470, Note_off_c, 11, 70, 127
2, 453474, Note_off_c, 10, 57, 127
2, 453483, Note_on_c, 7, 55, 127
2, 453485, Note_on_c, 10, 69, 127
2, 453697, Note_off_c, 10, 69, 127
2, 453697, Note_off_c, 7, 55, 127
2, 453705, Note_on_c, 5, 53, 127
2, 453705, Note_on_c, 11, 70, 127
2, 453859, Note_off_c, 11, 70, 127
2, 453917, Note_off_c, 5, 53, 127
2, 453928, Note_on_c, 4, 52, 127
2, 453928, Note_on_c, 7, 67, 127
2, 454140, Note_off_c, 7, 67, 127
2, 454140, Note_off_c, 4, 52, 127
2, 454148, Note_on_c, 2, 50, 127
2, 454148, Note_on_c, 10, 69, 127
2, 454360, Note_off_c, 10, 69, 127
2, 454360, Note_off_c, 2, 50, 127
2, 454368, Note_on_c, 0, 48, 127
2, 454368, Note_on_c, 11, 70, 127
2, 454470, Note_off_c, 11, 70, 127
2, 454481, Note_on_c, 10, 69, 127
2, 454582, Note_off_c, 0, 48, 127
2, 454583, Note_off_c, 10, 69, 127
2, 454591, Note_on_c, 2, 50, 127
2, 454591, Note_on_c, 11, 70, 127
2, 454693, Note_off_c, 11, 70, 127
2, 454703, Note_on_c, 10, 69, 127
2, 454805, Note_off_c, 10, 69, 127
2, 454805, Note_off_c, 2, 50, 127
2, 454814, Note_on_c, 4, 52, 127
2, 454814, Note_on_c, 11, 70, 127
2, 454916, Note_off_c, 11, 70, 127
2, 454925, Note_on_c, 10, 69, 127
2, 455027, Note_off_c, 10, 69, 127
2, 455028, Note_off_c, 4, 52, 127
2, 455037, Note_on_c, 5, 53, 127
2, 455037, Note_on_c, 7, 67, 127
2, 455139, Note_off_c, 7, 67, 127
2, 455147, Note_on_c, 10, 69, 127
2, 455249, Note_off_c, 10, 69, 127
2, 455251, Note_off_c, 5, 53, 127
2, 455259, Note_on_c, 7, 55, 127
2, 455259, Note_on_c, 11, 70, 127
2, 455471, Note_off_c, 11, 70, 127
2, 455480, Note_on_c, 0, 72, 127
2, 455691, Note_off_c, 7, 55, 127
2, 455692, Note_off_c, 0, 72, 127
2, 455701, Note_on_c, 7, 43, 127
2, 455701, Note_on_c, 2, 74, 127
2, 455913, Note_off_c, 7, 43, 127
2, 455923, Note_on_c, 10, 45, 127
2, 456017, Note_off_c, 2, 74, 127
2, 456137, Note_off_c, 10, 45, 127
2, 456145, Note_on_c, 11, 46, 127
2, 456145, Note_on_c, 7, 79, 127
2, 456357, Note_off_c, 11, 46, 127
2, 456366, Note_on_c, 7, 43, 127
2, 456461, Note_off_c, 7, 79, 127
2, 456580, Note_off_c, 7, 43, 127
2, 456588, Note_on_c, 0, 48, 127
2, 456588, Note_on_c, 5, 77, 127
2, 456800, Note_off_c, 5, 77, 127
2, 456810, Note_on_c, 4, 76, 127
2, 457015, Note_off_c, 4, 76, 127
2, 457020, Note_off_c, 0, 48, 127
2, 457031, Note_on_c, 2, 50, 127
2, 457031, Note_on_c, 2, 74, 127
2, 457243, Note_off_c, 2, 74, 127
2, 457251, Note_on_c, 0, 72, 127
2, 457456, Note_off_c, 0, 72, 127
2, 457463, Note_off_c, 2, 50, 127
2, 457473, Note_on_c, 4, 52, 127
2, 457473, Note_on_c, 11, 70, 127
2, 457685, Note_off_c, 11, 70, 127
2, 457693, Note_on_c, 10, 69, 127
2, 457898, Note_off_c, 10, 69, 127
2, 457905, Note_off_c, 4, 52, 127
2, 457915, Note_on_c, 5, 53, 127
2, 457915, Note_on_c, 7, 67, 127
2, 458127, Note_off_c, 7, 67, 127
2, 458135, Note_on_c, 10, 69, 127
2, 458322, Note_off_c, 10, 69, 127
2, 458347, Note_off_c, 5, 53, 127
2, 458357, Note_on_c, 0, 48, 127
2, 458357, Note_on_c, 11, 70, 127
2, 458569, Note_off_c, 11, 70, 127
2, 458578, Note_on_c, 10, 69, 127
2, 458765, Note_off_c, 10, 69, 127
2, 458789, Note_off_c, 0, 48, 127
2, 458798, Note_on_c, 10, 45, 127
2, 458798, Note_on_c, 7, 67, 127
2, 459010, Note_off_c, 7, 67, 127
2, 459019, Note_on_c, 5, 65, 127
2, 459178, Note_off_c, 5, 65, 127
2, 459232, Note_off_c, 10, 45, 127
2, 459241, Note_on_c, 5, 41, 127
2, 459241, Note_on_c, 10, 69, 127
2, 459453, Note_off_c, 10, 69, 127
2, 459462, Note_on_c, 12, 71, 127
2, 459673, Note_off_c, 5, 41, 127
2, 459674, Note_off_c, 12, 71, 127
2, 459683, Note_on_c, 5, 53, 127
2, 459683, Note_on_c, 0, 72, 127
2, 459785, Note_off_c, 0, 72, 127
2, 459796, Note_on_c, 12, 71, 127
2, 459897, Note_off_c, 5, 53, 127
2, 459898, Note_off_c, 12, 71, 127
2, 459906, Note_on_c, 4, 52, 127
2, 459906, Note_on_c, 0, 72, 127
2, 460008, Note_off_c, 0, 72, 127
2, 460018, Note_on_c, 12, 71, 127
2, 460120, Note_off_c, 12, 71, 127
2, 460120, Note_off_c, 4, 52, 127
2, 460129, Note_on_c, 5, 53, 127
2, 460129, Note_on_c, 0, 72, 127
2, 460231, Note_off_c, 0, 72, 127
2, 460240, Note_on_c, 12, 71, 127
2, 460342, Note_off_c, 12, 71, 127
2, 460343, Note_off_c, 5, 53, 127
2, 460352, Note_on_c, 2, 50, 127
2, 460352, Note_on_c, 10, 69, 127
2, 460454, Note_off_c, 10, 69, 127
2, 460463, Note_on_c, 12, 71, 127
2, 460565, Note_off_c, 12, 71, 127
2, 460566, Note_off_c, 2, 50, 127
2, 460574, Note_on_c, 4, 52, 127
2, 460574, Note_on_c, 0, 72, 127
2, 460786, Note_off_c, 0, 72, 127
2, 460795, Note_on_c, 2, 74, 127
2, 461006, Note_off_c, 4, 52, 127
2, 461007, Note_off_c, 2, 74, 127
2, 461016, Note_on_c, 5, 53, 127
2, 461016, Note_on_c, 4, 76, 127
2, 461228, Note_off_c, 4, 76, 127
2, 461236, Note_on_c, 2, 74, 127
2, 461436, Note_off_c, 2, 74, 127
2, 461450, Note_off_c, 5, 53, 127
2, 461459, Note_on_c, 7, 55, 127
2, 461459, Note_on_c, 5, 77, 127
2, 461671, Note_off_c, 5, 77, 127
2, 461680, Note_on_c, 4, 76, 127
2, 461844, Note_off_c, 4, 76, 127
2, 461891, Note_off_c, 7, 55, 127
2, 461902, Note_on_c, 0, 48, 127
2, 461902, Note_on_c, 4, 76, 127
2, 462114, Note_off_c, 4, 76, 127
2, 462114, Note_off_c, 0, 48, 127
2, 462122, Note_on_c, 2, 50, 127
2, 462122, Note_on_c, 5, 77, 127
2, 462334, Note_off_c, 5, 77, 127
2, 462334, Note_off_c, 2, 50, 127
2, 462343, Note_on_c, 4, 52, 127
2, 462343, Note_on_c, 7, 79, 127
2, 462445, Note_off_c, 7, 79, 127
2, 462454, Note_on_c, 5, 77, 127
2, 462556, Note_off_c, 5, 77, 127
2, 462557, Note_off_c, 4, 52, 127
2, 462565, Note_on_c, 2, 50, 127
2, 462565, Note_on_c, 7, 79, 127
2, 462667, Note_off_c, 7, 79, 127
2, 462676, Note_on_c, 5, 77, 127
2, 462778, Note_off_c, 5, 77, 127
2, 462779, Note_off_c, 2, 50, 127
2, 462788, Note_on_c, 0, 48, 127
2, 462788, Note_on_c, 7, 79, 127
2, 462890, Note_off_c, 7, 79, 127
2, 462899, Note_on_c, 5, 77, 127
2, 463001, Note_off_c, 5, 77, 127
2, 463002, Note_off_c, 0, 48, 127
2, 463011, Note_on_c, 2, 50, 127
2, 463011, Note_on_c, 4, 76, 127
2, 463113, Note_off_c, 4, 76, 127
2, 463121, Note_on_c, 5, 77, 127
2, 463223, Note_off_c, 5, 77, 127
2, 463225, Note_off_c, 2, 50, 127
2, 463234, Note_on_c, 4, 52, 127
2, 463234, Note_on_c, 7, 79, 127
2, 463446, Note_off_c, 4, 52, 127
2, 463455, Note_on_c, 2, 50, 127
2, 463667, Note_off_c, 2, 50, 127
2, 463676, Note_on_c, 5, 53, 127
2, 463888, Note_off_c, 5, 53, 127
2, 463897, Note_on_c, 4, 52, 127
2, 464109, Note_off_c, 4, 52, 127
2, 464109, Note_off_c, 7, 79, 127
2, 464117, Note_on_c, 2, 50, 127
2, 464329, Note_off_c, 2, 50, 127
2, 464339, Note_on_c, 0, 48, 127
2, 464551, Note_off_c, 0, 48, 127
2, 464559, Note_on_c, 5, 53, 127
2, 464559, Note_on_c, 10, 81, 127
2, 464771, Note_off_c, 5, 53, 127
2, 464781, Note_on_c, 4, 52, 127
2, 464991, Note_off_c, 10, 81, 127
2, 464993, Note_off_c, 4, 52, 127
2, 465001, Note_on_c, 5, 53, 127
2, 465001, Note_on_c, 2, 74, 127
2, 465213, Note_off_c, 2, 74, 127
2, 465223, Note_on_c, 4, 76, 127
2, 465435, Note_off_c, 4, 76, 127
2, 465444, Note_on_c, 5, 77, 127
2, 465656, Note_off_c, 5, 77, 127
2, 465664, Note_on_c, 2, 74, 127
2, 465876, Note_off_c, 2, 74, 127
2, 465886, Note_on_c, 7, 79, 127
2, 466096, Note_off_c, 5, 53, 127
2, 466106, Note_on_c, 4, 52, 127
2, 466271, Note_off_c, 7, 79, 127
2, 466320, Note_off_c, 4, 52, 127
2, 466329, Note_on_c, 5, 53, 127
2, 466329, Note_on_c, 12, 71, 127
2, 466541, Note_off_c, 5, 53, 127
2, 466549, Note_on_c, 7, 55, 127
2, 466714, Note_off_c, 12, 71, 127
2, 466763, Note_off_c, 7, 55, 127
2, 466772, Note_on_c, 10, 57, 127
2, 466772, Note_on_c, 0, 72, 127
2, 466874, Note_off_c, 0, 72, 127
2, 466884, Note_on_c, 12, 71, 127
2, 466986, Note_off_c, 12, 71, 127
2, 466986, Note_off_c, 10, 57, 127
2, 466994, Note_on_c, 4, 52, 127
2, 466994, Note_on_c, 0, 72, 127
2, 467206, Note_off_c, 4, 52, 127
2, 467216, Note_on_c, 5, 53, 127
2, 467389, Note_off_c, 0, 72, 127
2, 467430, Note_off_c, 5, 53, 127
2, 467438, Note_on_c, 2, 50, 127
2, 467438, Note_on_c, 5, 77, 127
2, 467650, Note_off_c, 5, 77, 127
2, 467650, Note_off_c, 2, 50, 127
2, 467660, Note_on_c, 7, 55, 127
2, 467660, Note_on_c, 4, 76, 127
2, 467800, Note_off_c, 4, 76, 127
2, 467808, Note_on_c, 2, 74, 127
2, 467872, Note_off_c, 2, 74, 127
2, 467882, Note_on_c, 4, 76, 127
2, 467946, Note_off_c, 4, 76, 127
2, 467956, Note_on_c, 2, 74, 127
2, 468020, Note_off_c, 2, 74, 127
2, 468030, Note_on_c, 4, 76, 127
2, 468094, Note_off_c, 4, 76, 127
2, 468096, Note_off_c, 7, 55, 127
2, 468105, Note_on_c, 7, 43, 127
2, 468105, Note_on_c, 2, 74, 127
2, 468317, Note_off_c, 2, 74, 127
2, 468326, Note_on_c, 0, 72, 127
2, 468537, Note_off_c, 7, 43, 127
2, 468538, Note_off_c, 0, 72, 127
2, 468546, Note_on_c, 0, 48, 127
2, 468546, Note_on_c, 0, 72, 127
2, 468980, Note_off_c, 0, 48, 127
2, 468989, Note_on_c, 4, 52, 127
2, 469423, Note_off_c, 4, 52, 127
2, 469434, Note_on_c, 7, 55, 127
2, 469867, Note_off_c, 0, 72, 127
2, 469868, Note_off_c, 7, 55, 127
2, 469877, Note_on_c, 0, 60, 127
2, 469877, Note_on_c, 4, 76, 127
2, 470089, Note_off_c, 4, 76, 127
2, 470089, Note_off_c, 0, 60, 127
2, 470099, Note_on_c, 11, 58, 127
2, 470099, Note_on_c, 5, 77, 127
2, 470311, Note_off_c, 5, 77, 127
2, 470311, Note_off_c, 11, 58, 127
2, 470319, Note_on_c, 10, 57, 127
2, 470319, Note_on_c, 7, 79, 127
2, 470421, Note_off_c, 7, 79, 127
2, 470430, Note_on_c, 5, 77, 127
2, 470532, Note_off_c, 5, 77, 127
2, 470533, Note_off_c, 10, 57, 127
2, 470542, Note_on_c, 7, 55, 127
2, 470542, Note_on_c, 7, 79, 127
2, 470644, Note_off_c, 7, 79, 127
2, 470653, Note_on_c, 5, 77, 127
2, 470755, Note_off_c, 5, 77, 127
2, 470756, Note_off_c, 7, 55, 127
2, 470764, Note_on_c, 10, 57, 127
2, 470764, Note_on_c, 7, 79, 127
2, 470866, Note_off_c, 7, 79, 127
2, 470875, Note_on_c, 5, 77, 127
2, 470977, Note_off_c, 5, 77, 127
2, 470978, Note_off_c, 10, 57, 127
2, 470986, Note_on_c, 5, 53, 127
2, 470986, Note_on_c, 4, 76, 127
2, 471088, Note_off_c, 4, 76, 127
2, 471098, Note_on_c, 5, 77, 127
2, 471200, Note_off_c, 5, 77, 127
2, 471200, Note_off_c, 5, 53, 127
2, 471209, Note_on_c, 0, 60, 127
2, 471209, Note_on_c, 7, 79, 127
2, 471421, Note_off_c, 7, 79, 127
2, 471430, Note_on_c, 5, 77, 127
2, 471635, Note_off_c, 5, 77, 127
2, 471641, Note_off_c, 0, 60, 127
2, 471651, Note_on_c, 0, 48, 127
2, 471651, Note_on_c, 4, 76, 127
2, 471863, Note_off_c, 4, 76, 127
2, 471872, Note_on_c, 2, 74, 127
2, 472077, Note_off_c, 2, 74, 127
2, 472083, Note_off_c, 0, 48, 127
2, 472093, Note_on_c, 11, 46, 127
2, 472093, Note_on_c, 4, 76, 127
2, 472305, Note_off_c, 4, 76, 127
2, 472314, Note_on_c, 0, 72, 127
2, 472519, Note_off_c, 0, 72, 127
2, 472525, Note_off_c, 11, 46, 127
2, 472535, Note_on_c, 10, 45, 127
2, 472535, Note_on_c, 5, 77, 127
2, 472747, Note_off_c, 5, 77, 127
2, 472747, Note_off_c, 10, 45, 127
2, 472756, Note_on_c, 0, 48, 127
2, 472756, Note_on_c, 7, 79, 127
2, 472968, Note_off_c, 7, 79, 127
2, 472968, Note_off_c, 0, 48, 127
2, 472976, Note_on_c, 11, 46, 127
2, 472976, Note_on_c, 10, 81, 127
2, 473078, Note_off_c, 10, 81, 127
2, 473088, Note_on_c, 7, 79, 127
2, 473190, Note_off_c, 7, 79, 127
2, 473190, Note_off_c, 11, 46, 127
2, 473199, Note_on_c, 10, 45, 127
2, 473199, Note_on_c, 10, 81, 127
2, 473301, Note_off_c, 10, 81, 127
2, 473311, Note_on_c, 7, 79, 127
2, 473413, Note_off_c, 7, 79, 127
2, 473413, Note_off_c, 10, 45, 127
2, 473421, Note_on_c, 11, 46, 127
2, 473421, Note_on_c, 10, 81, 127
2, 473523, Note_off_c, 10, 81, 127
2, 473534, Note_on_c, 7, 79, 127
2, 473635, Note_off_c, 11, 46, 127
2, 473636, Note_off_c, 7, 79, 127
2, 473644, Note_on_c, 0, 48, 127
2, 473644, Note_on_c, 5, 77, 127
2, 473746, Note_off_c, 5, 77, 127
2, 473756, Note_on_c, 7, 79, 127
2, 473858, Note_off_c, 7, 79, 127
2, 473858, Note_off_c, 0, 48, 127
2, 473867, Note_on_c, 5, 41, 127
2, 473867, Note_on_c, 10, 81, 127
2, 474301, Note_off_c, 5, 41, 127
2, 474311, Note_on_c, 5, 53, 127
2, 474523, Note_off_c, 5, 53, 127
2, 474532, Note_on_c, 4, 52, 127
2, 474744, Note_off_c, 4, 52, 127
2, 474753, Note_on_c, 5, 53, 127
2, 474965, Note_off_c, 5, 53, 127
2, 474974, Note_on_c, 2, 50, 127
2, 475185, Note_off_c, 10, 81, 127
2, 475186, Note_off_c, 2, 50, 127
2, 475195, Note_on_c, 1, 49, 127
2, 475195, Note_on_c, 10, 69, 127
2, 475407, Note_off_c, 10, 69, 127
2, 475407, Note_off_c, 1, 49, 127
2, 475415, Note_on_c, 2, 50, 127
2, 475415, Note_on_c, 12, 71, 127
2, 475627, Note_off_c, 12, 71, 127
2, 475627, Note_off_c, 2, 50, 127
2, 475637, Note_on_c, 4, 52, 127
2, 475637, Note_on_c, 1, 73, 127
2, 475849, Note_off_c, 4, 52, 127
2, 475857, Note_on_c, 7, 55, 127
2, 475953, Note_off_c, 1, 73, 127
2, 476071, Note_off_c, 7, 55, 127
2, 476080, Note_on_c, 5, 53, 127
2, 476080, Note_on_c, 2, 74, 127
2, 476292, Note_off_c, 5, 53, 127
2, 476301, Note_on_c, 10, 57, 127
2, 476396, Note_off_c, 2, 74, 127
2, 476515, Note_off_c, 10, 57, 127
2, 476525, Note_on_c, 10, 45, 127
2, 476525, Note_on_c, 1, 73, 127
2, 476737, Note_off_c, 1, 73, 127
2, 476737, Note_off_c, 10, 45, 127
2, 476745, Note_on_c, 12, 47, 127
2, 476745, Note_on_c, 2, 74, 127
2, 476957, Note_off_c, 2, 74, 127
2, 476957, Note_off_c, 12, 47, 127
2, 476966, Note_on_c, 1, 49, 127
2, 476966, Note_on_c, 4, 76, 127
2, 477178, Note_off_c, 1, 49, 127
2, 477187, Note_on_c, 4, 52, 127
2, 477282, Note_off_c, 4, 76, 127
2, 477401, Note_off_c, 4, 52, 127
2, 477411, Note_on_c, 2, 50, 127
2, 477411, Note_on_c, 5, 77, 127
2, 477623, Note_off_c, 2, 50, 127
2, 477631, Note_on_c, 5, 53, 127
2, 477727, Note_off_c, 5, 77, 127
2, 477845, Note_off_c, 5, 53, 127
2, 477853, Note_on_c, 11, 46, 127
2, 477853, Note_on_c, 5, 77, 127
2, 478065, Note_off_c, 5, 77, 127
2, 478074, Note_on_c, 4, 76, 127
2, 478285, Note_off_c, 11, 46, 127
2, 478286, Note_off_c, 4, 76, 127
2, 478295, Note_on_c, 7, 43, 127
2, 478295, Note_on_c, 5, 77, 127
2, 478507, Note_off_c, 5, 77, 127
2, 478516, Note_on_c, 4, 76, 127
2, 478727, Note_off_c, 7, 43, 127
2, 478728, Note_off_c, 4, 76, 127
2, 478736, Note_on_c, 10, 45, 127
2, 478736, Note_on_c, 2, 74, 127
2, 478948, Note_off_c, 2, 74, 127
2, 478958, Note_on_c, 1, 73, 127
2, 479168, Note_off_c, 10, 45, 127
2, 479170, Note_off_c, 1, 73, 127
2, 479178, Note_on_c, 2, 38, 127
2, 479178, Note_on_c, 2, 74, 127
2, 479390, Note_off_c, 2, 38, 127
2, 479400, Note_on_c, 10, 45, 127
2, 479612, Note_off_c, 10, 45, 127
2, 479620, Note_on_c, 2, 50, 127
2, 479832, Note_off_c, 2, 50, 127
2, 479841, Note_on_c, 4, 52, 127
2, 480053, Note_off_c, 4, 52, 127
2, 480062, Note_on_c, 5, 53, 127
2, 480274, Note_off_c, 5, 53, 127
2, 480283, Note_on_c, 7, 55, 127
2, 480494, Note_off_c, 2, 74, 127
2, 480495, Note_off_c, 7, 55, 127
2, 480504, Note_on_c, 10, 57, 127
2, 480504, Note_on_c, 5, 77, 127
2, 480716, Note_off_c, 10, 57, 127
2, 480725, Note_on_c, 7, 55, 127
2, 480936, Note_off_c, 5, 77, 127
2, 480937, Note_off_c, 7, 55, 127
2, 480947, Note_on_c, 5, 53, 127
2, 480947, Note_on_c, 3, 75, 127
2, 481159, Note_off_c, 3, 75, 127
2, 481159, Note_off_c, 5, 53, 127
2, 481167, Note_on_c, 7, 55, 127
2, 481167, Note_on_c, 2, 74, 127
2, 481379, Note_off_c, 2, 74, 127
2, 481379, Note_off_c, 7, 55, 127
2, 481388, Note_on_c, 10, 57, 127
2, 481388, Note_on_c, 0, 72, 127
2, 481600, Note_off_c, 0, 72, 127
2, 481609, Note_on_c, 2, 74, 127
2, 481820, Note_off_c, 10, 57, 127
2, 481821, Note_off_c, 2, 74, 127
2, 481830, Note_on_c, 11, 58, 127
2, 481830, Note_on_c, 3, 75, 127
2, 482042, Note_off_c, 3, 75, 127
2, 482051, Note_on_c, 2, 74, 127
2, 482251, Note_off_c, 2, 74, 127
2, 482264, Note_off_c, 11, 58, 127
2, 482274, Note_on_c, 11, 46, 127
2, 482274, Note_on_c, 0, 72, 127
2, 482486, Note_off_c, 0, 72, 127
2, 482486, Note_off_c, 11, 46, 127
2, 482495, Note_on_c, 5, 53, 127
2, 482495, Note_on_c, 11, 70, 127
2, 482695, Note_off_c, 11, 70, 127
2, 482709, Note_off_c, 5, 53, 127
2, 482717, Note_on_c, 7, 55, 127
2, 482717, Note_on_c, 2, 74, 127
2, 482929, Note_off_c, 7, 55, 127
2, 482938, Note_on_c, 10, 57, 127
2, 483033, Note_off_c, 2, 74, 127
2, 483152, Note_off_c, 10, 57, 127
2, 483161, Note_on_c, 11, 58, 127
2, 483161, Note_on_c, 7, 79, 127
2, 483373, Note_off_c, 11, 58, 127
2, 483383, Note_on_c, 10, 57, 127
2, 483593, Note_off_c, 7, 79, 127
2, 483595, Note_off_c, 10, 57, 127
2, 483603, Note_on_c, 7, 55, 127
2, 483603, Note_on_c, 5, 77, 127
2, 483815, Note_off_c, 5, 77, 127
2, 483815, Note_off_c, 7, 55, 127
2, 483823, Note_on_c, 10, 57, 127
2, 483823, Note_on_c, 4, 76, 127
2, 484035, Note_off_c, 4, 76, 127
2, 484035, Note_off_c, 10, 57, 127
2, 484045, Note_on_c, 12, 59, 127
2, 484045, Note_on_c, 2, 74, 127
2, 484257, Note_off_c, 2, 74, 127
2, 484266, Note_on_c, 4, 76, 127
2, 484477, Note_off_c, 12, 59, 127
2, 484478, Note_off_c, 4, 76, 127
2, 484487, Note_on_c, 0, 60, 127
2, 484487, Note_on_c, 5, 77, 127
2, 484699, Note_off_c, 5, 77, 127
2, 484707, Note_on_c, 4, 76, 127
2, 484907, Note_off_c, 4, 76, 127
2, 484921, Note_off_c, 0, 60, 127
2, 484931, Note_on_c, 0, 48, 127
2, 484931, Note_on_c, 2, 74, 127
2, 485143, Note_off_c, 2, 74, 127
2, 485143, Note_off_c, 0, 48, 127
2, 485152, Note_on_c, 2, 62, 127
2, 485152, Note_on_c, 0, 72, 127
2, 485352, Note_off_c, 0, 72, 127
2, 485366, Note_off_c, 2, 62, 127
2, 485374, Note_on_c, 0, 60, 127
2, 485374, Note_on_c, 2, 74, 127
2, 485586, Note_off_c, 2, 74, 127
2, 485586, Note_off_c, 0, 60, 127
2, 485595, Note_on_c, 11, 58, 127
2, 485595, Note_on_c, 4, 76, 127
2, 485782, Note_off_c, 4, 76, 127
2, 485807, Note_off_c, 11, 58, 127
2, 485816, Note_on_c, 10, 57, 127
2, 485816, Note_on_c, 5, 77, 127
2, 486028, Note_off_c, 5, 77, 127
2, 486028, Note_off_c, 10, 57, 127
2, 486037, Note_on_c, 11, 58, 127
2, 486037, Note_on_c, 7, 79, 127
2, 486249, Note_off_c, 7, 79, 127
2, 486249, Note_off_c, 11, 58, 127
2, 486258, Note_on_c, 10, 57, 127
2, 486258, Note_on_c, 10, 81, 127
2, 486360, Note_off_c, 10, 81, 127
2, 486370, Note_on_c, 7, 79, 127
2, 486472, Note_off_c, 7, 79, 127
2, 486472, Note_off_c, 10, 57, 127
2, 486481, Note_on_c, 7, 55, 127
2, 486481, Note_on_c, 10, 81, 127
2, 486583, Note_off_c, 10, 81, 127
2, 486592, Note_on_c, 7, 79, 127
2, 486694, Note_off_c, 7, 79, 127
2, 486695, Note_off_c, 7, 55, 127
2, 486704, Note_on_c, 5, 53, 127
2, 486704, Note_on_c, 10, 81, 127
2, 486806, Note_off_c, 10, 81, 127
2, 486814, Note_on_c, 7, 79, 127
2, 486916, Note_off_c, 7, 79, 127
2, 486918, Note_off_c, 5, 53, 127
2, 486927, Note_on_c, 4, 52, 127
2, 486927, Note_on_c, 5, 77, 127
2, 487029, Note_off_c, 5, 77, 127
2, 487036, Note_on_c, 7, 79, 127
2, 487138, Note_off_c, 7, 79, 127
2, 487141, Note_off_c, 4, 52, 127
2, 487148, Note_on_c, 5, 53, 127
2, 487148, Note_on_c, 10, 81, 127
2, 487360, Note_off_c, 10, 81, 127
2, 487360, Note_off_c, 5, 53, 127
2, 487369, Note_on_c, 7, 55, 127
2, 487369, Note_on_c, 11, 82, 127
2, 487581, Note_off_c, 11, 82, 127
2, 487581, Note_off_c, 7, 55, 127
2, 487590, Note_on_c, 5, 53, 127
2, 487590, Note_on_c, 0, 84, 127
2, 487802, Note_off_c, 5, 53, 127
2, 487810, Note_on_c, 4, 52, 127
2, 488022, Note_off_c, 4, 52, 127
2, 488032, Note_on_c, 2, 50, 127
2, 488032, Note_on_c, 0, 72, 127
2, 488244, Note_off_c, 2, 50, 127
2, 488249, Note_off_c, 0, 84, 127
2, 488252, Note_on_c, 0, 48, 127
2, 488348, Note_off_c, 0, 72, 127
2, 488466, Note_off_c, 0, 48, 127
2, 488476, Note_on_c, 11, 46, 127
2, 488476, Note_on_c, 2, 74, 127
2, 488688, Note_off_c, 11, 46, 127
2, 488696, Note_on_c, 10, 45, 127
2, 488908, Note_off_c, 10, 45, 127
2, 488908, Note_off_c, 2, 74, 127
2, 488917, Note_on_c, 7, 43, 127
2, 488917, Note_on_c, 4, 76, 127
2, 489019, Note_off_c, 4, 76, 127
2, 489029, Note_on_c, 5, 77, 127
2, 489131, Note_off_c, 5, 77, 127
2, 489139, Note_on_c, 7, 79, 127
2, 489351, Note_off_c, 7, 79, 127
2, 489351, Note_off_c, 7, 43, 127
2, 489362, Note_on_c, 0, 48, 127
2, 489362, Note_on_c, 5, 77, 127
2, 489574, Note_off_c, 5, 77, 127
2, 489582, Note_on_c, 4, 76, 127
2, 489794, Note_off_c, 4, 76, 127
2, 489794, Note_off_c, 0, 48, 127
2, 489803, Note_on_c, 5, 41, 127
2, 489803, Note_on_c, 5, 77, 127
2, 490237, Note_off_c, 5, 41, 127
2, 490246, Note_on_c, 0, 48, 127
2, 490680, Note_off_c, 0, 48, 127
2, 490681, Note_off_c, 5, 77, 127
2, 490690, Note_on_c, 5, 53, 127
2, 491124, Note_off_c, 5, 53, 127
2, 491133, Note_on_c, 2, 50, 127
2, 491133, Note_on_c, 5, 77, 127
2, 491345, Note_off_c, 2, 50, 127
2, 491355, Note_on_c, 10, 57, 127
2, 491565, Note_off_c, 5, 77, 127
2, 491567, Note_off_c, 10, 57, 127
2, 491575, Note_on_c, 4, 52, 127
2, 491575, Note_on_c, 4, 76, 127
2, 491787, Note_off_c, 4, 52, 127
2, 491797, Note_on_c, 10, 57, 127
2, 492007, Note_off_c, 4, 76, 127
2, 492009, Note_off_c, 10, 57, 127
2, 492018, Note_on_c, 5, 53, 127
2, 492018, Note_on_c, 2, 74, 127
2, 492230, Note_off_c, 5, 53, 127
2, 492238, Note_on_c, 10, 57, 127
2, 492450, Note_off_c, 10, 57, 127
2, 492450, Note_off_c, 2, 74, 127
2, 492460, Note_on_c, 7, 55, 127
2, 492460, Note_on_c, 2, 74, 127
2, 492672, Note_off_c, 2, 74, 127
2, 492674, Note_off_c, 7, 55, 127
2, 492681, Note_on_c, 10, 57, 127
2, 492681, Note_on_c, 1, 73, 127
2, 492745, Note_off_c, 1, 73, 127
2, 492757, Note_on_c, 2, 74, 127
2, 492821, Note_off_c, 2, 74, 127
2, 492831, Note_on_c, 1, 73, 127
2, 492892, Note_off_c, 1, 73, 127
2, 492895, Note_off_c, 10, 57, 127
2, 492905, Note_on_c, 5, 53, 127
2, 492905, Note_on_c, 1, 73, 127
2, 493117, Note_off_c, 5, 53, 127
2, 493126, Note_on_c, 10, 57, 127
2, 493337, Note_off_c, 1, 73, 127
2, 493338, Note_off_c, 10, 57, 127
2, 493347, Note_on_c, 4, 52, 127
2, 493347, Note_on_c, 2, 74, 127
2, 493559, Note_off_c, 4, 52, 127
2, 493567, Note_on_c, 10, 57, 127
2, 493779, Note_off_c, 10, 57, 127
2, 493779, Note_off_c, 2, 74, 127
2, 493790, Note_on_c, 5, 53, 127
2, 493790, Note_on_c, 10, 69, 127
2, 494002, Note_off_c, 5, 53, 127
2, 494010, Note_on_c, 10, 57, 127
2, 494222, Note_off_c, 10, 57, 127
2, 494222, Note_off_c, 10, 69, 127
2, 494230, Note_on_c, 7, 55, 127
2, 494230, Note_on_c, 11, 70, 127
2, 494442, Note_off_c, 11, 70, 127
2, 494442, Note_off_c, 7, 55, 127
2, 494451, Note_on_c, 5, 53, 127
2, 494451, Note_on_c, 10, 69, 127
2, 494663, Note_off_c, 10, 69, 127
2, 494663, Note_off_c, 5, 53, 127
2, 494673, Note_on_c, 4, 52, 127
2, 494673, Note_on_c, 7, 67, 127
2, 494885, Note_off_c, 7, 67, 127
2, 494885, Note_off_c, 4, 52, 127
2, 494894, Note_on_c, 2, 50, 127
2, 494894, Note_on_c, 11, 70, 127
2, 495106, Note_off_c, 11, 70, 127
2, 495106, Note_off_c, 2, 50, 127
2, 495114, Note_on_c, 2, 50, 127
2, 495114, Note_on_c, 10, 69, 127
2, 495216, Note_off_c, 2, 50, 127
2, 495225, Note_on_c, 1, 49, 127
2, 495327, Note_off_c, 1, 49, 127
2, 495337, Note_on_c, 2, 50, 127
2, 495439, Note_off_c, 2, 50, 127
2, 495448, Note_on_c, 1, 49, 127
2, 495550, Note_off_c, 1, 49, 127
2, 495550, Note_off_c, 10, 69, 127
2, 495560, Note_on_c, 2, 50, 127
2, 495560, Note_on_c, 7, 67, 127
2, 495772, Note_off_c, 7, 67, 127
2, 495781, Note_on_c, 5, 65, 127
2, 495993, Note_off_c, 5, 65, 127
2, 496001, Note_on_c, 4, 64, 127
2, 496213, Note_off_c, 4, 64, 127
2, 496215, Note_off_c, 2, 50, 127
2, 496221, Note_on_c, 2, 62, 127
2, 496433, Note_off_c, 2, 62, 127
2, 496443, Note_on_c, 2, 50, 127
2, 496443, Note_on_c, 5, 77, 127
2, 496655, Note_off_c, 2, 50, 127
2, 496663, Note_on_c, 2, 62, 127
2, 496875, Note_off_c, 2, 62, 127
2, 496875, Note_off_c, 5, 77, 127
2, 496885, Note_on_c, 4, 52, 127
2, 496885, Note_on_c, 4, 76, 127
2, 497097, Note_off_c, 4, 52, 127
2, 497106, Note_on_c, 2, 62, 127
2, 497317, Note_off_c, 4, 76, 127
2, 497318, Note_off_c, 2, 62, 127
2, 497327, Note_on_c, 5, 53, 127
2, 497327, Note_on_c, 2, 74, 127
2, 497539, Note_off_c, 5, 53, 127
2, 497548, Note_on_c, 2, 62, 127
2, 497759, Note_off_c, 2, 74, 127
2, 497760, Note_off_c, 2, 62, 127
2, 497769, Note_on_c, 7, 55, 127
2, 497769, Note_on_c, 11, 82, 127
2, 497990, Note_on_c, 2, 62, 127
2, 498201, Note_off_c, 11, 82, 127
2, 498202, Note_off_c, 2, 62, 127
2, 498210, Note_on_c, 1, 61, 127
2, 498210, Note_on_c, 10, 81, 127
2, 498422, Note_off_c, 1, 61, 127
2, 498432, Note_on_c, 10, 57, 127
2, 498644, Note_off_c, 10, 57, 127
2, 498644, Note_off_c, 7, 55, 127
2, 498652, Note_on_c, 2, 62, 127
2, 498874, Note_on_c, 5, 53, 127
2, 499082, Note_off_c, 2, 62, 127
2, 499086, Note_off_c, 5, 53, 127
2, 499094, Note_on_c, 11, 58, 127
2, 499316, Note_on_c, 1, 61, 127
2, 499526, Note_off_c, 10, 81, 127
2, 499528, Note_off_c, 1, 61, 127
2, 499537, Note_on_c, 2, 62, 127
2, 499537, Note_on_c, 7, 79, 127
2, 499749, Note_off_c, 7, 79, 127
2, 499749, Note_off_c, 2, 62, 127
2, 499757, Note_on_c, 4, 64, 127
2, 499757, Note_on_c, 5, 77, 127
2, 499969, Note_off_c, 5, 77, 127
2, 499969, Note_off_c, 4, 64, 127
2, 499979, Note_on_c, 5, 65, 127
2, 499979, Note_on_c, 4, 76, 127
2, 500191, Note_off_c, 4, 76, 127
2, 500191, Note_off_c, 5, 65, 127
2, 500199, Note_on_c, 7, 67, 127
2, 500199, Note_on_c, 2, 74, 127
2, 500410, Note_off_c, 11, 58, 127
2, 500411, Note_off_c, 7, 67, 127
2, 500413, Note_off_c, 2, 74, 127
2, 500423, Note_on_c, 2, 74, 127
2, 500423, Note_on_c, 10, 69, 127
2, 500643, Note_on_c, 5, 65, 127
2, 500853, Note_off_c, 2, 74, 127
2, 500855, Note_off_c, 5, 65, 127
2, 500864, Note_on_c, 4, 64, 127
2, 500864, Note_on_c, 1, 73, 127
2, 500928, Note_off_c, 1, 73, 127
2, 500939, Note_on_c, 2, 74, 127
2, 501003, Note_off_c, 2, 74, 127
2, 501013, Note_on_c, 1, 73, 127
2, 501077, Note_off_c, 1, 73, 127
2, 501078, Note_off_c, 4, 64, 127
2, 501086, Note_on_c, 2, 62, 127
2, 501086, Note_on_c, 2, 74, 127
2, 501150, Note_off_c, 2, 74, 127
2, 501161, Note_on_c, 1, 73, 127
2, 501225, Note_off_c, 1, 73, 127
2, 501236, Note_on_c, 2, 74, 127
2, 501300, Note_off_c, 2, 74, 127
2, 501300, Note_off_c, 2, 62, 127
2, 501310, Note_on_c, 1, 61, 127
2, 501310, Note_on_c, 1, 73, 127
2, 501522, Note_off_c, 1, 61, 127
2, 501531, Note_on_c, 12, 59, 127
2, 501695, Note_off_c, 1, 73, 127
2, 501743, Note_off_c, 10, 69, 127
2, 501745, Note_off_c, 12, 59, 127
2, 501754, Note_on_c, 10, 57, 127
2, 501754, Note_on_c, 4, 76, 127
2, 501754, Note_on_c, 1, 73, 127
2, 501966, Note_off_c, 10, 57, 127
2, 501974, Note_on_c, 11, 58, 127
2, 502186, Note_off_c, 11, 58, 127
2, 502186, Note_off_c, 4, 76, 127
2, 502195, Note_on_c, 10, 57, 127
2, 502195, Note_on_c, 5, 77, 127
2, 502407, Note_off_c, 5, 77, 127
2, 502407, Note_off_c, 10, 57, 127
2, 502416, Note_on_c, 7, 55, 127
2, 502416, Note_on_c, 4, 76, 127
2, 502628, Note_off_c, 4, 76, 127
2, 502628, Note_off_c, 7, 55, 127
2, 502637, Note_on_c, 5, 53, 127
2, 502637, Note_on_c, 2, 74, 127
2, 502849, Note_off_c, 2, 74, 127
2, 502849, Note_off_c, 5, 53, 127
2, 502858, Note_on_c, 4, 52, 127
2, 502858, Note_on_c, 4, 76, 127
2, 503070, Note_off_c, 1, 73, 127
2, 503072, Note_off_c, 4, 76, 127
2, 503072, Note_off_c, 4, 52, 127
2, 503081, Note_on_c, 2, 50, 127
2, 503081, Note_on_c, 5, 77, 127
2, 503293, Note_off_c, 2, 50, 127
2, 503302, Note_on_c, 4, 52, 127
2, 503513, Note_off_c, 5, 77, 127
2, 503514, Note_off_c, 4, 52, 127
2, 503522, Note_on_c, 5, 53, 127
2, 503522, Note_on_c, 11, 70, 127
2, 503734, Note_off_c, 5, 53, 127
2, 503744, Note_on_c, 7, 55, 127
2, 503956, Note_off_c, 7, 55, 127
2, 503965, Note_on_c, 10, 57, 127
2, 504177, Note_off_c, 10, 57, 127
2, 504185, Note_on_c, 11, 58, 127
2, 504397, Note_off_c, 11, 58, 127
2, 504406, Note_on_c, 0, 60, 127
2, 504627, Note_on_c, 4, 52, 127
2, 504838, Note_off_c, 11, 70, 127
2, 504839, Note_off_c, 4, 52, 127
2, 504849, Note_on_c, 5, 53, 127
2, 504849, Note_on_c, 10, 69, 127
2, 505061, Note_off_c, 10, 69, 127
2, 505061, Note_off_c, 5, 53, 127
2, 505069, Note_on_c, 4, 52, 127
2, 505069, Note_on_c, 7, 67, 127
2, 505281, Note_off_c, 7, 67, 127
2, 505281, Note_off_c, 4, 52, 127
2, 505291, Note_on_c, 5, 53, 127
2, 505291, Note_on_c, 10, 69, 127
2, 505503, Note_off_c, 10, 69, 127
2, 505503, Note_off_c, 5, 53, 127
2, 505512, Note_on_c, 2, 50, 127
2, 505512, Note_on_c, 5, 65, 127
2, 505722, Note_off_c, 0, 60, 127
2, 505726, Note_off_c, 5, 65, 127
2, 505726, Note_off_c, 2, 50, 127
2, 505735, Note_on_c, 4, 52, 127
2, 505735, Note_on_c, 7, 67, 127
2, 505947, Note_off_c, 4, 52, 127
2, 505955, Note_on_c, 5, 53, 127
2, 506167, Note_off_c, 5, 53, 127
2, 506167, Note_off_c, 7, 67, 127
2, 506175, Note_on_c, 4, 52, 127
2, 506175, Note_on_c, 0, 60, 127
2, 506387, Note_off_c, 4, 52, 127
2, 506398, Note_on_c, 2, 50, 127
2, 506607, Note_off_c, 0, 60, 127
2, 506610, Note_off_c, 2, 50, 127
2, 506618, Note_on_c, 0, 48, 127
2, 506618, Note_on_c, 0, 72, 127
2, 506830, Note_off_c, 0, 48, 127
2, 506839, Note_on_c, 11, 46, 127
2, 507051, Note_off_c, 11, 46, 127
2, 507059, Note_on_c, 10, 45, 127
2, 507282, Note_on_c, 11, 46, 127
2, 507493, Note_off_c, 0, 72, 127
2, 507494, Note_off_c, 11, 46, 127
2, 507502, Note_on_c, 0, 48, 127
2, 507502, Note_on_c, 11, 70, 127
2, 507714, Note_off_c, 11, 70, 127
2, 507722, Note_on_c, 10, 69, 127
2, 507934, Note_off_c, 10, 69, 127
2, 507934, Note_off_c, 0, 48, 127
2, 507944, Note_on_c, 5, 53, 127
2, 507944, Note_on_c, 7, 67, 127
2, 508156, Note_off_c, 7, 67, 127
2, 508165, Note_on_c, 5, 65, 127
2, 508375, Note_off_c, 10, 45, 127
2, 508379, Note_off_c, 5, 65, 127
2, 508387, Note_on_c, 11, 46, 127
2, 508387, Note_on_c, 3, 75, 127
2, 508600, Note_off_c, 5, 53, 127
2, 508607, Note_on_c, 7, 55, 127
2, 508819, Note_off_c, 7, 55, 127
2, 508829, Note_on_c, 5, 53, 127
2, 508829, Note_on_c, 2, 74, 127
2, 508830, Note_off_c, 3, 75, 127
2, 508893, Note_off_c, 2, 74, 127
2, 508903, Note_on_c, 3, 75, 127
2, 508967, Note_off_c, 3, 75, 127
2, 508977, Note_on_c, 2, 74, 127
2, 509041, Note_off_c, 2, 74, 127
2, 509043, Note_off_c, 5, 53, 127
2, 509051, Note_on_c, 3, 51, 127
2, 509051, Note_on_c, 3, 75, 127
2, 509115, Note_off_c, 3, 75, 127
2, 509125, Note_on_c, 2, 74, 127
2, 509189, Note_off_c, 2, 74, 127
2, 509199, Note_on_c, 3, 75, 127
2, 509263, Note_off_c, 3, 75, 127
2, 509265, Note_off_c, 3, 51, 127
2, 509274, Note_on_c, 2, 50, 127
2, 509274, Note_on_c, 2, 74, 127
2, 509486, Note_off_c, 2, 50, 127
2, 509495, Note_on_c, 0, 48, 127
2, 509707, Note_off_c, 11, 46, 127
2, 509709, Note_off_c, 0, 48, 127
2, 509718, Note_on_c, 12, 47, 127
2, 509939, Note_on_c, 0, 48, 127
2, 510151, Note_off_c, 0, 48, 127
2, 510151, Note_off_c, 2, 74, 127
2, 510159, Note_on_c, 2, 50, 127
2, 510159, Note_on_c, 0, 72, 127
2, 510371, Note_off_c, 0, 72, 127
2, 510380, Note_on_c, 12, 71, 127
2, 510591, Note_off_c, 2, 50, 127
2, 510592, Note_off_c, 12, 71, 127
2, 510601, Note_on_c, 7, 55, 127
2, 510601, Note_on_c, 10, 69, 127
2, 510813, Note_off_c, 10, 69, 127
2, 510823, Note_on_c, 7, 67, 127
2, 511034, Note_off_c, 12, 47, 127
2, 511037, Note_off_c, 7, 67, 127
2, 511045, Note_on_c, 0, 48, 127
2, 511045, Note_on_c, 5, 77, 127
2, 511257, Note_off_c, 7, 55, 127
2, 511266, Note_on_c, 10, 57, 127
2, 511368, Note_off_c, 5, 77, 127
2, 511378, Note_on_c, 4, 76, 127
2, 511480, Note_off_c, 4, 76, 127
2, 511480, Note_off_c, 10, 57, 127
2, 511488, Note_on_c, 7, 55, 127
2, 511488, Note_on_c, 2, 74, 127
2, 511543, Note_off_c, 2, 74, 127
2, 511552, Note_on_c, 4, 76, 127
2, 511607, Note_off_c, 4, 76, 127
2, 511618, Note_on_c, 5, 77, 127
2, 511673, Note_off_c, 5, 77, 127
2, 511682, Note_on_c, 4, 76, 127
2, 511705, Note_off_c, 7, 55, 127
2, 511714, Note_on_c, 5, 53, 127
2, 511737, Note_off_c, 4, 76, 127
2, 511747, Note_on_c, 5, 77, 127
2, 511802, Note_off_c, 5, 77, 127
2, 511812, Note_on_c, 4, 76, 127
2, 511867, Note_off_c, 4, 76, 127
2, 511875, Note_on_c, 5, 77, 127
2, 511929, Note_off_c, 5, 53, 127
2, 511930, Note_off_c, 5, 77, 127
2, 511939, Note_on_c, 4, 52, 127
2, 511939, Note_on_c, 4, 76, 127
2, 512151, Note_off_c, 4, 52, 127
2, 512160, Note_on_c, 2, 50, 127
2, 512371, Note_off_c, 0, 48, 127
2, 512374, Note_off_c, 2, 50, 127
2, 512382, Note_on_c, 0, 48, 127
2, 512487, Note_off_c, 4, 76, 127
2, 512596, Note_off_c, 0, 48, 127
2, 512604, Note_on_c, 4, 52, 127
2, 512604, Note_on_c, 7, 79, 127
2, 512816, Note_off_c, 7, 79, 127
2, 512816, Note_off_c, 4, 52, 127
2, 512825, Note_on_c, 2, 50, 127
2, 512825, Note_on_c, 5, 77, 127
2, 513037, Note_off_c, 5, 77, 127
2, 513037, Note_off_c, 2, 50, 127
2, 513047, Note_on_c, 0, 48, 127
2, 513047, Note_on_c, 4, 76, 127
2, 513259, Note_off_c, 4, 76, 127
2, 513259, Note_off_c, 0, 48, 127
2, 513267, Note_on_c, 11, 46, 127
2, 513267, Note_on_c, 2, 74, 127
2, 513479, Note_off_c, 2, 74, 127
2, 513479, Note_off_c, 11, 46, 127
2, 513487, Note_on_c, 10, 45, 127
2, 513487, Note_on_c, 0, 72, 127
2, 513699, Note_off_c, 0, 72, 127
2, 513699, Note_off_c, 10, 45, 127
2, 513710, Note_on_c, 7, 43, 127
2, 513710, Note_on_c, 11, 82, 127
2, 513922, Note_off_c, 7, 43, 127
2, 513930, Note_on_c, 2, 50, 127
2, 514142, Note_off_c, 2, 50, 127
2, 514142, Note_off_c, 11, 82, 127
2, 514151, Note_on_c, 4, 52, 127
2, 514151, Note_on_c, 10, 81, 127
2, 514363, Note_off_c, 10, 81, 127
2, 514363, Note_off_c, 4, 52, 127
2, 514372, Note_on_c, 0, 48, 127
2, 514372, Note_on_c, 7, 79, 127
2, 514584, Note_off_c, 7, 79, 127
2, 514584, Note_off_c, 0, 48, 127
2, 514594, Note_on_c, 5, 53, 127
2, 514594, Note_on_c, 10, 81, 127
2, 514806, Note_off_c, 10, 81, 127
2, 514806, Note_off_c, 5, 53, 127
2, 514814, Note_on_c, 10, 45, 127
2, 514814, Note_on_c, 5, 77, 127
2, 515026, Note_off_c, 5, 77, 127
2, 515026, Note_off_c, 10, 45, 127
2, 515034, Note_on_c, 11, 46, 127
2, 515034, Note_on_c, 2, 74, 127
2, 515246, Note_off_c, 11, 46, 127
2, 515256, Note_on_c, 2, 50, 127
2, 515466, Note_off_c, 2, 74, 127
2, 515468, Note_off_c, 2, 50, 127
2, 515477, Note_on_c, 7, 43, 127
2, 515477, Note_on_c, 7, 79, 127
2, 515477, Note_on_c, 11, 70, 127
2, 515689, Note_off_c, 7, 43, 127
2, 515698, Note_on_c, 11, 46, 127
2, 515909, Note_off_c, 11, 70, 127
2, 515909, Note_off_c, 7, 79, 127
2, 515910, Note_off_c, 11, 46, 127
2, 515918, Note_on_c, 0, 48, 127
2, 515918, Note_on_c, 4, 76, 127
2, 515918, Note_on_c, 7, 67, 127
2, 516130, Note_off_c, 0, 48, 127
2, 516141, Note_on_c, 0, 36, 127
2, 516350, Note_off_c, 7, 67, 127
2, 516350, Note_off_c, 4, 76, 127
2, 516353, Note_off_c, 0, 36, 127
2, 516361, Note_on_c, 5, 41, 127
2, 516361, Note_on_c, 10, 69, 127
2, 516361, Note_on_c, 5, 77, 127
2, 516573, Note_off_c, 5, 41, 127
2, 516581, Note_on_c, 10, 45, 127
2, 516793, Note_off_c, 10, 45, 127
2, 516803, Note_on_c, 11, 46, 127
2, 517015, Note_off_c, 11, 46, 127
2, 517024, Note_on_c, 0, 48, 127
2, 517236, Note_off_c, 0, 48, 127
2, 517236, Note_off_c, 10, 69, 127
2, 517245, Note_on_c, 2, 50, 127
2, 517457, Note_off_c, 2, 50, 127
2, 517465, Note_on_c, 4, 52, 127
2, 517677, Note_off_c, 4, 52, 127
2, 517677, Note_off_c, 5, 77, 127
2, 517687, Note_on_c, 5, 53, 127
2, 517687, Note_on_c, 10, 69, 127
2, 517899, Note_off_c, 5, 53, 127
2, 517908, Note_on_c, 10, 57, 127
2, 518119, Note_off_c, 10, 69, 127
2, 518120, Note_off_c, 10, 57, 127
2, 518129, Note_on_c, 7, 55, 127
2, 518129, Note_on_c, 0, 72, 127
2, 518231, Note_off_c, 0, 72, 127
2, 518241, Note_on_c, 12, 71, 127
2, 518343, Note_off_c, 12, 71, 127
2, 518343, Note_off_c, 7, 55, 127
2, 518351, Note_on_c, 5, 53, 127
2, 518351, Note_on_c, 10, 69, 127
2, 518453, Note_off_c, 10, 69, 127
2, 518463, Note_on_c, 12, 71, 127
2, 518565, Note_off_c, 12, 71, 127
2, 518565, Note_off_c, 5, 53, 127
2, 518573, Note_on_c, 4, 52, 127
2, 518573, Note_on_c, 0, 72, 127
2, 518785, Note_off_c, 4, 52, 127
2, 518795, Note_on_c, 2, 50, 127
2, 518958, Note_off_c, 0, 72, 127
2, 519009, Note_off_c, 2, 50, 127
2, 519017, Note_on_c, 7, 55, 127
2, 519017, Note_on_c, 12, 71, 127
2, 519229, Note_off_c, 7, 55, 127
2, 519239, Note_on_c, 5, 53, 127
2, 519333, Note_off_c, 12, 71, 127
2, 519453, Note_off_c, 5, 53, 127
2, 519461, Note_on_c, 4, 52, 127
2, 519461, Note_on_c, 7, 79, 127
2, 519673, Note_off_c, 4, 52, 127
2, 519683, Note_on_c, 2, 50, 127
2, 519895, Note_off_c, 2, 50, 127
2, 519903, Note_on_c, 1, 49, 127
2, 520115, Note_off_c, 1, 49, 127
2, 520124, Note_on_c, 12, 47, 127
2, 520336, Note_off_c, 12, 47, 127
2, 520345, Note_on_c, 1, 49, 127
2, 520567, Note_on_c, 4, 52, 127
2, 520775, Note_off_c, 1, 49, 127
2, 520777, Note_off_c, 7, 79, 127
2, 520779, Note_off_c, 4, 52, 127
2, 520787, Note_on_c, 2, 50, 127
2, 520787, Note_on_c, 10, 57, 127
2, 520787, Note_on_c, 5, 77, 127
2, 520999, Note_off_c, 5, 77, 127
2, 521008, Note_on_c, 4, 76, 127
2, 521219, Note_off_c, 10, 57, 127
2, 521219, Note_off_c, 2, 50, 127
2, 521220, Note_off_c, 4, 76, 127
2, 521230, Note_on_c, 7, 55, 127
2, 521230, Note_on_c, 11, 46, 127
2, 521230, Note_on_c, 5, 77, 127
2, 521442, Note_off_c, 5, 77, 127
2, 521450, Note_on_c, 2, 74, 127
2, 521662, Note_off_c, 2, 74, 127
2, 521662, Note_off_c, 11, 46, 127
2, 521662, Note_off_c, 7, 55, 127
2, 521671, Note_on_c, 10, 45, 127
2, 521671, Note_on_c, 4, 76, 127
2, 521892, Note_on_c, 10, 57, 127
2, 522056, Note_off_c, 10, 45, 127
2, 522105, Note_off_c, 4, 76, 127
2, 522116, Note_on_c, 12, 47, 127
2, 522116, Note_on_c, 2, 74, 127
2, 522323, Note_off_c, 10, 57, 127
2, 522328, Note_off_c, 2, 74, 127
2, 522328, Note_off_c, 12, 47, 127
2, 522336, Note_on_c, 10, 57, 127
2, 522336, Note_on_c, 1, 73, 127
2, 522548, Note_off_c, 1, 73, 127
2, 522557, Note_on_c, 1, 49, 127
2, 522557, Note_on_c, 12, 71, 127
2, 522652, Note_off_c, 10, 57, 127
2, 522757, Note_off_c, 1, 49, 127
2, 522771, Note_off_c, 12, 71, 127
2, 522779, Note_on_c, 10, 57, 127
2, 522779, Note_on_c, 10, 69, 127
2, 522943, Note_off_c, 10, 69, 127
2, 523000, Note_on_c, 2, 50, 127
2, 523000, Note_on_c, 5, 77, 127
2, 523019, Note_off_c, 10, 57, 127
2, 523212, Note_off_c, 2, 50, 127
2, 523222, Note_on_c, 10, 57, 127
2, 523432, Note_off_c, 5, 77, 127
2, 523434, Note_off_c, 10, 57, 127
2, 523442, Note_on_c, 4, 52, 127
2, 523442, Note_on_c, 4, 76, 127
2, 523654, Note_off_c, 4, 52, 127
2, 523663, Note_on_c, 10, 57, 127
2, 523874, Note_off_c, 4, 76, 127
2, 523875, Note_off_c, 10, 57, 127
2, 523884, Note_on_c, 5, 53, 127
2, 523884, Note_on_c, 2, 74, 127
2, 524096, Note_off_c, 5, 53, 127
2, 524106, Note_on_c, 10, 57, 127
2, 524316, Note_off_c, 2, 74, 127
2, 524318, Note_off_c, 10, 57, 127
2, 524326, Note_on_c, 7, 55, 127
2, 524326, Note_on_c, 2, 74, 127
2, 524538, Note_off_c, 2, 74, 127
2, 524540, Note_off_c, 7, 55, 127
2, 524547, Note_on_c, 10, 57, 127
2, 524547, Note_on_c, 1, 73, 127
2, 524611, Note_off_c, 1, 73, 127
2, 524623, Note_on_c, 2, 74, 127
2, 524687, Note_off_c, 2, 74, 127
2, 524696, Note_on_c, 1, 73, 127
2, 524757, Note_off_c, 1, 73, 127
2, 524761, Note_off_c, 10, 57, 127
2, 524771, Note_on_c, 5, 53, 127
2, 524771, Note_on_c, 1, 73, 127
2, 524983, Note_off_c, 5, 53, 127
2, 524991, Note_on_c, 10, 57, 127
2, 525203, Note_off_c, 10, 57, 127
2, 525203, Note_off_c, 1, 73, 127
2, 525212, Note_on_c, 4, 52, 127
2, 525212, Note_on_c, 2, 74, 127
2, 525424, Note_off_c, 4, 52, 127
2, 525433, Note_on_c, 10, 57, 127
2, 525644, Note_off_c, 2, 74, 127
2, 525645, Note_off_c, 10, 57, 127
2, 525655, Note_on_c, 5, 53, 127
2, 525655, Note_on_c, 10, 69, 127
2, 525867, Note_off_c, 5, 53, 127
2, 525875, Note_on_c, 10, 57, 127
2, 526087, Note_off_c, 10, 57, 127
2, 526087, Note_off_c, 10, 69, 127
2, 526097, Note_on_c, 7, 55, 127
2, 526097, Note_on_c, 11, 70, 127
2, 526309, Note_off_c, 11, 70, 127
2, 526309, Note_off_c, 7, 55, 127
2, 526318, Note_on_c, 5, 53, 127
2, 526318, Note_on_c, 10, 69, 127
2, 526530, Note_off_c, 10, 69, 127
2, 526530, Note_off_c, 5, 53, 127
2, 526538, Note_on_c, 4, 52, 127
2, 526538, Note_on_c, 7, 67, 127
2, 526750, Note_off_c, 7, 67, 127
2, 526750, Note_off_c, 4, 52, 127
2, 526759, Note_on_c, 2, 50, 127
2, 526759, Note_on_c, 11, 70, 127
2, 526971, Note_off_c, 11, 70, 127
2, 526971, Note_off_c, 2, 50, 127
2, 526980, Note_on_c, 2, 50, 127
2, 526980, Note_on_c, 10, 69, 127
2, 527082, Note_off_c, 2, 50, 127
2, 527093, Note_on_c, 1, 49, 127
2, 527195, Note_off_c, 1, 49, 127
2, 527204, Note_on_c, 12, 47, 127
2, 527306, Note_off_c, 12, 47, 127
2, 527315, Note_on_c, 1, 49, 127
2, 527416, Note_off_c, 10, 69, 127
2, 527417, Note_off_c, 1, 49, 127
2, 527426, Note_on_c, 2, 50, 127
2, 527426, Note_on_c, 7, 67, 127
2, 527638, Note_off_c, 7, 67, 127
2, 527647, Note_on_c, 5, 65, 127
2, 527859, Note_off_c, 5, 65, 127
2, 527867, Note_on_c, 4, 64, 127
2, 528079, Note_off_c, 4, 64, 127
2, 528081, Note_off_c, 2, 50, 127
2, 528089, Note_on_c, 2, 62, 127
2, 528301, Note_off_c, 2, 62, 127
2, 528310, Note_on_c, 7, 55, 127
2, 528310, Note_on_c, 11, 70, 127
2, 528534, Note_on_c, 2, 62, 127
2, 528748, Note_off_c, 11, 70, 127
2, 528749, Note_off_c, 2, 62, 127
2, 528758, Note_on_c, 3, 63, 127
2, 528758, Note_on_c, 10, 69, 127
2, 528973, Note_off_c, 3, 63, 127
2, 528983, Note_on_c, 2, 62, 127
2, 529196, Note_off_c, 10, 69, 127
2, 529198, Note_off_c, 2, 62, 127
2, 529206, Note_on_c, 1, 61, 127
2, 529206, Note_on_c, 7, 67, 127
2, 529421, Note_off_c, 1, 61, 127
2, 529430, Note_on_c, 2, 62, 127
2, 529644, Note_off_c, 7, 67, 127
2, 529644, Note_off_c, 7, 55, 127
2, 529645, Note_off_c, 2, 62, 127
2, 529655, Note_on_c, 7, 55, 127
2, 529655, Note_on_c, 3, 75, 127
2, 529870, Note_off_c, 7, 55, 127
2, 529880, Note_on_c, 11, 58, 127
2, 530093, Note_off_c, 3, 75, 127
2, 530095, Note_off_c, 11, 58, 127
2, 530103, Note_on_c, 10, 57, 127
2, 530103, Note_on_c, 2, 74, 127
2, 530318, Note_off_c, 2, 74, 127
2, 530318, Note_off_c, 10, 57, 127
2, 530328, Note_on_c, 7, 55, 127
2, 530328, Note_on_c, 1, 73, 127
2, 530543, Note_off_c, 1, 73, 127
2, 530543, Note_off_c, 7, 55, 127
2, 530552, Note_on_c, 5, 53, 127
2, 530552, Note_on_c, 2, 74, 127
2, 530767, Note_off_c, 5, 53, 127
2, 530776, Note_on_c, 4, 52, 127
2, 530991, Note_off_c, 4, 52, 127
2, 530999, Note_on_c, 2, 50, 127
2, 531214, Note_off_c, 2, 50, 127
2, 531215, Note_off_c, 2, 74, 127
2, 531224, Note_on_c, 7, 55, 127
2, 531224, Note_on_c, 4, 76, 127
2, 531439, Note_off_c, 4, 76, 127
2, 531439, Note_off_c, 7, 55, 127
2, 531447, Note_on_c, 10, 57, 127
2, 531447, Note_on_c, 1, 73, 127
2, 531447, Note_on_c, 5, 77, 127
2, 531589, Note_off_c, 5, 77, 127
2, 531598, Note_on_c, 4, 76, 127
2, 531662, Note_off_c, 4, 76, 127
2, 531673, Note_on_c, 5, 77, 127
2, 531737, Note_off_c, 5, 77, 127
2, 531747, Note_on_c, 4, 76, 127
2, 531811, Note_off_c, 4, 76, 127
2, 531820, Note_on_c, 5, 77, 127
2, 531884, Note_off_c, 5, 77, 127
2, 531884, Note_off_c, 10, 57, 127
2, 531896, Note_on_c, 10, 45, 127
2, 531896, Note_on_c, 4, 76, 127
2, 532108, Note_off_c, 1, 73, 127
2, 532110, Note_off_c, 4, 76, 127
2, 532120, Note_on_c, 2, 74, 127
2, 532334, Note_off_c, 2, 74, 127
2, 532334, Note_off_c, 10, 45, 127
2, 532344, Note_on_c, 2, 50, 127
2, 532344, Note_on_c, 2, 74, 127
2, 532857, Note_off_c, 2, 50, 127
2, 532885, Note_on_c, 10, 45, 127
2, 533368, Note_off_c, 10, 45, 127
2, 533427, Note_on_c, 2, 38, 127
2, 535306, Note_off_c, 2, 38, 127
2, 535355, Note_off_c, 2, 74, 127
2, 536370, Note_on_c, 0, 60, 127
2, 536498, Note_off_c, 0, 60, 127
2, 536522, Note_on_c, 5, 65, 127
2, 536667, Note_off_c, 5, 65, 127
2, 536675, Note_on_c, 0, 60, 127
2, 536813, Note_off_c, 0, 60, 127
2, 536824, Note_on_c, 5, 65, 127
2, 536952, Note_off_c, 5, 65, 127
2, 536978, Note_on_c, 10, 69, 127
2, 537123, Note_off_c, 10, 69, 127
2, 537128, Note_on_c, 5, 65, 127
2, 537266, Note_off_c, 5, 65, 127
2, 537277, Note_on_c, 0, 48, 127
2, 537277, Note_on_c, 10, 69, 127
2, 537405, Note_off_c, 10, 69, 127
2, 537405, Note_off_c, 0, 48, 127
2, 537430, Note_on_c, 5, 53, 127
2, 537430, Note_on_c, 0, 72, 127
2, 537575, Note_off_c, 5, 53, 127
2, 537583, Note_on_c, 0, 48, 127
2, 537721, Note_off_c, 0, 48, 127
2, 537727, Note_off_c, 0, 72, 127
2, 537734, Note_on_c, 5, 53, 127
2, 537734, Note_on_c, 5, 65, 127
2, 537862, Note_off_c, 5, 65, 127
2, 537862, Note_off_c, 5, 53, 127
2, 537887, Note_on_c, 10, 57, 127
2, 537887, Note_on_c, 5, 77, 127
2, 538032, Note_off_c, 10, 57, 127
2, 538037, Note_on_c, 5, 53, 127
2, 538175, Note_off_c, 5, 53, 127
2, 538188, Note_on_c, 10, 57, 127
2, 538316, Note_off_c, 10, 57, 127
2, 538339, Note_on_c, 0, 60, 127
2, 538486, Note_off_c, 5, 77, 127
2, 538493, Note_on_c, 4, 76, 127
2, 538631, Note_off_c, 4, 76, 127
2, 538642, Note_on_c, 2, 74, 127
2, 538770, Note_off_c, 2, 74, 127
2, 538788, Note_off_c, 0, 60, 127
2, 538794, Note_on_c, 0, 48, 127
2, 538794, Note_on_c, 0, 72, 127
2, 538939, Note_off_c, 0, 72, 127
2, 538946, Note_on_c, 2, 74, 127
2, 539084, Note_off_c, 2, 74, 127
2, 539094, Note_on_c, 11, 70, 127
2, 539222, Note_off_c, 11, 70, 127
2, 539243, Note_off_c, 0, 48, 127
2, 539248, Note_on_c, 5, 53, 127
2, 539248, Note_on_c, 10, 69, 127
2, 539393, Note_off_c, 10, 69, 127
2, 539399, Note_on_c, 0, 72, 127
2, 539537, Note_off_c, 0, 72, 127
2, 539545, Note_off_c, 5, 53, 127
2, 539552, Note_on_c, 4, 52, 127
2, 539552, Note_on_c, 5, 77, 127
2, 539680, Note_off_c, 5, 77, 127
2, 539680, Note_off_c, 4, 52, 127
2, 539703, Note_on_c, 2, 50, 127
2, 539703, Note_on_c, 12, 71, 127
2, 539848, Note_off_c, 12, 71, 127
2, 539854, Note_on_c, 2, 74, 127
2, 539992, Note_off_c, 2, 74, 127
2, 540000, Note_off_c, 2, 50, 127
2, 540007, Note_on_c, 7, 55, 127
2, 540007, Note_on_c, 5, 77, 127
2, 540135, Note_off_c, 5, 77, 127
2, 540135, Note_off_c, 7, 55, 127
2, 540159, Note_on_c, 0, 60, 127
2, 540159, Note_on_c, 4, 76, 127
2, 540304, Note_off_c, 4, 76, 127
2, 540304, Note_off_c, 0, 60, 127
2, 540311, Note_on_c, 7, 55, 127
2, 540311, Note_on_c, 7, 79, 127
2, 540449, Note_off_c, 7, 79, 127
2, 540449, Note_off_c, 7, 55, 127
2, 540461, Note_on_c, 0, 60, 127
2, 540461, Note_on_c, 4, 76, 127
2, 540589, Note_off_c, 4, 76, 127
2, 540589, Note_off_c, 0, 60, 127
2, 540613, Note_on_c, 4, 64, 127
2, 540613, Note_on_c, 0, 72, 127
2, 540758, Note_off_c, 0, 72, 127
2, 540758, Note_off_c, 4, 64, 127
2, 540764, Note_on_c, 0, 60, 127
2, 540764, Note_on_c, 4, 76, 127
2, 540902, Note_off_c, 4, 76, 127
2, 540902, Note_off_c, 0, 60, 127
2, 540915, Note_on_c, 4, 64, 127
2, 540915, Note_on_c, 0, 72, 127
2, 541043, Note_off_c, 0, 72, 127
2, 541043, Note_off_c, 4, 64, 127
2, 541067, Note_on_c, 7, 67, 127
2, 541067, Note_on_c, 12, 71, 127
2, 541212, Note_off_c, 12, 71, 127
2, 541219, Note_on_c, 0, 72, 127
2, 541357, Note_off_c, 0, 72, 127
2, 541364, Note_off_c, 7, 67, 127
2, 541370, Note_on_c, 0, 60, 127
2, 541370, Note_on_c, 2, 74, 127
2, 541498, Note_off_c, 2, 74, 127
2, 541498, Note_off_c, 0, 60, 127
2, 541522, Note_on_c, 0, 72, 127
2, 541522, Note_on_c, 4, 76, 127
2, 541667, Note_off_c, 4, 76, 127
2, 541673, Note_on_c, 5, 77, 127
2, 541811, Note_off_c, 5, 77, 127
2, 541825, Note_on_c, 7, 79, 127
2, 541953, Note_off_c, 7, 79, 127
2, 541975, Note_on_c, 10, 81, 127
2, 542120, Note_off_c, 10, 81, 127
2, 542121, Note_off_c, 0, 72, 127
2, 542129, Note_on_c, 12, 71, 127
2, 542129, Note_on_c, 12, 83, 127
2, 542267, Note_off_c, 12, 83, 127
2, 542267, Note_off_c, 12, 71, 127
2, 542278, Note_on_c, 10, 69, 127
2, 542278, Note_on_c, 0, 84, 127
2, 542406, Note_off_c, 0, 84, 127
2, 542406, Note_off_c, 10, 69, 127
2, 542429, Note_on_c, 7, 67, 127
2, 542429, Note_on_c, 2, 74, 127
2, 542574, Note_off_c, 2, 74, 127
2, 542574, Note_off_c, 7, 67, 127
2, 542582, Note_on_c, 10, 69, 127
2, 542582, Note_on_c, 0, 84, 127
2, 542720, Note_off_c, 0, 84, 127
2, 542720, Note_off_c, 10, 69, 127
2, 542732, Note_on_c, 5, 65, 127
2, 542732, Note_on_c, 12, 83, 127
2, 542860, Note_off_c, 12, 83, 127
2, 542860, Note_off_c, 5, 65, 127
2, 542884, Note_on_c, 4, 64, 127
2, 542884, Note_on_c, 0, 84, 127
2, 543029, Note_off_c, 4, 64, 127
2, 543036, Note_on_c, 7, 67, 127
2, 543174, Note_off_c, 7, 67, 127
2, 543185, Note_on_c, 0, 72, 127
2, 543313, Note_off_c, 0, 72, 127
2, 543338, Note_on_c, 6, 66, 127
2, 543483, Note_off_c, 6, 66, 127
2, 543489, Note_on_c, 10, 69, 127
2, 543560, Note_off_c, 0, 84, 127
2, 543627, Note_off_c, 10, 69, 127
2, 543641, Note_on_c, 0, 72, 127
2, 543641, Note_on_c, 10, 81, 127
2, 543769, Note_off_c, 10, 81, 127
2, 543769, Note_off_c, 0, 72, 127
2, 543791, Note_on_c, 7, 67, 127
2, 543791, Note_on_c, 11, 70, 127
2, 543936, Note_off_c, 11, 70, 127
2, 543944, Note_on_c, 2, 74, 127
2, 544082, Note_off_c, 2, 74, 127
2, 544094, Note_on_c, 10, 81, 127
2, 544222, Note_off_c, 10, 81, 127
2, 544245, Note_on_c, 7, 79, 127
2, 544390, Note_off_c, 7, 79, 127
2, 544398, Note_on_c, 6, 78, 127
2, 544467, Note_off_c, 7, 67, 127
2, 544536, Note_off_c, 6, 78, 127
2, 544548, Note_on_c, 7, 67, 127
2, 544548, Note_on_c, 7, 79, 127
2, 544676, Note_off_c, 7, 79, 127
2, 544676, Note_off_c, 7, 67, 127
2, 544699, Note_on_c, 2, 62, 127
2, 544699, Note_on_c, 11, 70, 127
2, 544844, Note_off_c, 2, 62, 127
2, 544852, Note_on_c, 5, 65, 127
2, 544990, Note_off_c, 5, 65, 127
2, 544994, Note_off_c, 11, 70, 127
2, 545001, Note_on_c, 11, 70, 127
2, 545154, Note_on_c, 4, 64, 127
2, 545290, Note_off_c, 11, 70, 127
2, 545299, Note_off_c, 4, 64, 127
2, 545305, Note_on_c, 7, 67, 127
2, 545443, Note_off_c, 7, 67, 127
2, 545455, Note_on_c, 11, 70, 127
2, 545455, Note_on_c, 0, 48, 127
2, 545455, Note_on_c, 7, 79, 127
2, 545583, Note_off_c, 7, 79, 127
2, 545583, Note_off_c, 0, 48, 127
2, 545583, Note_off_c, 11, 70, 127
2, 545607, Note_on_c, 5, 53, 127
2, 545607, Note_on_c, 10, 69, 127
2, 545752, Note_off_c, 5, 53, 127
2, 545760, Note_on_c, 0, 48, 127
2, 545760, Note_on_c, 0, 72, 127
2, 545898, Note_off_c, 0, 72, 127
2, 545898, Note_off_c, 0, 48, 127
2, 545909, Note_on_c, 5, 53, 127
2, 545909, Note_on_c, 7, 79, 127
2, 546037, Note_off_c, 7, 79, 127
2, 546037, Note_off_c, 5, 53, 127
2, 546052, Note_off_c, 10, 69, 127
2, 546061, Note_on_c, 10, 57, 127
2, 546061, Note_on_c, 5, 77, 127
2, 546206, Note_off_c, 5, 77, 127
2, 546206, Note_off_c, 10, 57, 127
2, 546213, Note_on_c, 5, 53, 127
2, 546213, Note_on_c, 4, 76, 127
2, 546351, Note_off_c, 4, 76, 127
2, 546351, Note_off_c, 5, 53, 127
2, 546363, Note_on_c, 10, 57, 127
2, 546363, Note_on_c, 5, 77, 127
2, 546491, Note_off_c, 5, 77, 127
2, 546491, Note_off_c, 10, 57, 127
2, 546515, Note_on_c, 0, 60, 127
2, 546515, Note_on_c, 7, 67, 127
2, 546668, Note_on_c, 0, 72, 127
2, 546806, Note_off_c, 0, 72, 127
2, 546812, Note_off_c, 0, 60, 127
2, 546818, Note_on_c, 5, 53, 127
2, 546818, Note_on_c, 5, 77, 127
2, 546946, Note_off_c, 5, 77, 127
2, 546946, Note_off_c, 5, 53, 127
2, 546962, Note_off_c, 7, 67, 127
2, 546971, Note_on_c, 5, 65, 127
2, 546971, Note_on_c, 3, 75, 127
2, 547116, Note_off_c, 3, 75, 127
2, 547123, Note_on_c, 2, 74, 127
2, 547261, Note_off_c, 2, 74, 127
2, 547272, Note_on_c, 10, 69, 127
2, 547272, Note_on_c, 3, 75, 127
2, 547400, Note_off_c, 3, 75, 127
2, 547400, Note_off_c, 10, 69, 127
2, 547425, Note_on_c, 11, 70, 127
2, 547425, Note_on_c, 2, 74, 127
2, 547568, Note_off_c, 5, 65, 127
2, 547575, Note_on_c, 4, 64, 127
2, 547713, Note_off_c, 4, 64, 127
2, 547720, Note_off_c, 2, 74, 127
2, 547726, Note_on_c, 2, 62, 127
2, 547726, Note_on_c, 4, 76, 127
2, 547854, Note_off_c, 4, 76, 127
2, 547854, Note_off_c, 2, 62, 127
2, 547879, Note_on_c, 0, 60, 127
2, 547879, Note_on_c, 5, 77, 127
2, 547950, Note_off_c, 5, 77, 127
2, 547954, Note_on_c, 4, 76, 127
2, 548024, Note_off_c, 0, 60, 127
2, 548025, Note_off_c, 4, 76, 127
2, 548030, Note_on_c, 2, 62, 127
2, 548030, Note_on_c, 5, 77, 127
2, 548094, Note_off_c, 5, 77, 127
2, 548101, Note_off_c, 11, 70, 127
2, 548106, Note_on_c, 4, 76, 127
2, 548168, Note_off_c, 2, 62, 127
2, 548177, Note_off_c, 4, 76, 127
2, 548183, Note_on_c, 11, 58, 127
2, 548183, Note_on_c, 2, 74, 127
2, 548243, Note_off_c, 2, 74, 127
2, 548257, Note_on_c, 4, 76, 127
2, 548309, Note_off_c, 11, 58, 127
2, 548328, Note_off_c, 4, 76, 127
2, 548332, Note_on_c, 10, 57, 127
2, 548332, Note_on_c, 5, 77, 127
2, 548477, Note_off_c, 5, 77, 127
2, 548484, Note_on_c, 4, 76, 127
2, 548622, Note_off_c, 4, 76, 127
2, 548629, Note_off_c, 10, 57, 127
2, 548635, Note_on_c, 11, 58, 127
2, 548635, Note_on_c, 11, 70, 127
2, 548635, Note_on_c, 2, 74, 127
2, 548763, Note_off_c, 2, 74, 127
2, 548763, Note_off_c, 11, 70, 127
2, 548763, Note_off_c, 11, 58, 127
2, 548789, Note_on_c, 10, 69, 127
2, 548789, Note_on_c, 0, 60, 127
2, 548789, Note_on_c, 0, 72, 127
2, 548934, Note_off_c, 0, 72, 127
2, 548939, Note_on_c, 2, 74, 127
2, 549077, Note_off_c, 2, 74, 127
2, 549086, Note_off_c, 0, 60, 127
2, 549086, Note_off_c, 10, 69, 127
2, 549092, Note_on_c, 0, 48, 127
2, 549092, Note_on_c, 7, 67, 127
2, 549092, Note_on_c, 11, 70, 127
2, 549220, Note_off_c, 11, 70, 127
2, 549220, Note_off_c, 7, 67, 127
2, 549220, Note_off_c, 0, 48, 127
2, 549243, Note_on_c, 5, 65, 127
2, 549243, Note_on_c, 5, 53, 127
2, 549243, Note_on_c, 10, 69, 127
2, 549388, Note_off_c, 10, 69, 127
2, 549388, Note_off_c, 5, 53, 127
2, 549388, Note_off_c, 5, 65, 127
2, 549395, Note_on_c, 0, 48, 127
2, 549395, Note_on_c, 7, 67, 127
2, 549533, Note_off_c, 7, 67, 127
2, 549533, Note_off_c, 0, 48, 127
2, 549545, Note_on_c, 5, 53, 127
2, 549545, Note_on_c, 5, 65, 127
2, 549673, Note_off_c, 5, 65, 127
2, 549673, Note_off_c, 5, 53, 127
2, 549698, Note_on_c, 10, 57, 127
2, 549698, Note_on_c, 0, 72, 127
2, 549843, Note_off_c, 0, 72, 127
2, 549843, Note_off_c, 10, 57, 127
2, 549848, Note_on_c, 5, 53, 127
2, 549848, Note_on_c, 10, 69, 127
2, 549986, Note_off_c, 10, 69, 127
2, 549986, Note_off_c, 5, 53, 127
2, 550000, Note_on_c, 10, 57, 127
2, 550000, Note_on_c, 5, 65, 127
2, 550128, Note_off_c, 5, 65, 127
2, 550128, Note_off_c, 10, 57, 127
2, 550151, Note_on_c, 4, 52, 127
2, 550151, Note_on_c, 0, 72, 127
2, 550222, Note_off_c, 0, 72, 127
2, 550227, Note_on_c, 11, 70, 127
2, 550296, Note_off_c, 4, 52, 127
2, 550298, Note_off_c, 11, 70, 127
2, 550303, Note_on_c, 0, 48, 127
2, 550303, Note_on_c, 0, 72, 127
2, 550441, Note_off_c, 0, 48, 127
2, 550453, Note_on_c, 4, 52, 127
2, 550581, Note_off_c, 4, 52, 127
2, 550595, Note_off_c, 0, 72, 127
2, 550605, Note_on_c, 7, 55, 127
2, 550605, Note_on_c, 0, 72, 127
2, 550750, Note_off_c, 0, 72, 127
2, 550750, Note_off_c, 7, 55, 127
2, 550757, Note_on_c, 4, 52, 127
2, 550757, Note_on_c, 7, 67, 127
2, 550895, Note_off_c, 7, 67, 127
2, 550895, Note_off_c, 4, 52, 127
2, 550908, Note_on_c, 7, 55, 127
2, 550908, Note_on_c, 4, 64, 127
2, 551036, Note_off_c, 4, 64, 127
2, 551036, Note_off_c, 7, 55, 127
2, 551059, Note_on_c, 10, 57, 127
2, 551059, Note_on_c, 0, 72, 127
2, 551130, Note_off_c, 0, 72, 127
2, 551134, Note_on_c, 11, 70, 127
2, 551204, Note_off_c, 10, 57, 127
2, 551205, Note_off_c, 11, 70, 127
2, 551211, Note_on_c, 0, 48, 127
2, 551211, Note_on_c, 0, 72, 127
2, 551349, Note_off_c, 0, 48, 127
2, 551360, Note_on_c, 5, 53, 127
2, 551488, Note_off_c, 5, 53, 127
2, 551503, Note_off_c, 0, 72, 127
2, 551513, Note_on_c, 10, 57, 127
2, 551513, Note_on_c, 0, 72, 127
2, 551658, Note_off_c, 0, 72, 127
2, 551658, Note_off_c, 10, 57, 127
2, 551664, Note_on_c, 5, 53, 127
2, 551664, Note_on_c, 10, 69, 127
2, 551802, Note_off_c, 10, 69, 127
2, 551802, Note_off_c, 5, 53, 127
2, 551816, Note_on_c, 10, 57, 127
2, 551816, Note_on_c, 5, 65, 127
2, 551944, Note_off_c, 5, 65, 127
2, 551944, Note_off_c, 10, 57, 127
2, 551966, Note_on_c, 4, 52, 127
2, 551966, Note_on_c, 0, 72, 127
2, 552037, Note_off_c, 0, 72, 127
2, 552042, Note_on_c, 11, 70, 127
2, 552111, Note_off_c, 4, 52, 127
2, 552113, Note_off_c, 11, 70, 127
2, 552119, Note_on_c, 0, 48, 127
2, 552119, Note_on_c, 0, 72, 127
2, 552257, Note_off_c, 0, 48, 127
2, 552269, Note_on_c, 4, 52, 127
2, 552397, Note_off_c, 4, 52, 127
2, 552420, Note_on_c, 6, 54, 127
2, 552565, Note_off_c, 6, 54, 127
2, 552573, Note_on_c, 2, 50, 127
2, 552677, Note_off_c, 0, 72, 127
2, 552711, Note_off_c, 2, 50, 127
2, 552724, Note_on_c, 6, 54, 127
2, 552724, Note_on_c, 10, 69, 127
2, 552852, Note_off_c, 10, 69, 127
2, 552852, Note_off_c, 6, 54, 127
2, 552874, Note_on_c, 7, 55, 127
2, 552874, Note_on_c, 11, 70, 127
2, 553019, Note_off_c, 11, 70, 127
2, 553027, Note_on_c, 2, 62, 127
2, 553165, Note_off_c, 2, 62, 127
2, 553176, Note_on_c, 7, 67, 127
2, 553304, Note_off_c, 7, 67, 127
2, 553323, Note_off_c, 7, 55, 127
2, 553329, Note_on_c, 2, 50, 127
2, 553329, Note_on_c, 11, 70, 127
2, 553474, Note_off_c, 11, 70, 127
2, 553474, Note_off_c, 2, 50, 127
2, 553480, Note_on_c, 11, 46, 127
2, 553480, Note_on_c, 7, 67, 127
2, 553618, Note_off_c, 7, 67, 127
2, 553618, Note_off_c, 11, 46, 127
2, 553632, Note_on_c, 7, 43, 127
2, 553632, Note_on_c, 11, 70, 127
2, 553760, Note_off_c, 11, 70, 127
2, 553760, Note_off_c, 7, 43, 127
2, 553782, Note_on_c, 2, 50, 127
2, 553782, Note_on_c, 6, 66, 127
2, 553853, Note_off_c, 2, 50, 127
2, 553858, Note_on_c, 0, 48, 127
2, 553927, Note_off_c, 6, 66, 127
2, 553929, Note_off_c, 0, 48, 127
2, 553934, Note_on_c, 2, 50, 127
2, 553934, Note_on_c, 2, 62, 127
2, 554072, Note_off_c, 2, 62, 127
2, 554085, Note_on_c, 6, 66, 127
2, 554213, Note_off_c, 6, 66, 127
2, 554226, Note_off_c, 2, 50, 127
2, 554236, Note_on_c, 2, 50, 127
2, 554236, Note_on_c, 10, 69, 127
2, 554381, Note_off_c, 10, 69, 127
2, 554381, Note_off_c, 2, 50, 127
2, 554389, Note_on_c, 10, 45, 127
2, 554389, Note_on_c, 6, 66, 127
2, 554527, Note_off_c, 6, 66, 127
2, 554527, Note_off_c, 10, 45, 127
2, 554539, Note_on_c, 6, 42, 127
2, 554539, Note_on_c, 10, 69, 127
2, 554667, Note_off_c, 10, 69, 127
2, 554667, Note_off_c, 6, 42, 127
2, 554689, Note_on_c, 2, 50, 127
2, 554689, Note_on_c, 11, 70, 127
2, 554760, Note_off_c, 2, 50, 127
2, 554766, Note_on_c, 0, 48, 127
2, 554834, Note_off_c, 11, 70, 127
2, 554837, Note_off_c, 0, 48, 127
2, 554842, Note_on_c, 2, 50, 127
2, 554842, Note_on_c, 2, 62, 127
2, 554980, Note_off_c, 2, 62, 127
2, 554992, Note_on_c, 7, 67, 127
2, 555120, Note_off_c, 7, 67, 127
2, 555134, Note_off_c, 2, 50, 127
2, 555145, Note_on_c, 2, 50, 127
2, 555145, Note_on_c, 11, 70, 127
2, 555290, Note_off_c, 11, 70, 127
2, 555290, Note_off_c, 2, 50, 127
2, 555296, Note_on_c, 11, 46, 127
2, 555296, Note_on_c, 7, 67, 127
2, 555434, Note_off_c, 7, 67, 127
2, 555434, Note_off_c, 11, 46, 127
2, 555446, Note_on_c, 7, 43, 127
2, 555446, Note_on_c, 11, 70, 127
2, 555574, Note_off_c, 11, 70, 127
2, 555574, Note_off_c, 7, 43, 127
2, 555597, Note_on_c, 2, 50, 127
2, 555597, Note_on_c, 6, 66, 127
2, 555668, Note_off_c, 2, 50, 127
2, 555673, Note_on_c, 0, 48, 127
2, 555742, Note_off_c, 6, 66, 127
2, 555744, Note_off_c, 0, 48, 127
2, 555750, Note_on_c, 2, 50, 127
2, 555750, Note_on_c, 2, 62, 127
2, 555888, Note_off_c, 2, 62, 127
2, 555900, Note_on_c, 6, 66, 127
2, 556028, Note_off_c, 6, 66, 127
2, 556052, Note_on_c, 10, 69, 127
2, 556197, Note_off_c, 10, 69, 127
2, 556205, Note_on_c, 6, 66, 127
2, 556308, Note_off_c, 2, 50, 127
2, 556343, Note_off_c, 6, 66, 127
2, 556353, Note_on_c, 2, 50, 127
2, 556353, Note_on_c, 10, 69, 127
2, 556481, Note_off_c, 10, 69, 127
2, 556481, Note_off_c, 2, 50, 127
2, 556505, Note_on_c, 7, 55, 127
2, 556505, Note_on_c, 11, 70, 127
2, 556650, Note_off_c, 11, 70, 127
2, 556650, Note_off_c, 7, 55, 127
2, 556658, Note_on_c, 2, 50, 127
2, 556658, Note_on_c, 7, 67, 127
2, 556796, Note_off_c, 7, 67, 127
2, 556796, Note_off_c, 2, 50, 127
2, 556807, Note_on_c, 7, 55, 127
2, 556807, Note_on_c, 11, 70, 127
2, 556935, Note_off_c, 11, 70, 127
2, 556935, Note_off_c, 7, 55, 127
2, 556961, Note_on_c, 11, 58, 127
2, 556961, Note_on_c, 2, 74, 127
2, 557106, Note_off_c, 2, 74, 127
2, 557106, Note_off_c, 11, 58, 127
2, 557112, Note_on_c, 7, 55, 127
2, 557112, Note_on_c, 11, 70, 127
2, 557250, Note_off_c, 11, 70, 127
2, 557250, Note_off_c, 7, 55, 127
2, 557261, Note_on_c, 11, 58, 127
2, 557261, Note_on_c, 2, 74, 127
2, 557389, Note_off_c, 2, 74, 127
2, 557389, Note_off_c, 11, 58, 127
2, 557413, Note_on_c, 10, 57, 127
2, 557413, Note_on_c, 5, 77, 127
2, 557484, Note_off_c, 5, 77, 127
2, 557489, Note_on_c, 4, 76, 127
2, 557558, Note_off_c, 10, 57, 127
2, 557560, Note_off_c, 4, 76, 127
2, 557566, Note_on_c, 5, 53, 127
2, 557566, Note_on_c, 5, 77, 127
2, 557704, Note_off_c, 5, 53, 127
2, 557716, Note_on_c, 10, 57, 127
2, 557844, Note_off_c, 10, 57, 127
2, 557858, Note_off_c, 5, 77, 127
2, 557867, Note_on_c, 0, 60, 127
2, 557867, Note_on_c, 5, 77, 127
2, 558012, Note_off_c, 5, 77, 127
2, 558012, Note_off_c, 0, 60, 127
2, 558020, Note_on_c, 10, 57, 127
2, 558020, Note_on_c, 0, 72, 127
2, 558158, Note_off_c, 0, 72, 127
2, 558158, Note_off_c, 10, 57, 127
2, 558169, Note_on_c, 0, 60, 127
2, 558169, Note_on_c, 10, 69, 127
2, 558297, Note_off_c, 10, 69, 127
2, 558297, Note_off_c, 0, 60, 127
2, 558321, Note_on_c, 2, 62, 127
2, 558321, Note_on_c, 5, 77, 127
2, 558392, Note_off_c, 5, 77, 127
2, 558396, Note_on_c, 4, 76, 127
2, 558466, Note_off_c, 2, 62, 127
2, 558467, Note_off_c, 4, 76, 127
2, 558473, Note_on_c, 5, 53, 127
2, 558473, Note_on_c, 5, 77, 127
2, 558611, Note_off_c, 5, 53, 127
2, 558623, Note_on_c, 11, 58, 127
2, 558751, Note_off_c, 11, 58, 127
2, 558765, Note_off_c, 5, 77, 127
2, 558775, Note_on_c, 2, 62, 127
2, 558775, Note_on_c, 5, 77, 127
2, 558920, Note_off_c, 5, 77, 127
2, 558920, Note_off_c, 2, 62, 127
2, 558928, Note_on_c, 11, 58, 127
2, 558928, Note_on_c, 2, 74, 127
2, 559066, Note_off_c, 2, 74, 127
2, 559066, Note_off_c, 11, 58, 127
2, 559076, Note_on_c, 2, 62, 127
2, 559076, Note_on_c, 11, 70, 127
2, 559204, Note_off_c, 11, 70, 127
2, 559204, Note_off_c, 2, 62, 127
2, 559229, Note_on_c, 10, 57, 127
2, 559229, Note_on_c, 5, 77, 127
2, 559300, Note_off_c, 5, 77, 127
2, 559305, Note_on_c, 4, 76, 127
2, 559374, Note_off_c, 10, 57, 127
2, 559376, Note_off_c, 4, 76, 127
2, 559381, Note_on_c, 5, 53, 127
2, 559381, Note_on_c, 5, 77, 127
2, 559519, Note_off_c, 5, 53, 127
2, 559531, Note_on_c, 10, 57, 127
2, 559659, Note_off_c, 10, 57, 127
2, 559683, Note_on_c, 0, 60, 127
2, 559828, Note_off_c, 0, 60, 127
2, 559834, Note_on_c, 10, 57, 127
2, 559939, Note_off_c, 5, 77, 127
2, 559972, Note_off_c, 10, 57, 127
2, 559984, Note_on_c, 0, 60, 127
2, 560112, Note_off_c, 0, 60, 127
2, 560137, Note_on_c, 5, 65, 127
2, 560282, Note_off_c, 5, 65, 127
2, 560287, Note_on_c, 0, 60, 127
2, 560425, Note_off_c, 0, 60, 127
2, 560439, Note_on_c, 5, 65, 127
2, 560567, Note_off_c, 5, 65, 127
2, 560590, Note_on_c, 10, 69, 127
2, 560735, Note_off_c, 10, 69, 127
2, 560743, Note_on_c, 5, 65, 127
2, 560881, Note_off_c, 5, 65, 127
2, 560892, Note_on_c, 0, 36, 127
2, 560892, Note_on_c, 10, 69, 127
2, 561020, Note_off_c, 10, 69, 127
2, 561020, Note_off_c, 0, 36, 127
2, 561045, Note_on_c, 5, 41, 127
2, 561045, Note_on_c, 0, 72, 127
2, 561190, Note_off_c, 5, 41, 127
2, 561196, Note_on_c, 0, 36, 127
2, 561334, Note_off_c, 0, 36, 127
2, 561342, Note_off_c, 0, 72, 127
2, 561348, Note_on_c, 5, 41, 127
2, 561348, Note_on_c, 5, 65, 127
2, 561476, Note_off_c, 5, 65, 127
2, 561476, Note_off_c, 5, 41, 127
2, 561501, Note_on_c, 10, 45, 127
2, 561501, Note_on_c, 5, 77, 127
2, 561572, Note_off_c, 5, 77, 127
2, 561577, Note_on_c, 4, 76, 127
2, 561646, Note_off_c, 10, 45, 127
2, 561648, Note_off_c, 4, 76, 127
2, 561651, Note_on_c, 5, 41, 127
2, 561651, Note_on_c, 5, 77, 127
2, 561789, Note_off_c, 5, 41, 127
2, 561802, Note_on_c, 10, 45, 127
2, 561930, Note_off_c, 10, 45, 127
2, 561954, Note_on_c, 0, 48, 127
2, 562092, Note_off_c, 5, 77, 127
2, 562099, Note_off_c, 0, 48, 127
2, 562105, Note_on_c, 10, 45, 127
2, 562105, Note_on_c, 4, 76, 127
2, 562243, Note_off_c, 4, 76, 127
2, 562243, Note_off_c, 10, 45, 127
2, 562257, Note_on_c, 0, 48, 127
2, 562257, Note_on_c, 2, 74, 127
2, 562385, Note_off_c, 2, 74, 127
2, 562385, Note_off_c, 0, 48, 127
2, 562408, Note_on_c, 4, 52, 127
2, 562408, Note_on_c, 0, 72, 127
2, 562553, Note_off_c, 0, 72, 127
2, 562553, Note_off_c, 4, 52, 127
2, 562560, Note_on_c, 0, 48, 127
2, 562560, Note_on_c, 2, 74, 127
2, 562698, Note_off_c, 2, 74, 127
2, 562698, Note_off_c, 0, 48, 127
2, 562709, Note_on_c, 4, 52, 127
2, 562709, Note_on_c, 11, 70, 127
2, 562837, Note_off_c, 11, 70, 127
2, 562837, Note_off_c, 4, 52, 127
2, 562862, Note_on_c, 5, 53, 127
2, 562862, Note_on_c, 10, 69, 127
2, 563007, Note_off_c, 10, 69, 127
2, 563007, Note_off_c, 5, 53, 127
2, 563013, Note_on_c, 0, 48, 127
2, 563013, Note_on_c, 0, 72, 127
2, 563151, Note_off_c, 0, 72, 127
2, 563151, Note_off_c, 0, 48, 127
2, 563164, Note_on_c, 5, 53, 127
2, 563164, Note_on_c, 7, 79, 127
2, 563292, Note_off_c, 7, 79, 127
2, 563292, Note_off_c, 5, 53, 127
2, 563316, Note_on_c, 10, 57, 127
2, 563316, Note_on_c, 5, 77, 127
2, 563461, Note_off_c, 5, 77, 127
2, 563461, Note_off_c, 10, 57, 127
2, 563467, Note_on_c, 5, 53, 127
2, 563467, Note_on_c, 4, 76, 127
2, 563605, Note_off_c, 4, 76, 127
2, 563605, Note_off_c, 5, 53, 127
2, 563617, Note_on_c, 10, 57, 127
2, 563617, Note_on_c, 5, 77, 127
2, 563745, Note_off_c, 5, 77, 127
2, 563745, Note_off_c, 10, 57, 127
2, 563769, Note_on_c, 0, 60, 127
2, 563769, Note_on_c, 7, 67, 127
2, 563914, Note_off_c, 7, 67, 127
2, 563921, Note_on_c, 0, 72, 127
2, 564059, Note_off_c, 0, 72, 127
2, 564073, Note_on_c, 5, 77, 127
2, 564201, Note_off_c, 5, 77, 127
2, 564223, Note_on_c, 4, 76, 127
2, 564368, Note_off_c, 4, 76, 127
2, 564375, Note_on_c, 2, 74, 127
2, 564445, Note_off_c, 0, 60, 127
2, 564513, Note_off_c, 2, 74, 127
2, 564525, Note_on_c, 1, 49, 127
2, 564525, Note_on_c, 4, 76, 127
2, 564653, Note_off_c, 4, 76, 127
2, 564653, Note_off_c, 1, 49, 127
2, 564677, Note_on_c, 2, 50, 127
2, 564677, Note_on_c, 5, 65, 127
2, 564822, Note_off_c, 5, 65, 127
2, 564822, Note_off_c, 2, 50, 127
2, 564829, Note_on_c, 10, 45, 127
2, 564829, Note_on_c, 10, 69, 127
2, 564967, Note_off_c, 10, 69, 127
2, 564967, Note_off_c, 10, 45, 127
2, 564980, Note_on_c, 2, 50, 127
2, 564980, Note_on_c, 4, 76, 127
2, 565108, Note_off_c, 4, 76, 127
2, 565108, Note_off_c, 2, 50, 127
2, 565131, Note_on_c, 5, 53, 127
2, 565131, Note_on_c, 2, 74, 127
2, 565276, Note_off_c, 2, 74, 127
2, 565276, Note_off_c, 5, 53, 127
2, 565283, Note_on_c, 2, 50, 127
2, 565283, Note_on_c, 1, 73, 127
2, 565421, Note_off_c, 1, 73, 127
2, 565421, Note_off_c, 2, 50, 127
2, 565433, Note_on_c, 5, 53, 127
2, 565433, Note_on_c, 2, 74, 127
2, 565561, Note_off_c, 2, 74, 127
2, 565561, Note_off_c, 5, 53, 127
2, 565585, Note_on_c, 10, 57, 127
2, 565585, Note_on_c, 4, 64, 127
2, 565730, Note_off_c, 4, 64, 127
2, 565737, Note_on_c, 10, 69, 127
2, 565875, Note_off_c, 10, 69, 127
2, 565888, Note_on_c, 2, 74, 127
2, 566016, Note_off_c, 2, 74, 127
2, 566039, Note_on_c, 0, 72, 127
2, 566184, Note_off_c, 0, 72, 127
2, 566190, Note_on_c, 12, 71, 127
2, 566261, Note_off_c, 10, 57, 127
2, 566328, Note_off_c, 12, 71, 127
2, 566341, Note_on_c, 10, 45, 127
2, 566341, Note_on_c, 0, 72, 127
2, 566469, Note_off_c, 0, 72, 127
2, 566469, Note_off_c, 10, 45, 127
2, 566493, Note_on_c, 11, 46, 127
2, 566493, Note_on_c, 2, 62, 127
2, 566638, Note_off_c, 2, 62, 127
2, 566638, Note_off_c, 11, 46, 127
2, 566645, Note_on_c, 5, 41, 127
2, 566645, Note_on_c, 5, 65, 127
2, 566783, Note_off_c, 5, 65, 127
2, 566783, Note_off_c, 5, 41, 127
2, 566796, Note_on_c, 11, 46, 127
2, 566796, Note_on_c, 0, 72, 127
2, 566924, Note_off_c, 0, 72, 127
2, 566924, Note_off_c, 11, 46, 127
2, 566946, Note_on_c, 2, 50, 127
2, 566946, Note_on_c, 11, 70, 127
2, 567091, Note_off_c, 11, 70, 127
2, 567091, Note_off_c, 2, 50, 127
2, 567099, Note_on_c, 11, 46, 127
2, 567099, Note_on_c, 10, 69, 127
2, 567237, Note_off_c, 10, 69, 127
2, 567237, Note_off_c, 11, 46, 127
2, 567249, Note_on_c, 2, 50, 127
2, 567249, Note_on_c, 11, 70, 127
2, 567377, Note_off_c, 11, 70, 127
2, 567377, Note_off_c, 2, 50, 127
2, 567401, Note_on_c, 5, 53, 127
2, 567401, Note_on_c, 0, 60, 127
2, 567546, Note_off_c, 0, 60, 127
2, 567553, Note_on_c, 5, 65, 127
2, 567691, Note_off_c, 5, 65, 127
2, 567698, Note_off_c, 5, 53, 127
2, 567704, Note_on_c, 5, 41, 127
2, 567704, Note_on_c, 11, 70, 127
2, 567832, Note_off_c, 11, 70, 127
2, 567832, Note_off_c, 5, 41, 127
2, 567856, Note_on_c, 5, 53, 127
2, 567856, Note_on_c, 10, 69, 127
2, 567927, Note_off_c, 5, 53, 127
2, 567932, Note_on_c, 4, 52, 127
2, 568001, Note_off_c, 10, 69, 127
2, 568003, Note_off_c, 4, 52, 127
2, 568008, Note_on_c, 5, 53, 127
2, 568008, Note_on_c, 7, 67, 127
2, 568146, Note_off_c, 7, 67, 127
2, 568158, Note_on_c, 10, 69, 127
2, 568286, Note_off_c, 10, 69, 127
2, 568310, Note_on_c, 12, 59, 127
2, 568455, Note_off_c, 12, 59, 127
2, 568463, Note_on_c, 2, 62, 127
2, 568601, Note_off_c, 2, 62, 127
2, 568603, Note_off_c, 5, 53, 127
2, 568613, Note_on_c, 4, 40, 127
2, 568613, Note_on_c, 7, 67, 127
2, 568741, Note_off_c, 7, 67, 127
2, 568741, Note_off_c, 4, 40, 127
2, 568763, Note_on_c, 4, 52, 127
2, 568763, Note_on_c, 0, 60, 127
2, 568908, Note_off_c, 0, 60, 127
2, 568917, Note_on_c, 4, 64, 127
2, 569055, Note_off_c, 4, 64, 127
2, 569065, Note_on_c, 7, 67, 127
2, 569193, Note_off_c, 7, 67, 127
2, 569219, Note_on_c, 10, 57, 127
2, 569364, Note_off_c, 10, 57, 127
2, 569370, Note_on_c, 0, 60, 127
2, 569508, Note_off_c, 0, 60, 127
2, 569514, Note_off_c, 4, 52, 127
2, 569522, Note_on_c, 2, 38, 127
2, 569522, Note_on_c, 5, 65, 127
2, 569650, Note_off_c, 5, 65, 127
2, 569650, Note_off_c, 2, 38, 127
2, 569673, Note_on_c, 2, 50, 127
2, 569673, Note_on_c, 12, 59, 127
2, 569818, Note_off_c, 12, 59, 127
2, 569825, Note_on_c, 2, 62, 127
2, 569963, Note_off_c, 2, 62, 127
2, 569970, Note_off_c, 2, 50, 127
2, 569977, Note_on_c, 7, 43, 127
2, 569977, Note_on_c, 5, 65, 127
2, 570105, Note_off_c, 5, 65, 127
2, 570105, Note_off_c, 7, 43, 127
2, 570130, Note_on_c, 0, 48, 127
2, 570130, Note_on_c, 4, 64, 127
2, 570275, Note_off_c, 4, 64, 127
2, 570281, Note_on_c, 7, 67, 127
2, 570419, Note_off_c, 7, 67, 127
2, 570427, Note_off_c, 0, 48, 127
2, 570433, Note_on_c, 4, 52, 127
2, 570433, Note_on_c, 0, 72, 127
2, 570561, Note_off_c, 0, 72, 127
2, 570561, Note_off_c, 4, 52, 127
2, 570585, Note_on_c, 10, 45, 127
2, 570585, Note_on_c, 6, 66, 127
2, 570730, Note_off_c, 6, 66, 127
2, 570737, Note_on_c, 10, 69, 127
2, 570875, Note_off_c, 10, 69, 127
2, 570882, Note_off_c, 10, 45, 127
2, 570889, Note_on_c, 2, 50, 127
2, 570889, Note_on_c, 0, 72, 127
2, 571017, Note_off_c, 0, 72, 127
2, 571017, Note_off_c, 2, 50, 127
2, 571041, Note_on_c, 7, 43, 127
2, 571041, Note_on_c, 12, 71, 127
2, 571186, Note_off_c, 12, 71, 127
2, 571192, Note_on_c, 10, 69, 127
2, 571330, Note_off_c, 10, 69, 127
2, 571342, Note_on_c, 7, 67, 127
2, 571470, Note_off_c, 7, 67, 127
2, 571494, Note_on_c, 7, 67, 127
2, 571604, Note_off_c, 7, 43, 127
2, 571639, Note_off_c, 7, 67, 127
2, 571646, Note_on_c, 7, 55, 127
2, 571646, Note_on_c, 10, 69, 127
2, 571784, Note_off_c, 10, 69, 127
2, 571784, Note_off_c, 7, 55, 127
2, 571797, Note_on_c, 5, 53, 127
2, 571797, Note_on_c, 12, 71, 127
2, 571925, Note_off_c, 12, 71, 127
2, 571925, Note_off_c, 5, 53, 127
2, 571948, Note_on_c, 4, 52, 127
2, 571948, Note_on_c, 0, 72, 127
2, 572093, Note_off_c, 0, 72, 127
2, 572093, Note_off_c, 4, 52, 127
2, 572100, Note_on_c, 5, 53, 127
2, 572100, Note_on_c, 2, 74, 127
2, 572238, Note_off_c, 2, 74, 127
2, 572238, Note_off_c, 5, 53, 127
2, 572250, Note_on_c, 7, 55, 127
2, 572250, Note_on_c, 4, 76, 127
2, 572378, Note_off_c, 4, 76, 127
2, 572378, Note_off_c, 7, 55, 127
2, 572402, Note_on_c, 7, 55, 127
2, 572402, Note_on_c, 4, 76, 127
2, 572547, Note_off_c, 4, 76, 127
2, 572547, Note_off_c, 7, 55, 127
2, 572554, Note_on_c, 10, 57, 127
2, 572554, Note_on_c, 5, 77, 127
2, 572692, Note_off_c, 5, 77, 127
2, 572692, Note_off_c, 10, 57, 127
2, 572705, Note_on_c, 12, 59, 127
2, 572705, Note_on_c, 7, 79, 127
2, 572833, Note_off_c, 7, 79, 127
2, 572833, Note_off_c, 12, 59, 127
2, 572856, Note_on_c, 0, 60, 127
2, 572856, Note_on_c, 7, 79, 127
2, 572927, Note_off_c, 7, 79, 127
2, 572933, Note_on_c, 5, 77, 127
2, 573001, Note_off_c, 0, 60, 127
2, 573004, Note_off_c, 5, 77, 127
2, 573008, Note_on_c, 7, 43, 127
2, 573008, Note_on_c, 7, 79, 127
2, 573146, Note_off_c, 7, 43, 127
2, 573158, Note_on_c, 0, 48, 127
2, 573286, Note_off_c, 0, 48, 127
2, 573300, Note_off_c, 7, 79, 127
2, 573310, Note_on_c, 4, 52, 127
2, 573310, Note_on_c, 7, 79, 127
2, 573455, Note_off_c, 7, 79, 127
2, 573455, Note_off_c, 4, 52, 127
2, 573462, Note_on_c, 0, 48, 127
2, 573462, Note_on_c, 4, 76, 127
2, 573600, Note_off_c, 4, 76, 127
2, 573600, Note_off_c, 0, 48, 127
2, 573612, Note_on_c, 4, 52, 127
2, 573612, Note_on_c, 0, 72, 127
2, 573740, Note_off_c, 0, 72, 127
2, 573740, Note_off_c, 4, 52, 127
2, 573764, Note_on_c, 12, 47, 127
2, 573764, Note_on_c, 7, 79, 127
2, 573835, Note_off_c, 7, 79, 127
2, 573840, Note_on_c, 5, 77, 127
2, 573909, Note_off_c, 12, 47, 127
2, 573911, Note_off_c, 5, 77, 127
2, 573915, Note_on_c, 7, 43, 127
2, 573915, Note_on_c, 7, 79, 127
2, 574053, Note_off_c, 7, 43, 127
2, 574066, Note_on_c, 12, 47, 127
2, 574194, Note_off_c, 12, 47, 127
2, 574207, Note_off_c, 7, 79, 127
2, 574218, Note_on_c, 2, 50, 127
2, 574218, Note_on_c, 7, 79, 127
2, 574363, Note_off_c, 7, 79, 127
2, 574363, Note_off_c, 2, 50, 127
2, 574370, Note_on_c, 12, 47, 127
2, 574370, Note_on_c, 2, 74, 127
2, 574508, Note_off_c, 2, 74, 127
2, 574508, Note_off_c, 12, 47, 127
2, 574520, Note_on_c, 2, 50, 127
2, 574520, Note_on_c, 12, 71, 127
2, 574648, Note_off_c, 12, 71, 127
2, 574648, Note_off_c, 2, 50, 127
2, 574671, Note_on_c, 4, 52, 127
2, 574671, Note_on_c, 7, 79, 127
2, 574742, Note_off_c, 7, 79, 127
2, 574748, Note_on_c, 5, 77, 127
2, 574816, Note_off_c, 4, 52, 127
2, 574819, Note_off_c, 5, 77, 127
2, 574824, Note_on_c, 7, 43, 127
2, 574824, Note_on_c, 7, 79, 127
2, 574962, Note_off_c, 7, 43, 127
2, 574974, Note_on_c, 0, 48, 127
2, 575102, Note_off_c, 0, 48, 127
2, 575116, Note_off_c, 7, 79, 127
2, 575125, Note_on_c, 4, 52, 127
2, 575125, Note_on_c, 7, 79, 127
2, 575270, Note_off_c, 7, 79, 127
2, 575270, Note_off_c, 4, 52, 127
2, 575278, Note_on_c, 0, 48, 127
2, 575278, Note_on_c, 4, 76, 127
2, 575416, Note_off_c, 4, 76, 127
2, 575416, Note_off_c, 0, 48, 127
2, 575427, Note_on_c, 4, 52, 127
2, 575427, Note_on_c, 0, 72, 127
2, 575555, Note_off_c, 0, 72, 127
2, 575555, Note_off_c, 4, 52, 127
2, 575580, Note_on_c, 12, 47, 127
2, 575580, Note_on_c, 7, 79, 127
2, 575651, Note_off_c, 7, 79, 127
2, 575655, Note_on_c, 5, 77, 127
2, 575725, Note_off_c, 12, 47, 127
2, 575726, Note_off_c, 5, 77, 127
2, 575730, Note_on_c, 7, 43, 127
2, 575730, Note_on_c, 7, 79, 127
2, 575868, Note_off_c, 7, 43, 127
2, 575882, Note_on_c, 12, 47, 127
2, 576010, Note_off_c, 12, 47, 127
2, 576022, Note_off_c, 7, 79, 127
2, 576033, Note_on_c, 2, 50, 127
2, 576033, Note_on_c, 7, 79, 127
2, 576178, Note_off_c, 7, 79, 127
2, 576178, Note_off_c, 2, 50, 127
2, 576186, Note_on_c, 12, 47, 127
2, 576186, Note_on_c, 2, 74, 127
2, 576324, Note_off_c, 2, 74, 127
2, 576324, Note_off_c, 12, 47, 127
2, 576335, Note_on_c, 2, 50, 127
2, 576335, Note_on_c, 12, 71, 127
2, 576463, Note_off_c, 12, 71, 127
2, 576463, Note_off_c, 2, 50, 127
2, 576487, Note_on_c, 4, 52, 127
2, 576487, Note_on_c, 0, 72, 127
2, 576632, Note_off_c, 0, 72, 127
2, 576632, Note_off_c, 4, 52, 127
2, 576639, Note_on_c, 0, 48, 127
2, 576639, Note_on_c, 10, 69, 127
2, 576777, Note_off_c, 10, 69, 127
2, 576777, Note_off_c, 0, 48, 127
2, 576789, Note_on_c, 10, 45, 127
2, 576789, Note_on_c, 5, 77, 127
2, 576917, Note_off_c, 5, 77, 127
2, 576917, Note_off_c, 10, 45, 127
2, 576941, Note_on_c, 2, 50, 127
2, 576941, Note_on_c, 12, 71, 127
2, 577086, Note_off_c, 12, 71, 127
2, 577086, Note_off_c, 2, 50, 127
2, 577093, Note_on_c, 12, 47, 127
2, 577093, Note_on_c, 7, 67, 127
2, 577231, Note_off_c, 7, 67, 127
2, 577231, Note_off_c, 12, 47, 127
2, 577242, Note_on_c, 7, 43, 127
2, 577242, Note_on_c, 4, 76, 127
2, 577370, Note_off_c, 4, 76, 127
2, 577370, Note_off_c, 7, 43, 127
2, 577396, Note_on_c, 0, 48, 127
2, 577396, Note_on_c, 10, 69, 127
2, 577541, Note_off_c, 10, 69, 127
2, 577541, Note_off_c, 0, 48, 127
2, 577546, Note_on_c, 10, 45, 127
2, 577546, Note_on_c, 5, 65, 127
2, 577684, Note_off_c, 5, 65, 127
2, 577684, Note_off_c, 10, 45, 127
2, 577697, Note_on_c, 5, 41, 127
2, 577697, Note_on_c, 2, 74, 127
2, 577825, Note_off_c, 2, 74, 127
2, 577825, Note_off_c, 5, 41, 127
2, 577848, Note_on_c, 12, 47, 127
2, 577848, Note_on_c, 7, 67, 127
2, 577993, Note_off_c, 7, 67, 127
2, 577993, Note_off_c, 12, 47, 127
2, 578001, Note_on_c, 7, 43, 127
2, 578001, Note_on_c, 4, 64, 127
2, 578139, Note_off_c, 4, 64, 127
2, 578139, Note_off_c, 7, 43, 127
2, 578151, Note_on_c, 4, 40, 127
2, 578151, Note_on_c, 0, 72, 127
2, 578279, Note_off_c, 0, 72, 127
2, 578279, Note_off_c, 4, 40, 127
2, 578303, Note_on_c, 10, 45, 127
2, 578303, Note_on_c, 5, 65, 127
2, 578448, Note_off_c, 5, 65, 127
2, 578448, Note_off_c, 10, 45, 127
2, 578455, Note_on_c, 5, 41, 127
2, 578455, Note_on_c, 2, 62, 127
2, 578593, Note_off_c, 2, 62, 127
2, 578593, Note_off_c, 5, 41, 127
2, 578604, Note_on_c, 2, 38, 127
2, 578604, Note_on_c, 0, 72, 127
2, 578732, Note_off_c, 0, 72, 127
2, 578732, Note_off_c, 2, 38, 127
2, 578756, Note_on_c, 7, 43, 127
2, 578756, Note_on_c, 5, 65, 127
2, 578901, Note_off_c, 5, 65, 127
2, 578901, Note_off_c, 7, 43, 127
2, 578909, Note_on_c, 5, 41, 127
2, 578909, Note_on_c, 2, 62, 127
2, 579047, Note_off_c, 2, 62, 127
2, 579047, Note_off_c, 5, 41, 127
2, 579058, Note_on_c, 7, 43, 127
2, 579058, Note_on_c, 12, 71, 127
2, 579186, Note_off_c, 12, 71, 127
2, 579186, Note_off_c, 7, 43, 127
2, 579211, Note_on_c, 0, 36, 127
2, 579211, Note_on_c, 0, 72, 127
2, 579356, Note_off_c, 0, 72, 127
2, 579362, Note_on_c, 4, 64, 127
2, 579500, Note_off_c, 4, 64, 127
2, 579512, Note_on_c, 7, 67, 127
2, 579640, Note_off_c, 7, 67, 127
2, 579664, Note_on_c, 0, 60, 127
2, 579961, Note_off_c, 0, 60, 127
2, 579962, Note_off_c, 0, 36, 127
2, 579968, Note_on_c, 7, 67, 127
2, 580096, Note_off_c, 7, 67, 127
2, 580120, Note_on_c, 4, 64, 127
2, 580265, Note_off_c, 4, 64, 127
2, 580270, Note_on_c, 7, 67, 127
2, 580408, Note_off_c, 7, 67, 127
2, 580422, Note_on_c, 4, 64, 127
2, 580550, Note_off_c, 4, 64, 127
2, 580574, Note_on_c, 0, 60, 127
2, 580719, Note_off_c, 0, 60, 127
2, 580726, Note_on_c, 4, 64, 127
2, 580864, Note_off_c, 4, 64, 127
2, 580876, Note_on_c, 0, 60, 127
2, 580876, Note_on_c, 7, 79, 127
2, 581004, Note_off_c, 7, 79, 127
2, 581004, Note_off_c, 0, 60, 127
2, 581028, Note_on_c, 7, 55, 127
2, 581028, Note_on_c, 4, 76, 127
2, 581173, Note_off_c, 4, 76, 127
2, 581179, Note_on_c, 7, 79, 127
2, 581317, Note_off_c, 7, 79, 127
2, 581325, Note_off_c, 7, 55, 127
2, 581331, Note_on_c, 0, 60, 127
2, 581331, Note_on_c, 4, 76, 127
2, 581459, Note_off_c, 4, 76, 127
2, 581459, Note_off_c, 0, 60, 127
2, 581484, Note_on_c, 0, 48, 127
2, 581484, Note_on_c, 0, 72, 127
2, 581629, Note_off_c, 0, 72, 127
2, 581635, Note_on_c, 4, 76, 127
2, 581773, Note_off_c, 4, 76, 127
2, 581786, Note_on_c, 0, 72, 127
2, 581914, Note_off_c, 0, 72, 127
2, 581937, Note_on_c, 7, 67, 127
2, 582082, Note_off_c, 7, 67, 127
2, 582083, Note_off_c, 0, 48, 127
2, 582088, Note_on_c, 2, 50, 127
2, 582088, Note_on_c, 0, 72, 127
2, 582226, Note_off_c, 0, 72, 127
2, 582226, Note_off_c, 2, 50, 127
2, 582240, Note_on_c, 4, 52, 127
2, 582240, Note_on_c, 11, 70, 127
2, 582368, Note_off_c, 11, 70, 127
2, 582368, Note_off_c, 4, 52, 127
2, 582391, Note_on_c, 5, 53, 127
2, 582391, Note_on_c, 10, 69, 127
2, 582536, Note_off_c, 10, 69, 127
2, 582536, Note_off_c, 5, 53, 127
2, 582544, Note_on_c, 4, 52, 127
2, 582544, Note_on_c, 11, 70, 127
2, 582682, Note_off_c, 11, 70, 127
2, 582682, Note_off_c, 4, 52, 127
2, 582693, Note_on_c, 7, 55, 127
2, 582693, Note_on_c, 7, 67, 127
2, 582821, Note_off_c, 7, 67, 127
2, 582821, Note_off_c, 7, 55, 127
2, 582844, Note_on_c, 10, 57, 127
2, 582844, Note_on_c, 5, 65, 127
2, 582989, Note_off_c, 5, 65, 127
2, 582989, Note_off_c, 10, 57, 127
2, 582996, Note_on_c, 7, 55, 127
2, 582996, Note_on_c, 4, 64, 127
2, 583134, Note_off_c, 4, 64, 127
2, 583134, Note_off_c, 7, 55, 127
2, 583147, Note_on_c, 11, 58, 127
2, 583147, Note_on_c, 7, 67, 127
2, 583275, Note_off_c, 7, 67, 127
2, 583275, Note_off_c, 11, 58, 127
2, 583299, Note_on_c, 10, 57, 127
2, 583299, Note_on_c, 5, 65, 127
2, 583444, Note_off_c, 10, 57, 127
2, 583451, Note_on_c, 11, 58, 127
2, 583589, Note_off_c, 11, 58, 127
2, 583596, Note_off_c, 5, 65, 127
2, 583603, Note_on_c, 0, 60, 127
2, 583603, Note_on_c, 0, 84, 127
2, 583731, Note_off_c, 0, 84, 127
2, 583731, Note_off_c, 0, 60, 127
2, 583754, Note_on_c, 5, 53, 127
2, 583754, Note_on_c, 10, 81, 127
2, 583899, Note_off_c, 10, 81, 127
2, 583907, Note_on_c, 0, 84, 127
2, 584045, Note_off_c, 0, 84, 127
2, 584057, Note_on_c, 10, 81, 127
2, 584185, Note_off_c, 10, 81, 127
2, 584208, Note_on_c, 5, 77, 127
2, 584353, Note_off_c, 5, 77, 127
2, 584361, Note_on_c, 10, 81, 127
2, 584430, Note_off_c, 5, 53, 127
2, 584499, Note_off_c, 10, 81, 127
2, 584510, Note_on_c, 5, 53, 127
2, 584510, Note_on_c, 5, 77, 127
2, 584638, Note_off_c, 5, 77, 127
2, 584638, Note_off_c, 5, 53, 127
2, 584662, Note_on_c, 10, 57, 127
2, 584662, Note_on_c, 0, 72, 127
2, 584807, Note_off_c, 10, 57, 127
2, 584814, Note_on_c, 5, 53, 127
2, 584952, Note_off_c, 5, 53, 127
2, 584959, Note_off_c, 0, 72, 127
2, 584966, Note_on_c, 10, 57, 127
2, 584966, Note_on_c, 5, 77, 127
2, 585094, Note_off_c, 5, 77, 127
2, 585094, Note_off_c, 10, 57, 127
2, 585119, Note_on_c, 0, 60, 127
2, 585119, Note_on_c, 5, 65, 127
2, 585264, Note_off_c, 0, 60, 127
2, 585269, Note_on_c, 10, 57, 127
2, 585407, Note_off_c, 10, 57, 127
2, 585419, Note_on_c, 0, 60, 127
2, 585547, Note_off_c, 0, 60, 127
2, 585572, Note_on_c, 3, 63, 127
2, 585718, Note_off_c, 5, 65, 127
2, 585724, Note_on_c, 7, 67, 127
2, 585862, Note_off_c, 7, 67, 127
2, 585869, Note_off_c, 3, 63, 127
2, 585876, Note_on_c, 3, 51, 127
2, 585876, Note_on_c, 10, 69, 127
2, 586004, Note_off_c, 10, 69, 127
2, 586004, Note_off_c, 3, 51, 127
2, 586028, Note_on_c, 2, 50, 127
2, 586028, Note_on_c, 11, 70, 127
2, 586173, Note_off_c, 11, 70, 127
2, 586180, Note_on_c, 10, 69, 127
2, 586318, Note_off_c, 10, 69, 127
2, 586325, Note_off_c, 2, 50, 127
2, 586331, Note_on_c, 0, 48, 127
2, 586331, Note_on_c, 0, 72, 127
2, 586459, Note_off_c, 0, 72, 127
2, 586459, Note_off_c, 0, 48, 127
2, 586483, Note_on_c, 11, 46, 127
2, 586483, Note_on_c, 2, 74, 127
2, 586628, Note_off_c, 2, 74, 127
2, 586635, Note_on_c, 0, 72, 127
2, 586773, Note_off_c, 0, 72, 127
2, 586780, Note_off_c, 11, 46, 127
2, 586787, Note_on_c, 5, 53, 127
2, 586787, Note_on_c, 3, 75, 127
2, 586915, Note_off_c, 3, 75, 127
2, 586915, Note_off_c, 5, 53, 127
2, 586939, Note_on_c, 11, 58, 127
2, 586939, Note_on_c, 2, 74, 127
2, 587084, Note_off_c, 2, 74, 127
2, 587084, Note_off_c, 11, 58, 127
2, 587090, Note_on_c, 0, 60, 127
2, 587090, Note_on_c, 4, 76, 127
2, 587228, Note_off_c, 4, 76, 127
2, 587228, Note_off_c, 0, 60, 127
2, 587241, Note_on_c, 10, 57, 127
2, 587241, Note_on_c, 6, 78, 127
2, 587369, Note_off_c, 6, 78, 127
2, 587369, Note_off_c, 10, 57, 127
2, 587393, Note_on_c, 11, 58, 127
2, 587393, Note_on_c, 7, 79, 127
2, 587538, Note_off_c, 7, 79, 127
2, 587538, Note_off_c, 11, 58, 127
2, 587544, Note_on_c, 0, 60, 127
2, 587544, Note_on_c, 6, 78, 127
2, 587682, Note_off_c, 6, 78, 127
2, 587682, Note_off_c, 0, 60, 127
2, 587695, Note_on_c, 10, 57, 127
2, 587695, Note_on_c, 10, 81, 127
2, 587823, Note_off_c, 10, 81, 127
2, 587823, Note_off_c, 10, 57, 127
2, 587846, Note_on_c, 12, 59, 127
2, 587846, Note_on_c, 7, 79, 127
2, 587991, Note_off_c, 7, 79, 127
2, 587998, Note_on_c, 5, 77, 127
2, 588136, Note_off_c, 5, 77, 127
2, 588143, Note_off_c, 12, 59, 127
2, 588150, Note_on_c, 1, 61, 127
2, 588150, Note_on_c, 4, 76, 127
2, 588278, Note_off_c, 4, 76, 127
2, 588278, Note_off_c, 1, 61, 127
2, 588302, Note_on_c, 2, 62, 127
2, 588302, Note_on_c, 5, 77, 127
2, 588447, Note_off_c, 5, 77, 127
2, 588447, Note_off_c, 2, 62, 127
2, 588454, Note_on_c, 1, 61, 127
2, 588454, Note_on_c, 4, 76, 127
2, 588592, Note_off_c, 4, 76, 127
2, 588592, Note_off_c, 1, 61, 127
2, 588603, Note_on_c, 4, 64, 127
2, 588603, Note_on_c, 7, 79, 127
2, 588731, Note_off_c, 7, 79, 127
2, 588731, Note_off_c, 4, 64, 127
2, 588757, Note_on_c, 2, 62, 127
2, 588757, Note_on_c, 5, 77, 127
2, 588902, Note_off_c, 5, 77, 127
2, 588902, Note_off_c, 2, 62, 127
2, 588907, Note_on_c, 7, 55, 127
2, 588907, Note_on_c, 4, 76, 127
2, 589045, Note_off_c, 4, 76, 127
2, 589045, Note_off_c, 7, 55, 127
2, 589058, Note_on_c, 11, 58, 127
2, 589058, Note_on_c, 2, 74, 127
2, 589186, Note_off_c, 2, 74, 127
2, 589186, Note_off_c, 11, 58, 127
2, 589210, Note_on_c, 10, 57, 127
2, 589210, Note_on_c, 1, 73, 127
2, 589355, Note_off_c, 1, 73, 127
2, 589362, Note_on_c, 12, 71, 127
2, 589500, Note_off_c, 12, 71, 127
2, 589507, Note_off_c, 10, 57, 127
2, 589513, Note_on_c, 10, 45, 127
2, 589513, Note_on_c, 2, 74, 127
2, 589641, Note_off_c, 2, 74, 127
2, 589641, Note_off_c, 10, 45, 127
2, 589665, Note_on_c, 10, 57, 127
2, 589665, Note_on_c, 1, 73, 127
2, 589736, Note_off_c, 10, 57, 127
2, 589741, Note_on_c, 7, 55, 127
2, 589810, Note_off_c, 1, 73, 127
2, 589812, Note_off_c, 7, 55, 127
2, 589817, Note_on_c, 10, 57, 127
2, 589817, Note_on_c, 10, 69, 127
2, 589955, Note_off_c, 10, 69, 127
2, 589968, Note_on_c, 1, 73, 127
2, 590096, Note_off_c, 1, 73, 127
2, 590119, Note_on_c, 2, 74, 127
2, 590264, Note_off_c, 2, 74, 127
2, 590271, Note_on_c, 1, 73, 127
2, 590409, Note_off_c, 1, 73, 127
2, 590412, Note_off_c, 10, 57, 127
2, 590421, Note_on_c, 10, 45, 127
2, 590421, Note_on_c, 4, 76, 127
2, 590549, Note_off_c, 4, 76, 127
2, 590549, Note_off_c, 10, 45, 127
2, 590573, Note_on_c, 10, 57, 127
2, 590573, Note_on_c, 2, 74, 127
2, 590644, Note_off_c, 10, 57, 127
2, 590650, Note_on_c, 7, 55, 127
2, 590718, Note_off_c, 2, 74, 127
2, 590721, Note_off_c, 7, 55, 127
2, 590725, Note_on_c, 10, 57, 127
2, 590725, Note_on_c, 10, 69, 127
2, 590863, Note_off_c, 10, 69, 127
2, 590876, Note_on_c, 2, 74, 127
2, 591004, Note_off_c, 2, 74, 127
2, 591027, Note_on_c, 4, 76, 127
2, 591172, Note_off_c, 4, 76, 127
2, 591179, Note_on_c, 2, 74, 127
2, 591317, Note_off_c, 2, 74, 127
2, 591320, Note_off_c, 10, 57, 127
2, 591329, Note_on_c, 10, 45, 127
2, 591329, Note_on_c, 5, 77, 127
2, 591457, Note_off_c, 5, 77, 127
2, 591457, Note_off_c, 10, 45, 127
2, 591481, Note_on_c, 10, 57, 127
2, 591481, Note_on_c, 4, 76, 127
2, 591552, Note_off_c, 10, 57, 127
2, 591557, Note_on_c, 7, 55, 127
2, 591626, Note_off_c, 4, 76, 127
2, 591628, Note_off_c, 7, 55, 127
2, 591632, Note_on_c, 10, 57, 127
2, 591632, Note_on_c, 10, 69, 127
2, 591770, Note_off_c, 10, 69, 127
2, 591784, Note_on_c, 4, 76, 127
2, 591912, Note_off_c, 4, 76, 127
2, 591934, Note_on_c, 5, 77, 127
2, 592079, Note_off_c, 5, 77, 127
2, 592087, Note_on_c, 4, 76, 127
2, 592225, Note_off_c, 4, 76, 127
2, 592227, Note_off_c, 10, 57, 127
2, 592237, Note_on_c, 10, 45, 127
2, 592237, Note_on_c, 7, 79, 127
2, 592365, Note_off_c, 7, 79, 127
2, 592365, Note_off_c, 10, 45, 127
2, 592388, Note_on_c, 10, 57, 127
2, 592388, Note_on_c, 5, 77, 127
2, 592533, Note_off_c, 5, 77, 127
2, 592541, Note_on_c, 4, 76, 127
2, 592679, Note_off_c, 4, 76, 127
2, 592685, Note_off_c, 10, 57, 127
2, 592692, Note_on_c, 10, 45, 127
2, 592692, Note_on_c, 2, 74, 127
2, 592820, Note_off_c, 2, 74, 127
2, 592820, Note_off_c, 10, 45, 127
2, 592845, Note_on_c, 10, 57, 127
2, 592845, Note_on_c, 1, 73, 127
2, 592990, Note_off_c, 1, 73, 127
2, 592990, Note_off_c, 10, 57, 127
2, 592996, Note_on_c, 7, 55, 127
2, 592996, Note_on_c, 4, 76, 127
2, 593134, Note_off_c, 4, 76, 127
2, 593134, Note_off_c, 7, 55, 127
2, 593145, Note_on_c, 11, 58, 127
2, 593145, Note_on_c, 2, 74, 127
2, 593273, Note_off_c, 2, 74, 127
2, 593273, Note_off_c, 11, 58, 127
2, 593298, Note_on_c, 10, 57, 127
2, 593298, Note_on_c, 1, 73, 127
2, 593443, Note_off_c, 1, 73, 127
2, 593443, Note_off_c, 10, 57, 127
2, 593450, Note_on_c, 7, 55, 127
2, 593450, Note_on_c, 4, 76, 127
2, 593588, Note_off_c, 4, 76, 127
2, 593588, Note_off_c, 7, 55, 127
2, 593601, Note_on_c, 11, 58, 127
2, 593601, Note_on_c, 2, 74, 127
2, 593729, Note_off_c, 2, 74, 127
2, 593729, Note_off_c, 11, 58, 127
2, 593752, Note_on_c, 10, 57, 127
2, 593752, Note_on_c, 1, 73, 127
2, 593897, Note_off_c, 1, 73, 127
2, 593897, Note_off_c, 10, 57, 127
2, 593905, Note_on_c, 7, 55, 127
2, 593905, Note_on_c, 4, 76, 127
2, 594043, Note_off_c, 4, 76, 127
2, 594043, Note_off_c, 7, 55, 127
2, 594053, Note_on_c, 11, 58, 127
2, 594053, Note_on_c, 2, 74, 127
2, 594181, Note_off_c, 2, 74, 127
2, 594181, Note_off_c, 11, 58, 127
2, 594206, Note_on_c, 10, 57, 127
2, 594206, Note_on_c, 2, 74, 127
2, 594277, Note_off_c, 2, 74, 127
2, 594282, Note_on_c, 1, 73, 127
2, 594351, Note_off_c, 10, 57, 127
2, 594353, Note_off_c, 1, 73, 127
2, 594358, Note_on_c, 11, 58, 127
2, 594358, Note_on_c, 2, 74, 127
2, 594422, Note_off_c, 2, 74, 127
2, 594433, Note_on_c, 1, 73, 127
2, 594494, Note_off_c, 11, 58, 127
2, 594504, Note_off_c, 1, 73, 127
2, 594508, Note_on_c, 7, 55, 127
2, 594508, Note_on_c, 10, 69, 127
2, 594636, Note_off_c, 10, 69, 127
2, 594636, Note_off_c, 7, 55, 127
2, 594661, Note_on_c, 5, 53, 127
2, 594661, Note_on_c, 10, 81, 127
2, 594806, Note_off_c, 5, 53, 127
2, 594812, Note_on_c, 4, 52, 127
2, 594950, Note_off_c, 4, 52, 127
2, 594958, Note_off_c, 10, 81, 127
2, 594963, Note_on_c, 7, 55, 127
2, 594963, Note_on_c, 10, 69, 127
2, 595091, Note_off_c, 10, 69, 127
2, 595091, Note_off_c, 7, 55, 127
2, 595116, Note_on_c, 5, 53, 127
2, 595116, Note_on_c, 10, 81, 127
2, 595187, Note_off_c, 10, 81, 127
2, 595191, Note_on_c, 7, 79, 127
2, 595261, Note_off_c, 5, 53, 127
2, 595262, Note_off_c, 7, 79, 127
2, 595266, Note_on_c, 10, 57, 127
2, 595266, Note_on_c, 10, 81, 127
2, 595404, Note_off_c, 10, 57, 127
2, 595418, Note_on_c, 4, 52, 127
2, 595546, Note_off_c, 4, 52, 127
2, 595569, Note_on_c, 5, 53, 127
2, 595714, Note_off_c, 5, 53, 127
2, 595720, Note_on_c, 4, 52, 127
2, 595858, Note_off_c, 4, 52, 127
2, 595861, Note_off_c, 10, 81, 127
2, 595871, Note_on_c, 10, 57, 127
2, 595871, Note_on_c, 10, 69, 127
2, 595999, Note_off_c, 10, 69, 127
2, 595999, Note_off_c, 10, 57, 127
2, 596023, Note_on_c, 5, 53, 127
2, 596023, Note_on_c, 10, 81, 127
2, 596094, Note_off_c, 10, 81, 127
2, 596100, Note_on_c, 7, 79, 127
2, 596168, Note_off_c, 5, 53, 127
2, 596171, Note_off_c, 7, 79, 127
2, 596175, Note_on_c, 4, 52, 127
2, 596175, Note_on_c, 10, 81, 127
2, 596313, Note_off_c, 10, 81, 127
2, 596313, Note_off_c, 4, 52, 127
2, 596326, Note_on_c, 2, 50, 127
2, 596326, Note_on_c, 10, 69, 127
2, 596454, Note_off_c, 10, 69, 127
2, 596454, Note_off_c, 2, 50, 127
2, 596477, Note_on_c, 1, 49, 127
2, 596477, Note_on_c, 10, 81, 127
2, 596622, Note_off_c, 1, 49, 127
2, 596629, Note_on_c, 12, 47, 127
2, 596767, Note_off_c, 12, 47, 127
2, 596774, Note_off_c, 10, 81, 127
2, 596780, Note_on_c, 2, 50, 127
2, 596780, Note_on_c, 10, 69, 127
2, 596908, Note_off_c, 10, 69, 127
2, 596908, Note_off_c, 2, 50, 127
2, 596934, Note_on_c, 1, 49, 127
2, 596934, Note_on_c, 10, 81, 127
2, 597005, Note_off_c, 10, 81, 127
2, 597009, Note_on_c, 7, 79, 127
2, 597079, Note_off_c, 1, 49, 127
2, 597080, Note_off_c, 7, 79, 127
2, 597085, Note_on_c, 4, 52, 127
2, 597085, Note_on_c, 10, 81, 127
2, 597223, Note_off_c, 4, 52, 127
2, 597236, Note_on_c, 12, 47, 127
2, 597364, Note_off_c, 12, 47, 127
2, 597386, Note_on_c, 1, 49, 127
2, 597531, Note_off_c, 1, 49, 127
2, 597538, Note_on_c, 12, 47, 127
2, 597676, Note_off_c, 12, 47, 127
2, 597680, Note_off_c, 10, 81, 127
2, 597689, Note_on_c, 2, 50, 127
2, 597689, Note_on_c, 10, 69, 127
2, 597817, Note_off_c, 10, 69, 127
2, 597817, Note_off_c, 2, 50, 127
2, 597841, Note_on_c, 1, 49, 127
2, 597841, Note_on_c, 10, 81, 127
2, 597986, Note_off_c, 1, 49, 127
2, 597994, Note_on_c, 12, 47, 127
2, 598132, Note_off_c, 12, 47, 127
2, 598138, Note_off_c, 10, 81, 127
2, 598144, Note_on_c, 10, 45, 127
2, 598144, Note_on_c, 4, 76, 127
2, 598272, Note_off_c, 4, 76, 127
2, 598272, Note_off_c, 10, 45, 127
2, 598297, Note_on_c, 2, 50, 127
2, 598297, Note_on_c, 5, 77, 127
2, 598368, Note_off_c, 5, 77, 127
2, 598373, Note_on_c, 7, 79, 127
2, 598444, Note_off_c, 7, 79, 127
2, 598448, Note_on_c, 10, 81, 127
2, 598586, Note_off_c, 10, 81, 127
2, 598594, Note_off_c, 2, 50, 127
2, 598601, Note_on_c, 5, 53, 127
2, 598601, Note_on_c, 2, 74, 127
2, 598729, Note_off_c, 2, 74, 127
2, 598729, Note_off_c, 5, 53, 127
2, 598752, Note_on_c, 10, 57, 127
2, 598752, Note_on_c, 10, 69, 127
2, 598897, Note_off_c, 10, 69, 127
2, 598903, Note_on_c, 2, 74, 127
2, 599041, Note_off_c, 2, 74, 127
2, 599049, Note_off_c, 10, 57, 127
2, 599056, Note_on_c, 10, 45, 127
2, 599056, Note_on_c, 1, 73, 127
2, 599184, Note_off_c, 1, 73, 127
2, 599184, Note_off_c, 10, 45, 127
2, 599207, Note_on_c, 2, 50, 127
2, 599207, Note_on_c, 2, 74, 127
2, 599352, Note_off_c, 2, 50, 127
2, 599359, Note_on_c, 10, 45, 127
2, 599497, Note_off_c, 10, 45, 127
2, 599510, Note_on_c, 2, 50, 127
2, 599638, Note_off_c, 2, 50, 127
2, 599661, Note_on_c, 5, 53, 127
2, 599806, Note_off_c, 5, 53, 127
2, 599814, Note_on_c, 2, 50, 127
2, 599883, Note_off_c, 2, 74, 127
2, 599952, Note_off_c, 2, 50, 127
2, 599963, Note_on_c, 5, 53, 127
2, 599963, Note_on_c, 2, 74, 127
2, 600091, Note_off_c, 2, 74, 127
2, 600091, Note_off_c, 5, 53, 127
2, 600116, Note_on_c, 10, 57, 127
2, 600116, Note_on_c, 0, 72, 127
2, 600261, Note_off_c, 0, 72, 127
2, 600267, Note_on_c, 5, 77, 127
2, 600405, Note_off_c, 5, 77, 127
2, 600417, Note_on_c, 0, 72, 127
2, 600545, Note_off_c, 0, 72, 127
2, 600570, Note_on_c, 10, 69, 127
2, 600715, Note_off_c, 10, 69, 127
2, 600721, Note_on_c, 0, 72, 127
2, 600792, Note_off_c, 10, 57, 127
2, 600859, Note_off_c, 0, 72, 127
2, 600870, Note_on_c, 0, 60, 127
2, 600870, Note_on_c, 10, 69, 127
2, 600998, Note_off_c, 10, 69, 127
2, 600998, Note_off_c, 0, 60, 127
2, 601023, Note_on_c, 10, 57, 127
2, 601023, Note_on_c, 5, 65, 127
2, 601168, Note_off_c, 10, 57, 127
2, 601175, Note_on_c, 0, 60, 127
2, 601313, Note_off_c, 0, 60, 127
2, 601320, Note_off_c, 5, 65, 127
2, 601327, Note_on_c, 10, 57, 127
2, 601327, Note_on_c, 0, 72, 127
2, 601455, Note_off_c, 0, 72, 127
2, 601455, Note_off_c, 10, 57, 127
2, 601478, Note_on_c, 5, 53, 127
2, 601478, Note_on_c, 0, 60, 127
2, 601623, Note_off_c, 5, 53, 127
2, 601631, Note_on_c, 10, 57, 127
2, 601769, Note_off_c, 10, 57, 127
2, 601780, Note_on_c, 5, 53, 127
2, 601908, Note_off_c, 5, 53, 127
2, 601933, Note_on_c, 0, 48, 127
2, 602077, Note_off_c, 0, 60, 127
2, 602078, Note_off_c, 0, 48, 127
2, 602085, Note_on_c, 5, 53, 127
2, 602085, Note_on_c, 2, 62, 127
2, 602223, Note_off_c, 2, 62, 127
2, 602223, Note_off_c, 5, 53, 127
2, 602235, Note_on_c, 0, 48, 127
2, 602235, Note_on_c, 3, 63, 127
2, 602363, Note_off_c, 3, 63, 127
2, 602363, Note_off_c, 0, 48, 127
2, 602386, Note_on_c, 10, 45, 127
2, 602386, Note_on_c, 5, 65, 127
2, 602531, Note_off_c, 5, 65, 127
2, 602531, Note_off_c, 10, 45, 127
2, 602538, Note_on_c, 0, 48, 127
2, 602538, Note_on_c, 7, 67, 127
2, 602676, Note_off_c, 7, 67, 127
2, 602676, Note_off_c, 0, 48, 127
2, 602687, Note_on_c, 10, 45, 127
2, 602687, Note_on_c, 3, 63, 127
2, 602815, Note_off_c, 3, 63, 127
2, 602815, Note_off_c, 10, 45, 127
2, 602841, Note_on_c, 11, 46, 127
2, 602841, Note_on_c, 2, 62, 127
2, 602986, Note_off_c, 2, 62, 127
2, 602986, Note_off_c, 11, 46, 127
2, 602991, Note_on_c, 5, 41, 127
2, 602991, Note_on_c, 5, 65, 127
2, 603129, Note_off_c, 5, 65, 127
2, 603129, Note_off_c, 5, 41, 127
2, 603143, Note_on_c, 11, 46, 127
2, 603143, Note_on_c, 0, 72, 127
2, 603271, Note_off_c, 0, 72, 127
2, 603271, Note_off_c, 11, 46, 127
2, 603294, Note_on_c, 2, 50, 127
2, 603294, Note_on_c, 11, 70, 127
2, 603439, Note_off_c, 11, 70, 127
2, 603439, Note_off_c, 2, 50, 127
2, 603445, Note_on_c, 11, 46, 127
2, 603445, Note_on_c, 10, 69, 127
2, 603583, Note_off_c, 10, 69, 127
2, 603583, Note_off_c, 11, 46, 127
2, 603596, Note_on_c, 2, 50, 127
2, 603596, Note_on_c, 11, 70, 127
2, 603724, Note_off_c, 11, 70, 127
2, 603724, Note_off_c, 2, 50, 127
2, 603748, Note_on_c, 5, 53, 127
2, 603748, Note_on_c, 0, 60, 127
2, 603893, Note_off_c, 0, 60, 127
2, 603900, Note_on_c, 5, 65, 127
2, 604038, Note_off_c, 5, 65, 127
2, 604051, Note_on_c, 11, 70, 127
2, 604179, Note_off_c, 11, 70, 127
2, 604202, Note_on_c, 10, 69, 127
2, 604347, Note_off_c, 10, 69, 127
2, 604354, Note_on_c, 7, 67, 127
2, 604424, Note_off_c, 5, 53, 127
2, 604492, Note_off_c, 7, 67, 127
2, 604503, Note_on_c, 6, 42, 127
2, 604503, Note_on_c, 10, 69, 127
2, 604631, Note_off_c, 10, 69, 127
2, 604631, Note_off_c, 6, 42, 127
2, 604657, Note_on_c, 7, 43, 127
2, 604657, Note_on_c, 11, 58, 127
2, 604802, Note_off_c, 11, 58, 127
2, 604802, Note_off_c, 7, 43, 127
2, 604807, Note_on_c, 2, 38, 127
2, 604807, Note_on_c, 2, 62, 127
2, 604945, Note_off_c, 2, 62, 127
2, 604945, Note_off_c, 2, 38, 127
2, 604959, Note_on_c, 7, 43, 127
2, 604959, Note_on_c, 10, 69, 127
2, 605087, Note_off_c, 10, 69, 127
2, 605087, Note_off_c, 7, 43, 127
2, 605110, Note_on_c, 11, 46, 127
2, 605110, Note_on_c, 7, 67, 127
2, 605255, Note_off_c, 7, 67, 127
2, 605255, Note_off_c, 11, 46, 127
2, 605261, Note_on_c, 7, 43, 127
2, 605261, Note_on_c, 6, 66, 127
2, 605399, Note_off_c, 6, 66, 127
2, 605399, Note_off_c, 7, 43, 127
2, 605412, Note_on_c, 11, 46, 127
2, 605412, Note_on_c, 7, 67, 127
2, 605540, Note_off_c, 7, 67, 127
2, 605540, Note_off_c, 11, 46, 127
2, 605564, Note_on_c, 2, 50, 127
2, 605564, Note_on_c, 6, 66, 127
2, 605709, Note_off_c, 2, 50, 127
2, 605716, Note_on_c, 0, 48, 127
2, 605854, Note_off_c, 0, 48, 127
2, 605861, Note_off_c, 6, 66, 127
2, 605868, Note_on_c, 3, 51, 127
2, 605868, Note_on_c, 2, 62, 127
2, 605996, Note_off_c, 2, 62, 127
2, 605996, Note_off_c, 3, 51, 127
2, 606019, Note_on_c, 2, 50, 127
2, 606019, Note_on_c, 2, 74, 127
2, 606090, Note_off_c, 2, 74, 127
2, 606095, Note_on_c, 0, 72, 127
2, 606164, Note_off_c, 2, 50, 127
2, 606166, Note_off_c, 0, 72, 127
2, 606171, Note_on_c, 3, 51, 127
2, 606171, Note_on_c, 2, 74, 127
2, 606309, Note_off_c, 3, 51, 127
2, 606321, Note_on_c, 0, 48, 127
2, 606449, Note_off_c, 0, 48, 127
2, 606474, Note_on_c, 11, 46, 127
2, 606619, Note_off_c, 11, 46, 127
2, 606625, Note_on_c, 10, 45, 127
2, 606763, Note_off_c, 10, 45, 127
2, 606766, Note_off_c, 2, 74, 127
2, 606775, Note_on_c, 0, 48, 127
2, 606775, Note_on_c, 2, 62, 127
2, 606903, Note_off_c, 2, 62, 127
2, 606903, Note_off_c, 0, 48, 127
2, 606926, Note_on_c, 11, 46, 127
2, 606926, Note_on_c, 2, 74, 127
2, 606997, Note_off_c, 2, 74, 127
2, 607002, Note_on_c, 0, 72, 127
2, 607071, Note_off_c, 11, 46, 127
2, 607073, Note_off_c, 0, 72, 127
2, 607079, Note_on_c, 0, 48, 127
2, 607079, Note_on_c, 2, 74, 127
2, 607217, Note_off_c, 2, 74, 127
2, 607217, Note_off_c, 0, 48, 127
2, 607230, Note_on_c, 10, 45, 127
2, 607230, Note_on_c, 2, 62, 127
2, 607358, Note_off_c, 2, 62, 127
2, 607358, Note_off_c, 10, 45, 127
2, 607381, Note_on_c, 7, 43, 127
2, 607381, Note_on_c, 2, 74, 127
2, 607526, Note_off_c, 7, 43, 127
2, 607533, Note_on_c, 6, 42, 127
2, 607671, Note_off_c, 6, 42, 127
2, 607678, Note_off_c, 2, 74, 127
2, 607685, Note_on_c, 10, 45, 127
2, 607685, Note_on_c, 2, 62, 127
2, 607813, Note_off_c, 2, 62, 127
2, 607813, Note_off_c, 10, 45, 127
2, 607835, Note_on_c, 7, 43, 127
2, 607835, Note_on_c, 2, 74, 127
2, 607906, Note_off_c, 2, 74, 127
2, 607914, Note_on_c, 0, 72, 127
2, 607980, Note_off_c, 7, 43, 127
2, 607985, Note_off_c, 0, 72, 127
2, 607989, Note_on_c, 11, 46, 127
2, 607989, Note_on_c, 2, 74, 127
2, 608127, Note_off_c, 11, 46, 127
2, 608139, Note_on_c, 10, 45, 127
2, 608267, Note_off_c, 10, 45, 127
2, 608291, Note_on_c, 6, 42, 127
2, 608436, Note_off_c, 6, 42, 127
2, 608443, Note_on_c, 7, 43, 127
2, 608581, Note_off_c, 7, 43, 127
2, 608584, Note_off_c, 2, 74, 127
2, 608592, Note_on_c, 10, 45, 127
2, 608592, Note_on_c, 2, 62, 127
2, 608720, Note_off_c, 2, 62, 127
2, 608720, Note_off_c, 10, 45, 127
2, 608744, Note_on_c, 2, 38, 127
2, 608744, Note_on_c, 2, 74, 127
2, 608889, Note_off_c, 2, 74, 127
2, 608896, Note_on_c, 4, 76, 127
2, 609034, Note_off_c, 4, 76, 127
2, 609047, Note_on_c, 6, 78, 127
2, 609175, Note_off_c, 6, 78, 127
2, 609199, Note_on_c, 7, 79, 127
2, 609344, Note_off_c, 7, 79, 127
2, 609350, Note_on_c, 6, 78, 127
2, 609488, Note_off_c, 6, 78, 127
2, 609495, Note_off_c, 2, 38, 127
2, 609502, Note_on_c, 2, 38, 127
2, 609502, Note_on_c, 10, 81, 127
2, 609630, Note_off_c, 10, 81, 127
2, 609630, Note_off_c, 2, 38, 127
2, 609653, Note_on_c, 2, 50, 127
2, 609653, Note_on_c, 7, 79, 127
2, 609724, Note_off_c, 2, 50, 127
2, 609730, Note_on_c, 0, 48, 127
2, 609798, Note_off_c, 7, 79, 127
2, 609801, Note_off_c, 0, 48, 127
2, 609807, Note_on_c, 2, 50, 127
2, 609807, Note_on_c, 2, 74, 127
2, 609945, Note_off_c, 2, 74, 127
2, 609955, Note_on_c, 7, 79, 127
2, 610083, Note_off_c, 7, 79, 127
2, 610109, Note_on_c, 10, 81, 127
2, 610254, Note_off_c, 10, 81, 127
2, 610259, Note_on_c, 7, 79, 127
2, 610397, Note_off_c, 7, 79, 127
2, 610402, Note_off_c, 2, 50, 127
2, 610409, Note_on_c, 2, 38, 127
2, 610409, Note_on_c, 11, 82, 127
2, 610537, Note_off_c, 11, 82, 127
2, 610537, Note_off_c, 2, 38, 127
2, 610562, Note_on_c, 2, 50, 127
2, 610562, Note_on_c, 10, 81, 127
2, 610633, Note_off_c, 2, 50, 127
2, 610638, Note_on_c, 0, 48, 127
2, 610707, Note_off_c, 10, 81, 127
2, 610709, Note_off_c, 0, 48, 127
2, 610714, Note_on_c, 2, 50, 127
2, 610714, Note_on_c, 2, 74, 127
2, 610852, Note_off_c, 2, 74, 127
2, 610852, Note_off_c, 2, 50, 127
2, 610864, Note_on_c, 2, 38, 127
2, 610864, Note_on_c, 10, 81, 127
2, 610992, Note_off_c, 10, 81, 127
2, 610992, Note_off_c, 2, 38, 127
2, 611016, Note_on_c, 2, 50, 127
2, 611016, Note_on_c, 11, 82, 127
2, 611161, Note_off_c, 11, 82, 127
2, 611167, Note_on_c, 10, 81, 127
2, 611305, Note_off_c, 10, 81, 127
2, 611313, Note_off_c, 2, 50, 127
2, 611319, Note_on_c, 2, 38, 127
2, 611319, Note_on_c, 0, 84, 127
2, 611447, Note_off_c, 0, 84, 127
2, 611447, Note_off_c, 2, 38, 127
2, 611471, Note_on_c, 2, 50, 127
2, 611471, Note_on_c, 11, 82, 127
2, 611542, Note_off_c, 2, 50, 127
2, 611547, Note_on_c, 0, 48, 127
2, 611616, Note_off_c, 11, 82, 127
2, 611618, Note_off_c, 0, 48, 127
2, 611623, Note_on_c, 2, 50, 127
2, 611623, Note_on_c, 10, 81, 127
2, 611761, Note_off_c, 10, 81, 127
2, 611773, Note_on_c, 7, 79, 127
2, 611901, Note_off_c, 7, 79, 127
2, 611925, Note_on_c, 6, 78, 127
2, 612064, Note_off_c, 2, 50, 127
2, 612070, Note_off_c, 6, 78, 127
2, 612076, Note_on_c, 2, 50, 127
2, 612076, Note_on_c, 4, 76, 127
2, 612214, Note_off_c, 4, 76, 127
2, 612214, Note_off_c, 2, 50, 127
2, 612227, Note_on_c, 4, 52, 127
2, 612227, Note_on_c, 2, 74, 127
2, 612355, Note_off_c, 2, 74, 127
2, 612355, Note_off_c, 4, 52, 127
2, 612379, Note_on_c, 6, 54, 127
2, 612379, Note_on_c, 10, 81, 127
2, 612524, Note_off_c, 6, 54, 127
2, 612531, Note_on_c, 4, 52, 127
2, 612669, Note_off_c, 4, 52, 127
2, 612676, Note_off_c, 10, 81, 127
2, 612683, Note_on_c, 2, 50, 127
2, 612683, Note_on_c, 0, 72, 127
2, 612811, Note_off_c, 0, 72, 127
2, 612811, Note_off_c, 2, 50, 127
2, 612835, Note_on_c, 7, 55, 127
2, 612835, Note_on_c, 11, 70, 127
2, 612906, Note_off_c, 11, 70, 127
2, 612910, Note_on_c, 0, 72, 127
2, 612980, Note_off_c, 7, 55, 127
2, 612981, Note_off_c, 0, 72, 127
2, 612985, Note_on_c, 11, 46, 127
2, 612985, Note_on_c, 2, 74, 127
2, 613123, Note_off_c, 2, 74, 127
2, 613123, Note_off_c, 11, 46, 127
2, 613137, Note_on_c, 0, 48, 127
2, 613137, Note_on_c, 7, 67, 127
2, 613265, Note_off_c, 7, 67, 127
2, 613265, Note_off_c, 0, 48, 127
2, 613288, Note_on_c, 2, 50, 127
2, 613288, Note_on_c, 2, 62, 127
2, 613433, Note_off_c, 2, 62, 127
2, 613433, Note_off_c, 2, 50, 127
2, 613441, Note_on_c, 0, 48, 127
2, 613441, Note_on_c, 7, 67, 127
2, 613579, Note_off_c, 7, 67, 127
2, 613579, Note_off_c, 0, 48, 127
2, 613591, Note_on_c, 2, 50, 127
2, 613591, Note_on_c, 6, 66, 127
2, 613719, Note_off_c, 6, 66, 127
2, 613719, Note_off_c, 2, 50, 127
2, 613742, Note_on_c, 7, 43, 127
2, 613742, Note_on_c, 7, 67, 127
2, 613887, Note_off_c, 7, 43, 127
2, 613894, Note_on_c, 2, 62, 127
2, 614032, Note_off_c, 2, 62, 127
2, 614044, Note_on_c, 11, 58, 127
2, 614172, Note_off_c, 11, 58, 127
2, 614197, Note_on_c, 7, 55, 127
2, 614342, Note_off_c, 7, 55, 127
2, 614348, Note_on_c, 11, 58, 127
2, 614418, Note_off_c, 7, 67, 127
2, 614486, Note_off_c, 11, 58, 127
2, 614498, Note_on_c, 7, 55, 127
2, 614498, Note_on_c, 11, 70, 127
2, 614626, Note_off_c, 11, 70, 127
2, 614626, Note_off_c, 7, 55, 127
2, 614651, Note_on_c, 4, 52, 127
2, 614651, Note_on_c, 0, 60, 127
2, 614796, Note_off_c, 0, 60, 127
2, 614801, Note_on_c, 4, 64, 127
2, 614939, Note_off_c, 4, 64, 127
2, 614948, Note_off_c, 4, 52, 127
2, 614954, Note_on_c, 0, 60, 127
2, 614954, Note_on_c, 7, 67, 127
2, 615082, Note_off_c, 7, 67, 127
2, 615082, Note_off_c, 0, 60, 127
2, 615105, Note_on_c, 0, 48, 127
2, 615105, Note_on_c, 11, 70, 127
2, 615250, Note_off_c, 11, 70, 127
2, 615258, Note_on_c, 7, 67, 127
2, 615396, Note_off_c, 7, 67, 127
2, 615408, Note_on_c, 10, 69, 127
2, 615536, Note_off_c, 10, 69, 127
2, 615559, Note_on_c, 10, 69, 127
2, 615704, Note_off_c, 10, 69, 127
2, 615704, Note_off_c, 0, 48, 127
2, 615711, Note_on_c, 0, 60, 127
2, 615711, Note_on_c, 4, 64, 127
2, 615849, Note_off_c, 4, 64, 127
2, 615849, Note_off_c, 0, 60, 127
2, 615862, Note_on_c, 10, 57, 127
2, 615862, Note_on_c, 5, 65, 127
2, 615990, Note_off_c, 5, 65, 127
2, 615990, Note_off_c, 10, 57, 127
2, 616013, Note_on_c, 5, 53, 127
2, 616013, Note_on_c, 10, 69, 127
2, 616158, Note_off_c, 10, 69, 127
2, 616158, Note_off_c, 5, 53, 127
2, 616166, Note_on_c, 10, 57, 127
2, 616166, Note_on_c, 4, 64, 127
2, 616304, Note_off_c, 4, 64, 127
2, 616304, Note_off_c, 10, 57, 127
2, 616315, Note_on_c, 5, 53, 127
2, 616315, Note_on_c, 5, 65, 127
2, 616443, Note_off_c, 5, 65, 127
2, 616443, Note_off_c, 5, 53, 127
2, 616467, Note_on_c, 2, 50, 127
2, 616467, Note_on_c, 11, 58, 127
2, 616612, Note_off_c, 11, 58, 127
2, 616619, Note_on_c, 2, 62, 127
2, 616757, Note_off_c, 2, 62, 127
2, 616764, Note_off_c, 2, 50, 127
2, 616772, Note_on_c, 11, 58, 127
2, 616772, Note_on_c, 5, 65, 127
2, 616900, Note_off_c, 5, 65, 127
2, 616900, Note_off_c, 11, 58, 127
2, 616924, Note_on_c, 11, 46, 127
2, 616924, Note_on_c, 10, 69, 127
2, 617069, Note_off_c, 10, 69, 127
2, 617075, Note_on_c, 5, 65, 127
2, 617213, Note_off_c, 5, 65, 127
2, 617225, Note_on_c, 7, 67, 127
2, 617353, Note_off_c, 7, 67, 127
2, 617376, Note_on_c, 7, 67, 127
2, 617521, Note_off_c, 7, 67, 127
2, 617523, Note_off_c, 11, 46, 127
2, 617530, Note_on_c, 11, 58, 127
2, 617530, Note_on_c, 2, 62, 127
2, 617668, Note_off_c, 2, 62, 127
2, 617668, Note_off_c, 11, 58, 127
2, 617679, Note_on_c, 7, 55, 127
2, 617679, Note_on_c, 4, 64, 127
2, 617807, Note_off_c, 4, 64, 127
2, 617807, Note_off_c, 7, 55, 127
2, 617830, Note_on_c, 4, 52, 127
2, 617830, Note_on_c, 7, 67, 127
2, 617975, Note_off_c, 7, 67, 127
2, 617983, Note_on_c, 2, 62, 127
2, 618121, Note_off_c, 2, 62, 127
2, 618127, Note_off_c, 4, 52, 127
2, 618134, Note_on_c, 7, 55, 127
2, 618134, Note_on_c, 4, 64, 127
2, 618262, Note_off_c, 4, 64, 127
2, 618262, Note_off_c, 7, 55, 127
2, 618286, Note_on_c, 1, 49, 127
2, 618286, Note_on_c, 10, 57, 127
2, 618431, Note_off_c, 10, 57, 127
2, 618439, Note_on_c, 1, 61, 127
2, 618577, Note_off_c, 1, 61, 127
2, 618583, Note_off_c, 1, 49, 127
2, 618590, Note_on_c, 10, 57, 127
2, 618590, Note_on_c, 4, 64, 127
2, 618718, Note_off_c, 4, 64, 127
2, 618718, Note_off_c, 10, 57, 127
2, 618743, Note_on_c, 10, 45, 127
2, 618743, Note_on_c, 7, 67, 127
2, 618888, Note_off_c, 7, 67, 127
2, 618893, Note_on_c, 4, 64, 127
2, 619031, Note_off_c, 4, 64, 127
2, 619040, Note_off_c, 10, 45, 127
2, 619046, Note_on_c, 2, 50, 127
2, 619046, Note_on_c, 5, 65, 127
2, 619174, Note_off_c, 5, 65, 127
2, 619174, Note_off_c, 2, 50, 127
2, 619197, Note_on_c, 11, 46, 127
2, 619197, Note_on_c, 7, 55, 127
2, 619342, Note_off_c, 7, 55, 127
2, 619350, Note_on_c, 11, 58, 127
2, 619488, Note_off_c, 11, 58, 127
2, 619494, Note_off_c, 11, 46, 127
2, 619501, Note_on_c, 7, 55, 127
2, 619501, Note_on_c, 2, 62, 127
2, 619629, Note_off_c, 2, 62, 127
2, 619629, Note_off_c, 7, 55, 127
2, 619654, Note_on_c, 7, 43, 127
2, 619654, Note_on_c, 5, 65, 127
2, 619799, Note_off_c, 5, 65, 127
2, 619804, Note_on_c, 2, 62, 127
2, 619942, Note_off_c, 2, 62, 127
2, 619951, Note_off_c, 7, 43, 127
2, 619957, Note_on_c, 0, 48, 127
2, 619957, Note_on_c, 4, 64, 127
2, 620085, Note_off_c, 4, 64, 127
2, 620085, Note_off_c, 0, 48, 127
2, 620109, Note_on_c, 10, 45, 127
2, 620109, Note_on_c, 5, 53, 127
2, 620254, Note_off_c, 5, 53, 127
2, 620261, Note_on_c, 10, 57, 127
2, 620399, Note_off_c, 10, 57, 127
2, 620406, Note_off_c, 10, 45, 127
2, 620412, Note_on_c, 5, 53, 127
2, 620412, Note_on_c, 0, 60, 127
2, 620540, Note_off_c, 0, 60, 127
2, 620540, Note_off_c, 5, 53, 127
2, 620564, Note_on_c, 12, 47, 127
2, 620564, Note_on_c, 7, 67, 127
2, 620709, Note_off_c, 7, 67, 127
2, 620717, Note_on_c, 4, 64, 127
2, 620855, Note_off_c, 4, 64, 127
2, 620861, Note_off_c, 12, 47, 127
2, 620869, Note_on_c, 7, 55, 127
2, 620869, Note_on_c, 5, 65, 127
2, 620997, Note_off_c, 5, 65, 127
2, 620997, Note_off_c, 7, 55, 127
2, 621020, Note_on_c, 0, 48, 127
2, 621020, Note_on_c, 10, 69, 127
2, 621165, Note_off_c, 10, 69, 127
2, 621172, Note_on_c, 4, 64, 127
2, 621310, Note_off_c, 4, 64, 127
2, 621317, Note_off_c, 0, 48, 127
2, 621324, Note_on_c, 10, 57, 127
2, 621324, Note_on_c, 5, 65, 127
2, 621452, Note_off_c, 5, 65, 127
2, 621452, Note_off_c, 10, 57, 127
2, 621476, Note_on_c, 2, 50, 127
2, 621476, Note_on_c, 12, 71, 127
2, 621621, Note_off_c, 12, 71, 127
2, 621628, Note_on_c, 4, 64, 127
2, 621766, Note_off_c, 4, 64, 127
2, 621773, Note_off_c, 2, 50, 127
2, 621779, Note_on_c, 12, 59, 127
2, 621779, Note_on_c, 5, 65, 127
2, 621907, Note_off_c, 5, 65, 127
2, 621907, Note_off_c, 12, 59, 127
2, 621931, Note_on_c, 0, 48, 127
2, 621931, Note_on_c, 0, 72, 127
2, 622076, Note_off_c, 0, 72, 127
2, 622082, Note_on_c, 4, 64, 127
2, 622220, Note_off_c, 4, 64, 127
2, 622233, Note_on_c, 7, 67, 127
2, 622361, Note_off_c, 7, 67, 127
2, 622385, Note_on_c, 0, 72, 127
2, 622530, Note_off_c, 0, 72, 127
2, 622530, Note_off_c, 0, 48, 127
2, 622538, Note_on_c, 0, 48, 127
2, 622538, Note_on_c, 2, 74, 127
2, 622676, Note_off_c, 2, 74, 127
2, 622676, Note_off_c, 0, 48, 127
2, 622687, Note_on_c, 11, 46, 127
2, 622687, Note_on_c, 4, 76, 127
2, 622815, Note_off_c, 4, 76, 127
2, 622815, Note_off_c, 11, 46, 127
2, 622838, Note_on_c, 10, 45, 127
2, 622838, Note_on_c, 5, 77, 127
2, 622983, Note_off_c, 5, 77, 127
2, 622983, Note_off_c, 10, 45, 127
2, 622991, Note_on_c, 7, 43, 127
2, 622991, Note_on_c, 7, 79, 127
2, 623129, Note_off_c, 7, 79, 127
2, 623129, Note_off_c, 7, 43, 127
2, 623141, Note_on_c, 5, 41, 127
2, 623141, Note_on_c, 10, 81, 127
2, 623269, Note_off_c, 10, 81, 127
2, 623269, Note_off_c, 5, 41, 127
2, 623293, Note_on_c, 5, 41, 127
2, 623293, Note_on_c, 10, 81, 127
2, 623438, Note_off_c, 10, 81, 127
2, 623438, Note_off_c, 5, 41, 127
2, 623446, Note_on_c, 7, 43, 127
2, 623446, Note_on_c, 11, 82, 127
2, 623584, Note_off_c, 11, 82, 127
2, 623584, Note_off_c, 7, 43, 127
2, 623594, Note_on_c, 10, 45, 127
2, 623594, Note_on_c, 0, 84, 127
2, 623722, Note_off_c, 0, 84, 127
2, 623722, Note_off_c, 10, 45, 127
2, 623747, Note_on_c, 10, 45, 127
2, 623747, Note_on_c, 0, 84, 127
2, 623818, Note_off_c, 0, 84, 127
2, 623822, Note_on_c, 11, 82, 127
2, 623892, Note_off_c, 10, 45, 127
2, 623893, Note_off_c, 11, 82, 127
2, 623898, Note_on_c, 0, 36, 127
2, 623898, Note_on_c, 0, 84, 127
2, 624036, Note_off_c, 0, 36, 127
2, 624049, Note_on_c, 5, 41, 127
2, 624177, Note_off_c, 5, 41, 127
2, 624190, Note_off_c, 0, 84, 127
2, 624201, Note_on_c, 10, 45, 127
2, 624201, Note_on_c, 0, 84, 127
2, 624346, Note_off_c, 0, 84, 127
2, 624346, Note_off_c, 10, 45, 127
2, 624353, Note_on_c, 5, 41, 127
2, 624353, Note_on_c, 10, 81, 127
2, 624491, Note_off_c, 10, 81, 127
2, 624491, Note_off_c, 5, 41, 127
2, 624503, Note_on_c, 10, 45, 127
2, 624503, Note_on_c, 5, 77, 127
2, 624631, Note_off_c, 5, 77, 127
2, 624631, Note_off_c, 10, 45, 127
2, 624654, Note_on_c, 0, 48, 127
2, 624654, Note_on_c, 0, 84, 127
2, 624725, Note_off_c, 0, 84, 127
2, 624730, Note_on_c, 11, 82, 127
2, 624799, Note_off_c, 0, 48, 127
2, 624801, Note_off_c, 11, 82, 127
2, 624807, Note_on_c, 7, 43, 127
2, 624807, Note_on_c, 0, 84, 127
2, 624945, Note_off_c, 7, 43, 127
2, 624957, Note_on_c, 0, 48, 127
2, 625085, Note_off_c, 0, 48, 127
2, 625099, Note_off_c, 0, 84, 127
2, 625108, Note_on_c, 4, 52, 127
2, 625108, Note_on_c, 0, 84, 127
2, 625253, Note_off_c, 0, 84, 127
2, 625253, Note_off_c, 4, 52, 127
2, 625261, Note_on_c, 0, 48, 127
2, 625261, Note_on_c, 7, 79, 127
2, 625399, Note_off_c, 7, 79, 127
2, 625399, Note_off_c, 0, 48, 127
2, 625410, Note_on_c, 4, 52, 127
2, 625410, Note_on_c, 4, 76, 127
2, 625538, Note_off_c, 4, 76, 127
2, 625538, Note_off_c, 4, 52, 127
2, 625563, Note_on_c, 5, 53, 127
2, 625563, Note_on_c, 0, 84, 127
2, 625634, Note_off_c, 0, 84, 127
2, 625638, Note_on_c, 11, 82, 127
2, 625708, Note_off_c, 5, 53, 127
2, 625709, Note_off_c, 11, 82, 127
2, 625713, Note_on_c, 0, 48, 127
2, 625713, Note_on_c, 0, 84, 127
2, 625851, Note_off_c, 0, 48, 127
2, 625864, Note_on_c, 5, 53, 127
2, 625992, Note_off_c, 5, 53, 127
2, 626005, Note_off_c, 0, 84, 127
2, 626017, Note_on_c, 10, 57, 127
2, 626017, Note_on_c, 0, 84, 127
2, 626162, Note_off_c, 0, 84, 127
2, 626162, Note_off_c, 10, 57, 127
2, 626168, Note_on_c, 5, 53, 127
2, 626168, Note_on_c, 10, 81, 127
2, 626306, Note_off_c, 10, 81, 127
2, 626306, Note_off_c, 5, 53, 127
2, 626319, Note_on_c, 10, 57, 127
2, 626319, Note_on_c, 5, 77, 127
2, 626447, Note_off_c, 5, 77, 127
2, 626447, Note_off_c, 10, 57, 127
2, 626470, Note_on_c, 0, 60, 127
2, 626470, Note_on_c, 0, 84, 127
2, 626541, Note_off_c, 0, 84, 127
2, 626546, Note_on_c, 11, 82, 127
2, 626615, Note_off_c, 0, 60, 127
2, 626617, Note_off_c, 11, 82, 127
2, 626622, Note_on_c, 7, 55, 127
2, 626622, Note_on_c, 0, 84, 127
2, 626760, Note_off_c, 7, 55, 127
2, 626773, Note_on_c, 0, 60, 127
2, 626901, Note_off_c, 0, 60, 127
2, 626914, Note_off_c, 0, 84, 127
2, 626924, Note_on_c, 4, 64, 127
2, 626924, Note_on_c, 0, 84, 127
2, 627069, Note_off_c, 0, 84, 127
2, 627069, Note_off_c, 4, 64, 127
2, 627077, Note_on_c, 0, 60, 127
2, 627077, Note_on_c, 7, 79, 127
2, 627215, Note_off_c, 7, 79, 127
2, 627215, Note_off_c, 0, 60, 127
2, 627226, Note_on_c, 4, 64, 127
2, 627226, Note_on_c, 4, 76, 127
2, 627354, Note_off_c, 4, 76, 127
2, 627354, Note_off_c, 4, 64, 127
2, 627379, Note_on_c, 10, 69, 127
2, 627379, Note_on_c, 5, 77, 127
2, 627524, Note_off_c, 5, 77, 127
2, 627524, Note_off_c, 10, 69, 127
2, 627529, Note_on_c, 5, 65, 127
2, 627529, Note_on_c, 2, 74, 127
2, 627667, Note_off_c, 2, 74, 127
2, 627667, Note_off_c, 5, 65, 127
2, 627680, Note_on_c, 2, 62, 127
2, 627680, Note_on_c, 11, 82, 127
2, 627808, Note_off_c, 11, 82, 127
2, 627808, Note_off_c, 2, 62, 127
2, 627832, Note_on_c, 7, 67, 127
2, 627832, Note_on_c, 4, 76, 127
2, 627977, Note_off_c, 4, 76, 127
2, 627977, Note_off_c, 7, 67, 127
2, 627984, Note_on_c, 4, 64, 127
2, 627984, Note_on_c, 0, 72, 127
2, 628122, Note_off_c, 0, 72, 127
2, 628122, Note_off_c, 4, 64, 127
2, 628135, Note_on_c, 0, 60, 127
2, 628135, Note_on_c, 10, 81, 127
2, 628263, Note_off_c, 10, 81, 127
2, 628263, Note_off_c, 0, 60, 127
2, 628286, Note_on_c, 5, 65, 127
2, 628286, Note_on_c, 2, 74, 127
2, 628431, Note_off_c, 2, 74, 127
2, 628431, Note_off_c, 5, 65, 127
2, 628437, Note_on_c, 2, 62, 127
2, 628437, Note_on_c, 11, 70, 127
2, 628575, Note_off_c, 11, 70, 127
2, 628575, Note_off_c, 2, 62, 127
2, 628587, Note_on_c, 11, 58, 127
2, 628587, Note_on_c, 7, 79, 127
2, 628715, Note_off_c, 7, 79, 127
2, 628715, Note_off_c, 11, 58, 127
2, 628740, Note_on_c, 4, 64, 127
2, 628740, Note_on_c, 0, 72, 127
2, 628885, Note_off_c, 0, 72, 127
2, 628885, Note_off_c, 4, 64, 127
2, 628892, Note_on_c, 0, 60, 127
2, 628892, Note_on_c, 10, 69, 127
2, 629030, Note_off_c, 10, 69, 127
2, 629030, Note_off_c, 0, 60, 127
2, 629042, Note_on_c, 10, 57, 127
2, 629042, Note_on_c, 5, 77, 127
2, 629170, Note_off_c, 5, 77, 127
2, 629170, Note_off_c, 10, 57, 127
2, 629194, Note_on_c, 2, 62, 127
2, 629194, Note_on_c, 11, 70, 127
2, 629344, Note_off_c, 11, 70, 127
2, 629344, Note_off_c, 2, 62, 127
2, 629350, Note_on_c, 11, 58, 127
2, 629350, Note_on_c, 7, 67, 127
2, 629493, Note_off_c, 7, 67, 127
2, 629493, Note_off_c, 11, 58, 127
2, 629508, Note_on_c, 7, 55, 127
2, 629508, Note_on_c, 5, 77, 127
2, 629640, Note_off_c, 5, 77, 127
2, 629640, Note_off_c, 7, 55, 127
2, 629663, Note_on_c, 0, 60, 127
2, 629663, Note_on_c, 11, 70, 127
2, 629823, Note_off_c, 11, 70, 127
2, 629829, Note_on_c, 7, 67, 127
2, 629978, Note_off_c, 7, 67, 127
2, 629986, Note_off_c, 0, 60, 127
2, 629993, Note_on_c, 0, 48, 127
2, 629993, Note_on_c, 4, 76, 127
2, 630132, Note_off_c, 4, 76, 127
2, 630132, Note_off_c, 0, 48, 127
2, 630156, Note_on_c, 5, 41, 127
2, 630156, Note_on_c, 5, 77, 127
2, 630343, Note_off_c, 5, 77, 127
2, 630349, Note_on_c, 10, 69, 127
2, 630526, Note_off_c, 10, 69, 127
2, 630563, Note_on_c, 0, 72, 127
2, 630727, Note_off_c, 0, 72, 127
2, 630795, Note_on_c, 5, 65, 127
2, 632817, Note_off_c, 5, 41, 127
2, 632876, Note_off_c, 5, 65, 127
2, 637440, End_track
3, 0, Start_track
3, 0, Title_t, "MIDI"
3, 1536, End_track
0, 0, End_of_file
