0, 0, Header, 1, 4, 240
1, 0, Start_track
1, 0, Title_t, "untitled"
1, 0, SMPTE_offset, 96, 0, 3, 0, 0
1, 0, Time_signature, 1, 2, 24, 8
1, 0, Key_signature, 0, "major"
1, 0, Tempo, 300000
1, 240, Time_signature, 4, 2, 24, 8
1, 14640, Time_signature, 3, 2, 24, 8
1, 15360, Time_signature, 1, 2, 24, 8
1, 15600, Time_signature, 4, 2, 24, 8
1, 30000, Time_signature, 3, 2, 24, 8
1, 30720, Time_signature, 1, 2, 24, 8
1, 30960, Time_signature, 4, 2, 24, 8
1, 49200, Time_signature, 3, 2, 24, 8
1, 49920, Time_signature, 1, 2, 24, 8
1, 50160, Time_signature, 4, 2, 24, 8
1, 68400, Time_signature, 3, 2, 24, 8
1, 68400, End_track
2, 0, Start_track
2, 0, MIDI_port, 0
2, 0, Title_t, "English Suite 1, 9. Bourree 2"
2, 0, Program_c, 0, 0
2, 0, Control_c, 0, 7, 100
2, 0, Control_c, 0, 10, 64
2, 0, Note_on_c, 0, 60, 93
2, 96, Note_on_c, 0, 60, 0
2, 120, Note_on_c, 0, 62, 93
2, 216, Note_on_c, 0, 62, 0
2, 240, Note_on_c, 0, 64, 93
2, 432, Note_on_c, 0, 64, 0
2, 480, Note_on_c, 0, 65, 93
2, 672, Note_on_c, 0, 65, 0
2, 720, Note_on_c, 0, 64, 93
2, 912, Note_on_c, 0, 64, 0
2, 960, Note_on_c, 0, 62, 93
2, 1152, Note_on_c, 0, 62, 0
2, 1200, Note_on_c, 0, 64, 93
2, 1380, Note_on_c, 0, 64, 0
2, 1440, Note_on_c, 0, 57, 93
2, 1824, Note_on_c, 0, 57, 0
2, 1920, Note_on_c, 0, 56, 93
2, 2112, Note_on_c, 0, 56, 0
2, 2160, Note_on_c, 0, 57, 93
2, 2352, Note_on_c, 0, 57, 0
2, 2400, Note_on_c, 0, 65, 93
2, 2592, Note_on_c, 0, 65, 0
2, 2640, Note_on_c, 0, 64, 93
2, 2832, Note_on_c, 0, 64, 0
2, 2880, Note_on_c, 0, 62, 93
2, 3072, Note_on_c, 0, 62, 0
2, 3120, Note_on_c, 0, 64, 93
2, 3300, Note_on_c, 0, 64, 0
2, 3360, Note_on_c, 0, 57, 93
2, 3744, Note_on_c, 0, 57, 0
2, 3840, Note_on_c, 0, 56, 93
2, 4032, Note_on_c, 0, 56, 0
2, 4080, Note_on_c, 0, 57, 93
2, 4260, Note_on_c, 0, 57, 0
2, 4320, Note_on_c, 0, 65, 93
2, 4512, Note_on_c, 0, 65, 0
2, 4560, Note_on_c, 0, 64, 93
2, 4752, Note_on_c, 0, 64, 0
2, 4800, Note_on_c, 0, 62, 93
2, 4992, Note_on_c, 0, 62, 0
2, 5040, Note_on_c, 0, 69, 93
2, 5232, Note_on_c, 0, 69, 0
2, 5280, Note_on_c, 0, 67, 93
2, 5376, Note_on_c, 0, 67, 0
2, 5400, Note_on_c, 0, 65, 93
2, 5496, Note_on_c, 0, 65, 0
2, 5520, Note_on_c, 0, 64, 93
2, 5712, Note_on_c, 0, 64, 0
2, 5760, Note_on_c, 0, 62, 93
2, 5952, Note_on_c, 0, 62, 0
2, 6000, Note_on_c, 0, 60, 93
2, 6024, Note_on_c, 0, 60, 0
2, 6030, Note_on_c, 0, 62, 93
2, 6054, Note_on_c, 0, 62, 0
2, 6060, Note_on_c, 0, 60, 93
2, 6216, Note_on_c, 0, 60, 0
2, 6240, Note_on_c, 0, 59, 93
2, 6336, Note_on_c, 0, 59, 0
2, 6360, Note_on_c, 0, 60, 93
2, 6456, Note_on_c, 0, 60, 0
2, 6480, Note_on_c, 0, 62, 93
2, 6576, Note_on_c, 0, 62, 0
2, 6600, Note_on_c, 0, 59, 93
2, 6696, Note_on_c, 0, 59, 0
2, 6720, Note_on_c, 0, 60, 93
2, 6816, Note_on_c, 0, 60, 0
2, 6840, Note_on_c, 0, 57, 93
2, 6936, Note_on_c, 0, 57, 0
2, 6960, Note_on_c, 0, 59, 93
2, 7056, Note_on_c, 0, 59, 0
2, 7080, Note_on_c, 0, 57, 93
2, 7176, Note_on_c, 0, 57, 0
2, 7200, Note_on_c, 0, 56, 93
2, 7296, Note_on_c, 0, 56, 0
2, 7320, Note_on_c, 0, 57, 93
2, 7416, Note_on_c, 0, 57, 0
2, 7440, Note_on_c, 0, 59, 93
2, 7536, Note_on_c, 0, 59, 0
2, 7560, Note_on_c, 0, 60, 93
2, 7656, Note_on_c, 0, 60, 0
2, 7680, Note_on_c, 0, 62, 93
2, 7776, Note_on_c, 0, 62, 0
2, 7800, Note_on_c, 0, 59, 93
2, 7896, Note_on_c, 0, 59, 0
2, 7920, Note_on_c, 0, 60, 93
2, 8016, Note_on_c, 0, 60, 0
2, 8040, Note_on_c, 0, 62, 93
2, 8136, Note_on_c, 0, 62, 0
2, 8160, Note_on_c, 0, 64, 93
2, 8256, Note_on_c, 0, 64, 0
2, 8280, Note_on_c, 0, 65, 93
2, 8376, Note_on_c, 0, 65, 0
2, 8400, Note_on_c, 0, 64, 93
2, 8496, Note_on_c, 0, 64, 0
2, 8520, Note_on_c, 0, 62, 93
2, 8616, Note_on_c, 0, 62, 0
2, 8640, Note_on_c, 0, 60, 93
2, 8736, Note_on_c, 0, 60, 0
2, 8760, Note_on_c, 0, 62, 93
2, 8856, Note_on_c, 0, 62, 0
2, 8880, Note_on_c, 0, 64, 93
2, 8976, Note_on_c, 0, 64, 0
2, 9000, Note_on_c, 0, 62, 93
2, 9096, Note_on_c, 0, 62, 0
2, 9120, Note_on_c, 0, 60, 93
2, 9216, Note_on_c, 0, 60, 0
2, 9240, Note_on_c, 0, 59, 93
2, 9336, Note_on_c, 0, 59, 0
2, 9360, Note_on_c, 0, 57, 93
2, 9456, Note_on_c, 0, 57, 0
2, 9480, Note_on_c, 0, 59, 93
2, 9576, Note_on_c, 0, 59, 0
2, 9600, Note_on_c, 0, 60, 93
2, 9696, Note_on_c, 0, 60, 0
2, 9720, Note_on_c, 0, 62, 93
2, 9816, Note_on_c, 0, 62, 0
2, 9840, Note_on_c, 0, 64, 93
2, 9936, Note_on_c, 0, 64, 0
2, 9960, Note_on_c, 0, 65, 93
2, 10056, Note_on_c, 0, 65, 0
2, 10080, Note_on_c, 0, 67, 93
2, 10176, Note_on_c, 0, 67, 0
2, 10200, Note_on_c, 0, 69, 93
2, 10296, Note_on_c, 0, 69, 0
2, 10320, Note_on_c, 0, 67, 93
2, 10416, Note_on_c, 0, 67, 0
2, 10440, Note_on_c, 0, 65, 93
2, 10536, Note_on_c, 0, 65, 0
2, 10560, Note_on_c, 0, 64, 93
2, 10656, Note_on_c, 0, 64, 0
2, 10680, Note_on_c, 0, 65, 93
2, 10776, Note_on_c, 0, 65, 0
2, 10800, Note_on_c, 0, 67, 93
2, 10896, Note_on_c, 0, 67, 0
2, 10920, Note_on_c, 0, 65, 93
2, 11016, Note_on_c, 0, 65, 0
2, 11040, Note_on_c, 0, 64, 93
2, 11136, Note_on_c, 0, 64, 0
2, 11160, Note_on_c, 0, 62, 93
2, 11256, Note_on_c, 0, 62, 0
2, 11280, Note_on_c, 0, 60, 93
2, 11376, Note_on_c, 0, 60, 0
2, 11400, Note_on_c, 0, 62, 93
2, 11496, Note_on_c, 0, 62, 0
2, 11520, Note_on_c, 0, 64, 93
2, 11616, Note_on_c, 0, 64, 0
2, 11640, Note_on_c, 0, 66, 93
2, 11736, Note_on_c, 0, 66, 0
2, 11760, Note_on_c, 0, 67, 93
2, 11856, Note_on_c, 0, 67, 0
2, 11880, Note_on_c, 0, 69, 93
2, 11976, Note_on_c, 0, 69, 0
2, 12000, Note_on_c, 0, 71, 93
2, 12096, Note_on_c, 0, 71, 0
2, 12120, Note_on_c, 0, 72, 93
2, 12216, Note_on_c, 0, 72, 0
2, 12240, Note_on_c, 0, 71, 93
2, 12336, Note_on_c, 0, 71, 0
2, 12360, Note_on_c, 0, 69, 93
2, 12456, Note_on_c, 0, 69, 0
2, 12480, Note_on_c, 0, 67, 93
2, 12576, Note_on_c, 0, 67, 0
2, 12600, Note_on_c, 0, 69, 93
2, 12696, Note_on_c, 0, 69, 0
2, 12720, Note_on_c, 0, 71, 93
2, 12816, Note_on_c, 0, 71, 0
2, 12840, Note_on_c, 0, 69, 93
2, 12936, Note_on_c, 0, 69, 0
2, 12960, Note_on_c, 0, 67, 93
2, 13056, Note_on_c, 0, 67, 0
2, 13080, Note_on_c, 0, 66, 93
2, 13176, Note_on_c, 0, 66, 0
2, 13200, Note_on_c, 0, 64, 93
2, 13296, Note_on_c, 0, 64, 0
2, 13320, Note_on_c, 0, 63, 93
2, 13416, Note_on_c, 0, 63, 0
2, 13440, Note_on_c, 0, 64, 93
2, 13536, Note_on_c, 0, 64, 0
2, 13560, Note_on_c, 0, 66, 93
2, 13656, Note_on_c, 0, 66, 0
2, 13680, Note_on_c, 0, 59, 93
2, 13872, Note_on_c, 0, 59, 0
2, 13920, Note_on_c, 0, 67, 93
2, 14256, Note_on_c, 0, 67, 0
2, 14280, Note_on_c, 0, 66, 93
2, 14376, Note_on_c, 0, 66, 0
2, 14400, Note_on_c, 0, 64, 93
2, 14496, Note_on_c, 0, 64, 0
2, 14520, Note_on_c, 0, 63, 93
2, 14616, Note_on_c, 0, 63, 0
2, 14640, Note_on_c, 0, 64, 93
2, 15216, Note_on_c, 0, 64, 0
2, 15360, Note_on_c, 0, 60, 93
2, 15456, Note_on_c, 0, 60, 0
2, 15480, Note_on_c, 0, 62, 93
2, 15576, Note_on_c, 0, 62, 0
2, 15600, Note_on_c, 0, 64, 93
2, 15792, Note_on_c, 0, 64, 0
2, 15840, Note_on_c, 0, 65, 93
2, 16032, Note_on_c, 0, 65, 0
2, 16080, Note_on_c, 0, 64, 93
2, 16272, Note_on_c, 0, 64, 0
2, 16320, Note_on_c, 0, 62, 93
2, 16512, Note_on_c, 0, 62, 0
2, 16560, Note_on_c, 0, 64, 93
2, 16740, Note_on_c, 0, 64, 0
2, 16800, Note_on_c, 0, 57, 93
2, 17184, Note_on_c, 0, 57, 0
2, 17280, Note_on_c, 0, 56, 93
2, 17472, Note_on_c, 0, 56, 0
2, 17520, Note_on_c, 0, 57, 93
2, 17712, Note_on_c, 0, 57, 0
2, 17760, Note_on_c, 0, 65, 93
2, 17952, Note_on_c, 0, 65, 0
2, 18000, Note_on_c, 0, 64, 93
2, 18192, Note_on_c, 0, 64, 0
2, 18240, Note_on_c, 0, 62, 93
2, 18432, Note_on_c, 0, 62, 0
2, 18480, Note_on_c, 0, 64, 93
2, 18660, Note_on_c, 0, 64, 0
2, 18720, Note_on_c, 0, 57, 93
2, 19104, Note_on_c, 0, 57, 0
2, 19200, Note_on_c, 0, 56, 93
2, 19392, Note_on_c, 0, 56, 0
2, 19440, Note_on_c, 0, 57, 93
2, 19620, Note_on_c, 0, 57, 0
2, 19680, Note_on_c, 0, 65, 93
2, 19872, Note_on_c, 0, 65, 0
2, 19920, Note_on_c, 0, 64, 93
2, 20112, Note_on_c, 0, 64, 0
2, 20160, Note_on_c, 0, 62, 93
2, 20352, Note_on_c, 0, 62, 0
2, 20400, Note_on_c, 0, 69, 93
2, 20592, Note_on_c, 0, 69, 0
2, 20640, Note_on_c, 0, 67, 93
2, 20736, Note_on_c, 0, 67, 0
2, 20760, Note_on_c, 0, 65, 93
2, 20856, Note_on_c, 0, 65, 0
2, 20880, Note_on_c, 0, 64, 93
2, 21072, Note_on_c, 0, 64, 0
2, 21120, Note_on_c, 0, 62, 93
2, 21312, Note_on_c, 0, 62, 0
2, 21360, Note_on_c, 0, 60, 93
2, 21384, Note_on_c, 0, 60, 0
2, 21390, Note_on_c, 0, 62, 93
2, 21414, Note_on_c, 0, 62, 0
2, 21420, Note_on_c, 0, 60, 93
2, 21576, Note_on_c, 0, 60, 0
2, 21600, Note_on_c, 0, 59, 93
2, 21696, Note_on_c, 0, 59, 0
2, 21720, Note_on_c, 0, 60, 93
2, 21816, Note_on_c, 0, 60, 0
2, 21840, Note_on_c, 0, 62, 93
2, 21936, Note_on_c, 0, 62, 0
2, 21960, Note_on_c, 0, 59, 93
2, 22056, Note_on_c, 0, 59, 0
2, 22080, Note_on_c, 0, 60, 93
2, 22176, Note_on_c, 0, 60, 0
2, 22200, Note_on_c, 0, 57, 93
2, 22296, Note_on_c, 0, 57, 0
2, 22320, Note_on_c, 0, 59, 93
2, 22416, Note_on_c, 0, 59, 0
2, 22440, Note_on_c, 0, 57, 93
2, 22536, Note_on_c, 0, 57, 0
2, 22560, Note_on_c, 0, 56, 93
2, 22656, Note_on_c, 0, 56, 0
2, 22680, Note_on_c, 0, 57, 93
2, 22776, Note_on_c, 0, 57, 0
2, 22800, Note_on_c, 0, 59, 93
2, 22896, Note_on_c, 0, 59, 0
2, 22920, Note_on_c, 0, 60, 93
2, 23016, Note_on_c, 0, 60, 0
2, 23040, Note_on_c, 0, 62, 93
2, 23136, Note_on_c, 0, 62, 0
2, 23160, Note_on_c, 0, 59, 93
2, 23256, Note_on_c, 0, 59, 0
2, 23280, Note_on_c, 0, 60, 93
2, 23376, Note_on_c, 0, 60, 0
2, 23400, Note_on_c, 0, 62, 93
2, 23496, Note_on_c, 0, 62, 0
2, 23520, Note_on_c, 0, 64, 93
2, 23616, Note_on_c, 0, 64, 0
2, 23640, Note_on_c, 0, 65, 93
2, 23736, Note_on_c, 0, 65, 0
2, 23760, Note_on_c, 0, 64, 93
2, 23856, Note_on_c, 0, 64, 0
2, 23880, Note_on_c, 0, 62, 93
2, 23976, Note_on_c, 0, 62, 0
2, 24000, Note_on_c, 0, 60, 93
2, 24096, Note_on_c, 0, 60, 0
2, 24120, Note_on_c, 0, 62, 93
2, 24216, Note_on_c, 0, 62, 0
2, 24240, Note_on_c, 0, 64, 93
2, 24336, Note_on_c, 0, 64, 0
2, 24360, Note_on_c, 0, 62, 93
2, 24456, Note_on_c, 0, 62, 0
2, 24480, Note_on_c, 0, 60, 93
2, 24576, Note_on_c, 0, 60, 0
2, 24600, Note_on_c, 0, 59, 93
2, 24696, Note_on_c, 0, 59, 0
2, 24720, Note_on_c, 0, 57, 93
2, 24816, Note_on_c, 0, 57, 0
2, 24840, Note_on_c, 0, 59, 93
2, 24936, Note_on_c, 0, 59, 0
2, 24960, Note_on_c, 0, 60, 93
2, 25056, Note_on_c, 0, 60, 0
2, 25080, Note_on_c, 0, 62, 93
2, 25176, Note_on_c, 0, 62, 0
2, 25200, Note_on_c, 0, 64, 93
2, 25296, Note_on_c, 0, 64, 0
2, 25320, Note_on_c, 0, 65, 93
2, 25416, Note_on_c, 0, 65, 0
2, 25440, Note_on_c, 0, 67, 93
2, 25536, Note_on_c, 0, 67, 0
2, 25560, Note_on_c, 0, 69, 93
2, 25656, Note_on_c, 0, 69, 0
2, 25680, Note_on_c, 0, 67, 93
2, 25776, Note_on_c, 0, 67, 0
2, 25800, Note_on_c, 0, 65, 93
2, 25896, Note_on_c, 0, 65, 0
2, 25920, Note_on_c, 0, 64, 93
2, 26016, Note_on_c, 0, 64, 0
2, 26040, Note_on_c, 0, 65, 93
2, 26136, Note_on_c, 0, 65, 0
2, 26160, Note_on_c, 0, 67, 93
2, 26256, Note_on_c, 0, 67, 0
2, 26280, Note_on_c, 0, 65, 93
2, 26376, Note_on_c, 0, 65, 0
2, 26400, Note_on_c, 0, 64, 93
2, 26496, Note_on_c, 0, 64, 0
2, 26520, Note_on_c, 0, 62, 93
2, 26616, Note_on_c, 0, 62, 0
2, 26640, Note_on_c, 0, 60, 93
2, 26736, Note_on_c, 0, 60, 0
2, 26760, Note_on_c, 0, 62, 93
2, 26856, Note_on_c, 0, 62, 0
2, 26880, Note_on_c, 0, 64, 93
2, 26976, Note_on_c, 0, 64, 0
2, 27000, Note_on_c, 0, 66, 93
2, 27096, Note_on_c, 0, 66, 0
2, 27120, Note_on_c, 0, 67, 93
2, 27216, Note_on_c, 0, 67, 0
2, 27240, Note_on_c, 0, 69, 93
2, 27336, Note_on_c, 0, 69, 0
2, 27360, Note_on_c, 0, 71, 93
2, 27456, Note_on_c, 0, 71, 0
2, 27480, Note_on_c, 0, 72, 93
2, 27576, Note_on_c, 0, 72, 0
2, 27600, Note_on_c, 0, 71, 93
2, 27696, Note_on_c, 0, 71, 0
2, 27720, Note_on_c, 0, 69, 93
2, 27816, Note_on_c, 0, 69, 0
2, 27840, Note_on_c, 0, 67, 93
2, 27936, Note_on_c, 0, 67, 0
2, 27960, Note_on_c, 0, 69, 93
2, 28056, Note_on_c, 0, 69, 0
2, 28080, Note_on_c, 0, 71, 93
2, 28176, Note_on_c, 0, 71, 0
2, 28200, Note_on_c, 0, 69, 93
2, 28296, Note_on_c, 0, 69, 0
2, 28320, Note_on_c, 0, 67, 93
2, 28416, Note_on_c, 0, 67, 0
2, 28440, Note_on_c, 0, 66, 93
2, 28536, Note_on_c, 0, 66, 0
2, 28560, Note_on_c, 0, 64, 93
2, 28656, Note_on_c, 0, 64, 0
2, 28680, Note_on_c, 0, 63, 93
2, 28776, Note_on_c, 0, 63, 0
2, 28800, Note_on_c, 0, 64, 93
2, 28896, Note_on_c, 0, 64, 0
2, 28920, Note_on_c, 0, 66, 93
2, 29016, Note_on_c, 0, 66, 0
2, 29040, Note_on_c, 0, 59, 93
2, 29232, Note_on_c, 0, 59, 0
2, 29280, Note_on_c, 0, 67, 93
2, 29616, Note_on_c, 0, 67, 0
2, 29640, Note_on_c, 0, 66, 93
2, 29736, Note_on_c, 0, 66, 0
2, 29760, Note_on_c, 0, 64, 93
2, 29856, Note_on_c, 0, 64, 0
2, 29880, Note_on_c, 0, 63, 93
2, 29976, Note_on_c, 0, 63, 0
2, 30000, Note_on_c, 0, 64, 93
2, 30576, Note_on_c, 0, 64, 0
2, 30720, Note_on_c, 0, 64, 93
2, 30816, Note_on_c, 0, 64, 0
2, 30840, Note_on_c, 0, 62, 93
2, 30936, Note_on_c, 0, 62, 0
2, 30960, Note_on_c, 0, 61, 93
2, 31152, Note_on_c, 0, 61, 0
2, 31200, Note_on_c, 0, 59, 93
2, 31392, Note_on_c, 0, 59, 0
2, 31440, Note_on_c, 0, 61, 93
2, 31632, Note_on_c, 0, 61, 0
2, 31680, Note_on_c, 0, 62, 93
2, 31872, Note_on_c, 0, 62, 0
2, 31920, Note_on_c, 0, 64, 93
2, 32016, Note_on_c, 0, 64, 0
2, 32040, Note_on_c, 0, 67, 93
2, 32136, Note_on_c, 0, 67, 0
2, 32160, Note_on_c, 0, 70, 93
2, 32544, Note_on_c, 0, 70, 0
2, 32640, Note_on_c, 0, 69, 93
2, 32736, Note_on_c, 0, 69, 0
2, 32760, Note_on_c, 0, 67, 93
2, 32856, Note_on_c, 0, 67, 0
2, 32880, Note_on_c, 0, 65, 93
2, 32976, Note_on_c, 0, 65, 0
2, 33000, Note_on_c, 0, 64, 93
2, 33096, Note_on_c, 0, 64, 0
2, 33120, Note_on_c, 0, 65, 93
2, 33216, Note_on_c, 0, 65, 0
2, 33240, Note_on_c, 0, 74, 93
2, 33336, Note_on_c, 0, 74, 0
2, 33360, Note_on_c, 0, 73, 93
2, 33456, Note_on_c, 0, 73, 0
2, 33480, Note_on_c, 0, 71, 93
2, 33576, Note_on_c, 0, 71, 0
2, 33600, Note_on_c, 0, 69, 93
2, 33696, Note_on_c, 0, 69, 0
2, 33720, Note_on_c, 0, 67, 93
2, 33816, Note_on_c, 0, 67, 0
2, 33840, Note_on_c, 0, 65, 93
2, 33936, Note_on_c, 0, 65, 0
2, 33960, Note_on_c, 0, 67, 93
2, 34056, Note_on_c, 0, 67, 0
2, 34080, Note_on_c, 0, 69, 93
2, 34176, Note_on_c, 0, 69, 0
2, 34200, Note_on_c, 0, 67, 93
2, 34296, Note_on_c, 0, 67, 0
2, 34320, Note_on_c, 0, 65, 93
2, 34416, Note_on_c, 0, 65, 0
2, 34440, Note_on_c, 0, 64, 93
2, 34536, Note_on_c, 0, 64, 0
2, 34560, Note_on_c, 0, 62, 93
2, 34656, Note_on_c, 0, 62, 0
2, 34680, Note_on_c, 0, 60, 93
2, 34776, Note_on_c, 0, 60, 0
2, 34800, Note_on_c, 0, 59, 93
2, 34992, Note_on_c, 0, 59, 0
2, 35040, Note_on_c, 0, 59, 93
2, 35136, Note_on_c, 0, 59, 0
2, 35160, Note_on_c, 0, 57, 93
2, 35256, Note_on_c, 0, 57, 0
2, 35280, Note_on_c, 0, 59, 93
2, 35472, Note_on_c, 0, 59, 0
2, 35520, Note_on_c, 0, 59, 93
2, 35616, Note_on_c, 0, 59, 0
2, 35640, Note_on_c, 0, 60, 93
2, 35736, Note_on_c, 0, 60, 0
2, 35760, Note_on_c, 0, 62, 93
2, 35856, Note_on_c, 0, 62, 0
2, 35880, Note_on_c, 0, 65, 93
2, 35976, Note_on_c, 0, 65, 0
2, 36000, Note_on_c, 0, 69, 93
2, 36384, Note_on_c, 0, 69, 0
2, 36480, Note_on_c, 0, 67, 93
2, 36576, Note_on_c, 0, 67, 0
2, 36600, Note_on_c, 0, 65, 93
2, 36696, Note_on_c, 0, 65, 0
2, 36720, Note_on_c, 0, 64, 93
2, 36816, Note_on_c, 0, 64, 0
2, 36840, Note_on_c, 0, 62, 93
2, 36936, Note_on_c, 0, 62, 0
2, 36960, Note_on_c, 0, 64, 93
2, 37056, Note_on_c, 0, 64, 0
2, 37080, Note_on_c, 0, 72, 93
2, 37176, Note_on_c, 0, 72, 0
2, 37200, Note_on_c, 0, 71, 93
2, 37296, Note_on_c, 0, 71, 0
2, 37320, Note_on_c, 0, 69, 93
2, 37416, Note_on_c, 0, 69, 0
2, 37440, Note_on_c, 0, 67, 93
2, 37536, Note_on_c, 0, 67, 0
2, 37560, Note_on_c, 0, 65, 93
2, 37656, Note_on_c, 0, 65, 0
2, 37680, Note_on_c, 0, 64, 93
2, 37776, Note_on_c, 0, 64, 0
2, 37800, Note_on_c, 0, 65, 93
2, 37896, Note_on_c, 0, 65, 0
2, 37920, Note_on_c, 0, 67, 93
2, 38016, Note_on_c, 0, 67, 0
2, 38040, Note_on_c, 0, 65, 93
2, 38136, Note_on_c, 0, 65, 0
2, 38160, Note_on_c, 0, 64, 93
2, 38256, Note_on_c, 0, 64, 0
2, 38280, Note_on_c, 0, 62, 93
2, 38376, Note_on_c, 0, 62, 0
2, 38400, Note_on_c, 0, 60, 93
2, 38496, Note_on_c, 0, 60, 0
2, 38520, Note_on_c, 0, 59, 93
2, 38616, Note_on_c, 0, 59, 0
2, 38640, Note_on_c, 0, 57, 93
2, 38730, Note_on_c, 0, 57, 0
2, 38760, Note_on_c, 0, 67, 93
2, 38856, Note_on_c, 0, 67, 0
2, 38880, Note_on_c, 0, 65, 93
2, 38976, Note_on_c, 0, 65, 0
2, 39000, Note_on_c, 0, 64, 93
2, 39096, Note_on_c, 0, 64, 0
2, 39120, Note_on_c, 0, 65, 93
2, 39300, Note_on_c, 0, 65, 0
2, 39360, Note_on_c, 0, 57, 93
2, 39540, Note_on_c, 0, 57, 0
2, 41520, Note_on_c, 0, 69, 93
2, 41616, Note_on_c, 0, 69, 0
2, 41640, Note_on_c, 0, 68, 93
2, 41736, Note_on_c, 0, 68, 0
2, 41760, Note_on_c, 0, 66, 93
2, 41856, Note_on_c, 0, 66, 0
2, 41880, Note_on_c, 0, 64, 93
2, 41976, Note_on_c, 0, 64, 0
2, 42000, Note_on_c, 0, 71, 93
2, 42180, Note_on_c, 0, 71, 0
2, 42240, Note_on_c, 0, 64, 93
2, 42336, Note_on_c, 0, 64, 0
2, 42360, Note_on_c, 0, 62, 93
2, 42456, Note_on_c, 0, 62, 0
2, 42480, Note_on_c, 0, 64, 93
2, 42672, Note_on_c, 0, 64, 0
2, 42720, Note_on_c, 0, 74, 93
2, 42912, Note_on_c, 0, 74, 0
2, 42960, Note_on_c, 0, 72, 93
2, 43152, Note_on_c, 0, 72, 0
2, 43200, Note_on_c, 0, 71, 93
2, 43392, Note_on_c, 0, 71, 0
2, 43440, Note_on_c, 0, 72, 93
2, 43620, Note_on_c, 0, 72, 0
2, 43680, Note_on_c, 0, 64, 113
2, 44064, Note_on_c, 0, 64, 0
2, 44160, Note_on_c, 0, 62, 93
2, 44256, Note_on_c, 0, 62, 0
2, 44280, Note_on_c, 0, 60, 93
2, 44376, Note_on_c, 0, 60, 0
2, 44400, Note_on_c, 0, 62, 93
2, 44592, Note_on_c, 0, 62, 0
2, 44640, Note_on_c, 0, 72, 93
2, 44832, Note_on_c, 0, 72, 0
2, 44880, Note_on_c, 0, 71, 93
2, 44976, Note_on_c, 0, 71, 0
2, 45000, Note_on_c, 0, 69, 93
2, 45096, Note_on_c, 0, 69, 0
2, 45120, Note_on_c, 0, 68, 93
2, 45216, Note_on_c, 0, 68, 0
2, 45240, Note_on_c, 0, 69, 93
2, 45336, Note_on_c, 0, 69, 0
2, 45360, Note_on_c, 0, 71, 93
2, 45540, Note_on_c, 0, 71, 0
2, 45600, Note_on_c, 0, 62, 113
2, 45984, Note_on_c, 0, 62, 0
2, 46080, Note_on_c, 0, 60, 93
2, 46176, Note_on_c, 0, 60, 0
2, 46200, Note_on_c, 0, 59, 93
2, 46296, Note_on_c, 0, 59, 0
2, 46320, Note_on_c, 0, 60, 93
2, 46416, Note_on_c, 0, 60, 0
2, 46440, Note_on_c, 0, 69, 93
2, 46536, Note_on_c, 0, 69, 0
2, 46560, Note_on_c, 0, 67, 93
2, 46656, Note_on_c, 0, 67, 0
2, 46680, Note_on_c, 0, 64, 93
2, 46776, Note_on_c, 0, 64, 0
2, 46800, Note_on_c, 0, 65, 93
2, 46896, Note_on_c, 0, 65, 0
2, 46920, Note_on_c, 0, 64, 93
2, 47016, Note_on_c, 0, 64, 0
2, 47040, Note_on_c, 0, 62, 93
2, 47136, Note_on_c, 0, 62, 0
2, 47160, Note_on_c, 0, 60, 93
2, 47256, Note_on_c, 0, 60, 0
2, 47280, Note_on_c, 0, 59, 93
2, 47376, Note_on_c, 0, 59, 0
2, 47400, Note_on_c, 0, 65, 93
2, 47496, Note_on_c, 0, 65, 0
2, 47520, Note_on_c, 0, 64, 93
2, 47616, Note_on_c, 0, 64, 0
2, 47640, Note_on_c, 0, 60, 93
2, 47736, Note_on_c, 0, 60, 0
2, 47760, Note_on_c, 0, 62, 93
2, 47856, Note_on_c, 0, 62, 0
2, 47880, Note_on_c, 0, 60, 93
2, 47976, Note_on_c, 0, 60, 0
2, 48000, Note_on_c, 0, 59, 93
2, 48096, Note_on_c, 0, 59, 0
2, 48120, Note_on_c, 0, 57, 93
2, 48216, Note_on_c, 0, 57, 0
2, 48240, Note_on_c, 0, 56, 93
2, 48336, Note_on_c, 0, 56, 0
2, 48360, Note_on_c, 0, 62, 93
2, 48456, Note_on_c, 0, 62, 0
2, 48480, Note_on_c, 0, 60, 93
2, 48576, Note_on_c, 0, 60, 0
2, 48600, Note_on_c, 0, 57, 93
2, 48696, Note_on_c, 0, 57, 0
2, 48720, Note_on_c, 0, 60, 93
2, 48816, Note_on_c, 0, 60, 0
2, 48840, Note_on_c, 0, 59, 93
2, 48936, Note_on_c, 0, 59, 0
2, 48960, Note_on_c, 0, 57, 93
2, 49056, Note_on_c, 0, 57, 0
2, 49080, Note_on_c, 0, 56, 93
2, 49176, Note_on_c, 0, 56, 0
2, 49200, Note_on_c, 0, 57, 93
2, 49776, Note_on_c, 0, 57, 0
2, 49920, Note_on_c, 0, 64, 93
2, 50016, Note_on_c, 0, 64, 0
2, 50040, Note_on_c, 0, 62, 93
2, 50136, Note_on_c, 0, 62, 0
2, 50160, Note_on_c, 0, 61, 93
2, 50352, Note_on_c, 0, 61, 0
2, 50400, Note_on_c, 0, 59, 93
2, 50592, Note_on_c, 0, 59, 0
2, 50640, Note_on_c, 0, 61, 93
2, 50832, Note_on_c, 0, 61, 0
2, 50880, Note_on_c, 0, 62, 93
2, 51072, Note_on_c, 0, 62, 0
2, 51120, Note_on_c, 0, 64, 93
2, 51216, Note_on_c, 0, 64, 0
2, 51240, Note_on_c, 0, 67, 93
2, 51336, Note_on_c, 0, 67, 0
2, 51360, Note_on_c, 0, 70, 93
2, 51744, Note_on_c, 0, 70, 0
2, 51840, Note_on_c, 0, 69, 93
2, 51936, Note_on_c, 0, 69, 0
2, 51960, Note_on_c, 0, 67, 93
2, 52056, Note_on_c, 0, 67, 0
2, 52080, Note_on_c, 0, 65, 93
2, 52176, Note_on_c, 0, 65, 0
2, 52200, Note_on_c, 0, 64, 93
2, 52296, Note_on_c, 0, 64, 0
2, 52320, Note_on_c, 0, 65, 93
2, 52416, Note_on_c, 0, 65, 0
2, 52440, Note_on_c, 0, 74, 93
2, 52536, Note_on_c, 0, 74, 0
2, 52560, Note_on_c, 0, 73, 93
2, 52656, Note_on_c, 0, 73, 0
2, 52680, Note_on_c, 0, 71, 93
2, 52776, Note_on_c, 0, 71, 0
2, 52800, Note_on_c, 0, 69, 93
2, 52896, Note_on_c, 0, 69, 0
2, 52920, Note_on_c, 0, 67, 93
2, 53016, Note_on_c, 0, 67, 0
2, 53040, Note_on_c, 0, 65, 93
2, 53136, Note_on_c, 0, 65, 0
2, 53160, Note_on_c, 0, 67, 93
2, 53256, Note_on_c, 0, 67, 0
2, 53280, Note_on_c, 0, 69, 93
2, 53376, Note_on_c, 0, 69, 0
2, 53400, Note_on_c, 0, 67, 93
2, 53496, Note_on_c, 0, 67, 0
2, 53520, Note_on_c, 0, 65, 93
2, 53616, Note_on_c, 0, 65, 0
2, 53640, Note_on_c, 0, 64, 93
2, 53736, Note_on_c, 0, 64, 0
2, 53760, Note_on_c, 0, 62, 93
2, 53856, Note_on_c, 0, 62, 0
2, 53880, Note_on_c, 0, 60, 93
2, 53976, Note_on_c, 0, 60, 0
2, 54000, Note_on_c, 0, 59, 93
2, 54192, Note_on_c, 0, 59, 0
2, 54240, Note_on_c, 0, 59, 93
2, 54336, Note_on_c, 0, 59, 0
2, 54360, Note_on_c, 0, 57, 93
2, 54456, Note_on_c, 0, 57, 0
2, 54480, Note_on_c, 0, 59, 93
2, 54672, Note_on_c, 0, 59, 0
2, 54720, Note_on_c, 0, 59, 93
2, 54816, Note_on_c, 0, 59, 0
2, 54840, Note_on_c, 0, 60, 93
2, 54936, Note_on_c, 0, 60, 0
2, 54960, Note_on_c, 0, 62, 93
2, 55056, Note_on_c, 0, 62, 0
2, 55080, Note_on_c, 0, 65, 93
2, 55176, Note_on_c, 0, 65, 0
2, 55200, Note_on_c, 0, 69, 93
2, 55584, Note_on_c, 0, 69, 0
2, 55680, Note_on_c, 0, 67, 93
2, 55776, Note_on_c, 0, 67, 0
2, 55800, Note_on_c, 0, 65, 93
2, 55896, Note_on_c, 0, 65, 0
2, 55920, Note_on_c, 0, 64, 93
2, 56016, Note_on_c, 0, 64, 0
2, 56040, Note_on_c, 0, 62, 93
2, 56136, Note_on_c, 0, 62, 0
2, 56160, Note_on_c, 0, 64, 93
2, 56256, Note_on_c, 0, 64, 0
2, 56280, Note_on_c, 0, 72, 93
2, 56376, Note_on_c, 0, 72, 0
2, 56400, Note_on_c, 0, 71, 93
2, 56496, Note_on_c, 0, 71, 0
2, 56520, Note_on_c, 0, 69, 93
2, 56616, Note_on_c, 0, 69, 0
2, 56640, Note_on_c, 0, 67, 93
2, 56736, Note_on_c, 0, 67, 0
2, 56760, Note_on_c, 0, 65, 93
2, 56856, Note_on_c, 0, 65, 0
2, 56880, Note_on_c, 0, 64, 93
2, 56976, Note_on_c, 0, 64, 0
2, 57000, Note_on_c, 0, 65, 93
2, 57096, Note_on_c, 0, 65, 0
2, 57120, Note_on_c, 0, 67, 93
2, 57216, Note_on_c, 0, 67, 0
2, 57240, Note_on_c, 0, 65, 93
2, 57336, Note_on_c, 0, 65, 0
2, 57360, Note_on_c, 0, 64, 93
2, 57456, Note_on_c, 0, 64, 0
2, 57480, Note_on_c, 0, 62, 93
2, 57576, Note_on_c, 0, 62, 0
2, 57600, Note_on_c, 0, 60, 93
2, 57696, Note_on_c, 0, 60, 0
2, 57720, Note_on_c, 0, 59, 93
2, 57816, Note_on_c, 0, 59, 0
2, 57840, Note_on_c, 0, 57, 93
2, 57930, Note_on_c, 0, 57, 0
2, 57960, Note_on_c, 0, 67, 93
2, 58056, Note_on_c, 0, 67, 0
2, 58080, Note_on_c, 0, 65, 93
2, 58176, Note_on_c, 0, 65, 0
2, 58200, Note_on_c, 0, 64, 93
2, 58296, Note_on_c, 0, 64, 0
2, 58320, Note_on_c, 0, 65, 93
2, 58500, Note_on_c, 0, 65, 0
2, 58560, Note_on_c, 0, 57, 93
2, 58740, Note_on_c, 0, 57, 0
2, 60720, Note_on_c, 0, 69, 93
2, 60816, Note_on_c, 0, 69, 0
2, 60840, Note_on_c, 0, 68, 93
2, 60936, Note_on_c, 0, 68, 0
2, 60960, Note_on_c, 0, 66, 93
2, 61056, Note_on_c, 0, 66, 0
2, 61080, Note_on_c, 0, 64, 93
2, 61176, Note_on_c, 0, 64, 0
2, 61200, Note_on_c, 0, 71, 93
2, 61380, Note_on_c, 0, 71, 0
2, 61440, Note_on_c, 0, 64, 93
2, 61536, Note_on_c, 0, 64, 0
2, 61560, Note_on_c, 0, 62, 93
2, 61656, Note_on_c, 0, 62, 0
2, 61680, Note_on_c, 0, 64, 93
2, 61872, Note_on_c, 0, 64, 0
2, 61920, Note_on_c, 0, 74, 93
2, 62112, Note_on_c, 0, 74, 0
2, 62160, Note_on_c, 0, 72, 93
2, 62352, Note_on_c, 0, 72, 0
2, 62400, Note_on_c, 0, 71, 93
2, 62592, Note_on_c, 0, 71, 0
2, 62640, Note_on_c, 0, 72, 93
2, 62820, Note_on_c, 0, 72, 0
2, 62880, Note_on_c, 0, 64, 113
2, 63264, Note_on_c, 0, 64, 0
2, 63360, Note_on_c, 0, 62, 93
2, 63456, Note_on_c, 0, 62, 0
2, 63480, Note_on_c, 0, 60, 93
2, 63576, Note_on_c, 0, 60, 0
2, 63600, Note_on_c, 0, 62, 93
2, 63792, Note_on_c, 0, 62, 0
2, 63840, Note_on_c, 0, 72, 93
2, 64032, Note_on_c, 0, 72, 0
2, 64080, Note_on_c, 0, 71, 93
2, 64176, Note_on_c, 0, 71, 0
2, 64200, Note_on_c, 0, 69, 93
2, 64296, Note_on_c, 0, 69, 0
2, 64320, Note_on_c, 0, 68, 93
2, 64416, Note_on_c, 0, 68, 0
2, 64440, Note_on_c, 0, 69, 93
2, 64536, Note_on_c, 0, 69, 0
2, 64560, Note_on_c, 0, 71, 93
2, 64740, Note_on_c, 0, 71, 0
2, 64800, Note_on_c, 0, 62, 113
2, 65184, Note_on_c, 0, 62, 0
2, 65280, Note_on_c, 0, 60, 93
2, 65376, Note_on_c, 0, 60, 0
2, 65400, Note_on_c, 0, 59, 93
2, 65496, Note_on_c, 0, 59, 0
2, 65520, Note_on_c, 0, 60, 93
2, 65616, Note_on_c, 0, 60, 0
2, 65640, Note_on_c, 0, 69, 93
2, 65736, Note_on_c, 0, 69, 0
2, 65760, Note_on_c, 0, 67, 93
2, 65856, Note_on_c, 0, 67, 0
2, 65880, Note_on_c, 0, 64, 93
2, 65976, Note_on_c, 0, 64, 0
2, 66000, Note_on_c, 0, 65, 93
2, 66096, Note_on_c, 0, 65, 0
2, 66120, Note_on_c, 0, 64, 93
2, 66216, Note_on_c, 0, 64, 0
2, 66240, Note_on_c, 0, 62, 93
2, 66336, Note_on_c, 0, 62, 0
2, 66360, Note_on_c, 0, 60, 93
2, 66456, Note_on_c, 0, 60, 0
2, 66480, Note_on_c, 0, 59, 93
2, 66576, Note_on_c, 0, 59, 0
2, 66600, Note_on_c, 0, 65, 93
2, 66696, Note_on_c, 0, 65, 0
2, 66720, Note_on_c, 0, 64, 93
2, 66816, Note_on_c, 0, 64, 0
2, 66840, Note_on_c, 0, 60, 93
2, 66936, Note_on_c, 0, 60, 0
2, 66960, Note_on_c, 0, 62, 93
2, 67056, Note_on_c, 0, 62, 0
2, 67080, Note_on_c, 0, 60, 93
2, 67176, Note_on_c, 0, 60, 0
2, 67200, Note_on_c, 0, 59, 93
2, 67296, Note_on_c, 0, 59, 0
2, 67320, Note_on_c, 0, 57, 93
2, 67416, Note_on_c, 0, 57, 0
2, 67440, Note_on_c, 0, 56, 93
2, 67536, Note_on_c, 0, 56, 0
2, 67560, Note_on_c, 0, 62, 93
2, 67656, Note_on_c, 0, 62, 0
2, 67680, Note_on_c, 0, 60, 93
2, 67776, Note_on_c, 0, 60, 0
2, 67800, Note_on_c, 0, 57, 93
2, 67896, Note_on_c, 0, 57, 0
2, 67920, Note_on_c, 0, 60, 93
2, 68016, Note_on_c, 0, 60, 0
2, 68040, Note_on_c, 0, 59, 93
2, 68136, Note_on_c, 0, 59, 0
2, 68160, Note_on_c, 0, 57, 93
2, 68256, Note_on_c, 0, 57, 0
2, 68280, Note_on_c, 0, 56, 93
2, 68376, Note_on_c, 0, 56, 0
2, 68400, Note_on_c, 0, 57, 93
2, 68976, Note_on_c, 0, 57, 0
2, 68976, End_track
3, 0, Start_track
3, 0, MIDI_port, 0
3, 0, Title_t, "J.S. Bach, Edition Wood"
3, 0, Program_c, 1, 0
3, 0, Control_c, 1, 7, 100
3, 0, Control_c, 1, 10, 64
3, 0, Note_on_c, 1, 52, 93
3, 96, Note_on_c, 1, 52, 0
3, 120, Note_on_c, 1, 50, 93
3, 216, Note_on_c, 1, 50, 0
3, 240, Note_on_c, 1, 48, 93
3, 336, Note_on_c, 1, 48, 0
3, 360, Note_on_c, 1, 47, 93
3, 456, Note_on_c, 1, 47, 0
3, 480, Note_on_c, 1, 45, 93
3, 576, Note_on_c, 1, 45, 0
3, 600, Note_on_c, 1, 47, 93
3, 696, Note_on_c, 1, 47, 0
3, 720, Note_on_c, 1, 48, 93
3, 816, Note_on_c, 1, 48, 0
3, 840, Note_on_c, 1, 47, 93
3, 936, Note_on_c, 1, 47, 0
3, 960, Note_on_c, 1, 45, 93
3, 1056, Note_on_c, 1, 45, 0
3, 1080, Note_on_c, 1, 47, 93
3, 1176, Note_on_c, 1, 47, 0
3, 1200, Note_on_c, 1, 48, 93
3, 1296, Note_on_c, 1, 48, 0
3, 1320, Note_on_c, 1, 47, 93
3, 1416, Note_on_c, 1, 47, 0
3, 1440, Note_on_c, 1, 45, 93
3, 1536, Note_on_c, 1, 45, 0
3, 1560, Note_on_c, 1, 47, 93
3, 1656, Note_on_c, 1, 47, 0
3, 1680, Note_on_c, 1, 48, 93
3, 1776, Note_on_c, 1, 48, 0
3, 1800, Note_on_c, 1, 50, 93
3, 1896, Note_on_c, 1, 50, 0
3, 1920, Note_on_c, 1, 52, 93
3, 2016, Note_on_c, 1, 52, 0
3, 2040, Note_on_c, 1, 50, 93
3, 2136, Note_on_c, 1, 50, 0
3, 2160, Note_on_c, 1, 48, 93
3, 2256, Note_on_c, 1, 48, 0
3, 2280, Note_on_c, 1, 47, 93
3, 2376, Note_on_c, 1, 47, 0
3, 2400, Note_on_c, 1, 45, 93
3, 2496, Note_on_c, 1, 45, 0
3, 2520, Note_on_c, 1, 47, 93
3, 2616, Note_on_c, 1, 47, 0
3, 2640, Note_on_c, 1, 48, 93
3, 2736, Note_on_c, 1, 48, 0
3, 2760, Note_on_c, 1, 47, 93
3, 2856, Note_on_c, 1, 47, 0
3, 2880, Note_on_c, 1, 45, 93
3, 2976, Note_on_c, 1, 45, 0
3, 3000, Note_on_c, 1, 47, 93
3, 3096, Note_on_c, 1, 47, 0
3, 3120, Note_on_c, 1, 48, 93
3, 3216, Note_on_c, 1, 48, 0
3, 3240, Note_on_c, 1, 47, 93
3, 3336, Note_on_c, 1, 47, 0
3, 3360, Note_on_c, 1, 45, 93
3, 3456, Note_on_c, 1, 45, 0
3, 3480, Note_on_c, 1, 47, 93
3, 3576, Note_on_c, 1, 47, 0
3, 3600, Note_on_c, 1, 48, 93
3, 3696, Note_on_c, 1, 48, 0
3, 3720, Note_on_c, 1, 50, 93
3, 3816, Note_on_c, 1, 50, 0
3, 3840, Note_on_c, 1, 52, 93
3, 3936, Note_on_c, 1, 52, 0
3, 3960, Note_on_c, 1, 50, 93
3, 4056, Note_on_c, 1, 50, 0
3, 4080, Note_on_c, 1, 48, 93
3, 4176, Note_on_c, 1, 48, 0
3, 4200, Note_on_c, 1, 47, 93
3, 4296, Note_on_c, 1, 47, 0
3, 4320, Note_on_c, 1, 45, 93
3, 4416, Note_on_c, 1, 45, 0
3, 4440, Note_on_c, 1, 47, 93
3, 4536, Note_on_c, 1, 47, 0
3, 4560, Note_on_c, 1, 48, 93
3, 4656, Note_on_c, 1, 48, 0
3, 4680, Note_on_c, 1, 47, 93
3, 4776, Note_on_c, 1, 47, 0
3, 4800, Note_on_c, 1, 45, 93
3, 4896, Note_on_c, 1, 45, 0
3, 4920, Note_on_c, 1, 47, 93
3, 5016, Note_on_c, 1, 47, 0
3, 5040, Note_on_c, 1, 48, 93
3, 5136, Note_on_c, 1, 48, 0
3, 5160, Note_on_c, 1, 47, 93
3, 5256, Note_on_c, 1, 47, 0
3, 5280, Note_on_c, 1, 45, 93
3, 5376, Note_on_c, 1, 45, 0
3, 5400, Note_on_c, 1, 47, 93
3, 5496, Note_on_c, 1, 47, 0
3, 5520, Note_on_c, 1, 48, 93
3, 5616, Note_on_c, 1, 48, 0
3, 5640, Note_on_c, 1, 50, 93
3, 5736, Note_on_c, 1, 50, 0
3, 5760, Note_on_c, 1, 52, 93
3, 5856, Note_on_c, 1, 52, 0
3, 5880, Note_on_c, 1, 53, 93
3, 5976, Note_on_c, 1, 53, 0
3, 6000, Note_on_c, 1, 52, 93
3, 6096, Note_on_c, 1, 52, 0
3, 6120, Note_on_c, 1, 50, 93
3, 6216, Note_on_c, 1, 50, 0
3, 6240, Note_on_c, 1, 48, 93
3, 6336, Note_on_c, 1, 48, 0
3, 6360, Note_on_c, 1, 47, 93
3, 6456, Note_on_c, 1, 47, 0
3, 6480, Note_on_c, 1, 45, 93
3, 6576, Note_on_c, 1, 45, 0
3, 6600, Note_on_c, 1, 44, 93
3, 6696, Note_on_c, 1, 44, 0
3, 6720, Note_on_c, 1, 45, 93
3, 6912, Note_on_c, 1, 45, 0
3, 6960, Note_on_c, 1, 40, 93
3, 7536, Note_on_c, 1, 40, 0
3, 7680, Note_on_c, 1, 52, 93
3, 7776, Note_on_c, 1, 52, 0
3, 7800, Note_on_c, 1, 53, 93
3, 7896, Note_on_c, 1, 53, 0
3, 7920, Note_on_c, 1, 52, 93
3, 8112, Note_on_c, 1, 52, 0
3, 8160, Note_on_c, 1, 50, 93
3, 8352, Note_on_c, 1, 50, 0
3, 8400, Note_on_c, 1, 48, 93
3, 8592, Note_on_c, 1, 48, 0
3, 8640, Note_on_c, 1, 47, 93
3, 8832, Note_on_c, 1, 47, 0
3, 8880, Note_on_c, 1, 48, 93
3, 9072, Note_on_c, 1, 48, 0
3, 9120, Note_on_c, 1, 45, 93
3, 9216, Note_on_c, 1, 45, 0
3, 9240, Note_on_c, 1, 47, 93
3, 9336, Note_on_c, 1, 47, 0
3, 9360, Note_on_c, 1, 48, 93
3, 9456, Note_on_c, 1, 48, 0
3, 9480, Note_on_c, 1, 50, 93
3, 9576, Note_on_c, 1, 50, 0
3, 9600, Note_on_c, 1, 52, 93
3, 9696, Note_on_c, 1, 52, 0
3, 9720, Note_on_c, 1, 53, 93
3, 9816, Note_on_c, 1, 53, 0
3, 9840, Note_on_c, 1, 55, 93
3, 10032, Note_on_c, 1, 55, 0
3, 10080, Note_on_c, 1, 53, 93
3, 10272, Note_on_c, 1, 53, 0
3, 10320, Note_on_c, 1, 52, 93
3, 10512, Note_on_c, 1, 52, 0
3, 10560, Note_on_c, 1, 50, 93
3, 10752, Note_on_c, 1, 50, 0
3, 10800, Note_on_c, 1, 52, 93
3, 10980, Note_on_c, 1, 52, 0
3, 11040, Note_on_c, 1, 48, 93
3, 11136, Note_on_c, 1, 48, 0
3, 11160, Note_on_c, 1, 50, 93
3, 11256, Note_on_c, 1, 50, 0
3, 11280, Note_on_c, 1, 52, 93
3, 11376, Note_on_c, 1, 52, 0
3, 11400, Note_on_c, 1, 54, 93
3, 11496, Note_on_c, 1, 54, 0
3, 11520, Note_on_c, 1, 55, 93
3, 11616, Note_on_c, 1, 55, 0
3, 11640, Note_on_c, 1, 57, 93
3, 11736, Note_on_c, 1, 57, 0
3, 11760, Note_on_c, 1, 59, 93
3, 11952, Note_on_c, 1, 59, 0
3, 12000, Note_on_c, 1, 57, 93
3, 12192, Note_on_c, 1, 57, 0
3, 12240, Note_on_c, 1, 55, 93
3, 12432, Note_on_c, 1, 55, 0
3, 12480, Note_on_c, 1, 54, 93
3, 12672, Note_on_c, 1, 54, 0
3, 12720, Note_on_c, 1, 55, 93
3, 12900, Note_on_c, 1, 55, 0
3, 12960, Note_on_c, 1, 52, 93
3, 13152, Note_on_c, 1, 52, 0
3, 13200, Note_on_c, 1, 60, 93
3, 13392, Note_on_c, 1, 60, 0
3, 13440, Note_on_c, 1, 57, 93
3, 13632, Note_on_c, 1, 57, 0
3, 13680, Note_on_c, 1, 57, 93
3, 13776, Note_on_c, 1, 57, 0
3, 13800, Note_on_c, 1, 55, 93
3, 13896, Note_on_c, 1, 55, 0
3, 13920, Note_on_c, 1, 54, 93
3, 14016, Note_on_c, 1, 54, 0
3, 14040, Note_on_c, 1, 52, 93
3, 14136, Note_on_c, 1, 52, 0
3, 14160, Note_on_c, 1, 59, 93
3, 14340, Note_on_c, 1, 59, 0
3, 14400, Note_on_c, 1, 47, 93
3, 14580, Note_on_c, 1, 47, 0
3, 14640, Note_on_c, 1, 52, 93
3, 14820, Note_on_c, 1, 52, 0
3, 14880, Note_on_c, 1, 47, 93
3, 15060, Note_on_c, 1, 47, 0
3, 15120, Note_on_c, 1, 40, 93
3, 15312, Note_on_c, 1, 40, 0
3, 15360, Note_on_c, 1, 52, 93
3, 15456, Note_on_c, 1, 52, 0
3, 15480, Note_on_c, 1, 50, 93
3, 15576, Note_on_c, 1, 50, 0
3, 15600, Note_on_c, 1, 48, 93
3, 15696, Note_on_c, 1, 48, 0
3, 15720, Note_on_c, 1, 47, 93
3, 15816, Note_on_c, 1, 47, 0
3, 15840, Note_on_c, 1, 45, 93
3, 15936, Note_on_c, 1, 45, 0
3, 15960, Note_on_c, 1, 47, 93
3, 16056, Note_on_c, 1, 47, 0
3, 16080, Note_on_c, 1, 48, 93
3, 16176, Note_on_c, 1, 48, 0
3, 16200, Note_on_c, 1, 47, 93
3, 16296, Note_on_c, 1, 47, 0
3, 16320, Note_on_c, 1, 45, 93
3, 16416, Note_on_c, 1, 45, 0
3, 16440, Note_on_c, 1, 47, 93
3, 16536, Note_on_c, 1, 47, 0
3, 16560, Note_on_c, 1, 48, 93
3, 16656, Note_on_c, 1, 48, 0
3, 16680, Note_on_c, 1, 47, 93
3, 16776, Note_on_c, 1, 47, 0
3, 16800, Note_on_c, 1, 45, 93
3, 16896, Note_on_c, 1, 45, 0
3, 16920, Note_on_c, 1, 47, 93
3, 17016, Note_on_c, 1, 47, 0
3, 17040, Note_on_c, 1, 48, 93
3, 17136, Note_on_c, 1, 48, 0
3, 17160, Note_on_c, 1, 50, 93
3, 17256, Note_on_c, 1, 50, 0
3, 17280, Note_on_c, 1, 52, 93
3, 17376, Note_on_c, 1, 52, 0
3, 17400, Note_on_c, 1, 50, 93
3, 17496, Note_on_c, 1, 50, 0
3, 17520, Note_on_c, 1, 48, 93
3, 17616, Note_on_c, 1, 48, 0
3, 17640, Note_on_c, 1, 47, 93
3, 17736, Note_on_c, 1, 47, 0
3, 17760, Note_on_c, 1, 45, 93
3, 17856, Note_on_c, 1, 45, 0
3, 17880, Note_on_c, 1, 47, 93
3, 17976, Note_on_c, 1, 47, 0
3, 18000, Note_on_c, 1, 48, 93
3, 18096, Note_on_c, 1, 48, 0
3, 18120, Note_on_c, 1, 47, 93
3, 18216, Note_on_c, 1, 47, 0
3, 18240, Note_on_c, 1, 45, 93
3, 18336, Note_on_c, 1, 45, 0
3, 18360, Note_on_c, 1, 47, 93
3, 18456, Note_on_c, 1, 47, 0
3, 18480, Note_on_c, 1, 48, 93
3, 18576, Note_on_c, 1, 48, 0
3, 18600, Note_on_c, 1, 47, 93
3, 18696, Note_on_c, 1, 47, 0
3, 18720, Note_on_c, 1, 45, 93
3, 18816, Note_on_c, 1, 45, 0
3, 18840, Note_on_c, 1, 47, 93
3, 18936, Note_on_c, 1, 47, 0
3, 18960, Note_on_c, 1, 48, 93
3, 19056, Note_on_c, 1, 48, 0
3, 19080, Note_on_c, 1, 50, 93
3, 19176, Note_on_c, 1, 50, 0
3, 19200, Note_on_c, 1, 52, 93
3, 19296, Note_on_c, 1, 52, 0
3, 19320, Note_on_c, 1, 50, 93
3, 19416, Note_on_c, 1, 50, 0
3, 19440, Note_on_c, 1, 48, 93
3, 19536, Note_on_c, 1, 48, 0
3, 19560, Note_on_c, 1, 47, 93
3, 19656, Note_on_c, 1, 47, 0
3, 19680, Note_on_c, 1, 45, 93
3, 19776, Note_on_c, 1, 45, 0
3, 19800, Note_on_c, 1, 47, 93
3, 19896, Note_on_c, 1, 47, 0
3, 19920, Note_on_c, 1, 48, 93
3, 20016, Note_on_c, 1, 48, 0
3, 20040, Note_on_c, 1, 47, 93
3, 20136, Note_on_c, 1, 47, 0
3, 20160, Note_on_c, 1, 45, 93
3, 20256, Note_on_c, 1, 45, 0
3, 20280, Note_on_c, 1, 47, 93
3, 20376, Note_on_c, 1, 47, 0
3, 20400, Note_on_c, 1, 48, 93
3, 20496, Note_on_c, 1, 48, 0
3, 20520, Note_on_c, 1, 47, 93
3, 20616, Note_on_c, 1, 47, 0
3, 20640, Note_on_c, 1, 45, 93
3, 20736, Note_on_c, 1, 45, 0
3, 20760, Note_on_c, 1, 47, 93
3, 20856, Note_on_c, 1, 47, 0
3, 20880, Note_on_c, 1, 48, 93
3, 20976, Note_on_c, 1, 48, 0
3, 21000, Note_on_c, 1, 50, 93
3, 21096, Note_on_c, 1, 50, 0
3, 21120, Note_on_c, 1, 52, 93
3, 21216, Note_on_c, 1, 52, 0
3, 21240, Note_on_c, 1, 53, 93
3, 21336, Note_on_c, 1, 53, 0
3, 21360, Note_on_c, 1, 52, 93
3, 21456, Note_on_c, 1, 52, 0
3, 21480, Note_on_c, 1, 50, 93
3, 21576, Note_on_c, 1, 50, 0
3, 21600, Note_on_c, 1, 48, 93
3, 21696, Note_on_c, 1, 48, 0
3, 21720, Note_on_c, 1, 47, 93
3, 21816, Note_on_c, 1, 47, 0
3, 21840, Note_on_c, 1, 45, 93
3, 21936, Note_on_c, 1, 45, 0
3, 21960, Note_on_c, 1, 44, 93
3, 22056, Note_on_c, 1, 44, 0
3, 22080, Note_on_c, 1, 45, 93
3, 22272, Note_on_c, 1, 45, 0
3, 22320, Note_on_c, 1, 40, 93
3, 22896, Note_on_c, 1, 40, 0
3, 23040, Note_on_c, 1, 52, 93
3, 23136, Note_on_c, 1, 52, 0
3, 23160, Note_on_c, 1, 53, 93
3, 23256, Note_on_c, 1, 53, 0
3, 23280, Note_on_c, 1, 52, 93
3, 23472, Note_on_c, 1, 52, 0
3, 23520, Note_on_c, 1, 50, 93
3, 23712, Note_on_c, 1, 50, 0
3, 23760, Note_on_c, 1, 48, 93
3, 23952, Note_on_c, 1, 48, 0
3, 24000, Note_on_c, 1, 47, 93
3, 24192, Note_on_c, 1, 47, 0
3, 24240, Note_on_c, 1, 48, 93
3, 24432, Note_on_c, 1, 48, 0
3, 24480, Note_on_c, 1, 45, 93
3, 24576, Note_on_c, 1, 45, 0
3, 24600, Note_on_c, 1, 47, 93
3, 24696, Note_on_c, 1, 47, 0
3, 24720, Note_on_c, 1, 48, 93
3, 24816, Note_on_c, 1, 48, 0
3, 24840, Note_on_c, 1, 50, 93
3, 24936, Note_on_c, 1, 50, 0
3, 24960, Note_on_c, 1, 52, 93
3, 25056, Note_on_c, 1, 52, 0
3, 25080, Note_on_c, 1, 53, 93
3, 25176, Note_on_c, 1, 53, 0
3, 25200, Note_on_c, 1, 55, 93
3, 25392, Note_on_c, 1, 55, 0
3, 25440, Note_on_c, 1, 53, 93
3, 25632, Note_on_c, 1, 53, 0
3, 25680, Note_on_c, 1, 52, 93
3, 25872, Note_on_c, 1, 52, 0
3, 25920, Note_on_c, 1, 50, 93
3, 26112, Note_on_c, 1, 50, 0
3, 26160, Note_on_c, 1, 52, 93
3, 26340, Note_on_c, 1, 52, 0
3, 26400, Note_on_c, 1, 48, 93
3, 26496, Note_on_c, 1, 48, 0
3, 26520, Note_on_c, 1, 50, 93
3, 26616, Note_on_c, 1, 50, 0
3, 26640, Note_on_c, 1, 52, 93
3, 26736, Note_on_c, 1, 52, 0
3, 26760, Note_on_c, 1, 54, 93
3, 26856, Note_on_c, 1, 54, 0
3, 26880, Note_on_c, 1, 55, 93
3, 26976, Note_on_c, 1, 55, 0
3, 27000, Note_on_c, 1, 57, 93
3, 27096, Note_on_c, 1, 57, 0
3, 27120, Note_on_c, 1, 59, 93
3, 27312, Note_on_c, 1, 59, 0
3, 27360, Note_on_c, 1, 57, 93
3, 27552, Note_on_c, 1, 57, 0
3, 27600, Note_on_c, 1, 55, 93
3, 27792, Note_on_c, 1, 55, 0
3, 27840, Note_on_c, 1, 54, 93
3, 28032, Note_on_c, 1, 54, 0
3, 28080, Note_on_c, 1, 55, 93
3, 28260, Note_on_c, 1, 55, 0
3, 28320, Note_on_c, 1, 52, 93
3, 28512, Note_on_c, 1, 52, 0
3, 28560, Note_on_c, 1, 60, 93
3, 28752, Note_on_c, 1, 60, 0
3, 28800, Note_on_c, 1, 57, 93
3, 28992, Note_on_c, 1, 57, 0
3, 29040, Note_on_c, 1, 57, 93
3, 29136, Note_on_c, 1, 57, 0
3, 29160, Note_on_c, 1, 55, 93
3, 29256, Note_on_c, 1, 55, 0
3, 29280, Note_on_c, 1, 54, 93
3, 29376, Note_on_c, 1, 54, 0
3, 29400, Note_on_c, 1, 52, 93
3, 29496, Note_on_c, 1, 52, 0
3, 29520, Note_on_c, 1, 59, 93
3, 29700, Note_on_c, 1, 59, 0
3, 29760, Note_on_c, 1, 47, 93
3, 29940, Note_on_c, 1, 47, 0
3, 30000, Note_on_c, 1, 52, 93
3, 30180, Note_on_c, 1, 52, 0
3, 30240, Note_on_c, 1, 47, 93
3, 30420, Note_on_c, 1, 47, 0
3, 30480, Note_on_c, 1, 40, 93
3, 30672, Note_on_c, 1, 40, 0
3, 30720, Note_on_c, 1, 52, 93
3, 30816, Note_on_c, 1, 52, 0
3, 30840, Note_on_c, 1, 53, 93
3, 30936, Note_on_c, 1, 53, 0
3, 30960, Note_on_c, 1, 55, 93
3, 31056, Note_on_c, 1, 55, 0
3, 31080, Note_on_c, 1, 53, 93
3, 31176, Note_on_c, 1, 53, 0
3, 31200, Note_on_c, 1, 52, 93
3, 31296, Note_on_c, 1, 52, 0
3, 31320, Note_on_c, 1, 53, 93
3, 31416, Note_on_c, 1, 53, 0
3, 31440, Note_on_c, 1, 55, 93
3, 31536, Note_on_c, 1, 55, 0
3, 31560, Note_on_c, 1, 53, 93
3, 31656, Note_on_c, 1, 53, 0
3, 31680, Note_on_c, 1, 52, 93
3, 31776, Note_on_c, 1, 52, 0
3, 31800, Note_on_c, 1, 53, 93
3, 31896, Note_on_c, 1, 53, 0
3, 31920, Note_on_c, 1, 55, 93
3, 32016, Note_on_c, 1, 55, 0
3, 32040, Note_on_c, 1, 53, 93
3, 32136, Note_on_c, 1, 53, 0
3, 32160, Note_on_c, 1, 52, 93
3, 32256, Note_on_c, 1, 52, 0
3, 32280, Note_on_c, 1, 53, 93
3, 32376, Note_on_c, 1, 53, 0
3, 32400, Note_on_c, 1, 55, 93
3, 32580, Note_on_c, 1, 55, 0
3, 32640, Note_on_c, 1, 49, 93
3, 32832, Note_on_c, 1, 49, 0
3, 32880, Note_on_c, 1, 50, 93
3, 33072, Note_on_c, 1, 50, 0
3, 33120, Note_on_c, 1, 46, 93
3, 33312, Note_on_c, 1, 46, 0
3, 33360, Note_on_c, 1, 43, 93
3, 33552, Note_on_c, 1, 43, 0
3, 33600, Note_on_c, 1, 45, 93
3, 33792, Note_on_c, 1, 45, 0
3, 33840, Note_on_c, 1, 38, 93
3, 34416, Note_on_c, 1, 38, 0
3, 34560, Note_on_c, 1, 50, 93
3, 34656, Note_on_c, 1, 50, 0
3, 34680, Note_on_c, 1, 52, 93
3, 34776, Note_on_c, 1, 52, 0
3, 34800, Note_on_c, 1, 53, 93
3, 34896, Note_on_c, 1, 53, 0
3, 34920, Note_on_c, 1, 52, 93
3, 35016, Note_on_c, 1, 52, 0
3, 35040, Note_on_c, 1, 50, 93
3, 35136, Note_on_c, 1, 50, 0
3, 35160, Note_on_c, 1, 52, 93
3, 35256, Note_on_c, 1, 52, 0
3, 35280, Note_on_c, 1, 53, 93
3, 35376, Note_on_c, 1, 53, 0
3, 35400, Note_on_c, 1, 52, 93
3, 35496, Note_on_c, 1, 52, 0
3, 35520, Note_on_c, 1, 50, 93
3, 35616, Note_on_c, 1, 50, 0
3, 35640, Note_on_c, 1, 52, 93
3, 35736, Note_on_c, 1, 52, 0
3, 35760, Note_on_c, 1, 53, 93
3, 35856, Note_on_c, 1, 53, 0
3, 35880, Note_on_c, 1, 52, 93
3, 35976, Note_on_c, 1, 52, 0
3, 36000, Note_on_c, 1, 50, 93
3, 36096, Note_on_c, 1, 50, 0
3, 36120, Note_on_c, 1, 52, 93
3, 36216, Note_on_c, 1, 52, 0
3, 36240, Note_on_c, 1, 53, 93
3, 36336, Note_on_c, 1, 53, 0
3, 36360, Note_on_c, 1, 55, 93
3, 36456, Note_on_c, 1, 55, 0
3, 36480, Note_on_c, 1, 57, 93
3, 36576, Note_on_c, 1, 57, 0
3, 36600, Note_on_c, 1, 59, 93
3, 36696, Note_on_c, 1, 59, 0
3, 36720, Note_on_c, 1, 60, 93
3, 36900, Note_on_c, 1, 60, 0
3, 36960, Note_on_c, 1, 57, 93
3, 37152, Note_on_c, 1, 57, 0
3, 37200, Note_on_c, 1, 53, 93
3, 37392, Note_on_c, 1, 53, 0
3, 37440, Note_on_c, 1, 55, 93
3, 37632, Note_on_c, 1, 55, 0
3, 37680, Note_on_c, 1, 48, 93
3, 38256, Note_on_c, 1, 48, 0
3, 38280, Note_on_c, 1, 53, 93
3, 38376, Note_on_c, 1, 53, 0
3, 38400, Note_on_c, 1, 52, 93
3, 38496, Note_on_c, 1, 52, 0
3, 38520, Note_on_c, 1, 50, 93
3, 38616, Note_on_c, 1, 50, 0
3, 38640, Note_on_c, 1, 48, 93
3, 38736, Note_on_c, 1, 48, 0
3, 38760, Note_on_c, 1, 47, 93
3, 38856, Note_on_c, 1, 47, 0
3, 38880, Note_on_c, 1, 48, 93
3, 39216, Note_on_c, 1, 48, 0
3, 39240, Note_on_c, 1, 52, 93
3, 39336, Note_on_c, 1, 52, 0
3, 39360, Note_on_c, 1, 50, 93
3, 39456, Note_on_c, 1, 50, 0
3, 39480, Note_on_c, 1, 48, 93
3, 39576, Note_on_c, 1, 48, 0
3, 39600, Note_on_c, 1, 56, 93
3, 39600, Note_on_c, 1, 47, 93
3, 39696, Note_on_c, 1, 47, 0
3, 39696, Note_on_c, 1, 56, 0
3, 39720, Note_on_c, 1, 45, 93
3, 39720, Note_on_c, 1, 54, 93
3, 39816, Note_on_c, 1, 54, 0
3, 39816, Note_on_c, 1, 45, 0
3, 39840, Note_on_c, 1, 56, 93
3, 39840, Note_on_c, 1, 47, 93
3, 39936, Note_on_c, 1, 56, 0
3, 39960, Note_on_c, 1, 65, 93
3, 40056, Note_on_c, 1, 65, 0
3, 40080, Note_on_c, 1, 64, 93
3, 40176, Note_on_c, 1, 47, 0
3, 40200, Note_on_c, 1, 50, 93
3, 40260, Note_on_c, 1, 64, 0
3, 40296, Note_on_c, 1, 50, 0
3, 40320, Note_on_c, 1, 48, 93
3, 40320, Note_on_c, 1, 55, 93
3, 40416, Note_on_c, 1, 48, 0
3, 40440, Note_on_c, 1, 47, 93
3, 40500, Note_on_c, 1, 55, 0
3, 40536, Note_on_c, 1, 47, 0
3, 40560, Note_on_c, 1, 54, 93
3, 40560, Note_on_c, 1, 45, 93
3, 40656, Note_on_c, 1, 45, 0
3, 40656, Note_on_c, 1, 54, 0
3, 40680, Note_on_c, 1, 52, 93
3, 40680, Note_on_c, 1, 44, 93
3, 40776, Note_on_c, 1, 44, 0
3, 40776, Note_on_c, 1, 52, 0
3, 40800, Note_on_c, 1, 53, 93
3, 40800, Note_on_c, 1, 45, 93
3, 40896, Note_on_c, 1, 53, 0
3, 40920, Note_on_c, 1, 64, 93
3, 41016, Note_on_c, 1, 64, 0
3, 41040, Note_on_c, 1, 62, 93
3, 41136, Note_on_c, 1, 62, 0
3, 41136, Note_on_c, 1, 45, 0
3, 41160, Note_on_c, 1, 47, 93
3, 41160, Note_on_c, 1, 60, 93
3, 41256, Note_on_c, 1, 60, 0
3, 41256, Note_on_c, 1, 47, 0
3, 41280, Note_on_c, 1, 48, 93
3, 41280, Note_on_c, 1, 59, 93
3, 41376, Note_on_c, 1, 59, 0
3, 41376, Note_on_c, 1, 48, 0
3, 41400, Note_on_c, 1, 50, 93
3, 41400, Note_on_c, 1, 57, 93
3, 41496, Note_on_c, 1, 57, 0
3, 41496, Note_on_c, 1, 50, 0
3, 41520, Note_on_c, 1, 52, 93
3, 41616, Note_on_c, 1, 52, 0
3, 41640, Note_on_c, 1, 51, 93
3, 41736, Note_on_c, 1, 51, 0
3, 41760, Note_on_c, 1, 52, 93
3, 42096, Note_on_c, 1, 52, 0
3, 42120, Note_on_c, 1, 50, 93
3, 42216, Note_on_c, 1, 50, 0
3, 42240, Note_on_c, 1, 48, 93
3, 42336, Note_on_c, 1, 48, 0
3, 42360, Note_on_c, 1, 47, 93
3, 42456, Note_on_c, 1, 47, 0
3, 42480, Note_on_c, 1, 45, 93
3, 42576, Note_on_c, 1, 45, 0
3, 42600, Note_on_c, 1, 44, 93
3, 42696, Note_on_c, 1, 44, 0
3, 42720, Note_on_c, 1, 42, 93
3, 42816, Note_on_c, 1, 42, 0
3, 42840, Note_on_c, 1, 44, 93
3, 42936, Note_on_c, 1, 44, 0
3, 42960, Note_on_c, 1, 45, 93
3, 43056, Note_on_c, 1, 45, 0
3, 43080, Note_on_c, 1, 44, 93
3, 43176, Note_on_c, 1, 44, 0
3, 43200, Note_on_c, 1, 42, 93
3, 43296, Note_on_c, 1, 42, 0
3, 43320, Note_on_c, 1, 44, 93
3, 43416, Note_on_c, 1, 44, 0
3, 43440, Note_on_c, 1, 45, 93
3, 43536, Note_on_c, 1, 45, 0
3, 43560, Note_on_c, 1, 47, 93
3, 43656, Note_on_c, 1, 47, 0
3, 43680, Note_on_c, 1, 48, 93
3, 43776, Note_on_c, 1, 48, 0
3, 43800, Note_on_c, 1, 50, 93
3, 43896, Note_on_c, 1, 50, 0
3, 43920, Note_on_c, 1, 52, 93
3, 44016, Note_on_c, 1, 52, 0
3, 44040, Note_on_c, 1, 54, 93
3, 44136, Note_on_c, 1, 54, 0
3, 44160, Note_on_c, 1, 56, 93
3, 44256, Note_on_c, 1, 56, 0
3, 44280, Note_on_c, 1, 57, 93
3, 44376, Note_on_c, 1, 57, 0
3, 44400, Note_on_c, 1, 56, 93
3, 44496, Note_on_c, 1, 56, 0
3, 44520, Note_on_c, 1, 57, 93
3, 44616, Note_on_c, 1, 57, 0
3, 44640, Note_on_c, 1, 59, 93
3, 44736, Note_on_c, 1, 59, 0
3, 44760, Note_on_c, 1, 57, 93
3, 44856, Note_on_c, 1, 57, 0
3, 44880, Note_on_c, 1, 56, 93
3, 44976, Note_on_c, 1, 56, 0
3, 45000, Note_on_c, 1, 57, 93
3, 45096, Note_on_c, 1, 57, 0
3, 45120, Note_on_c, 1, 59, 93
3, 45216, Note_on_c, 1, 59, 0
3, 45240, Note_on_c, 1, 57, 93
3, 45336, Note_on_c, 1, 57, 0
3, 45360, Note_on_c, 1, 56, 93
3, 45456, Note_on_c, 1, 56, 0
3, 45480, Note_on_c, 1, 54, 93
3, 45576, Note_on_c, 1, 54, 0
3, 45600, Note_on_c, 1, 52, 93
3, 45696, Note_on_c, 1, 52, 0
3, 45720, Note_on_c, 1, 50, 93
3, 45816, Note_on_c, 1, 50, 0
3, 45840, Note_on_c, 1, 48, 93
3, 45936, Note_on_c, 1, 48, 0
3, 45960, Note_on_c, 1, 47, 93
3, 46056, Note_on_c, 1, 47, 0
3, 46080, Note_on_c, 1, 45, 93
3, 46176, Note_on_c, 1, 45, 0
3, 46200, Note_on_c, 1, 44, 93
3, 46296, Note_on_c, 1, 44, 0
3, 46320, Note_on_c, 1, 45, 93
3, 46500, Note_on_c, 1, 45, 0
3, 46560, Note_on_c, 1, 48, 93
3, 46752, Note_on_c, 1, 48, 0
3, 46800, Note_on_c, 1, 47, 93
3, 46992, Note_on_c, 1, 47, 0
3, 47040, Note_on_c, 1, 45, 93
3, 47232, Note_on_c, 1, 45, 0
3, 47280, Note_on_c, 1, 44, 93
3, 47472, Note_on_c, 1, 44, 0
3, 47520, Note_on_c, 1, 45, 93
3, 47712, Note_on_c, 1, 45, 0
3, 47760, Note_on_c, 1, 41, 93
3, 47952, Note_on_c, 1, 41, 0
3, 48000, Note_on_c, 1, 38, 93
3, 48192, Note_on_c, 1, 38, 0
3, 48240, Note_on_c, 1, 40, 93
3, 48420, Note_on_c, 1, 40, 0
3, 48480, Note_on_c, 1, 45, 93
3, 48660, Note_on_c, 1, 45, 0
3, 48720, Note_on_c, 1, 52, 93
3, 48900, Note_on_c, 1, 52, 0
3, 48960, Note_on_c, 1, 40, 93
3, 49140, Note_on_c, 1, 40, 0
3, 49200, Note_on_c, 1, 45, 93
3, 49440, Note_on_c, 1, 40, 93
3, 49620, Note_on_c, 1, 40, 0
3, 49680, Note_on_c, 1, 33, 93
3, 49776, Note_on_c, 1, 45, 0
3, 49872, Note_on_c, 1, 33, 0
3, 49920, Note_on_c, 1, 52, 93
3, 50016, Note_on_c, 1, 52, 0
3, 50040, Note_on_c, 1, 53, 93
3, 50136, Note_on_c, 1, 53, 0
3, 50160, Note_on_c, 1, 55, 93
3, 50256, Note_on_c, 1, 55, 0
3, 50280, Note_on_c, 1, 53, 93
3, 50376, Note_on_c, 1, 53, 0
3, 50400, Note_on_c, 1, 52, 93
3, 50496, Note_on_c, 1, 52, 0
3, 50520, Note_on_c, 1, 53, 93
3, 50616, Note_on_c, 1, 53, 0
3, 50640, Note_on_c, 1, 55, 93
3, 50736, Note_on_c, 1, 55, 0
3, 50760, Note_on_c, 1, 53, 93
3, 50856, Note_on_c, 1, 53, 0
3, 50880, Note_on_c, 1, 52, 93
3, 50976, Note_on_c, 1, 52, 0
3, 51000, Note_on_c, 1, 53, 93
3, 51096, Note_on_c, 1, 53, 0
3, 51120, Note_on_c, 1, 55, 93
3, 51216, Note_on_c, 1, 55, 0
3, 51240, Note_on_c, 1, 53, 93
3, 51336, Note_on_c, 1, 53, 0
3, 51360, Note_on_c, 1, 52, 93
3, 51456, Note_on_c, 1, 52, 0
3, 51480, Note_on_c, 1, 53, 93
3, 51576, Note_on_c, 1, 53, 0
3, 51600, Note_on_c, 1, 55, 93
3, 51780, Note_on_c, 1, 55, 0
3, 51840, Note_on_c, 1, 49, 93
3, 52032, Note_on_c, 1, 49, 0
3, 52080, Note_on_c, 1, 50, 93
3, 52272, Note_on_c, 1, 50, 0
3, 52320, Note_on_c, 1, 46, 93
3, 52512, Note_on_c, 1, 46, 0
3, 52560, Note_on_c, 1, 43, 93
3, 52752, Note_on_c, 1, 43, 0
3, 52800, Note_on_c, 1, 45, 93
3, 52992, Note_on_c, 1, 45, 0
3, 53040, Note_on_c, 1, 38, 93
3, 53616, Note_on_c, 1, 38, 0
3, 53760, Note_on_c, 1, 50, 93
3, 53856, Note_on_c, 1, 50, 0
3, 53880, Note_on_c, 1, 52, 93
3, 53976, Note_on_c, 1, 52, 0
3, 54000, Note_on_c, 1, 53, 93
3, 54096, Note_on_c, 1, 53, 0
3, 54120, Note_on_c, 1, 52, 93
3, 54216, Note_on_c, 1, 52, 0
3, 54240, Note_on_c, 1, 50, 93
3, 54336, Note_on_c, 1, 50, 0
3, 54360, Note_on_c, 1, 52, 93
3, 54456, Note_on_c, 1, 52, 0
3, 54480, Note_on_c, 1, 53, 93
3, 54576, Note_on_c, 1, 53, 0
3, 54600, Note_on_c, 1, 52, 93
3, 54696, Note_on_c, 1, 52, 0
3, 54720, Note_on_c, 1, 50, 93
3, 54816, Note_on_c, 1, 50, 0
3, 54840, Note_on_c, 1, 52, 93
3, 54936, Note_on_c, 1, 52, 0
3, 54960, Note_on_c, 1, 53, 93
3, 55056, Note_on_c, 1, 53, 0
3, 55080, Note_on_c, 1, 52, 93
3, 55176, Note_on_c, 1, 52, 0
3, 55200, Note_on_c, 1, 50, 93
3, 55296, Note_on_c, 1, 50, 0
3, 55320, Note_on_c, 1, 52, 93
3, 55416, Note_on_c, 1, 52, 0
3, 55440, Note_on_c, 1, 53, 93
3, 55536, Note_on_c, 1, 53, 0
3, 55560, Note_on_c, 1, 55, 93
3, 55656, Note_on_c, 1, 55, 0
3, 55680, Note_on_c, 1, 57, 93
3, 55776, Note_on_c, 1, 57, 0
3, 55800, Note_on_c, 1, 59, 93
3, 55896, Note_on_c, 1, 59, 0
3, 55920, Note_on_c, 1, 60, 93
3, 56100, Note_on_c, 1, 60, 0
3, 56160, Note_on_c, 1, 57, 93
3, 56352, Note_on_c, 1, 57, 0
3, 56400, Note_on_c, 1, 53, 93
3, 56592, Note_on_c, 1, 53, 0
3, 56640, Note_on_c, 1, 55, 93
3, 56832, Note_on_c, 1, 55, 0
3, 56880, Note_on_c, 1, 48, 93
3, 57456, Note_on_c, 1, 48, 0
3, 57480, Note_on_c, 1, 53, 93
3, 57576, Note_on_c, 1, 53, 0
3, 57600, Note_on_c, 1, 52, 93
3, 57696, Note_on_c, 1, 52, 0
3, 57720, Note_on_c, 1, 50, 93
3, 57816, Note_on_c, 1, 50, 0
3, 57840, Note_on_c, 1, 48, 93
3, 57936, Note_on_c, 1, 48, 0
3, 57960, Note_on_c, 1, 47, 93
3, 58056, Note_on_c, 1, 47, 0
3, 58080, Note_on_c, 1, 48, 93
3, 58416, Note_on_c, 1, 48, 0
3, 58440, Note_on_c, 1, 52, 93
3, 58536, Note_on_c, 1, 52, 0
3, 58560, Note_on_c, 1, 50, 93
3, 58656, Note_on_c, 1, 50, 0
3, 58680, Note_on_c, 1, 48, 93
3, 58776, Note_on_c, 1, 48, 0
3, 58800, Note_on_c, 1, 56, 93
3, 58800, Note_on_c, 1, 47, 93
3, 58896, Note_on_c, 1, 47, 0
3, 58896, Note_on_c, 1, 56, 0
3, 58920, Note_on_c, 1, 45, 93
3, 58920, Note_on_c, 1, 54, 93
3, 59016, Note_on_c, 1, 54, 0
3, 59016, Note_on_c, 1, 45, 0
3, 59040, Note_on_c, 1, 56, 93
3, 59040, Note_on_c, 1, 47, 93
3, 59136, Note_on_c, 1, 56, 0
3, 59160, Note_on_c, 1, 65, 93
3, 59256, Note_on_c, 1, 65, 0
3, 59280, Note_on_c, 1, 64, 93
3, 59376, Note_on_c, 1, 47, 0
3, 59400, Note_on_c, 1, 50, 93
3, 59460, Note_on_c, 1, 64, 0
3, 59496, Note_on_c, 1, 50, 0
3, 59520, Note_on_c, 1, 48, 93
3, 59520, Note_on_c, 1, 55, 93
3, 59616, Note_on_c, 1, 48, 0
3, 59640, Note_on_c, 1, 47, 93
3, 59700, Note_on_c, 1, 55, 0
3, 59736, Note_on_c, 1, 47, 0
3, 59760, Note_on_c, 1, 54, 93
3, 59760, Note_on_c, 1, 45, 93
3, 59856, Note_on_c, 1, 45, 0
3, 59856, Note_on_c, 1, 54, 0
3, 59880, Note_on_c, 1, 52, 93
3, 59880, Note_on_c, 1, 44, 93
3, 59976, Note_on_c, 1, 44, 0
3, 59976, Note_on_c, 1, 52, 0
3, 60000, Note_on_c, 1, 53, 93
3, 60000, Note_on_c, 1, 45, 93
3, 60096, Note_on_c, 1, 53, 0
3, 60120, Note_on_c, 1, 64, 93
3, 60216, Note_on_c, 1, 64, 0
3, 60240, Note_on_c, 1, 62, 93
3, 60336, Note_on_c, 1, 62, 0
3, 60336, Note_on_c, 1, 45, 0
3, 60360, Note_on_c, 1, 47, 93
3, 60360, Note_on_c, 1, 60, 93
3, 60456, Note_on_c, 1, 60, 0
3, 60456, Note_on_c, 1, 47, 0
3, 60480, Note_on_c, 1, 48, 93
3, 60480, Note_on_c, 1, 59, 93
3, 60576, Note_on_c, 1, 59, 0
3, 60576, Note_on_c, 1, 48, 0
3, 60600, Note_on_c, 1, 50, 93
3, 60600, Note_on_c, 1, 57, 93
3, 60696, Note_on_c, 1, 57, 0
3, 60696, Note_on_c, 1, 50, 0
3, 60720, Note_on_c, 1, 52, 93
3, 60816, Note_on_c, 1, 52, 0
3, 60840, Note_on_c, 1, 51, 93
3, 60936, Note_on_c, 1, 51, 0
3, 60960, Note_on_c, 1, 52, 93
3, 61296, Note_on_c, 1, 52, 0
3, 61320, Note_on_c, 1, 50, 93
3, 61416, Note_on_c, 1, 50, 0
3, 61440, Note_on_c, 1, 48, 93
3, 61536, Note_on_c, 1, 48, 0
3, 61560, Note_on_c, 1, 47, 93
3, 61656, Note_on_c, 1, 47, 0
3, 61680, Note_on_c, 1, 45, 93
3, 61776, Note_on_c, 1, 45, 0
3, 61800, Note_on_c, 1, 44, 93
3, 61896, Note_on_c, 1, 44, 0
3, 61920, Note_on_c, 1, 42, 93
3, 62016, Note_on_c, 1, 42, 0
3, 62040, Note_on_c, 1, 44, 93
3, 62136, Note_on_c, 1, 44, 0
3, 62160, Note_on_c, 1, 45, 93
3, 62256, Note_on_c, 1, 45, 0
3, 62280, Note_on_c, 1, 44, 93
3, 62376, Note_on_c, 1, 44, 0
3, 62400, Note_on_c, 1, 42, 93
3, 62496, Note_on_c, 1, 42, 0
3, 62520, Note_on_c, 1, 44, 93
3, 62616, Note_on_c, 1, 44, 0
3, 62640, Note_on_c, 1, 45, 93
3, 62736, Note_on_c, 1, 45, 0
3, 62760, Note_on_c, 1, 47, 93
3, 62856, Note_on_c, 1, 47, 0
3, 62880, Note_on_c, 1, 48, 93
3, 62976, Note_on_c, 1, 48, 0
3, 63000, Note_on_c, 1, 50, 93
3, 63096, Note_on_c, 1, 50, 0
3, 63120, Note_on_c, 1, 52, 93
3, 63216, Note_on_c, 1, 52, 0
3, 63240, Note_on_c, 1, 54, 93
3, 63336, Note_on_c, 1, 54, 0
3, 63360, Note_on_c, 1, 56, 93
3, 63456, Note_on_c, 1, 56, 0
3, 63480, Note_on_c, 1, 57, 93
3, 63576, Note_on_c, 1, 57, 0
3, 63600, Note_on_c, 1, 56, 93
3, 63696, Note_on_c, 1, 56, 0
3, 63720, Note_on_c, 1, 57, 93
3, 63816, Note_on_c, 1, 57, 0
3, 63840, Note_on_c, 1, 59, 93
3, 63936, Note_on_c, 1, 59, 0
3, 63960, Note_on_c, 1, 57, 93
3, 64056, Note_on_c, 1, 57, 0
3, 64080, Note_on_c, 1, 56, 93
3, 64176, Note_on_c, 1, 56, 0
3, 64200, Note_on_c, 1, 57, 93
3, 64296, Note_on_c, 1, 57, 0
3, 64320, Note_on_c, 1, 59, 93
3, 64416, Note_on_c, 1, 59, 0
3, 64440, Note_on_c, 1, 57, 93
3, 64536, Note_on_c, 1, 57, 0
3, 64560, Note_on_c, 1, 56, 93
3, 64656, Note_on_c, 1, 56, 0
3, 64680, Note_on_c, 1, 54, 93
3, 64776, Note_on_c, 1, 54, 0
3, 64800, Note_on_c, 1, 52, 93
3, 64896, Note_on_c, 1, 52, 0
3, 64920, Note_on_c, 1, 50, 93
3, 65016, Note_on_c, 1, 50, 0
3, 65040, Note_on_c, 1, 48, 93
3, 65136, Note_on_c, 1, 48, 0
3, 65160, Note_on_c, 1, 47, 93
3, 65256, Note_on_c, 1, 47, 0
3, 65280, Note_on_c, 1, 45, 93
3, 65376, Note_on_c, 1, 45, 0
3, 65400, Note_on_c, 1, 44, 93
3, 65496, Note_on_c, 1, 44, 0
3, 65520, Note_on_c, 1, 45, 93
3, 65700, Note_on_c, 1, 45, 0
3, 65760, Note_on_c, 1, 48, 93
3, 65952, Note_on_c, 1, 48, 0
3, 66000, Note_on_c, 1, 47, 93
3, 66192, Note_on_c, 1, 47, 0
3, 66240, Note_on_c, 1, 45, 93
3, 66432, Note_on_c, 1, 45, 0
3, 66480, Note_on_c, 1, 44, 93
3, 66672, Note_on_c, 1, 44, 0
3, 66720, Note_on_c, 1, 45, 93
3, 66912, Note_on_c, 1, 45, 0
3, 66960, Note_on_c, 1, 41, 93
3, 67152, Note_on_c, 1, 41, 0
3, 67200, Note_on_c, 1, 38, 93
3, 67392, Note_on_c, 1, 38, 0
3, 67440, Note_on_c, 1, 40, 93
3, 67620, Note_on_c, 1, 40, 0
3, 67680, Note_on_c, 1, 45, 93
3, 67860, Note_on_c, 1, 45, 0
3, 67920, Note_on_c, 1, 52, 93
3, 68100, Note_on_c, 1, 52, 0
3, 68160, Note_on_c, 1, 40, 93
3, 68340, Note_on_c, 1, 40, 0
3, 68400, Note_on_c, 1, 45, 93
3, 68640, Note_on_c, 1, 40, 93
3, 68820, Note_on_c, 1, 40, 0
3, 68880, Note_on_c, 1, 33, 93
3, 68976, Note_on_c, 1, 45, 0
3, 69072, Note_on_c, 1, 33, 0
3, 69072, End_track
4, 0, Start_track
4, 0, MIDI_port, 0
4, 0, Title_t, "Arr. Gary Bricault, (c) 1997"
4, 0, End_track
0, 0, End_of_file
