0, 0, Header, 0, 1, 384
1, 0, Start_track
1, 0, Copyright_t, "(C) John Sankey 1998"
1, 0, Program_c, 0, 6
1, 0, Pitch_bend_c, 0, 8192
1, 0, Program_c, 1, 6
1, 0, Pitch_bend_c, 1, 7792
1, 0, Program_c, 2, 6
1, 0, Pitch_bend_c, 2, 7876
1, 0, Program_c, 3, 6
1, 0, Pitch_bend_c, 3, 7952
1, 0, Program_c, 4, 6
1, 0, Pitch_bend_c, 4, 7792
1, 0, Program_c, 5, 6
1, 0, Pitch_bend_c, 5, 8112
1, 0, Program_c, 6, 6
1, 0, Pitch_bend_c, 6, 7712
1, 0, Program_c, 7, 6
1, 0, Pitch_bend_c, 7, 8037
1, 0, Program_c, 8, 6
1, 0, Pitch_bend_c, 8, 7872
1, 0, Program_c, 10, 6
1, 0, Pitch_bend_c, 10, 7712
1, 0, Program_c, 11, 6
1, 0, Pitch_bend_c, 11, 8032
1, 0, Program_c, 12, 6
1, 0, Pitch_bend_c, 12, 7872
1, 0, Tempo, 500000
1, 48, Note_on_c, 10, 57, 127
1, 158, Note_off_c, 10, 57, 127
1, 173, Note_on_c, 12, 59, 127
1, 283, Note_off_c, 12, 59, 127
1, 298, Note_on_c, 0, 60, 127
1, 408, Note_off_c, 0, 60, 127
1, 423, Note_on_c, 2, 62, 127
1, 533, Note_off_c, 2, 62, 127
1, 548, Note_on_c, 4, 64, 127
1, 658, Note_off_c, 4, 64, 127
1, 673, Note_on_c, 5, 65, 127
1, 783, Note_off_c, 5, 65, 127
1, 809, Note_on_c, 8, 56, 127
1, 1559, Note_off_c, 8, 56, 127
1, 2131, Note_on_c, 0, 60, 127
1, 2284, Note_off_c, 0, 60, 127
1, 2301, Note_on_c, 12, 59, 127
1, 2454, Note_off_c, 12, 59, 127
1, 2471, Note_on_c, 10, 57, 127
1, 2624, Note_off_c, 10, 57, 127
1, 2641, Note_on_c, 8, 56, 127
1, 2890, Note_off_c, 8, 56, 127
1, 2891, Note_on_c, 10, 57, 127
1, 3140, Note_off_c, 10, 57, 127
1, 3141, Note_on_c, 12, 59, 127
1, 3390, Note_off_c, 12, 59, 127
1, 3391, Note_on_c, 6, 54, 127
1, 3640, Note_off_c, 6, 54, 127
1, 3641, Note_on_c, 8, 56, 127
1, 3910, Note_on_c, 3, 51, 127
1, 4159, Note_off_c, 3, 51, 127
1, 4160, Note_on_c, 4, 52, 127
1, 4171, Note_off_c, 8, 56, 127
1, 4409, Note_off_c, 4, 52, 127
1, 4410, Note_on_c, 12, 47, 127
1, 4659, Note_off_c, 12, 47, 127
1, 4660, Note_on_c, 0, 48, 127
1, 4944, Note_on_c, 8, 44, 127
1, 5197, Note_on_c, 10, 45, 127
1, 5206, Note_off_c, 8, 44, 127
1, 5470, Note_off_c, 10, 45, 127
1, 5477, Note_on_c, 3, 39, 127
1, 5703, Note_off_c, 0, 48, 127
1, 5749, Note_off_c, 3, 39, 127
1, 5761, Note_on_c, 4, 40, 127
1, 6079, Note_on_c, 0, 60, 127
1, 6345, Note_off_c, 0, 60, 127
1, 6345, Note_on_c, 12, 59, 127
1, 6594, Note_off_c, 12, 59, 127
1, 6595, Note_on_c, 0, 60, 127
1, 6719, Note_off_c, 0, 60, 127
1, 6720, Note_on_c, 2, 62, 127
1, 6844, Note_off_c, 2, 62, 127
1, 6861, Note_on_c, 8, 56, 127
1, 7365, Note_off_c, 4, 40, 127
1, 7425, Note_on_c, 4, 52, 127
1, 7425, Note_on_c, 2, 50, 127
1, 7425, Note_on_c, 12, 47, 127
1, 7425, Note_on_c, 4, 40, 127
1, 7654, Note_off_c, 8, 56, 127
1, 7675, Note_on_c, 10, 57, 127
1, 7899, Note_off_c, 10, 57, 127
1, 7924, Note_off_c, 12, 47, 127
1, 7924, Note_off_c, 2, 50, 127
1, 7924, Note_off_c, 4, 52, 127
1, 7936, Note_on_c, 10, 45, 127
1, 7936, Note_on_c, 4, 52, 127
1, 7936, Note_on_c, 0, 48, 127
1, 7936, Note_on_c, 10, 57, 127
1, 7937, Note_off_c, 4, 40, 127
1, 8060, Note_off_c, 10, 57, 127
1, 8061, Note_on_c, 8, 56, 127
1, 8185, Note_off_c, 8, 56, 127
1, 8186, Note_on_c, 10, 57, 127
1, 10336, Note_off_c, 10, 57, 127
1, 10336, Note_off_c, 0, 48, 127
1, 10336, Note_off_c, 4, 52, 127
1, 10336, Note_off_c, 10, 45, 127
1, 11128, Note_on_c, 12, 71, 127
1, 11128, Note_on_c, 2, 62, 127
1, 11353, Note_off_c, 2, 62, 127
1, 11353, Note_off_c, 12, 71, 127
1, 11354, Note_on_c, 10, 69, 127
1, 11354, Note_on_c, 0, 60, 127
1, 11575, Note_on_c, 12, 59, 127
1, 11575, Note_on_c, 8, 68, 127
1, 11579, Note_off_c, 0, 60, 127
1, 11579, Note_off_c, 10, 69, 127
1, 11796, Note_on_c, 0, 60, 127
1, 11796, Note_on_c, 10, 57, 127
1, 11796, Note_on_c, 4, 64, 127
1, 11796, Note_on_c, 10, 69, 127
1, 11800, Note_off_c, 8, 68, 127
1, 11800, Note_off_c, 12, 59, 127
1, 12247, Note_off_c, 10, 69, 127
1, 12247, Note_off_c, 0, 60, 127
1, 12248, Note_on_c, 2, 62, 127
1, 12248, Note_on_c, 12, 71, 127
1, 12473, Note_off_c, 12, 71, 127
1, 12473, Note_off_c, 2, 62, 127
1, 12474, Note_on_c, 0, 60, 127
1, 12474, Note_on_c, 10, 69, 127
1, 12586, Note_off_c, 10, 69, 127
1, 12586, Note_off_c, 0, 60, 127
1, 12587, Note_on_c, 2, 62, 127
1, 12587, Note_on_c, 12, 71, 127
1, 12699, Note_off_c, 12, 71, 127
1, 12699, Note_off_c, 2, 62, 127
1, 12699, Note_off_c, 4, 64, 127
1, 12700, Note_on_c, 4, 64, 127
1, 12700, Note_on_c, 0, 72, 127
1, 12925, Note_off_c, 0, 72, 127
1, 12926, Note_off_c, 10, 57, 127
1, 12926, Note_on_c, 10, 69, 127
1, 13151, Note_off_c, 10, 69, 127
1, 13151, Note_off_c, 4, 64, 127
1, 13152, Note_on_c, 10, 57, 127
1, 13152, Note_on_c, 5, 77, 127
1, 13152, Note_on_c, 0, 72, 127
1, 13378, Note_on_c, 2, 62, 127
1, 13490, Note_off_c, 2, 62, 127
1, 13491, Note_on_c, 0, 60, 127
1, 13599, Note_off_c, 10, 57, 127
1, 13603, Note_off_c, 0, 60, 127
1, 13603, Note_off_c, 0, 72, 127
1, 13604, Note_on_c, 8, 56, 127
1, 13604, Note_on_c, 2, 62, 127
1, 13604, Note_on_c, 12, 71, 127
1, 14282, Note_off_c, 5, 77, 127
1, 14282, Note_on_c, 4, 76, 127
1, 14507, Note_off_c, 4, 76, 127
1, 14507, Note_off_c, 12, 71, 127
1, 14507, Note_off_c, 2, 62, 127
1, 14507, Note_off_c, 8, 56, 127
1, 14508, Note_on_c, 4, 76, 127
1, 14733, Note_off_c, 4, 76, 127
1, 14734, Note_on_c, 2, 74, 127
1, 14959, Note_off_c, 2, 74, 127
1, 14960, Note_on_c, 8, 56, 127
1, 14960, Note_on_c, 12, 59, 127
1, 14960, Note_on_c, 4, 64, 127
1, 14960, Note_on_c, 4, 76, 127
1, 15185, Note_off_c, 4, 76, 127
1, 15186, Note_on_c, 12, 71, 127
1, 15411, Note_off_c, 12, 71, 127
1, 15411, Note_off_c, 4, 64, 127
1, 15411, Note_off_c, 12, 59, 127
1, 15411, Note_off_c, 8, 56, 127
1, 15412, Note_on_c, 10, 57, 127
1, 15412, Note_on_c, 4, 64, 127
1, 15412, Note_on_c, 0, 72, 127
1, 15638, Note_on_c, 8, 68, 127
1, 15863, Note_off_c, 8, 68, 127
1, 15864, Note_on_c, 10, 69, 127
1, 16089, Note_off_c, 10, 69, 127
1, 16089, Note_off_c, 4, 64, 127
1, 16090, Note_on_c, 4, 64, 127
1, 16315, Note_off_c, 4, 64, 127
1, 16315, Note_off_c, 10, 57, 127
1, 16316, Note_on_c, 0, 60, 127
1, 16541, Note_off_c, 0, 60, 127
1, 16542, Note_off_c, 0, 72, 127
1, 16542, Note_on_c, 4, 64, 127
1, 16767, Note_off_c, 4, 64, 127
1, 16768, Note_on_c, 10, 57, 127
1, 16969, Note_off_c, 10, 57, 127
1, 16970, Note_on_c, 12, 59, 127
1, 17094, Note_off_c, 12, 59, 127
1, 17095, Note_on_c, 0, 60, 127
1, 17219, Note_off_c, 0, 60, 127
1, 17220, Note_on_c, 2, 50, 127
1, 17446, Note_on_c, 0, 72, 127
1, 17672, Note_on_c, 10, 57, 127
1, 17672, Note_on_c, 5, 65, 127
1, 17893, Note_off_c, 0, 72, 127
1, 17898, Note_on_c, 0, 72, 127
1, 18123, Note_off_c, 0, 72, 127
1, 18123, Note_off_c, 10, 57, 127
1, 18124, Note_on_c, 2, 62, 127
1, 18124, Note_on_c, 12, 71, 127
1, 18349, Note_off_c, 12, 71, 127
1, 18350, Note_on_c, 0, 72, 127
1, 18575, Note_off_c, 0, 72, 127
1, 18575, Note_off_c, 2, 62, 127
1, 18576, Note_on_c, 0, 60, 127
1, 18576, Note_on_c, 10, 69, 127
1, 18801, Note_off_c, 10, 69, 127
1, 18802, Note_on_c, 12, 71, 127
1, 19026, Note_off_c, 5, 65, 127
1, 19027, Note_off_c, 12, 71, 127
1, 19027, Note_off_c, 0, 60, 127
1, 19028, Note_on_c, 12, 59, 127
1, 19028, Note_on_c, 4, 64, 127
1, 19028, Note_on_c, 10, 69, 127
1, 19102, Note_off_c, 10, 69, 127
1, 19106, Note_on_c, 8, 68, 127
1, 19179, Note_on_c, 10, 69, 127
1, 19180, Note_off_c, 8, 68, 127
1, 19253, Note_off_c, 10, 69, 127
1, 19254, Note_on_c, 8, 68, 127
1, 19701, Note_off_c, 8, 68, 127
1, 19706, Note_on_c, 8, 68, 127
1, 19927, Note_off_c, 2, 50, 127
1, 19931, Note_off_c, 8, 68, 127
1, 19931, Note_off_c, 4, 64, 127
1, 19931, Note_off_c, 12, 59, 127
1, 19932, Note_on_c, 0, 48, 127
1, 19932, Note_on_c, 10, 57, 127
1, 19932, Note_on_c, 10, 69, 127
1, 19932, Note_on_c, 4, 64, 127
1, 20157, Note_off_c, 10, 69, 127
1, 20158, Note_on_c, 0, 72, 127
1, 20383, Note_off_c, 0, 72, 127
1, 20383, Note_off_c, 10, 57, 127
1, 20384, Note_on_c, 10, 57, 127
1, 20384, Note_on_c, 12, 71, 127
1, 20475, Note_off_c, 12, 71, 127
1, 20476, Note_on_c, 0, 72, 127
1, 20567, Note_off_c, 0, 72, 127
1, 20568, Note_on_c, 12, 71, 127
1, 20659, Note_off_c, 12, 71, 127
1, 20660, Note_on_c, 10, 69, 127
1, 20830, Note_off_c, 10, 69, 127
1, 20834, Note_off_c, 10, 57, 127
1, 20834, Note_off_c, 4, 64, 127
1, 20834, Note_off_c, 0, 48, 127
1, 20835, Note_on_c, 12, 47, 127
1, 20835, Note_on_c, 12, 59, 127
1, 20835, Note_on_c, 2, 74, 127
1, 21061, Note_on_c, 10, 69, 127
1, 21286, Note_off_c, 10, 69, 127
1, 21287, Note_on_c, 12, 71, 127
1, 21512, Note_off_c, 12, 71, 127
1, 21513, Note_on_c, 6, 66, 127
1, 21738, Note_off_c, 6, 66, 127
1, 21738, Note_off_c, 2, 74, 127
1, 21738, Note_off_c, 12, 59, 127
1, 21738, Note_off_c, 12, 47, 127
1, 21739, Note_on_c, 12, 59, 127
1, 21739, Note_on_c, 8, 68, 127
1, 21965, Note_on_c, 5, 77, 127
1, 22190, Note_off_c, 5, 77, 127
1, 22191, Note_on_c, 4, 64, 127
1, 22191, Note_on_c, 4, 76, 127
1, 22416, Note_off_c, 4, 76, 127
1, 22417, Note_on_c, 2, 74, 127
1, 22642, Note_off_c, 2, 74, 127
1, 22642, Note_off_c, 4, 64, 127
1, 22642, Note_off_c, 8, 68, 127
1, 22642, Note_off_c, 12, 59, 127
1, 22643, Note_on_c, 10, 57, 127
1, 22643, Note_on_c, 5, 65, 127
1, 22643, Note_on_c, 1, 73, 127
1, 22643, Note_on_c, 10, 69, 127
1, 22868, Note_off_c, 10, 69, 127
1, 22868, Note_off_c, 1, 73, 127
1, 22869, Note_on_c, 10, 69, 127
1, 23095, Note_on_c, 2, 74, 127
1, 23320, Note_off_c, 5, 65, 127
1, 23321, Note_on_c, 4, 64, 127
1, 23433, Note_off_c, 4, 64, 127
1, 23434, Note_on_c, 2, 62, 127
1, 23546, Note_off_c, 2, 62, 127
1, 23547, Note_on_c, 4, 64, 127
1, 23660, Note_off_c, 2, 74, 127
1, 23773, Note_on_c, 4, 76, 127
1, 23885, Note_off_c, 4, 76, 127
1, 23886, Note_on_c, 12, 71, 127
1, 23998, Note_off_c, 12, 71, 127
1, 23999, Note_on_c, 0, 72, 127
1, 24223, Note_off_c, 10, 69, 127
1, 24225, Note_on_c, 7, 67, 127
1, 24446, Note_off_c, 0, 72, 127
1, 24450, Note_off_c, 7, 67, 127
1, 24450, Note_off_c, 4, 64, 127
1, 24451, Note_on_c, 2, 62, 127
1, 24451, Note_on_c, 12, 71, 127
1, 24451, Note_on_c, 5, 65, 127
1, 24676, Note_off_c, 2, 62, 127
1, 24677, Note_on_c, 2, 62, 127
1, 24902, Note_off_c, 2, 62, 127
1, 24903, Note_on_c, 0, 60, 127
1, 25128, Note_off_c, 0, 60, 127
1, 25129, Note_on_c, 12, 59, 127
1, 25350, Note_off_c, 10, 57, 127
1, 25354, Note_off_c, 12, 59, 127
1, 25354, Note_off_c, 5, 65, 127
1, 25354, Note_off_c, 12, 71, 127
1, 25355, Note_on_c, 7, 55, 127
1, 25355, Note_on_c, 4, 64, 127
1, 25581, Note_on_c, 2, 74, 127
1, 25806, Note_off_c, 2, 74, 127
1, 25807, Note_on_c, 2, 62, 127
1, 25807, Note_on_c, 0, 72, 127
1, 26032, Note_off_c, 0, 72, 127
1, 26033, Note_on_c, 12, 71, 127
1, 26258, Note_off_c, 12, 71, 127
1, 26258, Note_off_c, 2, 62, 127
1, 26258, Note_off_c, 4, 64, 127
1, 26259, Note_on_c, 1, 61, 127
1, 26259, Note_on_c, 4, 64, 127
1, 26259, Note_on_c, 10, 69, 127
1, 26484, Note_off_c, 1, 61, 127
1, 26485, Note_on_c, 12, 59, 127
1, 26710, Note_off_c, 12, 59, 127
1, 26711, Note_on_c, 1, 61, 127
1, 26936, Note_off_c, 1, 61, 127
1, 26937, Note_on_c, 10, 57, 127
1, 27156, Note_off_c, 7, 55, 127
1, 27162, Note_off_c, 10, 57, 127
1, 27162, Note_off_c, 10, 69, 127
1, 27162, Note_off_c, 4, 64, 127
1, 27163, Note_on_c, 5, 53, 127
1, 27163, Note_on_c, 2, 62, 127
1, 27389, Note_on_c, 5, 77, 127
1, 27610, Note_off_c, 2, 62, 127
1, 27614, Note_off_c, 5, 77, 127
1, 27615, Note_on_c, 4, 76, 127
1, 27615, Note_on_c, 10, 69, 127
1, 27840, Note_off_c, 4, 76, 127
1, 27841, Note_on_c, 2, 74, 127
1, 28062, Note_off_c, 10, 69, 127
1, 28066, Note_off_c, 2, 74, 127
1, 28066, Note_off_c, 5, 53, 127
1, 28067, Note_on_c, 4, 52, 127
1, 28067, Note_on_c, 4, 64, 127
1, 28067, Note_on_c, 7, 79, 127
1, 28292, Note_off_c, 7, 79, 127
1, 28293, Note_on_c, 2, 74, 127
1, 28518, Note_off_c, 2, 74, 127
1, 28519, Note_on_c, 4, 76, 127
1, 28744, Note_off_c, 4, 76, 127
1, 28745, Note_on_c, 12, 71, 127
1, 28970, Note_off_c, 12, 71, 127
1, 28970, Note_off_c, 4, 64, 127
1, 28970, Note_off_c, 4, 52, 127
1, 28971, Note_on_c, 10, 57, 127
1, 28971, Note_on_c, 4, 64, 127
1, 28971, Note_on_c, 1, 73, 127
1, 29197, Note_on_c, 11, 82, 127
1, 29422, Note_off_c, 11, 82, 127
1, 29423, Note_on_c, 10, 81, 127
1, 29648, Note_off_c, 10, 81, 127
1, 29649, Note_on_c, 7, 79, 127
1, 29874, Note_off_c, 7, 79, 127
1, 29874, Note_off_c, 1, 73, 127
1, 29874, Note_off_c, 4, 64, 127
1, 29874, Note_off_c, 10, 57, 127
1, 29875, Note_on_c, 2, 62, 127
1, 29875, Note_on_c, 2, 50, 127
1, 29875, Note_on_c, 5, 77, 127
1, 30101, Note_on_c, 4, 76, 127
1, 30326, Note_off_c, 4, 76, 127
1, 30327, Note_on_c, 2, 74, 127
1, 30552, Note_off_c, 2, 74, 127
1, 30553, Note_on_c, 1, 73, 127
1, 30778, Note_off_c, 1, 73, 127
1, 30778, Note_off_c, 5, 77, 127
1, 30778, Note_off_c, 2, 62, 127
1, 30781, Note_on_c, 10, 69, 127
1, 30781, Note_on_c, 2, 74, 127
1, 30781, Note_on_c, 5, 77, 127
1, 31004, Note_off_c, 2, 50, 127
1, 31013, Note_on_c, 1, 61, 127
1, 31238, Note_off_c, 1, 61, 127
1, 31239, Note_on_c, 2, 62, 127
1, 31464, Note_off_c, 2, 62, 127
1, 31465, Note_on_c, 10, 57, 127
1, 31684, Note_off_c, 5, 77, 127
1, 31684, Note_off_c, 2, 74, 127
1, 31684, Note_off_c, 10, 69, 127
1, 31690, Note_off_c, 10, 57, 127
1, 31691, Note_on_c, 12, 59, 127
1, 31691, Note_on_c, 7, 67, 127
1, 31691, Note_on_c, 2, 74, 127
1, 31917, Note_on_c, 10, 81, 127
1, 32142, Note_off_c, 10, 81, 127
1, 32143, Note_on_c, 7, 79, 127
1, 32368, Note_off_c, 7, 79, 127
1, 32369, Note_on_c, 5, 77, 127
1, 32594, Note_off_c, 5, 77, 127
1, 32594, Note_off_c, 2, 74, 127
1, 32594, Note_off_c, 7, 67, 127
1, 32594, Note_off_c, 12, 59, 127
1, 32595, Note_on_c, 7, 67, 127
1, 32595, Note_on_c, 0, 72, 127
1, 32595, Note_on_c, 4, 76, 127
1, 32821, Note_on_c, 0, 60, 127
1, 33042, Note_off_c, 7, 67, 127
1, 33046, Note_off_c, 0, 60, 127
1, 33047, Note_on_c, 12, 59, 127
1, 33047, Note_on_c, 10, 69, 127
1, 33272, Note_off_c, 12, 59, 127
1, 33273, Note_on_c, 10, 57, 127
1, 33498, Note_off_c, 10, 57, 127
1, 33498, Note_off_c, 4, 76, 127
1, 33498, Note_off_c, 0, 72, 127
1, 33499, Note_on_c, 12, 59, 127
1, 33499, Note_on_c, 2, 74, 127
1, 33724, Note_off_c, 2, 74, 127
1, 33725, Note_on_c, 0, 84, 127
1, 33950, Note_off_c, 0, 84, 127
1, 33951, Note_on_c, 12, 83, 127
1, 34176, Note_off_c, 12, 83, 127
1, 34177, Note_on_c, 10, 81, 127
1, 34401, Note_off_c, 10, 69, 127
1, 34402, Note_off_c, 10, 81, 127
1, 34403, Note_on_c, 8, 68, 127
1, 34403, Note_on_c, 12, 83, 127
1, 34629, Note_off_c, 12, 59, 127
1, 34629, Note_on_c, 5, 77, 127
1, 34854, Note_off_c, 5, 77, 127
1, 34855, Note_on_c, 12, 59, 127
1, 34855, Note_on_c, 4, 76, 127
1, 35080, Note_off_c, 4, 76, 127
1, 35081, Note_on_c, 2, 74, 127
1, 35306, Note_off_c, 12, 59, 127
1, 35306, Note_off_c, 12, 83, 127
1, 35306, Note_off_c, 8, 68, 127
1, 35307, Note_on_c, 10, 69, 127
1, 35307, Note_on_c, 10, 57, 127
1, 35307, Note_on_c, 4, 76, 127
1, 35528, Note_off_c, 2, 74, 127
1, 35549, Note_on_c, 2, 74, 127
1, 35774, Note_off_c, 2, 74, 127
1, 35775, Note_on_c, 0, 72, 127
1, 36000, Note_off_c, 0, 72, 127
1, 36001, Note_on_c, 12, 71, 127
1, 36210, Note_off_c, 4, 76, 127
1, 36210, Note_off_c, 10, 69, 127
1, 36226, Note_off_c, 12, 71, 127
1, 36234, Note_on_c, 0, 72, 127
1, 36371, Note_on_c, 12, 71, 127
1, 36379, Note_off_c, 0, 72, 127
1, 36490, Note_off_c, 12, 71, 127
1, 36491, Note_on_c, 10, 69, 127
1, 36563, Note_off_c, 10, 57, 127
1, 36609, Note_off_c, 10, 69, 127
1, 36610, Note_on_c, 7, 67, 127
1, 36729, Note_off_c, 7, 67, 127
1, 36730, Note_on_c, 5, 65, 127
1, 36849, Note_off_c, 5, 65, 127
1, 36850, Note_on_c, 4, 64, 127
1, 36969, Note_off_c, 4, 64, 127
1, 36970, Note_on_c, 2, 62, 127
1, 37089, Note_off_c, 2, 62, 127
1, 37090, Note_on_c, 0, 60, 127
1, 37209, Note_off_c, 0, 60, 127
1, 37210, Note_on_c, 12, 59, 127
1, 37329, Note_off_c, 12, 59, 127
1, 37330, Note_on_c, 10, 57, 127
1, 37449, Note_off_c, 10, 57, 127
1, 37450, Note_on_c, 12, 59, 127
1, 37569, Note_off_c, 12, 59, 127
1, 37570, Note_on_c, 0, 60, 127
1, 37689, Note_off_c, 0, 60, 127
1, 37690, Note_on_c, 2, 62, 127
1, 37809, Note_off_c, 2, 62, 127
1, 37810, Note_on_c, 4, 64, 127
1, 37929, Note_off_c, 4, 64, 127
1, 37930, Note_on_c, 5, 65, 127
1, 38049, Note_off_c, 5, 65, 127
1, 38050, Note_on_c, 4, 64, 127
1, 38169, Note_off_c, 4, 64, 127
1, 38170, Note_on_c, 2, 62, 127
1, 38289, Note_off_c, 2, 62, 127
1, 38290, Note_on_c, 0, 60, 127
1, 38409, Note_off_c, 0, 60, 127
1, 38410, Note_on_c, 12, 59, 127
1, 38529, Note_off_c, 12, 59, 127
1, 38530, Note_on_c, 10, 57, 127
1, 38649, Note_off_c, 10, 57, 127
1, 38650, Note_on_c, 7, 55, 127
1, 38769, Note_off_c, 7, 55, 127
1, 38770, Note_on_c, 6, 54, 127
1, 38889, Note_off_c, 6, 54, 127
1, 38890, Note_on_c, 4, 52, 127
1, 39009, Note_off_c, 4, 52, 127
1, 39010, Note_on_c, 6, 54, 127
1, 39129, Note_off_c, 6, 54, 127
1, 39130, Note_on_c, 3, 51, 127
1, 39873, Note_on_c, 10, 69, 127
1, 40119, Note_off_c, 10, 69, 127
1, 40120, Note_on_c, 0, 60, 127
1, 40368, Note_on_c, 8, 56, 127
1, 40614, Note_off_c, 8, 56, 127
1, 40615, Note_on_c, 10, 57, 127
1, 40856, Note_off_c, 3, 51, 127
1, 40862, Note_on_c, 3, 51, 127
1, 41105, Note_off_c, 10, 57, 127
1, 41109, Note_off_c, 3, 51, 127
1, 41110, Note_on_c, 4, 52, 127
1, 41358, Note_on_c, 8, 56, 127
1, 41604, Note_off_c, 8, 56, 127
1, 41605, Note_on_c, 10, 57, 127
1, 41851, Note_off_c, 4, 52, 127
1, 41852, Note_on_c, 3, 51, 127
1, 42098, Note_off_c, 3, 51, 127
1, 42098, Note_off_c, 0, 60, 127
1, 42099, Note_on_c, 4, 52, 127
1, 42099, Note_on_c, 12, 59, 127
1, 42345, Note_off_c, 10, 57, 127
1, 42346, Note_on_c, 6, 54, 127
1, 42592, Note_off_c, 6, 54, 127
1, 42593, Note_on_c, 8, 56, 127
1, 42593, Note_on_c, 4, 40, 127
1, 42839, Note_off_c, 4, 52, 127
1, 42840, Note_on_c, 2, 50, 127
1, 43083, Note_off_c, 8, 56, 127
1, 43087, Note_off_c, 2, 50, 127
1, 43087, Note_off_c, 12, 59, 127
1, 43089, Note_off_c, 4, 40, 127
1, 43096, Note_on_c, 10, 45, 127
1, 43096, Note_on_c, 1, 49, 127
1, 43096, Note_on_c, 10, 57, 127
1, 43368, Note_on_c, 4, 64, 127
1, 43623, Note_off_c, 4, 64, 127
1, 43624, Note_on_c, 1, 61, 127
1, 43863, Note_off_c, 10, 57, 127
1, 43879, Note_off_c, 1, 61, 127
1, 43880, Note_on_c, 10, 57, 127
1, 44119, Note_off_c, 1, 49, 127
1, 44136, Note_on_c, 2, 62, 127
1, 44136, Note_on_c, 5, 65, 127
1, 44391, Note_off_c, 2, 62, 127
1, 44392, Note_on_c, 1, 61, 127
1, 44647, Note_off_c, 1, 61, 127
1, 44648, Note_on_c, 2, 62, 127
1, 44903, Note_off_c, 10, 57, 127
1, 44904, Note_on_c, 8, 56, 127
1, 45159, Note_off_c, 8, 56, 127
1, 45160, Note_on_c, 10, 57, 127
1, 45420, Note_off_c, 5, 65, 127
1, 45431, Note_on_c, 5, 65, 127
1, 45701, Note_off_c, 5, 65, 127
1, 45702, Note_on_c, 4, 64, 127
1, 45972, Note_off_c, 4, 64, 127
1, 45973, Note_off_c, 2, 62, 127
1, 45973, Note_on_c, 2, 62, 127
1, 46244, Note_on_c, 4, 64, 127
1, 46509, Note_off_c, 2, 62, 127
1, 46515, Note_on_c, 1, 61, 127
1, 46780, Note_off_c, 4, 64, 127
1, 46784, Note_off_c, 1, 61, 127
1, 46785, Note_on_c, 2, 62, 127
1, 46785, Note_on_c, 8, 68, 127
1, 47056, Note_on_c, 12, 59, 127
1, 47321, Note_off_c, 8, 68, 127
1, 47321, Note_off_c, 2, 62, 127
1, 47325, Note_off_c, 12, 59, 127
1, 47326, Note_on_c, 4, 64, 127
1, 47326, Note_on_c, 10, 69, 127
1, 47326, Note_on_c, 1, 61, 127
1, 49974, Note_off_c, 10, 57, 127
1, 49978, Note_off_c, 10, 45, 127
1, 49986, Note_off_c, 1, 61, 127
1, 49986, Note_off_c, 10, 69, 127
1, 49986, Note_off_c, 4, 64, 127
1, 51470, Note_on_c, 4, 64, 127
1, 51740, Note_off_c, 4, 64, 127
1, 51741, Note_on_c, 4, 64, 127
1, 52011, Note_off_c, 4, 64, 127
1, 52012, Note_on_c, 4, 64, 127
1, 52282, Note_off_c, 4, 64, 127
1, 52283, Note_on_c, 10, 57, 127
1, 52553, Note_off_c, 10, 57, 127
1, 52554, Note_on_c, 5, 65, 127
1, 52824, Note_off_c, 5, 65, 127
1, 52825, Note_on_c, 5, 65, 127
1, 53095, Note_off_c, 5, 65, 127
1, 53096, Note_on_c, 5, 65, 127
1, 53366, Note_off_c, 5, 65, 127
1, 53367, Note_on_c, 4, 64, 127
1, 53637, Note_off_c, 4, 64, 127
1, 53638, Note_on_c, 2, 62, 127
1, 53908, Note_off_c, 2, 62, 127
1, 53909, Note_on_c, 0, 60, 127
1, 54179, Note_off_c, 0, 60, 127
1, 54180, Note_on_c, 12, 59, 127
1, 54450, Note_off_c, 12, 59, 127
1, 54451, Note_on_c, 0, 60, 127
1, 54721, Note_off_c, 0, 60, 127
1, 54722, Note_on_c, 10, 57, 127
1, 54858, Note_on_c, 12, 59, 127
1, 54992, Note_off_c, 12, 59, 127
1, 54992, Note_off_c, 10, 57, 127
1, 54993, Note_on_c, 10, 57, 127
1, 54993, Note_on_c, 0, 60, 127
1, 55127, Note_off_c, 0, 60, 127
1, 55128, Note_on_c, 2, 62, 127
1, 55262, Note_off_c, 2, 62, 127
1, 55262, Note_off_c, 10, 57, 127
1, 55263, Note_on_c, 10, 57, 127
1, 55263, Note_on_c, 4, 64, 127
1, 55397, Note_off_c, 4, 64, 127
1, 55398, Note_on_c, 6, 66, 127
1, 55532, Note_off_c, 6, 66, 127
1, 55532, Note_off_c, 10, 57, 127
1, 55533, Note_on_c, 4, 52, 127
1, 55533, Note_on_c, 7, 67, 127
1, 55803, Note_off_c, 7, 67, 127
1, 55803, Note_off_c, 4, 52, 127
1, 55804, Note_on_c, 0, 60, 127
1, 55804, Note_on_c, 4, 64, 127
1, 55938, Note_off_c, 4, 64, 127
1, 55939, Note_on_c, 6, 66, 127
1, 56073, Note_off_c, 6, 66, 127
1, 56073, Note_off_c, 0, 60, 127
1, 56074, Note_on_c, 0, 60, 127
1, 56074, Note_on_c, 7, 67, 127
1, 56208, Note_off_c, 7, 67, 127
1, 56209, Note_on_c, 10, 69, 127
1, 56343, Note_off_c, 10, 69, 127
1, 56343, Note_off_c, 0, 60, 127
1, 56344, Note_on_c, 0, 60, 127
1, 56344, Note_on_c, 12, 71, 127
1, 56478, Note_off_c, 12, 71, 127
1, 56479, Note_on_c, 0, 72, 127
1, 56613, Note_off_c, 0, 72, 127
1, 56613, Note_off_c, 0, 60, 127
1, 56614, Note_on_c, 12, 59, 127
1, 56614, Note_on_c, 3, 63, 127
1, 56884, Note_off_c, 3, 63, 127
1, 56884, Note_off_c, 12, 59, 127
1, 56885, Note_on_c, 10, 57, 127
1, 56885, Note_on_c, 4, 64, 127
1, 57019, Note_off_c, 4, 64, 127
1, 57020, Note_on_c, 6, 66, 127
1, 57154, Note_off_c, 6, 66, 127
1, 57154, Note_off_c, 10, 57, 127
1, 57155, Note_on_c, 7, 55, 127
1, 57155, Note_on_c, 12, 59, 127
1, 57425, Note_off_c, 12, 59, 127
1, 57425, Note_off_c, 7, 55, 127
1, 57426, Note_on_c, 6, 54, 127
1, 57426, Note_on_c, 1, 61, 127
1, 57560, Note_off_c, 1, 61, 127
1, 57561, Note_on_c, 3, 63, 127
1, 57695, Note_off_c, 3, 63, 127
1, 57695, Note_off_c, 6, 54, 127
1, 57696, Note_on_c, 7, 55, 127
1, 57696, Note_on_c, 4, 64, 127
1, 57966, Note_off_c, 7, 55, 127
1, 57967, Note_on_c, 6, 54, 127
1, 58101, Note_off_c, 6, 54, 127
1, 58102, Note_on_c, 4, 52, 127
1, 58236, Note_off_c, 4, 52, 127
1, 58237, Note_on_c, 12, 59, 127
1, 58373, Note_off_c, 4, 64, 127
1, 58509, Note_on_c, 2, 62, 127
1, 58643, Note_off_c, 2, 62, 127
1, 58644, Note_on_c, 0, 60, 127
1, 58778, Note_off_c, 0, 60, 127
1, 58779, Note_on_c, 2, 62, 127
1, 58913, Note_off_c, 2, 62, 127
1, 58913, Note_off_c, 12, 59, 127
1, 58914, Note_on_c, 10, 57, 127
1, 58914, Note_on_c, 0, 60, 127
1, 59048, Note_off_c, 0, 60, 127
1, 59048, Note_off_c, 10, 57, 127
1, 59049, Note_on_c, 12, 59, 127
1, 59049, Note_on_c, 2, 62, 127
1, 59183, Note_off_c, 12, 59, 127
1, 59184, Note_on_c, 6, 54, 127
1, 59318, Note_off_c, 6, 54, 127
1, 59319, Note_on_c, 8, 56, 127
1, 59453, Note_off_c, 2, 62, 127
1, 59454, Note_on_c, 0, 60, 127
1, 59588, Note_off_c, 0, 60, 127
1, 59589, Note_on_c, 2, 62, 127
1, 59723, Note_off_c, 2, 62, 127
1, 59724, Note_on_c, 12, 59, 127
1, 59858, Note_off_c, 12, 59, 127
1, 59858, Note_off_c, 8, 56, 127
1, 59859, Note_on_c, 10, 57, 127
1, 59859, Note_on_c, 0, 60, 127
1, 60129, Note_off_c, 0, 60, 127
1, 60130, Note_on_c, 0, 60, 127
1, 60130, Note_on_c, 4, 76, 127
1, 60264, Note_off_c, 0, 60, 127
1, 60265, Note_on_c, 12, 59, 127
1, 60399, Note_off_c, 12, 59, 127
1, 60399, Note_off_c, 4, 76, 127
1, 60399, Note_off_c, 10, 57, 127
1, 60400, Note_on_c, 10, 57, 127
1, 60400, Note_on_c, 0, 60, 127
1, 60400, Note_on_c, 4, 76, 127
1, 60670, Note_off_c, 4, 76, 127
1, 60670, Note_off_c, 10, 57, 127
1, 60671, Note_on_c, 7, 55, 127
1, 60671, Note_on_c, 4, 76, 127
1, 60936, Note_off_c, 0, 60, 127
1, 60940, Note_off_c, 4, 76, 127
1, 60940, Note_off_c, 7, 55, 127
1, 60941, Note_on_c, 5, 53, 127
1, 60941, Note_on_c, 10, 69, 127
1, 61077, Note_on_c, 0, 60, 127
1, 61211, Note_off_c, 0, 60, 127
1, 61211, Note_off_c, 10, 69, 127
1, 61212, Note_on_c, 12, 59, 127
1, 61212, Note_on_c, 5, 77, 127
1, 61346, Note_off_c, 12, 59, 127
1, 61347, Note_on_c, 10, 57, 127
1, 61477, Note_off_c, 5, 53, 127
1, 61481, Note_off_c, 10, 57, 127
1, 61481, Note_off_c, 5, 77, 127
1, 61482, Note_on_c, 2, 62, 127
1, 61482, Note_on_c, 5, 77, 127
1, 61752, Note_off_c, 5, 77, 127
1, 61753, Note_on_c, 2, 50, 127
1, 61753, Note_on_c, 5, 77, 127
1, 62023, Note_off_c, 5, 77, 127
1, 62023, Note_off_c, 2, 50, 127
1, 62023, Note_off_c, 2, 62, 127
1, 62024, Note_on_c, 4, 52, 127
1, 62024, Note_on_c, 0, 60, 127
1, 62024, Note_on_c, 4, 76, 127
1, 62294, Note_off_c, 4, 76, 127
1, 62294, Note_off_c, 0, 60, 127
1, 62295, Note_on_c, 12, 59, 127
1, 62295, Note_on_c, 2, 74, 127
1, 62560, Note_off_c, 4, 52, 127
1, 62564, Note_off_c, 2, 74, 127
1, 62564, Note_off_c, 12, 59, 127
1, 62565, Note_on_c, 10, 57, 127
1, 62565, Note_on_c, 0, 72, 127
1, 62835, Note_off_c, 0, 72, 127
1, 62835, Note_off_c, 10, 57, 127
1, 62836, Note_on_c, 4, 52, 127
1, 62836, Note_on_c, 8, 56, 127
1, 62836, Note_on_c, 12, 71, 127
1, 63106, Note_off_c, 12, 71, 127
1, 63106, Note_off_c, 8, 56, 127
1, 63106, Note_off_c, 4, 52, 127
1, 63107, Note_on_c, 10, 45, 127
1, 63107, Note_on_c, 10, 57, 127
1, 63107, Note_on_c, 0, 72, 127
1, 63375, Note_off_c, 10, 57, 127
1, 63376, Note_off_c, 0, 72, 127
1, 63376, Note_off_c, 10, 45, 127
1, 63377, Note_on_c, 10, 45, 127
1, 63377, Note_on_c, 10, 69, 127
1, 63377, Note_on_c, 0, 72, 127
1, 63511, Note_off_c, 10, 45, 127
1, 63512, Note_on_c, 12, 47, 127
1, 63646, Note_off_c, 12, 47, 127
1, 63646, Note_off_c, 0, 72, 127
1, 63646, Note_off_c, 10, 69, 127
1, 63647, Note_on_c, 0, 48, 127
1, 63647, Note_on_c, 10, 69, 127
1, 63647, Note_on_c, 0, 72, 127
1, 63781, Note_off_c, 0, 48, 127
1, 63782, Note_on_c, 2, 50, 127
1, 63916, Note_off_c, 2, 50, 127
1, 63916, Note_off_c, 0, 72, 127
1, 63916, Note_off_c, 10, 69, 127
1, 63917, Note_on_c, 4, 52, 127
1, 63917, Note_on_c, 10, 69, 127
1, 63917, Note_on_c, 0, 72, 127
1, 64051, Note_off_c, 4, 52, 127
1, 64052, Note_on_c, 6, 54, 127
1, 64186, Note_off_c, 6, 54, 127
1, 64186, Note_off_c, 0, 72, 127
1, 64186, Note_off_c, 10, 69, 127
1, 64187, Note_on_c, 7, 55, 127
1, 64187, Note_on_c, 4, 64, 127
1, 64187, Note_on_c, 12, 71, 127
1, 64457, Note_off_c, 12, 71, 127
1, 64457, Note_off_c, 4, 64, 127
1, 64457, Note_off_c, 7, 55, 127
1, 64458, Note_on_c, 4, 52, 127
1, 64458, Note_on_c, 12, 71, 127
1, 64458, Note_on_c, 4, 76, 127
1, 64592, Note_off_c, 4, 52, 127
1, 64593, Note_on_c, 6, 54, 127
1, 64727, Note_off_c, 6, 54, 127
1, 64727, Note_off_c, 4, 76, 127
1, 64727, Note_off_c, 12, 71, 127
1, 64728, Note_on_c, 7, 55, 127
1, 64728, Note_on_c, 0, 72, 127
1, 64728, Note_on_c, 4, 76, 127
1, 64862, Note_off_c, 7, 55, 127
1, 64863, Note_on_c, 10, 57, 127
1, 64997, Note_off_c, 10, 57, 127
1, 64997, Note_off_c, 4, 76, 127
1, 64997, Note_off_c, 0, 72, 127
1, 64998, Note_on_c, 12, 59, 127
1, 64998, Note_on_c, 0, 72, 127
1, 64998, Note_on_c, 4, 76, 127
1, 65132, Note_off_c, 12, 59, 127
1, 65133, Note_on_c, 0, 60, 127
1, 65267, Note_off_c, 0, 60, 127
1, 65267, Note_off_c, 4, 76, 127
1, 65267, Note_off_c, 0, 72, 127
1, 65268, Note_on_c, 3, 51, 127
1, 65268, Note_on_c, 12, 71, 127
1, 65268, Note_on_c, 6, 78, 127
1, 65538, Note_off_c, 12, 71, 127
1, 65538, Note_off_c, 3, 51, 127
1, 65539, Note_on_c, 4, 52, 127
1, 65539, Note_on_c, 10, 69, 127
1, 65673, Note_off_c, 4, 52, 127
1, 65674, Note_on_c, 6, 54, 127
1, 65808, Note_off_c, 6, 54, 127
1, 65808, Note_off_c, 10, 69, 127
1, 65809, Note_on_c, 12, 47, 127
1, 65809, Note_on_c, 7, 67, 127
1, 65945, Note_off_c, 6, 78, 127
1, 66079, Note_off_c, 7, 67, 127
1, 66079, Note_off_c, 12, 47, 127
1, 66080, Note_on_c, 1, 49, 127
1, 66080, Note_on_c, 6, 66, 127
1, 66080, Note_on_c, 6, 78, 127
1, 66214, Note_off_c, 1, 49, 127
1, 66215, Note_on_c, 3, 51, 127
1, 66349, Note_off_c, 3, 51, 127
1, 66349, Note_off_c, 6, 66, 127
1, 66350, Note_on_c, 4, 52, 127
1, 66350, Note_on_c, 7, 67, 127
1, 66620, Note_off_c, 6, 78, 127
1, 66621, Note_on_c, 4, 76, 127
1, 66755, Note_off_c, 4, 76, 127
1, 66756, Note_on_c, 3, 75, 127
1, 66886, Note_off_c, 7, 67, 127
1, 66886, Note_off_c, 4, 52, 127
1, 66890, Note_off_c, 3, 75, 127
1, 66891, Note_on_c, 4, 76, 127
1, 67027, Note_on_c, 4, 52, 127
1, 67161, Note_off_c, 4, 52, 127
1, 67161, Note_off_c, 4, 76, 127
1, 67162, Note_on_c, 6, 54, 127
1, 67162, Note_on_c, 7, 67, 127
1, 67162, Note_on_c, 4, 76, 127
1, 67296, Note_off_c, 6, 54, 127
1, 67297, Note_on_c, 7, 55, 127
1, 67431, Note_off_c, 7, 55, 127
1, 67431, Note_off_c, 7, 67, 127
1, 67432, Note_on_c, 10, 57, 127
1, 67432, Note_on_c, 6, 66, 127
1, 67566, Note_off_c, 4, 76, 127
1, 67567, Note_on_c, 4, 76, 127
1, 67701, Note_off_c, 4, 76, 127
1, 67701, Note_off_c, 10, 57, 127
1, 67702, Note_on_c, 6, 54, 127
1, 67702, Note_on_c, 2, 74, 127
1, 67836, Note_off_c, 2, 74, 127
1, 67837, Note_on_c, 1, 73, 127
1, 67967, Note_off_c, 6, 66, 127
1, 67971, Note_off_c, 1, 73, 127
1, 67971, Note_off_c, 6, 54, 127
1, 67972, Note_on_c, 12, 59, 127
1, 67972, Note_on_c, 2, 74, 127
1, 68106, Note_off_c, 12, 59, 127
1, 68107, Note_on_c, 0, 60, 127
1, 68241, Note_off_c, 0, 60, 127
1, 68242, Note_on_c, 12, 59, 127
1, 68242, Note_on_c, 6, 66, 127
1, 68376, Note_off_c, 12, 59, 127
1, 68377, Note_on_c, 10, 57, 127
1, 68507, Note_off_c, 2, 74, 127
1, 68511, Note_off_c, 10, 57, 127
1, 68511, Note_off_c, 6, 66, 127
1, 68512, Note_on_c, 8, 56, 127
1, 68512, Note_on_c, 4, 64, 127
1, 68648, Note_on_c, 2, 74, 127
1, 68782, Note_off_c, 2, 74, 127
1, 68782, Note_off_c, 8, 56, 127
1, 68783, Note_on_c, 4, 52, 127
1, 68783, Note_on_c, 4, 76, 127
1, 68917, Note_off_c, 4, 76, 127
1, 68918, Note_on_c, 2, 74, 127
1, 69048, Note_off_c, 4, 64, 127
1, 69052, Note_off_c, 2, 74, 127
1, 69052, Note_off_c, 4, 52, 127
1, 69053, Note_on_c, 10, 57, 127
1, 69053, Note_on_c, 0, 72, 127
1, 69189, Note_on_c, 12, 71, 127
1, 69323, Note_off_c, 12, 71, 127
1, 69323, Note_off_c, 10, 57, 127
1, 69324, Note_on_c, 4, 52, 127
1, 69324, Note_on_c, 10, 69, 127
1, 69458, Note_off_c, 10, 69, 127
1, 69459, Note_on_c, 8, 68, 127
1, 69589, Note_off_c, 0, 72, 127
1, 69593, Note_off_c, 8, 68, 127
1, 69593, Note_off_c, 4, 52, 127
1, 69594, Note_on_c, 5, 53, 127
1, 69594, Note_on_c, 10, 69, 127
1, 69730, Note_on_c, 0, 72, 127
1, 69864, Note_off_c, 0, 72, 127
1, 69864, Note_off_c, 5, 53, 127
1, 69865, Note_on_c, 0, 48, 127
1, 69865, Note_on_c, 2, 74, 127
1, 69999, Note_off_c, 2, 74, 127
1, 70000, Note_on_c, 0, 72, 127
1, 70130, Note_off_c, 10, 69, 127
1, 70134, Note_off_c, 0, 72, 127
1, 70134, Note_off_c, 0, 48, 127
1, 70135, Note_on_c, 2, 50, 127
1, 70135, Note_on_c, 12, 71, 127
1, 70271, Note_on_c, 10, 69, 127
1, 70405, Note_off_c, 10, 69, 127
1, 70405, Note_off_c, 2, 50, 127
1, 70406, Note_on_c, 12, 47, 127
1, 70406, Note_on_c, 8, 68, 127
1, 70540, Note_off_c, 8, 68, 127
1, 70541, Note_on_c, 6, 66, 127
1, 70671, Note_off_c, 12, 71, 127
1, 70675, Note_off_c, 6, 66, 127
1, 70675, Note_off_c, 12, 47, 127
1, 70676, Note_on_c, 4, 52, 127
1, 70676, Note_on_c, 8, 68, 127
1, 70812, Note_on_c, 10, 69, 127
1, 70946, Note_off_c, 10, 69, 127
1, 70946, Note_off_c, 8, 68, 127
1, 70946, Note_off_c, 4, 52, 127
1, 70947, Note_on_c, 4, 64, 127
1, 70947, Note_on_c, 8, 68, 127
1, 70947, Note_on_c, 12, 71, 127
1, 71081, Note_off_c, 12, 71, 127
1, 71082, Note_on_c, 0, 72, 127
1, 71216, Note_off_c, 0, 72, 127
1, 71216, Note_off_c, 8, 68, 127
1, 71216, Note_off_c, 4, 64, 127
1, 71217, Note_on_c, 4, 64, 127
1, 71217, Note_on_c, 8, 68, 127
1, 71217, Note_on_c, 2, 74, 127
1, 71351, Note_off_c, 2, 74, 127
1, 71352, Note_on_c, 0, 72, 127
1, 71486, Note_off_c, 0, 72, 127
1, 71486, Note_off_c, 8, 68, 127
1, 71486, Note_off_c, 4, 64, 127
1, 71487, Note_on_c, 4, 64, 127
1, 71487, Note_on_c, 8, 68, 127
1, 71487, Note_on_c, 2, 74, 127
1, 71621, Note_off_c, 2, 74, 127
1, 71622, Note_on_c, 12, 71, 127
1, 71756, Note_off_c, 12, 71, 127
1, 71756, Note_off_c, 8, 68, 127
1, 71756, Note_off_c, 4, 64, 127
1, 71757, Note_on_c, 10, 57, 127
1, 71757, Note_on_c, 10, 69, 127
1, 71757, Note_on_c, 0, 72, 127
1, 72027, Note_off_c, 0, 72, 127
1, 72027, Note_off_c, 10, 69, 127
1, 72027, Note_off_c, 10, 57, 127
1, 72028, Note_on_c, 5, 65, 127
1, 72028, Note_on_c, 10, 69, 127
1, 72028, Note_on_c, 2, 74, 127
1, 72162, Note_off_c, 2, 74, 127
1, 72163, Note_on_c, 4, 76, 127
1, 72297, Note_off_c, 4, 76, 127
1, 72297, Note_off_c, 10, 69, 127
1, 72297, Note_off_c, 5, 65, 127
1, 72298, Note_on_c, 5, 65, 127
1, 72298, Note_on_c, 10, 69, 127
1, 72298, Note_on_c, 5, 77, 127
1, 72432, Note_off_c, 5, 77, 127
1, 72433, Note_on_c, 4, 76, 127
1, 72567, Note_off_c, 4, 76, 127
1, 72567, Note_off_c, 10, 69, 127
1, 72567, Note_off_c, 5, 65, 127
1, 72568, Note_on_c, 5, 65, 127
1, 72568, Note_on_c, 10, 69, 127
1, 72568, Note_on_c, 5, 77, 127
1, 72702, Note_off_c, 5, 77, 127
1, 72703, Note_on_c, 2, 74, 127
1, 72837, Note_off_c, 2, 74, 127
1, 72837, Note_off_c, 10, 69, 127
1, 72837, Note_off_c, 5, 65, 127
1, 72838, Note_on_c, 4, 64, 127
1, 72838, Note_on_c, 8, 68, 127
1, 73108, Note_off_c, 8, 68, 127
1, 73108, Note_off_c, 4, 64, 127
1, 73109, Note_on_c, 2, 62, 127
1, 73109, Note_on_c, 8, 68, 127
1, 73243, Note_off_c, 8, 68, 127
1, 73244, Note_on_c, 10, 69, 127
1, 73378, Note_off_c, 10, 69, 127
1, 73378, Note_off_c, 2, 62, 127
1, 73379, Note_on_c, 0, 60, 127
1, 73379, Note_on_c, 12, 71, 127
1, 73513, Note_off_c, 12, 71, 127
1, 73514, Note_on_c, 10, 69, 127
1, 73648, Note_off_c, 10, 69, 127
1, 73648, Note_off_c, 0, 60, 127
1, 73649, Note_on_c, 12, 59, 127
1, 73649, Note_on_c, 12, 71, 127
1, 73783, Note_off_c, 12, 71, 127
1, 73784, Note_on_c, 8, 68, 127
1, 73918, Note_off_c, 8, 68, 127
1, 73918, Note_off_c, 12, 59, 127
1, 73919, Note_on_c, 0, 60, 127
1, 73919, Note_on_c, 10, 69, 127
1, 74053, Note_off_c, 0, 60, 127
1, 74054, Note_on_c, 12, 59, 127
1, 74188, Note_off_c, 12, 59, 127
1, 74189, Note_on_c, 10, 57, 127
1, 74325, Note_on_c, 12, 59, 127
1, 74455, Note_off_c, 10, 69, 127
1, 74459, Note_off_c, 12, 59, 127
1, 74459, Note_off_c, 10, 57, 127
1, 74460, Note_on_c, 10, 57, 127
1, 74460, Note_on_c, 0, 60, 127
1, 74594, Note_off_c, 0, 60, 127
1, 74595, Note_on_c, 12, 59, 127
1, 74729, Note_off_c, 12, 59, 127
1, 74729, Note_off_c, 10, 57, 127
1, 74730, Note_on_c, 10, 57, 127
1, 74730, Note_on_c, 0, 60, 127
1, 74864, Note_off_c, 0, 60, 127
1, 74865, Note_on_c, 2, 62, 127
1, 74999, Note_off_c, 2, 62, 127
1, 74999, Note_off_c, 10, 57, 127
1, 75000, Note_on_c, 4, 52, 127
1, 75000, Note_on_c, 4, 64, 127
1, 75270, Note_off_c, 4, 64, 127
1, 75270, Note_off_c, 4, 52, 127
1, 75271, Note_on_c, 0, 60, 127
1, 75271, Note_on_c, 6, 66, 127
1, 75405, Note_off_c, 6, 66, 127
1, 75406, Note_on_c, 7, 67, 127
1, 75540, Note_off_c, 7, 67, 127
1, 75540, Note_off_c, 0, 60, 127
1, 75541, Note_on_c, 0, 60, 127
1, 75541, Note_on_c, 10, 69, 127
1, 75675, Note_off_c, 10, 69, 127
1, 75676, Note_on_c, 7, 67, 127
1, 75810, Note_off_c, 7, 67, 127
1, 75810, Note_off_c, 0, 60, 127
1, 75811, Note_on_c, 0, 60, 127
1, 75811, Note_on_c, 6, 66, 127
1, 75945, Note_off_c, 6, 66, 127
1, 75946, Note_on_c, 4, 64, 127
1, 76080, Note_off_c, 4, 64, 127
1, 76080, Note_off_c, 0, 60, 127
1, 76081, Note_on_c, 12, 59, 127
1, 76081, Note_on_c, 3, 63, 127
1, 76215, Note_off_c, 3, 63, 127
1, 76216, Note_on_c, 6, 66, 127
1, 76350, Note_off_c, 6, 66, 127
1, 76350, Note_off_c, 12, 59, 127
1, 76351, Note_on_c, 10, 57, 127
1, 76351, Note_on_c, 7, 67, 127
1, 76485, Note_off_c, 7, 67, 127
1, 76486, Note_on_c, 10, 69, 127
1, 76620, Note_off_c, 10, 69, 127
1, 76620, Note_off_c, 10, 57, 127
1, 76621, Note_on_c, 7, 55, 127
1, 76621, Note_on_c, 12, 71, 127
1, 76755, Note_off_c, 12, 71, 127
1, 76756, Note_on_c, 0, 72, 127
1, 76890, Note_off_c, 0, 72, 127
1, 76890, Note_off_c, 7, 55, 127
1, 76891, Note_on_c, 6, 54, 127
1, 76891, Note_on_c, 12, 71, 127
1, 77025, Note_off_c, 12, 71, 127
1, 77026, Note_on_c, 10, 69, 127
1, 77160, Note_off_c, 10, 69, 127
1, 77160, Note_off_c, 6, 54, 127
1, 77161, Note_on_c, 4, 52, 127
1, 77161, Note_on_c, 8, 68, 127
1, 77295, Note_off_c, 4, 52, 127
1, 77296, Note_on_c, 12, 59, 127
1, 77430, Note_off_c, 12, 59, 127
1, 77430, Note_off_c, 8, 68, 127
1, 77431, Note_on_c, 0, 60, 127
1, 77431, Note_on_c, 10, 69, 127
1, 77565, Note_off_c, 0, 60, 127
1, 77566, Note_on_c, 2, 62, 127
1, 77700, Note_off_c, 2, 62, 127
1, 77700, Note_off_c, 10, 69, 127
1, 77701, Note_on_c, 4, 64, 127
1, 77701, Note_on_c, 12, 71, 127
1, 77767, Note_off_c, 12, 71, 127
1, 77768, Note_on_c, 10, 69, 127
1, 77834, Note_off_c, 10, 69, 127
1, 77834, Note_off_c, 4, 64, 127
1, 77835, Note_on_c, 5, 65, 127
1, 77835, Note_on_c, 12, 71, 127
1, 77901, Note_off_c, 12, 71, 127
1, 77902, Note_on_c, 10, 69, 127
1, 77968, Note_off_c, 5, 65, 127
1, 77969, Note_on_c, 4, 64, 127
1, 78103, Note_off_c, 4, 64, 127
1, 78103, Note_off_c, 10, 69, 127
1, 78104, Note_on_c, 2, 62, 127
1, 78104, Note_on_c, 8, 68, 127
1, 78238, Note_off_c, 8, 68, 127
1, 78238, Note_off_c, 2, 62, 127
1, 78239, Note_on_c, 0, 60, 127
1, 78239, Note_on_c, 10, 69, 127
1, 78509, Note_off_c, 10, 69, 127
1, 78509, Note_off_c, 0, 60, 127
1, 78510, Note_on_c, 4, 52, 127
1, 78510, Note_on_c, 8, 68, 127
1, 78510, Note_on_c, 4, 76, 127
1, 78644, Note_off_c, 4, 52, 127
1, 78645, Note_on_c, 6, 54, 127
1, 78779, Note_off_c, 6, 54, 127
1, 78779, Note_off_c, 4, 76, 127
1, 78779, Note_off_c, 8, 68, 127
1, 78780, Note_on_c, 8, 56, 127
1, 78780, Note_on_c, 12, 71, 127
1, 78780, Note_on_c, 4, 76, 127
1, 78914, Note_off_c, 8, 56, 127
1, 78915, Note_on_c, 4, 52, 127
1, 79049, Note_off_c, 4, 52, 127
1, 79049, Note_off_c, 4, 76, 127
1, 79049, Note_off_c, 12, 71, 127
1, 79050, Note_on_c, 6, 54, 127
1, 79050, Note_on_c, 12, 71, 127
1, 79050, Note_on_c, 4, 76, 127
1, 79184, Note_off_c, 6, 54, 127
1, 79185, Note_on_c, 8, 56, 127
1, 79319, Note_off_c, 8, 56, 127
1, 79319, Note_off_c, 4, 76, 127
1, 79319, Note_off_c, 12, 71, 127
1, 79320, Note_on_c, 10, 57, 127
1, 79320, Note_on_c, 0, 72, 127
1, 79320, Note_on_c, 10, 69, 127
1, 79590, Note_off_c, 10, 69, 127
1, 79590, Note_off_c, 0, 72, 127
1, 79590, Note_off_c, 10, 57, 127
1, 79591, Note_on_c, 12, 59, 127
1, 79591, Note_on_c, 10, 69, 127
1, 79591, Note_on_c, 5, 77, 127
1, 79725, Note_off_c, 12, 59, 127
1, 79726, Note_on_c, 0, 60, 127
1, 79860, Note_off_c, 0, 60, 127
1, 79860, Note_off_c, 5, 77, 127
1, 79860, Note_off_c, 10, 69, 127
1, 79861, Note_on_c, 2, 62, 127
1, 79861, Note_on_c, 10, 69, 127
1, 79861, Note_on_c, 5, 77, 127
1, 79995, Note_off_c, 2, 62, 127
1, 79996, Note_on_c, 0, 60, 127
1, 80130, Note_off_c, 0, 60, 127
1, 80130, Note_off_c, 5, 77, 127
1, 80130, Note_off_c, 10, 69, 127
1, 80131, Note_on_c, 12, 59, 127
1, 80131, Note_on_c, 10, 69, 127
1, 80131, Note_on_c, 5, 77, 127
1, 80265, Note_off_c, 12, 59, 127
1, 80266, Note_on_c, 10, 57, 127
1, 80400, Note_off_c, 10, 57, 127
1, 80400, Note_off_c, 5, 77, 127
1, 80400, Note_off_c, 10, 69, 127
1, 80401, Note_on_c, 8, 56, 127
1, 80401, Note_on_c, 12, 71, 127
1, 80401, Note_on_c, 4, 76, 127
1, 80485, Note_off_c, 8, 56, 127
1, 80491, Note_on_c, 10, 57, 127
1, 80575, Note_off_c, 10, 57, 127
1, 80581, Note_on_c, 12, 59, 127
1, 80665, Note_off_c, 12, 59, 127
1, 80670, Note_off_c, 4, 76, 127
1, 80670, Note_off_c, 12, 71, 127
1, 80671, Note_on_c, 0, 60, 127
1, 80671, Note_on_c, 12, 71, 127
1, 80671, Note_on_c, 2, 74, 127
1, 80805, Note_off_c, 0, 60, 127
1, 80806, Note_on_c, 2, 62, 127
1, 80940, Note_off_c, 2, 62, 127
1, 80940, Note_off_c, 2, 74, 127
1, 80940, Note_off_c, 12, 71, 127
1, 80941, Note_on_c, 4, 64, 127
1, 80941, Note_on_c, 10, 69, 127
1, 80941, Note_on_c, 2, 74, 127
1, 81075, Note_off_c, 2, 74, 127
1, 81076, Note_on_c, 0, 72, 127
1, 81142, Note_off_c, 0, 72, 127
1, 81143, Note_on_c, 2, 74, 127
1, 81209, Note_off_c, 2, 74, 127
1, 81209, Note_off_c, 10, 69, 127
1, 81209, Note_off_c, 4, 64, 127
1, 81210, Note_on_c, 4, 52, 127
1, 81210, Note_on_c, 8, 68, 127
1, 81210, Note_on_c, 0, 72, 127
1, 81344, Note_off_c, 0, 72, 127
1, 81345, Note_on_c, 12, 71, 127
1, 81479, Note_off_c, 12, 71, 127
1, 81479, Note_off_c, 8, 68, 127
1, 81479, Note_off_c, 4, 52, 127
1, 81480, Note_on_c, 10, 57, 127
1, 81480, Note_on_c, 10, 69, 127
1, 81480, Note_on_c, 0, 72, 127
1, 81614, Note_off_c, 0, 72, 127
1, 81615, Note_on_c, 12, 71, 127
1, 81749, Note_off_c, 12, 71, 127
1, 81749, Note_off_c, 10, 69, 127
1, 81749, Note_off_c, 10, 57, 127
1, 81750, Note_on_c, 10, 57, 127
1, 81750, Note_on_c, 4, 64, 127
1, 81750, Note_on_c, 10, 69, 127
1, 81750, Note_on_c, 0, 72, 127
1, 81884, Note_off_c, 0, 72, 127
1, 81885, Note_on_c, 2, 74, 127
1, 82019, Note_off_c, 2, 74, 127
1, 82019, Note_off_c, 10, 69, 127
1, 82019, Note_off_c, 4, 64, 127
1, 82019, Note_off_c, 10, 57, 127
1, 82020, Note_on_c, 10, 57, 127
1, 82020, Note_on_c, 4, 64, 127
1, 82020, Note_on_c, 0, 72, 127
1, 82020, Note_on_c, 4, 76, 127
1, 82154, Note_off_c, 4, 76, 127
1, 82155, Note_on_c, 5, 77, 127
1, 82288, Note_off_c, 0, 72, 127
1, 82289, Note_off_c, 5, 77, 127
1, 82289, Note_off_c, 4, 64, 127
1, 82289, Note_off_c, 10, 57, 127
1, 82290, Note_on_c, 10, 57, 127
1, 82290, Note_on_c, 4, 64, 127
1, 82290, Note_on_c, 7, 79, 127
1, 82424, Note_off_c, 7, 79, 127
1, 82425, Note_on_c, 4, 76, 127
1, 82559, Note_off_c, 4, 76, 127
1, 82559, Note_off_c, 4, 64, 127
1, 82559, Note_off_c, 10, 57, 127
1, 82560, Note_on_c, 5, 53, 127
1, 82560, Note_on_c, 10, 57, 127
1, 82560, Note_on_c, 10, 81, 127
1, 82694, Note_off_c, 10, 81, 127
1, 82695, Note_on_c, 8, 80, 127
1, 82829, Note_off_c, 8, 80, 127
1, 82829, Note_off_c, 10, 57, 127
1, 82829, Note_off_c, 5, 53, 127
1, 82830, Note_on_c, 2, 62, 127
1, 82830, Note_on_c, 5, 65, 127
1, 82830, Note_on_c, 10, 81, 127
1, 82964, Note_off_c, 10, 81, 127
1, 82965, Note_on_c, 12, 83, 127
1, 83099, Note_off_c, 12, 83, 127
1, 83099, Note_off_c, 5, 65, 127
1, 83099, Note_off_c, 2, 62, 127
1, 83100, Note_on_c, 2, 62, 127
1, 83100, Note_on_c, 5, 65, 127
1, 83100, Note_on_c, 10, 81, 127
1, 83234, Note_off_c, 10, 81, 127
1, 83235, Note_on_c, 0, 84, 127
1, 83369, Note_off_c, 0, 84, 127
1, 83369, Note_off_c, 5, 65, 127
1, 83369, Note_off_c, 2, 62, 127
1, 83370, Note_on_c, 2, 62, 127
1, 83370, Note_on_c, 5, 65, 127
1, 83370, Note_on_c, 12, 83, 127
1, 83504, Note_off_c, 12, 83, 127
1, 83505, Note_on_c, 10, 81, 127
1, 83639, Note_off_c, 10, 81, 127
1, 83639, Note_off_c, 5, 65, 127
1, 83639, Note_off_c, 2, 62, 127
1, 83640, Note_on_c, 4, 52, 127
1, 83640, Note_on_c, 4, 64, 127
1, 83640, Note_on_c, 8, 80, 127
1, 83910, Note_off_c, 8, 80, 127
1, 83910, Note_off_c, 4, 64, 127
1, 83911, Note_on_c, 2, 62, 127
1, 83911, Note_on_c, 10, 81, 127
1, 84045, Note_off_c, 10, 81, 127
1, 84046, Note_on_c, 12, 83, 127
1, 84176, Note_off_c, 4, 52, 127
1, 84180, Note_off_c, 12, 83, 127
1, 84180, Note_off_c, 2, 62, 127
1, 84181, Note_on_c, 0, 60, 127
1, 84181, Note_on_c, 4, 76, 127
1, 84451, Note_off_c, 4, 76, 127
1, 84451, Note_off_c, 0, 60, 127
1, 84452, Note_on_c, 4, 52, 127
1, 84452, Note_on_c, 12, 59, 127
1, 84452, Note_on_c, 6, 78, 127
1, 84586, Note_off_c, 6, 78, 127
1, 84587, Note_on_c, 8, 80, 127
1, 84721, Note_off_c, 8, 80, 127
1, 84721, Note_off_c, 12, 59, 127
1, 84721, Note_off_c, 4, 52, 127
1, 84722, Note_on_c, 6, 54, 127
1, 84722, Note_on_c, 10, 57, 127
1, 84722, Note_on_c, 10, 81, 127
1, 84992, Note_off_c, 10, 81, 127
1, 84992, Note_off_c, 6, 54, 127
1, 84993, Note_on_c, 4, 52, 127
1, 84993, Note_on_c, 12, 83, 127
1, 85127, Note_off_c, 12, 83, 127
1, 85128, Note_on_c, 0, 84, 127
1, 85262, Note_off_c, 0, 84, 127
1, 85262, Note_off_c, 4, 52, 127
1, 85262, Note_off_c, 10, 57, 127
1, 85263, Note_on_c, 3, 51, 127
1, 85263, Note_on_c, 12, 59, 127
1, 85263, Note_on_c, 6, 78, 127
1, 85533, Note_off_c, 6, 78, 127
1, 85533, Note_off_c, 3, 51, 127
1, 85534, Note_on_c, 12, 47, 127
1, 85534, Note_on_c, 7, 79, 127
1, 85668, Note_off_c, 7, 79, 127
1, 85669, Note_on_c, 10, 81, 127
1, 85803, Note_off_c, 10, 81, 127
1, 85803, Note_off_c, 12, 47, 127
1, 85803, Note_off_c, 12, 59, 127
1, 85804, Note_on_c, 4, 52, 127
1, 85804, Note_on_c, 12, 59, 127
1, 85804, Note_on_c, 7, 79, 127
1, 86074, Note_off_c, 4, 52, 127
1, 86075, Note_on_c, 3, 51, 127
1, 86075, Note_on_c, 12, 71, 127
1, 86209, Note_off_c, 7, 79, 127
1, 86210, Note_on_c, 6, 78, 127
1, 86344, Note_off_c, 6, 78, 127
1, 86344, Note_off_c, 12, 71, 127
1, 86344, Note_off_c, 3, 51, 127
1, 86344, Note_off_c, 12, 59, 127
1, 86345, Note_on_c, 4, 52, 127
1, 86345, Note_on_c, 12, 59, 127
1, 86345, Note_on_c, 12, 71, 127
1, 86345, Note_on_c, 7, 79, 127
1, 86479, Note_off_c, 7, 79, 127
1, 86480, Note_on_c, 10, 81, 127
1, 86614, Note_off_c, 10, 81, 127
1, 86614, Note_off_c, 12, 71, 127
1, 86614, Note_off_c, 4, 52, 127
1, 86615, Note_on_c, 2, 50, 127
1, 86615, Note_on_c, 12, 71, 127
1, 86615, Note_on_c, 7, 79, 127
1, 86749, Note_off_c, 7, 79, 127
1, 86750, Note_on_c, 6, 78, 127
1, 86884, Note_off_c, 6, 78, 127
1, 86884, Note_off_c, 12, 71, 127
1, 86884, Note_off_c, 2, 50, 127
1, 86885, Note_on_c, 0, 48, 127
1, 86885, Note_on_c, 4, 64, 127
1, 86885, Note_on_c, 4, 76, 127
1, 87019, Note_off_c, 12, 59, 127
1, 87020, Note_on_c, 12, 59, 127
1, 87154, Note_off_c, 12, 59, 127
1, 87154, Note_off_c, 4, 64, 127
1, 87155, Note_on_c, 10, 57, 127
1, 87155, Note_on_c, 0, 72, 127
1, 87289, Note_off_c, 10, 57, 127
1, 87290, Note_on_c, 8, 56, 127
1, 87420, Note_off_c, 4, 76, 127
1, 87420, Note_off_c, 0, 48, 127
1, 87424, Note_off_c, 8, 56, 127
1, 87424, Note_off_c, 0, 72, 127
1, 87425, Note_on_c, 10, 57, 127
1, 87425, Note_on_c, 0, 72, 127
1, 87561, Note_on_c, 7, 79, 127
1, 87695, Note_off_c, 7, 79, 127
1, 87695, Note_off_c, 0, 72, 127
1, 87695, Note_off_c, 10, 57, 127
1, 87696, Note_on_c, 10, 45, 127
1, 87696, Note_on_c, 6, 54, 127
1, 87696, Note_on_c, 0, 72, 127
1, 87696, Note_on_c, 6, 78, 127
1, 87830, Note_off_c, 6, 78, 127
1, 87831, Note_on_c, 4, 76, 127
1, 87965, Note_off_c, 4, 76, 127
1, 87965, Note_off_c, 0, 72, 127
1, 87965, Note_off_c, 6, 54, 127
1, 87965, Note_off_c, 10, 45, 127
1, 87966, Note_on_c, 12, 47, 127
1, 87966, Note_on_c, 12, 59, 127
1, 87966, Note_on_c, 12, 71, 127
1, 87966, Note_on_c, 3, 75, 127
1, 88236, Note_off_c, 3, 75, 127
1, 88236, Note_off_c, 12, 71, 127
1, 88237, Note_on_c, 10, 69, 127
1, 88237, Note_on_c, 4, 76, 127
1, 88371, Note_off_c, 4, 76, 127
1, 88372, Note_on_c, 6, 78, 127
1, 88502, Note_off_c, 12, 59, 127
1, 88502, Note_off_c, 12, 47, 127
1, 88506, Note_off_c, 6, 78, 127
1, 88506, Note_off_c, 10, 69, 127
1, 88507, Note_on_c, 7, 67, 127
1, 88507, Note_on_c, 12, 71, 127
1, 88777, Note_off_c, 12, 71, 127
1, 88777, Note_off_c, 7, 67, 127
1, 88778, Note_on_c, 12, 59, 127
1, 88778, Note_on_c, 6, 66, 127
1, 88778, Note_on_c, 1, 73, 127
1, 88912, Note_off_c, 1, 73, 127
1, 88913, Note_on_c, 3, 75, 127
1, 89047, Note_off_c, 3, 75, 127
1, 89047, Note_off_c, 6, 66, 127
1, 89047, Note_off_c, 12, 59, 127
1, 89048, Note_on_c, 0, 60, 127
1, 89048, Note_on_c, 4, 64, 127
1, 89048, Note_on_c, 4, 76, 127
1, 89318, Note_off_c, 4, 76, 127
1, 89318, Note_off_c, 4, 64, 127
1, 89318, Note_off_c, 0, 60, 127
1, 89319, Note_on_c, 12, 59, 127
1, 89319, Note_on_c, 6, 66, 127
1, 89319, Note_on_c, 2, 74, 127
1, 89453, Note_off_c, 6, 66, 127
1, 89454, Note_on_c, 8, 68, 127
1, 89588, Note_off_c, 8, 68, 127
1, 89588, Note_off_c, 2, 74, 127
1, 89588, Note_off_c, 12, 59, 127
1, 89589, Note_on_c, 10, 57, 127
1, 89589, Note_on_c, 10, 69, 127
1, 89589, Note_on_c, 0, 72, 127
1, 89859, Note_off_c, 0, 72, 127
1, 89859, Note_off_c, 10, 69, 127
1, 89859, Note_off_c, 10, 57, 127
1, 89860, Note_on_c, 12, 59, 127
1, 89860, Note_on_c, 7, 67, 127
1, 89860, Note_on_c, 12, 71, 127
1, 89994, Note_off_c, 12, 59, 127
1, 89995, Note_on_c, 0, 60, 127
1, 90129, Note_off_c, 0, 60, 127
1, 90129, Note_off_c, 12, 71, 127
1, 90129, Note_off_c, 7, 67, 127
1, 90130, Note_on_c, 2, 62, 127
1, 90130, Note_on_c, 6, 66, 127
1, 90130, Note_on_c, 10, 69, 127
1, 90400, Note_off_c, 10, 69, 127
1, 90400, Note_off_c, 6, 66, 127
1, 90400, Note_off_c, 2, 62, 127
1, 90401, Note_on_c, 0, 60, 127
1, 90401, Note_on_c, 4, 64, 127
1, 90401, Note_on_c, 12, 71, 127
1, 90535, Note_off_c, 12, 71, 127
1, 90536, Note_on_c, 0, 72, 127
1, 90670, Note_off_c, 0, 72, 127
1, 90670, Note_off_c, 4, 64, 127
1, 90670, Note_off_c, 0, 60, 127
1, 90671, Note_on_c, 12, 59, 127
1, 90671, Note_on_c, 2, 62, 127
1, 90671, Note_on_c, 2, 74, 127
1, 90941, Note_off_c, 2, 62, 127
1, 90941, Note_off_c, 12, 59, 127
1, 90942, Note_on_c, 10, 57, 127
1, 90942, Note_on_c, 4, 64, 127
1, 91076, Note_off_c, 4, 64, 127
1, 91077, Note_on_c, 5, 65, 127
1, 91211, Note_off_c, 5, 65, 127
1, 91211, Note_off_c, 10, 57, 127
1, 91212, Note_on_c, 8, 56, 127
1, 91212, Note_on_c, 12, 59, 127
1, 91346, Note_off_c, 2, 74, 127
1, 91347, Note_on_c, 5, 77, 127
1, 91481, Note_off_c, 5, 77, 127
1, 91481, Note_off_c, 12, 59, 127
1, 91482, Note_on_c, 4, 64, 127
1, 91482, Note_on_c, 4, 76, 127
1, 91616, Note_off_c, 4, 76, 127
1, 91617, Note_on_c, 2, 74, 127
1, 91751, Note_off_c, 2, 74, 127
1, 91751, Note_off_c, 8, 56, 127
1, 91752, Note_on_c, 10, 57, 127
1, 91752, Note_on_c, 0, 72, 127
1, 92022, Note_off_c, 0, 72, 127
1, 92022, Note_off_c, 10, 57, 127
1, 92022, Note_off_c, 4, 64, 127
1, 92023, Note_on_c, 2, 62, 127
1, 92023, Note_on_c, 5, 65, 127
1, 92023, Note_on_c, 12, 71, 127
1, 92157, Note_off_c, 12, 71, 127
1, 92158, Note_on_c, 10, 69, 127
1, 92292, Note_off_c, 10, 69, 127
1, 92292, Note_off_c, 5, 65, 127
1, 92293, Note_on_c, 4, 64, 127
1, 92293, Note_on_c, 8, 68, 127
1, 92417, Note_off_c, 2, 62, 127
1, 92428, Note_on_c, 0, 60, 127
1, 92562, Note_off_c, 0, 60, 127
1, 92562, Note_off_c, 8, 68, 127
1, 92563, Note_on_c, 4, 52, 127
1, 92563, Note_on_c, 12, 59, 127
1, 92563, Note_on_c, 10, 69, 127
1, 92697, Note_off_c, 12, 59, 127
1, 92698, Note_on_c, 10, 57, 127
1, 92832, Note_off_c, 10, 57, 127
1, 92832, Note_off_c, 10, 69, 127
1, 92832, Note_off_c, 4, 52, 127
1, 92832, Note_off_c, 4, 64, 127
1, 92833, Note_on_c, 4, 52, 127
1, 92833, Note_on_c, 12, 59, 127
1, 92833, Note_on_c, 2, 62, 127
1, 92833, Note_on_c, 12, 71, 127
1, 92899, Note_off_c, 12, 71, 127
1, 92900, Note_on_c, 10, 69, 127
1, 92966, Note_off_c, 10, 69, 127
1, 92967, Note_on_c, 12, 71, 127
1, 93033, Note_off_c, 12, 71, 127
1, 93034, Note_on_c, 10, 69, 127
1, 93100, Note_off_c, 4, 52, 127
1, 93101, Note_on_c, 4, 52, 127
1, 93235, Note_off_c, 10, 69, 127
1, 93236, Note_on_c, 8, 68, 127
1, 93370, Note_off_c, 8, 68, 127
1, 93370, Note_off_c, 4, 52, 127
1, 93370, Note_off_c, 2, 62, 127
1, 93370, Note_off_c, 12, 59, 127
1, 93371, Note_on_c, 10, 45, 127
1, 93371, Note_on_c, 0, 60, 127
1, 93371, Note_on_c, 10, 69, 127
1, 93639, Note_off_c, 10, 69, 127
1, 93640, Note_off_c, 0, 60, 127
1, 93640, Note_off_c, 10, 45, 127
1, 93641, Note_on_c, 5, 53, 127
1, 93641, Note_on_c, 12, 59, 127
1, 93775, Note_off_c, 12, 59, 127
1, 93776, Note_on_c, 10, 57, 127
1, 93910, Note_off_c, 5, 53, 127
1, 93911, Note_on_c, 5, 53, 127
1, 93911, Note_on_c, 2, 62, 127
1, 94045, Note_off_c, 10, 57, 127
1, 94046, Note_on_c, 0, 60, 127
1, 94180, Note_off_c, 0, 60, 127
1, 94180, Note_off_c, 5, 53, 127
1, 94181, Note_on_c, 5, 53, 127
1, 94181, Note_on_c, 12, 59, 127
1, 94315, Note_off_c, 12, 59, 127
1, 94316, Note_on_c, 10, 57, 127
1, 94450, Note_off_c, 10, 57, 127
1, 94450, Note_off_c, 5, 53, 127
1, 94451, Note_on_c, 4, 52, 127
1, 94451, Note_on_c, 8, 56, 127
1, 94587, Note_off_c, 2, 62, 127
1, 94588, Note_on_c, 0, 60, 127
1, 94724, Note_off_c, 8, 56, 127
1, 94724, Note_off_c, 4, 52, 127
1, 94725, Note_on_c, 2, 50, 127
1, 94725, Note_on_c, 6, 54, 127
1, 94861, Note_off_c, 0, 60, 127
1, 94862, Note_on_c, 12, 59, 127
1, 94998, Note_off_c, 6, 54, 127
1, 94998, Note_off_c, 2, 50, 127
1, 94999, Note_on_c, 0, 48, 127
1, 94999, Note_on_c, 4, 52, 127
1, 95135, Note_off_c, 12, 59, 127
1, 95136, Note_on_c, 10, 57, 127
1, 95272, Note_off_c, 4, 52, 127
1, 95272, Note_off_c, 0, 48, 127
1, 95273, Note_on_c, 12, 47, 127
1, 95273, Note_on_c, 2, 50, 127
1, 95409, Note_off_c, 10, 57, 127
1, 95410, Note_on_c, 8, 56, 127
1, 95546, Note_off_c, 8, 56, 127
1, 95546, Note_off_c, 2, 50, 127
1, 95546, Note_off_c, 12, 47, 127
1, 95547, Note_on_c, 10, 45, 127
1, 95547, Note_on_c, 0, 48, 127
1, 95547, Note_on_c, 10, 57, 127
1, 95818, Note_on_c, 10, 69, 127
1, 96083, Note_off_c, 10, 57, 127
1, 96083, Note_off_c, 0, 48, 127
1, 96083, Note_off_c, 10, 45, 127
1, 96087, Note_off_c, 10, 69, 127
1, 96088, Note_on_c, 10, 69, 127
1, 96358, Note_off_c, 10, 69, 127
1, 96359, Note_on_c, 10, 45, 127
1, 96359, Note_on_c, 0, 60, 127
1, 96359, Note_on_c, 10, 69, 127
1, 96493, Note_off_c, 0, 60, 127
1, 96493, Note_off_c, 10, 45, 127
1, 96494, Note_on_c, 12, 47, 127
1, 96494, Note_on_c, 2, 62, 127
1, 96628, Note_off_c, 2, 62, 127
1, 96628, Note_off_c, 12, 47, 127
1, 96628, Note_off_c, 10, 69, 127
1, 96629, Note_on_c, 0, 48, 127
1, 96629, Note_on_c, 4, 64, 127
1, 96763, Note_off_c, 0, 48, 127
1, 96764, Note_on_c, 12, 47, 127
1, 96898, Note_off_c, 12, 47, 127
1, 96898, Note_off_c, 4, 64, 127
1, 96899, Note_on_c, 10, 45, 127
1, 96899, Note_on_c, 4, 64, 127
1, 96899, Note_on_c, 0, 72, 127
1, 97033, Note_off_c, 10, 45, 127
1, 97034, Note_on_c, 12, 47, 127
1, 97168, Note_off_c, 12, 47, 127
1, 97168, Note_off_c, 0, 72, 127
1, 97168, Note_off_c, 4, 64, 127
1, 97169, Note_on_c, 0, 48, 127
1, 97169, Note_on_c, 4, 64, 127
1, 97169, Note_on_c, 0, 72, 127
1, 97303, Note_off_c, 4, 64, 127
1, 97303, Note_off_c, 0, 48, 127
1, 97304, Note_on_c, 2, 50, 127
1, 97304, Note_on_c, 6, 66, 127
1, 97438, Note_off_c, 6, 66, 127
1, 97438, Note_off_c, 2, 50, 127
1, 97438, Note_off_c, 0, 72, 127
1, 97439, Note_on_c, 4, 52, 127
1, 97439, Note_on_c, 7, 67, 127
1, 97439, Note_on_c, 0, 72, 127
1, 97573, Note_off_c, 7, 67, 127
1, 97573, Note_off_c, 4, 52, 127
1, 97574, Note_on_c, 6, 54, 127
1, 97574, Note_on_c, 10, 69, 127
1, 97708, Note_off_c, 10, 69, 127
1, 97708, Note_off_c, 6, 54, 127
1, 97708, Note_off_c, 0, 72, 127
1, 97709, Note_on_c, 7, 55, 127
1, 97709, Note_on_c, 4, 64, 127
1, 97709, Note_on_c, 12, 71, 127
1, 97843, Note_off_c, 7, 55, 127
1, 97844, Note_on_c, 6, 54, 127
1, 97978, Note_off_c, 6, 54, 127
1, 97978, Note_off_c, 12, 71, 127
1, 97978, Note_off_c, 4, 64, 127
1, 97979, Note_on_c, 7, 55, 127
1, 97979, Note_on_c, 6, 66, 127
1, 97979, Note_on_c, 10, 69, 127
1, 98113, Note_off_c, 7, 55, 127
1, 98114, Note_on_c, 10, 57, 127
1, 98248, Note_off_c, 10, 57, 127
1, 98248, Note_off_c, 10, 69, 127
1, 98249, Note_on_c, 12, 59, 127
1, 98249, Note_on_c, 7, 67, 127
1, 98383, Note_off_c, 6, 66, 127
1, 98384, Note_on_c, 4, 64, 127
1, 98518, Note_off_c, 7, 67, 127
1, 98518, Note_off_c, 12, 59, 127
1, 98519, Note_on_c, 12, 47, 127
1, 98519, Note_on_c, 6, 66, 127
1, 98653, Note_off_c, 4, 64, 127
1, 98654, Note_on_c, 3, 63, 127
1, 98722, Note_off_c, 6, 66, 127
1, 98788, Note_off_c, 3, 63, 127
1, 98788, Note_off_c, 12, 47, 127
1, 98789, Note_on_c, 4, 52, 127
1, 98789, Note_on_c, 7, 67, 127
1, 98925, Note_on_c, 4, 64, 127
1, 99059, Note_off_c, 7, 67, 127
1, 99059, Note_off_c, 4, 52, 127
1, 99060, Note_on_c, 5, 53, 127
1, 99060, Note_on_c, 5, 65, 127
1, 99194, Note_off_c, 4, 64, 127
1, 99195, Note_on_c, 2, 62, 127
1, 99329, Note_off_c, 5, 65, 127
1, 99329, Note_off_c, 5, 53, 127
1, 99330, Note_on_c, 7, 55, 127
1, 99330, Note_on_c, 4, 64, 127
1, 99464, Note_off_c, 2, 62, 127
1, 99465, Note_on_c, 0, 60, 127
1, 99599, Note_off_c, 4, 64, 127
1, 99599, Note_off_c, 7, 55, 127
1, 99600, Note_on_c, 7, 43, 127
1, 99600, Note_on_c, 2, 62, 127
1, 99734, Note_off_c, 0, 60, 127
1, 99735, Note_on_c, 12, 59, 127
1, 99803, Note_off_c, 2, 62, 127
1, 99869, Note_off_c, 12, 59, 127
1, 99869, Note_off_c, 7, 43, 127
1, 99870, Note_on_c, 0, 48, 127
1, 99870, Note_on_c, 4, 64, 127
1, 100006, Note_on_c, 0, 60, 127
1, 100140, Note_off_c, 4, 64, 127
1, 100140, Note_off_c, 0, 48, 127
1, 100141, Note_on_c, 2, 50, 127
1, 100141, Note_on_c, 2, 62, 127
1, 100275, Note_off_c, 0, 60, 127
1, 100276, Note_on_c, 12, 59, 127
1, 100410, Note_off_c, 2, 62, 127
1, 100410, Note_off_c, 2, 50, 127
1, 100411, Note_on_c, 4, 52, 127
1, 100411, Note_on_c, 0, 60, 127
1, 100545, Note_off_c, 12, 59, 127
1, 100546, Note_on_c, 10, 57, 127
1, 100680, Note_off_c, 0, 60, 127
1, 100680, Note_off_c, 4, 52, 127
1, 100681, Note_on_c, 4, 40, 127
1, 100681, Note_on_c, 12, 59, 127
1, 100815, Note_off_c, 10, 57, 127
1, 100816, Note_on_c, 8, 56, 127
1, 100950, Note_off_c, 8, 56, 127
1, 100950, Note_off_c, 12, 59, 127
1, 100950, Note_off_c, 4, 40, 127
1, 100951, Note_on_c, 10, 45, 127
1, 100951, Note_on_c, 10, 57, 127
1, 100951, Note_on_c, 0, 60, 127
1, 101219, Note_off_c, 10, 57, 127
1, 101222, Note_on_c, 10, 57, 127
1, 101487, Note_off_c, 0, 60, 127
1, 101487, Note_off_c, 10, 45, 127
1, 101491, Note_off_c, 10, 57, 127
1, 101492, Note_on_c, 10, 57, 127
1, 101762, Note_off_c, 10, 57, 127
1, 101763, Note_on_c, 10, 45, 127
1, 101763, Note_on_c, 10, 57, 127
1, 101763, Note_on_c, 1, 61, 127
1, 101763, Note_on_c, 10, 69, 127
1, 102033, Note_off_c, 1, 61, 127
1, 102033, Note_off_c, 10, 57, 127
1, 102033, Note_off_c, 10, 45, 127
1, 102034, Note_on_c, 11, 46, 127
1, 102034, Note_on_c, 2, 50, 127
1, 102034, Note_on_c, 2, 62, 127
1, 102304, Note_off_c, 2, 50, 127
1, 102304, Note_off_c, 10, 69, 127
1, 102305, Note_on_c, 11, 58, 127
1, 102305, Note_on_c, 7, 67, 127
1, 102439, Note_off_c, 7, 67, 127
1, 102440, Note_on_c, 6, 66, 127
1, 102570, Note_off_c, 2, 62, 127
1, 102570, Note_off_c, 11, 46, 127
1, 102574, Note_off_c, 6, 66, 127
1, 102574, Note_off_c, 11, 58, 127
1, 102575, Note_on_c, 11, 58, 127
1, 102575, Note_on_c, 7, 67, 127
1, 102845, Note_off_c, 11, 58, 127
1, 102846, Note_on_c, 7, 43, 127
1, 102846, Note_on_c, 11, 58, 127
1, 102846, Note_on_c, 4, 64, 127
1, 102980, Note_off_c, 4, 64, 127
1, 102981, Note_on_c, 2, 62, 127
1, 103115, Note_off_c, 2, 62, 127
1, 103115, Note_off_c, 11, 58, 127
1, 103115, Note_off_c, 7, 43, 127
1, 103116, Note_on_c, 10, 45, 127
1, 103116, Note_on_c, 10, 57, 127
1, 103116, Note_on_c, 1, 61, 127
1, 103250, Note_off_c, 7, 67, 127
1, 103251, Note_on_c, 4, 64, 127
1, 103385, Note_off_c, 4, 64, 127
1, 103385, Note_off_c, 10, 57, 127
1, 103386, Note_on_c, 7, 55, 127
1, 103386, Note_on_c, 5, 65, 127
1, 103520, Note_off_c, 5, 65, 127
1, 103521, Note_on_c, 7, 67, 127
1, 103651, Note_off_c, 1, 61, 127
1, 103655, Note_off_c, 7, 67, 127
1, 103655, Note_off_c, 7, 55, 127
1, 103656, Note_on_c, 5, 53, 127
1, 103656, Note_on_c, 10, 69, 127
1, 103792, Note_on_c, 2, 62, 127
1, 103926, Note_off_c, 10, 69, 127
1, 103926, Note_off_c, 5, 53, 127
1, 103927, Note_on_c, 4, 52, 127
1, 103927, Note_on_c, 7, 67, 127
1, 104061, Note_off_c, 2, 62, 127
1, 104062, Note_on_c, 1, 61, 127
1, 104196, Note_off_c, 1, 61, 127
1, 104196, Note_off_c, 7, 67, 127
1, 104196, Note_off_c, 4, 52, 127
1, 104196, Note_off_c, 10, 45, 127
1, 104197, Note_on_c, 2, 50, 127
1, 104197, Note_on_c, 2, 62, 127
1, 104197, Note_on_c, 5, 65, 127
1, 104331, Note_off_c, 2, 62, 127
1, 104332, Note_on_c, 10, 57, 127
1, 104466, Note_off_c, 10, 57, 127
1, 104467, Note_on_c, 0, 48, 127
1, 104467, Note_on_c, 12, 59, 127
1, 104601, Note_off_c, 12, 59, 127
1, 104602, Note_on_c, 0, 60, 127
1, 104732, Note_off_c, 5, 65, 127
1, 104732, Note_off_c, 2, 50, 127
1, 104736, Note_off_c, 0, 60, 127
1, 104736, Note_off_c, 0, 48, 127
1, 104737, Note_on_c, 12, 47, 127
1, 104737, Note_on_c, 2, 62, 127
1, 104873, Note_on_c, 7, 55, 127
1, 105007, Note_off_c, 2, 62, 127
1, 105007, Note_off_c, 12, 47, 127
1, 105008, Note_on_c, 10, 45, 127
1, 105008, Note_on_c, 0, 60, 127
1, 105142, Note_off_c, 7, 55, 127
1, 105143, Note_on_c, 5, 53, 127
1, 105277, Note_off_c, 0, 60, 127
1, 105277, Note_off_c, 10, 45, 127
1, 105278, Note_on_c, 8, 44, 127
1, 105278, Note_on_c, 12, 59, 127
1, 105412, Note_off_c, 5, 53, 127
1, 105413, Note_on_c, 5, 53, 127
1, 105547, Note_off_c, 5, 53, 127
1, 105548, Note_on_c, 4, 52, 127
1, 105682, Note_off_c, 4, 52, 127
1, 105683, Note_on_c, 2, 50, 127
1, 105817, Note_off_c, 2, 50, 127
1, 105817, Note_off_c, 8, 44, 127
1, 105818, Note_on_c, 10, 45, 127
1, 105818, Note_on_c, 0, 48, 127
1, 105952, Note_off_c, 12, 59, 127
1, 105953, Note_on_c, 12, 59, 127
1, 106087, Note_off_c, 12, 59, 127
1, 106087, Note_off_c, 0, 48, 127
1, 106087, Note_off_c, 10, 45, 127
1, 106088, Note_on_c, 12, 47, 127
1, 106088, Note_on_c, 2, 50, 127
1, 106088, Note_on_c, 10, 57, 127
1, 106222, Note_off_c, 10, 57, 127
1, 106223, Note_on_c, 8, 56, 127
1, 106357, Note_off_c, 8, 56, 127
1, 106357, Note_off_c, 2, 50, 127
1, 106357, Note_off_c, 12, 47, 127
1, 106358, Note_on_c, 0, 48, 127
1, 106358, Note_on_c, 4, 52, 127
1, 106358, Note_on_c, 10, 57, 127
1, 106628, Note_off_c, 10, 57, 127
1, 106628, Note_off_c, 4, 52, 127
1, 106628, Note_off_c, 0, 48, 127
1, 106629, Note_on_c, 0, 48, 127
1, 106629, Note_on_c, 0, 60, 127
1, 106629, Note_on_c, 10, 69, 127
1, 106629, Note_on_c, 4, 76, 127
1, 106763, Note_off_c, 0, 48, 127
1, 106764, Note_on_c, 2, 50, 127
1, 106898, Note_off_c, 2, 50, 127
1, 106898, Note_off_c, 4, 76, 127
1, 106898, Note_off_c, 10, 69, 127
1, 106898, Note_off_c, 0, 60, 127
1, 106899, Note_on_c, 4, 52, 127
1, 106899, Note_on_c, 12, 59, 127
1, 106899, Note_on_c, 10, 69, 127
1, 106899, Note_on_c, 4, 76, 127
1, 107169, Note_off_c, 4, 76, 127
1, 107169, Note_off_c, 10, 69, 127
1, 107169, Note_off_c, 12, 59, 127
1, 107170, Note_on_c, 4, 64, 127
1, 107170, Note_on_c, 8, 68, 127
1, 107170, Note_on_c, 4, 76, 127
1, 107304, Note_off_c, 4, 64, 127
1, 107305, Note_on_c, 2, 62, 127
1, 107439, Note_off_c, 2, 62, 127
1, 107439, Note_off_c, 4, 76, 127
1, 107439, Note_off_c, 8, 68, 127
1, 107439, Note_off_c, 4, 52, 127
1, 107440, Note_on_c, 5, 53, 127
1, 107440, Note_on_c, 10, 69, 127
1, 107576, Note_on_c, 0, 60, 127
1, 107710, Note_off_c, 0, 60, 127
1, 107711, Note_on_c, 12, 59, 127
1, 107711, Note_on_c, 5, 77, 127
1, 107845, Note_off_c, 12, 59, 127
1, 107846, Note_on_c, 10, 57, 127
1, 107976, Note_off_c, 10, 69, 127
1, 107976, Note_off_c, 5, 53, 127
1, 107980, Note_off_c, 10, 57, 127
1, 107980, Note_off_c, 5, 77, 127
1, 107981, Note_on_c, 2, 62, 127
1, 107981, Note_on_c, 5, 77, 127
1, 108117, Note_on_c, 10, 69, 127
1, 108251, Note_off_c, 10, 69, 127
1, 108251, Note_off_c, 5, 77, 127
1, 108252, Note_on_c, 2, 74, 127
1, 108252, Note_on_c, 5, 77, 127
1, 108386, Note_off_c, 2, 74, 127
1, 108387, Note_on_c, 12, 71, 127
1, 108521, Note_off_c, 12, 71, 127
1, 108521, Note_off_c, 5, 77, 127
1, 108521, Note_off_c, 2, 62, 127
1, 108522, Note_on_c, 0, 60, 127
1, 108522, Note_on_c, 4, 76, 127
1, 108658, Note_on_c, 10, 69, 127
1, 108792, Note_off_c, 4, 76, 127
1, 108792, Note_off_c, 0, 60, 127
1, 108793, Note_on_c, 4, 52, 127
1, 108793, Note_on_c, 12, 59, 127
1, 108793, Note_on_c, 2, 74, 127
1, 108927, Note_off_c, 10, 69, 127
1, 108928, Note_on_c, 8, 68, 127
1, 109062, Note_off_c, 8, 68, 127
1, 109062, Note_off_c, 2, 74, 127
1, 109062, Note_off_c, 12, 59, 127
1, 109062, Note_off_c, 4, 52, 127
1, 109063, Note_on_c, 4, 52, 127
1, 109063, Note_on_c, 10, 57, 127
1, 109063, Note_on_c, 0, 72, 127
1, 109199, Note_on_c, 4, 64, 127
1, 109333, Note_off_c, 0, 72, 127
1, 109333, Note_off_c, 10, 57, 127
1, 109333, Note_off_c, 4, 52, 127
1, 109334, Note_on_c, 4, 52, 127
1, 109334, Note_on_c, 8, 56, 127
1, 109334, Note_on_c, 12, 71, 127
1, 109468, Note_off_c, 4, 64, 127
1, 109469, Note_on_c, 2, 62, 127
1, 109603, Note_off_c, 2, 62, 127
1, 109603, Note_off_c, 12, 71, 127
1, 109603, Note_off_c, 8, 56, 127
1, 109603, Note_off_c, 4, 52, 127
1, 109604, Note_on_c, 10, 45, 127
1, 109604, Note_on_c, 10, 57, 127
1, 109604, Note_on_c, 0, 60, 127
1, 109604, Note_on_c, 10, 69, 127
1, 109738, Note_off_c, 0, 60, 127
1, 109738, Note_off_c, 10, 57, 127
1, 109739, Note_on_c, 0, 60, 127
1, 109872, Note_off_c, 10, 69, 127
1, 109873, Note_off_c, 0, 60, 127
1, 109873, Note_off_c, 10, 45, 127
1, 109874, Note_on_c, 5, 53, 127
1, 109874, Note_on_c, 2, 62, 127
1, 110008, Note_off_c, 2, 62, 127
1, 110009, Note_on_c, 10, 57, 127
1, 110143, Note_off_c, 10, 57, 127
1, 110143, Note_off_c, 5, 53, 127
1, 110144, Note_on_c, 5, 53, 127
1, 110144, Note_on_c, 2, 62, 127
1, 110280, Note_on_c, 0, 72, 127
1, 110414, Note_off_c, 0, 72, 127
1, 110414, Note_off_c, 5, 53, 127
1, 110415, Note_on_c, 5, 53, 127
1, 110415, Note_on_c, 12, 71, 127
1, 110549, Note_off_c, 12, 71, 127
1, 110550, Note_on_c, 10, 69, 127
1, 110684, Note_off_c, 10, 69, 127
1, 110684, Note_off_c, 5, 53, 127
1, 110684, Note_off_c, 2, 62, 127
1, 110685, Note_on_c, 4, 52, 127
1, 110685, Note_on_c, 4, 64, 127
1, 110685, Note_on_c, 8, 68, 127
1, 110822, Note_on_c, 12, 71, 127
1, 110958, Note_off_c, 12, 71, 127
1, 110958, Note_off_c, 4, 64, 127
1, 110958, Note_off_c, 4, 52, 127
1, 110959, Note_on_c, 2, 50, 127
1, 110959, Note_on_c, 12, 59, 127
1, 110959, Note_on_c, 0, 72, 127
1, 111095, Note_off_c, 0, 72, 127
1, 111096, Note_on_c, 2, 74, 127
1, 111227, Note_off_c, 8, 68, 127
1, 111231, Note_off_c, 2, 74, 127
1, 111231, Note_off_c, 12, 59, 127
1, 111231, Note_off_c, 2, 50, 127
1, 111232, Note_on_c, 0, 48, 127
1, 111232, Note_on_c, 0, 60, 127
1, 111232, Note_on_c, 4, 76, 127
1, 111369, Note_on_c, 10, 69, 127
1, 111505, Note_off_c, 4, 76, 127
1, 111505, Note_off_c, 0, 60, 127
1, 111505, Note_off_c, 0, 48, 127
1, 111506, Note_on_c, 0, 60, 127
1, 111506, Note_on_c, 2, 62, 127
1, 111506, Note_on_c, 6, 78, 127
1, 111642, Note_off_c, 10, 69, 127
1, 111643, Note_on_c, 10, 69, 127
1, 111779, Note_off_c, 10, 69, 127
1, 111779, Note_off_c, 6, 78, 127
1, 111779, Note_off_c, 2, 62, 127
1, 111779, Note_off_c, 0, 60, 127
1, 111780, Note_on_c, 12, 59, 127
1, 111780, Note_on_c, 4, 64, 127
1, 111780, Note_on_c, 8, 80, 127
1, 111917, Note_on_c, 12, 71, 127
1, 112053, Note_off_c, 8, 80, 127
1, 112053, Note_off_c, 4, 64, 127
1, 112053, Note_off_c, 12, 59, 127
1, 112054, Note_on_c, 10, 57, 127
1, 112054, Note_on_c, 5, 65, 127
1, 112054, Note_on_c, 10, 81, 127
1, 112190, Note_off_c, 12, 71, 127
1, 112191, Note_on_c, 0, 72, 127
1, 112327, Note_off_c, 0, 72, 127
1, 112327, Note_off_c, 10, 81, 127
1, 112327, Note_off_c, 5, 65, 127
1, 112327, Note_off_c, 10, 57, 127
1, 112328, Note_on_c, 8, 56, 127
1, 112328, Note_on_c, 4, 64, 127
1, 112328, Note_on_c, 12, 83, 127
1, 112465, Note_on_c, 2, 74, 127
1, 112601, Note_off_c, 2, 74, 127
1, 112602, Note_on_c, 4, 76, 127
1, 112738, Note_off_c, 4, 76, 127
1, 112739, Note_on_c, 2, 74, 127
1, 112870, Note_off_c, 12, 83, 127
1, 112874, Note_off_c, 2, 74, 127
1, 112874, Note_off_c, 4, 64, 127
1, 112874, Note_off_c, 8, 56, 127
1, 112875, Note_on_c, 10, 57, 127
1, 112875, Note_on_c, 4, 64, 127
1, 112875, Note_on_c, 0, 72, 127
1, 113012, Note_on_c, 12, 83, 127
1, 113148, Note_off_c, 12, 83, 127
1, 113149, Note_on_c, 10, 81, 127
1, 113285, Note_off_c, 10, 81, 127
1, 113286, Note_on_c, 8, 80, 127
1, 113417, Note_off_c, 0, 72, 127
1, 113417, Note_off_c, 4, 64, 127
1, 113417, Note_off_c, 10, 57, 127
1, 113421, Note_off_c, 8, 80, 127
1, 113422, Note_on_c, 10, 81, 127
1, 113558, Note_off_c, 10, 81, 127
1, 113559, Note_on_c, 7, 79, 127
1, 113695, Note_off_c, 7, 79, 127
1, 113696, Note_on_c, 10, 57, 127
1, 113696, Note_on_c, 1, 61, 127
1, 113696, Note_on_c, 10, 69, 127
1, 113696, Note_on_c, 5, 77, 127
1, 113832, Note_off_c, 5, 77, 127
1, 113833, Note_on_c, 4, 76, 127
1, 113969, Note_off_c, 4, 76, 127
1, 113969, Note_off_c, 10, 69, 127
1, 113969, Note_off_c, 1, 61, 127
1, 113969, Note_off_c, 10, 57, 127
1, 113970, Note_on_c, 2, 50, 127
1, 113970, Note_on_c, 2, 62, 127
1, 113970, Note_on_c, 10, 69, 127
1, 113970, Note_on_c, 5, 77, 127
1, 114109, Note_off_c, 5, 77, 127
1, 114110, Note_on_c, 10, 81, 127
1, 114249, Note_off_c, 10, 81, 127
1, 114250, Note_on_c, 5, 77, 127
1, 114389, Note_off_c, 5, 77, 127
1, 114390, Note_on_c, 2, 74, 127
1, 114525, Note_off_c, 10, 69, 127
1, 114525, Note_off_c, 2, 62, 127
1, 114525, Note_off_c, 2, 50, 127
1, 114529, Note_off_c, 2, 74, 127
1, 114530, Note_on_c, 5, 77, 127
1, 114670, Note_on_c, 10, 69, 127
1, 114808, Note_off_c, 5, 77, 127
1, 114809, Note_off_c, 10, 69, 127
1, 114810, Note_on_c, 4, 76, 127
1, 114950, Note_on_c, 7, 67, 127
1, 115088, Note_off_c, 4, 76, 127
1, 115089, Note_off_c, 7, 67, 127
1, 115090, Note_on_c, 10, 69, 127
1, 115230, Note_on_c, 2, 74, 127
1, 115368, Note_off_c, 10, 69, 127
1, 115369, Note_off_c, 2, 74, 127
1, 115370, Note_on_c, 10, 69, 127
1, 115510, Note_on_c, 5, 65, 127
1, 115648, Note_off_c, 10, 69, 127
1, 115649, Note_off_c, 5, 65, 127
1, 115650, Note_on_c, 2, 74, 127
1, 115790, Note_on_c, 5, 65, 127
1, 115928, Note_off_c, 2, 74, 127
1, 115929, Note_off_c, 5, 65, 127
1, 115930, Note_on_c, 0, 72, 127
1, 116070, Note_on_c, 4, 64, 127
1, 116208, Note_off_c, 0, 72, 127
1, 116209, Note_off_c, 4, 64, 127
1, 116210, Note_on_c, 5, 65, 127
1, 116350, Note_on_c, 11, 70, 127
1, 116488, Note_off_c, 5, 65, 127
1, 116489, Note_off_c, 11, 70, 127
1, 116490, Note_on_c, 5, 65, 127
1, 116630, Note_on_c, 2, 62, 127
1, 116768, Note_off_c, 5, 65, 127
1, 116769, Note_off_c, 2, 62, 127
1, 116770, Note_on_c, 11, 70, 127
1, 116910, Note_on_c, 2, 62, 127
1, 117048, Note_off_c, 11, 70, 127
1, 117049, Note_off_c, 2, 62, 127
1, 117050, Note_on_c, 10, 69, 127
1, 117190, Note_on_c, 0, 60, 127
1, 117328, Note_off_c, 10, 69, 127
1, 117329, Note_off_c, 0, 60, 127
1, 117330, Note_on_c, 2, 50, 127
1, 117330, Note_on_c, 12, 59, 127
1, 117330, Note_on_c, 8, 68, 127
1, 117471, Note_off_c, 8, 68, 127
1, 117472, Note_on_c, 12, 71, 127
1, 117613, Note_off_c, 12, 71, 127
1, 117614, Note_on_c, 8, 68, 127
1, 117755, Note_off_c, 8, 68, 127
1, 117756, Note_on_c, 4, 64, 127
1, 117892, Note_off_c, 12, 59, 127
1, 117892, Note_off_c, 2, 50, 127
1, 117896, Note_off_c, 4, 64, 127
1, 117897, Note_on_c, 8, 68, 127
1, 118038, Note_off_c, 8, 68, 127
1, 118039, Note_on_c, 12, 59, 127
1, 118180, Note_off_c, 12, 59, 127
1, 118181, Note_on_c, 6, 66, 127
1, 118322, Note_off_c, 6, 66, 127
1, 118323, Note_on_c, 10, 57, 127
1, 118464, Note_off_c, 10, 57, 127
1, 118465, Note_on_c, 4, 52, 127
1, 118465, Note_on_c, 2, 50, 127
1, 118465, Note_on_c, 12, 59, 127
1, 118465, Note_on_c, 8, 56, 127
1, 118607, Note_off_c, 8, 56, 127
1, 118609, Note_on_c, 4, 64, 127
1, 118750, Note_off_c, 12, 59, 127
1, 118752, Note_off_c, 4, 64, 127
1, 118754, Note_on_c, 12, 59, 127
1, 118896, Note_off_c, 12, 59, 127
1, 118898, Note_on_c, 8, 56, 127
1, 119036, Note_off_c, 2, 50, 127
1, 119036, Note_off_c, 4, 52, 127
1, 119040, Note_off_c, 8, 56, 127
1, 119042, Note_on_c, 12, 59, 127
1, 119184, Note_off_c, 12, 59, 127
1, 119186, Note_on_c, 4, 52, 127
1, 119328, Note_off_c, 4, 52, 127
1, 119330, Note_on_c, 8, 56, 127
1, 119472, Note_off_c, 8, 56, 127
1, 119474, Note_on_c, 2, 50, 127
1, 119616, Note_off_c, 2, 50, 127
1, 119618, Note_on_c, 0, 48, 127
1, 119618, Note_on_c, 10, 57, 127
1, 119618, Note_on_c, 4, 64, 127
1, 119618, Note_on_c, 10, 69, 127
1, 119766, Note_off_c, 0, 48, 127
1, 119768, Note_on_c, 4, 52, 127
1, 119916, Note_off_c, 4, 52, 127
1, 119918, Note_on_c, 0, 48, 127
1, 120066, Note_off_c, 0, 48, 127
1, 120068, Note_on_c, 10, 45, 127
1, 120211, Note_off_c, 10, 69, 127
1, 120211, Note_off_c, 4, 64, 127
1, 120211, Note_off_c, 10, 57, 127
1, 120216, Note_off_c, 10, 45, 127
1, 120218, Note_on_c, 2, 50, 127
1, 120366, Note_off_c, 2, 50, 127
1, 120368, Note_on_c, 5, 41, 127
1, 120516, Note_off_c, 5, 41, 127
1, 120518, Note_on_c, 0, 48, 127
1, 120674, Note_off_c, 0, 48, 127
1, 120694, Note_on_c, 4, 40, 127
1, 120864, Note_off_c, 4, 40, 127
1, 120887, Note_on_c, 3, 39, 127
1, 121141, Note_on_c, 12, 71, 127
1, 121309, Note_off_c, 12, 71, 127
1, 121321, Note_on_c, 10, 69, 127
1, 121489, Note_off_c, 10, 69, 127
1, 121501, Note_on_c, 8, 68, 127
1, 121669, Note_off_c, 8, 68, 127
1, 121681, Note_on_c, 10, 69, 127
1, 122036, Note_on_c, 12, 59, 127
1, 122036, Note_on_c, 6, 66, 127
1, 122337, Note_off_c, 3, 39, 127
1, 122357, Note_off_c, 10, 69, 127
1, 122373, Note_off_c, 6, 66, 127
1, 122373, Note_off_c, 12, 59, 127
1, 122375, Note_on_c, 4, 40, 127
1, 122375, Note_on_c, 0, 60, 127
1, 122375, Note_on_c, 4, 64, 127
1, 122375, Note_on_c, 10, 69, 127
1, 122751, Note_off_c, 0, 60, 127
1, 122753, Note_on_c, 12, 59, 127
1, 122957, Note_off_c, 12, 59, 127
1, 122959, Note_on_c, 10, 57, 127
1, 123163, Note_off_c, 10, 57, 127
1, 123165, Note_on_c, 12, 59, 127
1, 123165, Note_on_c, 4, 52, 127
1, 123623, Note_off_c, 4, 64, 127
1, 123625, Note_on_c, 2, 62, 127
1, 123853, Note_off_c, 10, 69, 127
1, 123855, Note_on_c, 8, 68, 127
1, 124081, Note_off_c, 2, 62, 127
1, 124083, Note_off_c, 8, 68, 127
1, 124083, Note_off_c, 4, 52, 127
1, 124083, Note_off_c, 12, 59, 127
1, 124083, Note_off_c, 4, 40, 127
1, 124085, Note_on_c, 10, 45, 127
1, 124085, Note_on_c, 4, 52, 127
1, 124085, Note_on_c, 10, 69, 127
1, 124085, Note_on_c, 1, 61, 127
1, 124085, Note_on_c, 4, 64, 127
1, 127096, Note_off_c, 4, 64, 127
1, 127096, Note_off_c, 1, 61, 127
1, 127096, Note_off_c, 10, 69, 127
1, 127096, Note_off_c, 4, 52, 127
1, 127096, Note_off_c, 10, 45, 127
1, 132096, End_track
0, 0, End_of_file
