0, 0, Header, 1, 4, 240
1, 0, Start_track
1, 0, Title_t, "untitled"
1, 0, SMPTE_offset, 96, 0, 3, 0, 0
1, 0, Time_signature, 3, 2, 24, 8
1, 0, Key_signature, 0, "major"
1, 0, Tempo, 1000000
1, 0, End_track
2, 0, Start_track
2, 0, MIDI_port, 0
2, 0, Title_t, "English Suite 1, 7. Sarabande"
2, 0, Program_c, 0, 0
2, 0, Control_c, 0, 7, 100
2, 0, Control_c, 0, 10, 64
2, 60, Note_on_c, 0, 64, 107
2, 90, Note_on_c, 0, 69, 107
2, 120, Note_on_c, 0, 73, 107
2, 177, Note_on_c, 0, 73, 0
2, 180, Note_on_c, 0, 74, 107
2, 186, Note_on_c, 0, 69, 0
2, 204, Note_on_c, 0, 74, 0
2, 204, Note_on_c, 0, 64, 0
2, 210, Note_on_c, 0, 76, 107
2, 234, Note_on_c, 0, 76, 0
2, 240, Note_on_c, 0, 74, 107
2, 336, Note_on_c, 0, 74, 0
2, 360, Note_on_c, 0, 73, 107
2, 456, Note_on_c, 0, 73, 0
2, 480, Note_on_c, 0, 71, 107
2, 495, Note_on_c, 0, 71, 0
2, 495, Note_on_c, 0, 73, 107
2, 510, Note_on_c, 0, 73, 0
2, 510, Note_on_c, 0, 71, 107
2, 567, Note_on_c, 0, 71, 0
2, 600, Note_on_c, 0, 69, 107
2, 696, Note_on_c, 0, 69, 0
2, 720, Note_on_c, 0, 76, 107
2, 720, Note_on_c, 0, 79, 107
2, 720, Note_on_c, 0, 69, 107
2, 816, Note_on_c, 0, 79, 0
2, 816, Note_on_c, 0, 76, 0
2, 840, Note_on_c, 0, 78, 107
2, 840, Note_on_c, 0, 74, 107
2, 912, Note_on_c, 0, 69, 0
2, 936, Note_on_c, 0, 74, 0
2, 936, Note_on_c, 0, 78, 0
2, 960, Note_on_c, 0, 78, 107
2, 960, Note_on_c, 0, 69, 107
2, 960, Note_on_c, 0, 74, 107
2, 1344, Note_on_c, 0, 74, 0
2, 1344, Note_on_c, 0, 69, 0
2, 1344, Note_on_c, 0, 78, 0
2, 1440, Note_on_c, 0, 76, 107
2, 1440, Note_on_c, 0, 74, 107
2, 1440, Note_on_c, 0, 71, 107
2, 1440, Note_on_c, 0, 81, 107
2, 1536, Note_on_c, 0, 81, 0
2, 1560, Note_on_c, 0, 80, 107
2, 1632, Note_on_c, 0, 76, 0
2, 1632, Note_on_c, 0, 74, 0
2, 1656, Note_on_c, 0, 80, 0
2, 1680, Note_on_c, 0, 71, 0
2, 1680, Note_on_c, 0, 73, 107
2, 1680, Note_on_c, 0, 69, 107
2, 1680, Note_on_c, 0, 76, 107
2, 1680, Note_on_c, 0, 81, 107
2, 1695, Note_on_c, 0, 81, 0
2, 1695, Note_on_c, 0, 80, 105
2, 1707, Note_on_c, 0, 80, 0
2, 1710, Note_on_c, 0, 78, 105
2, 1722, Note_on_c, 0, 78, 0
2, 1725, Note_on_c, 0, 80, 105
2, 1737, Note_on_c, 0, 80, 0
2, 1740, Note_on_c, 0, 81, 105
2, 1872, Note_on_c, 0, 76, 0
2, 1872, Note_on_c, 0, 73, 0
2, 1920, Note_on_c, 0, 69, 0
2, 1920, Note_on_c, 0, 71, 107
2, 1992, Note_on_c, 0, 81, 0
2, 2040, Note_on_c, 0, 83, 107
2, 2136, Note_on_c, 0, 83, 0
2, 2160, Note_on_c, 0, 71, 0
2, 2160, Note_on_c, 0, 71, 107
2, 2160, Note_on_c, 0, 80, 107
2, 2448, Note_on_c, 0, 80, 0
2, 2448, Note_on_c, 0, 71, 0
2, 2520, Note_on_c, 0, 78, 107
2, 2520, Note_on_c, 0, 69, 107
2, 2616, Note_on_c, 0, 69, 0
2, 2616, Note_on_c, 0, 78, 0
2, 2640, Note_on_c, 0, 76, 107
2, 2640, Note_on_c, 0, 68, 107
2, 2736, Note_on_c, 0, 76, 0
2, 2760, Note_on_c, 0, 74, 107
2, 2832, Note_on_c, 0, 68, 0
2, 2856, Note_on_c, 0, 74, 0
2, 2880, Note_on_c, 0, 64, 107
2, 2880, Note_on_c, 0, 73, 107
2, 2880, Note_on_c, 0, 69, 107
2, 3024, Note_on_c, 0, 73, 0
2, 3060, Note_on_c, 0, 74, 107
2, 3072, Note_on_c, 0, 69, 0
2, 3084, Note_on_c, 0, 74, 0
2, 3090, Note_on_c, 0, 76, 107
2, 3114, Note_on_c, 0, 76, 0
2, 3120, Note_on_c, 0, 74, 107
2, 3216, Note_on_c, 0, 74, 0
2, 3240, Note_on_c, 0, 73, 107
2, 3336, Note_on_c, 0, 73, 0
2, 3360, Note_on_c, 0, 71, 107
2, 3372, Note_on_c, 0, 71, 0
2, 3375, Note_on_c, 0, 73, 107
2, 3387, Note_on_c, 0, 73, 0
2, 3390, Note_on_c, 0, 71, 107
2, 3447, Note_on_c, 0, 71, 0
2, 3456, Note_on_c, 0, 64, 0
2, 3480, Note_on_c, 0, 69, 107
2, 3576, Note_on_c, 0, 69, 0
2, 3600, Note_on_c, 0, 73, 107
2, 3615, Note_on_c, 0, 76, 107
2, 3630, Note_on_c, 0, 79, 107
2, 3717, Note_on_c, 0, 79, 0
2, 3750, Note_on_c, 0, 78, 107
2, 3816, Note_on_c, 0, 76, 0
2, 3846, Note_on_c, 0, 78, 0
2, 3870, Note_on_c, 0, 74, 107
2, 3882, Note_on_c, 0, 74, 0
2, 3885, Note_on_c, 0, 76, 107
2, 3897, Note_on_c, 0, 76, 0
2, 3900, Note_on_c, 0, 74, 107
2, 3984, Note_on_c, 0, 73, 0
2, 4080, Note_on_c, 0, 71, 107
2, 4182, Note_on_c, 0, 74, 0
2, 4230, Note_on_c, 0, 76, 107
2, 4320, Note_on_c, 0, 74, 107
2, 4326, Note_on_c, 0, 76, 0
2, 4368, Note_on_c, 0, 74, 0
2, 4380, Note_on_c, 0, 73, 107
2, 4428, Note_on_c, 0, 73, 0
2, 4440, Note_on_c, 0, 74, 107
2, 4488, Note_on_c, 0, 74, 0
2, 4500, Note_on_c, 0, 76, 107
2, 4548, Note_on_c, 0, 76, 0
2, 4560, Note_on_c, 0, 75, 107
2, 4572, Note_on_c, 0, 75, 0
2, 4575, Note_on_c, 0, 76, 107
2, 4587, Note_on_c, 0, 76, 0
2, 4590, Note_on_c, 0, 75, 107
2, 4608, Note_on_c, 0, 71, 0
2, 4680, Note_on_c, 0, 69, 107
2, 4776, Note_on_c, 0, 69, 0
2, 4800, Note_on_c, 0, 73, 107
2, 4896, Note_on_c, 0, 73, 0
2, 4920, Note_on_c, 0, 71, 107
2, 4968, Note_on_c, 0, 75, 0
2, 5016, Note_on_c, 0, 71, 0
2, 5040, Note_on_c, 0, 69, 107
2, 5040, Note_on_c, 0, 76, 107
2, 5184, Note_on_c, 0, 76, 0
2, 5220, Note_on_c, 0, 78, 107
2, 5232, Note_on_c, 0, 69, 0
2, 5244, Note_on_c, 0, 78, 0
2, 5250, Note_on_c, 0, 75, 107
2, 5274, Note_on_c, 0, 75, 0
2, 5280, Note_on_c, 0, 76, 107
2, 5280, Note_on_c, 0, 68, 107
2, 5664, Note_on_c, 0, 68, 0
2, 5664, Note_on_c, 0, 76, 0
2, 5820, Note_on_c, 0, 64, 107
2, 5850, Note_on_c, 0, 69, 107
2, 5880, Note_on_c, 0, 73, 107
2, 5937, Note_on_c, 0, 73, 0
2, 5940, Note_on_c, 0, 74, 107
2, 5946, Note_on_c, 0, 69, 0
2, 5964, Note_on_c, 0, 74, 0
2, 5964, Note_on_c, 0, 64, 0
2, 5970, Note_on_c, 0, 76, 107
2, 5994, Note_on_c, 0, 76, 0
2, 6000, Note_on_c, 0, 74, 107
2, 6096, Note_on_c, 0, 74, 0
2, 6120, Note_on_c, 0, 73, 107
2, 6216, Note_on_c, 0, 73, 0
2, 6240, Note_on_c, 0, 71, 107
2, 6255, Note_on_c, 0, 71, 0
2, 6255, Note_on_c, 0, 73, 107
2, 6270, Note_on_c, 0, 73, 0
2, 6270, Note_on_c, 0, 71, 107
2, 6327, Note_on_c, 0, 71, 0
2, 6360, Note_on_c, 0, 69, 107
2, 6456, Note_on_c, 0, 69, 0
2, 6480, Note_on_c, 0, 76, 107
2, 6480, Note_on_c, 0, 79, 107
2, 6480, Note_on_c, 0, 69, 107
2, 6576, Note_on_c, 0, 79, 0
2, 6576, Note_on_c, 0, 76, 0
2, 6600, Note_on_c, 0, 78, 107
2, 6600, Note_on_c, 0, 74, 107
2, 6672, Note_on_c, 0, 69, 0
2, 6696, Note_on_c, 0, 74, 0
2, 6696, Note_on_c, 0, 78, 0
2, 6720, Note_on_c, 0, 78, 107
2, 6720, Note_on_c, 0, 69, 107
2, 6720, Note_on_c, 0, 74, 107
2, 7104, Note_on_c, 0, 74, 0
2, 7104, Note_on_c, 0, 69, 0
2, 7104, Note_on_c, 0, 78, 0
2, 7200, Note_on_c, 0, 76, 107
2, 7200, Note_on_c, 0, 74, 107
2, 7200, Note_on_c, 0, 71, 107
2, 7200, Note_on_c, 0, 81, 107
2, 7296, Note_on_c, 0, 81, 0
2, 7320, Note_on_c, 0, 80, 107
2, 7392, Note_on_c, 0, 76, 0
2, 7392, Note_on_c, 0, 74, 0
2, 7416, Note_on_c, 0, 80, 0
2, 7440, Note_on_c, 0, 71, 0
2, 7440, Note_on_c, 0, 73, 107
2, 7440, Note_on_c, 0, 69, 107
2, 7440, Note_on_c, 0, 76, 107
2, 7440, Note_on_c, 0, 81, 107
2, 7455, Note_on_c, 0, 81, 0
2, 7455, Note_on_c, 0, 80, 105
2, 7467, Note_on_c, 0, 80, 0
2, 7470, Note_on_c, 0, 78, 105
2, 7482, Note_on_c, 0, 78, 0
2, 7485, Note_on_c, 0, 80, 105
2, 7497, Note_on_c, 0, 80, 0
2, 7500, Note_on_c, 0, 81, 105
2, 7632, Note_on_c, 0, 76, 0
2, 7632, Note_on_c, 0, 73, 0
2, 7680, Note_on_c, 0, 69, 0
2, 7680, Note_on_c, 0, 71, 107
2, 7752, Note_on_c, 0, 81, 0
2, 7800, Note_on_c, 0, 83, 107
2, 7896, Note_on_c, 0, 83, 0
2, 7920, Note_on_c, 0, 71, 0
2, 7920, Note_on_c, 0, 71, 107
2, 7920, Note_on_c, 0, 80, 107
2, 8208, Note_on_c, 0, 80, 0
2, 8208, Note_on_c, 0, 71, 0
2, 8280, Note_on_c, 0, 78, 107
2, 8280, Note_on_c, 0, 69, 107
2, 8376, Note_on_c, 0, 69, 0
2, 8376, Note_on_c, 0, 78, 0
2, 8400, Note_on_c, 0, 76, 107
2, 8400, Note_on_c, 0, 68, 107
2, 8496, Note_on_c, 0, 76, 0
2, 8520, Note_on_c, 0, 74, 107
2, 8592, Note_on_c, 0, 68, 0
2, 8616, Note_on_c, 0, 74, 0
2, 8640, Note_on_c, 0, 64, 107
2, 8640, Note_on_c, 0, 73, 107
2, 8640, Note_on_c, 0, 69, 107
2, 8784, Note_on_c, 0, 73, 0
2, 8820, Note_on_c, 0, 74, 107
2, 8832, Note_on_c, 0, 69, 0
2, 8844, Note_on_c, 0, 74, 0
2, 8850, Note_on_c, 0, 76, 107
2, 8874, Note_on_c, 0, 76, 0
2, 8880, Note_on_c, 0, 74, 107
2, 8976, Note_on_c, 0, 74, 0
2, 9000, Note_on_c, 0, 73, 107
2, 9096, Note_on_c, 0, 73, 0
2, 9120, Note_on_c, 0, 71, 107
2, 9132, Note_on_c, 0, 71, 0
2, 9135, Note_on_c, 0, 73, 107
2, 9147, Note_on_c, 0, 73, 0
2, 9150, Note_on_c, 0, 71, 107
2, 9207, Note_on_c, 0, 71, 0
2, 9216, Note_on_c, 0, 64, 0
2, 9240, Note_on_c, 0, 69, 107
2, 9336, Note_on_c, 0, 69, 0
2, 9360, Note_on_c, 0, 73, 107
2, 9375, Note_on_c, 0, 76, 107
2, 9390, Note_on_c, 0, 79, 107
2, 9477, Note_on_c, 0, 79, 0
2, 9510, Note_on_c, 0, 78, 107
2, 9576, Note_on_c, 0, 76, 0
2, 9606, Note_on_c, 0, 78, 0
2, 9630, Note_on_c, 0, 74, 107
2, 9642, Note_on_c, 0, 74, 0
2, 9645, Note_on_c, 0, 76, 107
2, 9657, Note_on_c, 0, 76, 0
2, 9660, Note_on_c, 0, 74, 107
2, 9744, Note_on_c, 0, 73, 0
2, 9840, Note_on_c, 0, 71, 107
2, 9942, Note_on_c, 0, 74, 0
2, 9990, Note_on_c, 0, 76, 107
2, 10080, Note_on_c, 0, 74, 107
2, 10086, Note_on_c, 0, 76, 0
2, 10128, Note_on_c, 0, 74, 0
2, 10140, Note_on_c, 0, 73, 107
2, 10188, Note_on_c, 0, 73, 0
2, 10200, Note_on_c, 0, 74, 107
2, 10248, Note_on_c, 0, 74, 0
2, 10260, Note_on_c, 0, 76, 107
2, 10308, Note_on_c, 0, 76, 0
2, 10320, Note_on_c, 0, 75, 107
2, 10332, Note_on_c, 0, 75, 0
2, 10335, Note_on_c, 0, 76, 107
2, 10347, Note_on_c, 0, 76, 0
2, 10350, Note_on_c, 0, 75, 107
2, 10368, Note_on_c, 0, 71, 0
2, 10440, Note_on_c, 0, 69, 107
2, 10536, Note_on_c, 0, 69, 0
2, 10560, Note_on_c, 0, 73, 107
2, 10656, Note_on_c, 0, 73, 0
2, 10680, Note_on_c, 0, 71, 107
2, 10728, Note_on_c, 0, 75, 0
2, 10776, Note_on_c, 0, 71, 0
2, 10800, Note_on_c, 0, 69, 107
2, 10800, Note_on_c, 0, 76, 107
2, 10944, Note_on_c, 0, 76, 0
2, 10980, Note_on_c, 0, 78, 107
2, 10992, Note_on_c, 0, 69, 0
2, 11004, Note_on_c, 0, 78, 0
2, 11010, Note_on_c, 0, 75, 107
2, 11034, Note_on_c, 0, 75, 0
2, 11040, Note_on_c, 0, 76, 107
2, 11040, Note_on_c, 0, 68, 107
2, 11424, Note_on_c, 0, 68, 0
2, 11424, Note_on_c, 0, 76, 0
2, 11520, Note_on_c, 0, 64, 107
2, 11520, Note_on_c, 0, 68, 107
2, 11664, Note_on_c, 0, 68, 0
2, 11700, Note_on_c, 0, 69, 107
2, 11724, Note_on_c, 0, 69, 0
2, 11730, Note_on_c, 0, 71, 107
2, 11754, Note_on_c, 0, 71, 0
2, 11760, Note_on_c, 0, 69, 107
2, 11856, Note_on_c, 0, 69, 0
2, 11880, Note_on_c, 0, 68, 107
2, 11976, Note_on_c, 0, 68, 0
2, 12000, Note_on_c, 0, 66, 107
2, 12012, Note_on_c, 0, 66, 0
2, 12015, Note_on_c, 0, 68, 107
2, 12027, Note_on_c, 0, 68, 0
2, 12030, Note_on_c, 0, 66, 107
2, 12096, Note_on_c, 0, 64, 0
2, 12102, Note_on_c, 0, 66, 0
2, 12120, Note_on_c, 0, 64, 107
2, 12216, Note_on_c, 0, 64, 0
2, 12240, Note_on_c, 0, 67, 107
2, 12240, Note_on_c, 0, 76, 107
2, 12336, Note_on_c, 0, 76, 0
2, 12336, Note_on_c, 0, 67, 0
2, 12360, Note_on_c, 0, 74, 107
2, 12360, Note_on_c, 0, 66, 107
2, 12456, Note_on_c, 0, 66, 0
2, 12456, Note_on_c, 0, 74, 0
2, 12480, Note_on_c, 0, 67, 107
2, 12480, Note_on_c, 0, 76, 107
2, 12864, Note_on_c, 0, 76, 0
2, 12864, Note_on_c, 0, 67, 0
2, 12960, Note_on_c, 0, 76, 107
2, 12960, Note_on_c, 0, 66, 107
2, 13104, Note_on_c, 0, 76, 0
2, 13140, Note_on_c, 0, 78, 107
2, 13164, Note_on_c, 0, 78, 0
2, 13170, Note_on_c, 0, 79, 107
2, 13194, Note_on_c, 0, 79, 0
2, 13200, Note_on_c, 0, 78, 107
2, 13296, Note_on_c, 0, 78, 0
2, 13320, Note_on_c, 0, 76, 107
2, 13416, Note_on_c, 0, 76, 0
2, 13440, Note_on_c, 0, 74, 107
2, 13536, Note_on_c, 0, 74, 0
2, 13560, Note_on_c, 0, 73, 107
2, 13656, Note_on_c, 0, 73, 0
2, 13680, Note_on_c, 0, 74, 107
2, 13776, Note_on_c, 0, 74, 0
2, 13776, Note_on_c, 0, 66, 0
2, 13800, Note_on_c, 0, 70, 107
2, 13800, Note_on_c, 0, 73, 107
2, 13800, Note_on_c, 0, 64, 107
2, 13896, Note_on_c, 0, 64, 0
2, 13896, Note_on_c, 0, 73, 0
2, 13896, Note_on_c, 0, 70, 0
2, 13920, Note_on_c, 0, 66, 107
2, 13920, Note_on_c, 0, 74, 107
2, 13920, Note_on_c, 0, 71, 107
2, 14304, Note_on_c, 0, 71, 0
2, 14304, Note_on_c, 0, 74, 0
2, 14304, Note_on_c, 0, 66, 0
2, 14400, Note_on_c, 0, 67, 107
2, 14400, Note_on_c, 0, 72, 107
2, 14544, Note_on_c, 0, 72, 0
2, 14580, Note_on_c, 0, 74, 107
2, 14604, Note_on_c, 0, 74, 0
2, 14610, Note_on_c, 0, 76, 107
2, 14634, Note_on_c, 0, 76, 0
2, 14640, Note_on_c, 0, 74, 107
2, 14736, Note_on_c, 0, 74, 0
2, 14760, Note_on_c, 0, 72, 107
2, 14856, Note_on_c, 0, 72, 0
2, 14880, Note_on_c, 0, 71, 107
2, 14880, Note_on_c, 0, 66, 107
2, 14976, Note_on_c, 0, 71, 0
2, 14976, Note_on_c, 0, 67, 0
2, 15000, Note_on_c, 0, 70, 107
2, 15072, Note_on_c, 0, 66, 0
2, 15096, Note_on_c, 0, 70, 0
2, 15120, Note_on_c, 0, 71, 107
2, 15120, Note_on_c, 0, 64, 107
2, 15264, Note_on_c, 0, 64, 0
2, 15300, Note_on_c, 0, 66, 107
2, 15324, Note_on_c, 0, 66, 0
2, 15330, Note_on_c, 0, 67, 107
2, 15354, Note_on_c, 0, 67, 0
2, 15360, Note_on_c, 0, 66, 107
2, 15456, Note_on_c, 0, 66, 0
2, 15480, Note_on_c, 0, 64, 107
2, 15576, Note_on_c, 0, 64, 0
2, 15600, Note_on_c, 0, 62, 107
2, 15696, Note_on_c, 0, 62, 0
2, 15720, Note_on_c, 0, 61, 107
2, 15816, Note_on_c, 0, 61, 0
2, 15840, Note_on_c, 0, 62, 107
2, 15984, Note_on_c, 0, 62, 0
2, 15984, Note_on_c, 0, 71, 0
2, 16020, Note_on_c, 0, 73, 107
2, 16020, Note_on_c, 0, 64, 107
2, 16044, Note_on_c, 0, 64, 0
2, 16044, Note_on_c, 0, 73, 0
2, 16050, Note_on_c, 0, 74, 107
2, 16050, Note_on_c, 0, 66, 107
2, 16074, Note_on_c, 0, 66, 0
2, 16074, Note_on_c, 0, 74, 0
2, 16080, Note_on_c, 0, 66, 107
2, 16080, Note_on_c, 0, 61, 107
2, 16224, Note_on_c, 0, 61, 0
2, 16224, Note_on_c, 0, 66, 0
2, 16260, Note_on_c, 0, 64, 107
2, 16260, Note_on_c, 0, 71, 107
2, 16284, Note_on_c, 0, 64, 0
2, 16290, Note_on_c, 0, 62, 107
2, 16308, Note_on_c, 0, 71, 0
2, 16314, Note_on_c, 0, 62, 0
2, 16320, Note_on_c, 0, 70, 107
2, 16320, Note_on_c, 0, 64, 107
2, 16464, Note_on_c, 0, 70, 0
2, 16500, Note_on_c, 0, 74, 107
2, 16548, Note_on_c, 0, 74, 0
2, 16560, Note_on_c, 0, 71, 107
2, 16656, Note_on_c, 0, 64, 0
2, 16680, Note_on_c, 0, 67, 107
2, 16728, Note_on_c, 0, 67, 0
2, 16740, Note_on_c, 0, 66, 107
2, 16752, Note_on_c, 0, 71, 0
2, 16788, Note_on_c, 0, 66, 0
2, 16800, Note_on_c, 0, 71, 107
2, 16800, Note_on_c, 0, 62, 107
2, 17184, Note_on_c, 0, 62, 0
2, 17280, Note_on_c, 0, 61, 107
2, 17424, Note_on_c, 0, 71, 0
2, 17460, Note_on_c, 0, 73, 107
2, 17484, Note_on_c, 0, 73, 0
2, 17490, Note_on_c, 0, 74, 107
2, 17514, Note_on_c, 0, 74, 0
2, 17520, Note_on_c, 0, 73, 107
2, 17616, Note_on_c, 0, 73, 0
2, 17640, Note_on_c, 0, 71, 107
2, 17736, Note_on_c, 0, 71, 0
2, 17760, Note_on_c, 0, 69, 107
2, 17772, Note_on_c, 0, 69, 0
2, 17775, Note_on_c, 0, 71, 107
2, 17787, Note_on_c, 0, 71, 0
2, 17790, Note_on_c, 0, 69, 107
2, 17862, Note_on_c, 0, 69, 0
2, 17880, Note_on_c, 0, 68, 107
2, 17976, Note_on_c, 0, 68, 0
2, 18000, Note_on_c, 0, 69, 107
2, 18048, Note_on_c, 0, 69, 0
2, 18060, Note_on_c, 0, 68, 107
2, 18108, Note_on_c, 0, 68, 0
2, 18120, Note_on_c, 0, 66, 107
2, 18168, Note_on_c, 0, 66, 0
2, 18180, Note_on_c, 0, 65, 107
2, 18192, Note_on_c, 0, 61, 0
2, 18228, Note_on_c, 0, 65, 0
2, 18240, Note_on_c, 0, 66, 107
2, 18288, Note_on_c, 0, 66, 0
2, 18300, Note_on_c, 0, 68, 107
2, 18348, Note_on_c, 0, 68, 0
2, 18360, Note_on_c, 0, 69, 107
2, 18408, Note_on_c, 0, 69, 0
2, 18420, Note_on_c, 0, 71, 107
2, 18468, Note_on_c, 0, 71, 0
2, 18480, Note_on_c, 0, 73, 107
2, 18528, Note_on_c, 0, 73, 0
2, 18540, Note_on_c, 0, 74, 107
2, 18588, Note_on_c, 0, 74, 0
2, 18600, Note_on_c, 0, 76, 107
2, 18600, Note_on_c, 0, 76, 107
2, 18648, Note_on_c, 0, 76, 0
2, 18660, Note_on_c, 0, 78, 107
2, 18708, Note_on_c, 0, 78, 0
2, 18720, Note_on_c, 0, 79, 107
2, 18864, Note_on_c, 0, 79, 0
2, 18900, Note_on_c, 0, 81, 107
2, 18924, Note_on_c, 0, 81, 0
2, 18930, Note_on_c, 0, 83, 107
2, 18954, Note_on_c, 0, 83, 0
2, 18960, Note_on_c, 0, 81, 107
2, 19056, Note_on_c, 0, 81, 0
2, 19080, Note_on_c, 0, 79, 107
2, 19176, Note_on_c, 0, 79, 0
2, 19200, Note_on_c, 0, 78, 107
2, 19212, Note_on_c, 0, 78, 0
2, 19215, Note_on_c, 0, 79, 107
2, 19227, Note_on_c, 0, 79, 0
2, 19230, Note_on_c, 0, 78, 107
2, 19296, Note_on_c, 0, 76, 0
2, 19302, Note_on_c, 0, 78, 0
2, 19320, Note_on_c, 0, 76, 107
2, 19320, Note_on_c, 0, 79, 107
2, 19416, Note_on_c, 0, 79, 0
2, 19416, Note_on_c, 0, 76, 0
2, 19440, Note_on_c, 0, 79, 107
2, 19440, Note_on_c, 0, 76, 107
2, 19536, Note_on_c, 0, 76, 0
2, 19536, Note_on_c, 0, 79, 0
2, 19560, Note_on_c, 0, 74, 107
2, 19560, Note_on_c, 0, 78, 107
2, 19656, Note_on_c, 0, 78, 0
2, 19656, Note_on_c, 0, 74, 0
2, 19680, Note_on_c, 0, 78, 107
2, 19680, Note_on_c, 0, 74, 107
2, 20064, Note_on_c, 0, 74, 0
2, 20064, Note_on_c, 0, 78, 0
2, 20160, Note_on_c, 0, 71, 107
2, 20160, Note_on_c, 0, 80, 107
2, 20160, Note_on_c, 0, 76, 107
2, 20273, Note_on_c, 0, 80, 0
2, 20340, Note_on_c, 0, 81, 107
2, 20352, Note_on_c, 0, 71, 0
2, 20364, Note_on_c, 0, 81, 0
2, 20370, Note_on_c, 0, 83, 107
2, 20394, Note_on_c, 0, 83, 0
2, 20400, Note_on_c, 0, 64, 107
2, 20400, Note_on_c, 0, 81, 107
2, 20496, Note_on_c, 0, 81, 0
2, 20520, Note_on_c, 0, 80, 107
2, 20544, Note_on_c, 0, 76, 0
2, 20592, Note_on_c, 0, 64, 0
2, 20616, Note_on_c, 0, 80, 0
2, 20640, Note_on_c, 0, 78, 107
2, 20640, Note_on_c, 0, 69, 107
2, 20640, Note_on_c, 0, 69, 107
2, 20652, Note_on_c, 0, 78, 0
2, 20655, Note_on_c, 0, 80, 107
2, 20667, Note_on_c, 0, 80, 0
2, 20670, Note_on_c, 0, 78, 107
2, 20736, Note_on_c, 0, 69, 0
2, 20742, Note_on_c, 0, 78, 0
2, 20760, Note_on_c, 0, 68, 107
2, 20760, Note_on_c, 0, 76, 107
2, 20832, Note_on_c, 0, 69, 0
2, 20856, Note_on_c, 0, 76, 0
2, 20856, Note_on_c, 0, 68, 0
2, 20880, Note_on_c, 0, 74, 107
2, 20880, Note_on_c, 0, 66, 107
2, 20880, Note_on_c, 0, 71, 107
2, 21024, Note_on_c, 0, 74, 0
2, 21060, Note_on_c, 0, 76, 107
2, 21072, Note_on_c, 0, 66, 0
2, 21084, Note_on_c, 0, 76, 0
2, 21090, Note_on_c, 0, 78, 107
2, 21114, Note_on_c, 0, 78, 0
2, 21120, Note_on_c, 0, 59, 107
2, 21120, Note_on_c, 0, 76, 107
2, 21216, Note_on_c, 0, 76, 0
2, 21240, Note_on_c, 0, 74, 107
2, 21264, Note_on_c, 0, 71, 0
2, 21312, Note_on_c, 0, 59, 0
2, 21336, Note_on_c, 0, 74, 0
2, 21360, Note_on_c, 0, 68, 107
2, 21360, Note_on_c, 0, 64, 107
2, 21360, Note_on_c, 0, 73, 107
2, 21372, Note_on_c, 0, 73, 0
2, 21375, Note_on_c, 0, 74, 107
2, 21387, Note_on_c, 0, 74, 0
2, 21390, Note_on_c, 0, 73, 107
2, 21438, Note_on_c, 0, 73, 0
2, 21456, Note_on_c, 0, 64, 0
2, 21480, Note_on_c, 0, 71, 107
2, 21480, Note_on_c, 0, 62, 107
2, 21552, Note_on_c, 0, 68, 0
2, 21576, Note_on_c, 0, 62, 0
2, 21576, Note_on_c, 0, 71, 0
2, 21600, Note_on_c, 0, 66, 107
2, 21600, Note_on_c, 0, 61, 107
2, 21600, Note_on_c, 0, 69, 107
2, 21744, Note_on_c, 0, 69, 0
2, 21780, Note_on_c, 0, 71, 107
2, 21792, Note_on_c, 0, 61, 0
2, 21804, Note_on_c, 0, 71, 0
2, 21810, Note_on_c, 0, 73, 107
2, 21834, Note_on_c, 0, 73, 0
2, 21840, Note_on_c, 0, 71, 107
2, 21840, Note_on_c, 0, 54, 107
2, 21936, Note_on_c, 0, 71, 0
2, 21960, Note_on_c, 0, 69, 107
2, 21984, Note_on_c, 0, 66, 0
2, 22032, Note_on_c, 0, 54, 0
2, 22056, Note_on_c, 0, 69, 0
2, 22080, Note_on_c, 0, 63, 107
2, 22080, Note_on_c, 0, 68, 107
2, 22080, Note_on_c, 0, 59, 107
2, 22128, Note_on_c, 0, 68, 0
2, 22140, Note_on_c, 0, 69, 107
2, 22188, Note_on_c, 0, 69, 0
2, 22200, Note_on_c, 0, 68, 107
2, 22248, Note_on_c, 0, 68, 0
2, 22260, Note_on_c, 0, 69, 107
2, 22272, Note_on_c, 0, 59, 0
2, 22272, Note_on_c, 0, 63, 0
2, 22308, Note_on_c, 0, 69, 0
2, 22320, Note_on_c, 0, 64, 107
2, 22320, Note_on_c, 0, 68, 107
2, 22320, Note_on_c, 0, 59, 107
2, 22332, Note_on_c, 0, 68, 0
2, 22335, Note_on_c, 0, 69, 107
2, 22347, Note_on_c, 0, 69, 0
2, 22350, Note_on_c, 0, 68, 107
2, 22656, Note_on_c, 0, 68, 0
2, 22656, Note_on_c, 0, 59, 0
2, 22656, Note_on_c, 0, 64, 0
2, 22680, Note_on_c, 0, 66, 107
2, 22776, Note_on_c, 0, 66, 0
2, 22800, Note_on_c, 0, 64, 107
2, 22992, Note_on_c, 0, 64, 0
2, 23040, Note_on_c, 0, 73, 107
2, 23052, Note_on_c, 0, 73, 0
2, 23055, Note_on_c, 0, 71, 107
2, 23067, Note_on_c, 0, 71, 0
2, 23070, Note_on_c, 0, 73, 107
2, 23196, Note_on_c, 0, 73, 0
2, 23220, Note_on_c, 0, 74, 107
2, 23244, Note_on_c, 0, 74, 0
2, 23250, Note_on_c, 0, 76, 107
2, 23274, Note_on_c, 0, 76, 0
2, 23280, Note_on_c, 0, 74, 107
2, 23376, Note_on_c, 0, 74, 0
2, 23400, Note_on_c, 0, 73, 107
2, 23496, Note_on_c, 0, 73, 0
2, 23520, Note_on_c, 0, 71, 107
2, 23532, Note_on_c, 0, 71, 0
2, 23535, Note_on_c, 0, 73, 107
2, 23547, Note_on_c, 0, 73, 0
2, 23550, Note_on_c, 0, 71, 107
2, 23622, Note_on_c, 0, 71, 0
2, 23640, Note_on_c, 0, 69, 107
2, 23736, Note_on_c, 0, 69, 0
2, 23760, Note_on_c, 0, 69, 107
2, 23760, Note_on_c, 0, 76, 107
2, 23760, Note_on_c, 0, 79, 107
2, 23856, Note_on_c, 0, 79, 0
2, 23856, Note_on_c, 0, 76, 0
2, 23880, Note_on_c, 0, 74, 107
2, 23880, Note_on_c, 0, 78, 107
2, 23952, Note_on_c, 0, 69, 0
2, 23976, Note_on_c, 0, 78, 0
2, 23976, Note_on_c, 0, 74, 0
2, 24000, Note_on_c, 0, 69, 107
2, 24000, Note_on_c, 0, 76, 107
2, 24000, Note_on_c, 0, 79, 107
2, 24384, Note_on_c, 0, 79, 0
2, 24384, Note_on_c, 0, 76, 0
2, 24384, Note_on_c, 0, 69, 0
2, 24480, Note_on_c, 0, 74, 107
2, 24480, Note_on_c, 0, 78, 107
2, 24495, Note_on_c, 0, 78, 0
2, 24495, Note_on_c, 0, 76, 107
2, 24507, Note_on_c, 0, 76, 0
2, 24510, Note_on_c, 0, 78, 107
2, 24636, Note_on_c, 0, 78, 0
2, 24660, Note_on_c, 0, 80, 107
2, 24672, Note_on_c, 0, 74, 0
2, 24684, Note_on_c, 0, 80, 0
2, 24690, Note_on_c, 0, 81, 107
2, 24714, Note_on_c, 0, 81, 0
2, 24720, Note_on_c, 0, 80, 107
2, 24816, Note_on_c, 0, 80, 0
2, 24840, Note_on_c, 0, 78, 107
2, 24936, Note_on_c, 0, 78, 0
2, 24960, Note_on_c, 0, 76, 107
2, 24972, Note_on_c, 0, 76, 0
2, 24975, Note_on_c, 0, 78, 107
2, 24987, Note_on_c, 0, 78, 0
2, 24990, Note_on_c, 0, 76, 107
2, 25062, Note_on_c, 0, 76, 0
2, 25080, Note_on_c, 0, 74, 107
2, 25176, Note_on_c, 0, 74, 0
2, 25200, Note_on_c, 0, 76, 107
2, 25200, Note_on_c, 0, 83, 107
2, 25200, Note_on_c, 0, 74, 107
2, 25296, Note_on_c, 0, 74, 0
2, 25296, Note_on_c, 0, 83, 0
2, 25320, Note_on_c, 0, 73, 107
2, 25320, Note_on_c, 0, 81, 107
2, 25416, Note_on_c, 0, 81, 0
2, 25416, Note_on_c, 0, 73, 0
2, 25440, Note_on_c, 0, 83, 107
2, 25440, Note_on_c, 0, 74, 107
2, 25824, Note_on_c, 0, 76, 0
2, 26016, Note_on_c, 0, 83, 0
2, 26040, Note_on_c, 0, 80, 107
2, 26064, Note_on_c, 0, 74, 0
2, 26100, Note_on_c, 0, 76, 107
2, 26124, Note_on_c, 0, 76, 0
2, 26130, Note_on_c, 0, 77, 107
2, 26136, Note_on_c, 0, 80, 0
2, 26154, Note_on_c, 0, 77, 0
2, 26160, Note_on_c, 0, 76, 107
2, 26160, Note_on_c, 0, 81, 107
2, 26256, Note_on_c, 0, 76, 0
2, 26280, Note_on_c, 0, 74, 107
2, 26376, Note_on_c, 0, 74, 0
2, 26400, Note_on_c, 0, 72, 107
2, 26412, Note_on_c, 0, 72, 0
2, 26415, Note_on_c, 0, 74, 107
2, 26427, Note_on_c, 0, 74, 0
2, 26430, Note_on_c, 0, 72, 107
2, 26502, Note_on_c, 0, 72, 0
2, 26520, Note_on_c, 0, 71, 107
2, 26616, Note_on_c, 0, 71, 0
2, 26640, Note_on_c, 0, 72, 107
2, 26736, Note_on_c, 0, 81, 0
2, 26760, Note_on_c, 0, 80, 107
2, 26784, Note_on_c, 0, 72, 0
2, 26820, Note_on_c, 0, 74, 107
2, 26844, Note_on_c, 0, 74, 0
2, 26850, Note_on_c, 0, 76, 107
2, 26856, Note_on_c, 0, 80, 0
2, 26874, Note_on_c, 0, 76, 0
2, 26880, Note_on_c, 0, 74, 107
2, 26880, Note_on_c, 0, 81, 107
2, 26976, Note_on_c, 0, 74, 0
2, 27000, Note_on_c, 0, 72, 107
2, 27096, Note_on_c, 0, 72, 0
2, 27120, Note_on_c, 0, 71, 107
2, 27132, Note_on_c, 0, 71, 0
2, 27135, Note_on_c, 0, 72, 107
2, 27147, Note_on_c, 0, 72, 0
2, 27150, Note_on_c, 0, 71, 107
2, 27222, Note_on_c, 0, 71, 0
2, 27240, Note_on_c, 0, 69, 107
2, 27336, Note_on_c, 0, 69, 0
2, 27360, Note_on_c, 0, 77, 107
2, 27456, Note_on_c, 0, 77, 0
2, 27480, Note_on_c, 0, 76, 107
2, 27576, Note_on_c, 0, 76, 0
2, 27600, Note_on_c, 0, 72, 107
2, 27612, Note_on_c, 0, 72, 0
2, 27615, Note_on_c, 0, 71, 107
2, 27627, Note_on_c, 0, 71, 0
2, 27630, Note_on_c, 0, 72, 107
2, 27744, Note_on_c, 0, 81, 0
2, 27816, Note_on_c, 0, 72, 0
2, 27840, Note_on_c, 0, 80, 107
2, 27840, Note_on_c, 0, 71, 107
2, 27936, Note_on_c, 0, 71, 0
2, 27960, Note_on_c, 0, 69, 107
2, 28032, Note_on_c, 0, 80, 0
2, 28056, Note_on_c, 0, 69, 0
2, 28080, Note_on_c, 0, 81, 107
2, 28080, Note_on_c, 0, 69, 107
2, 28272, Note_on_c, 0, 69, 0
2, 28272, Note_on_c, 0, 81, 0
2, 28320, Note_on_c, 0, 76, 107
2, 28320, Note_on_c, 0, 73, 107
2, 28320, Note_on_c, 0, 81, 107
2, 28704, Note_on_c, 0, 81, 0
2, 28770, Note_on_c, 0, 73, 0
2, 28770, Note_on_c, 0, 76, 0
2, 28800, Note_on_c, 0, 64, 107
2, 28800, Note_on_c, 0, 68, 107
2, 28944, Note_on_c, 0, 68, 0
2, 28980, Note_on_c, 0, 69, 107
2, 29004, Note_on_c, 0, 69, 0
2, 29010, Note_on_c, 0, 71, 107
2, 29034, Note_on_c, 0, 71, 0
2, 29040, Note_on_c, 0, 69, 107
2, 29136, Note_on_c, 0, 69, 0
2, 29160, Note_on_c, 0, 68, 107
2, 29256, Note_on_c, 0, 68, 0
2, 29280, Note_on_c, 0, 66, 107
2, 29292, Note_on_c, 0, 66, 0
2, 29295, Note_on_c, 0, 68, 107
2, 29307, Note_on_c, 0, 68, 0
2, 29310, Note_on_c, 0, 66, 107
2, 29376, Note_on_c, 0, 64, 0
2, 29382, Note_on_c, 0, 66, 0
2, 29400, Note_on_c, 0, 64, 107
2, 29496, Note_on_c, 0, 64, 0
2, 29520, Note_on_c, 0, 67, 107
2, 29520, Note_on_c, 0, 76, 107
2, 29616, Note_on_c, 0, 76, 0
2, 29616, Note_on_c, 0, 67, 0
2, 29640, Note_on_c, 0, 74, 107
2, 29640, Note_on_c, 0, 66, 107
2, 29736, Note_on_c, 0, 66, 0
2, 29736, Note_on_c, 0, 74, 0
2, 29760, Note_on_c, 0, 67, 107
2, 29760, Note_on_c, 0, 76, 107
2, 30144, Note_on_c, 0, 76, 0
2, 30144, Note_on_c, 0, 67, 0
2, 30240, Note_on_c, 0, 76, 107
2, 30240, Note_on_c, 0, 66, 107
2, 30384, Note_on_c, 0, 76, 0
2, 30420, Note_on_c, 0, 78, 107
2, 30444, Note_on_c, 0, 78, 0
2, 30450, Note_on_c, 0, 79, 107
2, 30474, Note_on_c, 0, 79, 0
2, 30480, Note_on_c, 0, 78, 107
2, 30576, Note_on_c, 0, 78, 0
2, 30600, Note_on_c, 0, 76, 107
2, 30696, Note_on_c, 0, 76, 0
2, 30720, Note_on_c, 0, 74, 107
2, 30816, Note_on_c, 0, 74, 0
2, 30840, Note_on_c, 0, 73, 107
2, 30936, Note_on_c, 0, 73, 0
2, 30960, Note_on_c, 0, 74, 107
2, 31056, Note_on_c, 0, 74, 0
2, 31056, Note_on_c, 0, 66, 0
2, 31080, Note_on_c, 0, 70, 107
2, 31080, Note_on_c, 0, 73, 107
2, 31080, Note_on_c, 0, 64, 107
2, 31176, Note_on_c, 0, 64, 0
2, 31176, Note_on_c, 0, 73, 0
2, 31176, Note_on_c, 0, 70, 0
2, 31200, Note_on_c, 0, 66, 107
2, 31200, Note_on_c, 0, 74, 107
2, 31200, Note_on_c, 0, 71, 107
2, 31584, Note_on_c, 0, 71, 0
2, 31584, Note_on_c, 0, 74, 0
2, 31584, Note_on_c, 0, 66, 0
2, 31680, Note_on_c, 0, 67, 107
2, 31680, Note_on_c, 0, 72, 107
2, 31824, Note_on_c, 0, 72, 0
2, 31860, Note_on_c, 0, 74, 107
2, 31884, Note_on_c, 0, 74, 0
2, 31890, Note_on_c, 0, 76, 107
2, 31914, Note_on_c, 0, 76, 0
2, 31920, Note_on_c, 0, 74, 107
2, 32016, Note_on_c, 0, 74, 0
2, 32040, Note_on_c, 0, 72, 107
2, 32136, Note_on_c, 0, 72, 0
2, 32160, Note_on_c, 0, 71, 107
2, 32160, Note_on_c, 0, 66, 107
2, 32256, Note_on_c, 0, 71, 0
2, 32256, Note_on_c, 0, 67, 0
2, 32280, Note_on_c, 0, 70, 107
2, 32352, Note_on_c, 0, 66, 0
2, 32376, Note_on_c, 0, 70, 0
2, 32400, Note_on_c, 0, 71, 107
2, 32400, Note_on_c, 0, 64, 107
2, 32544, Note_on_c, 0, 64, 0
2, 32580, Note_on_c, 0, 66, 107
2, 32604, Note_on_c, 0, 66, 0
2, 32610, Note_on_c, 0, 67, 107
2, 32634, Note_on_c, 0, 67, 0
2, 32640, Note_on_c, 0, 66, 107
2, 32736, Note_on_c, 0, 66, 0
2, 32760, Note_on_c, 0, 64, 107
2, 32856, Note_on_c, 0, 64, 0
2, 32880, Note_on_c, 0, 62, 107
2, 32976, Note_on_c, 0, 62, 0
2, 33000, Note_on_c, 0, 61, 107
2, 33096, Note_on_c, 0, 61, 0
2, 33120, Note_on_c, 0, 62, 107
2, 33264, Note_on_c, 0, 62, 0
2, 33264, Note_on_c, 0, 71, 0
2, 33300, Note_on_c, 0, 73, 107
2, 33300, Note_on_c, 0, 64, 107
2, 33324, Note_on_c, 0, 64, 0
2, 33324, Note_on_c, 0, 73, 0
2, 33330, Note_on_c, 0, 74, 107
2, 33330, Note_on_c, 0, 66, 107
2, 33354, Note_on_c, 0, 66, 0
2, 33354, Note_on_c, 0, 74, 0
2, 33360, Note_on_c, 0, 66, 107
2, 33360, Note_on_c, 0, 61, 107
2, 33504, Note_on_c, 0, 61, 0
2, 33504, Note_on_c, 0, 66, 0
2, 33540, Note_on_c, 0, 64, 107
2, 33540, Note_on_c, 0, 71, 107
2, 33564, Note_on_c, 0, 64, 0
2, 33570, Note_on_c, 0, 62, 107
2, 33588, Note_on_c, 0, 71, 0
2, 33594, Note_on_c, 0, 62, 0
2, 33600, Note_on_c, 0, 70, 107
2, 33600, Note_on_c, 0, 64, 107
2, 33744, Note_on_c, 0, 70, 0
2, 33780, Note_on_c, 0, 74, 107
2, 33828, Note_on_c, 0, 74, 0
2, 33840, Note_on_c, 0, 71, 107
2, 33936, Note_on_c, 0, 64, 0
2, 33960, Note_on_c, 0, 67, 107
2, 34008, Note_on_c, 0, 67, 0
2, 34020, Note_on_c, 0, 66, 107
2, 34032, Note_on_c, 0, 71, 0
2, 34068, Note_on_c, 0, 66, 0
2, 34080, Note_on_c, 0, 71, 107
2, 34080, Note_on_c, 0, 62, 107
2, 34464, Note_on_c, 0, 62, 0
2, 34560, Note_on_c, 0, 61, 107
2, 34704, Note_on_c, 0, 71, 0
2, 34740, Note_on_c, 0, 73, 107
2, 34764, Note_on_c, 0, 73, 0
2, 34770, Note_on_c, 0, 74, 107
2, 34794, Note_on_c, 0, 74, 0
2, 34800, Note_on_c, 0, 73, 107
2, 34896, Note_on_c, 0, 73, 0
2, 34920, Note_on_c, 0, 71, 107
2, 35016, Note_on_c, 0, 71, 0
2, 35040, Note_on_c, 0, 69, 107
2, 35052, Note_on_c, 0, 69, 0
2, 35055, Note_on_c, 0, 71, 107
2, 35067, Note_on_c, 0, 71, 0
2, 35070, Note_on_c, 0, 69, 107
2, 35142, Note_on_c, 0, 69, 0
2, 35160, Note_on_c, 0, 68, 107
2, 35256, Note_on_c, 0, 68, 0
2, 35280, Note_on_c, 0, 69, 107
2, 35328, Note_on_c, 0, 69, 0
2, 35340, Note_on_c, 0, 68, 107
2, 35388, Note_on_c, 0, 68, 0
2, 35400, Note_on_c, 0, 66, 107
2, 35448, Note_on_c, 0, 66, 0
2, 35460, Note_on_c, 0, 65, 107
2, 35472, Note_on_c, 0, 61, 0
2, 35508, Note_on_c, 0, 65, 0
2, 35520, Note_on_c, 0, 66, 107
2, 35568, Note_on_c, 0, 66, 0
2, 35580, Note_on_c, 0, 68, 107
2, 35628, Note_on_c, 0, 68, 0
2, 35640, Note_on_c, 0, 69, 107
2, 35688, Note_on_c, 0, 69, 0
2, 35700, Note_on_c, 0, 71, 107
2, 35748, Note_on_c, 0, 71, 0
2, 35760, Note_on_c, 0, 73, 107
2, 35808, Note_on_c, 0, 73, 0
2, 35820, Note_on_c, 0, 74, 107
2, 35868, Note_on_c, 0, 74, 0
2, 35880, Note_on_c, 0, 76, 107
2, 35880, Note_on_c, 0, 76, 107
2, 35928, Note_on_c, 0, 76, 0
2, 35940, Note_on_c, 0, 78, 107
2, 35988, Note_on_c, 0, 78, 0
2, 36000, Note_on_c, 0, 79, 107
2, 36144, Note_on_c, 0, 79, 0
2, 36180, Note_on_c, 0, 81, 107
2, 36204, Note_on_c, 0, 81, 0
2, 36210, Note_on_c, 0, 83, 107
2, 36234, Note_on_c, 0, 83, 0
2, 36240, Note_on_c, 0, 81, 107
2, 36336, Note_on_c, 0, 81, 0
2, 36360, Note_on_c, 0, 79, 107
2, 36456, Note_on_c, 0, 79, 0
2, 36480, Note_on_c, 0, 78, 107
2, 36492, Note_on_c, 0, 78, 0
2, 36495, Note_on_c, 0, 79, 107
2, 36507, Note_on_c, 0, 79, 0
2, 36510, Note_on_c, 0, 78, 107
2, 36576, Note_on_c, 0, 76, 0
2, 36582, Note_on_c, 0, 78, 0
2, 36600, Note_on_c, 0, 76, 107
2, 36600, Note_on_c, 0, 79, 107
2, 36696, Note_on_c, 0, 79, 0
2, 36696, Note_on_c, 0, 76, 0
2, 36720, Note_on_c, 0, 79, 107
2, 36720, Note_on_c, 0, 76, 107
2, 36816, Note_on_c, 0, 76, 0
2, 36816, Note_on_c, 0, 79, 0
2, 36840, Note_on_c, 0, 74, 107
2, 36840, Note_on_c, 0, 78, 107
2, 36936, Note_on_c, 0, 78, 0
2, 36936, Note_on_c, 0, 74, 0
2, 36960, Note_on_c, 0, 78, 107
2, 36960, Note_on_c, 0, 74, 107
2, 37344, Note_on_c, 0, 74, 0
2, 37344, Note_on_c, 0, 78, 0
2, 37440, Note_on_c, 0, 71, 107
2, 37440, Note_on_c, 0, 80, 107
2, 37440, Note_on_c, 0, 76, 107
2, 37553, Note_on_c, 0, 80, 0
2, 37620, Note_on_c, 0, 81, 107
2, 37632, Note_on_c, 0, 71, 0
2, 37644, Note_on_c, 0, 81, 0
2, 37650, Note_on_c, 0, 83, 107
2, 37674, Note_on_c, 0, 83, 0
2, 37680, Note_on_c, 0, 64, 107
2, 37680, Note_on_c, 0, 81, 107
2, 37776, Note_on_c, 0, 81, 0
2, 37800, Note_on_c, 0, 80, 107
2, 37824, Note_on_c, 0, 76, 0
2, 37872, Note_on_c, 0, 64, 0
2, 37896, Note_on_c, 0, 80, 0
2, 37920, Note_on_c, 0, 78, 107
2, 37920, Note_on_c, 0, 69, 107
2, 37920, Note_on_c, 0, 69, 107
2, 37932, Note_on_c, 0, 78, 0
2, 37935, Note_on_c, 0, 80, 107
2, 37947, Note_on_c, 0, 80, 0
2, 37950, Note_on_c, 0, 78, 107
2, 38016, Note_on_c, 0, 69, 0
2, 38022, Note_on_c, 0, 78, 0
2, 38040, Note_on_c, 0, 68, 107
2, 38040, Note_on_c, 0, 76, 107
2, 38112, Note_on_c, 0, 69, 0
2, 38136, Note_on_c, 0, 76, 0
2, 38136, Note_on_c, 0, 68, 0
2, 38160, Note_on_c, 0, 74, 107
2, 38160, Note_on_c, 0, 66, 107
2, 38160, Note_on_c, 0, 71, 107
2, 38304, Note_on_c, 0, 74, 0
2, 38340, Note_on_c, 0, 76, 107
2, 38352, Note_on_c, 0, 66, 0
2, 38364, Note_on_c, 0, 76, 0
2, 38370, Note_on_c, 0, 78, 107
2, 38394, Note_on_c, 0, 78, 0
2, 38400, Note_on_c, 0, 59, 107
2, 38400, Note_on_c, 0, 76, 107
2, 38496, Note_on_c, 0, 76, 0
2, 38520, Note_on_c, 0, 74, 107
2, 38544, Note_on_c, 0, 71, 0
2, 38592, Note_on_c, 0, 59, 0
2, 38616, Note_on_c, 0, 74, 0
2, 38640, Note_on_c, 0, 68, 107
2, 38640, Note_on_c, 0, 64, 107
2, 38640, Note_on_c, 0, 73, 107
2, 38652, Note_on_c, 0, 73, 0
2, 38655, Note_on_c, 0, 74, 107
2, 38667, Note_on_c, 0, 74, 0
2, 38670, Note_on_c, 0, 73, 107
2, 38718, Note_on_c, 0, 73, 0
2, 38736, Note_on_c, 0, 64, 0
2, 38760, Note_on_c, 0, 71, 107
2, 38760, Note_on_c, 0, 62, 107
2, 38832, Note_on_c, 0, 68, 0
2, 38856, Note_on_c, 0, 62, 0
2, 38856, Note_on_c, 0, 71, 0
2, 38880, Note_on_c, 0, 66, 107
2, 38880, Note_on_c, 0, 61, 107
2, 38880, Note_on_c, 0, 69, 107
2, 39024, Note_on_c, 0, 69, 0
2, 39060, Note_on_c, 0, 71, 107
2, 39072, Note_on_c, 0, 61, 0
2, 39084, Note_on_c, 0, 71, 0
2, 39090, Note_on_c, 0, 73, 107
2, 39114, Note_on_c, 0, 73, 0
2, 39120, Note_on_c, 0, 71, 107
2, 39120, Note_on_c, 0, 54, 107
2, 39216, Note_on_c, 0, 71, 0
2, 39240, Note_on_c, 0, 69, 107
2, 39264, Note_on_c, 0, 66, 0
2, 39312, Note_on_c, 0, 54, 0
2, 39336, Note_on_c, 0, 69, 0
2, 39360, Note_on_c, 0, 63, 107
2, 39360, Note_on_c, 0, 68, 107
2, 39360, Note_on_c, 0, 59, 107
2, 39408, Note_on_c, 0, 68, 0
2, 39420, Note_on_c, 0, 69, 107
2, 39468, Note_on_c, 0, 69, 0
2, 39480, Note_on_c, 0, 68, 107
2, 39528, Note_on_c, 0, 68, 0
2, 39540, Note_on_c, 0, 69, 107
2, 39552, Note_on_c, 0, 59, 0
2, 39552, Note_on_c, 0, 63, 0
2, 39588, Note_on_c, 0, 69, 0
2, 39600, Note_on_c, 0, 64, 107
2, 39600, Note_on_c, 0, 68, 107
2, 39600, Note_on_c, 0, 59, 107
2, 39612, Note_on_c, 0, 68, 0
2, 39615, Note_on_c, 0, 69, 107
2, 39627, Note_on_c, 0, 69, 0
2, 39630, Note_on_c, 0, 68, 107
2, 39936, Note_on_c, 0, 68, 0
2, 39936, Note_on_c, 0, 59, 0
2, 39936, Note_on_c, 0, 64, 0
2, 39960, Note_on_c, 0, 66, 107
2, 40056, Note_on_c, 0, 66, 0
2, 40080, Note_on_c, 0, 64, 107
2, 40272, Note_on_c, 0, 64, 0
2, 40320, Note_on_c, 0, 73, 107
2, 40332, Note_on_c, 0, 73, 0
2, 40335, Note_on_c, 0, 71, 107
2, 40347, Note_on_c, 0, 71, 0
2, 40350, Note_on_c, 0, 73, 107
2, 40476, Note_on_c, 0, 73, 0
2, 40500, Note_on_c, 0, 74, 107
2, 40524, Note_on_c, 0, 74, 0
2, 40530, Note_on_c, 0, 76, 107
2, 40554, Note_on_c, 0, 76, 0
2, 40560, Note_on_c, 0, 74, 107
2, 40656, Note_on_c, 0, 74, 0
2, 40680, Note_on_c, 0, 73, 107
2, 40776, Note_on_c, 0, 73, 0
2, 40800, Note_on_c, 0, 71, 107
2, 40812, Note_on_c, 0, 71, 0
2, 40815, Note_on_c, 0, 73, 107
2, 40827, Note_on_c, 0, 73, 0
2, 40830, Note_on_c, 0, 71, 107
2, 40902, Note_on_c, 0, 71, 0
2, 40920, Note_on_c, 0, 69, 107
2, 41016, Note_on_c, 0, 69, 0
2, 41040, Note_on_c, 0, 69, 107
2, 41040, Note_on_c, 0, 76, 107
2, 41040, Note_on_c, 0, 79, 107
2, 41136, Note_on_c, 0, 79, 0
2, 41136, Note_on_c, 0, 76, 0
2, 41160, Note_on_c, 0, 74, 107
2, 41160, Note_on_c, 0, 78, 107
2, 41232, Note_on_c, 0, 69, 0
2, 41256, Note_on_c, 0, 78, 0
2, 41256, Note_on_c, 0, 74, 0
2, 41280, Note_on_c, 0, 69, 107
2, 41280, Note_on_c, 0, 76, 107
2, 41280, Note_on_c, 0, 79, 107
2, 41664, Note_on_c, 0, 79, 0
2, 41664, Note_on_c, 0, 76, 0
2, 41664, Note_on_c, 0, 69, 0
2, 41760, Note_on_c, 0, 74, 107
2, 41760, Note_on_c, 0, 78, 107
2, 41775, Note_on_c, 0, 78, 0
2, 41775, Note_on_c, 0, 76, 107
2, 41787, Note_on_c, 0, 76, 0
2, 41790, Note_on_c, 0, 78, 107
2, 41916, Note_on_c, 0, 78, 0
2, 41940, Note_on_c, 0, 80, 107
2, 41952, Note_on_c, 0, 74, 0
2, 41964, Note_on_c, 0, 80, 0
2, 41970, Note_on_c, 0, 81, 107
2, 41994, Note_on_c, 0, 81, 0
2, 42000, Note_on_c, 0, 80, 107
2, 42096, Note_on_c, 0, 80, 0
2, 42120, Note_on_c, 0, 78, 107
2, 42216, Note_on_c, 0, 78, 0
2, 42240, Note_on_c, 0, 76, 107
2, 42252, Note_on_c, 0, 76, 0
2, 42255, Note_on_c, 0, 78, 107
2, 42267, Note_on_c, 0, 78, 0
2, 42270, Note_on_c, 0, 76, 107
2, 42342, Note_on_c, 0, 76, 0
2, 42360, Note_on_c, 0, 74, 107
2, 42456, Note_on_c, 0, 74, 0
2, 42480, Note_on_c, 0, 76, 107
2, 42480, Note_on_c, 0, 83, 107
2, 42480, Note_on_c, 0, 74, 107
2, 42576, Note_on_c, 0, 74, 0
2, 42576, Note_on_c, 0, 83, 0
2, 42600, Note_on_c, 0, 73, 107
2, 42600, Note_on_c, 0, 81, 107
2, 42696, Note_on_c, 0, 81, 0
2, 42696, Note_on_c, 0, 73, 0
2, 42720, Note_on_c, 0, 83, 107
2, 42720, Note_on_c, 0, 74, 107
2, 43104, Note_on_c, 0, 76, 0
2, 43296, Note_on_c, 0, 83, 0
2, 43320, Note_on_c, 0, 80, 107
2, 43344, Note_on_c, 0, 74, 0
2, 43380, Note_on_c, 0, 76, 107
2, 43404, Note_on_c, 0, 76, 0
2, 43410, Note_on_c, 0, 77, 107
2, 43416, Note_on_c, 0, 80, 0
2, 43434, Note_on_c, 0, 77, 0
2, 43440, Note_on_c, 0, 76, 107
2, 43440, Note_on_c, 0, 81, 107
2, 43536, Note_on_c, 0, 76, 0
2, 43560, Note_on_c, 0, 74, 107
2, 43656, Note_on_c, 0, 74, 0
2, 43680, Note_on_c, 0, 72, 107
2, 43692, Note_on_c, 0, 72, 0
2, 43695, Note_on_c, 0, 74, 107
2, 43707, Note_on_c, 0, 74, 0
2, 43710, Note_on_c, 0, 72, 107
2, 43782, Note_on_c, 0, 72, 0
2, 43800, Note_on_c, 0, 71, 107
2, 43896, Note_on_c, 0, 71, 0
2, 43920, Note_on_c, 0, 72, 107
2, 44016, Note_on_c, 0, 81, 0
2, 44040, Note_on_c, 0, 80, 107
2, 44064, Note_on_c, 0, 72, 0
2, 44100, Note_on_c, 0, 74, 107
2, 44124, Note_on_c, 0, 74, 0
2, 44130, Note_on_c, 0, 76, 107
2, 44136, Note_on_c, 0, 80, 0
2, 44154, Note_on_c, 0, 76, 0
2, 44160, Note_on_c, 0, 74, 107
2, 44160, Note_on_c, 0, 81, 107
2, 44256, Note_on_c, 0, 74, 0
2, 44280, Note_on_c, 0, 72, 107
2, 44376, Note_on_c, 0, 72, 0
2, 44400, Note_on_c, 0, 71, 107
2, 44412, Note_on_c, 0, 71, 0
2, 44415, Note_on_c, 0, 72, 107
2, 44427, Note_on_c, 0, 72, 0
2, 44430, Note_on_c, 0, 71, 107
2, 44502, Note_on_c, 0, 71, 0
2, 44520, Note_on_c, 0, 69, 107
2, 44616, Note_on_c, 0, 69, 0
2, 44640, Note_on_c, 0, 77, 107
2, 44736, Note_on_c, 0, 77, 0
2, 44760, Note_on_c, 0, 76, 107
2, 44856, Note_on_c, 0, 76, 0
2, 44880, Note_on_c, 0, 72, 107
2, 44892, Note_on_c, 0, 72, 0
2, 44895, Note_on_c, 0, 71, 107
2, 44907, Note_on_c, 0, 71, 0
2, 44910, Note_on_c, 0, 72, 107
2, 45024, Note_on_c, 0, 81, 0
2, 45096, Note_on_c, 0, 72, 0
2, 45120, Note_on_c, 0, 80, 107
2, 45120, Note_on_c, 0, 71, 107
2, 45216, Note_on_c, 0, 71, 0
2, 45240, Note_on_c, 0, 69, 107
2, 45312, Note_on_c, 0, 80, 0
2, 45336, Note_on_c, 0, 69, 0
2, 45360, Note_on_c, 0, 81, 107
2, 45360, Note_on_c, 0, 69, 107
2, 45552, Note_on_c, 0, 69, 0
2, 45552, Note_on_c, 0, 81, 0
2, 45600, Note_on_c, 0, 76, 107
2, 45600, Note_on_c, 0, 73, 107
2, 45600, Note_on_c, 0, 81, 107
2, 45984, Note_on_c, 0, 81, 0
2, 46050, Note_on_c, 0, 73, 0
2, 46050, Note_on_c, 0, 76, 0
2, 46050, End_track
3, 0, Start_track
3, 0, MIDI_port, 0
3, 0, Title_t, "J.S. Bach, Edition Wood"
3, 0, Program_c, 1, 0
3, 0, Control_c, 1, 7, 100
3, 0, Control_c, 1, 10, 64
3, 0, Note_on_c, 1, 45, 107
3, 15, Note_on_c, 1, 52, 107
3, 30, Note_on_c, 1, 57, 107
3, 576, Note_on_c, 1, 45, 0
3, 639, Note_on_c, 1, 57, 0
3, 639, Note_on_c, 1, 52, 0
3, 720, Note_on_c, 1, 61, 107
3, 720, Note_on_c, 1, 64, 107
3, 720, Note_on_c, 1, 57, 107
3, 912, Note_on_c, 1, 64, 0
3, 912, Note_on_c, 1, 61, 0
3, 960, Note_on_c, 1, 62, 107
3, 960, Note_on_c, 1, 66, 107
3, 1296, Note_on_c, 1, 57, 0
3, 1410, Note_on_c, 1, 66, 0
3, 1410, Note_on_c, 1, 62, 0
3, 1440, Note_on_c, 1, 62, 107
3, 1440, Note_on_c, 1, 59, 107
3, 1632, Note_on_c, 1, 59, 0
3, 1632, Note_on_c, 1, 62, 0
3, 1680, Note_on_c, 1, 61, 107
3, 1680, Note_on_c, 1, 64, 107
3, 1872, Note_on_c, 1, 64, 0
3, 1872, Note_on_c, 1, 61, 0
3, 1920, Note_on_c, 1, 66, 107
3, 1920, Note_on_c, 1, 62, 107
3, 2112, Note_on_c, 1, 62, 0
3, 2112, Note_on_c, 1, 66, 0
3, 2160, Note_on_c, 1, 64, 107
3, 2160, Note_on_c, 1, 64, 107
3, 2352, Note_on_c, 1, 64, 0
3, 2400, Note_on_c, 1, 52, 107
3, 2544, Note_on_c, 1, 64, 0
3, 2688, Note_on_c, 1, 52, 0
3, 2760, Note_on_c, 1, 54, 107
3, 2856, Note_on_c, 1, 54, 0
3, 2880, Note_on_c, 1, 55, 107
3, 3456, Note_on_c, 1, 55, 0
3, 3600, Note_on_c, 1, 46, 107
3, 3792, Note_on_c, 1, 46, 0
3, 3840, Note_on_c, 1, 47, 107
3, 3984, Note_on_c, 1, 47, 0
3, 4020, Note_on_c, 1, 49, 107
3, 4044, Note_on_c, 1, 49, 0
3, 4050, Note_on_c, 1, 50, 107
3, 4074, Note_on_c, 1, 50, 0
3, 4080, Note_on_c, 1, 44, 107
3, 4092, Note_on_c, 1, 44, 0
3, 4095, Note_on_c, 1, 46, 107
3, 4107, Note_on_c, 1, 46, 0
3, 4110, Note_on_c, 1, 44, 107
3, 4296, Note_on_c, 1, 44, 0
3, 4320, Note_on_c, 1, 45, 107
3, 4464, Note_on_c, 1, 45, 0
3, 4500, Note_on_c, 1, 47, 107
3, 4524, Note_on_c, 1, 47, 0
3, 4530, Note_on_c, 1, 49, 107
3, 4554, Note_on_c, 1, 49, 0
3, 4560, Note_on_c, 1, 42, 107
3, 4752, Note_on_c, 1, 42, 0
3, 4800, Note_on_c, 1, 47, 107
3, 4992, Note_on_c, 1, 47, 0
3, 5160, Note_on_c, 1, 47, 107
3, 5256, Note_on_c, 1, 47, 0
3, 5280, Note_on_c, 1, 52, 107
3, 5664, Note_on_c, 1, 52, 0
3, 5760, Note_on_c, 1, 45, 107
3, 5775, Note_on_c, 1, 52, 107
3, 5790, Note_on_c, 1, 57, 107
3, 6336, Note_on_c, 1, 45, 0
3, 6399, Note_on_c, 1, 57, 0
3, 6399, Note_on_c, 1, 52, 0
3, 6480, Note_on_c, 1, 61, 107
3, 6480, Note_on_c, 1, 64, 107
3, 6480, Note_on_c, 1, 57, 107
3, 6672, Note_on_c, 1, 64, 0
3, 6672, Note_on_c, 1, 61, 0
3, 6720, Note_on_c, 1, 62, 107
3, 6720, Note_on_c, 1, 66, 107
3, 7056, Note_on_c, 1, 57, 0
3, 7170, Note_on_c, 1, 66, 0
3, 7170, Note_on_c, 1, 62, 0
3, 7200, Note_on_c, 1, 62, 107
3, 7200, Note_on_c, 1, 59, 107
3, 7392, Note_on_c, 1, 59, 0
3, 7392, Note_on_c, 1, 62, 0
3, 7440, Note_on_c, 1, 61, 107
3, 7440, Note_on_c, 1, 64, 107
3, 7632, Note_on_c, 1, 64, 0
3, 7632, Note_on_c, 1, 61, 0
3, 7680, Note_on_c, 1, 66, 107
3, 7680, Note_on_c, 1, 62, 107
3, 7872, Note_on_c, 1, 62, 0
3, 7872, Note_on_c, 1, 66, 0
3, 7920, Note_on_c, 1, 64, 107
3, 7920, Note_on_c, 1, 64, 107
3, 8112, Note_on_c, 1, 64, 0
3, 8160, Note_on_c, 1, 52, 107
3, 8304, Note_on_c, 1, 64, 0
3, 8448, Note_on_c, 1, 52, 0
3, 8520, Note_on_c, 1, 54, 107
3, 8616, Note_on_c, 1, 54, 0
3, 8640, Note_on_c, 1, 55, 107
3, 9216, Note_on_c, 1, 55, 0
3, 9360, Note_on_c, 1, 46, 107
3, 9552, Note_on_c, 1, 46, 0
3, 9600, Note_on_c, 1, 47, 107
3, 9744, Note_on_c, 1, 47, 0
3, 9780, Note_on_c, 1, 49, 107
3, 9804, Note_on_c, 1, 49, 0
3, 9810, Note_on_c, 1, 50, 107
3, 9834, Note_on_c, 1, 50, 0
3, 9840, Note_on_c, 1, 44, 107
3, 9852, Note_on_c, 1, 44, 0
3, 9855, Note_on_c, 1, 46, 107
3, 9867, Note_on_c, 1, 46, 0
3, 9870, Note_on_c, 1, 44, 107
3, 10056, Note_on_c, 1, 44, 0
3, 10080, Note_on_c, 1, 45, 107
3, 10224, Note_on_c, 1, 45, 0
3, 10260, Note_on_c, 1, 47, 107
3, 10284, Note_on_c, 1, 47, 0
3, 10290, Note_on_c, 1, 49, 107
3, 10314, Note_on_c, 1, 49, 0
3, 10320, Note_on_c, 1, 42, 107
3, 10512, Note_on_c, 1, 42, 0
3, 10560, Note_on_c, 1, 47, 107
3, 10752, Note_on_c, 1, 47, 0
3, 10920, Note_on_c, 1, 47, 107
3, 11016, Note_on_c, 1, 47, 0
3, 11040, Note_on_c, 1, 52, 107
3, 11424, Note_on_c, 1, 52, 0
3, 11520, Note_on_c, 1, 59, 107
3, 11520, Note_on_c, 1, 50, 107
3, 12096, Note_on_c, 1, 59, 0
3, 12240, Note_on_c, 1, 50, 0
3, 12240, Note_on_c, 1, 57, 107
3, 12240, Note_on_c, 1, 49, 107
3, 12432, Note_on_c, 1, 57, 0
3, 12528, Note_on_c, 1, 49, 0
3, 12540, Note_on_c, 1, 50, 107
3, 12588, Note_on_c, 1, 50, 0
3, 12600, Note_on_c, 1, 52, 107
3, 12648, Note_on_c, 1, 52, 0
3, 12660, Note_on_c, 1, 50, 107
3, 12708, Note_on_c, 1, 50, 0
3, 12720, Note_on_c, 1, 49, 107
3, 12768, Note_on_c, 1, 49, 0
3, 12780, Note_on_c, 1, 47, 107
3, 12828, Note_on_c, 1, 47, 0
3, 12840, Note_on_c, 1, 46, 107
3, 12888, Note_on_c, 1, 46, 0
3, 12900, Note_on_c, 1, 47, 107
3, 12948, Note_on_c, 1, 47, 0
3, 12960, Note_on_c, 1, 46, 107
3, 13200, Note_on_c, 1, 49, 107
3, 13392, Note_on_c, 1, 49, 0
3, 13440, Note_on_c, 1, 54, 107
3, 13536, Note_on_c, 1, 46, 0
3, 13632, Note_on_c, 1, 54, 0
3, 13680, Note_on_c, 1, 54, 107
3, 13680, Note_on_c, 1, 47, 107
3, 13872, Note_on_c, 1, 54, 0
3, 13920, Note_on_c, 1, 59, 107
3, 13968, Note_on_c, 1, 47, 0
3, 13980, Note_on_c, 1, 49, 107
3, 14028, Note_on_c, 1, 49, 0
3, 14040, Note_on_c, 1, 50, 107
3, 14088, Note_on_c, 1, 50, 0
3, 14100, Note_on_c, 1, 49, 107
3, 14112, Note_on_c, 1, 59, 0
3, 14148, Note_on_c, 1, 49, 0
3, 14160, Note_on_c, 1, 47, 107
3, 14208, Note_on_c, 1, 47, 0
3, 14220, Note_on_c, 1, 45, 107
3, 14268, Note_on_c, 1, 45, 0
3, 14280, Note_on_c, 1, 43, 107
3, 14328, Note_on_c, 1, 43, 0
3, 14340, Note_on_c, 1, 45, 107
3, 14364, Note_on_c, 1, 45, 0
3, 14370, Note_on_c, 1, 47, 107
3, 14394, Note_on_c, 1, 47, 0
3, 14400, Note_on_c, 1, 40, 107
3, 14592, Note_on_c, 1, 40, 0
3, 14640, Note_on_c, 1, 52, 107
3, 14832, Note_on_c, 1, 52, 0
3, 14880, Note_on_c, 1, 54, 107
3, 14892, Note_on_c, 1, 54, 0
3, 14895, Note_on_c, 1, 55, 107
3, 14907, Note_on_c, 1, 55, 0
3, 14910, Note_on_c, 1, 54, 107
3, 15096, Note_on_c, 1, 54, 0
3, 15120, Note_on_c, 1, 55, 107
3, 15312, Note_on_c, 1, 55, 0
3, 15360, Note_on_c, 1, 50, 107
3, 15552, Note_on_c, 1, 50, 0
3, 15600, Note_on_c, 1, 52, 107
3, 15792, Note_on_c, 1, 52, 0
3, 15840, Note_on_c, 1, 54, 107
3, 16416, Note_on_c, 1, 54, 0
3, 16560, Note_on_c, 1, 59, 107
3, 16848, Note_on_c, 1, 59, 0
3, 16860, Note_on_c, 1, 55, 107
3, 16908, Note_on_c, 1, 55, 0
3, 16920, Note_on_c, 1, 54, 107
3, 16968, Note_on_c, 1, 54, 0
3, 16980, Note_on_c, 1, 52, 107
3, 17028, Note_on_c, 1, 52, 0
3, 17040, Note_on_c, 1, 50, 107
3, 17088, Note_on_c, 1, 50, 0
3, 17100, Note_on_c, 1, 49, 107
3, 17148, Note_on_c, 1, 49, 0
3, 17160, Note_on_c, 1, 47, 107
3, 17208, Note_on_c, 1, 47, 0
3, 17220, Note_on_c, 1, 49, 107
3, 17244, Note_on_c, 1, 49, 0
3, 17250, Note_on_c, 1, 50, 107
3, 17274, Note_on_c, 1, 50, 0
3, 17280, Note_on_c, 1, 41, 107
3, 17472, Note_on_c, 1, 41, 0
3, 17520, Note_on_c, 1, 53, 107
3, 17712, Note_on_c, 1, 53, 0
3, 17760, Note_on_c, 1, 49, 107
3, 17952, Note_on_c, 1, 49, 0
3, 18000, Note_on_c, 1, 54, 107
3, 18288, Note_on_c, 1, 54, 0
3, 18360, Note_on_c, 1, 55, 107
3, 18408, Note_on_c, 1, 55, 0
3, 18420, Note_on_c, 1, 54, 107
3, 18468, Note_on_c, 1, 54, 0
3, 18480, Note_on_c, 1, 52, 107
3, 18528, Note_on_c, 1, 52, 0
3, 18540, Note_on_c, 1, 50, 107
3, 18588, Note_on_c, 1, 50, 0
3, 18600, Note_on_c, 1, 49, 107
3, 18648, Note_on_c, 1, 49, 0
3, 18660, Note_on_c, 1, 50, 107
3, 18708, Note_on_c, 1, 50, 0
3, 18720, Note_on_c, 1, 49, 107
3, 18960, Note_on_c, 1, 52, 107
3, 19152, Note_on_c, 1, 52, 0
3, 19200, Note_on_c, 1, 57, 107
3, 19296, Note_on_c, 1, 49, 0
3, 19440, Note_on_c, 1, 50, 107
3, 19632, Note_on_c, 1, 57, 0
3, 19704, Note_on_c, 1, 50, 0
3, 19710, Note_on_c, 1, 45, 107
3, 19734, Note_on_c, 1, 45, 0
3, 19740, Note_on_c, 1, 47, 107
3, 19764, Note_on_c, 1, 47, 0
3, 19770, Note_on_c, 1, 49, 107
3, 19794, Note_on_c, 1, 49, 0
3, 19800, Note_on_c, 1, 50, 107
3, 19824, Note_on_c, 1, 50, 0
3, 19830, Note_on_c, 1, 52, 107
3, 19854, Note_on_c, 1, 52, 0
3, 19860, Note_on_c, 1, 54, 107
3, 19884, Note_on_c, 1, 54, 0
3, 19890, Note_on_c, 1, 55, 107
3, 19914, Note_on_c, 1, 55, 0
3, 19920, Note_on_c, 1, 57, 107
3, 19944, Note_on_c, 1, 57, 0
3, 19950, Note_on_c, 1, 59, 107
3, 19974, Note_on_c, 1, 59, 0
3, 19980, Note_on_c, 1, 61, 107
3, 20004, Note_on_c, 1, 61, 0
3, 20010, Note_on_c, 1, 62, 107
3, 20034, Note_on_c, 1, 62, 0
3, 20040, Note_on_c, 1, 61, 107
3, 20064, Note_on_c, 1, 61, 0
3, 20070, Note_on_c, 1, 59, 107
3, 20094, Note_on_c, 1, 59, 0
3, 20100, Note_on_c, 1, 61, 107
3, 20124, Note_on_c, 1, 61, 0
3, 20130, Note_on_c, 1, 57, 107
3, 20154, Note_on_c, 1, 57, 0
3, 20160, Note_on_c, 1, 62, 107
3, 20352, Note_on_c, 1, 62, 0
3, 20400, Note_on_c, 1, 61, 107
3, 20592, Note_on_c, 1, 61, 0
3, 20640, Note_on_c, 1, 57, 107
3, 20832, Note_on_c, 1, 57, 0
3, 20880, Note_on_c, 1, 59, 107
3, 21072, Note_on_c, 1, 59, 0
3, 21120, Note_on_c, 1, 56, 107
3, 21312, Note_on_c, 1, 56, 0
3, 21360, Note_on_c, 1, 52, 107
3, 21552, Note_on_c, 1, 52, 0
3, 21600, Note_on_c, 1, 54, 107
3, 21792, Note_on_c, 1, 54, 0
3, 21840, Note_on_c, 1, 51, 107
3, 22032, Note_on_c, 1, 51, 0
3, 22080, Note_on_c, 1, 47, 107
3, 22272, Note_on_c, 1, 47, 0
3, 22320, Note_on_c, 1, 52, 107
3, 22344, Note_on_c, 1, 52, 0
3, 22350, Note_on_c, 1, 40, 107
3, 22374, Note_on_c, 1, 40, 0
3, 22380, Note_on_c, 1, 42, 107
3, 22404, Note_on_c, 1, 42, 0
3, 22410, Note_on_c, 1, 44, 107
3, 22434, Note_on_c, 1, 44, 0
3, 22440, Note_on_c, 1, 45, 107
3, 22464, Note_on_c, 1, 45, 0
3, 22470, Note_on_c, 1, 47, 107
3, 22494, Note_on_c, 1, 47, 0
3, 22500, Note_on_c, 1, 49, 107
3, 22524, Note_on_c, 1, 49, 0
3, 22530, Note_on_c, 1, 50, 107
3, 22554, Note_on_c, 1, 50, 0
3, 22560, Note_on_c, 1, 52, 107
3, 22584, Note_on_c, 1, 52, 0
3, 22590, Note_on_c, 1, 54, 107
3, 22614, Note_on_c, 1, 54, 0
3, 22620, Note_on_c, 1, 56, 107
3, 22644, Note_on_c, 1, 56, 0
3, 22650, Note_on_c, 1, 57, 107
3, 22674, Note_on_c, 1, 57, 0
3, 22680, Note_on_c, 1, 59, 107
3, 22704, Note_on_c, 1, 59, 0
3, 22710, Note_on_c, 1, 61, 107
3, 22734, Note_on_c, 1, 61, 0
3, 22740, Note_on_c, 1, 62, 107
3, 22764, Note_on_c, 1, 62, 0
3, 22770, Note_on_c, 1, 61, 107
3, 22794, Note_on_c, 1, 61, 0
3, 22800, Note_on_c, 1, 59, 107
3, 22824, Note_on_c, 1, 59, 0
3, 22830, Note_on_c, 1, 57, 107
3, 22854, Note_on_c, 1, 57, 0
3, 22860, Note_on_c, 1, 56, 107
3, 22884, Note_on_c, 1, 56, 0
3, 22890, Note_on_c, 1, 54, 107
3, 22914, Note_on_c, 1, 54, 0
3, 22920, Note_on_c, 1, 52, 107
3, 22944, Note_on_c, 1, 52, 0
3, 22950, Note_on_c, 1, 50, 107
3, 22974, Note_on_c, 1, 50, 0
3, 22980, Note_on_c, 1, 49, 107
3, 23004, Note_on_c, 1, 49, 0
3, 23010, Note_on_c, 1, 47, 107
3, 23034, Note_on_c, 1, 47, 0
3, 23040, Note_on_c, 1, 45, 107
3, 23424, Note_on_c, 1, 45, 0
3, 23760, Note_on_c, 1, 49, 107
3, 23772, Note_on_c, 1, 49, 0
3, 23775, Note_on_c, 1, 47, 107
3, 23787, Note_on_c, 1, 47, 0
3, 23790, Note_on_c, 1, 49, 107
3, 23933, Note_on_c, 1, 49, 0
3, 23940, Note_on_c, 1, 50, 107
3, 23964, Note_on_c, 1, 50, 0
3, 23970, Note_on_c, 1, 52, 107
3, 23994, Note_on_c, 1, 52, 0
3, 24000, Note_on_c, 1, 50, 107
3, 24096, Note_on_c, 1, 50, 0
3, 24120, Note_on_c, 1, 49, 107
3, 24216, Note_on_c, 1, 49, 0
3, 24240, Note_on_c, 1, 47, 107
3, 24252, Note_on_c, 1, 47, 0
3, 24255, Note_on_c, 1, 49, 107
3, 24267, Note_on_c, 1, 49, 0
3, 24270, Note_on_c, 1, 47, 107
3, 24342, Note_on_c, 1, 47, 0
3, 24360, Note_on_c, 1, 45, 107
3, 24456, Note_on_c, 1, 45, 0
3, 24480, Note_on_c, 1, 57, 107
3, 24576, Note_on_c, 1, 57, 0
3, 24600, Note_on_c, 1, 56, 107
3, 24696, Note_on_c, 1, 56, 0
3, 24720, Note_on_c, 1, 57, 107
3, 25104, Note_on_c, 1, 57, 0
3, 25200, Note_on_c, 1, 44, 107
3, 25344, Note_on_c, 1, 44, 0
3, 25380, Note_on_c, 1, 45, 107
3, 25404, Note_on_c, 1, 45, 0
3, 25410, Note_on_c, 1, 47, 107
3, 25434, Note_on_c, 1, 47, 0
3, 25440, Note_on_c, 1, 45, 107
3, 25536, Note_on_c, 1, 45, 0
3, 25560, Note_on_c, 1, 44, 107
3, 25656, Note_on_c, 1, 44, 0
3, 25680, Note_on_c, 1, 42, 107
3, 25692, Note_on_c, 1, 42, 0
3, 25695, Note_on_c, 1, 44, 107
3, 25707, Note_on_c, 1, 44, 0
3, 25710, Note_on_c, 1, 42, 107
3, 25782, Note_on_c, 1, 42, 0
3, 25800, Note_on_c, 1, 40, 107
3, 25896, Note_on_c, 1, 40, 0
3, 25920, Note_on_c, 1, 48, 107
3, 26016, Note_on_c, 1, 48, 0
3, 26040, Note_on_c, 1, 47, 107
3, 26136, Note_on_c, 1, 47, 0
3, 26160, Note_on_c, 1, 48, 107
3, 26352, Note_on_c, 1, 48, 0
3, 26640, Note_on_c, 1, 53, 107
3, 26736, Note_on_c, 1, 53, 0
3, 26760, Note_on_c, 1, 52, 107
3, 26856, Note_on_c, 1, 52, 0
3, 26880, Note_on_c, 1, 53, 107
3, 27072, Note_on_c, 1, 53, 0
3, 27120, Note_on_c, 1, 51, 107
3, 27132, Note_on_c, 1, 51, 0
3, 27135, Note_on_c, 1, 52, 107
3, 27147, Note_on_c, 1, 52, 0
3, 27150, Note_on_c, 1, 51, 107
3, 27336, Note_on_c, 1, 51, 0
3, 27600, Note_on_c, 1, 52, 107
3, 27612, Note_on_c, 1, 52, 0
3, 27615, Note_on_c, 1, 50, 107
3, 27627, Note_on_c, 1, 50, 0
3, 27630, Note_on_c, 1, 52, 107
3, 27816, Note_on_c, 1, 52, 0
3, 27840, Note_on_c, 1, 40, 107
3, 28032, Note_on_c, 1, 40, 0
3, 28080, Note_on_c, 1, 45, 107
3, 28200, Note_on_c, 1, 49, 107
3, 28248, Note_on_c, 1, 49, 0
3, 28260, Note_on_c, 1, 52, 107
3, 28320, Note_on_c, 1, 57, 107
3, 28656, Note_on_c, 1, 45, 0
3, 28704, Note_on_c, 1, 57, 0
3, 28704, Note_on_c, 1, 52, 0
3, 28800, Note_on_c, 1, 59, 107
3, 28800, Note_on_c, 1, 50, 107
3, 29376, Note_on_c, 1, 59, 0
3, 29520, Note_on_c, 1, 50, 0
3, 29520, Note_on_c, 1, 57, 107
3, 29520, Note_on_c, 1, 49, 107
3, 29712, Note_on_c, 1, 57, 0
3, 29808, Note_on_c, 1, 49, 0
3, 29820, Note_on_c, 1, 50, 107
3, 29868, Note_on_c, 1, 50, 0
3, 29880, Note_on_c, 1, 52, 107
3, 29928, Note_on_c, 1, 52, 0
3, 29940, Note_on_c, 1, 50, 107
3, 29988, Note_on_c, 1, 50, 0
3, 30000, Note_on_c, 1, 49, 107
3, 30048, Note_on_c, 1, 49, 0
3, 30060, Note_on_c, 1, 47, 107
3, 30108, Note_on_c, 1, 47, 0
3, 30120, Note_on_c, 1, 46, 107
3, 30168, Note_on_c, 1, 46, 0
3, 30180, Note_on_c, 1, 47, 107
3, 30228, Note_on_c, 1, 47, 0
3, 30240, Note_on_c, 1, 46, 107
3, 30480, Note_on_c, 1, 49, 107
3, 30672, Note_on_c, 1, 49, 0
3, 30720, Note_on_c, 1, 54, 107
3, 30816, Note_on_c, 1, 46, 0
3, 30912, Note_on_c, 1, 54, 0
3, 30960, Note_on_c, 1, 54, 107
3, 30960, Note_on_c, 1, 47, 107
3, 31152, Note_on_c, 1, 54, 0
3, 31200, Note_on_c, 1, 59, 107
3, 31248, Note_on_c, 1, 47, 0
3, 31260, Note_on_c, 1, 49, 107
3, 31308, Note_on_c, 1, 49, 0
3, 31320, Note_on_c, 1, 50, 107
3, 31368, Note_on_c, 1, 50, 0
3, 31380, Note_on_c, 1, 49, 107
3, 31392, Note_on_c, 1, 59, 0
3, 31428, Note_on_c, 1, 49, 0
3, 31440, Note_on_c, 1, 47, 107
3, 31488, Note_on_c, 1, 47, 0
3, 31500, Note_on_c, 1, 45, 107
3, 31548, Note_on_c, 1, 45, 0
3, 31560, Note_on_c, 1, 43, 107
3, 31608, Note_on_c, 1, 43, 0
3, 31620, Note_on_c, 1, 45, 107
3, 31644, Note_on_c, 1, 45, 0
3, 31650, Note_on_c, 1, 47, 107
3, 31674, Note_on_c, 1, 47, 0
3, 31680, Note_on_c, 1, 40, 107
3, 31872, Note_on_c, 1, 40, 0
3, 31920, Note_on_c, 1, 52, 107
3, 32112, Note_on_c, 1, 52, 0
3, 32160, Note_on_c, 1, 54, 107
3, 32172, Note_on_c, 1, 54, 0
3, 32175, Note_on_c, 1, 55, 107
3, 32187, Note_on_c, 1, 55, 0
3, 32190, Note_on_c, 1, 54, 107
3, 32376, Note_on_c, 1, 54, 0
3, 32400, Note_on_c, 1, 55, 107
3, 32592, Note_on_c, 1, 55, 0
3, 32640, Note_on_c, 1, 50, 107
3, 32832, Note_on_c, 1, 50, 0
3, 32880, Note_on_c, 1, 52, 107
3, 33072, Note_on_c, 1, 52, 0
3, 33120, Note_on_c, 1, 54, 107
3, 33696, Note_on_c, 1, 54, 0
3, 33840, Note_on_c, 1, 59, 107
3, 34128, Note_on_c, 1, 59, 0
3, 34140, Note_on_c, 1, 55, 107
3, 34188, Note_on_c, 1, 55, 0
3, 34200, Note_on_c, 1, 54, 107
3, 34248, Note_on_c, 1, 54, 0
3, 34260, Note_on_c, 1, 52, 107
3, 34308, Note_on_c, 1, 52, 0
3, 34320, Note_on_c, 1, 50, 107
3, 34368, Note_on_c, 1, 50, 0
3, 34380, Note_on_c, 1, 49, 107
3, 34428, Note_on_c, 1, 49, 0
3, 34440, Note_on_c, 1, 47, 107
3, 34488, Note_on_c, 1, 47, 0
3, 34500, Note_on_c, 1, 49, 107
3, 34524, Note_on_c, 1, 49, 0
3, 34530, Note_on_c, 1, 50, 107
3, 34554, Note_on_c, 1, 50, 0
3, 34560, Note_on_c, 1, 41, 107
3, 34752, Note_on_c, 1, 41, 0
3, 34800, Note_on_c, 1, 53, 107
3, 34992, Note_on_c, 1, 53, 0
3, 35040, Note_on_c, 1, 49, 107
3, 35232, Note_on_c, 1, 49, 0
3, 35280, Note_on_c, 1, 54, 107
3, 35568, Note_on_c, 1, 54, 0
3, 35640, Note_on_c, 1, 55, 107
3, 35688, Note_on_c, 1, 55, 0
3, 35700, Note_on_c, 1, 54, 107
3, 35748, Note_on_c, 1, 54, 0
3, 35760, Note_on_c, 1, 52, 107
3, 35808, Note_on_c, 1, 52, 0
3, 35820, Note_on_c, 1, 50, 107
3, 35868, Note_on_c, 1, 50, 0
3, 35880, Note_on_c, 1, 49, 107
3, 35928, Note_on_c, 1, 49, 0
3, 35940, Note_on_c, 1, 50, 107
3, 35988, Note_on_c, 1, 50, 0
3, 36000, Note_on_c, 1, 49, 107
3, 36240, Note_on_c, 1, 52, 107
3, 36432, Note_on_c, 1, 52, 0
3, 36480, Note_on_c, 1, 57, 107
3, 36576, Note_on_c, 1, 49, 0
3, 36720, Note_on_c, 1, 50, 107
3, 36912, Note_on_c, 1, 57, 0
3, 36984, Note_on_c, 1, 50, 0
3, 36990, Note_on_c, 1, 45, 107
3, 37014, Note_on_c, 1, 45, 0
3, 37020, Note_on_c, 1, 47, 107
3, 37044, Note_on_c, 1, 47, 0
3, 37050, Note_on_c, 1, 49, 107
3, 37074, Note_on_c, 1, 49, 0
3, 37080, Note_on_c, 1, 50, 107
3, 37104, Note_on_c, 1, 50, 0
3, 37110, Note_on_c, 1, 52, 107
3, 37134, Note_on_c, 1, 52, 0
3, 37140, Note_on_c, 1, 54, 107
3, 37164, Note_on_c, 1, 54, 0
3, 37170, Note_on_c, 1, 55, 107
3, 37194, Note_on_c, 1, 55, 0
3, 37200, Note_on_c, 1, 57, 107
3, 37224, Note_on_c, 1, 57, 0
3, 37230, Note_on_c, 1, 59, 107
3, 37254, Note_on_c, 1, 59, 0
3, 37260, Note_on_c, 1, 61, 107
3, 37284, Note_on_c, 1, 61, 0
3, 37290, Note_on_c, 1, 62, 107
3, 37314, Note_on_c, 1, 62, 0
3, 37320, Note_on_c, 1, 61, 107
3, 37344, Note_on_c, 1, 61, 0
3, 37350, Note_on_c, 1, 59, 107
3, 37374, Note_on_c, 1, 59, 0
3, 37380, Note_on_c, 1, 61, 107
3, 37404, Note_on_c, 1, 61, 0
3, 37410, Note_on_c, 1, 57, 107
3, 37434, Note_on_c, 1, 57, 0
3, 37440, Note_on_c, 1, 62, 107
3, 37632, Note_on_c, 1, 62, 0
3, 37680, Note_on_c, 1, 61, 107
3, 37872, Note_on_c, 1, 61, 0
3, 37920, Note_on_c, 1, 57, 107
3, 38112, Note_on_c, 1, 57, 0
3, 38160, Note_on_c, 1, 59, 107
3, 38352, Note_on_c, 1, 59, 0
3, 38400, Note_on_c, 1, 56, 107
3, 38592, Note_on_c, 1, 56, 0
3, 38640, Note_on_c, 1, 52, 107
3, 38832, Note_on_c, 1, 52, 0
3, 38880, Note_on_c, 1, 54, 107
3, 39072, Note_on_c, 1, 54, 0
3, 39120, Note_on_c, 1, 51, 107
3, 39312, Note_on_c, 1, 51, 0
3, 39360, Note_on_c, 1, 47, 107
3, 39552, Note_on_c, 1, 47, 0
3, 39600, Note_on_c, 1, 52, 107
3, 39624, Note_on_c, 1, 52, 0
3, 39630, Note_on_c, 1, 40, 107
3, 39654, Note_on_c, 1, 40, 0
3, 39660, Note_on_c, 1, 42, 107
3, 39684, Note_on_c, 1, 42, 0
3, 39690, Note_on_c, 1, 44, 107
3, 39714, Note_on_c, 1, 44, 0
3, 39720, Note_on_c, 1, 45, 107
3, 39744, Note_on_c, 1, 45, 0
3, 39750, Note_on_c, 1, 47, 107
3, 39774, Note_on_c, 1, 47, 0
3, 39780, Note_on_c, 1, 49, 107
3, 39804, Note_on_c, 1, 49, 0
3, 39810, Note_on_c, 1, 50, 107
3, 39834, Note_on_c, 1, 50, 0
3, 39840, Note_on_c, 1, 52, 107
3, 39864, Note_on_c, 1, 52, 0
3, 39870, Note_on_c, 1, 54, 107
3, 39894, Note_on_c, 1, 54, 0
3, 39900, Note_on_c, 1, 56, 107
3, 39924, Note_on_c, 1, 56, 0
3, 39930, Note_on_c, 1, 57, 107
3, 39954, Note_on_c, 1, 57, 0
3, 39960, Note_on_c, 1, 59, 107
3, 39984, Note_on_c, 1, 59, 0
3, 39990, Note_on_c, 1, 61, 107
3, 40014, Note_on_c, 1, 61, 0
3, 40020, Note_on_c, 1, 62, 107
3, 40044, Note_on_c, 1, 62, 0
3, 40050, Note_on_c, 1, 61, 107
3, 40074, Note_on_c, 1, 61, 0
3, 40080, Note_on_c, 1, 59, 107
3, 40104, Note_on_c, 1, 59, 0
3, 40110, Note_on_c, 1, 57, 107
3, 40134, Note_on_c, 1, 57, 0
3, 40140, Note_on_c, 1, 56, 107
3, 40164, Note_on_c, 1, 56, 0
3, 40170, Note_on_c, 1, 54, 107
3, 40194, Note_on_c, 1, 54, 0
3, 40200, Note_on_c, 1, 52, 107
3, 40224, Note_on_c, 1, 52, 0
3, 40230, Note_on_c, 1, 50, 107
3, 40254, Note_on_c, 1, 50, 0
3, 40260, Note_on_c, 1, 49, 107
3, 40284, Note_on_c, 1, 49, 0
3, 40290, Note_on_c, 1, 47, 107
3, 40314, Note_on_c, 1, 47, 0
3, 40320, Note_on_c, 1, 45, 107
3, 40704, Note_on_c, 1, 45, 0
3, 41040, Note_on_c, 1, 49, 107
3, 41052, Note_on_c, 1, 49, 0
3, 41055, Note_on_c, 1, 47, 107
3, 41067, Note_on_c, 1, 47, 0
3, 41070, Note_on_c, 1, 49, 107
3, 41213, Note_on_c, 1, 49, 0
3, 41220, Note_on_c, 1, 50, 107
3, 41244, Note_on_c, 1, 50, 0
3, 41250, Note_on_c, 1, 52, 107
3, 41274, Note_on_c, 1, 52, 0
3, 41280, Note_on_c, 1, 50, 107
3, 41376, Note_on_c, 1, 50, 0
3, 41400, Note_on_c, 1, 49, 107
3, 41496, Note_on_c, 1, 49, 0
3, 41520, Note_on_c, 1, 47, 107
3, 41532, Note_on_c, 1, 47, 0
3, 41535, Note_on_c, 1, 49, 107
3, 41547, Note_on_c, 1, 49, 0
3, 41550, Note_on_c, 1, 47, 107
3, 41622, Note_on_c, 1, 47, 0
3, 41640, Note_on_c, 1, 45, 107
3, 41736, Note_on_c, 1, 45, 0
3, 41760, Note_on_c, 1, 57, 107
3, 41856, Note_on_c, 1, 57, 0
3, 41880, Note_on_c, 1, 56, 107
3, 41976, Note_on_c, 1, 56, 0
3, 42000, Note_on_c, 1, 57, 107
3, 42384, Note_on_c, 1, 57, 0
3, 42480, Note_on_c, 1, 44, 107
3, 42624, Note_on_c, 1, 44, 0
3, 42660, Note_on_c, 1, 45, 107
3, 42684, Note_on_c, 1, 45, 0
3, 42690, Note_on_c, 1, 47, 107
3, 42714, Note_on_c, 1, 47, 0
3, 42720, Note_on_c, 1, 45, 107
3, 42816, Note_on_c, 1, 45, 0
3, 42840, Note_on_c, 1, 44, 107
3, 42936, Note_on_c, 1, 44, 0
3, 42960, Note_on_c, 1, 42, 107
3, 42972, Note_on_c, 1, 42, 0
3, 42975, Note_on_c, 1, 44, 107
3, 42987, Note_on_c, 1, 44, 0
3, 42990, Note_on_c, 1, 42, 107
3, 43062, Note_on_c, 1, 42, 0
3, 43080, Note_on_c, 1, 40, 107
3, 43176, Note_on_c, 1, 40, 0
3, 43200, Note_on_c, 1, 48, 107
3, 43296, Note_on_c, 1, 48, 0
3, 43320, Note_on_c, 1, 47, 107
3, 43416, Note_on_c, 1, 47, 0
3, 43440, Note_on_c, 1, 48, 107
3, 43632, Note_on_c, 1, 48, 0
3, 43920, Note_on_c, 1, 53, 107
3, 44016, Note_on_c, 1, 53, 0
3, 44040, Note_on_c, 1, 52, 107
3, 44136, Note_on_c, 1, 52, 0
3, 44160, Note_on_c, 1, 53, 107
3, 44352, Note_on_c, 1, 53, 0
3, 44400, Note_on_c, 1, 51, 107
3, 44412, Note_on_c, 1, 51, 0
3, 44415, Note_on_c, 1, 52, 107
3, 44427, Note_on_c, 1, 52, 0
3, 44430, Note_on_c, 1, 51, 107
3, 44616, Note_on_c, 1, 51, 0
3, 44880, Note_on_c, 1, 52, 107
3, 44892, Note_on_c, 1, 52, 0
3, 44895, Note_on_c, 1, 50, 107
3, 44907, Note_on_c, 1, 50, 0
3, 44910, Note_on_c, 1, 52, 107
3, 45096, Note_on_c, 1, 52, 0
3, 45120, Note_on_c, 1, 40, 107
3, 45312, Note_on_c, 1, 40, 0
3, 45360, Note_on_c, 1, 45, 107
3, 45480, Note_on_c, 1, 49, 107
3, 45528, Note_on_c, 1, 49, 0
3, 45540, Note_on_c, 1, 52, 107
3, 45600, Note_on_c, 1, 57, 107
3, 45936, Note_on_c, 1, 45, 0
3, 45984, Note_on_c, 1, 57, 0
3, 45984, Note_on_c, 1, 52, 0
3, 45984, End_track
4, 0, Start_track
4, 0, MIDI_port, 0
4, 0, Title_t, "Arr. Gary Bricault, (c) 1997"
4, 0, End_track
0, 0, End_of_file
