0, 0, Header, 1, 4, 240
1, 0, Start_track
1, 0, Time_signature, 1, 3, 12, 8
1, 0, Tempo, 285714
1, 120, Time_signature, 12, 3, 36, 8
1, 120, Tempo, 295567
1, 33240, Time_signature, 11, 3, 12, 8
1, 33240, Tempo, 285714
1, 34560, Time_signature, 1, 3, 12, 8
1, 34680, Time_signature, 12, 3, 36, 8
1, 34680, Tempo, 295567
1, 67800, Time_signature, 11, 3, 12, 8
1, 67800, Tempo, 285714
1, 69120, Time_signature, 1, 3, 12, 8
1, 69240, Time_signature, 12, 3, 36, 8
1, 69240, Tempo, 295567
1, 108120, Time_signature, 11, 3, 12, 8
1, 108120, Tempo, 285714
1, 109440, Time_signature, 1, 3, 12, 8
1, 109560, Time_signature, 12, 3, 36, 8
1, 109560, Tempo, 295567
1, 148440, Time_signature, 11, 3, 12, 8
1, 148440, Tempo, 285714
1, 148440, End_track
2, 0, Start_track
2, 0, Title_t, "English Suite 4, 7. Gigue"
2, 0, Program_c, 0, 0
2, 0, Note_on_c, 0, 60, 107
2, 96, Note_off_c, 0, 60, 64
2, 120, Note_on_c, 0, 65, 107
2, 216, Note_off_c, 0, 65, 64
2, 240, Note_on_c, 0, 60, 107
2, 336, Note_off_c, 0, 60, 64
2, 360, Note_on_c, 0, 65, 107
2, 456, Note_off_c, 0, 65, 64
2, 480, Note_on_c, 0, 69, 107
2, 576, Note_off_c, 0, 69, 64
2, 600, Note_on_c, 0, 65, 107
2, 696, Note_off_c, 0, 65, 64
2, 720, Note_on_c, 0, 69, 107
2, 816, Note_off_c, 0, 69, 64
2, 840, Note_on_c, 0, 72, 107
2, 1032, Note_off_c, 0, 72, 64
2, 1080, Note_on_c, 0, 65, 107
2, 1176, Note_off_c, 0, 65, 64
2, 1200, Note_on_c, 0, 77, 107
2, 1656, Note_off_c, 0, 77, 64
2, 1680, Note_on_c, 0, 76, 107
2, 1776, Note_off_c, 0, 76, 64
2, 1800, Note_on_c, 0, 74, 107
2, 1896, Note_off_c, 0, 74, 64
2, 1920, Note_on_c, 0, 72, 107
2, 2016, Note_off_c, 0, 72, 64
2, 2040, Note_on_c, 0, 74, 107
2, 2136, Note_off_c, 0, 74, 64
2, 2160, Note_on_c, 0, 70, 107
2, 2256, Note_off_c, 0, 70, 64
2, 2280, Note_on_c, 0, 69, 107
2, 2376, Note_off_c, 0, 69, 64
2, 2400, Note_on_c, 0, 72, 107
2, 2496, Note_off_c, 0, 72, 64
2, 2520, Note_on_c, 0, 77, 107
2, 2616, Note_off_c, 0, 77, 64
2, 2640, Note_on_c, 0, 71, 107
2, 2736, Note_off_c, 0, 71, 64
2, 2760, Note_on_c, 0, 74, 107
2, 2856, Note_off_c, 0, 74, 64
2, 2880, Note_on_c, 0, 77, 107
2, 2976, Note_off_c, 0, 77, 64
2, 3000, Note_on_c, 0, 76, 107
2, 3096, Note_off_c, 0, 76, 64
2, 3120, Note_on_c, 0, 79, 107
2, 3216, Note_off_c, 0, 79, 64
2, 3240, Note_on_c, 0, 76, 107
2, 3336, Note_off_c, 0, 76, 64
2, 3360, Note_on_c, 0, 64, 107
2, 3360, Note_on_c, 0, 72, 107
2, 3456, Note_off_c, 0, 72, 64
2, 3456, Note_off_c, 0, 64, 64
2, 3480, Note_on_c, 0, 60, 107
2, 3480, Note_on_c, 0, 76, 107
2, 3576, Note_off_c, 0, 76, 64
2, 3576, Note_off_c, 0, 60, 64
2, 3600, Note_on_c, 0, 72, 107
2, 3600, Note_on_c, 0, 64, 107
2, 3696, Note_off_c, 0, 64, 64
2, 3696, Note_off_c, 0, 72, 64
2, 3720, Note_on_c, 0, 71, 107
2, 3720, Note_on_c, 0, 67, 107
2, 3816, Note_off_c, 0, 71, 64
2, 3840, Note_on_c, 0, 72, 107
2, 3912, Note_off_c, 0, 67, 64
2, 3936, Note_off_c, 0, 72, 64
2, 3960, Note_on_c, 0, 74, 107
2, 3960, Note_on_c, 0, 60, 107
2, 4056, Note_off_c, 0, 60, 64
2, 4056, Note_off_c, 0, 74, 64
2, 4080, Note_on_c, 0, 76, 107
2, 4080, Note_on_c, 0, 72, 107
2, 4176, Note_off_c, 0, 76, 64
2, 4200, Note_on_c, 0, 77, 107
2, 4296, Note_off_c, 0, 77, 64
2, 4320, Note_on_c, 0, 79, 107
2, 4416, Note_off_c, 0, 79, 64
2, 4440, Note_on_c, 0, 81, 107
2, 4536, Note_off_c, 0, 72, 64
2, 4536, Note_off_c, 0, 81, 64
2, 4560, Note_on_c, 0, 83, 107
2, 4560, Note_on_c, 0, 71, 107
2, 4656, Note_off_c, 0, 71, 64
2, 4656, Note_off_c, 0, 83, 64
2, 4680, Note_on_c, 0, 84, 107
2, 4680, Note_on_c, 0, 69, 107
2, 4776, Note_off_c, 0, 69, 64
2, 4776, Note_off_c, 0, 84, 64
2, 4800, Note_on_c, 0, 74, 107
2, 4800, Note_on_c, 0, 67, 107
2, 4896, Note_off_c, 0, 67, 64
2, 4896, Note_off_c, 0, 74, 64
2, 4920, Note_on_c, 0, 84, 107
2, 4920, Note_on_c, 0, 69, 107
2, 5016, Note_off_c, 0, 69, 64
2, 5016, Note_off_c, 0, 84, 64
2, 5040, Note_on_c, 0, 65, 107
2, 5040, Note_on_c, 0, 83, 107
2, 5136, Note_off_c, 0, 83, 64
2, 5136, Note_off_c, 0, 65, 64
2, 5160, Note_on_c, 0, 84, 107
2, 5160, Note_on_c, 0, 64, 107
2, 5256, Note_off_c, 0, 64, 64
2, 5280, Note_on_c, 0, 67, 107
2, 5376, Note_off_c, 0, 67, 64
2, 5400, Note_on_c, 0, 72, 107
2, 5448, Note_off_c, 0, 84, 64
2, 5496, Note_off_c, 0, 72, 64
2, 5520, Note_on_c, 0, 66, 107
2, 5616, Note_off_c, 0, 66, 64
2, 5640, Note_on_c, 0, 69, 107
2, 5736, Note_off_c, 0, 69, 64
2, 5760, Note_on_c, 0, 81, 107
2, 5760, Note_on_c, 0, 72, 107
2, 5856, Note_off_c, 0, 72, 64
2, 5856, Note_off_c, 0, 81, 64
2, 5880, Note_on_c, 0, 70, 107
2, 5880, Note_on_c, 0, 67, 107
2, 5976, Note_off_c, 0, 70, 64
2, 6000, Note_on_c, 0, 74, 107
2, 6096, Note_off_c, 0, 74, 64
2, 6120, Note_on_c, 0, 81, 107
2, 6168, Note_off_c, 0, 67, 64
2, 6216, Note_off_c, 0, 81, 64
2, 6240, Note_on_c, 0, 79, 107
2, 6336, Note_off_c, 0, 79, 64
2, 6360, Note_on_c, 0, 78, 107
2, 6456, Note_off_c, 0, 78, 64
2, 6480, Note_on_c, 0, 67, 107
2, 6480, Note_on_c, 0, 79, 107
2, 6576, Note_off_c, 0, 79, 64
2, 6576, Note_off_c, 0, 67, 64
2, 6600, Note_on_c, 0, 62, 107
2, 6600, Note_on_c, 0, 70, 107
2, 6696, Note_off_c, 0, 62, 64
2, 6720, Note_on_c, 0, 65, 107
2, 6816, Note_off_c, 0, 65, 64
2, 6840, Note_on_c, 0, 70, 107
2, 6888, Note_off_c, 0, 70, 64
2, 6936, Note_off_c, 0, 70, 64
2, 6960, Note_on_c, 0, 64, 107
2, 7056, Note_off_c, 0, 64, 64
2, 7080, Note_on_c, 0, 67, 107
2, 7176, Note_off_c, 0, 67, 64
2, 7200, Note_on_c, 0, 79, 107
2, 7200, Note_on_c, 0, 70, 107
2, 7296, Note_off_c, 0, 70, 64
2, 7296, Note_off_c, 0, 79, 64
2, 7320, Note_on_c, 0, 69, 107
2, 7320, Note_on_c, 0, 69, 107
2, 7416, Note_off_c, 0, 69, 64
2, 7440, Note_on_c, 0, 72, 107
2, 7512, Note_off_c, 0, 69, 64
2, 7536, Note_off_c, 0, 72, 64
2, 7560, Note_on_c, 0, 79, 107
2, 7656, Note_off_c, 0, 79, 64
2, 7680, Note_on_c, 0, 77, 107
2, 7776, Note_off_c, 0, 77, 64
2, 7800, Note_on_c, 0, 76, 107
2, 7896, Note_off_c, 0, 76, 64
2, 7920, Note_on_c, 0, 77, 107
2, 8016, Note_off_c, 0, 77, 64
2, 8040, Note_on_c, 0, 67, 107
2, 8040, Note_on_c, 0, 67, 107
2, 8136, Note_off_c, 0, 67, 64
2, 8160, Note_on_c, 0, 72, 107
2, 8232, Note_off_c, 0, 67, 64
2, 8256, Note_off_c, 0, 72, 64
2, 8280, Note_on_c, 0, 77, 107
2, 8376, Note_off_c, 0, 77, 64
2, 8400, Note_on_c, 0, 75, 107
2, 8496, Note_off_c, 0, 75, 64
2, 8520, Note_on_c, 0, 74, 107
2, 8616, Note_off_c, 0, 74, 64
2, 8640, Note_on_c, 0, 69, 107
2, 8640, Note_on_c, 0, 75, 107
2, 8736, Note_off_c, 0, 75, 64
2, 8736, Note_off_c, 0, 69, 64
2, 8760, Note_on_c, 0, 74, 107
2, 8760, Note_on_c, 0, 70, 107
2, 8952, Note_off_c, 0, 74, 64
2, 9000, Note_on_c, 0, 76, 107
2, 9048, Note_off_c, 0, 70, 64
2, 9096, Note_off_c, 0, 76, 64
2, 9120, Note_on_c, 0, 77, 107
2, 9144, Note_off_c, 0, 77, 64
2, 9150, Note_on_c, 0, 76, 107
2, 9174, Note_off_c, 0, 76, 64
2, 9180, Note_on_c, 0, 77, 107
2, 9204, Note_off_c, 0, 77, 64
2, 9210, Note_on_c, 0, 76, 107
2, 9336, Note_off_c, 0, 76, 64
2, 9360, Note_on_c, 0, 74, 107
2, 9408, Note_off_c, 0, 74, 64
2, 9420, Note_on_c, 0, 76, 107
2, 9468, Note_off_c, 0, 76, 64
2, 9480, Note_on_c, 0, 77, 107
2, 9576, Note_off_c, 0, 77, 64
2, 9600, Note_on_c, 0, 76, 107
2, 9696, Note_off_c, 0, 76, 64
2, 9720, Note_on_c, 0, 70, 107
2, 9720, Note_on_c, 0, 74, 107
2, 9816, Note_off_c, 0, 74, 64
2, 9816, Note_off_c, 0, 70, 64
2, 9840, Note_on_c, 0, 72, 107
2, 9840, Note_on_c, 0, 69, 107
2, 9936, Note_off_c, 0, 72, 64
2, 9960, Note_on_c, 0, 74, 107
2, 10032, Note_off_c, 0, 69, 64
2, 10056, Note_off_c, 0, 74, 64
2, 10080, Note_on_c, 0, 70, 107
2, 10080, Note_on_c, 0, 67, 107
2, 10176, Note_off_c, 0, 67, 64
2, 10176, Note_off_c, 0, 70, 64
2, 10200, Note_on_c, 0, 69, 107
2, 10200, Note_on_c, 0, 65, 107
2, 10296, Note_off_c, 0, 65, 64
2, 10296, Note_off_c, 0, 69, 64
2, 10320, Note_on_c, 0, 67, 107
2, 10416, Note_off_c, 0, 67, 64
2, 10440, Note_on_c, 0, 65, 107
2, 10536, Note_off_c, 0, 65, 64
2, 10560, Note_on_c, 0, 72, 107
2, 10656, Note_off_c, 0, 72, 64
2, 10680, Note_on_c, 0, 69, 107
2, 10776, Note_off_c, 0, 69, 64
2, 10800, Note_on_c, 0, 65, 107
2, 10896, Note_off_c, 0, 65, 64
2, 10920, Note_on_c, 0, 72, 107
2, 10944, Note_off_c, 0, 72, 64
2, 10950, Note_on_c, 0, 71, 107
2, 10974, Note_off_c, 0, 71, 64
2, 10980, Note_on_c, 0, 72, 107
2, 11232, Note_off_c, 0, 72, 64
2, 11280, Note_on_c, 0, 72, 107
2, 11376, Note_off_c, 0, 72, 64
2, 11400, Note_on_c, 0, 67, 107
2, 11496, Note_off_c, 0, 67, 64
2, 11520, Note_on_c, 0, 64, 107
2, 11616, Note_off_c, 0, 64, 64
2, 11640, Note_on_c, 0, 72, 107
2, 11664, Note_off_c, 0, 72, 64
2, 11670, Note_on_c, 0, 71, 107
2, 11694, Note_off_c, 0, 71, 64
2, 11700, Note_on_c, 0, 72, 107
2, 11952, Note_off_c, 0, 72, 64
2, 12000, Note_on_c, 0, 72, 107
2, 12096, Note_off_c, 0, 72, 64
2, 12120, Note_on_c, 0, 69, 107
2, 12216, Note_off_c, 0, 69, 64
2, 12240, Note_on_c, 0, 65, 107
2, 12336, Note_off_c, 0, 65, 64
2, 12360, Note_on_c, 0, 72, 107
2, 12384, Note_off_c, 0, 72, 64
2, 12390, Note_on_c, 0, 71, 107
2, 12414, Note_off_c, 0, 71, 64
2, 12420, Note_on_c, 0, 72, 107
2, 12672, Note_off_c, 0, 72, 64
2, 12960, Note_on_c, 0, 69, 107
2, 13056, Note_off_c, 0, 69, 64
2, 13080, Note_on_c, 0, 70, 107
2, 13176, Note_off_c, 0, 70, 64
2, 13200, Note_on_c, 0, 62, 107
2, 13296, Note_off_c, 0, 62, 64
2, 13320, Note_on_c, 0, 67, 107
2, 13416, Note_off_c, 0, 67, 64
2, 13440, Note_on_c, 0, 70, 107
2, 13536, Note_off_c, 0, 70, 64
2, 13560, Note_on_c, 0, 67, 107
2, 13656, Note_off_c, 0, 67, 64
2, 13680, Note_on_c, 0, 70, 107
2, 13776, Note_off_c, 0, 70, 64
2, 13800, Note_on_c, 0, 66, 107
2, 13896, Note_off_c, 0, 66, 64
2, 13920, Note_on_c, 0, 62, 107
2, 14016, Note_off_c, 0, 62, 64
2, 14040, Note_on_c, 0, 66, 107
2, 14136, Note_off_c, 0, 66, 64
2, 14160, Note_on_c, 0, 69, 107
2, 14256, Note_off_c, 0, 69, 64
2, 14280, Note_on_c, 0, 66, 107
2, 14376, Note_off_c, 0, 66, 64
2, 14400, Note_on_c, 0, 69, 107
2, 14496, Note_off_c, 0, 69, 64
2, 14520, Note_on_c, 0, 70, 107
2, 14616, Note_off_c, 0, 70, 64
2, 14640, Note_on_c, 0, 62, 107
2, 14736, Note_off_c, 0, 62, 64
2, 14760, Note_on_c, 0, 67, 107
2, 14856, Note_off_c, 0, 67, 64
2, 14880, Note_on_c, 0, 70, 107
2, 14976, Note_off_c, 0, 70, 64
2, 15000, Note_on_c, 0, 67, 107
2, 15096, Note_off_c, 0, 67, 64
2, 15120, Note_on_c, 0, 70, 107
2, 15216, Note_off_c, 0, 70, 64
2, 15240, Note_on_c, 0, 66, 107
2, 15336, Note_off_c, 0, 66, 64
2, 15360, Note_on_c, 0, 62, 107
2, 15456, Note_off_c, 0, 62, 64
2, 15480, Note_on_c, 0, 66, 107
2, 15576, Note_off_c, 0, 66, 64
2, 15600, Note_on_c, 0, 69, 107
2, 15696, Note_off_c, 0, 69, 64
2, 15720, Note_on_c, 0, 66, 107
2, 15816, Note_off_c, 0, 66, 64
2, 15840, Note_on_c, 0, 69, 107
2, 15936, Note_off_c, 0, 69, 64
2, 15960, Note_on_c, 0, 70, 107
2, 16056, Note_off_c, 0, 70, 64
2, 16080, Note_on_c, 0, 67, 107
2, 16176, Note_off_c, 0, 67, 64
2, 16200, Note_on_c, 0, 70, 107
2, 16296, Note_off_c, 0, 70, 64
2, 16320, Note_on_c, 0, 74, 107
2, 16416, Note_off_c, 0, 74, 64
2, 16440, Note_on_c, 0, 70, 107
2, 16536, Note_off_c, 0, 70, 64
2, 16560, Note_on_c, 0, 74, 107
2, 16656, Note_off_c, 0, 74, 64
2, 16680, Note_on_c, 0, 77, 107
2, 16704, Note_off_c, 0, 77, 64
2, 16710, Note_on_c, 0, 76, 107
2, 16734, Note_off_c, 0, 76, 64
2, 16740, Note_on_c, 0, 77, 107
2, 16992, Note_off_c, 0, 77, 64
2, 17040, Note_on_c, 0, 77, 107
2, 17136, Note_off_c, 0, 77, 64
2, 17160, Note_on_c, 0, 72, 107
2, 17256, Note_off_c, 0, 72, 64
2, 17280, Note_on_c, 0, 69, 107
2, 17376, Note_off_c, 0, 69, 64
2, 17400, Note_on_c, 0, 77, 107
2, 17424, Note_off_c, 0, 77, 64
2, 17430, Note_on_c, 0, 76, 107
2, 17454, Note_off_c, 0, 76, 64
2, 17460, Note_on_c, 0, 77, 107
2, 17712, Note_off_c, 0, 77, 64
2, 17760, Note_on_c, 0, 77, 107
2, 17856, Note_off_c, 0, 77, 64
2, 17880, Note_on_c, 0, 74, 107
2, 17976, Note_off_c, 0, 74, 64
2, 18000, Note_on_c, 0, 70, 107
2, 18096, Note_off_c, 0, 70, 64
2, 18120, Note_on_c, 0, 77, 107
2, 18144, Note_off_c, 0, 77, 64
2, 18150, Note_on_c, 0, 76, 107
2, 18174, Note_off_c, 0, 76, 64
2, 18180, Note_on_c, 0, 77, 107
2, 18432, Note_off_c, 0, 77, 64
2, 18720, Note_on_c, 0, 60, 107
2, 18816, Note_off_c, 0, 60, 64
2, 18840, Note_on_c, 0, 65, 107
2, 18936, Note_off_c, 0, 65, 64
2, 18960, Note_on_c, 0, 60, 107
2, 19056, Note_off_c, 0, 60, 64
2, 19080, Note_on_c, 0, 65, 107
2, 19176, Note_off_c, 0, 65, 64
2, 19200, Note_on_c, 0, 69, 107
2, 19296, Note_off_c, 0, 69, 64
2, 19320, Note_on_c, 0, 65, 107
2, 19416, Note_off_c, 0, 65, 64
2, 19440, Note_on_c, 0, 69, 107
2, 19536, Note_off_c, 0, 69, 64
2, 19560, Note_on_c, 0, 72, 107
2, 19752, Note_off_c, 0, 72, 64
2, 19800, Note_on_c, 0, 65, 107
2, 19896, Note_off_c, 0, 65, 64
2, 19920, Note_on_c, 0, 77, 107
2, 19944, Note_off_c, 0, 77, 64
2, 19950, Note_on_c, 0, 76, 107
2, 19974, Note_off_c, 0, 76, 64
2, 19980, Note_on_c, 0, 77, 107
2, 20376, Note_off_c, 0, 77, 64
2, 20400, Note_on_c, 0, 76, 107
2, 20496, Note_off_c, 0, 76, 64
2, 20520, Note_on_c, 0, 74, 107
2, 20616, Note_off_c, 0, 74, 64
2, 20640, Note_on_c, 0, 72, 107
2, 20736, Note_off_c, 0, 72, 64
2, 20760, Note_on_c, 0, 74, 107
2, 20856, Note_off_c, 0, 74, 64
2, 20880, Note_on_c, 0, 70, 107
2, 20976, Note_off_c, 0, 70, 64
2, 21000, Note_on_c, 0, 69, 107
2, 21096, Note_off_c, 0, 69, 64
2, 21120, Note_on_c, 0, 72, 107
2, 21216, Note_off_c, 0, 72, 64
2, 21240, Note_on_c, 0, 79, 107
2, 21336, Note_off_c, 0, 79, 64
2, 21360, Note_on_c, 0, 77, 107
2, 21456, Note_off_c, 0, 77, 64
2, 21480, Note_on_c, 0, 76, 107
2, 21576, Note_off_c, 0, 76, 64
2, 21600, Note_on_c, 0, 77, 107
2, 21696, Note_off_c, 0, 77, 64
2, 21720, Note_on_c, 0, 67, 107
2, 21816, Note_off_c, 0, 67, 64
2, 21840, Note_on_c, 0, 72, 107
2, 21936, Note_off_c, 0, 72, 64
2, 21960, Note_on_c, 0, 77, 107
2, 22056, Note_off_c, 0, 77, 64
2, 22080, Note_on_c, 0, 76, 107
2, 22176, Note_off_c, 0, 76, 64
2, 22200, Note_on_c, 0, 74, 107
2, 22296, Note_off_c, 0, 74, 64
2, 22320, Note_on_c, 0, 76, 107
2, 22416, Note_off_c, 0, 76, 64
2, 22440, Note_on_c, 0, 65, 107
2, 22536, Note_off_c, 0, 65, 64
2, 22560, Note_on_c, 0, 69, 107
2, 22656, Note_off_c, 0, 69, 64
2, 22680, Note_on_c, 0, 76, 107
2, 22776, Note_off_c, 0, 76, 64
2, 22800, Note_on_c, 0, 74, 107
2, 22896, Note_off_c, 0, 74, 64
2, 22920, Note_on_c, 0, 73, 107
2, 23016, Note_off_c, 0, 73, 64
2, 23040, Note_on_c, 0, 74, 107
2, 23136, Note_off_c, 0, 74, 64
2, 23160, Note_on_c, 0, 64, 107
2, 23256, Note_off_c, 0, 64, 64
2, 23280, Note_on_c, 0, 69, 107
2, 23376, Note_off_c, 0, 69, 64
2, 23400, Note_on_c, 0, 74, 107
2, 23496, Note_off_c, 0, 74, 64
2, 23520, Note_on_c, 0, 72, 107
2, 23616, Note_off_c, 0, 72, 64
2, 23640, Note_on_c, 0, 71, 107
2, 23736, Note_off_c, 0, 71, 64
2, 23760, Note_on_c, 0, 72, 107
2, 23856, Note_off_c, 0, 72, 64
2, 23880, Note_on_c, 0, 62, 107
2, 23976, Note_off_c, 0, 62, 64
2, 24000, Note_on_c, 0, 65, 107
2, 24096, Note_off_c, 0, 65, 64
2, 24120, Note_on_c, 0, 72, 107
2, 24216, Note_off_c, 0, 72, 64
2, 24240, Note_on_c, 0, 70, 107
2, 24336, Note_off_c, 0, 70, 64
2, 24360, Note_on_c, 0, 69, 107
2, 24456, Note_off_c, 0, 69, 64
2, 24480, Note_on_c, 0, 70, 107
2, 24576, Note_off_c, 0, 70, 64
2, 24600, Note_on_c, 0, 60, 107
2, 24696, Note_off_c, 0, 60, 64
2, 24720, Note_on_c, 0, 65, 107
2, 24816, Note_off_c, 0, 65, 64
2, 24840, Note_on_c, 0, 70, 107
2, 24936, Note_off_c, 0, 70, 64
2, 24960, Note_on_c, 0, 69, 107
2, 25056, Note_off_c, 0, 69, 64
2, 25080, Note_on_c, 0, 67, 107
2, 25176, Note_off_c, 0, 67, 64
2, 25200, Note_on_c, 0, 69, 107
2, 25296, Note_off_c, 0, 69, 64
2, 25320, Note_on_c, 0, 59, 107
2, 25416, Note_off_c, 0, 59, 64
2, 25440, Note_on_c, 0, 62, 107
2, 25536, Note_off_c, 0, 62, 64
2, 25560, Note_on_c, 0, 67, 107
2, 25656, Note_off_c, 0, 67, 64
2, 25680, Note_on_c, 0, 60, 107
2, 25776, Note_off_c, 0, 60, 64
2, 25800, Note_on_c, 0, 64, 107
2, 25896, Note_off_c, 0, 64, 64
2, 25920, Note_on_c, 0, 67, 107
2, 26016, Note_off_c, 0, 67, 64
2, 26040, Note_on_c, 0, 57, 107
2, 26136, Note_off_c, 0, 57, 64
2, 26160, Note_on_c, 0, 60, 107
2, 26256, Note_off_c, 0, 60, 64
2, 26280, Note_on_c, 0, 65, 107
2, 26376, Note_off_c, 0, 65, 64
2, 26400, Note_on_c, 0, 59, 107
2, 26496, Note_off_c, 0, 59, 64
2, 26520, Note_on_c, 0, 62, 107
2, 26616, Note_off_c, 0, 62, 64
2, 26640, Note_on_c, 0, 65, 107
2, 26736, Note_off_c, 0, 65, 64
2, 26760, Note_on_c, 0, 64, 107
2, 26856, Note_off_c, 0, 64, 64
2, 26880, Note_on_c, 0, 67, 107
2, 26976, Note_off_c, 0, 67, 64
2, 27000, Note_on_c, 0, 72, 107
2, 27096, Note_off_c, 0, 72, 64
2, 27120, Note_on_c, 0, 66, 107
2, 27216, Note_off_c, 0, 66, 64
2, 27240, Note_on_c, 0, 69, 107
2, 27336, Note_off_c, 0, 69, 64
2, 27360, Note_on_c, 0, 72, 107
2, 27456, Note_off_c, 0, 72, 64
2, 27480, Note_on_c, 0, 71, 107
2, 27576, Note_off_c, 0, 71, 64
2, 27600, Note_on_c, 0, 69, 107
2, 27696, Note_off_c, 0, 69, 64
2, 27720, Note_on_c, 0, 67, 107
2, 27816, Note_off_c, 0, 67, 64
2, 27840, Note_on_c, 0, 67, 107
2, 27936, Note_off_c, 0, 67, 64
2, 27960, Note_on_c, 0, 69, 107
2, 28056, Note_off_c, 0, 69, 64
2, 28080, Note_on_c, 0, 71, 107
2, 28176, Note_off_c, 0, 71, 64
2, 28200, Note_on_c, 0, 72, 107
2, 28296, Note_off_c, 0, 72, 64
2, 28320, Note_on_c, 0, 74, 107
2, 28416, Note_off_c, 0, 74, 64
2, 28440, Note_on_c, 0, 76, 107
2, 28536, Note_off_c, 0, 76, 64
2, 28560, Note_on_c, 0, 76, 107
2, 28656, Note_off_c, 0, 76, 64
2, 28680, Note_on_c, 0, 77, 107
2, 28776, Note_off_c, 0, 77, 64
2, 28800, Note_on_c, 0, 79, 107
2, 28896, Note_off_c, 0, 79, 64
2, 28920, Note_on_c, 0, 79, 107
2, 28944, Note_off_c, 0, 79, 64
2, 28950, Note_on_c, 0, 77, 107
2, 28974, Note_off_c, 0, 77, 64
2, 28980, Note_on_c, 0, 79, 107
2, 29232, Note_off_c, 0, 79, 64
2, 29280, Note_on_c, 0, 79, 107
2, 29376, Note_off_c, 0, 79, 64
2, 29400, Note_on_c, 0, 76, 107
2, 29496, Note_off_c, 0, 76, 64
2, 29520, Note_on_c, 0, 72, 107
2, 29616, Note_off_c, 0, 72, 64
2, 29640, Note_on_c, 0, 79, 107
2, 29664, Note_off_c, 0, 79, 64
2, 29670, Note_on_c, 0, 77, 107
2, 29694, Note_off_c, 0, 77, 64
2, 29700, Note_on_c, 0, 79, 107
2, 29952, Note_off_c, 0, 79, 64
2, 30000, Note_on_c, 0, 79, 107
2, 30096, Note_off_c, 0, 79, 64
2, 30120, Note_on_c, 0, 74, 107
2, 30216, Note_off_c, 0, 74, 64
2, 30240, Note_on_c, 0, 71, 107
2, 30336, Note_off_c, 0, 71, 64
2, 30360, Note_on_c, 0, 79, 107
2, 30384, Note_off_c, 0, 79, 64
2, 30390, Note_on_c, 0, 77, 107
2, 30414, Note_off_c, 0, 77, 64
2, 30420, Note_on_c, 0, 79, 107
2, 30672, Note_off_c, 0, 79, 64
2, 30720, Note_on_c, 0, 79, 107
2, 30816, Note_off_c, 0, 79, 64
2, 30840, Note_on_c, 0, 76, 107
2, 30936, Note_off_c, 0, 76, 64
2, 30960, Note_on_c, 0, 72, 107
2, 31056, Note_off_c, 0, 72, 64
2, 31080, Note_on_c, 0, 79, 107
2, 31104, Note_off_c, 0, 79, 64
2, 31110, Note_on_c, 0, 77, 107
2, 31134, Note_off_c, 0, 77, 64
2, 31140, Note_on_c, 0, 79, 107
2, 31392, Note_off_c, 0, 79, 64
2, 31440, Note_on_c, 0, 79, 107
2, 31536, Note_off_c, 0, 79, 64
2, 31560, Note_on_c, 0, 74, 107
2, 31656, Note_off_c, 0, 74, 64
2, 31680, Note_on_c, 0, 71, 107
2, 31776, Note_off_c, 0, 71, 64
2, 31800, Note_on_c, 0, 72, 107
2, 31896, Note_off_c, 0, 72, 64
2, 31920, Note_on_c, 0, 69, 107
2, 32016, Note_off_c, 0, 69, 64
2, 32040, Note_on_c, 0, 77, 107
2, 32136, Note_off_c, 0, 77, 64
2, 32160, Note_on_c, 0, 71, 107
2, 32256, Note_off_c, 0, 71, 64
2, 32280, Note_on_c, 0, 67, 107
2, 32376, Note_off_c, 0, 67, 64
2, 32400, Note_on_c, 0, 76, 107
2, 32496, Note_off_c, 0, 76, 64
2, 32520, Note_on_c, 0, 69, 107
2, 32616, Note_off_c, 0, 69, 64
2, 32640, Note_on_c, 0, 65, 107
2, 32736, Note_off_c, 0, 65, 64
2, 32760, Note_on_c, 0, 74, 107
2, 32856, Note_off_c, 0, 74, 64
2, 32880, Note_on_c, 0, 67, 107
2, 32976, Note_off_c, 0, 67, 64
2, 33000, Note_on_c, 0, 64, 107
2, 33096, Note_off_c, 0, 64, 64
2, 33120, Note_on_c, 0, 72, 107
2, 33216, Note_off_c, 0, 72, 64
2, 33240, Note_on_c, 0, 65, 107
2, 33336, Note_off_c, 0, 65, 64
2, 33360, Note_on_c, 0, 62, 107
2, 33456, Note_off_c, 0, 62, 64
2, 33480, Note_on_c, 0, 72, 107
2, 33576, Note_off_c, 0, 72, 64
2, 33600, Note_on_c, 0, 65, 107
2, 33696, Note_off_c, 0, 65, 64
2, 33720, Note_on_c, 0, 62, 107
2, 33816, Note_off_c, 0, 62, 64
2, 33840, Note_on_c, 0, 71, 107
2, 33936, Note_off_c, 0, 71, 64
2, 33960, Note_on_c, 0, 72, 107
2, 34056, Note_off_c, 0, 72, 64
2, 34080, Note_on_c, 0, 64, 107
2, 34176, Note_off_c, 0, 64, 64
2, 34200, Note_on_c, 0, 67, 107
2, 34296, Note_off_c, 0, 67, 64
2, 34320, Note_on_c, 0, 60, 107
2, 34512, Note_off_c, 0, 60, 64
2, 34560, Note_on_c, 0, 60, 107
2, 34656, Note_off_c, 0, 60, 64
2, 34680, Note_on_c, 0, 65, 107
2, 34776, Note_off_c, 0, 65, 64
2, 34800, Note_on_c, 0, 60, 107
2, 34896, Note_off_c, 0, 60, 64
2, 34920, Note_on_c, 0, 65, 107
2, 35016, Note_off_c, 0, 65, 64
2, 35040, Note_on_c, 0, 69, 107
2, 35136, Note_off_c, 0, 69, 64
2, 35160, Note_on_c, 0, 65, 107
2, 35256, Note_off_c, 0, 65, 64
2, 35280, Note_on_c, 0, 69, 107
2, 35376, Note_off_c, 0, 69, 64
2, 35400, Note_on_c, 0, 72, 107
2, 35592, Note_off_c, 0, 72, 64
2, 35640, Note_on_c, 0, 65, 107
2, 35736, Note_off_c, 0, 65, 64
2, 35760, Note_on_c, 0, 77, 107
2, 36216, Note_off_c, 0, 77, 64
2, 36240, Note_on_c, 0, 76, 107
2, 36336, Note_off_c, 0, 76, 64
2, 36360, Note_on_c, 0, 74, 107
2, 36456, Note_off_c, 0, 74, 64
2, 36480, Note_on_c, 0, 72, 107
2, 36576, Note_off_c, 0, 72, 64
2, 36600, Note_on_c, 0, 74, 107
2, 36696, Note_off_c, 0, 74, 64
2, 36720, Note_on_c, 0, 70, 107
2, 36816, Note_off_c, 0, 70, 64
2, 36840, Note_on_c, 0, 69, 107
2, 36936, Note_off_c, 0, 69, 64
2, 36960, Note_on_c, 0, 72, 107
2, 37056, Note_off_c, 0, 72, 64
2, 37080, Note_on_c, 0, 77, 107
2, 37176, Note_off_c, 0, 77, 64
2, 37200, Note_on_c, 0, 71, 107
2, 37296, Note_off_c, 0, 71, 64
2, 37320, Note_on_c, 0, 74, 107
2, 37416, Note_off_c, 0, 74, 64
2, 37440, Note_on_c, 0, 77, 107
2, 37536, Note_off_c, 0, 77, 64
2, 37560, Note_on_c, 0, 76, 107
2, 37656, Note_off_c, 0, 76, 64
2, 37680, Note_on_c, 0, 79, 107
2, 37776, Note_off_c, 0, 79, 64
2, 37800, Note_on_c, 0, 76, 107
2, 37896, Note_off_c, 0, 76, 64
2, 37920, Note_on_c, 0, 64, 107
2, 37920, Note_on_c, 0, 72, 107
2, 38016, Note_off_c, 0, 72, 64
2, 38016, Note_off_c, 0, 64, 64
2, 38040, Note_on_c, 0, 60, 107
2, 38040, Note_on_c, 0, 76, 107
2, 38136, Note_off_c, 0, 76, 64
2, 38136, Note_off_c, 0, 60, 64
2, 38160, Note_on_c, 0, 72, 107
2, 38160, Note_on_c, 0, 64, 107
2, 38256, Note_off_c, 0, 64, 64
2, 38256, Note_off_c, 0, 72, 64
2, 38280, Note_on_c, 0, 71, 107
2, 38280, Note_on_c, 0, 67, 107
2, 38376, Note_off_c, 0, 71, 64
2, 38400, Note_on_c, 0, 72, 107
2, 38472, Note_off_c, 0, 67, 64
2, 38496, Note_off_c, 0, 72, 64
2, 38520, Note_on_c, 0, 74, 107
2, 38520, Note_on_c, 0, 60, 107
2, 38616, Note_off_c, 0, 60, 64
2, 38616, Note_off_c, 0, 74, 64
2, 38640, Note_on_c, 0, 76, 107
2, 38640, Note_on_c, 0, 72, 107
2, 38736, Note_off_c, 0, 76, 64
2, 38760, Note_on_c, 0, 77, 107
2, 38856, Note_off_c, 0, 77, 64
2, 38880, Note_on_c, 0, 79, 107
2, 38976, Note_off_c, 0, 79, 64
2, 39000, Note_on_c, 0, 81, 107
2, 39096, Note_off_c, 0, 72, 64
2, 39096, Note_off_c, 0, 81, 64
2, 39120, Note_on_c, 0, 83, 107
2, 39120, Note_on_c, 0, 71, 107
2, 39216, Note_off_c, 0, 71, 64
2, 39216, Note_off_c, 0, 83, 64
2, 39240, Note_on_c, 0, 84, 107
2, 39240, Note_on_c, 0, 69, 107
2, 39336, Note_off_c, 0, 69, 64
2, 39336, Note_off_c, 0, 84, 64
2, 39360, Note_on_c, 0, 74, 107
2, 39360, Note_on_c, 0, 67, 107
2, 39456, Note_off_c, 0, 67, 64
2, 39456, Note_off_c, 0, 74, 64
2, 39480, Note_on_c, 0, 84, 107
2, 39480, Note_on_c, 0, 69, 107
2, 39576, Note_off_c, 0, 69, 64
2, 39576, Note_off_c, 0, 84, 64
2, 39600, Note_on_c, 0, 65, 107
2, 39600, Note_on_c, 0, 83, 107
2, 39696, Note_off_c, 0, 83, 64
2, 39696, Note_off_c, 0, 65, 64
2, 39720, Note_on_c, 0, 84, 107
2, 39720, Note_on_c, 0, 64, 107
2, 39816, Note_off_c, 0, 64, 64
2, 39840, Note_on_c, 0, 67, 107
2, 39936, Note_off_c, 0, 67, 64
2, 39960, Note_on_c, 0, 72, 107
2, 40008, Note_off_c, 0, 84, 64
2, 40056, Note_off_c, 0, 72, 64
2, 40080, Note_on_c, 0, 66, 107
2, 40176, Note_off_c, 0, 66, 64
2, 40200, Note_on_c, 0, 69, 107
2, 40296, Note_off_c, 0, 69, 64
2, 40320, Note_on_c, 0, 81, 107
2, 40320, Note_on_c, 0, 72, 107
2, 40416, Note_off_c, 0, 72, 64
2, 40416, Note_off_c, 0, 81, 64
2, 40440, Note_on_c, 0, 70, 107
2, 40440, Note_on_c, 0, 67, 107
2, 40536, Note_off_c, 0, 70, 64
2, 40560, Note_on_c, 0, 74, 107
2, 40656, Note_off_c, 0, 74, 64
2, 40680, Note_on_c, 0, 81, 107
2, 40728, Note_off_c, 0, 67, 64
2, 40776, Note_off_c, 0, 81, 64
2, 40800, Note_on_c, 0, 79, 107
2, 40896, Note_off_c, 0, 79, 64
2, 40920, Note_on_c, 0, 78, 107
2, 41016, Note_off_c, 0, 78, 64
2, 41040, Note_on_c, 0, 67, 107
2, 41040, Note_on_c, 0, 79, 107
2, 41136, Note_off_c, 0, 79, 64
2, 41136, Note_off_c, 0, 67, 64
2, 41160, Note_on_c, 0, 62, 107
2, 41160, Note_on_c, 0, 70, 107
2, 41256, Note_off_c, 0, 62, 64
2, 41280, Note_on_c, 0, 65, 107
2, 41376, Note_off_c, 0, 65, 64
2, 41400, Note_on_c, 0, 70, 107
2, 41448, Note_off_c, 0, 70, 64
2, 41496, Note_off_c, 0, 70, 64
2, 41520, Note_on_c, 0, 64, 107
2, 41616, Note_off_c, 0, 64, 64
2, 41640, Note_on_c, 0, 67, 107
2, 41736, Note_off_c, 0, 67, 64
2, 41760, Note_on_c, 0, 79, 107
2, 41760, Note_on_c, 0, 70, 107
2, 41856, Note_off_c, 0, 70, 64
2, 41856, Note_off_c, 0, 79, 64
2, 41880, Note_on_c, 0, 69, 107
2, 41880, Note_on_c, 0, 69, 107
2, 41976, Note_off_c, 0, 69, 64
2, 42000, Note_on_c, 0, 72, 107
2, 42072, Note_off_c, 0, 69, 64
2, 42096, Note_off_c, 0, 72, 64
2, 42120, Note_on_c, 0, 79, 107
2, 42216, Note_off_c, 0, 79, 64
2, 42240, Note_on_c, 0, 77, 107
2, 42336, Note_off_c, 0, 77, 64
2, 42360, Note_on_c, 0, 76, 107
2, 42456, Note_off_c, 0, 76, 64
2, 42480, Note_on_c, 0, 77, 107
2, 42576, Note_off_c, 0, 77, 64
2, 42600, Note_on_c, 0, 67, 107
2, 42600, Note_on_c, 0, 67, 107
2, 42696, Note_off_c, 0, 67, 64
2, 42720, Note_on_c, 0, 72, 107
2, 42792, Note_off_c, 0, 67, 64
2, 42816, Note_off_c, 0, 72, 64
2, 42840, Note_on_c, 0, 77, 107
2, 42936, Note_off_c, 0, 77, 64
2, 42960, Note_on_c, 0, 75, 107
2, 43056, Note_off_c, 0, 75, 64
2, 43080, Note_on_c, 0, 74, 107
2, 43176, Note_off_c, 0, 74, 64
2, 43200, Note_on_c, 0, 69, 107
2, 43200, Note_on_c, 0, 75, 107
2, 43296, Note_off_c, 0, 75, 64
2, 43296, Note_off_c, 0, 69, 64
2, 43320, Note_on_c, 0, 74, 107
2, 43320, Note_on_c, 0, 70, 107
2, 43512, Note_off_c, 0, 74, 64
2, 43560, Note_on_c, 0, 76, 107
2, 43608, Note_off_c, 0, 70, 64
2, 43656, Note_off_c, 0, 76, 64
2, 43680, Note_on_c, 0, 77, 107
2, 43704, Note_off_c, 0, 77, 64
2, 43710, Note_on_c, 0, 76, 107
2, 43734, Note_off_c, 0, 76, 64
2, 43740, Note_on_c, 0, 77, 107
2, 43764, Note_off_c, 0, 77, 64
2, 43770, Note_on_c, 0, 76, 107
2, 43896, Note_off_c, 0, 76, 64
2, 43920, Note_on_c, 0, 74, 107
2, 43968, Note_off_c, 0, 74, 64
2, 43980, Note_on_c, 0, 76, 107
2, 44028, Note_off_c, 0, 76, 64
2, 44040, Note_on_c, 0, 77, 107
2, 44136, Note_off_c, 0, 77, 64
2, 44160, Note_on_c, 0, 76, 107
2, 44256, Note_off_c, 0, 76, 64
2, 44280, Note_on_c, 0, 70, 107
2, 44280, Note_on_c, 0, 74, 107
2, 44376, Note_off_c, 0, 74, 64
2, 44376, Note_off_c, 0, 70, 64
2, 44400, Note_on_c, 0, 72, 107
2, 44400, Note_on_c, 0, 69, 107
2, 44496, Note_off_c, 0, 72, 64
2, 44520, Note_on_c, 0, 74, 107
2, 44592, Note_off_c, 0, 69, 64
2, 44616, Note_off_c, 0, 74, 64
2, 44640, Note_on_c, 0, 70, 107
2, 44640, Note_on_c, 0, 67, 107
2, 44736, Note_off_c, 0, 67, 64
2, 44736, Note_off_c, 0, 70, 64
2, 44760, Note_on_c, 0, 69, 107
2, 44760, Note_on_c, 0, 65, 107
2, 44856, Note_off_c, 0, 65, 64
2, 44856, Note_off_c, 0, 69, 64
2, 44880, Note_on_c, 0, 67, 107
2, 44976, Note_off_c, 0, 67, 64
2, 45000, Note_on_c, 0, 65, 107
2, 45096, Note_off_c, 0, 65, 64
2, 45120, Note_on_c, 0, 72, 107
2, 45216, Note_off_c, 0, 72, 64
2, 45240, Note_on_c, 0, 69, 107
2, 45336, Note_off_c, 0, 69, 64
2, 45360, Note_on_c, 0, 65, 107
2, 45456, Note_off_c, 0, 65, 64
2, 45480, Note_on_c, 0, 72, 107
2, 45504, Note_off_c, 0, 72, 64
2, 45510, Note_on_c, 0, 71, 107
2, 45534, Note_off_c, 0, 71, 64
2, 45540, Note_on_c, 0, 72, 107
2, 45792, Note_off_c, 0, 72, 64
2, 45840, Note_on_c, 0, 72, 107
2, 45936, Note_off_c, 0, 72, 64
2, 45960, Note_on_c, 0, 67, 107
2, 46056, Note_off_c, 0, 67, 64
2, 46080, Note_on_c, 0, 64, 107
2, 46176, Note_off_c, 0, 64, 64
2, 46200, Note_on_c, 0, 72, 107
2, 46224, Note_off_c, 0, 72, 64
2, 46230, Note_on_c, 0, 71, 107
2, 46254, Note_off_c, 0, 71, 64
2, 46260, Note_on_c, 0, 72, 107
2, 46512, Note_off_c, 0, 72, 64
2, 46560, Note_on_c, 0, 72, 107
2, 46656, Note_off_c, 0, 72, 64
2, 46680, Note_on_c, 0, 69, 107
2, 46776, Note_off_c, 0, 69, 64
2, 46800, Note_on_c, 0, 65, 107
2, 46896, Note_off_c, 0, 65, 64
2, 46920, Note_on_c, 0, 72, 107
2, 46944, Note_off_c, 0, 72, 64
2, 46950, Note_on_c, 0, 71, 107
2, 46974, Note_off_c, 0, 71, 64
2, 46980, Note_on_c, 0, 72, 107
2, 47232, Note_off_c, 0, 72, 64
2, 47520, Note_on_c, 0, 69, 107
2, 47616, Note_off_c, 0, 69, 64
2, 47640, Note_on_c, 0, 70, 107
2, 47736, Note_off_c, 0, 70, 64
2, 47760, Note_on_c, 0, 62, 107
2, 47856, Note_off_c, 0, 62, 64
2, 47880, Note_on_c, 0, 67, 107
2, 47976, Note_off_c, 0, 67, 64
2, 48000, Note_on_c, 0, 70, 107
2, 48096, Note_off_c, 0, 70, 64
2, 48120, Note_on_c, 0, 67, 107
2, 48216, Note_off_c, 0, 67, 64
2, 48240, Note_on_c, 0, 70, 107
2, 48336, Note_off_c, 0, 70, 64
2, 48360, Note_on_c, 0, 66, 107
2, 48456, Note_off_c, 0, 66, 64
2, 48480, Note_on_c, 0, 62, 107
2, 48576, Note_off_c, 0, 62, 64
2, 48600, Note_on_c, 0, 66, 107
2, 48696, Note_off_c, 0, 66, 64
2, 48720, Note_on_c, 0, 69, 107
2, 48816, Note_off_c, 0, 69, 64
2, 48840, Note_on_c, 0, 66, 107
2, 48936, Note_off_c, 0, 66, 64
2, 48960, Note_on_c, 0, 69, 107
2, 49056, Note_off_c, 0, 69, 64
2, 49080, Note_on_c, 0, 70, 107
2, 49176, Note_off_c, 0, 70, 64
2, 49200, Note_on_c, 0, 62, 107
2, 49296, Note_off_c, 0, 62, 64
2, 49320, Note_on_c, 0, 67, 107
2, 49416, Note_off_c, 0, 67, 64
2, 49440, Note_on_c, 0, 70, 107
2, 49536, Note_off_c, 0, 70, 64
2, 49560, Note_on_c, 0, 67, 107
2, 49656, Note_off_c, 0, 67, 64
2, 49680, Note_on_c, 0, 70, 107
2, 49776, Note_off_c, 0, 70, 64
2, 49800, Note_on_c, 0, 66, 107
2, 49896, Note_off_c, 0, 66, 64
2, 49920, Note_on_c, 0, 62, 107
2, 50016, Note_off_c, 0, 62, 64
2, 50040, Note_on_c, 0, 66, 107
2, 50136, Note_off_c, 0, 66, 64
2, 50160, Note_on_c, 0, 69, 107
2, 50256, Note_off_c, 0, 69, 64
2, 50280, Note_on_c, 0, 66, 107
2, 50376, Note_off_c, 0, 66, 64
2, 50400, Note_on_c, 0, 69, 107
2, 50496, Note_off_c, 0, 69, 64
2, 50520, Note_on_c, 0, 70, 107
2, 50616, Note_off_c, 0, 70, 64
2, 50640, Note_on_c, 0, 67, 107
2, 50736, Note_off_c, 0, 67, 64
2, 50760, Note_on_c, 0, 70, 107
2, 50856, Note_off_c, 0, 70, 64
2, 50880, Note_on_c, 0, 74, 107
2, 50976, Note_off_c, 0, 74, 64
2, 51000, Note_on_c, 0, 70, 107
2, 51096, Note_off_c, 0, 70, 64
2, 51120, Note_on_c, 0, 74, 107
2, 51216, Note_off_c, 0, 74, 64
2, 51240, Note_on_c, 0, 77, 107
2, 51264, Note_off_c, 0, 77, 64
2, 51270, Note_on_c, 0, 76, 107
2, 51294, Note_off_c, 0, 76, 64
2, 51300, Note_on_c, 0, 77, 107
2, 51552, Note_off_c, 0, 77, 64
2, 51600, Note_on_c, 0, 77, 107
2, 51696, Note_off_c, 0, 77, 64
2, 51720, Note_on_c, 0, 72, 107
2, 51816, Note_off_c, 0, 72, 64
2, 51840, Note_on_c, 0, 69, 107
2, 51936, Note_off_c, 0, 69, 64
2, 51960, Note_on_c, 0, 77, 107
2, 51984, Note_off_c, 0, 77, 64
2, 51990, Note_on_c, 0, 76, 107
2, 52014, Note_off_c, 0, 76, 64
2, 52020, Note_on_c, 0, 77, 107
2, 52272, Note_off_c, 0, 77, 64
2, 52320, Note_on_c, 0, 77, 107
2, 52416, Note_off_c, 0, 77, 64
2, 52440, Note_on_c, 0, 74, 107
2, 52536, Note_off_c, 0, 74, 64
2, 52560, Note_on_c, 0, 70, 107
2, 52656, Note_off_c, 0, 70, 64
2, 52680, Note_on_c, 0, 77, 107
2, 52704, Note_off_c, 0, 77, 64
2, 52710, Note_on_c, 0, 76, 107
2, 52734, Note_off_c, 0, 76, 64
2, 52740, Note_on_c, 0, 77, 107
2, 52992, Note_off_c, 0, 77, 64
2, 53280, Note_on_c, 0, 60, 107
2, 53376, Note_off_c, 0, 60, 64
2, 53400, Note_on_c, 0, 65, 107
2, 53496, Note_off_c, 0, 65, 64
2, 53520, Note_on_c, 0, 60, 107
2, 53616, Note_off_c, 0, 60, 64
2, 53640, Note_on_c, 0, 65, 107
2, 53736, Note_off_c, 0, 65, 64
2, 53760, Note_on_c, 0, 69, 107
2, 53856, Note_off_c, 0, 69, 64
2, 53880, Note_on_c, 0, 65, 107
2, 53976, Note_off_c, 0, 65, 64
2, 54000, Note_on_c, 0, 69, 107
2, 54096, Note_off_c, 0, 69, 64
2, 54120, Note_on_c, 0, 72, 107
2, 54312, Note_off_c, 0, 72, 64
2, 54360, Note_on_c, 0, 65, 107
2, 54456, Note_off_c, 0, 65, 64
2, 54480, Note_on_c, 0, 77, 107
2, 54504, Note_off_c, 0, 77, 64
2, 54510, Note_on_c, 0, 76, 107
2, 54534, Note_off_c, 0, 76, 64
2, 54540, Note_on_c, 0, 77, 107
2, 54936, Note_off_c, 0, 77, 64
2, 54960, Note_on_c, 0, 76, 107
2, 55056, Note_off_c, 0, 76, 64
2, 55080, Note_on_c, 0, 74, 107
2, 55176, Note_off_c, 0, 74, 64
2, 55200, Note_on_c, 0, 72, 107
2, 55296, Note_off_c, 0, 72, 64
2, 55320, Note_on_c, 0, 74, 107
2, 55416, Note_off_c, 0, 74, 64
2, 55440, Note_on_c, 0, 70, 107
2, 55536, Note_off_c, 0, 70, 64
2, 55560, Note_on_c, 0, 69, 107
2, 55656, Note_off_c, 0, 69, 64
2, 55680, Note_on_c, 0, 72, 107
2, 55776, Note_off_c, 0, 72, 64
2, 55800, Note_on_c, 0, 79, 107
2, 55896, Note_off_c, 0, 79, 64
2, 55920, Note_on_c, 0, 77, 107
2, 56016, Note_off_c, 0, 77, 64
2, 56040, Note_on_c, 0, 76, 107
2, 56136, Note_off_c, 0, 76, 64
2, 56160, Note_on_c, 0, 77, 107
2, 56256, Note_off_c, 0, 77, 64
2, 56280, Note_on_c, 0, 67, 107
2, 56376, Note_off_c, 0, 67, 64
2, 56400, Note_on_c, 0, 72, 107
2, 56496, Note_off_c, 0, 72, 64
2, 56520, Note_on_c, 0, 77, 107
2, 56616, Note_off_c, 0, 77, 64
2, 56640, Note_on_c, 0, 76, 107
2, 56736, Note_off_c, 0, 76, 64
2, 56760, Note_on_c, 0, 74, 107
2, 56856, Note_off_c, 0, 74, 64
2, 56880, Note_on_c, 0, 76, 107
2, 56976, Note_off_c, 0, 76, 64
2, 57000, Note_on_c, 0, 65, 107
2, 57096, Note_off_c, 0, 65, 64
2, 57120, Note_on_c, 0, 69, 107
2, 57216, Note_off_c, 0, 69, 64
2, 57240, Note_on_c, 0, 76, 107
2, 57336, Note_off_c, 0, 76, 64
2, 57360, Note_on_c, 0, 74, 107
2, 57456, Note_off_c, 0, 74, 64
2, 57480, Note_on_c, 0, 73, 107
2, 57576, Note_off_c, 0, 73, 64
2, 57600, Note_on_c, 0, 74, 107
2, 57696, Note_off_c, 0, 74, 64
2, 57720, Note_on_c, 0, 64, 107
2, 57816, Note_off_c, 0, 64, 64
2, 57840, Note_on_c, 0, 69, 107
2, 57936, Note_off_c, 0, 69, 64
2, 57960, Note_on_c, 0, 74, 107
2, 58056, Note_off_c, 0, 74, 64
2, 58080, Note_on_c, 0, 72, 107
2, 58176, Note_off_c, 0, 72, 64
2, 58200, Note_on_c, 0, 71, 107
2, 58296, Note_off_c, 0, 71, 64
2, 58320, Note_on_c, 0, 72, 107
2, 58416, Note_off_c, 0, 72, 64
2, 58440, Note_on_c, 0, 62, 107
2, 58536, Note_off_c, 0, 62, 64
2, 58560, Note_on_c, 0, 65, 107
2, 58656, Note_off_c, 0, 65, 64
2, 58680, Note_on_c, 0, 72, 107
2, 58776, Note_off_c, 0, 72, 64
2, 58800, Note_on_c, 0, 70, 107
2, 58896, Note_off_c, 0, 70, 64
2, 58920, Note_on_c, 0, 69, 107
2, 59016, Note_off_c, 0, 69, 64
2, 59040, Note_on_c, 0, 70, 107
2, 59136, Note_off_c, 0, 70, 64
2, 59160, Note_on_c, 0, 60, 107
2, 59256, Note_off_c, 0, 60, 64
2, 59280, Note_on_c, 0, 65, 107
2, 59376, Note_off_c, 0, 65, 64
2, 59400, Note_on_c, 0, 70, 107
2, 59496, Note_off_c, 0, 70, 64
2, 59520, Note_on_c, 0, 69, 107
2, 59616, Note_off_c, 0, 69, 64
2, 59640, Note_on_c, 0, 67, 107
2, 59736, Note_off_c, 0, 67, 64
2, 59760, Note_on_c, 0, 69, 107
2, 59856, Note_off_c, 0, 69, 64
2, 59880, Note_on_c, 0, 59, 107
2, 59976, Note_off_c, 0, 59, 64
2, 60000, Note_on_c, 0, 62, 107
2, 60096, Note_off_c, 0, 62, 64
2, 60120, Note_on_c, 0, 67, 107
2, 60216, Note_off_c, 0, 67, 64
2, 60240, Note_on_c, 0, 60, 107
2, 60336, Note_off_c, 0, 60, 64
2, 60360, Note_on_c, 0, 64, 107
2, 60456, Note_off_c, 0, 64, 64
2, 60480, Note_on_c, 0, 67, 107
2, 60576, Note_off_c, 0, 67, 64
2, 60600, Note_on_c, 0, 57, 107
2, 60696, Note_off_c, 0, 57, 64
2, 60720, Note_on_c, 0, 60, 107
2, 60816, Note_off_c, 0, 60, 64
2, 60840, Note_on_c, 0, 65, 107
2, 60936, Note_off_c, 0, 65, 64
2, 60960, Note_on_c, 0, 59, 107
2, 61056, Note_off_c, 0, 59, 64
2, 61080, Note_on_c, 0, 62, 107
2, 61176, Note_off_c, 0, 62, 64
2, 61200, Note_on_c, 0, 65, 107
2, 61296, Note_off_c, 0, 65, 64
2, 61320, Note_on_c, 0, 64, 107
2, 61416, Note_off_c, 0, 64, 64
2, 61440, Note_on_c, 0, 67, 107
2, 61536, Note_off_c, 0, 67, 64
2, 61560, Note_on_c, 0, 72, 107
2, 61656, Note_off_c, 0, 72, 64
2, 61680, Note_on_c, 0, 66, 107
2, 61776, Note_off_c, 0, 66, 64
2, 61800, Note_on_c, 0, 69, 107
2, 61896, Note_off_c, 0, 69, 64
2, 61920, Note_on_c, 0, 72, 107
2, 62016, Note_off_c, 0, 72, 64
2, 62040, Note_on_c, 0, 71, 107
2, 62136, Note_off_c, 0, 71, 64
2, 62160, Note_on_c, 0, 69, 107
2, 62256, Note_off_c, 0, 69, 64
2, 62280, Note_on_c, 0, 67, 107
2, 62376, Note_off_c, 0, 67, 64
2, 62400, Note_on_c, 0, 67, 107
2, 62496, Note_off_c, 0, 67, 64
2, 62520, Note_on_c, 0, 69, 107
2, 62616, Note_off_c, 0, 69, 64
2, 62640, Note_on_c, 0, 71, 107
2, 62736, Note_off_c, 0, 71, 64
2, 62760, Note_on_c, 0, 72, 107
2, 62856, Note_off_c, 0, 72, 64
2, 62880, Note_on_c, 0, 74, 107
2, 62976, Note_off_c, 0, 74, 64
2, 63000, Note_on_c, 0, 76, 107
2, 63096, Note_off_c, 0, 76, 64
2, 63120, Note_on_c, 0, 76, 107
2, 63216, Note_off_c, 0, 76, 64
2, 63240, Note_on_c, 0, 77, 107
2, 63336, Note_off_c, 0, 77, 64
2, 63360, Note_on_c, 0, 79, 107
2, 63456, Note_off_c, 0, 79, 64
2, 63480, Note_on_c, 0, 79, 107
2, 63504, Note_off_c, 0, 79, 64
2, 63510, Note_on_c, 0, 77, 107
2, 63534, Note_off_c, 0, 77, 64
2, 63540, Note_on_c, 0, 79, 107
2, 63792, Note_off_c, 0, 79, 64
2, 63840, Note_on_c, 0, 79, 107
2, 63936, Note_off_c, 0, 79, 64
2, 63960, Note_on_c, 0, 76, 107
2, 64056, Note_off_c, 0, 76, 64
2, 64080, Note_on_c, 0, 72, 107
2, 64176, Note_off_c, 0, 72, 64
2, 64200, Note_on_c, 0, 79, 107
2, 64224, Note_off_c, 0, 79, 64
2, 64230, Note_on_c, 0, 77, 107
2, 64254, Note_off_c, 0, 77, 64
2, 64260, Note_on_c, 0, 79, 107
2, 64512, Note_off_c, 0, 79, 64
2, 64560, Note_on_c, 0, 79, 107
2, 64656, Note_off_c, 0, 79, 64
2, 64680, Note_on_c, 0, 74, 107
2, 64776, Note_off_c, 0, 74, 64
2, 64800, Note_on_c, 0, 71, 107
2, 64896, Note_off_c, 0, 71, 64
2, 64920, Note_on_c, 0, 79, 107
2, 64944, Note_off_c, 0, 79, 64
2, 64950, Note_on_c, 0, 77, 107
2, 64974, Note_off_c, 0, 77, 64
2, 64980, Note_on_c, 0, 79, 107
2, 65232, Note_off_c, 0, 79, 64
2, 65280, Note_on_c, 0, 79, 107
2, 65376, Note_off_c, 0, 79, 64
2, 65400, Note_on_c, 0, 76, 107
2, 65496, Note_off_c, 0, 76, 64
2, 65520, Note_on_c, 0, 72, 107
2, 65616, Note_off_c, 0, 72, 64
2, 65640, Note_on_c, 0, 79, 107
2, 65664, Note_off_c, 0, 79, 64
2, 65670, Note_on_c, 0, 77, 107
2, 65694, Note_off_c, 0, 77, 64
2, 65700, Note_on_c, 0, 79, 107
2, 65952, Note_off_c, 0, 79, 64
2, 66000, Note_on_c, 0, 79, 107
2, 66096, Note_off_c, 0, 79, 64
2, 66120, Note_on_c, 0, 74, 107
2, 66216, Note_off_c, 0, 74, 64
2, 66240, Note_on_c, 0, 71, 107
2, 66336, Note_off_c, 0, 71, 64
2, 66360, Note_on_c, 0, 72, 107
2, 66456, Note_off_c, 0, 72, 64
2, 66480, Note_on_c, 0, 69, 107
2, 66576, Note_off_c, 0, 69, 64
2, 66600, Note_on_c, 0, 77, 107
2, 66696, Note_off_c, 0, 77, 64
2, 66720, Note_on_c, 0, 71, 107
2, 66816, Note_off_c, 0, 71, 64
2, 66840, Note_on_c, 0, 67, 107
2, 66936, Note_off_c, 0, 67, 64
2, 66960, Note_on_c, 0, 76, 107
2, 67056, Note_off_c, 0, 76, 64
2, 67080, Note_on_c, 0, 69, 107
2, 67176, Note_off_c, 0, 69, 64
2, 67200, Note_on_c, 0, 65, 107
2, 67296, Note_off_c, 0, 65, 64
2, 67320, Note_on_c, 0, 74, 107
2, 67416, Note_off_c, 0, 74, 64
2, 67440, Note_on_c, 0, 67, 107
2, 67536, Note_off_c, 0, 67, 64
2, 67560, Note_on_c, 0, 64, 107
2, 67656, Note_off_c, 0, 64, 64
2, 67680, Note_on_c, 0, 72, 107
2, 67776, Note_off_c, 0, 72, 64
2, 67800, Note_on_c, 0, 65, 107
2, 67896, Note_off_c, 0, 65, 64
2, 67920, Note_on_c, 0, 62, 107
2, 68016, Note_off_c, 0, 62, 64
2, 68040, Note_on_c, 0, 72, 107
2, 68136, Note_off_c, 0, 72, 64
2, 68160, Note_on_c, 0, 65, 107
2, 68256, Note_off_c, 0, 65, 64
2, 68280, Note_on_c, 0, 62, 107
2, 68376, Note_off_c, 0, 62, 64
2, 68400, Note_on_c, 0, 71, 107
2, 68496, Note_off_c, 0, 71, 64
2, 68520, Note_on_c, 0, 72, 107
2, 68616, Note_off_c, 0, 72, 64
2, 68640, Note_on_c, 0, 64, 107
2, 68736, Note_off_c, 0, 64, 64
2, 68760, Note_on_c, 0, 67, 107
2, 68856, Note_off_c, 0, 67, 64
2, 68880, Note_on_c, 0, 60, 107
2, 69072, Note_off_c, 0, 60, 64
2, 69120, Note_on_c, 0, 67, 107
2, 69216, Note_off_c, 0, 67, 64
2, 69240, Note_on_c, 0, 64, 107
2, 69336, Note_off_c, 0, 64, 64
2, 69360, Note_on_c, 0, 67, 107
2, 69456, Note_off_c, 0, 67, 64
2, 69480, Note_on_c, 0, 64, 107
2, 69576, Note_off_c, 0, 64, 64
2, 69600, Note_on_c, 0, 60, 107
2, 69696, Note_off_c, 0, 60, 64
2, 69720, Note_on_c, 0, 64, 107
2, 69816, Note_off_c, 0, 64, 64
2, 69840, Note_on_c, 0, 79, 107
2, 69840, Note_on_c, 0, 60, 107
2, 69936, Note_off_c, 0, 60, 64
2, 69936, Note_off_c, 0, 79, 64
2, 69960, Note_on_c, 0, 76, 107
2, 70056, Note_off_c, 0, 76, 64
2, 70080, Note_on_c, 0, 79, 107
2, 70176, Note_off_c, 0, 79, 64
2, 70200, Note_on_c, 0, 76, 107
2, 70296, Note_off_c, 0, 76, 64
2, 70320, Note_on_c, 0, 72, 107
2, 70416, Note_off_c, 0, 72, 64
2, 70440, Note_on_c, 0, 76, 107
2, 70536, Note_off_c, 0, 76, 64
2, 70560, Note_on_c, 0, 72, 107
2, 70656, Note_off_c, 0, 72, 64
2, 70680, Note_on_c, 0, 67, 107
2, 70776, Note_off_c, 0, 67, 64
2, 70800, Note_on_c, 0, 72, 107
2, 70896, Note_off_c, 0, 72, 64
2, 70920, Note_on_c, 0, 70, 107
2, 71016, Note_off_c, 0, 70, 64
2, 71040, Note_on_c, 0, 69, 107
2, 71136, Note_off_c, 0, 69, 64
2, 71160, Note_on_c, 0, 70, 107
2, 71256, Note_off_c, 0, 70, 64
2, 71280, Note_on_c, 0, 67, 107
2, 71376, Note_off_c, 0, 67, 64
2, 71400, Note_on_c, 0, 65, 107
2, 71496, Note_off_c, 0, 65, 64
2, 71520, Note_on_c, 0, 64, 107
2, 71616, Note_off_c, 0, 64, 64
2, 71640, Note_on_c, 0, 67, 107
2, 71736, Note_off_c, 0, 67, 64
2, 71760, Note_on_c, 0, 65, 107
2, 71952, Note_off_c, 0, 65, 64
2, 72000, Note_on_c, 0, 84, 107
2, 72096, Note_off_c, 0, 84, 64
2, 72120, Note_on_c, 0, 81, 107
2, 72216, Note_off_c, 0, 81, 64
2, 72240, Note_on_c, 0, 84, 107
2, 72336, Note_off_c, 0, 84, 64
2, 72360, Note_on_c, 0, 81, 107
2, 72456, Note_off_c, 0, 81, 64
2, 72480, Note_on_c, 0, 77, 107
2, 72576, Note_off_c, 0, 77, 64
2, 72600, Note_on_c, 0, 81, 107
2, 72696, Note_off_c, 0, 81, 64
2, 72720, Note_on_c, 0, 77, 107
2, 72816, Note_off_c, 0, 77, 64
2, 72840, Note_on_c, 0, 72, 107
2, 73032, Note_off_c, 0, 72, 64
2, 73080, Note_on_c, 0, 77, 107
2, 73176, Note_off_c, 0, 77, 64
2, 73200, Note_on_c, 0, 65, 107
2, 73656, Note_off_c, 0, 65, 64
2, 73680, Note_on_c, 0, 67, 107
2, 73776, Note_off_c, 0, 67, 64
2, 73800, Note_on_c, 0, 69, 107
2, 73896, Note_off_c, 0, 69, 64
2, 73920, Note_on_c, 0, 70, 107
2, 74016, Note_off_c, 0, 70, 64
2, 74040, Note_on_c, 0, 69, 107
2, 74136, Note_off_c, 0, 69, 64
2, 74160, Note_on_c, 0, 72, 107
2, 74256, Note_off_c, 0, 72, 64
2, 74280, Note_on_c, 0, 74, 107
2, 74376, Note_off_c, 0, 74, 64
2, 74400, Note_on_c, 0, 72, 107
2, 74496, Note_off_c, 0, 72, 64
2, 74520, Note_on_c, 0, 75, 107
2, 74616, Note_off_c, 0, 75, 64
2, 74640, Note_on_c, 0, 74, 107
2, 74736, Note_off_c, 0, 74, 64
2, 74760, Note_on_c, 0, 76, 107
2, 74856, Note_off_c, 0, 76, 64
2, 74880, Note_on_c, 0, 78, 107
2, 74976, Note_off_c, 0, 78, 64
2, 75000, Note_on_c, 0, 79, 107
2, 75096, Note_off_c, 0, 79, 64
2, 75120, Note_on_c, 0, 78, 107
2, 75216, Note_off_c, 0, 78, 64
2, 75240, Note_on_c, 0, 81, 107
2, 75336, Note_off_c, 0, 81, 64
2, 75360, Note_on_c, 0, 79, 107
2, 75456, Note_off_c, 0, 79, 64
2, 75480, Note_on_c, 0, 77, 107
2, 75576, Note_off_c, 0, 77, 64
2, 75600, Note_on_c, 0, 76, 107
2, 75696, Note_off_c, 0, 76, 64
2, 75720, Note_on_c, 0, 77, 107
2, 75816, Note_off_c, 0, 77, 64
2, 75840, Note_on_c, 0, 76, 107
2, 75936, Note_off_c, 0, 76, 64
2, 75960, Note_on_c, 0, 79, 107
2, 76056, Note_off_c, 0, 79, 64
2, 76080, Note_on_c, 0, 77, 107
2, 76176, Note_off_c, 0, 77, 64
2, 76200, Note_on_c, 0, 76, 107
2, 76296, Note_off_c, 0, 76, 64
2, 76320, Note_on_c, 0, 74, 107
2, 76416, Note_off_c, 0, 74, 64
2, 76440, Note_on_c, 0, 73, 107
2, 76536, Note_off_c, 0, 73, 64
2, 76560, Note_on_c, 0, 71, 107
2, 76656, Note_off_c, 0, 71, 64
2, 76680, Note_on_c, 0, 74, 107
2, 76776, Note_off_c, 0, 74, 64
2, 76800, Note_on_c, 0, 73, 107
2, 76896, Note_off_c, 0, 73, 64
2, 76920, Note_on_c, 0, 69, 107
2, 77016, Note_off_c, 0, 69, 64
2, 77040, Note_on_c, 0, 73, 107
2, 77136, Note_off_c, 0, 73, 64
2, 77160, Note_on_c, 0, 74, 107
2, 77256, Note_off_c, 0, 74, 64
2, 77280, Note_on_c, 0, 73, 107
2, 77376, Note_off_c, 0, 73, 64
2, 77400, Note_on_c, 0, 76, 107
2, 77496, Note_off_c, 0, 76, 64
2, 77520, Note_on_c, 0, 74, 107
2, 77616, Note_off_c, 0, 74, 64
2, 77640, Note_on_c, 0, 69, 107
2, 77736, Note_off_c, 0, 69, 64
2, 77760, Note_on_c, 0, 74, 107
2, 77856, Note_off_c, 0, 74, 64
2, 77880, Note_on_c, 0, 76, 107
2, 77976, Note_off_c, 0, 76, 64
2, 78000, Note_on_c, 0, 74, 107
2, 78096, Note_off_c, 0, 74, 64
2, 78120, Note_on_c, 0, 77, 107
2, 78216, Note_off_c, 0, 77, 64
2, 78240, Note_on_c, 0, 76, 107
2, 78336, Note_off_c, 0, 76, 64
2, 78360, Note_on_c, 0, 69, 107
2, 78456, Note_off_c, 0, 69, 64
2, 78480, Note_on_c, 0, 76, 107
2, 78576, Note_off_c, 0, 76, 64
2, 78600, Note_on_c, 0, 77, 107
2, 78696, Note_off_c, 0, 77, 64
2, 78720, Note_on_c, 0, 76, 107
2, 78816, Note_off_c, 0, 76, 64
2, 78840, Note_on_c, 0, 79, 107
2, 78936, Note_off_c, 0, 79, 64
2, 78960, Note_on_c, 0, 77, 107
2, 79056, Note_off_c, 0, 77, 64
2, 79080, Note_on_c, 0, 76, 107
2, 79176, Note_off_c, 0, 76, 64
2, 79200, Note_on_c, 0, 74, 107
2, 79296, Note_off_c, 0, 74, 64
2, 79320, Note_on_c, 0, 73, 107
2, 79416, Note_off_c, 0, 73, 64
2, 79440, Note_on_c, 0, 76, 107
2, 79536, Note_off_c, 0, 76, 64
2, 79560, Note_on_c, 0, 74, 107
2, 79656, Note_off_c, 0, 74, 64
2, 79680, Note_on_c, 0, 73, 107
2, 79776, Note_off_c, 0, 73, 64
2, 79800, Note_on_c, 0, 76, 107
2, 79896, Note_off_c, 0, 76, 64
2, 79920, Note_on_c, 0, 74, 107
2, 80016, Note_off_c, 0, 74, 64
2, 80040, Note_on_c, 0, 73, 107
2, 80136, Note_off_c, 0, 73, 64
2, 80160, Note_on_c, 0, 76, 107
2, 80256, Note_off_c, 0, 76, 64
2, 80280, Note_on_c, 0, 74, 107
2, 80376, Note_off_c, 0, 74, 64
2, 80400, Note_on_c, 0, 74, 107
2, 80424, Note_off_c, 0, 74, 64
2, 80430, Note_on_c, 0, 73, 107
2, 80454, Note_off_c, 0, 73, 64
2, 80460, Note_on_c, 0, 74, 107
2, 80484, Note_off_c, 0, 74, 64
2, 80490, Note_on_c, 0, 73, 107
2, 80616, Note_off_c, 0, 73, 64
2, 80640, Note_on_c, 0, 69, 107
2, 80736, Note_off_c, 0, 69, 64
2, 80760, Note_on_c, 0, 81, 107
2, 80952, Note_off_c, 0, 81, 64
2, 81000, Note_on_c, 0, 69, 107
2, 81096, Note_off_c, 0, 69, 64
2, 81120, Note_on_c, 0, 81, 107
2, 81672, Note_off_c, 0, 81, 64
2, 81720, Note_on_c, 0, 69, 107
2, 81816, Note_off_c, 0, 69, 64
2, 81840, Note_on_c, 0, 81, 107
2, 82065, Note_off_c, 0, 81, 64
2, 82080, Note_on_c, 0, 69, 107
2, 82176, Note_off_c, 0, 69, 64
2, 82200, Note_on_c, 0, 81, 107
2, 82392, Note_off_c, 0, 81, 64
2, 82440, Note_on_c, 0, 69, 107
2, 82536, Note_off_c, 0, 69, 64
2, 82560, Note_on_c, 0, 81, 107
2, 83112, Note_off_c, 0, 81, 64
2, 83160, Note_on_c, 0, 69, 107
2, 83256, Note_off_c, 0, 69, 64
2, 83280, Note_on_c, 0, 81, 107
2, 83505, Note_off_c, 0, 81, 64
2, 83520, Note_on_c, 0, 76, 107
2, 83616, Note_off_c, 0, 76, 64
2, 83640, Note_on_c, 0, 77, 107
2, 83688, Note_off_c, 0, 77, 64
2, 83700, Note_on_c, 0, 79, 107
2, 83748, Note_off_c, 0, 79, 64
2, 83760, Note_on_c, 0, 81, 107
2, 83856, Note_off_c, 0, 81, 64
2, 83880, Note_on_c, 0, 74, 107
2, 83976, Note_off_c, 0, 74, 64
2, 84000, Note_on_c, 0, 69, 107
2, 84096, Note_off_c, 0, 69, 64
2, 84120, Note_on_c, 0, 74, 107
2, 84216, Note_off_c, 0, 74, 64
2, 84240, Note_on_c, 0, 73, 107
2, 84336, Note_off_c, 0, 73, 64
2, 84360, Note_on_c, 0, 74, 107
2, 84912, Note_off_c, 0, 74, 64
2, 84960, Note_on_c, 0, 74, 107
2, 85056, Note_off_c, 0, 74, 64
2, 85080, Note_on_c, 0, 72, 107
2, 85176, Note_off_c, 0, 72, 64
2, 85200, Note_on_c, 0, 77, 107
2, 85296, Note_off_c, 0, 77, 64
2, 85320, Note_on_c, 0, 72, 107
2, 85416, Note_off_c, 0, 72, 64
2, 85440, Note_on_c, 0, 69, 107
2, 85536, Note_off_c, 0, 69, 64
2, 85560, Note_on_c, 0, 72, 107
2, 85656, Note_off_c, 0, 72, 64
2, 85680, Note_on_c, 0, 69, 107
2, 85776, Note_off_c, 0, 69, 64
2, 85800, Note_on_c, 0, 65, 107
2, 85992, Note_off_c, 0, 65, 64
2, 86040, Note_on_c, 0, 72, 107
2, 86136, Note_off_c, 0, 72, 64
2, 86160, Note_on_c, 0, 60, 107
2, 86616, Note_off_c, 0, 60, 64
2, 86640, Note_on_c, 0, 62, 107
2, 86736, Note_off_c, 0, 62, 64
2, 86760, Note_on_c, 0, 63, 107
2, 86856, Note_off_c, 0, 63, 64
2, 86880, Note_on_c, 0, 65, 107
2, 86976, Note_off_c, 0, 65, 64
2, 87000, Note_on_c, 0, 67, 107
2, 87096, Note_off_c, 0, 67, 64
2, 87120, Note_on_c, 0, 63, 107
2, 87216, Note_off_c, 0, 63, 64
2, 87240, Note_on_c, 0, 62, 107
2, 87336, Note_off_c, 0, 62, 64
2, 87360, Note_on_c, 0, 65, 107
2, 87456, Note_off_c, 0, 65, 64
2, 87480, Note_on_c, 0, 72, 107
2, 87576, Note_off_c, 0, 72, 64
2, 87600, Note_on_c, 0, 70, 107
2, 87696, Note_off_c, 0, 70, 64
2, 87720, Note_on_c, 0, 69, 107
2, 87816, Note_off_c, 0, 69, 64
2, 87840, Note_on_c, 0, 70, 107
2, 87936, Note_off_c, 0, 70, 64
2, 87960, Note_on_c, 0, 60, 107
2, 88056, Note_off_c, 0, 60, 64
2, 88080, Note_on_c, 0, 65, 107
2, 88176, Note_off_c, 0, 65, 64
2, 88200, Note_on_c, 0, 70, 107
2, 88296, Note_off_c, 0, 70, 64
2, 88320, Note_on_c, 0, 69, 107
2, 88416, Note_off_c, 0, 69, 64
2, 88440, Note_on_c, 0, 67, 107
2, 88536, Note_off_c, 0, 67, 64
2, 88560, Note_on_c, 0, 69, 107
2, 88656, Note_off_c, 0, 69, 64
2, 88680, Note_on_c, 0, 58, 107
2, 88776, Note_off_c, 0, 58, 64
2, 88800, Note_on_c, 0, 62, 107
2, 88896, Note_off_c, 0, 62, 64
2, 88920, Note_on_c, 0, 69, 107
2, 89016, Note_off_c, 0, 69, 64
2, 89040, Note_on_c, 0, 67, 107
2, 89136, Note_off_c, 0, 67, 64
2, 89160, Note_on_c, 0, 66, 107
2, 89256, Note_off_c, 0, 66, 64
2, 89280, Note_on_c, 0, 67, 107
2, 89376, Note_off_c, 0, 67, 64
2, 89400, Note_on_c, 0, 66, 107
2, 89592, Note_off_c, 0, 66, 64
2, 89640, Note_on_c, 0, 62, 107
2, 89736, Note_off_c, 0, 62, 64
2, 89760, Note_on_c, 0, 74, 107
2, 90312, Note_off_c, 0, 74, 64
2, 90360, Note_on_c, 0, 62, 107
2, 90456, Note_off_c, 0, 62, 64
2, 90480, Note_on_c, 0, 74, 107
2, 90672, Note_off_c, 0, 74, 64
2, 90720, Note_on_c, 0, 62, 107
2, 90816, Note_off_c, 0, 62, 64
2, 90840, Note_on_c, 0, 74, 107
2, 91032, Note_off_c, 0, 74, 64
2, 91080, Note_on_c, 0, 62, 107
2, 91176, Note_off_c, 0, 62, 64
2, 91200, Note_on_c, 0, 74, 107
2, 91752, Note_off_c, 0, 74, 64
2, 91800, Note_on_c, 0, 62, 107
2, 91896, Note_off_c, 0, 62, 64
2, 91920, Note_on_c, 0, 74, 107
2, 92016, Note_off_c, 0, 74, 64
2, 92040, Note_on_c, 0, 76, 107
2, 92136, Note_off_c, 0, 76, 64
2, 92160, Note_on_c, 0, 78, 107
2, 92256, Note_off_c, 0, 78, 64
2, 92280, Note_on_c, 0, 79, 107
2, 92376, Note_off_c, 0, 79, 64
2, 92400, Note_on_c, 0, 78, 107
2, 92496, Note_off_c, 0, 78, 64
2, 92520, Note_on_c, 0, 81, 107
2, 92616, Note_off_c, 0, 81, 64
2, 92640, Note_on_c, 0, 79, 107
2, 92736, Note_off_c, 0, 79, 64
2, 92760, Note_on_c, 0, 74, 107
2, 92856, Note_off_c, 0, 74, 64
2, 92880, Note_on_c, 0, 79, 107
2, 92976, Note_off_c, 0, 79, 64
2, 93000, Note_on_c, 0, 81, 107
2, 93096, Note_off_c, 0, 81, 64
2, 93120, Note_on_c, 0, 79, 107
2, 93216, Note_off_c, 0, 79, 64
2, 93240, Note_on_c, 0, 82, 107
2, 93336, Note_off_c, 0, 82, 64
2, 93360, Note_on_c, 0, 81, 107
2, 93456, Note_off_c, 0, 81, 64
2, 93480, Note_on_c, 0, 74, 107
2, 93576, Note_off_c, 0, 74, 64
2, 93600, Note_on_c, 0, 81, 107
2, 93696, Note_off_c, 0, 81, 64
2, 93720, Note_on_c, 0, 82, 107
2, 93816, Note_off_c, 0, 82, 64
2, 93840, Note_on_c, 0, 81, 107
2, 93936, Note_off_c, 0, 81, 64
2, 93960, Note_on_c, 0, 84, 107
2, 94056, Note_off_c, 0, 84, 64
2, 94080, Note_on_c, 0, 82, 107
2, 94176, Note_off_c, 0, 82, 64
2, 94200, Note_on_c, 0, 81, 107
2, 94296, Note_off_c, 0, 81, 64
2, 94320, Note_on_c, 0, 79, 107
2, 94416, Note_off_c, 0, 79, 64
2, 94440, Note_on_c, 0, 78, 107
2, 94536, Note_off_c, 0, 78, 64
2, 94560, Note_on_c, 0, 76, 107
2, 94656, Note_off_c, 0, 76, 64
2, 94680, Note_on_c, 0, 74, 107
2, 94776, Note_off_c, 0, 74, 64
2, 94800, Note_on_c, 0, 81, 107
2, 94992, Note_off_c, 0, 81, 64
2, 95040, Note_on_c, 0, 72, 107
2, 95136, Note_off_c, 0, 72, 64
2, 95160, Note_on_c, 0, 70, 107
2, 95208, Note_off_c, 0, 70, 64
2, 95220, Note_on_c, 0, 72, 107
2, 95268, Note_off_c, 0, 72, 64
2, 95280, Note_on_c, 0, 74, 107
2, 95376, Note_off_c, 0, 74, 64
2, 95400, Note_on_c, 0, 67, 107
2, 95496, Note_off_c, 0, 67, 64
2, 95520, Note_on_c, 0, 62, 107
2, 95616, Note_off_c, 0, 62, 64
2, 95640, Note_on_c, 0, 67, 107
2, 95736, Note_off_c, 0, 67, 64
2, 95760, Note_on_c, 0, 66, 107
2, 95856, Note_off_c, 0, 66, 64
2, 95880, Note_on_c, 0, 67, 107
2, 96168, Note_off_c, 0, 67, 64
2, 96480, Note_on_c, 0, 70, 107
2, 96576, Note_off_c, 0, 70, 64
2, 96600, Note_on_c, 0, 60, 107
2, 96696, Note_off_c, 0, 60, 64
2, 96720, Note_on_c, 0, 64, 107
2, 96816, Note_off_c, 0, 64, 64
2, 96840, Note_on_c, 0, 67, 107
2, 96936, Note_off_c, 0, 67, 64
2, 96960, Note_on_c, 0, 70, 107
2, 97056, Note_off_c, 0, 70, 64
2, 97080, Note_on_c, 0, 67, 107
2, 97176, Note_off_c, 0, 67, 64
2, 97200, Note_on_c, 0, 69, 107
2, 97296, Note_off_c, 0, 69, 64
2, 97320, Note_on_c, 0, 69, 107
2, 97416, Note_off_c, 0, 69, 64
2, 97440, Note_on_c, 0, 64, 107
2, 97536, Note_off_c, 0, 64, 64
2, 97560, Note_on_c, 0, 65, 107
2, 97656, Note_off_c, 0, 65, 64
2, 97680, Note_on_c, 0, 69, 107
2, 97776, Note_off_c, 0, 69, 64
2, 97800, Note_on_c, 0, 64, 107
2, 97896, Note_off_c, 0, 64, 64
2, 97920, Note_on_c, 0, 65, 107
2, 98016, Note_off_c, 0, 65, 64
2, 98040, Note_on_c, 0, 58, 107
2, 98136, Note_off_c, 0, 58, 64
2, 98160, Note_on_c, 0, 62, 107
2, 98256, Note_off_c, 0, 62, 64
2, 98280, Note_on_c, 0, 65, 107
2, 98376, Note_off_c, 0, 65, 64
2, 98400, Note_on_c, 0, 69, 107
2, 98496, Note_off_c, 0, 69, 64
2, 98520, Note_on_c, 0, 65, 107
2, 98616, Note_off_c, 0, 65, 64
2, 98640, Note_on_c, 0, 67, 107
2, 98736, Note_off_c, 0, 67, 64
2, 98760, Note_on_c, 0, 67, 107
2, 98856, Note_off_c, 0, 67, 64
2, 98880, Note_on_c, 0, 62, 107
2, 98976, Note_off_c, 0, 62, 64
2, 99000, Note_on_c, 0, 64, 107
2, 99096, Note_off_c, 0, 64, 64
2, 99120, Note_on_c, 0, 67, 107
2, 99216, Note_off_c, 0, 67, 64
2, 99240, Note_on_c, 0, 62, 107
2, 99336, Note_off_c, 0, 62, 64
2, 99360, Note_on_c, 0, 64, 107
2, 99456, Note_off_c, 0, 64, 64
2, 99480, Note_on_c, 0, 57, 107
2, 99576, Note_off_c, 0, 57, 64
2, 99600, Note_on_c, 0, 60, 107
2, 99696, Note_off_c, 0, 60, 64
2, 99720, Note_on_c, 0, 64, 107
2, 99816, Note_off_c, 0, 64, 64
2, 99840, Note_on_c, 0, 67, 107
2, 99936, Note_off_c, 0, 67, 64
2, 99960, Note_on_c, 0, 64, 107
2, 100056, Note_off_c, 0, 64, 64
2, 100080, Note_on_c, 0, 65, 107
2, 100176, Note_off_c, 0, 65, 64
2, 100200, Note_on_c, 0, 55, 107
2, 100296, Note_off_c, 0, 55, 64
2, 100320, Note_on_c, 0, 58, 107
2, 100416, Note_off_c, 0, 58, 64
2, 100440, Note_on_c, 0, 62, 107
2, 100536, Note_off_c, 0, 62, 64
2, 100560, Note_on_c, 0, 65, 107
2, 100656, Note_off_c, 0, 65, 64
2, 100680, Note_on_c, 0, 62, 107
2, 100776, Note_off_c, 0, 62, 64
2, 100800, Note_on_c, 0, 64, 107
2, 100896, Note_off_c, 0, 64, 64
2, 100920, Note_on_c, 0, 53, 107
2, 101016, Note_off_c, 0, 53, 64
2, 101040, Note_on_c, 0, 57, 107
2, 101136, Note_off_c, 0, 57, 64
2, 101160, Note_on_c, 0, 60, 107
2, 101256, Note_off_c, 0, 60, 64
2, 101280, Note_on_c, 0, 67, 107
2, 101376, Note_off_c, 0, 67, 64
2, 101400, Note_on_c, 0, 64, 107
2, 101496, Note_off_c, 0, 64, 64
2, 101520, Note_on_c, 0, 65, 107
2, 101616, Note_off_c, 0, 65, 64
2, 101640, Note_on_c, 0, 69, 107
2, 101736, Note_off_c, 0, 69, 64
2, 101760, Note_on_c, 0, 64, 107
2, 101856, Note_off_c, 0, 64, 64
2, 101880, Note_on_c, 0, 65, 107
2, 101976, Note_off_c, 0, 65, 64
2, 102000, Note_on_c, 0, 71, 107
2, 102096, Note_off_c, 0, 71, 64
2, 102120, Note_on_c, 0, 64, 107
2, 102216, Note_off_c, 0, 64, 64
2, 102240, Note_on_c, 0, 65, 107
2, 102336, Note_off_c, 0, 65, 64
2, 102360, Note_on_c, 0, 72, 107
2, 102456, Note_off_c, 0, 72, 64
2, 102480, Note_on_c, 0, 64, 107
2, 102576, Note_off_c, 0, 64, 64
2, 102600, Note_on_c, 0, 67, 107
2, 102696, Note_off_c, 0, 67, 64
2, 102720, Note_on_c, 0, 72, 107
2, 102816, Note_off_c, 0, 72, 64
2, 102840, Note_on_c, 0, 74, 107
2, 102936, Note_off_c, 0, 74, 64
2, 102960, Note_on_c, 0, 76, 107
2, 103056, Note_off_c, 0, 76, 64
2, 103080, Note_on_c, 0, 77, 107
2, 103176, Note_off_c, 0, 77, 64
2, 103200, Note_on_c, 0, 79, 107
2, 103296, Note_off_c, 0, 79, 64
2, 103320, Note_on_c, 0, 81, 107
2, 103416, Note_off_c, 0, 81, 64
2, 103440, Note_on_c, 0, 81, 107
2, 103536, Note_off_c, 0, 81, 64
2, 103560, Note_on_c, 0, 82, 107
2, 103656, Note_off_c, 0, 82, 64
2, 103680, Note_on_c, 0, 84, 107
2, 103776, Note_off_c, 0, 84, 64
2, 103800, Note_on_c, 0, 84, 107
2, 103824, Note_off_c, 0, 84, 64
2, 103830, Note_on_c, 0, 83, 107
2, 103854, Note_off_c, 0, 83, 64
2, 103860, Note_on_c, 0, 84, 107
2, 104145, Note_off_c, 0, 84, 64
2, 104160, Note_on_c, 0, 84, 107
2, 104256, Note_off_c, 0, 84, 64
2, 104280, Note_on_c, 0, 81, 107
2, 104376, Note_off_c, 0, 81, 64
2, 104400, Note_on_c, 0, 77, 107
2, 104496, Note_off_c, 0, 77, 64
2, 104520, Note_on_c, 0, 84, 107
2, 104544, Note_off_c, 0, 84, 64
2, 104550, Note_on_c, 0, 83, 107
2, 104574, Note_off_c, 0, 83, 64
2, 104580, Note_on_c, 0, 84, 107
2, 104832, Note_off_c, 0, 84, 64
2, 104880, Note_on_c, 0, 84, 107
2, 104976, Note_off_c, 0, 84, 64
2, 105000, Note_on_c, 0, 79, 107
2, 105096, Note_off_c, 0, 79, 64
2, 105120, Note_on_c, 0, 76, 107
2, 105216, Note_off_c, 0, 76, 64
2, 105240, Note_on_c, 0, 84, 107
2, 105264, Note_off_c, 0, 84, 64
2, 105270, Note_on_c, 0, 83, 107
2, 105294, Note_off_c, 0, 83, 64
2, 105300, Note_on_c, 0, 84, 107
2, 105585, Note_off_c, 0, 84, 64
2, 105600, Note_on_c, 0, 84, 107
2, 105696, Note_off_c, 0, 84, 64
2, 105720, Note_on_c, 0, 81, 107
2, 105816, Note_off_c, 0, 81, 64
2, 105840, Note_on_c, 0, 77, 107
2, 105936, Note_off_c, 0, 77, 64
2, 105960, Note_on_c, 0, 84, 107
2, 105984, Note_off_c, 0, 84, 64
2, 105990, Note_on_c, 0, 83, 107
2, 106014, Note_off_c, 0, 83, 64
2, 106020, Note_on_c, 0, 84, 107
2, 106272, Note_off_c, 0, 84, 64
2, 106320, Note_on_c, 0, 84, 107
2, 106416, Note_off_c, 0, 84, 64
2, 106440, Note_on_c, 0, 79, 107
2, 106536, Note_off_c, 0, 79, 64
2, 106560, Note_on_c, 0, 76, 107
2, 106656, Note_off_c, 0, 76, 64
2, 106680, Note_on_c, 0, 77, 107
2, 106776, Note_off_c, 0, 77, 64
2, 106800, Note_on_c, 0, 74, 107
2, 106896, Note_off_c, 0, 74, 64
2, 106920, Note_on_c, 0, 82, 107
2, 107016, Note_off_c, 0, 82, 64
2, 107040, Note_on_c, 0, 76, 107
2, 107136, Note_off_c, 0, 76, 64
2, 107160, Note_on_c, 0, 72, 107
2, 107256, Note_off_c, 0, 72, 64
2, 107280, Note_on_c, 0, 81, 107
2, 107376, Note_off_c, 0, 81, 64
2, 107400, Note_on_c, 0, 74, 107
2, 107496, Note_off_c, 0, 74, 64
2, 107520, Note_on_c, 0, 70, 107
2, 107616, Note_off_c, 0, 70, 64
2, 107640, Note_on_c, 0, 79, 107
2, 107736, Note_off_c, 0, 79, 64
2, 107760, Note_on_c, 0, 72, 107
2, 107856, Note_off_c, 0, 72, 64
2, 107880, Note_on_c, 0, 69, 107
2, 107976, Note_off_c, 0, 69, 64
2, 108000, Note_on_c, 0, 77, 107
2, 108096, Note_off_c, 0, 77, 64
2, 108120, Note_on_c, 0, 70, 107
2, 108216, Note_off_c, 0, 70, 64
2, 108240, Note_on_c, 0, 67, 107
2, 108336, Note_off_c, 0, 67, 64
2, 108360, Note_on_c, 0, 77, 107
2, 108456, Note_off_c, 0, 77, 64
2, 108480, Note_on_c, 0, 70, 107
2, 108576, Note_off_c, 0, 70, 64
2, 108600, Note_on_c, 0, 67, 107
2, 108696, Note_off_c, 0, 67, 64
2, 108720, Note_on_c, 0, 76, 107
2, 108816, Note_off_c, 0, 76, 64
2, 108840, Note_on_c, 0, 77, 107
2, 108936, Note_off_c, 0, 77, 64
2, 108960, Note_on_c, 0, 69, 107
2, 109056, Note_off_c, 0, 69, 64
2, 109080, Note_on_c, 0, 72, 107
2, 109176, Note_off_c, 0, 72, 64
2, 109200, Note_on_c, 0, 65, 107
2, 109392, Note_off_c, 0, 65, 64
2, 109440, Note_on_c, 0, 67, 107
2, 109536, Note_off_c, 0, 67, 64
2, 109560, Note_on_c, 0, 64, 107
2, 109656, Note_off_c, 0, 64, 64
2, 109680, Note_on_c, 0, 67, 107
2, 109776, Note_off_c, 0, 67, 64
2, 109800, Note_on_c, 0, 64, 107
2, 109896, Note_off_c, 0, 64, 64
2, 109920, Note_on_c, 0, 60, 107
2, 110016, Note_off_c, 0, 60, 64
2, 110040, Note_on_c, 0, 64, 107
2, 110136, Note_off_c, 0, 64, 64
2, 110160, Note_on_c, 0, 79, 107
2, 110160, Note_on_c, 0, 60, 107
2, 110256, Note_off_c, 0, 60, 64
2, 110256, Note_off_c, 0, 79, 64
2, 110280, Note_on_c, 0, 76, 107
2, 110376, Note_off_c, 0, 76, 64
2, 110400, Note_on_c, 0, 79, 107
2, 110496, Note_off_c, 0, 79, 64
2, 110520, Note_on_c, 0, 76, 107
2, 110616, Note_off_c, 0, 76, 64
2, 110640, Note_on_c, 0, 72, 107
2, 110736, Note_off_c, 0, 72, 64
2, 110760, Note_on_c, 0, 76, 107
2, 110856, Note_off_c, 0, 76, 64
2, 110880, Note_on_c, 0, 72, 107
2, 110976, Note_off_c, 0, 72, 64
2, 111000, Note_on_c, 0, 67, 107
2, 111096, Note_off_c, 0, 67, 64
2, 111120, Note_on_c, 0, 72, 107
2, 111216, Note_off_c, 0, 72, 64
2, 111240, Note_on_c, 0, 70, 107
2, 111336, Note_off_c, 0, 70, 64
2, 111360, Note_on_c, 0, 69, 107
2, 111456, Note_off_c, 0, 69, 64
2, 111480, Note_on_c, 0, 70, 107
2, 111576, Note_off_c, 0, 70, 64
2, 111600, Note_on_c, 0, 67, 107
2, 111696, Note_off_c, 0, 67, 64
2, 111720, Note_on_c, 0, 65, 107
2, 111816, Note_off_c, 0, 65, 64
2, 111840, Note_on_c, 0, 64, 107
2, 111936, Note_off_c, 0, 64, 64
2, 111960, Note_on_c, 0, 67, 107
2, 112056, Note_off_c, 0, 67, 64
2, 112080, Note_on_c, 0, 65, 107
2, 112272, Note_off_c, 0, 65, 64
2, 112320, Note_on_c, 0, 84, 107
2, 112416, Note_off_c, 0, 84, 64
2, 112440, Note_on_c, 0, 81, 107
2, 112536, Note_off_c, 0, 81, 64
2, 112560, Note_on_c, 0, 84, 107
2, 112656, Note_off_c, 0, 84, 64
2, 112680, Note_on_c, 0, 81, 107
2, 112776, Note_off_c, 0, 81, 64
2, 112800, Note_on_c, 0, 77, 107
2, 112896, Note_off_c, 0, 77, 64
2, 112920, Note_on_c, 0, 81, 107
2, 113016, Note_off_c, 0, 81, 64
2, 113040, Note_on_c, 0, 77, 107
2, 113136, Note_off_c, 0, 77, 64
2, 113160, Note_on_c, 0, 72, 107
2, 113352, Note_off_c, 0, 72, 64
2, 113400, Note_on_c, 0, 77, 107
2, 113496, Note_off_c, 0, 77, 64
2, 113520, Note_on_c, 0, 65, 107
2, 113976, Note_off_c, 0, 65, 64
2, 114000, Note_on_c, 0, 67, 107
2, 114096, Note_off_c, 0, 67, 64
2, 114120, Note_on_c, 0, 69, 107
2, 114216, Note_off_c, 0, 69, 64
2, 114240, Note_on_c, 0, 70, 107
2, 114336, Note_off_c, 0, 70, 64
2, 114360, Note_on_c, 0, 69, 107
2, 114456, Note_off_c, 0, 69, 64
2, 114480, Note_on_c, 0, 72, 107
2, 114576, Note_off_c, 0, 72, 64
2, 114600, Note_on_c, 0, 74, 107
2, 114696, Note_off_c, 0, 74, 64
2, 114720, Note_on_c, 0, 72, 107
2, 114816, Note_off_c, 0, 72, 64
2, 114840, Note_on_c, 0, 75, 107
2, 114936, Note_off_c, 0, 75, 64
2, 114960, Note_on_c, 0, 74, 107
2, 115056, Note_off_c, 0, 74, 64
2, 115080, Note_on_c, 0, 76, 107
2, 115176, Note_off_c, 0, 76, 64
2, 115200, Note_on_c, 0, 78, 107
2, 115296, Note_off_c, 0, 78, 64
2, 115320, Note_on_c, 0, 79, 107
2, 115416, Note_off_c, 0, 79, 64
2, 115440, Note_on_c, 0, 78, 107
2, 115536, Note_off_c, 0, 78, 64
2, 115560, Note_on_c, 0, 81, 107
2, 115656, Note_off_c, 0, 81, 64
2, 115680, Note_on_c, 0, 79, 107
2, 115776, Note_off_c, 0, 79, 64
2, 115800, Note_on_c, 0, 77, 107
2, 115896, Note_off_c, 0, 77, 64
2, 115920, Note_on_c, 0, 76, 107
2, 116016, Note_off_c, 0, 76, 64
2, 116040, Note_on_c, 0, 77, 107
2, 116136, Note_off_c, 0, 77, 64
2, 116160, Note_on_c, 0, 76, 107
2, 116256, Note_off_c, 0, 76, 64
2, 116280, Note_on_c, 0, 79, 107
2, 116376, Note_off_c, 0, 79, 64
2, 116400, Note_on_c, 0, 77, 107
2, 116496, Note_off_c, 0, 77, 64
2, 116520, Note_on_c, 0, 76, 107
2, 116616, Note_off_c, 0, 76, 64
2, 116640, Note_on_c, 0, 74, 107
2, 116736, Note_off_c, 0, 74, 64
2, 116760, Note_on_c, 0, 73, 107
2, 116856, Note_off_c, 0, 73, 64
2, 116880, Note_on_c, 0, 71, 107
2, 116976, Note_off_c, 0, 71, 64
2, 117000, Note_on_c, 0, 74, 107
2, 117096, Note_off_c, 0, 74, 64
2, 117120, Note_on_c, 0, 73, 107
2, 117216, Note_off_c, 0, 73, 64
2, 117240, Note_on_c, 0, 69, 107
2, 117336, Note_off_c, 0, 69, 64
2, 117360, Note_on_c, 0, 73, 107
2, 117456, Note_off_c, 0, 73, 64
2, 117480, Note_on_c, 0, 74, 107
2, 117576, Note_off_c, 0, 74, 64
2, 117600, Note_on_c, 0, 73, 107
2, 117696, Note_off_c, 0, 73, 64
2, 117720, Note_on_c, 0, 76, 107
2, 117816, Note_off_c, 0, 76, 64
2, 117840, Note_on_c, 0, 74, 107
2, 117936, Note_off_c, 0, 74, 64
2, 117960, Note_on_c, 0, 69, 107
2, 118056, Note_off_c, 0, 69, 64
2, 118080, Note_on_c, 0, 74, 107
2, 118176, Note_off_c, 0, 74, 64
2, 118200, Note_on_c, 0, 76, 107
2, 118296, Note_off_c, 0, 76, 64
2, 118320, Note_on_c, 0, 74, 107
2, 118416, Note_off_c, 0, 74, 64
2, 118440, Note_on_c, 0, 77, 107
2, 118536, Note_off_c, 0, 77, 64
2, 118560, Note_on_c, 0, 76, 107
2, 118656, Note_off_c, 0, 76, 64
2, 118680, Note_on_c, 0, 69, 107
2, 118776, Note_off_c, 0, 69, 64
2, 118800, Note_on_c, 0, 76, 107
2, 118896, Note_off_c, 0, 76, 64
2, 118920, Note_on_c, 0, 77, 107
2, 119016, Note_off_c, 0, 77, 64
2, 119040, Note_on_c, 0, 76, 107
2, 119136, Note_off_c, 0, 76, 64
2, 119160, Note_on_c, 0, 79, 107
2, 119256, Note_off_c, 0, 79, 64
2, 119280, Note_on_c, 0, 77, 107
2, 119376, Note_off_c, 0, 77, 64
2, 119400, Note_on_c, 0, 76, 107
2, 119496, Note_off_c, 0, 76, 64
2, 119520, Note_on_c, 0, 74, 107
2, 119616, Note_off_c, 0, 74, 64
2, 119640, Note_on_c, 0, 73, 107
2, 119736, Note_off_c, 0, 73, 64
2, 119760, Note_on_c, 0, 76, 107
2, 119856, Note_off_c, 0, 76, 64
2, 119880, Note_on_c, 0, 74, 107
2, 119976, Note_off_c, 0, 74, 64
2, 120000, Note_on_c, 0, 73, 107
2, 120096, Note_off_c, 0, 73, 64
2, 120120, Note_on_c, 0, 76, 107
2, 120216, Note_off_c, 0, 76, 64
2, 120240, Note_on_c, 0, 74, 107
2, 120336, Note_off_c, 0, 74, 64
2, 120360, Note_on_c, 0, 73, 107
2, 120456, Note_off_c, 0, 73, 64
2, 120480, Note_on_c, 0, 76, 107
2, 120576, Note_off_c, 0, 76, 64
2, 120600, Note_on_c, 0, 74, 107
2, 120696, Note_off_c, 0, 74, 64
2, 120720, Note_on_c, 0, 74, 107
2, 120744, Note_off_c, 0, 74, 64
2, 120750, Note_on_c, 0, 73, 107
2, 120774, Note_off_c, 0, 73, 64
2, 120780, Note_on_c, 0, 74, 107
2, 120804, Note_off_c, 0, 74, 64
2, 120810, Note_on_c, 0, 73, 107
2, 120936, Note_off_c, 0, 73, 64
2, 120960, Note_on_c, 0, 69, 107
2, 121056, Note_off_c, 0, 69, 64
2, 121080, Note_on_c, 0, 81, 107
2, 121272, Note_off_c, 0, 81, 64
2, 121320, Note_on_c, 0, 69, 107
2, 121416, Note_off_c, 0, 69, 64
2, 121440, Note_on_c, 0, 81, 107
2, 121992, Note_off_c, 0, 81, 64
2, 122040, Note_on_c, 0, 69, 107
2, 122136, Note_off_c, 0, 69, 64
2, 122160, Note_on_c, 0, 81, 107
2, 122385, Note_off_c, 0, 81, 64
2, 122400, Note_on_c, 0, 69, 107
2, 122496, Note_off_c, 0, 69, 64
2, 122520, Note_on_c, 0, 81, 107
2, 122712, Note_off_c, 0, 81, 64
2, 122760, Note_on_c, 0, 69, 107
2, 122856, Note_off_c, 0, 69, 64
2, 122880, Note_on_c, 0, 81, 107
2, 123432, Note_off_c, 0, 81, 64
2, 123480, Note_on_c, 0, 69, 107
2, 123576, Note_off_c, 0, 69, 64
2, 123600, Note_on_c, 0, 81, 107
2, 123825, Note_off_c, 0, 81, 64
2, 123840, Note_on_c, 0, 76, 107
2, 123936, Note_off_c, 0, 76, 64
2, 123960, Note_on_c, 0, 77, 107
2, 124008, Note_off_c, 0, 77, 64
2, 124020, Note_on_c, 0, 79, 107
2, 124068, Note_off_c, 0, 79, 64
2, 124080, Note_on_c, 0, 81, 107
2, 124176, Note_off_c, 0, 81, 64
2, 124200, Note_on_c, 0, 74, 107
2, 124296, Note_off_c, 0, 74, 64
2, 124320, Note_on_c, 0, 69, 107
2, 124416, Note_off_c, 0, 69, 64
2, 124440, Note_on_c, 0, 74, 107
2, 124536, Note_off_c, 0, 74, 64
2, 124560, Note_on_c, 0, 73, 107
2, 124656, Note_off_c, 0, 73, 64
2, 124680, Note_on_c, 0, 74, 107
2, 125232, Note_off_c, 0, 74, 64
2, 125280, Note_on_c, 0, 74, 107
2, 125376, Note_off_c, 0, 74, 64
2, 125400, Note_on_c, 0, 72, 107
2, 125496, Note_off_c, 0, 72, 64
2, 125520, Note_on_c, 0, 77, 107
2, 125616, Note_off_c, 0, 77, 64
2, 125640, Note_on_c, 0, 72, 107
2, 125736, Note_off_c, 0, 72, 64
2, 125760, Note_on_c, 0, 69, 107
2, 125856, Note_off_c, 0, 69, 64
2, 125880, Note_on_c, 0, 72, 107
2, 125976, Note_off_c, 0, 72, 64
2, 126000, Note_on_c, 0, 69, 107
2, 126096, Note_off_c, 0, 69, 64
2, 126120, Note_on_c, 0, 65, 107
2, 126312, Note_off_c, 0, 65, 64
2, 126360, Note_on_c, 0, 72, 107
2, 126456, Note_off_c, 0, 72, 64
2, 126480, Note_on_c, 0, 60, 107
2, 126936, Note_off_c, 0, 60, 64
2, 126960, Note_on_c, 0, 62, 107
2, 127056, Note_off_c, 0, 62, 64
2, 127080, Note_on_c, 0, 63, 107
2, 127176, Note_off_c, 0, 63, 64
2, 127200, Note_on_c, 0, 65, 107
2, 127296, Note_off_c, 0, 65, 64
2, 127320, Note_on_c, 0, 67, 107
2, 127416, Note_off_c, 0, 67, 64
2, 127440, Note_on_c, 0, 63, 107
2, 127536, Note_off_c, 0, 63, 64
2, 127560, Note_on_c, 0, 62, 107
2, 127656, Note_off_c, 0, 62, 64
2, 127680, Note_on_c, 0, 65, 107
2, 127776, Note_off_c, 0, 65, 64
2, 127800, Note_on_c, 0, 72, 107
2, 127896, Note_off_c, 0, 72, 64
2, 127920, Note_on_c, 0, 70, 107
2, 128016, Note_off_c, 0, 70, 64
2, 128040, Note_on_c, 0, 69, 107
2, 128136, Note_off_c, 0, 69, 64
2, 128160, Note_on_c, 0, 70, 107
2, 128256, Note_off_c, 0, 70, 64
2, 128280, Note_on_c, 0, 60, 107
2, 128376, Note_off_c, 0, 60, 64
2, 128400, Note_on_c, 0, 65, 107
2, 128496, Note_off_c, 0, 65, 64
2, 128520, Note_on_c, 0, 70, 107
2, 128616, Note_off_c, 0, 70, 64
2, 128640, Note_on_c, 0, 69, 107
2, 128736, Note_off_c, 0, 69, 64
2, 128760, Note_on_c, 0, 67, 107
2, 128856, Note_off_c, 0, 67, 64
2, 128880, Note_on_c, 0, 69, 107
2, 128976, Note_off_c, 0, 69, 64
2, 129000, Note_on_c, 0, 58, 107
2, 129096, Note_off_c, 0, 58, 64
2, 129120, Note_on_c, 0, 62, 107
2, 129216, Note_off_c, 0, 62, 64
2, 129240, Note_on_c, 0, 69, 107
2, 129336, Note_off_c, 0, 69, 64
2, 129360, Note_on_c, 0, 67, 107
2, 129456, Note_off_c, 0, 67, 64
2, 129480, Note_on_c, 0, 66, 107
2, 129576, Note_off_c, 0, 66, 64
2, 129600, Note_on_c, 0, 67, 107
2, 129696, Note_off_c, 0, 67, 64
2, 129720, Note_on_c, 0, 66, 107
2, 129912, Note_off_c, 0, 66, 64
2, 129960, Note_on_c, 0, 62, 107
2, 130056, Note_off_c, 0, 62, 64
2, 130080, Note_on_c, 0, 74, 107
2, 130632, Note_off_c, 0, 74, 64
2, 130680, Note_on_c, 0, 62, 107
2, 130776, Note_off_c, 0, 62, 64
2, 130800, Note_on_c, 0, 74, 107
2, 130992, Note_off_c, 0, 74, 64
2, 131040, Note_on_c, 0, 62, 107
2, 131136, Note_off_c, 0, 62, 64
2, 131160, Note_on_c, 0, 74, 107
2, 131352, Note_off_c, 0, 74, 64
2, 131400, Note_on_c, 0, 62, 107
2, 131496, Note_off_c, 0, 62, 64
2, 131520, Note_on_c, 0, 74, 107
2, 132072, Note_off_c, 0, 74, 64
2, 132120, Note_on_c, 0, 62, 107
2, 132216, Note_off_c, 0, 62, 64
2, 132240, Note_on_c, 0, 74, 107
2, 132336, Note_off_c, 0, 74, 64
2, 132360, Note_on_c, 0, 76, 107
2, 132456, Note_off_c, 0, 76, 64
2, 132480, Note_on_c, 0, 78, 107
2, 132576, Note_off_c, 0, 78, 64
2, 132600, Note_on_c, 0, 79, 107
2, 132696, Note_off_c, 0, 79, 64
2, 132720, Note_on_c, 0, 78, 107
2, 132816, Note_off_c, 0, 78, 64
2, 132840, Note_on_c, 0, 81, 107
2, 132936, Note_off_c, 0, 81, 64
2, 132960, Note_on_c, 0, 79, 107
2, 133056, Note_off_c, 0, 79, 64
2, 133080, Note_on_c, 0, 74, 107
2, 133176, Note_off_c, 0, 74, 64
2, 133200, Note_on_c, 0, 79, 107
2, 133296, Note_off_c, 0, 79, 64
2, 133320, Note_on_c, 0, 81, 107
2, 133416, Note_off_c, 0, 81, 64
2, 133440, Note_on_c, 0, 79, 107
2, 133536, Note_off_c, 0, 79, 64
2, 133560, Note_on_c, 0, 82, 107
2, 133656, Note_off_c, 0, 82, 64
2, 133680, Note_on_c, 0, 81, 107
2, 133776, Note_off_c, 0, 81, 64
2, 133800, Note_on_c, 0, 74, 107
2, 133896, Note_off_c, 0, 74, 64
2, 133920, Note_on_c, 0, 81, 107
2, 134016, Note_off_c, 0, 81, 64
2, 134040, Note_on_c, 0, 82, 107
2, 134136, Note_off_c, 0, 82, 64
2, 134160, Note_on_c, 0, 81, 107
2, 134256, Note_off_c, 0, 81, 64
2, 134280, Note_on_c, 0, 84, 107
2, 134376, Note_off_c, 0, 84, 64
2, 134400, Note_on_c, 0, 82, 107
2, 134496, Note_off_c, 0, 82, 64
2, 134520, Note_on_c, 0, 81, 107
2, 134616, Note_off_c, 0, 81, 64
2, 134640, Note_on_c, 0, 79, 107
2, 134736, Note_off_c, 0, 79, 64
2, 134760, Note_on_c, 0, 78, 107
2, 134856, Note_off_c, 0, 78, 64
2, 134880, Note_on_c, 0, 76, 107
2, 134976, Note_off_c, 0, 76, 64
2, 135000, Note_on_c, 0, 74, 107
2, 135096, Note_off_c, 0, 74, 64
2, 135120, Note_on_c, 0, 81, 107
2, 135312, Note_off_c, 0, 81, 64
2, 135360, Note_on_c, 0, 72, 107
2, 135456, Note_off_c, 0, 72, 64
2, 135480, Note_on_c, 0, 70, 107
2, 135528, Note_off_c, 0, 70, 64
2, 135540, Note_on_c, 0, 72, 107
2, 135588, Note_off_c, 0, 72, 64
2, 135600, Note_on_c, 0, 74, 107
2, 135696, Note_off_c, 0, 74, 64
2, 135720, Note_on_c, 0, 67, 107
2, 135816, Note_off_c, 0, 67, 64
2, 135840, Note_on_c, 0, 62, 107
2, 135936, Note_off_c, 0, 62, 64
2, 135960, Note_on_c, 0, 67, 107
2, 136056, Note_off_c, 0, 67, 64
2, 136080, Note_on_c, 0, 66, 107
2, 136176, Note_off_c, 0, 66, 64
2, 136200, Note_on_c, 0, 67, 107
2, 136488, Note_off_c, 0, 67, 64
2, 136800, Note_on_c, 0, 70, 107
2, 136896, Note_off_c, 0, 70, 64
2, 136920, Note_on_c, 0, 60, 107
2, 137016, Note_off_c, 0, 60, 64
2, 137040, Note_on_c, 0, 64, 107
2, 137136, Note_off_c, 0, 64, 64
2, 137160, Note_on_c, 0, 67, 107
2, 137256, Note_off_c, 0, 67, 64
2, 137280, Note_on_c, 0, 70, 107
2, 137376, Note_off_c, 0, 70, 64
2, 137400, Note_on_c, 0, 67, 107
2, 137496, Note_off_c, 0, 67, 64
2, 137520, Note_on_c, 0, 69, 107
2, 137616, Note_off_c, 0, 69, 64
2, 137640, Note_on_c, 0, 69, 107
2, 137736, Note_off_c, 0, 69, 64
2, 137760, Note_on_c, 0, 64, 107
2, 137856, Note_off_c, 0, 64, 64
2, 137880, Note_on_c, 0, 65, 107
2, 137976, Note_off_c, 0, 65, 64
2, 138000, Note_on_c, 0, 69, 107
2, 138096, Note_off_c, 0, 69, 64
2, 138120, Note_on_c, 0, 64, 107
2, 138216, Note_off_c, 0, 64, 64
2, 138240, Note_on_c, 0, 65, 107
2, 138336, Note_off_c, 0, 65, 64
2, 138360, Note_on_c, 0, 58, 107
2, 138456, Note_off_c, 0, 58, 64
2, 138480, Note_on_c, 0, 62, 107
2, 138576, Note_off_c, 0, 62, 64
2, 138600, Note_on_c, 0, 65, 107
2, 138696, Note_off_c, 0, 65, 64
2, 138720, Note_on_c, 0, 69, 107
2, 138816, Note_off_c, 0, 69, 64
2, 138840, Note_on_c, 0, 65, 107
2, 138936, Note_off_c, 0, 65, 64
2, 138960, Note_on_c, 0, 67, 107
2, 139056, Note_off_c, 0, 67, 64
2, 139080, Note_on_c, 0, 67, 107
2, 139176, Note_off_c, 0, 67, 64
2, 139200, Note_on_c, 0, 62, 107
2, 139296, Note_off_c, 0, 62, 64
2, 139320, Note_on_c, 0, 64, 107
2, 139416, Note_off_c, 0, 64, 64
2, 139440, Note_on_c, 0, 67, 107
2, 139536, Note_off_c, 0, 67, 64
2, 139560, Note_on_c, 0, 62, 107
2, 139656, Note_off_c, 0, 62, 64
2, 139680, Note_on_c, 0, 64, 107
2, 139776, Note_off_c, 0, 64, 64
2, 139800, Note_on_c, 0, 57, 107
2, 139896, Note_off_c, 0, 57, 64
2, 139920, Note_on_c, 0, 60, 107
2, 140016, Note_off_c, 0, 60, 64
2, 140040, Note_on_c, 0, 64, 107
2, 140136, Note_off_c, 0, 64, 64
2, 140160, Note_on_c, 0, 67, 107
2, 140256, Note_off_c, 0, 67, 64
2, 140280, Note_on_c, 0, 64, 107
2, 140376, Note_off_c, 0, 64, 64
2, 140400, Note_on_c, 0, 65, 107
2, 140496, Note_off_c, 0, 65, 64
2, 140520, Note_on_c, 0, 55, 107
2, 140616, Note_off_c, 0, 55, 64
2, 140640, Note_on_c, 0, 58, 107
2, 140736, Note_off_c, 0, 58, 64
2, 140760, Note_on_c, 0, 62, 107
2, 140856, Note_off_c, 0, 62, 64
2, 140880, Note_on_c, 0, 65, 107
2, 140976, Note_off_c, 0, 65, 64
2, 141000, Note_on_c, 0, 62, 107
2, 141096, Note_off_c, 0, 62, 64
2, 141120, Note_on_c, 0, 64, 107
2, 141216, Note_off_c, 0, 64, 64
2, 141240, Note_on_c, 0, 53, 107
2, 141336, Note_off_c, 0, 53, 64
2, 141360, Note_on_c, 0, 57, 107
2, 141456, Note_off_c, 0, 57, 64
2, 141480, Note_on_c, 0, 60, 107
2, 141576, Note_off_c, 0, 60, 64
2, 141600, Note_on_c, 0, 67, 107
2, 141696, Note_off_c, 0, 67, 64
2, 141720, Note_on_c, 0, 64, 107
2, 141816, Note_off_c, 0, 64, 64
2, 141840, Note_on_c, 0, 65, 107
2, 141936, Note_off_c, 0, 65, 64
2, 141960, Note_on_c, 0, 69, 107
2, 142056, Note_off_c, 0, 69, 64
2, 142080, Note_on_c, 0, 64, 107
2, 142176, Note_off_c, 0, 64, 64
2, 142200, Note_on_c, 0, 65, 107
2, 142296, Note_off_c, 0, 65, 64
2, 142320, Note_on_c, 0, 71, 107
2, 142416, Note_off_c, 0, 71, 64
2, 142440, Note_on_c, 0, 64, 107
2, 142536, Note_off_c, 0, 64, 64
2, 142560, Note_on_c, 0, 65, 107
2, 142656, Note_off_c, 0, 65, 64
2, 142680, Note_on_c, 0, 72, 107
2, 142776, Note_off_c, 0, 72, 64
2, 142800, Note_on_c, 0, 64, 107
2, 142896, Note_off_c, 0, 64, 64
2, 142920, Note_on_c, 0, 67, 107
2, 143016, Note_off_c, 0, 67, 64
2, 143040, Note_on_c, 0, 72, 107
2, 143136, Note_off_c, 0, 72, 64
2, 143160, Note_on_c, 0, 74, 107
2, 143256, Note_off_c, 0, 74, 64
2, 143280, Note_on_c, 0, 76, 107
2, 143376, Note_off_c, 0, 76, 64
2, 143400, Note_on_c, 0, 77, 107
2, 143496, Note_off_c, 0, 77, 64
2, 143520, Note_on_c, 0, 79, 107
2, 143616, Note_off_c, 0, 79, 64
2, 143640, Note_on_c, 0, 81, 107
2, 143736, Note_off_c, 0, 81, 64
2, 143760, Note_on_c, 0, 81, 107
2, 143856, Note_off_c, 0, 81, 64
2, 143880, Note_on_c, 0, 82, 107
2, 143976, Note_off_c, 0, 82, 64
2, 144000, Note_on_c, 0, 84, 107
2, 144096, Note_off_c, 0, 84, 64
2, 144120, Note_on_c, 0, 84, 107
2, 144144, Note_off_c, 0, 84, 64
2, 144150, Note_on_c, 0, 83, 107
2, 144174, Note_off_c, 0, 83, 64
2, 144180, Note_on_c, 0, 84, 107
2, 144465, Note_off_c, 0, 84, 64
2, 144480, Note_on_c, 0, 84, 107
2, 144576, Note_off_c, 0, 84, 64
2, 144600, Note_on_c, 0, 81, 107
2, 144696, Note_off_c, 0, 81, 64
2, 144720, Note_on_c, 0, 77, 107
2, 144816, Note_off_c, 0, 77, 64
2, 144840, Note_on_c, 0, 84, 107
2, 144864, Note_off_c, 0, 84, 64
2, 144870, Note_on_c, 0, 83, 107
2, 144894, Note_off_c, 0, 83, 64
2, 144900, Note_on_c, 0, 84, 107
2, 145152, Note_off_c, 0, 84, 64
2, 145200, Note_on_c, 0, 84, 107
2, 145296, Note_off_c, 0, 84, 64
2, 145320, Note_on_c, 0, 79, 107
2, 145416, Note_off_c, 0, 79, 64
2, 145440, Note_on_c, 0, 76, 107
2, 145536, Note_off_c, 0, 76, 64
2, 145560, Note_on_c, 0, 84, 107
2, 145584, Note_off_c, 0, 84, 64
2, 145590, Note_on_c, 0, 83, 107
2, 145614, Note_off_c, 0, 83, 64
2, 145620, Note_on_c, 0, 84, 107
2, 145905, Note_off_c, 0, 84, 64
2, 145920, Note_on_c, 0, 84, 107
2, 146016, Note_off_c, 0, 84, 64
2, 146040, Note_on_c, 0, 81, 107
2, 146136, Note_off_c, 0, 81, 64
2, 146160, Note_on_c, 0, 77, 107
2, 146256, Note_off_c, 0, 77, 64
2, 146280, Note_on_c, 0, 84, 107
2, 146304, Note_off_c, 0, 84, 64
2, 146310, Note_on_c, 0, 83, 107
2, 146334, Note_off_c, 0, 83, 64
2, 146340, Note_on_c, 0, 84, 107
2, 146592, Note_off_c, 0, 84, 64
2, 146640, Note_on_c, 0, 84, 107
2, 146736, Note_off_c, 0, 84, 64
2, 146760, Note_on_c, 0, 79, 107
2, 146856, Note_off_c, 0, 79, 64
2, 146880, Note_on_c, 0, 76, 107
2, 146976, Note_off_c, 0, 76, 64
2, 147000, Note_on_c, 0, 77, 107
2, 147096, Note_off_c, 0, 77, 64
2, 147120, Note_on_c, 0, 74, 107
2, 147216, Note_off_c, 0, 74, 64
2, 147240, Note_on_c, 0, 82, 107
2, 147336, Note_off_c, 0, 82, 64
2, 147360, Note_on_c, 0, 76, 107
2, 147456, Note_off_c, 0, 76, 64
2, 147480, Note_on_c, 0, 72, 107
2, 147576, Note_off_c, 0, 72, 64
2, 147600, Note_on_c, 0, 81, 107
2, 147696, Note_off_c, 0, 81, 64
2, 147720, Note_on_c, 0, 74, 107
2, 147816, Note_off_c, 0, 74, 64
2, 147840, Note_on_c, 0, 70, 107
2, 147936, Note_off_c, 0, 70, 64
2, 147960, Note_on_c, 0, 79, 107
2, 148056, Note_off_c, 0, 79, 64
2, 148080, Note_on_c, 0, 72, 107
2, 148176, Note_off_c, 0, 72, 64
2, 148200, Note_on_c, 0, 69, 107
2, 148296, Note_off_c, 0, 69, 64
2, 148320, Note_on_c, 0, 77, 107
2, 148416, Note_off_c, 0, 77, 64
2, 148440, Note_on_c, 0, 70, 107
2, 148536, Note_off_c, 0, 70, 64
2, 148560, Note_on_c, 0, 67, 107
2, 148656, Note_off_c, 0, 67, 64
2, 148680, Note_on_c, 0, 77, 107
2, 148776, Note_off_c, 0, 77, 64
2, 148800, Note_on_c, 0, 70, 107
2, 148896, Note_off_c, 0, 70, 64
2, 148920, Note_on_c, 0, 67, 107
2, 149016, Note_off_c, 0, 67, 64
2, 149040, Note_on_c, 0, 76, 107
2, 149136, Note_off_c, 0, 76, 64
2, 149160, Note_on_c, 0, 77, 107
2, 149256, Note_off_c, 0, 77, 64
2, 149280, Note_on_c, 0, 69, 107
2, 149376, Note_off_c, 0, 69, 64
2, 149400, Note_on_c, 0, 72, 107
2, 149496, Note_off_c, 0, 72, 64
2, 149520, Note_on_c, 0, 65, 107
2, 149712, Note_off_c, 0, 65, 64
2, 149712, End_track
3, 0, Start_track
3, 0, Title_t, "J.S. Bach, Edition Peters"
3, 0, Program_c, 1, 0
3, 720, Note_on_c, 1, 48, 107
3, 816, Note_off_c, 1, 48, 64
3, 840, Note_on_c, 1, 53, 107
3, 936, Note_off_c, 1, 53, 64
3, 960, Note_on_c, 1, 48, 107
3, 1056, Note_off_c, 1, 48, 64
3, 1080, Note_on_c, 1, 53, 107
3, 1176, Note_off_c, 1, 53, 64
3, 1200, Note_on_c, 1, 57, 107
3, 1296, Note_off_c, 1, 57, 64
3, 1320, Note_on_c, 1, 53, 107
3, 1416, Note_off_c, 1, 53, 64
3, 1440, Note_on_c, 1, 57, 107
3, 1536, Note_off_c, 1, 57, 64
3, 1560, Note_on_c, 1, 60, 107
3, 1848, Note_off_c, 1, 60, 64
3, 1920, Note_on_c, 1, 48, 107
3, 2208, Note_off_c, 1, 48, 64
3, 2280, Note_on_c, 1, 53, 107
3, 2472, Note_off_c, 1, 53, 64
3, 2520, Note_on_c, 1, 52, 107
3, 2616, Note_off_c, 1, 52, 64
3, 2640, Note_on_c, 1, 50, 107
3, 2832, Note_off_c, 1, 50, 64
3, 2880, Note_on_c, 1, 55, 107
3, 2976, Note_off_c, 1, 55, 64
3, 3000, Note_on_c, 1, 60, 107
3, 3096, Note_off_c, 1, 60, 64
3, 3120, Note_on_c, 1, 55, 107
3, 3216, Note_off_c, 1, 55, 64
3, 3240, Note_on_c, 1, 60, 107
3, 3336, Note_off_c, 1, 60, 64
3, 7200, Note_on_c, 1, 48, 107
3, 7296, Note_off_c, 1, 48, 64
3, 7320, Note_on_c, 1, 53, 107
3, 7416, Note_off_c, 1, 53, 64
3, 7440, Note_on_c, 1, 48, 107
3, 7536, Note_off_c, 1, 48, 64
3, 7560, Note_on_c, 1, 53, 107
3, 7656, Note_off_c, 1, 53, 64
3, 7680, Note_on_c, 1, 57, 107
3, 7776, Note_off_c, 1, 57, 64
3, 7800, Note_on_c, 1, 53, 107
3, 7896, Note_off_c, 1, 53, 64
3, 7920, Note_on_c, 1, 57, 107
3, 8016, Note_off_c, 1, 57, 64
3, 8040, Note_on_c, 1, 60, 107
3, 8232, Note_off_c, 1, 60, 64
3, 8280, Note_on_c, 1, 53, 107
3, 8376, Note_off_c, 1, 53, 64
3, 8400, Note_on_c, 1, 65, 107
3, 8856, Note_off_c, 1, 65, 64
3, 8880, Note_on_c, 1, 64, 107
3, 8976, Note_off_c, 1, 64, 64
3, 9000, Note_on_c, 1, 62, 107
3, 9096, Note_off_c, 1, 62, 64
3, 9120, Note_on_c, 1, 60, 107
3, 9216, Note_off_c, 1, 60, 64
3, 9240, Note_on_c, 1, 62, 107
3, 9336, Note_off_c, 1, 62, 64
3, 9360, Note_on_c, 1, 58, 107
3, 9456, Note_off_c, 1, 58, 64
3, 9480, Note_on_c, 1, 57, 107
3, 9672, Note_off_c, 1, 57, 64
3, 9720, Note_on_c, 1, 58, 107
3, 9816, Note_off_c, 1, 58, 64
3, 9840, Note_on_c, 1, 60, 107
3, 10032, Note_off_c, 1, 60, 64
3, 10080, Note_on_c, 1, 48, 107
3, 10176, Note_off_c, 1, 48, 64
3, 10200, Note_on_c, 1, 53, 107
3, 10296, Note_off_c, 1, 53, 64
3, 10320, Note_on_c, 1, 48, 107
3, 10416, Note_off_c, 1, 48, 64
3, 10440, Note_on_c, 1, 53, 107
3, 10536, Note_off_c, 1, 53, 64
3, 10560, Note_on_c, 1, 57, 107
3, 10656, Note_off_c, 1, 57, 64
3, 10680, Note_on_c, 1, 53, 107
3, 10776, Note_off_c, 1, 53, 64
3, 10800, Note_on_c, 1, 57, 107
3, 10896, Note_off_c, 1, 57, 64
3, 10920, Note_on_c, 1, 52, 107
3, 11016, Note_off_c, 1, 52, 64
3, 11040, Note_on_c, 1, 48, 107
3, 11136, Note_off_c, 1, 48, 64
3, 11160, Note_on_c, 1, 52, 107
3, 11256, Note_off_c, 1, 52, 64
3, 11280, Note_on_c, 1, 55, 107
3, 11376, Note_off_c, 1, 55, 64
3, 11400, Note_on_c, 1, 52, 107
3, 11496, Note_off_c, 1, 52, 64
3, 11520, Note_on_c, 1, 55, 107
3, 11616, Note_off_c, 1, 55, 64
3, 11640, Note_on_c, 1, 57, 107
3, 11736, Note_off_c, 1, 57, 64
3, 11760, Note_on_c, 1, 48, 107
3, 11856, Note_off_c, 1, 48, 64
3, 11880, Note_on_c, 1, 53, 107
3, 11976, Note_off_c, 1, 53, 64
3, 12000, Note_on_c, 1, 57, 107
3, 12096, Note_off_c, 1, 57, 64
3, 12120, Note_on_c, 1, 53, 107
3, 12216, Note_off_c, 1, 53, 64
3, 12240, Note_on_c, 1, 57, 107
3, 12336, Note_off_c, 1, 57, 64
3, 12360, Note_on_c, 1, 52, 107
3, 12456, Note_off_c, 1, 52, 64
3, 12480, Note_on_c, 1, 48, 107
3, 12576, Note_off_c, 1, 48, 64
3, 12600, Note_on_c, 1, 52, 107
3, 12696, Note_off_c, 1, 52, 64
3, 12720, Note_on_c, 1, 54, 107
3, 12816, Note_off_c, 1, 54, 64
3, 12840, Note_on_c, 1, 50, 107
3, 12936, Note_off_c, 1, 50, 64
3, 12960, Note_on_c, 1, 54, 107
3, 13056, Note_off_c, 1, 54, 64
3, 13080, Note_on_c, 1, 55, 107
3, 13368, Note_off_c, 1, 55, 64
3, 13440, Note_on_c, 1, 50, 107
3, 13536, Note_off_c, 1, 50, 64
3, 13560, Note_on_c, 1, 46, 107
3, 13656, Note_off_c, 1, 46, 64
3, 13680, Note_on_c, 1, 43, 107
3, 13776, Note_off_c, 1, 43, 64
3, 13800, Note_on_c, 1, 50, 107
3, 13824, Note_off_c, 1, 50, 64
3, 13830, Note_on_c, 1, 48, 107
3, 13854, Note_off_c, 1, 48, 64
3, 13860, Note_on_c, 1, 50, 107
3, 14112, Note_off_c, 1, 50, 64
3, 14160, Note_on_c, 1, 50, 107
3, 14256, Note_off_c, 1, 50, 64
3, 14280, Note_on_c, 1, 45, 107
3, 14376, Note_off_c, 1, 45, 64
3, 14400, Note_on_c, 1, 42, 107
3, 14496, Note_off_c, 1, 42, 64
3, 14520, Note_on_c, 1, 50, 107
3, 14544, Note_off_c, 1, 50, 64
3, 14550, Note_on_c, 1, 48, 107
3, 14574, Note_off_c, 1, 48, 64
3, 14580, Note_on_c, 1, 50, 107
3, 14832, Note_off_c, 1, 50, 64
3, 14880, Note_on_c, 1, 50, 107
3, 14976, Note_off_c, 1, 50, 64
3, 15000, Note_on_c, 1, 46, 107
3, 15096, Note_off_c, 1, 46, 64
3, 15120, Note_on_c, 1, 43, 107
3, 15216, Note_off_c, 1, 43, 64
3, 15240, Note_on_c, 1, 50, 107
3, 15264, Note_off_c, 1, 50, 64
3, 15270, Note_on_c, 1, 48, 107
3, 15294, Note_off_c, 1, 48, 64
3, 15300, Note_on_c, 1, 50, 107
3, 15552, Note_off_c, 1, 50, 64
3, 15840, Note_on_c, 1, 50, 107
3, 15936, Note_off_c, 1, 50, 64
3, 15960, Note_on_c, 1, 55, 107
3, 16056, Note_off_c, 1, 55, 64
3, 16080, Note_on_c, 1, 50, 107
3, 16176, Note_off_c, 1, 50, 64
3, 16200, Note_on_c, 1, 55, 107
3, 16296, Note_off_c, 1, 55, 64
3, 16320, Note_on_c, 1, 58, 107
3, 16416, Note_off_c, 1, 58, 64
3, 16440, Note_on_c, 1, 55, 107
3, 16536, Note_off_c, 1, 55, 64
3, 16560, Note_on_c, 1, 58, 107
3, 16656, Note_off_c, 1, 58, 64
3, 16680, Note_on_c, 1, 57, 107
3, 16776, Note_off_c, 1, 57, 64
3, 16800, Note_on_c, 1, 53, 107
3, 16896, Note_off_c, 1, 53, 64
3, 16920, Note_on_c, 1, 57, 107
3, 17016, Note_off_c, 1, 57, 64
3, 17040, Note_on_c, 1, 60, 107
3, 17136, Note_off_c, 1, 60, 64
3, 17160, Note_on_c, 1, 57, 107
3, 17256, Note_off_c, 1, 57, 64
3, 17280, Note_on_c, 1, 60, 107
3, 17376, Note_off_c, 1, 60, 64
3, 17400, Note_on_c, 1, 62, 107
3, 17496, Note_off_c, 1, 62, 64
3, 17520, Note_on_c, 1, 53, 107
3, 17616, Note_off_c, 1, 53, 64
3, 17640, Note_on_c, 1, 58, 107
3, 17736, Note_off_c, 1, 58, 64
3, 17760, Note_on_c, 1, 62, 107
3, 17856, Note_off_c, 1, 62, 64
3, 17880, Note_on_c, 1, 58, 107
3, 17976, Note_off_c, 1, 58, 64
3, 18000, Note_on_c, 1, 62, 107
3, 18096, Note_off_c, 1, 62, 64
3, 18120, Note_on_c, 1, 57, 107
3, 18216, Note_off_c, 1, 57, 64
3, 18240, Note_on_c, 1, 53, 107
3, 18336, Note_off_c, 1, 53, 64
3, 18360, Note_on_c, 1, 57, 107
3, 18456, Note_off_c, 1, 57, 64
3, 18480, Note_on_c, 1, 60, 107
3, 18576, Note_off_c, 1, 60, 64
3, 18600, Note_on_c, 1, 57, 107
3, 18696, Note_off_c, 1, 57, 64
3, 19440, Note_on_c, 1, 36, 107
3, 19536, Note_off_c, 1, 36, 64
3, 19560, Note_on_c, 1, 41, 107
3, 19656, Note_off_c, 1, 41, 64
3, 19680, Note_on_c, 1, 36, 107
3, 19776, Note_off_c, 1, 36, 64
3, 19800, Note_on_c, 1, 41, 107
3, 19896, Note_off_c, 1, 41, 64
3, 19920, Note_on_c, 1, 45, 107
3, 20016, Note_off_c, 1, 45, 64
3, 20040, Note_on_c, 1, 41, 107
3, 20136, Note_off_c, 1, 41, 64
3, 20160, Note_on_c, 1, 45, 107
3, 20256, Note_off_c, 1, 45, 64
3, 20280, Note_on_c, 1, 48, 107
3, 20376, Note_off_c, 1, 48, 64
3, 20400, Note_on_c, 1, 43, 107
3, 20496, Note_off_c, 1, 43, 64
3, 20520, Note_on_c, 1, 48, 107
3, 20616, Note_off_c, 1, 48, 64
3, 20640, Note_on_c, 1, 52, 107
3, 20736, Note_off_c, 1, 52, 64
3, 20760, Note_on_c, 1, 48, 107
3, 20856, Note_off_c, 1, 48, 64
3, 20880, Note_on_c, 1, 52, 107
3, 20976, Note_off_c, 1, 52, 64
3, 21000, Note_on_c, 1, 53, 107
3, 21096, Note_off_c, 1, 53, 64
3, 21120, Note_on_c, 1, 48, 107
3, 21216, Note_off_c, 1, 48, 64
3, 21240, Note_on_c, 1, 53, 107
3, 21336, Note_off_c, 1, 53, 64
3, 21360, Note_on_c, 1, 57, 107
3, 21456, Note_off_c, 1, 57, 64
3, 21480, Note_on_c, 1, 53, 107
3, 21576, Note_off_c, 1, 53, 64
3, 21600, Note_on_c, 1, 57, 107
3, 21696, Note_off_c, 1, 57, 64
3, 21720, Note_on_c, 1, 60, 107
3, 22008, Note_off_c, 1, 60, 64
3, 22320, Note_on_c, 1, 49, 107
3, 22416, Note_off_c, 1, 49, 64
3, 22440, Note_on_c, 1, 50, 107
3, 22536, Note_off_c, 1, 50, 64
3, 22560, Note_on_c, 1, 45, 107
3, 22656, Note_off_c, 1, 45, 64
3, 22680, Note_on_c, 1, 50, 107
3, 22776, Note_off_c, 1, 50, 64
3, 22800, Note_on_c, 1, 53, 107
3, 22896, Note_off_c, 1, 53, 64
3, 22920, Note_on_c, 1, 50, 107
3, 23016, Note_off_c, 1, 50, 64
3, 23040, Note_on_c, 1, 53, 107
3, 23136, Note_off_c, 1, 53, 64
3, 23160, Note_on_c, 1, 57, 107
3, 23352, Note_off_c, 1, 57, 64
3, 23760, Note_on_c, 1, 41, 107
3, 23856, Note_off_c, 1, 41, 64
3, 23880, Note_on_c, 1, 46, 107
3, 23976, Note_off_c, 1, 46, 64
3, 24000, Note_on_c, 1, 41, 107
3, 24096, Note_off_c, 1, 41, 64
3, 24120, Note_on_c, 1, 46, 107
3, 24216, Note_off_c, 1, 46, 64
3, 24240, Note_on_c, 1, 50, 107
3, 24336, Note_off_c, 1, 50, 64
3, 24360, Note_on_c, 1, 46, 107
3, 24456, Note_off_c, 1, 46, 64
3, 24480, Note_on_c, 1, 50, 107
3, 24576, Note_off_c, 1, 50, 64
3, 24600, Note_on_c, 1, 53, 107
3, 24792, Note_off_c, 1, 53, 64
3, 24840, Note_on_c, 1, 41, 107
3, 24936, Note_off_c, 1, 41, 64
3, 24960, Note_on_c, 1, 53, 107
3, 24984, Note_off_c, 1, 53, 64
3, 24990, Note_on_c, 1, 52, 107
3, 25014, Note_off_c, 1, 52, 64
3, 25020, Note_on_c, 1, 53, 107
3, 25512, Note_off_c, 1, 53, 64
3, 25560, Note_on_c, 1, 40, 107
3, 25656, Note_off_c, 1, 40, 64
3, 25680, Note_on_c, 1, 52, 107
3, 26232, Note_off_c, 1, 52, 64
3, 26280, Note_on_c, 1, 38, 107
3, 26376, Note_off_c, 1, 38, 64
3, 26400, Note_on_c, 1, 50, 107
3, 26592, Note_off_c, 1, 50, 64
3, 26640, Note_on_c, 1, 43, 107
3, 26736, Note_off_c, 1, 43, 64
3, 26760, Note_on_c, 1, 48, 107
3, 26952, Note_off_c, 1, 48, 64
3, 27000, Note_on_c, 1, 52, 107
3, 27096, Note_off_c, 1, 52, 64
3, 27120, Note_on_c, 1, 45, 107
3, 27312, Note_off_c, 1, 45, 64
3, 27360, Note_on_c, 1, 50, 107
3, 27456, Note_off_c, 1, 50, 64
3, 27480, Note_on_c, 1, 43, 107
3, 27768, Note_off_c, 1, 43, 64
3, 27960, Note_on_c, 1, 55, 107
3, 28056, Note_off_c, 1, 55, 64
3, 28080, Note_on_c, 1, 53, 107
3, 28176, Note_off_c, 1, 53, 64
3, 28200, Note_on_c, 1, 52, 107
3, 28296, Note_off_c, 1, 52, 64
3, 28320, Note_on_c, 1, 53, 107
3, 28416, Note_off_c, 1, 53, 64
3, 28440, Note_on_c, 1, 55, 107
3, 28536, Note_off_c, 1, 55, 64
3, 28560, Note_on_c, 1, 55, 107
3, 28656, Note_off_c, 1, 55, 64
3, 28680, Note_on_c, 1, 57, 107
3, 28776, Note_off_c, 1, 57, 64
3, 28800, Note_on_c, 1, 59, 107
3, 28896, Note_off_c, 1, 59, 64
3, 28920, Note_on_c, 1, 60, 107
3, 29016, Note_off_c, 1, 60, 64
3, 29040, Note_on_c, 1, 43, 107
3, 29136, Note_off_c, 1, 43, 64
3, 29160, Note_on_c, 1, 48, 107
3, 29256, Note_off_c, 1, 48, 64
3, 29280, Note_on_c, 1, 52, 107
3, 29376, Note_off_c, 1, 52, 64
3, 29400, Note_on_c, 1, 48, 107
3, 29496, Note_off_c, 1, 48, 64
3, 29520, Note_on_c, 1, 52, 107
3, 29616, Note_off_c, 1, 52, 64
3, 29640, Note_on_c, 1, 47, 107
3, 29736, Note_off_c, 1, 47, 64
3, 29760, Note_on_c, 1, 43, 107
3, 29856, Note_off_c, 1, 43, 64
3, 29880, Note_on_c, 1, 47, 107
3, 29976, Note_off_c, 1, 47, 64
3, 30000, Note_on_c, 1, 50, 107
3, 30096, Note_off_c, 1, 50, 64
3, 30120, Note_on_c, 1, 47, 107
3, 30216, Note_off_c, 1, 47, 64
3, 30240, Note_on_c, 1, 50, 107
3, 30336, Note_off_c, 1, 50, 64
3, 30360, Note_on_c, 1, 52, 107
3, 30456, Note_off_c, 1, 52, 64
3, 30480, Note_on_c, 1, 43, 107
3, 30576, Note_off_c, 1, 43, 64
3, 30600, Note_on_c, 1, 48, 107
3, 30696, Note_off_c, 1, 48, 64
3, 30720, Note_on_c, 1, 52, 107
3, 30816, Note_off_c, 1, 52, 64
3, 30840, Note_on_c, 1, 48, 107
3, 30936, Note_off_c, 1, 48, 64
3, 30960, Note_on_c, 1, 52, 107
3, 31056, Note_off_c, 1, 52, 64
3, 31080, Note_on_c, 1, 47, 107
3, 31176, Note_off_c, 1, 47, 64
3, 31200, Note_on_c, 1, 43, 107
3, 31296, Note_off_c, 1, 43, 64
3, 31320, Note_on_c, 1, 47, 107
3, 31416, Note_off_c, 1, 47, 64
3, 31440, Note_on_c, 1, 50, 107
3, 31536, Note_off_c, 1, 50, 64
3, 31560, Note_on_c, 1, 47, 107
3, 31656, Note_off_c, 1, 47, 64
3, 31680, Note_on_c, 1, 50, 107
3, 31776, Note_off_c, 1, 50, 64
3, 31800, Note_on_c, 1, 52, 107
3, 31896, Note_off_c, 1, 52, 64
3, 31920, Note_on_c, 1, 48, 107
3, 32016, Note_off_c, 1, 48, 64
3, 32040, Note_on_c, 1, 45, 107
3, 32136, Note_off_c, 1, 45, 64
3, 32160, Note_on_c, 1, 50, 107
3, 32256, Note_off_c, 1, 50, 64
3, 32280, Note_on_c, 1, 47, 107
3, 32376, Note_off_c, 1, 47, 64
3, 32400, Note_on_c, 1, 43, 107
3, 32496, Note_off_c, 1, 43, 64
3, 32520, Note_on_c, 1, 48, 107
3, 32616, Note_off_c, 1, 48, 64
3, 32640, Note_on_c, 1, 45, 107
3, 32736, Note_off_c, 1, 45, 64
3, 32760, Note_on_c, 1, 41, 107
3, 32856, Note_off_c, 1, 41, 64
3, 32880, Note_on_c, 1, 47, 107
3, 32976, Note_off_c, 1, 47, 64
3, 33000, Note_on_c, 1, 43, 107
3, 33096, Note_off_c, 1, 43, 64
3, 33120, Note_on_c, 1, 40, 107
3, 33216, Note_off_c, 1, 40, 64
3, 33240, Note_on_c, 1, 45, 107
3, 33336, Note_off_c, 1, 45, 64
3, 33360, Note_on_c, 1, 41, 107
3, 33456, Note_off_c, 1, 41, 64
3, 33480, Note_on_c, 1, 38, 107
3, 33576, Note_off_c, 1, 38, 64
3, 33600, Note_on_c, 1, 43, 107
3, 33696, Note_off_c, 1, 43, 64
3, 33720, Note_on_c, 1, 41, 107
3, 33816, Note_off_c, 1, 41, 64
3, 33840, Note_on_c, 1, 43, 107
3, 33936, Note_off_c, 1, 43, 64
3, 33960, Note_on_c, 1, 36, 107
3, 34512, Note_off_c, 1, 36, 64
3, 35280, Note_on_c, 1, 48, 107
3, 35376, Note_off_c, 1, 48, 64
3, 35400, Note_on_c, 1, 53, 107
3, 35496, Note_off_c, 1, 53, 64
3, 35520, Note_on_c, 1, 48, 107
3, 35616, Note_off_c, 1, 48, 64
3, 35640, Note_on_c, 1, 53, 107
3, 35736, Note_off_c, 1, 53, 64
3, 35760, Note_on_c, 1, 57, 107
3, 35856, Note_off_c, 1, 57, 64
3, 35880, Note_on_c, 1, 53, 107
3, 35976, Note_off_c, 1, 53, 64
3, 36000, Note_on_c, 1, 57, 107
3, 36096, Note_off_c, 1, 57, 64
3, 36120, Note_on_c, 1, 60, 107
3, 36408, Note_off_c, 1, 60, 64
3, 36480, Note_on_c, 1, 48, 107
3, 36768, Note_off_c, 1, 48, 64
3, 36840, Note_on_c, 1, 53, 107
3, 37032, Note_off_c, 1, 53, 64
3, 37080, Note_on_c, 1, 52, 107
3, 37176, Note_off_c, 1, 52, 64
3, 37200, Note_on_c, 1, 50, 107
3, 37392, Note_off_c, 1, 50, 64
3, 37440, Note_on_c, 1, 55, 107
3, 37536, Note_off_c, 1, 55, 64
3, 37560, Note_on_c, 1, 60, 107
3, 37656, Note_off_c, 1, 60, 64
3, 37680, Note_on_c, 1, 55, 107
3, 37776, Note_off_c, 1, 55, 64
3, 37800, Note_on_c, 1, 60, 107
3, 37896, Note_off_c, 1, 60, 64
3, 41760, Note_on_c, 1, 48, 107
3, 41856, Note_off_c, 1, 48, 64
3, 41880, Note_on_c, 1, 53, 107
3, 41976, Note_off_c, 1, 53, 64
3, 42000, Note_on_c, 1, 48, 107
3, 42096, Note_off_c, 1, 48, 64
3, 42120, Note_on_c, 1, 53, 107
3, 42216, Note_off_c, 1, 53, 64
3, 42240, Note_on_c, 1, 57, 107
3, 42336, Note_off_c, 1, 57, 64
3, 42360, Note_on_c, 1, 53, 107
3, 42456, Note_off_c, 1, 53, 64
3, 42480, Note_on_c, 1, 57, 107
3, 42576, Note_off_c, 1, 57, 64
3, 42600, Note_on_c, 1, 60, 107
3, 42792, Note_off_c, 1, 60, 64
3, 42840, Note_on_c, 1, 53, 107
3, 42936, Note_off_c, 1, 53, 64
3, 42960, Note_on_c, 1, 65, 107
3, 43416, Note_off_c, 1, 65, 64
3, 43440, Note_on_c, 1, 64, 107
3, 43536, Note_off_c, 1, 64, 64
3, 43560, Note_on_c, 1, 62, 107
3, 43656, Note_off_c, 1, 62, 64
3, 43680, Note_on_c, 1, 60, 107
3, 43776, Note_off_c, 1, 60, 64
3, 43800, Note_on_c, 1, 62, 107
3, 43896, Note_off_c, 1, 62, 64
3, 43920, Note_on_c, 1, 58, 107
3, 44016, Note_off_c, 1, 58, 64
3, 44040, Note_on_c, 1, 57, 107
3, 44232, Note_off_c, 1, 57, 64
3, 44280, Note_on_c, 1, 58, 107
3, 44376, Note_off_c, 1, 58, 64
3, 44400, Note_on_c, 1, 60, 107
3, 44592, Note_off_c, 1, 60, 64
3, 44640, Note_on_c, 1, 48, 107
3, 44736, Note_off_c, 1, 48, 64
3, 44760, Note_on_c, 1, 53, 107
3, 44856, Note_off_c, 1, 53, 64
3, 44880, Note_on_c, 1, 48, 107
3, 44976, Note_off_c, 1, 48, 64
3, 45000, Note_on_c, 1, 53, 107
3, 45096, Note_off_c, 1, 53, 64
3, 45120, Note_on_c, 1, 57, 107
3, 45216, Note_off_c, 1, 57, 64
3, 45240, Note_on_c, 1, 53, 107
3, 45336, Note_off_c, 1, 53, 64
3, 45360, Note_on_c, 1, 57, 107
3, 45456, Note_off_c, 1, 57, 64
3, 45480, Note_on_c, 1, 52, 107
3, 45576, Note_off_c, 1, 52, 64
3, 45600, Note_on_c, 1, 48, 107
3, 45696, Note_off_c, 1, 48, 64
3, 45720, Note_on_c, 1, 52, 107
3, 45816, Note_off_c, 1, 52, 64
3, 45840, Note_on_c, 1, 55, 107
3, 45936, Note_off_c, 1, 55, 64
3, 45960, Note_on_c, 1, 52, 107
3, 46056, Note_off_c, 1, 52, 64
3, 46080, Note_on_c, 1, 55, 107
3, 46176, Note_off_c, 1, 55, 64
3, 46200, Note_on_c, 1, 57, 107
3, 46296, Note_off_c, 1, 57, 64
3, 46320, Note_on_c, 1, 48, 107
3, 46416, Note_off_c, 1, 48, 64
3, 46440, Note_on_c, 1, 53, 107
3, 46536, Note_off_c, 1, 53, 64
3, 46560, Note_on_c, 1, 57, 107
3, 46656, Note_off_c, 1, 57, 64
3, 46680, Note_on_c, 1, 53, 107
3, 46776, Note_off_c, 1, 53, 64
3, 46800, Note_on_c, 1, 57, 107
3, 46896, Note_off_c, 1, 57, 64
3, 46920, Note_on_c, 1, 52, 107
3, 47016, Note_off_c, 1, 52, 64
3, 47040, Note_on_c, 1, 48, 107
3, 47136, Note_off_c, 1, 48, 64
3, 47160, Note_on_c, 1, 52, 107
3, 47256, Note_off_c, 1, 52, 64
3, 47280, Note_on_c, 1, 54, 107
3, 47376, Note_off_c, 1, 54, 64
3, 47400, Note_on_c, 1, 50, 107
3, 47496, Note_off_c, 1, 50, 64
3, 47520, Note_on_c, 1, 54, 107
3, 47616, Note_off_c, 1, 54, 64
3, 47640, Note_on_c, 1, 55, 107
3, 47928, Note_off_c, 1, 55, 64
3, 48000, Note_on_c, 1, 50, 107
3, 48096, Note_off_c, 1, 50, 64
3, 48120, Note_on_c, 1, 46, 107
3, 48216, Note_off_c, 1, 46, 64
3, 48240, Note_on_c, 1, 43, 107
3, 48336, Note_off_c, 1, 43, 64
3, 48360, Note_on_c, 1, 50, 107
3, 48384, Note_off_c, 1, 50, 64
3, 48390, Note_on_c, 1, 48, 107
3, 48414, Note_off_c, 1, 48, 64
3, 48420, Note_on_c, 1, 50, 107
3, 48672, Note_off_c, 1, 50, 64
3, 48720, Note_on_c, 1, 50, 107
3, 48816, Note_off_c, 1, 50, 64
3, 48840, Note_on_c, 1, 45, 107
3, 48936, Note_off_c, 1, 45, 64
3, 48960, Note_on_c, 1, 42, 107
3, 49056, Note_off_c, 1, 42, 64
3, 49080, Note_on_c, 1, 50, 107
3, 49104, Note_off_c, 1, 50, 64
3, 49110, Note_on_c, 1, 48, 107
3, 49134, Note_off_c, 1, 48, 64
3, 49140, Note_on_c, 1, 50, 107
3, 49392, Note_off_c, 1, 50, 64
3, 49440, Note_on_c, 1, 50, 107
3, 49536, Note_off_c, 1, 50, 64
3, 49560, Note_on_c, 1, 46, 107
3, 49656, Note_off_c, 1, 46, 64
3, 49680, Note_on_c, 1, 43, 107
3, 49776, Note_off_c, 1, 43, 64
3, 49800, Note_on_c, 1, 50, 107
3, 49824, Note_off_c, 1, 50, 64
3, 49830, Note_on_c, 1, 48, 107
3, 49854, Note_off_c, 1, 48, 64
3, 49860, Note_on_c, 1, 50, 107
3, 50112, Note_off_c, 1, 50, 64
3, 50400, Note_on_c, 1, 50, 107
3, 50496, Note_off_c, 1, 50, 64
3, 50520, Note_on_c, 1, 55, 107
3, 50616, Note_off_c, 1, 55, 64
3, 50640, Note_on_c, 1, 50, 107
3, 50736, Note_off_c, 1, 50, 64
3, 50760, Note_on_c, 1, 55, 107
3, 50856, Note_off_c, 1, 55, 64
3, 50880, Note_on_c, 1, 58, 107
3, 50976, Note_off_c, 1, 58, 64
3, 51000, Note_on_c, 1, 55, 107
3, 51096, Note_off_c, 1, 55, 64
3, 51120, Note_on_c, 1, 58, 107
3, 51216, Note_off_c, 1, 58, 64
3, 51240, Note_on_c, 1, 57, 107
3, 51336, Note_off_c, 1, 57, 64
3, 51360, Note_on_c, 1, 53, 107
3, 51456, Note_off_c, 1, 53, 64
3, 51480, Note_on_c, 1, 57, 107
3, 51576, Note_off_c, 1, 57, 64
3, 51600, Note_on_c, 1, 60, 107
3, 51696, Note_off_c, 1, 60, 64
3, 51720, Note_on_c, 1, 57, 107
3, 51816, Note_off_c, 1, 57, 64
3, 51840, Note_on_c, 1, 60, 107
3, 51936, Note_off_c, 1, 60, 64
3, 51960, Note_on_c, 1, 62, 107
3, 52056, Note_off_c, 1, 62, 64
3, 52080, Note_on_c, 1, 53, 107
3, 52176, Note_off_c, 1, 53, 64
3, 52200, Note_on_c, 1, 58, 107
3, 52296, Note_off_c, 1, 58, 64
3, 52320, Note_on_c, 1, 62, 107
3, 52416, Note_off_c, 1, 62, 64
3, 52440, Note_on_c, 1, 58, 107
3, 52536, Note_off_c, 1, 58, 64
3, 52560, Note_on_c, 1, 62, 107
3, 52656, Note_off_c, 1, 62, 64
3, 52680, Note_on_c, 1, 57, 107
3, 52776, Note_off_c, 1, 57, 64
3, 52800, Note_on_c, 1, 53, 107
3, 52896, Note_off_c, 1, 53, 64
3, 52920, Note_on_c, 1, 57, 107
3, 53016, Note_off_c, 1, 57, 64
3, 53040, Note_on_c, 1, 60, 107
3, 53136, Note_off_c, 1, 60, 64
3, 53160, Note_on_c, 1, 57, 107
3, 53256, Note_off_c, 1, 57, 64
3, 54000, Note_on_c, 1, 36, 107
3, 54096, Note_off_c, 1, 36, 64
3, 54120, Note_on_c, 1, 41, 107
3, 54216, Note_off_c, 1, 41, 64
3, 54240, Note_on_c, 1, 36, 107
3, 54336, Note_off_c, 1, 36, 64
3, 54360, Note_on_c, 1, 41, 107
3, 54456, Note_off_c, 1, 41, 64
3, 54480, Note_on_c, 1, 45, 107
3, 54576, Note_off_c, 1, 45, 64
3, 54600, Note_on_c, 1, 41, 107
3, 54696, Note_off_c, 1, 41, 64
3, 54720, Note_on_c, 1, 45, 107
3, 54816, Note_off_c, 1, 45, 64
3, 54840, Note_on_c, 1, 48, 107
3, 54936, Note_off_c, 1, 48, 64
3, 54960, Note_on_c, 1, 43, 107
3, 55056, Note_off_c, 1, 43, 64
3, 55080, Note_on_c, 1, 48, 107
3, 55176, Note_off_c, 1, 48, 64
3, 55200, Note_on_c, 1, 52, 107
3, 55296, Note_off_c, 1, 52, 64
3, 55320, Note_on_c, 1, 48, 107
3, 55416, Note_off_c, 1, 48, 64
3, 55440, Note_on_c, 1, 52, 107
3, 55536, Note_off_c, 1, 52, 64
3, 55560, Note_on_c, 1, 53, 107
3, 55656, Note_off_c, 1, 53, 64
3, 55680, Note_on_c, 1, 48, 107
3, 55776, Note_off_c, 1, 48, 64
3, 55800, Note_on_c, 1, 53, 107
3, 55896, Note_off_c, 1, 53, 64
3, 55920, Note_on_c, 1, 57, 107
3, 56016, Note_off_c, 1, 57, 64
3, 56040, Note_on_c, 1, 53, 107
3, 56136, Note_off_c, 1, 53, 64
3, 56160, Note_on_c, 1, 57, 107
3, 56256, Note_off_c, 1, 57, 64
3, 56280, Note_on_c, 1, 60, 107
3, 56568, Note_off_c, 1, 60, 64
3, 56880, Note_on_c, 1, 49, 107
3, 56976, Note_off_c, 1, 49, 64
3, 57000, Note_on_c, 1, 50, 107
3, 57096, Note_off_c, 1, 50, 64
3, 57120, Note_on_c, 1, 45, 107
3, 57216, Note_off_c, 1, 45, 64
3, 57240, Note_on_c, 1, 50, 107
3, 57336, Note_off_c, 1, 50, 64
3, 57360, Note_on_c, 1, 53, 107
3, 57456, Note_off_c, 1, 53, 64
3, 57480, Note_on_c, 1, 50, 107
3, 57576, Note_off_c, 1, 50, 64
3, 57600, Note_on_c, 1, 53, 107
3, 57696, Note_off_c, 1, 53, 64
3, 57720, Note_on_c, 1, 57, 107
3, 57912, Note_off_c, 1, 57, 64
3, 58320, Note_on_c, 1, 41, 107
3, 58416, Note_off_c, 1, 41, 64
3, 58440, Note_on_c, 1, 46, 107
3, 58536, Note_off_c, 1, 46, 64
3, 58560, Note_on_c, 1, 41, 107
3, 58656, Note_off_c, 1, 41, 64
3, 58680, Note_on_c, 1, 46, 107
3, 58776, Note_off_c, 1, 46, 64
3, 58800, Note_on_c, 1, 50, 107
3, 58896, Note_off_c, 1, 50, 64
3, 58920, Note_on_c, 1, 46, 107
3, 59016, Note_off_c, 1, 46, 64
3, 59040, Note_on_c, 1, 50, 107
3, 59136, Note_off_c, 1, 50, 64
3, 59160, Note_on_c, 1, 53, 107
3, 59352, Note_off_c, 1, 53, 64
3, 59400, Note_on_c, 1, 41, 107
3, 59496, Note_off_c, 1, 41, 64
3, 59520, Note_on_c, 1, 53, 107
3, 59544, Note_off_c, 1, 53, 64
3, 59550, Note_on_c, 1, 52, 107
3, 59574, Note_off_c, 1, 52, 64
3, 59580, Note_on_c, 1, 53, 107
3, 60072, Note_off_c, 1, 53, 64
3, 60120, Note_on_c, 1, 40, 107
3, 60216, Note_off_c, 1, 40, 64
3, 60240, Note_on_c, 1, 52, 107
3, 60792, Note_off_c, 1, 52, 64
3, 60840, Note_on_c, 1, 38, 107
3, 60936, Note_off_c, 1, 38, 64
3, 60960, Note_on_c, 1, 50, 107
3, 61152, Note_off_c, 1, 50, 64
3, 61200, Note_on_c, 1, 43, 107
3, 61296, Note_off_c, 1, 43, 64
3, 61320, Note_on_c, 1, 48, 107
3, 61512, Note_off_c, 1, 48, 64
3, 61560, Note_on_c, 1, 52, 107
3, 61656, Note_off_c, 1, 52, 64
3, 61680, Note_on_c, 1, 45, 107
3, 61872, Note_off_c, 1, 45, 64
3, 61920, Note_on_c, 1, 50, 107
3, 62016, Note_off_c, 1, 50, 64
3, 62040, Note_on_c, 1, 43, 107
3, 62328, Note_off_c, 1, 43, 64
3, 62520, Note_on_c, 1, 55, 107
3, 62616, Note_off_c, 1, 55, 64
3, 62640, Note_on_c, 1, 53, 107
3, 62736, Note_off_c, 1, 53, 64
3, 62760, Note_on_c, 1, 52, 107
3, 62856, Note_off_c, 1, 52, 64
3, 62880, Note_on_c, 1, 53, 107
3, 62976, Note_off_c, 1, 53, 64
3, 63000, Note_on_c, 1, 55, 107
3, 63096, Note_off_c, 1, 55, 64
3, 63120, Note_on_c, 1, 55, 107
3, 63216, Note_off_c, 1, 55, 64
3, 63240, Note_on_c, 1, 57, 107
3, 63336, Note_off_c, 1, 57, 64
3, 63360, Note_on_c, 1, 59, 107
3, 63456, Note_off_c, 1, 59, 64
3, 63480, Note_on_c, 1, 60, 107
3, 63576, Note_off_c, 1, 60, 64
3, 63600, Note_on_c, 1, 43, 107
3, 63696, Note_off_c, 1, 43, 64
3, 63720, Note_on_c, 1, 48, 107
3, 63816, Note_off_c, 1, 48, 64
3, 63840, Note_on_c, 1, 52, 107
3, 63936, Note_off_c, 1, 52, 64
3, 63960, Note_on_c, 1, 48, 107
3, 64056, Note_off_c, 1, 48, 64
3, 64080, Note_on_c, 1, 52, 107
3, 64176, Note_off_c, 1, 52, 64
3, 64200, Note_on_c, 1, 47, 107
3, 64296, Note_off_c, 1, 47, 64
3, 64320, Note_on_c, 1, 43, 107
3, 64416, Note_off_c, 1, 43, 64
3, 64440, Note_on_c, 1, 47, 107
3, 64536, Note_off_c, 1, 47, 64
3, 64560, Note_on_c, 1, 50, 107
3, 64656, Note_off_c, 1, 50, 64
3, 64680, Note_on_c, 1, 47, 107
3, 64776, Note_off_c, 1, 47, 64
3, 64800, Note_on_c, 1, 50, 107
3, 64896, Note_off_c, 1, 50, 64
3, 64920, Note_on_c, 1, 52, 107
3, 65016, Note_off_c, 1, 52, 64
3, 65040, Note_on_c, 1, 43, 107
3, 65136, Note_off_c, 1, 43, 64
3, 65160, Note_on_c, 1, 48, 107
3, 65256, Note_off_c, 1, 48, 64
3, 65280, Note_on_c, 1, 52, 107
3, 65376, Note_off_c, 1, 52, 64
3, 65400, Note_on_c, 1, 48, 107
3, 65496, Note_off_c, 1, 48, 64
3, 65520, Note_on_c, 1, 52, 107
3, 65616, Note_off_c, 1, 52, 64
3, 65640, Note_on_c, 1, 47, 107
3, 65736, Note_off_c, 1, 47, 64
3, 65760, Note_on_c, 1, 43, 107
3, 65856, Note_off_c, 1, 43, 64
3, 65880, Note_on_c, 1, 47, 107
3, 65976, Note_off_c, 1, 47, 64
3, 66000, Note_on_c, 1, 50, 107
3, 66096, Note_off_c, 1, 50, 64
3, 66120, Note_on_c, 1, 47, 107
3, 66216, Note_off_c, 1, 47, 64
3, 66240, Note_on_c, 1, 50, 107
3, 66336, Note_off_c, 1, 50, 64
3, 66360, Note_on_c, 1, 52, 107
3, 66456, Note_off_c, 1, 52, 64
3, 66480, Note_on_c, 1, 48, 107
3, 66576, Note_off_c, 1, 48, 64
3, 66600, Note_on_c, 1, 45, 107
3, 66696, Note_off_c, 1, 45, 64
3, 66720, Note_on_c, 1, 50, 107
3, 66816, Note_off_c, 1, 50, 64
3, 66840, Note_on_c, 1, 47, 107
3, 66936, Note_off_c, 1, 47, 64
3, 66960, Note_on_c, 1, 43, 107
3, 67056, Note_off_c, 1, 43, 64
3, 67080, Note_on_c, 1, 48, 107
3, 67176, Note_off_c, 1, 48, 64
3, 67200, Note_on_c, 1, 45, 107
3, 67296, Note_off_c, 1, 45, 64
3, 67320, Note_on_c, 1, 41, 107
3, 67416, Note_off_c, 1, 41, 64
3, 67440, Note_on_c, 1, 47, 107
3, 67536, Note_off_c, 1, 47, 64
3, 67560, Note_on_c, 1, 43, 107
3, 67656, Note_off_c, 1, 43, 64
3, 67680, Note_on_c, 1, 40, 107
3, 67776, Note_off_c, 1, 40, 64
3, 67800, Note_on_c, 1, 45, 107
3, 67896, Note_off_c, 1, 45, 64
3, 67920, Note_on_c, 1, 41, 107
3, 68016, Note_off_c, 1, 41, 64
3, 68040, Note_on_c, 1, 38, 107
3, 68136, Note_off_c, 1, 38, 64
3, 68160, Note_on_c, 1, 43, 107
3, 68256, Note_off_c, 1, 43, 64
3, 68280, Note_on_c, 1, 41, 107
3, 68376, Note_off_c, 1, 41, 64
3, 68400, Note_on_c, 1, 43, 107
3, 68496, Note_off_c, 1, 43, 64
3, 68520, Note_on_c, 1, 36, 107
3, 69072, Note_off_c, 1, 36, 64
3, 69960, Note_on_c, 1, 55, 107
3, 70152, Note_off_c, 1, 55, 64
3, 70200, Note_on_c, 1, 60, 107
3, 70296, Note_off_c, 1, 60, 64
3, 70320, Note_on_c, 1, 48, 107
3, 70776, Note_off_c, 1, 48, 64
3, 70800, Note_on_c, 1, 50, 107
3, 70896, Note_off_c, 1, 50, 64
3, 70920, Note_on_c, 1, 52, 107
3, 71016, Note_off_c, 1, 52, 64
3, 71040, Note_on_c, 1, 53, 107
3, 71136, Note_off_c, 1, 53, 64
3, 71160, Note_on_c, 1, 52, 107
3, 71256, Note_off_c, 1, 52, 64
3, 71280, Note_on_c, 1, 55, 107
3, 71376, Note_off_c, 1, 55, 64
3, 71400, Note_on_c, 1, 57, 107
3, 71496, Note_off_c, 1, 57, 64
3, 71520, Note_on_c, 1, 55, 107
3, 71616, Note_off_c, 1, 55, 64
3, 71640, Note_on_c, 1, 58, 107
3, 71736, Note_off_c, 1, 58, 64
3, 71760, Note_on_c, 1, 57, 107
3, 71856, Note_off_c, 1, 57, 64
3, 71880, Note_on_c, 1, 58, 107
3, 71976, Note_off_c, 1, 58, 64
3, 72000, Note_on_c, 1, 60, 107
3, 72096, Note_off_c, 1, 60, 64
3, 72120, Note_on_c, 1, 53, 107
3, 72408, Note_off_c, 1, 53, 64
3, 72720, Note_on_c, 1, 53, 107
3, 72816, Note_off_c, 1, 53, 64
3, 72840, Note_on_c, 1, 57, 107
3, 72936, Note_off_c, 1, 57, 64
3, 72960, Note_on_c, 1, 53, 107
3, 73056, Note_off_c, 1, 53, 64
3, 73080, Note_on_c, 1, 57, 107
3, 73176, Note_off_c, 1, 57, 64
3, 73200, Note_on_c, 1, 60, 107
3, 73296, Note_off_c, 1, 60, 64
3, 73320, Note_on_c, 1, 57, 107
3, 73416, Note_off_c, 1, 57, 64
3, 73440, Note_on_c, 1, 60, 107
3, 73536, Note_off_c, 1, 60, 64
3, 73560, Note_on_c, 1, 63, 107
3, 73752, Note_off_c, 1, 63, 64
3, 73800, Note_on_c, 1, 51, 107
3, 73896, Note_off_c, 1, 51, 64
3, 73920, Note_on_c, 1, 50, 107
3, 74112, Note_off_c, 1, 50, 64
3, 74160, Note_on_c, 1, 48, 107
3, 74256, Note_off_c, 1, 48, 64
3, 74280, Note_on_c, 1, 46, 107
3, 74472, Note_off_c, 1, 46, 64
3, 74520, Note_on_c, 1, 53, 107
3, 74616, Note_off_c, 1, 53, 64
3, 74640, Note_on_c, 1, 58, 107
3, 74736, Note_off_c, 1, 58, 64
3, 74760, Note_on_c, 1, 60, 107
3, 74856, Note_off_c, 1, 60, 64
3, 74880, Note_on_c, 1, 57, 107
3, 74976, Note_off_c, 1, 57, 64
3, 75000, Note_on_c, 1, 58, 107
3, 75096, Note_off_c, 1, 58, 64
3, 75120, Note_on_c, 1, 60, 107
3, 75216, Note_off_c, 1, 60, 64
3, 75240, Note_on_c, 1, 57, 107
3, 75336, Note_off_c, 1, 57, 64
3, 75360, Note_on_c, 1, 59, 107
3, 75552, Note_off_c, 1, 59, 64
3, 75600, Note_on_c, 1, 61, 107
3, 75696, Note_off_c, 1, 61, 64
3, 75720, Note_on_c, 1, 62, 107
3, 75816, Note_off_c, 1, 62, 64
3, 75840, Note_on_c, 1, 61, 107
3, 75936, Note_off_c, 1, 61, 64
3, 75960, Note_on_c, 1, 64, 107
3, 76056, Note_off_c, 1, 64, 64
3, 76080, Note_on_c, 1, 62, 107
3, 76176, Note_off_c, 1, 62, 64
3, 76200, Note_on_c, 1, 55, 107
3, 76296, Note_off_c, 1, 55, 64
3, 76320, Note_on_c, 1, 58, 107
3, 76416, Note_off_c, 1, 58, 64
3, 76440, Note_on_c, 1, 57, 107
3, 76632, Note_off_c, 1, 57, 64
3, 76680, Note_on_c, 1, 45, 107
3, 76776, Note_off_c, 1, 45, 64
3, 76800, Note_on_c, 1, 57, 107
3, 76824, Note_off_c, 1, 57, 64
3, 76830, Note_on_c, 1, 56, 107
3, 76854, Note_off_c, 1, 56, 64
3, 76860, Note_on_c, 1, 57, 107
3, 77352, Note_off_c, 1, 57, 64
3, 77400, Note_on_c, 1, 45, 107
3, 77496, Note_off_c, 1, 45, 64
3, 77520, Note_on_c, 1, 57, 107
3, 77544, Note_off_c, 1, 57, 64
3, 77550, Note_on_c, 1, 56, 107
3, 77574, Note_off_c, 1, 56, 64
3, 77580, Note_on_c, 1, 57, 107
3, 77832, Note_off_c, 1, 57, 64
3, 77880, Note_on_c, 1, 57, 107
3, 78072, Note_off_c, 1, 57, 64
3, 78120, Note_on_c, 1, 45, 107
3, 78216, Note_off_c, 1, 45, 64
3, 78240, Note_on_c, 1, 57, 107
3, 78264, Note_off_c, 1, 57, 64
3, 78270, Note_on_c, 1, 56, 107
3, 78294, Note_off_c, 1, 56, 64
3, 78300, Note_on_c, 1, 57, 107
3, 78792, Note_off_c, 1, 57, 64
3, 78840, Note_on_c, 1, 45, 107
3, 78936, Note_off_c, 1, 45, 64
3, 78960, Note_on_c, 1, 57, 107
3, 79152, Note_off_c, 1, 57, 64
3, 79200, Note_on_c, 1, 45, 107
3, 79296, Note_off_c, 1, 45, 64
3, 79320, Note_on_c, 1, 57, 107
3, 79416, Note_off_c, 1, 57, 64
3, 79440, Note_on_c, 1, 55, 107
3, 79536, Note_off_c, 1, 55, 64
3, 79560, Note_on_c, 1, 58, 107
3, 79656, Note_off_c, 1, 58, 64
3, 79680, Note_on_c, 1, 57, 107
3, 79776, Note_off_c, 1, 57, 64
3, 79800, Note_on_c, 1, 55, 107
3, 79896, Note_off_c, 1, 55, 64
3, 79920, Note_on_c, 1, 58, 107
3, 80016, Note_off_c, 1, 58, 64
3, 80040, Note_on_c, 1, 57, 107
3, 80136, Note_off_c, 1, 57, 64
3, 80160, Note_on_c, 1, 55, 107
3, 80256, Note_off_c, 1, 55, 64
3, 80280, Note_on_c, 1, 58, 107
3, 80376, Note_off_c, 1, 58, 64
3, 80400, Note_on_c, 1, 57, 107
3, 80496, Note_off_c, 1, 57, 64
3, 80520, Note_on_c, 1, 58, 107
3, 80616, Note_off_c, 1, 58, 64
3, 80640, Note_on_c, 1, 55, 107
3, 80736, Note_off_c, 1, 55, 64
3, 80760, Note_on_c, 1, 53, 107
3, 80856, Note_off_c, 1, 53, 64
3, 80880, Note_on_c, 1, 52, 107
3, 80976, Note_off_c, 1, 52, 64
3, 81000, Note_on_c, 1, 55, 107
3, 81096, Note_off_c, 1, 55, 64
3, 81120, Note_on_c, 1, 53, 107
3, 81216, Note_off_c, 1, 53, 64
3, 81240, Note_on_c, 1, 57, 107
3, 81336, Note_off_c, 1, 57, 64
3, 81360, Note_on_c, 1, 52, 107
3, 81456, Note_off_c, 1, 52, 64
3, 81480, Note_on_c, 1, 53, 107
3, 81576, Note_off_c, 1, 53, 64
3, 81600, Note_on_c, 1, 52, 107
3, 81696, Note_off_c, 1, 52, 64
3, 81720, Note_on_c, 1, 55, 107
3, 81816, Note_off_c, 1, 55, 64
3, 81840, Note_on_c, 1, 53, 107
3, 81936, Note_off_c, 1, 53, 64
3, 81960, Note_on_c, 1, 52, 107
3, 82056, Note_off_c, 1, 52, 64
3, 82080, Note_on_c, 1, 50, 107
3, 82176, Note_off_c, 1, 50, 64
3, 82200, Note_on_c, 1, 49, 107
3, 82296, Note_off_c, 1, 49, 64
3, 82320, Note_on_c, 1, 47, 107
3, 82416, Note_off_c, 1, 47, 64
3, 82440, Note_on_c, 1, 50, 107
3, 82536, Note_off_c, 1, 50, 64
3, 82560, Note_on_c, 1, 49, 107
3, 82656, Note_off_c, 1, 49, 64
3, 82680, Note_on_c, 1, 52, 107
3, 82776, Note_off_c, 1, 52, 64
3, 82800, Note_on_c, 1, 47, 107
3, 82896, Note_off_c, 1, 47, 64
3, 82920, Note_on_c, 1, 49, 107
3, 83016, Note_off_c, 1, 49, 64
3, 83040, Note_on_c, 1, 47, 107
3, 83136, Note_off_c, 1, 47, 64
3, 83160, Note_on_c, 1, 50, 107
3, 83256, Note_off_c, 1, 50, 64
3, 83280, Note_on_c, 1, 49, 107
3, 83376, Note_off_c, 1, 49, 64
3, 83400, Note_on_c, 1, 47, 107
3, 83496, Note_off_c, 1, 47, 64
3, 83520, Note_on_c, 1, 45, 107
3, 83616, Note_off_c, 1, 45, 64
3, 83640, Note_on_c, 1, 50, 107
3, 83832, Note_off_c, 1, 50, 64
3, 83880, Note_on_c, 1, 53, 107
3, 83976, Note_off_c, 1, 53, 64
3, 84000, Note_on_c, 1, 57, 107
3, 84192, Note_off_c, 1, 57, 64
3, 84240, Note_on_c, 1, 45, 107
3, 84336, Note_off_c, 1, 45, 64
3, 84360, Note_on_c, 1, 50, 107
3, 84456, Note_off_c, 1, 50, 64
3, 84480, Note_on_c, 1, 45, 107
3, 84576, Note_off_c, 1, 45, 64
3, 84600, Note_on_c, 1, 50, 107
3, 84696, Note_off_c, 1, 50, 64
3, 84720, Note_on_c, 1, 53, 107
3, 84816, Note_off_c, 1, 53, 64
3, 84840, Note_on_c, 1, 50, 107
3, 84936, Note_off_c, 1, 50, 64
3, 84960, Note_on_c, 1, 53, 107
3, 85056, Note_off_c, 1, 53, 64
3, 85080, Note_on_c, 1, 57, 107
3, 85368, Note_off_c, 1, 57, 64
3, 85680, Note_on_c, 1, 60, 107
3, 85776, Note_off_c, 1, 60, 64
3, 85800, Note_on_c, 1, 57, 107
3, 85896, Note_off_c, 1, 57, 64
3, 85920, Note_on_c, 1, 60, 107
3, 86016, Note_off_c, 1, 60, 64
3, 86040, Note_on_c, 1, 57, 107
3, 86136, Note_off_c, 1, 57, 64
3, 86160, Note_on_c, 1, 53, 107
3, 86256, Note_off_c, 1, 53, 64
3, 86280, Note_on_c, 1, 57, 107
3, 86376, Note_off_c, 1, 57, 64
3, 86400, Note_on_c, 1, 53, 107
3, 86496, Note_off_c, 1, 53, 64
3, 86520, Note_on_c, 1, 48, 107
3, 86616, Note_off_c, 1, 48, 64
3, 86640, Note_on_c, 1, 53, 107
3, 86736, Note_off_c, 1, 53, 64
3, 86760, Note_on_c, 1, 48, 107
3, 86856, Note_off_c, 1, 48, 64
3, 86880, Note_on_c, 1, 45, 107
3, 86976, Note_off_c, 1, 45, 64
3, 87000, Note_on_c, 1, 41, 107
3, 87096, Note_off_c, 1, 41, 64
3, 87120, Note_on_c, 1, 45, 107
3, 87216, Note_off_c, 1, 45, 64
3, 87240, Note_on_c, 1, 46, 107
3, 87336, Note_off_c, 1, 46, 64
3, 87360, Note_on_c, 1, 41, 107
3, 87456, Note_off_c, 1, 41, 64
3, 87480, Note_on_c, 1, 46, 107
3, 87576, Note_off_c, 1, 46, 64
3, 87600, Note_on_c, 1, 50, 107
3, 87696, Note_off_c, 1, 50, 64
3, 87720, Note_on_c, 1, 46, 107
3, 87816, Note_off_c, 1, 46, 64
3, 87840, Note_on_c, 1, 50, 107
3, 87936, Note_off_c, 1, 50, 64
3, 87960, Note_on_c, 1, 53, 107
3, 88248, Note_off_c, 1, 53, 64
3, 88560, Note_on_c, 1, 42, 107
3, 88656, Note_off_c, 1, 42, 64
3, 88680, Note_on_c, 1, 43, 107
3, 88776, Note_off_c, 1, 43, 64
3, 88800, Note_on_c, 1, 38, 107
3, 88896, Note_off_c, 1, 38, 64
3, 88920, Note_on_c, 1, 43, 107
3, 89016, Note_off_c, 1, 43, 64
3, 89040, Note_on_c, 1, 46, 107
3, 89136, Note_off_c, 1, 46, 64
3, 89160, Note_on_c, 1, 43, 107
3, 89256, Note_off_c, 1, 43, 64
3, 89280, Note_on_c, 1, 46, 107
3, 89376, Note_off_c, 1, 46, 64
3, 89400, Note_on_c, 1, 50, 107
3, 89496, Note_off_c, 1, 50, 64
3, 89520, Note_on_c, 1, 48, 107
3, 89616, Note_off_c, 1, 48, 64
3, 89640, Note_on_c, 1, 51, 107
3, 89736, Note_off_c, 1, 51, 64
3, 89760, Note_on_c, 1, 50, 107
3, 89856, Note_off_c, 1, 50, 64
3, 89880, Note_on_c, 1, 51, 107
3, 89976, Note_off_c, 1, 51, 64
3, 90000, Note_on_c, 1, 48, 107
3, 90096, Note_off_c, 1, 48, 64
3, 90120, Note_on_c, 1, 46, 107
3, 90216, Note_off_c, 1, 46, 64
3, 90240, Note_on_c, 1, 45, 107
3, 90336, Note_off_c, 1, 45, 64
3, 90360, Note_on_c, 1, 48, 107
3, 90456, Note_off_c, 1, 48, 64
3, 90480, Note_on_c, 1, 46, 107
3, 90576, Note_off_c, 1, 46, 64
3, 90600, Note_on_c, 1, 48, 107
3, 90696, Note_off_c, 1, 48, 64
3, 90720, Note_on_c, 1, 45, 107
3, 90816, Note_off_c, 1, 45, 64
3, 90840, Note_on_c, 1, 43, 107
3, 90936, Note_off_c, 1, 43, 64
3, 90960, Note_on_c, 1, 42, 107
3, 91056, Note_off_c, 1, 42, 64
3, 91080, Note_on_c, 1, 45, 107
3, 91176, Note_off_c, 1, 45, 64
3, 91200, Note_on_c, 1, 43, 107
3, 91296, Note_off_c, 1, 43, 64
3, 91320, Note_on_c, 1, 46, 107
3, 91416, Note_off_c, 1, 46, 64
3, 91440, Note_on_c, 1, 45, 107
3, 91536, Note_off_c, 1, 45, 64
3, 91560, Note_on_c, 1, 42, 107
3, 91656, Note_off_c, 1, 42, 64
3, 91680, Note_on_c, 1, 43, 107
3, 91776, Note_off_c, 1, 43, 64
3, 91800, Note_on_c, 1, 45, 107
3, 91896, Note_off_c, 1, 45, 64
3, 91920, Note_on_c, 1, 38, 107
3, 92472, Note_off_c, 1, 38, 64
3, 92520, Note_on_c, 1, 38, 107
3, 92616, Note_off_c, 1, 38, 64
3, 92640, Note_on_c, 1, 50, 107
3, 92664, Note_off_c, 1, 50, 64
3, 92670, Note_on_c, 1, 49, 107
3, 92694, Note_off_c, 1, 49, 64
3, 92700, Note_on_c, 1, 50, 107
3, 92748, Note_off_c, 1, 50, 64
3, 92760, Note_on_c, 1, 50, 107
3, 93192, Note_off_c, 1, 50, 64
3, 93240, Note_on_c, 1, 38, 107
3, 93336, Note_off_c, 1, 38, 64
3, 93360, Note_on_c, 1, 50, 107
3, 93552, Note_off_c, 1, 50, 64
3, 93600, Note_on_c, 1, 38, 107
3, 93696, Note_off_c, 1, 38, 64
3, 93720, Note_on_c, 1, 50, 107
3, 93912, Note_off_c, 1, 50, 64
3, 93960, Note_on_c, 1, 38, 107
3, 94056, Note_off_c, 1, 38, 64
3, 94080, Note_on_c, 1, 50, 107
3, 94104, Note_off_c, 1, 50, 64
3, 94110, Note_on_c, 1, 49, 107
3, 94134, Note_off_c, 1, 49, 64
3, 94140, Note_on_c, 1, 50, 107
3, 94536, Note_off_c, 1, 50, 64
3, 94560, Note_on_c, 1, 50, 107
3, 94656, Note_off_c, 1, 50, 64
3, 94680, Note_on_c, 1, 52, 107
3, 94776, Note_off_c, 1, 52, 64
3, 94800, Note_on_c, 1, 54, 107
3, 94896, Note_off_c, 1, 54, 64
3, 94920, Note_on_c, 1, 52, 107
3, 95016, Note_off_c, 1, 52, 64
3, 95040, Note_on_c, 1, 50, 107
3, 95136, Note_off_c, 1, 50, 64
3, 95160, Note_on_c, 1, 55, 107
3, 95256, Note_off_c, 1, 55, 64
3, 95280, Note_on_c, 1, 46, 107
3, 95376, Note_off_c, 1, 46, 64
3, 95400, Note_on_c, 1, 48, 107
3, 95496, Note_off_c, 1, 48, 64
3, 95520, Note_on_c, 1, 50, 107
3, 95616, Note_off_c, 1, 50, 64
3, 95640, Note_on_c, 1, 48, 107
3, 95736, Note_off_c, 1, 48, 64
3, 95760, Note_on_c, 1, 50, 107
3, 95856, Note_off_c, 1, 50, 64
3, 95880, Note_on_c, 1, 43, 107
3, 95976, Note_off_c, 1, 43, 64
3, 96000, Note_on_c, 1, 62, 107
3, 96096, Note_off_c, 1, 62, 64
3, 96120, Note_on_c, 1, 58, 107
3, 96216, Note_off_c, 1, 58, 64
3, 96240, Note_on_c, 1, 55, 107
3, 96336, Note_off_c, 1, 55, 64
3, 96360, Note_on_c, 1, 58, 107
3, 96456, Note_off_c, 1, 58, 64
3, 96480, Note_on_c, 1, 55, 107
3, 96576, Note_off_c, 1, 55, 64
3, 96600, Note_on_c, 1, 52, 107
3, 96792, Note_off_c, 1, 52, 64
3, 96840, Note_on_c, 1, 60, 107
3, 96936, Note_off_c, 1, 60, 64
3, 96960, Note_on_c, 1, 48, 107
3, 97416, Note_off_c, 1, 48, 64
3, 97440, Note_on_c, 1, 60, 107
3, 97536, Note_off_c, 1, 60, 64
3, 97560, Note_on_c, 1, 57, 107
3, 97656, Note_off_c, 1, 57, 64
3, 97680, Note_on_c, 1, 53, 107
3, 97776, Note_off_c, 1, 53, 64
3, 97800, Note_on_c, 1, 57, 107
3, 97896, Note_off_c, 1, 57, 64
3, 97920, Note_on_c, 1, 53, 107
3, 98016, Note_off_c, 1, 53, 64
3, 98040, Note_on_c, 1, 50, 107
3, 98232, Note_off_c, 1, 50, 64
3, 98280, Note_on_c, 1, 58, 107
3, 98376, Note_off_c, 1, 58, 64
3, 98400, Note_on_c, 1, 46, 107
3, 98856, Note_off_c, 1, 46, 64
3, 98880, Note_on_c, 1, 58, 107
3, 98976, Note_off_c, 1, 58, 64
3, 99000, Note_on_c, 1, 55, 107
3, 99096, Note_off_c, 1, 55, 64
3, 99120, Note_on_c, 1, 52, 107
3, 99216, Note_off_c, 1, 52, 64
3, 99240, Note_on_c, 1, 55, 107
3, 99336, Note_off_c, 1, 55, 64
3, 99360, Note_on_c, 1, 52, 107
3, 99456, Note_off_c, 1, 52, 64
3, 99480, Note_on_c, 1, 48, 107
3, 99672, Note_off_c, 1, 48, 64
3, 99720, Note_on_c, 1, 57, 107
3, 99816, Note_off_c, 1, 57, 64
3, 99840, Note_on_c, 1, 45, 107
3, 100032, Note_off_c, 1, 45, 64
3, 100080, Note_on_c, 1, 50, 107
3, 100176, Note_off_c, 1, 50, 64
3, 100200, Note_on_c, 1, 46, 107
3, 100392, Note_off_c, 1, 46, 64
3, 100440, Note_on_c, 1, 55, 107
3, 100536, Note_off_c, 1, 55, 64
3, 100560, Note_on_c, 1, 43, 107
3, 100752, Note_off_c, 1, 43, 64
3, 100800, Note_on_c, 1, 48, 107
3, 100896, Note_off_c, 1, 48, 64
3, 100920, Note_on_c, 1, 45, 107
3, 101112, Note_off_c, 1, 45, 64
3, 101160, Note_on_c, 1, 53, 107
3, 101256, Note_off_c, 1, 53, 64
3, 101280, Note_on_c, 1, 47, 107
3, 101472, Note_off_c, 1, 47, 64
3, 101520, Note_on_c, 1, 55, 107
3, 101616, Note_off_c, 1, 55, 64
3, 101640, Note_on_c, 1, 48, 107
3, 101832, Note_off_c, 1, 48, 64
3, 101880, Note_on_c, 1, 57, 107
3, 101976, Note_off_c, 1, 57, 64
3, 102000, Note_on_c, 1, 50, 107
3, 102192, Note_off_c, 1, 50, 64
3, 102240, Note_on_c, 1, 59, 107
3, 102336, Note_off_c, 1, 59, 64
3, 102360, Note_on_c, 1, 48, 107
3, 102648, Note_off_c, 1, 48, 64
3, 102840, Note_on_c, 1, 48, 107
3, 102936, Note_off_c, 1, 48, 64
3, 102960, Note_on_c, 1, 46, 107
3, 103056, Note_off_c, 1, 46, 64
3, 103080, Note_on_c, 1, 45, 107
3, 103176, Note_off_c, 1, 45, 64
3, 103200, Note_on_c, 1, 43, 107
3, 103296, Note_off_c, 1, 43, 64
3, 103320, Note_on_c, 1, 41, 107
3, 103416, Note_off_c, 1, 41, 64
3, 103440, Note_on_c, 1, 41, 107
3, 103536, Note_off_c, 1, 41, 64
3, 103560, Note_on_c, 1, 43, 107
3, 103656, Note_off_c, 1, 43, 64
3, 103680, Note_on_c, 1, 45, 107
3, 103776, Note_off_c, 1, 45, 64
3, 103800, Note_on_c, 1, 45, 107
3, 103896, Note_off_c, 1, 45, 64
3, 103920, Note_on_c, 1, 36, 107
3, 104016, Note_off_c, 1, 36, 64
3, 104040, Note_on_c, 1, 41, 107
3, 104136, Note_off_c, 1, 41, 64
3, 104160, Note_on_c, 1, 45, 107
3, 104256, Note_off_c, 1, 45, 64
3, 104280, Note_on_c, 1, 41, 107
3, 104376, Note_off_c, 1, 41, 64
3, 104400, Note_on_c, 1, 45, 107
3, 104496, Note_off_c, 1, 45, 64
3, 104520, Note_on_c, 1, 48, 107
3, 104616, Note_off_c, 1, 48, 64
3, 104640, Note_on_c, 1, 43, 107
3, 104736, Note_off_c, 1, 43, 64
3, 104760, Note_on_c, 1, 48, 107
3, 104856, Note_off_c, 1, 48, 64
3, 104880, Note_on_c, 1, 52, 107
3, 104976, Note_off_c, 1, 52, 64
3, 105000, Note_on_c, 1, 48, 107
3, 105096, Note_off_c, 1, 48, 64
3, 105120, Note_on_c, 1, 52, 107
3, 105216, Note_off_c, 1, 52, 64
3, 105240, Note_on_c, 1, 53, 107
3, 105336, Note_off_c, 1, 53, 64
3, 105360, Note_on_c, 1, 48, 107
3, 105456, Note_off_c, 1, 48, 64
3, 105480, Note_on_c, 1, 53, 107
3, 105576, Note_off_c, 1, 53, 64
3, 105600, Note_on_c, 1, 57, 107
3, 105696, Note_off_c, 1, 57, 64
3, 105720, Note_on_c, 1, 53, 107
3, 105816, Note_off_c, 1, 53, 64
3, 105840, Note_on_c, 1, 57, 107
3, 105936, Note_off_c, 1, 57, 64
3, 105960, Note_on_c, 1, 60, 107
3, 106056, Note_off_c, 1, 60, 64
3, 106080, Note_on_c, 1, 55, 107
3, 106176, Note_off_c, 1, 55, 64
3, 106200, Note_on_c, 1, 60, 107
3, 106296, Note_off_c, 1, 60, 64
3, 106320, Note_on_c, 1, 64, 107
3, 106416, Note_off_c, 1, 64, 64
3, 106440, Note_on_c, 1, 60, 107
3, 106536, Note_off_c, 1, 60, 64
3, 106560, Note_on_c, 1, 64, 107
3, 106656, Note_off_c, 1, 64, 64
3, 106680, Note_on_c, 1, 69, 107
3, 106776, Note_off_c, 1, 69, 64
3, 106800, Note_on_c, 1, 65, 107
3, 106896, Note_off_c, 1, 65, 64
3, 106920, Note_on_c, 1, 62, 107
3, 107016, Note_off_c, 1, 62, 64
3, 107040, Note_on_c, 1, 67, 107
3, 107136, Note_off_c, 1, 67, 64
3, 107160, Note_on_c, 1, 64, 107
3, 107256, Note_off_c, 1, 64, 64
3, 107280, Note_on_c, 1, 60, 107
3, 107376, Note_off_c, 1, 60, 64
3, 107400, Note_on_c, 1, 65, 107
3, 107496, Note_off_c, 1, 65, 64
3, 107520, Note_on_c, 1, 62, 107
3, 107616, Note_off_c, 1, 62, 64
3, 107640, Note_on_c, 1, 58, 107
3, 107736, Note_off_c, 1, 58, 64
3, 107760, Note_on_c, 1, 64, 107
3, 107856, Note_off_c, 1, 64, 64
3, 107880, Note_on_c, 1, 60, 107
3, 107976, Note_off_c, 1, 60, 64
3, 108000, Note_on_c, 1, 57, 107
3, 108096, Note_off_c, 1, 57, 64
3, 108120, Note_on_c, 1, 62, 107
3, 108216, Note_off_c, 1, 62, 64
3, 108240, Note_on_c, 1, 58, 107
3, 108336, Note_off_c, 1, 58, 64
3, 108360, Note_on_c, 1, 55, 107
3, 108456, Note_off_c, 1, 55, 64
3, 108480, Note_on_c, 1, 60, 107
3, 108672, Note_off_c, 1, 60, 64
3, 108720, Note_on_c, 1, 48, 107
3, 108816, Note_off_c, 1, 48, 64
3, 108840, Note_on_c, 1, 41, 107
3, 109392, Note_off_c, 1, 41, 64
3, 110280, Note_on_c, 1, 55, 107
3, 110472, Note_off_c, 1, 55, 64
3, 110520, Note_on_c, 1, 60, 107
3, 110616, Note_off_c, 1, 60, 64
3, 110640, Note_on_c, 1, 48, 107
3, 111096, Note_off_c, 1, 48, 64
3, 111120, Note_on_c, 1, 50, 107
3, 111216, Note_off_c, 1, 50, 64
3, 111240, Note_on_c, 1, 52, 107
3, 111336, Note_off_c, 1, 52, 64
3, 111360, Note_on_c, 1, 53, 107
3, 111456, Note_off_c, 1, 53, 64
3, 111480, Note_on_c, 1, 52, 107
3, 111576, Note_off_c, 1, 52, 64
3, 111600, Note_on_c, 1, 55, 107
3, 111696, Note_off_c, 1, 55, 64
3, 111720, Note_on_c, 1, 57, 107
3, 111816, Note_off_c, 1, 57, 64
3, 111840, Note_on_c, 1, 55, 107
3, 111936, Note_off_c, 1, 55, 64
3, 111960, Note_on_c, 1, 58, 107
3, 112056, Note_off_c, 1, 58, 64
3, 112080, Note_on_c, 1, 57, 107
3, 112176, Note_off_c, 1, 57, 64
3, 112200, Note_on_c, 1, 58, 107
3, 112296, Note_off_c, 1, 58, 64
3, 112320, Note_on_c, 1, 60, 107
3, 112416, Note_off_c, 1, 60, 64
3, 112440, Note_on_c, 1, 53, 107
3, 112728, Note_off_c, 1, 53, 64
3, 113040, Note_on_c, 1, 53, 107
3, 113136, Note_off_c, 1, 53, 64
3, 113160, Note_on_c, 1, 57, 107
3, 113256, Note_off_c, 1, 57, 64
3, 113280, Note_on_c, 1, 53, 107
3, 113376, Note_off_c, 1, 53, 64
3, 113400, Note_on_c, 1, 57, 107
3, 113496, Note_off_c, 1, 57, 64
3, 113520, Note_on_c, 1, 60, 107
3, 113616, Note_off_c, 1, 60, 64
3, 113640, Note_on_c, 1, 57, 107
3, 113736, Note_off_c, 1, 57, 64
3, 113760, Note_on_c, 1, 60, 107
3, 113856, Note_off_c, 1, 60, 64
3, 113880, Note_on_c, 1, 63, 107
3, 114072, Note_off_c, 1, 63, 64
3, 114120, Note_on_c, 1, 51, 107
3, 114216, Note_off_c, 1, 51, 64
3, 114240, Note_on_c, 1, 50, 107
3, 114432, Note_off_c, 1, 50, 64
3, 114480, Note_on_c, 1, 48, 107
3, 114576, Note_off_c, 1, 48, 64
3, 114600, Note_on_c, 1, 46, 107
3, 114792, Note_off_c, 1, 46, 64
3, 114840, Note_on_c, 1, 53, 107
3, 114936, Note_off_c, 1, 53, 64
3, 114960, Note_on_c, 1, 58, 107
3, 115056, Note_off_c, 1, 58, 64
3, 115080, Note_on_c, 1, 60, 107
3, 115176, Note_off_c, 1, 60, 64
3, 115200, Note_on_c, 1, 57, 107
3, 115296, Note_off_c, 1, 57, 64
3, 115320, Note_on_c, 1, 58, 107
3, 115416, Note_off_c, 1, 58, 64
3, 115440, Note_on_c, 1, 60, 107
3, 115536, Note_off_c, 1, 60, 64
3, 115560, Note_on_c, 1, 57, 107
3, 115656, Note_off_c, 1, 57, 64
3, 115680, Note_on_c, 1, 59, 107
3, 115872, Note_off_c, 1, 59, 64
3, 115920, Note_on_c, 1, 61, 107
3, 116016, Note_off_c, 1, 61, 64
3, 116040, Note_on_c, 1, 62, 107
3, 116136, Note_off_c, 1, 62, 64
3, 116160, Note_on_c, 1, 61, 107
3, 116256, Note_off_c, 1, 61, 64
3, 116280, Note_on_c, 1, 64, 107
3, 116376, Note_off_c, 1, 64, 64
3, 116400, Note_on_c, 1, 62, 107
3, 116496, Note_off_c, 1, 62, 64
3, 116520, Note_on_c, 1, 55, 107
3, 116616, Note_off_c, 1, 55, 64
3, 116640, Note_on_c, 1, 58, 107
3, 116736, Note_off_c, 1, 58, 64
3, 116760, Note_on_c, 1, 57, 107
3, 116952, Note_off_c, 1, 57, 64
3, 117000, Note_on_c, 1, 45, 107
3, 117096, Note_off_c, 1, 45, 64
3, 117120, Note_on_c, 1, 57, 107
3, 117144, Note_off_c, 1, 57, 64
3, 117150, Note_on_c, 1, 56, 107
3, 117174, Note_off_c, 1, 56, 64
3, 117180, Note_on_c, 1, 57, 107
3, 117672, Note_off_c, 1, 57, 64
3, 117720, Note_on_c, 1, 45, 107
3, 117816, Note_off_c, 1, 45, 64
3, 117840, Note_on_c, 1, 57, 107
3, 117864, Note_off_c, 1, 57, 64
3, 117870, Note_on_c, 1, 56, 107
3, 117894, Note_off_c, 1, 56, 64
3, 117900, Note_on_c, 1, 57, 107
3, 118152, Note_off_c, 1, 57, 64
3, 118200, Note_on_c, 1, 57, 107
3, 118392, Note_off_c, 1, 57, 64
3, 118440, Note_on_c, 1, 45, 107
3, 118536, Note_off_c, 1, 45, 64
3, 118560, Note_on_c, 1, 57, 107
3, 118584, Note_off_c, 1, 57, 64
3, 118590, Note_on_c, 1, 56, 107
3, 118614, Note_off_c, 1, 56, 64
3, 118620, Note_on_c, 1, 57, 107
3, 119112, Note_off_c, 1, 57, 64
3, 119160, Note_on_c, 1, 45, 107
3, 119256, Note_off_c, 1, 45, 64
3, 119280, Note_on_c, 1, 57, 107
3, 119472, Note_off_c, 1, 57, 64
3, 119520, Note_on_c, 1, 45, 107
3, 119616, Note_off_c, 1, 45, 64
3, 119640, Note_on_c, 1, 57, 107
3, 119736, Note_off_c, 1, 57, 64
3, 119760, Note_on_c, 1, 55, 107
3, 119856, Note_off_c, 1, 55, 64
3, 119880, Note_on_c, 1, 58, 107
3, 119976, Note_off_c, 1, 58, 64
3, 120000, Note_on_c, 1, 57, 107
3, 120096, Note_off_c, 1, 57, 64
3, 120120, Note_on_c, 1, 55, 107
3, 120216, Note_off_c, 1, 55, 64
3, 120240, Note_on_c, 1, 58, 107
3, 120336, Note_off_c, 1, 58, 64
3, 120360, Note_on_c, 1, 57, 107
3, 120456, Note_off_c, 1, 57, 64
3, 120480, Note_on_c, 1, 55, 107
3, 120576, Note_off_c, 1, 55, 64
3, 120600, Note_on_c, 1, 58, 107
3, 120696, Note_off_c, 1, 58, 64
3, 120720, Note_on_c, 1, 57, 107
3, 120816, Note_off_c, 1, 57, 64
3, 120840, Note_on_c, 1, 58, 107
3, 120936, Note_off_c, 1, 58, 64
3, 120960, Note_on_c, 1, 55, 107
3, 121056, Note_off_c, 1, 55, 64
3, 121080, Note_on_c, 1, 53, 107
3, 121176, Note_off_c, 1, 53, 64
3, 121200, Note_on_c, 1, 52, 107
3, 121296, Note_off_c, 1, 52, 64
3, 121320, Note_on_c, 1, 55, 107
3, 121416, Note_off_c, 1, 55, 64
3, 121440, Note_on_c, 1, 53, 107
3, 121536, Note_off_c, 1, 53, 64
3, 121560, Note_on_c, 1, 57, 107
3, 121656, Note_off_c, 1, 57, 64
3, 121680, Note_on_c, 1, 52, 107
3, 121776, Note_off_c, 1, 52, 64
3, 121800, Note_on_c, 1, 53, 107
3, 121896, Note_off_c, 1, 53, 64
3, 121920, Note_on_c, 1, 52, 107
3, 122016, Note_off_c, 1, 52, 64
3, 122040, Note_on_c, 1, 55, 107
3, 122136, Note_off_c, 1, 55, 64
3, 122160, Note_on_c, 1, 53, 107
3, 122256, Note_off_c, 1, 53, 64
3, 122280, Note_on_c, 1, 52, 107
3, 122376, Note_off_c, 1, 52, 64
3, 122400, Note_on_c, 1, 50, 107
3, 122496, Note_off_c, 1, 50, 64
3, 122520, Note_on_c, 1, 49, 107
3, 122616, Note_off_c, 1, 49, 64
3, 122640, Note_on_c, 1, 47, 107
3, 122736, Note_off_c, 1, 47, 64
3, 122760, Note_on_c, 1, 50, 107
3, 122856, Note_off_c, 1, 50, 64
3, 122880, Note_on_c, 1, 49, 107
3, 122976, Note_off_c, 1, 49, 64
3, 123000, Note_on_c, 1, 52, 107
3, 123096, Note_off_c, 1, 52, 64
3, 123120, Note_on_c, 1, 47, 107
3, 123216, Note_off_c, 1, 47, 64
3, 123240, Note_on_c, 1, 49, 107
3, 123336, Note_off_c, 1, 49, 64
3, 123360, Note_on_c, 1, 47, 107
3, 123456, Note_off_c, 1, 47, 64
3, 123480, Note_on_c, 1, 50, 107
3, 123576, Note_off_c, 1, 50, 64
3, 123600, Note_on_c, 1, 49, 107
3, 123696, Note_off_c, 1, 49, 64
3, 123720, Note_on_c, 1, 47, 107
3, 123816, Note_off_c, 1, 47, 64
3, 123840, Note_on_c, 1, 45, 107
3, 123936, Note_off_c, 1, 45, 64
3, 123960, Note_on_c, 1, 50, 107
3, 124152, Note_off_c, 1, 50, 64
3, 124200, Note_on_c, 1, 53, 107
3, 124296, Note_off_c, 1, 53, 64
3, 124320, Note_on_c, 1, 57, 107
3, 124512, Note_off_c, 1, 57, 64
3, 124560, Note_on_c, 1, 45, 107
3, 124656, Note_off_c, 1, 45, 64
3, 124680, Note_on_c, 1, 50, 107
3, 124776, Note_off_c, 1, 50, 64
3, 124800, Note_on_c, 1, 45, 107
3, 124896, Note_off_c, 1, 45, 64
3, 124920, Note_on_c, 1, 50, 107
3, 125016, Note_off_c, 1, 50, 64
3, 125040, Note_on_c, 1, 53, 107
3, 125136, Note_off_c, 1, 53, 64
3, 125160, Note_on_c, 1, 50, 107
3, 125256, Note_off_c, 1, 50, 64
3, 125280, Note_on_c, 1, 53, 107
3, 125376, Note_off_c, 1, 53, 64
3, 125400, Note_on_c, 1, 57, 107
3, 125688, Note_off_c, 1, 57, 64
3, 126000, Note_on_c, 1, 60, 107
3, 126096, Note_off_c, 1, 60, 64
3, 126120, Note_on_c, 1, 57, 107
3, 126216, Note_off_c, 1, 57, 64
3, 126240, Note_on_c, 1, 60, 107
3, 126336, Note_off_c, 1, 60, 64
3, 126360, Note_on_c, 1, 57, 107
3, 126456, Note_off_c, 1, 57, 64
3, 126480, Note_on_c, 1, 53, 107
3, 126576, Note_off_c, 1, 53, 64
3, 126600, Note_on_c, 1, 57, 107
3, 126696, Note_off_c, 1, 57, 64
3, 126720, Note_on_c, 1, 53, 107
3, 126816, Note_off_c, 1, 53, 64
3, 126840, Note_on_c, 1, 48, 107
3, 126936, Note_off_c, 1, 48, 64
3, 126960, Note_on_c, 1, 53, 107
3, 127056, Note_off_c, 1, 53, 64
3, 127080, Note_on_c, 1, 48, 107
3, 127176, Note_off_c, 1, 48, 64
3, 127200, Note_on_c, 1, 45, 107
3, 127296, Note_off_c, 1, 45, 64
3, 127320, Note_on_c, 1, 41, 107
3, 127416, Note_off_c, 1, 41, 64
3, 127440, Note_on_c, 1, 45, 107
3, 127536, Note_off_c, 1, 45, 64
3, 127560, Note_on_c, 1, 46, 107
3, 127656, Note_off_c, 1, 46, 64
3, 127680, Note_on_c, 1, 41, 107
3, 127776, Note_off_c, 1, 41, 64
3, 127800, Note_on_c, 1, 46, 107
3, 127896, Note_off_c, 1, 46, 64
3, 127920, Note_on_c, 1, 50, 107
3, 128016, Note_off_c, 1, 50, 64
3, 128040, Note_on_c, 1, 46, 107
3, 128136, Note_off_c, 1, 46, 64
3, 128160, Note_on_c, 1, 50, 107
3, 128256, Note_off_c, 1, 50, 64
3, 128280, Note_on_c, 1, 53, 107
3, 128568, Note_off_c, 1, 53, 64
3, 128880, Note_on_c, 1, 42, 107
3, 128976, Note_off_c, 1, 42, 64
3, 129000, Note_on_c, 1, 43, 107
3, 129096, Note_off_c, 1, 43, 64
3, 129120, Note_on_c, 1, 38, 107
3, 129216, Note_off_c, 1, 38, 64
3, 129240, Note_on_c, 1, 43, 107
3, 129336, Note_off_c, 1, 43, 64
3, 129360, Note_on_c, 1, 46, 107
3, 129456, Note_off_c, 1, 46, 64
3, 129480, Note_on_c, 1, 43, 107
3, 129576, Note_off_c, 1, 43, 64
3, 129600, Note_on_c, 1, 46, 107
3, 129696, Note_off_c, 1, 46, 64
3, 129720, Note_on_c, 1, 50, 107
3, 129816, Note_off_c, 1, 50, 64
3, 129840, Note_on_c, 1, 48, 107
3, 129936, Note_off_c, 1, 48, 64
3, 129960, Note_on_c, 1, 51, 107
3, 130056, Note_off_c, 1, 51, 64
3, 130080, Note_on_c, 1, 50, 107
3, 130176, Note_off_c, 1, 50, 64
3, 130200, Note_on_c, 1, 51, 107
3, 130296, Note_off_c, 1, 51, 64
3, 130320, Note_on_c, 1, 48, 107
3, 130416, Note_off_c, 1, 48, 64
3, 130440, Note_on_c, 1, 46, 107
3, 130536, Note_off_c, 1, 46, 64
3, 130560, Note_on_c, 1, 45, 107
3, 130656, Note_off_c, 1, 45, 64
3, 130680, Note_on_c, 1, 48, 107
3, 130776, Note_off_c, 1, 48, 64
3, 130800, Note_on_c, 1, 46, 107
3, 130896, Note_off_c, 1, 46, 64
3, 130920, Note_on_c, 1, 48, 107
3, 131016, Note_off_c, 1, 48, 64
3, 131040, Note_on_c, 1, 45, 107
3, 131136, Note_off_c, 1, 45, 64
3, 131160, Note_on_c, 1, 43, 107
3, 131256, Note_off_c, 1, 43, 64
3, 131280, Note_on_c, 1, 42, 107
3, 131376, Note_off_c, 1, 42, 64
3, 131400, Note_on_c, 1, 45, 107
3, 131496, Note_off_c, 1, 45, 64
3, 131520, Note_on_c, 1, 43, 107
3, 131616, Note_off_c, 1, 43, 64
3, 131640, Note_on_c, 1, 46, 107
3, 131736, Note_off_c, 1, 46, 64
3, 131760, Note_on_c, 1, 45, 107
3, 131856, Note_off_c, 1, 45, 64
3, 131880, Note_on_c, 1, 42, 107
3, 131976, Note_off_c, 1, 42, 64
3, 132000, Note_on_c, 1, 43, 107
3, 132096, Note_off_c, 1, 43, 64
3, 132120, Note_on_c, 1, 45, 107
3, 132216, Note_off_c, 1, 45, 64
3, 132240, Note_on_c, 1, 38, 107
3, 132792, Note_off_c, 1, 38, 64
3, 132840, Note_on_c, 1, 38, 107
3, 132936, Note_off_c, 1, 38, 64
3, 132960, Note_on_c, 1, 50, 107
3, 132984, Note_off_c, 1, 50, 64
3, 132990, Note_on_c, 1, 49, 107
3, 133014, Note_off_c, 1, 49, 64
3, 133020, Note_on_c, 1, 50, 107
3, 133068, Note_off_c, 1, 50, 64
3, 133080, Note_on_c, 1, 50, 107
3, 133512, Note_off_c, 1, 50, 64
3, 133560, Note_on_c, 1, 38, 107
3, 133656, Note_off_c, 1, 38, 64
3, 133680, Note_on_c, 1, 50, 107
3, 133872, Note_off_c, 1, 50, 64
3, 133920, Note_on_c, 1, 38, 107
3, 134016, Note_off_c, 1, 38, 64
3, 134040, Note_on_c, 1, 50, 107
3, 134232, Note_off_c, 1, 50, 64
3, 134280, Note_on_c, 1, 38, 107
3, 134376, Note_off_c, 1, 38, 64
3, 134400, Note_on_c, 1, 50, 107
3, 134424, Note_off_c, 1, 50, 64
3, 134430, Note_on_c, 1, 49, 107
3, 134454, Note_off_c, 1, 49, 64
3, 134460, Note_on_c, 1, 50, 107
3, 134856, Note_off_c, 1, 50, 64
3, 134880, Note_on_c, 1, 50, 107
3, 134976, Note_off_c, 1, 50, 64
3, 135000, Note_on_c, 1, 52, 107
3, 135096, Note_off_c, 1, 52, 64
3, 135120, Note_on_c, 1, 54, 107
3, 135216, Note_off_c, 1, 54, 64
3, 135240, Note_on_c, 1, 52, 107
3, 135336, Note_off_c, 1, 52, 64
3, 135360, Note_on_c, 1, 50, 107
3, 135456, Note_off_c, 1, 50, 64
3, 135480, Note_on_c, 1, 55, 107
3, 135576, Note_off_c, 1, 55, 64
3, 135600, Note_on_c, 1, 46, 107
3, 135696, Note_off_c, 1, 46, 64
3, 135720, Note_on_c, 1, 48, 107
3, 135816, Note_off_c, 1, 48, 64
3, 135840, Note_on_c, 1, 50, 107
3, 135936, Note_off_c, 1, 50, 64
3, 135960, Note_on_c, 1, 48, 107
3, 136056, Note_off_c, 1, 48, 64
3, 136080, Note_on_c, 1, 50, 107
3, 136176, Note_off_c, 1, 50, 64
3, 136200, Note_on_c, 1, 43, 107
3, 136296, Note_off_c, 1, 43, 64
3, 136320, Note_on_c, 1, 62, 107
3, 136416, Note_off_c, 1, 62, 64
3, 136440, Note_on_c, 1, 58, 107
3, 136536, Note_off_c, 1, 58, 64
3, 136560, Note_on_c, 1, 55, 107
3, 136656, Note_off_c, 1, 55, 64
3, 136680, Note_on_c, 1, 58, 107
3, 136776, Note_off_c, 1, 58, 64
3, 136800, Note_on_c, 1, 55, 107
3, 136896, Note_off_c, 1, 55, 64
3, 136920, Note_on_c, 1, 52, 107
3, 137112, Note_off_c, 1, 52, 64
3, 137160, Note_on_c, 1, 60, 107
3, 137256, Note_off_c, 1, 60, 64
3, 137280, Note_on_c, 1, 48, 107
3, 137736, Note_off_c, 1, 48, 64
3, 137760, Note_on_c, 1, 60, 107
3, 137856, Note_off_c, 1, 60, 64
3, 137880, Note_on_c, 1, 57, 107
3, 137976, Note_off_c, 1, 57, 64
3, 138000, Note_on_c, 1, 53, 107
3, 138096, Note_off_c, 1, 53, 64
3, 138120, Note_on_c, 1, 57, 107
3, 138216, Note_off_c, 1, 57, 64
3, 138240, Note_on_c, 1, 53, 107
3, 138336, Note_off_c, 1, 53, 64
3, 138360, Note_on_c, 1, 50, 107
3, 138552, Note_off_c, 1, 50, 64
3, 138600, Note_on_c, 1, 58, 107
3, 138696, Note_off_c, 1, 58, 64
3, 138720, Note_on_c, 1, 46, 107
3, 139176, Note_off_c, 1, 46, 64
3, 139200, Note_on_c, 1, 58, 107
3, 139296, Note_off_c, 1, 58, 64
3, 139320, Note_on_c, 1, 55, 107
3, 139416, Note_off_c, 1, 55, 64
3, 139440, Note_on_c, 1, 52, 107
3, 139536, Note_off_c, 1, 52, 64
3, 139560, Note_on_c, 1, 55, 107
3, 139656, Note_off_c, 1, 55, 64
3, 139680, Note_on_c, 1, 52, 107
3, 139776, Note_off_c, 1, 52, 64
3, 139800, Note_on_c, 1, 48, 107
3, 139992, Note_off_c, 1, 48, 64
3, 140040, Note_on_c, 1, 57, 107
3, 140136, Note_off_c, 1, 57, 64
3, 140160, Note_on_c, 1, 45, 107
3, 140352, Note_off_c, 1, 45, 64
3, 140400, Note_on_c, 1, 50, 107
3, 140496, Note_off_c, 1, 50, 64
3, 140520, Note_on_c, 1, 46, 107
3, 140712, Note_off_c, 1, 46, 64
3, 140760, Note_on_c, 1, 55, 107
3, 140856, Note_off_c, 1, 55, 64
3, 140880, Note_on_c, 1, 43, 107
3, 141072, Note_off_c, 1, 43, 64
3, 141120, Note_on_c, 1, 48, 107
3, 141216, Note_off_c, 1, 48, 64
3, 141240, Note_on_c, 1, 45, 107
3, 141432, Note_off_c, 1, 45, 64
3, 141480, Note_on_c, 1, 53, 107
3, 141576, Note_off_c, 1, 53, 64
3, 141600, Note_on_c, 1, 47, 107
3, 141792, Note_off_c, 1, 47, 64
3, 141840, Note_on_c, 1, 55, 107
3, 141936, Note_off_c, 1, 55, 64
3, 141960, Note_on_c, 1, 48, 107
3, 142152, Note_off_c, 1, 48, 64
3, 142200, Note_on_c, 1, 57, 107
3, 142296, Note_off_c, 1, 57, 64
3, 142320, Note_on_c, 1, 50, 107
3, 142512, Note_off_c, 1, 50, 64
3, 142560, Note_on_c, 1, 59, 107
3, 142656, Note_off_c, 1, 59, 64
3, 142680, Note_on_c, 1, 48, 107
3, 142968, Note_off_c, 1, 48, 64
3, 143160, Note_on_c, 1, 48, 107
3, 143256, Note_off_c, 1, 48, 64
3, 143280, Note_on_c, 1, 46, 107
3, 143376, Note_off_c, 1, 46, 64
3, 143400, Note_on_c, 1, 45, 107
3, 143496, Note_off_c, 1, 45, 64
3, 143520, Note_on_c, 1, 43, 107
3, 143616, Note_off_c, 1, 43, 64
3, 143640, Note_on_c, 1, 41, 107
3, 143736, Note_off_c, 1, 41, 64
3, 143760, Note_on_c, 1, 41, 107
3, 143856, Note_off_c, 1, 41, 64
3, 143880, Note_on_c, 1, 43, 107
3, 143976, Note_off_c, 1, 43, 64
3, 144000, Note_on_c, 1, 45, 107
3, 144096, Note_off_c, 1, 45, 64
3, 144120, Note_on_c, 1, 45, 107
3, 144216, Note_off_c, 1, 45, 64
3, 144240, Note_on_c, 1, 36, 107
3, 144336, Note_off_c, 1, 36, 64
3, 144360, Note_on_c, 1, 41, 107
3, 144456, Note_off_c, 1, 41, 64
3, 144480, Note_on_c, 1, 45, 107
3, 144576, Note_off_c, 1, 45, 64
3, 144600, Note_on_c, 1, 41, 107
3, 144696, Note_off_c, 1, 41, 64
3, 144720, Note_on_c, 1, 45, 107
3, 144816, Note_off_c, 1, 45, 64
3, 144840, Note_on_c, 1, 48, 107
3, 144936, Note_off_c, 1, 48, 64
3, 144960, Note_on_c, 1, 43, 107
3, 145056, Note_off_c, 1, 43, 64
3, 145080, Note_on_c, 1, 48, 107
3, 145176, Note_off_c, 1, 48, 64
3, 145200, Note_on_c, 1, 52, 107
3, 145296, Note_off_c, 1, 52, 64
3, 145320, Note_on_c, 1, 48, 107
3, 145416, Note_off_c, 1, 48, 64
3, 145440, Note_on_c, 1, 52, 107
3, 145536, Note_off_c, 1, 52, 64
3, 145560, Note_on_c, 1, 53, 107
3, 145656, Note_off_c, 1, 53, 64
3, 145680, Note_on_c, 1, 48, 107
3, 145776, Note_off_c, 1, 48, 64
3, 145800, Note_on_c, 1, 53, 107
3, 145896, Note_off_c, 1, 53, 64
3, 145920, Note_on_c, 1, 57, 107
3, 146016, Note_off_c, 1, 57, 64
3, 146040, Note_on_c, 1, 53, 107
3, 146136, Note_off_c, 1, 53, 64
3, 146160, Note_on_c, 1, 57, 107
3, 146256, Note_off_c, 1, 57, 64
3, 146280, Note_on_c, 1, 60, 107
3, 146376, Note_off_c, 1, 60, 64
3, 146400, Note_on_c, 1, 55, 107
3, 146496, Note_off_c, 1, 55, 64
3, 146520, Note_on_c, 1, 60, 107
3, 146616, Note_off_c, 1, 60, 64
3, 146640, Note_on_c, 1, 64, 107
3, 146736, Note_off_c, 1, 64, 64
3, 146760, Note_on_c, 1, 60, 107
3, 146856, Note_off_c, 1, 60, 64
3, 146880, Note_on_c, 1, 64, 107
3, 146976, Note_off_c, 1, 64, 64
3, 147000, Note_on_c, 1, 69, 107
3, 147096, Note_off_c, 1, 69, 64
3, 147120, Note_on_c, 1, 65, 107
3, 147216, Note_off_c, 1, 65, 64
3, 147240, Note_on_c, 1, 62, 107
3, 147336, Note_off_c, 1, 62, 64
3, 147360, Note_on_c, 1, 67, 107
3, 147456, Note_off_c, 1, 67, 64
3, 147480, Note_on_c, 1, 64, 107
3, 147576, Note_off_c, 1, 64, 64
3, 147600, Note_on_c, 1, 60, 107
3, 147696, Note_off_c, 1, 60, 64
3, 147720, Note_on_c, 1, 65, 107
3, 147816, Note_off_c, 1, 65, 64
3, 147840, Note_on_c, 1, 62, 107
3, 147936, Note_off_c, 1, 62, 64
3, 147960, Note_on_c, 1, 58, 107
3, 148056, Note_off_c, 1, 58, 64
3, 148080, Note_on_c, 1, 64, 107
3, 148176, Note_off_c, 1, 64, 64
3, 148200, Note_on_c, 1, 60, 107
3, 148296, Note_off_c, 1, 60, 64
3, 148320, Note_on_c, 1, 57, 107
3, 148416, Note_off_c, 1, 57, 64
3, 148440, Note_on_c, 1, 62, 107
3, 148536, Note_off_c, 1, 62, 64
3, 148560, Note_on_c, 1, 58, 107
3, 148656, Note_off_c, 1, 58, 64
3, 148680, Note_on_c, 1, 55, 107
3, 148776, Note_off_c, 1, 55, 64
3, 148800, Note_on_c, 1, 60, 107
3, 148992, Note_off_c, 1, 60, 64
3, 149040, Note_on_c, 1, 48, 107
3, 149136, Note_off_c, 1, 48, 64
3, 149160, Note_on_c, 1, 41, 107
3, 149712, Note_off_c, 1, 41, 64
3, 149712, End_track
4, 0, Start_track
4, 0, Title_t, "Arr. Gary Bricault, (c) 1997"
4, 0, End_track
0, 0, End_of_file
