0, 0, Header, 1, 3, 384
1, 0, Start_track
1, 0, Time_signature, 4, 2, 24, 8
1, 0, Tempo, 500000
1, 400896, End_track
2, 0, Start_track
2, 0, Text_t, "harpsichord: John Sankey"
2, 0, Program_c, 0, 6
2, 0, Pitch_bend_c, 0, 8192
2, 0, Program_c, 1, 6
2, 0, Pitch_bend_c, 1, 7792
2, 0, Program_c, 2, 6
2, 0, Pitch_bend_c, 2, 7876
2, 0, Program_c, 3, 6
2, 0, Pitch_bend_c, 3, 7952
2, 0, Program_c, 4, 6
2, 0, Pitch_bend_c, 4, 7792
2, 0, Program_c, 5, 6
2, 0, Pitch_bend_c, 5, 8112
2, 0, Program_c, 6, 6
2, 0, Pitch_bend_c, 6, 7712
2, 0, Program_c, 7, 6
2, 0, Pitch_bend_c, 7, 8037
2, 0, Program_c, 8, 6
2, 0, Pitch_bend_c, 8, 7872
2, 0, Program_c, 10, 6
2, 0, Pitch_bend_c, 10, 7712
2, 0, Program_c, 11, 6
2, 0, Pitch_bend_c, 11, 8032
2, 0, Program_c, 12, 6
2, 0, Pitch_bend_c, 12, 7872
2, 0, Title_t, "Track 1"
2, 0, Note_on_c, 10, 69, 127
2, 0, Note_on_c, 0, 72, 127
2, 0, Note_on_c, 4, 76, 127
2, 0, Note_on_c, 10, 81, 127
2, 98, Note_on_c, 10, 45, 127
2, 195, Note_off_c, 10, 45, 127
2, 197, Note_on_c, 12, 47, 127
2, 294, Note_off_c, 12, 47, 127
2, 296, Note_on_c, 0, 48, 127
2, 393, Note_off_c, 0, 48, 127
2, 395, Note_on_c, 2, 50, 127
2, 492, Note_off_c, 2, 50, 127
2, 494, Note_on_c, 4, 52, 127
2, 591, Note_off_c, 4, 52, 127
2, 593, Note_on_c, 6, 54, 127
2, 690, Note_off_c, 6, 54, 127
2, 692, Note_on_c, 8, 56, 127
2, 789, Note_off_c, 8, 56, 127
2, 791, Note_on_c, 10, 57, 127
2, 1185, Note_off_c, 10, 81, 127
2, 1185, Note_off_c, 4, 76, 127
2, 1185, Note_off_c, 0, 72, 127
2, 1186, Note_on_c, 0, 72, 127
2, 1186, Note_on_c, 4, 76, 127
2, 1580, Note_off_c, 4, 76, 127
2, 1580, Note_off_c, 0, 72, 127
2, 1582, Note_on_c, 5, 77, 127
2, 1582, Note_on_c, 2, 74, 127
2, 1976, Note_off_c, 2, 74, 127
2, 1976, Note_off_c, 5, 77, 127
2, 1977, Note_on_c, 4, 76, 127
2, 1977, Note_on_c, 0, 72, 127
2, 2371, Note_off_c, 0, 72, 127
2, 2371, Note_off_c, 4, 76, 127
2, 2373, Note_on_c, 5, 77, 127
2, 2373, Note_on_c, 2, 74, 127
2, 2767, Note_off_c, 2, 74, 127
2, 2767, Note_off_c, 5, 77, 127
2, 2768, Note_on_c, 2, 74, 127
2, 2768, Note_on_c, 12, 71, 127
2, 3159, Note_off_c, 10, 69, 127
2, 3160, Note_off_c, 10, 57, 127
2, 3162, Note_off_c, 12, 71, 127
2, 3162, Note_off_c, 2, 74, 127
2, 3164, Note_on_c, 4, 76, 127
2, 3164, Note_on_c, 0, 72, 127
2, 3164, Note_on_c, 10, 69, 127
2, 3263, Note_on_c, 10, 45, 127
2, 3360, Note_off_c, 10, 45, 127
2, 3361, Note_on_c, 12, 47, 127
2, 3458, Note_off_c, 12, 47, 127
2, 3460, Note_on_c, 0, 48, 127
2, 3557, Note_off_c, 0, 48, 127
2, 3559, Note_on_c, 2, 50, 127
2, 3656, Note_off_c, 2, 50, 127
2, 3658, Note_on_c, 4, 52, 127
2, 3755, Note_off_c, 4, 52, 127
2, 3757, Note_on_c, 6, 54, 127
2, 3854, Note_off_c, 6, 54, 127
2, 3856, Note_on_c, 8, 56, 127
2, 3953, Note_off_c, 8, 56, 127
2, 3955, Note_on_c, 10, 57, 127
2, 4297, Note_off_c, 0, 72, 127
2, 4297, Note_off_c, 4, 76, 127
2, 4348, Note_off_c, 10, 69, 127
2, 4350, Note_on_c, 4, 64, 127
2, 4350, Note_on_c, 0, 72, 127
2, 4350, Note_on_c, 10, 69, 127
2, 4744, Note_off_c, 10, 69, 127
2, 4744, Note_off_c, 0, 72, 127
2, 4744, Note_off_c, 4, 64, 127
2, 4746, Note_on_c, 2, 74, 127
2, 4746, Note_on_c, 12, 71, 127
2, 4746, Note_on_c, 5, 65, 127
2, 5140, Note_off_c, 5, 65, 127
2, 5140, Note_off_c, 12, 71, 127
2, 5140, Note_off_c, 2, 74, 127
2, 5141, Note_on_c, 4, 64, 127
2, 5141, Note_on_c, 0, 72, 127
2, 5141, Note_on_c, 10, 69, 127
2, 5535, Note_off_c, 10, 69, 127
2, 5535, Note_off_c, 0, 72, 127
2, 5535, Note_off_c, 4, 64, 127
2, 5537, Note_on_c, 5, 65, 127
2, 5537, Note_on_c, 2, 74, 127
2, 5537, Note_on_c, 12, 71, 127
2, 5931, Note_off_c, 12, 71, 127
2, 5931, Note_off_c, 2, 74, 127
2, 5931, Note_off_c, 5, 65, 127
2, 5932, Note_on_c, 8, 68, 127
2, 5932, Note_on_c, 2, 62, 127
2, 5932, Note_on_c, 12, 71, 127
2, 6324, Note_off_c, 10, 57, 127
2, 6326, Note_off_c, 12, 71, 127
2, 6326, Note_off_c, 2, 62, 127
2, 6326, Note_off_c, 8, 68, 127
2, 6328, Note_on_c, 4, 64, 127
2, 6328, Note_on_c, 0, 72, 127
2, 6328, Note_on_c, 10, 69, 127
2, 6427, Note_on_c, 10, 45, 127
2, 6524, Note_off_c, 10, 45, 127
2, 6526, Note_on_c, 12, 47, 127
2, 6623, Note_off_c, 12, 47, 127
2, 6624, Note_on_c, 0, 48, 127
2, 6721, Note_off_c, 0, 48, 127
2, 6723, Note_on_c, 2, 50, 127
2, 6820, Note_off_c, 2, 50, 127
2, 6822, Note_on_c, 4, 52, 127
2, 6919, Note_off_c, 4, 52, 127
2, 6921, Note_on_c, 6, 54, 127
2, 7018, Note_off_c, 6, 54, 127
2, 7020, Note_on_c, 8, 56, 127
2, 7117, Note_off_c, 8, 56, 127
2, 7119, Note_on_c, 10, 57, 127
2, 7513, Note_off_c, 10, 57, 127
2, 7513, Note_off_c, 10, 69, 127
2, 7513, Note_off_c, 0, 72, 127
2, 7513, Note_off_c, 4, 64, 127
2, 7514, Note_on_c, 5, 53, 127
2, 7514, Note_on_c, 5, 65, 127
2, 7514, Note_on_c, 2, 74, 127
2, 7514, Note_on_c, 10, 69, 127
2, 7905, Note_off_c, 5, 53, 127
2, 7908, Note_off_c, 10, 69, 127
2, 7908, Note_off_c, 2, 74, 127
2, 7908, Note_off_c, 5, 65, 127
2, 7910, Note_on_c, 2, 62, 127
2, 7910, Note_on_c, 12, 71, 127
2, 7910, Note_on_c, 7, 67, 127
2, 8009, Note_on_c, 7, 43, 127
2, 8106, Note_off_c, 7, 43, 127
2, 8108, Note_on_c, 10, 45, 127
2, 8205, Note_off_c, 10, 45, 127
2, 8207, Note_on_c, 12, 47, 127
2, 8304, Note_off_c, 12, 47, 127
2, 8305, Note_on_c, 0, 48, 127
2, 8402, Note_off_c, 0, 48, 127
2, 8404, Note_on_c, 2, 50, 127
2, 8501, Note_off_c, 2, 50, 127
2, 8503, Note_on_c, 4, 52, 127
2, 8600, Note_off_c, 4, 52, 127
2, 8602, Note_on_c, 5, 53, 127
2, 8699, Note_off_c, 5, 53, 127
2, 8701, Note_on_c, 7, 55, 127
2, 9095, Note_off_c, 7, 55, 127
2, 9095, Note_off_c, 7, 67, 127
2, 9095, Note_off_c, 12, 71, 127
2, 9095, Note_off_c, 2, 62, 127
2, 9096, Note_on_c, 4, 52, 127
2, 9096, Note_on_c, 4, 64, 127
2, 9096, Note_on_c, 0, 72, 127
2, 9096, Note_on_c, 7, 67, 127
2, 9487, Note_off_c, 4, 52, 127
2, 9490, Note_off_c, 7, 67, 127
2, 9490, Note_off_c, 0, 72, 127
2, 9490, Note_off_c, 4, 64, 127
2, 9492, Note_on_c, 0, 60, 127
2, 9492, Note_on_c, 10, 69, 127
2, 9492, Note_on_c, 5, 65, 127
2, 9591, Note_on_c, 5, 41, 127
2, 9688, Note_off_c, 5, 41, 127
2, 9690, Note_on_c, 7, 43, 127
2, 9787, Note_off_c, 7, 43, 127
2, 9789, Note_on_c, 10, 45, 127
2, 9886, Note_off_c, 10, 45, 127
2, 9888, Note_on_c, 12, 47, 127
2, 9985, Note_off_c, 12, 47, 127
2, 9986, Note_on_c, 0, 48, 127
2, 10083, Note_off_c, 0, 48, 127
2, 10085, Note_on_c, 2, 50, 127
2, 10182, Note_off_c, 2, 50, 127
2, 10184, Note_on_c, 4, 52, 127
2, 10281, Note_off_c, 4, 52, 127
2, 10283, Note_on_c, 5, 53, 127
2, 10677, Note_off_c, 5, 53, 127
2, 10677, Note_off_c, 5, 65, 127
2, 10677, Note_off_c, 10, 69, 127
2, 10677, Note_off_c, 0, 60, 127
2, 10679, Note_on_c, 2, 50, 127
2, 10679, Note_on_c, 2, 62, 127
2, 10679, Note_on_c, 12, 71, 127
2, 10679, Note_on_c, 5, 65, 127
2, 11070, Note_off_c, 2, 50, 127
2, 11073, Note_off_c, 5, 65, 127
2, 11073, Note_off_c, 12, 71, 127
2, 11073, Note_off_c, 2, 62, 127
2, 11074, Note_on_c, 12, 59, 127
2, 11074, Note_on_c, 8, 68, 127
2, 11074, Note_on_c, 4, 64, 127
2, 11173, Note_on_c, 4, 40, 127
2, 11270, Note_off_c, 4, 40, 127
2, 11272, Note_on_c, 6, 42, 127
2, 11369, Note_off_c, 6, 42, 127
2, 11371, Note_on_c, 8, 44, 127
2, 11468, Note_off_c, 8, 44, 127
2, 11470, Note_on_c, 10, 45, 127
2, 11567, Note_off_c, 10, 45, 127
2, 11568, Note_on_c, 12, 47, 127
2, 11665, Note_off_c, 12, 47, 127
2, 11667, Note_on_c, 0, 48, 127
2, 11764, Note_off_c, 0, 48, 127
2, 11766, Note_on_c, 2, 50, 127
2, 11863, Note_off_c, 2, 50, 127
2, 11865, Note_on_c, 4, 52, 127
2, 11962, Note_off_c, 4, 64, 127
2, 11962, Note_off_c, 8, 68, 127
2, 11962, Note_off_c, 12, 59, 127
2, 11964, Note_on_c, 4, 64, 127
2, 12061, Note_off_c, 4, 64, 127
2, 12063, Note_on_c, 6, 66, 127
2, 12160, Note_off_c, 6, 66, 127
2, 12162, Note_on_c, 8, 68, 127
2, 12259, Note_off_c, 8, 68, 127
2, 12259, Note_off_c, 4, 52, 127
2, 12261, Note_on_c, 2, 50, 127
2, 12261, Note_on_c, 10, 69, 127
2, 12358, Note_off_c, 10, 69, 127
2, 12360, Note_on_c, 12, 71, 127
2, 12457, Note_off_c, 12, 71, 127
2, 12458, Note_on_c, 1, 73, 127
2, 12555, Note_off_c, 1, 73, 127
2, 12557, Note_on_c, 2, 74, 127
2, 12654, Note_off_c, 2, 74, 127
2, 12655, Note_off_c, 2, 50, 127
2, 12656, Note_on_c, 1, 49, 127
2, 12656, Note_on_c, 4, 76, 127
2, 12753, Note_off_c, 4, 76, 127
2, 12755, Note_on_c, 1, 73, 127
2, 12852, Note_off_c, 1, 73, 127
2, 12854, Note_on_c, 10, 69, 127
2, 12951, Note_off_c, 10, 69, 127
2, 12953, Note_on_c, 12, 71, 127
2, 13050, Note_off_c, 12, 71, 127
2, 13050, Note_off_c, 1, 49, 127
2, 13052, Note_on_c, 4, 52, 127
2, 13052, Note_on_c, 1, 73, 127
2, 13149, Note_off_c, 1, 73, 127
2, 13151, Note_on_c, 2, 74, 127
2, 13248, Note_off_c, 2, 74, 127
2, 13249, Note_on_c, 4, 76, 127
2, 13346, Note_off_c, 4, 76, 127
2, 13348, Note_on_c, 5, 77, 127
2, 13445, Note_off_c, 5, 77, 127
2, 13446, Note_off_c, 4, 52, 127
2, 13447, Note_on_c, 1, 49, 127
2, 13447, Note_on_c, 7, 79, 127
2, 13841, Note_off_c, 7, 79, 127
2, 13841, Note_off_c, 1, 49, 127
2, 13843, Note_on_c, 10, 45, 127
2, 13843, Note_on_c, 10, 69, 127
2, 13843, Note_on_c, 7, 79, 127
2, 13843, Note_on_c, 4, 76, 127
2, 13843, Note_on_c, 1, 73, 127
2, 14237, Note_off_c, 1, 73, 127
2, 14237, Note_off_c, 4, 76, 127
2, 14237, Note_off_c, 7, 79, 127
2, 14237, Note_off_c, 10, 69, 127
2, 14237, Note_off_c, 10, 45, 127
2, 14238, Note_on_c, 2, 50, 127
2, 14238, Note_on_c, 10, 69, 127
2, 14238, Note_on_c, 7, 79, 127
2, 14238, Note_on_c, 4, 76, 127
2, 14238, Note_on_c, 1, 73, 127
2, 14335, Note_off_c, 2, 50, 127
2, 14337, Note_on_c, 2, 38, 127
2, 14434, Note_off_c, 2, 38, 127
2, 14436, Note_on_c, 4, 40, 127
2, 14533, Note_off_c, 4, 40, 127
2, 14535, Note_on_c, 6, 42, 127
2, 14632, Note_off_c, 6, 42, 127
2, 14632, Note_off_c, 1, 73, 127
2, 14632, Note_off_c, 4, 76, 127
2, 14632, Note_off_c, 7, 79, 127
2, 14632, Note_off_c, 10, 69, 127
2, 14634, Note_on_c, 7, 43, 127
2, 14634, Note_on_c, 6, 78, 127
2, 14634, Note_on_c, 2, 74, 127
2, 14731, Note_off_c, 7, 43, 127
2, 14733, Note_on_c, 10, 45, 127
2, 14830, Note_off_c, 10, 45, 127
2, 14832, Note_on_c, 12, 47, 127
2, 14929, Note_off_c, 12, 47, 127
2, 14930, Note_on_c, 0, 48, 127
2, 15027, Note_off_c, 0, 48, 127
2, 15029, Note_on_c, 2, 50, 127
2, 15127, Note_off_c, 2, 74, 127
2, 15127, Note_off_c, 6, 78, 127
2, 15128, Note_on_c, 2, 62, 127
2, 15225, Note_off_c, 2, 62, 127
2, 15227, Note_on_c, 4, 64, 127
2, 15324, Note_off_c, 4, 64, 127
2, 15326, Note_on_c, 6, 66, 127
2, 15423, Note_off_c, 6, 66, 127
2, 15423, Note_off_c, 2, 50, 127
2, 15425, Note_on_c, 0, 48, 127
2, 15425, Note_on_c, 7, 67, 127
2, 15522, Note_off_c, 7, 67, 127
2, 15524, Note_on_c, 10, 69, 127
2, 15621, Note_off_c, 10, 69, 127
2, 15623, Note_on_c, 12, 71, 127
2, 15720, Note_off_c, 12, 71, 127
2, 15721, Note_on_c, 0, 72, 127
2, 15818, Note_off_c, 0, 72, 127
2, 15819, Note_off_c, 0, 48, 127
2, 15820, Note_on_c, 12, 47, 127
2, 15820, Note_on_c, 2, 74, 127
2, 15917, Note_off_c, 2, 74, 127
2, 15919, Note_on_c, 12, 71, 127
2, 16016, Note_off_c, 12, 71, 127
2, 16018, Note_on_c, 7, 67, 127
2, 16115, Note_off_c, 7, 67, 127
2, 16117, Note_on_c, 10, 69, 127
2, 16214, Note_off_c, 10, 69, 127
2, 16214, Note_off_c, 12, 47, 127
2, 16216, Note_on_c, 2, 50, 127
2, 16216, Note_on_c, 12, 71, 127
2, 16313, Note_off_c, 12, 71, 127
2, 16315, Note_on_c, 0, 72, 127
2, 16412, Note_off_c, 0, 72, 127
2, 16414, Note_on_c, 2, 74, 127
2, 16511, Note_off_c, 2, 74, 127
2, 16512, Note_on_c, 4, 76, 127
2, 16609, Note_off_c, 4, 76, 127
2, 16610, Note_off_c, 2, 50, 127
2, 16611, Note_on_c, 12, 47, 127
2, 16611, Note_on_c, 5, 77, 127
2, 17005, Note_off_c, 5, 77, 127
2, 17005, Note_off_c, 12, 47, 127
2, 17007, Note_on_c, 7, 43, 127
2, 17007, Note_on_c, 12, 71, 127
2, 17007, Note_on_c, 7, 67, 127
2, 17007, Note_on_c, 5, 77, 127
2, 17007, Note_on_c, 2, 74, 127
2, 17401, Note_off_c, 2, 74, 127
2, 17401, Note_off_c, 5, 77, 127
2, 17401, Note_off_c, 7, 67, 127
2, 17401, Note_off_c, 12, 71, 127
2, 17401, Note_off_c, 7, 43, 127
2, 17402, Note_on_c, 0, 48, 127
2, 17402, Note_on_c, 12, 71, 127
2, 17402, Note_on_c, 7, 67, 127
2, 17402, Note_on_c, 5, 77, 127
2, 17402, Note_on_c, 2, 74, 127
2, 17499, Note_off_c, 0, 48, 127
2, 17501, Note_on_c, 0, 36, 127
2, 17598, Note_off_c, 0, 36, 127
2, 17600, Note_on_c, 2, 38, 127
2, 17697, Note_off_c, 2, 38, 127
2, 17699, Note_on_c, 4, 40, 127
2, 17796, Note_off_c, 4, 40, 127
2, 17796, Note_off_c, 2, 74, 127
2, 17796, Note_off_c, 5, 77, 127
2, 17796, Note_off_c, 7, 67, 127
2, 17796, Note_off_c, 12, 71, 127
2, 17798, Note_on_c, 5, 41, 127
2, 17798, Note_on_c, 0, 72, 127
2, 17798, Note_on_c, 4, 76, 127
2, 17895, Note_off_c, 5, 41, 127
2, 17897, Note_on_c, 7, 43, 127
2, 17994, Note_off_c, 7, 43, 127
2, 17996, Note_on_c, 10, 45, 127
2, 18093, Note_off_c, 10, 45, 127
2, 18095, Note_on_c, 12, 47, 127
2, 18192, Note_off_c, 12, 47, 127
2, 18193, Note_on_c, 0, 48, 127
2, 18291, Note_off_c, 4, 76, 127
2, 18291, Note_off_c, 0, 72, 127
2, 18292, Note_on_c, 0, 60, 127
2, 18389, Note_off_c, 0, 60, 127
2, 18391, Note_on_c, 2, 62, 127
2, 18488, Note_off_c, 2, 62, 127
2, 18490, Note_on_c, 4, 64, 127
2, 18587, Note_off_c, 4, 64, 127
2, 18587, Note_off_c, 0, 48, 127
2, 18589, Note_on_c, 12, 47, 127
2, 18589, Note_on_c, 5, 65, 127
2, 18686, Note_off_c, 5, 65, 127
2, 18688, Note_on_c, 7, 67, 127
2, 18785, Note_off_c, 7, 67, 127
2, 18787, Note_on_c, 10, 69, 127
2, 18884, Note_off_c, 10, 69, 127
2, 18886, Note_on_c, 12, 71, 127
2, 18980, Note_off_c, 12, 47, 127
2, 18983, Note_off_c, 12, 71, 127
2, 18984, Note_on_c, 0, 72, 127
2, 19083, Note_on_c, 10, 45, 127
2, 19180, Note_off_c, 10, 45, 127
2, 19182, Note_on_c, 12, 47, 127
2, 19279, Note_off_c, 12, 47, 127
2, 19281, Note_on_c, 0, 48, 127
2, 19378, Note_off_c, 0, 48, 127
2, 19378, Note_off_c, 0, 72, 127
2, 19380, Note_on_c, 2, 50, 127
2, 19380, Note_on_c, 5, 65, 127
2, 19457, Note_on_c, 4, 64, 127
2, 19462, Note_off_c, 5, 65, 127
2, 19477, Note_off_c, 2, 50, 127
2, 19479, Note_on_c, 4, 52, 127
2, 19534, Note_on_c, 5, 65, 127
2, 19539, Note_off_c, 4, 64, 127
2, 19576, Note_off_c, 4, 52, 127
2, 19578, Note_on_c, 5, 53, 127
2, 19675, Note_off_c, 5, 53, 127
2, 19677, Note_on_c, 7, 55, 127
2, 19774, Note_off_c, 7, 55, 127
2, 19776, Note_on_c, 10, 57, 127
2, 19874, Note_on_c, 7, 67, 127
2, 19881, Note_off_c, 5, 65, 127
2, 19971, Note_off_c, 7, 67, 127
2, 19973, Note_on_c, 5, 65, 127
2, 20070, Note_off_c, 5, 65, 127
2, 20072, Note_on_c, 4, 64, 127
2, 20169, Note_off_c, 4, 64, 127
2, 20170, Note_off_c, 10, 57, 127
2, 20171, Note_on_c, 10, 45, 127
2, 20171, Note_on_c, 5, 65, 127
2, 20268, Note_off_c, 5, 65, 127
2, 20270, Note_on_c, 7, 67, 127
2, 20367, Note_off_c, 7, 67, 127
2, 20369, Note_on_c, 10, 69, 127
2, 20466, Note_off_c, 10, 69, 127
2, 20468, Note_on_c, 12, 71, 127
2, 20562, Note_off_c, 10, 45, 127
2, 20565, Note_off_c, 12, 71, 127
2, 20567, Note_on_c, 0, 72, 127
2, 20665, Note_on_c, 7, 43, 127
2, 20762, Note_off_c, 7, 43, 127
2, 20764, Note_on_c, 10, 45, 127
2, 20861, Note_off_c, 10, 45, 127
2, 20863, Note_on_c, 12, 47, 127
2, 20960, Note_off_c, 12, 47, 127
2, 20961, Note_off_c, 0, 72, 127
2, 20962, Note_on_c, 0, 48, 127
2, 20962, Note_on_c, 4, 64, 127
2, 21039, Note_on_c, 2, 62, 127
2, 21044, Note_off_c, 4, 64, 127
2, 21059, Note_off_c, 0, 48, 127
2, 21061, Note_on_c, 2, 50, 127
2, 21117, Note_on_c, 4, 64, 127
2, 21121, Note_off_c, 2, 62, 127
2, 21158, Note_off_c, 2, 50, 127
2, 21160, Note_on_c, 4, 52, 127
2, 21257, Note_off_c, 4, 52, 127
2, 21259, Note_on_c, 5, 53, 127
2, 21356, Note_off_c, 5, 53, 127
2, 21358, Note_on_c, 7, 55, 127
2, 21456, Note_on_c, 5, 65, 127
2, 21464, Note_off_c, 4, 64, 127
2, 21553, Note_off_c, 5, 65, 127
2, 21555, Note_on_c, 4, 64, 127
2, 21652, Note_off_c, 4, 64, 127
2, 21654, Note_on_c, 2, 62, 127
2, 21751, Note_off_c, 2, 62, 127
2, 21752, Note_off_c, 7, 55, 127
2, 21753, Note_on_c, 7, 43, 127
2, 21753, Note_on_c, 4, 64, 127
2, 21850, Note_off_c, 4, 64, 127
2, 21852, Note_on_c, 7, 67, 127
2, 21949, Note_off_c, 7, 67, 127
2, 21951, Note_on_c, 10, 69, 127
2, 22048, Note_off_c, 10, 69, 127
2, 22050, Note_on_c, 12, 71, 127
2, 22147, Note_off_c, 12, 71, 127
2, 22147, Note_off_c, 7, 43, 127
2, 22149, Note_on_c, 6, 42, 127
2, 22149, Note_on_c, 0, 72, 127
2, 22246, Note_off_c, 0, 72, 127
2, 22248, Note_on_c, 12, 71, 127
2, 22345, Note_off_c, 12, 71, 127
2, 22345, Note_off_c, 6, 42, 127
2, 22346, Note_on_c, 10, 45, 127
2, 22346, Note_on_c, 0, 72, 127
2, 22443, Note_off_c, 0, 72, 127
2, 22445, Note_on_c, 3, 75, 127
2, 22542, Note_off_c, 3, 75, 127
2, 22542, Note_off_c, 10, 45, 127
2, 22544, Note_on_c, 0, 48, 127
2, 22544, Note_on_c, 10, 69, 127
2, 22641, Note_off_c, 10, 69, 127
2, 22643, Note_on_c, 7, 67, 127
2, 22740, Note_off_c, 7, 67, 127
2, 22740, Note_off_c, 0, 48, 127
2, 22742, Note_on_c, 3, 51, 127
2, 22742, Note_on_c, 10, 69, 127
2, 22839, Note_off_c, 10, 69, 127
2, 22841, Note_on_c, 0, 72, 127
2, 22938, Note_off_c, 0, 72, 127
2, 22938, Note_off_c, 3, 51, 127
2, 22940, Note_on_c, 0, 48, 127
2, 22940, Note_on_c, 6, 66, 127
2, 23037, Note_off_c, 6, 66, 127
2, 23039, Note_on_c, 4, 64, 127
2, 23136, Note_off_c, 4, 64, 127
2, 23136, Note_off_c, 0, 48, 127
2, 23137, Note_on_c, 10, 45, 127
2, 23137, Note_on_c, 6, 66, 127
2, 23234, Note_off_c, 6, 66, 127
2, 23236, Note_on_c, 10, 69, 127
2, 23333, Note_off_c, 10, 69, 127
2, 23333, Note_off_c, 10, 45, 127
2, 23335, Note_on_c, 7, 43, 127
2, 23335, Note_on_c, 3, 63, 127
2, 23432, Note_off_c, 3, 63, 127
2, 23434, Note_on_c, 2, 62, 127
2, 23531, Note_off_c, 2, 62, 127
2, 23531, Note_off_c, 7, 43, 127
2, 23533, Note_on_c, 6, 42, 127
2, 23533, Note_on_c, 3, 63, 127
2, 23630, Note_off_c, 3, 63, 127
2, 23632, Note_on_c, 0, 72, 127
2, 23729, Note_off_c, 0, 72, 127
2, 23729, Note_off_c, 6, 42, 127
2, 23731, Note_on_c, 5, 41, 127
2, 23731, Note_on_c, 12, 71, 127
2, 23828, Note_off_c, 12, 71, 127
2, 23830, Note_on_c, 10, 69, 127
2, 23927, Note_off_c, 10, 69, 127
2, 23927, Note_off_c, 5, 41, 127
2, 23928, Note_on_c, 8, 44, 127
2, 23928, Note_on_c, 12, 71, 127
2, 24025, Note_off_c, 12, 71, 127
2, 24027, Note_on_c, 2, 74, 127
2, 24124, Note_off_c, 2, 74, 127
2, 24124, Note_off_c, 8, 44, 127
2, 24126, Note_on_c, 12, 47, 127
2, 24126, Note_on_c, 8, 68, 127
2, 24223, Note_off_c, 8, 68, 127
2, 24225, Note_on_c, 7, 67, 127
2, 24322, Note_off_c, 7, 67, 127
2, 24322, Note_off_c, 12, 47, 127
2, 24324, Note_on_c, 2, 50, 127
2, 24324, Note_on_c, 8, 68, 127
2, 24421, Note_off_c, 8, 68, 127
2, 24423, Note_on_c, 12, 71, 127
2, 24520, Note_off_c, 12, 71, 127
2, 24520, Note_off_c, 2, 50, 127
2, 24522, Note_on_c, 12, 47, 127
2, 24522, Note_on_c, 5, 65, 127
2, 24619, Note_off_c, 5, 65, 127
2, 24621, Note_on_c, 4, 64, 127
2, 24718, Note_off_c, 4, 64, 127
2, 24718, Note_off_c, 12, 47, 127
2, 24720, Note_on_c, 8, 44, 127
2, 24720, Note_on_c, 5, 65, 127
2, 24817, Note_off_c, 5, 65, 127
2, 24818, Note_on_c, 8, 68, 127
2, 24915, Note_off_c, 8, 68, 127
2, 24916, Note_off_c, 8, 44, 127
2, 24917, Note_on_c, 7, 43, 127
2, 24917, Note_on_c, 2, 62, 127
2, 25014, Note_off_c, 2, 62, 127
2, 25016, Note_on_c, 0, 60, 127
2, 25113, Note_off_c, 0, 60, 127
2, 25113, Note_off_c, 7, 43, 127
2, 25115, Note_on_c, 5, 41, 127
2, 25115, Note_on_c, 2, 62, 127
2, 25212, Note_off_c, 2, 62, 127
2, 25214, Note_on_c, 12, 71, 127
2, 25311, Note_off_c, 12, 71, 127
2, 25311, Note_off_c, 5, 41, 127
2, 25313, Note_on_c, 4, 40, 127
2, 25313, Note_on_c, 0, 72, 127
2, 25410, Note_off_c, 0, 72, 127
2, 25410, Note_off_c, 4, 40, 127
2, 25412, Note_on_c, 7, 43, 127
2, 25412, Note_on_c, 12, 71, 127
2, 25509, Note_off_c, 12, 71, 127
2, 25509, Note_off_c, 7, 43, 127
2, 25511, Note_on_c, 10, 45, 127
2, 25511, Note_on_c, 10, 69, 127
2, 25608, Note_off_c, 10, 69, 127
2, 25608, Note_off_c, 10, 45, 127
2, 25609, Note_on_c, 12, 47, 127
2, 25609, Note_on_c, 7, 67, 127
2, 25706, Note_off_c, 7, 67, 127
2, 25706, Note_off_c, 12, 47, 127
2, 25708, Note_on_c, 0, 48, 127
2, 25708, Note_on_c, 5, 65, 127
2, 25805, Note_off_c, 5, 65, 127
2, 25805, Note_off_c, 0, 48, 127
2, 25807, Note_on_c, 2, 50, 127
2, 25807, Note_on_c, 4, 64, 127
2, 25904, Note_off_c, 4, 64, 127
2, 25904, Note_off_c, 2, 50, 127
2, 25906, Note_on_c, 4, 52, 127
2, 25906, Note_on_c, 2, 62, 127
2, 26003, Note_off_c, 2, 62, 127
2, 26003, Note_off_c, 4, 52, 127
2, 26005, Note_on_c, 5, 53, 127
2, 26005, Note_on_c, 0, 60, 127
2, 26093, Note_off_c, 0, 60, 127
2, 26102, Note_off_c, 5, 53, 127
2, 26104, Note_on_c, 7, 55, 127
2, 26302, Note_on_c, 2, 62, 127
2, 26498, Note_off_c, 7, 55, 127
2, 26499, Note_on_c, 7, 43, 127
2, 26499, Note_on_c, 5, 65, 127
2, 26697, Note_on_c, 12, 71, 127
2, 26890, Note_off_c, 5, 65, 127
2, 26890, Note_off_c, 7, 43, 127
2, 26893, Note_off_c, 12, 71, 127
2, 26894, Note_off_c, 2, 62, 127
2, 26895, Note_on_c, 4, 64, 127
2, 26895, Note_on_c, 7, 67, 127
2, 26895, Note_on_c, 0, 72, 127
2, 26994, Note_on_c, 0, 48, 127
2, 27091, Note_off_c, 0, 48, 127
2, 27093, Note_on_c, 2, 50, 127
2, 27190, Note_off_c, 2, 50, 127
2, 27192, Note_on_c, 4, 52, 127
2, 27289, Note_off_c, 4, 52, 127
2, 27290, Note_on_c, 5, 53, 127
2, 27387, Note_off_c, 5, 53, 127
2, 27389, Note_on_c, 7, 55, 127
2, 27486, Note_off_c, 7, 55, 127
2, 27488, Note_on_c, 10, 57, 127
2, 27585, Note_off_c, 10, 57, 127
2, 27587, Note_on_c, 12, 59, 127
2, 27684, Note_off_c, 12, 59, 127
2, 27686, Note_on_c, 0, 60, 127
2, 27783, Note_off_c, 0, 72, 127
2, 27783, Note_off_c, 7, 67, 127
2, 27783, Note_off_c, 4, 64, 127
2, 27785, Note_on_c, 7, 67, 127
2, 27882, Note_off_c, 7, 67, 127
2, 27884, Note_on_c, 10, 69, 127
2, 27981, Note_off_c, 10, 69, 127
2, 27983, Note_on_c, 12, 71, 127
2, 28080, Note_off_c, 12, 71, 127
2, 28080, Note_off_c, 0, 60, 127
2, 28081, Note_on_c, 11, 58, 127
2, 28081, Note_on_c, 0, 72, 127
2, 28178, Note_off_c, 0, 72, 127
2, 28180, Note_on_c, 2, 74, 127
2, 28277, Note_off_c, 2, 74, 127
2, 28279, Note_on_c, 4, 76, 127
2, 28376, Note_off_c, 4, 76, 127
2, 28378, Note_on_c, 5, 77, 127
2, 28475, Note_off_c, 5, 77, 127
2, 28475, Note_off_c, 11, 58, 127
2, 28477, Note_on_c, 10, 57, 127
2, 28477, Note_on_c, 7, 79, 127
2, 28574, Note_off_c, 7, 79, 127
2, 28576, Note_on_c, 5, 77, 127
2, 28673, Note_off_c, 5, 77, 127
2, 28673, Note_off_c, 10, 57, 127
2, 28675, Note_on_c, 4, 52, 127
2, 28675, Note_on_c, 7, 79, 127
2, 28772, Note_off_c, 7, 79, 127
2, 28774, Note_on_c, 11, 82, 127
2, 28871, Note_off_c, 11, 82, 127
2, 28871, Note_off_c, 4, 52, 127
2, 28872, Note_on_c, 1, 49, 127
2, 28872, Note_on_c, 4, 76, 127
2, 28969, Note_off_c, 4, 76, 127
2, 28971, Note_on_c, 2, 74, 127
2, 29068, Note_off_c, 2, 74, 127
2, 29068, Note_off_c, 1, 49, 127
2, 29070, Note_on_c, 10, 45, 127
2, 29070, Note_on_c, 4, 76, 127
2, 29167, Note_off_c, 4, 76, 127
2, 29169, Note_on_c, 7, 79, 127
2, 29266, Note_off_c, 7, 79, 127
2, 29266, Note_off_c, 10, 45, 127
2, 29268, Note_on_c, 7, 55, 127
2, 29268, Note_on_c, 1, 73, 127
2, 29365, Note_off_c, 1, 73, 127
2, 29367, Note_on_c, 12, 71, 127
2, 29464, Note_off_c, 12, 71, 127
2, 29464, Note_off_c, 7, 55, 127
2, 29466, Note_on_c, 4, 52, 127
2, 29466, Note_on_c, 1, 73, 127
2, 29563, Note_off_c, 1, 73, 127
2, 29565, Note_on_c, 4, 76, 127
2, 29662, Note_off_c, 4, 76, 127
2, 29662, Note_off_c, 4, 52, 127
2, 29664, Note_on_c, 1, 49, 127
2, 29664, Note_on_c, 10, 69, 127
2, 29761, Note_off_c, 10, 69, 127
2, 29762, Note_on_c, 8, 68, 127
2, 29859, Note_off_c, 8, 68, 127
2, 29860, Note_off_c, 1, 49, 127
2, 29861, Note_on_c, 10, 45, 127
2, 29861, Note_on_c, 10, 69, 127
2, 29958, Note_off_c, 10, 69, 127
2, 29960, Note_on_c, 4, 76, 127
2, 30057, Note_off_c, 4, 76, 127
2, 30057, Note_off_c, 10, 45, 127
2, 30059, Note_on_c, 2, 50, 127
2, 30059, Note_on_c, 5, 77, 127
2, 30156, Note_off_c, 5, 77, 127
2, 30158, Note_on_c, 4, 76, 127
2, 30255, Note_off_c, 4, 76, 127
2, 30255, Note_off_c, 2, 50, 127
2, 30257, Note_on_c, 4, 52, 127
2, 30257, Note_on_c, 5, 77, 127
2, 30354, Note_off_c, 5, 77, 127
2, 30356, Note_on_c, 10, 81, 127
2, 30453, Note_off_c, 10, 81, 127
2, 30453, Note_off_c, 4, 52, 127
2, 30455, Note_on_c, 5, 53, 127
2, 30455, Note_on_c, 2, 74, 127
2, 30552, Note_off_c, 2, 74, 127
2, 30553, Note_on_c, 0, 72, 127
2, 30650, Note_off_c, 0, 72, 127
2, 30651, Note_off_c, 5, 53, 127
2, 30652, Note_on_c, 4, 52, 127
2, 30652, Note_on_c, 2, 74, 127
2, 30749, Note_off_c, 2, 74, 127
2, 30751, Note_on_c, 5, 77, 127
2, 30848, Note_off_c, 5, 77, 127
2, 30848, Note_off_c, 4, 52, 127
2, 30850, Note_on_c, 2, 50, 127
2, 30850, Note_on_c, 12, 71, 127
2, 30947, Note_off_c, 12, 71, 127
2, 30949, Note_on_c, 10, 69, 127
2, 31046, Note_off_c, 10, 69, 127
2, 31046, Note_off_c, 2, 50, 127
2, 31048, Note_on_c, 0, 48, 127
2, 31048, Note_on_c, 12, 71, 127
2, 31145, Note_off_c, 12, 71, 127
2, 31147, Note_on_c, 2, 74, 127
2, 31244, Note_off_c, 2, 74, 127
2, 31244, Note_off_c, 0, 48, 127
2, 31246, Note_on_c, 12, 47, 127
2, 31246, Note_on_c, 8, 68, 127
2, 31343, Note_off_c, 8, 68, 127
2, 31344, Note_on_c, 6, 66, 127
2, 31441, Note_off_c, 6, 66, 127
2, 31442, Note_off_c, 12, 47, 127
2, 31443, Note_on_c, 10, 45, 127
2, 31443, Note_on_c, 8, 68, 127
2, 31540, Note_off_c, 8, 68, 127
2, 31542, Note_on_c, 12, 71, 127
2, 31639, Note_off_c, 12, 71, 127
2, 31639, Note_off_c, 10, 45, 127
2, 31641, Note_on_c, 8, 44, 127
2, 31641, Note_on_c, 2, 74, 127
2, 31738, Note_off_c, 2, 74, 127
2, 31740, Note_on_c, 0, 72, 127
2, 31837, Note_off_c, 0, 72, 127
2, 31837, Note_off_c, 8, 44, 127
2, 31839, Note_on_c, 10, 45, 127
2, 31839, Note_on_c, 2, 74, 127
2, 31936, Note_off_c, 2, 74, 127
2, 31938, Note_on_c, 5, 77, 127
2, 32035, Note_off_c, 5, 77, 127
2, 32035, Note_off_c, 10, 45, 127
2, 32037, Note_on_c, 8, 44, 127
2, 32037, Note_on_c, 12, 71, 127
2, 32134, Note_off_c, 12, 71, 127
2, 32136, Note_on_c, 10, 69, 127
2, 32233, Note_off_c, 10, 69, 127
2, 32233, Note_off_c, 8, 44, 127
2, 32234, Note_on_c, 6, 42, 127
2, 32234, Note_on_c, 12, 71, 127
2, 32331, Note_off_c, 12, 71, 127
2, 32333, Note_on_c, 2, 74, 127
2, 32430, Note_off_c, 2, 74, 127
2, 32430, Note_off_c, 6, 42, 127
2, 32432, Note_on_c, 4, 40, 127
2, 32432, Note_on_c, 8, 68, 127
2, 32529, Note_off_c, 8, 68, 127
2, 32531, Note_on_c, 6, 66, 127
2, 32628, Note_off_c, 6, 66, 127
2, 32628, Note_off_c, 4, 40, 127
2, 32630, Note_on_c, 6, 42, 127
2, 32630, Note_on_c, 8, 68, 127
2, 32727, Note_off_c, 8, 68, 127
2, 32729, Note_on_c, 12, 71, 127
2, 32826, Note_off_c, 12, 71, 127
2, 32826, Note_off_c, 6, 42, 127
2, 32828, Note_on_c, 8, 44, 127
2, 32828, Note_on_c, 4, 64, 127
2, 32925, Note_off_c, 4, 64, 127
2, 32927, Note_on_c, 3, 63, 127
2, 33024, Note_off_c, 3, 63, 127
2, 33024, Note_off_c, 8, 44, 127
2, 33025, Note_on_c, 4, 40, 127
2, 33025, Note_on_c, 4, 64, 127
2, 33122, Note_off_c, 4, 64, 127
2, 33124, Note_on_c, 12, 71, 127
2, 33221, Note_off_c, 12, 71, 127
2, 33221, Note_off_c, 4, 40, 127
2, 33223, Note_on_c, 10, 45, 127
2, 33223, Note_on_c, 0, 72, 127
2, 33322, Note_on_c, 10, 69, 127
2, 33418, Note_off_c, 0, 72, 127
2, 33419, Note_off_c, 10, 69, 127
2, 33419, Note_off_c, 10, 45, 127
2, 33421, Note_on_c, 12, 47, 127
2, 33421, Note_on_c, 4, 64, 127
2, 33518, Note_off_c, 4, 64, 127
2, 33520, Note_on_c, 3, 63, 127
2, 33617, Note_off_c, 3, 63, 127
2, 33617, Note_off_c, 12, 47, 127
2, 33619, Note_on_c, 0, 48, 127
2, 33619, Note_on_c, 4, 64, 127
2, 33716, Note_off_c, 4, 64, 127
2, 33718, Note_on_c, 10, 69, 127
2, 33815, Note_off_c, 10, 69, 127
2, 33815, Note_off_c, 0, 48, 127
2, 33816, Note_on_c, 12, 47, 127
2, 33816, Note_on_c, 0, 72, 127
2, 33913, Note_off_c, 0, 72, 127
2, 33915, Note_on_c, 2, 74, 127
2, 34012, Note_off_c, 2, 74, 127
2, 34012, Note_off_c, 12, 47, 127
2, 34014, Note_on_c, 10, 45, 127
2, 34014, Note_on_c, 0, 72, 127
2, 34113, Note_on_c, 10, 69, 127
2, 34209, Note_off_c, 0, 72, 127
2, 34210, Note_off_c, 10, 69, 127
2, 34210, Note_off_c, 10, 45, 127
2, 34212, Note_on_c, 12, 47, 127
2, 34212, Note_on_c, 4, 64, 127
2, 34309, Note_off_c, 4, 64, 127
2, 34311, Note_on_c, 3, 63, 127
2, 34408, Note_off_c, 3, 63, 127
2, 34408, Note_off_c, 12, 47, 127
2, 34410, Note_on_c, 0, 48, 127
2, 34410, Note_on_c, 4, 64, 127
2, 34507, Note_off_c, 4, 64, 127
2, 34509, Note_on_c, 10, 69, 127
2, 34606, Note_off_c, 10, 69, 127
2, 34606, Note_off_c, 0, 48, 127
2, 34608, Note_on_c, 12, 47, 127
2, 34608, Note_on_c, 0, 72, 127
2, 34705, Note_off_c, 0, 72, 127
2, 34706, Note_on_c, 2, 74, 127
2, 34803, Note_off_c, 2, 74, 127
2, 34804, Note_off_c, 12, 47, 127
2, 34805, Note_on_c, 10, 45, 127
2, 34805, Note_on_c, 0, 72, 127
2, 34904, Note_on_c, 10, 69, 127
2, 35001, Note_off_c, 10, 69, 127
2, 35001, Note_off_c, 10, 45, 127
2, 35003, Note_on_c, 12, 47, 127
2, 35003, Note_on_c, 6, 66, 127
2, 35052, Note_off_c, 0, 72, 127
2, 35100, Note_off_c, 6, 66, 127
2, 35102, Note_on_c, 4, 64, 127
2, 35199, Note_off_c, 4, 64, 127
2, 35199, Note_off_c, 12, 47, 127
2, 35201, Note_on_c, 0, 48, 127
2, 35201, Note_on_c, 6, 66, 127
2, 35298, Note_off_c, 6, 66, 127
2, 35300, Note_on_c, 10, 69, 127
2, 35397, Note_off_c, 10, 69, 127
2, 35397, Note_off_c, 0, 48, 127
2, 35399, Note_on_c, 12, 47, 127
2, 35399, Note_on_c, 0, 72, 127
2, 35496, Note_off_c, 0, 72, 127
2, 35497, Note_on_c, 2, 74, 127
2, 35594, Note_off_c, 2, 74, 127
2, 35595, Note_off_c, 12, 47, 127
2, 35596, Note_on_c, 10, 45, 127
2, 35596, Note_on_c, 0, 72, 127
2, 35695, Note_on_c, 10, 69, 127
2, 35792, Note_off_c, 10, 69, 127
2, 35792, Note_off_c, 10, 45, 127
2, 35794, Note_on_c, 12, 47, 127
2, 35794, Note_on_c, 6, 66, 127
2, 35884, Note_off_c, 0, 72, 127
2, 35891, Note_off_c, 6, 66, 127
2, 35893, Note_on_c, 4, 64, 127
2, 35990, Note_off_c, 4, 64, 127
2, 35990, Note_off_c, 12, 47, 127
2, 35992, Note_on_c, 0, 48, 127
2, 35992, Note_on_c, 6, 66, 127
2, 36089, Note_off_c, 6, 66, 127
2, 36091, Note_on_c, 10, 69, 127
2, 36188, Note_off_c, 10, 69, 127
2, 36188, Note_off_c, 0, 48, 127
2, 36190, Note_on_c, 12, 47, 127
2, 36190, Note_on_c, 0, 72, 127
2, 36287, Note_off_c, 0, 72, 127
2, 36288, Note_on_c, 4, 76, 127
2, 36385, Note_off_c, 4, 76, 127
2, 36386, Note_off_c, 12, 47, 127
2, 36387, Note_on_c, 10, 45, 127
2, 36387, Note_on_c, 3, 75, 127
2, 36486, Note_on_c, 0, 72, 127
2, 36583, Note_off_c, 0, 72, 127
2, 36583, Note_off_c, 10, 45, 127
2, 36585, Note_on_c, 12, 47, 127
2, 36585, Note_on_c, 10, 69, 127
2, 36682, Note_off_c, 10, 69, 127
2, 36684, Note_on_c, 8, 68, 127
2, 36778, Note_off_c, 3, 75, 127
2, 36781, Note_off_c, 8, 68, 127
2, 36781, Note_off_c, 12, 47, 127
2, 36783, Note_on_c, 0, 48, 127
2, 36783, Note_on_c, 10, 69, 127
2, 36880, Note_off_c, 10, 69, 127
2, 36882, Note_on_c, 0, 72, 127
2, 36979, Note_off_c, 0, 72, 127
2, 36979, Note_off_c, 0, 48, 127
2, 36981, Note_on_c, 12, 47, 127
2, 36981, Note_on_c, 3, 75, 127
2, 37078, Note_off_c, 3, 75, 127
2, 37080, Note_on_c, 4, 76, 127
2, 37177, Note_off_c, 4, 76, 127
2, 37177, Note_off_c, 12, 47, 127
2, 37178, Note_on_c, 10, 45, 127
2, 37178, Note_on_c, 3, 75, 127
2, 37277, Note_on_c, 0, 72, 127
2, 37374, Note_off_c, 0, 72, 127
2, 37374, Note_off_c, 10, 45, 127
2, 37376, Note_on_c, 12, 47, 127
2, 37376, Note_on_c, 10, 69, 127
2, 37473, Note_off_c, 10, 69, 127
2, 37475, Note_on_c, 8, 68, 127
2, 37569, Note_off_c, 3, 75, 127
2, 37572, Note_off_c, 8, 68, 127
2, 37572, Note_off_c, 12, 47, 127
2, 37574, Note_on_c, 0, 48, 127
2, 37574, Note_on_c, 10, 69, 127
2, 37671, Note_off_c, 10, 69, 127
2, 37673, Note_on_c, 0, 72, 127
2, 37770, Note_off_c, 0, 72, 127
2, 37770, Note_off_c, 0, 48, 127
2, 37772, Note_on_c, 10, 45, 127
2, 37772, Note_on_c, 3, 75, 127
2, 37869, Note_off_c, 3, 75, 127
2, 37871, Note_on_c, 6, 78, 127
2, 37968, Note_off_c, 6, 78, 127
2, 37968, Note_off_c, 10, 45, 127
2, 37969, Note_on_c, 3, 39, 127
2, 37969, Note_on_c, 10, 81, 127
2, 38066, Note_off_c, 10, 81, 127
2, 38068, Note_on_c, 7, 79, 127
2, 38165, Note_off_c, 7, 79, 127
2, 38167, Note_on_c, 6, 78, 127
2, 38264, Note_off_c, 6, 78, 127
2, 38266, Note_on_c, 4, 76, 127
2, 38363, Note_off_c, 4, 76, 127
2, 38365, Note_on_c, 3, 75, 127
2, 38462, Note_off_c, 3, 75, 127
2, 38464, Note_on_c, 1, 73, 127
2, 38561, Note_off_c, 1, 73, 127
2, 38561, Note_off_c, 3, 39, 127
2, 38563, Note_on_c, 12, 71, 127
2, 38660, Note_off_c, 12, 71, 127
2, 38662, Note_on_c, 11, 70, 127
2, 38759, Note_off_c, 11, 70, 127
2, 38760, Note_on_c, 12, 47, 127
2, 38760, Note_on_c, 12, 71, 127
2, 38857, Note_off_c, 12, 71, 127
2, 38859, Note_on_c, 1, 73, 127
2, 38956, Note_off_c, 1, 73, 127
2, 38958, Note_on_c, 3, 75, 127
2, 39055, Note_off_c, 3, 75, 127
2, 39057, Note_on_c, 4, 76, 127
2, 39154, Note_off_c, 4, 76, 127
2, 39154, Note_off_c, 12, 47, 127
2, 39156, Note_on_c, 10, 45, 127
2, 39156, Note_on_c, 6, 78, 127
2, 39253, Note_off_c, 6, 78, 127
2, 39255, Note_on_c, 7, 79, 127
2, 39352, Note_off_c, 7, 79, 127
2, 39354, Note_on_c, 10, 81, 127
2, 39451, Note_off_c, 10, 81, 127
2, 39453, Note_on_c, 6, 78, 127
2, 39550, Note_off_c, 6, 78, 127
2, 39550, Note_off_c, 10, 45, 127
2, 39552, Note_on_c, 7, 43, 127
2, 39552, Note_on_c, 12, 83, 127
2, 39649, Note_off_c, 7, 43, 127
2, 39650, Note_on_c, 12, 47, 127
2, 39747, Note_off_c, 12, 47, 127
2, 39749, Note_on_c, 1, 49, 127
2, 39846, Note_off_c, 1, 49, 127
2, 39848, Note_on_c, 3, 51, 127
2, 39945, Note_off_c, 3, 51, 127
2, 39947, Note_on_c, 4, 52, 127
2, 40044, Note_off_c, 4, 52, 127
2, 40046, Note_on_c, 6, 54, 127
2, 40143, Note_off_c, 6, 54, 127
2, 40144, Note_off_c, 12, 83, 127
2, 40145, Note_on_c, 7, 55, 127
2, 40145, Note_on_c, 4, 76, 127
2, 40242, Note_off_c, 7, 55, 127
2, 40244, Note_on_c, 10, 57, 127
2, 40341, Note_off_c, 10, 57, 127
2, 40341, Note_off_c, 4, 76, 127
2, 40343, Note_on_c, 12, 59, 127
2, 40343, Note_on_c, 4, 76, 127
2, 40343, Note_on_c, 7, 79, 127
2, 40415, Note_on_c, 6, 78, 127
2, 40425, Note_off_c, 7, 79, 127
2, 40487, Note_on_c, 7, 79, 127
2, 40497, Note_off_c, 6, 78, 127
2, 40733, Note_off_c, 7, 79, 127
2, 40734, Note_off_c, 4, 76, 127
2, 40737, Note_off_c, 12, 59, 127
2, 40738, Note_on_c, 12, 47, 127
2, 40738, Note_on_c, 3, 75, 127
2, 40738, Note_on_c, 12, 71, 127
2, 40738, Note_on_c, 6, 78, 127
2, 41129, Note_off_c, 12, 47, 127
2, 41132, Note_off_c, 6, 78, 127
2, 41132, Note_off_c, 12, 71, 127
2, 41132, Note_off_c, 3, 75, 127
2, 41134, Note_on_c, 7, 67, 127
2, 41134, Note_on_c, 4, 76, 127
2, 41134, Note_on_c, 12, 71, 127
2, 41232, Note_on_c, 4, 52, 127
2, 41329, Note_off_c, 4, 52, 127
2, 41331, Note_on_c, 6, 54, 127
2, 41428, Note_off_c, 6, 54, 127
2, 41430, Note_on_c, 7, 55, 127
2, 41527, Note_off_c, 7, 55, 127
2, 41529, Note_on_c, 10, 57, 127
2, 41626, Note_off_c, 10, 57, 127
2, 41628, Note_on_c, 12, 59, 127
2, 41725, Note_off_c, 12, 59, 127
2, 41727, Note_on_c, 1, 61, 127
2, 41824, Note_off_c, 1, 61, 127
2, 41826, Note_on_c, 3, 63, 127
2, 41923, Note_off_c, 3, 63, 127
2, 41925, Note_on_c, 4, 64, 127
2, 42319, Note_off_c, 12, 71, 127
2, 42319, Note_off_c, 4, 76, 127
2, 42319, Note_off_c, 7, 67, 127
2, 42320, Note_on_c, 7, 79, 127
2, 42320, Note_on_c, 12, 71, 127
2, 42714, Note_off_c, 12, 71, 127
2, 42714, Note_off_c, 7, 79, 127
2, 42716, Note_on_c, 10, 81, 127
2, 42716, Note_on_c, 0, 72, 127
2, 43110, Note_off_c, 0, 72, 127
2, 43110, Note_off_c, 10, 81, 127
2, 43111, Note_on_c, 7, 79, 127
2, 43111, Note_on_c, 12, 71, 127
2, 43505, Note_off_c, 12, 71, 127
2, 43505, Note_off_c, 7, 79, 127
2, 43507, Note_on_c, 10, 81, 127
2, 43507, Note_on_c, 0, 72, 127
2, 43901, Note_off_c, 0, 72, 127
2, 43901, Note_off_c, 10, 81, 127
2, 43902, Note_on_c, 10, 69, 127
2, 43902, Note_on_c, 6, 78, 127
2, 44296, Note_off_c, 6, 78, 127
2, 44296, Note_off_c, 10, 69, 127
2, 44298, Note_on_c, 7, 79, 127
2, 44298, Note_on_c, 12, 71, 127
2, 44395, Note_off_c, 4, 64, 127
2, 44397, Note_on_c, 4, 40, 127
2, 44494, Note_off_c, 4, 40, 127
2, 44496, Note_on_c, 6, 42, 127
2, 44593, Note_off_c, 6, 42, 127
2, 44594, Note_on_c, 7, 43, 127
2, 44691, Note_off_c, 7, 43, 127
2, 44693, Note_on_c, 10, 45, 127
2, 44790, Note_off_c, 10, 45, 127
2, 44792, Note_on_c, 12, 47, 127
2, 44889, Note_off_c, 12, 47, 127
2, 44891, Note_on_c, 1, 49, 127
2, 44988, Note_off_c, 1, 49, 127
2, 44990, Note_on_c, 3, 51, 127
2, 45087, Note_off_c, 3, 51, 127
2, 45089, Note_on_c, 4, 52, 127
2, 45483, Note_off_c, 12, 71, 127
2, 45483, Note_off_c, 7, 79, 127
2, 45484, Note_on_c, 7, 67, 127
2, 45484, Note_on_c, 4, 76, 127
2, 45484, Note_on_c, 12, 71, 127
2, 45878, Note_off_c, 12, 71, 127
2, 45878, Note_off_c, 4, 76, 127
2, 45878, Note_off_c, 7, 67, 127
2, 45880, Note_on_c, 6, 78, 127
2, 45880, Note_on_c, 0, 72, 127
2, 45880, Note_on_c, 10, 69, 127
2, 46274, Note_off_c, 10, 69, 127
2, 46274, Note_off_c, 0, 72, 127
2, 46274, Note_off_c, 6, 78, 127
2, 46275, Note_on_c, 7, 67, 127
2, 46275, Note_on_c, 4, 76, 127
2, 46275, Note_on_c, 12, 71, 127
2, 46669, Note_off_c, 12, 71, 127
2, 46669, Note_off_c, 4, 76, 127
2, 46669, Note_off_c, 7, 67, 127
2, 46671, Note_on_c, 6, 78, 127
2, 46671, Note_on_c, 10, 69, 127
2, 46671, Note_on_c, 0, 72, 127
2, 47065, Note_off_c, 0, 72, 127
2, 47065, Note_off_c, 10, 69, 127
2, 47065, Note_off_c, 6, 78, 127
2, 47066, Note_on_c, 10, 69, 127
2, 47066, Note_on_c, 6, 66, 127
2, 47066, Note_on_c, 3, 75, 127
2, 47460, Note_off_c, 3, 75, 127
2, 47460, Note_off_c, 6, 66, 127
2, 47460, Note_off_c, 10, 69, 127
2, 47462, Note_on_c, 12, 71, 127
2, 47462, Note_on_c, 7, 67, 127
2, 47462, Note_on_c, 4, 76, 127
2, 47559, Note_off_c, 4, 52, 127
2, 47561, Note_on_c, 4, 52, 127
2, 47658, Note_off_c, 4, 52, 127
2, 47660, Note_on_c, 6, 54, 127
2, 47757, Note_off_c, 6, 54, 127
2, 47759, Note_on_c, 7, 55, 127
2, 47856, Note_off_c, 7, 55, 127
2, 47857, Note_on_c, 10, 57, 127
2, 47954, Note_off_c, 10, 57, 127
2, 47956, Note_on_c, 12, 59, 127
2, 48053, Note_off_c, 12, 59, 127
2, 48055, Note_on_c, 1, 61, 127
2, 48152, Note_off_c, 1, 61, 127
2, 48154, Note_on_c, 3, 63, 127
2, 48251, Note_off_c, 3, 63, 127
2, 48253, Note_on_c, 4, 64, 127
2, 48644, Note_off_c, 4, 64, 127
2, 48647, Note_off_c, 4, 76, 127
2, 48647, Note_off_c, 7, 67, 127
2, 48647, Note_off_c, 12, 71, 127
2, 48648, Note_on_c, 7, 79, 127
2, 48648, Note_on_c, 11, 70, 127
2, 49042, Note_off_c, 11, 70, 127
2, 49042, Note_off_c, 7, 79, 127
2, 49044, Note_on_c, 7, 79, 127
2, 49044, Note_on_c, 11, 70, 127
2, 49143, Note_on_c, 10, 45, 127
2, 49240, Note_off_c, 10, 45, 127
2, 49242, Note_on_c, 12, 47, 127
2, 49339, Note_off_c, 12, 47, 127
2, 49341, Note_on_c, 1, 49, 127
2, 49438, Note_off_c, 1, 49, 127
2, 49438, Note_off_c, 11, 70, 127
2, 49438, Note_off_c, 7, 79, 127
2, 49440, Note_on_c, 2, 50, 127
2, 49440, Note_on_c, 1, 73, 127
2, 49440, Note_on_c, 10, 69, 127
2, 49537, Note_off_c, 2, 50, 127
2, 49538, Note_on_c, 4, 52, 127
2, 49635, Note_off_c, 4, 52, 127
2, 49637, Note_on_c, 5, 53, 127
2, 49734, Note_off_c, 5, 53, 127
2, 49736, Note_on_c, 7, 55, 127
2, 49833, Note_off_c, 7, 55, 127
2, 49835, Note_on_c, 10, 57, 127
2, 50161, Note_off_c, 10, 69, 127
2, 50161, Note_off_c, 1, 73, 127
2, 50231, Note_on_c, 7, 67, 127
2, 50231, Note_on_c, 4, 76, 127
2, 50625, Note_off_c, 4, 76, 127
2, 50625, Note_off_c, 7, 67, 127
2, 50625, Note_off_c, 10, 57, 127
2, 50626, Note_on_c, 4, 76, 127
2, 50626, Note_on_c, 7, 67, 127
2, 50725, Note_on_c, 2, 50, 127
2, 50822, Note_off_c, 2, 50, 127
2, 50824, Note_on_c, 4, 52, 127
2, 50921, Note_off_c, 4, 52, 127
2, 50923, Note_on_c, 5, 53, 127
2, 51020, Note_off_c, 5, 53, 127
2, 51020, Note_off_c, 7, 67, 127
2, 51020, Note_off_c, 4, 76, 127
2, 51022, Note_on_c, 7, 55, 127
2, 51022, Note_on_c, 5, 65, 127
2, 51022, Note_on_c, 2, 74, 127
2, 51119, Note_off_c, 7, 55, 127
2, 51120, Note_on_c, 10, 57, 127
2, 51217, Note_off_c, 10, 57, 127
2, 51219, Note_on_c, 12, 59, 127
2, 51316, Note_off_c, 12, 59, 127
2, 51318, Note_on_c, 1, 61, 127
2, 51415, Note_off_c, 1, 61, 127
2, 51417, Note_on_c, 2, 62, 127
2, 51743, Note_off_c, 2, 74, 127
2, 51743, Note_off_c, 5, 65, 127
2, 51813, Note_on_c, 8, 68, 127
2, 51813, Note_on_c, 5, 77, 127
2, 52207, Note_off_c, 5, 77, 127
2, 52207, Note_off_c, 8, 68, 127
2, 52207, Note_off_c, 2, 62, 127
2, 52208, Note_on_c, 5, 77, 127
2, 52208, Note_on_c, 8, 68, 127
2, 52307, Note_on_c, 7, 43, 127
2, 52404, Note_off_c, 7, 43, 127
2, 52406, Note_on_c, 10, 45, 127
2, 52503, Note_off_c, 10, 45, 127
2, 52505, Note_on_c, 12, 47, 127
2, 52602, Note_off_c, 12, 47, 127
2, 52602, Note_off_c, 8, 68, 127
2, 52602, Note_off_c, 5, 77, 127
2, 52604, Note_on_c, 0, 48, 127
2, 52604, Note_on_c, 12, 71, 127
2, 52604, Note_on_c, 7, 67, 127
2, 52701, Note_off_c, 0, 48, 127
2, 52703, Note_on_c, 2, 50, 127
2, 52800, Note_off_c, 2, 50, 127
2, 52801, Note_on_c, 4, 52, 127
2, 52898, Note_off_c, 4, 52, 127
2, 52900, Note_on_c, 5, 53, 127
2, 52997, Note_off_c, 5, 53, 127
2, 52999, Note_on_c, 7, 55, 127
2, 53325, Note_off_c, 7, 67, 127
2, 53395, Note_on_c, 2, 74, 127
2, 53395, Note_on_c, 5, 65, 127
2, 53397, Note_off_c, 12, 71, 127
2, 53789, Note_off_c, 5, 65, 127
2, 53789, Note_off_c, 2, 74, 127
2, 53789, Note_off_c, 7, 55, 127
2, 53790, Note_on_c, 2, 74, 127
2, 53790, Note_on_c, 5, 65, 127
2, 53889, Note_on_c, 0, 48, 127
2, 53986, Note_off_c, 0, 48, 127
2, 53988, Note_on_c, 2, 50, 127
2, 54085, Note_off_c, 2, 50, 127
2, 54087, Note_on_c, 4, 52, 127
2, 54184, Note_off_c, 4, 52, 127
2, 54184, Note_off_c, 5, 65, 127
2, 54184, Note_off_c, 2, 74, 127
2, 54186, Note_on_c, 5, 53, 127
2, 54186, Note_on_c, 0, 72, 127
2, 54186, Note_on_c, 4, 64, 127
2, 54283, Note_off_c, 5, 53, 127
2, 54285, Note_on_c, 7, 55, 127
2, 54382, Note_off_c, 7, 55, 127
2, 54384, Note_on_c, 10, 57, 127
2, 54481, Note_off_c, 10, 57, 127
2, 54482, Note_on_c, 12, 59, 127
2, 54577, Note_off_c, 4, 64, 127
2, 54579, Note_off_c, 12, 59, 127
2, 54581, Note_on_c, 0, 60, 127
2, 54679, Note_off_c, 0, 72, 127
2, 54680, Note_on_c, 12, 71, 127
2, 54777, Note_off_c, 12, 71, 127
2, 54779, Note_on_c, 0, 72, 127
2, 54876, Note_off_c, 0, 72, 127
2, 54878, Note_on_c, 2, 74, 127
2, 54975, Note_off_c, 2, 74, 127
2, 54975, Note_off_c, 0, 60, 127
2, 54977, Note_on_c, 4, 52, 127
2, 54977, Note_on_c, 0, 72, 127
2, 55074, Note_off_c, 0, 72, 127
2, 55076, Note_on_c, 12, 71, 127
2, 55173, Note_off_c, 12, 71, 127
2, 55175, Note_on_c, 10, 69, 127
2, 55272, Note_off_c, 10, 69, 127
2, 55273, Note_on_c, 8, 68, 127
2, 55370, Note_off_c, 8, 68, 127
2, 55371, Note_off_c, 4, 52, 127
2, 55372, Note_on_c, 5, 53, 127
2, 55372, Note_on_c, 10, 69, 127
2, 55469, Note_off_c, 10, 69, 127
2, 55471, Note_on_c, 0, 72, 127
2, 55568, Note_off_c, 0, 72, 127
2, 55570, Note_on_c, 2, 74, 127
2, 55667, Note_off_c, 2, 74, 127
2, 55669, Note_on_c, 4, 76, 127
2, 55766, Note_off_c, 4, 76, 127
2, 55766, Note_off_c, 5, 53, 127
2, 55768, Note_on_c, 6, 54, 127
2, 55768, Note_on_c, 2, 74, 127
2, 55865, Note_off_c, 2, 74, 127
2, 55867, Note_on_c, 0, 72, 127
2, 55964, Note_off_c, 0, 72, 127
2, 55966, Note_on_c, 12, 71, 127
2, 56063, Note_off_c, 12, 71, 127
2, 56064, Note_on_c, 10, 69, 127
2, 56161, Note_off_c, 10, 69, 127
2, 56162, Note_off_c, 6, 54, 127
2, 56163, Note_on_c, 7, 55, 127
2, 56163, Note_on_c, 12, 71, 127
2, 56260, Note_off_c, 12, 71, 127
2, 56262, Note_on_c, 2, 74, 127
2, 56359, Note_off_c, 2, 74, 127
2, 56361, Note_on_c, 4, 76, 127
2, 56458, Note_off_c, 4, 76, 127
2, 56460, Note_on_c, 5, 77, 127
2, 56557, Note_off_c, 5, 77, 127
2, 56557, Note_off_c, 7, 55, 127
2, 56559, Note_on_c, 8, 56, 127
2, 56559, Note_on_c, 4, 76, 127
2, 56656, Note_off_c, 4, 76, 127
2, 56658, Note_on_c, 2, 74, 127
2, 56755, Note_off_c, 2, 74, 127
2, 56757, Note_on_c, 0, 72, 127
2, 56854, Note_off_c, 0, 72, 127
2, 56856, Note_on_c, 12, 71, 127
2, 56950, Note_off_c, 8, 56, 127
2, 56953, Note_off_c, 12, 71, 127
2, 56954, Note_on_c, 0, 72, 127
2, 57053, Note_on_c, 10, 57, 127
2, 57150, Note_off_c, 10, 57, 127
2, 57152, Note_on_c, 12, 59, 127
2, 57201, Note_off_c, 0, 72, 127
2, 57249, Note_off_c, 12, 59, 127
2, 57251, Note_on_c, 0, 60, 127
2, 57348, Note_off_c, 0, 60, 127
2, 57350, Note_on_c, 2, 62, 127
2, 57350, Note_on_c, 10, 69, 127
2, 57447, Note_off_c, 2, 62, 127
2, 57449, Note_on_c, 4, 64, 127
2, 57546, Note_off_c, 4, 64, 127
2, 57548, Note_on_c, 6, 66, 127
2, 57645, Note_off_c, 6, 66, 127
2, 57647, Note_on_c, 8, 68, 127
2, 57741, Note_off_c, 10, 69, 127
2, 57744, Note_off_c, 8, 68, 127
2, 57745, Note_on_c, 10, 69, 127
2, 57844, Note_on_c, 4, 76, 127
2, 57941, Note_off_c, 4, 76, 127
2, 57943, Note_on_c, 5, 77, 127
2, 58040, Note_off_c, 5, 77, 127
2, 58042, Note_on_c, 7, 79, 127
2, 58139, Note_off_c, 7, 79, 127
2, 58139, Note_off_c, 10, 69, 127
2, 58141, Note_on_c, 10, 57, 127
2, 58141, Note_on_c, 5, 77, 127
2, 58238, Note_off_c, 5, 77, 127
2, 58240, Note_on_c, 4, 76, 127
2, 58337, Note_off_c, 4, 76, 127
2, 58339, Note_on_c, 2, 74, 127
2, 58436, Note_off_c, 2, 74, 127
2, 58438, Note_on_c, 1, 73, 127
2, 58535, Note_off_c, 1, 73, 127
2, 58535, Note_off_c, 10, 57, 127
2, 58536, Note_on_c, 11, 58, 127
2, 58536, Note_on_c, 2, 74, 127
2, 58633, Note_off_c, 2, 74, 127
2, 58635, Note_on_c, 5, 77, 127
2, 58732, Note_off_c, 5, 77, 127
2, 58734, Note_on_c, 7, 79, 127
2, 58831, Note_off_c, 7, 79, 127
2, 58833, Note_on_c, 10, 81, 127
2, 58930, Note_off_c, 10, 81, 127
2, 58930, Note_off_c, 11, 58, 127
2, 58932, Note_on_c, 12, 59, 127
2, 58932, Note_on_c, 7, 79, 127
2, 59029, Note_off_c, 7, 79, 127
2, 59031, Note_on_c, 5, 77, 127
2, 59128, Note_off_c, 5, 77, 127
2, 59130, Note_on_c, 4, 76, 127
2, 59227, Note_off_c, 4, 76, 127
2, 59229, Note_on_c, 2, 74, 127
2, 59326, Note_off_c, 2, 74, 127
2, 59326, Note_off_c, 12, 59, 127
2, 59328, Note_on_c, 0, 60, 127
2, 59328, Note_on_c, 4, 76, 127
2, 59425, Note_off_c, 4, 76, 127
2, 59426, Note_on_c, 7, 79, 127
2, 59523, Note_off_c, 7, 79, 127
2, 59525, Note_on_c, 10, 81, 127
2, 59622, Note_off_c, 10, 81, 127
2, 59624, Note_on_c, 11, 82, 127
2, 59721, Note_off_c, 11, 82, 127
2, 59722, Note_off_c, 0, 60, 127
2, 59723, Note_on_c, 1, 61, 127
2, 59723, Note_on_c, 10, 81, 127
2, 59820, Note_off_c, 10, 81, 127
2, 59822, Note_on_c, 7, 79, 127
2, 59919, Note_off_c, 7, 79, 127
2, 59921, Note_on_c, 5, 77, 127
2, 60018, Note_off_c, 5, 77, 127
2, 60020, Note_on_c, 4, 76, 127
2, 60114, Note_off_c, 1, 61, 127
2, 60117, Note_off_c, 4, 76, 127
2, 60119, Note_on_c, 5, 77, 127
2, 60217, Note_on_c, 2, 62, 127
2, 60314, Note_off_c, 2, 62, 127
2, 60316, Note_on_c, 4, 64, 127
2, 60366, Note_off_c, 5, 77, 127
2, 60413, Note_off_c, 4, 64, 127
2, 60415, Note_on_c, 5, 65, 127
2, 60512, Note_off_c, 5, 65, 127
2, 60514, Note_on_c, 7, 67, 127
2, 60514, Note_on_c, 2, 74, 127
2, 60611, Note_off_c, 7, 67, 127
2, 60613, Note_on_c, 10, 69, 127
2, 60710, Note_off_c, 10, 69, 127
2, 60712, Note_on_c, 12, 71, 127
2, 60809, Note_off_c, 12, 71, 127
2, 60811, Note_on_c, 1, 73, 127
2, 60905, Note_off_c, 2, 74, 127
2, 60908, Note_off_c, 1, 73, 127
2, 60910, Note_on_c, 2, 74, 127
2, 61008, Note_on_c, 4, 76, 127
2, 61105, Note_off_c, 4, 76, 127
2, 61107, Note_on_c, 5, 77, 127
2, 61204, Note_off_c, 5, 77, 127
2, 61206, Note_on_c, 7, 79, 127
2, 61303, Note_off_c, 7, 79, 127
2, 61304, Note_off_c, 2, 74, 127
2, 61305, Note_on_c, 2, 62, 127
2, 61305, Note_on_c, 5, 77, 127
2, 61402, Note_off_c, 5, 77, 127
2, 61404, Note_on_c, 4, 76, 127
2, 61501, Note_off_c, 4, 76, 127
2, 61503, Note_on_c, 2, 74, 127
2, 61600, Note_off_c, 2, 74, 127
2, 61602, Note_on_c, 0, 72, 127
2, 61699, Note_off_c, 0, 72, 127
2, 61701, Note_on_c, 11, 70, 127
2, 61798, Note_off_c, 2, 62, 127
2, 61800, Note_on_c, 2, 62, 127
2, 61897, Note_off_c, 2, 62, 127
2, 61898, Note_on_c, 1, 61, 127
2, 61948, Note_off_c, 11, 70, 127
2, 61995, Note_off_c, 1, 61, 127
2, 61997, Note_on_c, 2, 62, 127
2, 62094, Note_off_c, 2, 62, 127
2, 62096, Note_on_c, 4, 64, 127
2, 62096, Note_on_c, 5, 77, 127
2, 62193, Note_off_c, 4, 64, 127
2, 62195, Note_on_c, 2, 62, 127
2, 62292, Note_off_c, 2, 62, 127
2, 62294, Note_on_c, 1, 61, 127
2, 62391, Note_off_c, 1, 61, 127
2, 62393, Note_on_c, 2, 62, 127
2, 62490, Note_off_c, 2, 62, 127
2, 62492, Note_on_c, 2, 50, 127
2, 62589, Note_off_c, 5, 77, 127
2, 62591, Note_on_c, 2, 74, 127
2, 62688, Note_off_c, 2, 74, 127
2, 62689, Note_on_c, 4, 76, 127
2, 62786, Note_off_c, 4, 76, 127
2, 62788, Note_on_c, 5, 77, 127
2, 62885, Note_off_c, 5, 77, 127
2, 62886, Note_off_c, 2, 50, 127
2, 62887, Note_on_c, 8, 56, 127
2, 62887, Note_on_c, 4, 76, 127
2, 62984, Note_off_c, 4, 76, 127
2, 62986, Note_on_c, 2, 74, 127
2, 63083, Note_off_c, 2, 74, 127
2, 63085, Note_on_c, 0, 72, 127
2, 63182, Note_off_c, 0, 72, 127
2, 63184, Note_on_c, 12, 71, 127
2, 63278, Note_off_c, 8, 56, 127
2, 63281, Note_off_c, 12, 71, 127
2, 63283, Note_on_c, 10, 69, 127
2, 63382, Note_on_c, 0, 60, 127
2, 63479, Note_off_c, 0, 60, 127
2, 63480, Note_on_c, 12, 59, 127
2, 63530, Note_off_c, 10, 69, 127
2, 63577, Note_off_c, 12, 59, 127
2, 63579, Note_on_c, 0, 60, 127
2, 63676, Note_off_c, 0, 60, 127
2, 63678, Note_on_c, 2, 62, 127
2, 63678, Note_on_c, 4, 76, 127
2, 63775, Note_off_c, 2, 62, 127
2, 63777, Note_on_c, 0, 60, 127
2, 63874, Note_off_c, 0, 60, 127
2, 63876, Note_on_c, 12, 59, 127
2, 63973, Note_off_c, 12, 59, 127
2, 63975, Note_on_c, 0, 60, 127
2, 64072, Note_off_c, 0, 60, 127
2, 64074, Note_on_c, 0, 48, 127
2, 64171, Note_off_c, 4, 76, 127
2, 64173, Note_on_c, 0, 72, 127
2, 64270, Note_off_c, 0, 72, 127
2, 64272, Note_on_c, 2, 74, 127
2, 64369, Note_off_c, 2, 74, 127
2, 64370, Note_on_c, 4, 76, 127
2, 64467, Note_off_c, 4, 76, 127
2, 64468, Note_off_c, 0, 48, 127
2, 64469, Note_on_c, 10, 57, 127
2, 64469, Note_on_c, 2, 74, 127
2, 64566, Note_off_c, 2, 74, 127
2, 64568, Note_on_c, 0, 72, 127
2, 64665, Note_off_c, 0, 72, 127
2, 64667, Note_on_c, 12, 71, 127
2, 64764, Note_off_c, 12, 71, 127
2, 64766, Note_on_c, 10, 69, 127
2, 64860, Note_off_c, 10, 57, 127
2, 64863, Note_off_c, 10, 69, 127
2, 64865, Note_on_c, 8, 68, 127
2, 64964, Note_on_c, 12, 59, 127
2, 65061, Note_off_c, 12, 59, 127
2, 65063, Note_on_c, 10, 57, 127
2, 65112, Note_off_c, 8, 68, 127
2, 65160, Note_off_c, 10, 57, 127
2, 65161, Note_on_c, 12, 59, 127
2, 65258, Note_off_c, 12, 59, 127
2, 65260, Note_on_c, 0, 60, 127
2, 65260, Note_on_c, 2, 74, 127
2, 65357, Note_off_c, 0, 60, 127
2, 65359, Note_on_c, 12, 59, 127
2, 65456, Note_off_c, 12, 59, 127
2, 65458, Note_on_c, 10, 57, 127
2, 65555, Note_off_c, 10, 57, 127
2, 65557, Note_on_c, 12, 59, 127
2, 65654, Note_off_c, 12, 59, 127
2, 65656, Note_on_c, 12, 47, 127
2, 65753, Note_off_c, 2, 74, 127
2, 65755, Note_on_c, 10, 69, 127
2, 65852, Note_off_c, 10, 69, 127
2, 65854, Note_on_c, 12, 71, 127
2, 65951, Note_off_c, 12, 71, 127
2, 65952, Note_on_c, 0, 72, 127
2, 66049, Note_off_c, 0, 72, 127
2, 66050, Note_off_c, 12, 47, 127
2, 66051, Note_on_c, 10, 57, 127
2, 66051, Note_on_c, 12, 71, 127
2, 66148, Note_off_c, 12, 71, 127
2, 66150, Note_on_c, 10, 69, 127
2, 66247, Note_off_c, 10, 69, 127
2, 66249, Note_on_c, 8, 68, 127
2, 66346, Note_off_c, 8, 68, 127
2, 66348, Note_on_c, 6, 66, 127
2, 66442, Note_off_c, 10, 57, 127
2, 66445, Note_off_c, 6, 66, 127
2, 66447, Note_on_c, 4, 64, 127
2, 66546, Note_on_c, 8, 56, 127
2, 66643, Note_off_c, 8, 56, 127
2, 66645, Note_on_c, 10, 57, 127
2, 66694, Note_off_c, 4, 64, 127
2, 66742, Note_off_c, 10, 57, 127
2, 66744, Note_on_c, 12, 59, 127
2, 66841, Note_off_c, 12, 59, 127
2, 66842, Note_on_c, 10, 57, 127
2, 66842, Note_on_c, 2, 74, 127
2, 66939, Note_off_c, 10, 57, 127
2, 66941, Note_on_c, 8, 56, 127
2, 67038, Note_off_c, 8, 56, 127
2, 67040, Note_on_c, 6, 54, 127
2, 67137, Note_off_c, 6, 54, 127
2, 67139, Note_on_c, 4, 52, 127
2, 67236, Note_off_c, 4, 52, 127
2, 67238, Note_on_c, 4, 64, 127
2, 67335, Note_off_c, 2, 74, 127
2, 67337, Note_on_c, 0, 72, 127
2, 67434, Note_off_c, 0, 72, 127
2, 67436, Note_on_c, 12, 71, 127
2, 67533, Note_off_c, 12, 71, 127
2, 67535, Note_on_c, 0, 72, 127
2, 67632, Note_off_c, 0, 72, 127
2, 67632, Note_off_c, 4, 64, 127
2, 67633, Note_on_c, 2, 62, 127
2, 67633, Note_on_c, 2, 74, 127
2, 67730, Note_off_c, 2, 74, 127
2, 67732, Note_on_c, 4, 76, 127
2, 67829, Note_off_c, 4, 76, 127
2, 67831, Note_on_c, 6, 78, 127
2, 67928, Note_off_c, 6, 78, 127
2, 67930, Note_on_c, 8, 80, 127
2, 68027, Note_off_c, 8, 80, 127
2, 68027, Note_off_c, 2, 62, 127
2, 68029, Note_on_c, 0, 60, 127
2, 68029, Note_on_c, 10, 81, 127
2, 68225, Note_off_c, 10, 81, 127
2, 68227, Note_on_c, 7, 79, 127
2, 68324, Note_off_c, 7, 79, 127
2, 68326, Note_on_c, 5, 77, 127
2, 68423, Note_off_c, 5, 77, 127
2, 68423, Note_off_c, 0, 60, 127
2, 68424, Note_on_c, 0, 48, 127
2, 68424, Note_on_c, 4, 76, 127
2, 68620, Note_off_c, 4, 76, 127
2, 68620, Note_off_c, 0, 48, 127
2, 68622, Note_on_c, 2, 50, 127
2, 68622, Note_on_c, 2, 74, 127
2, 68818, Note_off_c, 2, 74, 127
2, 68818, Note_off_c, 2, 50, 127
2, 68820, Note_on_c, 4, 52, 127
2, 68820, Note_on_c, 10, 69, 127
2, 68820, Note_on_c, 0, 72, 127
2, 69214, Note_off_c, 0, 72, 127
2, 69214, Note_off_c, 10, 69, 127
2, 69216, Note_on_c, 4, 40, 127
2, 69216, Note_on_c, 8, 68, 127
2, 69216, Note_on_c, 0, 72, 127
2, 69280, Note_off_c, 0, 72, 127
2, 69281, Note_on_c, 12, 71, 127
2, 69345, Note_off_c, 12, 71, 127
2, 69347, Note_on_c, 0, 72, 127
2, 69411, Note_off_c, 0, 72, 127
2, 69413, Note_on_c, 12, 71, 127
2, 69607, Note_off_c, 12, 71, 127
2, 69607, Note_off_c, 4, 40, 127
2, 69610, Note_off_c, 8, 68, 127
2, 69610, Note_off_c, 4, 52, 127
2, 69611, Note_on_c, 10, 69, 127
2, 69710, Note_on_c, 5, 41, 127
2, 69807, Note_off_c, 5, 41, 127
2, 69809, Note_on_c, 7, 43, 127
2, 69906, Note_off_c, 7, 43, 127
2, 69908, Note_on_c, 10, 45, 127
2, 69961, Note_off_c, 10, 69, 127
2, 70005, Note_off_c, 10, 45, 127
2, 70007, Note_on_c, 12, 47, 127
2, 70007, Note_on_c, 4, 64, 127
2, 70079, Note_on_c, 2, 62, 127
2, 70084, Note_off_c, 4, 64, 127
2, 70104, Note_off_c, 12, 47, 127
2, 70105, Note_on_c, 1, 49, 127
2, 70151, Note_on_c, 4, 64, 127
2, 70156, Note_off_c, 2, 62, 127
2, 70202, Note_off_c, 1, 49, 127
2, 70204, Note_on_c, 2, 50, 127
2, 70223, Note_on_c, 2, 62, 127
2, 70228, Note_off_c, 4, 64, 127
2, 70295, Note_on_c, 4, 64, 127
2, 70300, Note_off_c, 2, 62, 127
2, 70301, Note_off_c, 2, 50, 127
2, 70303, Note_on_c, 4, 52, 127
2, 70367, Note_on_c, 2, 62, 127
2, 70372, Note_off_c, 4, 64, 127
2, 70400, Note_off_c, 4, 52, 127
2, 70402, Note_on_c, 5, 53, 127
2, 70497, Note_off_c, 2, 62, 127
2, 70501, Note_on_c, 4, 64, 127
2, 70598, Note_off_c, 4, 64, 127
2, 70600, Note_on_c, 2, 62, 127
2, 70697, Note_off_c, 2, 62, 127
2, 70699, Note_on_c, 0, 60, 127
2, 70796, Note_off_c, 0, 60, 127
2, 70796, Note_off_c, 5, 53, 127
2, 70798, Note_on_c, 5, 41, 127
2, 70798, Note_on_c, 2, 62, 127
2, 70895, Note_off_c, 2, 62, 127
2, 70896, Note_on_c, 4, 64, 127
2, 70993, Note_off_c, 4, 64, 127
2, 70995, Note_on_c, 6, 66, 127
2, 71092, Note_off_c, 6, 66, 127
2, 71094, Note_on_c, 8, 68, 127
2, 71191, Note_off_c, 8, 68, 127
2, 71193, Note_on_c, 10, 69, 127
2, 71291, Note_off_c, 5, 41, 127
2, 71292, Note_on_c, 4, 40, 127
2, 71389, Note_off_c, 4, 40, 127
2, 71391, Note_on_c, 6, 42, 127
2, 71488, Note_off_c, 6, 42, 127
2, 71490, Note_on_c, 8, 44, 127
2, 71543, Note_off_c, 10, 69, 127
2, 71587, Note_off_c, 8, 44, 127
2, 71589, Note_on_c, 10, 45, 127
2, 71589, Note_on_c, 2, 62, 127
2, 71655, Note_on_c, 0, 60, 127
2, 71661, Note_off_c, 2, 62, 127
2, 71686, Note_off_c, 10, 45, 127
2, 71688, Note_on_c, 12, 47, 127
2, 71720, Note_on_c, 2, 62, 127
2, 71727, Note_off_c, 0, 60, 127
2, 71785, Note_off_c, 12, 47, 127
2, 71786, Note_on_c, 0, 48, 127
2, 71786, Note_on_c, 0, 60, 127
2, 71792, Note_off_c, 2, 62, 127
2, 71852, Note_on_c, 2, 62, 127
2, 71858, Note_off_c, 0, 60, 127
2, 71883, Note_off_c, 0, 48, 127
2, 71885, Note_on_c, 2, 50, 127
2, 71918, Note_on_c, 0, 60, 127
2, 71924, Note_off_c, 2, 62, 127
2, 71982, Note_off_c, 2, 50, 127
2, 71984, Note_on_c, 4, 52, 127
2, 72076, Note_off_c, 0, 60, 127
2, 72083, Note_on_c, 2, 62, 127
2, 72180, Note_off_c, 2, 62, 127
2, 72182, Note_on_c, 0, 60, 127
2, 72279, Note_off_c, 0, 60, 127
2, 72281, Note_on_c, 12, 59, 127
2, 72378, Note_off_c, 12, 59, 127
2, 72378, Note_off_c, 4, 52, 127
2, 72380, Note_on_c, 4, 40, 127
2, 72380, Note_on_c, 0, 60, 127
2, 72477, Note_off_c, 0, 60, 127
2, 72479, Note_on_c, 4, 64, 127
2, 72576, Note_off_c, 4, 64, 127
2, 72577, Note_on_c, 6, 66, 127
2, 72674, Note_off_c, 6, 66, 127
2, 72676, Note_on_c, 8, 68, 127
2, 72773, Note_off_c, 8, 68, 127
2, 72774, Note_off_c, 4, 40, 127
2, 72775, Note_on_c, 3, 39, 127
2, 72775, Note_on_c, 10, 69, 127
2, 72872, Note_off_c, 10, 69, 127
2, 72874, Note_on_c, 8, 68, 127
2, 72971, Note_off_c, 8, 68, 127
2, 72971, Note_off_c, 3, 39, 127
2, 72973, Note_on_c, 6, 42, 127
2, 72973, Note_on_c, 10, 69, 127
2, 73070, Note_off_c, 10, 69, 127
2, 73072, Note_on_c, 0, 72, 127
2, 73169, Note_off_c, 0, 72, 127
2, 73169, Note_off_c, 6, 42, 127
2, 73171, Note_on_c, 10, 45, 127
2, 73171, Note_on_c, 6, 66, 127
2, 73268, Note_off_c, 6, 66, 127
2, 73270, Note_on_c, 4, 64, 127
2, 73367, Note_off_c, 4, 64, 127
2, 73367, Note_off_c, 10, 45, 127
2, 73368, Note_on_c, 0, 48, 127
2, 73368, Note_on_c, 6, 66, 127
2, 73465, Note_off_c, 6, 66, 127
2, 73467, Note_on_c, 10, 69, 127
2, 73564, Note_off_c, 10, 69, 127
2, 73564, Note_off_c, 0, 48, 127
2, 73566, Note_on_c, 10, 45, 127
2, 73566, Note_on_c, 3, 63, 127
2, 73663, Note_off_c, 3, 63, 127
2, 73665, Note_on_c, 1, 61, 127
2, 73762, Note_off_c, 1, 61, 127
2, 73762, Note_off_c, 10, 45, 127
2, 73764, Note_on_c, 6, 42, 127
2, 73764, Note_on_c, 3, 63, 127
2, 73861, Note_off_c, 3, 63, 127
2, 73863, Note_on_c, 6, 66, 127
2, 73960, Note_off_c, 6, 66, 127
2, 73960, Note_off_c, 6, 42, 127
2, 73962, Note_on_c, 4, 40, 127
2, 73962, Note_on_c, 0, 60, 127
2, 74059, Note_off_c, 0, 60, 127
2, 74061, Note_on_c, 12, 59, 127
2, 74158, Note_off_c, 12, 59, 127
2, 74158, Note_off_c, 4, 40, 127
2, 74160, Note_on_c, 3, 39, 127
2, 74160, Note_on_c, 0, 60, 127
2, 74257, Note_off_c, 0, 60, 127
2, 74258, Note_on_c, 10, 69, 127
2, 74355, Note_off_c, 10, 69, 127
2, 74356, Note_off_c, 3, 39, 127
2, 74357, Note_on_c, 2, 38, 127
2, 74357, Note_on_c, 8, 68, 127
2, 74454, Note_off_c, 8, 68, 127
2, 74456, Note_on_c, 6, 66, 127
2, 74553, Note_off_c, 6, 66, 127
2, 74553, Note_off_c, 2, 38, 127
2, 74555, Note_on_c, 5, 41, 127
2, 74555, Note_on_c, 8, 68, 127
2, 74652, Note_off_c, 8, 68, 127
2, 74654, Note_on_c, 12, 71, 127
2, 74751, Note_off_c, 12, 71, 127
2, 74751, Note_off_c, 5, 41, 127
2, 74753, Note_on_c, 8, 44, 127
2, 74753, Note_on_c, 5, 65, 127
2, 74850, Note_off_c, 5, 65, 127
2, 74852, Note_on_c, 4, 64, 127
2, 74949, Note_off_c, 4, 64, 127
2, 74949, Note_off_c, 8, 44, 127
2, 74951, Note_on_c, 12, 47, 127
2, 74951, Note_on_c, 5, 65, 127
2, 75048, Note_off_c, 5, 65, 127
2, 75049, Note_on_c, 8, 68, 127
2, 75146, Note_off_c, 8, 68, 127
2, 75147, Note_off_c, 12, 47, 127
2, 75148, Note_on_c, 8, 44, 127
2, 75148, Note_on_c, 2, 62, 127
2, 75245, Note_off_c, 2, 62, 127
2, 75247, Note_on_c, 0, 60, 127
2, 75344, Note_off_c, 0, 60, 127
2, 75344, Note_off_c, 8, 44, 127
2, 75346, Note_on_c, 5, 41, 127
2, 75346, Note_on_c, 2, 62, 127
2, 75443, Note_off_c, 2, 62, 127
2, 75445, Note_on_c, 5, 65, 127
2, 75542, Note_off_c, 5, 65, 127
2, 75542, Note_off_c, 5, 41, 127
2, 75544, Note_on_c, 4, 40, 127
2, 75544, Note_on_c, 12, 59, 127
2, 75641, Note_off_c, 12, 59, 127
2, 75643, Note_on_c, 10, 57, 127
2, 75740, Note_off_c, 10, 57, 127
2, 75740, Note_off_c, 4, 40, 127
2, 75742, Note_on_c, 2, 38, 127
2, 75742, Note_on_c, 12, 59, 127
2, 75839, Note_off_c, 12, 59, 127
2, 75840, Note_on_c, 8, 68, 127
2, 75937, Note_off_c, 8, 68, 127
2, 75938, Note_off_c, 2, 38, 127
2, 75939, Note_on_c, 0, 36, 127
2, 75939, Note_on_c, 10, 69, 127
2, 76036, Note_off_c, 10, 69, 127
2, 76036, Note_off_c, 0, 36, 127
2, 76038, Note_on_c, 4, 40, 127
2, 76038, Note_on_c, 8, 68, 127
2, 76135, Note_off_c, 8, 68, 127
2, 76135, Note_off_c, 4, 40, 127
2, 76137, Note_on_c, 6, 42, 127
2, 76137, Note_on_c, 6, 66, 127
2, 76234, Note_off_c, 6, 66, 127
2, 76234, Note_off_c, 6, 42, 127
2, 76236, Note_on_c, 8, 44, 127
2, 76236, Note_on_c, 4, 64, 127
2, 76333, Note_off_c, 4, 64, 127
2, 76333, Note_off_c, 8, 44, 127
2, 76335, Note_on_c, 10, 45, 127
2, 76335, Note_on_c, 2, 62, 127
2, 76432, Note_off_c, 2, 62, 127
2, 76432, Note_off_c, 10, 45, 127
2, 76434, Note_on_c, 12, 47, 127
2, 76434, Note_on_c, 0, 60, 127
2, 76531, Note_off_c, 0, 60, 127
2, 76531, Note_off_c, 12, 47, 127
2, 76533, Note_on_c, 0, 48, 127
2, 76533, Note_on_c, 12, 59, 127
2, 76624, Note_off_c, 12, 59, 127
2, 76624, Note_off_c, 0, 48, 127
2, 76632, Note_on_c, 2, 50, 127
2, 76632, Note_on_c, 10, 57, 127
2, 76716, Note_off_c, 10, 57, 127
2, 76716, Note_off_c, 2, 50, 127
2, 76730, Note_on_c, 4, 52, 127
2, 76928, Note_on_c, 12, 59, 127
2, 77124, Note_off_c, 4, 52, 127
2, 77126, Note_on_c, 4, 40, 127
2, 77126, Note_on_c, 2, 62, 127
2, 77324, Note_on_c, 8, 68, 127
2, 77517, Note_off_c, 2, 62, 127
2, 77517, Note_off_c, 4, 40, 127
2, 77520, Note_off_c, 8, 68, 127
2, 77520, Note_off_c, 12, 59, 127
2, 77521, Note_on_c, 10, 69, 127
2, 77521, Note_on_c, 4, 64, 127
2, 77521, Note_on_c, 0, 60, 127
2, 77620, Note_on_c, 10, 45, 127
2, 77717, Note_off_c, 10, 45, 127
2, 77719, Note_on_c, 12, 47, 127
2, 77816, Note_off_c, 12, 47, 127
2, 77818, Note_on_c, 0, 48, 127
2, 77915, Note_off_c, 0, 48, 127
2, 77917, Note_on_c, 2, 50, 127
2, 78014, Note_off_c, 2, 50, 127
2, 78016, Note_on_c, 4, 52, 127
2, 78113, Note_off_c, 4, 52, 127
2, 78115, Note_on_c, 6, 54, 127
2, 78212, Note_off_c, 6, 54, 127
2, 78214, Note_on_c, 8, 56, 127
2, 78311, Note_off_c, 8, 56, 127
2, 78312, Note_on_c, 10, 57, 127
2, 78706, Note_off_c, 0, 60, 127
2, 78706, Note_off_c, 4, 64, 127
2, 78706, Note_off_c, 10, 69, 127
2, 78708, Note_on_c, 0, 72, 127
2, 78708, Note_on_c, 4, 64, 127
2, 79102, Note_off_c, 4, 64, 127
2, 79102, Note_off_c, 0, 72, 127
2, 79104, Note_on_c, 5, 65, 127
2, 79104, Note_on_c, 2, 74, 127
2, 79498, Note_off_c, 2, 74, 127
2, 79498, Note_off_c, 5, 65, 127
2, 79499, Note_on_c, 0, 72, 127
2, 79499, Note_on_c, 4, 64, 127
2, 79893, Note_off_c, 4, 64, 127
2, 79893, Note_off_c, 0, 72, 127
2, 79895, Note_on_c, 5, 65, 127
2, 79895, Note_on_c, 2, 74, 127
2, 80289, Note_off_c, 2, 74, 127
2, 80289, Note_off_c, 5, 65, 127
2, 80290, Note_on_c, 2, 62, 127
2, 80290, Note_on_c, 12, 71, 127
2, 80684, Note_off_c, 12, 71, 127
2, 80684, Note_off_c, 2, 62, 127
2, 80686, Note_on_c, 0, 72, 127
2, 80686, Note_on_c, 4, 64, 127
2, 80782, Note_off_c, 10, 57, 127
2, 80784, Note_on_c, 10, 45, 127
2, 80881, Note_off_c, 10, 45, 127
2, 80883, Note_on_c, 12, 47, 127
2, 80980, Note_off_c, 12, 47, 127
2, 80982, Note_on_c, 0, 48, 127
2, 81079, Note_off_c, 0, 48, 127
2, 81081, Note_on_c, 2, 50, 127
2, 81178, Note_off_c, 2, 50, 127
2, 81180, Note_on_c, 4, 52, 127
2, 81277, Note_off_c, 4, 52, 127
2, 81279, Note_on_c, 6, 54, 127
2, 81376, Note_off_c, 6, 54, 127
2, 81378, Note_on_c, 8, 56, 127
2, 81475, Note_off_c, 8, 56, 127
2, 81477, Note_on_c, 10, 57, 127
2, 81871, Note_off_c, 4, 64, 127
2, 81871, Note_off_c, 0, 72, 127
2, 81872, Note_on_c, 4, 76, 127
2, 81872, Note_on_c, 0, 72, 127
2, 81872, Note_on_c, 10, 69, 127
2, 82266, Note_off_c, 10, 69, 127
2, 82266, Note_off_c, 0, 72, 127
2, 82266, Note_off_c, 4, 76, 127
2, 82268, Note_on_c, 5, 77, 127
2, 82268, Note_on_c, 2, 74, 127
2, 82268, Note_on_c, 10, 69, 127
2, 82662, Note_off_c, 2, 74, 127
2, 82662, Note_off_c, 5, 77, 127
2, 82663, Note_on_c, 4, 76, 127
2, 82663, Note_on_c, 0, 72, 127
2, 83057, Note_off_c, 0, 72, 127
2, 83057, Note_off_c, 4, 76, 127
2, 83058, Note_off_c, 10, 69, 127
2, 83059, Note_on_c, 10, 69, 127
2, 83059, Note_on_c, 5, 77, 127
2, 83059, Note_on_c, 2, 74, 127
2, 83453, Note_off_c, 2, 74, 127
2, 83453, Note_off_c, 5, 77, 127
2, 83454, Note_on_c, 12, 71, 127
2, 83454, Note_on_c, 2, 74, 127
2, 83848, Note_off_c, 2, 74, 127
2, 83848, Note_off_c, 12, 71, 127
2, 83849, Note_off_c, 10, 69, 127
2, 83850, Note_on_c, 0, 72, 127
2, 83850, Note_on_c, 10, 69, 127
2, 83850, Note_on_c, 4, 76, 127
2, 83947, Note_off_c, 10, 57, 127
2, 83949, Note_on_c, 10, 57, 127
2, 84046, Note_off_c, 10, 57, 127
2, 84048, Note_on_c, 12, 59, 127
2, 84145, Note_off_c, 12, 59, 127
2, 84146, Note_on_c, 0, 60, 127
2, 84243, Note_off_c, 0, 60, 127
2, 84245, Note_on_c, 2, 62, 127
2, 84342, Note_off_c, 2, 62, 127
2, 84344, Note_on_c, 4, 64, 127
2, 84441, Note_off_c, 4, 64, 127
2, 84443, Note_on_c, 6, 66, 127
2, 84540, Note_off_c, 6, 66, 127
2, 84542, Note_on_c, 8, 68, 127
2, 84591, Note_off_c, 10, 69, 127
2, 84639, Note_off_c, 8, 68, 127
2, 84641, Note_on_c, 10, 69, 127
2, 85035, Note_off_c, 4, 76, 127
2, 85035, Note_off_c, 0, 72, 127
2, 85036, Note_on_c, 10, 81, 127
2, 85036, Note_on_c, 4, 76, 127
2, 85036, Note_on_c, 0, 72, 127
2, 85430, Note_off_c, 0, 72, 127
2, 85430, Note_off_c, 4, 76, 127
2, 85430, Note_off_c, 10, 81, 127
2, 85432, Note_on_c, 12, 83, 127
2, 85432, Note_on_c, 2, 74, 127
2, 85432, Note_on_c, 5, 77, 127
2, 85826, Note_off_c, 5, 77, 127
2, 85826, Note_off_c, 2, 74, 127
2, 85826, Note_off_c, 12, 83, 127
2, 85827, Note_on_c, 10, 81, 127
2, 85827, Note_on_c, 0, 72, 127
2, 85827, Note_on_c, 4, 76, 127
2, 86221, Note_off_c, 4, 76, 127
2, 86221, Note_off_c, 0, 72, 127
2, 86221, Note_off_c, 10, 81, 127
2, 86223, Note_on_c, 12, 83, 127
2, 86223, Note_on_c, 2, 74, 127
2, 86223, Note_on_c, 5, 77, 127
2, 86617, Note_off_c, 5, 77, 127
2, 86617, Note_off_c, 2, 74, 127
2, 86617, Note_off_c, 12, 83, 127
2, 86618, Note_on_c, 8, 80, 127
2, 86618, Note_on_c, 2, 74, 127
2, 86618, Note_on_c, 12, 71, 127
2, 87012, Note_off_c, 12, 71, 127
2, 87012, Note_off_c, 2, 74, 127
2, 87012, Note_off_c, 8, 80, 127
2, 87014, Note_on_c, 0, 72, 127
2, 87014, Note_on_c, 10, 81, 127
2, 87014, Note_on_c, 4, 76, 127
2, 87408, Note_off_c, 4, 76, 127
2, 87408, Note_off_c, 0, 72, 127
2, 87408, Note_off_c, 10, 69, 127
2, 87409, Note_on_c, 12, 47, 127
2, 87409, Note_on_c, 3, 75, 127
2, 87803, Note_off_c, 3, 75, 127
2, 87803, Note_off_c, 12, 47, 127
2, 87805, Note_on_c, 0, 48, 127
2, 87805, Note_on_c, 4, 76, 127
2, 88198, Note_off_c, 10, 81, 127
2, 88199, Note_off_c, 4, 76, 127
2, 88199, Note_off_c, 0, 48, 127
2, 88200, Note_on_c, 2, 50, 127
2, 88200, Note_on_c, 10, 69, 127
2, 88200, Note_on_c, 5, 65, 127
2, 88594, Note_off_c, 5, 65, 127
2, 88594, Note_off_c, 10, 69, 127
2, 88594, Note_off_c, 2, 50, 127
2, 88596, Note_on_c, 4, 52, 127
2, 88596, Note_on_c, 0, 72, 127
2, 88596, Note_on_c, 10, 69, 127
2, 88596, Note_on_c, 4, 64, 127
2, 89296, Note_off_c, 4, 64, 127
2, 89296, Note_off_c, 10, 69, 127
2, 89296, Note_off_c, 0, 72, 127
2, 89296, Note_off_c, 4, 52, 127
2, 89387, Note_on_c, 4, 40, 127
2, 89387, Note_on_c, 12, 71, 127
2, 89387, Note_on_c, 8, 68, 127
2, 89387, Note_on_c, 2, 62, 127
2, 90087, Note_off_c, 2, 62, 127
2, 90087, Note_off_c, 8, 68, 127
2, 90087, Note_off_c, 12, 71, 127
2, 90087, Note_off_c, 4, 40, 127
2, 90194, Note_on_c, 0, 60, 127
2, 90194, Note_on_c, 4, 64, 127
2, 90194, Note_on_c, 10, 69, 127
2, 90194, Note_on_c, 10, 45, 127
2, 92594, Note_off_c, 10, 45, 127
2, 92594, Note_off_c, 10, 69, 127
2, 92594, Note_off_c, 4, 64, 127
2, 92594, Note_off_c, 0, 60, 127
2, 93520, Note_on_c, 10, 69, 127
2, 93770, Note_off_c, 10, 69, 127
2, 93774, Note_on_c, 10, 69, 127
2, 93864, Note_off_c, 10, 69, 127
2, 93867, Note_on_c, 8, 68, 127
2, 93957, Note_off_c, 8, 68, 127
2, 93960, Note_on_c, 10, 45, 127
2, 93960, Note_on_c, 10, 69, 127
2, 94143, Note_off_c, 10, 45, 127
2, 94145, Note_on_c, 0, 48, 127
2, 94328, Note_off_c, 0, 48, 127
2, 94330, Note_on_c, 4, 52, 127
2, 94513, Note_off_c, 4, 52, 127
2, 94516, Note_on_c, 10, 57, 127
2, 94699, Note_off_c, 10, 69, 127
2, 94701, Note_on_c, 10, 69, 127
2, 94884, Note_off_c, 10, 69, 127
2, 94884, Note_off_c, 10, 57, 127
2, 94887, Note_on_c, 7, 55, 127
2, 94887, Note_on_c, 12, 71, 127
2, 95070, Note_off_c, 12, 71, 127
2, 95072, Note_on_c, 0, 72, 127
2, 95255, Note_off_c, 0, 72, 127
2, 95255, Note_off_c, 7, 55, 127
2, 95257, Note_on_c, 5, 53, 127
2, 95257, Note_on_c, 2, 74, 127
2, 95440, Note_off_c, 2, 74, 127
2, 95443, Note_on_c, 4, 76, 127
2, 95625, Note_off_c, 5, 53, 127
2, 95626, Note_off_c, 4, 76, 127
2, 95628, Note_on_c, 2, 50, 127
2, 95628, Note_on_c, 5, 77, 127
2, 95811, Note_off_c, 5, 77, 127
2, 95814, Note_on_c, 10, 69, 127
2, 95996, Note_off_c, 2, 50, 127
2, 95997, Note_off_c, 10, 69, 127
2, 95999, Note_on_c, 4, 52, 127
2, 95999, Note_on_c, 8, 68, 127
2, 96182, Note_off_c, 8, 68, 127
2, 96184, Note_on_c, 5, 77, 127
2, 96367, Note_off_c, 5, 77, 127
2, 96367, Note_off_c, 4, 52, 127
2, 96370, Note_on_c, 4, 40, 127
2, 96370, Note_on_c, 4, 76, 127
2, 96553, Note_off_c, 4, 76, 127
2, 96555, Note_on_c, 2, 74, 127
2, 96738, Note_off_c, 2, 74, 127
2, 96738, Note_off_c, 4, 40, 127
2, 96741, Note_on_c, 10, 45, 127
2, 96741, Note_on_c, 2, 74, 127
2, 96924, Note_off_c, 2, 74, 127
2, 96926, Note_on_c, 0, 72, 127
2, 97109, Note_off_c, 0, 72, 127
2, 97111, Note_on_c, 12, 71, 127
2, 97294, Note_off_c, 12, 71, 127
2, 97297, Note_on_c, 10, 69, 127
2, 97474, Note_off_c, 10, 45, 127
2, 97480, Note_off_c, 10, 69, 127
2, 97482, Note_on_c, 10, 81, 127
2, 97572, Note_off_c, 10, 81, 127
2, 97575, Note_on_c, 8, 80, 127
2, 97665, Note_off_c, 8, 80, 127
2, 97668, Note_on_c, 10, 57, 127
2, 97668, Note_on_c, 10, 81, 127
2, 97851, Note_off_c, 10, 57, 127
2, 97853, Note_on_c, 12, 59, 127
2, 98036, Note_off_c, 12, 59, 127
2, 98036, Note_off_c, 10, 81, 127
2, 98038, Note_on_c, 0, 60, 127
2, 98038, Note_on_c, 7, 79, 127
2, 98221, Note_off_c, 7, 79, 127
2, 98221, Note_off_c, 0, 60, 127
2, 98224, Note_on_c, 2, 62, 127
2, 98224, Note_on_c, 5, 77, 127
2, 98407, Note_off_c, 5, 77, 127
2, 98407, Note_off_c, 2, 62, 127
2, 98409, Note_on_c, 4, 64, 127
2, 98409, Note_on_c, 4, 76, 127
2, 98592, Note_off_c, 4, 76, 127
2, 98592, Note_off_c, 4, 64, 127
2, 98595, Note_on_c, 5, 65, 127
2, 98595, Note_on_c, 2, 74, 127
2, 98778, Note_off_c, 2, 74, 127
2, 98778, Note_off_c, 5, 65, 127
2, 98780, Note_on_c, 10, 57, 127
2, 98780, Note_on_c, 0, 72, 127
2, 98963, Note_off_c, 0, 72, 127
2, 98963, Note_off_c, 10, 57, 127
2, 98965, Note_on_c, 8, 56, 127
2, 98965, Note_on_c, 12, 71, 127
2, 99148, Note_off_c, 12, 71, 127
2, 99148, Note_off_c, 8, 56, 127
2, 99151, Note_on_c, 5, 65, 127
2, 99151, Note_on_c, 10, 81, 127
2, 99334, Note_off_c, 10, 81, 127
2, 99334, Note_off_c, 5, 65, 127
2, 99336, Note_on_c, 4, 64, 127
2, 99336, Note_on_c, 8, 80, 127
2, 99519, Note_off_c, 8, 80, 127
2, 99519, Note_off_c, 4, 64, 127
2, 99522, Note_on_c, 2, 62, 127
2, 99522, Note_on_c, 10, 81, 127
2, 99612, Note_off_c, 10, 81, 127
2, 99614, Note_on_c, 12, 83, 127
2, 99704, Note_off_c, 12, 83, 127
2, 99705, Note_off_c, 2, 62, 127
2, 99707, Note_on_c, 0, 60, 127
2, 99707, Note_on_c, 4, 76, 127
2, 99890, Note_off_c, 0, 60, 127
2, 99892, Note_on_c, 4, 64, 127
2, 100075, Note_off_c, 4, 64, 127
2, 100078, Note_on_c, 6, 66, 127
2, 100261, Note_off_c, 6, 66, 127
2, 100263, Note_on_c, 8, 68, 127
2, 100446, Note_off_c, 8, 68, 127
2, 100449, Note_on_c, 10, 69, 127
2, 100631, Note_off_c, 4, 76, 127
2, 100634, Note_on_c, 7, 79, 127
2, 100817, Note_off_c, 7, 79, 127
2, 100819, Note_on_c, 10, 57, 127
2, 100819, Note_on_c, 5, 77, 127
2, 101002, Note_off_c, 5, 77, 127
2, 101005, Note_on_c, 4, 76, 127
2, 101187, Note_off_c, 10, 57, 127
2, 101188, Note_off_c, 4, 76, 127
2, 101190, Note_on_c, 12, 59, 127
2, 101190, Note_on_c, 2, 74, 127
2, 101373, Note_off_c, 2, 74, 127
2, 101376, Note_on_c, 0, 72, 127
2, 101559, Note_off_c, 0, 72, 127
2, 101559, Note_off_c, 10, 69, 127
2, 101561, Note_on_c, 10, 69, 127
2, 101561, Note_on_c, 12, 71, 127
2, 101651, Note_off_c, 10, 69, 127
2, 101654, Note_on_c, 8, 68, 127
2, 101744, Note_off_c, 8, 68, 127
2, 101744, Note_off_c, 12, 71, 127
2, 101746, Note_on_c, 10, 69, 127
2, 101746, Note_on_c, 0, 72, 127
2, 101923, Note_off_c, 12, 59, 127
2, 101929, Note_off_c, 0, 72, 127
2, 101932, Note_on_c, 4, 64, 127
2, 101932, Note_on_c, 2, 74, 127
2, 102115, Note_off_c, 2, 74, 127
2, 102117, Note_on_c, 5, 77, 127
2, 102286, Note_off_c, 10, 69, 127
2, 102300, Note_off_c, 5, 77, 127
2, 102303, Note_on_c, 8, 68, 127
2, 102303, Note_on_c, 4, 76, 127
2, 102486, Note_off_c, 4, 76, 127
2, 102488, Note_on_c, 2, 74, 127
2, 102665, Note_off_c, 4, 64, 127
2, 102669, Note_off_c, 8, 68, 127
2, 102671, Note_off_c, 2, 74, 127
2, 102673, Note_on_c, 10, 69, 127
2, 102673, Note_on_c, 0, 72, 127
2, 102856, Note_off_c, 0, 72, 127
2, 102859, Note_on_c, 12, 71, 127
2, 103039, Note_off_c, 10, 69, 127
2, 103042, Note_off_c, 12, 71, 127
2, 103044, Note_on_c, 4, 64, 127
2, 103044, Note_on_c, 10, 69, 127
2, 103227, Note_off_c, 10, 69, 127
2, 103230, Note_on_c, 12, 71, 127
2, 103412, Note_off_c, 4, 64, 127
2, 103413, Note_off_c, 12, 71, 127
2, 103415, Note_on_c, 10, 57, 127
2, 103415, Note_on_c, 0, 72, 127
2, 103598, Note_off_c, 0, 72, 127
2, 103598, Note_off_c, 10, 57, 127
2, 103600, Note_on_c, 10, 69, 127
2, 103600, Note_on_c, 2, 74, 127
2, 103783, Note_off_c, 2, 74, 127
2, 103783, Note_off_c, 10, 69, 127
2, 103786, Note_on_c, 7, 67, 127
2, 103786, Note_on_c, 4, 76, 127
2, 103969, Note_off_c, 4, 76, 127
2, 103969, Note_off_c, 7, 67, 127
2, 103971, Note_on_c, 5, 65, 127
2, 103971, Note_on_c, 5, 77, 127
2, 104154, Note_off_c, 5, 77, 127
2, 104154, Note_off_c, 5, 65, 127
2, 104157, Note_on_c, 4, 64, 127
2, 104157, Note_on_c, 7, 79, 127
2, 104340, Note_off_c, 4, 64, 127
2, 104342, Note_on_c, 2, 62, 127
2, 104342, Note_on_c, 5, 77, 127
2, 104525, Note_off_c, 5, 77, 127
2, 104525, Note_off_c, 2, 62, 127
2, 104527, Note_on_c, 0, 60, 127
2, 104527, Note_on_c, 4, 76, 127
2, 104710, Note_off_c, 4, 76, 127
2, 104710, Note_off_c, 0, 60, 127
2, 104713, Note_on_c, 2, 62, 127
2, 104713, Note_on_c, 2, 74, 127
2, 104896, Note_off_c, 2, 74, 127
2, 104896, Note_off_c, 2, 62, 127
2, 104898, Note_on_c, 4, 64, 127
2, 104898, Note_on_c, 0, 72, 127
2, 105081, Note_off_c, 4, 64, 127
2, 105084, Note_off_c, 7, 79, 127
2, 105084, Note_on_c, 7, 67, 127
2, 105084, Note_on_c, 11, 82, 127
2, 105267, Note_off_c, 11, 82, 127
2, 105267, Note_off_c, 7, 67, 127
2, 105269, Note_on_c, 5, 65, 127
2, 105269, Note_on_c, 10, 81, 127
2, 105452, Note_off_c, 10, 81, 127
2, 105452, Note_off_c, 5, 65, 127
2, 105454, Note_on_c, 4, 64, 127
2, 105454, Note_on_c, 7, 79, 127
2, 105637, Note_off_c, 7, 79, 127
2, 105637, Note_off_c, 4, 64, 127
2, 105640, Note_on_c, 2, 62, 127
2, 105640, Note_on_c, 5, 77, 127
2, 105823, Note_off_c, 2, 62, 127
2, 105825, Note_off_c, 0, 72, 127
2, 105825, Note_on_c, 0, 60, 127
2, 105825, Note_on_c, 4, 76, 127
2, 106008, Note_off_c, 4, 76, 127
2, 106008, Note_off_c, 0, 60, 127
2, 106011, Note_on_c, 12, 59, 127
2, 106011, Note_on_c, 2, 74, 127
2, 106194, Note_off_c, 2, 74, 127
2, 106194, Note_off_c, 12, 59, 127
2, 106196, Note_on_c, 0, 60, 127
2, 106196, Note_on_c, 0, 72, 127
2, 106379, Note_off_c, 0, 72, 127
2, 106379, Note_off_c, 0, 60, 127
2, 106381, Note_on_c, 2, 62, 127
2, 106381, Note_on_c, 12, 71, 127
2, 106564, Note_off_c, 2, 62, 127
2, 106567, Note_off_c, 5, 77, 127
2, 106567, Note_on_c, 5, 65, 127
2, 106567, Note_on_c, 10, 81, 127
2, 106750, Note_off_c, 10, 81, 127
2, 106750, Note_off_c, 5, 65, 127
2, 106752, Note_on_c, 4, 64, 127
2, 106752, Note_on_c, 7, 79, 127
2, 106921, Note_off_c, 12, 71, 127
2, 106935, Note_off_c, 7, 79, 127
2, 106935, Note_off_c, 4, 64, 127
2, 106938, Note_on_c, 2, 62, 127
2, 106938, Note_on_c, 12, 71, 127
2, 106938, Note_on_c, 5, 77, 127
2, 107121, Note_off_c, 5, 77, 127
2, 107121, Note_off_c, 12, 71, 127
2, 107121, Note_off_c, 2, 62, 127
2, 107123, Note_on_c, 0, 60, 127
2, 107123, Note_on_c, 0, 72, 127
2, 107123, Note_on_c, 4, 76, 127
2, 107213, Note_off_c, 4, 76, 127
2, 107216, Note_on_c, 2, 74, 127
2, 107306, Note_off_c, 2, 74, 127
2, 107306, Note_off_c, 0, 60, 127
2, 107308, Note_on_c, 12, 59, 127
2, 107308, Note_on_c, 4, 76, 127
2, 107491, Note_off_c, 12, 59, 127
2, 107494, Note_on_c, 10, 57, 127
2, 107676, Note_off_c, 4, 76, 127
2, 107677, Note_off_c, 10, 57, 127
2, 107679, Note_on_c, 7, 55, 127
2, 107679, Note_on_c, 4, 76, 127
2, 107862, Note_off_c, 4, 76, 127
2, 107862, Note_off_c, 7, 55, 127
2, 107865, Note_on_c, 6, 54, 127
2, 107865, Note_on_c, 10, 81, 127
2, 108048, Note_off_c, 6, 54, 127
2, 108050, Note_on_c, 4, 52, 127
2, 108233, Note_off_c, 4, 52, 127
2, 108235, Note_on_c, 3, 51, 127
2, 108416, Note_off_c, 0, 72, 127
2, 108418, Note_off_c, 3, 51, 127
2, 108419, Note_off_c, 10, 81, 127
2, 108421, Note_on_c, 4, 52, 127
2, 108421, Note_on_c, 0, 72, 127
2, 108421, Note_on_c, 10, 81, 127
2, 108604, Note_off_c, 10, 81, 127
2, 108604, Note_off_c, 0, 72, 127
2, 108604, Note_off_c, 4, 52, 127
2, 108606, Note_on_c, 3, 51, 127
2, 108606, Note_on_c, 10, 81, 127
2, 108606, Note_on_c, 12, 71, 127
2, 108789, Note_off_c, 10, 81, 127
2, 108792, Note_on_c, 7, 79, 127
2, 108975, Note_off_c, 7, 79, 127
2, 108977, Note_on_c, 10, 81, 127
2, 109160, Note_off_c, 10, 81, 127
2, 109162, Note_on_c, 6, 78, 127
2, 109339, Note_off_c, 3, 51, 127
2, 109345, Note_off_c, 6, 78, 127
2, 109348, Note_on_c, 7, 79, 127
2, 109533, Note_on_c, 4, 52, 127
2, 109716, Note_off_c, 4, 52, 127
2, 109719, Note_on_c, 6, 54, 127
2, 109899, Note_off_c, 12, 71, 127
2, 109902, Note_off_c, 6, 54, 127
2, 109902, Note_off_c, 7, 79, 127
2, 109904, Note_on_c, 7, 55, 127
2, 109904, Note_on_c, 7, 79, 127
2, 109904, Note_on_c, 12, 71, 127
2, 110087, Note_off_c, 12, 71, 127
2, 110087, Note_off_c, 7, 79, 127
2, 110087, Note_off_c, 7, 55, 127
2, 110089, Note_on_c, 10, 57, 127
2, 110089, Note_on_c, 12, 71, 127
2, 110089, Note_on_c, 7, 79, 127
2, 110272, Note_off_c, 10, 57, 127
2, 110275, Note_on_c, 7, 55, 127
2, 110458, Note_off_c, 7, 55, 127
2, 110460, Note_on_c, 10, 57, 127
2, 110643, Note_off_c, 10, 57, 127
2, 110646, Note_on_c, 12, 59, 127
2, 110828, Note_off_c, 7, 79, 127
2, 110828, Note_off_c, 12, 71, 127
2, 110829, Note_off_c, 12, 59, 127
2, 110831, Note_on_c, 0, 60, 127
2, 110831, Note_on_c, 5, 77, 127
2, 110831, Note_on_c, 10, 69, 127
2, 111014, Note_off_c, 0, 60, 127
2, 111016, Note_on_c, 12, 59, 127
2, 111199, Note_off_c, 12, 59, 127
2, 111199, Note_off_c, 5, 77, 127
2, 111202, Note_on_c, 0, 60, 127
2, 111202, Note_on_c, 4, 76, 127
2, 111385, Note_off_c, 0, 60, 127
2, 111387, Note_on_c, 10, 57, 127
2, 111570, Note_off_c, 10, 57, 127
2, 111570, Note_off_c, 4, 76, 127
2, 111573, Note_on_c, 12, 59, 127
2, 111573, Note_on_c, 3, 75, 127
2, 111758, Note_off_c, 10, 69, 127
2, 111758, Note_on_c, 0, 72, 127
2, 111941, Note_off_c, 0, 72, 127
2, 111943, Note_on_c, 12, 71, 127
2, 112126, Note_off_c, 12, 71, 127
2, 112129, Note_on_c, 10, 69, 127
2, 112306, Note_off_c, 3, 75, 127
2, 112312, Note_off_c, 10, 69, 127
2, 112314, Note_on_c, 7, 67, 127
2, 112314, Note_on_c, 4, 76, 127
2, 112497, Note_off_c, 7, 67, 127
2, 112500, Note_on_c, 6, 66, 127
2, 112680, Note_off_c, 4, 76, 127
2, 112683, Note_off_c, 6, 66, 127
2, 112685, Note_on_c, 4, 64, 127
2, 112685, Note_on_c, 6, 78, 127
2, 112868, Note_off_c, 4, 64, 127
2, 112870, Note_on_c, 3, 63, 127
2, 113053, Note_off_c, 3, 63, 127
2, 113053, Note_off_c, 6, 78, 127
2, 113056, Note_on_c, 4, 64, 127
2, 113056, Note_on_c, 7, 79, 127
2, 113241, Note_on_c, 3, 75, 127
2, 113424, Note_off_c, 3, 75, 127
2, 113427, Note_on_c, 4, 76, 127
2, 113610, Note_off_c, 4, 76, 127
2, 113612, Note_on_c, 12, 71, 127
2, 113795, Note_off_c, 12, 71, 127
2, 113797, Note_on_c, 0, 72, 127
2, 113980, Note_off_c, 0, 72, 127
2, 113983, Note_on_c, 10, 69, 127
2, 114166, Note_off_c, 7, 79, 127
2, 114168, Note_on_c, 6, 78, 127
2, 114351, Note_off_c, 4, 64, 127
2, 114354, Note_on_c, 4, 64, 127
2, 114537, Note_off_c, 4, 64, 127
2, 114539, Note_on_c, 3, 63, 127
2, 114716, Note_off_c, 10, 69, 127
2, 114723, Note_on_c, 10, 69, 127
2, 114906, Note_off_c, 10, 69, 127
2, 114909, Note_on_c, 12, 71, 127
2, 115092, Note_off_c, 12, 71, 127
2, 115094, Note_on_c, 0, 72, 127
2, 115277, Note_off_c, 0, 72, 127
2, 115280, Note_on_c, 12, 71, 127
2, 115463, Note_off_c, 12, 71, 127
2, 115465, Note_on_c, 10, 69, 127
2, 115648, Note_off_c, 10, 69, 127
2, 115650, Note_on_c, 7, 67, 127
2, 115833, Note_off_c, 7, 67, 127
2, 115836, Note_on_c, 6, 66, 127
2, 116019, Note_off_c, 6, 66, 127
2, 116019, Note_off_c, 3, 63, 127
2, 116021, Note_on_c, 4, 64, 127
2, 116021, Note_on_c, 7, 67, 127
2, 116207, Note_on_c, 12, 71, 127
2, 116387, Note_off_c, 6, 78, 127
2, 116390, Note_off_c, 12, 71, 127
2, 116392, Note_on_c, 4, 76, 127
2, 116561, Note_off_c, 7, 67, 127
2, 116577, Note_on_c, 10, 69, 127
2, 116760, Note_off_c, 10, 69, 127
2, 116760, Note_off_c, 4, 64, 127
2, 116763, Note_on_c, 6, 66, 127
2, 116763, Note_on_c, 12, 71, 127
2, 116932, Note_off_c, 4, 76, 127
2, 116948, Note_on_c, 4, 76, 127
2, 117131, Note_off_c, 4, 76, 127
2, 117134, Note_on_c, 3, 75, 127
2, 117305, Note_off_c, 12, 59, 127
2, 117319, Note_on_c, 10, 57, 127
2, 117496, Note_off_c, 6, 66, 127
2, 117502, Note_off_c, 10, 57, 127
2, 117502, Note_off_c, 3, 75, 127
2, 117504, Note_on_c, 8, 56, 127
2, 117504, Note_on_c, 4, 64, 127
2, 117504, Note_on_c, 2, 74, 127
2, 117687, Note_off_c, 2, 74, 127
2, 117690, Note_off_c, 12, 71, 127
2, 117690, Note_on_c, 0, 72, 127
2, 117873, Note_off_c, 0, 72, 127
2, 117875, Note_on_c, 12, 71, 127
2, 118061, Note_on_c, 0, 72, 127
2, 118243, Note_off_c, 8, 56, 127
2, 118244, Note_off_c, 0, 72, 127
2, 118246, Note_on_c, 10, 57, 127
2, 118246, Note_on_c, 0, 72, 127
2, 118608, Note_off_c, 12, 71, 127
2, 118616, Note_on_c, 10, 69, 127
2, 118799, Note_off_c, 0, 72, 127
2, 118801, Note_on_c, 12, 71, 127
2, 118984, Note_off_c, 12, 71, 127
2, 118984, Note_off_c, 10, 57, 127
2, 118987, Note_on_c, 4, 52, 127
2, 118987, Note_on_c, 12, 71, 127
2, 119156, Note_off_c, 10, 69, 127
2, 119172, Note_on_c, 8, 68, 127
2, 119355, Note_off_c, 8, 68, 127
2, 119357, Note_on_c, 10, 69, 127
2, 119540, Note_off_c, 10, 69, 127
2, 119543, Note_on_c, 6, 66, 127
2, 119723, Note_off_c, 4, 64, 127
2, 119726, Note_off_c, 6, 66, 127
2, 119728, Note_on_c, 10, 69, 127
2, 119801, Note_on_c, 8, 68, 127
2, 119818, Note_off_c, 10, 69, 127
2, 119874, Note_on_c, 10, 69, 127
2, 119891, Note_off_c, 8, 68, 127
2, 119914, Note_on_c, 2, 62, 127
2, 119949, Note_on_c, 8, 68, 127
2, 119965, Note_off_c, 10, 69, 127
2, 120097, Note_off_c, 2, 62, 127
2, 120099, Note_on_c, 4, 64, 127
2, 120282, Note_off_c, 4, 64, 127
2, 120284, Note_on_c, 12, 59, 127
2, 120467, Note_off_c, 12, 59, 127
2, 120470, Note_on_c, 0, 60, 127
2, 120642, Note_off_c, 8, 68, 127
2, 120655, Note_on_c, 4, 64, 127
2, 120841, Note_off_c, 12, 71, 127
2, 120841, Note_on_c, 10, 69, 127
2, 121021, Note_off_c, 4, 64, 127
2, 121026, Note_on_c, 4, 64, 127
2, 121207, Note_off_c, 10, 69, 127
2, 121209, Note_off_c, 4, 64, 127
2, 121211, Note_on_c, 10, 69, 127
2, 121211, Note_on_c, 4, 64, 127
2, 121296, Note_on_c, 3, 63, 127
2, 121301, Note_off_c, 4, 64, 127
2, 121381, Note_on_c, 4, 64, 127
2, 121387, Note_off_c, 3, 63, 127
2, 121394, Note_off_c, 0, 60, 127
2, 121397, Note_on_c, 0, 60, 127
2, 121466, Note_on_c, 3, 63, 127
2, 121471, Note_off_c, 4, 64, 127
2, 121580, Note_off_c, 0, 60, 127
2, 121582, Note_on_c, 12, 59, 127
2, 121765, Note_off_c, 12, 59, 127
2, 121768, Note_on_c, 10, 57, 127
2, 121942, Note_off_c, 3, 63, 127
2, 121950, Note_off_c, 10, 57, 127
2, 121952, Note_on_c, 12, 59, 127
2, 121952, Note_on_c, 4, 64, 127
2, 122136, Note_off_c, 10, 69, 127
2, 122137, Note_on_c, 8, 68, 127
2, 122320, Note_off_c, 8, 68, 127
2, 122323, Note_on_c, 10, 69, 127
2, 122506, Note_off_c, 10, 69, 127
2, 122508, Note_on_c, 6, 66, 127
2, 122691, Note_off_c, 6, 66, 127
2, 122694, Note_on_c, 8, 68, 127
2, 122784, Note_off_c, 8, 68, 127
2, 122786, Note_on_c, 6, 66, 127
2, 122876, Note_off_c, 6, 66, 127
2, 122879, Note_on_c, 8, 68, 127
2, 123062, Note_off_c, 4, 64, 127
2, 123062, Note_off_c, 12, 59, 127
2, 123247, Note_off_c, 8, 68, 127
2, 123250, Note_on_c, 12, 71, 127
2, 123427, Note_off_c, 4, 52, 127
2, 123433, Note_off_c, 12, 71, 127
2, 123435, Note_on_c, 12, 71, 127
2, 123525, Note_off_c, 12, 71, 127
2, 123528, Note_on_c, 10, 69, 127
2, 123618, Note_off_c, 10, 69, 127
2, 123621, Note_on_c, 4, 40, 127
2, 123621, Note_on_c, 12, 71, 127
2, 123804, Note_off_c, 4, 40, 127
2, 123806, Note_on_c, 8, 44, 127
2, 123989, Note_off_c, 8, 44, 127
2, 123991, Note_on_c, 12, 47, 127
2, 124174, Note_off_c, 12, 47, 127
2, 124177, Note_on_c, 4, 52, 127
2, 124360, Note_off_c, 12, 71, 127
2, 124362, Note_on_c, 0, 72, 127
2, 124545, Note_off_c, 0, 72, 127
2, 124548, Note_on_c, 12, 71, 127
2, 124731, Note_off_c, 12, 71, 127
2, 124733, Note_on_c, 10, 69, 127
2, 124916, Note_off_c, 10, 69, 127
2, 124918, Note_on_c, 8, 68, 127
2, 125101, Note_off_c, 8, 68, 127
2, 125104, Note_on_c, 10, 69, 127
2, 125287, Note_off_c, 10, 69, 127
2, 125287, Note_off_c, 4, 52, 127
2, 125289, Note_on_c, 6, 54, 127
2, 125289, Note_on_c, 12, 71, 127
2, 125472, Note_off_c, 12, 71, 127
2, 125475, Note_on_c, 8, 68, 127
2, 125657, Note_off_c, 6, 54, 127
2, 125658, Note_off_c, 8, 68, 127
2, 125660, Note_on_c, 8, 56, 127
2, 125660, Note_on_c, 4, 64, 127
2, 125843, Note_off_c, 4, 64, 127
2, 125845, Note_on_c, 2, 74, 127
2, 126028, Note_off_c, 2, 74, 127
2, 126028, Note_off_c, 8, 56, 127
2, 126031, Note_on_c, 4, 52, 127
2, 126031, Note_on_c, 0, 72, 127
2, 126214, Note_off_c, 0, 72, 127
2, 126216, Note_on_c, 12, 71, 127
2, 126399, Note_off_c, 12, 71, 127
2, 126399, Note_off_c, 4, 52, 127
2, 126402, Note_on_c, 10, 57, 127
2, 126402, Note_on_c, 0, 72, 127
2, 126585, Note_off_c, 0, 72, 127
2, 126587, Note_on_c, 2, 74, 127
2, 126770, Note_off_c, 2, 74, 127
2, 126770, Note_off_c, 10, 57, 127
2, 126772, Note_on_c, 7, 55, 127
2, 126772, Note_on_c, 4, 76, 127
2, 126955, Note_off_c, 4, 76, 127
2, 126958, Note_on_c, 0, 72, 127
2, 127141, Note_off_c, 0, 72, 127
2, 127143, Note_on_c, 10, 69, 127
2, 127326, Note_off_c, 10, 69, 127
2, 127326, Note_off_c, 7, 55, 127
2, 127329, Note_on_c, 5, 53, 127
2, 127329, Note_on_c, 12, 71, 127
2, 127512, Note_off_c, 12, 71, 127
2, 127512, Note_off_c, 5, 53, 127
2, 127514, Note_on_c, 4, 52, 127
2, 127514, Note_on_c, 1, 73, 127
2, 127697, Note_off_c, 1, 73, 127
2, 127697, Note_off_c, 4, 52, 127
2, 127699, Note_on_c, 2, 50, 127
2, 127699, Note_on_c, 2, 74, 127
2, 127882, Note_off_c, 2, 74, 127
2, 127882, Note_off_c, 2, 50, 127
2, 127885, Note_on_c, 1, 49, 127
2, 127885, Note_on_c, 4, 76, 127
2, 128068, Note_off_c, 4, 76, 127
2, 128068, Note_off_c, 1, 49, 127
2, 128070, Note_on_c, 2, 50, 127
2, 128070, Note_on_c, 5, 77, 127
2, 128253, Note_off_c, 5, 77, 127
2, 128253, Note_off_c, 2, 50, 127
2, 128256, Note_on_c, 4, 52, 127
2, 128256, Note_on_c, 7, 79, 127
2, 128439, Note_off_c, 7, 79, 127
2, 128439, Note_off_c, 4, 52, 127
2, 128441, Note_on_c, 1, 49, 127
2, 128441, Note_on_c, 4, 76, 127
2, 128624, Note_off_c, 4, 76, 127
2, 128624, Note_off_c, 1, 49, 127
2, 128626, Note_on_c, 10, 45, 127
2, 128626, Note_on_c, 1, 73, 127
2, 128809, Note_off_c, 1, 73, 127
2, 128809, Note_off_c, 10, 45, 127
2, 128812, Note_on_c, 7, 55, 127
2, 128812, Note_on_c, 11, 82, 127
2, 128995, Note_off_c, 11, 82, 127
2, 128995, Note_off_c, 7, 55, 127
2, 128997, Note_on_c, 5, 53, 127
2, 128997, Note_on_c, 10, 81, 127
2, 129180, Note_off_c, 10, 81, 127
2, 129180, Note_off_c, 5, 53, 127
2, 129183, Note_on_c, 4, 52, 127
2, 129183, Note_on_c, 7, 79, 127
2, 129366, Note_off_c, 7, 79, 127
2, 129366, Note_off_c, 4, 52, 127
2, 129368, Note_on_c, 2, 50, 127
2, 129368, Note_on_c, 5, 77, 127
2, 129551, Note_off_c, 5, 77, 127
2, 129553, Note_on_c, 4, 76, 127
2, 129736, Note_off_c, 4, 76, 127
2, 129736, Note_off_c, 2, 50, 127
2, 129739, Note_on_c, 2, 38, 127
2, 129739, Note_on_c, 5, 77, 127
2, 129922, Note_off_c, 5, 77, 127
2, 129924, Note_on_c, 2, 74, 127
2, 130107, Note_off_c, 2, 74, 127
2, 130110, Note_on_c, 10, 81, 127
2, 130293, Note_off_c, 2, 38, 127
2, 130295, Note_on_c, 2, 50, 127
2, 130295, Note_on_c, 5, 77, 127
2, 130478, Note_off_c, 5, 77, 127
2, 130478, Note_off_c, 2, 50, 127
2, 130480, Note_on_c, 4, 52, 127
2, 130480, Note_on_c, 1, 73, 127
2, 130663, Note_off_c, 1, 73, 127
2, 130663, Note_off_c, 4, 52, 127
2, 130666, Note_on_c, 5, 53, 127
2, 130666, Note_on_c, 2, 74, 127
2, 130843, Note_off_c, 10, 81, 127
2, 130849, Note_off_c, 5, 53, 127
2, 130851, Note_on_c, 7, 55, 127
2, 130851, Note_on_c, 11, 82, 127
2, 131034, Note_off_c, 7, 55, 127
2, 131037, Note_on_c, 5, 53, 127
2, 131220, Note_off_c, 5, 53, 127
2, 131222, Note_on_c, 7, 55, 127
2, 131405, Note_off_c, 7, 55, 127
2, 131405, Note_off_c, 11, 82, 127
2, 131407, Note_on_c, 10, 57, 127
2, 131407, Note_on_c, 10, 81, 127
2, 131590, Note_off_c, 10, 81, 127
2, 131590, Note_off_c, 10, 57, 127
2, 131593, Note_on_c, 11, 58, 127
2, 131593, Note_on_c, 7, 79, 127
2, 131776, Note_off_c, 11, 58, 127
2, 131776, Note_off_c, 2, 74, 127
2, 131778, Note_on_c, 10, 57, 127
2, 131778, Note_on_c, 5, 77, 127
2, 131961, Note_off_c, 5, 77, 127
2, 131961, Note_off_c, 10, 57, 127
2, 131964, Note_on_c, 11, 58, 127
2, 131964, Note_on_c, 4, 76, 127
2, 132133, Note_off_c, 7, 79, 127
2, 132147, Note_off_c, 4, 76, 127
2, 132147, Note_off_c, 11, 58, 127
2, 132149, Note_on_c, 7, 55, 127
2, 132149, Note_on_c, 5, 77, 127
2, 132239, Note_off_c, 5, 77, 127
2, 132242, Note_on_c, 7, 79, 127
2, 132332, Note_off_c, 7, 55, 127
2, 132334, Note_on_c, 10, 57, 127
2, 132334, Note_on_c, 1, 73, 127
2, 132511, Note_off_c, 7, 79, 127
2, 132519, Note_on_c, 5, 77, 127
2, 132702, Note_off_c, 5, 77, 127
2, 132704, Note_on_c, 7, 79, 127
2, 132887, Note_off_c, 7, 79, 127
2, 132889, Note_on_c, 4, 76, 127
2, 133072, Note_off_c, 4, 76, 127
2, 133075, Note_on_c, 5, 77, 127
2, 133259, Note_off_c, 1, 73, 127
2, 133260, Note_on_c, 2, 74, 127
2, 133441, Note_off_c, 5, 77, 127
2, 133446, Note_on_c, 4, 76, 127
2, 133626, Note_off_c, 2, 74, 127
2, 133631, Note_on_c, 12, 71, 127
2, 133814, Note_off_c, 12, 71, 127
2, 133816, Note_on_c, 1, 73, 127
2, 133999, Note_off_c, 1, 73, 127
2, 134002, Note_on_c, 10, 69, 127
2, 134185, Note_off_c, 10, 69, 127
2, 134187, Note_on_c, 11, 70, 127
2, 134373, Note_on_c, 7, 67, 127
2, 134555, Note_off_c, 11, 70, 127
2, 134556, Note_off_c, 7, 67, 127
2, 134558, Note_on_c, 5, 65, 127
2, 134558, Note_on_c, 10, 69, 127
2, 134739, Note_off_c, 4, 76, 127
2, 134743, Note_on_c, 2, 74, 127
2, 134924, Note_off_c, 10, 69, 127
2, 134926, Note_off_c, 5, 65, 127
2, 134929, Note_on_c, 4, 64, 127
2, 134929, Note_on_c, 7, 67, 127
2, 135109, Note_off_c, 2, 74, 127
2, 135114, Note_on_c, 1, 73, 127
2, 135287, Note_off_c, 10, 57, 127
2, 135296, Note_off_c, 1, 73, 127
2, 135296, Note_off_c, 4, 64, 127
2, 135299, Note_on_c, 2, 62, 127
2, 135299, Note_on_c, 2, 74, 127
2, 135468, Note_off_c, 7, 67, 127
2, 135484, Note_on_c, 7, 67, 127
2, 135667, Note_off_c, 7, 67, 127
2, 135667, Note_off_c, 2, 62, 127
2, 135669, Note_on_c, 2, 50, 127
2, 135669, Note_on_c, 6, 66, 127
2, 135852, Note_off_c, 6, 66, 127
2, 135855, Note_on_c, 4, 64, 127
2, 136038, Note_off_c, 4, 64, 127
2, 136040, Note_on_c, 6, 66, 127
2, 136223, Note_off_c, 6, 66, 127
2, 136223, Note_off_c, 2, 50, 127
2, 136226, Note_off_c, 2, 74, 127
2, 136226, Note_on_c, 2, 50, 127
2, 136226, Note_on_c, 4, 76, 127
2, 136409, Note_off_c, 4, 76, 127
2, 136409, Note_off_c, 2, 50, 127
2, 136411, Note_on_c, 4, 52, 127
2, 136411, Note_on_c, 2, 74, 127
2, 136594, Note_off_c, 2, 74, 127
2, 136594, Note_off_c, 4, 52, 127
2, 136596, Note_on_c, 6, 54, 127
2, 136596, Note_on_c, 0, 72, 127
2, 136779, Note_off_c, 0, 72, 127
2, 136779, Note_off_c, 6, 54, 127
2, 136782, Note_on_c, 7, 55, 127
2, 136782, Note_on_c, 12, 71, 127
2, 136965, Note_off_c, 12, 71, 127
2, 136965, Note_off_c, 7, 55, 127
2, 136967, Note_on_c, 10, 57, 127
2, 136967, Note_on_c, 10, 69, 127
2, 137150, Note_off_c, 10, 69, 127
2, 137150, Note_off_c, 10, 57, 127
2, 137153, Note_on_c, 12, 59, 127
2, 137153, Note_on_c, 7, 67, 127
2, 137336, Note_off_c, 7, 67, 127
2, 137336, Note_off_c, 12, 59, 127
2, 137338, Note_on_c, 2, 50, 127
2, 137338, Note_on_c, 6, 66, 127
2, 137521, Note_off_c, 6, 66, 127
2, 137521, Note_off_c, 2, 50, 127
2, 137523, Note_on_c, 0, 48, 127
2, 137523, Note_on_c, 4, 64, 127
2, 137706, Note_off_c, 4, 64, 127
2, 137706, Note_off_c, 0, 48, 127
2, 137709, Note_on_c, 12, 59, 127
2, 137709, Note_on_c, 7, 67, 127
2, 137892, Note_off_c, 7, 67, 127
2, 137892, Note_off_c, 12, 59, 127
2, 137894, Note_on_c, 10, 57, 127
2, 137894, Note_on_c, 6, 66, 127
2, 138077, Note_off_c, 6, 66, 127
2, 138077, Note_off_c, 10, 57, 127
2, 138080, Note_on_c, 7, 55, 127
2, 138080, Note_on_c, 7, 67, 127
2, 138263, Note_off_c, 7, 67, 127
2, 138263, Note_off_c, 7, 55, 127
2, 138265, Note_on_c, 6, 54, 127
2, 138265, Note_on_c, 10, 69, 127
2, 138450, Note_on_c, 4, 64, 127
2, 138633, Note_off_c, 4, 64, 127
2, 138636, Note_on_c, 2, 62, 127
2, 138819, Note_off_c, 2, 62, 127
2, 138821, Note_on_c, 0, 60, 127
2, 138998, Note_off_c, 6, 54, 127
2, 139004, Note_off_c, 0, 60, 127
2, 139007, Note_on_c, 12, 59, 127
2, 139007, Note_on_c, 7, 55, 127
2, 139189, Note_off_c, 10, 69, 127
2, 139192, Note_on_c, 10, 69, 127
2, 139375, Note_off_c, 10, 69, 127
2, 139375, Note_off_c, 7, 55, 127
2, 139375, Note_off_c, 12, 59, 127
2, 139377, Note_on_c, 10, 57, 127
2, 139377, Note_on_c, 0, 60, 127
2, 139377, Note_on_c, 7, 67, 127
2, 139560, Note_off_c, 7, 67, 127
2, 139563, Note_on_c, 6, 66, 127
2, 139745, Note_off_c, 0, 60, 127
2, 139745, Note_off_c, 10, 57, 127
2, 139746, Note_off_c, 6, 66, 127
2, 139748, Note_on_c, 12, 59, 127
2, 139748, Note_on_c, 2, 62, 127
2, 139748, Note_on_c, 7, 67, 127
2, 139934, Note_on_c, 2, 74, 127
2, 140117, Note_off_c, 2, 74, 127
2, 140119, Note_on_c, 7, 79, 127
2, 140288, Note_off_c, 7, 67, 127
2, 140302, Note_off_c, 2, 62, 127
2, 140302, Note_off_c, 12, 59, 127
2, 140304, Note_on_c, 4, 64, 127
2, 140304, Note_on_c, 0, 60, 127
2, 140304, Note_on_c, 10, 69, 127
2, 140487, Note_off_c, 10, 69, 127
2, 140487, Note_off_c, 0, 60, 127
2, 140487, Note_off_c, 4, 64, 127
2, 140490, Note_on_c, 2, 62, 127
2, 140490, Note_on_c, 12, 71, 127
2, 140659, Note_off_c, 7, 79, 127
2, 140675, Note_on_c, 7, 79, 127
2, 140856, Note_off_c, 12, 71, 127
2, 140858, Note_off_c, 2, 62, 127
2, 140861, Note_on_c, 0, 60, 127
2, 140861, Note_on_c, 2, 50, 127
2, 140861, Note_on_c, 10, 69, 127
2, 141041, Note_off_c, 7, 79, 127
2, 141046, Note_on_c, 6, 78, 127
2, 141227, Note_off_c, 10, 69, 127
2, 141229, Note_off_c, 6, 78, 127
2, 141229, Note_off_c, 2, 50, 127
2, 141231, Note_on_c, 7, 55, 127
2, 141231, Note_on_c, 7, 79, 127
2, 141231, Note_on_c, 7, 67, 127
2, 141401, Note_off_c, 0, 60, 127
2, 141417, Note_on_c, 0, 60, 127
2, 141600, Note_off_c, 0, 60, 127
2, 141602, Note_on_c, 12, 59, 127
2, 141785, Note_off_c, 12, 59, 127
2, 141788, Note_on_c, 10, 57, 127
2, 141971, Note_off_c, 10, 57, 127
2, 141973, Note_on_c, 12, 59, 127
2, 142155, Note_off_c, 7, 67, 127
2, 142155, Note_off_c, 7, 79, 127
2, 142158, Note_on_c, 7, 67, 127
2, 142341, Note_off_c, 7, 67, 127
2, 142341, Note_off_c, 12, 59, 127
2, 142341, Note_off_c, 7, 55, 127
2, 142344, Note_on_c, 5, 53, 127
2, 142344, Note_on_c, 10, 57, 127
2, 142344, Note_on_c, 10, 69, 127
2, 142527, Note_off_c, 10, 69, 127
2, 142529, Note_on_c, 12, 71, 127
2, 142712, Note_off_c, 12, 71, 127
2, 142712, Note_off_c, 10, 57, 127
2, 142712, Note_off_c, 5, 53, 127
2, 142715, Note_on_c, 7, 55, 127
2, 142715, Note_on_c, 4, 52, 127
2, 142715, Note_on_c, 0, 72, 127
2, 142898, Note_off_c, 0, 72, 127
2, 142900, Note_on_c, 2, 74, 127
2, 143083, Note_off_c, 2, 74, 127
2, 143083, Note_off_c, 7, 55, 127
2, 143085, Note_on_c, 0, 60, 127
2, 143085, Note_on_c, 4, 76, 127
2, 143268, Note_off_c, 4, 76, 127
2, 143271, Note_on_c, 7, 67, 127
2, 143448, Note_off_c, 4, 52, 127
2, 143454, Note_off_c, 7, 67, 127
2, 143456, Note_on_c, 10, 57, 127
2, 143456, Note_on_c, 5, 65, 127
2, 143639, Note_off_c, 5, 65, 127
2, 143642, Note_on_c, 4, 76, 127
2, 143818, Note_off_c, 0, 60, 127
2, 143825, Note_off_c, 4, 76, 127
2, 143827, Note_on_c, 5, 65, 127
2, 143827, Note_on_c, 2, 74, 127
2, 144010, Note_off_c, 2, 74, 127
2, 144012, Note_on_c, 0, 72, 127
2, 144189, Note_off_c, 10, 57, 127
2, 144195, Note_off_c, 0, 72, 127
2, 144198, Note_on_c, 7, 55, 127
2, 144198, Note_on_c, 12, 71, 127
2, 144381, Note_off_c, 12, 71, 127
2, 144383, Note_on_c, 10, 69, 127
2, 144566, Note_off_c, 10, 69, 127
2, 144569, Note_on_c, 7, 67, 127
2, 144754, Note_off_c, 5, 65, 127
2, 144754, Note_on_c, 5, 65, 127
2, 144937, Note_off_c, 5, 65, 127
2, 144939, Note_on_c, 4, 64, 127
2, 145123, Note_off_c, 7, 67, 127
2, 145125, Note_on_c, 0, 72, 127
2, 145307, Note_off_c, 4, 64, 127
2, 145308, Note_off_c, 7, 55, 127
2, 145310, Note_on_c, 7, 55, 127
2, 145310, Note_on_c, 2, 62, 127
2, 145493, Note_off_c, 0, 72, 127
2, 145496, Note_on_c, 12, 71, 127
2, 145678, Note_off_c, 2, 62, 127
2, 145678, Note_off_c, 7, 55, 127
2, 145679, Note_off_c, 12, 71, 127
2, 145681, Note_on_c, 0, 48, 127
2, 145681, Note_on_c, 0, 60, 127
2, 145681, Note_on_c, 4, 76, 127
2, 145864, Note_off_c, 4, 76, 127
2, 145866, Note_on_c, 12, 71, 127
2, 146049, Note_off_c, 12, 71, 127
2, 146049, Note_off_c, 0, 48, 127
2, 146052, Note_on_c, 4, 52, 127
2, 146052, Note_on_c, 0, 72, 127
2, 146235, Note_off_c, 0, 72, 127
2, 146237, Note_on_c, 8, 68, 127
2, 146420, Note_off_c, 8, 68, 127
2, 146420, Note_off_c, 4, 52, 127
2, 146423, Note_on_c, 5, 53, 127
2, 146423, Note_on_c, 10, 69, 127
2, 146606, Note_off_c, 10, 69, 127
2, 146608, Note_on_c, 0, 72, 127
2, 146791, Note_off_c, 0, 72, 127
2, 146791, Note_off_c, 0, 60, 127
2, 146793, Note_on_c, 2, 62, 127
2, 146793, Note_on_c, 12, 71, 127
2, 146976, Note_off_c, 12, 71, 127
2, 146979, Note_on_c, 10, 69, 127
2, 147156, Note_off_c, 5, 53, 127
2, 147161, Note_off_c, 2, 62, 127
2, 147162, Note_off_c, 10, 69, 127
2, 147164, Note_on_c, 4, 64, 127
2, 147164, Note_on_c, 4, 52, 127
2, 147164, Note_on_c, 8, 68, 127
2, 147347, Note_off_c, 8, 68, 127
2, 147350, Note_on_c, 6, 66, 127
2, 147530, Note_off_c, 4, 64, 127
2, 147533, Note_off_c, 6, 66, 127
2, 147535, Note_on_c, 4, 64, 127
2, 147720, Note_on_c, 2, 62, 127
2, 147903, Note_off_c, 2, 62, 127
2, 147906, Note_on_c, 0, 60, 127
2, 148089, Note_off_c, 4, 64, 127
2, 148091, Note_on_c, 5, 77, 127
2, 148274, Note_off_c, 5, 77, 127
2, 148274, Note_off_c, 0, 60, 127
2, 148274, Note_off_c, 4, 52, 127
2, 148277, Note_on_c, 12, 59, 127
2, 148277, Note_on_c, 8, 56, 127
2, 148277, Note_on_c, 4, 76, 127
2, 148460, Note_off_c, 4, 76, 127
2, 148462, Note_on_c, 2, 74, 127
2, 148645, Note_off_c, 2, 74, 127
2, 148645, Note_off_c, 8, 56, 127
2, 148645, Note_off_c, 12, 59, 127
2, 148647, Note_on_c, 10, 57, 127
2, 148647, Note_on_c, 1, 73, 127
2, 148830, Note_off_c, 1, 73, 127
2, 148833, Note_on_c, 2, 74, 127
2, 149015, Note_off_c, 10, 57, 127
2, 149016, Note_off_c, 2, 74, 127
2, 149018, Note_on_c, 7, 55, 127
2, 149018, Note_on_c, 1, 61, 127
2, 149018, Note_on_c, 4, 76, 127
2, 149201, Note_off_c, 4, 76, 127
2, 149204, Note_on_c, 1, 73, 127
2, 149386, Note_off_c, 1, 61, 127
2, 149386, Note_off_c, 7, 55, 127
2, 149387, Note_off_c, 1, 73, 127
2, 149389, Note_on_c, 5, 53, 127
2, 149389, Note_on_c, 2, 62, 127
2, 149389, Note_on_c, 10, 69, 127
2, 149572, Note_off_c, 10, 69, 127
2, 149574, Note_on_c, 7, 79, 127
2, 149757, Note_off_c, 7, 79, 127
2, 149757, Note_off_c, 2, 62, 127
2, 149757, Note_off_c, 5, 53, 127
2, 149760, Note_on_c, 1, 61, 127
2, 149760, Note_on_c, 10, 57, 127
2, 149760, Note_on_c, 5, 77, 127
2, 149943, Note_off_c, 5, 77, 127
2, 149945, Note_on_c, 4, 76, 127
2, 150128, Note_off_c, 4, 76, 127
2, 150128, Note_off_c, 10, 57, 127
2, 150128, Note_off_c, 1, 61, 127
2, 150131, Note_on_c, 2, 50, 127
2, 150131, Note_on_c, 2, 62, 127
2, 150131, Note_on_c, 5, 77, 127
2, 150314, Note_off_c, 5, 77, 127
2, 150316, Note_on_c, 7, 79, 127
2, 150499, Note_off_c, 7, 79, 127
2, 150499, Note_off_c, 2, 62, 127
2, 150499, Note_off_c, 2, 50, 127
2, 150501, Note_on_c, 0, 48, 127
2, 150501, Note_on_c, 4, 52, 127
2, 150501, Note_on_c, 10, 81, 127
2, 150684, Note_off_c, 10, 81, 127
2, 150687, Note_on_c, 5, 77, 127
2, 150869, Note_off_c, 4, 52, 127
2, 150869, Note_off_c, 0, 48, 127
2, 150870, Note_off_c, 5, 77, 127
2, 150872, Note_on_c, 5, 53, 127
2, 150872, Note_on_c, 12, 47, 127
2, 150872, Note_on_c, 2, 74, 127
2, 151058, Note_on_c, 0, 72, 127
2, 151141, Note_off_c, 2, 74, 127
2, 151239, Note_off_c, 12, 47, 127
2, 151240, Note_off_c, 0, 72, 127
2, 151242, Note_on_c, 2, 50, 127
2, 151242, Note_on_c, 12, 71, 127
2, 151411, Note_off_c, 5, 53, 127
2, 151427, Note_on_c, 6, 54, 127
2, 151427, Note_on_c, 10, 69, 127
2, 151551, Note_off_c, 12, 71, 127
2, 151610, Note_off_c, 10, 69, 127
2, 151610, Note_off_c, 6, 54, 127
2, 151613, Note_on_c, 8, 56, 127
2, 151613, Note_on_c, 4, 76, 127
2, 151796, Note_off_c, 8, 56, 127
2, 151798, Note_on_c, 12, 59, 127
2, 151798, Note_on_c, 8, 68, 127
2, 151975, Note_off_c, 2, 50, 127
2, 151981, Note_off_c, 8, 68, 127
2, 151981, Note_off_c, 12, 59, 127
2, 151984, Note_on_c, 4, 52, 127
2, 151984, Note_on_c, 0, 48, 127
2, 151984, Note_on_c, 10, 69, 127
2, 152153, Note_off_c, 4, 76, 127
2, 152167, Note_off_c, 0, 48, 127
2, 152167, Note_off_c, 4, 52, 127
2, 152169, Note_on_c, 2, 50, 127
2, 152169, Note_on_c, 5, 77, 127
2, 152350, Note_off_c, 10, 69, 127
2, 152352, Note_off_c, 5, 77, 127
2, 152352, Note_off_c, 2, 50, 127
2, 152354, Note_on_c, 4, 52, 127
2, 152354, Note_on_c, 12, 71, 127
2, 152537, Note_off_c, 4, 52, 127
2, 152540, Note_on_c, 2, 50, 127
2, 152540, Note_on_c, 10, 69, 127
2, 152723, Note_off_c, 10, 69, 127
2, 152723, Note_off_c, 2, 50, 127
2, 152725, Note_on_c, 4, 52, 127
2, 152725, Note_on_c, 8, 68, 127
2, 152894, Note_off_c, 12, 71, 127
2, 152908, Note_off_c, 4, 52, 127
2, 152911, Note_on_c, 0, 48, 127
2, 152911, Note_on_c, 0, 72, 127
2, 153091, Note_off_c, 8, 68, 127
2, 153094, Note_off_c, 0, 72, 127
2, 153094, Note_off_c, 0, 48, 127
2, 153096, Note_on_c, 5, 53, 127
2, 153096, Note_on_c, 2, 74, 127
2, 153279, Note_off_c, 5, 53, 127
2, 153281, Note_on_c, 4, 52, 127
2, 153281, Note_on_c, 0, 72, 127
2, 153464, Note_off_c, 0, 72, 127
2, 153464, Note_off_c, 4, 52, 127
2, 153467, Note_on_c, 2, 50, 127
2, 153467, Note_on_c, 12, 71, 127
2, 153650, Note_off_c, 12, 71, 127
2, 153650, Note_off_c, 2, 50, 127
2, 153652, Note_on_c, 0, 48, 127
2, 153652, Note_on_c, 10, 69, 127
2, 153835, Note_off_c, 10, 69, 127
2, 153835, Note_off_c, 0, 48, 127
2, 153838, Note_on_c, 12, 47, 127
2, 153838, Note_on_c, 8, 68, 127
2, 154021, Note_off_c, 8, 68, 127
2, 154021, Note_off_c, 12, 47, 127
2, 154023, Note_on_c, 0, 48, 127
2, 154023, Note_on_c, 10, 69, 127
2, 154206, Note_off_c, 10, 69, 127
2, 154206, Note_off_c, 0, 48, 127
2, 154208, Note_on_c, 2, 50, 127
2, 154208, Note_on_c, 8, 68, 127
2, 154391, Note_off_c, 8, 68, 127
2, 154391, Note_off_c, 2, 50, 127
2, 154394, Note_on_c, 12, 47, 127
2, 154394, Note_on_c, 10, 69, 127
2, 154484, Note_off_c, 10, 69, 127
2, 154487, Note_on_c, 12, 71, 127
2, 154577, Note_off_c, 12, 71, 127
2, 154577, Note_off_c, 12, 47, 127
2, 154579, Note_on_c, 8, 44, 127
2, 154579, Note_on_c, 4, 64, 127
2, 154756, Note_off_c, 2, 74, 127
2, 154764, Note_on_c, 0, 72, 127
2, 154854, Note_off_c, 0, 72, 127
2, 154856, Note_on_c, 12, 71, 127
2, 154946, Note_off_c, 12, 71, 127
2, 154946, Note_off_c, 8, 44, 127
2, 154949, Note_on_c, 10, 45, 127
2, 154949, Note_on_c, 0, 72, 127
2, 155118, Note_off_c, 4, 64, 127
2, 155132, Note_off_c, 0, 72, 127
2, 155134, Note_on_c, 10, 69, 127
2, 155134, Note_on_c, 0, 60, 127
2, 155317, Note_off_c, 0, 60, 127
2, 155317, Note_off_c, 10, 45, 127
2, 155320, Note_on_c, 4, 52, 127
2, 155320, Note_on_c, 12, 59, 127
2, 155503, Note_off_c, 12, 59, 127
2, 155505, Note_on_c, 0, 60, 127
2, 155688, Note_off_c, 0, 60, 127
2, 155688, Note_off_c, 4, 52, 127
2, 155691, Note_on_c, 4, 40, 127
2, 155691, Note_on_c, 2, 62, 127
2, 155867, Note_off_c, 10, 69, 127
2, 155875, Note_on_c, 8, 68, 127
2, 156058, Note_off_c, 8, 68, 127
2, 156058, Note_off_c, 4, 40, 127
2, 156060, Note_on_c, 10, 45, 127
2, 156060, Note_on_c, 10, 69, 127
2, 156238, Note_off_c, 2, 62, 127
2, 156255, Note_on_c, 5, 53, 127
2, 156255, Note_on_c, 1, 61, 127
2, 156447, Note_off_c, 1, 61, 127
2, 156447, Note_off_c, 5, 53, 127
2, 156450, Note_on_c, 7, 55, 127
2, 156450, Note_on_c, 4, 64, 127
2, 156642, Note_off_c, 7, 55, 127
2, 156644, Note_on_c, 4, 52, 127
2, 156836, Note_off_c, 4, 52, 127
2, 156839, Note_on_c, 5, 53, 127
2, 157031, Note_off_c, 5, 53, 127
2, 157031, Note_off_c, 4, 64, 127
2, 157034, Note_on_c, 4, 52, 127
2, 157034, Note_on_c, 10, 57, 127
2, 157226, Note_off_c, 10, 57, 127
2, 157226, Note_off_c, 4, 52, 127
2, 157228, Note_on_c, 5, 53, 127
2, 157228, Note_on_c, 2, 62, 127
2, 157418, Note_off_c, 10, 69, 127
2, 157420, Note_off_c, 5, 53, 127
2, 157423, Note_on_c, 2, 50, 127
2, 157423, Note_on_c, 8, 68, 127
2, 157615, Note_off_c, 8, 68, 127
2, 157615, Note_off_c, 2, 50, 127
2, 157618, Note_on_c, 4, 52, 127
2, 157618, Note_on_c, 10, 69, 127
2, 157819, Note_off_c, 2, 62, 127
2, 157838, Note_on_c, 1, 61, 127
2, 158056, Note_off_c, 1, 61, 127
2, 158059, Note_on_c, 2, 62, 127
2, 158311, Note_on_c, 12, 59, 127
2, 158319, Note_off_c, 2, 62, 127
2, 158611, Note_off_c, 12, 59, 127
2, 158643, Note_on_c, 1, 61, 127
2, 160018, Note_off_c, 10, 69, 127
2, 160033, Note_on_c, 10, 69, 127
2, 160043, Note_off_c, 1, 61, 127
2, 160240, Note_off_c, 10, 45, 127
2, 160259, Note_off_c, 4, 52, 127
2, 160313, Note_off_c, 10, 69, 127
2, 160368, Note_on_c, 0, 60, 127
2, 160368, Note_on_c, 10, 45, 127
2, 160461, Note_on_c, 4, 64, 127
2, 160551, Note_off_c, 10, 45, 127
2, 160553, Note_on_c, 10, 69, 127
2, 160553, Note_on_c, 4, 52, 127
2, 160736, Note_off_c, 4, 52, 127
2, 160739, Note_on_c, 10, 57, 127
2, 160908, Note_off_c, 0, 60, 127
2, 160909, Note_off_c, 4, 64, 127
2, 160921, Note_off_c, 10, 69, 127
2, 160924, Note_on_c, 8, 68, 127
2, 161107, Note_off_c, 8, 68, 127
2, 161110, Note_on_c, 10, 69, 127
2, 161293, Note_off_c, 10, 69, 127
2, 161293, Note_off_c, 10, 57, 127
2, 161295, Note_on_c, 12, 71, 127
2, 161295, Note_on_c, 8, 56, 127
2, 161478, Note_off_c, 8, 56, 127
2, 161478, Note_off_c, 12, 71, 127
2, 161480, Note_on_c, 0, 72, 127
2, 161480, Note_on_c, 10, 57, 127
2, 161663, Note_off_c, 10, 57, 127
2, 161663, Note_off_c, 0, 72, 127
2, 161666, Note_on_c, 2, 74, 127
2, 161666, Note_on_c, 12, 59, 127
2, 161849, Note_off_c, 12, 59, 127
2, 161849, Note_off_c, 2, 74, 127
2, 161851, Note_on_c, 4, 76, 127
2, 161851, Note_on_c, 0, 60, 127
2, 162034, Note_off_c, 0, 60, 127
2, 162037, Note_on_c, 10, 69, 127
2, 162037, Note_on_c, 2, 62, 127
2, 162217, Note_off_c, 4, 76, 127
2, 162220, Note_off_c, 2, 62, 127
2, 162222, Note_on_c, 4, 76, 127
2, 162222, Note_on_c, 4, 64, 127
2, 162306, Note_off_c, 10, 69, 127
2, 162312, Note_off_c, 4, 64, 127
2, 162315, Note_on_c, 2, 62, 127
2, 162405, Note_off_c, 2, 62, 127
2, 162405, Note_off_c, 4, 76, 127
2, 162407, Note_on_c, 5, 77, 127
2, 162407, Note_on_c, 0, 60, 127
2, 162497, Note_off_c, 0, 60, 127
2, 162500, Note_on_c, 2, 62, 127
2, 162590, Note_off_c, 2, 62, 127
2, 162590, Note_off_c, 5, 77, 127
2, 162593, Note_on_c, 10, 69, 127
2, 162593, Note_on_c, 4, 64, 127
2, 162732, Note_on_c, 8, 68, 127
2, 162739, Note_off_c, 10, 69, 127
2, 162776, Note_off_c, 4, 64, 127
2, 162778, Note_on_c, 12, 59, 127
2, 162816, Note_on_c, 10, 69, 127
2, 162822, Note_off_c, 8, 68, 127
2, 162889, Note_on_c, 8, 68, 127
2, 162906, Note_off_c, 10, 69, 127
2, 162960, Note_off_c, 12, 59, 127
2, 162963, Note_on_c, 10, 69, 127
2, 162963, Note_on_c, 4, 52, 127
2, 162979, Note_off_c, 8, 68, 127
2, 163036, Note_on_c, 8, 68, 127
2, 163053, Note_off_c, 10, 69, 127
2, 163126, Note_off_c, 8, 68, 127
2, 163146, Note_off_c, 4, 52, 127
2, 163148, Note_on_c, 10, 69, 127
2, 163148, Note_on_c, 5, 53, 127
2, 163331, Note_off_c, 5, 53, 127
2, 163331, Note_off_c, 10, 69, 127
2, 163333, Note_on_c, 12, 71, 127
2, 163333, Note_on_c, 4, 52, 127
2, 163516, Note_off_c, 4, 52, 127
2, 163519, Note_on_c, 2, 50, 127
2, 163673, Note_off_c, 12, 71, 127
2, 163702, Note_off_c, 2, 50, 127
2, 163704, Note_on_c, 4, 64, 127
2, 163704, Note_on_c, 0, 48, 127
2, 163887, Note_off_c, 0, 48, 127
2, 163890, Note_on_c, 12, 47, 127
2, 164044, Note_off_c, 4, 64, 127
2, 164073, Note_off_c, 12, 47, 127
2, 164075, Note_on_c, 2, 74, 127
2, 164075, Note_on_c, 10, 45, 127
2, 164165, Note_off_c, 2, 74, 127
2, 164168, Note_on_c, 0, 72, 127
2, 164258, Note_off_c, 0, 72, 127
2, 164258, Note_off_c, 10, 45, 127
2, 164260, Note_on_c, 2, 74, 127
2, 164260, Note_on_c, 5, 53, 127
2, 164443, Note_off_c, 5, 53, 127
2, 164446, Note_on_c, 10, 45, 127
2, 164628, Note_off_c, 2, 74, 127
2, 164629, Note_off_c, 10, 45, 127
2, 164631, Note_on_c, 4, 76, 127
2, 164631, Note_on_c, 8, 44, 127
2, 164814, Note_off_c, 8, 44, 127
2, 164814, Note_off_c, 4, 76, 127
2, 164817, Note_on_c, 2, 74, 127
2, 164817, Note_on_c, 10, 45, 127
2, 164894, Note_on_c, 0, 72, 127
2, 164907, Note_off_c, 2, 74, 127
2, 164971, Note_on_c, 2, 74, 127
2, 164984, Note_off_c, 0, 72, 127
2, 165000, Note_off_c, 10, 45, 127
2, 165002, Note_on_c, 4, 40, 127
2, 165048, Note_on_c, 0, 72, 127
2, 165061, Note_off_c, 2, 74, 127
2, 165126, Note_on_c, 2, 74, 127
2, 165138, Note_off_c, 0, 72, 127
2, 165185, Note_off_c, 4, 40, 127
2, 165187, Note_on_c, 10, 45, 127
2, 165203, Note_on_c, 0, 72, 127
2, 165216, Note_off_c, 2, 74, 127
2, 165370, Note_off_c, 10, 45, 127
2, 165373, Note_on_c, 12, 71, 127
2, 165373, Note_on_c, 12, 47, 127
2, 165388, Note_off_c, 0, 72, 127
2, 165556, Note_off_c, 12, 47, 127
2, 165556, Note_off_c, 12, 71, 127
2, 165558, Note_on_c, 10, 69, 127
2, 165558, Note_on_c, 0, 48, 127
2, 165741, Note_off_c, 0, 48, 127
2, 165741, Note_off_c, 10, 69, 127
2, 165744, Note_on_c, 8, 68, 127
2, 165744, Note_on_c, 12, 47, 127
2, 165927, Note_off_c, 12, 47, 127
2, 165927, Note_off_c, 8, 68, 127
2, 165929, Note_on_c, 10, 69, 127
2, 165929, Note_on_c, 0, 48, 127
2, 166112, Note_off_c, 0, 48, 127
2, 166112, Note_off_c, 10, 69, 127
2, 166114, Note_on_c, 12, 71, 127
2, 166114, Note_on_c, 2, 50, 127
2, 166297, Note_off_c, 2, 50, 127
2, 166297, Note_off_c, 12, 71, 127
2, 166300, Note_on_c, 8, 68, 127
2, 166300, Note_on_c, 0, 72, 127
2, 166300, Note_on_c, 4, 52, 127
2, 166377, Note_on_c, 2, 50, 127
2, 166390, Note_off_c, 4, 52, 127
2, 166454, Note_on_c, 4, 52, 127
2, 166467, Note_off_c, 2, 50, 127
2, 166576, Note_off_c, 0, 72, 127
2, 166578, Note_on_c, 12, 71, 127
2, 166668, Note_off_c, 12, 71, 127
2, 166671, Note_on_c, 0, 72, 127
2, 166671, Note_on_c, 4, 40, 127
2, 166761, Note_off_c, 0, 72, 127
2, 166763, Note_on_c, 12, 71, 127
2, 166820, Note_off_c, 4, 52, 127
2, 166840, Note_off_c, 8, 68, 127
2, 166853, Note_off_c, 12, 71, 127
2, 166856, Note_on_c, 10, 69, 127
2, 167039, Note_off_c, 10, 69, 127
2, 167039, Note_off_c, 4, 40, 127
2, 167041, Note_on_c, 10, 69, 127
2, 167041, Note_on_c, 10, 45, 127
2, 167224, Note_off_c, 10, 45, 127
2, 167227, Note_on_c, 10, 57, 127
2, 167410, Note_off_c, 10, 57, 127
2, 167412, Note_on_c, 7, 55, 127
2, 167595, Note_off_c, 7, 55, 127
2, 167595, Note_off_c, 10, 69, 127
2, 167598, Note_on_c, 10, 81, 127
2, 167598, Note_on_c, 5, 53, 127
2, 167781, Note_off_c, 5, 53, 127
2, 167781, Note_off_c, 10, 81, 127
2, 167783, Note_on_c, 7, 79, 127
2, 167783, Note_on_c, 4, 52, 127
2, 167966, Note_off_c, 4, 52, 127
2, 167966, Note_off_c, 7, 79, 127
2, 167968, Note_on_c, 5, 77, 127
2, 167968, Note_on_c, 2, 50, 127
2, 168151, Note_off_c, 2, 50, 127
2, 168151, Note_off_c, 5, 77, 127
2, 168154, Note_on_c, 4, 76, 127
2, 168154, Note_on_c, 0, 48, 127
2, 168337, Note_off_c, 0, 48, 127
2, 168337, Note_off_c, 4, 76, 127
2, 168339, Note_on_c, 2, 74, 127
2, 168339, Note_on_c, 2, 50, 127
2, 168522, Note_off_c, 2, 50, 127
2, 168522, Note_off_c, 2, 74, 127
2, 168525, Note_on_c, 0, 72, 127
2, 168525, Note_on_c, 4, 52, 127
2, 168708, Note_off_c, 4, 52, 127
2, 168708, Note_off_c, 0, 72, 127
2, 168710, Note_on_c, 7, 79, 127
2, 168710, Note_on_c, 2, 50, 127
2, 168893, Note_off_c, 2, 50, 127
2, 168893, Note_off_c, 7, 79, 127
2, 168895, Note_on_c, 0, 72, 127
2, 168895, Note_on_c, 4, 52, 127
2, 168985, Note_off_c, 0, 72, 127
2, 168988, Note_on_c, 11, 70, 127
2, 169078, Note_off_c, 11, 70, 127
2, 169078, Note_off_c, 4, 52, 127
2, 169081, Note_on_c, 10, 69, 127
2, 169081, Note_on_c, 0, 48, 127
2, 169171, Note_off_c, 10, 69, 127
2, 169173, Note_on_c, 11, 70, 127
2, 169263, Note_off_c, 11, 70, 127
2, 169264, Note_off_c, 0, 48, 127
2, 169266, Note_on_c, 10, 69, 127
2, 169266, Note_on_c, 5, 53, 127
2, 169449, Note_off_c, 5, 53, 127
2, 169452, Note_on_c, 5, 41, 127
2, 169634, Note_off_c, 10, 69, 127
2, 169635, Note_off_c, 5, 41, 127
2, 169637, Note_on_c, 2, 74, 127
2, 169637, Note_on_c, 5, 53, 127
2, 169820, Note_off_c, 5, 53, 127
2, 169822, Note_on_c, 4, 52, 127
2, 170005, Note_off_c, 4, 52, 127
2, 170008, Note_on_c, 5, 53, 127
2, 170191, Note_off_c, 5, 53, 127
2, 170191, Note_off_c, 2, 74, 127
2, 170193, Note_on_c, 0, 72, 127
2, 170193, Note_on_c, 7, 55, 127
2, 170376, Note_off_c, 7, 55, 127
2, 170376, Note_off_c, 0, 72, 127
2, 170379, Note_on_c, 5, 77, 127
2, 170379, Note_on_c, 10, 57, 127
2, 170562, Note_off_c, 10, 57, 127
2, 170562, Note_off_c, 5, 77, 127
2, 170564, Note_on_c, 2, 74, 127
2, 170564, Note_on_c, 12, 59, 127
2, 170747, Note_off_c, 12, 59, 127
2, 170747, Note_off_c, 2, 74, 127
2, 170749, Note_on_c, 4, 76, 127
2, 170749, Note_on_c, 0, 60, 127
2, 170932, Note_off_c, 0, 60, 127
2, 170932, Note_off_c, 4, 76, 127
2, 170935, Note_on_c, 5, 77, 127
2, 170935, Note_on_c, 5, 53, 127
2, 171118, Note_off_c, 5, 53, 127
2, 171118, Note_off_c, 5, 77, 127
2, 171120, Note_on_c, 7, 79, 127
2, 171120, Note_on_c, 0, 60, 127
2, 171210, Note_off_c, 7, 79, 127
2, 171213, Note_on_c, 5, 77, 127
2, 171303, Note_off_c, 5, 77, 127
2, 171303, Note_off_c, 0, 60, 127
2, 171306, Note_on_c, 4, 76, 127
2, 171306, Note_on_c, 2, 62, 127
2, 171396, Note_off_c, 4, 76, 127
2, 171398, Note_on_c, 5, 77, 127
2, 171488, Note_off_c, 5, 77, 127
2, 171489, Note_off_c, 2, 62, 127
2, 171491, Note_on_c, 7, 79, 127
2, 171491, Note_on_c, 5, 53, 127
2, 171581, Note_off_c, 7, 79, 127
2, 171584, Note_on_c, 5, 77, 127
2, 171674, Note_off_c, 5, 77, 127
2, 171674, Note_off_c, 5, 53, 127
2, 171676, Note_on_c, 4, 76, 127
2, 171676, Note_on_c, 4, 52, 127
2, 171766, Note_off_c, 4, 76, 127
2, 171769, Note_on_c, 2, 74, 127
2, 171859, Note_off_c, 2, 74, 127
2, 171862, Note_on_c, 0, 72, 127
2, 172044, Note_off_c, 4, 52, 127
2, 172045, Note_off_c, 0, 72, 127
2, 172047, Note_on_c, 7, 79, 127
2, 172047, Note_on_c, 5, 53, 127
2, 172230, Note_off_c, 5, 53, 127
2, 172230, Note_off_c, 7, 79, 127
2, 172233, Note_on_c, 11, 70, 127
2, 172233, Note_on_c, 7, 55, 127
2, 172416, Note_off_c, 11, 70, 127
2, 172418, Note_on_c, 10, 69, 127
2, 172601, Note_off_c, 10, 69, 127
2, 172601, Note_off_c, 7, 55, 127
2, 172603, Note_on_c, 11, 70, 127
2, 172603, Note_on_c, 0, 48, 127
2, 172786, Note_off_c, 11, 70, 127
2, 172789, Note_on_c, 4, 76, 127
2, 172971, Note_off_c, 0, 48, 127
2, 172972, Note_off_c, 4, 76, 127
2, 172974, Note_on_c, 7, 79, 127
2, 172974, Note_on_c, 11, 58, 127
2, 173157, Note_off_c, 7, 79, 127
2, 173160, Note_on_c, 5, 77, 127
2, 173343, Note_off_c, 5, 77, 127
2, 173345, Note_on_c, 7, 79, 127
2, 173528, Note_off_c, 7, 79, 127
2, 173528, Note_off_c, 11, 58, 127
2, 173530, Note_on_c, 4, 76, 127
2, 173530, Note_on_c, 0, 60, 127
2, 173713, Note_off_c, 0, 60, 127
2, 173713, Note_off_c, 4, 76, 127
2, 173716, Note_on_c, 5, 77, 127
2, 173716, Note_on_c, 11, 58, 127
2, 173806, Note_off_c, 11, 58, 127
2, 173808, Note_on_c, 10, 57, 127
2, 173898, Note_off_c, 10, 57, 127
2, 173899, Note_off_c, 5, 77, 127
2, 173901, Note_on_c, 4, 76, 127
2, 173901, Note_on_c, 11, 58, 127
2, 173991, Note_off_c, 11, 58, 127
2, 173994, Note_on_c, 10, 57, 127
2, 174084, Note_off_c, 4, 76, 127
2, 174087, Note_on_c, 2, 74, 127
2, 174270, Note_off_c, 2, 74, 127
2, 174270, Note_off_c, 10, 57, 127
2, 174272, Note_on_c, 0, 72, 127
2, 174272, Note_on_c, 7, 55, 127
2, 174455, Note_off_c, 7, 55, 127
2, 174455, Note_off_c, 0, 72, 127
2, 174457, Note_on_c, 2, 74, 127
2, 174457, Note_on_c, 5, 53, 127
2, 174640, Note_off_c, 5, 53, 127
2, 174640, Note_off_c, 2, 74, 127
2, 174643, Note_on_c, 0, 72, 127
2, 174643, Note_on_c, 4, 52, 127
2, 174733, Note_off_c, 0, 72, 127
2, 174735, Note_on_c, 12, 71, 127
2, 174825, Note_off_c, 12, 71, 127
2, 174826, Note_off_c, 4, 52, 127
2, 174828, Note_on_c, 0, 72, 127
2, 174828, Note_on_c, 2, 50, 127
2, 175011, Note_off_c, 2, 50, 127
2, 175011, Note_off_c, 0, 72, 127
2, 175014, Note_on_c, 2, 74, 127
2, 175014, Note_on_c, 0, 48, 127
2, 175197, Note_off_c, 0, 48, 127
2, 175197, Note_off_c, 2, 74, 127
2, 175199, Note_on_c, 4, 76, 127
2, 175199, Note_on_c, 7, 55, 127
2, 175338, Note_on_c, 2, 74, 127
2, 175344, Note_off_c, 4, 76, 127
2, 175415, Note_on_c, 4, 76, 127
2, 175428, Note_off_c, 2, 74, 127
2, 175493, Note_on_c, 2, 74, 127
2, 175505, Note_off_c, 4, 76, 127
2, 175570, Note_on_c, 4, 76, 127
2, 175570, Note_on_c, 7, 43, 127
2, 175583, Note_off_c, 2, 74, 127
2, 175647, Note_on_c, 2, 74, 127
2, 175660, Note_off_c, 4, 76, 127
2, 175737, Note_off_c, 2, 74, 127
2, 175755, Note_on_c, 0, 72, 127
2, 175932, Note_off_c, 7, 55, 127
2, 175938, Note_off_c, 0, 72, 127
2, 175938, Note_off_c, 7, 43, 127
2, 175941, Note_on_c, 0, 72, 127
2, 175941, Note_on_c, 0, 48, 127
2, 176310, Note_on_c, 0, 36, 127
2, 176680, Note_on_c, 7, 43, 127
2, 177047, Note_off_c, 7, 43, 127
2, 177048, Note_off_c, 0, 48, 127
2, 177050, Note_on_c, 7, 67, 127
2, 177050, Note_on_c, 4, 64, 127
2, 177050, Note_on_c, 0, 48, 127
2, 177788, Note_off_c, 4, 64, 127
2, 177788, Note_off_c, 7, 67, 127
2, 177790, Note_off_c, 0, 72, 127
2, 177790, Note_on_c, 4, 76, 127
2, 178157, Note_off_c, 4, 76, 127
2, 178158, Note_off_c, 0, 48, 127
2, 178159, Note_off_c, 0, 36, 127
2, 178160, Note_on_c, 7, 67, 127
2, 178160, Note_on_c, 0, 48, 127
2, 178253, Note_on_c, 0, 72, 127
2, 178343, Note_off_c, 0, 48, 127
2, 178346, Note_on_c, 4, 76, 127
2, 178346, Note_on_c, 7, 55, 127
2, 178529, Note_off_c, 7, 55, 127
2, 178531, Note_on_c, 0, 60, 127
2, 178700, Note_off_c, 7, 67, 127
2, 178701, Note_off_c, 0, 72, 127
2, 178714, Note_off_c, 4, 76, 127
2, 178716, Note_on_c, 5, 77, 127
2, 178899, Note_off_c, 5, 77, 127
2, 178902, Note_on_c, 4, 76, 127
2, 179085, Note_off_c, 4, 76, 127
2, 179085, Note_off_c, 0, 60, 127
2, 179087, Note_on_c, 2, 74, 127
2, 179087, Note_on_c, 2, 62, 127
2, 179270, Note_off_c, 2, 62, 127
2, 179270, Note_off_c, 2, 74, 127
2, 179273, Note_on_c, 0, 72, 127
2, 179273, Note_on_c, 4, 64, 127
2, 179456, Note_off_c, 4, 64, 127
2, 179456, Note_off_c, 0, 72, 127
2, 179458, Note_on_c, 12, 71, 127
2, 179458, Note_on_c, 5, 65, 127
2, 179641, Note_off_c, 5, 65, 127
2, 179641, Note_off_c, 12, 71, 127
2, 179643, Note_on_c, 0, 72, 127
2, 179643, Note_on_c, 4, 64, 127
2, 179826, Note_off_c, 4, 64, 127
2, 179826, Note_off_c, 0, 72, 127
2, 179829, Note_on_c, 10, 69, 127
2, 179829, Note_on_c, 0, 60, 127
2, 180012, Note_off_c, 0, 60, 127
2, 180012, Note_off_c, 10, 69, 127
2, 180014, Note_on_c, 7, 79, 127
2, 180014, Note_on_c, 10, 57, 127
2, 180197, Note_off_c, 10, 57, 127
2, 180197, Note_off_c, 7, 79, 127
2, 180200, Note_on_c, 6, 78, 127
2, 180200, Note_on_c, 2, 62, 127
2, 180383, Note_off_c, 2, 62, 127
2, 180383, Note_off_c, 6, 78, 127
2, 180385, Note_on_c, 10, 81, 127
2, 180385, Note_on_c, 12, 59, 127
2, 180458, Note_on_c, 7, 79, 127
2, 180475, Note_off_c, 10, 81, 127
2, 180531, Note_on_c, 10, 81, 127
2, 180548, Note_off_c, 7, 79, 127
2, 180568, Note_off_c, 12, 59, 127
2, 180570, Note_on_c, 0, 60, 127
2, 180605, Note_on_c, 7, 79, 127
2, 180622, Note_off_c, 10, 81, 127
2, 180679, Note_on_c, 10, 81, 127
2, 180695, Note_off_c, 7, 79, 127
2, 180752, Note_on_c, 7, 79, 127
2, 180753, Note_off_c, 0, 60, 127
2, 180756, Note_on_c, 12, 59, 127
2, 180769, Note_off_c, 10, 81, 127
2, 180939, Note_off_c, 12, 59, 127
2, 180941, Note_on_c, 10, 81, 127
2, 180941, Note_on_c, 10, 57, 127
2, 180956, Note_off_c, 7, 79, 127
2, 181124, Note_off_c, 10, 57, 127
2, 181124, Note_off_c, 10, 81, 127
2, 181127, Note_on_c, 12, 83, 127
2, 181127, Note_on_c, 7, 55, 127
2, 181310, Note_off_c, 7, 55, 127
2, 181312, Note_on_c, 6, 54, 127
2, 181495, Note_off_c, 6, 54, 127
2, 181495, Note_off_c, 12, 83, 127
2, 181497, Note_on_c, 12, 71, 127
2, 181497, Note_on_c, 4, 52, 127
2, 181680, Note_off_c, 4, 52, 127
2, 181683, Note_on_c, 3, 51, 127
2, 181865, Note_off_c, 12, 71, 127
2, 181866, Note_off_c, 3, 51, 127
2, 181868, Note_on_c, 12, 71, 127
2, 181868, Note_on_c, 4, 52, 127
2, 182051, Note_off_c, 4, 52, 127
2, 182051, Note_off_c, 12, 71, 127
2, 182054, Note_on_c, 0, 72, 127
2, 182054, Note_on_c, 10, 45, 127
2, 182237, Note_off_c, 10, 45, 127
2, 182239, Note_on_c, 10, 57, 127
2, 182401, Note_off_c, 0, 72, 127
2, 182423, Note_on_c, 2, 74, 127
2, 182606, Note_off_c, 2, 74, 127
2, 182609, Note_on_c, 0, 72, 127
2, 182782, Note_off_c, 10, 57, 127
2, 182794, Note_on_c, 12, 71, 127
2, 182794, Note_on_c, 6, 54, 127
2, 182819, Note_off_c, 0, 72, 127
2, 182977, Note_off_c, 6, 54, 127
2, 182980, Note_on_c, 3, 51, 127
2, 183141, Note_off_c, 12, 71, 127
2, 183163, Note_off_c, 3, 51, 127
2, 183165, Note_on_c, 10, 81, 127
2, 183165, Note_on_c, 6, 78, 127
2, 183165, Note_on_c, 12, 47, 127
2, 183348, Note_off_c, 12, 47, 127
2, 183348, Note_off_c, 10, 81, 127
2, 183350, Note_on_c, 7, 79, 127
2, 183350, Note_on_c, 4, 52, 127
2, 183531, Note_off_c, 6, 78, 127
2, 183536, Note_on_c, 4, 76, 127
2, 183718, Note_off_c, 4, 52, 127
2, 183721, Note_on_c, 10, 57, 127
2, 183890, Note_off_c, 7, 79, 127
2, 183907, Note_on_c, 6, 78, 127
2, 184089, Note_off_c, 10, 57, 127
2, 184090, Note_off_c, 6, 78, 127
2, 184092, Note_on_c, 7, 79, 127
2, 184092, Note_on_c, 12, 59, 127
2, 184165, Note_on_c, 6, 78, 127
2, 184182, Note_off_c, 7, 79, 127
2, 184238, Note_on_c, 7, 79, 127
2, 184255, Note_off_c, 6, 78, 127
2, 184269, Note_off_c, 4, 76, 127
2, 184311, Note_on_c, 6, 78, 127
2, 184328, Note_off_c, 7, 79, 127
2, 184459, Note_off_c, 12, 59, 127
2, 184462, Note_on_c, 3, 75, 127
2, 184462, Note_on_c, 12, 47, 127
2, 184629, Note_off_c, 6, 78, 127
2, 184647, Note_on_c, 4, 76, 127
2, 184828, Note_off_c, 3, 75, 127
2, 184830, Note_off_c, 4, 76, 127
2, 184830, Note_off_c, 12, 47, 127
2, 184833, Note_on_c, 4, 76, 127
2, 184833, Note_on_c, 4, 52, 127
2, 185018, Note_on_c, 12, 71, 127
2, 185203, Note_on_c, 8, 68, 127
2, 185387, Note_off_c, 4, 52, 127
2, 185389, Note_on_c, 3, 51, 127
2, 185572, Note_off_c, 3, 51, 127
2, 185574, Note_on_c, 4, 52, 127
2, 185757, Note_off_c, 4, 52, 127
2, 185760, Note_on_c, 6, 54, 127
2, 185943, Note_off_c, 6, 54, 127
2, 185945, Note_on_c, 8, 56, 127
2, 186128, Note_off_c, 8, 56, 127
2, 186130, Note_on_c, 10, 57, 127
2, 186311, Note_off_c, 12, 71, 127
2, 186313, Note_off_c, 10, 57, 127
2, 186314, Note_off_c, 4, 76, 127
2, 186316, Note_on_c, 8, 56, 127
2, 186498, Note_off_c, 8, 68, 127
2, 186499, Note_off_c, 8, 56, 127
2, 186501, Note_on_c, 4, 76, 127
2, 186501, Note_on_c, 12, 59, 127
2, 186684, Note_off_c, 12, 59, 127
2, 186684, Note_off_c, 4, 76, 127
2, 186687, Note_on_c, 6, 78, 127
2, 186687, Note_on_c, 2, 50, 127
2, 186870, Note_off_c, 6, 78, 127
2, 186872, Note_on_c, 8, 80, 127
2, 187055, Note_off_c, 8, 80, 127
2, 187055, Note_off_c, 2, 50, 127
2, 187057, Note_on_c, 8, 80, 127
2, 187057, Note_on_c, 1, 49, 127
2, 187240, Note_off_c, 8, 80, 127
2, 187243, Note_on_c, 10, 81, 127
2, 187243, Note_on_c, 4, 52, 127
2, 187426, Note_off_c, 4, 52, 127
2, 187428, Note_on_c, 5, 53, 127
2, 187611, Note_off_c, 5, 53, 127
2, 187611, Note_off_c, 10, 81, 127
2, 187614, Note_on_c, 12, 71, 127
2, 187614, Note_on_c, 7, 55, 127
2, 187797, Note_off_c, 7, 55, 127
2, 187797, Note_off_c, 12, 71, 127
2, 187799, Note_on_c, 1, 73, 127
2, 187799, Note_on_c, 10, 57, 127
2, 187982, Note_off_c, 10, 57, 127
2, 187982, Note_off_c, 1, 73, 127
2, 187984, Note_on_c, 2, 74, 127
2, 187984, Note_on_c, 7, 55, 127
2, 188167, Note_off_c, 7, 55, 127
2, 188167, Note_off_c, 2, 74, 127
2, 188170, Note_on_c, 4, 76, 127
2, 188170, Note_on_c, 11, 58, 127
2, 188353, Note_off_c, 4, 76, 127
2, 188355, Note_on_c, 5, 77, 127
2, 188538, Note_off_c, 5, 77, 127
2, 188538, Note_off_c, 1, 49, 127
2, 188541, Note_on_c, 4, 76, 127
2, 188541, Note_on_c, 2, 50, 127
2, 188724, Note_off_c, 4, 76, 127
2, 188726, Note_on_c, 7, 79, 127
2, 188903, Note_off_c, 11, 58, 127
2, 188909, Note_off_c, 7, 79, 127
2, 188909, Note_off_c, 2, 50, 127
2, 188911, Note_on_c, 11, 70, 127
2, 188911, Note_on_c, 1, 49, 127
2, 189094, Note_off_c, 11, 70, 127
2, 189097, Note_on_c, 10, 69, 127
2, 189279, Note_off_c, 1, 49, 127
2, 189280, Note_off_c, 10, 69, 127
2, 189282, Note_on_c, 4, 76, 127
2, 189282, Note_on_c, 2, 50, 127
2, 189465, Note_off_c, 2, 50, 127
2, 189465, Note_off_c, 4, 76, 127
2, 189468, Note_on_c, 5, 77, 127
2, 189468, Note_on_c, 1, 49, 127
2, 189651, Note_off_c, 1, 49, 127
2, 189653, Note_on_c, 2, 50, 127
2, 189836, Note_off_c, 2, 50, 127
2, 189836, Note_off_c, 5, 77, 127
2, 189838, Note_on_c, 4, 76, 127
2, 189838, Note_on_c, 4, 52, 127
2, 190021, Note_off_c, 4, 52, 127
2, 190021, Note_off_c, 4, 76, 127
2, 190024, Note_on_c, 2, 74, 127
2, 190024, Note_on_c, 5, 53, 127
2, 190207, Note_off_c, 5, 53, 127
2, 190207, Note_off_c, 2, 74, 127
2, 190209, Note_on_c, 0, 72, 127
2, 190209, Note_on_c, 4, 52, 127
2, 190392, Note_off_c, 4, 52, 127
2, 190392, Note_off_c, 0, 72, 127
2, 190395, Note_on_c, 11, 70, 127
2, 190395, Note_on_c, 2, 50, 127
2, 190578, Note_off_c, 11, 70, 127
2, 190580, Note_on_c, 10, 69, 127
2, 190763, Note_off_c, 10, 69, 127
2, 190763, Note_off_c, 2, 50, 127
2, 190765, Note_on_c, 11, 70, 127
2, 190765, Note_on_c, 2, 62, 127
2, 190855, Note_off_c, 2, 62, 127
2, 190855, Note_off_c, 11, 70, 127
2, 190858, Note_on_c, 10, 69, 127
2, 190858, Note_on_c, 1, 61, 127
2, 190948, Note_off_c, 1, 61, 127
2, 190948, Note_off_c, 10, 69, 127
2, 190951, Note_on_c, 7, 67, 127
2, 190951, Note_on_c, 2, 62, 127
2, 191134, Note_off_c, 7, 67, 127
2, 191136, Note_on_c, 4, 76, 127
2, 191319, Note_off_c, 2, 62, 127
2, 191322, Note_on_c, 7, 67, 127
2, 191322, Note_on_c, 4, 64, 127
2, 191505, Note_off_c, 4, 64, 127
2, 191505, Note_off_c, 7, 67, 127
2, 191507, Note_on_c, 6, 66, 127
2, 191507, Note_on_c, 2, 62, 127
2, 191646, Note_on_c, 0, 60, 127
2, 191650, Note_off_c, 2, 62, 127
2, 191676, Note_off_c, 4, 76, 127
2, 191692, Note_on_c, 10, 69, 127
2, 191727, Note_on_c, 2, 62, 127
2, 191736, Note_off_c, 0, 60, 127
2, 191808, Note_on_c, 0, 60, 127
2, 191816, Note_off_c, 2, 62, 127
2, 191874, Note_off_c, 10, 69, 127
2, 191877, Note_on_c, 2, 74, 127
2, 191888, Note_on_c, 2, 62, 127
2, 191897, Note_off_c, 0, 60, 127
2, 191968, Note_on_c, 0, 60, 127
2, 191977, Note_off_c, 2, 62, 127
2, 192044, Note_off_c, 6, 66, 127
2, 192049, Note_on_c, 12, 59, 127
2, 192057, Note_off_c, 0, 60, 127
2, 192060, Note_on_c, 8, 68, 127
2, 192232, Note_off_c, 12, 59, 127
2, 192243, Note_off_c, 8, 68, 127
2, 192245, Note_on_c, 10, 69, 127
2, 192245, Note_on_c, 10, 57, 127
2, 192415, Note_off_c, 2, 74, 127
2, 192431, Note_on_c, 4, 76, 127
2, 192613, Note_off_c, 10, 57, 127
2, 192614, Note_off_c, 4, 76, 127
2, 192616, Note_on_c, 0, 72, 127
2, 192616, Note_on_c, 2, 50, 127
2, 192799, Note_off_c, 0, 72, 127
2, 192802, Note_on_c, 12, 71, 127
2, 192978, Note_off_c, 10, 69, 127
2, 192984, Note_off_c, 2, 50, 127
2, 192985, Note_off_c, 12, 71, 127
2, 192987, Note_on_c, 8, 68, 127
2, 192987, Note_on_c, 0, 72, 127
2, 192987, Note_on_c, 4, 52, 127
2, 193133, Note_off_c, 0, 72, 127
2, 193133, Note_on_c, 12, 71, 127
2, 193211, Note_on_c, 0, 72, 127
2, 193223, Note_off_c, 12, 71, 127
2, 193288, Note_on_c, 12, 71, 127
2, 193301, Note_off_c, 0, 72, 127
2, 193354, Note_off_c, 4, 52, 127
2, 193357, Note_on_c, 4, 40, 127
2, 193364, Note_on_c, 0, 72, 127
2, 193377, Note_off_c, 12, 71, 127
2, 193441, Note_on_c, 12, 71, 127
2, 193454, Note_off_c, 0, 72, 127
2, 193531, Note_off_c, 12, 71, 127
2, 193541, Note_on_c, 10, 69, 127
2, 193718, Note_off_c, 8, 68, 127
2, 193724, Note_off_c, 10, 69, 127
2, 193724, Note_off_c, 4, 40, 127
2, 193727, Note_on_c, 10, 69, 127
2, 193727, Note_on_c, 10, 45, 127
2, 194167, Note_on_c, 0, 48, 127
2, 194605, Note_off_c, 0, 48, 127
2, 194608, Note_on_c, 4, 52, 127
2, 195046, Note_off_c, 4, 52, 127
2, 195049, Note_on_c, 4, 64, 127
2, 195049, Note_on_c, 0, 60, 127
2, 195049, Note_on_c, 10, 57, 127
2, 197241, Note_off_c, 10, 45, 127
2, 197241, Note_off_c, 10, 69, 127
2, 197254, Note_off_c, 10, 57, 127
2, 197254, Note_off_c, 0, 60, 127
2, 197254, Note_off_c, 4, 64, 127
2, 199019, Note_on_c, 10, 69, 127
2, 199019, Note_on_c, 10, 57, 127
2, 199159, Note_on_c, 0, 72, 127
2, 199268, Note_on_c, 2, 74, 127
2, 199377, Note_on_c, 4, 76, 127
2, 199453, Note_off_c, 2, 74, 127
2, 199591, Note_off_c, 4, 76, 127
2, 199612, Note_on_c, 4, 76, 127
2, 199778, Note_off_c, 4, 76, 127
2, 199801, Note_off_c, 10, 69, 127
2, 199810, Note_on_c, 10, 69, 127
2, 199810, Note_on_c, 0, 72, 127
2, 199810, Note_on_c, 4, 76, 127
2, 199810, Note_on_c, 10, 45, 127
2, 199822, Note_off_c, 0, 72, 127
2, 199892, Note_off_c, 0, 72, 127
2, 199892, Note_on_c, 12, 71, 127
2, 199974, Note_off_c, 12, 71, 127
2, 199975, Note_on_c, 0, 72, 127
2, 200598, Note_off_c, 10, 45, 127
2, 200599, Note_off_c, 10, 57, 127
2, 200601, Note_on_c, 10, 57, 127
2, 200994, Note_off_c, 4, 76, 127
2, 200996, Note_on_c, 5, 77, 127
2, 201365, Note_off_c, 0, 72, 127
2, 201389, Note_off_c, 5, 77, 127
2, 201390, Note_off_c, 10, 69, 127
2, 201392, Note_on_c, 5, 65, 127
2, 201392, Note_on_c, 12, 71, 127
2, 201392, Note_on_c, 2, 74, 127
2, 201983, Note_off_c, 2, 74, 127
2, 201983, Note_off_c, 5, 65, 127
2, 201985, Note_on_c, 2, 74, 127
2, 202181, Note_off_c, 10, 57, 127
2, 202183, Note_on_c, 4, 64, 127
2, 202183, Note_on_c, 8, 56, 127
2, 202279, Note_off_c, 12, 71, 127
2, 202302, Note_on_c, 12, 71, 127
2, 202366, Note_off_c, 2, 74, 127
2, 202422, Note_on_c, 0, 72, 127
2, 202541, Note_on_c, 2, 74, 127
2, 202607, Note_off_c, 0, 72, 127
2, 202965, Note_off_c, 8, 56, 127
2, 202974, Note_on_c, 6, 54, 127
2, 203358, Note_off_c, 2, 74, 127
2, 203367, Note_off_c, 6, 54, 127
2, 203369, Note_on_c, 4, 76, 127
2, 203369, Note_on_c, 4, 52, 127
2, 203758, Note_off_c, 12, 71, 127
2, 203762, Note_off_c, 4, 52, 127
2, 203762, Note_off_c, 4, 76, 127
2, 203763, Note_off_c, 4, 64, 127
2, 203765, Note_on_c, 10, 69, 127
2, 203765, Note_on_c, 4, 64, 127
2, 203765, Note_on_c, 0, 72, 127
2, 203765, Note_on_c, 10, 57, 127
2, 204553, Note_off_c, 10, 57, 127
2, 204553, Note_off_c, 4, 64, 127
2, 204556, Note_on_c, 2, 62, 127
2, 204556, Note_on_c, 5, 53, 127
2, 204630, Note_off_c, 10, 69, 127
2, 204659, Note_on_c, 8, 68, 127
2, 204753, Note_off_c, 0, 72, 127
2, 204762, Note_on_c, 12, 71, 127
2, 204865, Note_on_c, 10, 69, 127
2, 204895, Note_off_c, 12, 71, 127
2, 204968, Note_on_c, 12, 71, 127
2, 205029, Note_off_c, 10, 69, 127
2, 205299, Note_off_c, 12, 71, 127
2, 205342, Note_off_c, 8, 68, 127
2, 205344, Note_off_c, 5, 53, 127
2, 205344, Note_off_c, 2, 62, 127
2, 205347, Note_on_c, 0, 60, 127
2, 205347, Note_on_c, 6, 66, 127
2, 205347, Note_on_c, 12, 71, 127
2, 205347, Note_on_c, 3, 51, 127
2, 205542, Note_off_c, 12, 71, 127
2, 205545, Note_on_c, 10, 69, 127
2, 205740, Note_off_c, 10, 69, 127
2, 205743, Note_on_c, 8, 68, 127
2, 205938, Note_off_c, 8, 68, 127
2, 205940, Note_on_c, 10, 69, 127
2, 206129, Note_off_c, 6, 66, 127
2, 206129, Note_off_c, 0, 60, 127
2, 206135, Note_off_c, 10, 69, 127
2, 206135, Note_off_c, 3, 51, 127
2, 206138, Note_on_c, 10, 69, 127
2, 206138, Note_on_c, 4, 64, 127
2, 206138, Note_on_c, 12, 59, 127
2, 206138, Note_on_c, 4, 52, 127
2, 206336, Note_on_c, 8, 68, 127
2, 206337, Note_off_c, 10, 69, 127
2, 206435, Note_on_c, 10, 69, 127
2, 206459, Note_off_c, 8, 68, 127
2, 206534, Note_on_c, 8, 68, 127
2, 206558, Note_off_c, 10, 69, 127
2, 206633, Note_on_c, 10, 69, 127
2, 206657, Note_off_c, 8, 68, 127
2, 206731, Note_on_c, 8, 68, 127
2, 206756, Note_off_c, 10, 69, 127
2, 206926, Note_off_c, 4, 52, 127
2, 206929, Note_on_c, 4, 40, 127
2, 207325, Note_on_c, 6, 66, 127
2, 207326, Note_off_c, 4, 64, 127
2, 207332, Note_off_c, 8, 68, 127
2, 207717, Note_off_c, 4, 40, 127
2, 207718, Note_off_c, 6, 66, 127
2, 207718, Note_off_c, 12, 59, 127
2, 207720, Note_on_c, 4, 64, 127
2, 207720, Note_on_c, 4, 52, 127
2, 208113, Note_off_c, 4, 52, 127
2, 208116, Note_on_c, 2, 50, 127
2, 208508, Note_off_c, 4, 64, 127
2, 208509, Note_off_c, 2, 50, 127
2, 208511, Note_on_c, 10, 69, 127
2, 208511, Note_on_c, 1, 49, 127
2, 208620, Note_on_c, 5, 77, 127
2, 208716, Note_off_c, 5, 77, 127
2, 208730, Note_on_c, 4, 76, 127
2, 208826, Note_off_c, 4, 76, 127
2, 208839, Note_on_c, 2, 74, 127
2, 208935, Note_off_c, 2, 74, 127
2, 208948, Note_on_c, 4, 76, 127
2, 209105, Note_on_c, 7, 79, 127
2, 209143, Note_off_c, 4, 76, 127
2, 209293, Note_off_c, 10, 69, 127
2, 209299, Note_off_c, 1, 49, 127
2, 209302, Note_on_c, 1, 73, 127
2, 209302, Note_on_c, 10, 45, 127
2, 210090, Note_off_c, 10, 45, 127
2, 210093, Note_on_c, 10, 57, 127
2, 210485, Note_off_c, 7, 79, 127
2, 210489, Note_on_c, 10, 81, 127
2, 210881, Note_off_c, 10, 57, 127
2, 210882, Note_off_c, 10, 81, 127
2, 210882, Note_off_c, 1, 73, 127
2, 210884, Note_on_c, 10, 69, 127
2, 210884, Note_on_c, 7, 79, 127
2, 210884, Note_on_c, 2, 50, 127
2, 211079, Note_off_c, 7, 79, 127
2, 211082, Note_on_c, 5, 77, 127
2, 211277, Note_off_c, 5, 77, 127
2, 211280, Note_on_c, 4, 76, 127
2, 211475, Note_off_c, 4, 76, 127
2, 211478, Note_on_c, 2, 74, 127
2, 211666, Note_off_c, 10, 69, 127
2, 211672, Note_off_c, 2, 50, 127
2, 211673, Note_off_c, 2, 74, 127
2, 211675, Note_on_c, 7, 67, 127
2, 211675, Note_on_c, 0, 72, 127
2, 211675, Note_on_c, 4, 52, 127
2, 212463, Note_off_c, 4, 52, 127
2, 212463, Note_off_c, 0, 72, 127
2, 212466, Note_on_c, 0, 72, 127
2, 212466, Note_on_c, 5, 53, 127
2, 212661, Note_off_c, 0, 72, 127
2, 212664, Note_on_c, 12, 71, 127
2, 212859, Note_off_c, 12, 71, 127
2, 212859, Note_off_c, 7, 67, 127
2, 212862, Note_on_c, 10, 69, 127
2, 213057, Note_off_c, 10, 69, 127
2, 213060, Note_on_c, 7, 67, 127
2, 213254, Note_off_c, 5, 53, 127
2, 213255, Note_off_c, 7, 67, 127
2, 213257, Note_on_c, 0, 72, 127
2, 213257, Note_on_c, 4, 52, 127
2, 213455, Note_on_c, 12, 71, 127
2, 213551, Note_off_c, 12, 71, 127
2, 213554, Note_on_c, 10, 69, 127
2, 213650, Note_off_c, 10, 69, 127
2, 213653, Note_on_c, 7, 67, 127
2, 213848, Note_off_c, 7, 67, 127
2, 213851, Note_on_c, 5, 65, 127
2, 214045, Note_off_c, 4, 52, 127
2, 214046, Note_off_c, 5, 65, 127
2, 214049, Note_on_c, 4, 64, 127
2, 214049, Note_on_c, 5, 53, 127
2, 214442, Note_off_c, 4, 64, 127
2, 214444, Note_on_c, 4, 64, 127
2, 214837, Note_off_c, 4, 64, 127
2, 214837, Note_off_c, 5, 53, 127
2, 214840, Note_on_c, 2, 62, 127
2, 214840, Note_on_c, 7, 55, 127
2, 215234, Note_off_c, 0, 72, 127
2, 215235, Note_on_c, 12, 71, 127
2, 215622, Note_off_c, 2, 62, 127
2, 215628, Note_off_c, 12, 71, 127
2, 215628, Note_off_c, 7, 55, 127
2, 215631, Note_on_c, 0, 72, 127
2, 215631, Note_on_c, 4, 64, 127
2, 215631, Note_on_c, 0, 48, 127
2, 215713, Note_on_c, 12, 47, 127
2, 215727, Note_off_c, 0, 48, 127
2, 215795, Note_on_c, 0, 48, 127
2, 215809, Note_off_c, 12, 47, 127
2, 215878, Note_on_c, 5, 65, 127
2, 215981, Note_on_c, 7, 67, 127
2, 216028, Note_off_c, 5, 65, 127
2, 216222, Note_off_c, 0, 72, 127
2, 216224, Note_on_c, 0, 72, 127
2, 216390, Note_off_c, 7, 67, 127
2, 216413, Note_off_c, 4, 64, 127
2, 216419, Note_off_c, 0, 72, 127
2, 216422, Note_on_c, 7, 67, 127
2, 216422, Note_on_c, 4, 64, 127
2, 216422, Note_on_c, 0, 72, 127
2, 216422, Note_on_c, 0, 36, 127
2, 216577, Note_off_c, 0, 48, 127
2, 218002, Note_off_c, 0, 36, 127
2, 218002, Note_off_c, 0, 72, 127
2, 218002, Note_off_c, 4, 64, 127
2, 218002, Note_off_c, 7, 67, 127
2, 218004, Note_on_c, 7, 67, 127
2, 218004, Note_on_c, 0, 60, 127
2, 218103, Note_on_c, 0, 72, 127
2, 218201, Note_on_c, 2, 74, 127
2, 218300, Note_on_c, 4, 76, 127
2, 218386, Note_off_c, 2, 74, 127
2, 218588, Note_off_c, 4, 76, 127
2, 218597, Note_on_c, 4, 76, 127
2, 218776, Note_off_c, 4, 76, 127
2, 218786, Note_off_c, 0, 72, 127
2, 218786, Note_off_c, 7, 67, 127
2, 218792, Note_off_c, 0, 60, 127
2, 218795, Note_on_c, 0, 72, 127
2, 218795, Note_on_c, 4, 76, 127
2, 218795, Note_on_c, 7, 67, 127
2, 218795, Note_on_c, 0, 48, 127
2, 219583, Note_off_c, 0, 48, 127
2, 219586, Note_on_c, 0, 60, 127
2, 219979, Note_off_c, 4, 76, 127
2, 219981, Note_on_c, 6, 78, 127
2, 220374, Note_off_c, 6, 78, 127
2, 220374, Note_off_c, 0, 60, 127
2, 220375, Note_off_c, 7, 67, 127
2, 220375, Note_off_c, 0, 72, 127
2, 220377, Note_on_c, 2, 74, 127
2, 220377, Note_on_c, 7, 79, 127
2, 220377, Note_on_c, 12, 59, 127
2, 220869, Note_off_c, 7, 79, 127
2, 220871, Note_on_c, 10, 81, 127
2, 220967, Note_off_c, 10, 81, 127
2, 220970, Note_on_c, 7, 79, 127
2, 221066, Note_off_c, 7, 79, 127
2, 221069, Note_on_c, 6, 78, 127
2, 221159, Note_off_c, 2, 74, 127
2, 221165, Note_off_c, 6, 78, 127
2, 221168, Note_on_c, 6, 78, 127
2, 221168, Note_on_c, 2, 74, 127
2, 221168, Note_on_c, 12, 47, 127
2, 221561, Note_off_c, 6, 78, 127
2, 221563, Note_on_c, 7, 79, 127
2, 221646, Note_on_c, 6, 78, 127
2, 221659, Note_off_c, 7, 79, 127
2, 221728, Note_on_c, 7, 79, 127
2, 221742, Note_off_c, 6, 78, 127
2, 221956, Note_off_c, 12, 47, 127
2, 221957, Note_off_c, 12, 59, 127
2, 221959, Note_on_c, 12, 59, 127
2, 222385, Note_off_c, 7, 79, 127
2, 222396, Note_on_c, 10, 81, 127
2, 222571, Note_off_c, 10, 81, 127
2, 222573, Note_on_c, 12, 83, 127
2, 222748, Note_off_c, 12, 83, 127
2, 222748, Note_off_c, 2, 74, 127
2, 222750, Note_on_c, 0, 72, 127
2, 222750, Note_on_c, 5, 77, 127
2, 223044, Note_off_c, 5, 77, 127
2, 223047, Note_on_c, 4, 76, 127
2, 223143, Note_off_c, 12, 59, 127
2, 223145, Note_on_c, 12, 59, 127
2, 223538, Note_off_c, 12, 59, 127
2, 223539, Note_off_c, 4, 76, 127
2, 223541, Note_on_c, 6, 78, 127
2, 223541, Note_on_c, 10, 57, 127
2, 223637, Note_off_c, 6, 78, 127
2, 223640, Note_on_c, 7, 79, 127
2, 223736, Note_off_c, 7, 79, 127
2, 223739, Note_on_c, 10, 81, 127
2, 223835, Note_off_c, 10, 81, 127
2, 223838, Note_on_c, 7, 79, 127
2, 223934, Note_off_c, 7, 79, 127
2, 223934, Note_off_c, 10, 57, 127
2, 223937, Note_on_c, 6, 78, 127
2, 223937, Note_on_c, 7, 55, 127
2, 224132, Note_off_c, 6, 78, 127
2, 224134, Note_on_c, 7, 79, 127
2, 224329, Note_off_c, 7, 79, 127
2, 224330, Note_off_c, 7, 55, 127
2, 224332, Note_on_c, 10, 81, 127
2, 224332, Note_on_c, 6, 54, 127
2, 224725, Note_off_c, 6, 54, 127
2, 224728, Note_on_c, 10, 57, 127
2, 224923, Note_off_c, 10, 81, 127
2, 224925, Note_on_c, 6, 78, 127
2, 225119, Note_off_c, 0, 72, 127
2, 225120, Note_off_c, 6, 78, 127
2, 225121, Note_off_c, 10, 57, 127
2, 225123, Note_on_c, 12, 71, 127
2, 225123, Note_on_c, 4, 76, 127
2, 225123, Note_on_c, 12, 47, 127
2, 225699, Note_off_c, 4, 76, 127
2, 225716, Note_on_c, 3, 75, 127
2, 225911, Note_off_c, 12, 47, 127
2, 225914, Note_on_c, 12, 59, 127
2, 226334, Note_off_c, 3, 75, 127
2, 226351, Note_on_c, 1, 73, 127
2, 226701, Note_off_c, 1, 73, 127
2, 226702, Note_off_c, 12, 59, 127
2, 226703, Note_off_c, 12, 71, 127
2, 226705, Note_on_c, 12, 71, 127
2, 226705, Note_on_c, 12, 59, 127
2, 226900, Note_off_c, 12, 59, 127
2, 226903, Note_on_c, 10, 57, 127
2, 226999, Note_off_c, 10, 57, 127
2, 227002, Note_on_c, 12, 59, 127
2, 227098, Note_off_c, 12, 59, 127
2, 227101, Note_on_c, 10, 57, 127
2, 227492, Note_off_c, 10, 57, 127
2, 227493, Note_off_c, 12, 71, 127
2, 227496, Note_on_c, 4, 76, 127
2, 227496, Note_on_c, 7, 55, 127
2, 227889, Note_off_c, 7, 55, 127
2, 227892, Note_on_c, 4, 52, 127
2, 228087, Note_off_c, 4, 76, 127
2, 228089, Note_on_c, 6, 78, 127
2, 228185, Note_off_c, 6, 78, 127
2, 228188, Note_on_c, 7, 79, 127
2, 228284, Note_off_c, 7, 79, 127
2, 228285, Note_off_c, 4, 52, 127
2, 228287, Note_on_c, 7, 79, 127
2, 228287, Note_on_c, 4, 64, 127
2, 228680, Note_off_c, 4, 64, 127
2, 228683, Note_on_c, 2, 62, 127
2, 229076, Note_off_c, 2, 62, 127
2, 229078, Note_on_c, 2, 62, 127
2, 229471, Note_off_c, 2, 62, 127
2, 229471, Note_off_c, 7, 79, 127
2, 229474, Note_on_c, 7, 79, 127
2, 229474, Note_on_c, 1, 61, 127
2, 229867, Note_off_c, 1, 61, 127
2, 229867, Note_off_c, 7, 79, 127
2, 229869, Note_on_c, 11, 70, 127
2, 229869, Note_on_c, 1, 61, 127
2, 230090, Note_on_c, 1, 73, 127
2, 230253, Note_on_c, 4, 76, 127
2, 230262, Note_off_c, 1, 61, 127
2, 230265, Note_on_c, 0, 60, 127
2, 230415, Note_on_c, 7, 79, 127
2, 230641, Note_off_c, 7, 79, 127
2, 230644, Note_off_c, 4, 76, 127
2, 230651, Note_off_c, 11, 70, 127
2, 230658, Note_off_c, 0, 60, 127
2, 230660, Note_on_c, 3, 75, 127
2, 230660, Note_on_c, 7, 79, 127
2, 230660, Note_on_c, 10, 69, 127
2, 230660, Note_on_c, 0, 60, 127
2, 230666, Note_off_c, 1, 73, 127
2, 230948, Note_off_c, 7, 79, 127
2, 230957, Note_on_c, 6, 78, 127
2, 231053, Note_off_c, 0, 60, 127
2, 231056, Note_on_c, 12, 59, 127
2, 231442, Note_off_c, 10, 69, 127
2, 231442, Note_off_c, 3, 75, 127
2, 231449, Note_off_c, 12, 59, 127
2, 231451, Note_on_c, 12, 59, 127
2, 231533, Note_off_c, 6, 78, 127
2, 231550, Note_on_c, 7, 79, 127
2, 231646, Note_off_c, 7, 79, 127
2, 231649, Note_on_c, 6, 78, 127
2, 231745, Note_off_c, 6, 78, 127
2, 231748, Note_on_c, 4, 76, 127
2, 231844, Note_off_c, 4, 76, 127
2, 231844, Note_off_c, 12, 59, 127
2, 231847, Note_on_c, 6, 78, 127
2, 231847, Note_on_c, 11, 58, 127
2, 232042, Note_off_c, 6, 78, 127
2, 232045, Note_on_c, 7, 79, 127
2, 232240, Note_off_c, 7, 79, 127
2, 232240, Note_off_c, 11, 58, 127
2, 232242, Note_on_c, 7, 67, 127
2, 232242, Note_on_c, 1, 73, 127
2, 232242, Note_on_c, 11, 58, 127
2, 232635, Note_off_c, 11, 58, 127
2, 232638, Note_on_c, 12, 59, 127
2, 232734, Note_off_c, 1, 73, 127
2, 232737, Note_on_c, 3, 75, 127
2, 232833, Note_off_c, 3, 75, 127
2, 232836, Note_on_c, 1, 73, 127
2, 232932, Note_off_c, 1, 73, 127
2, 232935, Note_on_c, 3, 75, 127
2, 233024, Note_off_c, 7, 67, 127
2, 233031, Note_off_c, 3, 75, 127
2, 233031, Note_off_c, 12, 59, 127
2, 233033, Note_on_c, 4, 76, 127
2, 233033, Note_on_c, 6, 66, 127
2, 233033, Note_on_c, 12, 59, 127
2, 233129, Note_off_c, 12, 59, 127
2, 233132, Note_on_c, 11, 58, 127
2, 233228, Note_off_c, 11, 58, 127
2, 233231, Note_on_c, 12, 59, 127
2, 233525, Note_off_c, 4, 76, 127
2, 233528, Note_on_c, 3, 75, 127
2, 233624, Note_off_c, 3, 75, 127
2, 233627, Note_on_c, 1, 73, 127
2, 233723, Note_off_c, 1, 73, 127
2, 233726, Note_on_c, 3, 75, 127
2, 233822, Note_off_c, 3, 75, 127
2, 233822, Note_off_c, 12, 59, 127
2, 233825, Note_on_c, 4, 76, 127
2, 233825, Note_on_c, 12, 47, 127
2, 233960, Note_off_c, 4, 76, 127
2, 233965, Note_on_c, 3, 75, 127
2, 234043, Note_on_c, 4, 76, 127
2, 234061, Note_off_c, 3, 75, 127
2, 234121, Note_on_c, 3, 75, 127
2, 234139, Note_off_c, 4, 76, 127
2, 234409, Note_off_c, 3, 75, 127
2, 234418, Note_on_c, 4, 76, 127
2, 234613, Note_off_c, 4, 76, 127
2, 234613, Note_off_c, 12, 47, 127
2, 234613, Note_off_c, 6, 66, 127
2, 234616, Note_on_c, 4, 76, 127
2, 234616, Note_on_c, 4, 52, 127
2, 234712, Note_off_c, 4, 52, 127
2, 234714, Note_on_c, 3, 51, 127
2, 234810, Note_off_c, 3, 51, 127
2, 234813, Note_on_c, 12, 71, 127
2, 234813, Note_on_c, 4, 52, 127
2, 235008, Note_off_c, 12, 71, 127
2, 235011, Note_on_c, 7, 67, 127
2, 235206, Note_off_c, 7, 67, 127
2, 235209, Note_on_c, 6, 66, 127
2, 235404, Note_off_c, 6, 66, 127
2, 235407, Note_on_c, 7, 67, 127
2, 235407, Note_on_c, 4, 40, 127
2, 235602, Note_off_c, 7, 67, 127
2, 235604, Note_on_c, 12, 71, 127
2, 235799, Note_off_c, 12, 71, 127
2, 235802, Note_on_c, 3, 75, 127
2, 235996, Note_off_c, 4, 76, 127
2, 235997, Note_off_c, 3, 75, 127
2, 235997, Note_off_c, 4, 52, 127
2, 236000, Note_on_c, 4, 76, 127
2, 236195, Note_off_c, 4, 40, 127
2, 236198, Note_on_c, 4, 64, 127
2, 236198, Note_on_c, 4, 52, 127
2, 236591, Note_off_c, 4, 52, 127
2, 236593, Note_on_c, 2, 50, 127
2, 236986, Note_off_c, 2, 50, 127
2, 236986, Note_off_c, 4, 64, 127
2, 236988, Note_off_c, 4, 76, 127
2, 236989, Note_on_c, 10, 69, 127
2, 236989, Note_on_c, 1, 49, 127
2, 237108, Note_on_c, 4, 76, 127
2, 237228, Note_on_c, 5, 77, 127
2, 237347, Note_on_c, 7, 79, 127
2, 237382, Note_off_c, 1, 49, 127
2, 237384, Note_on_c, 4, 52, 127
2, 237413, Note_off_c, 5, 77, 127
2, 237573, Note_off_c, 7, 79, 127
2, 237582, Note_on_c, 10, 81, 127
2, 237771, Note_off_c, 10, 69, 127
2, 237777, Note_off_c, 10, 81, 127
2, 237777, Note_off_c, 4, 52, 127
2, 237780, Note_on_c, 7, 79, 127
2, 237780, Note_on_c, 1, 73, 127
2, 237780, Note_on_c, 10, 45, 127
2, 237791, Note_off_c, 4, 76, 127
2, 237975, Note_off_c, 7, 79, 127
2, 237977, Note_on_c, 5, 77, 127
2, 238054, Note_on_c, 7, 79, 127
2, 238059, Note_off_c, 5, 77, 127
2, 238130, Note_on_c, 5, 77, 127
2, 238136, Note_off_c, 7, 79, 127
2, 238206, Note_on_c, 7, 79, 127
2, 238212, Note_off_c, 5, 77, 127
2, 238282, Note_on_c, 5, 77, 127
2, 238288, Note_off_c, 7, 79, 127
2, 238568, Note_off_c, 10, 45, 127
2, 238571, Note_on_c, 10, 57, 127
2, 238966, Note_on_c, 4, 76, 127
2, 238986, Note_off_c, 5, 77, 127
2, 239359, Note_off_c, 10, 57, 127
2, 239360, Note_off_c, 1, 73, 127
2, 239362, Note_on_c, 2, 74, 127
2, 239362, Note_on_c, 2, 50, 127
2, 239507, Note_off_c, 4, 76, 127
2, 239560, Note_on_c, 7, 79, 127
2, 239755, Note_off_c, 7, 79, 127
2, 239755, Note_off_c, 2, 50, 127
2, 239757, Note_on_c, 5, 77, 127
2, 239757, Note_on_c, 10, 57, 127
2, 239952, Note_off_c, 5, 77, 127
2, 239955, Note_on_c, 4, 76, 127
2, 240144, Note_off_c, 2, 74, 127
2, 240150, Note_off_c, 4, 76, 127
2, 240150, Note_off_c, 10, 57, 127
2, 240153, Note_on_c, 10, 69, 127
2, 240153, Note_on_c, 4, 76, 127
2, 240153, Note_on_c, 2, 62, 127
2, 240416, Note_off_c, 4, 76, 127
2, 240421, Note_on_c, 5, 77, 127
2, 240546, Note_off_c, 2, 62, 127
2, 240548, Note_on_c, 0, 60, 127
2, 240746, Note_on_c, 4, 76, 127
2, 240754, Note_off_c, 5, 77, 127
2, 240941, Note_off_c, 4, 76, 127
2, 240941, Note_off_c, 0, 60, 127
2, 240944, Note_on_c, 2, 74, 127
2, 240944, Note_on_c, 12, 59, 127
2, 241141, Note_off_c, 10, 69, 127
2, 241142, Note_on_c, 8, 68, 127
2, 241337, Note_off_c, 8, 68, 127
2, 241337, Note_off_c, 12, 59, 127
2, 241339, Note_on_c, 7, 67, 127
2, 241339, Note_on_c, 10, 57, 127
2, 241534, Note_off_c, 7, 67, 127
2, 241537, Note_on_c, 6, 66, 127
2, 241732, Note_off_c, 6, 66, 127
2, 241732, Note_off_c, 10, 57, 127
2, 241735, Note_on_c, 5, 65, 127
2, 241735, Note_on_c, 8, 56, 127
2, 241982, Note_off_c, 5, 65, 127
2, 241982, Note_on_c, 4, 64, 127
2, 242128, Note_off_c, 8, 56, 127
2, 242128, Note_off_c, 2, 74, 127
2, 242130, Note_on_c, 2, 74, 127
2, 242130, Note_on_c, 4, 52, 127
2, 242226, Note_off_c, 2, 74, 127
2, 242229, Note_on_c, 0, 72, 127
2, 242325, Note_off_c, 0, 72, 127
2, 242328, Note_on_c, 12, 71, 127
2, 242523, Note_off_c, 12, 71, 127
2, 242523, Note_off_c, 4, 52, 127
2, 242526, Note_on_c, 12, 71, 127
2, 242526, Note_on_c, 10, 57, 127
2, 242721, Note_off_c, 12, 71, 127
2, 242724, Note_on_c, 0, 72, 127
2, 242919, Note_off_c, 10, 57, 127
2, 242921, Note_on_c, 7, 55, 127
2, 243117, Note_off_c, 0, 72, 127
2, 243119, Note_on_c, 2, 74, 127
2, 243298, Note_off_c, 4, 64, 127
2, 243314, Note_off_c, 2, 74, 127
2, 243314, Note_off_c, 7, 55, 127
2, 243317, Note_on_c, 2, 62, 127
2, 243317, Note_on_c, 0, 72, 127
2, 243317, Note_on_c, 5, 53, 127
2, 243512, Note_off_c, 0, 72, 127
2, 243515, Note_on_c, 12, 71, 127
2, 243581, Note_on_c, 0, 72, 127
2, 243628, Note_off_c, 12, 71, 127
2, 243647, Note_on_c, 12, 71, 127
2, 243694, Note_off_c, 0, 72, 127
2, 243713, Note_on_c, 12, 59, 127
2, 243910, Note_off_c, 12, 71, 127
2, 243910, Note_on_c, 10, 69, 127
2, 244099, Note_off_c, 5, 53, 127
2, 244099, Note_off_c, 2, 62, 127
2, 244105, Note_off_c, 10, 69, 127
2, 244106, Note_off_c, 12, 59, 127
2, 244108, Note_on_c, 4, 64, 127
2, 244108, Note_on_c, 10, 69, 127
2, 244108, Note_on_c, 0, 60, 127
2, 244108, Note_on_c, 4, 52, 127
2, 244896, Note_off_c, 0, 60, 127
2, 244896, Note_off_c, 10, 69, 127
2, 244899, Note_on_c, 10, 69, 127
2, 244899, Note_on_c, 0, 60, 127
2, 244995, Note_off_c, 0, 60, 127
2, 244998, Note_on_c, 8, 68, 127
2, 244998, Note_on_c, 12, 59, 127
2, 245002, Note_off_c, 10, 69, 127
2, 245094, Note_off_c, 12, 59, 127
2, 245097, Note_on_c, 10, 69, 127
2, 245097, Note_on_c, 0, 60, 127
2, 245101, Note_off_c, 8, 68, 127
2, 245193, Note_off_c, 0, 60, 127
2, 245196, Note_on_c, 8, 68, 127
2, 245196, Note_on_c, 12, 59, 127
2, 245200, Note_off_c, 10, 69, 127
2, 245463, Note_off_c, 12, 59, 127
2, 245469, Note_off_c, 8, 68, 127
2, 245472, Note_on_c, 10, 57, 127
2, 245472, Note_on_c, 6, 66, 127
2, 245686, Note_off_c, 6, 66, 127
2, 245688, Note_off_c, 10, 57, 127
2, 245688, Note_off_c, 4, 64, 127
2, 245690, Note_on_c, 4, 64, 127
2, 245690, Note_on_c, 12, 59, 127
2, 245690, Note_on_c, 8, 56, 127
2, 246085, Note_off_c, 4, 52, 127
2, 246086, Note_on_c, 2, 50, 127
2, 246472, Note_off_c, 8, 56, 127
2, 246478, Note_off_c, 12, 59, 127
2, 246478, Note_off_c, 4, 64, 127
2, 246479, Note_off_c, 2, 50, 127
2, 246481, Note_on_c, 10, 57, 127
2, 246481, Note_on_c, 1, 49, 127
2, 246580, Note_on_c, 4, 64, 127
2, 246679, Note_on_c, 5, 65, 127
2, 246778, Note_on_c, 7, 67, 127
2, 246864, Note_off_c, 5, 65, 127
2, 246874, Note_off_c, 1, 49, 127
2, 246877, Note_on_c, 12, 47, 127
2, 247066, Note_off_c, 7, 67, 127
2, 247074, Note_on_c, 7, 67, 127
2, 247263, Note_off_c, 4, 64, 127
2, 247263, Note_off_c, 10, 57, 127
2, 247269, Note_off_c, 7, 67, 127
2, 247270, Note_off_c, 12, 47, 127
2, 247272, Note_on_c, 10, 57, 127
2, 247272, Note_on_c, 4, 64, 127
2, 247272, Note_on_c, 7, 67, 127
2, 247272, Note_on_c, 1, 49, 127
2, 247665, Note_off_c, 1, 49, 127
2, 247668, Note_on_c, 4, 52, 127
2, 248061, Note_off_c, 4, 52, 127
2, 248063, Note_on_c, 10, 45, 127
2, 248456, Note_off_c, 10, 45, 127
2, 248456, Note_off_c, 7, 67, 127
2, 248456, Note_off_c, 4, 64, 127
2, 248456, Note_off_c, 10, 57, 127
2, 248459, Note_on_c, 6, 66, 127
2, 248459, Note_on_c, 12, 47, 127
2, 248654, Note_off_c, 6, 66, 127
2, 248657, Note_on_c, 4, 64, 127
2, 248852, Note_off_c, 12, 47, 127
2, 248854, Note_on_c, 10, 57, 127
2, 248854, Note_on_c, 0, 48, 127
2, 248916, Note_off_c, 4, 64, 127
2, 248953, Note_on_c, 2, 62, 127
2, 249052, Note_on_c, 4, 64, 127
2, 249151, Note_on_c, 6, 66, 127
2, 249237, Note_off_c, 4, 64, 127
2, 249247, Note_off_c, 0, 48, 127
2, 249250, Note_on_c, 4, 52, 127
2, 249439, Note_off_c, 6, 66, 127
2, 249448, Note_on_c, 8, 68, 127
2, 249636, Note_off_c, 2, 62, 127
2, 249636, Note_off_c, 10, 57, 127
2, 249643, Note_off_c, 8, 68, 127
2, 249643, Note_off_c, 4, 52, 127
2, 249645, Note_on_c, 12, 59, 127
2, 249645, Note_on_c, 10, 69, 127
2, 249645, Note_on_c, 2, 50, 127
2, 249842, Note_off_c, 10, 69, 127
2, 249843, Note_on_c, 8, 68, 127
2, 249919, Note_on_c, 10, 69, 127
2, 249939, Note_off_c, 8, 68, 127
2, 249996, Note_on_c, 8, 68, 127
2, 250015, Note_off_c, 10, 69, 127
2, 250038, Note_off_c, 2, 50, 127
2, 250041, Note_on_c, 5, 53, 127
2, 250072, Note_on_c, 10, 69, 127
2, 250092, Note_off_c, 8, 68, 127
2, 250148, Note_on_c, 8, 68, 127
2, 250168, Note_off_c, 10, 69, 127
2, 250434, Note_off_c, 5, 53, 127
2, 250436, Note_on_c, 4, 52, 127
2, 250821, Note_off_c, 8, 68, 127
2, 250829, Note_off_c, 4, 52, 127
2, 250832, Note_on_c, 8, 68, 127
2, 250832, Note_on_c, 2, 50, 127
2, 251225, Note_off_c, 2, 50, 127
2, 251225, Note_off_c, 8, 68, 127
2, 251225, Note_off_c, 12, 59, 127
2, 251227, Note_on_c, 10, 69, 127
2, 251227, Note_on_c, 0, 48, 127
2, 251347, Note_on_c, 8, 68, 127
2, 251443, Note_off_c, 8, 68, 127
2, 251466, Note_on_c, 6, 66, 127
2, 251562, Note_off_c, 6, 66, 127
2, 251586, Note_on_c, 4, 64, 127
2, 251620, Note_off_c, 0, 48, 127
2, 251623, Note_on_c, 10, 45, 127
2, 251821, Note_on_c, 2, 74, 127
2, 252001, Note_off_c, 10, 69, 127
2, 252016, Note_off_c, 2, 74, 127
2, 252016, Note_off_c, 10, 45, 127
2, 252018, Note_on_c, 2, 74, 127
2, 252018, Note_on_c, 10, 69, 127
2, 252018, Note_on_c, 4, 52, 127
2, 252213, Note_off_c, 2, 74, 127
2, 252216, Note_on_c, 0, 72, 127
2, 252780, Note_off_c, 4, 64, 127
2, 252806, Note_off_c, 4, 52, 127
2, 252809, Note_on_c, 8, 68, 127
2, 252809, Note_on_c, 2, 62, 127
2, 252809, Note_on_c, 4, 40, 127
2, 252823, Note_off_c, 10, 69, 127
2, 253007, Note_on_c, 12, 71, 127
2, 253202, Note_off_c, 12, 71, 127
2, 253204, Note_off_c, 0, 72, 127
2, 253205, Note_on_c, 10, 69, 127
2, 253400, Note_off_c, 10, 69, 127
2, 253403, Note_on_c, 12, 71, 127
2, 253591, Note_off_c, 2, 62, 127
2, 253591, Note_off_c, 8, 68, 127
2, 253597, Note_off_c, 4, 40, 127
2, 253598, Note_off_c, 12, 71, 127
2, 253601, Note_on_c, 10, 69, 127
2, 253601, Note_on_c, 10, 45, 127
2, 254008, Note_off_c, 10, 45, 127
2, 254010, Note_on_c, 4, 52, 127
2, 254112, Note_on_c, 2, 62, 127
2, 254214, Note_on_c, 0, 60, 127
2, 254281, Note_off_c, 2, 62, 127
2, 254316, Note_on_c, 12, 59, 127
2, 254397, Note_off_c, 0, 60, 127
2, 254416, Note_off_c, 12, 59, 127
2, 254416, Note_off_c, 4, 52, 127
2, 254419, Note_on_c, 0, 60, 127
2, 254419, Note_on_c, 10, 57, 127
2, 254543, Note_on_c, 4, 64, 127
2, 254597, Note_off_c, 10, 69, 127
2, 254667, Note_on_c, 10, 69, 127
2, 256872, Note_off_c, 10, 57, 127
2, 256890, Note_off_c, 4, 64, 127
2, 256908, Note_off_c, 10, 69, 127
2, 256927, Note_off_c, 0, 60, 127
2, 258517, Note_on_c, 4, 76, 127
2, 258517, Note_on_c, 10, 45, 127
2, 258599, Note_off_c, 4, 76, 127
2, 258601, Note_on_c, 2, 74, 127
2, 258683, Note_off_c, 2, 74, 127
2, 258686, Note_on_c, 4, 76, 127
2, 258852, Note_off_c, 10, 45, 127
2, 258855, Note_on_c, 8, 44, 127
2, 259021, Note_off_c, 4, 76, 127
2, 259023, Note_on_c, 2, 74, 127
2, 259189, Note_off_c, 2, 74, 127
2, 259190, Note_off_c, 8, 44, 127
2, 259192, Note_on_c, 0, 72, 127
2, 259192, Note_on_c, 10, 45, 127
2, 259358, Note_off_c, 0, 72, 127
2, 259361, Note_on_c, 12, 71, 127
2, 259527, Note_off_c, 12, 71, 127
2, 259527, Note_off_c, 10, 45, 127
2, 259530, Note_on_c, 10, 69, 127
2, 259530, Note_on_c, 12, 47, 127
2, 259696, Note_off_c, 10, 69, 127
2, 259699, Note_on_c, 8, 68, 127
2, 259865, Note_off_c, 8, 68, 127
2, 259865, Note_off_c, 12, 47, 127
2, 259868, Note_on_c, 10, 69, 127
2, 259868, Note_on_c, 0, 48, 127
2, 260034, Note_off_c, 10, 69, 127
2, 260037, Note_on_c, 0, 72, 127
2, 260203, Note_off_c, 0, 72, 127
2, 260203, Note_off_c, 0, 48, 127
2, 260206, Note_on_c, 5, 77, 127
2, 260206, Note_on_c, 10, 45, 127
2, 260372, Note_off_c, 5, 77, 127
2, 260375, Note_on_c, 4, 76, 127
2, 260541, Note_off_c, 4, 76, 127
2, 260541, Note_off_c, 10, 45, 127
2, 260544, Note_on_c, 4, 76, 127
2, 260544, Note_on_c, 12, 47, 127
2, 260665, Note_off_c, 4, 76, 127
2, 260667, Note_on_c, 2, 74, 127
2, 260729, Note_on_c, 4, 76, 127
2, 260738, Note_off_c, 2, 74, 127
2, 260791, Note_on_c, 2, 74, 127
2, 260800, Note_off_c, 4, 76, 127
2, 260880, Note_off_c, 12, 47, 127
2, 260883, Note_on_c, 10, 57, 127
2, 261041, Note_off_c, 2, 74, 127
2, 261052, Note_on_c, 0, 72, 127
2, 261218, Note_off_c, 0, 72, 127
2, 261218, Note_off_c, 10, 57, 127
2, 261220, Note_on_c, 12, 71, 127
2, 261220, Note_on_c, 8, 56, 127
2, 261386, Note_off_c, 12, 71, 127
2, 261389, Note_on_c, 10, 69, 127
2, 261555, Note_off_c, 10, 69, 127
2, 261555, Note_off_c, 8, 56, 127
2, 261558, Note_on_c, 8, 68, 127
2, 261558, Note_on_c, 12, 59, 127
2, 261724, Note_off_c, 8, 68, 127
2, 261727, Note_on_c, 6, 66, 127
2, 261893, Note_off_c, 6, 66, 127
2, 261893, Note_off_c, 12, 59, 127
2, 261896, Note_on_c, 8, 68, 127
2, 261896, Note_on_c, 4, 52, 127
2, 262062, Note_off_c, 8, 68, 127
2, 262065, Note_on_c, 12, 71, 127
2, 262231, Note_off_c, 12, 71, 127
2, 262231, Note_off_c, 4, 52, 127
2, 262234, Note_on_c, 2, 74, 127
2, 262234, Note_on_c, 8, 56, 127
2, 262400, Note_off_c, 2, 74, 127
2, 262403, Note_on_c, 4, 76, 127
2, 262569, Note_off_c, 4, 76, 127
2, 262569, Note_off_c, 8, 56, 127
2, 262572, Note_on_c, 2, 74, 127
2, 262572, Note_on_c, 10, 57, 127
2, 262730, Note_on_c, 0, 72, 127
2, 262735, Note_off_c, 2, 74, 127
2, 262809, Note_off_c, 0, 72, 127
2, 262810, Note_on_c, 2, 74, 127
2, 262889, Note_off_c, 2, 74, 127
2, 262889, Note_on_c, 0, 72, 127
2, 262908, Note_off_c, 10, 57, 127
2, 262911, Note_on_c, 7, 55, 127
2, 263077, Note_off_c, 0, 72, 127
2, 263080, Note_on_c, 12, 71, 127
2, 263246, Note_off_c, 12, 71, 127
2, 263246, Note_off_c, 7, 55, 127
2, 263249, Note_on_c, 10, 69, 127
2, 263249, Note_on_c, 5, 53, 127
2, 263415, Note_off_c, 10, 69, 127
2, 263417, Note_on_c, 7, 67, 127
2, 263583, Note_off_c, 7, 67, 127
2, 263584, Note_off_c, 5, 53, 127
2, 263586, Note_on_c, 5, 65, 127
2, 263586, Note_on_c, 4, 52, 127
2, 263752, Note_off_c, 5, 65, 127
2, 263755, Note_on_c, 4, 64, 127
2, 263921, Note_off_c, 4, 64, 127
2, 263921, Note_off_c, 4, 52, 127
2, 263924, Note_on_c, 2, 62, 127
2, 263924, Note_on_c, 5, 53, 127
2, 264090, Note_off_c, 2, 62, 127
2, 264093, Note_on_c, 0, 72, 127
2, 264259, Note_off_c, 0, 72, 127
2, 264259, Note_off_c, 5, 53, 127
2, 264262, Note_on_c, 12, 71, 127
2, 264262, Note_on_c, 2, 50, 127
2, 264406, Note_on_c, 0, 72, 127
2, 264411, Note_off_c, 12, 71, 127
2, 264501, Note_on_c, 10, 69, 127
2, 264502, Note_off_c, 0, 72, 127
2, 264577, Note_off_c, 10, 69, 127
2, 264597, Note_off_c, 2, 50, 127
2, 264600, Note_on_c, 10, 69, 127
2, 264600, Note_on_c, 4, 52, 127
2, 264811, Note_off_c, 10, 69, 127
2, 264811, Note_on_c, 8, 68, 127
2, 264885, Note_on_c, 10, 69, 127
2, 264894, Note_off_c, 8, 68, 127
2, 264936, Note_off_c, 4, 52, 127
2, 264939, Note_on_c, 12, 47, 127
2, 264959, Note_on_c, 8, 68, 127
2, 264968, Note_off_c, 10, 69, 127
2, 265034, Note_on_c, 10, 69, 127
2, 265042, Note_off_c, 8, 68, 127
2, 265108, Note_on_c, 8, 68, 127
2, 265117, Note_off_c, 10, 69, 127
2, 265182, Note_on_c, 10, 69, 127
2, 265191, Note_off_c, 8, 68, 127
2, 265256, Note_on_c, 8, 68, 127
2, 265265, Note_off_c, 10, 69, 127
2, 265275, Note_off_c, 12, 47, 127
2, 265278, Note_on_c, 4, 40, 127
2, 265613, Note_off_c, 4, 40, 127
2, 265615, Note_on_c, 12, 47, 127
2, 265784, Note_off_c, 8, 68, 127
2, 265784, Note_on_c, 6, 66, 127
2, 265950, Note_off_c, 6, 66, 127
2, 265950, Note_off_c, 12, 47, 127
2, 265953, Note_on_c, 4, 64, 127
2, 265953, Note_on_c, 4, 52, 127
2, 266288, Note_off_c, 4, 52, 127
2, 266291, Note_on_c, 2, 50, 127
2, 266445, Note_off_c, 4, 64, 127
2, 266626, Note_off_c, 2, 50, 127
2, 266629, Note_on_c, 7, 79, 127
2, 266629, Note_on_c, 1, 49, 127
2, 266711, Note_off_c, 7, 79, 127
2, 266713, Note_on_c, 5, 77, 127
2, 266795, Note_off_c, 5, 77, 127
2, 266798, Note_on_c, 7, 79, 127
2, 266964, Note_off_c, 1, 49, 127
2, 266967, Note_on_c, 4, 52, 127
2, 267133, Note_off_c, 7, 79, 127
2, 267136, Note_on_c, 5, 77, 127
2, 267302, Note_off_c, 5, 77, 127
2, 267302, Note_off_c, 4, 52, 127
2, 267305, Note_on_c, 4, 76, 127
2, 267305, Note_on_c, 10, 45, 127
2, 267471, Note_off_c, 4, 76, 127
2, 267474, Note_on_c, 2, 74, 127
2, 267640, Note_off_c, 2, 74, 127
2, 267640, Note_off_c, 10, 45, 127
2, 267643, Note_on_c, 1, 73, 127
2, 267643, Note_on_c, 12, 47, 127
2, 267809, Note_off_c, 1, 73, 127
2, 267811, Note_on_c, 12, 71, 127
2, 267977, Note_off_c, 12, 71, 127
2, 267978, Note_off_c, 12, 47, 127
2, 267980, Note_on_c, 10, 69, 127
2, 267980, Note_on_c, 1, 49, 127
2, 268146, Note_off_c, 10, 69, 127
2, 268149, Note_on_c, 7, 79, 127
2, 268315, Note_off_c, 7, 79, 127
2, 268315, Note_off_c, 1, 49, 127
2, 268318, Note_on_c, 5, 77, 127
2, 268318, Note_on_c, 10, 45, 127
2, 268452, Note_on_c, 7, 79, 127
2, 268484, Note_off_c, 5, 77, 127
2, 268549, Note_off_c, 7, 79, 127
2, 268553, Note_on_c, 4, 76, 127
2, 268651, Note_off_c, 4, 76, 127
2, 268653, Note_off_c, 10, 45, 127
2, 268656, Note_on_c, 4, 76, 127
2, 268656, Note_on_c, 2, 50, 127
2, 268822, Note_off_c, 4, 76, 127
2, 268825, Note_on_c, 5, 77, 127
2, 268874, Note_on_c, 4, 76, 127
2, 268907, Note_off_c, 5, 77, 127
2, 268923, Note_on_c, 5, 77, 127
2, 268955, Note_off_c, 4, 76, 127
2, 268990, Note_off_c, 2, 50, 127
2, 268993, Note_on_c, 4, 52, 127
2, 269154, Note_off_c, 5, 77, 127
2, 269162, Note_on_c, 4, 76, 127
2, 269328, Note_off_c, 4, 76, 127
2, 269328, Note_off_c, 4, 52, 127
2, 269331, Note_on_c, 2, 74, 127
2, 269331, Note_on_c, 5, 53, 127
2, 269497, Note_off_c, 2, 74, 127
2, 269500, Note_on_c, 4, 76, 127
2, 269666, Note_off_c, 4, 76, 127
2, 269666, Note_off_c, 5, 53, 127
2, 269669, Note_on_c, 5, 77, 127
2, 269669, Note_on_c, 2, 50, 127
2, 269835, Note_off_c, 5, 77, 127
2, 269837, Note_on_c, 2, 74, 127
2, 270003, Note_off_c, 2, 74, 127
2, 270004, Note_off_c, 2, 50, 127
2, 270006, Note_on_c, 0, 72, 127
2, 270006, Note_on_c, 7, 55, 127
2, 270172, Note_off_c, 0, 72, 127
2, 270175, Note_on_c, 12, 71, 127
2, 270341, Note_off_c, 12, 71, 127
2, 270341, Note_off_c, 7, 55, 127
2, 270344, Note_on_c, 10, 69, 127
2, 270344, Note_on_c, 5, 53, 127
2, 270510, Note_off_c, 10, 69, 127
2, 270513, Note_on_c, 7, 67, 127
2, 270679, Note_off_c, 7, 67, 127
2, 270679, Note_off_c, 5, 53, 127
2, 270682, Note_on_c, 0, 72, 127
2, 270682, Note_on_c, 4, 52, 127
2, 270848, Note_off_c, 4, 52, 127
2, 270848, Note_off_c, 0, 72, 127
2, 270851, Note_on_c, 5, 77, 127
2, 270851, Note_on_c, 2, 50, 127
2, 271017, Note_off_c, 2, 50, 127
2, 271017, Note_off_c, 5, 77, 127
2, 271020, Note_on_c, 4, 76, 127
2, 271020, Note_on_c, 0, 48, 127
2, 271186, Note_off_c, 0, 48, 127
2, 271186, Note_off_c, 4, 76, 127
2, 271189, Note_on_c, 10, 81, 127
2, 271189, Note_on_c, 2, 50, 127
2, 271355, Note_off_c, 2, 50, 127
2, 271355, Note_off_c, 10, 81, 127
2, 271358, Note_on_c, 7, 79, 127
2, 271358, Note_on_c, 4, 52, 127
2, 271524, Note_off_c, 4, 52, 127
2, 271524, Note_off_c, 7, 79, 127
2, 271527, Note_on_c, 12, 71, 127
2, 271527, Note_on_c, 2, 50, 127
2, 271693, Note_off_c, 2, 50, 127
2, 271693, Note_off_c, 12, 71, 127
2, 271696, Note_on_c, 0, 72, 127
2, 271696, Note_on_c, 4, 52, 127
2, 271862, Note_off_c, 4, 52, 127
2, 271862, Note_off_c, 0, 72, 127
2, 271864, Note_on_c, 5, 77, 127
2, 271864, Note_on_c, 5, 53, 127
2, 272030, Note_off_c, 5, 53, 127
2, 272030, Note_off_c, 5, 77, 127
2, 272033, Note_on_c, 4, 76, 127
2, 272033, Note_on_c, 7, 55, 127
2, 272199, Note_off_c, 4, 76, 127
2, 272202, Note_on_c, 2, 74, 127
2, 272259, Note_on_c, 4, 76, 127
2, 272285, Note_off_c, 2, 74, 127
2, 272316, Note_on_c, 2, 74, 127
2, 272342, Note_off_c, 4, 76, 127
2, 272369, Note_off_c, 7, 55, 127
2, 272372, Note_on_c, 4, 76, 127
2, 272372, Note_on_c, 7, 43, 127
2, 272399, Note_off_c, 2, 74, 127
2, 272429, Note_on_c, 2, 74, 127
2, 272455, Note_off_c, 4, 76, 127
2, 272542, Note_on_c, 0, 72, 127
2, 272559, Note_off_c, 2, 74, 127
2, 272708, Note_off_c, 0, 72, 127
2, 272708, Note_off_c, 7, 43, 127
2, 272711, Note_on_c, 0, 72, 127
2, 272711, Note_on_c, 0, 48, 127
2, 272793, Note_off_c, 0, 72, 127
2, 272796, Note_on_c, 12, 71, 127
2, 272878, Note_off_c, 12, 71, 127
2, 272880, Note_on_c, 0, 72, 127
2, 273046, Note_off_c, 0, 48, 127
2, 273049, Note_on_c, 7, 43, 127
2, 273384, Note_off_c, 7, 43, 127
2, 273387, Note_on_c, 4, 40, 127
2, 273722, Note_off_c, 4, 40, 127
2, 273725, Note_on_c, 7, 43, 127
2, 274060, Note_off_c, 7, 43, 127
2, 274062, Note_on_c, 0, 36, 127
2, 274734, Note_off_c, 0, 36, 127
2, 274735, Note_off_c, 0, 72, 127
2, 274737, Note_on_c, 0, 72, 127
2, 274737, Note_on_c, 0, 48, 127
2, 274903, Note_off_c, 0, 48, 127
2, 274906, Note_on_c, 4, 52, 127
2, 275072, Note_off_c, 4, 52, 127
2, 275072, Note_off_c, 0, 72, 127
2, 275075, Note_on_c, 12, 71, 127
2, 275075, Note_on_c, 7, 55, 127
2, 275241, Note_off_c, 7, 55, 127
2, 275244, Note_on_c, 5, 53, 127
2, 275410, Note_off_c, 5, 53, 127
2, 275410, Note_off_c, 12, 71, 127
2, 275413, Note_on_c, 0, 72, 127
2, 275413, Note_on_c, 4, 52, 127
2, 275579, Note_off_c, 4, 52, 127
2, 275582, Note_on_c, 2, 50, 127
2, 275748, Note_off_c, 2, 50, 127
2, 275748, Note_off_c, 0, 72, 127
2, 275751, Note_on_c, 2, 74, 127
2, 275751, Note_on_c, 0, 48, 127
2, 275917, Note_off_c, 0, 48, 127
2, 275920, Note_on_c, 12, 47, 127
2, 276086, Note_off_c, 12, 47, 127
2, 276086, Note_off_c, 2, 74, 127
2, 276089, Note_on_c, 4, 76, 127
2, 276089, Note_on_c, 0, 48, 127
2, 276255, Note_off_c, 0, 48, 127
2, 276257, Note_on_c, 4, 52, 127
2, 276423, Note_off_c, 4, 52, 127
2, 276424, Note_off_c, 4, 76, 127
2, 276426, Note_on_c, 6, 78, 127
2, 276426, Note_on_c, 2, 50, 127
2, 276592, Note_off_c, 2, 50, 127
2, 276595, Note_on_c, 0, 48, 127
2, 276761, Note_off_c, 0, 48, 127
2, 276761, Note_off_c, 6, 78, 127
2, 276764, Note_on_c, 7, 79, 127
2, 276764, Note_on_c, 12, 47, 127
2, 276930, Note_off_c, 12, 47, 127
2, 276933, Note_on_c, 4, 52, 127
2, 277099, Note_off_c, 4, 52, 127
2, 277099, Note_off_c, 7, 79, 127
2, 277102, Note_on_c, 6, 78, 127
2, 277102, Note_on_c, 2, 50, 127
2, 277268, Note_off_c, 2, 50, 127
2, 277271, Note_on_c, 0, 48, 127
2, 277437, Note_off_c, 0, 48, 127
2, 277437, Note_off_c, 6, 78, 127
2, 277440, Note_on_c, 7, 79, 127
2, 277440, Note_on_c, 12, 47, 127
2, 277606, Note_off_c, 12, 47, 127
2, 277609, Note_on_c, 10, 45, 127
2, 277775, Note_off_c, 10, 45, 127
2, 277775, Note_off_c, 7, 79, 127
2, 277778, Note_on_c, 12, 83, 127
2, 277778, Note_on_c, 7, 43, 127
2, 277944, Note_off_c, 7, 43, 127
2, 277947, Note_on_c, 6, 42, 127
2, 278113, Note_off_c, 6, 42, 127
2, 278113, Note_off_c, 12, 83, 127
2, 278116, Note_on_c, 4, 76, 127
2, 278116, Note_on_c, 7, 43, 127
2, 278282, Note_off_c, 7, 43, 127
2, 278284, Note_on_c, 12, 47, 127
2, 278450, Note_off_c, 12, 47, 127
2, 278451, Note_off_c, 4, 76, 127
2, 278453, Note_on_c, 7, 79, 127
2, 278453, Note_on_c, 4, 52, 127
2, 278619, Note_off_c, 4, 52, 127
2, 278622, Note_on_c, 7, 55, 127
2, 278788, Note_off_c, 7, 55, 127
2, 278788, Note_off_c, 7, 79, 127
2, 278791, Note_on_c, 0, 72, 127
2, 278791, Note_on_c, 10, 45, 127
2, 278957, Note_off_c, 10, 45, 127
2, 278960, Note_on_c, 7, 43, 127
2, 279126, Note_off_c, 7, 43, 127
2, 279126, Note_off_c, 0, 72, 127
2, 279129, Note_on_c, 7, 79, 127
2, 279129, Note_on_c, 10, 45, 127
2, 279295, Note_off_c, 10, 45, 127
2, 279298, Note_on_c, 12, 47, 127
2, 279464, Note_off_c, 12, 47, 127
2, 279464, Note_off_c, 7, 79, 127
2, 279467, Note_on_c, 6, 78, 127
2, 279467, Note_on_c, 0, 48, 127
2, 279633, Note_off_c, 0, 48, 127
2, 279636, Note_on_c, 2, 50, 127
2, 279802, Note_off_c, 2, 50, 127
2, 279802, Note_off_c, 6, 78, 127
2, 279805, Note_on_c, 10, 81, 127
2, 279805, Note_on_c, 0, 48, 127
2, 279971, Note_off_c, 0, 48, 127
2, 279974, Note_on_c, 12, 47, 127
2, 280140, Note_off_c, 12, 47, 127
2, 280140, Note_off_c, 10, 81, 127
2, 280143, Note_on_c, 3, 75, 127
2, 280143, Note_on_c, 10, 45, 127
2, 280309, Note_off_c, 10, 45, 127
2, 280312, Note_on_c, 7, 43, 127
2, 280478, Note_off_c, 7, 43, 127
2, 280478, Note_off_c, 3, 75, 127
2, 280480, Note_on_c, 4, 76, 127
2, 280480, Note_on_c, 10, 45, 127
2, 280646, Note_off_c, 10, 45, 127
2, 280649, Note_on_c, 6, 42, 127
2, 280815, Note_off_c, 6, 42, 127
2, 280815, Note_off_c, 4, 76, 127
2, 280818, Note_on_c, 4, 76, 127
2, 280818, Note_on_c, 12, 47, 127
2, 280984, Note_off_c, 12, 47, 127
2, 280987, Note_on_c, 6, 54, 127
2, 281046, Note_off_c, 4, 76, 127
2, 281047, Note_on_c, 3, 75, 127
2, 281112, Note_on_c, 4, 76, 127
2, 281129, Note_off_c, 3, 75, 127
2, 281153, Note_off_c, 6, 54, 127
2, 281156, Note_on_c, 7, 55, 127
2, 281177, Note_on_c, 3, 75, 127
2, 281194, Note_off_c, 4, 76, 127
2, 281242, Note_on_c, 4, 76, 127
2, 281259, Note_off_c, 3, 75, 127
2, 281306, Note_on_c, 3, 75, 127
2, 281321, Note_off_c, 7, 55, 127
2, 281324, Note_off_c, 4, 76, 127
2, 281324, Note_on_c, 10, 57, 127
2, 281371, Note_on_c, 4, 76, 127
2, 281388, Note_off_c, 3, 75, 127
2, 281436, Note_on_c, 3, 75, 127
2, 281453, Note_off_c, 4, 76, 127
2, 281490, Note_off_c, 10, 57, 127
2, 281493, Note_on_c, 12, 59, 127
2, 281659, Note_off_c, 12, 59, 127
2, 281662, Note_on_c, 0, 60, 127
2, 281828, Note_off_c, 0, 60, 127
2, 281831, Note_on_c, 12, 59, 127
2, 281997, Note_off_c, 12, 59, 127
2, 282000, Note_on_c, 1, 73, 127
2, 282000, Note_on_c, 10, 57, 127
2, 282011, Note_off_c, 3, 75, 127
2, 282166, Note_off_c, 10, 57, 127
2, 282166, Note_off_c, 1, 73, 127
2, 282169, Note_on_c, 12, 71, 127
2, 282169, Note_on_c, 7, 55, 127
2, 282335, Note_off_c, 7, 55, 127
2, 282338, Note_on_c, 6, 54, 127
2, 282504, Note_off_c, 6, 54, 127
2, 282506, Note_on_c, 4, 52, 127
2, 282661, Note_off_c, 12, 71, 127
2, 282672, Note_off_c, 4, 52, 127
2, 282675, Note_on_c, 3, 51, 127
2, 282841, Note_off_c, 3, 51, 127
2, 282844, Note_on_c, 7, 79, 127
2, 282844, Note_on_c, 4, 52, 127
2, 283013, Note_on_c, 6, 78, 127
2, 283179, Note_off_c, 6, 78, 127
2, 283179, Note_off_c, 4, 52, 127
2, 283182, Note_on_c, 4, 76, 127
2, 283182, Note_on_c, 6, 54, 127
2, 283348, Note_off_c, 4, 76, 127
2, 283351, Note_on_c, 3, 75, 127
2, 283517, Note_off_c, 3, 75, 127
2, 283517, Note_off_c, 6, 54, 127
2, 283520, Note_on_c, 4, 76, 127
2, 283520, Note_on_c, 7, 55, 127
2, 283686, Note_off_c, 4, 76, 127
2, 283689, Note_on_c, 12, 71, 127
2, 283855, Note_off_c, 12, 71, 127
2, 283855, Note_off_c, 7, 55, 127
2, 283858, Note_on_c, 0, 72, 127
2, 283858, Note_on_c, 4, 52, 127
2, 284024, Note_off_c, 0, 72, 127
2, 284027, Note_on_c, 10, 69, 127
2, 284193, Note_off_c, 10, 69, 127
2, 284193, Note_off_c, 4, 52, 127
2, 284196, Note_on_c, 12, 71, 127
2, 284196, Note_on_c, 4, 64, 127
2, 284278, Note_off_c, 12, 71, 127
2, 284280, Note_on_c, 10, 69, 127
2, 284362, Note_off_c, 10, 69, 127
2, 284362, Note_off_c, 4, 64, 127
2, 284365, Note_on_c, 12, 71, 127
2, 284365, Note_on_c, 6, 66, 127
2, 284531, Note_off_c, 6, 66, 127
2, 284533, Note_on_c, 7, 67, 127
2, 284699, Note_off_c, 7, 67, 127
2, 284702, Note_on_c, 4, 64, 127
2, 284868, Note_off_c, 4, 64, 127
2, 284869, Note_off_c, 12, 71, 127
2, 284871, Note_on_c, 0, 72, 127
2, 284871, Note_on_c, 10, 69, 127
2, 285037, Note_off_c, 0, 72, 127
2, 285040, Note_on_c, 2, 74, 127
2, 285206, Note_off_c, 2, 74, 127
2, 285206, Note_off_c, 10, 69, 127
2, 285209, Note_on_c, 0, 72, 127
2, 285209, Note_on_c, 10, 45, 127
2, 285375, Note_off_c, 10, 45, 127
2, 285375, Note_off_c, 0, 72, 127
2, 285378, Note_on_c, 12, 71, 127
2, 285378, Note_on_c, 12, 47, 127
2, 285544, Note_off_c, 12, 47, 127
2, 285544, Note_off_c, 12, 71, 127
2, 285547, Note_on_c, 10, 69, 127
2, 285547, Note_on_c, 0, 48, 127
2, 285713, Note_off_c, 10, 69, 127
2, 285716, Note_on_c, 2, 74, 127
2, 285882, Note_off_c, 2, 74, 127
2, 285882, Note_off_c, 0, 48, 127
2, 285885, Note_on_c, 0, 72, 127
2, 285885, Note_on_c, 10, 45, 127
2, 286051, Note_off_c, 0, 72, 127
2, 286054, Note_on_c, 5, 77, 127
2, 286220, Note_off_c, 5, 77, 127
2, 286220, Note_off_c, 10, 45, 127
2, 286223, Note_on_c, 4, 76, 127
2, 286223, Note_on_c, 10, 57, 127
2, 286389, Note_off_c, 10, 57, 127
2, 286389, Note_off_c, 4, 76, 127
2, 286392, Note_on_c, 3, 75, 127
2, 286392, Note_on_c, 12, 59, 127
2, 286558, Note_off_c, 12, 59, 127
2, 286558, Note_off_c, 3, 75, 127
2, 286561, Note_on_c, 4, 76, 127
2, 286561, Note_on_c, 0, 60, 127
2, 286714, Note_off_c, 7, 79, 127
2, 286727, Note_off_c, 0, 60, 127
2, 286727, Note_off_c, 4, 76, 127
2, 286729, Note_on_c, 7, 79, 127
2, 286729, Note_on_c, 10, 57, 127
2, 286895, Note_off_c, 10, 57, 127
2, 286895, Note_off_c, 7, 79, 127
2, 286898, Note_on_c, 6, 78, 127
2, 286898, Note_on_c, 3, 63, 127
2, 287067, Note_on_c, 0, 72, 127
2, 287233, Note_off_c, 0, 72, 127
2, 287236, Note_on_c, 12, 71, 127
2, 287402, Note_off_c, 12, 71, 127
2, 287405, Note_on_c, 10, 69, 127
2, 287566, Note_off_c, 6, 78, 127
2, 287571, Note_off_c, 10, 69, 127
2, 287571, Note_off_c, 3, 63, 127
2, 287574, Note_on_c, 7, 67, 127
2, 287574, Note_on_c, 4, 64, 127
2, 287743, Note_on_c, 12, 71, 127
2, 287909, Note_off_c, 12, 71, 127
2, 287909, Note_off_c, 4, 64, 127
2, 287912, Note_on_c, 4, 76, 127
2, 287912, Note_on_c, 10, 57, 127
2, 288066, Note_off_c, 7, 67, 127
2, 288081, Note_on_c, 7, 67, 127
2, 288245, Note_off_c, 4, 76, 127
2, 288247, Note_off_c, 7, 67, 127
2, 288247, Note_off_c, 10, 57, 127
2, 288250, Note_on_c, 6, 66, 127
2, 288250, Note_on_c, 12, 59, 127
2, 288419, Note_on_c, 10, 69, 127
2, 288585, Note_off_c, 10, 69, 127
2, 288585, Note_off_c, 12, 59, 127
2, 288588, Note_on_c, 4, 76, 127
2, 288588, Note_on_c, 12, 47, 127
2, 288754, Note_off_c, 4, 76, 127
2, 288756, Note_on_c, 3, 75, 127
2, 288918, Note_off_c, 6, 66, 127
2, 288922, Note_off_c, 3, 75, 127
2, 288923, Note_off_c, 12, 47, 127
2, 288925, Note_on_c, 4, 76, 127
2, 288925, Note_on_c, 4, 40, 127
2, 289094, Note_on_c, 0, 72, 127
2, 289260, Note_off_c, 0, 72, 127
2, 289263, Note_on_c, 12, 71, 127
2, 289429, Note_off_c, 12, 71, 127
2, 289432, Note_on_c, 10, 69, 127
2, 289598, Note_off_c, 10, 69, 127
2, 289601, Note_on_c, 8, 68, 127
2, 289683, Note_off_c, 8, 68, 127
2, 289686, Note_on_c, 6, 66, 127
2, 289767, Note_off_c, 4, 40, 127
2, 289768, Note_off_c, 6, 66, 127
2, 289770, Note_on_c, 8, 68, 127
2, 289770, Note_on_c, 3, 63, 127
2, 289936, Note_off_c, 3, 63, 127
2, 289939, Note_on_c, 4, 64, 127
2, 290105, Note_off_c, 4, 64, 127
2, 290108, Note_on_c, 12, 59, 127
2, 290274, Note_off_c, 12, 59, 127
2, 290277, Note_on_c, 8, 56, 127
2, 290443, Note_off_c, 8, 56, 127
2, 290446, Note_on_c, 4, 52, 127
2, 290612, Note_off_c, 4, 52, 127
2, 290615, Note_on_c, 12, 59, 127
2, 290781, Note_off_c, 12, 59, 127
2, 290784, Note_on_c, 2, 50, 127
2, 290947, Note_off_c, 4, 76, 127
2, 290950, Note_off_c, 2, 50, 127
2, 290950, Note_off_c, 8, 68, 127
2, 290952, Note_on_c, 4, 76, 127
2, 290952, Note_on_c, 1, 49, 127
2, 291034, Note_off_c, 4, 76, 127
2, 291037, Note_on_c, 2, 74, 127
2, 291119, Note_off_c, 2, 74, 127
2, 291121, Note_on_c, 4, 76, 127
2, 291287, Note_off_c, 1, 49, 127
2, 291290, Note_on_c, 4, 52, 127
2, 291456, Note_off_c, 4, 76, 127
2, 291459, Note_on_c, 2, 74, 127
2, 291625, Note_off_c, 2, 74, 127
2, 291625, Note_off_c, 4, 52, 127
2, 291628, Note_on_c, 1, 73, 127
2, 291628, Note_on_c, 10, 57, 127
2, 291794, Note_off_c, 1, 73, 127
2, 291797, Note_on_c, 12, 71, 127
2, 291963, Note_off_c, 12, 71, 127
2, 291963, Note_off_c, 10, 57, 127
2, 291966, Note_on_c, 10, 69, 127
2, 291966, Note_on_c, 7, 55, 127
2, 292132, Note_off_c, 10, 69, 127
2, 292135, Note_on_c, 11, 82, 127
2, 292301, Note_off_c, 11, 82, 127
2, 292301, Note_off_c, 7, 55, 127
2, 292304, Note_on_c, 10, 81, 127
2, 292304, Note_on_c, 5, 53, 127
2, 292470, Note_off_c, 10, 81, 127
2, 292473, Note_on_c, 7, 79, 127
2, 292639, Note_off_c, 7, 79, 127
2, 292639, Note_off_c, 5, 53, 127
2, 292642, Note_on_c, 5, 77, 127
2, 292642, Note_on_c, 4, 52, 127
2, 292808, Note_off_c, 5, 77, 127
2, 292811, Note_on_c, 7, 79, 127
2, 292893, Note_off_c, 7, 79, 127
2, 292895, Note_on_c, 4, 76, 127
2, 292977, Note_off_c, 4, 76, 127
2, 292977, Note_off_c, 4, 52, 127
2, 292979, Note_on_c, 4, 76, 127
2, 292979, Note_on_c, 2, 50, 127
2, 293120, Note_on_c, 5, 77, 127
2, 293145, Note_off_c, 4, 76, 127
2, 293185, Note_on_c, 4, 76, 127
2, 293203, Note_off_c, 5, 77, 127
2, 293250, Note_on_c, 5, 77, 127
2, 293267, Note_off_c, 4, 76, 127
2, 293314, Note_off_c, 2, 50, 127
2, 293317, Note_on_c, 1, 49, 127
2, 293486, Note_on_c, 4, 76, 127
2, 293498, Note_off_c, 5, 77, 127
2, 293652, Note_off_c, 4, 76, 127
2, 293652, Note_off_c, 1, 49, 127
2, 293655, Note_on_c, 2, 74, 127
2, 293655, Note_on_c, 2, 50, 127
2, 293821, Note_off_c, 2, 74, 127
2, 293824, Note_on_c, 0, 72, 127
2, 293990, Note_off_c, 0, 72, 127
2, 293990, Note_off_c, 2, 50, 127
2, 293993, Note_on_c, 12, 71, 127
2, 293993, Note_on_c, 4, 52, 127
2, 294159, Note_off_c, 12, 71, 127
2, 294162, Note_on_c, 10, 69, 127
2, 294328, Note_off_c, 10, 69, 127
2, 294328, Note_off_c, 4, 52, 127
2, 294331, Note_on_c, 8, 68, 127
2, 294331, Note_on_c, 5, 53, 127
2, 294497, Note_off_c, 8, 68, 127
2, 294500, Note_on_c, 10, 69, 127
2, 294666, Note_off_c, 10, 69, 127
2, 294666, Note_off_c, 5, 53, 127
2, 294669, Note_on_c, 12, 71, 127
2, 294669, Note_on_c, 2, 50, 127
2, 294835, Note_off_c, 12, 71, 127
2, 294838, Note_on_c, 0, 72, 127
2, 295004, Note_off_c, 0, 72, 127
2, 295004, Note_off_c, 2, 50, 127
2, 295007, Note_on_c, 2, 74, 127
2, 295007, Note_on_c, 12, 47, 127
2, 295173, Note_off_c, 2, 74, 127
2, 295175, Note_on_c, 5, 77, 127
2, 295341, Note_off_c, 5, 77, 127
2, 295342, Note_off_c, 12, 47, 127
2, 295344, Note_on_c, 4, 76, 127
2, 295344, Note_on_c, 8, 44, 127
2, 295510, Note_off_c, 4, 76, 127
2, 295513, Note_on_c, 2, 74, 127
2, 295679, Note_off_c, 2, 74, 127
2, 295679, Note_off_c, 8, 44, 127
2, 295682, Note_on_c, 0, 72, 127
2, 295682, Note_on_c, 10, 45, 127
2, 295848, Note_off_c, 0, 72, 127
2, 295851, Note_on_c, 8, 68, 127
2, 296017, Note_off_c, 8, 68, 127
2, 296017, Note_off_c, 10, 45, 127
2, 296020, Note_on_c, 10, 69, 127
2, 296020, Note_on_c, 0, 48, 127
2, 296186, Note_off_c, 10, 69, 127
2, 296189, Note_on_c, 6, 66, 127
2, 296355, Note_off_c, 6, 66, 127
2, 296355, Note_off_c, 0, 48, 127
2, 296358, Note_on_c, 3, 63, 127
2, 296358, Note_on_c, 6, 42, 127
2, 296524, Note_off_c, 3, 63, 127
2, 296527, Note_on_c, 0, 72, 127
2, 296693, Note_off_c, 0, 72, 127
2, 296693, Note_off_c, 6, 42, 127
2, 296696, Note_on_c, 12, 71, 127
2, 296696, Note_on_c, 12, 47, 127
2, 296830, Note_on_c, 0, 72, 127
2, 296862, Note_off_c, 12, 71, 127
2, 296925, Note_off_c, 0, 72, 127
2, 296931, Note_on_c, 10, 69, 127
2, 297027, Note_off_c, 10, 69, 127
2, 297030, Note_off_c, 12, 47, 127
2, 297033, Note_on_c, 10, 69, 127
2, 297033, Note_on_c, 4, 40, 127
2, 297199, Note_off_c, 4, 40, 127
2, 297201, Note_on_c, 12, 47, 127
2, 297286, Note_on_c, 8, 68, 127
2, 297288, Note_off_c, 10, 69, 127
2, 297350, Note_on_c, 10, 69, 127
2, 297368, Note_off_c, 12, 47, 127
2, 297369, Note_off_c, 8, 68, 127
2, 297371, Note_on_c, 0, 48, 127
2, 297414, Note_on_c, 8, 68, 127
2, 297433, Note_off_c, 10, 69, 127
2, 297477, Note_on_c, 10, 69, 127
2, 297497, Note_off_c, 8, 68, 127
2, 297538, Note_off_c, 0, 48, 127
2, 297541, Note_on_c, 8, 68, 127
2, 297541, Note_on_c, 2, 50, 127
2, 297560, Note_off_c, 10, 69, 127
2, 297707, Note_off_c, 2, 50, 127
2, 297710, Note_on_c, 4, 52, 127
2, 297876, Note_off_c, 4, 52, 127
2, 297879, Note_on_c, 3, 51, 127
2, 298045, Note_off_c, 3, 51, 127
2, 298045, Note_off_c, 8, 68, 127
2, 298048, Note_on_c, 6, 66, 127
2, 298048, Note_on_c, 4, 52, 127
2, 298214, Note_off_c, 4, 52, 127
2, 298217, Note_on_c, 6, 54, 127
2, 298383, Note_off_c, 6, 54, 127
2, 298383, Note_off_c, 6, 66, 127
2, 298386, Note_on_c, 4, 64, 127
2, 298386, Note_on_c, 8, 56, 127
2, 298552, Note_off_c, 8, 56, 127
2, 298555, Note_on_c, 4, 52, 127
2, 298721, Note_off_c, 4, 52, 127
2, 298721, Note_off_c, 4, 64, 127
2, 298724, Note_on_c, 6, 66, 127
2, 298724, Note_on_c, 12, 59, 127
2, 298890, Note_off_c, 12, 59, 127
2, 298893, Note_on_c, 2, 50, 127
2, 299059, Note_off_c, 2, 50, 127
2, 299059, Note_off_c, 6, 66, 127
2, 299062, Note_on_c, 7, 67, 127
2, 299062, Note_on_c, 1, 49, 127
2, 299228, Note_off_c, 1, 49, 127
2, 299231, Note_on_c, 4, 52, 127
2, 299397, Note_off_c, 4, 52, 127
2, 299399, Note_on_c, 10, 45, 127
2, 299566, Note_off_c, 7, 67, 127
2, 299568, Note_on_c, 6, 66, 127
2, 299734, Note_off_c, 6, 66, 127
2, 299737, Note_on_c, 4, 64, 127
2, 299903, Note_off_c, 4, 64, 127
2, 299906, Note_on_c, 6, 66, 127
2, 299997, Note_off_c, 10, 45, 127
2, 300072, Note_off_c, 6, 66, 127
2, 300075, Note_on_c, 7, 67, 127
2, 300075, Note_on_c, 10, 57, 127
2, 300241, Note_off_c, 7, 67, 127
2, 300244, Note_on_c, 12, 71, 127
2, 300410, Note_off_c, 12, 71, 127
2, 300410, Note_off_c, 10, 57, 127
2, 300413, Note_on_c, 10, 69, 127
2, 300413, Note_on_c, 12, 59, 127
2, 300579, Note_off_c, 10, 69, 127
2, 300582, Note_on_c, 7, 67, 127
2, 300748, Note_off_c, 7, 67, 127
2, 300748, Note_off_c, 12, 59, 127
2, 300751, Note_on_c, 6, 66, 127
2, 300751, Note_on_c, 1, 61, 127
2, 300885, Note_on_c, 7, 67, 127
2, 300917, Note_off_c, 6, 66, 127
2, 300980, Note_off_c, 7, 67, 127
2, 300986, Note_on_c, 4, 64, 127
2, 301082, Note_off_c, 4, 64, 127
2, 301085, Note_off_c, 1, 61, 127
2, 301088, Note_on_c, 6, 66, 127
2, 301088, Note_on_c, 2, 62, 127
2, 301254, Note_off_c, 6, 66, 127
2, 301257, Note_on_c, 10, 69, 127
2, 301423, Note_off_c, 10, 69, 127
2, 301423, Note_off_c, 2, 62, 127
2, 301425, Note_on_c, 12, 71, 127
2, 301425, Note_on_c, 0, 60, 127
2, 301591, Note_off_c, 12, 71, 127
2, 301594, Note_on_c, 0, 72, 127
2, 301760, Note_off_c, 0, 72, 127
2, 301760, Note_off_c, 0, 60, 127
2, 301763, Note_on_c, 2, 74, 127
2, 301763, Note_on_c, 12, 59, 127
2, 301929, Note_off_c, 2, 74, 127
2, 301932, Note_on_c, 4, 76, 127
2, 302098, Note_off_c, 4, 76, 127
2, 302098, Note_off_c, 12, 59, 127
2, 302101, Note_on_c, 5, 77, 127
2, 302101, Note_on_c, 2, 62, 127
2, 302270, Note_on_c, 10, 69, 127
2, 302436, Note_off_c, 10, 69, 127
2, 302436, Note_off_c, 2, 62, 127
2, 302439, Note_on_c, 8, 68, 127
2, 302439, Note_on_c, 4, 64, 127
2, 302593, Note_off_c, 5, 77, 127
2, 302608, Note_on_c, 5, 77, 127
2, 302772, Note_off_c, 8, 68, 127
2, 302774, Note_off_c, 5, 77, 127
2, 302774, Note_off_c, 4, 64, 127
2, 302777, Note_on_c, 4, 76, 127
2, 302777, Note_on_c, 2, 62, 127
2, 302943, Note_off_c, 4, 76, 127
2, 302946, Note_on_c, 2, 74, 127
2, 303112, Note_off_c, 2, 74, 127
2, 303112, Note_off_c, 2, 62, 127
2, 303115, Note_on_c, 4, 76, 127
2, 303115, Note_on_c, 0, 60, 127
2, 303286, Note_on_c, 12, 71, 127
2, 303454, Note_off_c, 12, 71, 127
2, 303454, Note_off_c, 0, 60, 127
2, 303457, Note_on_c, 0, 72, 127
2, 303457, Note_on_c, 10, 57, 127
2, 303625, Note_off_c, 10, 57, 127
2, 303625, Note_off_c, 0, 72, 127
2, 303628, Note_on_c, 8, 68, 127
2, 303628, Note_on_c, 12, 59, 127
2, 303796, Note_off_c, 12, 59, 127
2, 303796, Note_off_c, 8, 68, 127
2, 303799, Note_on_c, 10, 69, 127
2, 303799, Note_on_c, 0, 60, 127
2, 303969, Note_off_c, 4, 76, 127
2, 303970, Note_on_c, 5, 77, 127
2, 304138, Note_off_c, 5, 77, 127
2, 304138, Note_off_c, 0, 60, 127
2, 304141, Note_on_c, 4, 76, 127
2, 304141, Note_on_c, 2, 62, 127
2, 304316, Note_off_c, 4, 76, 127
2, 304318, Note_on_c, 2, 74, 127
2, 304487, Note_off_c, 10, 69, 127
2, 304492, Note_off_c, 2, 74, 127
2, 304492, Note_off_c, 2, 62, 127
2, 304494, Note_on_c, 2, 74, 127
2, 304494, Note_on_c, 4, 64, 127
2, 304580, Note_off_c, 2, 74, 127
2, 304582, Note_on_c, 0, 72, 127
2, 304668, Note_off_c, 0, 72, 127
2, 304671, Note_on_c, 2, 74, 127
2, 304757, Note_off_c, 2, 74, 127
2, 304760, Note_on_c, 0, 72, 127
2, 304846, Note_off_c, 0, 72, 127
2, 304846, Note_off_c, 4, 64, 127
2, 304848, Note_on_c, 12, 71, 127
2, 304848, Note_on_c, 4, 52, 127
2, 305023, Note_off_c, 12, 71, 127
2, 305025, Note_on_c, 10, 69, 127
2, 305200, Note_off_c, 10, 69, 127
2, 305200, Note_off_c, 4, 52, 127
2, 305202, Note_on_c, 10, 69, 127
2, 305202, Note_on_c, 10, 57, 127
2, 305391, Note_on_c, 4, 64, 127
2, 305577, Note_off_c, 4, 64, 127
2, 305579, Note_on_c, 0, 60, 127
2, 305765, Note_off_c, 0, 60, 127
2, 305768, Note_on_c, 4, 64, 127
2, 305953, Note_off_c, 10, 57, 127
2, 305954, Note_off_c, 4, 64, 127
2, 305956, Note_on_c, 10, 57, 127
2, 306161, Note_on_c, 4, 52, 127
2, 306363, Note_off_c, 4, 52, 127
2, 306366, Note_on_c, 0, 48, 127
2, 306568, Note_off_c, 0, 48, 127
2, 306592, Note_on_c, 4, 52, 127
2, 306898, Note_on_c, 10, 45, 127
2, 306899, Note_off_c, 4, 52, 127
2, 307056, Note_off_c, 10, 57, 127
2, 307590, Note_off_c, 10, 69, 127
2, 308791, Note_off_c, 10, 45, 127
2, 308901, Note_on_c, 10, 45, 127
2, 308901, Note_on_c, 4, 76, 127
2, 308950, Note_off_c, 4, 76, 127
2, 308962, Note_on_c, 2, 74, 127
2, 309011, Note_off_c, 2, 74, 127
2, 309022, Note_on_c, 4, 76, 127
2, 309101, Note_off_c, 10, 45, 127
2, 309103, Note_on_c, 0, 48, 127
2, 309304, Note_off_c, 0, 48, 127
2, 309306, Note_on_c, 4, 52, 127
2, 309507, Note_off_c, 4, 52, 127
2, 309508, Note_on_c, 10, 57, 127
2, 309709, Note_off_c, 10, 57, 127
2, 309711, Note_on_c, 4, 52, 127
2, 309912, Note_off_c, 4, 52, 127
2, 309914, Note_on_c, 0, 48, 127
2, 309972, Note_off_c, 4, 76, 127
2, 310115, Note_off_c, 0, 48, 127
2, 310117, Note_on_c, 12, 47, 127
2, 310117, Note_on_c, 5, 77, 127
2, 310196, Note_on_c, 4, 76, 127
2, 310217, Note_off_c, 5, 77, 127
2, 310276, Note_on_c, 2, 74, 127
2, 310296, Note_off_c, 4, 76, 127
2, 310319, Note_off_c, 12, 47, 127
2, 310321, Note_on_c, 2, 50, 127
2, 310356, Note_on_c, 4, 76, 127
2, 310377, Note_off_c, 2, 74, 127
2, 310523, Note_off_c, 2, 50, 127
2, 310525, Note_on_c, 4, 52, 127
2, 310726, Note_off_c, 4, 52, 127
2, 310728, Note_on_c, 8, 56, 127
2, 310929, Note_off_c, 8, 56, 127
2, 310931, Note_on_c, 4, 52, 127
2, 311132, Note_off_c, 4, 52, 127
2, 311134, Note_on_c, 2, 50, 127
2, 311268, Note_off_c, 4, 76, 127
2, 311335, Note_off_c, 2, 50, 127
2, 311337, Note_on_c, 0, 48, 127
2, 311337, Note_on_c, 4, 64, 127
2, 311470, Note_off_c, 4, 64, 127
2, 311472, Note_on_c, 6, 66, 127
2, 311605, Note_off_c, 6, 66, 127
2, 311607, Note_on_c, 8, 68, 127
2, 311740, Note_off_c, 8, 68, 127
2, 311741, Note_on_c, 4, 52, 127
2, 311741, Note_on_c, 10, 69, 127
2, 311874, Note_off_c, 10, 69, 127
2, 311876, Note_on_c, 12, 71, 127
2, 312009, Note_off_c, 12, 71, 127
2, 312011, Note_on_c, 0, 72, 127
2, 312144, Note_off_c, 0, 72, 127
2, 312144, Note_off_c, 4, 52, 127
2, 312145, Note_off_c, 0, 48, 127
2, 312146, Note_on_c, 12, 47, 127
2, 312146, Note_on_c, 8, 56, 127
2, 312146, Note_on_c, 2, 74, 127
2, 312279, Note_off_c, 2, 74, 127
2, 312281, Note_on_c, 0, 72, 127
2, 312414, Note_off_c, 0, 72, 127
2, 312416, Note_on_c, 12, 71, 127
2, 312549, Note_off_c, 12, 71, 127
2, 312549, Note_off_c, 8, 56, 127
2, 312549, Note_off_c, 12, 47, 127
2, 312551, Note_on_c, 10, 45, 127
2, 312551, Note_on_c, 10, 57, 127
2, 312551, Note_on_c, 12, 71, 127
2, 312684, Note_off_c, 12, 71, 127
2, 312684, Note_off_c, 10, 57, 127
2, 312684, Note_off_c, 10, 45, 127
2, 312686, Note_on_c, 12, 47, 127
2, 312686, Note_on_c, 0, 72, 127
2, 312743, Note_on_c, 12, 71, 127
2, 312751, Note_off_c, 0, 72, 127
2, 312799, Note_on_c, 0, 72, 127
2, 312808, Note_off_c, 12, 71, 127
2, 312818, Note_off_c, 12, 47, 127
2, 312820, Note_on_c, 0, 48, 127
2, 312953, Note_off_c, 0, 48, 127
2, 312955, Note_on_c, 2, 50, 127
2, 313088, Note_off_c, 2, 50, 127
2, 313090, Note_on_c, 4, 52, 127
2, 313223, Note_off_c, 4, 52, 127
2, 313225, Note_on_c, 5, 53, 127
2, 313337, Note_off_c, 0, 72, 127
2, 313359, Note_off_c, 5, 53, 127
2, 313361, Note_on_c, 7, 55, 127
2, 313361, Note_on_c, 12, 71, 127
2, 313494, Note_off_c, 7, 55, 127
2, 313496, Note_on_c, 5, 53, 127
2, 313629, Note_off_c, 5, 53, 127
2, 313631, Note_on_c, 4, 52, 127
2, 313719, Note_off_c, 12, 71, 127
2, 313764, Note_off_c, 4, 52, 127
2, 313765, Note_on_c, 5, 53, 127
2, 313765, Note_on_c, 10, 69, 127
2, 313898, Note_off_c, 10, 69, 127
2, 313900, Note_on_c, 12, 71, 127
2, 314033, Note_off_c, 12, 71, 127
2, 314035, Note_on_c, 1, 73, 127
2, 314168, Note_off_c, 1, 73, 127
2, 314170, Note_on_c, 10, 57, 127
2, 314170, Note_on_c, 2, 74, 127
2, 314303, Note_off_c, 2, 74, 127
2, 314305, Note_on_c, 4, 76, 127
2, 314438, Note_off_c, 4, 76, 127
2, 314440, Note_on_c, 5, 77, 127
2, 314573, Note_off_c, 5, 77, 127
2, 314573, Note_off_c, 10, 57, 127
2, 314573, Note_off_c, 5, 53, 127
2, 314575, Note_on_c, 4, 52, 127
2, 314575, Note_on_c, 1, 61, 127
2, 314575, Note_on_c, 7, 79, 127
2, 314708, Note_off_c, 7, 79, 127
2, 314710, Note_on_c, 5, 77, 127
2, 314843, Note_off_c, 5, 77, 127
2, 314845, Note_on_c, 4, 76, 127
2, 314978, Note_off_c, 4, 76, 127
2, 314978, Note_off_c, 1, 61, 127
2, 314978, Note_off_c, 4, 52, 127
2, 314980, Note_on_c, 2, 50, 127
2, 314980, Note_on_c, 2, 62, 127
2, 314980, Note_on_c, 5, 77, 127
2, 315042, Note_on_c, 4, 76, 127
2, 315046, Note_off_c, 5, 77, 127
2, 315102, Note_on_c, 5, 77, 127
2, 315107, Note_off_c, 4, 76, 127
2, 315113, Note_off_c, 2, 62, 127
2, 315113, Note_off_c, 2, 50, 127
2, 315115, Note_on_c, 4, 52, 127
2, 315248, Note_off_c, 4, 52, 127
2, 315250, Note_on_c, 5, 53, 127
2, 315383, Note_off_c, 5, 53, 127
2, 315385, Note_on_c, 7, 55, 127
2, 315518, Note_off_c, 7, 55, 127
2, 315520, Note_on_c, 10, 57, 127
2, 315653, Note_off_c, 10, 57, 127
2, 315654, Note_on_c, 12, 59, 127
2, 315775, Note_off_c, 5, 77, 127
2, 315787, Note_off_c, 12, 59, 127
2, 315789, Note_on_c, 0, 60, 127
2, 315789, Note_on_c, 4, 76, 127
2, 315922, Note_off_c, 0, 60, 127
2, 315924, Note_on_c, 12, 59, 127
2, 316057, Note_off_c, 12, 59, 127
2, 316059, Note_on_c, 10, 57, 127
2, 316192, Note_off_c, 10, 57, 127
2, 316194, Note_on_c, 5, 65, 127
2, 316598, Note_off_c, 5, 65, 127
2, 316598, Note_off_c, 4, 76, 127
2, 316600, Note_on_c, 5, 53, 127
2, 316600, Note_on_c, 2, 74, 127
2, 316801, Note_off_c, 2, 74, 127
2, 316803, Note_on_c, 0, 72, 127
2, 317004, Note_off_c, 0, 72, 127
2, 317004, Note_off_c, 5, 53, 127
2, 317006, Note_on_c, 5, 65, 127
2, 317006, Note_on_c, 12, 71, 127
2, 317207, Note_off_c, 12, 71, 127
2, 317209, Note_on_c, 10, 69, 127
2, 317410, Note_off_c, 10, 69, 127
2, 317410, Note_off_c, 5, 65, 127
2, 317412, Note_on_c, 4, 64, 127
2, 317412, Note_on_c, 10, 69, 127
2, 317613, Note_off_c, 10, 69, 127
2, 317615, Note_on_c, 8, 68, 127
2, 317665, Note_on_c, 10, 69, 127
2, 317680, Note_off_c, 8, 68, 127
2, 317715, Note_on_c, 8, 68, 127
2, 317730, Note_off_c, 10, 69, 127
2, 317766, Note_on_c, 10, 69, 127
2, 317780, Note_off_c, 8, 68, 127
2, 317815, Note_off_c, 4, 64, 127
2, 317816, Note_on_c, 12, 59, 127
2, 317816, Note_on_c, 8, 68, 127
2, 317831, Note_off_c, 10, 69, 127
2, 318017, Note_off_c, 12, 59, 127
2, 318019, Note_on_c, 10, 57, 127
2, 318220, Note_off_c, 10, 57, 127
2, 318222, Note_on_c, 8, 56, 127
2, 318423, Note_off_c, 8, 56, 127
2, 318425, Note_on_c, 6, 54, 127
2, 318558, Note_off_c, 8, 68, 127
2, 318626, Note_off_c, 6, 54, 127
2, 318628, Note_on_c, 4, 52, 127
2, 318628, Note_on_c, 12, 71, 127
2, 318694, Note_off_c, 4, 52, 127
2, 318696, Note_on_c, 2, 50, 127
2, 318762, Note_off_c, 2, 50, 127
2, 318764, Note_on_c, 4, 52, 127
2, 318830, Note_off_c, 12, 71, 127
2, 318832, Note_on_c, 8, 68, 127
2, 319033, Note_off_c, 8, 68, 127
2, 319035, Note_on_c, 4, 64, 127
2, 319236, Note_off_c, 4, 64, 127
2, 319238, Note_on_c, 8, 68, 127
2, 319439, Note_off_c, 8, 68, 127
2, 319441, Note_on_c, 12, 71, 127
2, 319642, Note_off_c, 12, 71, 127
2, 319644, Note_on_c, 2, 74, 127
2, 319845, Note_off_c, 2, 74, 127
2, 319845, Note_off_c, 4, 52, 127
2, 319847, Note_on_c, 4, 52, 127
2, 319847, Note_on_c, 0, 72, 127
2, 319913, Note_off_c, 4, 52, 127
2, 319916, Note_on_c, 2, 50, 127
2, 319982, Note_off_c, 2, 50, 127
2, 319985, Note_on_c, 4, 52, 127
2, 320049, Note_off_c, 0, 72, 127
2, 320051, Note_on_c, 10, 69, 127
2, 320252, Note_off_c, 10, 69, 127
2, 320253, Note_on_c, 4, 64, 127
2, 320454, Note_off_c, 4, 64, 127
2, 320456, Note_on_c, 10, 69, 127
2, 320657, Note_off_c, 10, 69, 127
2, 320659, Note_on_c, 0, 72, 127
2, 320860, Note_off_c, 0, 72, 127
2, 320862, Note_on_c, 4, 76, 127
2, 321063, Note_off_c, 4, 76, 127
2, 321065, Note_on_c, 4, 40, 127
2, 321065, Note_on_c, 12, 71, 127
2, 321065, Note_on_c, 8, 68, 127
2, 321065, Note_on_c, 2, 74, 127
2, 321066, Note_off_c, 4, 52, 127
2, 321198, Note_off_c, 4, 40, 127
2, 321200, Note_on_c, 6, 42, 127
2, 321333, Note_off_c, 6, 42, 127
2, 321335, Note_on_c, 8, 44, 127
2, 321468, Note_off_c, 8, 44, 127
2, 321468, Note_off_c, 2, 74, 127
2, 321468, Note_off_c, 8, 68, 127
2, 321468, Note_off_c, 12, 71, 127
2, 321470, Note_on_c, 10, 45, 127
2, 321470, Note_on_c, 4, 64, 127
2, 321470, Note_on_c, 0, 72, 127
2, 321470, Note_on_c, 10, 69, 127
2, 321603, Note_off_c, 10, 45, 127
2, 321605, Note_on_c, 12, 47, 127
2, 321738, Note_off_c, 12, 47, 127
2, 321740, Note_on_c, 0, 48, 127
2, 321873, Note_off_c, 0, 48, 127
2, 321873, Note_off_c, 10, 69, 127
2, 321873, Note_off_c, 0, 72, 127
2, 321873, Note_off_c, 4, 64, 127
2, 321875, Note_on_c, 2, 50, 127
2, 321875, Note_on_c, 4, 64, 127
2, 321875, Note_on_c, 12, 71, 127
2, 321875, Note_on_c, 8, 68, 127
2, 322008, Note_off_c, 2, 50, 127
2, 322010, Note_on_c, 0, 48, 127
2, 322143, Note_off_c, 0, 48, 127
2, 322144, Note_on_c, 12, 47, 127
2, 322277, Note_off_c, 12, 47, 127
2, 322278, Note_off_c, 8, 68, 127
2, 322278, Note_off_c, 12, 71, 127
2, 322278, Note_off_c, 4, 64, 127
2, 322279, Note_on_c, 12, 47, 127
2, 322279, Note_on_c, 8, 68, 127
2, 322279, Note_on_c, 4, 64, 127
2, 322279, Note_on_c, 4, 76, 127
2, 322279, Note_on_c, 12, 71, 127
2, 322683, Note_off_c, 12, 71, 127
2, 322683, Note_off_c, 4, 76, 127
2, 322683, Note_off_c, 4, 64, 127
2, 322683, Note_off_c, 8, 68, 127
2, 322683, Note_off_c, 12, 47, 127
2, 322685, Note_on_c, 0, 48, 127
2, 322685, Note_on_c, 10, 69, 127
2, 322751, Note_off_c, 0, 48, 127
2, 322753, Note_on_c, 12, 47, 127
2, 322819, Note_off_c, 12, 47, 127
2, 322821, Note_on_c, 0, 48, 127
2, 322887, Note_off_c, 10, 69, 127
2, 322889, Note_on_c, 8, 68, 127
2, 323090, Note_off_c, 8, 68, 127
2, 323090, Note_off_c, 0, 48, 127
2, 323092, Note_on_c, 12, 47, 127
2, 323092, Note_on_c, 10, 69, 127
2, 323293, Note_off_c, 10, 69, 127
2, 323295, Note_on_c, 12, 71, 127
2, 323496, Note_off_c, 12, 71, 127
2, 323496, Note_off_c, 12, 47, 127
2, 323498, Note_on_c, 10, 45, 127
2, 323498, Note_on_c, 0, 72, 127
2, 323631, Note_off_c, 0, 72, 127
2, 323633, Note_on_c, 12, 71, 127
2, 323766, Note_off_c, 12, 71, 127
2, 323768, Note_on_c, 10, 69, 127
2, 323901, Note_off_c, 10, 69, 127
2, 323903, Note_on_c, 4, 52, 127
2, 323903, Note_on_c, 7, 67, 127
2, 324036, Note_off_c, 7, 67, 127
2, 324038, Note_on_c, 5, 65, 127
2, 324171, Note_off_c, 5, 65, 127
2, 324173, Note_on_c, 4, 64, 127
2, 324306, Note_off_c, 4, 64, 127
2, 324306, Note_off_c, 4, 52, 127
2, 324307, Note_on_c, 5, 53, 127
2, 324307, Note_on_c, 2, 62, 127
2, 324440, Note_off_c, 2, 62, 127
2, 324442, Note_on_c, 4, 64, 127
2, 324575, Note_off_c, 4, 64, 127
2, 324577, Note_on_c, 5, 65, 127
2, 324710, Note_off_c, 5, 65, 127
2, 324710, Note_off_c, 10, 45, 127
2, 324712, Note_on_c, 12, 47, 127
2, 324712, Note_on_c, 7, 67, 127
2, 324845, Note_off_c, 7, 67, 127
2, 324847, Note_on_c, 10, 69, 127
2, 324980, Note_off_c, 10, 69, 127
2, 324982, Note_on_c, 12, 71, 127
2, 325115, Note_off_c, 12, 71, 127
2, 325115, Note_off_c, 5, 53, 127
2, 325117, Note_on_c, 4, 52, 127
2, 325117, Note_on_c, 0, 72, 127
2, 325250, Note_off_c, 0, 72, 127
2, 325252, Note_on_c, 2, 74, 127
2, 325385, Note_off_c, 2, 74, 127
2, 325387, Note_on_c, 4, 76, 127
2, 325520, Note_off_c, 4, 76, 127
2, 325520, Note_off_c, 4, 52, 127
2, 325522, Note_on_c, 2, 50, 127
2, 325522, Note_on_c, 5, 77, 127
2, 325655, Note_off_c, 5, 77, 127
2, 325657, Note_on_c, 4, 76, 127
2, 325790, Note_off_c, 4, 76, 127
2, 325792, Note_on_c, 2, 74, 127
2, 325924, Note_off_c, 12, 47, 127
2, 325925, Note_off_c, 2, 74, 127
2, 325925, Note_off_c, 2, 50, 127
2, 325927, Note_on_c, 4, 52, 127
2, 325927, Note_on_c, 7, 79, 127
2, 326128, Note_off_c, 4, 52, 127
2, 326130, Note_on_c, 4, 40, 127
2, 326331, Note_off_c, 4, 40, 127
2, 326331, Note_off_c, 7, 79, 127
2, 326332, Note_on_c, 5, 41, 127
2, 326332, Note_on_c, 0, 72, 127
2, 326332, Note_on_c, 4, 64, 127
2, 326533, Note_off_c, 5, 41, 127
2, 326535, Note_on_c, 5, 53, 127
2, 326736, Note_off_c, 5, 53, 127
2, 326736, Note_off_c, 4, 64, 127
2, 326736, Note_off_c, 0, 72, 127
2, 326738, Note_on_c, 7, 43, 127
2, 326738, Note_on_c, 2, 62, 127
2, 326738, Note_on_c, 12, 71, 127
2, 326939, Note_off_c, 7, 43, 127
2, 326941, Note_on_c, 7, 55, 127
2, 327142, Note_off_c, 7, 55, 127
2, 327142, Note_off_c, 12, 71, 127
2, 327142, Note_off_c, 2, 62, 127
2, 327144, Note_on_c, 0, 48, 127
2, 327144, Note_on_c, 2, 62, 127
2, 327144, Note_on_c, 12, 71, 127
2, 327277, Note_off_c, 0, 48, 127
2, 327279, Note_on_c, 0, 60, 127
2, 327412, Note_off_c, 0, 60, 127
2, 327414, Note_on_c, 12, 59, 127
2, 327547, Note_off_c, 12, 59, 127
2, 327547, Note_off_c, 12, 71, 127
2, 327547, Note_off_c, 2, 62, 127
2, 327549, Note_on_c, 10, 57, 127
2, 327549, Note_on_c, 0, 72, 127
2, 327549, Note_on_c, 4, 64, 127
2, 327682, Note_off_c, 10, 57, 127
2, 327684, Note_on_c, 7, 55, 127
2, 327817, Note_off_c, 7, 55, 127
2, 327819, Note_on_c, 5, 53, 127
2, 327952, Note_off_c, 5, 53, 127
2, 327954, Note_on_c, 4, 52, 127
2, 328087, Note_off_c, 4, 52, 127
2, 328089, Note_on_c, 5, 53, 127
2, 328222, Note_off_c, 5, 53, 127
2, 328224, Note_on_c, 7, 55, 127
2, 328357, Note_off_c, 7, 55, 127
2, 328357, Note_off_c, 4, 64, 127
2, 328357, Note_off_c, 0, 72, 127
2, 328358, Note_on_c, 0, 48, 127
2, 328358, Note_on_c, 7, 79, 127
2, 328407, Note_off_c, 7, 79, 127
2, 328419, Note_on_c, 5, 77, 127
2, 328468, Note_off_c, 5, 77, 127
2, 328480, Note_on_c, 7, 79, 127
2, 328490, Note_off_c, 0, 48, 127
2, 328492, Note_on_c, 7, 55, 127
2, 328625, Note_off_c, 7, 55, 127
2, 328627, Note_on_c, 5, 53, 127
2, 328760, Note_off_c, 5, 53, 127
2, 328762, Note_on_c, 4, 52, 127
2, 328895, Note_off_c, 4, 52, 127
2, 328897, Note_on_c, 2, 50, 127
2, 329030, Note_off_c, 2, 50, 127
2, 329032, Note_on_c, 0, 48, 127
2, 329165, Note_off_c, 0, 48, 127
2, 329167, Note_on_c, 12, 47, 127
2, 329300, Note_off_c, 12, 47, 127
2, 329302, Note_on_c, 1, 49, 127
2, 329435, Note_off_c, 1, 49, 127
2, 329437, Note_on_c, 2, 50, 127
2, 329534, Note_off_c, 7, 79, 127
2, 329570, Note_off_c, 2, 50, 127
2, 329572, Note_on_c, 1, 49, 127
2, 329572, Note_on_c, 10, 81, 127
2, 329630, Note_on_c, 7, 79, 127
2, 329637, Note_off_c, 10, 81, 127
2, 329687, Note_on_c, 5, 77, 127
2, 329695, Note_off_c, 7, 79, 127
2, 329704, Note_off_c, 1, 49, 127
2, 329706, Note_on_c, 11, 58, 127
2, 329745, Note_on_c, 7, 79, 127
2, 329752, Note_off_c, 5, 77, 127
2, 329839, Note_off_c, 11, 58, 127
2, 329841, Note_on_c, 10, 57, 127
2, 329974, Note_off_c, 10, 57, 127
2, 329976, Note_on_c, 7, 55, 127
2, 330109, Note_off_c, 7, 55, 127
2, 330111, Note_on_c, 5, 53, 127
2, 330244, Note_off_c, 5, 53, 127
2, 330245, Note_on_c, 4, 52, 127
2, 330378, Note_off_c, 4, 52, 127
2, 330380, Note_on_c, 2, 50, 127
2, 330513, Note_off_c, 2, 50, 127
2, 330515, Note_on_c, 4, 52, 127
2, 330648, Note_off_c, 4, 52, 127
2, 330650, Note_on_c, 5, 53, 127
2, 330756, Note_off_c, 7, 79, 127
2, 330784, Note_off_c, 5, 53, 127
2, 330786, Note_on_c, 4, 52, 127
2, 330786, Note_on_c, 11, 82, 127
2, 330919, Note_off_c, 11, 82, 127
2, 330919, Note_off_c, 4, 52, 127
2, 330921, Note_on_c, 5, 53, 127
2, 330921, Note_on_c, 10, 81, 127
2, 331054, Note_off_c, 10, 81, 127
2, 331054, Note_off_c, 5, 53, 127
2, 331056, Note_on_c, 7, 55, 127
2, 331056, Note_on_c, 7, 79, 127
2, 331189, Note_off_c, 7, 79, 127
2, 331189, Note_off_c, 7, 55, 127
2, 331191, Note_on_c, 10, 57, 127
2, 331191, Note_on_c, 5, 77, 127
2, 331324, Note_off_c, 5, 77, 127
2, 331326, Note_on_c, 4, 76, 127
2, 331459, Note_off_c, 4, 76, 127
2, 331461, Note_on_c, 2, 74, 127
2, 331594, Note_off_c, 2, 74, 127
2, 331594, Note_off_c, 10, 57, 127
2, 331596, Note_on_c, 10, 45, 127
2, 331596, Note_on_c, 1, 73, 127
2, 331729, Note_off_c, 1, 73, 127
2, 331731, Note_on_c, 2, 74, 127
2, 331864, Note_off_c, 2, 74, 127
2, 331866, Note_on_c, 4, 76, 127
2, 331999, Note_off_c, 4, 76, 127
2, 331999, Note_off_c, 10, 45, 127
2, 332001, Note_on_c, 2, 50, 127
2, 332001, Note_on_c, 4, 76, 127
2, 332134, Note_off_c, 2, 50, 127
2, 332135, Note_on_c, 4, 52, 127
2, 332268, Note_off_c, 4, 52, 127
2, 332270, Note_on_c, 5, 53, 127
2, 332403, Note_off_c, 5, 53, 127
2, 332404, Note_off_c, 4, 76, 127
2, 332405, Note_on_c, 7, 55, 127
2, 332405, Note_on_c, 5, 77, 127
2, 332455, Note_off_c, 5, 77, 127
2, 332456, Note_on_c, 4, 76, 127
2, 332506, Note_off_c, 4, 76, 127
2, 332506, Note_on_c, 5, 77, 127
2, 332538, Note_off_c, 7, 55, 127
2, 332540, Note_on_c, 10, 57, 127
2, 332673, Note_off_c, 10, 57, 127
2, 332675, Note_on_c, 12, 59, 127
2, 332801, Note_off_c, 5, 77, 127
2, 332808, Note_off_c, 12, 59, 127
2, 332810, Note_on_c, 0, 60, 127
2, 332810, Note_on_c, 4, 76, 127
2, 332943, Note_off_c, 0, 60, 127
2, 332945, Note_on_c, 12, 59, 127
2, 333078, Note_off_c, 12, 59, 127
2, 333080, Note_on_c, 10, 57, 127
2, 333213, Note_off_c, 10, 57, 127
2, 333213, Note_off_c, 4, 76, 127
2, 333215, Note_on_c, 12, 59, 127
2, 333215, Note_on_c, 8, 68, 127
2, 333348, Note_off_c, 8, 68, 127
2, 333348, Note_off_c, 12, 59, 127
2, 333350, Note_on_c, 0, 60, 127
2, 333350, Note_on_c, 10, 69, 127
2, 333483, Note_off_c, 10, 69, 127
2, 333483, Note_off_c, 0, 60, 127
2, 333485, Note_on_c, 2, 62, 127
2, 333485, Note_on_c, 12, 71, 127
2, 333618, Note_off_c, 12, 71, 127
2, 333618, Note_off_c, 2, 62, 127
2, 333620, Note_on_c, 4, 64, 127
2, 333620, Note_on_c, 0, 72, 127
2, 333753, Note_off_c, 0, 72, 127
2, 333753, Note_off_c, 4, 64, 127
2, 333755, Note_on_c, 6, 66, 127
2, 333755, Note_on_c, 2, 74, 127
2, 333888, Note_off_c, 2, 74, 127
2, 333888, Note_off_c, 6, 66, 127
2, 333890, Note_on_c, 8, 68, 127
2, 333890, Note_on_c, 4, 76, 127
2, 334023, Note_off_c, 4, 76, 127
2, 334023, Note_off_c, 8, 68, 127
2, 334025, Note_on_c, 10, 69, 127
2, 334025, Note_on_c, 5, 77, 127
2, 334158, Note_off_c, 5, 77, 127
2, 334158, Note_off_c, 10, 69, 127
2, 334159, Note_on_c, 7, 67, 127
2, 334159, Note_on_c, 4, 76, 127
2, 334292, Note_off_c, 4, 76, 127
2, 334292, Note_off_c, 7, 67, 127
2, 334294, Note_on_c, 5, 65, 127
2, 334294, Note_on_c, 2, 74, 127
2, 334427, Note_off_c, 2, 74, 127
2, 334427, Note_off_c, 5, 65, 127
2, 334429, Note_on_c, 4, 64, 127
2, 334429, Note_on_c, 10, 81, 127
2, 334562, Note_off_c, 4, 64, 127
2, 334564, Note_on_c, 2, 62, 127
2, 334631, Note_off_c, 10, 81, 127
2, 334632, Note_on_c, 8, 80, 127
2, 334698, Note_off_c, 8, 80, 127
2, 334698, Note_off_c, 2, 62, 127
2, 334700, Note_on_c, 0, 60, 127
2, 334700, Note_on_c, 10, 81, 127
2, 334766, Note_off_c, 10, 81, 127
2, 334768, Note_on_c, 8, 80, 127
2, 334834, Note_off_c, 8, 80, 127
2, 334834, Note_off_c, 0, 60, 127
2, 334836, Note_on_c, 12, 59, 127
2, 334836, Note_on_c, 10, 81, 127
2, 334902, Note_off_c, 10, 81, 127
2, 334904, Note_on_c, 8, 80, 127
2, 334970, Note_off_c, 8, 80, 127
2, 334970, Note_off_c, 12, 59, 127
2, 334972, Note_on_c, 0, 60, 127
2, 334972, Note_on_c, 10, 81, 127
2, 335038, Note_off_c, 10, 81, 127
2, 335040, Note_on_c, 8, 80, 127
2, 335106, Note_off_c, 8, 80, 127
2, 335106, Note_off_c, 0, 60, 127
2, 335108, Note_on_c, 2, 62, 127
2, 335108, Note_on_c, 6, 78, 127
2, 335174, Note_off_c, 6, 78, 127
2, 335176, Note_on_c, 8, 80, 127
2, 335242, Note_off_c, 8, 80, 127
2, 335242, Note_off_c, 2, 62, 127
2, 335244, Note_on_c, 0, 60, 127
2, 335244, Note_on_c, 10, 81, 127
2, 335377, Note_off_c, 0, 60, 127
2, 335379, Note_on_c, 12, 59, 127
2, 335512, Note_off_c, 12, 59, 127
2, 335514, Note_on_c, 10, 57, 127
2, 335647, Note_off_c, 10, 57, 127
2, 335649, Note_on_c, 5, 53, 127
2, 335782, Note_off_c, 5, 53, 127
2, 335784, Note_on_c, 4, 52, 127
2, 335850, Note_off_c, 10, 81, 127
2, 335918, Note_off_c, 4, 52, 127
2, 335920, Note_on_c, 3, 51, 127
2, 336053, Note_off_c, 3, 51, 127
2, 336055, Note_on_c, 4, 52, 127
2, 336055, Note_on_c, 4, 76, 127
2, 336114, Note_on_c, 2, 50, 127
2, 336122, Note_off_c, 4, 52, 127
2, 336174, Note_on_c, 4, 52, 127
2, 336181, Note_off_c, 2, 50, 127
2, 336262, Note_off_c, 4, 76, 127
2, 336263, Note_on_c, 2, 74, 127
2, 336470, Note_off_c, 2, 74, 127
2, 336471, Note_on_c, 4, 40, 127
2, 336471, Note_on_c, 0, 72, 127
2, 336678, Note_off_c, 0, 72, 127
2, 336679, Note_on_c, 12, 71, 127
2, 336878, Note_off_c, 4, 52, 127
2, 336886, Note_off_c, 12, 71, 127
2, 336886, Note_off_c, 4, 40, 127
2, 336887, Note_on_c, 10, 45, 127
2, 336887, Note_on_c, 10, 69, 127
2, 337345, Note_on_c, 0, 48, 127
2, 337573, Note_off_c, 0, 48, 127
2, 337575, Note_on_c, 4, 52, 127
2, 337805, Note_on_c, 10, 57, 127
2, 337819, Note_off_c, 4, 52, 127
2, 339710, Note_off_c, 10, 57, 127
2, 339715, Note_off_c, 10, 69, 127
2, 339715, Note_off_c, 10, 45, 127
2, 340415, Note_on_c, 4, 76, 127
2, 340602, Note_off_c, 4, 76, 127
2, 340603, Note_on_c, 4, 76, 127
2, 340790, Note_off_c, 4, 76, 127
2, 340792, Note_on_c, 2, 74, 127
2, 340979, Note_off_c, 2, 74, 127
2, 340980, Note_on_c, 0, 72, 127
2, 341167, Note_off_c, 0, 72, 127
2, 341169, Note_on_c, 2, 74, 127
2, 341261, Note_off_c, 2, 74, 127
2, 341262, Note_on_c, 0, 72, 127
2, 341354, Note_off_c, 0, 72, 127
2, 341356, Note_on_c, 12, 71, 127
2, 341543, Note_off_c, 12, 71, 127
2, 341545, Note_on_c, 10, 69, 127
2, 341732, Note_off_c, 10, 69, 127
2, 341733, Note_on_c, 10, 69, 127
2, 341922, Note_on_c, 7, 67, 127
2, 342109, Note_off_c, 7, 67, 127
2, 342110, Note_on_c, 5, 65, 127
2, 342297, Note_off_c, 5, 65, 127
2, 342299, Note_on_c, 5, 65, 127
2, 342485, Note_off_c, 10, 69, 127
2, 342486, Note_off_c, 5, 65, 127
2, 342487, Note_on_c, 4, 64, 127
2, 342674, Note_off_c, 4, 64, 127
2, 342675, Note_on_c, 10, 69, 127
2, 342675, Note_on_c, 2, 62, 127
2, 342862, Note_off_c, 2, 62, 127
2, 342862, Note_off_c, 10, 69, 127
2, 342864, Note_on_c, 12, 71, 127
2, 342864, Note_on_c, 2, 62, 127
2, 342956, Note_off_c, 2, 62, 127
2, 342956, Note_off_c, 12, 71, 127
2, 342958, Note_on_c, 4, 64, 127
2, 342958, Note_on_c, 0, 72, 127
2, 343050, Note_off_c, 0, 72, 127
2, 343050, Note_off_c, 4, 64, 127
2, 343051, Note_on_c, 2, 74, 127
2, 343051, Note_on_c, 5, 65, 127
2, 343238, Note_off_c, 5, 65, 127
2, 343238, Note_off_c, 2, 74, 127
2, 343240, Note_on_c, 4, 64, 127
2, 343240, Note_on_c, 0, 72, 127
2, 343427, Note_off_c, 0, 72, 127
2, 343427, Note_off_c, 4, 64, 127
2, 343428, Note_on_c, 12, 71, 127
2, 343428, Note_on_c, 2, 62, 127
2, 343615, Note_off_c, 2, 62, 127
2, 343615, Note_off_c, 12, 71, 127
2, 343617, Note_on_c, 8, 68, 127
2, 343617, Note_on_c, 12, 59, 127
2, 343804, Note_off_c, 12, 59, 127
2, 343804, Note_off_c, 8, 68, 127
2, 343805, Note_on_c, 4, 52, 127
2, 343805, Note_on_c, 0, 60, 127
2, 343805, Note_on_c, 10, 69, 127
2, 343992, Note_off_c, 10, 69, 127
2, 343992, Note_off_c, 0, 60, 127
2, 343992, Note_off_c, 4, 52, 127
2, 343994, Note_on_c, 4, 52, 127
2, 343994, Note_on_c, 12, 59, 127
2, 343994, Note_on_c, 10, 69, 127
2, 344181, Note_off_c, 10, 69, 127
2, 344181, Note_off_c, 4, 52, 127
2, 344182, Note_on_c, 2, 50, 127
2, 344182, Note_on_c, 8, 68, 127
2, 344366, Note_off_c, 12, 59, 127
2, 344369, Note_off_c, 8, 68, 127
2, 344369, Note_off_c, 2, 50, 127
2, 344371, Note_on_c, 0, 48, 127
2, 344371, Note_on_c, 4, 64, 127
2, 344558, Note_off_c, 4, 64, 127
2, 344558, Note_off_c, 0, 48, 127
2, 344559, Note_on_c, 0, 48, 127
2, 344559, Note_on_c, 10, 69, 127
2, 344651, Note_off_c, 10, 69, 127
2, 344653, Note_on_c, 12, 71, 127
2, 344745, Note_off_c, 12, 71, 127
2, 344745, Note_off_c, 0, 48, 127
2, 344747, Note_on_c, 12, 47, 127
2, 344747, Note_on_c, 0, 72, 127
2, 344808, Note_off_c, 0, 72, 127
2, 344810, Note_on_c, 12, 71, 127
2, 344871, Note_off_c, 12, 71, 127
2, 344872, Note_on_c, 0, 72, 127
2, 344933, Note_off_c, 0, 72, 127
2, 344934, Note_off_c, 12, 47, 127
2, 344935, Note_on_c, 10, 45, 127
2, 344935, Note_on_c, 12, 71, 127
2, 344996, Note_off_c, 12, 71, 127
2, 344998, Note_on_c, 10, 69, 127
2, 345059, Note_off_c, 10, 69, 127
2, 345061, Note_on_c, 12, 71, 127
2, 345122, Note_off_c, 12, 71, 127
2, 345122, Note_off_c, 10, 45, 127
2, 345124, Note_on_c, 10, 45, 127
2, 345124, Note_on_c, 0, 72, 127
2, 345311, Note_off_c, 0, 72, 127
2, 345311, Note_off_c, 10, 45, 127
2, 345312, Note_on_c, 0, 48, 127
2, 345312, Note_on_c, 12, 71, 127
2, 345404, Note_off_c, 12, 71, 127
2, 345406, Note_on_c, 10, 69, 127
2, 345498, Note_off_c, 10, 69, 127
2, 345498, Note_off_c, 0, 48, 127
2, 345500, Note_on_c, 4, 52, 127
2, 345500, Note_on_c, 12, 71, 127
2, 345687, Note_off_c, 12, 71, 127
2, 345687, Note_off_c, 4, 52, 127
2, 345688, Note_on_c, 10, 57, 127
2, 345688, Note_on_c, 0, 72, 127
2, 345780, Note_off_c, 0, 72, 127
2, 345780, Note_off_c, 10, 57, 127
2, 345782, Note_on_c, 12, 59, 127
2, 345782, Note_on_c, 2, 74, 127
2, 345874, Note_off_c, 2, 74, 127
2, 345874, Note_off_c, 12, 59, 127
2, 345876, Note_on_c, 0, 60, 127
2, 345876, Note_on_c, 4, 76, 127
2, 345937, Note_off_c, 4, 76, 127
2, 345937, Note_off_c, 0, 60, 127
2, 345939, Note_on_c, 12, 59, 127
2, 345939, Note_on_c, 2, 74, 127
2, 346000, Note_off_c, 2, 74, 127
2, 346000, Note_off_c, 12, 59, 127
2, 346001, Note_on_c, 0, 60, 127
2, 346001, Note_on_c, 4, 76, 127
2, 346062, Note_off_c, 4, 76, 127
2, 346062, Note_off_c, 0, 60, 127
2, 346064, Note_on_c, 12, 59, 127
2, 346064, Note_on_c, 2, 74, 127
2, 346125, Note_off_c, 2, 74, 127
2, 346125, Note_off_c, 12, 59, 127
2, 346127, Note_on_c, 10, 57, 127
2, 346127, Note_on_c, 0, 72, 127
2, 346188, Note_off_c, 0, 72, 127
2, 346188, Note_off_c, 10, 57, 127
2, 346190, Note_on_c, 12, 59, 127
2, 346190, Note_on_c, 2, 74, 127
2, 346251, Note_off_c, 2, 74, 127
2, 346251, Note_off_c, 12, 59, 127
2, 346253, Note_on_c, 0, 60, 127
2, 346253, Note_on_c, 4, 76, 127
2, 346440, Note_off_c, 4, 76, 127
2, 346440, Note_off_c, 0, 60, 127
2, 346441, Note_on_c, 12, 59, 127
2, 346441, Note_on_c, 2, 74, 127
2, 346533, Note_off_c, 2, 74, 127
2, 346533, Note_off_c, 12, 59, 127
2, 346535, Note_on_c, 10, 57, 127
2, 346535, Note_on_c, 0, 72, 127
2, 346627, Note_off_c, 0, 72, 127
2, 346627, Note_off_c, 10, 57, 127
2, 346629, Note_on_c, 12, 59, 127
2, 346629, Note_on_c, 2, 74, 127
2, 346816, Note_off_c, 2, 74, 127
2, 346816, Note_off_c, 12, 59, 127
2, 346817, Note_on_c, 0, 60, 127
2, 346817, Note_on_c, 4, 76, 127
2, 346909, Note_off_c, 4, 76, 127
2, 346909, Note_off_c, 0, 60, 127
2, 346911, Note_on_c, 2, 62, 127
2, 346911, Note_on_c, 5, 77, 127
2, 347003, Note_off_c, 5, 77, 127
2, 347003, Note_off_c, 2, 62, 127
2, 347005, Note_on_c, 4, 64, 127
2, 347005, Note_on_c, 7, 79, 127
2, 347066, Note_off_c, 7, 79, 127
2, 347066, Note_off_c, 4, 64, 127
2, 347067, Note_on_c, 2, 62, 127
2, 347067, Note_on_c, 5, 77, 127
2, 347128, Note_off_c, 5, 77, 127
2, 347128, Note_off_c, 2, 62, 127
2, 347130, Note_on_c, 4, 64, 127
2, 347130, Note_on_c, 7, 79, 127
2, 347191, Note_off_c, 7, 79, 127
2, 347191, Note_off_c, 4, 64, 127
2, 347193, Note_on_c, 2, 62, 127
2, 347193, Note_on_c, 5, 77, 127
2, 347254, Note_off_c, 5, 77, 127
2, 347254, Note_off_c, 2, 62, 127
2, 347256, Note_on_c, 0, 60, 127
2, 347256, Note_on_c, 4, 76, 127
2, 347317, Note_off_c, 4, 76, 127
2, 347317, Note_off_c, 0, 60, 127
2, 347319, Note_on_c, 2, 62, 127
2, 347319, Note_on_c, 5, 77, 127
2, 347380, Note_off_c, 5, 77, 127
2, 347380, Note_off_c, 2, 62, 127
2, 347382, Note_on_c, 4, 64, 127
2, 347382, Note_on_c, 7, 79, 127
2, 347569, Note_off_c, 4, 64, 127
2, 347570, Note_on_c, 2, 62, 127
2, 347757, Note_off_c, 2, 62, 127
2, 347759, Note_on_c, 1, 61, 127
2, 347759, Note_on_c, 4, 76, 127
2, 347946, Note_off_c, 4, 76, 127
2, 347946, Note_off_c, 1, 61, 127
2, 347947, Note_on_c, 1, 61, 127
2, 347947, Note_on_c, 10, 69, 127
2, 348134, Note_off_c, 1, 61, 127
2, 348134, Note_off_c, 7, 79, 127
2, 348136, Note_on_c, 12, 59, 127
2, 348136, Note_on_c, 10, 81, 127
2, 348228, Note_off_c, 10, 81, 127
2, 348229, Note_on_c, 7, 79, 127
2, 348321, Note_off_c, 7, 79, 127
2, 348322, Note_off_c, 12, 59, 127
2, 348323, Note_on_c, 10, 57, 127
2, 348323, Note_on_c, 5, 77, 127
2, 348415, Note_off_c, 5, 77, 127
2, 348417, Note_on_c, 4, 76, 127
2, 348509, Note_off_c, 4, 76, 127
2, 348509, Note_off_c, 10, 57, 127
2, 348509, Note_off_c, 10, 69, 127
2, 348510, Note_on_c, 2, 62, 127
2, 348510, Note_on_c, 5, 77, 127
2, 348697, Note_off_c, 2, 62, 127
2, 348699, Note_on_c, 0, 60, 127
2, 348886, Note_off_c, 0, 60, 127
2, 348887, Note_on_c, 12, 59, 127
2, 348887, Note_on_c, 2, 74, 127
2, 349074, Note_off_c, 2, 74, 127
2, 349074, Note_off_c, 12, 59, 127
2, 349076, Note_on_c, 12, 59, 127
2, 349076, Note_on_c, 7, 67, 127
2, 349262, Note_off_c, 5, 77, 127
2, 349263, Note_off_c, 12, 59, 127
2, 349264, Note_on_c, 10, 57, 127
2, 349264, Note_on_c, 7, 79, 127
2, 349356, Note_off_c, 7, 79, 127
2, 349358, Note_on_c, 5, 77, 127
2, 349450, Note_off_c, 5, 77, 127
2, 349450, Note_off_c, 10, 57, 127
2, 349452, Note_on_c, 7, 55, 127
2, 349452, Note_on_c, 4, 76, 127
2, 349544, Note_off_c, 4, 76, 127
2, 349546, Note_on_c, 2, 74, 127
2, 349638, Note_off_c, 2, 74, 127
2, 349638, Note_off_c, 7, 55, 127
2, 349638, Note_off_c, 7, 67, 127
2, 349639, Note_on_c, 0, 60, 127
2, 349639, Note_on_c, 4, 76, 127
2, 349826, Note_off_c, 0, 60, 127
2, 349828, Note_on_c, 12, 59, 127
2, 350015, Note_off_c, 12, 59, 127
2, 350016, Note_on_c, 10, 57, 127
2, 350016, Note_on_c, 0, 72, 127
2, 350203, Note_off_c, 0, 72, 127
2, 350203, Note_off_c, 10, 57, 127
2, 350205, Note_on_c, 10, 57, 127
2, 350205, Note_on_c, 5, 65, 127
2, 350391, Note_off_c, 4, 76, 127
2, 350392, Note_off_c, 10, 57, 127
2, 350393, Note_on_c, 7, 55, 127
2, 350393, Note_on_c, 5, 77, 127
2, 350485, Note_off_c, 5, 77, 127
2, 350487, Note_on_c, 4, 76, 127
2, 350579, Note_off_c, 4, 76, 127
2, 350579, Note_off_c, 7, 55, 127
2, 350581, Note_on_c, 5, 53, 127
2, 350581, Note_on_c, 2, 74, 127
2, 350673, Note_off_c, 2, 74, 127
2, 350674, Note_on_c, 0, 72, 127
2, 350766, Note_off_c, 0, 72, 127
2, 350767, Note_off_c, 5, 53, 127
2, 350768, Note_on_c, 7, 55, 127
2, 350768, Note_on_c, 12, 71, 127
2, 350955, Note_off_c, 12, 71, 127
2, 350957, Note_on_c, 0, 72, 127
2, 351049, Note_off_c, 0, 72, 127
2, 351050, Note_on_c, 12, 71, 127
2, 351142, Note_off_c, 12, 71, 127
2, 351144, Note_on_c, 10, 69, 127
2, 351236, Note_off_c, 10, 69, 127
2, 351238, Note_on_c, 7, 67, 127
2, 351329, Note_off_c, 5, 65, 127
2, 351330, Note_off_c, 7, 67, 127
2, 351332, Note_on_c, 4, 64, 127
2, 351332, Note_on_c, 0, 72, 127
2, 351519, Note_off_c, 0, 72, 127
2, 351519, Note_off_c, 4, 64, 127
2, 351520, Note_on_c, 5, 65, 127
2, 351520, Note_on_c, 2, 74, 127
2, 351612, Note_off_c, 2, 74, 127
2, 351612, Note_off_c, 5, 65, 127
2, 351614, Note_on_c, 4, 64, 127
2, 351614, Note_on_c, 0, 72, 127
2, 351706, Note_off_c, 0, 72, 127
2, 351706, Note_off_c, 4, 64, 127
2, 351708, Note_on_c, 12, 71, 127
2, 351708, Note_on_c, 2, 62, 127
2, 351800, Note_off_c, 2, 62, 127
2, 351800, Note_off_c, 12, 71, 127
2, 351801, Note_on_c, 0, 60, 127
2, 351801, Note_on_c, 0, 72, 127
2, 351893, Note_off_c, 0, 72, 127
2, 351893, Note_off_c, 0, 60, 127
2, 351895, Note_on_c, 12, 59, 127
2, 351895, Note_on_c, 2, 74, 127
2, 352082, Note_off_c, 2, 74, 127
2, 352082, Note_off_c, 12, 59, 127
2, 352084, Note_on_c, 4, 76, 127
2, 352084, Note_on_c, 0, 60, 127
2, 352176, Note_off_c, 0, 60, 127
2, 352176, Note_off_c, 4, 76, 127
2, 352177, Note_on_c, 12, 59, 127
2, 352177, Note_on_c, 2, 74, 127
2, 352269, Note_off_c, 2, 74, 127
2, 352269, Note_off_c, 12, 59, 127
2, 352271, Note_on_c, 0, 72, 127
2, 352271, Note_on_c, 10, 57, 127
2, 352363, Note_off_c, 10, 57, 127
2, 352363, Note_off_c, 0, 72, 127
2, 352365, Note_on_c, 12, 59, 127
2, 352365, Note_on_c, 2, 74, 127
2, 352457, Note_off_c, 2, 74, 127
2, 352457, Note_off_c, 12, 59, 127
2, 352458, Note_on_c, 4, 76, 127
2, 352458, Note_on_c, 0, 60, 127
2, 352645, Note_off_c, 0, 60, 127
2, 352645, Note_off_c, 4, 76, 127
2, 352647, Note_on_c, 5, 77, 127
2, 352647, Note_on_c, 2, 62, 127
2, 352739, Note_off_c, 2, 62, 127
2, 352739, Note_off_c, 5, 77, 127
2, 352741, Note_on_c, 4, 76, 127
2, 352741, Note_on_c, 0, 60, 127
2, 352833, Note_off_c, 0, 60, 127
2, 352833, Note_off_c, 4, 76, 127
2, 352834, Note_on_c, 12, 59, 127
2, 352834, Note_on_c, 2, 74, 127
2, 352926, Note_off_c, 2, 74, 127
2, 352926, Note_off_c, 12, 59, 127
2, 352928, Note_on_c, 4, 76, 127
2, 352928, Note_on_c, 0, 60, 127
2, 353020, Note_off_c, 0, 60, 127
2, 353020, Note_off_c, 4, 76, 127
2, 353022, Note_on_c, 5, 77, 127
2, 353022, Note_on_c, 2, 62, 127
2, 353209, Note_off_c, 7, 55, 127
2, 353210, Note_on_c, 5, 53, 127
2, 353397, Note_off_c, 5, 53, 127
2, 353399, Note_on_c, 4, 52, 127
2, 353586, Note_off_c, 4, 52, 127
2, 353586, Note_off_c, 2, 62, 127
2, 353586, Note_off_c, 5, 77, 127
2, 353587, Note_on_c, 4, 52, 127
2, 353774, Note_off_c, 4, 52, 127
2, 353776, Note_on_c, 2, 50, 127
2, 353963, Note_off_c, 2, 50, 127
2, 353964, Note_on_c, 0, 48, 127
2, 353964, Note_on_c, 4, 76, 127
2, 353964, Note_on_c, 7, 79, 127
2, 354151, Note_off_c, 7, 79, 127
2, 354151, Note_off_c, 4, 76, 127
2, 354151, Note_off_c, 0, 48, 127
2, 354153, Note_on_c, 0, 48, 127
2, 354153, Note_on_c, 0, 72, 127
2, 354153, Note_on_c, 4, 76, 127
2, 354340, Note_off_c, 4, 76, 127
2, 354340, Note_off_c, 0, 72, 127
2, 354341, Note_on_c, 12, 71, 127
2, 354341, Note_on_c, 2, 74, 127
2, 354528, Note_off_c, 2, 74, 127
2, 354528, Note_off_c, 12, 71, 127
2, 354528, Note_off_c, 0, 48, 127
2, 354530, Note_on_c, 5, 53, 127
2, 354530, Note_on_c, 10, 69, 127
2, 354530, Note_on_c, 0, 72, 127
2, 354717, Note_off_c, 0, 72, 127
2, 354717, Note_off_c, 5, 53, 127
2, 354718, Note_on_c, 7, 55, 127
2, 354718, Note_on_c, 0, 72, 127
2, 354791, Note_off_c, 0, 72, 127
2, 354792, Note_on_c, 12, 71, 127
2, 354847, Note_off_c, 12, 71, 127
2, 354849, Note_on_c, 0, 72, 127
2, 354901, Note_off_c, 10, 69, 127
2, 354904, Note_off_c, 0, 72, 127
2, 354906, Note_on_c, 7, 67, 127
2, 354906, Note_on_c, 12, 71, 127
2, 355092, Note_off_c, 7, 55, 127
2, 355093, Note_off_c, 12, 71, 127
2, 355093, Note_off_c, 7, 67, 127
2, 355094, Note_on_c, 7, 43, 127
2, 355094, Note_on_c, 5, 65, 127
2, 355094, Note_on_c, 0, 72, 127
2, 355281, Note_off_c, 0, 72, 127
2, 355281, Note_off_c, 5, 65, 127
2, 355281, Note_off_c, 7, 43, 127
2, 355283, Note_on_c, 0, 48, 127
2, 355283, Note_on_c, 4, 64, 127
2, 355283, Note_on_c, 0, 72, 127
2, 355470, Note_off_c, 0, 72, 127
2, 355471, Note_on_c, 12, 71, 127
2, 355658, Note_off_c, 12, 71, 127
2, 355660, Note_on_c, 10, 69, 127
2, 355847, Note_off_c, 10, 69, 127
2, 355848, Note_on_c, 10, 69, 127
2, 356035, Note_off_c, 10, 69, 127
2, 356035, Note_off_c, 0, 48, 127
2, 356037, Note_on_c, 7, 67, 127
2, 356224, Note_off_c, 7, 67, 127
2, 356225, Note_on_c, 10, 45, 127
2, 356225, Note_on_c, 6, 66, 127
2, 356412, Note_off_c, 6, 66, 127
2, 356412, Note_off_c, 10, 45, 127
2, 356414, Note_on_c, 2, 50, 127
2, 356414, Note_on_c, 6, 66, 127
2, 356601, Note_off_c, 2, 50, 127
2, 356602, Note_on_c, 0, 48, 127
2, 356784, Note_off_c, 4, 64, 127
2, 356789, Note_off_c, 0, 48, 127
2, 356791, Note_on_c, 12, 47, 127
2, 356791, Note_on_c, 10, 57, 127
2, 356978, Note_off_c, 10, 57, 127
2, 356978, Note_off_c, 12, 47, 127
2, 356979, Note_on_c, 12, 47, 127
2, 356979, Note_on_c, 2, 62, 127
2, 357166, Note_off_c, 2, 62, 127
2, 357166, Note_off_c, 12, 47, 127
2, 357168, Note_on_c, 10, 45, 127
2, 357168, Note_on_c, 0, 60, 127
2, 357355, Note_off_c, 0, 60, 127
2, 357355, Note_off_c, 10, 45, 127
2, 357356, Note_off_c, 6, 66, 127
2, 357356, Note_on_c, 7, 43, 127
2, 357356, Note_on_c, 12, 59, 127
2, 357356, Note_on_c, 6, 66, 127
2, 357543, Note_off_c, 6, 66, 127
2, 357543, Note_off_c, 12, 59, 127
2, 357543, Note_off_c, 7, 43, 127
2, 357545, Note_on_c, 7, 43, 127
2, 357545, Note_on_c, 12, 59, 127
2, 357545, Note_on_c, 12, 71, 127
2, 357732, Note_off_c, 12, 71, 127
2, 357733, Note_on_c, 10, 69, 127
2, 357920, Note_off_c, 10, 69, 127
2, 357922, Note_on_c, 7, 67, 127
2, 358109, Note_off_c, 7, 67, 127
2, 358110, Note_on_c, 7, 67, 127
2, 358297, Note_off_c, 7, 67, 127
2, 358299, Note_on_c, 6, 66, 127
2, 358486, Note_off_c, 6, 66, 127
2, 358486, Note_off_c, 7, 43, 127
2, 358487, Note_on_c, 7, 43, 127
2, 358487, Note_on_c, 4, 64, 127
2, 358674, Note_off_c, 4, 64, 127
2, 358674, Note_off_c, 7, 43, 127
2, 358676, Note_on_c, 0, 48, 127
2, 358676, Note_on_c, 4, 64, 127
2, 358863, Note_off_c, 0, 48, 127
2, 358864, Note_on_c, 12, 47, 127
2, 359046, Note_off_c, 12, 59, 127
2, 359051, Note_off_c, 12, 47, 127
2, 359052, Note_on_c, 10, 45, 127
2, 359052, Note_on_c, 7, 55, 127
2, 359239, Note_off_c, 7, 55, 127
2, 359239, Note_off_c, 10, 45, 127
2, 359241, Note_on_c, 10, 45, 127
2, 359241, Note_on_c, 0, 60, 127
2, 359428, Note_off_c, 0, 60, 127
2, 359428, Note_off_c, 10, 45, 127
2, 359429, Note_on_c, 7, 43, 127
2, 359429, Note_on_c, 12, 59, 127
2, 359616, Note_off_c, 12, 59, 127
2, 359616, Note_off_c, 7, 43, 127
2, 359618, Note_off_c, 4, 64, 127
2, 359618, Note_on_c, 6, 42, 127
2, 359618, Note_on_c, 4, 64, 127
2, 359618, Note_on_c, 10, 57, 127
2, 359805, Note_off_c, 10, 57, 127
2, 359805, Note_off_c, 4, 64, 127
2, 359805, Note_off_c, 6, 42, 127
2, 359806, Note_on_c, 6, 42, 127
2, 359806, Note_on_c, 10, 57, 127
2, 359806, Note_on_c, 10, 69, 127
2, 359993, Note_off_c, 10, 69, 127
2, 359993, Note_off_c, 6, 42, 127
2, 359995, Note_on_c, 7, 43, 127
2, 359995, Note_on_c, 7, 67, 127
2, 360182, Note_off_c, 7, 67, 127
2, 360182, Note_off_c, 7, 43, 127
2, 360183, Note_on_c, 10, 45, 127
2, 360183, Note_on_c, 6, 66, 127
2, 360370, Note_off_c, 6, 66, 127
2, 360370, Note_off_c, 10, 45, 127
2, 360372, Note_on_c, 10, 45, 127
2, 360372, Note_on_c, 6, 66, 127
2, 360559, Note_off_c, 6, 66, 127
2, 360559, Note_off_c, 10, 45, 127
2, 360560, Note_on_c, 12, 47, 127
2, 360560, Note_on_c, 4, 64, 127
2, 360652, Note_off_c, 4, 64, 127
2, 360654, Note_on_c, 3, 63, 127
2, 360746, Note_off_c, 3, 63, 127
2, 360746, Note_off_c, 12, 47, 127
2, 360748, Note_on_c, 0, 48, 127
2, 360748, Note_on_c, 4, 64, 127
2, 360935, Note_off_c, 4, 64, 127
2, 360935, Note_off_c, 0, 48, 127
2, 360936, Note_on_c, 12, 47, 127
2, 360936, Note_on_c, 3, 63, 127
2, 361123, Note_off_c, 3, 63, 127
2, 361125, Note_on_c, 4, 64, 127
2, 361217, Note_off_c, 4, 64, 127
2, 361219, Note_on_c, 3, 63, 127
2, 361306, Note_off_c, 10, 57, 127
2, 361312, Note_off_c, 3, 63, 127
2, 361313, Note_on_c, 1, 61, 127
2, 361405, Note_off_c, 1, 61, 127
2, 361407, Note_on_c, 12, 59, 127
2, 361499, Note_off_c, 12, 59, 127
2, 361501, Note_on_c, 7, 55, 127
2, 361501, Note_on_c, 4, 64, 127
2, 361688, Note_off_c, 4, 64, 127
2, 361688, Note_off_c, 7, 55, 127
2, 361689, Note_on_c, 10, 57, 127
2, 361689, Note_on_c, 6, 66, 127
2, 361781, Note_off_c, 6, 66, 127
2, 361781, Note_off_c, 10, 57, 127
2, 361783, Note_on_c, 7, 55, 127
2, 361783, Note_on_c, 4, 64, 127
2, 361875, Note_off_c, 4, 64, 127
2, 361875, Note_off_c, 7, 55, 127
2, 361877, Note_on_c, 6, 54, 127
2, 361877, Note_on_c, 3, 63, 127
2, 361969, Note_off_c, 3, 63, 127
2, 361969, Note_off_c, 6, 54, 127
2, 361970, Note_on_c, 4, 52, 127
2, 361970, Note_on_c, 4, 64, 127
2, 362062, Note_off_c, 4, 64, 127
2, 362062, Note_off_c, 4, 52, 127
2, 362064, Note_on_c, 3, 51, 127
2, 362064, Note_on_c, 6, 66, 127
2, 362251, Note_off_c, 6, 66, 127
2, 362251, Note_off_c, 3, 51, 127
2, 362253, Note_on_c, 4, 52, 127
2, 362253, Note_on_c, 7, 67, 127
2, 362345, Note_off_c, 7, 67, 127
2, 362345, Note_off_c, 4, 52, 127
2, 362346, Note_on_c, 3, 51, 127
2, 362346, Note_on_c, 6, 66, 127
2, 362438, Note_off_c, 6, 66, 127
2, 362438, Note_off_c, 3, 51, 127
2, 362440, Note_on_c, 1, 49, 127
2, 362440, Note_on_c, 4, 64, 127
2, 362532, Note_off_c, 4, 64, 127
2, 362532, Note_off_c, 1, 49, 127
2, 362534, Note_on_c, 3, 51, 127
2, 362534, Note_on_c, 6, 66, 127
2, 362626, Note_off_c, 6, 66, 127
2, 362626, Note_off_c, 3, 51, 127
2, 362628, Note_on_c, 4, 52, 127
2, 362628, Note_on_c, 7, 67, 127
2, 362815, Note_off_c, 7, 67, 127
2, 362815, Note_off_c, 4, 52, 127
2, 362816, Note_on_c, 6, 54, 127
2, 362816, Note_on_c, 10, 69, 127
2, 362908, Note_off_c, 10, 69, 127
2, 362908, Note_off_c, 6, 54, 127
2, 362910, Note_on_c, 4, 52, 127
2, 362910, Note_on_c, 7, 67, 127
2, 363002, Note_off_c, 7, 67, 127
2, 363002, Note_off_c, 4, 52, 127
2, 363004, Note_on_c, 3, 51, 127
2, 363004, Note_on_c, 6, 66, 127
2, 363096, Note_off_c, 6, 66, 127
2, 363096, Note_off_c, 3, 51, 127
2, 363097, Note_on_c, 4, 52, 127
2, 363097, Note_on_c, 7, 67, 127
2, 363186, Note_off_c, 12, 47, 127
2, 363189, Note_off_c, 7, 67, 127
2, 363189, Note_off_c, 4, 52, 127
2, 363191, Note_on_c, 6, 54, 127
2, 363191, Note_on_c, 10, 69, 127
2, 363378, Note_off_c, 6, 54, 127
2, 363380, Note_on_c, 4, 52, 127
2, 363567, Note_off_c, 4, 52, 127
2, 363568, Note_on_c, 3, 51, 127
2, 363755, Note_off_c, 3, 51, 127
2, 363756, Note_on_c, 3, 51, 127
2, 363943, Note_off_c, 3, 51, 127
2, 363945, Note_on_c, 1, 49, 127
2, 364132, Note_off_c, 1, 49, 127
2, 364132, Note_off_c, 10, 69, 127
2, 364133, Note_on_c, 12, 47, 127
2, 364133, Note_on_c, 3, 51, 127
2, 364133, Note_on_c, 12, 71, 127
2, 364320, Note_off_c, 12, 71, 127
2, 364320, Note_off_c, 3, 51, 127
2, 364320, Note_off_c, 12, 47, 127
2, 364322, Note_on_c, 4, 40, 127
2, 364322, Note_on_c, 7, 67, 127
2, 364509, Note_off_c, 7, 67, 127
2, 364509, Note_off_c, 4, 40, 127
2, 364510, Note_on_c, 6, 42, 127
2, 364510, Note_on_c, 10, 69, 127
2, 364602, Note_off_c, 10, 69, 127
2, 364604, Note_on_c, 7, 67, 127
2, 364696, Note_off_c, 7, 67, 127
2, 364696, Note_off_c, 6, 42, 127
2, 364698, Note_on_c, 7, 43, 127
2, 364698, Note_on_c, 6, 66, 127
2, 364790, Note_off_c, 6, 66, 127
2, 364792, Note_on_c, 4, 64, 127
2, 364884, Note_off_c, 7, 43, 127
2, 364885, Note_on_c, 10, 45, 127
2, 364885, Note_on_c, 0, 72, 127
2, 365072, Note_off_c, 0, 72, 127
2, 365072, Note_off_c, 10, 45, 127
2, 365074, Note_on_c, 12, 47, 127
2, 365074, Note_on_c, 2, 74, 127
2, 365166, Note_off_c, 2, 74, 127
2, 365166, Note_off_c, 12, 47, 127
2, 365168, Note_on_c, 10, 45, 127
2, 365168, Note_on_c, 0, 72, 127
2, 365260, Note_off_c, 0, 72, 127
2, 365260, Note_off_c, 10, 45, 127
2, 365261, Note_on_c, 7, 43, 127
2, 365261, Note_on_c, 12, 71, 127
2, 365353, Note_off_c, 12, 71, 127
2, 365353, Note_off_c, 7, 43, 127
2, 365355, Note_on_c, 6, 42, 127
2, 365355, Note_on_c, 10, 69, 127
2, 365447, Note_off_c, 10, 69, 127
2, 365447, Note_off_c, 6, 42, 127
2, 365449, Note_on_c, 7, 43, 127
2, 365449, Note_on_c, 12, 71, 127
2, 365636, Note_off_c, 12, 71, 127
2, 365636, Note_off_c, 7, 43, 127
2, 365637, Note_on_c, 10, 45, 127
2, 365637, Note_on_c, 0, 72, 127
2, 365729, Note_off_c, 0, 72, 127
2, 365729, Note_off_c, 10, 45, 127
2, 365731, Note_on_c, 7, 43, 127
2, 365731, Note_on_c, 12, 71, 127
2, 365823, Note_off_c, 12, 71, 127
2, 365823, Note_off_c, 7, 43, 127
2, 365825, Note_on_c, 6, 42, 127
2, 365825, Note_on_c, 10, 69, 127
2, 365916, Note_off_c, 4, 64, 127
2, 365917, Note_off_c, 10, 69, 127
2, 365917, Note_off_c, 6, 42, 127
2, 365918, Note_on_c, 4, 40, 127
2, 365918, Note_on_c, 7, 67, 127
2, 366010, Note_off_c, 7, 67, 127
2, 366010, Note_off_c, 4, 40, 127
2, 366012, Note_on_c, 12, 47, 127
2, 366012, Note_on_c, 7, 67, 127
2, 366012, Note_on_c, 3, 63, 127
2, 366069, Note_off_c, 7, 67, 127
2, 366071, Note_on_c, 6, 66, 127
2, 366128, Note_off_c, 6, 66, 127
2, 366130, Note_on_c, 7, 67, 127
2, 366187, Note_off_c, 7, 67, 127
2, 366188, Note_on_c, 6, 66, 127
2, 366198, Note_off_c, 12, 47, 127
2, 366200, Note_on_c, 10, 45, 127
2, 366386, Note_off_c, 3, 63, 127
2, 366387, Note_off_c, 10, 45, 127
2, 366388, Note_on_c, 12, 47, 127
2, 366388, Note_on_c, 4, 64, 127
2, 366394, Note_off_c, 6, 66, 127
2, 366575, Note_off_c, 4, 64, 127
2, 366575, Note_off_c, 12, 47, 127
2, 366577, Note_on_c, 4, 40, 127
2, 366577, Note_on_c, 4, 64, 127
2, 366764, Note_off_c, 4, 40, 127
2, 366765, Note_on_c, 12, 47, 127
2, 366952, Note_off_c, 12, 47, 127
2, 366954, Note_on_c, 4, 52, 127
2, 367142, Note_on_c, 12, 59, 127
2, 367142, Note_on_c, 8, 56, 127
2, 367516, Note_off_c, 8, 56, 127
2, 367516, Note_off_c, 12, 59, 127
2, 367517, Note_off_c, 4, 52, 127
2, 367518, Note_off_c, 4, 64, 127
2, 367518, Note_on_c, 12, 71, 127
2, 367705, Note_off_c, 12, 71, 127
2, 367707, Note_on_c, 4, 64, 127
2, 367894, Note_off_c, 4, 64, 127
2, 367895, Note_on_c, 6, 66, 127
2, 368082, Note_off_c, 6, 66, 127
2, 368084, Note_on_c, 8, 68, 127
2, 368271, Note_off_c, 8, 68, 127
2, 368272, Note_on_c, 8, 68, 127
2, 368459, Note_off_c, 8, 68, 127
2, 368461, Note_on_c, 10, 69, 127
2, 368648, Note_off_c, 10, 69, 127
2, 368649, Note_on_c, 12, 71, 127
2, 368649, Note_on_c, 4, 64, 127
2, 368836, Note_off_c, 4, 64, 127
2, 368836, Note_off_c, 12, 71, 127
2, 368837, Note_on_c, 0, 72, 127
2, 368837, Note_on_c, 10, 57, 127
2, 369024, Note_off_c, 10, 57, 127
2, 369026, Note_on_c, 12, 59, 127
2, 369213, Note_off_c, 12, 59, 127
2, 369214, Note_on_c, 0, 60, 127
2, 369401, Note_off_c, 0, 60, 127
2, 369403, Note_on_c, 0, 60, 127
2, 369589, Note_off_c, 0, 72, 127
2, 369590, Note_off_c, 0, 60, 127
2, 369591, Note_on_c, 2, 62, 127
2, 369778, Note_off_c, 2, 62, 127
2, 369780, Note_on_c, 4, 64, 127
2, 369780, Note_on_c, 0, 72, 127
2, 369967, Note_off_c, 0, 72, 127
2, 369967, Note_off_c, 4, 64, 127
2, 369968, Note_on_c, 5, 65, 127
2, 369968, Note_on_c, 2, 74, 127
2, 370060, Note_off_c, 2, 74, 127
2, 370060, Note_off_c, 5, 65, 127
2, 370062, Note_on_c, 0, 72, 127
2, 370062, Note_on_c, 4, 64, 127
2, 370154, Note_off_c, 4, 64, 127
2, 370154, Note_off_c, 0, 72, 127
2, 370156, Note_on_c, 12, 71, 127
2, 370156, Note_on_c, 2, 62, 127
2, 370343, Note_off_c, 2, 62, 127
2, 370343, Note_off_c, 12, 71, 127
2, 370344, Note_on_c, 0, 72, 127
2, 370344, Note_on_c, 4, 64, 127
2, 370531, Note_off_c, 4, 64, 127
2, 370531, Note_off_c, 0, 72, 127
2, 370533, Note_on_c, 5, 65, 127
2, 370533, Note_on_c, 2, 74, 127
2, 370625, Note_off_c, 5, 65, 127
2, 370627, Note_on_c, 7, 67, 127
2, 370718, Note_off_c, 2, 74, 127
2, 370719, Note_off_c, 7, 67, 127
2, 370720, Note_on_c, 5, 77, 127
2, 370720, Note_on_c, 10, 69, 127
2, 370812, Note_off_c, 10, 69, 127
2, 370814, Note_on_c, 12, 71, 127
2, 370905, Note_off_c, 5, 77, 127
2, 370906, Note_off_c, 12, 71, 127
2, 370908, Note_on_c, 0, 60, 127
2, 370908, Note_on_c, 4, 76, 127
2, 370908, Note_on_c, 0, 72, 127
2, 371095, Note_off_c, 0, 72, 127
2, 371095, Note_off_c, 4, 76, 127
2, 371095, Note_off_c, 0, 60, 127
2, 371096, Note_on_c, 7, 55, 127
2, 371096, Note_on_c, 4, 76, 127
2, 371096, Note_on_c, 12, 71, 127
2, 371158, Note_off_c, 4, 76, 127
2, 371160, Note_on_c, 2, 74, 127
2, 371222, Note_off_c, 2, 74, 127
2, 371224, Note_on_c, 4, 76, 127
2, 371283, Note_off_c, 7, 55, 127
2, 371285, Note_on_c, 10, 57, 127
2, 371286, Note_off_c, 4, 76, 127
2, 371288, Note_on_c, 2, 74, 127
2, 371468, Note_off_c, 12, 71, 127
2, 371472, Note_off_c, 10, 57, 127
2, 371473, Note_on_c, 12, 59, 127
2, 371473, Note_on_c, 7, 67, 127
2, 371483, Note_off_c, 2, 74, 127
2, 371660, Note_off_c, 7, 67, 127
2, 371660, Note_off_c, 12, 59, 127
2, 371662, Note_on_c, 12, 59, 127
2, 371662, Note_on_c, 7, 79, 127
2, 371754, Note_off_c, 7, 79, 127
2, 371755, Note_on_c, 5, 77, 127
2, 371847, Note_off_c, 5, 77, 127
2, 371848, Note_off_c, 12, 59, 127
2, 371849, Note_on_c, 0, 60, 127
2, 371849, Note_on_c, 4, 76, 127
2, 371941, Note_off_c, 4, 76, 127
2, 371943, Note_on_c, 2, 74, 127
2, 372035, Note_off_c, 2, 74, 127
2, 372035, Note_off_c, 0, 60, 127
2, 372037, Note_on_c, 2, 62, 127
2, 372037, Note_on_c, 0, 72, 127
2, 372129, Note_off_c, 0, 72, 127
2, 372130, Note_on_c, 12, 71, 127
2, 372222, Note_off_c, 12, 71, 127
2, 372223, Note_off_c, 2, 62, 127
2, 372224, Note_on_c, 4, 64, 127
2, 372224, Note_on_c, 0, 72, 127
2, 372316, Note_off_c, 0, 72, 127
2, 372318, Note_on_c, 2, 74, 127
2, 372410, Note_off_c, 2, 74, 127
2, 372410, Note_off_c, 4, 64, 127
2, 372412, Note_on_c, 0, 60, 127
2, 372412, Note_on_c, 4, 76, 127
2, 372504, Note_off_c, 4, 76, 127
2, 372505, Note_on_c, 5, 77, 127
2, 372597, Note_off_c, 5, 77, 127
2, 372598, Note_off_c, 0, 60, 127
2, 372599, Note_on_c, 4, 64, 127
2, 372599, Note_on_c, 7, 79, 127
2, 372691, Note_off_c, 7, 79, 127
2, 372693, Note_on_c, 4, 76, 127
2, 372785, Note_off_c, 4, 76, 127
2, 372785, Note_off_c, 4, 64, 127
2, 372787, Note_on_c, 5, 65, 127
2, 372787, Note_on_c, 10, 81, 127
2, 372879, Note_off_c, 10, 81, 127
2, 372880, Note_on_c, 7, 79, 127
2, 372972, Note_off_c, 7, 79, 127
2, 372973, Note_off_c, 5, 65, 127
2, 372974, Note_on_c, 10, 69, 127
2, 372974, Note_on_c, 5, 77, 127
2, 373066, Note_off_c, 5, 77, 127
2, 373068, Note_on_c, 4, 76, 127
2, 373160, Note_off_c, 4, 76, 127
2, 373160, Note_off_c, 10, 69, 127
2, 373161, Note_on_c, 5, 65, 127
2, 373161, Note_on_c, 2, 74, 127
2, 373253, Note_off_c, 2, 74, 127
2, 373255, Note_on_c, 0, 72, 127
2, 373347, Note_off_c, 0, 72, 127
2, 373349, Note_on_c, 12, 71, 127
2, 373349, Note_on_c, 7, 79, 127
2, 373441, Note_off_c, 5, 65, 127
2, 373443, Note_on_c, 10, 69, 127
2, 373535, Note_off_c, 10, 69, 127
2, 373535, Note_off_c, 12, 71, 127
2, 373536, Note_on_c, 7, 67, 127
2, 373536, Note_on_c, 0, 72, 127
2, 373628, Note_off_c, 7, 67, 127
2, 373630, Note_on_c, 5, 65, 127
2, 373722, Note_off_c, 5, 65, 127
2, 373722, Note_off_c, 0, 72, 127
2, 373724, Note_on_c, 4, 64, 127
2, 373724, Note_on_c, 2, 74, 127
2, 373816, Note_off_c, 4, 64, 127
2, 373818, Note_on_c, 2, 62, 127
2, 373910, Note_off_c, 2, 62, 127
2, 373910, Note_off_c, 2, 74, 127
2, 373911, Note_on_c, 0, 60, 127
2, 373911, Note_on_c, 4, 76, 127
2, 374003, Note_off_c, 0, 60, 127
2, 374005, Note_on_c, 12, 59, 127
2, 374097, Note_off_c, 12, 59, 127
2, 374097, Note_off_c, 7, 79, 127
2, 374099, Note_on_c, 10, 57, 127
2, 374099, Note_on_c, 10, 81, 127
2, 374191, Note_off_c, 10, 57, 127
2, 374192, Note_on_c, 7, 55, 127
2, 374284, Note_off_c, 7, 55, 127
2, 374285, Note_off_c, 10, 81, 127
2, 374286, Note_on_c, 5, 53, 127
2, 374286, Note_on_c, 7, 79, 127
2, 374378, Note_off_c, 5, 53, 127
2, 374380, Note_on_c, 4, 52, 127
2, 374472, Note_off_c, 4, 52, 127
2, 374472, Note_off_c, 7, 79, 127
2, 374474, Note_on_c, 2, 50, 127
2, 374474, Note_on_c, 5, 77, 127
2, 374566, Note_off_c, 2, 50, 127
2, 374567, Note_on_c, 4, 52, 127
2, 374659, Note_off_c, 4, 52, 127
2, 374659, Note_off_c, 4, 76, 127
2, 374661, Note_on_c, 2, 50, 127
2, 374661, Note_on_c, 10, 69, 127
2, 374753, Note_off_c, 2, 50, 127
2, 374755, Note_on_c, 0, 48, 127
2, 374847, Note_off_c, 0, 48, 127
2, 374847, Note_off_c, 10, 69, 127
2, 374849, Note_on_c, 12, 47, 127
2, 374849, Note_on_c, 0, 72, 127
2, 374941, Note_off_c, 12, 47, 127
2, 374942, Note_on_c, 10, 45, 127
2, 375034, Note_off_c, 10, 45, 127
2, 375035, Note_off_c, 0, 72, 127
2, 375036, Note_on_c, 7, 43, 127
2, 375036, Note_on_c, 12, 71, 127
2, 375128, Note_off_c, 7, 43, 127
2, 375130, Note_on_c, 10, 45, 127
2, 375222, Note_off_c, 10, 45, 127
2, 375222, Note_off_c, 5, 77, 127
2, 375223, Note_on_c, 7, 43, 127
2, 375223, Note_on_c, 7, 79, 127
2, 375315, Note_off_c, 7, 43, 127
2, 375317, Note_on_c, 5, 41, 127
2, 375409, Note_off_c, 5, 41, 127
2, 375409, Note_off_c, 7, 79, 127
2, 375411, Note_on_c, 4, 40, 127
2, 375411, Note_on_c, 5, 77, 127
2, 375503, Note_off_c, 4, 40, 127
2, 375505, Note_on_c, 2, 38, 127
2, 375597, Note_off_c, 2, 38, 127
2, 375597, Note_off_c, 5, 77, 127
2, 375597, Note_off_c, 12, 71, 127
2, 375598, Note_on_c, 0, 36, 127
2, 375598, Note_on_c, 0, 72, 127
2, 375598, Note_on_c, 4, 76, 127
2, 375785, Note_off_c, 4, 76, 127
2, 375785, Note_off_c, 0, 72, 127
2, 375787, Note_on_c, 5, 77, 127
2, 375787, Note_on_c, 2, 74, 127
2, 375973, Note_off_c, 0, 36, 127
2, 375974, Note_off_c, 2, 74, 127
2, 375974, Note_off_c, 5, 77, 127
2, 375975, Note_on_c, 5, 41, 127
2, 375975, Note_on_c, 4, 76, 127
2, 375975, Note_on_c, 7, 79, 127
2, 376162, Note_off_c, 7, 79, 127
2, 376162, Note_off_c, 4, 76, 127
2, 376162, Note_off_c, 5, 41, 127
2, 376164, Note_on_c, 7, 43, 127
2, 376164, Note_on_c, 4, 76, 127
2, 376164, Note_on_c, 12, 71, 127
2, 376228, Note_off_c, 4, 76, 127
2, 376233, Note_on_c, 2, 74, 127
2, 376297, Note_off_c, 2, 74, 127
2, 376302, Note_on_c, 4, 76, 127
2, 376351, Note_off_c, 7, 43, 127
2, 376352, Note_on_c, 5, 41, 127
2, 376365, Note_off_c, 4, 76, 127
2, 376370, Note_on_c, 2, 74, 127
2, 376536, Note_off_c, 12, 71, 127
2, 376539, Note_off_c, 5, 41, 127
2, 376541, Note_on_c, 7, 43, 127
2, 376541, Note_on_c, 0, 72, 127
2, 376543, Note_off_c, 2, 74, 127
2, 376728, Note_off_c, 0, 72, 127
2, 376728, Note_off_c, 7, 43, 127
2, 376729, Note_on_c, 0, 36, 127
2, 376729, Note_on_c, 0, 72, 127
2, 376916, Note_off_c, 0, 72, 127
2, 376918, Note_on_c, 2, 74, 127
2, 377105, Note_off_c, 2, 74, 127
2, 377106, Note_on_c, 4, 76, 127
2, 377293, Note_off_c, 4, 76, 127
2, 377295, Note_on_c, 4, 76, 127
2, 377481, Note_off_c, 0, 36, 127
2, 377482, Note_off_c, 4, 76, 127
2, 377483, Note_on_c, 5, 77, 127
2, 377670, Note_off_c, 5, 77, 127
2, 377672, Note_on_c, 4, 64, 127
2, 377672, Note_on_c, 7, 79, 127
2, 377859, Note_off_c, 7, 79, 127
2, 377859, Note_off_c, 4, 64, 127
2, 377860, Note_on_c, 4, 64, 127
2, 377860, Note_on_c, 7, 79, 127
2, 377860, Note_on_c, 1, 73, 127
2, 378047, Note_off_c, 4, 64, 127
2, 378049, Note_on_c, 2, 62, 127
2, 378236, Note_off_c, 2, 62, 127
2, 378237, Note_on_c, 1, 61, 127
2, 378424, Note_off_c, 1, 61, 127
2, 378424, Note_off_c, 1, 73, 127
2, 378426, Note_on_c, 1, 61, 127
2, 378426, Note_on_c, 4, 76, 127
2, 378612, Note_off_c, 7, 79, 127
2, 378613, Note_off_c, 1, 61, 127
2, 378614, Note_on_c, 12, 59, 127
2, 378614, Note_on_c, 10, 81, 127
2, 378706, Note_off_c, 10, 81, 127
2, 378708, Note_on_c, 7, 79, 127
2, 378797, Note_off_c, 4, 76, 127
2, 378800, Note_off_c, 7, 79, 127
2, 378800, Note_off_c, 12, 59, 127
2, 378802, Note_on_c, 10, 57, 127
2, 378802, Note_on_c, 5, 77, 127
2, 378894, Note_off_c, 5, 77, 127
2, 378895, Note_on_c, 4, 76, 127
2, 378987, Note_off_c, 4, 76, 127
2, 378988, Note_off_c, 10, 57, 127
2, 378989, Note_on_c, 2, 62, 127
2, 378989, Note_on_c, 5, 77, 127
2, 378989, Note_on_c, 2, 74, 127
2, 379176, Note_off_c, 5, 77, 127
2, 379176, Note_off_c, 2, 62, 127
2, 379178, Note_on_c, 4, 64, 127
2, 379178, Note_on_c, 7, 79, 127
2, 379270, Note_off_c, 7, 79, 127
2, 379271, Note_on_c, 5, 77, 127
2, 379360, Note_off_c, 2, 74, 127
2, 379363, Note_off_c, 5, 77, 127
2, 379364, Note_off_c, 4, 64, 127
2, 379365, Note_on_c, 5, 65, 127
2, 379365, Note_on_c, 4, 76, 127
2, 379457, Note_off_c, 4, 76, 127
2, 379459, Note_on_c, 2, 74, 127
2, 379551, Note_off_c, 5, 65, 127
2, 379553, Note_on_c, 5, 65, 127
2, 379553, Note_on_c, 10, 81, 127
2, 379740, Note_off_c, 10, 81, 127
2, 379740, Note_off_c, 5, 65, 127
2, 379741, Note_on_c, 7, 67, 127
2, 379741, Note_on_c, 11, 82, 127
2, 379833, Note_off_c, 11, 82, 127
2, 379835, Note_on_c, 10, 81, 127
2, 379927, Note_off_c, 10, 81, 127
2, 379927, Note_off_c, 7, 67, 127
2, 379929, Note_on_c, 10, 69, 127
2, 379929, Note_on_c, 7, 79, 127
2, 380021, Note_off_c, 7, 79, 127
2, 380022, Note_on_c, 5, 77, 127
2, 380114, Note_off_c, 5, 77, 127
2, 380114, Note_off_c, 2, 74, 127
2, 380115, Note_off_c, 10, 69, 127
2, 380116, Note_on_c, 11, 70, 127
2, 380116, Note_on_c, 4, 76, 127
2, 380116, Note_on_c, 1, 73, 127
2, 380303, Note_off_c, 1, 73, 127
2, 380303, Note_off_c, 4, 76, 127
2, 380303, Note_off_c, 11, 70, 127
2, 380304, Note_on_c, 10, 69, 127
2, 380304, Note_on_c, 2, 74, 127
2, 380304, Note_on_c, 5, 77, 127
2, 380491, Note_off_c, 5, 77, 127
2, 380491, Note_off_c, 2, 74, 127
2, 380491, Note_off_c, 10, 69, 127
2, 380493, Note_on_c, 7, 67, 127
2, 380493, Note_on_c, 7, 79, 127
2, 380493, Note_on_c, 4, 76, 127
2, 380680, Note_off_c, 4, 76, 127
2, 380680, Note_off_c, 7, 79, 127
2, 380680, Note_off_c, 7, 67, 127
2, 380681, Note_on_c, 7, 67, 127
2, 380681, Note_on_c, 4, 76, 127
2, 380681, Note_on_c, 7, 79, 127
2, 380868, Note_off_c, 7, 79, 127
2, 380868, Note_off_c, 4, 76, 127
2, 380868, Note_off_c, 7, 67, 127
2, 380870, Note_on_c, 5, 65, 127
2, 380870, Note_on_c, 5, 77, 127
2, 380870, Note_on_c, 10, 81, 127
2, 381057, Note_off_c, 10, 81, 127
2, 381057, Note_off_c, 5, 77, 127
2, 381057, Note_off_c, 5, 65, 127
2, 381058, Note_on_c, 4, 64, 127
2, 381058, Note_on_c, 11, 82, 127
2, 381058, Note_on_c, 7, 79, 127
2, 381245, Note_off_c, 7, 79, 127
2, 381245, Note_off_c, 11, 82, 127
2, 381245, Note_off_c, 4, 64, 127
2, 381247, Note_on_c, 4, 64, 127
2, 381247, Note_on_c, 11, 82, 127
2, 381247, Note_on_c, 7, 79, 127
2, 381434, Note_off_c, 4, 64, 127
2, 381435, Note_on_c, 7, 67, 127
2, 381527, Note_off_c, 7, 67, 127
2, 381529, Note_on_c, 5, 65, 127
2, 381621, Note_off_c, 5, 65, 127
2, 381623, Note_on_c, 4, 64, 127
2, 381715, Note_off_c, 4, 64, 127
2, 381717, Note_on_c, 2, 62, 127
2, 381809, Note_off_c, 2, 62, 127
2, 381810, Note_on_c, 1, 61, 127
2, 381997, Note_off_c, 1, 61, 127
2, 381997, Note_off_c, 7, 79, 127
2, 381997, Note_off_c, 11, 82, 127
2, 381999, Note_on_c, 2, 62, 127
2, 381999, Note_on_c, 10, 81, 127
2, 381999, Note_on_c, 5, 77, 127
2, 382091, Note_off_c, 2, 62, 127
2, 382093, Note_on_c, 1, 61, 127
2, 382185, Note_off_c, 1, 61, 127
2, 382185, Note_off_c, 5, 77, 127
2, 382185, Note_off_c, 10, 81, 127
2, 382186, Note_on_c, 12, 59, 127
2, 382186, Note_on_c, 7, 79, 127
2, 382186, Note_on_c, 4, 76, 127
2, 382278, Note_off_c, 12, 59, 127
2, 382280, Note_on_c, 10, 57, 127
2, 382372, Note_off_c, 10, 57, 127
2, 382372, Note_off_c, 4, 76, 127
2, 382372, Note_off_c, 7, 79, 127
2, 382374, Note_on_c, 2, 62, 127
2, 382374, Note_on_c, 5, 77, 127
2, 382374, Note_on_c, 2, 74, 127
2, 382561, Note_off_c, 5, 77, 127
2, 382561, Note_off_c, 2, 62, 127
2, 382562, Note_on_c, 5, 53, 127
2, 382562, Note_on_c, 7, 79, 127
2, 382654, Note_off_c, 7, 79, 127
2, 382656, Note_on_c, 5, 77, 127
2, 382745, Note_off_c, 2, 74, 127
2, 382748, Note_off_c, 5, 77, 127
2, 382748, Note_off_c, 5, 53, 127
2, 382750, Note_on_c, 7, 55, 127
2, 382750, Note_on_c, 4, 76, 127
2, 382842, Note_off_c, 4, 76, 127
2, 382843, Note_on_c, 2, 74, 127
2, 382935, Note_off_c, 2, 74, 127
2, 382936, Note_off_c, 7, 55, 127
2, 382937, Note_on_c, 10, 57, 127
2, 382937, Note_on_c, 4, 64, 127
2, 382937, Note_on_c, 2, 74, 127
2, 383000, Note_off_c, 2, 74, 127
2, 383001, Note_on_c, 1, 73, 127
2, 383064, Note_off_c, 1, 73, 127
2, 383065, Note_on_c, 2, 74, 127
2, 383124, Note_off_c, 10, 57, 127
2, 383126, Note_on_c, 7, 55, 127
2, 383128, Note_off_c, 2, 74, 127
2, 383129, Note_on_c, 1, 73, 127
2, 383304, Note_off_c, 1, 73, 127
2, 383309, Note_off_c, 4, 64, 127
2, 383313, Note_off_c, 7, 55, 127
2, 383314, Note_on_c, 10, 57, 127
2, 383314, Note_on_c, 2, 74, 127
2, 383314, Note_on_c, 5, 65, 127
2, 383501, Note_off_c, 5, 65, 127
2, 383501, Note_off_c, 2, 74, 127
2, 383501, Note_off_c, 10, 57, 127
2, 383503, Note_on_c, 2, 50, 127
2, 383503, Note_on_c, 5, 65, 127
2, 383503, Note_on_c, 2, 74, 127
2, 383690, Note_off_c, 2, 50, 127
2, 383691, Note_on_c, 4, 52, 127
2, 383878, Note_off_c, 4, 52, 127
2, 383878, Note_off_c, 5, 65, 127
2, 383880, Note_on_c, 5, 53, 127
2, 383880, Note_on_c, 10, 69, 127
2, 384067, Note_off_c, 10, 69, 127
2, 384067, Note_off_c, 5, 53, 127
2, 384067, Note_off_c, 2, 74, 127
2, 384068, Note_on_c, 5, 53, 127
2, 384068, Note_on_c, 2, 74, 127
2, 384255, Note_off_c, 5, 53, 127
2, 384257, Note_on_c, 7, 55, 127
2, 384257, Note_on_c, 4, 76, 127
2, 384444, Note_off_c, 4, 76, 127
2, 384444, Note_off_c, 7, 55, 127
2, 384445, Note_on_c, 10, 57, 127
2, 384445, Note_on_c, 5, 77, 127
2, 384632, Note_off_c, 5, 77, 127
2, 384632, Note_off_c, 10, 57, 127
2, 384634, Note_on_c, 12, 47, 127
2, 384634, Note_on_c, 5, 77, 127
2, 384820, Note_off_c, 2, 74, 127
2, 384822, Note_on_c, 0, 72, 127
2, 385009, Note_off_c, 0, 72, 127
2, 385011, Note_on_c, 12, 71, 127
2, 385198, Note_off_c, 12, 71, 127
2, 385199, Note_on_c, 12, 71, 127
2, 385386, Note_off_c, 12, 71, 127
2, 385386, Note_off_c, 12, 47, 127
2, 385388, Note_on_c, 10, 69, 127
2, 385575, Note_off_c, 10, 69, 127
2, 385576, Note_on_c, 12, 47, 127
2, 385576, Note_on_c, 7, 67, 127
2, 385762, Note_off_c, 5, 77, 127
2, 385763, Note_off_c, 7, 67, 127
2, 385763, Note_off_c, 12, 47, 127
2, 385765, Note_on_c, 0, 48, 127
2, 385765, Note_on_c, 4, 76, 127
2, 385952, Note_off_c, 4, 76, 127
2, 385952, Note_off_c, 0, 48, 127
2, 385953, Note_on_c, 2, 50, 127
2, 385953, Note_on_c, 2, 74, 127
2, 386140, Note_off_c, 2, 74, 127
2, 386140, Note_off_c, 2, 50, 127
2, 386141, Note_on_c, 4, 52, 127
2, 386141, Note_on_c, 0, 72, 127
2, 386328, Note_off_c, 0, 72, 127
2, 386328, Note_off_c, 4, 52, 127
2, 386330, Note_on_c, 4, 52, 127
2, 386330, Note_on_c, 0, 72, 127
2, 386517, Note_off_c, 4, 52, 127
2, 386518, Note_on_c, 5, 53, 127
2, 386518, Note_on_c, 2, 74, 127
2, 386705, Note_off_c, 2, 74, 127
2, 386705, Note_off_c, 5, 53, 127
2, 386707, Note_on_c, 7, 55, 127
2, 386707, Note_on_c, 4, 76, 127
2, 386894, Note_off_c, 4, 76, 127
2, 386894, Note_off_c, 7, 55, 127
2, 386895, Note_on_c, 10, 45, 127
2, 386895, Note_on_c, 4, 76, 127
2, 387082, Note_off_c, 0, 72, 127
2, 387084, Note_on_c, 12, 71, 127
2, 387271, Note_off_c, 12, 71, 127
2, 387272, Note_on_c, 10, 69, 127
2, 387459, Note_off_c, 10, 69, 127
2, 387461, Note_on_c, 10, 69, 127
2, 387648, Note_off_c, 10, 69, 127
2, 387649, Note_on_c, 7, 67, 127
2, 387836, Note_off_c, 7, 67, 127
2, 387836, Note_off_c, 10, 45, 127
2, 387838, Note_on_c, 10, 45, 127
2, 387838, Note_on_c, 5, 65, 127
2, 388023, Note_off_c, 4, 76, 127
2, 388025, Note_off_c, 5, 65, 127
2, 388025, Note_off_c, 10, 45, 127
2, 388026, Note_on_c, 12, 47, 127
2, 388026, Note_on_c, 5, 65, 127
2, 388026, Note_on_c, 2, 74, 127
2, 388213, Note_off_c, 2, 74, 127
2, 388213, Note_off_c, 12, 47, 127
2, 388215, Note_on_c, 0, 48, 127
2, 388215, Note_on_c, 0, 72, 127
2, 388398, Note_off_c, 5, 65, 127
2, 388402, Note_off_c, 0, 72, 127
2, 388402, Note_off_c, 0, 48, 127
2, 388403, Note_on_c, 2, 50, 127
2, 388403, Note_on_c, 12, 71, 127
2, 388590, Note_off_c, 12, 71, 127
2, 388590, Note_off_c, 2, 50, 127
2, 388592, Note_on_c, 2, 50, 127
2, 388592, Note_on_c, 12, 71, 127
2, 388779, Note_off_c, 2, 50, 127
2, 388780, Note_on_c, 4, 52, 127
2, 388780, Note_on_c, 0, 72, 127
2, 388967, Note_off_c, 0, 72, 127
2, 388967, Note_off_c, 4, 52, 127
2, 388969, Note_on_c, 5, 53, 127
2, 388969, Note_on_c, 2, 74, 127
2, 389156, Note_off_c, 2, 74, 127
2, 389156, Note_off_c, 5, 53, 127
2, 389157, Note_on_c, 8, 44, 127
2, 389157, Note_on_c, 2, 74, 127
2, 389344, Note_off_c, 8, 44, 127
2, 389344, Note_off_c, 12, 71, 127
2, 389346, Note_on_c, 10, 45, 127
2, 389346, Note_on_c, 10, 69, 127
2, 389533, Note_off_c, 10, 69, 127
2, 389533, Note_off_c, 10, 45, 127
2, 389534, Note_on_c, 12, 47, 127
2, 389534, Note_on_c, 8, 68, 127
2, 389721, Note_off_c, 8, 68, 127
2, 389721, Note_off_c, 12, 47, 127
2, 389723, Note_on_c, 4, 40, 127
2, 389723, Note_on_c, 8, 68, 127
2, 389910, Note_off_c, 8, 68, 127
2, 389910, Note_off_c, 4, 40, 127
2, 389911, Note_on_c, 6, 42, 127
2, 389911, Note_on_c, 6, 66, 127
2, 390098, Note_off_c, 6, 66, 127
2, 390098, Note_off_c, 6, 42, 127
2, 390100, Note_on_c, 8, 44, 127
2, 390100, Note_on_c, 4, 64, 127
2, 390285, Note_off_c, 2, 74, 127
2, 390287, Note_off_c, 4, 64, 127
2, 390287, Note_off_c, 8, 44, 127
2, 390288, Note_on_c, 10, 45, 127
2, 390288, Note_on_c, 0, 72, 127
2, 390288, Note_on_c, 4, 64, 127
2, 390475, Note_off_c, 0, 72, 127
2, 390475, Note_off_c, 10, 45, 127
2, 390477, Note_on_c, 12, 47, 127
2, 390477, Note_on_c, 12, 71, 127
2, 390664, Note_off_c, 12, 71, 127
2, 390664, Note_off_c, 12, 47, 127
2, 390665, Note_on_c, 0, 48, 127
2, 390665, Note_on_c, 10, 69, 127
2, 390852, Note_off_c, 10, 69, 127
2, 390852, Note_off_c, 0, 48, 127
2, 390854, Note_on_c, 0, 48, 127
2, 390854, Note_on_c, 10, 69, 127
2, 391041, Note_off_c, 10, 69, 127
2, 391041, Note_off_c, 0, 48, 127
2, 391042, Note_on_c, 12, 47, 127
2, 391042, Note_on_c, 12, 71, 127
2, 391229, Note_off_c, 12, 71, 127
2, 391229, Note_off_c, 12, 47, 127
2, 391231, Note_on_c, 10, 45, 127
2, 391231, Note_on_c, 0, 72, 127
2, 391418, Note_off_c, 0, 72, 127
2, 391418, Note_off_c, 10, 45, 127
2, 391419, Note_on_c, 2, 50, 127
2, 391419, Note_on_c, 6, 66, 127
2, 391606, Note_off_c, 6, 66, 127
2, 391606, Note_off_c, 2, 50, 127
2, 391608, Note_on_c, 4, 52, 127
2, 391608, Note_on_c, 8, 68, 127
2, 391795, Note_off_c, 8, 68, 127
2, 391795, Note_off_c, 4, 52, 127
2, 391796, Note_on_c, 5, 53, 127
2, 391796, Note_on_c, 10, 69, 127
2, 391976, Note_off_c, 4, 64, 127
2, 391983, Note_off_c, 10, 69, 127
2, 391983, Note_off_c, 5, 53, 127
2, 391985, Note_on_c, 5, 53, 127
2, 391985, Note_on_c, 12, 71, 127
2, 391985, Note_on_c, 2, 62, 127
2, 392077, Note_off_c, 12, 71, 127
2, 392078, Note_on_c, 10, 69, 127
2, 392170, Note_off_c, 10, 69, 127
2, 392171, Note_off_c, 5, 53, 127
2, 392172, Note_on_c, 4, 52, 127
2, 392172, Note_on_c, 12, 71, 127
2, 392264, Note_off_c, 12, 71, 127
2, 392266, Note_on_c, 0, 72, 127
2, 392358, Note_off_c, 0, 72, 127
2, 392358, Note_off_c, 4, 52, 127
2, 392360, Note_on_c, 2, 50, 127
2, 392360, Note_on_c, 2, 74, 127
2, 392547, Note_off_c, 2, 74, 127
2, 392547, Note_off_c, 2, 50, 127
2, 392548, Note_on_c, 4, 52, 127
2, 392548, Note_on_c, 8, 68, 127
2, 392744, Note_off_c, 8, 68, 127
2, 392746, Note_on_c, 4, 64, 127
2, 392942, Note_off_c, 4, 64, 127
2, 392942, Note_off_c, 4, 52, 127
2, 392943, Note_off_c, 2, 62, 127
2, 392944, Note_on_c, 2, 50, 127
2, 392944, Note_on_c, 10, 69, 127
2, 392944, Note_on_c, 0, 60, 127
2, 393140, Note_off_c, 0, 60, 127
2, 393140, Note_off_c, 2, 50, 127
2, 393141, Note_on_c, 4, 52, 127
2, 393141, Note_on_c, 12, 59, 127
2, 393335, Note_off_c, 10, 69, 127
2, 393339, Note_on_c, 12, 71, 127
2, 393535, Note_off_c, 12, 71, 127
2, 393535, Note_off_c, 4, 52, 127
2, 393537, Note_on_c, 4, 40, 127
2, 393537, Note_on_c, 8, 68, 127
2, 393733, Note_off_c, 8, 68, 127
2, 393733, Note_off_c, 4, 40, 127
2, 393733, Note_off_c, 12, 59, 127
2, 393735, Note_on_c, 10, 45, 127
2, 393735, Note_on_c, 10, 69, 127
2, 394003, Note_on_c, 1, 49, 127
2, 394271, Note_on_c, 4, 52, 127
2, 394273, Note_off_c, 1, 49, 127
2, 394561, Note_off_c, 4, 52, 127
2, 394587, Note_on_c, 1, 61, 127
2, 394587, Note_on_c, 4, 64, 127
2, 394587, Note_on_c, 10, 57, 127
2, 396735, Note_off_c, 10, 69, 127
2, 396735, Note_off_c, 10, 45, 127
2, 396755, Note_off_c, 10, 57, 127
2, 396755, Note_off_c, 4, 64, 127
2, 396755, Note_off_c, 1, 61, 127
2, 400896, End_track
3, 0, Start_track
3, 0, Title_t, "MIDI"
3, 1536, End_track
0, 0, End_of_file
