0, 0, Header, 1, 3, 384
1, 0, Start_track
1, 0, Time_signature, 4, 2, 24, 8
1, 0, Tempo, 500000
1, 211968, End_track
2, 0, Start_track
2, 0, Text_t, "harpsichord: John Sankey"
2, 0, Program_c, 0, 6
2, 0, Pitch_bend_c, 0, 8192
2, 0, Program_c, 1, 6
2, 0, Pitch_bend_c, 1, 7792
2, 0, Program_c, 2, 6
2, 0, Pitch_bend_c, 2, 7876
2, 0, Program_c, 3, 6
2, 0, Pitch_bend_c, 3, 7952
2, 0, Program_c, 4, 6
2, 0, Pitch_bend_c, 4, 7792
2, 0, Program_c, 5, 6
2, 0, Pitch_bend_c, 5, 8112
2, 0, Program_c, 6, 6
2, 0, Pitch_bend_c, 6, 7712
2, 0, Program_c, 7, 6
2, 0, Pitch_bend_c, 7, 8037
2, 0, Program_c, 8, 6
2, 0, Pitch_bend_c, 8, 7872
2, 0, Program_c, 10, 6
2, 0, Pitch_bend_c, 10, 7712
2, 0, Program_c, 11, 6
2, 0, Pitch_bend_c, 11, 8032
2, 0, Program_c, 12, 6
2, 0, Pitch_bend_c, 12, 7872
2, 0, Title_t, "Track 1"
2, 64, Note_on_c, 7, 67, 127
2, 64, Note_on_c, 7, 55, 127
2, 155, Note_on_c, 12, 71, 127
2, 245, Note_off_c, 12, 71, 127
2, 247, Note_on_c, 2, 74, 127
2, 337, Note_off_c, 2, 74, 127
2, 338, Note_on_c, 7, 79, 127
2, 338, Note_on_c, 7, 43, 127
2, 428, Note_off_c, 7, 79, 127
2, 430, Note_on_c, 2, 74, 127
2, 520, Note_off_c, 2, 74, 127
2, 521, Note_on_c, 12, 71, 127
2, 611, Note_off_c, 12, 71, 127
2, 613, Note_on_c, 2, 74, 127
2, 703, Note_off_c, 2, 74, 127
2, 704, Note_on_c, 12, 71, 127
2, 793, Note_off_c, 7, 67, 127
2, 794, Note_off_c, 12, 71, 127
2, 796, Note_on_c, 7, 67, 127
2, 886, Note_off_c, 7, 67, 127
2, 886, Note_off_c, 7, 55, 127
2, 887, Note_on_c, 12, 71, 127
2, 887, Note_on_c, 7, 55, 127
2, 977, Note_off_c, 12, 71, 127
2, 979, Note_on_c, 7, 67, 127
2, 1069, Note_off_c, 7, 67, 127
2, 1070, Note_on_c, 2, 62, 127
2, 1160, Note_off_c, 2, 62, 127
2, 1160, Note_off_c, 7, 55, 127
2, 1162, Note_on_c, 4, 64, 127
2, 1162, Note_on_c, 7, 55, 127
2, 1253, Note_on_c, 7, 67, 127
2, 1343, Note_off_c, 7, 67, 127
2, 1345, Note_on_c, 0, 72, 127
2, 1434, Note_off_c, 7, 43, 127
2, 1435, Note_off_c, 0, 72, 127
2, 1436, Note_on_c, 4, 76, 127
2, 1436, Note_on_c, 7, 43, 127
2, 1526, Note_off_c, 4, 76, 127
2, 1528, Note_on_c, 0, 72, 127
2, 1618, Note_off_c, 0, 72, 127
2, 1619, Note_on_c, 7, 67, 127
2, 1709, Note_off_c, 7, 67, 127
2, 1711, Note_on_c, 0, 72, 127
2, 1801, Note_off_c, 0, 72, 127
2, 1802, Note_on_c, 7, 67, 127
2, 1891, Note_off_c, 4, 64, 127
2, 1892, Note_off_c, 7, 67, 127
2, 1894, Note_on_c, 4, 64, 127
2, 1984, Note_off_c, 4, 64, 127
2, 1984, Note_off_c, 7, 55, 127
2, 1985, Note_on_c, 7, 67, 127
2, 1985, Note_on_c, 7, 55, 127
2, 2075, Note_off_c, 7, 67, 127
2, 2077, Note_on_c, 4, 64, 127
2, 2167, Note_off_c, 4, 64, 127
2, 2168, Note_on_c, 0, 60, 127
2, 2258, Note_off_c, 0, 60, 127
2, 2258, Note_off_c, 7, 55, 127
2, 2260, Note_on_c, 10, 57, 127
2, 2260, Note_on_c, 7, 55, 127
2, 2352, Note_on_c, 0, 60, 127
2, 2442, Note_off_c, 0, 60, 127
2, 2443, Note_on_c, 6, 66, 127
2, 2532, Note_off_c, 7, 43, 127
2, 2533, Note_off_c, 6, 66, 127
2, 2535, Note_on_c, 10, 69, 127
2, 2535, Note_on_c, 7, 43, 127
2, 2625, Note_off_c, 10, 69, 127
2, 2626, Note_on_c, 6, 66, 127
2, 2716, Note_off_c, 6, 66, 127
2, 2718, Note_on_c, 0, 60, 127
2, 2808, Note_off_c, 0, 60, 127
2, 2809, Note_on_c, 6, 66, 127
2, 2899, Note_off_c, 6, 66, 127
2, 2901, Note_on_c, 0, 60, 127
2, 2989, Note_off_c, 10, 57, 127
2, 2991, Note_off_c, 0, 60, 127
2, 2992, Note_on_c, 10, 57, 127
2, 3082, Note_off_c, 10, 57, 127
2, 3082, Note_off_c, 7, 55, 127
2, 3084, Note_on_c, 0, 60, 127
2, 3084, Note_on_c, 7, 55, 127
2, 3174, Note_off_c, 0, 60, 127
2, 3175, Note_on_c, 10, 57, 127
2, 3264, Note_off_c, 7, 55, 127
2, 3265, Note_off_c, 10, 57, 127
2, 3267, Note_on_c, 6, 54, 127
2, 3352, Note_off_c, 6, 54, 127
2, 3358, Note_on_c, 7, 55, 127
2, 3450, Note_on_c, 12, 59, 127
2, 3540, Note_off_c, 12, 59, 127
2, 3541, Note_on_c, 2, 62, 127
2, 3631, Note_off_c, 2, 62, 127
2, 3631, Note_off_c, 7, 43, 127
2, 3633, Note_on_c, 7, 67, 127
2, 3633, Note_on_c, 7, 43, 127
2, 3723, Note_off_c, 7, 67, 127
2, 3724, Note_on_c, 2, 62, 127
2, 3814, Note_off_c, 2, 62, 127
2, 3816, Note_on_c, 12, 59, 127
2, 3906, Note_off_c, 12, 59, 127
2, 3907, Note_on_c, 2, 62, 127
2, 3997, Note_off_c, 2, 62, 127
2, 3999, Note_on_c, 12, 59, 127
2, 4087, Note_off_c, 7, 55, 127
2, 4089, Note_off_c, 12, 59, 127
2, 4090, Note_on_c, 7, 55, 127
2, 4180, Note_off_c, 7, 55, 127
2, 4182, Note_on_c, 12, 59, 127
2, 4182, Note_on_c, 7, 55, 127
2, 4272, Note_off_c, 7, 55, 127
2, 4272, Note_off_c, 12, 59, 127
2, 4273, Note_on_c, 7, 55, 127
2, 4365, Note_on_c, 4, 52, 127
2, 4453, Note_off_c, 7, 55, 127
2, 4455, Note_off_c, 4, 52, 127
2, 4456, Note_on_c, 10, 57, 127
2, 4456, Note_on_c, 7, 55, 127
2, 4548, Note_on_c, 1, 61, 127
2, 4638, Note_off_c, 1, 61, 127
2, 4640, Note_on_c, 4, 64, 127
2, 4729, Note_off_c, 7, 43, 127
2, 4730, Note_off_c, 4, 64, 127
2, 4731, Note_on_c, 10, 69, 127
2, 4731, Note_on_c, 7, 43, 127
2, 4821, Note_off_c, 10, 69, 127
2, 4823, Note_on_c, 4, 64, 127
2, 4913, Note_off_c, 4, 64, 127
2, 4914, Note_on_c, 1, 61, 127
2, 5004, Note_off_c, 1, 61, 127
2, 5006, Note_on_c, 4, 64, 127
2, 5096, Note_off_c, 4, 64, 127
2, 5097, Note_on_c, 1, 61, 127
2, 5185, Note_off_c, 10, 57, 127
2, 5187, Note_off_c, 1, 61, 127
2, 5189, Note_on_c, 10, 57, 127
2, 5278, Note_off_c, 7, 43, 127
2, 5278, Note_off_c, 7, 55, 127
2, 5279, Note_off_c, 10, 57, 127
2, 5280, Note_on_c, 1, 61, 127
2, 5280, Note_on_c, 7, 55, 127
2, 5370, Note_off_c, 1, 61, 127
2, 5372, Note_on_c, 10, 57, 127
2, 5462, Note_off_c, 10, 57, 127
2, 5463, Note_on_c, 4, 52, 127
2, 5553, Note_off_c, 4, 52, 127
2, 5553, Note_off_c, 7, 55, 127
2, 5555, Note_on_c, 2, 62, 127
2, 5555, Note_on_c, 6, 54, 127
2, 5646, Note_on_c, 10, 57, 127
2, 5736, Note_off_c, 10, 57, 127
2, 5738, Note_on_c, 1, 61, 127
2, 5826, Note_off_c, 6, 54, 127
2, 5826, Note_off_c, 2, 62, 127
2, 5828, Note_off_c, 1, 61, 127
2, 5829, Note_on_c, 2, 62, 127
2, 5921, Note_on_c, 10, 57, 127
2, 6011, Note_off_c, 10, 57, 127
2, 6012, Note_on_c, 6, 54, 127
2, 6102, Note_off_c, 6, 54, 127
2, 6104, Note_on_c, 10, 57, 127
2, 6194, Note_off_c, 10, 57, 127
2, 6195, Note_on_c, 6, 54, 127
2, 6285, Note_off_c, 6, 54, 127
2, 6287, Note_on_c, 2, 50, 127
2, 6372, Note_off_c, 2, 62, 127
2, 6377, Note_off_c, 2, 50, 127
2, 6378, Note_on_c, 2, 62, 127
2, 6378, Note_on_c, 6, 54, 127
2, 6468, Note_off_c, 6, 54, 127
2, 6470, Note_on_c, 2, 50, 127
2, 6560, Note_off_c, 2, 50, 127
2, 6561, Note_on_c, 12, 47, 127
2, 6651, Note_off_c, 12, 47, 127
2, 6651, Note_off_c, 2, 62, 127
2, 6653, Note_on_c, 2, 62, 127
2, 6653, Note_on_c, 4, 52, 127
2, 6744, Note_on_c, 1, 61, 127
2, 6824, Note_off_c, 2, 62, 127
2, 6834, Note_off_c, 1, 61, 127
2, 6836, Note_on_c, 2, 62, 127
2, 6926, Note_off_c, 2, 62, 127
2, 6928, Note_on_c, 4, 64, 127
2, 6928, Note_on_c, 4, 40, 127
2, 7019, Note_on_c, 1, 61, 127
2, 7109, Note_off_c, 1, 61, 127
2, 7111, Note_on_c, 2, 62, 127
2, 7156, Note_off_c, 4, 64, 127
2, 7196, Note_off_c, 4, 52, 127
2, 7199, Note_off_c, 4, 40, 127
2, 7201, Note_off_c, 2, 62, 127
2, 7202, Note_on_c, 6, 66, 127
2, 7294, Note_on_c, 1, 61, 127
2, 7384, Note_off_c, 1, 61, 127
2, 7385, Note_on_c, 2, 62, 127
2, 7430, Note_off_c, 6, 66, 127
2, 7475, Note_off_c, 2, 62, 127
2, 7477, Note_on_c, 7, 67, 127
2, 7477, Note_on_c, 4, 52, 127
2, 7568, Note_on_c, 1, 61, 127
2, 7658, Note_off_c, 1, 61, 127
2, 7660, Note_on_c, 2, 62, 127
2, 7705, Note_off_c, 7, 67, 127
2, 7750, Note_off_c, 2, 62, 127
2, 7750, Note_off_c, 4, 52, 127
2, 7751, Note_on_c, 10, 69, 127
2, 7751, Note_on_c, 1, 49, 127
2, 7843, Note_on_c, 1, 61, 127
2, 7933, Note_off_c, 1, 61, 127
2, 7934, Note_on_c, 2, 62, 127
2, 7979, Note_off_c, 10, 69, 127
2, 8024, Note_off_c, 2, 62, 127
2, 8024, Note_off_c, 1, 49, 127
2, 8026, Note_on_c, 12, 71, 127
2, 8026, Note_on_c, 10, 45, 127
2, 8117, Note_on_c, 1, 61, 127
2, 8207, Note_off_c, 1, 61, 127
2, 8209, Note_on_c, 2, 62, 127
2, 8254, Note_off_c, 12, 71, 127
2, 8299, Note_off_c, 2, 62, 127
2, 8299, Note_off_c, 10, 45, 127
2, 8300, Note_on_c, 10, 69, 127
2, 8300, Note_on_c, 12, 47, 127
2, 8392, Note_on_c, 1, 61, 127
2, 8482, Note_off_c, 1, 61, 127
2, 8483, Note_on_c, 2, 62, 127
2, 8528, Note_off_c, 10, 69, 127
2, 8573, Note_off_c, 2, 62, 127
2, 8573, Note_off_c, 12, 47, 127
2, 8575, Note_on_c, 7, 67, 127
2, 8575, Note_on_c, 1, 49, 127
2, 8666, Note_on_c, 1, 61, 127
2, 8756, Note_off_c, 1, 61, 127
2, 8758, Note_on_c, 2, 62, 127
2, 8803, Note_off_c, 7, 67, 127
2, 8848, Note_off_c, 2, 62, 127
2, 8848, Note_off_c, 1, 49, 127
2, 8849, Note_on_c, 6, 66, 127
2, 8849, Note_on_c, 2, 50, 127
2, 8941, Note_on_c, 1, 61, 127
2, 9031, Note_off_c, 1, 61, 127
2, 9032, Note_on_c, 2, 62, 127
2, 9106, Note_off_c, 2, 50, 127
2, 9122, Note_off_c, 2, 62, 127
2, 9122, Note_off_c, 6, 66, 127
2, 9124, Note_on_c, 7, 67, 127
2, 9124, Note_on_c, 4, 52, 127
2, 9216, Note_on_c, 1, 61, 127
2, 9306, Note_off_c, 1, 61, 127
2, 9307, Note_on_c, 2, 62, 127
2, 9381, Note_off_c, 4, 52, 127
2, 9397, Note_off_c, 2, 62, 127
2, 9397, Note_off_c, 7, 67, 127
2, 9399, Note_on_c, 10, 69, 127
2, 9399, Note_on_c, 6, 54, 127
2, 9490, Note_on_c, 1, 61, 127
2, 9580, Note_off_c, 1, 61, 127
2, 9582, Note_on_c, 2, 62, 127
2, 9656, Note_off_c, 6, 54, 127
2, 9672, Note_off_c, 2, 62, 127
2, 9672, Note_off_c, 10, 69, 127
2, 9673, Note_on_c, 12, 71, 127
2, 9673, Note_on_c, 7, 55, 127
2, 9765, Note_on_c, 1, 61, 127
2, 9855, Note_off_c, 1, 61, 127
2, 9856, Note_on_c, 2, 62, 127
2, 9930, Note_off_c, 7, 55, 127
2, 9946, Note_off_c, 2, 62, 127
2, 9946, Note_off_c, 12, 71, 127
2, 9948, Note_on_c, 10, 69, 127
2, 9948, Note_on_c, 6, 54, 127
2, 10039, Note_on_c, 1, 61, 127
2, 10129, Note_off_c, 1, 61, 127
2, 10131, Note_on_c, 2, 62, 127
2, 10205, Note_off_c, 6, 54, 127
2, 10221, Note_off_c, 2, 62, 127
2, 10221, Note_off_c, 10, 69, 127
2, 10222, Note_on_c, 7, 67, 127
2, 10222, Note_on_c, 4, 52, 127
2, 10314, Note_on_c, 1, 61, 127
2, 10404, Note_off_c, 1, 61, 127
2, 10405, Note_on_c, 2, 62, 127
2, 10479, Note_off_c, 4, 52, 127
2, 10495, Note_off_c, 2, 62, 127
2, 10495, Note_off_c, 7, 67, 127
2, 10497, Note_on_c, 6, 66, 127
2, 10497, Note_on_c, 2, 50, 127
2, 10588, Note_on_c, 1, 61, 127
2, 10678, Note_off_c, 1, 61, 127
2, 10680, Note_on_c, 2, 62, 127
2, 10754, Note_off_c, 2, 50, 127
2, 10770, Note_off_c, 2, 62, 127
2, 10770, Note_off_c, 6, 66, 127
2, 10771, Note_on_c, 10, 69, 127
2, 10771, Note_on_c, 6, 54, 127
2, 10863, Note_on_c, 1, 61, 127
2, 10942, Note_off_c, 6, 54, 127
2, 10953, Note_off_c, 1, 61, 127
2, 10954, Note_on_c, 2, 62, 127
2, 11044, Note_off_c, 2, 62, 127
2, 11044, Note_off_c, 10, 69, 127
2, 11046, Note_on_c, 8, 68, 127
2, 11046, Note_on_c, 12, 47, 127
2, 11137, Note_on_c, 12, 71, 127
2, 11227, Note_off_c, 12, 71, 127
2, 11229, Note_on_c, 2, 74, 127
2, 11319, Note_off_c, 2, 74, 127
2, 11320, Note_on_c, 5, 77, 127
2, 11320, Note_on_c, 12, 59, 127
2, 11410, Note_off_c, 5, 77, 127
2, 11412, Note_on_c, 2, 74, 127
2, 11502, Note_off_c, 2, 74, 127
2, 11504, Note_on_c, 12, 71, 127
2, 11589, Note_off_c, 12, 47, 127
2, 11594, Note_off_c, 12, 71, 127
2, 11595, Note_on_c, 2, 74, 127
2, 11685, Note_off_c, 2, 74, 127
2, 11687, Note_on_c, 12, 71, 127
2, 11720, Note_off_c, 12, 59, 127
2, 11775, Note_off_c, 8, 68, 127
2, 11777, Note_off_c, 12, 71, 127
2, 11778, Note_on_c, 8, 68, 127
2, 11868, Note_off_c, 8, 68, 127
2, 11870, Note_on_c, 12, 71, 127
2, 11870, Note_on_c, 10, 57, 127
2, 11960, Note_off_c, 12, 71, 127
2, 11961, Note_on_c, 8, 68, 127
2, 12051, Note_off_c, 8, 68, 127
2, 12053, Note_on_c, 4, 64, 127
2, 12143, Note_off_c, 4, 64, 127
2, 12143, Note_off_c, 10, 57, 127
2, 12144, Note_on_c, 2, 62, 127
2, 12144, Note_on_c, 8, 56, 127
2, 12236, Note_on_c, 5, 65, 127
2, 12326, Note_off_c, 5, 65, 127
2, 12327, Note_on_c, 8, 68, 127
2, 12417, Note_off_c, 8, 68, 127
2, 12419, Note_on_c, 12, 71, 127
2, 12419, Note_on_c, 8, 44, 127
2, 12509, Note_off_c, 12, 71, 127
2, 12510, Note_on_c, 8, 68, 127
2, 12600, Note_off_c, 8, 68, 127
2, 12602, Note_on_c, 5, 65, 127
2, 12687, Note_off_c, 8, 56, 127
2, 12692, Note_off_c, 5, 65, 127
2, 12693, Note_on_c, 8, 68, 127
2, 12733, Note_off_c, 8, 44, 127
2, 12783, Note_off_c, 8, 68, 127
2, 12785, Note_on_c, 5, 65, 127
2, 12873, Note_off_c, 2, 62, 127
2, 12875, Note_off_c, 5, 65, 127
2, 12876, Note_on_c, 2, 62, 127
2, 12966, Note_off_c, 2, 62, 127
2, 12968, Note_on_c, 5, 65, 127
2, 12968, Note_on_c, 8, 56, 127
2, 13058, Note_off_c, 5, 65, 127
2, 13059, Note_on_c, 2, 62, 127
2, 13149, Note_off_c, 2, 62, 127
2, 13151, Note_on_c, 12, 59, 127
2, 13241, Note_off_c, 12, 59, 127
2, 13241, Note_off_c, 8, 56, 127
2, 13242, Note_on_c, 0, 60, 127
2, 13242, Note_on_c, 10, 57, 127
2, 13332, Note_off_c, 0, 60, 127
2, 13334, Note_on_c, 0, 60, 127
2, 13424, Note_off_c, 0, 60, 127
2, 13425, Note_on_c, 4, 64, 127
2, 13515, Note_off_c, 4, 64, 127
2, 13517, Note_on_c, 4, 76, 127
2, 13517, Note_on_c, 10, 69, 127
2, 13607, Note_off_c, 10, 69, 127
2, 13608, Note_on_c, 4, 64, 127
2, 13698, Note_off_c, 4, 64, 127
2, 13700, Note_on_c, 0, 60, 127
2, 13785, Note_off_c, 10, 57, 127
2, 13790, Note_off_c, 0, 60, 127
2, 13790, Note_off_c, 4, 76, 127
2, 13792, Note_on_c, 0, 72, 127
2, 13792, Note_on_c, 4, 64, 127
2, 13882, Note_off_c, 4, 64, 127
2, 13883, Note_on_c, 0, 60, 127
2, 13973, Note_off_c, 0, 60, 127
2, 13975, Note_on_c, 10, 57, 127
2, 14065, Note_off_c, 10, 57, 127
2, 14065, Note_off_c, 0, 72, 127
2, 14066, Note_on_c, 10, 69, 127
2, 14066, Note_on_c, 0, 60, 127
2, 14156, Note_off_c, 0, 60, 127
2, 14158, Note_on_c, 10, 57, 127
2, 14248, Note_off_c, 10, 57, 127
2, 14249, Note_on_c, 4, 52, 127
2, 14339, Note_off_c, 4, 52, 127
2, 14339, Note_off_c, 10, 69, 127
2, 14341, Note_on_c, 4, 64, 127
2, 14341, Note_on_c, 0, 48, 127
2, 14432, Note_on_c, 4, 52, 127
2, 14522, Note_off_c, 4, 52, 127
2, 14524, Note_on_c, 10, 57, 127
2, 14614, Note_off_c, 10, 57, 127
2, 14614, Note_off_c, 4, 64, 127
2, 14615, Note_on_c, 4, 76, 127
2, 14615, Note_on_c, 0, 60, 127
2, 14705, Note_off_c, 0, 60, 127
2, 14707, Note_on_c, 10, 57, 127
2, 14797, Note_off_c, 10, 57, 127
2, 14798, Note_on_c, 4, 52, 127
2, 14884, Note_off_c, 0, 48, 127
2, 14888, Note_off_c, 4, 52, 127
2, 14888, Note_off_c, 4, 76, 127
2, 14890, Note_on_c, 0, 72, 127
2, 14890, Note_on_c, 10, 57, 127
2, 14980, Note_off_c, 10, 57, 127
2, 14981, Note_on_c, 4, 52, 127
2, 15071, Note_off_c, 4, 52, 127
2, 15073, Note_on_c, 0, 48, 127
2, 15163, Note_off_c, 0, 48, 127
2, 15163, Note_off_c, 0, 72, 127
2, 15164, Note_on_c, 10, 69, 127
2, 15164, Note_on_c, 4, 52, 127
2, 15254, Note_off_c, 4, 52, 127
2, 15256, Note_on_c, 0, 48, 127
2, 15346, Note_off_c, 0, 48, 127
2, 15347, Note_on_c, 10, 45, 127
2, 15437, Note_off_c, 10, 45, 127
2, 15437, Note_off_c, 10, 69, 127
2, 15439, Note_on_c, 3, 75, 127
2, 15439, Note_on_c, 6, 42, 127
2, 15530, Note_on_c, 6, 78, 127
2, 15620, Note_off_c, 6, 78, 127
2, 15622, Note_on_c, 10, 81, 127
2, 15712, Note_off_c, 10, 81, 127
2, 15713, Note_on_c, 0, 84, 127
2, 15713, Note_on_c, 6, 54, 127
2, 15803, Note_off_c, 0, 84, 127
2, 15805, Note_on_c, 10, 81, 127
2, 15895, Note_off_c, 10, 81, 127
2, 15896, Note_on_c, 6, 78, 127
2, 15982, Note_off_c, 6, 42, 127
2, 15982, Note_off_c, 3, 75, 127
2, 15986, Note_off_c, 6, 78, 127
2, 15988, Note_on_c, 10, 81, 127
2, 16078, Note_off_c, 10, 81, 127
2, 16080, Note_on_c, 6, 78, 127
2, 16113, Note_off_c, 6, 54, 127
2, 16170, Note_off_c, 6, 78, 127
2, 16171, Note_on_c, 3, 75, 127
2, 16261, Note_off_c, 3, 75, 127
2, 16263, Note_on_c, 6, 78, 127
2, 16263, Note_on_c, 4, 52, 127
2, 16353, Note_off_c, 6, 78, 127
2, 16354, Note_on_c, 3, 75, 127
2, 16444, Note_off_c, 3, 75, 127
2, 16446, Note_on_c, 12, 71, 127
2, 16536, Note_off_c, 12, 71, 127
2, 16536, Note_off_c, 4, 52, 127
2, 16537, Note_on_c, 10, 69, 127
2, 16537, Note_on_c, 3, 51, 127
2, 16629, Note_on_c, 0, 72, 127
2, 16719, Note_off_c, 0, 72, 127
2, 16720, Note_on_c, 3, 75, 127
2, 16810, Note_off_c, 3, 75, 127
2, 16812, Note_on_c, 6, 78, 127
2, 16812, Note_on_c, 3, 39, 127
2, 16902, Note_off_c, 6, 78, 127
2, 16903, Note_on_c, 3, 75, 127
2, 16993, Note_off_c, 3, 75, 127
2, 16995, Note_on_c, 0, 72, 127
2, 17080, Note_off_c, 10, 69, 127
2, 17085, Note_off_c, 0, 72, 127
2, 17086, Note_on_c, 3, 75, 127
2, 17137, Note_off_c, 3, 51, 127
2, 17176, Note_off_c, 3, 75, 127
2, 17178, Note_on_c, 0, 72, 127
2, 17268, Note_off_c, 0, 72, 127
2, 17269, Note_off_c, 3, 39, 127
2, 17269, Note_on_c, 10, 69, 127
2, 17359, Note_off_c, 10, 69, 127
2, 17361, Note_on_c, 0, 72, 127
2, 17361, Note_on_c, 3, 51, 127
2, 17451, Note_off_c, 0, 72, 127
2, 17452, Note_on_c, 10, 69, 127
2, 17542, Note_off_c, 10, 69, 127
2, 17544, Note_on_c, 6, 66, 127
2, 17634, Note_off_c, 6, 66, 127
2, 17634, Note_off_c, 3, 51, 127
2, 17635, Note_on_c, 7, 67, 127
2, 17635, Note_on_c, 4, 52, 127
2, 17727, Note_on_c, 3, 63, 127
2, 17817, Note_off_c, 3, 63, 127
2, 17818, Note_on_c, 4, 64, 127
2, 17892, Note_off_c, 4, 52, 127
2, 17908, Note_off_c, 4, 64, 127
2, 17908, Note_off_c, 7, 67, 127
2, 17910, Note_on_c, 10, 69, 127
2, 17910, Note_on_c, 6, 54, 127
2, 18001, Note_on_c, 3, 63, 127
2, 18091, Note_off_c, 3, 63, 127
2, 18093, Note_on_c, 4, 64, 127
2, 18167, Note_off_c, 6, 54, 127
2, 18183, Note_off_c, 4, 64, 127
2, 18183, Note_off_c, 10, 69, 127
2, 18184, Note_on_c, 12, 71, 127
2, 18184, Note_on_c, 7, 55, 127
2, 18276, Note_on_c, 3, 63, 127
2, 18366, Note_off_c, 3, 63, 127
2, 18368, Note_on_c, 4, 64, 127
2, 18441, Note_off_c, 7, 55, 127
2, 18457, Note_off_c, 12, 71, 127
2, 18458, Note_off_c, 4, 64, 127
2, 18459, Note_on_c, 0, 72, 127
2, 18459, Note_on_c, 10, 57, 127
2, 18551, Note_on_c, 3, 63, 127
2, 18641, Note_off_c, 3, 63, 127
2, 18642, Note_on_c, 4, 64, 127
2, 18716, Note_off_c, 10, 57, 127
2, 18732, Note_off_c, 4, 64, 127
2, 18732, Note_off_c, 0, 72, 127
2, 18734, Note_on_c, 12, 71, 127
2, 18734, Note_on_c, 7, 55, 127
2, 18825, Note_on_c, 3, 63, 127
2, 18915, Note_off_c, 3, 63, 127
2, 18917, Note_on_c, 4, 64, 127
2, 18991, Note_off_c, 7, 55, 127
2, 19007, Note_off_c, 4, 64, 127
2, 19007, Note_off_c, 12, 71, 127
2, 19008, Note_on_c, 10, 69, 127
2, 19008, Note_on_c, 6, 54, 127
2, 19100, Note_on_c, 3, 63, 127
2, 19190, Note_off_c, 3, 63, 127
2, 19191, Note_on_c, 4, 64, 127
2, 19265, Note_off_c, 6, 54, 127
2, 19281, Note_off_c, 4, 64, 127
2, 19281, Note_off_c, 10, 69, 127
2, 19283, Note_on_c, 7, 67, 127
2, 19283, Note_on_c, 4, 52, 127
2, 19374, Note_on_c, 3, 63, 127
2, 19464, Note_off_c, 3, 63, 127
2, 19466, Note_on_c, 4, 64, 127
2, 19540, Note_off_c, 4, 52, 127
2, 19556, Note_off_c, 4, 64, 127
2, 19556, Note_off_c, 7, 67, 127
2, 19557, Note_on_c, 12, 71, 127
2, 19557, Note_on_c, 7, 55, 127
2, 19649, Note_on_c, 3, 63, 127
2, 19728, Note_off_c, 7, 55, 127
2, 19739, Note_off_c, 3, 63, 127
2, 19740, Note_on_c, 4, 64, 127
2, 19830, Note_off_c, 4, 64, 127
2, 19830, Note_off_c, 12, 71, 127
2, 19832, Note_on_c, 10, 69, 127
2, 19832, Note_on_c, 1, 49, 127
2, 19923, Note_on_c, 8, 68, 127
2, 20003, Note_off_c, 10, 69, 127
2, 20013, Note_off_c, 8, 68, 127
2, 20015, Note_on_c, 10, 69, 127
2, 20105, Note_off_c, 10, 69, 127
2, 20105, Note_off_c, 1, 49, 127
2, 20106, Note_on_c, 12, 71, 127
2, 20106, Note_on_c, 2, 50, 127
2, 20198, Note_on_c, 8, 68, 127
2, 20288, Note_off_c, 8, 68, 127
2, 20289, Note_on_c, 10, 69, 127
2, 20306, Note_off_c, 12, 71, 127
2, 20379, Note_off_c, 10, 69, 127
2, 20379, Note_off_c, 2, 50, 127
2, 20381, Note_on_c, 1, 73, 127
2, 20381, Note_on_c, 4, 52, 127
2, 20472, Note_on_c, 8, 68, 127
2, 20562, Note_off_c, 8, 68, 127
2, 20564, Note_on_c, 10, 69, 127
2, 20581, Note_off_c, 1, 73, 127
2, 20654, Note_off_c, 10, 69, 127
2, 20654, Note_off_c, 4, 52, 127
2, 20656, Note_on_c, 2, 74, 127
2, 20656, Note_on_c, 6, 54, 127
2, 20747, Note_on_c, 8, 68, 127
2, 20837, Note_off_c, 8, 68, 127
2, 20839, Note_on_c, 10, 69, 127
2, 20856, Note_off_c, 2, 74, 127
2, 20929, Note_off_c, 10, 69, 127
2, 20929, Note_off_c, 6, 54, 127
2, 20930, Note_on_c, 4, 76, 127
2, 20930, Note_on_c, 1, 49, 127
2, 21022, Note_on_c, 8, 68, 127
2, 21112, Note_off_c, 8, 68, 127
2, 21113, Note_on_c, 10, 69, 127
2, 21130, Note_off_c, 4, 76, 127
2, 21203, Note_off_c, 10, 69, 127
2, 21203, Note_off_c, 1, 49, 127
2, 21205, Note_on_c, 6, 78, 127
2, 21205, Note_on_c, 12, 47, 127
2, 21296, Note_on_c, 8, 68, 127
2, 21386, Note_off_c, 8, 68, 127
2, 21388, Note_on_c, 10, 69, 127
2, 21405, Note_off_c, 6, 78, 127
2, 21478, Note_off_c, 10, 69, 127
2, 21478, Note_off_c, 12, 47, 127
2, 21479, Note_on_c, 7, 79, 127
2, 21479, Note_on_c, 10, 45, 127
2, 21571, Note_on_c, 4, 76, 127
2, 21650, Note_off_c, 7, 79, 127
2, 21661, Note_off_c, 4, 76, 127
2, 21662, Note_on_c, 1, 73, 127
2, 21752, Note_off_c, 1, 73, 127
2, 21752, Note_off_c, 10, 45, 127
2, 21754, Note_on_c, 10, 69, 127
2, 21754, Note_on_c, 1, 49, 127
2, 21845, Note_on_c, 1, 73, 127
2, 21925, Note_off_c, 10, 69, 127
2, 21935, Note_off_c, 1, 73, 127
2, 21937, Note_on_c, 4, 76, 127
2, 22027, Note_off_c, 4, 76, 127
2, 22027, Note_off_c, 1, 49, 127
2, 22028, Note_on_c, 6, 78, 127
2, 22028, Note_on_c, 2, 50, 127
2, 22118, Note_off_c, 2, 50, 127
2, 22120, Note_on_c, 6, 54, 127
2, 22210, Note_off_c, 6, 54, 127
2, 22211, Note_on_c, 10, 57, 127
2, 22301, Note_off_c, 10, 57, 127
2, 22303, Note_on_c, 2, 62, 127
2, 22393, Note_off_c, 2, 62, 127
2, 22394, Note_on_c, 10, 57, 127
2, 22484, Note_off_c, 10, 57, 127
2, 22486, Note_on_c, 6, 54, 127
2, 22514, Note_off_c, 6, 78, 127
2, 22576, Note_off_c, 6, 54, 127
2, 22577, Note_on_c, 10, 81, 127
2, 22577, Note_on_c, 2, 50, 127
2, 22667, Note_off_c, 10, 81, 127
2, 22669, Note_on_c, 6, 78, 127
2, 22759, Note_off_c, 6, 78, 127
2, 22760, Note_on_c, 2, 74, 127
2, 22850, Note_off_c, 2, 74, 127
2, 22852, Note_on_c, 0, 72, 127
2, 22852, Note_on_c, 2, 62, 127
2, 22942, Note_off_c, 0, 72, 127
2, 22944, Note_on_c, 2, 74, 127
2, 23034, Note_off_c, 2, 74, 127
2, 23035, Note_on_c, 6, 78, 127
2, 23120, Note_off_c, 2, 50, 127
2, 23125, Note_off_c, 6, 78, 127
2, 23127, Note_on_c, 10, 81, 127
2, 23127, Note_on_c, 2, 50, 127
2, 23217, Note_off_c, 2, 50, 127
2, 23218, Note_on_c, 7, 55, 127
2, 23308, Note_off_c, 7, 55, 127
2, 23310, Note_on_c, 12, 59, 127
2, 23367, Note_off_c, 10, 81, 127
2, 23395, Note_off_c, 2, 62, 127
2, 23400, Note_off_c, 12, 59, 127
2, 23401, Note_on_c, 7, 79, 127
2, 23401, Note_on_c, 2, 62, 127
2, 23491, Note_off_c, 2, 62, 127
2, 23493, Note_on_c, 12, 59, 127
2, 23583, Note_off_c, 12, 59, 127
2, 23584, Note_on_c, 7, 55, 127
2, 23641, Note_off_c, 7, 79, 127
2, 23674, Note_off_c, 7, 55, 127
2, 23676, Note_on_c, 7, 79, 127
2, 23676, Note_on_c, 2, 50, 127
2, 23766, Note_off_c, 7, 79, 127
2, 23767, Note_on_c, 4, 76, 127
2, 23857, Note_off_c, 4, 76, 127
2, 23859, Note_on_c, 1, 73, 127
2, 23949, Note_off_c, 1, 73, 127
2, 23950, Note_on_c, 10, 69, 127
2, 23950, Note_on_c, 2, 62, 127
2, 24040, Note_off_c, 10, 69, 127
2, 24042, Note_on_c, 1, 73, 127
2, 24132, Note_off_c, 1, 73, 127
2, 24133, Note_on_c, 4, 76, 127
2, 24219, Note_off_c, 2, 50, 127
2, 24223, Note_off_c, 4, 76, 127
2, 24225, Note_on_c, 7, 79, 127
2, 24225, Note_on_c, 2, 50, 127
2, 24315, Note_off_c, 2, 50, 127
2, 24316, Note_on_c, 10, 57, 127
2, 24406, Note_off_c, 10, 57, 127
2, 24408, Note_on_c, 1, 61, 127
2, 24453, Note_off_c, 7, 79, 127
2, 24493, Note_off_c, 2, 62, 127
2, 24498, Note_off_c, 1, 61, 127
2, 24499, Note_on_c, 6, 78, 127
2, 24499, Note_on_c, 2, 62, 127
2, 24589, Note_off_c, 2, 62, 127
2, 24591, Note_on_c, 10, 57, 127
2, 24681, Note_off_c, 10, 57, 127
2, 24682, Note_on_c, 6, 54, 127
2, 24727, Note_off_c, 6, 78, 127
2, 24772, Note_off_c, 6, 54, 127
2, 24774, Note_on_c, 6, 78, 127
2, 24774, Note_on_c, 2, 50, 127
2, 24864, Note_off_c, 6, 78, 127
2, 24865, Note_on_c, 2, 74, 127
2, 24955, Note_off_c, 2, 74, 127
2, 24957, Note_on_c, 12, 71, 127
2, 25047, Note_off_c, 12, 71, 127
2, 25048, Note_on_c, 7, 67, 127
2, 25048, Note_on_c, 2, 62, 127
2, 25138, Note_off_c, 7, 67, 127
2, 25140, Note_on_c, 12, 71, 127
2, 25230, Note_off_c, 12, 71, 127
2, 25232, Note_on_c, 2, 74, 127
2, 25317, Note_off_c, 2, 50, 127
2, 25322, Note_off_c, 2, 74, 127
2, 25323, Note_on_c, 6, 78, 127
2, 25323, Note_on_c, 2, 50, 127
2, 25413, Note_off_c, 2, 50, 127
2, 25415, Note_on_c, 4, 52, 127
2, 25505, Note_off_c, 4, 52, 127
2, 25506, Note_on_c, 7, 55, 127
2, 25591, Note_off_c, 2, 62, 127
2, 25596, Note_off_c, 7, 55, 127
2, 25597, Note_off_c, 6, 78, 127
2, 25598, Note_on_c, 12, 59, 127
2, 25600, Note_on_c, 4, 76, 127
2, 25688, Note_off_c, 12, 59, 127
2, 25689, Note_on_c, 2, 74, 127
2, 25689, Note_on_c, 7, 55, 127
2, 25690, Note_off_c, 4, 76, 127
2, 25778, Note_on_c, 4, 76, 127
2, 25779, Note_off_c, 7, 55, 127
2, 25779, Note_off_c, 2, 74, 127
2, 25781, Note_on_c, 4, 52, 127
2, 25868, Note_off_c, 4, 76, 127
2, 25871, Note_off_c, 4, 52, 127
2, 25872, Note_on_c, 4, 76, 127
2, 25872, Note_on_c, 2, 50, 127
2, 25962, Note_off_c, 4, 76, 127
2, 25964, Note_on_c, 1, 73, 127
2, 26054, Note_off_c, 1, 73, 127
2, 26055, Note_on_c, 10, 69, 127
2, 26145, Note_off_c, 10, 69, 127
2, 26147, Note_on_c, 7, 67, 127
2, 26147, Note_on_c, 2, 62, 127
2, 26237, Note_off_c, 7, 67, 127
2, 26238, Note_on_c, 10, 69, 127
2, 26272, Note_off_c, 2, 50, 127
2, 26328, Note_off_c, 10, 69, 127
2, 26330, Note_on_c, 1, 73, 127
2, 26420, Note_off_c, 1, 73, 127
2, 26420, Note_off_c, 2, 62, 127
2, 26421, Note_on_c, 4, 76, 127
2, 26421, Note_on_c, 2, 50, 127
2, 26511, Note_off_c, 2, 50, 127
2, 26513, Note_on_c, 6, 54, 127
2, 26603, Note_off_c, 6, 54, 127
2, 26604, Note_on_c, 10, 57, 127
2, 26694, Note_off_c, 10, 57, 127
2, 26694, Note_off_c, 4, 76, 127
2, 26696, Note_on_c, 2, 74, 127
2, 26696, Note_on_c, 2, 62, 127
2, 26757, Note_off_c, 2, 74, 127
2, 26759, Note_on_c, 1, 73, 127
2, 26786, Note_off_c, 2, 62, 127
2, 26787, Note_on_c, 10, 57, 127
2, 26820, Note_off_c, 1, 73, 127
2, 26822, Note_on_c, 2, 74, 127
2, 26877, Note_off_c, 10, 57, 127
2, 26879, Note_on_c, 6, 54, 127
2, 26969, Note_off_c, 6, 54, 127
2, 26970, Note_on_c, 10, 57, 127
2, 27060, Note_off_c, 10, 57, 127
2, 27062, Note_on_c, 6, 54, 127
2, 27152, Note_off_c, 6, 54, 127
2, 27153, Note_on_c, 2, 50, 127
2, 27243, Note_off_c, 2, 50, 127
2, 27245, Note_on_c, 6, 54, 127
2, 27308, Note_off_c, 2, 74, 127
2, 27335, Note_off_c, 6, 54, 127
2, 27336, Note_on_c, 2, 50, 127
2, 27426, Note_off_c, 2, 50, 127
2, 27428, Note_on_c, 2, 74, 127
2, 27428, Note_on_c, 0, 48, 127
2, 27518, Note_off_c, 0, 48, 127
2, 27518, Note_off_c, 2, 74, 127
2, 27520, Note_on_c, 2, 74, 127
2, 27520, Note_on_c, 12, 47, 127
2, 27610, Note_off_c, 12, 47, 127
2, 27610, Note_off_c, 2, 74, 127
2, 27611, Note_on_c, 0, 72, 127
2, 27611, Note_on_c, 2, 50, 127
2, 27701, Note_off_c, 2, 50, 127
2, 27701, Note_off_c, 0, 72, 127
2, 27703, Note_on_c, 12, 71, 127
2, 27703, Note_on_c, 6, 54, 127
2, 27793, Note_off_c, 6, 54, 127
2, 27793, Note_off_c, 12, 71, 127
2, 27794, Note_on_c, 12, 71, 127
2, 27794, Note_on_c, 7, 55, 127
2, 27884, Note_off_c, 7, 55, 127
2, 27884, Note_off_c, 12, 71, 127
2, 27886, Note_on_c, 10, 69, 127
2, 27886, Note_on_c, 2, 50, 127
2, 27976, Note_off_c, 2, 50, 127
2, 27976, Note_off_c, 10, 69, 127
2, 27977, Note_on_c, 7, 67, 127
2, 27977, Note_on_c, 12, 47, 127
2, 28067, Note_off_c, 12, 47, 127
2, 28067, Note_off_c, 7, 67, 127
2, 28069, Note_on_c, 7, 67, 127
2, 28069, Note_on_c, 2, 50, 127
2, 28159, Note_off_c, 2, 50, 127
2, 28159, Note_off_c, 7, 67, 127
2, 28160, Note_on_c, 12, 71, 127
2, 28160, Note_on_c, 12, 47, 127
2, 28250, Note_off_c, 12, 47, 127
2, 28250, Note_off_c, 12, 71, 127
2, 28252, Note_on_c, 2, 74, 127
2, 28252, Note_on_c, 7, 43, 127
2, 28342, Note_off_c, 7, 43, 127
2, 28342, Note_off_c, 2, 74, 127
2, 28343, Note_on_c, 5, 77, 127
2, 28343, Note_on_c, 12, 47, 127
2, 28433, Note_off_c, 12, 47, 127
2, 28433, Note_off_c, 5, 77, 127
2, 28435, Note_on_c, 4, 76, 127
2, 28435, Note_on_c, 7, 43, 127
2, 28525, Note_off_c, 7, 43, 127
2, 28525, Note_off_c, 4, 76, 127
2, 28526, Note_on_c, 2, 74, 127
2, 28526, Note_on_c, 5, 41, 127
2, 28616, Note_off_c, 5, 41, 127
2, 28616, Note_off_c, 2, 74, 127
2, 28618, Note_on_c, 2, 74, 127
2, 28618, Note_on_c, 4, 40, 127
2, 28708, Note_off_c, 4, 40, 127
2, 28708, Note_off_c, 2, 74, 127
2, 28709, Note_on_c, 4, 76, 127
2, 28709, Note_on_c, 7, 43, 127
2, 28799, Note_off_c, 7, 43, 127
2, 28799, Note_off_c, 4, 76, 127
2, 28801, Note_on_c, 5, 77, 127
2, 28801, Note_on_c, 12, 47, 127
2, 28891, Note_off_c, 12, 47, 127
2, 28891, Note_off_c, 5, 77, 127
2, 28892, Note_on_c, 5, 77, 127
2, 28892, Note_on_c, 0, 48, 127
2, 28982, Note_off_c, 0, 48, 127
2, 28984, Note_on_c, 4, 52, 127
2, 29063, Note_off_c, 5, 77, 127
2, 29074, Note_off_c, 4, 52, 127
2, 29075, Note_on_c, 4, 76, 127
2, 29075, Note_on_c, 7, 55, 127
2, 29165, Note_off_c, 7, 55, 127
2, 29167, Note_on_c, 0, 60, 127
2, 29257, Note_off_c, 0, 60, 127
2, 29258, Note_on_c, 7, 55, 127
2, 29348, Note_off_c, 7, 55, 127
2, 29350, Note_on_c, 4, 52, 127
2, 29432, Note_off_c, 4, 76, 127
2, 29440, Note_off_c, 4, 52, 127
2, 29441, Note_on_c, 7, 55, 127
2, 29531, Note_off_c, 7, 55, 127
2, 29533, Note_on_c, 4, 76, 127
2, 29533, Note_on_c, 4, 52, 127
2, 29623, Note_off_c, 4, 52, 127
2, 29624, Note_on_c, 2, 50, 127
2, 29714, Note_off_c, 2, 50, 127
2, 29714, Note_off_c, 4, 76, 127
2, 29716, Note_on_c, 4, 76, 127
2, 29716, Note_on_c, 1, 49, 127
2, 29806, Note_off_c, 1, 49, 127
2, 29806, Note_off_c, 4, 76, 127
2, 29808, Note_on_c, 2, 74, 127
2, 29808, Note_on_c, 4, 52, 127
2, 29898, Note_off_c, 4, 52, 127
2, 29898, Note_off_c, 2, 74, 127
2, 29899, Note_on_c, 1, 73, 127
2, 29899, Note_on_c, 7, 55, 127
2, 29989, Note_off_c, 7, 55, 127
2, 29989, Note_off_c, 1, 73, 127
2, 29991, Note_on_c, 1, 73, 127
2, 29991, Note_on_c, 10, 57, 127
2, 30081, Note_off_c, 10, 57, 127
2, 30081, Note_off_c, 1, 73, 127
2, 30082, Note_on_c, 12, 71, 127
2, 30082, Note_on_c, 4, 52, 127
2, 30172, Note_off_c, 4, 52, 127
2, 30172, Note_off_c, 12, 71, 127
2, 30174, Note_on_c, 10, 69, 127
2, 30174, Note_on_c, 1, 49, 127
2, 30264, Note_off_c, 1, 49, 127
2, 30264, Note_off_c, 10, 69, 127
2, 30265, Note_on_c, 10, 69, 127
2, 30265, Note_on_c, 4, 52, 127
2, 30355, Note_off_c, 4, 52, 127
2, 30355, Note_off_c, 10, 69, 127
2, 30357, Note_on_c, 1, 73, 127
2, 30357, Note_on_c, 1, 49, 127
2, 30447, Note_off_c, 1, 49, 127
2, 30447, Note_off_c, 1, 73, 127
2, 30448, Note_on_c, 4, 76, 127
2, 30448, Note_on_c, 10, 45, 127
2, 30538, Note_off_c, 10, 45, 127
2, 30538, Note_off_c, 4, 76, 127
2, 30540, Note_on_c, 7, 79, 127
2, 30540, Note_on_c, 1, 49, 127
2, 30630, Note_off_c, 1, 49, 127
2, 30630, Note_off_c, 7, 79, 127
2, 30631, Note_on_c, 6, 78, 127
2, 30631, Note_on_c, 10, 45, 127
2, 30721, Note_off_c, 10, 45, 127
2, 30721, Note_off_c, 6, 78, 127
2, 30723, Note_on_c, 4, 76, 127
2, 30723, Note_on_c, 7, 43, 127
2, 30813, Note_off_c, 7, 43, 127
2, 30813, Note_off_c, 4, 76, 127
2, 30814, Note_on_c, 4, 76, 127
2, 30814, Note_on_c, 6, 42, 127
2, 30904, Note_off_c, 6, 42, 127
2, 30904, Note_off_c, 4, 76, 127
2, 30906, Note_on_c, 6, 78, 127
2, 30906, Note_on_c, 10, 45, 127
2, 30996, Note_off_c, 10, 45, 127
2, 30996, Note_off_c, 6, 78, 127
2, 30997, Note_on_c, 7, 79, 127
2, 30997, Note_on_c, 1, 49, 127
2, 31087, Note_off_c, 1, 49, 127
2, 31087, Note_off_c, 7, 79, 127
2, 31089, Note_on_c, 7, 79, 127
2, 31089, Note_on_c, 2, 50, 127
2, 31179, Note_off_c, 2, 50, 127
2, 31179, Note_off_c, 7, 79, 127
2, 31180, Note_on_c, 6, 78, 127
2, 31180, Note_on_c, 6, 54, 127
2, 31233, Note_on_c, 7, 79, 127
2, 31237, Note_off_c, 6, 78, 127
2, 31270, Note_off_c, 6, 54, 127
2, 31272, Note_on_c, 10, 57, 127
2, 31286, Note_on_c, 6, 78, 127
2, 31290, Note_off_c, 7, 79, 127
2, 31339, Note_on_c, 7, 79, 127
2, 31343, Note_off_c, 6, 78, 127
2, 31362, Note_off_c, 10, 57, 127
2, 31363, Note_on_c, 2, 62, 127
2, 31392, Note_on_c, 6, 78, 127
2, 31396, Note_off_c, 7, 79, 127
2, 31445, Note_on_c, 7, 79, 127
2, 31449, Note_off_c, 6, 78, 127
2, 31453, Note_off_c, 2, 62, 127
2, 31455, Note_on_c, 10, 57, 127
2, 31498, Note_on_c, 6, 78, 127
2, 31502, Note_off_c, 7, 79, 127
2, 31545, Note_off_c, 10, 57, 127
2, 31546, Note_on_c, 6, 54, 127
2, 31551, Note_on_c, 7, 79, 127
2, 31555, Note_off_c, 6, 78, 127
2, 31604, Note_on_c, 6, 78, 127
2, 31608, Note_off_c, 7, 79, 127
2, 31636, Note_off_c, 6, 54, 127
2, 31638, Note_on_c, 10, 57, 127
2, 31728, Note_off_c, 10, 57, 127
2, 31729, Note_on_c, 6, 54, 127
2, 31775, Note_off_c, 6, 78, 127
2, 31819, Note_off_c, 6, 54, 127
2, 31821, Note_on_c, 10, 81, 127
2, 31821, Note_on_c, 2, 50, 127
2, 31911, Note_off_c, 2, 50, 127
2, 31911, Note_off_c, 10, 81, 127
2, 31912, Note_on_c, 10, 81, 127
2, 31912, Note_on_c, 6, 54, 127
2, 32002, Note_off_c, 6, 54, 127
2, 32002, Note_off_c, 10, 81, 127
2, 32004, Note_on_c, 7, 79, 127
2, 32004, Note_on_c, 2, 50, 127
2, 32094, Note_off_c, 2, 50, 127
2, 32094, Note_off_c, 7, 79, 127
2, 32096, Note_on_c, 6, 78, 127
2, 32096, Note_on_c, 10, 45, 127
2, 32186, Note_off_c, 10, 45, 127
2, 32186, Note_off_c, 6, 78, 127
2, 32187, Note_on_c, 6, 78, 127
2, 32187, Note_on_c, 2, 50, 127
2, 32277, Note_off_c, 2, 50, 127
2, 32277, Note_off_c, 6, 78, 127
2, 32279, Note_on_c, 4, 76, 127
2, 32279, Note_on_c, 10, 45, 127
2, 32369, Note_off_c, 10, 45, 127
2, 32369, Note_off_c, 4, 76, 127
2, 32370, Note_on_c, 2, 74, 127
2, 32370, Note_on_c, 6, 42, 127
2, 32460, Note_off_c, 6, 42, 127
2, 32460, Note_off_c, 2, 74, 127
2, 32462, Note_on_c, 2, 74, 127
2, 32462, Note_on_c, 2, 38, 127
2, 32552, Note_off_c, 2, 74, 127
2, 32553, Note_on_c, 6, 78, 127
2, 32643, Note_off_c, 6, 78, 127
2, 32645, Note_on_c, 10, 81, 127
2, 32735, Note_off_c, 10, 81, 127
2, 32735, Note_off_c, 2, 38, 127
2, 32736, Note_on_c, 0, 84, 127
2, 32736, Note_on_c, 2, 50, 127
2, 32826, Note_off_c, 0, 84, 127
2, 32828, Note_on_c, 12, 83, 127
2, 32918, Note_off_c, 12, 83, 127
2, 32919, Note_on_c, 10, 81, 127
2, 33009, Note_off_c, 10, 81, 127
2, 33009, Note_off_c, 2, 50, 127
2, 33011, Note_on_c, 10, 81, 127
2, 33011, Note_on_c, 7, 43, 127
2, 33101, Note_off_c, 10, 81, 127
2, 33102, Note_on_c, 12, 83, 127
2, 33192, Note_off_c, 12, 83, 127
2, 33194, Note_on_c, 0, 84, 127
2, 33284, Note_off_c, 0, 84, 127
2, 33285, Note_on_c, 0, 84, 127
2, 33375, Note_off_c, 7, 43, 127
2, 33377, Note_on_c, 12, 47, 127
2, 33466, Note_off_c, 0, 84, 127
2, 33467, Note_off_c, 12, 47, 127
2, 33468, Note_on_c, 12, 83, 127
2, 33468, Note_on_c, 2, 50, 127
2, 33558, Note_off_c, 2, 50, 127
2, 33560, Note_on_c, 7, 55, 127
2, 33649, Note_off_c, 12, 83, 127
2, 33650, Note_off_c, 7, 55, 127
2, 33651, Note_on_c, 10, 81, 127
2, 33651, Note_on_c, 10, 57, 127
2, 33741, Note_off_c, 10, 57, 127
2, 33741, Note_off_c, 10, 81, 127
2, 33743, Note_on_c, 7, 79, 127
2, 33743, Note_on_c, 12, 59, 127
2, 33833, Note_off_c, 12, 59, 127
2, 33833, Note_off_c, 7, 79, 127
2, 33834, Note_on_c, 5, 77, 127
2, 33834, Note_on_c, 12, 59, 127
2, 33924, Note_off_c, 12, 59, 127
2, 33924, Note_off_c, 5, 77, 127
2, 33926, Note_on_c, 4, 76, 127
2, 33926, Note_on_c, 0, 60, 127
2, 34016, Note_off_c, 0, 60, 127
2, 34016, Note_off_c, 4, 76, 127
2, 34017, Note_on_c, 2, 74, 127
2, 34017, Note_on_c, 2, 62, 127
2, 34107, Note_off_c, 2, 62, 127
2, 34107, Note_off_c, 2, 74, 127
2, 34109, Note_on_c, 0, 72, 127
2, 34109, Note_on_c, 4, 64, 127
2, 34200, Note_on_c, 4, 76, 127
2, 34290, Note_off_c, 4, 76, 127
2, 34292, Note_on_c, 7, 79, 127
2, 34380, Note_off_c, 0, 72, 127
2, 34382, Note_off_c, 7, 79, 127
2, 34382, Note_off_c, 4, 64, 127
2, 34384, Note_on_c, 10, 81, 127
2, 34384, Note_on_c, 0, 60, 127
2, 34474, Note_off_c, 0, 60, 127
2, 34475, Note_on_c, 6, 78, 127
2, 34475, Note_on_c, 10, 57, 127
2, 34565, Note_off_c, 10, 57, 127
2, 34565, Note_off_c, 6, 78, 127
2, 34567, Note_on_c, 2, 74, 127
2, 34567, Note_on_c, 6, 54, 127
2, 34655, Note_off_c, 10, 81, 127
2, 34657, Note_off_c, 6, 54, 127
2, 34657, Note_off_c, 2, 74, 127
2, 34658, Note_on_c, 12, 71, 127
2, 34658, Note_on_c, 2, 62, 127
2, 34750, Note_on_c, 2, 74, 127
2, 34840, Note_off_c, 2, 74, 127
2, 34841, Note_on_c, 6, 78, 127
2, 34929, Note_off_c, 12, 71, 127
2, 34931, Note_off_c, 6, 78, 127
2, 34931, Note_off_c, 2, 62, 127
2, 34933, Note_on_c, 7, 79, 127
2, 34933, Note_on_c, 12, 59, 127
2, 35023, Note_off_c, 12, 59, 127
2, 35024, Note_on_c, 4, 76, 127
2, 35024, Note_on_c, 7, 55, 127
2, 35114, Note_off_c, 7, 55, 127
2, 35114, Note_off_c, 4, 76, 127
2, 35116, Note_on_c, 0, 72, 127
2, 35116, Note_on_c, 4, 52, 127
2, 35204, Note_off_c, 7, 79, 127
2, 35206, Note_off_c, 4, 52, 127
2, 35206, Note_off_c, 0, 72, 127
2, 35207, Note_on_c, 10, 69, 127
2, 35207, Note_on_c, 0, 60, 127
2, 35299, Note_on_c, 0, 72, 127
2, 35389, Note_off_c, 0, 72, 127
2, 35390, Note_on_c, 4, 76, 127
2, 35478, Note_off_c, 10, 69, 127
2, 35480, Note_off_c, 4, 76, 127
2, 35480, Note_off_c, 0, 60, 127
2, 35482, Note_on_c, 6, 78, 127
2, 35482, Note_on_c, 10, 57, 127
2, 35572, Note_off_c, 10, 57, 127
2, 35573, Note_on_c, 2, 74, 127
2, 35573, Note_on_c, 6, 54, 127
2, 35663, Note_off_c, 6, 54, 127
2, 35663, Note_off_c, 2, 74, 127
2, 35665, Note_on_c, 12, 71, 127
2, 35665, Note_on_c, 2, 50, 127
2, 35753, Note_off_c, 6, 78, 127
2, 35755, Note_off_c, 2, 50, 127
2, 35755, Note_off_c, 12, 71, 127
2, 35756, Note_on_c, 7, 67, 127
2, 35756, Note_on_c, 12, 59, 127
2, 35848, Note_on_c, 12, 71, 127
2, 35938, Note_off_c, 12, 71, 127
2, 35939, Note_on_c, 2, 74, 127
2, 36027, Note_off_c, 7, 67, 127
2, 36029, Note_off_c, 2, 74, 127
2, 36029, Note_off_c, 12, 59, 127
2, 36031, Note_on_c, 4, 76, 127
2, 36031, Note_on_c, 7, 55, 127
2, 36121, Note_off_c, 7, 55, 127
2, 36122, Note_on_c, 0, 72, 127
2, 36122, Note_on_c, 4, 52, 127
2, 36212, Note_off_c, 4, 52, 127
2, 36212, Note_off_c, 0, 72, 127
2, 36214, Note_on_c, 10, 69, 127
2, 36214, Note_on_c, 0, 48, 127
2, 36302, Note_off_c, 4, 76, 127
2, 36304, Note_off_c, 0, 48, 127
2, 36304, Note_off_c, 10, 69, 127
2, 36305, Note_on_c, 6, 66, 127
2, 36305, Note_on_c, 10, 57, 127
2, 36397, Note_on_c, 10, 69, 127
2, 36487, Note_off_c, 10, 69, 127
2, 36488, Note_on_c, 0, 72, 127
2, 36576, Note_off_c, 6, 66, 127
2, 36578, Note_off_c, 0, 72, 127
2, 36578, Note_off_c, 10, 57, 127
2, 36580, Note_on_c, 2, 74, 127
2, 36580, Note_on_c, 6, 54, 127
2, 36670, Note_off_c, 6, 54, 127
2, 36672, Note_on_c, 12, 71, 127
2, 36672, Note_on_c, 2, 50, 127
2, 36762, Note_off_c, 2, 50, 127
2, 36762, Note_off_c, 12, 71, 127
2, 36763, Note_on_c, 7, 67, 127
2, 36763, Note_on_c, 12, 47, 127
2, 36837, Note_off_c, 2, 74, 127
2, 36853, Note_off_c, 12, 47, 127
2, 36853, Note_off_c, 7, 67, 127
2, 36855, Note_on_c, 4, 64, 127
2, 36855, Note_on_c, 7, 55, 127
2, 36946, Note_on_c, 7, 67, 127
2, 37036, Note_off_c, 7, 67, 127
2, 37038, Note_on_c, 12, 71, 127
2, 37098, Note_off_c, 4, 64, 127
2, 37128, Note_off_c, 12, 71, 127
2, 37128, Note_off_c, 7, 55, 127
2, 37129, Note_on_c, 0, 72, 127
2, 37129, Note_on_c, 4, 52, 127
2, 37219, Note_off_c, 4, 52, 127
2, 37221, Note_on_c, 10, 69, 127
2, 37221, Note_on_c, 0, 48, 127
2, 37311, Note_off_c, 0, 48, 127
2, 37311, Note_off_c, 10, 69, 127
2, 37312, Note_on_c, 6, 66, 127
2, 37312, Note_on_c, 10, 45, 127
2, 37357, Note_off_c, 0, 72, 127
2, 37402, Note_off_c, 10, 45, 127
2, 37402, Note_off_c, 6, 66, 127
2, 37404, Note_on_c, 2, 62, 127
2, 37404, Note_on_c, 6, 54, 127
2, 37495, Note_on_c, 6, 66, 127
2, 37585, Note_off_c, 6, 66, 127
2, 37587, Note_on_c, 10, 69, 127
2, 37618, Note_off_c, 2, 62, 127
2, 37677, Note_off_c, 10, 69, 127
2, 37677, Note_off_c, 6, 54, 127
2, 37678, Note_on_c, 12, 71, 127
2, 37678, Note_on_c, 2, 50, 127
2, 37768, Note_off_c, 2, 50, 127
2, 37770, Note_on_c, 7, 67, 127
2, 37770, Note_on_c, 12, 47, 127
2, 37860, Note_off_c, 12, 47, 127
2, 37860, Note_off_c, 7, 67, 127
2, 37861, Note_on_c, 4, 64, 127
2, 37861, Note_on_c, 7, 43, 127
2, 37878, Note_off_c, 12, 71, 127
2, 37951, Note_off_c, 7, 43, 127
2, 37951, Note_off_c, 4, 64, 127
2, 37953, Note_on_c, 0, 60, 127
2, 37953, Note_on_c, 4, 52, 127
2, 38045, Note_off_c, 4, 52, 127
2, 38047, Note_on_c, 4, 64, 127
2, 38047, Note_on_c, 0, 48, 127
2, 38139, Note_off_c, 0, 48, 127
2, 38139, Note_off_c, 4, 64, 127
2, 38142, Note_on_c, 7, 67, 127
2, 38142, Note_on_c, 10, 45, 127
2, 38144, Note_off_c, 0, 60, 127
2, 38233, Note_off_c, 10, 45, 127
2, 38233, Note_off_c, 7, 67, 127
2, 38234, Note_on_c, 10, 69, 127
2, 38234, Note_on_c, 6, 54, 127
2, 38326, Note_off_c, 6, 54, 127
2, 38329, Note_on_c, 6, 66, 127
2, 38329, Note_on_c, 2, 50, 127
2, 38409, Note_off_c, 10, 69, 127
2, 38420, Note_off_c, 2, 50, 127
2, 38420, Note_off_c, 6, 66, 127
2, 38422, Note_on_c, 2, 62, 127
2, 38422, Note_on_c, 12, 47, 127
2, 38514, Note_off_c, 12, 47, 127
2, 38514, Note_off_c, 2, 62, 127
2, 38516, Note_on_c, 12, 59, 127
2, 38516, Note_on_c, 7, 55, 127
2, 38615, Note_on_c, 2, 62, 127
2, 38712, Note_off_c, 2, 62, 127
2, 38714, Note_on_c, 6, 66, 127
2, 38810, Note_off_c, 7, 55, 127
2, 38811, Note_off_c, 6, 66, 127
2, 38812, Note_on_c, 7, 67, 127
2, 38812, Note_on_c, 4, 52, 127
2, 38900, Note_off_c, 12, 59, 127
2, 38909, Note_on_c, 4, 64, 127
2, 39006, Note_off_c, 4, 64, 127
2, 39008, Note_on_c, 0, 60, 127
2, 39105, Note_off_c, 0, 60, 127
2, 39105, Note_off_c, 4, 52, 127
2, 39107, Note_on_c, 10, 57, 127
2, 39107, Note_on_c, 0, 48, 127
2, 39223, Note_on_c, 0, 60, 127
2, 39337, Note_off_c, 0, 60, 127
2, 39338, Note_on_c, 4, 64, 127
2, 39446, Note_off_c, 7, 67, 127
2, 39452, Note_off_c, 4, 64, 127
2, 39453, Note_off_c, 0, 48, 127
2, 39454, Note_on_c, 6, 66, 127
2, 39454, Note_on_c, 2, 50, 127
2, 39560, Note_off_c, 10, 57, 127
2, 39572, Note_on_c, 2, 62, 127
2, 39686, Note_off_c, 2, 62, 127
2, 39687, Note_on_c, 0, 60, 127
2, 39800, Note_off_c, 6, 66, 127
2, 39801, Note_off_c, 0, 60, 127
2, 39801, Note_off_c, 2, 50, 127
2, 39811, Note_on_c, 2, 62, 127
2, 39811, Note_on_c, 7, 67, 127
2, 39811, Note_on_c, 12, 59, 127
2, 39811, Note_on_c, 7, 43, 127
2, 42591, Note_off_c, 7, 67, 127
2, 42602, Note_off_c, 7, 43, 127
2, 42602, Note_off_c, 12, 59, 127
2, 42602, Note_off_c, 2, 62, 127
2, 42607, Note_on_c, 7, 67, 127
2, 42913, Note_off_c, 7, 67, 127
2, 42914, Note_on_c, 10, 69, 127
2, 43065, Note_off_c, 10, 69, 127
2, 43067, Note_on_c, 7, 67, 127
2, 43218, Note_off_c, 7, 67, 127
2, 43220, Note_on_c, 6, 66, 127
2, 43371, Note_off_c, 6, 66, 127
2, 43373, Note_on_c, 7, 67, 127
2, 43524, Note_off_c, 7, 67, 127
2, 43526, Note_on_c, 10, 69, 127
2, 43832, Note_off_c, 10, 69, 127
2, 43834, Note_on_c, 12, 71, 127
2, 43985, Note_off_c, 12, 71, 127
2, 43987, Note_on_c, 10, 69, 127
2, 44138, Note_off_c, 10, 69, 127
2, 44140, Note_on_c, 7, 67, 127
2, 44291, Note_off_c, 7, 67, 127
2, 44293, Note_on_c, 10, 69, 127
2, 44444, Note_off_c, 10, 69, 127
2, 44446, Note_on_c, 12, 71, 127
2, 44752, Note_off_c, 12, 71, 127
2, 44753, Note_on_c, 10, 69, 127
2, 45059, Note_off_c, 10, 69, 127
2, 45061, Note_on_c, 7, 67, 127
2, 45367, Note_off_c, 7, 67, 127
2, 45368, Note_on_c, 2, 62, 127
2, 45598, Note_off_c, 2, 62, 127
2, 45676, Note_on_c, 0, 72, 127
2, 46289, Note_off_c, 0, 72, 127
2, 46291, Note_on_c, 12, 71, 127
2, 46597, Note_off_c, 12, 71, 127
2, 46598, Note_on_c, 10, 69, 127
2, 46904, Note_off_c, 10, 69, 127
2, 46905, Note_on_c, 7, 67, 127
2, 47211, Note_off_c, 7, 67, 127
2, 47213, Note_on_c, 6, 66, 127
2, 47443, Note_off_c, 6, 66, 127
2, 47520, Note_on_c, 4, 76, 127
2, 48133, Note_off_c, 4, 76, 127
2, 48135, Note_on_c, 2, 74, 127
2, 48441, Note_off_c, 2, 74, 127
2, 48443, Note_on_c, 4, 76, 127
2, 48594, Note_off_c, 4, 76, 127
2, 48596, Note_on_c, 2, 74, 127
2, 48747, Note_off_c, 2, 74, 127
2, 48749, Note_on_c, 0, 72, 127
2, 48900, Note_off_c, 0, 72, 127
2, 48902, Note_on_c, 12, 71, 127
2, 49053, Note_off_c, 12, 71, 127
2, 49055, Note_on_c, 10, 69, 127
2, 49361, Note_off_c, 10, 69, 127
2, 49362, Note_on_c, 0, 72, 127
2, 49513, Note_off_c, 0, 72, 127
2, 49515, Note_on_c, 12, 71, 127
2, 49666, Note_off_c, 12, 71, 127
2, 49668, Note_on_c, 10, 69, 127
2, 49819, Note_off_c, 10, 69, 127
2, 49821, Note_on_c, 7, 67, 127
2, 49972, Note_off_c, 7, 67, 127
2, 49974, Note_on_c, 6, 66, 127
2, 49974, Note_on_c, 2, 62, 127
2, 50280, Note_off_c, 2, 62, 127
2, 50280, Note_off_c, 6, 66, 127
2, 50282, Note_on_c, 7, 67, 127
2, 50282, Note_on_c, 4, 64, 127
2, 50433, Note_off_c, 4, 64, 127
2, 50435, Note_on_c, 2, 62, 127
2, 50586, Note_off_c, 2, 62, 127
2, 50586, Note_off_c, 7, 67, 127
2, 50588, Note_on_c, 10, 69, 127
2, 50588, Note_on_c, 1, 61, 127
2, 50739, Note_off_c, 1, 61, 127
2, 50741, Note_on_c, 2, 62, 127
2, 50892, Note_off_c, 2, 62, 127
2, 50892, Note_off_c, 10, 69, 127
2, 50894, Note_on_c, 7, 67, 127
2, 50894, Note_on_c, 4, 64, 127
2, 51200, Note_off_c, 4, 64, 127
2, 51200, Note_off_c, 7, 67, 127
2, 51201, Note_on_c, 10, 69, 127
2, 51201, Note_on_c, 6, 66, 127
2, 51352, Note_off_c, 6, 66, 127
2, 51354, Note_on_c, 4, 64, 127
2, 51505, Note_off_c, 4, 64, 127
2, 51505, Note_off_c, 10, 69, 127
2, 51507, Note_on_c, 12, 71, 127
2, 51507, Note_on_c, 2, 62, 127
2, 51658, Note_off_c, 2, 62, 127
2, 51660, Note_on_c, 4, 64, 127
2, 51811, Note_off_c, 4, 64, 127
2, 51811, Note_off_c, 12, 71, 127
2, 51813, Note_on_c, 10, 69, 127
2, 51813, Note_on_c, 6, 66, 127
2, 52119, Note_off_c, 6, 66, 127
2, 52119, Note_off_c, 10, 69, 127
2, 52121, Note_on_c, 12, 71, 127
2, 52121, Note_on_c, 4, 64, 127
2, 52272, Note_off_c, 12, 71, 127
2, 52274, Note_on_c, 1, 73, 127
2, 52425, Note_off_c, 1, 73, 127
2, 52425, Note_off_c, 4, 64, 127
2, 52427, Note_on_c, 2, 74, 127
2, 52427, Note_on_c, 2, 62, 127
2, 52578, Note_off_c, 2, 74, 127
2, 52580, Note_on_c, 12, 71, 127
2, 52731, Note_off_c, 12, 71, 127
2, 52731, Note_off_c, 2, 62, 127
2, 52733, Note_on_c, 1, 73, 127
2, 52733, Note_on_c, 10, 57, 127
2, 52884, Note_off_c, 1, 73, 127
2, 52886, Note_on_c, 12, 71, 127
2, 52988, Note_off_c, 10, 57, 127
2, 53039, Note_off_c, 12, 71, 127
2, 53040, Note_on_c, 1, 73, 127
2, 53040, Note_on_c, 7, 67, 127
2, 53191, Note_off_c, 1, 73, 127
2, 53193, Note_on_c, 2, 74, 127
2, 53344, Note_off_c, 2, 74, 127
2, 53346, Note_on_c, 4, 76, 127
2, 53497, Note_off_c, 4, 76, 127
2, 53499, Note_on_c, 1, 73, 127
2, 53650, Note_off_c, 1, 73, 127
2, 53650, Note_off_c, 7, 67, 127
2, 53652, Note_on_c, 2, 74, 127
2, 53652, Note_on_c, 6, 66, 127
2, 53803, Note_off_c, 2, 74, 127
2, 53805, Note_on_c, 1, 73, 127
2, 53956, Note_off_c, 1, 73, 127
2, 53956, Note_off_c, 6, 66, 127
2, 53958, Note_on_c, 2, 74, 127
2, 53958, Note_on_c, 4, 64, 127
2, 54109, Note_off_c, 2, 74, 127
2, 54111, Note_on_c, 4, 76, 127
2, 54262, Note_off_c, 4, 76, 127
2, 54262, Note_off_c, 4, 64, 127
2, 54264, Note_on_c, 6, 78, 127
2, 54264, Note_on_c, 2, 62, 127
2, 54415, Note_off_c, 6, 78, 127
2, 54417, Note_on_c, 2, 74, 127
2, 54568, Note_off_c, 2, 74, 127
2, 54568, Note_off_c, 2, 62, 127
2, 54570, Note_on_c, 4, 76, 127
2, 54570, Note_on_c, 1, 61, 127
2, 54721, Note_off_c, 4, 76, 127
2, 54723, Note_on_c, 2, 74, 127
2, 54825, Note_off_c, 1, 61, 127
2, 54876, Note_off_c, 2, 74, 127
2, 54878, Note_on_c, 4, 76, 127
2, 54878, Note_on_c, 12, 71, 127
2, 55029, Note_off_c, 4, 76, 127
2, 55031, Note_on_c, 6, 78, 127
2, 55182, Note_off_c, 6, 78, 127
2, 55184, Note_on_c, 7, 79, 127
2, 55335, Note_off_c, 7, 79, 127
2, 55337, Note_on_c, 4, 76, 127
2, 55488, Note_off_c, 4, 76, 127
2, 55488, Note_off_c, 12, 71, 127
2, 55490, Note_on_c, 6, 78, 127
2, 55490, Note_on_c, 10, 69, 127
2, 55796, Note_off_c, 10, 69, 127
2, 55796, Note_off_c, 6, 78, 127
2, 55797, Note_on_c, 7, 79, 127
2, 55797, Note_on_c, 12, 71, 127
2, 55948, Note_off_c, 12, 71, 127
2, 55948, Note_off_c, 7, 79, 127
2, 55950, Note_on_c, 6, 78, 127
2, 55950, Note_on_c, 10, 69, 127
2, 56101, Note_off_c, 10, 69, 127
2, 56101, Note_off_c, 6, 78, 127
2, 56103, Note_on_c, 4, 76, 127
2, 56103, Note_on_c, 7, 67, 127
2, 56254, Note_off_c, 7, 67, 127
2, 56254, Note_off_c, 4, 76, 127
2, 56256, Note_on_c, 2, 74, 127
2, 56256, Note_on_c, 6, 66, 127
2, 56407, Note_off_c, 6, 66, 127
2, 56407, Note_off_c, 2, 74, 127
2, 56409, Note_on_c, 7, 79, 127
2, 56409, Note_on_c, 4, 64, 127
2, 56715, Note_off_c, 4, 64, 127
2, 56717, Note_on_c, 7, 67, 127
2, 56868, Note_off_c, 7, 67, 127
2, 56870, Note_on_c, 6, 66, 127
2, 57021, Note_off_c, 6, 66, 127
2, 57023, Note_on_c, 4, 64, 127
2, 57174, Note_off_c, 4, 64, 127
2, 57176, Note_on_c, 2, 62, 127
2, 57327, Note_off_c, 2, 62, 127
2, 57329, Note_on_c, 1, 61, 127
2, 57480, Note_off_c, 7, 79, 127
2, 57482, Note_on_c, 6, 78, 127
2, 57633, Note_off_c, 6, 78, 127
2, 57633, Note_off_c, 1, 61, 127
2, 57635, Note_on_c, 4, 76, 127
2, 57635, Note_on_c, 7, 67, 127
2, 57786, Note_off_c, 4, 76, 127
2, 57788, Note_on_c, 7, 79, 127
2, 57939, Note_off_c, 7, 67, 127
2, 57941, Note_on_c, 2, 74, 127
2, 57941, Note_on_c, 6, 66, 127
2, 58043, Note_off_c, 7, 79, 127
2, 58094, Note_off_c, 2, 74, 127
2, 58095, Note_on_c, 7, 79, 127
2, 58247, Note_off_c, 6, 66, 127
2, 58248, Note_on_c, 1, 73, 127
2, 58248, Note_on_c, 4, 64, 127
2, 58350, Note_off_c, 7, 79, 127
2, 58401, Note_off_c, 1, 73, 127
2, 58403, Note_on_c, 7, 79, 127
2, 58554, Note_off_c, 4, 64, 127
2, 58556, Note_on_c, 12, 71, 127
2, 58556, Note_on_c, 2, 62, 127
2, 58658, Note_off_c, 7, 79, 127
2, 58709, Note_off_c, 12, 71, 127
2, 58710, Note_on_c, 7, 79, 127
2, 58862, Note_off_c, 2, 62, 127
2, 58863, Note_on_c, 10, 69, 127
2, 58863, Note_on_c, 1, 61, 127
2, 58965, Note_off_c, 7, 79, 127
2, 59016, Note_off_c, 10, 69, 127
2, 59018, Note_on_c, 7, 79, 127
2, 59169, Note_off_c, 7, 79, 127
2, 59169, Note_off_c, 1, 61, 127
2, 59171, Note_on_c, 6, 78, 127
2, 59171, Note_on_c, 2, 62, 127
2, 59322, Note_off_c, 2, 62, 127
2, 59324, Note_on_c, 4, 64, 127
2, 59475, Note_off_c, 4, 64, 127
2, 59475, Note_off_c, 6, 78, 127
2, 59477, Note_on_c, 2, 74, 127
2, 59477, Note_on_c, 6, 66, 127
2, 59631, Note_on_c, 2, 62, 127
2, 59781, Note_off_c, 6, 66, 127
2, 59782, Note_off_c, 2, 62, 127
2, 59783, Note_off_c, 2, 74, 127
2, 59784, Note_on_c, 4, 76, 127
2, 59784, Note_on_c, 7, 67, 127
2, 59938, Note_on_c, 2, 62, 127
2, 60088, Note_off_c, 7, 67, 127
2, 60089, Note_off_c, 2, 62, 127
2, 60090, Note_off_c, 4, 76, 127
2, 60091, Note_on_c, 6, 78, 127
2, 60091, Note_on_c, 10, 69, 127
2, 60246, Note_on_c, 2, 62, 127
2, 60395, Note_off_c, 10, 69, 127
2, 60397, Note_off_c, 2, 62, 127
2, 60397, Note_off_c, 6, 78, 127
2, 60399, Note_on_c, 7, 79, 127
2, 60399, Note_on_c, 12, 71, 127
2, 60553, Note_on_c, 2, 62, 127
2, 60703, Note_off_c, 12, 71, 127
2, 60704, Note_off_c, 2, 62, 127
2, 60705, Note_off_c, 7, 79, 127
2, 60706, Note_on_c, 10, 81, 127
2, 60706, Note_on_c, 0, 72, 127
2, 60861, Note_on_c, 2, 62, 127
2, 61010, Note_off_c, 0, 72, 127
2, 61012, Note_off_c, 2, 62, 127
2, 61014, Note_on_c, 12, 71, 127
2, 61014, Note_on_c, 7, 55, 127
2, 61319, Note_off_c, 10, 81, 127
2, 61320, Note_off_c, 7, 55, 127
2, 61321, Note_on_c, 2, 74, 127
2, 61321, Note_on_c, 10, 57, 127
2, 61472, Note_off_c, 10, 57, 127
2, 61474, Note_on_c, 7, 55, 127
2, 61625, Note_off_c, 7, 55, 127
2, 61625, Note_off_c, 2, 74, 127
2, 61627, Note_on_c, 7, 79, 127
2, 61627, Note_on_c, 6, 54, 127
2, 61778, Note_off_c, 6, 54, 127
2, 61780, Note_on_c, 7, 55, 127
2, 61931, Note_off_c, 7, 55, 127
2, 61932, Note_off_c, 12, 71, 127
2, 61933, Note_on_c, 0, 72, 127
2, 61933, Note_on_c, 10, 57, 127
2, 62239, Note_off_c, 10, 57, 127
2, 62239, Note_off_c, 7, 79, 127
2, 62241, Note_on_c, 6, 78, 127
2, 62241, Note_on_c, 12, 59, 127
2, 62392, Note_off_c, 12, 59, 127
2, 62394, Note_on_c, 10, 57, 127
2, 62545, Note_off_c, 10, 57, 127
2, 62545, Note_off_c, 6, 78, 127
2, 62547, Note_on_c, 4, 76, 127
2, 62547, Note_on_c, 7, 55, 127
2, 62698, Note_off_c, 7, 55, 127
2, 62700, Note_on_c, 10, 57, 127
2, 62851, Note_off_c, 10, 57, 127
2, 62851, Note_off_c, 4, 76, 127
2, 62851, Note_off_c, 0, 72, 127
2, 62853, Note_on_c, 2, 74, 127
2, 62853, Note_on_c, 12, 59, 127
2, 63159, Note_off_c, 12, 59, 127
2, 63159, Note_off_c, 2, 74, 127
2, 63160, Note_on_c, 0, 72, 127
2, 63160, Note_on_c, 6, 66, 127
2, 63160, Note_on_c, 10, 57, 127
2, 63466, Note_off_c, 10, 57, 127
2, 63466, Note_off_c, 6, 66, 127
2, 63466, Note_off_c, 0, 72, 127
2, 63468, Note_on_c, 12, 71, 127
2, 63468, Note_on_c, 7, 67, 127
2, 63468, Note_on_c, 7, 55, 127
2, 63774, Note_off_c, 7, 55, 127
2, 63774, Note_off_c, 12, 71, 127
2, 63775, Note_on_c, 10, 69, 127
2, 63775, Note_on_c, 2, 50, 127
2, 64046, Note_off_c, 2, 50, 127
2, 64081, Note_off_c, 7, 67, 127
2, 64083, Note_on_c, 6, 66, 127
2, 64083, Note_on_c, 0, 60, 127
2, 64234, Note_off_c, 6, 66, 127
2, 64236, Note_on_c, 7, 67, 127
2, 64382, Note_off_c, 10, 69, 127
2, 64387, Note_off_c, 7, 67, 127
2, 64389, Note_on_c, 10, 69, 127
2, 64543, Note_on_c, 6, 66, 127
2, 64693, Note_off_c, 10, 69, 127
2, 64694, Note_off_c, 6, 66, 127
2, 64695, Note_off_c, 0, 60, 127
2, 64696, Note_on_c, 7, 67, 127
2, 64696, Note_on_c, 12, 59, 127
2, 64847, Note_off_c, 7, 67, 127
2, 64849, Note_on_c, 6, 66, 127
2, 65000, Note_off_c, 6, 66, 127
2, 65000, Note_off_c, 12, 59, 127
2, 65002, Note_on_c, 7, 67, 127
2, 65002, Note_on_c, 10, 57, 127
2, 65153, Note_off_c, 7, 67, 127
2, 65155, Note_on_c, 10, 69, 127
2, 65306, Note_off_c, 10, 69, 127
2, 65306, Note_off_c, 10, 57, 127
2, 65308, Note_on_c, 2, 74, 127
2, 65308, Note_on_c, 12, 71, 127
2, 65308, Note_on_c, 7, 55, 127
2, 65459, Note_off_c, 12, 71, 127
2, 65461, Note_on_c, 7, 67, 127
2, 65612, Note_off_c, 7, 67, 127
2, 65612, Note_off_c, 7, 55, 127
2, 65614, Note_on_c, 10, 69, 127
2, 65614, Note_on_c, 6, 54, 127
2, 65765, Note_off_c, 10, 69, 127
2, 65767, Note_on_c, 7, 67, 127
2, 65885, Note_off_c, 6, 54, 127
2, 65920, Note_off_c, 7, 67, 127
2, 65920, Note_off_c, 2, 74, 127
2, 65922, Note_on_c, 0, 72, 127
2, 65922, Note_on_c, 10, 69, 127
2, 65922, Note_on_c, 4, 64, 127
2, 66073, Note_off_c, 10, 69, 127
2, 66075, Note_on_c, 12, 71, 127
2, 66226, Note_off_c, 12, 71, 127
2, 66226, Note_off_c, 0, 72, 127
2, 66228, Note_on_c, 10, 81, 127
2, 66228, Note_on_c, 0, 72, 127
2, 66379, Note_off_c, 0, 72, 127
2, 66381, Note_on_c, 10, 69, 127
2, 66532, Note_off_c, 10, 69, 127
2, 66532, Note_off_c, 4, 64, 127
2, 66534, Note_on_c, 12, 71, 127
2, 66534, Note_on_c, 2, 62, 127
2, 66675, Note_off_c, 10, 81, 127
2, 66840, Note_off_c, 2, 62, 127
2, 66840, Note_off_c, 12, 71, 127
2, 66841, Note_on_c, 7, 79, 127
2, 66841, Note_on_c, 0, 72, 127
2, 66841, Note_on_c, 4, 64, 127
2, 66992, Note_off_c, 4, 64, 127
2, 66992, Note_off_c, 0, 72, 127
2, 66994, Note_on_c, 12, 71, 127
2, 66994, Note_on_c, 2, 62, 127
2, 67145, Note_off_c, 2, 62, 127
2, 67145, Note_off_c, 12, 71, 127
2, 67147, Note_on_c, 10, 69, 127
2, 67147, Note_on_c, 0, 60, 127
2, 67298, Note_off_c, 0, 60, 127
2, 67298, Note_off_c, 10, 69, 127
2, 67300, Note_on_c, 7, 67, 127
2, 67300, Note_on_c, 12, 59, 127
2, 67451, Note_off_c, 12, 59, 127
2, 67451, Note_off_c, 7, 67, 127
2, 67453, Note_on_c, 0, 72, 127
2, 67453, Note_on_c, 10, 57, 127
2, 67759, Note_off_c, 10, 57, 127
2, 67759, Note_off_c, 7, 79, 127
2, 67761, Note_on_c, 10, 81, 127
2, 67761, Note_on_c, 0, 60, 127
2, 67912, Note_off_c, 0, 60, 127
2, 67912, Note_off_c, 10, 81, 127
2, 67914, Note_on_c, 7, 79, 127
2, 67914, Note_on_c, 12, 59, 127
2, 68065, Note_off_c, 12, 59, 127
2, 68065, Note_off_c, 7, 79, 127
2, 68067, Note_on_c, 6, 78, 127
2, 68067, Note_on_c, 10, 57, 127
2, 68218, Note_off_c, 10, 57, 127
2, 68218, Note_off_c, 6, 78, 127
2, 68220, Note_on_c, 4, 76, 127
2, 68220, Note_on_c, 7, 55, 127
2, 68371, Note_off_c, 7, 55, 127
2, 68371, Note_off_c, 4, 76, 127
2, 68373, Note_on_c, 2, 74, 127
2, 68373, Note_on_c, 6, 54, 127
2, 68524, Note_off_c, 0, 72, 127
2, 68526, Note_on_c, 12, 71, 127
2, 68677, Note_off_c, 12, 71, 127
2, 68679, Note_on_c, 10, 69, 127
2, 68833, Note_on_c, 0, 72, 127
2, 68983, Note_off_c, 10, 69, 127
2, 68984, Note_off_c, 0, 72, 127
2, 68985, Note_off_c, 6, 54, 127
2, 68986, Note_on_c, 7, 67, 127
2, 68986, Note_on_c, 4, 52, 127
2, 69141, Note_on_c, 0, 72, 127
2, 69290, Note_off_c, 7, 67, 127
2, 69292, Note_off_c, 0, 72, 127
2, 69292, Note_off_c, 4, 52, 127
2, 69294, Note_on_c, 6, 66, 127
2, 69294, Note_on_c, 2, 50, 127
2, 69445, Note_off_c, 2, 50, 127
2, 69447, Note_on_c, 0, 72, 127
2, 69447, Note_on_c, 4, 52, 127
2, 69597, Note_off_c, 6, 66, 127
2, 69598, Note_off_c, 4, 52, 127
2, 69598, Note_off_c, 0, 72, 127
2, 69600, Note_on_c, 4, 64, 127
2, 69600, Note_on_c, 2, 50, 127
2, 69751, Note_off_c, 2, 50, 127
2, 69753, Note_on_c, 0, 72, 127
2, 69753, Note_on_c, 0, 48, 127
2, 69903, Note_off_c, 4, 64, 127
2, 69904, Note_off_c, 0, 48, 127
2, 69904, Note_off_c, 0, 72, 127
2, 69906, Note_on_c, 2, 62, 127
2, 69906, Note_on_c, 12, 47, 127
2, 70057, Note_off_c, 12, 47, 127
2, 70059, Note_on_c, 0, 72, 127
2, 70059, Note_on_c, 10, 45, 127
2, 70209, Note_off_c, 2, 62, 127
2, 70210, Note_off_c, 10, 45, 127
2, 70210, Note_off_c, 0, 72, 127
2, 70212, Note_on_c, 12, 71, 127
2, 70212, Note_on_c, 7, 43, 127
2, 70363, Note_off_c, 7, 43, 127
2, 70365, Note_on_c, 10, 45, 127
2, 70516, Note_off_c, 10, 45, 127
2, 70516, Note_off_c, 12, 71, 127
2, 70516, Note_off_c, 2, 74, 127
2, 70518, Note_on_c, 2, 74, 127
2, 70518, Note_on_c, 5, 65, 127
2, 70518, Note_on_c, 12, 47, 127
2, 70672, Note_on_c, 7, 43, 127
2, 70822, Note_off_c, 12, 47, 127
2, 70823, Note_off_c, 7, 43, 127
2, 70824, Note_off_c, 5, 65, 127
2, 70824, Note_off_c, 2, 74, 127
2, 70825, Note_on_c, 0, 72, 127
2, 70825, Note_on_c, 4, 64, 127
2, 70825, Note_on_c, 0, 48, 127
2, 70979, Note_on_c, 7, 43, 127
2, 71129, Note_off_c, 0, 48, 127
2, 71130, Note_off_c, 7, 43, 127
2, 71131, Note_off_c, 4, 64, 127
2, 71131, Note_off_c, 0, 72, 127
2, 71132, Note_on_c, 12, 71, 127
2, 71132, Note_on_c, 2, 62, 127
2, 71132, Note_on_c, 2, 50, 127
2, 71287, Note_on_c, 7, 43, 127
2, 71436, Note_off_c, 2, 50, 127
2, 71438, Note_off_c, 7, 43, 127
2, 71438, Note_off_c, 2, 62, 127
2, 71438, Note_off_c, 12, 71, 127
2, 71440, Note_on_c, 10, 69, 127
2, 71440, Note_on_c, 0, 60, 127
2, 71440, Note_on_c, 4, 52, 127
2, 71594, Note_on_c, 7, 43, 127
2, 71744, Note_off_c, 4, 52, 127
2, 71745, Note_off_c, 7, 43, 127
2, 71746, Note_off_c, 0, 60, 127
2, 71746, Note_off_c, 10, 69, 127
2, 71747, Note_on_c, 7, 67, 127
2, 71747, Note_on_c, 12, 59, 127
2, 71747, Note_on_c, 5, 53, 127
2, 71902, Note_on_c, 7, 43, 127
2, 72039, Note_off_c, 7, 67, 127
2, 72044, Note_off_c, 12, 59, 127
2, 72051, Note_off_c, 5, 53, 127
2, 72053, Note_off_c, 7, 43, 127
2, 72055, Note_on_c, 0, 72, 127
2, 72055, Note_on_c, 4, 52, 127
2, 72206, Note_off_c, 4, 52, 127
2, 72206, Note_off_c, 0, 72, 127
2, 72208, Note_on_c, 2, 74, 127
2, 72208, Note_on_c, 2, 50, 127
2, 72359, Note_off_c, 2, 50, 127
2, 72359, Note_off_c, 2, 74, 127
2, 72361, Note_on_c, 4, 76, 127
2, 72361, Note_on_c, 0, 48, 127
2, 72515, Note_on_c, 4, 52, 127
2, 72649, Note_off_c, 0, 48, 127
2, 72666, Note_off_c, 4, 52, 127
2, 72668, Note_on_c, 7, 67, 127
2, 72668, Note_on_c, 12, 47, 127
2, 72823, Note_on_c, 4, 52, 127
2, 72956, Note_off_c, 12, 47, 127
2, 72974, Note_off_c, 4, 52, 127
2, 72974, Note_off_c, 7, 67, 127
2, 72976, Note_on_c, 6, 66, 127
2, 72976, Note_on_c, 10, 45, 127
2, 73127, Note_off_c, 4, 76, 127
2, 73129, Note_on_c, 2, 74, 127
2, 73129, Note_on_c, 4, 52, 127
2, 73263, Note_off_c, 10, 45, 127
2, 73280, Note_off_c, 4, 52, 127
2, 73280, Note_off_c, 2, 74, 127
2, 73282, Note_on_c, 0, 72, 127
2, 73282, Note_on_c, 7, 43, 127
2, 73433, Note_off_c, 0, 72, 127
2, 73435, Note_on_c, 12, 71, 127
2, 73435, Note_on_c, 4, 52, 127
2, 73537, Note_off_c, 7, 43, 127
2, 73588, Note_off_c, 4, 52, 127
2, 73588, Note_off_c, 12, 71, 127
2, 73589, Note_on_c, 10, 69, 127
2, 73589, Note_on_c, 6, 42, 127
2, 73740, Note_off_c, 10, 69, 127
2, 73742, Note_on_c, 0, 72, 127
2, 73742, Note_on_c, 4, 52, 127
2, 73780, Note_off_c, 6, 42, 127
2, 73895, Note_off_c, 4, 52, 127
2, 73895, Note_off_c, 0, 72, 127
2, 73897, Note_on_c, 12, 71, 127
2, 73897, Note_on_c, 2, 50, 127
2, 74048, Note_off_c, 2, 50, 127
2, 74048, Note_off_c, 12, 71, 127
2, 74050, Note_on_c, 0, 72, 127
2, 74050, Note_on_c, 0, 48, 127
2, 74201, Note_off_c, 0, 48, 127
2, 74201, Note_off_c, 0, 72, 127
2, 74203, Note_on_c, 2, 74, 127
2, 74203, Note_on_c, 12, 47, 127
2, 74357, Note_on_c, 2, 50, 127
2, 74491, Note_off_c, 12, 47, 127
2, 74508, Note_off_c, 2, 50, 127
2, 74508, Note_off_c, 6, 66, 127
2, 74510, Note_on_c, 6, 66, 127
2, 74510, Note_on_c, 10, 45, 127
2, 74665, Note_on_c, 2, 50, 127
2, 74783, Note_off_c, 10, 45, 127
2, 74817, Note_off_c, 6, 66, 127
2, 74818, Note_off_c, 2, 50, 127
2, 74819, Note_on_c, 4, 64, 127
2, 74819, Note_on_c, 7, 43, 127
2, 74970, Note_off_c, 2, 74, 127
2, 74972, Note_on_c, 0, 72, 127
2, 74972, Note_on_c, 2, 50, 127
2, 75074, Note_off_c, 7, 43, 127
2, 75125, Note_off_c, 2, 50, 127
2, 75125, Note_off_c, 0, 72, 127
2, 75126, Note_on_c, 12, 71, 127
2, 75126, Note_on_c, 6, 42, 127
2, 75277, Note_off_c, 12, 71, 127
2, 75279, Note_on_c, 10, 69, 127
2, 75279, Note_on_c, 2, 50, 127
2, 75364, Note_off_c, 6, 42, 127
2, 75430, Note_off_c, 2, 50, 127
2, 75430, Note_off_c, 10, 69, 127
2, 75433, Note_on_c, 7, 67, 127
2, 75433, Note_on_c, 4, 40, 127
2, 75584, Note_off_c, 7, 67, 127
2, 75586, Note_on_c, 12, 71, 127
2, 75586, Note_on_c, 2, 50, 127
2, 75624, Note_off_c, 4, 40, 127
2, 75739, Note_off_c, 2, 50, 127
2, 75739, Note_off_c, 12, 71, 127
2, 75740, Note_on_c, 10, 69, 127
2, 75740, Note_on_c, 0, 48, 127
2, 75891, Note_off_c, 0, 48, 127
2, 75891, Note_off_c, 10, 69, 127
2, 75893, Note_on_c, 12, 71, 127
2, 75893, Note_on_c, 12, 47, 127
2, 76044, Note_off_c, 12, 47, 127
2, 76044, Note_off_c, 12, 71, 127
2, 76046, Note_on_c, 0, 72, 127
2, 76046, Note_on_c, 10, 45, 127
2, 76200, Note_on_c, 0, 48, 127
2, 76319, Note_off_c, 10, 45, 127
2, 76353, Note_off_c, 0, 48, 127
2, 76353, Note_off_c, 4, 64, 127
2, 76355, Note_on_c, 4, 64, 127
2, 76355, Note_on_c, 7, 43, 127
2, 76509, Note_on_c, 0, 48, 127
2, 76612, Note_off_c, 7, 43, 127
2, 76662, Note_off_c, 0, 48, 127
2, 76662, Note_off_c, 4, 64, 127
2, 76664, Note_on_c, 2, 62, 127
2, 76664, Note_on_c, 6, 42, 127
2, 76815, Note_off_c, 0, 72, 127
2, 76817, Note_on_c, 12, 71, 127
2, 76817, Note_on_c, 0, 48, 127
2, 76902, Note_off_c, 6, 42, 127
2, 76968, Note_off_c, 0, 48, 127
2, 76968, Note_off_c, 12, 71, 127
2, 76970, Note_on_c, 10, 69, 127
2, 76970, Note_on_c, 4, 40, 127
2, 77121, Note_off_c, 10, 69, 127
2, 77123, Note_on_c, 7, 67, 127
2, 77123, Note_on_c, 0, 48, 127
2, 77193, Note_off_c, 4, 40, 127
2, 77274, Note_off_c, 0, 48, 127
2, 77274, Note_off_c, 7, 67, 127
2, 77276, Note_on_c, 6, 66, 127
2, 77276, Note_on_c, 2, 38, 127
2, 77427, Note_off_c, 6, 66, 127
2, 77429, Note_on_c, 10, 69, 127
2, 77429, Note_on_c, 0, 48, 127
2, 77467, Note_off_c, 2, 38, 127
2, 77568, Note_off_c, 10, 69, 127
2, 77576, Note_off_c, 0, 48, 127
2, 77582, Note_off_c, 2, 62, 127
2, 77583, Note_on_c, 7, 67, 127
2, 77583, Note_on_c, 2, 62, 127
2, 77583, Note_on_c, 12, 47, 127
2, 77734, Note_off_c, 7, 67, 127
2, 77736, Note_on_c, 10, 69, 127
2, 77887, Note_off_c, 10, 69, 127
2, 77887, Note_off_c, 12, 47, 127
2, 77887, Note_off_c, 2, 62, 127
2, 77889, Note_on_c, 12, 71, 127
2, 77889, Note_on_c, 0, 60, 127
2, 77889, Note_on_c, 10, 45, 127
2, 78040, Note_off_c, 0, 60, 127
2, 78042, Note_on_c, 2, 62, 127
2, 78193, Note_off_c, 2, 62, 127
2, 78193, Note_off_c, 10, 45, 127
2, 78195, Note_on_c, 4, 64, 127
2, 78195, Note_on_c, 7, 43, 127
2, 78346, Note_off_c, 4, 64, 127
2, 78348, Note_on_c, 2, 62, 127
2, 78499, Note_off_c, 2, 62, 127
2, 78499, Note_off_c, 7, 43, 127
2, 78501, Note_on_c, 0, 60, 127
2, 78501, Note_on_c, 10, 45, 127
2, 78655, Note_off_c, 12, 71, 127
2, 78807, Note_off_c, 10, 45, 127
2, 78807, Note_off_c, 0, 60, 127
2, 78809, Note_on_c, 4, 64, 127
2, 78809, Note_on_c, 12, 59, 127
2, 78809, Note_on_c, 7, 43, 127
2, 78960, Note_off_c, 12, 59, 127
2, 78962, Note_on_c, 0, 60, 127
2, 79113, Note_off_c, 0, 60, 127
2, 79113, Note_off_c, 7, 43, 127
2, 79113, Note_off_c, 4, 64, 127
2, 79115, Note_on_c, 10, 69, 127
2, 79115, Note_on_c, 2, 62, 127
2, 79115, Note_on_c, 6, 42, 127
2, 79266, Note_off_c, 2, 62, 127
2, 79268, Note_on_c, 0, 60, 127
2, 79419, Note_off_c, 0, 60, 127
2, 79419, Note_off_c, 6, 42, 127
2, 79421, Note_on_c, 12, 59, 127
2, 79421, Note_on_c, 7, 43, 127
2, 79572, Note_off_c, 7, 43, 127
2, 79572, Note_off_c, 10, 69, 127
2, 79574, Note_on_c, 7, 67, 127
2, 79574, Note_on_c, 7, 55, 127
2, 79725, Note_off_c, 7, 55, 127
2, 79725, Note_off_c, 7, 67, 127
2, 79725, Note_off_c, 12, 59, 127
2, 79727, Note_on_c, 10, 69, 127
2, 79727, Note_on_c, 0, 60, 127
2, 79727, Note_on_c, 5, 53, 127
2, 79878, Note_off_c, 5, 53, 127
2, 79880, Note_on_c, 4, 52, 127
2, 80031, Note_off_c, 4, 52, 127
2, 80031, Note_off_c, 0, 60, 127
2, 80031, Note_off_c, 10, 69, 127
2, 80033, Note_on_c, 12, 71, 127
2, 80033, Note_on_c, 2, 62, 127
2, 80033, Note_on_c, 2, 50, 127
2, 80184, Note_off_c, 2, 50, 127
2, 80186, Note_on_c, 5, 53, 127
2, 80337, Note_off_c, 5, 53, 127
2, 80337, Note_off_c, 2, 62, 127
2, 80337, Note_off_c, 12, 71, 127
2, 80339, Note_on_c, 0, 72, 127
2, 80339, Note_on_c, 7, 67, 127
2, 80339, Note_on_c, 4, 52, 127
2, 80490, Note_off_c, 4, 52, 127
2, 80490, Note_off_c, 0, 72, 127
2, 80492, Note_on_c, 2, 74, 127
2, 80492, Note_on_c, 5, 53, 127
2, 80594, Note_off_c, 7, 67, 127
2, 80645, Note_off_c, 5, 53, 127
2, 80645, Note_off_c, 2, 74, 127
2, 80646, Note_on_c, 0, 72, 127
2, 80646, Note_on_c, 10, 57, 127
2, 80646, Note_on_c, 4, 52, 127
2, 80797, Note_off_c, 4, 52, 127
2, 80797, Note_off_c, 0, 72, 127
2, 80799, Note_on_c, 12, 71, 127
2, 80799, Note_on_c, 2, 50, 127
2, 80950, Note_off_c, 2, 50, 127
2, 80950, Note_off_c, 12, 71, 127
2, 80952, Note_on_c, 10, 69, 127
2, 80952, Note_on_c, 0, 48, 127
2, 81103, Note_off_c, 0, 48, 127
2, 81103, Note_off_c, 10, 69, 127
2, 81105, Note_on_c, 7, 67, 127
2, 81105, Note_on_c, 4, 52, 127
2, 81256, Note_off_c, 4, 52, 127
2, 81256, Note_off_c, 7, 67, 127
2, 81256, Note_off_c, 10, 57, 127
2, 81258, Note_on_c, 7, 67, 127
2, 81258, Note_on_c, 12, 59, 127
2, 81258, Note_on_c, 2, 50, 127
2, 81333, Note_off_c, 7, 67, 127
2, 81336, Note_on_c, 6, 66, 127
2, 81411, Note_off_c, 6, 66, 127
2, 81411, Note_off_c, 2, 50, 127
2, 81413, Note_on_c, 7, 67, 127
2, 81413, Note_on_c, 4, 52, 127
2, 81488, Note_off_c, 7, 67, 127
2, 81490, Note_on_c, 6, 66, 127
2, 81565, Note_off_c, 6, 66, 127
2, 81565, Note_off_c, 12, 59, 127
2, 81566, Note_off_c, 4, 52, 127
2, 81567, Note_on_c, 7, 67, 127
2, 81567, Note_on_c, 0, 60, 127
2, 81567, Note_on_c, 2, 50, 127
2, 81642, Note_off_c, 7, 67, 127
2, 81644, Note_on_c, 6, 66, 127
2, 81719, Note_off_c, 6, 66, 127
2, 81720, Note_off_c, 2, 50, 127
2, 81722, Note_on_c, 4, 64, 127
2, 81722, Note_on_c, 0, 48, 127
2, 81797, Note_off_c, 4, 64, 127
2, 81799, Note_on_c, 6, 66, 127
2, 81874, Note_off_c, 6, 66, 127
2, 81874, Note_off_c, 0, 60, 127
2, 81875, Note_off_c, 0, 48, 127
2, 81876, Note_on_c, 7, 67, 127
2, 81876, Note_on_c, 2, 62, 127
2, 81876, Note_on_c, 12, 47, 127
2, 82027, Note_off_c, 12, 47, 127
2, 82029, Note_on_c, 2, 50, 127
2, 82180, Note_off_c, 2, 50, 127
2, 82180, Note_off_c, 2, 62, 127
2, 82182, Note_on_c, 4, 64, 127
2, 82182, Note_on_c, 0, 48, 127
2, 82333, Note_off_c, 0, 48, 127
2, 82333, Note_off_c, 7, 67, 127
2, 82335, Note_on_c, 12, 71, 127
2, 82335, Note_on_c, 2, 50, 127
2, 82453, Note_off_c, 4, 64, 127
2, 82488, Note_off_c, 2, 50, 127
2, 82488, Note_off_c, 12, 71, 127
2, 82490, Note_on_c, 10, 69, 127
2, 82490, Note_on_c, 6, 54, 127
2, 82490, Note_on_c, 0, 48, 127
2, 82641, Note_off_c, 0, 48, 127
2, 82641, Note_off_c, 10, 69, 127
2, 82643, Note_on_c, 7, 67, 127
2, 82643, Note_on_c, 12, 47, 127
2, 82794, Note_off_c, 12, 47, 127
2, 82794, Note_off_c, 7, 67, 127
2, 82796, Note_on_c, 6, 66, 127
2, 82796, Note_on_c, 10, 45, 127
2, 82947, Note_off_c, 10, 45, 127
2, 82947, Note_off_c, 6, 66, 127
2, 82949, Note_on_c, 4, 64, 127
2, 82949, Note_on_c, 0, 48, 127
2, 83100, Note_off_c, 0, 48, 127
2, 83100, Note_off_c, 4, 64, 127
2, 83100, Note_off_c, 6, 54, 127
2, 83102, Note_on_c, 2, 62, 127
2, 83102, Note_on_c, 7, 55, 127
2, 83102, Note_on_c, 12, 47, 127
2, 83253, Note_off_c, 12, 47, 127
2, 83255, Note_on_c, 0, 48, 127
2, 83406, Note_off_c, 0, 48, 127
2, 83406, Note_off_c, 7, 55, 127
2, 83408, Note_on_c, 7, 55, 127
2, 83408, Note_on_c, 12, 47, 127
2, 83559, Note_off_c, 12, 47, 127
2, 83559, Note_off_c, 7, 55, 127
2, 83561, Note_on_c, 10, 57, 127
2, 83561, Note_on_c, 10, 45, 127
2, 83712, Note_off_c, 10, 45, 127
2, 83712, Note_off_c, 10, 57, 127
2, 83714, Note_on_c, 12, 59, 127
2, 83714, Note_on_c, 7, 43, 127
2, 83865, Note_off_c, 7, 43, 127
2, 83865, Note_off_c, 12, 59, 127
2, 83867, Note_on_c, 1, 61, 127
2, 83867, Note_on_c, 10, 45, 127
2, 84018, Note_off_c, 10, 45, 127
2, 84018, Note_off_c, 1, 61, 127
2, 84018, Note_off_c, 2, 62, 127
2, 84020, Note_on_c, 2, 62, 127
2, 84020, Note_on_c, 12, 47, 127
2, 84171, Note_off_c, 12, 47, 127
2, 84173, Note_on_c, 1, 49, 127
2, 84324, Note_off_c, 1, 49, 127
2, 84324, Note_off_c, 2, 62, 127
2, 84326, Note_on_c, 12, 59, 127
2, 84326, Note_on_c, 2, 50, 127
2, 84477, Note_off_c, 2, 50, 127
2, 84477, Note_off_c, 12, 59, 127
2, 84479, Note_on_c, 1, 61, 127
2, 84479, Note_on_c, 4, 52, 127
2, 84630, Note_off_c, 4, 52, 127
2, 84630, Note_off_c, 1, 61, 127
2, 84640, Note_on_c, 2, 62, 127
2, 84640, Note_on_c, 6, 54, 127
2, 84791, Note_off_c, 6, 54, 127
2, 84791, Note_off_c, 2, 62, 127
2, 84793, Note_on_c, 4, 64, 127
2, 84793, Note_on_c, 7, 55, 127
2, 84944, Note_off_c, 7, 55, 127
2, 84944, Note_off_c, 4, 64, 127
2, 84946, Note_on_c, 10, 69, 127
2, 84946, Note_on_c, 6, 66, 127
2, 84946, Note_on_c, 6, 54, 127
2, 85252, Note_off_c, 6, 54, 127
2, 85252, Note_off_c, 6, 66, 127
2, 85252, Note_off_c, 10, 69, 127
2, 85253, Note_on_c, 7, 67, 127
2, 85253, Note_on_c, 4, 64, 127
2, 85253, Note_on_c, 12, 59, 127
2, 85404, Note_off_c, 7, 67, 127
2, 85406, Note_on_c, 10, 69, 127
2, 85557, Note_off_c, 10, 69, 127
2, 85557, Note_off_c, 4, 64, 127
2, 85559, Note_on_c, 12, 71, 127
2, 85559, Note_on_c, 3, 63, 127
2, 85559, Note_on_c, 12, 47, 127
2, 85710, Note_off_c, 12, 71, 127
2, 85712, Note_on_c, 10, 69, 127
2, 85859, Note_off_c, 12, 59, 127
2, 85863, Note_off_c, 10, 69, 127
2, 85863, Note_off_c, 12, 47, 127
2, 85863, Note_off_c, 3, 63, 127
2, 85865, Note_on_c, 7, 67, 127
2, 85865, Note_on_c, 4, 64, 127
2, 85865, Note_on_c, 4, 52, 127
2, 86171, Note_off_c, 4, 52, 127
2, 86171, Note_off_c, 4, 64, 127
2, 86171, Note_off_c, 7, 67, 127
2, 86173, Note_on_c, 6, 66, 127
2, 86173, Note_on_c, 2, 62, 127
2, 86173, Note_on_c, 10, 57, 127
2, 86324, Note_off_c, 6, 66, 127
2, 86326, Note_on_c, 7, 67, 127
2, 86477, Note_off_c, 7, 67, 127
2, 86477, Note_off_c, 2, 62, 127
2, 86479, Note_on_c, 10, 69, 127
2, 86479, Note_on_c, 1, 61, 127
2, 86479, Note_on_c, 10, 45, 127
2, 86630, Note_off_c, 10, 69, 127
2, 86632, Note_on_c, 7, 67, 127
2, 86779, Note_off_c, 10, 57, 127
2, 86783, Note_off_c, 7, 67, 127
2, 86783, Note_off_c, 10, 45, 127
2, 86783, Note_off_c, 1, 61, 127
2, 86785, Note_on_c, 6, 66, 127
2, 86785, Note_on_c, 2, 62, 127
2, 86785, Note_on_c, 2, 50, 127
2, 87091, Note_off_c, 2, 50, 127
2, 87091, Note_off_c, 2, 62, 127
2, 87091, Note_off_c, 6, 66, 127
2, 87092, Note_on_c, 7, 67, 127
2, 87092, Note_on_c, 1, 61, 127
2, 87092, Note_on_c, 4, 52, 127
2, 87243, Note_off_c, 1, 61, 127
2, 87245, Note_on_c, 12, 59, 127
2, 87396, Note_off_c, 12, 59, 127
2, 87396, Note_off_c, 4, 52, 127
2, 87396, Note_off_c, 7, 67, 127
2, 87398, Note_on_c, 10, 69, 127
2, 87398, Note_on_c, 10, 57, 127
2, 87398, Note_on_c, 6, 54, 127
2, 87549, Note_off_c, 10, 57, 127
2, 87551, Note_on_c, 0, 60, 127
2, 87702, Note_off_c, 0, 60, 127
2, 87702, Note_off_c, 10, 69, 127
2, 87704, Note_on_c, 2, 74, 127
2, 87704, Note_on_c, 12, 59, 127
2, 87855, Note_off_c, 12, 59, 127
2, 87857, Note_on_c, 0, 60, 127
2, 87942, Note_off_c, 2, 74, 127
2, 88008, Note_off_c, 0, 60, 127
2, 88008, Note_off_c, 6, 54, 127
2, 88010, Note_on_c, 6, 66, 127
2, 88010, Note_on_c, 12, 59, 127
2, 88010, Note_on_c, 7, 55, 127
2, 88085, Note_off_c, 6, 66, 127
2, 88087, Note_on_c, 4, 64, 127
2, 88162, Note_off_c, 4, 64, 127
2, 88163, Note_off_c, 12, 59, 127
2, 88165, Note_on_c, 6, 66, 127
2, 88165, Note_on_c, 10, 57, 127
2, 88240, Note_off_c, 6, 66, 127
2, 88242, Note_on_c, 4, 64, 127
2, 88317, Note_off_c, 4, 64, 127
2, 88317, Note_off_c, 7, 55, 127
2, 88318, Note_off_c, 10, 57, 127
2, 88319, Note_on_c, 6, 66, 127
2, 88319, Note_on_c, 7, 55, 127
2, 88319, Note_on_c, 1, 49, 127
2, 88394, Note_off_c, 6, 66, 127
2, 88396, Note_on_c, 4, 64, 127
2, 88471, Note_off_c, 4, 64, 127
2, 88472, Note_off_c, 7, 55, 127
2, 88474, Note_on_c, 2, 62, 127
2, 88474, Note_on_c, 12, 59, 127
2, 88549, Note_off_c, 2, 62, 127
2, 88551, Note_on_c, 4, 64, 127
2, 88626, Note_off_c, 4, 64, 127
2, 88626, Note_off_c, 1, 49, 127
2, 88627, Note_off_c, 12, 59, 127
2, 88628, Note_on_c, 6, 66, 127
2, 88628, Note_on_c, 10, 57, 127
2, 88628, Note_on_c, 2, 50, 127
2, 88779, Note_off_c, 10, 57, 127
2, 88781, Note_on_c, 12, 59, 127
2, 88932, Note_off_c, 12, 59, 127
2, 88932, Note_off_c, 6, 66, 127
2, 88934, Note_on_c, 7, 67, 127
2, 88934, Note_on_c, 10, 57, 127
2, 89085, Note_off_c, 10, 57, 127
2, 89087, Note_on_c, 7, 55, 127
2, 89238, Note_off_c, 7, 55, 127
2, 89238, Note_off_c, 7, 67, 127
2, 89240, Note_on_c, 10, 69, 127
2, 89240, Note_on_c, 6, 54, 127
2, 89391, Note_off_c, 6, 54, 127
2, 89393, Note_off_c, 2, 50, 127
2, 89393, Note_on_c, 10, 57, 127
2, 89544, Note_off_c, 10, 57, 127
2, 89544, Note_off_c, 10, 69, 127
2, 89546, Note_on_c, 12, 71, 127
2, 89546, Note_on_c, 7, 55, 127
2, 89697, Note_off_c, 7, 55, 127
2, 89699, Note_on_c, 10, 57, 127
2, 89784, Note_off_c, 12, 71, 127
2, 89850, Note_off_c, 10, 57, 127
2, 89852, Note_on_c, 2, 62, 127
2, 89852, Note_on_c, 7, 55, 127
2, 89927, Note_off_c, 2, 62, 127
2, 89929, Note_on_c, 1, 61, 127
2, 90004, Note_off_c, 1, 61, 127
2, 90005, Note_off_c, 7, 55, 127
2, 90006, Note_on_c, 2, 62, 127
2, 90006, Note_on_c, 6, 54, 127
2, 90081, Note_off_c, 2, 62, 127
2, 90084, Note_on_c, 1, 61, 127
2, 90159, Note_off_c, 1, 61, 127
2, 90159, Note_off_c, 6, 54, 127
2, 90161, Note_on_c, 2, 62, 127
2, 90161, Note_on_c, 4, 52, 127
2, 90236, Note_off_c, 2, 62, 127
2, 90238, Note_on_c, 1, 61, 127
2, 90313, Note_off_c, 1, 61, 127
2, 90314, Note_off_c, 4, 52, 127
2, 90315, Note_on_c, 12, 59, 127
2, 90315, Note_on_c, 7, 55, 127
2, 90390, Note_off_c, 12, 59, 127
2, 90393, Note_on_c, 1, 61, 127
2, 90468, Note_off_c, 1, 61, 127
2, 90468, Note_off_c, 7, 55, 127
2, 90470, Note_on_c, 2, 62, 127
2, 90470, Note_on_c, 6, 54, 127
2, 90621, Note_off_c, 6, 54, 127
2, 90623, Note_on_c, 7, 55, 127
2, 90774, Note_off_c, 7, 55, 127
2, 90774, Note_off_c, 2, 62, 127
2, 90776, Note_on_c, 2, 62, 127
2, 90776, Note_on_c, 6, 54, 127
2, 90927, Note_off_c, 6, 54, 127
2, 90927, Note_off_c, 2, 62, 127
2, 90929, Note_on_c, 4, 64, 127
2, 90929, Note_on_c, 4, 52, 127
2, 91080, Note_off_c, 4, 52, 127
2, 91080, Note_off_c, 4, 64, 127
2, 91082, Note_on_c, 6, 66, 127
2, 91082, Note_on_c, 2, 50, 127
2, 91233, Note_off_c, 2, 50, 127
2, 91233, Note_off_c, 6, 66, 127
2, 91235, Note_on_c, 7, 67, 127
2, 91235, Note_on_c, 4, 52, 127
2, 91386, Note_off_c, 4, 52, 127
2, 91386, Note_off_c, 7, 67, 127
2, 91388, Note_on_c, 10, 69, 127
2, 91388, Note_on_c, 6, 54, 127
2, 91539, Note_off_c, 6, 54, 127
2, 91541, Note_on_c, 7, 55, 127
2, 91692, Note_off_c, 7, 55, 127
2, 91692, Note_off_c, 10, 69, 127
2, 91694, Note_on_c, 6, 66, 127
2, 91694, Note_on_c, 10, 57, 127
2, 91845, Note_off_c, 10, 57, 127
2, 91845, Note_off_c, 6, 66, 127
2, 91847, Note_on_c, 7, 67, 127
2, 91847, Note_on_c, 12, 59, 127
2, 91998, Note_off_c, 12, 59, 127
2, 91998, Note_off_c, 7, 67, 127
2, 92000, Note_on_c, 10, 69, 127
2, 92000, Note_on_c, 0, 60, 127
2, 92151, Note_off_c, 0, 60, 127
2, 92151, Note_off_c, 10, 69, 127
2, 92153, Note_on_c, 12, 71, 127
2, 92153, Note_on_c, 2, 62, 127
2, 92304, Note_off_c, 2, 62, 127
2, 92304, Note_off_c, 12, 71, 127
2, 92306, Note_on_c, 0, 72, 127
2, 92306, Note_on_c, 6, 54, 127
2, 92306, Note_on_c, 2, 50, 127
2, 92612, Note_off_c, 2, 50, 127
2, 92612, Note_off_c, 6, 54, 127
2, 92613, Note_on_c, 10, 69, 127
2, 92613, Note_on_c, 0, 48, 127
2, 92764, Note_off_c, 0, 48, 127
2, 92766, Note_on_c, 2, 50, 127
2, 92917, Note_off_c, 2, 50, 127
2, 92917, Note_off_c, 10, 69, 127
2, 92918, Note_off_c, 0, 72, 127
2, 92919, Note_on_c, 12, 71, 127
2, 92919, Note_on_c, 7, 67, 127
2, 92919, Note_on_c, 4, 52, 127
2, 93070, Note_off_c, 4, 52, 127
2, 93072, Note_on_c, 2, 50, 127
2, 93223, Note_off_c, 2, 50, 127
2, 93223, Note_off_c, 12, 71, 127
2, 93225, Note_on_c, 10, 69, 127
2, 93225, Note_on_c, 0, 48, 127
2, 93531, Note_off_c, 0, 48, 127
2, 93531, Note_off_c, 7, 67, 127
2, 93533, Note_on_c, 7, 67, 127
2, 93533, Note_on_c, 12, 47, 127
2, 93684, Note_off_c, 12, 47, 127
2, 93686, Note_on_c, 0, 48, 127
2, 93837, Note_off_c, 0, 48, 127
2, 93837, Note_off_c, 7, 67, 127
2, 93839, Note_on_c, 6, 66, 127
2, 93839, Note_on_c, 2, 50, 127
2, 93990, Note_off_c, 2, 50, 127
2, 93992, Note_on_c, 0, 48, 127
2, 94143, Note_off_c, 0, 48, 127
2, 94143, Note_off_c, 6, 66, 127
2, 94143, Note_off_c, 10, 69, 127
2, 94145, Note_on_c, 7, 67, 127
2, 94145, Note_on_c, 12, 47, 127
2, 94299, Note_on_c, 7, 79, 127
2, 94449, Note_off_c, 7, 67, 127
2, 94450, Note_off_c, 7, 79, 127
2, 94451, Note_off_c, 12, 47, 127
2, 94452, Note_on_c, 6, 78, 127
2, 94452, Note_on_c, 0, 48, 127
2, 94603, Note_off_c, 6, 78, 127
2, 94605, Note_on_c, 4, 76, 127
2, 94756, Note_off_c, 4, 76, 127
2, 94756, Note_off_c, 0, 48, 127
2, 94758, Note_on_c, 2, 74, 127
2, 94758, Note_on_c, 2, 50, 127
2, 94909, Note_off_c, 2, 74, 127
2, 94911, Note_on_c, 6, 78, 127
2, 95062, Note_off_c, 6, 78, 127
2, 95062, Note_off_c, 2, 50, 127
2, 95064, Note_on_c, 4, 76, 127
2, 95064, Note_on_c, 7, 55, 127
2, 95215, Note_off_c, 4, 76, 127
2, 95217, Note_on_c, 6, 78, 127
2, 95335, Note_off_c, 7, 55, 127
2, 95370, Note_off_c, 6, 78, 127
2, 95372, Note_on_c, 4, 76, 127
2, 95372, Note_on_c, 10, 45, 127
2, 95523, Note_off_c, 4, 76, 127
2, 95525, Note_on_c, 2, 74, 127
2, 95676, Note_off_c, 2, 74, 127
2, 95678, Note_on_c, 0, 72, 127
2, 95829, Note_off_c, 0, 72, 127
2, 95831, Note_on_c, 4, 76, 127
2, 95962, Note_off_c, 10, 45, 127
2, 95984, Note_off_c, 4, 76, 127
2, 95985, Note_on_c, 2, 74, 127
2, 95985, Note_on_c, 12, 47, 127
2, 96136, Note_off_c, 2, 74, 127
2, 96138, Note_on_c, 4, 76, 127
2, 96289, Note_off_c, 4, 76, 127
2, 96289, Note_off_c, 12, 47, 127
2, 96291, Note_on_c, 2, 74, 127
2, 96291, Note_on_c, 0, 48, 127
2, 96442, Note_off_c, 2, 74, 127
2, 96444, Note_on_c, 0, 72, 127
2, 96595, Note_off_c, 0, 72, 127
2, 96595, Note_off_c, 0, 48, 127
2, 96597, Note_on_c, 12, 71, 127
2, 96597, Note_on_c, 2, 50, 127
2, 96748, Note_off_c, 12, 71, 127
2, 96750, Note_on_c, 2, 74, 127
2, 96901, Note_off_c, 2, 74, 127
2, 96901, Note_off_c, 2, 50, 127
2, 96903, Note_on_c, 0, 72, 127
2, 96903, Note_on_c, 4, 52, 127
2, 97054, Note_off_c, 0, 72, 127
2, 97056, Note_on_c, 2, 74, 127
2, 97174, Note_off_c, 4, 52, 127
2, 97209, Note_off_c, 2, 74, 127
2, 97211, Note_on_c, 0, 72, 127
2, 97211, Note_on_c, 6, 42, 127
2, 97362, Note_off_c, 0, 72, 127
2, 97364, Note_on_c, 12, 71, 127
2, 97515, Note_off_c, 12, 71, 127
2, 97517, Note_on_c, 10, 69, 127
2, 97668, Note_off_c, 10, 69, 127
2, 97670, Note_on_c, 0, 72, 127
2, 97801, Note_off_c, 6, 42, 127
2, 97823, Note_off_c, 0, 72, 127
2, 97824, Note_on_c, 12, 71, 127
2, 97824, Note_on_c, 7, 43, 127
2, 97975, Note_off_c, 7, 43, 127
2, 97975, Note_off_c, 12, 71, 127
2, 97977, Note_on_c, 10, 69, 127
2, 97977, Note_on_c, 10, 45, 127
2, 98128, Note_off_c, 10, 45, 127
2, 98128, Note_off_c, 10, 69, 127
2, 98130, Note_on_c, 7, 67, 127
2, 98130, Note_on_c, 12, 47, 127
2, 98285, Note_on_c, 12, 71, 127
2, 98434, Note_off_c, 7, 67, 127
2, 98436, Note_off_c, 12, 71, 127
2, 98438, Note_on_c, 6, 66, 127
2, 98438, Note_on_c, 2, 62, 127
2, 98592, Note_on_c, 12, 71, 127
2, 98742, Note_off_c, 6, 66, 127
2, 98743, Note_off_c, 12, 71, 127
2, 98744, Note_off_c, 2, 62, 127
2, 98745, Note_on_c, 4, 64, 127
2, 98745, Note_on_c, 1, 61, 127
2, 98896, Note_off_c, 12, 47, 127
2, 98898, Note_on_c, 12, 71, 127
2, 98898, Note_on_c, 10, 45, 127
2, 99048, Note_off_c, 1, 61, 127
2, 99048, Note_off_c, 4, 64, 127
2, 99049, Note_off_c, 10, 45, 127
2, 99049, Note_off_c, 12, 71, 127
2, 99051, Note_on_c, 2, 62, 127
2, 99051, Note_on_c, 7, 43, 127
2, 99202, Note_off_c, 7, 43, 127
2, 99204, Note_on_c, 12, 71, 127
2, 99204, Note_on_c, 6, 42, 127
2, 99354, Note_off_c, 2, 62, 127
2, 99355, Note_off_c, 6, 42, 127
2, 99355, Note_off_c, 12, 71, 127
2, 99357, Note_on_c, 1, 61, 127
2, 99357, Note_on_c, 4, 40, 127
2, 99508, Note_off_c, 4, 40, 127
2, 99510, Note_on_c, 12, 71, 127
2, 99510, Note_on_c, 7, 43, 127
2, 99660, Note_off_c, 1, 61, 127
2, 99661, Note_off_c, 7, 43, 127
2, 99661, Note_off_c, 12, 71, 127
2, 99663, Note_on_c, 10, 69, 127
2, 99663, Note_on_c, 6, 42, 127
2, 99814, Note_off_c, 6, 42, 127
2, 99816, Note_on_c, 7, 67, 127
2, 99816, Note_on_c, 7, 43, 127
2, 99854, Note_off_c, 10, 69, 127
2, 99969, Note_off_c, 7, 43, 127
2, 99969, Note_off_c, 7, 67, 127
2, 99971, Note_on_c, 6, 66, 127
2, 99971, Note_on_c, 10, 45, 127
2, 100125, Note_on_c, 10, 69, 127
2, 100275, Note_off_c, 6, 66, 127
2, 100278, Note_on_c, 4, 64, 127
2, 100278, Note_on_c, 1, 61, 127
2, 100316, Note_off_c, 10, 69, 127
2, 100433, Note_on_c, 10, 69, 127
2, 100582, Note_off_c, 4, 64, 127
2, 100584, Note_off_c, 1, 61, 127
2, 100586, Note_on_c, 2, 62, 127
2, 100586, Note_on_c, 12, 59, 127
2, 100624, Note_off_c, 10, 69, 127
2, 100738, Note_off_c, 10, 45, 127
2, 100740, Note_on_c, 10, 69, 127
2, 100740, Note_on_c, 7, 43, 127
2, 100890, Note_off_c, 12, 59, 127
2, 100890, Note_off_c, 2, 62, 127
2, 100891, Note_off_c, 7, 43, 127
2, 100893, Note_on_c, 1, 61, 127
2, 100893, Note_on_c, 6, 42, 127
2, 100931, Note_off_c, 10, 69, 127
2, 101046, Note_off_c, 6, 42, 127
2, 101048, Note_on_c, 10, 69, 127
2, 101048, Note_on_c, 4, 40, 127
2, 101197, Note_off_c, 1, 61, 127
2, 101199, Note_off_c, 4, 40, 127
2, 101201, Note_on_c, 12, 59, 127
2, 101201, Note_on_c, 2, 38, 127
2, 101239, Note_off_c, 10, 69, 127
2, 101354, Note_off_c, 2, 38, 127
2, 101355, Note_on_c, 10, 69, 127
2, 101355, Note_on_c, 6, 42, 127
2, 101505, Note_off_c, 12, 59, 127
2, 101506, Note_off_c, 6, 42, 127
2, 101506, Note_off_c, 10, 69, 127
2, 101508, Note_on_c, 7, 67, 127
2, 101508, Note_on_c, 4, 40, 127
2, 101659, Note_off_c, 4, 40, 127
2, 101661, Note_on_c, 6, 66, 127
2, 101661, Note_on_c, 6, 42, 127
2, 101746, Note_off_c, 7, 67, 127
2, 101812, Note_off_c, 6, 42, 127
2, 101812, Note_off_c, 6, 66, 127
2, 101814, Note_on_c, 4, 64, 127
2, 101814, Note_on_c, 7, 43, 127
2, 101968, Note_on_c, 7, 67, 127
2, 102118, Note_off_c, 4, 64, 127
2, 102121, Note_on_c, 2, 62, 127
2, 102121, Note_on_c, 12, 59, 127
2, 102223, Note_off_c, 7, 67, 127
2, 102276, Note_on_c, 7, 67, 127
2, 102425, Note_off_c, 2, 62, 127
2, 102427, Note_off_c, 12, 59, 127
2, 102429, Note_on_c, 1, 61, 127
2, 102429, Note_on_c, 10, 57, 127
2, 102531, Note_off_c, 7, 67, 127
2, 102581, Note_off_c, 7, 43, 127
2, 102583, Note_on_c, 7, 67, 127
2, 102583, Note_on_c, 6, 42, 127
2, 102733, Note_off_c, 10, 57, 127
2, 102733, Note_off_c, 1, 61, 127
2, 102734, Note_off_c, 6, 42, 127
2, 102736, Note_on_c, 12, 59, 127
2, 102736, Note_on_c, 4, 40, 127
2, 102838, Note_off_c, 7, 67, 127
2, 102889, Note_off_c, 4, 40, 127
2, 102891, Note_on_c, 7, 67, 127
2, 102891, Note_on_c, 2, 38, 127
2, 103040, Note_off_c, 12, 59, 127
2, 103042, Note_off_c, 2, 38, 127
2, 103044, Note_on_c, 10, 57, 127
2, 103044, Note_on_c, 1, 37, 127
2, 103146, Note_off_c, 7, 67, 127
2, 103197, Note_off_c, 1, 37, 127
2, 103198, Note_on_c, 7, 67, 127
2, 103198, Note_on_c, 4, 40, 127
2, 103348, Note_off_c, 10, 57, 127
2, 103349, Note_off_c, 4, 40, 127
2, 103349, Note_off_c, 7, 67, 127
2, 103351, Note_on_c, 6, 66, 127
2, 103351, Note_on_c, 2, 38, 127
2, 103506, Note_on_c, 2, 74, 127
2, 103506, Note_on_c, 4, 40, 127
2, 103544, Note_off_c, 2, 38, 127
2, 103655, Note_off_c, 6, 66, 127
2, 103657, Note_off_c, 4, 40, 127
2, 103657, Note_off_c, 2, 74, 127
2, 103659, Note_on_c, 0, 72, 127
2, 103659, Note_on_c, 6, 42, 127
2, 103810, Note_off_c, 0, 72, 127
2, 103812, Note_on_c, 12, 71, 127
2, 103812, Note_on_c, 2, 38, 127
2, 103914, Note_off_c, 6, 42, 127
2, 103965, Note_off_c, 2, 38, 127
2, 103965, Note_off_c, 12, 71, 127
2, 103966, Note_on_c, 10, 69, 127
2, 103966, Note_on_c, 7, 43, 127
2, 104117, Note_off_c, 10, 69, 127
2, 104119, Note_on_c, 7, 67, 127
2, 104119, Note_on_c, 2, 38, 127
2, 104221, Note_off_c, 7, 43, 127
2, 104272, Note_off_c, 2, 38, 127
2, 104272, Note_off_c, 7, 67, 127
2, 104274, Note_on_c, 6, 66, 127
2, 104274, Note_on_c, 10, 45, 127
2, 104425, Note_off_c, 6, 66, 127
2, 104427, Note_on_c, 4, 64, 127
2, 104427, Note_on_c, 2, 38, 127
2, 104529, Note_off_c, 10, 45, 127
2, 104580, Note_off_c, 2, 38, 127
2, 104580, Note_off_c, 4, 64, 127
2, 104581, Note_on_c, 2, 62, 127
2, 104581, Note_on_c, 12, 47, 127
2, 104732, Note_off_c, 2, 62, 127
2, 104734, Note_on_c, 0, 60, 127
2, 104734, Note_on_c, 2, 38, 127
2, 104836, Note_off_c, 12, 47, 127
2, 104887, Note_off_c, 2, 38, 127
2, 104887, Note_off_c, 0, 60, 127
2, 104888, Note_on_c, 12, 59, 127
2, 104888, Note_on_c, 0, 48, 127
2, 105039, Note_off_c, 12, 59, 127
2, 105042, Note_on_c, 10, 57, 127
2, 105042, Note_on_c, 2, 38, 127
2, 105159, Note_off_c, 0, 48, 127
2, 105195, Note_off_c, 2, 38, 127
2, 105195, Note_off_c, 10, 57, 127
2, 105196, Note_on_c, 7, 55, 127
2, 105196, Note_on_c, 12, 47, 127
2, 105347, Note_off_c, 7, 55, 127
2, 105349, Note_on_c, 10, 57, 127
2, 105349, Note_on_c, 7, 55, 127
2, 105499, Note_off_c, 12, 47, 127
2, 105500, Note_off_c, 7, 55, 127
2, 105500, Note_off_c, 10, 57, 127
2, 105502, Note_on_c, 12, 59, 127
2, 105502, Note_on_c, 5, 53, 127
2, 105653, Note_off_c, 5, 53, 127
2, 105655, Note_on_c, 7, 55, 127
2, 105655, Note_on_c, 4, 52, 127
2, 105805, Note_off_c, 12, 59, 127
2, 105806, Note_off_c, 4, 52, 127
2, 105806, Note_off_c, 7, 55, 127
2, 105808, Note_on_c, 0, 60, 127
2, 105808, Note_on_c, 2, 50, 127
2, 105959, Note_off_c, 2, 50, 127
2, 105961, Note_on_c, 7, 55, 127
2, 105961, Note_on_c, 0, 48, 127
2, 106111, Note_off_c, 0, 60, 127
2, 106112, Note_off_c, 0, 48, 127
2, 106112, Note_off_c, 7, 55, 127
2, 106114, Note_on_c, 2, 62, 127
2, 106114, Note_on_c, 12, 47, 127
2, 106265, Note_off_c, 12, 47, 127
2, 106267, Note_on_c, 7, 55, 127
2, 106267, Note_on_c, 10, 45, 127
2, 106417, Note_off_c, 2, 62, 127
2, 106418, Note_off_c, 10, 45, 127
2, 106418, Note_off_c, 7, 55, 127
2, 106420, Note_on_c, 4, 64, 127
2, 106420, Note_on_c, 7, 43, 127
2, 106571, Note_off_c, 7, 43, 127
2, 106573, Note_on_c, 7, 55, 127
2, 106573, Note_on_c, 5, 41, 127
2, 106723, Note_off_c, 4, 64, 127
2, 106724, Note_off_c, 5, 41, 127
2, 106724, Note_off_c, 7, 55, 127
2, 106726, Note_on_c, 5, 65, 127
2, 106726, Note_on_c, 4, 40, 127
2, 106877, Note_off_c, 4, 40, 127
2, 106879, Note_on_c, 7, 55, 127
2, 106879, Note_on_c, 2, 38, 127
2, 107029, Note_off_c, 5, 65, 127
2, 107030, Note_off_c, 2, 38, 127
2, 107030, Note_off_c, 7, 55, 127
2, 107032, Note_on_c, 4, 64, 127
2, 107032, Note_on_c, 0, 36, 127
2, 107183, Note_off_c, 0, 36, 127
2, 107185, Note_on_c, 0, 72, 127
2, 107185, Note_on_c, 2, 38, 127
2, 107336, Note_off_c, 2, 38, 127
2, 107336, Note_off_c, 0, 72, 127
2, 107338, Note_on_c, 12, 71, 127
2, 107338, Note_on_c, 4, 40, 127
2, 107479, Note_off_c, 4, 64, 127
2, 107491, Note_off_c, 4, 40, 127
2, 107493, Note_on_c, 2, 74, 127
2, 107493, Note_on_c, 6, 42, 127
2, 107642, Note_off_c, 12, 71, 127
2, 107644, Note_off_c, 6, 42, 127
2, 107646, Note_on_c, 10, 69, 127
2, 107646, Note_on_c, 8, 44, 127
2, 107716, Note_off_c, 2, 74, 127
2, 107797, Note_off_c, 8, 44, 127
2, 107799, Note_on_c, 2, 74, 127
2, 107799, Note_on_c, 10, 45, 127
2, 107949, Note_off_c, 10, 69, 127
2, 107950, Note_off_c, 10, 45, 127
2, 107952, Note_on_c, 8, 68, 127
2, 107952, Note_on_c, 12, 47, 127
2, 108022, Note_off_c, 2, 74, 127
2, 108103, Note_off_c, 12, 47, 127
2, 108105, Note_on_c, 2, 74, 127
2, 108105, Note_on_c, 0, 48, 127
2, 108255, Note_off_c, 8, 68, 127
2, 108256, Note_off_c, 0, 48, 127
2, 108258, Note_on_c, 6, 66, 127
2, 108258, Note_on_c, 2, 50, 127
2, 108328, Note_off_c, 2, 74, 127
2, 108409, Note_off_c, 2, 50, 127
2, 108411, Note_on_c, 2, 74, 127
2, 108411, Note_on_c, 4, 52, 127
2, 108561, Note_off_c, 6, 66, 127
2, 108562, Note_off_c, 4, 52, 127
2, 108564, Note_on_c, 4, 64, 127
2, 108564, Note_on_c, 6, 54, 127
2, 108602, Note_off_c, 2, 74, 127
2, 108717, Note_off_c, 6, 54, 127
2, 108718, Note_on_c, 2, 74, 127
2, 108718, Note_on_c, 8, 56, 127
2, 108868, Note_off_c, 4, 64, 127
2, 108869, Note_off_c, 8, 56, 127
2, 108869, Note_off_c, 2, 74, 127
2, 108871, Note_on_c, 0, 72, 127
2, 108871, Note_on_c, 10, 57, 127
2, 109022, Note_off_c, 10, 57, 127
2, 109022, Note_off_c, 0, 72, 127
2, 109024, Note_on_c, 10, 69, 127
2, 109024, Note_on_c, 7, 55, 127
2, 109175, Note_off_c, 7, 55, 127
2, 109175, Note_off_c, 10, 69, 127
2, 109177, Note_on_c, 12, 71, 127
2, 109177, Note_on_c, 6, 54, 127
2, 109328, Note_off_c, 12, 71, 127
2, 109330, Note_on_c, 1, 73, 127
2, 109330, Note_on_c, 10, 57, 127
2, 109415, Note_off_c, 6, 54, 127
2, 109481, Note_off_c, 10, 57, 127
2, 109481, Note_off_c, 1, 73, 127
2, 109483, Note_on_c, 3, 75, 127
2, 109483, Note_on_c, 4, 52, 127
2, 109634, Note_off_c, 3, 75, 127
2, 109636, Note_on_c, 4, 76, 127
2, 109636, Note_on_c, 10, 57, 127
2, 109706, Note_off_c, 4, 52, 127
2, 109787, Note_off_c, 10, 57, 127
2, 109787, Note_off_c, 4, 76, 127
2, 109789, Note_on_c, 6, 78, 127
2, 109789, Note_on_c, 3, 51, 127
2, 109940, Note_off_c, 6, 78, 127
2, 109942, Note_on_c, 7, 79, 127
2, 109942, Note_on_c, 10, 57, 127
2, 109996, Note_off_c, 3, 51, 127
2, 110093, Note_off_c, 10, 57, 127
2, 110093, Note_off_c, 7, 79, 127
2, 110095, Note_on_c, 10, 81, 127
2, 110095, Note_on_c, 1, 49, 127
2, 110246, Note_off_c, 10, 81, 127
2, 110248, Note_on_c, 12, 83, 127
2, 110248, Note_on_c, 10, 57, 127
2, 110253, Note_off_c, 1, 49, 127
2, 110399, Note_off_c, 10, 57, 127
2, 110399, Note_off_c, 12, 83, 127
2, 110401, Note_on_c, 0, 84, 127
2, 110401, Note_on_c, 12, 47, 127
2, 110545, Note_off_c, 12, 47, 127
2, 110554, Note_off_c, 0, 84, 127
2, 110556, Note_on_c, 3, 75, 127
2, 110556, Note_on_c, 10, 57, 127
2, 110700, Note_off_c, 10, 57, 127
2, 110709, Note_off_c, 3, 75, 127
2, 110710, Note_on_c, 4, 76, 127
2, 110710, Note_on_c, 7, 55, 127
2, 111016, Note_off_c, 7, 55, 127
2, 111016, Note_off_c, 4, 76, 127
2, 111017, Note_on_c, 6, 78, 127
2, 111017, Note_on_c, 0, 60, 127
2, 111168, Note_off_c, 6, 78, 127
2, 111170, Note_on_c, 4, 76, 127
2, 111321, Note_off_c, 4, 76, 127
2, 111321, Note_off_c, 0, 60, 127
2, 111323, Note_on_c, 3, 75, 127
2, 111323, Note_on_c, 12, 59, 127
2, 111474, Note_off_c, 3, 75, 127
2, 111477, Note_on_c, 4, 76, 127
2, 111627, Note_off_c, 12, 59, 127
2, 111628, Note_off_c, 4, 76, 127
2, 111630, Note_on_c, 6, 78, 127
2, 111630, Note_on_c, 10, 57, 127
2, 111936, Note_off_c, 10, 57, 127
2, 111936, Note_off_c, 6, 78, 127
2, 111937, Note_on_c, 7, 79, 127
2, 111937, Note_on_c, 12, 59, 127
2, 112088, Note_off_c, 7, 79, 127
2, 112090, Note_on_c, 6, 78, 127
2, 112241, Note_off_c, 6, 78, 127
2, 112243, Note_on_c, 4, 76, 127
2, 112243, Note_on_c, 12, 47, 127
2, 112394, Note_off_c, 4, 76, 127
2, 112396, Note_on_c, 6, 78, 127
2, 112543, Note_off_c, 12, 59, 127
2, 112547, Note_off_c, 6, 78, 127
2, 112547, Note_off_c, 12, 47, 127
2, 112549, Note_on_c, 7, 79, 127
2, 112549, Note_on_c, 4, 52, 127
2, 112700, Note_off_c, 4, 52, 127
2, 112702, Note_on_c, 6, 54, 127
2, 112853, Note_off_c, 6, 54, 127
2, 112853, Note_off_c, 7, 79, 127
2, 112855, Note_on_c, 6, 78, 127
2, 112855, Note_on_c, 7, 55, 127
2, 113009, Note_on_c, 4, 52, 127
2, 113048, Note_off_c, 7, 55, 127
2, 113162, Note_off_c, 4, 52, 127
2, 113162, Note_off_c, 6, 78, 127
2, 113164, Note_on_c, 4, 76, 127
2, 113164, Note_on_c, 10, 57, 127
2, 113318, Note_on_c, 4, 52, 127
2, 113357, Note_off_c, 10, 57, 127
2, 113471, Note_off_c, 4, 52, 127
2, 113471, Note_off_c, 4, 76, 127
2, 113473, Note_on_c, 12, 71, 127
2, 113473, Note_on_c, 12, 59, 127
2, 113627, Note_on_c, 4, 52, 127
2, 113666, Note_off_c, 12, 59, 127
2, 113697, Note_off_c, 12, 71, 127
2, 113778, Note_off_c, 4, 52, 127
2, 113780, Note_on_c, 10, 81, 127
2, 113780, Note_on_c, 1, 61, 127
2, 113855, Note_off_c, 10, 81, 127
2, 113857, Note_on_c, 7, 79, 127
2, 113932, Note_off_c, 7, 79, 127
2, 113933, Note_off_c, 1, 61, 127
2, 113935, Note_on_c, 10, 81, 127
2, 113935, Note_on_c, 4, 52, 127
2, 114086, Note_off_c, 4, 52, 127
2, 114088, Note_on_c, 3, 63, 127
2, 114239, Note_off_c, 3, 63, 127
2, 114241, Note_on_c, 4, 52, 127
2, 114382, Note_off_c, 10, 81, 127
2, 114394, Note_off_c, 4, 52, 127
2, 114395, Note_on_c, 7, 79, 127
2, 114395, Note_on_c, 4, 64, 127
2, 114546, Note_off_c, 4, 64, 127
2, 114548, Note_on_c, 3, 63, 127
2, 114699, Note_off_c, 3, 63, 127
2, 114699, Note_off_c, 7, 79, 127
2, 114701, Note_on_c, 6, 78, 127
2, 114701, Note_on_c, 4, 64, 127
2, 114852, Note_off_c, 4, 64, 127
2, 114854, Note_on_c, 6, 66, 127
2, 115005, Note_off_c, 6, 66, 127
2, 115005, Note_off_c, 6, 78, 127
2, 115007, Note_on_c, 4, 76, 127
2, 115007, Note_on_c, 7, 67, 127
2, 115158, Note_off_c, 7, 67, 127
2, 115160, Note_on_c, 4, 64, 127
2, 115311, Note_off_c, 4, 64, 127
2, 115311, Note_off_c, 4, 76, 127
2, 115313, Note_on_c, 3, 75, 127
2, 115313, Note_on_c, 6, 66, 127
2, 115464, Note_off_c, 6, 66, 127
2, 115466, Note_on_c, 4, 64, 127
2, 115536, Note_off_c, 3, 75, 127
2, 115617, Note_off_c, 4, 64, 127
2, 115619, Note_on_c, 10, 81, 127
2, 115619, Note_on_c, 6, 66, 127
2, 115694, Note_off_c, 10, 81, 127
2, 115699, Note_on_c, 12, 83, 127
2, 115770, Note_off_c, 6, 66, 127
2, 115772, Note_on_c, 7, 67, 127
2, 115773, Note_off_c, 12, 83, 127
2, 115778, Note_on_c, 0, 84, 127
2, 115923, Note_off_c, 7, 67, 127
2, 115925, Note_on_c, 10, 69, 127
2, 116076, Note_off_c, 10, 69, 127
2, 116078, Note_on_c, 6, 66, 127
2, 116223, Note_off_c, 6, 66, 127
2, 116224, Note_off_c, 0, 84, 127
2, 116231, Note_on_c, 12, 83, 127
2, 116231, Note_on_c, 7, 67, 127
2, 116537, Note_off_c, 7, 67, 127
2, 116537, Note_off_c, 12, 83, 127
2, 116539, Note_on_c, 0, 84, 127
2, 116539, Note_on_c, 10, 69, 127
2, 116690, Note_off_c, 10, 69, 127
2, 116690, Note_off_c, 0, 84, 127
2, 116692, Note_on_c, 12, 83, 127
2, 116692, Note_on_c, 7, 67, 127
2, 116843, Note_off_c, 7, 67, 127
2, 116843, Note_off_c, 12, 83, 127
2, 116845, Note_on_c, 10, 81, 127
2, 116845, Note_on_c, 6, 66, 127
2, 116996, Note_off_c, 6, 66, 127
2, 116996, Note_off_c, 10, 81, 127
2, 116998, Note_on_c, 7, 79, 127
2, 116998, Note_on_c, 4, 64, 127
2, 117149, Note_off_c, 4, 64, 127
2, 117149, Note_off_c, 7, 79, 127
2, 117151, Note_on_c, 6, 78, 127
2, 117151, Note_on_c, 10, 69, 127
2, 117457, Note_off_c, 6, 78, 127
2, 117458, Note_on_c, 10, 81, 127
2, 117609, Note_off_c, 10, 81, 127
2, 117611, Note_on_c, 7, 79, 127
2, 117762, Note_off_c, 7, 79, 127
2, 117764, Note_on_c, 6, 78, 127
2, 117915, Note_off_c, 6, 78, 127
2, 117917, Note_on_c, 4, 76, 127
2, 118068, Note_off_c, 4, 76, 127
2, 118070, Note_on_c, 3, 75, 127
2, 118225, Note_on_c, 7, 67, 127
2, 118376, Note_off_c, 7, 67, 127
2, 118376, Note_off_c, 3, 75, 127
2, 118378, Note_on_c, 10, 81, 127
2, 118378, Note_on_c, 6, 66, 127
2, 118520, Note_off_c, 10, 69, 127
2, 118531, Note_off_c, 6, 66, 127
2, 118532, Note_on_c, 10, 69, 127
2, 118684, Note_off_c, 10, 81, 127
2, 118685, Note_on_c, 7, 79, 127
2, 118685, Note_on_c, 4, 64, 127
2, 118835, Note_off_c, 10, 69, 127
2, 118836, Note_off_c, 4, 64, 127
2, 118838, Note_on_c, 10, 69, 127
2, 118989, Note_off_c, 7, 79, 127
2, 118991, Note_on_c, 6, 78, 127
2, 118991, Note_on_c, 3, 63, 127
2, 119141, Note_off_c, 10, 69, 127
2, 119142, Note_off_c, 3, 63, 127
2, 119144, Note_on_c, 10, 69, 127
2, 119295, Note_off_c, 6, 78, 127
2, 119297, Note_on_c, 4, 76, 127
2, 119297, Note_on_c, 1, 61, 127
2, 119447, Note_off_c, 10, 69, 127
2, 119448, Note_off_c, 1, 61, 127
2, 119450, Note_on_c, 10, 69, 127
2, 119601, Note_off_c, 4, 76, 127
2, 119603, Note_on_c, 3, 75, 127
2, 119603, Note_on_c, 12, 59, 127
2, 119753, Note_off_c, 10, 69, 127
2, 119756, Note_on_c, 10, 69, 127
2, 119794, Note_off_c, 12, 59, 127
2, 119909, Note_off_c, 10, 69, 127
2, 119909, Note_off_c, 3, 75, 127
2, 119911, Note_on_c, 4, 76, 127
2, 119911, Note_on_c, 7, 67, 127
2, 120217, Note_off_c, 7, 67, 127
2, 120217, Note_off_c, 4, 76, 127
2, 120218, Note_on_c, 2, 74, 127
2, 120218, Note_on_c, 6, 66, 127
2, 120369, Note_off_c, 6, 66, 127
2, 120371, Note_on_c, 7, 67, 127
2, 120522, Note_off_c, 7, 67, 127
2, 120522, Note_off_c, 2, 74, 127
2, 120524, Note_on_c, 0, 72, 127
2, 120524, Note_on_c, 10, 69, 127
2, 120675, Note_off_c, 10, 69, 127
2, 120677, Note_on_c, 7, 67, 127
2, 120828, Note_off_c, 7, 67, 127
2, 120828, Note_off_c, 0, 72, 127
2, 120830, Note_on_c, 2, 74, 127
2, 120830, Note_on_c, 6, 66, 127
2, 121136, Note_off_c, 6, 66, 127
2, 121136, Note_off_c, 2, 74, 127
2, 121138, Note_on_c, 0, 72, 127
2, 121138, Note_on_c, 4, 64, 127
2, 121289, Note_off_c, 4, 64, 127
2, 121291, Note_on_c, 6, 66, 127
2, 121442, Note_off_c, 6, 66, 127
2, 121442, Note_off_c, 0, 72, 127
2, 121444, Note_on_c, 12, 71, 127
2, 121444, Note_on_c, 7, 67, 127
2, 121595, Note_off_c, 7, 67, 127
2, 121597, Note_on_c, 6, 66, 127
2, 121748, Note_off_c, 6, 66, 127
2, 121748, Note_off_c, 12, 71, 127
2, 121750, Note_on_c, 0, 72, 127
2, 121750, Note_on_c, 4, 64, 127
2, 121904, Note_on_c, 0, 84, 127
2, 122054, Note_off_c, 0, 72, 127
2, 122055, Note_off_c, 0, 84, 127
2, 122056, Note_off_c, 4, 64, 127
2, 122057, Note_on_c, 12, 83, 127
2, 122057, Note_on_c, 6, 66, 127
2, 122208, Note_off_c, 12, 83, 127
2, 122210, Note_on_c, 10, 81, 127
2, 122361, Note_off_c, 10, 81, 127
2, 122361, Note_off_c, 6, 66, 127
2, 122363, Note_on_c, 7, 79, 127
2, 122363, Note_on_c, 7, 67, 127
2, 122514, Note_off_c, 7, 79, 127
2, 122516, Note_on_c, 12, 83, 127
2, 122667, Note_off_c, 12, 83, 127
2, 122667, Note_off_c, 7, 67, 127
2, 122669, Note_on_c, 10, 81, 127
2, 122669, Note_on_c, 0, 72, 127
2, 122820, Note_off_c, 10, 81, 127
2, 122822, Note_on_c, 12, 83, 127
2, 122907, Note_off_c, 0, 72, 127
2, 122973, Note_off_c, 12, 83, 127
2, 122975, Note_on_c, 10, 81, 127
2, 122975, Note_on_c, 3, 63, 127
2, 123126, Note_off_c, 10, 81, 127
2, 123128, Note_on_c, 7, 79, 127
2, 123279, Note_off_c, 7, 79, 127
2, 123281, Note_on_c, 6, 78, 127
2, 123432, Note_off_c, 6, 78, 127
2, 123434, Note_on_c, 10, 81, 127
2, 123535, Note_off_c, 3, 63, 127
2, 123585, Note_off_c, 10, 81, 127
2, 123587, Note_on_c, 7, 79, 127
2, 123587, Note_on_c, 4, 64, 127
2, 123738, Note_off_c, 7, 79, 127
2, 123740, Note_on_c, 10, 81, 127
2, 123891, Note_off_c, 10, 81, 127
2, 123891, Note_off_c, 4, 64, 127
2, 123893, Note_on_c, 7, 79, 127
2, 123893, Note_on_c, 6, 66, 127
2, 124044, Note_off_c, 7, 79, 127
2, 124046, Note_on_c, 6, 78, 127
2, 124197, Note_off_c, 6, 78, 127
2, 124197, Note_off_c, 6, 66, 127
2, 124199, Note_on_c, 4, 76, 127
2, 124199, Note_on_c, 7, 67, 127
2, 124350, Note_off_c, 4, 76, 127
2, 124352, Note_on_c, 7, 79, 127
2, 124503, Note_off_c, 7, 79, 127
2, 124503, Note_off_c, 7, 67, 127
2, 124505, Note_on_c, 6, 78, 127
2, 124505, Note_on_c, 10, 69, 127
2, 124656, Note_off_c, 6, 78, 127
2, 124658, Note_on_c, 7, 79, 127
2, 124743, Note_off_c, 10, 69, 127
2, 124809, Note_off_c, 7, 79, 127
2, 124811, Note_on_c, 6, 78, 127
2, 124811, Note_on_c, 12, 59, 127
2, 124962, Note_off_c, 6, 78, 127
2, 124964, Note_on_c, 4, 76, 127
2, 125115, Note_off_c, 4, 76, 127
2, 125117, Note_on_c, 3, 75, 127
2, 125268, Note_off_c, 3, 75, 127
2, 125270, Note_on_c, 6, 78, 127
2, 125421, Note_off_c, 6, 78, 127
2, 125421, Note_off_c, 12, 59, 127
2, 125423, Note_on_c, 4, 76, 127
2, 125423, Note_on_c, 0, 60, 127
2, 125574, Note_off_c, 0, 60, 127
2, 125576, Note_on_c, 12, 59, 127
2, 125727, Note_off_c, 12, 59, 127
2, 125727, Note_off_c, 4, 76, 127
2, 125729, Note_on_c, 6, 78, 127
2, 125729, Note_on_c, 10, 57, 127
2, 125880, Note_off_c, 10, 57, 127
2, 125880, Note_off_c, 6, 78, 127
2, 125882, Note_on_c, 7, 79, 127
2, 125882, Note_on_c, 12, 59, 127
2, 126033, Note_off_c, 12, 59, 127
2, 126033, Note_off_c, 7, 79, 127
2, 126035, Note_on_c, 10, 81, 127
2, 126035, Note_on_c, 1, 61, 127
2, 126186, Note_off_c, 1, 61, 127
2, 126188, Note_on_c, 3, 63, 127
2, 126339, Note_off_c, 3, 63, 127
2, 126341, Note_on_c, 4, 64, 127
2, 126492, Note_off_c, 4, 64, 127
2, 126494, Note_on_c, 3, 63, 127
2, 126576, Note_off_c, 10, 81, 127
2, 126645, Note_off_c, 3, 63, 127
2, 126647, Note_on_c, 7, 79, 127
2, 126647, Note_on_c, 4, 64, 127
2, 126798, Note_off_c, 4, 64, 127
2, 126798, Note_off_c, 7, 79, 127
2, 126800, Note_on_c, 10, 81, 127
2, 126800, Note_on_c, 6, 66, 127
2, 126951, Note_off_c, 6, 66, 127
2, 126951, Note_off_c, 10, 81, 127
2, 126953, Note_on_c, 12, 83, 127
2, 126953, Note_on_c, 7, 67, 127
2, 127104, Note_off_c, 7, 67, 127
2, 127106, Note_on_c, 10, 69, 127
2, 127257, Note_off_c, 10, 69, 127
2, 127259, Note_on_c, 12, 71, 127
2, 127414, Note_on_c, 12, 47, 127
2, 127489, Note_off_c, 12, 47, 127
2, 127491, Note_on_c, 1, 49, 127
2, 127566, Note_off_c, 1, 49, 127
2, 127566, Note_off_c, 12, 83, 127
2, 127568, Note_on_c, 10, 81, 127
2, 127568, Note_on_c, 3, 51, 127
2, 127719, Note_off_c, 3, 51, 127
2, 127721, Note_on_c, 12, 47, 127
2, 127872, Note_off_c, 12, 47, 127
2, 127872, Note_off_c, 10, 81, 127
2, 127874, Note_on_c, 7, 79, 127
2, 127874, Note_on_c, 4, 52, 127
2, 128025, Note_off_c, 4, 52, 127
2, 128027, Note_on_c, 12, 47, 127
2, 128178, Note_off_c, 12, 47, 127
2, 128178, Note_off_c, 7, 79, 127
2, 128180, Note_on_c, 6, 78, 127
2, 128180, Note_on_c, 6, 54, 127
2, 128331, Note_off_c, 6, 54, 127
2, 128331, Note_off_c, 6, 78, 127
2, 128333, Note_on_c, 7, 79, 127
2, 128333, Note_on_c, 12, 47, 127
2, 128484, Note_off_c, 12, 47, 127
2, 128484, Note_off_c, 7, 79, 127
2, 128484, Note_off_c, 12, 71, 127
2, 128486, Note_on_c, 10, 81, 127
2, 128486, Note_on_c, 0, 72, 127
2, 128486, Note_on_c, 7, 55, 127
2, 128637, Note_off_c, 7, 55, 127
2, 128639, Note_on_c, 12, 47, 127
2, 128790, Note_off_c, 12, 47, 127
2, 128790, Note_off_c, 0, 72, 127
2, 128790, Note_off_c, 10, 81, 127
2, 128792, Note_on_c, 3, 75, 127
2, 128792, Note_on_c, 6, 66, 127
2, 128792, Note_on_c, 10, 57, 127
2, 128943, Note_off_c, 10, 57, 127
2, 128945, Note_on_c, 12, 47, 127
2, 129096, Note_off_c, 12, 47, 127
2, 129096, Note_off_c, 6, 66, 127
2, 129096, Note_off_c, 3, 75, 127
2, 129098, Note_on_c, 4, 76, 127
2, 129098, Note_on_c, 4, 64, 127
2, 129098, Note_on_c, 7, 55, 127
2, 129249, Note_off_c, 7, 55, 127
2, 129249, Note_off_c, 4, 64, 127
2, 129251, Note_on_c, 6, 66, 127
2, 129251, Note_on_c, 6, 54, 127
2, 129402, Note_off_c, 6, 54, 127
2, 129402, Note_off_c, 6, 66, 127
2, 129404, Note_on_c, 7, 67, 127
2, 129404, Note_on_c, 4, 52, 127
2, 129559, Note_on_c, 7, 55, 127
2, 129597, Note_off_c, 4, 52, 127
2, 129711, Note_off_c, 4, 76, 127
2, 129712, Note_off_c, 7, 55, 127
2, 129713, Note_on_c, 12, 71, 127
2, 129713, Note_on_c, 2, 50, 127
2, 129868, Note_on_c, 7, 55, 127
2, 129906, Note_off_c, 2, 50, 127
2, 130020, Note_off_c, 12, 71, 127
2, 130021, Note_off_c, 7, 55, 127
2, 130022, Note_on_c, 10, 69, 127
2, 130022, Note_on_c, 1, 49, 127
2, 130173, Note_off_c, 7, 67, 127
2, 130175, Note_on_c, 6, 66, 127
2, 130175, Note_on_c, 7, 55, 127
2, 130213, Note_off_c, 1, 49, 127
2, 130328, Note_off_c, 7, 55, 127
2, 130328, Note_off_c, 6, 66, 127
2, 130330, Note_on_c, 4, 64, 127
2, 130330, Note_on_c, 12, 47, 127
2, 130481, Note_off_c, 4, 64, 127
2, 130483, Note_on_c, 2, 62, 127
2, 130483, Note_on_c, 7, 55, 127
2, 130521, Note_off_c, 12, 47, 127
2, 130636, Note_off_c, 7, 55, 127
2, 130636, Note_off_c, 2, 62, 127
2, 130637, Note_on_c, 1, 61, 127
2, 130637, Note_on_c, 10, 45, 127
2, 130788, Note_off_c, 1, 61, 127
2, 130790, Note_on_c, 4, 64, 127
2, 130790, Note_on_c, 7, 55, 127
2, 130812, Note_off_c, 10, 45, 127
2, 130943, Note_off_c, 7, 55, 127
2, 130943, Note_off_c, 4, 64, 127
2, 130945, Note_on_c, 2, 62, 127
2, 130945, Note_on_c, 6, 54, 127
2, 131096, Note_off_c, 6, 54, 127
2, 131096, Note_off_c, 2, 62, 127
2, 131098, Note_on_c, 4, 64, 127
2, 131098, Note_on_c, 4, 52, 127
2, 131248, Note_off_c, 10, 69, 127
2, 131249, Note_off_c, 4, 52, 127
2, 131249, Note_off_c, 4, 64, 127
2, 131251, Note_on_c, 6, 66, 127
2, 131251, Note_on_c, 2, 50, 127
2, 131405, Note_on_c, 6, 54, 127
2, 131459, Note_off_c, 2, 50, 127
2, 131556, Note_off_c, 6, 54, 127
2, 131558, Note_on_c, 10, 69, 127
2, 131558, Note_on_c, 1, 49, 127
2, 131712, Note_on_c, 6, 54, 127
2, 131766, Note_off_c, 1, 49, 127
2, 131863, Note_off_c, 6, 54, 127
2, 131864, Note_off_c, 10, 69, 127
2, 131865, Note_on_c, 7, 67, 127
2, 131865, Note_on_c, 12, 47, 127
2, 132017, Note_off_c, 6, 66, 127
2, 132018, Note_on_c, 4, 64, 127
2, 132018, Note_on_c, 6, 54, 127
2, 132072, Note_off_c, 12, 47, 127
2, 132169, Note_off_c, 6, 54, 127
2, 132169, Note_off_c, 4, 64, 127
2, 132171, Note_on_c, 2, 62, 127
2, 132171, Note_on_c, 10, 45, 127
2, 132322, Note_off_c, 2, 62, 127
2, 132324, Note_on_c, 1, 61, 127
2, 132324, Note_on_c, 6, 54, 127
2, 132378, Note_off_c, 10, 45, 127
2, 132475, Note_off_c, 6, 54, 127
2, 132475, Note_off_c, 1, 61, 127
2, 132477, Note_on_c, 12, 59, 127
2, 132477, Note_on_c, 7, 43, 127
2, 132628, Note_off_c, 12, 59, 127
2, 132630, Note_on_c, 2, 62, 127
2, 132630, Note_on_c, 6, 54, 127
2, 132652, Note_off_c, 7, 43, 127
2, 132783, Note_off_c, 6, 54, 127
2, 132783, Note_off_c, 2, 62, 127
2, 132785, Note_on_c, 1, 61, 127
2, 132785, Note_on_c, 4, 52, 127
2, 132936, Note_off_c, 4, 52, 127
2, 132936, Note_off_c, 1, 61, 127
2, 132938, Note_on_c, 2, 62, 127
2, 132938, Note_on_c, 2, 50, 127
2, 133089, Note_off_c, 2, 50, 127
2, 133089, Note_off_c, 2, 62, 127
2, 133089, Note_off_c, 7, 67, 127
2, 133091, Note_on_c, 4, 64, 127
2, 133091, Note_on_c, 1, 49, 127
2, 133245, Note_on_c, 4, 52, 127
2, 133315, Note_off_c, 1, 49, 127
2, 133396, Note_off_c, 4, 52, 127
2, 133398, Note_on_c, 7, 67, 127
2, 133398, Note_on_c, 12, 47, 127
2, 133553, Note_on_c, 4, 52, 127
2, 133622, Note_off_c, 12, 47, 127
2, 133704, Note_off_c, 4, 52, 127
2, 133704, Note_off_c, 7, 67, 127
2, 133706, Note_on_c, 6, 66, 127
2, 133706, Note_on_c, 11, 46, 127
2, 133850, Note_off_c, 4, 64, 127
2, 133860, Note_on_c, 2, 62, 127
2, 133860, Note_on_c, 4, 52, 127
2, 133930, Note_off_c, 11, 46, 127
2, 134011, Note_off_c, 4, 52, 127
2, 134011, Note_off_c, 2, 62, 127
2, 134013, Note_on_c, 1, 61, 127
2, 134013, Note_on_c, 8, 44, 127
2, 134164, Note_off_c, 1, 61, 127
2, 134166, Note_on_c, 12, 59, 127
2, 134166, Note_on_c, 4, 52, 127
2, 134220, Note_off_c, 8, 44, 127
2, 134317, Note_off_c, 4, 52, 127
2, 134317, Note_off_c, 12, 59, 127
2, 134319, Note_on_c, 11, 58, 127
2, 134319, Note_on_c, 6, 42, 127
2, 134470, Note_off_c, 11, 58, 127
2, 134472, Note_on_c, 1, 61, 127
2, 134472, Note_on_c, 4, 52, 127
2, 134494, Note_off_c, 6, 42, 127
2, 134625, Note_off_c, 4, 52, 127
2, 134625, Note_off_c, 1, 61, 127
2, 134627, Note_on_c, 12, 59, 127
2, 134627, Note_on_c, 2, 50, 127
2, 134778, Note_off_c, 2, 50, 127
2, 134778, Note_off_c, 6, 66, 127
2, 134780, Note_on_c, 12, 71, 127
2, 134780, Note_on_c, 6, 54, 127
2, 134930, Note_off_c, 12, 59, 127
2, 134931, Note_off_c, 6, 54, 127
2, 134931, Note_off_c, 12, 71, 127
2, 134933, Note_on_c, 1, 73, 127
2, 134933, Note_on_c, 4, 52, 127
2, 135084, Note_off_c, 4, 52, 127
2, 135084, Note_off_c, 1, 73, 127
2, 135086, Note_on_c, 12, 71, 127
2, 135086, Note_on_c, 2, 50, 127
2, 135237, Note_off_c, 2, 50, 127
2, 135237, Note_off_c, 12, 71, 127
2, 135239, Note_on_c, 11, 70, 127
2, 135239, Note_on_c, 1, 49, 127
2, 135390, Note_off_c, 1, 49, 127
2, 135390, Note_off_c, 11, 70, 127
2, 135392, Note_on_c, 12, 71, 127
2, 135392, Note_on_c, 12, 47, 127
2, 135543, Note_off_c, 12, 47, 127
2, 135543, Note_off_c, 12, 71, 127
2, 135545, Note_on_c, 1, 73, 127
2, 135545, Note_on_c, 11, 46, 127
2, 135696, Note_off_c, 11, 46, 127
2, 135698, Note_on_c, 1, 49, 127
2, 135849, Note_off_c, 1, 49, 127
2, 135849, Note_off_c, 1, 73, 127
2, 135851, Note_on_c, 2, 74, 127
2, 135851, Note_on_c, 12, 47, 127
2, 136002, Note_off_c, 12, 47, 127
2, 136002, Note_off_c, 2, 74, 127
2, 136004, Note_on_c, 1, 73, 127
2, 136004, Note_on_c, 11, 46, 127
2, 136155, Note_off_c, 11, 46, 127
2, 136155, Note_off_c, 1, 73, 127
2, 136157, Note_on_c, 12, 71, 127
2, 136157, Note_on_c, 8, 44, 127
2, 136308, Note_off_c, 8, 44, 127
2, 136308, Note_off_c, 12, 71, 127
2, 136310, Note_on_c, 1, 73, 127
2, 136310, Note_on_c, 6, 42, 127
2, 136461, Note_off_c, 6, 42, 127
2, 136461, Note_off_c, 1, 73, 127
2, 136463, Note_on_c, 2, 74, 127
2, 136463, Note_on_c, 12, 47, 127
2, 136769, Note_off_c, 12, 47, 127
2, 136769, Note_off_c, 2, 74, 127
2, 136770, Note_on_c, 1, 73, 127
2, 136770, Note_on_c, 1, 49, 127
2, 136921, Note_off_c, 1, 49, 127
2, 136923, Note_on_c, 12, 47, 127
2, 137074, Note_off_c, 12, 47, 127
2, 137074, Note_off_c, 1, 73, 127
2, 137076, Note_on_c, 12, 71, 127
2, 137076, Note_on_c, 11, 46, 127
2, 137227, Note_off_c, 11, 46, 127
2, 137229, Note_on_c, 12, 47, 127
2, 137380, Note_off_c, 12, 47, 127
2, 137380, Note_off_c, 12, 71, 127
2, 137382, Note_on_c, 11, 70, 127
2, 137382, Note_on_c, 1, 49, 127
2, 137622, Note_off_c, 11, 70, 127
2, 137688, Note_off_c, 1, 49, 127
2, 137690, Note_on_c, 7, 79, 127
2, 137690, Note_on_c, 2, 50, 127
2, 137841, Note_off_c, 2, 50, 127
2, 137843, Note_on_c, 1, 49, 127
2, 137994, Note_off_c, 1, 49, 127
2, 137996, Note_on_c, 12, 47, 127
2, 138147, Note_off_c, 12, 47, 127
2, 138149, Note_on_c, 1, 49, 127
2, 138300, Note_off_c, 1, 49, 127
2, 138300, Note_off_c, 7, 79, 127
2, 138302, Note_on_c, 6, 78, 127
2, 138302, Note_on_c, 2, 50, 127
2, 138608, Note_off_c, 2, 50, 127
2, 138608, Note_off_c, 6, 78, 127
2, 138609, Note_on_c, 7, 79, 127
2, 138609, Note_on_c, 1, 49, 127
2, 138760, Note_off_c, 7, 79, 127
2, 138762, Note_on_c, 6, 78, 127
2, 138913, Note_off_c, 6, 78, 127
2, 138913, Note_off_c, 1, 49, 127
2, 138915, Note_on_c, 4, 76, 127
2, 138915, Note_on_c, 12, 47, 127
2, 139066, Note_off_c, 4, 76, 127
2, 139068, Note_on_c, 2, 74, 127
2, 139219, Note_off_c, 2, 74, 127
2, 139219, Note_off_c, 12, 47, 127
2, 139221, Note_on_c, 1, 73, 127
2, 139221, Note_on_c, 11, 46, 127
2, 139492, Note_off_c, 11, 46, 127
2, 139527, Note_off_c, 1, 73, 127
2, 139529, Note_on_c, 4, 76, 127
2, 139529, Note_on_c, 7, 55, 127
2, 139680, Note_off_c, 4, 76, 127
2, 139682, Note_on_c, 2, 74, 127
2, 139833, Note_off_c, 2, 74, 127
2, 139835, Note_on_c, 1, 73, 127
2, 139986, Note_off_c, 1, 73, 127
2, 139988, Note_on_c, 12, 71, 127
2, 140139, Note_off_c, 12, 71, 127
2, 140139, Note_off_c, 7, 55, 127
2, 140141, Note_on_c, 11, 70, 127
2, 140141, Note_on_c, 6, 54, 127
2, 140292, Note_off_c, 6, 54, 127
2, 140292, Note_off_c, 11, 70, 127
2, 140294, Note_on_c, 12, 71, 127
2, 140294, Note_on_c, 8, 56, 127
2, 140445, Note_off_c, 8, 56, 127
2, 140445, Note_off_c, 12, 71, 127
2, 140447, Note_on_c, 1, 73, 127
2, 140447, Note_on_c, 11, 58, 127
2, 140601, Note_on_c, 11, 70, 127
2, 140601, Note_on_c, 6, 54, 127
2, 140640, Note_off_c, 11, 58, 127
2, 140751, Note_off_c, 1, 73, 127
2, 140752, Note_off_c, 6, 54, 127
2, 140754, Note_on_c, 2, 74, 127
2, 140754, Note_on_c, 12, 59, 127
2, 140792, Note_off_c, 11, 70, 127
2, 140909, Note_on_c, 11, 70, 127
2, 140909, Note_on_c, 6, 54, 127
2, 140947, Note_off_c, 12, 59, 127
2, 141058, Note_off_c, 2, 74, 127
2, 141060, Note_off_c, 6, 54, 127
2, 141062, Note_on_c, 4, 76, 127
2, 141062, Note_on_c, 1, 61, 127
2, 141100, Note_off_c, 11, 70, 127
2, 141216, Note_on_c, 11, 70, 127
2, 141216, Note_on_c, 6, 54, 127
2, 141255, Note_off_c, 1, 61, 127
2, 141366, Note_off_c, 4, 76, 127
2, 141367, Note_off_c, 6, 54, 127
2, 141369, Note_on_c, 6, 78, 127
2, 141369, Note_on_c, 2, 62, 127
2, 141407, Note_off_c, 11, 70, 127
2, 141524, Note_on_c, 11, 70, 127
2, 141524, Note_on_c, 6, 54, 127
2, 141562, Note_off_c, 2, 62, 127
2, 141673, Note_off_c, 6, 78, 127
2, 141675, Note_off_c, 6, 54, 127
2, 141677, Note_on_c, 7, 79, 127
2, 141677, Note_on_c, 4, 64, 127
2, 141715, Note_off_c, 11, 70, 127
2, 141831, Note_on_c, 11, 70, 127
2, 141831, Note_on_c, 6, 54, 127
2, 141870, Note_off_c, 4, 64, 127
2, 141981, Note_off_c, 7, 79, 127
2, 141982, Note_off_c, 6, 54, 127
2, 141984, Note_on_c, 6, 78, 127
2, 141984, Note_on_c, 2, 62, 127
2, 142134, Note_off_c, 11, 70, 127
2, 142135, Note_off_c, 2, 62, 127
2, 142137, Note_on_c, 11, 70, 127
2, 142137, Note_on_c, 6, 54, 127
2, 142288, Note_off_c, 6, 54, 127
2, 142288, Note_off_c, 11, 70, 127
2, 142290, Note_on_c, 12, 71, 127
2, 142290, Note_on_c, 7, 55, 127
2, 142431, Note_off_c, 6, 78, 127
2, 142443, Note_off_c, 7, 55, 127
2, 142445, Note_on_c, 6, 78, 127
2, 142445, Note_on_c, 2, 62, 127
2, 142594, Note_off_c, 12, 71, 127
2, 142596, Note_off_c, 2, 62, 127
2, 142596, Note_off_c, 6, 78, 127
2, 142598, Note_on_c, 4, 76, 127
2, 142598, Note_on_c, 1, 61, 127
2, 142673, Note_off_c, 1, 61, 127
2, 142673, Note_off_c, 4, 76, 127
2, 142675, Note_on_c, 2, 74, 127
2, 142675, Note_on_c, 12, 59, 127
2, 142750, Note_off_c, 12, 59, 127
2, 142750, Note_off_c, 2, 74, 127
2, 142752, Note_on_c, 1, 73, 127
2, 142752, Note_on_c, 11, 58, 127
2, 142827, Note_off_c, 11, 58, 127
2, 142827, Note_off_c, 1, 73, 127
2, 142829, Note_on_c, 2, 74, 127
2, 142829, Note_on_c, 12, 59, 127
2, 142904, Note_off_c, 12, 59, 127
2, 142904, Note_off_c, 2, 74, 127
2, 142906, Note_on_c, 4, 76, 127
2, 142906, Note_on_c, 1, 61, 127
2, 143057, Note_off_c, 1, 61, 127
2, 143059, Note_on_c, 8, 68, 127
2, 143059, Note_on_c, 4, 52, 127
2, 143210, Note_off_c, 4, 52, 127
2, 143210, Note_off_c, 8, 68, 127
2, 143212, Note_on_c, 11, 70, 127
2, 143212, Note_on_c, 6, 54, 127
2, 143353, Note_off_c, 4, 76, 127
2, 143365, Note_off_c, 6, 54, 127
2, 143367, Note_on_c, 4, 76, 127
2, 143367, Note_on_c, 1, 61, 127
2, 143516, Note_off_c, 11, 70, 127
2, 143518, Note_off_c, 1, 61, 127
2, 143518, Note_off_c, 4, 76, 127
2, 143520, Note_on_c, 2, 74, 127
2, 143520, Note_on_c, 12, 59, 127
2, 143595, Note_off_c, 12, 59, 127
2, 143595, Note_off_c, 2, 74, 127
2, 143597, Note_on_c, 1, 73, 127
2, 143597, Note_on_c, 11, 58, 127
2, 143672, Note_off_c, 11, 58, 127
2, 143672, Note_off_c, 1, 73, 127
2, 143674, Note_on_c, 12, 71, 127
2, 143674, Note_on_c, 8, 56, 127
2, 143749, Note_off_c, 8, 56, 127
2, 143749, Note_off_c, 12, 71, 127
2, 143752, Note_on_c, 1, 73, 127
2, 143752, Note_on_c, 11, 58, 127
2, 143827, Note_off_c, 11, 58, 127
2, 143827, Note_off_c, 1, 73, 127
2, 143829, Note_on_c, 2, 74, 127
2, 143829, Note_on_c, 12, 59, 127
2, 143980, Note_off_c, 12, 59, 127
2, 143982, Note_on_c, 1, 61, 127
2, 144133, Note_off_c, 1, 61, 127
2, 144135, Note_on_c, 2, 62, 127
2, 144289, Note_on_c, 12, 59, 127
2, 144439, Note_off_c, 2, 62, 127
2, 144440, Note_off_c, 12, 59, 127
2, 144442, Note_on_c, 4, 64, 127
2, 144597, Note_on_c, 12, 59, 127
2, 144746, Note_off_c, 4, 64, 127
2, 144748, Note_off_c, 12, 59, 127
2, 144750, Note_on_c, 6, 66, 127
2, 144904, Note_on_c, 12, 59, 127
2, 145054, Note_off_c, 6, 66, 127
2, 145055, Note_off_c, 12, 59, 127
2, 145057, Note_on_c, 8, 68, 127
2, 145212, Note_on_c, 12, 59, 127
2, 145361, Note_off_c, 8, 68, 127
2, 145363, Note_off_c, 12, 59, 127
2, 145365, Note_on_c, 10, 69, 127
2, 145365, Note_on_c, 12, 47, 127
2, 145519, Note_on_c, 12, 59, 127
2, 145669, Note_off_c, 10, 69, 127
2, 145670, Note_off_c, 12, 59, 127
2, 145671, Note_off_c, 12, 47, 127
2, 145672, Note_on_c, 8, 68, 127
2, 145672, Note_on_c, 4, 52, 127
2, 145823, Note_off_c, 4, 52, 127
2, 145825, Note_on_c, 6, 54, 127
2, 145976, Note_off_c, 6, 54, 127
2, 145976, Note_off_c, 8, 68, 127
2, 145978, Note_on_c, 4, 64, 127
2, 145978, Note_on_c, 8, 56, 127
2, 146133, Note_on_c, 4, 52, 127
2, 146186, Note_off_c, 8, 56, 127
2, 146284, Note_off_c, 4, 52, 127
2, 146284, Note_off_c, 4, 64, 127
2, 146286, Note_on_c, 6, 66, 127
2, 146286, Note_on_c, 10, 57, 127
2, 146440, Note_on_c, 4, 52, 127
2, 146494, Note_off_c, 10, 57, 127
2, 146591, Note_off_c, 4, 52, 127
2, 146592, Note_off_c, 6, 66, 127
2, 146593, Note_on_c, 8, 68, 127
2, 146593, Note_on_c, 12, 59, 127
2, 146747, Note_on_c, 4, 52, 127
2, 146801, Note_off_c, 12, 59, 127
2, 146898, Note_off_c, 4, 52, 127
2, 146899, Note_off_c, 8, 68, 127
2, 146900, Note_on_c, 10, 69, 127
2, 146900, Note_on_c, 1, 61, 127
2, 147055, Note_on_c, 4, 52, 127
2, 147093, Note_off_c, 1, 61, 127
2, 147207, Note_off_c, 10, 69, 127
2, 147208, Note_off_c, 4, 52, 127
2, 147209, Note_on_c, 12, 71, 127
2, 147209, Note_on_c, 2, 62, 127
2, 147364, Note_on_c, 4, 52, 127
2, 147386, Note_off_c, 2, 62, 127
2, 147517, Note_off_c, 4, 52, 127
2, 147518, Note_on_c, 4, 64, 127
2, 147518, Note_on_c, 1, 61, 127
2, 147659, Note_off_c, 12, 71, 127
2, 147663, Note_on_c, 6, 66, 127
2, 147671, Note_off_c, 2, 74, 127
2, 147738, Note_off_c, 6, 66, 127
2, 147744, Note_on_c, 8, 68, 127
2, 147819, Note_off_c, 8, 68, 127
2, 147826, Note_on_c, 10, 69, 127
2, 147977, Note_off_c, 1, 61, 127
2, 147977, Note_off_c, 4, 64, 127
2, 147979, Note_on_c, 4, 64, 127
2, 147979, Note_on_c, 2, 62, 127
2, 148129, Note_off_c, 10, 69, 127
2, 148130, Note_off_c, 2, 62, 127
2, 148130, Note_off_c, 4, 64, 127
2, 148132, Note_on_c, 12, 71, 127
2, 148132, Note_on_c, 1, 61, 127
2, 148283, Note_off_c, 1, 61, 127
2, 148285, Note_on_c, 4, 64, 127
2, 148285, Note_on_c, 12, 59, 127
2, 148435, Note_off_c, 12, 71, 127
2, 148436, Note_off_c, 12, 59, 127
2, 148436, Note_off_c, 4, 64, 127
2, 148438, Note_on_c, 1, 73, 127
2, 148438, Note_on_c, 10, 57, 127
2, 148589, Note_off_c, 10, 57, 127
2, 148591, Note_on_c, 4, 64, 127
2, 148591, Note_on_c, 12, 59, 127
2, 148741, Note_off_c, 1, 73, 127
2, 148742, Note_off_c, 12, 59, 127
2, 148742, Note_off_c, 4, 64, 127
2, 148744, Note_on_c, 2, 74, 127
2, 148744, Note_on_c, 10, 57, 127
2, 148895, Note_off_c, 10, 57, 127
2, 148897, Note_on_c, 6, 66, 127
2, 148897, Note_on_c, 7, 55, 127
2, 149015, Note_off_c, 2, 74, 127
2, 149050, Note_off_c, 7, 55, 127
2, 149051, Note_on_c, 4, 76, 127
2, 149051, Note_on_c, 6, 54, 127
2, 149051, Note_on_c, 1, 49, 127
2, 149090, Note_off_c, 6, 66, 127
2, 149204, Note_off_c, 6, 54, 127
2, 149206, Note_on_c, 7, 67, 127
2, 149206, Note_on_c, 4, 52, 127
2, 149291, Note_off_c, 4, 76, 127
2, 149357, Note_off_c, 4, 52, 127
2, 149357, Note_off_c, 7, 67, 127
2, 149357, Note_off_c, 1, 49, 127
2, 149359, Note_on_c, 6, 66, 127
2, 149359, Note_on_c, 2, 50, 127
2, 149510, Note_off_c, 6, 66, 127
2, 149512, Note_on_c, 7, 67, 127
2, 149587, Note_off_c, 7, 67, 127
2, 149589, Note_on_c, 10, 69, 127
2, 149664, Note_off_c, 10, 69, 127
2, 149666, Note_on_c, 12, 71, 127
2, 149818, Note_off_c, 2, 50, 127
2, 149819, Note_on_c, 6, 66, 127
2, 149819, Note_on_c, 4, 52, 127
2, 149969, Note_off_c, 12, 71, 127
2, 149970, Note_off_c, 4, 52, 127
2, 149970, Note_off_c, 6, 66, 127
2, 149972, Note_on_c, 1, 73, 127
2, 149972, Note_on_c, 2, 50, 127
2, 150123, Note_off_c, 2, 50, 127
2, 150125, Note_on_c, 6, 66, 127
2, 150125, Note_on_c, 1, 49, 127
2, 150275, Note_off_c, 1, 73, 127
2, 150276, Note_off_c, 1, 49, 127
2, 150276, Note_off_c, 6, 66, 127
2, 150278, Note_on_c, 2, 74, 127
2, 150278, Note_on_c, 12, 47, 127
2, 150429, Note_off_c, 12, 47, 127
2, 150431, Note_on_c, 6, 66, 127
2, 150431, Note_on_c, 1, 49, 127
2, 150581, Note_off_c, 2, 74, 127
2, 150582, Note_off_c, 1, 49, 127
2, 150582, Note_off_c, 6, 66, 127
2, 150584, Note_on_c, 4, 76, 127
2, 150584, Note_on_c, 12, 47, 127
2, 150735, Note_off_c, 12, 47, 127
2, 150737, Note_on_c, 7, 67, 127
2, 150737, Note_on_c, 10, 45, 127
2, 150887, Note_off_c, 4, 76, 127
2, 150888, Note_off_c, 10, 45, 127
2, 150890, Note_on_c, 6, 78, 127
2, 150890, Note_on_c, 7, 43, 127
2, 150928, Note_off_c, 7, 67, 127
2, 151043, Note_off_c, 7, 43, 127
2, 151043, Note_off_c, 6, 78, 127
2, 151045, Note_on_c, 10, 69, 127
2, 151045, Note_on_c, 6, 42, 127
2, 151196, Note_off_c, 6, 42, 127
2, 151196, Note_off_c, 10, 69, 127
2, 151198, Note_on_c, 7, 67, 127
2, 151198, Note_on_c, 4, 40, 127
2, 151349, Note_off_c, 7, 67, 127
2, 151351, Note_on_c, 6, 66, 127
2, 151502, Note_off_c, 6, 66, 127
2, 151502, Note_off_c, 4, 40, 127
2, 151504, Note_on_c, 7, 67, 127
2, 151504, Note_on_c, 2, 50, 127
2, 151658, Note_on_c, 12, 71, 127
2, 151809, Note_off_c, 12, 71, 127
2, 151810, Note_off_c, 2, 50, 127
2, 151811, Note_on_c, 4, 76, 127
2, 151811, Note_on_c, 1, 49, 127
2, 151953, Note_off_c, 7, 67, 127
2, 151966, Note_on_c, 7, 67, 127
2, 152115, Note_off_c, 4, 76, 127
2, 152117, Note_off_c, 7, 67, 127
2, 152117, Note_off_c, 1, 49, 127
2, 152119, Note_on_c, 6, 66, 127
2, 152119, Note_on_c, 2, 50, 127
2, 152273, Note_on_c, 12, 71, 127
2, 152423, Note_off_c, 6, 66, 127
2, 152424, Note_off_c, 12, 71, 127
2, 152426, Note_on_c, 10, 69, 127
2, 152426, Note_on_c, 4, 52, 127
2, 152544, Note_off_c, 2, 50, 127
2, 152577, Note_off_c, 4, 52, 127
2, 152577, Note_off_c, 10, 69, 127
2, 152579, Note_on_c, 1, 73, 127
2, 152579, Note_on_c, 2, 50, 127
2, 152730, Note_off_c, 2, 50, 127
2, 152730, Note_off_c, 1, 73, 127
2, 152732, Note_on_c, 2, 74, 127
2, 152732, Note_on_c, 1, 49, 127
2, 152732, Note_on_c, 12, 47, 127
2, 152883, Note_off_c, 1, 49, 127
2, 152885, Note_on_c, 2, 50, 127
2, 153036, Note_off_c, 2, 50, 127
2, 153036, Note_off_c, 12, 47, 127
2, 153038, Note_on_c, 4, 52, 127
2, 153038, Note_on_c, 7, 43, 127
2, 153344, Note_off_c, 7, 43, 127
2, 153344, Note_off_c, 4, 52, 127
2, 153344, Note_off_c, 2, 74, 127
2, 153345, Note_on_c, 1, 73, 127
2, 153345, Note_on_c, 6, 54, 127
2, 153345, Note_on_c, 10, 45, 127
2, 153496, Note_off_c, 6, 54, 127
2, 153498, Note_on_c, 4, 52, 127
2, 153649, Note_off_c, 4, 52, 127
2, 153651, Note_on_c, 2, 50, 127
2, 153802, Note_off_c, 2, 50, 127
2, 153805, Note_on_c, 4, 52, 127
2, 153886, Note_off_c, 1, 73, 127
2, 153955, Note_off_c, 10, 45, 127
2, 153956, Note_off_c, 4, 52, 127
2, 153958, Note_on_c, 2, 74, 127
2, 153958, Note_on_c, 6, 54, 127
2, 153958, Note_on_c, 2, 50, 127
2, 154264, Note_off_c, 2, 50, 127
2, 154264, Note_off_c, 6, 54, 127
2, 154264, Note_off_c, 2, 74, 127
2, 154265, Note_on_c, 4, 76, 127
2, 154265, Note_on_c, 4, 52, 127
2, 154265, Note_on_c, 1, 49, 127
2, 154416, Note_off_c, 4, 76, 127
2, 154418, Note_on_c, 2, 74, 127
2, 154569, Note_off_c, 2, 74, 127
2, 154569, Note_off_c, 1, 49, 127
2, 154569, Note_off_c, 4, 52, 127
2, 154571, Note_on_c, 1, 73, 127
2, 154571, Note_on_c, 2, 50, 127
2, 154571, Note_on_c, 12, 47, 127
2, 154722, Note_off_c, 1, 73, 127
2, 154724, Note_on_c, 2, 74, 127
2, 154875, Note_off_c, 2, 74, 127
2, 154875, Note_off_c, 12, 47, 127
2, 154875, Note_off_c, 2, 50, 127
2, 154877, Note_on_c, 4, 76, 127
2, 154877, Note_on_c, 1, 49, 127
2, 154877, Note_on_c, 10, 45, 127
2, 155117, Note_off_c, 1, 49, 127
2, 155183, Note_off_c, 4, 76, 127
2, 155184, Note_on_c, 6, 78, 127
2, 155184, Note_on_c, 12, 59, 127
2, 155335, Note_off_c, 6, 78, 127
2, 155337, Note_on_c, 4, 76, 127
2, 155488, Note_off_c, 4, 76, 127
2, 155490, Note_on_c, 2, 74, 127
2, 155641, Note_off_c, 2, 74, 127
2, 155643, Note_on_c, 4, 76, 127
2, 155794, Note_off_c, 4, 76, 127
2, 155794, Note_off_c, 12, 59, 127
2, 155796, Note_on_c, 6, 78, 127
2, 155796, Note_on_c, 10, 57, 127
2, 156102, Note_off_c, 10, 57, 127
2, 156102, Note_off_c, 6, 78, 127
2, 156104, Note_on_c, 7, 79, 127
2, 156104, Note_on_c, 12, 59, 127
2, 156255, Note_off_c, 12, 59, 127
2, 156255, Note_off_c, 7, 79, 127
2, 156257, Note_on_c, 6, 78, 127
2, 156257, Note_on_c, 10, 57, 127
2, 156408, Note_off_c, 10, 57, 127
2, 156408, Note_off_c, 6, 78, 127
2, 156410, Note_on_c, 4, 76, 127
2, 156410, Note_on_c, 7, 55, 127
2, 156561, Note_off_c, 7, 55, 127
2, 156561, Note_off_c, 4, 76, 127
2, 156563, Note_on_c, 2, 74, 127
2, 156563, Note_on_c, 6, 54, 127
2, 156714, Note_off_c, 6, 54, 127
2, 156714, Note_off_c, 2, 74, 127
2, 156716, Note_on_c, 1, 73, 127
2, 156716, Note_on_c, 4, 52, 127
2, 156940, Note_off_c, 1, 73, 127
2, 157022, Note_off_c, 4, 52, 127
2, 157023, Note_on_c, 12, 83, 127
2, 157023, Note_on_c, 7, 55, 127
2, 157174, Note_off_c, 7, 55, 127
2, 157176, Note_on_c, 6, 54, 127
2, 157327, Note_off_c, 6, 54, 127
2, 157329, Note_on_c, 4, 52, 127
2, 157480, Note_off_c, 4, 52, 127
2, 157482, Note_on_c, 2, 50, 127
2, 157633, Note_off_c, 2, 50, 127
2, 157634, Note_off_c, 10, 45, 127
2, 157635, Note_on_c, 1, 49, 127
2, 157635, Note_on_c, 10, 45, 127
2, 157786, Note_off_c, 12, 83, 127
2, 157788, Note_on_c, 10, 81, 127
2, 157939, Note_off_c, 10, 81, 127
2, 157941, Note_on_c, 12, 83, 127
2, 158092, Note_off_c, 12, 83, 127
2, 158095, Note_on_c, 10, 81, 127
2, 158245, Note_off_c, 1, 49, 127
2, 158246, Note_off_c, 10, 81, 127
2, 158248, Note_on_c, 7, 79, 127
2, 158248, Note_on_c, 2, 50, 127
2, 158399, Note_off_c, 7, 79, 127
2, 158401, Note_on_c, 6, 78, 127
2, 158552, Note_off_c, 2, 50, 127
2, 158554, Note_on_c, 1, 49, 127
2, 158624, Note_off_c, 6, 78, 127
2, 158625, Note_on_c, 4, 76, 127
2, 158697, Note_on_c, 7, 55, 127
2, 158697, Note_on_c, 6, 78, 127
2, 158700, Note_off_c, 4, 76, 127
2, 158705, Note_off_c, 1, 49, 127
2, 158768, Note_on_c, 6, 54, 127
2, 158768, Note_on_c, 4, 76, 127
2, 158772, Note_off_c, 6, 78, 127
2, 158772, Note_off_c, 7, 55, 127
2, 158838, Note_on_c, 6, 78, 127
2, 158843, Note_off_c, 4, 76, 127
2, 158843, Note_off_c, 6, 54, 127
2, 158861, Note_on_c, 4, 52, 127
2, 158909, Note_on_c, 4, 76, 127
2, 158913, Note_off_c, 6, 78, 127
2, 158980, Note_on_c, 6, 78, 127
2, 158984, Note_off_c, 4, 76, 127
2, 159014, Note_off_c, 4, 52, 127
2, 159015, Note_on_c, 7, 55, 127
2, 159051, Note_on_c, 4, 76, 127
2, 159055, Note_off_c, 6, 78, 127
2, 159122, Note_on_c, 6, 78, 127
2, 159126, Note_off_c, 4, 76, 127
2, 159168, Note_off_c, 7, 55, 127
2, 159170, Note_on_c, 2, 50, 127
2, 159192, Note_on_c, 4, 76, 127
2, 159197, Note_off_c, 6, 78, 127
2, 159263, Note_on_c, 6, 78, 127
2, 159267, Note_off_c, 4, 76, 127
2, 159323, Note_off_c, 2, 50, 127
2, 159324, Note_on_c, 7, 55, 127
2, 159335, Note_on_c, 4, 76, 127
2, 159338, Note_off_c, 6, 78, 127
2, 159405, Note_on_c, 6, 78, 127
2, 159410, Note_off_c, 4, 76, 127
2, 159475, Note_off_c, 10, 45, 127
2, 159476, Note_on_c, 4, 76, 127
2, 159477, Note_off_c, 7, 55, 127
2, 159479, Note_on_c, 1, 49, 127
2, 159480, Note_off_c, 6, 78, 127
2, 159547, Note_on_c, 6, 78, 127
2, 159551, Note_off_c, 4, 76, 127
2, 159617, Note_on_c, 4, 76, 127
2, 159622, Note_off_c, 6, 78, 127
2, 159632, Note_off_c, 1, 49, 127
2, 159633, Note_on_c, 7, 55, 127
2, 159689, Note_on_c, 6, 78, 127
2, 159692, Note_off_c, 4, 76, 127
2, 159759, Note_on_c, 4, 76, 127
2, 159764, Note_off_c, 6, 78, 127
2, 159786, Note_off_c, 7, 55, 127
2, 159788, Note_on_c, 12, 47, 127
2, 159830, Note_on_c, 6, 78, 127
2, 159834, Note_off_c, 4, 76, 127
2, 159901, Note_on_c, 4, 76, 127
2, 159905, Note_off_c, 6, 78, 127
2, 159941, Note_off_c, 12, 47, 127
2, 159942, Note_on_c, 7, 55, 127
2, 159972, Note_on_c, 6, 78, 127
2, 159976, Note_off_c, 4, 76, 127
2, 160043, Note_on_c, 4, 76, 127
2, 160047, Note_off_c, 6, 78, 127
2, 160095, Note_off_c, 7, 55, 127
2, 160097, Note_on_c, 10, 45, 127
2, 160114, Note_on_c, 6, 78, 127
2, 160118, Note_off_c, 4, 76, 127
2, 160184, Note_on_c, 4, 76, 127
2, 160189, Note_off_c, 6, 78, 127
2, 160250, Note_off_c, 10, 45, 127
2, 160251, Note_on_c, 7, 55, 127
2, 160404, Note_off_c, 7, 55, 127
2, 160405, Note_on_c, 6, 54, 127
2, 160444, Note_off_c, 4, 76, 127
2, 160556, Note_off_c, 6, 54, 127
2, 160558, Note_on_c, 10, 81, 127
2, 160558, Note_on_c, 7, 55, 127
2, 160633, Note_off_c, 10, 81, 127
2, 160636, Note_on_c, 7, 79, 127
2, 160711, Note_off_c, 7, 79, 127
2, 160711, Note_off_c, 7, 55, 127
2, 160713, Note_on_c, 6, 78, 127
2, 160713, Note_on_c, 10, 57, 127
2, 160867, Note_on_c, 10, 81, 127
2, 160867, Note_on_c, 4, 52, 127
2, 160906, Note_off_c, 6, 78, 127
2, 161020, Note_off_c, 4, 52, 127
2, 161020, Note_off_c, 10, 81, 127
2, 161022, Note_on_c, 4, 76, 127
2, 161022, Note_on_c, 2, 50, 127
2, 161173, Note_off_c, 2, 50, 127
2, 161175, Note_on_c, 10, 81, 127
2, 161175, Note_on_c, 1, 49, 127
2, 161213, Note_off_c, 4, 76, 127
2, 161328, Note_off_c, 1, 49, 127
2, 161328, Note_off_c, 10, 81, 127
2, 161329, Note_on_c, 2, 74, 127
2, 161329, Note_on_c, 12, 47, 127
2, 161480, Note_off_c, 10, 57, 127
2, 161482, Note_on_c, 10, 81, 127
2, 161482, Note_on_c, 7, 55, 127
2, 161520, Note_off_c, 2, 74, 127
2, 161635, Note_off_c, 7, 55, 127
2, 161635, Note_off_c, 10, 81, 127
2, 161637, Note_on_c, 1, 73, 127
2, 161637, Note_on_c, 6, 54, 127
2, 161788, Note_off_c, 6, 54, 127
2, 161790, Note_on_c, 10, 81, 127
2, 161790, Note_on_c, 4, 52, 127
2, 161828, Note_off_c, 1, 73, 127
2, 161943, Note_off_c, 4, 52, 127
2, 161943, Note_off_c, 10, 81, 127
2, 161944, Note_on_c, 12, 71, 127
2, 161944, Note_on_c, 2, 50, 127
2, 162095, Note_off_c, 2, 50, 127
2, 162097, Note_on_c, 10, 81, 127
2, 162097, Note_on_c, 6, 54, 127
2, 162135, Note_off_c, 12, 71, 127
2, 162249, Note_off_c, 12, 47, 127
2, 162250, Note_off_c, 6, 54, 127
2, 162250, Note_off_c, 10, 81, 127
2, 162252, Note_on_c, 7, 79, 127
2, 162252, Note_on_c, 4, 52, 127
2, 162403, Note_off_c, 4, 52, 127
2, 162403, Note_off_c, 7, 79, 127
2, 162405, Note_on_c, 6, 78, 127
2, 162405, Note_on_c, 6, 54, 127
2, 162556, Note_off_c, 6, 54, 127
2, 162556, Note_off_c, 6, 78, 127
2, 162558, Note_on_c, 4, 76, 127
2, 162558, Note_on_c, 7, 55, 127
2, 162712, Note_on_c, 7, 79, 127
2, 162712, Note_on_c, 2, 50, 127
2, 162782, Note_off_c, 4, 76, 127
2, 162863, Note_off_c, 2, 50, 127
2, 162863, Note_off_c, 7, 79, 127
2, 162865, Note_on_c, 2, 74, 127
2, 162865, Note_on_c, 1, 49, 127
2, 163016, Note_off_c, 1, 49, 127
2, 163018, Note_on_c, 7, 79, 127
2, 163018, Note_on_c, 12, 47, 127
2, 163088, Note_off_c, 2, 74, 127
2, 163169, Note_off_c, 12, 47, 127
2, 163169, Note_off_c, 7, 79, 127
2, 163171, Note_on_c, 1, 73, 127
2, 163171, Note_on_c, 10, 45, 127
2, 163323, Note_off_c, 7, 55, 127
2, 163324, Note_on_c, 7, 79, 127
2, 163324, Note_on_c, 6, 54, 127
2, 163394, Note_off_c, 1, 73, 127
2, 163475, Note_off_c, 6, 54, 127
2, 163475, Note_off_c, 7, 79, 127
2, 163477, Note_on_c, 12, 71, 127
2, 163477, Note_on_c, 4, 52, 127
2, 163628, Note_off_c, 4, 52, 127
2, 163630, Note_on_c, 7, 79, 127
2, 163630, Note_on_c, 2, 50, 127
2, 163700, Note_off_c, 12, 71, 127
2, 163781, Note_off_c, 2, 50, 127
2, 163781, Note_off_c, 7, 79, 127
2, 163783, Note_on_c, 10, 69, 127
2, 163783, Note_on_c, 1, 49, 127
2, 163934, Note_off_c, 1, 49, 127
2, 163936, Note_on_c, 7, 79, 127
2, 163936, Note_on_c, 4, 52, 127
2, 164006, Note_off_c, 10, 69, 127
2, 164087, Note_off_c, 4, 52, 127
2, 164087, Note_off_c, 7, 79, 127
2, 164087, Note_off_c, 10, 45, 127
2, 164089, Note_on_c, 6, 78, 127
2, 164089, Note_on_c, 2, 50, 127
2, 164240, Note_off_c, 2, 50, 127
2, 164240, Note_off_c, 6, 78, 127
2, 164242, Note_on_c, 4, 76, 127
2, 164242, Note_on_c, 4, 52, 127
2, 164393, Note_off_c, 4, 52, 127
2, 164393, Note_off_c, 4, 76, 127
2, 164395, Note_on_c, 2, 74, 127
2, 164395, Note_on_c, 6, 54, 127
2, 164550, Note_on_c, 6, 78, 127
2, 164550, Note_on_c, 0, 48, 127
2, 164652, Note_off_c, 2, 74, 127
2, 164703, Note_off_c, 0, 48, 127
2, 164703, Note_off_c, 6, 78, 127
2, 164704, Note_on_c, 0, 72, 127
2, 164704, Note_on_c, 12, 47, 127
2, 164855, Note_off_c, 12, 47, 127
2, 164857, Note_on_c, 6, 78, 127
2, 164857, Note_on_c, 10, 45, 127
2, 164959, Note_off_c, 0, 72, 127
2, 165010, Note_off_c, 10, 45, 127
2, 165010, Note_off_c, 6, 78, 127
2, 165011, Note_on_c, 12, 71, 127
2, 165011, Note_on_c, 7, 43, 127
2, 165162, Note_off_c, 6, 54, 127
2, 165164, Note_on_c, 6, 78, 127
2, 165164, Note_on_c, 12, 47, 127
2, 165266, Note_off_c, 12, 71, 127
2, 165317, Note_off_c, 12, 47, 127
2, 165317, Note_off_c, 6, 78, 127
2, 165319, Note_on_c, 10, 69, 127
2, 165319, Note_on_c, 1, 49, 127
2, 165460, Note_off_c, 7, 43, 127
2, 165472, Note_off_c, 1, 49, 127
2, 165473, Note_on_c, 6, 78, 127
2, 165473, Note_on_c, 3, 51, 127
2, 165576, Note_off_c, 10, 69, 127
2, 165626, Note_off_c, 3, 51, 127
2, 165626, Note_off_c, 6, 78, 127
2, 165628, Note_on_c, 7, 67, 127
2, 165628, Note_on_c, 4, 52, 127
2, 165779, Note_off_c, 4, 52, 127
2, 165781, Note_on_c, 6, 78, 127
2, 165781, Note_on_c, 6, 54, 127
2, 165883, Note_off_c, 7, 67, 127
2, 165934, Note_off_c, 6, 54, 127
2, 165934, Note_off_c, 6, 78, 127
2, 165935, Note_on_c, 4, 76, 127
2, 165935, Note_on_c, 7, 55, 127
2, 166086, Note_off_c, 7, 55, 127
2, 166086, Note_off_c, 4, 76, 127
2, 166088, Note_on_c, 2, 74, 127
2, 166088, Note_on_c, 10, 57, 127
2, 166239, Note_off_c, 10, 57, 127
2, 166239, Note_off_c, 2, 74, 127
2, 166241, Note_on_c, 1, 73, 127
2, 166241, Note_on_c, 7, 55, 127
2, 166392, Note_off_c, 7, 55, 127
2, 166394, Note_on_c, 4, 76, 127
2, 166394, Note_on_c, 6, 54, 127
2, 166512, Note_off_c, 1, 73, 127
2, 166547, Note_off_c, 6, 54, 127
2, 166547, Note_off_c, 4, 76, 127
2, 166549, Note_on_c, 12, 71, 127
2, 166549, Note_on_c, 4, 52, 127
2, 166700, Note_off_c, 4, 52, 127
2, 166702, Note_on_c, 4, 76, 127
2, 166702, Note_on_c, 2, 50, 127
2, 166804, Note_off_c, 12, 71, 127
2, 166855, Note_off_c, 2, 50, 127
2, 166855, Note_off_c, 4, 76, 127
2, 166856, Note_on_c, 10, 69, 127
2, 166856, Note_on_c, 1, 49, 127
2, 167007, Note_off_c, 1, 49, 127
2, 167009, Note_on_c, 4, 76, 127
2, 167009, Note_on_c, 10, 45, 127
2, 167094, Note_off_c, 10, 69, 127
2, 167160, Note_off_c, 10, 45, 127
2, 167160, Note_off_c, 4, 76, 127
2, 167162, Note_on_c, 7, 67, 127
2, 167162, Note_on_c, 12, 47, 127
2, 167313, Note_off_c, 12, 47, 127
2, 167315, Note_on_c, 4, 76, 127
2, 167315, Note_on_c, 1, 49, 127
2, 167353, Note_off_c, 7, 67, 127
2, 167468, Note_off_c, 1, 49, 127
2, 167468, Note_off_c, 4, 76, 127
2, 167470, Note_on_c, 6, 66, 127
2, 167470, Note_on_c, 2, 50, 127
2, 167621, Note_off_c, 2, 50, 127
2, 167621, Note_off_c, 6, 66, 127
2, 167623, Note_on_c, 4, 76, 127
2, 167623, Note_on_c, 4, 52, 127
2, 167774, Note_off_c, 4, 52, 127
2, 167774, Note_off_c, 4, 76, 127
2, 167776, Note_on_c, 2, 74, 127
2, 167776, Note_on_c, 6, 54, 127
2, 167927, Note_off_c, 6, 54, 127
2, 167929, Note_on_c, 6, 66, 127
2, 167929, Note_on_c, 7, 55, 127
2, 168080, Note_off_c, 7, 55, 127
2, 168080, Note_off_c, 6, 66, 127
2, 168082, Note_on_c, 4, 64, 127
2, 168082, Note_on_c, 10, 57, 127
2, 168233, Note_off_c, 4, 64, 127
2, 168235, Note_on_c, 7, 67, 127
2, 168382, Note_off_c, 2, 74, 127
2, 168388, Note_on_c, 2, 74, 127
2, 168388, Note_on_c, 10, 45, 127
2, 168539, Note_off_c, 2, 74, 127
2, 168541, Note_on_c, 1, 73, 127
2, 168682, Note_off_c, 7, 67, 127
2, 168688, Note_off_c, 10, 57, 127
2, 168692, Note_off_c, 1, 73, 127
2, 168692, Note_off_c, 10, 45, 127
2, 168694, Note_on_c, 4, 76, 127
2, 168694, Note_on_c, 2, 50, 127
2, 168769, Note_off_c, 4, 76, 127
2, 168771, Note_on_c, 2, 74, 127
2, 168846, Note_off_c, 2, 74, 127
2, 168848, Note_on_c, 4, 76, 127
2, 168923, Note_off_c, 4, 76, 127
2, 168925, Note_on_c, 2, 74, 127
2, 169000, Note_off_c, 2, 74, 127
2, 169001, Note_off_c, 2, 50, 127
2, 169003, Note_on_c, 4, 76, 127
2, 169003, Note_on_c, 0, 48, 127
2, 169078, Note_off_c, 4, 76, 127
2, 169080, Note_on_c, 2, 74, 127
2, 169155, Note_off_c, 2, 74, 127
2, 169156, Note_off_c, 0, 48, 127
2, 169157, Note_on_c, 4, 76, 127
2, 169157, Note_on_c, 2, 50, 127
2, 169232, Note_off_c, 4, 76, 127
2, 169234, Note_on_c, 2, 74, 127
2, 169309, Note_off_c, 2, 74, 127
2, 169310, Note_off_c, 2, 50, 127
2, 169311, Note_on_c, 4, 76, 127
2, 169311, Note_on_c, 4, 52, 127
2, 169386, Note_off_c, 4, 76, 127
2, 169389, Note_on_c, 2, 74, 127
2, 169464, Note_off_c, 2, 74, 127
2, 169464, Note_off_c, 4, 52, 127
2, 169466, Note_on_c, 4, 76, 127
2, 169466, Note_on_c, 2, 50, 127
2, 169541, Note_off_c, 4, 76, 127
2, 169543, Note_on_c, 2, 74, 127
2, 169618, Note_off_c, 2, 74, 127
2, 169619, Note_off_c, 2, 50, 127
2, 169620, Note_on_c, 4, 76, 127
2, 169620, Note_on_c, 0, 48, 127
2, 169695, Note_off_c, 4, 76, 127
2, 169698, Note_on_c, 2, 74, 127
2, 169773, Note_off_c, 2, 74, 127
2, 169775, Note_on_c, 4, 76, 127
2, 169850, Note_off_c, 4, 76, 127
2, 169852, Note_on_c, 2, 74, 127
2, 169927, Note_off_c, 2, 74, 127
2, 169927, Note_off_c, 0, 48, 127
2, 169929, Note_on_c, 4, 76, 127
2, 169929, Note_on_c, 12, 47, 127
2, 170004, Note_off_c, 4, 76, 127
2, 170006, Note_on_c, 2, 74, 127
2, 170081, Note_off_c, 2, 74, 127
2, 170082, Note_off_c, 12, 47, 127
2, 170084, Note_on_c, 4, 76, 127
2, 170084, Note_on_c, 0, 48, 127
2, 170159, Note_off_c, 4, 76, 127
2, 170161, Note_on_c, 2, 74, 127
2, 170236, Note_off_c, 2, 74, 127
2, 170237, Note_off_c, 0, 48, 127
2, 170238, Note_on_c, 4, 76, 127
2, 170238, Note_on_c, 2, 50, 127
2, 170313, Note_off_c, 4, 76, 127
2, 170315, Note_on_c, 2, 74, 127
2, 170390, Note_off_c, 2, 74, 127
2, 170391, Note_off_c, 2, 50, 127
2, 170393, Note_on_c, 0, 72, 127
2, 170393, Note_on_c, 0, 48, 127
2, 170468, Note_off_c, 0, 72, 127
2, 170470, Note_on_c, 2, 74, 127
2, 170546, Note_off_c, 0, 48, 127
2, 170547, Note_on_c, 12, 47, 127
2, 170701, Note_on_c, 7, 67, 127
2, 170852, Note_off_c, 7, 67, 127
2, 170853, Note_off_c, 12, 47, 127
2, 170854, Note_on_c, 5, 65, 127
2, 170854, Note_on_c, 0, 48, 127
2, 171005, Note_off_c, 5, 65, 127
2, 171007, Note_on_c, 4, 64, 127
2, 171158, Note_off_c, 4, 64, 127
2, 171158, Note_off_c, 0, 48, 127
2, 171160, Note_on_c, 2, 62, 127
2, 171160, Note_on_c, 2, 50, 127
2, 171311, Note_off_c, 2, 62, 127
2, 171313, Note_on_c, 5, 65, 127
2, 171464, Note_off_c, 5, 65, 127
2, 171464, Note_off_c, 2, 50, 127
2, 171466, Note_on_c, 4, 64, 127
2, 171466, Note_on_c, 7, 55, 127
2, 171617, Note_off_c, 4, 64, 127
2, 171619, Note_on_c, 5, 65, 127
2, 171721, Note_off_c, 7, 55, 127
2, 171765, Note_off_c, 2, 74, 127
2, 171770, Note_off_c, 5, 65, 127
2, 171772, Note_on_c, 0, 72, 127
2, 171772, Note_on_c, 4, 64, 127
2, 171772, Note_on_c, 10, 45, 127
2, 171923, Note_off_c, 4, 64, 127
2, 171925, Note_on_c, 2, 62, 127
2, 172076, Note_off_c, 2, 62, 127
2, 172078, Note_on_c, 0, 60, 127
2, 172229, Note_off_c, 0, 60, 127
2, 172231, Note_on_c, 4, 64, 127
2, 172382, Note_off_c, 4, 64, 127
2, 172382, Note_off_c, 10, 45, 127
2, 172384, Note_on_c, 2, 62, 127
2, 172384, Note_on_c, 12, 47, 127
2, 172535, Note_off_c, 2, 62, 127
2, 172538, Note_on_c, 4, 64, 127
2, 172688, Note_off_c, 12, 47, 127
2, 172688, Note_off_c, 0, 72, 127
2, 172689, Note_off_c, 4, 64, 127
2, 172691, Note_on_c, 12, 71, 127
2, 172691, Note_on_c, 2, 62, 127
2, 172691, Note_on_c, 0, 48, 127
2, 172842, Note_off_c, 2, 62, 127
2, 172844, Note_on_c, 0, 60, 127
2, 172995, Note_off_c, 0, 60, 127
2, 172995, Note_off_c, 0, 48, 127
2, 172997, Note_on_c, 12, 59, 127
2, 172997, Note_on_c, 2, 50, 127
2, 173148, Note_off_c, 12, 59, 127
2, 173150, Note_on_c, 2, 62, 127
2, 173301, Note_off_c, 2, 62, 127
2, 173301, Note_off_c, 2, 50, 127
2, 173303, Note_on_c, 0, 60, 127
2, 173303, Note_on_c, 4, 52, 127
2, 173454, Note_off_c, 0, 60, 127
2, 173456, Note_on_c, 2, 62, 127
2, 173558, Note_off_c, 4, 52, 127
2, 173609, Note_off_c, 2, 62, 127
2, 173609, Note_off_c, 12, 71, 127
2, 173610, Note_on_c, 10, 69, 127
2, 173610, Note_on_c, 0, 60, 127
2, 173610, Note_on_c, 6, 42, 127
2, 173761, Note_off_c, 0, 60, 127
2, 173763, Note_on_c, 12, 59, 127
2, 173914, Note_off_c, 12, 59, 127
2, 173916, Note_on_c, 10, 57, 127
2, 174067, Note_off_c, 10, 57, 127
2, 174069, Note_on_c, 0, 60, 127
2, 174220, Note_off_c, 0, 60, 127
2, 174220, Note_off_c, 6, 42, 127
2, 174222, Note_on_c, 12, 59, 127
2, 174222, Note_on_c, 7, 43, 127
2, 174376, Note_off_c, 10, 69, 127
2, 174376, Note_on_c, 7, 67, 127
2, 174527, Note_off_c, 7, 67, 127
2, 174528, Note_off_c, 7, 43, 127
2, 174529, Note_on_c, 10, 69, 127
2, 174529, Note_on_c, 6, 42, 127
2, 174680, Note_off_c, 6, 42, 127
2, 174680, Note_off_c, 10, 69, 127
2, 174683, Note_on_c, 7, 67, 127
2, 174683, Note_on_c, 7, 43, 127
2, 174834, Note_off_c, 7, 43, 127
2, 174834, Note_off_c, 7, 67, 127
2, 174836, Note_on_c, 6, 66, 127
2, 174836, Note_on_c, 10, 45, 127
2, 174987, Note_off_c, 10, 45, 127
2, 174987, Note_off_c, 6, 66, 127
2, 174989, Note_on_c, 7, 67, 127
2, 174989, Note_on_c, 12, 47, 127
2, 175140, Note_off_c, 12, 47, 127
2, 175140, Note_off_c, 7, 67, 127
2, 175140, Note_off_c, 12, 59, 127
2, 175142, Note_on_c, 6, 66, 127
2, 175142, Note_on_c, 10, 57, 127
2, 175142, Note_on_c, 2, 38, 127
2, 175321, Note_on_c, 2, 62, 127
2, 175328, Note_off_c, 6, 66, 127
2, 175396, Note_off_c, 2, 62, 127
2, 175399, Note_on_c, 4, 64, 127
2, 175450, Note_off_c, 2, 38, 127
2, 175472, Note_off_c, 10, 57, 127
2, 175474, Note_off_c, 4, 64, 127
2, 175476, Note_on_c, 0, 60, 127
2, 175476, Note_on_c, 6, 66, 127
2, 175630, Note_off_c, 0, 60, 127
2, 175632, Note_on_c, 12, 59, 127
2, 175632, Note_on_c, 2, 62, 127
2, 175703, Note_off_c, 6, 66, 127
2, 175786, Note_off_c, 2, 62, 127
2, 175786, Note_off_c, 12, 59, 127
2, 175788, Note_on_c, 10, 57, 127
2, 175788, Note_on_c, 7, 67, 127
2, 175942, Note_off_c, 10, 57, 127
2, 175943, Note_on_c, 7, 55, 127
2, 175943, Note_on_c, 2, 62, 127
2, 176015, Note_off_c, 7, 67, 127
2, 176097, Note_off_c, 2, 62, 127
2, 176097, Note_off_c, 7, 55, 127
2, 176099, Note_on_c, 6, 54, 127
2, 176099, Note_on_c, 10, 69, 127
2, 176253, Note_off_c, 6, 54, 127
2, 176255, Note_on_c, 4, 52, 127
2, 176255, Note_on_c, 2, 62, 127
2, 176326, Note_off_c, 10, 69, 127
2, 176409, Note_off_c, 2, 62, 127
2, 176409, Note_off_c, 4, 52, 127
2, 176411, Note_on_c, 2, 50, 127
2, 176411, Note_on_c, 12, 71, 127
2, 176565, Note_off_c, 2, 50, 127
2, 176567, Note_on_c, 0, 48, 127
2, 176567, Note_on_c, 2, 62, 127
2, 176638, Note_off_c, 12, 71, 127
2, 176721, Note_off_c, 2, 62, 127
2, 176721, Note_off_c, 0, 48, 127
2, 176723, Note_on_c, 12, 47, 127
2, 176723, Note_on_c, 0, 72, 127
2, 176877, Note_off_c, 12, 47, 127
2, 176879, Note_on_c, 10, 45, 127
2, 176879, Note_on_c, 2, 62, 127
2, 176950, Note_off_c, 0, 72, 127
2, 177033, Note_off_c, 2, 62, 127
2, 177033, Note_off_c, 10, 45, 127
2, 177035, Note_on_c, 7, 43, 127
2, 177035, Note_on_c, 12, 71, 127
2, 177190, Note_off_c, 12, 71, 127
2, 177190, Note_off_c, 7, 43, 127
2, 177192, Note_on_c, 10, 45, 127
2, 177192, Note_on_c, 7, 79, 127
2, 177347, Note_off_c, 7, 79, 127
2, 177347, Note_off_c, 10, 45, 127
2, 177349, Note_on_c, 12, 47, 127
2, 177349, Note_on_c, 5, 77, 127
2, 177504, Note_off_c, 5, 77, 127
2, 177506, Note_on_c, 7, 43, 127
2, 177506, Note_on_c, 4, 76, 127
2, 177579, Note_off_c, 12, 47, 127
2, 177663, Note_off_c, 4, 76, 127
2, 177663, Note_off_c, 7, 43, 127
2, 177665, Note_on_c, 0, 48, 127
2, 177665, Note_on_c, 2, 74, 127
2, 177820, Note_off_c, 2, 74, 127
2, 177822, Note_on_c, 7, 43, 127
2, 177822, Note_on_c, 0, 72, 127
2, 177895, Note_off_c, 0, 48, 127
2, 177979, Note_off_c, 0, 72, 127
2, 177979, Note_off_c, 7, 43, 127
2, 177981, Note_on_c, 2, 50, 127
2, 177981, Note_on_c, 12, 71, 127
2, 178136, Note_off_c, 12, 71, 127
2, 178139, Note_on_c, 7, 43, 127
2, 178139, Note_on_c, 10, 69, 127
2, 178211, Note_off_c, 2, 50, 127
2, 178296, Note_off_c, 10, 69, 127
2, 178296, Note_off_c, 7, 43, 127
2, 178297, Note_on_c, 4, 52, 127
2, 178297, Note_on_c, 7, 67, 127
2, 178452, Note_off_c, 7, 67, 127
2, 178455, Note_on_c, 7, 43, 127
2, 178455, Note_on_c, 5, 65, 127
2, 178527, Note_off_c, 4, 52, 127
2, 178612, Note_off_c, 5, 65, 127
2, 178612, Note_off_c, 7, 43, 127
2, 178613, Note_on_c, 5, 53, 127
2, 178613, Note_on_c, 4, 64, 127
2, 178768, Note_off_c, 4, 64, 127
2, 178771, Note_on_c, 7, 43, 127
2, 178771, Note_on_c, 2, 62, 127
2, 178843, Note_off_c, 5, 53, 127
2, 178928, Note_off_c, 2, 62, 127
2, 178928, Note_off_c, 7, 43, 127
2, 178929, Note_on_c, 4, 52, 127
2, 178929, Note_on_c, 0, 60, 127
2, 179087, Note_off_c, 0, 60, 127
2, 179087, Note_off_c, 4, 52, 127
2, 179089, Note_on_c, 4, 40, 127
2, 179089, Note_on_c, 4, 76, 127
2, 179167, Note_off_c, 4, 40, 127
2, 179170, Note_on_c, 6, 42, 127
2, 179247, Note_off_c, 4, 76, 127
2, 179248, Note_off_c, 6, 42, 127
2, 179250, Note_on_c, 8, 44, 127
2, 179250, Note_on_c, 2, 74, 127
2, 179408, Note_off_c, 2, 74, 127
2, 179410, Note_on_c, 4, 40, 127
2, 179410, Note_on_c, 0, 72, 127
2, 179517, Note_off_c, 8, 44, 127
2, 179568, Note_off_c, 0, 72, 127
2, 179568, Note_off_c, 4, 40, 127
2, 179570, Note_on_c, 10, 45, 127
2, 179570, Note_on_c, 12, 71, 127
2, 179728, Note_off_c, 12, 71, 127
2, 179730, Note_on_c, 4, 40, 127
2, 179730, Note_on_c, 10, 69, 127
2, 179837, Note_off_c, 10, 45, 127
2, 179888, Note_off_c, 10, 69, 127
2, 179888, Note_off_c, 4, 40, 127
2, 179890, Note_on_c, 12, 47, 127
2, 179890, Note_on_c, 8, 68, 127
2, 180048, Note_off_c, 8, 68, 127
2, 180050, Note_on_c, 4, 40, 127
2, 180050, Note_on_c, 6, 66, 127
2, 180157, Note_off_c, 12, 47, 127
2, 180208, Note_off_c, 6, 66, 127
2, 180208, Note_off_c, 4, 40, 127
2, 180211, Note_on_c, 0, 48, 127
2, 180211, Note_on_c, 4, 64, 127
2, 180369, Note_off_c, 4, 64, 127
2, 180371, Note_on_c, 4, 40, 127
2, 180371, Note_on_c, 2, 62, 127
2, 180478, Note_off_c, 0, 48, 127
2, 180529, Note_off_c, 2, 62, 127
2, 180529, Note_off_c, 4, 40, 127
2, 180531, Note_on_c, 2, 50, 127
2, 180531, Note_on_c, 0, 60, 127
2, 180689, Note_off_c, 0, 60, 127
2, 180691, Note_on_c, 4, 40, 127
2, 180691, Note_on_c, 12, 59, 127
2, 180798, Note_off_c, 2, 50, 127
2, 180849, Note_off_c, 12, 59, 127
2, 180849, Note_off_c, 4, 40, 127
2, 180851, Note_on_c, 1, 49, 127
2, 180851, Note_on_c, 10, 57, 127
2, 181011, Note_off_c, 10, 57, 127
2, 181011, Note_off_c, 1, 49, 127
2, 181013, Note_on_c, 10, 57, 127
2, 181013, Note_on_c, 12, 59, 127
2, 181173, Note_off_c, 12, 59, 127
2, 181173, Note_off_c, 10, 57, 127
2, 181174, Note_on_c, 7, 55, 127
2, 181174, Note_on_c, 1, 61, 127
2, 181334, Note_off_c, 7, 55, 127
2, 181336, Note_on_c, 6, 54, 127
2, 181336, Note_on_c, 10, 57, 127
2, 181494, Note_off_c, 1, 61, 127
2, 181496, Note_off_c, 6, 54, 127
2, 181498, Note_on_c, 4, 52, 127
2, 181498, Note_on_c, 2, 62, 127
2, 181571, Note_off_c, 10, 57, 127
2, 181658, Note_off_c, 4, 52, 127
2, 181659, Note_on_c, 2, 50, 127
2, 181659, Note_on_c, 10, 57, 127
2, 181818, Note_off_c, 2, 62, 127
2, 181819, Note_off_c, 2, 50, 127
2, 181821, Note_on_c, 1, 49, 127
2, 181821, Note_on_c, 4, 64, 127
2, 181894, Note_off_c, 10, 57, 127
2, 181981, Note_off_c, 1, 49, 127
2, 181982, Note_on_c, 12, 47, 127
2, 181982, Note_on_c, 10, 57, 127
2, 182141, Note_off_c, 4, 64, 127
2, 182142, Note_off_c, 12, 47, 127
2, 182144, Note_on_c, 10, 45, 127
2, 182144, Note_on_c, 6, 66, 127
2, 182217, Note_off_c, 10, 57, 127
2, 182304, Note_off_c, 10, 45, 127
2, 182306, Note_on_c, 7, 43, 127
2, 182306, Note_on_c, 10, 57, 127
2, 182464, Note_off_c, 6, 66, 127
2, 182466, Note_off_c, 7, 43, 127
2, 182467, Note_on_c, 6, 42, 127
2, 182467, Note_on_c, 7, 67, 127
2, 182593, Note_off_c, 10, 57, 127
2, 182628, Note_off_c, 7, 67, 127
2, 182628, Note_off_c, 6, 42, 127
2, 182630, Note_on_c, 4, 40, 127
2, 182630, Note_on_c, 10, 57, 127
2, 182790, Note_off_c, 10, 57, 127
2, 182790, Note_off_c, 4, 40, 127
2, 182792, Note_on_c, 2, 38, 127
2, 182792, Note_on_c, 2, 62, 127
2, 182792, Note_on_c, 6, 66, 127
2, 183119, Note_off_c, 6, 66, 127
2, 183119, Note_off_c, 2, 62, 127
2, 183121, Note_on_c, 0, 60, 127
2, 183121, Note_on_c, 12, 71, 127
2, 183284, Note_off_c, 0, 60, 127
2, 183285, Note_on_c, 2, 62, 127
2, 183448, Note_off_c, 2, 62, 127
2, 183448, Note_off_c, 12, 71, 127
2, 183450, Note_on_c, 4, 64, 127
2, 183450, Note_on_c, 7, 67, 127
2, 183613, Note_off_c, 4, 64, 127
2, 183614, Note_on_c, 2, 62, 127
2, 183777, Note_off_c, 2, 62, 127
2, 183777, Note_off_c, 7, 67, 127
2, 183777, Note_off_c, 2, 38, 127
2, 183778, Note_on_c, 2, 38, 127
2, 183778, Note_on_c, 0, 60, 127
2, 183778, Note_on_c, 4, 64, 127
2, 184105, Note_off_c, 4, 64, 127
2, 184105, Note_off_c, 0, 60, 127
2, 184107, Note_on_c, 12, 59, 127
2, 184107, Note_on_c, 10, 69, 127
2, 184270, Note_off_c, 12, 59, 127
2, 184272, Note_on_c, 0, 60, 127
2, 184434, Note_off_c, 10, 69, 127
2, 184435, Note_off_c, 0, 60, 127
2, 184436, Note_on_c, 2, 62, 127
2, 184436, Note_on_c, 6, 66, 127
2, 184599, Note_off_c, 2, 62, 127
2, 184601, Note_on_c, 0, 60, 127
2, 184763, Note_off_c, 6, 66, 127
2, 184764, Note_off_c, 0, 60, 127
2, 184765, Note_on_c, 12, 59, 127
2, 184765, Note_on_c, 7, 67, 127
2, 184930, Note_on_c, 2, 50, 127
2, 185092, Note_off_c, 12, 59, 127
2, 185092, Note_off_c, 2, 38, 127
2, 185093, Note_off_c, 2, 50, 127
2, 185094, Note_on_c, 0, 48, 127
2, 185094, Note_on_c, 0, 60, 127
2, 185257, Note_off_c, 0, 48, 127
2, 185258, Note_on_c, 2, 50, 127
2, 185421, Note_off_c, 2, 50, 127
2, 185421, Note_off_c, 0, 60, 127
2, 185423, Note_on_c, 4, 52, 127
2, 185423, Note_on_c, 2, 62, 127
2, 185586, Note_off_c, 4, 52, 127
2, 185587, Note_on_c, 2, 50, 127
2, 185750, Note_off_c, 2, 50, 127
2, 185750, Note_off_c, 2, 62, 127
2, 185752, Note_on_c, 0, 48, 127
2, 185752, Note_on_c, 4, 64, 127
2, 185914, Note_off_c, 7, 67, 127
2, 185916, Note_on_c, 10, 69, 127
2, 186026, Note_off_c, 4, 64, 127
2, 186079, Note_off_c, 10, 69, 127
2, 186079, Note_off_c, 0, 48, 127
2, 186081, Note_on_c, 12, 47, 127
2, 186081, Note_on_c, 6, 54, 127
2, 186081, Note_on_c, 12, 71, 127
2, 186161, Note_off_c, 12, 71, 127
2, 186162, Note_on_c, 10, 69, 127
2, 186242, Note_off_c, 10, 69, 127
2, 186242, Note_off_c, 12, 47, 127
2, 186244, Note_on_c, 0, 48, 127
2, 186244, Note_on_c, 12, 71, 127
2, 186324, Note_off_c, 12, 71, 127
2, 186325, Note_on_c, 10, 69, 127
2, 186405, Note_off_c, 10, 69, 127
2, 186405, Note_off_c, 0, 48, 127
2, 186407, Note_on_c, 2, 50, 127
2, 186407, Note_on_c, 12, 71, 127
2, 186487, Note_off_c, 12, 71, 127
2, 186488, Note_on_c, 10, 69, 127
2, 186568, Note_off_c, 10, 69, 127
2, 186568, Note_off_c, 2, 50, 127
2, 186570, Note_on_c, 0, 48, 127
2, 186570, Note_on_c, 7, 67, 127
2, 186650, Note_off_c, 7, 67, 127
2, 186651, Note_on_c, 10, 69, 127
2, 186731, Note_off_c, 10, 69, 127
2, 186731, Note_off_c, 0, 48, 127
2, 186731, Note_off_c, 6, 54, 127
2, 186733, Note_on_c, 12, 47, 127
2, 186733, Note_on_c, 7, 55, 127
2, 186733, Note_on_c, 12, 71, 127
2, 187060, Note_off_c, 12, 71, 127
2, 187060, Note_off_c, 7, 55, 127
2, 187060, Note_off_c, 12, 47, 127
2, 187062, Note_on_c, 10, 45, 127
2, 187062, Note_on_c, 10, 69, 127
2, 187062, Note_on_c, 0, 72, 127
2, 187225, Note_off_c, 0, 72, 127
2, 187225, Note_off_c, 10, 69, 127
2, 187225, Note_off_c, 10, 45, 127
2, 187226, Note_on_c, 12, 47, 127
2, 187226, Note_on_c, 7, 67, 127
2, 187226, Note_on_c, 12, 71, 127
2, 187389, Note_off_c, 12, 71, 127
2, 187389, Note_off_c, 7, 67, 127
2, 187389, Note_off_c, 12, 47, 127
2, 187391, Note_on_c, 0, 48, 127
2, 187391, Note_on_c, 6, 66, 127
2, 187391, Note_on_c, 10, 69, 127
2, 187554, Note_off_c, 10, 69, 127
2, 187554, Note_off_c, 6, 66, 127
2, 187554, Note_off_c, 0, 48, 127
2, 187555, Note_on_c, 12, 47, 127
2, 187555, Note_on_c, 7, 67, 127
2, 187555, Note_on_c, 12, 71, 127
2, 187718, Note_off_c, 12, 71, 127
2, 187718, Note_off_c, 7, 67, 127
2, 187718, Note_off_c, 12, 47, 127
2, 187720, Note_on_c, 10, 45, 127
2, 187720, Note_on_c, 10, 69, 127
2, 187720, Note_on_c, 0, 72, 127
2, 188047, Note_off_c, 0, 72, 127
2, 188047, Note_off_c, 10, 69, 127
2, 188047, Note_off_c, 10, 45, 127
2, 188048, Note_on_c, 7, 43, 127
2, 188048, Note_on_c, 12, 71, 127
2, 188048, Note_on_c, 2, 74, 127
2, 188211, Note_off_c, 2, 74, 127
2, 188211, Note_off_c, 12, 71, 127
2, 188211, Note_off_c, 7, 43, 127
2, 188213, Note_on_c, 10, 45, 127
2, 188213, Note_on_c, 10, 69, 127
2, 188213, Note_on_c, 0, 72, 127
2, 188376, Note_off_c, 0, 72, 127
2, 188376, Note_off_c, 10, 69, 127
2, 188376, Note_off_c, 10, 45, 127
2, 188377, Note_on_c, 12, 47, 127
2, 188377, Note_on_c, 7, 67, 127
2, 188377, Note_on_c, 12, 71, 127
2, 188540, Note_off_c, 12, 71, 127
2, 188540, Note_off_c, 7, 67, 127
2, 188540, Note_off_c, 12, 47, 127
2, 188546, Note_on_c, 0, 72, 127
2, 188546, Note_on_c, 10, 69, 127
2, 188546, Note_on_c, 10, 45, 127
2, 188716, Note_off_c, 10, 45, 127
2, 188716, Note_off_c, 10, 69, 127
2, 188716, Note_off_c, 0, 72, 127
2, 188722, Note_on_c, 2, 74, 127
2, 188722, Note_on_c, 12, 71, 127
2, 188722, Note_on_c, 7, 43, 127
2, 188887, Note_off_c, 7, 43, 127
2, 188890, Note_on_c, 7, 55, 127
2, 188971, Note_off_c, 7, 55, 127
2, 188972, Note_on_c, 6, 54, 127
2, 189053, Note_off_c, 6, 54, 127
2, 189053, Note_off_c, 12, 71, 127
2, 189053, Note_off_c, 2, 74, 127
2, 189055, Note_on_c, 0, 72, 127
2, 189055, Note_on_c, 10, 69, 127
2, 189055, Note_on_c, 4, 52, 127
2, 189220, Note_off_c, 4, 52, 127
2, 189223, Note_on_c, 7, 55, 127
2, 189388, Note_off_c, 7, 55, 127
2, 189388, Note_off_c, 10, 69, 127
2, 189388, Note_off_c, 0, 72, 127
2, 189390, Note_on_c, 12, 71, 127
2, 189390, Note_on_c, 7, 67, 127
2, 189390, Note_on_c, 2, 50, 127
2, 189555, Note_off_c, 2, 50, 127
2, 189557, Note_on_c, 7, 55, 127
2, 189722, Note_off_c, 7, 55, 127
2, 189723, Note_off_c, 12, 71, 127
2, 189725, Note_on_c, 10, 69, 127
2, 189725, Note_on_c, 1, 49, 127
2, 189890, Note_off_c, 1, 49, 127
2, 189892, Note_on_c, 7, 55, 127
2, 190057, Note_off_c, 7, 55, 127
2, 190057, Note_off_c, 7, 67, 127
2, 190058, Note_off_c, 10, 69, 127
2, 190059, Note_on_c, 7, 79, 127
2, 190059, Note_on_c, 2, 74, 127
2, 190059, Note_on_c, 12, 47, 127
2, 190224, Note_off_c, 12, 47, 127
2, 190227, Note_on_c, 7, 55, 127
2, 190392, Note_off_c, 7, 55, 127
2, 190392, Note_off_c, 2, 74, 127
2, 190394, Note_on_c, 1, 73, 127
2, 190394, Note_on_c, 10, 45, 127
2, 190568, Note_off_c, 10, 45, 127
2, 190568, Note_on_c, 7, 55, 127
2, 190726, Note_off_c, 7, 79, 127
2, 190727, Note_off_c, 1, 73, 127
2, 190744, Note_off_c, 7, 55, 127
2, 190744, Note_on_c, 2, 50, 127
2, 190744, Note_on_c, 2, 74, 127
2, 190744, Note_on_c, 6, 78, 127
2, 190911, Note_off_c, 2, 50, 127
2, 190913, Note_on_c, 0, 48, 127
2, 191080, Note_off_c, 0, 48, 127
2, 191080, Note_off_c, 6, 78, 127
2, 191080, Note_off_c, 2, 74, 127
2, 191082, Note_on_c, 11, 46, 127
2, 191082, Note_on_c, 7, 67, 127
2, 191082, Note_on_c, 4, 76, 127
2, 191249, Note_off_c, 11, 46, 127
2, 191251, Note_on_c, 2, 50, 127
2, 191418, Note_off_c, 2, 50, 127
2, 191418, Note_off_c, 4, 76, 127
2, 191418, Note_off_c, 7, 67, 127
2, 191419, Note_on_c, 10, 45, 127
2, 191419, Note_on_c, 6, 66, 127
2, 191419, Note_on_c, 2, 74, 127
2, 191586, Note_off_c, 10, 45, 127
2, 191588, Note_on_c, 2, 50, 127
2, 191755, Note_off_c, 2, 50, 127
2, 191755, Note_off_c, 2, 74, 127
2, 191755, Note_off_c, 6, 66, 127
2, 191757, Note_on_c, 7, 43, 127
2, 191757, Note_on_c, 4, 64, 127
2, 191757, Note_on_c, 1, 73, 127
2, 191924, Note_off_c, 7, 43, 127
2, 191926, Note_on_c, 4, 52, 127
2, 192055, Note_off_c, 1, 73, 127
2, 192055, Note_off_c, 4, 64, 127
2, 192093, Note_off_c, 4, 52, 127
2, 192094, Note_on_c, 6, 42, 127
2, 192094, Note_on_c, 1, 73, 127
2, 192094, Note_on_c, 11, 82, 127
2, 192261, Note_off_c, 6, 42, 127
2, 192263, Note_on_c, 4, 52, 127
2, 192430, Note_off_c, 4, 52, 127
2, 192432, Note_on_c, 4, 40, 127
2, 192610, Note_on_c, 4, 52, 127
2, 192621, Note_off_c, 4, 40, 127
2, 192783, Note_off_c, 11, 82, 127
2, 192784, Note_off_c, 1, 73, 127
2, 192785, Note_on_c, 10, 81, 127
2, 192785, Note_on_c, 0, 72, 127
2, 192785, Note_on_c, 6, 42, 127
2, 192793, Note_off_c, 4, 52, 127
2, 192958, Note_off_c, 10, 81, 127
2, 192960, Note_on_c, 7, 79, 127
2, 193132, Note_off_c, 6, 42, 127
2, 193133, Note_off_c, 7, 79, 127
2, 193134, Note_on_c, 6, 78, 127
2, 193134, Note_on_c, 2, 38, 127
2, 193307, Note_off_c, 6, 78, 127
2, 193309, Note_on_c, 4, 76, 127
2, 193481, Note_off_c, 2, 38, 127
2, 193482, Note_off_c, 4, 76, 127
2, 193483, Note_on_c, 2, 74, 127
2, 193483, Note_on_c, 7, 43, 127
2, 193655, Note_off_c, 0, 72, 127
2, 193658, Note_on_c, 12, 71, 127
2, 193743, Note_off_c, 12, 71, 127
2, 193745, Note_on_c, 10, 69, 127
2, 193830, Note_off_c, 10, 69, 127
2, 193830, Note_off_c, 7, 43, 127
2, 193832, Note_on_c, 12, 71, 127
2, 193832, Note_on_c, 4, 40, 127
2, 194004, Note_off_c, 2, 74, 127
2, 194007, Note_on_c, 7, 79, 127
2, 194179, Note_off_c, 4, 40, 127
2, 194179, Note_off_c, 12, 71, 127
2, 194180, Note_off_c, 7, 79, 127
2, 194181, Note_on_c, 10, 69, 127
2, 194181, Note_on_c, 0, 36, 127
2, 194356, Note_on_c, 0, 72, 127
2, 194528, Note_off_c, 0, 36, 127
2, 194529, Note_off_c, 0, 72, 127
2, 194530, Note_on_c, 7, 79, 127
2, 194530, Note_on_c, 2, 38, 127
2, 194712, Note_on_c, 6, 78, 127
2, 194715, Note_off_c, 7, 79, 127
2, 194877, Note_off_c, 2, 38, 127
2, 194877, Note_off_c, 10, 69, 127
2, 194895, Note_on_c, 7, 55, 127
2, 194895, Note_on_c, 7, 43, 127
2, 194895, Note_on_c, 12, 71, 127
2, 194895, Note_on_c, 7, 79, 127
2, 194899, Note_off_c, 6, 78, 127
2, 195075, Note_on_c, 6, 78, 127
2, 195163, Note_off_c, 6, 78, 127
2, 195165, Note_on_c, 4, 76, 127
2, 195253, Note_off_c, 4, 76, 127
2, 195253, Note_off_c, 12, 71, 127
2, 195255, Note_on_c, 12, 71, 127
2, 195255, Note_on_c, 2, 74, 127
2, 195421, Note_off_c, 7, 79, 127
2, 195437, Note_on_c, 7, 79, 127
2, 195612, Note_off_c, 2, 74, 127
2, 195613, Note_off_c, 12, 71, 127
2, 195616, Note_on_c, 10, 69, 127
2, 195616, Note_on_c, 0, 72, 127
2, 195791, Note_off_c, 7, 79, 127
2, 195796, Note_on_c, 7, 79, 127
2, 195972, Note_off_c, 0, 72, 127
2, 195973, Note_off_c, 7, 79, 127
2, 195973, Note_off_c, 10, 69, 127
2, 195975, Note_on_c, 7, 67, 127
2, 195975, Note_on_c, 12, 71, 127
2, 196153, Note_off_c, 7, 43, 127
2, 196155, Note_on_c, 7, 43, 127
2, 196243, Note_off_c, 7, 43, 127
2, 196245, Note_on_c, 10, 45, 127
2, 196333, Note_off_c, 10, 45, 127
2, 196335, Note_on_c, 12, 47, 127
2, 196335, Note_on_c, 7, 79, 127
2, 196515, Note_on_c, 7, 43, 127
2, 196688, Note_off_c, 12, 71, 127
2, 196692, Note_off_c, 12, 47, 127
2, 196693, Note_off_c, 7, 79, 127
2, 196694, Note_off_c, 7, 67, 127
2, 196695, Note_on_c, 0, 48, 127
2, 196695, Note_on_c, 6, 66, 127
2, 196695, Note_on_c, 10, 69, 127
2, 196871, Note_off_c, 7, 43, 127
2, 196875, Note_on_c, 7, 43, 127
2, 197051, Note_off_c, 0, 48, 127
2, 197052, Note_off_c, 10, 69, 127
2, 197052, Note_off_c, 6, 66, 127
2, 197054, Note_on_c, 2, 50, 127
2, 197054, Note_on_c, 7, 67, 127
2, 197054, Note_on_c, 12, 71, 127
2, 197235, Note_off_c, 12, 71, 127
2, 197237, Note_on_c, 2, 74, 127
2, 197327, Note_off_c, 2, 74, 127
2, 197329, Note_on_c, 0, 72, 127
2, 197415, Note_off_c, 7, 43, 127
2, 197417, Note_off_c, 0, 72, 127
2, 197417, Note_off_c, 7, 67, 127
2, 197417, Note_off_c, 2, 50, 127
2, 197419, Note_on_c, 7, 43, 127
2, 197419, Note_on_c, 7, 67, 127
2, 197419, Note_on_c, 12, 71, 127
2, 197602, Note_on_c, 2, 74, 127
2, 197780, Note_off_c, 12, 71, 127
2, 197782, Note_off_c, 7, 67, 127
2, 197783, Note_on_c, 12, 47, 127
2, 197783, Note_on_c, 5, 65, 127
2, 197783, Note_on_c, 10, 69, 127
2, 197962, Note_off_c, 2, 74, 127
2, 197967, Note_on_c, 2, 74, 127
2, 198143, Note_off_c, 7, 55, 127
2, 198144, Note_off_c, 10, 69, 127
2, 198146, Note_off_c, 5, 65, 127
2, 198146, Note_off_c, 12, 47, 127
2, 198147, Note_off_c, 2, 74, 127
2, 198148, Note_on_c, 0, 48, 127
2, 198148, Note_on_c, 4, 64, 127
2, 198148, Note_on_c, 7, 67, 127
2, 198238, Note_off_c, 0, 48, 127
2, 198240, Note_on_c, 12, 47, 127
2, 198330, Note_off_c, 12, 47, 127
2, 198331, Note_on_c, 0, 48, 127
2, 198421, Note_off_c, 0, 48, 127
2, 198423, Note_on_c, 2, 50, 127
2, 198512, Note_off_c, 7, 67, 127
2, 198513, Note_off_c, 2, 50, 127
2, 198514, Note_on_c, 4, 52, 127
2, 198514, Note_on_c, 0, 72, 127
2, 198693, Note_off_c, 7, 43, 127
2, 198697, Note_on_c, 7, 43, 127
2, 198875, Note_off_c, 4, 52, 127
2, 198877, Note_off_c, 4, 64, 127
2, 198879, Note_on_c, 6, 54, 127
2, 198879, Note_on_c, 3, 63, 127
2, 199057, Note_off_c, 7, 43, 127
2, 199062, Note_on_c, 7, 43, 127
2, 199237, Note_off_c, 0, 72, 127
2, 199242, Note_off_c, 6, 54, 127
2, 199243, Note_off_c, 7, 43, 127
2, 199243, Note_off_c, 3, 63, 127
2, 199261, Note_on_c, 2, 62, 127
2, 199261, Note_on_c, 7, 55, 127
2, 199261, Note_on_c, 7, 43, 127
2, 199354, Note_on_c, 7, 67, 127
2, 199445, Note_off_c, 7, 67, 127
2, 199447, Note_on_c, 10, 69, 127
2, 199538, Note_off_c, 10, 69, 127
2, 199540, Note_on_c, 12, 71, 127
2, 199631, Note_off_c, 12, 71, 127
2, 199631, Note_off_c, 2, 62, 127
2, 199633, Note_on_c, 0, 72, 127
2, 199633, Note_on_c, 4, 64, 127
2, 199819, Note_on_c, 7, 67, 127
2, 200000, Note_off_c, 0, 72, 127
2, 200001, Note_off_c, 4, 64, 127
2, 200003, Note_on_c, 2, 74, 127
2, 200003, Note_on_c, 12, 71, 127
2, 200003, Note_on_c, 5, 65, 127
2, 200185, Note_off_c, 7, 67, 127
2, 200189, Note_on_c, 7, 67, 127
2, 200357, Note_off_c, 7, 67, 127
2, 200370, Note_off_c, 12, 71, 127
2, 200370, Note_off_c, 2, 74, 127
2, 200371, Note_off_c, 5, 65, 127
2, 200373, Note_on_c, 0, 72, 127
2, 200373, Note_on_c, 4, 76, 127
2, 200373, Note_on_c, 7, 67, 127
2, 200467, Note_off_c, 0, 72, 127
2, 200469, Note_on_c, 12, 71, 127
2, 200561, Note_off_c, 12, 71, 127
2, 200564, Note_on_c, 0, 72, 127
2, 200658, Note_off_c, 0, 72, 127
2, 200659, Note_on_c, 2, 74, 127
2, 200750, Note_off_c, 4, 76, 127
2, 200751, Note_off_c, 2, 74, 127
2, 200751, Note_off_c, 7, 67, 127
2, 200754, Note_on_c, 4, 76, 127
2, 200754, Note_on_c, 7, 67, 127
2, 200945, Note_on_c, 0, 72, 127
2, 201134, Note_off_c, 4, 76, 127
2, 201135, Note_off_c, 7, 67, 127
2, 201137, Note_on_c, 6, 78, 127
2, 201137, Note_on_c, 10, 69, 127
2, 201325, Note_off_c, 0, 72, 127
2, 201330, Note_on_c, 0, 72, 127
2, 201518, Note_off_c, 6, 78, 127
2, 201520, Note_off_c, 0, 72, 127
2, 201520, Note_off_c, 10, 69, 127
2, 201522, Note_on_c, 7, 79, 127
2, 201522, Note_on_c, 12, 71, 127
2, 201752, Note_on_c, 2, 74, 127
2, 201980, Note_off_c, 2, 74, 127
2, 201984, Note_on_c, 4, 76, 127
2, 202195, Note_off_c, 12, 71, 127
2, 202214, Note_on_c, 0, 72, 127
2, 202442, Note_off_c, 0, 72, 127
2, 202446, Note_on_c, 10, 69, 127
2, 202657, Note_off_c, 4, 76, 127
2, 202674, Note_off_c, 7, 79, 127
2, 202677, Note_on_c, 6, 78, 127
2, 202905, Note_off_c, 6, 78, 127
2, 202906, Note_off_c, 10, 69, 127
2, 202909, Note_on_c, 7, 79, 127
2, 202909, Note_on_c, 2, 74, 127
2, 202909, Note_on_c, 12, 71, 127
2, 202909, Note_on_c, 7, 67, 127
2, 204283, Note_off_c, 7, 43, 127
2, 204283, Note_off_c, 7, 55, 127
2, 207060, Note_off_c, 7, 67, 127
2, 207060, Note_off_c, 12, 71, 127
2, 207060, Note_off_c, 2, 74, 127
2, 207060, Note_off_c, 7, 79, 127
2, 211968, End_track
3, 0, Start_track
3, 0, Title_t, "MIDI"
3, 1536, End_track
0, 0, End_of_file
