0, 0, Header, 1, 3, 384
1, 0, Start_track
1, 0, Time_signature, 4, 2, 24, 8
1, 0, Tempo, 500000
1, 279552, End_track
2, 0, Start_track
2, 0, Text_t, "harpsichord: John Sankey"
2, 0, Program_c, 0, 6
2, 0, Pitch_bend_c, 0, 8192
2, 0, Program_c, 1, 6
2, 0, Pitch_bend_c, 1, 7792
2, 0, Program_c, 2, 6
2, 0, Pitch_bend_c, 2, 7876
2, 0, Program_c, 3, 6
2, 0, Pitch_bend_c, 3, 7952
2, 0, Program_c, 4, 6
2, 0, Pitch_bend_c, 4, 7792
2, 0, Program_c, 5, 6
2, 0, Pitch_bend_c, 5, 8112
2, 0, Program_c, 6, 6
2, 0, Pitch_bend_c, 6, 7712
2, 0, Program_c, 7, 6
2, 0, Pitch_bend_c, 7, 8037
2, 0, Program_c, 8, 6
2, 0, Pitch_bend_c, 8, 7872
2, 0, Program_c, 10, 6
2, 0, Pitch_bend_c, 10, 7712
2, 0, Program_c, 11, 6
2, 0, Pitch_bend_c, 11, 8032
2, 0, Program_c, 12, 6
2, 0, Pitch_bend_c, 12, 7872
2, 0, Title_t, "Track 1"
2, 64, Note_on_c, 5, 65, 127
2, 64, Note_on_c, 5, 53, 127
2, 64, Note_on_c, 8, 56, 127
2, 337, Note_on_c, 8, 68, 127
2, 607, Note_off_c, 8, 68, 127
2, 611, Note_on_c, 0, 72, 127
2, 881, Note_off_c, 0, 72, 127
2, 884, Note_on_c, 5, 77, 127
2, 1147, Note_off_c, 5, 65, 127
2, 1155, Note_off_c, 8, 56, 127
2, 1158, Note_on_c, 7, 67, 127
2, 1158, Note_on_c, 11, 58, 127
2, 1425, Note_off_c, 5, 77, 127
2, 1432, Note_on_c, 5, 77, 127
2, 1702, Note_off_c, 5, 77, 127
2, 1705, Note_on_c, 4, 76, 127
2, 1975, Note_off_c, 4, 76, 127
2, 1979, Note_on_c, 7, 79, 127
2, 2241, Note_off_c, 7, 67, 127
2, 2249, Note_off_c, 7, 79, 127
2, 2249, Note_off_c, 11, 58, 127
2, 2249, Note_off_c, 5, 53, 127
2, 2252, Note_on_c, 8, 68, 127
2, 2252, Note_on_c, 5, 53, 127
2, 2252, Note_on_c, 0, 60, 127
2, 2526, Note_on_c, 0, 72, 127
2, 2796, Note_off_c, 0, 72, 127
2, 2800, Note_on_c, 5, 77, 127
2, 3070, Note_off_c, 5, 77, 127
2, 3073, Note_on_c, 4, 76, 127
2, 3343, Note_off_c, 4, 76, 127
2, 3343, Note_off_c, 0, 60, 127
2, 3347, Note_on_c, 5, 77, 127
2, 3347, Note_on_c, 8, 56, 127
2, 3620, Note_off_c, 8, 68, 127
2, 3620, Note_on_c, 0, 72, 127
2, 3890, Note_off_c, 0, 72, 127
2, 3894, Note_on_c, 11, 70, 127
2, 4164, Note_off_c, 11, 70, 127
2, 4168, Note_on_c, 8, 68, 127
2, 4430, Note_off_c, 5, 77, 127
2, 4437, Note_off_c, 5, 53, 127
2, 4438, Note_off_c, 8, 56, 127
2, 4441, Note_on_c, 1, 73, 127
2, 4441, Note_on_c, 5, 53, 127
2, 4441, Note_on_c, 11, 58, 127
2, 4709, Note_off_c, 8, 68, 127
2, 4715, Note_on_c, 8, 68, 127
2, 4985, Note_off_c, 8, 68, 127
2, 4988, Note_on_c, 7, 67, 127
2, 5258, Note_off_c, 7, 67, 127
2, 5262, Note_on_c, 11, 70, 127
2, 5532, Note_off_c, 11, 70, 127
2, 5532, Note_off_c, 11, 58, 127
2, 5536, Note_on_c, 4, 64, 127
2, 5536, Note_on_c, 7, 55, 127
2, 5786, Note_off_c, 1, 73, 127
2, 5809, Note_on_c, 1, 73, 127
2, 6079, Note_off_c, 1, 73, 127
2, 6083, Note_on_c, 0, 72, 127
2, 6353, Note_off_c, 0, 72, 127
2, 6356, Note_on_c, 11, 70, 127
2, 6619, Note_off_c, 4, 64, 127
2, 6626, Note_off_c, 11, 70, 127
2, 6626, Note_off_c, 5, 53, 127
2, 6627, Note_off_c, 7, 55, 127
2, 6630, Note_on_c, 5, 65, 127
2, 6630, Note_on_c, 8, 68, 127
2, 6630, Note_on_c, 5, 53, 127
2, 6763, Note_off_c, 8, 68, 127
2, 6763, Note_off_c, 5, 65, 127
2, 6767, Note_on_c, 7, 67, 127
2, 6900, Note_off_c, 7, 67, 127
2, 6904, Note_on_c, 8, 68, 127
2, 6904, Note_on_c, 8, 56, 127
2, 7174, Note_off_c, 8, 56, 127
2, 7177, Note_on_c, 0, 60, 127
2, 7447, Note_off_c, 0, 60, 127
2, 7451, Note_on_c, 5, 65, 127
2, 7573, Note_off_c, 8, 68, 127
2, 7588, Note_on_c, 11, 70, 127
2, 7713, Note_off_c, 5, 53, 127
2, 7721, Note_off_c, 11, 70, 127
2, 7724, Note_on_c, 0, 72, 127
2, 7724, Note_on_c, 7, 55, 127
2, 7857, Note_off_c, 0, 72, 127
2, 7861, Note_on_c, 11, 70, 127
2, 7992, Note_off_c, 5, 65, 127
2, 7994, Note_off_c, 11, 70, 127
2, 7998, Note_on_c, 0, 72, 127
2, 7998, Note_on_c, 5, 65, 127
2, 8131, Note_off_c, 0, 72, 127
2, 8135, Note_on_c, 11, 70, 127
2, 8268, Note_off_c, 11, 70, 127
2, 8268, Note_off_c, 5, 65, 127
2, 8272, Note_on_c, 0, 72, 127
2, 8272, Note_on_c, 4, 64, 127
2, 8405, Note_off_c, 0, 72, 127
2, 8408, Note_on_c, 11, 70, 127
2, 8541, Note_off_c, 11, 70, 127
2, 8542, Note_off_c, 4, 64, 127
2, 8545, Note_on_c, 8, 68, 127
2, 8545, Note_on_c, 7, 67, 127
2, 8678, Note_off_c, 8, 68, 127
2, 8682, Note_on_c, 11, 70, 127
2, 8807, Note_off_c, 7, 55, 127
2, 8815, Note_off_c, 11, 70, 127
2, 8815, Note_off_c, 7, 67, 127
2, 8819, Note_on_c, 0, 72, 127
2, 8819, Note_on_c, 8, 56, 127
2, 9092, Note_on_c, 8, 68, 127
2, 9362, Note_off_c, 8, 68, 127
2, 9366, Note_on_c, 4, 64, 127
2, 9636, Note_off_c, 4, 64, 127
2, 9640, Note_on_c, 5, 65, 127
2, 9902, Note_off_c, 0, 72, 127
2, 9910, Note_off_c, 5, 65, 127
2, 9910, Note_off_c, 8, 56, 127
2, 9913, Note_on_c, 1, 61, 127
2, 9913, Note_on_c, 11, 58, 127
2, 10187, Note_on_c, 1, 73, 127
2, 10460, Note_on_c, 7, 67, 127
2, 10728, Note_off_c, 1, 73, 127
2, 10734, Note_on_c, 11, 70, 127
2, 10825, Note_off_c, 1, 61, 127
2, 11001, Note_off_c, 7, 67, 127
2, 11004, Note_off_c, 11, 70, 127
2, 11004, Note_off_c, 11, 58, 127
2, 11008, Note_on_c, 0, 60, 127
2, 11008, Note_on_c, 4, 64, 127
2, 11008, Note_on_c, 0, 48, 127
2, 11281, Note_on_c, 4, 52, 127
2, 11549, Note_off_c, 0, 60, 127
2, 11551, Note_off_c, 4, 52, 127
2, 11555, Note_on_c, 7, 55, 127
2, 11825, Note_off_c, 7, 55, 127
2, 11828, Note_on_c, 0, 60, 127
2, 11948, Note_off_c, 4, 64, 127
2, 11965, Note_on_c, 5, 65, 127
2, 12091, Note_off_c, 0, 48, 127
2, 12098, Note_off_c, 5, 65, 127
2, 12102, Note_on_c, 7, 67, 127
2, 12102, Note_on_c, 1, 49, 127
2, 12235, Note_off_c, 7, 67, 127
2, 12239, Note_on_c, 5, 65, 127
2, 12369, Note_off_c, 0, 60, 127
2, 12372, Note_off_c, 5, 65, 127
2, 12376, Note_on_c, 7, 67, 127
2, 12376, Note_on_c, 0, 60, 127
2, 12509, Note_off_c, 7, 67, 127
2, 12512, Note_on_c, 5, 65, 127
2, 12645, Note_off_c, 5, 65, 127
2, 12646, Note_off_c, 0, 60, 127
2, 12649, Note_on_c, 7, 67, 127
2, 12649, Note_on_c, 11, 58, 127
2, 12782, Note_off_c, 7, 67, 127
2, 12786, Note_on_c, 5, 65, 127
2, 12919, Note_off_c, 5, 65, 127
2, 12919, Note_off_c, 11, 58, 127
2, 12923, Note_on_c, 4, 64, 127
2, 12923, Note_on_c, 1, 61, 127
2, 13056, Note_off_c, 4, 64, 127
2, 13060, Note_on_c, 5, 65, 127
2, 13185, Note_off_c, 1, 49, 127
2, 13193, Note_off_c, 5, 65, 127
2, 13193, Note_off_c, 1, 61, 127
2, 13196, Note_on_c, 7, 67, 127
2, 13196, Note_on_c, 4, 52, 127
2, 13470, Note_on_c, 0, 72, 127
2, 13740, Note_off_c, 0, 72, 127
2, 13744, Note_on_c, 11, 70, 127
2, 13744, Note_on_c, 7, 55, 127
2, 14014, Note_off_c, 11, 70, 127
2, 14017, Note_on_c, 1, 73, 127
2, 14279, Note_off_c, 7, 67, 127
2, 14288, Note_off_c, 7, 55, 127
2, 14291, Note_on_c, 4, 64, 127
2, 14291, Note_on_c, 0, 60, 127
2, 14558, Note_off_c, 1, 73, 127
2, 14564, Note_on_c, 1, 73, 127
2, 14834, Note_off_c, 1, 73, 127
2, 14834, Note_off_c, 4, 52, 127
2, 14838, Note_on_c, 0, 72, 127
2, 14838, Note_on_c, 0, 48, 127
2, 15108, Note_off_c, 0, 72, 127
2, 15112, Note_on_c, 11, 70, 127
2, 15260, Note_off_c, 0, 60, 127
2, 15374, Note_off_c, 4, 64, 127
2, 15382, Note_off_c, 11, 70, 127
2, 15382, Note_off_c, 0, 48, 127
2, 15385, Note_on_c, 3, 63, 127
2, 15385, Note_on_c, 10, 69, 127
2, 15385, Note_on_c, 5, 41, 127
2, 15530, Note_off_c, 10, 69, 127
2, 15533, Note_on_c, 7, 67, 127
2, 15659, Note_on_c, 10, 45, 127
2, 15678, Note_off_c, 7, 67, 127
2, 15682, Note_on_c, 10, 69, 127
2, 15929, Note_off_c, 10, 45, 127
2, 15932, Note_on_c, 0, 48, 127
2, 16202, Note_off_c, 0, 48, 127
2, 16206, Note_on_c, 5, 53, 127
2, 16340, Note_off_c, 10, 69, 127
2, 16343, Note_on_c, 11, 70, 127
2, 16468, Note_off_c, 5, 41, 127
2, 16468, Note_off_c, 3, 63, 127
2, 16476, Note_off_c, 11, 70, 127
2, 16480, Note_on_c, 0, 72, 127
2, 16480, Note_on_c, 6, 42, 127
2, 16613, Note_off_c, 0, 72, 127
2, 16616, Note_on_c, 11, 70, 127
2, 16747, Note_off_c, 5, 53, 127
2, 16749, Note_off_c, 11, 70, 127
2, 16753, Note_on_c, 0, 72, 127
2, 16753, Note_on_c, 5, 53, 127
2, 16886, Note_off_c, 0, 72, 127
2, 16890, Note_on_c, 11, 70, 127
2, 17023, Note_off_c, 11, 70, 127
2, 17023, Note_off_c, 5, 53, 127
2, 17027, Note_on_c, 0, 72, 127
2, 17027, Note_on_c, 3, 51, 127
2, 17160, Note_off_c, 0, 72, 127
2, 17164, Note_on_c, 11, 70, 127
2, 17297, Note_off_c, 11, 70, 127
2, 17297, Note_off_c, 3, 51, 127
2, 17300, Note_on_c, 10, 69, 127
2, 17300, Note_on_c, 6, 54, 127
2, 17433, Note_off_c, 10, 69, 127
2, 17437, Note_on_c, 11, 70, 127
2, 17563, Note_off_c, 6, 42, 127
2, 17570, Note_off_c, 11, 70, 127
2, 17570, Note_off_c, 6, 54, 127
2, 17574, Note_on_c, 0, 72, 127
2, 17574, Note_on_c, 10, 45, 127
2, 17848, Note_on_c, 5, 65, 127
2, 18118, Note_off_c, 5, 65, 127
2, 18118, Note_off_c, 10, 45, 127
2, 18121, Note_on_c, 3, 63, 127
2, 18121, Note_on_c, 0, 48, 127
2, 18391, Note_off_c, 3, 63, 127
2, 18395, Note_on_c, 6, 66, 127
2, 18665, Note_off_c, 0, 48, 127
2, 18668, Note_on_c, 10, 45, 127
2, 18939, Note_off_c, 6, 66, 127
2, 18942, Note_on_c, 6, 66, 127
2, 19212, Note_off_c, 6, 66, 127
2, 19212, Note_off_c, 10, 45, 127
2, 19216, Note_on_c, 5, 65, 127
2, 19216, Note_on_c, 5, 41, 127
2, 19486, Note_off_c, 5, 65, 127
2, 19489, Note_on_c, 3, 63, 127
2, 19759, Note_off_c, 3, 63, 127
2, 19759, Note_off_c, 0, 72, 127
2, 19760, Note_off_c, 5, 41, 127
2, 19763, Note_on_c, 1, 61, 127
2, 19763, Note_on_c, 11, 46, 127
2, 20036, Note_on_c, 0, 72, 127
2, 20306, Note_off_c, 0, 72, 127
2, 20310, Note_on_c, 11, 70, 127
2, 20580, Note_off_c, 11, 70, 127
2, 20584, Note_on_c, 1, 73, 127
2, 20854, Note_off_c, 1, 73, 127
2, 20857, Note_on_c, 7, 67, 127
2, 21128, Note_off_c, 11, 46, 127
2, 21131, Note_on_c, 11, 46, 127
2, 21401, Note_off_c, 11, 46, 127
2, 21401, Note_off_c, 7, 67, 127
2, 21404, Note_on_c, 11, 70, 127
2, 21404, Note_on_c, 0, 48, 127
2, 21537, Note_off_c, 11, 70, 127
2, 21541, Note_on_c, 8, 68, 127
2, 21674, Note_off_c, 8, 68, 127
2, 21674, Note_off_c, 0, 48, 127
2, 21678, Note_on_c, 7, 67, 127
2, 21678, Note_on_c, 1, 49, 127
2, 21811, Note_off_c, 7, 67, 127
2, 21815, Note_on_c, 8, 68, 127
2, 21948, Note_off_c, 8, 68, 127
2, 21948, Note_off_c, 1, 49, 127
2, 21948, Note_off_c, 1, 61, 127
2, 21952, Note_on_c, 11, 70, 127
2, 21952, Note_on_c, 7, 43, 127
2, 22225, Note_on_c, 0, 60, 127
2, 22495, Note_off_c, 0, 60, 127
2, 22496, Note_off_c, 7, 43, 127
2, 22499, Note_on_c, 1, 61, 127
2, 22499, Note_on_c, 11, 46, 127
2, 22769, Note_off_c, 1, 61, 127
2, 22772, Note_on_c, 5, 65, 127
2, 23043, Note_off_c, 11, 46, 127
2, 23046, Note_on_c, 3, 51, 127
2, 23046, Note_on_c, 7, 55, 127
2, 23316, Note_off_c, 5, 65, 127
2, 23320, Note_on_c, 5, 65, 127
2, 23590, Note_off_c, 5, 65, 127
2, 23590, Note_off_c, 7, 55, 127
2, 23590, Note_off_c, 3, 51, 127
2, 23593, Note_on_c, 3, 63, 127
2, 23593, Note_on_c, 3, 39, 127
2, 23863, Note_off_c, 3, 63, 127
2, 23867, Note_on_c, 1, 61, 127
2, 24137, Note_off_c, 1, 61, 127
2, 24137, Note_off_c, 3, 39, 127
2, 24137, Note_off_c, 11, 70, 127
2, 24140, Note_on_c, 0, 60, 127
2, 24140, Note_on_c, 8, 44, 127
2, 24414, Note_on_c, 8, 68, 127
2, 24414, Note_on_c, 0, 48, 127
2, 24684, Note_off_c, 0, 48, 127
2, 24684, Note_off_c, 8, 68, 127
2, 24688, Note_on_c, 0, 72, 127
2, 24688, Note_on_c, 3, 51, 127
2, 24958, Note_off_c, 3, 51, 127
2, 24961, Note_on_c, 8, 56, 127
2, 25223, Note_off_c, 8, 44, 127
2, 25223, Note_off_c, 0, 60, 127
2, 25235, Note_on_c, 1, 61, 127
2, 25235, Note_on_c, 11, 46, 127
2, 25486, Note_off_c, 0, 72, 127
2, 25502, Note_off_c, 8, 56, 127
2, 25508, Note_on_c, 11, 70, 127
2, 25508, Note_on_c, 8, 56, 127
2, 25778, Note_off_c, 8, 56, 127
2, 25778, Note_off_c, 11, 70, 127
2, 25782, Note_on_c, 1, 73, 127
2, 25782, Note_on_c, 7, 55, 127
2, 26052, Note_off_c, 7, 55, 127
2, 26056, Note_on_c, 11, 58, 127
2, 26318, Note_off_c, 11, 46, 127
2, 26318, Note_off_c, 1, 61, 127
2, 26326, Note_off_c, 11, 58, 127
2, 26329, Note_on_c, 3, 63, 127
2, 26329, Note_on_c, 0, 48, 127
2, 26580, Note_off_c, 1, 73, 127
2, 26603, Note_on_c, 0, 72, 127
2, 26603, Note_on_c, 3, 51, 127
2, 26873, Note_off_c, 3, 51, 127
2, 26873, Note_off_c, 0, 72, 127
2, 26876, Note_on_c, 3, 75, 127
2, 26876, Note_on_c, 8, 56, 127
2, 27146, Note_off_c, 8, 56, 127
2, 27150, Note_on_c, 0, 60, 127
2, 27412, Note_off_c, 0, 48, 127
2, 27412, Note_off_c, 3, 63, 127
2, 27424, Note_on_c, 5, 65, 127
2, 27424, Note_on_c, 1, 49, 127
2, 27674, Note_off_c, 3, 75, 127
2, 27691, Note_off_c, 0, 60, 127
2, 27697, Note_on_c, 1, 73, 127
2, 27697, Note_on_c, 0, 60, 127
2, 27967, Note_off_c, 0, 60, 127
2, 27967, Note_off_c, 1, 73, 127
2, 27971, Note_on_c, 5, 77, 127
2, 27971, Note_on_c, 11, 58, 127
2, 28241, Note_off_c, 11, 58, 127
2, 28244, Note_on_c, 1, 61, 127
2, 28507, Note_off_c, 1, 49, 127
2, 28507, Note_off_c, 5, 65, 127
2, 28514, Note_off_c, 1, 61, 127
2, 28518, Note_on_c, 7, 67, 127
2, 28518, Note_on_c, 3, 51, 127
2, 28791, Note_off_c, 5, 77, 127
2, 28792, Note_on_c, 3, 75, 127
2, 28792, Note_on_c, 7, 55, 127
2, 29059, Note_off_c, 7, 67, 127
2, 29062, Note_off_c, 7, 55, 127
2, 29062, Note_off_c, 3, 75, 127
2, 29065, Note_on_c, 1, 73, 127
2, 29065, Note_on_c, 11, 58, 127
2, 29335, Note_off_c, 11, 58, 127
2, 29335, Note_off_c, 1, 73, 127
2, 29339, Note_on_c, 0, 72, 127
2, 29339, Note_on_c, 3, 63, 127
2, 29601, Note_off_c, 3, 51, 127
2, 29609, Note_off_c, 0, 72, 127
2, 29612, Note_on_c, 11, 70, 127
2, 29612, Note_on_c, 5, 53, 127
2, 29880, Note_off_c, 3, 63, 127
2, 29882, Note_off_c, 11, 70, 127
2, 29886, Note_on_c, 7, 67, 127
2, 29886, Note_on_c, 3, 63, 127
2, 30156, Note_off_c, 3, 63, 127
2, 30156, Note_off_c, 7, 67, 127
2, 30160, Note_on_c, 8, 68, 127
2, 30160, Note_on_c, 1, 61, 127
2, 30430, Note_off_c, 1, 61, 127
2, 30430, Note_off_c, 8, 68, 127
2, 30433, Note_on_c, 1, 73, 127
2, 30433, Note_on_c, 5, 65, 127
2, 30695, Note_off_c, 5, 53, 127
2, 30703, Note_off_c, 5, 65, 127
2, 30703, Note_off_c, 1, 73, 127
2, 30707, Note_on_c, 0, 72, 127
2, 30707, Note_on_c, 7, 55, 127
2, 30980, Note_on_c, 5, 65, 127
2, 31066, Note_off_c, 0, 72, 127
2, 31072, Note_on_c, 11, 70, 127
2, 31163, Note_on_c, 0, 72, 127
2, 31186, Note_off_c, 11, 70, 127
2, 31250, Note_off_c, 5, 65, 127
2, 31254, Note_on_c, 11, 70, 127
2, 31254, Note_on_c, 3, 63, 127
2, 31277, Note_off_c, 0, 72, 127
2, 31345, Note_on_c, 0, 72, 127
2, 31368, Note_off_c, 11, 70, 127
2, 31436, Note_on_c, 11, 70, 127
2, 31459, Note_off_c, 0, 72, 127
2, 31524, Note_off_c, 3, 63, 127
2, 31528, Note_on_c, 1, 61, 127
2, 31790, Note_off_c, 7, 55, 127
2, 31798, Note_off_c, 1, 61, 127
2, 31801, Note_on_c, 0, 60, 127
2, 31801, Note_on_c, 8, 56, 127
2, 31809, Note_off_c, 11, 70, 127
2, 32075, Note_on_c, 3, 63, 127
2, 32345, Note_off_c, 3, 63, 127
2, 32345, Note_off_c, 8, 56, 127
2, 32348, Note_on_c, 5, 65, 127
2, 32348, Note_on_c, 7, 55, 127
2, 32618, Note_off_c, 5, 65, 127
2, 32622, Note_on_c, 7, 67, 127
2, 32892, Note_off_c, 7, 67, 127
2, 32892, Note_off_c, 7, 55, 127
2, 32896, Note_on_c, 8, 68, 127
2, 32896, Note_on_c, 5, 53, 127
2, 33166, Note_off_c, 8, 68, 127
2, 33169, Note_on_c, 7, 67, 127
2, 33439, Note_off_c, 7, 67, 127
2, 33440, Note_off_c, 5, 53, 127
2, 33443, Note_on_c, 8, 68, 127
2, 33443, Note_on_c, 1, 49, 127
2, 33716, Note_on_c, 5, 77, 127
2, 33986, Note_off_c, 5, 77, 127
2, 33986, Note_off_c, 0, 60, 127
2, 33987, Note_off_c, 1, 49, 127
2, 33990, Note_on_c, 3, 75, 127
2, 33990, Note_on_c, 3, 51, 127
2, 33990, Note_on_c, 0, 60, 127
2, 34241, Note_off_c, 8, 68, 127
2, 34264, Note_on_c, 8, 68, 127
2, 34354, Note_off_c, 0, 60, 127
2, 34355, Note_on_c, 11, 58, 127
2, 34446, Note_on_c, 0, 60, 127
2, 34469, Note_off_c, 11, 58, 127
2, 34534, Note_off_c, 8, 68, 127
2, 34537, Note_on_c, 7, 67, 127
2, 34537, Note_on_c, 11, 58, 127
2, 34560, Note_off_c, 0, 60, 127
2, 34788, Note_off_c, 3, 75, 127
2, 34811, Note_on_c, 1, 73, 127
2, 35073, Note_off_c, 3, 51, 127
2, 35078, Note_off_c, 7, 67, 127
2, 35081, Note_off_c, 1, 73, 127
2, 35081, Note_off_c, 11, 58, 127
2, 35084, Note_on_c, 0, 72, 127
2, 35084, Note_on_c, 8, 56, 127
2, 35084, Note_on_c, 8, 44, 127
2, 35384, Note_off_c, 0, 72, 127
2, 35396, Note_on_c, 8, 68, 127
2, 35666, Note_off_c, 8, 68, 127
2, 35680, Note_on_c, 0, 72, 127
2, 35950, Note_off_c, 0, 72, 127
2, 35953, Note_on_c, 4, 76, 127
2, 36184, Note_off_c, 8, 44, 127
2, 36223, Note_off_c, 4, 76, 127
2, 36227, Note_on_c, 5, 77, 127
2, 36464, Note_off_c, 8, 56, 127
2, 36497, Note_off_c, 5, 77, 127
2, 36500, Note_on_c, 8, 56, 127
2, 36506, Note_on_c, 7, 79, 127
2, 36762, Note_off_c, 7, 79, 127
2, 36770, Note_off_c, 8, 56, 127
2, 36774, Note_on_c, 7, 55, 127
2, 36774, Note_on_c, 4, 76, 127
2, 37044, Note_off_c, 7, 55, 127
2, 37048, Note_on_c, 5, 53, 127
2, 37048, Note_on_c, 5, 77, 127
2, 37059, Note_off_c, 4, 76, 127
2, 37304, Note_off_c, 5, 77, 127
2, 37318, Note_off_c, 5, 53, 127
2, 37321, Note_on_c, 4, 52, 127
2, 37321, Note_on_c, 7, 79, 127
2, 37577, Note_off_c, 7, 79, 127
2, 37578, Note_on_c, 5, 77, 127
2, 37595, Note_on_c, 7, 55, 127
2, 37675, Note_on_c, 7, 79, 127
2, 37692, Note_off_c, 5, 77, 127
2, 37771, Note_on_c, 5, 77, 127
2, 37789, Note_off_c, 7, 79, 127
2, 37865, Note_off_c, 7, 55, 127
2, 37868, Note_on_c, 11, 58, 127
2, 37868, Note_on_c, 7, 79, 127
2, 37885, Note_off_c, 5, 77, 127
2, 38138, Note_off_c, 11, 58, 127
2, 38142, Note_on_c, 1, 61, 127
2, 38404, Note_off_c, 4, 52, 127
2, 38412, Note_off_c, 1, 61, 127
2, 38416, Note_on_c, 0, 48, 127
2, 38689, Note_on_c, 5, 53, 127
2, 38959, Note_off_c, 5, 53, 127
2, 38963, Note_on_c, 4, 52, 127
2, 39233, Note_off_c, 4, 52, 127
2, 39236, Note_on_c, 7, 55, 127
2, 39499, Note_off_c, 0, 48, 127
2, 39506, Note_off_c, 7, 55, 127
2, 39510, Note_on_c, 5, 53, 127
2, 39510, Note_on_c, 8, 56, 127
2, 39780, Note_off_c, 7, 79, 127
2, 39784, Note_on_c, 0, 72, 127
2, 40054, Note_off_c, 0, 72, 127
2, 40057, Note_on_c, 5, 77, 127
2, 40327, Note_off_c, 5, 77, 127
2, 40331, Note_on_c, 8, 80, 127
2, 40593, Note_off_c, 5, 53, 127
2, 40601, Note_off_c, 8, 80, 127
2, 40604, Note_on_c, 2, 74, 127
2, 40874, Note_off_c, 2, 74, 127
2, 40878, Note_on_c, 5, 53, 127
2, 40878, Note_on_c, 5, 77, 127
2, 41148, Note_off_c, 5, 77, 127
2, 41148, Note_off_c, 5, 53, 127
2, 41152, Note_on_c, 3, 51, 127
2, 41152, Note_on_c, 12, 71, 127
2, 41410, Note_off_c, 8, 56, 127
2, 41422, Note_off_c, 3, 51, 127
2, 41425, Note_on_c, 2, 50, 127
2, 41502, Note_off_c, 12, 71, 127
2, 41508, Note_on_c, 0, 72, 127
2, 41664, Note_off_c, 0, 72, 127
2, 41695, Note_off_c, 2, 50, 127
2, 41699, Note_on_c, 7, 55, 127
2, 41699, Note_on_c, 0, 72, 127
2, 41972, Note_on_c, 12, 59, 127
2, 42060, Note_off_c, 0, 72, 127
2, 42064, Note_on_c, 12, 71, 127
2, 42155, Note_on_c, 0, 72, 127
2, 42178, Note_off_c, 12, 71, 127
2, 42242, Note_off_c, 12, 59, 127
2, 42246, Note_on_c, 2, 62, 127
2, 42246, Note_on_c, 12, 71, 127
2, 42269, Note_off_c, 0, 72, 127
2, 42516, Note_off_c, 2, 62, 127
2, 42520, Note_on_c, 7, 67, 127
2, 42656, Note_off_c, 12, 71, 127
2, 42656, Note_on_c, 0, 72, 127
2, 42782, Note_off_c, 7, 55, 127
2, 42789, Note_off_c, 0, 72, 127
2, 42793, Note_on_c, 8, 56, 127
2, 42793, Note_on_c, 2, 74, 127
2, 42926, Note_off_c, 2, 74, 127
2, 42930, Note_on_c, 0, 72, 127
2, 43061, Note_off_c, 7, 67, 127
2, 43063, Note_off_c, 0, 72, 127
2, 43067, Note_on_c, 7, 67, 127
2, 43067, Note_on_c, 2, 74, 127
2, 43200, Note_off_c, 2, 74, 127
2, 43204, Note_on_c, 0, 72, 127
2, 43337, Note_off_c, 0, 72, 127
2, 43337, Note_off_c, 7, 67, 127
2, 43340, Note_on_c, 5, 65, 127
2, 43340, Note_on_c, 2, 74, 127
2, 43473, Note_off_c, 2, 74, 127
2, 43477, Note_on_c, 0, 72, 127
2, 43610, Note_off_c, 0, 72, 127
2, 43610, Note_off_c, 5, 65, 127
2, 43614, Note_on_c, 8, 68, 127
2, 43614, Note_on_c, 12, 71, 127
2, 43747, Note_off_c, 12, 71, 127
2, 43751, Note_on_c, 0, 72, 127
2, 43876, Note_off_c, 8, 56, 127
2, 43884, Note_off_c, 0, 72, 127
2, 43884, Note_off_c, 8, 68, 127
2, 43888, Note_on_c, 12, 59, 127
2, 43888, Note_on_c, 2, 74, 127
2, 44161, Note_on_c, 7, 79, 127
2, 44431, Note_off_c, 7, 79, 127
2, 44435, Note_on_c, 2, 62, 127
2, 44435, Note_on_c, 5, 77, 127
2, 44705, Note_off_c, 5, 77, 127
2, 44708, Note_on_c, 8, 80, 127
2, 44971, Note_off_c, 2, 74, 127
2, 44979, Note_off_c, 2, 62, 127
2, 44982, Note_on_c, 7, 67, 127
2, 44982, Note_on_c, 12, 71, 127
2, 45249, Note_off_c, 8, 80, 127
2, 45256, Note_on_c, 8, 80, 127
2, 45526, Note_off_c, 8, 80, 127
2, 45526, Note_off_c, 12, 59, 127
2, 45529, Note_on_c, 7, 55, 127
2, 45529, Note_on_c, 7, 79, 127
2, 45799, Note_off_c, 7, 79, 127
2, 45803, Note_on_c, 5, 77, 127
2, 46065, Note_off_c, 12, 71, 127
2, 46065, Note_off_c, 7, 67, 127
2, 46073, Note_off_c, 5, 77, 127
2, 46073, Note_off_c, 7, 55, 127
2, 46076, Note_on_c, 0, 60, 127
2, 46076, Note_on_c, 3, 75, 127
2, 46350, Note_on_c, 0, 84, 127
2, 46617, Note_off_c, 3, 75, 127
2, 46624, Note_on_c, 8, 56, 127
2, 46624, Note_on_c, 5, 77, 127
2, 46891, Note_off_c, 0, 84, 127
2, 46897, Note_on_c, 12, 83, 127
2, 47165, Note_off_c, 5, 77, 127
2, 47167, Note_off_c, 12, 83, 127
2, 47168, Note_off_c, 8, 56, 127
2, 47171, Note_on_c, 3, 51, 127
2, 47171, Note_on_c, 0, 84, 127
2, 47444, Note_on_c, 7, 79, 127
2, 47714, Note_off_c, 7, 79, 127
2, 47715, Note_off_c, 3, 51, 127
2, 47718, Note_on_c, 5, 53, 127
2, 47718, Note_on_c, 8, 80, 127
2, 47988, Note_off_c, 8, 80, 127
2, 47992, Note_on_c, 5, 77, 127
2, 48254, Note_off_c, 0, 84, 127
2, 48262, Note_off_c, 5, 77, 127
2, 48262, Note_off_c, 5, 53, 127
2, 48265, Note_on_c, 7, 55, 127
2, 48265, Note_on_c, 3, 75, 127
2, 48539, Note_on_c, 12, 71, 127
2, 48809, Note_off_c, 12, 71, 127
2, 48812, Note_on_c, 0, 72, 127
2, 49086, Note_on_c, 6, 66, 127
2, 49356, Note_off_c, 6, 66, 127
2, 49360, Note_on_c, 7, 67, 127
2, 49610, Note_off_c, 0, 72, 127
2, 49633, Note_off_c, 3, 75, 127
2, 49633, Note_on_c, 0, 72, 127
2, 49903, Note_off_c, 0, 72, 127
2, 49907, Note_on_c, 12, 59, 127
2, 49907, Note_on_c, 2, 74, 127
2, 49917, Note_off_c, 0, 60, 127
2, 50180, Note_off_c, 7, 67, 127
2, 50180, Note_on_c, 5, 65, 127
2, 50448, Note_off_c, 2, 74, 127
2, 50450, Note_off_c, 7, 55, 127
2, 50451, Note_off_c, 12, 59, 127
2, 50454, Note_on_c, 0, 48, 127
2, 50454, Note_on_c, 0, 60, 127
2, 50454, Note_on_c, 0, 72, 127
2, 50721, Note_off_c, 5, 65, 127
2, 50728, Note_on_c, 5, 65, 127
2, 50998, Note_off_c, 5, 65, 127
2, 50998, Note_off_c, 0, 60, 127
2, 51001, Note_on_c, 7, 55, 127
2, 51001, Note_on_c, 4, 64, 127
2, 51275, Note_on_c, 7, 67, 127
2, 51545, Note_off_c, 7, 67, 127
2, 51548, Note_on_c, 0, 60, 127
2, 51799, Note_off_c, 4, 64, 127
2, 51829, Note_off_c, 7, 55, 127
2, 51834, Note_on_c, 5, 53, 127
2, 52104, Note_off_c, 5, 53, 127
2, 52112, Note_on_c, 4, 52, 127
2, 52382, Note_off_c, 4, 52, 127
2, 52390, Note_on_c, 7, 55, 127
2, 52548, Note_off_c, 0, 48, 127
2, 52639, Note_off_c, 0, 72, 127
2, 52660, Note_off_c, 7, 55, 127
2, 52671, Note_off_c, 0, 60, 127
2, 52675, Note_on_c, 10, 45, 127
2, 52675, Note_on_c, 5, 65, 127
2, 52948, Note_on_c, 10, 69, 127
2, 53218, Note_off_c, 10, 69, 127
2, 53222, Note_on_c, 5, 53, 127
2, 53222, Note_on_c, 0, 72, 127
2, 53492, Note_off_c, 0, 72, 127
2, 53496, Note_on_c, 3, 75, 127
2, 53758, Note_off_c, 5, 65, 127
2, 53758, Note_off_c, 10, 45, 127
2, 53769, Note_on_c, 5, 41, 127
2, 53769, Note_on_c, 10, 69, 127
2, 54037, Note_off_c, 3, 75, 127
2, 54043, Note_on_c, 6, 78, 127
2, 54305, Note_off_c, 5, 53, 127
2, 54313, Note_off_c, 6, 78, 127
2, 54316, Note_on_c, 5, 53, 127
2, 54316, Note_on_c, 0, 72, 127
2, 54586, Note_off_c, 0, 72, 127
2, 54590, Note_on_c, 3, 75, 127
2, 54852, Note_off_c, 10, 69, 127
2, 54852, Note_off_c, 5, 41, 127
2, 54860, Note_off_c, 3, 75, 127
2, 54860, Note_off_c, 5, 53, 127
2, 54864, Note_on_c, 11, 46, 127
2, 54864, Note_on_c, 1, 73, 127
2, 55137, Note_on_c, 1, 49, 127
2, 55407, Note_off_c, 1, 49, 127
2, 55411, Note_on_c, 5, 53, 127
2, 55411, Note_on_c, 11, 70, 127
2, 55681, Note_off_c, 5, 53, 127
2, 55684, Note_on_c, 11, 58, 127
2, 55947, Note_off_c, 11, 46, 127
2, 55955, Note_off_c, 11, 70, 127
2, 55958, Note_on_c, 0, 48, 127
2, 55958, Note_on_c, 4, 64, 127
2, 56225, Note_off_c, 11, 58, 127
2, 56232, Note_on_c, 11, 58, 127
2, 56502, Note_off_c, 11, 58, 127
2, 56502, Note_off_c, 1, 73, 127
2, 56505, Note_on_c, 8, 56, 127
2, 56505, Note_on_c, 0, 72, 127
2, 56775, Note_off_c, 8, 56, 127
2, 56779, Note_on_c, 0, 60, 127
2, 57041, Note_off_c, 4, 64, 127
2, 57041, Note_off_c, 0, 48, 127
2, 57049, Note_off_c, 0, 60, 127
2, 57052, Note_on_c, 5, 53, 127
2, 57052, Note_on_c, 2, 50, 127
2, 57052, Note_on_c, 5, 65, 127
2, 57325, Note_off_c, 0, 72, 127
2, 57326, Note_on_c, 11, 70, 127
2, 57593, Note_off_c, 5, 65, 127
2, 57596, Note_off_c, 11, 70, 127
2, 57596, Note_off_c, 2, 50, 127
2, 57596, Note_off_c, 5, 53, 127
2, 57600, Note_on_c, 7, 55, 127
2, 57600, Note_on_c, 4, 52, 127
2, 57600, Note_on_c, 7, 67, 127
2, 57870, Note_off_c, 7, 67, 127
2, 57873, Note_on_c, 4, 64, 127
2, 58143, Note_off_c, 4, 64, 127
2, 58144, Note_off_c, 4, 52, 127
2, 58144, Note_off_c, 7, 55, 127
2, 58147, Note_on_c, 8, 56, 127
2, 58147, Note_on_c, 5, 53, 127
2, 58147, Note_on_c, 0, 60, 127
2, 58420, Note_on_c, 4, 64, 127
2, 58688, Note_off_c, 0, 60, 127
2, 58690, Note_off_c, 4, 64, 127
2, 58694, Note_on_c, 5, 65, 127
2, 58968, Note_on_c, 12, 71, 127
2, 59238, Note_off_c, 12, 71, 127
2, 59238, Note_off_c, 5, 53, 127
2, 59238, Note_off_c, 8, 56, 127
2, 59241, Note_on_c, 7, 55, 127
2, 59241, Note_on_c, 0, 48, 127
2, 59241, Note_on_c, 0, 72, 127
2, 59492, Note_off_c, 5, 65, 127
2, 59515, Note_on_c, 5, 65, 127
2, 59785, Note_off_c, 5, 65, 127
2, 59788, Note_on_c, 4, 64, 127
2, 60062, Note_on_c, 7, 67, 127
2, 60324, Note_off_c, 0, 72, 127
2, 60332, Note_off_c, 7, 67, 127
2, 60336, Note_on_c, 11, 70, 127
2, 60606, Note_off_c, 11, 70, 127
2, 60609, Note_on_c, 1, 73, 127
2, 60871, Note_off_c, 4, 64, 127
2, 60879, Note_off_c, 1, 73, 127
2, 60883, Note_on_c, 0, 72, 127
2, 61153, Note_off_c, 0, 72, 127
2, 61153, Note_off_c, 0, 48, 127
2, 61156, Note_on_c, 1, 49, 127
2, 61156, Note_on_c, 11, 70, 127
2, 61426, Note_off_c, 11, 70, 127
2, 61426, Note_off_c, 1, 49, 127
2, 61426, Note_off_c, 7, 55, 127
2, 61430, Note_on_c, 3, 51, 127
2, 61430, Note_on_c, 5, 53, 127
2, 61430, Note_on_c, 10, 69, 127
2, 61700, Note_off_c, 10, 69, 127
2, 61704, Note_on_c, 5, 65, 127
2, 61974, Note_off_c, 5, 65, 127
2, 61974, Note_off_c, 5, 53, 127
2, 61974, Note_off_c, 3, 51, 127
2, 61977, Note_on_c, 3, 63, 127
2, 61977, Note_on_c, 10, 69, 127
2, 62251, Note_on_c, 0, 72, 127
2, 62518, Note_off_c, 10, 69, 127
2, 62521, Note_off_c, 0, 72, 127
2, 62521, Note_off_c, 3, 63, 127
2, 62524, Note_on_c, 1, 61, 127
2, 62524, Note_on_c, 5, 77, 127
2, 62798, Note_on_c, 11, 70, 127
2, 63068, Note_off_c, 11, 70, 127
2, 63068, Note_off_c, 1, 61, 127
2, 63072, Note_on_c, 0, 60, 127
2, 63072, Note_on_c, 10, 69, 127
2, 63344, Note_off_c, 5, 77, 127
2, 63345, Note_on_c, 3, 75, 127
2, 63613, Note_off_c, 10, 69, 127
2, 63615, Note_off_c, 3, 75, 127
2, 63616, Note_off_c, 0, 60, 127
2, 63619, Note_on_c, 11, 58, 127
2, 63619, Note_on_c, 1, 73, 127
2, 63892, Note_on_c, 5, 53, 127
2, 63892, Note_on_c, 8, 68, 127
2, 64162, Note_off_c, 8, 68, 127
2, 64162, Note_off_c, 5, 53, 127
2, 64166, Note_on_c, 1, 49, 127
2, 64166, Note_on_c, 7, 67, 127
2, 64436, Note_off_c, 7, 67, 127
2, 64436, Note_off_c, 1, 49, 127
2, 64440, Note_on_c, 11, 46, 127
2, 64440, Note_on_c, 11, 70, 127
2, 64702, Note_off_c, 11, 58, 127
2, 64710, Note_off_c, 11, 70, 127
2, 64713, Note_on_c, 7, 55, 127
2, 64713, Note_on_c, 4, 64, 127
2, 64981, Note_off_c, 11, 46, 127
2, 64987, Note_off_c, 1, 73, 127
2, 64987, Note_on_c, 0, 48, 127
2, 64987, Note_on_c, 0, 72, 127
2, 65254, Note_off_c, 4, 64, 127
2, 65257, Note_off_c, 0, 48, 127
2, 65260, Note_on_c, 1, 49, 127
2, 65260, Note_on_c, 5, 65, 127
2, 65528, Note_off_c, 0, 72, 127
2, 65530, Note_off_c, 1, 49, 127
2, 65534, Note_on_c, 11, 46, 127
2, 65534, Note_on_c, 11, 70, 127
2, 65796, Note_off_c, 7, 55, 127
2, 65801, Note_off_c, 5, 65, 127
2, 65804, Note_off_c, 11, 46, 127
2, 65816, Note_on_c, 0, 48, 127
2, 65816, Note_on_c, 4, 64, 127
2, 66075, Note_off_c, 11, 70, 127
2, 66089, Note_on_c, 7, 55, 127
2, 66089, Note_on_c, 1, 73, 127
2, 66359, Note_off_c, 1, 73, 127
2, 66359, Note_off_c, 7, 55, 127
2, 66363, Note_on_c, 8, 56, 127
2, 66363, Note_on_c, 0, 72, 127
2, 66631, Note_off_c, 4, 64, 127
2, 66633, Note_off_c, 8, 56, 127
2, 66636, Note_on_c, 12, 59, 127
2, 66636, Note_on_c, 5, 65, 127
2, 66904, Note_off_c, 0, 72, 127
2, 66906, Note_off_c, 12, 59, 127
2, 66910, Note_on_c, 0, 60, 127
2, 66910, Note_on_c, 8, 68, 127
2, 67177, Note_off_c, 5, 65, 127
2, 67184, Note_on_c, 5, 65, 127
2, 67454, Note_off_c, 5, 65, 127
2, 67454, Note_off_c, 0, 48, 127
2, 67457, Note_on_c, 0, 48, 127
2, 67457, Note_on_c, 4, 64, 127
2, 67730, Note_off_c, 8, 68, 127
2, 67731, Note_on_c, 7, 67, 127
2, 67998, Note_off_c, 4, 64, 127
2, 68011, Note_off_c, 7, 67, 127
2, 68028, Note_off_c, 0, 48, 127
2, 68036, Note_on_c, 1, 49, 127
2, 68036, Note_on_c, 5, 65, 127
2, 68310, Note_on_c, 8, 68, 127
2, 68580, Note_off_c, 8, 68, 127
2, 68584, Note_on_c, 0, 72, 127
2, 68854, Note_off_c, 0, 72, 127
2, 68857, Note_on_c, 5, 77, 127
2, 69095, Note_off_c, 0, 60, 127
2, 69119, Note_off_c, 5, 65, 127
2, 69131, Note_on_c, 11, 58, 127
2, 69131, Note_on_c, 7, 67, 127
2, 69398, Note_off_c, 5, 77, 127
2, 69404, Note_on_c, 5, 77, 127
2, 69674, Note_off_c, 5, 77, 127
2, 69678, Note_on_c, 4, 76, 127
2, 69948, Note_off_c, 4, 76, 127
2, 69952, Note_on_c, 7, 79, 127
2, 70214, Note_off_c, 7, 67, 127
2, 70221, Note_off_c, 1, 49, 127
2, 70222, Note_off_c, 11, 58, 127
2, 70225, Note_on_c, 0, 48, 127
2, 70225, Note_on_c, 0, 60, 127
2, 70225, Note_on_c, 8, 68, 127
2, 70493, Note_off_c, 7, 79, 127
2, 70499, Note_on_c, 0, 72, 127
2, 70769, Note_off_c, 0, 72, 127
2, 70772, Note_on_c, 5, 77, 127
2, 71042, Note_off_c, 5, 77, 127
2, 71046, Note_on_c, 4, 76, 127
2, 71308, Note_off_c, 8, 68, 127
2, 71316, Note_off_c, 4, 76, 127
2, 71316, Note_off_c, 0, 60, 127
2, 71320, Note_on_c, 8, 56, 127
2, 71320, Note_on_c, 5, 77, 127
2, 71593, Note_on_c, 0, 72, 127
2, 71863, Note_off_c, 0, 72, 127
2, 71867, Note_on_c, 11, 70, 127
2, 72137, Note_off_c, 11, 70, 127
2, 72140, Note_on_c, 8, 68, 127
2, 72403, Note_off_c, 5, 77, 127
2, 72410, Note_off_c, 0, 48, 127
2, 72411, Note_off_c, 8, 56, 127
2, 72414, Note_on_c, 11, 58, 127
2, 72414, Note_on_c, 0, 48, 127
2, 72414, Note_on_c, 1, 73, 127
2, 72681, Note_off_c, 8, 68, 127
2, 72688, Note_on_c, 8, 68, 127
2, 72958, Note_off_c, 8, 68, 127
2, 72961, Note_on_c, 7, 67, 127
2, 73231, Note_off_c, 7, 67, 127
2, 73235, Note_on_c, 11, 70, 127
2, 73505, Note_off_c, 11, 58, 127
2, 73508, Note_on_c, 7, 55, 127
2, 73508, Note_on_c, 4, 64, 127
2, 73776, Note_off_c, 11, 70, 127
2, 73782, Note_off_c, 1, 73, 127
2, 73782, Note_on_c, 1, 73, 127
2, 74052, Note_off_c, 1, 73, 127
2, 74056, Note_on_c, 0, 72, 127
2, 74326, Note_off_c, 0, 72, 127
2, 74329, Note_on_c, 11, 70, 127
2, 74591, Note_off_c, 4, 64, 127
2, 74599, Note_off_c, 11, 70, 127
2, 74599, Note_off_c, 7, 55, 127
2, 74599, Note_off_c, 0, 48, 127
2, 74603, Note_on_c, 0, 48, 127
2, 74603, Note_on_c, 8, 56, 127
2, 74603, Note_on_c, 8, 68, 127
2, 74603, Note_on_c, 5, 65, 127
2, 74873, Note_off_c, 5, 65, 127
2, 74876, Note_on_c, 3, 63, 127
2, 75146, Note_off_c, 3, 63, 127
2, 75150, Note_on_c, 2, 62, 127
2, 75420, Note_off_c, 2, 62, 127
2, 75424, Note_on_c, 5, 65, 127
2, 75694, Note_off_c, 5, 65, 127
2, 75694, Note_off_c, 8, 56, 127
2, 75697, Note_on_c, 5, 53, 127
2, 75697, Note_on_c, 12, 59, 127
2, 75971, Note_off_c, 8, 68, 127
2, 75971, Note_on_c, 8, 68, 127
2, 76241, Note_off_c, 8, 68, 127
2, 76244, Note_on_c, 7, 67, 127
2, 76514, Note_off_c, 7, 67, 127
2, 76518, Note_on_c, 5, 65, 127
2, 76780, Note_off_c, 12, 59, 127
2, 76788, Note_off_c, 5, 65, 127
2, 76788, Note_off_c, 5, 53, 127
2, 76788, Note_off_c, 0, 48, 127
2, 76792, Note_on_c, 0, 48, 127
2, 76792, Note_on_c, 7, 55, 127
2, 76792, Note_on_c, 4, 64, 127
2, 77065, Note_on_c, 0, 60, 127
2, 77335, Note_off_c, 0, 60, 127
2, 77339, Note_on_c, 11, 58, 127
2, 77609, Note_off_c, 11, 58, 127
2, 77612, Note_on_c, 1, 61, 127
2, 77882, Note_off_c, 1, 61, 127
2, 77883, Note_off_c, 7, 55, 127
2, 77886, Note_on_c, 4, 52, 127
2, 77886, Note_on_c, 7, 55, 127
2, 78160, Note_on_c, 1, 61, 127
2, 78430, Note_off_c, 1, 61, 127
2, 78433, Note_on_c, 0, 60, 127
2, 78703, Note_off_c, 0, 60, 127
2, 78707, Note_on_c, 11, 58, 127
2, 78969, Note_off_c, 7, 55, 127
2, 78977, Note_off_c, 11, 58, 127
2, 78977, Note_off_c, 4, 52, 127
2, 78977, Note_off_c, 4, 64, 127
2, 78977, Note_off_c, 0, 48, 127
2, 78980, Note_on_c, 5, 53, 127
2, 78980, Note_on_c, 8, 56, 127
2, 78980, Note_on_c, 0, 48, 127
2, 79270, Note_on_c, 0, 72, 127
2, 79540, Note_off_c, 0, 72, 127
2, 79544, Note_on_c, 11, 70, 127
2, 79814, Note_off_c, 11, 70, 127
2, 79817, Note_on_c, 1, 73, 127
2, 80071, Note_off_c, 8, 56, 127
2, 80071, Note_off_c, 5, 53, 127
2, 80091, Note_on_c, 4, 64, 127
2, 80091, Note_on_c, 7, 55, 127
2, 80091, Note_on_c, 11, 58, 127
2, 80358, Note_off_c, 1, 73, 127
2, 80364, Note_on_c, 1, 73, 127
2, 80634, Note_off_c, 1, 73, 127
2, 80638, Note_on_c, 0, 72, 127
2, 80908, Note_off_c, 0, 72, 127
2, 80912, Note_on_c, 11, 70, 127
2, 81117, Note_off_c, 4, 64, 127
2, 81165, Note_off_c, 0, 48, 127
2, 81182, Note_off_c, 11, 70, 127
2, 81182, Note_off_c, 11, 58, 127
2, 81182, Note_off_c, 7, 55, 127
2, 81185, Note_on_c, 8, 68, 127
2, 81185, Note_on_c, 8, 56, 127
2, 81185, Note_on_c, 0, 60, 127
2, 81185, Note_on_c, 0, 48, 127
2, 81459, Note_on_c, 7, 79, 127
2, 81729, Note_off_c, 7, 79, 127
2, 81732, Note_on_c, 5, 77, 127
2, 82002, Note_off_c, 5, 77, 127
2, 82006, Note_on_c, 8, 80, 127
2, 82268, Note_off_c, 8, 68, 127
2, 82276, Note_off_c, 0, 60, 127
2, 82276, Note_off_c, 8, 56, 127
2, 82280, Note_on_c, 12, 71, 127
2, 82280, Note_on_c, 5, 53, 127
2, 82280, Note_on_c, 8, 56, 127
2, 82547, Note_off_c, 8, 80, 127
2, 82553, Note_on_c, 8, 80, 127
2, 82823, Note_off_c, 8, 80, 127
2, 82827, Note_on_c, 7, 79, 127
2, 83097, Note_off_c, 7, 79, 127
2, 83100, Note_on_c, 5, 77, 127
2, 83363, Note_off_c, 12, 71, 127
2, 83370, Note_off_c, 5, 77, 127
2, 83370, Note_off_c, 0, 48, 127
2, 83371, Note_off_c, 8, 56, 127
2, 83371, Note_off_c, 5, 53, 127
2, 83374, Note_on_c, 4, 76, 127
2, 83374, Note_on_c, 0, 48, 127
2, 83374, Note_on_c, 7, 55, 127
2, 83374, Note_on_c, 11, 58, 127
2, 83664, Note_on_c, 5, 77, 127
2, 83934, Note_off_c, 5, 77, 127
2, 83937, Note_on_c, 7, 79, 127
2, 84172, Note_off_c, 4, 76, 127
2, 84207, Note_off_c, 7, 79, 127
2, 84211, Note_on_c, 4, 76, 127
2, 84465, Note_off_c, 11, 58, 127
2, 84465, Note_off_c, 7, 55, 127
2, 84484, Note_on_c, 7, 55, 127
2, 84484, Note_on_c, 4, 52, 127
2, 84484, Note_on_c, 11, 82, 127
2, 84752, Note_off_c, 4, 76, 127
2, 84758, Note_on_c, 1, 73, 127
2, 85025, Note_off_c, 11, 82, 127
2, 85028, Note_off_c, 1, 73, 127
2, 85032, Note_on_c, 0, 72, 127
2, 85302, Note_off_c, 0, 72, 127
2, 85305, Note_on_c, 11, 70, 127
2, 85559, Note_off_c, 0, 48, 127
2, 85575, Note_off_c, 11, 70, 127
2, 85575, Note_off_c, 4, 52, 127
2, 85575, Note_off_c, 7, 55, 127
2, 85579, Note_on_c, 5, 53, 127
2, 85579, Note_on_c, 0, 48, 127
2, 85579, Note_on_c, 0, 60, 127
2, 85579, Note_on_c, 8, 68, 127
2, 85868, Note_on_c, 11, 70, 127
2, 86138, Note_off_c, 11, 70, 127
2, 86142, Note_on_c, 0, 72, 127
2, 86377, Note_off_c, 8, 68, 127
2, 86416, Note_on_c, 5, 65, 127
2, 86670, Note_off_c, 0, 60, 127
2, 86670, Note_off_c, 5, 53, 127
2, 86683, Note_off_c, 0, 72, 127
2, 86689, Note_on_c, 2, 74, 127
2, 86689, Note_on_c, 12, 59, 127
2, 86957, Note_off_c, 5, 65, 127
2, 86963, Note_on_c, 8, 68, 127
2, 87233, Note_off_c, 8, 68, 127
2, 87236, Note_on_c, 7, 67, 127
2, 87487, Note_off_c, 2, 74, 127
2, 87506, Note_off_c, 7, 67, 127
2, 87510, Note_on_c, 5, 65, 127
2, 87780, Note_off_c, 5, 65, 127
2, 87780, Note_off_c, 12, 59, 127
2, 87784, Note_on_c, 4, 64, 127
2, 87784, Note_on_c, 7, 55, 127
2, 88095, Note_on_c, 0, 60, 127
2, 88336, Note_off_c, 7, 55, 127
2, 88371, Note_off_c, 0, 60, 127
2, 88374, Note_on_c, 7, 55, 127
2, 88653, Note_on_c, 11, 58, 127
2, 88889, Note_off_c, 4, 64, 127
2, 88926, Note_off_c, 7, 55, 127
2, 88929, Note_off_c, 11, 58, 127
2, 88933, Note_on_c, 5, 65, 127
2, 88933, Note_on_c, 8, 56, 127
2, 89192, Note_off_c, 0, 48, 127
2, 89221, Note_on_c, 5, 53, 127
2, 89503, Note_off_c, 5, 53, 127
2, 89506, Note_on_c, 12, 47, 127
2, 89791, Note_off_c, 12, 47, 127
2, 89793, Note_on_c, 2, 50, 127
2, 90094, Note_on_c, 0, 36, 127
2, 90094, Note_on_c, 0, 48, 127
2, 90094, Note_on_c, 7, 55, 127
2, 90097, Note_off_c, 8, 56, 127
2, 90100, Note_off_c, 2, 50, 127
2, 90397, Note_on_c, 2, 62, 127
2, 90692, Note_off_c, 7, 55, 127
2, 90696, Note_off_c, 2, 62, 127
2, 90699, Note_on_c, 5, 53, 127
2, 90699, Note_on_c, 12, 59, 127
2, 90998, Note_off_c, 12, 59, 127
2, 91001, Note_on_c, 0, 60, 127
2, 91284, Note_off_c, 5, 65, 127
2, 91297, Note_off_c, 5, 53, 127
2, 91303, Note_on_c, 7, 55, 127
2, 91622, Note_off_c, 0, 60, 127
2, 91628, Note_on_c, 11, 58, 127
2, 91971, Note_on_c, 0, 60, 127
2, 92315, Note_on_c, 4, 64, 127
2, 92709, Note_off_c, 0, 48, 127
2, 92713, Note_off_c, 0, 60, 127
2, 92714, Note_off_c, 0, 36, 127
2, 92715, Note_off_c, 11, 58, 127
2, 92717, Note_off_c, 4, 64, 127
2, 92720, Note_on_c, 5, 65, 127
2, 92720, Note_on_c, 5, 53, 127
2, 92720, Note_on_c, 0, 60, 127
2, 92720, Note_on_c, 10, 57, 127
2, 92720, Note_on_c, 0, 48, 127
2, 92720, Note_on_c, 5, 41, 127
2, 92725, Note_off_c, 7, 55, 127
2, 97120, Note_off_c, 5, 41, 127
2, 97120, Note_off_c, 0, 48, 127
2, 97120, Note_off_c, 10, 57, 127
2, 97120, Note_off_c, 0, 60, 127
2, 97120, Note_off_c, 5, 53, 127
2, 97120, Note_off_c, 5, 65, 127
2, 97979, Note_on_c, 0, 60, 127
2, 98637, Note_off_c, 0, 60, 127
2, 98640, Note_on_c, 1, 61, 127
2, 99298, Note_off_c, 1, 61, 127
2, 99301, Note_on_c, 0, 60, 127
2, 99959, Note_off_c, 0, 60, 127
2, 99962, Note_on_c, 12, 59, 127
2, 100620, Note_off_c, 12, 59, 127
2, 100624, Note_on_c, 4, 64, 127
2, 101282, Note_off_c, 4, 64, 127
2, 101285, Note_on_c, 5, 65, 127
2, 101943, Note_off_c, 5, 65, 127
2, 101946, Note_on_c, 11, 58, 127
2, 102604, Note_off_c, 11, 58, 127
2, 102607, Note_on_c, 10, 57, 127
2, 103265, Note_off_c, 10, 57, 127
2, 103268, Note_on_c, 8, 56, 127
2, 103926, Note_off_c, 8, 56, 127
2, 103930, Note_on_c, 7, 55, 127
2, 105270, Note_off_c, 7, 55, 127
2, 105271, Note_on_c, 5, 53, 127
2, 105630, Note_off_c, 5, 53, 127
2, 105638, Note_on_c, 5, 53, 127
2, 105809, Note_off_c, 5, 53, 127
2, 105824, Note_on_c, 7, 55, 127
2, 105995, Note_off_c, 7, 55, 127
2, 106009, Note_on_c, 5, 65, 127
2, 106009, Note_on_c, 8, 56, 127
2, 106368, Note_off_c, 8, 56, 127
2, 106377, Note_on_c, 8, 56, 127
2, 106548, Note_off_c, 8, 56, 127
2, 106562, Note_on_c, 11, 58, 127
2, 106733, Note_off_c, 11, 58, 127
2, 106741, Note_off_c, 5, 65, 127
2, 106744, Note_on_c, 8, 68, 127
2, 106744, Note_on_c, 0, 60, 127
2, 106915, Note_off_c, 0, 60, 127
2, 106929, Note_on_c, 12, 47, 127
2, 107100, Note_off_c, 12, 47, 127
2, 107115, Note_on_c, 0, 48, 127
2, 107286, Note_off_c, 0, 48, 127
2, 107300, Note_on_c, 2, 50, 127
2, 107471, Note_off_c, 2, 50, 127
2, 107479, Note_off_c, 8, 68, 127
2, 107482, Note_on_c, 7, 67, 127
2, 107482, Note_on_c, 3, 51, 127
2, 108214, Note_off_c, 7, 67, 127
2, 108218, Note_on_c, 6, 66, 127
2, 108305, Note_off_c, 3, 51, 127
2, 108403, Note_on_c, 0, 48, 127
2, 108574, Note_off_c, 0, 48, 127
2, 108588, Note_on_c, 2, 50, 127
2, 108759, Note_off_c, 2, 50, 127
2, 108773, Note_on_c, 3, 51, 127
2, 108944, Note_off_c, 3, 51, 127
2, 108953, Note_off_c, 6, 66, 127
2, 108956, Note_on_c, 12, 71, 127
2, 108956, Note_on_c, 5, 53, 127
2, 109688, Note_off_c, 12, 71, 127
2, 109691, Note_on_c, 0, 72, 127
2, 109779, Note_off_c, 5, 53, 127
2, 109876, Note_on_c, 3, 51, 127
2, 110047, Note_off_c, 3, 51, 127
2, 110062, Note_on_c, 5, 53, 127
2, 110233, Note_off_c, 5, 53, 127
2, 110247, Note_on_c, 7, 55, 127
2, 110418, Note_off_c, 7, 55, 127
2, 110426, Note_off_c, 0, 72, 127
2, 110429, Note_on_c, 5, 65, 127
2, 110429, Note_on_c, 8, 56, 127
2, 111161, Note_off_c, 5, 65, 127
2, 111165, Note_on_c, 4, 64, 127
2, 111252, Note_off_c, 8, 56, 127
2, 111350, Note_on_c, 7, 55, 127
2, 111521, Note_off_c, 7, 55, 127
2, 111535, Note_on_c, 10, 57, 127
2, 111706, Note_off_c, 10, 57, 127
2, 111720, Note_on_c, 12, 59, 127
2, 111891, Note_off_c, 12, 59, 127
2, 111900, Note_off_c, 4, 64, 127
2, 111903, Note_on_c, 3, 63, 127
2, 111903, Note_on_c, 0, 60, 127
2, 112612, Note_off_c, 3, 63, 127
2, 112638, Note_on_c, 2, 62, 127
2, 113003, Note_off_c, 0, 60, 127
2, 113006, Note_on_c, 12, 59, 127
2, 113177, Note_off_c, 12, 59, 127
2, 113191, Note_on_c, 10, 57, 127
2, 113362, Note_off_c, 10, 57, 127
2, 113376, Note_on_c, 0, 60, 127
2, 113495, Note_off_c, 0, 60, 127
2, 113499, Note_on_c, 12, 59, 127
2, 113618, Note_off_c, 12, 59, 127
2, 113621, Note_on_c, 0, 60, 127
2, 113740, Note_off_c, 0, 60, 127
2, 113744, Note_on_c, 12, 59, 127
2, 113863, Note_off_c, 12, 59, 127
2, 113866, Note_on_c, 10, 57, 127
2, 113985, Note_off_c, 10, 57, 127
2, 113989, Note_on_c, 12, 59, 127
2, 114108, Note_off_c, 12, 59, 127
2, 114111, Note_off_c, 2, 62, 127
2, 114114, Note_on_c, 0, 60, 127
2, 114473, Note_off_c, 0, 60, 127
2, 114482, Note_on_c, 0, 60, 127
2, 114482, Note_on_c, 7, 55, 127
2, 114653, Note_off_c, 0, 60, 127
2, 114667, Note_on_c, 2, 62, 127
2, 114838, Note_off_c, 2, 62, 127
2, 114843, Note_off_c, 7, 55, 127
2, 114852, Note_on_c, 4, 64, 127
2, 114852, Note_on_c, 0, 60, 127
2, 114852, Note_on_c, 0, 48, 127
2, 115211, Note_off_c, 0, 60, 127
2, 115211, Note_off_c, 4, 64, 127
2, 115220, Note_on_c, 2, 62, 127
2, 115220, Note_on_c, 11, 58, 127
2, 115391, Note_off_c, 2, 62, 127
2, 115405, Note_on_c, 4, 64, 127
2, 115576, Note_off_c, 4, 64, 127
2, 115581, Note_off_c, 11, 58, 127
2, 115584, Note_off_c, 0, 48, 127
2, 115588, Note_on_c, 5, 65, 127
2, 115588, Note_on_c, 8, 56, 127
2, 115588, Note_on_c, 1, 49, 127
2, 115773, Note_on_c, 4, 52, 127
2, 115944, Note_off_c, 4, 52, 127
2, 115949, Note_off_c, 8, 56, 127
2, 115949, Note_off_c, 5, 65, 127
2, 115958, Note_on_c, 5, 53, 127
2, 115958, Note_on_c, 5, 65, 127
2, 116129, Note_off_c, 5, 53, 127
2, 116144, Note_on_c, 7, 55, 127
2, 116315, Note_off_c, 7, 55, 127
2, 116323, Note_off_c, 1, 49, 127
2, 116326, Note_on_c, 8, 56, 127
2, 116326, Note_on_c, 0, 48, 127
2, 116684, Note_off_c, 5, 65, 127
2, 116694, Note_on_c, 3, 63, 127
2, 117052, Note_off_c, 8, 56, 127
2, 117053, Note_off_c, 3, 63, 127
2, 117055, Note_off_c, 0, 48, 127
2, 117058, Note_on_c, 2, 62, 127
2, 117058, Note_on_c, 12, 47, 127
2, 117244, Note_on_c, 5, 53, 127
2, 117415, Note_off_c, 5, 53, 127
2, 117419, Note_off_c, 2, 62, 127
2, 117429, Note_on_c, 4, 64, 127
2, 117429, Note_on_c, 7, 55, 127
2, 117600, Note_off_c, 7, 55, 127
2, 117600, Note_off_c, 4, 64, 127
2, 117614, Note_on_c, 5, 65, 127
2, 117614, Note_on_c, 8, 56, 127
2, 117785, Note_off_c, 8, 56, 127
2, 117785, Note_off_c, 5, 65, 127
2, 117793, Note_off_c, 12, 47, 127
2, 117797, Note_on_c, 7, 67, 127
2, 117797, Note_on_c, 11, 58, 127
2, 117797, Note_on_c, 4, 52, 127
2, 117968, Note_off_c, 7, 67, 127
2, 117982, Note_on_c, 5, 65, 127
2, 118153, Note_off_c, 5, 65, 127
2, 118167, Note_on_c, 4, 64, 127
2, 118338, Note_off_c, 4, 64, 127
2, 118352, Note_on_c, 2, 62, 127
2, 118452, Note_off_c, 11, 58, 127
2, 118523, Note_off_c, 2, 62, 127
2, 118532, Note_off_c, 4, 52, 127
2, 118535, Note_on_c, 0, 60, 127
2, 118535, Note_on_c, 5, 53, 127
2, 118720, Note_on_c, 8, 56, 127
2, 118891, Note_off_c, 8, 56, 127
2, 118905, Note_on_c, 11, 58, 127
2, 119076, Note_off_c, 11, 58, 127
2, 119085, Note_off_c, 0, 60, 127
2, 119088, Note_on_c, 0, 60, 127
2, 119259, Note_off_c, 0, 60, 127
2, 119267, Note_off_c, 5, 53, 127
2, 119270, Note_on_c, 1, 61, 127
2, 119270, Note_on_c, 11, 46, 127
2, 119455, Note_on_c, 11, 58, 127
2, 119626, Note_off_c, 11, 58, 127
2, 119640, Note_on_c, 8, 56, 127
2, 119811, Note_off_c, 8, 56, 127
2, 119826, Note_on_c, 7, 55, 127
2, 119997, Note_off_c, 7, 55, 127
2, 120005, Note_off_c, 11, 46, 127
2, 120008, Note_on_c, 5, 53, 127
2, 120008, Note_on_c, 10, 45, 127
2, 120116, Note_off_c, 1, 61, 127
2, 120193, Note_on_c, 0, 60, 127
2, 120364, Note_off_c, 0, 60, 127
2, 120379, Note_on_c, 2, 62, 127
2, 120550, Note_off_c, 2, 62, 127
2, 120564, Note_on_c, 4, 64, 127
2, 120735, Note_off_c, 4, 64, 127
2, 120743, Note_off_c, 10, 45, 127
2, 120746, Note_on_c, 5, 65, 127
2, 120746, Note_on_c, 8, 44, 127
2, 120925, Note_off_c, 5, 53, 127
2, 120929, Note_on_c, 5, 53, 127
2, 121100, Note_off_c, 5, 53, 127
2, 121114, Note_on_c, 7, 55, 127
2, 121285, Note_off_c, 7, 55, 127
2, 121299, Note_on_c, 8, 56, 127
2, 121470, Note_off_c, 8, 56, 127
2, 121478, Note_off_c, 8, 44, 127
2, 121482, Note_on_c, 11, 58, 127
2, 121482, Note_on_c, 7, 43, 127
2, 121846, Note_off_c, 5, 65, 127
2, 121849, Note_on_c, 4, 64, 127
2, 122020, Note_off_c, 4, 64, 127
2, 122034, Note_on_c, 2, 62, 127
2, 122205, Note_off_c, 2, 62, 127
2, 122220, Note_on_c, 4, 64, 127
2, 122584, Note_off_c, 11, 58, 127
2, 122587, Note_on_c, 8, 56, 127
2, 122758, Note_off_c, 8, 56, 127
2, 122773, Note_on_c, 7, 55, 127
2, 122944, Note_off_c, 7, 55, 127
2, 122952, Note_off_c, 4, 64, 127
2, 122952, Note_off_c, 7, 43, 127
2, 122955, Note_on_c, 5, 65, 127
2, 122955, Note_on_c, 8, 56, 127
2, 122955, Note_on_c, 5, 41, 127
2, 123314, Note_off_c, 5, 65, 127
2, 123323, Note_on_c, 5, 65, 127
2, 123494, Note_off_c, 5, 65, 127
2, 123508, Note_on_c, 7, 67, 127
2, 123679, Note_off_c, 7, 67, 127
2, 123693, Note_on_c, 8, 68, 127
2, 124052, Note_off_c, 8, 68, 127
2, 124055, Note_off_c, 5, 41, 127
2, 124057, Note_off_c, 8, 56, 127
2, 124061, Note_on_c, 8, 68, 127
2, 124061, Note_on_c, 5, 53, 127
2, 124232, Note_off_c, 5, 53, 127
2, 124232, Note_off_c, 8, 68, 127
2, 124246, Note_on_c, 11, 70, 127
2, 124246, Note_on_c, 7, 55, 127
2, 124417, Note_off_c, 7, 55, 127
2, 124417, Note_off_c, 11, 70, 127
2, 124431, Note_on_c, 0, 72, 127
2, 124431, Note_on_c, 8, 56, 127
2, 124790, Note_off_c, 8, 56, 127
2, 124799, Note_on_c, 0, 60, 127
2, 124799, Note_on_c, 8, 56, 127
2, 124970, Note_off_c, 8, 56, 127
2, 124970, Note_off_c, 0, 60, 127
2, 124984, Note_on_c, 1, 61, 127
2, 124984, Note_on_c, 11, 58, 127
2, 125155, Note_off_c, 11, 58, 127
2, 125155, Note_off_c, 1, 61, 127
2, 125169, Note_on_c, 3, 63, 127
2, 125169, Note_on_c, 0, 60, 127
2, 125348, Note_off_c, 0, 72, 127
2, 125352, Note_on_c, 11, 70, 127
2, 125523, Note_off_c, 11, 70, 127
2, 125528, Note_off_c, 0, 60, 127
2, 125537, Note_on_c, 8, 68, 127
2, 125537, Note_on_c, 0, 48, 127
2, 125708, Note_off_c, 8, 68, 127
2, 125722, Note_on_c, 7, 67, 127
2, 125893, Note_off_c, 7, 67, 127
2, 125898, Note_off_c, 0, 48, 127
2, 125908, Note_on_c, 5, 65, 127
2, 125908, Note_on_c, 1, 49, 127
2, 126271, Note_off_c, 3, 63, 127
2, 126275, Note_on_c, 1, 61, 127
2, 126446, Note_off_c, 1, 61, 127
2, 126461, Note_on_c, 3, 63, 127
2, 126632, Note_off_c, 3, 63, 127
2, 126637, Note_off_c, 5, 65, 127
2, 126646, Note_on_c, 5, 65, 127
2, 126905, Note_off_c, 1, 49, 127
2, 127005, Note_off_c, 5, 65, 127
2, 127013, Note_on_c, 5, 65, 127
2, 127013, Note_on_c, 1, 49, 127
2, 127184, Note_off_c, 1, 49, 127
2, 127184, Note_off_c, 5, 65, 127
2, 127199, Note_on_c, 7, 67, 127
2, 127199, Note_on_c, 3, 51, 127
2, 127370, Note_off_c, 3, 51, 127
2, 127370, Note_off_c, 7, 67, 127
2, 127384, Note_on_c, 8, 68, 127
2, 127384, Note_on_c, 5, 53, 127
2, 127743, Note_off_c, 5, 53, 127
2, 127752, Note_on_c, 8, 56, 127
2, 127752, Note_on_c, 5, 53, 127
2, 127923, Note_off_c, 5, 53, 127
2, 127923, Note_off_c, 8, 56, 127
2, 127937, Note_on_c, 11, 58, 127
2, 127937, Note_on_c, 7, 55, 127
2, 128108, Note_off_c, 7, 55, 127
2, 128108, Note_off_c, 11, 58, 127
2, 128122, Note_on_c, 0, 60, 127
2, 128122, Note_on_c, 8, 56, 127
2, 128307, Note_off_c, 8, 68, 127
2, 128307, Note_on_c, 6, 66, 127
2, 128478, Note_off_c, 6, 66, 127
2, 128483, Note_off_c, 8, 56, 127
2, 128493, Note_on_c, 5, 65, 127
2, 128493, Note_on_c, 8, 44, 127
2, 128664, Note_off_c, 5, 65, 127
2, 128678, Note_on_c, 3, 63, 127
2, 128849, Note_off_c, 3, 63, 127
2, 128854, Note_off_c, 8, 44, 127
2, 128863, Note_on_c, 1, 61, 127
2, 128863, Note_on_c, 11, 46, 127
2, 129227, Note_off_c, 0, 60, 127
2, 129231, Note_on_c, 11, 58, 127
2, 129402, Note_off_c, 11, 58, 127
2, 129416, Note_on_c, 0, 60, 127
2, 129587, Note_off_c, 0, 60, 127
2, 129592, Note_off_c, 1, 61, 127
2, 129601, Note_on_c, 1, 61, 127
2, 129880, Note_off_c, 11, 46, 127
2, 129960, Note_off_c, 1, 61, 127
2, 129969, Note_on_c, 1, 61, 127
2, 129969, Note_on_c, 11, 46, 127
2, 130140, Note_off_c, 11, 46, 127
2, 130140, Note_off_c, 1, 61, 127
2, 130154, Note_on_c, 3, 63, 127
2, 130154, Note_on_c, 0, 48, 127
2, 130325, Note_off_c, 0, 48, 127
2, 130325, Note_off_c, 3, 63, 127
2, 130339, Note_on_c, 5, 65, 127
2, 130339, Note_on_c, 1, 49, 127
2, 130698, Note_off_c, 1, 49, 127
2, 130707, Note_on_c, 5, 53, 127
2, 130707, Note_on_c, 1, 49, 127
2, 130878, Note_off_c, 1, 49, 127
2, 130878, Note_off_c, 5, 53, 127
2, 130892, Note_on_c, 7, 55, 127
2, 130892, Note_on_c, 3, 51, 127
2, 131063, Note_off_c, 3, 51, 127
2, 131063, Note_off_c, 7, 55, 127
2, 131078, Note_on_c, 8, 56, 127
2, 131078, Note_on_c, 5, 53, 127
2, 131437, Note_off_c, 5, 53, 127
2, 131437, Note_off_c, 8, 56, 127
2, 131445, Note_on_c, 8, 56, 127
2, 131445, Note_on_c, 5, 41, 127
2, 131616, Note_off_c, 8, 56, 127
2, 131630, Note_on_c, 11, 58, 127
2, 131801, Note_off_c, 11, 58, 127
2, 131806, Note_off_c, 5, 41, 127
2, 131816, Note_on_c, 0, 60, 127
2, 131816, Note_on_c, 0, 48, 127
2, 132175, Note_off_c, 0, 48, 127
2, 132175, Note_off_c, 0, 60, 127
2, 132177, Note_off_c, 5, 65, 127
2, 132180, Note_on_c, 4, 64, 127
2, 132180, Note_on_c, 7, 55, 127
2, 132180, Note_on_c, 0, 48, 127
2, 132351, Note_off_c, 0, 48, 127
2, 132351, Note_off_c, 4, 64, 127
2, 132366, Note_on_c, 5, 65, 127
2, 132366, Note_on_c, 2, 50, 127
2, 132537, Note_off_c, 2, 50, 127
2, 132537, Note_off_c, 5, 65, 127
2, 132541, Note_off_c, 7, 55, 127
2, 132551, Note_on_c, 0, 72, 127
2, 132551, Note_on_c, 7, 67, 127
2, 132551, Note_on_c, 0, 60, 127
2, 132551, Note_on_c, 4, 52, 127
2, 132921, Note_off_c, 4, 52, 127
2, 132921, Note_off_c, 0, 60, 127
2, 132930, Note_on_c, 11, 58, 127
2, 132930, Note_on_c, 2, 50, 127
2, 133106, Note_off_c, 2, 50, 127
2, 133121, Note_on_c, 4, 52, 127
2, 133297, Note_off_c, 4, 52, 127
2, 133303, Note_off_c, 11, 58, 127
2, 133306, Note_off_c, 0, 72, 127
2, 133309, Note_on_c, 1, 73, 127
2, 133309, Note_on_c, 8, 56, 127
2, 133309, Note_on_c, 5, 53, 127
2, 133485, Note_off_c, 5, 53, 127
2, 133497, Note_off_c, 8, 56, 127
2, 133500, Note_on_c, 4, 40, 127
2, 133676, Note_off_c, 4, 40, 127
2, 133685, Note_off_c, 7, 67, 127
2, 133688, Note_on_c, 5, 65, 127
2, 133688, Note_on_c, 5, 41, 127
2, 133864, Note_off_c, 5, 41, 127
2, 133879, Note_on_c, 7, 43, 127
2, 134055, Note_off_c, 7, 43, 127
2, 134064, Note_off_c, 1, 73, 127
2, 134067, Note_on_c, 0, 72, 127
2, 134067, Note_on_c, 8, 44, 127
2, 134258, Note_on_c, 0, 48, 127
2, 134434, Note_off_c, 0, 48, 127
2, 134443, Note_off_c, 5, 65, 127
2, 134446, Note_on_c, 3, 63, 127
2, 134446, Note_on_c, 2, 50, 127
2, 134622, Note_off_c, 2, 50, 127
2, 134637, Note_on_c, 3, 51, 127
2, 134813, Note_off_c, 3, 51, 127
2, 134819, Note_off_c, 3, 63, 127
2, 134822, Note_off_c, 0, 72, 127
2, 134825, Note_on_c, 12, 71, 127
2, 134825, Note_on_c, 2, 62, 127
2, 134825, Note_on_c, 5, 53, 127
2, 134896, Note_off_c, 8, 44, 127
2, 135016, Note_on_c, 5, 41, 127
2, 135192, Note_off_c, 5, 41, 127
2, 135198, Note_off_c, 2, 62, 127
2, 135207, Note_on_c, 4, 64, 127
2, 135207, Note_on_c, 7, 43, 127
2, 135383, Note_off_c, 7, 43, 127
2, 135383, Note_off_c, 4, 64, 127
2, 135398, Note_on_c, 5, 65, 127
2, 135398, Note_on_c, 8, 44, 127
2, 135574, Note_off_c, 8, 44, 127
2, 135574, Note_off_c, 5, 65, 127
2, 135583, Note_off_c, 12, 71, 127
2, 135586, Note_on_c, 4, 76, 127
2, 135586, Note_on_c, 7, 67, 127
2, 135586, Note_on_c, 11, 46, 127
2, 135657, Note_off_c, 5, 53, 127
2, 135762, Note_off_c, 7, 67, 127
2, 135777, Note_on_c, 5, 65, 127
2, 135953, Note_off_c, 5, 65, 127
2, 135968, Note_on_c, 4, 64, 127
2, 135968, Note_on_c, 7, 55, 127
2, 136144, Note_off_c, 4, 64, 127
2, 136159, Note_on_c, 2, 62, 127
2, 136335, Note_off_c, 2, 62, 127
2, 136336, Note_off_c, 11, 46, 127
2, 136341, Note_off_c, 7, 55, 127
2, 136344, Note_off_c, 4, 76, 127
2, 136347, Note_on_c, 5, 77, 127
2, 136347, Note_on_c, 0, 60, 127
2, 136347, Note_on_c, 8, 56, 127
2, 136527, Note_off_c, 0, 60, 127
2, 136538, Note_on_c, 8, 44, 127
2, 136714, Note_off_c, 8, 44, 127
2, 136729, Note_on_c, 11, 46, 127
2, 136905, Note_off_c, 11, 46, 127
2, 136920, Note_on_c, 0, 48, 127
2, 137096, Note_off_c, 0, 48, 127
2, 137105, Note_off_c, 5, 77, 127
2, 137108, Note_on_c, 11, 70, 127
2, 137108, Note_on_c, 1, 49, 127
2, 137179, Note_off_c, 8, 56, 127
2, 137299, Note_on_c, 11, 58, 127
2, 137475, Note_off_c, 11, 58, 127
2, 137490, Note_on_c, 11, 58, 127
2, 137490, Note_on_c, 8, 56, 127
2, 137666, Note_off_c, 8, 56, 127
2, 137681, Note_on_c, 7, 55, 127
2, 137857, Note_off_c, 7, 55, 127
2, 137863, Note_off_c, 11, 58, 127
2, 137866, Note_off_c, 11, 70, 127
2, 137869, Note_on_c, 10, 69, 127
2, 137869, Note_on_c, 0, 60, 127
2, 137869, Note_on_c, 5, 53, 127
2, 137940, Note_off_c, 1, 49, 127
2, 138060, Note_on_c, 0, 48, 127
2, 138236, Note_off_c, 0, 48, 127
2, 138251, Note_on_c, 2, 50, 127
2, 138427, Note_off_c, 2, 50, 127
2, 138442, Note_on_c, 4, 52, 127
2, 138618, Note_off_c, 4, 52, 127
2, 138624, Note_off_c, 5, 53, 127
2, 138627, Note_off_c, 10, 69, 127
2, 138630, Note_on_c, 8, 68, 127
2, 138630, Note_on_c, 5, 53, 127
2, 138806, Note_off_c, 5, 53, 127
2, 138821, Note_on_c, 5, 53, 127
2, 139006, Note_off_c, 0, 60, 127
2, 139009, Note_on_c, 0, 60, 127
2, 139009, Note_on_c, 7, 55, 127
2, 139185, Note_off_c, 7, 55, 127
2, 139200, Note_on_c, 8, 56, 127
2, 139376, Note_off_c, 8, 56, 127
2, 139382, Note_off_c, 0, 60, 127
2, 139385, Note_off_c, 8, 68, 127
2, 139388, Note_on_c, 7, 67, 127
2, 139388, Note_on_c, 1, 61, 127
2, 139388, Note_on_c, 11, 58, 127
2, 139758, Note_off_c, 1, 61, 127
2, 139767, Note_off_c, 5, 53, 127
2, 139767, Note_on_c, 0, 60, 127
2, 139767, Note_on_c, 4, 52, 127
2, 139940, Note_off_c, 11, 58, 127
2, 139943, Note_off_c, 4, 52, 127
2, 139943, Note_off_c, 0, 60, 127
2, 139958, Note_on_c, 11, 58, 127
2, 139958, Note_on_c, 2, 50, 127
2, 140134, Note_off_c, 2, 50, 127
2, 140149, Note_on_c, 0, 60, 127
2, 140149, Note_on_c, 4, 52, 127
2, 140513, Note_off_c, 11, 58, 127
2, 140531, Note_on_c, 8, 56, 127
2, 140707, Note_off_c, 8, 56, 127
2, 140722, Note_on_c, 7, 55, 127
2, 140898, Note_off_c, 7, 55, 127
2, 140907, Note_off_c, 4, 52, 127
2, 140910, Note_on_c, 8, 56, 127
2, 140910, Note_on_c, 5, 53, 127
2, 141172, Note_off_c, 7, 67, 127
2, 141292, Note_on_c, 5, 65, 127
2, 141468, Note_off_c, 5, 65, 127
2, 141483, Note_on_c, 7, 67, 127
2, 141659, Note_off_c, 7, 67, 127
2, 141670, Note_off_c, 0, 60, 127
2, 141674, Note_on_c, 8, 68, 127
2, 142050, Note_off_c, 5, 53, 127
2, 142052, Note_off_c, 8, 56, 127
2, 142056, Note_on_c, 5, 53, 127
2, 142232, Note_off_c, 5, 53, 127
2, 142247, Note_on_c, 3, 51, 127
2, 142423, Note_off_c, 3, 51, 127
2, 142438, Note_on_c, 2, 50, 127
2, 142808, Note_off_c, 2, 50, 127
2, 142817, Note_on_c, 5, 65, 127
2, 142817, Note_on_c, 2, 50, 127
2, 142993, Note_off_c, 2, 50, 127
2, 142993, Note_off_c, 5, 65, 127
2, 143008, Note_on_c, 3, 63, 127
2, 143008, Note_on_c, 0, 48, 127
2, 143184, Note_off_c, 0, 48, 127
2, 143184, Note_off_c, 3, 63, 127
2, 143199, Note_on_c, 2, 62, 127
2, 143199, Note_on_c, 11, 46, 127
2, 143569, Note_off_c, 11, 46, 127
2, 143569, Note_off_c, 2, 62, 127
2, 143578, Note_on_c, 2, 62, 127
2, 143578, Note_on_c, 0, 48, 127
2, 143754, Note_off_c, 0, 48, 127
2, 143754, Note_off_c, 2, 62, 127
2, 143769, Note_on_c, 0, 60, 127
2, 143769, Note_on_c, 2, 50, 127
2, 143945, Note_off_c, 2, 50, 127
2, 143945, Note_off_c, 0, 60, 127
2, 143960, Note_on_c, 11, 58, 127
2, 143960, Note_on_c, 3, 51, 127
2, 144330, Note_off_c, 11, 58, 127
2, 144333, Note_off_c, 8, 68, 127
2, 144336, Note_on_c, 7, 67, 127
2, 144336, Note_on_c, 11, 58, 127
2, 144512, Note_off_c, 11, 58, 127
2, 144512, Note_off_c, 7, 67, 127
2, 144527, Note_on_c, 8, 68, 127
2, 144527, Note_on_c, 8, 56, 127
2, 144703, Note_off_c, 8, 56, 127
2, 144703, Note_off_c, 8, 68, 127
2, 144718, Note_on_c, 11, 70, 127
2, 144718, Note_on_c, 7, 55, 127
2, 145088, Note_off_c, 7, 55, 127
2, 145091, Note_off_c, 3, 51, 127
2, 145094, Note_on_c, 7, 55, 127
2, 145270, Note_off_c, 7, 55, 127
2, 145285, Note_on_c, 5, 53, 127
2, 145461, Note_off_c, 5, 53, 127
2, 145476, Note_on_c, 4, 52, 127
2, 145846, Note_off_c, 4, 52, 127
2, 145855, Note_on_c, 7, 67, 127
2, 145855, Note_on_c, 4, 52, 127
2, 146031, Note_off_c, 4, 52, 127
2, 146031, Note_off_c, 7, 67, 127
2, 146046, Note_on_c, 5, 65, 127
2, 146046, Note_on_c, 2, 50, 127
2, 146222, Note_off_c, 2, 50, 127
2, 146222, Note_off_c, 5, 65, 127
2, 146237, Note_on_c, 4, 64, 127
2, 146237, Note_on_c, 0, 48, 127
2, 146607, Note_off_c, 0, 48, 127
2, 146607, Note_off_c, 4, 64, 127
2, 146616, Note_on_c, 4, 64, 127
2, 146616, Note_on_c, 2, 50, 127
2, 146792, Note_off_c, 2, 50, 127
2, 146792, Note_off_c, 4, 64, 127
2, 146807, Note_on_c, 2, 62, 127
2, 146807, Note_on_c, 4, 52, 127
2, 146983, Note_off_c, 4, 52, 127
2, 146983, Note_off_c, 2, 62, 127
2, 146998, Note_on_c, 0, 60, 127
2, 146998, Note_on_c, 5, 53, 127
2, 147183, Note_off_c, 11, 70, 127
2, 147186, Note_on_c, 7, 67, 127
2, 147362, Note_off_c, 7, 67, 127
2, 147368, Note_off_c, 0, 60, 127
2, 147377, Note_on_c, 8, 68, 127
2, 147377, Note_on_c, 0, 60, 127
2, 147553, Note_off_c, 0, 60, 127
2, 147553, Note_off_c, 8, 68, 127
2, 147568, Note_on_c, 0, 72, 127
2, 147568, Note_on_c, 11, 58, 127
2, 147744, Note_off_c, 11, 58, 127
2, 147744, Note_off_c, 0, 72, 127
2, 147759, Note_on_c, 5, 77, 127
2, 147759, Note_on_c, 8, 56, 127
2, 148135, Note_off_c, 5, 53, 127
2, 148138, Note_on_c, 2, 50, 127
2, 148314, Note_off_c, 2, 50, 127
2, 148329, Note_on_c, 0, 48, 127
2, 148505, Note_off_c, 0, 48, 127
2, 148520, Note_on_c, 12, 47, 127
2, 148591, Note_off_c, 8, 56, 127
2, 148890, Note_off_c, 12, 47, 127
2, 148899, Note_on_c, 2, 74, 127
2, 148899, Note_on_c, 12, 47, 127
2, 149075, Note_off_c, 12, 47, 127
2, 149075, Note_off_c, 2, 74, 127
2, 149090, Note_on_c, 0, 72, 127
2, 149090, Note_on_c, 10, 45, 127
2, 149266, Note_off_c, 10, 45, 127
2, 149266, Note_off_c, 0, 72, 127
2, 149280, Note_on_c, 12, 71, 127
2, 149280, Note_on_c, 7, 43, 127
2, 149650, Note_off_c, 7, 43, 127
2, 149650, Note_off_c, 12, 71, 127
2, 149660, Note_on_c, 12, 71, 127
2, 149660, Note_on_c, 10, 45, 127
2, 149836, Note_off_c, 10, 45, 127
2, 149836, Note_off_c, 12, 71, 127
2, 149850, Note_on_c, 10, 69, 127
2, 149850, Note_on_c, 12, 47, 127
2, 150026, Note_off_c, 12, 47, 127
2, 150026, Note_off_c, 10, 69, 127
2, 150041, Note_on_c, 7, 67, 127
2, 150041, Note_on_c, 0, 48, 127
2, 150411, Note_off_c, 7, 67, 127
2, 150415, Note_off_c, 5, 77, 127
2, 150418, Note_on_c, 3, 75, 127
2, 150418, Note_on_c, 7, 67, 127
2, 150594, Note_off_c, 7, 67, 127
2, 150609, Note_on_c, 10, 69, 127
2, 150785, Note_off_c, 10, 69, 127
2, 150790, Note_off_c, 0, 48, 127
2, 150791, Note_off_c, 3, 75, 127
2, 150800, Note_on_c, 2, 74, 127
2, 150800, Note_on_c, 12, 71, 127
2, 150800, Note_on_c, 7, 55, 127
2, 151170, Note_off_c, 12, 71, 127
2, 151170, Note_off_c, 2, 74, 127
2, 151179, Note_on_c, 7, 79, 127
2, 151179, Note_on_c, 10, 69, 127
2, 151355, Note_off_c, 10, 69, 127
2, 151370, Note_on_c, 12, 71, 127
2, 151546, Note_off_c, 12, 71, 127
2, 151555, Note_off_c, 7, 55, 127
2, 151558, Note_on_c, 0, 72, 127
2, 151558, Note_on_c, 8, 56, 127
2, 151743, Note_off_c, 7, 79, 127
2, 151746, Note_on_c, 12, 71, 127
2, 151922, Note_off_c, 12, 71, 127
2, 151928, Note_off_c, 0, 72, 127
2, 151937, Note_on_c, 0, 72, 127
2, 152128, Note_on_c, 2, 74, 127
2, 152304, Note_off_c, 2, 74, 127
2, 152313, Note_off_c, 8, 56, 127
2, 152316, Note_on_c, 3, 75, 127
2, 152316, Note_on_c, 7, 55, 127
2, 152686, Note_off_c, 0, 72, 127
2, 152695, Note_on_c, 11, 70, 127
2, 153065, Note_off_c, 11, 70, 127
2, 153068, Note_off_c, 7, 55, 127
2, 153071, Note_on_c, 10, 69, 127
2, 153071, Note_on_c, 6, 54, 127
2, 153256, Note_off_c, 3, 75, 127
2, 153259, Note_on_c, 0, 72, 127
2, 153435, Note_off_c, 0, 72, 127
2, 153441, Note_off_c, 10, 69, 127
2, 153450, Note_on_c, 2, 74, 127
2, 153450, Note_on_c, 12, 71, 127
2, 153626, Note_off_c, 12, 71, 127
2, 153626, Note_off_c, 2, 74, 127
2, 153641, Note_on_c, 3, 75, 127
2, 153641, Note_on_c, 0, 72, 127
2, 153817, Note_off_c, 0, 72, 127
2, 153817, Note_off_c, 3, 75, 127
2, 153826, Note_off_c, 6, 54, 127
2, 153829, Note_on_c, 5, 77, 127
2, 153829, Note_on_c, 2, 74, 127
2, 153829, Note_on_c, 12, 59, 127
2, 154005, Note_off_c, 2, 74, 127
2, 154020, Note_on_c, 0, 72, 127
2, 154196, Note_off_c, 0, 72, 127
2, 154211, Note_on_c, 12, 71, 127
2, 154387, Note_off_c, 12, 71, 127
2, 154402, Note_on_c, 10, 69, 127
2, 154578, Note_off_c, 10, 69, 127
2, 154587, Note_off_c, 12, 59, 127
2, 154590, Note_on_c, 7, 67, 127
2, 154590, Note_on_c, 0, 60, 127
2, 154661, Note_off_c, 5, 77, 127
2, 154781, Note_on_c, 3, 75, 127
2, 154957, Note_off_c, 3, 75, 127
2, 154972, Note_on_c, 5, 77, 127
2, 155148, Note_off_c, 5, 77, 127
2, 155163, Note_on_c, 7, 79, 127
2, 155339, Note_off_c, 7, 79, 127
2, 155348, Note_off_c, 0, 60, 127
2, 155351, Note_on_c, 8, 80, 127
2, 155351, Note_on_c, 5, 53, 127
2, 155422, Note_off_c, 7, 67, 127
2, 155542, Note_on_c, 5, 65, 127
2, 155718, Note_off_c, 5, 65, 127
2, 155733, Note_on_c, 3, 63, 127
2, 155909, Note_off_c, 3, 63, 127
2, 155924, Note_on_c, 2, 62, 127
2, 156100, Note_off_c, 2, 62, 127
2, 156109, Note_off_c, 5, 53, 127
2, 156112, Note_on_c, 0, 60, 127
2, 156112, Note_on_c, 4, 52, 127
2, 156183, Note_off_c, 8, 80, 127
2, 156303, Note_on_c, 7, 79, 127
2, 156479, Note_off_c, 7, 79, 127
2, 156494, Note_on_c, 10, 81, 127
2, 156670, Note_off_c, 10, 81, 127
2, 156685, Note_on_c, 12, 83, 127
2, 156861, Note_off_c, 12, 83, 127
2, 156870, Note_off_c, 4, 52, 127
2, 156873, Note_on_c, 0, 84, 127
2, 156873, Note_on_c, 3, 51, 127
2, 156944, Note_off_c, 0, 60, 127
2, 157064, Note_on_c, 0, 72, 127
2, 157240, Note_off_c, 0, 72, 127
2, 157255, Note_on_c, 2, 74, 127
2, 157431, Note_off_c, 2, 74, 127
2, 157446, Note_on_c, 3, 75, 127
2, 157622, Note_off_c, 3, 75, 127
2, 157631, Note_off_c, 3, 51, 127
2, 157634, Note_on_c, 5, 77, 127
2, 157634, Note_on_c, 2, 50, 127
2, 158010, Note_off_c, 0, 84, 127
2, 158013, Note_on_c, 12, 83, 127
2, 158189, Note_off_c, 12, 83, 127
2, 158204, Note_on_c, 10, 81, 127
2, 158380, Note_off_c, 10, 81, 127
2, 158395, Note_on_c, 12, 83, 127
2, 158771, Note_off_c, 5, 77, 127
2, 158774, Note_on_c, 3, 75, 127
2, 158950, Note_off_c, 3, 75, 127
2, 158965, Note_on_c, 2, 74, 127
2, 159141, Note_off_c, 2, 74, 127
2, 159150, Note_off_c, 12, 83, 127
2, 159150, Note_off_c, 2, 50, 127
2, 159153, Note_on_c, 0, 84, 127
2, 159153, Note_on_c, 3, 75, 127
2, 159153, Note_on_c, 0, 48, 127
2, 159523, Note_off_c, 3, 75, 127
2, 159523, Note_off_c, 0, 84, 127
2, 159532, Note_on_c, 7, 79, 127
2, 159532, Note_on_c, 0, 72, 127
2, 159708, Note_off_c, 0, 72, 127
2, 159723, Note_on_c, 2, 74, 127
2, 159899, Note_off_c, 2, 74, 127
2, 159905, Note_off_c, 7, 79, 127
2, 159914, Note_on_c, 0, 84, 127
2, 159914, Note_on_c, 3, 75, 127
2, 160290, Note_off_c, 0, 48, 127
2, 160293, Note_on_c, 0, 72, 127
2, 160469, Note_off_c, 0, 72, 127
2, 160484, Note_on_c, 11, 70, 127
2, 160660, Note_off_c, 11, 70, 127
2, 160675, Note_on_c, 10, 69, 127
2, 161045, Note_off_c, 10, 69, 127
2, 161048, Note_off_c, 0, 84, 127
2, 161051, Note_on_c, 0, 84, 127
2, 161051, Note_on_c, 10, 69, 127
2, 161227, Note_off_c, 10, 69, 127
2, 161227, Note_off_c, 0, 84, 127
2, 161242, Note_on_c, 11, 82, 127
2, 161242, Note_on_c, 7, 67, 127
2, 161418, Note_off_c, 7, 67, 127
2, 161418, Note_off_c, 11, 82, 127
2, 161433, Note_on_c, 10, 81, 127
2, 161433, Note_on_c, 5, 65, 127
2, 161803, Note_off_c, 5, 65, 127
2, 161803, Note_off_c, 10, 81, 127
2, 161812, Note_on_c, 10, 81, 127
2, 161812, Note_on_c, 7, 67, 127
2, 161988, Note_off_c, 7, 67, 127
2, 161988, Note_off_c, 10, 81, 127
2, 162003, Note_on_c, 7, 79, 127
2, 162003, Note_on_c, 10, 69, 127
2, 162179, Note_off_c, 10, 69, 127
2, 162179, Note_off_c, 7, 79, 127
2, 162194, Note_on_c, 5, 77, 127
2, 162194, Note_on_c, 11, 70, 127
2, 162564, Note_off_c, 11, 70, 127
2, 162564, Note_off_c, 5, 77, 127
2, 162567, Note_off_c, 3, 75, 127
2, 162570, Note_on_c, 7, 79, 127
2, 162570, Note_on_c, 11, 70, 127
2, 162570, Note_on_c, 11, 58, 127
2, 162746, Note_off_c, 11, 70, 127
2, 162746, Note_off_c, 7, 79, 127
2, 162761, Note_on_c, 10, 81, 127
2, 162761, Note_on_c, 0, 72, 127
2, 162937, Note_off_c, 0, 72, 127
2, 162937, Note_off_c, 10, 81, 127
2, 162952, Note_on_c, 11, 82, 127
2, 162952, Note_on_c, 1, 73, 127
2, 163328, Note_off_c, 11, 58, 127
2, 163331, Note_on_c, 11, 70, 127
2, 163507, Note_off_c, 11, 70, 127
2, 163522, Note_on_c, 8, 68, 127
2, 163698, Note_off_c, 8, 68, 127
2, 163713, Note_on_c, 7, 67, 127
2, 164083, Note_off_c, 7, 67, 127
2, 164086, Note_off_c, 11, 82, 127
2, 164089, Note_on_c, 11, 82, 127
2, 164089, Note_on_c, 7, 67, 127
2, 164265, Note_off_c, 7, 67, 127
2, 164265, Note_off_c, 11, 82, 127
2, 164280, Note_on_c, 8, 80, 127
2, 164280, Note_on_c, 5, 65, 127
2, 164456, Note_off_c, 5, 65, 127
2, 164456, Note_off_c, 8, 80, 127
2, 164471, Note_on_c, 7, 79, 127
2, 164471, Note_on_c, 3, 63, 127
2, 164841, Note_off_c, 3, 63, 127
2, 164841, Note_off_c, 7, 79, 127
2, 164850, Note_on_c, 7, 79, 127
2, 164850, Note_on_c, 5, 65, 127
2, 165026, Note_off_c, 5, 65, 127
2, 165026, Note_off_c, 7, 79, 127
2, 165041, Note_on_c, 5, 77, 127
2, 165041, Note_on_c, 7, 67, 127
2, 165217, Note_off_c, 7, 67, 127
2, 165217, Note_off_c, 5, 77, 127
2, 165232, Note_on_c, 3, 75, 127
2, 165232, Note_on_c, 8, 68, 127
2, 165602, Note_off_c, 8, 68, 127
2, 165602, Note_off_c, 3, 75, 127
2, 165605, Note_off_c, 1, 73, 127
2, 165608, Note_on_c, 5, 77, 127
2, 165608, Note_on_c, 8, 68, 127
2, 165608, Note_on_c, 8, 56, 127
2, 165784, Note_off_c, 8, 68, 127
2, 165784, Note_off_c, 5, 77, 127
2, 165799, Note_on_c, 7, 79, 127
2, 165799, Note_on_c, 11, 70, 127
2, 165975, Note_off_c, 11, 70, 127
2, 165975, Note_off_c, 7, 79, 127
2, 165990, Note_on_c, 8, 80, 127
2, 165990, Note_on_c, 0, 72, 127
2, 166366, Note_off_c, 8, 56, 127
2, 166369, Note_on_c, 8, 68, 127
2, 166545, Note_off_c, 8, 68, 127
2, 166560, Note_on_c, 7, 67, 127
2, 166736, Note_off_c, 7, 67, 127
2, 166751, Note_on_c, 5, 65, 127
2, 167121, Note_off_c, 5, 65, 127
2, 167124, Note_off_c, 8, 80, 127
2, 167127, Note_on_c, 8, 80, 127
2, 167127, Note_on_c, 5, 65, 127
2, 167303, Note_off_c, 5, 65, 127
2, 167303, Note_off_c, 8, 80, 127
2, 167318, Note_on_c, 7, 79, 127
2, 167318, Note_on_c, 3, 63, 127
2, 167494, Note_off_c, 3, 63, 127
2, 167494, Note_off_c, 7, 79, 127
2, 167509, Note_on_c, 5, 77, 127
2, 167509, Note_on_c, 1, 61, 127
2, 167879, Note_off_c, 1, 61, 127
2, 167879, Note_off_c, 5, 77, 127
2, 167888, Note_on_c, 5, 77, 127
2, 167888, Note_on_c, 1, 61, 127
2, 168064, Note_off_c, 1, 61, 127
2, 168064, Note_off_c, 5, 77, 127
2, 168079, Note_on_c, 3, 75, 127
2, 168079, Note_on_c, 0, 60, 127
2, 168255, Note_off_c, 0, 60, 127
2, 168255, Note_off_c, 3, 75, 127
2, 168270, Note_on_c, 1, 73, 127
2, 168270, Note_on_c, 11, 58, 127
2, 168640, Note_off_c, 11, 58, 127
2, 168643, Note_off_c, 0, 72, 127
2, 168646, Note_on_c, 11, 70, 127
2, 168646, Note_on_c, 0, 60, 127
2, 168822, Note_off_c, 0, 60, 127
2, 168822, Note_off_c, 11, 70, 127
2, 168837, Note_on_c, 8, 68, 127
2, 168837, Note_on_c, 1, 61, 127
2, 169013, Note_off_c, 1, 61, 127
2, 169013, Note_off_c, 8, 68, 127
2, 169028, Note_on_c, 7, 67, 127
2, 169028, Note_on_c, 3, 63, 127
2, 169398, Note_off_c, 3, 63, 127
2, 169401, Note_off_c, 1, 73, 127
2, 169404, Note_on_c, 3, 75, 127
2, 169404, Note_on_c, 3, 51, 127
2, 169580, Note_off_c, 3, 75, 127
2, 169595, Note_on_c, 1, 73, 127
2, 169771, Note_off_c, 1, 73, 127
2, 169777, Note_off_c, 3, 51, 127
2, 169786, Note_on_c, 0, 72, 127
2, 169786, Note_on_c, 8, 56, 127
2, 170156, Note_off_c, 8, 56, 127
2, 170156, Note_off_c, 0, 72, 127
2, 170165, Note_on_c, 0, 72, 127
2, 170165, Note_on_c, 11, 58, 127
2, 170341, Note_off_c, 11, 58, 127
2, 170341, Note_off_c, 0, 72, 127
2, 170356, Note_on_c, 11, 70, 127
2, 170356, Note_on_c, 0, 60, 127
2, 170532, Note_off_c, 0, 60, 127
2, 170532, Note_off_c, 11, 70, 127
2, 170547, Note_on_c, 8, 68, 127
2, 170547, Note_on_c, 1, 61, 127
2, 170923, Note_off_c, 7, 67, 127
2, 170926, Note_on_c, 5, 65, 127
2, 171102, Note_off_c, 5, 65, 127
2, 171117, Note_on_c, 4, 64, 127
2, 171293, Note_off_c, 4, 64, 127
2, 171308, Note_on_c, 5, 65, 127
2, 171684, Note_off_c, 1, 61, 127
2, 171684, Note_off_c, 8, 68, 127
2, 171687, Note_on_c, 11, 70, 127
2, 171687, Note_on_c, 1, 61, 127
2, 171863, Note_off_c, 1, 61, 127
2, 171863, Note_off_c, 11, 70, 127
2, 171878, Note_on_c, 0, 72, 127
2, 171878, Note_on_c, 0, 60, 127
2, 172054, Note_off_c, 0, 60, 127
2, 172054, Note_off_c, 0, 72, 127
2, 172069, Note_on_c, 1, 73, 127
2, 172069, Note_on_c, 11, 58, 127
2, 172439, Note_off_c, 11, 58, 127
2, 172442, Note_off_c, 5, 65, 127
2, 172445, Note_on_c, 7, 67, 127
2, 172445, Note_on_c, 11, 58, 127
2, 172621, Note_off_c, 11, 58, 127
2, 172621, Note_off_c, 7, 67, 127
2, 172636, Note_on_c, 8, 68, 127
2, 172636, Note_on_c, 8, 56, 127
2, 172812, Note_off_c, 8, 56, 127
2, 172812, Note_off_c, 8, 68, 127
2, 172827, Note_on_c, 11, 70, 127
2, 172827, Note_on_c, 7, 55, 127
2, 173012, Note_off_c, 1, 73, 127
2, 173015, Note_on_c, 0, 72, 127
2, 173191, Note_off_c, 0, 72, 127
2, 173197, Note_off_c, 7, 55, 127
2, 173206, Note_on_c, 1, 73, 127
2, 173206, Note_on_c, 7, 55, 127
2, 173382, Note_off_c, 7, 55, 127
2, 173382, Note_off_c, 1, 73, 127
2, 173391, Note_off_c, 11, 70, 127
2, 173394, Note_on_c, 11, 70, 127
2, 173394, Note_on_c, 5, 53, 127
2, 173570, Note_off_c, 5, 53, 127
2, 173585, Note_on_c, 7, 79, 127
2, 173585, Note_on_c, 4, 52, 127
2, 173767, Note_off_c, 11, 70, 127
2, 173776, Note_on_c, 8, 68, 127
2, 173952, Note_off_c, 8, 68, 127
2, 173958, Note_off_c, 4, 52, 127
2, 173967, Note_on_c, 11, 70, 127
2, 173967, Note_on_c, 0, 48, 127
2, 174143, Note_off_c, 11, 70, 127
2, 174158, Note_on_c, 7, 67, 127
2, 174334, Note_off_c, 7, 67, 127
2, 174340, Note_off_c, 0, 48, 127
2, 174349, Note_on_c, 8, 68, 127
2, 174349, Note_on_c, 5, 53, 127
2, 174534, Note_off_c, 7, 79, 127
2, 174537, Note_on_c, 0, 72, 127
2, 174713, Note_off_c, 0, 72, 127
2, 174719, Note_off_c, 5, 53, 127
2, 174728, Note_on_c, 1, 73, 127
2, 174728, Note_on_c, 5, 65, 127
2, 174904, Note_off_c, 5, 65, 127
2, 174904, Note_off_c, 1, 73, 127
2, 174919, Note_on_c, 0, 72, 127
2, 174919, Note_on_c, 3, 63, 127
2, 175095, Note_off_c, 3, 63, 127
2, 175095, Note_off_c, 0, 72, 127
2, 175110, Note_on_c, 5, 77, 127
2, 175110, Note_on_c, 3, 63, 127
2, 175232, Note_off_c, 3, 63, 127
2, 175235, Note_on_c, 1, 61, 127
2, 175295, Note_off_c, 8, 68, 127
2, 175298, Note_on_c, 7, 67, 127
2, 175357, Note_off_c, 1, 61, 127
2, 175361, Note_on_c, 3, 63, 127
2, 175474, Note_off_c, 7, 67, 127
2, 175483, Note_off_c, 3, 63, 127
2, 175486, Note_on_c, 8, 68, 127
2, 175486, Note_on_c, 1, 61, 127
2, 175608, Note_off_c, 1, 61, 127
2, 175612, Note_on_c, 3, 63, 127
2, 175659, Note_off_c, 8, 68, 127
2, 175674, Note_on_c, 5, 65, 127
2, 175734, Note_off_c, 3, 63, 127
2, 175737, Note_on_c, 1, 61, 127
2, 175850, Note_off_c, 5, 65, 127
2, 175859, Note_off_c, 1, 61, 127
2, 175862, Note_on_c, 0, 72, 127
2, 175862, Note_on_c, 0, 60, 127
2, 176232, Note_off_c, 0, 60, 127
2, 176232, Note_off_c, 0, 72, 127
2, 176235, Note_off_c, 5, 77, 127
2, 176239, Note_on_c, 4, 76, 127
2, 176239, Note_on_c, 7, 67, 127
2, 176239, Note_on_c, 0, 48, 127
2, 176415, Note_off_c, 0, 48, 127
2, 176415, Note_off_c, 4, 76, 127
2, 176430, Note_on_c, 5, 77, 127
2, 176430, Note_on_c, 2, 50, 127
2, 176606, Note_off_c, 2, 50, 127
2, 176606, Note_off_c, 5, 77, 127
2, 176612, Note_off_c, 7, 67, 127
2, 176621, Note_on_c, 7, 79, 127
2, 176621, Note_on_c, 0, 72, 127
2, 176621, Note_on_c, 4, 52, 127
2, 176621, Note_on_c, 0, 48, 127
2, 176991, Note_off_c, 4, 52, 127
2, 176991, Note_off_c, 0, 72, 127
2, 177000, Note_on_c, 11, 70, 127
2, 177000, Note_on_c, 2, 50, 127
2, 177176, Note_off_c, 2, 50, 127
2, 177191, Note_on_c, 4, 52, 127
2, 177367, Note_off_c, 4, 52, 127
2, 177373, Note_off_c, 11, 70, 127
2, 177376, Note_off_c, 0, 48, 127
2, 177379, Note_on_c, 8, 68, 127
2, 177379, Note_on_c, 5, 53, 127
2, 177379, Note_on_c, 1, 49, 127
2, 177555, Note_off_c, 5, 53, 127
2, 177570, Note_on_c, 4, 52, 127
2, 177746, Note_off_c, 4, 52, 127
2, 177752, Note_off_c, 8, 68, 127
2, 177755, Note_off_c, 7, 79, 127
2, 177758, Note_on_c, 5, 77, 127
2, 177758, Note_on_c, 11, 70, 127
2, 177758, Note_on_c, 5, 53, 127
2, 177934, Note_off_c, 5, 53, 127
2, 177949, Note_on_c, 7, 55, 127
2, 178125, Note_off_c, 7, 55, 127
2, 178131, Note_off_c, 11, 70, 127
2, 178134, Note_off_c, 1, 49, 127
2, 178137, Note_on_c, 0, 72, 127
2, 178137, Note_on_c, 8, 56, 127
2, 178137, Note_on_c, 0, 48, 127
2, 178313, Note_off_c, 0, 72, 127
2, 178328, Note_on_c, 0, 60, 127
2, 178504, Note_off_c, 0, 60, 127
2, 178513, Note_off_c, 5, 77, 127
2, 178516, Note_on_c, 3, 75, 127
2, 178516, Note_on_c, 2, 62, 127
2, 178692, Note_off_c, 2, 62, 127
2, 178707, Note_on_c, 3, 63, 127
2, 178883, Note_off_c, 3, 63, 127
2, 178889, Note_off_c, 3, 75, 127
2, 178892, Note_off_c, 0, 48, 127
2, 178895, Note_on_c, 2, 74, 127
2, 178895, Note_on_c, 5, 65, 127
2, 178895, Note_on_c, 12, 47, 127
2, 178966, Note_off_c, 8, 56, 127
2, 179086, Note_on_c, 5, 53, 127
2, 179262, Note_off_c, 5, 53, 127
2, 179268, Note_off_c, 2, 74, 127
2, 179277, Note_on_c, 3, 75, 127
2, 179277, Note_on_c, 7, 55, 127
2, 179453, Note_off_c, 7, 55, 127
2, 179453, Note_off_c, 3, 75, 127
2, 179468, Note_on_c, 5, 77, 127
2, 179468, Note_on_c, 8, 56, 127
2, 179644, Note_off_c, 8, 56, 127
2, 179644, Note_off_c, 5, 77, 127
2, 179653, Note_off_c, 12, 47, 127
2, 179656, Note_on_c, 7, 79, 127
2, 179656, Note_on_c, 11, 58, 127
2, 179656, Note_on_c, 4, 52, 127
2, 179832, Note_off_c, 7, 79, 127
2, 179847, Note_on_c, 5, 77, 127
2, 180023, Note_off_c, 5, 77, 127
2, 180032, Note_off_c, 5, 65, 127
2, 180035, Note_on_c, 4, 76, 127
2, 180035, Note_on_c, 7, 67, 127
2, 180211, Note_off_c, 4, 76, 127
2, 180226, Note_on_c, 2, 74, 127
2, 180402, Note_off_c, 2, 74, 127
2, 180408, Note_off_c, 7, 67, 127
2, 180411, Note_off_c, 4, 52, 127
2, 180414, Note_on_c, 0, 72, 127
2, 180414, Note_on_c, 8, 68, 127
2, 180414, Note_on_c, 5, 53, 127
2, 180485, Note_off_c, 11, 58, 127
2, 180605, Note_on_c, 8, 56, 127
2, 180781, Note_off_c, 8, 56, 127
2, 180796, Note_on_c, 11, 58, 127
2, 180972, Note_off_c, 11, 58, 127
2, 180987, Note_on_c, 0, 60, 127
2, 181163, Note_off_c, 0, 60, 127
2, 181172, Note_off_c, 5, 53, 127
2, 181175, Note_on_c, 1, 61, 127
2, 181175, Note_on_c, 11, 46, 127
2, 181360, Note_off_c, 8, 68, 127
2, 181363, Note_on_c, 11, 70, 127
2, 181539, Note_off_c, 11, 70, 127
2, 181554, Note_on_c, 8, 68, 127
2, 181730, Note_off_c, 8, 68, 127
2, 181745, Note_on_c, 7, 67, 127
2, 181921, Note_off_c, 7, 67, 127
2, 181930, Note_off_c, 11, 46, 127
2, 181930, Note_off_c, 0, 72, 127
2, 181933, Note_on_c, 0, 72, 127
2, 181933, Note_on_c, 5, 65, 127
2, 181933, Note_on_c, 10, 45, 127
2, 182004, Note_off_c, 1, 61, 127
2, 182124, Note_on_c, 0, 60, 127
2, 182300, Note_off_c, 0, 60, 127
2, 182315, Note_on_c, 2, 62, 127
2, 182491, Note_off_c, 2, 62, 127
2, 182506, Note_on_c, 4, 64, 127
2, 182682, Note_off_c, 4, 64, 127
2, 182688, Note_off_c, 5, 65, 127
2, 182691, Note_off_c, 10, 45, 127
2, 182694, Note_on_c, 5, 65, 127
2, 182694, Note_on_c, 8, 44, 127
2, 182870, Note_off_c, 5, 65, 127
2, 182885, Note_on_c, 5, 65, 127
2, 183070, Note_off_c, 0, 72, 127
2, 183073, Note_on_c, 0, 72, 127
2, 183073, Note_on_c, 7, 67, 127
2, 183249, Note_off_c, 7, 67, 127
2, 183264, Note_on_c, 8, 68, 127
2, 183440, Note_off_c, 8, 68, 127
2, 183446, Note_off_c, 0, 72, 127
2, 183449, Note_off_c, 8, 44, 127
2, 183452, Note_on_c, 1, 73, 127
2, 183452, Note_on_c, 11, 70, 127
2, 183452, Note_on_c, 7, 43, 127
2, 183822, Note_off_c, 1, 73, 127
2, 183831, Note_off_c, 5, 65, 127
2, 183831, Note_on_c, 0, 72, 127
2, 183831, Note_on_c, 4, 64, 127
2, 184004, Note_off_c, 11, 70, 127
2, 184007, Note_off_c, 4, 64, 127
2, 184007, Note_off_c, 0, 72, 127
2, 184022, Note_on_c, 11, 70, 127
2, 184022, Note_on_c, 2, 62, 127
2, 184198, Note_off_c, 2, 62, 127
2, 184198, Note_off_c, 11, 70, 127
2, 184213, Note_on_c, 0, 72, 127
2, 184213, Note_on_c, 4, 64, 127
2, 184592, Note_on_c, 8, 68, 127
2, 184768, Note_off_c, 8, 68, 127
2, 184783, Note_on_c, 7, 67, 127
2, 184959, Note_off_c, 7, 67, 127
2, 184968, Note_off_c, 4, 64, 127
2, 184968, Note_off_c, 7, 43, 127
2, 184971, Note_on_c, 8, 68, 127
2, 184971, Note_on_c, 5, 65, 127
2, 184971, Note_on_c, 5, 41, 127
2, 185350, Note_off_c, 5, 41, 127
2, 185359, Note_on_c, 5, 53, 127
2, 185538, Note_off_c, 5, 53, 127
2, 185552, Note_on_c, 7, 55, 127
2, 185731, Note_off_c, 7, 55, 127
2, 185746, Note_on_c, 8, 56, 127
2, 186125, Note_off_c, 8, 56, 127
2, 186128, Note_off_c, 5, 65, 127
2, 186131, Note_on_c, 0, 60, 127
2, 186131, Note_on_c, 8, 56, 127
2, 186310, Note_off_c, 8, 56, 127
2, 186310, Note_off_c, 0, 60, 127
2, 186325, Note_on_c, 1, 61, 127
2, 186325, Note_on_c, 11, 58, 127
2, 186504, Note_off_c, 11, 58, 127
2, 186504, Note_off_c, 1, 61, 127
2, 186519, Note_on_c, 3, 63, 127
2, 186519, Note_on_c, 0, 60, 127
2, 186898, Note_off_c, 3, 63, 127
2, 186900, Note_off_c, 8, 68, 127
2, 186900, Note_off_c, 0, 72, 127
2, 186903, Note_on_c, 6, 78, 127
2, 186903, Note_on_c, 3, 63, 127
2, 187082, Note_off_c, 3, 63, 127
2, 187082, Note_off_c, 6, 78, 127
2, 187097, Note_on_c, 5, 77, 127
2, 187097, Note_on_c, 5, 65, 127
2, 187276, Note_off_c, 5, 65, 127
2, 187276, Note_off_c, 5, 77, 127
2, 187291, Note_on_c, 3, 75, 127
2, 187291, Note_on_c, 6, 66, 127
2, 187470, Note_off_c, 3, 75, 127
2, 187482, Note_off_c, 0, 60, 127
2, 187485, Note_on_c, 1, 73, 127
2, 187485, Note_on_c, 11, 58, 127
2, 187664, Note_off_c, 11, 58, 127
2, 187664, Note_off_c, 1, 73, 127
2, 187679, Note_on_c, 0, 72, 127
2, 187679, Note_on_c, 8, 56, 127
2, 187858, Note_off_c, 8, 56, 127
2, 187858, Note_off_c, 0, 72, 127
2, 187872, Note_on_c, 11, 70, 127
2, 187872, Note_on_c, 6, 54, 127
2, 188051, Note_off_c, 6, 54, 127
2, 188051, Note_off_c, 11, 70, 127
2, 188066, Note_on_c, 8, 68, 127
2, 188066, Note_on_c, 5, 53, 127
2, 188445, Note_off_c, 5, 53, 127
2, 188445, Note_off_c, 8, 68, 127
2, 188448, Note_off_c, 6, 66, 127
2, 188451, Note_on_c, 11, 70, 127
2, 188451, Note_on_c, 5, 65, 127
2, 188451, Note_on_c, 1, 49, 127
2, 188630, Note_off_c, 1, 49, 127
2, 188630, Note_off_c, 5, 65, 127
2, 188630, Note_off_c, 11, 70, 127
2, 188645, Note_on_c, 0, 72, 127
2, 188645, Note_on_c, 3, 63, 127
2, 188645, Note_on_c, 3, 51, 127
2, 188824, Note_off_c, 3, 51, 127
2, 188824, Note_off_c, 3, 63, 127
2, 188824, Note_off_c, 0, 72, 127
2, 188838, Note_on_c, 1, 73, 127
2, 188838, Note_on_c, 1, 61, 127
2, 188838, Note_on_c, 5, 53, 127
2, 189217, Note_off_c, 5, 53, 127
2, 189217, Note_off_c, 1, 61, 127
2, 189226, Note_on_c, 8, 56, 127
2, 189226, Note_on_c, 5, 53, 127
2, 189405, Note_off_c, 5, 53, 127
2, 189405, Note_off_c, 8, 56, 127
2, 189420, Note_on_c, 11, 58, 127
2, 189420, Note_on_c, 7, 55, 127
2, 189599, Note_off_c, 7, 55, 127
2, 189599, Note_off_c, 11, 58, 127
2, 189604, Note_off_c, 1, 73, 127
2, 189614, Note_on_c, 0, 60, 127
2, 189614, Note_on_c, 8, 56, 127
2, 189993, Note_off_c, 0, 60, 127
2, 190001, Note_on_c, 3, 75, 127
2, 190001, Note_on_c, 0, 60, 127
2, 190180, Note_off_c, 0, 60, 127
2, 190180, Note_off_c, 3, 75, 127
2, 190195, Note_on_c, 1, 73, 127
2, 190195, Note_on_c, 1, 61, 127
2, 190374, Note_off_c, 1, 61, 127
2, 190374, Note_off_c, 1, 73, 127
2, 190389, Note_on_c, 0, 72, 127
2, 190389, Note_on_c, 3, 63, 127
2, 190568, Note_off_c, 0, 72, 127
2, 190580, Note_off_c, 8, 56, 127
2, 190583, Note_on_c, 11, 70, 127
2, 190583, Note_on_c, 6, 54, 127
2, 190762, Note_off_c, 6, 54, 127
2, 190762, Note_off_c, 11, 70, 127
2, 190776, Note_on_c, 8, 68, 127
2, 190776, Note_on_c, 5, 53, 127
2, 190955, Note_off_c, 5, 53, 127
2, 190955, Note_off_c, 8, 68, 127
2, 190970, Note_on_c, 6, 66, 127
2, 190970, Note_on_c, 3, 51, 127
2, 191149, Note_off_c, 3, 51, 127
2, 191149, Note_off_c, 6, 66, 127
2, 191164, Note_on_c, 5, 65, 127
2, 191164, Note_on_c, 1, 49, 127
2, 191543, Note_off_c, 1, 49, 127
2, 191543, Note_off_c, 5, 65, 127
2, 191546, Note_off_c, 3, 63, 127
2, 191549, Note_on_c, 7, 67, 127
2, 191549, Note_on_c, 1, 61, 127
2, 191549, Note_on_c, 11, 46, 127
2, 191728, Note_off_c, 11, 46, 127
2, 191728, Note_off_c, 1, 61, 127
2, 191728, Note_off_c, 7, 67, 127
2, 191743, Note_on_c, 10, 69, 127
2, 191743, Note_on_c, 0, 60, 127
2, 191743, Note_on_c, 0, 48, 127
2, 191922, Note_off_c, 0, 48, 127
2, 191922, Note_off_c, 0, 60, 127
2, 191922, Note_off_c, 10, 69, 127
2, 191936, Note_on_c, 11, 70, 127
2, 191936, Note_on_c, 11, 58, 127
2, 191936, Note_on_c, 1, 49, 127
2, 192315, Note_off_c, 1, 49, 127
2, 192315, Note_off_c, 11, 58, 127
2, 192324, Note_on_c, 5, 53, 127
2, 192324, Note_on_c, 1, 49, 127
2, 192503, Note_off_c, 1, 49, 127
2, 192503, Note_off_c, 5, 53, 127
2, 192518, Note_on_c, 7, 55, 127
2, 192518, Note_on_c, 3, 51, 127
2, 192697, Note_off_c, 3, 51, 127
2, 192697, Note_off_c, 7, 55, 127
2, 192702, Note_off_c, 11, 70, 127
2, 192712, Note_on_c, 8, 56, 127
2, 192712, Note_on_c, 5, 53, 127
2, 193091, Note_off_c, 8, 56, 127
2, 193099, Note_on_c, 0, 72, 127
2, 193099, Note_on_c, 8, 56, 127
2, 193278, Note_off_c, 8, 56, 127
2, 193278, Note_off_c, 0, 72, 127
2, 193293, Note_on_c, 11, 70, 127
2, 193293, Note_on_c, 11, 58, 127
2, 193472, Note_off_c, 11, 58, 127
2, 193472, Note_off_c, 11, 70, 127
2, 193487, Note_on_c, 8, 68, 127
2, 193487, Note_on_c, 0, 60, 127
2, 193666, Note_off_c, 8, 68, 127
2, 193678, Note_off_c, 5, 53, 127
2, 193681, Note_on_c, 7, 67, 127
2, 193681, Note_on_c, 3, 51, 127
2, 193860, Note_off_c, 3, 51, 127
2, 193860, Note_off_c, 7, 67, 127
2, 193874, Note_on_c, 5, 65, 127
2, 193874, Note_on_c, 1, 49, 127
2, 194053, Note_off_c, 1, 49, 127
2, 194053, Note_off_c, 5, 65, 127
2, 194068, Note_on_c, 3, 63, 127
2, 194068, Note_on_c, 0, 48, 127
2, 194247, Note_off_c, 0, 48, 127
2, 194247, Note_off_c, 3, 63, 127
2, 194262, Note_on_c, 1, 61, 127
2, 194262, Note_on_c, 11, 46, 127
2, 194441, Note_off_c, 11, 46, 127
2, 194456, Note_on_c, 0, 48, 127
2, 194635, Note_off_c, 0, 48, 127
2, 194646, Note_off_c, 0, 60, 127
2, 194650, Note_on_c, 11, 58, 127
2, 194650, Note_on_c, 1, 49, 127
2, 194829, Note_off_c, 1, 49, 127
2, 194829, Note_off_c, 11, 58, 127
2, 194843, Note_on_c, 0, 60, 127
2, 194843, Note_on_c, 0, 48, 127
2, 195022, Note_off_c, 0, 48, 127
2, 195022, Note_off_c, 0, 60, 127
2, 195028, Note_off_c, 1, 61, 127
2, 195037, Note_on_c, 1, 61, 127
2, 195037, Note_on_c, 11, 46, 127
2, 195216, Note_off_c, 11, 46, 127
2, 195231, Note_on_c, 5, 65, 127
2, 195231, Note_on_c, 8, 44, 127
2, 195410, Note_off_c, 8, 44, 127
2, 195410, Note_off_c, 5, 65, 127
2, 195425, Note_on_c, 11, 70, 127
2, 195425, Note_on_c, 7, 43, 127
2, 195604, Note_off_c, 7, 43, 127
2, 195604, Note_off_c, 11, 70, 127
2, 195619, Note_on_c, 8, 68, 127
2, 195619, Note_on_c, 5, 41, 127
2, 195798, Note_off_c, 5, 41, 127
2, 195798, Note_off_c, 8, 68, 127
2, 195812, Note_on_c, 7, 67, 127
2, 195812, Note_on_c, 3, 39, 127
2, 196191, Note_off_c, 3, 39, 127
2, 196194, Note_off_c, 1, 61, 127
2, 196197, Note_on_c, 3, 63, 127
2, 196197, Note_on_c, 11, 46, 127
2, 196376, Note_off_c, 3, 63, 127
2, 196391, Note_on_c, 1, 61, 127
2, 196570, Note_off_c, 1, 61, 127
2, 196576, Note_off_c, 11, 46, 127
2, 196578, Note_off_c, 7, 67, 127
2, 196582, Note_on_c, 8, 68, 127
2, 196582, Note_on_c, 3, 63, 127
2, 196582, Note_on_c, 0, 60, 127
2, 196582, Note_on_c, 0, 48, 127
2, 196961, Note_off_c, 0, 48, 127
2, 196961, Note_off_c, 0, 60, 127
2, 196970, Note_on_c, 1, 61, 127
2, 196970, Note_on_c, 8, 44, 127
2, 197149, Note_off_c, 1, 61, 127
2, 197163, Note_on_c, 0, 60, 127
2, 197342, Note_off_c, 0, 60, 127
2, 197349, Note_off_c, 8, 44, 127
2, 197351, Note_off_c, 3, 63, 127
2, 197354, Note_on_c, 5, 65, 127
2, 197354, Note_on_c, 11, 58, 127
2, 197354, Note_on_c, 1, 49, 127
2, 197542, Note_off_c, 8, 68, 127
2, 197545, Note_on_c, 7, 67, 127
2, 197724, Note_off_c, 7, 67, 127
2, 197730, Note_off_c, 1, 49, 127
2, 197739, Note_on_c, 8, 68, 127
2, 197739, Note_on_c, 11, 46, 127
2, 197918, Note_off_c, 8, 68, 127
2, 197933, Note_on_c, 11, 70, 127
2, 198112, Note_off_c, 11, 70, 127
2, 198118, Note_off_c, 11, 46, 127
2, 198120, Note_off_c, 5, 65, 127
2, 198124, Note_on_c, 0, 72, 127
2, 198124, Note_on_c, 3, 63, 127
2, 198124, Note_on_c, 3, 51, 127
2, 198503, Note_off_c, 3, 51, 127
2, 198505, Note_off_c, 11, 58, 127
2, 198509, Note_on_c, 8, 56, 127
2, 198509, Note_on_c, 0, 48, 127
2, 198688, Note_off_c, 8, 56, 127
2, 198702, Note_on_c, 7, 55, 127
2, 198881, Note_off_c, 7, 55, 127
2, 198888, Note_off_c, 0, 48, 127
2, 198890, Note_off_c, 3, 63, 127
2, 198893, Note_on_c, 2, 62, 127
2, 198893, Note_on_c, 8, 56, 127
2, 198893, Note_on_c, 5, 53, 127
2, 199081, Note_off_c, 0, 72, 127
2, 199084, Note_on_c, 8, 68, 127
2, 199263, Note_off_c, 8, 68, 127
2, 199269, Note_off_c, 5, 53, 127
2, 199269, Note_off_c, 8, 56, 127
2, 199278, Note_on_c, 11, 70, 127
2, 199278, Note_on_c, 7, 55, 127
2, 199278, Note_on_c, 11, 46, 127
2, 199457, Note_off_c, 7, 55, 127
2, 199457, Note_off_c, 11, 70, 127
2, 199472, Note_on_c, 0, 72, 127
2, 199472, Note_on_c, 8, 56, 127
2, 199651, Note_off_c, 8, 56, 127
2, 199651, Note_off_c, 0, 72, 127
2, 199662, Note_off_c, 2, 62, 127
2, 199666, Note_on_c, 1, 73, 127
2, 199666, Note_on_c, 7, 67, 127
2, 199666, Note_on_c, 11, 58, 127
2, 199845, Note_off_c, 11, 58, 127
2, 199859, Note_on_c, 8, 56, 127
2, 200038, Note_off_c, 8, 56, 127
2, 200050, Note_off_c, 11, 46, 127
2, 200053, Note_on_c, 7, 55, 127
2, 200053, Note_on_c, 3, 51, 127
2, 200232, Note_off_c, 3, 51, 127
2, 200232, Note_off_c, 7, 55, 127
2, 200247, Note_on_c, 5, 53, 127
2, 200247, Note_on_c, 1, 49, 127
2, 200426, Note_off_c, 1, 49, 127
2, 200426, Note_off_c, 5, 53, 127
2, 200438, Note_off_c, 7, 67, 127
2, 200441, Note_on_c, 8, 68, 127
2, 200441, Note_on_c, 3, 51, 127
2, 200441, Note_on_c, 0, 48, 127
2, 200629, Note_off_c, 1, 73, 127
2, 200632, Note_on_c, 0, 72, 127
2, 200811, Note_off_c, 0, 72, 127
2, 200817, Note_off_c, 0, 48, 127
2, 200817, Note_off_c, 3, 51, 127
2, 200826, Note_on_c, 1, 73, 127
2, 200826, Note_on_c, 8, 56, 127
2, 200826, Note_on_c, 5, 53, 127
2, 201005, Note_off_c, 1, 73, 127
2, 201019, Note_on_c, 3, 75, 127
2, 201198, Note_off_c, 3, 75, 127
2, 201210, Note_off_c, 8, 68, 127
2, 201213, Note_on_c, 5, 77, 127
2, 201213, Note_on_c, 1, 61, 127
2, 201401, Note_off_c, 5, 53, 127
2, 201401, Note_off_c, 8, 56, 127
2, 201404, Note_on_c, 7, 55, 127
2, 201404, Note_on_c, 3, 51, 127
2, 201583, Note_off_c, 3, 51, 127
2, 201583, Note_off_c, 7, 55, 127
2, 201598, Note_on_c, 8, 56, 127
2, 201598, Note_on_c, 5, 53, 127
2, 201777, Note_off_c, 5, 53, 127
2, 201777, Note_off_c, 8, 56, 127
2, 201792, Note_on_c, 11, 58, 127
2, 201792, Note_on_c, 7, 55, 127
2, 201971, Note_off_c, 7, 55, 127
2, 201971, Note_off_c, 11, 58, 127
2, 201976, Note_off_c, 1, 61, 127
2, 201986, Note_on_c, 0, 60, 127
2, 201986, Note_on_c, 8, 56, 127
2, 202165, Note_off_c, 8, 56, 127
2, 202176, Note_off_c, 5, 77, 127
2, 202179, Note_on_c, 3, 75, 127
2, 202179, Note_on_c, 7, 55, 127
2, 202358, Note_off_c, 7, 55, 127
2, 202358, Note_off_c, 3, 75, 127
2, 202373, Note_on_c, 5, 77, 127
2, 202373, Note_on_c, 5, 53, 127
2, 202552, Note_off_c, 5, 53, 127
2, 202552, Note_off_c, 5, 77, 127
2, 202567, Note_on_c, 7, 79, 127
2, 202567, Note_on_c, 3, 51, 127
2, 202746, Note_off_c, 3, 51, 127
2, 202746, Note_off_c, 7, 79, 127
2, 202752, Note_off_c, 0, 60, 127
2, 202761, Note_on_c, 8, 80, 127
2, 202761, Note_on_c, 12, 59, 127
2, 202761, Note_on_c, 2, 50, 127
2, 202955, Note_on_c, 5, 53, 127
2, 203134, Note_off_c, 5, 53, 127
2, 203148, Note_on_c, 7, 55, 127
2, 203327, Note_off_c, 7, 55, 127
2, 203342, Note_on_c, 8, 56, 127
2, 203521, Note_off_c, 8, 56, 127
2, 203533, Note_off_c, 2, 50, 127
2, 203533, Note_off_c, 12, 59, 127
2, 203536, Note_on_c, 11, 58, 127
2, 203536, Note_on_c, 3, 51, 127
2, 203915, Note_off_c, 3, 51, 127
2, 203918, Note_off_c, 8, 80, 127
2, 203921, Note_on_c, 7, 79, 127
2, 203921, Note_on_c, 2, 50, 127
2, 204100, Note_off_c, 7, 79, 127
2, 204114, Note_on_c, 5, 77, 127
2, 204293, Note_off_c, 5, 77, 127
2, 204300, Note_off_c, 2, 50, 127
2, 204308, Note_on_c, 7, 79, 127
2, 204308, Note_on_c, 4, 52, 127
2, 204502, Note_on_c, 7, 55, 127
2, 204681, Note_off_c, 7, 55, 127
2, 204687, Note_off_c, 4, 52, 127
2, 204696, Note_on_c, 5, 53, 127
2, 204696, Note_on_c, 0, 48, 127
2, 204875, Note_off_c, 5, 53, 127
2, 204890, Note_on_c, 4, 52, 127
2, 205069, Note_off_c, 4, 52, 127
2, 205075, Note_off_c, 0, 48, 127
2, 205077, Note_off_c, 11, 58, 127
2, 205081, Note_on_c, 8, 56, 127
2, 205081, Note_on_c, 5, 53, 127
2, 205268, Note_off_c, 7, 79, 127
2, 205272, Note_on_c, 0, 72, 127
2, 205451, Note_off_c, 0, 72, 127
2, 205457, Note_off_c, 5, 53, 127
2, 205465, Note_on_c, 2, 74, 127
2, 205465, Note_on_c, 5, 53, 127
2, 205644, Note_off_c, 5, 53, 127
2, 205644, Note_off_c, 2, 74, 127
2, 205659, Note_on_c, 3, 75, 127
2, 205659, Note_on_c, 3, 51, 127
2, 205838, Note_off_c, 3, 51, 127
2, 205838, Note_off_c, 3, 75, 127
2, 205853, Note_on_c, 5, 77, 127
2, 205853, Note_on_c, 2, 50, 127
2, 206041, Note_off_c, 8, 56, 127
2, 206044, Note_on_c, 12, 71, 127
2, 206223, Note_off_c, 12, 71, 127
2, 206229, Note_off_c, 2, 50, 127
2, 206238, Note_on_c, 0, 72, 127
2, 206238, Note_on_c, 2, 50, 127
2, 206417, Note_off_c, 2, 50, 127
2, 206417, Note_off_c, 0, 72, 127
2, 206432, Note_on_c, 2, 74, 127
2, 206432, Note_on_c, 0, 48, 127
2, 206611, Note_off_c, 0, 48, 127
2, 206611, Note_off_c, 2, 74, 127
2, 206625, Note_on_c, 7, 67, 127
2, 206625, Note_on_c, 12, 47, 127
2, 206804, Note_off_c, 12, 47, 127
2, 206819, Note_on_c, 7, 43, 127
2, 206998, Note_off_c, 7, 43, 127
2, 207010, Note_off_c, 5, 77, 127
2, 207013, Note_on_c, 3, 75, 127
2, 207013, Note_on_c, 10, 45, 127
2, 207192, Note_off_c, 10, 45, 127
2, 207192, Note_off_c, 3, 75, 127
2, 207207, Note_on_c, 2, 74, 127
2, 207207, Note_on_c, 12, 47, 127
2, 207386, Note_off_c, 12, 47, 127
2, 207386, Note_off_c, 2, 74, 127
2, 207401, Note_on_c, 3, 75, 127
2, 207401, Note_on_c, 0, 48, 127
2, 207580, Note_off_c, 0, 48, 127
2, 207594, Note_on_c, 8, 44, 127
2, 207773, Note_off_c, 8, 44, 127
2, 207784, Note_off_c, 7, 67, 127
2, 207788, Note_on_c, 6, 66, 127
2, 207788, Note_on_c, 11, 46, 127
2, 207967, Note_off_c, 11, 46, 127
2, 207982, Note_on_c, 0, 48, 127
2, 208161, Note_off_c, 0, 48, 127
2, 208167, Note_off_c, 6, 66, 127
2, 208176, Note_on_c, 5, 65, 127
2, 208176, Note_on_c, 1, 49, 127
2, 208364, Note_off_c, 3, 75, 127
2, 208367, Note_on_c, 8, 68, 127
2, 208546, Note_off_c, 8, 68, 127
2, 208552, Note_off_c, 1, 49, 127
2, 208560, Note_on_c, 11, 70, 127
2, 208560, Note_on_c, 1, 49, 127
2, 208739, Note_off_c, 1, 49, 127
2, 208739, Note_off_c, 11, 70, 127
2, 208754, Note_on_c, 0, 72, 127
2, 208754, Note_on_c, 0, 48, 127
2, 208933, Note_off_c, 0, 48, 127
2, 208933, Note_off_c, 0, 72, 127
2, 208948, Note_on_c, 1, 73, 127
2, 208948, Note_on_c, 11, 46, 127
2, 209136, Note_off_c, 5, 65, 127
2, 209139, Note_on_c, 7, 67, 127
2, 209318, Note_off_c, 7, 67, 127
2, 209324, Note_off_c, 11, 46, 127
2, 209333, Note_on_c, 8, 68, 127
2, 209333, Note_on_c, 11, 46, 127
2, 209512, Note_off_c, 11, 46, 127
2, 209512, Note_off_c, 8, 68, 127
2, 209527, Note_on_c, 11, 70, 127
2, 209527, Note_on_c, 8, 44, 127
2, 209706, Note_off_c, 8, 44, 127
2, 209706, Note_off_c, 11, 70, 127
2, 209720, Note_on_c, 3, 63, 127
2, 209720, Note_on_c, 7, 43, 127
2, 209899, Note_off_c, 7, 43, 127
2, 209914, Note_on_c, 3, 39, 127
2, 210093, Note_off_c, 3, 39, 127
2, 210105, Note_off_c, 1, 73, 127
2, 210108, Note_on_c, 0, 72, 127
2, 210108, Note_on_c, 5, 41, 127
2, 210287, Note_off_c, 5, 41, 127
2, 210287, Note_off_c, 0, 72, 127
2, 210302, Note_on_c, 11, 70, 127
2, 210302, Note_on_c, 7, 43, 127
2, 210481, Note_off_c, 7, 43, 127
2, 210481, Note_off_c, 11, 70, 127
2, 210496, Note_on_c, 0, 72, 127
2, 210496, Note_on_c, 8, 44, 127
2, 210675, Note_off_c, 8, 44, 127
2, 210686, Note_off_c, 3, 63, 127
2, 210689, Note_on_c, 6, 66, 127
2, 210689, Note_on_c, 5, 41, 127
2, 210868, Note_off_c, 5, 41, 127
2, 210868, Note_off_c, 6, 66, 127
2, 210883, Note_on_c, 5, 65, 127
2, 210883, Note_on_c, 7, 43, 127
2, 211062, Note_off_c, 7, 43, 127
2, 211062, Note_off_c, 5, 65, 127
2, 211077, Note_on_c, 3, 63, 127
2, 211077, Note_on_c, 10, 45, 127
2, 211256, Note_off_c, 10, 45, 127
2, 211256, Note_off_c, 3, 63, 127
2, 211271, Note_on_c, 1, 61, 127
2, 211271, Note_on_c, 11, 46, 127
2, 211450, Note_off_c, 11, 46, 127
2, 211465, Note_on_c, 10, 45, 127
2, 211644, Note_off_c, 10, 45, 127
2, 211655, Note_off_c, 0, 72, 127
2, 211658, Note_on_c, 5, 65, 127
2, 211658, Note_on_c, 11, 46, 127
2, 211837, Note_off_c, 11, 46, 127
2, 211852, Note_on_c, 0, 48, 127
2, 212031, Note_off_c, 0, 48, 127
2, 212037, Note_off_c, 5, 65, 127
2, 212046, Note_on_c, 11, 70, 127
2, 212046, Note_on_c, 1, 49, 127
2, 212225, Note_off_c, 1, 49, 127
2, 212240, Note_on_c, 11, 46, 127
2, 212419, Note_off_c, 11, 46, 127
2, 212425, Note_off_c, 11, 70, 127
2, 212434, Note_on_c, 8, 68, 127
2, 212434, Note_on_c, 0, 48, 127
2, 212613, Note_off_c, 0, 48, 127
2, 212627, Note_on_c, 1, 49, 127
2, 212806, Note_off_c, 1, 49, 127
2, 212813, Note_off_c, 8, 68, 127
2, 212821, Note_on_c, 7, 67, 127
2, 212821, Note_on_c, 3, 51, 127
2, 213009, Note_off_c, 1, 61, 127
2, 213012, Note_on_c, 11, 58, 127
2, 213191, Note_off_c, 11, 58, 127
2, 213197, Note_off_c, 3, 51, 127
2, 213206, Note_on_c, 0, 60, 127
2, 213206, Note_on_c, 3, 51, 127
2, 213385, Note_off_c, 3, 51, 127
2, 213385, Note_off_c, 0, 60, 127
2, 213400, Note_on_c, 1, 61, 127
2, 213400, Note_on_c, 1, 49, 127
2, 213579, Note_off_c, 1, 49, 127
2, 213579, Note_off_c, 1, 61, 127
2, 213594, Note_on_c, 3, 63, 127
2, 213594, Note_on_c, 0, 48, 127
2, 213781, Note_off_c, 7, 67, 127
2, 213785, Note_on_c, 7, 67, 127
2, 213964, Note_off_c, 7, 67, 127
2, 213970, Note_off_c, 0, 48, 127
2, 213978, Note_on_c, 8, 68, 127
2, 213978, Note_on_c, 0, 48, 127
2, 214157, Note_off_c, 0, 48, 127
2, 214157, Note_off_c, 8, 68, 127
2, 214172, Note_on_c, 11, 70, 127
2, 214172, Note_on_c, 11, 46, 127
2, 214351, Note_off_c, 11, 46, 127
2, 214351, Note_off_c, 11, 70, 127
2, 214366, Note_on_c, 0, 72, 127
2, 214366, Note_on_c, 8, 44, 127
2, 214554, Note_off_c, 3, 63, 127
2, 214557, Note_on_c, 3, 63, 127
2, 214736, Note_off_c, 3, 63, 127
2, 214742, Note_off_c, 8, 44, 127
2, 214751, Note_on_c, 5, 65, 127
2, 214751, Note_on_c, 8, 56, 127
2, 214930, Note_off_c, 8, 56, 127
2, 214930, Note_off_c, 5, 65, 127
2, 214944, Note_on_c, 7, 67, 127
2, 214944, Note_on_c, 7, 55, 127
2, 215123, Note_off_c, 7, 55, 127
2, 215123, Note_off_c, 7, 67, 127
2, 215138, Note_on_c, 8, 68, 127
2, 215138, Note_on_c, 5, 53, 127
2, 215326, Note_off_c, 0, 72, 127
2, 215329, Note_on_c, 0, 72, 127
2, 215508, Note_off_c, 0, 72, 127
2, 215514, Note_off_c, 5, 53, 127
2, 215523, Note_on_c, 2, 74, 127
2, 215523, Note_on_c, 5, 53, 127
2, 215702, Note_off_c, 5, 53, 127
2, 215702, Note_off_c, 2, 74, 127
2, 215717, Note_on_c, 3, 75, 127
2, 215717, Note_on_c, 3, 51, 127
2, 215896, Note_off_c, 3, 51, 127
2, 215896, Note_off_c, 3, 75, 127
2, 215911, Note_on_c, 5, 77, 127
2, 215911, Note_on_c, 2, 50, 127
2, 216098, Note_off_c, 8, 68, 127
2, 216102, Note_on_c, 0, 72, 127
2, 216281, Note_off_c, 0, 72, 127
2, 216295, Note_on_c, 11, 70, 127
2, 216474, Note_off_c, 11, 70, 127
2, 216489, Note_on_c, 8, 68, 127
2, 216668, Note_off_c, 8, 68, 127
2, 216680, Note_off_c, 2, 50, 127
2, 216683, Note_on_c, 7, 67, 127
2, 216683, Note_on_c, 11, 58, 127
2, 216683, Note_on_c, 3, 51, 127
2, 216871, Note_off_c, 5, 77, 127
2, 216874, Note_on_c, 11, 70, 127
2, 217053, Note_off_c, 11, 70, 127
2, 217059, Note_off_c, 3, 51, 127
2, 217068, Note_on_c, 3, 75, 127
2, 217068, Note_on_c, 7, 55, 127
2, 217255, Note_off_c, 7, 67, 127
2, 217259, Note_on_c, 7, 67, 127
2, 217438, Note_off_c, 7, 67, 127
2, 217444, Note_off_c, 7, 55, 127
2, 217446, Note_off_c, 11, 58, 127
2, 217450, Note_on_c, 5, 65, 127
2, 217450, Note_on_c, 0, 60, 127
2, 217450, Note_on_c, 8, 56, 127
2, 217638, Note_off_c, 3, 75, 127
2, 217641, Note_on_c, 3, 75, 127
2, 217820, Note_off_c, 3, 75, 127
2, 217826, Note_off_c, 8, 56, 127
2, 217834, Note_on_c, 2, 74, 127
2, 217834, Note_on_c, 5, 53, 127
2, 218013, Note_off_c, 2, 74, 127
2, 218028, Note_on_c, 0, 72, 127
2, 218207, Note_off_c, 0, 72, 127
2, 218213, Note_off_c, 5, 53, 127
2, 218213, Note_off_c, 0, 60, 127
2, 218222, Note_on_c, 2, 74, 127
2, 218222, Note_on_c, 11, 58, 127
2, 218401, Note_off_c, 2, 74, 127
2, 218416, Note_on_c, 3, 75, 127
2, 218595, Note_off_c, 3, 75, 127
2, 218610, Note_on_c, 0, 72, 127
2, 218610, Note_on_c, 11, 46, 127
2, 218789, Note_off_c, 0, 72, 127
2, 218803, Note_on_c, 2, 74, 127
2, 218982, Note_off_c, 2, 74, 127
2, 218988, Note_off_c, 11, 58, 127
2, 218989, Note_off_c, 11, 46, 127
2, 218991, Note_off_c, 5, 65, 127
2, 218994, Note_on_c, 3, 75, 127
2, 218994, Note_on_c, 0, 60, 127
2, 218994, Note_on_c, 10, 57, 127
2, 218994, Note_on_c, 0, 48, 127
2, 219173, Note_off_c, 3, 75, 127
2, 219188, Note_on_c, 0, 72, 127
2, 219367, Note_off_c, 0, 72, 127
2, 219373, Note_off_c, 0, 60, 127
2, 219382, Note_on_c, 2, 74, 127
2, 219382, Note_on_c, 0, 60, 127
2, 219561, Note_off_c, 0, 60, 127
2, 219561, Note_off_c, 2, 74, 127
2, 219576, Note_on_c, 3, 75, 127
2, 219576, Note_on_c, 11, 58, 127
2, 219755, Note_off_c, 11, 58, 127
2, 219755, Note_off_c, 3, 75, 127
2, 219766, Note_off_c, 0, 48, 127
2, 219766, Note_off_c, 10, 57, 127
2, 219770, Note_on_c, 5, 77, 127
2, 219770, Note_on_c, 2, 62, 127
2, 219770, Note_on_c, 8, 56, 127
2, 219949, Note_off_c, 5, 77, 127
2, 219963, Note_on_c, 3, 75, 127
2, 220142, Note_off_c, 3, 75, 127
2, 220149, Note_off_c, 8, 56, 127
2, 220157, Note_on_c, 2, 74, 127
2, 220157, Note_on_c, 11, 58, 127
2, 220336, Note_off_c, 11, 58, 127
2, 220336, Note_off_c, 2, 74, 127
2, 220351, Note_on_c, 0, 72, 127
2, 220351, Note_on_c, 8, 56, 127
2, 220530, Note_off_c, 8, 56, 127
2, 220530, Note_off_c, 0, 72, 127
2, 220542, Note_off_c, 2, 62, 127
2, 220545, Note_on_c, 11, 70, 127
2, 220545, Note_on_c, 3, 63, 127
2, 220545, Note_on_c, 7, 55, 127
2, 220739, Note_on_c, 0, 60, 127
2, 220918, Note_off_c, 0, 60, 127
2, 220924, Note_off_c, 7, 55, 127
2, 220924, Note_off_c, 3, 63, 127
2, 220932, Note_on_c, 2, 62, 127
2, 220932, Note_on_c, 11, 46, 127
2, 221111, Note_off_c, 11, 46, 127
2, 221111, Note_off_c, 2, 62, 127
2, 221126, Note_on_c, 3, 63, 127
2, 221126, Note_on_c, 0, 48, 127
2, 221305, Note_off_c, 0, 48, 127
2, 221305, Note_off_c, 3, 63, 127
2, 221320, Note_on_c, 5, 65, 127
2, 221320, Note_on_c, 8, 56, 127
2, 221320, Note_on_c, 2, 50, 127
2, 221499, Note_off_c, 5, 65, 127
2, 221514, Note_on_c, 3, 63, 127
2, 221693, Note_off_c, 3, 63, 127
2, 221699, Note_off_c, 2, 50, 127
2, 221708, Note_on_c, 2, 62, 127
2, 221708, Note_on_c, 0, 48, 127
2, 221887, Note_off_c, 0, 48, 127
2, 221887, Note_off_c, 2, 62, 127
2, 221901, Note_on_c, 0, 60, 127
2, 221901, Note_on_c, 2, 50, 127
2, 222080, Note_off_c, 2, 50, 127
2, 222080, Note_off_c, 0, 60, 127
2, 222092, Note_off_c, 8, 56, 127
2, 222095, Note_on_c, 11, 58, 127
2, 222095, Note_on_c, 7, 55, 127
2, 222095, Note_on_c, 3, 51, 127
2, 222283, Note_off_c, 11, 70, 127
2, 222286, Note_on_c, 8, 68, 127
2, 222465, Note_off_c, 8, 68, 127
2, 222471, Note_off_c, 3, 51, 127
2, 222480, Note_on_c, 7, 67, 127
2, 222480, Note_on_c, 3, 51, 127
2, 222659, Note_off_c, 3, 51, 127
2, 222659, Note_off_c, 7, 67, 127
2, 222674, Note_on_c, 5, 65, 127
2, 222674, Note_on_c, 2, 50, 127
2, 222853, Note_off_c, 2, 50, 127
2, 222853, Note_off_c, 5, 65, 127
2, 222864, Note_off_c, 7, 55, 127
2, 222867, Note_on_c, 3, 63, 127
2, 222867, Note_on_c, 6, 54, 127
2, 222867, Note_on_c, 0, 48, 127
2, 223246, Note_off_c, 0, 48, 127
2, 223249, Note_off_c, 11, 58, 127
2, 223252, Note_on_c, 10, 57, 127
2, 223252, Note_on_c, 0, 48, 127
2, 223431, Note_off_c, 0, 48, 127
2, 223431, Note_off_c, 10, 57, 127
2, 223446, Note_on_c, 11, 58, 127
2, 223446, Note_on_c, 11, 46, 127
2, 223625, Note_off_c, 11, 46, 127
2, 223625, Note_off_c, 11, 58, 127
2, 223636, Note_off_c, 6, 54, 127
2, 223640, Note_on_c, 0, 60, 127
2, 223640, Note_on_c, 5, 53, 127
2, 223640, Note_on_c, 10, 45, 127
2, 223827, Note_off_c, 3, 63, 127
2, 223831, Note_on_c, 3, 63, 127
2, 224010, Note_off_c, 3, 63, 127
2, 224025, Note_on_c, 5, 65, 127
2, 224204, Note_off_c, 5, 65, 127
2, 224218, Note_on_c, 3, 63, 127
2, 224397, Note_off_c, 3, 63, 127
2, 224409, Note_off_c, 10, 45, 127
2, 224409, Note_off_c, 0, 60, 127
2, 224412, Note_on_c, 2, 62, 127
2, 224412, Note_on_c, 11, 58, 127
2, 224412, Note_on_c, 11, 46, 127
2, 224591, Note_off_c, 2, 62, 127
2, 224606, Note_on_c, 0, 72, 127
2, 224785, Note_off_c, 0, 72, 127
2, 224800, Note_on_c, 11, 70, 127
2, 224979, Note_off_c, 11, 70, 127
2, 224994, Note_on_c, 8, 68, 127
2, 225164, Note_off_c, 5, 53, 127
2, 225170, Note_off_c, 11, 46, 127
2, 225173, Note_off_c, 8, 68, 127
2, 225187, Note_on_c, 7, 67, 127
2, 225187, Note_on_c, 3, 51, 127
2, 225566, Note_off_c, 7, 67, 127
2, 225569, Note_off_c, 11, 58, 127
2, 225572, Note_on_c, 11, 70, 127
2, 225572, Note_on_c, 3, 63, 127
2, 225751, Note_off_c, 3, 63, 127
2, 225766, Note_on_c, 5, 65, 127
2, 225945, Note_off_c, 5, 65, 127
2, 225951, Note_off_c, 11, 70, 127
2, 225960, Note_on_c, 3, 75, 127
2, 225960, Note_on_c, 7, 67, 127
2, 226339, Note_off_c, 7, 67, 127
2, 226341, Note_off_c, 3, 51, 127
2, 226344, Note_on_c, 7, 67, 127
2, 226344, Note_on_c, 3, 51, 127
2, 226523, Note_off_c, 3, 51, 127
2, 226523, Note_off_c, 7, 67, 127
2, 226538, Note_on_c, 8, 68, 127
2, 226538, Note_on_c, 5, 53, 127
2, 226717, Note_off_c, 5, 53, 127
2, 226717, Note_off_c, 8, 68, 127
2, 226732, Note_on_c, 11, 70, 127
2, 226732, Note_on_c, 7, 55, 127
2, 226920, Note_off_c, 3, 75, 127
2, 226923, Note_on_c, 7, 79, 127
2, 227102, Note_off_c, 7, 79, 127
2, 227108, Note_off_c, 7, 55, 127
2, 227117, Note_on_c, 5, 77, 127
2, 227117, Note_on_c, 11, 58, 127
2, 227117, Note_on_c, 7, 55, 127
2, 227296, Note_off_c, 7, 55, 127
2, 227296, Note_off_c, 11, 58, 127
2, 227296, Note_off_c, 5, 77, 127
2, 227311, Note_on_c, 3, 75, 127
2, 227311, Note_on_c, 0, 60, 127
2, 227311, Note_on_c, 8, 56, 127
2, 227490, Note_off_c, 8, 56, 127
2, 227490, Note_off_c, 0, 60, 127
2, 227490, Note_off_c, 3, 75, 127
2, 227504, Note_on_c, 2, 74, 127
2, 227504, Note_on_c, 2, 62, 127
2, 227504, Note_on_c, 11, 58, 127
2, 227683, Note_off_c, 2, 62, 127
2, 227695, Note_off_c, 11, 70, 127
2, 227698, Note_on_c, 8, 68, 127
2, 227698, Note_on_c, 0, 60, 127
2, 227877, Note_off_c, 0, 60, 127
2, 227877, Note_off_c, 8, 68, 127
2, 227883, Note_off_c, 11, 58, 127
2, 227892, Note_on_c, 7, 67, 127
2, 227892, Note_on_c, 11, 58, 127
2, 227892, Note_on_c, 11, 46, 127
2, 228071, Note_off_c, 11, 58, 127
2, 228071, Note_off_c, 7, 67, 127
2, 228086, Note_on_c, 5, 65, 127
2, 228086, Note_on_c, 8, 56, 127
2, 228265, Note_off_c, 8, 56, 127
2, 228265, Note_off_c, 5, 65, 127
2, 228271, Note_off_c, 11, 46, 127
2, 228280, Note_on_c, 3, 63, 127
2, 228280, Note_on_c, 7, 55, 127
2, 228280, Note_on_c, 0, 48, 127
2, 228459, Note_off_c, 3, 63, 127
2, 228473, Note_on_c, 2, 62, 127
2, 228652, Note_off_c, 2, 62, 127
2, 228663, Note_off_c, 2, 74, 127
2, 228667, Note_on_c, 7, 67, 127
2, 228667, Note_on_c, 0, 60, 127
2, 228846, Note_off_c, 0, 60, 127
2, 228861, Note_on_c, 2, 62, 127
2, 229040, Note_off_c, 2, 62, 127
2, 229046, Note_off_c, 7, 67, 127
2, 229055, Note_on_c, 0, 72, 127
2, 229055, Note_on_c, 3, 63, 127
2, 229434, Note_off_c, 3, 63, 127
2, 229437, Note_off_c, 0, 48, 127
2, 229440, Note_on_c, 3, 63, 127
2, 229440, Note_on_c, 0, 48, 127
2, 229619, Note_off_c, 0, 48, 127
2, 229619, Note_off_c, 3, 63, 127
2, 229633, Note_on_c, 5, 65, 127
2, 229633, Note_on_c, 2, 50, 127
2, 229812, Note_off_c, 2, 50, 127
2, 229812, Note_off_c, 5, 65, 127
2, 229827, Note_on_c, 7, 67, 127
2, 229827, Note_on_c, 3, 51, 127
2, 230015, Note_off_c, 0, 72, 127
2, 230018, Note_on_c, 3, 75, 127
2, 230197, Note_off_c, 3, 75, 127
2, 230203, Note_off_c, 3, 51, 127
2, 230206, Note_off_c, 7, 55, 127
2, 230209, Note_on_c, 2, 74, 127
2, 230209, Note_on_c, 7, 55, 127
2, 230209, Note_on_c, 3, 51, 127
2, 230388, Note_off_c, 3, 51, 127
2, 230388, Note_off_c, 7, 55, 127
2, 230388, Note_off_c, 2, 74, 127
2, 230403, Note_on_c, 0, 72, 127
2, 230403, Note_on_c, 8, 56, 127
2, 230403, Note_on_c, 5, 53, 127
2, 230582, Note_off_c, 5, 53, 127
2, 230582, Note_off_c, 8, 56, 127
2, 230582, Note_off_c, 0, 72, 127
2, 230597, Note_on_c, 11, 70, 127
2, 230597, Note_on_c, 11, 58, 127
2, 230597, Note_on_c, 7, 55, 127
2, 230776, Note_off_c, 11, 58, 127
2, 230787, Note_off_c, 7, 67, 127
2, 230790, Note_on_c, 5, 65, 127
2, 230790, Note_on_c, 8, 56, 127
2, 230969, Note_off_c, 8, 56, 127
2, 230969, Note_off_c, 5, 65, 127
2, 230976, Note_off_c, 7, 55, 127
2, 230984, Note_on_c, 3, 63, 127
2, 230984, Note_on_c, 7, 55, 127
2, 230984, Note_on_c, 7, 43, 127
2, 231163, Note_off_c, 7, 55, 127
2, 231163, Note_off_c, 3, 63, 127
2, 231178, Note_on_c, 1, 61, 127
2, 231178, Note_on_c, 5, 53, 127
2, 231357, Note_off_c, 5, 53, 127
2, 231357, Note_off_c, 1, 61, 127
2, 231363, Note_off_c, 7, 43, 127
2, 231372, Note_on_c, 0, 60, 127
2, 231372, Note_on_c, 3, 51, 127
2, 231372, Note_on_c, 8, 44, 127
2, 231551, Note_off_c, 0, 60, 127
2, 231566, Note_on_c, 11, 58, 127
2, 231745, Note_off_c, 11, 58, 127
2, 231756, Note_off_c, 11, 70, 127
2, 231759, Note_on_c, 3, 63, 127
2, 231759, Note_on_c, 8, 56, 127
2, 231938, Note_off_c, 8, 56, 127
2, 231953, Note_on_c, 11, 58, 127
2, 232132, Note_off_c, 11, 58, 127
2, 232138, Note_off_c, 3, 63, 127
2, 232147, Note_on_c, 8, 68, 127
2, 232147, Note_on_c, 0, 60, 127
2, 232526, Note_off_c, 0, 60, 127
2, 232529, Note_off_c, 8, 44, 127
2, 232532, Note_on_c, 0, 60, 127
2, 232532, Note_on_c, 8, 44, 127
2, 232711, Note_off_c, 8, 44, 127
2, 232711, Note_off_c, 0, 60, 127
2, 232726, Note_on_c, 2, 62, 127
2, 232726, Note_on_c, 11, 46, 127
2, 232905, Note_off_c, 11, 46, 127
2, 232905, Note_off_c, 2, 62, 127
2, 232919, Note_on_c, 3, 63, 127
2, 232919, Note_on_c, 0, 48, 127
2, 233107, Note_off_c, 8, 68, 127
2, 233110, Note_on_c, 0, 72, 127
2, 233289, Note_off_c, 0, 72, 127
2, 233295, Note_off_c, 0, 48, 127
2, 233298, Note_off_c, 3, 51, 127
2, 233301, Note_on_c, 11, 70, 127
2, 233301, Note_on_c, 3, 51, 127
2, 233301, Note_on_c, 0, 48, 127
2, 233480, Note_off_c, 0, 48, 127
2, 233480, Note_off_c, 3, 51, 127
2, 233480, Note_off_c, 11, 70, 127
2, 233495, Note_on_c, 8, 68, 127
2, 233495, Note_on_c, 5, 53, 127
2, 233495, Note_on_c, 2, 50, 127
2, 233674, Note_off_c, 2, 50, 127
2, 233674, Note_off_c, 5, 53, 127
2, 233674, Note_off_c, 8, 68, 127
2, 233689, Note_on_c, 7, 67, 127
2, 233689, Note_on_c, 7, 55, 127
2, 233689, Note_on_c, 3, 51, 127
2, 233868, Note_off_c, 7, 55, 127
2, 233879, Note_off_c, 3, 63, 127
2, 233883, Note_on_c, 2, 62, 127
2, 233883, Note_on_c, 5, 53, 127
2, 234062, Note_off_c, 5, 53, 127
2, 234062, Note_off_c, 2, 62, 127
2, 234068, Note_off_c, 3, 51, 127
2, 234077, Note_on_c, 0, 60, 127
2, 234077, Note_on_c, 3, 51, 127
2, 234077, Note_on_c, 3, 39, 127
2, 234256, Note_off_c, 3, 51, 127
2, 234256, Note_off_c, 0, 60, 127
2, 234270, Note_on_c, 11, 58, 127
2, 234270, Note_on_c, 2, 50, 127
2, 234449, Note_off_c, 2, 50, 127
2, 234449, Note_off_c, 11, 58, 127
2, 234456, Note_off_c, 3, 39, 127
2, 234464, Note_on_c, 8, 56, 127
2, 234464, Note_on_c, 0, 48, 127
2, 234464, Note_on_c, 5, 41, 127
2, 234652, Note_off_c, 7, 67, 127
2, 234655, Note_on_c, 5, 65, 127
2, 234834, Note_off_c, 5, 65, 127
2, 234840, Note_off_c, 5, 41, 127
2, 234840, Note_off_c, 0, 48, 127
2, 234840, Note_off_c, 8, 56, 127
2, 234849, Note_on_c, 8, 68, 127
2, 234849, Note_on_c, 2, 50, 127
2, 234849, Note_on_c, 12, 47, 127
2, 234849, Note_on_c, 7, 43, 127
2, 235028, Note_off_c, 2, 50, 127
2, 235028, Note_off_c, 8, 68, 127
2, 235043, Note_on_c, 7, 67, 127
2, 235043, Note_on_c, 3, 51, 127
2, 235222, Note_off_c, 3, 51, 127
2, 235222, Note_off_c, 7, 67, 127
2, 235228, Note_off_c, 7, 43, 127
2, 235228, Note_off_c, 12, 47, 127
2, 235236, Note_on_c, 5, 65, 127
2, 235236, Note_on_c, 5, 53, 127
2, 235236, Note_on_c, 0, 48, 127
2, 235236, Note_on_c, 8, 44, 127
2, 235415, Note_off_c, 5, 65, 127
2, 235430, Note_on_c, 3, 63, 127
2, 235609, Note_off_c, 3, 63, 127
2, 235615, Note_off_c, 8, 44, 127
2, 235615, Note_off_c, 5, 53, 127
2, 235624, Note_on_c, 2, 62, 127
2, 235624, Note_on_c, 6, 54, 127
2, 235624, Note_on_c, 10, 45, 127
2, 235803, Note_off_c, 2, 62, 127
2, 235818, Note_on_c, 0, 60, 127
2, 235997, Note_off_c, 0, 60, 127
2, 236003, Note_off_c, 10, 45, 127
2, 236003, Note_off_c, 6, 54, 127
2, 236005, Note_off_c, 0, 48, 127
2, 236009, Note_on_c, 12, 59, 127
2, 236009, Note_on_c, 7, 55, 127
2, 236009, Note_on_c, 2, 50, 127
2, 236009, Note_on_c, 7, 43, 127
2, 236388, Note_off_c, 7, 55, 127
2, 236396, Note_on_c, 7, 55, 127
2, 236575, Note_off_c, 7, 55, 127
2, 236590, Note_on_c, 10, 57, 127
2, 236769, Note_off_c, 10, 57, 127
2, 236775, Note_off_c, 7, 43, 127
2, 236775, Note_off_c, 2, 50, 127
2, 236778, Note_off_c, 12, 59, 127
2, 236781, Note_on_c, 7, 79, 127
2, 236781, Note_on_c, 12, 59, 127
2, 237160, Note_off_c, 12, 59, 127
2, 237169, Note_on_c, 10, 57, 127
2, 237348, Note_off_c, 10, 57, 127
2, 237363, Note_on_c, 12, 59, 127
2, 237542, Note_off_c, 12, 59, 127
2, 237553, Note_off_c, 7, 79, 127
2, 237556, Note_on_c, 8, 80, 127
2, 237556, Note_on_c, 0, 60, 127
2, 237735, Note_off_c, 0, 60, 127
2, 237750, Note_on_c, 12, 59, 127
2, 237929, Note_off_c, 12, 59, 127
2, 237944, Note_on_c, 0, 72, 127
2, 237944, Note_on_c, 0, 60, 127
2, 238123, Note_off_c, 0, 60, 127
2, 238138, Note_on_c, 2, 62, 127
2, 238317, Note_off_c, 2, 62, 127
2, 238328, Note_off_c, 8, 80, 127
2, 238332, Note_on_c, 7, 79, 127
2, 238332, Note_on_c, 3, 63, 127
2, 238713, Note_off_c, 0, 72, 127
2, 238716, Note_on_c, 11, 70, 127
2, 239095, Note_off_c, 11, 70, 127
2, 239098, Note_off_c, 7, 79, 127
2, 239101, Note_on_c, 6, 78, 127
2, 239101, Note_on_c, 10, 69, 127
2, 239289, Note_off_c, 3, 63, 127
2, 239292, Note_on_c, 0, 60, 127
2, 239471, Note_off_c, 0, 60, 127
2, 239477, Note_off_c, 10, 69, 127
2, 239486, Note_on_c, 12, 71, 127
2, 239486, Note_on_c, 2, 62, 127
2, 239665, Note_off_c, 2, 62, 127
2, 239665, Note_off_c, 12, 71, 127
2, 239680, Note_on_c, 0, 72, 127
2, 239680, Note_on_c, 3, 63, 127
2, 239859, Note_off_c, 3, 63, 127
2, 239859, Note_off_c, 0, 72, 127
2, 239870, Note_off_c, 6, 78, 127
2, 239873, Note_on_c, 12, 83, 127
2, 239873, Note_on_c, 2, 74, 127
2, 239873, Note_on_c, 5, 65, 127
2, 240052, Note_off_c, 2, 74, 127
2, 240067, Note_on_c, 0, 72, 127
2, 240246, Note_off_c, 0, 72, 127
2, 240261, Note_on_c, 12, 71, 127
2, 240440, Note_off_c, 12, 71, 127
2, 240455, Note_on_c, 10, 69, 127
2, 240634, Note_off_c, 10, 69, 127
2, 240645, Note_off_c, 12, 83, 127
2, 240649, Note_on_c, 0, 84, 127
2, 240649, Note_on_c, 7, 67, 127
2, 240836, Note_off_c, 5, 65, 127
2, 240840, Note_on_c, 3, 63, 127
2, 241019, Note_off_c, 3, 63, 127
2, 241033, Note_on_c, 5, 65, 127
2, 241210, Note_off_c, 7, 67, 127
2, 241212, Note_off_c, 5, 65, 127
2, 241227, Note_on_c, 7, 67, 127
2, 241406, Note_off_c, 7, 67, 127
2, 241418, Note_off_c, 0, 84, 127
2, 241421, Note_on_c, 5, 77, 127
2, 241421, Note_on_c, 8, 68, 127
2, 241615, Note_on_c, 7, 55, 127
2, 241794, Note_off_c, 7, 55, 127
2, 241809, Note_on_c, 10, 57, 127
2, 241988, Note_off_c, 10, 57, 127
2, 242002, Note_on_c, 12, 59, 127
2, 242181, Note_off_c, 12, 59, 127
2, 242193, Note_off_c, 5, 77, 127
2, 242196, Note_on_c, 4, 76, 127
2, 242196, Note_on_c, 0, 60, 127
2, 242384, Note_off_c, 8, 68, 127
2, 242387, Note_on_c, 7, 67, 127
2, 242566, Note_off_c, 7, 67, 127
2, 242581, Note_on_c, 10, 69, 127
2, 242760, Note_off_c, 10, 69, 127
2, 242775, Note_on_c, 12, 71, 127
2, 242954, Note_off_c, 12, 71, 127
2, 242965, Note_off_c, 4, 76, 127
2, 242969, Note_on_c, 3, 75, 127
2, 242969, Note_on_c, 0, 72, 127
2, 243156, Note_off_c, 0, 60, 127
2, 243159, Note_on_c, 0, 60, 127
2, 243338, Note_off_c, 0, 60, 127
2, 243353, Note_on_c, 2, 62, 127
2, 243532, Note_off_c, 2, 62, 127
2, 243547, Note_on_c, 3, 63, 127
2, 243726, Note_off_c, 3, 63, 127
2, 243738, Note_off_c, 3, 75, 127
2, 243741, Note_on_c, 2, 74, 127
2, 243741, Note_on_c, 5, 65, 127
2, 243920, Note_off_c, 5, 65, 127
2, 243935, Note_on_c, 2, 62, 127
2, 244114, Note_off_c, 2, 62, 127
2, 244126, Note_off_c, 0, 72, 127
2, 244128, Note_on_c, 12, 71, 127
2, 244128, Note_on_c, 3, 63, 127
2, 244307, Note_off_c, 3, 63, 127
2, 244307, Note_off_c, 12, 71, 127
2, 244322, Note_on_c, 10, 69, 127
2, 244322, Note_on_c, 5, 65, 127
2, 244501, Note_off_c, 5, 65, 127
2, 244501, Note_off_c, 10, 69, 127
2, 244516, Note_on_c, 12, 71, 127
2, 244516, Note_on_c, 7, 67, 127
2, 244695, Note_off_c, 7, 67, 127
2, 244695, Note_off_c, 12, 71, 127
2, 244710, Note_on_c, 0, 72, 127
2, 244710, Note_on_c, 8, 68, 127
2, 244889, Note_off_c, 8, 68, 127
2, 244889, Note_off_c, 0, 72, 127
2, 244904, Note_on_c, 12, 71, 127
2, 244904, Note_on_c, 7, 67, 127
2, 245083, Note_off_c, 7, 67, 127
2, 245083, Note_off_c, 12, 71, 127
2, 245086, Note_off_c, 2, 74, 127
2, 245097, Note_on_c, 2, 74, 127
2, 245097, Note_on_c, 5, 65, 127
2, 245276, Note_off_c, 5, 65, 127
2, 245291, Note_on_c, 7, 67, 127
2, 245291, Note_on_c, 3, 63, 127
2, 245470, Note_off_c, 3, 63, 127
2, 245485, Note_on_c, 5, 65, 127
2, 245661, Note_off_c, 2, 74, 127
2, 245664, Note_off_c, 5, 65, 127
2, 245679, Note_on_c, 0, 72, 127
2, 245679, Note_on_c, 3, 63, 127
2, 245858, Note_off_c, 3, 63, 127
2, 245858, Note_off_c, 0, 72, 127
2, 245873, Note_on_c, 2, 74, 127
2, 245873, Note_on_c, 2, 62, 127
2, 246052, Note_off_c, 2, 62, 127
2, 246052, Note_off_c, 2, 74, 127
2, 246066, Note_on_c, 3, 75, 127
2, 246066, Note_on_c, 0, 60, 127
2, 246445, Note_off_c, 0, 60, 127
2, 246448, Note_off_c, 7, 67, 127
2, 246451, Note_on_c, 7, 67, 127
2, 246451, Note_on_c, 0, 60, 127
2, 246630, Note_off_c, 0, 60, 127
2, 246645, Note_on_c, 11, 58, 127
2, 246824, Note_off_c, 11, 58, 127
2, 246830, Note_off_c, 7, 67, 127
2, 246839, Note_on_c, 0, 60, 127
2, 246839, Note_on_c, 10, 57, 127
2, 247218, Note_off_c, 10, 57, 127
2, 247218, Note_off_c, 0, 60, 127
2, 247226, Note_on_c, 0, 72, 127
2, 247226, Note_on_c, 10, 57, 127
2, 247405, Note_off_c, 10, 57, 127
2, 247405, Note_off_c, 0, 72, 127
2, 247420, Note_on_c, 11, 70, 127
2, 247420, Note_on_c, 7, 55, 127
2, 247599, Note_off_c, 7, 55, 127
2, 247599, Note_off_c, 11, 70, 127
2, 247614, Note_on_c, 10, 69, 127
2, 247614, Note_on_c, 5, 53, 127
2, 247993, Note_off_c, 5, 53, 127
2, 247993, Note_off_c, 10, 69, 127
2, 248002, Note_on_c, 11, 70, 127
2, 248002, Note_on_c, 7, 55, 127
2, 248181, Note_off_c, 7, 55, 127
2, 248181, Note_off_c, 11, 70, 127
2, 248195, Note_on_c, 0, 72, 127
2, 248195, Note_on_c, 10, 57, 127
2, 248374, Note_off_c, 10, 57, 127
2, 248374, Note_off_c, 0, 72, 127
2, 248389, Note_on_c, 5, 65, 127
2, 248389, Note_on_c, 11, 58, 127
2, 248768, Note_off_c, 11, 58, 127
2, 248768, Note_off_c, 5, 65, 127
2, 248770, Note_off_c, 3, 75, 127
2, 248774, Note_on_c, 2, 74, 127
2, 248774, Note_on_c, 11, 70, 127
2, 248774, Note_on_c, 5, 65, 127
2, 248953, Note_off_c, 5, 65, 127
2, 248953, Note_off_c, 2, 74, 127
2, 248968, Note_on_c, 3, 75, 127
2, 248968, Note_on_c, 3, 63, 127
2, 249147, Note_off_c, 3, 63, 127
2, 249147, Note_off_c, 3, 75, 127
2, 249162, Note_on_c, 5, 77, 127
2, 249162, Note_on_c, 2, 62, 127
2, 249541, Note_off_c, 2, 62, 127
2, 249543, Note_off_c, 11, 70, 127
2, 249546, Note_on_c, 8, 68, 127
2, 249546, Note_on_c, 2, 62, 127
2, 249725, Note_off_c, 2, 62, 127
2, 249740, Note_on_c, 0, 60, 127
2, 249919, Note_off_c, 0, 60, 127
2, 249925, Note_off_c, 8, 68, 127
2, 249934, Note_on_c, 7, 67, 127
2, 249934, Note_on_c, 12, 59, 127
2, 250313, Note_off_c, 12, 59, 127
2, 250313, Note_off_c, 7, 67, 127
2, 250322, Note_on_c, 2, 74, 127
2, 250322, Note_on_c, 12, 59, 127
2, 250501, Note_off_c, 12, 59, 127
2, 250501, Note_off_c, 2, 74, 127
2, 250515, Note_on_c, 0, 72, 127
2, 250515, Note_on_c, 10, 57, 127
2, 250694, Note_off_c, 10, 57, 127
2, 250694, Note_off_c, 0, 72, 127
2, 250709, Note_on_c, 12, 71, 127
2, 250709, Note_on_c, 7, 55, 127
2, 251088, Note_off_c, 7, 55, 127
2, 251088, Note_off_c, 12, 71, 127
2, 251097, Note_on_c, 0, 72, 127
2, 251097, Note_on_c, 10, 57, 127
2, 251276, Note_off_c, 10, 57, 127
2, 251276, Note_off_c, 0, 72, 127
2, 251291, Note_on_c, 2, 74, 127
2, 251291, Note_on_c, 12, 59, 127
2, 251470, Note_off_c, 12, 59, 127
2, 251470, Note_off_c, 2, 74, 127
2, 251484, Note_on_c, 7, 67, 127
2, 251484, Note_on_c, 0, 60, 127
2, 251672, Note_off_c, 5, 77, 127
2, 251675, Note_on_c, 2, 74, 127
2, 251854, Note_off_c, 2, 74, 127
2, 251860, Note_off_c, 0, 60, 127
2, 251869, Note_on_c, 4, 76, 127
2, 251869, Note_on_c, 11, 58, 127
2, 252048, Note_off_c, 11, 58, 127
2, 252048, Note_off_c, 4, 76, 127
2, 252063, Note_on_c, 7, 79, 127
2, 252063, Note_on_c, 8, 56, 127
2, 252242, Note_off_c, 8, 56, 127
2, 252242, Note_off_c, 7, 79, 127
2, 252257, Note_on_c, 11, 70, 127
2, 252257, Note_on_c, 7, 55, 127
2, 252636, Note_off_c, 7, 55, 127
2, 252638, Note_off_c, 7, 67, 127
2, 252641, Note_on_c, 1, 61, 127
2, 252641, Note_on_c, 7, 55, 127
2, 252820, Note_off_c, 7, 55, 127
2, 252835, Note_on_c, 5, 53, 127
2, 253014, Note_off_c, 5, 53, 127
2, 253020, Note_off_c, 1, 61, 127
2, 253029, Note_on_c, 0, 60, 127
2, 253029, Note_on_c, 4, 52, 127
2, 253408, Note_off_c, 4, 52, 127
2, 253408, Note_off_c, 0, 60, 127
2, 253417, Note_on_c, 7, 67, 127
2, 253417, Note_on_c, 4, 52, 127
2, 253596, Note_off_c, 4, 52, 127
2, 253596, Note_off_c, 7, 67, 127
2, 253610, Note_on_c, 5, 65, 127
2, 253610, Note_on_c, 2, 50, 127
2, 253789, Note_off_c, 2, 50, 127
2, 253789, Note_off_c, 5, 65, 127
2, 253804, Note_on_c, 4, 64, 127
2, 253804, Note_on_c, 0, 48, 127
2, 254183, Note_off_c, 0, 48, 127
2, 254183, Note_off_c, 4, 64, 127
2, 254192, Note_on_c, 5, 65, 127
2, 254192, Note_on_c, 2, 50, 127
2, 254371, Note_off_c, 2, 50, 127
2, 254371, Note_off_c, 5, 65, 127
2, 254386, Note_on_c, 7, 67, 127
2, 254386, Note_on_c, 4, 52, 127
2, 254565, Note_off_c, 4, 52, 127
2, 254565, Note_off_c, 7, 67, 127
2, 254579, Note_on_c, 0, 60, 127
2, 254579, Note_on_c, 5, 53, 127
2, 254761, Note_off_c, 5, 53, 127
2, 254776, Note_on_c, 7, 55, 127
2, 254958, Note_off_c, 7, 55, 127
2, 254970, Note_off_c, 11, 70, 127
2, 254973, Note_on_c, 8, 68, 127
2, 254973, Note_on_c, 5, 65, 127
2, 254973, Note_on_c, 8, 56, 127
2, 255155, Note_off_c, 8, 56, 127
2, 255169, Note_on_c, 11, 58, 127
2, 255351, Note_off_c, 11, 58, 127
2, 255357, Note_off_c, 8, 68, 127
2, 255357, Note_off_c, 0, 60, 127
2, 255366, Note_on_c, 7, 67, 127
2, 255366, Note_on_c, 0, 60, 127
2, 255366, Note_on_c, 0, 48, 127
2, 255753, Note_off_c, 5, 65, 127
2, 255756, Note_on_c, 4, 64, 127
2, 256140, Note_off_c, 4, 64, 127
2, 256144, Note_off_c, 0, 48, 127
2, 256144, Note_off_c, 7, 67, 127
2, 256147, Note_on_c, 5, 65, 127
2, 256147, Note_on_c, 1, 49, 127
2, 256344, Note_on_c, 4, 64, 127
2, 256526, Note_off_c, 4, 64, 127
2, 256531, Note_off_c, 5, 65, 127
2, 256534, Note_off_c, 0, 60, 127
2, 256537, Note_on_c, 5, 65, 127
2, 256537, Note_on_c, 11, 58, 127
2, 256734, Note_on_c, 7, 67, 127
2, 256916, Note_off_c, 7, 67, 127
2, 256927, Note_off_c, 1, 49, 127
2, 256931, Note_on_c, 8, 68, 127
2, 256931, Note_on_c, 0, 48, 127
2, 257109, Note_off_c, 5, 65, 127
2, 257127, Note_on_c, 7, 67, 127
2, 257309, Note_off_c, 7, 67, 127
2, 257320, Note_off_c, 11, 58, 127
2, 257324, Note_on_c, 5, 65, 127
2, 257324, Note_on_c, 8, 56, 127
2, 257506, Note_off_c, 5, 65, 127
2, 257521, Note_on_c, 3, 63, 127
2, 257703, Note_off_c, 3, 63, 127
2, 257714, Note_off_c, 0, 48, 127
2, 257717, Note_on_c, 2, 62, 127
2, 257717, Note_on_c, 12, 47, 127
2, 257908, Note_off_c, 8, 68, 127
2, 257911, Note_on_c, 5, 65, 127
2, 258093, Note_off_c, 5, 65, 127
2, 258104, Note_off_c, 8, 56, 127
2, 258108, Note_on_c, 7, 67, 127
2, 258108, Note_on_c, 7, 55, 127
2, 258290, Note_off_c, 7, 55, 127
2, 258290, Note_off_c, 7, 67, 127
2, 258304, Note_on_c, 8, 68, 127
2, 258304, Note_on_c, 5, 53, 127
2, 258486, Note_off_c, 5, 53, 127
2, 258486, Note_off_c, 8, 68, 127
2, 258492, Note_off_c, 2, 62, 127
2, 258495, Note_off_c, 12, 47, 127
2, 258498, Note_on_c, 11, 70, 127
2, 258498, Note_on_c, 7, 55, 127
2, 258498, Note_on_c, 4, 52, 127
2, 258680, Note_off_c, 7, 55, 127
2, 258695, Note_on_c, 11, 58, 127
2, 258877, Note_off_c, 11, 58, 127
2, 258891, Note_on_c, 1, 61, 127
2, 258891, Note_on_c, 8, 56, 127
2, 259073, Note_off_c, 8, 56, 127
2, 259088, Note_on_c, 7, 55, 127
2, 259270, Note_off_c, 7, 55, 127
2, 259276, Note_off_c, 11, 70, 127
2, 259278, Note_off_c, 4, 52, 127
2, 259282, Note_on_c, 5, 53, 127
2, 259479, Note_on_c, 8, 68, 127
2, 259661, Note_off_c, 8, 68, 127
2, 259671, Note_off_c, 1, 61, 127
2, 259675, Note_on_c, 11, 70, 127
2, 259675, Note_on_c, 0, 60, 127
2, 259675, Note_on_c, 7, 55, 127
2, 259857, Note_off_c, 7, 55, 127
2, 259857, Note_off_c, 11, 70, 127
2, 259872, Note_on_c, 0, 72, 127
2, 259872, Note_on_c, 8, 56, 127
2, 260054, Note_off_c, 8, 56, 127
2, 260054, Note_off_c, 0, 72, 127
2, 260059, Note_off_c, 0, 60, 127
2, 260062, Note_off_c, 5, 53, 127
2, 260066, Note_on_c, 1, 73, 127
2, 260066, Note_on_c, 11, 58, 127
2, 260066, Note_on_c, 11, 46, 127
2, 260248, Note_off_c, 11, 58, 127
2, 260262, Note_on_c, 5, 53, 127
2, 260444, Note_off_c, 5, 53, 127
2, 260459, Note_on_c, 6, 66, 127
2, 260459, Note_on_c, 3, 51, 127
2, 260641, Note_off_c, 3, 51, 127
2, 260656, Note_on_c, 1, 49, 127
2, 260838, Note_off_c, 1, 49, 127
2, 260849, Note_off_c, 11, 46, 127
2, 260852, Note_on_c, 0, 48, 127
2, 260852, Note_on_c, 10, 45, 127
2, 261043, Note_off_c, 1, 73, 127
2, 261046, Note_on_c, 0, 72, 127
2, 261228, Note_off_c, 0, 72, 127
2, 261239, Note_off_c, 6, 66, 127
2, 261243, Note_on_c, 2, 74, 127
2, 261243, Note_on_c, 5, 65, 127
2, 261425, Note_off_c, 2, 74, 127
2, 261439, Note_on_c, 4, 76, 127
2, 261621, Note_off_c, 4, 76, 127
2, 261632, Note_off_c, 10, 45, 127
2, 261636, Note_on_c, 5, 77, 127
2, 261636, Note_on_c, 8, 44, 127
2, 261826, Note_off_c, 0, 48, 127
2, 261827, Note_off_c, 5, 65, 127
2, 261830, Note_on_c, 5, 65, 127
2, 261830, Note_on_c, 2, 50, 127
2, 262012, Note_off_c, 2, 50, 127
2, 262012, Note_off_c, 5, 65, 127
2, 262026, Note_on_c, 7, 67, 127
2, 262026, Note_on_c, 4, 52, 127
2, 262208, Note_off_c, 4, 52, 127
2, 262208, Note_off_c, 7, 67, 127
2, 262223, Note_on_c, 8, 68, 127
2, 262223, Note_on_c, 5, 53, 127
2, 262405, Note_off_c, 5, 53, 127
2, 262405, Note_off_c, 8, 68, 127
2, 262416, Note_off_c, 8, 44, 127
2, 262420, Note_on_c, 11, 70, 127
2, 262420, Note_on_c, 7, 55, 127
2, 262420, Note_on_c, 7, 43, 127
2, 262807, Note_off_c, 5, 77, 127
2, 262810, Note_on_c, 4, 76, 127
2, 262992, Note_off_c, 4, 76, 127
2, 263007, Note_on_c, 2, 74, 127
2, 263189, Note_off_c, 2, 74, 127
2, 263204, Note_on_c, 5, 77, 127
2, 263386, Note_off_c, 5, 77, 127
2, 263397, Note_off_c, 7, 55, 127
2, 263400, Note_on_c, 4, 76, 127
2, 263400, Note_on_c, 10, 45, 127
2, 263482, Note_off_c, 4, 76, 127
2, 263500, Note_on_c, 5, 77, 127
2, 263582, Note_off_c, 5, 77, 127
2, 263585, Note_off_c, 10, 45, 127
2, 263600, Note_on_c, 4, 76, 127
2, 263600, Note_on_c, 11, 46, 127
2, 263782, Note_off_c, 11, 46, 127
2, 263796, Note_on_c, 0, 48, 127
2, 263978, Note_off_c, 0, 48, 127
2, 263984, Note_off_c, 4, 76, 127
2, 263987, Note_off_c, 7, 43, 127
2, 263990, Note_on_c, 5, 41, 127
2, 263990, Note_on_c, 1, 49, 127
2, 263990, Note_on_c, 5, 77, 127
2, 264181, Note_off_c, 1, 49, 127
2, 264189, Note_off_c, 11, 70, 127
2, 264196, Note_on_c, 0, 48, 127
2, 264196, Note_on_c, 1, 73, 127
2, 264387, Note_off_c, 1, 73, 127
2, 264387, Note_off_c, 0, 48, 127
2, 264403, Note_on_c, 1, 49, 127
2, 264403, Note_on_c, 0, 72, 127
2, 264594, Note_off_c, 0, 72, 127
2, 264594, Note_off_c, 1, 49, 127
2, 264609, Note_on_c, 3, 51, 127
2, 264609, Note_on_c, 11, 70, 127
2, 264800, Note_off_c, 11, 70, 127
2, 264800, Note_off_c, 3, 51, 127
2, 264816, Note_on_c, 5, 53, 127
2, 264816, Note_on_c, 10, 69, 127
2, 265018, Note_off_c, 5, 77, 127
2, 265018, Note_off_c, 5, 41, 127
2, 265022, Note_on_c, 5, 41, 127
2, 265022, Note_on_c, 3, 75, 127
2, 265213, Note_off_c, 3, 75, 127
2, 265213, Note_off_c, 5, 41, 127
2, 265228, Note_on_c, 7, 43, 127
2, 265228, Note_on_c, 1, 73, 127
2, 265419, Note_off_c, 1, 73, 127
2, 265419, Note_off_c, 7, 43, 127
2, 265435, Note_on_c, 10, 45, 127
2, 265435, Note_on_c, 0, 72, 127
2, 265626, Note_off_c, 0, 72, 127
2, 265626, Note_off_c, 10, 45, 127
2, 265641, Note_on_c, 11, 46, 127
2, 265641, Note_on_c, 1, 73, 127
2, 265847, Note_off_c, 10, 69, 127
2, 265847, Note_off_c, 5, 53, 127
2, 265853, Note_on_c, 5, 53, 127
2, 265853, Note_on_c, 0, 72, 127
2, 266046, Note_off_c, 0, 72, 127
2, 266046, Note_off_c, 5, 53, 127
2, 266062, Note_on_c, 7, 55, 127
2, 266062, Note_on_c, 11, 70, 127
2, 266255, Note_off_c, 11, 70, 127
2, 266255, Note_off_c, 7, 55, 127
2, 266272, Note_on_c, 8, 56, 127
2, 266272, Note_on_c, 8, 68, 127
2, 266465, Note_off_c, 8, 68, 127
2, 266465, Note_off_c, 8, 56, 127
2, 266482, Note_on_c, 11, 58, 127
2, 266482, Note_on_c, 7, 67, 127
2, 266675, Note_off_c, 7, 67, 127
2, 266687, Note_off_c, 1, 73, 127
2, 266687, Note_off_c, 11, 46, 127
2, 266694, Note_on_c, 1, 49, 127
2, 266694, Note_on_c, 5, 65, 127
2, 266694, Note_on_c, 11, 70, 127
2, 266887, Note_off_c, 11, 70, 127
2, 266887, Note_off_c, 5, 65, 127
2, 266887, Note_off_c, 1, 49, 127
2, 266903, Note_on_c, 0, 48, 127
2, 266903, Note_on_c, 3, 63, 127
2, 266903, Note_on_c, 0, 72, 127
2, 267096, Note_off_c, 0, 72, 127
2, 267096, Note_off_c, 3, 63, 127
2, 267096, Note_off_c, 0, 48, 127
2, 267112, Note_on_c, 11, 46, 127
2, 267112, Note_on_c, 1, 61, 127
2, 267112, Note_on_c, 1, 73, 127
2, 267305, Note_off_c, 1, 73, 127
2, 267305, Note_off_c, 1, 61, 127
2, 267305, Note_off_c, 11, 46, 127
2, 267321, Note_on_c, 0, 48, 127
2, 267321, Note_on_c, 0, 60, 127
2, 267321, Note_on_c, 4, 64, 127
2, 267533, Note_off_c, 11, 58, 127
2, 267539, Note_on_c, 11, 58, 127
2, 267741, Note_off_c, 11, 58, 127
2, 267747, Note_off_c, 4, 64, 127
2, 267758, Note_on_c, 8, 56, 127
2, 267758, Note_on_c, 0, 72, 127
2, 267960, Note_off_c, 8, 56, 127
2, 267975, Note_on_c, 7, 55, 127
2, 268177, Note_off_c, 7, 55, 127
2, 268193, Note_on_c, 8, 56, 127
2, 268405, Note_off_c, 0, 72, 127
2, 268411, Note_on_c, 7, 67, 127
2, 268613, Note_off_c, 7, 67, 127
2, 268630, Note_on_c, 8, 68, 127
2, 268832, Note_off_c, 8, 68, 127
2, 268847, Note_on_c, 5, 65, 127
2, 269058, Note_off_c, 8, 56, 127
2, 269065, Note_on_c, 8, 56, 127
2, 269215, Note_off_c, 8, 56, 127
2, 269233, Note_on_c, 7, 55, 127
2, 269374, Note_off_c, 5, 65, 127
2, 269395, Note_off_c, 7, 55, 127
2, 269403, Note_on_c, 8, 56, 127
2, 269403, Note_on_c, 5, 65, 127
2, 269585, Note_off_c, 5, 65, 127
2, 269585, Note_off_c, 8, 56, 127
2, 269591, Note_on_c, 7, 55, 127
2, 269591, Note_on_c, 4, 64, 127
2, 269753, Note_off_c, 7, 55, 127
2, 269760, Note_on_c, 8, 56, 127
2, 269922, Note_off_c, 8, 56, 127
2, 269930, Note_on_c, 7, 55, 127
2, 269930, Note_on_c, 2, 62, 127
2, 269938, Note_off_c, 4, 64, 127
2, 270124, Note_off_c, 2, 62, 127
2, 270124, Note_off_c, 7, 55, 127
2, 270135, Note_on_c, 8, 56, 127
2, 270135, Note_on_c, 5, 65, 127
2, 270332, Note_off_c, 8, 56, 127
2, 270338, Note_on_c, 7, 55, 127
2, 270338, Note_on_c, 4, 64, 127
2, 270343, Note_off_c, 5, 65, 127
2, 270535, Note_off_c, 7, 55, 127
2, 270542, Note_on_c, 5, 65, 127
2, 270542, Note_on_c, 8, 56, 127
2, 270546, Note_off_c, 4, 64, 127
2, 270739, Note_off_c, 8, 56, 127
2, 270746, Note_on_c, 4, 64, 127
2, 270746, Note_on_c, 7, 55, 127
2, 270762, Note_off_c, 5, 65, 127
2, 270943, Note_off_c, 7, 55, 127
2, 270951, Note_on_c, 5, 65, 127
2, 270951, Note_on_c, 8, 56, 127
2, 270966, Note_off_c, 4, 64, 127
2, 271171, Note_off_c, 8, 56, 127
2, 271190, Note_on_c, 4, 64, 127
2, 271190, Note_on_c, 7, 55, 127
2, 271192, Note_off_c, 5, 65, 127
2, 271410, Note_off_c, 7, 55, 127
2, 271429, Note_on_c, 2, 62, 127
2, 271429, Note_on_c, 5, 53, 127
2, 271431, Note_off_c, 4, 64, 127
2, 271707, Note_off_c, 5, 53, 127
2, 271707, Note_off_c, 2, 62, 127
2, 271736, Note_on_c, 7, 55, 127
2, 271736, Note_on_c, 4, 64, 127
2, 271758, Note_off_c, 0, 60, 127
2, 271758, Note_off_c, 0, 48, 127
2, 272049, Note_off_c, 4, 64, 127
2, 272049, Note_off_c, 7, 55, 127
2, 272061, Note_on_c, 10, 57, 127
2, 272061, Note_on_c, 5, 41, 127
2, 272061, Note_on_c, 5, 65, 127
2, 272061, Note_on_c, 0, 60, 127
2, 275520, Note_off_c, 0, 60, 127
2, 275520, Note_off_c, 5, 65, 127
2, 275520, Note_off_c, 5, 41, 127
2, 275520, Note_off_c, 10, 57, 127
2, 279552, End_track
3, 0, Start_track
3, 0, Title_t, "MIDI"
3, 1536, End_track
0, 0, End_of_file
