0, 0, Header, 1, 4, 240
1, 0, Start_track
1, 0, Title_t, "untitled"
1, 0, SMPTE_offset, 96, 0, 3, 0, 0
1, 0, Time_signature, 1, 3, 12, 8
1, 0, Key_signature, 0, "major"
1, 0, Tempo, 416667
1, 120, Time_signature, 3, 1, 48, 8
1, 14520, Time_signature, 1, 3, 12, 8
1, 14640, Time_signature, 3, 1, 48, 8
1, 29040, Time_signature, 1, 3, 12, 8
1, 29160, Time_signature, 3, 1, 48, 8
1, 43560, Time_signature, 1, 3, 12, 8
1, 43680, Time_signature, 3, 1, 48, 8
1, 43680, End_track
2, 0, Start_track
2, 0, MIDI_port, 0
2, 0, Title_t, "English Suite 1, 3. Courante 1"
2, 0, Program_c, 0, 0
2, 0, Control_c, 0, 7, 100
2, 0, Control_c, 0, 10, 64
2, 0, Note_on_c, 0, 81, 107
2, 96, Note_on_c, 0, 81, 0
2, 120, Note_on_c, 0, 73, 107
2, 150, Note_on_c, 0, 76, 107
2, 180, Note_on_c, 0, 81, 107
2, 408, Note_on_c, 0, 73, 0
2, 432, Note_on_c, 0, 81, 0
2, 432, Note_on_c, 0, 76, 0
2, 480, Note_on_c, 0, 80, 107
2, 576, Note_on_c, 0, 80, 0
2, 600, Note_on_c, 0, 78, 107
2, 696, Note_on_c, 0, 78, 0
2, 720, Note_on_c, 0, 76, 107
2, 816, Note_on_c, 0, 76, 0
2, 840, Note_on_c, 0, 74, 107
2, 936, Note_on_c, 0, 74, 0
2, 960, Note_on_c, 0, 73, 107
2, 1056, Note_on_c, 0, 73, 0
2, 1080, Note_on_c, 0, 74, 107
2, 1104, Note_on_c, 0, 74, 0
2, 1110, Note_on_c, 0, 73, 107
2, 1134, Note_on_c, 0, 73, 0
2, 1140, Note_on_c, 0, 74, 107
2, 1425, Note_on_c, 0, 74, 0
2, 1440, Note_on_c, 0, 76, 107
2, 1536, Note_on_c, 0, 76, 0
2, 1560, Note_on_c, 0, 73, 107
2, 1584, Note_on_c, 0, 73, 0
2, 1590, Note_on_c, 0, 74, 107
2, 1614, Note_on_c, 0, 74, 0
2, 1620, Note_on_c, 0, 73, 107
2, 1905, Note_on_c, 0, 73, 0
2, 1920, Note_on_c, 0, 71, 107
2, 2016, Note_on_c, 0, 71, 0
2, 2040, Note_on_c, 0, 69, 107
2, 2136, Note_on_c, 0, 69, 0
2, 2160, Note_on_c, 0, 68, 107
2, 2256, Note_on_c, 0, 68, 0
2, 2280, Note_on_c, 0, 66, 107
2, 2376, Note_on_c, 0, 66, 0
2, 2400, Note_on_c, 0, 74, 107
2, 2496, Note_on_c, 0, 74, 0
2, 2520, Note_on_c, 0, 71, 107
2, 2544, Note_on_c, 0, 71, 0
2, 2550, Note_on_c, 0, 73, 107
2, 2574, Note_on_c, 0, 73, 0
2, 2580, Note_on_c, 0, 71, 107
2, 2865, Note_on_c, 0, 71, 0
2, 2880, Note_on_c, 0, 69, 107
2, 2976, Note_on_c, 0, 69, 0
2, 3000, Note_on_c, 0, 68, 107
2, 3288, Note_on_c, 0, 68, 0
2, 3360, Note_on_c, 0, 66, 107
2, 3456, Note_on_c, 0, 66, 0
2, 3480, Note_on_c, 0, 64, 107
2, 3576, Note_on_c, 0, 64, 0
2, 3600, Note_on_c, 0, 66, 107
2, 3696, Note_on_c, 0, 66, 0
2, 3720, Note_on_c, 0, 68, 107
2, 3816, Note_on_c, 0, 68, 0
2, 3840, Note_on_c, 0, 69, 107
2, 3936, Note_on_c, 0, 69, 0
2, 3960, Note_on_c, 0, 71, 107
2, 3984, Note_on_c, 0, 71, 0
2, 3990, Note_on_c, 0, 69, 107
2, 4014, Note_on_c, 0, 69, 0
2, 4020, Note_on_c, 0, 71, 107
2, 4305, Note_on_c, 0, 71, 0
2, 4320, Note_on_c, 0, 73, 107
2, 4416, Note_on_c, 0, 73, 0
2, 4440, Note_on_c, 0, 74, 107
2, 4560, Note_on_c, 0, 71, 107
2, 4656, Note_on_c, 0, 71, 0
2, 4680, Note_on_c, 0, 68, 107
2, 4728, Note_on_c, 0, 74, 0
2, 4800, Note_on_c, 0, 76, 107
2, 4872, Note_on_c, 0, 68, 0
2, 4896, Note_on_c, 0, 76, 0
2, 4920, Note_on_c, 0, 73, 107
2, 4920, Note_on_c, 0, 69, 107
2, 4944, Note_on_c, 0, 73, 0
2, 4950, Note_on_c, 0, 74, 107
2, 4974, Note_on_c, 0, 74, 0
2, 4980, Note_on_c, 0, 73, 107
2, 5265, Note_on_c, 0, 73, 0
2, 5280, Note_on_c, 0, 71, 107
2, 5304, Note_on_c, 0, 69, 0
2, 5376, Note_on_c, 0, 71, 0
2, 5400, Note_on_c, 0, 71, 107
2, 5400, Note_on_c, 0, 68, 107
2, 5424, Note_on_c, 0, 71, 0
2, 5430, Note_on_c, 0, 73, 107
2, 5454, Note_on_c, 0, 73, 0
2, 5460, Note_on_c, 0, 71, 107
2, 5745, Note_on_c, 0, 71, 0
2, 5760, Note_on_c, 0, 69, 107
2, 5784, Note_on_c, 0, 68, 0
2, 5856, Note_on_c, 0, 69, 0
2, 5880, Note_on_c, 0, 61, 107
2, 5910, Note_on_c, 0, 64, 107
2, 5940, Note_on_c, 0, 69, 107
2, 6228, Note_on_c, 0, 64, 0
2, 6264, Note_on_c, 0, 61, 0
2, 6456, Note_on_c, 0, 69, 0
2, 6480, Note_on_c, 0, 73, 107
2, 6576, Note_on_c, 0, 73, 0
2, 6600, Note_on_c, 0, 71, 107
2, 6696, Note_on_c, 0, 71, 0
2, 6720, Note_on_c, 0, 69, 107
2, 6816, Note_on_c, 0, 69, 0
2, 6840, Note_on_c, 0, 68, 107
2, 6864, Note_on_c, 0, 68, 0
2, 6870, Note_on_c, 0, 69, 107
2, 6894, Note_on_c, 0, 69, 0
2, 6900, Note_on_c, 0, 68, 107
2, 7185, Note_on_c, 0, 68, 0
2, 7200, Note_on_c, 0, 69, 107
2, 7296, Note_on_c, 0, 69, 0
2, 7320, Note_on_c, 0, 71, 107
2, 7416, Note_on_c, 0, 71, 0
2, 7440, Note_on_c, 0, 69, 107
2, 7536, Note_on_c, 0, 69, 0
2, 7560, Note_on_c, 0, 68, 107
2, 7656, Note_on_c, 0, 68, 0
2, 7680, Note_on_c, 0, 66, 107
2, 7776, Note_on_c, 0, 66, 0
2, 7800, Note_on_c, 0, 78, 107
2, 7824, Note_on_c, 0, 78, 0
2, 7830, Note_on_c, 0, 76, 107
2, 7854, Note_on_c, 0, 76, 0
2, 7860, Note_on_c, 0, 78, 107
2, 8145, Note_on_c, 0, 78, 0
2, 8160, Note_on_c, 0, 75, 107
2, 8256, Note_on_c, 0, 75, 0
2, 8280, Note_on_c, 0, 76, 107
2, 8304, Note_on_c, 0, 76, 0
2, 8310, Note_on_c, 0, 75, 107
2, 8334, Note_on_c, 0, 75, 0
2, 8340, Note_on_c, 0, 76, 107
2, 8625, Note_on_c, 0, 76, 0
2, 8640, Note_on_c, 0, 78, 107
2, 8736, Note_on_c, 0, 78, 0
2, 8760, Note_on_c, 0, 75, 107
2, 9000, Note_on_c, 0, 66, 107
2, 9048, Note_on_c, 0, 75, 0
2, 9120, Note_on_c, 0, 73, 107
2, 9216, Note_on_c, 0, 73, 0
2, 9240, Note_on_c, 0, 71, 107
2, 9336, Note_on_c, 0, 71, 0
2, 9360, Note_on_c, 0, 73, 107
2, 9432, Note_on_c, 0, 66, 0
2, 9456, Note_on_c, 0, 73, 0
2, 9480, Note_on_c, 0, 64, 107
2, 9480, Note_on_c, 0, 75, 107
2, 9576, Note_on_c, 0, 75, 0
2, 9600, Note_on_c, 0, 76, 107
2, 9672, Note_on_c, 0, 64, 0
2, 9696, Note_on_c, 0, 76, 0
2, 9720, Note_on_c, 0, 78, 107
2, 9744, Note_on_c, 0, 78, 0
2, 9750, Note_on_c, 0, 76, 107
2, 9774, Note_on_c, 0, 76, 0
2, 9780, Note_on_c, 0, 78, 107
2, 9840, Note_on_c, 0, 63, 107
2, 9936, Note_on_c, 0, 63, 0
2, 10065, Note_on_c, 0, 78, 0
2, 10080, Note_on_c, 0, 64, 107
2, 10080, Note_on_c, 0, 80, 107
2, 10176, Note_on_c, 0, 80, 0
2, 10176, Note_on_c, 0, 64, 0
2, 10200, Note_on_c, 0, 81, 107
2, 10320, Note_on_c, 0, 78, 107
2, 10416, Note_on_c, 0, 78, 0
2, 10440, Note_on_c, 0, 75, 107
2, 10488, Note_on_c, 0, 81, 0
2, 10560, Note_on_c, 0, 83, 107
2, 10632, Note_on_c, 0, 75, 0
2, 10656, Note_on_c, 0, 83, 0
2, 10680, Note_on_c, 0, 80, 107
2, 10680, Note_on_c, 0, 76, 107
2, 10704, Note_on_c, 0, 80, 0
2, 10710, Note_on_c, 0, 81, 107
2, 10734, Note_on_c, 0, 81, 0
2, 10740, Note_on_c, 0, 80, 107
2, 11025, Note_on_c, 0, 80, 0
2, 11040, Note_on_c, 0, 78, 107
2, 11064, Note_on_c, 0, 76, 0
2, 11136, Note_on_c, 0, 78, 0
2, 11160, Note_on_c, 0, 75, 107
2, 11160, Note_on_c, 0, 78, 107
2, 11184, Note_on_c, 0, 78, 0
2, 11190, Note_on_c, 0, 80, 107
2, 11214, Note_on_c, 0, 80, 0
2, 11220, Note_on_c, 0, 78, 107
2, 11505, Note_on_c, 0, 78, 0
2, 11520, Note_on_c, 0, 76, 107
2, 11544, Note_on_c, 0, 75, 0
2, 11616, Note_on_c, 0, 76, 0
2, 11640, Note_on_c, 0, 76, 107
2, 12000, Note_on_c, 0, 75, 107
2, 12096, Note_on_c, 0, 75, 0
2, 12120, Note_on_c, 0, 73, 107
2, 12216, Note_on_c, 0, 73, 0
2, 12240, Note_on_c, 0, 71, 107
2, 12336, Note_on_c, 0, 71, 0
2, 12360, Note_on_c, 0, 69, 107
2, 12456, Note_on_c, 0, 69, 0
2, 12480, Note_on_c, 0, 68, 107
2, 12576, Note_on_c, 0, 68, 0
2, 12600, Note_on_c, 0, 59, 107
2, 12600, Note_on_c, 0, 66, 107
2, 12720, Note_on_c, 0, 69, 105
2, 12744, Note_on_c, 0, 76, 0
2, 12840, Note_on_c, 0, 76, 107
2, 12936, Note_on_c, 0, 76, 0
2, 12960, Note_on_c, 0, 75, 107
2, 12984, Note_on_c, 0, 59, 0
2, 12984, Note_on_c, 0, 66, 0
2, 13008, Note_on_c, 0, 69, 0
2, 13056, Note_on_c, 0, 75, 0
2, 13080, Note_on_c, 0, 76, 107
2, 13440, Note_on_c, 0, 71, 107
2, 13536, Note_on_c, 0, 71, 0
2, 13560, Note_on_c, 0, 73, 107
2, 13656, Note_on_c, 0, 73, 0
2, 13656, Note_on_c, 0, 76, 0
2, 13680, Note_on_c, 0, 69, 107
2, 13776, Note_on_c, 0, 69, 0
2, 13800, Note_on_c, 0, 68, 107
2, 13830, Note_on_c, 0, 71, 107
2, 13860, Note_on_c, 0, 76, 107
2, 14145, Note_on_c, 0, 76, 0
2, 14148, Note_on_c, 0, 71, 0
2, 14184, Note_on_c, 0, 68, 0
2, 14520, Note_on_c, 0, 81, 107
2, 14616, Note_on_c, 0, 81, 0
2, 14640, Note_on_c, 0, 73, 107
2, 14670, Note_on_c, 0, 76, 107
2, 14700, Note_on_c, 0, 81, 107
2, 14928, Note_on_c, 0, 73, 0
2, 14952, Note_on_c, 0, 81, 0
2, 14952, Note_on_c, 0, 76, 0
2, 15000, Note_on_c, 0, 80, 107
2, 15096, Note_on_c, 0, 80, 0
2, 15120, Note_on_c, 0, 78, 107
2, 15216, Note_on_c, 0, 78, 0
2, 15240, Note_on_c, 0, 76, 107
2, 15336, Note_on_c, 0, 76, 0
2, 15360, Note_on_c, 0, 74, 107
2, 15456, Note_on_c, 0, 74, 0
2, 15480, Note_on_c, 0, 73, 107
2, 15576, Note_on_c, 0, 73, 0
2, 15600, Note_on_c, 0, 74, 107
2, 15624, Note_on_c, 0, 74, 0
2, 15630, Note_on_c, 0, 73, 107
2, 15654, Note_on_c, 0, 73, 0
2, 15660, Note_on_c, 0, 74, 107
2, 15945, Note_on_c, 0, 74, 0
2, 15960, Note_on_c, 0, 76, 107
2, 16056, Note_on_c, 0, 76, 0
2, 16080, Note_on_c, 0, 73, 107
2, 16104, Note_on_c, 0, 73, 0
2, 16110, Note_on_c, 0, 74, 107
2, 16134, Note_on_c, 0, 74, 0
2, 16140, Note_on_c, 0, 73, 107
2, 16425, Note_on_c, 0, 73, 0
2, 16440, Note_on_c, 0, 71, 107
2, 16536, Note_on_c, 0, 71, 0
2, 16560, Note_on_c, 0, 69, 107
2, 16656, Note_on_c, 0, 69, 0
2, 16680, Note_on_c, 0, 68, 107
2, 16776, Note_on_c, 0, 68, 0
2, 16800, Note_on_c, 0, 66, 107
2, 16896, Note_on_c, 0, 66, 0
2, 16920, Note_on_c, 0, 74, 107
2, 17016, Note_on_c, 0, 74, 0
2, 17040, Note_on_c, 0, 71, 107
2, 17064, Note_on_c, 0, 71, 0
2, 17070, Note_on_c, 0, 73, 107
2, 17094, Note_on_c, 0, 73, 0
2, 17100, Note_on_c, 0, 71, 107
2, 17385, Note_on_c, 0, 71, 0
2, 17400, Note_on_c, 0, 69, 107
2, 17496, Note_on_c, 0, 69, 0
2, 17520, Note_on_c, 0, 68, 107
2, 17808, Note_on_c, 0, 68, 0
2, 17880, Note_on_c, 0, 66, 107
2, 17976, Note_on_c, 0, 66, 0
2, 18000, Note_on_c, 0, 64, 107
2, 18096, Note_on_c, 0, 64, 0
2, 18120, Note_on_c, 0, 66, 107
2, 18216, Note_on_c, 0, 66, 0
2, 18240, Note_on_c, 0, 68, 107
2, 18336, Note_on_c, 0, 68, 0
2, 18360, Note_on_c, 0, 69, 107
2, 18456, Note_on_c, 0, 69, 0
2, 18480, Note_on_c, 0, 71, 107
2, 18504, Note_on_c, 0, 71, 0
2, 18510, Note_on_c, 0, 69, 107
2, 18534, Note_on_c, 0, 69, 0
2, 18540, Note_on_c, 0, 71, 107
2, 18825, Note_on_c, 0, 71, 0
2, 18840, Note_on_c, 0, 73, 107
2, 18936, Note_on_c, 0, 73, 0
2, 18960, Note_on_c, 0, 74, 107
2, 19080, Note_on_c, 0, 71, 107
2, 19176, Note_on_c, 0, 71, 0
2, 19200, Note_on_c, 0, 68, 107
2, 19248, Note_on_c, 0, 74, 0
2, 19320, Note_on_c, 0, 76, 107
2, 19392, Note_on_c, 0, 68, 0
2, 19416, Note_on_c, 0, 76, 0
2, 19440, Note_on_c, 0, 73, 107
2, 19440, Note_on_c, 0, 69, 107
2, 19464, Note_on_c, 0, 73, 0
2, 19470, Note_on_c, 0, 74, 107
2, 19494, Note_on_c, 0, 74, 0
2, 19500, Note_on_c, 0, 73, 107
2, 19785, Note_on_c, 0, 73, 0
2, 19800, Note_on_c, 0, 71, 107
2, 19824, Note_on_c, 0, 69, 0
2, 19896, Note_on_c, 0, 71, 0
2, 19920, Note_on_c, 0, 71, 107
2, 19920, Note_on_c, 0, 68, 107
2, 19944, Note_on_c, 0, 71, 0
2, 19950, Note_on_c, 0, 73, 107
2, 19974, Note_on_c, 0, 73, 0
2, 19980, Note_on_c, 0, 71, 107
2, 20265, Note_on_c, 0, 71, 0
2, 20280, Note_on_c, 0, 69, 107
2, 20304, Note_on_c, 0, 68, 0
2, 20376, Note_on_c, 0, 69, 0
2, 20400, Note_on_c, 0, 61, 107
2, 20430, Note_on_c, 0, 64, 107
2, 20460, Note_on_c, 0, 69, 107
2, 20748, Note_on_c, 0, 64, 0
2, 20784, Note_on_c, 0, 61, 0
2, 20976, Note_on_c, 0, 69, 0
2, 21000, Note_on_c, 0, 73, 107
2, 21096, Note_on_c, 0, 73, 0
2, 21120, Note_on_c, 0, 71, 107
2, 21216, Note_on_c, 0, 71, 0
2, 21240, Note_on_c, 0, 69, 107
2, 21336, Note_on_c, 0, 69, 0
2, 21360, Note_on_c, 0, 68, 107
2, 21384, Note_on_c, 0, 68, 0
2, 21390, Note_on_c, 0, 69, 107
2, 21414, Note_on_c, 0, 69, 0
2, 21420, Note_on_c, 0, 68, 107
2, 21705, Note_on_c, 0, 68, 0
2, 21720, Note_on_c, 0, 69, 107
2, 21816, Note_on_c, 0, 69, 0
2, 21840, Note_on_c, 0, 71, 107
2, 21936, Note_on_c, 0, 71, 0
2, 21960, Note_on_c, 0, 69, 107
2, 22056, Note_on_c, 0, 69, 0
2, 22080, Note_on_c, 0, 68, 107
2, 22176, Note_on_c, 0, 68, 0
2, 22200, Note_on_c, 0, 66, 107
2, 22296, Note_on_c, 0, 66, 0
2, 22320, Note_on_c, 0, 78, 107
2, 22344, Note_on_c, 0, 78, 0
2, 22350, Note_on_c, 0, 76, 107
2, 22374, Note_on_c, 0, 76, 0
2, 22380, Note_on_c, 0, 78, 107
2, 22665, Note_on_c, 0, 78, 0
2, 22680, Note_on_c, 0, 75, 107
2, 22776, Note_on_c, 0, 75, 0
2, 22800, Note_on_c, 0, 76, 107
2, 22824, Note_on_c, 0, 76, 0
2, 22830, Note_on_c, 0, 75, 107
2, 22854, Note_on_c, 0, 75, 0
2, 22860, Note_on_c, 0, 76, 107
2, 23145, Note_on_c, 0, 76, 0
2, 23160, Note_on_c, 0, 78, 107
2, 23256, Note_on_c, 0, 78, 0
2, 23280, Note_on_c, 0, 75, 107
2, 23520, Note_on_c, 0, 66, 107
2, 23568, Note_on_c, 0, 75, 0
2, 23640, Note_on_c, 0, 73, 107
2, 23736, Note_on_c, 0, 73, 0
2, 23760, Note_on_c, 0, 71, 107
2, 23856, Note_on_c, 0, 71, 0
2, 23880, Note_on_c, 0, 73, 107
2, 23952, Note_on_c, 0, 66, 0
2, 23976, Note_on_c, 0, 73, 0
2, 24000, Note_on_c, 0, 64, 107
2, 24000, Note_on_c, 0, 75, 107
2, 24096, Note_on_c, 0, 75, 0
2, 24120, Note_on_c, 0, 76, 107
2, 24192, Note_on_c, 0, 64, 0
2, 24216, Note_on_c, 0, 76, 0
2, 24240, Note_on_c, 0, 78, 107
2, 24264, Note_on_c, 0, 78, 0
2, 24270, Note_on_c, 0, 76, 107
2, 24294, Note_on_c, 0, 76, 0
2, 24300, Note_on_c, 0, 78, 107
2, 24360, Note_on_c, 0, 63, 107
2, 24456, Note_on_c, 0, 63, 0
2, 24585, Note_on_c, 0, 78, 0
2, 24600, Note_on_c, 0, 64, 107
2, 24600, Note_on_c, 0, 80, 107
2, 24696, Note_on_c, 0, 80, 0
2, 24696, Note_on_c, 0, 64, 0
2, 24720, Note_on_c, 0, 81, 107
2, 24840, Note_on_c, 0, 78, 107
2, 24936, Note_on_c, 0, 78, 0
2, 24960, Note_on_c, 0, 75, 107
2, 25008, Note_on_c, 0, 81, 0
2, 25080, Note_on_c, 0, 83, 107
2, 25152, Note_on_c, 0, 75, 0
2, 25176, Note_on_c, 0, 83, 0
2, 25200, Note_on_c, 0, 80, 107
2, 25200, Note_on_c, 0, 76, 107
2, 25224, Note_on_c, 0, 80, 0
2, 25230, Note_on_c, 0, 81, 107
2, 25254, Note_on_c, 0, 81, 0
2, 25260, Note_on_c, 0, 80, 107
2, 25545, Note_on_c, 0, 80, 0
2, 25560, Note_on_c, 0, 78, 107
2, 25584, Note_on_c, 0, 76, 0
2, 25656, Note_on_c, 0, 78, 0
2, 25680, Note_on_c, 0, 75, 107
2, 25680, Note_on_c, 0, 78, 107
2, 25704, Note_on_c, 0, 78, 0
2, 25710, Note_on_c, 0, 80, 107
2, 25734, Note_on_c, 0, 80, 0
2, 25740, Note_on_c, 0, 78, 107
2, 26025, Note_on_c, 0, 78, 0
2, 26040, Note_on_c, 0, 76, 107
2, 26064, Note_on_c, 0, 75, 0
2, 26136, Note_on_c, 0, 76, 0
2, 26160, Note_on_c, 0, 76, 107
2, 26520, Note_on_c, 0, 75, 107
2, 26616, Note_on_c, 0, 75, 0
2, 26640, Note_on_c, 0, 73, 107
2, 26736, Note_on_c, 0, 73, 0
2, 26760, Note_on_c, 0, 71, 107
2, 26856, Note_on_c, 0, 71, 0
2, 26880, Note_on_c, 0, 69, 107
2, 26976, Note_on_c, 0, 69, 0
2, 27000, Note_on_c, 0, 68, 107
2, 27096, Note_on_c, 0, 68, 0
2, 27120, Note_on_c, 0, 59, 107
2, 27120, Note_on_c, 0, 66, 107
2, 27240, Note_on_c, 0, 69, 105
2, 27264, Note_on_c, 0, 76, 0
2, 27360, Note_on_c, 0, 76, 107
2, 27456, Note_on_c, 0, 76, 0
2, 27480, Note_on_c, 0, 75, 107
2, 27504, Note_on_c, 0, 59, 0
2, 27504, Note_on_c, 0, 66, 0
2, 27528, Note_on_c, 0, 69, 0
2, 27576, Note_on_c, 0, 75, 0
2, 27600, Note_on_c, 0, 76, 107
2, 27960, Note_on_c, 0, 71, 107
2, 28056, Note_on_c, 0, 71, 0
2, 28080, Note_on_c, 0, 73, 107
2, 28176, Note_on_c, 0, 73, 0
2, 28176, Note_on_c, 0, 76, 0
2, 28200, Note_on_c, 0, 69, 107
2, 28296, Note_on_c, 0, 69, 0
2, 28320, Note_on_c, 0, 68, 107
2, 28350, Note_on_c, 0, 71, 107
2, 28380, Note_on_c, 0, 76, 107
2, 28665, Note_on_c, 0, 76, 0
2, 28668, Note_on_c, 0, 71, 0
2, 28704, Note_on_c, 0, 68, 0
2, 29040, Note_on_c, 0, 71, 107
2, 29136, Note_on_c, 0, 71, 0
2, 29160, Note_on_c, 0, 64, 107
2, 29190, Note_on_c, 0, 68, 107
2, 29220, Note_on_c, 0, 71, 107
2, 29448, Note_on_c, 0, 64, 0
2, 29472, Note_on_c, 0, 71, 0
2, 29472, Note_on_c, 0, 68, 0
2, 29520, Note_on_c, 0, 69, 107
2, 29616, Note_on_c, 0, 69, 0
2, 29640, Note_on_c, 0, 68, 107
2, 29736, Note_on_c, 0, 68, 0
2, 29760, Note_on_c, 0, 69, 107
2, 29856, Note_on_c, 0, 69, 0
2, 29880, Note_on_c, 0, 71, 107
2, 29976, Note_on_c, 0, 71, 0
2, 30000, Note_on_c, 0, 73, 107
2, 30096, Note_on_c, 0, 73, 0
2, 30120, Note_on_c, 0, 74, 107
2, 30144, Note_on_c, 0, 74, 0
2, 30150, Note_on_c, 0, 73, 107
2, 30174, Note_on_c, 0, 73, 0
2, 30180, Note_on_c, 0, 74, 107
2, 30465, Note_on_c, 0, 74, 0
2, 30480, Note_on_c, 0, 76, 107
2, 30576, Note_on_c, 0, 76, 0
2, 30600, Note_on_c, 0, 73, 107
2, 30624, Note_on_c, 0, 73, 0
2, 30630, Note_on_c, 0, 74, 107
2, 30654, Note_on_c, 0, 74, 0
2, 30660, Note_on_c, 0, 73, 107
2, 30945, Note_on_c, 0, 73, 0
2, 30960, Note_on_c, 0, 71, 107
2, 31056, Note_on_c, 0, 71, 0
2, 31080, Note_on_c, 0, 69, 107
2, 31176, Note_on_c, 0, 69, 0
2, 31200, Note_on_c, 0, 81, 107
2, 31296, Note_on_c, 0, 81, 0
2, 31320, Note_on_c, 0, 80, 107
2, 31416, Note_on_c, 0, 80, 0
2, 31440, Note_on_c, 0, 78, 107
2, 31536, Note_on_c, 0, 78, 0
2, 31560, Note_on_c, 0, 83, 107
2, 31656, Note_on_c, 0, 83, 0
2, 31680, Note_on_c, 0, 80, 107
2, 31776, Note_on_c, 0, 80, 0
2, 31800, Note_on_c, 0, 81, 107
2, 31896, Note_on_c, 0, 81, 0
2, 31920, Note_on_c, 0, 78, 107
2, 32016, Note_on_c, 0, 78, 0
2, 32040, Note_on_c, 0, 77, 107
2, 32160, Note_on_c, 0, 73, 107
2, 32280, Note_on_c, 0, 68, 107
2, 32616, Note_on_c, 0, 77, 0
2, 32664, Note_on_c, 0, 68, 0
2, 32760, Note_on_c, 0, 73, 0
2, 32760, Note_on_c, 0, 69, 107
2, 32790, Note_on_c, 0, 73, 107
2, 32820, Note_on_c, 0, 78, 107
2, 32933, Note_on_c, 0, 78, 0
2, 32933, Note_on_c, 0, 73, 0
2, 32952, Note_on_c, 0, 69, 0
2, 33000, Note_on_c, 0, 74, 107
2, 33024, Note_on_c, 0, 74, 0
2, 33030, Note_on_c, 0, 73, 107
2, 33054, Note_on_c, 0, 73, 0
2, 33060, Note_on_c, 0, 74, 107
2, 33345, Note_on_c, 0, 74, 0
2, 33360, Note_on_c, 0, 76, 107
2, 33456, Note_on_c, 0, 76, 0
2, 33480, Note_on_c, 0, 73, 107
2, 33600, Note_on_c, 0, 61, 107
2, 33696, Note_on_c, 0, 61, 0
2, 33720, Note_on_c, 0, 66, 107
2, 33768, Note_on_c, 0, 73, 0
2, 33840, Note_on_c, 0, 74, 107
2, 33912, Note_on_c, 0, 66, 0
2, 33936, Note_on_c, 0, 74, 0
2, 33960, Note_on_c, 0, 71, 107
2, 33960, Note_on_c, 0, 65, 107
2, 33984, Note_on_c, 0, 71, 0
2, 33990, Note_on_c, 0, 73, 107
2, 34014, Note_on_c, 0, 73, 0
2, 34020, Note_on_c, 0, 71, 107
2, 34152, Note_on_c, 0, 65, 0
2, 34200, Note_on_c, 0, 66, 107
2, 34305, Note_on_c, 0, 71, 0
2, 34320, Note_on_c, 0, 69, 107
2, 34392, Note_on_c, 0, 66, 0
2, 34416, Note_on_c, 0, 69, 0
2, 34440, Note_on_c, 0, 65, 107
2, 34440, Note_on_c, 0, 68, 107
2, 34464, Note_on_c, 0, 68, 0
2, 34470, Note_on_c, 0, 69, 107
2, 34494, Note_on_c, 0, 69, 0
2, 34500, Note_on_c, 0, 68, 107
2, 34785, Note_on_c, 0, 68, 0
2, 34800, Note_on_c, 0, 66, 107
2, 34824, Note_on_c, 0, 65, 0
2, 34896, Note_on_c, 0, 66, 0
2, 34920, Note_on_c, 0, 57, 107
2, 34950, Note_on_c, 0, 61, 107
2, 34980, Note_on_c, 0, 66, 107
2, 35304, Note_on_c, 0, 57, 0
2, 35328, Note_on_c, 0, 61, 0
2, 35496, Note_on_c, 0, 66, 0
2, 35520, Note_on_c, 0, 78, 107
2, 35616, Note_on_c, 0, 78, 0
2, 35640, Note_on_c, 0, 76, 107
2, 35736, Note_on_c, 0, 76, 0
2, 35760, Note_on_c, 0, 74, 107
2, 35856, Note_on_c, 0, 74, 0
2, 35880, Note_on_c, 0, 73, 107
2, 35904, Note_on_c, 0, 73, 0
2, 35910, Note_on_c, 0, 74, 107
2, 35934, Note_on_c, 0, 74, 0
2, 35940, Note_on_c, 0, 73, 107
2, 36225, Note_on_c, 0, 73, 0
2, 36240, Note_on_c, 0, 74, 107
2, 36336, Note_on_c, 0, 74, 0
2, 36360, Note_on_c, 0, 76, 107
2, 36456, Note_on_c, 0, 76, 0
2, 36480, Note_on_c, 0, 74, 107
2, 36576, Note_on_c, 0, 74, 0
2, 36600, Note_on_c, 0, 73, 107
2, 36696, Note_on_c, 0, 73, 0
2, 36720, Note_on_c, 0, 71, 107
2, 36816, Note_on_c, 0, 71, 0
2, 36840, Note_on_c, 0, 83, 107
2, 36869, Note_on_c, 0, 83, 0
2, 36870, Note_on_c, 0, 81, 107
2, 36894, Note_on_c, 0, 81, 0
2, 36900, Note_on_c, 0, 83, 107
2, 37185, Note_on_c, 0, 83, 0
2, 37200, Note_on_c, 0, 80, 107
2, 37296, Note_on_c, 0, 80, 0
2, 37320, Note_on_c, 0, 81, 107
2, 37344, Note_on_c, 0, 81, 0
2, 37350, Note_on_c, 0, 80, 107
2, 37374, Note_on_c, 0, 80, 0
2, 37380, Note_on_c, 0, 81, 107
2, 37665, Note_on_c, 0, 81, 0
2, 37680, Note_on_c, 0, 83, 107
2, 37776, Note_on_c, 0, 83, 0
2, 37800, Note_on_c, 0, 80, 107
2, 37824, Note_on_c, 0, 80, 0
2, 37830, Note_on_c, 0, 81, 107
2, 37854, Note_on_c, 0, 81, 0
2, 37860, Note_on_c, 0, 80, 107
2, 37920, Note_on_c, 0, 68, 107
2, 38145, Note_on_c, 0, 80, 0
2, 38160, Note_on_c, 0, 78, 107
2, 38208, Note_on_c, 0, 68, 0
2, 38256, Note_on_c, 0, 78, 0
2, 38280, Note_on_c, 0, 71, 107
2, 38280, Note_on_c, 0, 76, 107
2, 38376, Note_on_c, 0, 76, 0
2, 38400, Note_on_c, 0, 74, 107
2, 38472, Note_on_c, 0, 71, 0
2, 38496, Note_on_c, 0, 74, 0
2, 38520, Note_on_c, 0, 73, 107
2, 38616, Note_on_c, 0, 73, 0
2, 38640, Note_on_c, 0, 71, 107
2, 38736, Note_on_c, 0, 71, 0
2, 38760, Note_on_c, 0, 69, 107
2, 38856, Note_on_c, 0, 69, 0
2, 38880, Note_on_c, 0, 68, 107
2, 38976, Note_on_c, 0, 68, 0
2, 39000, Note_on_c, 0, 69, 107
2, 39096, Note_on_c, 0, 69, 0
2, 39120, Note_on_c, 0, 66, 107
2, 39216, Note_on_c, 0, 66, 0
2, 39240, Note_on_c, 0, 74, 107
2, 39264, Note_on_c, 0, 74, 0
2, 39270, Note_on_c, 0, 73, 107
2, 39294, Note_on_c, 0, 73, 0
2, 39300, Note_on_c, 0, 74, 107
2, 39585, Note_on_c, 0, 74, 0
2, 39600, Note_on_c, 0, 76, 107
2, 39696, Note_on_c, 0, 76, 0
2, 39720, Note_on_c, 0, 73, 107
2, 39744, Note_on_c, 0, 73, 0
2, 39750, Note_on_c, 0, 74, 107
2, 39774, Note_on_c, 0, 74, 0
2, 39780, Note_on_c, 0, 73, 107
2, 39840, Note_on_c, 0, 71, 107
2, 39936, Note_on_c, 0, 71, 0
2, 39960, Note_on_c, 0, 69, 107
2, 40065, Note_on_c, 0, 73, 0
2, 40080, Note_on_c, 0, 71, 107
2, 40152, Note_on_c, 0, 69, 0
2, 40176, Note_on_c, 0, 71, 0
2, 40200, Note_on_c, 0, 68, 107
2, 40200, Note_on_c, 0, 71, 107
2, 40224, Note_on_c, 0, 71, 0
2, 40230, Note_on_c, 0, 73, 107
2, 40254, Note_on_c, 0, 73, 0
2, 40260, Note_on_c, 0, 71, 107
2, 40545, Note_on_c, 0, 71, 0
2, 40560, Note_on_c, 0, 69, 107
2, 40584, Note_on_c, 0, 68, 0
2, 40656, Note_on_c, 0, 69, 0
2, 40680, Note_on_c, 0, 69, 107
2, 41040, Note_on_c, 0, 68, 107
2, 41136, Note_on_c, 0, 68, 0
2, 41160, Note_on_c, 0, 66, 107
2, 41256, Note_on_c, 0, 66, 0
2, 41280, Note_on_c, 0, 64, 107
2, 41376, Note_on_c, 0, 64, 0
2, 41400, Note_on_c, 0, 62, 107
2, 41496, Note_on_c, 0, 62, 0
2, 41520, Note_on_c, 0, 61, 107
2, 41616, Note_on_c, 0, 61, 0
2, 41760, Note_on_c, 0, 62, 107
2, 41784, Note_on_c, 0, 69, 0
2, 41880, Note_on_c, 0, 69, 107
2, 41976, Note_on_c, 0, 69, 0
2, 42000, Note_on_c, 0, 68, 107
2, 42096, Note_on_c, 0, 68, 0
2, 42120, Note_on_c, 0, 62, 0
2, 42120, Note_on_c, 0, 69, 107
2, 42480, Note_on_c, 0, 64, 107
2, 42576, Note_on_c, 0, 64, 0
2, 42600, Note_on_c, 0, 66, 107
2, 42696, Note_on_c, 0, 66, 0
2, 42696, Note_on_c, 0, 69, 0
2, 42720, Note_on_c, 0, 62, 107
2, 42816, Note_on_c, 0, 62, 0
2, 42840, Note_on_c, 0, 61, 107
2, 42870, Note_on_c, 0, 64, 107
2, 42900, Note_on_c, 0, 69, 107
2, 43188, Note_on_c, 0, 64, 0
2, 43224, Note_on_c, 0, 61, 0
2, 43248, Note_on_c, 0, 69, 0
2, 43560, Note_on_c, 0, 71, 107
2, 43656, Note_on_c, 0, 71, 0
2, 43680, Note_on_c, 0, 64, 107
2, 43710, Note_on_c, 0, 68, 107
2, 43740, Note_on_c, 0, 71, 107
2, 43968, Note_on_c, 0, 64, 0
2, 43992, Note_on_c, 0, 71, 0
2, 43992, Note_on_c, 0, 68, 0
2, 44040, Note_on_c, 0, 69, 107
2, 44136, Note_on_c, 0, 69, 0
2, 44160, Note_on_c, 0, 68, 107
2, 44256, Note_on_c, 0, 68, 0
2, 44280, Note_on_c, 0, 69, 107
2, 44376, Note_on_c, 0, 69, 0
2, 44400, Note_on_c, 0, 71, 107
2, 44496, Note_on_c, 0, 71, 0
2, 44520, Note_on_c, 0, 73, 107
2, 44616, Note_on_c, 0, 73, 0
2, 44640, Note_on_c, 0, 74, 107
2, 44664, Note_on_c, 0, 74, 0
2, 44670, Note_on_c, 0, 73, 107
2, 44694, Note_on_c, 0, 73, 0
2, 44700, Note_on_c, 0, 74, 107
2, 44985, Note_on_c, 0, 74, 0
2, 45000, Note_on_c, 0, 76, 107
2, 45096, Note_on_c, 0, 76, 0
2, 45120, Note_on_c, 0, 73, 107
2, 45144, Note_on_c, 0, 73, 0
2, 45150, Note_on_c, 0, 74, 107
2, 45174, Note_on_c, 0, 74, 0
2, 45180, Note_on_c, 0, 73, 107
2, 45465, Note_on_c, 0, 73, 0
2, 45480, Note_on_c, 0, 71, 107
2, 45576, Note_on_c, 0, 71, 0
2, 45600, Note_on_c, 0, 69, 107
2, 45696, Note_on_c, 0, 69, 0
2, 45720, Note_on_c, 0, 81, 107
2, 45816, Note_on_c, 0, 81, 0
2, 45840, Note_on_c, 0, 80, 107
2, 45936, Note_on_c, 0, 80, 0
2, 45960, Note_on_c, 0, 78, 107
2, 46056, Note_on_c, 0, 78, 0
2, 46080, Note_on_c, 0, 83, 107
2, 46176, Note_on_c, 0, 83, 0
2, 46200, Note_on_c, 0, 80, 107
2, 46296, Note_on_c, 0, 80, 0
2, 46320, Note_on_c, 0, 81, 107
2, 46416, Note_on_c, 0, 81, 0
2, 46440, Note_on_c, 0, 78, 107
2, 46536, Note_on_c, 0, 78, 0
2, 46560, Note_on_c, 0, 77, 107
2, 46680, Note_on_c, 0, 73, 107
2, 46800, Note_on_c, 0, 68, 107
2, 47136, Note_on_c, 0, 77, 0
2, 47184, Note_on_c, 0, 68, 0
2, 47280, Note_on_c, 0, 73, 0
2, 47280, Note_on_c, 0, 69, 107
2, 47310, Note_on_c, 0, 73, 107
2, 47340, Note_on_c, 0, 78, 107
2, 47453, Note_on_c, 0, 78, 0
2, 47453, Note_on_c, 0, 73, 0
2, 47472, Note_on_c, 0, 69, 0
2, 47520, Note_on_c, 0, 74, 107
2, 47544, Note_on_c, 0, 74, 0
2, 47550, Note_on_c, 0, 73, 107
2, 47574, Note_on_c, 0, 73, 0
2, 47580, Note_on_c, 0, 74, 107
2, 47865, Note_on_c, 0, 74, 0
2, 47880, Note_on_c, 0, 76, 107
2, 47976, Note_on_c, 0, 76, 0
2, 48000, Note_on_c, 0, 73, 107
2, 48120, Note_on_c, 0, 61, 107
2, 48216, Note_on_c, 0, 61, 0
2, 48240, Note_on_c, 0, 66, 107
2, 48288, Note_on_c, 0, 73, 0
2, 48360, Note_on_c, 0, 74, 107
2, 48432, Note_on_c, 0, 66, 0
2, 48456, Note_on_c, 0, 74, 0
2, 48480, Note_on_c, 0, 71, 107
2, 48480, Note_on_c, 0, 65, 107
2, 48504, Note_on_c, 0, 71, 0
2, 48510, Note_on_c, 0, 73, 107
2, 48534, Note_on_c, 0, 73, 0
2, 48540, Note_on_c, 0, 71, 107
2, 48672, Note_on_c, 0, 65, 0
2, 48720, Note_on_c, 0, 66, 107
2, 48825, Note_on_c, 0, 71, 0
2, 48840, Note_on_c, 0, 69, 107
2, 48912, Note_on_c, 0, 66, 0
2, 48936, Note_on_c, 0, 69, 0
2, 48960, Note_on_c, 0, 65, 107
2, 48960, Note_on_c, 0, 68, 107
2, 48984, Note_on_c, 0, 68, 0
2, 48990, Note_on_c, 0, 69, 107
2, 49014, Note_on_c, 0, 69, 0
2, 49020, Note_on_c, 0, 68, 107
2, 49305, Note_on_c, 0, 68, 0
2, 49320, Note_on_c, 0, 66, 107
2, 49344, Note_on_c, 0, 65, 0
2, 49416, Note_on_c, 0, 66, 0
2, 49440, Note_on_c, 0, 57, 107
2, 49470, Note_on_c, 0, 61, 107
2, 49500, Note_on_c, 0, 66, 107
2, 49824, Note_on_c, 0, 57, 0
2, 49848, Note_on_c, 0, 61, 0
2, 50016, Note_on_c, 0, 66, 0
2, 50040, Note_on_c, 0, 78, 107
2, 50136, Note_on_c, 0, 78, 0
2, 50160, Note_on_c, 0, 76, 107
2, 50256, Note_on_c, 0, 76, 0
2, 50280, Note_on_c, 0, 74, 107
2, 50376, Note_on_c, 0, 74, 0
2, 50400, Note_on_c, 0, 73, 107
2, 50424, Note_on_c, 0, 73, 0
2, 50430, Note_on_c, 0, 74, 107
2, 50454, Note_on_c, 0, 74, 0
2, 50460, Note_on_c, 0, 73, 107
2, 50745, Note_on_c, 0, 73, 0
2, 50760, Note_on_c, 0, 74, 107
2, 50856, Note_on_c, 0, 74, 0
2, 50880, Note_on_c, 0, 76, 107
2, 50976, Note_on_c, 0, 76, 0
2, 51000, Note_on_c, 0, 74, 107
2, 51096, Note_on_c, 0, 74, 0
2, 51120, Note_on_c, 0, 73, 107
2, 51216, Note_on_c, 0, 73, 0
2, 51240, Note_on_c, 0, 71, 107
2, 51336, Note_on_c, 0, 71, 0
2, 51360, Note_on_c, 0, 83, 107
2, 51389, Note_on_c, 0, 83, 0
2, 51390, Note_on_c, 0, 81, 107
2, 51414, Note_on_c, 0, 81, 0
2, 51420, Note_on_c, 0, 83, 107
2, 51705, Note_on_c, 0, 83, 0
2, 51720, Note_on_c, 0, 80, 107
2, 51816, Note_on_c, 0, 80, 0
2, 51840, Note_on_c, 0, 81, 107
2, 51864, Note_on_c, 0, 81, 0
2, 51870, Note_on_c, 0, 80, 107
2, 51894, Note_on_c, 0, 80, 0
2, 51900, Note_on_c, 0, 81, 107
2, 52185, Note_on_c, 0, 81, 0
2, 52200, Note_on_c, 0, 83, 107
2, 52296, Note_on_c, 0, 83, 0
2, 52320, Note_on_c, 0, 80, 107
2, 52344, Note_on_c, 0, 80, 0
2, 52350, Note_on_c, 0, 81, 107
2, 52374, Note_on_c, 0, 81, 0
2, 52380, Note_on_c, 0, 80, 107
2, 52440, Note_on_c, 0, 68, 107
2, 52665, Note_on_c, 0, 80, 0
2, 52680, Note_on_c, 0, 78, 107
2, 52728, Note_on_c, 0, 68, 0
2, 52776, Note_on_c, 0, 78, 0
2, 52800, Note_on_c, 0, 71, 107
2, 52800, Note_on_c, 0, 76, 107
2, 52896, Note_on_c, 0, 76, 0
2, 52920, Note_on_c, 0, 74, 107
2, 52992, Note_on_c, 0, 71, 0
2, 53016, Note_on_c, 0, 74, 0
2, 53040, Note_on_c, 0, 73, 107
2, 53136, Note_on_c, 0, 73, 0
2, 53160, Note_on_c, 0, 71, 107
2, 53256, Note_on_c, 0, 71, 0
2, 53280, Note_on_c, 0, 69, 107
2, 53376, Note_on_c, 0, 69, 0
2, 53400, Note_on_c, 0, 68, 107
2, 53496, Note_on_c, 0, 68, 0
2, 53520, Note_on_c, 0, 69, 107
2, 53616, Note_on_c, 0, 69, 0
2, 53640, Note_on_c, 0, 66, 107
2, 53736, Note_on_c, 0, 66, 0
2, 53760, Note_on_c, 0, 74, 107
2, 53784, Note_on_c, 0, 74, 0
2, 53790, Note_on_c, 0, 73, 107
2, 53814, Note_on_c, 0, 73, 0
2, 53820, Note_on_c, 0, 74, 107
2, 54105, Note_on_c, 0, 74, 0
2, 54120, Note_on_c, 0, 76, 107
2, 54216, Note_on_c, 0, 76, 0
2, 54240, Note_on_c, 0, 73, 107
2, 54264, Note_on_c, 0, 73, 0
2, 54270, Note_on_c, 0, 74, 107
2, 54294, Note_on_c, 0, 74, 0
2, 54300, Note_on_c, 0, 73, 107
2, 54360, Note_on_c, 0, 71, 107
2, 54456, Note_on_c, 0, 71, 0
2, 54480, Note_on_c, 0, 69, 107
2, 54585, Note_on_c, 0, 73, 0
2, 54600, Note_on_c, 0, 71, 107
2, 54672, Note_on_c, 0, 69, 0
2, 54696, Note_on_c, 0, 71, 0
2, 54720, Note_on_c, 0, 68, 107
2, 54720, Note_on_c, 0, 71, 107
2, 54744, Note_on_c, 0, 71, 0
2, 54750, Note_on_c, 0, 73, 107
2, 54774, Note_on_c, 0, 73, 0
2, 54780, Note_on_c, 0, 71, 107
2, 55065, Note_on_c, 0, 71, 0
2, 55080, Note_on_c, 0, 69, 107
2, 55104, Note_on_c, 0, 68, 0
2, 55176, Note_on_c, 0, 69, 0
2, 55200, Note_on_c, 0, 69, 107
2, 55560, Note_on_c, 0, 68, 107
2, 55656, Note_on_c, 0, 68, 0
2, 55680, Note_on_c, 0, 66, 107
2, 55776, Note_on_c, 0, 66, 0
2, 55800, Note_on_c, 0, 64, 107
2, 55896, Note_on_c, 0, 64, 0
2, 55920, Note_on_c, 0, 62, 107
2, 56016, Note_on_c, 0, 62, 0
2, 56040, Note_on_c, 0, 61, 107
2, 56136, Note_on_c, 0, 61, 0
2, 56280, Note_on_c, 0, 62, 107
2, 56304, Note_on_c, 0, 69, 0
2, 56400, Note_on_c, 0, 69, 107
2, 56496, Note_on_c, 0, 69, 0
2, 56520, Note_on_c, 0, 68, 107
2, 56616, Note_on_c, 0, 68, 0
2, 56640, Note_on_c, 0, 62, 0
2, 56640, Note_on_c, 0, 69, 107
2, 57000, Note_on_c, 0, 64, 107
2, 57096, Note_on_c, 0, 64, 0
2, 57120, Note_on_c, 0, 66, 107
2, 57216, Note_on_c, 0, 66, 0
2, 57216, Note_on_c, 0, 69, 0
2, 57240, Note_on_c, 0, 62, 107
2, 57336, Note_on_c, 0, 62, 0
2, 57360, Note_on_c, 0, 61, 107
2, 57390, Note_on_c, 0, 64, 107
2, 57420, Note_on_c, 0, 69, 107
2, 57708, Note_on_c, 0, 64, 0
2, 57744, Note_on_c, 0, 61, 0
2, 57768, Note_on_c, 0, 69, 0
2, 57768, End_track
3, 0, Start_track
3, 0, MIDI_port, 0
3, 0, Title_t, "J.S. Bach, Edition Wood"
3, 0, Program_c, 1, 0
3, 0, Control_c, 1, 7, 100
3, 0, Control_c, 1, 10, 64
3, 120, Note_on_c, 1, 57, 107
3, 120, Note_on_c, 1, 57, 107
3, 216, Note_on_c, 1, 57, 0
3, 240, Note_on_c, 1, 45, 107
3, 336, Note_on_c, 1, 45, 0
3, 360, Note_on_c, 1, 47, 107
3, 456, Note_on_c, 1, 47, 0
3, 480, Note_on_c, 1, 49, 107
3, 576, Note_on_c, 1, 49, 0
3, 600, Note_on_c, 1, 50, 107
3, 696, Note_on_c, 1, 57, 0
3, 792, Note_on_c, 1, 50, 0
3, 840, Note_on_c, 1, 52, 107
3, 870, Note_on_c, 1, 56, 107
3, 1032, Note_on_c, 1, 52, 0
3, 1038, Note_on_c, 1, 56, 0
3, 1080, Note_on_c, 1, 54, 107
3, 1110, Note_on_c, 1, 57, 107
3, 1272, Note_on_c, 1, 54, 0
3, 1278, Note_on_c, 1, 57, 0
3, 1320, Note_on_c, 1, 56, 107
3, 1365, Note_on_c, 1, 59, 107
3, 1512, Note_on_c, 1, 56, 0
3, 1533, Note_on_c, 1, 59, 0
3, 1560, Note_on_c, 1, 57, 107
3, 1680, Note_on_c, 1, 61, 107
3, 1800, Note_on_c, 1, 64, 107
3, 1848, Note_on_c, 1, 57, 0
3, 1920, Note_on_c, 1, 56, 107
3, 1968, Note_on_c, 1, 61, 0
3, 1992, Note_on_c, 1, 64, 0
3, 2016, Note_on_c, 1, 56, 0
3, 2040, Note_on_c, 1, 54, 107
3, 2136, Note_on_c, 1, 54, 0
3, 2160, Note_on_c, 1, 52, 107
3, 2256, Note_on_c, 1, 52, 0
3, 2280, Note_on_c, 1, 50, 107
3, 2376, Note_on_c, 1, 50, 0
3, 2400, Note_on_c, 1, 49, 107
3, 2496, Note_on_c, 1, 49, 0
3, 2520, Note_on_c, 1, 50, 107
3, 2640, Note_on_c, 1, 54, 107
3, 2712, Note_on_c, 1, 50, 0
3, 2760, Note_on_c, 1, 47, 107
3, 2832, Note_on_c, 1, 54, 0
3, 2952, Note_on_c, 1, 47, 0
3, 3000, Note_on_c, 1, 52, 107
3, 3120, Note_on_c, 1, 56, 107
3, 3240, Note_on_c, 1, 59, 107
3, 3384, Note_on_c, 1, 52, 0
3, 3480, Note_on_c, 1, 50, 107
3, 3672, Note_on_c, 1, 50, 0
3, 3672, Note_on_c, 1, 59, 0
3, 3672, Note_on_c, 1, 56, 0
3, 3720, Note_on_c, 1, 49, 107
3, 3720, Note_on_c, 1, 52, 107
3, 3720, Note_on_c, 1, 57, 107
3, 3912, Note_on_c, 1, 57, 0
3, 3912, Note_on_c, 1, 52, 0
3, 3912, Note_on_c, 1, 49, 0
3, 3960, Note_on_c, 1, 47, 107
3, 3960, Note_on_c, 1, 50, 107
3, 4080, Note_on_c, 1, 56, 107
3, 4152, Note_on_c, 1, 50, 0
3, 4152, Note_on_c, 1, 47, 0
3, 4176, Note_on_c, 1, 56, 0
3, 4200, Note_on_c, 1, 45, 107
3, 4200, Note_on_c, 1, 52, 107
3, 4320, Note_on_c, 1, 57, 107
3, 4392, Note_on_c, 1, 52, 0
3, 4392, Note_on_c, 1, 45, 0
3, 4416, Note_on_c, 1, 57, 0
3, 4440, Note_on_c, 1, 44, 107
3, 4560, Note_on_c, 1, 47, 107
3, 4656, Note_on_c, 1, 47, 0
3, 4680, Note_on_c, 1, 52, 107
3, 4728, Note_on_c, 1, 44, 0
3, 4800, Note_on_c, 1, 40, 107
3, 4896, Note_on_c, 1, 40, 0
3, 4920, Note_on_c, 1, 45, 107
3, 5064, Note_on_c, 1, 52, 0
3, 5112, Note_on_c, 1, 45, 0
3, 5160, Note_on_c, 1, 50, 107
3, 5160, Note_on_c, 1, 54, 107
3, 5352, Note_on_c, 1, 54, 0
3, 5352, Note_on_c, 1, 50, 0
3, 5400, Note_on_c, 1, 52, 107
3, 5400, Note_on_c, 1, 52, 107
3, 5592, Note_on_c, 1, 52, 0
3, 5640, Note_on_c, 1, 40, 107
3, 5784, Note_on_c, 1, 52, 0
3, 5832, Note_on_c, 1, 40, 0
3, 5880, Note_on_c, 1, 45, 107
3, 6000, Note_on_c, 1, 52, 107
3, 6096, Note_on_c, 1, 52, 0
3, 6120, Note_on_c, 1, 54, 107
3, 6216, Note_on_c, 1, 54, 0
3, 6240, Note_on_c, 1, 56, 107
3, 6264, Note_on_c, 1, 45, 0
3, 6336, Note_on_c, 1, 56, 0
3, 6360, Note_on_c, 1, 57, 107
3, 6552, Note_on_c, 1, 57, 0
3, 6600, Note_on_c, 1, 56, 107
3, 6696, Note_on_c, 1, 56, 0
3, 6720, Note_on_c, 1, 54, 107
3, 6816, Note_on_c, 1, 54, 0
3, 6840, Note_on_c, 1, 53, 107
3, 6960, Note_on_c, 1, 56, 107
3, 7032, Note_on_c, 1, 53, 0
3, 7080, Note_on_c, 1, 49, 107
3, 7272, Note_on_c, 1, 49, 0
3, 7320, Note_on_c, 1, 56, 0
3, 7320, Note_on_c, 1, 54, 107
3, 7608, Note_on_c, 1, 54, 0
3, 7680, Note_on_c, 1, 56, 107
3, 7776, Note_on_c, 1, 56, 0
3, 7800, Note_on_c, 1, 57, 107
3, 7896, Note_on_c, 1, 57, 0
3, 7920, Note_on_c, 1, 61, 107
3, 8016, Note_on_c, 1, 61, 0
3, 8040, Note_on_c, 1, 59, 107
3, 8136, Note_on_c, 1, 59, 0
3, 8160, Note_on_c, 1, 57, 107
3, 8256, Note_on_c, 1, 57, 0
3, 8280, Note_on_c, 1, 56, 107
3, 8310, Note_on_c, 1, 59, 107
3, 8472, Note_on_c, 1, 56, 0
3, 8478, Note_on_c, 1, 59, 0
3, 8520, Note_on_c, 1, 58, 107
3, 8550, Note_on_c, 1, 61, 107
3, 8712, Note_on_c, 1, 58, 0
3, 8718, Note_on_c, 1, 61, 0
3, 8760, Note_on_c, 1, 59, 107
3, 8880, Note_on_c, 1, 63, 107
3, 9144, Note_on_c, 1, 59, 0
3, 9240, Note_on_c, 1, 57, 107
3, 9432, Note_on_c, 1, 57, 0
3, 9432, Note_on_c, 1, 63, 0
3, 9480, Note_on_c, 1, 56, 107
3, 9480, Note_on_c, 1, 59, 107
3, 9672, Note_on_c, 1, 59, 0
3, 9672, Note_on_c, 1, 56, 0
3, 9720, Note_on_c, 1, 54, 107
3, 9720, Note_on_c, 1, 57, 107
3, 9912, Note_on_c, 1, 57, 0
3, 9912, Note_on_c, 1, 54, 0
3, 9960, Note_on_c, 1, 52, 107
3, 9960, Note_on_c, 1, 59, 107
3, 10152, Note_on_c, 1, 59, 0
3, 10152, Note_on_c, 1, 52, 0
3, 10200, Note_on_c, 1, 51, 107
3, 10320, Note_on_c, 1, 54, 107
3, 10416, Note_on_c, 1, 54, 0
3, 10440, Note_on_c, 1, 59, 107
3, 10488, Note_on_c, 1, 51, 0
3, 10560, Note_on_c, 1, 47, 107
3, 10656, Note_on_c, 1, 47, 0
3, 10680, Note_on_c, 1, 52, 107
3, 10824, Note_on_c, 1, 59, 0
3, 10872, Note_on_c, 1, 52, 0
3, 10920, Note_on_c, 1, 61, 107
3, 10920, Note_on_c, 1, 57, 107
3, 11112, Note_on_c, 1, 57, 0
3, 11112, Note_on_c, 1, 61, 0
3, 11160, Note_on_c, 1, 59, 107
3, 11160, Note_on_c, 1, 59, 107
3, 11352, Note_on_c, 1, 59, 0
3, 11400, Note_on_c, 1, 56, 107
3, 11544, Note_on_c, 1, 59, 0
3, 11592, Note_on_c, 1, 56, 0
3, 11640, Note_on_c, 1, 61, 107
3, 11736, Note_on_c, 1, 61, 0
3, 11760, Note_on_c, 1, 63, 107
3, 11856, Note_on_c, 1, 63, 0
3, 11880, Note_on_c, 1, 61, 107
3, 11976, Note_on_c, 1, 61, 0
3, 12000, Note_on_c, 1, 59, 107
3, 12096, Note_on_c, 1, 59, 0
3, 12120, Note_on_c, 1, 57, 107
3, 12216, Note_on_c, 1, 57, 0
3, 12240, Note_on_c, 1, 56, 107
3, 12336, Note_on_c, 1, 56, 0
3, 12360, Note_on_c, 1, 54, 107
3, 12456, Note_on_c, 1, 54, 0
3, 12480, Note_on_c, 1, 52, 107
3, 12576, Note_on_c, 1, 52, 0
3, 12600, Note_on_c, 1, 59, 107
3, 12792, Note_on_c, 1, 59, 0
3, 12840, Note_on_c, 1, 47, 107
3, 13032, Note_on_c, 1, 47, 0
3, 13080, Note_on_c, 1, 52, 107
3, 13320, Note_on_c, 1, 40, 107
3, 13464, Note_on_c, 1, 52, 0
3, 13560, Note_on_c, 1, 47, 107
3, 13752, Note_on_c, 1, 47, 0
3, 13800, Note_on_c, 1, 52, 107
3, 14184, Note_on_c, 1, 52, 0
3, 14184, Note_on_c, 1, 40, 0
3, 14640, Note_on_c, 1, 57, 107
3, 14640, Note_on_c, 1, 57, 107
3, 14736, Note_on_c, 1, 57, 0
3, 14760, Note_on_c, 1, 45, 107
3, 14856, Note_on_c, 1, 45, 0
3, 14880, Note_on_c, 1, 47, 107
3, 14976, Note_on_c, 1, 47, 0
3, 15000, Note_on_c, 1, 49, 107
3, 15096, Note_on_c, 1, 49, 0
3, 15120, Note_on_c, 1, 50, 107
3, 15216, Note_on_c, 1, 57, 0
3, 15312, Note_on_c, 1, 50, 0
3, 15360, Note_on_c, 1, 52, 107
3, 15390, Note_on_c, 1, 56, 107
3, 15552, Note_on_c, 1, 52, 0
3, 15558, Note_on_c, 1, 56, 0
3, 15600, Note_on_c, 1, 54, 107
3, 15630, Note_on_c, 1, 57, 107
3, 15792, Note_on_c, 1, 54, 0
3, 15798, Note_on_c, 1, 57, 0
3, 15840, Note_on_c, 1, 56, 107
3, 15885, Note_on_c, 1, 59, 107
3, 16032, Note_on_c, 1, 56, 0
3, 16053, Note_on_c, 1, 59, 0
3, 16080, Note_on_c, 1, 57, 107
3, 16200, Note_on_c, 1, 61, 107
3, 16320, Note_on_c, 1, 64, 107
3, 16368, Note_on_c, 1, 57, 0
3, 16440, Note_on_c, 1, 56, 107
3, 16488, Note_on_c, 1, 61, 0
3, 16512, Note_on_c, 1, 64, 0
3, 16536, Note_on_c, 1, 56, 0
3, 16560, Note_on_c, 1, 54, 107
3, 16656, Note_on_c, 1, 54, 0
3, 16680, Note_on_c, 1, 52, 107
3, 16776, Note_on_c, 1, 52, 0
3, 16800, Note_on_c, 1, 50, 107
3, 16896, Note_on_c, 1, 50, 0
3, 16920, Note_on_c, 1, 49, 107
3, 17016, Note_on_c, 1, 49, 0
3, 17040, Note_on_c, 1, 50, 107
3, 17160, Note_on_c, 1, 54, 107
3, 17232, Note_on_c, 1, 50, 0
3, 17280, Note_on_c, 1, 47, 107
3, 17352, Note_on_c, 1, 54, 0
3, 17472, Note_on_c, 1, 47, 0
3, 17520, Note_on_c, 1, 52, 107
3, 17640, Note_on_c, 1, 56, 107
3, 17760, Note_on_c, 1, 59, 107
3, 17904, Note_on_c, 1, 52, 0
3, 18000, Note_on_c, 1, 50, 107
3, 18192, Note_on_c, 1, 50, 0
3, 18192, Note_on_c, 1, 59, 0
3, 18192, Note_on_c, 1, 56, 0
3, 18240, Note_on_c, 1, 49, 107
3, 18240, Note_on_c, 1, 52, 107
3, 18240, Note_on_c, 1, 57, 107
3, 18432, Note_on_c, 1, 57, 0
3, 18432, Note_on_c, 1, 52, 0
3, 18432, Note_on_c, 1, 49, 0
3, 18480, Note_on_c, 1, 47, 107
3, 18480, Note_on_c, 1, 50, 107
3, 18600, Note_on_c, 1, 56, 107
3, 18672, Note_on_c, 1, 50, 0
3, 18672, Note_on_c, 1, 47, 0
3, 18696, Note_on_c, 1, 56, 0
3, 18720, Note_on_c, 1, 45, 107
3, 18720, Note_on_c, 1, 52, 107
3, 18840, Note_on_c, 1, 57, 107
3, 18912, Note_on_c, 1, 52, 0
3, 18912, Note_on_c, 1, 45, 0
3, 18936, Note_on_c, 1, 57, 0
3, 18960, Note_on_c, 1, 44, 107
3, 19080, Note_on_c, 1, 47, 107
3, 19176, Note_on_c, 1, 47, 0
3, 19200, Note_on_c, 1, 52, 107
3, 19248, Note_on_c, 1, 44, 0
3, 19320, Note_on_c, 1, 40, 107
3, 19416, Note_on_c, 1, 40, 0
3, 19440, Note_on_c, 1, 45, 107
3, 19584, Note_on_c, 1, 52, 0
3, 19632, Note_on_c, 1, 45, 0
3, 19680, Note_on_c, 1, 50, 107
3, 19680, Note_on_c, 1, 54, 107
3, 19872, Note_on_c, 1, 54, 0
3, 19872, Note_on_c, 1, 50, 0
3, 19920, Note_on_c, 1, 52, 107
3, 19920, Note_on_c, 1, 52, 107
3, 20112, Note_on_c, 1, 52, 0
3, 20160, Note_on_c, 1, 40, 107
3, 20304, Note_on_c, 1, 52, 0
3, 20352, Note_on_c, 1, 40, 0
3, 20400, Note_on_c, 1, 45, 107
3, 20520, Note_on_c, 1, 52, 107
3, 20616, Note_on_c, 1, 52, 0
3, 20640, Note_on_c, 1, 54, 107
3, 20736, Note_on_c, 1, 54, 0
3, 20760, Note_on_c, 1, 56, 107
3, 20784, Note_on_c, 1, 45, 0
3, 20856, Note_on_c, 1, 56, 0
3, 20880, Note_on_c, 1, 57, 107
3, 21072, Note_on_c, 1, 57, 0
3, 21120, Note_on_c, 1, 56, 107
3, 21216, Note_on_c, 1, 56, 0
3, 21240, Note_on_c, 1, 54, 107
3, 21336, Note_on_c, 1, 54, 0
3, 21360, Note_on_c, 1, 53, 107
3, 21480, Note_on_c, 1, 56, 107
3, 21552, Note_on_c, 1, 53, 0
3, 21600, Note_on_c, 1, 49, 107
3, 21792, Note_on_c, 1, 49, 0
3, 21840, Note_on_c, 1, 56, 0
3, 21840, Note_on_c, 1, 54, 107
3, 22128, Note_on_c, 1, 54, 0
3, 22200, Note_on_c, 1, 56, 107
3, 22296, Note_on_c, 1, 56, 0
3, 22320, Note_on_c, 1, 57, 107
3, 22416, Note_on_c, 1, 57, 0
3, 22440, Note_on_c, 1, 61, 107
3, 22536, Note_on_c, 1, 61, 0
3, 22560, Note_on_c, 1, 59, 107
3, 22656, Note_on_c, 1, 59, 0
3, 22680, Note_on_c, 1, 57, 107
3, 22776, Note_on_c, 1, 57, 0
3, 22800, Note_on_c, 1, 56, 107
3, 22830, Note_on_c, 1, 59, 107
3, 22992, Note_on_c, 1, 56, 0
3, 22998, Note_on_c, 1, 59, 0
3, 23040, Note_on_c, 1, 58, 107
3, 23070, Note_on_c, 1, 61, 107
3, 23232, Note_on_c, 1, 58, 0
3, 23238, Note_on_c, 1, 61, 0
3, 23280, Note_on_c, 1, 59, 107
3, 23400, Note_on_c, 1, 63, 107
3, 23664, Note_on_c, 1, 59, 0
3, 23760, Note_on_c, 1, 57, 107
3, 23952, Note_on_c, 1, 57, 0
3, 23952, Note_on_c, 1, 63, 0
3, 24000, Note_on_c, 1, 56, 107
3, 24000, Note_on_c, 1, 59, 107
3, 24192, Note_on_c, 1, 59, 0
3, 24192, Note_on_c, 1, 56, 0
3, 24240, Note_on_c, 1, 54, 107
3, 24240, Note_on_c, 1, 57, 107
3, 24432, Note_on_c, 1, 57, 0
3, 24432, Note_on_c, 1, 54, 0
3, 24480, Note_on_c, 1, 52, 107
3, 24480, Note_on_c, 1, 59, 107
3, 24672, Note_on_c, 1, 59, 0
3, 24672, Note_on_c, 1, 52, 0
3, 24720, Note_on_c, 1, 51, 107
3, 24840, Note_on_c, 1, 54, 107
3, 24936, Note_on_c, 1, 54, 0
3, 24960, Note_on_c, 1, 59, 107
3, 25008, Note_on_c, 1, 51, 0
3, 25080, Note_on_c, 1, 47, 107
3, 25176, Note_on_c, 1, 47, 0
3, 25200, Note_on_c, 1, 52, 107
3, 25344, Note_on_c, 1, 59, 0
3, 25392, Note_on_c, 1, 52, 0
3, 25440, Note_on_c, 1, 61, 107
3, 25440, Note_on_c, 1, 57, 107
3, 25632, Note_on_c, 1, 57, 0
3, 25632, Note_on_c, 1, 61, 0
3, 25680, Note_on_c, 1, 59, 107
3, 25680, Note_on_c, 1, 59, 107
3, 25872, Note_on_c, 1, 59, 0
3, 25920, Note_on_c, 1, 56, 107
3, 26064, Note_on_c, 1, 59, 0
3, 26112, Note_on_c, 1, 56, 0
3, 26160, Note_on_c, 1, 61, 107
3, 26256, Note_on_c, 1, 61, 0
3, 26280, Note_on_c, 1, 63, 107
3, 26376, Note_on_c, 1, 63, 0
3, 26400, Note_on_c, 1, 61, 107
3, 26496, Note_on_c, 1, 61, 0
3, 26520, Note_on_c, 1, 59, 107
3, 26616, Note_on_c, 1, 59, 0
3, 26640, Note_on_c, 1, 57, 107
3, 26736, Note_on_c, 1, 57, 0
3, 26760, Note_on_c, 1, 56, 107
3, 26856, Note_on_c, 1, 56, 0
3, 26880, Note_on_c, 1, 54, 107
3, 26976, Note_on_c, 1, 54, 0
3, 27000, Note_on_c, 1, 52, 107
3, 27096, Note_on_c, 1, 52, 0
3, 27120, Note_on_c, 1, 59, 107
3, 27312, Note_on_c, 1, 59, 0
3, 27360, Note_on_c, 1, 47, 107
3, 27552, Note_on_c, 1, 47, 0
3, 27600, Note_on_c, 1, 52, 107
3, 27840, Note_on_c, 1, 40, 107
3, 27984, Note_on_c, 1, 52, 0
3, 28080, Note_on_c, 1, 47, 107
3, 28272, Note_on_c, 1, 47, 0
3, 28320, Note_on_c, 1, 52, 107
3, 28704, Note_on_c, 1, 52, 0
3, 28704, Note_on_c, 1, 40, 0
3, 29160, Note_on_c, 1, 40, 107
3, 29160, Note_on_c, 1, 40, 107
3, 29256, Note_on_c, 1, 40, 0
3, 29280, Note_on_c, 1, 47, 107
3, 29376, Note_on_c, 1, 47, 0
3, 29400, Note_on_c, 1, 49, 107
3, 29496, Note_on_c, 1, 49, 0
3, 29520, Note_on_c, 1, 51, 107
3, 29544, Note_on_c, 1, 40, 0
3, 29616, Note_on_c, 1, 51, 0
3, 29640, Note_on_c, 1, 52, 107
3, 29640, Note_on_c, 1, 52, 107
3, 29736, Note_on_c, 1, 52, 0
3, 29760, Note_on_c, 1, 54, 107
3, 29856, Note_on_c, 1, 54, 0
3, 29880, Note_on_c, 1, 56, 107
3, 30024, Note_on_c, 1, 52, 0
3, 30072, Note_on_c, 1, 56, 0
3, 30120, Note_on_c, 1, 54, 107
3, 30150, Note_on_c, 1, 57, 107
3, 30312, Note_on_c, 1, 54, 0
3, 30318, Note_on_c, 1, 57, 0
3, 30360, Note_on_c, 1, 56, 107
3, 30390, Note_on_c, 1, 59, 107
3, 30552, Note_on_c, 1, 56, 0
3, 30558, Note_on_c, 1, 59, 0
3, 30600, Note_on_c, 1, 57, 107
3, 30720, Note_on_c, 1, 61, 107
3, 30816, Note_on_c, 1, 61, 0
3, 30840, Note_on_c, 1, 64, 107
3, 30888, Note_on_c, 1, 57, 0
3, 30960, Note_on_c, 1, 59, 107
3, 31056, Note_on_c, 1, 59, 0
3, 31080, Note_on_c, 1, 61, 107
3, 31224, Note_on_c, 1, 64, 0
3, 31272, Note_on_c, 1, 61, 0
3, 31320, Note_on_c, 1, 61, 107
3, 31320, Note_on_c, 1, 57, 107
3, 31512, Note_on_c, 1, 57, 0
3, 31512, Note_on_c, 1, 61, 0
3, 31560, Note_on_c, 1, 66, 107
3, 31560, Note_on_c, 1, 62, 107
3, 31752, Note_on_c, 1, 62, 0
3, 31752, Note_on_c, 1, 66, 0
3, 31800, Note_on_c, 1, 62, 107
3, 31800, Note_on_c, 1, 59, 107
3, 31992, Note_on_c, 1, 59, 0
3, 31992, Note_on_c, 1, 62, 0
3, 32040, Note_on_c, 1, 61, 107
3, 32328, Note_on_c, 1, 61, 0
3, 32400, Note_on_c, 1, 59, 107
3, 32496, Note_on_c, 1, 59, 0
3, 32520, Note_on_c, 1, 57, 107
3, 32616, Note_on_c, 1, 57, 0
3, 32640, Note_on_c, 1, 56, 107
3, 32736, Note_on_c, 1, 56, 0
3, 32760, Note_on_c, 1, 54, 107
3, 32856, Note_on_c, 1, 54, 0
3, 32880, Note_on_c, 1, 53, 107
3, 32976, Note_on_c, 1, 53, 0
3, 33000, Note_on_c, 1, 54, 107
3, 33030, Note_on_c, 1, 57, 107
3, 33192, Note_on_c, 1, 54, 0
3, 33198, Note_on_c, 1, 57, 0
3, 33240, Note_on_c, 1, 56, 107
3, 33270, Note_on_c, 1, 59, 107
3, 33432, Note_on_c, 1, 56, 0
3, 33438, Note_on_c, 1, 59, 0
3, 33480, Note_on_c, 1, 57, 107
3, 33768, Note_on_c, 1, 57, 0
3, 33840, Note_on_c, 1, 59, 107
3, 33936, Note_on_c, 1, 59, 0
3, 33960, Note_on_c, 1, 56, 107
3, 34152, Note_on_c, 1, 56, 0
3, 34200, Note_on_c, 1, 54, 107
3, 34392, Note_on_c, 1, 54, 0
3, 34440, Note_on_c, 1, 61, 107
3, 34632, Note_on_c, 1, 61, 0
3, 34680, Note_on_c, 1, 49, 107
3, 34872, Note_on_c, 1, 49, 0
3, 34920, Note_on_c, 1, 42, 107
3, 35040, Note_on_c, 1, 49, 107
3, 35136, Note_on_c, 1, 49, 0
3, 35160, Note_on_c, 1, 50, 107
3, 35256, Note_on_c, 1, 50, 0
3, 35280, Note_on_c, 1, 52, 107
3, 35304, Note_on_c, 1, 42, 0
3, 35376, Note_on_c, 1, 52, 0
3, 35400, Note_on_c, 1, 54, 107
3, 35520, Note_on_c, 1, 57, 107
3, 35592, Note_on_c, 1, 54, 0
3, 35616, Note_on_c, 1, 57, 0
3, 35640, Note_on_c, 1, 56, 107
3, 35760, Note_on_c, 1, 59, 107
3, 35832, Note_on_c, 1, 56, 0
3, 35856, Note_on_c, 1, 59, 0
3, 35880, Note_on_c, 1, 58, 107
3, 36000, Note_on_c, 1, 61, 107
3, 36072, Note_on_c, 1, 58, 0
3, 36120, Note_on_c, 1, 54, 107
3, 36288, Note_on_c, 1, 61, 0
3, 36312, Note_on_c, 1, 54, 0
3, 36360, Note_on_c, 1, 59, 107
3, 36648, Note_on_c, 1, 59, 0
3, 36720, Note_on_c, 1, 61, 107
3, 36816, Note_on_c, 1, 61, 0
3, 36840, Note_on_c, 1, 62, 107
3, 36936, Note_on_c, 1, 62, 0
3, 36960, Note_on_c, 1, 66, 107
3, 37056, Note_on_c, 1, 66, 0
3, 37080, Note_on_c, 1, 64, 107
3, 37176, Note_on_c, 1, 64, 0
3, 37200, Note_on_c, 1, 62, 107
3, 37296, Note_on_c, 1, 62, 0
3, 37320, Note_on_c, 1, 61, 107
3, 37350, Note_on_c, 1, 64, 107
3, 37512, Note_on_c, 1, 61, 0
3, 37518, Note_on_c, 1, 64, 0
3, 37560, Note_on_c, 1, 63, 107
3, 37590, Note_on_c, 1, 66, 107
3, 37752, Note_on_c, 1, 63, 0
3, 37758, Note_on_c, 1, 66, 0
3, 37800, Note_on_c, 1, 64, 107
3, 38088, Note_on_c, 1, 64, 0
3, 38160, Note_on_c, 1, 62, 107
3, 38256, Note_on_c, 1, 62, 0
3, 38280, Note_on_c, 1, 61, 107
3, 38376, Note_on_c, 1, 61, 0
3, 38400, Note_on_c, 1, 59, 107
3, 38496, Note_on_c, 1, 59, 0
3, 38520, Note_on_c, 1, 57, 107
3, 38616, Note_on_c, 1, 57, 0
3, 38640, Note_on_c, 1, 56, 107
3, 38736, Note_on_c, 1, 56, 0
3, 38760, Note_on_c, 1, 54, 107
3, 38856, Note_on_c, 1, 54, 0
3, 38880, Note_on_c, 1, 52, 107
3, 38976, Note_on_c, 1, 52, 0
3, 39000, Note_on_c, 1, 50, 107
3, 39096, Note_on_c, 1, 50, 0
3, 39120, Note_on_c, 1, 49, 107
3, 39216, Note_on_c, 1, 49, 0
3, 39240, Note_on_c, 1, 47, 107
3, 39336, Note_on_c, 1, 47, 0
3, 39360, Note_on_c, 1, 45, 107
3, 39456, Note_on_c, 1, 45, 0
3, 39480, Note_on_c, 1, 47, 107
3, 39576, Note_on_c, 1, 47, 0
3, 39600, Note_on_c, 1, 44, 107
3, 39696, Note_on_c, 1, 44, 0
3, 39720, Note_on_c, 1, 45, 107
3, 39912, Note_on_c, 1, 45, 0
3, 39960, Note_on_c, 1, 50, 107
3, 40152, Note_on_c, 1, 50, 0
3, 40200, Note_on_c, 1, 52, 107
3, 40200, Note_on_c, 1, 52, 107
3, 40392, Note_on_c, 1, 52, 0
3, 40440, Note_on_c, 1, 49, 107
3, 40584, Note_on_c, 1, 52, 0
3, 40632, Note_on_c, 1, 49, 0
3, 40680, Note_on_c, 1, 54, 107
3, 40776, Note_on_c, 1, 54, 0
3, 40800, Note_on_c, 1, 56, 107
3, 40896, Note_on_c, 1, 56, 0
3, 40920, Note_on_c, 1, 54, 107
3, 41016, Note_on_c, 1, 54, 0
3, 41040, Note_on_c, 1, 52, 107
3, 41136, Note_on_c, 1, 52, 0
3, 41160, Note_on_c, 1, 50, 107
3, 41256, Note_on_c, 1, 50, 0
3, 41280, Note_on_c, 1, 49, 107
3, 41376, Note_on_c, 1, 49, 0
3, 41400, Note_on_c, 1, 47, 107
3, 41496, Note_on_c, 1, 47, 0
3, 41520, Note_on_c, 1, 45, 107
3, 41616, Note_on_c, 1, 45, 0
3, 41640, Note_on_c, 1, 52, 107
3, 41640, Note_on_c, 1, 52, 107
3, 41640, Note_on_c, 1, 59, 107
3, 41832, Note_on_c, 1, 52, 0
3, 41880, Note_on_c, 1, 40, 107
3, 42024, Note_on_c, 1, 59, 0
3, 42024, Note_on_c, 1, 52, 0
3, 42072, Note_on_c, 1, 40, 0
3, 42120, Note_on_c, 1, 45, 107
3, 42360, Note_on_c, 1, 33, 107
3, 42504, Note_on_c, 1, 45, 0
3, 42600, Note_on_c, 1, 40, 107
3, 42792, Note_on_c, 1, 40, 0
3, 42840, Note_on_c, 1, 45, 107
3, 43224, Note_on_c, 1, 45, 0
3, 43224, Note_on_c, 1, 33, 0
3, 43680, Note_on_c, 1, 40, 107
3, 43680, Note_on_c, 1, 40, 107
3, 43776, Note_on_c, 1, 40, 0
3, 43800, Note_on_c, 1, 47, 107
3, 43896, Note_on_c, 1, 47, 0
3, 43920, Note_on_c, 1, 49, 107
3, 44016, Note_on_c, 1, 49, 0
3, 44040, Note_on_c, 1, 51, 107
3, 44064, Note_on_c, 1, 40, 0
3, 44136, Note_on_c, 1, 51, 0
3, 44160, Note_on_c, 1, 52, 107
3, 44160, Note_on_c, 1, 52, 107
3, 44256, Note_on_c, 1, 52, 0
3, 44280, Note_on_c, 1, 54, 107
3, 44376, Note_on_c, 1, 54, 0
3, 44400, Note_on_c, 1, 56, 107
3, 44544, Note_on_c, 1, 52, 0
3, 44592, Note_on_c, 1, 56, 0
3, 44640, Note_on_c, 1, 54, 107
3, 44670, Note_on_c, 1, 57, 107
3, 44832, Note_on_c, 1, 54, 0
3, 44838, Note_on_c, 1, 57, 0
3, 44880, Note_on_c, 1, 56, 107
3, 44910, Note_on_c, 1, 59, 107
3, 45072, Note_on_c, 1, 56, 0
3, 45078, Note_on_c, 1, 59, 0
3, 45120, Note_on_c, 1, 57, 107
3, 45240, Note_on_c, 1, 61, 107
3, 45336, Note_on_c, 1, 61, 0
3, 45360, Note_on_c, 1, 64, 107
3, 45408, Note_on_c, 1, 57, 0
3, 45480, Note_on_c, 1, 59, 107
3, 45576, Note_on_c, 1, 59, 0
3, 45600, Note_on_c, 1, 61, 107
3, 45744, Note_on_c, 1, 64, 0
3, 45792, Note_on_c, 1, 61, 0
3, 45840, Note_on_c, 1, 61, 107
3, 45840, Note_on_c, 1, 57, 107
3, 46032, Note_on_c, 1, 57, 0
3, 46032, Note_on_c, 1, 61, 0
3, 46080, Note_on_c, 1, 66, 107
3, 46080, Note_on_c, 1, 62, 107
3, 46272, Note_on_c, 1, 62, 0
3, 46272, Note_on_c, 1, 66, 0
3, 46320, Note_on_c, 1, 62, 107
3, 46320, Note_on_c, 1, 59, 107
3, 46512, Note_on_c, 1, 59, 0
3, 46512, Note_on_c, 1, 62, 0
3, 46560, Note_on_c, 1, 61, 107
3, 46848, Note_on_c, 1, 61, 0
3, 46920, Note_on_c, 1, 59, 107
3, 47016, Note_on_c, 1, 59, 0
3, 47040, Note_on_c, 1, 57, 107
3, 47136, Note_on_c, 1, 57, 0
3, 47160, Note_on_c, 1, 56, 107
3, 47256, Note_on_c, 1, 56, 0
3, 47280, Note_on_c, 1, 54, 107
3, 47376, Note_on_c, 1, 54, 0
3, 47400, Note_on_c, 1, 53, 107
3, 47496, Note_on_c, 1, 53, 0
3, 47520, Note_on_c, 1, 54, 107
3, 47550, Note_on_c, 1, 57, 107
3, 47712, Note_on_c, 1, 54, 0
3, 47718, Note_on_c, 1, 57, 0
3, 47760, Note_on_c, 1, 56, 107
3, 47790, Note_on_c, 1, 59, 107
3, 47952, Note_on_c, 1, 56, 0
3, 47958, Note_on_c, 1, 59, 0
3, 48000, Note_on_c, 1, 57, 107
3, 48288, Note_on_c, 1, 57, 0
3, 48360, Note_on_c, 1, 59, 107
3, 48456, Note_on_c, 1, 59, 0
3, 48480, Note_on_c, 1, 56, 107
3, 48672, Note_on_c, 1, 56, 0
3, 48720, Note_on_c, 1, 54, 107
3, 48912, Note_on_c, 1, 54, 0
3, 48960, Note_on_c, 1, 61, 107
3, 49152, Note_on_c, 1, 61, 0
3, 49200, Note_on_c, 1, 49, 107
3, 49392, Note_on_c, 1, 49, 0
3, 49440, Note_on_c, 1, 42, 107
3, 49560, Note_on_c, 1, 49, 107
3, 49656, Note_on_c, 1, 49, 0
3, 49680, Note_on_c, 1, 50, 107
3, 49776, Note_on_c, 1, 50, 0
3, 49800, Note_on_c, 1, 52, 107
3, 49824, Note_on_c, 1, 42, 0
3, 49896, Note_on_c, 1, 52, 0
3, 49920, Note_on_c, 1, 54, 107
3, 50040, Note_on_c, 1, 57, 107
3, 50112, Note_on_c, 1, 54, 0
3, 50136, Note_on_c, 1, 57, 0
3, 50160, Note_on_c, 1, 56, 107
3, 50280, Note_on_c, 1, 59, 107
3, 50352, Note_on_c, 1, 56, 0
3, 50376, Note_on_c, 1, 59, 0
3, 50400, Note_on_c, 1, 58, 107
3, 50520, Note_on_c, 1, 61, 107
3, 50592, Note_on_c, 1, 58, 0
3, 50640, Note_on_c, 1, 54, 107
3, 50808, Note_on_c, 1, 61, 0
3, 50832, Note_on_c, 1, 54, 0
3, 50880, Note_on_c, 1, 59, 107
3, 51168, Note_on_c, 1, 59, 0
3, 51240, Note_on_c, 1, 61, 107
3, 51336, Note_on_c, 1, 61, 0
3, 51360, Note_on_c, 1, 62, 107
3, 51456, Note_on_c, 1, 62, 0
3, 51480, Note_on_c, 1, 66, 107
3, 51576, Note_on_c, 1, 66, 0
3, 51600, Note_on_c, 1, 64, 107
3, 51696, Note_on_c, 1, 64, 0
3, 51720, Note_on_c, 1, 62, 107
3, 51816, Note_on_c, 1, 62, 0
3, 51840, Note_on_c, 1, 61, 107
3, 51870, Note_on_c, 1, 64, 107
3, 52032, Note_on_c, 1, 61, 0
3, 52038, Note_on_c, 1, 64, 0
3, 52080, Note_on_c, 1, 63, 107
3, 52110, Note_on_c, 1, 66, 107
3, 52272, Note_on_c, 1, 63, 0
3, 52278, Note_on_c, 1, 66, 0
3, 52320, Note_on_c, 1, 64, 107
3, 52608, Note_on_c, 1, 64, 0
3, 52680, Note_on_c, 1, 62, 107
3, 52776, Note_on_c, 1, 62, 0
3, 52800, Note_on_c, 1, 61, 107
3, 52896, Note_on_c, 1, 61, 0
3, 52920, Note_on_c, 1, 59, 107
3, 53016, Note_on_c, 1, 59, 0
3, 53040, Note_on_c, 1, 57, 107
3, 53136, Note_on_c, 1, 57, 0
3, 53160, Note_on_c, 1, 56, 107
3, 53256, Note_on_c, 1, 56, 0
3, 53280, Note_on_c, 1, 54, 107
3, 53376, Note_on_c, 1, 54, 0
3, 53400, Note_on_c, 1, 52, 107
3, 53496, Note_on_c, 1, 52, 0
3, 53520, Note_on_c, 1, 50, 107
3, 53616, Note_on_c, 1, 50, 0
3, 53640, Note_on_c, 1, 49, 107
3, 53736, Note_on_c, 1, 49, 0
3, 53760, Note_on_c, 1, 47, 107
3, 53856, Note_on_c, 1, 47, 0
3, 53880, Note_on_c, 1, 45, 107
3, 53976, Note_on_c, 1, 45, 0
3, 54000, Note_on_c, 1, 47, 107
3, 54096, Note_on_c, 1, 47, 0
3, 54120, Note_on_c, 1, 44, 107
3, 54216, Note_on_c, 1, 44, 0
3, 54240, Note_on_c, 1, 45, 107
3, 54432, Note_on_c, 1, 45, 0
3, 54480, Note_on_c, 1, 50, 107
3, 54672, Note_on_c, 1, 50, 0
3, 54720, Note_on_c, 1, 52, 107
3, 54720, Note_on_c, 1, 52, 107
3, 54912, Note_on_c, 1, 52, 0
3, 54960, Note_on_c, 1, 49, 107
3, 55104, Note_on_c, 1, 52, 0
3, 55152, Note_on_c, 1, 49, 0
3, 55200, Note_on_c, 1, 54, 107
3, 55296, Note_on_c, 1, 54, 0
3, 55320, Note_on_c, 1, 56, 107
3, 55416, Note_on_c, 1, 56, 0
3, 55440, Note_on_c, 1, 54, 107
3, 55536, Note_on_c, 1, 54, 0
3, 55560, Note_on_c, 1, 52, 107
3, 55656, Note_on_c, 1, 52, 0
3, 55680, Note_on_c, 1, 50, 107
3, 55776, Note_on_c, 1, 50, 0
3, 55800, Note_on_c, 1, 49, 107
3, 55896, Note_on_c, 1, 49, 0
3, 55920, Note_on_c, 1, 47, 107
3, 56016, Note_on_c, 1, 47, 0
3, 56040, Note_on_c, 1, 45, 107
3, 56136, Note_on_c, 1, 45, 0
3, 56160, Note_on_c, 1, 52, 107
3, 56160, Note_on_c, 1, 52, 107
3, 56160, Note_on_c, 1, 59, 107
3, 56352, Note_on_c, 1, 52, 0
3, 56400, Note_on_c, 1, 40, 107
3, 56544, Note_on_c, 1, 59, 0
3, 56544, Note_on_c, 1, 52, 0
3, 56592, Note_on_c, 1, 40, 0
3, 56640, Note_on_c, 1, 45, 107
3, 56880, Note_on_c, 1, 33, 107
3, 57024, Note_on_c, 1, 45, 0
3, 57120, Note_on_c, 1, 40, 107
3, 57312, Note_on_c, 1, 40, 0
3, 57360, Note_on_c, 1, 45, 107
3, 57744, Note_on_c, 1, 45, 0
3, 57744, Note_on_c, 1, 33, 0
3, 57744, End_track
4, 0, Start_track
4, 0, MIDI_port, 0
4, 0, Title_t, "Arr. Gary Bricault, (c) 1997"
4, 0, End_track
0, 0, End_of_file
