0, 0, Header, 1, 3, 384
1, 0, Start_track
1, 0, Time_signature, 4, 2, 24, 8
1, 0, Tempo, 500000
1, 184320, End_track
2, 0, Start_track
2, 0, Text_t, "harpsichord: John Sankey"
2, 0, Program_c, 0, 6
2, 0, Pitch_bend_c, 0, 8192
2, 0, Program_c, 1, 6
2, 0, Pitch_bend_c, 1, 7792
2, 0, Program_c, 2, 6
2, 0, Pitch_bend_c, 2, 7876
2, 0, Program_c, 3, 6
2, 0, Pitch_bend_c, 3, 7952
2, 0, Program_c, 4, 6
2, 0, Pitch_bend_c, 4, 7792
2, 0, Program_c, 5, 6
2, 0, Pitch_bend_c, 5, 8112
2, 0, Program_c, 6, 6
2, 0, Pitch_bend_c, 6, 7712
2, 0, Program_c, 7, 6
2, 0, Pitch_bend_c, 7, 8037
2, 0, Program_c, 8, 6
2, 0, Pitch_bend_c, 8, 7872
2, 0, Program_c, 10, 6
2, 0, Pitch_bend_c, 10, 7712
2, 0, Program_c, 11, 6
2, 0, Pitch_bend_c, 11, 8032
2, 0, Program_c, 12, 6
2, 0, Pitch_bend_c, 12, 7872
2, 0, Title_t, "Track 1"
2, 64, Note_on_c, 4, 52, 127
2, 67, Note_on_c, 7, 67, 127
2, 132, Note_on_c, 12, 71, 127
2, 198, Note_on_c, 4, 76, 127
2, 262, Note_off_c, 4, 52, 127
2, 273, Note_on_c, 7, 55, 127
2, 471, Note_off_c, 7, 55, 127
2, 482, Note_on_c, 10, 57, 127
2, 680, Note_off_c, 10, 57, 127
2, 691, Note_on_c, 12, 59, 127
2, 889, Note_off_c, 12, 59, 127
2, 901, Note_on_c, 10, 57, 127
2, 1099, Note_off_c, 10, 57, 127
2, 1110, Note_on_c, 12, 59, 127
2, 1308, Note_off_c, 12, 59, 127
2, 1319, Note_on_c, 10, 57, 127
2, 1517, Note_off_c, 10, 57, 127
2, 1528, Note_on_c, 7, 55, 127
2, 1726, Note_off_c, 7, 55, 127
2, 1738, Note_on_c, 4, 52, 127
2, 1821, Note_off_c, 7, 67, 127
2, 1838, Note_on_c, 7, 67, 127
2, 1916, Note_off_c, 12, 71, 127
2, 1936, Note_off_c, 4, 52, 127
2, 1945, Note_on_c, 12, 71, 127
2, 1947, Note_on_c, 7, 55, 127
2, 2043, Note_off_c, 4, 76, 127
2, 2052, Note_on_c, 4, 76, 127
2, 2099, Note_off_c, 7, 67, 127
2, 2145, Note_off_c, 7, 55, 127
2, 2154, Note_off_c, 4, 76, 127
2, 2156, Note_on_c, 6, 78, 127
2, 2156, Note_on_c, 10, 57, 127
2, 2206, Note_off_c, 12, 71, 127
2, 2258, Note_off_c, 6, 78, 127
2, 2261, Note_on_c, 4, 76, 127
2, 2354, Note_off_c, 10, 57, 127
2, 2363, Note_off_c, 4, 76, 127
2, 2366, Note_on_c, 3, 75, 127
2, 2366, Note_on_c, 12, 59, 127
2, 2468, Note_off_c, 3, 75, 127
2, 2470, Note_on_c, 4, 76, 127
2, 2564, Note_off_c, 12, 59, 127
2, 2572, Note_off_c, 4, 76, 127
2, 2575, Note_on_c, 6, 78, 127
2, 2575, Note_on_c, 10, 57, 127
2, 2773, Note_off_c, 10, 57, 127
2, 2784, Note_on_c, 12, 59, 127
2, 2873, Note_on_c, 4, 76, 127
2, 2889, Note_off_c, 6, 78, 127
2, 2982, Note_off_c, 12, 59, 127
2, 2993, Note_on_c, 10, 57, 127
2, 3003, Note_on_c, 6, 78, 127
2, 3008, Note_off_c, 4, 76, 127
2, 3135, Note_off_c, 6, 78, 127
2, 3138, Note_on_c, 4, 76, 127
2, 3191, Note_off_c, 10, 57, 127
2, 3203, Note_on_c, 7, 55, 127
2, 3230, Note_on_c, 3, 75, 127
2, 3233, Note_off_c, 4, 76, 127
2, 3322, Note_on_c, 4, 76, 127
2, 3325, Note_off_c, 3, 75, 127
2, 3401, Note_off_c, 7, 55, 127
2, 3407, Note_off_c, 4, 76, 127
2, 3412, Note_on_c, 6, 78, 127
2, 3412, Note_on_c, 4, 52, 127
2, 3517, Note_on_c, 0, 72, 127
2, 3610, Note_off_c, 4, 52, 127
2, 3621, Note_on_c, 10, 69, 127
2, 3621, Note_on_c, 10, 57, 127
2, 3706, Note_off_c, 0, 72, 127
2, 3726, Note_on_c, 0, 72, 127
2, 3804, Note_off_c, 6, 78, 127
2, 3819, Note_off_c, 10, 57, 127
2, 3831, Note_on_c, 6, 78, 127
2, 3831, Note_on_c, 12, 59, 127
2, 4029, Note_off_c, 12, 59, 127
2, 4040, Note_on_c, 0, 60, 127
2, 4238, Note_off_c, 0, 60, 127
2, 4249, Note_on_c, 12, 59, 127
2, 4447, Note_off_c, 12, 59, 127
2, 4458, Note_on_c, 0, 60, 127
2, 4656, Note_off_c, 0, 60, 127
2, 4668, Note_on_c, 12, 59, 127
2, 4866, Note_off_c, 12, 59, 127
2, 4877, Note_on_c, 10, 57, 127
2, 5075, Note_off_c, 10, 57, 127
2, 5077, Note_off_c, 10, 69, 127
2, 5085, Note_on_c, 10, 69, 127
2, 5086, Note_on_c, 4, 52, 127
2, 5272, Note_off_c, 0, 72, 127
2, 5284, Note_off_c, 4, 52, 127
2, 5296, Note_on_c, 10, 57, 127
2, 5298, Note_on_c, 0, 72, 127
2, 5493, Note_off_c, 6, 78, 127
2, 5494, Note_off_c, 10, 57, 127
2, 5504, Note_on_c, 6, 78, 127
2, 5505, Note_on_c, 12, 59, 127
2, 5703, Note_off_c, 12, 59, 127
2, 5714, Note_on_c, 0, 60, 127
2, 5912, Note_off_c, 0, 60, 127
2, 5923, Note_on_c, 12, 59, 127
2, 6121, Note_off_c, 12, 59, 127
2, 6133, Note_on_c, 0, 60, 127
2, 6331, Note_off_c, 0, 60, 127
2, 6342, Note_on_c, 12, 59, 127
2, 6540, Note_off_c, 12, 59, 127
2, 6551, Note_on_c, 10, 57, 127
2, 6747, Note_off_c, 0, 72, 127
2, 6749, Note_off_c, 10, 57, 127
2, 6756, Note_off_c, 10, 69, 127
2, 6760, Note_on_c, 10, 69, 127
2, 6760, Note_on_c, 0, 72, 127
2, 6760, Note_on_c, 3, 51, 127
2, 6958, Note_off_c, 3, 51, 127
2, 6970, Note_on_c, 4, 76, 127
2, 6970, Note_on_c, 10, 57, 127
2, 6971, Note_off_c, 6, 78, 127
2, 7152, Note_off_c, 0, 72, 127
2, 7168, Note_off_c, 10, 57, 127
2, 7174, Note_off_c, 10, 69, 127
2, 7177, Note_off_c, 4, 76, 127
2, 7179, Note_on_c, 3, 75, 127
2, 7179, Note_on_c, 12, 59, 127
2, 7377, Note_off_c, 12, 59, 127
2, 7386, Note_off_c, 3, 75, 127
2, 7388, Note_on_c, 4, 76, 127
2, 7388, Note_on_c, 0, 60, 127
2, 7586, Note_off_c, 0, 60, 127
2, 7595, Note_off_c, 4, 76, 127
2, 7598, Note_on_c, 6, 78, 127
2, 7598, Note_on_c, 12, 59, 127
2, 7796, Note_off_c, 12, 59, 127
2, 7805, Note_off_c, 6, 78, 127
2, 7807, Note_on_c, 4, 76, 127
2, 7807, Note_on_c, 0, 60, 127
2, 8005, Note_off_c, 0, 60, 127
2, 8014, Note_off_c, 4, 76, 127
2, 8016, Note_on_c, 7, 79, 127
2, 8016, Note_on_c, 12, 59, 127
2, 8214, Note_off_c, 12, 59, 127
2, 8225, Note_on_c, 10, 57, 127
2, 8294, Note_on_c, 6, 78, 127
2, 8299, Note_off_c, 7, 79, 127
2, 8423, Note_off_c, 10, 57, 127
2, 8432, Note_off_c, 6, 78, 127
2, 8435, Note_on_c, 10, 81, 127
2, 8435, Note_on_c, 3, 51, 127
2, 8544, Note_on_c, 6, 78, 127
2, 8633, Note_off_c, 3, 51, 127
2, 8644, Note_on_c, 10, 57, 127
2, 8653, Note_on_c, 12, 71, 127
2, 8696, Note_off_c, 6, 78, 127
2, 8762, Note_on_c, 6, 78, 127
2, 8842, Note_off_c, 10, 57, 127
2, 8842, Note_off_c, 10, 81, 127
2, 8853, Note_on_c, 12, 59, 127
2, 8871, Note_on_c, 10, 81, 127
2, 9051, Note_off_c, 12, 59, 127
2, 9063, Note_on_c, 0, 60, 127
2, 9261, Note_off_c, 0, 60, 127
2, 9272, Note_on_c, 12, 59, 127
2, 9335, Note_off_c, 12, 71, 127
2, 9352, Note_off_c, 10, 81, 127
2, 9355, Note_on_c, 0, 84, 127
2, 9470, Note_off_c, 12, 59, 127
2, 9481, Note_on_c, 0, 60, 127
2, 9483, Note_off_c, 0, 84, 127
2, 9485, Note_on_c, 12, 83, 127
2, 9591, Note_off_c, 12, 83, 127
2, 9594, Note_on_c, 10, 81, 127
2, 9679, Note_off_c, 0, 60, 127
2, 9690, Note_off_c, 6, 78, 127
2, 9690, Note_on_c, 12, 59, 127
2, 9700, Note_off_c, 10, 81, 127
2, 9703, Note_on_c, 7, 79, 127
2, 9888, Note_off_c, 7, 79, 127
2, 9888, Note_off_c, 12, 59, 127
2, 9891, Note_on_c, 10, 81, 127
2, 9900, Note_on_c, 10, 57, 127
2, 9997, Note_off_c, 10, 81, 127
2, 10000, Note_on_c, 6, 78, 127
2, 10098, Note_off_c, 10, 57, 127
2, 10106, Note_off_c, 6, 78, 127
2, 10109, Note_on_c, 7, 79, 127
2, 10109, Note_on_c, 4, 52, 127
2, 10244, Note_on_c, 4, 76, 127
2, 10307, Note_off_c, 4, 52, 127
2, 10318, Note_on_c, 7, 55, 127
2, 10378, Note_on_c, 12, 71, 127
2, 10499, Note_off_c, 4, 76, 127
2, 10513, Note_on_c, 4, 76, 127
2, 10516, Note_off_c, 7, 55, 127
2, 10528, Note_on_c, 10, 57, 127
2, 10642, Note_off_c, 7, 79, 127
2, 10648, Note_on_c, 7, 79, 127
2, 10726, Note_off_c, 10, 57, 127
2, 10737, Note_on_c, 12, 59, 127
2, 10935, Note_off_c, 12, 59, 127
2, 10946, Note_on_c, 10, 57, 127
2, 11144, Note_off_c, 10, 57, 127
2, 11155, Note_on_c, 12, 59, 127
2, 11353, Note_off_c, 12, 59, 127
2, 11365, Note_on_c, 10, 57, 127
2, 11563, Note_off_c, 10, 57, 127
2, 11574, Note_on_c, 7, 55, 127
2, 11772, Note_off_c, 7, 55, 127
2, 11783, Note_on_c, 4, 52, 127
2, 11872, Note_off_c, 12, 71, 127
2, 11883, Note_on_c, 12, 71, 127
2, 11973, Note_off_c, 4, 76, 127
2, 11981, Note_off_c, 4, 52, 127
2, 11990, Note_on_c, 4, 76, 127
2, 11992, Note_on_c, 7, 55, 127
2, 12070, Note_off_c, 7, 79, 127
2, 12097, Note_on_c, 7, 79, 127
2, 12179, Note_off_c, 12, 71, 127
2, 12181, Note_off_c, 4, 76, 127
2, 12190, Note_off_c, 7, 55, 127
2, 12202, Note_on_c, 0, 84, 127
2, 12202, Note_on_c, 10, 57, 127
2, 12206, Note_off_c, 7, 79, 127
2, 12400, Note_off_c, 10, 57, 127
2, 12409, Note_off_c, 0, 84, 127
2, 12411, Note_on_c, 12, 83, 127
2, 12411, Note_on_c, 12, 59, 127
2, 12609, Note_off_c, 12, 59, 127
2, 12618, Note_off_c, 12, 83, 127
2, 12620, Note_on_c, 0, 84, 127
2, 12620, Note_on_c, 10, 57, 127
2, 12818, Note_off_c, 10, 57, 127
2, 12830, Note_on_c, 12, 59, 127
2, 13028, Note_off_c, 12, 59, 127
2, 13039, Note_on_c, 10, 57, 127
2, 13237, Note_off_c, 10, 57, 127
2, 13248, Note_on_c, 4, 76, 127
2, 13248, Note_on_c, 7, 55, 127
2, 13373, Note_off_c, 0, 84, 127
2, 13446, Note_off_c, 7, 55, 127
2, 13449, Note_off_c, 4, 76, 127
2, 13457, Note_on_c, 6, 78, 127
2, 13457, Note_on_c, 4, 52, 127
2, 13587, Note_on_c, 0, 72, 127
2, 13655, Note_off_c, 4, 52, 127
2, 13667, Note_on_c, 6, 54, 127
2, 13717, Note_on_c, 10, 69, 127
2, 13831, Note_off_c, 0, 72, 127
2, 13846, Note_on_c, 0, 72, 127
2, 13865, Note_off_c, 6, 54, 127
2, 13876, Note_on_c, 7, 55, 127
2, 13965, Note_off_c, 6, 78, 127
2, 13976, Note_on_c, 6, 78, 127
2, 14074, Note_off_c, 7, 55, 127
2, 14085, Note_on_c, 10, 57, 127
2, 14283, Note_off_c, 10, 57, 127
2, 14295, Note_on_c, 7, 55, 127
2, 14493, Note_off_c, 7, 55, 127
2, 14504, Note_on_c, 10, 57, 127
2, 14702, Note_off_c, 10, 57, 127
2, 14713, Note_on_c, 7, 55, 127
2, 14911, Note_off_c, 7, 55, 127
2, 14922, Note_on_c, 6, 54, 127
2, 15117, Note_off_c, 10, 69, 127
2, 15120, Note_off_c, 6, 54, 127
2, 15130, Note_off_c, 0, 72, 127
2, 15132, Note_on_c, 2, 50, 127
2, 15234, Note_on_c, 12, 71, 127
2, 15330, Note_off_c, 2, 50, 127
2, 15341, Note_on_c, 6, 54, 127
2, 15347, Note_on_c, 2, 74, 127
2, 15396, Note_off_c, 6, 78, 127
2, 15459, Note_on_c, 6, 78, 127
2, 15539, Note_off_c, 6, 54, 127
2, 15550, Note_on_c, 7, 55, 127
2, 15570, Note_on_c, 12, 83, 127
2, 15571, Note_off_c, 12, 71, 127
2, 15573, Note_off_c, 2, 74, 127
2, 15611, Note_off_c, 6, 78, 127
2, 15748, Note_off_c, 7, 55, 127
2, 15760, Note_on_c, 10, 57, 127
2, 15958, Note_off_c, 10, 57, 127
2, 15969, Note_on_c, 7, 55, 127
2, 16052, Note_on_c, 0, 84, 127
2, 16125, Note_off_c, 12, 83, 127
2, 16167, Note_off_c, 7, 55, 127
2, 16176, Note_off_c, 0, 84, 127
2, 16178, Note_on_c, 12, 83, 127
2, 16178, Note_on_c, 10, 57, 127
2, 16280, Note_off_c, 12, 83, 127
2, 16283, Note_on_c, 10, 81, 127
2, 16376, Note_off_c, 10, 57, 127
2, 16385, Note_off_c, 10, 81, 127
2, 16387, Note_on_c, 12, 83, 127
2, 16387, Note_on_c, 7, 55, 127
2, 16489, Note_off_c, 12, 83, 127
2, 16492, Note_on_c, 7, 79, 127
2, 16585, Note_off_c, 7, 55, 127
2, 16594, Note_off_c, 7, 79, 127
2, 16597, Note_on_c, 10, 81, 127
2, 16597, Note_on_c, 6, 54, 127
2, 16699, Note_off_c, 10, 81, 127
2, 16701, Note_on_c, 12, 83, 127
2, 16795, Note_off_c, 6, 54, 127
2, 16803, Note_off_c, 12, 83, 127
2, 16806, Note_on_c, 4, 76, 127
2, 16806, Note_on_c, 2, 50, 127
2, 16941, Note_on_c, 12, 71, 127
2, 17004, Note_off_c, 2, 50, 127
2, 17015, Note_on_c, 4, 52, 127
2, 17075, Note_on_c, 7, 67, 127
2, 17204, Note_off_c, 12, 71, 127
2, 17213, Note_off_c, 4, 52, 127
2, 17219, Note_on_c, 12, 71, 127
2, 17224, Note_on_c, 6, 54, 127
2, 17370, Note_off_c, 4, 76, 127
2, 17372, Note_on_c, 4, 76, 127
2, 17422, Note_off_c, 6, 54, 127
2, 17434, Note_on_c, 7, 55, 127
2, 17632, Note_off_c, 7, 55, 127
2, 17643, Note_on_c, 6, 54, 127
2, 17841, Note_off_c, 6, 54, 127
2, 17852, Note_on_c, 7, 55, 127
2, 18050, Note_off_c, 7, 55, 127
2, 18062, Note_on_c, 6, 54, 127
2, 18260, Note_off_c, 6, 54, 127
2, 18271, Note_on_c, 4, 52, 127
2, 18435, Note_off_c, 7, 67, 127
2, 18469, Note_off_c, 4, 52, 127
2, 18474, Note_off_c, 12, 71, 127
2, 18480, Note_on_c, 10, 69, 127
2, 18480, Note_on_c, 0, 72, 127
2, 18480, Note_on_c, 0, 48, 127
2, 18485, Note_off_c, 4, 76, 127
2, 18678, Note_off_c, 0, 48, 127
2, 18687, Note_off_c, 0, 72, 127
2, 18689, Note_on_c, 0, 72, 127
2, 18689, Note_on_c, 4, 52, 127
2, 18846, Note_off_c, 10, 69, 127
2, 18887, Note_off_c, 4, 52, 127
2, 18896, Note_off_c, 0, 72, 127
2, 18899, Note_on_c, 10, 69, 127
2, 18899, Note_on_c, 6, 54, 127
2, 19097, Note_off_c, 6, 54, 127
2, 19106, Note_off_c, 10, 69, 127
2, 19108, Note_on_c, 12, 71, 127
2, 19108, Note_on_c, 7, 55, 127
2, 19306, Note_off_c, 7, 55, 127
2, 19315, Note_off_c, 12, 71, 127
2, 19317, Note_on_c, 0, 72, 127
2, 19317, Note_on_c, 6, 54, 127
2, 19515, Note_off_c, 6, 54, 127
2, 19527, Note_on_c, 4, 76, 127
2, 19527, Note_on_c, 7, 55, 127
2, 19725, Note_off_c, 7, 55, 127
2, 19734, Note_off_c, 4, 76, 127
2, 19735, Note_off_c, 0, 72, 127
2, 19736, Note_on_c, 2, 74, 127
2, 19736, Note_on_c, 6, 54, 127
2, 19934, Note_off_c, 6, 54, 127
2, 19934, Note_off_c, 2, 74, 127
2, 19936, Note_on_c, 4, 76, 127
2, 19945, Note_on_c, 4, 52, 127
2, 20045, Note_on_c, 0, 72, 127
2, 20143, Note_off_c, 4, 52, 127
2, 20151, Note_off_c, 0, 72, 127
2, 20154, Note_off_c, 4, 76, 127
2, 20154, Note_on_c, 2, 74, 127
2, 20154, Note_on_c, 0, 48, 127
2, 20294, Note_on_c, 10, 69, 127
2, 20352, Note_off_c, 0, 48, 127
2, 20364, Note_on_c, 6, 54, 127
2, 20434, Note_on_c, 6, 66, 127
2, 20562, Note_off_c, 6, 54, 127
2, 20568, Note_off_c, 10, 69, 127
2, 20573, Note_on_c, 10, 69, 127
2, 20573, Note_on_c, 7, 55, 127
2, 20704, Note_off_c, 2, 74, 127
2, 20726, Note_on_c, 2, 74, 127
2, 20771, Note_off_c, 7, 55, 127
2, 20782, Note_on_c, 10, 57, 127
2, 20980, Note_off_c, 10, 57, 127
2, 20992, Note_on_c, 7, 55, 127
2, 21190, Note_off_c, 7, 55, 127
2, 21201, Note_on_c, 10, 57, 127
2, 21399, Note_off_c, 10, 57, 127
2, 21410, Note_on_c, 7, 55, 127
2, 21608, Note_off_c, 7, 55, 127
2, 21619, Note_on_c, 6, 54, 127
2, 21734, Note_off_c, 6, 66, 127
2, 21817, Note_off_c, 6, 54, 127
2, 21823, Note_off_c, 10, 69, 127
2, 21829, Note_on_c, 12, 47, 127
2, 21931, Note_on_c, 7, 67, 127
2, 22027, Note_off_c, 12, 47, 127
2, 22038, Note_on_c, 7, 55, 127
2, 22042, Note_on_c, 12, 71, 127
2, 22120, Note_off_c, 2, 74, 127
2, 22153, Note_on_c, 2, 74, 127
2, 22236, Note_off_c, 7, 55, 127
2, 22247, Note_on_c, 10, 57, 127
2, 22265, Note_on_c, 7, 79, 127
2, 22277, Note_off_c, 12, 71, 127
2, 22279, Note_off_c, 7, 67, 127
2, 22307, Note_off_c, 2, 74, 127
2, 22445, Note_off_c, 10, 57, 127
2, 22456, Note_on_c, 12, 59, 127
2, 22654, Note_off_c, 12, 59, 127
2, 22666, Note_on_c, 10, 57, 127
2, 22764, Note_off_c, 7, 79, 127
2, 22766, Note_on_c, 5, 77, 127
2, 22864, Note_off_c, 10, 57, 127
2, 22875, Note_on_c, 12, 59, 127
2, 22881, Note_off_c, 5, 77, 127
2, 22884, Note_on_c, 4, 76, 127
2, 22990, Note_off_c, 4, 76, 127
2, 22993, Note_on_c, 2, 74, 127
2, 23073, Note_off_c, 12, 59, 127
2, 23084, Note_on_c, 10, 57, 127
2, 23099, Note_off_c, 2, 74, 127
2, 23102, Note_on_c, 0, 72, 127
2, 23282, Note_off_c, 0, 72, 127
2, 23282, Note_off_c, 10, 57, 127
2, 23285, Note_on_c, 2, 74, 127
2, 23294, Note_on_c, 7, 55, 127
2, 23391, Note_off_c, 2, 74, 127
2, 23394, Note_on_c, 12, 71, 127
2, 23492, Note_off_c, 7, 55, 127
2, 23500, Note_off_c, 12, 71, 127
2, 23503, Note_on_c, 0, 72, 127
2, 23503, Note_on_c, 12, 47, 127
2, 23658, Note_on_c, 7, 67, 127
2, 23701, Note_off_c, 12, 47, 127
2, 23712, Note_on_c, 4, 52, 127
2, 23812, Note_on_c, 4, 64, 127
2, 23910, Note_off_c, 4, 52, 127
2, 23921, Note_on_c, 6, 54, 127
2, 23949, Note_off_c, 7, 67, 127
2, 23967, Note_on_c, 7, 67, 127
2, 24107, Note_off_c, 0, 72, 127
2, 24119, Note_off_c, 6, 54, 127
2, 24128, Note_on_c, 0, 72, 127
2, 24131, Note_on_c, 7, 55, 127
2, 24329, Note_off_c, 7, 55, 127
2, 24340, Note_on_c, 6, 54, 127
2, 24538, Note_off_c, 6, 54, 127
2, 24549, Note_on_c, 7, 55, 127
2, 24747, Note_off_c, 7, 55, 127
2, 24759, Note_on_c, 6, 54, 127
2, 24957, Note_off_c, 6, 54, 127
2, 24968, Note_on_c, 4, 52, 127
2, 25166, Note_off_c, 4, 52, 127
2, 25175, Note_off_c, 7, 67, 127
2, 25177, Note_on_c, 6, 66, 127
2, 25177, Note_on_c, 10, 69, 127
2, 25177, Note_on_c, 10, 45, 127
2, 25180, Note_off_c, 4, 64, 127
2, 25375, Note_off_c, 10, 45, 127
2, 25386, Note_on_c, 2, 74, 127
2, 25386, Note_on_c, 6, 54, 127
2, 25438, Note_off_c, 10, 69, 127
2, 25438, Note_off_c, 6, 66, 127
2, 25469, Note_off_c, 0, 72, 127
2, 25584, Note_off_c, 6, 54, 127
2, 25593, Note_off_c, 2, 74, 127
2, 25596, Note_on_c, 4, 76, 127
2, 25596, Note_on_c, 7, 55, 127
2, 25794, Note_off_c, 7, 55, 127
2, 25803, Note_off_c, 4, 76, 127
2, 25805, Note_on_c, 6, 78, 127
2, 25805, Note_on_c, 10, 57, 127
2, 26003, Note_off_c, 10, 57, 127
2, 26012, Note_off_c, 6, 78, 127
2, 26014, Note_on_c, 7, 79, 127
2, 26014, Note_on_c, 7, 55, 127
2, 26212, Note_off_c, 7, 55, 127
2, 26221, Note_off_c, 7, 79, 127
2, 26224, Note_on_c, 6, 78, 127
2, 26224, Note_on_c, 10, 57, 127
2, 26422, Note_off_c, 10, 57, 127
2, 26431, Note_off_c, 6, 78, 127
2, 26433, Note_on_c, 10, 81, 127
2, 26433, Note_on_c, 7, 55, 127
2, 26631, Note_off_c, 7, 55, 127
2, 26642, Note_on_c, 6, 54, 127
2, 26709, Note_off_c, 10, 81, 127
2, 26712, Note_on_c, 0, 72, 127
2, 26840, Note_off_c, 6, 54, 127
2, 26851, Note_on_c, 2, 62, 127
2, 26851, Note_on_c, 7, 43, 127
2, 26992, Note_on_c, 7, 67, 127
2, 27049, Note_off_c, 7, 43, 127
2, 27061, Note_on_c, 10, 57, 127
2, 27094, Note_off_c, 0, 72, 127
2, 27132, Note_on_c, 0, 72, 127
2, 27259, Note_off_c, 10, 57, 127
2, 27270, Note_on_c, 12, 59, 127
2, 27352, Note_on_c, 12, 71, 127
2, 27354, Note_off_c, 0, 72, 127
2, 27468, Note_off_c, 12, 59, 127
2, 27479, Note_on_c, 0, 60, 127
2, 27677, Note_off_c, 0, 60, 127
2, 27688, Note_on_c, 12, 59, 127
2, 27886, Note_off_c, 12, 59, 127
2, 27898, Note_on_c, 0, 60, 127
2, 28096, Note_off_c, 0, 60, 127
2, 28107, Note_on_c, 12, 59, 127
2, 28305, Note_off_c, 12, 59, 127
2, 28316, Note_on_c, 10, 57, 127
2, 28514, Note_off_c, 10, 57, 127
2, 28518, Note_off_c, 2, 62, 127
2, 28526, Note_on_c, 2, 62, 127
2, 28526, Note_on_c, 7, 55, 127
2, 28653, Note_off_c, 7, 67, 127
2, 28665, Note_on_c, 7, 67, 127
2, 28724, Note_off_c, 7, 55, 127
2, 28735, Note_on_c, 12, 59, 127
2, 28765, Note_off_c, 12, 71, 127
2, 28805, Note_on_c, 12, 71, 127
2, 28933, Note_off_c, 12, 59, 127
2, 28942, Note_off_c, 12, 71, 127
2, 28944, Note_on_c, 12, 71, 127
2, 28944, Note_on_c, 0, 60, 127
2, 29134, Note_off_c, 2, 62, 127
2, 29142, Note_off_c, 0, 60, 127
2, 29153, Note_on_c, 2, 62, 127
2, 29355, Note_off_c, 7, 67, 127
2, 29360, Note_off_c, 12, 71, 127
2, 29363, Note_on_c, 10, 69, 127
2, 29363, Note_on_c, 0, 60, 127
2, 29397, Note_off_c, 2, 62, 127
2, 29500, Note_off_c, 10, 69, 127
2, 29502, Note_on_c, 7, 67, 127
2, 29561, Note_off_c, 0, 60, 127
2, 29572, Note_on_c, 2, 62, 127
2, 29639, Note_off_c, 7, 67, 127
2, 29642, Note_on_c, 6, 66, 127
2, 29770, Note_off_c, 2, 62, 127
2, 29779, Note_off_c, 6, 66, 127
2, 29781, Note_on_c, 7, 67, 127
2, 29781, Note_on_c, 0, 60, 127
2, 29935, Note_off_c, 7, 67, 127
2, 29938, Note_on_c, 6, 66, 127
2, 29979, Note_off_c, 0, 60, 127
2, 29991, Note_on_c, 12, 59, 127
2, 30066, Note_off_c, 6, 66, 127
2, 30069, Note_on_c, 4, 64, 127
2, 30189, Note_off_c, 12, 59, 127
2, 30200, Note_on_c, 4, 76, 127
2, 30200, Note_on_c, 7, 55, 127
2, 30304, Note_on_c, 1, 73, 127
2, 30330, Note_off_c, 4, 64, 127
2, 30398, Note_off_c, 7, 55, 127
2, 30409, Note_on_c, 10, 69, 127
2, 30409, Note_on_c, 1, 61, 127
2, 30492, Note_off_c, 1, 73, 127
2, 30514, Note_on_c, 1, 73, 127
2, 30599, Note_off_c, 4, 76, 127
2, 30607, Note_off_c, 1, 61, 127
2, 30618, Note_on_c, 4, 76, 127
2, 30618, Note_on_c, 2, 62, 127
2, 30816, Note_off_c, 2, 62, 127
2, 30828, Note_on_c, 4, 64, 127
2, 31026, Note_off_c, 4, 64, 127
2, 31037, Note_off_c, 10, 69, 127
2, 31037, Note_on_c, 2, 62, 127
2, 31089, Note_off_c, 1, 73, 127
2, 31099, Note_off_c, 4, 76, 127
2, 31102, Note_on_c, 6, 78, 127
2, 31217, Note_off_c, 6, 78, 127
2, 31220, Note_on_c, 4, 76, 127
2, 31235, Note_off_c, 2, 62, 127
2, 31246, Note_on_c, 4, 64, 127
2, 31335, Note_off_c, 4, 76, 127
2, 31338, Note_on_c, 3, 75, 127
2, 31444, Note_off_c, 4, 64, 127
2, 31453, Note_off_c, 3, 75, 127
2, 31456, Note_on_c, 4, 76, 127
2, 31456, Note_on_c, 2, 62, 127
2, 31654, Note_off_c, 2, 62, 127
2, 31665, Note_on_c, 1, 61, 127
2, 31767, Note_off_c, 4, 76, 127
2, 31769, Note_on_c, 6, 78, 127
2, 31863, Note_off_c, 1, 61, 127
2, 31871, Note_off_c, 6, 78, 127
2, 31874, Note_on_c, 10, 69, 127
2, 31874, Note_on_c, 6, 54, 127
2, 31961, Note_on_c, 3, 75, 127
2, 32048, Note_on_c, 7, 79, 127
2, 32072, Note_off_c, 6, 54, 127
2, 32083, Note_on_c, 3, 63, 127
2, 32232, Note_on_c, 6, 78, 127
2, 32234, Note_off_c, 7, 79, 127
2, 32281, Note_off_c, 3, 63, 127
2, 32293, Note_on_c, 4, 64, 127
2, 32318, Note_on_c, 7, 79, 127
2, 32325, Note_off_c, 6, 78, 127
2, 32403, Note_on_c, 6, 78, 127
2, 32411, Note_off_c, 7, 79, 127
2, 32489, Note_on_c, 7, 79, 127
2, 32491, Note_off_c, 4, 64, 127
2, 32496, Note_off_c, 6, 78, 127
2, 32502, Note_on_c, 6, 66, 127
2, 32575, Note_on_c, 6, 78, 127
2, 32582, Note_off_c, 7, 79, 127
2, 32661, Note_on_c, 7, 79, 127
2, 32668, Note_off_c, 6, 78, 127
2, 32700, Note_off_c, 6, 66, 127
2, 32711, Note_on_c, 4, 64, 127
2, 32756, Note_on_c, 6, 78, 127
2, 32763, Note_off_c, 7, 79, 127
2, 32851, Note_on_c, 7, 79, 127
2, 32858, Note_off_c, 6, 78, 127
2, 32909, Note_off_c, 4, 64, 127
2, 32920, Note_on_c, 6, 66, 127
2, 32947, Note_on_c, 6, 78, 127
2, 32953, Note_off_c, 7, 79, 127
2, 33118, Note_off_c, 6, 66, 127
2, 33130, Note_on_c, 4, 64, 127
2, 33225, Note_off_c, 3, 75, 127
2, 33243, Note_off_c, 10, 69, 127
2, 33247, Note_off_c, 6, 78, 127
2, 33328, Note_off_c, 4, 64, 127
2, 33339, Note_on_c, 4, 76, 127
2, 33339, Note_on_c, 3, 63, 127
2, 33441, Note_off_c, 4, 76, 127
2, 33444, Note_on_c, 6, 78, 127
2, 33537, Note_off_c, 3, 63, 127
2, 33546, Note_off_c, 6, 78, 127
2, 33548, Note_on_c, 12, 71, 127
2, 33548, Note_on_c, 4, 52, 127
2, 33653, Note_on_c, 3, 75, 127
2, 33746, Note_off_c, 4, 52, 127
2, 33755, Note_off_c, 3, 75, 127
2, 33758, Note_on_c, 4, 76, 127
2, 33758, Note_on_c, 6, 54, 127
2, 33862, Note_on_c, 6, 78, 127
2, 33956, Note_off_c, 6, 54, 127
2, 33964, Note_off_c, 6, 78, 127
2, 33967, Note_on_c, 7, 79, 127
2, 33967, Note_on_c, 7, 55, 127
2, 34165, Note_off_c, 7, 55, 127
2, 34176, Note_on_c, 10, 57, 127
2, 34374, Note_off_c, 10, 57, 127
2, 34385, Note_on_c, 7, 55, 127
2, 34583, Note_off_c, 7, 55, 127
2, 34595, Note_on_c, 10, 57, 127
2, 34793, Note_off_c, 10, 57, 127
2, 34804, Note_on_c, 7, 55, 127
2, 35002, Note_off_c, 7, 55, 127
2, 35013, Note_on_c, 6, 54, 127
2, 35169, Note_off_c, 12, 71, 127
2, 35170, Note_off_c, 4, 76, 127
2, 35211, Note_off_c, 6, 54, 127
2, 35220, Note_off_c, 7, 79, 127
2, 35223, Note_on_c, 7, 67, 127
2, 35223, Note_on_c, 12, 71, 127
2, 35223, Note_on_c, 4, 52, 127
2, 35421, Note_off_c, 4, 52, 127
2, 35430, Note_off_c, 12, 71, 127
2, 35432, Note_on_c, 12, 71, 127
2, 35432, Note_on_c, 7, 55, 127
2, 35630, Note_off_c, 7, 55, 127
2, 35639, Note_off_c, 12, 71, 127
2, 35641, Note_off_c, 7, 67, 127
2, 35641, Note_on_c, 10, 69, 127
2, 35641, Note_on_c, 10, 57, 127
2, 35839, Note_off_c, 10, 57, 127
2, 35848, Note_off_c, 10, 69, 127
2, 35850, Note_on_c, 7, 67, 127
2, 35850, Note_on_c, 12, 59, 127
2, 36048, Note_off_c, 12, 59, 127
2, 36060, Note_on_c, 10, 57, 127
2, 36258, Note_off_c, 10, 57, 127
2, 36266, Note_off_c, 7, 67, 127
2, 36269, Note_on_c, 6, 66, 127
2, 36269, Note_on_c, 12, 59, 127
2, 36375, Note_off_c, 6, 66, 127
2, 36378, Note_on_c, 4, 64, 127
2, 36467, Note_off_c, 12, 59, 127
2, 36478, Note_on_c, 10, 57, 127
2, 36484, Note_off_c, 4, 64, 127
2, 36487, Note_on_c, 3, 63, 127
2, 36676, Note_off_c, 10, 57, 127
2, 36688, Note_on_c, 7, 55, 127
2, 36755, Note_off_c, 3, 63, 127
2, 36757, Note_on_c, 4, 64, 127
2, 36886, Note_off_c, 7, 55, 127
2, 36894, Note_off_c, 4, 64, 127
2, 36897, Note_on_c, 5, 65, 127
2, 36897, Note_on_c, 4, 52, 127
2, 37036, Note_on_c, 10, 69, 127
2, 37095, Note_off_c, 4, 52, 127
2, 37106, Note_on_c, 10, 57, 127
2, 37176, Note_on_c, 0, 72, 127
2, 37297, Note_off_c, 10, 69, 127
2, 37304, Note_off_c, 10, 57, 127
2, 37315, Note_on_c, 12, 59, 127
2, 37319, Note_off_c, 5, 65, 127
2, 37417, Note_off_c, 0, 72, 127
2, 37420, Note_on_c, 12, 71, 127
2, 37513, Note_off_c, 12, 59, 127
2, 37522, Note_off_c, 12, 71, 127
2, 37525, Note_on_c, 10, 69, 127
2, 37525, Note_on_c, 0, 60, 127
2, 37627, Note_off_c, 10, 69, 127
2, 37629, Note_on_c, 12, 71, 127
2, 37723, Note_off_c, 0, 60, 127
2, 37731, Note_off_c, 12, 71, 127
2, 37734, Note_on_c, 0, 72, 127
2, 37734, Note_on_c, 12, 59, 127
2, 37836, Note_off_c, 0, 72, 127
2, 37839, Note_on_c, 2, 74, 127
2, 37932, Note_off_c, 12, 59, 127
2, 37941, Note_off_c, 2, 74, 127
2, 37943, Note_on_c, 0, 72, 127
2, 37943, Note_on_c, 0, 60, 127
2, 38045, Note_off_c, 0, 72, 127
2, 38048, Note_on_c, 12, 71, 127
2, 38141, Note_off_c, 0, 60, 127
2, 38150, Note_off_c, 12, 71, 127
2, 38152, Note_on_c, 0, 72, 127
2, 38152, Note_on_c, 12, 59, 127
2, 38350, Note_off_c, 12, 59, 127
2, 38362, Note_on_c, 10, 57, 127
2, 38463, Note_off_c, 0, 72, 127
2, 38466, Note_on_c, 2, 74, 127
2, 38560, Note_off_c, 10, 57, 127
2, 38568, Note_off_c, 2, 74, 127
2, 38571, Note_on_c, 5, 65, 127
2, 38571, Note_on_c, 2, 50, 127
2, 38658, Note_on_c, 12, 71, 127
2, 38745, Note_on_c, 4, 76, 127
2, 38769, Note_off_c, 2, 50, 127
2, 38780, Note_on_c, 12, 59, 127
2, 38945, Note_off_c, 4, 76, 127
2, 38948, Note_on_c, 2, 74, 127
2, 38978, Note_off_c, 12, 59, 127
2, 38990, Note_on_c, 0, 60, 127
2, 39032, Note_on_c, 4, 76, 127
2, 39039, Note_off_c, 2, 74, 127
2, 39116, Note_on_c, 2, 74, 127
2, 39123, Note_off_c, 4, 76, 127
2, 39188, Note_off_c, 0, 60, 127
2, 39199, Note_on_c, 4, 76, 127
2, 39199, Note_on_c, 2, 62, 127
2, 39207, Note_off_c, 2, 74, 127
2, 39283, Note_on_c, 2, 74, 127
2, 39290, Note_off_c, 4, 76, 127
2, 39367, Note_on_c, 4, 76, 127
2, 39374, Note_off_c, 2, 74, 127
2, 39397, Note_off_c, 2, 62, 127
2, 39408, Note_on_c, 0, 60, 127
2, 39453, Note_on_c, 2, 74, 127
2, 39460, Note_off_c, 4, 76, 127
2, 39539, Note_on_c, 4, 76, 127
2, 39546, Note_off_c, 2, 74, 127
2, 39606, Note_off_c, 0, 60, 127
2, 39617, Note_on_c, 2, 62, 127
2, 39625, Note_on_c, 2, 74, 127
2, 39632, Note_off_c, 4, 76, 127
2, 39815, Note_off_c, 2, 62, 127
2, 39827, Note_on_c, 0, 60, 127
2, 39922, Note_off_c, 12, 71, 127
2, 39925, Note_off_c, 2, 74, 127
2, 39940, Note_off_c, 5, 65, 127
2, 40025, Note_off_c, 0, 60, 127
2, 40036, Note_on_c, 0, 72, 127
2, 40036, Note_on_c, 12, 59, 127
2, 40138, Note_off_c, 0, 72, 127
2, 40141, Note_on_c, 2, 74, 127
2, 40234, Note_off_c, 12, 59, 127
2, 40243, Note_off_c, 2, 74, 127
2, 40245, Note_on_c, 7, 67, 127
2, 40245, Note_on_c, 0, 48, 127
2, 40350, Note_on_c, 12, 71, 127
2, 40443, Note_off_c, 0, 48, 127
2, 40452, Note_off_c, 12, 71, 127
2, 40455, Note_on_c, 0, 72, 127
2, 40455, Note_on_c, 2, 50, 127
2, 40559, Note_on_c, 2, 74, 127
2, 40653, Note_off_c, 2, 50, 127
2, 40661, Note_off_c, 2, 74, 127
2, 40664, Note_on_c, 4, 76, 127
2, 40664, Note_on_c, 4, 52, 127
2, 40862, Note_off_c, 4, 52, 127
2, 40873, Note_on_c, 5, 53, 127
2, 41071, Note_off_c, 5, 53, 127
2, 41082, Note_on_c, 4, 52, 127
2, 41280, Note_off_c, 4, 52, 127
2, 41292, Note_on_c, 5, 53, 127
2, 41490, Note_off_c, 5, 53, 127
2, 41501, Note_on_c, 4, 52, 127
2, 41699, Note_off_c, 4, 52, 127
2, 41710, Note_on_c, 2, 50, 127
2, 41866, Note_off_c, 7, 67, 127
2, 41867, Note_off_c, 0, 72, 127
2, 41908, Note_off_c, 2, 50, 127
2, 41917, Note_off_c, 4, 76, 127
2, 41920, Note_on_c, 4, 64, 127
2, 41920, Note_on_c, 7, 67, 127
2, 41920, Note_on_c, 0, 48, 127
2, 42118, Note_off_c, 0, 48, 127
2, 42129, Note_on_c, 4, 52, 127
2, 42327, Note_off_c, 4, 52, 127
2, 42338, Note_on_c, 2, 74, 127
2, 42338, Note_on_c, 5, 53, 127
2, 42536, Note_off_c, 5, 53, 127
2, 42545, Note_off_c, 2, 74, 127
2, 42547, Note_on_c, 0, 72, 127
2, 42547, Note_on_c, 7, 55, 127
2, 42741, Note_off_c, 7, 67, 127
2, 42741, Note_off_c, 4, 64, 127
2, 42745, Note_off_c, 7, 55, 127
2, 42754, Note_off_c, 0, 72, 127
2, 42757, Note_on_c, 2, 74, 127
2, 42757, Note_on_c, 5, 53, 127
2, 42955, Note_off_c, 5, 53, 127
2, 42966, Note_on_c, 12, 71, 127
2, 42966, Note_on_c, 7, 55, 127
2, 43018, Note_off_c, 2, 74, 127
2, 43164, Note_off_c, 7, 55, 127
2, 43173, Note_off_c, 12, 71, 127
2, 43175, Note_on_c, 8, 68, 127
2, 43175, Note_on_c, 5, 53, 127
2, 43373, Note_off_c, 5, 53, 127
2, 43384, Note_on_c, 4, 52, 127
2, 43437, Note_on_c, 10, 69, 127
2, 43445, Note_off_c, 8, 68, 127
2, 43582, Note_off_c, 4, 52, 127
2, 43594, Note_on_c, 2, 74, 127
2, 43594, Note_on_c, 0, 48, 127
2, 43684, Note_off_c, 10, 69, 127
2, 43698, Note_on_c, 10, 69, 127
2, 43792, Note_off_c, 0, 48, 127
2, 43803, Note_on_c, 6, 66, 127
2, 43803, Note_on_c, 6, 54, 127
2, 43892, Note_off_c, 10, 69, 127
2, 43908, Note_on_c, 10, 69, 127
2, 43990, Note_off_c, 2, 74, 127
2, 44001, Note_off_c, 6, 54, 127
2, 44012, Note_on_c, 2, 74, 127
2, 44012, Note_on_c, 7, 55, 127
2, 44210, Note_off_c, 7, 55, 127
2, 44222, Note_on_c, 10, 57, 127
2, 44420, Note_off_c, 10, 57, 127
2, 44431, Note_on_c, 7, 55, 127
2, 44629, Note_off_c, 7, 55, 127
2, 44640, Note_on_c, 10, 57, 127
2, 44838, Note_off_c, 10, 57, 127
2, 44849, Note_on_c, 7, 55, 127
2, 45047, Note_off_c, 7, 55, 127
2, 45059, Note_on_c, 6, 54, 127
2, 45215, Note_off_c, 6, 66, 127
2, 45216, Note_off_c, 10, 69, 127
2, 45257, Note_off_c, 6, 54, 127
2, 45265, Note_off_c, 2, 74, 127
2, 45268, Note_on_c, 12, 71, 127
2, 45268, Note_on_c, 8, 68, 127
2, 45268, Note_on_c, 12, 47, 127
2, 45466, Note_off_c, 12, 47, 127
2, 45477, Note_on_c, 5, 77, 127
2, 45477, Note_on_c, 8, 56, 127
2, 45675, Note_off_c, 8, 56, 127
2, 45684, Note_off_c, 5, 77, 127
2, 45687, Note_on_c, 4, 76, 127
2, 45687, Note_on_c, 10, 57, 127
2, 45885, Note_off_c, 10, 57, 127
2, 45894, Note_off_c, 4, 76, 127
2, 45896, Note_on_c, 2, 74, 127
2, 45896, Note_on_c, 12, 59, 127
2, 46074, Note_off_c, 8, 68, 127
2, 46074, Note_off_c, 12, 71, 127
2, 46094, Note_off_c, 12, 59, 127
2, 46103, Note_off_c, 2, 74, 127
2, 46105, Note_on_c, 2, 74, 127
2, 46105, Note_on_c, 10, 57, 127
2, 46303, Note_off_c, 10, 57, 127
2, 46314, Note_on_c, 12, 59, 127
2, 46394, Note_off_c, 2, 74, 127
2, 46402, Note_on_c, 0, 72, 127
2, 46512, Note_off_c, 12, 59, 127
2, 46524, Note_on_c, 2, 74, 127
2, 46524, Note_on_c, 10, 57, 127
2, 46526, Note_off_c, 0, 72, 127
2, 46623, Note_on_c, 0, 72, 127
2, 46626, Note_off_c, 2, 74, 127
2, 46722, Note_off_c, 10, 57, 127
2, 46723, Note_on_c, 2, 74, 127
2, 46725, Note_off_c, 0, 72, 127
2, 46733, Note_on_c, 8, 56, 127
2, 46823, Note_on_c, 12, 71, 127
2, 46825, Note_off_c, 2, 74, 127
2, 46931, Note_off_c, 8, 56, 127
2, 46942, Note_on_c, 0, 72, 127
2, 46942, Note_on_c, 10, 57, 127
2, 46958, Note_off_c, 12, 71, 127
2, 47047, Note_on_c, 10, 69, 127
2, 47140, Note_off_c, 10, 57, 127
2, 47152, Note_on_c, 4, 64, 127
2, 47152, Note_on_c, 12, 59, 127
2, 47250, Note_off_c, 10, 69, 127
2, 47256, Note_on_c, 10, 69, 127
2, 47338, Note_off_c, 0, 72, 127
2, 47350, Note_off_c, 12, 59, 127
2, 47361, Note_on_c, 0, 72, 127
2, 47361, Note_on_c, 0, 60, 127
2, 47559, Note_off_c, 0, 60, 127
2, 47570, Note_on_c, 2, 62, 127
2, 47768, Note_off_c, 2, 62, 127
2, 47779, Note_on_c, 0, 60, 127
2, 47977, Note_off_c, 0, 60, 127
2, 47989, Note_on_c, 2, 62, 127
2, 48187, Note_off_c, 2, 62, 127
2, 48198, Note_on_c, 0, 60, 127
2, 48396, Note_off_c, 0, 60, 127
2, 48407, Note_on_c, 12, 59, 127
2, 48605, Note_off_c, 12, 59, 127
2, 48616, Note_on_c, 7, 55, 127
2, 48684, Note_off_c, 10, 69, 127
2, 48707, Note_on_c, 10, 69, 127
2, 48814, Note_off_c, 7, 55, 127
2, 48815, Note_off_c, 4, 64, 127
2, 48826, Note_on_c, 10, 57, 127
2, 48846, Note_on_c, 4, 64, 127
2, 48976, Note_off_c, 10, 69, 127
2, 48985, Note_on_c, 10, 69, 127
2, 49024, Note_off_c, 10, 57, 127
2, 49035, Note_on_c, 12, 59, 127
2, 49046, Note_off_c, 0, 72, 127
2, 49132, Note_on_c, 0, 72, 127
2, 49233, Note_off_c, 12, 59, 127
2, 49244, Note_on_c, 0, 60, 127
2, 49442, Note_off_c, 0, 60, 127
2, 49454, Note_on_c, 12, 59, 127
2, 49652, Note_off_c, 12, 59, 127
2, 49663, Note_on_c, 0, 60, 127
2, 49861, Note_off_c, 0, 60, 127
2, 49872, Note_on_c, 12, 59, 127
2, 50070, Note_off_c, 12, 59, 127
2, 50081, Note_on_c, 10, 57, 127
2, 50273, Note_off_c, 4, 64, 127
2, 50279, Note_off_c, 10, 57, 127
2, 50291, Note_on_c, 3, 63, 127
2, 50291, Note_on_c, 6, 54, 127
2, 50432, Note_off_c, 0, 72, 127
2, 50475, Note_off_c, 10, 69, 127
2, 50489, Note_off_c, 6, 54, 127
2, 50500, Note_on_c, 10, 69, 127
2, 50500, Note_on_c, 10, 57, 127
2, 50698, Note_off_c, 10, 57, 127
2, 50709, Note_on_c, 0, 72, 127
2, 50709, Note_on_c, 12, 59, 127
2, 50907, Note_off_c, 12, 59, 127
2, 50919, Note_on_c, 0, 60, 127
2, 51117, Note_off_c, 0, 60, 127
2, 51128, Note_on_c, 12, 59, 127
2, 51284, Note_off_c, 10, 69, 127
2, 51326, Note_off_c, 12, 59, 127
2, 51337, Note_on_c, 10, 69, 127
2, 51337, Note_on_c, 0, 60, 127
2, 51535, Note_off_c, 0, 60, 127
2, 51544, Note_off_c, 10, 69, 127
2, 51546, Note_on_c, 8, 68, 127
2, 51546, Note_on_c, 12, 59, 127
2, 51744, Note_off_c, 12, 59, 127
2, 51753, Note_off_c, 8, 68, 127
2, 51756, Note_on_c, 10, 69, 127
2, 51756, Note_on_c, 10, 57, 127
2, 51912, Note_off_c, 0, 72, 127
2, 51912, Note_off_c, 3, 63, 127
2, 51954, Note_off_c, 10, 57, 127
2, 51963, Note_off_c, 10, 69, 127
2, 51965, Note_on_c, 10, 69, 127
2, 51965, Note_on_c, 4, 64, 127
2, 51965, Note_on_c, 0, 72, 127
2, 51965, Note_on_c, 4, 52, 127
2, 52163, Note_off_c, 4, 52, 127
2, 52172, Note_off_c, 10, 69, 127
2, 52174, Note_on_c, 10, 69, 127
2, 52174, Note_on_c, 10, 57, 127
2, 52372, Note_off_c, 10, 57, 127
2, 52381, Note_off_c, 10, 69, 127
2, 52384, Note_on_c, 8, 68, 127
2, 52384, Note_on_c, 12, 59, 127
2, 52582, Note_off_c, 12, 59, 127
2, 52591, Note_off_c, 8, 68, 127
2, 52593, Note_on_c, 10, 69, 127
2, 52593, Note_on_c, 0, 60, 127
2, 52749, Note_off_c, 4, 64, 127
2, 52791, Note_off_c, 0, 60, 127
2, 52800, Note_off_c, 10, 69, 127
2, 52802, Note_off_c, 0, 72, 127
2, 52802, Note_on_c, 4, 64, 127
2, 52802, Note_on_c, 12, 59, 127
2, 53000, Note_off_c, 12, 59, 127
2, 53011, Note_on_c, 10, 69, 127
2, 53011, Note_on_c, 0, 60, 127
2, 53209, Note_off_c, 0, 60, 127
2, 53218, Note_off_c, 10, 69, 127
2, 53221, Note_on_c, 8, 68, 127
2, 53221, Note_on_c, 12, 59, 127
2, 53419, Note_off_c, 12, 59, 127
2, 53430, Note_on_c, 10, 57, 127
2, 53458, Note_off_c, 8, 68, 127
2, 53472, Note_on_c, 10, 69, 127
2, 53628, Note_off_c, 10, 57, 127
2, 53639, Note_off_c, 4, 64, 127
2, 53639, Note_on_c, 0, 72, 127
2, 53639, Note_on_c, 3, 51, 127
2, 53725, Note_off_c, 10, 69, 127
2, 53744, Note_on_c, 10, 69, 127
2, 53837, Note_off_c, 3, 51, 127
2, 53848, Note_on_c, 6, 66, 127
2, 53848, Note_on_c, 10, 57, 127
2, 53900, Note_off_c, 10, 69, 127
2, 53953, Note_on_c, 10, 69, 127
2, 54046, Note_off_c, 10, 57, 127
2, 54054, Note_off_c, 0, 72, 127
2, 54058, Note_on_c, 0, 72, 127
2, 54058, Note_on_c, 12, 59, 127
2, 54256, Note_off_c, 12, 59, 127
2, 54267, Note_on_c, 0, 60, 127
2, 54465, Note_off_c, 0, 60, 127
2, 54476, Note_on_c, 12, 59, 127
2, 54674, Note_off_c, 12, 59, 127
2, 54686, Note_on_c, 0, 60, 127
2, 54884, Note_off_c, 0, 60, 127
2, 54895, Note_on_c, 12, 59, 127
2, 55093, Note_off_c, 12, 59, 127
2, 55104, Note_on_c, 10, 57, 127
2, 55260, Note_off_c, 6, 66, 127
2, 55261, Note_off_c, 10, 69, 127
2, 55302, Note_off_c, 10, 57, 127
2, 55311, Note_off_c, 0, 72, 127
2, 55313, Note_on_c, 10, 69, 127
2, 55313, Note_on_c, 6, 66, 127
2, 55313, Note_on_c, 3, 51, 127
2, 55511, Note_off_c, 3, 51, 127
2, 55523, Note_on_c, 6, 54, 127
2, 55721, Note_off_c, 6, 54, 127
2, 55732, Note_on_c, 12, 71, 127
2, 55732, Note_on_c, 7, 55, 127
2, 55930, Note_off_c, 7, 55, 127
2, 55941, Note_on_c, 10, 57, 127
2, 56134, Note_off_c, 6, 66, 127
2, 56134, Note_off_c, 10, 69, 127
2, 56139, Note_off_c, 10, 57, 127
2, 56148, Note_off_c, 12, 71, 127
2, 56151, Note_on_c, 1, 73, 127
2, 56151, Note_on_c, 7, 55, 127
2, 56349, Note_off_c, 7, 55, 127
2, 56360, Note_on_c, 10, 57, 127
2, 56558, Note_off_c, 10, 57, 127
2, 56567, Note_off_c, 1, 73, 127
2, 56569, Note_on_c, 4, 76, 127
2, 56569, Note_on_c, 7, 55, 127
2, 56767, Note_off_c, 7, 55, 127
2, 56776, Note_off_c, 4, 76, 127
2, 56778, Note_on_c, 3, 75, 127
2, 56778, Note_on_c, 6, 54, 127
2, 56976, Note_off_c, 6, 54, 127
2, 56985, Note_off_c, 3, 75, 127
2, 56988, Note_on_c, 4, 76, 127
2, 56988, Note_on_c, 2, 50, 127
2, 57092, Note_on_c, 12, 71, 127
2, 57186, Note_off_c, 2, 50, 127
2, 57197, Note_on_c, 8, 68, 127
2, 57197, Note_on_c, 8, 56, 127
2, 57283, Note_off_c, 12, 71, 127
2, 57302, Note_on_c, 12, 71, 127
2, 57354, Note_off_c, 4, 76, 127
2, 57395, Note_off_c, 8, 56, 127
2, 57406, Note_on_c, 4, 76, 127
2, 57406, Note_on_c, 10, 57, 127
2, 57604, Note_off_c, 10, 57, 127
2, 57616, Note_on_c, 12, 59, 127
2, 57814, Note_off_c, 12, 59, 127
2, 57825, Note_on_c, 10, 57, 127
2, 58023, Note_off_c, 10, 57, 127
2, 58034, Note_on_c, 12, 59, 127
2, 58232, Note_off_c, 12, 59, 127
2, 58243, Note_on_c, 10, 57, 127
2, 58441, Note_off_c, 10, 57, 127
2, 58453, Note_on_c, 8, 56, 127
2, 58651, Note_off_c, 8, 56, 127
2, 58662, Note_off_c, 12, 71, 127
2, 58662, Note_on_c, 1, 49, 127
2, 58696, Note_off_c, 8, 68, 127
2, 58742, Note_on_c, 1, 73, 127
2, 58860, Note_off_c, 1, 49, 127
2, 58871, Note_on_c, 11, 70, 127
2, 58871, Note_on_c, 4, 52, 127
2, 58994, Note_off_c, 1, 73, 127
2, 59000, Note_on_c, 1, 73, 127
2, 59069, Note_off_c, 4, 52, 127
2, 59080, Note_on_c, 6, 54, 127
2, 59113, Note_off_c, 4, 76, 127
2, 59142, Note_on_c, 4, 76, 127
2, 59278, Note_off_c, 6, 54, 127
2, 59290, Note_on_c, 7, 55, 127
2, 59488, Note_off_c, 7, 55, 127
2, 59499, Note_on_c, 6, 54, 127
2, 59697, Note_off_c, 6, 54, 127
2, 59708, Note_on_c, 7, 55, 127
2, 59906, Note_off_c, 7, 55, 127
2, 59918, Note_on_c, 6, 54, 127
2, 60116, Note_off_c, 6, 54, 127
2, 60127, Note_on_c, 4, 52, 127
2, 60284, Note_off_c, 11, 70, 127
2, 60325, Note_off_c, 4, 52, 127
2, 60336, Note_on_c, 0, 48, 127
2, 60356, Note_off_c, 1, 73, 127
2, 60396, Note_on_c, 6, 66, 127
2, 60511, Note_on_c, 10, 69, 127
2, 60534, Note_off_c, 0, 48, 127
2, 60545, Note_on_c, 6, 54, 127
2, 60627, Note_off_c, 4, 76, 127
2, 60664, Note_on_c, 4, 76, 127
2, 60743, Note_off_c, 6, 54, 127
2, 60755, Note_on_c, 7, 55, 127
2, 60794, Note_on_c, 3, 75, 127
2, 60799, Note_off_c, 4, 76, 127
2, 60931, Note_off_c, 10, 69, 127
2, 60953, Note_off_c, 7, 55, 127
2, 60963, Note_off_c, 3, 75, 127
2, 60964, Note_on_c, 6, 78, 127
2, 60964, Note_on_c, 10, 57, 127
2, 60974, Note_off_c, 6, 66, 127
2, 61101, Note_off_c, 6, 78, 127
2, 61162, Note_off_c, 10, 57, 127
2, 61173, Note_on_c, 10, 81, 127
2, 61173, Note_on_c, 7, 55, 127
2, 61371, Note_off_c, 7, 55, 127
2, 61383, Note_on_c, 0, 84, 127
2, 61383, Note_on_c, 10, 57, 127
2, 61581, Note_off_c, 10, 57, 127
2, 61587, Note_off_c, 10, 81, 127
2, 61590, Note_off_c, 0, 84, 127
2, 61592, Note_on_c, 12, 83, 127
2, 61592, Note_on_c, 7, 55, 127
2, 61790, Note_off_c, 7, 55, 127
2, 61801, Note_on_c, 6, 54, 127
2, 61868, Note_off_c, 12, 83, 127
2, 61871, Note_on_c, 3, 75, 127
2, 61999, Note_off_c, 6, 54, 127
2, 62008, Note_off_c, 3, 75, 127
2, 62010, Note_on_c, 4, 76, 127
2, 62010, Note_on_c, 12, 47, 127
2, 62115, Note_on_c, 12, 71, 127
2, 62208, Note_off_c, 12, 47, 127
2, 62220, Note_on_c, 7, 67, 127
2, 62220, Note_on_c, 4, 52, 127
2, 62271, Note_off_c, 12, 71, 127
2, 62324, Note_on_c, 12, 71, 127
2, 62376, Note_off_c, 4, 76, 127
2, 62418, Note_off_c, 4, 52, 127
2, 62429, Note_on_c, 4, 76, 127
2, 62429, Note_on_c, 6, 54, 127
2, 62627, Note_off_c, 6, 54, 127
2, 62638, Note_on_c, 7, 55, 127
2, 62836, Note_off_c, 7, 55, 127
2, 62848, Note_on_c, 6, 54, 127
2, 63046, Note_off_c, 6, 54, 127
2, 63057, Note_on_c, 7, 55, 127
2, 63255, Note_off_c, 7, 55, 127
2, 63266, Note_on_c, 6, 54, 127
2, 63464, Note_off_c, 6, 54, 127
2, 63475, Note_on_c, 4, 52, 127
2, 63673, Note_off_c, 4, 52, 127
2, 63685, Note_on_c, 11, 46, 127
2, 63788, Note_off_c, 12, 71, 127
2, 63825, Note_on_c, 1, 73, 127
2, 63883, Note_off_c, 11, 46, 127
2, 63894, Note_off_c, 7, 67, 127
2, 63894, Note_on_c, 4, 52, 127
2, 63966, Note_on_c, 7, 67, 127
2, 64092, Note_off_c, 4, 52, 127
2, 64098, Note_off_c, 1, 73, 127
2, 64103, Note_on_c, 6, 54, 127
2, 64117, Note_on_c, 1, 73, 127
2, 64245, Note_off_c, 4, 76, 127
2, 64278, Note_on_c, 4, 76, 127
2, 64301, Note_off_c, 6, 54, 127
2, 64312, Note_on_c, 7, 55, 127
2, 64510, Note_off_c, 7, 55, 127
2, 64522, Note_on_c, 6, 54, 127
2, 64577, Note_on_c, 6, 78, 127
2, 64586, Note_off_c, 4, 76, 127
2, 64592, Note_off_c, 1, 73, 127
2, 64594, Note_off_c, 7, 67, 127
2, 64720, Note_off_c, 6, 54, 127
2, 64731, Note_on_c, 4, 76, 127
2, 64731, Note_on_c, 7, 55, 127
2, 64741, Note_off_c, 6, 78, 127
2, 64848, Note_off_c, 4, 76, 127
2, 64849, Note_on_c, 3, 75, 127
2, 64929, Note_off_c, 7, 55, 127
2, 64940, Note_on_c, 6, 54, 127
2, 64966, Note_on_c, 4, 76, 127
2, 64967, Note_off_c, 3, 75, 127
2, 65084, Note_on_c, 1, 73, 127
2, 65090, Note_off_c, 4, 76, 127
2, 65138, Note_off_c, 6, 54, 127
2, 65150, Note_on_c, 4, 52, 127
2, 65199, Note_off_c, 1, 73, 127
2, 65202, Note_on_c, 3, 75, 127
2, 65348, Note_off_c, 4, 52, 127
2, 65356, Note_off_c, 3, 75, 127
2, 65359, Note_on_c, 6, 66, 127
2, 65359, Note_on_c, 12, 47, 127
2, 65446, Note_on_c, 12, 71, 127
2, 65533, Note_on_c, 4, 76, 127
2, 65557, Note_off_c, 12, 47, 127
2, 65568, Note_on_c, 6, 54, 127
2, 65635, Note_off_c, 4, 76, 127
2, 65638, Note_on_c, 3, 75, 127
2, 65718, Note_off_c, 3, 75, 127
2, 65721, Note_on_c, 4, 76, 127
2, 65766, Note_off_c, 6, 54, 127
2, 65777, Note_on_c, 7, 55, 127
2, 65801, Note_off_c, 4, 76, 127
2, 65804, Note_on_c, 3, 75, 127
2, 65884, Note_off_c, 3, 75, 127
2, 65886, Note_on_c, 4, 76, 127
2, 65966, Note_off_c, 4, 76, 127
2, 65969, Note_on_c, 3, 75, 127
2, 65975, Note_off_c, 7, 55, 127
2, 65987, Note_on_c, 10, 57, 127
2, 66049, Note_off_c, 3, 75, 127
2, 66052, Note_on_c, 4, 76, 127
2, 66132, Note_off_c, 4, 76, 127
2, 66135, Note_on_c, 3, 75, 127
2, 66185, Note_off_c, 10, 57, 127
2, 66196, Note_on_c, 7, 55, 127
2, 66215, Note_off_c, 3, 75, 127
2, 66218, Note_on_c, 4, 76, 127
2, 66298, Note_off_c, 4, 76, 127
2, 66301, Note_on_c, 3, 75, 127
2, 66394, Note_off_c, 7, 55, 127
2, 66405, Note_on_c, 10, 57, 127
2, 66603, Note_off_c, 10, 57, 127
2, 66615, Note_on_c, 7, 55, 127
2, 66813, Note_off_c, 7, 55, 127
2, 66823, Note_off_c, 12, 71, 127
2, 66823, Note_off_c, 6, 66, 127
2, 66824, Note_on_c, 6, 54, 127
2, 66872, Note_off_c, 3, 75, 127
2, 66874, Note_on_c, 4, 76, 127
2, 67022, Note_off_c, 6, 54, 127
2, 67030, Note_off_c, 4, 76, 127
2, 67033, Note_on_c, 7, 67, 127
2, 67033, Note_on_c, 4, 52, 127
2, 67142, Note_on_c, 12, 71, 127
2, 67231, Note_off_c, 4, 52, 127
2, 67242, Note_on_c, 7, 55, 127
2, 67251, Note_on_c, 4, 76, 127
2, 67440, Note_off_c, 7, 55, 127
2, 67452, Note_on_c, 10, 57, 127
2, 67650, Note_off_c, 10, 57, 127
2, 67661, Note_on_c, 12, 59, 127
2, 67859, Note_off_c, 12, 59, 127
2, 67870, Note_on_c, 10, 57, 127
2, 68068, Note_off_c, 10, 57, 127
2, 68080, Note_on_c, 12, 59, 127
2, 68278, Note_off_c, 12, 59, 127
2, 68289, Note_on_c, 10, 57, 127
2, 68487, Note_off_c, 10, 57, 127
2, 68498, Note_on_c, 7, 55, 127
2, 68696, Note_off_c, 7, 55, 127
2, 68707, Note_off_c, 7, 67, 127
2, 68707, Note_on_c, 4, 64, 127
2, 68707, Note_on_c, 2, 50, 127
2, 68847, Note_on_c, 8, 68, 127
2, 68905, Note_off_c, 2, 50, 127
2, 68917, Note_on_c, 8, 56, 127
2, 68960, Note_off_c, 12, 71, 127
2, 68986, Note_on_c, 12, 71, 127
2, 69102, Note_off_c, 4, 76, 127
2, 69115, Note_off_c, 8, 56, 127
2, 69126, Note_on_c, 4, 76, 127
2, 69126, Note_on_c, 10, 57, 127
2, 69324, Note_off_c, 10, 57, 127
2, 69335, Note_on_c, 12, 59, 127
2, 69533, Note_off_c, 12, 59, 127
2, 69544, Note_on_c, 10, 57, 127
2, 69742, Note_off_c, 10, 57, 127
2, 69754, Note_on_c, 12, 59, 127
2, 69952, Note_off_c, 12, 59, 127
2, 69963, Note_on_c, 10, 57, 127
2, 70161, Note_off_c, 10, 57, 127
2, 70172, Note_on_c, 8, 56, 127
2, 70370, Note_off_c, 8, 56, 127
2, 70376, Note_off_c, 4, 64, 127
2, 70382, Note_on_c, 4, 64, 127
2, 70382, Note_on_c, 0, 48, 127
2, 70388, Note_off_c, 8, 68, 127
2, 70390, Note_off_c, 12, 71, 127
2, 70519, Note_on_c, 10, 69, 127
2, 70584, Note_off_c, 0, 48, 127
2, 70595, Note_on_c, 10, 57, 127
2, 70658, Note_on_c, 0, 72, 127
2, 70785, Note_off_c, 4, 76, 127
2, 70796, Note_on_c, 4, 76, 127
2, 70797, Note_off_c, 10, 57, 127
2, 70809, Note_on_c, 12, 59, 127
2, 71011, Note_off_c, 12, 59, 127
2, 71023, Note_on_c, 0, 60, 127
2, 71225, Note_off_c, 0, 60, 127
2, 71236, Note_on_c, 12, 59, 127
2, 71438, Note_off_c, 12, 59, 127
2, 71450, Note_on_c, 0, 60, 127
2, 71652, Note_off_c, 0, 60, 127
2, 71663, Note_on_c, 12, 59, 127
2, 71865, Note_off_c, 12, 59, 127
2, 71877, Note_on_c, 10, 57, 127
2, 72037, Note_off_c, 10, 69, 127
2, 72077, Note_off_c, 10, 57, 127
2, 72088, Note_off_c, 0, 72, 127
2, 72089, Note_on_c, 8, 56, 127
2, 72192, Note_on_c, 8, 68, 127
2, 72296, Note_off_c, 8, 56, 127
2, 72301, Note_on_c, 12, 71, 127
2, 72307, Note_on_c, 12, 59, 127
2, 72410, Note_on_c, 2, 74, 127
2, 72484, Note_off_c, 4, 76, 127
2, 72514, Note_off_c, 12, 59, 127
2, 72519, Note_on_c, 4, 76, 127
2, 72525, Note_on_c, 0, 60, 127
2, 72729, Note_off_c, 0, 60, 127
2, 72733, Note_off_c, 4, 64, 127
2, 72740, Note_on_c, 2, 62, 127
2, 72944, Note_off_c, 2, 62, 127
2, 72956, Note_on_c, 0, 60, 127
2, 73160, Note_off_c, 0, 60, 127
2, 73172, Note_on_c, 2, 62, 127
2, 73376, Note_off_c, 2, 62, 127
2, 73388, Note_on_c, 0, 60, 127
2, 73491, Note_off_c, 8, 68, 127
2, 73595, Note_off_c, 0, 60, 127
2, 73600, Note_off_c, 12, 71, 127
2, 73606, Note_on_c, 12, 59, 127
2, 73709, Note_off_c, 2, 74, 127
2, 73711, Note_off_c, 4, 76, 127
2, 73810, Note_off_c, 12, 59, 127
2, 73822, Note_on_c, 0, 72, 127
2, 73822, Note_on_c, 4, 76, 127
2, 73822, Note_on_c, 10, 57, 127
2, 73915, Note_off_c, 0, 72, 127
2, 73920, Note_on_c, 10, 81, 127
2, 73920, Note_on_c, 0, 60, 127
2, 73944, Note_off_c, 10, 57, 127
2, 73944, Note_off_c, 4, 76, 127
2, 74011, Note_off_c, 0, 60, 127
2, 74013, Note_off_c, 10, 81, 127
2, 74018, Note_on_c, 12, 83, 127
2, 74018, Note_on_c, 2, 62, 127
2, 74109, Note_off_c, 2, 62, 127
2, 74111, Note_off_c, 12, 83, 127
2, 74116, Note_on_c, 0, 84, 127
2, 74116, Note_on_c, 4, 64, 127
2, 74207, Note_off_c, 4, 64, 127
2, 74209, Note_off_c, 0, 84, 127
2, 74214, Note_on_c, 12, 83, 127
2, 74214, Note_on_c, 2, 62, 127
2, 74305, Note_off_c, 2, 62, 127
2, 74307, Note_off_c, 12, 83, 127
2, 74312, Note_on_c, 0, 84, 127
2, 74312, Note_on_c, 4, 64, 127
2, 74403, Note_off_c, 4, 64, 127
2, 74405, Note_off_c, 0, 84, 127
2, 74410, Note_on_c, 12, 83, 127
2, 74410, Note_on_c, 2, 62, 127
2, 74501, Note_off_c, 2, 62, 127
2, 74503, Note_off_c, 12, 83, 127
2, 74508, Note_on_c, 10, 81, 127
2, 74508, Note_on_c, 0, 60, 127
2, 74599, Note_off_c, 0, 60, 127
2, 74601, Note_off_c, 10, 81, 127
2, 74606, Note_on_c, 4, 76, 127
2, 74606, Note_on_c, 10, 57, 127
2, 74705, Note_on_c, 10, 81, 127
2, 74705, Note_on_c, 0, 60, 127
2, 74728, Note_off_c, 10, 57, 127
2, 74728, Note_off_c, 4, 76, 127
2, 74796, Note_off_c, 0, 60, 127
2, 74798, Note_off_c, 10, 81, 127
2, 74803, Note_on_c, 12, 83, 127
2, 74803, Note_on_c, 2, 62, 127
2, 74894, Note_off_c, 2, 62, 127
2, 74896, Note_off_c, 12, 83, 127
2, 74901, Note_on_c, 0, 84, 127
2, 74901, Note_on_c, 4, 64, 127
2, 74992, Note_off_c, 4, 64, 127
2, 74994, Note_off_c, 0, 84, 127
2, 74999, Note_on_c, 12, 83, 127
2, 74999, Note_on_c, 2, 62, 127
2, 75090, Note_off_c, 2, 62, 127
2, 75092, Note_off_c, 12, 83, 127
2, 75097, Note_on_c, 0, 84, 127
2, 75097, Note_on_c, 4, 64, 127
2, 75188, Note_off_c, 4, 64, 127
2, 75190, Note_off_c, 0, 84, 127
2, 75195, Note_on_c, 12, 83, 127
2, 75195, Note_on_c, 2, 62, 127
2, 75286, Note_off_c, 2, 62, 127
2, 75288, Note_off_c, 12, 83, 127
2, 75293, Note_on_c, 10, 81, 127
2, 75293, Note_on_c, 0, 60, 127
2, 75384, Note_off_c, 0, 60, 127
2, 75386, Note_off_c, 10, 81, 127
2, 75391, Note_on_c, 12, 83, 127
2, 75391, Note_on_c, 10, 57, 127
2, 75489, Note_on_c, 10, 81, 127
2, 75489, Note_on_c, 2, 62, 127
2, 75513, Note_off_c, 10, 57, 127
2, 75513, Note_off_c, 12, 83, 127
2, 75580, Note_off_c, 2, 62, 127
2, 75582, Note_off_c, 10, 81, 127
2, 75587, Note_on_c, 8, 80, 127
2, 75587, Note_on_c, 4, 64, 127
2, 75678, Note_off_c, 4, 64, 127
2, 75680, Note_off_c, 8, 80, 127
2, 75686, Note_on_c, 10, 81, 127
2, 75686, Note_on_c, 5, 65, 127
2, 75777, Note_off_c, 5, 65, 127
2, 75779, Note_off_c, 10, 81, 127
2, 75784, Note_on_c, 12, 83, 127
2, 75784, Note_on_c, 4, 64, 127
2, 75875, Note_off_c, 4, 64, 127
2, 75877, Note_off_c, 12, 83, 127
2, 75882, Note_on_c, 10, 81, 127
2, 75882, Note_on_c, 5, 65, 127
2, 75973, Note_off_c, 5, 65, 127
2, 75975, Note_off_c, 10, 81, 127
2, 75980, Note_on_c, 8, 80, 127
2, 75980, Note_on_c, 4, 64, 127
2, 76071, Note_off_c, 4, 64, 127
2, 76073, Note_off_c, 8, 80, 127
2, 76078, Note_on_c, 10, 81, 127
2, 76078, Note_on_c, 2, 62, 127
2, 76169, Note_off_c, 2, 62, 127
2, 76171, Note_off_c, 10, 81, 127
2, 76176, Note_on_c, 2, 74, 127
2, 76176, Note_on_c, 10, 57, 127
2, 76274, Note_on_c, 2, 62, 127
2, 76298, Note_off_c, 10, 57, 127
2, 76365, Note_off_c, 2, 62, 127
2, 76367, Note_off_c, 2, 74, 127
2, 76372, Note_on_c, 12, 83, 127
2, 76372, Note_on_c, 4, 64, 127
2, 76463, Note_off_c, 4, 64, 127
2, 76470, Note_on_c, 5, 65, 127
2, 76561, Note_off_c, 5, 65, 127
2, 76568, Note_on_c, 4, 64, 127
2, 76659, Note_off_c, 4, 64, 127
2, 76661, Note_off_c, 12, 83, 127
2, 76667, Note_on_c, 10, 81, 127
2, 76667, Note_on_c, 5, 65, 127
2, 76758, Note_off_c, 5, 65, 127
2, 76760, Note_off_c, 10, 81, 127
2, 76765, Note_on_c, 8, 80, 127
2, 76765, Note_on_c, 4, 64, 127
2, 76856, Note_off_c, 4, 64, 127
2, 76858, Note_off_c, 8, 80, 127
2, 76863, Note_on_c, 10, 81, 127
2, 76863, Note_on_c, 2, 62, 127
2, 76954, Note_off_c, 2, 62, 127
2, 76956, Note_off_c, 10, 81, 127
2, 76961, Note_on_c, 5, 77, 127
2, 76961, Note_on_c, 8, 56, 127
2, 77059, Note_on_c, 12, 71, 127
2, 77059, Note_on_c, 2, 62, 127
2, 77083, Note_off_c, 8, 56, 127
2, 77083, Note_off_c, 5, 77, 127
2, 77150, Note_off_c, 2, 62, 127
2, 77152, Note_off_c, 12, 71, 127
2, 77157, Note_on_c, 0, 72, 127
2, 77157, Note_on_c, 4, 64, 127
2, 77248, Note_off_c, 4, 64, 127
2, 77250, Note_off_c, 0, 72, 127
2, 77255, Note_on_c, 2, 74, 127
2, 77255, Note_on_c, 5, 65, 127
2, 77346, Note_off_c, 5, 65, 127
2, 77348, Note_off_c, 2, 74, 127
2, 77353, Note_on_c, 0, 72, 127
2, 77353, Note_on_c, 4, 64, 127
2, 77444, Note_off_c, 4, 64, 127
2, 77446, Note_off_c, 0, 72, 127
2, 77451, Note_on_c, 2, 74, 127
2, 77451, Note_on_c, 5, 65, 127
2, 77542, Note_off_c, 5, 65, 127
2, 77544, Note_off_c, 2, 74, 127
2, 77549, Note_on_c, 0, 72, 127
2, 77549, Note_on_c, 4, 64, 127
2, 77640, Note_off_c, 4, 64, 127
2, 77642, Note_off_c, 0, 72, 127
2, 77648, Note_on_c, 12, 71, 127
2, 77648, Note_on_c, 2, 62, 127
2, 77739, Note_off_c, 2, 62, 127
2, 77741, Note_off_c, 12, 71, 127
2, 77746, Note_on_c, 4, 76, 127
2, 77746, Note_on_c, 8, 56, 127
2, 77844, Note_on_c, 2, 74, 127
2, 77844, Note_on_c, 12, 59, 127
2, 77868, Note_off_c, 8, 56, 127
2, 77868, Note_off_c, 4, 76, 127
2, 77935, Note_off_c, 12, 59, 127
2, 77937, Note_off_c, 2, 74, 127
2, 77942, Note_on_c, 4, 76, 127
2, 77942, Note_on_c, 0, 60, 127
2, 78033, Note_off_c, 0, 60, 127
2, 78035, Note_off_c, 4, 76, 127
2, 78040, Note_on_c, 5, 77, 127
2, 78040, Note_on_c, 2, 62, 127
2, 78131, Note_off_c, 2, 62, 127
2, 78133, Note_off_c, 5, 77, 127
2, 78138, Note_on_c, 4, 76, 127
2, 78138, Note_on_c, 0, 60, 127
2, 78229, Note_off_c, 0, 60, 127
2, 78231, Note_off_c, 4, 76, 127
2, 78236, Note_on_c, 5, 77, 127
2, 78236, Note_on_c, 2, 62, 127
2, 78327, Note_off_c, 2, 62, 127
2, 78329, Note_off_c, 5, 77, 127
2, 78334, Note_on_c, 4, 76, 127
2, 78334, Note_on_c, 0, 60, 127
2, 78425, Note_off_c, 0, 60, 127
2, 78427, Note_off_c, 4, 76, 127
2, 78432, Note_on_c, 2, 74, 127
2, 78432, Note_on_c, 12, 59, 127
2, 78523, Note_off_c, 12, 59, 127
2, 78525, Note_off_c, 2, 74, 127
2, 78530, Note_on_c, 0, 72, 127
2, 78530, Note_on_c, 10, 57, 127
2, 78629, Note_on_c, 8, 68, 127
2, 78629, Note_on_c, 12, 59, 127
2, 78652, Note_off_c, 10, 57, 127
2, 78652, Note_off_c, 0, 72, 127
2, 78720, Note_off_c, 12, 59, 127
2, 78722, Note_off_c, 8, 68, 127
2, 78727, Note_on_c, 10, 69, 127
2, 78727, Note_on_c, 0, 60, 127
2, 78818, Note_off_c, 0, 60, 127
2, 78820, Note_off_c, 10, 69, 127
2, 78825, Note_on_c, 12, 71, 127
2, 78825, Note_on_c, 2, 62, 127
2, 78916, Note_off_c, 2, 62, 127
2, 78918, Note_off_c, 12, 71, 127
2, 78923, Note_on_c, 10, 69, 127
2, 78923, Note_on_c, 0, 60, 127
2, 79014, Note_off_c, 0, 60, 127
2, 79016, Note_off_c, 10, 69, 127
2, 79021, Note_on_c, 8, 68, 127
2, 79021, Note_on_c, 2, 62, 127
2, 79112, Note_off_c, 2, 62, 127
2, 79114, Note_off_c, 8, 68, 127
2, 79119, Note_on_c, 10, 69, 127
2, 79119, Note_on_c, 0, 60, 127
2, 79210, Note_off_c, 0, 60, 127
2, 79212, Note_off_c, 10, 69, 127
2, 79217, Note_on_c, 12, 71, 127
2, 79217, Note_on_c, 12, 59, 127
2, 79308, Note_off_c, 12, 59, 127
2, 79310, Note_off_c, 12, 71, 127
2, 79315, Note_on_c, 0, 72, 127
2, 79315, Note_on_c, 10, 57, 127
2, 79413, Note_on_c, 10, 81, 127
2, 79413, Note_on_c, 12, 59, 127
2, 79437, Note_off_c, 10, 57, 127
2, 79437, Note_off_c, 0, 72, 127
2, 79504, Note_off_c, 12, 59, 127
2, 79506, Note_off_c, 10, 81, 127
2, 79511, Note_on_c, 7, 79, 127
2, 79511, Note_on_c, 0, 60, 127
2, 79602, Note_off_c, 0, 60, 127
2, 79604, Note_off_c, 7, 79, 127
2, 79610, Note_on_c, 5, 77, 127
2, 79610, Note_on_c, 2, 62, 127
2, 79701, Note_off_c, 2, 62, 127
2, 79703, Note_off_c, 5, 77, 127
2, 79708, Note_on_c, 4, 76, 127
2, 79708, Note_on_c, 0, 60, 127
2, 79799, Note_off_c, 0, 60, 127
2, 79801, Note_off_c, 4, 76, 127
2, 79806, Note_on_c, 5, 77, 127
2, 79806, Note_on_c, 2, 62, 127
2, 79897, Note_off_c, 2, 62, 127
2, 79899, Note_off_c, 5, 77, 127
2, 79904, Note_on_c, 4, 76, 127
2, 79904, Note_on_c, 0, 60, 127
2, 79995, Note_off_c, 0, 60, 127
2, 79997, Note_off_c, 4, 76, 127
2, 80002, Note_on_c, 2, 74, 127
2, 80002, Note_on_c, 12, 59, 127
2, 80093, Note_off_c, 12, 59, 127
2, 80095, Note_off_c, 2, 74, 127
2, 80100, Note_on_c, 1, 73, 127
2, 80100, Note_on_c, 10, 57, 127
2, 80198, Note_on_c, 4, 76, 127
2, 80198, Note_on_c, 1, 61, 127
2, 80243, Note_off_c, 10, 57, 127
2, 80243, Note_off_c, 1, 73, 127
2, 80289, Note_off_c, 1, 61, 127
2, 80291, Note_off_c, 4, 76, 127
2, 80296, Note_on_c, 6, 78, 127
2, 80296, Note_on_c, 2, 62, 127
2, 80387, Note_off_c, 2, 62, 127
2, 80389, Note_off_c, 6, 78, 127
2, 80394, Note_on_c, 7, 79, 127
2, 80394, Note_on_c, 4, 64, 127
2, 80485, Note_off_c, 4, 64, 127
2, 80487, Note_off_c, 7, 79, 127
2, 80492, Note_on_c, 6, 78, 127
2, 80492, Note_on_c, 2, 62, 127
2, 80583, Note_off_c, 2, 62, 127
2, 80585, Note_off_c, 6, 78, 127
2, 80591, Note_on_c, 7, 79, 127
2, 80591, Note_on_c, 4, 64, 127
2, 80682, Note_off_c, 4, 64, 127
2, 80684, Note_off_c, 7, 79, 127
2, 80689, Note_on_c, 6, 78, 127
2, 80689, Note_on_c, 2, 62, 127
2, 80780, Note_off_c, 2, 62, 127
2, 80782, Note_off_c, 6, 78, 127
2, 80787, Note_on_c, 4, 76, 127
2, 80787, Note_on_c, 1, 61, 127
2, 80878, Note_off_c, 1, 61, 127
2, 80880, Note_off_c, 4, 76, 127
2, 80885, Note_on_c, 3, 75, 127
2, 80885, Note_on_c, 6, 54, 127
2, 80983, Note_on_c, 6, 78, 127
2, 80983, Note_on_c, 3, 63, 127
2, 81048, Note_off_c, 6, 54, 127
2, 81048, Note_off_c, 3, 75, 127
2, 81074, Note_off_c, 3, 63, 127
2, 81076, Note_off_c, 6, 78, 127
2, 81081, Note_on_c, 7, 79, 127
2, 81081, Note_on_c, 4, 64, 127
2, 81172, Note_off_c, 4, 64, 127
2, 81174, Note_off_c, 7, 79, 127
2, 81179, Note_on_c, 10, 81, 127
2, 81179, Note_on_c, 6, 66, 127
2, 81270, Note_off_c, 6, 66, 127
2, 81272, Note_off_c, 10, 81, 127
2, 81277, Note_on_c, 7, 79, 127
2, 81277, Note_on_c, 4, 64, 127
2, 81368, Note_off_c, 4, 64, 127
2, 81370, Note_off_c, 7, 79, 127
2, 81375, Note_on_c, 10, 81, 127
2, 81375, Note_on_c, 6, 66, 127
2, 81466, Note_off_c, 6, 66, 127
2, 81468, Note_off_c, 10, 81, 127
2, 81473, Note_on_c, 7, 79, 127
2, 81473, Note_on_c, 4, 64, 127
2, 81564, Note_off_c, 4, 64, 127
2, 81566, Note_off_c, 7, 79, 127
2, 81572, Note_on_c, 6, 78, 127
2, 81572, Note_on_c, 3, 63, 127
2, 81663, Note_off_c, 3, 63, 127
2, 81665, Note_off_c, 6, 78, 127
2, 81670, Note_on_c, 7, 79, 127
2, 81670, Note_on_c, 4, 64, 127
2, 81768, Note_on_c, 7, 67, 127
2, 81768, Note_on_c, 4, 52, 127
2, 81853, Note_off_c, 4, 64, 127
2, 81853, Note_off_c, 7, 79, 127
2, 81859, Note_off_c, 4, 52, 127
2, 81861, Note_off_c, 7, 67, 127
2, 81866, Note_on_c, 10, 69, 127
2, 81866, Note_on_c, 6, 54, 127
2, 81957, Note_off_c, 6, 54, 127
2, 81959, Note_off_c, 10, 69, 127
2, 81964, Note_on_c, 12, 71, 127
2, 81964, Note_on_c, 7, 55, 127
2, 82055, Note_off_c, 7, 55, 127
2, 82057, Note_off_c, 12, 71, 127
2, 82062, Note_on_c, 10, 69, 127
2, 82062, Note_on_c, 6, 54, 127
2, 82153, Note_off_c, 6, 54, 127
2, 82155, Note_off_c, 10, 69, 127
2, 82160, Note_on_c, 12, 71, 127
2, 82160, Note_on_c, 7, 55, 127
2, 82251, Note_off_c, 7, 55, 127
2, 82253, Note_off_c, 12, 71, 127
2, 82258, Note_on_c, 10, 69, 127
2, 82258, Note_on_c, 6, 54, 127
2, 82349, Note_off_c, 6, 54, 127
2, 82351, Note_off_c, 10, 69, 127
2, 82356, Note_on_c, 7, 67, 127
2, 82356, Note_on_c, 4, 52, 127
2, 82447, Note_off_c, 4, 52, 127
2, 82449, Note_off_c, 7, 67, 127
2, 82454, Note_on_c, 5, 77, 127
2, 82454, Note_on_c, 2, 50, 127
2, 82545, Note_off_c, 2, 50, 127
2, 82553, Note_on_c, 8, 68, 127
2, 82553, Note_on_c, 4, 52, 127
2, 82637, Note_off_c, 5, 77, 127
2, 82644, Note_off_c, 4, 52, 127
2, 82646, Note_off_c, 8, 68, 127
2, 82651, Note_on_c, 10, 69, 127
2, 82651, Note_on_c, 5, 53, 127
2, 82742, Note_off_c, 5, 53, 127
2, 82744, Note_off_c, 10, 69, 127
2, 82749, Note_on_c, 12, 71, 127
2, 82749, Note_on_c, 7, 55, 127
2, 82840, Note_off_c, 7, 55, 127
2, 82842, Note_off_c, 12, 71, 127
2, 82847, Note_on_c, 10, 69, 127
2, 82847, Note_on_c, 5, 53, 127
2, 82938, Note_off_c, 5, 53, 127
2, 82940, Note_off_c, 10, 69, 127
2, 82945, Note_on_c, 12, 71, 127
2, 82945, Note_on_c, 7, 55, 127
2, 83036, Note_off_c, 7, 55, 127
2, 83038, Note_off_c, 12, 71, 127
2, 83043, Note_on_c, 10, 69, 127
2, 83043, Note_on_c, 5, 53, 127
2, 83134, Note_off_c, 5, 53, 127
2, 83136, Note_off_c, 10, 69, 127
2, 83141, Note_on_c, 8, 68, 127
2, 83141, Note_on_c, 4, 52, 127
2, 83232, Note_off_c, 4, 52, 127
2, 83234, Note_off_c, 8, 68, 127
2, 83239, Note_on_c, 4, 76, 127
2, 83239, Note_on_c, 0, 48, 127
2, 83337, Note_on_c, 10, 69, 127
2, 83337, Note_on_c, 6, 54, 127
2, 83422, Note_off_c, 0, 48, 127
2, 83422, Note_off_c, 4, 76, 127
2, 83428, Note_off_c, 6, 54, 127
2, 83430, Note_off_c, 10, 69, 127
2, 83435, Note_on_c, 12, 71, 127
2, 83435, Note_on_c, 8, 56, 127
2, 83526, Note_off_c, 8, 56, 127
2, 83528, Note_off_c, 12, 71, 127
2, 83534, Note_on_c, 0, 72, 127
2, 83534, Note_on_c, 10, 57, 127
2, 83625, Note_off_c, 10, 57, 127
2, 83627, Note_off_c, 0, 72, 127
2, 83632, Note_on_c, 12, 71, 127
2, 83632, Note_on_c, 8, 56, 127
2, 83723, Note_off_c, 8, 56, 127
2, 83725, Note_off_c, 12, 71, 127
2, 83730, Note_on_c, 0, 72, 127
2, 83730, Note_on_c, 10, 57, 127
2, 83821, Note_off_c, 10, 57, 127
2, 83823, Note_off_c, 0, 72, 127
2, 83828, Note_on_c, 12, 71, 127
2, 83828, Note_on_c, 8, 56, 127
2, 83919, Note_off_c, 8, 56, 127
2, 83921, Note_off_c, 12, 71, 127
2, 83926, Note_on_c, 10, 69, 127
2, 83926, Note_on_c, 6, 54, 127
2, 84017, Note_off_c, 6, 54, 127
2, 84019, Note_off_c, 10, 69, 127
2, 84024, Note_on_c, 2, 74, 127
2, 84024, Note_on_c, 12, 47, 127
2, 84122, Note_on_c, 12, 71, 127
2, 84122, Note_on_c, 8, 56, 127
2, 84167, Note_off_c, 12, 47, 127
2, 84167, Note_off_c, 2, 74, 127
2, 84213, Note_off_c, 8, 56, 127
2, 84215, Note_off_c, 12, 71, 127
2, 84220, Note_on_c, 0, 72, 127
2, 84220, Note_on_c, 10, 57, 127
2, 84311, Note_off_c, 10, 57, 127
2, 84313, Note_off_c, 0, 72, 127
2, 84318, Note_on_c, 2, 74, 127
2, 84318, Note_on_c, 12, 59, 127
2, 84409, Note_off_c, 12, 59, 127
2, 84411, Note_off_c, 2, 74, 127
2, 84416, Note_on_c, 0, 72, 127
2, 84416, Note_on_c, 10, 57, 127
2, 84507, Note_off_c, 10, 57, 127
2, 84509, Note_off_c, 0, 72, 127
2, 84515, Note_on_c, 2, 74, 127
2, 84515, Note_on_c, 12, 59, 127
2, 84606, Note_off_c, 12, 59, 127
2, 84608, Note_off_c, 2, 74, 127
2, 84613, Note_on_c, 0, 72, 127
2, 84613, Note_on_c, 10, 57, 127
2, 84704, Note_off_c, 10, 57, 127
2, 84706, Note_off_c, 0, 72, 127
2, 84711, Note_on_c, 12, 71, 127
2, 84711, Note_on_c, 8, 56, 127
2, 84802, Note_off_c, 8, 56, 127
2, 84804, Note_off_c, 12, 71, 127
2, 84809, Note_on_c, 0, 72, 127
2, 84809, Note_on_c, 10, 57, 127
2, 84907, Note_on_c, 10, 69, 127
2, 84907, Note_on_c, 10, 45, 127
2, 84992, Note_off_c, 10, 57, 127
2, 84992, Note_off_c, 0, 72, 127
2, 84998, Note_off_c, 10, 45, 127
2, 85000, Note_off_c, 10, 69, 127
2, 85005, Note_on_c, 8, 68, 127
2, 85005, Note_on_c, 12, 47, 127
2, 85096, Note_off_c, 12, 47, 127
2, 85098, Note_off_c, 8, 68, 127
2, 85103, Note_on_c, 10, 69, 127
2, 85103, Note_on_c, 0, 48, 127
2, 85194, Note_off_c, 0, 48, 127
2, 85196, Note_off_c, 10, 69, 127
2, 85201, Note_on_c, 4, 64, 127
2, 85201, Note_on_c, 12, 47, 127
2, 85292, Note_off_c, 12, 47, 127
2, 85299, Note_on_c, 10, 69, 127
2, 85299, Note_on_c, 0, 48, 127
2, 85384, Note_off_c, 4, 64, 127
2, 85390, Note_off_c, 0, 48, 127
2, 85392, Note_off_c, 10, 69, 127
2, 85397, Note_on_c, 8, 68, 127
2, 85397, Note_on_c, 12, 47, 127
2, 85488, Note_off_c, 12, 47, 127
2, 85490, Note_off_c, 8, 68, 127
2, 85496, Note_on_c, 10, 69, 127
2, 85496, Note_on_c, 10, 45, 127
2, 85587, Note_off_c, 10, 45, 127
2, 85589, Note_off_c, 10, 69, 127
2, 85594, Note_on_c, 0, 72, 127
2, 85594, Note_on_c, 7, 43, 127
2, 85685, Note_off_c, 7, 43, 127
2, 85692, Note_on_c, 10, 45, 127
2, 85783, Note_off_c, 10, 45, 127
2, 85790, Note_on_c, 12, 47, 127
2, 85881, Note_off_c, 12, 47, 127
2, 85888, Note_on_c, 0, 48, 127
2, 85979, Note_off_c, 0, 48, 127
2, 85986, Note_on_c, 12, 47, 127
2, 86077, Note_off_c, 12, 47, 127
2, 86084, Note_on_c, 0, 48, 127
2, 86175, Note_off_c, 0, 48, 127
2, 86182, Note_on_c, 12, 47, 127
2, 86273, Note_off_c, 12, 47, 127
2, 86280, Note_on_c, 10, 45, 127
2, 86371, Note_off_c, 10, 45, 127
2, 86378, Note_on_c, 6, 42, 127
2, 86472, Note_off_c, 0, 72, 127
2, 86477, Note_on_c, 10, 69, 127
2, 86477, Note_on_c, 10, 45, 127
2, 86561, Note_off_c, 6, 42, 127
2, 86568, Note_off_c, 10, 45, 127
2, 86570, Note_off_c, 10, 69, 127
2, 86575, Note_on_c, 8, 68, 127
2, 86575, Note_on_c, 12, 47, 127
2, 86666, Note_off_c, 12, 47, 127
2, 86668, Note_off_c, 8, 68, 127
2, 86673, Note_on_c, 10, 69, 127
2, 86673, Note_on_c, 0, 48, 127
2, 86764, Note_off_c, 0, 48, 127
2, 86766, Note_off_c, 10, 69, 127
2, 86771, Note_on_c, 3, 63, 127
2, 86771, Note_on_c, 12, 47, 127
2, 86862, Note_off_c, 12, 47, 127
2, 86869, Note_on_c, 10, 69, 127
2, 86869, Note_on_c, 0, 48, 127
2, 86911, Note_off_c, 3, 63, 127
2, 86960, Note_off_c, 0, 48, 127
2, 86962, Note_off_c, 10, 69, 127
2, 86967, Note_on_c, 8, 68, 127
2, 86967, Note_on_c, 12, 47, 127
2, 87058, Note_off_c, 12, 47, 127
2, 87060, Note_off_c, 8, 68, 127
2, 87065, Note_on_c, 10, 69, 127
2, 87065, Note_on_c, 10, 45, 127
2, 87156, Note_off_c, 10, 45, 127
2, 87158, Note_off_c, 10, 69, 127
2, 87163, Note_on_c, 0, 72, 127
2, 87163, Note_on_c, 4, 40, 127
2, 87261, Note_on_c, 10, 69, 127
2, 87261, Note_on_c, 10, 45, 127
2, 87346, Note_off_c, 4, 40, 127
2, 87346, Note_off_c, 0, 72, 127
2, 87352, Note_off_c, 10, 45, 127
2, 87354, Note_off_c, 10, 69, 127
2, 87359, Note_on_c, 8, 68, 127
2, 87359, Note_on_c, 12, 47, 127
2, 87450, Note_off_c, 12, 47, 127
2, 87452, Note_off_c, 8, 68, 127
2, 87458, Note_on_c, 10, 69, 127
2, 87458, Note_on_c, 0, 48, 127
2, 87549, Note_off_c, 0, 48, 127
2, 87551, Note_off_c, 10, 69, 127
2, 87556, Note_on_c, 4, 64, 127
2, 87556, Note_on_c, 12, 47, 127
2, 87647, Note_off_c, 12, 47, 127
2, 87654, Note_on_c, 10, 69, 127
2, 87654, Note_on_c, 0, 48, 127
2, 87696, Note_off_c, 4, 64, 127
2, 87745, Note_off_c, 0, 48, 127
2, 87747, Note_off_c, 10, 69, 127
2, 87752, Note_on_c, 8, 68, 127
2, 87752, Note_on_c, 12, 47, 127
2, 87843, Note_off_c, 12, 47, 127
2, 87845, Note_off_c, 8, 68, 127
2, 87850, Note_on_c, 10, 69, 127
2, 87850, Note_on_c, 10, 45, 127
2, 87941, Note_off_c, 10, 45, 127
2, 87943, Note_off_c, 10, 69, 127
2, 87948, Note_on_c, 0, 72, 127
2, 87948, Note_on_c, 3, 39, 127
2, 88046, Note_on_c, 6, 66, 127
2, 88046, Note_on_c, 10, 45, 127
2, 88131, Note_off_c, 3, 39, 127
2, 88131, Note_off_c, 0, 72, 127
2, 88137, Note_off_c, 10, 45, 127
2, 88139, Note_off_c, 6, 66, 127
2, 88144, Note_on_c, 7, 67, 127
2, 88144, Note_on_c, 12, 47, 127
2, 88235, Note_off_c, 12, 47, 127
2, 88237, Note_off_c, 7, 67, 127
2, 88242, Note_on_c, 10, 69, 127
2, 88242, Note_on_c, 0, 48, 127
2, 88333, Note_off_c, 0, 48, 127
2, 88335, Note_off_c, 10, 69, 127
2, 88340, Note_on_c, 7, 67, 127
2, 88340, Note_on_c, 12, 47, 127
2, 88431, Note_off_c, 12, 47, 127
2, 88433, Note_off_c, 7, 67, 127
2, 88439, Note_on_c, 6, 66, 127
2, 88439, Note_on_c, 0, 48, 127
2, 88530, Note_off_c, 0, 48, 127
2, 88532, Note_off_c, 6, 66, 127
2, 88537, Note_on_c, 4, 64, 127
2, 88537, Note_on_c, 12, 47, 127
2, 88628, Note_off_c, 12, 47, 127
2, 88630, Note_off_c, 4, 64, 127
2, 88635, Note_on_c, 3, 63, 127
2, 88635, Note_on_c, 10, 45, 127
2, 88726, Note_off_c, 10, 45, 127
2, 88728, Note_off_c, 3, 63, 127
2, 88733, Note_on_c, 12, 71, 127
2, 88733, Note_on_c, 4, 40, 127
2, 88831, Note_on_c, 4, 64, 127
2, 88831, Note_on_c, 7, 43, 127
2, 88916, Note_off_c, 4, 40, 127
2, 88916, Note_off_c, 12, 71, 127
2, 88922, Note_off_c, 7, 43, 127
2, 88924, Note_off_c, 4, 64, 127
2, 88929, Note_on_c, 6, 66, 127
2, 88929, Note_on_c, 10, 45, 127
2, 89020, Note_off_c, 10, 45, 127
2, 89022, Note_off_c, 6, 66, 127
2, 89027, Note_on_c, 7, 67, 127
2, 89027, Note_on_c, 12, 47, 127
2, 89118, Note_off_c, 12, 47, 127
2, 89120, Note_off_c, 7, 67, 127
2, 89125, Note_on_c, 6, 66, 127
2, 89125, Note_on_c, 10, 45, 127
2, 89216, Note_off_c, 10, 45, 127
2, 89218, Note_off_c, 6, 66, 127
2, 89223, Note_on_c, 4, 64, 127
2, 89223, Note_on_c, 12, 47, 127
2, 89314, Note_off_c, 12, 47, 127
2, 89316, Note_off_c, 4, 64, 127
2, 89321, Note_on_c, 3, 63, 127
2, 89321, Note_on_c, 10, 45, 127
2, 89412, Note_off_c, 10, 45, 127
2, 89414, Note_off_c, 3, 63, 127
2, 89420, Note_on_c, 4, 64, 127
2, 89420, Note_on_c, 7, 43, 127
2, 89511, Note_off_c, 7, 43, 127
2, 89513, Note_off_c, 4, 64, 127
2, 89518, Note_on_c, 10, 69, 127
2, 89518, Note_on_c, 0, 36, 127
2, 89646, Note_on_c, 7, 79, 127
2, 89737, Note_off_c, 7, 79, 127
2, 89741, Note_on_c, 10, 81, 127
2, 89794, Note_off_c, 10, 69, 127
2, 89834, Note_off_c, 10, 81, 127
2, 89840, Note_on_c, 12, 83, 127
2, 89931, Note_off_c, 12, 83, 127
2, 89935, Note_on_c, 10, 81, 127
2, 90026, Note_off_c, 10, 81, 127
2, 90031, Note_on_c, 12, 83, 127
2, 90122, Note_off_c, 12, 83, 127
2, 90127, Note_on_c, 10, 81, 127
2, 90218, Note_off_c, 10, 81, 127
2, 90223, Note_on_c, 7, 79, 127
2, 90278, Note_off_c, 0, 36, 127
2, 90314, Note_off_c, 7, 79, 127
2, 90319, Note_on_c, 10, 69, 127
2, 90415, Note_on_c, 6, 78, 127
2, 90415, Note_on_c, 10, 57, 127
2, 90504, Note_off_c, 10, 57, 127
2, 90506, Note_off_c, 6, 78, 127
2, 90511, Note_on_c, 7, 79, 127
2, 90511, Note_on_c, 12, 59, 127
2, 90600, Note_off_c, 12, 59, 127
2, 90602, Note_off_c, 7, 79, 127
2, 90607, Note_on_c, 10, 81, 127
2, 90607, Note_on_c, 0, 60, 127
2, 90696, Note_off_c, 0, 60, 127
2, 90698, Note_off_c, 10, 81, 127
2, 90703, Note_on_c, 7, 79, 127
2, 90703, Note_on_c, 12, 59, 127
2, 90792, Note_off_c, 12, 59, 127
2, 90794, Note_off_c, 7, 79, 127
2, 90799, Note_on_c, 10, 81, 127
2, 90799, Note_on_c, 0, 60, 127
2, 90888, Note_off_c, 0, 60, 127
2, 90890, Note_off_c, 10, 81, 127
2, 90895, Note_on_c, 7, 79, 127
2, 90895, Note_on_c, 12, 59, 127
2, 90984, Note_off_c, 12, 59, 127
2, 90986, Note_off_c, 7, 79, 127
2, 90991, Note_on_c, 6, 78, 127
2, 90991, Note_on_c, 10, 57, 127
2, 91077, Note_off_c, 10, 69, 127
2, 91080, Note_off_c, 10, 57, 127
2, 91082, Note_off_c, 6, 78, 127
2, 91087, Note_on_c, 11, 70, 127
2, 91087, Note_on_c, 1, 49, 127
2, 91182, Note_on_c, 4, 76, 127
2, 91273, Note_off_c, 4, 76, 127
2, 91278, Note_on_c, 6, 78, 127
2, 91369, Note_off_c, 6, 78, 127
2, 91374, Note_on_c, 7, 79, 127
2, 91465, Note_off_c, 7, 79, 127
2, 91470, Note_on_c, 6, 78, 127
2, 91561, Note_off_c, 6, 78, 127
2, 91566, Note_on_c, 7, 79, 127
2, 91647, Note_off_c, 1, 49, 127
2, 91647, Note_off_c, 11, 70, 127
2, 91659, Note_off_c, 7, 79, 127
2, 91664, Note_on_c, 6, 78, 127
2, 91755, Note_off_c, 6, 78, 127
2, 91760, Note_on_c, 4, 76, 127
2, 91851, Note_off_c, 4, 76, 127
2, 91856, Note_on_c, 3, 75, 127
2, 91856, Note_on_c, 12, 47, 127
2, 91950, Note_on_c, 10, 69, 127
2, 91950, Note_on_c, 6, 54, 127
2, 92039, Note_off_c, 6, 54, 127
2, 92041, Note_off_c, 10, 69, 127
2, 92046, Note_on_c, 12, 71, 127
2, 92046, Note_on_c, 7, 55, 127
2, 92132, Note_off_c, 12, 47, 127
2, 92135, Note_off_c, 7, 55, 127
2, 92137, Note_off_c, 12, 71, 127
2, 92142, Note_on_c, 0, 72, 127
2, 92142, Note_on_c, 10, 57, 127
2, 92231, Note_off_c, 10, 57, 127
2, 92233, Note_off_c, 0, 72, 127
2, 92238, Note_on_c, 12, 71, 127
2, 92238, Note_on_c, 7, 55, 127
2, 92327, Note_off_c, 7, 55, 127
2, 92329, Note_off_c, 12, 71, 127
2, 92333, Note_on_c, 0, 72, 127
2, 92333, Note_on_c, 10, 57, 127
2, 92422, Note_off_c, 10, 57, 127
2, 92424, Note_off_c, 0, 72, 127
2, 92429, Note_on_c, 12, 71, 127
2, 92429, Note_on_c, 7, 55, 127
2, 92518, Note_off_c, 7, 55, 127
2, 92520, Note_off_c, 12, 71, 127
2, 92525, Note_on_c, 10, 69, 127
2, 92525, Note_on_c, 6, 54, 127
2, 92612, Note_off_c, 3, 75, 127
2, 92614, Note_off_c, 6, 54, 127
2, 92616, Note_off_c, 10, 69, 127
2, 92621, Note_on_c, 7, 67, 127
2, 92621, Note_on_c, 12, 47, 127
2, 92715, Note_on_c, 12, 71, 127
2, 92715, Note_on_c, 7, 55, 127
2, 92804, Note_off_c, 7, 55, 127
2, 92806, Note_off_c, 12, 71, 127
2, 92811, Note_on_c, 0, 72, 127
2, 92811, Note_on_c, 10, 57, 127
2, 92897, Note_off_c, 12, 47, 127
2, 92900, Note_off_c, 10, 57, 127
2, 92902, Note_off_c, 0, 72, 127
2, 92907, Note_on_c, 2, 74, 127
2, 92907, Note_on_c, 12, 59, 127
2, 92996, Note_off_c, 12, 59, 127
2, 92998, Note_off_c, 2, 74, 127
2, 93003, Note_on_c, 0, 72, 127
2, 93003, Note_on_c, 10, 57, 127
2, 93092, Note_off_c, 10, 57, 127
2, 93094, Note_off_c, 0, 72, 127
2, 93099, Note_on_c, 2, 74, 127
2, 93099, Note_on_c, 12, 59, 127
2, 93188, Note_off_c, 12, 59, 127
2, 93190, Note_off_c, 2, 74, 127
2, 93195, Note_on_c, 0, 72, 127
2, 93195, Note_on_c, 10, 57, 127
2, 93284, Note_off_c, 10, 57, 127
2, 93286, Note_off_c, 0, 72, 127
2, 93291, Note_on_c, 12, 71, 127
2, 93291, Note_on_c, 7, 55, 127
2, 93377, Note_off_c, 7, 67, 127
2, 93380, Note_off_c, 7, 55, 127
2, 93382, Note_off_c, 12, 71, 127
2, 93386, Note_on_c, 10, 69, 127
2, 93386, Note_on_c, 12, 47, 127
2, 93480, Note_on_c, 6, 66, 127
2, 93480, Note_on_c, 10, 57, 127
2, 93569, Note_off_c, 10, 57, 127
2, 93571, Note_off_c, 6, 66, 127
2, 93576, Note_on_c, 7, 67, 127
2, 93576, Note_on_c, 12, 59, 127
2, 93658, Note_off_c, 12, 47, 127
2, 93662, Note_off_c, 10, 69, 127
2, 93665, Note_off_c, 12, 59, 127
2, 93667, Note_off_c, 7, 67, 127
2, 93672, Note_on_c, 10, 69, 127
2, 93672, Note_on_c, 0, 60, 127
2, 93761, Note_off_c, 0, 60, 127
2, 93763, Note_off_c, 10, 69, 127
2, 93768, Note_on_c, 7, 67, 127
2, 93768, Note_on_c, 12, 59, 127
2, 93857, Note_off_c, 12, 59, 127
2, 93859, Note_off_c, 7, 67, 127
2, 93864, Note_on_c, 10, 69, 127
2, 93864, Note_on_c, 0, 60, 127
2, 93953, Note_off_c, 0, 60, 127
2, 93955, Note_off_c, 10, 69, 127
2, 93960, Note_on_c, 7, 67, 127
2, 93960, Note_on_c, 12, 59, 127
2, 94049, Note_off_c, 12, 59, 127
2, 94051, Note_off_c, 7, 67, 127
2, 94056, Note_on_c, 6, 66, 127
2, 94056, Note_on_c, 10, 57, 127
2, 94145, Note_off_c, 10, 57, 127
2, 94147, Note_off_c, 6, 66, 127
2, 94152, Note_on_c, 4, 64, 127
2, 94152, Note_on_c, 12, 47, 127
2, 94245, Note_on_c, 7, 67, 127
2, 94245, Note_on_c, 12, 59, 127
2, 94334, Note_off_c, 12, 59, 127
2, 94336, Note_off_c, 7, 67, 127
2, 94341, Note_off_c, 12, 47, 127
2, 94341, Note_on_c, 10, 69, 127
2, 94341, Note_on_c, 0, 60, 127
2, 94430, Note_off_c, 0, 60, 127
2, 94432, Note_off_c, 10, 69, 127
2, 94437, Note_on_c, 12, 71, 127
2, 94437, Note_on_c, 2, 62, 127
2, 94526, Note_off_c, 2, 62, 127
2, 94528, Note_off_c, 12, 71, 127
2, 94533, Note_on_c, 10, 69, 127
2, 94533, Note_on_c, 0, 60, 127
2, 94622, Note_off_c, 0, 60, 127
2, 94624, Note_off_c, 10, 69, 127
2, 94629, Note_on_c, 12, 71, 127
2, 94629, Note_on_c, 2, 62, 127
2, 94718, Note_off_c, 2, 62, 127
2, 94720, Note_off_c, 12, 71, 127
2, 94725, Note_on_c, 10, 69, 127
2, 94725, Note_on_c, 0, 60, 127
2, 94814, Note_off_c, 0, 60, 127
2, 94816, Note_off_c, 10, 69, 127
2, 94821, Note_on_c, 7, 67, 127
2, 94821, Note_on_c, 12, 59, 127
2, 94908, Note_off_c, 4, 64, 127
2, 94910, Note_off_c, 12, 59, 127
2, 94912, Note_off_c, 7, 67, 127
2, 94917, Note_on_c, 3, 63, 127
2, 94917, Note_on_c, 12, 47, 127
2, 95011, Note_on_c, 6, 66, 127
2, 95011, Note_on_c, 10, 57, 127
2, 95100, Note_off_c, 10, 57, 127
2, 95102, Note_off_c, 6, 66, 127
2, 95106, Note_on_c, 7, 67, 127
2, 95106, Note_on_c, 12, 59, 127
2, 95193, Note_off_c, 12, 47, 127
2, 95195, Note_off_c, 12, 59, 127
2, 95197, Note_off_c, 7, 67, 127
2, 95202, Note_on_c, 10, 69, 127
2, 95202, Note_on_c, 0, 60, 127
2, 95291, Note_off_c, 0, 60, 127
2, 95293, Note_off_c, 10, 69, 127
2, 95298, Note_on_c, 7, 67, 127
2, 95298, Note_on_c, 12, 59, 127
2, 95387, Note_off_c, 12, 59, 127
2, 95389, Note_off_c, 7, 67, 127
2, 95394, Note_on_c, 10, 69, 127
2, 95394, Note_on_c, 0, 60, 127
2, 95472, Note_off_c, 3, 63, 127
2, 95483, Note_off_c, 0, 60, 127
2, 95485, Note_off_c, 10, 69, 127
2, 95490, Note_on_c, 7, 67, 127
2, 95490, Note_on_c, 12, 59, 127
2, 95579, Note_off_c, 12, 59, 127
2, 95581, Note_off_c, 7, 67, 127
2, 95586, Note_on_c, 6, 66, 127
2, 95586, Note_on_c, 10, 57, 127
2, 95675, Note_off_c, 10, 57, 127
2, 95677, Note_off_c, 6, 66, 127
2, 95682, Note_on_c, 1, 61, 127
2, 95682, Note_on_c, 12, 47, 127
2, 95776, Note_on_c, 4, 64, 127
2, 95776, Note_on_c, 7, 55, 127
2, 95865, Note_off_c, 7, 55, 127
2, 95867, Note_off_c, 4, 64, 127
2, 95872, Note_on_c, 6, 66, 127
2, 95872, Note_on_c, 10, 57, 127
2, 95958, Note_off_c, 12, 47, 127
2, 95961, Note_off_c, 10, 57, 127
2, 95963, Note_off_c, 6, 66, 127
2, 95968, Note_on_c, 7, 67, 127
2, 95968, Note_on_c, 12, 59, 127
2, 96057, Note_off_c, 12, 59, 127
2, 96059, Note_off_c, 7, 67, 127
2, 96059, Note_off_c, 1, 61, 127
2, 96063, Note_on_c, 6, 66, 127
2, 96063, Note_on_c, 10, 57, 127
2, 96152, Note_off_c, 10, 57, 127
2, 96154, Note_off_c, 6, 66, 127
2, 96159, Note_on_c, 7, 67, 127
2, 96159, Note_on_c, 12, 59, 127
2, 96248, Note_off_c, 12, 59, 127
2, 96250, Note_off_c, 7, 67, 127
2, 96255, Note_on_c, 6, 66, 127
2, 96255, Note_on_c, 10, 57, 127
2, 96344, Note_off_c, 10, 57, 127
2, 96346, Note_off_c, 6, 66, 127
2, 96351, Note_on_c, 4, 64, 127
2, 96351, Note_on_c, 7, 55, 127
2, 96440, Note_off_c, 7, 55, 127
2, 96442, Note_off_c, 4, 64, 127
2, 96447, Note_on_c, 3, 63, 127
2, 96447, Note_on_c, 12, 47, 127
2, 96541, Note_on_c, 10, 57, 127
2, 96541, Note_on_c, 6, 54, 127
2, 96630, Note_off_c, 6, 54, 127
2, 96632, Note_off_c, 10, 57, 127
2, 96637, Note_on_c, 12, 59, 127
2, 96637, Note_on_c, 7, 55, 127
2, 96723, Note_off_c, 12, 47, 127
2, 96726, Note_off_c, 7, 55, 127
2, 96728, Note_off_c, 12, 59, 127
2, 96733, Note_on_c, 0, 60, 127
2, 96733, Note_on_c, 10, 57, 127
2, 96822, Note_off_c, 10, 57, 127
2, 96824, Note_off_c, 0, 60, 127
2, 96829, Note_on_c, 12, 59, 127
2, 96829, Note_on_c, 7, 55, 127
2, 96918, Note_off_c, 7, 55, 127
2, 96920, Note_off_c, 12, 59, 127
2, 96925, Note_on_c, 0, 60, 127
2, 96925, Note_on_c, 10, 57, 127
2, 97002, Note_off_c, 3, 63, 127
2, 97014, Note_off_c, 10, 57, 127
2, 97016, Note_off_c, 0, 60, 127
2, 97020, Note_on_c, 12, 59, 127
2, 97020, Note_on_c, 7, 55, 127
2, 97109, Note_off_c, 7, 55, 127
2, 97111, Note_off_c, 12, 59, 127
2, 97116, Note_on_c, 10, 57, 127
2, 97116, Note_on_c, 6, 54, 127
2, 97205, Note_off_c, 6, 54, 127
2, 97207, Note_off_c, 10, 57, 127
2, 97212, Note_on_c, 12, 59, 127
2, 97212, Note_on_c, 7, 55, 127
2, 97404, Note_off_c, 12, 59, 127
2, 97409, Note_on_c, 1, 61, 127
2, 97409, Note_on_c, 12, 59, 127
2, 97412, Note_off_c, 7, 55, 127
2, 97494, Note_off_c, 12, 59, 127
2, 97498, Note_off_c, 1, 61, 127
2, 97507, Note_on_c, 10, 57, 127
2, 97507, Note_on_c, 3, 63, 127
2, 97582, Note_off_c, 10, 57, 127
2, 97584, Note_off_c, 3, 63, 127
2, 97595, Note_on_c, 7, 55, 127
2, 97595, Note_on_c, 4, 64, 127
2, 97670, Note_off_c, 7, 55, 127
2, 97672, Note_off_c, 4, 64, 127
2, 97680, Note_on_c, 6, 54, 127
2, 97680, Note_on_c, 6, 66, 127
2, 97755, Note_off_c, 6, 54, 127
2, 97757, Note_off_c, 6, 66, 127
2, 97767, Note_on_c, 4, 52, 127
2, 97767, Note_on_c, 7, 67, 127
2, 97842, Note_off_c, 4, 52, 127
2, 97844, Note_off_c, 7, 67, 127
2, 97853, Note_on_c, 3, 51, 127
2, 97853, Note_on_c, 10, 69, 127
2, 97928, Note_off_c, 3, 51, 127
2, 97930, Note_off_c, 10, 69, 127
2, 97939, Note_on_c, 6, 54, 127
2, 97939, Note_on_c, 12, 71, 127
2, 98014, Note_off_c, 6, 54, 127
2, 98016, Note_off_c, 12, 71, 127
2, 98026, Note_on_c, 12, 47, 127
2, 98026, Note_on_c, 0, 72, 127
2, 98186, Note_on_c, 6, 66, 127
2, 98186, Note_on_c, 3, 51, 127
2, 98277, Note_off_c, 3, 51, 127
2, 98279, Note_off_c, 6, 66, 127
2, 98285, Note_on_c, 7, 67, 127
2, 98285, Note_on_c, 4, 52, 127
2, 98376, Note_off_c, 4, 52, 127
2, 98378, Note_off_c, 7, 67, 127
2, 98386, Note_on_c, 10, 69, 127
2, 98386, Note_on_c, 6, 54, 127
2, 98477, Note_off_c, 6, 54, 127
2, 98479, Note_off_c, 10, 69, 127
2, 98486, Note_on_c, 7, 67, 127
2, 98486, Note_on_c, 4, 52, 127
2, 98577, Note_off_c, 4, 52, 127
2, 98579, Note_off_c, 7, 67, 127
2, 98587, Note_on_c, 10, 69, 127
2, 98587, Note_on_c, 6, 54, 127
2, 98678, Note_off_c, 6, 54, 127
2, 98680, Note_off_c, 10, 69, 127
2, 98687, Note_on_c, 7, 67, 127
2, 98687, Note_on_c, 4, 52, 127
2, 98778, Note_off_c, 4, 52, 127
2, 98780, Note_off_c, 7, 67, 127
2, 98788, Note_on_c, 6, 66, 127
2, 98788, Note_on_c, 3, 51, 127
2, 98866, Note_off_c, 0, 72, 127
2, 98866, Note_off_c, 12, 47, 127
2, 98879, Note_off_c, 3, 51, 127
2, 98881, Note_off_c, 6, 66, 127
2, 98889, Note_on_c, 1, 73, 127
2, 98889, Note_on_c, 12, 47, 127
2, 98989, Note_on_c, 7, 67, 127
2, 98989, Note_on_c, 4, 52, 127
2, 99080, Note_off_c, 4, 52, 127
2, 99082, Note_off_c, 7, 67, 127
2, 99089, Note_on_c, 10, 69, 127
2, 99089, Note_on_c, 6, 54, 127
2, 99180, Note_off_c, 6, 54, 127
2, 99182, Note_off_c, 10, 69, 127
2, 99190, Note_on_c, 12, 71, 127
2, 99190, Note_on_c, 7, 55, 127
2, 99281, Note_off_c, 7, 55, 127
2, 99283, Note_off_c, 12, 71, 127
2, 99290, Note_on_c, 10, 69, 127
2, 99290, Note_on_c, 6, 54, 127
2, 99381, Note_off_c, 6, 54, 127
2, 99383, Note_off_c, 10, 69, 127
2, 99390, Note_on_c, 12, 71, 127
2, 99390, Note_on_c, 7, 55, 127
2, 99481, Note_off_c, 7, 55, 127
2, 99483, Note_off_c, 12, 71, 127
2, 99491, Note_on_c, 10, 69, 127
2, 99491, Note_on_c, 6, 54, 127
2, 99582, Note_off_c, 6, 54, 127
2, 99584, Note_off_c, 10, 69, 127
2, 99591, Note_on_c, 7, 67, 127
2, 99591, Note_on_c, 4, 52, 127
2, 99682, Note_off_c, 4, 52, 127
2, 99682, Note_off_c, 12, 47, 127
2, 99682, Note_off_c, 1, 73, 127
2, 99684, Note_off_c, 7, 67, 127
2, 99692, Note_on_c, 3, 75, 127
2, 99692, Note_on_c, 12, 47, 127
2, 99791, Note_on_c, 10, 69, 127
2, 99791, Note_on_c, 6, 54, 127
2, 99882, Note_off_c, 6, 54, 127
2, 99884, Note_off_c, 10, 69, 127
2, 99892, Note_on_c, 12, 71, 127
2, 99892, Note_on_c, 7, 55, 127
2, 99983, Note_off_c, 7, 55, 127
2, 99985, Note_off_c, 12, 71, 127
2, 99993, Note_on_c, 0, 72, 127
2, 99993, Note_on_c, 10, 57, 127
2, 100084, Note_off_c, 10, 57, 127
2, 100086, Note_off_c, 0, 72, 127
2, 100093, Note_on_c, 12, 71, 127
2, 100093, Note_on_c, 7, 55, 127
2, 100184, Note_off_c, 7, 55, 127
2, 100186, Note_off_c, 12, 71, 127
2, 100193, Note_on_c, 0, 72, 127
2, 100193, Note_on_c, 10, 57, 127
2, 100284, Note_off_c, 10, 57, 127
2, 100286, Note_off_c, 0, 72, 127
2, 100294, Note_on_c, 12, 71, 127
2, 100294, Note_on_c, 7, 55, 127
2, 100385, Note_off_c, 7, 55, 127
2, 100387, Note_off_c, 12, 71, 127
2, 100395, Note_on_c, 10, 69, 127
2, 100395, Note_on_c, 6, 54, 127
2, 100484, Note_off_c, 10, 69, 127
2, 100485, Note_off_c, 12, 47, 127
2, 100485, Note_off_c, 3, 75, 127
2, 100486, Note_off_c, 6, 54, 127
2, 100496, Note_on_c, 4, 76, 127
2, 100496, Note_on_c, 7, 67, 127
2, 100496, Note_on_c, 4, 52, 127
2, 100496, Note_on_c, 0, 48, 127
2, 100731, Note_off_c, 4, 76, 127
2, 100737, Note_on_c, 2, 74, 127
2, 100826, Note_off_c, 2, 74, 127
2, 100829, Note_on_c, 0, 72, 127
2, 100918, Note_off_c, 0, 72, 127
2, 100921, Note_on_c, 12, 71, 127
2, 101006, Note_off_c, 7, 67, 127
2, 101010, Note_off_c, 12, 71, 127
2, 101013, Note_on_c, 10, 69, 127
2, 101079, Note_off_c, 0, 48, 127
2, 101079, Note_off_c, 4, 52, 127
2, 101102, Note_off_c, 10, 69, 127
2, 101104, Note_on_c, 7, 67, 127
2, 101191, Note_off_c, 7, 67, 127
2, 101194, Note_on_c, 6, 66, 127
2, 101283, Note_off_c, 6, 66, 127
2, 101286, Note_on_c, 4, 64, 127
2, 101375, Note_off_c, 4, 64, 127
2, 101377, Note_on_c, 10, 45, 127
2, 101377, Note_on_c, 0, 72, 127
2, 101548, Note_on_c, 12, 47, 127
2, 101548, Note_on_c, 12, 71, 127
2, 101557, Note_off_c, 0, 72, 127
2, 101557, Note_off_c, 10, 45, 127
2, 101648, Note_off_c, 12, 47, 127
2, 101650, Note_off_c, 12, 71, 127
2, 101655, Note_on_c, 0, 48, 127
2, 101655, Note_on_c, 10, 69, 127
2, 101755, Note_off_c, 0, 48, 127
2, 101757, Note_off_c, 10, 69, 127
2, 101762, Note_on_c, 2, 50, 127
2, 101762, Note_on_c, 7, 67, 127
2, 101862, Note_off_c, 2, 50, 127
2, 101864, Note_off_c, 7, 67, 127
2, 101869, Note_on_c, 4, 52, 127
2, 101869, Note_on_c, 6, 66, 127
2, 101969, Note_off_c, 4, 52, 127
2, 101971, Note_off_c, 6, 66, 127
2, 101975, Note_on_c, 6, 54, 127
2, 101975, Note_on_c, 4, 64, 127
2, 102075, Note_off_c, 6, 54, 127
2, 102077, Note_off_c, 4, 64, 127
2, 102082, Note_on_c, 8, 56, 127
2, 102082, Note_on_c, 3, 63, 127
2, 102182, Note_off_c, 8, 56, 127
2, 102184, Note_off_c, 3, 63, 127
2, 102189, Note_on_c, 10, 57, 127
2, 102189, Note_on_c, 1, 61, 127
2, 102289, Note_off_c, 10, 57, 127
2, 102291, Note_off_c, 1, 61, 127
2, 102296, Note_on_c, 12, 47, 127
2, 102296, Note_on_c, 3, 63, 127
2, 102296, Note_on_c, 12, 59, 127
2, 102500, Note_off_c, 12, 59, 127
2, 102510, Note_on_c, 12, 59, 127
2, 102723, Note_on_c, 6, 66, 127
2, 102932, Note_off_c, 12, 59, 127
2, 102936, Note_off_c, 3, 63, 127
2, 102937, Note_on_c, 10, 57, 127
2, 103141, Note_off_c, 12, 47, 127
2, 103146, Note_off_c, 10, 57, 127
2, 103150, Note_on_c, 7, 55, 127
2, 103150, Note_on_c, 12, 47, 127
2, 103372, Note_off_c, 6, 66, 127
2, 103380, Note_on_c, 4, 64, 127
2, 103601, Note_off_c, 7, 55, 127
2, 103610, Note_on_c, 6, 54, 127
2, 103610, Note_on_c, 10, 57, 127
2, 103853, Note_off_c, 4, 64, 127
2, 103855, Note_on_c, 3, 63, 127
2, 104071, Note_off_c, 10, 57, 127
2, 104071, Note_off_c, 6, 54, 127
2, 104102, Note_off_c, 3, 63, 127
2, 104117, Note_on_c, 12, 59, 127
2, 104117, Note_on_c, 4, 64, 127
2, 104117, Note_on_c, 8, 56, 127
2, 104117, Note_on_c, 4, 52, 127
2, 104117, Note_on_c, 4, 40, 127
2, 106650, Note_off_c, 12, 47, 127
2, 106887, Note_off_c, 4, 40, 127
2, 106887, Note_off_c, 4, 52, 127
2, 106887, Note_off_c, 8, 56, 127
2, 106887, Note_off_c, 4, 64, 127
2, 106887, Note_off_c, 12, 59, 127
2, 107697, Note_on_c, 4, 64, 127
2, 107825, Note_off_c, 4, 64, 127
2, 107833, Note_on_c, 7, 67, 127
2, 107961, Note_off_c, 7, 67, 127
2, 107968, Note_on_c, 12, 71, 127
2, 108096, Note_off_c, 12, 71, 127
2, 108103, Note_on_c, 4, 76, 127
2, 108231, Note_off_c, 4, 76, 127
2, 108238, Note_on_c, 3, 75, 127
2, 108366, Note_off_c, 3, 75, 127
2, 108373, Note_on_c, 4, 76, 127
2, 108501, Note_off_c, 4, 76, 127
2, 108508, Note_on_c, 2, 74, 127
2, 108636, Note_off_c, 2, 74, 127
2, 108644, Note_on_c, 4, 76, 127
2, 108772, Note_off_c, 4, 76, 127
2, 108779, Note_on_c, 1, 73, 127
2, 108907, Note_off_c, 1, 73, 127
2, 108914, Note_on_c, 4, 76, 127
2, 109042, Note_off_c, 4, 76, 127
2, 109049, Note_on_c, 0, 72, 127
2, 109177, Note_off_c, 0, 72, 127
2, 109184, Note_on_c, 4, 76, 127
2, 109312, Note_off_c, 4, 76, 127
2, 109319, Note_on_c, 12, 71, 127
2, 109447, Note_off_c, 12, 71, 127
2, 109455, Note_on_c, 4, 76, 127
2, 109583, Note_off_c, 4, 76, 127
2, 109590, Note_on_c, 3, 75, 127
2, 109718, Note_off_c, 3, 75, 127
2, 109725, Note_on_c, 4, 76, 127
2, 109853, Note_off_c, 4, 76, 127
2, 109860, Note_on_c, 11, 70, 127
2, 109988, Note_off_c, 11, 70, 127
2, 109995, Note_on_c, 1, 73, 127
2, 110123, Note_off_c, 1, 73, 127
2, 110130, Note_on_c, 7, 67, 127
2, 110258, Note_off_c, 7, 67, 127
2, 110266, Note_on_c, 6, 66, 127
2, 110394, Note_off_c, 6, 66, 127
2, 110401, Note_on_c, 7, 67, 127
2, 110529, Note_off_c, 7, 67, 127
2, 110536, Note_on_c, 11, 70, 127
2, 110664, Note_off_c, 11, 70, 127
2, 110671, Note_on_c, 6, 66, 127
2, 110799, Note_off_c, 6, 66, 127
2, 110806, Note_on_c, 4, 64, 127
2, 110934, Note_off_c, 4, 64, 127
2, 110941, Note_on_c, 12, 47, 127
2, 110941, Note_on_c, 2, 62, 127
2, 111069, Note_off_c, 12, 47, 127
2, 111074, Note_on_c, 2, 50, 127
2, 111121, Note_off_c, 2, 62, 127
2, 111204, Note_off_c, 2, 50, 127
2, 111209, Note_on_c, 6, 54, 127
2, 111209, Note_on_c, 12, 71, 127
2, 111270, Note_off_c, 12, 71, 127
2, 111277, Note_on_c, 11, 70, 127
2, 111338, Note_off_c, 11, 70, 127
2, 111339, Note_off_c, 6, 54, 127
2, 111345, Note_on_c, 12, 59, 127
2, 111345, Note_on_c, 12, 71, 127
2, 111473, Note_off_c, 12, 59, 127
2, 111478, Note_on_c, 11, 58, 127
2, 111608, Note_off_c, 11, 58, 127
2, 111613, Note_on_c, 12, 59, 127
2, 111613, Note_on_c, 6, 78, 127
2, 111615, Note_off_c, 12, 71, 127
2, 111741, Note_off_c, 6, 78, 127
2, 111743, Note_off_c, 12, 59, 127
2, 111748, Note_on_c, 10, 57, 127
2, 111748, Note_on_c, 7, 79, 127
2, 111876, Note_off_c, 7, 79, 127
2, 111878, Note_off_c, 10, 57, 127
2, 111883, Note_on_c, 12, 59, 127
2, 111883, Note_on_c, 6, 78, 127
2, 112011, Note_off_c, 6, 78, 127
2, 112013, Note_off_c, 12, 59, 127
2, 112018, Note_on_c, 8, 56, 127
2, 112018, Note_on_c, 4, 76, 127
2, 112146, Note_off_c, 4, 76, 127
2, 112148, Note_off_c, 8, 56, 127
2, 112153, Note_on_c, 12, 59, 127
2, 112153, Note_on_c, 2, 74, 127
2, 112281, Note_off_c, 2, 74, 127
2, 112283, Note_off_c, 12, 59, 127
2, 112289, Note_on_c, 7, 55, 127
2, 112289, Note_on_c, 1, 73, 127
2, 112417, Note_off_c, 1, 73, 127
2, 112419, Note_off_c, 7, 55, 127
2, 112424, Note_on_c, 12, 59, 127
2, 112424, Note_on_c, 4, 76, 127
2, 112552, Note_off_c, 4, 76, 127
2, 112554, Note_off_c, 12, 59, 127
2, 112559, Note_on_c, 6, 54, 127
2, 112559, Note_on_c, 2, 74, 127
2, 112687, Note_off_c, 6, 54, 127
2, 112692, Note_on_c, 12, 59, 127
2, 112820, Note_off_c, 12, 59, 127
2, 112825, Note_on_c, 11, 58, 127
2, 112953, Note_off_c, 11, 58, 127
2, 112958, Note_on_c, 12, 59, 127
2, 113086, Note_off_c, 12, 59, 127
2, 113091, Note_on_c, 5, 53, 127
2, 113208, Note_off_c, 2, 74, 127
2, 113221, Note_off_c, 5, 53, 127
2, 113226, Note_on_c, 8, 56, 127
2, 113226, Note_on_c, 1, 73, 127
2, 113354, Note_off_c, 1, 73, 127
2, 113356, Note_off_c, 8, 56, 127
2, 113361, Note_on_c, 2, 50, 127
2, 113361, Note_on_c, 12, 71, 127
2, 113489, Note_off_c, 12, 71, 127
2, 113491, Note_off_c, 2, 50, 127
2, 113496, Note_on_c, 1, 49, 127
2, 113496, Note_on_c, 11, 70, 127
2, 113624, Note_off_c, 11, 70, 127
2, 113626, Note_off_c, 1, 49, 127
2, 113631, Note_on_c, 2, 50, 127
2, 113631, Note_on_c, 12, 71, 127
2, 113759, Note_off_c, 12, 71, 127
2, 113761, Note_off_c, 2, 50, 127
2, 113767, Note_on_c, 5, 53, 127
2, 113767, Note_on_c, 1, 73, 127
2, 113895, Note_off_c, 1, 73, 127
2, 113897, Note_off_c, 5, 53, 127
2, 113902, Note_on_c, 1, 49, 127
2, 113902, Note_on_c, 11, 70, 127
2, 114030, Note_off_c, 11, 70, 127
2, 114032, Note_off_c, 1, 49, 127
2, 114037, Note_on_c, 12, 47, 127
2, 114037, Note_on_c, 12, 71, 127
2, 114165, Note_off_c, 12, 71, 127
2, 114167, Note_off_c, 12, 47, 127
2, 114172, Note_on_c, 11, 46, 127
2, 114172, Note_on_c, 1, 73, 127
2, 114300, Note_off_c, 1, 73, 127
2, 114307, Note_on_c, 6, 66, 127
2, 114368, Note_off_c, 11, 46, 127
2, 114435, Note_off_c, 6, 66, 127
2, 114442, Note_on_c, 6, 54, 127
2, 114442, Note_on_c, 11, 70, 127
2, 114503, Note_off_c, 6, 54, 127
2, 114510, Note_on_c, 5, 53, 127
2, 114570, Note_off_c, 11, 70, 127
2, 114571, Note_off_c, 5, 53, 127
2, 114578, Note_on_c, 6, 54, 127
2, 114578, Note_on_c, 1, 73, 127
2, 114706, Note_off_c, 1, 73, 127
2, 114713, Note_on_c, 4, 76, 127
2, 114838, Note_off_c, 6, 54, 127
2, 114841, Note_off_c, 4, 76, 127
2, 114848, Note_on_c, 6, 66, 127
2, 114848, Note_on_c, 11, 70, 127
2, 114976, Note_off_c, 11, 70, 127
2, 114978, Note_off_c, 6, 66, 127
2, 114983, Note_on_c, 7, 67, 127
2, 114983, Note_on_c, 1, 73, 127
2, 115111, Note_off_c, 1, 73, 127
2, 115113, Note_off_c, 7, 67, 127
2, 115118, Note_on_c, 6, 66, 127
2, 115118, Note_on_c, 4, 76, 127
2, 115246, Note_off_c, 4, 76, 127
2, 115248, Note_off_c, 6, 66, 127
2, 115253, Note_on_c, 4, 64, 127
2, 115253, Note_on_c, 7, 79, 127
2, 115381, Note_off_c, 7, 79, 127
2, 115383, Note_off_c, 4, 64, 127
2, 115389, Note_on_c, 2, 62, 127
2, 115389, Note_on_c, 6, 78, 127
2, 115517, Note_off_c, 6, 78, 127
2, 115519, Note_off_c, 2, 62, 127
2, 115524, Note_on_c, 1, 61, 127
2, 115524, Note_on_c, 4, 76, 127
2, 115652, Note_off_c, 4, 76, 127
2, 115654, Note_off_c, 1, 61, 127
2, 115659, Note_on_c, 4, 64, 127
2, 115659, Note_on_c, 7, 79, 127
2, 115787, Note_off_c, 7, 79, 127
2, 115789, Note_off_c, 4, 64, 127
2, 115794, Note_on_c, 2, 62, 127
2, 115794, Note_on_c, 6, 78, 127
2, 115922, Note_off_c, 6, 78, 127
2, 115929, Note_on_c, 4, 76, 127
2, 116057, Note_off_c, 4, 76, 127
2, 116064, Note_on_c, 2, 74, 127
2, 116192, Note_off_c, 2, 74, 127
2, 116199, Note_on_c, 1, 73, 127
2, 116327, Note_off_c, 1, 73, 127
2, 116335, Note_on_c, 12, 71, 127
2, 116463, Note_off_c, 12, 71, 127
2, 116463, Note_off_c, 2, 62, 127
2, 116470, Note_on_c, 1, 61, 127
2, 116470, Note_on_c, 11, 70, 127
2, 116598, Note_off_c, 11, 70, 127
2, 116600, Note_off_c, 1, 61, 127
2, 116605, Note_on_c, 12, 59, 127
2, 116605, Note_on_c, 8, 68, 127
2, 116733, Note_off_c, 8, 68, 127
2, 116735, Note_off_c, 12, 59, 127
2, 116740, Note_on_c, 11, 58, 127
2, 116740, Note_on_c, 6, 66, 127
2, 116868, Note_off_c, 6, 66, 127
2, 116870, Note_off_c, 11, 58, 127
2, 116875, Note_on_c, 12, 59, 127
2, 116875, Note_on_c, 2, 74, 127
2, 117003, Note_off_c, 12, 59, 127
2, 117008, Note_on_c, 1, 61, 127
2, 117136, Note_off_c, 1, 61, 127
2, 117141, Note_on_c, 10, 57, 127
2, 117269, Note_off_c, 10, 57, 127
2, 117274, Note_on_c, 12, 59, 127
2, 117402, Note_off_c, 12, 59, 127
2, 117407, Note_on_c, 8, 44, 127
2, 117524, Note_off_c, 2, 74, 127
2, 117542, Note_on_c, 4, 64, 127
2, 117603, Note_off_c, 8, 44, 127
2, 117670, Note_off_c, 4, 64, 127
2, 117678, Note_on_c, 4, 52, 127
2, 117678, Note_on_c, 8, 68, 127
2, 117739, Note_off_c, 4, 52, 127
2, 117745, Note_on_c, 3, 51, 127
2, 117806, Note_off_c, 3, 51, 127
2, 117806, Note_off_c, 8, 68, 127
2, 117813, Note_on_c, 12, 71, 127
2, 117813, Note_on_c, 4, 52, 127
2, 117941, Note_off_c, 12, 71, 127
2, 117948, Note_on_c, 2, 74, 127
2, 118073, Note_off_c, 4, 52, 127
2, 118076, Note_off_c, 2, 74, 127
2, 118083, Note_on_c, 4, 64, 127
2, 118083, Note_on_c, 8, 68, 127
2, 118211, Note_off_c, 8, 68, 127
2, 118213, Note_off_c, 4, 64, 127
2, 118218, Note_on_c, 5, 65, 127
2, 118218, Note_on_c, 12, 71, 127
2, 118346, Note_off_c, 12, 71, 127
2, 118348, Note_off_c, 5, 65, 127
2, 118353, Note_on_c, 4, 64, 127
2, 118353, Note_on_c, 2, 74, 127
2, 118481, Note_off_c, 2, 74, 127
2, 118483, Note_off_c, 4, 64, 127
2, 118488, Note_on_c, 2, 62, 127
2, 118488, Note_on_c, 5, 77, 127
2, 118616, Note_off_c, 5, 77, 127
2, 118618, Note_off_c, 2, 62, 127
2, 118624, Note_on_c, 0, 60, 127
2, 118624, Note_on_c, 4, 76, 127
2, 118752, Note_off_c, 4, 76, 127
2, 118754, Note_off_c, 0, 60, 127
2, 118759, Note_on_c, 12, 59, 127
2, 118759, Note_on_c, 2, 74, 127
2, 118887, Note_off_c, 2, 74, 127
2, 118889, Note_off_c, 12, 59, 127
2, 118894, Note_on_c, 2, 62, 127
2, 118894, Note_on_c, 5, 77, 127
2, 119022, Note_off_c, 5, 77, 127
2, 119024, Note_off_c, 2, 62, 127
2, 119029, Note_on_c, 0, 60, 127
2, 119029, Note_on_c, 4, 76, 127
2, 119157, Note_off_c, 4, 76, 127
2, 119164, Note_on_c, 2, 74, 127
2, 119292, Note_off_c, 2, 74, 127
2, 119299, Note_on_c, 0, 72, 127
2, 119427, Note_off_c, 0, 72, 127
2, 119435, Note_on_c, 12, 71, 127
2, 119563, Note_off_c, 12, 71, 127
2, 119570, Note_on_c, 10, 69, 127
2, 119698, Note_off_c, 10, 69, 127
2, 119698, Note_off_c, 0, 60, 127
2, 119705, Note_on_c, 12, 59, 127
2, 119705, Note_on_c, 8, 68, 127
2, 119833, Note_off_c, 8, 68, 127
2, 119835, Note_off_c, 12, 59, 127
2, 119840, Note_on_c, 10, 57, 127
2, 119840, Note_on_c, 6, 66, 127
2, 119968, Note_off_c, 6, 66, 127
2, 119970, Note_off_c, 10, 57, 127
2, 119975, Note_on_c, 8, 56, 127
2, 119975, Note_on_c, 4, 64, 127
2, 120103, Note_off_c, 4, 64, 127
2, 120105, Note_off_c, 8, 56, 127
2, 120110, Note_on_c, 10, 57, 127
2, 120110, Note_on_c, 0, 72, 127
2, 120238, Note_off_c, 10, 57, 127
2, 120243, Note_on_c, 12, 59, 127
2, 120371, Note_off_c, 12, 59, 127
2, 120376, Note_on_c, 7, 55, 127
2, 120504, Note_off_c, 7, 55, 127
2, 120509, Note_on_c, 10, 57, 127
2, 120637, Note_off_c, 10, 57, 127
2, 120642, Note_on_c, 6, 42, 127
2, 120759, Note_off_c, 0, 72, 127
2, 120777, Note_on_c, 10, 69, 127
2, 120838, Note_off_c, 6, 42, 127
2, 120905, Note_off_c, 10, 69, 127
2, 120913, Note_on_c, 2, 50, 127
2, 120913, Note_on_c, 2, 62, 127
2, 120974, Note_off_c, 2, 50, 127
2, 120980, Note_on_c, 1, 49, 127
2, 121041, Note_off_c, 1, 49, 127
2, 121041, Note_off_c, 2, 62, 127
2, 121048, Note_on_c, 4, 64, 127
2, 121048, Note_on_c, 2, 50, 127
2, 121176, Note_off_c, 4, 64, 127
2, 121183, Note_on_c, 6, 66, 127
2, 121308, Note_off_c, 2, 50, 127
2, 121311, Note_off_c, 6, 66, 127
2, 121318, Note_on_c, 4, 52, 127
2, 121318, Note_on_c, 7, 67, 127
2, 121446, Note_off_c, 7, 67, 127
2, 121448, Note_off_c, 4, 52, 127
2, 121453, Note_on_c, 6, 54, 127
2, 121453, Note_on_c, 10, 69, 127
2, 121581, Note_off_c, 10, 69, 127
2, 121583, Note_off_c, 6, 54, 127
2, 121588, Note_on_c, 7, 55, 127
2, 121588, Note_on_c, 12, 71, 127
2, 121716, Note_off_c, 12, 71, 127
2, 121718, Note_off_c, 7, 55, 127
2, 121724, Note_on_c, 10, 57, 127
2, 121724, Note_on_c, 0, 72, 127
2, 121852, Note_off_c, 0, 72, 127
2, 121854, Note_off_c, 10, 57, 127
2, 121859, Note_on_c, 12, 59, 127
2, 121859, Note_on_c, 2, 74, 127
2, 121987, Note_off_c, 2, 74, 127
2, 121989, Note_off_c, 12, 59, 127
2, 121994, Note_on_c, 0, 60, 127
2, 121994, Note_on_c, 4, 76, 127
2, 122122, Note_off_c, 4, 76, 127
2, 122124, Note_off_c, 0, 60, 127
2, 122129, Note_on_c, 10, 57, 127
2, 122129, Note_on_c, 6, 78, 127
2, 122257, Note_off_c, 6, 78, 127
2, 122259, Note_off_c, 10, 57, 127
2, 122264, Note_on_c, 12, 59, 127
2, 122264, Note_on_c, 7, 79, 127
2, 122392, Note_off_c, 7, 79, 127
2, 122394, Note_off_c, 12, 59, 127
2, 122399, Note_on_c, 10, 57, 127
2, 122399, Note_on_c, 6, 78, 127
2, 122527, Note_off_c, 6, 78, 127
2, 122529, Note_off_c, 10, 57, 127
2, 122535, Note_on_c, 0, 60, 127
2, 122535, Note_on_c, 10, 81, 127
2, 122663, Note_off_c, 10, 81, 127
2, 122665, Note_off_c, 0, 60, 127
2, 122670, Note_on_c, 12, 59, 127
2, 122670, Note_on_c, 7, 79, 127
2, 122798, Note_off_c, 7, 79, 127
2, 122800, Note_off_c, 12, 59, 127
2, 122805, Note_on_c, 10, 57, 127
2, 122805, Note_on_c, 6, 78, 127
2, 122933, Note_off_c, 6, 78, 127
2, 122935, Note_off_c, 10, 57, 127
2, 122940, Note_on_c, 7, 55, 127
2, 122940, Note_on_c, 4, 76, 127
2, 123068, Note_off_c, 4, 76, 127
2, 123070, Note_off_c, 7, 55, 127
2, 123075, Note_on_c, 6, 54, 127
2, 123075, Note_on_c, 2, 74, 127
2, 123203, Note_off_c, 2, 74, 127
2, 123205, Note_off_c, 6, 54, 127
2, 123210, Note_on_c, 4, 52, 127
2, 123210, Note_on_c, 0, 72, 127
2, 123338, Note_off_c, 0, 72, 127
2, 123340, Note_off_c, 4, 52, 127
2, 123346, Note_on_c, 2, 50, 127
2, 123346, Note_on_c, 12, 71, 127
2, 123474, Note_off_c, 12, 71, 127
2, 123476, Note_off_c, 2, 50, 127
2, 123481, Note_on_c, 4, 52, 127
2, 123481, Note_on_c, 7, 79, 127
2, 123609, Note_off_c, 7, 79, 127
2, 123611, Note_off_c, 4, 52, 127
2, 123616, Note_on_c, 0, 48, 127
2, 123616, Note_on_c, 10, 69, 127
2, 123744, Note_off_c, 10, 69, 127
2, 123746, Note_off_c, 0, 48, 127
2, 123751, Note_on_c, 2, 50, 127
2, 123751, Note_on_c, 6, 78, 127
2, 123879, Note_off_c, 6, 78, 127
2, 123881, Note_off_c, 2, 50, 127
2, 123886, Note_on_c, 12, 47, 127
2, 123886, Note_on_c, 7, 67, 127
2, 124014, Note_off_c, 7, 67, 127
2, 124021, Note_on_c, 12, 71, 127
2, 124082, Note_off_c, 12, 47, 127
2, 124149, Note_off_c, 12, 71, 127
2, 124156, Note_on_c, 7, 55, 127
2, 124156, Note_on_c, 2, 74, 127
2, 124217, Note_off_c, 7, 55, 127
2, 124224, Note_on_c, 6, 54, 127
2, 124284, Note_off_c, 2, 74, 127
2, 124285, Note_off_c, 6, 54, 127
2, 124292, Note_on_c, 7, 55, 127
2, 124292, Note_on_c, 7, 79, 127
2, 124420, Note_off_c, 7, 79, 127
2, 124427, Note_on_c, 6, 78, 127
2, 124552, Note_off_c, 7, 55, 127
2, 124555, Note_off_c, 6, 78, 127
2, 124562, Note_on_c, 2, 62, 127
2, 124562, Note_on_c, 7, 79, 127
2, 124690, Note_off_c, 7, 79, 127
2, 124692, Note_off_c, 2, 62, 127
2, 124697, Note_on_c, 4, 64, 127
2, 124697, Note_on_c, 5, 77, 127
2, 124825, Note_off_c, 5, 77, 127
2, 124827, Note_off_c, 4, 64, 127
2, 124832, Note_on_c, 2, 62, 127
2, 124832, Note_on_c, 7, 79, 127
2, 124960, Note_off_c, 7, 79, 127
2, 124962, Note_off_c, 2, 62, 127
2, 124967, Note_on_c, 0, 60, 127
2, 124967, Note_on_c, 4, 76, 127
2, 125095, Note_off_c, 4, 76, 127
2, 125097, Note_off_c, 0, 60, 127
2, 125103, Note_on_c, 12, 59, 127
2, 125103, Note_on_c, 7, 79, 127
2, 125231, Note_off_c, 7, 79, 127
2, 125233, Note_off_c, 12, 59, 127
2, 125238, Note_on_c, 10, 57, 127
2, 125238, Note_on_c, 3, 75, 127
2, 125366, Note_off_c, 3, 75, 127
2, 125368, Note_off_c, 10, 57, 127
2, 125373, Note_on_c, 0, 60, 127
2, 125373, Note_on_c, 7, 79, 127
2, 125501, Note_off_c, 7, 79, 127
2, 125503, Note_off_c, 0, 60, 127
2, 125508, Note_on_c, 12, 59, 127
2, 125508, Note_on_c, 2, 74, 127
2, 125636, Note_off_c, 2, 74, 127
2, 125643, Note_on_c, 7, 79, 127
2, 125771, Note_off_c, 7, 79, 127
2, 125778, Note_on_c, 6, 78, 127
2, 125906, Note_off_c, 6, 78, 127
2, 125914, Note_on_c, 7, 79, 127
2, 126042, Note_off_c, 7, 79, 127
2, 126049, Note_on_c, 1, 73, 127
2, 126177, Note_off_c, 1, 73, 127
2, 126177, Note_off_c, 12, 59, 127
2, 126184, Note_on_c, 10, 57, 127
2, 126184, Note_on_c, 4, 76, 127
2, 126312, Note_off_c, 4, 76, 127
2, 126314, Note_off_c, 10, 57, 127
2, 126319, Note_on_c, 7, 55, 127
2, 126319, Note_on_c, 11, 70, 127
2, 126447, Note_off_c, 11, 70, 127
2, 126449, Note_off_c, 7, 55, 127
2, 126454, Note_on_c, 6, 54, 127
2, 126454, Note_on_c, 10, 69, 127
2, 126582, Note_off_c, 10, 69, 127
2, 126584, Note_off_c, 6, 54, 127
2, 126589, Note_on_c, 7, 55, 127
2, 126589, Note_on_c, 11, 70, 127
2, 126717, Note_off_c, 11, 70, 127
2, 126719, Note_off_c, 7, 55, 127
2, 126725, Note_on_c, 6, 54, 127
2, 126725, Note_on_c, 1, 73, 127
2, 126853, Note_off_c, 1, 73, 127
2, 126855, Note_off_c, 6, 54, 127
2, 126860, Note_on_c, 7, 55, 127
2, 126860, Note_on_c, 10, 69, 127
2, 126988, Note_off_c, 10, 69, 127
2, 126990, Note_off_c, 7, 55, 127
2, 126995, Note_on_c, 10, 57, 127
2, 126995, Note_on_c, 7, 67, 127
2, 127123, Note_off_c, 7, 67, 127
2, 127125, Note_off_c, 10, 57, 127
2, 127130, Note_on_c, 2, 50, 127
2, 127130, Note_on_c, 6, 66, 127
2, 127258, Note_off_c, 2, 50, 127
2, 127263, Note_on_c, 6, 54, 127
2, 127310, Note_off_c, 6, 66, 127
2, 127393, Note_off_c, 6, 54, 127
2, 127398, Note_on_c, 10, 57, 127
2, 127398, Note_on_c, 2, 74, 127
2, 127459, Note_off_c, 2, 74, 127
2, 127466, Note_on_c, 1, 73, 127
2, 127527, Note_off_c, 1, 73, 127
2, 127528, Note_off_c, 10, 57, 127
2, 127533, Note_on_c, 2, 62, 127
2, 127533, Note_on_c, 2, 74, 127
2, 127661, Note_off_c, 2, 62, 127
2, 127666, Note_on_c, 1, 61, 127
2, 127793, Note_off_c, 2, 74, 127
2, 127796, Note_off_c, 1, 61, 127
2, 127801, Note_on_c, 2, 62, 127
2, 127801, Note_on_c, 10, 81, 127
2, 127929, Note_off_c, 10, 81, 127
2, 127931, Note_off_c, 2, 62, 127
2, 127937, Note_on_c, 0, 60, 127
2, 127937, Note_on_c, 12, 83, 127
2, 128065, Note_off_c, 12, 83, 127
2, 128067, Note_off_c, 0, 60, 127
2, 128072, Note_on_c, 2, 62, 127
2, 128072, Note_on_c, 10, 81, 127
2, 128200, Note_off_c, 10, 81, 127
2, 128202, Note_off_c, 2, 62, 127
2, 128207, Note_on_c, 12, 59, 127
2, 128207, Note_on_c, 7, 79, 127
2, 128335, Note_off_c, 7, 79, 127
2, 128337, Note_off_c, 12, 59, 127
2, 128342, Note_on_c, 2, 62, 127
2, 128342, Note_on_c, 6, 78, 127
2, 128470, Note_off_c, 6, 78, 127
2, 128472, Note_off_c, 2, 62, 127
2, 128477, Note_on_c, 11, 58, 127
2, 128477, Note_on_c, 4, 76, 127
2, 128605, Note_off_c, 4, 76, 127
2, 128607, Note_off_c, 11, 58, 127
2, 128612, Note_on_c, 2, 62, 127
2, 128612, Note_on_c, 7, 79, 127
2, 128740, Note_off_c, 7, 79, 127
2, 128742, Note_off_c, 2, 62, 127
2, 128748, Note_on_c, 10, 57, 127
2, 128748, Note_on_c, 6, 78, 127
2, 128876, Note_off_c, 10, 57, 127
2, 128881, Note_on_c, 2, 62, 127
2, 129009, Note_off_c, 2, 62, 127
2, 129014, Note_on_c, 1, 61, 127
2, 129142, Note_off_c, 1, 61, 127
2, 129147, Note_on_c, 2, 62, 127
2, 129275, Note_off_c, 2, 62, 127
2, 129279, Note_on_c, 8, 56, 127
2, 129397, Note_off_c, 6, 78, 127
2, 129409, Note_off_c, 8, 56, 127
2, 129415, Note_on_c, 12, 59, 127
2, 129415, Note_on_c, 4, 76, 127
2, 129543, Note_off_c, 4, 76, 127
2, 129545, Note_off_c, 12, 59, 127
2, 129550, Note_on_c, 5, 53, 127
2, 129550, Note_on_c, 2, 74, 127
2, 129678, Note_off_c, 2, 74, 127
2, 129680, Note_off_c, 5, 53, 127
2, 129685, Note_on_c, 4, 52, 127
2, 129685, Note_on_c, 1, 73, 127
2, 129813, Note_off_c, 1, 73, 127
2, 129815, Note_off_c, 4, 52, 127
2, 129820, Note_on_c, 5, 53, 127
2, 129820, Note_on_c, 2, 74, 127
2, 129948, Note_off_c, 2, 74, 127
2, 129950, Note_off_c, 5, 53, 127
2, 129955, Note_on_c, 8, 56, 127
2, 129955, Note_on_c, 4, 76, 127
2, 130083, Note_off_c, 4, 76, 127
2, 130085, Note_off_c, 8, 56, 127
2, 130090, Note_on_c, 4, 52, 127
2, 130090, Note_on_c, 1, 73, 127
2, 130218, Note_off_c, 1, 73, 127
2, 130220, Note_off_c, 4, 52, 127
2, 130226, Note_on_c, 2, 50, 127
2, 130226, Note_on_c, 2, 74, 127
2, 130354, Note_off_c, 2, 74, 127
2, 130356, Note_off_c, 2, 50, 127
2, 130361, Note_on_c, 1, 49, 127
2, 130361, Note_on_c, 4, 76, 127
2, 130489, Note_off_c, 4, 76, 127
2, 130496, Note_on_c, 2, 74, 127
2, 130557, Note_off_c, 1, 49, 127
2, 130624, Note_off_c, 2, 74, 127
2, 130631, Note_on_c, 10, 45, 127
2, 130631, Note_on_c, 1, 73, 127
2, 130759, Note_off_c, 1, 73, 127
2, 130766, Note_on_c, 12, 71, 127
2, 130827, Note_off_c, 10, 45, 127
2, 130894, Note_off_c, 12, 71, 127
2, 130901, Note_on_c, 1, 49, 127
2, 130901, Note_on_c, 10, 69, 127
2, 131029, Note_off_c, 10, 69, 127
2, 131037, Note_on_c, 8, 68, 127
2, 131097, Note_off_c, 1, 49, 127
2, 131165, Note_off_c, 8, 68, 127
2, 131172, Note_on_c, 4, 52, 127
2, 131172, Note_on_c, 4, 76, 127
2, 131300, Note_off_c, 4, 76, 127
2, 131307, Note_on_c, 2, 74, 127
2, 131368, Note_off_c, 4, 52, 127
2, 131435, Note_off_c, 2, 74, 127
2, 131442, Note_on_c, 10, 57, 127
2, 131442, Note_on_c, 1, 73, 127
2, 131570, Note_off_c, 1, 73, 127
2, 131577, Note_on_c, 12, 71, 127
2, 131638, Note_off_c, 10, 57, 127
2, 131705, Note_off_c, 12, 71, 127
2, 131712, Note_on_c, 1, 49, 127
2, 131712, Note_on_c, 10, 69, 127
2, 131840, Note_off_c, 10, 69, 127
2, 131848, Note_on_c, 7, 67, 127
2, 131908, Note_off_c, 1, 49, 127
2, 131976, Note_off_c, 7, 67, 127
2, 131983, Note_on_c, 10, 57, 127
2, 131983, Note_on_c, 6, 66, 127
2, 132111, Note_off_c, 10, 57, 127
2, 132116, Note_on_c, 7, 55, 127
2, 132163, Note_off_c, 6, 66, 127
2, 132246, Note_off_c, 7, 55, 127
2, 132251, Note_on_c, 6, 54, 127
2, 132251, Note_on_c, 2, 62, 127
2, 132379, Note_off_c, 6, 54, 127
2, 132384, Note_on_c, 4, 52, 127
2, 132431, Note_off_c, 2, 62, 127
2, 132514, Note_off_c, 4, 52, 127
2, 132519, Note_on_c, 2, 50, 127
2, 132519, Note_on_c, 6, 66, 127
2, 132647, Note_off_c, 2, 50, 127
2, 132652, Note_on_c, 1, 49, 127
2, 132699, Note_off_c, 6, 66, 127
2, 132782, Note_off_c, 1, 49, 127
2, 132787, Note_on_c, 10, 57, 127
2, 132787, Note_on_c, 10, 69, 127
2, 132915, Note_off_c, 10, 57, 127
2, 132920, Note_on_c, 7, 55, 127
2, 132967, Note_off_c, 10, 69, 127
2, 133050, Note_off_c, 7, 55, 127
2, 133055, Note_on_c, 6, 54, 127
2, 133055, Note_on_c, 2, 74, 127
2, 133183, Note_off_c, 6, 54, 127
2, 133188, Note_on_c, 4, 52, 127
2, 133235, Note_off_c, 2, 74, 127
2, 133318, Note_off_c, 4, 52, 127
2, 133323, Note_on_c, 2, 50, 127
2, 133323, Note_on_c, 6, 66, 127
2, 133451, Note_off_c, 2, 50, 127
2, 133456, Note_on_c, 0, 48, 127
2, 133503, Note_off_c, 6, 66, 127
2, 133586, Note_off_c, 0, 48, 127
2, 133592, Note_on_c, 12, 47, 127
2, 133592, Note_on_c, 2, 74, 127
2, 133720, Note_off_c, 2, 74, 127
2, 133727, Note_on_c, 0, 72, 127
2, 133788, Note_off_c, 12, 47, 127
2, 133855, Note_off_c, 0, 72, 127
2, 133862, Note_on_c, 7, 43, 127
2, 133862, Note_on_c, 12, 71, 127
2, 133990, Note_off_c, 12, 71, 127
2, 133997, Note_on_c, 10, 69, 127
2, 134058, Note_off_c, 7, 43, 127
2, 134125, Note_off_c, 10, 69, 127
2, 134132, Note_on_c, 12, 47, 127
2, 134132, Note_on_c, 7, 67, 127
2, 134260, Note_off_c, 7, 67, 127
2, 134267, Note_on_c, 6, 66, 127
2, 134328, Note_off_c, 12, 47, 127
2, 134395, Note_off_c, 6, 66, 127
2, 134402, Note_on_c, 2, 50, 127
2, 134402, Note_on_c, 2, 74, 127
2, 134530, Note_off_c, 2, 74, 127
2, 134538, Note_on_c, 0, 72, 127
2, 134598, Note_off_c, 2, 50, 127
2, 134666, Note_off_c, 0, 72, 127
2, 134673, Note_on_c, 7, 55, 127
2, 134673, Note_on_c, 12, 71, 127
2, 134801, Note_off_c, 12, 71, 127
2, 134808, Note_on_c, 10, 69, 127
2, 134869, Note_off_c, 7, 55, 127
2, 134936, Note_off_c, 10, 69, 127
2, 134943, Note_on_c, 12, 47, 127
2, 134943, Note_on_c, 7, 67, 127
2, 135071, Note_off_c, 7, 67, 127
2, 135078, Note_on_c, 5, 65, 127
2, 135139, Note_off_c, 12, 47, 127
2, 135206, Note_off_c, 5, 65, 127
2, 135213, Note_on_c, 7, 55, 127
2, 135213, Note_on_c, 4, 64, 127
2, 135341, Note_off_c, 7, 55, 127
2, 135346, Note_on_c, 5, 53, 127
2, 135393, Note_off_c, 4, 64, 127
2, 135476, Note_off_c, 5, 53, 127
2, 135482, Note_on_c, 4, 52, 127
2, 135482, Note_on_c, 0, 60, 127
2, 135610, Note_off_c, 4, 52, 127
2, 135615, Note_on_c, 2, 50, 127
2, 135662, Note_off_c, 0, 60, 127
2, 135745, Note_off_c, 2, 50, 127
2, 135750, Note_on_c, 0, 48, 127
2, 135750, Note_on_c, 4, 64, 127
2, 135878, Note_off_c, 0, 48, 127
2, 135883, Note_on_c, 12, 47, 127
2, 135930, Note_off_c, 4, 64, 127
2, 136013, Note_off_c, 12, 47, 127
2, 136018, Note_on_c, 7, 55, 127
2, 136018, Note_on_c, 7, 67, 127
2, 136146, Note_off_c, 7, 55, 127
2, 136151, Note_on_c, 5, 53, 127
2, 136198, Note_off_c, 7, 67, 127
2, 136281, Note_off_c, 5, 53, 127
2, 136286, Note_on_c, 4, 52, 127
2, 136286, Note_on_c, 0, 72, 127
2, 136414, Note_off_c, 4, 52, 127
2, 136419, Note_on_c, 2, 50, 127
2, 136466, Note_off_c, 0, 72, 127
2, 136549, Note_off_c, 2, 50, 127
2, 136554, Note_on_c, 0, 48, 127
2, 136554, Note_on_c, 4, 64, 127
2, 136682, Note_off_c, 0, 48, 127
2, 136687, Note_on_c, 12, 47, 127
2, 136734, Note_off_c, 4, 64, 127
2, 136817, Note_off_c, 12, 47, 127
2, 136822, Note_on_c, 4, 52, 127
2, 136822, Note_on_c, 4, 76, 127
2, 136950, Note_off_c, 4, 76, 127
2, 136952, Note_off_c, 4, 52, 127
2, 136957, Note_on_c, 2, 50, 127
2, 136957, Note_on_c, 2, 74, 127
2, 137085, Note_off_c, 2, 74, 127
2, 137087, Note_off_c, 2, 50, 127
2, 137093, Note_on_c, 0, 48, 127
2, 137093, Note_on_c, 0, 72, 127
2, 137221, Note_off_c, 0, 72, 127
2, 137223, Note_off_c, 0, 48, 127
2, 137228, Note_on_c, 12, 47, 127
2, 137228, Note_on_c, 12, 71, 127
2, 137356, Note_off_c, 12, 71, 127
2, 137358, Note_off_c, 12, 47, 127
2, 137363, Note_on_c, 10, 45, 127
2, 137363, Note_on_c, 10, 69, 127
2, 137491, Note_off_c, 10, 69, 127
2, 137493, Note_off_c, 10, 45, 127
2, 137498, Note_on_c, 8, 44, 127
2, 137498, Note_on_c, 8, 68, 127
2, 137626, Note_off_c, 8, 68, 127
2, 137628, Note_off_c, 8, 44, 127
2, 137633, Note_on_c, 4, 52, 127
2, 137633, Note_on_c, 4, 76, 127
2, 137761, Note_off_c, 4, 76, 127
2, 137763, Note_off_c, 4, 52, 127
2, 137768, Note_on_c, 2, 50, 127
2, 137768, Note_on_c, 2, 74, 127
2, 137896, Note_off_c, 2, 74, 127
2, 137898, Note_off_c, 2, 50, 127
2, 137904, Note_on_c, 0, 48, 127
2, 137904, Note_on_c, 0, 72, 127
2, 138032, Note_off_c, 0, 72, 127
2, 138034, Note_off_c, 0, 48, 127
2, 138039, Note_on_c, 12, 47, 127
2, 138039, Note_on_c, 12, 71, 127
2, 138167, Note_off_c, 12, 71, 127
2, 138169, Note_off_c, 12, 47, 127
2, 138174, Note_on_c, 10, 45, 127
2, 138174, Note_on_c, 10, 69, 127
2, 138302, Note_off_c, 10, 69, 127
2, 138304, Note_off_c, 10, 45, 127
2, 138309, Note_on_c, 8, 44, 127
2, 138309, Note_on_c, 8, 68, 127
2, 138437, Note_off_c, 8, 68, 127
2, 138439, Note_off_c, 8, 44, 127
2, 138444, Note_on_c, 10, 45, 127
2, 138444, Note_on_c, 10, 69, 127
2, 138572, Note_off_c, 10, 45, 127
2, 138577, Note_on_c, 0, 48, 127
2, 138577, Note_on_c, 0, 72, 127
2, 138638, Note_off_c, 10, 69, 127
2, 138705, Note_off_c, 0, 48, 127
2, 138710, Note_on_c, 4, 52, 127
2, 138710, Note_on_c, 4, 76, 127
2, 138771, Note_off_c, 0, 72, 127
2, 138838, Note_off_c, 4, 52, 127
2, 138843, Note_on_c, 10, 57, 127
2, 138843, Note_on_c, 10, 81, 127
2, 138904, Note_off_c, 4, 76, 127
2, 138971, Note_off_c, 10, 57, 127
2, 138976, Note_on_c, 8, 56, 127
2, 139023, Note_off_c, 10, 81, 127
2, 139106, Note_off_c, 8, 56, 127
2, 139111, Note_on_c, 10, 57, 127
2, 139111, Note_on_c, 4, 76, 127
2, 139239, Note_off_c, 4, 76, 127
2, 139241, Note_off_c, 10, 57, 127
2, 139246, Note_on_c, 7, 55, 127
2, 139246, Note_on_c, 5, 77, 127
2, 139374, Note_off_c, 5, 77, 127
2, 139376, Note_off_c, 7, 55, 127
2, 139382, Note_on_c, 10, 57, 127
2, 139382, Note_on_c, 4, 76, 127
2, 139510, Note_off_c, 4, 76, 127
2, 139512, Note_off_c, 10, 57, 127
2, 139517, Note_on_c, 6, 54, 127
2, 139517, Note_on_c, 2, 74, 127
2, 139645, Note_off_c, 2, 74, 127
2, 139647, Note_off_c, 6, 54, 127
2, 139652, Note_on_c, 10, 57, 127
2, 139652, Note_on_c, 0, 72, 127
2, 139780, Note_off_c, 0, 72, 127
2, 139782, Note_off_c, 10, 57, 127
2, 139787, Note_on_c, 5, 53, 127
2, 139787, Note_on_c, 12, 71, 127
2, 139915, Note_off_c, 12, 71, 127
2, 139917, Note_off_c, 5, 53, 127
2, 139922, Note_on_c, 10, 57, 127
2, 139922, Note_on_c, 2, 74, 127
2, 140050, Note_off_c, 2, 74, 127
2, 140052, Note_off_c, 10, 57, 127
2, 140057, Note_on_c, 4, 52, 127
2, 140057, Note_on_c, 0, 72, 127
2, 140185, Note_off_c, 4, 52, 127
2, 140190, Note_on_c, 10, 57, 127
2, 140318, Note_off_c, 10, 57, 127
2, 140323, Note_on_c, 8, 56, 127
2, 140451, Note_off_c, 8, 56, 127
2, 140456, Note_on_c, 10, 57, 127
2, 140584, Note_off_c, 10, 57, 127
2, 140589, Note_on_c, 3, 51, 127
2, 140706, Note_off_c, 0, 72, 127
2, 140719, Note_off_c, 3, 51, 127
2, 140724, Note_on_c, 6, 54, 127
2, 140724, Note_on_c, 12, 71, 127
2, 140852, Note_off_c, 12, 71, 127
2, 140854, Note_off_c, 6, 54, 127
2, 140860, Note_on_c, 0, 48, 127
2, 140860, Note_on_c, 10, 69, 127
2, 140988, Note_off_c, 10, 69, 127
2, 140990, Note_off_c, 0, 48, 127
2, 140995, Note_on_c, 12, 47, 127
2, 140995, Note_on_c, 8, 68, 127
2, 141123, Note_off_c, 8, 68, 127
2, 141125, Note_off_c, 12, 47, 127
2, 141130, Note_on_c, 0, 48, 127
2, 141130, Note_on_c, 10, 69, 127
2, 141258, Note_off_c, 10, 69, 127
2, 141260, Note_off_c, 0, 48, 127
2, 141265, Note_on_c, 3, 51, 127
2, 141265, Note_on_c, 6, 66, 127
2, 141393, Note_off_c, 6, 66, 127
2, 141395, Note_off_c, 3, 51, 127
2, 141400, Note_on_c, 12, 47, 127
2, 141400, Note_on_c, 3, 63, 127
2, 141528, Note_off_c, 3, 63, 127
2, 141530, Note_off_c, 12, 47, 127
2, 141535, Note_on_c, 10, 45, 127
2, 141535, Note_on_c, 12, 71, 127
2, 141663, Note_off_c, 12, 71, 127
2, 141665, Note_off_c, 10, 45, 127
2, 141671, Note_on_c, 7, 43, 127
2, 141671, Note_on_c, 4, 64, 127
2, 141799, Note_off_c, 4, 64, 127
2, 141806, Note_on_c, 7, 67, 127
2, 141867, Note_off_c, 7, 43, 127
2, 141934, Note_off_c, 7, 67, 127
2, 141941, Note_on_c, 4, 52, 127
2, 141941, Note_on_c, 12, 71, 127
2, 142002, Note_off_c, 4, 52, 127
2, 142009, Note_on_c, 3, 51, 127
2, 142069, Note_off_c, 12, 71, 127
2, 142070, Note_off_c, 3, 51, 127
2, 142076, Note_on_c, 4, 52, 127
2, 142076, Note_on_c, 4, 76, 127
2, 142204, Note_off_c, 4, 76, 127
2, 142211, Note_on_c, 3, 75, 127
2, 142336, Note_off_c, 4, 52, 127
2, 142339, Note_off_c, 3, 75, 127
2, 142346, Note_on_c, 12, 59, 127
2, 142346, Note_on_c, 4, 76, 127
2, 142474, Note_off_c, 4, 76, 127
2, 142476, Note_off_c, 12, 59, 127
2, 142482, Note_on_c, 0, 60, 127
2, 142482, Note_on_c, 2, 74, 127
2, 142610, Note_off_c, 2, 74, 127
2, 142612, Note_off_c, 0, 60, 127
2, 142617, Note_on_c, 12, 59, 127
2, 142617, Note_on_c, 4, 76, 127
2, 142745, Note_off_c, 4, 76, 127
2, 142747, Note_off_c, 12, 59, 127
2, 142752, Note_on_c, 10, 57, 127
2, 142752, Note_on_c, 1, 73, 127
2, 142880, Note_off_c, 1, 73, 127
2, 142882, Note_off_c, 10, 57, 127
2, 142887, Note_on_c, 7, 55, 127
2, 142887, Note_on_c, 4, 76, 127
2, 143015, Note_off_c, 4, 76, 127
2, 143017, Note_off_c, 7, 55, 127
2, 143022, Note_on_c, 6, 54, 127
2, 143022, Note_on_c, 0, 72, 127
2, 143150, Note_off_c, 0, 72, 127
2, 143152, Note_off_c, 6, 54, 127
2, 143157, Note_on_c, 10, 57, 127
2, 143157, Note_on_c, 4, 76, 127
2, 143285, Note_off_c, 4, 76, 127
2, 143287, Note_off_c, 10, 57, 127
2, 143293, Note_on_c, 7, 55, 127
2, 143293, Note_on_c, 12, 71, 127
2, 143421, Note_off_c, 12, 71, 127
2, 143428, Note_on_c, 4, 76, 127
2, 143556, Note_off_c, 4, 76, 127
2, 143563, Note_on_c, 3, 75, 127
2, 143691, Note_off_c, 3, 75, 127
2, 143698, Note_on_c, 4, 76, 127
2, 143826, Note_off_c, 4, 76, 127
2, 143833, Note_on_c, 11, 70, 127
2, 143961, Note_off_c, 11, 70, 127
2, 143962, Note_off_c, 7, 55, 127
2, 143968, Note_on_c, 6, 54, 127
2, 143968, Note_on_c, 1, 73, 127
2, 144096, Note_off_c, 1, 73, 127
2, 144098, Note_off_c, 6, 54, 127
2, 144103, Note_on_c, 4, 52, 127
2, 144103, Note_on_c, 7, 67, 127
2, 144231, Note_off_c, 7, 67, 127
2, 144233, Note_off_c, 4, 52, 127
2, 144239, Note_on_c, 3, 51, 127
2, 144239, Note_on_c, 6, 66, 127
2, 144367, Note_off_c, 6, 66, 127
2, 144369, Note_off_c, 3, 51, 127
2, 144374, Note_on_c, 4, 52, 127
2, 144374, Note_on_c, 7, 67, 127
2, 144502, Note_off_c, 7, 67, 127
2, 144504, Note_off_c, 4, 52, 127
2, 144509, Note_on_c, 6, 54, 127
2, 144509, Note_on_c, 11, 70, 127
2, 144637, Note_off_c, 11, 70, 127
2, 144639, Note_off_c, 6, 54, 127
2, 144644, Note_on_c, 3, 51, 127
2, 144644, Note_on_c, 6, 66, 127
2, 144772, Note_off_c, 6, 66, 127
2, 144774, Note_off_c, 3, 51, 127
2, 144779, Note_on_c, 4, 52, 127
2, 144779, Note_on_c, 4, 64, 127
2, 144907, Note_off_c, 4, 64, 127
2, 144909, Note_off_c, 4, 52, 127
2, 144914, Note_on_c, 6, 54, 127
2, 144914, Note_on_c, 3, 63, 127
2, 145042, Note_off_c, 6, 54, 127
2, 145047, Note_on_c, 12, 47, 127
2, 145094, Note_off_c, 3, 63, 127
2, 145177, Note_off_c, 12, 47, 127
2, 145183, Note_on_c, 3, 51, 127
2, 145183, Note_on_c, 12, 71, 127
2, 145244, Note_off_c, 12, 71, 127
2, 145250, Note_on_c, 11, 70, 127
2, 145311, Note_off_c, 11, 70, 127
2, 145313, Note_off_c, 3, 51, 127
2, 145318, Note_on_c, 6, 54, 127
2, 145318, Note_on_c, 12, 71, 127
2, 145446, Note_off_c, 6, 54, 127
2, 145451, Note_on_c, 10, 57, 127
2, 145578, Note_off_c, 12, 71, 127
2, 145581, Note_off_c, 10, 57, 127
2, 145586, Note_on_c, 3, 51, 127
2, 145586, Note_on_c, 12, 83, 127
2, 145714, Note_off_c, 12, 83, 127
2, 145716, Note_off_c, 3, 51, 127
2, 145721, Note_on_c, 6, 54, 127
2, 145721, Note_on_c, 0, 84, 127
2, 145849, Note_off_c, 0, 84, 127
2, 145851, Note_off_c, 6, 54, 127
2, 145856, Note_on_c, 10, 57, 127
2, 145856, Note_on_c, 12, 83, 127
2, 145984, Note_off_c, 12, 83, 127
2, 145986, Note_off_c, 10, 57, 127
2, 145991, Note_on_c, 0, 60, 127
2, 145991, Note_on_c, 10, 81, 127
2, 146119, Note_off_c, 10, 81, 127
2, 146121, Note_off_c, 0, 60, 127
2, 146127, Note_on_c, 12, 59, 127
2, 146127, Note_on_c, 7, 79, 127
2, 146255, Note_off_c, 7, 79, 127
2, 146257, Note_off_c, 12, 59, 127
2, 146262, Note_on_c, 10, 57, 127
2, 146262, Note_on_c, 6, 78, 127
2, 146390, Note_off_c, 6, 78, 127
2, 146392, Note_off_c, 10, 57, 127
2, 146397, Note_on_c, 0, 60, 127
2, 146397, Note_on_c, 10, 81, 127
2, 146525, Note_off_c, 10, 81, 127
2, 146527, Note_off_c, 0, 60, 127
2, 146532, Note_on_c, 12, 59, 127
2, 146532, Note_on_c, 7, 79, 127
2, 146660, Note_off_c, 12, 59, 127
2, 146665, Note_on_c, 10, 57, 127
2, 146793, Note_off_c, 10, 57, 127
2, 146798, Note_on_c, 7, 55, 127
2, 146926, Note_off_c, 7, 55, 127
2, 146931, Note_on_c, 6, 54, 127
2, 147059, Note_off_c, 6, 54, 127
2, 147064, Note_on_c, 4, 52, 127
2, 147181, Note_off_c, 7, 79, 127
2, 147194, Note_off_c, 4, 52, 127
2, 147199, Note_on_c, 3, 51, 127
2, 147199, Note_on_c, 6, 78, 127
2, 147327, Note_off_c, 6, 78, 127
2, 147329, Note_off_c, 3, 51, 127
2, 147334, Note_on_c, 1, 49, 127
2, 147334, Note_on_c, 4, 76, 127
2, 147462, Note_off_c, 4, 76, 127
2, 147464, Note_off_c, 1, 49, 127
2, 147469, Note_on_c, 12, 47, 127
2, 147469, Note_on_c, 3, 75, 127
2, 147597, Note_off_c, 3, 75, 127
2, 147599, Note_off_c, 12, 47, 127
2, 147605, Note_on_c, 7, 55, 127
2, 147605, Note_on_c, 4, 76, 127
2, 147733, Note_off_c, 4, 76, 127
2, 147740, Note_on_c, 6, 78, 127
2, 147868, Note_off_c, 6, 78, 127
2, 147875, Note_on_c, 2, 74, 127
2, 148003, Note_off_c, 2, 74, 127
2, 148010, Note_on_c, 4, 76, 127
2, 148082, Note_off_c, 7, 55, 127
2, 148138, Note_off_c, 4, 76, 127
2, 148145, Note_on_c, 1, 73, 127
2, 148278, Note_on_c, 10, 45, 127
2, 148325, Note_off_c, 1, 73, 127
2, 148408, Note_off_c, 10, 45, 127
2, 148413, Note_on_c, 1, 49, 127
2, 148413, Note_on_c, 10, 81, 127
2, 148474, Note_off_c, 10, 81, 127
2, 148481, Note_on_c, 7, 79, 127
2, 148542, Note_off_c, 7, 79, 127
2, 148543, Note_off_c, 1, 49, 127
2, 148549, Note_on_c, 4, 52, 127
2, 148549, Note_on_c, 10, 81, 127
2, 148677, Note_off_c, 4, 52, 127
2, 148681, Note_on_c, 7, 55, 127
2, 148808, Note_off_c, 10, 81, 127
2, 148811, Note_off_c, 7, 55, 127
2, 148817, Note_on_c, 1, 49, 127
2, 148817, Note_on_c, 10, 81, 127
2, 148945, Note_off_c, 10, 81, 127
2, 148947, Note_off_c, 1, 49, 127
2, 148952, Note_on_c, 4, 52, 127
2, 148952, Note_on_c, 11, 82, 127
2, 149080, Note_off_c, 11, 82, 127
2, 149082, Note_off_c, 4, 52, 127
2, 149087, Note_on_c, 7, 55, 127
2, 149087, Note_on_c, 10, 81, 127
2, 149215, Note_off_c, 10, 81, 127
2, 149217, Note_off_c, 7, 55, 127
2, 149222, Note_on_c, 11, 58, 127
2, 149222, Note_on_c, 7, 79, 127
2, 149350, Note_off_c, 7, 79, 127
2, 149352, Note_off_c, 11, 58, 127
2, 149357, Note_on_c, 10, 57, 127
2, 149357, Note_on_c, 5, 77, 127
2, 149485, Note_off_c, 5, 77, 127
2, 149487, Note_off_c, 10, 57, 127
2, 149492, Note_on_c, 7, 55, 127
2, 149492, Note_on_c, 4, 76, 127
2, 149620, Note_off_c, 4, 76, 127
2, 149622, Note_off_c, 7, 55, 127
2, 149628, Note_on_c, 11, 58, 127
2, 149628, Note_on_c, 7, 79, 127
2, 149756, Note_off_c, 7, 79, 127
2, 149758, Note_off_c, 11, 58, 127
2, 149763, Note_on_c, 10, 57, 127
2, 149763, Note_on_c, 5, 77, 127
2, 149891, Note_off_c, 10, 57, 127
2, 149896, Note_on_c, 7, 55, 127
2, 150024, Note_off_c, 7, 55, 127
2, 150029, Note_on_c, 5, 53, 127
2, 150157, Note_off_c, 5, 53, 127
2, 150162, Note_on_c, 4, 52, 127
2, 150290, Note_off_c, 4, 52, 127
2, 150295, Note_on_c, 2, 50, 127
2, 150412, Note_off_c, 5, 77, 127
2, 150425, Note_off_c, 2, 50, 127
2, 150430, Note_on_c, 0, 48, 127
2, 150430, Note_on_c, 4, 76, 127
2, 150558, Note_off_c, 4, 76, 127
2, 150560, Note_off_c, 0, 48, 127
2, 150565, Note_on_c, 12, 47, 127
2, 150565, Note_on_c, 2, 74, 127
2, 150693, Note_off_c, 2, 74, 127
2, 150695, Note_off_c, 12, 47, 127
2, 150700, Note_on_c, 10, 45, 127
2, 150700, Note_on_c, 1, 73, 127
2, 150828, Note_off_c, 1, 73, 127
2, 150830, Note_off_c, 10, 45, 127
2, 150835, Note_on_c, 5, 53, 127
2, 150835, Note_on_c, 2, 74, 127
2, 150963, Note_off_c, 2, 74, 127
2, 150970, Note_on_c, 4, 76, 127
2, 151098, Note_off_c, 4, 76, 127
2, 151106, Note_on_c, 0, 72, 127
2, 151234, Note_off_c, 0, 72, 127
2, 151241, Note_on_c, 2, 74, 127
2, 151312, Note_off_c, 5, 53, 127
2, 151369, Note_off_c, 2, 74, 127
2, 151376, Note_on_c, 12, 71, 127
2, 151509, Note_on_c, 2, 50, 127
2, 151556, Note_off_c, 12, 71, 127
2, 151639, Note_off_c, 2, 50, 127
2, 151644, Note_on_c, 7, 43, 127
2, 151644, Note_on_c, 7, 79, 127
2, 151705, Note_off_c, 7, 79, 127
2, 151712, Note_on_c, 6, 78, 127
2, 151773, Note_off_c, 6, 78, 127
2, 151774, Note_off_c, 7, 43, 127
2, 151779, Note_on_c, 10, 45, 127
2, 151779, Note_on_c, 7, 79, 127
2, 151907, Note_off_c, 10, 45, 127
2, 151912, Note_on_c, 12, 47, 127
2, 152039, Note_off_c, 7, 79, 127
2, 152042, Note_off_c, 12, 47, 127
2, 152047, Note_on_c, 0, 48, 127
2, 152047, Note_on_c, 10, 69, 127
2, 152175, Note_off_c, 10, 69, 127
2, 152177, Note_off_c, 0, 48, 127
2, 152183, Note_on_c, 2, 50, 127
2, 152183, Note_on_c, 12, 71, 127
2, 152311, Note_off_c, 12, 71, 127
2, 152313, Note_off_c, 2, 50, 127
2, 152318, Note_on_c, 4, 52, 127
2, 152318, Note_on_c, 0, 72, 127
2, 152446, Note_off_c, 0, 72, 127
2, 152448, Note_off_c, 4, 52, 127
2, 152453, Note_on_c, 5, 53, 127
2, 152453, Note_on_c, 2, 74, 127
2, 152581, Note_off_c, 2, 74, 127
2, 152583, Note_off_c, 5, 53, 127
2, 152588, Note_on_c, 7, 55, 127
2, 152588, Note_on_c, 4, 76, 127
2, 152716, Note_off_c, 4, 76, 127
2, 152718, Note_off_c, 7, 55, 127
2, 152723, Note_on_c, 10, 57, 127
2, 152723, Note_on_c, 5, 77, 127
2, 152851, Note_off_c, 5, 77, 127
2, 152853, Note_off_c, 10, 57, 127
2, 152858, Note_on_c, 12, 59, 127
2, 152858, Note_on_c, 2, 74, 127
2, 152986, Note_off_c, 2, 74, 127
2, 152988, Note_off_c, 12, 59, 127
2, 152994, Note_on_c, 0, 60, 127
2, 152994, Note_on_c, 4, 76, 127
2, 153122, Note_off_c, 4, 76, 127
2, 153124, Note_off_c, 0, 60, 127
2, 153129, Note_on_c, 12, 59, 127
2, 153129, Note_on_c, 2, 74, 127
2, 153257, Note_off_c, 2, 74, 127
2, 153259, Note_off_c, 12, 59, 127
2, 153264, Note_on_c, 4, 64, 127
2, 153264, Note_on_c, 7, 79, 127
2, 153392, Note_off_c, 7, 79, 127
2, 153394, Note_off_c, 4, 64, 127
2, 153399, Note_on_c, 2, 62, 127
2, 153399, Note_on_c, 5, 77, 127
2, 153527, Note_off_c, 5, 77, 127
2, 153529, Note_off_c, 2, 62, 127
2, 153534, Note_on_c, 1, 61, 127
2, 153534, Note_on_c, 4, 76, 127
2, 153662, Note_off_c, 4, 76, 127
2, 153664, Note_off_c, 1, 61, 127
2, 153669, Note_on_c, 11, 58, 127
2, 153669, Note_on_c, 2, 74, 127
2, 153797, Note_off_c, 2, 74, 127
2, 153799, Note_off_c, 11, 58, 127
2, 153804, Note_on_c, 10, 57, 127
2, 153804, Note_on_c, 1, 73, 127
2, 153932, Note_off_c, 1, 73, 127
2, 153934, Note_off_c, 10, 57, 127
2, 153940, Note_on_c, 7, 55, 127
2, 153940, Note_on_c, 11, 70, 127
2, 154068, Note_off_c, 11, 70, 127
2, 154070, Note_off_c, 7, 55, 127
2, 154075, Note_on_c, 5, 53, 127
2, 154075, Note_on_c, 10, 69, 127
2, 154203, Note_off_c, 10, 69, 127
2, 154205, Note_off_c, 5, 53, 127
2, 154210, Note_on_c, 2, 62, 127
2, 154210, Note_on_c, 11, 70, 127
2, 154338, Note_off_c, 11, 70, 127
2, 154340, Note_off_c, 2, 62, 127
2, 154345, Note_on_c, 4, 52, 127
2, 154345, Note_on_c, 7, 67, 127
2, 154473, Note_off_c, 7, 67, 127
2, 154475, Note_off_c, 4, 52, 127
2, 154480, Note_on_c, 1, 61, 127
2, 154480, Note_on_c, 10, 69, 127
2, 154608, Note_off_c, 10, 69, 127
2, 154610, Note_off_c, 1, 61, 127
2, 154615, Note_on_c, 2, 50, 127
2, 154615, Note_on_c, 5, 65, 127
2, 154743, Note_off_c, 2, 50, 127
2, 154748, Note_on_c, 5, 53, 127
2, 154795, Note_off_c, 5, 65, 127
2, 154878, Note_off_c, 5, 53, 127
2, 154884, Note_on_c, 10, 57, 127
2, 154884, Note_on_c, 2, 74, 127
2, 154945, Note_off_c, 2, 74, 127
2, 154951, Note_on_c, 1, 73, 127
2, 155012, Note_off_c, 1, 73, 127
2, 155014, Note_off_c, 10, 57, 127
2, 155019, Note_on_c, 2, 62, 127
2, 155019, Note_on_c, 2, 74, 127
2, 155147, Note_off_c, 2, 62, 127
2, 155152, Note_on_c, 1, 61, 127
2, 155279, Note_off_c, 2, 74, 127
2, 155282, Note_off_c, 1, 61, 127
2, 155287, Note_on_c, 2, 62, 127
2, 155287, Note_on_c, 10, 81, 127
2, 155415, Note_off_c, 10, 81, 127
2, 155417, Note_off_c, 2, 62, 127
2, 155422, Note_on_c, 0, 60, 127
2, 155422, Note_on_c, 11, 82, 127
2, 155550, Note_off_c, 11, 82, 127
2, 155552, Note_off_c, 0, 60, 127
2, 155557, Note_on_c, 2, 62, 127
2, 155557, Note_on_c, 10, 81, 127
2, 155685, Note_off_c, 10, 81, 127
2, 155687, Note_off_c, 2, 62, 127
2, 155692, Note_on_c, 12, 59, 127
2, 155692, Note_on_c, 7, 79, 127
2, 155820, Note_off_c, 7, 79, 127
2, 155822, Note_off_c, 12, 59, 127
2, 155828, Note_on_c, 2, 62, 127
2, 155828, Note_on_c, 5, 77, 127
2, 155956, Note_off_c, 5, 77, 127
2, 155958, Note_off_c, 2, 62, 127
2, 155963, Note_on_c, 11, 58, 127
2, 155963, Note_on_c, 4, 76, 127
2, 156091, Note_off_c, 4, 76, 127
2, 156093, Note_off_c, 11, 58, 127
2, 156098, Note_on_c, 2, 62, 127
2, 156098, Note_on_c, 7, 79, 127
2, 156226, Note_off_c, 7, 79, 127
2, 156228, Note_off_c, 2, 62, 127
2, 156233, Note_on_c, 10, 57, 127
2, 156233, Note_on_c, 5, 77, 127
2, 156361, Note_off_c, 10, 57, 127
2, 156366, Note_on_c, 2, 62, 127
2, 156494, Note_off_c, 2, 62, 127
2, 156499, Note_on_c, 1, 61, 127
2, 156627, Note_off_c, 1, 61, 127
2, 156632, Note_on_c, 2, 62, 127
2, 156760, Note_off_c, 2, 62, 127
2, 156765, Note_on_c, 8, 56, 127
2, 156882, Note_off_c, 5, 77, 127
2, 156895, Note_off_c, 8, 56, 127
2, 156900, Note_on_c, 12, 59, 127
2, 156900, Note_on_c, 4, 76, 127
2, 157028, Note_off_c, 4, 76, 127
2, 157030, Note_off_c, 12, 59, 127
2, 157035, Note_on_c, 5, 53, 127
2, 157035, Note_on_c, 2, 74, 127
2, 157163, Note_off_c, 2, 74, 127
2, 157165, Note_off_c, 5, 53, 127
2, 157170, Note_on_c, 4, 52, 127
2, 157170, Note_on_c, 0, 72, 127
2, 157298, Note_off_c, 0, 72, 127
2, 157300, Note_off_c, 4, 52, 127
2, 157306, Note_on_c, 5, 53, 127
2, 157306, Note_on_c, 2, 74, 127
2, 157434, Note_off_c, 2, 74, 127
2, 157436, Note_off_c, 5, 53, 127
2, 157441, Note_on_c, 8, 56, 127
2, 157441, Note_on_c, 0, 72, 127
2, 157569, Note_off_c, 0, 72, 127
2, 157571, Note_off_c, 8, 56, 127
2, 157576, Note_on_c, 4, 52, 127
2, 157576, Note_on_c, 2, 74, 127
2, 157704, Note_off_c, 2, 74, 127
2, 157706, Note_off_c, 4, 52, 127
2, 157711, Note_on_c, 2, 50, 127
2, 157711, Note_on_c, 4, 76, 127
2, 157839, Note_off_c, 4, 76, 127
2, 157841, Note_off_c, 2, 50, 127
2, 157846, Note_on_c, 0, 48, 127
2, 157846, Note_on_c, 10, 69, 127
2, 157974, Note_off_c, 10, 69, 127
2, 157981, Note_on_c, 0, 72, 127
2, 158042, Note_off_c, 0, 48, 127
2, 158109, Note_off_c, 0, 72, 127
2, 158117, Note_on_c, 10, 57, 127
2, 158117, Note_on_c, 4, 76, 127
2, 158178, Note_off_c, 10, 57, 127
2, 158184, Note_on_c, 8, 56, 127
2, 158245, Note_off_c, 8, 56, 127
2, 158245, Note_off_c, 4, 76, 127
2, 158252, Note_on_c, 10, 57, 127
2, 158252, Note_on_c, 10, 81, 127
2, 158380, Note_off_c, 10, 81, 127
2, 158387, Note_on_c, 8, 80, 127
2, 158512, Note_off_c, 10, 57, 127
2, 158515, Note_off_c, 8, 80, 127
2, 158522, Note_on_c, 4, 64, 127
2, 158522, Note_on_c, 10, 81, 127
2, 158650, Note_off_c, 10, 81, 127
2, 158652, Note_off_c, 4, 64, 127
2, 158657, Note_on_c, 5, 65, 127
2, 158657, Note_on_c, 7, 79, 127
2, 158785, Note_off_c, 7, 79, 127
2, 158787, Note_off_c, 5, 65, 127
2, 158792, Note_on_c, 4, 64, 127
2, 158792, Note_on_c, 10, 81, 127
2, 158920, Note_off_c, 10, 81, 127
2, 158922, Note_off_c, 4, 64, 127
2, 158927, Note_on_c, 2, 62, 127
2, 158927, Note_on_c, 6, 78, 127
2, 159055, Note_off_c, 6, 78, 127
2, 159057, Note_off_c, 2, 62, 127
2, 159063, Note_on_c, 0, 60, 127
2, 159063, Note_on_c, 10, 81, 127
2, 159191, Note_off_c, 10, 81, 127
2, 159193, Note_off_c, 0, 60, 127
2, 159198, Note_on_c, 12, 59, 127
2, 159198, Note_on_c, 5, 77, 127
2, 159326, Note_off_c, 5, 77, 127
2, 159328, Note_off_c, 12, 59, 127
2, 159333, Note_on_c, 2, 62, 127
2, 159333, Note_on_c, 10, 81, 127
2, 159461, Note_off_c, 10, 81, 127
2, 159463, Note_off_c, 2, 62, 127
2, 159468, Note_on_c, 0, 60, 127
2, 159468, Note_on_c, 4, 76, 127
2, 159596, Note_off_c, 4, 76, 127
2, 159603, Note_on_c, 10, 81, 127
2, 159731, Note_off_c, 10, 81, 127
2, 159738, Note_on_c, 8, 80, 127
2, 159866, Note_off_c, 8, 80, 127
2, 159874, Note_on_c, 10, 81, 127
2, 159945, Note_off_c, 0, 60, 127
2, 160002, Note_off_c, 10, 81, 127
2, 160009, Note_on_c, 3, 75, 127
2, 160137, Note_off_c, 3, 75, 127
2, 160144, Note_on_c, 12, 59, 127
2, 160144, Note_on_c, 6, 78, 127
2, 160272, Note_off_c, 6, 78, 127
2, 160274, Note_off_c, 12, 59, 127
2, 160279, Note_on_c, 10, 57, 127
2, 160279, Note_on_c, 0, 72, 127
2, 160407, Note_off_c, 0, 72, 127
2, 160409, Note_off_c, 10, 57, 127
2, 160414, Note_on_c, 8, 56, 127
2, 160414, Note_on_c, 12, 71, 127
2, 160542, Note_off_c, 12, 71, 127
2, 160544, Note_off_c, 8, 56, 127
2, 160549, Note_on_c, 10, 57, 127
2, 160549, Note_on_c, 0, 72, 127
2, 160677, Note_off_c, 0, 72, 127
2, 160679, Note_off_c, 10, 57, 127
2, 160685, Note_on_c, 6, 54, 127
2, 160685, Note_on_c, 3, 75, 127
2, 160813, Note_off_c, 3, 75, 127
2, 160815, Note_off_c, 6, 54, 127
2, 160820, Note_on_c, 3, 51, 127
2, 160820, Note_on_c, 12, 71, 127
2, 160948, Note_off_c, 12, 71, 127
2, 160950, Note_off_c, 3, 51, 127
2, 160955, Note_on_c, 6, 54, 127
2, 160955, Note_on_c, 10, 69, 127
2, 161083, Note_off_c, 10, 69, 127
2, 161085, Note_off_c, 6, 54, 127
2, 161090, Note_on_c, 12, 59, 127
2, 161090, Note_on_c, 8, 68, 127
2, 161218, Note_off_c, 12, 59, 127
2, 161223, Note_on_c, 10, 57, 127
2, 161270, Note_off_c, 8, 68, 127
2, 161353, Note_off_c, 10, 57, 127
2, 161358, Note_on_c, 8, 56, 127
2, 161358, Note_on_c, 4, 64, 127
2, 161486, Note_off_c, 8, 56, 127
2, 161491, Note_on_c, 6, 54, 127
2, 161538, Note_off_c, 4, 64, 127
2, 161621, Note_off_c, 6, 54, 127
2, 161626, Note_on_c, 4, 52, 127
2, 161626, Note_on_c, 8, 68, 127
2, 161754, Note_off_c, 4, 52, 127
2, 161759, Note_on_c, 3, 51, 127
2, 161806, Note_off_c, 8, 68, 127
2, 161889, Note_off_c, 3, 51, 127
2, 161894, Note_on_c, 12, 59, 127
2, 161894, Note_on_c, 12, 71, 127
2, 162022, Note_off_c, 12, 59, 127
2, 162027, Note_on_c, 10, 57, 127
2, 162074, Note_off_c, 12, 71, 127
2, 162157, Note_off_c, 10, 57, 127
2, 162163, Note_on_c, 8, 56, 127
2, 162163, Note_on_c, 4, 76, 127
2, 162291, Note_off_c, 8, 56, 127
2, 162296, Note_on_c, 6, 54, 127
2, 162343, Note_off_c, 4, 76, 127
2, 162426, Note_off_c, 6, 54, 127
2, 162431, Note_on_c, 4, 52, 127
2, 162431, Note_on_c, 8, 68, 127
2, 162559, Note_off_c, 4, 52, 127
2, 162564, Note_on_c, 2, 50, 127
2, 162611, Note_off_c, 8, 68, 127
2, 162694, Note_off_c, 2, 50, 127
2, 162699, Note_on_c, 1, 49, 127
2, 162699, Note_on_c, 4, 76, 127
2, 162827, Note_off_c, 4, 76, 127
2, 162834, Note_on_c, 2, 74, 127
2, 162895, Note_off_c, 1, 49, 127
2, 162962, Note_off_c, 2, 74, 127
2, 162969, Note_on_c, 10, 45, 127
2, 162969, Note_on_c, 1, 73, 127
2, 163097, Note_off_c, 1, 73, 127
2, 163104, Note_on_c, 12, 71, 127
2, 163165, Note_off_c, 10, 45, 127
2, 163232, Note_off_c, 12, 71, 127
2, 163240, Note_on_c, 1, 49, 127
2, 163240, Note_on_c, 10, 69, 127
2, 163368, Note_off_c, 10, 69, 127
2, 163375, Note_on_c, 8, 68, 127
2, 163436, Note_off_c, 1, 49, 127
2, 163503, Note_off_c, 8, 68, 127
2, 163510, Note_on_c, 4, 52, 127
2, 163510, Note_on_c, 4, 76, 127
2, 163638, Note_off_c, 4, 76, 127
2, 163645, Note_on_c, 2, 74, 127
2, 163706, Note_off_c, 4, 52, 127
2, 163773, Note_off_c, 2, 74, 127
2, 163780, Note_on_c, 10, 57, 127
2, 163780, Note_on_c, 1, 73, 127
2, 163908, Note_off_c, 1, 73, 127
2, 163915, Note_on_c, 12, 71, 127
2, 163976, Note_off_c, 10, 57, 127
2, 164043, Note_off_c, 12, 71, 127
2, 164050, Note_on_c, 1, 49, 127
2, 164050, Note_on_c, 10, 69, 127
2, 164178, Note_off_c, 10, 69, 127
2, 164186, Note_on_c, 7, 67, 127
2, 164246, Note_off_c, 1, 49, 127
2, 164314, Note_off_c, 7, 67, 127
2, 164321, Note_on_c, 10, 57, 127
2, 164321, Note_on_c, 6, 66, 127
2, 164449, Note_off_c, 10, 57, 127
2, 164454, Note_on_c, 7, 55, 127
2, 164501, Note_off_c, 6, 66, 127
2, 164584, Note_off_c, 7, 55, 127
2, 164589, Note_on_c, 6, 54, 127
2, 164589, Note_on_c, 2, 62, 127
2, 164717, Note_off_c, 6, 54, 127
2, 164722, Note_on_c, 4, 52, 127
2, 164769, Note_off_c, 2, 62, 127
2, 164852, Note_off_c, 4, 52, 127
2, 164857, Note_on_c, 2, 50, 127
2, 164857, Note_on_c, 6, 66, 127
2, 164985, Note_off_c, 2, 50, 127
2, 164990, Note_on_c, 1, 49, 127
2, 165037, Note_off_c, 6, 66, 127
2, 165120, Note_off_c, 1, 49, 127
2, 165125, Note_on_c, 10, 57, 127
2, 165125, Note_on_c, 10, 69, 127
2, 165253, Note_off_c, 10, 57, 127
2, 165258, Note_on_c, 7, 55, 127
2, 165305, Note_off_c, 10, 69, 127
2, 165388, Note_off_c, 7, 55, 127
2, 165393, Note_on_c, 6, 54, 127
2, 165393, Note_on_c, 2, 74, 127
2, 165521, Note_off_c, 6, 54, 127
2, 165526, Note_on_c, 4, 52, 127
2, 165573, Note_off_c, 2, 74, 127
2, 165656, Note_off_c, 4, 52, 127
2, 165662, Note_on_c, 2, 50, 127
2, 165662, Note_on_c, 6, 66, 127
2, 165790, Note_off_c, 2, 50, 127
2, 165794, Note_on_c, 0, 48, 127
2, 165842, Note_off_c, 6, 66, 127
2, 165924, Note_off_c, 0, 48, 127
2, 165930, Note_on_c, 12, 47, 127
2, 165930, Note_on_c, 2, 74, 127
2, 166058, Note_off_c, 2, 74, 127
2, 166065, Note_on_c, 0, 72, 127
2, 166126, Note_off_c, 12, 47, 127
2, 166193, Note_off_c, 0, 72, 127
2, 166200, Note_on_c, 7, 43, 127
2, 166200, Note_on_c, 12, 71, 127
2, 166328, Note_off_c, 12, 71, 127
2, 166335, Note_on_c, 10, 69, 127
2, 166396, Note_off_c, 7, 43, 127
2, 166463, Note_off_c, 10, 69, 127
2, 166470, Note_on_c, 12, 47, 127
2, 166470, Note_on_c, 7, 67, 127
2, 166598, Note_off_c, 7, 67, 127
2, 166605, Note_on_c, 6, 66, 127
2, 166666, Note_off_c, 12, 47, 127
2, 166733, Note_off_c, 6, 66, 127
2, 166741, Note_on_c, 2, 50, 127
2, 166741, Note_on_c, 2, 74, 127
2, 166869, Note_off_c, 2, 74, 127
2, 166876, Note_on_c, 0, 72, 127
2, 166937, Note_off_c, 2, 50, 127
2, 167004, Note_off_c, 0, 72, 127
2, 167011, Note_on_c, 7, 55, 127
2, 167011, Note_on_c, 12, 71, 127
2, 167139, Note_off_c, 12, 71, 127
2, 167146, Note_on_c, 10, 69, 127
2, 167207, Note_off_c, 7, 55, 127
2, 167274, Note_off_c, 10, 69, 127
2, 167281, Note_on_c, 12, 47, 127
2, 167281, Note_on_c, 7, 67, 127
2, 167409, Note_off_c, 7, 67, 127
2, 167416, Note_on_c, 6, 66, 127
2, 167477, Note_off_c, 12, 47, 127
2, 167544, Note_off_c, 6, 66, 127
2, 167552, Note_on_c, 12, 59, 127
2, 167552, Note_on_c, 12, 71, 127
2, 167680, Note_off_c, 12, 71, 127
2, 167682, Note_off_c, 12, 59, 127
2, 167687, Note_on_c, 10, 57, 127
2, 167687, Note_on_c, 10, 69, 127
2, 167815, Note_off_c, 10, 69, 127
2, 167817, Note_off_c, 10, 57, 127
2, 167822, Note_on_c, 7, 55, 127
2, 167822, Note_on_c, 7, 67, 127
2, 167950, Note_off_c, 7, 67, 127
2, 167952, Note_off_c, 7, 55, 127
2, 167957, Note_on_c, 6, 54, 127
2, 167957, Note_on_c, 6, 66, 127
2, 168085, Note_off_c, 6, 66, 127
2, 168087, Note_off_c, 6, 54, 127
2, 168092, Note_on_c, 4, 52, 127
2, 168092, Note_on_c, 4, 64, 127
2, 168220, Note_off_c, 4, 64, 127
2, 168222, Note_off_c, 4, 52, 127
2, 168227, Note_on_c, 3, 51, 127
2, 168227, Note_on_c, 3, 63, 127
2, 168355, Note_off_c, 3, 63, 127
2, 168357, Note_off_c, 3, 51, 127
2, 168363, Note_on_c, 12, 59, 127
2, 168363, Note_on_c, 12, 71, 127
2, 168491, Note_off_c, 12, 71, 127
2, 168493, Note_off_c, 12, 59, 127
2, 168498, Note_on_c, 10, 57, 127
2, 168498, Note_on_c, 10, 69, 127
2, 168626, Note_off_c, 10, 69, 127
2, 168628, Note_off_c, 10, 57, 127
2, 168633, Note_on_c, 7, 55, 127
2, 168633, Note_on_c, 7, 67, 127
2, 168761, Note_off_c, 7, 67, 127
2, 168763, Note_off_c, 7, 55, 127
2, 168768, Note_on_c, 6, 54, 127
2, 168768, Note_on_c, 6, 66, 127
2, 168896, Note_off_c, 6, 66, 127
2, 168898, Note_off_c, 6, 54, 127
2, 168903, Note_on_c, 4, 52, 127
2, 168903, Note_on_c, 4, 64, 127
2, 169031, Note_off_c, 4, 64, 127
2, 169033, Note_off_c, 4, 52, 127
2, 169038, Note_on_c, 3, 51, 127
2, 169038, Note_on_c, 3, 63, 127
2, 169166, Note_off_c, 3, 63, 127
2, 169168, Note_off_c, 3, 51, 127
2, 169173, Note_on_c, 4, 52, 127
2, 169173, Note_on_c, 4, 64, 127
2, 169306, Note_on_c, 12, 47, 127
2, 169306, Note_on_c, 7, 67, 127
2, 169338, Note_off_c, 4, 52, 127
2, 169439, Note_on_c, 7, 43, 127
2, 169439, Note_on_c, 12, 71, 127
2, 169471, Note_off_c, 12, 47, 127
2, 169572, Note_on_c, 4, 40, 127
2, 169572, Note_on_c, 4, 76, 127
2, 169604, Note_off_c, 7, 43, 127
2, 169694, Note_off_c, 7, 67, 127
2, 169700, Note_off_c, 4, 64, 127
2, 169702, Note_off_c, 12, 71, 127
2, 169721, Note_on_c, 3, 75, 127
2, 169730, Note_off_c, 4, 76, 127
2, 169814, Note_off_c, 4, 40, 127
2, 169847, Note_off_c, 3, 75, 127
2, 169854, Note_on_c, 4, 76, 127
2, 169854, Note_on_c, 12, 59, 127
2, 169982, Note_off_c, 4, 76, 127
2, 169984, Note_off_c, 12, 59, 127
2, 169990, Note_on_c, 2, 74, 127
2, 169990, Note_on_c, 0, 60, 127
2, 170118, Note_off_c, 2, 74, 127
2, 170120, Note_off_c, 0, 60, 127
2, 170125, Note_on_c, 4, 76, 127
2, 170125, Note_on_c, 12, 59, 127
2, 170253, Note_off_c, 4, 76, 127
2, 170255, Note_off_c, 12, 59, 127
2, 170260, Note_on_c, 1, 73, 127
2, 170260, Note_on_c, 10, 57, 127
2, 170388, Note_off_c, 1, 73, 127
2, 170390, Note_off_c, 10, 57, 127
2, 170395, Note_on_c, 4, 76, 127
2, 170395, Note_on_c, 7, 55, 127
2, 170523, Note_off_c, 4, 76, 127
2, 170525, Note_off_c, 7, 55, 127
2, 170530, Note_on_c, 0, 72, 127
2, 170530, Note_on_c, 6, 54, 127
2, 170658, Note_off_c, 0, 72, 127
2, 170660, Note_off_c, 6, 54, 127
2, 170665, Note_on_c, 4, 76, 127
2, 170665, Note_on_c, 10, 57, 127
2, 170793, Note_off_c, 4, 76, 127
2, 170795, Note_off_c, 10, 57, 127
2, 170801, Note_on_c, 12, 71, 127
2, 170801, Note_on_c, 7, 55, 127
2, 170929, Note_off_c, 12, 71, 127
2, 170931, Note_off_c, 7, 55, 127
2, 170936, Note_on_c, 10, 69, 127
2, 170936, Note_on_c, 6, 54, 127
2, 171064, Note_off_c, 10, 69, 127
2, 171066, Note_off_c, 6, 54, 127
2, 171071, Note_on_c, 7, 67, 127
2, 171071, Note_on_c, 4, 52, 127
2, 171199, Note_off_c, 7, 67, 127
2, 171206, Note_on_c, 0, 72, 127
2, 171206, Note_on_c, 4, 64, 127
2, 171295, Note_off_c, 4, 52, 127
2, 171334, Note_off_c, 0, 72, 127
2, 171336, Note_off_c, 4, 64, 127
2, 171341, Note_on_c, 12, 71, 127
2, 171341, Note_on_c, 3, 63, 127
2, 171474, Note_on_c, 10, 69, 127
2, 171474, Note_on_c, 4, 64, 127
2, 171506, Note_off_c, 3, 63, 127
2, 171519, Note_off_c, 12, 71, 127
2, 171600, Note_off_c, 10, 69, 127
2, 171602, Note_off_c, 4, 64, 127
2, 171607, Note_on_c, 12, 71, 127
2, 171607, Note_on_c, 2, 62, 127
2, 171740, Note_on_c, 8, 68, 127
2, 171740, Note_on_c, 4, 64, 127
2, 171772, Note_off_c, 2, 62, 127
2, 171866, Note_off_c, 8, 68, 127
2, 171868, Note_off_c, 4, 64, 127
2, 171870, Note_off_c, 12, 71, 127
2, 171873, Note_on_c, 10, 69, 127
2, 171873, Note_on_c, 1, 61, 127
2, 172006, Note_on_c, 7, 67, 127
2, 172006, Note_on_c, 4, 64, 127
2, 172038, Note_off_c, 1, 61, 127
2, 172051, Note_off_c, 10, 69, 127
2, 172132, Note_off_c, 7, 67, 127
2, 172134, Note_off_c, 4, 64, 127
2, 172139, Note_on_c, 10, 69, 127
2, 172139, Note_on_c, 0, 60, 127
2, 172272, Note_on_c, 6, 66, 127
2, 172272, Note_on_c, 4, 64, 127
2, 172304, Note_off_c, 0, 60, 127
2, 172398, Note_off_c, 6, 66, 127
2, 172400, Note_off_c, 4, 64, 127
2, 172402, Note_off_c, 10, 69, 127
2, 172421, Note_on_c, 12, 59, 127
2, 172421, Note_on_c, 7, 67, 127
2, 172556, Note_off_c, 7, 67, 127
2, 172563, Note_on_c, 6, 66, 127
2, 172698, Note_off_c, 6, 66, 127
2, 172700, Note_off_c, 12, 59, 127
2, 172702, Note_on_c, 10, 57, 127
2, 172702, Note_on_c, 7, 67, 127
2, 172837, Note_off_c, 7, 67, 127
2, 172844, Note_on_c, 10, 69, 127
2, 172979, Note_off_c, 10, 69, 127
2, 172981, Note_off_c, 10, 57, 127
2, 172999, Note_on_c, 3, 63, 127
2, 172999, Note_on_c, 12, 59, 127
2, 173159, Note_on_c, 6, 66, 127
2, 173311, Note_off_c, 6, 66, 127
2, 173315, Note_off_c, 3, 63, 127
2, 173320, Note_on_c, 0, 60, 127
2, 173465, Note_off_c, 12, 59, 127
2, 173472, Note_off_c, 0, 60, 127
2, 173479, Note_on_c, 12, 59, 127
2, 173638, Note_on_c, 0, 60, 127
2, 173638, Note_on_c, 12, 47, 127
2, 173819, Note_on_c, 3, 63, 127
2, 173984, Note_off_c, 12, 59, 127
2, 173995, Note_off_c, 0, 60, 127
2, 174000, Note_on_c, 12, 59, 127
2, 174172, Note_off_c, 12, 59, 127
2, 174179, Note_on_c, 10, 57, 127
2, 174350, Note_off_c, 12, 47, 127
2, 174351, Note_off_c, 10, 57, 127
2, 174357, Note_off_c, 3, 63, 127
2, 174358, Note_on_c, 8, 56, 127
2, 174358, Note_on_c, 4, 40, 127
2, 174447, Note_on_c, 12, 59, 127
2, 174536, Note_on_c, 4, 64, 127
2, 178470, Note_off_c, 4, 64, 127
2, 178569, Note_off_c, 12, 59, 127
2, 178667, Note_off_c, 4, 40, 127
2, 178667, Note_off_c, 8, 56, 127
2, 184320, End_track
3, 0, Start_track
3, 0, Title_t, "MIDI"
3, 1536, End_track
0, 0, End_of_file
