0, 0, Header, 1, 3, 384
1, 0, Start_track
1, 0, Time_signature, 4, 2, 24, 8
1, 0, Tempo, 500000
1, 132096, End_track
2, 0, Start_track
2, 0, Text_t, "harpsichord: John Sankey"
2, 0, Program_c, 0, 6
2, 0, Pitch_bend_c, 0, 8192
2, 0, Program_c, 1, 6
2, 0, Pitch_bend_c, 1, 7792
2, 0, Program_c, 2, 6
2, 0, Pitch_bend_c, 2, 7876
2, 0, Program_c, 3, 6
2, 0, Pitch_bend_c, 3, 7952
2, 0, Program_c, 4, 6
2, 0, Pitch_bend_c, 4, 7792
2, 0, Program_c, 5, 6
2, 0, Pitch_bend_c, 5, 8112
2, 0, Program_c, 6, 6
2, 0, Pitch_bend_c, 6, 7712
2, 0, Program_c, 7, 6
2, 0, Pitch_bend_c, 7, 8037
2, 0, Program_c, 8, 6
2, 0, Pitch_bend_c, 8, 7872
2, 0, Program_c, 10, 6
2, 0, Pitch_bend_c, 10, 7712
2, 0, Program_c, 11, 6
2, 0, Pitch_bend_c, 11, 8032
2, 0, Program_c, 12, 6
2, 0, Pitch_bend_c, 12, 7872
2, 0, Title_t, "Track 1"
2, 65, Note_on_c, 5, 53, 127
2, 65, Note_on_c, 5, 77, 127
2, 188, Note_on_c, 0, 72, 127
2, 309, Note_off_c, 0, 72, 127
2, 310, Note_off_c, 5, 53, 127
2, 313, Note_on_c, 10, 57, 127
2, 313, Note_on_c, 10, 69, 127
2, 427, Note_off_c, 5, 77, 127
2, 434, Note_off_c, 10, 69, 127
2, 437, Note_on_c, 7, 67, 127
2, 529, Note_off_c, 10, 57, 127
2, 558, Note_off_c, 7, 67, 127
2, 562, Note_on_c, 0, 60, 127
2, 562, Note_on_c, 10, 69, 127
2, 683, Note_off_c, 10, 69, 127
2, 686, Note_on_c, 0, 72, 127
2, 778, Note_off_c, 0, 60, 127
2, 807, Note_off_c, 0, 72, 127
2, 810, Note_on_c, 10, 57, 127
2, 810, Note_on_c, 5, 65, 127
2, 931, Note_off_c, 5, 65, 127
2, 935, Note_on_c, 10, 69, 127
2, 1026, Note_off_c, 10, 57, 127
2, 1056, Note_off_c, 10, 69, 127
2, 1059, Note_on_c, 5, 53, 127
2, 1059, Note_on_c, 0, 72, 127
2, 1180, Note_off_c, 0, 72, 127
2, 1184, Note_on_c, 3, 75, 127
2, 1275, Note_off_c, 5, 53, 127
2, 1305, Note_off_c, 3, 75, 127
2, 1308, Note_on_c, 10, 57, 127
2, 1308, Note_on_c, 2, 74, 127
2, 1429, Note_off_c, 2, 74, 127
2, 1433, Note_on_c, 0, 72, 127
2, 1524, Note_off_c, 10, 57, 127
2, 1554, Note_off_c, 0, 72, 127
2, 1557, Note_on_c, 11, 58, 127
2, 1557, Note_on_c, 2, 74, 127
2, 1680, Note_on_c, 11, 70, 127
2, 1801, Note_off_c, 11, 70, 127
2, 1802, Note_off_c, 2, 74, 127
2, 1802, Note_off_c, 11, 58, 127
2, 1805, Note_on_c, 2, 62, 127
2, 1805, Note_on_c, 5, 65, 127
2, 1926, Note_off_c, 5, 65, 127
2, 1929, Note_on_c, 4, 64, 127
2, 2021, Note_off_c, 2, 62, 127
2, 2050, Note_off_c, 4, 64, 127
2, 2054, Note_on_c, 11, 58, 127
2, 2054, Note_on_c, 5, 65, 127
2, 2175, Note_off_c, 5, 65, 127
2, 2178, Note_on_c, 11, 70, 127
2, 2270, Note_off_c, 11, 58, 127
2, 2299, Note_off_c, 11, 70, 127
2, 2303, Note_on_c, 5, 41, 127
2, 2303, Note_on_c, 2, 62, 127
2, 2424, Note_off_c, 2, 62, 127
2, 2427, Note_on_c, 5, 65, 127
2, 2548, Note_off_c, 5, 65, 127
2, 2552, Note_on_c, 10, 69, 127
2, 2673, Note_off_c, 10, 69, 127
2, 2676, Note_on_c, 0, 72, 127
2, 2794, Note_off_c, 5, 41, 127
2, 2797, Note_off_c, 0, 72, 127
2, 2800, Note_on_c, 11, 70, 127
2, 2921, Note_off_c, 11, 70, 127
2, 2925, Note_on_c, 10, 69, 127
2, 3046, Note_off_c, 10, 69, 127
2, 3049, Note_on_c, 5, 53, 127
2, 3049, Note_on_c, 11, 70, 127
2, 3174, Note_on_c, 7, 67, 127
2, 3294, Note_off_c, 5, 53, 127
2, 3295, Note_off_c, 7, 67, 127
2, 3297, Note_on_c, 7, 55, 127
2, 3297, Note_on_c, 4, 64, 127
2, 3411, Note_off_c, 11, 70, 127
2, 3418, Note_off_c, 4, 64, 127
2, 3422, Note_on_c, 2, 62, 127
2, 3513, Note_off_c, 7, 55, 127
2, 3543, Note_off_c, 2, 62, 127
2, 3546, Note_on_c, 11, 58, 127
2, 3546, Note_on_c, 4, 64, 127
2, 3667, Note_off_c, 4, 64, 127
2, 3670, Note_on_c, 7, 67, 127
2, 3762, Note_off_c, 11, 58, 127
2, 3791, Note_off_c, 7, 67, 127
2, 3795, Note_on_c, 7, 55, 127
2, 3795, Note_on_c, 0, 60, 127
2, 3916, Note_off_c, 0, 60, 127
2, 3919, Note_on_c, 4, 64, 127
2, 4011, Note_off_c, 7, 55, 127
2, 4040, Note_off_c, 4, 64, 127
2, 4044, Note_on_c, 4, 52, 127
2, 4044, Note_on_c, 7, 67, 127
2, 4165, Note_off_c, 7, 67, 127
2, 4168, Note_on_c, 11, 70, 127
2, 4260, Note_off_c, 4, 52, 127
2, 4289, Note_off_c, 11, 70, 127
2, 4293, Note_on_c, 0, 48, 127
2, 4293, Note_on_c, 10, 69, 127
2, 4414, Note_off_c, 10, 69, 127
2, 4417, Note_on_c, 7, 67, 127
2, 4509, Note_off_c, 0, 48, 127
2, 4538, Note_off_c, 7, 67, 127
2, 4542, Note_on_c, 5, 53, 127
2, 4542, Note_on_c, 10, 69, 127
2, 4666, Note_on_c, 7, 67, 127
2, 4787, Note_off_c, 7, 67, 127
2, 4787, Note_off_c, 10, 69, 127
2, 4787, Note_off_c, 5, 53, 127
2, 4789, Note_on_c, 10, 57, 127
2, 4789, Note_on_c, 5, 65, 127
2, 4910, Note_off_c, 5, 65, 127
2, 4914, Note_on_c, 4, 64, 127
2, 5005, Note_off_c, 10, 57, 127
2, 5035, Note_off_c, 4, 64, 127
2, 5038, Note_on_c, 5, 53, 127
2, 5038, Note_on_c, 5, 65, 127
2, 5159, Note_off_c, 5, 65, 127
2, 5163, Note_on_c, 10, 69, 127
2, 5254, Note_off_c, 5, 53, 127
2, 5284, Note_off_c, 10, 69, 127
2, 5287, Note_on_c, 5, 41, 127
2, 5287, Note_on_c, 0, 60, 127
2, 5408, Note_off_c, 0, 60, 127
2, 5412, Note_on_c, 4, 64, 127
2, 5533, Note_off_c, 4, 64, 127
2, 5536, Note_on_c, 5, 65, 127
2, 5657, Note_off_c, 5, 65, 127
2, 5661, Note_on_c, 10, 69, 127
2, 5782, Note_off_c, 10, 69, 127
2, 5785, Note_on_c, 7, 67, 127
2, 5906, Note_off_c, 7, 67, 127
2, 5908, Note_off_c, 5, 41, 127
2, 5909, Note_on_c, 5, 65, 127
2, 6012, Note_off_c, 5, 65, 127
2, 6034, Note_on_c, 5, 53, 127
2, 6034, Note_on_c, 10, 69, 127
2, 6116, Note_on_c, 12, 71, 127
2, 6122, Note_off_c, 10, 69, 127
2, 6155, Note_off_c, 5, 53, 127
2, 6158, Note_on_c, 2, 50, 127
2, 6199, Note_on_c, 0, 72, 127
2, 6204, Note_off_c, 12, 71, 127
2, 6279, Note_off_c, 2, 50, 127
2, 6283, Note_on_c, 12, 47, 127
2, 6283, Note_on_c, 12, 71, 127
2, 6287, Note_off_c, 0, 72, 127
2, 6365, Note_on_c, 0, 72, 127
2, 6371, Note_off_c, 12, 71, 127
2, 6404, Note_off_c, 12, 47, 127
2, 6406, Note_on_c, 10, 45, 127
2, 6448, Note_on_c, 12, 71, 127
2, 6453, Note_off_c, 0, 72, 127
2, 6527, Note_off_c, 10, 45, 127
2, 6531, Note_on_c, 12, 47, 127
2, 6531, Note_on_c, 0, 72, 127
2, 6536, Note_off_c, 12, 71, 127
2, 6614, Note_on_c, 12, 71, 127
2, 6619, Note_off_c, 0, 72, 127
2, 6652, Note_off_c, 12, 47, 127
2, 6655, Note_on_c, 2, 50, 127
2, 6697, Note_on_c, 0, 72, 127
2, 6702, Note_off_c, 12, 71, 127
2, 6776, Note_off_c, 2, 50, 127
2, 6779, Note_on_c, 7, 43, 127
2, 6779, Note_on_c, 12, 71, 127
2, 6785, Note_off_c, 0, 72, 127
2, 6862, Note_on_c, 0, 72, 127
2, 6867, Note_off_c, 12, 71, 127
2, 6900, Note_off_c, 7, 43, 127
2, 6904, Note_on_c, 12, 47, 127
2, 6946, Note_on_c, 12, 71, 127
2, 6950, Note_off_c, 0, 72, 127
2, 7025, Note_off_c, 12, 47, 127
2, 7028, Note_on_c, 2, 50, 127
2, 7028, Note_on_c, 0, 72, 127
2, 7034, Note_off_c, 12, 71, 127
2, 7111, Note_on_c, 12, 71, 127
2, 7116, Note_off_c, 0, 72, 127
2, 7149, Note_off_c, 2, 50, 127
2, 7153, Note_on_c, 5, 53, 127
2, 7195, Note_on_c, 0, 72, 127
2, 7199, Note_off_c, 12, 71, 127
2, 7274, Note_off_c, 5, 53, 127
2, 7277, Note_on_c, 4, 52, 127
2, 7277, Note_on_c, 12, 71, 127
2, 7283, Note_off_c, 0, 72, 127
2, 7360, Note_on_c, 10, 69, 127
2, 7365, Note_off_c, 12, 71, 127
2, 7398, Note_off_c, 4, 52, 127
2, 7402, Note_on_c, 2, 50, 127
2, 7442, Note_on_c, 12, 71, 127
2, 7448, Note_off_c, 10, 69, 127
2, 7505, Note_off_c, 2, 50, 127
2, 7526, Note_on_c, 2, 50, 127
2, 7526, Note_on_c, 0, 72, 127
2, 7530, Note_off_c, 12, 71, 127
2, 7609, Note_on_c, 4, 52, 127
2, 7614, Note_off_c, 2, 50, 127
2, 7647, Note_off_c, 0, 72, 127
2, 7651, Note_on_c, 7, 67, 127
2, 7691, Note_on_c, 5, 53, 127
2, 7697, Note_off_c, 4, 52, 127
2, 7772, Note_off_c, 7, 67, 127
2, 7775, Note_on_c, 4, 52, 127
2, 7775, Note_on_c, 4, 64, 127
2, 7779, Note_off_c, 5, 53, 127
2, 7858, Note_on_c, 5, 53, 127
2, 7863, Note_off_c, 4, 52, 127
2, 7896, Note_off_c, 4, 64, 127
2, 7898, Note_on_c, 2, 62, 127
2, 7940, Note_on_c, 4, 52, 127
2, 7946, Note_off_c, 5, 53, 127
2, 8019, Note_off_c, 2, 62, 127
2, 8023, Note_on_c, 5, 53, 127
2, 8023, Note_on_c, 4, 64, 127
2, 8028, Note_off_c, 4, 52, 127
2, 8106, Note_on_c, 4, 52, 127
2, 8111, Note_off_c, 5, 53, 127
2, 8144, Note_off_c, 4, 64, 127
2, 8147, Note_on_c, 7, 67, 127
2, 8189, Note_on_c, 5, 53, 127
2, 8194, Note_off_c, 4, 52, 127
2, 8268, Note_off_c, 7, 67, 127
2, 8272, Note_on_c, 4, 52, 127
2, 8272, Note_on_c, 0, 60, 127
2, 8277, Note_off_c, 5, 53, 127
2, 8355, Note_on_c, 5, 53, 127
2, 8360, Note_off_c, 4, 52, 127
2, 8393, Note_off_c, 0, 60, 127
2, 8396, Note_on_c, 4, 64, 127
2, 8438, Note_on_c, 4, 52, 127
2, 8443, Note_off_c, 5, 53, 127
2, 8517, Note_off_c, 4, 64, 127
2, 8521, Note_on_c, 5, 53, 127
2, 8521, Note_on_c, 7, 67, 127
2, 8526, Note_off_c, 4, 52, 127
2, 8603, Note_on_c, 4, 52, 127
2, 8609, Note_off_c, 5, 53, 127
2, 8642, Note_off_c, 7, 67, 127
2, 8645, Note_on_c, 11, 70, 127
2, 8687, Note_on_c, 5, 53, 127
2, 8691, Note_off_c, 4, 52, 127
2, 8766, Note_off_c, 11, 70, 127
2, 8769, Note_on_c, 4, 52, 127
2, 8769, Note_on_c, 10, 69, 127
2, 8775, Note_off_c, 5, 53, 127
2, 8852, Note_on_c, 2, 50, 127
2, 8857, Note_off_c, 4, 52, 127
2, 8890, Note_off_c, 10, 69, 127
2, 8894, Note_on_c, 7, 67, 127
2, 8935, Note_on_c, 4, 52, 127
2, 8940, Note_off_c, 2, 50, 127
2, 8997, Note_off_c, 7, 67, 127
2, 9023, Note_off_c, 4, 52, 127
2, 9034, Note_on_c, 2, 74, 127
2, 9034, Note_on_c, 7, 55, 127
2, 9117, Note_on_c, 1, 73, 127
2, 9122, Note_off_c, 2, 74, 127
2, 9155, Note_off_c, 7, 55, 127
2, 9159, Note_on_c, 4, 52, 127
2, 9200, Note_on_c, 12, 71, 127
2, 9205, Note_off_c, 1, 73, 127
2, 9280, Note_off_c, 4, 52, 127
2, 9283, Note_on_c, 1, 73, 127
2, 9283, Note_on_c, 1, 49, 127
2, 9288, Note_off_c, 12, 71, 127
2, 9366, Note_on_c, 2, 74, 127
2, 9371, Note_off_c, 1, 73, 127
2, 9404, Note_off_c, 1, 49, 127
2, 9408, Note_on_c, 12, 47, 127
2, 9448, Note_on_c, 1, 73, 127
2, 9454, Note_off_c, 2, 74, 127
2, 9529, Note_off_c, 12, 47, 127
2, 9531, Note_on_c, 2, 74, 127
2, 9531, Note_on_c, 1, 49, 127
2, 9536, Note_off_c, 1, 73, 127
2, 9615, Note_on_c, 1, 73, 127
2, 9619, Note_off_c, 2, 74, 127
2, 9652, Note_off_c, 1, 49, 127
2, 9656, Note_on_c, 4, 52, 127
2, 9697, Note_on_c, 2, 74, 127
2, 9703, Note_off_c, 1, 73, 127
2, 9777, Note_off_c, 4, 52, 127
2, 9780, Note_on_c, 1, 73, 127
2, 9780, Note_on_c, 10, 45, 127
2, 9785, Note_off_c, 2, 74, 127
2, 9864, Note_on_c, 2, 74, 127
2, 9868, Note_off_c, 1, 73, 127
2, 9901, Note_off_c, 10, 45, 127
2, 9904, Note_on_c, 1, 49, 127
2, 9946, Note_on_c, 1, 73, 127
2, 9952, Note_off_c, 2, 74, 127
2, 10025, Note_off_c, 1, 49, 127
2, 10029, Note_on_c, 2, 74, 127
2, 10029, Note_on_c, 4, 52, 127
2, 10034, Note_off_c, 1, 73, 127
2, 10111, Note_on_c, 1, 73, 127
2, 10117, Note_off_c, 2, 74, 127
2, 10150, Note_off_c, 4, 52, 127
2, 10153, Note_on_c, 7, 55, 127
2, 10195, Note_on_c, 2, 74, 127
2, 10199, Note_off_c, 1, 73, 127
2, 10274, Note_off_c, 7, 55, 127
2, 10278, Note_on_c, 1, 73, 127
2, 10278, Note_on_c, 5, 53, 127
2, 10283, Note_off_c, 2, 74, 127
2, 10360, Note_on_c, 12, 71, 127
2, 10366, Note_off_c, 1, 73, 127
2, 10399, Note_off_c, 5, 53, 127
2, 10402, Note_on_c, 4, 52, 127
2, 10444, Note_on_c, 1, 73, 127
2, 10448, Note_off_c, 12, 71, 127
2, 10505, Note_off_c, 4, 52, 127
2, 10527, Note_on_c, 2, 74, 127
2, 10527, Note_on_c, 4, 52, 127
2, 10532, Note_off_c, 1, 73, 127
2, 10609, Note_on_c, 5, 53, 127
2, 10615, Note_off_c, 4, 52, 127
2, 10648, Note_off_c, 2, 74, 127
2, 10651, Note_on_c, 10, 69, 127
2, 10692, Note_on_c, 7, 55, 127
2, 10697, Note_off_c, 5, 53, 127
2, 10772, Note_off_c, 10, 69, 127
2, 10775, Note_on_c, 5, 65, 127
2, 10775, Note_on_c, 5, 53, 127
2, 10780, Note_off_c, 7, 55, 127
2, 10858, Note_on_c, 7, 55, 127
2, 10863, Note_off_c, 5, 53, 127
2, 10896, Note_off_c, 5, 65, 127
2, 10900, Note_on_c, 4, 64, 127
2, 10941, Note_on_c, 5, 53, 127
2, 10946, Note_off_c, 7, 55, 127
2, 11021, Note_off_c, 4, 64, 127
2, 11023, Note_on_c, 5, 65, 127
2, 11023, Note_on_c, 7, 55, 127
2, 11029, Note_off_c, 5, 53, 127
2, 11107, Note_on_c, 5, 53, 127
2, 11111, Note_off_c, 7, 55, 127
2, 11144, Note_off_c, 5, 65, 127
2, 11148, Note_on_c, 10, 69, 127
2, 11190, Note_on_c, 7, 55, 127
2, 11195, Note_off_c, 5, 53, 127
2, 11269, Note_off_c, 10, 69, 127
2, 11272, Note_on_c, 2, 62, 127
2, 11272, Note_on_c, 5, 53, 127
2, 11278, Note_off_c, 7, 55, 127
2, 11356, Note_on_c, 7, 55, 127
2, 11360, Note_off_c, 5, 53, 127
2, 11393, Note_off_c, 2, 62, 127
2, 11397, Note_on_c, 5, 65, 127
2, 11438, Note_on_c, 5, 53, 127
2, 11444, Note_off_c, 7, 55, 127
2, 11518, Note_off_c, 5, 65, 127
2, 11521, Note_on_c, 10, 69, 127
2, 11521, Note_on_c, 7, 55, 127
2, 11526, Note_off_c, 5, 53, 127
2, 11604, Note_on_c, 5, 53, 127
2, 11609, Note_off_c, 7, 55, 127
2, 11642, Note_off_c, 10, 69, 127
2, 11646, Note_on_c, 0, 72, 127
2, 11687, Note_on_c, 7, 55, 127
2, 11692, Note_off_c, 5, 53, 127
2, 11767, Note_off_c, 0, 72, 127
2, 11770, Note_on_c, 11, 70, 127
2, 11770, Note_on_c, 5, 53, 127
2, 11775, Note_off_c, 7, 55, 127
2, 11853, Note_on_c, 4, 52, 127
2, 11858, Note_off_c, 5, 53, 127
2, 11891, Note_off_c, 11, 70, 127
2, 11894, Note_on_c, 10, 69, 127
2, 11936, Note_on_c, 5, 53, 127
2, 11941, Note_off_c, 4, 52, 127
2, 12015, Note_off_c, 10, 69, 127
2, 12024, Note_off_c, 5, 53, 127
2, 12035, Note_on_c, 7, 55, 127
2, 12035, Note_on_c, 11, 70, 127
2, 12156, Note_off_c, 11, 70, 127
2, 12159, Note_on_c, 7, 67, 127
2, 12280, Note_off_c, 7, 67, 127
2, 12280, Note_off_c, 7, 55, 127
2, 12284, Note_on_c, 11, 58, 127
2, 12284, Note_on_c, 4, 64, 127
2, 12405, Note_off_c, 4, 64, 127
2, 12408, Note_on_c, 2, 62, 127
2, 12500, Note_off_c, 11, 58, 127
2, 12529, Note_off_c, 2, 62, 127
2, 12533, Note_on_c, 7, 55, 127
2, 12533, Note_on_c, 4, 64, 127
2, 12654, Note_off_c, 4, 64, 127
2, 12656, Note_on_c, 7, 67, 127
2, 12749, Note_off_c, 7, 55, 127
2, 12777, Note_off_c, 7, 67, 127
2, 12780, Note_on_c, 4, 52, 127
2, 12780, Note_on_c, 0, 60, 127
2, 12901, Note_off_c, 0, 60, 127
2, 12905, Note_on_c, 4, 64, 127
2, 12996, Note_off_c, 4, 52, 127
2, 13026, Note_off_c, 4, 64, 127
2, 13029, Note_on_c, 0, 48, 127
2, 13029, Note_on_c, 7, 67, 127
2, 13150, Note_off_c, 7, 67, 127
2, 13154, Note_on_c, 11, 70, 127
2, 13245, Note_off_c, 0, 48, 127
2, 13275, Note_off_c, 11, 70, 127
2, 13278, Note_on_c, 4, 52, 127
2, 13278, Note_on_c, 10, 69, 127
2, 13399, Note_off_c, 10, 69, 127
2, 13403, Note_on_c, 7, 67, 127
2, 13494, Note_off_c, 4, 52, 127
2, 13524, Note_off_c, 7, 67, 127
2, 13527, Note_on_c, 5, 53, 127
2, 13527, Note_on_c, 10, 69, 127
2, 13648, Note_off_c, 10, 69, 127
2, 13652, Note_on_c, 5, 65, 127
2, 13772, Note_off_c, 5, 53, 127
2, 13773, Note_off_c, 5, 65, 127
2, 13776, Note_on_c, 10, 57, 127
2, 13776, Note_on_c, 2, 62, 127
2, 13897, Note_off_c, 2, 62, 127
2, 13900, Note_on_c, 1, 61, 127
2, 13992, Note_off_c, 10, 57, 127
2, 14021, Note_off_c, 1, 61, 127
2, 14025, Note_on_c, 5, 53, 127
2, 14025, Note_on_c, 2, 62, 127
2, 14146, Note_off_c, 2, 62, 127
2, 14148, Note_on_c, 5, 65, 127
2, 14241, Note_off_c, 5, 53, 127
2, 14269, Note_off_c, 5, 65, 127
2, 14273, Note_on_c, 2, 50, 127
2, 14273, Note_on_c, 11, 58, 127
2, 14394, Note_off_c, 11, 58, 127
2, 14397, Note_on_c, 2, 62, 127
2, 14489, Note_off_c, 2, 50, 127
2, 14518, Note_off_c, 2, 62, 127
2, 14522, Note_on_c, 11, 46, 127
2, 14522, Note_on_c, 5, 65, 127
2, 14643, Note_off_c, 5, 65, 127
2, 14646, Note_on_c, 10, 69, 127
2, 14738, Note_off_c, 11, 46, 127
2, 14767, Note_off_c, 10, 69, 127
2, 14771, Note_on_c, 2, 50, 127
2, 14771, Note_on_c, 7, 67, 127
2, 14892, Note_off_c, 7, 67, 127
2, 14895, Note_on_c, 5, 65, 127
2, 14987, Note_off_c, 2, 50, 127
2, 15016, Note_off_c, 5, 65, 127
2, 15019, Note_on_c, 4, 52, 127
2, 15019, Note_on_c, 7, 67, 127
2, 15140, Note_off_c, 7, 67, 127
2, 15144, Note_on_c, 4, 64, 127
2, 15264, Note_off_c, 4, 52, 127
2, 15265, Note_off_c, 4, 64, 127
2, 15268, Note_on_c, 7, 55, 127
2, 15268, Note_on_c, 1, 61, 127
2, 15389, Note_off_c, 1, 61, 127
2, 15393, Note_on_c, 12, 59, 127
2, 15484, Note_off_c, 7, 55, 127
2, 15514, Note_off_c, 12, 59, 127
2, 15517, Note_on_c, 4, 52, 127
2, 15517, Note_on_c, 1, 61, 127
2, 15638, Note_off_c, 1, 61, 127
2, 15642, Note_on_c, 4, 64, 127
2, 15733, Note_off_c, 4, 52, 127
2, 15763, Note_off_c, 4, 64, 127
2, 15765, Note_on_c, 1, 49, 127
2, 15765, Note_on_c, 10, 57, 127
2, 15886, Note_off_c, 10, 57, 127
2, 15889, Note_on_c, 1, 61, 127
2, 15981, Note_off_c, 1, 49, 127
2, 16010, Note_off_c, 1, 61, 127
2, 16014, Note_on_c, 10, 45, 127
2, 16014, Note_on_c, 4, 64, 127
2, 16135, Note_off_c, 4, 64, 127
2, 16138, Note_on_c, 7, 67, 127
2, 16230, Note_off_c, 10, 45, 127
2, 16259, Note_off_c, 7, 67, 127
2, 16263, Note_on_c, 1, 49, 127
2, 16263, Note_on_c, 5, 65, 127
2, 16384, Note_off_c, 5, 65, 127
2, 16387, Note_on_c, 4, 64, 127
2, 16479, Note_off_c, 1, 49, 127
2, 16508, Note_off_c, 4, 64, 127
2, 16512, Note_on_c, 2, 50, 127
2, 16512, Note_on_c, 5, 65, 127
2, 16636, Note_on_c, 10, 45, 127
2, 16744, Note_off_c, 5, 65, 127
2, 16757, Note_off_c, 10, 45, 127
2, 16757, Note_off_c, 2, 50, 127
2, 16761, Note_on_c, 5, 41, 127
2, 16761, Note_on_c, 10, 69, 127
2, 16882, Note_off_c, 5, 41, 127
2, 16885, Note_on_c, 4, 40, 127
2, 16993, Note_off_c, 10, 69, 127
2, 17006, Note_off_c, 4, 40, 127
2, 17009, Note_on_c, 5, 41, 127
2, 17009, Note_on_c, 2, 74, 127
2, 17130, Note_off_c, 5, 41, 127
2, 17134, Note_on_c, 10, 45, 127
2, 17241, Note_off_c, 2, 74, 127
2, 17255, Note_off_c, 10, 45, 127
2, 17257, Note_on_c, 2, 38, 127
2, 17257, Note_on_c, 10, 69, 127
2, 17382, Note_on_c, 5, 41, 127
2, 17489, Note_off_c, 10, 69, 127
2, 17502, Note_off_c, 2, 38, 127
2, 17503, Note_off_c, 5, 41, 127
2, 17506, Note_on_c, 10, 45, 127
2, 17506, Note_on_c, 5, 65, 127
2, 17627, Note_off_c, 10, 45, 127
2, 17631, Note_on_c, 0, 48, 127
2, 17738, Note_off_c, 5, 65, 127
2, 17752, Note_off_c, 0, 48, 127
2, 17755, Note_on_c, 11, 46, 127
2, 17755, Note_on_c, 2, 62, 127
2, 17876, Note_off_c, 11, 46, 127
2, 17879, Note_on_c, 10, 45, 127
2, 17987, Note_off_c, 2, 62, 127
2, 18000, Note_off_c, 10, 45, 127
2, 18004, Note_on_c, 2, 50, 127
2, 18004, Note_on_c, 7, 67, 127
2, 18128, Note_on_c, 11, 46, 127
2, 18236, Note_off_c, 7, 67, 127
2, 18249, Note_off_c, 11, 46, 127
2, 18249, Note_off_c, 2, 50, 127
2, 18253, Note_on_c, 7, 43, 127
2, 18253, Note_on_c, 11, 70, 127
2, 18374, Note_off_c, 7, 43, 127
2, 18377, Note_on_c, 6, 42, 127
2, 18485, Note_off_c, 11, 70, 127
2, 18498, Note_off_c, 6, 42, 127
2, 18502, Note_on_c, 7, 43, 127
2, 18502, Note_on_c, 2, 74, 127
2, 18623, Note_off_c, 7, 43, 127
2, 18626, Note_on_c, 11, 46, 127
2, 18734, Note_off_c, 2, 74, 127
2, 18747, Note_off_c, 11, 46, 127
2, 18751, Note_on_c, 2, 38, 127
2, 18751, Note_on_c, 11, 70, 127
2, 18874, Note_on_c, 7, 43, 127
2, 18983, Note_off_c, 11, 70, 127
2, 18995, Note_off_c, 7, 43, 127
2, 18996, Note_off_c, 2, 38, 127
2, 18998, Note_on_c, 11, 46, 127
2, 18998, Note_on_c, 7, 67, 127
2, 19119, Note_off_c, 11, 46, 127
2, 19123, Note_on_c, 2, 50, 127
2, 19230, Note_off_c, 7, 67, 127
2, 19244, Note_off_c, 2, 50, 127
2, 19247, Note_on_c, 1, 49, 127
2, 19247, Note_on_c, 2, 62, 127
2, 19368, Note_off_c, 1, 49, 127
2, 19372, Note_on_c, 12, 47, 127
2, 19479, Note_off_c, 2, 62, 127
2, 19493, Note_off_c, 12, 47, 127
2, 19496, Note_on_c, 1, 49, 127
2, 19496, Note_on_c, 7, 67, 127
2, 19621, Note_on_c, 11, 46, 127
2, 19728, Note_off_c, 7, 67, 127
2, 19741, Note_off_c, 1, 49, 127
2, 19742, Note_off_c, 11, 46, 127
2, 19745, Note_on_c, 7, 43, 127
2, 19745, Note_on_c, 1, 73, 127
2, 19866, Note_off_c, 7, 43, 127
2, 19869, Note_on_c, 6, 42, 127
2, 19977, Note_off_c, 1, 73, 127
2, 19990, Note_off_c, 6, 42, 127
2, 19994, Note_on_c, 7, 43, 127
2, 19994, Note_on_c, 4, 76, 127
2, 20115, Note_off_c, 7, 43, 127
2, 20118, Note_on_c, 11, 46, 127
2, 20226, Note_off_c, 4, 76, 127
2, 20239, Note_off_c, 11, 46, 127
2, 20243, Note_on_c, 2, 38, 127
2, 20243, Note_on_c, 1, 73, 127
2, 20366, Note_on_c, 7, 43, 127
2, 20475, Note_off_c, 1, 73, 127
2, 20487, Note_off_c, 7, 43, 127
2, 20488, Note_off_c, 2, 38, 127
2, 20491, Note_on_c, 1, 49, 127
2, 20491, Note_on_c, 7, 67, 127
2, 20612, Note_off_c, 1, 49, 127
2, 20615, Note_on_c, 4, 52, 127
2, 20723, Note_off_c, 7, 67, 127
2, 20736, Note_off_c, 4, 52, 127
2, 20740, Note_on_c, 2, 50, 127
2, 20740, Note_on_c, 4, 64, 127
2, 20861, Note_off_c, 2, 50, 127
2, 20864, Note_on_c, 1, 49, 127
2, 20950, Note_off_c, 4, 64, 127
2, 20985, Note_off_c, 1, 49, 127
2, 20988, Note_on_c, 2, 50, 127
2, 20988, Note_on_c, 2, 74, 127
2, 21109, Note_off_c, 2, 74, 127
2, 21113, Note_on_c, 10, 69, 127
2, 21233, Note_off_c, 2, 50, 127
2, 21234, Note_off_c, 10, 69, 127
2, 21237, Note_on_c, 5, 53, 127
2, 21237, Note_on_c, 5, 65, 127
2, 21358, Note_off_c, 5, 65, 127
2, 21362, Note_on_c, 4, 64, 127
2, 21453, Note_off_c, 5, 53, 127
2, 21483, Note_off_c, 4, 64, 127
2, 21486, Note_on_c, 10, 57, 127
2, 21486, Note_on_c, 5, 65, 127
2, 21607, Note_off_c, 5, 65, 127
2, 21611, Note_on_c, 10, 69, 127
2, 21702, Note_off_c, 10, 57, 127
2, 21732, Note_off_c, 10, 69, 127
2, 21735, Note_on_c, 5, 53, 127
2, 21735, Note_on_c, 2, 62, 127
2, 21856, Note_off_c, 2, 62, 127
2, 21860, Note_on_c, 5, 65, 127
2, 21951, Note_off_c, 5, 53, 127
2, 21981, Note_off_c, 5, 65, 127
2, 21983, Note_on_c, 2, 50, 127
2, 21983, Note_on_c, 10, 69, 127
2, 22104, Note_off_c, 10, 69, 127
2, 22107, Note_on_c, 0, 72, 127
2, 22199, Note_off_c, 2, 50, 127
2, 22228, Note_off_c, 0, 72, 127
2, 22232, Note_on_c, 5, 53, 127
2, 22232, Note_on_c, 11, 70, 127
2, 22353, Note_off_c, 11, 70, 127
2, 22356, Note_on_c, 10, 69, 127
2, 22448, Note_off_c, 5, 53, 127
2, 22477, Note_off_c, 10, 69, 127
2, 22481, Note_on_c, 2, 38, 127
2, 22481, Note_on_c, 5, 77, 127
2, 22602, Note_off_c, 5, 77, 127
2, 22605, Note_on_c, 2, 74, 127
2, 22726, Note_off_c, 2, 74, 127
2, 22726, Note_off_c, 2, 38, 127
2, 22730, Note_on_c, 5, 41, 127
2, 22730, Note_on_c, 11, 70, 127
2, 22851, Note_off_c, 11, 70, 127
2, 22854, Note_on_c, 10, 69, 127
2, 22946, Note_off_c, 5, 41, 127
2, 22975, Note_off_c, 10, 69, 127
2, 22978, Note_on_c, 11, 46, 127
2, 22978, Note_on_c, 11, 70, 127
2, 23099, Note_off_c, 11, 70, 127
2, 23103, Note_on_c, 2, 74, 127
2, 23194, Note_off_c, 11, 46, 127
2, 23224, Note_off_c, 2, 74, 127
2, 23227, Note_on_c, 2, 50, 127
2, 23227, Note_on_c, 5, 65, 127
2, 23348, Note_off_c, 5, 65, 127
2, 23352, Note_on_c, 11, 70, 127
2, 23473, Note_off_c, 11, 70, 127
2, 23475, Note_on_c, 2, 74, 127
2, 23596, Note_off_c, 2, 74, 127
2, 23600, Note_on_c, 5, 77, 127
2, 23627, Note_off_c, 2, 50, 127
2, 23721, Note_off_c, 5, 77, 127
2, 23724, Note_on_c, 4, 76, 127
2, 23845, Note_off_c, 4, 76, 127
2, 23849, Note_on_c, 2, 74, 127
2, 23972, Note_off_c, 2, 74, 127
2, 23989, Note_on_c, 10, 81, 127
2, 23989, Note_on_c, 2, 62, 127
2, 24072, Note_on_c, 8, 80, 127
2, 24077, Note_off_c, 10, 81, 127
2, 24110, Note_off_c, 2, 62, 127
2, 24113, Note_on_c, 12, 59, 127
2, 24155, Note_on_c, 6, 78, 127
2, 24160, Note_off_c, 8, 80, 127
2, 24234, Note_off_c, 12, 59, 127
2, 24238, Note_on_c, 8, 80, 127
2, 24238, Note_on_c, 8, 56, 127
2, 24243, Note_off_c, 6, 78, 127
2, 24320, Note_on_c, 10, 81, 127
2, 24326, Note_off_c, 8, 80, 127
2, 24359, Note_off_c, 8, 56, 127
2, 24362, Note_on_c, 6, 54, 127
2, 24404, Note_on_c, 8, 80, 127
2, 24408, Note_off_c, 10, 81, 127
2, 24483, Note_off_c, 6, 54, 127
2, 24487, Note_on_c, 10, 81, 127
2, 24487, Note_on_c, 8, 56, 127
2, 24492, Note_off_c, 8, 80, 127
2, 24569, Note_on_c, 8, 80, 127
2, 24575, Note_off_c, 10, 81, 127
2, 24608, Note_off_c, 8, 56, 127
2, 24611, Note_on_c, 12, 59, 127
2, 24652, Note_on_c, 10, 81, 127
2, 24657, Note_off_c, 8, 80, 127
2, 24732, Note_off_c, 12, 59, 127
2, 24736, Note_on_c, 8, 80, 127
2, 24736, Note_on_c, 4, 52, 127
2, 24740, Note_off_c, 10, 81, 127
2, 24818, Note_on_c, 10, 81, 127
2, 24824, Note_off_c, 8, 80, 127
2, 24857, Note_off_c, 4, 52, 127
2, 24860, Note_on_c, 8, 56, 127
2, 24901, Note_on_c, 8, 80, 127
2, 24906, Note_off_c, 10, 81, 127
2, 24981, Note_off_c, 8, 56, 127
2, 24984, Note_on_c, 10, 81, 127
2, 24984, Note_on_c, 12, 59, 127
2, 24989, Note_off_c, 8, 80, 127
2, 25067, Note_on_c, 8, 80, 127
2, 25072, Note_off_c, 10, 81, 127
2, 25105, Note_off_c, 12, 59, 127
2, 25108, Note_on_c, 2, 62, 127
2, 25150, Note_on_c, 10, 81, 127
2, 25155, Note_off_c, 8, 80, 127
2, 25229, Note_off_c, 2, 62, 127
2, 25232, Note_on_c, 8, 80, 127
2, 25232, Note_on_c, 1, 61, 127
2, 25238, Note_off_c, 10, 81, 127
2, 25316, Note_on_c, 6, 78, 127
2, 25320, Note_off_c, 8, 80, 127
2, 25353, Note_off_c, 1, 61, 127
2, 25357, Note_on_c, 12, 59, 127
2, 25399, Note_on_c, 8, 80, 127
2, 25404, Note_off_c, 6, 78, 127
2, 25460, Note_off_c, 12, 59, 127
2, 25481, Note_on_c, 10, 81, 127
2, 25481, Note_on_c, 12, 59, 127
2, 25487, Note_off_c, 8, 80, 127
2, 25564, Note_on_c, 1, 61, 127
2, 25569, Note_off_c, 12, 59, 127
2, 25602, Note_off_c, 10, 81, 127
2, 25606, Note_on_c, 4, 76, 127
2, 25647, Note_on_c, 2, 62, 127
2, 25652, Note_off_c, 1, 61, 127
2, 25727, Note_off_c, 4, 76, 127
2, 25730, Note_on_c, 1, 73, 127
2, 25730, Note_on_c, 1, 61, 127
2, 25735, Note_off_c, 2, 62, 127
2, 25813, Note_on_c, 2, 62, 127
2, 25818, Note_off_c, 1, 61, 127
2, 25851, Note_off_c, 1, 73, 127
2, 25855, Note_on_c, 12, 71, 127
2, 25896, Note_on_c, 1, 61, 127
2, 25901, Note_off_c, 2, 62, 127
2, 25976, Note_off_c, 12, 71, 127
2, 25979, Note_on_c, 1, 73, 127
2, 25979, Note_on_c, 2, 62, 127
2, 25984, Note_off_c, 1, 61, 127
2, 26062, Note_on_c, 1, 61, 127
2, 26067, Note_off_c, 2, 62, 127
2, 26100, Note_off_c, 1, 73, 127
2, 26103, Note_on_c, 4, 76, 127
2, 26144, Note_on_c, 2, 62, 127
2, 26150, Note_off_c, 1, 61, 127
2, 26224, Note_off_c, 4, 76, 127
2, 26228, Note_on_c, 10, 69, 127
2, 26228, Note_on_c, 1, 61, 127
2, 26232, Note_off_c, 2, 62, 127
2, 26310, Note_on_c, 2, 62, 127
2, 26316, Note_off_c, 1, 61, 127
2, 26349, Note_off_c, 10, 69, 127
2, 26352, Note_on_c, 1, 73, 127
2, 26393, Note_on_c, 1, 61, 127
2, 26398, Note_off_c, 2, 62, 127
2, 26473, Note_off_c, 1, 73, 127
2, 26477, Note_on_c, 4, 76, 127
2, 26477, Note_on_c, 2, 62, 127
2, 26481, Note_off_c, 1, 61, 127
2, 26559, Note_on_c, 1, 61, 127
2, 26565, Note_off_c, 2, 62, 127
2, 26598, Note_off_c, 4, 76, 127
2, 26600, Note_on_c, 7, 79, 127
2, 26642, Note_on_c, 2, 62, 127
2, 26647, Note_off_c, 1, 61, 127
2, 26721, Note_off_c, 7, 79, 127
2, 26725, Note_on_c, 6, 78, 127
2, 26725, Note_on_c, 1, 61, 127
2, 26730, Note_off_c, 2, 62, 127
2, 26808, Note_on_c, 12, 59, 127
2, 26813, Note_off_c, 1, 61, 127
2, 26846, Note_off_c, 6, 78, 127
2, 26849, Note_on_c, 4, 76, 127
2, 26891, Note_on_c, 1, 61, 127
2, 26896, Note_off_c, 12, 59, 127
2, 26943, Note_off_c, 4, 76, 127
2, 26979, Note_off_c, 1, 61, 127
2, 26989, Note_on_c, 0, 60, 127
2, 26989, Note_on_c, 4, 76, 127
2, 27073, Note_on_c, 6, 78, 127
2, 27077, Note_off_c, 4, 76, 127
2, 27110, Note_off_c, 0, 60, 127
2, 27114, Note_on_c, 10, 57, 127
2, 27156, Note_on_c, 7, 79, 127
2, 27161, Note_off_c, 6, 78, 127
2, 27235, Note_off_c, 10, 57, 127
2, 27238, Note_on_c, 6, 54, 127
2, 27238, Note_on_c, 6, 78, 127
2, 27244, Note_off_c, 7, 79, 127
2, 27321, Note_on_c, 7, 79, 127
2, 27326, Note_off_c, 6, 78, 127
2, 27359, Note_off_c, 6, 54, 127
2, 27363, Note_on_c, 4, 52, 127
2, 27405, Note_on_c, 6, 78, 127
2, 27409, Note_off_c, 7, 79, 127
2, 27484, Note_off_c, 4, 52, 127
2, 27487, Note_on_c, 6, 54, 127
2, 27487, Note_on_c, 7, 79, 127
2, 27493, Note_off_c, 6, 78, 127
2, 27570, Note_on_c, 6, 78, 127
2, 27575, Note_off_c, 7, 79, 127
2, 27608, Note_off_c, 6, 54, 127
2, 27612, Note_on_c, 10, 57, 127
2, 27652, Note_on_c, 7, 79, 127
2, 27658, Note_off_c, 6, 78, 127
2, 27733, Note_off_c, 10, 57, 127
2, 27736, Note_on_c, 2, 50, 127
2, 27736, Note_on_c, 6, 78, 127
2, 27740, Note_off_c, 7, 79, 127
2, 27819, Note_on_c, 7, 79, 127
2, 27824, Note_off_c, 6, 78, 127
2, 27857, Note_off_c, 2, 50, 127
2, 27861, Note_on_c, 6, 54, 127
2, 27901, Note_on_c, 6, 78, 127
2, 27907, Note_off_c, 7, 79, 127
2, 27982, Note_off_c, 6, 54, 127
2, 27985, Note_on_c, 10, 57, 127
2, 27985, Note_on_c, 7, 79, 127
2, 27989, Note_off_c, 6, 78, 127
2, 28068, Note_on_c, 6, 78, 127
2, 28073, Note_off_c, 7, 79, 127
2, 28106, Note_off_c, 10, 57, 127
2, 28109, Note_on_c, 0, 60, 127
2, 28150, Note_on_c, 7, 79, 127
2, 28156, Note_off_c, 6, 78, 127
2, 28230, Note_off_c, 0, 60, 127
2, 28233, Note_on_c, 12, 59, 127
2, 28233, Note_on_c, 6, 78, 127
2, 28238, Note_off_c, 7, 79, 127
2, 28316, Note_on_c, 4, 76, 127
2, 28321, Note_off_c, 6, 78, 127
2, 28354, Note_off_c, 12, 59, 127
2, 28357, Note_on_c, 10, 57, 127
2, 28399, Note_on_c, 6, 78, 127
2, 28404, Note_off_c, 4, 76, 127
2, 28460, Note_off_c, 10, 57, 127
2, 28482, Note_on_c, 10, 57, 127
2, 28482, Note_on_c, 7, 79, 127
2, 28487, Note_off_c, 6, 78, 127
2, 28565, Note_on_c, 12, 59, 127
2, 28570, Note_off_c, 10, 57, 127
2, 28603, Note_off_c, 7, 79, 127
2, 28606, Note_on_c, 2, 74, 127
2, 28648, Note_on_c, 0, 60, 127
2, 28653, Note_off_c, 12, 59, 127
2, 28727, Note_off_c, 2, 74, 127
2, 28731, Note_on_c, 12, 59, 127
2, 28731, Note_on_c, 12, 71, 127
2, 28736, Note_off_c, 0, 60, 127
2, 28813, Note_on_c, 0, 60, 127
2, 28819, Note_off_c, 12, 59, 127
2, 28852, Note_off_c, 12, 71, 127
2, 28855, Note_on_c, 10, 69, 127
2, 28897, Note_on_c, 12, 59, 127
2, 28901, Note_off_c, 0, 60, 127
2, 28976, Note_off_c, 10, 69, 127
2, 28979, Note_on_c, 0, 60, 127
2, 28979, Note_on_c, 12, 71, 127
2, 28985, Note_off_c, 12, 59, 127
2, 29062, Note_on_c, 12, 59, 127
2, 29067, Note_off_c, 0, 60, 127
2, 29100, Note_off_c, 12, 71, 127
2, 29104, Note_on_c, 2, 74, 127
2, 29146, Note_on_c, 0, 60, 127
2, 29150, Note_off_c, 12, 59, 127
2, 29225, Note_off_c, 2, 74, 127
2, 29228, Note_on_c, 12, 59, 127
2, 29228, Note_on_c, 7, 67, 127
2, 29234, Note_off_c, 0, 60, 127
2, 29311, Note_on_c, 0, 60, 127
2, 29316, Note_off_c, 12, 59, 127
2, 29349, Note_off_c, 7, 67, 127
2, 29353, Note_on_c, 12, 71, 127
2, 29394, Note_on_c, 12, 59, 127
2, 29399, Note_off_c, 0, 60, 127
2, 29474, Note_off_c, 12, 71, 127
2, 29477, Note_on_c, 0, 60, 127
2, 29477, Note_on_c, 2, 74, 127
2, 29482, Note_off_c, 12, 59, 127
2, 29560, Note_on_c, 12, 59, 127
2, 29565, Note_off_c, 0, 60, 127
2, 29598, Note_off_c, 2, 74, 127
2, 29602, Note_on_c, 5, 77, 127
2, 29642, Note_on_c, 0, 60, 127
2, 29648, Note_off_c, 12, 59, 127
2, 29723, Note_off_c, 5, 77, 127
2, 29725, Note_on_c, 12, 59, 127
2, 29725, Note_on_c, 3, 75, 127
2, 29730, Note_off_c, 0, 60, 127
2, 29809, Note_on_c, 10, 57, 127
2, 29813, Note_off_c, 12, 59, 127
2, 29846, Note_off_c, 3, 75, 127
2, 29850, Note_on_c, 2, 74, 127
2, 29891, Note_on_c, 12, 59, 127
2, 29897, Note_off_c, 10, 57, 127
2, 29971, Note_off_c, 2, 74, 127
2, 29979, Note_off_c, 12, 59, 127
2, 29990, Note_on_c, 3, 75, 127
2, 29990, Note_on_c, 0, 60, 127
2, 30111, Note_off_c, 3, 75, 127
2, 30114, Note_on_c, 0, 72, 127
2, 30235, Note_off_c, 0, 72, 127
2, 30235, Note_off_c, 0, 60, 127
2, 30239, Note_on_c, 10, 69, 127
2, 30239, Note_on_c, 3, 63, 127
2, 30360, Note_off_c, 10, 69, 127
2, 30363, Note_on_c, 7, 67, 127
2, 30455, Note_off_c, 3, 63, 127
2, 30484, Note_off_c, 7, 67, 127
2, 30488, Note_on_c, 10, 69, 127
2, 30488, Note_on_c, 0, 60, 127
2, 30609, Note_off_c, 10, 69, 127
2, 30612, Note_on_c, 0, 72, 127
2, 30704, Note_off_c, 0, 60, 127
2, 30733, Note_off_c, 0, 72, 127
2, 30737, Note_on_c, 5, 65, 127
2, 30737, Note_on_c, 10, 57, 127
2, 30858, Note_off_c, 5, 65, 127
2, 30861, Note_on_c, 10, 69, 127
2, 30953, Note_off_c, 10, 57, 127
2, 30982, Note_off_c, 10, 69, 127
2, 30986, Note_on_c, 0, 72, 127
2, 30986, Note_on_c, 5, 53, 127
2, 31107, Note_off_c, 0, 72, 127
2, 31110, Note_on_c, 3, 75, 127
2, 31202, Note_off_c, 5, 53, 127
2, 31231, Note_off_c, 3, 75, 127
2, 31234, Note_on_c, 2, 74, 127
2, 31234, Note_on_c, 10, 57, 127
2, 31355, Note_off_c, 2, 74, 127
2, 31358, Note_on_c, 0, 72, 127
2, 31450, Note_off_c, 10, 57, 127
2, 31479, Note_off_c, 0, 72, 127
2, 31482, Note_on_c, 2, 74, 127
2, 31482, Note_on_c, 11, 58, 127
2, 31603, Note_off_c, 2, 74, 127
2, 31607, Note_on_c, 11, 70, 127
2, 31727, Note_off_c, 11, 58, 127
2, 31728, Note_off_c, 11, 70, 127
2, 31731, Note_on_c, 7, 67, 127
2, 31731, Note_on_c, 2, 62, 127
2, 31852, Note_off_c, 7, 67, 127
2, 31856, Note_on_c, 6, 66, 127
2, 31947, Note_off_c, 2, 62, 127
2, 31977, Note_off_c, 6, 66, 127
2, 31980, Note_on_c, 7, 67, 127
2, 31980, Note_on_c, 11, 58, 127
2, 32101, Note_off_c, 7, 67, 127
2, 32104, Note_on_c, 11, 70, 127
2, 32196, Note_off_c, 11, 58, 127
2, 32225, Note_off_c, 11, 70, 127
2, 32229, Note_on_c, 3, 63, 127
2, 32229, Note_on_c, 7, 55, 127
2, 32350, Note_off_c, 3, 63, 127
2, 32353, Note_on_c, 7, 67, 127
2, 32445, Note_off_c, 7, 55, 127
2, 32474, Note_off_c, 7, 67, 127
2, 32478, Note_on_c, 11, 70, 127
2, 32478, Note_on_c, 3, 51, 127
2, 32599, Note_off_c, 11, 70, 127
2, 32602, Note_on_c, 2, 74, 127
2, 32694, Note_off_c, 3, 51, 127
2, 32723, Note_off_c, 2, 74, 127
2, 32727, Note_on_c, 0, 72, 127
2, 32727, Note_on_c, 7, 55, 127
2, 32848, Note_off_c, 0, 72, 127
2, 32850, Note_on_c, 11, 70, 127
2, 32943, Note_off_c, 7, 55, 127
2, 32971, Note_off_c, 11, 70, 127
2, 32975, Note_on_c, 0, 72, 127
2, 32975, Note_on_c, 10, 57, 127
2, 33096, Note_off_c, 0, 72, 127
2, 33099, Note_on_c, 10, 69, 127
2, 33220, Note_off_c, 10, 69, 127
2, 33220, Note_off_c, 10, 57, 127
2, 33223, Note_on_c, 6, 66, 127
2, 33223, Note_on_c, 0, 60, 127
2, 33344, Note_off_c, 6, 66, 127
2, 33348, Note_on_c, 4, 64, 127
2, 33439, Note_off_c, 0, 60, 127
2, 33469, Note_off_c, 4, 64, 127
2, 33472, Note_on_c, 6, 66, 127
2, 33472, Note_on_c, 10, 57, 127
2, 33593, Note_off_c, 6, 66, 127
2, 33597, Note_on_c, 10, 69, 127
2, 33688, Note_off_c, 10, 57, 127
2, 33718, Note_off_c, 10, 69, 127
2, 33721, Note_on_c, 2, 62, 127
2, 33721, Note_on_c, 6, 54, 127
2, 33842, Note_off_c, 2, 62, 127
2, 33846, Note_on_c, 6, 66, 127
2, 33937, Note_off_c, 6, 54, 127
2, 33967, Note_off_c, 6, 66, 127
2, 33970, Note_on_c, 10, 69, 127
2, 33970, Note_on_c, 2, 50, 127
2, 34091, Note_off_c, 10, 69, 127
2, 34094, Note_on_c, 0, 72, 127
2, 34186, Note_off_c, 2, 50, 127
2, 34215, Note_off_c, 0, 72, 127
2, 34219, Note_on_c, 11, 70, 127
2, 34219, Note_on_c, 6, 54, 127
2, 34340, Note_off_c, 11, 70, 127
2, 34343, Note_on_c, 10, 69, 127
2, 34435, Note_off_c, 6, 54, 127
2, 34464, Note_off_c, 10, 69, 127
2, 34467, Note_on_c, 10, 69, 127
2, 34467, Note_on_c, 7, 55, 127
2, 34550, Note_on_c, 11, 70, 127
2, 34555, Note_off_c, 10, 69, 127
2, 34591, Note_on_c, 2, 50, 127
2, 34633, Note_on_c, 0, 72, 127
2, 34638, Note_off_c, 11, 70, 127
2, 34712, Note_off_c, 2, 50, 127
2, 34712, Note_off_c, 7, 55, 127
2, 34716, Note_on_c, 11, 70, 127
2, 34716, Note_on_c, 11, 46, 127
2, 34721, Note_off_c, 0, 72, 127
2, 34799, Note_on_c, 0, 72, 127
2, 34804, Note_off_c, 11, 70, 127
2, 34837, Note_off_c, 11, 46, 127
2, 34840, Note_on_c, 10, 45, 127
2, 34882, Note_on_c, 11, 70, 127
2, 34887, Note_off_c, 0, 72, 127
2, 34961, Note_off_c, 10, 45, 127
2, 34965, Note_on_c, 0, 72, 127
2, 34965, Note_on_c, 11, 46, 127
2, 34970, Note_off_c, 11, 70, 127
2, 35047, Note_on_c, 11, 70, 127
2, 35053, Note_off_c, 0, 72, 127
2, 35086, Note_off_c, 11, 46, 127
2, 35089, Note_on_c, 2, 50, 127
2, 35131, Note_on_c, 0, 72, 127
2, 35135, Note_off_c, 11, 70, 127
2, 35210, Note_off_c, 2, 50, 127
2, 35213, Note_on_c, 11, 70, 127
2, 35213, Note_on_c, 7, 43, 127
2, 35219, Note_off_c, 0, 72, 127
2, 35296, Note_on_c, 0, 72, 127
2, 35301, Note_off_c, 11, 70, 127
2, 35334, Note_off_c, 7, 43, 127
2, 35338, Note_on_c, 11, 46, 127
2, 35380, Note_on_c, 11, 70, 127
2, 35384, Note_off_c, 0, 72, 127
2, 35459, Note_off_c, 11, 46, 127
2, 35462, Note_on_c, 0, 72, 127
2, 35462, Note_on_c, 2, 50, 127
2, 35468, Note_off_c, 11, 70, 127
2, 35545, Note_on_c, 11, 70, 127
2, 35550, Note_off_c, 0, 72, 127
2, 35583, Note_off_c, 2, 50, 127
2, 35587, Note_on_c, 5, 53, 127
2, 35628, Note_on_c, 0, 72, 127
2, 35633, Note_off_c, 11, 70, 127
2, 35708, Note_off_c, 5, 53, 127
2, 35711, Note_on_c, 11, 70, 127
2, 35711, Note_on_c, 4, 52, 127
2, 35716, Note_off_c, 0, 72, 127
2, 35794, Note_on_c, 0, 72, 127
2, 35799, Note_off_c, 11, 70, 127
2, 35832, Note_off_c, 4, 52, 127
2, 35836, Note_on_c, 2, 50, 127
2, 35876, Note_on_c, 11, 70, 127
2, 35882, Note_off_c, 0, 72, 127
2, 35957, Note_off_c, 2, 50, 127
2, 35959, Note_on_c, 0, 72, 127
2, 35959, Note_on_c, 4, 64, 127
2, 35959, Note_on_c, 0, 48, 127
2, 35964, Note_off_c, 11, 70, 127
2, 36043, Note_on_c, 11, 70, 127
2, 36047, Note_off_c, 0, 72, 127
2, 36080, Note_off_c, 0, 48, 127
2, 36083, Note_on_c, 7, 43, 127
2, 36125, Note_on_c, 0, 72, 127
2, 36131, Note_off_c, 11, 70, 127
2, 36204, Note_off_c, 7, 43, 127
2, 36208, Note_on_c, 11, 70, 127
2, 36208, Note_on_c, 4, 40, 127
2, 36213, Note_off_c, 0, 72, 127
2, 36292, Note_on_c, 0, 72, 127
2, 36296, Note_off_c, 11, 70, 127
2, 36329, Note_off_c, 4, 40, 127
2, 36332, Note_on_c, 2, 38, 127
2, 36374, Note_on_c, 11, 70, 127
2, 36380, Note_off_c, 0, 72, 127
2, 36453, Note_off_c, 2, 38, 127
2, 36457, Note_on_c, 0, 72, 127
2, 36457, Note_on_c, 4, 40, 127
2, 36462, Note_off_c, 11, 70, 127
2, 36539, Note_on_c, 11, 70, 127
2, 36545, Note_off_c, 0, 72, 127
2, 36578, Note_off_c, 4, 40, 127
2, 36581, Note_on_c, 7, 43, 127
2, 36623, Note_on_c, 0, 72, 127
2, 36627, Note_off_c, 11, 70, 127
2, 36702, Note_off_c, 7, 43, 127
2, 36706, Note_on_c, 11, 70, 127
2, 36706, Note_on_c, 0, 36, 127
2, 36711, Note_off_c, 0, 72, 127
2, 36788, Note_on_c, 0, 72, 127
2, 36794, Note_off_c, 11, 70, 127
2, 36827, Note_off_c, 0, 36, 127
2, 36830, Note_on_c, 7, 43, 127
2, 36872, Note_on_c, 11, 70, 127
2, 36876, Note_off_c, 0, 72, 127
2, 36951, Note_off_c, 7, 43, 127
2, 36955, Note_on_c, 0, 72, 127
2, 36955, Note_on_c, 0, 48, 127
2, 36960, Note_off_c, 11, 70, 127
2, 37037, Note_on_c, 11, 70, 127
2, 37043, Note_off_c, 0, 72, 127
2, 37076, Note_off_c, 0, 48, 127
2, 37079, Note_on_c, 4, 52, 127
2, 37120, Note_on_c, 0, 72, 127
2, 37125, Note_off_c, 11, 70, 127
2, 37200, Note_off_c, 4, 52, 127
2, 37203, Note_on_c, 11, 70, 127
2, 37203, Note_on_c, 2, 50, 127
2, 37208, Note_off_c, 0, 72, 127
2, 37286, Note_on_c, 0, 72, 127
2, 37291, Note_off_c, 11, 70, 127
2, 37324, Note_off_c, 2, 50, 127
2, 37328, Note_on_c, 0, 48, 127
2, 37369, Note_on_c, 11, 70, 127
2, 37374, Note_off_c, 0, 72, 127
2, 37448, Note_off_c, 4, 64, 127
2, 37449, Note_off_c, 0, 48, 127
2, 37452, Note_on_c, 3, 63, 127
2, 37452, Note_on_c, 10, 69, 127
2, 37452, Note_on_c, 5, 53, 127
2, 37457, Note_off_c, 11, 70, 127
2, 37535, Note_on_c, 11, 70, 127
2, 37540, Note_off_c, 10, 69, 127
2, 37573, Note_off_c, 5, 53, 127
2, 37576, Note_on_c, 0, 48, 127
2, 37618, Note_on_c, 10, 69, 127
2, 37623, Note_off_c, 11, 70, 127
2, 37697, Note_off_c, 0, 48, 127
2, 37700, Note_on_c, 11, 70, 127
2, 37700, Note_on_c, 10, 45, 127
2, 37706, Note_off_c, 10, 69, 127
2, 37784, Note_on_c, 10, 69, 127
2, 37788, Note_off_c, 11, 70, 127
2, 37821, Note_off_c, 10, 45, 127
2, 37825, Note_on_c, 7, 43, 127
2, 37866, Note_on_c, 11, 70, 127
2, 37872, Note_off_c, 10, 69, 127
2, 37946, Note_off_c, 7, 43, 127
2, 37949, Note_on_c, 10, 69, 127
2, 37949, Note_on_c, 10, 45, 127
2, 37954, Note_off_c, 11, 70, 127
2, 38032, Note_on_c, 11, 70, 127
2, 38037, Note_off_c, 10, 69, 127
2, 38070, Note_off_c, 10, 45, 127
2, 38073, Note_on_c, 0, 48, 127
2, 38115, Note_on_c, 10, 69, 127
2, 38120, Note_off_c, 11, 70, 127
2, 38194, Note_off_c, 0, 48, 127
2, 38196, Note_off_c, 3, 63, 127
2, 38198, Note_on_c, 5, 65, 127
2, 38198, Note_on_c, 5, 41, 127
2, 38322, Note_on_c, 0, 48, 127
2, 38353, Note_off_c, 5, 65, 127
2, 38364, Note_on_c, 3, 63, 127
2, 38443, Note_off_c, 0, 48, 127
2, 38443, Note_off_c, 5, 41, 127
2, 38447, Note_on_c, 5, 65, 127
2, 38447, Note_on_c, 5, 53, 127
2, 38452, Note_off_c, 3, 63, 127
2, 38529, Note_on_c, 3, 63, 127
2, 38535, Note_off_c, 5, 65, 127
2, 38568, Note_off_c, 5, 53, 127
2, 38571, Note_on_c, 10, 57, 127
2, 38612, Note_on_c, 5, 65, 127
2, 38617, Note_off_c, 3, 63, 127
2, 38692, Note_off_c, 10, 57, 127
2, 38696, Note_on_c, 3, 63, 127
2, 38696, Note_on_c, 7, 55, 127
2, 38700, Note_off_c, 5, 65, 127
2, 38778, Note_on_c, 5, 65, 127
2, 38784, Note_off_c, 3, 63, 127
2, 38817, Note_off_c, 7, 55, 127
2, 38820, Note_on_c, 5, 53, 127
2, 38861, Note_on_c, 3, 63, 127
2, 38866, Note_off_c, 5, 65, 127
2, 38937, Note_off_c, 10, 69, 127
2, 38941, Note_off_c, 5, 53, 127
2, 38945, Note_on_c, 2, 62, 127
2, 38945, Note_on_c, 0, 60, 127
2, 38949, Note_off_c, 3, 63, 127
2, 39033, Note_off_c, 0, 60, 127
2, 39043, Note_on_c, 11, 58, 127
2, 39066, Note_off_c, 2, 62, 127
2, 39084, Note_on_c, 10, 69, 127
2, 39126, Note_on_c, 0, 60, 127
2, 39131, Note_off_c, 11, 58, 127
2, 39205, Note_off_c, 10, 69, 127
2, 39208, Note_on_c, 11, 58, 127
2, 39208, Note_on_c, 5, 65, 127
2, 39214, Note_off_c, 0, 60, 127
2, 39292, Note_on_c, 0, 60, 127
2, 39296, Note_off_c, 11, 58, 127
2, 39329, Note_off_c, 5, 65, 127
2, 39333, Note_on_c, 4, 64, 127
2, 39375, Note_on_c, 11, 58, 127
2, 39380, Note_off_c, 0, 60, 127
2, 39454, Note_off_c, 4, 64, 127
2, 39457, Note_on_c, 0, 60, 127
2, 39457, Note_on_c, 5, 65, 127
2, 39463, Note_off_c, 11, 58, 127
2, 39541, Note_on_c, 11, 58, 127
2, 39545, Note_off_c, 0, 60, 127
2, 39578, Note_off_c, 5, 65, 127
2, 39582, Note_on_c, 10, 69, 127
2, 39624, Note_on_c, 0, 60, 127
2, 39629, Note_off_c, 11, 58, 127
2, 39703, Note_off_c, 10, 69, 127
2, 39706, Note_on_c, 11, 58, 127
2, 39706, Note_on_c, 2, 62, 127
2, 39712, Note_off_c, 0, 60, 127
2, 39789, Note_on_c, 0, 60, 127
2, 39794, Note_off_c, 11, 58, 127
2, 39827, Note_off_c, 2, 62, 127
2, 39831, Note_on_c, 5, 65, 127
2, 39872, Note_on_c, 11, 58, 127
2, 39877, Note_off_c, 0, 60, 127
2, 39952, Note_off_c, 5, 65, 127
2, 39955, Note_on_c, 0, 60, 127
2, 39955, Note_on_c, 10, 69, 127
2, 39960, Note_off_c, 11, 58, 127
2, 40038, Note_on_c, 11, 58, 127
2, 40043, Note_off_c, 0, 60, 127
2, 40076, Note_off_c, 10, 69, 127
2, 40080, Note_on_c, 0, 72, 127
2, 40120, Note_on_c, 0, 60, 127
2, 40126, Note_off_c, 11, 58, 127
2, 40201, Note_off_c, 0, 72, 127
2, 40204, Note_on_c, 11, 58, 127
2, 40204, Note_on_c, 11, 70, 127
2, 40208, Note_off_c, 0, 60, 127
2, 40287, Note_on_c, 0, 60, 127
2, 40292, Note_off_c, 11, 58, 127
2, 40325, Note_off_c, 11, 70, 127
2, 40328, Note_on_c, 10, 69, 127
2, 40369, Note_on_c, 11, 58, 127
2, 40375, Note_off_c, 0, 60, 127
2, 40449, Note_off_c, 10, 69, 127
2, 40453, Note_on_c, 0, 60, 127
2, 40453, Note_on_c, 7, 67, 127
2, 40457, Note_off_c, 11, 58, 127
2, 40535, Note_on_c, 11, 58, 127
2, 40541, Note_off_c, 0, 60, 127
2, 40574, Note_off_c, 7, 67, 127
2, 40577, Note_on_c, 2, 74, 127
2, 40618, Note_on_c, 0, 60, 127
2, 40623, Note_off_c, 11, 58, 127
2, 40698, Note_off_c, 2, 74, 127
2, 40701, Note_on_c, 11, 58, 127
2, 40701, Note_on_c, 11, 70, 127
2, 40706, Note_off_c, 0, 60, 127
2, 40784, Note_on_c, 0, 60, 127
2, 40789, Note_off_c, 11, 58, 127
2, 40822, Note_off_c, 11, 70, 127
2, 40825, Note_on_c, 10, 69, 127
2, 40867, Note_on_c, 11, 58, 127
2, 40872, Note_off_c, 0, 60, 127
2, 40946, Note_off_c, 10, 69, 127
2, 40950, Note_on_c, 0, 60, 127
2, 40950, Note_on_c, 11, 70, 127
2, 40955, Note_off_c, 11, 58, 127
2, 41033, Note_on_c, 11, 58, 127
2, 41038, Note_off_c, 0, 60, 127
2, 41071, Note_off_c, 11, 70, 127
2, 41074, Note_on_c, 2, 74, 127
2, 41116, Note_on_c, 0, 60, 127
2, 41121, Note_off_c, 11, 58, 127
2, 41195, Note_off_c, 2, 74, 127
2, 41198, Note_on_c, 11, 58, 127
2, 41198, Note_on_c, 7, 67, 127
2, 41204, Note_off_c, 0, 60, 127
2, 41281, Note_on_c, 0, 60, 127
2, 41286, Note_off_c, 11, 58, 127
2, 41319, Note_off_c, 7, 67, 127
2, 41323, Note_on_c, 11, 70, 127
2, 41365, Note_on_c, 11, 58, 127
2, 41369, Note_off_c, 0, 60, 127
2, 41444, Note_off_c, 11, 70, 127
2, 41447, Note_on_c, 0, 60, 127
2, 41447, Note_on_c, 2, 74, 127
2, 41453, Note_off_c, 11, 58, 127
2, 41530, Note_on_c, 11, 58, 127
2, 41535, Note_off_c, 0, 60, 127
2, 41568, Note_off_c, 2, 74, 127
2, 41572, Note_on_c, 5, 77, 127
2, 41614, Note_on_c, 0, 60, 127
2, 41618, Note_off_c, 11, 58, 127
2, 41693, Note_off_c, 5, 77, 127
2, 41696, Note_on_c, 11, 58, 127
2, 41696, Note_on_c, 4, 76, 127
2, 41702, Note_off_c, 0, 60, 127
2, 41779, Note_on_c, 0, 60, 127
2, 41784, Note_off_c, 11, 58, 127
2, 41817, Note_off_c, 4, 76, 127
2, 41821, Note_on_c, 2, 74, 127
2, 41861, Note_on_c, 11, 58, 127
2, 41867, Note_off_c, 0, 60, 127
2, 41942, Note_off_c, 2, 74, 127
2, 41945, Note_on_c, 0, 60, 127
2, 41945, Note_on_c, 4, 76, 127
2, 41949, Note_off_c, 11, 58, 127
2, 42028, Note_on_c, 11, 58, 127
2, 42033, Note_off_c, 0, 60, 127
2, 42066, Note_off_c, 4, 76, 127
2, 42070, Note_on_c, 7, 79, 127
2, 42110, Note_on_c, 0, 60, 127
2, 42116, Note_off_c, 11, 58, 127
2, 42191, Note_off_c, 7, 79, 127
2, 42193, Note_on_c, 11, 58, 127
2, 42193, Note_on_c, 4, 76, 127
2, 42198, Note_off_c, 0, 60, 127
2, 42277, Note_on_c, 0, 60, 127
2, 42281, Note_off_c, 11, 58, 127
2, 42314, Note_off_c, 4, 76, 127
2, 42317, Note_on_c, 2, 74, 127
2, 42359, Note_on_c, 11, 58, 127
2, 42365, Note_off_c, 0, 60, 127
2, 42438, Note_off_c, 2, 74, 127
2, 42442, Note_on_c, 0, 60, 127
2, 42442, Note_on_c, 4, 76, 127
2, 42447, Note_off_c, 11, 58, 127
2, 42525, Note_on_c, 11, 58, 127
2, 42530, Note_off_c, 0, 60, 127
2, 42563, Note_off_c, 4, 76, 127
2, 42566, Note_on_c, 7, 79, 127
2, 42608, Note_on_c, 0, 60, 127
2, 42613, Note_off_c, 11, 58, 127
2, 42687, Note_off_c, 7, 79, 127
2, 42691, Note_on_c, 11, 58, 127
2, 42691, Note_on_c, 0, 72, 127
2, 42696, Note_off_c, 0, 60, 127
2, 42773, Note_on_c, 0, 60, 127
2, 42779, Note_off_c, 11, 58, 127
2, 42812, Note_off_c, 0, 72, 127
2, 42815, Note_on_c, 4, 76, 127
2, 42857, Note_on_c, 11, 58, 127
2, 42861, Note_off_c, 0, 60, 127
2, 42936, Note_off_c, 4, 76, 127
2, 42940, Note_on_c, 0, 60, 127
2, 42940, Note_on_c, 7, 79, 127
2, 42945, Note_off_c, 11, 58, 127
2, 43022, Note_on_c, 11, 58, 127
2, 43028, Note_off_c, 0, 60, 127
2, 43061, Note_off_c, 7, 79, 127
2, 43064, Note_on_c, 11, 82, 127
2, 43106, Note_on_c, 0, 60, 127
2, 43110, Note_off_c, 11, 58, 127
2, 43185, Note_off_c, 11, 82, 127
2, 43188, Note_on_c, 11, 58, 127
2, 43188, Note_on_c, 10, 81, 127
2, 43194, Note_off_c, 0, 60, 127
2, 43309, Note_off_c, 10, 81, 127
2, 43313, Note_on_c, 7, 79, 127
2, 43404, Note_off_c, 11, 58, 127
2, 43434, Note_off_c, 7, 79, 127
2, 43437, Note_on_c, 10, 57, 127
2, 43437, Note_on_c, 0, 84, 127
2, 43563, Note_on_c, 10, 81, 127
2, 43684, Note_off_c, 0, 84, 127
2, 43685, Note_off_c, 10, 81, 127
2, 43688, Note_on_c, 0, 60, 127
2, 43688, Note_on_c, 5, 77, 127
2, 43689, Note_off_c, 10, 57, 127
2, 43810, Note_off_c, 5, 77, 127
2, 43814, Note_on_c, 4, 76, 127
2, 43906, Note_off_c, 0, 60, 127
2, 43936, Note_off_c, 4, 76, 127
2, 43939, Note_on_c, 10, 57, 127
2, 43939, Note_on_c, 5, 77, 127
2, 44061, Note_off_c, 5, 77, 127
2, 44066, Note_on_c, 10, 81, 127
2, 44157, Note_off_c, 10, 57, 127
2, 44188, Note_off_c, 10, 81, 127
2, 44191, Note_on_c, 5, 53, 127
2, 44191, Note_on_c, 2, 74, 127
2, 44317, Note_on_c, 5, 77, 127
2, 44360, Note_off_c, 2, 74, 127
2, 44408, Note_off_c, 5, 53, 127
2, 44438, Note_off_c, 5, 77, 127
2, 44441, Note_on_c, 2, 50, 127
2, 44441, Note_on_c, 10, 81, 127
2, 44563, Note_off_c, 10, 81, 127
2, 44566, Note_on_c, 0, 84, 127
2, 44659, Note_off_c, 2, 50, 127
2, 44688, Note_off_c, 0, 84, 127
2, 44692, Note_on_c, 5, 53, 127
2, 44692, Note_on_c, 11, 82, 127
2, 44814, Note_off_c, 11, 82, 127
2, 44817, Note_on_c, 10, 81, 127
2, 44910, Note_off_c, 5, 53, 127
2, 44939, Note_off_c, 10, 81, 127
2, 44944, Note_on_c, 7, 55, 127
2, 44944, Note_on_c, 11, 82, 127
2, 45069, Note_on_c, 7, 79, 127
2, 45191, Note_off_c, 7, 79, 127
2, 45191, Note_off_c, 11, 82, 127
2, 45195, Note_on_c, 11, 58, 127
2, 45195, Note_on_c, 4, 76, 127
2, 45196, Note_off_c, 7, 55, 127
2, 45317, Note_off_c, 4, 76, 127
2, 45320, Note_on_c, 2, 74, 127
2, 45413, Note_off_c, 11, 58, 127
2, 45442, Note_off_c, 2, 74, 127
2, 45446, Note_on_c, 7, 55, 127
2, 45446, Note_on_c, 4, 76, 127
2, 45568, Note_off_c, 4, 76, 127
2, 45572, Note_on_c, 7, 79, 127
2, 45664, Note_off_c, 7, 55, 127
2, 45694, Note_off_c, 7, 79, 127
2, 45698, Note_on_c, 4, 52, 127
2, 45698, Note_on_c, 0, 72, 127
2, 45823, Note_on_c, 4, 76, 127
2, 45867, Note_off_c, 0, 72, 127
2, 45915, Note_off_c, 4, 52, 127
2, 45944, Note_off_c, 4, 76, 127
2, 45948, Note_on_c, 0, 48, 127
2, 45948, Note_on_c, 7, 79, 127
2, 46070, Note_off_c, 7, 79, 127
2, 46073, Note_on_c, 11, 82, 127
2, 46166, Note_off_c, 0, 48, 127
2, 46195, Note_off_c, 11, 82, 127
2, 46198, Note_on_c, 4, 52, 127
2, 46198, Note_on_c, 10, 81, 127
2, 46320, Note_off_c, 10, 81, 127
2, 46324, Note_on_c, 7, 79, 127
2, 46416, Note_off_c, 4, 52, 127
2, 46446, Note_off_c, 7, 79, 127
2, 46450, Note_on_c, 5, 53, 127
2, 46450, Note_on_c, 10, 81, 127
2, 46576, Note_on_c, 0, 48, 127
2, 46576, Note_on_c, 5, 77, 127
2, 46697, Note_off_c, 10, 81, 127
2, 46697, Note_off_c, 5, 53, 127
2, 46698, Note_off_c, 5, 77, 127
2, 46698, Note_off_c, 0, 48, 127
2, 46701, Note_on_c, 10, 45, 127
2, 46701, Note_on_c, 0, 72, 127
2, 46823, Note_off_c, 0, 72, 127
2, 46823, Note_off_c, 10, 45, 127
2, 46827, Note_on_c, 7, 43, 127
2, 46827, Note_on_c, 11, 70, 127
2, 46949, Note_off_c, 11, 70, 127
2, 46949, Note_off_c, 7, 43, 127
2, 46952, Note_on_c, 10, 45, 127
2, 46952, Note_on_c, 0, 72, 127
2, 47074, Note_off_c, 0, 72, 127
2, 47074, Note_off_c, 10, 45, 127
2, 47079, Note_on_c, 0, 48, 127
2, 47079, Note_on_c, 5, 77, 127
2, 47201, Note_off_c, 5, 77, 127
2, 47201, Note_off_c, 0, 48, 127
2, 47204, Note_on_c, 5, 41, 127
2, 47204, Note_on_c, 10, 69, 127
2, 47326, Note_off_c, 10, 69, 127
2, 47330, Note_on_c, 10, 45, 127
2, 47330, Note_on_c, 0, 72, 127
2, 47451, Note_off_c, 5, 41, 127
2, 47452, Note_off_c, 0, 72, 127
2, 47452, Note_off_c, 10, 45, 127
2, 47455, Note_on_c, 0, 48, 127
2, 47455, Note_on_c, 3, 75, 127
2, 47577, Note_off_c, 3, 75, 127
2, 47577, Note_off_c, 0, 48, 127
2, 47581, Note_on_c, 3, 51, 127
2, 47581, Note_on_c, 7, 79, 127
2, 47703, Note_off_c, 7, 79, 127
2, 47703, Note_off_c, 3, 51, 127
2, 47707, Note_on_c, 2, 50, 127
2, 47707, Note_on_c, 5, 77, 127
2, 47829, Note_off_c, 5, 77, 127
2, 47829, Note_off_c, 2, 50, 127
2, 47833, Note_on_c, 0, 48, 127
2, 47833, Note_on_c, 3, 75, 127
2, 47955, Note_off_c, 3, 75, 127
2, 47955, Note_off_c, 0, 48, 127
2, 47958, Note_on_c, 5, 53, 127
2, 47958, Note_on_c, 2, 74, 127
2, 48043, Note_on_c, 3, 75, 127
2, 48047, Note_off_c, 2, 74, 127
2, 48083, Note_on_c, 2, 50, 127
2, 48125, Note_on_c, 2, 74, 127
2, 48131, Note_off_c, 3, 75, 127
2, 48205, Note_off_c, 2, 50, 127
2, 48205, Note_off_c, 5, 53, 127
2, 48209, Note_on_c, 11, 46, 127
2, 48209, Note_on_c, 3, 75, 127
2, 48214, Note_off_c, 2, 74, 127
2, 48294, Note_on_c, 2, 74, 127
2, 48298, Note_off_c, 3, 75, 127
2, 48331, Note_off_c, 11, 46, 127
2, 48335, Note_on_c, 10, 45, 127
2, 48376, Note_on_c, 3, 75, 127
2, 48382, Note_off_c, 2, 74, 127
2, 48457, Note_off_c, 10, 45, 127
2, 48461, Note_on_c, 11, 46, 127
2, 48461, Note_on_c, 2, 74, 127
2, 48465, Note_off_c, 3, 75, 127
2, 48583, Note_off_c, 11, 46, 127
2, 48586, Note_on_c, 2, 50, 127
2, 48708, Note_off_c, 2, 50, 127
2, 48712, Note_on_c, 5, 41, 127
2, 48836, Note_off_c, 2, 74, 127
2, 48837, Note_on_c, 11, 46, 127
2, 48837, Note_on_c, 0, 72, 127
2, 48959, Note_off_c, 0, 72, 127
2, 48959, Note_off_c, 11, 46, 127
2, 48959, Note_off_c, 5, 41, 127
2, 48963, Note_on_c, 2, 50, 127
2, 48963, Note_on_c, 11, 70, 127
2, 49085, Note_off_c, 11, 70, 127
2, 49085, Note_off_c, 2, 50, 127
2, 49089, Note_on_c, 5, 53, 127
2, 49089, Note_on_c, 10, 69, 127
2, 49211, Note_off_c, 10, 69, 127
2, 49211, Note_off_c, 5, 53, 127
2, 49215, Note_on_c, 4, 52, 127
2, 49215, Note_on_c, 7, 67, 127
2, 49337, Note_off_c, 7, 67, 127
2, 49337, Note_off_c, 4, 52, 127
2, 49344, Note_on_c, 5, 65, 127
2, 49345, Note_on_c, 2, 50, 127
2, 49476, Note_off_c, 5, 65, 127
2, 49477, Note_off_c, 2, 50, 127
2, 49490, Note_on_c, 11, 70, 127
2, 49490, Note_on_c, 4, 52, 127
2, 49613, Note_off_c, 4, 52, 127
2, 49617, Note_on_c, 0, 48, 127
2, 49740, Note_off_c, 0, 48, 127
2, 49741, Note_off_c, 11, 70, 127
2, 49744, Note_on_c, 7, 79, 127
2, 49744, Note_on_c, 11, 46, 127
2, 49867, Note_off_c, 11, 46, 127
2, 49871, Note_on_c, 10, 45, 127
2, 49994, Note_off_c, 10, 45, 127
2, 49995, Note_off_c, 7, 79, 127
2, 49998, Note_on_c, 4, 76, 127
2, 49998, Note_on_c, 11, 46, 127
2, 50121, Note_off_c, 11, 46, 127
2, 50129, Note_on_c, 4, 52, 127
2, 50249, Note_off_c, 4, 76, 127
2, 50252, Note_off_c, 4, 52, 127
2, 50267, Note_on_c, 7, 43, 127
2, 50267, Note_on_c, 0, 72, 127
2, 50390, Note_off_c, 7, 43, 127
2, 50394, Note_on_c, 11, 46, 127
2, 50517, Note_off_c, 11, 46, 127
2, 50518, Note_off_c, 0, 72, 127
2, 50521, Note_on_c, 4, 52, 127
2, 50521, Note_on_c, 11, 70, 127
2, 50644, Note_off_c, 4, 52, 127
2, 50648, Note_on_c, 7, 55, 127
2, 50771, Note_off_c, 7, 55, 127
2, 50772, Note_off_c, 11, 70, 127
2, 50775, Note_on_c, 5, 53, 127
2, 50775, Note_on_c, 7, 79, 127
2, 50898, Note_off_c, 5, 53, 127
2, 50902, Note_on_c, 4, 52, 127
2, 51025, Note_off_c, 4, 52, 127
2, 51026, Note_off_c, 7, 79, 127
2, 51037, Note_on_c, 10, 69, 127
2, 51037, Note_on_c, 5, 53, 127
2, 51162, Note_off_c, 10, 69, 127
2, 51165, Note_on_c, 7, 67, 127
2, 51259, Note_off_c, 5, 53, 127
2, 51290, Note_off_c, 7, 67, 127
2, 51293, Note_on_c, 10, 45, 127
2, 51293, Note_on_c, 5, 65, 127
2, 51418, Note_off_c, 5, 65, 127
2, 51422, Note_on_c, 4, 64, 127
2, 51515, Note_off_c, 10, 45, 127
2, 51547, Note_off_c, 4, 64, 127
2, 51550, Note_on_c, 2, 50, 127
2, 51550, Note_on_c, 5, 65, 127
2, 51675, Note_off_c, 5, 65, 127
2, 51678, Note_on_c, 10, 69, 127
2, 51772, Note_off_c, 2, 50, 127
2, 51803, Note_off_c, 10, 69, 127
2, 51807, Note_on_c, 0, 48, 127
2, 51807, Note_on_c, 2, 62, 127
2, 51895, Note_on_c, 11, 46, 127
2, 51900, Note_off_c, 0, 48, 127
2, 51936, Note_off_c, 2, 62, 127
2, 51939, Note_on_c, 5, 65, 127
2, 51983, Note_on_c, 0, 48, 127
2, 51988, Note_off_c, 11, 46, 127
2, 52068, Note_off_c, 5, 65, 127
2, 52071, Note_on_c, 11, 46, 127
2, 52071, Note_on_c, 2, 62, 127
2, 52076, Note_off_c, 0, 48, 127
2, 52159, Note_on_c, 10, 45, 127
2, 52164, Note_off_c, 11, 46, 127
2, 52200, Note_off_c, 2, 62, 127
2, 52203, Note_on_c, 11, 58, 127
2, 52247, Note_on_c, 11, 46, 127
2, 52252, Note_off_c, 10, 45, 127
2, 52332, Note_off_c, 11, 58, 127
2, 52335, Note_on_c, 0, 48, 127
2, 52335, Note_on_c, 7, 55, 127
2, 52340, Note_off_c, 11, 46, 127
2, 52464, Note_off_c, 7, 55, 127
2, 52467, Note_on_c, 4, 64, 127
2, 52565, Note_off_c, 0, 48, 127
2, 52597, Note_off_c, 4, 64, 127
2, 52601, Note_on_c, 5, 41, 127
2, 52601, Note_on_c, 5, 65, 127
2, 52742, Note_on_c, 11, 58, 127
2, 52878, Note_off_c, 11, 58, 127
2, 52882, Note_on_c, 10, 57, 127
2, 53018, Note_off_c, 10, 57, 127
2, 53021, Note_on_c, 7, 55, 127
2, 53157, Note_off_c, 7, 55, 127
2, 53162, Note_on_c, 10, 57, 127
2, 53298, Note_off_c, 10, 57, 127
2, 53302, Note_on_c, 0, 60, 127
2, 53438, Note_off_c, 0, 60, 127
2, 53439, Note_off_c, 5, 65, 127
2, 53442, Note_on_c, 5, 53, 127
2, 53613, Note_off_c, 5, 41, 127
2, 53615, Note_on_c, 0, 48, 127
2, 53784, Note_off_c, 0, 48, 127
2, 53788, Note_on_c, 10, 45, 127
2, 53957, Note_off_c, 10, 45, 127
2, 53962, Note_on_c, 0, 48, 127
2, 54146, Note_off_c, 0, 48, 127
2, 54186, Note_on_c, 5, 41, 127
2, 56400, Note_off_c, 5, 41, 127
2, 56400, Note_off_c, 5, 53, 127
2, 57573, Note_on_c, 0, 60, 127
2, 57832, Note_off_c, 0, 60, 127
2, 57885, Note_on_c, 2, 62, 127
2, 58191, Note_off_c, 2, 62, 127
2, 58198, Note_on_c, 0, 60, 127
2, 58448, Note_off_c, 0, 60, 127
2, 58510, Note_on_c, 11, 58, 127
2, 58760, Note_off_c, 11, 58, 127
2, 58824, Note_on_c, 0, 60, 127
2, 59130, Note_off_c, 0, 60, 127
2, 59136, Note_on_c, 4, 52, 127
2, 59285, Note_off_c, 4, 52, 127
2, 59292, Note_on_c, 5, 53, 127
2, 59441, Note_off_c, 5, 53, 127
2, 59448, Note_on_c, 7, 55, 127
2, 59583, Note_off_c, 7, 55, 127
2, 59605, Note_on_c, 10, 57, 127
2, 59740, Note_off_c, 10, 57, 127
2, 59761, Note_on_c, 11, 58, 127
2, 60067, Note_off_c, 11, 58, 127
2, 60073, Note_on_c, 0, 60, 127
2, 60222, Note_off_c, 0, 60, 127
2, 60230, Note_on_c, 11, 58, 127
2, 60379, Note_off_c, 11, 58, 127
2, 60386, Note_on_c, 10, 57, 127
2, 60521, Note_off_c, 10, 57, 127
2, 60542, Note_on_c, 7, 55, 127
2, 60677, Note_off_c, 7, 55, 127
2, 60698, Note_on_c, 10, 57, 127
2, 60847, Note_off_c, 10, 57, 127
2, 60854, Note_on_c, 7, 55, 127
2, 61003, Note_off_c, 7, 55, 127
2, 61011, Note_on_c, 5, 53, 127
2, 61160, Note_off_c, 5, 53, 127
2, 61167, Note_on_c, 7, 55, 127
2, 61316, Note_off_c, 7, 55, 127
2, 61323, Note_on_c, 10, 57, 127
2, 61323, Note_on_c, 5, 65, 127
2, 61463, Note_off_c, 10, 57, 127
2, 61479, Note_on_c, 11, 58, 127
2, 61557, Note_off_c, 5, 65, 127
2, 61619, Note_off_c, 11, 58, 127
2, 61635, Note_on_c, 0, 60, 127
2, 61635, Note_on_c, 10, 69, 127
2, 61784, Note_off_c, 0, 60, 127
2, 61792, Note_on_c, 11, 58, 127
2, 61941, Note_off_c, 11, 58, 127
2, 61941, Note_off_c, 10, 69, 127
2, 61948, Note_on_c, 10, 57, 127
2, 61948, Note_on_c, 7, 67, 127
2, 62097, Note_off_c, 10, 57, 127
2, 62104, Note_on_c, 11, 58, 127
2, 62182, Note_off_c, 7, 67, 127
2, 62253, Note_off_c, 11, 58, 127
2, 62260, Note_on_c, 0, 60, 127
2, 62260, Note_on_c, 5, 65, 127
2, 62400, Note_off_c, 0, 60, 127
2, 62416, Note_on_c, 2, 62, 127
2, 62494, Note_off_c, 5, 65, 127
2, 62556, Note_off_c, 2, 62, 127
2, 62573, Note_on_c, 4, 64, 127
2, 62573, Note_on_c, 7, 67, 127
2, 62722, Note_off_c, 7, 67, 127
2, 62729, Note_on_c, 7, 67, 127
2, 62807, Note_off_c, 4, 64, 127
2, 62878, Note_off_c, 7, 67, 127
2, 62885, Note_on_c, 5, 65, 127
2, 62885, Note_on_c, 12, 59, 127
2, 63034, Note_off_c, 12, 59, 127
2, 63034, Note_off_c, 5, 65, 127
2, 63041, Note_on_c, 4, 64, 127
2, 63041, Note_on_c, 0, 60, 127
2, 63190, Note_off_c, 0, 60, 127
2, 63190, Note_off_c, 4, 64, 127
2, 63198, Note_on_c, 2, 62, 127
2, 63347, Note_off_c, 2, 62, 127
2, 63354, Note_on_c, 0, 60, 127
2, 63354, Note_on_c, 4, 64, 127
2, 63503, Note_off_c, 4, 64, 127
2, 63503, Note_off_c, 0, 60, 127
2, 63510, Note_on_c, 0, 60, 127
2, 63510, Note_on_c, 5, 65, 127
2, 63603, Note_off_c, 0, 60, 127
2, 63604, Note_on_c, 12, 59, 127
2, 63659, Note_off_c, 12, 59, 127
2, 63666, Note_on_c, 0, 60, 127
2, 63737, Note_off_c, 0, 60, 127
2, 63744, Note_on_c, 12, 59, 127
2, 63814, Note_off_c, 5, 65, 127
2, 63815, Note_off_c, 12, 59, 127
2, 63821, Note_on_c, 0, 60, 127
2, 63821, Note_on_c, 7, 67, 127
2, 63892, Note_off_c, 0, 60, 127
2, 63899, Note_on_c, 12, 59, 127
2, 63969, Note_off_c, 7, 67, 127
2, 63970, Note_off_c, 12, 59, 127
2, 63976, Note_on_c, 0, 60, 127
2, 63976, Note_on_c, 5, 65, 127
2, 64047, Note_off_c, 0, 60, 127
2, 64054, Note_on_c, 12, 59, 127
2, 64124, Note_off_c, 5, 65, 127
2, 64125, Note_off_c, 12, 59, 127
2, 64131, Note_on_c, 0, 60, 127
2, 64131, Note_on_c, 4, 64, 127
2, 64202, Note_off_c, 0, 60, 127
2, 64208, Note_on_c, 12, 59, 127
2, 64279, Note_off_c, 12, 59, 127
2, 64279, Note_off_c, 4, 64, 127
2, 64286, Note_on_c, 10, 57, 127
2, 64286, Note_on_c, 2, 62, 127
2, 64357, Note_off_c, 10, 57, 127
2, 64363, Note_on_c, 12, 59, 127
2, 64434, Note_off_c, 12, 59, 127
2, 64434, Note_off_c, 2, 62, 127
2, 64441, Note_on_c, 0, 60, 127
2, 64441, Note_on_c, 4, 64, 127
2, 64590, Note_off_c, 4, 64, 127
2, 64597, Note_on_c, 2, 62, 127
2, 64746, Note_off_c, 2, 62, 127
2, 64747, Note_off_c, 0, 60, 127
2, 64753, Note_on_c, 11, 58, 127
2, 64753, Note_on_c, 0, 60, 127
2, 64902, Note_off_c, 0, 60, 127
2, 64909, Note_on_c, 2, 62, 127
2, 65008, Note_off_c, 11, 58, 127
2, 65058, Note_off_c, 2, 62, 127
2, 65066, Note_on_c, 10, 57, 127
2, 65066, Note_on_c, 4, 64, 127
2, 65215, Note_off_c, 4, 64, 127
2, 65222, Note_on_c, 5, 65, 127
2, 65321, Note_off_c, 10, 57, 127
2, 65371, Note_off_c, 5, 65, 127
2, 65378, Note_on_c, 11, 58, 127
2, 65378, Note_on_c, 7, 67, 127
2, 65527, Note_off_c, 11, 58, 127
2, 65534, Note_on_c, 10, 57, 127
2, 65683, Note_off_c, 10, 57, 127
2, 65684, Note_off_c, 7, 67, 127
2, 65691, Note_on_c, 7, 55, 127
2, 65691, Note_on_c, 5, 65, 127
2, 65840, Note_off_c, 7, 55, 127
2, 65847, Note_on_c, 10, 57, 127
2, 65921, Note_off_c, 5, 65, 127
2, 65996, Note_off_c, 10, 57, 127
2, 66003, Note_on_c, 0, 48, 127
2, 66003, Note_on_c, 11, 58, 127
2, 66003, Note_on_c, 4, 64, 127
2, 66152, Note_off_c, 11, 58, 127
2, 66159, Note_on_c, 0, 60, 127
2, 66233, Note_off_c, 4, 64, 127
2, 66270, Note_off_c, 0, 48, 127
2, 66310, Note_off_c, 0, 60, 127
2, 66317, Note_on_c, 2, 50, 127
2, 66317, Note_on_c, 10, 57, 127
2, 66317, Note_on_c, 5, 65, 127
2, 66466, Note_off_c, 5, 65, 127
2, 66473, Note_on_c, 4, 64, 127
2, 66622, Note_off_c, 4, 64, 127
2, 66623, Note_off_c, 2, 50, 127
2, 66629, Note_on_c, 0, 48, 127
2, 66629, Note_on_c, 2, 62, 127
2, 66778, Note_off_c, 2, 62, 127
2, 66785, Note_on_c, 4, 64, 127
2, 66895, Note_off_c, 0, 48, 127
2, 66934, Note_off_c, 4, 64, 127
2, 66935, Note_off_c, 10, 57, 127
2, 66941, Note_on_c, 11, 46, 127
2, 66941, Note_on_c, 2, 62, 127
2, 66941, Note_on_c, 5, 65, 127
2, 67090, Note_off_c, 5, 65, 127
2, 67098, Note_on_c, 7, 67, 127
2, 67207, Note_off_c, 11, 46, 127
2, 67247, Note_off_c, 7, 67, 127
2, 67247, Note_off_c, 2, 62, 127
2, 67254, Note_on_c, 0, 48, 127
2, 67254, Note_on_c, 4, 64, 127
2, 67254, Note_on_c, 10, 69, 127
2, 67403, Note_off_c, 10, 69, 127
2, 67410, Note_on_c, 0, 72, 127
2, 67559, Note_off_c, 0, 72, 127
2, 67560, Note_off_c, 4, 64, 127
2, 67560, Note_off_c, 0, 48, 127
2, 67566, Note_on_c, 4, 40, 127
2, 67566, Note_on_c, 7, 67, 127
2, 67566, Note_on_c, 11, 70, 127
2, 67715, Note_off_c, 11, 70, 127
2, 67715, Note_off_c, 4, 40, 127
2, 67723, Note_on_c, 5, 41, 127
2, 67723, Note_on_c, 10, 69, 127
2, 67800, Note_off_c, 7, 67, 127
2, 67872, Note_off_c, 10, 69, 127
2, 67872, Note_off_c, 5, 41, 127
2, 67879, Note_on_c, 7, 43, 127
2, 67879, Note_on_c, 0, 60, 127
2, 67879, Note_on_c, 7, 67, 127
2, 68028, Note_off_c, 7, 67, 127
2, 68028, Note_off_c, 7, 43, 127
2, 68035, Note_on_c, 10, 45, 127
2, 68035, Note_on_c, 5, 65, 127
2, 68138, Note_off_c, 0, 60, 127
2, 68184, Note_off_c, 5, 65, 127
2, 68184, Note_off_c, 10, 45, 127
2, 68191, Note_on_c, 11, 46, 127
2, 68191, Note_on_c, 0, 60, 127
2, 68191, Note_on_c, 5, 65, 127
2, 68262, Note_off_c, 5, 65, 127
2, 68269, Note_on_c, 4, 64, 127
2, 68340, Note_off_c, 4, 64, 127
2, 68346, Note_on_c, 5, 65, 127
2, 68417, Note_off_c, 5, 65, 127
2, 68424, Note_on_c, 4, 64, 127
2, 68494, Note_off_c, 11, 46, 127
2, 68495, Note_off_c, 4, 64, 127
2, 68501, Note_on_c, 0, 48, 127
2, 68501, Note_on_c, 5, 65, 127
2, 68572, Note_off_c, 5, 65, 127
2, 68579, Note_on_c, 4, 64, 127
2, 68649, Note_off_c, 0, 48, 127
2, 68650, Note_off_c, 4, 64, 127
2, 68656, Note_on_c, 11, 46, 127
2, 68656, Note_on_c, 5, 65, 127
2, 68727, Note_off_c, 5, 65, 127
2, 68733, Note_on_c, 4, 64, 127
2, 68804, Note_off_c, 4, 64, 127
2, 68804, Note_off_c, 11, 46, 127
2, 68811, Note_on_c, 10, 45, 127
2, 68811, Note_on_c, 5, 65, 127
2, 68882, Note_off_c, 5, 65, 127
2, 68888, Note_on_c, 4, 64, 127
2, 68959, Note_off_c, 4, 64, 127
2, 68959, Note_off_c, 10, 45, 127
2, 68966, Note_on_c, 7, 43, 127
2, 68966, Note_on_c, 2, 62, 127
2, 69037, Note_off_c, 2, 62, 127
2, 69043, Note_on_c, 4, 64, 127
2, 69114, Note_off_c, 4, 64, 127
2, 69114, Note_off_c, 7, 43, 127
2, 69121, Note_on_c, 10, 45, 127
2, 69121, Note_on_c, 5, 65, 127
2, 69270, Note_off_c, 10, 45, 127
2, 69277, Note_on_c, 7, 43, 127
2, 69426, Note_off_c, 7, 43, 127
2, 69427, Note_off_c, 5, 65, 127
2, 69433, Note_on_c, 5, 41, 127
2, 69433, Note_on_c, 10, 69, 127
2, 69582, Note_off_c, 5, 41, 127
2, 69589, Note_on_c, 7, 43, 127
2, 69738, Note_off_c, 7, 43, 127
2, 69739, Note_off_c, 0, 60, 127
2, 69746, Note_on_c, 10, 45, 127
2, 69746, Note_on_c, 5, 65, 127
2, 69895, Note_off_c, 10, 45, 127
2, 69902, Note_on_c, 11, 46, 127
2, 69980, Note_off_c, 5, 65, 127
2, 70051, Note_off_c, 11, 46, 127
2, 70051, Note_off_c, 10, 69, 127
2, 70058, Note_on_c, 0, 48, 127
2, 70058, Note_on_c, 4, 64, 127
2, 70058, Note_on_c, 7, 67, 127
2, 70207, Note_off_c, 0, 48, 127
2, 70214, Note_on_c, 12, 47, 127
2, 70363, Note_off_c, 12, 47, 127
2, 70364, Note_off_c, 7, 67, 127
2, 70370, Note_on_c, 10, 45, 127
2, 70370, Note_on_c, 0, 72, 127
2, 70519, Note_off_c, 10, 45, 127
2, 70527, Note_on_c, 12, 47, 127
2, 70676, Note_off_c, 12, 47, 127
2, 70676, Note_off_c, 4, 64, 127
2, 70683, Note_on_c, 0, 48, 127
2, 70683, Note_on_c, 10, 69, 127
2, 70832, Note_off_c, 0, 48, 127
2, 70839, Note_on_c, 2, 50, 127
2, 70917, Note_off_c, 10, 69, 127
2, 70988, Note_off_c, 2, 50, 127
2, 70988, Note_off_c, 0, 72, 127
2, 70995, Note_on_c, 4, 52, 127
2, 70995, Note_on_c, 7, 67, 127
2, 70995, Note_on_c, 12, 71, 127
2, 71144, Note_off_c, 4, 52, 127
2, 71152, Note_on_c, 7, 55, 127
2, 71301, Note_off_c, 7, 55, 127
2, 71301, Note_off_c, 12, 71, 127
2, 71308, Note_on_c, 5, 53, 127
2, 71308, Note_on_c, 4, 76, 127
2, 71457, Note_off_c, 5, 53, 127
2, 71464, Note_on_c, 4, 52, 127
2, 71613, Note_off_c, 4, 52, 127
2, 71613, Note_off_c, 7, 67, 127
2, 71620, Note_on_c, 2, 50, 127
2, 71620, Note_on_c, 0, 72, 127
2, 71769, Note_off_c, 2, 50, 127
2, 71776, Note_on_c, 0, 48, 127
2, 71854, Note_off_c, 0, 72, 127
2, 71925, Note_off_c, 0, 48, 127
2, 71926, Note_off_c, 4, 76, 127
2, 71933, Note_on_c, 0, 48, 127
2, 71933, Note_on_c, 2, 74, 127
2, 72003, Note_off_c, 0, 48, 127
2, 72011, Note_on_c, 12, 47, 127
2, 72081, Note_off_c, 12, 47, 127
2, 72089, Note_on_c, 0, 72, 127
2, 72089, Note_on_c, 0, 48, 127
2, 72159, Note_off_c, 0, 48, 127
2, 72167, Note_on_c, 12, 47, 127
2, 72237, Note_off_c, 12, 47, 127
2, 72237, Note_off_c, 0, 72, 127
2, 72244, Note_on_c, 12, 71, 127
2, 72245, Note_on_c, 0, 48, 127
2, 72315, Note_off_c, 0, 48, 127
2, 72323, Note_on_c, 12, 47, 127
2, 72393, Note_off_c, 12, 47, 127
2, 72393, Note_off_c, 12, 71, 127
2, 72400, Note_on_c, 10, 69, 127
2, 72401, Note_on_c, 0, 48, 127
2, 72471, Note_off_c, 0, 48, 127
2, 72479, Note_on_c, 12, 47, 127
2, 72549, Note_off_c, 12, 47, 127
2, 72549, Note_off_c, 10, 69, 127
2, 72556, Note_on_c, 7, 67, 127
2, 72557, Note_on_c, 0, 48, 127
2, 72627, Note_off_c, 0, 48, 127
2, 72635, Note_on_c, 12, 47, 127
2, 72704, Note_off_c, 7, 67, 127
2, 72705, Note_off_c, 12, 47, 127
2, 72711, Note_on_c, 5, 65, 127
2, 72713, Note_on_c, 0, 48, 127
2, 72783, Note_off_c, 0, 48, 127
2, 72791, Note_on_c, 12, 47, 127
2, 72860, Note_off_c, 5, 65, 127
2, 72861, Note_off_c, 12, 47, 127
2, 72867, Note_on_c, 0, 48, 127
2, 72867, Note_on_c, 4, 64, 127
2, 73017, Note_off_c, 2, 74, 127
2, 73024, Note_on_c, 2, 74, 127
2, 73173, Note_off_c, 2, 74, 127
2, 73173, Note_off_c, 0, 48, 127
2, 73180, Note_on_c, 2, 50, 127
2, 73180, Note_on_c, 0, 72, 127
2, 73329, Note_off_c, 2, 50, 127
2, 73329, Note_off_c, 4, 64, 127
2, 73336, Note_on_c, 4, 52, 127
2, 73336, Note_on_c, 11, 70, 127
2, 73485, Note_off_c, 11, 70, 127
2, 73485, Note_off_c, 4, 52, 127
2, 73486, Note_off_c, 0, 72, 127
2, 73492, Note_on_c, 5, 53, 127
2, 73492, Note_on_c, 10, 69, 127
2, 73492, Note_on_c, 0, 72, 127
2, 73641, Note_off_c, 10, 69, 127
2, 73648, Note_on_c, 7, 67, 127
2, 73726, Note_off_c, 0, 72, 127
2, 73797, Note_off_c, 7, 67, 127
2, 73798, Note_off_c, 5, 53, 127
2, 73805, Note_on_c, 11, 58, 127
2, 73805, Note_on_c, 5, 65, 127
2, 73805, Note_on_c, 2, 74, 127
2, 73954, Note_off_c, 5, 65, 127
2, 73961, Note_on_c, 4, 64, 127
2, 74110, Note_off_c, 4, 64, 127
2, 74111, Note_off_c, 2, 74, 127
2, 74117, Note_on_c, 2, 62, 127
2, 74117, Note_on_c, 0, 72, 127
2, 74266, Note_off_c, 2, 62, 127
2, 74273, Note_on_c, 4, 64, 127
2, 74351, Note_off_c, 0, 72, 127
2, 74422, Note_off_c, 4, 64, 127
2, 74429, Note_on_c, 5, 65, 127
2, 74429, Note_on_c, 11, 70, 127
2, 74578, Note_off_c, 5, 65, 127
2, 74586, Note_on_c, 7, 67, 127
2, 74663, Note_off_c, 11, 70, 127
2, 74735, Note_off_c, 7, 67, 127
2, 74735, Note_off_c, 11, 58, 127
2, 74742, Note_on_c, 10, 57, 127
2, 74742, Note_on_c, 10, 69, 127
2, 74742, Note_on_c, 0, 72, 127
2, 74891, Note_off_c, 10, 57, 127
2, 74898, Note_on_c, 0, 60, 127
2, 75047, Note_off_c, 0, 60, 127
2, 75048, Note_off_c, 0, 72, 127
2, 75049, Note_off_c, 10, 69, 127
2, 75054, Note_on_c, 11, 58, 127
2, 75054, Note_on_c, 4, 64, 127
2, 75203, Note_off_c, 4, 64, 127
2, 75203, Note_off_c, 11, 58, 127
2, 75210, Note_on_c, 10, 57, 127
2, 75210, Note_on_c, 5, 65, 127
2, 75359, Note_off_c, 5, 65, 127
2, 75359, Note_off_c, 10, 57, 127
2, 75367, Note_on_c, 7, 55, 127
2, 75367, Note_on_c, 7, 67, 127
2, 75516, Note_off_c, 7, 67, 127
2, 75516, Note_off_c, 7, 55, 127
2, 75523, Note_on_c, 5, 53, 127
2, 75523, Note_on_c, 10, 69, 127
2, 75672, Note_off_c, 10, 69, 127
2, 75672, Note_off_c, 5, 53, 127
2, 75679, Note_on_c, 5, 53, 127
2, 75679, Note_on_c, 11, 70, 127
2, 75749, Note_off_c, 5, 53, 127
2, 75757, Note_on_c, 4, 52, 127
2, 75827, Note_off_c, 4, 52, 127
2, 75835, Note_on_c, 5, 53, 127
2, 75905, Note_off_c, 5, 53, 127
2, 75913, Note_on_c, 4, 52, 127
2, 75983, Note_off_c, 4, 52, 127
2, 75983, Note_off_c, 11, 70, 127
2, 75990, Note_on_c, 0, 72, 127
2, 75991, Note_on_c, 5, 53, 127
2, 76061, Note_off_c, 5, 53, 127
2, 76069, Note_on_c, 4, 52, 127
2, 76139, Note_off_c, 4, 52, 127
2, 76139, Note_off_c, 0, 72, 127
2, 76146, Note_on_c, 11, 70, 127
2, 76147, Note_on_c, 5, 53, 127
2, 76217, Note_off_c, 5, 53, 127
2, 76225, Note_on_c, 4, 52, 127
2, 76295, Note_off_c, 4, 52, 127
2, 76295, Note_off_c, 11, 70, 127
2, 76303, Note_on_c, 10, 69, 127
2, 76303, Note_on_c, 5, 53, 127
2, 76373, Note_off_c, 5, 53, 127
2, 76381, Note_on_c, 4, 52, 127
2, 76451, Note_off_c, 4, 52, 127
2, 76451, Note_off_c, 10, 69, 127
2, 76458, Note_on_c, 7, 67, 127
2, 76459, Note_on_c, 2, 50, 127
2, 76529, Note_off_c, 2, 50, 127
2, 76537, Note_on_c, 4, 52, 127
2, 76607, Note_off_c, 4, 52, 127
2, 76607, Note_off_c, 7, 67, 127
2, 76614, Note_on_c, 5, 53, 127
2, 76614, Note_on_c, 10, 69, 127
2, 76763, Note_off_c, 10, 69, 127
2, 76770, Note_on_c, 7, 67, 127
2, 76919, Note_off_c, 7, 67, 127
2, 76926, Note_on_c, 5, 65, 127
2, 77075, Note_off_c, 5, 65, 127
2, 77082, Note_on_c, 7, 67, 127
2, 77231, Note_off_c, 7, 67, 127
2, 77231, Note_off_c, 5, 53, 127
2, 77239, Note_on_c, 5, 65, 127
2, 77239, Note_on_c, 10, 69, 127
2, 77388, Note_off_c, 10, 69, 127
2, 77395, Note_on_c, 11, 70, 127
2, 77473, Note_off_c, 5, 65, 127
2, 77544, Note_off_c, 11, 70, 127
2, 77551, Note_on_c, 10, 69, 127
2, 77551, Note_on_c, 0, 72, 127
2, 77700, Note_off_c, 0, 72, 127
2, 77707, Note_on_c, 11, 70, 127
2, 77856, Note_off_c, 11, 70, 127
2, 77857, Note_off_c, 10, 69, 127
2, 77863, Note_on_c, 7, 67, 127
2, 77863, Note_on_c, 10, 69, 127
2, 78012, Note_off_c, 10, 69, 127
2, 78020, Note_on_c, 11, 70, 127
2, 78097, Note_off_c, 7, 67, 127
2, 78169, Note_off_c, 11, 70, 127
2, 78176, Note_on_c, 5, 65, 127
2, 78176, Note_on_c, 0, 72, 127
2, 78325, Note_off_c, 0, 72, 127
2, 78332, Note_on_c, 2, 74, 127
2, 78410, Note_off_c, 5, 65, 127
2, 78481, Note_off_c, 2, 74, 127
2, 78488, Note_on_c, 7, 67, 127
2, 78488, Note_on_c, 4, 76, 127
2, 78637, Note_off_c, 4, 76, 127
2, 78645, Note_on_c, 7, 79, 127
2, 78794, Note_off_c, 7, 79, 127
2, 78794, Note_off_c, 7, 67, 127
2, 78801, Note_on_c, 12, 59, 127
2, 78801, Note_on_c, 5, 77, 127
2, 78950, Note_off_c, 5, 77, 127
2, 78950, Note_off_c, 12, 59, 127
2, 78957, Note_on_c, 0, 60, 127
2, 78957, Note_on_c, 4, 76, 127
2, 79106, Note_off_c, 4, 76, 127
2, 79106, Note_off_c, 0, 60, 127
2, 79113, Note_on_c, 2, 62, 127
2, 79113, Note_on_c, 2, 74, 127
2, 79262, Note_off_c, 2, 74, 127
2, 79262, Note_off_c, 2, 62, 127
2, 79269, Note_on_c, 4, 64, 127
2, 79269, Note_on_c, 0, 72, 127
2, 79418, Note_off_c, 0, 72, 127
2, 79418, Note_off_c, 4, 64, 127
2, 79426, Note_on_c, 5, 65, 127
2, 79426, Note_on_c, 0, 72, 127
2, 79497, Note_off_c, 0, 72, 127
2, 79503, Note_on_c, 12, 71, 127
2, 79574, Note_off_c, 12, 71, 127
2, 79581, Note_on_c, 0, 72, 127
2, 79652, Note_off_c, 0, 72, 127
2, 79658, Note_on_c, 12, 71, 127
2, 79729, Note_off_c, 12, 71, 127
2, 79729, Note_off_c, 5, 65, 127
2, 79735, Note_on_c, 7, 67, 127
2, 79735, Note_on_c, 0, 72, 127
2, 79806, Note_off_c, 0, 72, 127
2, 79813, Note_on_c, 12, 71, 127
2, 79883, Note_off_c, 7, 67, 127
2, 79884, Note_off_c, 12, 71, 127
2, 79890, Note_on_c, 5, 65, 127
2, 79890, Note_on_c, 0, 72, 127
2, 79961, Note_off_c, 0, 72, 127
2, 79968, Note_on_c, 12, 71, 127
2, 80038, Note_off_c, 5, 65, 127
2, 80039, Note_off_c, 12, 71, 127
2, 80045, Note_on_c, 4, 64, 127
2, 80045, Note_on_c, 0, 72, 127
2, 80116, Note_off_c, 0, 72, 127
2, 80123, Note_on_c, 12, 71, 127
2, 80193, Note_off_c, 4, 64, 127
2, 80194, Note_off_c, 12, 71, 127
2, 80200, Note_on_c, 2, 62, 127
2, 80200, Note_on_c, 10, 69, 127
2, 80271, Note_off_c, 10, 69, 127
2, 80278, Note_on_c, 12, 71, 127
2, 80348, Note_off_c, 2, 62, 127
2, 80349, Note_off_c, 12, 71, 127
2, 80355, Note_on_c, 4, 64, 127
2, 80355, Note_on_c, 0, 72, 127
2, 80504, Note_off_c, 0, 72, 127
2, 80504, Note_off_c, 4, 64, 127
2, 80511, Note_on_c, 2, 62, 127
2, 80511, Note_on_c, 2, 74, 127
2, 80660, Note_off_c, 2, 74, 127
2, 80660, Note_off_c, 2, 62, 127
2, 80668, Note_on_c, 0, 60, 127
2, 80668, Note_on_c, 4, 76, 127
2, 80817, Note_off_c, 4, 76, 127
2, 80817, Note_off_c, 0, 60, 127
2, 80824, Note_on_c, 2, 62, 127
2, 80824, Note_on_c, 5, 77, 127
2, 80973, Note_off_c, 5, 77, 127
2, 80973, Note_off_c, 2, 62, 127
2, 80980, Note_on_c, 0, 60, 127
2, 80980, Note_on_c, 4, 64, 127
2, 80980, Note_on_c, 7, 79, 127
2, 81129, Note_off_c, 7, 79, 127
2, 81129, Note_off_c, 4, 64, 127
2, 81129, Note_off_c, 0, 60, 127
2, 81136, Note_on_c, 0, 60, 127
2, 81136, Note_on_c, 10, 81, 127
2, 81285, Note_off_c, 10, 81, 127
2, 81285, Note_off_c, 0, 60, 127
2, 81292, Note_on_c, 2, 62, 127
2, 81292, Note_on_c, 5, 65, 127
2, 81292, Note_on_c, 11, 70, 127
2, 81441, Note_off_c, 11, 70, 127
2, 81449, Note_on_c, 0, 72, 127
2, 81598, Note_off_c, 0, 72, 127
2, 81598, Note_off_c, 2, 62, 127
2, 81605, Note_on_c, 0, 60, 127
2, 81605, Note_on_c, 2, 74, 127
2, 81754, Note_off_c, 2, 74, 127
2, 81761, Note_on_c, 4, 76, 127
2, 81864, Note_off_c, 0, 60, 127
2, 81909, Note_off_c, 5, 65, 127
2, 81910, Note_off_c, 4, 76, 127
2, 81917, Note_on_c, 11, 58, 127
2, 81917, Note_on_c, 5, 77, 127
2, 82066, Note_off_c, 5, 77, 127
2, 82074, Note_on_c, 7, 79, 127
2, 82183, Note_off_c, 11, 58, 127
2, 82223, Note_off_c, 7, 79, 127
2, 82230, Note_on_c, 0, 60, 127
2, 82230, Note_on_c, 10, 81, 127
2, 82379, Note_off_c, 10, 81, 127
2, 82386, Note_on_c, 0, 84, 127
2, 82535, Note_off_c, 0, 84, 127
2, 82536, Note_off_c, 0, 60, 127
2, 82542, Note_on_c, 4, 52, 127
2, 82542, Note_on_c, 11, 82, 127
2, 82691, Note_off_c, 11, 82, 127
2, 82691, Note_off_c, 4, 52, 127
2, 82698, Note_on_c, 5, 53, 127
2, 82698, Note_on_c, 10, 81, 127
2, 82847, Note_off_c, 10, 81, 127
2, 82847, Note_off_c, 5, 53, 127
2, 82855, Note_on_c, 7, 55, 127
2, 82855, Note_on_c, 0, 72, 127
2, 82855, Note_on_c, 7, 79, 127
2, 83004, Note_off_c, 7, 79, 127
2, 83004, Note_off_c, 7, 55, 127
2, 83011, Note_on_c, 10, 57, 127
2, 83011, Note_on_c, 5, 77, 127
2, 83160, Note_off_c, 5, 77, 127
2, 83160, Note_off_c, 10, 57, 127
2, 83161, Note_off_c, 0, 72, 127
2, 83167, Note_on_c, 11, 58, 127
2, 83167, Note_on_c, 2, 74, 127
2, 83167, Note_on_c, 5, 77, 127
2, 83473, Note_off_c, 5, 77, 127
2, 83473, Note_off_c, 2, 74, 127
2, 83473, Note_off_c, 11, 58, 127
2, 83479, Note_on_c, 0, 60, 127
2, 83479, Note_on_c, 0, 72, 127
2, 83479, Note_on_c, 5, 77, 127
2, 83550, Note_off_c, 5, 77, 127
2, 83557, Note_on_c, 4, 76, 127
2, 83627, Note_off_c, 0, 60, 127
2, 83628, Note_off_c, 4, 76, 127
2, 83634, Note_on_c, 11, 58, 127
2, 83634, Note_on_c, 5, 77, 127
2, 83705, Note_off_c, 5, 77, 127
2, 83712, Note_on_c, 4, 76, 127
2, 83782, Note_off_c, 11, 58, 127
2, 83782, Note_off_c, 0, 72, 127
2, 83789, Note_on_c, 10, 57, 127
2, 83789, Note_on_c, 11, 70, 127
2, 83938, Note_off_c, 10, 57, 127
2, 83946, Note_on_c, 7, 55, 127
2, 84095, Note_off_c, 7, 55, 127
2, 84095, Note_off_c, 11, 70, 127
2, 84095, Note_off_c, 4, 76, 127
2, 84102, Note_on_c, 10, 57, 127
2, 84102, Note_on_c, 0, 72, 127
2, 84102, Note_on_c, 5, 77, 127
2, 84251, Note_off_c, 10, 57, 127
2, 84258, Note_on_c, 0, 60, 127
2, 84407, Note_off_c, 0, 60, 127
2, 84408, Note_off_c, 0, 72, 127
2, 84409, Note_off_c, 5, 77, 127
2, 84414, Note_on_c, 11, 58, 127
2, 84414, Note_on_c, 4, 64, 127
2, 84563, Note_off_c, 4, 64, 127
2, 84563, Note_off_c, 11, 58, 127
2, 84570, Note_on_c, 10, 57, 127
2, 84570, Note_on_c, 5, 65, 127
2, 84719, Note_off_c, 5, 65, 127
2, 84719, Note_off_c, 10, 57, 127
2, 84727, Note_on_c, 7, 55, 127
2, 84727, Note_on_c, 7, 67, 127
2, 84876, Note_off_c, 7, 67, 127
2, 84876, Note_off_c, 7, 55, 127
2, 84883, Note_on_c, 5, 53, 127
2, 84883, Note_on_c, 10, 69, 127
2, 85032, Note_off_c, 10, 69, 127
2, 85032, Note_off_c, 5, 53, 127
2, 85039, Note_on_c, 5, 53, 127
2, 85039, Note_on_c, 11, 70, 127
2, 85039, Note_on_c, 7, 79, 127
2, 85339, Note_off_c, 5, 53, 127
2, 85343, Note_off_c, 11, 70, 127
2, 85350, Note_on_c, 0, 72, 127
2, 85350, Note_on_c, 5, 53, 127
2, 85438, Note_off_c, 5, 53, 127
2, 85443, Note_on_c, 4, 52, 127
2, 85499, Note_off_c, 0, 72, 127
2, 85506, Note_on_c, 11, 70, 127
2, 85531, Note_off_c, 4, 52, 127
2, 85534, Note_on_c, 5, 53, 127
2, 85622, Note_off_c, 5, 53, 127
2, 85623, Note_on_c, 4, 52, 127
2, 85655, Note_off_c, 11, 70, 127
2, 85663, Note_on_c, 10, 69, 127
2, 85811, Note_off_c, 10, 69, 127
2, 85818, Note_on_c, 7, 67, 127
2, 85963, Note_off_c, 4, 52, 127
2, 85967, Note_off_c, 7, 67, 127
2, 85974, Note_on_c, 5, 53, 127
2, 85974, Note_on_c, 10, 69, 127
2, 86123, Note_off_c, 7, 79, 127
2, 86130, Note_on_c, 7, 79, 127
2, 86279, Note_off_c, 7, 79, 127
2, 86280, Note_off_c, 5, 53, 127
2, 86286, Note_on_c, 7, 55, 127
2, 86286, Note_on_c, 5, 77, 127
2, 86435, Note_off_c, 5, 77, 127
2, 86442, Note_on_c, 4, 76, 127
2, 86552, Note_off_c, 7, 55, 127
2, 86591, Note_off_c, 4, 76, 127
2, 86599, Note_on_c, 10, 57, 127
2, 86599, Note_on_c, 2, 74, 127
2, 86748, Note_off_c, 2, 74, 127
2, 86755, Note_on_c, 0, 72, 127
2, 86865, Note_off_c, 10, 57, 127
2, 86904, Note_off_c, 0, 72, 127
2, 86911, Note_on_c, 2, 50, 127
2, 86911, Note_on_c, 5, 77, 127
2, 87217, Note_off_c, 10, 69, 127
2, 87223, Note_on_c, 11, 70, 127
2, 87372, Note_off_c, 11, 70, 127
2, 87380, Note_on_c, 10, 69, 127
2, 87528, Note_off_c, 2, 50, 127
2, 87529, Note_off_c, 10, 69, 127
2, 87536, Note_on_c, 7, 67, 127
2, 87685, Note_off_c, 7, 67, 127
2, 87692, Note_on_c, 5, 65, 127
2, 87841, Note_off_c, 5, 65, 127
2, 87848, Note_on_c, 4, 52, 127
2, 87848, Note_on_c, 7, 67, 127
2, 87998, Note_off_c, 5, 77, 127
2, 88004, Note_on_c, 5, 77, 127
2, 88153, Note_off_c, 5, 77, 127
2, 88154, Note_off_c, 4, 52, 127
2, 88161, Note_on_c, 5, 53, 127
2, 88161, Note_on_c, 4, 76, 127
2, 88310, Note_off_c, 4, 76, 127
2, 88317, Note_on_c, 2, 74, 127
2, 88427, Note_off_c, 5, 53, 127
2, 88466, Note_off_c, 2, 74, 127
2, 88473, Note_on_c, 7, 55, 127
2, 88473, Note_on_c, 1, 73, 127
2, 88622, Note_off_c, 1, 73, 127
2, 88629, Note_on_c, 12, 71, 127
2, 88739, Note_off_c, 7, 55, 127
2, 88778, Note_off_c, 12, 71, 127
2, 88785, Note_on_c, 1, 49, 127
2, 88785, Note_on_c, 4, 76, 127
2, 89091, Note_off_c, 7, 67, 127
2, 89098, Note_on_c, 10, 69, 127
2, 89247, Note_off_c, 10, 69, 127
2, 89254, Note_on_c, 7, 67, 127
2, 89403, Note_off_c, 7, 67, 127
2, 89403, Note_off_c, 1, 49, 127
2, 89410, Note_on_c, 1, 61, 127
2, 89410, Note_on_c, 5, 65, 127
2, 89559, Note_off_c, 5, 65, 127
2, 89567, Note_on_c, 4, 64, 127
2, 89644, Note_off_c, 1, 61, 127
2, 89716, Note_off_c, 4, 64, 127
2, 89723, Note_on_c, 2, 62, 127
2, 89723, Note_on_c, 5, 65, 127
2, 89872, Note_off_c, 5, 65, 127
2, 89879, Note_on_c, 4, 64, 127
2, 90028, Note_off_c, 4, 64, 127
2, 90028, Note_off_c, 4, 76, 127
2, 90029, Note_off_c, 2, 62, 127
2, 90035, Note_on_c, 0, 60, 127
2, 90035, Note_on_c, 5, 65, 127
2, 90035, Note_on_c, 10, 69, 127
2, 90184, Note_off_c, 5, 65, 127
2, 90191, Note_on_c, 7, 67, 127
2, 90294, Note_off_c, 0, 60, 127
2, 90340, Note_off_c, 7, 67, 127
2, 90341, Note_off_c, 10, 69, 127
2, 90348, Note_on_c, 11, 58, 127
2, 90348, Note_on_c, 10, 69, 127
2, 90348, Note_on_c, 2, 74, 127
2, 90497, Note_off_c, 10, 69, 127
2, 90504, Note_on_c, 7, 67, 127
2, 90614, Note_off_c, 11, 58, 127
2, 90653, Note_off_c, 7, 67, 127
2, 90654, Note_off_c, 2, 74, 127
2, 90660, Note_on_c, 10, 57, 127
2, 90660, Note_on_c, 10, 69, 127
2, 90660, Note_on_c, 1, 73, 127
2, 90809, Note_off_c, 10, 69, 127
2, 90816, Note_on_c, 11, 70, 127
2, 90965, Note_off_c, 11, 70, 127
2, 90972, Note_on_c, 10, 69, 127
2, 91121, Note_off_c, 10, 69, 127
2, 91129, Note_on_c, 7, 67, 127
2, 91278, Note_off_c, 7, 67, 127
2, 91278, Note_off_c, 1, 73, 127
2, 91285, Note_on_c, 5, 65, 127
2, 91285, Note_on_c, 10, 81, 127
2, 91434, Note_off_c, 5, 65, 127
2, 91441, Note_on_c, 4, 64, 127
2, 91519, Note_off_c, 10, 81, 127
2, 91590, Note_off_c, 4, 64, 127
2, 91597, Note_on_c, 2, 62, 127
2, 91597, Note_on_c, 11, 82, 127
2, 91746, Note_off_c, 2, 62, 127
2, 91753, Note_on_c, 1, 61, 127
2, 91902, Note_off_c, 1, 61, 127
2, 91903, Note_off_c, 11, 82, 127
2, 91910, Note_on_c, 2, 62, 127
2, 91910, Note_on_c, 10, 81, 127
2, 92059, Note_off_c, 2, 62, 127
2, 92066, Note_on_c, 5, 65, 127
2, 92144, Note_off_c, 10, 81, 127
2, 92215, Note_off_c, 5, 65, 127
2, 92222, Note_on_c, 4, 64, 127
2, 92222, Note_on_c, 7, 79, 127
2, 92371, Note_off_c, 4, 64, 127
2, 92378, Note_on_c, 2, 62, 127
2, 92456, Note_off_c, 7, 79, 127
2, 92527, Note_off_c, 2, 62, 127
2, 92528, Note_off_c, 10, 57, 127
2, 92535, Note_on_c, 10, 57, 127
2, 92535, Note_on_c, 1, 61, 127
2, 92535, Note_on_c, 10, 81, 127
2, 92841, Note_off_c, 10, 81, 127
2, 92842, Note_off_c, 1, 61, 127
2, 92847, Note_on_c, 1, 73, 127
2, 92996, Note_off_c, 1, 73, 127
2, 93003, Note_on_c, 2, 74, 127
2, 93152, Note_off_c, 2, 74, 127
2, 93159, Note_on_c, 10, 69, 127
2, 93159, Note_on_c, 4, 76, 127
2, 93308, Note_off_c, 4, 76, 127
2, 93316, Note_on_c, 5, 77, 127
2, 93393, Note_off_c, 10, 69, 127
2, 93465, Note_off_c, 5, 77, 127
2, 93472, Note_on_c, 11, 70, 127
2, 93472, Note_on_c, 7, 79, 127
2, 93778, Note_off_c, 7, 79, 127
2, 93778, Note_off_c, 11, 70, 127
2, 93784, Note_on_c, 10, 69, 127
2, 93784, Note_on_c, 10, 81, 127
2, 93933, Note_off_c, 10, 81, 127
2, 93940, Note_on_c, 7, 79, 127
2, 94018, Note_off_c, 10, 69, 127
2, 94089, Note_off_c, 7, 79, 127
2, 94097, Note_on_c, 7, 67, 127
2, 94097, Note_on_c, 5, 77, 127
2, 94246, Note_off_c, 5, 77, 127
2, 94253, Note_on_c, 4, 76, 127
2, 94331, Note_off_c, 7, 67, 127
2, 94402, Note_off_c, 4, 76, 127
2, 94409, Note_on_c, 10, 69, 127
2, 94409, Note_on_c, 5, 77, 127
2, 94558, Note_off_c, 5, 77, 127
2, 94565, Note_on_c, 10, 81, 127
2, 94714, Note_off_c, 10, 81, 127
2, 94715, Note_off_c, 10, 69, 127
2, 94721, Note_on_c, 1, 61, 127
2, 94721, Note_on_c, 7, 79, 127
2, 94870, Note_off_c, 7, 79, 127
2, 94870, Note_off_c, 1, 61, 127
2, 94878, Note_on_c, 2, 62, 127
2, 94878, Note_on_c, 5, 77, 127
2, 95027, Note_off_c, 5, 77, 127
2, 95027, Note_off_c, 2, 62, 127
2, 95028, Note_off_c, 10, 57, 127
2, 95034, Note_on_c, 10, 57, 127
2, 95034, Note_on_c, 4, 64, 127
2, 95034, Note_on_c, 4, 76, 127
2, 95183, Note_off_c, 4, 76, 127
2, 95183, Note_off_c, 4, 64, 127
2, 95190, Note_on_c, 5, 65, 127
2, 95190, Note_on_c, 2, 74, 127
2, 95300, Note_off_c, 10, 57, 127
2, 95339, Note_off_c, 2, 74, 127
2, 95339, Note_off_c, 5, 65, 127
2, 95346, Note_on_c, 11, 58, 127
2, 95346, Note_on_c, 7, 67, 127
2, 95346, Note_on_c, 2, 74, 127
2, 95495, Note_off_c, 2, 74, 127
2, 95503, Note_on_c, 1, 73, 127
2, 95574, Note_off_c, 1, 73, 127
2, 95580, Note_on_c, 2, 74, 127
2, 95650, Note_off_c, 7, 67, 127
2, 95650, Note_off_c, 11, 58, 127
2, 95651, Note_off_c, 2, 74, 127
2, 95657, Note_on_c, 10, 57, 127
2, 95657, Note_on_c, 10, 69, 127
2, 95657, Note_on_c, 1, 73, 127
2, 95806, Note_off_c, 10, 69, 127
2, 95814, Note_on_c, 7, 67, 127
2, 95923, Note_off_c, 10, 57, 127
2, 95963, Note_off_c, 7, 67, 127
2, 95970, Note_on_c, 7, 55, 127
2, 95970, Note_on_c, 5, 65, 127
2, 96119, Note_off_c, 5, 65, 127
2, 96126, Note_on_c, 4, 64, 127
2, 96236, Note_off_c, 7, 55, 127
2, 96275, Note_off_c, 4, 64, 127
2, 96282, Note_on_c, 10, 57, 127
2, 96282, Note_on_c, 5, 65, 127
2, 96379, Note_off_c, 1, 73, 127
2, 96386, Note_on_c, 2, 74, 127
2, 96483, Note_off_c, 2, 74, 127
2, 96491, Note_on_c, 0, 72, 127
2, 96588, Note_off_c, 0, 72, 127
2, 96588, Note_off_c, 10, 57, 127
2, 96595, Note_on_c, 1, 49, 127
2, 96595, Note_on_c, 11, 70, 127
2, 96744, Note_off_c, 11, 70, 127
2, 96744, Note_off_c, 1, 49, 127
2, 96751, Note_on_c, 2, 50, 127
2, 96751, Note_on_c, 10, 69, 127
2, 96899, Note_off_c, 5, 65, 127
2, 96900, Note_off_c, 10, 69, 127
2, 96900, Note_off_c, 2, 50, 127
2, 96907, Note_on_c, 4, 52, 127
2, 96907, Note_on_c, 7, 67, 127
2, 97056, Note_off_c, 7, 67, 127
2, 97056, Note_off_c, 4, 52, 127
2, 97063, Note_on_c, 5, 53, 127
2, 97063, Note_on_c, 5, 65, 127
2, 97212, Note_off_c, 5, 65, 127
2, 97212, Note_off_c, 5, 53, 127
2, 97220, Note_on_c, 7, 55, 127
2, 97220, Note_on_c, 1, 61, 127
2, 97220, Note_on_c, 11, 70, 127
2, 97526, Note_off_c, 11, 70, 127
2, 97526, Note_off_c, 7, 55, 127
2, 97532, Note_on_c, 10, 57, 127
2, 97532, Note_on_c, 10, 69, 127
2, 97681, Note_off_c, 10, 57, 127
2, 97688, Note_on_c, 7, 55, 127
2, 97766, Note_off_c, 10, 69, 127
2, 97837, Note_off_c, 7, 55, 127
2, 97844, Note_on_c, 5, 53, 127
2, 97844, Note_on_c, 7, 67, 127
2, 97993, Note_off_c, 5, 53, 127
2, 98001, Note_on_c, 4, 52, 127
2, 98078, Note_off_c, 7, 67, 127
2, 98150, Note_off_c, 4, 52, 127
2, 98157, Note_on_c, 5, 53, 127
2, 98157, Note_on_c, 10, 69, 127
2, 98307, Note_off_c, 1, 61, 127
2, 98313, Note_on_c, 10, 57, 127
2, 98462, Note_off_c, 10, 57, 127
2, 98469, Note_on_c, 12, 59, 127
2, 98618, Note_off_c, 12, 59, 127
2, 98619, Note_off_c, 5, 53, 127
2, 98625, Note_on_c, 7, 55, 127
2, 98625, Note_on_c, 1, 61, 127
2, 98774, Note_off_c, 1, 61, 127
2, 98774, Note_off_c, 7, 55, 127
2, 98782, Note_on_c, 5, 53, 127
2, 98782, Note_on_c, 2, 62, 127
2, 98931, Note_off_c, 2, 62, 127
2, 98931, Note_off_c, 5, 53, 127
2, 98938, Note_on_c, 4, 52, 127
2, 98938, Note_on_c, 4, 64, 127
2, 99087, Note_off_c, 4, 64, 127
2, 99087, Note_off_c, 4, 52, 127
2, 99094, Note_on_c, 2, 50, 127
2, 99094, Note_on_c, 5, 65, 127
2, 99243, Note_off_c, 5, 65, 127
2, 99243, Note_off_c, 2, 50, 127
2, 99244, Note_off_c, 10, 69, 127
2, 99250, Note_on_c, 7, 55, 127
2, 99250, Note_on_c, 4, 64, 127
2, 99250, Note_on_c, 11, 70, 127
2, 99399, Note_off_c, 11, 70, 127
2, 99399, Note_off_c, 4, 64, 127
2, 99399, Note_off_c, 7, 55, 127
2, 99407, Note_on_c, 10, 57, 127
2, 99407, Note_on_c, 1, 61, 127
2, 99407, Note_on_c, 5, 65, 127
2, 99504, Note_off_c, 5, 65, 127
2, 99511, Note_on_c, 4, 64, 127
2, 99608, Note_off_c, 4, 64, 127
2, 99615, Note_on_c, 5, 65, 127
2, 99712, Note_off_c, 5, 65, 127
2, 99713, Note_off_c, 10, 57, 127
2, 99719, Note_on_c, 10, 45, 127
2, 99719, Note_on_c, 4, 64, 127
2, 99868, Note_off_c, 4, 64, 127
2, 99875, Note_on_c, 2, 62, 127
2, 100024, Note_off_c, 2, 62, 127
2, 100024, Note_off_c, 1, 61, 127
2, 100025, Note_off_c, 10, 45, 127
2, 100031, Note_on_c, 2, 38, 127
2, 100031, Note_on_c, 2, 62, 127
2, 100196, Note_on_c, 4, 64, 127
2, 100345, Note_off_c, 4, 64, 127
2, 100352, Note_on_c, 6, 66, 127
2, 100493, Note_off_c, 2, 62, 127
2, 100501, Note_off_c, 6, 66, 127
2, 100508, Note_on_c, 7, 67, 127
2, 100649, Note_off_c, 2, 38, 127
2, 100657, Note_off_c, 7, 67, 127
2, 100664, Note_on_c, 2, 50, 127
2, 100664, Note_on_c, 10, 69, 127
2, 100813, Note_off_c, 10, 69, 127
2, 100820, Note_on_c, 11, 70, 127
2, 100930, Note_off_c, 2, 50, 127
2, 100969, Note_off_c, 11, 70, 127
2, 100977, Note_on_c, 3, 51, 127
2, 100977, Note_on_c, 0, 72, 127
2, 101126, Note_off_c, 0, 72, 127
2, 101133, Note_on_c, 11, 70, 127
2, 101282, Note_off_c, 11, 70, 127
2, 101283, Note_off_c, 3, 51, 127
2, 101289, Note_on_c, 2, 50, 127
2, 101289, Note_on_c, 0, 72, 127
2, 101438, Note_off_c, 0, 72, 127
2, 101445, Note_on_c, 2, 74, 127
2, 101555, Note_off_c, 2, 50, 127
2, 101594, Note_off_c, 2, 74, 127
2, 101601, Note_on_c, 0, 48, 127
2, 101601, Note_on_c, 3, 75, 127
2, 101750, Note_off_c, 3, 75, 127
2, 101758, Note_on_c, 2, 74, 127
2, 101867, Note_off_c, 0, 48, 127
2, 101907, Note_off_c, 2, 74, 127
2, 101914, Note_on_c, 2, 50, 127
2, 101914, Note_on_c, 7, 67, 127
2, 102006, Note_off_c, 7, 67, 127
2, 102013, Note_on_c, 6, 66, 127
2, 102105, Note_off_c, 6, 66, 127
2, 102112, Note_on_c, 4, 64, 127
2, 102217, Note_off_c, 4, 64, 127
2, 102220, Note_off_c, 2, 50, 127
2, 102226, Note_on_c, 6, 42, 127
2, 102226, Note_on_c, 2, 62, 127
2, 102375, Note_off_c, 2, 62, 127
2, 102375, Note_off_c, 6, 42, 127
2, 102382, Note_on_c, 7, 43, 127
2, 102382, Note_on_c, 4, 64, 127
2, 102531, Note_off_c, 4, 64, 127
2, 102531, Note_off_c, 7, 43, 127
2, 102539, Note_on_c, 10, 45, 127
2, 102539, Note_on_c, 2, 62, 127
2, 102539, Note_on_c, 6, 66, 127
2, 102688, Note_off_c, 6, 66, 127
2, 102688, Note_off_c, 10, 45, 127
2, 102695, Note_on_c, 11, 46, 127
2, 102695, Note_on_c, 7, 67, 127
2, 102773, Note_off_c, 2, 62, 127
2, 102844, Note_off_c, 7, 67, 127
2, 102844, Note_off_c, 11, 46, 127
2, 102851, Note_on_c, 0, 48, 127
2, 102851, Note_on_c, 3, 63, 127
2, 102851, Note_on_c, 10, 69, 127
2, 103000, Note_off_c, 0, 48, 127
2, 103007, Note_on_c, 11, 46, 127
2, 103156, Note_off_c, 11, 46, 127
2, 103157, Note_off_c, 3, 63, 127
2, 103164, Note_on_c, 2, 50, 127
2, 103164, Note_on_c, 2, 62, 127
2, 103313, Note_off_c, 2, 50, 127
2, 103320, Note_on_c, 0, 48, 127
2, 103398, Note_off_c, 2, 62, 127
2, 103469, Note_off_c, 0, 48, 127
2, 103476, Note_on_c, 11, 46, 127
2, 103476, Note_on_c, 0, 60, 127
2, 103625, Note_off_c, 11, 46, 127
2, 103632, Note_on_c, 10, 45, 127
2, 103735, Note_off_c, 0, 60, 127
2, 103781, Note_off_c, 10, 45, 127
2, 103788, Note_on_c, 11, 46, 127
2, 103788, Note_on_c, 2, 62, 127
2, 103938, Note_off_c, 10, 69, 127
2, 103945, Note_on_c, 7, 67, 127
2, 104094, Note_off_c, 7, 67, 127
2, 104094, Note_off_c, 2, 62, 127
2, 104101, Note_on_c, 6, 54, 127
2, 104101, Note_on_c, 10, 69, 127
2, 104250, Note_off_c, 10, 69, 127
2, 104250, Note_off_c, 6, 54, 127
2, 104257, Note_on_c, 7, 55, 127
2, 104257, Note_on_c, 11, 70, 127
2, 104405, Note_off_c, 11, 46, 127
2, 104406, Note_off_c, 11, 70, 127
2, 104406, Note_off_c, 7, 55, 127
2, 104413, Note_on_c, 10, 57, 127
2, 104413, Note_on_c, 0, 72, 127
2, 104562, Note_off_c, 0, 72, 127
2, 104562, Note_off_c, 10, 57, 127
2, 104569, Note_on_c, 11, 58, 127
2, 104569, Note_on_c, 2, 74, 127
2, 104718, Note_off_c, 2, 74, 127
2, 104718, Note_off_c, 11, 58, 127
2, 104726, Note_on_c, 6, 54, 127
2, 104726, Note_on_c, 0, 60, 127
2, 104726, Note_on_c, 3, 75, 127
2, 104875, Note_off_c, 0, 60, 127
2, 104882, Note_on_c, 11, 58, 127
2, 105031, Note_off_c, 11, 58, 127
2, 105032, Note_off_c, 3, 75, 127
2, 105033, Note_off_c, 6, 54, 127
2, 105038, Note_on_c, 2, 62, 127
2, 105038, Note_on_c, 2, 74, 127
2, 105187, Note_off_c, 2, 62, 127
2, 105194, Note_on_c, 0, 60, 127
2, 105272, Note_off_c, 2, 74, 127
2, 105343, Note_off_c, 0, 60, 127
2, 105350, Note_on_c, 11, 58, 127
2, 105350, Note_on_c, 0, 72, 127
2, 105499, Note_off_c, 11, 58, 127
2, 105507, Note_on_c, 10, 57, 127
2, 105584, Note_off_c, 0, 72, 127
2, 105656, Note_off_c, 10, 57, 127
2, 105663, Note_on_c, 7, 55, 127
2, 105663, Note_on_c, 11, 58, 127
2, 105663, Note_on_c, 2, 74, 127
2, 105812, Note_off_c, 11, 58, 127
2, 105819, Note_on_c, 2, 62, 127
2, 105968, Note_off_c, 2, 62, 127
2, 105969, Note_off_c, 2, 74, 127
2, 105970, Note_off_c, 7, 55, 127
2, 105975, Note_on_c, 0, 60, 127
2, 105975, Note_on_c, 6, 66, 127
2, 106124, Note_off_c, 6, 66, 127
2, 106124, Note_off_c, 0, 60, 127
2, 106132, Note_on_c, 11, 58, 127
2, 106132, Note_on_c, 7, 67, 127
2, 106281, Note_off_c, 7, 67, 127
2, 106281, Note_off_c, 11, 58, 127
2, 106288, Note_on_c, 10, 57, 127
2, 106288, Note_on_c, 10, 69, 127
2, 106437, Note_off_c, 10, 69, 127
2, 106437, Note_off_c, 10, 57, 127
2, 106444, Note_on_c, 7, 55, 127
2, 106444, Note_on_c, 11, 70, 127
2, 106593, Note_off_c, 11, 70, 127
2, 106593, Note_off_c, 7, 55, 127
2, 106600, Note_on_c, 3, 51, 127
2, 106600, Note_on_c, 6, 54, 127
2, 106600, Note_on_c, 0, 72, 127
2, 106749, Note_off_c, 0, 72, 127
2, 106756, Note_on_c, 11, 70, 127
2, 106905, Note_off_c, 11, 70, 127
2, 106913, Note_on_c, 2, 74, 127
2, 107062, Note_off_c, 2, 74, 127
2, 107069, Note_on_c, 0, 72, 127
2, 107217, Note_off_c, 6, 54, 127
2, 107217, Note_off_c, 3, 51, 127
2, 107218, Note_off_c, 0, 72, 127
2, 107225, Note_on_c, 11, 70, 127
2, 107374, Note_off_c, 11, 70, 127
2, 107381, Note_on_c, 10, 69, 127
2, 107530, Note_off_c, 10, 69, 127
2, 107537, Note_on_c, 2, 50, 127
2, 107537, Note_on_c, 7, 55, 127
2, 107537, Note_on_c, 11, 70, 127
2, 107686, Note_off_c, 11, 70, 127
2, 107686, Note_off_c, 7, 55, 127
2, 107694, Note_on_c, 10, 57, 127
2, 107694, Note_on_c, 6, 66, 127
2, 107843, Note_off_c, 6, 66, 127
2, 107843, Note_off_c, 10, 57, 127
2, 107850, Note_on_c, 11, 58, 127
2, 107850, Note_on_c, 7, 67, 127
2, 107991, Note_off_c, 2, 50, 127
2, 107999, Note_off_c, 7, 67, 127
2, 107999, Note_off_c, 11, 58, 127
2, 108006, Note_on_c, 0, 60, 127
2, 108006, Note_on_c, 10, 69, 127
2, 108155, Note_off_c, 10, 69, 127
2, 108155, Note_off_c, 0, 60, 127
2, 108162, Note_on_c, 2, 62, 127
2, 108162, Note_on_c, 11, 70, 127
2, 108311, Note_off_c, 11, 70, 127
2, 108311, Note_off_c, 2, 62, 127
2, 108318, Note_on_c, 10, 57, 127
2, 108318, Note_on_c, 0, 72, 127
2, 108467, Note_off_c, 0, 72, 127
2, 108467, Note_off_c, 10, 57, 127
2, 108475, Note_on_c, 11, 58, 127
2, 108475, Note_on_c, 2, 74, 127
2, 108624, Note_off_c, 2, 74, 127
2, 108631, Note_on_c, 0, 48, 127
2, 108631, Note_on_c, 7, 79, 127
2, 108780, Note_off_c, 7, 79, 127
2, 108780, Note_off_c, 0, 48, 127
2, 108781, Note_off_c, 11, 58, 127
2, 108787, Note_on_c, 2, 50, 127
2, 108787, Note_on_c, 7, 55, 127
2, 108787, Note_on_c, 0, 72, 127
2, 108936, Note_off_c, 0, 72, 127
2, 108943, Note_on_c, 11, 70, 127
2, 109092, Note_off_c, 11, 70, 127
2, 109093, Note_off_c, 7, 55, 127
2, 109093, Note_off_c, 2, 50, 127
2, 109100, Note_on_c, 2, 50, 127
2, 109100, Note_on_c, 6, 54, 127
2, 109100, Note_on_c, 10, 69, 127
2, 109249, Note_off_c, 10, 69, 127
2, 109256, Note_on_c, 7, 67, 127
2, 109405, Note_off_c, 7, 67, 127
2, 109406, Note_off_c, 6, 54, 127
2, 109406, Note_off_c, 2, 50, 127
2, 109412, Note_on_c, 7, 43, 127
2, 109412, Note_on_c, 7, 55, 127
2, 109412, Note_on_c, 7, 67, 127
2, 109561, Note_off_c, 7, 55, 127
2, 109568, Note_on_c, 2, 62, 127
2, 109717, Note_off_c, 2, 62, 127
2, 109718, Note_off_c, 7, 67, 127
2, 109718, Note_off_c, 7, 43, 127
2, 109724, Note_on_c, 10, 45, 127
2, 109724, Note_on_c, 7, 67, 127
2, 109724, Note_on_c, 11, 70, 127
2, 109873, Note_off_c, 7, 67, 127
2, 109881, Note_on_c, 5, 65, 127
2, 109994, Note_off_c, 10, 45, 127
2, 110032, Note_off_c, 5, 65, 127
2, 110038, Note_on_c, 11, 46, 127
2, 110038, Note_on_c, 4, 64, 127
2, 110187, Note_off_c, 4, 64, 127
2, 110194, Note_on_c, 2, 62, 127
2, 110308, Note_off_c, 11, 46, 127
2, 110345, Note_off_c, 2, 62, 127
2, 110352, Note_on_c, 0, 48, 127
2, 110352, Note_on_c, 4, 64, 127
2, 110501, Note_off_c, 11, 70, 127
2, 110508, Note_on_c, 7, 67, 127
2, 110657, Note_off_c, 7, 67, 127
2, 110664, Note_on_c, 2, 50, 127
2, 110664, Note_on_c, 0, 72, 127
2, 110672, Note_off_c, 0, 48, 127
2, 110813, Note_off_c, 0, 72, 127
2, 110820, Note_on_c, 11, 70, 127
2, 110934, Note_off_c, 2, 50, 127
2, 110971, Note_off_c, 11, 70, 127
2, 110978, Note_on_c, 4, 52, 127
2, 110978, Note_on_c, 10, 69, 127
2, 111127, Note_off_c, 10, 69, 127
2, 111134, Note_on_c, 7, 67, 127
2, 111248, Note_off_c, 4, 52, 127
2, 111285, Note_off_c, 7, 67, 127
2, 111289, Note_off_c, 4, 64, 127
2, 111293, Note_on_c, 5, 53, 127
2, 111293, Note_on_c, 10, 69, 127
2, 111449, Note_on_c, 0, 60, 127
2, 111598, Note_off_c, 0, 60, 127
2, 111605, Note_on_c, 7, 55, 127
2, 111605, Note_on_c, 5, 65, 127
2, 111613, Note_off_c, 5, 53, 127
2, 111754, Note_off_c, 5, 65, 127
2, 111761, Note_on_c, 3, 63, 127
2, 111875, Note_off_c, 7, 55, 127
2, 111912, Note_off_c, 3, 63, 127
2, 111919, Note_on_c, 10, 57, 127
2, 111919, Note_on_c, 2, 62, 127
2, 112068, Note_off_c, 2, 62, 127
2, 112075, Note_on_c, 0, 60, 127
2, 112189, Note_off_c, 10, 57, 127
2, 112226, Note_off_c, 0, 60, 127
2, 112233, Note_on_c, 11, 58, 127
2, 112233, Note_on_c, 2, 62, 127
2, 112382, Note_off_c, 10, 69, 127
2, 112389, Note_on_c, 5, 65, 127
2, 112538, Note_off_c, 5, 65, 127
2, 112545, Note_on_c, 11, 70, 127
2, 112694, Note_off_c, 11, 70, 127
2, 112701, Note_on_c, 10, 69, 127
2, 112850, Note_off_c, 10, 69, 127
2, 112857, Note_on_c, 7, 67, 127
2, 113006, Note_off_c, 7, 67, 127
2, 113014, Note_on_c, 5, 65, 127
2, 113163, Note_off_c, 5, 65, 127
2, 113163, Note_off_c, 2, 62, 127
2, 113170, Note_on_c, 0, 60, 127
2, 113170, Note_on_c, 4, 64, 127
2, 113320, Note_off_c, 11, 58, 127
2, 113326, Note_on_c, 7, 55, 127
2, 113475, Note_off_c, 7, 55, 127
2, 113476, Note_off_c, 4, 64, 127
2, 113476, Note_off_c, 0, 60, 127
2, 113482, Note_on_c, 0, 60, 127
2, 113482, Note_on_c, 2, 62, 127
2, 113482, Note_on_c, 5, 65, 127
2, 113631, Note_off_c, 0, 60, 127
2, 113639, Note_on_c, 11, 58, 127
2, 113716, Note_off_c, 5, 65, 127
2, 113716, Note_off_c, 2, 62, 127
2, 113788, Note_off_c, 11, 58, 127
2, 113795, Note_on_c, 10, 57, 127
2, 113795, Note_on_c, 4, 64, 127
2, 113795, Note_on_c, 7, 67, 127
2, 113944, Note_off_c, 10, 57, 127
2, 113951, Note_on_c, 7, 55, 127
2, 114029, Note_off_c, 7, 67, 127
2, 114029, Note_off_c, 4, 64, 127
2, 114100, Note_off_c, 7, 55, 127
2, 114107, Note_on_c, 5, 53, 127
2, 114107, Note_on_c, 5, 65, 127
2, 114107, Note_on_c, 10, 69, 127
2, 114256, Note_off_c, 5, 53, 127
2, 114263, Note_on_c, 0, 48, 127
2, 114412, Note_off_c, 0, 48, 127
2, 114413, Note_off_c, 10, 69, 127
2, 114413, Note_off_c, 5, 65, 127
2, 114420, Note_on_c, 5, 53, 127
2, 114420, Note_on_c, 7, 67, 127
2, 114420, Note_on_c, 11, 70, 127
2, 114569, Note_off_c, 5, 53, 127
2, 114576, Note_on_c, 3, 51, 127
2, 114654, Note_off_c, 11, 70, 127
2, 114654, Note_off_c, 7, 67, 127
2, 114725, Note_off_c, 3, 51, 127
2, 114732, Note_on_c, 2, 50, 127
2, 114732, Note_on_c, 10, 69, 127
2, 114732, Note_on_c, 0, 72, 127
2, 114881, Note_off_c, 2, 50, 127
2, 114888, Note_on_c, 0, 48, 127
2, 114966, Note_off_c, 0, 72, 127
2, 114966, Note_off_c, 10, 69, 127
2, 115037, Note_off_c, 0, 48, 127
2, 115044, Note_on_c, 11, 46, 127
2, 115044, Note_on_c, 11, 70, 127
2, 115044, Note_on_c, 2, 74, 127
2, 115193, Note_off_c, 11, 46, 127
2, 115201, Note_on_c, 0, 48, 127
2, 115350, Note_off_c, 0, 48, 127
2, 115350, Note_off_c, 2, 74, 127
2, 115357, Note_on_c, 11, 46, 127
2, 115357, Note_on_c, 4, 76, 127
2, 115506, Note_off_c, 11, 46, 127
2, 115513, Note_on_c, 10, 45, 127
2, 115591, Note_off_c, 4, 76, 127
2, 115662, Note_off_c, 10, 45, 127
2, 115669, Note_on_c, 7, 43, 127
2, 115669, Note_on_c, 5, 77, 127
2, 115818, Note_off_c, 7, 43, 127
2, 115825, Note_on_c, 5, 41, 127
2, 115903, Note_off_c, 5, 77, 127
2, 115974, Note_off_c, 5, 41, 127
2, 115982, Note_on_c, 4, 40, 127
2, 115982, Note_on_c, 7, 79, 127
2, 116131, Note_off_c, 11, 70, 127
2, 116138, Note_on_c, 7, 67, 127
2, 116287, Note_off_c, 7, 67, 127
2, 116294, Note_on_c, 0, 72, 127
2, 116443, Note_off_c, 0, 72, 127
2, 116450, Note_on_c, 11, 70, 127
2, 116599, Note_off_c, 11, 70, 127
2, 116606, Note_on_c, 11, 70, 127
2, 116665, Note_off_c, 4, 40, 127
2, 116703, Note_off_c, 11, 70, 127
2, 116711, Note_on_c, 10, 69, 127
2, 116808, Note_off_c, 10, 69, 127
2, 116815, Note_on_c, 7, 67, 127
2, 116912, Note_off_c, 7, 67, 127
2, 116919, Note_on_c, 5, 41, 127
2, 116919, Note_on_c, 10, 69, 127
2, 117069, Note_off_c, 7, 79, 127
2, 117075, Note_on_c, 0, 72, 127
2, 117224, Note_off_c, 0, 72, 127
2, 117225, Note_off_c, 5, 41, 127
2, 117231, Note_on_c, 7, 43, 127
2, 117231, Note_on_c, 5, 77, 127
2, 117380, Note_off_c, 5, 77, 127
2, 117388, Note_on_c, 3, 75, 127
2, 117523, Note_off_c, 7, 43, 127
2, 117539, Note_off_c, 3, 75, 127
2, 117545, Note_on_c, 10, 45, 127
2, 117545, Note_on_c, 2, 74, 127
2, 117694, Note_off_c, 2, 74, 127
2, 117701, Note_on_c, 0, 72, 127
2, 117837, Note_off_c, 10, 45, 127
2, 117852, Note_off_c, 0, 72, 127
2, 117859, Note_on_c, 11, 46, 127
2, 117859, Note_on_c, 2, 74, 127
2, 118008, Note_off_c, 2, 74, 127
2, 118015, Note_on_c, 0, 72, 127
2, 118164, Note_off_c, 0, 72, 127
2, 118164, Note_off_c, 10, 69, 127
2, 118171, Note_on_c, 2, 50, 127
2, 118171, Note_on_c, 3, 75, 127
2, 118320, Note_off_c, 3, 75, 127
2, 118327, Note_on_c, 2, 74, 127
2, 118437, Note_off_c, 2, 50, 127
2, 118476, Note_off_c, 2, 74, 127
2, 118484, Note_on_c, 7, 55, 127
2, 118484, Note_on_c, 0, 72, 127
2, 118633, Note_off_c, 0, 72, 127
2, 118640, Note_on_c, 11, 70, 127
2, 118789, Note_off_c, 11, 70, 127
2, 118789, Note_off_c, 11, 46, 127
2, 118796, Note_on_c, 10, 45, 127
2, 118796, Note_on_c, 0, 72, 127
2, 118946, Note_off_c, 7, 55, 127
2, 118952, Note_on_c, 5, 53, 127
2, 119101, Note_off_c, 5, 53, 127
2, 119102, Note_off_c, 0, 72, 127
2, 119108, Note_on_c, 11, 58, 127
2, 119108, Note_on_c, 4, 64, 127
2, 119257, Note_off_c, 4, 64, 127
2, 119257, Note_off_c, 11, 58, 127
2, 119265, Note_on_c, 10, 57, 127
2, 119265, Note_on_c, 5, 65, 127
2, 119414, Note_off_c, 5, 65, 127
2, 119414, Note_off_c, 10, 57, 127
2, 119421, Note_on_c, 7, 55, 127
2, 119421, Note_on_c, 7, 67, 127
2, 119570, Note_off_c, 7, 67, 127
2, 119570, Note_off_c, 7, 55, 127
2, 119577, Note_on_c, 5, 53, 127
2, 119577, Note_on_c, 10, 69, 127
2, 119726, Note_off_c, 10, 69, 127
2, 119726, Note_off_c, 5, 53, 127
2, 119726, Note_off_c, 10, 45, 127
2, 119733, Note_on_c, 7, 43, 127
2, 119733, Note_on_c, 7, 55, 127
2, 119733, Note_on_c, 11, 70, 127
2, 119882, Note_off_c, 11, 70, 127
2, 119889, Note_on_c, 10, 69, 127
2, 120038, Note_off_c, 10, 69, 127
2, 120039, Note_off_c, 7, 55, 127
2, 120046, Note_on_c, 11, 46, 127
2, 120046, Note_on_c, 0, 72, 127
2, 120195, Note_off_c, 0, 72, 127
2, 120195, Note_off_c, 11, 46, 127
2, 120202, Note_on_c, 0, 48, 127
2, 120202, Note_on_c, 11, 70, 127
2, 120351, Note_off_c, 11, 70, 127
2, 120351, Note_off_c, 0, 48, 127
2, 120358, Note_on_c, 2, 50, 127
2, 120358, Note_on_c, 10, 69, 127
2, 120507, Note_off_c, 10, 69, 127
2, 120507, Note_off_c, 2, 50, 127
2, 120514, Note_on_c, 4, 52, 127
2, 120514, Note_on_c, 7, 67, 127
2, 120663, Note_off_c, 7, 67, 127
2, 120663, Note_off_c, 4, 52, 127
2, 120663, Note_off_c, 7, 43, 127
2, 120670, Note_on_c, 5, 41, 127
2, 120670, Note_on_c, 5, 53, 127
2, 120670, Note_on_c, 10, 69, 127
2, 120826, Note_off_c, 10, 69, 127
2, 120833, Note_on_c, 7, 67, 127
2, 120988, Note_off_c, 5, 41, 127
2, 120989, Note_off_c, 7, 67, 127
2, 120996, Note_on_c, 7, 43, 127
2, 120996, Note_on_c, 11, 70, 127
2, 121152, Note_off_c, 11, 70, 127
2, 121158, Note_on_c, 10, 69, 127
2, 121299, Note_off_c, 7, 43, 127
2, 121314, Note_off_c, 10, 69, 127
2, 121321, Note_on_c, 10, 45, 127
2, 121321, Note_on_c, 0, 72, 127
2, 121477, Note_off_c, 0, 72, 127
2, 121483, Note_on_c, 11, 70, 127
2, 121624, Note_off_c, 10, 45, 127
2, 121639, Note_off_c, 11, 70, 127
2, 121646, Note_on_c, 11, 46, 127
2, 121646, Note_on_c, 2, 74, 127
2, 121802, Note_off_c, 2, 74, 127
2, 121808, Note_on_c, 0, 72, 127
2, 121964, Note_off_c, 0, 72, 127
2, 121964, Note_off_c, 11, 46, 127
2, 121971, Note_on_c, 0, 48, 127
2, 121971, Note_on_c, 4, 76, 127
2, 122127, Note_off_c, 4, 76, 127
2, 122134, Note_on_c, 2, 74, 127
2, 122274, Note_off_c, 0, 48, 127
2, 122289, Note_off_c, 5, 53, 127
2, 122290, Note_off_c, 2, 74, 127
2, 122296, Note_on_c, 2, 50, 127
2, 122296, Note_on_c, 11, 58, 127
2, 122296, Note_on_c, 5, 77, 127
2, 122452, Note_off_c, 5, 77, 127
2, 122459, Note_on_c, 4, 76, 127
2, 122599, Note_off_c, 2, 50, 127
2, 122615, Note_off_c, 4, 76, 127
2, 122621, Note_on_c, 4, 52, 127
2, 122621, Note_on_c, 7, 79, 127
2, 122777, Note_off_c, 7, 79, 127
2, 122784, Note_on_c, 10, 69, 127
2, 122939, Note_off_c, 4, 52, 127
2, 122939, Note_off_c, 11, 58, 127
2, 122940, Note_off_c, 10, 69, 127
2, 122946, Note_on_c, 0, 48, 127
2, 122946, Note_on_c, 4, 64, 127
2, 122946, Note_on_c, 11, 70, 127
2, 123102, Note_off_c, 11, 70, 127
2, 123109, Note_on_c, 7, 67, 127
2, 123249, Note_off_c, 0, 48, 127
2, 123264, Note_off_c, 4, 64, 127
2, 123271, Note_on_c, 5, 53, 127
2, 123271, Note_on_c, 5, 65, 127
2, 123352, Note_off_c, 7, 67, 127
2, 123360, Note_on_c, 7, 67, 127
2, 123441, Note_off_c, 7, 67, 127
2, 123449, Note_on_c, 10, 69, 127
2, 123602, Note_off_c, 5, 53, 127
2, 123627, Note_on_c, 11, 46, 127
2, 123796, Note_off_c, 10, 69, 127
2, 123805, Note_on_c, 11, 70, 127
2, 123974, Note_off_c, 11, 46, 127
2, 123974, Note_off_c, 5, 65, 127
2, 123975, Note_off_c, 11, 70, 127
2, 123983, Note_on_c, 0, 48, 127
2, 123983, Note_on_c, 4, 64, 127
2, 123983, Note_on_c, 10, 69, 127
2, 124080, Note_off_c, 10, 69, 127
2, 124089, Note_on_c, 7, 67, 127
2, 124186, Note_off_c, 7, 67, 127
2, 124196, Note_on_c, 10, 69, 127
2, 124293, Note_off_c, 10, 69, 127
2, 124303, Note_on_c, 7, 67, 127
2, 124400, Note_off_c, 0, 48, 127
2, 124409, Note_on_c, 0, 36, 127
2, 124615, Note_off_c, 7, 67, 127
2, 124624, Note_on_c, 5, 65, 127
2, 124827, Note_off_c, 4, 64, 127
2, 124829, Note_off_c, 5, 65, 127
2, 124829, Note_off_c, 0, 36, 127
2, 124839, Note_on_c, 5, 41, 127
2, 124839, Note_on_c, 5, 65, 127
2, 127405, Note_off_c, 5, 65, 127
2, 127405, Note_off_c, 5, 41, 127
2, 132096, End_track
3, 0, Start_track
3, 0, Title_t, "MIDI"
3, 1536, End_track
0, 0, End_of_file
