0, 0, Header, 1, 4, 240
1, 0, Start_track
1, 0, Title_t, "untitled"
1, 0, SMPTE_offset, 96, 0, 3, 0, 0
1, 0, Time_signature, 1, 4, 6, 8
1, 0, Key_signature, 0, "major"
1, 0, Tempo, 666667
1, 60, Time_signature, 4, 2, 24, 8
1, 60, Tempo, 652174
1, 11580, Time_signature, 1, 4, 6, 8
1, 11580, Tempo, 666667
1, 11640, Time_signature, 4, 2, 24, 8
1, 11640, Tempo, 652174
1, 23160, Time_signature, 1, 4, 6, 8
1, 23160, Tempo, 666667
1, 23220, Time_signature, 4, 2, 24, 8
1, 23220, Tempo, 652174
1, 34740, Time_signature, 1, 4, 6, 8
1, 34740, Tempo, 666667
1, 34800, Time_signature, 4, 2, 24, 8
1, 34800, Tempo, 652174
1, 34800, End_track
2, 0, Start_track
2, 0, MIDI_port, 0
2, 0, Title_t, "English Suite 2, 2. Allemande"
2, 0, Program_c, 0, 0
2, 0, Control_c, 0, 7, 100
2, 0, Control_c, 0, 10, 64
2, 0, Note_on_c, 0, 76, 107
2, 48, Note_on_c, 0, 76, 0
2, 60, Note_on_c, 0, 72, 107
2, 60, Note_on_c, 0, 76, 107
2, 120, Note_on_c, 0, 64, 107
2, 168, Note_on_c, 0, 64, 0
2, 180, Note_on_c, 0, 69, 107
2, 204, Note_on_c, 0, 76, 0
2, 228, Note_on_c, 0, 69, 0
2, 240, Note_on_c, 0, 76, 107
2, 240, Note_on_c, 0, 67, 107
2, 288, Note_on_c, 0, 67, 0
2, 288, Note_on_c, 0, 76, 0
2, 300, Note_on_c, 0, 65, 107
2, 300, Note_on_c, 0, 81, 107
2, 348, Note_on_c, 0, 81, 0
2, 360, Note_on_c, 0, 80, 107
2, 396, Note_on_c, 0, 65, 0
2, 408, Note_on_c, 0, 80, 0
2, 420, Note_on_c, 0, 81, 107
2, 420, Note_on_c, 0, 64, 107
2, 444, Note_on_c, 0, 72, 0
2, 468, Note_on_c, 0, 81, 0
2, 480, Note_on_c, 0, 83, 107
2, 516, Note_on_c, 0, 64, 0
2, 528, Note_on_c, 0, 83, 0
2, 540, Note_on_c, 0, 71, 107
2, 540, Note_on_c, 0, 65, 107
2, 540, Note_on_c, 0, 74, 107
2, 588, Note_on_c, 0, 74, 0
2, 600, Note_on_c, 0, 77, 107
2, 636, Note_on_c, 0, 65, 0
2, 636, Note_on_c, 0, 71, 0
2, 648, Note_on_c, 0, 77, 0
2, 660, Note_on_c, 0, 62, 107
2, 660, Note_on_c, 0, 76, 107
2, 708, Note_on_c, 0, 76, 0
2, 720, Note_on_c, 0, 77, 107
2, 756, Note_on_c, 0, 62, 0
2, 780, Note_on_c, 0, 68, 107
2, 780, Note_on_c, 0, 59, 107
2, 828, Note_on_c, 0, 77, 0
2, 840, Note_on_c, 0, 77, 107
2, 840, Note_on_c, 0, 77, 107
2, 876, Note_on_c, 0, 59, 0
2, 888, Note_on_c, 0, 77, 0
2, 888, Note_on_c, 0, 77, 0
2, 900, Note_on_c, 0, 68, 0
2, 900, Note_on_c, 0, 76, 107
2, 900, Note_on_c, 0, 68, 107
2, 948, Note_on_c, 0, 76, 0
2, 960, Note_on_c, 0, 74, 107
2, 996, Note_on_c, 0, 68, 0
2, 1008, Note_on_c, 0, 74, 0
2, 1020, Note_on_c, 0, 69, 107
2, 1020, Note_on_c, 0, 72, 107
2, 1068, Note_on_c, 0, 72, 0
2, 1080, Note_on_c, 0, 71, 107
2, 1116, Note_on_c, 0, 69, 0
2, 1128, Note_on_c, 0, 71, 0
2, 1140, Note_on_c, 0, 69, 107
2, 1188, Note_on_c, 0, 69, 0
2, 1200, Note_on_c, 0, 71, 107
2, 1248, Note_on_c, 0, 71, 0
2, 1260, Note_on_c, 0, 69, 107
2, 1308, Note_on_c, 0, 69, 0
2, 1320, Note_on_c, 0, 68, 107
2, 1368, Note_on_c, 0, 68, 0
2, 1380, Note_on_c, 0, 81, 107
2, 1380, Note_on_c, 0, 69, 107
2, 1428, Note_on_c, 0, 69, 0
2, 1440, Note_on_c, 0, 71, 107
2, 1488, Note_on_c, 0, 71, 0
2, 1500, Note_on_c, 0, 71, 107
2, 1500, Note_on_c, 0, 62, 107
2, 1548, Note_on_c, 0, 62, 0
2, 1548, Note_on_c, 0, 81, 0
2, 1560, Note_on_c, 0, 65, 107
2, 1560, Note_on_c, 0, 81, 107
2, 1608, Note_on_c, 0, 81, 0
2, 1608, Note_on_c, 0, 65, 0
2, 1620, Note_on_c, 0, 80, 107
2, 1620, Note_on_c, 0, 64, 107
2, 1668, Note_on_c, 0, 64, 0
2, 1668, Note_on_c, 0, 80, 0
2, 1680, Note_on_c, 0, 81, 107
2, 1680, Note_on_c, 0, 65, 107
2, 1728, Note_on_c, 0, 81, 0
2, 1740, Note_on_c, 0, 83, 107
2, 1788, Note_on_c, 0, 65, 0
2, 1800, Note_on_c, 0, 65, 107
2, 1848, Note_on_c, 0, 65, 0
2, 1860, Note_on_c, 0, 64, 107
2, 1908, Note_on_c, 0, 64, 0
2, 1920, Note_on_c, 0, 62, 107
2, 1968, Note_on_c, 0, 62, 0
2, 1980, Note_on_c, 0, 64, 107
2, 2076, Note_on_c, 0, 64, 0
2, 2076, Note_on_c, 0, 83, 0
2, 2100, Note_on_c, 0, 76, 107
2, 2196, Note_on_c, 0, 76, 0
2, 2220, Note_on_c, 0, 71, 0
2, 2220, Note_on_c, 0, 81, 107
2, 2364, Note_on_c, 0, 81, 0
2, 2400, Note_on_c, 0, 79, 107
2, 2448, Note_on_c, 0, 79, 0
2, 2460, Note_on_c, 0, 77, 107
2, 2508, Note_on_c, 0, 77, 0
2, 2520, Note_on_c, 0, 76, 107
2, 2568, Note_on_c, 0, 76, 0
2, 2580, Note_on_c, 0, 74, 107
2, 2628, Note_on_c, 0, 74, 0
2, 2640, Note_on_c, 0, 76, 107
2, 2688, Note_on_c, 0, 76, 0
2, 2700, Note_on_c, 0, 77, 107
2, 2748, Note_on_c, 0, 77, 0
2, 2760, Note_on_c, 0, 79, 107
2, 2808, Note_on_c, 0, 79, 0
2, 2820, Note_on_c, 0, 81, 107
2, 2868, Note_on_c, 0, 81, 0
2, 2880, Note_on_c, 0, 77, 107
2, 2928, Note_on_c, 0, 77, 0
2, 2940, Note_on_c, 0, 79, 107
2, 3036, Note_on_c, 0, 79, 0
2, 3060, Note_on_c, 0, 74, 107
2, 3156, Note_on_c, 0, 74, 0
2, 3180, Note_on_c, 0, 79, 107
2, 3324, Note_on_c, 0, 79, 0
2, 3360, Note_on_c, 0, 77, 107
2, 3408, Note_on_c, 0, 77, 0
2, 3420, Note_on_c, 0, 76, 107
2, 3480, Note_on_c, 0, 74, 107
2, 3528, Note_on_c, 0, 74, 0
2, 3540, Note_on_c, 0, 72, 107
2, 3588, Note_on_c, 0, 72, 0
2, 3600, Note_on_c, 0, 71, 107
2, 3648, Note_on_c, 0, 71, 0
2, 3660, Note_on_c, 0, 69, 107
2, 3708, Note_on_c, 0, 69, 0
2, 3720, Note_on_c, 0, 72, 107
2, 3768, Note_on_c, 0, 72, 0
2, 3780, Note_on_c, 0, 71, 107
2, 3828, Note_on_c, 0, 71, 0
2, 3840, Note_on_c, 0, 72, 107
2, 3870, Note_on_c, 0, 76, 0
2, 3888, Note_on_c, 0, 72, 0
2, 3900, Note_on_c, 0, 66, 107
2, 3900, Note_on_c, 0, 74, 107
2, 4044, Note_on_c, 0, 66, 0
2, 4080, Note_on_c, 0, 69, 107
2, 4128, Note_on_c, 0, 69, 0
2, 4140, Note_on_c, 0, 68, 107
2, 4188, Note_on_c, 0, 68, 0
2, 4200, Note_on_c, 0, 69, 107
2, 4248, Note_on_c, 0, 69, 0
2, 4260, Note_on_c, 0, 69, 107
2, 4272, Note_on_c, 0, 69, 0
2, 4275, Note_on_c, 0, 71, 107
2, 4287, Note_on_c, 0, 71, 0
2, 4290, Note_on_c, 0, 69, 107
2, 4314, Note_on_c, 0, 69, 0
2, 4320, Note_on_c, 0, 68, 107
2, 4344, Note_on_c, 0, 68, 0
2, 4350, Note_on_c, 0, 69, 107
2, 4374, Note_on_c, 0, 69, 0
2, 4380, Note_on_c, 0, 71, 107
2, 4908, Note_on_c, 0, 74, 0
2, 4920, Note_on_c, 0, 77, 107
2, 4956, Note_on_c, 0, 71, 0
2, 4968, Note_on_c, 0, 77, 0
2, 4980, Note_on_c, 0, 76, 107
2, 5028, Note_on_c, 0, 76, 0
2, 5040, Note_on_c, 0, 74, 107
2, 5088, Note_on_c, 0, 74, 0
2, 5100, Note_on_c, 0, 69, 107
2, 5100, Note_on_c, 0, 72, 107
2, 5124, Note_on_c, 0, 72, 0
2, 5130, Note_on_c, 0, 74, 107
2, 5154, Note_on_c, 0, 74, 0
2, 5160, Note_on_c, 0, 72, 107
2, 5256, Note_on_c, 0, 72, 0
2, 5280, Note_on_c, 0, 71, 107
2, 5292, Note_on_c, 0, 69, 0
2, 5328, Note_on_c, 0, 71, 0
2, 5340, Note_on_c, 0, 71, 107
2, 5388, Note_on_c, 0, 71, 0
2, 5400, Note_on_c, 0, 67, 107
2, 5400, Note_on_c, 0, 67, 107
2, 5448, Note_on_c, 0, 67, 0
2, 5460, Note_on_c, 0, 71, 107
2, 5460, Note_on_c, 0, 71, 107
2, 5508, Note_on_c, 0, 71, 0
2, 5520, Note_on_c, 0, 76, 107
2, 5544, Note_on_c, 0, 67, 0
2, 5580, Note_on_c, 0, 79, 107
2, 5724, Note_on_c, 0, 79, 0
2, 5724, Note_on_c, 0, 76, 0
2, 5724, Note_on_c, 0, 71, 0
2, 5760, Note_on_c, 0, 71, 107
2, 5760, Note_on_c, 0, 79, 107
2, 5760, Note_on_c, 0, 76, 107
2, 5808, Note_on_c, 0, 76, 0
2, 5808, Note_on_c, 0, 79, 0
2, 5820, Note_on_c, 0, 72, 107
2, 5820, Note_on_c, 0, 79, 107
2, 5964, Note_on_c, 0, 79, 0
2, 6000, Note_on_c, 0, 81, 107
2, 6012, Note_on_c, 0, 71, 0
2, 6048, Note_on_c, 0, 81, 0
2, 6060, Note_on_c, 0, 69, 107
2, 6060, Note_on_c, 0, 78, 107
2, 6204, Note_on_c, 0, 78, 0
2, 6240, Note_on_c, 0, 78, 107
2, 6252, Note_on_c, 0, 72, 0
2, 6288, Note_on_c, 0, 78, 0
2, 6300, Note_on_c, 0, 78, 107
2, 6300, Note_on_c, 0, 71, 107
2, 6348, Note_on_c, 0, 78, 0
2, 6360, Note_on_c, 0, 81, 107
2, 6408, Note_on_c, 0, 81, 0
2, 6420, Note_on_c, 0, 79, 107
2, 6468, Note_on_c, 0, 79, 0
2, 6480, Note_on_c, 0, 78, 107
2, 6492, Note_on_c, 0, 69, 0
2, 6528, Note_on_c, 0, 78, 0
2, 6540, Note_on_c, 0, 67, 107
2, 6540, Note_on_c, 0, 76, 107
2, 6588, Note_on_c, 0, 76, 0
2, 6588, Note_on_c, 0, 67, 0
2, 6588, Note_on_c, 0, 71, 0
2, 6600, Note_on_c, 0, 75, 107
2, 6648, Note_on_c, 0, 75, 0
2, 6660, Note_on_c, 0, 76, 107
2, 6708, Note_on_c, 0, 76, 0
2, 6720, Note_on_c, 0, 78, 107
2, 6768, Note_on_c, 0, 78, 0
2, 6780, Note_on_c, 0, 69, 107
2, 6828, Note_on_c, 0, 69, 0
2, 6840, Note_on_c, 0, 72, 107
2, 6888, Note_on_c, 0, 72, 0
2, 6900, Note_on_c, 0, 71, 107
2, 6948, Note_on_c, 0, 71, 0
2, 6960, Note_on_c, 0, 72, 107
2, 7008, Note_on_c, 0, 72, 0
2, 7020, Note_on_c, 0, 63, 107
2, 7068, Note_on_c, 0, 63, 0
2, 7080, Note_on_c, 0, 72, 107
2, 7128, Note_on_c, 0, 72, 0
2, 7140, Note_on_c, 0, 71, 107
2, 7188, Note_on_c, 0, 71, 0
2, 7200, Note_on_c, 0, 69, 107
2, 7248, Note_on_c, 0, 69, 0
2, 7260, Note_on_c, 0, 67, 107
2, 7308, Note_on_c, 0, 67, 0
2, 7320, Note_on_c, 0, 66, 107
2, 7368, Note_on_c, 0, 66, 0
2, 7380, Note_on_c, 0, 64, 107
2, 7428, Note_on_c, 0, 64, 0
2, 7440, Note_on_c, 0, 66, 107
2, 7488, Note_on_c, 0, 66, 0
2, 7500, Note_on_c, 0, 67, 107
2, 7548, Note_on_c, 0, 67, 0
2, 7560, Note_on_c, 0, 69, 107
2, 7608, Note_on_c, 0, 69, 0
2, 7620, Note_on_c, 0, 71, 107
2, 7668, Note_on_c, 0, 71, 0
2, 7680, Note_on_c, 0, 67, 107
2, 7728, Note_on_c, 0, 67, 0
2, 7740, Note_on_c, 0, 72, 107
2, 7764, Note_on_c, 0, 72, 0
2, 7770, Note_on_c, 0, 71, 107
2, 7794, Note_on_c, 0, 71, 0
2, 7800, Note_on_c, 0, 72, 107
2, 7913, Note_on_c, 0, 72, 0
2, 7920, Note_on_c, 0, 71, 107
2, 7968, Note_on_c, 0, 71, 0
2, 7980, Note_on_c, 0, 69, 107
2, 8268, Note_on_c, 0, 69, 0
2, 8280, Note_on_c, 0, 69, 107
2, 8328, Note_on_c, 0, 69, 0
2, 8340, Note_on_c, 0, 67, 107
2, 8388, Note_on_c, 0, 67, 0
2, 8400, Note_on_c, 0, 66, 107
2, 8448, Note_on_c, 0, 66, 0
2, 8460, Note_on_c, 0, 67, 107
2, 8508, Note_on_c, 0, 67, 0
2, 8520, Note_on_c, 0, 64, 107
2, 8568, Note_on_c, 0, 64, 0
2, 8580, Note_on_c, 0, 66, 107
2, 8628, Note_on_c, 0, 66, 0
2, 8640, Note_on_c, 0, 67, 107
2, 8688, Note_on_c, 0, 67, 0
2, 8700, Note_on_c, 0, 61, 107
2, 8748, Note_on_c, 0, 61, 0
2, 8760, Note_on_c, 0, 64, 107
2, 8808, Note_on_c, 0, 64, 0
2, 8820, Note_on_c, 0, 62, 107
2, 8868, Note_on_c, 0, 62, 0
2, 8880, Note_on_c, 0, 64, 107
2, 8928, Note_on_c, 0, 64, 0
2, 8940, Note_on_c, 0, 58, 107
2, 8988, Note_on_c, 0, 58, 0
2, 9000, Note_on_c, 0, 67, 107
2, 9048, Note_on_c, 0, 67, 0
2, 9060, Note_on_c, 0, 66, 107
2, 9108, Note_on_c, 0, 66, 0
2, 9120, Note_on_c, 0, 64, 107
2, 9168, Note_on_c, 0, 64, 0
2, 9180, Note_on_c, 0, 63, 107
2, 9228, Note_on_c, 0, 63, 0
2, 9240, Note_on_c, 0, 60, 107
2, 9288, Note_on_c, 0, 60, 0
2, 9300, Note_on_c, 0, 59, 107
2, 9413, Note_on_c, 0, 59, 0
2, 9420, Note_on_c, 0, 71, 107
2, 9444, Note_on_c, 0, 71, 0
2, 9450, Note_on_c, 0, 69, 107
2, 9474, Note_on_c, 0, 69, 0
2, 9480, Note_on_c, 0, 71, 107
2, 9576, Note_on_c, 0, 71, 0
2, 9600, Note_on_c, 0, 71, 107
2, 9648, Note_on_c, 0, 71, 0
2, 9660, Note_on_c, 0, 76, 107
2, 9708, Note_on_c, 0, 76, 0
2, 9720, Note_on_c, 0, 72, 107
2, 9768, Note_on_c, 0, 72, 0
2, 9780, Note_on_c, 0, 71, 107
2, 9828, Note_on_c, 0, 71, 0
2, 9840, Note_on_c, 0, 69, 107
2, 9888, Note_on_c, 0, 69, 0
2, 9900, Note_on_c, 0, 78, 107
2, 9924, Note_on_c, 0, 78, 0
2, 9930, Note_on_c, 0, 76, 107
2, 9954, Note_on_c, 0, 76, 0
2, 9960, Note_on_c, 0, 78, 107
2, 10056, Note_on_c, 0, 78, 0
2, 10080, Note_on_c, 0, 78, 107
2, 10128, Note_on_c, 0, 78, 0
2, 10140, Note_on_c, 0, 78, 107
2, 10188, Note_on_c, 0, 78, 0
2, 10200, Note_on_c, 0, 79, 107
2, 10224, Note_on_c, 0, 79, 0
2, 10230, Note_on_c, 0, 81, 107
2, 10254, Note_on_c, 0, 81, 0
2, 10260, Note_on_c, 0, 79, 107
2, 10308, Note_on_c, 0, 79, 0
2, 10320, Note_on_c, 0, 78, 107
2, 10368, Note_on_c, 0, 78, 0
2, 10380, Note_on_c, 0, 78, 107
2, 10380, Note_on_c, 0, 75, 107
2, 10404, Note_on_c, 0, 78, 0
2, 10410, Note_on_c, 0, 79, 107
2, 10434, Note_on_c, 0, 79, 0
2, 10440, Note_on_c, 0, 78, 107
2, 10536, Note_on_c, 0, 78, 0
2, 10560, Note_on_c, 0, 76, 107
2, 10572, Note_on_c, 0, 75, 0
2, 10608, Note_on_c, 0, 76, 0
2, 10620, Note_on_c, 0, 76, 107
2, 10680, Note_on_c, 0, 74, 107
2, 10728, Note_on_c, 0, 74, 0
2, 10740, Note_on_c, 0, 72, 107
2, 10788, Note_on_c, 0, 72, 0
2, 10800, Note_on_c, 0, 71, 107
2, 10848, Note_on_c, 0, 71, 0
2, 10860, Note_on_c, 0, 72, 107
2, 10908, Note_on_c, 0, 72, 0
2, 10920, Note_on_c, 0, 68, 107
2, 10920, Note_on_c, 0, 68, 107
2, 10968, Note_on_c, 0, 68, 0
2, 10968, Note_on_c, 0, 68, 0
2, 10980, Note_on_c, 0, 69, 107
2, 10980, Note_on_c, 0, 69, 107
2, 11028, Note_on_c, 0, 69, 0
2, 11040, Note_on_c, 0, 72, 107
2, 11076, Note_on_c, 0, 69, 0
2, 11088, Note_on_c, 0, 72, 0
2, 11100, Note_on_c, 0, 71, 107
2, 11100, Note_on_c, 0, 64, 107
2, 11100, Note_on_c, 0, 68, 107
2, 11292, Note_on_c, 0, 76, 0
2, 11388, Note_on_c, 0, 71, 0
2, 11388, Note_on_c, 0, 64, 0
2, 11388, Note_on_c, 0, 68, 0
2, 11580, Note_on_c, 0, 76, 107
2, 11628, Note_on_c, 0, 76, 0
2, 11640, Note_on_c, 0, 72, 107
2, 11640, Note_on_c, 0, 76, 107
2, 11700, Note_on_c, 0, 64, 107
2, 11748, Note_on_c, 0, 64, 0
2, 11760, Note_on_c, 0, 69, 107
2, 11784, Note_on_c, 0, 76, 0
2, 11808, Note_on_c, 0, 69, 0
2, 11820, Note_on_c, 0, 76, 107
2, 11820, Note_on_c, 0, 67, 107
2, 11868, Note_on_c, 0, 67, 0
2, 11868, Note_on_c, 0, 76, 0
2, 11880, Note_on_c, 0, 65, 107
2, 11880, Note_on_c, 0, 81, 107
2, 11928, Note_on_c, 0, 81, 0
2, 11940, Note_on_c, 0, 80, 107
2, 11976, Note_on_c, 0, 65, 0
2, 11988, Note_on_c, 0, 80, 0
2, 12000, Note_on_c, 0, 81, 107
2, 12000, Note_on_c, 0, 64, 107
2, 12024, Note_on_c, 0, 72, 0
2, 12048, Note_on_c, 0, 81, 0
2, 12060, Note_on_c, 0, 83, 107
2, 12096, Note_on_c, 0, 64, 0
2, 12108, Note_on_c, 0, 83, 0
2, 12120, Note_on_c, 0, 71, 107
2, 12120, Note_on_c, 0, 65, 107
2, 12120, Note_on_c, 0, 74, 107
2, 12168, Note_on_c, 0, 74, 0
2, 12180, Note_on_c, 0, 77, 107
2, 12216, Note_on_c, 0, 65, 0
2, 12216, Note_on_c, 0, 71, 0
2, 12228, Note_on_c, 0, 77, 0
2, 12240, Note_on_c, 0, 62, 107
2, 12240, Note_on_c, 0, 76, 107
2, 12288, Note_on_c, 0, 76, 0
2, 12300, Note_on_c, 0, 77, 107
2, 12336, Note_on_c, 0, 62, 0
2, 12360, Note_on_c, 0, 68, 107
2, 12360, Note_on_c, 0, 59, 107
2, 12408, Note_on_c, 0, 77, 0
2, 12420, Note_on_c, 0, 77, 107
2, 12420, Note_on_c, 0, 77, 107
2, 12456, Note_on_c, 0, 59, 0
2, 12468, Note_on_c, 0, 77, 0
2, 12468, Note_on_c, 0, 77, 0
2, 12480, Note_on_c, 0, 68, 0
2, 12480, Note_on_c, 0, 76, 107
2, 12480, Note_on_c, 0, 68, 107
2, 12528, Note_on_c, 0, 76, 0
2, 12540, Note_on_c, 0, 74, 107
2, 12576, Note_on_c, 0, 68, 0
2, 12588, Note_on_c, 0, 74, 0
2, 12600, Note_on_c, 0, 69, 107
2, 12600, Note_on_c, 0, 72, 107
2, 12648, Note_on_c, 0, 72, 0
2, 12660, Note_on_c, 0, 71, 107
2, 12696, Note_on_c, 0, 69, 0
2, 12708, Note_on_c, 0, 71, 0
2, 12720, Note_on_c, 0, 69, 107
2, 12768, Note_on_c, 0, 69, 0
2, 12780, Note_on_c, 0, 71, 107
2, 12828, Note_on_c, 0, 71, 0
2, 12840, Note_on_c, 0, 69, 107
2, 12888, Note_on_c, 0, 69, 0
2, 12900, Note_on_c, 0, 68, 107
2, 12948, Note_on_c, 0, 68, 0
2, 12960, Note_on_c, 0, 81, 107
2, 12960, Note_on_c, 0, 69, 107
2, 13008, Note_on_c, 0, 69, 0
2, 13020, Note_on_c, 0, 71, 107
2, 13068, Note_on_c, 0, 71, 0
2, 13080, Note_on_c, 0, 71, 107
2, 13080, Note_on_c, 0, 62, 107
2, 13128, Note_on_c, 0, 62, 0
2, 13128, Note_on_c, 0, 81, 0
2, 13140, Note_on_c, 0, 65, 107
2, 13140, Note_on_c, 0, 81, 107
2, 13188, Note_on_c, 0, 81, 0
2, 13188, Note_on_c, 0, 65, 0
2, 13200, Note_on_c, 0, 80, 107
2, 13200, Note_on_c, 0, 64, 107
2, 13248, Note_on_c, 0, 64, 0
2, 13248, Note_on_c, 0, 80, 0
2, 13260, Note_on_c, 0, 81, 107
2, 13260, Note_on_c, 0, 65, 107
2, 13308, Note_on_c, 0, 81, 0
2, 13320, Note_on_c, 0, 83, 107
2, 13368, Note_on_c, 0, 65, 0
2, 13380, Note_on_c, 0, 65, 107
2, 13428, Note_on_c, 0, 65, 0
2, 13440, Note_on_c, 0, 64, 107
2, 13488, Note_on_c, 0, 64, 0
2, 13500, Note_on_c, 0, 62, 107
2, 13548, Note_on_c, 0, 62, 0
2, 13560, Note_on_c, 0, 64, 107
2, 13656, Note_on_c, 0, 64, 0
2, 13656, Note_on_c, 0, 83, 0
2, 13680, Note_on_c, 0, 76, 107
2, 13776, Note_on_c, 0, 76, 0
2, 13800, Note_on_c, 0, 71, 0
2, 13800, Note_on_c, 0, 81, 107
2, 13944, Note_on_c, 0, 81, 0
2, 13980, Note_on_c, 0, 79, 107
2, 14028, Note_on_c, 0, 79, 0
2, 14040, Note_on_c, 0, 77, 107
2, 14088, Note_on_c, 0, 77, 0
2, 14100, Note_on_c, 0, 76, 107
2, 14148, Note_on_c, 0, 76, 0
2, 14160, Note_on_c, 0, 74, 107
2, 14208, Note_on_c, 0, 74, 0
2, 14220, Note_on_c, 0, 76, 107
2, 14268, Note_on_c, 0, 76, 0
2, 14280, Note_on_c, 0, 77, 107
2, 14328, Note_on_c, 0, 77, 0
2, 14340, Note_on_c, 0, 79, 107
2, 14388, Note_on_c, 0, 79, 0
2, 14400, Note_on_c, 0, 81, 107
2, 14448, Note_on_c, 0, 81, 0
2, 14460, Note_on_c, 0, 77, 107
2, 14508, Note_on_c, 0, 77, 0
2, 14520, Note_on_c, 0, 79, 107
2, 14616, Note_on_c, 0, 79, 0
2, 14640, Note_on_c, 0, 74, 107
2, 14736, Note_on_c, 0, 74, 0
2, 14760, Note_on_c, 0, 79, 107
2, 14904, Note_on_c, 0, 79, 0
2, 14940, Note_on_c, 0, 77, 107
2, 14988, Note_on_c, 0, 77, 0
2, 15000, Note_on_c, 0, 76, 107
2, 15060, Note_on_c, 0, 74, 107
2, 15108, Note_on_c, 0, 74, 0
2, 15120, Note_on_c, 0, 72, 107
2, 15168, Note_on_c, 0, 72, 0
2, 15180, Note_on_c, 0, 71, 107
2, 15228, Note_on_c, 0, 71, 0
2, 15240, Note_on_c, 0, 69, 107
2, 15288, Note_on_c, 0, 69, 0
2, 15300, Note_on_c, 0, 72, 107
2, 15348, Note_on_c, 0, 72, 0
2, 15360, Note_on_c, 0, 71, 107
2, 15408, Note_on_c, 0, 71, 0
2, 15420, Note_on_c, 0, 72, 107
2, 15450, Note_on_c, 0, 76, 0
2, 15468, Note_on_c, 0, 72, 0
2, 15480, Note_on_c, 0, 66, 107
2, 15480, Note_on_c, 0, 74, 107
2, 15624, Note_on_c, 0, 66, 0
2, 15660, Note_on_c, 0, 69, 107
2, 15708, Note_on_c, 0, 69, 0
2, 15720, Note_on_c, 0, 68, 107
2, 15768, Note_on_c, 0, 68, 0
2, 15780, Note_on_c, 0, 69, 107
2, 15828, Note_on_c, 0, 69, 0
2, 15840, Note_on_c, 0, 69, 107
2, 15852, Note_on_c, 0, 69, 0
2, 15855, Note_on_c, 0, 71, 107
2, 15867, Note_on_c, 0, 71, 0
2, 15870, Note_on_c, 0, 69, 107
2, 15894, Note_on_c, 0, 69, 0
2, 15900, Note_on_c, 0, 68, 107
2, 15924, Note_on_c, 0, 68, 0
2, 15930, Note_on_c, 0, 69, 107
2, 15954, Note_on_c, 0, 69, 0
2, 15960, Note_on_c, 0, 71, 107
2, 16488, Note_on_c, 0, 74, 0
2, 16500, Note_on_c, 0, 77, 107
2, 16536, Note_on_c, 0, 71, 0
2, 16548, Note_on_c, 0, 77, 0
2, 16560, Note_on_c, 0, 76, 107
2, 16608, Note_on_c, 0, 76, 0
2, 16620, Note_on_c, 0, 74, 107
2, 16668, Note_on_c, 0, 74, 0
2, 16680, Note_on_c, 0, 69, 107
2, 16680, Note_on_c, 0, 72, 107
2, 16704, Note_on_c, 0, 72, 0
2, 16710, Note_on_c, 0, 74, 107
2, 16734, Note_on_c, 0, 74, 0
2, 16740, Note_on_c, 0, 72, 107
2, 16836, Note_on_c, 0, 72, 0
2, 16860, Note_on_c, 0, 71, 107
2, 16872, Note_on_c, 0, 69, 0
2, 16908, Note_on_c, 0, 71, 0
2, 16920, Note_on_c, 0, 71, 107
2, 16968, Note_on_c, 0, 71, 0
2, 16980, Note_on_c, 0, 67, 107
2, 16980, Note_on_c, 0, 67, 107
2, 17028, Note_on_c, 0, 67, 0
2, 17040, Note_on_c, 0, 71, 107
2, 17040, Note_on_c, 0, 71, 107
2, 17088, Note_on_c, 0, 71, 0
2, 17100, Note_on_c, 0, 76, 107
2, 17124, Note_on_c, 0, 67, 0
2, 17160, Note_on_c, 0, 79, 107
2, 17304, Note_on_c, 0, 79, 0
2, 17304, Note_on_c, 0, 76, 0
2, 17304, Note_on_c, 0, 71, 0
2, 17340, Note_on_c, 0, 71, 107
2, 17340, Note_on_c, 0, 79, 107
2, 17340, Note_on_c, 0, 76, 107
2, 17388, Note_on_c, 0, 76, 0
2, 17388, Note_on_c, 0, 79, 0
2, 17400, Note_on_c, 0, 72, 107
2, 17400, Note_on_c, 0, 79, 107
2, 17544, Note_on_c, 0, 79, 0
2, 17580, Note_on_c, 0, 81, 107
2, 17592, Note_on_c, 0, 71, 0
2, 17628, Note_on_c, 0, 81, 0
2, 17640, Note_on_c, 0, 69, 107
2, 17640, Note_on_c, 0, 78, 107
2, 17784, Note_on_c, 0, 78, 0
2, 17820, Note_on_c, 0, 78, 107
2, 17832, Note_on_c, 0, 72, 0
2, 17868, Note_on_c, 0, 78, 0
2, 17880, Note_on_c, 0, 78, 107
2, 17880, Note_on_c, 0, 71, 107
2, 17928, Note_on_c, 0, 78, 0
2, 17940, Note_on_c, 0, 81, 107
2, 17988, Note_on_c, 0, 81, 0
2, 18000, Note_on_c, 0, 79, 107
2, 18048, Note_on_c, 0, 79, 0
2, 18060, Note_on_c, 0, 78, 107
2, 18072, Note_on_c, 0, 69, 0
2, 18108, Note_on_c, 0, 78, 0
2, 18120, Note_on_c, 0, 67, 107
2, 18120, Note_on_c, 0, 76, 107
2, 18168, Note_on_c, 0, 76, 0
2, 18168, Note_on_c, 0, 67, 0
2, 18168, Note_on_c, 0, 71, 0
2, 18180, Note_on_c, 0, 75, 107
2, 18228, Note_on_c, 0, 75, 0
2, 18240, Note_on_c, 0, 76, 107
2, 18288, Note_on_c, 0, 76, 0
2, 18300, Note_on_c, 0, 78, 107
2, 18348, Note_on_c, 0, 78, 0
2, 18360, Note_on_c, 0, 69, 107
2, 18408, Note_on_c, 0, 69, 0
2, 18420, Note_on_c, 0, 72, 107
2, 18468, Note_on_c, 0, 72, 0
2, 18480, Note_on_c, 0, 71, 107
2, 18528, Note_on_c, 0, 71, 0
2, 18540, Note_on_c, 0, 72, 107
2, 18588, Note_on_c, 0, 72, 0
2, 18600, Note_on_c, 0, 63, 107
2, 18648, Note_on_c, 0, 63, 0
2, 18660, Note_on_c, 0, 72, 107
2, 18708, Note_on_c, 0, 72, 0
2, 18720, Note_on_c, 0, 71, 107
2, 18768, Note_on_c, 0, 71, 0
2, 18780, Note_on_c, 0, 69, 107
2, 18828, Note_on_c, 0, 69, 0
2, 18840, Note_on_c, 0, 67, 107
2, 18888, Note_on_c, 0, 67, 0
2, 18900, Note_on_c, 0, 66, 107
2, 18948, Note_on_c, 0, 66, 0
2, 18960, Note_on_c, 0, 64, 107
2, 19008, Note_on_c, 0, 64, 0
2, 19020, Note_on_c, 0, 66, 107
2, 19068, Note_on_c, 0, 66, 0
2, 19080, Note_on_c, 0, 67, 107
2, 19128, Note_on_c, 0, 67, 0
2, 19140, Note_on_c, 0, 69, 107
2, 19188, Note_on_c, 0, 69, 0
2, 19200, Note_on_c, 0, 71, 107
2, 19248, Note_on_c, 0, 71, 0
2, 19260, Note_on_c, 0, 67, 107
2, 19308, Note_on_c, 0, 67, 0
2, 19320, Note_on_c, 0, 72, 107
2, 19344, Note_on_c, 0, 72, 0
2, 19350, Note_on_c, 0, 71, 107
2, 19374, Note_on_c, 0, 71, 0
2, 19380, Note_on_c, 0, 72, 107
2, 19493, Note_on_c, 0, 72, 0
2, 19500, Note_on_c, 0, 71, 107
2, 19548, Note_on_c, 0, 71, 0
2, 19560, Note_on_c, 0, 69, 107
2, 19848, Note_on_c, 0, 69, 0
2, 19860, Note_on_c, 0, 69, 107
2, 19908, Note_on_c, 0, 69, 0
2, 19920, Note_on_c, 0, 67, 107
2, 19968, Note_on_c, 0, 67, 0
2, 19980, Note_on_c, 0, 66, 107
2, 20028, Note_on_c, 0, 66, 0
2, 20040, Note_on_c, 0, 67, 107
2, 20088, Note_on_c, 0, 67, 0
2, 20100, Note_on_c, 0, 64, 107
2, 20148, Note_on_c, 0, 64, 0
2, 20160, Note_on_c, 0, 66, 107
2, 20208, Note_on_c, 0, 66, 0
2, 20220, Note_on_c, 0, 67, 107
2, 20268, Note_on_c, 0, 67, 0
2, 20280, Note_on_c, 0, 61, 107
2, 20328, Note_on_c, 0, 61, 0
2, 20340, Note_on_c, 0, 64, 107
2, 20388, Note_on_c, 0, 64, 0
2, 20400, Note_on_c, 0, 62, 107
2, 20448, Note_on_c, 0, 62, 0
2, 20460, Note_on_c, 0, 64, 107
2, 20508, Note_on_c, 0, 64, 0
2, 20520, Note_on_c, 0, 58, 107
2, 20568, Note_on_c, 0, 58, 0
2, 20580, Note_on_c, 0, 67, 107
2, 20628, Note_on_c, 0, 67, 0
2, 20640, Note_on_c, 0, 66, 107
2, 20688, Note_on_c, 0, 66, 0
2, 20700, Note_on_c, 0, 64, 107
2, 20748, Note_on_c, 0, 64, 0
2, 20760, Note_on_c, 0, 63, 107
2, 20808, Note_on_c, 0, 63, 0
2, 20820, Note_on_c, 0, 60, 107
2, 20868, Note_on_c, 0, 60, 0
2, 20880, Note_on_c, 0, 59, 107
2, 20993, Note_on_c, 0, 59, 0
2, 21000, Note_on_c, 0, 71, 107
2, 21024, Note_on_c, 0, 71, 0
2, 21030, Note_on_c, 0, 69, 107
2, 21054, Note_on_c, 0, 69, 0
2, 21060, Note_on_c, 0, 71, 107
2, 21156, Note_on_c, 0, 71, 0
2, 21180, Note_on_c, 0, 71, 107
2, 21228, Note_on_c, 0, 71, 0
2, 21240, Note_on_c, 0, 76, 107
2, 21288, Note_on_c, 0, 76, 0
2, 21300, Note_on_c, 0, 72, 107
2, 21348, Note_on_c, 0, 72, 0
2, 21360, Note_on_c, 0, 71, 107
2, 21408, Note_on_c, 0, 71, 0
2, 21420, Note_on_c, 0, 69, 107
2, 21468, Note_on_c, 0, 69, 0
2, 21480, Note_on_c, 0, 78, 107
2, 21504, Note_on_c, 0, 78, 0
2, 21510, Note_on_c, 0, 76, 107
2, 21534, Note_on_c, 0, 76, 0
2, 21540, Note_on_c, 0, 78, 107
2, 21636, Note_on_c, 0, 78, 0
2, 21660, Note_on_c, 0, 78, 107
2, 21708, Note_on_c, 0, 78, 0
2, 21720, Note_on_c, 0, 78, 107
2, 21768, Note_on_c, 0, 78, 0
2, 21780, Note_on_c, 0, 79, 107
2, 21804, Note_on_c, 0, 79, 0
2, 21810, Note_on_c, 0, 81, 107
2, 21834, Note_on_c, 0, 81, 0
2, 21840, Note_on_c, 0, 79, 107
2, 21888, Note_on_c, 0, 79, 0
2, 21900, Note_on_c, 0, 78, 107
2, 21948, Note_on_c, 0, 78, 0
2, 21960, Note_on_c, 0, 78, 107
2, 21960, Note_on_c, 0, 75, 107
2, 21984, Note_on_c, 0, 78, 0
2, 21990, Note_on_c, 0, 79, 107
2, 22014, Note_on_c, 0, 79, 0
2, 22020, Note_on_c, 0, 78, 107
2, 22116, Note_on_c, 0, 78, 0
2, 22140, Note_on_c, 0, 76, 107
2, 22152, Note_on_c, 0, 75, 0
2, 22188, Note_on_c, 0, 76, 0
2, 22200, Note_on_c, 0, 76, 107
2, 22260, Note_on_c, 0, 74, 107
2, 22308, Note_on_c, 0, 74, 0
2, 22320, Note_on_c, 0, 72, 107
2, 22368, Note_on_c, 0, 72, 0
2, 22380, Note_on_c, 0, 71, 107
2, 22428, Note_on_c, 0, 71, 0
2, 22440, Note_on_c, 0, 72, 107
2, 22488, Note_on_c, 0, 72, 0
2, 22500, Note_on_c, 0, 68, 107
2, 22500, Note_on_c, 0, 68, 107
2, 22548, Note_on_c, 0, 68, 0
2, 22548, Note_on_c, 0, 68, 0
2, 22560, Note_on_c, 0, 69, 107
2, 22560, Note_on_c, 0, 69, 107
2, 22608, Note_on_c, 0, 69, 0
2, 22620, Note_on_c, 0, 72, 107
2, 22656, Note_on_c, 0, 69, 0
2, 22668, Note_on_c, 0, 72, 0
2, 22680, Note_on_c, 0, 71, 107
2, 22680, Note_on_c, 0, 64, 107
2, 22680, Note_on_c, 0, 68, 107
2, 22872, Note_on_c, 0, 76, 0
2, 22968, Note_on_c, 0, 71, 0
2, 22968, Note_on_c, 0, 64, 0
2, 22968, Note_on_c, 0, 68, 0
2, 23160, Note_on_c, 0, 71, 107
2, 23208, Note_on_c, 0, 71, 0
2, 23220, Note_on_c, 0, 64, 107
2, 23220, Note_on_c, 0, 71, 107
2, 23220, Note_on_c, 0, 68, 107
2, 23364, Note_on_c, 0, 68, 0
2, 23364, Note_on_c, 0, 71, 0
2, 23364, Note_on_c, 0, 64, 0
2, 23400, Note_on_c, 0, 71, 107
2, 23448, Note_on_c, 0, 71, 0
2, 23460, Note_on_c, 0, 62, 107
2, 23508, Note_on_c, 0, 62, 0
2, 23520, Note_on_c, 0, 65, 107
2, 23568, Note_on_c, 0, 65, 0
2, 23580, Note_on_c, 0, 64, 107
2, 23628, Note_on_c, 0, 64, 0
2, 23640, Note_on_c, 0, 62, 107
2, 23688, Note_on_c, 0, 62, 0
2, 23700, Note_on_c, 0, 68, 107
2, 23748, Note_on_c, 0, 68, 0
2, 23760, Note_on_c, 0, 64, 107
2, 23808, Note_on_c, 0, 64, 0
2, 23820, Note_on_c, 0, 65, 107
2, 23868, Note_on_c, 0, 65, 0
2, 23880, Note_on_c, 0, 64, 107
2, 23928, Note_on_c, 0, 64, 0
2, 23940, Note_on_c, 0, 71, 107
2, 23988, Note_on_c, 0, 71, 0
2, 24000, Note_on_c, 0, 62, 107
2, 24048, Note_on_c, 0, 62, 0
2, 24060, Note_on_c, 0, 64, 107
2, 24108, Note_on_c, 0, 64, 0
2, 24120, Note_on_c, 0, 65, 107
2, 24168, Note_on_c, 0, 65, 0
2, 24180, Note_on_c, 0, 61, 107
2, 24228, Note_on_c, 0, 61, 0
2, 24240, Note_on_c, 0, 59, 107
2, 24288, Note_on_c, 0, 59, 0
2, 24300, Note_on_c, 0, 57, 107
2, 24348, Note_on_c, 0, 57, 0
2, 24360, Note_on_c, 0, 59, 107
2, 24408, Note_on_c, 0, 59, 0
2, 24420, Note_on_c, 0, 61, 107
2, 24468, Note_on_c, 0, 61, 0
2, 24480, Note_on_c, 0, 62, 107
2, 24528, Note_on_c, 0, 62, 0
2, 24540, Note_on_c, 0, 64, 107
2, 24588, Note_on_c, 0, 64, 0
2, 24600, Note_on_c, 0, 65, 107
2, 24648, Note_on_c, 0, 65, 0
2, 24660, Note_on_c, 0, 67, 107
2, 24708, Note_on_c, 0, 67, 0
2, 24720, Note_on_c, 0, 65, 107
2, 24768, Note_on_c, 0, 65, 0
2, 24780, Note_on_c, 0, 64, 107
2, 24828, Note_on_c, 0, 64, 0
2, 24840, Note_on_c, 0, 65, 107
2, 24888, Note_on_c, 0, 65, 0
2, 24900, Note_on_c, 0, 67, 107
2, 24948, Note_on_c, 0, 67, 0
2, 24960, Note_on_c, 0, 70, 107
2, 25008, Note_on_c, 0, 70, 0
2, 25020, Note_on_c, 0, 69, 107
2, 25068, Note_on_c, 0, 69, 0
2, 25080, Note_on_c, 0, 67, 107
2, 25128, Note_on_c, 0, 67, 0
2, 25140, Note_on_c, 0, 72, 107
2, 25200, Note_on_c, 0, 69, 107
2, 25248, Note_on_c, 0, 69, 0
2, 25260, Note_on_c, 0, 62, 107
2, 25284, Note_on_c, 0, 72, 0
2, 25320, Note_on_c, 0, 72, 107
2, 25356, Note_on_c, 0, 62, 0
2, 25368, Note_on_c, 0, 72, 0
2, 25380, Note_on_c, 0, 71, 107
2, 25428, Note_on_c, 0, 71, 0
2, 25440, Note_on_c, 0, 72, 107
2, 25488, Note_on_c, 0, 72, 0
2, 25500, Note_on_c, 0, 72, 107
2, 25512, Note_on_c, 0, 72, 0
2, 25515, Note_on_c, 0, 74, 107
2, 25527, Note_on_c, 0, 74, 0
2, 25530, Note_on_c, 0, 72, 107
2, 25554, Note_on_c, 0, 72, 0
2, 25560, Note_on_c, 0, 71, 107
2, 25584, Note_on_c, 0, 71, 0
2, 25590, Note_on_c, 0, 72, 107
2, 25614, Note_on_c, 0, 72, 0
2, 25620, Note_on_c, 0, 74, 107
2, 25620, Note_on_c, 0, 67, 107
2, 25764, Note_on_c, 0, 74, 0
2, 25800, Note_on_c, 0, 76, 107
2, 25848, Note_on_c, 0, 76, 0
2, 25860, Note_on_c, 0, 69, 107
2, 25908, Note_on_c, 0, 69, 0
2, 25920, Note_on_c, 0, 71, 107
2, 25968, Note_on_c, 0, 71, 0
2, 25980, Note_on_c, 0, 67, 0
2, 25980, Note_on_c, 0, 72, 107
2, 25980, Note_on_c, 0, 66, 107
2, 26028, Note_on_c, 0, 72, 0
2, 26040, Note_on_c, 0, 74, 107
2, 26088, Note_on_c, 0, 74, 0
2, 26100, Note_on_c, 0, 66, 0
2, 26100, Note_on_c, 0, 67, 107
2, 26100, Note_on_c, 0, 71, 107
2, 26244, Note_on_c, 0, 71, 0
2, 26244, Note_on_c, 0, 67, 0
2, 26280, Note_on_c, 0, 74, 107
2, 26328, Note_on_c, 0, 74, 0
2, 26340, Note_on_c, 0, 65, 107
2, 26388, Note_on_c, 0, 65, 0
2, 26400, Note_on_c, 0, 69, 107
2, 26448, Note_on_c, 0, 69, 0
2, 26460, Note_on_c, 0, 67, 107
2, 26508, Note_on_c, 0, 67, 0
2, 26520, Note_on_c, 0, 65, 107
2, 26568, Note_on_c, 0, 65, 0
2, 26580, Note_on_c, 0, 71, 107
2, 26628, Note_on_c, 0, 71, 0
2, 26640, Note_on_c, 0, 67, 107
2, 26688, Note_on_c, 0, 67, 0
2, 26700, Note_on_c, 0, 69, 107
2, 26748, Note_on_c, 0, 69, 0
2, 26760, Note_on_c, 0, 67, 107
2, 26808, Note_on_c, 0, 67, 0
2, 26820, Note_on_c, 0, 74, 107
2, 26868, Note_on_c, 0, 74, 0
2, 26880, Note_on_c, 0, 65, 107
2, 26928, Note_on_c, 0, 65, 0
2, 26940, Note_on_c, 0, 67, 107
2, 26988, Note_on_c, 0, 67, 0
2, 27000, Note_on_c, 0, 69, 107
2, 27048, Note_on_c, 0, 69, 0
2, 27060, Note_on_c, 0, 65, 105
2, 27060, Note_on_c, 0, 64, 107
2, 27090, Note_on_c, 0, 65, 0
2, 27204, Note_on_c, 0, 64, 0
2, 27240, Note_on_c, 0, 83, 107
2, 27288, Note_on_c, 0, 83, 0
2, 27300, Note_on_c, 0, 74, 107
2, 27348, Note_on_c, 0, 74, 0
2, 27360, Note_on_c, 0, 77, 107
2, 27408, Note_on_c, 0, 77, 0
2, 27420, Note_on_c, 0, 76, 107
2, 27468, Note_on_c, 0, 76, 0
2, 27480, Note_on_c, 0, 74, 107
2, 27528, Note_on_c, 0, 74, 0
2, 27540, Note_on_c, 0, 80, 107
2, 27588, Note_on_c, 0, 80, 0
2, 27600, Note_on_c, 0, 76, 107
2, 27648, Note_on_c, 0, 76, 0
2, 27660, Note_on_c, 0, 77, 107
2, 27708, Note_on_c, 0, 77, 0
2, 27720, Note_on_c, 0, 76, 107
2, 27768, Note_on_c, 0, 76, 0
2, 27780, Note_on_c, 0, 83, 107
2, 27828, Note_on_c, 0, 83, 0
2, 27840, Note_on_c, 0, 74, 107
2, 27888, Note_on_c, 0, 74, 0
2, 27900, Note_on_c, 0, 76, 107
2, 27948, Note_on_c, 0, 76, 0
2, 27960, Note_on_c, 0, 77, 107
2, 28008, Note_on_c, 0, 77, 0
2, 28020, Note_on_c, 0, 73, 107
2, 28068, Note_on_c, 0, 73, 0
2, 28080, Note_on_c, 0, 71, 107
2, 28128, Note_on_c, 0, 71, 0
2, 28140, Note_on_c, 0, 73, 107
2, 28188, Note_on_c, 0, 73, 0
2, 28200, Note_on_c, 0, 69, 107
2, 28248, Note_on_c, 0, 69, 0
2, 28260, Note_on_c, 0, 79, 107
2, 28404, Note_on_c, 0, 79, 0
2, 28440, Note_on_c, 0, 79, 107
2, 28440, Note_on_c, 0, 76, 110
2, 28488, Note_on_c, 0, 76, 0
2, 28488, Note_on_c, 0, 79, 0
2, 28500, Note_on_c, 0, 79, 107
2, 28500, Note_on_c, 0, 76, 110
2, 28548, Note_on_c, 0, 79, 0
2, 28560, Note_on_c, 0, 81, 107
2, 28596, Note_on_c, 0, 76, 0
2, 28608, Note_on_c, 0, 81, 0
2, 28620, Note_on_c, 0, 74, 110
2, 28620, Note_on_c, 0, 77, 107
2, 28668, Note_on_c, 0, 77, 0
2, 28680, Note_on_c, 0, 79, 107
2, 28716, Note_on_c, 0, 74, 0
2, 28728, Note_on_c, 0, 79, 0
2, 28740, Note_on_c, 0, 73, 110
2, 28740, Note_on_c, 0, 76, 107
2, 28764, Note_on_c, 0, 76, 0
2, 28770, Note_on_c, 0, 77, 107
2, 28794, Note_on_c, 0, 77, 0
2, 28800, Note_on_c, 0, 76, 107
2, 28896, Note_on_c, 0, 76, 0
2, 28920, Note_on_c, 0, 81, 107
2, 28932, Note_on_c, 0, 73, 0
2, 28968, Note_on_c, 0, 81, 0
2, 28980, Note_on_c, 0, 79, 107
2, 29028, Note_on_c, 0, 79, 0
2, 29040, Note_on_c, 0, 77, 107
2, 29088, Note_on_c, 0, 77, 0
2, 29100, Note_on_c, 0, 76, 107
2, 29148, Note_on_c, 0, 76, 0
2, 29160, Note_on_c, 0, 74, 107
2, 29208, Note_on_c, 0, 74, 0
2, 29220, Note_on_c, 0, 77, 107
2, 29244, Note_on_c, 0, 77, 0
2, 29250, Note_on_c, 0, 76, 107
2, 29274, Note_on_c, 0, 76, 0
2, 29280, Note_on_c, 0, 77, 107
2, 29376, Note_on_c, 0, 77, 0
2, 29400, Note_on_c, 0, 77, 107
2, 29448, Note_on_c, 0, 77, 0
2, 29460, Note_on_c, 0, 77, 107
2, 29508, Note_on_c, 0, 77, 0
2, 29520, Note_on_c, 0, 71, 107
2, 29568, Note_on_c, 0, 71, 0
2, 29580, Note_on_c, 0, 72, 107
2, 29628, Note_on_c, 0, 72, 0
2, 29640, Note_on_c, 0, 74, 107
2, 29688, Note_on_c, 0, 74, 0
2, 29700, Note_on_c, 0, 76, 107
2, 29844, Note_on_c, 0, 76, 0
2, 29880, Note_on_c, 0, 76, 107
2, 29928, Note_on_c, 0, 76, 0
2, 29940, Note_on_c, 0, 76, 107
2, 29988, Note_on_c, 0, 76, 0
2, 30000, Note_on_c, 0, 72, 107
2, 30048, Note_on_c, 0, 72, 0
2, 30060, Note_on_c, 0, 71, 107
2, 30108, Note_on_c, 0, 71, 0
2, 30120, Note_on_c, 0, 69, 107
2, 30168, Note_on_c, 0, 69, 0
2, 30180, Note_on_c, 0, 74, 107
2, 30204, Note_on_c, 0, 74, 0
2, 30210, Note_on_c, 0, 72, 107
2, 30234, Note_on_c, 0, 72, 0
2, 30240, Note_on_c, 0, 74, 107
2, 30336, Note_on_c, 0, 74, 0
2, 30360, Note_on_c, 0, 74, 107
2, 30408, Note_on_c, 0, 74, 0
2, 30420, Note_on_c, 0, 74, 107
2, 30468, Note_on_c, 0, 74, 0
2, 30480, Note_on_c, 0, 68, 107
2, 30528, Note_on_c, 0, 68, 0
2, 30540, Note_on_c, 0, 69, 107
2, 30588, Note_on_c, 0, 69, 0
2, 30600, Note_on_c, 0, 71, 107
2, 30648, Note_on_c, 0, 71, 0
2, 30660, Note_on_c, 0, 72, 107
2, 30804, Note_on_c, 0, 72, 0
2, 30840, Note_on_c, 0, 72, 107
2, 30888, Note_on_c, 0, 72, 0
2, 30900, Note_on_c, 0, 72, 107
2, 30948, Note_on_c, 0, 72, 0
2, 30960, Note_on_c, 0, 69, 107
2, 31008, Note_on_c, 0, 69, 0
2, 31020, Note_on_c, 0, 67, 107
2, 31068, Note_on_c, 0, 67, 0
2, 31080, Note_on_c, 0, 65, 107
2, 31128, Note_on_c, 0, 65, 0
2, 31140, Note_on_c, 0, 70, 107
2, 31188, Note_on_c, 0, 70, 0
2, 31200, Note_on_c, 0, 69, 107
2, 31248, Note_on_c, 0, 69, 0
2, 31260, Note_on_c, 0, 68, 107
2, 31308, Note_on_c, 0, 68, 0
2, 31320, Note_on_c, 0, 69, 107
2, 31368, Note_on_c, 0, 69, 0
2, 31380, Note_on_c, 0, 62, 107
2, 31428, Note_on_c, 0, 62, 0
2, 31440, Note_on_c, 0, 68, 107
2, 31488, Note_on_c, 0, 68, 0
2, 31500, Note_on_c, 0, 69, 107
2, 31548, Note_on_c, 0, 69, 0
2, 31560, Note_on_c, 0, 71, 107
2, 31608, Note_on_c, 0, 71, 0
2, 31620, Note_on_c, 0, 72, 107
2, 31668, Note_on_c, 0, 72, 0
2, 31680, Note_on_c, 0, 71, 107
2, 31728, Note_on_c, 0, 71, 0
2, 31740, Note_on_c, 0, 72, 107
2, 31788, Note_on_c, 0, 72, 0
2, 31800, Note_on_c, 0, 69, 107
2, 31848, Note_on_c, 0, 69, 0
2, 31860, Note_on_c, 0, 71, 107
2, 31956, Note_on_c, 0, 71, 0
2, 31980, Note_on_c, 0, 64, 107
2, 32076, Note_on_c, 0, 64, 0
2, 32100, Note_on_c, 0, 76, 107
2, 32244, Note_on_c, 0, 76, 0
2, 32280, Note_on_c, 0, 76, 107
2, 32328, Note_on_c, 0, 76, 0
2, 32340, Note_on_c, 0, 76, 107
2, 32388, Note_on_c, 0, 76, 0
2, 32400, Note_on_c, 0, 72, 107
2, 32448, Note_on_c, 0, 72, 0
2, 32460, Note_on_c, 0, 71, 107
2, 32508, Note_on_c, 0, 71, 0
2, 32520, Note_on_c, 0, 69, 107
2, 32568, Note_on_c, 0, 69, 0
2, 32580, Note_on_c, 0, 81, 107
2, 32724, Note_on_c, 0, 81, 0
2, 32760, Note_on_c, 0, 81, 107
2, 32808, Note_on_c, 0, 81, 0
2, 32820, Note_on_c, 0, 81, 107
2, 32868, Note_on_c, 0, 81, 0
2, 32880, Note_on_c, 0, 77, 107
2, 32928, Note_on_c, 0, 77, 0
2, 32940, Note_on_c, 0, 76, 107
2, 32988, Note_on_c, 0, 76, 0
2, 33000, Note_on_c, 0, 74, 107
2, 33060, Note_on_c, 0, 83, 107
2, 33204, Note_on_c, 0, 83, 0
2, 33204, Note_on_c, 0, 74, 0
2, 33240, Note_on_c, 0, 83, 107
2, 33240, Note_on_c, 0, 74, 107
2, 33288, Note_on_c, 0, 74, 0
2, 33288, Note_on_c, 0, 83, 0
2, 33300, Note_on_c, 0, 83, 107
2, 33300, Note_on_c, 0, 74, 107
2, 33348, Note_on_c, 0, 83, 0
2, 33360, Note_on_c, 0, 81, 107
2, 33384, Note_on_c, 0, 81, 0
2, 33390, Note_on_c, 0, 80, 107
2, 33396, Note_on_c, 0, 74, 0
2, 33414, Note_on_c, 0, 80, 0
2, 33420, Note_on_c, 0, 81, 107
2, 33420, Note_on_c, 0, 72, 107
2, 33468, Note_on_c, 0, 72, 0
2, 33468, Note_on_c, 0, 81, 0
2, 33480, Note_on_c, 0, 74, 107
2, 33480, Note_on_c, 0, 71, 107
2, 33528, Note_on_c, 0, 71, 0
2, 33528, Note_on_c, 0, 74, 0
2, 33540, Note_on_c, 0, 69, 107
2, 33540, Note_on_c, 0, 72, 107
2, 33636, Note_on_c, 0, 72, 0
2, 33636, Note_on_c, 0, 69, 0
2, 33660, Note_on_c, 0, 68, 107
2, 33660, Note_on_c, 0, 71, 107
2, 33672, Note_on_c, 0, 71, 0
2, 33675, Note_on_c, 0, 72, 107
2, 33687, Note_on_c, 0, 72, 0
2, 33690, Note_on_c, 0, 71, 107
2, 33714, Note_on_c, 0, 71, 0
2, 33720, Note_on_c, 0, 69, 107
2, 33756, Note_on_c, 0, 68, 0
2, 33768, Note_on_c, 0, 69, 0
2, 33780, Note_on_c, 0, 69, 107
2, 33840, Note_on_c, 0, 67, 107
2, 33888, Note_on_c, 0, 67, 0
2, 33900, Note_on_c, 0, 65, 107
2, 33948, Note_on_c, 0, 65, 0
2, 33960, Note_on_c, 0, 64, 107
2, 34008, Note_on_c, 0, 64, 0
2, 34020, Note_on_c, 0, 65, 107
2, 34068, Note_on_c, 0, 65, 0
2, 34080, Note_on_c, 0, 61, 107
2, 34080, Note_on_c, 0, 61, 107
2, 34128, Note_on_c, 0, 61, 0
2, 34128, Note_on_c, 0, 61, 0
2, 34140, Note_on_c, 0, 62, 107
2, 34140, Note_on_c, 0, 62, 107
2, 34188, Note_on_c, 0, 62, 0
2, 34200, Note_on_c, 0, 65, 107
2, 34236, Note_on_c, 0, 62, 0
2, 34248, Note_on_c, 0, 65, 0
2, 34260, Note_on_c, 0, 61, 107
2, 34260, Note_on_c, 0, 64, 107
2, 34548, Note_on_c, 0, 64, 0
2, 34548, Note_on_c, 0, 61, 0
2, 34548, Note_on_c, 0, 69, 0
2, 34740, Note_on_c, 0, 71, 107
2, 34788, Note_on_c, 0, 71, 0
2, 34800, Note_on_c, 0, 64, 107
2, 34800, Note_on_c, 0, 71, 107
2, 34800, Note_on_c, 0, 68, 107
2, 34944, Note_on_c, 0, 68, 0
2, 34944, Note_on_c, 0, 71, 0
2, 34944, Note_on_c, 0, 64, 0
2, 34980, Note_on_c, 0, 71, 107
2, 35028, Note_on_c, 0, 71, 0
2, 35040, Note_on_c, 0, 62, 107
2, 35088, Note_on_c, 0, 62, 0
2, 35100, Note_on_c, 0, 65, 107
2, 35148, Note_on_c, 0, 65, 0
2, 35160, Note_on_c, 0, 64, 107
2, 35208, Note_on_c, 0, 64, 0
2, 35220, Note_on_c, 0, 62, 107
2, 35268, Note_on_c, 0, 62, 0
2, 35280, Note_on_c, 0, 68, 107
2, 35328, Note_on_c, 0, 68, 0
2, 35340, Note_on_c, 0, 64, 107
2, 35388, Note_on_c, 0, 64, 0
2, 35400, Note_on_c, 0, 65, 107
2, 35448, Note_on_c, 0, 65, 0
2, 35460, Note_on_c, 0, 64, 107
2, 35508, Note_on_c, 0, 64, 0
2, 35520, Note_on_c, 0, 71, 107
2, 35568, Note_on_c, 0, 71, 0
2, 35580, Note_on_c, 0, 62, 107
2, 35628, Note_on_c, 0, 62, 0
2, 35640, Note_on_c, 0, 64, 107
2, 35688, Note_on_c, 0, 64, 0
2, 35700, Note_on_c, 0, 65, 107
2, 35748, Note_on_c, 0, 65, 0
2, 35760, Note_on_c, 0, 61, 107
2, 35808, Note_on_c, 0, 61, 0
2, 35820, Note_on_c, 0, 59, 107
2, 35868, Note_on_c, 0, 59, 0
2, 35880, Note_on_c, 0, 57, 107
2, 35928, Note_on_c, 0, 57, 0
2, 35940, Note_on_c, 0, 59, 107
2, 35988, Note_on_c, 0, 59, 0
2, 36000, Note_on_c, 0, 61, 107
2, 36048, Note_on_c, 0, 61, 0
2, 36060, Note_on_c, 0, 62, 107
2, 36108, Note_on_c, 0, 62, 0
2, 36120, Note_on_c, 0, 64, 107
2, 36168, Note_on_c, 0, 64, 0
2, 36180, Note_on_c, 0, 65, 107
2, 36228, Note_on_c, 0, 65, 0
2, 36240, Note_on_c, 0, 67, 107
2, 36288, Note_on_c, 0, 67, 0
2, 36300, Note_on_c, 0, 65, 107
2, 36348, Note_on_c, 0, 65, 0
2, 36360, Note_on_c, 0, 64, 107
2, 36408, Note_on_c, 0, 64, 0
2, 36420, Note_on_c, 0, 65, 107
2, 36468, Note_on_c, 0, 65, 0
2, 36480, Note_on_c, 0, 67, 107
2, 36528, Note_on_c, 0, 67, 0
2, 36540, Note_on_c, 0, 70, 107
2, 36588, Note_on_c, 0, 70, 0
2, 36600, Note_on_c, 0, 69, 107
2, 36648, Note_on_c, 0, 69, 0
2, 36660, Note_on_c, 0, 67, 107
2, 36708, Note_on_c, 0, 67, 0
2, 36720, Note_on_c, 0, 72, 107
2, 36780, Note_on_c, 0, 69, 107
2, 36828, Note_on_c, 0, 69, 0
2, 36840, Note_on_c, 0, 62, 107
2, 36864, Note_on_c, 0, 72, 0
2, 36900, Note_on_c, 0, 72, 107
2, 36936, Note_on_c, 0, 62, 0
2, 36948, Note_on_c, 0, 72, 0
2, 36960, Note_on_c, 0, 71, 107
2, 37008, Note_on_c, 0, 71, 0
2, 37020, Note_on_c, 0, 72, 107
2, 37068, Note_on_c, 0, 72, 0
2, 37080, Note_on_c, 0, 72, 107
2, 37092, Note_on_c, 0, 72, 0
2, 37095, Note_on_c, 0, 74, 107
2, 37107, Note_on_c, 0, 74, 0
2, 37110, Note_on_c, 0, 72, 107
2, 37134, Note_on_c, 0, 72, 0
2, 37140, Note_on_c, 0, 71, 107
2, 37164, Note_on_c, 0, 71, 0
2, 37170, Note_on_c, 0, 72, 107
2, 37194, Note_on_c, 0, 72, 0
2, 37200, Note_on_c, 0, 74, 107
2, 37200, Note_on_c, 0, 67, 107
2, 37344, Note_on_c, 0, 74, 0
2, 37380, Note_on_c, 0, 76, 107
2, 37428, Note_on_c, 0, 76, 0
2, 37440, Note_on_c, 0, 69, 107
2, 37488, Note_on_c, 0, 69, 0
2, 37500, Note_on_c, 0, 71, 107
2, 37548, Note_on_c, 0, 71, 0
2, 37560, Note_on_c, 0, 67, 0
2, 37560, Note_on_c, 0, 72, 107
2, 37560, Note_on_c, 0, 66, 107
2, 37608, Note_on_c, 0, 72, 0
2, 37620, Note_on_c, 0, 74, 107
2, 37668, Note_on_c, 0, 74, 0
2, 37680, Note_on_c, 0, 66, 0
2, 37680, Note_on_c, 0, 67, 107
2, 37680, Note_on_c, 0, 71, 107
2, 37824, Note_on_c, 0, 71, 0
2, 37824, Note_on_c, 0, 67, 0
2, 37860, Note_on_c, 0, 74, 107
2, 37908, Note_on_c, 0, 74, 0
2, 37920, Note_on_c, 0, 65, 107
2, 37968, Note_on_c, 0, 65, 0
2, 37980, Note_on_c, 0, 69, 107
2, 38028, Note_on_c, 0, 69, 0
2, 38040, Note_on_c, 0, 67, 107
2, 38088, Note_on_c, 0, 67, 0
2, 38100, Note_on_c, 0, 65, 107
2, 38148, Note_on_c, 0, 65, 0
2, 38160, Note_on_c, 0, 71, 107
2, 38208, Note_on_c, 0, 71, 0
2, 38220, Note_on_c, 0, 67, 107
2, 38268, Note_on_c, 0, 67, 0
2, 38280, Note_on_c, 0, 69, 107
2, 38328, Note_on_c, 0, 69, 0
2, 38340, Note_on_c, 0, 67, 107
2, 38388, Note_on_c, 0, 67, 0
2, 38400, Note_on_c, 0, 74, 107
2, 38448, Note_on_c, 0, 74, 0
2, 38460, Note_on_c, 0, 65, 107
2, 38508, Note_on_c, 0, 65, 0
2, 38520, Note_on_c, 0, 67, 107
2, 38568, Note_on_c, 0, 67, 0
2, 38580, Note_on_c, 0, 69, 107
2, 38628, Note_on_c, 0, 69, 0
2, 38640, Note_on_c, 0, 65, 105
2, 38640, Note_on_c, 0, 64, 107
2, 38670, Note_on_c, 0, 65, 0
2, 38784, Note_on_c, 0, 64, 0
2, 38820, Note_on_c, 0, 83, 107
2, 38868, Note_on_c, 0, 83, 0
2, 38880, Note_on_c, 0, 74, 107
2, 38928, Note_on_c, 0, 74, 0
2, 38940, Note_on_c, 0, 77, 107
2, 38988, Note_on_c, 0, 77, 0
2, 39000, Note_on_c, 0, 76, 107
2, 39048, Note_on_c, 0, 76, 0
2, 39060, Note_on_c, 0, 74, 107
2, 39108, Note_on_c, 0, 74, 0
2, 39120, Note_on_c, 0, 80, 107
2, 39168, Note_on_c, 0, 80, 0
2, 39180, Note_on_c, 0, 76, 107
2, 39228, Note_on_c, 0, 76, 0
2, 39240, Note_on_c, 0, 77, 107
2, 39288, Note_on_c, 0, 77, 0
2, 39300, Note_on_c, 0, 76, 107
2, 39348, Note_on_c, 0, 76, 0
2, 39360, Note_on_c, 0, 83, 107
2, 39408, Note_on_c, 0, 83, 0
2, 39420, Note_on_c, 0, 74, 107
2, 39468, Note_on_c, 0, 74, 0
2, 39480, Note_on_c, 0, 76, 107
2, 39528, Note_on_c, 0, 76, 0
2, 39540, Note_on_c, 0, 77, 107
2, 39588, Note_on_c, 0, 77, 0
2, 39600, Note_on_c, 0, 73, 107
2, 39648, Note_on_c, 0, 73, 0
2, 39660, Note_on_c, 0, 71, 107
2, 39708, Note_on_c, 0, 71, 0
2, 39720, Note_on_c, 0, 73, 107
2, 39768, Note_on_c, 0, 73, 0
2, 39780, Note_on_c, 0, 69, 107
2, 39828, Note_on_c, 0, 69, 0
2, 39840, Note_on_c, 0, 79, 107
2, 39984, Note_on_c, 0, 79, 0
2, 40020, Note_on_c, 0, 79, 107
2, 40020, Note_on_c, 0, 76, 110
2, 40068, Note_on_c, 0, 76, 0
2, 40068, Note_on_c, 0, 79, 0
2, 40080, Note_on_c, 0, 79, 107
2, 40080, Note_on_c, 0, 76, 110
2, 40128, Note_on_c, 0, 79, 0
2, 40140, Note_on_c, 0, 81, 107
2, 40176, Note_on_c, 0, 76, 0
2, 40188, Note_on_c, 0, 81, 0
2, 40200, Note_on_c, 0, 74, 110
2, 40200, Note_on_c, 0, 77, 107
2, 40248, Note_on_c, 0, 77, 0
2, 40260, Note_on_c, 0, 79, 107
2, 40296, Note_on_c, 0, 74, 0
2, 40308, Note_on_c, 0, 79, 0
2, 40320, Note_on_c, 0, 73, 110
2, 40320, Note_on_c, 0, 76, 107
2, 40344, Note_on_c, 0, 76, 0
2, 40350, Note_on_c, 0, 77, 107
2, 40374, Note_on_c, 0, 77, 0
2, 40380, Note_on_c, 0, 76, 107
2, 40476, Note_on_c, 0, 76, 0
2, 40500, Note_on_c, 0, 81, 107
2, 40512, Note_on_c, 0, 73, 0
2, 40548, Note_on_c, 0, 81, 0
2, 40560, Note_on_c, 0, 79, 107
2, 40608, Note_on_c, 0, 79, 0
2, 40620, Note_on_c, 0, 77, 107
2, 40668, Note_on_c, 0, 77, 0
2, 40680, Note_on_c, 0, 76, 107
2, 40728, Note_on_c, 0, 76, 0
2, 40740, Note_on_c, 0, 74, 107
2, 40788, Note_on_c, 0, 74, 0
2, 40800, Note_on_c, 0, 77, 107
2, 40824, Note_on_c, 0, 77, 0
2, 40830, Note_on_c, 0, 76, 107
2, 40854, Note_on_c, 0, 76, 0
2, 40860, Note_on_c, 0, 77, 107
2, 40956, Note_on_c, 0, 77, 0
2, 40980, Note_on_c, 0, 77, 107
2, 41028, Note_on_c, 0, 77, 0
2, 41040, Note_on_c, 0, 77, 107
2, 41088, Note_on_c, 0, 77, 0
2, 41100, Note_on_c, 0, 71, 107
2, 41148, Note_on_c, 0, 71, 0
2, 41160, Note_on_c, 0, 72, 107
2, 41208, Note_on_c, 0, 72, 0
2, 41220, Note_on_c, 0, 74, 107
2, 41268, Note_on_c, 0, 74, 0
2, 41280, Note_on_c, 0, 76, 107
2, 41424, Note_on_c, 0, 76, 0
2, 41460, Note_on_c, 0, 76, 107
2, 41508, Note_on_c, 0, 76, 0
2, 41520, Note_on_c, 0, 76, 107
2, 41568, Note_on_c, 0, 76, 0
2, 41580, Note_on_c, 0, 72, 107
2, 41628, Note_on_c, 0, 72, 0
2, 41640, Note_on_c, 0, 71, 107
2, 41688, Note_on_c, 0, 71, 0
2, 41700, Note_on_c, 0, 69, 107
2, 41748, Note_on_c, 0, 69, 0
2, 41760, Note_on_c, 0, 74, 107
2, 41784, Note_on_c, 0, 74, 0
2, 41790, Note_on_c, 0, 72, 107
2, 41814, Note_on_c, 0, 72, 0
2, 41820, Note_on_c, 0, 74, 107
2, 41916, Note_on_c, 0, 74, 0
2, 41940, Note_on_c, 0, 74, 107
2, 41988, Note_on_c, 0, 74, 0
2, 42000, Note_on_c, 0, 74, 107
2, 42048, Note_on_c, 0, 74, 0
2, 42060, Note_on_c, 0, 68, 107
2, 42108, Note_on_c, 0, 68, 0
2, 42120, Note_on_c, 0, 69, 107
2, 42168, Note_on_c, 0, 69, 0
2, 42180, Note_on_c, 0, 71, 107
2, 42228, Note_on_c, 0, 71, 0
2, 42240, Note_on_c, 0, 72, 107
2, 42384, Note_on_c, 0, 72, 0
2, 42420, Note_on_c, 0, 72, 107
2, 42468, Note_on_c, 0, 72, 0
2, 42480, Note_on_c, 0, 72, 107
2, 42528, Note_on_c, 0, 72, 0
2, 42540, Note_on_c, 0, 69, 107
2, 42588, Note_on_c, 0, 69, 0
2, 42600, Note_on_c, 0, 67, 107
2, 42648, Note_on_c, 0, 67, 0
2, 42660, Note_on_c, 0, 65, 107
2, 42708, Note_on_c, 0, 65, 0
2, 42720, Note_on_c, 0, 70, 107
2, 42768, Note_on_c, 0, 70, 0
2, 42780, Note_on_c, 0, 69, 107
2, 42828, Note_on_c, 0, 69, 0
2, 42840, Note_on_c, 0, 68, 107
2, 42888, Note_on_c, 0, 68, 0
2, 42900, Note_on_c, 0, 69, 107
2, 42948, Note_on_c, 0, 69, 0
2, 42960, Note_on_c, 0, 62, 107
2, 43008, Note_on_c, 0, 62, 0
2, 43020, Note_on_c, 0, 68, 107
2, 43068, Note_on_c, 0, 68, 0
2, 43080, Note_on_c, 0, 69, 107
2, 43128, Note_on_c, 0, 69, 0
2, 43140, Note_on_c, 0, 71, 107
2, 43188, Note_on_c, 0, 71, 0
2, 43200, Note_on_c, 0, 72, 107
2, 43248, Note_on_c, 0, 72, 0
2, 43260, Note_on_c, 0, 71, 107
2, 43308, Note_on_c, 0, 71, 0
2, 43320, Note_on_c, 0, 72, 107
2, 43368, Note_on_c, 0, 72, 0
2, 43380, Note_on_c, 0, 69, 107
2, 43428, Note_on_c, 0, 69, 0
2, 43440, Note_on_c, 0, 71, 107
2, 43536, Note_on_c, 0, 71, 0
2, 43560, Note_on_c, 0, 64, 107
2, 43656, Note_on_c, 0, 64, 0
2, 43680, Note_on_c, 0, 76, 107
2, 43824, Note_on_c, 0, 76, 0
2, 43860, Note_on_c, 0, 76, 107
2, 43908, Note_on_c, 0, 76, 0
2, 43920, Note_on_c, 0, 76, 107
2, 43968, Note_on_c, 0, 76, 0
2, 43980, Note_on_c, 0, 72, 107
2, 44028, Note_on_c, 0, 72, 0
2, 44040, Note_on_c, 0, 71, 107
2, 44088, Note_on_c, 0, 71, 0
2, 44100, Note_on_c, 0, 69, 107
2, 44148, Note_on_c, 0, 69, 0
2, 44160, Note_on_c, 0, 81, 107
2, 44304, Note_on_c, 0, 81, 0
2, 44340, Note_on_c, 0, 81, 107
2, 44388, Note_on_c, 0, 81, 0
2, 44400, Note_on_c, 0, 81, 107
2, 44448, Note_on_c, 0, 81, 0
2, 44460, Note_on_c, 0, 77, 107
2, 44508, Note_on_c, 0, 77, 0
2, 44520, Note_on_c, 0, 76, 107
2, 44568, Note_on_c, 0, 76, 0
2, 44580, Note_on_c, 0, 74, 107
2, 44640, Note_on_c, 0, 83, 107
2, 44784, Note_on_c, 0, 83, 0
2, 44784, Note_on_c, 0, 74, 0
2, 44820, Note_on_c, 0, 83, 107
2, 44820, Note_on_c, 0, 74, 107
2, 44868, Note_on_c, 0, 74, 0
2, 44868, Note_on_c, 0, 83, 0
2, 44880, Note_on_c, 0, 83, 107
2, 44880, Note_on_c, 0, 74, 107
2, 44928, Note_on_c, 0, 83, 0
2, 44940, Note_on_c, 0, 81, 107
2, 44964, Note_on_c, 0, 81, 0
2, 44970, Note_on_c, 0, 80, 107
2, 44976, Note_on_c, 0, 74, 0
2, 44994, Note_on_c, 0, 80, 0
2, 45000, Note_on_c, 0, 81, 107
2, 45000, Note_on_c, 0, 72, 107
2, 45048, Note_on_c, 0, 72, 0
2, 45048, Note_on_c, 0, 81, 0
2, 45060, Note_on_c, 0, 74, 107
2, 45060, Note_on_c, 0, 71, 107
2, 45108, Note_on_c, 0, 71, 0
2, 45108, Note_on_c, 0, 74, 0
2, 45120, Note_on_c, 0, 69, 107
2, 45120, Note_on_c, 0, 72, 107
2, 45216, Note_on_c, 0, 72, 0
2, 45216, Note_on_c, 0, 69, 0
2, 45240, Note_on_c, 0, 68, 107
2, 45240, Note_on_c, 0, 71, 107
2, 45252, Note_on_c, 0, 71, 0
2, 45255, Note_on_c, 0, 72, 107
2, 45267, Note_on_c, 0, 72, 0
2, 45270, Note_on_c, 0, 71, 107
2, 45294, Note_on_c, 0, 71, 0
2, 45300, Note_on_c, 0, 69, 107
2, 45336, Note_on_c, 0, 68, 0
2, 45348, Note_on_c, 0, 69, 0
2, 45360, Note_on_c, 0, 69, 107
2, 45420, Note_on_c, 0, 67, 107
2, 45468, Note_on_c, 0, 67, 0
2, 45480, Note_on_c, 0, 65, 107
2, 45528, Note_on_c, 0, 65, 0
2, 45540, Note_on_c, 0, 64, 107
2, 45588, Note_on_c, 0, 64, 0
2, 45600, Note_on_c, 0, 65, 107
2, 45648, Note_on_c, 0, 65, 0
2, 45660, Note_on_c, 0, 61, 107
2, 45660, Note_on_c, 0, 61, 107
2, 45708, Note_on_c, 0, 61, 0
2, 45708, Note_on_c, 0, 61, 0
2, 45720, Note_on_c, 0, 62, 107
2, 45720, Note_on_c, 0, 62, 107
2, 45768, Note_on_c, 0, 62, 0
2, 45780, Note_on_c, 0, 65, 107
2, 45816, Note_on_c, 0, 62, 0
2, 45828, Note_on_c, 0, 65, 0
2, 45840, Note_on_c, 0, 61, 107
2, 45840, Note_on_c, 0, 64, 107
2, 46128, Note_on_c, 0, 64, 0
2, 46128, Note_on_c, 0, 61, 0
2, 46128, Note_on_c, 0, 69, 0
2, 46128, End_track
3, 0, Start_track
3, 0, MIDI_port, 0
3, 0, Title_t, "J.S. Bach, Edition Wood"
3, 0, Program_c, 1, 0
3, 0, Control_c, 1, 7, 100
3, 0, Control_c, 1, 10, 64
3, 60, Note_on_c, 1, 57, 107
3, 1164, Note_on_c, 1, 57, 0
3, 1200, Note_on_c, 1, 64, 107
3, 1248, Note_on_c, 1, 64, 0
3, 1740, Note_on_c, 1, 56, 107
3, 1932, Note_on_c, 1, 56, 0
3, 1980, Note_on_c, 1, 60, 107
3, 2028, Note_on_c, 1, 60, 0
3, 2040, Note_on_c, 1, 59, 107
3, 2088, Note_on_c, 1, 59, 0
3, 2100, Note_on_c, 1, 57, 107
3, 2148, Note_on_c, 1, 57, 0
3, 2160, Note_on_c, 1, 59, 107
3, 2208, Note_on_c, 1, 59, 0
3, 2220, Note_on_c, 1, 61, 107
3, 2268, Note_on_c, 1, 61, 0
3, 2280, Note_on_c, 1, 62, 107
3, 2328, Note_on_c, 1, 62, 0
3, 2340, Note_on_c, 1, 64, 107
3, 2388, Note_on_c, 1, 64, 0
3, 2400, Note_on_c, 1, 61, 107
3, 2448, Note_on_c, 1, 61, 0
3, 2460, Note_on_c, 1, 62, 107
3, 2556, Note_on_c, 1, 62, 0
3, 2580, Note_on_c, 1, 57, 107
3, 2676, Note_on_c, 1, 57, 0
3, 2700, Note_on_c, 1, 62, 107
3, 2844, Note_on_c, 1, 62, 0
3, 2880, Note_on_c, 1, 60, 107
3, 2928, Note_on_c, 1, 60, 0
3, 2940, Note_on_c, 1, 59, 107
3, 2988, Note_on_c, 1, 59, 0
3, 3000, Note_on_c, 1, 57, 107
3, 3048, Note_on_c, 1, 57, 0
3, 3060, Note_on_c, 1, 55, 107
3, 3108, Note_on_c, 1, 55, 0
3, 3120, Note_on_c, 1, 57, 107
3, 3168, Note_on_c, 1, 57, 0
3, 3180, Note_on_c, 1, 59, 107
3, 3228, Note_on_c, 1, 59, 0
3, 3240, Note_on_c, 1, 60, 107
3, 3288, Note_on_c, 1, 60, 0
3, 3300, Note_on_c, 1, 62, 107
3, 3348, Note_on_c, 1, 62, 0
3, 3360, Note_on_c, 1, 59, 107
3, 3408, Note_on_c, 1, 59, 0
3, 3420, Note_on_c, 1, 60, 107
3, 3948, Note_on_c, 1, 60, 0
3, 3960, Note_on_c, 1, 64, 107
3, 4008, Note_on_c, 1, 64, 0
3, 4020, Note_on_c, 1, 62, 107
3, 4068, Note_on_c, 1, 62, 0
3, 4080, Note_on_c, 1, 60, 107
3, 4128, Note_on_c, 1, 60, 0
3, 4140, Note_on_c, 1, 59, 107
3, 4188, Note_on_c, 1, 59, 0
3, 4200, Note_on_c, 1, 62, 107
3, 4248, Note_on_c, 1, 62, 0
3, 4260, Note_on_c, 1, 60, 107
3, 4308, Note_on_c, 1, 60, 0
3, 4320, Note_on_c, 1, 62, 107
3, 4368, Note_on_c, 1, 62, 0
3, 4380, Note_on_c, 1, 56, 107
3, 4428, Note_on_c, 1, 56, 0
3, 4440, Note_on_c, 1, 57, 107
3, 4488, Note_on_c, 1, 57, 0
3, 4500, Note_on_c, 1, 59, 107
3, 4548, Note_on_c, 1, 59, 0
3, 4560, Note_on_c, 1, 56, 107
3, 4608, Note_on_c, 1, 56, 0
3, 4620, Note_on_c, 1, 50, 107
3, 4668, Note_on_c, 1, 50, 0
3, 4680, Note_on_c, 1, 53, 107
3, 4728, Note_on_c, 1, 53, 0
3, 4740, Note_on_c, 1, 52, 107
3, 4788, Note_on_c, 1, 52, 0
3, 4800, Note_on_c, 1, 50, 107
3, 4848, Note_on_c, 1, 50, 0
3, 4860, Note_on_c, 1, 48, 107
3, 5148, Note_on_c, 1, 48, 0
3, 5160, Note_on_c, 1, 48, 107
3, 5208, Note_on_c, 1, 48, 0
3, 5220, Note_on_c, 1, 47, 107
3, 5268, Note_on_c, 1, 47, 0
3, 5280, Note_on_c, 1, 45, 107
3, 5328, Note_on_c, 1, 45, 0
3, 5340, Note_on_c, 1, 52, 107
3, 5484, Note_on_c, 1, 52, 0
3, 5520, Note_on_c, 1, 59, 107
3, 5568, Note_on_c, 1, 59, 0
3, 5580, Note_on_c, 1, 64, 107
3, 5628, Note_on_c, 1, 64, 0
3, 5640, Note_on_c, 1, 63, 107
3, 5688, Note_on_c, 1, 63, 0
3, 5700, Note_on_c, 1, 64, 107
3, 5748, Note_on_c, 1, 64, 0
3, 5760, Note_on_c, 1, 66, 107
3, 5808, Note_on_c, 1, 66, 0
3, 5820, Note_on_c, 1, 57, 107
3, 5868, Note_on_c, 1, 57, 0
3, 5880, Note_on_c, 1, 60, 107
3, 5928, Note_on_c, 1, 60, 0
3, 5940, Note_on_c, 1, 59, 107
3, 5988, Note_on_c, 1, 59, 0
3, 6000, Note_on_c, 1, 60, 107
3, 6048, Note_on_c, 1, 60, 0
3, 6060, Note_on_c, 1, 51, 107
3, 6108, Note_on_c, 1, 51, 0
3, 6120, Note_on_c, 1, 60, 107
3, 6168, Note_on_c, 1, 60, 0
3, 6180, Note_on_c, 1, 59, 107
3, 6228, Note_on_c, 1, 59, 0
3, 6240, Note_on_c, 1, 57, 107
3, 6288, Note_on_c, 1, 57, 0
3, 6300, Note_on_c, 1, 55, 107
3, 6588, Note_on_c, 1, 55, 0
3, 6600, Note_on_c, 1, 55, 107
3, 6648, Note_on_c, 1, 55, 0
3, 6660, Note_on_c, 1, 54, 107
3, 6708, Note_on_c, 1, 54, 0
3, 6720, Note_on_c, 1, 52, 107
3, 6768, Note_on_c, 1, 52, 0
3, 6780, Note_on_c, 1, 54, 107
3, 6828, Note_on_c, 1, 54, 0
3, 6840, Note_on_c, 1, 54, 107
3, 6888, Note_on_c, 1, 54, 0
3, 6900, Note_on_c, 1, 55, 107
3, 6948, Note_on_c, 1, 55, 0
3, 6960, Note_on_c, 1, 57, 107
3, 7008, Note_on_c, 1, 57, 0
3, 7020, Note_on_c, 1, 59, 107
3, 7116, Note_on_c, 1, 59, 0
3, 7140, Note_on_c, 1, 47, 107
3, 7236, Note_on_c, 1, 47, 0
3, 7260, Note_on_c, 1, 52, 107
3, 7284, Note_on_c, 1, 52, 0
3, 7290, Note_on_c, 1, 51, 107
3, 7314, Note_on_c, 1, 51, 0
3, 7320, Note_on_c, 1, 52, 107
3, 7548, Note_on_c, 1, 52, 0
3, 7560, Note_on_c, 1, 50, 107
3, 7608, Note_on_c, 1, 50, 0
3, 7620, Note_on_c, 1, 48, 107
3, 7668, Note_on_c, 1, 48, 0
3, 7680, Note_on_c, 1, 47, 107
3, 7728, Note_on_c, 1, 47, 0
3, 7740, Note_on_c, 1, 45, 107
3, 7788, Note_on_c, 1, 45, 0
3, 7800, Note_on_c, 1, 43, 107
3, 7848, Note_on_c, 1, 43, 0
3, 7860, Note_on_c, 1, 45, 107
3, 7908, Note_on_c, 1, 45, 0
3, 7920, Note_on_c, 1, 47, 107
3, 7968, Note_on_c, 1, 47, 0
3, 7980, Note_on_c, 1, 48, 107
3, 8028, Note_on_c, 1, 48, 0
3, 8040, Note_on_c, 1, 47, 107
3, 8088, Note_on_c, 1, 47, 0
3, 8100, Note_on_c, 1, 48, 107
3, 8148, Note_on_c, 1, 48, 0
3, 8160, Note_on_c, 1, 45, 107
3, 8208, Note_on_c, 1, 45, 0
3, 8220, Note_on_c, 1, 47, 107
3, 8340, Note_on_c, 1, 54, 107
3, 8436, Note_on_c, 1, 54, 0
3, 8460, Note_on_c, 1, 59, 107
3, 8556, Note_on_c, 1, 59, 0
3, 8580, Note_on_c, 1, 55, 107
3, 8676, Note_on_c, 1, 55, 0
3, 8700, Note_on_c, 1, 52, 107
3, 8796, Note_on_c, 1, 52, 0
3, 8820, Note_on_c, 1, 55, 107
3, 8916, Note_on_c, 1, 55, 0
3, 8940, Note_on_c, 1, 49, 107
3, 9036, Note_on_c, 1, 49, 0
3, 9060, Note_on_c, 1, 58, 107
3, 9084, Note_on_c, 1, 47, 0
3, 9156, Note_on_c, 1, 58, 0
3, 9180, Note_on_c, 1, 59, 107
3, 9324, Note_on_c, 1, 59, 0
3, 9360, Note_on_c, 1, 57, 107
3, 9408, Note_on_c, 1, 57, 0
3, 9420, Note_on_c, 1, 55, 107
3, 9468, Note_on_c, 1, 55, 0
3, 9480, Note_on_c, 1, 52, 107
3, 9528, Note_on_c, 1, 52, 0
3, 9540, Note_on_c, 1, 54, 107
3, 9588, Note_on_c, 1, 54, 0
3, 9600, Note_on_c, 1, 55, 107
3, 9648, Note_on_c, 1, 55, 0
3, 9660, Note_on_c, 1, 48, 107
3, 9689, Note_on_c, 1, 48, 0
3, 9690, Note_on_c, 1, 47, 107
3, 9714, Note_on_c, 1, 47, 0
3, 9720, Note_on_c, 1, 48, 107
3, 9816, Note_on_c, 1, 48, 0
3, 9840, Note_on_c, 1, 47, 107
3, 9888, Note_on_c, 1, 47, 0
3, 9900, Note_on_c, 1, 48, 107
3, 9948, Note_on_c, 1, 48, 0
3, 9960, Note_on_c, 1, 45, 107
3, 10008, Note_on_c, 1, 45, 0
3, 10020, Note_on_c, 1, 47, 107
3, 10068, Note_on_c, 1, 47, 0
3, 10080, Note_on_c, 1, 48, 107
3, 10128, Note_on_c, 1, 48, 0
3, 10140, Note_on_c, 1, 39, 107
3, 10236, Note_on_c, 1, 39, 0
3, 10260, Note_on_c, 1, 40, 107
3, 10356, Note_on_c, 1, 40, 0
3, 10380, Note_on_c, 1, 47, 107
3, 10572, Note_on_c, 1, 47, 0
3, 10620, Note_on_c, 1, 52, 107
3, 10800, Note_on_c, 1, 56, 107
3, 10848, Note_on_c, 1, 56, 0
3, 10860, Note_on_c, 1, 57, 107
3, 10908, Note_on_c, 1, 57, 0
3, 10920, Note_on_c, 1, 59, 107
3, 10968, Note_on_c, 1, 59, 0
3, 10980, Note_on_c, 1, 60, 107
3, 11004, Note_on_c, 1, 52, 0
3, 11028, Note_on_c, 1, 60, 0
3, 11040, Note_on_c, 1, 63, 107
3, 11088, Note_on_c, 1, 63, 0
3, 11160, Note_on_c, 1, 40, 107
3, 11160, Note_on_c, 1, 40, 107
3, 11208, Note_on_c, 1, 40, 0
3, 11220, Note_on_c, 1, 44, 107
3, 11268, Note_on_c, 1, 44, 0
3, 11280, Note_on_c, 1, 47, 107
3, 11328, Note_on_c, 1, 47, 0
3, 11340, Note_on_c, 1, 52, 107
3, 11484, Note_on_c, 1, 52, 0
3, 11520, Note_on_c, 1, 40, 0
3, 11640, Note_on_c, 1, 57, 107
3, 12744, Note_on_c, 1, 57, 0
3, 12780, Note_on_c, 1, 64, 107
3, 12828, Note_on_c, 1, 64, 0
3, 13320, Note_on_c, 1, 56, 107
3, 13512, Note_on_c, 1, 56, 0
3, 13560, Note_on_c, 1, 60, 107
3, 13608, Note_on_c, 1, 60, 0
3, 13620, Note_on_c, 1, 59, 107
3, 13668, Note_on_c, 1, 59, 0
3, 13680, Note_on_c, 1, 57, 107
3, 13728, Note_on_c, 1, 57, 0
3, 13740, Note_on_c, 1, 59, 107
3, 13788, Note_on_c, 1, 59, 0
3, 13800, Note_on_c, 1, 61, 107
3, 13848, Note_on_c, 1, 61, 0
3, 13860, Note_on_c, 1, 62, 107
3, 13908, Note_on_c, 1, 62, 0
3, 13920, Note_on_c, 1, 64, 107
3, 13968, Note_on_c, 1, 64, 0
3, 13980, Note_on_c, 1, 61, 107
3, 14028, Note_on_c, 1, 61, 0
3, 14040, Note_on_c, 1, 62, 107
3, 14136, Note_on_c, 1, 62, 0
3, 14160, Note_on_c, 1, 57, 107
3, 14256, Note_on_c, 1, 57, 0
3, 14280, Note_on_c, 1, 62, 107
3, 14424, Note_on_c, 1, 62, 0
3, 14460, Note_on_c, 1, 60, 107
3, 14508, Note_on_c, 1, 60, 0
3, 14520, Note_on_c, 1, 59, 107
3, 14568, Note_on_c, 1, 59, 0
3, 14580, Note_on_c, 1, 57, 107
3, 14628, Note_on_c, 1, 57, 0
3, 14640, Note_on_c, 1, 55, 107
3, 14688, Note_on_c, 1, 55, 0
3, 14700, Note_on_c, 1, 57, 107
3, 14748, Note_on_c, 1, 57, 0
3, 14760, Note_on_c, 1, 59, 107
3, 14808, Note_on_c, 1, 59, 0
3, 14820, Note_on_c, 1, 60, 107
3, 14868, Note_on_c, 1, 60, 0
3, 14880, Note_on_c, 1, 62, 107
3, 14928, Note_on_c, 1, 62, 0
3, 14940, Note_on_c, 1, 59, 107
3, 14988, Note_on_c, 1, 59, 0
3, 15000, Note_on_c, 1, 60, 107
3, 15528, Note_on_c, 1, 60, 0
3, 15540, Note_on_c, 1, 64, 107
3, 15588, Note_on_c, 1, 64, 0
3, 15600, Note_on_c, 1, 62, 107
3, 15648, Note_on_c, 1, 62, 0
3, 15660, Note_on_c, 1, 60, 107
3, 15708, Note_on_c, 1, 60, 0
3, 15720, Note_on_c, 1, 59, 107
3, 15768, Note_on_c, 1, 59, 0
3, 15780, Note_on_c, 1, 62, 107
3, 15828, Note_on_c, 1, 62, 0
3, 15840, Note_on_c, 1, 60, 107
3, 15888, Note_on_c, 1, 60, 0
3, 15900, Note_on_c, 1, 62, 107
3, 15948, Note_on_c, 1, 62, 0
3, 15960, Note_on_c, 1, 56, 107
3, 16008, Note_on_c, 1, 56, 0
3, 16020, Note_on_c, 1, 57, 107
3, 16068, Note_on_c, 1, 57, 0
3, 16080, Note_on_c, 1, 59, 107
3, 16128, Note_on_c, 1, 59, 0
3, 16140, Note_on_c, 1, 56, 107
3, 16188, Note_on_c, 1, 56, 0
3, 16200, Note_on_c, 1, 50, 107
3, 16248, Note_on_c, 1, 50, 0
3, 16260, Note_on_c, 1, 53, 107
3, 16308, Note_on_c, 1, 53, 0
3, 16320, Note_on_c, 1, 52, 107
3, 16368, Note_on_c, 1, 52, 0
3, 16380, Note_on_c, 1, 50, 107
3, 16428, Note_on_c, 1, 50, 0
3, 16440, Note_on_c, 1, 48, 107
3, 16728, Note_on_c, 1, 48, 0
3, 16740, Note_on_c, 1, 48, 107
3, 16788, Note_on_c, 1, 48, 0
3, 16800, Note_on_c, 1, 47, 107
3, 16848, Note_on_c, 1, 47, 0
3, 16860, Note_on_c, 1, 45, 107
3, 16908, Note_on_c, 1, 45, 0
3, 16920, Note_on_c, 1, 52, 107
3, 17064, Note_on_c, 1, 52, 0
3, 17100, Note_on_c, 1, 59, 107
3, 17148, Note_on_c, 1, 59, 0
3, 17160, Note_on_c, 1, 64, 107
3, 17208, Note_on_c, 1, 64, 0
3, 17220, Note_on_c, 1, 63, 107
3, 17268, Note_on_c, 1, 63, 0
3, 17280, Note_on_c, 1, 64, 107
3, 17328, Note_on_c, 1, 64, 0
3, 17340, Note_on_c, 1, 66, 107
3, 17388, Note_on_c, 1, 66, 0
3, 17400, Note_on_c, 1, 57, 107
3, 17448, Note_on_c, 1, 57, 0
3, 17460, Note_on_c, 1, 60, 107
3, 17508, Note_on_c, 1, 60, 0
3, 17520, Note_on_c, 1, 59, 107
3, 17568, Note_on_c, 1, 59, 0
3, 17580, Note_on_c, 1, 60, 107
3, 17628, Note_on_c, 1, 60, 0
3, 17640, Note_on_c, 1, 51, 107
3, 17688, Note_on_c, 1, 51, 0
3, 17700, Note_on_c, 1, 60, 107
3, 17748, Note_on_c, 1, 60, 0
3, 17760, Note_on_c, 1, 59, 107
3, 17808, Note_on_c, 1, 59, 0
3, 17820, Note_on_c, 1, 57, 107
3, 17868, Note_on_c, 1, 57, 0
3, 17880, Note_on_c, 1, 55, 107
3, 18168, Note_on_c, 1, 55, 0
3, 18180, Note_on_c, 1, 55, 107
3, 18228, Note_on_c, 1, 55, 0
3, 18240, Note_on_c, 1, 54, 107
3, 18288, Note_on_c, 1, 54, 0
3, 18300, Note_on_c, 1, 52, 107
3, 18348, Note_on_c, 1, 52, 0
3, 18360, Note_on_c, 1, 54, 107
3, 18408, Note_on_c, 1, 54, 0
3, 18420, Note_on_c, 1, 54, 107
3, 18468, Note_on_c, 1, 54, 0
3, 18480, Note_on_c, 1, 55, 107
3, 18528, Note_on_c, 1, 55, 0
3, 18540, Note_on_c, 1, 57, 107
3, 18588, Note_on_c, 1, 57, 0
3, 18600, Note_on_c, 1, 59, 107
3, 18696, Note_on_c, 1, 59, 0
3, 18720, Note_on_c, 1, 47, 107
3, 18816, Note_on_c, 1, 47, 0
3, 18840, Note_on_c, 1, 52, 107
3, 18864, Note_on_c, 1, 52, 0
3, 18870, Note_on_c, 1, 51, 107
3, 18894, Note_on_c, 1, 51, 0
3, 18900, Note_on_c, 1, 52, 107
3, 19128, Note_on_c, 1, 52, 0
3, 19140, Note_on_c, 1, 50, 107
3, 19188, Note_on_c, 1, 50, 0
3, 19200, Note_on_c, 1, 48, 107
3, 19248, Note_on_c, 1, 48, 0
3, 19260, Note_on_c, 1, 47, 107
3, 19308, Note_on_c, 1, 47, 0
3, 19320, Note_on_c, 1, 45, 107
3, 19368, Note_on_c, 1, 45, 0
3, 19380, Note_on_c, 1, 43, 107
3, 19428, Note_on_c, 1, 43, 0
3, 19440, Note_on_c, 1, 45, 107
3, 19488, Note_on_c, 1, 45, 0
3, 19500, Note_on_c, 1, 47, 107
3, 19548, Note_on_c, 1, 47, 0
3, 19560, Note_on_c, 1, 48, 107
3, 19608, Note_on_c, 1, 48, 0
3, 19620, Note_on_c, 1, 47, 107
3, 19668, Note_on_c, 1, 47, 0
3, 19680, Note_on_c, 1, 48, 107
3, 19728, Note_on_c, 1, 48, 0
3, 19740, Note_on_c, 1, 45, 107
3, 19788, Note_on_c, 1, 45, 0
3, 19800, Note_on_c, 1, 47, 107
3, 19920, Note_on_c, 1, 54, 107
3, 20016, Note_on_c, 1, 54, 0
3, 20040, Note_on_c, 1, 59, 107
3, 20136, Note_on_c, 1, 59, 0
3, 20160, Note_on_c, 1, 55, 107
3, 20256, Note_on_c, 1, 55, 0
3, 20280, Note_on_c, 1, 52, 107
3, 20376, Note_on_c, 1, 52, 0
3, 20400, Note_on_c, 1, 55, 107
3, 20496, Note_on_c, 1, 55, 0
3, 20520, Note_on_c, 1, 49, 107
3, 20616, Note_on_c, 1, 49, 0
3, 20640, Note_on_c, 1, 58, 107
3, 20664, Note_on_c, 1, 47, 0
3, 20736, Note_on_c, 1, 58, 0
3, 20760, Note_on_c, 1, 59, 107
3, 20904, Note_on_c, 1, 59, 0
3, 20940, Note_on_c, 1, 57, 107
3, 20988, Note_on_c, 1, 57, 0
3, 21000, Note_on_c, 1, 55, 107
3, 21048, Note_on_c, 1, 55, 0
3, 21060, Note_on_c, 1, 52, 107
3, 21108, Note_on_c, 1, 52, 0
3, 21120, Note_on_c, 1, 54, 107
3, 21168, Note_on_c, 1, 54, 0
3, 21180, Note_on_c, 1, 55, 107
3, 21228, Note_on_c, 1, 55, 0
3, 21240, Note_on_c, 1, 48, 107
3, 21269, Note_on_c, 1, 48, 0
3, 21270, Note_on_c, 1, 47, 107
3, 21294, Note_on_c, 1, 47, 0
3, 21300, Note_on_c, 1, 48, 107
3, 21396, Note_on_c, 1, 48, 0
3, 21420, Note_on_c, 1, 47, 107
3, 21468, Note_on_c, 1, 47, 0
3, 21480, Note_on_c, 1, 48, 107
3, 21528, Note_on_c, 1, 48, 0
3, 21540, Note_on_c, 1, 45, 107
3, 21588, Note_on_c, 1, 45, 0
3, 21600, Note_on_c, 1, 47, 107
3, 21648, Note_on_c, 1, 47, 0
3, 21660, Note_on_c, 1, 48, 107
3, 21708, Note_on_c, 1, 48, 0
3, 21720, Note_on_c, 1, 39, 107
3, 21816, Note_on_c, 1, 39, 0
3, 21840, Note_on_c, 1, 40, 107
3, 21936, Note_on_c, 1, 40, 0
3, 21960, Note_on_c, 1, 47, 107
3, 22152, Note_on_c, 1, 47, 0
3, 22200, Note_on_c, 1, 52, 107
3, 22380, Note_on_c, 1, 56, 107
3, 22428, Note_on_c, 1, 56, 0
3, 22440, Note_on_c, 1, 57, 107
3, 22488, Note_on_c, 1, 57, 0
3, 22500, Note_on_c, 1, 59, 107
3, 22548, Note_on_c, 1, 59, 0
3, 22560, Note_on_c, 1, 60, 107
3, 22584, Note_on_c, 1, 52, 0
3, 22608, Note_on_c, 1, 60, 0
3, 22620, Note_on_c, 1, 63, 107
3, 22668, Note_on_c, 1, 63, 0
3, 22740, Note_on_c, 1, 40, 107
3, 22740, Note_on_c, 1, 40, 107
3, 22788, Note_on_c, 1, 40, 0
3, 22800, Note_on_c, 1, 44, 107
3, 22848, Note_on_c, 1, 44, 0
3, 22860, Note_on_c, 1, 47, 107
3, 22908, Note_on_c, 1, 47, 0
3, 22920, Note_on_c, 1, 52, 107
3, 23064, Note_on_c, 1, 52, 0
3, 23100, Note_on_c, 1, 40, 0
3, 23220, Note_on_c, 1, 40, 107
3, 23268, Note_on_c, 1, 40, 0
3, 23280, Note_on_c, 1, 47, 107
3, 23328, Note_on_c, 1, 47, 0
3, 23340, Note_on_c, 1, 52, 107
3, 23388, Note_on_c, 1, 52, 0
3, 23400, Note_on_c, 1, 54, 107
3, 23448, Note_on_c, 1, 54, 0
3, 23460, Note_on_c, 1, 56, 107
3, 23556, Note_on_c, 1, 56, 0
3, 23580, Note_on_c, 1, 57, 107
3, 23676, Note_on_c, 1, 57, 0
3, 23700, Note_on_c, 1, 59, 107
3, 23796, Note_on_c, 1, 59, 0
3, 23820, Note_on_c, 1, 57, 107
3, 23916, Note_on_c, 1, 57, 0
3, 23940, Note_on_c, 1, 56, 107
3, 24036, Note_on_c, 1, 56, 0
3, 24060, Note_on_c, 1, 52, 107
3, 24156, Note_on_c, 1, 52, 0
3, 24180, Note_on_c, 1, 57, 107
3, 24324, Note_on_c, 1, 57, 0
3, 24360, Note_on_c, 1, 45, 107
3, 24408, Note_on_c, 1, 45, 0
3, 24420, Note_on_c, 1, 43, 107
3, 24468, Note_on_c, 1, 43, 0
3, 24480, Note_on_c, 1, 46, 107
3, 24528, Note_on_c, 1, 46, 0
3, 24540, Note_on_c, 1, 45, 107
3, 24588, Note_on_c, 1, 45, 0
3, 24600, Note_on_c, 1, 43, 107
3, 24648, Note_on_c, 1, 43, 0
3, 24660, Note_on_c, 1, 49, 107
3, 24708, Note_on_c, 1, 49, 0
3, 24720, Note_on_c, 1, 45, 107
3, 24768, Note_on_c, 1, 45, 0
3, 24780, Note_on_c, 1, 46, 107
3, 24828, Note_on_c, 1, 46, 0
3, 24840, Note_on_c, 1, 45, 107
3, 24888, Note_on_c, 1, 45, 0
3, 24900, Note_on_c, 1, 52, 107
3, 24948, Note_on_c, 1, 52, 0
3, 24960, Note_on_c, 1, 43, 107
3, 25008, Note_on_c, 1, 43, 0
3, 25020, Note_on_c, 1, 45, 107
3, 25068, Note_on_c, 1, 45, 0
3, 25080, Note_on_c, 1, 46, 107
3, 25128, Note_on_c, 1, 46, 0
3, 25140, Note_on_c, 1, 42, 107
3, 25188, Note_on_c, 1, 42, 0
3, 25200, Note_on_c, 1, 50, 107
3, 25248, Note_on_c, 1, 50, 0
3, 25260, Note_on_c, 1, 52, 107
3, 25308, Note_on_c, 1, 52, 0
3, 25320, Note_on_c, 1, 54, 107
3, 25368, Note_on_c, 1, 54, 0
3, 25380, Note_on_c, 1, 55, 107
3, 25428, Note_on_c, 1, 55, 0
3, 25440, Note_on_c, 1, 57, 107
3, 25488, Note_on_c, 1, 57, 0
3, 25500, Note_on_c, 1, 57, 107
3, 25512, Note_on_c, 1, 57, 0
3, 25515, Note_on_c, 1, 59, 107
3, 25527, Note_on_c, 1, 59, 0
3, 25530, Note_on_c, 1, 57, 107
3, 25554, Note_on_c, 1, 57, 0
3, 25560, Note_on_c, 1, 55, 107
3, 25584, Note_on_c, 1, 55, 0
3, 25590, Note_on_c, 1, 57, 107
3, 25614, Note_on_c, 1, 57, 0
3, 25620, Note_on_c, 1, 59, 107
3, 25668, Note_on_c, 1, 59, 0
3, 25680, Note_on_c, 1, 60, 107
3, 25728, Note_on_c, 1, 60, 0
3, 25740, Note_on_c, 1, 60, 107
3, 25752, Note_on_c, 1, 60, 0
3, 25755, Note_on_c, 1, 62, 107
3, 25767, Note_on_c, 1, 62, 0
3, 25770, Note_on_c, 1, 60, 107
3, 25794, Note_on_c, 1, 60, 0
3, 25800, Note_on_c, 1, 59, 107
3, 25824, Note_on_c, 1, 59, 0
3, 25830, Note_on_c, 1, 60, 107
3, 25854, Note_on_c, 1, 60, 0
3, 25860, Note_on_c, 1, 62, 107
3, 25956, Note_on_c, 1, 62, 0
3, 25980, Note_on_c, 1, 50, 107
3, 26076, Note_on_c, 1, 50, 0
3, 26100, Note_on_c, 1, 43, 107
3, 26148, Note_on_c, 1, 43, 0
3, 26160, Note_on_c, 1, 50, 107
3, 26208, Note_on_c, 1, 50, 0
3, 26220, Note_on_c, 1, 55, 107
3, 26268, Note_on_c, 1, 55, 0
3, 26280, Note_on_c, 1, 57, 107
3, 26328, Note_on_c, 1, 57, 0
3, 26340, Note_on_c, 1, 59, 107
3, 26436, Note_on_c, 1, 59, 0
3, 26460, Note_on_c, 1, 60, 107
3, 26556, Note_on_c, 1, 60, 0
3, 26580, Note_on_c, 1, 62, 107
3, 26676, Note_on_c, 1, 62, 0
3, 26700, Note_on_c, 1, 60, 107
3, 26796, Note_on_c, 1, 60, 0
3, 26820, Note_on_c, 1, 59, 107
3, 26820, Note_on_c, 1, 59, 107
3, 26916, Note_on_c, 1, 59, 0
3, 26940, Note_on_c, 1, 57, 107
3, 27036, Note_on_c, 1, 57, 0
3, 27060, Note_on_c, 1, 56, 107
3, 27156, Note_on_c, 1, 56, 0
3, 27180, Note_on_c, 1, 57, 107
3, 27276, Note_on_c, 1, 57, 0
3, 27300, Note_on_c, 1, 56, 107
3, 27396, Note_on_c, 1, 56, 0
3, 27420, Note_on_c, 1, 54, 107
3, 27516, Note_on_c, 1, 54, 0
3, 27540, Note_on_c, 1, 52, 107
3, 27636, Note_on_c, 1, 52, 0
3, 27636, Note_on_c, 1, 59, 0
3, 27660, Note_on_c, 1, 59, 107
3, 27660, Note_on_c, 1, 50, 107
3, 27756, Note_on_c, 1, 50, 0
3, 27756, Note_on_c, 1, 59, 0
3, 27780, Note_on_c, 1, 48, 107
3, 27780, Note_on_c, 1, 52, 107
3, 27876, Note_on_c, 1, 52, 0
3, 27876, Note_on_c, 1, 48, 0
3, 27900, Note_on_c, 1, 56, 107
3, 27900, Note_on_c, 1, 47, 107
3, 27996, Note_on_c, 1, 47, 0
3, 27996, Note_on_c, 1, 56, 0
3, 28020, Note_on_c, 1, 45, 107
3, 28020, Note_on_c, 1, 57, 107
3, 28164, Note_on_c, 1, 57, 0
3, 28164, Note_on_c, 1, 45, 0
3, 28200, Note_on_c, 1, 57, 107
3, 28248, Note_on_c, 1, 57, 0
3, 28260, Note_on_c, 1, 58, 107
3, 28308, Note_on_c, 1, 58, 0
3, 28320, Note_on_c, 1, 57, 107
3, 28368, Note_on_c, 1, 57, 0
3, 28380, Note_on_c, 1, 58, 107
3, 28428, Note_on_c, 1, 58, 0
3, 28440, Note_on_c, 1, 55, 107
3, 28488, Note_on_c, 1, 55, 0
3, 28500, Note_on_c, 1, 61, 107
3, 28548, Note_on_c, 1, 61, 0
3, 28560, Note_on_c, 1, 57, 107
3, 28608, Note_on_c, 1, 57, 0
3, 28620, Note_on_c, 1, 62, 107
3, 28668, Note_on_c, 1, 62, 0
3, 28680, Note_on_c, 1, 55, 107
3, 28728, Note_on_c, 1, 55, 0
3, 28740, Note_on_c, 1, 57, 107
3, 28740, Note_on_c, 1, 57, 107
3, 28836, Note_on_c, 1, 57, 0
3, 28860, Note_on_c, 1, 45, 107
3, 28956, Note_on_c, 1, 45, 0
3, 28980, Note_on_c, 1, 50, 107
3, 29172, Note_on_c, 1, 57, 0
3, 29268, Note_on_c, 1, 50, 0
3, 29280, Note_on_c, 1, 50, 107
3, 29328, Note_on_c, 1, 50, 0
3, 29340, Note_on_c, 1, 52, 107
3, 29388, Note_on_c, 1, 52, 0
3, 29400, Note_on_c, 1, 53, 107
3, 29448, Note_on_c, 1, 53, 0
3, 29460, Note_on_c, 1, 55, 107
3, 29508, Note_on_c, 1, 55, 0
3, 29520, Note_on_c, 1, 55, 107
3, 29568, Note_on_c, 1, 55, 0
3, 29580, Note_on_c, 1, 57, 107
3, 29628, Note_on_c, 1, 57, 0
3, 29640, Note_on_c, 1, 59, 107
3, 29688, Note_on_c, 1, 59, 0
3, 29700, Note_on_c, 1, 60, 107
3, 29748, Note_on_c, 1, 60, 0
3, 29760, Note_on_c, 1, 60, 107
3, 29808, Note_on_c, 1, 60, 0
3, 29820, Note_on_c, 1, 62, 107
3, 29868, Note_on_c, 1, 62, 0
3, 29880, Note_on_c, 1, 64, 107
3, 29928, Note_on_c, 1, 64, 0
3, 29940, Note_on_c, 1, 65, 107
3, 30228, Note_on_c, 1, 65, 0
3, 30240, Note_on_c, 1, 47, 107
3, 30288, Note_on_c, 1, 47, 0
3, 30300, Note_on_c, 1, 48, 107
3, 30348, Note_on_c, 1, 48, 0
3, 30360, Note_on_c, 1, 50, 107
3, 30408, Note_on_c, 1, 50, 0
3, 30420, Note_on_c, 1, 52, 107
3, 30468, Note_on_c, 1, 52, 0
3, 30480, Note_on_c, 1, 52, 107
3, 30528, Note_on_c, 1, 52, 0
3, 30540, Note_on_c, 1, 54, 107
3, 30588, Note_on_c, 1, 54, 0
3, 30600, Note_on_c, 1, 56, 107
3, 30648, Note_on_c, 1, 56, 0
3, 30660, Note_on_c, 1, 57, 107
3, 30708, Note_on_c, 1, 57, 0
3, 30720, Note_on_c, 1, 57, 107
3, 30768, Note_on_c, 1, 57, 0
3, 30780, Note_on_c, 1, 59, 107
3, 30828, Note_on_c, 1, 59, 0
3, 30840, Note_on_c, 1, 60, 107
3, 30888, Note_on_c, 1, 60, 0
3, 30900, Note_on_c, 1, 62, 107
3, 31188, Note_on_c, 1, 62, 0
3, 31200, Note_on_c, 1, 53, 107
3, 31248, Note_on_c, 1, 53, 0
3, 31260, Note_on_c, 1, 52, 107
3, 31308, Note_on_c, 1, 52, 0
3, 31320, Note_on_c, 1, 50, 107
3, 31368, Note_on_c, 1, 50, 0
3, 31380, Note_on_c, 1, 56, 107
3, 31428, Note_on_c, 1, 56, 0
3, 31440, Note_on_c, 1, 52, 107
3, 31488, Note_on_c, 1, 52, 0
3, 31500, Note_on_c, 1, 53, 107
3, 31548, Note_on_c, 1, 53, 0
3, 31560, Note_on_c, 1, 52, 107
3, 31608, Note_on_c, 1, 52, 0
3, 31620, Note_on_c, 1, 57, 107
3, 31668, Note_on_c, 1, 57, 0
3, 31680, Note_on_c, 1, 50, 107
3, 31728, Note_on_c, 1, 50, 0
3, 31740, Note_on_c, 1, 52, 107
3, 31788, Note_on_c, 1, 52, 0
3, 31800, Note_on_c, 1, 53, 107
3, 31848, Note_on_c, 1, 53, 0
3, 31860, Note_on_c, 1, 44, 107
3, 31908, Note_on_c, 1, 44, 0
3, 31920, Note_on_c, 1, 44, 107
3, 31968, Note_on_c, 1, 44, 0
3, 31980, Note_on_c, 1, 45, 107
3, 32028, Note_on_c, 1, 45, 0
3, 32040, Note_on_c, 1, 47, 107
3, 32088, Note_on_c, 1, 47, 0
3, 32100, Note_on_c, 1, 48, 107
3, 32148, Note_on_c, 1, 48, 0
3, 32160, Note_on_c, 1, 48, 107
3, 32208, Note_on_c, 1, 48, 0
3, 32220, Note_on_c, 1, 50, 107
3, 32268, Note_on_c, 1, 50, 0
3, 32280, Note_on_c, 1, 52, 107
3, 32328, Note_on_c, 1, 52, 0
3, 32340, Note_on_c, 1, 53, 107
3, 32628, Note_on_c, 1, 53, 0
3, 32640, Note_on_c, 1, 50, 107
3, 32688, Note_on_c, 1, 50, 0
3, 32700, Note_on_c, 1, 52, 107
3, 32748, Note_on_c, 1, 52, 0
3, 32760, Note_on_c, 1, 53, 107
3, 32808, Note_on_c, 1, 53, 0
3, 32820, Note_on_c, 1, 47, 107
3, 32868, Note_on_c, 1, 47, 0
3, 32880, Note_on_c, 1, 47, 107
3, 32928, Note_on_c, 1, 47, 0
3, 32940, Note_on_c, 1, 48, 107
3, 32988, Note_on_c, 1, 48, 0
3, 33000, Note_on_c, 1, 50, 107
3, 33048, Note_on_c, 1, 50, 0
3, 33060, Note_on_c, 1, 44, 107
3, 33108, Note_on_c, 1, 44, 0
3, 33120, Note_on_c, 1, 44, 107
3, 33168, Note_on_c, 1, 44, 0
3, 33180, Note_on_c, 1, 45, 107
3, 33228, Note_on_c, 1, 45, 0
3, 33240, Note_on_c, 1, 47, 107
3, 33288, Note_on_c, 1, 47, 0
3, 33300, Note_on_c, 1, 36, 107
3, 33396, Note_on_c, 1, 36, 0
3, 33420, Note_on_c, 1, 48, 107
3, 33468, Note_on_c, 1, 48, 0
3, 33480, Note_on_c, 1, 50, 107
3, 33528, Note_on_c, 1, 50, 0
3, 33540, Note_on_c, 1, 52, 107
3, 33636, Note_on_c, 1, 52, 0
3, 33660, Note_on_c, 1, 40, 107
3, 33756, Note_on_c, 1, 40, 0
3, 33780, Note_on_c, 1, 45, 107
3, 33960, Note_on_c, 1, 49, 107
3, 34008, Note_on_c, 1, 49, 0
3, 34020, Note_on_c, 1, 50, 107
3, 34068, Note_on_c, 1, 50, 0
3, 34080, Note_on_c, 1, 52, 107
3, 34128, Note_on_c, 1, 52, 0
3, 34140, Note_on_c, 1, 53, 107
3, 34164, Note_on_c, 1, 45, 0
3, 34188, Note_on_c, 1, 53, 0
3, 34200, Note_on_c, 1, 56, 107
3, 34248, Note_on_c, 1, 56, 0
3, 34260, Note_on_c, 1, 57, 107
3, 34260, Note_on_c, 1, 57, 107
3, 34308, Note_on_c, 1, 57, 0
3, 34320, Note_on_c, 1, 45, 107
3, 34320, Note_on_c, 1, 45, 107
3, 34368, Note_on_c, 1, 45, 0
3, 34380, Note_on_c, 1, 49, 107
3, 34428, Note_on_c, 1, 49, 0
3, 34440, Note_on_c, 1, 52, 107
3, 34452, Note_on_c, 1, 57, 0
3, 34488, Note_on_c, 1, 52, 0
3, 34500, Note_on_c, 1, 57, 107
3, 34644, Note_on_c, 1, 57, 0
3, 34644, Note_on_c, 1, 45, 0
3, 34800, Note_on_c, 1, 40, 107
3, 34848, Note_on_c, 1, 40, 0
3, 34860, Note_on_c, 1, 47, 107
3, 34908, Note_on_c, 1, 47, 0
3, 34920, Note_on_c, 1, 52, 107
3, 34968, Note_on_c, 1, 52, 0
3, 34980, Note_on_c, 1, 54, 107
3, 35028, Note_on_c, 1, 54, 0
3, 35040, Note_on_c, 1, 56, 107
3, 35136, Note_on_c, 1, 56, 0
3, 35160, Note_on_c, 1, 57, 107
3, 35256, Note_on_c, 1, 57, 0
3, 35280, Note_on_c, 1, 59, 107
3, 35376, Note_on_c, 1, 59, 0
3, 35400, Note_on_c, 1, 57, 107
3, 35496, Note_on_c, 1, 57, 0
3, 35520, Note_on_c, 1, 56, 107
3, 35616, Note_on_c, 1, 56, 0
3, 35640, Note_on_c, 1, 52, 107
3, 35736, Note_on_c, 1, 52, 0
3, 35760, Note_on_c, 1, 57, 107
3, 35904, Note_on_c, 1, 57, 0
3, 35940, Note_on_c, 1, 45, 107
3, 35988, Note_on_c, 1, 45, 0
3, 36000, Note_on_c, 1, 43, 107
3, 36048, Note_on_c, 1, 43, 0
3, 36060, Note_on_c, 1, 46, 107
3, 36108, Note_on_c, 1, 46, 0
3, 36120, Note_on_c, 1, 45, 107
3, 36168, Note_on_c, 1, 45, 0
3, 36180, Note_on_c, 1, 43, 107
3, 36228, Note_on_c, 1, 43, 0
3, 36240, Note_on_c, 1, 49, 107
3, 36288, Note_on_c, 1, 49, 0
3, 36300, Note_on_c, 1, 45, 107
3, 36348, Note_on_c, 1, 45, 0
3, 36360, Note_on_c, 1, 46, 107
3, 36408, Note_on_c, 1, 46, 0
3, 36420, Note_on_c, 1, 45, 107
3, 36468, Note_on_c, 1, 45, 0
3, 36480, Note_on_c, 1, 52, 107
3, 36528, Note_on_c, 1, 52, 0
3, 36540, Note_on_c, 1, 43, 107
3, 36588, Note_on_c, 1, 43, 0
3, 36600, Note_on_c, 1, 45, 107
3, 36648, Note_on_c, 1, 45, 0
3, 36660, Note_on_c, 1, 46, 107
3, 36708, Note_on_c, 1, 46, 0
3, 36720, Note_on_c, 1, 42, 107
3, 36768, Note_on_c, 1, 42, 0
3, 36780, Note_on_c, 1, 50, 107
3, 36828, Note_on_c, 1, 50, 0
3, 36840, Note_on_c, 1, 52, 107
3, 36888, Note_on_c, 1, 52, 0
3, 36900, Note_on_c, 1, 54, 107
3, 36948, Note_on_c, 1, 54, 0
3, 36960, Note_on_c, 1, 55, 107
3, 37008, Note_on_c, 1, 55, 0
3, 37020, Note_on_c, 1, 57, 107
3, 37068, Note_on_c, 1, 57, 0
3, 37080, Note_on_c, 1, 57, 107
3, 37092, Note_on_c, 1, 57, 0
3, 37095, Note_on_c, 1, 59, 107
3, 37107, Note_on_c, 1, 59, 0
3, 37110, Note_on_c, 1, 57, 107
3, 37134, Note_on_c, 1, 57, 0
3, 37140, Note_on_c, 1, 55, 107
3, 37164, Note_on_c, 1, 55, 0
3, 37170, Note_on_c, 1, 57, 107
3, 37194, Note_on_c, 1, 57, 0
3, 37200, Note_on_c, 1, 59, 107
3, 37248, Note_on_c, 1, 59, 0
3, 37260, Note_on_c, 1, 60, 107
3, 37308, Note_on_c, 1, 60, 0
3, 37320, Note_on_c, 1, 60, 107
3, 37332, Note_on_c, 1, 60, 0
3, 37335, Note_on_c, 1, 62, 107
3, 37347, Note_on_c, 1, 62, 0
3, 37350, Note_on_c, 1, 60, 107
3, 37374, Note_on_c, 1, 60, 0
3, 37380, Note_on_c, 1, 59, 107
3, 37404, Note_on_c, 1, 59, 0
3, 37410, Note_on_c, 1, 60, 107
3, 37434, Note_on_c, 1, 60, 0
3, 37440, Note_on_c, 1, 62, 107
3, 37536, Note_on_c, 1, 62, 0
3, 37560, Note_on_c, 1, 50, 107
3, 37656, Note_on_c, 1, 50, 0
3, 37680, Note_on_c, 1, 43, 107
3, 37728, Note_on_c, 1, 43, 0
3, 37740, Note_on_c, 1, 50, 107
3, 37788, Note_on_c, 1, 50, 0
3, 37800, Note_on_c, 1, 55, 107
3, 37848, Note_on_c, 1, 55, 0
3, 37860, Note_on_c, 1, 57, 107
3, 37908, Note_on_c, 1, 57, 0
3, 37920, Note_on_c, 1, 59, 107
3, 38016, Note_on_c, 1, 59, 0
3, 38040, Note_on_c, 1, 60, 107
3, 38136, Note_on_c, 1, 60, 0
3, 38160, Note_on_c, 1, 62, 107
3, 38256, Note_on_c, 1, 62, 0
3, 38280, Note_on_c, 1, 60, 107
3, 38376, Note_on_c, 1, 60, 0
3, 38400, Note_on_c, 1, 59, 107
3, 38400, Note_on_c, 1, 59, 107
3, 38496, Note_on_c, 1, 59, 0
3, 38520, Note_on_c, 1, 57, 107
3, 38616, Note_on_c, 1, 57, 0
3, 38640, Note_on_c, 1, 56, 107
3, 38736, Note_on_c, 1, 56, 0
3, 38760, Note_on_c, 1, 57, 107
3, 38856, Note_on_c, 1, 57, 0
3, 38880, Note_on_c, 1, 56, 107
3, 38976, Note_on_c, 1, 56, 0
3, 39000, Note_on_c, 1, 54, 107
3, 39096, Note_on_c, 1, 54, 0
3, 39120, Note_on_c, 1, 52, 107
3, 39216, Note_on_c, 1, 52, 0
3, 39216, Note_on_c, 1, 59, 0
3, 39240, Note_on_c, 1, 59, 107
3, 39240, Note_on_c, 1, 50, 107
3, 39336, Note_on_c, 1, 50, 0
3, 39336, Note_on_c, 1, 59, 0
3, 39360, Note_on_c, 1, 48, 107
3, 39360, Note_on_c, 1, 52, 107
3, 39456, Note_on_c, 1, 52, 0
3, 39456, Note_on_c, 1, 48, 0
3, 39480, Note_on_c, 1, 56, 107
3, 39480, Note_on_c, 1, 47, 107
3, 39576, Note_on_c, 1, 47, 0
3, 39576, Note_on_c, 1, 56, 0
3, 39600, Note_on_c, 1, 45, 107
3, 39600, Note_on_c, 1, 57, 107
3, 39744, Note_on_c, 1, 57, 0
3, 39744, Note_on_c, 1, 45, 0
3, 39780, Note_on_c, 1, 57, 107
3, 39828, Note_on_c, 1, 57, 0
3, 39840, Note_on_c, 1, 58, 107
3, 39888, Note_on_c, 1, 58, 0
3, 39900, Note_on_c, 1, 57, 107
3, 39948, Note_on_c, 1, 57, 0
3, 39960, Note_on_c, 1, 58, 107
3, 40008, Note_on_c, 1, 58, 0
3, 40020, Note_on_c, 1, 55, 107
3, 40068, Note_on_c, 1, 55, 0
3, 40080, Note_on_c, 1, 61, 107
3, 40128, Note_on_c, 1, 61, 0
3, 40140, Note_on_c, 1, 57, 107
3, 40188, Note_on_c, 1, 57, 0
3, 40200, Note_on_c, 1, 62, 107
3, 40248, Note_on_c, 1, 62, 0
3, 40260, Note_on_c, 1, 55, 107
3, 40308, Note_on_c, 1, 55, 0
3, 40320, Note_on_c, 1, 57, 107
3, 40320, Note_on_c, 1, 57, 107
3, 40416, Note_on_c, 1, 57, 0
3, 40440, Note_on_c, 1, 45, 107
3, 40536, Note_on_c, 1, 45, 0
3, 40560, Note_on_c, 1, 50, 107
3, 40752, Note_on_c, 1, 57, 0
3, 40848, Note_on_c, 1, 50, 0
3, 40860, Note_on_c, 1, 50, 107
3, 40908, Note_on_c, 1, 50, 0
3, 40920, Note_on_c, 1, 52, 107
3, 40968, Note_on_c, 1, 52, 0
3, 40980, Note_on_c, 1, 53, 107
3, 41028, Note_on_c, 1, 53, 0
3, 41040, Note_on_c, 1, 55, 107
3, 41088, Note_on_c, 1, 55, 0
3, 41100, Note_on_c, 1, 55, 107
3, 41148, Note_on_c, 1, 55, 0
3, 41160, Note_on_c, 1, 57, 107
3, 41208, Note_on_c, 1, 57, 0
3, 41220, Note_on_c, 1, 59, 107
3, 41268, Note_on_c, 1, 59, 0
3, 41280, Note_on_c, 1, 60, 107
3, 41328, Note_on_c, 1, 60, 0
3, 41340, Note_on_c, 1, 60, 107
3, 41388, Note_on_c, 1, 60, 0
3, 41400, Note_on_c, 1, 62, 107
3, 41448, Note_on_c, 1, 62, 0
3, 41460, Note_on_c, 1, 64, 107
3, 41508, Note_on_c, 1, 64, 0
3, 41520, Note_on_c, 1, 65, 107
3, 41808, Note_on_c, 1, 65, 0
3, 41820, Note_on_c, 1, 47, 107
3, 41868, Note_on_c, 1, 47, 0
3, 41880, Note_on_c, 1, 48, 107
3, 41928, Note_on_c, 1, 48, 0
3, 41940, Note_on_c, 1, 50, 107
3, 41988, Note_on_c, 1, 50, 0
3, 42000, Note_on_c, 1, 52, 107
3, 42048, Note_on_c, 1, 52, 0
3, 42060, Note_on_c, 1, 52, 107
3, 42108, Note_on_c, 1, 52, 0
3, 42120, Note_on_c, 1, 54, 107
3, 42168, Note_on_c, 1, 54, 0
3, 42180, Note_on_c, 1, 56, 107
3, 42228, Note_on_c, 1, 56, 0
3, 42240, Note_on_c, 1, 57, 107
3, 42288, Note_on_c, 1, 57, 0
3, 42300, Note_on_c, 1, 57, 107
3, 42348, Note_on_c, 1, 57, 0
3, 42360, Note_on_c, 1, 59, 107
3, 42408, Note_on_c, 1, 59, 0
3, 42420, Note_on_c, 1, 60, 107
3, 42468, Note_on_c, 1, 60, 0
3, 42480, Note_on_c, 1, 62, 107
3, 42768, Note_on_c, 1, 62, 0
3, 42780, Note_on_c, 1, 53, 107
3, 42828, Note_on_c, 1, 53, 0
3, 42840, Note_on_c, 1, 52, 107
3, 42888, Note_on_c, 1, 52, 0
3, 42900, Note_on_c, 1, 50, 107
3, 42948, Note_on_c, 1, 50, 0
3, 42960, Note_on_c, 1, 56, 107
3, 43008, Note_on_c, 1, 56, 0
3, 43020, Note_on_c, 1, 52, 107
3, 43068, Note_on_c, 1, 52, 0
3, 43080, Note_on_c, 1, 53, 107
3, 43128, Note_on_c, 1, 53, 0
3, 43140, Note_on_c, 1, 52, 107
3, 43188, Note_on_c, 1, 52, 0
3, 43200, Note_on_c, 1, 57, 107
3, 43248, Note_on_c, 1, 57, 0
3, 43260, Note_on_c, 1, 50, 107
3, 43308, Note_on_c, 1, 50, 0
3, 43320, Note_on_c, 1, 52, 107
3, 43368, Note_on_c, 1, 52, 0
3, 43380, Note_on_c, 1, 53, 107
3, 43428, Note_on_c, 1, 53, 0
3, 43440, Note_on_c, 1, 44, 107
3, 43488, Note_on_c, 1, 44, 0
3, 43500, Note_on_c, 1, 44, 107
3, 43548, Note_on_c, 1, 44, 0
3, 43560, Note_on_c, 1, 45, 107
3, 43608, Note_on_c, 1, 45, 0
3, 43620, Note_on_c, 1, 47, 107
3, 43668, Note_on_c, 1, 47, 0
3, 43680, Note_on_c, 1, 48, 107
3, 43728, Note_on_c, 1, 48, 0
3, 43740, Note_on_c, 1, 48, 107
3, 43788, Note_on_c, 1, 48, 0
3, 43800, Note_on_c, 1, 50, 107
3, 43848, Note_on_c, 1, 50, 0
3, 43860, Note_on_c, 1, 52, 107
3, 43908, Note_on_c, 1, 52, 0
3, 43920, Note_on_c, 1, 53, 107
3, 44208, Note_on_c, 1, 53, 0
3, 44220, Note_on_c, 1, 50, 107
3, 44268, Note_on_c, 1, 50, 0
3, 44280, Note_on_c, 1, 52, 107
3, 44328, Note_on_c, 1, 52, 0
3, 44340, Note_on_c, 1, 53, 107
3, 44388, Note_on_c, 1, 53, 0
3, 44400, Note_on_c, 1, 47, 107
3, 44448, Note_on_c, 1, 47, 0
3, 44460, Note_on_c, 1, 47, 107
3, 44508, Note_on_c, 1, 47, 0
3, 44520, Note_on_c, 1, 48, 107
3, 44568, Note_on_c, 1, 48, 0
3, 44580, Note_on_c, 1, 50, 107
3, 44628, Note_on_c, 1, 50, 0
3, 44640, Note_on_c, 1, 44, 107
3, 44688, Note_on_c, 1, 44, 0
3, 44700, Note_on_c, 1, 44, 107
3, 44748, Note_on_c, 1, 44, 0
3, 44760, Note_on_c, 1, 45, 107
3, 44808, Note_on_c, 1, 45, 0
3, 44820, Note_on_c, 1, 47, 107
3, 44868, Note_on_c, 1, 47, 0
3, 44880, Note_on_c, 1, 36, 107
3, 44976, Note_on_c, 1, 36, 0
3, 45000, Note_on_c, 1, 48, 107
3, 45048, Note_on_c, 1, 48, 0
3, 45060, Note_on_c, 1, 50, 107
3, 45108, Note_on_c, 1, 50, 0
3, 45120, Note_on_c, 1, 52, 107
3, 45216, Note_on_c, 1, 52, 0
3, 45240, Note_on_c, 1, 40, 107
3, 45336, Note_on_c, 1, 40, 0
3, 45360, Note_on_c, 1, 45, 107
3, 45540, Note_on_c, 1, 49, 107
3, 45588, Note_on_c, 1, 49, 0
3, 45600, Note_on_c, 1, 50, 107
3, 45648, Note_on_c, 1, 50, 0
3, 45660, Note_on_c, 1, 52, 107
3, 45708, Note_on_c, 1, 52, 0
3, 45720, Note_on_c, 1, 53, 107
3, 45744, Note_on_c, 1, 45, 0
3, 45768, Note_on_c, 1, 53, 0
3, 45780, Note_on_c, 1, 56, 107
3, 45828, Note_on_c, 1, 56, 0
3, 45840, Note_on_c, 1, 57, 107
3, 45840, Note_on_c, 1, 57, 107
3, 45888, Note_on_c, 1, 57, 0
3, 45900, Note_on_c, 1, 45, 107
3, 45900, Note_on_c, 1, 45, 107
3, 45948, Note_on_c, 1, 45, 0
3, 45960, Note_on_c, 1, 49, 107
3, 46008, Note_on_c, 1, 49, 0
3, 46020, Note_on_c, 1, 52, 107
3, 46032, Note_on_c, 1, 57, 0
3, 46068, Note_on_c, 1, 52, 0
3, 46080, Note_on_c, 1, 57, 107
3, 46224, Note_on_c, 1, 57, 0
3, 46224, Note_on_c, 1, 45, 0
3, 46224, End_track
4, 0, Start_track
4, 0, MIDI_port, 0
4, 0, Title_t, "Arr. Gary Bricault, (c) 1997"
4, 0, End_track
0, 0, End_of_file
