0, 0, Header, 0, 1, 384
1, 0, Start_track
1, 0, Copyright_t, "(C) John Sankey 1998"
1, 0, Program_c, 0, 6
1, 0, Pitch_bend_c, 0, 8192
1, 0, Program_c, 1, 6
1, 0, Pitch_bend_c, 1, 7792
1, 0, Program_c, 2, 6
1, 0, Pitch_bend_c, 2, 7876
1, 0, Program_c, 3, 6
1, 0, Pitch_bend_c, 3, 7952
1, 0, Program_c, 4, 6
1, 0, Pitch_bend_c, 4, 7792
1, 0, Program_c, 5, 6
1, 0, Pitch_bend_c, 5, 8112
1, 0, Program_c, 6, 6
1, 0, Pitch_bend_c, 6, 7712
1, 0, Program_c, 7, 6
1, 0, Pitch_bend_c, 7, 8037
1, 0, Program_c, 8, 6
1, 0, Pitch_bend_c, 8, 7872
1, 0, Program_c, 10, 6
1, 0, Pitch_bend_c, 10, 7712
1, 0, Program_c, 11, 6
1, 0, Pitch_bend_c, 11, 8032
1, 0, Program_c, 12, 6
1, 0, Pitch_bend_c, 12, 7872
1, 0, Tempo, 500000
1, 238, Note_on_c, 2, 38, 127
1, 240, Note_on_c, 6, 78, 127
1, 240, Note_on_c, 2, 74, 127
1, 240, Note_on_c, 10, 69, 127
1, 240, Note_on_c, 2, 50, 127
1, 984, Note_off_c, 2, 50, 127
1, 1102, Note_on_c, 2, 50, 127
1, 1115, Note_off_c, 2, 38, 127
1, 1171, Note_on_c, 4, 52, 127
1, 1176, Note_off_c, 2, 50, 127
1, 1232, Note_on_c, 6, 54, 127
1, 1245, Note_off_c, 4, 52, 127
1, 1292, Note_on_c, 7, 55, 127
1, 1306, Note_off_c, 6, 54, 127
1, 1353, Note_on_c, 10, 57, 127
1, 1366, Note_off_c, 7, 55, 127
1, 1414, Note_on_c, 12, 59, 127
1, 1427, Note_off_c, 10, 57, 127
1, 1475, Note_on_c, 1, 61, 127
1, 1488, Note_off_c, 12, 59, 127
1, 1536, Note_on_c, 2, 62, 127
1, 1549, Note_off_c, 1, 61, 127
1, 1942, Note_off_c, 10, 69, 127
1, 1942, Note_off_c, 2, 74, 127
1, 1942, Note_off_c, 6, 78, 127
1, 2022, Note_on_c, 6, 78, 127
1, 2022, Note_on_c, 12, 59, 127
1, 2147, Note_off_c, 12, 59, 127
1, 2147, Note_off_c, 6, 78, 127
1, 2150, Note_on_c, 7, 79, 127
1, 2150, Note_on_c, 4, 64, 127
1, 2191, Note_off_c, 7, 79, 127
1, 2193, Note_on_c, 6, 78, 127
1, 2234, Note_off_c, 6, 78, 127
1, 2236, Note_on_c, 7, 79, 127
1, 2631, Note_off_c, 7, 79, 127
1, 2631, Note_off_c, 4, 64, 127
1, 2636, Note_on_c, 10, 81, 127
1, 2636, Note_on_c, 6, 66, 127
1, 2761, Note_off_c, 6, 66, 127
1, 2761, Note_off_c, 10, 81, 127
1, 2764, Note_on_c, 12, 71, 127
1, 2764, Note_on_c, 6, 78, 127
1, 2764, Note_on_c, 7, 67, 127
1, 3067, Note_off_c, 6, 78, 127
1, 3072, Note_on_c, 4, 76, 127
1, 3403, Note_off_c, 12, 71, 127
1, 3429, Note_off_c, 2, 62, 127
1, 3500, Note_off_c, 7, 67, 127
1, 3545, Note_on_c, 4, 64, 127
1, 3609, Note_on_c, 6, 66, 127
1, 3619, Note_off_c, 4, 64, 127
1, 3673, Note_on_c, 7, 67, 127
1, 3683, Note_off_c, 6, 66, 127
1, 3737, Note_on_c, 10, 69, 127
1, 3747, Note_off_c, 7, 67, 127
1, 3801, Note_on_c, 12, 71, 127
1, 3811, Note_off_c, 10, 69, 127
1, 3865, Note_on_c, 1, 73, 127
1, 3875, Note_off_c, 12, 71, 127
1, 3929, Note_on_c, 2, 74, 127
1, 3939, Note_off_c, 1, 73, 127
1, 3971, Note_off_c, 4, 76, 127
1, 3993, Note_on_c, 4, 76, 127
1, 4003, Note_off_c, 2, 74, 127
1, 4480, Note_on_c, 10, 69, 127
1, 4480, Note_on_c, 4, 64, 127
1, 4480, Note_on_c, 1, 61, 127
1, 4605, Note_off_c, 1, 61, 127
1, 4605, Note_off_c, 4, 64, 127
1, 4605, Note_off_c, 10, 69, 127
1, 4608, Note_on_c, 10, 69, 127
1, 4608, Note_on_c, 2, 62, 127
1, 4608, Note_on_c, 12, 59, 127
1, 4660, Note_off_c, 10, 69, 127
1, 4662, Note_on_c, 8, 68, 127
1, 4714, Note_off_c, 8, 68, 127
1, 4716, Note_on_c, 10, 69, 127
1, 4768, Note_off_c, 10, 69, 127
1, 4771, Note_on_c, 8, 68, 127
1, 5089, Note_off_c, 12, 59, 127
1, 5089, Note_off_c, 2, 62, 127
1, 5090, Note_off_c, 8, 68, 127
1, 5094, Note_on_c, 10, 69, 127
1, 5094, Note_on_c, 1, 61, 127
1, 5094, Note_on_c, 10, 57, 127
1, 5185, Note_off_c, 4, 76, 127
1, 5219, Note_off_c, 10, 57, 127
1, 5219, Note_off_c, 1, 61, 127
1, 5219, Note_off_c, 10, 69, 127
1, 5222, Note_on_c, 2, 74, 127
1, 5222, Note_on_c, 12, 59, 127
1, 5222, Note_on_c, 2, 62, 127
1, 5961, Note_on_c, 7, 67, 127
1, 6035, Note_off_c, 7, 67, 127
1, 6038, Note_on_c, 10, 69, 127
1, 6096, Note_off_c, 2, 74, 127
1, 6107, Note_on_c, 12, 71, 127
1, 6112, Note_off_c, 10, 69, 127
1, 6176, Note_on_c, 0, 72, 127
1, 6181, Note_off_c, 12, 71, 127
1, 6244, Note_on_c, 2, 74, 127
1, 6250, Note_off_c, 0, 72, 127
1, 6313, Note_on_c, 4, 76, 127
1, 6318, Note_off_c, 2, 74, 127
1, 6382, Note_on_c, 6, 78, 127
1, 6387, Note_off_c, 4, 76, 127
1, 6451, Note_on_c, 7, 79, 127
1, 6456, Note_off_c, 6, 78, 127
1, 6924, Note_off_c, 2, 62, 127
1, 6924, Note_off_c, 12, 59, 127
1, 6937, Note_on_c, 12, 71, 127
1, 6937, Note_on_c, 4, 52, 127
1, 7062, Note_off_c, 4, 52, 127
1, 7062, Note_off_c, 12, 71, 127
1, 7065, Note_on_c, 4, 76, 127
1, 7065, Note_on_c, 6, 54, 127
1, 7546, Note_off_c, 6, 54, 127
1, 7546, Note_off_c, 4, 76, 127
1, 7552, Note_on_c, 2, 74, 127
1, 7552, Note_on_c, 7, 55, 127
1, 7677, Note_off_c, 7, 55, 127
1, 7677, Note_off_c, 2, 74, 127
1, 7680, Note_on_c, 1, 73, 127
1, 7680, Note_on_c, 10, 57, 127
1, 7961, Note_off_c, 7, 79, 127
1, 8161, Note_off_c, 1, 73, 127
1, 8166, Note_on_c, 7, 79, 127
1, 8166, Note_on_c, 2, 74, 127
1, 8166, Note_on_c, 12, 59, 127
1, 8291, Note_off_c, 12, 59, 127
1, 8291, Note_off_c, 2, 74, 127
1, 8291, Note_off_c, 7, 79, 127
1, 8294, Note_on_c, 4, 76, 127
1, 8294, Note_on_c, 10, 81, 127
1, 8294, Note_on_c, 1, 61, 127
1, 8775, Note_off_c, 1, 61, 127
1, 8775, Note_off_c, 10, 81, 127
1, 8775, Note_off_c, 4, 76, 127
1, 8780, Note_on_c, 12, 83, 127
1, 8780, Note_on_c, 6, 78, 127
1, 8780, Note_on_c, 2, 62, 127
1, 8905, Note_off_c, 2, 62, 127
1, 8905, Note_off_c, 6, 78, 127
1, 8905, Note_off_c, 12, 83, 127
1, 8908, Note_on_c, 10, 69, 127
1, 8908, Note_on_c, 2, 74, 127
1, 8908, Note_on_c, 4, 64, 127
1, 8982, Note_off_c, 2, 74, 127
1, 8985, Note_on_c, 1, 73, 127
1, 9059, Note_off_c, 1, 73, 127
1, 9062, Note_on_c, 2, 74, 127
1, 9136, Note_off_c, 2, 74, 127
1, 9139, Note_on_c, 1, 73, 127
1, 9213, Note_off_c, 1, 73, 127
1, 9216, Note_on_c, 2, 74, 127
1, 9270, Note_off_c, 10, 57, 127
1, 9290, Note_off_c, 2, 74, 127
1, 9292, Note_on_c, 1, 73, 127
1, 9364, Note_off_c, 4, 64, 127
1, 9366, Note_off_c, 1, 73, 127
1, 9369, Note_on_c, 2, 74, 127
1, 9369, Note_on_c, 4, 52, 127
1, 9443, Note_off_c, 2, 74, 127
1, 9446, Note_on_c, 4, 76, 127
1, 9512, Note_off_c, 10, 69, 127
1, 9520, Note_off_c, 4, 76, 127
1, 9520, Note_off_c, 4, 52, 127
1, 9523, Note_on_c, 10, 69, 127
1, 9523, Note_on_c, 1, 49, 127
1, 9676, Note_on_c, 4, 76, 127
1, 9830, Note_on_c, 10, 81, 127
1, 9979, Note_off_c, 1, 49, 127
1, 9981, Note_off_c, 10, 81, 127
1, 9984, Note_on_c, 7, 79, 127
1, 9984, Note_on_c, 10, 45, 127
1, 10121, Note_off_c, 4, 76, 127
1, 10127, Note_off_c, 10, 69, 127
1, 10135, Note_off_c, 10, 45, 127
1, 10135, Note_off_c, 7, 79, 127
1, 10137, Note_on_c, 10, 69, 127
1, 10137, Note_on_c, 2, 74, 127
1, 10137, Note_on_c, 7, 79, 127
1, 10137, Note_on_c, 2, 50, 127
1, 10440, Note_off_c, 7, 79, 127
1, 10444, Note_on_c, 6, 78, 127
1, 10682, Note_off_c, 6, 78, 127
1, 10719, Note_off_c, 2, 74, 127
1, 10752, Note_on_c, 4, 76, 127
1, 10836, Note_off_c, 2, 50, 127
1, 10905, Note_on_c, 1, 49, 127
1, 10979, Note_off_c, 1, 49, 127
1, 10982, Note_on_c, 12, 47, 127
1, 11056, Note_off_c, 12, 47, 127
1, 11059, Note_on_c, 2, 74, 127
1, 11059, Note_on_c, 10, 45, 127
1, 11073, Note_off_c, 4, 76, 127
1, 11133, Note_off_c, 10, 45, 127
1, 11136, Note_on_c, 7, 43, 127
1, 11210, Note_off_c, 7, 43, 127
1, 11212, Note_on_c, 6, 42, 127
1, 11286, Note_off_c, 6, 42, 127
1, 11289, Note_on_c, 4, 40, 127
1, 11337, Note_off_c, 2, 74, 127
1, 11356, Note_off_c, 10, 69, 127
1, 11363, Note_off_c, 4, 40, 127
1, 11366, Note_on_c, 10, 69, 127
1, 11366, Note_on_c, 2, 74, 127
1, 11366, Note_on_c, 6, 78, 127
1, 11366, Note_on_c, 2, 38, 127
1, 11415, Note_off_c, 2, 74, 127
1, 11417, Note_on_c, 1, 73, 127
1, 11466, Note_off_c, 1, 73, 127
1, 11468, Note_on_c, 2, 74, 127
1, 11822, Note_off_c, 2, 38, 127
1, 11827, Note_on_c, 2, 50, 127
1, 11978, Note_off_c, 2, 50, 127
1, 11980, Note_on_c, 4, 52, 127
1, 12383, Note_off_c, 6, 78, 127
1, 12383, Note_off_c, 10, 69, 127
1, 12458, Note_off_c, 2, 74, 127
1, 12461, Note_off_c, 4, 52, 127
1, 12467, Note_on_c, 6, 78, 127
1, 12467, Note_on_c, 10, 69, 127
1, 12467, Note_on_c, 6, 54, 127
1, 12592, Note_off_c, 6, 54, 127
1, 12592, Note_off_c, 10, 69, 127
1, 12592, Note_off_c, 6, 78, 127
1, 12595, Note_on_c, 12, 71, 127
1, 12595, Note_on_c, 6, 78, 127
1, 12595, Note_on_c, 7, 43, 127
1, 13076, Note_off_c, 7, 43, 127
1, 13081, Note_on_c, 2, 62, 127
1, 13206, Note_off_c, 2, 62, 127
1, 13209, Note_on_c, 4, 64, 127
1, 13278, Note_on_c, 12, 83, 127
1, 13280, Note_off_c, 6, 78, 127
1, 13280, Note_off_c, 12, 71, 127
1, 13343, Note_off_c, 12, 83, 127
1, 13347, Note_on_c, 10, 81, 127
1, 13413, Note_off_c, 10, 81, 127
1, 13416, Note_on_c, 7, 79, 127
1, 13482, Note_off_c, 7, 79, 127
1, 13484, Note_on_c, 6, 78, 127
1, 13549, Note_off_c, 6, 78, 127
1, 13553, Note_on_c, 4, 76, 127
1, 13619, Note_off_c, 4, 76, 127
1, 13620, Note_on_c, 3, 75, 127
1, 13665, Note_off_c, 4, 64, 127
1, 13686, Note_off_c, 3, 75, 127
1, 13689, Note_on_c, 1, 73, 127
1, 13689, Note_on_c, 6, 66, 127
1, 13755, Note_off_c, 1, 73, 127
1, 13760, Note_on_c, 12, 71, 127
1, 13824, Note_off_c, 6, 66, 127
1, 13824, Note_on_c, 7, 67, 127
1, 13825, Note_on_c, 4, 76, 127
1, 14280, Note_off_c, 7, 67, 127
1, 14284, Note_on_c, 7, 43, 127
1, 14435, Note_off_c, 7, 43, 127
1, 14438, Note_on_c, 7, 43, 127
1, 14512, Note_off_c, 7, 43, 127
1, 14515, Note_on_c, 6, 42, 127
1, 14589, Note_off_c, 6, 42, 127
1, 14592, Note_on_c, 7, 43, 127
1, 14666, Note_off_c, 7, 43, 127
1, 14668, Note_on_c, 6, 42, 127
1, 14742, Note_off_c, 6, 42, 127
1, 14745, Note_on_c, 7, 43, 127
1, 14819, Note_off_c, 7, 43, 127
1, 14822, Note_on_c, 6, 42, 127
1, 14826, Note_off_c, 12, 71, 127
1, 14891, Note_off_c, 4, 76, 127
1, 14896, Note_off_c, 6, 42, 127
1, 14899, Note_on_c, 4, 76, 127
1, 14899, Note_on_c, 4, 40, 127
1, 15050, Note_off_c, 4, 40, 127
1, 15050, Note_off_c, 4, 76, 127
1, 15052, Note_on_c, 4, 76, 127
1, 15052, Note_on_c, 12, 47, 127
1, 15432, Note_off_c, 4, 76, 127
1, 15438, Note_on_c, 2, 74, 127
1, 15513, Note_on_c, 6, 54, 127
1, 15516, Note_on_c, 1, 73, 127
1, 15517, Note_off_c, 2, 74, 127
1, 15595, Note_off_c, 1, 73, 127
1, 15595, Note_on_c, 2, 74, 127
1, 15664, Note_off_c, 6, 54, 127
1, 15667, Note_on_c, 8, 56, 127
1, 15673, Note_on_c, 4, 76, 127
1, 15674, Note_off_c, 2, 74, 127
1, 15726, Note_on_c, 2, 74, 127
1, 15736, Note_off_c, 4, 76, 127
1, 15779, Note_on_c, 4, 76, 127
1, 15789, Note_off_c, 2, 74, 127
1, 15832, Note_on_c, 2, 74, 127
1, 15842, Note_off_c, 4, 76, 127
1, 15884, Note_on_c, 4, 76, 127
1, 15895, Note_off_c, 2, 74, 127
1, 15937, Note_on_c, 2, 74, 127
1, 15947, Note_off_c, 4, 76, 127
1, 15990, Note_on_c, 4, 76, 127
1, 16000, Note_off_c, 2, 74, 127
1, 16043, Note_on_c, 2, 74, 127
1, 16053, Note_off_c, 4, 76, 127
1, 16132, Note_off_c, 2, 74, 127
1, 16148, Note_off_c, 8, 56, 127
1, 16153, Note_on_c, 1, 73, 127
1, 16153, Note_on_c, 11, 58, 127
1, 16271, Note_off_c, 12, 47, 127
1, 16278, Note_off_c, 11, 58, 127
1, 16278, Note_off_c, 1, 73, 127
1, 16281, Note_on_c, 2, 74, 127
1, 16281, Note_on_c, 12, 71, 127
1, 16281, Note_on_c, 12, 59, 127
1, 16762, Note_off_c, 12, 59, 127
1, 16768, Note_on_c, 12, 47, 127
1, 16893, Note_off_c, 12, 47, 127
1, 16896, Note_on_c, 1, 49, 127
1, 17377, Note_off_c, 1, 49, 127
1, 17382, Note_on_c, 2, 50, 127
1, 17507, Note_off_c, 2, 50, 127
1, 17510, Note_on_c, 8, 44, 127
1, 17664, Note_off_c, 2, 74, 127
1, 17839, Note_off_c, 12, 71, 127
1, 17890, Note_off_c, 8, 44, 127
1, 17894, Note_on_c, 2, 74, 127
1, 17894, Note_on_c, 4, 52, 127
1, 17968, Note_off_c, 4, 52, 127
1, 17968, Note_off_c, 2, 74, 127
1, 17971, Note_on_c, 1, 73, 127
1, 17971, Note_on_c, 6, 54, 127
1, 18045, Note_off_c, 6, 54, 127
1, 18045, Note_off_c, 1, 73, 127
1, 18048, Note_on_c, 12, 71, 127
1, 18048, Note_on_c, 8, 56, 127
1, 18122, Note_off_c, 8, 56, 127
1, 18122, Note_off_c, 12, 71, 127
1, 18124, Note_on_c, 1, 73, 127
1, 18124, Note_on_c, 10, 57, 127
1, 18163, Note_on_c, 12, 71, 127
1, 18171, Note_off_c, 1, 73, 127
1, 18201, Note_on_c, 1, 73, 127
1, 18210, Note_off_c, 12, 71, 127
1, 18580, Note_off_c, 10, 57, 127
1, 18581, Note_off_c, 1, 73, 127
1, 18585, Note_on_c, 2, 74, 127
1, 18585, Note_on_c, 12, 59, 127
1, 18736, Note_off_c, 12, 59, 127
1, 18736, Note_off_c, 2, 74, 127
1, 18739, Note_on_c, 4, 76, 127
1, 18739, Note_on_c, 1, 61, 127
1, 19195, Note_off_c, 1, 61, 127
1, 19195, Note_off_c, 4, 76, 127
1, 19200, Note_on_c, 10, 69, 127
1, 19200, Note_on_c, 2, 74, 127
1, 19200, Note_on_c, 6, 78, 127
1, 19200, Note_on_c, 2, 62, 127
1, 19351, Note_off_c, 2, 62, 127
1, 19351, Note_off_c, 6, 78, 127
1, 19351, Note_off_c, 2, 74, 127
1, 19351, Note_off_c, 10, 69, 127
1, 19353, Note_on_c, 12, 71, 127
1, 19353, Note_on_c, 2, 74, 127
1, 19353, Note_on_c, 8, 80, 127
1, 19353, Note_on_c, 12, 59, 127
1, 19809, Note_off_c, 12, 59, 127
1, 19809, Note_off_c, 8, 80, 127
1, 19809, Note_off_c, 2, 74, 127
1, 19809, Note_off_c, 12, 71, 127
1, 19814, Note_on_c, 1, 73, 127
1, 19814, Note_on_c, 4, 76, 127
1, 19814, Note_on_c, 10, 81, 127
1, 19814, Note_on_c, 10, 57, 127
1, 19965, Note_off_c, 10, 57, 127
1, 19965, Note_off_c, 10, 81, 127
1, 19965, Note_off_c, 4, 76, 127
1, 19965, Note_off_c, 1, 73, 127
1, 19968, Note_on_c, 12, 71, 127
1, 19968, Note_on_c, 4, 76, 127
1, 19968, Note_on_c, 8, 80, 127
1, 19968, Note_on_c, 4, 64, 127
1, 20109, Note_off_c, 8, 80, 127
1, 20112, Note_on_c, 6, 78, 127
1, 20253, Note_off_c, 6, 78, 127
1, 20256, Note_on_c, 8, 80, 127
1, 20424, Note_off_c, 4, 64, 127
1, 20428, Note_on_c, 2, 62, 127
1, 20502, Note_off_c, 2, 62, 127
1, 20505, Note_on_c, 1, 61, 127
1, 20572, Note_off_c, 4, 76, 127
1, 20572, Note_off_c, 12, 71, 127
1, 20579, Note_off_c, 1, 61, 127
1, 20582, Note_on_c, 12, 59, 127
1, 20731, Note_off_c, 8, 80, 127
1, 20736, Note_on_c, 6, 78, 127
1, 20810, Note_off_c, 6, 78, 127
1, 20812, Note_on_c, 8, 80, 127
1, 20886, Note_off_c, 8, 80, 127
1, 20889, Note_on_c, 10, 81, 127
1, 20963, Note_off_c, 10, 81, 127
1, 20966, Note_on_c, 8, 80, 127
1, 21038, Note_off_c, 12, 59, 127
1, 21040, Note_off_c, 8, 80, 127
1, 21043, Note_on_c, 6, 78, 127
1, 21043, Note_on_c, 2, 62, 127
1, 21117, Note_off_c, 6, 78, 127
1, 21120, Note_on_c, 4, 76, 127
1, 21194, Note_off_c, 4, 76, 127
1, 21194, Note_off_c, 2, 62, 127
1, 21196, Note_on_c, 12, 83, 127
1, 21196, Note_on_c, 8, 56, 127
1, 21652, Note_off_c, 8, 56, 127
1, 21657, Note_on_c, 8, 80, 127
1, 21657, Note_on_c, 12, 59, 127
1, 21808, Note_off_c, 12, 59, 127
1, 21808, Note_off_c, 8, 80, 127
1, 21811, Note_on_c, 2, 74, 127
1, 21811, Note_on_c, 4, 52, 127
1, 22267, Note_off_c, 4, 52, 127
1, 22272, Note_on_c, 8, 56, 127
1, 22423, Note_off_c, 8, 56, 127
1, 22425, Note_on_c, 6, 42, 127
1, 22496, Note_off_c, 2, 74, 127
1, 22502, Note_on_c, 12, 71, 127
1, 22576, Note_off_c, 12, 71, 127
1, 22579, Note_on_c, 1, 73, 127
1, 22653, Note_off_c, 1, 73, 127
1, 22656, Note_on_c, 2, 74, 127
1, 22730, Note_off_c, 2, 74, 127
1, 22732, Note_on_c, 1, 73, 127
1, 22806, Note_off_c, 1, 73, 127
1, 22809, Note_on_c, 12, 71, 127
1, 22865, Note_off_c, 12, 83, 127
1, 22883, Note_off_c, 12, 71, 127
1, 22886, Note_on_c, 10, 69, 127
1, 22960, Note_off_c, 10, 69, 127
1, 22963, Note_on_c, 8, 68, 127
1, 23037, Note_off_c, 8, 68, 127
1, 23040, Note_on_c, 10, 69, 127
1, 23174, Note_on_c, 12, 71, 127
1, 23252, Note_on_c, 1, 73, 127
1, 23258, Note_off_c, 12, 71, 127
1, 23331, Note_on_c, 2, 74, 127
1, 23336, Note_off_c, 1, 73, 127
1, 23377, Note_off_c, 6, 42, 127
1, 23385, Note_on_c, 6, 54, 127
1, 23409, Note_on_c, 4, 76, 127
1, 23415, Note_off_c, 2, 74, 127
1, 23437, Note_off_c, 10, 69, 127
1, 23469, Note_off_c, 6, 54, 127
1, 23472, Note_on_c, 4, 52, 127
1, 23488, Note_on_c, 6, 78, 127
1, 23493, Note_off_c, 4, 76, 127
1, 23556, Note_off_c, 4, 52, 127
1, 23558, Note_on_c, 2, 50, 127
1, 23566, Note_on_c, 8, 80, 127
1, 23572, Note_off_c, 6, 78, 127
1, 23651, Note_off_c, 2, 50, 127
1, 23654, Note_on_c, 10, 81, 127
1, 23654, Note_on_c, 1, 49, 127
1, 23659, Note_off_c, 8, 80, 127
1, 24038, Note_on_c, 2, 74, 127
1, 24110, Note_off_c, 1, 49, 127
1, 24112, Note_off_c, 2, 74, 127
1, 24115, Note_on_c, 1, 73, 127
1, 24115, Note_on_c, 4, 52, 127
1, 24189, Note_off_c, 1, 73, 127
1, 24192, Note_on_c, 12, 71, 127
1, 24266, Note_off_c, 12, 71, 127
1, 24266, Note_off_c, 4, 52, 127
1, 24268, Note_on_c, 1, 73, 127
1, 24268, Note_on_c, 10, 45, 127
1, 24385, Note_off_c, 10, 81, 127
1, 24422, Note_on_c, 4, 76, 127
1, 24576, Note_on_c, 7, 79, 127
1, 24724, Note_off_c, 10, 45, 127
1, 24729, Note_on_c, 1, 49, 127
1, 24880, Note_off_c, 1, 49, 127
1, 24883, Note_on_c, 2, 38, 127
1, 25026, Note_off_c, 4, 76, 127
1, 25031, Note_off_c, 1, 73, 127
1, 25263, Note_off_c, 2, 38, 127
1, 25267, Note_on_c, 1, 73, 127
1, 25267, Note_on_c, 10, 45, 127
1, 25341, Note_off_c, 10, 45, 127
1, 25341, Note_off_c, 1, 73, 127
1, 25344, Note_on_c, 2, 74, 127
1, 25344, Note_on_c, 12, 47, 127
1, 25418, Note_off_c, 12, 47, 127
1, 25418, Note_off_c, 2, 74, 127
1, 25420, Note_on_c, 4, 76, 127
1, 25420, Note_on_c, 1, 49, 127
1, 25479, Note_off_c, 7, 79, 127
1, 25494, Note_off_c, 1, 49, 127
1, 25494, Note_off_c, 4, 76, 127
1, 25497, Note_on_c, 6, 78, 127
1, 25497, Note_on_c, 2, 50, 127
1, 25571, Note_off_c, 6, 78, 127
1, 25574, Note_on_c, 7, 79, 127
1, 25648, Note_off_c, 7, 79, 127
1, 25651, Note_on_c, 6, 78, 127
1, 25725, Note_off_c, 6, 78, 127
1, 25728, Note_on_c, 4, 76, 127
1, 25802, Note_off_c, 4, 76, 127
1, 25804, Note_on_c, 2, 74, 127
1, 25878, Note_off_c, 2, 74, 127
1, 25881, Note_on_c, 1, 73, 127
1, 25955, Note_off_c, 1, 73, 127
1, 25958, Note_on_c, 12, 71, 127
1, 26032, Note_off_c, 12, 71, 127
1, 26035, Note_on_c, 10, 69, 127
1, 26109, Note_off_c, 10, 69, 127
1, 26112, Note_on_c, 8, 68, 127
1, 26589, Note_off_c, 2, 50, 127
1, 26598, Note_on_c, 12, 71, 127
1, 26598, Note_on_c, 2, 50, 127
1, 26716, Note_off_c, 8, 68, 127
1, 26723, Note_off_c, 2, 50, 127
1, 26723, Note_off_c, 12, 71, 127
1, 26726, Note_on_c, 4, 76, 127
1, 26726, Note_on_c, 1, 49, 127
1, 27207, Note_off_c, 1, 49, 127
1, 27212, Note_on_c, 8, 68, 127
1, 27212, Note_on_c, 12, 47, 127
1, 27337, Note_off_c, 12, 47, 127
1, 27337, Note_off_c, 8, 68, 127
1, 27340, Note_on_c, 10, 69, 127
1, 27340, Note_on_c, 1, 49, 127
1, 27491, Note_off_c, 1, 49, 127
1, 27494, Note_on_c, 4, 52, 127
1, 27645, Note_off_c, 4, 52, 127
1, 27648, Note_on_c, 2, 50, 127
1, 27711, Note_off_c, 4, 76, 127
1, 27720, Note_off_c, 10, 69, 127
1, 27724, Note_on_c, 6, 78, 127
1, 27798, Note_off_c, 6, 78, 127
1, 27799, Note_off_c, 2, 50, 127
1, 27801, Note_on_c, 8, 80, 127
1, 27801, Note_on_c, 1, 49, 127
1, 27875, Note_off_c, 8, 80, 127
1, 27878, Note_on_c, 10, 81, 127
1, 27952, Note_off_c, 10, 81, 127
1, 27952, Note_off_c, 1, 49, 127
1, 27955, Note_on_c, 10, 81, 127
1, 27955, Note_on_c, 12, 47, 127
1, 28020, Note_off_c, 10, 81, 127
1, 28022, Note_on_c, 8, 80, 127
1, 28087, Note_off_c, 8, 80, 127
1, 28089, Note_on_c, 10, 81, 127
1, 28106, Note_off_c, 12, 47, 127
1, 28108, Note_on_c, 1, 49, 127
1, 28154, Note_off_c, 10, 81, 127
1, 28156, Note_on_c, 8, 80, 127
1, 28221, Note_off_c, 8, 80, 127
1, 28224, Note_on_c, 10, 81, 127
1, 28259, Note_off_c, 1, 49, 127
1, 28262, Note_on_c, 10, 45, 127
1, 28289, Note_off_c, 10, 81, 127
1, 28291, Note_on_c, 8, 80, 127
1, 28356, Note_off_c, 8, 80, 127
1, 28358, Note_on_c, 6, 78, 127
1, 28423, Note_off_c, 6, 78, 127
1, 28425, Note_on_c, 8, 80, 127
1, 28490, Note_off_c, 8, 80, 127
1, 28492, Note_on_c, 10, 81, 127
1, 28565, Note_off_c, 10, 45, 127
1, 28566, Note_off_c, 10, 81, 127
1, 28569, Note_on_c, 1, 73, 127
1, 28569, Note_on_c, 8, 68, 127
1, 28569, Note_on_c, 4, 52, 127
1, 28720, Note_off_c, 1, 73, 127
1, 28723, Note_on_c, 12, 71, 127
1, 28772, Note_off_c, 12, 71, 127
1, 28774, Note_on_c, 1, 73, 127
1, 28823, Note_off_c, 1, 73, 127
1, 28825, Note_on_c, 12, 71, 127
1, 28874, Note_off_c, 12, 71, 127
1, 28876, Note_on_c, 1, 73, 127
1, 28925, Note_off_c, 1, 73, 127
1, 28928, Note_on_c, 12, 71, 127
1, 28977, Note_off_c, 12, 71, 127
1, 28979, Note_on_c, 1, 73, 127
1, 29028, Note_off_c, 1, 73, 127
1, 29030, Note_on_c, 12, 71, 127
1, 29079, Note_off_c, 12, 71, 127
1, 29081, Note_on_c, 1, 73, 127
1, 29130, Note_off_c, 1, 73, 127
1, 29132, Note_on_c, 12, 71, 127
1, 29177, Note_off_c, 4, 52, 127
1, 29184, Note_on_c, 4, 40, 127
1, 29486, Note_off_c, 12, 71, 127
1, 29491, Note_off_c, 8, 68, 127
1, 29491, Note_on_c, 10, 69, 127
1, 29792, Note_off_c, 4, 40, 127
1, 29794, Note_off_c, 10, 69, 127
1, 29798, Note_on_c, 10, 69, 127
1, 29798, Note_on_c, 10, 45, 127
1, 30254, Note_off_c, 10, 69, 127
1, 30259, Note_on_c, 1, 73, 127
1, 30308, Note_off_c, 1, 73, 127
1, 30310, Note_on_c, 12, 71, 127
1, 30359, Note_off_c, 12, 71, 127
1, 30361, Note_on_c, 10, 69, 127
1, 30410, Note_off_c, 10, 69, 127
1, 30412, Note_on_c, 7, 79, 127
1, 30712, Note_off_c, 10, 45, 127
1, 30720, Note_on_c, 12, 47, 127
1, 30769, Note_off_c, 12, 47, 127
1, 30771, Note_on_c, 1, 49, 127
1, 30820, Note_off_c, 1, 49, 127
1, 30822, Note_on_c, 2, 50, 127
1, 30871, Note_off_c, 2, 50, 127
1, 30873, Note_on_c, 4, 52, 127
1, 30919, Note_off_c, 7, 79, 127
1, 30922, Note_off_c, 4, 52, 127
1, 30924, Note_on_c, 4, 76, 127
1, 30924, Note_on_c, 6, 54, 127
1, 30973, Note_off_c, 6, 54, 127
1, 30976, Note_on_c, 7, 55, 127
1, 31024, Note_off_c, 4, 76, 127
1, 31025, Note_off_c, 7, 55, 127
1, 31027, Note_on_c, 6, 78, 127
1, 31027, Note_on_c, 10, 57, 127
1, 31488, Note_on_c, 4, 76, 127
1, 31537, Note_off_c, 4, 76, 127
1, 31539, Note_on_c, 2, 74, 127
1, 31588, Note_off_c, 2, 74, 127
1, 31590, Note_on_c, 1, 73, 127
1, 31639, Note_off_c, 1, 73, 127
1, 31641, Note_on_c, 2, 74, 127
1, 31992, Note_off_c, 10, 57, 127
1, 32000, Note_on_c, 12, 59, 127
1, 32049, Note_off_c, 12, 59, 127
1, 32051, Note_on_c, 1, 61, 127
1, 32100, Note_off_c, 1, 61, 127
1, 32102, Note_on_c, 2, 62, 127
1, 32151, Note_off_c, 2, 62, 127
1, 32153, Note_on_c, 4, 64, 127
1, 32202, Note_off_c, 4, 64, 127
1, 32204, Note_on_c, 6, 66, 127
1, 32253, Note_off_c, 6, 66, 127
1, 32256, Note_on_c, 7, 67, 127
1, 32617, Note_off_c, 6, 78, 127
1, 32697, Note_on_c, 6, 78, 127
1, 32707, Note_off_c, 2, 74, 127
1, 32755, Note_on_c, 4, 76, 127
1, 32760, Note_off_c, 6, 78, 127
1, 32812, Note_on_c, 2, 74, 127
1, 32818, Note_off_c, 4, 76, 127
1, 32866, Note_off_c, 2, 74, 127
1, 32870, Note_on_c, 4, 76, 127
1, 33312, Note_on_c, 2, 74, 127
1, 33369, Note_off_c, 2, 74, 127
1, 33369, Note_on_c, 1, 73, 127
1, 33426, Note_off_c, 1, 73, 127
1, 33427, Note_on_c, 12, 71, 127
1, 33481, Note_off_c, 12, 71, 127
1, 33484, Note_on_c, 1, 73, 127
1, 33831, Note_off_c, 7, 67, 127
1, 33843, Note_on_c, 10, 57, 127
1, 33892, Note_off_c, 10, 57, 127
1, 33894, Note_on_c, 12, 59, 127
1, 33943, Note_off_c, 12, 59, 127
1, 33945, Note_on_c, 1, 61, 127
1, 33994, Note_off_c, 1, 61, 127
1, 33996, Note_on_c, 2, 62, 127
1, 34045, Note_off_c, 2, 62, 127
1, 34048, Note_on_c, 4, 64, 127
1, 34097, Note_off_c, 4, 64, 127
1, 34099, Note_on_c, 6, 66, 127
1, 34460, Note_off_c, 4, 76, 127
1, 34540, Note_on_c, 4, 76, 127
1, 34550, Note_off_c, 1, 73, 127
1, 34595, Note_off_c, 4, 76, 127
1, 34598, Note_on_c, 2, 74, 127
1, 34653, Note_off_c, 2, 74, 127
1, 34656, Note_on_c, 1, 73, 127
1, 34711, Note_off_c, 1, 73, 127
1, 34713, Note_on_c, 2, 74, 127
1, 35155, Note_on_c, 1, 73, 127
1, 35210, Note_off_c, 1, 73, 127
1, 35212, Note_on_c, 12, 71, 127
1, 35267, Note_off_c, 12, 71, 127
1, 35270, Note_on_c, 10, 69, 127
1, 35325, Note_off_c, 10, 69, 127
1, 35328, Note_on_c, 12, 71, 127
1, 35769, Note_on_c, 10, 69, 127
1, 35776, Note_off_c, 6, 66, 127
1, 35818, Note_off_c, 10, 69, 127
1, 35827, Note_on_c, 8, 68, 127
1, 35876, Note_off_c, 8, 68, 127
1, 35884, Note_on_c, 6, 66, 127
1, 35933, Note_off_c, 6, 66, 127
1, 35942, Note_on_c, 8, 68, 127
1, 36303, Note_off_c, 2, 74, 127
1, 36374, Note_on_c, 5, 77, 127
1, 36394, Note_off_c, 12, 71, 127
1, 36431, Note_off_c, 5, 77, 127
1, 36435, Note_on_c, 4, 76, 127
1, 36492, Note_off_c, 4, 76, 127
1, 36496, Note_on_c, 2, 74, 127
1, 36553, Note_off_c, 2, 74, 127
1, 36556, Note_on_c, 12, 83, 127
1, 36805, Note_off_c, 8, 68, 127
1, 36812, Note_on_c, 10, 57, 127
1, 36861, Note_off_c, 10, 57, 127
1, 36864, Note_on_c, 12, 59, 127
1, 36913, Note_off_c, 12, 59, 127
1, 36915, Note_on_c, 0, 60, 127
1, 36964, Note_off_c, 0, 60, 127
1, 36966, Note_on_c, 2, 62, 127
1, 37012, Note_off_c, 12, 83, 127
1, 37015, Note_off_c, 2, 62, 127
1, 37017, Note_on_c, 8, 80, 127
1, 37017, Note_on_c, 4, 64, 127
1, 37066, Note_off_c, 4, 64, 127
1, 37066, Note_off_c, 8, 80, 127
1, 37068, Note_on_c, 6, 78, 127
1, 37068, Note_on_c, 6, 66, 127
1, 37117, Note_off_c, 6, 66, 127
1, 37117, Note_off_c, 6, 78, 127
1, 37120, Note_on_c, 4, 76, 127
1, 37120, Note_on_c, 8, 68, 127
1, 37169, Note_off_c, 8, 68, 127
1, 37169, Note_off_c, 4, 76, 127
1, 37171, Note_on_c, 0, 84, 127
1, 37171, Note_on_c, 10, 69, 127
1, 37551, Note_off_c, 10, 69, 127
1, 37555, Note_on_c, 7, 67, 127
1, 37629, Note_off_c, 7, 67, 127
1, 37632, Note_on_c, 5, 65, 127
1, 37706, Note_off_c, 5, 65, 127
1, 37708, Note_on_c, 4, 64, 127
1, 37782, Note_off_c, 4, 64, 127
1, 37785, Note_on_c, 5, 65, 127
1, 37936, Note_off_c, 5, 65, 127
1, 37939, Note_on_c, 7, 67, 127
1, 38090, Note_off_c, 7, 67, 127
1, 38092, Note_on_c, 10, 69, 127
1, 38243, Note_off_c, 10, 69, 127
1, 38246, Note_on_c, 5, 65, 127
1, 38397, Note_off_c, 5, 65, 127
1, 38400, Note_on_c, 4, 64, 127
1, 38703, Note_off_c, 4, 64, 127
1, 38707, Note_on_c, 3, 63, 127
1, 38848, Note_off_c, 0, 84, 127
1, 38860, Note_on_c, 12, 83, 127
1, 38909, Note_off_c, 12, 83, 127
1, 38912, Note_on_c, 10, 81, 127
1, 38961, Note_off_c, 10, 81, 127
1, 38963, Note_on_c, 8, 80, 127
1, 39012, Note_off_c, 8, 80, 127
1, 39014, Note_on_c, 10, 81, 127
1, 39372, Note_on_c, 4, 64, 127
1, 39421, Note_off_c, 4, 64, 127
1, 39424, Note_on_c, 6, 66, 127
1, 39473, Note_off_c, 6, 66, 127
1, 39475, Note_on_c, 8, 68, 127
1, 39524, Note_off_c, 8, 68, 127
1, 39526, Note_on_c, 10, 69, 127
1, 39575, Note_off_c, 10, 69, 127
1, 39577, Note_on_c, 12, 71, 127
1, 39626, Note_off_c, 12, 71, 127
1, 39628, Note_on_c, 0, 72, 127
1, 39939, Note_off_c, 3, 63, 127
1, 40070, Note_on_c, 2, 62, 127
1, 40070, Note_on_c, 12, 83, 127
1, 40084, Note_off_c, 0, 72, 127
1, 40087, Note_off_c, 10, 81, 127
1, 40119, Note_off_c, 2, 62, 127
1, 40125, Note_off_c, 12, 83, 127
1, 40128, Note_on_c, 10, 81, 127
1, 40128, Note_on_c, 0, 60, 127
1, 40177, Note_off_c, 0, 60, 127
1, 40183, Note_off_c, 10, 81, 127
1, 40185, Note_on_c, 12, 59, 127
1, 40185, Note_on_c, 8, 80, 127
1, 40234, Note_off_c, 12, 59, 127
1, 40240, Note_off_c, 8, 80, 127
1, 40243, Note_on_c, 10, 81, 127
1, 40243, Note_on_c, 0, 60, 127
1, 40394, Note_off_c, 10, 81, 127
1, 40396, Note_on_c, 6, 78, 127
1, 40470, Note_off_c, 0, 60, 127
1, 40473, Note_on_c, 10, 57, 127
1, 40547, Note_off_c, 10, 57, 127
1, 40550, Note_on_c, 3, 51, 127
1, 40704, Note_on_c, 8, 80, 127
1, 40841, Note_off_c, 6, 78, 127
1, 40853, Note_off_c, 3, 51, 127
1, 40855, Note_off_c, 8, 80, 127
1, 40857, Note_on_c, 4, 76, 127
1, 40857, Note_on_c, 10, 81, 127
1, 40857, Note_on_c, 12, 59, 127
1, 40857, Note_on_c, 4, 52, 127
1, 40957, Note_off_c, 10, 81, 127
1, 40960, Note_on_c, 8, 80, 127
1, 41009, Note_off_c, 8, 80, 127
1, 41011, Note_on_c, 10, 81, 127
1, 41060, Note_off_c, 10, 81, 127
1, 41062, Note_on_c, 8, 80, 127
1, 41111, Note_off_c, 8, 80, 127
1, 41113, Note_on_c, 10, 81, 127
1, 41162, Note_off_c, 10, 81, 127
1, 41164, Note_on_c, 8, 80, 127
1, 41213, Note_off_c, 8, 80, 127
1, 41216, Note_on_c, 10, 81, 127
1, 41265, Note_off_c, 10, 81, 127
1, 41267, Note_on_c, 8, 80, 127
1, 41316, Note_off_c, 8, 80, 127
1, 41318, Note_on_c, 10, 81, 127
1, 41367, Note_off_c, 10, 81, 127
1, 41369, Note_on_c, 8, 80, 127
1, 41461, Note_off_c, 4, 76, 127
1, 41465, Note_off_c, 4, 52, 127
1, 41465, Note_off_c, 12, 59, 127
1, 41472, Note_on_c, 2, 74, 127
1, 41472, Note_on_c, 4, 64, 127
1, 41779, Note_on_c, 10, 81, 127
1, 41814, Note_off_c, 8, 80, 127
1, 41877, Note_off_c, 2, 74, 127
1, 41980, Note_off_c, 10, 81, 127
1, 41984, Note_on_c, 10, 57, 127
1, 41984, Note_on_c, 10, 81, 127
1, 42188, Note_on_c, 1, 73, 127
1, 42389, Note_off_c, 1, 73, 127
1, 42389, Note_off_c, 10, 81, 127
1, 42389, Note_off_c, 10, 57, 127
1, 42393, Note_on_c, 4, 76, 127
1, 42426, Note_off_c, 4, 64, 127
1, 42594, Note_off_c, 4, 76, 127
1, 42598, Note_on_c, 6, 78, 127
1, 42799, Note_off_c, 6, 78, 127
1, 42803, Note_on_c, 12, 71, 127
1, 43004, Note_off_c, 12, 71, 127
1, 43008, Note_on_c, 2, 74, 127
1, 43209, Note_off_c, 2, 74, 127
1, 43212, Note_on_c, 4, 76, 127
1, 43413, Note_off_c, 4, 76, 127
1, 43417, Note_on_c, 10, 69, 127
1, 43618, Note_off_c, 10, 69, 127
1, 43622, Note_on_c, 1, 73, 127
1, 43823, Note_off_c, 1, 73, 127
1, 43827, Note_on_c, 2, 74, 127
1, 44028, Note_off_c, 2, 74, 127
1, 44032, Note_on_c, 4, 76, 127
1, 44132, Note_off_c, 4, 76, 127
1, 44134, Note_on_c, 2, 74, 127
1, 44234, Note_off_c, 2, 74, 127
1, 44236, Note_on_c, 1, 73, 127
1, 44336, Note_off_c, 1, 73, 127
1, 44339, Note_on_c, 12, 71, 127
1, 44439, Note_off_c, 12, 71, 127
1, 44441, Note_on_c, 4, 76, 127
1, 44642, Note_off_c, 4, 76, 127
1, 44646, Note_on_c, 10, 69, 127
1, 44847, Note_off_c, 10, 69, 127
1, 44851, Note_on_c, 1, 73, 127
1, 45052, Note_off_c, 1, 73, 127
1, 45056, Note_on_c, 2, 74, 127
1, 45257, Note_off_c, 2, 74, 127
1, 45260, Note_on_c, 8, 68, 127
1, 45461, Note_off_c, 8, 68, 127
1, 45465, Note_on_c, 12, 71, 127
1, 45666, Note_off_c, 12, 71, 127
1, 45670, Note_on_c, 1, 73, 127
1, 45871, Note_off_c, 1, 73, 127
1, 45875, Note_on_c, 2, 74, 127
1, 45875, Note_on_c, 6, 78, 127
1, 45975, Note_off_c, 2, 74, 127
1, 45977, Note_on_c, 1, 73, 127
1, 46076, Note_off_c, 6, 78, 127
1, 46077, Note_off_c, 1, 73, 127
1, 46080, Note_on_c, 12, 71, 127
1, 46080, Note_on_c, 10, 81, 127
1, 46180, Note_off_c, 12, 71, 127
1, 46182, Note_on_c, 10, 69, 127
1, 46281, Note_off_c, 10, 81, 127
1, 46282, Note_off_c, 10, 69, 127
1, 46284, Note_on_c, 2, 74, 127
1, 46284, Note_on_c, 12, 83, 127
1, 46485, Note_off_c, 12, 83, 127
1, 46489, Note_on_c, 4, 76, 127
1, 46538, Note_off_c, 2, 74, 127
1, 46690, Note_off_c, 4, 76, 127
1, 46694, Note_on_c, 8, 80, 127
1, 46895, Note_off_c, 8, 80, 127
1, 46899, Note_on_c, 0, 72, 127
1, 46899, Note_on_c, 10, 81, 127
1, 47100, Note_off_c, 10, 81, 127
1, 47104, Note_on_c, 2, 74, 127
1, 47153, Note_off_c, 0, 72, 127
1, 47305, Note_off_c, 2, 74, 127
1, 47308, Note_on_c, 6, 78, 127
1, 47509, Note_off_c, 6, 78, 127
1, 47513, Note_on_c, 12, 71, 127
1, 47513, Note_on_c, 7, 79, 127
1, 47714, Note_off_c, 7, 79, 127
1, 47714, Note_off_c, 12, 71, 127
1, 47718, Note_on_c, 0, 72, 127
1, 47718, Note_on_c, 10, 81, 127
1, 47818, Note_off_c, 10, 81, 127
1, 47818, Note_off_c, 0, 72, 127
1, 47820, Note_on_c, 12, 71, 127
1, 47820, Note_on_c, 7, 79, 127
1, 47920, Note_off_c, 7, 79, 127
1, 47920, Note_off_c, 12, 71, 127
1, 47923, Note_on_c, 10, 69, 127
1, 47923, Note_on_c, 6, 78, 127
1, 48023, Note_off_c, 6, 78, 127
1, 48023, Note_off_c, 10, 69, 127
1, 48025, Note_on_c, 7, 67, 127
1, 48025, Note_on_c, 4, 76, 127
1, 48125, Note_off_c, 4, 76, 127
1, 48125, Note_off_c, 7, 67, 127
1, 48128, Note_on_c, 6, 66, 127
1, 48128, Note_on_c, 10, 81, 127
1, 48329, Note_off_c, 10, 81, 127
1, 48332, Note_on_c, 2, 74, 127
1, 48382, Note_off_c, 6, 66, 127
1, 48533, Note_off_c, 2, 74, 127
1, 48537, Note_on_c, 6, 78, 127
1, 48738, Note_off_c, 6, 78, 127
1, 48742, Note_on_c, 10, 69, 127
1, 48742, Note_on_c, 7, 79, 127
1, 48943, Note_off_c, 7, 79, 127
1, 48947, Note_on_c, 1, 73, 127
1, 48996, Note_off_c, 10, 69, 127
1, 49148, Note_off_c, 1, 73, 127
1, 49152, Note_on_c, 4, 76, 127
1, 49353, Note_off_c, 4, 76, 127
1, 49356, Note_on_c, 2, 62, 127
1, 49356, Note_on_c, 6, 78, 127
1, 49557, Note_off_c, 2, 62, 127
1, 49561, Note_on_c, 4, 64, 127
1, 49661, Note_off_c, 4, 64, 127
1, 49664, Note_on_c, 6, 66, 127
1, 49764, Note_off_c, 6, 66, 127
1, 49766, Note_on_c, 7, 67, 127
1, 49866, Note_off_c, 7, 67, 127
1, 49868, Note_on_c, 10, 69, 127
1, 49968, Note_off_c, 10, 69, 127
1, 49971, Note_on_c, 12, 71, 127
1, 50039, Note_off_c, 6, 78, 127
1, 50073, Note_on_c, 2, 74, 127
1, 50173, Note_off_c, 2, 74, 127
1, 50176, Note_on_c, 4, 76, 127
1, 50225, Note_off_c, 12, 71, 127
1, 50276, Note_off_c, 4, 76, 127
1, 50278, Note_on_c, 6, 78, 127
1, 50378, Note_off_c, 6, 78, 127
1, 50380, Note_on_c, 8, 80, 127
1, 50480, Note_off_c, 8, 80, 127
1, 50483, Note_on_c, 10, 81, 127
1, 50583, Note_off_c, 10, 81, 127
1, 50585, Note_on_c, 10, 69, 127
1, 50585, Note_on_c, 12, 83, 127
1, 50685, Note_off_c, 12, 83, 127
1, 50688, Note_on_c, 10, 81, 127
1, 50788, Note_off_c, 10, 81, 127
1, 50790, Note_on_c, 8, 80, 127
1, 50839, Note_off_c, 10, 69, 127
1, 50890, Note_off_c, 8, 80, 127
1, 50892, Note_on_c, 6, 78, 127
1, 50992, Note_off_c, 6, 78, 127
1, 50995, Note_on_c, 4, 76, 127
1, 51095, Note_off_c, 4, 76, 127
1, 51097, Note_on_c, 2, 74, 127
1, 51197, Note_off_c, 2, 74, 127
1, 51200, Note_on_c, 8, 68, 127
1, 51200, Note_on_c, 4, 76, 127
1, 51401, Note_off_c, 8, 68, 127
1, 51404, Note_on_c, 10, 69, 127
1, 51504, Note_off_c, 10, 69, 127
1, 51507, Note_on_c, 8, 68, 127
1, 51607, Note_off_c, 8, 68, 127
1, 51609, Note_on_c, 6, 66, 127
1, 51709, Note_off_c, 6, 66, 127
1, 51712, Note_on_c, 4, 64, 127
1, 51812, Note_off_c, 4, 64, 127
1, 51814, Note_on_c, 10, 69, 127
1, 51883, Note_off_c, 4, 76, 127
1, 51916, Note_on_c, 1, 73, 127
1, 52016, Note_off_c, 1, 73, 127
1, 52019, Note_on_c, 2, 74, 127
1, 52068, Note_off_c, 10, 69, 127
1, 52119, Note_off_c, 2, 74, 127
1, 52121, Note_on_c, 4, 76, 127
1, 52221, Note_off_c, 4, 76, 127
1, 52224, Note_on_c, 6, 78, 127
1, 52324, Note_off_c, 6, 78, 127
1, 52326, Note_on_c, 8, 80, 127
1, 52426, Note_off_c, 8, 80, 127
1, 52428, Note_on_c, 8, 68, 127
1, 52428, Note_on_c, 10, 81, 127
1, 52528, Note_off_c, 10, 81, 127
1, 52531, Note_on_c, 8, 80, 127
1, 52631, Note_off_c, 8, 80, 127
1, 52633, Note_on_c, 6, 78, 127
1, 52682, Note_off_c, 8, 68, 127
1, 52733, Note_off_c, 6, 78, 127
1, 52736, Note_on_c, 4, 76, 127
1, 52836, Note_off_c, 4, 76, 127
1, 52838, Note_on_c, 2, 74, 127
1, 52938, Note_off_c, 2, 74, 127
1, 52940, Note_on_c, 1, 73, 127
1, 53040, Note_off_c, 1, 73, 127
1, 53043, Note_on_c, 6, 66, 127
1, 53043, Note_on_c, 2, 74, 127
1, 53244, Note_off_c, 6, 66, 127
1, 53248, Note_on_c, 8, 68, 127
1, 53348, Note_off_c, 8, 68, 127
1, 53350, Note_on_c, 6, 66, 127
1, 53450, Note_off_c, 6, 66, 127
1, 53452, Note_on_c, 4, 64, 127
1, 53552, Note_off_c, 4, 64, 127
1, 53555, Note_on_c, 6, 66, 127
1, 53651, Note_off_c, 2, 74, 127
1, 53655, Note_off_c, 6, 66, 127
1, 53657, Note_on_c, 8, 68, 127
1, 53657, Note_on_c, 12, 71, 127
1, 53858, Note_off_c, 8, 68, 127
1, 53862, Note_on_c, 10, 69, 127
1, 53862, Note_on_c, 12, 83, 127
1, 53962, Note_off_c, 10, 69, 127
1, 53964, Note_on_c, 8, 68, 127
1, 54062, Note_off_c, 12, 71, 127
1, 54063, Note_off_c, 12, 83, 127
1, 54064, Note_off_c, 8, 68, 127
1, 54067, Note_on_c, 6, 66, 127
1, 54067, Note_on_c, 2, 74, 127
1, 54167, Note_off_c, 6, 66, 127
1, 54169, Note_on_c, 8, 68, 127
1, 54268, Note_off_c, 2, 74, 127
1, 54269, Note_off_c, 8, 68, 127
1, 54272, Note_on_c, 10, 69, 127
1, 54272, Note_on_c, 1, 73, 127
1, 54372, Note_off_c, 1, 73, 127
1, 54374, Note_on_c, 2, 74, 127
1, 54473, Note_off_c, 10, 69, 127
1, 54474, Note_off_c, 2, 74, 127
1, 54476, Note_on_c, 8, 68, 127
1, 54476, Note_on_c, 12, 71, 127
1, 54476, Note_on_c, 4, 76, 127
1, 54541, Note_off_c, 4, 76, 127
1, 54544, Note_on_c, 2, 74, 127
1, 54576, Note_off_c, 8, 68, 127
1, 54579, Note_on_c, 6, 66, 127
1, 54609, Note_off_c, 2, 74, 127
1, 54611, Note_on_c, 4, 76, 127
1, 54676, Note_off_c, 4, 76, 127
1, 54678, Note_on_c, 2, 74, 127
1, 54679, Note_off_c, 6, 66, 127
1, 54681, Note_on_c, 4, 64, 127
1, 54740, Note_off_c, 2, 74, 127
1, 54742, Note_on_c, 1, 73, 127
1, 54781, Note_off_c, 4, 64, 127
1, 54784, Note_on_c, 2, 62, 127
1, 54807, Note_off_c, 1, 73, 127
1, 54809, Note_on_c, 2, 74, 127
1, 54881, Note_off_c, 12, 71, 127
1, 54883, Note_off_c, 2, 74, 127
1, 54884, Note_off_c, 2, 62, 127
1, 54886, Note_on_c, 12, 71, 127
1, 54886, Note_on_c, 1, 61, 127
1, 54886, Note_on_c, 4, 76, 127
1, 55087, Note_off_c, 1, 61, 127
1, 55091, Note_on_c, 1, 49, 127
1, 55189, Note_off_c, 12, 71, 127
1, 55193, Note_on_c, 2, 74, 127
1, 55292, Note_off_c, 1, 49, 127
1, 55293, Note_off_c, 2, 74, 127
1, 55296, Note_on_c, 1, 73, 127
1, 55296, Note_on_c, 4, 52, 127
1, 55396, Note_off_c, 1, 73, 127
1, 55398, Note_on_c, 12, 71, 127
1, 55497, Note_off_c, 4, 52, 127
1, 55498, Note_off_c, 12, 71, 127
1, 55500, Note_on_c, 10, 69, 127
1, 55500, Note_on_c, 6, 54, 127
1, 55698, Note_off_c, 4, 76, 127
1, 55701, Note_off_c, 6, 54, 127
1, 55705, Note_on_c, 12, 47, 127
1, 55705, Note_on_c, 2, 74, 127
1, 55803, Note_off_c, 10, 69, 127
1, 55808, Note_on_c, 1, 73, 127
1, 55906, Note_off_c, 12, 47, 127
1, 55908, Note_off_c, 1, 73, 127
1, 55910, Note_on_c, 12, 71, 127
1, 55910, Note_on_c, 2, 50, 127
1, 56010, Note_off_c, 12, 71, 127
1, 56012, Note_on_c, 10, 69, 127
1, 56111, Note_off_c, 2, 50, 127
1, 56112, Note_off_c, 10, 69, 127
1, 56115, Note_on_c, 8, 68, 127
1, 56115, Note_on_c, 4, 52, 127
1, 56313, Note_off_c, 2, 74, 127
1, 56316, Note_off_c, 4, 52, 127
1, 56320, Note_on_c, 10, 45, 127
1, 56320, Note_on_c, 1, 73, 127
1, 56520, Note_off_c, 8, 68, 127
1, 56521, Note_off_c, 10, 45, 127
1, 56524, Note_on_c, 4, 64, 127
1, 56524, Note_on_c, 1, 49, 127
1, 56725, Note_off_c, 1, 49, 127
1, 56725, Note_off_c, 4, 64, 127
1, 56729, Note_on_c, 6, 66, 127
1, 56729, Note_on_c, 2, 50, 127
1, 56928, Note_off_c, 1, 73, 127
1, 56930, Note_off_c, 2, 50, 127
1, 56934, Note_on_c, 4, 52, 127
1, 56934, Note_on_c, 12, 71, 127
1, 57034, Note_off_c, 4, 52, 127
1, 57036, Note_on_c, 2, 50, 127
1, 57124, Note_off_c, 12, 71, 127
1, 57136, Note_off_c, 2, 50, 127
1, 57139, Note_on_c, 1, 49, 127
1, 57139, Note_on_c, 2, 74, 127
1, 57239, Note_off_c, 1, 49, 127
1, 57241, Note_on_c, 12, 47, 127
1, 57337, Note_off_c, 6, 66, 127
1, 57341, Note_off_c, 12, 47, 127
1, 57344, Note_on_c, 8, 68, 127
1, 57344, Note_on_c, 4, 52, 127
1, 57544, Note_off_c, 2, 74, 127
1, 57545, Note_off_c, 4, 52, 127
1, 57548, Note_on_c, 10, 45, 127
1, 57548, Note_on_c, 1, 73, 127
1, 57647, Note_off_c, 8, 68, 127
1, 57651, Note_on_c, 12, 71, 127
1, 57749, Note_off_c, 10, 45, 127
1, 57751, Note_off_c, 12, 71, 127
1, 57753, Note_on_c, 10, 69, 127
1, 57753, Note_on_c, 1, 49, 127
1, 57853, Note_off_c, 10, 69, 127
1, 57856, Note_on_c, 8, 68, 127
1, 57954, Note_off_c, 1, 49, 127
1, 57956, Note_off_c, 8, 68, 127
1, 57958, Note_on_c, 6, 66, 127
1, 57958, Note_on_c, 2, 50, 127
1, 58156, Note_off_c, 1, 73, 127
1, 58159, Note_off_c, 2, 50, 127
1, 58163, Note_on_c, 8, 44, 127
1, 58163, Note_on_c, 12, 71, 127
1, 58261, Note_off_c, 6, 66, 127
1, 58265, Note_on_c, 10, 69, 127
1, 58364, Note_off_c, 8, 44, 127
1, 58365, Note_off_c, 10, 69, 127
1, 58368, Note_on_c, 8, 68, 127
1, 58368, Note_on_c, 12, 47, 127
1, 58468, Note_off_c, 8, 68, 127
1, 58470, Note_on_c, 6, 66, 127
1, 58569, Note_off_c, 12, 47, 127
1, 58570, Note_off_c, 6, 66, 127
1, 58572, Note_on_c, 4, 64, 127
1, 58572, Note_on_c, 1, 49, 127
1, 58771, Note_off_c, 12, 71, 127
1, 58773, Note_off_c, 1, 49, 127
1, 58777, Note_on_c, 2, 50, 127
1, 58777, Note_on_c, 10, 69, 127
1, 58877, Note_off_c, 2, 50, 127
1, 58880, Note_on_c, 1, 49, 127
1, 58980, Note_off_c, 1, 49, 127
1, 58982, Note_on_c, 12, 47, 127
1, 58982, Note_on_c, 1, 73, 127
1, 58990, Note_off_c, 10, 69, 127
1, 59082, Note_off_c, 12, 47, 127
1, 59084, Note_on_c, 10, 45, 127
1, 59156, Note_off_c, 1, 73, 127
1, 59184, Note_off_c, 10, 45, 127
1, 59187, Note_on_c, 2, 50, 127
1, 59187, Note_on_c, 6, 66, 127
1, 59282, Note_off_c, 4, 64, 127
1, 59289, Note_on_c, 2, 62, 127
1, 59389, Note_off_c, 2, 62, 127
1, 59392, Note_on_c, 4, 64, 127
1, 59392, Note_on_c, 2, 38, 127
1, 59492, Note_off_c, 4, 64, 127
1, 59494, Note_on_c, 2, 62, 127
1, 59584, Note_off_c, 2, 50, 127
1, 59593, Note_off_c, 2, 38, 127
1, 59594, Note_off_c, 2, 62, 127
1, 59596, Note_on_c, 1, 61, 127
1, 59596, Note_on_c, 2, 50, 127
1, 59696, Note_off_c, 1, 61, 127
1, 59699, Note_on_c, 2, 62, 127
1, 59795, Note_off_c, 6, 66, 127
1, 59797, Note_off_c, 2, 50, 127
1, 59801, Note_on_c, 4, 52, 127
1, 59801, Note_on_c, 8, 68, 127
1, 59900, Note_off_c, 2, 62, 127
1, 59904, Note_on_c, 2, 62, 127
1, 60004, Note_off_c, 2, 62, 127
1, 60006, Note_on_c, 4, 64, 127
1, 60006, Note_on_c, 4, 40, 127
1, 60106, Note_off_c, 4, 64, 127
1, 60108, Note_on_c, 2, 62, 127
1, 60198, Note_off_c, 4, 52, 127
1, 60207, Note_off_c, 4, 40, 127
1, 60208, Note_off_c, 2, 62, 127
1, 60211, Note_on_c, 1, 61, 127
1, 60211, Note_on_c, 4, 52, 127
1, 60311, Note_off_c, 1, 61, 127
1, 60313, Note_on_c, 2, 62, 127
1, 60409, Note_off_c, 8, 68, 127
1, 60412, Note_off_c, 4, 52, 127
1, 60416, Note_on_c, 6, 54, 127
1, 60416, Note_on_c, 10, 69, 127
1, 60514, Note_off_c, 2, 62, 127
1, 60518, Note_on_c, 1, 61, 127
1, 60617, Note_off_c, 6, 54, 127
1, 60618, Note_off_c, 1, 61, 127
1, 60620, Note_on_c, 2, 62, 127
1, 60620, Note_on_c, 1, 49, 127
1, 60720, Note_off_c, 2, 62, 127
1, 60723, Note_on_c, 4, 64, 127
1, 60821, Note_off_c, 1, 49, 127
1, 60823, Note_off_c, 4, 64, 127
1, 60825, Note_on_c, 6, 66, 127
1, 60825, Note_on_c, 10, 45, 127
1, 60925, Note_off_c, 6, 66, 127
1, 60928, Note_on_c, 8, 68, 127
1, 61017, Note_off_c, 8, 68, 127
1, 61020, Note_off_c, 10, 69, 127
1, 61026, Note_off_c, 10, 45, 127
1, 61030, Note_on_c, 10, 69, 127
1, 61030, Note_on_c, 6, 42, 127
1, 61132, Note_on_c, 2, 74, 127
1, 61231, Note_off_c, 6, 42, 127
1, 61232, Note_off_c, 2, 74, 127
1, 61235, Note_on_c, 6, 54, 127
1, 61235, Note_on_c, 4, 76, 127
1, 61335, Note_off_c, 4, 76, 127
1, 61337, Note_on_c, 2, 74, 127
1, 61436, Note_off_c, 6, 54, 127
1, 61437, Note_off_c, 2, 74, 127
1, 61440, Note_on_c, 6, 42, 127
1, 61440, Note_on_c, 1, 73, 127
1, 61540, Note_off_c, 1, 73, 127
1, 61542, Note_on_c, 2, 74, 127
1, 61638, Note_off_c, 10, 69, 127
1, 61641, Note_off_c, 6, 42, 127
1, 61644, Note_on_c, 12, 71, 127
1, 61644, Note_on_c, 8, 44, 127
1, 61743, Note_off_c, 2, 74, 127
1, 61747, Note_on_c, 2, 74, 127
1, 61845, Note_off_c, 8, 44, 127
1, 61847, Note_off_c, 2, 74, 127
1, 61849, Note_on_c, 8, 56, 127
1, 61849, Note_on_c, 4, 76, 127
1, 61949, Note_off_c, 4, 76, 127
1, 61952, Note_on_c, 2, 74, 127
1, 62050, Note_off_c, 8, 56, 127
1, 62052, Note_off_c, 2, 74, 127
1, 62054, Note_on_c, 8, 44, 127
1, 62054, Note_on_c, 1, 73, 127
1, 62154, Note_off_c, 1, 73, 127
1, 62156, Note_on_c, 2, 74, 127
1, 62255, Note_off_c, 8, 44, 127
1, 62256, Note_off_c, 2, 74, 127
1, 62259, Note_on_c, 10, 45, 127
1, 62259, Note_on_c, 1, 73, 127
1, 62375, Note_off_c, 12, 71, 127
1, 62460, Note_off_c, 10, 45, 127
1, 62464, Note_on_c, 8, 68, 127
1, 62464, Note_on_c, 12, 47, 127
1, 62564, Note_off_c, 12, 47, 127
1, 62566, Note_on_c, 10, 45, 127
1, 62665, Note_off_c, 8, 68, 127
1, 62666, Note_off_c, 10, 45, 127
1, 62668, Note_on_c, 10, 69, 127
1, 62668, Note_on_c, 8, 44, 127
1, 62768, Note_off_c, 8, 44, 127
1, 62771, Note_on_c, 10, 45, 127
1, 62867, Note_off_c, 1, 73, 127
1, 62871, Note_off_c, 10, 45, 127
1, 62873, Note_on_c, 12, 47, 127
1, 62873, Note_on_c, 2, 74, 127
1, 63073, Note_off_c, 10, 69, 127
1, 63074, Note_off_c, 12, 47, 127
1, 63078, Note_on_c, 8, 68, 127
1, 63078, Note_on_c, 1, 49, 127
1, 63178, Note_off_c, 1, 49, 127
1, 63180, Note_on_c, 12, 47, 127
1, 63279, Note_off_c, 8, 68, 127
1, 63280, Note_off_c, 12, 47, 127
1, 63283, Note_on_c, 10, 69, 127
1, 63283, Note_on_c, 10, 45, 127
1, 63383, Note_off_c, 10, 45, 127
1, 63385, Note_on_c, 12, 47, 127
1, 63481, Note_off_c, 2, 74, 127
1, 63485, Note_off_c, 12, 47, 127
1, 63488, Note_on_c, 1, 49, 127
1, 63488, Note_on_c, 4, 76, 127
1, 63688, Note_off_c, 10, 69, 127
1, 63689, Note_off_c, 1, 49, 127
1, 63692, Note_on_c, 8, 68, 127
1, 63692, Note_on_c, 2, 50, 127
1, 63792, Note_off_c, 2, 50, 127
1, 63795, Note_on_c, 1, 49, 127
1, 63893, Note_off_c, 8, 68, 127
1, 63895, Note_off_c, 1, 49, 127
1, 63897, Note_on_c, 10, 69, 127
1, 63897, Note_on_c, 12, 47, 127
1, 63997, Note_off_c, 12, 47, 127
1, 64000, Note_on_c, 1, 49, 127
1, 64028, Note_off_c, 4, 76, 127
1, 64100, Note_off_c, 1, 49, 127
1, 64102, Note_on_c, 2, 50, 127
1, 64102, Note_on_c, 6, 78, 127
1, 64303, Note_off_c, 6, 78, 127
1, 64303, Note_off_c, 2, 50, 127
1, 64307, Note_on_c, 6, 54, 127
1, 64307, Note_on_c, 7, 79, 127
1, 64407, Note_off_c, 7, 79, 127
1, 64409, Note_on_c, 6, 78, 127
1, 64501, Note_off_c, 10, 69, 127
1, 64508, Note_off_c, 6, 54, 127
1, 64508, Note_on_c, 4, 76, 127
1, 64509, Note_off_c, 6, 78, 127
1, 64512, Note_on_c, 10, 57, 127
1, 64608, Note_off_c, 4, 76, 127
1, 64608, Note_on_c, 2, 74, 127
1, 64684, Note_off_c, 2, 74, 127
1, 64713, Note_off_c, 10, 57, 127
1, 64716, Note_on_c, 2, 62, 127
1, 64716, Note_on_c, 0, 84, 127
1, 64816, Note_off_c, 0, 84, 127
1, 64819, Note_on_c, 12, 83, 127
1, 64919, Note_off_c, 12, 83, 127
1, 64921, Note_on_c, 5, 65, 127
1, 64921, Note_on_c, 10, 81, 127
1, 65021, Note_off_c, 10, 81, 127
1, 65024, Note_on_c, 0, 84, 127
1, 65122, Note_off_c, 5, 65, 127
1, 65124, Note_off_c, 0, 84, 127
1, 65126, Note_on_c, 10, 69, 127
1, 65126, Note_on_c, 12, 83, 127
1, 65226, Note_off_c, 12, 83, 127
1, 65228, Note_on_c, 10, 81, 127
1, 65327, Note_off_c, 10, 69, 127
1, 65328, Note_off_c, 10, 81, 127
1, 65331, Note_on_c, 12, 71, 127
1, 65331, Note_on_c, 8, 80, 127
1, 65431, Note_off_c, 8, 80, 127
1, 65433, Note_on_c, 12, 83, 127
1, 65532, Note_off_c, 12, 71, 127
1, 65533, Note_off_c, 12, 83, 127
1, 65536, Note_on_c, 4, 64, 127
1, 65536, Note_on_c, 10, 81, 127
1, 65636, Note_off_c, 10, 81, 127
1, 65638, Note_on_c, 8, 80, 127
1, 65737, Note_off_c, 4, 64, 127
1, 65738, Note_off_c, 8, 80, 127
1, 65740, Note_on_c, 8, 68, 127
1, 65740, Note_on_c, 10, 81, 127
1, 65840, Note_off_c, 10, 81, 127
1, 65843, Note_on_c, 12, 83, 127
1, 65941, Note_off_c, 8, 68, 127
1, 65943, Note_off_c, 12, 83, 127
1, 65945, Note_on_c, 10, 69, 127
1, 65945, Note_on_c, 4, 76, 127
1, 66115, Note_off_c, 2, 62, 127
1, 66146, Note_off_c, 4, 76, 127
1, 66150, Note_on_c, 1, 61, 127
1, 66150, Note_on_c, 4, 76, 127
1, 66248, Note_off_c, 10, 69, 127
1, 66252, Note_on_c, 2, 74, 127
1, 66351, Note_off_c, 1, 61, 127
1, 66352, Note_off_c, 2, 74, 127
1, 66355, Note_on_c, 1, 73, 127
1, 66355, Note_on_c, 4, 64, 127
1, 66455, Note_off_c, 1, 73, 127
1, 66457, Note_on_c, 12, 71, 127
1, 66556, Note_off_c, 4, 64, 127
1, 66557, Note_off_c, 12, 71, 127
1, 66560, Note_on_c, 10, 69, 127
1, 66560, Note_on_c, 6, 66, 127
1, 66758, Note_off_c, 4, 76, 127
1, 66761, Note_off_c, 6, 66, 127
1, 66764, Note_on_c, 12, 59, 127
1, 66764, Note_on_c, 2, 74, 127
1, 66863, Note_off_c, 10, 69, 127
1, 66867, Note_on_c, 1, 73, 127
1, 66965, Note_off_c, 12, 59, 127
1, 66967, Note_off_c, 1, 73, 127
1, 66969, Note_on_c, 12, 71, 127
1, 66969, Note_on_c, 2, 62, 127
1, 67069, Note_off_c, 12, 71, 127
1, 67072, Note_on_c, 10, 69, 127
1, 67170, Note_off_c, 2, 62, 127
1, 67172, Note_off_c, 10, 69, 127
1, 67174, Note_on_c, 8, 68, 127
1, 67174, Note_on_c, 4, 64, 127
1, 67372, Note_off_c, 2, 74, 127
1, 67375, Note_off_c, 4, 64, 127
1, 67379, Note_on_c, 10, 57, 127
1, 67379, Note_on_c, 1, 73, 127
1, 67579, Note_off_c, 8, 68, 127
1, 67580, Note_off_c, 10, 57, 127
1, 67584, Note_on_c, 10, 69, 127
1, 67584, Note_on_c, 1, 61, 127
1, 67785, Note_off_c, 1, 61, 127
1, 67785, Note_off_c, 10, 69, 127
1, 67788, Note_on_c, 2, 62, 127
1, 67788, Note_on_c, 6, 54, 127
1, 67983, Note_off_c, 1, 73, 127
1, 67989, Note_off_c, 6, 54, 127
1, 67993, Note_on_c, 10, 57, 127
1, 67993, Note_on_c, 6, 66, 127
1, 68194, Note_off_c, 6, 66, 127
1, 68194, Note_off_c, 10, 57, 127
1, 68198, Note_on_c, 8, 56, 127
1, 68198, Note_on_c, 12, 71, 127
1, 68396, Note_off_c, 2, 62, 127
1, 68399, Note_off_c, 8, 56, 127
1, 68403, Note_on_c, 1, 61, 127
1, 68403, Note_on_c, 10, 57, 127
1, 68603, Note_off_c, 12, 71, 127
1, 68604, Note_off_c, 10, 57, 127
1, 68608, Note_on_c, 1, 49, 127
1, 68608, Note_on_c, 4, 64, 127
1, 68809, Note_off_c, 4, 64, 127
1, 68809, Note_off_c, 1, 49, 127
1, 68812, Note_on_c, 2, 50, 127
1, 68812, Note_on_c, 10, 69, 127
1, 69011, Note_off_c, 1, 61, 127
1, 69013, Note_off_c, 10, 69, 127
1, 69013, Note_off_c, 2, 50, 127
1, 69017, Note_on_c, 12, 59, 127
1, 69017, Note_on_c, 4, 52, 127
1, 69017, Note_on_c, 10, 69, 127
1, 69117, Note_off_c, 10, 69, 127
1, 69120, Note_on_c, 8, 68, 127
1, 69169, Note_off_c, 8, 68, 127
1, 69171, Note_on_c, 10, 69, 127
1, 69220, Note_off_c, 10, 69, 127
1, 69222, Note_on_c, 8, 68, 127
1, 69422, Note_off_c, 4, 52, 127
1, 69423, Note_off_c, 8, 68, 127
1, 69427, Note_on_c, 4, 40, 127
1, 69427, Note_on_c, 10, 69, 127
1, 69625, Note_off_c, 12, 59, 127
1, 69628, Note_off_c, 10, 69, 127
1, 69628, Note_off_c, 4, 40, 127
1, 69632, Note_on_c, 4, 52, 127
1, 69632, Note_on_c, 10, 57, 127
1, 69632, Note_on_c, 1, 49, 127
1, 69632, Note_on_c, 10, 45, 127
1, 69632, Note_on_c, 10, 69, 127
1, 69732, Note_off_c, 10, 69, 127
1, 69734, Note_on_c, 12, 71, 127
1, 69834, Note_off_c, 12, 71, 127
1, 69836, Note_on_c, 1, 73, 127
1, 69936, Note_off_c, 1, 73, 127
1, 69939, Note_on_c, 2, 74, 127
1, 70037, Note_off_c, 10, 45, 127
1, 70037, Note_off_c, 1, 49, 127
1, 70037, Note_off_c, 10, 57, 127
1, 70037, Note_off_c, 4, 52, 127
1, 70039, Note_off_c, 2, 74, 127
1, 70041, Note_on_c, 4, 76, 127
1, 70141, Note_off_c, 4, 76, 127
1, 70144, Note_on_c, 1, 73, 127
1, 70244, Note_off_c, 1, 73, 127
1, 70246, Note_on_c, 12, 59, 127
1, 70246, Note_on_c, 10, 69, 127
1, 70451, Note_on_c, 1, 61, 127
1, 70500, Note_off_c, 12, 59, 127
1, 70652, Note_off_c, 1, 61, 127
1, 70656, Note_on_c, 2, 62, 127
1, 70854, Note_off_c, 10, 69, 127
1, 70857, Note_off_c, 2, 62, 127
1, 70860, Note_on_c, 12, 59, 127
1, 70860, Note_on_c, 10, 69, 127
1, 70934, Note_off_c, 10, 69, 127
1, 70937, Note_on_c, 8, 68, 127
1, 71011, Note_off_c, 8, 68, 127
1, 71014, Note_on_c, 10, 69, 127
1, 71065, Note_on_c, 1, 61, 127
1, 71088, Note_off_c, 10, 69, 127
1, 71091, Note_on_c, 8, 68, 127
1, 71114, Note_off_c, 12, 59, 127
1, 71165, Note_off_c, 8, 68, 127
1, 71168, Note_on_c, 10, 69, 127
1, 71242, Note_off_c, 10, 69, 127
1, 71244, Note_on_c, 8, 68, 127
1, 71266, Note_off_c, 1, 61, 127
1, 71270, Note_on_c, 2, 62, 127
1, 71318, Note_off_c, 8, 68, 127
1, 71321, Note_on_c, 6, 66, 127
1, 71395, Note_off_c, 6, 66, 127
1, 71398, Note_on_c, 8, 68, 127
1, 71471, Note_off_c, 2, 62, 127
1, 71472, Note_off_c, 8, 68, 127
1, 71475, Note_on_c, 1, 61, 127
1, 71475, Note_on_c, 10, 57, 127
1, 71475, Note_on_c, 4, 52, 127
1, 71475, Note_on_c, 10, 45, 127
1, 71475, Note_on_c, 10, 69, 127
1, 71676, Note_off_c, 10, 69, 127
1, 71680, Note_on_c, 4, 64, 127
1, 71729, Note_off_c, 1, 61, 127
1, 71880, Note_off_c, 10, 45, 127
1, 71880, Note_off_c, 4, 52, 127
1, 71880, Note_off_c, 10, 57, 127
1, 71881, Note_off_c, 4, 64, 127
1, 71884, Note_on_c, 7, 67, 127
1, 72085, Note_off_c, 7, 67, 127
1, 72089, Note_on_c, 2, 62, 127
1, 72089, Note_on_c, 6, 66, 127
1, 72189, Note_off_c, 6, 66, 127
1, 72192, Note_on_c, 8, 68, 127
1, 72292, Note_off_c, 8, 68, 127
1, 72294, Note_on_c, 10, 69, 127
1, 72343, Note_off_c, 2, 62, 127
1, 72495, Note_off_c, 10, 69, 127
1, 72499, Note_on_c, 6, 66, 127
1, 72700, Note_off_c, 6, 66, 127
1, 72704, Note_on_c, 1, 61, 127
1, 72704, Note_on_c, 4, 64, 127
1, 72905, Note_off_c, 4, 64, 127
1, 72908, Note_on_c, 8, 68, 127
1, 72958, Note_off_c, 1, 61, 127
1, 73109, Note_off_c, 8, 68, 127
1, 73113, Note_on_c, 10, 69, 127
1, 73314, Note_off_c, 10, 69, 127
1, 73318, Note_on_c, 12, 59, 127
1, 73318, Note_on_c, 8, 56, 127
1, 73318, Note_on_c, 10, 45, 127
1, 73318, Note_on_c, 2, 62, 127
1, 73519, Note_off_c, 2, 62, 127
1, 73523, Note_on_c, 4, 64, 127
1, 73623, Note_off_c, 4, 64, 127
1, 73625, Note_on_c, 2, 62, 127
1, 73636, Note_off_c, 10, 45, 127
1, 73636, Note_off_c, 8, 56, 127
1, 73636, Note_off_c, 12, 59, 127
1, 73725, Note_off_c, 2, 62, 127
1, 73728, Note_on_c, 1, 61, 127
1, 73828, Note_off_c, 1, 61, 127
1, 73830, Note_on_c, 2, 62, 127
1, 73930, Note_off_c, 2, 62, 127
1, 73932, Note_on_c, 1, 61, 127
1, 73932, Note_on_c, 4, 64, 127
1, 74032, Note_off_c, 4, 64, 127
1, 74035, Note_on_c, 8, 68, 127
1, 74135, Note_off_c, 8, 68, 127
1, 74137, Note_on_c, 10, 69, 127
1, 74186, Note_off_c, 1, 61, 127
1, 74338, Note_off_c, 10, 69, 127
1, 74342, Note_on_c, 4, 64, 127
1, 74543, Note_off_c, 4, 64, 127
1, 74547, Note_on_c, 12, 59, 127
1, 74547, Note_on_c, 2, 62, 127
1, 74748, Note_off_c, 2, 62, 127
1, 74752, Note_on_c, 8, 68, 127
1, 74801, Note_off_c, 12, 59, 127
1, 74953, Note_off_c, 8, 68, 127
1, 74956, Note_on_c, 10, 69, 127
1, 75157, Note_off_c, 10, 69, 127
1, 75161, Note_on_c, 10, 57, 127
1, 75161, Note_on_c, 2, 62, 127
1, 75264, Note_on_c, 10, 45, 127
1, 75364, Note_off_c, 10, 45, 127
1, 75366, Note_on_c, 12, 47, 127
1, 75466, Note_off_c, 12, 47, 127
1, 75468, Note_on_c, 1, 49, 127
1, 75568, Note_off_c, 1, 49, 127
1, 75571, Note_on_c, 2, 50, 127
1, 75671, Note_off_c, 2, 50, 127
1, 75673, Note_on_c, 4, 52, 127
1, 75765, Note_off_c, 2, 62, 127
1, 75773, Note_off_c, 4, 52, 127
1, 75776, Note_on_c, 6, 54, 127
1, 75776, Note_on_c, 1, 61, 127
1, 75860, Note_off_c, 10, 57, 127
1, 75876, Note_off_c, 6, 54, 127
1, 75878, Note_on_c, 7, 55, 127
1, 75978, Note_off_c, 7, 55, 127
1, 75980, Note_on_c, 10, 57, 127
1, 76078, Note_off_c, 1, 61, 127
1, 76080, Note_off_c, 10, 57, 127
1, 76083, Note_on_c, 12, 59, 127
1, 76183, Note_off_c, 12, 59, 127
1, 76185, Note_on_c, 1, 61, 127
1, 76285, Note_off_c, 1, 61, 127
1, 76288, Note_on_c, 2, 62, 127
1, 76388, Note_off_c, 2, 62, 127
1, 76390, Note_on_c, 4, 64, 127
1, 76490, Note_off_c, 4, 64, 127
1, 76492, Note_on_c, 6, 66, 127
1, 76592, Note_off_c, 6, 66, 127
1, 76595, Note_on_c, 7, 67, 127
1, 76695, Note_off_c, 7, 67, 127
1, 76697, Note_on_c, 10, 69, 127
1, 76797, Note_off_c, 10, 69, 127
1, 76800, Note_on_c, 12, 71, 127
1, 76900, Note_off_c, 12, 71, 127
1, 76902, Note_on_c, 1, 73, 127
1, 77002, Note_off_c, 1, 73, 127
1, 77004, Note_on_c, 10, 69, 127
1, 77004, Note_on_c, 6, 66, 127
1, 77004, Note_on_c, 2, 74, 127
1, 77104, Note_off_c, 2, 74, 127
1, 77107, Note_on_c, 4, 76, 127
1, 77207, Note_off_c, 4, 76, 127
1, 77209, Note_on_c, 6, 78, 127
1, 77309, Note_off_c, 6, 78, 127
1, 77312, Note_on_c, 7, 79, 127
1, 77409, Note_off_c, 6, 66, 127
1, 77409, Note_off_c, 10, 69, 127
1, 77412, Note_off_c, 7, 79, 127
1, 77414, Note_on_c, 10, 81, 127
1, 77514, Note_off_c, 10, 81, 127
1, 77516, Note_on_c, 6, 78, 127
1, 77616, Note_off_c, 6, 78, 127
1, 77619, Note_on_c, 4, 64, 127
1, 77619, Note_on_c, 2, 74, 127
1, 77824, Note_on_c, 6, 66, 127
1, 77873, Note_off_c, 4, 64, 127
1, 78025, Note_off_c, 6, 66, 127
1, 78028, Note_on_c, 7, 67, 127
1, 78223, Note_off_c, 2, 74, 127
1, 78229, Note_off_c, 7, 67, 127
1, 78233, Note_on_c, 4, 64, 127
1, 78233, Note_on_c, 2, 74, 127
1, 78307, Note_off_c, 2, 74, 127
1, 78310, Note_on_c, 1, 73, 127
1, 78384, Note_off_c, 1, 73, 127
1, 78387, Note_on_c, 2, 74, 127
1, 78438, Note_on_c, 6, 66, 127
1, 78461, Note_off_c, 2, 74, 127
1, 78464, Note_on_c, 1, 73, 127
1, 78487, Note_off_c, 4, 64, 127
1, 78538, Note_off_c, 1, 73, 127
1, 78540, Note_on_c, 2, 74, 127
1, 78614, Note_off_c, 2, 74, 127
1, 78617, Note_on_c, 1, 73, 127
1, 78639, Note_off_c, 6, 66, 127
1, 78643, Note_on_c, 7, 67, 127
1, 78691, Note_off_c, 1, 73, 127
1, 78694, Note_on_c, 12, 71, 127
1, 78768, Note_off_c, 12, 71, 127
1, 78771, Note_on_c, 1, 73, 127
1, 78844, Note_off_c, 7, 67, 127
1, 78845, Note_off_c, 1, 73, 127
1, 78848, Note_on_c, 6, 66, 127
1, 78848, Note_on_c, 2, 62, 127
1, 78848, Note_on_c, 10, 57, 127
1, 78848, Note_on_c, 2, 50, 127
1, 78848, Note_on_c, 2, 74, 127
1, 79049, Note_off_c, 2, 74, 127
1, 79052, Note_on_c, 10, 69, 127
1, 79102, Note_off_c, 6, 66, 127
1, 79253, Note_off_c, 10, 69, 127
1, 79253, Note_off_c, 2, 50, 127
1, 79253, Note_off_c, 10, 57, 127
1, 79253, Note_off_c, 2, 62, 127
1, 79257, Note_on_c, 0, 72, 127
1, 79458, Note_off_c, 0, 72, 127
1, 79462, Note_on_c, 7, 67, 127
1, 79462, Note_on_c, 12, 71, 127
1, 79562, Note_off_c, 12, 71, 127
1, 79564, Note_on_c, 1, 73, 127
1, 79664, Note_off_c, 1, 73, 127
1, 79667, Note_on_c, 2, 74, 127
1, 79716, Note_off_c, 7, 67, 127
1, 79868, Note_off_c, 2, 74, 127
1, 79872, Note_on_c, 12, 71, 127
1, 80073, Note_off_c, 12, 71, 127
1, 80076, Note_on_c, 6, 66, 127
1, 80076, Note_on_c, 10, 69, 127
1, 80277, Note_off_c, 10, 69, 127
1, 80281, Note_on_c, 1, 73, 127
1, 80330, Note_off_c, 6, 66, 127
1, 80482, Note_off_c, 1, 73, 127
1, 80486, Note_on_c, 2, 74, 127
1, 80687, Note_off_c, 2, 74, 127
1, 80691, Note_on_c, 4, 64, 127
1, 80691, Note_on_c, 1, 61, 127
1, 80691, Note_on_c, 2, 50, 127
1, 80691, Note_on_c, 7, 67, 127
1, 80892, Note_off_c, 7, 67, 127
1, 80896, Note_on_c, 10, 69, 127
1, 80996, Note_off_c, 10, 69, 127
1, 80998, Note_on_c, 7, 67, 127
1, 81009, Note_off_c, 2, 50, 127
1, 81009, Note_off_c, 1, 61, 127
1, 81009, Note_off_c, 4, 64, 127
1, 81098, Note_off_c, 7, 67, 127
1, 81100, Note_on_c, 6, 66, 127
1, 81200, Note_off_c, 6, 66, 127
1, 81203, Note_on_c, 7, 67, 127
1, 81303, Note_off_c, 7, 67, 127
1, 81305, Note_on_c, 6, 66, 127
1, 81305, Note_on_c, 10, 69, 127
1, 81405, Note_off_c, 10, 69, 127
1, 81408, Note_on_c, 1, 73, 127
1, 81508, Note_off_c, 1, 73, 127
1, 81510, Note_on_c, 2, 74, 127
1, 81559, Note_off_c, 6, 66, 127
1, 81711, Note_off_c, 2, 74, 127
1, 81715, Note_on_c, 10, 69, 127
1, 81916, Note_off_c, 10, 69, 127
1, 81920, Note_on_c, 4, 64, 127
1, 81920, Note_on_c, 7, 67, 127
1, 82121, Note_off_c, 7, 67, 127
1, 82124, Note_on_c, 1, 73, 127
1, 82174, Note_off_c, 4, 64, 127
1, 82325, Note_off_c, 1, 73, 127
1, 82329, Note_on_c, 2, 74, 127
1, 82530, Note_off_c, 2, 74, 127
1, 82534, Note_on_c, 2, 62, 127
1, 82534, Note_on_c, 7, 67, 127
1, 82636, Note_on_c, 2, 38, 127
1, 82736, Note_off_c, 2, 38, 127
1, 82739, Note_on_c, 4, 40, 127
1, 82839, Note_off_c, 4, 40, 127
1, 82841, Note_on_c, 6, 42, 127
1, 82941, Note_off_c, 6, 42, 127
1, 82944, Note_on_c, 7, 43, 127
1, 83044, Note_off_c, 7, 43, 127
1, 83046, Note_on_c, 10, 45, 127
1, 83142, Note_off_c, 7, 67, 127
1, 83146, Note_off_c, 10, 45, 127
1, 83148, Note_on_c, 12, 47, 127
1, 83148, Note_on_c, 6, 66, 127
1, 83248, Note_off_c, 12, 47, 127
1, 83251, Note_on_c, 1, 49, 127
1, 83351, Note_off_c, 1, 49, 127
1, 83353, Note_on_c, 2, 50, 127
1, 83453, Note_off_c, 2, 50, 127
1, 83456, Note_on_c, 4, 52, 127
1, 83556, Note_off_c, 4, 52, 127
1, 83558, Note_on_c, 6, 54, 127
1, 83658, Note_off_c, 6, 54, 127
1, 83660, Note_on_c, 7, 55, 127
1, 83752, Note_off_c, 6, 66, 127
1, 83753, Note_off_c, 2, 62, 127
1, 83760, Note_off_c, 7, 55, 127
1, 83763, Note_on_c, 10, 57, 127
1, 83863, Note_off_c, 10, 57, 127
1, 83865, Note_on_c, 12, 59, 127
1, 83965, Note_off_c, 12, 59, 127
1, 83968, Note_on_c, 0, 60, 127
1, 84068, Note_off_c, 0, 60, 127
1, 84070, Note_on_c, 2, 62, 127
1, 84170, Note_off_c, 2, 62, 127
1, 84172, Note_on_c, 4, 64, 127
1, 84272, Note_off_c, 4, 64, 127
1, 84275, Note_on_c, 6, 66, 127
1, 84375, Note_off_c, 6, 66, 127
1, 84377, Note_on_c, 2, 62, 127
1, 84377, Note_on_c, 12, 59, 127
1, 84377, Note_on_c, 7, 67, 127
1, 84477, Note_off_c, 7, 67, 127
1, 84480, Note_on_c, 6, 66, 127
1, 84580, Note_off_c, 6, 66, 127
1, 84582, Note_on_c, 7, 67, 127
1, 84782, Note_off_c, 12, 59, 127
1, 84782, Note_off_c, 2, 62, 127
1, 84783, Note_off_c, 7, 67, 127
1, 84787, Note_on_c, 2, 74, 127
1, 84992, Note_on_c, 12, 47, 127
1, 85136, Note_off_c, 2, 74, 127
1, 85196, Note_on_c, 1, 73, 127
1, 85246, Note_off_c, 12, 47, 127
1, 85397, Note_off_c, 1, 73, 127
1, 85401, Note_on_c, 12, 71, 127
1, 85606, Note_on_c, 2, 62, 127
1, 85606, Note_on_c, 12, 59, 127
1, 85782, Note_off_c, 12, 71, 127
1, 85811, Note_on_c, 10, 69, 127
1, 85860, Note_off_c, 12, 59, 127
1, 85860, Note_off_c, 2, 62, 127
1, 86012, Note_off_c, 10, 69, 127
1, 86016, Note_on_c, 7, 67, 127
1, 86217, Note_off_c, 7, 67, 127
1, 86220, Note_on_c, 1, 61, 127
1, 86220, Note_on_c, 12, 59, 127
1, 86220, Note_on_c, 6, 66, 127
1, 86421, Note_off_c, 6, 66, 127
1, 86425, Note_on_c, 5, 65, 127
1, 86617, Note_off_c, 12, 59, 127
1, 86617, Note_off_c, 1, 61, 127
1, 86626, Note_off_c, 5, 65, 127
1, 86630, Note_on_c, 1, 73, 127
1, 86835, Note_on_c, 10, 45, 127
1, 86979, Note_off_c, 1, 73, 127
1, 87040, Note_on_c, 12, 71, 127
1, 87089, Note_off_c, 10, 45, 127
1, 87241, Note_off_c, 12, 71, 127
1, 87244, Note_on_c, 10, 69, 127
1, 87449, Note_on_c, 10, 57, 127
1, 87449, Note_on_c, 1, 61, 127
1, 87633, Note_off_c, 10, 69, 127
1, 87654, Note_on_c, 7, 67, 127
1, 87703, Note_off_c, 1, 61, 127
1, 87703, Note_off_c, 10, 57, 127
1, 87855, Note_off_c, 7, 67, 127
1, 87859, Note_on_c, 6, 66, 127
1, 88060, Note_off_c, 6, 66, 127
1, 88064, Note_on_c, 12, 59, 127
1, 88064, Note_on_c, 10, 57, 127
1, 88064, Note_on_c, 4, 64, 127
1, 88265, Note_off_c, 4, 64, 127
1, 88268, Note_on_c, 3, 63, 127
1, 88469, Note_off_c, 3, 63, 127
1, 88469, Note_off_c, 10, 57, 127
1, 88469, Note_off_c, 12, 59, 127
1, 88473, Note_on_c, 12, 71, 127
1, 88678, Note_on_c, 7, 43, 127
1, 88838, Note_off_c, 12, 71, 127
1, 88883, Note_on_c, 10, 69, 127
1, 88932, Note_off_c, 7, 43, 127
1, 89084, Note_off_c, 10, 69, 127
1, 89088, Note_on_c, 7, 67, 127
1, 89292, Note_on_c, 7, 55, 127
1, 89292, Note_on_c, 12, 59, 127
1, 89477, Note_off_c, 7, 67, 127
1, 89497, Note_on_c, 6, 66, 127
1, 89546, Note_off_c, 12, 59, 127
1, 89546, Note_off_c, 7, 55, 127
1, 89698, Note_off_c, 6, 66, 127
1, 89702, Note_on_c, 4, 64, 127
1, 89903, Note_off_c, 4, 64, 127
1, 89907, Note_on_c, 7, 55, 127
1, 89907, Note_on_c, 10, 57, 127
1, 89907, Note_on_c, 1, 73, 127
1, 90112, Note_on_c, 4, 64, 127
1, 90161, Note_off_c, 7, 55, 127
1, 90312, Note_off_c, 1, 73, 127
1, 90312, Note_off_c, 10, 57, 127
1, 90313, Note_off_c, 4, 64, 127
1, 90316, Note_on_c, 1, 61, 127
1, 90316, Note_on_c, 10, 69, 127
1, 90517, Note_off_c, 10, 69, 127
1, 90517, Note_off_c, 1, 61, 127
1, 90521, Note_on_c, 10, 57, 127
1, 90521, Note_on_c, 6, 54, 127
1, 90521, Note_on_c, 2, 74, 127
1, 90726, Note_on_c, 6, 66, 127
1, 90775, Note_off_c, 6, 54, 127
1, 90926, Note_off_c, 2, 74, 127
1, 90926, Note_off_c, 10, 57, 127
1, 90927, Note_off_c, 6, 66, 127
1, 90931, Note_on_c, 2, 62, 127
1, 90931, Note_on_c, 10, 69, 127
1, 91132, Note_off_c, 10, 69, 127
1, 91132, Note_off_c, 2, 62, 127
1, 91136, Note_on_c, 4, 52, 127
1, 91136, Note_on_c, 7, 55, 127
1, 91136, Note_on_c, 4, 76, 127
1, 91340, Note_on_c, 7, 67, 127
1, 91390, Note_off_c, 4, 52, 127
1, 91541, Note_off_c, 7, 67, 127
1, 91541, Note_off_c, 4, 76, 127
1, 91541, Note_off_c, 7, 55, 127
1, 91545, Note_on_c, 1, 61, 127
1, 91545, Note_on_c, 10, 69, 127
1, 91746, Note_off_c, 10, 69, 127
1, 91746, Note_off_c, 1, 61, 127
1, 91750, Note_on_c, 2, 50, 127
1, 91750, Note_on_c, 2, 62, 127
1, 91750, Note_on_c, 6, 78, 127
1, 91852, Note_on_c, 10, 69, 127
1, 91952, Note_off_c, 10, 69, 127
1, 91955, Note_on_c, 2, 74, 127
1, 92048, Note_off_c, 6, 78, 127
1, 92055, Note_off_c, 2, 74, 127
1, 92057, Note_on_c, 6, 78, 127
1, 92155, Note_off_c, 2, 62, 127
1, 92155, Note_off_c, 2, 50, 127
1, 92157, Note_off_c, 6, 78, 127
1, 92160, Note_on_c, 2, 74, 127
1, 92260, Note_off_c, 2, 74, 127
1, 92262, Note_on_c, 10, 69, 127
1, 92362, Note_off_c, 10, 69, 127
1, 92364, Note_on_c, 8, 68, 127
1, 92467, Note_on_c, 12, 71, 127
1, 92567, Note_off_c, 12, 71, 127
1, 92569, Note_on_c, 2, 74, 127
1, 92669, Note_off_c, 2, 74, 127
1, 92672, Note_on_c, 6, 78, 127
1, 92713, Note_off_c, 8, 68, 127
1, 92772, Note_off_c, 6, 78, 127
1, 92774, Note_on_c, 2, 74, 127
1, 92874, Note_off_c, 2, 74, 127
1, 92876, Note_on_c, 12, 71, 127
1, 92976, Note_off_c, 12, 71, 127
1, 92979, Note_on_c, 11, 70, 127
1, 92979, Note_on_c, 1, 61, 127
1, 93081, Note_on_c, 1, 73, 127
1, 93181, Note_off_c, 1, 73, 127
1, 93184, Note_on_c, 4, 76, 127
1, 93233, Note_off_c, 1, 61, 127
1, 93284, Note_off_c, 4, 76, 127
1, 93286, Note_on_c, 6, 78, 127
1, 93328, Note_off_c, 11, 70, 127
1, 93386, Note_off_c, 6, 78, 127
1, 93388, Note_on_c, 4, 76, 127
1, 93488, Note_off_c, 4, 76, 127
1, 93491, Note_on_c, 1, 73, 127
1, 93591, Note_off_c, 1, 73, 127
1, 93593, Note_on_c, 12, 71, 127
1, 93593, Note_on_c, 12, 59, 127
1, 93593, Note_on_c, 2, 74, 127
1, 93793, Note_off_c, 12, 71, 127
1, 93794, Note_off_c, 2, 74, 127
1, 93798, Note_on_c, 12, 71, 127
1, 93847, Note_off_c, 12, 59, 127
1, 94003, Note_on_c, 2, 74, 127
1, 94203, Note_off_c, 12, 71, 127
1, 94204, Note_off_c, 2, 74, 127
1, 94208, Note_on_c, 4, 64, 127
1, 94208, Note_on_c, 7, 79, 127
1, 94412, Note_on_c, 12, 71, 127
1, 94462, Note_off_c, 7, 79, 127
1, 94462, Note_off_c, 4, 64, 127
1, 94613, Note_off_c, 12, 71, 127
1, 94617, Note_on_c, 2, 74, 127
1, 94818, Note_off_c, 2, 74, 127
1, 94822, Note_on_c, 6, 66, 127
1, 94822, Note_on_c, 10, 57, 127
1, 94822, Note_on_c, 10, 81, 127
1, 95027, Note_on_c, 0, 72, 127
1, 95076, Note_off_c, 10, 81, 127
1, 95076, Note_off_c, 10, 57, 127
1, 95076, Note_off_c, 6, 66, 127
1, 95228, Note_off_c, 0, 72, 127
1, 95232, Note_on_c, 2, 74, 127
1, 95433, Note_off_c, 2, 74, 127
1, 95436, Note_on_c, 7, 67, 127
1, 95436, Note_on_c, 7, 55, 127
1, 95436, Note_on_c, 12, 83, 127
1, 95539, Note_on_c, 2, 74, 127
1, 95626, Note_off_c, 12, 83, 127
1, 95639, Note_off_c, 2, 74, 127
1, 95641, Note_on_c, 7, 79, 127
1, 95690, Note_off_c, 7, 55, 127
1, 95690, Note_off_c, 7, 67, 127
1, 95741, Note_off_c, 7, 79, 127
1, 95744, Note_on_c, 12, 83, 127
1, 95844, Note_off_c, 12, 83, 127
1, 95846, Note_on_c, 7, 79, 127
1, 95946, Note_off_c, 7, 79, 127
1, 95948, Note_on_c, 2, 74, 127
1, 96048, Note_off_c, 2, 74, 127
1, 96051, Note_on_c, 1, 73, 127
1, 96153, Note_on_c, 4, 76, 127
1, 96253, Note_off_c, 4, 76, 127
1, 96256, Note_on_c, 7, 79, 127
1, 96305, Note_off_c, 1, 73, 127
1, 96356, Note_off_c, 7, 79, 127
1, 96358, Note_on_c, 12, 83, 127
1, 96458, Note_off_c, 12, 83, 127
1, 96460, Note_on_c, 7, 79, 127
1, 96560, Note_off_c, 7, 79, 127
1, 96563, Note_on_c, 4, 76, 127
1, 96663, Note_off_c, 4, 76, 127
1, 96665, Note_on_c, 3, 75, 127
1, 96665, Note_on_c, 6, 66, 127
1, 96768, Note_on_c, 6, 78, 127
1, 96868, Note_off_c, 6, 78, 127
1, 96870, Note_on_c, 10, 81, 127
1, 96919, Note_off_c, 6, 66, 127
1, 96919, Note_off_c, 3, 75, 127
1, 96970, Note_off_c, 10, 81, 127
1, 96972, Note_on_c, 12, 83, 127
1, 97072, Note_off_c, 12, 83, 127
1, 97075, Note_on_c, 10, 81, 127
1, 97175, Note_off_c, 10, 81, 127
1, 97177, Note_on_c, 6, 78, 127
1, 97277, Note_off_c, 6, 78, 127
1, 97280, Note_on_c, 4, 64, 127
1, 97280, Note_on_c, 7, 79, 127
1, 97380, Note_off_c, 7, 79, 127
1, 97382, Note_on_c, 6, 78, 127
1, 97481, Note_off_c, 4, 64, 127
1, 97482, Note_off_c, 6, 78, 127
1, 97484, Note_on_c, 7, 55, 127
1, 97484, Note_on_c, 4, 76, 127
1, 97584, Note_off_c, 4, 76, 127
1, 97587, Note_on_c, 3, 75, 127
1, 97685, Note_off_c, 7, 55, 127
1, 97687, Note_off_c, 3, 75, 127
1, 97689, Note_on_c, 12, 59, 127
1, 97689, Note_on_c, 4, 76, 127
1, 97789, Note_off_c, 4, 76, 127
1, 97792, Note_on_c, 7, 79, 127
1, 97890, Note_off_c, 12, 59, 127
1, 97892, Note_off_c, 7, 79, 127
1, 97894, Note_on_c, 0, 60, 127
1, 97894, Note_on_c, 10, 69, 127
1, 97996, Note_on_c, 6, 78, 127
1, 98084, Note_off_c, 10, 69, 127
1, 98095, Note_off_c, 0, 60, 127
1, 98096, Note_off_c, 6, 78, 127
1, 98099, Note_on_c, 6, 54, 127
1, 98099, Note_on_c, 4, 76, 127
1, 98199, Note_off_c, 4, 76, 127
1, 98201, Note_on_c, 3, 75, 127
1, 98300, Note_off_c, 6, 54, 127
1, 98301, Note_off_c, 3, 75, 127
1, 98304, Note_on_c, 10, 57, 127
1, 98304, Note_on_c, 4, 76, 127
1, 98404, Note_off_c, 4, 76, 127
1, 98406, Note_on_c, 7, 79, 127
1, 98505, Note_off_c, 10, 57, 127
1, 98506, Note_off_c, 7, 79, 127
1, 98508, Note_on_c, 12, 59, 127
1, 98508, Note_on_c, 7, 67, 127
1, 98611, Note_on_c, 6, 78, 127
1, 98698, Note_off_c, 7, 67, 127
1, 98709, Note_off_c, 12, 59, 127
1, 98711, Note_off_c, 6, 78, 127
1, 98713, Note_on_c, 4, 52, 127
1, 98713, Note_on_c, 4, 76, 127
1, 98813, Note_off_c, 4, 76, 127
1, 98816, Note_on_c, 3, 75, 127
1, 98914, Note_off_c, 4, 52, 127
1, 98916, Note_off_c, 3, 75, 127
1, 98918, Note_on_c, 7, 55, 127
1, 98918, Note_on_c, 4, 76, 127
1, 99018, Note_off_c, 4, 76, 127
1, 99020, Note_on_c, 7, 79, 127
1, 99119, Note_off_c, 7, 55, 127
1, 99120, Note_off_c, 7, 79, 127
1, 99123, Note_on_c, 10, 57, 127
1, 99123, Note_on_c, 0, 72, 127
1, 99223, Note_off_c, 0, 72, 127
1, 99225, Note_on_c, 6, 78, 127
1, 99324, Note_off_c, 10, 57, 127
1, 99325, Note_off_c, 6, 78, 127
1, 99328, Note_on_c, 12, 59, 127
1, 99328, Note_on_c, 10, 81, 127
1, 99428, Note_off_c, 12, 59, 127
1, 99430, Note_on_c, 10, 57, 127
1, 99530, Note_off_c, 10, 57, 127
1, 99532, Note_on_c, 7, 55, 127
1, 99632, Note_off_c, 7, 55, 127
1, 99635, Note_on_c, 6, 54, 127
1, 99735, Note_off_c, 6, 54, 127
1, 99737, Note_on_c, 12, 59, 127
1, 99836, Note_off_c, 10, 81, 127
1, 99938, Note_off_c, 12, 59, 127
1, 99942, Note_on_c, 4, 52, 127
1, 99942, Note_on_c, 7, 79, 127
1, 100042, Note_off_c, 7, 79, 127
1, 100044, Note_on_c, 6, 78, 127
1, 100143, Note_off_c, 4, 52, 127
1, 100144, Note_off_c, 6, 78, 127
1, 100147, Note_on_c, 7, 55, 127
1, 100147, Note_on_c, 4, 76, 127
1, 100247, Note_off_c, 4, 76, 127
1, 100249, Note_on_c, 2, 74, 127
1, 100348, Note_off_c, 7, 55, 127
1, 100349, Note_off_c, 2, 74, 127
1, 100352, Note_on_c, 10, 57, 127
1, 100352, Note_on_c, 0, 72, 127
1, 100452, Note_off_c, 0, 72, 127
1, 100454, Note_on_c, 3, 75, 127
1, 100553, Note_off_c, 10, 57, 127
1, 100554, Note_off_c, 3, 75, 127
1, 100556, Note_on_c, 3, 51, 127
1, 100556, Note_on_c, 6, 78, 127
1, 100757, Note_off_c, 3, 51, 127
1, 100761, Note_on_c, 6, 54, 127
1, 100962, Note_off_c, 6, 54, 127
1, 100966, Note_on_c, 7, 55, 127
1, 101064, Note_off_c, 6, 78, 127
1, 101066, Note_off_c, 7, 55, 127
1, 101068, Note_on_c, 6, 54, 127
1, 101168, Note_off_c, 6, 54, 127
1, 101171, Note_on_c, 4, 52, 127
1, 101171, Note_on_c, 7, 67, 127
1, 101271, Note_off_c, 4, 52, 127
1, 101273, Note_on_c, 3, 51, 127
1, 101372, Note_off_c, 7, 67, 127
1, 101373, Note_off_c, 3, 51, 127
1, 101376, Note_on_c, 4, 52, 127
1, 101376, Note_on_c, 12, 71, 127
1, 101476, Note_off_c, 4, 52, 127
1, 101478, Note_on_c, 7, 55, 127
1, 101577, Note_off_c, 12, 71, 127
1, 101578, Note_off_c, 7, 55, 127
1, 101580, Note_on_c, 10, 45, 127
1, 101580, Note_on_c, 0, 72, 127
1, 101680, Note_off_c, 10, 45, 127
1, 101683, Note_on_c, 6, 54, 127
1, 101783, Note_off_c, 6, 54, 127
1, 101785, Note_on_c, 4, 52, 127
1, 101785, Note_on_c, 6, 66, 127
1, 101802, Note_off_c, 0, 72, 127
1, 101885, Note_off_c, 4, 52, 127
1, 101888, Note_on_c, 2, 50, 127
1, 101975, Note_off_c, 6, 66, 127
1, 101988, Note_off_c, 2, 50, 127
1, 101990, Note_on_c, 4, 52, 127
1, 101990, Note_on_c, 10, 69, 127
1, 102090, Note_off_c, 4, 52, 127
1, 102092, Note_on_c, 6, 54, 127
1, 102180, Note_off_c, 10, 69, 127
1, 102192, Note_off_c, 6, 54, 127
1, 102195, Note_on_c, 7, 43, 127
1, 102195, Note_on_c, 12, 71, 127
1, 102295, Note_off_c, 7, 43, 127
1, 102297, Note_on_c, 6, 54, 127
1, 102397, Note_off_c, 6, 54, 127
1, 102400, Note_on_c, 4, 52, 127
1, 102400, Note_on_c, 4, 64, 127
1, 102417, Note_off_c, 12, 71, 127
1, 102500, Note_off_c, 4, 52, 127
1, 102502, Note_on_c, 3, 51, 127
1, 102590, Note_off_c, 4, 64, 127
1, 102602, Note_off_c, 3, 51, 127
1, 102604, Note_on_c, 4, 52, 127
1, 102604, Note_on_c, 7, 67, 127
1, 102704, Note_off_c, 4, 52, 127
1, 102707, Note_on_c, 7, 55, 127
1, 102794, Note_off_c, 7, 67, 127
1, 102807, Note_off_c, 7, 55, 127
1, 102809, Note_on_c, 0, 48, 127
1, 102809, Note_on_c, 10, 69, 127
1, 102909, Note_off_c, 0, 48, 127
1, 102912, Note_on_c, 4, 52, 127
1, 103010, Note_off_c, 10, 69, 127
1, 103012, Note_off_c, 4, 52, 127
1, 103014, Note_on_c, 10, 57, 127
1, 103014, Note_on_c, 12, 71, 127
1, 103114, Note_off_c, 12, 71, 127
1, 103116, Note_on_c, 10, 69, 127
1, 103216, Note_off_c, 10, 69, 127
1, 103219, Note_on_c, 7, 67, 127
1, 103319, Note_off_c, 7, 67, 127
1, 103321, Note_on_c, 6, 66, 127
1, 103395, Note_off_c, 10, 57, 127
1, 103421, Note_off_c, 6, 66, 127
1, 103424, Note_on_c, 12, 71, 127
1, 103628, Note_on_c, 7, 55, 127
1, 103628, Note_on_c, 4, 64, 127
1, 103646, Note_off_c, 12, 71, 127
1, 103728, Note_off_c, 7, 55, 127
1, 103731, Note_on_c, 6, 54, 127
1, 103818, Note_off_c, 4, 64, 127
1, 103831, Note_off_c, 6, 54, 127
1, 103833, Note_on_c, 4, 52, 127
1, 103833, Note_on_c, 7, 67, 127
1, 103933, Note_off_c, 4, 52, 127
1, 103936, Note_on_c, 2, 50, 127
1, 104023, Note_off_c, 7, 67, 127
1, 104036, Note_off_c, 2, 50, 127
1, 104038, Note_on_c, 0, 48, 127
1, 104038, Note_on_c, 10, 69, 127
1, 104138, Note_off_c, 0, 48, 127
1, 104140, Note_on_c, 3, 51, 127
1, 104240, Note_off_c, 3, 51, 127
1, 104243, Note_on_c, 6, 54, 127
1, 104243, Note_on_c, 3, 63, 127
1, 104260, Note_off_c, 10, 69, 127
1, 104433, Note_off_c, 3, 63, 127
1, 104448, Note_on_c, 6, 66, 127
1, 104562, Note_off_c, 6, 54, 127
1, 104638, Note_off_c, 6, 66, 127
1, 104652, Note_on_c, 7, 67, 127
1, 104752, Note_off_c, 7, 67, 127
1, 104755, Note_on_c, 4, 64, 127
1, 104855, Note_off_c, 4, 64, 127
1, 104857, Note_on_c, 6, 66, 127
1, 104957, Note_off_c, 6, 66, 127
1, 104960, Note_on_c, 4, 52, 127
1, 104960, Note_on_c, 7, 67, 127
1, 105060, Note_off_c, 7, 67, 127
1, 105060, Note_off_c, 4, 52, 127
1, 105062, Note_on_c, 6, 54, 127
1, 105062, Note_on_c, 10, 69, 127
1, 105162, Note_off_c, 10, 69, 127
1, 105162, Note_off_c, 6, 54, 127
1, 105164, Note_on_c, 7, 55, 127
1, 105164, Note_on_c, 12, 71, 127
1, 105264, Note_off_c, 12, 71, 127
1, 105264, Note_off_c, 7, 55, 127
1, 105267, Note_on_c, 10, 57, 127
1, 105267, Note_on_c, 0, 72, 127
1, 105367, Note_off_c, 0, 72, 127
1, 105367, Note_off_c, 10, 57, 127
1, 105369, Note_on_c, 12, 59, 127
1, 105369, Note_on_c, 10, 69, 127
1, 105469, Note_off_c, 10, 69, 127
1, 105469, Note_off_c, 12, 59, 127
1, 105472, Note_on_c, 10, 57, 127
1, 105472, Note_on_c, 12, 71, 127
1, 105572, Note_off_c, 12, 71, 127
1, 105572, Note_off_c, 10, 57, 127
1, 105574, Note_on_c, 7, 55, 127
1, 105574, Note_on_c, 1, 73, 127
1, 105674, Note_off_c, 1, 73, 127
1, 105674, Note_off_c, 7, 55, 127
1, 105676, Note_on_c, 6, 54, 127
1, 105676, Note_on_c, 3, 75, 127
1, 105776, Note_off_c, 3, 75, 127
1, 105776, Note_off_c, 6, 54, 127
1, 105779, Note_on_c, 4, 52, 127
1, 105779, Note_on_c, 4, 76, 127
1, 105879, Note_off_c, 4, 76, 127
1, 105879, Note_off_c, 4, 52, 127
1, 105881, Note_on_c, 3, 51, 127
1, 105881, Note_on_c, 6, 78, 127
1, 105981, Note_off_c, 6, 78, 127
1, 105981, Note_off_c, 3, 51, 127
1, 105984, Note_on_c, 12, 47, 127
1, 105984, Note_on_c, 3, 75, 127
1, 106084, Note_off_c, 3, 75, 127
1, 106084, Note_off_c, 12, 47, 127
1, 106086, Note_on_c, 1, 49, 127
1, 106086, Note_on_c, 4, 76, 127
1, 106186, Note_off_c, 4, 76, 127
1, 106186, Note_off_c, 1, 49, 127
1, 106188, Note_on_c, 3, 51, 127
1, 106188, Note_on_c, 6, 78, 127
1, 106288, Note_off_c, 6, 78, 127
1, 106288, Note_off_c, 3, 51, 127
1, 106291, Note_on_c, 4, 52, 127
1, 106291, Note_on_c, 7, 79, 127
1, 106391, Note_off_c, 7, 79, 127
1, 106391, Note_off_c, 4, 52, 127
1, 106393, Note_on_c, 6, 54, 127
1, 106393, Note_on_c, 10, 81, 127
1, 106493, Note_off_c, 10, 81, 127
1, 106493, Note_off_c, 6, 54, 127
1, 106496, Note_on_c, 7, 55, 127
1, 106496, Note_on_c, 12, 83, 127
1, 106596, Note_off_c, 12, 83, 127
1, 106596, Note_off_c, 7, 55, 127
1, 106598, Note_on_c, 4, 52, 127
1, 106598, Note_on_c, 10, 81, 127
1, 106698, Note_off_c, 10, 81, 127
1, 106698, Note_off_c, 4, 52, 127
1, 106700, Note_on_c, 6, 54, 127
1, 106700, Note_on_c, 7, 79, 127
1, 106800, Note_off_c, 7, 79, 127
1, 106800, Note_off_c, 6, 54, 127
1, 106803, Note_on_c, 7, 55, 127
1, 106803, Note_on_c, 6, 78, 127
1, 106903, Note_off_c, 6, 78, 127
1, 106903, Note_off_c, 7, 55, 127
1, 106905, Note_on_c, 10, 57, 127
1, 106905, Note_on_c, 4, 76, 127
1, 107005, Note_off_c, 4, 76, 127
1, 107005, Note_off_c, 10, 57, 127
1, 107008, Note_on_c, 12, 59, 127
1, 107008, Note_on_c, 3, 75, 127
1, 107108, Note_off_c, 3, 75, 127
1, 107108, Note_off_c, 12, 59, 127
1, 107110, Note_on_c, 0, 60, 127
1, 107110, Note_on_c, 4, 76, 127
1, 107210, Note_off_c, 0, 60, 127
1, 107212, Note_on_c, 2, 62, 127
1, 107311, Note_off_c, 4, 76, 127
1, 107312, Note_off_c, 2, 62, 127
1, 107315, Note_on_c, 0, 60, 127
1, 107315, Note_on_c, 6, 78, 127
1, 107415, Note_off_c, 6, 78, 127
1, 107415, Note_off_c, 0, 60, 127
1, 107417, Note_on_c, 12, 59, 127
1, 107417, Note_on_c, 7, 79, 127
1, 107517, Note_off_c, 7, 79, 127
1, 107517, Note_off_c, 12, 59, 127
1, 107520, Note_on_c, 0, 60, 127
1, 107520, Note_on_c, 10, 81, 127
1, 107620, Note_off_c, 10, 81, 127
1, 107620, Note_off_c, 0, 60, 127
1, 107622, Note_on_c, 10, 57, 127
1, 107622, Note_on_c, 6, 78, 127
1, 107722, Note_off_c, 6, 78, 127
1, 107722, Note_off_c, 10, 57, 127
1, 107724, Note_on_c, 12, 59, 127
1, 107724, Note_on_c, 4, 76, 127
1, 107825, Note_off_c, 4, 76, 127
1, 107827, Note_on_c, 3, 75, 127
1, 107878, Note_on_c, 4, 76, 127
1, 107890, Note_off_c, 3, 75, 127
1, 107929, Note_on_c, 3, 75, 127
1, 107941, Note_off_c, 4, 76, 127
1, 108129, Note_off_c, 12, 59, 127
1, 108130, Note_off_c, 3, 75, 127
1, 108134, Note_on_c, 12, 47, 127
1, 108134, Note_on_c, 4, 76, 127
1, 108335, Note_off_c, 4, 76, 127
1, 108335, Note_off_c, 12, 47, 127
1, 108339, Note_on_c, 4, 40, 127
1, 108339, Note_on_c, 4, 76, 127
1, 108439, Note_off_c, 4, 76, 127
1, 108441, Note_on_c, 2, 74, 127
1, 108541, Note_off_c, 2, 74, 127
1, 108544, Note_on_c, 0, 72, 127
1, 108644, Note_off_c, 0, 72, 127
1, 108646, Note_on_c, 12, 71, 127
1, 108746, Note_off_c, 12, 71, 127
1, 108748, Note_on_c, 10, 69, 127
1, 108848, Note_off_c, 10, 69, 127
1, 108851, Note_on_c, 7, 67, 127
1, 108943, Note_off_c, 4, 40, 127
1, 108951, Note_off_c, 7, 67, 127
1, 108953, Note_on_c, 6, 66, 127
1, 109053, Note_off_c, 6, 66, 127
1, 109056, Note_on_c, 4, 64, 127
1, 109156, Note_off_c, 4, 64, 127
1, 109158, Note_on_c, 3, 63, 127
1, 109258, Note_off_c, 3, 63, 127
1, 109260, Note_on_c, 1, 61, 127
1, 109360, Note_off_c, 1, 61, 127
1, 109363, Note_on_c, 12, 59, 127
1, 109463, Note_off_c, 12, 59, 127
1, 109465, Note_on_c, 10, 57, 127
1, 109565, Note_off_c, 10, 57, 127
1, 109568, Note_on_c, 7, 55, 127
1, 109668, Note_off_c, 7, 55, 127
1, 109670, Note_on_c, 6, 54, 127
1, 109770, Note_off_c, 6, 54, 127
1, 109772, Note_on_c, 4, 52, 127
1, 109872, Note_off_c, 4, 52, 127
1, 109875, Note_on_c, 2, 50, 127
1, 109975, Note_off_c, 2, 50, 127
1, 109977, Note_on_c, 1, 49, 127
1, 109977, Note_on_c, 7, 79, 127
1, 110077, Note_off_c, 1, 49, 127
1, 110080, Note_on_c, 12, 47, 127
1, 110180, Note_off_c, 12, 47, 127
1, 110182, Note_on_c, 10, 45, 127
1, 110383, Note_off_c, 10, 45, 127
1, 110387, Note_on_c, 10, 69, 127
1, 110387, Note_on_c, 1, 49, 127
1, 110487, Note_off_c, 10, 69, 127
1, 110489, Note_on_c, 12, 71, 127
1, 110588, Note_off_c, 1, 49, 127
1, 110589, Note_off_c, 12, 71, 127
1, 110592, Note_on_c, 1, 73, 127
1, 110592, Note_on_c, 4, 52, 127
1, 110692, Note_off_c, 1, 73, 127
1, 110694, Note_on_c, 2, 74, 127
1, 110793, Note_off_c, 4, 52, 127
1, 110794, Note_off_c, 2, 74, 127
1, 110796, Note_on_c, 4, 76, 127
1, 110796, Note_on_c, 10, 57, 127
1, 110896, Note_off_c, 4, 76, 127
1, 110899, Note_on_c, 6, 78, 127
1, 110997, Note_off_c, 10, 57, 127
1, 110999, Note_off_c, 6, 78, 127
1, 111001, Note_on_c, 4, 76, 127
1, 111001, Note_on_c, 4, 52, 127
1, 111101, Note_off_c, 4, 76, 127
1, 111104, Note_on_c, 2, 74, 127
1, 111202, Note_off_c, 4, 52, 127
1, 111204, Note_off_c, 2, 74, 127
1, 111206, Note_on_c, 1, 73, 127
1, 111206, Note_on_c, 10, 57, 127
1, 111306, Note_off_c, 1, 73, 127
1, 111308, Note_on_c, 12, 71, 127
1, 111407, Note_off_c, 10, 57, 127
1, 111408, Note_off_c, 12, 71, 127
1, 111411, Note_on_c, 10, 69, 127
1, 111411, Note_on_c, 1, 61, 127
1, 111603, Note_off_c, 7, 79, 127
1, 111612, Note_off_c, 1, 61, 127
1, 111616, Note_on_c, 2, 62, 127
1, 111616, Note_on_c, 4, 76, 127
1, 111716, Note_off_c, 2, 62, 127
1, 111718, Note_on_c, 1, 61, 127
1, 111817, Note_off_c, 4, 76, 127
1, 111818, Note_off_c, 1, 61, 127
1, 111820, Note_on_c, 12, 59, 127
1, 111820, Note_on_c, 7, 79, 127
1, 111920, Note_off_c, 12, 59, 127
1, 111923, Note_on_c, 10, 57, 127
1, 112021, Note_off_c, 7, 79, 127
1, 112023, Note_off_c, 10, 57, 127
1, 112025, Note_on_c, 2, 62, 127
1, 112025, Note_on_c, 6, 78, 127
1, 112125, Note_off_c, 6, 78, 127
1, 112128, Note_on_c, 4, 76, 127
1, 112226, Note_off_c, 2, 62, 127
1, 112228, Note_off_c, 4, 76, 127
1, 112230, Note_on_c, 10, 57, 127
1, 112230, Note_on_c, 2, 74, 127
1, 112330, Note_off_c, 2, 74, 127
1, 112332, Note_on_c, 4, 76, 127
1, 112431, Note_off_c, 10, 57, 127
1, 112432, Note_off_c, 4, 76, 127
1, 112435, Note_on_c, 2, 62, 127
1, 112435, Note_on_c, 6, 78, 127
1, 112535, Note_off_c, 6, 78, 127
1, 112537, Note_on_c, 7, 79, 127
1, 112630, Note_off_c, 10, 69, 127
1, 112636, Note_off_c, 2, 62, 127
1, 112637, Note_off_c, 7, 79, 127
1, 112640, Note_on_c, 6, 66, 127
1, 112640, Note_on_c, 10, 81, 127
1, 112742, Note_on_c, 7, 79, 127
1, 112783, Note_off_c, 10, 81, 127
1, 112841, Note_off_c, 6, 66, 127
1, 112842, Note_off_c, 7, 79, 127
1, 112844, Note_on_c, 2, 62, 127
1, 112844, Note_on_c, 6, 78, 127
1, 112944, Note_off_c, 6, 78, 127
1, 112947, Note_on_c, 7, 79, 127
1, 113045, Note_off_c, 2, 62, 127
1, 113047, Note_off_c, 7, 79, 127
1, 113049, Note_on_c, 6, 66, 127
1, 113049, Note_on_c, 10, 81, 127
1, 113149, Note_off_c, 10, 81, 127
1, 113152, Note_on_c, 12, 83, 127
1, 113250, Note_off_c, 6, 66, 127
1, 113252, Note_off_c, 12, 83, 127
1, 113254, Note_on_c, 10, 69, 127
1, 113254, Note_on_c, 0, 84, 127
1, 113356, Note_on_c, 10, 81, 127
1, 113413, Note_off_c, 10, 69, 127
1, 113452, Note_off_c, 0, 84, 127
1, 113456, Note_off_c, 10, 81, 127
1, 113459, Note_on_c, 12, 71, 127
1, 113459, Note_on_c, 7, 79, 127
1, 113559, Note_off_c, 7, 79, 127
1, 113559, Note_off_c, 12, 71, 127
1, 113561, Note_on_c, 10, 69, 127
1, 113561, Note_on_c, 6, 78, 127
1, 113661, Note_off_c, 6, 78, 127
1, 113661, Note_off_c, 10, 69, 127
1, 113664, Note_on_c, 7, 67, 127
1, 113664, Note_on_c, 4, 76, 127
1, 113764, Note_off_c, 4, 76, 127
1, 113764, Note_off_c, 7, 67, 127
1, 113766, Note_on_c, 6, 66, 127
1, 113766, Note_on_c, 2, 74, 127
1, 113866, Note_off_c, 2, 74, 127
1, 113866, Note_off_c, 6, 66, 127
1, 113868, Note_on_c, 7, 67, 127
1, 113868, Note_on_c, 12, 83, 127
1, 114027, Note_off_c, 7, 67, 127
1, 114073, Note_on_c, 10, 69, 127
1, 114073, Note_on_c, 4, 76, 127
1, 114154, Note_off_c, 12, 83, 127
1, 114173, Note_off_c, 10, 69, 127
1, 114176, Note_on_c, 7, 67, 127
1, 114274, Note_off_c, 4, 76, 127
1, 114276, Note_off_c, 7, 67, 127
1, 114278, Note_on_c, 6, 66, 127
1, 114278, Note_on_c, 7, 79, 127
1, 114378, Note_off_c, 6, 66, 127
1, 114380, Note_on_c, 4, 64, 127
1, 114479, Note_off_c, 7, 79, 127
1, 114480, Note_off_c, 4, 64, 127
1, 114483, Note_on_c, 6, 66, 127
1, 114483, Note_on_c, 10, 81, 127
1, 114657, Note_off_c, 6, 66, 127
1, 114688, Note_on_c, 7, 67, 127
1, 114688, Note_on_c, 2, 74, 127
1, 114769, Note_off_c, 10, 81, 127
1, 114788, Note_off_c, 7, 67, 127
1, 114790, Note_on_c, 6, 66, 127
1, 114889, Note_off_c, 2, 74, 127
1, 114890, Note_off_c, 6, 66, 127
1, 114892, Note_on_c, 4, 64, 127
1, 114892, Note_on_c, 6, 78, 127
1, 114992, Note_off_c, 4, 64, 127
1, 114995, Note_on_c, 2, 62, 127
1, 115093, Note_off_c, 6, 78, 127
1, 115095, Note_off_c, 2, 62, 127
1, 115097, Note_on_c, 4, 64, 127
1, 115097, Note_on_c, 7, 79, 127
1, 115279, Note_off_c, 4, 64, 127
1, 115302, Note_on_c, 6, 66, 127
1, 115302, Note_on_c, 1, 73, 127
1, 115383, Note_off_c, 7, 79, 127
1, 115402, Note_off_c, 6, 66, 127
1, 115404, Note_on_c, 4, 64, 127
1, 115503, Note_off_c, 1, 73, 127
1, 115504, Note_off_c, 4, 64, 127
1, 115507, Note_on_c, 2, 62, 127
1, 115507, Note_on_c, 4, 76, 127
1, 115607, Note_off_c, 2, 62, 127
1, 115609, Note_on_c, 1, 61, 127
1, 115708, Note_off_c, 4, 76, 127
1, 115709, Note_off_c, 1, 61, 127
1, 115712, Note_on_c, 2, 62, 127
1, 115712, Note_on_c, 6, 78, 127
1, 115913, Note_off_c, 6, 78, 127
1, 115913, Note_off_c, 2, 62, 127
1, 115916, Note_on_c, 4, 64, 127
1, 115916, Note_on_c, 7, 79, 127
1, 116016, Note_off_c, 7, 79, 127
1, 116016, Note_off_c, 4, 64, 127
1, 116019, Note_on_c, 2, 62, 127
1, 116019, Note_on_c, 6, 78, 127
1, 116119, Note_off_c, 6, 78, 127
1, 116119, Note_off_c, 2, 62, 127
1, 116121, Note_on_c, 1, 61, 127
1, 116121, Note_on_c, 4, 76, 127
1, 116221, Note_off_c, 4, 76, 127
1, 116221, Note_off_c, 1, 61, 127
1, 116224, Note_on_c, 12, 59, 127
1, 116224, Note_on_c, 2, 74, 127
1, 116324, Note_off_c, 2, 74, 127
1, 116324, Note_off_c, 12, 59, 127
1, 116326, Note_on_c, 4, 64, 127
1, 116326, Note_on_c, 7, 79, 127
1, 116527, Note_off_c, 4, 64, 127
1, 116531, Note_on_c, 6, 66, 127
1, 116531, Note_on_c, 1, 73, 127
1, 116548, Note_off_c, 7, 79, 127
1, 116631, Note_off_c, 6, 66, 127
1, 116633, Note_on_c, 4, 64, 127
1, 116732, Note_off_c, 1, 73, 127
1, 116733, Note_off_c, 4, 64, 127
1, 116736, Note_on_c, 2, 62, 127
1, 116736, Note_on_c, 4, 76, 127
1, 116836, Note_off_c, 2, 62, 127
1, 116838, Note_on_c, 1, 61, 127
1, 116937, Note_off_c, 4, 76, 127
1, 116938, Note_off_c, 1, 61, 127
1, 116940, Note_on_c, 2, 62, 127
1, 116940, Note_on_c, 6, 78, 127
1, 117141, Note_off_c, 2, 62, 127
1, 117145, Note_on_c, 4, 64, 127
1, 117145, Note_on_c, 12, 71, 127
1, 117162, Note_off_c, 6, 78, 127
1, 117245, Note_off_c, 4, 64, 127
1, 117248, Note_on_c, 2, 62, 127
1, 117346, Note_off_c, 12, 71, 127
1, 117348, Note_off_c, 2, 62, 127
1, 117350, Note_on_c, 1, 61, 127
1, 117350, Note_on_c, 2, 74, 127
1, 117450, Note_off_c, 1, 61, 127
1, 117452, Note_on_c, 12, 59, 127
1, 117551, Note_off_c, 2, 74, 127
1, 117552, Note_off_c, 12, 59, 127
1, 117555, Note_on_c, 1, 61, 127
1, 117555, Note_on_c, 4, 76, 127
1, 117756, Note_off_c, 4, 76, 127
1, 117756, Note_off_c, 1, 61, 127
1, 117760, Note_on_c, 2, 62, 127
1, 117760, Note_on_c, 6, 78, 127
1, 117860, Note_off_c, 6, 78, 127
1, 117860, Note_off_c, 2, 62, 127
1, 117862, Note_on_c, 1, 61, 127
1, 117862, Note_on_c, 4, 76, 127
1, 117962, Note_off_c, 4, 76, 127
1, 117962, Note_off_c, 1, 61, 127
1, 117964, Note_on_c, 12, 59, 127
1, 117964, Note_on_c, 2, 74, 127
1, 118064, Note_off_c, 2, 74, 127
1, 118064, Note_off_c, 12, 59, 127
1, 118067, Note_on_c, 11, 58, 127
1, 118067, Note_on_c, 1, 73, 127
1, 118167, Note_off_c, 1, 73, 127
1, 118167, Note_off_c, 11, 58, 127
1, 118169, Note_on_c, 2, 62, 127
1, 118169, Note_on_c, 6, 78, 127
1, 118370, Note_off_c, 6, 78, 127
1, 118370, Note_off_c, 2, 62, 127
1, 118374, Note_on_c, 4, 64, 127
1, 118374, Note_on_c, 12, 71, 127
1, 118474, Note_off_c, 4, 64, 127
1, 118476, Note_on_c, 2, 62, 127
1, 118575, Note_off_c, 12, 71, 127
1, 118576, Note_off_c, 2, 62, 127
1, 118579, Note_on_c, 1, 61, 127
1, 118579, Note_on_c, 2, 74, 127
1, 118679, Note_off_c, 1, 61, 127
1, 118681, Note_on_c, 12, 59, 127
1, 118780, Note_off_c, 2, 74, 127
1, 118781, Note_off_c, 12, 59, 127
1, 118784, Note_on_c, 1, 61, 127
1, 118784, Note_on_c, 4, 76, 127
1, 118985, Note_off_c, 4, 76, 127
1, 118985, Note_off_c, 1, 61, 127
1, 118988, Note_on_c, 2, 62, 127
1, 118988, Note_on_c, 11, 70, 127
1, 119088, Note_off_c, 2, 62, 127
1, 119091, Note_on_c, 1, 61, 127
1, 119189, Note_off_c, 11, 70, 127
1, 119191, Note_off_c, 1, 61, 127
1, 119193, Note_on_c, 12, 59, 127
1, 119193, Note_on_c, 1, 73, 127
1, 119293, Note_off_c, 12, 59, 127
1, 119296, Note_on_c, 11, 58, 127
1, 119394, Note_off_c, 1, 73, 127
1, 119396, Note_off_c, 11, 58, 127
1, 119398, Note_on_c, 12, 59, 127
1, 119398, Note_on_c, 2, 74, 127
1, 119599, Note_off_c, 2, 74, 127
1, 119599, Note_off_c, 12, 59, 127
1, 119603, Note_on_c, 6, 54, 127
1, 119603, Note_on_c, 4, 76, 127
1, 119703, Note_off_c, 4, 76, 127
1, 119705, Note_on_c, 2, 74, 127
1, 119804, Note_off_c, 6, 54, 127
1, 119805, Note_off_c, 2, 74, 127
1, 119808, Note_on_c, 10, 57, 127
1, 119808, Note_on_c, 1, 73, 127
1, 119908, Note_off_c, 1, 73, 127
1, 119910, Note_on_c, 12, 71, 127
1, 119989, Note_off_c, 10, 57, 127
1, 120010, Note_off_c, 12, 71, 127
1, 120012, Note_on_c, 7, 55, 127
1, 120012, Note_on_c, 4, 76, 127
1, 120213, Note_off_c, 4, 76, 127
1, 120213, Note_off_c, 7, 55, 127
1, 120217, Note_on_c, 6, 54, 127
1, 120217, Note_on_c, 6, 78, 127
1, 120317, Note_off_c, 6, 78, 127
1, 120320, Note_on_c, 4, 76, 127
1, 120418, Note_off_c, 6, 54, 127
1, 120420, Note_off_c, 4, 76, 127
1, 120422, Note_on_c, 4, 52, 127
1, 120422, Note_on_c, 2, 74, 127
1, 120522, Note_off_c, 2, 74, 127
1, 120524, Note_on_c, 1, 73, 127
1, 120623, Note_off_c, 4, 52, 127
1, 120624, Note_off_c, 1, 73, 127
1, 120627, Note_on_c, 2, 50, 127
1, 120627, Note_on_c, 6, 78, 127
1, 120828, Note_off_c, 6, 78, 127
1, 120828, Note_off_c, 2, 50, 127
1, 120832, Note_on_c, 6, 54, 127
1, 120832, Note_on_c, 4, 76, 127
1, 120932, Note_off_c, 4, 76, 127
1, 120934, Note_on_c, 2, 74, 127
1, 121033, Note_off_c, 6, 54, 127
1, 121034, Note_off_c, 2, 74, 127
1, 121036, Note_on_c, 4, 52, 127
1, 121036, Note_on_c, 1, 73, 127
1, 121136, Note_off_c, 1, 73, 127
1, 121139, Note_on_c, 12, 71, 127
1, 121237, Note_off_c, 4, 52, 127
1, 121239, Note_off_c, 12, 71, 127
1, 121241, Note_on_c, 6, 54, 127
1, 121241, Note_on_c, 11, 70, 127
1, 121341, Note_off_c, 11, 70, 127
1, 121344, Note_on_c, 8, 68, 127
1, 121444, Note_off_c, 8, 68, 127
1, 121446, Note_on_c, 6, 66, 127
1, 121546, Note_off_c, 6, 66, 127
1, 121548, Note_on_c, 8, 68, 127
1, 121648, Note_off_c, 8, 68, 127
1, 121651, Note_on_c, 11, 70, 127
1, 121751, Note_off_c, 11, 70, 127
1, 121753, Note_on_c, 12, 71, 127
1, 121853, Note_off_c, 12, 71, 127
1, 121856, Note_on_c, 1, 73, 127
1, 121956, Note_off_c, 1, 73, 127
1, 121958, Note_on_c, 12, 71, 127
1, 122053, Note_off_c, 6, 54, 127
1, 122058, Note_off_c, 12, 71, 127
1, 122060, Note_on_c, 4, 52, 127
1, 122060, Note_on_c, 11, 70, 127
1, 122160, Note_off_c, 11, 70, 127
1, 122160, Note_off_c, 4, 52, 127
1, 122163, Note_on_c, 2, 50, 127
1, 122163, Note_on_c, 12, 71, 127
1, 122263, Note_off_c, 12, 71, 127
1, 122263, Note_off_c, 2, 50, 127
1, 122265, Note_on_c, 1, 49, 127
1, 122265, Note_on_c, 1, 73, 127
1, 122365, Note_off_c, 1, 49, 127
1, 122368, Note_on_c, 12, 47, 127
1, 122368, Note_on_c, 2, 74, 127
1, 122468, Note_off_c, 2, 74, 127
1, 122468, Note_off_c, 12, 47, 127
1, 122470, Note_on_c, 11, 46, 127
1, 122470, Note_on_c, 4, 76, 127
1, 122570, Note_off_c, 11, 46, 127
1, 122572, Note_on_c, 12, 47, 127
1, 122672, Note_off_c, 12, 47, 127
1, 122675, Note_on_c, 1, 49, 127
1, 122775, Note_off_c, 1, 49, 127
1, 122777, Note_on_c, 12, 47, 127
1, 122877, Note_off_c, 12, 47, 127
1, 122880, Note_on_c, 11, 46, 127
1, 122980, Note_off_c, 11, 46, 127
1, 122982, Note_on_c, 8, 44, 127
1, 123082, Note_off_c, 8, 44, 127
1, 123084, Note_on_c, 6, 42, 127
1, 123179, Note_off_c, 1, 73, 127
1, 123180, Note_off_c, 4, 76, 127
1, 123187, Note_on_c, 6, 78, 127
1, 123285, Note_off_c, 6, 42, 127
1, 123287, Note_off_c, 6, 78, 127
1, 123289, Note_on_c, 11, 46, 127
1, 123289, Note_on_c, 1, 73, 127
1, 123289, Note_on_c, 4, 76, 127
1, 123389, Note_off_c, 4, 76, 127
1, 123392, Note_on_c, 6, 78, 127
1, 123448, Note_off_c, 1, 73, 127
1, 123490, Note_off_c, 11, 46, 127
1, 123492, Note_off_c, 6, 78, 127
1, 123494, Note_on_c, 1, 49, 127
1, 123494, Note_on_c, 1, 73, 127
1, 123494, Note_on_c, 4, 76, 127
1, 123594, Note_off_c, 4, 76, 127
1, 123596, Note_on_c, 6, 78, 127
1, 123653, Note_off_c, 1, 73, 127
1, 123695, Note_off_c, 1, 49, 127
1, 123696, Note_off_c, 6, 78, 127
1, 123699, Note_on_c, 6, 54, 127
1, 123699, Note_on_c, 12, 71, 127
1, 123699, Note_on_c, 2, 74, 127
1, 123799, Note_off_c, 2, 74, 127
1, 123801, Note_on_c, 4, 76, 127
1, 123858, Note_off_c, 12, 71, 127
1, 123901, Note_off_c, 4, 76, 127
1, 123904, Note_on_c, 12, 59, 127
1, 123904, Note_on_c, 12, 71, 127
1, 123904, Note_on_c, 2, 74, 127
1, 124004, Note_off_c, 2, 74, 127
1, 124006, Note_on_c, 4, 76, 127
1, 124063, Note_off_c, 12, 71, 127
1, 124105, Note_off_c, 12, 59, 127
1, 124106, Note_off_c, 4, 76, 127
1, 124108, Note_on_c, 2, 62, 127
1, 124108, Note_on_c, 12, 71, 127
1, 124108, Note_on_c, 2, 74, 127
1, 124208, Note_off_c, 2, 74, 127
1, 124211, Note_on_c, 4, 76, 127
1, 124267, Note_off_c, 12, 71, 127
1, 124309, Note_off_c, 2, 62, 127
1, 124311, Note_off_c, 4, 76, 127
1, 124313, Note_on_c, 4, 64, 127
1, 124313, Note_on_c, 11, 70, 127
1, 124313, Note_on_c, 1, 73, 127
1, 124514, Note_off_c, 4, 64, 127
1, 124518, Note_on_c, 11, 58, 127
1, 124518, Note_on_c, 6, 78, 127
1, 124535, Note_off_c, 1, 73, 127
1, 124535, Note_off_c, 11, 70, 127
1, 124719, Note_off_c, 11, 58, 127
1, 124723, Note_on_c, 1, 61, 127
1, 124918, Note_off_c, 6, 54, 127
1, 124924, Note_off_c, 1, 61, 127
1, 124928, Note_on_c, 2, 62, 127
1, 124928, Note_on_c, 6, 54, 127
1, 125025, Note_off_c, 6, 78, 127
1, 125030, Note_on_c, 12, 71, 127
1, 125129, Note_off_c, 2, 62, 127
1, 125130, Note_off_c, 12, 71, 127
1, 125132, Note_on_c, 4, 64, 127
1, 125132, Note_on_c, 1, 73, 127
1, 125232, Note_off_c, 1, 73, 127
1, 125232, Note_off_c, 4, 64, 127
1, 125235, Note_on_c, 2, 62, 127
1, 125235, Note_on_c, 2, 74, 127
1, 125335, Note_off_c, 2, 74, 127
1, 125335, Note_off_c, 2, 62, 127
1, 125337, Note_on_c, 1, 61, 127
1, 125337, Note_on_c, 4, 76, 127
1, 125437, Note_off_c, 4, 76, 127
1, 125437, Note_off_c, 1, 61, 127
1, 125440, Note_on_c, 12, 59, 127
1, 125440, Note_on_c, 6, 78, 127
1, 125540, Note_off_c, 6, 78, 127
1, 125540, Note_off_c, 12, 59, 127
1, 125542, Note_on_c, 4, 64, 127
1, 125542, Note_on_c, 7, 79, 127
1, 125743, Note_off_c, 4, 64, 127
1, 125747, Note_on_c, 11, 58, 127
1, 125747, Note_on_c, 1, 73, 127
1, 125947, Note_off_c, 7, 79, 127
1, 125948, Note_off_c, 1, 73, 127
1, 125948, Note_off_c, 11, 58, 127
1, 125952, Note_on_c, 1, 61, 127
1, 125952, Note_on_c, 4, 76, 127
1, 126153, Note_off_c, 4, 76, 127
1, 126153, Note_off_c, 1, 61, 127
1, 126156, Note_on_c, 2, 62, 127
1, 126156, Note_on_c, 6, 78, 127
1, 126357, Note_off_c, 2, 62, 127
1, 126361, Note_on_c, 8, 56, 127
1, 126361, Note_on_c, 12, 71, 127
1, 126561, Note_off_c, 6, 78, 127
1, 126562, Note_off_c, 12, 71, 127
1, 126562, Note_off_c, 8, 56, 127
1, 126566, Note_on_c, 12, 59, 127
1, 126566, Note_on_c, 2, 74, 127
1, 126756, Note_off_c, 6, 54, 127
1, 126767, Note_off_c, 2, 74, 127
1, 126767, Note_off_c, 12, 59, 127
1, 126771, Note_on_c, 1, 61, 127
1, 126771, Note_on_c, 6, 54, 127
1, 126771, Note_on_c, 4, 76, 127
1, 126972, Note_off_c, 4, 76, 127
1, 126972, Note_off_c, 1, 61, 127
1, 126976, Note_on_c, 2, 62, 127
1, 126976, Note_on_c, 6, 78, 127
1, 126976, Note_on_c, 11, 70, 127
1, 127076, Note_off_c, 6, 78, 127
1, 127078, Note_on_c, 4, 76, 127
1, 127103, Note_off_c, 11, 70, 127
1, 127177, Note_off_c, 2, 62, 127
1, 127178, Note_off_c, 4, 76, 127
1, 127180, Note_on_c, 4, 64, 127
1, 127180, Note_on_c, 2, 74, 127
1, 127280, Note_off_c, 2, 74, 127
1, 127283, Note_on_c, 1, 73, 127
1, 127381, Note_off_c, 4, 64, 127
1, 127383, Note_off_c, 1, 73, 127
1, 127385, Note_on_c, 2, 62, 127
1, 127385, Note_on_c, 6, 78, 127
1, 127485, Note_off_c, 2, 62, 127
1, 127488, Note_on_c, 4, 64, 127
1, 127588, Note_off_c, 4, 64, 127
1, 127590, Note_on_c, 2, 62, 127
1, 127590, Note_on_c, 12, 71, 127
1, 127607, Note_off_c, 6, 78, 127
1, 127690, Note_off_c, 2, 62, 127
1, 127692, Note_on_c, 4, 64, 127
1, 127791, Note_off_c, 12, 71, 127
1, 127792, Note_off_c, 4, 64, 127
1, 127795, Note_on_c, 2, 62, 127
1, 127795, Note_on_c, 2, 74, 127
1, 127895, Note_off_c, 2, 62, 127
1, 127897, Note_on_c, 4, 64, 127
1, 127996, Note_off_c, 2, 74, 127
1, 127997, Note_off_c, 4, 64, 127
1, 128000, Note_on_c, 1, 61, 127
1, 128000, Note_on_c, 4, 76, 127
1, 128100, Note_off_c, 1, 61, 127
1, 128102, Note_on_c, 2, 62, 127
1, 128202, Note_off_c, 2, 62, 127
1, 128204, Note_on_c, 1, 61, 127
1, 128204, Note_on_c, 11, 70, 127
1, 128222, Note_off_c, 4, 76, 127
1, 128304, Note_off_c, 1, 61, 127
1, 128307, Note_on_c, 2, 62, 127
1, 128405, Note_off_c, 11, 70, 127
1, 128407, Note_off_c, 2, 62, 127
1, 128409, Note_on_c, 1, 61, 127
1, 128409, Note_on_c, 1, 73, 127
1, 128509, Note_off_c, 1, 61, 127
1, 128512, Note_on_c, 2, 62, 127
1, 128599, Note_off_c, 6, 54, 127
1, 128610, Note_off_c, 1, 73, 127
1, 128612, Note_off_c, 2, 62, 127
1, 128614, Note_on_c, 12, 59, 127
1, 128614, Note_on_c, 12, 71, 127
1, 128614, Note_on_c, 2, 74, 127
1, 128714, Note_off_c, 2, 74, 127
1, 128714, Note_off_c, 12, 71, 127
1, 128716, Note_on_c, 1, 73, 127
1, 128816, Note_off_c, 1, 73, 127
1, 128819, Note_on_c, 12, 71, 127
1, 128919, Note_off_c, 12, 71, 127
1, 128921, Note_on_c, 1, 73, 127
1, 129021, Note_off_c, 1, 73, 127
1, 129024, Note_on_c, 2, 74, 127
1, 129124, Note_off_c, 2, 74, 127
1, 129126, Note_on_c, 4, 76, 127
1, 129226, Note_off_c, 4, 76, 127
1, 129228, Note_on_c, 6, 78, 127
1, 129280, Note_off_c, 12, 59, 127
1, 129328, Note_off_c, 6, 78, 127
1, 129331, Note_on_c, 4, 76, 127
1, 129431, Note_off_c, 4, 76, 127
1, 129433, Note_on_c, 10, 57, 127
1, 129433, Note_on_c, 3, 75, 127
1, 129533, Note_off_c, 3, 75, 127
1, 129533, Note_off_c, 10, 57, 127
1, 129536, Note_on_c, 7, 55, 127
1, 129536, Note_on_c, 4, 76, 127
1, 129636, Note_off_c, 4, 76, 127
1, 129636, Note_off_c, 7, 55, 127
1, 129638, Note_on_c, 6, 54, 127
1, 129638, Note_on_c, 6, 78, 127
1, 129738, Note_off_c, 6, 54, 127
1, 129740, Note_on_c, 4, 52, 127
1, 129740, Note_on_c, 7, 79, 127
1, 129840, Note_off_c, 7, 79, 127
1, 129840, Note_off_c, 4, 52, 127
1, 129843, Note_on_c, 3, 51, 127
1, 129843, Note_on_c, 10, 81, 127
1, 129943, Note_off_c, 3, 51, 127
1, 129945, Note_on_c, 4, 52, 127
1, 130045, Note_off_c, 4, 52, 127
1, 130048, Note_on_c, 6, 54, 127
1, 130148, Note_off_c, 6, 54, 127
1, 130150, Note_on_c, 4, 52, 127
1, 130250, Note_off_c, 4, 52, 127
1, 130252, Note_on_c, 3, 51, 127
1, 130352, Note_off_c, 3, 51, 127
1, 130355, Note_on_c, 1, 49, 127
1, 130455, Note_off_c, 1, 49, 127
1, 130457, Note_on_c, 12, 47, 127
1, 130552, Note_off_c, 6, 78, 127
1, 130553, Note_off_c, 10, 81, 127
1, 130560, Note_on_c, 12, 83, 127
1, 130658, Note_off_c, 12, 47, 127
1, 130660, Note_off_c, 12, 83, 127
1, 130662, Note_on_c, 3, 51, 127
1, 130662, Note_on_c, 6, 78, 127
1, 130662, Note_on_c, 10, 81, 127
1, 130762, Note_off_c, 10, 81, 127
1, 130764, Note_on_c, 12, 83, 127
1, 130836, Note_off_c, 6, 78, 127
1, 130863, Note_off_c, 3, 51, 127
1, 130864, Note_off_c, 12, 83, 127
1, 130867, Note_on_c, 6, 54, 127
1, 130867, Note_on_c, 10, 81, 127
1, 130867, Note_on_c, 6, 78, 127
1, 130967, Note_off_c, 10, 81, 127
1, 130969, Note_on_c, 12, 83, 127
1, 131041, Note_off_c, 6, 78, 127
1, 131068, Note_off_c, 6, 54, 127
1, 131069, Note_off_c, 12, 83, 127
1, 131072, Note_on_c, 12, 59, 127
1, 131072, Note_on_c, 7, 79, 127
1, 131072, Note_on_c, 4, 76, 127
1, 131172, Note_off_c, 7, 79, 127
1, 131174, Note_on_c, 10, 81, 127
1, 131246, Note_off_c, 4, 76, 127
1, 131274, Note_off_c, 10, 81, 127
1, 131276, Note_on_c, 4, 64, 127
1, 131276, Note_on_c, 7, 79, 127
1, 131276, Note_on_c, 4, 76, 127
1, 131376, Note_off_c, 7, 79, 127
1, 131379, Note_on_c, 10, 81, 127
1, 131435, Note_off_c, 4, 76, 127
1, 131477, Note_off_c, 4, 64, 127
1, 131479, Note_off_c, 10, 81, 127
1, 131481, Note_on_c, 7, 67, 127
1, 131481, Note_on_c, 7, 79, 127
1, 131481, Note_on_c, 4, 76, 127
1, 131581, Note_off_c, 7, 79, 127
1, 131584, Note_on_c, 10, 81, 127
1, 131655, Note_off_c, 4, 76, 127
1, 131682, Note_off_c, 7, 67, 127
1, 131684, Note_off_c, 10, 81, 127
1, 131686, Note_on_c, 10, 69, 127
1, 131686, Note_on_c, 3, 75, 127
1, 131686, Note_on_c, 6, 78, 127
1, 131887, Note_off_c, 10, 69, 127
1, 131891, Note_on_c, 3, 63, 127
1, 131891, Note_on_c, 12, 83, 127
1, 131940, Note_off_c, 6, 78, 127
1, 131940, Note_off_c, 3, 75, 127
1, 132092, Note_off_c, 3, 63, 127
1, 132096, Note_on_c, 6, 66, 127
1, 132291, Note_off_c, 12, 59, 127
1, 132297, Note_off_c, 6, 66, 127
1, 132300, Note_on_c, 7, 67, 127
1, 132300, Note_on_c, 12, 59, 127
1, 132383, Note_off_c, 12, 83, 127
1, 132403, Note_on_c, 4, 76, 127
1, 132501, Note_off_c, 7, 67, 127
1, 132503, Note_off_c, 4, 76, 127
1, 132505, Note_on_c, 10, 69, 127
1, 132505, Note_on_c, 6, 78, 127
1, 132605, Note_off_c, 6, 78, 127
1, 132605, Note_off_c, 10, 69, 127
1, 132608, Note_on_c, 7, 67, 127
1, 132608, Note_on_c, 7, 79, 127
1, 132708, Note_off_c, 7, 79, 127
1, 132708, Note_off_c, 7, 67, 127
1, 132710, Note_on_c, 6, 66, 127
1, 132710, Note_on_c, 10, 81, 127
1, 132810, Note_off_c, 10, 81, 127
1, 132810, Note_off_c, 6, 66, 127
1, 132812, Note_on_c, 4, 64, 127
1, 132812, Note_on_c, 12, 83, 127
1, 132912, Note_off_c, 12, 83, 127
1, 132912, Note_off_c, 4, 64, 127
1, 132915, Note_on_c, 10, 69, 127
1, 132915, Note_on_c, 0, 84, 127
1, 133116, Note_off_c, 10, 69, 127
1, 133120, Note_on_c, 3, 63, 127
1, 133120, Note_on_c, 6, 78, 127
1, 133185, Note_off_c, 0, 84, 127
1, 133321, Note_off_c, 3, 63, 127
1, 133324, Note_on_c, 6, 66, 127
1, 133324, Note_on_c, 10, 81, 127
1, 133525, Note_off_c, 10, 81, 127
1, 133525, Note_off_c, 6, 66, 127
1, 133529, Note_on_c, 7, 67, 127
1, 133529, Note_on_c, 12, 83, 127
1, 133724, Note_off_c, 6, 78, 127
1, 133730, Note_off_c, 7, 67, 127
1, 133734, Note_on_c, 1, 61, 127
1, 133734, Note_on_c, 4, 76, 127
1, 133799, Note_off_c, 12, 83, 127
1, 133935, Note_off_c, 1, 61, 127
1, 133939, Note_on_c, 4, 64, 127
1, 133939, Note_on_c, 7, 79, 127
1, 134130, Note_off_c, 12, 59, 127
1, 134140, Note_off_c, 7, 79, 127
1, 134140, Note_off_c, 4, 64, 127
1, 134144, Note_on_c, 6, 66, 127
1, 134144, Note_on_c, 12, 59, 127
1, 134144, Note_on_c, 10, 81, 127
1, 134338, Note_off_c, 4, 76, 127
1, 134345, Note_off_c, 10, 81, 127
1, 134345, Note_off_c, 6, 66, 127
1, 134348, Note_on_c, 7, 67, 127
1, 134348, Note_on_c, 3, 75, 127
1, 134348, Note_on_c, 12, 83, 127
1, 134448, Note_off_c, 12, 83, 127
1, 134451, Note_on_c, 10, 81, 127
1, 134549, Note_off_c, 7, 67, 127
1, 134551, Note_off_c, 10, 81, 127
1, 134553, Note_on_c, 10, 69, 127
1, 134553, Note_on_c, 7, 79, 127
1, 134653, Note_off_c, 7, 79, 127
1, 134656, Note_on_c, 6, 78, 127
1, 134753, Note_off_c, 3, 75, 127
1, 134754, Note_off_c, 10, 69, 127
1, 134756, Note_off_c, 6, 78, 127
1, 134758, Note_on_c, 7, 67, 127
1, 134758, Note_on_c, 12, 83, 127
1, 134858, Note_off_c, 7, 67, 127
1, 134860, Note_on_c, 10, 69, 127
1, 134960, Note_off_c, 10, 69, 127
1, 134963, Note_on_c, 7, 67, 127
1, 134963, Note_on_c, 4, 76, 127
1, 134980, Note_off_c, 12, 83, 127
1, 135063, Note_off_c, 7, 67, 127
1, 135065, Note_on_c, 10, 69, 127
1, 135165, Note_off_c, 10, 69, 127
1, 135168, Note_on_c, 7, 67, 127
1, 135168, Note_on_c, 7, 79, 127
1, 135268, Note_off_c, 7, 67, 127
1, 135270, Note_on_c, 10, 69, 127
1, 135369, Note_off_c, 7, 79, 127
1, 135370, Note_off_c, 10, 69, 127
1, 135372, Note_on_c, 6, 66, 127
1, 135372, Note_on_c, 10, 81, 127
1, 135472, Note_off_c, 6, 66, 127
1, 135475, Note_on_c, 7, 67, 127
1, 135567, Note_off_c, 4, 76, 127
1, 135575, Note_off_c, 7, 67, 127
1, 135577, Note_on_c, 6, 66, 127
1, 135577, Note_on_c, 3, 75, 127
1, 135594, Note_off_c, 10, 81, 127
1, 135677, Note_off_c, 6, 66, 127
1, 135680, Note_on_c, 7, 67, 127
1, 135780, Note_off_c, 7, 67, 127
1, 135782, Note_on_c, 6, 66, 127
1, 135782, Note_on_c, 6, 78, 127
1, 135882, Note_off_c, 6, 66, 127
1, 135884, Note_on_c, 7, 67, 127
1, 135982, Note_off_c, 3, 75, 127
1, 135983, Note_off_c, 6, 78, 127
1, 135984, Note_off_c, 7, 67, 127
1, 135987, Note_on_c, 4, 64, 127
1, 135987, Note_on_c, 7, 79, 127
1, 136075, Note_off_c, 12, 59, 127
1, 136089, Note_on_c, 4, 52, 127
1, 136188, Note_off_c, 4, 64, 127
1, 136189, Note_off_c, 4, 52, 127
1, 136192, Note_on_c, 4, 76, 127
1, 136192, Note_on_c, 7, 55, 127
1, 136292, Note_off_c, 7, 55, 127
1, 136294, Note_on_c, 12, 59, 127
1, 136382, Note_off_c, 4, 76, 127
1, 136394, Note_off_c, 12, 59, 127
1, 136396, Note_on_c, 1, 73, 127
1, 136396, Note_on_c, 4, 64, 127
1, 136496, Note_off_c, 4, 64, 127
1, 136499, Note_on_c, 2, 62, 127
1, 136586, Note_off_c, 1, 73, 127
1, 136599, Note_off_c, 2, 62, 127
1, 136601, Note_on_c, 11, 70, 127
1, 136601, Note_on_c, 4, 64, 127
1, 136750, Note_off_c, 7, 79, 127
1, 136802, Note_off_c, 4, 64, 127
1, 136806, Note_on_c, 11, 58, 127
1, 136806, Note_on_c, 6, 78, 127
1, 136906, Note_off_c, 6, 78, 127
1, 136908, Note_on_c, 4, 76, 127
1, 137007, Note_off_c, 11, 58, 127
1, 137008, Note_off_c, 4, 76, 127
1, 137011, Note_on_c, 1, 61, 127
1, 137011, Note_on_c, 2, 74, 127
1, 137078, Note_off_c, 11, 70, 127
1, 137111, Note_off_c, 2, 74, 127
1, 137113, Note_on_c, 1, 73, 127
1, 137212, Note_off_c, 1, 61, 127
1, 137213, Note_off_c, 1, 73, 127
1, 137216, Note_on_c, 2, 62, 127
1, 137216, Note_on_c, 6, 78, 127
1, 137417, Note_off_c, 6, 78, 127
1, 137417, Note_off_c, 2, 62, 127
1, 137420, Note_on_c, 12, 71, 127
1, 137420, Note_on_c, 8, 56, 127
1, 137420, Note_on_c, 4, 76, 127
1, 137520, Note_off_c, 4, 76, 127
1, 137523, Note_on_c, 2, 74, 127
1, 137621, Note_off_c, 8, 56, 127
1, 137623, Note_off_c, 2, 74, 127
1, 137625, Note_on_c, 12, 59, 127
1, 137625, Note_on_c, 1, 73, 127
1, 137706, Note_off_c, 12, 71, 127
1, 137725, Note_off_c, 1, 73, 127
1, 137728, Note_on_c, 12, 71, 127
1, 137826, Note_off_c, 12, 59, 127
1, 137828, Note_off_c, 12, 71, 127
1, 137830, Note_on_c, 1, 61, 127
1, 137830, Note_on_c, 4, 76, 127
1, 138031, Note_off_c, 1, 61, 127
1, 138035, Note_on_c, 11, 70, 127
1, 138035, Note_on_c, 2, 62, 127
1, 138135, Note_off_c, 2, 62, 127
1, 138137, Note_on_c, 1, 61, 127
1, 138235, Note_off_c, 4, 76, 127
1, 138236, Note_off_c, 11, 70, 127
1, 138237, Note_off_c, 1, 61, 127
1, 138240, Note_on_c, 1, 73, 127
1, 138240, Note_on_c, 12, 59, 127
1, 138340, Note_off_c, 12, 59, 127
1, 138342, Note_on_c, 11, 58, 127
1, 138442, Note_off_c, 11, 58, 127
1, 138444, Note_on_c, 2, 62, 127
1, 138444, Note_on_c, 6, 78, 127
1, 138573, Note_off_c, 1, 73, 127
1, 138645, Note_off_c, 2, 62, 127
1, 138649, Note_on_c, 12, 71, 127
1, 138649, Note_on_c, 8, 56, 127
1, 138793, Note_off_c, 6, 78, 127
1, 138850, Note_off_c, 8, 56, 127
1, 138854, Note_on_c, 12, 59, 127
1, 138854, Note_on_c, 2, 74, 127
1, 139055, Note_off_c, 2, 74, 127
1, 139055, Note_off_c, 12, 59, 127
1, 139059, Note_on_c, 1, 61, 127
1, 139059, Note_on_c, 4, 76, 127
1, 139257, Note_off_c, 12, 71, 127
1, 139260, Note_off_c, 1, 61, 127
1, 139264, Note_on_c, 11, 70, 127
1, 139264, Note_on_c, 6, 54, 127
1, 139465, Note_off_c, 6, 54, 127
1, 139465, Note_off_c, 11, 70, 127
1, 139468, Note_on_c, 1, 73, 127
1, 139468, Note_on_c, 11, 58, 127
1, 139669, Note_off_c, 11, 58, 127
1, 139669, Note_off_c, 1, 73, 127
1, 139673, Note_on_c, 6, 66, 127
1, 139673, Note_on_c, 12, 59, 127
1, 139773, Note_off_c, 12, 59, 127
1, 139776, Note_on_c, 12, 47, 127
1, 139871, Note_off_c, 4, 76, 127
1, 139876, Note_off_c, 12, 47, 127
1, 139878, Note_on_c, 1, 49, 127
1, 139878, Note_on_c, 2, 74, 127
1, 139978, Note_off_c, 1, 49, 127
1, 139980, Note_on_c, 2, 50, 127
1, 140079, Note_off_c, 2, 74, 127
1, 140080, Note_off_c, 2, 50, 127
1, 140083, Note_on_c, 4, 52, 127
1, 140083, Note_on_c, 1, 73, 127
1, 140183, Note_off_c, 4, 52, 127
1, 140185, Note_on_c, 6, 54, 127
1, 140284, Note_off_c, 1, 73, 127
1, 140285, Note_off_c, 6, 54, 127
1, 140288, Note_on_c, 7, 55, 127
1, 140288, Note_on_c, 12, 71, 127
1, 140388, Note_off_c, 7, 55, 127
1, 140390, Note_on_c, 10, 57, 127
1, 140485, Note_off_c, 6, 66, 127
1, 140490, Note_off_c, 10, 57, 127
1, 140492, Note_on_c, 4, 64, 127
1, 140492, Note_on_c, 7, 55, 127
1, 140592, Note_off_c, 7, 55, 127
1, 140595, Note_on_c, 6, 54, 127
1, 140693, Note_off_c, 12, 71, 127
1, 140695, Note_off_c, 6, 54, 127
1, 140697, Note_on_c, 7, 55, 127
1, 140697, Note_on_c, 1, 73, 127
1, 140797, Note_off_c, 7, 55, 127
1, 140800, Note_on_c, 4, 52, 127
1, 140897, Note_off_c, 4, 64, 127
1, 140898, Note_off_c, 1, 73, 127
1, 140900, Note_off_c, 4, 52, 127
1, 140902, Note_on_c, 2, 62, 127
1, 140902, Note_on_c, 6, 54, 127
1, 140902, Note_on_c, 6, 66, 127
1, 141103, Note_off_c, 6, 66, 127
1, 141107, Note_on_c, 12, 71, 127
1, 141307, Note_off_c, 6, 54, 127
1, 141307, Note_off_c, 2, 62, 127
1, 141308, Note_off_c, 12, 71, 127
1, 141312, Note_on_c, 1, 61, 127
1, 141312, Note_on_c, 6, 42, 127
1, 141312, Note_on_c, 11, 70, 127
1, 141513, Note_off_c, 11, 70, 127
1, 141513, Note_off_c, 6, 42, 127
1, 141513, Note_off_c, 1, 61, 127
1, 141516, Note_on_c, 2, 62, 127
1, 141516, Note_on_c, 12, 47, 127
1, 141516, Note_on_c, 12, 71, 127
1, 141690, Note_off_c, 12, 71, 127
1, 141740, Note_on_c, 6, 66, 127
1, 141921, Note_off_c, 2, 62, 127
1, 141936, Note_on_c, 12, 71, 127
1, 141941, Note_off_c, 6, 66, 127
1, 142056, Note_off_c, 12, 47, 127
1, 142131, Note_on_c, 2, 74, 127
1, 142137, Note_off_c, 12, 71, 127
1, 142233, Note_on_c, 12, 47, 127
1, 142333, Note_off_c, 12, 47, 127
1, 142336, Note_on_c, 2, 50, 127
1, 142436, Note_off_c, 2, 50, 127
1, 142438, Note_on_c, 6, 54, 127
1, 142538, Note_off_c, 6, 54, 127
1, 142540, Note_on_c, 12, 59, 127
1, 142640, Note_off_c, 12, 59, 127
1, 142643, Note_on_c, 11, 58, 127
1, 142735, Note_off_c, 2, 74, 127
1, 142743, Note_off_c, 11, 58, 127
1, 142745, Note_on_c, 12, 59, 127
1, 142848, Note_on_c, 2, 62, 127
1, 142948, Note_off_c, 2, 62, 127
1, 142950, Note_on_c, 2, 50, 127
1, 142950, Note_on_c, 6, 66, 127
1, 143050, Note_off_c, 6, 66, 127
1, 143052, Note_on_c, 12, 71, 127
1, 143151, Note_off_c, 2, 50, 127
1, 143152, Note_off_c, 12, 71, 127
1, 143155, Note_on_c, 12, 47, 127
1, 143155, Note_on_c, 2, 74, 127
1, 143255, Note_off_c, 2, 74, 127
1, 143257, Note_on_c, 1, 73, 127
1, 143356, Note_off_c, 12, 47, 127
1, 143357, Note_off_c, 1, 73, 127
1, 143360, Note_on_c, 4, 52, 127
1, 143360, Note_on_c, 2, 74, 127
1, 143460, Note_off_c, 2, 74, 127
1, 143462, Note_on_c, 8, 68, 127
1, 143557, Note_off_c, 12, 59, 127
1, 143562, Note_off_c, 8, 68, 127
1, 143564, Note_on_c, 6, 54, 127
1, 143564, Note_on_c, 10, 69, 127
1, 143664, Note_off_c, 10, 69, 127
1, 143664, Note_off_c, 6, 54, 127
1, 143667, Note_on_c, 8, 56, 127
1, 143667, Note_on_c, 12, 71, 127
1, 143767, Note_off_c, 12, 71, 127
1, 143767, Note_off_c, 8, 56, 127
1, 143769, Note_on_c, 10, 57, 127
1, 143769, Note_on_c, 1, 73, 127
1, 143805, Note_off_c, 4, 52, 127
1, 143869, Note_off_c, 1, 73, 127
1, 143869, Note_off_c, 10, 57, 127
1, 143872, Note_on_c, 12, 59, 127
1, 143872, Note_on_c, 2, 74, 127
1, 143972, Note_off_c, 2, 74, 127
1, 143972, Note_off_c, 12, 59, 127
1, 143974, Note_on_c, 1, 61, 127
1, 143974, Note_on_c, 4, 76, 127
1, 144175, Note_off_c, 4, 76, 127
1, 144179, Note_on_c, 10, 69, 127
1, 144228, Note_off_c, 1, 61, 127
1, 144380, Note_off_c, 10, 69, 127
1, 144384, Note_on_c, 1, 73, 127
1, 144585, Note_off_c, 1, 73, 127
1, 144588, Note_on_c, 12, 59, 127
1, 144588, Note_on_c, 4, 52, 127
1, 144588, Note_on_c, 8, 56, 127
1, 144588, Note_on_c, 2, 74, 127
1, 144789, Note_off_c, 2, 74, 127
1, 144793, Note_on_c, 8, 68, 127
1, 144842, Note_off_c, 8, 56, 127
1, 144842, Note_off_c, 4, 52, 127
1, 144842, Note_off_c, 12, 59, 127
1, 144994, Note_off_c, 8, 68, 127
1, 144998, Note_on_c, 12, 71, 127
1, 145199, Note_off_c, 12, 71, 127
1, 145203, Note_on_c, 10, 57, 127
1, 145203, Note_on_c, 4, 52, 127
1, 145203, Note_on_c, 10, 45, 127
1, 145203, Note_on_c, 1, 73, 127
1, 145404, Note_off_c, 1, 73, 127
1, 145408, Note_on_c, 4, 64, 127
1, 145609, Note_off_c, 4, 64, 127
1, 145612, Note_on_c, 10, 69, 127
1, 145648, Note_off_c, 4, 52, 127
1, 145648, Note_off_c, 10, 57, 127
1, 145711, Note_off_c, 10, 45, 127
1, 145813, Note_off_c, 10, 69, 127
1, 145817, Note_on_c, 0, 72, 127
1, 145920, Note_on_c, 10, 45, 127
1, 146020, Note_off_c, 10, 45, 127
1, 146022, Note_on_c, 0, 48, 127
1, 146122, Note_off_c, 0, 48, 127
1, 146124, Note_on_c, 4, 52, 127
1, 146224, Note_off_c, 4, 52, 127
1, 146227, Note_on_c, 10, 57, 127
1, 146327, Note_off_c, 10, 57, 127
1, 146329, Note_on_c, 7, 55, 127
1, 146421, Note_off_c, 0, 72, 127
1, 146429, Note_off_c, 7, 55, 127
1, 146432, Note_on_c, 10, 57, 127
1, 146534, Note_on_c, 0, 60, 127
1, 146634, Note_off_c, 0, 60, 127
1, 146636, Note_on_c, 0, 48, 127
1, 146636, Note_on_c, 4, 64, 127
1, 146736, Note_off_c, 4, 64, 127
1, 146739, Note_on_c, 10, 69, 127
1, 146837, Note_off_c, 0, 48, 127
1, 146839, Note_off_c, 10, 69, 127
1, 146841, Note_on_c, 10, 45, 127
1, 146841, Note_on_c, 0, 72, 127
1, 146941, Note_off_c, 0, 72, 127
1, 146944, Note_on_c, 12, 71, 127
1, 147042, Note_off_c, 10, 45, 127
1, 147044, Note_off_c, 12, 71, 127
1, 147046, Note_on_c, 2, 50, 127
1, 147046, Note_on_c, 0, 72, 127
1, 147146, Note_off_c, 0, 72, 127
1, 147148, Note_on_c, 6, 66, 127
1, 147244, Note_off_c, 10, 57, 127
1, 147248, Note_off_c, 6, 66, 127
1, 147251, Note_on_c, 4, 52, 127
1, 147251, Note_on_c, 7, 67, 127
1, 147300, Note_off_c, 2, 50, 127
1, 147351, Note_off_c, 7, 67, 127
1, 147351, Note_off_c, 4, 52, 127
1, 147353, Note_on_c, 6, 54, 127
1, 147353, Note_on_c, 10, 69, 127
1, 147453, Note_off_c, 10, 69, 127
1, 147453, Note_off_c, 6, 54, 127
1, 147456, Note_on_c, 7, 55, 127
1, 147456, Note_on_c, 12, 71, 127
1, 147556, Note_off_c, 12, 71, 127
1, 147556, Note_off_c, 7, 55, 127
1, 147558, Note_on_c, 10, 57, 127
1, 147558, Note_on_c, 0, 72, 127
1, 147658, Note_off_c, 0, 72, 127
1, 147658, Note_off_c, 10, 57, 127
1, 147660, Note_on_c, 12, 59, 127
1, 147660, Note_on_c, 2, 74, 127
1, 147861, Note_off_c, 2, 74, 127
1, 147865, Note_on_c, 7, 67, 127
1, 147914, Note_off_c, 12, 59, 127
1, 148066, Note_off_c, 7, 67, 127
1, 148070, Note_on_c, 12, 71, 127
1, 148271, Note_off_c, 12, 71, 127
1, 148275, Note_on_c, 10, 57, 127
1, 148275, Note_on_c, 2, 50, 127
1, 148275, Note_on_c, 6, 54, 127
1, 148275, Note_on_c, 0, 72, 127
1, 148476, Note_off_c, 0, 72, 127
1, 148480, Note_on_c, 6, 66, 127
1, 148529, Note_off_c, 6, 54, 127
1, 148529, Note_off_c, 2, 50, 127
1, 148529, Note_off_c, 10, 57, 127
1, 148681, Note_off_c, 6, 66, 127
1, 148684, Note_on_c, 10, 69, 127
1, 148885, Note_off_c, 10, 69, 127
1, 148889, Note_on_c, 2, 50, 127
1, 148889, Note_on_c, 7, 55, 127
1, 148889, Note_on_c, 7, 43, 127
1, 148889, Note_on_c, 12, 71, 127
1, 149090, Note_off_c, 12, 71, 127
1, 149094, Note_on_c, 0, 72, 127
1, 149194, Note_off_c, 0, 72, 127
1, 149196, Note_on_c, 12, 71, 127
1, 149296, Note_off_c, 12, 71, 127
1, 149299, Note_on_c, 10, 69, 127
1, 149397, Note_off_c, 7, 55, 127
1, 149397, Note_off_c, 2, 50, 127
1, 149399, Note_off_c, 10, 69, 127
1, 149401, Note_on_c, 7, 67, 127
1, 149501, Note_off_c, 7, 67, 127
1, 149504, Note_on_c, 4, 76, 127
1, 149525, Note_off_c, 7, 43, 127
1, 149606, Note_on_c, 10, 45, 127
1, 149706, Note_off_c, 10, 45, 127
1, 149708, Note_on_c, 12, 47, 127
1, 149808, Note_off_c, 12, 47, 127
1, 149811, Note_on_c, 1, 49, 127
1, 149911, Note_off_c, 1, 49, 127
1, 149913, Note_on_c, 2, 50, 127
1, 150013, Note_off_c, 2, 50, 127
1, 150016, Note_on_c, 4, 52, 127
1, 150116, Note_off_c, 4, 52, 127
1, 150118, Note_on_c, 6, 42, 127
1, 150316, Note_off_c, 4, 76, 127
1, 150323, Note_on_c, 6, 78, 127
1, 150423, Note_off_c, 6, 78, 127
1, 150425, Note_on_c, 4, 76, 127
1, 150525, Note_off_c, 4, 76, 127
1, 150528, Note_on_c, 2, 74, 127
1, 150628, Note_off_c, 2, 74, 127
1, 150630, Note_on_c, 1, 73, 127
1, 150722, Note_off_c, 6, 42, 127
1, 150730, Note_off_c, 1, 73, 127
1, 150732, Note_on_c, 10, 81, 127
1, 150835, Note_on_c, 2, 38, 127
1, 150935, Note_off_c, 2, 38, 127
1, 150937, Note_on_c, 4, 40, 127
1, 151037, Note_off_c, 4, 40, 127
1, 151040, Note_on_c, 6, 42, 127
1, 151140, Note_off_c, 6, 42, 127
1, 151142, Note_on_c, 7, 43, 127
1, 151242, Note_off_c, 7, 43, 127
1, 151244, Note_on_c, 10, 45, 127
1, 151344, Note_off_c, 10, 45, 127
1, 151347, Note_on_c, 12, 47, 127
1, 151544, Note_off_c, 10, 81, 127
1, 151552, Note_on_c, 2, 50, 127
1, 151552, Note_on_c, 12, 83, 127
1, 151652, Note_off_c, 12, 83, 127
1, 151654, Note_on_c, 10, 81, 127
1, 151752, Note_off_c, 12, 47, 127
1, 151753, Note_off_c, 2, 50, 127
1, 151754, Note_off_c, 10, 81, 127
1, 151756, Note_on_c, 7, 55, 127
1, 151756, Note_on_c, 7, 79, 127
1, 151856, Note_off_c, 7, 79, 127
1, 151859, Note_on_c, 6, 78, 127
1, 151957, Note_off_c, 7, 55, 127
1, 151959, Note_off_c, 6, 78, 127
1, 151961, Note_on_c, 1, 49, 127
1, 151961, Note_on_c, 7, 79, 127
1, 152162, Note_off_c, 7, 79, 127
1, 152166, Note_on_c, 4, 52, 127
1, 152166, Note_on_c, 10, 81, 127
1, 152266, Note_off_c, 10, 81, 127
1, 152268, Note_on_c, 7, 79, 127
1, 152366, Note_off_c, 1, 49, 127
1, 152367, Note_off_c, 4, 52, 127
1, 152368, Note_off_c, 7, 79, 127
1, 152371, Note_on_c, 10, 57, 127
1, 152371, Note_on_c, 6, 78, 127
1, 152471, Note_off_c, 6, 78, 127
1, 152473, Note_on_c, 4, 76, 127
1, 152572, Note_off_c, 10, 57, 127
1, 152573, Note_off_c, 4, 76, 127
1, 152576, Note_on_c, 2, 50, 127
1, 152576, Note_on_c, 6, 78, 127
1, 152777, Note_off_c, 6, 78, 127
1, 152780, Note_on_c, 10, 57, 127
1, 152780, Note_on_c, 7, 79, 127
1, 152880, Note_off_c, 7, 79, 127
1, 152883, Note_on_c, 6, 78, 127
1, 152981, Note_off_c, 10, 57, 127
1, 152981, Note_off_c, 2, 50, 127
1, 152983, Note_off_c, 6, 78, 127
1, 152985, Note_on_c, 0, 60, 127
1, 152985, Note_on_c, 4, 76, 127
1, 153085, Note_off_c, 4, 76, 127
1, 153088, Note_on_c, 2, 74, 127
1, 153186, Note_off_c, 0, 60, 127
1, 153188, Note_off_c, 2, 74, 127
1, 153190, Note_on_c, 12, 59, 127
1, 153190, Note_on_c, 7, 79, 127
1, 153391, Note_off_c, 7, 79, 127
1, 153391, Note_off_c, 12, 59, 127
1, 153395, Note_on_c, 10, 57, 127
1, 153395, Note_on_c, 10, 81, 127
1, 153495, Note_off_c, 10, 81, 127
1, 153497, Note_on_c, 7, 79, 127
1, 153596, Note_off_c, 10, 57, 127
1, 153597, Note_off_c, 7, 79, 127
1, 153600, Note_on_c, 7, 55, 127
1, 153600, Note_on_c, 6, 78, 127
1, 153700, Note_off_c, 6, 78, 127
1, 153702, Note_on_c, 4, 76, 127
1, 153801, Note_off_c, 7, 55, 127
1, 153802, Note_off_c, 4, 76, 127
1, 153804, Note_on_c, 6, 54, 127
1, 153804, Note_on_c, 10, 81, 127
1, 154005, Note_off_c, 10, 81, 127
1, 154005, Note_off_c, 6, 54, 127
1, 154009, Note_on_c, 10, 57, 127
1, 154009, Note_on_c, 7, 79, 127
1, 154109, Note_off_c, 7, 79, 127
1, 154112, Note_on_c, 6, 78, 127
1, 154210, Note_off_c, 10, 57, 127
1, 154212, Note_off_c, 6, 78, 127
1, 154214, Note_on_c, 7, 55, 127
1, 154214, Note_on_c, 4, 76, 127
1, 154314, Note_off_c, 4, 76, 127
1, 154316, Note_on_c, 2, 74, 127
1, 154415, Note_off_c, 7, 55, 127
1, 154416, Note_off_c, 2, 74, 127
1, 154419, Note_on_c, 10, 57, 127
1, 154419, Note_on_c, 1, 73, 127
1, 154519, Note_off_c, 1, 73, 127
1, 154521, Note_on_c, 2, 74, 127
1, 154621, Note_off_c, 2, 74, 127
1, 154624, Note_on_c, 1, 73, 127
1, 154724, Note_off_c, 1, 73, 127
1, 154726, Note_on_c, 12, 71, 127
1, 154824, Note_off_c, 10, 57, 127
1, 154826, Note_off_c, 12, 71, 127
1, 154828, Note_on_c, 10, 69, 127
1, 154928, Note_off_c, 10, 69, 127
1, 154931, Note_on_c, 7, 67, 127
1, 155031, Note_off_c, 7, 67, 127
1, 155033, Note_on_c, 6, 66, 127
1, 155136, Note_on_c, 7, 79, 127
1, 155236, Note_off_c, 7, 79, 127
1, 155238, Note_on_c, 6, 78, 127
1, 155338, Note_off_c, 6, 78, 127
1, 155340, Note_on_c, 4, 76, 127
1, 155440, Note_off_c, 4, 76, 127
1, 155443, Note_on_c, 2, 74, 127
1, 155543, Note_off_c, 2, 74, 127
1, 155545, Note_on_c, 0, 72, 127
1, 155605, Note_off_c, 6, 66, 127
1, 155645, Note_off_c, 0, 72, 127
1, 155648, Note_on_c, 2, 62, 127
1, 155750, Note_on_c, 4, 76, 127
1, 155850, Note_off_c, 4, 76, 127
1, 155852, Note_on_c, 2, 74, 127
1, 155952, Note_off_c, 2, 74, 127
1, 155955, Note_on_c, 0, 72, 127
1, 156055, Note_off_c, 0, 72, 127
1, 156057, Note_on_c, 12, 71, 127
1, 156157, Note_off_c, 12, 71, 127
1, 156160, Note_on_c, 10, 69, 127
1, 156220, Note_off_c, 2, 62, 127
1, 156260, Note_off_c, 10, 69, 127
1, 156262, Note_on_c, 7, 55, 127
1, 156364, Note_on_c, 0, 72, 127
1, 156464, Note_off_c, 0, 72, 127
1, 156467, Note_on_c, 12, 71, 127
1, 156567, Note_off_c, 12, 71, 127
1, 156569, Note_on_c, 10, 69, 127
1, 156667, Note_off_c, 7, 55, 127
1, 156669, Note_off_c, 10, 69, 127
1, 156672, Note_on_c, 7, 67, 127
1, 156772, Note_off_c, 7, 67, 127
1, 156774, Note_on_c, 6, 66, 127
1, 156874, Note_off_c, 6, 66, 127
1, 156876, Note_on_c, 4, 64, 127
1, 156979, Note_on_c, 6, 78, 127
1, 157079, Note_off_c, 6, 78, 127
1, 157081, Note_on_c, 4, 76, 127
1, 157181, Note_off_c, 4, 76, 127
1, 157184, Note_on_c, 2, 74, 127
1, 157284, Note_off_c, 2, 74, 127
1, 157286, Note_on_c, 1, 73, 127
1, 157289, Note_off_c, 4, 64, 127
1, 157386, Note_off_c, 1, 73, 127
1, 157388, Note_on_c, 12, 71, 127
1, 157488, Note_off_c, 12, 71, 127
1, 157491, Note_on_c, 1, 61, 127
1, 157593, Note_on_c, 2, 74, 127
1, 157693, Note_off_c, 2, 74, 127
1, 157696, Note_on_c, 1, 73, 127
1, 157796, Note_off_c, 1, 73, 127
1, 157798, Note_on_c, 12, 71, 127
1, 157898, Note_off_c, 12, 71, 127
1, 157900, Note_on_c, 10, 69, 127
1, 157904, Note_off_c, 1, 61, 127
1, 158000, Note_off_c, 10, 69, 127
1, 158003, Note_on_c, 7, 67, 127
1, 158103, Note_off_c, 7, 67, 127
1, 158105, Note_on_c, 6, 54, 127
1, 158208, Note_on_c, 12, 71, 127
1, 158308, Note_off_c, 12, 71, 127
1, 158310, Note_on_c, 10, 69, 127
1, 158410, Note_off_c, 10, 69, 127
1, 158412, Note_on_c, 7, 67, 127
1, 158510, Note_off_c, 6, 54, 127
1, 158512, Note_off_c, 7, 67, 127
1, 158515, Note_on_c, 6, 66, 127
1, 158615, Note_off_c, 6, 66, 127
1, 158617, Note_on_c, 4, 64, 127
1, 158717, Note_off_c, 4, 64, 127
1, 158720, Note_on_c, 2, 62, 127
1, 158822, Note_on_c, 4, 76, 127
1, 158922, Note_off_c, 4, 76, 127
1, 158924, Note_on_c, 2, 74, 127
1, 158926, Note_off_c, 2, 62, 127
1, 159024, Note_off_c, 2, 74, 127
1, 159027, Note_on_c, 1, 73, 127
1, 159127, Note_off_c, 1, 73, 127
1, 159129, Note_on_c, 12, 71, 127
1, 159229, Note_off_c, 12, 71, 127
1, 159232, Note_on_c, 10, 69, 127
1, 159332, Note_off_c, 10, 69, 127
1, 159334, Note_on_c, 12, 59, 127
1, 159436, Note_on_c, 0, 72, 127
1, 159536, Note_off_c, 0, 72, 127
1, 159539, Note_on_c, 12, 71, 127
1, 159540, Note_off_c, 12, 59, 127
1, 159639, Note_off_c, 12, 71, 127
1, 159641, Note_on_c, 10, 69, 127
1, 159741, Note_off_c, 10, 69, 127
1, 159744, Note_on_c, 7, 67, 127
1, 159844, Note_off_c, 7, 67, 127
1, 159846, Note_on_c, 6, 66, 127
1, 159946, Note_off_c, 6, 66, 127
1, 159948, Note_on_c, 4, 52, 127
1, 160051, Note_on_c, 10, 69, 127
1, 160151, Note_off_c, 10, 69, 127
1, 160153, Note_on_c, 7, 67, 127
1, 160253, Note_off_c, 7, 67, 127
1, 160256, Note_on_c, 6, 66, 127
1, 160353, Note_off_c, 4, 52, 127
1, 160356, Note_off_c, 6, 66, 127
1, 160358, Note_on_c, 4, 64, 127
1, 160458, Note_off_c, 4, 64, 127
1, 160460, Note_on_c, 2, 62, 127
1, 160560, Note_off_c, 2, 62, 127
1, 160563, Note_on_c, 1, 61, 127
1, 160663, Note_off_c, 1, 61, 127
1, 160665, Note_on_c, 2, 74, 127
1, 160765, Note_off_c, 2, 74, 127
1, 160768, Note_on_c, 1, 73, 127
1, 160868, Note_off_c, 1, 73, 127
1, 160870, Note_on_c, 12, 71, 127
1, 160970, Note_off_c, 12, 71, 127
1, 160972, Note_on_c, 10, 69, 127
1, 161072, Note_off_c, 10, 69, 127
1, 161075, Note_on_c, 7, 67, 127
1, 161175, Note_off_c, 7, 67, 127
1, 161177, Note_on_c, 10, 57, 127
1, 161277, Note_off_c, 10, 57, 127
1, 161280, Note_on_c, 12, 71, 127
1, 161380, Note_off_c, 12, 71, 127
1, 161382, Note_on_c, 10, 69, 127
1, 161482, Note_off_c, 10, 69, 127
1, 161484, Note_on_c, 7, 67, 127
1, 161584, Note_off_c, 7, 67, 127
1, 161587, Note_on_c, 6, 66, 127
1, 161687, Note_off_c, 6, 66, 127
1, 161689, Note_on_c, 4, 64, 127
1, 161789, Note_off_c, 4, 64, 127
1, 161792, Note_on_c, 2, 50, 127
1, 161792, Note_on_c, 6, 66, 127
1, 161892, Note_off_c, 6, 66, 127
1, 161894, Note_on_c, 10, 57, 127
1, 161994, Note_off_c, 10, 57, 127
1, 161996, Note_on_c, 12, 59, 127
1, 162096, Note_off_c, 12, 59, 127
1, 162099, Note_on_c, 1, 61, 127
1, 162199, Note_off_c, 1, 61, 127
1, 162201, Note_on_c, 2, 62, 127
1, 162301, Note_off_c, 2, 62, 127
1, 162304, Note_on_c, 4, 64, 127
1, 162404, Note_off_c, 4, 64, 127
1, 162406, Note_on_c, 6, 66, 127
1, 162502, Note_off_c, 2, 50, 127
1, 162506, Note_off_c, 6, 66, 127
1, 162508, Note_on_c, 4, 52, 127
1, 162508, Note_on_c, 2, 62, 127
1, 162608, Note_off_c, 2, 62, 127
1, 162608, Note_off_c, 4, 52, 127
1, 162611, Note_on_c, 2, 50, 127
1, 162611, Note_on_c, 4, 64, 127
1, 162711, Note_off_c, 4, 64, 127
1, 162711, Note_off_c, 2, 50, 127
1, 162713, Note_on_c, 0, 48, 127
1, 162713, Note_on_c, 6, 66, 127
1, 162813, Note_off_c, 6, 66, 127
1, 162813, Note_off_c, 0, 48, 127
1, 162816, Note_on_c, 12, 47, 127
1, 162816, Note_on_c, 7, 67, 127
1, 162916, Note_off_c, 7, 67, 127
1, 162916, Note_off_c, 12, 47, 127
1, 162918, Note_on_c, 10, 45, 127
1, 162918, Note_on_c, 10, 69, 127
1, 163018, Note_off_c, 10, 69, 127
1, 163018, Note_off_c, 10, 45, 127
1, 163020, Note_on_c, 7, 43, 127
1, 163020, Note_on_c, 12, 71, 127
1, 163120, Note_off_c, 7, 43, 127
1, 163123, Note_on_c, 10, 45, 127
1, 163223, Note_off_c, 10, 45, 127
1, 163225, Note_on_c, 7, 43, 127
1, 163325, Note_off_c, 7, 43, 127
1, 163328, Note_on_c, 6, 42, 127
1, 163428, Note_off_c, 6, 42, 127
1, 163430, Note_on_c, 4, 40, 127
1, 163530, Note_off_c, 4, 40, 127
1, 163532, Note_on_c, 2, 38, 127
1, 163624, Note_off_c, 12, 71, 127
1, 163632, Note_off_c, 2, 38, 127
1, 163635, Note_on_c, 1, 37, 127
1, 163737, Note_on_c, 1, 61, 127
1, 163837, Note_off_c, 1, 61, 127
1, 163840, Note_on_c, 2, 62, 127
1, 163940, Note_off_c, 2, 62, 127
1, 163942, Note_on_c, 4, 64, 127
1, 164042, Note_off_c, 4, 64, 127
1, 164044, Note_on_c, 6, 66, 127
1, 164144, Note_off_c, 6, 66, 127
1, 164147, Note_on_c, 8, 68, 127
1, 164239, Note_off_c, 1, 37, 127
1, 164247, Note_off_c, 8, 68, 127
1, 164249, Note_on_c, 10, 69, 127
1, 164349, Note_off_c, 10, 69, 127
1, 164352, Note_on_c, 2, 50, 127
1, 164352, Note_on_c, 8, 68, 127
1, 164452, Note_off_c, 8, 68, 127
1, 164452, Note_off_c, 2, 50, 127
1, 164454, Note_on_c, 1, 49, 127
1, 164454, Note_on_c, 10, 69, 127
1, 164554, Note_off_c, 10, 69, 127
1, 164554, Note_off_c, 1, 49, 127
1, 164556, Note_on_c, 12, 47, 127
1, 164556, Note_on_c, 12, 71, 127
1, 164656, Note_off_c, 12, 71, 127
1, 164656, Note_off_c, 12, 47, 127
1, 164659, Note_on_c, 10, 45, 127
1, 164659, Note_on_c, 1, 73, 127
1, 164759, Note_off_c, 1, 73, 127
1, 164759, Note_off_c, 10, 45, 127
1, 164761, Note_on_c, 7, 43, 127
1, 164761, Note_on_c, 2, 74, 127
1, 164861, Note_off_c, 2, 74, 127
1, 164861, Note_off_c, 7, 43, 127
1, 164864, Note_on_c, 6, 42, 127
1, 164864, Note_on_c, 4, 76, 127
1, 164964, Note_off_c, 6, 42, 127
1, 164966, Note_on_c, 7, 43, 127
1, 165066, Note_off_c, 7, 43, 127
1, 165068, Note_on_c, 6, 42, 127
1, 165168, Note_off_c, 6, 42, 127
1, 165171, Note_on_c, 4, 40, 127
1, 165213, Note_off_c, 4, 76, 127
1, 165271, Note_off_c, 4, 40, 127
1, 165273, Note_on_c, 2, 38, 127
1, 165373, Note_off_c, 2, 38, 127
1, 165376, Note_on_c, 1, 37, 127
1, 165476, Note_off_c, 1, 37, 127
1, 165478, Note_on_c, 12, 35, 127
1, 165580, Note_on_c, 6, 66, 127
1, 165680, Note_off_c, 6, 66, 127
1, 165683, Note_on_c, 7, 67, 127
1, 165783, Note_off_c, 7, 67, 127
1, 165785, Note_on_c, 10, 69, 127
1, 165885, Note_off_c, 10, 69, 127
1, 165888, Note_on_c, 12, 71, 127
1, 165988, Note_off_c, 12, 71, 127
1, 165990, Note_on_c, 1, 73, 127
1, 166082, Note_off_c, 12, 35, 127
1, 166090, Note_off_c, 1, 73, 127
1, 166092, Note_on_c, 2, 74, 127
1, 166192, Note_off_c, 2, 74, 127
1, 166195, Note_on_c, 1, 49, 127
1, 166195, Note_on_c, 12, 71, 127
1, 166295, Note_off_c, 12, 71, 127
1, 166295, Note_off_c, 1, 49, 127
1, 166297, Note_on_c, 12, 47, 127
1, 166297, Note_on_c, 1, 73, 127
1, 166397, Note_off_c, 1, 73, 127
1, 166397, Note_off_c, 12, 47, 127
1, 166400, Note_on_c, 10, 45, 127
1, 166400, Note_on_c, 2, 74, 127
1, 166500, Note_off_c, 2, 74, 127
1, 166500, Note_off_c, 10, 45, 127
1, 166502, Note_on_c, 7, 43, 127
1, 166502, Note_on_c, 4, 76, 127
1, 166602, Note_off_c, 4, 76, 127
1, 166602, Note_off_c, 7, 43, 127
1, 166604, Note_on_c, 6, 42, 127
1, 166604, Note_on_c, 6, 78, 127
1, 166704, Note_off_c, 6, 78, 127
1, 166704, Note_off_c, 6, 42, 127
1, 166707, Note_on_c, 4, 40, 127
1, 166707, Note_on_c, 7, 79, 127
1, 166807, Note_off_c, 4, 40, 127
1, 166809, Note_on_c, 6, 42, 127
1, 166909, Note_off_c, 6, 42, 127
1, 166912, Note_on_c, 4, 40, 127
1, 167012, Note_off_c, 4, 40, 127
1, 167014, Note_on_c, 2, 38, 127
1, 167056, Note_off_c, 7, 79, 127
1, 167114, Note_off_c, 2, 38, 127
1, 167116, Note_on_c, 1, 37, 127
1, 167216, Note_off_c, 1, 37, 127
1, 167219, Note_on_c, 12, 35, 127
1, 167319, Note_off_c, 12, 35, 127
1, 167321, Note_on_c, 10, 33, 127
1, 167424, Note_on_c, 10, 69, 127
1, 167524, Note_off_c, 10, 69, 127
1, 167526, Note_on_c, 12, 71, 127
1, 167626, Note_off_c, 12, 71, 127
1, 167628, Note_on_c, 0, 72, 127
1, 167728, Note_off_c, 0, 72, 127
1, 167731, Note_on_c, 2, 74, 127
1, 167831, Note_off_c, 2, 74, 127
1, 167833, Note_on_c, 4, 76, 127
1, 167933, Note_off_c, 4, 76, 127
1, 167936, Note_on_c, 6, 78, 127
1, 167971, Note_off_c, 10, 33, 127
1, 168036, Note_off_c, 6, 78, 127
1, 168038, Note_on_c, 12, 47, 127
1, 168038, Note_on_c, 4, 76, 127
1, 168138, Note_off_c, 4, 76, 127
1, 168138, Note_off_c, 12, 47, 127
1, 168140, Note_on_c, 10, 45, 127
1, 168140, Note_on_c, 6, 78, 127
1, 168240, Note_off_c, 6, 78, 127
1, 168240, Note_off_c, 10, 45, 127
1, 168243, Note_on_c, 7, 43, 127
1, 168243, Note_on_c, 7, 79, 127
1, 168343, Note_off_c, 7, 79, 127
1, 168343, Note_off_c, 7, 43, 127
1, 168345, Note_on_c, 6, 42, 127
1, 168345, Note_on_c, 10, 81, 127
1, 168445, Note_off_c, 10, 81, 127
1, 168445, Note_off_c, 6, 42, 127
1, 168448, Note_on_c, 4, 40, 127
1, 168448, Note_on_c, 12, 83, 127
1, 168548, Note_off_c, 12, 83, 127
1, 168548, Note_off_c, 4, 40, 127
1, 168550, Note_on_c, 2, 38, 127
1, 168550, Note_on_c, 0, 84, 127
1, 168650, Note_off_c, 2, 38, 127
1, 168652, Note_on_c, 4, 40, 127
1, 168752, Note_off_c, 4, 40, 127
1, 168755, Note_on_c, 2, 38, 127
1, 168855, Note_off_c, 2, 38, 127
1, 168857, Note_on_c, 0, 36, 127
1, 168955, Note_off_c, 0, 84, 127
1, 168957, Note_off_c, 0, 36, 127
1, 168960, Note_on_c, 12, 35, 127
1, 169060, Note_off_c, 12, 35, 127
1, 169062, Note_on_c, 10, 33, 127
1, 169162, Note_off_c, 10, 33, 127
1, 169164, Note_on_c, 7, 31, 127
1, 169264, Note_off_c, 7, 31, 127
1, 169267, Note_on_c, 12, 35, 127
1, 169267, Note_on_c, 2, 74, 127
1, 169367, Note_off_c, 2, 74, 127
1, 169367, Note_off_c, 12, 35, 127
1, 169369, Note_on_c, 0, 36, 127
1, 169369, Note_on_c, 4, 76, 127
1, 169469, Note_off_c, 4, 76, 127
1, 169469, Note_off_c, 0, 36, 127
1, 169472, Note_on_c, 2, 38, 127
1, 169472, Note_on_c, 6, 78, 127
1, 169572, Note_off_c, 6, 78, 127
1, 169572, Note_off_c, 2, 38, 127
1, 169574, Note_on_c, 4, 40, 127
1, 169574, Note_on_c, 7, 79, 127
1, 169674, Note_off_c, 7, 79, 127
1, 169674, Note_off_c, 4, 40, 127
1, 169676, Note_on_c, 6, 42, 127
1, 169676, Note_on_c, 10, 81, 127
1, 169776, Note_off_c, 10, 81, 127
1, 169776, Note_off_c, 6, 42, 127
1, 169779, Note_on_c, 7, 43, 127
1, 169779, Note_on_c, 12, 83, 127
1, 169984, Note_on_c, 10, 81, 127
1, 169993, Note_off_c, 12, 83, 127
1, 170098, Note_off_c, 7, 43, 127
1, 170174, Note_off_c, 10, 81, 127
1, 170188, Note_on_c, 7, 79, 127
1, 170393, Note_on_c, 12, 59, 127
1, 170393, Note_on_c, 7, 55, 127
1, 170490, Note_off_c, 7, 79, 127
1, 170598, Note_on_c, 6, 78, 127
1, 170647, Note_off_c, 7, 55, 127
1, 170647, Note_off_c, 12, 59, 127
1, 170799, Note_off_c, 6, 78, 127
1, 170803, Note_on_c, 4, 76, 127
1, 171004, Note_off_c, 4, 76, 127
1, 171008, Note_on_c, 10, 57, 127
1, 171008, Note_on_c, 7, 55, 127
1, 171008, Note_on_c, 2, 74, 127
1, 171209, Note_off_c, 2, 74, 127
1, 171212, Note_on_c, 1, 73, 127
1, 171413, Note_off_c, 1, 73, 127
1, 171413, Note_off_c, 7, 55, 127
1, 171413, Note_off_c, 10, 57, 127
1, 171417, Note_on_c, 10, 81, 127
1, 171622, Note_on_c, 6, 42, 127
1, 171719, Note_off_c, 10, 81, 127
1, 171827, Note_on_c, 7, 79, 127
1, 171876, Note_off_c, 6, 42, 127
1, 172028, Note_off_c, 7, 79, 127
1, 172032, Note_on_c, 6, 78, 127
1, 172236, Note_on_c, 10, 57, 127
1, 172236, Note_on_c, 6, 54, 127
1, 172334, Note_off_c, 6, 78, 127
1, 172441, Note_on_c, 4, 76, 127
1, 172490, Note_off_c, 6, 54, 127
1, 172490, Note_off_c, 10, 57, 127
1, 172642, Note_off_c, 4, 76, 127
1, 172646, Note_on_c, 2, 74, 127
1, 172847, Note_off_c, 2, 74, 127
1, 172851, Note_on_c, 7, 55, 127
1, 172851, Note_on_c, 6, 54, 127
1, 172851, Note_on_c, 0, 72, 127
1, 173052, Note_off_c, 0, 72, 127
1, 173056, Note_on_c, 12, 71, 127
1, 173256, Note_off_c, 6, 54, 127
1, 173256, Note_off_c, 7, 55, 127
1, 173257, Note_off_c, 12, 71, 127
1, 173260, Note_on_c, 7, 79, 127
1, 173465, Note_on_c, 4, 52, 127
1, 173562, Note_off_c, 7, 79, 127
1, 173670, Note_on_c, 6, 78, 127
1, 173719, Note_off_c, 4, 52, 127
1, 173871, Note_off_c, 6, 78, 127
1, 173875, Note_on_c, 4, 76, 127
1, 174080, Note_on_c, 7, 55, 127
1, 174080, Note_on_c, 2, 50, 127
1, 174177, Note_off_c, 4, 76, 127
1, 174284, Note_on_c, 2, 74, 127
1, 174334, Note_off_c, 2, 50, 127
1, 174334, Note_off_c, 7, 55, 127
1, 174485, Note_off_c, 2, 74, 127
1, 174489, Note_on_c, 1, 73, 127
1, 174690, Note_off_c, 1, 73, 127
1, 174694, Note_on_c, 1, 49, 127
1, 174694, Note_on_c, 7, 55, 127
1, 174694, Note_on_c, 12, 71, 127
1, 174895, Note_off_c, 12, 71, 127
1, 174899, Note_on_c, 10, 69, 127
1, 175099, Note_off_c, 1, 49, 127
1, 175100, Note_off_c, 10, 69, 127
1, 175104, Note_on_c, 4, 76, 127
1, 175234, Note_off_c, 7, 55, 127
1, 175308, Note_on_c, 10, 45, 127
1, 175453, Note_off_c, 4, 76, 127
1, 175513, Note_on_c, 2, 74, 127
1, 175562, Note_off_c, 10, 45, 127
1, 175714, Note_off_c, 2, 74, 127
1, 175718, Note_on_c, 1, 73, 127
1, 175923, Note_on_c, 1, 61, 127
1, 175923, Note_on_c, 10, 57, 127
1, 176067, Note_off_c, 1, 73, 127
1, 176128, Note_on_c, 12, 71, 127
1, 176177, Note_off_c, 10, 57, 127
1, 176177, Note_off_c, 1, 61, 127
1, 176329, Note_off_c, 12, 71, 127
1, 176332, Note_on_c, 10, 69, 127
1, 176533, Note_off_c, 10, 69, 127
1, 176537, Note_on_c, 10, 57, 127
1, 176537, Note_on_c, 2, 62, 127
1, 176537, Note_on_c, 7, 67, 127
1, 176738, Note_off_c, 7, 67, 127
1, 176742, Note_on_c, 5, 65, 127
1, 176942, Note_off_c, 10, 57, 127
1, 176947, Note_on_c, 5, 77, 127
1, 177109, Note_off_c, 2, 62, 127
1, 177147, Note_off_c, 5, 65, 127
1, 177152, Note_on_c, 10, 45, 127
1, 177249, Note_off_c, 5, 77, 127
1, 177356, Note_on_c, 4, 76, 127
1, 177406, Note_off_c, 10, 45, 127
1, 177557, Note_off_c, 4, 76, 127
1, 177561, Note_on_c, 2, 74, 127
1, 177766, Note_on_c, 5, 65, 127
1, 177766, Note_on_c, 2, 62, 127
1, 177766, Note_on_c, 10, 57, 127
1, 177910, Note_off_c, 2, 74, 127
1, 177971, Note_on_c, 0, 72, 127
1, 178020, Note_off_c, 10, 57, 127
1, 178020, Note_off_c, 2, 62, 127
1, 178020, Note_off_c, 5, 65, 127
1, 178172, Note_off_c, 0, 72, 127
1, 178176, Note_on_c, 12, 71, 127
1, 178377, Note_off_c, 12, 71, 127
1, 178380, Note_on_c, 5, 65, 127
1, 178380, Note_on_c, 2, 62, 127
1, 178380, Note_on_c, 12, 59, 127
1, 178380, Note_on_c, 10, 69, 127
1, 178581, Note_off_c, 10, 69, 127
1, 178585, Note_on_c, 8, 68, 127
1, 178785, Note_off_c, 12, 59, 127
1, 178785, Note_off_c, 5, 65, 127
1, 178786, Note_off_c, 8, 68, 127
1, 178790, Note_on_c, 12, 83, 127
1, 178952, Note_off_c, 2, 62, 127
1, 178995, Note_on_c, 10, 45, 127
1, 179092, Note_off_c, 12, 83, 127
1, 179200, Note_on_c, 10, 81, 127
1, 179249, Note_off_c, 10, 45, 127
1, 179401, Note_off_c, 10, 81, 127
1, 179404, Note_on_c, 8, 80, 127
1, 179609, Note_on_c, 8, 68, 127
1, 179609, Note_on_c, 12, 59, 127
1, 179609, Note_on_c, 2, 62, 127
1, 179706, Note_off_c, 8, 80, 127
1, 179814, Note_on_c, 6, 78, 127
1, 179863, Note_off_c, 2, 62, 127
1, 179863, Note_off_c, 12, 59, 127
1, 179863, Note_off_c, 8, 68, 127
1, 180015, Note_off_c, 6, 78, 127
1, 180019, Note_on_c, 4, 76, 127
1, 180220, Note_off_c, 4, 76, 127
1, 180224, Note_on_c, 4, 64, 127
1, 180224, Note_on_c, 10, 69, 127
1, 180224, Note_on_c, 10, 57, 127
1, 180224, Note_on_c, 2, 74, 127
1, 180324, Note_off_c, 2, 74, 127
1, 180326, Note_on_c, 12, 71, 127
1, 180426, Note_off_c, 12, 71, 127
1, 180428, Note_on_c, 1, 73, 127
1, 180528, Note_off_c, 1, 73, 127
1, 180531, Note_on_c, 2, 74, 127
1, 180631, Note_off_c, 2, 74, 127
1, 180633, Note_on_c, 4, 76, 127
1, 180733, Note_off_c, 4, 76, 127
1, 180736, Note_on_c, 1, 73, 127
1, 180828, Note_off_c, 10, 57, 127
1, 180828, Note_off_c, 10, 69, 127
1, 180828, Note_off_c, 4, 64, 127
1, 180836, Note_off_c, 1, 73, 127
1, 180838, Note_on_c, 10, 69, 127
1, 180940, Note_on_c, 10, 45, 127
1, 181040, Note_off_c, 10, 45, 127
1, 181043, Note_on_c, 1, 49, 127
1, 181143, Note_off_c, 1, 49, 127
1, 181145, Note_on_c, 4, 52, 127
1, 181245, Note_off_c, 4, 52, 127
1, 181248, Note_on_c, 10, 57, 127
1, 181348, Note_off_c, 10, 57, 127
1, 181350, Note_on_c, 1, 61, 127
1, 181446, Note_off_c, 10, 69, 127
1, 181450, Note_off_c, 1, 61, 127
1, 181452, Note_on_c, 4, 64, 127
1, 181452, Note_on_c, 10, 69, 127
1, 181552, Note_off_c, 10, 69, 127
1, 181555, Note_on_c, 7, 67, 127
1, 181655, Note_off_c, 7, 67, 127
1, 181657, Note_on_c, 2, 62, 127
1, 181657, Note_on_c, 10, 69, 127
1, 181757, Note_off_c, 10, 69, 127
1, 181760, Note_on_c, 7, 67, 127
1, 181858, Note_off_c, 2, 62, 127
1, 181860, Note_off_c, 7, 67, 127
1, 181862, Note_on_c, 1, 61, 127
1, 181862, Note_on_c, 6, 66, 127
1, 181962, Note_off_c, 6, 66, 127
1, 181964, Note_on_c, 7, 67, 127
1, 182056, Note_off_c, 4, 64, 127
1, 182064, Note_off_c, 7, 67, 127
1, 182067, Note_on_c, 2, 62, 127
1, 182067, Note_on_c, 6, 66, 127
1, 182164, Note_off_c, 1, 61, 127
1, 182167, Note_off_c, 6, 66, 127
1, 182169, Note_on_c, 10, 69, 127
1, 182269, Note_off_c, 10, 69, 127
1, 182272, Note_on_c, 12, 71, 127
1, 182372, Note_off_c, 12, 71, 127
1, 182374, Note_on_c, 1, 73, 127
1, 182472, Note_off_c, 2, 62, 127
1, 182474, Note_off_c, 1, 73, 127
1, 182476, Note_on_c, 2, 74, 127
1, 182576, Note_off_c, 2, 74, 127
1, 182579, Note_on_c, 12, 71, 127
1, 182679, Note_off_c, 12, 71, 127
1, 182681, Note_on_c, 7, 67, 127
1, 182784, Note_on_c, 10, 45, 127
1, 182884, Note_off_c, 10, 45, 127
1, 182886, Note_on_c, 2, 50, 127
1, 182986, Note_off_c, 2, 50, 127
1, 182988, Note_on_c, 6, 54, 127
1, 183088, Note_off_c, 6, 54, 127
1, 183091, Note_on_c, 10, 57, 127
1, 183191, Note_off_c, 10, 57, 127
1, 183193, Note_on_c, 1, 61, 127
1, 183289, Note_off_c, 7, 67, 127
1, 183293, Note_off_c, 1, 61, 127
1, 183296, Note_on_c, 2, 62, 127
1, 183296, Note_on_c, 7, 67, 127
1, 183370, Note_off_c, 7, 67, 127
1, 183379, Note_on_c, 6, 66, 127
1, 183453, Note_off_c, 6, 66, 127
1, 183462, Note_on_c, 7, 67, 127
1, 183500, Note_on_c, 1, 61, 127
1, 183536, Note_off_c, 7, 67, 127
1, 183545, Note_on_c, 6, 66, 127
1, 183619, Note_off_c, 6, 66, 127
1, 183628, Note_on_c, 7, 67, 127
1, 183701, Note_off_c, 1, 61, 127
1, 183702, Note_off_c, 7, 67, 127
1, 183705, Note_on_c, 12, 59, 127
1, 183715, Note_on_c, 6, 66, 127
1, 183900, Note_off_c, 2, 62, 127
1, 183908, Note_off_c, 6, 66, 127
1, 183910, Note_on_c, 1, 61, 127
1, 183910, Note_on_c, 4, 64, 127
1, 184007, Note_off_c, 12, 59, 127
1, 184010, Note_off_c, 4, 64, 127
1, 184012, Note_on_c, 8, 68, 127
1, 184112, Note_off_c, 8, 68, 127
1, 184115, Note_on_c, 10, 69, 127
1, 184215, Note_off_c, 10, 69, 127
1, 184217, Note_on_c, 12, 71, 127
1, 184315, Note_off_c, 1, 61, 127
1, 184317, Note_off_c, 12, 71, 127
1, 184320, Note_on_c, 1, 73, 127
1, 184420, Note_off_c, 1, 73, 127
1, 184422, Note_on_c, 10, 69, 127
1, 184522, Note_off_c, 10, 69, 127
1, 184524, Note_on_c, 6, 66, 127
1, 184627, Note_on_c, 10, 45, 127
1, 184727, Note_off_c, 10, 45, 127
1, 184729, Note_on_c, 1, 49, 127
1, 184829, Note_off_c, 1, 49, 127
1, 184832, Note_on_c, 4, 52, 127
1, 184932, Note_off_c, 4, 52, 127
1, 184934, Note_on_c, 10, 57, 127
1, 185034, Note_off_c, 10, 57, 127
1, 185036, Note_on_c, 12, 59, 127
1, 185132, Note_off_c, 6, 66, 127
1, 185136, Note_off_c, 12, 59, 127
1, 185139, Note_on_c, 1, 61, 127
1, 185139, Note_on_c, 6, 66, 127
1, 185207, Note_on_c, 4, 64, 127
1, 185213, Note_off_c, 6, 66, 127
1, 185276, Note_on_c, 6, 66, 127
1, 185281, Note_off_c, 4, 64, 127
1, 185344, Note_on_c, 12, 59, 127
1, 185344, Note_on_c, 4, 64, 127
1, 185350, Note_off_c, 6, 66, 127
1, 185413, Note_on_c, 6, 66, 127
1, 185418, Note_off_c, 4, 64, 127
1, 185484, Note_on_c, 4, 64, 127
1, 185487, Note_off_c, 6, 66, 127
1, 185545, Note_off_c, 12, 59, 127
1, 185548, Note_on_c, 10, 57, 127
1, 185711, Note_off_c, 4, 64, 127
1, 185743, Note_off_c, 1, 61, 127
1, 185753, Note_on_c, 12, 59, 127
1, 185753, Note_on_c, 2, 62, 127
1, 185850, Note_off_c, 10, 57, 127
1, 185853, Note_off_c, 2, 62, 127
1, 185856, Note_on_c, 6, 66, 127
1, 185956, Note_off_c, 6, 66, 127
1, 185958, Note_on_c, 8, 68, 127
1, 186058, Note_off_c, 8, 68, 127
1, 186060, Note_on_c, 10, 69, 127
1, 186158, Note_off_c, 12, 59, 127
1, 186160, Note_off_c, 10, 69, 127
1, 186163, Note_on_c, 12, 71, 127
1, 186263, Note_off_c, 12, 71, 127
1, 186265, Note_on_c, 8, 68, 127
1, 186365, Note_off_c, 8, 68, 127
1, 186368, Note_on_c, 4, 64, 127
1, 186470, Note_on_c, 10, 45, 127
1, 186570, Note_off_c, 10, 45, 127
1, 186572, Note_on_c, 12, 47, 127
1, 186672, Note_off_c, 12, 47, 127
1, 186675, Note_on_c, 2, 50, 127
1, 186775, Note_off_c, 2, 50, 127
1, 186777, Note_on_c, 4, 52, 127
1, 186877, Note_off_c, 4, 52, 127
1, 186880, Note_on_c, 8, 56, 127
1, 186976, Note_off_c, 4, 64, 127
1, 186980, Note_off_c, 8, 56, 127
1, 186982, Note_on_c, 12, 59, 127
1, 186982, Note_on_c, 4, 64, 127
1, 187056, Note_off_c, 4, 64, 127
1, 187059, Note_on_c, 2, 62, 127
1, 187133, Note_off_c, 2, 62, 127
1, 187136, Note_on_c, 4, 64, 127
1, 187187, Note_on_c, 10, 57, 127
1, 187210, Note_off_c, 4, 64, 127
1, 187212, Note_on_c, 2, 62, 127
1, 187286, Note_off_c, 2, 62, 127
1, 187289, Note_on_c, 4, 64, 127
1, 187363, Note_off_c, 4, 64, 127
1, 187366, Note_on_c, 2, 62, 127
1, 187387, Note_off_c, 12, 59, 127
1, 187388, Note_off_c, 10, 57, 127
1, 187392, Note_on_c, 8, 56, 127
1, 187440, Note_off_c, 2, 62, 127
1, 187443, Note_on_c, 1, 61, 127
1, 187517, Note_off_c, 1, 61, 127
1, 187520, Note_on_c, 2, 62, 127
1, 187593, Note_off_c, 8, 56, 127
1, 187594, Note_off_c, 2, 62, 127
1, 187596, Note_on_c, 10, 57, 127
1, 187596, Note_on_c, 1, 61, 127
1, 187696, Note_off_c, 1, 61, 127
1, 187699, Note_on_c, 4, 64, 127
1, 187799, Note_off_c, 4, 64, 127
1, 187801, Note_on_c, 2, 62, 127
1, 187850, Note_off_c, 10, 57, 127
1, 187901, Note_off_c, 2, 62, 127
1, 187904, Note_on_c, 1, 61, 127
1, 188004, Note_off_c, 1, 61, 127
1, 188006, Note_on_c, 12, 59, 127
1, 188106, Note_off_c, 12, 59, 127
1, 188108, Note_on_c, 10, 57, 127
1, 188208, Note_off_c, 10, 57, 127
1, 188211, Note_on_c, 10, 45, 127
1, 188313, Note_on_c, 10, 69, 127
1, 188413, Note_off_c, 10, 69, 127
1, 188416, Note_on_c, 7, 67, 127
1, 188465, Note_off_c, 10, 45, 127
1, 188516, Note_off_c, 7, 67, 127
1, 188518, Note_on_c, 6, 66, 127
1, 188618, Note_off_c, 6, 66, 127
1, 188620, Note_on_c, 4, 64, 127
1, 188720, Note_off_c, 4, 64, 127
1, 188723, Note_on_c, 2, 62, 127
1, 188823, Note_off_c, 2, 62, 127
1, 188825, Note_on_c, 10, 57, 127
1, 188825, Note_on_c, 1, 61, 127
1, 188928, Note_on_c, 12, 71, 127
1, 189028, Note_off_c, 12, 71, 127
1, 189030, Note_on_c, 10, 69, 127
1, 189079, Note_off_c, 1, 61, 127
1, 189079, Note_off_c, 10, 57, 127
1, 189130, Note_off_c, 10, 69, 127
1, 189132, Note_on_c, 7, 67, 127
1, 189232, Note_off_c, 7, 67, 127
1, 189235, Note_on_c, 6, 66, 127
1, 189335, Note_off_c, 6, 66, 127
1, 189337, Note_on_c, 4, 64, 127
1, 189437, Note_off_c, 4, 64, 127
1, 189440, Note_on_c, 2, 62, 127
1, 189440, Note_on_c, 10, 57, 127
1, 189440, Note_on_c, 6, 66, 127
1, 189540, Note_off_c, 6, 66, 127
1, 189542, Note_on_c, 10, 69, 127
1, 189642, Note_off_c, 10, 69, 127
1, 189644, Note_on_c, 7, 67, 127
1, 189694, Note_off_c, 10, 57, 127
1, 189694, Note_off_c, 2, 62, 127
1, 189744, Note_off_c, 7, 67, 127
1, 189747, Note_on_c, 6, 66, 127
1, 189847, Note_off_c, 6, 66, 127
1, 189849, Note_on_c, 4, 64, 127
1, 189949, Note_off_c, 4, 64, 127
1, 189952, Note_on_c, 2, 62, 127
1, 190052, Note_off_c, 2, 62, 127
1, 190054, Note_on_c, 10, 45, 127
1, 190156, Note_on_c, 2, 74, 127
1, 190256, Note_off_c, 2, 74, 127
1, 190259, Note_on_c, 1, 73, 127
1, 190308, Note_off_c, 10, 45, 127
1, 190359, Note_off_c, 1, 73, 127
1, 190361, Note_on_c, 12, 71, 127
1, 190461, Note_off_c, 12, 71, 127
1, 190464, Note_on_c, 10, 69, 127
1, 190564, Note_off_c, 10, 69, 127
1, 190566, Note_on_c, 7, 67, 127
1, 190666, Note_off_c, 7, 67, 127
1, 190668, Note_on_c, 6, 66, 127
1, 190668, Note_on_c, 2, 62, 127
1, 190668, Note_on_c, 10, 57, 127
1, 190771, Note_on_c, 4, 76, 127
1, 190871, Note_off_c, 4, 76, 127
1, 190873, Note_on_c, 2, 74, 127
1, 190922, Note_off_c, 10, 57, 127
1, 190922, Note_off_c, 2, 62, 127
1, 190922, Note_off_c, 6, 66, 127
1, 190973, Note_off_c, 2, 74, 127
1, 190976, Note_on_c, 1, 73, 127
1, 191076, Note_off_c, 1, 73, 127
1, 191078, Note_on_c, 12, 71, 127
1, 191178, Note_off_c, 12, 71, 127
1, 191180, Note_on_c, 10, 69, 127
1, 191280, Note_off_c, 10, 69, 127
1, 191283, Note_on_c, 2, 62, 127
1, 191283, Note_on_c, 12, 59, 127
1, 191283, Note_on_c, 10, 57, 127
1, 191283, Note_on_c, 8, 68, 127
1, 191383, Note_off_c, 8, 68, 127
1, 191385, Note_on_c, 12, 71, 127
1, 191485, Note_off_c, 12, 71, 127
1, 191488, Note_on_c, 10, 69, 127
1, 191537, Note_off_c, 10, 57, 127
1, 191537, Note_off_c, 12, 59, 127
1, 191537, Note_off_c, 2, 62, 127
1, 191588, Note_off_c, 10, 69, 127
1, 191590, Note_on_c, 8, 68, 127
1, 191690, Note_off_c, 8, 68, 127
1, 191692, Note_on_c, 6, 66, 127
1, 191792, Note_off_c, 6, 66, 127
1, 191795, Note_on_c, 4, 64, 127
1, 191895, Note_off_c, 4, 64, 127
1, 191897, Note_on_c, 10, 45, 127
1, 192000, Note_on_c, 2, 74, 127
1, 192100, Note_off_c, 2, 74, 127
1, 192102, Note_on_c, 1, 73, 127
1, 192151, Note_off_c, 10, 45, 127
1, 192202, Note_off_c, 1, 73, 127
1, 192204, Note_on_c, 12, 71, 127
1, 192304, Note_off_c, 12, 71, 127
1, 192307, Note_on_c, 10, 69, 127
1, 192407, Note_off_c, 10, 69, 127
1, 192409, Note_on_c, 8, 68, 127
1, 192509, Note_off_c, 8, 68, 127
1, 192512, Note_on_c, 8, 56, 127
1, 192512, Note_on_c, 4, 64, 127
1, 192512, Note_on_c, 12, 59, 127
1, 192614, Note_on_c, 6, 78, 127
1, 192714, Note_off_c, 6, 78, 127
1, 192716, Note_on_c, 4, 76, 127
1, 192766, Note_off_c, 12, 59, 127
1, 192766, Note_off_c, 4, 64, 127
1, 192766, Note_off_c, 8, 56, 127
1, 192816, Note_off_c, 4, 76, 127
1, 192819, Note_on_c, 2, 74, 127
1, 192919, Note_off_c, 2, 74, 127
1, 192921, Note_on_c, 1, 73, 127
1, 193021, Note_off_c, 1, 73, 127
1, 193024, Note_on_c, 12, 71, 127
1, 193124, Note_off_c, 12, 71, 127
1, 193126, Note_on_c, 10, 57, 127
1, 193126, Note_on_c, 1, 73, 127
1, 193327, Note_off_c, 10, 57, 127
1, 193331, Note_on_c, 12, 59, 127
1, 193431, Note_off_c, 12, 59, 127
1, 193433, Note_on_c, 1, 61, 127
1, 193531, Note_off_c, 1, 73, 127
1, 193533, Note_off_c, 1, 61, 127
1, 193536, Note_on_c, 2, 62, 127
1, 193636, Note_off_c, 2, 62, 127
1, 193638, Note_on_c, 4, 64, 127
1, 193738, Note_off_c, 4, 64, 127
1, 193740, Note_on_c, 6, 66, 127
1, 193843, Note_on_c, 1, 73, 127
1, 193943, Note_off_c, 1, 73, 127
1, 193945, Note_on_c, 2, 74, 127
1, 194045, Note_off_c, 2, 74, 127
1, 194048, Note_on_c, 4, 76, 127
1, 194145, Note_off_c, 6, 66, 127
1, 194148, Note_off_c, 4, 76, 127
1, 194150, Note_on_c, 6, 78, 127
1, 194250, Note_off_c, 6, 78, 127
1, 194252, Note_on_c, 7, 79, 127
1, 194352, Note_off_c, 7, 79, 127
1, 194355, Note_on_c, 4, 64, 127
1, 194355, Note_on_c, 10, 81, 127
1, 194457, Note_on_c, 7, 79, 127
1, 194557, Note_off_c, 7, 79, 127
1, 194560, Note_on_c, 6, 78, 127
1, 194660, Note_off_c, 6, 78, 127
1, 194662, Note_on_c, 4, 76, 127
1, 194760, Note_off_c, 4, 64, 127
1, 194762, Note_off_c, 4, 76, 127
1, 194764, Note_on_c, 3, 75, 127
1, 194864, Note_off_c, 3, 75, 127
1, 194867, Note_on_c, 1, 73, 127
1, 194967, Note_off_c, 1, 73, 127
1, 194969, Note_on_c, 3, 63, 127
1, 194969, Note_on_c, 12, 71, 127
1, 195167, Note_off_c, 10, 81, 127
1, 195170, Note_off_c, 3, 63, 127
1, 195174, Note_on_c, 4, 64, 127
1, 195174, Note_on_c, 7, 79, 127
1, 195274, Note_off_c, 4, 64, 127
1, 195276, Note_on_c, 3, 63, 127
1, 195375, Note_off_c, 7, 79, 127
1, 195376, Note_off_c, 3, 63, 127
1, 195379, Note_on_c, 1, 61, 127
1, 195379, Note_on_c, 6, 78, 127
1, 195479, Note_off_c, 1, 61, 127
1, 195481, Note_on_c, 12, 59, 127
1, 195573, Note_off_c, 12, 71, 127
1, 195580, Note_off_c, 6, 78, 127
1, 195581, Note_off_c, 12, 59, 127
1, 195584, Note_on_c, 4, 64, 127
1, 195584, Note_on_c, 7, 79, 127
1, 195686, Note_on_c, 12, 71, 127
1, 195774, Note_off_c, 7, 79, 127
1, 195786, Note_off_c, 12, 71, 127
1, 195788, Note_on_c, 1, 73, 127
1, 195888, Note_off_c, 1, 73, 127
1, 195891, Note_on_c, 2, 74, 127
1, 195989, Note_off_c, 4, 64, 127
1, 195991, Note_off_c, 2, 74, 127
1, 195993, Note_on_c, 4, 76, 127
1, 196093, Note_off_c, 4, 76, 127
1, 196096, Note_on_c, 6, 78, 127
1, 196196, Note_off_c, 6, 78, 127
1, 196198, Note_on_c, 2, 62, 127
1, 196198, Note_on_c, 7, 79, 127
1, 196300, Note_on_c, 6, 78, 127
1, 196400, Note_off_c, 6, 78, 127
1, 196403, Note_on_c, 4, 76, 127
1, 196503, Note_off_c, 4, 76, 127
1, 196505, Note_on_c, 2, 74, 127
1, 196603, Note_off_c, 2, 62, 127
1, 196605, Note_off_c, 2, 74, 127
1, 196608, Note_on_c, 1, 73, 127
1, 196708, Note_off_c, 1, 73, 127
1, 196710, Note_on_c, 12, 71, 127
1, 196810, Note_off_c, 12, 71, 127
1, 196812, Note_on_c, 1, 61, 127
1, 196812, Note_on_c, 10, 69, 127
1, 197010, Note_off_c, 7, 79, 127
1, 197013, Note_off_c, 1, 61, 127
1, 197017, Note_on_c, 2, 62, 127
1, 197017, Note_on_c, 6, 78, 127
1, 197117, Note_off_c, 2, 62, 127
1, 197120, Note_on_c, 1, 61, 127
1, 197218, Note_off_c, 6, 78, 127
1, 197220, Note_off_c, 1, 61, 127
1, 197222, Note_on_c, 12, 59, 127
1, 197222, Note_on_c, 4, 76, 127
1, 197322, Note_off_c, 12, 59, 127
1, 197324, Note_on_c, 10, 57, 127
1, 197416, Note_off_c, 10, 69, 127
1, 197423, Note_off_c, 4, 76, 127
1, 197424, Note_off_c, 10, 57, 127
1, 197427, Note_on_c, 2, 62, 127
1, 197427, Note_on_c, 6, 78, 127
1, 197529, Note_on_c, 6, 66, 127
1, 197617, Note_off_c, 6, 78, 127
1, 197629, Note_off_c, 6, 66, 127
1, 197632, Note_on_c, 7, 67, 127
1, 197732, Note_off_c, 7, 67, 127
1, 197734, Note_on_c, 10, 69, 127
1, 197832, Note_off_c, 2, 62, 127
1, 197834, Note_off_c, 10, 69, 127
1, 197836, Note_on_c, 12, 71, 127
1, 197936, Note_off_c, 12, 71, 127
1, 197939, Note_on_c, 1, 73, 127
1, 198039, Note_off_c, 1, 73, 127
1, 198041, Note_on_c, 1, 61, 127
1, 198041, Note_on_c, 2, 74, 127
1, 198144, Note_on_c, 1, 73, 127
1, 198244, Note_off_c, 1, 73, 127
1, 198246, Note_on_c, 12, 71, 127
1, 198341, Note_off_c, 2, 74, 127
1, 198346, Note_off_c, 12, 71, 127
1, 198348, Note_on_c, 10, 69, 127
1, 198446, Note_off_c, 1, 61, 127
1, 198448, Note_off_c, 10, 69, 127
1, 198451, Note_on_c, 7, 67, 127
1, 198551, Note_off_c, 7, 67, 127
1, 198553, Note_on_c, 6, 66, 127
1, 198656, Note_on_c, 12, 59, 127
1, 198656, Note_on_c, 7, 67, 127
1, 198857, Note_off_c, 12, 59, 127
1, 198860, Note_on_c, 1, 61, 127
1, 198960, Note_off_c, 1, 61, 127
1, 198963, Note_on_c, 12, 59, 127
1, 199063, Note_off_c, 12, 59, 127
1, 199065, Note_on_c, 10, 57, 127
1, 199157, Note_off_c, 6, 66, 127
1, 199165, Note_off_c, 10, 57, 127
1, 199168, Note_on_c, 12, 59, 127
1, 199268, Note_off_c, 12, 59, 127
1, 199270, Note_on_c, 4, 64, 127
1, 199270, Note_on_c, 1, 61, 127
1, 199468, Note_off_c, 7, 67, 127
1, 199471, Note_off_c, 1, 61, 127
1, 199475, Note_on_c, 2, 62, 127
1, 199475, Note_on_c, 4, 76, 127
1, 199575, Note_off_c, 2, 62, 127
1, 199577, Note_on_c, 1, 61, 127
1, 199676, Note_off_c, 4, 76, 127
1, 199677, Note_off_c, 1, 61, 127
1, 199680, Note_on_c, 12, 59, 127
1, 199680, Note_on_c, 7, 67, 127
1, 199780, Note_off_c, 12, 59, 127
1, 199782, Note_on_c, 1, 61, 127
1, 199878, Note_off_c, 4, 64, 127
1, 199881, Note_off_c, 7, 67, 127
1, 199882, Note_off_c, 1, 61, 127
1, 199884, Note_on_c, 2, 62, 127
1, 199884, Note_on_c, 6, 66, 127
1, 199984, Note_off_c, 6, 66, 127
1, 199987, Note_on_c, 7, 67, 127
1, 200085, Note_off_c, 2, 62, 127
1, 200087, Note_off_c, 7, 67, 127
1, 200089, Note_on_c, 4, 64, 127
1, 200089, Note_on_c, 1, 61, 127
1, 200089, Note_on_c, 10, 69, 127
1, 200154, Note_off_c, 10, 69, 127
1, 200156, Note_on_c, 7, 67, 127
1, 200189, Note_off_c, 1, 61, 127
1, 200192, Note_on_c, 12, 59, 127
1, 200221, Note_off_c, 7, 67, 127
1, 200224, Note_on_c, 10, 69, 127
1, 200289, Note_off_c, 10, 69, 127
1, 200291, Note_on_c, 7, 67, 127
1, 200292, Note_off_c, 12, 59, 127
1, 200294, Note_on_c, 10, 57, 127
1, 200356, Note_off_c, 7, 67, 127
1, 200358, Note_on_c, 6, 66, 127
1, 200394, Note_off_c, 10, 57, 127
1, 200396, Note_on_c, 7, 55, 127
1, 200423, Note_off_c, 6, 66, 127
1, 200425, Note_on_c, 7, 67, 127
1, 200496, Note_off_c, 7, 67, 127
1, 200496, Note_off_c, 7, 55, 127
1, 200499, Note_on_c, 6, 54, 127
1, 200499, Note_on_c, 10, 69, 127
1, 200700, Note_off_c, 6, 54, 127
1, 200704, Note_on_c, 6, 42, 127
1, 200799, Note_off_c, 4, 64, 127
1, 200806, Note_on_c, 7, 67, 127
1, 200905, Note_off_c, 6, 42, 127
1, 200906, Note_off_c, 7, 67, 127
1, 200908, Note_on_c, 6, 66, 127
1, 200908, Note_on_c, 10, 45, 127
1, 201008, Note_off_c, 6, 66, 127
1, 201011, Note_on_c, 4, 64, 127
1, 201109, Note_off_c, 10, 45, 127
1, 201111, Note_off_c, 4, 64, 127
1, 201113, Note_on_c, 2, 62, 127
1, 201113, Note_on_c, 12, 47, 127
1, 201311, Note_off_c, 10, 69, 127
1, 201314, Note_off_c, 12, 47, 127
1, 201318, Note_on_c, 4, 40, 127
1, 201318, Note_on_c, 7, 67, 127
1, 201416, Note_off_c, 2, 62, 127
1, 201420, Note_on_c, 6, 66, 127
1, 201519, Note_off_c, 4, 40, 127
1, 201520, Note_off_c, 6, 66, 127
1, 201523, Note_on_c, 4, 64, 127
1, 201523, Note_on_c, 7, 43, 127
1, 201623, Note_off_c, 4, 64, 127
1, 201625, Note_on_c, 2, 62, 127
1, 201724, Note_off_c, 7, 43, 127
1, 201725, Note_off_c, 2, 62, 127
1, 201728, Note_on_c, 1, 61, 127
1, 201728, Note_on_c, 10, 45, 127
1, 201926, Note_off_c, 7, 67, 127
1, 201929, Note_off_c, 10, 45, 127
1, 201932, Note_on_c, 2, 38, 127
1, 201932, Note_on_c, 6, 66, 127
1, 202133, Note_off_c, 2, 38, 127
1, 202133, Note_off_c, 1, 61, 127
1, 202137, Note_on_c, 10, 57, 127
1, 202137, Note_on_c, 6, 42, 127
1, 202338, Note_off_c, 6, 42, 127
1, 202338, Note_off_c, 10, 57, 127
1, 202342, Note_on_c, 12, 59, 127
1, 202342, Note_on_c, 7, 43, 127
1, 202540, Note_off_c, 6, 66, 127
1, 202543, Note_off_c, 7, 43, 127
1, 202547, Note_on_c, 10, 45, 127
1, 202547, Note_on_c, 4, 64, 127
1, 202647, Note_off_c, 10, 45, 127
1, 202649, Note_on_c, 7, 43, 127
1, 202748, Note_off_c, 4, 64, 127
1, 202749, Note_off_c, 7, 43, 127
1, 202752, Note_on_c, 6, 42, 127
1, 202752, Note_on_c, 7, 67, 127
1, 202852, Note_off_c, 6, 42, 127
1, 202854, Note_on_c, 4, 40, 127
1, 202950, Note_off_c, 12, 59, 127
1, 202954, Note_off_c, 4, 40, 127
1, 202956, Note_on_c, 1, 61, 127
1, 202956, Note_on_c, 10, 45, 127
1, 203157, Note_off_c, 10, 45, 127
1, 203157, Note_off_c, 7, 67, 127
1, 203161, Note_on_c, 2, 38, 127
1, 203161, Note_on_c, 6, 66, 127
1, 203259, Note_off_c, 1, 61, 127
1, 203264, Note_on_c, 4, 64, 127
1, 203362, Note_off_c, 2, 38, 127
1, 203364, Note_off_c, 4, 64, 127
1, 203366, Note_on_c, 2, 62, 127
1, 203366, Note_on_c, 6, 42, 127
1, 203466, Note_off_c, 2, 62, 127
1, 203468, Note_on_c, 1, 61, 127
1, 203567, Note_off_c, 6, 42, 127
1, 203568, Note_off_c, 1, 61, 127
1, 203571, Note_on_c, 12, 59, 127
1, 203571, Note_on_c, 7, 43, 127
1, 203769, Note_off_c, 6, 66, 127
1, 203772, Note_off_c, 7, 43, 127
1, 203776, Note_on_c, 1, 37, 127
1, 203776, Note_on_c, 4, 64, 127
1, 203874, Note_off_c, 12, 59, 127
1, 203878, Note_on_c, 2, 62, 127
1, 203977, Note_off_c, 1, 37, 127
1, 203978, Note_off_c, 2, 62, 127
1, 203980, Note_on_c, 1, 61, 127
1, 203980, Note_on_c, 4, 40, 127
1, 204080, Note_off_c, 1, 61, 127
1, 204083, Note_on_c, 12, 59, 127
1, 204181, Note_off_c, 4, 40, 127
1, 204183, Note_off_c, 12, 59, 127
1, 204185, Note_on_c, 10, 57, 127
1, 204185, Note_on_c, 6, 42, 127
1, 204384, Note_off_c, 4, 64, 127
1, 204386, Note_off_c, 6, 42, 127
1, 204390, Note_on_c, 7, 43, 127
1, 204390, Note_on_c, 2, 62, 127
1, 204490, Note_off_c, 7, 43, 127
1, 204492, Note_on_c, 6, 42, 127
1, 204564, Note_off_c, 2, 62, 127
1, 204592, Note_off_c, 6, 42, 127
1, 204595, Note_on_c, 4, 40, 127
1, 204595, Note_on_c, 6, 66, 127
1, 204695, Note_off_c, 4, 40, 127
1, 204697, Note_on_c, 2, 38, 127
1, 204769, Note_off_c, 6, 66, 127
1, 204797, Note_off_c, 2, 38, 127
1, 204800, Note_on_c, 7, 43, 127
1, 204800, Note_on_c, 12, 59, 127
1, 204895, Note_off_c, 10, 57, 127
1, 204902, Note_on_c, 7, 55, 127
1, 205002, Note_off_c, 7, 55, 127
1, 205004, Note_on_c, 10, 57, 127
1, 205004, Note_on_c, 7, 31, 127
1, 205104, Note_off_c, 10, 57, 127
1, 205107, Note_on_c, 7, 55, 127
1, 205205, Note_off_c, 7, 31, 127
1, 205205, Note_off_c, 7, 43, 127
1, 205207, Note_off_c, 7, 55, 127
1, 205209, Note_on_c, 6, 54, 127
1, 205209, Note_on_c, 7, 43, 127
1, 205309, Note_off_c, 6, 54, 127
1, 205312, Note_on_c, 7, 55, 127
1, 205408, Note_off_c, 12, 59, 127
1, 205410, Note_off_c, 7, 43, 127
1, 205414, Note_on_c, 10, 45, 127
1, 205414, Note_on_c, 1, 61, 127
1, 205513, Note_off_c, 7, 55, 127
1, 205516, Note_on_c, 7, 55, 127
1, 205616, Note_off_c, 7, 55, 127
1, 205619, Note_on_c, 10, 57, 127
1, 205619, Note_on_c, 10, 33, 127
1, 205719, Note_off_c, 10, 57, 127
1, 205721, Note_on_c, 7, 55, 127
1, 205819, Note_off_c, 10, 45, 127
1, 205820, Note_off_c, 10, 33, 127
1, 205821, Note_off_c, 7, 55, 127
1, 205824, Note_on_c, 6, 54, 127
1, 205824, Note_on_c, 10, 45, 127
1, 205924, Note_off_c, 6, 54, 127
1, 205926, Note_on_c, 7, 55, 127
1, 206022, Note_off_c, 1, 61, 127
1, 206025, Note_off_c, 10, 45, 127
1, 206028, Note_on_c, 12, 47, 127
1, 206028, Note_on_c, 2, 62, 127
1, 206127, Note_off_c, 7, 55, 127
1, 206131, Note_on_c, 6, 54, 127
1, 206229, Note_off_c, 12, 47, 127
1, 206231, Note_off_c, 6, 54, 127
1, 206233, Note_on_c, 8, 56, 127
1, 206233, Note_on_c, 6, 42, 127
1, 206333, Note_off_c, 8, 56, 127
1, 206336, Note_on_c, 11, 58, 127
1, 206433, Note_off_c, 2, 62, 127
1, 206434, Note_off_c, 6, 42, 127
1, 206436, Note_off_c, 11, 58, 127
1, 206438, Note_on_c, 12, 59, 127
1, 206438, Note_on_c, 2, 38, 127
1, 206538, Note_off_c, 12, 59, 127
1, 206540, Note_on_c, 1, 61, 127
1, 206639, Note_off_c, 2, 38, 127
1, 206640, Note_off_c, 1, 61, 127
1, 206643, Note_on_c, 2, 62, 127
1, 206643, Note_on_c, 12, 35, 127
1, 206745, Note_on_c, 7, 67, 127
1, 206844, Note_off_c, 12, 35, 127
1, 206845, Note_off_c, 7, 67, 127
1, 206848, Note_on_c, 12, 47, 127
1, 206848, Note_on_c, 10, 69, 127
1, 206948, Note_off_c, 10, 69, 127
1, 206950, Note_on_c, 7, 67, 127
1, 207049, Note_off_c, 12, 47, 127
1, 207050, Note_off_c, 7, 67, 127
1, 207052, Note_on_c, 12, 35, 127
1, 207052, Note_on_c, 6, 66, 127
1, 207152, Note_off_c, 6, 66, 127
1, 207155, Note_on_c, 7, 67, 127
1, 207251, Note_off_c, 2, 62, 127
1, 207253, Note_off_c, 12, 35, 127
1, 207257, Note_on_c, 4, 64, 127
1, 207257, Note_on_c, 1, 37, 127
1, 207356, Note_off_c, 7, 67, 127
1, 207360, Note_on_c, 7, 67, 127
1, 207458, Note_off_c, 1, 37, 127
1, 207460, Note_off_c, 7, 67, 127
1, 207462, Note_on_c, 1, 49, 127
1, 207462, Note_on_c, 10, 69, 127
1, 207562, Note_off_c, 10, 69, 127
1, 207564, Note_on_c, 7, 67, 127
1, 207663, Note_off_c, 1, 49, 127
1, 207664, Note_off_c, 7, 67, 127
1, 207667, Note_on_c, 1, 37, 127
1, 207667, Note_on_c, 6, 66, 127
1, 207767, Note_off_c, 6, 66, 127
1, 207769, Note_on_c, 7, 67, 127
1, 207868, Note_off_c, 1, 37, 127
1, 207869, Note_off_c, 7, 67, 127
1, 207872, Note_on_c, 2, 38, 127
1, 207872, Note_on_c, 6, 66, 127
1, 208069, Note_off_c, 4, 64, 127
1, 208073, Note_off_c, 2, 38, 127
1, 208076, Note_on_c, 1, 61, 127
1, 208076, Note_on_c, 4, 40, 127
1, 208176, Note_off_c, 4, 40, 127
1, 208179, Note_on_c, 2, 38, 127
1, 208277, Note_off_c, 1, 61, 127
1, 208279, Note_off_c, 2, 38, 127
1, 208281, Note_on_c, 2, 62, 127
1, 208281, Note_on_c, 1, 37, 127
1, 208381, Note_off_c, 1, 37, 127
1, 208384, Note_on_c, 2, 38, 127
1, 208480, Note_off_c, 6, 66, 127
1, 208484, Note_off_c, 2, 38, 127
1, 208486, Note_on_c, 4, 40, 127
1, 208486, Note_on_c, 7, 67, 127
1, 208686, Note_off_c, 2, 62, 127
1, 208687, Note_off_c, 4, 40, 127
1, 208691, Note_on_c, 1, 61, 127
1, 208691, Note_on_c, 6, 42, 127
1, 208791, Note_off_c, 6, 42, 127
1, 208793, Note_on_c, 4, 40, 127
1, 208892, Note_off_c, 1, 61, 127
1, 208893, Note_off_c, 4, 40, 127
1, 208896, Note_on_c, 2, 62, 127
1, 208896, Note_on_c, 2, 38, 127
1, 208996, Note_off_c, 2, 38, 127
1, 208998, Note_on_c, 4, 40, 127
1, 209094, Note_off_c, 7, 67, 127
1, 209098, Note_off_c, 4, 40, 127
1, 209100, Note_on_c, 6, 42, 127
1, 209100, Note_on_c, 10, 69, 127
1, 209301, Note_off_c, 6, 42, 127
1, 209301, Note_off_c, 2, 62, 127
1, 209305, Note_on_c, 1, 61, 127
1, 209305, Note_on_c, 7, 43, 127
1, 209405, Note_off_c, 7, 43, 127
1, 209408, Note_on_c, 6, 42, 127
1, 209506, Note_off_c, 1, 61, 127
1, 209508, Note_off_c, 6, 42, 127
1, 209510, Note_on_c, 2, 62, 127
1, 209510, Note_on_c, 4, 40, 127
1, 209610, Note_off_c, 4, 40, 127
1, 209612, Note_on_c, 6, 42, 127
1, 209708, Note_off_c, 10, 69, 127
1, 209712, Note_off_c, 6, 42, 127
1, 209715, Note_on_c, 7, 43, 127
1, 209715, Note_on_c, 12, 71, 127
1, 209916, Note_off_c, 12, 71, 127
1, 209916, Note_off_c, 7, 43, 127
1, 209920, Note_on_c, 12, 47, 127
1, 209920, Note_on_c, 0, 72, 127
1, 210020, Note_off_c, 0, 72, 127
1, 210022, Note_on_c, 12, 71, 127
1, 210121, Note_off_c, 12, 47, 127
1, 210122, Note_off_c, 12, 71, 127
1, 210124, Note_on_c, 2, 50, 127
1, 210124, Note_on_c, 10, 69, 127
1, 210224, Note_off_c, 10, 69, 127
1, 210227, Note_on_c, 7, 67, 127
1, 210305, Note_off_c, 2, 62, 127
1, 210309, Note_off_c, 7, 67, 127
1, 210314, Note_off_c, 2, 50, 127
1, 210329, Note_on_c, 7, 55, 127
1, 210329, Note_on_c, 5, 77, 127
1, 210429, Note_off_c, 5, 77, 127
1, 210432, Note_on_c, 4, 76, 127
1, 210532, Note_off_c, 4, 76, 127
1, 210534, Note_on_c, 11, 58, 127
1, 210534, Note_on_c, 2, 74, 127
1, 210634, Note_off_c, 2, 74, 127
1, 210636, Note_on_c, 5, 77, 127
1, 210735, Note_off_c, 11, 58, 127
1, 210736, Note_off_c, 5, 77, 127
1, 210739, Note_on_c, 2, 62, 127
1, 210739, Note_on_c, 4, 76, 127
1, 210839, Note_off_c, 4, 76, 127
1, 210841, Note_on_c, 2, 74, 127
1, 210940, Note_off_c, 2, 62, 127
1, 210941, Note_off_c, 2, 74, 127
1, 210944, Note_on_c, 4, 64, 127
1, 210944, Note_on_c, 1, 73, 127
1, 211044, Note_off_c, 1, 73, 127
1, 211046, Note_on_c, 4, 76, 127
1, 211145, Note_off_c, 4, 64, 127
1, 211146, Note_off_c, 4, 76, 127
1, 211148, Note_on_c, 10, 57, 127
1, 211148, Note_on_c, 2, 74, 127
1, 211248, Note_off_c, 2, 74, 127
1, 211251, Note_on_c, 1, 73, 127
1, 211349, Note_off_c, 10, 57, 127
1, 211351, Note_off_c, 1, 73, 127
1, 211353, Note_on_c, 1, 61, 127
1, 211353, Note_on_c, 2, 74, 127
1, 211453, Note_off_c, 2, 74, 127
1, 211456, Note_on_c, 4, 76, 127
1, 211554, Note_off_c, 1, 61, 127
1, 211556, Note_off_c, 4, 76, 127
1, 211558, Note_on_c, 2, 62, 127
1, 211558, Note_on_c, 10, 69, 127
1, 211696, Note_off_c, 7, 55, 127
1, 211763, Note_on_c, 6, 54, 127
1, 211763, Note_on_c, 10, 81, 127
1, 211860, Note_off_c, 10, 69, 127
1, 211861, Note_off_c, 2, 62, 127
1, 211865, Note_on_c, 7, 79, 127
1, 211964, Note_off_c, 6, 54, 127
1, 211965, Note_off_c, 7, 79, 127
1, 211968, Note_on_c, 6, 78, 127
1, 211968, Note_on_c, 10, 57, 127
1, 212068, Note_off_c, 6, 78, 127
1, 212070, Note_on_c, 4, 76, 127
1, 212169, Note_off_c, 10, 57, 127
1, 212170, Note_off_c, 4, 76, 127
1, 212172, Note_on_c, 2, 74, 127
1, 212172, Note_on_c, 12, 59, 127
1, 212371, Note_off_c, 10, 81, 127
1, 212373, Note_off_c, 12, 59, 127
1, 212377, Note_on_c, 4, 52, 127
1, 212377, Note_on_c, 7, 79, 127
1, 212475, Note_off_c, 2, 74, 127
1, 212480, Note_on_c, 6, 78, 127
1, 212578, Note_off_c, 4, 52, 127
1, 212580, Note_off_c, 6, 78, 127
1, 212582, Note_on_c, 4, 76, 127
1, 212582, Note_on_c, 7, 55, 127
1, 212682, Note_off_c, 4, 76, 127
1, 212684, Note_on_c, 2, 74, 127
1, 212783, Note_off_c, 7, 55, 127
1, 212784, Note_off_c, 2, 74, 127
1, 212787, Note_on_c, 1, 73, 127
1, 212787, Note_on_c, 10, 57, 127
1, 212985, Note_off_c, 7, 79, 127
1, 212988, Note_off_c, 10, 57, 127
1, 212992, Note_on_c, 2, 50, 127
1, 212992, Note_on_c, 6, 78, 127
1, 213193, Note_off_c, 6, 78, 127
1, 213193, Note_off_c, 2, 50, 127
1, 213196, Note_on_c, 6, 54, 127
1, 213196, Note_on_c, 2, 74, 127
1, 213395, Note_off_c, 1, 73, 127
1, 213397, Note_off_c, 6, 54, 127
1, 213401, Note_on_c, 7, 67, 127
1, 213401, Note_on_c, 12, 47, 127
1, 213601, Note_off_c, 2, 74, 127
1, 213602, Note_off_c, 12, 47, 127
1, 213606, Note_on_c, 2, 50, 127
1, 213606, Note_on_c, 12, 71, 127
1, 213807, Note_off_c, 12, 71, 127
1, 213807, Note_off_c, 2, 50, 127
1, 213811, Note_on_c, 1, 49, 127
1, 213811, Note_on_c, 4, 76, 127
1, 214009, Note_off_c, 7, 67, 127
1, 214012, Note_off_c, 1, 49, 127
1, 214016, Note_on_c, 6, 66, 127
1, 214016, Note_on_c, 2, 50, 127
1, 214216, Note_off_c, 4, 76, 127
1, 214217, Note_off_c, 2, 50, 127
1, 214220, Note_on_c, 6, 42, 127
1, 214220, Note_on_c, 10, 69, 127
1, 214421, Note_off_c, 10, 69, 127
1, 214421, Note_off_c, 6, 42, 127
1, 214425, Note_on_c, 7, 43, 127
1, 214425, Note_on_c, 2, 74, 127
1, 214624, Note_off_c, 6, 66, 127
1, 214626, Note_off_c, 2, 74, 127
1, 214626, Note_off_c, 7, 43, 127
1, 214630, Note_on_c, 4, 64, 127
1, 214630, Note_on_c, 10, 69, 127
1, 214630, Note_on_c, 10, 45, 127
1, 214630, Note_on_c, 2, 74, 127
1, 214733, Note_off_c, 2, 74, 127
1, 214739, Note_on_c, 1, 73, 127
1, 214796, Note_on_c, 2, 74, 127
1, 214807, Note_off_c, 1, 73, 127
1, 214846, Note_off_c, 10, 45, 127
1, 214848, Note_on_c, 7, 43, 127
1, 214854, Note_on_c, 1, 73, 127
1, 214864, Note_off_c, 2, 74, 127
1, 215059, Note_off_c, 7, 43, 127
1, 215065, Note_on_c, 10, 45, 127
1, 215095, Note_off_c, 1, 73, 127
1, 215214, Note_on_c, 2, 74, 127
1, 215237, Note_off_c, 10, 69, 127
1, 215237, Note_off_c, 4, 64, 127
1, 215349, Note_off_c, 2, 74, 127
1, 215367, Note_off_c, 10, 45, 127
1, 215408, Note_on_c, 2, 38, 127
1, 215409, Note_on_c, 2, 50, 127
1, 215411, Note_on_c, 6, 66, 127
1, 215412, Note_on_c, 10, 69, 127
1, 215419, Note_on_c, 2, 74, 127
1, 217511, Note_off_c, 6, 66, 127
1, 217634, Note_off_c, 2, 38, 127
1, 217635, Note_off_c, 2, 50, 127
1, 217638, Note_off_c, 10, 69, 127
1, 217645, Note_off_c, 2, 74, 127
1, 218116, Note_on_c, 6, 66, 127
1, 218550, Note_off_c, 6, 66, 127
1, 218599, Note_on_c, 6, 66, 127
1, 218599, Note_on_c, 2, 62, 127
1, 218599, Note_on_c, 10, 57, 127
1, 218599, Note_on_c, 2, 38, 127
1, 219256, Note_on_c, 10, 45, 127
1, 219906, Note_off_c, 10, 45, 127
1, 219913, Note_on_c, 2, 50, 127
1, 220067, Note_off_c, 10, 57, 127
1, 220067, Note_off_c, 2, 62, 127
1, 220067, Note_off_c, 6, 66, 127
1, 220078, Note_on_c, 4, 64, 127
1, 220239, Note_off_c, 4, 64, 127
1, 220243, Note_on_c, 6, 66, 127
1, 220404, Note_off_c, 6, 66, 127
1, 220407, Note_on_c, 10, 69, 127
1, 220554, Note_off_c, 2, 38, 127
1, 220568, Note_off_c, 10, 69, 127
1, 220571, Note_on_c, 7, 67, 127
1, 220571, Note_on_c, 4, 40, 127
1, 220732, Note_off_c, 7, 67, 127
1, 220735, Note_on_c, 6, 66, 127
1, 220896, Note_off_c, 6, 66, 127
1, 220900, Note_on_c, 4, 64, 127
1, 221061, Note_off_c, 4, 64, 127
1, 221065, Note_on_c, 2, 62, 127
1, 221221, Note_off_c, 4, 40, 127
1, 221226, Note_off_c, 2, 62, 127
1, 221228, Note_on_c, 2, 62, 127
1, 221228, Note_on_c, 6, 42, 127
1, 221459, Note_off_c, 2, 62, 127
1, 221465, Note_on_c, 10, 69, 127
1, 221868, Note_off_c, 2, 50, 127
1, 221886, Note_on_c, 10, 45, 127
1, 222042, Note_off_c, 10, 69, 127
1, 222050, Note_on_c, 7, 67, 127
1, 222211, Note_off_c, 7, 67, 127
1, 222215, Note_on_c, 6, 66, 127
1, 222376, Note_off_c, 6, 66, 127
1, 222379, Note_on_c, 4, 64, 127
1, 222536, Note_off_c, 10, 45, 127
1, 222540, Note_off_c, 4, 64, 127
1, 222543, Note_on_c, 6, 66, 127
1, 222543, Note_on_c, 2, 50, 127
1, 222704, Note_off_c, 6, 66, 127
1, 222708, Note_on_c, 10, 69, 127
1, 222869, Note_off_c, 10, 69, 127
1, 222872, Note_on_c, 12, 71, 127
1, 223033, Note_off_c, 12, 71, 127
1, 223037, Note_on_c, 0, 72, 127
1, 223183, Note_off_c, 6, 42, 127
1, 223200, Note_on_c, 2, 38, 127
1, 223365, Note_on_c, 10, 69, 127
1, 223526, Note_off_c, 10, 69, 127
1, 223530, Note_on_c, 7, 67, 127
1, 223691, Note_off_c, 7, 67, 127
1, 223694, Note_on_c, 6, 66, 127
1, 223850, Note_off_c, 2, 38, 127
1, 223858, Note_on_c, 7, 43, 127
1, 223997, Note_off_c, 0, 72, 127
1, 224022, Note_on_c, 0, 72, 127
1, 224067, Note_off_c, 6, 66, 127
1, 224183, Note_off_c, 0, 72, 127
1, 224187, Note_on_c, 12, 71, 127
1, 224348, Note_off_c, 12, 71, 127
1, 224352, Note_on_c, 10, 69, 127
1, 224498, Note_off_c, 2, 50, 127
1, 224508, Note_off_c, 7, 43, 127
1, 224513, Note_off_c, 10, 69, 127
1, 224515, Note_on_c, 12, 71, 127
1, 224515, Note_on_c, 4, 40, 127
1, 224676, Note_off_c, 12, 71, 127
1, 224680, Note_on_c, 7, 67, 127
1, 224841, Note_off_c, 7, 67, 127
1, 224844, Note_on_c, 4, 76, 127
1, 225165, Note_off_c, 4, 40, 127
1, 225173, Note_on_c, 10, 45, 127
1, 225331, Note_off_c, 4, 76, 127
1, 225337, Note_on_c, 2, 74, 127
1, 225498, Note_off_c, 2, 74, 127
1, 225502, Note_on_c, 1, 73, 127
1, 225663, Note_off_c, 1, 73, 127
1, 225666, Note_on_c, 12, 71, 127
1, 225827, Note_off_c, 12, 71, 127
1, 225830, Note_on_c, 10, 69, 127
1, 225830, Note_on_c, 1, 49, 127
1, 225991, Note_off_c, 10, 69, 127
1, 225995, Note_on_c, 7, 67, 127
1, 226074, Note_off_c, 7, 67, 127
1, 226077, Note_on_c, 6, 66, 127
1, 226156, Note_off_c, 6, 66, 127
1, 226159, Note_on_c, 7, 67, 127
1, 226320, Note_off_c, 7, 67, 127
1, 226324, Note_on_c, 4, 76, 127
1, 226477, Note_off_c, 10, 45, 127
1, 226480, Note_off_c, 1, 49, 127
1, 226485, Note_off_c, 4, 76, 127
1, 226487, Note_on_c, 7, 67, 127
1, 226487, Note_on_c, 2, 50, 127
1, 226811, Note_off_c, 2, 50, 127
1, 226817, Note_on_c, 1, 49, 127
1, 226978, Note_off_c, 1, 49, 127
1, 226981, Note_on_c, 12, 47, 127
1, 227142, Note_off_c, 12, 47, 127
1, 227145, Note_on_c, 10, 45, 127
1, 227192, Note_off_c, 7, 67, 127
1, 227200, Note_on_c, 6, 66, 127
1, 227252, Note_off_c, 6, 66, 127
1, 227255, Note_on_c, 7, 67, 127
1, 227306, Note_off_c, 10, 45, 127
1, 227307, Note_off_c, 7, 67, 127
1, 227309, Note_on_c, 6, 66, 127
1, 227309, Note_on_c, 2, 50, 127
1, 227361, Note_off_c, 6, 66, 127
1, 227365, Note_on_c, 7, 67, 127
1, 227417, Note_off_c, 7, 67, 127
1, 227419, Note_on_c, 6, 66, 127
1, 227470, Note_off_c, 2, 50, 127
1, 227474, Note_on_c, 6, 42, 127
1, 227635, Note_off_c, 6, 42, 127
1, 227639, Note_on_c, 10, 45, 127
1, 227800, Note_off_c, 10, 45, 127
1, 227802, Note_on_c, 2, 38, 127
1, 227895, Note_off_c, 6, 66, 127
1, 227967, Note_on_c, 10, 69, 127
1, 228128, Note_off_c, 10, 69, 127
1, 228131, Note_on_c, 12, 71, 127
1, 228292, Note_off_c, 12, 71, 127
1, 228296, Note_on_c, 1, 73, 127
1, 228457, Note_off_c, 1, 73, 127
1, 228460, Note_on_c, 2, 74, 127
1, 228616, Note_off_c, 2, 38, 127
1, 228621, Note_off_c, 2, 74, 127
1, 228624, Note_on_c, 1, 73, 127
1, 228624, Note_on_c, 10, 45, 127
1, 228785, Note_off_c, 10, 45, 127
1, 228785, Note_off_c, 1, 73, 127
1, 228789, Note_on_c, 12, 71, 127
1, 228789, Note_on_c, 12, 47, 127
1, 228950, Note_off_c, 12, 47, 127
1, 228950, Note_off_c, 12, 71, 127
1, 228953, Note_on_c, 10, 69, 127
1, 228953, Note_on_c, 1, 49, 127
1, 229114, Note_off_c, 1, 49, 127
1, 229114, Note_off_c, 10, 69, 127
1, 229117, Note_on_c, 10, 69, 127
1, 229117, Note_on_c, 2, 50, 127
1, 229332, Note_off_c, 10, 69, 127
1, 229337, Note_on_c, 6, 78, 127
1, 229446, Note_on_c, 6, 54, 127
1, 229770, Note_off_c, 6, 54, 127
1, 229774, Note_on_c, 10, 57, 127
1, 230098, Note_off_c, 10, 57, 127
1, 230104, Note_on_c, 1, 61, 127
1, 230428, Note_off_c, 1, 61, 127
1, 230432, Note_on_c, 2, 62, 127
1, 230493, Note_off_c, 6, 78, 127
1, 230596, Note_on_c, 7, 79, 127
1, 230756, Note_off_c, 2, 62, 127
1, 230757, Note_off_c, 7, 79, 127
1, 230761, Note_on_c, 6, 78, 127
1, 230761, Note_on_c, 10, 57, 127
1, 230922, Note_off_c, 6, 78, 127
1, 230926, Note_on_c, 4, 76, 127
1, 231072, Note_off_c, 2, 50, 127
1, 231085, Note_off_c, 10, 57, 127
1, 231087, Note_off_c, 4, 76, 127
1, 231089, Note_on_c, 6, 78, 127
1, 231089, Note_on_c, 2, 62, 127
1, 231250, Note_off_c, 6, 78, 127
1, 231254, Note_on_c, 2, 74, 127
1, 231413, Note_off_c, 2, 62, 127
1, 231418, Note_on_c, 6, 66, 127
1, 231420, Note_on_c, 11, 70, 127
1, 231431, Note_off_c, 2, 74, 127
1, 231748, Note_on_c, 7, 55, 127
1, 231861, Note_off_c, 11, 70, 127
1, 231911, Note_on_c, 1, 73, 127
1, 232064, Note_off_c, 6, 66, 127
1, 232072, Note_off_c, 1, 73, 127
1, 232076, Note_on_c, 12, 71, 127
1, 232076, Note_on_c, 12, 59, 127
1, 232237, Note_off_c, 12, 71, 127
1, 232240, Note_on_c, 11, 70, 127
1, 232400, Note_off_c, 12, 59, 127
1, 232401, Note_off_c, 11, 70, 127
1, 232404, Note_on_c, 11, 70, 127
1, 232404, Note_on_c, 2, 62, 127
1, 232619, Note_off_c, 11, 70, 127
1, 232624, Note_on_c, 12, 71, 127
1, 232728, Note_off_c, 2, 62, 127
1, 232733, Note_on_c, 6, 66, 127
1, 233057, Note_off_c, 6, 66, 127
1, 233061, Note_on_c, 7, 67, 127
1, 233200, Note_off_c, 12, 71, 127
1, 233226, Note_on_c, 2, 74, 127
1, 233346, Note_off_c, 7, 55, 127
1, 233385, Note_off_c, 7, 67, 127
1, 233387, Note_off_c, 2, 74, 127
1, 233391, Note_on_c, 1, 73, 127
1, 233391, Note_on_c, 10, 57, 127
1, 233552, Note_off_c, 1, 73, 127
1, 233555, Note_on_c, 12, 71, 127
1, 233715, Note_off_c, 10, 57, 127
1, 233716, Note_off_c, 12, 71, 127
1, 233720, Note_on_c, 1, 73, 127
1, 233720, Note_on_c, 7, 55, 127
1, 233881, Note_off_c, 1, 73, 127
1, 233883, Note_on_c, 2, 74, 127
1, 234044, Note_off_c, 2, 74, 127
1, 234044, Note_off_c, 7, 55, 127
1, 234048, Note_on_c, 4, 76, 127
1, 234048, Note_on_c, 6, 54, 127
1, 234209, Note_off_c, 4, 76, 127
1, 234213, Note_on_c, 6, 78, 127
1, 234372, Note_off_c, 6, 54, 127
1, 234374, Note_off_c, 6, 78, 127
1, 234376, Note_on_c, 7, 79, 127
1, 234376, Note_on_c, 4, 52, 127
1, 234483, Note_off_c, 7, 79, 127
1, 234487, Note_on_c, 6, 78, 127
1, 234594, Note_off_c, 6, 78, 127
1, 234596, Note_on_c, 4, 76, 127
1, 234703, Note_off_c, 4, 76, 127
1, 234705, Note_on_c, 12, 83, 127
1, 234705, Note_on_c, 7, 55, 127
1, 235029, Note_off_c, 7, 55, 127
1, 235035, Note_on_c, 12, 59, 127
1, 235181, Note_off_c, 12, 83, 127
1, 235198, Note_on_c, 10, 81, 127
1, 235359, Note_off_c, 10, 81, 127
1, 235359, Note_off_c, 12, 59, 127
1, 235363, Note_on_c, 7, 79, 127
1, 235363, Note_on_c, 3, 63, 127
1, 235524, Note_off_c, 7, 79, 127
1, 235527, Note_on_c, 6, 78, 127
1, 235687, Note_off_c, 3, 63, 127
1, 235688, Note_off_c, 6, 78, 127
1, 235692, Note_on_c, 7, 79, 127
1, 235692, Note_on_c, 4, 64, 127
1, 235799, Note_off_c, 7, 79, 127
1, 235801, Note_on_c, 6, 78, 127
1, 235908, Note_off_c, 6, 78, 127
1, 235911, Note_on_c, 4, 76, 127
1, 235974, Note_off_c, 4, 52, 127
1, 236016, Note_off_c, 4, 64, 127
1, 236018, Note_off_c, 4, 76, 127
1, 236020, Note_on_c, 7, 79, 127
1, 236020, Note_on_c, 12, 59, 127
1, 236344, Note_off_c, 12, 59, 127
1, 236349, Note_on_c, 4, 64, 127
1, 236496, Note_off_c, 7, 79, 127
1, 236513, Note_on_c, 6, 78, 127
1, 236673, Note_off_c, 4, 64, 127
1, 236674, Note_off_c, 6, 78, 127
1, 236678, Note_on_c, 4, 76, 127
1, 236678, Note_on_c, 7, 67, 127
1, 236839, Note_off_c, 4, 76, 127
1, 236842, Note_on_c, 2, 74, 127
1, 237003, Note_off_c, 2, 74, 127
1, 237007, Note_on_c, 4, 76, 127
1, 237007, Note_on_c, 11, 58, 127
1, 237114, Note_off_c, 4, 76, 127
1, 237116, Note_on_c, 2, 74, 127
1, 237223, Note_off_c, 2, 74, 127
1, 237226, Note_on_c, 1, 73, 127
1, 237324, Note_off_c, 7, 67, 127
1, 237333, Note_off_c, 1, 73, 127
1, 237335, Note_on_c, 4, 76, 127
1, 237335, Note_on_c, 1, 61, 127
1, 237659, Note_off_c, 1, 61, 127
1, 237664, Note_on_c, 4, 64, 127
1, 237811, Note_off_c, 4, 76, 127
1, 237828, Note_on_c, 2, 74, 127
1, 237988, Note_off_c, 4, 64, 127
1, 237989, Note_off_c, 2, 74, 127
1, 237992, Note_on_c, 1, 73, 127
1, 237992, Note_on_c, 7, 67, 127
1, 238153, Note_off_c, 1, 73, 127
1, 238157, Note_on_c, 12, 71, 127
1, 238316, Note_off_c, 7, 67, 127
1, 238318, Note_off_c, 12, 71, 127
1, 238322, Note_on_c, 1, 73, 127
1, 238322, Note_on_c, 6, 66, 127
1, 238429, Note_off_c, 1, 73, 127
1, 238431, Note_on_c, 12, 71, 127
1, 238538, Note_off_c, 12, 71, 127
1, 238540, Note_on_c, 11, 70, 127
1, 238605, Note_off_c, 11, 58, 127
1, 238647, Note_off_c, 11, 70, 127
1, 238650, Note_on_c, 6, 78, 127
1, 238650, Note_on_c, 1, 61, 127
1, 238974, Note_off_c, 1, 61, 127
1, 238979, Note_on_c, 11, 58, 127
1, 239126, Note_off_c, 6, 78, 127
1, 239143, Note_on_c, 4, 76, 127
1, 239303, Note_off_c, 11, 58, 127
1, 239304, Note_off_c, 4, 76, 127
1, 239307, Note_on_c, 2, 74, 127
1, 239307, Note_on_c, 6, 54, 127
1, 239468, Note_off_c, 2, 74, 127
1, 239472, Note_on_c, 1, 73, 127
1, 239631, Note_off_c, 6, 54, 127
1, 239633, Note_off_c, 1, 73, 127
1, 239636, Note_on_c, 2, 74, 127
1, 239636, Note_on_c, 12, 59, 127
1, 239797, Note_off_c, 2, 74, 127
1, 239800, Note_on_c, 12, 71, 127
1, 239920, Note_off_c, 6, 66, 127
1, 239961, Note_off_c, 12, 71, 127
1, 239965, Note_on_c, 11, 70, 127
1, 239965, Note_on_c, 2, 62, 127
1, 240126, Note_off_c, 11, 70, 127
1, 240129, Note_on_c, 12, 71, 127
1, 240289, Note_off_c, 2, 62, 127
1, 240290, Note_off_c, 12, 71, 127
1, 240294, Note_on_c, 12, 71, 127
1, 240294, Note_on_c, 6, 66, 127
1, 240456, Note_off_c, 12, 71, 127
1, 240513, Note_on_c, 2, 74, 127
1, 240618, Note_off_c, 6, 66, 127
1, 240622, Note_on_c, 10, 69, 127
1, 240946, Note_off_c, 10, 69, 127
1, 240951, Note_on_c, 8, 68, 127
1, 241110, Note_off_c, 2, 74, 127
1, 241115, Note_on_c, 4, 76, 127
1, 241194, Note_off_c, 4, 76, 127
1, 241198, Note_on_c, 6, 78, 127
1, 241234, Note_off_c, 12, 59, 127
1, 241277, Note_off_c, 6, 78, 127
1, 241279, Note_on_c, 4, 76, 127
1, 241279, Note_on_c, 12, 59, 127
1, 241440, Note_off_c, 4, 76, 127
1, 241444, Note_on_c, 2, 74, 127
1, 241597, Note_off_c, 8, 68, 127
1, 241603, Note_off_c, 12, 59, 127
1, 241609, Note_on_c, 10, 57, 127
1, 241715, Note_off_c, 2, 74, 127
1, 241772, Note_on_c, 4, 76, 127
1, 241851, Note_off_c, 4, 76, 127
1, 241855, Note_on_c, 6, 78, 127
1, 241934, Note_off_c, 6, 78, 127
1, 241937, Note_on_c, 4, 76, 127
1, 241937, Note_on_c, 6, 66, 127
1, 242098, Note_off_c, 4, 76, 127
1, 242101, Note_on_c, 2, 74, 127
1, 242255, Note_off_c, 10, 57, 127
1, 242262, Note_off_c, 2, 74, 127
1, 242266, Note_on_c, 2, 74, 127
1, 242266, Note_on_c, 8, 56, 127
1, 242427, Note_off_c, 2, 74, 127
1, 242430, Note_on_c, 8, 80, 127
1, 242509, Note_off_c, 8, 80, 127
1, 242512, Note_on_c, 10, 81, 127
1, 242583, Note_off_c, 6, 66, 127
1, 242591, Note_off_c, 10, 81, 127
1, 242594, Note_on_c, 12, 83, 127
1, 242594, Note_on_c, 4, 64, 127
1, 242755, Note_off_c, 4, 64, 127
1, 242759, Note_on_c, 2, 62, 127
1, 242920, Note_off_c, 2, 62, 127
1, 242923, Note_on_c, 4, 64, 127
1, 243070, Note_off_c, 12, 83, 127
1, 243087, Note_on_c, 10, 81, 127
1, 243243, Note_off_c, 8, 56, 127
1, 243248, Note_off_c, 10, 81, 127
1, 243252, Note_on_c, 8, 80, 127
1, 243252, Note_on_c, 4, 52, 127
1, 243413, Note_off_c, 8, 80, 127
1, 243416, Note_on_c, 6, 78, 127
1, 243569, Note_off_c, 4, 64, 127
1, 243576, Note_off_c, 4, 52, 127
1, 243577, Note_off_c, 6, 78, 127
1, 243581, Note_on_c, 4, 76, 127
1, 243581, Note_on_c, 6, 54, 127
1, 243688, Note_off_c, 4, 76, 127
1, 243690, Note_on_c, 2, 74, 127
1, 243797, Note_off_c, 2, 74, 127
1, 243800, Note_on_c, 1, 73, 127
1, 243907, Note_off_c, 1, 73, 127
1, 243909, Note_on_c, 2, 74, 127
1, 243909, Note_on_c, 10, 57, 127
1, 244227, Note_off_c, 6, 54, 127
1, 244233, Note_off_c, 10, 57, 127
1, 244238, Note_on_c, 8, 56, 127
1, 244342, Note_off_c, 2, 74, 127
1, 244348, Note_on_c, 1, 73, 127
1, 244455, Note_off_c, 1, 73, 127
1, 244457, Note_on_c, 12, 71, 127
1, 244564, Note_off_c, 12, 71, 127
1, 244566, Note_on_c, 6, 78, 127
1, 244566, Note_on_c, 12, 59, 127
1, 244673, Note_off_c, 6, 78, 127
1, 244676, Note_on_c, 4, 76, 127
1, 244783, Note_off_c, 4, 76, 127
1, 244785, Note_on_c, 2, 74, 127
1, 244884, Note_off_c, 8, 56, 127
1, 244890, Note_off_c, 12, 59, 127
1, 244892, Note_off_c, 2, 74, 127
1, 244896, Note_on_c, 1, 73, 127
1, 244896, Note_on_c, 10, 57, 127
1, 245057, Note_off_c, 1, 73, 127
1, 245059, Note_on_c, 10, 69, 127
1, 245220, Note_off_c, 10, 69, 127
1, 245224, Note_on_c, 8, 68, 127
1, 245224, Note_on_c, 1, 61, 127
1, 245385, Note_off_c, 8, 68, 127
1, 245388, Note_on_c, 10, 69, 127
1, 245548, Note_off_c, 1, 61, 127
1, 245549, Note_off_c, 10, 69, 127
1, 245553, Note_on_c, 10, 69, 127
1, 245553, Note_on_c, 4, 64, 127
1, 245714, Note_off_c, 10, 69, 127
1, 245772, Note_on_c, 1, 73, 127
1, 245877, Note_off_c, 4, 64, 127
1, 245881, Note_on_c, 7, 67, 127
1, 246205, Note_off_c, 7, 67, 127
1, 246210, Note_on_c, 6, 66, 127
1, 246349, Note_off_c, 1, 73, 127
1, 246374, Note_on_c, 2, 74, 127
1, 246453, Note_off_c, 2, 74, 127
1, 246457, Note_on_c, 4, 76, 127
1, 246494, Note_off_c, 10, 57, 127
1, 246536, Note_off_c, 4, 76, 127
1, 246539, Note_on_c, 2, 74, 127
1, 246539, Note_on_c, 10, 57, 127
1, 246700, Note_off_c, 2, 74, 127
1, 246703, Note_on_c, 1, 73, 127
1, 246856, Note_off_c, 6, 66, 127
1, 246863, Note_off_c, 10, 57, 127
1, 246868, Note_on_c, 7, 55, 127
1, 246974, Note_off_c, 1, 73, 127
1, 247031, Note_on_c, 2, 74, 127
1, 247110, Note_off_c, 2, 74, 127
1, 247114, Note_on_c, 4, 76, 127
1, 247193, Note_off_c, 4, 76, 127
1, 247196, Note_on_c, 2, 74, 127
1, 247196, Note_on_c, 4, 64, 127
1, 247357, Note_off_c, 2, 74, 127
1, 247361, Note_on_c, 1, 73, 127
1, 247514, Note_off_c, 7, 55, 127
1, 247520, Note_off_c, 4, 64, 127
1, 247522, Note_off_c, 1, 73, 127
1, 247525, Note_on_c, 0, 72, 127
1, 247525, Note_on_c, 6, 54, 127
1, 247525, Note_on_c, 3, 63, 127
1, 247711, Note_off_c, 0, 72, 127
1, 247724, Note_on_c, 6, 78, 127
1, 247849, Note_off_c, 3, 63, 127
1, 247853, Note_on_c, 0, 60, 127
1, 247870, Note_on_c, 8, 80, 127
1, 247872, Note_off_c, 6, 78, 127
1, 248014, Note_off_c, 8, 80, 127
1, 248014, Note_off_c, 0, 60, 127
1, 248018, Note_on_c, 10, 81, 127
1, 248018, Note_on_c, 12, 59, 127
1, 248171, Note_off_c, 6, 54, 127
1, 248179, Note_off_c, 12, 59, 127
1, 248183, Note_on_c, 4, 52, 127
1, 248183, Note_on_c, 0, 60, 127
1, 248342, Note_off_c, 10, 81, 127
1, 248346, Note_on_c, 8, 80, 127
1, 248507, Note_off_c, 8, 80, 127
1, 248507, Note_off_c, 0, 60, 127
1, 248511, Note_on_c, 6, 78, 127
1, 248511, Note_on_c, 10, 57, 127
1, 248672, Note_off_c, 6, 78, 127
1, 248675, Note_on_c, 4, 76, 127
1, 248829, Note_off_c, 4, 52, 127
1, 248836, Note_off_c, 4, 76, 127
1, 248840, Note_on_c, 3, 75, 127
1, 248840, Note_on_c, 6, 54, 127
1, 248947, Note_off_c, 3, 75, 127
1, 248949, Note_on_c, 1, 73, 127
1, 249056, Note_off_c, 1, 73, 127
1, 249059, Note_on_c, 12, 71, 127
1, 249157, Note_off_c, 10, 57, 127
1, 249166, Note_off_c, 12, 71, 127
1, 249168, Note_on_c, 0, 72, 127
1, 249168, Note_on_c, 10, 57, 127
1, 249486, Note_off_c, 6, 54, 127
1, 249497, Note_on_c, 3, 51, 127
1, 249601, Note_off_c, 0, 72, 127
1, 249607, Note_on_c, 12, 71, 127
1, 249714, Note_off_c, 12, 71, 127
1, 249716, Note_on_c, 10, 69, 127
1, 249814, Note_off_c, 10, 57, 127
1, 249823, Note_off_c, 10, 69, 127
1, 249826, Note_on_c, 0, 72, 127
1, 249826, Note_on_c, 6, 54, 127
1, 249933, Note_off_c, 0, 72, 127
1, 249935, Note_on_c, 12, 71, 127
1, 250042, Note_off_c, 12, 71, 127
1, 250045, Note_on_c, 10, 69, 127
1, 250143, Note_off_c, 3, 51, 127
1, 250150, Note_off_c, 6, 54, 127
1, 250152, Note_off_c, 10, 69, 127
1, 250155, Note_on_c, 10, 69, 127
1, 250155, Note_on_c, 4, 52, 127
1, 250370, Note_off_c, 10, 69, 127
1, 250374, Note_on_c, 8, 68, 127
1, 250483, Note_on_c, 4, 40, 127
1, 250801, Note_off_c, 4, 52, 127
1, 250807, Note_off_c, 4, 40, 127
1, 250812, Note_on_c, 4, 52, 127
1, 251020, Note_off_c, 8, 68, 127
1, 251140, Note_on_c, 8, 56, 127
1, 251223, Note_on_c, 3, 75, 127
1, 251302, Note_off_c, 3, 75, 127
1, 251305, Note_on_c, 4, 76, 127
1, 251384, Note_off_c, 4, 76, 127
1, 251387, Note_on_c, 6, 78, 127
1, 251464, Note_off_c, 8, 56, 127
1, 251466, Note_off_c, 6, 78, 127
1, 251470, Note_on_c, 4, 76, 127
1, 251470, Note_on_c, 10, 57, 127
1, 251631, Note_off_c, 4, 76, 127
1, 251633, Note_on_c, 3, 75, 127
1, 251794, Note_off_c, 3, 75, 127
1, 251794, Note_off_c, 10, 57, 127
1, 251798, Note_on_c, 3, 75, 127
1, 251798, Note_on_c, 0, 60, 127
1, 251959, Note_off_c, 3, 75, 127
1, 251962, Note_on_c, 4, 76, 127
1, 252122, Note_off_c, 0, 60, 127
1, 252123, Note_off_c, 4, 76, 127
1, 252127, Note_on_c, 4, 76, 127
1, 252127, Note_on_c, 10, 57, 127
1, 252288, Note_off_c, 4, 76, 127
1, 252292, Note_on_c, 8, 80, 127
1, 252451, Note_off_c, 10, 57, 127
1, 252453, Note_off_c, 8, 80, 127
1, 252455, Note_on_c, 10, 81, 127
1, 252455, Note_on_c, 6, 54, 127
1, 252616, Note_off_c, 10, 81, 127
1, 252620, Note_on_c, 0, 84, 127
1, 252779, Note_off_c, 6, 54, 127
1, 252781, Note_off_c, 0, 84, 127
1, 252784, Note_on_c, 4, 76, 127
1, 252784, Note_on_c, 8, 56, 127
1, 252863, Note_off_c, 4, 76, 127
1, 252866, Note_on_c, 5, 77, 127
1, 252945, Note_off_c, 5, 77, 127
1, 252948, Note_on_c, 7, 79, 127
1, 253027, Note_off_c, 7, 79, 127
1, 253031, Note_on_c, 5, 77, 127
1, 253108, Note_off_c, 8, 56, 127
1, 253110, Note_off_c, 5, 77, 127
1, 253113, Note_on_c, 4, 76, 127
1, 253113, Note_on_c, 12, 59, 127
1, 253192, Note_off_c, 4, 76, 127
1, 253195, Note_on_c, 5, 77, 127
1, 253274, Note_off_c, 5, 77, 127
1, 253277, Note_on_c, 4, 76, 127
1, 253373, Note_off_c, 4, 76, 127
1, 253376, Note_on_c, 2, 74, 127
1, 253437, Note_off_c, 12, 59, 127
1, 253442, Note_on_c, 6, 54, 127
1, 253760, Note_off_c, 2, 74, 127
1, 253766, Note_off_c, 6, 54, 127
1, 253770, Note_on_c, 10, 57, 127
1, 253853, Note_on_c, 0, 72, 127
1, 253932, Note_off_c, 0, 72, 127
1, 253935, Note_on_c, 2, 74, 127
1, 254014, Note_off_c, 2, 74, 127
1, 254016, Note_on_c, 4, 76, 127
1, 254094, Note_off_c, 10, 57, 127
1, 254095, Note_off_c, 4, 76, 127
1, 254099, Note_on_c, 8, 56, 127
1, 254099, Note_on_c, 2, 74, 127
1, 254260, Note_off_c, 2, 74, 127
1, 254264, Note_on_c, 0, 72, 127
1, 254423, Note_off_c, 8, 56, 127
1, 254425, Note_off_c, 0, 72, 127
1, 254427, Note_on_c, 12, 59, 127
1, 254427, Note_on_c, 0, 72, 127
1, 254588, Note_off_c, 0, 72, 127
1, 254592, Note_on_c, 2, 74, 127
1, 254724, Note_off_c, 4, 52, 127
1, 254753, Note_off_c, 2, 74, 127
1, 254757, Note_on_c, 2, 74, 127
1, 254757, Note_on_c, 8, 56, 127
1, 254918, Note_off_c, 2, 74, 127
1, 254920, Note_on_c, 4, 76, 127
1, 255081, Note_off_c, 4, 76, 127
1, 255085, Note_on_c, 8, 80, 127
1, 255085, Note_on_c, 4, 52, 127
1, 255246, Note_off_c, 8, 80, 127
1, 255249, Note_on_c, 12, 83, 127
1, 255403, Note_off_c, 8, 56, 127
1, 255409, Note_off_c, 4, 52, 127
1, 255410, Note_off_c, 12, 83, 127
1, 255414, Note_on_c, 2, 74, 127
1, 255414, Note_on_c, 5, 53, 127
1, 255493, Note_off_c, 2, 74, 127
1, 255496, Note_on_c, 4, 76, 127
1, 255575, Note_off_c, 4, 76, 127
1, 255579, Note_on_c, 5, 77, 127
1, 255658, Note_off_c, 5, 77, 127
1, 255660, Note_on_c, 4, 76, 127
1, 255731, Note_off_c, 12, 59, 127
1, 255739, Note_off_c, 4, 76, 127
1, 255742, Note_on_c, 2, 74, 127
1, 255742, Note_on_c, 8, 56, 127
1, 255821, Note_off_c, 2, 74, 127
1, 255825, Note_on_c, 4, 76, 127
1, 255904, Note_off_c, 4, 76, 127
1, 255907, Note_on_c, 2, 74, 127
1, 256014, Note_off_c, 2, 74, 127
1, 256016, Note_on_c, 0, 72, 127
1, 256066, Note_off_c, 8, 56, 127
1, 256071, Note_on_c, 10, 57, 127
1, 256395, Note_off_c, 10, 57, 127
1, 256400, Note_on_c, 0, 60, 127
1, 256476, Note_off_c, 0, 72, 127
1, 256482, Note_on_c, 12, 71, 127
1, 256561, Note_off_c, 12, 71, 127
1, 256564, Note_on_c, 0, 72, 127
1, 256643, Note_off_c, 0, 72, 127
1, 256646, Note_on_c, 2, 74, 127
1, 256724, Note_off_c, 0, 60, 127
1, 256725, Note_off_c, 2, 74, 127
1, 256729, Note_on_c, 0, 72, 127
1, 256729, Note_on_c, 10, 57, 127
1, 256890, Note_off_c, 0, 72, 127
1, 256893, Note_on_c, 12, 71, 127
1, 257012, Note_off_c, 5, 53, 127
1, 257054, Note_off_c, 12, 71, 127
1, 257057, Note_on_c, 12, 71, 127
1, 257057, Note_on_c, 6, 54, 127
1, 257218, Note_off_c, 12, 71, 127
1, 257222, Note_on_c, 0, 72, 127
1, 257381, Note_off_c, 6, 54, 127
1, 257383, Note_off_c, 0, 72, 127
1, 257386, Note_on_c, 0, 72, 127
1, 257386, Note_on_c, 4, 52, 127
1, 257547, Note_off_c, 0, 72, 127
1, 257551, Note_on_c, 6, 78, 127
1, 257630, Note_off_c, 6, 78, 127
1, 257633, Note_on_c, 8, 80, 127
1, 257710, Note_off_c, 4, 52, 127
1, 257712, Note_off_c, 8, 80, 127
1, 257714, Note_on_c, 10, 81, 127
1, 257714, Note_on_c, 3, 51, 127
1, 257849, Note_off_c, 10, 81, 127
1, 257879, Note_on_c, 0, 72, 127
1, 258038, Note_off_c, 3, 51, 127
1, 258044, Note_on_c, 4, 52, 127
1, 258148, Note_off_c, 0, 72, 127
1, 258153, Note_on_c, 12, 71, 127
1, 258260, Note_off_c, 12, 71, 127
1, 258262, Note_on_c, 10, 69, 127
1, 258327, Note_off_c, 10, 57, 127
1, 258369, Note_off_c, 10, 69, 127
1, 258372, Note_on_c, 12, 71, 127
1, 258372, Note_on_c, 8, 56, 127
1, 258372, Note_on_c, 2, 62, 127
1, 258479, Note_off_c, 12, 71, 127
1, 258481, Note_on_c, 10, 69, 127
1, 258588, Note_off_c, 10, 69, 127
1, 258592, Note_on_c, 8, 68, 127
1, 258696, Note_off_c, 8, 56, 127
1, 258699, Note_off_c, 8, 68, 127
1, 258701, Note_on_c, 5, 77, 127
1, 258701, Note_on_c, 10, 57, 127
1, 258808, Note_off_c, 5, 77, 127
1, 258810, Note_on_c, 4, 76, 127
1, 258917, Note_off_c, 4, 76, 127
1, 258920, Note_on_c, 2, 74, 127
1, 259018, Note_off_c, 2, 62, 127
1, 259027, Note_off_c, 2, 74, 127
1, 259029, Note_on_c, 4, 76, 127
1, 259029, Note_on_c, 0, 60, 127
1, 259136, Note_off_c, 4, 76, 127
1, 259140, Note_on_c, 2, 74, 127
1, 259247, Note_off_c, 2, 74, 127
1, 259249, Note_on_c, 0, 72, 127
1, 259347, Note_off_c, 10, 57, 127
1, 259353, Note_off_c, 0, 60, 127
1, 259356, Note_off_c, 0, 72, 127
1, 259358, Note_on_c, 10, 81, 127
1, 259358, Note_on_c, 12, 59, 127
1, 259465, Note_off_c, 10, 81, 127
1, 259468, Note_on_c, 8, 80, 127
1, 259575, Note_off_c, 8, 80, 127
1, 259577, Note_on_c, 6, 78, 127
1, 259682, Note_off_c, 12, 59, 127
1, 259684, Note_off_c, 6, 78, 127
1, 259687, Note_on_c, 8, 80, 127
1, 259687, Note_on_c, 4, 64, 127
1, 259794, Note_off_c, 8, 80, 127
1, 259796, Note_on_c, 6, 78, 127
1, 259903, Note_off_c, 6, 78, 127
1, 259906, Note_on_c, 4, 76, 127
1, 260011, Note_off_c, 4, 64, 127
1, 260013, Note_off_c, 4, 76, 127
1, 260016, Note_on_c, 0, 84, 127
1, 260016, Note_on_c, 3, 63, 127
1, 260123, Note_off_c, 0, 84, 127
1, 260125, Note_on_c, 12, 83, 127
1, 260232, Note_off_c, 12, 83, 127
1, 260235, Note_on_c, 10, 81, 127
1, 260340, Note_off_c, 3, 63, 127
1, 260342, Note_off_c, 10, 81, 127
1, 260344, Note_on_c, 12, 83, 127
1, 260344, Note_on_c, 2, 62, 127
1, 260451, Note_off_c, 12, 83, 127
1, 260453, Note_on_c, 10, 81, 127
1, 260476, Note_off_c, 4, 52, 127
1, 260560, Note_off_c, 10, 81, 127
1, 260564, Note_on_c, 8, 80, 127
1, 260671, Note_off_c, 8, 80, 127
1, 260673, Note_on_c, 8, 80, 127
1, 260673, Note_on_c, 5, 53, 127
1, 260990, Note_off_c, 2, 62, 127
1, 261001, Note_on_c, 12, 59, 127
1, 261017, Note_off_c, 8, 80, 127
1, 261023, Note_on_c, 10, 81, 127
1, 261095, Note_off_c, 10, 81, 127
1, 261098, Note_on_c, 8, 80, 127
1, 261149, Note_off_c, 5, 53, 127
1, 261170, Note_off_c, 8, 80, 127
1, 261173, Note_on_c, 6, 78, 127
1, 261245, Note_off_c, 6, 78, 127
1, 261248, Note_on_c, 4, 76, 127
1, 261325, Note_off_c, 12, 59, 127
1, 261327, Note_off_c, 4, 76, 127
1, 261331, Note_on_c, 3, 75, 127
1, 261331, Note_on_c, 6, 54, 127
1, 261331, Note_on_c, 0, 60, 127
1, 261492, Note_off_c, 3, 75, 127
1, 261495, Note_on_c, 10, 81, 127
1, 261630, Note_off_c, 10, 81, 127
1, 261655, Note_off_c, 0, 60, 127
1, 261659, Note_on_c, 10, 69, 127
1, 261659, Note_on_c, 4, 64, 127
1, 261820, Note_off_c, 4, 64, 127
1, 261823, Note_on_c, 3, 63, 127
1, 261955, Note_off_c, 3, 63, 127
1, 261977, Note_off_c, 6, 54, 127
1, 261982, Note_off_c, 10, 69, 127
1, 261988, Note_on_c, 4, 64, 127
1, 262153, Note_on_c, 12, 71, 127
1, 262303, Note_off_c, 12, 71, 127
1, 262316, Note_on_c, 1, 73, 127
1, 262316, Note_on_c, 4, 52, 127
1, 262634, Note_off_c, 4, 64, 127
1, 262645, Note_on_c, 8, 68, 127
1, 262645, Note_on_c, 12, 59, 127
1, 262792, Note_off_c, 1, 73, 127
1, 262806, Note_off_c, 8, 68, 127
1, 262810, Note_on_c, 2, 74, 127
1, 262889, Note_off_c, 2, 74, 127
1, 262892, Note_on_c, 4, 76, 127
1, 262969, Note_off_c, 12, 59, 127
1, 262971, Note_off_c, 4, 76, 127
1, 262974, Note_on_c, 2, 74, 127
1, 262974, Note_on_c, 4, 64, 127
1, 263064, Note_off_c, 2, 74, 127
1, 263069, Note_on_c, 1, 73, 127
1, 263162, Note_off_c, 1, 73, 127
1, 263164, Note_on_c, 12, 71, 127
1, 263293, Note_off_c, 4, 52, 127
1, 263299, Note_off_c, 12, 71, 127
1, 263303, Note_on_c, 10, 69, 127
1, 263303, Note_on_c, 6, 54, 127
1, 263454, Note_off_c, 4, 64, 127
1, 263467, Note_on_c, 10, 57, 127
1, 263628, Note_off_c, 10, 57, 127
1, 263631, Note_on_c, 1, 61, 127
1, 263792, Note_off_c, 1, 61, 127
1, 263796, Note_on_c, 4, 64, 127
1, 263957, Note_off_c, 4, 64, 127
1, 263960, Note_on_c, 2, 62, 127
1, 264050, Note_off_c, 6, 54, 127
1, 264125, Note_on_c, 6, 54, 127
1, 264286, Note_off_c, 6, 54, 127
1, 264288, Note_on_c, 4, 52, 127
1, 264449, Note_off_c, 4, 52, 127
1, 264453, Note_on_c, 2, 50, 127
1, 264606, Note_off_c, 2, 62, 127
1, 264607, Note_off_c, 10, 69, 127
1, 264614, Note_off_c, 2, 50, 127
1, 264618, Note_on_c, 1, 49, 127
1, 264782, Note_on_c, 4, 52, 127
1, 264943, Note_off_c, 4, 52, 127
1, 264946, Note_on_c, 10, 57, 127
1, 265107, Note_off_c, 10, 57, 127
1, 265110, Note_on_c, 1, 61, 127
1, 265271, Note_off_c, 1, 61, 127
1, 265275, Note_on_c, 4, 64, 127
1, 265440, Note_on_c, 6, 66, 127
1, 265601, Note_off_c, 6, 66, 127
1, 265603, Note_on_c, 7, 67, 127
1, 265706, Note_off_c, 1, 49, 127
1, 265768, Note_on_c, 10, 45, 127
1, 265921, Note_off_c, 4, 64, 127
1, 265929, Note_off_c, 10, 45, 127
1, 265932, Note_on_c, 2, 50, 127
1, 266009, Note_off_c, 7, 67, 127
1, 266014, Note_on_c, 4, 64, 127
1, 266093, Note_off_c, 4, 64, 127
1, 266097, Note_on_c, 6, 66, 127
1, 266176, Note_off_c, 6, 66, 127
1, 266179, Note_on_c, 7, 67, 127
1, 266258, Note_off_c, 7, 67, 127
1, 266261, Note_on_c, 6, 66, 127
1, 266261, Note_on_c, 10, 57, 127
1, 266422, Note_off_c, 6, 66, 127
1, 266425, Note_on_c, 2, 62, 127
1, 266585, Note_off_c, 10, 57, 127
1, 266590, Note_on_c, 12, 59, 127
1, 266749, Note_off_c, 2, 62, 127
1, 266754, Note_on_c, 2, 62, 127
1, 266833, Note_off_c, 2, 62, 127
1, 266836, Note_on_c, 4, 64, 127
1, 266909, Note_off_c, 2, 50, 127
1, 266915, Note_off_c, 4, 64, 127
1, 266918, Note_on_c, 6, 66, 127
1, 266918, Note_on_c, 3, 51, 127
1, 266997, Note_off_c, 6, 66, 127
1, 267001, Note_on_c, 8, 68, 127
1, 267080, Note_off_c, 8, 68, 127
1, 267083, Note_on_c, 10, 69, 127
1, 267242, Note_off_c, 3, 51, 127
1, 267247, Note_on_c, 4, 52, 127
1, 267298, Note_off_c, 10, 69, 127
1, 267329, Note_on_c, 6, 66, 127
1, 267408, Note_off_c, 6, 66, 127
1, 267412, Note_on_c, 8, 68, 127
1, 267491, Note_off_c, 8, 68, 127
1, 267494, Note_on_c, 10, 69, 127
1, 267567, Note_off_c, 12, 59, 127
1, 267573, Note_off_c, 10, 69, 127
1, 267575, Note_on_c, 8, 68, 127
1, 267575, Note_on_c, 12, 59, 127
1, 267736, Note_off_c, 8, 68, 127
1, 267740, Note_on_c, 4, 64, 127
1, 267899, Note_off_c, 12, 59, 127
1, 267905, Note_on_c, 1, 61, 127
1, 268064, Note_off_c, 4, 64, 127
1, 268069, Note_on_c, 4, 64, 127
1, 268148, Note_off_c, 4, 64, 127
1, 268151, Note_on_c, 6, 66, 127
1, 268224, Note_off_c, 4, 52, 127
1, 268230, Note_off_c, 6, 66, 127
1, 268233, Note_on_c, 8, 68, 127
1, 268233, Note_on_c, 5, 53, 127
1, 268312, Note_off_c, 8, 68, 127
1, 268316, Note_on_c, 10, 69, 127
1, 268395, Note_off_c, 10, 69, 127
1, 268397, Note_on_c, 12, 71, 127
1, 268557, Note_off_c, 5, 53, 127
1, 268562, Note_on_c, 6, 54, 127
1, 268612, Note_off_c, 12, 71, 127
1, 268644, Note_on_c, 8, 68, 127
1, 268723, Note_off_c, 8, 68, 127
1, 268727, Note_on_c, 10, 69, 127
1, 268806, Note_off_c, 10, 69, 127
1, 268808, Note_on_c, 12, 71, 127
1, 268882, Note_off_c, 1, 61, 127
1, 268887, Note_off_c, 12, 71, 127
1, 268890, Note_on_c, 10, 69, 127
1, 268890, Note_on_c, 1, 61, 127
1, 269051, Note_off_c, 10, 69, 127
1, 269055, Note_on_c, 6, 66, 127
1, 269214, Note_off_c, 1, 61, 127
1, 269219, Note_on_c, 2, 62, 127
1, 269379, Note_off_c, 6, 66, 127
1, 269384, Note_on_c, 6, 66, 127
1, 269463, Note_off_c, 6, 66, 127
1, 269466, Note_on_c, 8, 68, 127
1, 269539, Note_off_c, 6, 54, 127
1, 269545, Note_off_c, 8, 68, 127
1, 269548, Note_on_c, 10, 69, 127
1, 269548, Note_on_c, 6, 54, 127
1, 269627, Note_off_c, 10, 69, 127
1, 269630, Note_on_c, 12, 71, 127
1, 269709, Note_off_c, 12, 71, 127
1, 269712, Note_on_c, 1, 73, 127
1, 269872, Note_off_c, 6, 54, 127
1, 269877, Note_on_c, 8, 56, 127
1, 269927, Note_off_c, 1, 73, 127
1, 269959, Note_on_c, 10, 69, 127
1, 270038, Note_off_c, 10, 69, 127
1, 270041, Note_on_c, 12, 71, 127
1, 270120, Note_off_c, 12, 71, 127
1, 270123, Note_on_c, 1, 73, 127
1, 270196, Note_off_c, 2, 62, 127
1, 270202, Note_off_c, 1, 73, 127
1, 270205, Note_on_c, 12, 71, 127
1, 270205, Note_on_c, 2, 62, 127
1, 270366, Note_off_c, 12, 71, 127
1, 270370, Note_on_c, 8, 68, 127
1, 270529, Note_off_c, 2, 62, 127
1, 270534, Note_on_c, 4, 64, 127
1, 270694, Note_off_c, 8, 68, 127
1, 270699, Note_on_c, 8, 68, 127
1, 270778, Note_off_c, 8, 68, 127
1, 270781, Note_on_c, 10, 69, 127
1, 270854, Note_off_c, 8, 56, 127
1, 270860, Note_off_c, 10, 69, 127
1, 270862, Note_on_c, 12, 71, 127
1, 270862, Note_on_c, 8, 56, 127
1, 270941, Note_off_c, 12, 71, 127
1, 270945, Note_on_c, 1, 73, 127
1, 271024, Note_off_c, 1, 73, 127
1, 271027, Note_on_c, 2, 74, 127
1, 271186, Note_off_c, 8, 56, 127
1, 271192, Note_on_c, 10, 57, 127
1, 271296, Note_off_c, 2, 74, 127
1, 271301, Note_on_c, 1, 73, 127
1, 271408, Note_off_c, 1, 73, 127
1, 271410, Note_on_c, 12, 71, 127
1, 271511, Note_off_c, 4, 64, 127
1, 271517, Note_off_c, 12, 71, 127
1, 271520, Note_on_c, 1, 73, 127
1, 271520, Note_on_c, 4, 64, 127
1, 271627, Note_off_c, 1, 73, 127
1, 271630, Note_on_c, 12, 71, 127
1, 271737, Note_off_c, 12, 71, 127
1, 271740, Note_on_c, 10, 69, 127
1, 271838, Note_off_c, 10, 57, 127
1, 271847, Note_off_c, 10, 69, 127
1, 271849, Note_on_c, 2, 74, 127
1, 271849, Note_on_c, 7, 55, 127
1, 271956, Note_off_c, 2, 74, 127
1, 271958, Note_on_c, 0, 72, 127
1, 272065, Note_off_c, 0, 72, 127
1, 272068, Note_on_c, 12, 71, 127
1, 272166, Note_off_c, 4, 64, 127
1, 272175, Note_off_c, 12, 71, 127
1, 272177, Note_on_c, 0, 72, 127
1, 272177, Note_on_c, 4, 64, 127
1, 272284, Note_off_c, 0, 72, 127
1, 272288, Note_on_c, 12, 71, 127
1, 272395, Note_off_c, 12, 71, 127
1, 272397, Note_on_c, 10, 69, 127
1, 272495, Note_off_c, 7, 55, 127
1, 272501, Note_off_c, 4, 64, 127
1, 272504, Note_off_c, 10, 69, 127
1, 272506, Note_on_c, 0, 72, 127
1, 272506, Note_on_c, 6, 54, 127
1, 272691, Note_off_c, 0, 72, 127
1, 272694, Note_on_c, 3, 63, 127
1, 272836, Note_on_c, 10, 57, 127
1, 272937, Note_off_c, 3, 63, 127
1, 272999, Note_on_c, 4, 64, 127
1, 273152, Note_off_c, 6, 54, 127
1, 273164, Note_on_c, 4, 52, 127
1, 273242, Note_off_c, 4, 64, 127
1, 273273, Note_on_c, 10, 69, 127
1, 273380, Note_off_c, 10, 69, 127
1, 273383, Note_on_c, 12, 71, 127
1, 273482, Note_off_c, 10, 57, 127
1, 273490, Note_off_c, 12, 71, 127
1, 273492, Note_on_c, 0, 72, 127
1, 273492, Note_on_c, 10, 57, 127
1, 273599, Note_off_c, 0, 72, 127
1, 273602, Note_on_c, 12, 71, 127
1, 273709, Note_off_c, 12, 71, 127
1, 273712, Note_on_c, 10, 69, 127
1, 273810, Note_off_c, 4, 52, 127
1, 273816, Note_off_c, 10, 57, 127
1, 273819, Note_off_c, 10, 69, 127
1, 273821, Note_on_c, 5, 77, 127
1, 273821, Note_on_c, 2, 50, 127
1, 274006, Note_off_c, 5, 77, 127
1, 274009, Note_on_c, 8, 68, 127
1, 274149, Note_on_c, 12, 59, 127
1, 274252, Note_off_c, 8, 68, 127
1, 274314, Note_on_c, 10, 69, 127
1, 274467, Note_off_c, 2, 50, 127
1, 274473, Note_off_c, 12, 59, 127
1, 274479, Note_on_c, 4, 52, 127
1, 274479, Note_on_c, 0, 48, 127
1, 274557, Note_off_c, 10, 69, 127
1, 274588, Note_on_c, 2, 74, 127
1, 274695, Note_off_c, 2, 74, 127
1, 274697, Note_on_c, 4, 76, 127
1, 274803, Note_off_c, 4, 52, 127
1, 274804, Note_off_c, 4, 76, 127
1, 274808, Note_on_c, 5, 77, 127
1, 274808, Note_on_c, 10, 57, 127
1, 274915, Note_off_c, 5, 77, 127
1, 274917, Note_on_c, 4, 76, 127
1, 275024, Note_off_c, 4, 76, 127
1, 275027, Note_on_c, 2, 74, 127
1, 275125, Note_off_c, 0, 48, 127
1, 275132, Note_off_c, 10, 57, 127
1, 275134, Note_off_c, 2, 74, 127
1, 275136, Note_on_c, 8, 80, 127
1, 275136, Note_on_c, 12, 47, 127
1, 275245, Note_on_c, 2, 74, 127
1, 275322, Note_off_c, 8, 80, 127
1, 275355, Note_off_c, 2, 74, 127
1, 275355, Note_on_c, 4, 76, 127
1, 275464, Note_on_c, 5, 77, 127
1, 275464, Note_on_c, 2, 50, 127
1, 275465, Note_off_c, 4, 76, 127
1, 275574, Note_off_c, 5, 77, 127
1, 275575, Note_on_c, 4, 76, 127
1, 275684, Note_on_c, 2, 74, 127
1, 275685, Note_off_c, 4, 76, 127
1, 275782, Note_off_c, 12, 47, 127
1, 275793, Note_on_c, 10, 81, 127
1, 275793, Note_on_c, 10, 45, 127
1, 275794, Note_off_c, 2, 74, 127
1, 275903, Note_on_c, 2, 74, 127
1, 275979, Note_off_c, 10, 81, 127
1, 276012, Note_on_c, 4, 76, 127
1, 276013, Note_off_c, 2, 74, 127
1, 276110, Note_off_c, 2, 50, 127
1, 276122, Note_off_c, 4, 76, 127
1, 276123, Note_on_c, 5, 77, 127
1, 276123, Note_on_c, 2, 50, 127
1, 276232, Note_on_c, 4, 76, 127
1, 276233, Note_off_c, 5, 77, 127
1, 276341, Note_on_c, 2, 74, 127
1, 276342, Note_off_c, 4, 76, 127
1, 276439, Note_off_c, 10, 45, 127
1, 276448, Note_off_c, 2, 74, 127
1, 276451, Note_on_c, 12, 83, 127
1, 276451, Note_on_c, 8, 44, 127
1, 276537, Note_on_c, 5, 77, 127
1, 276604, Note_off_c, 12, 83, 127
1, 276616, Note_off_c, 5, 77, 127
1, 276622, Note_on_c, 4, 76, 127
1, 276701, Note_off_c, 4, 76, 127
1, 276708, Note_on_c, 2, 74, 127
1, 276769, Note_off_c, 2, 50, 127
1, 276775, Note_off_c, 8, 44, 127
1, 276787, Note_off_c, 2, 74, 127
1, 276793, Note_on_c, 4, 76, 127
1, 276793, Note_on_c, 8, 56, 127
1, 276951, Note_on_c, 12, 71, 127
1, 276954, Note_off_c, 4, 76, 127
1, 277103, Note_off_c, 8, 56, 127
1, 277108, Note_on_c, 0, 72, 127
1, 277108, Note_on_c, 10, 57, 127
1, 277112, Note_off_c, 12, 71, 127
1, 277269, Note_off_c, 0, 72, 127
1, 277273, Note_on_c, 8, 68, 127
1, 277434, Note_off_c, 8, 68, 127
1, 277437, Note_on_c, 10, 69, 127
1, 277437, Note_on_c, 0, 60, 127
1, 277622, Note_off_c, 10, 69, 127
1, 277625, Note_on_c, 3, 63, 127
1, 277754, Note_off_c, 10, 57, 127
1, 277760, Note_off_c, 3, 63, 127
1, 277761, Note_off_c, 0, 60, 127
1, 277766, Note_on_c, 12, 59, 127
1, 277766, Note_on_c, 4, 52, 127
1, 277847, Note_on_c, 4, 64, 127
1, 277926, Note_off_c, 4, 64, 127
1, 277930, Note_on_c, 6, 66, 127
1, 278009, Note_off_c, 6, 66, 127
1, 278012, Note_on_c, 8, 68, 127
1, 278090, Note_off_c, 12, 59, 127
1, 278091, Note_off_c, 8, 68, 127
1, 278095, Note_on_c, 10, 69, 127
1, 278095, Note_on_c, 10, 57, 127
1, 278174, Note_off_c, 10, 69, 127
1, 278177, Note_on_c, 12, 71, 127
1, 278256, Note_off_c, 12, 71, 127
1, 278258, Note_on_c, 1, 73, 127
1, 278337, Note_off_c, 1, 73, 127
1, 278341, Note_on_c, 2, 74, 127
1, 278419, Note_off_c, 10, 57, 127
1, 278423, Note_on_c, 12, 59, 127
1, 278583, Note_off_c, 2, 74, 127
1, 278588, Note_on_c, 12, 71, 127
1, 278747, Note_off_c, 12, 59, 127
1, 278749, Note_off_c, 12, 71, 127
1, 278752, Note_on_c, 6, 66, 127
1, 278752, Note_on_c, 2, 62, 127
1, 278913, Note_off_c, 6, 66, 127
1, 278916, Note_on_c, 8, 68, 127
1, 279070, Note_off_c, 4, 52, 127
1, 279077, Note_off_c, 8, 68, 127
1, 279080, Note_on_c, 10, 69, 127
1, 279080, Note_on_c, 10, 57, 127
1, 279404, Note_off_c, 10, 57, 127
1, 279410, Note_on_c, 10, 45, 127
1, 279491, Note_on_c, 6, 66, 127
1, 279568, Note_off_c, 2, 62, 127
1, 279570, Note_off_c, 6, 66, 127
1, 279573, Note_on_c, 4, 64, 127
1, 279652, Note_off_c, 4, 64, 127
1, 279656, Note_on_c, 2, 62, 127
1, 279735, Note_off_c, 2, 62, 127
1, 279738, Note_on_c, 4, 64, 127
1, 279738, Note_on_c, 1, 49, 127
1, 279862, Note_off_c, 10, 69, 127
1, 279899, Note_off_c, 4, 64, 127
1, 279902, Note_on_c, 8, 68, 127
1, 280062, Note_off_c, 1, 49, 127
1, 280067, Note_on_c, 4, 52, 127
1, 280208, Note_off_c, 8, 68, 127
1, 280231, Note_on_c, 10, 69, 127
1, 280391, Note_off_c, 4, 52, 127
1, 280395, Note_on_c, 2, 62, 127
1, 280395, Note_on_c, 10, 57, 127
1, 280719, Note_off_c, 2, 62, 127
1, 280754, Note_on_c, 1, 61, 127
1, 281111, Note_off_c, 10, 45, 127
1, 281208, Note_off_c, 10, 69, 127
1, 281400, Note_off_c, 1, 61, 127
1, 281527, Note_on_c, 4, 76, 127
1, 281534, Note_off_c, 10, 57, 127
1, 281688, Note_off_c, 4, 76, 127
1, 281710, Note_on_c, 4, 76, 127
1, 281710, Note_on_c, 10, 69, 127
1, 281710, Note_on_c, 1, 73, 127
1, 281710, Note_on_c, 10, 45, 127
1, 282367, Note_on_c, 1, 49, 127
1, 283017, Note_off_c, 1, 49, 127
1, 283025, Note_on_c, 4, 52, 127
1, 283178, Note_off_c, 1, 73, 127
1, 283178, Note_off_c, 10, 69, 127
1, 283178, Note_off_c, 4, 76, 127
1, 283189, Note_on_c, 4, 76, 127
1, 283350, Note_off_c, 4, 76, 127
1, 283354, Note_on_c, 6, 78, 127
1, 283515, Note_off_c, 6, 78, 127
1, 283518, Note_on_c, 7, 79, 127
1, 283665, Note_off_c, 10, 45, 127
1, 283675, Note_off_c, 4, 52, 127
1, 283679, Note_off_c, 7, 79, 127
1, 283682, Note_on_c, 6, 78, 127
1, 283682, Note_on_c, 10, 57, 127
1, 283843, Note_off_c, 6, 78, 127
1, 283847, Note_on_c, 4, 76, 127
1, 284008, Note_off_c, 4, 76, 127
1, 284011, Note_on_c, 2, 74, 127
1, 284172, Note_off_c, 2, 74, 127
1, 284175, Note_on_c, 1, 73, 127
1, 284332, Note_off_c, 10, 57, 127
1, 284336, Note_off_c, 1, 73, 127
1, 284340, Note_on_c, 10, 81, 127
1, 284340, Note_on_c, 1, 73, 127
1, 284340, Note_on_c, 4, 76, 127
1, 284340, Note_on_c, 7, 55, 127
1, 284997, Note_on_c, 1, 61, 127
1, 285154, Note_off_c, 4, 76, 127
1, 285154, Note_off_c, 1, 73, 127
1, 285154, Note_off_c, 10, 81, 127
1, 285162, Note_on_c, 7, 79, 127
1, 285323, Note_off_c, 7, 79, 127
1, 285326, Note_on_c, 6, 78, 127
1, 285487, Note_off_c, 6, 78, 127
1, 285490, Note_on_c, 4, 76, 127
1, 285647, Note_off_c, 1, 61, 127
1, 285651, Note_off_c, 4, 76, 127
1, 285654, Note_on_c, 2, 74, 127
1, 285654, Note_on_c, 4, 64, 127
1, 285815, Note_off_c, 2, 74, 127
1, 285819, Note_on_c, 12, 71, 127
1, 285980, Note_off_c, 12, 71, 127
1, 285984, Note_on_c, 1, 73, 127
1, 286145, Note_off_c, 1, 73, 127
1, 286147, Note_on_c, 4, 76, 127
1, 286295, Note_off_c, 7, 55, 127
1, 286312, Note_on_c, 7, 55, 127
1, 286439, Note_off_c, 4, 76, 127
1, 286476, Note_on_c, 2, 74, 127
1, 286637, Note_off_c, 2, 74, 127
1, 286641, Note_on_c, 1, 73, 127
1, 286802, Note_off_c, 1, 73, 127
1, 286805, Note_on_c, 12, 71, 127
1, 286962, Note_off_c, 7, 55, 127
1, 286969, Note_on_c, 6, 54, 127
1, 287076, Note_off_c, 12, 71, 127
1, 287134, Note_on_c, 10, 69, 127
1, 287295, Note_off_c, 10, 69, 127
1, 287298, Note_on_c, 1, 73, 127
1, 287459, Note_off_c, 1, 73, 127
1, 287462, Note_on_c, 2, 74, 127
1, 287609, Note_off_c, 4, 64, 127
1, 287619, Note_off_c, 6, 54, 127
1, 287627, Note_on_c, 12, 59, 127
1, 287627, Note_on_c, 2, 62, 127
1, 287733, Note_off_c, 2, 74, 127
1, 287771, Note_on_c, 1, 73, 127
1, 287863, Note_on_c, 12, 71, 127
1, 287866, Note_off_c, 1, 73, 127
1, 287956, Note_off_c, 12, 71, 127
1, 287956, Note_on_c, 6, 78, 127
1, 288117, Note_off_c, 6, 78, 127
1, 288119, Note_on_c, 7, 79, 127
1, 288277, Note_off_c, 12, 59, 127
1, 288284, Note_on_c, 4, 52, 127
1, 288425, Note_off_c, 7, 79, 127
1, 288428, Note_on_c, 4, 76, 127
1, 288512, Note_off_c, 4, 76, 127
1, 288515, Note_on_c, 6, 78, 127
1, 288599, Note_off_c, 6, 78, 127
1, 288603, Note_on_c, 7, 79, 127
1, 288687, Note_off_c, 7, 79, 127
1, 288695, Note_on_c, 10, 81, 127
1, 288779, Note_off_c, 10, 81, 127
1, 288787, Note_on_c, 12, 83, 127
1, 288931, Note_off_c, 2, 62, 127
1, 288934, Note_off_c, 4, 52, 127
1, 288941, Note_on_c, 1, 61, 127
1, 288941, Note_on_c, 10, 57, 127
1, 288990, Note_off_c, 12, 83, 127
1, 289024, Note_on_c, 10, 81, 127
1, 289103, Note_off_c, 10, 81, 127
1, 289106, Note_on_c, 7, 79, 127
1, 289185, Note_off_c, 7, 79, 127
1, 289188, Note_on_c, 6, 78, 127
1, 289267, Note_off_c, 6, 78, 127
1, 289271, Note_on_c, 7, 79, 127
1, 289447, Note_off_c, 7, 79, 127
1, 289472, Note_on_c, 4, 76, 127
1, 289591, Note_off_c, 10, 57, 127
1, 289591, Note_off_c, 1, 61, 127
1, 289599, Note_on_c, 2, 62, 127
1, 289923, Note_off_c, 2, 62, 127
1, 289928, Note_on_c, 1, 61, 127
1, 290089, Note_off_c, 1, 61, 127
1, 290092, Note_on_c, 12, 59, 127
1, 290253, Note_off_c, 12, 59, 127
1, 290254, Note_off_c, 4, 76, 127
1, 290256, Note_on_c, 6, 78, 127
1, 290256, Note_on_c, 10, 57, 127
1, 290417, Note_off_c, 10, 57, 127
1, 290421, Note_on_c, 2, 62, 127
1, 290582, Note_off_c, 2, 62, 127
1, 290585, Note_on_c, 6, 54, 127
1, 290746, Note_off_c, 6, 54, 127
1, 290749, Note_on_c, 10, 57, 127
1, 290902, Note_off_c, 6, 78, 127
1, 290910, Note_off_c, 10, 57, 127
1, 290914, Note_on_c, 2, 50, 127
1, 291078, Note_on_c, 6, 78, 127
1, 291238, Note_off_c, 2, 50, 127
1, 291239, Note_off_c, 6, 78, 127
1, 291243, Note_on_c, 6, 78, 127
1, 291243, Note_on_c, 10, 45, 127
1, 291322, Note_off_c, 6, 78, 127
1, 291325, Note_on_c, 4, 76, 127
1, 291404, Note_off_c, 4, 76, 127
1, 291406, Note_on_c, 6, 78, 127
1, 291567, Note_off_c, 6, 78, 127
1, 291567, Note_off_c, 10, 45, 127
1, 291571, Note_on_c, 10, 81, 127
1, 291571, Note_on_c, 2, 50, 127
1, 291732, Note_off_c, 10, 81, 127
1, 291736, Note_on_c, 12, 71, 127
1, 291897, Note_off_c, 12, 71, 127
1, 291900, Note_on_c, 0, 72, 127
1, 291900, Note_on_c, 6, 54, 127
1, 292224, Note_off_c, 6, 54, 127
1, 292228, Note_on_c, 10, 57, 127
1, 292387, Note_off_c, 0, 72, 127
1, 292393, Note_on_c, 0, 72, 127
1, 292552, Note_off_c, 10, 57, 127
1, 292554, Note_off_c, 0, 72, 127
1, 292558, Note_on_c, 0, 72, 127
1, 292558, Note_on_c, 6, 54, 127
1, 292637, Note_off_c, 0, 72, 127
1, 292639, Note_on_c, 12, 71, 127
1, 292718, Note_off_c, 12, 71, 127
1, 292721, Note_on_c, 0, 72, 127
1, 292882, Note_off_c, 0, 72, 127
1, 292882, Note_off_c, 6, 54, 127
1, 292886, Note_on_c, 6, 78, 127
1, 292886, Note_on_c, 10, 57, 127
1, 293047, Note_off_c, 6, 78, 127
1, 293050, Note_on_c, 8, 68, 127
1, 293210, Note_off_c, 10, 57, 127
1, 293211, Note_off_c, 8, 68, 127
1, 293215, Note_on_c, 10, 69, 127
1, 293215, Note_on_c, 0, 60, 127
1, 293526, Note_off_c, 2, 50, 127
1, 293538, Note_off_c, 10, 69, 127
1, 293543, Note_on_c, 3, 51, 127
1, 293697, Note_on_c, 12, 71, 127
1, 293781, Note_off_c, 12, 71, 127
1, 293785, Note_on_c, 1, 73, 127
1, 293861, Note_off_c, 0, 60, 127
1, 293869, Note_off_c, 1, 73, 127
1, 293872, Note_on_c, 3, 75, 127
1, 293872, Note_on_c, 6, 54, 127
1, 293961, Note_off_c, 3, 75, 127
1, 293965, Note_on_c, 4, 76, 127
1, 294060, Note_off_c, 4, 76, 127
1, 294060, Note_on_c, 6, 78, 127
1, 294196, Note_off_c, 6, 54, 127
1, 294201, Note_on_c, 12, 59, 127
1, 294331, Note_off_c, 6, 78, 127
1, 294362, Note_on_c, 3, 75, 127
1, 294444, Note_off_c, 3, 75, 127
1, 294447, Note_on_c, 4, 76, 127
1, 294520, Note_off_c, 3, 51, 127
1, 294529, Note_off_c, 4, 76, 127
1, 294530, Note_on_c, 12, 47, 127
1, 294533, Note_on_c, 6, 78, 127
1, 294619, Note_off_c, 6, 78, 127
1, 294622, Note_on_c, 7, 79, 127
1, 294717, Note_off_c, 7, 79, 127
1, 294718, Note_on_c, 10, 81, 127
1, 294854, Note_off_c, 12, 47, 127
1, 294858, Note_on_c, 4, 52, 127
1, 294989, Note_off_c, 10, 81, 127
1, 295023, Note_on_c, 6, 78, 127
1, 295178, Note_off_c, 12, 59, 127
1, 295184, Note_off_c, 6, 78, 127
1, 295187, Note_on_c, 7, 79, 127
1, 295187, Note_on_c, 12, 59, 127
1, 295510, Note_off_c, 7, 79, 127
1, 295511, Note_off_c, 12, 59, 127
1, 295515, Note_on_c, 1, 61, 127
1, 295598, Note_on_c, 6, 78, 127
1, 295677, Note_off_c, 6, 78, 127
1, 295680, Note_on_c, 7, 79, 127
1, 295759, Note_off_c, 7, 79, 127
1, 295762, Note_on_c, 10, 81, 127
1, 295839, Note_off_c, 1, 61, 127
1, 295841, Note_off_c, 10, 81, 127
1, 295845, Note_on_c, 7, 79, 127
1, 295845, Note_on_c, 3, 63, 127
1, 296006, Note_off_c, 7, 79, 127
1, 296008, Note_on_c, 6, 78, 127
1, 296169, Note_off_c, 6, 78, 127
1, 296169, Note_off_c, 3, 63, 127
1, 296173, Note_on_c, 7, 79, 127
1, 296173, Note_on_c, 4, 64, 127
1, 296265, Note_on_c, 6, 78, 127
1, 296266, Note_off_c, 7, 79, 127
1, 296358, Note_off_c, 6, 78, 127
1, 296358, Note_on_c, 4, 76, 127
1, 296456, Note_off_c, 4, 52, 127
1, 296502, Note_on_c, 12, 83, 127
1, 296502, Note_on_c, 7, 55, 127
1, 296506, Note_off_c, 4, 76, 127
1, 296684, Note_off_c, 12, 83, 127
1, 296687, Note_on_c, 10, 81, 127
1, 296826, Note_off_c, 7, 55, 127
1, 296830, Note_on_c, 6, 54, 127
1, 296958, Note_off_c, 10, 81, 127
1, 296995, Note_on_c, 7, 79, 127
1, 297074, Note_off_c, 7, 79, 127
1, 297077, Note_on_c, 6, 78, 127
1, 297154, Note_off_c, 6, 54, 127
1, 297156, Note_off_c, 6, 78, 127
1, 297159, Note_on_c, 4, 76, 127
1, 297159, Note_on_c, 10, 57, 127
1, 297320, Note_off_c, 4, 76, 127
1, 297324, Note_on_c, 3, 75, 127
1, 297483, Note_off_c, 10, 57, 127
1, 297485, Note_off_c, 3, 75, 127
1, 297488, Note_on_c, 4, 76, 127
1, 297488, Note_on_c, 7, 55, 127
1, 297567, Note_off_c, 4, 76, 127
1, 297570, Note_on_c, 3, 75, 127
1, 297649, Note_off_c, 3, 75, 127
1, 297652, Note_on_c, 1, 73, 127
1, 297731, Note_off_c, 1, 73, 127
1, 297734, Note_on_c, 12, 71, 127
1, 297771, Note_off_c, 4, 64, 127
1, 297812, Note_off_c, 7, 55, 127
1, 297813, Note_off_c, 12, 71, 127
1, 297817, Note_on_c, 10, 81, 127
1, 297817, Note_on_c, 12, 59, 127
1, 297993, Note_off_c, 10, 81, 127
1, 297997, Note_on_c, 7, 79, 127
1, 298141, Note_off_c, 12, 59, 127
1, 298145, Note_on_c, 11, 58, 127
1, 298145, Note_on_c, 1, 61, 127
1, 298268, Note_off_c, 7, 79, 127
1, 298310, Note_on_c, 6, 78, 127
1, 298389, Note_off_c, 6, 78, 127
1, 298391, Note_on_c, 4, 76, 127
1, 298469, Note_off_c, 1, 61, 127
1, 298470, Note_off_c, 4, 76, 127
1, 298474, Note_on_c, 2, 74, 127
1, 298474, Note_on_c, 6, 66, 127
1, 298635, Note_off_c, 2, 74, 127
1, 298639, Note_on_c, 1, 73, 127
1, 298791, Note_off_c, 11, 58, 127
1, 298800, Note_off_c, 1, 73, 127
1, 298802, Note_on_c, 2, 74, 127
1, 298802, Note_on_c, 12, 59, 127
1, 298909, Note_off_c, 2, 74, 127
1, 298912, Note_on_c, 1, 73, 127
1, 299019, Note_off_c, 1, 73, 127
1, 299022, Note_on_c, 12, 71, 127
1, 299120, Note_off_c, 6, 66, 127
1, 299129, Note_off_c, 12, 71, 127
1, 299132, Note_on_c, 7, 79, 127
1, 299132, Note_on_c, 2, 62, 127
1, 299308, Note_off_c, 7, 79, 127
1, 299312, Note_on_c, 6, 78, 127
1, 299448, Note_off_c, 12, 59, 127
1, 299456, Note_off_c, 2, 62, 127
1, 299460, Note_on_c, 7, 55, 127
1, 299460, Note_on_c, 12, 59, 127
1, 299531, Note_off_c, 6, 78, 127
1, 299543, Note_on_c, 4, 76, 127
1, 299622, Note_off_c, 4, 76, 127
1, 299624, Note_on_c, 2, 74, 127
1, 299703, Note_off_c, 2, 74, 127
1, 299706, Note_on_c, 1, 73, 127
1, 299784, Note_off_c, 12, 59, 127
1, 299785, Note_off_c, 1, 73, 127
1, 299789, Note_on_c, 2, 74, 127
1, 299789, Note_on_c, 4, 64, 127
1, 299950, Note_off_c, 2, 74, 127
1, 299954, Note_on_c, 4, 76, 127
1, 300106, Note_off_c, 7, 55, 127
1, 300115, Note_off_c, 4, 76, 127
1, 300117, Note_on_c, 12, 71, 127
1, 300117, Note_on_c, 6, 54, 127
1, 300435, Note_off_c, 4, 64, 127
1, 300441, Note_off_c, 12, 71, 127
1, 300443, Note_on_c, 1, 61, 127
1, 300451, Note_on_c, 11, 70, 127
1, 300767, Note_off_c, 1, 61, 127
1, 300775, Note_on_c, 11, 58, 127
1, 301097, Note_off_c, 11, 70, 127
1, 301099, Note_off_c, 11, 58, 127
1, 301104, Note_on_c, 1, 61, 127
1, 301186, Note_on_c, 5, 77, 127
1, 301265, Note_off_c, 5, 77, 127
1, 301268, Note_on_c, 6, 78, 127
1, 301347, Note_off_c, 6, 78, 127
1, 301350, Note_on_c, 8, 80, 127
1, 301428, Note_off_c, 1, 61, 127
1, 301429, Note_off_c, 8, 80, 127
1, 301432, Note_on_c, 6, 78, 127
1, 301432, Note_on_c, 2, 62, 127
1, 301593, Note_off_c, 6, 78, 127
1, 301597, Note_on_c, 5, 77, 127
1, 301756, Note_off_c, 2, 62, 127
1, 301758, Note_off_c, 5, 77, 127
1, 301761, Note_on_c, 5, 77, 127
1, 301761, Note_on_c, 1, 61, 127
1, 301922, Note_off_c, 5, 77, 127
1, 301926, Note_on_c, 6, 78, 127
1, 302085, Note_off_c, 1, 61, 127
1, 302087, Note_off_c, 6, 78, 127
1, 302089, Note_on_c, 6, 78, 127
1, 302089, Note_on_c, 12, 59, 127
1, 302250, Note_off_c, 6, 78, 127
1, 302254, Note_on_c, 11, 82, 127
1, 302413, Note_off_c, 12, 59, 127
1, 302415, Note_off_c, 11, 82, 127
1, 302419, Note_on_c, 11, 82, 127
1, 302419, Note_on_c, 8, 56, 127
1, 302580, Note_off_c, 11, 82, 127
1, 302583, Note_on_c, 12, 83, 127
1, 302743, Note_off_c, 8, 56, 127
1, 302744, Note_off_c, 12, 83, 127
1, 302747, Note_on_c, 6, 78, 127
1, 302747, Note_on_c, 11, 58, 127
1, 302826, Note_off_c, 6, 78, 127
1, 302830, Note_on_c, 7, 79, 127
1, 302909, Note_off_c, 7, 79, 127
1, 302911, Note_on_c, 10, 81, 127
1, 302990, Note_off_c, 10, 81, 127
1, 302993, Note_on_c, 7, 79, 127
1, 303071, Note_off_c, 11, 58, 127
1, 303072, Note_off_c, 7, 79, 127
1, 303076, Note_on_c, 6, 78, 127
1, 303076, Note_on_c, 1, 61, 127
1, 303155, Note_off_c, 6, 78, 127
1, 303158, Note_on_c, 7, 79, 127
1, 303237, Note_off_c, 7, 79, 127
1, 303241, Note_on_c, 6, 78, 127
1, 303320, Note_off_c, 6, 78, 127
1, 303322, Note_on_c, 4, 76, 127
1, 303400, Note_off_c, 1, 61, 127
1, 303404, Note_on_c, 8, 56, 127
1, 303728, Note_off_c, 8, 56, 127
1, 303729, Note_off_c, 4, 76, 127
1, 303733, Note_on_c, 12, 59, 127
1, 303815, Note_on_c, 3, 75, 127
1, 303894, Note_off_c, 3, 75, 127
1, 303898, Note_on_c, 4, 76, 127
1, 303977, Note_off_c, 4, 76, 127
1, 303980, Note_on_c, 6, 78, 127
1, 304029, Note_off_c, 6, 54, 127
1, 304057, Note_off_c, 12, 59, 127
1, 304059, Note_off_c, 6, 78, 127
1, 304062, Note_on_c, 4, 76, 127
1, 304062, Note_on_c, 11, 58, 127
1, 304223, Note_off_c, 4, 76, 127
1, 304226, Note_on_c, 3, 75, 127
1, 304386, Note_off_c, 11, 58, 127
1, 304387, Note_off_c, 3, 75, 127
1, 304391, Note_on_c, 3, 75, 127
1, 304391, Note_on_c, 1, 61, 127
1, 304552, Note_off_c, 3, 75, 127
1, 304555, Note_on_c, 4, 76, 127
1, 304716, Note_off_c, 4, 76, 127
1, 304719, Note_on_c, 4, 76, 127
1, 304719, Note_on_c, 11, 58, 127
1, 304880, Note_off_c, 4, 76, 127
1, 304884, Note_on_c, 11, 82, 127
1, 305045, Note_off_c, 11, 82, 127
1, 305048, Note_on_c, 11, 82, 127
1, 305048, Note_on_c, 6, 54, 127
1, 305209, Note_off_c, 11, 82, 127
1, 305213, Note_on_c, 12, 83, 127
1, 305365, Note_off_c, 11, 58, 127
1, 305372, Note_off_c, 6, 54, 127
1, 305374, Note_off_c, 12, 83, 127
1, 305376, Note_on_c, 4, 76, 127
1, 305376, Note_on_c, 7, 55, 127
1, 305455, Note_off_c, 4, 76, 127
1, 305459, Note_on_c, 6, 78, 127
1, 305538, Note_off_c, 6, 78, 127
1, 305541, Note_on_c, 7, 79, 127
1, 305620, Note_off_c, 7, 79, 127
1, 305624, Note_on_c, 6, 78, 127
1, 305695, Note_off_c, 1, 61, 127
1, 305703, Note_off_c, 6, 78, 127
1, 305706, Note_on_c, 4, 76, 127
1, 305706, Note_on_c, 11, 58, 127
1, 305785, Note_off_c, 4, 76, 127
1, 305787, Note_on_c, 6, 78, 127
1, 305866, Note_off_c, 6, 78, 127
1, 305870, Note_on_c, 4, 76, 127
1, 305949, Note_off_c, 4, 76, 127
1, 305952, Note_on_c, 2, 74, 127
1, 306030, Note_off_c, 11, 58, 127
1, 306034, Note_on_c, 12, 59, 127
1, 306358, Note_off_c, 12, 59, 127
1, 306359, Note_off_c, 2, 74, 127
1, 306363, Note_on_c, 2, 62, 127
1, 306445, Note_on_c, 1, 73, 127
1, 306524, Note_off_c, 1, 73, 127
1, 306528, Note_on_c, 2, 74, 127
1, 306607, Note_off_c, 2, 74, 127
1, 306609, Note_on_c, 4, 76, 127
1, 306687, Note_off_c, 2, 62, 127
1, 306688, Note_off_c, 4, 76, 127
1, 306691, Note_on_c, 2, 74, 127
1, 306691, Note_on_c, 12, 59, 127
1, 306852, Note_off_c, 2, 74, 127
1, 306856, Note_on_c, 1, 73, 127
1, 306974, Note_off_c, 7, 55, 127
1, 307017, Note_off_c, 1, 73, 127
1, 307020, Note_on_c, 1, 73, 127
1, 307020, Note_on_c, 7, 55, 127
1, 307181, Note_off_c, 1, 73, 127
1, 307185, Note_on_c, 2, 74, 127
1, 307344, Note_off_c, 7, 55, 127
1, 307346, Note_off_c, 2, 74, 127
1, 307349, Note_on_c, 2, 74, 127
1, 307349, Note_on_c, 6, 54, 127
1, 307510, Note_off_c, 2, 74, 127
1, 307513, Note_on_c, 8, 80, 127
1, 307592, Note_off_c, 8, 80, 127
1, 307596, Note_on_c, 11, 82, 127
1, 307673, Note_off_c, 6, 54, 127
1, 307675, Note_off_c, 11, 82, 127
1, 307678, Note_on_c, 12, 83, 127
1, 307678, Note_on_c, 5, 53, 127
1, 307839, Note_off_c, 12, 83, 127
1, 307842, Note_on_c, 2, 74, 127
1, 307995, Note_off_c, 12, 59, 127
1, 308002, Note_off_c, 5, 53, 127
1, 308006, Note_on_c, 11, 58, 127
1, 308006, Note_on_c, 6, 54, 127
1, 308111, Note_off_c, 2, 74, 127
1, 308116, Note_on_c, 1, 73, 127
1, 308223, Note_off_c, 1, 73, 127
1, 308226, Note_on_c, 12, 71, 127
1, 308330, Note_off_c, 6, 54, 127
1, 308330, Note_off_c, 11, 58, 127
1, 308333, Note_off_c, 12, 71, 127
1, 308335, Note_on_c, 1, 73, 127
1, 308335, Note_on_c, 7, 55, 127
1, 308442, Note_off_c, 1, 73, 127
1, 308445, Note_on_c, 12, 71, 127
1, 308552, Note_off_c, 12, 71, 127
1, 308554, Note_on_c, 11, 70, 127
1, 308659, Note_off_c, 7, 55, 127
1, 308661, Note_off_c, 11, 70, 127
1, 308663, Note_on_c, 11, 70, 127
1, 308663, Note_on_c, 6, 54, 127
1, 308848, Note_off_c, 11, 70, 127
1, 308852, Note_on_c, 7, 79, 127
1, 308987, Note_off_c, 6, 54, 127
1, 308993, Note_on_c, 11, 58, 127
1, 308993, Note_on_c, 4, 52, 127
1, 309317, Note_off_c, 4, 52, 127
1, 309317, Note_off_c, 11, 58, 127
1, 309321, Note_on_c, 3, 51, 127
1, 309321, Note_on_c, 12, 59, 127
1, 309340, Note_off_c, 7, 79, 127
1, 309431, Note_on_c, 6, 78, 127
1, 309538, Note_off_c, 6, 78, 127
1, 309541, Note_on_c, 4, 76, 127
1, 309645, Note_off_c, 12, 59, 127
1, 309645, Note_off_c, 3, 51, 127
1, 309648, Note_off_c, 4, 76, 127
1, 309650, Note_on_c, 6, 78, 127
1, 309650, Note_on_c, 0, 60, 127
1, 309757, Note_off_c, 6, 78, 127
1, 309759, Note_on_c, 4, 76, 127
1, 309866, Note_off_c, 4, 76, 127
1, 309869, Note_on_c, 3, 75, 127
1, 309974, Note_off_c, 0, 60, 127
1, 309976, Note_off_c, 3, 75, 127
1, 309978, Note_on_c, 3, 75, 127
1, 309978, Note_on_c, 12, 59, 127
1, 310163, Note_off_c, 3, 75, 127
1, 310167, Note_on_c, 0, 84, 127
1, 310302, Note_off_c, 12, 59, 127
1, 310307, Note_on_c, 3, 63, 127
1, 310307, Note_on_c, 10, 57, 127
1, 310631, Note_off_c, 10, 57, 127
1, 310631, Note_off_c, 3, 63, 127
1, 310636, Note_on_c, 4, 64, 127
1, 310636, Note_on_c, 7, 55, 127
1, 310655, Note_off_c, 0, 84, 127
1, 310718, Note_on_c, 10, 81, 127
1, 310797, Note_off_c, 10, 81, 127
1, 310800, Note_on_c, 12, 83, 127
1, 310879, Note_off_c, 12, 83, 127
1, 310883, Note_on_c, 0, 84, 127
1, 310960, Note_off_c, 7, 55, 127
1, 310960, Note_off_c, 4, 64, 127
1, 310962, Note_off_c, 0, 84, 127
1, 310965, Note_on_c, 12, 83, 127
1, 310965, Note_on_c, 10, 57, 127
1, 311289, Note_off_c, 10, 57, 127
1, 311293, Note_on_c, 7, 55, 127
1, 311337, Note_off_c, 12, 83, 127
1, 311368, Note_on_c, 10, 81, 127
1, 311487, Note_off_c, 10, 81, 127
1, 311496, Note_on_c, 7, 79, 127
1, 311617, Note_off_c, 7, 55, 127
1, 311620, Note_off_c, 7, 79, 127
1, 311622, Note_on_c, 10, 81, 127
1, 311622, Note_on_c, 3, 63, 127
1, 311622, Note_on_c, 6, 54, 127
1, 311729, Note_off_c, 10, 81, 127
1, 311732, Note_on_c, 7, 79, 127
1, 311839, Note_off_c, 7, 79, 127
1, 311841, Note_on_c, 6, 78, 127
1, 311946, Note_off_c, 6, 54, 127
1, 311946, Note_off_c, 3, 63, 127
1, 311948, Note_off_c, 6, 78, 127
1, 311950, Note_on_c, 7, 79, 127
1, 311950, Note_on_c, 4, 64, 127
1, 311950, Note_on_c, 4, 52, 127
1, 312029, Note_off_c, 7, 79, 127
1, 312033, Note_on_c, 6, 78, 127
1, 312112, Note_off_c, 6, 78, 127
1, 312115, Note_on_c, 4, 76, 127
1, 312194, Note_off_c, 4, 76, 127
1, 312198, Note_on_c, 3, 75, 127
1, 312273, Note_off_c, 4, 52, 127
1, 312273, Note_off_c, 4, 64, 127
1, 312277, Note_off_c, 3, 75, 127
1, 312280, Note_on_c, 4, 76, 127
1, 312280, Note_on_c, 7, 43, 127
1, 312604, Note_off_c, 7, 43, 127
1, 312608, Note_on_c, 10, 45, 127
1, 312653, Note_off_c, 4, 76, 127
1, 312718, Note_on_c, 2, 74, 127
1, 312825, Note_off_c, 2, 74, 127
1, 312828, Note_on_c, 0, 72, 127
1, 312932, Note_off_c, 10, 45, 127
1, 312935, Note_off_c, 0, 72, 127
1, 312937, Note_on_c, 2, 74, 127
1, 312937, Note_on_c, 12, 47, 127
1, 313044, Note_off_c, 2, 74, 127
1, 313046, Note_on_c, 0, 72, 127
1, 313153, Note_off_c, 0, 72, 127
1, 313156, Note_on_c, 12, 71, 127
1, 313261, Note_off_c, 12, 47, 127
1, 313263, Note_off_c, 12, 71, 127
1, 313265, Note_on_c, 0, 72, 127
1, 313265, Note_on_c, 4, 40, 127
1, 313426, Note_off_c, 0, 72, 127
1, 313430, Note_on_c, 7, 67, 127
1, 313589, Note_off_c, 4, 40, 127
1, 313594, Note_on_c, 4, 52, 127
1, 313701, Note_off_c, 7, 67, 127
1, 313759, Note_on_c, 10, 69, 127
1, 313838, Note_off_c, 10, 69, 127
1, 313841, Note_on_c, 12, 71, 127
1, 313918, Note_off_c, 4, 52, 127
1, 313920, Note_off_c, 12, 71, 127
1, 313924, Note_on_c, 0, 72, 127
1, 313924, Note_on_c, 0, 48, 127
1, 314031, Note_off_c, 0, 72, 127
1, 314033, Note_on_c, 2, 74, 127
1, 314140, Note_off_c, 2, 74, 127
1, 314142, Note_on_c, 4, 76, 127
1, 314248, Note_off_c, 0, 48, 127
1, 314249, Note_off_c, 4, 76, 127
1, 314252, Note_on_c, 5, 77, 127
1, 314252, Note_on_c, 7, 43, 127
1, 314359, Note_off_c, 5, 77, 127
1, 314361, Note_on_c, 4, 76, 127
1, 314468, Note_off_c, 4, 76, 127
1, 314471, Note_on_c, 2, 74, 127
1, 314576, Note_off_c, 7, 43, 127
1, 314578, Note_off_c, 2, 74, 127
1, 314580, Note_on_c, 0, 72, 127
1, 314580, Note_on_c, 4, 40, 127
1, 314741, Note_off_c, 0, 72, 127
1, 314745, Note_on_c, 7, 67, 127
1, 314904, Note_off_c, 4, 40, 127
1, 314909, Note_on_c, 4, 52, 127
1, 315016, Note_off_c, 7, 67, 127
1, 315074, Note_on_c, 10, 69, 127
1, 315153, Note_off_c, 10, 69, 127
1, 315156, Note_on_c, 12, 71, 127
1, 315233, Note_off_c, 4, 52, 127
1, 315235, Note_off_c, 12, 71, 127
1, 315237, Note_on_c, 0, 72, 127
1, 315237, Note_on_c, 0, 48, 127
1, 315344, Note_off_c, 0, 72, 127
1, 315348, Note_on_c, 2, 74, 127
1, 315455, Note_off_c, 2, 74, 127
1, 315457, Note_on_c, 4, 76, 127
1, 315561, Note_off_c, 0, 48, 127
1, 315564, Note_off_c, 4, 76, 127
1, 315567, Note_on_c, 5, 77, 127
1, 315567, Note_on_c, 7, 43, 127
1, 315674, Note_off_c, 5, 77, 127
1, 315676, Note_on_c, 4, 76, 127
1, 315783, Note_off_c, 4, 76, 127
1, 315785, Note_on_c, 2, 74, 127
1, 315891, Note_off_c, 7, 43, 127
1, 315892, Note_off_c, 2, 74, 127
1, 315896, Note_on_c, 1, 73, 127
1, 315896, Note_on_c, 4, 40, 127
1, 316057, Note_off_c, 1, 73, 127
1, 316059, Note_on_c, 11, 70, 127
1, 316220, Note_off_c, 4, 40, 127
1, 316224, Note_on_c, 4, 52, 127
1, 316279, Note_off_c, 11, 70, 127
1, 316389, Note_on_c, 6, 78, 127
1, 316468, Note_off_c, 6, 78, 127
1, 316470, Note_on_c, 4, 76, 127
1, 316548, Note_off_c, 4, 52, 127
1, 316549, Note_off_c, 4, 76, 127
1, 316552, Note_on_c, 6, 78, 127
1, 316552, Note_on_c, 2, 50, 127
1, 316737, Note_off_c, 6, 78, 127
1, 316741, Note_on_c, 12, 83, 127
1, 316876, Note_off_c, 2, 50, 127
1, 316881, Note_on_c, 7, 55, 127
1, 316905, Note_off_c, 12, 83, 127
1, 316963, Note_on_c, 6, 78, 127
1, 317042, Note_off_c, 6, 78, 127
1, 317046, Note_on_c, 4, 76, 127
1, 317125, Note_off_c, 4, 76, 127
1, 317128, Note_on_c, 2, 74, 127
1, 317205, Note_off_c, 7, 55, 127
1, 317207, Note_off_c, 2, 74, 127
1, 317211, Note_on_c, 4, 76, 127
1, 317211, Note_on_c, 1, 49, 127
1, 317372, Note_off_c, 4, 76, 127
1, 317374, Note_on_c, 1, 73, 127
1, 317535, Note_off_c, 1, 49, 127
1, 317539, Note_on_c, 12, 47, 127
1, 317686, Note_off_c, 1, 73, 127
1, 317703, Note_on_c, 4, 76, 127
1, 317782, Note_off_c, 4, 76, 127
1, 317785, Note_on_c, 3, 75, 127
1, 317863, Note_off_c, 12, 47, 127
1, 317864, Note_off_c, 3, 75, 127
1, 317868, Note_on_c, 4, 76, 127
1, 317868, Note_on_c, 1, 49, 127
1, 318053, Note_off_c, 4, 76, 127
1, 318056, Note_on_c, 11, 82, 127
1, 318192, Note_off_c, 1, 49, 127
1, 318196, Note_on_c, 6, 54, 127
1, 318220, Note_off_c, 11, 82, 127
1, 318278, Note_on_c, 4, 76, 127
1, 318357, Note_off_c, 4, 76, 127
1, 318361, Note_on_c, 2, 74, 127
1, 318440, Note_off_c, 2, 74, 127
1, 318443, Note_on_c, 1, 73, 127
1, 318520, Note_off_c, 6, 54, 127
1, 318522, Note_off_c, 1, 73, 127
1, 318525, Note_on_c, 2, 74, 127
1, 318525, Note_on_c, 12, 47, 127
1, 318686, Note_off_c, 2, 74, 127
1, 318689, Note_on_c, 12, 71, 127
1, 318849, Note_off_c, 12, 47, 127
1, 318854, Note_on_c, 2, 50, 127
1, 318992, Note_off_c, 12, 71, 127
1, 319018, Note_on_c, 12, 83, 127
1, 319097, Note_off_c, 12, 83, 127
1, 319100, Note_on_c, 10, 81, 127
1, 319178, Note_off_c, 2, 50, 127
1, 319179, Note_off_c, 10, 81, 127
1, 319183, Note_on_c, 7, 79, 127
1, 319183, Note_on_c, 4, 52, 127
1, 319344, Note_off_c, 7, 79, 127
1, 319346, Note_on_c, 7, 79, 127
1, 319425, Note_off_c, 7, 79, 127
1, 319429, Note_on_c, 6, 78, 127
1, 319507, Note_off_c, 4, 52, 127
1, 319508, Note_off_c, 6, 78, 127
1, 319511, Note_on_c, 4, 76, 127
1, 319511, Note_on_c, 6, 54, 127
1, 319672, Note_off_c, 4, 76, 127
1, 319676, Note_on_c, 4, 76, 127
1, 319755, Note_off_c, 4, 76, 127
1, 319757, Note_on_c, 2, 74, 127
1, 319835, Note_off_c, 6, 54, 127
1, 319836, Note_off_c, 2, 74, 127
1, 319840, Note_on_c, 1, 73, 127
1, 319840, Note_on_c, 7, 55, 127
1, 319929, Note_off_c, 1, 73, 127
1, 319933, Note_on_c, 7, 79, 127
1, 320022, Note_off_c, 7, 79, 127
1, 320025, Note_on_c, 6, 78, 127
1, 320114, Note_off_c, 6, 78, 127
1, 320117, Note_on_c, 4, 76, 127
1, 320164, Note_off_c, 7, 55, 127
1, 320168, Note_on_c, 4, 52, 127
1, 320219, Note_off_c, 4, 76, 127
1, 320224, Note_on_c, 6, 78, 127
1, 320357, Note_off_c, 6, 78, 127
1, 320361, Note_on_c, 12, 71, 127
1, 320492, Note_off_c, 4, 52, 127
1, 320494, Note_off_c, 12, 71, 127
1, 320498, Note_on_c, 2, 74, 127
1, 320498, Note_on_c, 6, 54, 127
1, 320822, Note_off_c, 6, 54, 127
1, 320822, Note_off_c, 2, 74, 127
1, 320826, Note_on_c, 2, 74, 127
1, 320826, Note_on_c, 6, 42, 127
1, 320905, Note_off_c, 2, 74, 127
1, 320908, Note_on_c, 1, 73, 127
1, 320987, Note_off_c, 1, 73, 127
1, 320990, Note_on_c, 12, 71, 127
1, 321069, Note_off_c, 12, 71, 127
1, 321072, Note_on_c, 1, 73, 127
1, 321150, Note_off_c, 6, 42, 127
1, 321151, Note_off_c, 1, 73, 127
1, 321155, Note_on_c, 12, 71, 127
1, 321155, Note_on_c, 12, 47, 127
1, 321316, Note_off_c, 12, 71, 127
1, 321319, Note_on_c, 4, 64, 127
1, 321480, Note_off_c, 4, 64, 127
1, 321483, Note_on_c, 6, 66, 127
1, 321648, Note_on_c, 1, 61, 127
1, 321809, Note_off_c, 1, 61, 127
1, 321812, Note_on_c, 2, 62, 127
1, 321976, Note_on_c, 11, 58, 127
1, 322129, Note_off_c, 6, 66, 127
1, 322137, Note_off_c, 11, 58, 127
1, 322141, Note_on_c, 12, 59, 127
1, 322302, Note_off_c, 12, 59, 127
1, 322305, Note_on_c, 6, 54, 127
1, 322459, Note_off_c, 12, 47, 127
1, 322466, Note_off_c, 6, 54, 127
1, 322470, Note_on_c, 2, 50, 127
1, 322631, Note_off_c, 2, 50, 127
1, 322633, Note_on_c, 12, 47, 127
1, 322794, Note_off_c, 12, 47, 127
1, 322798, Note_on_c, 2, 50, 127
1, 322959, Note_off_c, 2, 50, 127
1, 322963, Note_on_c, 6, 54, 127
1, 323124, Note_off_c, 6, 54, 127
1, 323127, Note_on_c, 12, 59, 127
1, 323280, Note_off_c, 2, 62, 127
1, 323291, Note_on_c, 2, 62, 127
1, 323452, Note_off_c, 2, 62, 127
1, 323455, Note_on_c, 6, 66, 127
1, 323616, Note_off_c, 6, 66, 127
1, 323620, Note_on_c, 7, 67, 127
1, 323773, Note_off_c, 12, 59, 127
1, 323781, Note_off_c, 7, 67, 127
1, 323785, Note_on_c, 10, 69, 127
1, 323948, Note_on_c, 6, 42, 127
1, 324109, Note_off_c, 6, 42, 127
1, 324113, Note_on_c, 10, 45, 127
1, 324274, Note_off_c, 10, 45, 127
1, 324277, Note_on_c, 2, 50, 127
1, 324438, Note_off_c, 2, 50, 127
1, 324442, Note_on_c, 6, 54, 127
1, 324603, Note_off_c, 6, 54, 127
1, 324606, Note_on_c, 10, 57, 127
1, 324762, Note_off_c, 10, 69, 127
1, 324767, Note_off_c, 10, 57, 127
1, 324770, Note_on_c, 2, 62, 127
1, 324931, Note_off_c, 2, 62, 127
1, 324935, Note_on_c, 6, 66, 127
1, 325096, Note_off_c, 6, 66, 127
1, 325099, Note_on_c, 10, 69, 127
1, 325260, Note_off_c, 10, 69, 127
1, 325263, Note_on_c, 6, 66, 127
1, 325424, Note_off_c, 6, 66, 127
1, 325428, Note_on_c, 2, 62, 127
1, 325589, Note_off_c, 2, 62, 127
1, 325592, Note_on_c, 4, 64, 127
1, 325753, Note_off_c, 4, 64, 127
1, 325757, Note_on_c, 6, 66, 127
1, 325757, Note_on_c, 2, 38, 127
1, 325918, Note_off_c, 6, 66, 127
1, 325920, Note_on_c, 7, 67, 127
1, 326081, Note_off_c, 7, 67, 127
1, 326085, Note_on_c, 10, 69, 127
1, 326246, Note_off_c, 10, 69, 127
1, 326250, Note_on_c, 12, 71, 127
1, 326407, Note_off_c, 2, 38, 127
1, 326411, Note_off_c, 12, 71, 127
1, 326414, Note_on_c, 0, 72, 127
1, 326414, Note_on_c, 7, 43, 127
1, 326498, Note_off_c, 0, 72, 127
1, 326501, Note_on_c, 12, 71, 127
1, 326585, Note_off_c, 12, 71, 127
1, 326588, Note_on_c, 10, 69, 127
1, 326738, Note_off_c, 10, 69, 127
1, 326742, Note_on_c, 12, 71, 127
1, 326903, Note_off_c, 12, 71, 127
1, 326907, Note_on_c, 6, 66, 127
1, 327068, Note_off_c, 6, 66, 127
1, 327072, Note_on_c, 7, 67, 127
1, 327235, Note_on_c, 2, 62, 127
1, 327400, Note_on_c, 12, 59, 127
1, 327548, Note_off_c, 7, 67, 127
1, 327561, Note_off_c, 12, 59, 127
1, 327564, Note_on_c, 2, 50, 127
1, 327725, Note_off_c, 2, 50, 127
1, 327729, Note_on_c, 7, 55, 127
1, 327885, Note_off_c, 2, 62, 127
1, 327893, Note_on_c, 10, 69, 127
1, 328054, Note_off_c, 10, 69, 127
1, 328057, Note_on_c, 12, 71, 127
1, 328218, Note_off_c, 12, 71, 127
1, 328222, Note_on_c, 0, 72, 127
1, 328369, Note_off_c, 7, 43, 127
1, 328383, Note_off_c, 0, 72, 127
1, 328386, Note_on_c, 12, 71, 127
1, 328386, Note_on_c, 7, 43, 127
1, 328547, Note_off_c, 12, 71, 127
1, 328550, Note_on_c, 10, 69, 127
1, 328711, Note_off_c, 10, 69, 127
1, 328715, Note_on_c, 12, 71, 127
1, 328876, Note_off_c, 12, 71, 127
1, 328879, Note_on_c, 3, 75, 127
1, 329036, Note_off_c, 7, 43, 127
1, 329044, Note_on_c, 0, 48, 127
1, 329167, Note_off_c, 3, 75, 127
1, 329207, Note_on_c, 4, 76, 127
1, 329327, Note_off_c, 7, 55, 127
1, 329368, Note_off_c, 4, 76, 127
1, 329372, Note_on_c, 10, 69, 127
1, 329372, Note_on_c, 10, 57, 127
1, 329533, Note_off_c, 10, 69, 127
1, 329537, Note_on_c, 3, 75, 127
1, 329690, Note_off_c, 0, 48, 127
1, 329701, Note_on_c, 12, 47, 127
1, 329843, Note_off_c, 3, 75, 127
1, 329865, Note_on_c, 4, 76, 127
1, 330018, Note_off_c, 10, 57, 127
1, 330026, Note_off_c, 4, 76, 127
1, 330029, Note_on_c, 7, 67, 127
1, 330029, Note_on_c, 12, 59, 127
1, 330190, Note_off_c, 7, 67, 127
1, 330194, Note_on_c, 3, 75, 127
1, 330347, Note_off_c, 12, 47, 127
1, 330359, Note_on_c, 10, 45, 127
1, 330500, Note_off_c, 3, 75, 127
1, 330522, Note_on_c, 4, 76, 127
1, 330675, Note_off_c, 12, 59, 127
1, 330683, Note_off_c, 4, 76, 127
1, 330687, Note_on_c, 6, 66, 127
1, 330687, Note_on_c, 0, 60, 127
1, 330848, Note_off_c, 6, 66, 127
1, 330851, Note_on_c, 4, 76, 127
1, 331005, Note_off_c, 10, 45, 127
1, 331016, Note_on_c, 12, 47, 127
1, 331137, Note_off_c, 4, 76, 127
1, 331146, Note_on_c, 3, 75, 127
1, 331242, Note_off_c, 3, 75, 127
1, 331245, Note_on_c, 4, 76, 127
1, 331333, Note_off_c, 0, 60, 127
1, 331341, Note_off_c, 4, 76, 127
1, 331344, Note_on_c, 6, 78, 127
1, 331344, Note_on_c, 3, 51, 127
1, 331505, Note_off_c, 6, 78, 127
1, 331509, Note_on_c, 10, 69, 127
1, 331662, Note_off_c, 12, 47, 127
1, 331668, Note_off_c, 3, 51, 127
1, 331673, Note_on_c, 4, 52, 127
1, 331778, Note_off_c, 10, 69, 127
1, 331783, Note_on_c, 6, 66, 127
1, 331890, Note_off_c, 6, 66, 127
1, 331892, Note_on_c, 7, 67, 127
1, 331999, Note_off_c, 7, 67, 127
1, 332002, Note_on_c, 10, 69, 127
1, 332002, Note_on_c, 12, 47, 127
1, 332109, Note_off_c, 10, 69, 127
1, 332111, Note_on_c, 7, 67, 127
1, 332218, Note_off_c, 7, 67, 127
1, 332221, Note_on_c, 6, 66, 127
1, 332326, Note_off_c, 12, 47, 127
1, 332328, Note_off_c, 6, 66, 127
1, 332331, Note_on_c, 6, 66, 127
1, 332331, Note_on_c, 4, 40, 127
1, 332546, Note_off_c, 6, 66, 127
1, 332550, Note_on_c, 7, 67, 127
1, 332650, Note_off_c, 4, 52, 127
1, 332659, Note_on_c, 12, 47, 127
1, 332983, Note_off_c, 12, 47, 127
1, 332988, Note_on_c, 4, 52, 127
1, 333093, Note_off_c, 7, 67, 127
1, 333152, Note_on_c, 10, 69, 127
1, 333231, Note_off_c, 10, 69, 127
1, 333235, Note_on_c, 12, 71, 127
1, 333308, Note_off_c, 4, 40, 127
1, 333314, Note_off_c, 12, 71, 127
1, 333316, Note_on_c, 10, 69, 127
1, 333316, Note_on_c, 1, 49, 127
1, 333477, Note_off_c, 10, 69, 127
1, 333481, Note_on_c, 7, 67, 127
1, 333640, Note_off_c, 1, 49, 127
1, 333642, Note_off_c, 7, 67, 127
1, 333646, Note_on_c, 7, 67, 127
1, 333646, Note_on_c, 2, 50, 127
1, 333807, Note_off_c, 7, 67, 127
1, 333809, Note_on_c, 10, 69, 127
1, 333888, Note_off_c, 10, 69, 127
1, 333892, Note_on_c, 12, 71, 127
1, 333970, Note_off_c, 2, 50, 127
1, 333971, Note_off_c, 12, 71, 127
1, 333974, Note_on_c, 10, 69, 127
1, 333974, Note_on_c, 12, 47, 127
1, 334135, Note_off_c, 10, 69, 127
1, 334138, Note_on_c, 7, 67, 127
1, 334298, Note_off_c, 12, 47, 127
1, 334299, Note_off_c, 7, 67, 127
1, 334303, Note_on_c, 7, 67, 127
1, 334303, Note_on_c, 1, 49, 127
1, 334464, Note_off_c, 7, 67, 127
1, 334468, Note_on_c, 1, 73, 127
1, 334547, Note_off_c, 1, 73, 127
1, 334549, Note_on_c, 2, 74, 127
1, 334586, Note_off_c, 4, 52, 127
1, 334628, Note_off_c, 2, 74, 127
1, 334631, Note_on_c, 4, 76, 127
1, 334631, Note_on_c, 10, 57, 127
1, 334792, Note_off_c, 10, 57, 127
1, 334796, Note_on_c, 7, 55, 127
1, 334957, Note_off_c, 7, 55, 127
1, 334960, Note_on_c, 10, 57, 127
1, 335070, Note_off_c, 4, 76, 127
1, 335124, Note_on_c, 2, 74, 127
1, 335280, Note_off_c, 1, 49, 127
1, 335285, Note_off_c, 2, 74, 127
1, 335289, Note_on_c, 1, 73, 127
1, 335289, Note_on_c, 10, 45, 127
1, 335450, Note_off_c, 1, 73, 127
1, 335453, Note_on_c, 12, 71, 127
1, 335606, Note_off_c, 10, 57, 127
1, 335613, Note_off_c, 10, 45, 127
1, 335614, Note_off_c, 12, 71, 127
1, 335618, Note_on_c, 10, 69, 127
1, 335618, Note_on_c, 12, 47, 127
1, 335745, Note_off_c, 10, 69, 127
1, 335747, Note_on_c, 7, 67, 127
1, 335843, Note_off_c, 7, 67, 127
1, 335847, Note_on_c, 6, 66, 127
1, 335943, Note_off_c, 6, 66, 127
1, 335946, Note_on_c, 7, 67, 127
1, 335946, Note_on_c, 2, 50, 127
1, 336264, Note_off_c, 12, 47, 127
1, 336270, Note_off_c, 2, 50, 127
1, 336275, Note_on_c, 1, 49, 127
1, 336352, Note_off_c, 7, 67, 127
1, 336385, Note_on_c, 6, 66, 127
1, 336492, Note_off_c, 6, 66, 127
1, 336494, Note_on_c, 4, 64, 127
1, 336601, Note_off_c, 4, 64, 127
1, 336603, Note_on_c, 12, 71, 127
1, 336603, Note_on_c, 4, 52, 127
1, 336710, Note_off_c, 12, 71, 127
1, 336713, Note_on_c, 10, 69, 127
1, 336820, Note_off_c, 10, 69, 127
1, 336823, Note_on_c, 7, 67, 127
1, 336921, Note_off_c, 1, 49, 127
1, 336927, Note_off_c, 4, 52, 127
1, 336930, Note_off_c, 7, 67, 127
1, 336933, Note_on_c, 6, 66, 127
1, 336933, Note_on_c, 2, 50, 127
1, 337094, Note_off_c, 6, 66, 127
1, 337096, Note_on_c, 2, 62, 127
1, 337257, Note_off_c, 2, 62, 127
1, 337261, Note_on_c, 1, 61, 127
1, 337261, Note_on_c, 6, 54, 127
1, 337422, Note_off_c, 1, 61, 127
1, 337425, Note_on_c, 2, 62, 127
1, 337585, Note_off_c, 6, 54, 127
1, 337586, Note_off_c, 2, 62, 127
1, 337590, Note_on_c, 2, 62, 127
1, 337590, Note_on_c, 10, 57, 127
1, 337775, Note_off_c, 2, 62, 127
1, 337778, Note_on_c, 6, 66, 127
1, 337914, Note_off_c, 10, 57, 127
1, 337918, Note_on_c, 0, 60, 127
1, 338242, Note_off_c, 0, 60, 127
1, 338247, Note_on_c, 12, 59, 127
1, 338321, Note_off_c, 6, 66, 127
1, 338394, Note_on_c, 7, 67, 127
1, 338481, Note_off_c, 7, 67, 127
1, 338485, Note_on_c, 10, 69, 127
1, 338531, Note_off_c, 2, 50, 127
1, 338572, Note_off_c, 10, 69, 127
1, 338576, Note_on_c, 7, 67, 127
1, 338576, Note_on_c, 2, 50, 127
1, 338737, Note_off_c, 7, 67, 127
1, 338740, Note_on_c, 6, 66, 127
1, 338893, Note_off_c, 12, 59, 127
1, 338900, Note_off_c, 2, 50, 127
1, 338901, Note_off_c, 6, 66, 127
1, 338905, Note_on_c, 6, 66, 127
1, 338905, Note_on_c, 0, 48, 127
1, 339066, Note_off_c, 6, 66, 127
1, 339069, Note_on_c, 7, 67, 127
1, 339148, Note_off_c, 7, 67, 127
1, 339151, Note_on_c, 10, 69, 127
1, 339230, Note_off_c, 10, 69, 127
1, 339233, Note_on_c, 7, 67, 127
1, 339233, Note_on_c, 10, 57, 127
1, 339394, Note_off_c, 7, 67, 127
1, 339398, Note_on_c, 6, 66, 127
1, 339551, Note_off_c, 0, 48, 127
1, 339557, Note_off_c, 10, 57, 127
1, 339559, Note_off_c, 6, 66, 127
1, 339562, Note_on_c, 5, 65, 127
1, 339562, Note_on_c, 12, 47, 127
1, 339562, Note_on_c, 8, 56, 127
1, 339697, Note_off_c, 5, 65, 127
1, 339709, Note_on_c, 12, 71, 127
1, 339793, Note_off_c, 12, 71, 127
1, 339800, Note_on_c, 1, 73, 127
1, 339884, Note_off_c, 1, 73, 127
1, 339886, Note_off_c, 8, 56, 127
1, 339890, Note_on_c, 2, 74, 127
1, 339890, Note_on_c, 5, 53, 127
1, 340051, Note_off_c, 5, 53, 127
1, 340055, Note_on_c, 4, 52, 127
1, 340208, Note_off_c, 12, 47, 127
1, 340216, Note_off_c, 4, 52, 127
1, 340220, Note_on_c, 5, 53, 127
1, 340220, Note_on_c, 10, 45, 127
1, 340377, Note_off_c, 2, 74, 127
1, 340384, Note_on_c, 1, 73, 127
1, 340544, Note_off_c, 5, 53, 127
1, 340545, Note_off_c, 1, 73, 127
1, 340548, Note_on_c, 12, 71, 127
1, 340548, Note_on_c, 2, 50, 127
1, 340709, Note_off_c, 12, 71, 127
1, 340712, Note_on_c, 10, 69, 127
1, 340866, Note_off_c, 10, 45, 127
1, 340873, Note_off_c, 10, 69, 127
1, 340877, Note_on_c, 8, 68, 127
1, 340877, Note_on_c, 12, 47, 127
1, 340984, Note_off_c, 8, 68, 127
1, 340986, Note_on_c, 6, 66, 127
1, 341093, Note_off_c, 6, 66, 127
1, 341096, Note_on_c, 4, 64, 127
1, 341194, Note_off_c, 2, 50, 127
1, 341203, Note_off_c, 4, 64, 127
1, 341205, Note_on_c, 5, 65, 127
1, 341205, Note_on_c, 2, 50, 127
1, 341523, Note_off_c, 12, 47, 127
1, 341534, Note_on_c, 8, 44, 127
1, 341638, Note_off_c, 5, 65, 127
1, 341644, Note_on_c, 4, 64, 127
1, 341751, Note_off_c, 4, 64, 127
1, 341753, Note_on_c, 2, 62, 127
1, 341851, Note_off_c, 2, 50, 127
1, 341860, Note_off_c, 2, 62, 127
1, 341863, Note_on_c, 5, 65, 127
1, 341863, Note_on_c, 12, 47, 127
1, 341970, Note_off_c, 5, 65, 127
1, 341972, Note_on_c, 4, 64, 127
1, 342079, Note_off_c, 4, 64, 127
1, 342082, Note_on_c, 2, 62, 127
1, 342180, Note_off_c, 8, 44, 127
1, 342187, Note_off_c, 12, 47, 127
1, 342189, Note_off_c, 2, 62, 127
1, 342192, Note_on_c, 1, 61, 127
1, 342192, Note_on_c, 10, 45, 127
1, 342299, Note_off_c, 1, 61, 127
1, 342301, Note_on_c, 12, 59, 127
1, 342408, Note_off_c, 12, 59, 127
1, 342411, Note_on_c, 10, 57, 127
1, 342520, Note_on_c, 7, 67, 127
1, 342520, Note_on_c, 12, 47, 127
1, 342631, Note_off_c, 10, 57, 127
1, 342844, Note_off_c, 12, 47, 127
1, 342849, Note_on_c, 1, 49, 127
1, 342953, Note_off_c, 7, 67, 127
1, 342959, Note_on_c, 5, 65, 127
1, 343066, Note_off_c, 5, 65, 127
1, 343068, Note_on_c, 4, 64, 127
1, 343173, Note_off_c, 1, 49, 127
1, 343175, Note_off_c, 4, 64, 127
1, 343177, Note_on_c, 5, 65, 127
1, 343177, Note_on_c, 2, 50, 127
1, 343284, Note_off_c, 5, 65, 127
1, 343288, Note_on_c, 4, 64, 127
1, 343395, Note_off_c, 4, 64, 127
1, 343397, Note_on_c, 2, 62, 127
1, 343496, Note_off_c, 10, 45, 127
1, 343501, Note_off_c, 2, 50, 127
1, 343504, Note_off_c, 2, 62, 127
1, 343507, Note_on_c, 4, 64, 127
1, 343507, Note_on_c, 10, 45, 127
1, 343614, Note_off_c, 4, 64, 127
1, 343616, Note_on_c, 2, 62, 127
1, 343723, Note_off_c, 2, 62, 127
1, 343725, Note_on_c, 1, 61, 127
1, 343835, Note_on_c, 11, 70, 127
1, 343835, Note_on_c, 1, 49, 127
1, 343996, Note_off_c, 1, 61, 127
1, 344159, Note_off_c, 1, 49, 127
1, 344164, Note_on_c, 2, 50, 127
1, 344268, Note_off_c, 11, 70, 127
1, 344273, Note_on_c, 10, 69, 127
1, 344380, Note_off_c, 10, 69, 127
1, 344383, Note_on_c, 7, 67, 127
1, 344488, Note_off_c, 2, 50, 127
1, 344490, Note_off_c, 7, 67, 127
1, 344492, Note_on_c, 10, 69, 127
1, 344492, Note_on_c, 5, 53, 127
1, 344599, Note_off_c, 10, 69, 127
1, 344603, Note_on_c, 7, 67, 127
1, 344710, Note_off_c, 7, 67, 127
1, 344712, Note_on_c, 5, 65, 127
1, 344811, Note_off_c, 10, 45, 127
1, 344816, Note_off_c, 5, 53, 127
1, 344819, Note_off_c, 5, 65, 127
1, 344821, Note_on_c, 7, 67, 127
1, 344821, Note_on_c, 10, 45, 127
1, 344928, Note_off_c, 7, 67, 127
1, 344931, Note_on_c, 5, 65, 127
1, 345038, Note_off_c, 5, 65, 127
1, 345040, Note_on_c, 4, 64, 127
1, 345150, Note_on_c, 2, 74, 127
1, 345150, Note_on_c, 4, 52, 127
1, 345260, Note_off_c, 4, 64, 127
1, 345474, Note_off_c, 4, 52, 127
1, 345479, Note_on_c, 7, 55, 127
1, 345583, Note_off_c, 2, 74, 127
1, 345588, Note_on_c, 1, 73, 127
1, 345695, Note_off_c, 1, 73, 127
1, 345698, Note_on_c, 12, 71, 127
1, 345803, Note_off_c, 7, 55, 127
1, 345805, Note_off_c, 12, 71, 127
1, 345807, Note_on_c, 1, 73, 127
1, 345807, Note_on_c, 10, 57, 127
1, 345914, Note_off_c, 1, 73, 127
1, 345917, Note_on_c, 12, 71, 127
1, 346024, Note_off_c, 12, 71, 127
1, 346027, Note_on_c, 10, 69, 127
1, 346096, Note_off_c, 10, 45, 127
1, 346123, Note_off_c, 10, 69, 127
1, 346131, Note_off_c, 10, 57, 127
1, 346136, Note_on_c, 7, 79, 127
1, 346136, Note_on_c, 10, 45, 127
1, 346243, Note_off_c, 7, 79, 127
1, 346246, Note_on_c, 6, 78, 127
1, 346353, Note_off_c, 6, 78, 127
1, 346355, Note_on_c, 4, 76, 127
1, 346462, Note_off_c, 4, 76, 127
1, 346464, Note_on_c, 6, 78, 127
1, 346464, Note_on_c, 0, 48, 127
1, 346571, Note_off_c, 6, 78, 127
1, 346575, Note_on_c, 4, 76, 127
1, 346646, Note_off_c, 10, 45, 127
1, 346682, Note_off_c, 4, 76, 127
1, 346684, Note_on_c, 2, 74, 127
1, 346788, Note_off_c, 0, 48, 127
1, 346791, Note_off_c, 2, 74, 127
1, 346794, Note_on_c, 10, 81, 127
1, 346794, Note_on_c, 2, 50, 127
1, 347036, Note_off_c, 10, 81, 127
1, 347040, Note_on_c, 0, 72, 127
1, 347122, Note_on_c, 6, 54, 127
1, 347170, Note_off_c, 2, 50, 127
1, 347446, Note_off_c, 6, 54, 127
1, 347447, Note_off_c, 0, 72, 127
1, 347451, Note_on_c, 7, 55, 127
1, 347533, Note_on_c, 10, 69, 127
1, 347612, Note_off_c, 10, 69, 127
1, 347616, Note_on_c, 12, 71, 127
1, 347695, Note_off_c, 12, 71, 127
1, 347697, Note_on_c, 0, 72, 127
1, 347776, Note_off_c, 0, 72, 127
1, 347779, Note_on_c, 12, 71, 127
1, 347779, Note_on_c, 2, 62, 127
1, 347940, Note_off_c, 12, 71, 127
1, 347944, Note_on_c, 7, 67, 127
1, 348103, Note_off_c, 2, 62, 127
1, 348108, Note_on_c, 4, 64, 127
1, 348258, Note_off_c, 7, 67, 127
1, 348273, Note_on_c, 7, 67, 127
1, 348352, Note_off_c, 7, 67, 127
1, 348355, Note_on_c, 10, 69, 127
1, 348428, Note_off_c, 7, 55, 127
1, 348434, Note_off_c, 10, 69, 127
1, 348437, Note_on_c, 12, 71, 127
1, 348437, Note_on_c, 8, 56, 127
1, 348516, Note_off_c, 12, 71, 127
1, 348519, Note_on_c, 1, 73, 127
1, 348598, Note_off_c, 1, 73, 127
1, 348601, Note_on_c, 2, 74, 127
1, 348761, Note_off_c, 8, 56, 127
1, 348766, Note_on_c, 10, 57, 127
1, 348832, Note_off_c, 2, 74, 127
1, 348848, Note_on_c, 12, 71, 127
1, 348927, Note_off_c, 12, 71, 127
1, 348930, Note_on_c, 1, 73, 127
1, 349009, Note_off_c, 1, 73, 127
1, 349012, Note_on_c, 2, 74, 127
1, 349085, Note_off_c, 4, 64, 127
1, 349091, Note_off_c, 2, 74, 127
1, 349094, Note_on_c, 1, 73, 127
1, 349094, Note_on_c, 4, 64, 127
1, 349255, Note_off_c, 1, 73, 127
1, 349259, Note_on_c, 10, 69, 127
1, 349418, Note_off_c, 4, 64, 127
1, 349423, Note_on_c, 6, 66, 127
1, 349540, Note_off_c, 10, 69, 127
1, 349588, Note_on_c, 10, 69, 127
1, 349667, Note_off_c, 10, 69, 127
1, 349670, Note_on_c, 12, 71, 127
1, 349743, Note_off_c, 10, 57, 127
1, 349749, Note_off_c, 12, 71, 127
1, 349751, Note_on_c, 1, 73, 127
1, 349751, Note_on_c, 11, 58, 127
1, 349830, Note_off_c, 1, 73, 127
1, 349834, Note_on_c, 2, 74, 127
1, 349913, Note_off_c, 2, 74, 127
1, 349916, Note_on_c, 4, 76, 127
1, 350075, Note_off_c, 11, 58, 127
1, 350081, Note_on_c, 12, 59, 127
1, 350147, Note_off_c, 4, 76, 127
1, 350162, Note_on_c, 1, 73, 127
1, 350241, Note_off_c, 1, 73, 127
1, 350245, Note_on_c, 2, 74, 127
1, 350324, Note_off_c, 2, 74, 127
1, 350327, Note_on_c, 4, 76, 127
1, 350400, Note_off_c, 6, 66, 127
1, 350406, Note_off_c, 4, 76, 127
1, 350409, Note_on_c, 2, 74, 127
1, 350409, Note_on_c, 6, 66, 127
1, 350570, Note_off_c, 2, 74, 127
1, 350573, Note_on_c, 12, 71, 127
1, 350733, Note_off_c, 6, 66, 127
1, 350738, Note_on_c, 7, 67, 127
1, 350861, Note_off_c, 12, 71, 127
1, 350903, Note_on_c, 12, 71, 127
1, 350982, Note_off_c, 12, 71, 127
1, 350984, Note_on_c, 1, 73, 127
1, 351058, Note_off_c, 12, 59, 127
1, 351063, Note_off_c, 1, 73, 127
1, 351066, Note_on_c, 2, 74, 127
1, 351066, Note_on_c, 12, 59, 127
1, 351145, Note_off_c, 2, 74, 127
1, 351149, Note_on_c, 4, 76, 127
1, 351228, Note_off_c, 4, 76, 127
1, 351231, Note_on_c, 6, 78, 127
1, 351390, Note_off_c, 12, 59, 127
1, 351395, Note_on_c, 1, 61, 127
1, 351465, Note_off_c, 6, 78, 127
1, 351477, Note_on_c, 2, 74, 127
1, 351556, Note_off_c, 2, 74, 127
1, 351560, Note_on_c, 4, 76, 127
1, 351639, Note_off_c, 4, 76, 127
1, 351642, Note_on_c, 6, 78, 127
1, 351715, Note_off_c, 7, 67, 127
1, 351721, Note_off_c, 6, 78, 127
1, 351724, Note_on_c, 4, 76, 127
1, 351724, Note_on_c, 7, 67, 127
1, 351885, Note_off_c, 4, 76, 127
1, 351888, Note_on_c, 1, 73, 127
1, 352048, Note_off_c, 7, 67, 127
1, 352053, Note_on_c, 10, 69, 127
1, 352183, Note_off_c, 1, 73, 127
1, 352217, Note_on_c, 1, 73, 127
1, 352296, Note_off_c, 1, 73, 127
1, 352299, Note_on_c, 2, 74, 127
1, 352372, Note_off_c, 1, 61, 127
1, 352378, Note_off_c, 2, 74, 127
1, 352381, Note_on_c, 4, 76, 127
1, 352381, Note_on_c, 1, 61, 127
1, 352460, Note_off_c, 4, 76, 127
1, 352464, Note_on_c, 6, 78, 127
1, 352543, Note_off_c, 6, 78, 127
1, 352546, Note_on_c, 7, 79, 127
1, 352705, Note_off_c, 1, 61, 127
1, 352710, Note_on_c, 2, 62, 127
1, 352792, Note_off_c, 7, 79, 127
1, 352820, Note_on_c, 6, 78, 127
1, 352927, Note_off_c, 6, 78, 127
1, 352929, Note_on_c, 4, 76, 127
1, 353030, Note_off_c, 10, 69, 127
1, 353036, Note_off_c, 4, 76, 127
1, 353038, Note_on_c, 6, 78, 127
1, 353038, Note_on_c, 10, 69, 127
1, 353145, Note_off_c, 6, 78, 127
1, 353149, Note_on_c, 4, 76, 127
1, 353256, Note_off_c, 4, 76, 127
1, 353258, Note_on_c, 2, 74, 127
1, 353356, Note_off_c, 2, 62, 127
1, 353365, Note_off_c, 2, 74, 127
1, 353368, Note_on_c, 7, 79, 127
1, 353368, Note_on_c, 0, 60, 127
1, 353475, Note_off_c, 7, 79, 127
1, 353477, Note_on_c, 5, 77, 127
1, 353584, Note_off_c, 5, 77, 127
1, 353586, Note_on_c, 4, 76, 127
1, 353684, Note_off_c, 10, 69, 127
1, 353693, Note_off_c, 4, 76, 127
1, 353696, Note_on_c, 5, 77, 127
1, 353696, Note_on_c, 10, 69, 127
1, 353803, Note_off_c, 5, 77, 127
1, 353806, Note_on_c, 4, 76, 127
1, 353913, Note_off_c, 4, 76, 127
1, 353916, Note_on_c, 2, 74, 127
1, 354014, Note_off_c, 0, 60, 127
1, 354020, Note_off_c, 10, 69, 127
1, 354023, Note_off_c, 2, 74, 127
1, 354025, Note_on_c, 5, 77, 127
1, 354025, Note_on_c, 12, 59, 127
1, 354210, Note_off_c, 5, 77, 127
1, 354213, Note_on_c, 8, 68, 127
1, 354353, Note_on_c, 2, 62, 127
1, 354513, Note_off_c, 8, 68, 127
1, 354518, Note_on_c, 10, 69, 127
1, 354671, Note_off_c, 12, 59, 127
1, 354682, Note_on_c, 10, 57, 127
1, 354755, Note_off_c, 10, 69, 127
1, 354792, Note_on_c, 2, 74, 127
1, 354899, Note_off_c, 2, 74, 127
1, 354901, Note_on_c, 4, 76, 127
1, 354999, Note_off_c, 2, 62, 127
1, 355008, Note_off_c, 4, 76, 127
1, 355012, Note_on_c, 5, 77, 127
1, 355012, Note_on_c, 2, 62, 127
1, 355119, Note_off_c, 5, 77, 127
1, 355121, Note_on_c, 4, 76, 127
1, 355228, Note_off_c, 4, 76, 127
1, 355230, Note_on_c, 2, 74, 127
1, 355328, Note_off_c, 10, 57, 127
1, 355336, Note_off_c, 2, 62, 127
1, 355337, Note_off_c, 2, 74, 127
1, 355340, Note_on_c, 11, 82, 127
1, 355340, Note_on_c, 7, 55, 127
1, 355521, Note_off_c, 11, 82, 127
1, 355525, Note_on_c, 1, 73, 127
1, 355668, Note_on_c, 4, 64, 127
1, 355779, Note_off_c, 1, 73, 127
1, 355833, Note_on_c, 2, 74, 127
1, 355986, Note_off_c, 7, 55, 127
1, 355992, Note_off_c, 4, 64, 127
1, 355997, Note_on_c, 10, 57, 127
1, 355997, Note_on_c, 5, 53, 127
1, 356073, Note_off_c, 2, 74, 127
1, 356107, Note_on_c, 7, 67, 127
1, 356214, Note_off_c, 7, 67, 127
1, 356216, Note_on_c, 10, 69, 127
1, 356321, Note_off_c, 10, 57, 127
1, 356323, Note_off_c, 10, 69, 127
1, 356325, Note_on_c, 11, 70, 127
1, 356325, Note_on_c, 2, 62, 127
1, 356432, Note_off_c, 11, 70, 127
1, 356436, Note_on_c, 10, 69, 127
1, 356543, Note_off_c, 10, 69, 127
1, 356545, Note_on_c, 7, 67, 127
1, 356643, Note_off_c, 5, 53, 127
1, 356649, Note_off_c, 2, 62, 127
1, 356652, Note_off_c, 7, 67, 127
1, 356655, Note_on_c, 1, 73, 127
1, 356655, Note_on_c, 4, 52, 127
1, 356762, Note_off_c, 1, 73, 127
1, 356764, Note_on_c, 7, 67, 127
1, 356871, Note_off_c, 7, 67, 127
1, 356873, Note_on_c, 10, 69, 127
1, 356980, Note_off_c, 10, 69, 127
1, 356984, Note_on_c, 11, 70, 127
1, 356984, Note_on_c, 7, 55, 127
1, 357091, Note_off_c, 11, 70, 127
1, 357093, Note_on_c, 10, 69, 127
1, 357200, Note_off_c, 10, 69, 127
1, 357203, Note_on_c, 7, 67, 127
1, 357301, Note_off_c, 4, 52, 127
1, 357310, Note_off_c, 7, 67, 127
1, 357312, Note_on_c, 2, 74, 127
1, 357312, Note_on_c, 2, 50, 127
1, 357419, Note_off_c, 2, 74, 127
1, 357421, Note_on_c, 7, 67, 127
1, 357528, Note_off_c, 7, 67, 127
1, 357531, Note_on_c, 10, 69, 127
1, 357630, Note_off_c, 7, 55, 127
1, 357638, Note_off_c, 10, 69, 127
1, 357640, Note_on_c, 11, 70, 127
1, 357640, Note_on_c, 7, 55, 127
1, 357747, Note_off_c, 11, 70, 127
1, 357751, Note_on_c, 10, 69, 127
1, 357858, Note_off_c, 10, 69, 127
1, 357860, Note_on_c, 7, 67, 127
1, 357958, Note_off_c, 2, 50, 127
1, 357964, Note_off_c, 7, 55, 127
1, 357967, Note_off_c, 7, 67, 127
1, 357969, Note_on_c, 4, 76, 127
1, 357969, Note_on_c, 1, 49, 127
1, 358056, Note_off_c, 4, 76, 127
1, 358060, Note_on_c, 11, 70, 127
1, 358147, Note_off_c, 11, 70, 127
1, 358151, Note_on_c, 10, 69, 127
1, 358238, Note_off_c, 10, 69, 127
1, 358242, Note_on_c, 7, 67, 127
1, 358299, Note_on_c, 4, 52, 127
1, 358329, Note_off_c, 7, 67, 127
1, 358333, Note_on_c, 10, 69, 127
1, 358477, Note_off_c, 10, 69, 127
1, 358479, Note_on_c, 4, 64, 127
1, 358615, Note_off_c, 1, 49, 127
1, 358623, Note_off_c, 4, 64, 127
1, 358623, Note_off_c, 4, 52, 127
1, 358627, Note_on_c, 5, 65, 127
1, 358627, Note_on_c, 2, 50, 127
1, 358788, Note_off_c, 5, 65, 127
1, 358791, Note_on_c, 1, 61, 127
1, 358952, Note_off_c, 1, 61, 127
1, 358956, Note_on_c, 2, 62, 127
1, 358956, Note_on_c, 5, 53, 127
1, 359117, Note_off_c, 2, 62, 127
1, 359120, Note_on_c, 8, 56, 127
1, 359273, Note_off_c, 2, 50, 127
1, 359281, Note_off_c, 8, 56, 127
1, 359284, Note_on_c, 10, 45, 127
1, 359366, Note_on_c, 10, 57, 127
1, 359445, Note_off_c, 10, 57, 127
1, 359449, Note_on_c, 12, 59, 127
1, 359528, Note_off_c, 12, 59, 127
1, 359531, Note_on_c, 1, 61, 127
1, 359602, Note_off_c, 5, 53, 127
1, 359610, Note_off_c, 1, 61, 127
1, 359613, Note_on_c, 2, 62, 127
1, 359613, Note_on_c, 4, 52, 127
1, 359692, Note_off_c, 2, 62, 127
1, 359695, Note_on_c, 4, 64, 127
1, 359774, Note_off_c, 4, 64, 127
1, 359774, Note_off_c, 4, 52, 127
1, 359777, Note_on_c, 6, 66, 127
1, 359777, Note_on_c, 2, 50, 127
1, 359856, Note_off_c, 6, 66, 127
1, 359860, Note_on_c, 7, 67, 127
1, 359938, Note_off_c, 2, 50, 127
1, 359942, Note_on_c, 1, 49, 127
1, 360034, Note_off_c, 7, 67, 127
1, 360051, Note_on_c, 6, 66, 127
1, 360158, Note_off_c, 6, 66, 127
1, 360160, Note_on_c, 4, 64, 127
1, 360261, Note_off_c, 10, 45, 127
1, 360267, Note_off_c, 4, 64, 127
1, 360271, Note_on_c, 6, 66, 127
1, 360271, Note_on_c, 7, 43, 127
1, 360378, Note_off_c, 6, 66, 127
1, 360380, Note_on_c, 4, 64, 127
1, 360487, Note_off_c, 4, 64, 127
1, 360490, Note_on_c, 2, 62, 127
1, 360588, Note_off_c, 1, 49, 127
1, 360595, Note_off_c, 7, 43, 127
1, 360599, Note_on_c, 6, 42, 127
1, 360651, Note_off_c, 2, 62, 127
1, 360681, Note_on_c, 6, 66, 127
1, 360760, Note_off_c, 6, 66, 127
1, 360764, Note_on_c, 4, 64, 127
1, 360843, Note_off_c, 4, 64, 127
1, 360845, Note_on_c, 2, 62, 127
1, 360924, Note_off_c, 2, 62, 127
1, 360928, Note_on_c, 0, 72, 127
1, 360928, Note_on_c, 2, 50, 127
1, 361245, Note_off_c, 6, 42, 127
1, 361256, Note_on_c, 7, 43, 127
1, 361406, Note_on_c, 12, 71, 127
1, 361408, Note_off_c, 0, 72, 127
1, 361488, Note_off_c, 12, 71, 127
1, 361496, Note_on_c, 10, 69, 127
1, 361574, Note_off_c, 2, 50, 127
1, 361578, Note_off_c, 10, 69, 127
1, 361580, Note_off_c, 7, 43, 127
1, 361586, Note_on_c, 7, 55, 127
1, 361586, Note_on_c, 4, 52, 127
1, 361587, Note_on_c, 12, 71, 127
1, 361727, Note_off_c, 12, 71, 127
1, 361765, Note_on_c, 4, 76, 127
1, 361910, Note_off_c, 4, 52, 127
1, 361914, Note_on_c, 1, 49, 127
1, 361968, Note_off_c, 4, 76, 127
1, 361996, Note_on_c, 2, 74, 127
1, 362075, Note_off_c, 2, 74, 127
1, 362078, Note_on_c, 1, 73, 127
1, 362157, Note_off_c, 1, 73, 127
1, 362160, Note_on_c, 12, 71, 127
1, 362232, Note_off_c, 7, 55, 127
1, 362238, Note_off_c, 1, 49, 127
1, 362239, Note_off_c, 12, 71, 127
1, 362243, Note_on_c, 10, 69, 127
1, 362243, Note_on_c, 6, 54, 127
1, 362243, Note_on_c, 2, 50, 127
1, 362339, Note_off_c, 10, 69, 127
1, 362342, Note_on_c, 2, 74, 127
1, 362438, Note_off_c, 2, 74, 127
1, 362442, Note_on_c, 8, 68, 127
1, 362567, Note_off_c, 2, 50, 127
1, 362571, Note_on_c, 10, 45, 127
1, 362678, Note_off_c, 8, 68, 127
1, 362681, Note_on_c, 10, 69, 127
1, 362788, Note_off_c, 10, 69, 127
1, 362790, Note_on_c, 2, 62, 127
1, 362889, Note_off_c, 6, 54, 127
1, 362897, Note_off_c, 2, 62, 127
1, 362900, Note_on_c, 7, 67, 127
1, 362900, Note_on_c, 1, 61, 127
1, 362900, Note_on_c, 4, 52, 127
1, 363007, Note_off_c, 7, 67, 127
1, 363010, Note_on_c, 6, 66, 127
1, 363117, Note_off_c, 6, 66, 127
1, 363119, Note_on_c, 4, 64, 127
1, 363217, Note_off_c, 10, 45, 127
1, 363223, Note_off_c, 1, 61, 127
1, 363224, Note_off_c, 4, 52, 127
1, 363226, Note_off_c, 4, 64, 127
1, 363229, Note_on_c, 2, 62, 127
1, 363229, Note_on_c, 2, 50, 127
1, 363229, Note_on_c, 6, 54, 127
1, 363553, Note_off_c, 6, 54, 127
1, 363553, Note_off_c, 2, 50, 127
1, 363558, Note_on_c, 2, 38, 127
1, 363640, Note_on_c, 12, 59, 127
1, 363719, Note_off_c, 12, 59, 127
1, 363721, Note_on_c, 10, 57, 127
1, 363800, Note_off_c, 10, 57, 127
1, 363804, Note_on_c, 7, 55, 127
1, 363883, Note_off_c, 7, 55, 127
1, 363886, Note_on_c, 10, 57, 127
1, 363886, Note_on_c, 6, 42, 127
1, 364088, Note_off_c, 10, 57, 127
1, 364092, Note_on_c, 1, 61, 127
1, 364206, Note_off_c, 2, 62, 127
1, 364210, Note_off_c, 6, 42, 127
1, 364215, Note_on_c, 10, 45, 127
1, 364416, Note_off_c, 1, 61, 127
1, 364420, Note_on_c, 2, 62, 127
1, 364539, Note_off_c, 10, 45, 127
1, 364543, Note_on_c, 7, 55, 127
1, 364543, Note_on_c, 2, 50, 127
1, 365076, Note_off_c, 7, 55, 127
1, 365138, Note_on_c, 6, 54, 127
1, 366291, Note_off_c, 2, 62, 127
1, 366362, Note_off_c, 6, 54, 127
1, 366483, Note_on_c, 6, 66, 127
1, 366620, Note_off_c, 2, 38, 127
1, 366732, Note_off_c, 6, 66, 127
1, 366788, Note_on_c, 2, 38, 127
1, 366788, Note_on_c, 6, 66, 127
1, 366788, Note_on_c, 2, 62, 127
1, 366788, Note_on_c, 10, 57, 127
1, 366924, Note_off_c, 2, 50, 127
1, 367294, Note_on_c, 2, 50, 127
1, 367540, Note_off_c, 10, 57, 127
1, 367540, Note_off_c, 2, 62, 127
1, 367540, Note_off_c, 6, 66, 127
1, 367547, Note_on_c, 2, 62, 127
1, 367670, Note_off_c, 2, 62, 127
1, 367674, Note_on_c, 6, 66, 127
1, 367791, Note_off_c, 2, 38, 127
1, 367794, Note_off_c, 2, 50, 127
1, 367797, Note_off_c, 6, 66, 127
1, 367800, Note_on_c, 4, 52, 127
1, 367800, Note_on_c, 7, 67, 127
1, 368049, Note_off_c, 7, 67, 127
1, 368054, Note_on_c, 2, 62, 127
1, 368177, Note_off_c, 2, 62, 127
1, 368180, Note_on_c, 7, 67, 127
1, 368300, Note_off_c, 4, 52, 127
1, 368303, Note_off_c, 7, 67, 127
1, 368307, Note_on_c, 6, 54, 127
1, 368307, Note_on_c, 10, 69, 127
1, 368807, Note_off_c, 10, 69, 127
1, 368807, Note_off_c, 6, 54, 127
1, 368813, Note_on_c, 7, 55, 127
1, 368813, Note_on_c, 12, 71, 127
1, 368936, Note_off_c, 12, 71, 127
1, 368940, Note_on_c, 10, 69, 127
1, 369063, Note_off_c, 10, 69, 127
1, 369067, Note_on_c, 12, 71, 127
1, 369313, Note_off_c, 7, 55, 127
1, 369316, Note_off_c, 12, 71, 127
1, 369320, Note_on_c, 4, 52, 127
1, 369320, Note_on_c, 1, 73, 127
1, 369820, Note_off_c, 1, 73, 127
1, 369820, Note_off_c, 4, 52, 127
1, 369826, Note_on_c, 2, 50, 127
1, 369826, Note_on_c, 6, 54, 127
1, 369826, Note_on_c, 10, 69, 127
1, 369826, Note_on_c, 2, 74, 127
1, 369826, Note_on_c, 2, 62, 127
1, 370578, Note_off_c, 6, 54, 127
1, 370578, Note_off_c, 2, 50, 127
1, 370587, Note_on_c, 2, 50, 127
1, 370710, Note_off_c, 2, 50, 127
1, 370713, Note_on_c, 6, 54, 127
1, 370829, Note_off_c, 2, 62, 127
1, 370829, Note_off_c, 2, 74, 127
1, 370829, Note_off_c, 10, 69, 127
1, 370836, Note_off_c, 6, 54, 127
1, 370840, Note_on_c, 7, 55, 127
1, 370840, Note_on_c, 4, 76, 127
1, 370840, Note_on_c, 12, 71, 127
1, 371089, Note_off_c, 7, 55, 127
1, 371093, Note_on_c, 2, 50, 127
1, 371216, Note_off_c, 2, 50, 127
1, 371220, Note_on_c, 7, 55, 127
1, 371340, Note_off_c, 12, 71, 127
1, 371340, Note_off_c, 4, 76, 127
1, 371343, Note_off_c, 7, 55, 127
1, 371347, Note_on_c, 10, 57, 127
1, 371347, Note_on_c, 6, 78, 127
1, 371347, Note_on_c, 1, 73, 127
1, 371847, Note_off_c, 1, 73, 127
1, 371847, Note_off_c, 6, 78, 127
1, 371847, Note_off_c, 10, 57, 127
1, 371853, Note_on_c, 12, 59, 127
1, 371853, Note_on_c, 2, 74, 127
1, 371853, Note_on_c, 6, 78, 127
1, 372102, Note_off_c, 6, 78, 127
1, 372107, Note_on_c, 7, 79, 127
1, 372229, Note_off_c, 2, 74, 127
1, 372353, Note_off_c, 12, 59, 127
1, 372356, Note_off_c, 7, 79, 127
1, 372360, Note_on_c, 1, 61, 127
1, 372360, Note_on_c, 6, 78, 127
1, 372360, Note_on_c, 10, 69, 127
1, 372609, Note_off_c, 6, 78, 127
1, 372612, Note_on_c, 4, 76, 127
1, 372860, Note_off_c, 1, 61, 127
1, 372861, Note_off_c, 4, 76, 127
1, 372867, Note_on_c, 2, 62, 127
1, 372867, Note_on_c, 6, 78, 127
1, 373112, Note_off_c, 10, 69, 127
1, 373116, Note_off_c, 6, 78, 127
1, 373120, Note_on_c, 2, 74, 127
1, 373243, Note_off_c, 2, 74, 127
1, 373246, Note_on_c, 6, 78, 127
1, 373367, Note_off_c, 2, 62, 127
1, 373369, Note_off_c, 6, 78, 127
1, 373372, Note_on_c, 12, 59, 127
1, 373372, Note_on_c, 2, 62, 127
1, 373372, Note_on_c, 7, 79, 127
1, 373621, Note_off_c, 7, 79, 127
1, 373626, Note_on_c, 2, 74, 127
1, 373749, Note_off_c, 2, 74, 127
1, 373753, Note_on_c, 7, 79, 127
1, 373872, Note_off_c, 12, 59, 127
1, 373876, Note_off_c, 7, 79, 127
1, 373880, Note_on_c, 6, 54, 127
1, 373880, Note_on_c, 10, 81, 127
1, 374245, Note_off_c, 10, 81, 127
1, 374380, Note_off_c, 6, 54, 127
1, 374387, Note_on_c, 7, 55, 127
1, 374640, Note_on_c, 12, 71, 127
1, 374878, Note_off_c, 2, 62, 127
1, 374889, Note_off_c, 12, 71, 127
1, 374893, Note_on_c, 12, 59, 127
1, 374893, Note_on_c, 4, 76, 127
1, 375142, Note_off_c, 4, 76, 127
1, 375146, Note_on_c, 6, 78, 127
1, 375269, Note_off_c, 6, 78, 127
1, 375273, Note_on_c, 7, 79, 127
1, 375390, Note_off_c, 7, 55, 127
1, 375396, Note_off_c, 7, 79, 127
1, 375400, Note_on_c, 8, 56, 127
1, 375400, Note_on_c, 6, 78, 127
1, 375649, Note_off_c, 6, 78, 127
1, 375653, Note_on_c, 4, 76, 127
1, 375896, Note_off_c, 12, 59, 127
1, 375900, Note_off_c, 8, 56, 127
1, 375902, Note_off_c, 4, 76, 127
1, 375906, Note_on_c, 10, 57, 127
1, 375906, Note_on_c, 2, 74, 127
1, 376029, Note_off_c, 2, 74, 127
1, 376033, Note_on_c, 1, 73, 127
1, 376093, Note_off_c, 1, 73, 127
1, 376096, Note_on_c, 2, 74, 127
1, 376156, Note_off_c, 2, 74, 127
1, 376160, Note_on_c, 1, 73, 127
1, 376220, Note_off_c, 1, 73, 127
1, 376223, Note_on_c, 2, 74, 127
1, 376283, Note_off_c, 2, 74, 127
1, 376286, Note_on_c, 1, 73, 127
1, 376346, Note_off_c, 1, 73, 127
1, 376350, Note_on_c, 2, 74, 127
1, 376410, Note_off_c, 2, 74, 127
1, 376412, Note_on_c, 10, 45, 127
1, 376412, Note_on_c, 1, 73, 127
1, 376661, Note_off_c, 1, 73, 127
1, 376666, Note_on_c, 10, 69, 127
1, 376789, Note_off_c, 10, 69, 127
1, 376792, Note_on_c, 1, 73, 127
1, 376912, Note_off_c, 10, 45, 127
1, 376915, Note_off_c, 1, 73, 127
1, 376920, Note_on_c, 12, 47, 127
1, 376920, Note_on_c, 2, 74, 127
1, 377169, Note_off_c, 2, 74, 127
1, 377172, Note_on_c, 10, 69, 127
1, 377295, Note_off_c, 10, 69, 127
1, 377300, Note_on_c, 2, 74, 127
1, 377420, Note_off_c, 12, 47, 127
1, 377423, Note_off_c, 2, 74, 127
1, 377425, Note_on_c, 1, 49, 127
1, 377425, Note_on_c, 4, 76, 127
1, 377910, Note_off_c, 10, 57, 127
1, 377925, Note_off_c, 1, 49, 127
1, 377933, Note_on_c, 2, 50, 127
1, 377933, Note_on_c, 10, 69, 127
1, 378182, Note_off_c, 2, 50, 127
1, 378187, Note_on_c, 1, 49, 127
1, 378433, Note_off_c, 10, 69, 127
1, 378436, Note_off_c, 1, 49, 127
1, 378440, Note_on_c, 12, 47, 127
1, 378440, Note_on_c, 7, 67, 127
1, 378689, Note_off_c, 12, 47, 127
1, 378692, Note_on_c, 10, 45, 127
1, 378917, Note_off_c, 4, 76, 127
1, 378941, Note_off_c, 10, 45, 127
1, 378946, Note_on_c, 2, 50, 127
1, 379192, Note_off_c, 7, 67, 127
1, 379200, Note_on_c, 6, 66, 127
1, 379323, Note_off_c, 6, 66, 127
1, 379326, Note_on_c, 4, 64, 127
1, 379449, Note_off_c, 4, 64, 127
1, 379452, Note_on_c, 2, 62, 127
1, 379452, Note_on_c, 6, 66, 127
1, 379701, Note_off_c, 6, 66, 127
1, 379701, Note_off_c, 2, 62, 127
1, 379706, Note_on_c, 1, 61, 127
1, 379706, Note_on_c, 11, 70, 127
1, 379955, Note_off_c, 11, 70, 127
1, 379955, Note_off_c, 1, 61, 127
1, 379959, Note_on_c, 2, 62, 127
1, 379959, Note_on_c, 12, 71, 127
1, 380061, Note_off_c, 12, 71, 127
1, 380061, Note_on_c, 11, 70, 127
1, 380151, Note_off_c, 11, 70, 127
1, 380161, Note_on_c, 12, 71, 127
1, 380256, Note_off_c, 2, 50, 127
1, 380459, Note_off_c, 2, 62, 127
1, 380466, Note_on_c, 12, 59, 127
1, 380466, Note_on_c, 7, 55, 127
1, 380719, Note_on_c, 1, 73, 127
1, 380745, Note_off_c, 12, 71, 127
1, 380966, Note_off_c, 7, 55, 127
1, 380968, Note_off_c, 1, 73, 127
1, 380972, Note_on_c, 4, 52, 127
1, 380972, Note_on_c, 2, 74, 127
1, 381221, Note_off_c, 2, 74, 127
1, 381225, Note_on_c, 1, 73, 127
1, 381469, Note_off_c, 12, 59, 127
1, 381472, Note_off_c, 4, 52, 127
1, 381474, Note_off_c, 1, 73, 127
1, 381479, Note_on_c, 6, 54, 127
1, 381479, Note_on_c, 11, 58, 127
1, 381479, Note_on_c, 4, 76, 127
1, 381979, Note_off_c, 4, 76, 127
1, 381979, Note_off_c, 11, 58, 127
1, 381979, Note_off_c, 6, 54, 127
1, 381986, Note_on_c, 12, 47, 127
1, 381986, Note_on_c, 4, 76, 127
1, 382234, Note_off_c, 4, 76, 127
1, 382235, Note_off_c, 12, 47, 127
1, 382239, Note_on_c, 6, 54, 127
1, 382239, Note_on_c, 2, 74, 127
1, 382488, Note_off_c, 6, 54, 127
1, 382492, Note_on_c, 12, 59, 127
1, 382604, Note_off_c, 2, 74, 127
1, 382741, Note_off_c, 12, 59, 127
1, 382745, Note_on_c, 2, 62, 127
1, 382745, Note_on_c, 12, 71, 127
1, 382868, Note_off_c, 12, 71, 127
1, 382872, Note_on_c, 2, 74, 127
1, 382994, Note_off_c, 2, 62, 127
1, 382995, Note_off_c, 2, 74, 127
1, 383000, Note_on_c, 1, 61, 127
1, 383000, Note_on_c, 4, 76, 127
1, 383249, Note_off_c, 4, 76, 127
1, 383249, Note_off_c, 1, 61, 127
1, 383252, Note_on_c, 4, 64, 127
1, 383252, Note_on_c, 1, 73, 127
1, 383375, Note_off_c, 1, 73, 127
1, 383379, Note_on_c, 4, 76, 127
1, 383501, Note_off_c, 4, 64, 127
1, 383502, Note_off_c, 4, 76, 127
1, 383505, Note_on_c, 2, 62, 127
1, 383505, Note_on_c, 6, 78, 127
1, 383754, Note_off_c, 2, 62, 127
1, 383759, Note_on_c, 6, 66, 127
1, 384005, Note_off_c, 6, 78, 127
1, 384008, Note_off_c, 6, 66, 127
1, 384011, Note_on_c, 4, 64, 127
1, 384011, Note_on_c, 8, 80, 127
1, 384092, Note_off_c, 8, 80, 127
1, 384097, Note_on_c, 6, 78, 127
1, 384178, Note_off_c, 6, 78, 127
1, 384180, Note_on_c, 8, 80, 127
1, 384260, Note_off_c, 4, 64, 127
1, 384265, Note_on_c, 2, 62, 127
1, 384514, Note_off_c, 2, 62, 127
1, 384519, Note_on_c, 1, 61, 127
1, 384764, Note_off_c, 8, 80, 127
1, 384768, Note_off_c, 1, 61, 127
1, 384771, Note_on_c, 12, 59, 127
1, 384771, Note_on_c, 10, 81, 127
1, 385020, Note_off_c, 10, 81, 127
1, 385020, Note_off_c, 12, 59, 127
1, 385025, Note_on_c, 4, 64, 127
1, 385025, Note_on_c, 10, 81, 127
1, 385148, Note_off_c, 10, 81, 127
1, 385152, Note_on_c, 8, 80, 127
1, 385216, Note_on_c, 10, 81, 127
1, 385218, Note_off_c, 8, 80, 127
1, 385274, Note_off_c, 4, 64, 127
1, 385279, Note_on_c, 12, 59, 127
1, 385279, Note_on_c, 8, 80, 127
1, 385282, Note_off_c, 10, 81, 127
1, 385341, Note_on_c, 10, 81, 127
1, 385345, Note_off_c, 8, 80, 127
1, 385406, Note_on_c, 8, 80, 127
1, 385407, Note_off_c, 10, 81, 127
1, 385469, Note_on_c, 10, 81, 127
1, 385472, Note_off_c, 8, 80, 127
1, 385528, Note_off_c, 12, 59, 127
1, 385532, Note_on_c, 4, 52, 127
1, 385532, Note_on_c, 8, 80, 127
1, 385535, Note_off_c, 10, 81, 127
1, 385781, Note_off_c, 8, 80, 127
1, 385781, Note_off_c, 4, 52, 127
1, 385786, Note_on_c, 2, 50, 127
1, 385786, Note_on_c, 4, 76, 127
1, 385909, Note_off_c, 4, 76, 127
1, 385911, Note_on_c, 8, 80, 127
1, 386034, Note_off_c, 8, 80, 127
1, 386035, Note_off_c, 2, 50, 127
1, 386039, Note_on_c, 1, 49, 127
1, 386039, Note_on_c, 10, 81, 127
1, 386288, Note_off_c, 10, 81, 127
1, 386288, Note_off_c, 1, 49, 127
1, 386291, Note_on_c, 12, 47, 127
1, 386291, Note_on_c, 4, 76, 127
1, 386414, Note_off_c, 4, 76, 127
1, 386419, Note_on_c, 10, 81, 127
1, 386540, Note_off_c, 12, 47, 127
1, 386542, Note_off_c, 10, 81, 127
1, 386545, Note_on_c, 10, 45, 127
1, 386545, Note_on_c, 12, 83, 127
1, 386794, Note_off_c, 10, 45, 127
1, 386799, Note_on_c, 8, 44, 127
1, 387045, Note_off_c, 12, 83, 127
1, 387048, Note_off_c, 8, 44, 127
1, 387052, Note_on_c, 6, 42, 127
1, 387052, Note_on_c, 10, 81, 127
1, 387301, Note_off_c, 10, 81, 127
1, 387301, Note_off_c, 6, 42, 127
1, 387305, Note_on_c, 4, 40, 127
1, 387305, Note_on_c, 8, 80, 127
1, 387554, Note_off_c, 8, 80, 127
1, 387554, Note_off_c, 4, 40, 127
1, 387558, Note_on_c, 6, 42, 127
1, 387558, Note_on_c, 6, 78, 127
1, 387807, Note_off_c, 6, 78, 127
1, 387807, Note_off_c, 6, 42, 127
1, 387811, Note_on_c, 8, 44, 127
1, 387811, Note_on_c, 4, 76, 127
1, 388060, Note_off_c, 4, 76, 127
1, 388060, Note_off_c, 8, 44, 127
1, 388065, Note_on_c, 10, 45, 127
1, 388065, Note_on_c, 2, 74, 127
1, 388313, Note_off_c, 2, 74, 127
1, 388314, Note_off_c, 10, 45, 127
1, 388318, Note_on_c, 4, 52, 127
1, 388318, Note_on_c, 1, 73, 127
1, 388567, Note_off_c, 4, 52, 127
1, 388571, Note_on_c, 10, 57, 127
1, 388694, Note_off_c, 1, 73, 127
1, 388820, Note_off_c, 10, 57, 127
1, 388825, Note_on_c, 1, 61, 127
1, 388825, Note_on_c, 10, 69, 127
1, 388948, Note_off_c, 10, 69, 127
1, 388952, Note_on_c, 1, 73, 127
1, 389074, Note_off_c, 1, 61, 127
1, 389075, Note_off_c, 1, 73, 127
1, 389079, Note_on_c, 12, 59, 127
1, 389079, Note_on_c, 2, 74, 127
1, 389328, Note_off_c, 2, 74, 127
1, 389328, Note_off_c, 12, 59, 127
1, 389332, Note_on_c, 2, 62, 127
1, 389332, Note_on_c, 10, 69, 127
1, 389455, Note_off_c, 10, 69, 127
1, 389459, Note_on_c, 2, 74, 127
1, 389581, Note_off_c, 2, 62, 127
1, 389582, Note_off_c, 2, 74, 127
1, 389585, Note_on_c, 1, 61, 127
1, 389585, Note_on_c, 4, 76, 127
1, 389834, Note_off_c, 1, 61, 127
1, 389839, Note_on_c, 4, 64, 127
1, 390085, Note_off_c, 4, 76, 127
1, 390088, Note_off_c, 4, 64, 127
1, 390091, Note_on_c, 2, 62, 127
1, 390091, Note_on_c, 6, 78, 127
1, 390172, Note_off_c, 6, 78, 127
1, 390176, Note_on_c, 4, 76, 127
1, 390257, Note_off_c, 4, 76, 127
1, 390260, Note_on_c, 6, 78, 127
1, 390340, Note_off_c, 2, 62, 127
1, 390344, Note_on_c, 1, 61, 127
1, 390593, Note_off_c, 1, 61, 127
1, 390599, Note_on_c, 12, 59, 127
1, 390844, Note_off_c, 6, 78, 127
1, 390848, Note_off_c, 12, 59, 127
1, 390851, Note_on_c, 10, 57, 127
1, 390851, Note_on_c, 7, 79, 127
1, 391100, Note_off_c, 7, 79, 127
1, 391100, Note_off_c, 10, 57, 127
1, 391104, Note_on_c, 2, 62, 127
1, 391104, Note_on_c, 6, 78, 127
1, 391610, Note_on_c, 2, 50, 127
1, 391865, Note_on_c, 12, 71, 127
1, 392107, Note_off_c, 2, 62, 127
1, 392110, Note_off_c, 2, 50, 127
1, 392114, Note_off_c, 12, 71, 127
1, 392118, Note_on_c, 2, 62, 127
1, 392118, Note_on_c, 6, 66, 127
1, 392118, Note_on_c, 1, 73, 127
1, 392193, Note_off_c, 1, 73, 127
1, 392197, Note_on_c, 12, 71, 127
1, 392272, Note_off_c, 12, 71, 127
1, 392277, Note_on_c, 10, 69, 127
1, 392367, Note_off_c, 10, 69, 127
1, 392370, Note_on_c, 12, 71, 127
1, 392610, Note_off_c, 6, 78, 127
1, 392618, Note_off_c, 6, 66, 127
1, 392619, Note_off_c, 12, 71, 127
1, 392625, Note_on_c, 8, 68, 127
1, 392625, Note_on_c, 4, 76, 127
1, 393121, Note_off_c, 2, 62, 127
1, 393125, Note_off_c, 8, 68, 127
1, 393131, Note_on_c, 1, 61, 127
1, 393131, Note_on_c, 10, 69, 127
1, 393380, Note_off_c, 10, 69, 127
1, 393385, Note_on_c, 12, 71, 127
1, 393634, Note_off_c, 12, 71, 127
1, 393638, Note_on_c, 4, 64, 127
1, 393638, Note_on_c, 1, 73, 127
1, 393887, Note_off_c, 1, 73, 127
1, 393891, Note_on_c, 10, 69, 127
1, 394131, Note_off_c, 4, 76, 127
1, 394135, Note_off_c, 4, 64, 127
1, 394140, Note_off_c, 10, 69, 127
1, 394144, Note_on_c, 2, 74, 127
1, 394144, Note_on_c, 6, 66, 127
1, 394388, Note_off_c, 1, 61, 127
1, 394393, Note_off_c, 6, 66, 127
1, 394398, Note_on_c, 1, 61, 127
1, 394398, Note_on_c, 6, 66, 127
1, 394647, Note_off_c, 6, 66, 127
1, 394647, Note_off_c, 1, 61, 127
1, 394651, Note_on_c, 12, 59, 127
1, 394651, Note_on_c, 8, 68, 127
1, 394726, Note_off_c, 8, 68, 127
1, 394730, Note_on_c, 6, 66, 127
1, 394805, Note_off_c, 6, 66, 127
1, 394810, Note_on_c, 4, 64, 127
1, 394900, Note_off_c, 4, 64, 127
1, 394900, Note_off_c, 12, 59, 127
1, 394904, Note_on_c, 10, 57, 127
1, 394904, Note_on_c, 6, 66, 127
1, 395153, Note_off_c, 6, 66, 127
1, 395153, Note_off_c, 10, 57, 127
1, 395157, Note_on_c, 8, 56, 127
1, 395157, Note_on_c, 12, 71, 127
1, 395406, Note_off_c, 8, 56, 127
1, 395410, Note_on_c, 10, 57, 127
1, 395657, Note_off_c, 12, 71, 127
1, 395659, Note_off_c, 10, 57, 127
1, 395664, Note_on_c, 8, 56, 127
1, 395664, Note_on_c, 4, 64, 127
1, 395913, Note_off_c, 4, 64, 127
1, 395918, Note_on_c, 6, 66, 127
1, 396164, Note_off_c, 8, 56, 127
1, 396167, Note_off_c, 6, 66, 127
1, 396170, Note_on_c, 4, 52, 127
1, 396170, Note_on_c, 8, 68, 127
1, 396419, Note_off_c, 8, 68, 127
1, 396424, Note_on_c, 4, 64, 127
1, 396542, Note_off_c, 2, 74, 127
1, 396670, Note_off_c, 4, 52, 127
1, 396673, Note_off_c, 4, 64, 127
1, 396678, Note_on_c, 6, 54, 127
1, 396678, Note_on_c, 1, 73, 127
1, 396678, Note_on_c, 10, 69, 127
1, 396926, Note_off_c, 10, 69, 127
1, 396931, Note_on_c, 10, 57, 127
1, 397175, Note_off_c, 6, 54, 127
1, 397180, Note_off_c, 10, 57, 127
1, 397184, Note_on_c, 2, 50, 127
1, 397184, Note_on_c, 12, 59, 127
1, 397184, Note_on_c, 6, 66, 127
1, 397307, Note_off_c, 12, 59, 127
1, 397310, Note_on_c, 10, 57, 127
1, 397433, Note_off_c, 10, 57, 127
1, 397438, Note_on_c, 8, 56, 127
1, 397561, Note_off_c, 8, 56, 127
1, 397564, Note_on_c, 10, 57, 127
1, 397681, Note_off_c, 1, 73, 127
1, 397684, Note_off_c, 6, 66, 127
1, 397687, Note_off_c, 10, 57, 127
1, 397690, Note_on_c, 2, 62, 127
1, 397690, Note_on_c, 12, 71, 127
1, 397939, Note_off_c, 12, 71, 127
1, 397944, Note_on_c, 10, 69, 127
1, 398067, Note_off_c, 10, 69, 127
1, 398070, Note_on_c, 8, 68, 127
1, 398190, Note_off_c, 2, 62, 127
1, 398193, Note_off_c, 8, 68, 127
1, 398198, Note_on_c, 1, 61, 127
1, 398198, Note_on_c, 10, 69, 127
1, 398447, Note_off_c, 10, 69, 127
1, 398450, Note_on_c, 12, 71, 127
1, 398690, Note_off_c, 2, 50, 127
1, 398698, Note_off_c, 1, 61, 127
1, 398699, Note_off_c, 12, 71, 127
1, 398704, Note_on_c, 2, 50, 127
1, 398704, Note_on_c, 12, 59, 127
1, 398704, Note_on_c, 8, 68, 127
1, 398953, Note_off_c, 8, 68, 127
1, 398957, Note_on_c, 4, 64, 127
1, 399080, Note_off_c, 4, 64, 127
1, 399084, Note_on_c, 8, 68, 127
1, 399204, Note_off_c, 12, 59, 127
1, 399204, Note_off_c, 2, 50, 127
1, 399207, Note_off_c, 8, 68, 127
1, 399210, Note_on_c, 1, 49, 127
1, 399210, Note_on_c, 10, 57, 127
1, 399210, Note_on_c, 10, 69, 127
1, 399459, Note_off_c, 10, 69, 127
1, 399464, Note_on_c, 4, 64, 127
1, 399587, Note_off_c, 4, 64, 127
1, 399590, Note_on_c, 10, 69, 127
1, 399710, Note_off_c, 10, 57, 127
1, 399710, Note_off_c, 1, 49, 127
1, 399713, Note_off_c, 10, 69, 127
1, 399717, Note_on_c, 12, 47, 127
1, 399717, Note_on_c, 8, 56, 127
1, 399717, Note_on_c, 12, 71, 127
1, 399966, Note_off_c, 12, 71, 127
1, 399970, Note_on_c, 4, 64, 127
1, 400093, Note_off_c, 4, 64, 127
1, 400098, Note_on_c, 12, 71, 127
1, 400217, Note_off_c, 8, 56, 127
1, 400217, Note_off_c, 12, 47, 127
1, 400221, Note_off_c, 12, 71, 127
1, 400224, Note_on_c, 10, 45, 127
1, 400224, Note_on_c, 10, 57, 127
1, 400224, Note_on_c, 1, 73, 127
1, 400477, Note_on_c, 4, 64, 127
1, 400589, Note_off_c, 1, 73, 127
1, 400600, Note_off_c, 4, 64, 127
1, 400604, Note_on_c, 1, 73, 127
1, 400724, Note_off_c, 10, 45, 127
1, 400727, Note_off_c, 1, 73, 127
1, 400731, Note_on_c, 12, 59, 127
1, 400731, Note_on_c, 1, 73, 127
1, 400980, Note_off_c, 1, 73, 127
1, 400984, Note_on_c, 2, 74, 127
1, 401227, Note_off_c, 10, 57, 127
1, 401237, Note_on_c, 8, 56, 127
1, 401441, Note_off_c, 2, 74, 127
1, 401490, Note_on_c, 1, 73, 127
1, 401613, Note_off_c, 1, 73, 127
1, 401617, Note_on_c, 12, 71, 127
1, 401734, Note_off_c, 12, 59, 127
1, 401737, Note_off_c, 8, 56, 127
1, 401740, Note_off_c, 12, 71, 127
1, 401743, Note_on_c, 10, 57, 127
1, 401743, Note_on_c, 7, 55, 127
1, 401743, Note_on_c, 1, 73, 127
1, 401992, Note_off_c, 1, 73, 127
1, 401997, Note_on_c, 10, 69, 127
1, 402120, Note_off_c, 10, 69, 127
1, 402123, Note_on_c, 1, 73, 127
1, 402243, Note_off_c, 7, 55, 127
1, 402243, Note_off_c, 10, 57, 127
1, 402246, Note_off_c, 1, 73, 127
1, 402250, Note_on_c, 6, 54, 127
1, 402250, Note_on_c, 12, 59, 127
1, 402250, Note_on_c, 2, 74, 127
1, 402499, Note_off_c, 2, 74, 127
1, 402503, Note_on_c, 10, 69, 127
1, 402626, Note_off_c, 10, 69, 127
1, 402630, Note_on_c, 2, 74, 127
1, 402750, Note_off_c, 12, 59, 127
1, 402750, Note_off_c, 6, 54, 127
1, 402753, Note_off_c, 2, 74, 127
1, 402757, Note_on_c, 4, 52, 127
1, 402757, Note_on_c, 1, 61, 127
1, 402757, Note_on_c, 4, 76, 127
1, 403006, Note_off_c, 4, 76, 127
1, 403010, Note_on_c, 10, 69, 127
1, 403133, Note_off_c, 10, 69, 127
1, 403137, Note_on_c, 4, 76, 127
1, 403257, Note_off_c, 1, 61, 127
1, 403257, Note_off_c, 4, 52, 127
1, 403260, Note_off_c, 4, 76, 127
1, 403263, Note_on_c, 2, 50, 127
1, 403263, Note_on_c, 2, 62, 127
1, 403263, Note_on_c, 6, 78, 127
1, 403517, Note_on_c, 10, 69, 127
1, 403628, Note_off_c, 6, 78, 127
1, 403640, Note_off_c, 10, 69, 127
1, 403643, Note_on_c, 6, 78, 127
1, 403763, Note_off_c, 2, 50, 127
1, 403766, Note_off_c, 6, 78, 127
1, 403770, Note_on_c, 4, 64, 127
1, 403770, Note_on_c, 6, 78, 127
1, 404019, Note_off_c, 6, 78, 127
1, 404023, Note_on_c, 7, 79, 127
1, 404266, Note_off_c, 2, 62, 127
1, 404277, Note_on_c, 1, 61, 127
1, 404480, Note_off_c, 7, 79, 127
1, 404530, Note_on_c, 6, 78, 127
1, 404653, Note_off_c, 6, 78, 127
1, 404657, Note_on_c, 4, 76, 127
1, 404773, Note_off_c, 4, 64, 127
1, 404777, Note_off_c, 1, 61, 127
1, 404780, Note_off_c, 4, 76, 127
1, 404784, Note_on_c, 2, 62, 127
1, 404784, Note_on_c, 6, 78, 127
1, 405033, Note_off_c, 6, 78, 127
1, 405037, Note_on_c, 2, 74, 127
1, 405160, Note_off_c, 2, 74, 127
1, 405164, Note_on_c, 6, 78, 127
1, 405287, Note_off_c, 6, 78, 127
1, 405290, Note_on_c, 12, 59, 127
1, 405290, Note_on_c, 8, 80, 127
1, 405539, Note_off_c, 8, 80, 127
1, 405543, Note_on_c, 2, 74, 127
1, 405666, Note_off_c, 2, 74, 127
1, 405670, Note_on_c, 8, 80, 127
1, 405790, Note_off_c, 12, 59, 127
1, 405793, Note_off_c, 8, 80, 127
1, 405797, Note_on_c, 10, 57, 127
1, 405797, Note_on_c, 10, 81, 127
1, 406046, Note_off_c, 10, 81, 127
1, 406050, Note_on_c, 2, 74, 127
1, 406173, Note_off_c, 2, 74, 127
1, 406176, Note_on_c, 10, 81, 127
1, 406297, Note_off_c, 10, 57, 127
1, 406299, Note_off_c, 10, 81, 127
1, 406303, Note_on_c, 8, 56, 127
1, 406303, Note_on_c, 10, 81, 127
1, 406538, Note_off_c, 10, 81, 127
1, 406556, Note_on_c, 12, 83, 127
1, 406788, Note_off_c, 2, 62, 127
1, 406803, Note_off_c, 8, 56, 127
1, 406810, Note_on_c, 1, 61, 127
1, 406810, Note_on_c, 10, 57, 127
1, 406929, Note_off_c, 12, 83, 127
1, 406936, Note_on_c, 10, 81, 127
1, 407059, Note_off_c, 10, 81, 127
1, 407063, Note_on_c, 8, 80, 127
1, 407186, Note_off_c, 8, 80, 127
1, 407190, Note_on_c, 6, 78, 127
1, 407310, Note_off_c, 10, 57, 127
1, 407313, Note_off_c, 6, 78, 127
1, 407316, Note_on_c, 8, 56, 127
1, 407316, Note_on_c, 4, 76, 127
1, 407537, Note_off_c, 4, 76, 127
1, 407570, Note_on_c, 10, 81, 127
1, 407816, Note_off_c, 8, 56, 127
1, 407823, Note_on_c, 6, 54, 127
1, 407945, Note_off_c, 10, 81, 127
1, 407950, Note_on_c, 8, 80, 127
1, 408073, Note_off_c, 8, 80, 127
1, 408076, Note_on_c, 6, 78, 127
1, 408199, Note_off_c, 6, 78, 127
1, 408203, Note_on_c, 4, 76, 127
1, 408316, Note_off_c, 1, 61, 127
1, 408323, Note_off_c, 6, 54, 127
1, 408326, Note_off_c, 4, 76, 127
1, 408330, Note_on_c, 8, 56, 127
1, 408330, Note_on_c, 12, 59, 127
1, 408330, Note_on_c, 2, 74, 127
1, 408551, Note_off_c, 2, 74, 127
1, 408583, Note_on_c, 6, 78, 127
1, 408830, Note_off_c, 8, 56, 127
1, 408836, Note_on_c, 10, 57, 127
1, 408958, Note_off_c, 6, 78, 127
1, 408963, Note_on_c, 4, 76, 127
1, 409086, Note_off_c, 4, 76, 127
1, 409090, Note_on_c, 2, 74, 127
1, 409213, Note_off_c, 2, 74, 127
1, 409217, Note_on_c, 1, 73, 127
1, 409336, Note_off_c, 10, 57, 127
1, 409340, Note_off_c, 1, 73, 127
1, 409342, Note_on_c, 8, 56, 127
1, 409342, Note_on_c, 12, 71, 127
1, 409563, Note_off_c, 12, 71, 127
1, 409597, Note_on_c, 2, 74, 127
1, 409836, Note_off_c, 12, 59, 127
1, 409842, Note_off_c, 8, 56, 127
1, 409850, Note_on_c, 8, 56, 127
1, 409850, Note_on_c, 4, 52, 127
1, 409972, Note_off_c, 2, 74, 127
1, 409976, Note_on_c, 1, 73, 127
1, 410099, Note_off_c, 1, 73, 127
1, 410102, Note_on_c, 12, 71, 127
1, 410225, Note_off_c, 12, 71, 127
1, 410230, Note_on_c, 10, 69, 127
1, 410350, Note_off_c, 4, 52, 127
1, 410350, Note_off_c, 8, 56, 127
1, 410353, Note_off_c, 10, 69, 127
1, 410356, Note_on_c, 2, 50, 127
1, 410356, Note_on_c, 12, 59, 127
1, 410356, Note_on_c, 8, 68, 127
1, 410577, Note_off_c, 8, 68, 127
1, 410609, Note_on_c, 4, 76, 127
1, 410856, Note_off_c, 12, 59, 127
1, 410856, Note_off_c, 2, 50, 127
1, 410862, Note_on_c, 10, 57, 127
1, 410862, Note_on_c, 1, 49, 127
1, 411109, Note_off_c, 4, 76, 127
1, 411116, Note_on_c, 10, 69, 127
1, 411354, Note_off_c, 10, 69, 127
1, 411362, Note_off_c, 1, 49, 127
1, 411370, Note_on_c, 2, 50, 127
1, 411370, Note_on_c, 1, 73, 127
1, 411865, Note_off_c, 10, 57, 127
1, 411870, Note_off_c, 1, 73, 127
1, 411870, Note_off_c, 2, 50, 127
1, 411876, Note_on_c, 4, 52, 127
1, 411876, Note_on_c, 8, 56, 127
1, 411878, Note_on_c, 1, 73, 127
1, 412001, Note_off_c, 1, 73, 127
1, 412003, Note_on_c, 12, 71, 127
1, 412126, Note_off_c, 12, 71, 127
1, 412130, Note_on_c, 10, 69, 127
1, 412253, Note_off_c, 10, 69, 127
1, 412256, Note_on_c, 12, 71, 127
1, 412376, Note_off_c, 8, 56, 127
1, 412376, Note_off_c, 4, 52, 127
1, 412379, Note_off_c, 12, 71, 127
1, 412383, Note_on_c, 10, 45, 127
1, 412383, Note_on_c, 10, 69, 127
1, 412889, Note_on_c, 1, 49, 127
1, 413396, Note_on_c, 4, 52, 127
1, 413891, Note_off_c, 10, 69, 127
1, 413892, Note_off_c, 1, 49, 127
1, 413893, Note_off_c, 4, 52, 127
1, 413902, Note_on_c, 10, 57, 127
1, 413902, Note_on_c, 1, 61, 127
1, 413902, Note_on_c, 10, 69, 127
1, 413902, Note_on_c, 4, 64, 127
1, 415157, Note_off_c, 4, 64, 127
1, 415157, Note_off_c, 10, 69, 127
1, 415157, Note_off_c, 1, 61, 127
1, 415157, Note_off_c, 10, 57, 127
1, 415170, Note_on_c, 4, 76, 127
1, 415397, Note_off_c, 10, 45, 127
1, 415419, Note_off_c, 4, 76, 127
1, 415422, Note_on_c, 10, 45, 127
1, 415422, Note_on_c, 4, 76, 127
1, 415422, Note_on_c, 1, 73, 127
1, 415930, Note_on_c, 1, 49, 127
1, 416174, Note_off_c, 1, 73, 127
1, 416174, Note_off_c, 4, 76, 127
1, 416182, Note_on_c, 10, 81, 127
1, 416305, Note_off_c, 10, 81, 127
1, 416309, Note_on_c, 4, 76, 127
1, 416430, Note_off_c, 1, 49, 127
1, 416432, Note_off_c, 4, 76, 127
1, 416436, Note_on_c, 4, 52, 127
1, 416436, Note_on_c, 1, 73, 127
1, 416685, Note_off_c, 1, 73, 127
1, 416689, Note_on_c, 4, 76, 127
1, 416812, Note_off_c, 4, 76, 127
1, 416816, Note_on_c, 1, 73, 127
1, 416928, Note_off_c, 10, 45, 127
1, 416936, Note_off_c, 4, 52, 127
1, 416939, Note_off_c, 1, 73, 127
1, 416941, Note_on_c, 7, 55, 127
1, 416941, Note_on_c, 10, 69, 127
1, 417190, Note_off_c, 7, 55, 127
1, 417196, Note_on_c, 6, 54, 127
1, 417441, Note_off_c, 10, 69, 127
1, 417445, Note_off_c, 6, 54, 127
1, 417449, Note_on_c, 10, 57, 127
1, 417449, Note_on_c, 10, 69, 127
1, 417698, Note_off_c, 10, 69, 127
1, 417698, Note_off_c, 10, 57, 127
1, 417701, Note_on_c, 7, 55, 127
1, 417701, Note_on_c, 12, 71, 127
1, 417950, Note_off_c, 7, 55, 127
1, 417955, Note_on_c, 6, 54, 127
1, 418201, Note_off_c, 12, 71, 127
1, 418204, Note_off_c, 6, 54, 127
1, 418208, Note_on_c, 4, 52, 127
1, 418208, Note_on_c, 1, 73, 127
1, 418457, Note_off_c, 1, 73, 127
1, 418457, Note_off_c, 4, 52, 127
1, 418462, Note_on_c, 6, 54, 127
1, 418462, Note_on_c, 2, 74, 127
1, 418716, Note_on_c, 10, 69, 127
1, 418842, Note_on_c, 6, 66, 127
1, 418969, Note_on_c, 2, 62, 127
1, 419214, Note_off_c, 6, 54, 127
1, 419222, Note_on_c, 10, 57, 127
1, 419345, Note_off_c, 10, 57, 127
1, 419349, Note_on_c, 6, 54, 127
1, 419472, Note_off_c, 6, 54, 127
1, 419475, Note_on_c, 2, 50, 127
1, 419724, Note_off_c, 2, 50, 127
1, 419729, Note_on_c, 6, 54, 127
1, 419852, Note_off_c, 6, 54, 127
1, 419855, Note_on_c, 2, 50, 127
1, 419978, Note_off_c, 2, 50, 127
1, 419982, Note_on_c, 12, 47, 127
1, 420025, Note_off_c, 6, 66, 127
1, 420026, Note_off_c, 10, 69, 127
1, 420099, Note_off_c, 2, 74, 127
1, 420224, Note_off_c, 2, 62, 127
1, 420235, Note_on_c, 6, 78, 127
1, 420482, Note_off_c, 12, 47, 127
1, 420484, Note_off_c, 6, 78, 127
1, 420489, Note_on_c, 12, 47, 127
1, 420489, Note_on_c, 4, 76, 127
1, 420738, Note_off_c, 4, 76, 127
1, 420738, Note_off_c, 12, 47, 127
1, 420741, Note_on_c, 0, 48, 127
1, 420741, Note_on_c, 2, 74, 127
1, 420990, Note_off_c, 2, 74, 127
1, 420995, Note_on_c, 4, 76, 127
1, 421241, Note_off_c, 0, 48, 127
1, 421244, Note_off_c, 4, 76, 127
1, 421249, Note_on_c, 10, 45, 127
1, 421249, Note_on_c, 6, 78, 127
1, 421498, Note_off_c, 6, 78, 127
1, 421498, Note_off_c, 10, 45, 127
1, 421501, Note_on_c, 12, 47, 127
1, 421501, Note_on_c, 7, 79, 127
1, 421750, Note_off_c, 7, 79, 127
1, 421750, Note_off_c, 12, 47, 127
1, 421754, Note_on_c, 2, 50, 127
1, 421754, Note_on_c, 2, 74, 127
1, 421877, Note_off_c, 2, 74, 127
1, 421881, Note_on_c, 7, 79, 127
1, 422003, Note_off_c, 2, 50, 127
1, 422004, Note_off_c, 7, 79, 127
1, 422008, Note_on_c, 7, 55, 127
1, 422008, Note_on_c, 10, 81, 127
1, 422257, Note_off_c, 10, 81, 127
1, 422257, Note_off_c, 7, 55, 127
1, 422261, Note_on_c, 6, 54, 127
1, 422261, Note_on_c, 2, 74, 127
1, 422384, Note_off_c, 2, 74, 127
1, 422389, Note_on_c, 10, 81, 127
1, 422510, Note_off_c, 6, 54, 127
1, 422512, Note_off_c, 10, 81, 127
1, 422516, Note_on_c, 7, 55, 127
1, 422516, Note_on_c, 12, 83, 127
1, 422765, Note_off_c, 7, 55, 127
1, 422769, Note_on_c, 12, 59, 127
1, 422892, Note_off_c, 12, 59, 127
1, 422896, Note_on_c, 7, 55, 127
1, 423019, Note_off_c, 7, 55, 127
1, 423021, Note_on_c, 4, 52, 127
1, 423270, Note_off_c, 4, 52, 127
1, 423275, Note_on_c, 7, 55, 127
1, 423398, Note_off_c, 7, 55, 127
1, 423401, Note_on_c, 4, 52, 127
1, 423519, Note_off_c, 12, 83, 127
1, 423524, Note_off_c, 4, 52, 127
1, 423529, Note_on_c, 0, 60, 127
1, 423529, Note_on_c, 10, 81, 127
1, 423778, Note_off_c, 10, 81, 127
1, 423781, Note_on_c, 7, 79, 127
1, 424029, Note_off_c, 0, 60, 127
1, 424030, Note_off_c, 7, 79, 127
1, 424035, Note_on_c, 10, 57, 127
1, 424035, Note_on_c, 6, 78, 127
1, 424284, Note_off_c, 6, 78, 127
1, 424288, Note_on_c, 4, 76, 127
1, 424535, Note_off_c, 10, 57, 127
1, 424537, Note_off_c, 4, 76, 127
1, 424541, Note_on_c, 12, 59, 127
1, 424541, Note_on_c, 3, 75, 127
1, 424795, Note_on_c, 12, 71, 127
1, 425048, Note_on_c, 6, 66, 127
1, 425293, Note_off_c, 12, 59, 127
1, 425301, Note_on_c, 10, 57, 127
1, 425424, Note_off_c, 10, 57, 127
1, 425428, Note_on_c, 7, 55, 127
1, 425551, Note_off_c, 7, 55, 127
1, 425554, Note_on_c, 10, 57, 127
1, 425803, Note_off_c, 10, 57, 127
1, 425807, Note_on_c, 7, 55, 127
1, 425930, Note_off_c, 7, 55, 127
1, 425934, Note_on_c, 6, 54, 127
1, 425962, Note_off_c, 3, 75, 127
1, 425970, Note_off_c, 6, 66, 127
1, 425974, Note_off_c, 12, 71, 127
1, 426057, Note_off_c, 6, 54, 127
1, 426061, Note_on_c, 7, 55, 127
1, 426061, Note_on_c, 6, 78, 127
1, 426121, Note_off_c, 6, 78, 127
1, 426124, Note_on_c, 4, 76, 127
1, 426184, Note_off_c, 4, 76, 127
1, 426188, Note_on_c, 6, 78, 127
1, 426248, Note_off_c, 6, 78, 127
1, 426251, Note_on_c, 4, 76, 127
1, 426562, Note_off_c, 4, 76, 127
1, 426568, Note_on_c, 12, 59, 127
1, 426568, Note_on_c, 4, 76, 127
1, 426817, Note_off_c, 4, 76, 127
1, 426821, Note_on_c, 2, 74, 127
1, 427064, Note_off_c, 7, 55, 127
1, 427068, Note_off_c, 12, 59, 127
1, 427070, Note_off_c, 2, 74, 127
1, 427074, Note_on_c, 8, 56, 127
1, 427074, Note_on_c, 4, 64, 127
1, 427074, Note_on_c, 0, 72, 127
1, 427323, Note_off_c, 0, 72, 127
1, 427329, Note_on_c, 12, 71, 127
1, 427574, Note_off_c, 8, 56, 127
1, 427578, Note_off_c, 12, 71, 127
1, 427581, Note_on_c, 10, 57, 127
1, 427581, Note_on_c, 0, 72, 127
1, 427641, Note_off_c, 0, 72, 127
1, 427644, Note_on_c, 12, 71, 127
1, 427704, Note_off_c, 12, 71, 127
1, 427708, Note_on_c, 0, 72, 127
1, 427826, Note_off_c, 4, 64, 127
1, 427834, Note_on_c, 0, 60, 127
1, 428083, Note_off_c, 0, 60, 127
1, 428088, Note_on_c, 4, 64, 127
1, 428333, Note_off_c, 10, 57, 127
1, 428334, Note_off_c, 0, 72, 127
1, 428340, Note_on_c, 6, 54, 127
1, 428340, Note_on_c, 10, 69, 127
1, 428463, Note_off_c, 10, 69, 127
1, 428468, Note_on_c, 0, 72, 127
1, 428589, Note_off_c, 6, 54, 127
1, 428591, Note_off_c, 0, 72, 127
1, 428594, Note_on_c, 7, 55, 127
1, 428594, Note_on_c, 4, 76, 127
1, 428843, Note_off_c, 4, 76, 127
1, 428843, Note_off_c, 7, 55, 127
1, 428848, Note_on_c, 4, 52, 127
1, 428848, Note_on_c, 0, 72, 127
1, 428971, Note_off_c, 0, 72, 127
1, 428974, Note_on_c, 4, 76, 127
1, 429097, Note_off_c, 4, 76, 127
1, 429097, Note_off_c, 4, 52, 127
1, 429100, Note_on_c, 6, 54, 127
1, 429100, Note_on_c, 10, 81, 127
1, 429308, Note_off_c, 10, 81, 127
1, 429354, Note_on_c, 0, 72, 127
1, 429594, Note_off_c, 4, 64, 127
1, 429607, Note_on_c, 10, 57, 127
1, 429772, Note_off_c, 0, 72, 127
1, 429861, Note_on_c, 12, 71, 127
1, 430107, Note_off_c, 10, 57, 127
1, 430115, Note_on_c, 2, 62, 127
1, 430355, Note_off_c, 12, 71, 127
1, 430368, Note_on_c, 10, 69, 127
1, 430589, Note_off_c, 10, 69, 127
1, 430606, Note_off_c, 6, 54, 127
1, 430620, Note_on_c, 7, 55, 127
1, 430620, Note_on_c, 12, 71, 127
1, 430680, Note_off_c, 12, 71, 127
1, 430684, Note_on_c, 10, 69, 127
1, 430744, Note_off_c, 10, 69, 127
1, 430748, Note_on_c, 12, 71, 127
1, 430867, Note_off_c, 2, 62, 127
1, 430874, Note_on_c, 12, 59, 127
1, 431123, Note_off_c, 12, 59, 127
1, 431128, Note_on_c, 2, 62, 127
1, 431372, Note_off_c, 7, 55, 127
1, 431374, Note_off_c, 12, 71, 127
1, 431381, Note_on_c, 4, 52, 127
1, 431381, Note_on_c, 7, 67, 127
1, 431504, Note_off_c, 7, 67, 127
1, 431507, Note_on_c, 12, 71, 127
1, 431630, Note_off_c, 12, 71, 127
1, 431630, Note_off_c, 4, 52, 127
1, 431634, Note_on_c, 6, 54, 127
1, 431634, Note_on_c, 2, 74, 127
1, 431883, Note_off_c, 2, 74, 127
1, 431883, Note_off_c, 6, 54, 127
1, 431887, Note_on_c, 2, 50, 127
1, 431887, Note_on_c, 12, 71, 127
1, 432010, Note_off_c, 12, 71, 127
1, 432014, Note_on_c, 2, 74, 127
1, 432136, Note_off_c, 2, 50, 127
1, 432137, Note_off_c, 2, 74, 127
1, 432140, Note_on_c, 4, 52, 127
1, 432140, Note_on_c, 7, 79, 127
1, 432348, Note_off_c, 7, 79, 127
1, 432394, Note_on_c, 12, 71, 127
1, 432634, Note_off_c, 2, 62, 127
1, 432647, Note_on_c, 7, 55, 127
1, 432812, Note_off_c, 12, 71, 127
1, 432900, Note_on_c, 10, 69, 127
1, 433147, Note_off_c, 7, 55, 127
1, 433153, Note_on_c, 0, 60, 127
1, 433395, Note_off_c, 10, 69, 127
1, 433407, Note_on_c, 7, 67, 127
1, 433635, Note_off_c, 7, 67, 127
1, 433646, Note_off_c, 4, 52, 127
1, 433661, Note_on_c, 6, 54, 127
1, 433661, Note_on_c, 12, 71, 127
1, 433742, Note_off_c, 12, 71, 127
1, 433745, Note_on_c, 10, 69, 127
1, 433826, Note_off_c, 10, 69, 127
1, 433829, Note_on_c, 7, 67, 127
1, 433905, Note_off_c, 0, 60, 127
1, 433910, Note_off_c, 7, 67, 127
1, 433914, Note_on_c, 10, 57, 127
1, 433914, Note_on_c, 10, 69, 127
1, 433978, Note_on_c, 12, 71, 127
1, 433986, Note_off_c, 10, 69, 127
1, 434040, Note_on_c, 10, 69, 127
1, 434050, Note_off_c, 12, 71, 127
1, 434103, Note_on_c, 12, 71, 127
1, 434112, Note_off_c, 10, 69, 127
1, 434163, Note_off_c, 10, 57, 127
1, 434168, Note_on_c, 0, 60, 127
1, 434168, Note_on_c, 10, 69, 127
1, 434175, Note_off_c, 12, 71, 127
1, 434413, Note_off_c, 6, 54, 127
1, 434417, Note_off_c, 10, 69, 127
1, 434420, Note_on_c, 10, 57, 127
1, 434420, Note_on_c, 6, 66, 127
1, 434543, Note_off_c, 6, 66, 127
1, 434548, Note_on_c, 10, 69, 127
1, 434669, Note_off_c, 10, 57, 127
1, 434671, Note_off_c, 10, 69, 127
1, 434673, Note_on_c, 6, 54, 127
1, 434673, Note_on_c, 0, 72, 127
1, 434922, Note_off_c, 0, 72, 127
1, 434922, Note_off_c, 6, 54, 127
1, 434928, Note_on_c, 4, 52, 127
1, 434928, Note_on_c, 10, 69, 127
1, 435051, Note_off_c, 10, 69, 127
1, 435053, Note_on_c, 0, 72, 127
1, 435176, Note_off_c, 0, 72, 127
1, 435177, Note_off_c, 4, 52, 127
1, 435180, Note_on_c, 3, 51, 127
1, 435180, Note_on_c, 6, 78, 127
1, 435388, Note_off_c, 6, 78, 127
1, 435433, Note_on_c, 10, 69, 127
1, 435674, Note_off_c, 0, 60, 127
1, 435687, Note_on_c, 6, 54, 127
1, 435877, Note_off_c, 10, 69, 127
1, 435940, Note_on_c, 7, 67, 127
1, 436187, Note_off_c, 6, 54, 127
1, 436194, Note_on_c, 12, 59, 127
1, 436440, Note_off_c, 7, 67, 127
1, 436447, Note_on_c, 6, 66, 127
1, 436682, Note_off_c, 6, 66, 127
1, 436686, Note_off_c, 3, 51, 127
1, 436700, Note_on_c, 4, 52, 127
1, 436700, Note_on_c, 7, 67, 127
1, 436935, Note_off_c, 7, 67, 127
1, 436953, Note_on_c, 0, 72, 127
1, 437197, Note_off_c, 12, 59, 127
1, 437200, Note_off_c, 4, 52, 127
1, 437207, Note_on_c, 6, 54, 127
1, 437207, Note_on_c, 10, 57, 127
1, 437453, Note_off_c, 0, 72, 127
1, 437460, Note_on_c, 12, 71, 127
1, 437707, Note_off_c, 10, 57, 127
1, 437707, Note_off_c, 6, 54, 127
1, 437709, Note_off_c, 12, 71, 127
1, 437714, Note_on_c, 7, 55, 127
1, 437714, Note_on_c, 12, 59, 127
1, 437714, Note_on_c, 3, 75, 127
1, 437963, Note_off_c, 3, 75, 127
1, 437967, Note_on_c, 4, 76, 127
1, 438214, Note_off_c, 12, 59, 127
1, 438214, Note_off_c, 7, 55, 127
1, 438216, Note_off_c, 4, 76, 127
1, 438220, Note_on_c, 0, 48, 127
1, 438220, Note_on_c, 4, 52, 127
1, 438220, Note_on_c, 10, 69, 127
1, 438469, Note_off_c, 10, 69, 127
1, 438473, Note_on_c, 7, 79, 127
1, 438720, Note_off_c, 4, 52, 127
1, 438720, Note_off_c, 0, 48, 127
1, 438727, Note_on_c, 10, 45, 127
1, 438727, Note_on_c, 10, 57, 127
1, 438973, Note_off_c, 7, 79, 127
1, 438980, Note_on_c, 6, 78, 127
1, 439227, Note_off_c, 10, 57, 127
1, 439227, Note_off_c, 10, 45, 127
1, 439229, Note_off_c, 6, 78, 127
1, 439233, Note_on_c, 6, 54, 127
1, 439233, Note_on_c, 12, 47, 127
1, 439233, Note_on_c, 4, 76, 127
1, 439482, Note_off_c, 4, 76, 127
1, 439486, Note_on_c, 3, 75, 127
1, 439733, Note_off_c, 12, 47, 127
1, 439733, Note_off_c, 6, 54, 127
1, 439735, Note_off_c, 3, 75, 127
1, 439740, Note_on_c, 4, 40, 127
1, 439740, Note_on_c, 4, 52, 127
1, 439740, Note_on_c, 4, 76, 127
1, 439993, Note_on_c, 12, 71, 127
1, 440247, Note_on_c, 7, 67, 127
1, 440492, Note_off_c, 4, 52, 127
1, 440492, Note_off_c, 4, 40, 127
1, 440500, Note_on_c, 4, 52, 127
1, 440623, Note_off_c, 4, 52, 127
1, 440627, Note_on_c, 7, 55, 127
1, 440750, Note_off_c, 7, 55, 127
1, 440752, Note_on_c, 12, 59, 127
1, 441001, Note_off_c, 12, 59, 127
1, 441007, Note_on_c, 7, 55, 127
1, 441130, Note_off_c, 7, 55, 127
1, 441133, Note_on_c, 12, 59, 127
1, 441164, Note_off_c, 7, 67, 127
1, 441172, Note_off_c, 12, 71, 127
1, 441246, Note_off_c, 4, 76, 127
1, 441256, Note_off_c, 12, 59, 127
1, 441260, Note_on_c, 4, 64, 127
1, 441260, Note_on_c, 7, 79, 127
1, 441513, Note_on_c, 4, 76, 127
1, 441636, Note_off_c, 4, 76, 127
1, 441640, Note_on_c, 12, 71, 127
1, 441763, Note_off_c, 12, 71, 127
1, 441767, Note_on_c, 7, 67, 127
1, 442016, Note_off_c, 7, 67, 127
1, 442020, Note_on_c, 12, 71, 127
1, 442143, Note_off_c, 12, 71, 127
1, 442147, Note_on_c, 7, 67, 127
1, 442263, Note_off_c, 4, 64, 127
1, 442270, Note_off_c, 7, 67, 127
1, 442273, Note_on_c, 4, 64, 127
1, 442527, Note_on_c, 7, 67, 127
1, 442625, Note_off_c, 4, 64, 127
1, 442650, Note_off_c, 7, 67, 127
1, 442653, Note_on_c, 4, 64, 127
1, 442776, Note_off_c, 4, 64, 127
1, 442780, Note_on_c, 10, 69, 127
1, 443033, Note_on_c, 1, 49, 127
1, 443156, Note_off_c, 1, 49, 127
1, 443160, Note_on_c, 4, 52, 127
1, 443267, Note_off_c, 7, 79, 127
1, 443283, Note_off_c, 4, 52, 127
1, 443286, Note_on_c, 10, 57, 127
1, 443286, Note_on_c, 6, 78, 127
1, 443535, Note_off_c, 6, 78, 127
1, 443535, Note_off_c, 10, 57, 127
1, 443539, Note_on_c, 4, 52, 127
1, 443539, Note_on_c, 7, 79, 127
1, 443662, Note_off_c, 4, 52, 127
1, 443666, Note_on_c, 10, 57, 127
1, 443788, Note_off_c, 7, 79, 127
1, 443789, Note_off_c, 10, 57, 127
1, 443793, Note_on_c, 1, 61, 127
1, 443793, Note_on_c, 4, 76, 127
1, 444042, Note_off_c, 4, 76, 127
1, 444042, Note_off_c, 1, 61, 127
1, 444046, Note_on_c, 10, 57, 127
1, 444046, Note_on_c, 7, 79, 127
1, 444169, Note_off_c, 10, 57, 127
1, 444172, Note_on_c, 1, 61, 127
1, 444295, Note_off_c, 1, 61, 127
1, 444295, Note_off_c, 7, 79, 127
1, 444299, Note_on_c, 2, 62, 127
1, 444299, Note_on_c, 6, 78, 127
1, 444535, Note_off_c, 10, 69, 127
1, 444552, Note_on_c, 2, 74, 127
1, 444675, Note_off_c, 2, 74, 127
1, 444680, Note_on_c, 10, 69, 127
1, 444803, Note_off_c, 10, 69, 127
1, 444806, Note_on_c, 6, 66, 127
1, 445055, Note_off_c, 6, 66, 127
1, 445060, Note_on_c, 10, 69, 127
1, 445183, Note_off_c, 10, 69, 127
1, 445186, Note_on_c, 6, 66, 127
1, 445302, Note_off_c, 2, 62, 127
1, 445309, Note_off_c, 6, 66, 127
1, 445313, Note_on_c, 2, 62, 127
1, 445566, Note_on_c, 6, 66, 127
1, 445665, Note_off_c, 2, 62, 127
1, 445689, Note_off_c, 6, 66, 127
1, 445693, Note_on_c, 2, 62, 127
1, 445816, Note_off_c, 2, 62, 127
1, 445820, Note_on_c, 7, 67, 127
1, 446072, Note_on_c, 12, 47, 127
1, 446195, Note_off_c, 12, 47, 127
1, 446200, Note_on_c, 2, 50, 127
1, 446306, Note_off_c, 6, 78, 127
1, 446323, Note_off_c, 2, 50, 127
1, 446326, Note_on_c, 7, 55, 127
1, 446326, Note_on_c, 4, 76, 127
1, 446575, Note_off_c, 4, 76, 127
1, 446575, Note_off_c, 7, 55, 127
1, 446580, Note_on_c, 2, 50, 127
1, 446580, Note_on_c, 6, 78, 127
1, 446703, Note_off_c, 2, 50, 127
1, 446706, Note_on_c, 7, 55, 127
1, 446829, Note_off_c, 7, 55, 127
1, 446829, Note_off_c, 6, 78, 127
1, 446832, Note_on_c, 12, 59, 127
1, 446832, Note_on_c, 2, 74, 127
1, 447081, Note_off_c, 2, 74, 127
1, 447081, Note_off_c, 12, 59, 127
1, 447086, Note_on_c, 7, 55, 127
1, 447086, Note_on_c, 6, 78, 127
1, 447209, Note_off_c, 7, 55, 127
1, 447212, Note_on_c, 12, 59, 127
1, 447335, Note_off_c, 12, 59, 127
1, 447335, Note_off_c, 6, 78, 127
1, 447339, Note_on_c, 1, 61, 127
1, 447339, Note_on_c, 4, 76, 127
1, 447575, Note_off_c, 7, 67, 127
1, 447588, Note_off_c, 1, 61, 127
1, 447592, Note_on_c, 10, 57, 127
1, 447715, Note_off_c, 10, 57, 127
1, 447719, Note_on_c, 1, 61, 127
1, 447842, Note_off_c, 1, 61, 127
1, 447846, Note_on_c, 4, 64, 127
1, 448095, Note_off_c, 4, 64, 127
1, 448099, Note_on_c, 1, 61, 127
1, 448222, Note_off_c, 1, 61, 127
1, 448226, Note_on_c, 4, 64, 127
1, 448349, Note_off_c, 4, 64, 127
1, 448352, Note_on_c, 10, 69, 127
1, 448601, Note_off_c, 10, 69, 127
1, 448606, Note_on_c, 1, 61, 127
1, 448606, Note_on_c, 4, 64, 127
1, 448649, Note_off_c, 4, 76, 127
1, 448729, Note_off_c, 4, 64, 127
1, 448729, Note_off_c, 1, 61, 127
1, 448732, Note_on_c, 10, 57, 127
1, 448732, Note_on_c, 10, 69, 127
1, 448855, Note_off_c, 10, 69, 127
1, 448855, Note_off_c, 10, 57, 127
1, 448860, Note_on_c, 6, 54, 127
1, 448860, Note_on_c, 1, 73, 127
1, 449109, Note_off_c, 6, 54, 127
1, 449113, Note_on_c, 10, 57, 127
1, 449113, Note_on_c, 10, 69, 127
1, 449172, Note_off_c, 1, 73, 127
1, 449236, Note_off_c, 10, 69, 127
1, 449236, Note_off_c, 10, 57, 127
1, 449239, Note_on_c, 6, 54, 127
1, 449239, Note_on_c, 1, 73, 127
1, 449362, Note_off_c, 1, 73, 127
1, 449362, Note_off_c, 6, 54, 127
1, 449366, Note_on_c, 2, 50, 127
1, 449366, Note_on_c, 6, 78, 127
1, 449615, Note_off_c, 2, 50, 127
1, 449619, Note_on_c, 6, 54, 127
1, 449619, Note_on_c, 2, 74, 127
1, 449678, Note_off_c, 6, 78, 127
1, 449742, Note_off_c, 2, 74, 127
1, 449742, Note_off_c, 6, 54, 127
1, 449746, Note_on_c, 2, 50, 127
1, 449746, Note_on_c, 6, 78, 127
1, 449869, Note_off_c, 6, 78, 127
1, 449869, Note_off_c, 2, 50, 127
1, 449872, Note_on_c, 12, 47, 127
1, 449872, Note_on_c, 10, 81, 127
1, 450080, Note_off_c, 10, 81, 127
1, 450121, Note_off_c, 12, 47, 127
1, 450126, Note_on_c, 2, 50, 127
1, 450126, Note_on_c, 0, 72, 127
1, 450249, Note_off_c, 2, 50, 127
1, 450252, Note_on_c, 12, 47, 127
1, 450375, Note_off_c, 12, 47, 127
1, 450379, Note_on_c, 7, 43, 127
1, 450544, Note_off_c, 0, 72, 127
1, 450632, Note_on_c, 12, 71, 127
1, 450879, Note_off_c, 7, 43, 127
1, 450885, Note_on_c, 4, 52, 127
1, 450885, Note_on_c, 7, 55, 127
1, 451050, Note_off_c, 12, 71, 127
1, 451139, Note_on_c, 1, 73, 127
1, 451385, Note_off_c, 7, 55, 127
1, 451385, Note_off_c, 4, 52, 127
1, 451392, Note_on_c, 6, 54, 127
1, 451392, Note_on_c, 2, 50, 127
1, 451568, Note_off_c, 1, 73, 127
1, 451645, Note_on_c, 2, 74, 127
1, 451892, Note_off_c, 2, 50, 127
1, 451892, Note_off_c, 6, 54, 127
1, 451899, Note_on_c, 4, 52, 127
1, 451899, Note_on_c, 10, 45, 127
1, 452148, Note_off_c, 10, 45, 127
1, 452152, Note_on_c, 1, 49, 127
1, 452273, Note_off_c, 2, 74, 127
1, 452396, Note_off_c, 4, 52, 127
1, 452401, Note_off_c, 1, 49, 127
1, 452405, Note_on_c, 4, 52, 127
1, 452405, Note_on_c, 1, 73, 127
1, 452528, Note_off_c, 1, 73, 127
1, 452532, Note_on_c, 12, 71, 127
1, 452654, Note_off_c, 4, 52, 127
1, 452655, Note_off_c, 12, 71, 127
1, 452660, Note_on_c, 7, 55, 127
1, 452660, Note_on_c, 10, 69, 127
1, 452783, Note_off_c, 10, 69, 127
1, 452785, Note_on_c, 12, 71, 127
1, 452908, Note_off_c, 12, 71, 127
1, 452909, Note_off_c, 7, 55, 127
1, 452912, Note_on_c, 6, 54, 127
1, 452912, Note_on_c, 1, 73, 127
1, 453035, Note_off_c, 1, 73, 127
1, 453039, Note_on_c, 12, 71, 127
1, 453161, Note_off_c, 6, 54, 127
1, 453162, Note_off_c, 12, 71, 127
1, 453165, Note_on_c, 4, 52, 127
1, 453165, Note_on_c, 10, 69, 127
1, 453288, Note_off_c, 10, 69, 127
1, 453292, Note_on_c, 12, 71, 127
1, 453414, Note_off_c, 4, 52, 127
1, 453415, Note_off_c, 12, 71, 127
1, 453419, Note_on_c, 2, 50, 127
1, 453419, Note_on_c, 0, 72, 127
1, 453668, Note_off_c, 0, 72, 127
1, 453668, Note_off_c, 2, 50, 127
1, 453671, Note_on_c, 10, 57, 127
1, 453671, Note_on_c, 6, 78, 127
1, 453794, Note_off_c, 6, 78, 127
1, 453799, Note_on_c, 7, 79, 127
1, 453920, Note_off_c, 10, 57, 127
1, 453922, Note_off_c, 7, 79, 127
1, 453926, Note_on_c, 2, 50, 127
1, 453926, Note_on_c, 10, 81, 127
1, 454049, Note_off_c, 10, 81, 127
1, 454051, Note_on_c, 7, 79, 127
1, 454174, Note_off_c, 7, 79, 127
1, 454175, Note_off_c, 2, 50, 127
1, 454179, Note_on_c, 0, 48, 127
1, 454179, Note_on_c, 6, 78, 127
1, 454302, Note_off_c, 6, 78, 127
1, 454305, Note_on_c, 4, 76, 127
1, 454428, Note_off_c, 4, 76, 127
1, 454428, Note_off_c, 0, 48, 127
1, 454431, Note_on_c, 12, 47, 127
1, 454431, Note_on_c, 2, 74, 127
1, 454680, Note_off_c, 2, 74, 127
1, 454680, Note_off_c, 12, 47, 127
1, 454685, Note_on_c, 10, 45, 127
1, 454685, Note_on_c, 0, 72, 127
1, 454934, Note_off_c, 10, 45, 127
1, 454938, Note_on_c, 7, 43, 127
1, 455182, Note_off_c, 0, 72, 127
1, 455187, Note_off_c, 7, 43, 127
1, 455191, Note_on_c, 12, 47, 127
1, 455440, Note_off_c, 12, 47, 127
1, 455445, Note_on_c, 2, 50, 127
1, 455445, Note_on_c, 12, 71, 127
1, 455568, Note_off_c, 12, 71, 127
1, 455571, Note_on_c, 10, 69, 127
1, 455694, Note_off_c, 10, 69, 127
1, 455694, Note_off_c, 2, 50, 127
1, 455698, Note_on_c, 6, 54, 127
1, 455698, Note_on_c, 7, 67, 127
1, 455821, Note_off_c, 7, 67, 127
1, 455825, Note_on_c, 10, 69, 127
1, 455947, Note_off_c, 6, 54, 127
1, 455948, Note_off_c, 10, 69, 127
1, 455952, Note_on_c, 4, 52, 127
1, 455952, Note_on_c, 12, 71, 127
1, 456075, Note_off_c, 12, 71, 127
1, 456079, Note_on_c, 10, 69, 127
1, 456201, Note_off_c, 4, 52, 127
1, 456202, Note_off_c, 10, 69, 127
1, 456205, Note_on_c, 2, 50, 127
1, 456205, Note_on_c, 7, 67, 127
1, 456328, Note_off_c, 7, 67, 127
1, 456332, Note_on_c, 10, 69, 127
1, 456454, Note_off_c, 2, 50, 127
1, 456455, Note_off_c, 10, 69, 127
1, 456459, Note_on_c, 1, 49, 127
1, 456459, Note_on_c, 12, 71, 127
1, 456708, Note_off_c, 12, 71, 127
1, 456708, Note_off_c, 1, 49, 127
1, 456712, Note_on_c, 7, 55, 127
1, 456712, Note_on_c, 4, 76, 127
1, 456835, Note_off_c, 4, 76, 127
1, 456838, Note_on_c, 6, 78, 127
1, 456961, Note_off_c, 6, 78, 127
1, 456961, Note_off_c, 7, 55, 127
1, 456965, Note_on_c, 1, 49, 127
1, 456965, Note_on_c, 7, 79, 127
1, 457088, Note_off_c, 7, 79, 127
1, 457092, Note_on_c, 6, 78, 127
1, 457214, Note_off_c, 1, 49, 127
1, 457215, Note_off_c, 6, 78, 127
1, 457218, Note_on_c, 12, 47, 127
1, 457218, Note_on_c, 4, 76, 127
1, 457341, Note_off_c, 4, 76, 127
1, 457345, Note_on_c, 2, 74, 127
1, 457467, Note_off_c, 12, 47, 127
1, 457468, Note_off_c, 2, 74, 127
1, 457471, Note_on_c, 10, 45, 127
1, 457471, Note_on_c, 1, 73, 127
1, 457720, Note_off_c, 1, 73, 127
1, 457720, Note_off_c, 10, 45, 127
1, 457725, Note_on_c, 7, 43, 127
1, 457725, Note_on_c, 12, 71, 127
1, 457974, Note_off_c, 12, 71, 127
1, 457974, Note_off_c, 7, 43, 127
1, 457979, Note_on_c, 6, 42, 127
1, 457979, Note_on_c, 12, 71, 127
1, 458102, Note_off_c, 12, 71, 127
1, 458104, Note_on_c, 10, 69, 127
1, 458227, Note_off_c, 10, 69, 127
1, 458228, Note_off_c, 6, 42, 127
1, 458231, Note_on_c, 6, 54, 127
1, 458231, Note_on_c, 2, 74, 127
1, 458354, Note_off_c, 2, 74, 127
1, 458359, Note_on_c, 4, 76, 127
1, 458480, Note_off_c, 6, 54, 127
1, 458482, Note_off_c, 4, 76, 127
1, 458484, Note_on_c, 12, 47, 127
1, 458484, Note_on_c, 6, 78, 127
1, 458607, Note_off_c, 6, 78, 127
1, 458611, Note_on_c, 4, 76, 127
1, 458733, Note_off_c, 12, 47, 127
1, 458734, Note_off_c, 4, 76, 127
1, 458738, Note_on_c, 10, 45, 127
1, 458738, Note_on_c, 2, 74, 127
1, 458861, Note_off_c, 2, 74, 127
1, 458864, Note_on_c, 1, 73, 127
1, 458987, Note_off_c, 1, 73, 127
1, 458987, Note_off_c, 10, 45, 127
1, 458991, Note_on_c, 7, 43, 127
1, 458991, Note_on_c, 12, 71, 127
1, 459240, Note_off_c, 12, 71, 127
1, 459240, Note_off_c, 7, 43, 127
1, 459244, Note_on_c, 6, 42, 127
1, 459244, Note_on_c, 10, 69, 127
1, 459493, Note_off_c, 6, 42, 127
1, 459498, Note_on_c, 4, 40, 127
1, 459531, Note_off_c, 10, 69, 127
1, 459625, Note_on_c, 7, 67, 127
1, 459747, Note_off_c, 4, 40, 127
1, 459748, Note_off_c, 7, 67, 127
1, 459751, Note_on_c, 4, 52, 127
1, 459751, Note_on_c, 1, 73, 127
1, 459874, Note_off_c, 1, 73, 127
1, 459879, Note_on_c, 2, 74, 127
1, 460000, Note_off_c, 4, 52, 127
1, 460002, Note_off_c, 2, 74, 127
1, 460005, Note_on_c, 10, 45, 127
1, 460005, Note_on_c, 4, 76, 127
1, 460128, Note_off_c, 4, 76, 127
1, 460131, Note_on_c, 2, 74, 127
1, 460254, Note_off_c, 2, 74, 127
1, 460254, Note_off_c, 10, 45, 127
1, 460259, Note_on_c, 7, 43, 127
1, 460259, Note_on_c, 1, 73, 127
1, 460382, Note_off_c, 1, 73, 127
1, 460385, Note_on_c, 12, 71, 127
1, 460508, Note_off_c, 12, 71, 127
1, 460508, Note_off_c, 7, 43, 127
1, 460511, Note_on_c, 6, 42, 127
1, 460511, Note_on_c, 10, 69, 127
1, 460760, Note_off_c, 10, 69, 127
1, 460760, Note_off_c, 6, 42, 127
1, 460765, Note_on_c, 4, 40, 127
1, 460765, Note_on_c, 7, 67, 127
1, 461014, Note_off_c, 7, 67, 127
1, 461014, Note_off_c, 4, 40, 127
1, 461018, Note_on_c, 2, 38, 127
1, 461018, Note_on_c, 6, 66, 127
1, 461267, Note_off_c, 2, 38, 127
1, 461270, Note_on_c, 10, 45, 127
1, 461519, Note_off_c, 10, 45, 127
1, 461525, Note_on_c, 2, 50, 127
1, 461770, Note_off_c, 6, 66, 127
1, 461774, Note_off_c, 2, 50, 127
1, 461778, Note_on_c, 6, 54, 127
1, 461778, Note_on_c, 2, 62, 127
1, 461901, Note_off_c, 2, 62, 127
1, 461904, Note_on_c, 6, 66, 127
1, 462027, Note_off_c, 6, 66, 127
1, 462027, Note_off_c, 6, 54, 127
1, 462030, Note_on_c, 4, 52, 127
1, 462030, Note_on_c, 7, 67, 127
1, 462279, Note_off_c, 7, 67, 127
1, 462279, Note_off_c, 4, 52, 127
1, 462284, Note_on_c, 7, 55, 127
1, 462284, Note_on_c, 2, 62, 127
1, 462407, Note_off_c, 2, 62, 127
1, 462411, Note_on_c, 7, 67, 127
1, 462533, Note_off_c, 7, 55, 127
1, 462534, Note_off_c, 7, 67, 127
1, 462537, Note_on_c, 6, 54, 127
1, 462537, Note_on_c, 10, 69, 127
1, 462786, Note_off_c, 6, 54, 127
1, 462791, Note_on_c, 10, 57, 127
1, 463037, Note_off_c, 10, 69, 127
1, 463040, Note_off_c, 10, 57, 127
1, 463044, Note_on_c, 7, 55, 127
1, 463044, Note_on_c, 10, 69, 127
1, 463293, Note_off_c, 10, 69, 127
1, 463293, Note_off_c, 7, 55, 127
1, 463298, Note_on_c, 6, 54, 127
1, 463298, Note_on_c, 12, 71, 127
1, 463547, Note_off_c, 6, 54, 127
1, 463551, Note_on_c, 4, 52, 127
1, 463798, Note_off_c, 12, 71, 127
1, 463800, Note_off_c, 4, 52, 127
1, 463804, Note_on_c, 2, 50, 127
1, 463804, Note_on_c, 0, 72, 127
1, 464053, Note_off_c, 0, 72, 127
1, 464053, Note_off_c, 2, 50, 127
1, 464058, Note_on_c, 7, 55, 127
1, 464058, Note_on_c, 12, 71, 127
1, 464564, Note_on_c, 7, 43, 127
1, 464818, Note_on_c, 4, 64, 127
1, 465061, Note_off_c, 7, 55, 127
1, 465064, Note_off_c, 7, 43, 127
1, 465067, Note_off_c, 4, 64, 127
1, 465070, Note_on_c, 12, 59, 127
1, 465070, Note_on_c, 7, 55, 127
1, 465070, Note_on_c, 6, 66, 127
1, 465145, Note_off_c, 6, 66, 127
1, 465150, Note_on_c, 4, 64, 127
1, 465225, Note_off_c, 4, 64, 127
1, 465229, Note_on_c, 2, 62, 127
1, 465319, Note_off_c, 2, 62, 127
1, 465324, Note_on_c, 4, 64, 127
1, 465564, Note_off_c, 12, 71, 127
1, 465570, Note_off_c, 12, 59, 127
1, 465573, Note_off_c, 4, 64, 127
1, 465578, Note_on_c, 1, 61, 127
1, 465578, Note_on_c, 10, 69, 127
1, 466073, Note_off_c, 7, 55, 127
1, 466078, Note_off_c, 1, 61, 127
1, 466083, Note_on_c, 6, 54, 127
1, 466083, Note_on_c, 2, 62, 127
1, 466332, Note_off_c, 2, 62, 127
1, 466337, Note_on_c, 4, 64, 127
1, 466586, Note_off_c, 4, 64, 127
1, 466590, Note_on_c, 10, 57, 127
1, 466590, Note_on_c, 6, 66, 127
1, 466839, Note_off_c, 6, 66, 127
1, 466844, Note_on_c, 2, 62, 127
1, 467084, Note_off_c, 10, 69, 127
1, 467090, Note_off_c, 10, 57, 127
1, 467093, Note_off_c, 2, 62, 127
1, 467098, Note_on_c, 12, 59, 127
1, 467098, Note_on_c, 7, 67, 127
1, 467327, Note_off_c, 6, 54, 127
1, 467347, Note_off_c, 12, 59, 127
1, 467350, Note_on_c, 6, 54, 127
1, 467350, Note_on_c, 12, 59, 127
1, 467599, Note_off_c, 12, 59, 127
1, 467599, Note_off_c, 6, 54, 127
1, 467604, Note_on_c, 4, 52, 127
1, 467604, Note_on_c, 1, 61, 127
1, 467679, Note_off_c, 1, 61, 127
1, 467682, Note_on_c, 12, 59, 127
1, 467757, Note_off_c, 12, 59, 127
1, 467762, Note_on_c, 10, 57, 127
1, 467852, Note_off_c, 10, 57, 127
1, 467853, Note_off_c, 4, 52, 127
1, 467858, Note_on_c, 2, 50, 127
1, 467858, Note_on_c, 12, 59, 127
1, 468107, Note_off_c, 12, 59, 127
1, 468107, Note_off_c, 2, 50, 127
1, 468110, Note_on_c, 1, 49, 127
1, 468110, Note_on_c, 4, 64, 127
1, 468359, Note_off_c, 1, 49, 127
1, 468364, Note_on_c, 2, 50, 127
1, 468610, Note_off_c, 4, 64, 127
1, 468613, Note_off_c, 2, 50, 127
1, 468617, Note_on_c, 1, 49, 127
1, 468617, Note_on_c, 10, 57, 127
1, 468866, Note_off_c, 10, 57, 127
1, 468870, Note_on_c, 12, 59, 127
1, 469117, Note_off_c, 1, 49, 127
1, 469119, Note_off_c, 12, 59, 127
1, 469124, Note_on_c, 10, 45, 127
1, 469124, Note_on_c, 1, 61, 127
1, 469373, Note_off_c, 1, 61, 127
1, 469377, Note_on_c, 10, 57, 127
1, 469620, Note_off_c, 7, 67, 127
1, 469624, Note_off_c, 10, 45, 127
1, 469626, Note_off_c, 10, 57, 127
1, 469630, Note_on_c, 12, 47, 127
1, 469630, Note_on_c, 2, 62, 127
1, 469630, Note_on_c, 6, 66, 127
1, 469883, Note_on_c, 2, 50, 127
1, 470127, Note_off_c, 12, 47, 127
1, 470130, Note_off_c, 2, 62, 127
1, 470132, Note_off_c, 2, 50, 127
1, 470136, Note_on_c, 7, 43, 127
1, 470136, Note_on_c, 4, 52, 127
1, 470136, Note_on_c, 12, 59, 127
1, 470259, Note_off_c, 4, 52, 127
1, 470263, Note_on_c, 2, 50, 127
1, 470386, Note_off_c, 2, 50, 127
1, 470390, Note_on_c, 1, 49, 127
1, 470513, Note_off_c, 1, 49, 127
1, 470516, Note_on_c, 2, 50, 127
1, 470633, Note_off_c, 6, 66, 127
1, 470636, Note_off_c, 12, 59, 127
1, 470639, Note_off_c, 2, 50, 127
1, 470643, Note_on_c, 7, 55, 127
1, 470643, Note_on_c, 6, 66, 127
1, 470766, Note_off_c, 6, 66, 127
1, 470770, Note_on_c, 4, 64, 127
1, 470893, Note_off_c, 4, 64, 127
1, 470897, Note_on_c, 2, 62, 127
1, 471020, Note_off_c, 2, 62, 127
1, 471024, Note_on_c, 1, 61, 127
1, 471143, Note_off_c, 7, 55, 127
1, 471147, Note_off_c, 1, 61, 127
1, 471150, Note_on_c, 6, 54, 127
1, 471150, Note_on_c, 2, 62, 127
1, 471399, Note_off_c, 2, 62, 127
1, 471403, Note_on_c, 4, 64, 127
1, 471650, Note_off_c, 6, 54, 127
1, 471652, Note_off_c, 4, 64, 127
1, 471658, Note_on_c, 4, 52, 127
1, 471658, Note_on_c, 1, 61, 127
1, 471907, Note_off_c, 1, 61, 127
1, 471910, Note_on_c, 10, 57, 127
1, 472033, Note_off_c, 10, 57, 127
1, 472037, Note_on_c, 1, 61, 127
1, 472140, Note_off_c, 7, 43, 127
1, 472158, Note_off_c, 4, 52, 127
1, 472160, Note_off_c, 1, 61, 127
1, 472163, Note_on_c, 6, 42, 127
1, 472163, Note_on_c, 2, 50, 127
1, 472163, Note_on_c, 2, 62, 127
1, 472412, Note_off_c, 2, 62, 127
1, 472417, Note_on_c, 10, 57, 127
1, 472540, Note_off_c, 10, 57, 127
1, 472543, Note_on_c, 2, 62, 127
1, 472663, Note_off_c, 2, 50, 127
1, 472663, Note_off_c, 6, 42, 127
1, 472666, Note_off_c, 2, 62, 127
1, 472670, Note_on_c, 4, 40, 127
1, 472670, Note_on_c, 1, 49, 127
1, 472670, Note_on_c, 4, 64, 127
1, 472919, Note_off_c, 4, 64, 127
1, 472923, Note_on_c, 10, 57, 127
1, 473046, Note_off_c, 10, 57, 127
1, 473050, Note_on_c, 4, 64, 127
1, 473170, Note_off_c, 1, 49, 127
1, 473170, Note_off_c, 4, 40, 127
1, 473173, Note_off_c, 4, 64, 127
1, 473177, Note_on_c, 2, 38, 127
1, 473177, Note_on_c, 2, 50, 127
1, 473177, Note_on_c, 6, 66, 127
1, 473430, Note_on_c, 10, 57, 127
1, 473529, Note_off_c, 6, 66, 127
1, 473553, Note_off_c, 10, 57, 127
1, 473557, Note_on_c, 6, 66, 127
1, 473677, Note_off_c, 2, 38, 127
1, 473680, Note_off_c, 6, 66, 127
1, 473683, Note_on_c, 4, 52, 127
1, 473683, Note_on_c, 7, 67, 127
1, 474180, Note_off_c, 2, 50, 127
1, 474190, Note_on_c, 1, 49, 127
1, 474311, Note_off_c, 7, 67, 127
1, 474443, Note_on_c, 6, 66, 127
1, 474566, Note_off_c, 6, 66, 127
1, 474570, Note_on_c, 4, 64, 127
1, 474686, Note_off_c, 4, 52, 127
1, 474690, Note_off_c, 1, 49, 127
1, 474693, Note_off_c, 4, 64, 127
1, 474697, Note_on_c, 0, 48, 127
1, 474697, Note_on_c, 2, 50, 127
1, 474697, Note_on_c, 6, 66, 127
1, 474946, Note_off_c, 6, 66, 127
1, 474950, Note_on_c, 2, 62, 127
1, 475073, Note_off_c, 2, 62, 127
1, 475077, Note_on_c, 6, 66, 127
1, 475197, Note_off_c, 2, 50, 127
1, 475197, Note_off_c, 0, 48, 127
1, 475200, Note_off_c, 6, 66, 127
1, 475203, Note_on_c, 12, 47, 127
1, 475203, Note_on_c, 4, 52, 127
1, 475203, Note_on_c, 7, 67, 127
1, 475452, Note_off_c, 7, 67, 127
1, 475457, Note_on_c, 2, 62, 127
1, 475580, Note_off_c, 2, 62, 127
1, 475583, Note_on_c, 7, 67, 127
1, 475703, Note_off_c, 4, 52, 127
1, 475703, Note_off_c, 12, 47, 127
1, 475706, Note_off_c, 7, 67, 127
1, 475710, Note_on_c, 10, 45, 127
1, 475710, Note_on_c, 6, 54, 127
1, 475710, Note_on_c, 10, 69, 127
1, 475959, Note_off_c, 10, 69, 127
1, 475963, Note_on_c, 2, 62, 127
1, 476086, Note_off_c, 2, 62, 127
1, 476090, Note_on_c, 10, 69, 127
1, 476210, Note_off_c, 6, 54, 127
1, 476210, Note_off_c, 10, 45, 127
1, 476213, Note_off_c, 10, 69, 127
1, 476216, Note_on_c, 7, 43, 127
1, 476216, Note_on_c, 7, 55, 127
1, 476216, Note_on_c, 12, 71, 127
1, 476470, Note_on_c, 2, 62, 127
1, 476568, Note_off_c, 12, 71, 127
1, 476593, Note_off_c, 2, 62, 127
1, 476596, Note_on_c, 12, 71, 127
1, 476716, Note_off_c, 7, 43, 127
1, 476719, Note_off_c, 12, 71, 127
1, 476723, Note_on_c, 10, 57, 127
1, 476723, Note_on_c, 0, 72, 127
1, 477219, Note_off_c, 7, 55, 127
1, 477230, Note_on_c, 6, 54, 127
1, 477443, Note_off_c, 0, 72, 127
1, 477482, Note_on_c, 12, 71, 127
1, 477605, Note_off_c, 12, 71, 127
1, 477610, Note_on_c, 10, 69, 127
1, 477726, Note_off_c, 10, 57, 127
1, 477730, Note_off_c, 6, 54, 127
1, 477733, Note_off_c, 10, 69, 127
1, 477736, Note_on_c, 7, 55, 127
1, 477736, Note_on_c, 12, 71, 127
1, 477985, Note_off_c, 12, 71, 127
1, 477990, Note_on_c, 7, 67, 127
1, 478113, Note_off_c, 7, 67, 127
1, 478116, Note_on_c, 12, 71, 127
1, 478239, Note_off_c, 12, 71, 127
1, 478243, Note_on_c, 4, 52, 127
1, 478243, Note_on_c, 1, 73, 127
1, 478492, Note_off_c, 1, 73, 127
1, 478497, Note_on_c, 7, 67, 127
1, 478620, Note_off_c, 7, 67, 127
1, 478623, Note_on_c, 1, 73, 127
1, 478743, Note_off_c, 4, 52, 127
1, 478746, Note_off_c, 1, 73, 127
1, 478750, Note_on_c, 2, 50, 127
1, 478750, Note_on_c, 2, 74, 127
1, 479002, Note_on_c, 7, 67, 127
1, 479037, Note_off_c, 2, 74, 127
1, 479125, Note_off_c, 7, 67, 127
1, 479130, Note_on_c, 2, 74, 127
1, 479250, Note_off_c, 2, 50, 127
1, 479253, Note_off_c, 2, 74, 127
1, 479257, Note_on_c, 1, 49, 127
1, 479257, Note_on_c, 4, 76, 127
1, 479740, Note_off_c, 7, 55, 127
1, 479757, Note_off_c, 1, 49, 127
1, 479762, Note_on_c, 6, 54, 127
1, 479762, Note_on_c, 2, 50, 127
1, 479883, Note_off_c, 4, 76, 127
1, 479890, Note_on_c, 2, 74, 127
1, 480013, Note_off_c, 2, 74, 127
1, 480016, Note_on_c, 1, 73, 127
1, 480139, Note_off_c, 1, 73, 127
1, 480143, Note_on_c, 12, 71, 127
1, 480262, Note_off_c, 2, 50, 127
1, 480266, Note_off_c, 12, 71, 127
1, 480269, Note_on_c, 1, 49, 127
1, 480269, Note_on_c, 10, 69, 127
1, 480518, Note_off_c, 10, 69, 127
1, 480523, Note_on_c, 2, 74, 127
1, 480769, Note_off_c, 1, 49, 127
1, 480776, Note_on_c, 12, 47, 127
1, 480898, Note_off_c, 2, 74, 127
1, 480902, Note_on_c, 1, 73, 127
1, 481025, Note_off_c, 1, 73, 127
1, 481029, Note_on_c, 12, 71, 127
1, 481152, Note_off_c, 12, 71, 127
1, 481156, Note_on_c, 10, 69, 127
1, 481268, Note_off_c, 6, 54, 127
1, 481276, Note_off_c, 12, 47, 127
1, 481279, Note_off_c, 10, 69, 127
1, 481282, Note_on_c, 1, 49, 127
1, 481282, Note_on_c, 4, 52, 127
1, 481282, Note_on_c, 7, 67, 127
1, 481531, Note_off_c, 7, 67, 127
1, 481535, Note_on_c, 12, 71, 127
1, 481782, Note_off_c, 1, 49, 127
1, 481789, Note_on_c, 2, 50, 127
1, 481910, Note_off_c, 12, 71, 127
1, 481916, Note_on_c, 10, 69, 127
1, 482039, Note_off_c, 10, 69, 127
1, 482043, Note_on_c, 7, 67, 127
1, 482166, Note_off_c, 7, 67, 127
1, 482170, Note_on_c, 6, 66, 127
1, 482289, Note_off_c, 2, 50, 127
1, 482293, Note_off_c, 6, 66, 127
1, 482296, Note_on_c, 1, 49, 127
1, 482296, Note_on_c, 4, 64, 127
1, 482545, Note_off_c, 4, 64, 127
1, 482550, Note_on_c, 7, 67, 127
1, 482788, Note_off_c, 4, 52, 127
1, 482796, Note_off_c, 1, 49, 127
1, 482802, Note_on_c, 1, 49, 127
1, 482802, Note_on_c, 10, 45, 127
1, 482925, Note_off_c, 7, 67, 127
1, 482930, Note_on_c, 6, 66, 127
1, 483053, Note_off_c, 6, 66, 127
1, 483056, Note_on_c, 4, 64, 127
1, 483179, Note_off_c, 4, 64, 127
1, 483182, Note_on_c, 2, 62, 127
1, 483302, Note_off_c, 10, 45, 127
1, 483302, Note_off_c, 1, 49, 127
1, 483305, Note_off_c, 2, 62, 127
1, 483310, Note_on_c, 4, 52, 127
1, 483310, Note_on_c, 7, 43, 127
1, 483310, Note_on_c, 1, 61, 127
1, 483559, Note_off_c, 1, 61, 127
1, 483562, Note_on_c, 10, 69, 127
1, 483810, Note_off_c, 7, 43, 127
1, 483810, Note_off_c, 4, 52, 127
1, 483815, Note_on_c, 6, 42, 127
1, 483815, Note_on_c, 2, 50, 127
1, 484062, Note_off_c, 10, 69, 127
1, 484069, Note_on_c, 2, 62, 127
1, 484315, Note_off_c, 6, 42, 127
1, 484318, Note_off_c, 2, 62, 127
1, 484322, Note_on_c, 7, 43, 127
1, 484322, Note_on_c, 6, 66, 127
1, 484818, Note_off_c, 2, 50, 127
1, 484822, Note_off_c, 6, 66, 127
1, 484822, Note_off_c, 7, 43, 127
1, 484829, Note_on_c, 10, 45, 127
1, 484829, Note_on_c, 7, 55, 127
1, 484829, Note_on_c, 6, 66, 127
1, 484829, Note_on_c, 1, 61, 127
1, 484952, Note_off_c, 6, 66, 127
1, 484956, Note_on_c, 4, 64, 127
1, 485077, Note_off_c, 1, 61, 127
1, 485079, Note_off_c, 4, 64, 127
1, 485081, Note_on_c, 2, 62, 127
1, 485204, Note_off_c, 2, 62, 127
1, 485209, Note_on_c, 4, 64, 127
1, 485329, Note_off_c, 7, 55, 127
1, 485329, Note_off_c, 10, 45, 127
1, 485332, Note_off_c, 4, 64, 127
1, 485335, Note_on_c, 6, 54, 127
1, 485335, Note_on_c, 2, 50, 127
1, 485335, Note_on_c, 2, 62, 127
1, 485335, Note_on_c, 10, 57, 127
1, 485842, Note_on_c, 2, 38, 127
1, 486349, Note_on_c, 10, 45, 127
1, 486841, Note_off_c, 10, 57, 127
1, 486841, Note_off_c, 2, 50, 127
1, 486841, Note_off_c, 6, 54, 127
1, 486849, Note_off_c, 10, 45, 127
1, 486881, Note_on_c, 2, 50, 127
1, 486882, Note_on_c, 6, 54, 127
1, 486884, Note_on_c, 10, 57, 127
1, 488789, Note_off_c, 2, 62, 127
1, 488945, Note_off_c, 2, 38, 127
1, 488977, Note_off_c, 2, 50, 127
1, 488978, Note_off_c, 6, 54, 127
1, 488980, Note_off_c, 10, 57, 127
1, 489173, Note_on_c, 10, 69, 127
1, 489481, Note_off_c, 10, 69, 127
1, 489521, Note_on_c, 2, 62, 127
1, 489521, Note_on_c, 7, 67, 127
1, 489657, Note_off_c, 7, 67, 127
1, 489660, Note_on_c, 6, 66, 127
1, 489794, Note_off_c, 2, 62, 127
1, 489796, Note_off_c, 6, 66, 127
1, 489800, Note_on_c, 4, 64, 127
1, 490078, Note_on_c, 1, 61, 127
1, 490078, Note_on_c, 10, 57, 127
1, 490351, Note_off_c, 10, 57, 127
1, 490351, Note_off_c, 1, 61, 127
1, 490351, Note_off_c, 4, 64, 127
1, 490356, Note_on_c, 2, 62, 127
1, 490635, Note_on_c, 6, 54, 127
1, 490635, Note_on_c, 10, 57, 127
1, 490907, Note_off_c, 2, 62, 127
1, 490908, Note_off_c, 10, 57, 127
1, 490908, Note_off_c, 6, 54, 127
1, 490914, Note_on_c, 1, 61, 127
1, 491192, Note_on_c, 4, 52, 127
1, 491192, Note_on_c, 7, 55, 127
1, 491465, Note_off_c, 7, 55, 127
1, 491465, Note_off_c, 4, 52, 127
1, 491465, Note_off_c, 1, 61, 127
1, 491471, Note_on_c, 2, 62, 127
1, 491749, Note_on_c, 10, 57, 127
1, 491749, Note_on_c, 6, 54, 127
1, 492022, Note_off_c, 2, 62, 127
1, 492023, Note_off_c, 6, 54, 127
1, 492028, Note_on_c, 4, 64, 127
1, 492028, Note_on_c, 4, 52, 127
1, 492164, Note_off_c, 4, 52, 127
1, 492164, Note_off_c, 4, 64, 127
1, 492168, Note_on_c, 6, 66, 127
1, 492168, Note_on_c, 2, 50, 127
1, 492304, Note_off_c, 2, 50, 127
1, 492304, Note_off_c, 6, 66, 127
1, 492308, Note_on_c, 7, 67, 127
1, 492308, Note_on_c, 1, 49, 127
1, 492577, Note_off_c, 10, 57, 127
1, 492582, Note_off_c, 1, 49, 127
1, 492582, Note_off_c, 7, 67, 127
1, 492586, Note_on_c, 6, 66, 127
1, 492586, Note_on_c, 2, 62, 127
1, 492586, Note_on_c, 10, 57, 127
1, 492586, Note_on_c, 2, 50, 127
1, 492860, Note_off_c, 2, 50, 127
1, 492860, Note_off_c, 10, 57, 127
1, 492860, Note_off_c, 2, 62, 127
1, 492860, Note_off_c, 6, 66, 127
1, 492865, Note_on_c, 2, 62, 127
1, 492865, Note_on_c, 7, 67, 127
1, 492865, Note_on_c, 10, 57, 127
1, 492931, Note_off_c, 7, 67, 127
1, 492934, Note_on_c, 6, 66, 127
1, 493000, Note_off_c, 6, 66, 127
1, 493004, Note_on_c, 7, 67, 127
1, 493070, Note_off_c, 7, 67, 127
1, 493073, Note_on_c, 6, 66, 127
1, 493138, Note_off_c, 10, 57, 127
1, 493138, Note_off_c, 2, 62, 127
1, 493139, Note_off_c, 6, 66, 127
1, 493143, Note_on_c, 1, 61, 127
1, 493143, Note_on_c, 4, 64, 127
1, 493421, Note_on_c, 10, 45, 127
1, 493545, Note_off_c, 4, 64, 127
1, 493545, Note_off_c, 1, 61, 127
1, 493701, Note_on_c, 4, 64, 127
1, 493701, Note_on_c, 10, 69, 127
1, 493701, Note_on_c, 10, 57, 127
1, 493701, Note_on_c, 1, 49, 127
1, 493701, Note_on_c, 4, 52, 127
1, 493975, Note_off_c, 4, 52, 127
1, 493975, Note_off_c, 1, 49, 127
1, 493975, Note_off_c, 10, 57, 127
1, 493975, Note_off_c, 10, 69, 127
1, 493975, Note_off_c, 4, 64, 127
1, 493979, Note_on_c, 6, 66, 127
1, 493979, Note_on_c, 2, 62, 127
1, 493979, Note_on_c, 10, 57, 127
1, 493979, Note_on_c, 6, 54, 127
1, 493979, Note_on_c, 2, 50, 127
1, 494252, Note_off_c, 2, 50, 127
1, 494252, Note_off_c, 6, 54, 127
1, 494252, Note_off_c, 10, 57, 127
1, 494253, Note_off_c, 2, 62, 127
1, 494253, Note_off_c, 6, 66, 127
1, 494257, Note_on_c, 4, 64, 127
1, 494531, Note_off_c, 4, 64, 127
1, 494536, Note_on_c, 1, 61, 127
1, 494536, Note_on_c, 10, 57, 127
1, 494536, Note_on_c, 7, 55, 127
1, 494536, Note_on_c, 4, 52, 127
1, 494809, Note_off_c, 4, 52, 127
1, 494809, Note_off_c, 7, 55, 127
1, 494809, Note_off_c, 10, 57, 127
1, 494810, Note_off_c, 1, 61, 127
1, 494814, Note_on_c, 2, 62, 127
1, 495094, Note_on_c, 10, 57, 127
1, 495094, Note_on_c, 6, 54, 127
1, 495365, Note_off_c, 2, 62, 127
1, 495367, Note_off_c, 6, 54, 127
1, 495367, Note_off_c, 10, 57, 127
1, 495372, Note_on_c, 1, 61, 127
1, 495650, Note_on_c, 10, 57, 127
1, 495650, Note_on_c, 7, 55, 127
1, 495923, Note_off_c, 7, 55, 127
1, 495923, Note_off_c, 10, 57, 127
1, 495923, Note_off_c, 1, 61, 127
1, 495929, Note_on_c, 2, 62, 127
1, 496208, Note_on_c, 10, 57, 127
1, 496208, Note_on_c, 6, 54, 127
1, 496480, Note_off_c, 2, 62, 127
1, 496482, Note_off_c, 6, 54, 127
1, 496487, Note_on_c, 4, 64, 127
1, 496487, Note_on_c, 4, 52, 127
1, 496623, Note_off_c, 4, 52, 127
1, 496623, Note_off_c, 4, 64, 127
1, 496626, Note_on_c, 6, 66, 127
1, 496626, Note_on_c, 2, 50, 127
1, 496737, Note_off_c, 10, 45, 127
1, 496762, Note_off_c, 2, 50, 127
1, 496762, Note_off_c, 6, 66, 127
1, 496766, Note_on_c, 7, 67, 127
1, 496766, Note_on_c, 1, 49, 127
1, 497036, Note_off_c, 10, 57, 127
1, 497040, Note_off_c, 1, 49, 127
1, 497040, Note_off_c, 7, 67, 127
1, 497044, Note_on_c, 2, 62, 127
1, 497044, Note_on_c, 6, 66, 127
1, 497044, Note_on_c, 10, 57, 127
1, 497044, Note_on_c, 2, 50, 127
1, 497318, Note_off_c, 2, 50, 127
1, 497318, Note_off_c, 10, 57, 127
1, 497318, Note_off_c, 6, 66, 127
1, 497318, Note_off_c, 2, 62, 127
1, 497323, Note_on_c, 2, 62, 127
1, 497323, Note_on_c, 7, 67, 127
1, 497323, Note_on_c, 10, 57, 127
1, 497389, Note_off_c, 7, 67, 127
1, 497392, Note_on_c, 6, 66, 127
1, 497458, Note_off_c, 6, 66, 127
1, 497462, Note_on_c, 7, 67, 127
1, 497528, Note_off_c, 7, 67, 127
1, 497532, Note_on_c, 6, 66, 127
1, 497596, Note_off_c, 2, 62, 127
1, 497598, Note_off_c, 6, 66, 127
1, 497601, Note_on_c, 1, 61, 127
1, 497601, Note_on_c, 4, 64, 127
1, 497601, Note_on_c, 10, 45, 127
1, 497870, Note_off_c, 10, 57, 127
1, 498003, Note_off_c, 10, 45, 127
1, 498003, Note_off_c, 4, 64, 127
1, 498141, Note_off_c, 1, 61, 127
1, 498159, Note_on_c, 4, 64, 127
1, 498159, Note_on_c, 1, 61, 127
1, 498159, Note_on_c, 10, 57, 127
1, 498433, Note_off_c, 10, 57, 127
1, 498433, Note_off_c, 1, 61, 127
1, 498433, Note_off_c, 4, 64, 127
1, 498437, Note_on_c, 6, 66, 127
1, 498437, Note_on_c, 2, 62, 127
1, 498573, Note_off_c, 6, 66, 127
1, 498577, Note_on_c, 8, 68, 127
1, 498711, Note_off_c, 2, 62, 127
1, 498713, Note_off_c, 8, 68, 127
1, 498715, Note_on_c, 10, 69, 127
1, 498715, Note_on_c, 1, 61, 127
1, 498989, Note_off_c, 1, 61, 127
1, 498994, Note_on_c, 12, 59, 127
1, 499204, Note_off_c, 10, 69, 127
1, 499268, Note_off_c, 12, 59, 127
1, 499273, Note_on_c, 8, 68, 127
1, 499273, Note_on_c, 10, 57, 127
1, 499409, Note_off_c, 8, 68, 127
1, 499412, Note_on_c, 10, 69, 127
1, 499547, Note_off_c, 10, 57, 127
1, 499548, Note_off_c, 10, 69, 127
1, 499552, Note_on_c, 12, 71, 127
1, 499552, Note_on_c, 8, 56, 127
1, 499688, Note_off_c, 12, 71, 127
1, 499690, Note_on_c, 10, 69, 127
1, 499826, Note_off_c, 10, 69, 127
1, 499826, Note_off_c, 8, 56, 127
1, 499830, Note_on_c, 8, 68, 127
1, 499830, Note_on_c, 10, 57, 127
1, 499966, Note_off_c, 8, 68, 127
1, 499970, Note_on_c, 6, 66, 127
1, 500104, Note_off_c, 10, 57, 127
1, 500106, Note_off_c, 6, 66, 127
1, 500108, Note_on_c, 4, 64, 127
1, 500108, Note_on_c, 8, 56, 127
1, 500244, Note_off_c, 4, 64, 127
1, 500248, Note_on_c, 6, 66, 127
1, 500382, Note_off_c, 8, 56, 127
1, 500384, Note_off_c, 6, 66, 127
1, 500388, Note_on_c, 8, 68, 127
1, 500388, Note_on_c, 6, 54, 127
1, 500524, Note_off_c, 8, 68, 127
1, 500527, Note_on_c, 10, 69, 127
1, 500662, Note_off_c, 6, 54, 127
1, 500663, Note_off_c, 10, 69, 127
1, 500667, Note_on_c, 12, 71, 127
1, 500667, Note_on_c, 4, 52, 127
1, 500803, Note_off_c, 12, 71, 127
1, 500806, Note_on_c, 1, 73, 127
1, 500941, Note_off_c, 4, 52, 127
1, 500942, Note_off_c, 1, 73, 127
1, 500945, Note_on_c, 2, 74, 127
1, 500945, Note_on_c, 6, 54, 127
1, 501219, Note_off_c, 6, 54, 127
1, 501224, Note_on_c, 4, 52, 127
1, 501434, Note_off_c, 2, 74, 127
1, 501498, Note_off_c, 4, 52, 127
1, 501502, Note_on_c, 1, 73, 127
1, 501502, Note_on_c, 2, 50, 127
1, 501638, Note_off_c, 1, 73, 127
1, 501642, Note_on_c, 2, 74, 127
1, 501776, Note_off_c, 2, 50, 127
1, 501778, Note_off_c, 2, 74, 127
1, 501781, Note_on_c, 4, 76, 127
1, 501781, Note_on_c, 1, 49, 127
1, 501917, Note_off_c, 4, 76, 127
1, 501920, Note_on_c, 2, 74, 127
1, 502055, Note_off_c, 1, 49, 127
1, 502056, Note_off_c, 2, 74, 127
1, 502060, Note_on_c, 1, 73, 127
1, 502060, Note_on_c, 2, 50, 127
1, 502196, Note_off_c, 1, 73, 127
1, 502199, Note_on_c, 12, 71, 127
1, 502334, Note_off_c, 2, 50, 127
1, 502335, Note_off_c, 12, 71, 127
1, 502338, Note_on_c, 10, 69, 127
1, 502338, Note_on_c, 1, 49, 127
1, 502474, Note_off_c, 10, 69, 127
1, 502477, Note_on_c, 12, 71, 127
1, 502612, Note_off_c, 1, 49, 127
1, 502613, Note_off_c, 12, 71, 127
1, 502617, Note_on_c, 1, 73, 127
1, 502617, Note_on_c, 12, 47, 127
1, 502753, Note_off_c, 1, 73, 127
1, 502756, Note_on_c, 2, 74, 127
1, 502891, Note_off_c, 12, 47, 127
1, 502892, Note_off_c, 2, 74, 127
1, 502895, Note_on_c, 4, 76, 127
1, 502895, Note_on_c, 10, 45, 127
1, 503031, Note_off_c, 4, 76, 127
1, 503035, Note_on_c, 6, 78, 127
1, 503169, Note_off_c, 10, 45, 127
1, 503171, Note_off_c, 6, 78, 127
1, 503173, Note_on_c, 7, 79, 127
1, 503173, Note_on_c, 12, 47, 127
1, 503447, Note_off_c, 12, 47, 127
1, 503453, Note_on_c, 1, 49, 127
1, 503691, Note_off_c, 7, 79, 127
1, 503727, Note_off_c, 1, 49, 127
1, 503731, Note_on_c, 6, 78, 127
1, 503731, Note_on_c, 10, 45, 127
1, 503867, Note_off_c, 6, 78, 127
1, 503870, Note_on_c, 4, 76, 127
1, 504005, Note_off_c, 10, 45, 127
1, 504006, Note_off_c, 4, 76, 127
1, 504009, Note_on_c, 6, 78, 127
1, 504009, Note_on_c, 2, 50, 127
1, 504149, Note_on_c, 10, 81, 127
1, 504166, Note_off_c, 6, 78, 127
1, 504285, Note_off_c, 10, 81, 127
1, 504288, Note_on_c, 7, 79, 127
1, 504288, Note_on_c, 2, 38, 127
1, 504424, Note_off_c, 7, 79, 127
1, 504428, Note_on_c, 6, 78, 127
1, 504556, Note_off_c, 2, 50, 127
1, 504562, Note_off_c, 2, 38, 127
1, 504564, Note_off_c, 6, 78, 127
1, 504567, Note_on_c, 12, 83, 127
1, 504567, Note_on_c, 2, 50, 127
1, 504696, Note_off_c, 12, 83, 127
1, 504707, Note_on_c, 10, 81, 127
1, 504836, Note_off_c, 10, 81, 127
1, 504841, Note_off_c, 2, 50, 127
1, 504847, Note_on_c, 8, 80, 127
1, 504847, Note_on_c, 12, 47, 127
1, 504976, Note_off_c, 8, 80, 127
1, 504985, Note_on_c, 6, 78, 127
1, 505114, Note_off_c, 6, 78, 127
1, 505121, Note_off_c, 12, 47, 127
1, 505125, Note_on_c, 4, 76, 127
1, 505125, Note_on_c, 1, 49, 127
1, 505264, Note_on_c, 10, 81, 127
1, 505282, Note_off_c, 4, 76, 127
1, 505393, Note_off_c, 10, 81, 127
1, 505399, Note_off_c, 1, 49, 127
1, 505403, Note_on_c, 8, 80, 127
1, 505403, Note_on_c, 10, 45, 127
1, 505532, Note_off_c, 8, 80, 127
1, 505543, Note_on_c, 6, 78, 127
1, 505672, Note_off_c, 6, 78, 127
1, 505677, Note_off_c, 10, 45, 127
1, 505682, Note_on_c, 4, 76, 127
1, 505682, Note_on_c, 4, 52, 127
1, 505811, Note_off_c, 4, 76, 127
1, 505821, Note_on_c, 2, 74, 127
1, 505950, Note_off_c, 2, 74, 127
1, 505960, Note_on_c, 1, 73, 127
1, 505960, Note_on_c, 4, 40, 127
1, 506089, Note_off_c, 1, 73, 127
1, 506100, Note_on_c, 12, 71, 127
1, 506229, Note_off_c, 12, 71, 127
1, 506229, Note_off_c, 4, 52, 127
1, 506234, Note_off_c, 4, 40, 127
1, 506239, Note_on_c, 10, 69, 127
1, 506239, Note_on_c, 10, 45, 127
1, 506930, Note_off_c, 10, 69, 127
1, 507067, Note_off_c, 10, 45, 127
1, 507075, Note_on_c, 4, 76, 127
1, 507349, Note_off_c, 4, 76, 127
1, 507353, Note_on_c, 2, 74, 127
1, 507353, Note_on_c, 10, 57, 127
1, 507489, Note_off_c, 2, 74, 127
1, 507493, Note_on_c, 1, 73, 127
1, 507626, Note_off_c, 10, 57, 127
1, 507629, Note_off_c, 1, 73, 127
1, 507632, Note_on_c, 12, 71, 127
1, 507911, Note_on_c, 7, 55, 127
1, 507911, Note_on_c, 1, 61, 127
1, 508183, Note_off_c, 12, 71, 127
1, 508184, Note_off_c, 1, 61, 127
1, 508184, Note_off_c, 7, 55, 127
1, 508189, Note_on_c, 10, 69, 127
1, 508468, Note_on_c, 2, 62, 127
1, 508468, Note_on_c, 6, 54, 127
1, 508740, Note_off_c, 10, 69, 127
1, 508741, Note_off_c, 6, 54, 127
1, 508741, Note_off_c, 2, 62, 127
1, 508747, Note_on_c, 12, 71, 127
1, 508883, Note_off_c, 12, 71, 127
1, 508886, Note_on_c, 1, 73, 127
1, 509022, Note_off_c, 1, 73, 127
1, 509026, Note_on_c, 2, 74, 127
1, 509026, Note_on_c, 4, 52, 127
1, 509026, Note_on_c, 7, 55, 127
1, 509299, Note_off_c, 7, 55, 127
1, 509299, Note_off_c, 4, 52, 127
1, 509300, Note_off_c, 2, 74, 127
1, 509305, Note_on_c, 1, 73, 127
1, 509583, Note_on_c, 2, 50, 127
1, 509583, Note_on_c, 6, 54, 127
1, 509765, Note_off_c, 1, 73, 127
1, 509857, Note_off_c, 2, 50, 127
1, 509861, Note_on_c, 2, 74, 127
1, 509861, Note_on_c, 12, 47, 127
1, 509997, Note_off_c, 12, 47, 127
1, 509997, Note_off_c, 2, 74, 127
1, 510001, Note_on_c, 4, 76, 127
1, 510001, Note_on_c, 1, 49, 127
1, 510130, Note_off_c, 6, 54, 127
1, 510137, Note_off_c, 1, 49, 127
1, 510137, Note_off_c, 4, 76, 127
1, 510140, Note_on_c, 6, 78, 127
1, 510140, Note_on_c, 2, 50, 127
1, 510414, Note_off_c, 2, 50, 127
1, 510414, Note_off_c, 6, 78, 127
1, 510419, Note_on_c, 2, 62, 127
1, 510419, Note_on_c, 12, 71, 127
1, 510419, Note_on_c, 4, 52, 127
1, 510693, Note_off_c, 4, 52, 127
1, 510697, Note_on_c, 6, 54, 127
1, 510833, Note_off_c, 6, 54, 127
1, 510836, Note_on_c, 4, 52, 127
1, 510970, Note_off_c, 12, 71, 127
1, 510970, Note_off_c, 2, 62, 127
1, 510972, Note_off_c, 4, 52, 127
1, 510976, Note_on_c, 11, 70, 127
1, 510976, Note_on_c, 1, 61, 127
1, 510976, Note_on_c, 6, 54, 127
1, 511112, Note_off_c, 6, 54, 127
1, 511115, Note_on_c, 7, 55, 127
1, 511251, Note_off_c, 7, 55, 127
1, 511254, Note_on_c, 6, 54, 127
1, 511292, Note_off_c, 1, 61, 127
1, 511292, Note_off_c, 11, 70, 127
1, 511390, Note_off_c, 6, 54, 127
1, 511394, Note_on_c, 4, 52, 127
1, 511530, Note_off_c, 4, 52, 127
1, 511533, Note_on_c, 6, 78, 127
1, 511533, Note_on_c, 2, 50, 127
1, 511669, Note_off_c, 2, 50, 127
1, 511672, Note_on_c, 1, 49, 127
1, 511807, Note_off_c, 6, 78, 127
1, 511808, Note_off_c, 1, 49, 127
1, 511812, Note_on_c, 4, 76, 127
1, 511812, Note_on_c, 12, 47, 127
1, 511878, Note_off_c, 4, 76, 127
1, 511881, Note_on_c, 2, 74, 127
1, 511947, Note_off_c, 2, 74, 127
1, 511948, Note_off_c, 12, 47, 127
1, 511951, Note_on_c, 4, 76, 127
1, 511951, Note_on_c, 10, 45, 127
1, 512017, Note_off_c, 4, 76, 127
1, 512021, Note_on_c, 2, 74, 127
1, 512087, Note_off_c, 2, 74, 127
1, 512087, Note_off_c, 10, 45, 127
1, 512090, Note_on_c, 1, 73, 127
1, 512090, Note_on_c, 7, 43, 127
1, 512226, Note_off_c, 7, 43, 127
1, 512229, Note_on_c, 6, 42, 127
1, 512365, Note_off_c, 6, 42, 127
1, 512369, Note_on_c, 4, 40, 127
1, 512505, Note_off_c, 4, 40, 127
1, 512508, Note_on_c, 2, 38, 127
1, 512641, Note_off_c, 1, 73, 127
1, 512644, Note_off_c, 2, 38, 127
1, 512648, Note_on_c, 12, 71, 127
1, 512648, Note_on_c, 4, 40, 127
1, 512784, Note_off_c, 4, 40, 127
1, 512784, Note_off_c, 12, 71, 127
1, 512788, Note_on_c, 11, 70, 127
1, 512788, Note_on_c, 6, 42, 127
1, 512924, Note_off_c, 6, 42, 127
1, 512924, Note_off_c, 11, 70, 127
1, 512926, Note_on_c, 12, 71, 127
1, 512926, Note_on_c, 7, 43, 127
1, 513062, Note_off_c, 12, 71, 127
1, 513066, Note_on_c, 2, 74, 127
1, 513200, Note_off_c, 7, 43, 127
1, 513202, Note_off_c, 2, 74, 127
1, 513206, Note_on_c, 1, 73, 127
1, 513206, Note_on_c, 7, 55, 127
1, 513342, Note_off_c, 1, 73, 127
1, 513344, Note_on_c, 12, 71, 127
1, 513480, Note_off_c, 12, 71, 127
1, 513484, Note_on_c, 1, 73, 127
1, 513620, Note_off_c, 1, 73, 127
1, 513623, Note_on_c, 3, 75, 127
1, 513666, Note_off_c, 7, 55, 127
1, 513759, Note_off_c, 3, 75, 127
1, 513762, Note_on_c, 4, 76, 127
1, 513762, Note_on_c, 6, 54, 127
1, 513898, Note_off_c, 4, 76, 127
1, 513902, Note_on_c, 6, 78, 127
1, 514036, Note_off_c, 6, 54, 127
1, 514038, Note_off_c, 6, 78, 127
1, 514041, Note_on_c, 7, 79, 127
1, 514041, Note_on_c, 4, 52, 127
1, 514177, Note_off_c, 7, 79, 127
1, 514181, Note_on_c, 12, 83, 127
1, 514315, Note_off_c, 4, 52, 127
1, 514317, Note_off_c, 12, 83, 127
1, 514319, Note_on_c, 10, 81, 127
1, 514319, Note_on_c, 0, 60, 127
1, 514455, Note_off_c, 10, 81, 127
1, 514459, Note_on_c, 7, 79, 127
1, 514595, Note_off_c, 7, 79, 127
1, 514599, Note_on_c, 10, 81, 127
1, 514735, Note_off_c, 10, 81, 127
1, 514737, Note_on_c, 12, 83, 127
1, 514779, Note_off_c, 0, 60, 127
1, 514873, Note_off_c, 12, 83, 127
1, 514877, Note_on_c, 0, 84, 127
1, 514877, Note_on_c, 10, 57, 127
1, 515151, Note_off_c, 10, 57, 127
1, 515151, Note_off_c, 0, 84, 127
1, 515155, Note_on_c, 4, 76, 127
1, 515155, Note_on_c, 12, 59, 127
1, 515291, Note_off_c, 12, 59, 127
1, 515295, Note_on_c, 10, 57, 127
1, 515429, Note_off_c, 4, 76, 127
1, 515431, Note_off_c, 10, 57, 127
1, 515434, Note_on_c, 3, 75, 127
1, 515434, Note_on_c, 12, 59, 127
1, 515500, Note_off_c, 3, 75, 127
1, 515504, Note_on_c, 4, 76, 127
1, 515570, Note_off_c, 4, 76, 127
1, 515570, Note_off_c, 12, 59, 127
1, 515573, Note_on_c, 3, 75, 127
1, 515573, Note_on_c, 0, 60, 127
1, 515709, Note_off_c, 0, 60, 127
1, 515712, Note_on_c, 12, 59, 127
1, 515846, Note_off_c, 3, 75, 127
1, 515848, Note_off_c, 12, 59, 127
1, 515852, Note_on_c, 10, 57, 127
1, 515988, Note_off_c, 10, 57, 127
1, 515991, Note_on_c, 12, 71, 127
1, 515991, Note_on_c, 7, 55, 127
1, 516127, Note_off_c, 7, 55, 127
1, 516130, Note_on_c, 6, 54, 127
1, 516265, Note_off_c, 12, 71, 127
1, 516266, Note_off_c, 6, 54, 127
1, 516270, Note_on_c, 7, 79, 127
1, 516270, Note_on_c, 4, 52, 127
1, 516406, Note_off_c, 4, 52, 127
1, 516409, Note_on_c, 12, 59, 127
1, 516544, Note_off_c, 7, 79, 127
1, 516545, Note_off_c, 12, 59, 127
1, 516548, Note_on_c, 6, 78, 127
1, 516548, Note_on_c, 10, 57, 127
1, 516684, Note_off_c, 10, 57, 127
1, 516688, Note_on_c, 7, 55, 127
1, 516824, Note_off_c, 7, 55, 127
1, 516828, Note_on_c, 12, 47, 127
1, 516964, Note_off_c, 12, 47, 127
1, 516967, Note_on_c, 10, 57, 127
1, 517037, Note_off_c, 6, 78, 127
1, 517103, Note_off_c, 10, 57, 127
1, 517106, Note_on_c, 4, 76, 127
1, 517106, Note_on_c, 7, 55, 127
1, 517242, Note_off_c, 7, 55, 127
1, 517242, Note_off_c, 4, 76, 127
1, 517246, Note_on_c, 3, 75, 127
1, 517246, Note_on_c, 6, 54, 127
1, 517382, Note_off_c, 6, 54, 127
1, 517382, Note_off_c, 3, 75, 127
1, 517385, Note_on_c, 4, 76, 127
1, 517385, Note_on_c, 7, 55, 127
1, 517521, Note_off_c, 4, 76, 127
1, 517524, Note_on_c, 7, 79, 127
1, 517659, Note_off_c, 7, 55, 127
1, 517660, Note_off_c, 7, 79, 127
1, 517664, Note_on_c, 6, 78, 127
1, 517664, Note_on_c, 12, 59, 127
1, 517800, Note_off_c, 6, 78, 127
1, 517802, Note_on_c, 4, 76, 127
1, 517938, Note_off_c, 4, 76, 127
1, 517938, Note_off_c, 12, 59, 127
1, 517942, Note_on_c, 2, 74, 127
1, 517942, Note_on_c, 4, 64, 127
1, 518078, Note_off_c, 2, 74, 127
1, 518082, Note_on_c, 1, 73, 127
1, 518171, Note_off_c, 4, 64, 127
1, 518218, Note_off_c, 1, 73, 127
1, 518220, Note_on_c, 12, 71, 127
1, 518220, Note_on_c, 1, 49, 127
1, 518356, Note_off_c, 12, 71, 127
1, 518360, Note_on_c, 10, 69, 127
1, 518494, Note_off_c, 1, 49, 127
1, 518496, Note_off_c, 10, 69, 127
1, 518499, Note_on_c, 6, 78, 127
1, 518499, Note_on_c, 2, 50, 127
1, 518635, Note_off_c, 2, 50, 127
1, 518638, Note_on_c, 10, 57, 127
1, 518773, Note_off_c, 6, 78, 127
1, 518774, Note_off_c, 10, 57, 127
1, 518778, Note_on_c, 4, 76, 127
1, 518778, Note_on_c, 7, 55, 127
1, 518914, Note_off_c, 7, 55, 127
1, 518917, Note_on_c, 6, 54, 127
1, 519053, Note_off_c, 6, 54, 127
1, 519057, Note_on_c, 10, 45, 127
1, 519193, Note_off_c, 10, 45, 127
1, 519195, Note_on_c, 7, 55, 127
1, 519267, Note_off_c, 4, 76, 127
1, 519331, Note_off_c, 7, 55, 127
1, 519335, Note_on_c, 2, 74, 127
1, 519335, Note_on_c, 6, 54, 127
1, 519471, Note_off_c, 6, 54, 127
1, 519471, Note_off_c, 2, 74, 127
1, 519475, Note_on_c, 1, 73, 127
1, 519475, Note_on_c, 4, 52, 127
1, 519611, Note_off_c, 4, 52, 127
1, 519611, Note_off_c, 1, 73, 127
1, 519613, Note_on_c, 2, 74, 127
1, 519613, Note_on_c, 6, 54, 127
1, 519749, Note_off_c, 2, 74, 127
1, 519753, Note_on_c, 6, 78, 127
1, 519887, Note_off_c, 6, 54, 127
1, 519889, Note_off_c, 6, 78, 127
1, 519892, Note_on_c, 4, 76, 127
1, 519892, Note_on_c, 10, 57, 127
1, 520028, Note_off_c, 4, 76, 127
1, 520031, Note_on_c, 2, 74, 127
1, 520166, Note_off_c, 10, 57, 127
1, 520167, Note_off_c, 2, 74, 127
1, 520171, Note_on_c, 1, 73, 127
1, 520171, Note_on_c, 2, 50, 127
1, 520307, Note_off_c, 1, 73, 127
1, 520310, Note_on_c, 12, 71, 127
1, 520445, Note_off_c, 2, 50, 127
1, 520446, Note_off_c, 12, 71, 127
1, 520449, Note_on_c, 11, 70, 127
1, 520449, Note_on_c, 6, 54, 127
1, 520585, Note_off_c, 11, 70, 127
1, 520588, Note_on_c, 12, 71, 127
1, 520693, Note_off_c, 6, 54, 127
1, 520724, Note_off_c, 12, 71, 127
1, 520728, Note_on_c, 4, 76, 127
1, 520728, Note_on_c, 7, 55, 127
1, 520868, Note_on_c, 7, 67, 127
1, 520899, Note_off_c, 7, 55, 127
1, 521002, Note_off_c, 4, 76, 127
1, 521004, Note_off_c, 7, 67, 127
1, 521007, Note_on_c, 2, 74, 127
1, 521007, Note_on_c, 6, 66, 127
1, 521143, Note_off_c, 6, 66, 127
1, 521147, Note_on_c, 4, 64, 127
1, 521283, Note_off_c, 4, 64, 127
1, 521286, Note_on_c, 12, 59, 127
1, 521422, Note_off_c, 12, 59, 127
1, 521425, Note_on_c, 6, 66, 127
1, 521496, Note_off_c, 2, 74, 127
1, 521561, Note_off_c, 6, 66, 127
1, 521565, Note_on_c, 0, 72, 127
1, 521565, Note_on_c, 4, 64, 127
1, 521701, Note_off_c, 4, 64, 127
1, 521701, Note_off_c, 0, 72, 127
1, 521704, Note_on_c, 12, 71, 127
1, 521704, Note_on_c, 2, 62, 127
1, 521840, Note_off_c, 2, 62, 127
1, 521840, Note_off_c, 12, 71, 127
1, 521843, Note_on_c, 0, 72, 127
1, 521843, Note_on_c, 4, 52, 127
1, 521979, Note_off_c, 4, 52, 127
1, 521979, Note_off_c, 0, 72, 127
1, 521982, Note_on_c, 7, 79, 127
1, 521982, Note_on_c, 4, 64, 127
1, 522118, Note_off_c, 4, 64, 127
1, 522118, Note_off_c, 7, 79, 127
1, 522122, Note_on_c, 6, 78, 127
1, 522122, Note_on_c, 2, 62, 127
1, 522258, Note_off_c, 2, 62, 127
1, 522261, Note_on_c, 1, 61, 127
1, 522397, Note_off_c, 1, 61, 127
1, 522400, Note_on_c, 7, 55, 127
1, 522536, Note_off_c, 7, 55, 127
1, 522540, Note_on_c, 2, 62, 127
1, 522625, Note_off_c, 6, 78, 127
1, 522676, Note_off_c, 2, 62, 127
1, 522678, Note_on_c, 5, 77, 127
1, 522678, Note_on_c, 1, 61, 127
1, 522814, Note_off_c, 1, 61, 127
1, 522818, Note_on_c, 12, 59, 127
1, 522952, Note_off_c, 5, 77, 127
1, 522954, Note_off_c, 12, 59, 127
1, 522958, Note_on_c, 6, 78, 127
1, 522958, Note_on_c, 11, 46, 127
1, 523187, Note_off_c, 6, 78, 127
1, 523232, Note_off_c, 11, 46, 127
1, 523236, Note_on_c, 12, 71, 127
1, 523236, Note_on_c, 2, 50, 127
1, 523465, Note_off_c, 12, 71, 127
1, 523510, Note_off_c, 2, 50, 127
1, 523514, Note_on_c, 2, 74, 127
1, 523514, Note_on_c, 4, 52, 127
1, 523650, Note_off_c, 2, 74, 127
1, 523654, Note_on_c, 1, 73, 127
1, 523788, Note_off_c, 4, 52, 127
1, 523790, Note_off_c, 1, 73, 127
1, 523793, Note_on_c, 12, 71, 127
1, 523793, Note_on_c, 6, 54, 127
1, 523929, Note_off_c, 12, 71, 127
1, 523933, Note_on_c, 11, 70, 127
1, 524067, Note_off_c, 6, 54, 127
1, 524069, Note_off_c, 11, 70, 127
1, 524071, Note_on_c, 12, 71, 127
1, 524071, Note_on_c, 12, 59, 127
1, 524207, Note_off_c, 12, 59, 127
1, 524211, Note_on_c, 12, 47, 127
1, 524347, Note_off_c, 12, 47, 127
1, 524351, Note_on_c, 1, 49, 127
1, 524487, Note_off_c, 1, 49, 127
1, 524489, Note_on_c, 2, 50, 127
1, 524618, Note_off_c, 12, 71, 127
1, 524625, Note_off_c, 2, 50, 127
1, 524629, Note_on_c, 4, 52, 127
1, 524765, Note_off_c, 4, 52, 127
1, 524768, Note_on_c, 6, 54, 127
1, 524904, Note_off_c, 6, 54, 127
1, 524908, Note_on_c, 2, 74, 127
1, 524908, Note_on_c, 8, 56, 127
1, 525044, Note_off_c, 8, 56, 127
1, 525048, Note_on_c, 11, 58, 127
1, 525182, Note_off_c, 2, 74, 127
1, 525184, Note_off_c, 11, 58, 127
1, 525187, Note_on_c, 6, 66, 127
1, 525187, Note_on_c, 12, 59, 127
1, 525323, Note_off_c, 12, 59, 127
1, 525323, Note_off_c, 6, 66, 127
1, 525326, Note_on_c, 10, 69, 127
1, 525326, Note_on_c, 10, 57, 127
1, 525462, Note_off_c, 10, 57, 127
1, 525462, Note_off_c, 10, 69, 127
1, 525465, Note_on_c, 7, 67, 127
1, 525465, Note_on_c, 12, 59, 127
1, 525601, Note_off_c, 12, 59, 127
1, 525605, Note_on_c, 2, 62, 127
1, 525741, Note_off_c, 2, 62, 127
1, 525744, Note_on_c, 1, 61, 127
1, 525880, Note_off_c, 1, 61, 127
1, 525883, Note_on_c, 12, 59, 127
1, 525940, Note_off_c, 7, 67, 127
1, 526019, Note_off_c, 12, 59, 127
1, 526023, Note_on_c, 6, 66, 127
1, 526023, Note_on_c, 10, 57, 127
1, 526159, Note_off_c, 10, 57, 127
1, 526159, Note_off_c, 6, 66, 127
1, 526162, Note_on_c, 7, 67, 127
1, 526162, Note_on_c, 7, 55, 127
1, 526298, Note_off_c, 7, 55, 127
1, 526298, Note_off_c, 7, 67, 127
1, 526301, Note_on_c, 10, 69, 127
1, 526301, Note_on_c, 6, 54, 127
1, 526437, Note_off_c, 10, 69, 127
1, 526441, Note_on_c, 7, 67, 127
1, 526575, Note_off_c, 6, 54, 127
1, 526577, Note_off_c, 7, 67, 127
1, 526580, Note_on_c, 6, 66, 127
1, 526580, Note_on_c, 10, 57, 127
1, 526716, Note_off_c, 6, 66, 127
1, 526719, Note_on_c, 4, 64, 127
1, 526854, Note_off_c, 10, 57, 127
1, 526855, Note_off_c, 4, 64, 127
1, 526858, Note_on_c, 2, 62, 127
1, 526858, Note_on_c, 6, 54, 127
1, 526994, Note_off_c, 2, 62, 127
1, 526998, Note_on_c, 0, 72, 127
1, 527127, Note_off_c, 0, 72, 127
1, 527132, Note_off_c, 6, 54, 127
1, 527137, Note_on_c, 12, 71, 127
1, 527137, Note_on_c, 2, 50, 127
1, 527266, Note_off_c, 12, 71, 127
1, 527276, Note_on_c, 10, 69, 127
1, 527405, Note_off_c, 10, 69, 127
1, 527411, Note_off_c, 2, 50, 127
1, 527416, Note_on_c, 12, 71, 127
1, 527416, Note_on_c, 7, 55, 127
1, 527554, Note_on_c, 7, 67, 127
1, 527573, Note_off_c, 12, 71, 127
1, 527683, Note_off_c, 7, 67, 127
1, 527690, Note_off_c, 7, 55, 127
1, 527694, Note_on_c, 6, 66, 127
1, 527694, Note_on_c, 10, 45, 127
1, 527823, Note_off_c, 6, 66, 127
1, 527834, Note_on_c, 4, 64, 127
1, 527963, Note_off_c, 4, 64, 127
1, 527968, Note_off_c, 10, 45, 127
1, 527972, Note_on_c, 3, 63, 127
1, 527972, Note_on_c, 12, 47, 127
1, 528112, Note_on_c, 10, 69, 127
1, 528118, Note_off_c, 3, 63, 127
1, 528241, Note_off_c, 10, 69, 127
1, 528246, Note_off_c, 12, 47, 127
1, 528251, Note_on_c, 7, 67, 127
1, 528251, Note_on_c, 3, 51, 127
1, 528380, Note_off_c, 7, 67, 127
1, 528390, Note_on_c, 6, 66, 127
1, 528519, Note_off_c, 6, 66, 127
1, 528525, Note_off_c, 3, 51, 127
1, 528530, Note_on_c, 7, 67, 127
1, 528530, Note_on_c, 4, 52, 127
1, 528666, Note_off_c, 7, 67, 127
1, 528669, Note_on_c, 6, 66, 127
1, 528804, Note_off_c, 4, 52, 127
1, 528805, Note_off_c, 6, 66, 127
1, 528809, Note_on_c, 4, 64, 127
1, 528809, Note_on_c, 7, 43, 127
1, 528945, Note_off_c, 4, 64, 127
1, 528948, Note_on_c, 2, 62, 127
1, 529083, Note_off_c, 7, 43, 127
1, 529084, Note_off_c, 2, 62, 127
1, 529088, Note_on_c, 1, 61, 127
1, 529088, Note_on_c, 10, 45, 127
1, 529224, Note_off_c, 1, 61, 127
1, 529228, Note_on_c, 7, 67, 127
1, 529362, Note_off_c, 10, 45, 127
1, 529364, Note_off_c, 7, 67, 127
1, 529366, Note_on_c, 6, 66, 127
1, 529366, Note_on_c, 1, 49, 127
1, 529502, Note_off_c, 6, 66, 127
1, 529506, Note_on_c, 4, 64, 127
1, 529640, Note_off_c, 1, 49, 127
1, 529642, Note_off_c, 4, 64, 127
1, 529645, Note_on_c, 6, 66, 127
1, 529645, Note_on_c, 2, 50, 127
1, 529781, Note_off_c, 6, 66, 127
1, 529784, Note_on_c, 2, 62, 127
1, 529919, Note_off_c, 2, 50, 127
1, 529920, Note_off_c, 2, 62, 127
1, 529924, Note_on_c, 1, 61, 127
1, 529924, Note_on_c, 6, 42, 127
1, 530060, Note_off_c, 1, 61, 127
1, 530063, Note_on_c, 12, 59, 127
1, 530198, Note_off_c, 6, 42, 127
1, 530199, Note_off_c, 12, 59, 127
1, 530202, Note_on_c, 11, 58, 127
1, 530202, Note_on_c, 7, 43, 127
1, 530338, Note_off_c, 11, 58, 127
1, 530341, Note_on_c, 4, 64, 127
1, 530476, Note_off_c, 7, 43, 127
1, 530477, Note_off_c, 4, 64, 127
1, 530481, Note_on_c, 2, 62, 127
1, 530481, Note_on_c, 11, 46, 127
1, 530617, Note_off_c, 2, 62, 127
1, 530620, Note_on_c, 1, 61, 127
1, 530755, Note_off_c, 11, 46, 127
1, 530756, Note_off_c, 1, 61, 127
1, 530759, Note_on_c, 2, 62, 127
1, 530759, Note_on_c, 12, 47, 127
1, 530895, Note_off_c, 12, 47, 127
1, 530895, Note_off_c, 2, 62, 127
1, 530899, Note_on_c, 6, 66, 127
1, 530899, Note_on_c, 2, 50, 127
1, 531035, Note_off_c, 2, 50, 127
1, 531035, Note_off_c, 6, 66, 127
1, 531038, Note_on_c, 4, 64, 127
1, 531038, Note_on_c, 1, 49, 127
1, 531174, Note_off_c, 1, 49, 127
1, 531174, Note_off_c, 4, 64, 127
1, 531177, Note_on_c, 2, 62, 127
1, 531177, Note_on_c, 12, 47, 127
1, 531313, Note_off_c, 12, 47, 127
1, 531313, Note_off_c, 2, 62, 127
1, 531317, Note_on_c, 4, 64, 127
1, 531317, Note_on_c, 1, 49, 127
1, 531453, Note_off_c, 1, 49, 127
1, 531453, Note_off_c, 4, 64, 127
1, 531456, Note_on_c, 6, 66, 127
1, 531456, Note_on_c, 2, 50, 127
1, 531592, Note_off_c, 2, 50, 127
1, 531592, Note_off_c, 6, 66, 127
1, 531595, Note_on_c, 7, 67, 127
1, 531595, Note_on_c, 4, 52, 127
1, 531731, Note_off_c, 4, 52, 127
1, 531731, Note_off_c, 7, 67, 127
1, 531734, Note_on_c, 10, 69, 127
1, 531734, Note_on_c, 6, 54, 127
1, 531870, Note_off_c, 6, 54, 127
1, 531870, Note_off_c, 10, 69, 127
1, 531874, Note_on_c, 12, 71, 127
1, 531874, Note_on_c, 7, 55, 127
1, 532010, Note_off_c, 12, 71, 127
1, 532013, Note_on_c, 7, 67, 127
1, 532148, Note_off_c, 7, 55, 127
1, 532149, Note_off_c, 7, 67, 127
1, 532152, Note_on_c, 10, 69, 127
1, 532152, Note_on_c, 6, 54, 127
1, 532288, Note_off_c, 6, 54, 127
1, 532288, Note_off_c, 10, 69, 127
1, 532292, Note_on_c, 2, 74, 127
1, 532292, Note_on_c, 4, 52, 127
1, 532428, Note_off_c, 4, 52, 127
1, 532428, Note_off_c, 2, 74, 127
1, 532430, Note_on_c, 1, 73, 127
1, 532430, Note_on_c, 6, 54, 127
1, 532566, Note_off_c, 1, 73, 127
1, 532570, Note_on_c, 12, 71, 127
1, 532704, Note_off_c, 6, 54, 127
1, 532706, Note_off_c, 12, 71, 127
1, 532710, Note_on_c, 10, 69, 127
1, 532710, Note_on_c, 7, 55, 127
1, 532846, Note_off_c, 10, 69, 127
1, 532848, Note_on_c, 7, 67, 127
1, 532984, Note_off_c, 7, 55, 127
1, 532988, Note_on_c, 10, 57, 127
1, 533053, Note_off_c, 7, 67, 127
1, 533058, Note_on_c, 6, 66, 127
1, 533124, Note_off_c, 6, 66, 127
1, 533128, Note_on_c, 7, 67, 127
1, 533194, Note_off_c, 7, 67, 127
1, 533197, Note_on_c, 6, 66, 127
1, 533262, Note_off_c, 10, 57, 127
1, 533263, Note_off_c, 6, 66, 127
1, 533267, Note_on_c, 4, 64, 127
1, 533267, Note_on_c, 7, 55, 127
1, 533403, Note_off_c, 7, 55, 127
1, 533407, Note_on_c, 6, 54, 127
1, 533540, Note_off_c, 4, 64, 127
1, 533543, Note_off_c, 6, 54, 127
1, 533546, Note_on_c, 4, 52, 127
1, 533682, Note_off_c, 4, 52, 127
1, 533686, Note_on_c, 2, 50, 127
1, 533822, Note_off_c, 2, 50, 127
1, 533824, Note_on_c, 4, 76, 127
1, 533824, Note_on_c, 1, 49, 127
1, 533960, Note_off_c, 1, 49, 127
1, 533964, Note_on_c, 12, 47, 127
1, 534098, Note_off_c, 4, 76, 127
1, 534100, Note_off_c, 12, 47, 127
1, 534104, Note_on_c, 5, 77, 127
1, 534104, Note_on_c, 10, 45, 127
1, 534240, Note_off_c, 5, 77, 127
1, 534242, Note_on_c, 8, 80, 127
1, 534378, Note_off_c, 8, 80, 127
1, 534378, Note_off_c, 10, 45, 127
1, 534382, Note_on_c, 10, 81, 127
1, 534382, Note_on_c, 2, 62, 127
1, 534382, Note_on_c, 5, 65, 127
1, 534633, Note_off_c, 5, 65, 127
1, 534633, Note_off_c, 2, 62, 127
1, 534660, Note_on_c, 4, 64, 127
1, 534660, Note_on_c, 1, 61, 127
1, 534795, Note_off_c, 10, 81, 127
1, 534800, Note_on_c, 4, 76, 127
1, 534911, Note_off_c, 1, 61, 127
1, 534911, Note_off_c, 4, 64, 127
1, 534936, Note_off_c, 4, 76, 127
1, 534939, Note_on_c, 5, 77, 127
1, 534939, Note_on_c, 12, 59, 127
1, 534939, Note_on_c, 2, 62, 127
1, 535075, Note_off_c, 5, 77, 127
1, 535078, Note_on_c, 2, 74, 127
1, 535190, Note_off_c, 2, 62, 127
1, 535190, Note_off_c, 12, 59, 127
1, 535214, Note_off_c, 2, 74, 127
1, 535217, Note_on_c, 4, 76, 127
1, 535217, Note_on_c, 10, 45, 127
1, 535353, Note_off_c, 4, 76, 127
1, 535357, Note_on_c, 2, 74, 127
1, 535491, Note_off_c, 10, 45, 127
1, 535493, Note_off_c, 2, 74, 127
1, 535496, Note_on_c, 1, 73, 127
1, 535496, Note_on_c, 7, 67, 127
1, 535496, Note_on_c, 4, 64, 127
1, 535632, Note_off_c, 1, 73, 127
1, 535635, Note_on_c, 12, 71, 127
1, 535762, Note_off_c, 4, 64, 127
1, 535762, Note_off_c, 7, 67, 127
1, 535771, Note_off_c, 12, 71, 127
1, 535775, Note_on_c, 10, 69, 127
1, 535775, Note_on_c, 4, 64, 127
1, 535775, Note_on_c, 1, 61, 127
1, 535911, Note_off_c, 10, 69, 127
1, 535914, Note_on_c, 7, 67, 127
1, 536041, Note_off_c, 1, 61, 127
1, 536041, Note_off_c, 4, 64, 127
1, 536050, Note_off_c, 7, 67, 127
1, 536053, Note_on_c, 5, 65, 127
1, 536053, Note_on_c, 10, 57, 127
1, 536053, Note_on_c, 1, 61, 127
1, 536189, Note_off_c, 5, 65, 127
1, 536193, Note_on_c, 4, 64, 127
1, 536319, Note_off_c, 1, 61, 127
1, 536319, Note_off_c, 10, 57, 127
1, 536329, Note_off_c, 4, 64, 127
1, 536332, Note_on_c, 5, 65, 127
1, 536332, Note_on_c, 10, 45, 127
1, 536468, Note_off_c, 5, 65, 127
1, 536471, Note_on_c, 8, 68, 127
1, 536606, Note_off_c, 10, 45, 127
1, 536607, Note_off_c, 8, 68, 127
1, 536610, Note_on_c, 10, 69, 127
1, 536610, Note_on_c, 5, 53, 127
1, 536610, Note_on_c, 2, 62, 127
1, 536876, Note_off_c, 2, 62, 127
1, 536876, Note_off_c, 5, 53, 127
1, 536889, Note_on_c, 1, 61, 127
1, 536889, Note_on_c, 4, 52, 127
1, 537023, Note_off_c, 10, 69, 127
1, 537028, Note_on_c, 4, 64, 127
1, 537155, Note_off_c, 4, 52, 127
1, 537155, Note_off_c, 1, 61, 127
1, 537164, Note_off_c, 4, 64, 127
1, 537168, Note_on_c, 5, 65, 127
1, 537168, Note_on_c, 12, 59, 127
1, 537168, Note_on_c, 2, 50, 127
1, 537304, Note_off_c, 5, 65, 127
1, 537307, Note_on_c, 2, 62, 127
1, 537434, Note_off_c, 2, 50, 127
1, 537434, Note_off_c, 12, 59, 127
1, 537443, Note_off_c, 2, 62, 127
1, 537447, Note_on_c, 4, 64, 127
1, 537447, Note_on_c, 10, 45, 127
1, 537583, Note_off_c, 4, 64, 127
1, 537587, Note_on_c, 2, 62, 127
1, 537721, Note_off_c, 10, 45, 127
1, 537723, Note_off_c, 2, 62, 127
1, 537725, Note_on_c, 1, 61, 127
1, 537725, Note_on_c, 4, 52, 127
1, 537725, Note_on_c, 7, 55, 127
1, 537861, Note_off_c, 1, 61, 127
1, 537865, Note_on_c, 12, 59, 127
1, 537991, Note_off_c, 7, 55, 127
1, 537991, Note_off_c, 4, 52, 127
1, 538001, Note_off_c, 12, 59, 127
1, 538004, Note_on_c, 10, 57, 127
1, 538004, Note_on_c, 4, 52, 127
1, 538004, Note_on_c, 1, 49, 127
1, 538140, Note_off_c, 10, 57, 127
1, 538143, Note_on_c, 7, 55, 127
1, 538270, Note_off_c, 1, 49, 127
1, 538270, Note_off_c, 4, 52, 127
1, 538279, Note_off_c, 7, 55, 127
1, 538283, Note_on_c, 6, 54, 127
1, 538283, Note_on_c, 1, 49, 127
1, 538283, Note_on_c, 10, 45, 127
1, 538419, Note_off_c, 6, 54, 127
1, 538422, Note_on_c, 4, 52, 127
1, 538549, Note_off_c, 10, 45, 127
1, 538549, Note_off_c, 1, 49, 127
1, 538558, Note_off_c, 4, 52, 127
1, 538562, Note_on_c, 2, 50, 127
1, 538562, Note_on_c, 2, 38, 127
1, 538700, Note_on_c, 6, 66, 127
1, 538835, Note_off_c, 2, 38, 127
1, 538835, Note_off_c, 2, 50, 127
1, 538836, Note_off_c, 6, 66, 127
1, 538840, Note_on_c, 4, 64, 127
1, 539118, Note_on_c, 11, 46, 127
1, 539118, Note_on_c, 1, 49, 127
1, 539118, Note_on_c, 6, 42, 127
1, 539358, Note_off_c, 4, 64, 127
1, 539391, Note_off_c, 6, 42, 127
1, 539391, Note_off_c, 1, 49, 127
1, 539391, Note_off_c, 11, 46, 127
1, 539397, Note_on_c, 2, 62, 127
1, 539533, Note_off_c, 2, 62, 127
1, 539536, Note_on_c, 1, 61, 127
1, 539672, Note_off_c, 1, 61, 127
1, 539676, Note_on_c, 2, 62, 127
1, 539676, Note_on_c, 12, 47, 127
1, 539812, Note_off_c, 2, 62, 127
1, 539815, Note_on_c, 6, 66, 127
1, 539950, Note_off_c, 12, 47, 127
1, 539951, Note_off_c, 6, 66, 127
1, 539954, Note_on_c, 4, 64, 127
1, 539954, Note_on_c, 6, 54, 127
1, 540090, Note_off_c, 4, 64, 127
1, 540093, Note_on_c, 2, 62, 127
1, 540228, Note_off_c, 6, 54, 127
1, 540229, Note_off_c, 2, 62, 127
1, 540233, Note_on_c, 4, 64, 127
1, 540233, Note_on_c, 12, 59, 127
1, 540369, Note_off_c, 4, 64, 127
1, 540372, Note_on_c, 6, 66, 127
1, 540507, Note_off_c, 12, 59, 127
1, 540508, Note_off_c, 6, 66, 127
1, 540511, Note_on_c, 7, 67, 127
1, 540511, Note_on_c, 10, 57, 127
1, 540647, Note_off_c, 7, 67, 127
1, 540651, Note_on_c, 10, 69, 127
1, 540785, Note_off_c, 10, 57, 127
1, 540787, Note_off_c, 10, 69, 127
1, 540790, Note_on_c, 12, 71, 127
1, 540790, Note_on_c, 7, 55, 127
1, 540926, Note_off_c, 12, 71, 127
1, 540929, Note_on_c, 10, 69, 127
1, 541064, Note_off_c, 7, 55, 127
1, 541065, Note_off_c, 10, 69, 127
1, 541069, Note_on_c, 0, 72, 127
1, 541069, Note_on_c, 4, 64, 127
1, 541205, Note_off_c, 0, 72, 127
1, 541208, Note_on_c, 12, 71, 127
1, 541343, Note_off_c, 4, 64, 127
1, 541344, Note_off_c, 12, 71, 127
1, 541348, Note_on_c, 10, 69, 127
1, 541348, Note_on_c, 6, 54, 127
1, 541484, Note_off_c, 10, 69, 127
1, 541487, Note_on_c, 6, 78, 127
1, 541622, Note_off_c, 6, 54, 127
1, 541623, Note_off_c, 6, 78, 127
1, 541627, Note_on_c, 12, 71, 127
1, 541627, Note_on_c, 3, 63, 127
1, 541763, Note_off_c, 12, 71, 127
1, 541766, Note_on_c, 10, 69, 127
1, 541901, Note_off_c, 3, 63, 127
1, 541902, Note_off_c, 10, 69, 127
1, 541905, Note_on_c, 7, 67, 127
1, 541905, Note_on_c, 4, 52, 127
1, 542041, Note_off_c, 7, 67, 127
1, 542045, Note_on_c, 12, 71, 127
1, 542179, Note_off_c, 4, 52, 127
1, 542181, Note_off_c, 12, 71, 127
1, 542183, Note_on_c, 10, 69, 127
1, 542183, Note_on_c, 7, 55, 127
1, 542319, Note_off_c, 10, 69, 127
1, 542323, Note_on_c, 7, 67, 127
1, 542457, Note_off_c, 7, 55, 127
1, 542459, Note_off_c, 7, 67, 127
1, 542463, Note_on_c, 10, 69, 127
1, 542463, Note_on_c, 4, 64, 127
1, 542599, Note_off_c, 10, 69, 127
1, 542601, Note_on_c, 12, 71, 127
1, 542714, Note_off_c, 4, 64, 127
1, 542737, Note_off_c, 12, 71, 127
1, 542741, Note_on_c, 1, 73, 127
1, 542741, Note_on_c, 2, 62, 127
1, 542877, Note_off_c, 1, 73, 127
1, 542880, Note_on_c, 2, 74, 127
1, 542992, Note_off_c, 2, 62, 127
1, 543016, Note_off_c, 2, 74, 127
1, 543019, Note_on_c, 4, 76, 127
1, 543019, Note_on_c, 1, 61, 127
1, 543155, Note_off_c, 4, 76, 127
1, 543159, Note_on_c, 2, 74, 127
1, 543293, Note_off_c, 1, 61, 127
1, 543295, Note_off_c, 2, 74, 127
1, 543298, Note_on_c, 5, 77, 127
1, 543298, Note_on_c, 10, 69, 127
1, 543434, Note_off_c, 5, 77, 127
1, 543438, Note_on_c, 4, 76, 127
1, 543572, Note_off_c, 10, 69, 127
1, 543574, Note_off_c, 4, 76, 127
1, 543576, Note_on_c, 2, 74, 127
1, 543576, Note_on_c, 12, 59, 127
1, 543712, Note_off_c, 2, 74, 127
1, 543716, Note_on_c, 12, 83, 127
1, 543850, Note_off_c, 12, 59, 127
1, 543852, Note_off_c, 12, 83, 127
1, 543856, Note_on_c, 4, 76, 127
1, 543856, Note_on_c, 8, 68, 127
1, 543992, Note_off_c, 4, 76, 127
1, 543994, Note_on_c, 2, 74, 127
1, 544130, Note_off_c, 2, 74, 127
1, 544130, Note_off_c, 8, 68, 127
1, 544134, Note_on_c, 1, 73, 127
1, 544134, Note_on_c, 10, 57, 127
1, 544270, Note_off_c, 1, 73, 127
1, 544273, Note_on_c, 4, 76, 127
1, 544408, Note_off_c, 10, 57, 127
1, 544409, Note_off_c, 4, 76, 127
1, 544412, Note_on_c, 2, 74, 127
1, 544412, Note_on_c, 4, 64, 127
1, 544548, Note_off_c, 2, 74, 127
1, 544552, Note_on_c, 1, 73, 127
1, 544686, Note_off_c, 4, 64, 127
1, 544688, Note_off_c, 1, 73, 127
1, 544691, Note_on_c, 2, 74, 127
1, 544691, Note_on_c, 10, 69, 127
1, 544827, Note_off_c, 2, 74, 127
1, 544830, Note_on_c, 4, 76, 127
1, 544965, Note_off_c, 10, 69, 127
1, 544966, Note_off_c, 4, 76, 127
1, 544969, Note_on_c, 6, 78, 127
1, 544969, Note_on_c, 7, 67, 127
1, 545105, Note_off_c, 6, 78, 127
1, 545109, Note_on_c, 7, 79, 127
1, 545243, Note_off_c, 7, 67, 127
1, 545245, Note_off_c, 7, 79, 127
1, 545248, Note_on_c, 10, 81, 127
1, 545248, Note_on_c, 6, 66, 127
1, 545492, Note_off_c, 6, 66, 127
1, 545522, Note_off_c, 10, 81, 127
1, 545550, Note_on_c, 6, 42, 127
1, 545550, Note_on_c, 2, 74, 127
1, 545550, Note_on_c, 10, 69, 127
1, 545816, Note_off_c, 10, 69, 127
1, 545816, Note_off_c, 2, 74, 127
1, 545816, Note_off_c, 6, 42, 127
1, 545852, Note_on_c, 7, 67, 127
1, 545852, Note_on_c, 12, 71, 127
1, 545852, Note_on_c, 4, 76, 127
1, 545852, Note_on_c, 7, 43, 127
1, 546118, Note_off_c, 7, 43, 127
1, 546118, Note_off_c, 4, 76, 127
1, 546118, Note_off_c, 12, 71, 127
1, 546118, Note_off_c, 7, 67, 127
1, 546183, Note_on_c, 1, 73, 127
1, 546183, Note_on_c, 10, 69, 127
1, 546183, Note_on_c, 4, 64, 127
1, 546183, Note_on_c, 10, 45, 127
1, 546456, Note_off_c, 10, 45, 127
1, 546456, Note_off_c, 4, 64, 127
1, 546456, Note_off_c, 10, 69, 127
1, 546456, Note_off_c, 1, 73, 127
1, 546595, Note_on_c, 10, 69, 127
1, 546595, Note_on_c, 6, 66, 127
1, 546595, Note_on_c, 2, 74, 127
1, 546595, Note_on_c, 2, 38, 127
1, 549195, Note_off_c, 2, 38, 127
1, 549195, Note_off_c, 2, 74, 127
1, 549195, Note_off_c, 6, 66, 127
1, 549195, Note_off_c, 10, 69, 127
1, 550959, Note_on_c, 2, 62, 127
1, 550959, Note_on_c, 10, 69, 127
1, 550959, Note_on_c, 6, 78, 127
1, 551035, Note_off_c, 6, 78, 127
1, 551039, Note_on_c, 4, 76, 127
1, 551115, Note_off_c, 4, 76, 127
1, 551118, Note_on_c, 2, 74, 127
1, 551905, Note_off_c, 10, 69, 127
1, 551905, Note_off_c, 2, 62, 127
1, 551906, Note_off_c, 2, 74, 127
1, 551916, Note_on_c, 7, 67, 127
1, 551916, Note_on_c, 4, 64, 127
1, 551916, Note_on_c, 2, 74, 127
1, 552862, Note_off_c, 2, 74, 127
1, 552871, Note_on_c, 1, 73, 127
1, 552987, Note_off_c, 1, 73, 127
1, 552991, Note_on_c, 2, 74, 127
1, 553107, Note_off_c, 2, 74, 127
1, 553110, Note_on_c, 1, 73, 127
1, 553226, Note_off_c, 1, 73, 127
1, 553230, Note_on_c, 2, 74, 127
1, 553346, Note_off_c, 2, 74, 127
1, 553349, Note_on_c, 1, 73, 127
1, 553583, Note_off_c, 1, 73, 127
1, 553588, Note_on_c, 2, 74, 127
1, 553812, Note_off_c, 4, 64, 127
1, 553812, Note_off_c, 7, 67, 127
1, 553821, Note_off_c, 2, 74, 127
1, 553827, Note_on_c, 6, 66, 127
1, 554061, Note_off_c, 6, 66, 127
1, 554066, Note_on_c, 7, 67, 127
1, 554300, Note_off_c, 7, 67, 127
1, 554304, Note_on_c, 10, 69, 127
1, 554526, Note_off_c, 10, 69, 127
1, 554531, Note_on_c, 12, 71, 127
1, 554657, Note_on_c, 0, 72, 127
1, 554658, Note_off_c, 12, 71, 127
1, 554779, Note_off_c, 0, 72, 127
1, 554783, Note_on_c, 10, 81, 127
1, 556203, Note_off_c, 10, 81, 127
1, 556695, Note_on_c, 7, 67, 127
1, 556695, Note_on_c, 12, 71, 127
1, 556929, Note_off_c, 12, 71, 127
1, 556933, Note_on_c, 10, 69, 127
1, 557166, Note_off_c, 7, 67, 127
1, 557167, Note_off_c, 10, 69, 127
1, 557172, Note_on_c, 6, 66, 127
1, 557172, Note_on_c, 12, 71, 127
1, 557406, Note_off_c, 12, 71, 127
1, 557412, Note_on_c, 2, 74, 127
1, 557643, Note_off_c, 6, 66, 127
1, 557650, Note_on_c, 4, 64, 127
1, 557756, Note_off_c, 2, 74, 127
1, 557889, Note_on_c, 1, 73, 127
1, 558121, Note_off_c, 4, 64, 127
1, 558123, Note_off_c, 1, 73, 127
1, 558128, Note_on_c, 7, 67, 127
1, 558128, Note_on_c, 4, 76, 127
1, 558362, Note_off_c, 4, 76, 127
1, 558367, Note_on_c, 2, 74, 127
1, 558599, Note_off_c, 7, 67, 127
1, 558601, Note_off_c, 2, 74, 127
1, 558607, Note_on_c, 10, 57, 127
1, 558607, Note_on_c, 1, 73, 127
1, 558841, Note_off_c, 1, 73, 127
1, 558846, Note_on_c, 12, 71, 127
1, 559078, Note_off_c, 10, 57, 127
1, 559080, Note_off_c, 12, 71, 127
1, 559084, Note_on_c, 1, 61, 127
1, 559084, Note_on_c, 10, 69, 127
1, 559318, Note_off_c, 10, 69, 127
1, 559323, Note_on_c, 7, 67, 127
1, 559555, Note_off_c, 1, 61, 127
1, 559557, Note_off_c, 7, 67, 127
1, 559563, Note_on_c, 2, 62, 127
1, 559563, Note_on_c, 6, 66, 127
1, 559797, Note_off_c, 6, 66, 127
1, 559802, Note_on_c, 10, 69, 127
1, 560034, Note_off_c, 2, 62, 127
1, 560036, Note_off_c, 10, 69, 127
1, 560040, Note_on_c, 10, 57, 127
1, 560040, Note_on_c, 7, 67, 127
1, 560274, Note_off_c, 7, 67, 127
1, 560279, Note_on_c, 6, 66, 127
1, 560511, Note_off_c, 10, 57, 127
1, 560513, Note_off_c, 6, 66, 127
1, 560518, Note_on_c, 2, 50, 127
1, 560518, Note_on_c, 7, 67, 127
1, 560752, Note_off_c, 7, 67, 127
1, 560757, Note_on_c, 6, 66, 127
1, 560989, Note_off_c, 2, 50, 127
1, 560991, Note_off_c, 6, 66, 127
1, 560996, Note_on_c, 10, 45, 127
1, 560996, Note_on_c, 4, 64, 127
1, 561230, Note_off_c, 4, 64, 127
1, 561235, Note_on_c, 6, 66, 127
1, 561467, Note_off_c, 10, 45, 127
1, 561469, Note_off_c, 6, 66, 127
1, 561473, Note_on_c, 6, 42, 127
1, 561473, Note_on_c, 4, 64, 127
1, 561729, Note_off_c, 4, 64, 127
1, 561735, Note_on_c, 2, 62, 127
1, 561944, Note_off_c, 6, 42, 127
1, 561952, Note_on_c, 10, 45, 127
1, 562079, Note_off_c, 2, 62, 127
1, 562191, Note_on_c, 4, 64, 127
1, 562423, Note_off_c, 10, 45, 127
1, 562425, Note_off_c, 4, 64, 127
1, 562431, Note_on_c, 2, 38, 127
1, 562431, Note_on_c, 6, 66, 127
1, 562547, Note_off_c, 6, 66, 127
1, 562549, Note_on_c, 8, 68, 127
1, 562665, Note_off_c, 8, 68, 127
1, 562669, Note_on_c, 10, 69, 127
1, 562902, Note_off_c, 2, 38, 127
1, 562907, Note_on_c, 2, 62, 127
1, 563112, Note_off_c, 10, 69, 127
1, 563141, Note_off_c, 2, 62, 127
1, 563148, Note_on_c, 12, 59, 127
1, 563148, Note_on_c, 8, 68, 127
1, 563382, Note_off_c, 8, 68, 127
1, 563382, Note_off_c, 12, 59, 127
1, 563386, Note_on_c, 1, 61, 127
1, 563386, Note_on_c, 10, 69, 127
1, 563620, Note_off_c, 10, 69, 127
1, 563625, Note_on_c, 4, 64, 127
1, 563741, Note_off_c, 4, 64, 127
1, 563745, Note_on_c, 2, 62, 127
1, 563857, Note_off_c, 1, 61, 127
1, 563861, Note_off_c, 2, 62, 127
1, 563864, Note_on_c, 10, 57, 127
1, 563864, Note_on_c, 4, 64, 127
1, 564098, Note_off_c, 4, 64, 127
1, 564102, Note_on_c, 1, 73, 127
1, 564335, Note_off_c, 10, 57, 127
1, 564342, Note_on_c, 12, 59, 127
1, 564545, Note_off_c, 1, 73, 127
1, 564581, Note_on_c, 2, 74, 127
1, 564813, Note_off_c, 12, 59, 127
1, 564815, Note_off_c, 2, 74, 127
1, 564819, Note_on_c, 8, 56, 127
1, 564819, Note_on_c, 4, 64, 127
1, 565053, Note_off_c, 4, 64, 127
1, 565058, Note_on_c, 12, 71, 127
1, 565290, Note_off_c, 8, 56, 127
1, 565292, Note_off_c, 12, 71, 127
1, 565297, Note_on_c, 10, 45, 127
1, 565297, Note_on_c, 1, 73, 127
1, 565413, Note_off_c, 1, 73, 127
1, 565416, Note_on_c, 3, 75, 127
1, 565532, Note_off_c, 3, 75, 127
1, 565537, Note_on_c, 4, 76, 127
1, 565768, Note_off_c, 10, 45, 127
1, 565776, Note_on_c, 10, 57, 127
1, 565955, Note_off_c, 4, 76, 127
1, 566010, Note_off_c, 10, 57, 127
1, 566015, Note_on_c, 6, 54, 127
1, 566015, Note_on_c, 3, 75, 127
1, 566249, Note_off_c, 3, 75, 127
1, 566249, Note_off_c, 6, 54, 127
1, 566254, Note_on_c, 8, 56, 127
1, 566254, Note_on_c, 4, 76, 127
1, 566488, Note_off_c, 4, 76, 127
1, 566492, Note_on_c, 12, 71, 127
1, 566608, Note_off_c, 12, 71, 127
1, 566613, Note_on_c, 10, 69, 127
1, 566725, Note_off_c, 8, 56, 127
1, 566729, Note_off_c, 10, 69, 127
1, 566732, Note_on_c, 4, 52, 127
1, 566732, Note_on_c, 12, 71, 127
1, 566966, Note_off_c, 12, 71, 127
1, 566971, Note_on_c, 8, 80, 127
1, 567203, Note_off_c, 4, 52, 127
1, 567209, Note_on_c, 6, 54, 127
1, 567365, Note_off_c, 8, 80, 127
1, 567448, Note_on_c, 10, 81, 127
1, 567680, Note_off_c, 6, 54, 127
1, 567682, Note_off_c, 10, 81, 127
1, 567687, Note_on_c, 3, 51, 127
1, 567687, Note_on_c, 12, 71, 127
1, 567921, Note_off_c, 12, 71, 127
1, 567926, Note_on_c, 6, 78, 127
1, 568158, Note_off_c, 3, 51, 127
1, 568160, Note_off_c, 6, 78, 127
1, 568166, Note_on_c, 4, 40, 127
1, 568166, Note_on_c, 8, 80, 127
1, 568282, Note_off_c, 8, 80, 127
1, 568283, Note_on_c, 10, 81, 127
1, 568399, Note_off_c, 10, 81, 127
1, 568404, Note_on_c, 12, 83, 127
1, 568637, Note_off_c, 4, 40, 127
1, 568642, Note_on_c, 2, 50, 127
1, 568857, Note_off_c, 12, 83, 127
1, 568876, Note_off_c, 2, 50, 127
1, 568882, Note_on_c, 12, 47, 127
1, 568882, Note_on_c, 10, 81, 127
1, 568998, Note_off_c, 10, 81, 127
1, 569001, Note_on_c, 8, 80, 127
1, 569116, Note_off_c, 12, 47, 127
1, 569117, Note_off_c, 8, 80, 127
1, 569122, Note_on_c, 1, 49, 127
1, 569122, Note_on_c, 6, 78, 127
1, 569257, Note_off_c, 6, 78, 127
1, 569261, Note_on_c, 4, 76, 127
1, 569381, Note_off_c, 4, 76, 127
1, 569385, Note_on_c, 10, 81, 127
1, 569593, Note_off_c, 1, 49, 127
1, 569599, Note_on_c, 10, 45, 127
1, 569655, Note_off_c, 10, 81, 127
1, 569718, Note_on_c, 8, 80, 127
1, 569834, Note_off_c, 8, 80, 127
1, 569838, Note_on_c, 6, 78, 127
1, 569954, Note_off_c, 6, 78, 127
1, 569958, Note_on_c, 4, 76, 127
1, 570070, Note_off_c, 10, 45, 127
1, 570074, Note_off_c, 4, 76, 127
1, 570077, Note_on_c, 6, 42, 127
1, 570077, Note_on_c, 3, 75, 127
1, 570205, Note_off_c, 3, 75, 127
1, 570208, Note_on_c, 4, 76, 127
1, 570336, Note_off_c, 4, 76, 127
1, 570340, Note_on_c, 6, 78, 127
1, 570548, Note_off_c, 6, 42, 127
1, 570555, Note_on_c, 3, 51, 127
1, 570746, Note_off_c, 6, 78, 127
1, 570794, Note_on_c, 10, 69, 127
1, 571026, Note_off_c, 3, 51, 127
1, 571028, Note_off_c, 10, 69, 127
1, 571032, Note_on_c, 4, 52, 127
1, 571032, Note_on_c, 8, 68, 127
1, 571154, Note_off_c, 8, 68, 127
1, 571160, Note_on_c, 6, 66, 127
1, 571282, Note_off_c, 6, 66, 127
1, 571286, Note_on_c, 4, 64, 127
1, 571502, Note_off_c, 4, 64, 127
1, 571503, Note_off_c, 4, 52, 127
1, 571511, Note_on_c, 4, 40, 127
1, 571511, Note_on_c, 2, 74, 127
1, 571745, Note_off_c, 2, 74, 127
1, 571749, Note_on_c, 12, 71, 127
1, 571983, Note_off_c, 12, 71, 127
1, 571989, Note_on_c, 8, 68, 127
1, 572223, Note_off_c, 8, 68, 127
1, 572227, Note_on_c, 4, 64, 127
1, 572457, Note_off_c, 4, 40, 127
1, 572461, Note_off_c, 4, 64, 127
1, 572466, Note_on_c, 12, 59, 127
1, 572700, Note_off_c, 12, 59, 127
1, 572707, Note_on_c, 8, 56, 127
1, 572941, Note_off_c, 8, 56, 127
1, 572945, Note_on_c, 4, 52, 127
1, 573179, Note_off_c, 4, 52, 127
1, 573183, Note_on_c, 6, 54, 127
1, 573299, Note_off_c, 6, 54, 127
1, 573303, Note_on_c, 8, 56, 127
1, 573419, Note_off_c, 8, 56, 127
1, 573423, Note_on_c, 10, 57, 127
1, 573539, Note_off_c, 10, 57, 127
1, 573542, Note_on_c, 12, 59, 127
1, 573658, Note_off_c, 12, 59, 127
1, 573661, Note_on_c, 1, 61, 127
1, 573777, Note_off_c, 1, 61, 127
1, 573782, Note_on_c, 2, 62, 127
1, 573898, Note_off_c, 2, 62, 127
1, 573900, Note_on_c, 10, 57, 127
1, 573900, Note_on_c, 1, 61, 127
1, 574016, Note_off_c, 1, 61, 127
1, 574019, Note_on_c, 4, 64, 127
1, 574135, Note_off_c, 4, 64, 127
1, 574140, Note_on_c, 10, 69, 127
1, 574371, Note_off_c, 10, 57, 127
1, 574378, Note_on_c, 12, 59, 127
1, 574583, Note_off_c, 10, 69, 127
1, 574617, Note_on_c, 8, 68, 127
1, 574849, Note_off_c, 12, 59, 127
1, 574851, Note_off_c, 8, 68, 127
1, 574856, Note_on_c, 1, 61, 127
1, 574856, Note_on_c, 10, 69, 127
1, 575090, Note_off_c, 10, 69, 127
1, 575095, Note_on_c, 4, 64, 127
1, 575211, Note_off_c, 4, 64, 127
1, 575215, Note_on_c, 10, 69, 127
1, 575327, Note_off_c, 1, 61, 127
1, 575331, Note_off_c, 10, 69, 127
1, 575334, Note_on_c, 4, 64, 127
1, 575334, Note_on_c, 1, 73, 127
1, 575450, Note_off_c, 1, 73, 127
1, 575453, Note_on_c, 12, 71, 127
1, 575569, Note_off_c, 12, 71, 127
1, 575573, Note_on_c, 10, 69, 127
1, 575689, Note_off_c, 10, 69, 127
1, 575693, Note_on_c, 8, 68, 127
1, 575805, Note_off_c, 4, 64, 127
1, 575809, Note_off_c, 8, 68, 127
1, 575812, Note_on_c, 1, 61, 127
1, 575812, Note_on_c, 10, 69, 127
1, 576046, Note_off_c, 10, 69, 127
1, 576051, Note_on_c, 4, 64, 127
1, 576167, Note_off_c, 4, 64, 127
1, 576171, Note_on_c, 10, 69, 127
1, 576283, Note_off_c, 1, 61, 127
1, 576287, Note_off_c, 10, 69, 127
1, 576291, Note_on_c, 10, 57, 127
1, 576291, Note_on_c, 1, 73, 127
1, 576407, Note_off_c, 1, 73, 127
1, 576410, Note_on_c, 12, 71, 127
1, 576526, Note_off_c, 12, 71, 127
1, 576530, Note_on_c, 10, 69, 127
1, 576646, Note_off_c, 10, 69, 127
1, 576649, Note_on_c, 8, 68, 127
1, 576762, Note_off_c, 10, 57, 127
1, 576765, Note_off_c, 8, 68, 127
1, 576768, Note_on_c, 6, 54, 127
1, 576768, Note_on_c, 10, 69, 127
1, 576884, Note_off_c, 10, 69, 127
1, 576900, Note_on_c, 1, 73, 127
1, 577016, Note_off_c, 1, 73, 127
1, 577032, Note_on_c, 2, 74, 127
1, 577239, Note_off_c, 6, 54, 127
1, 577246, Note_on_c, 4, 52, 127
1, 577386, Note_off_c, 2, 74, 127
1, 577485, Note_on_c, 1, 73, 127
1, 577717, Note_off_c, 4, 52, 127
1, 577719, Note_off_c, 1, 73, 127
1, 577724, Note_on_c, 6, 54, 127
1, 577724, Note_on_c, 2, 74, 127
1, 577958, Note_off_c, 2, 74, 127
1, 577963, Note_on_c, 10, 69, 127
1, 578079, Note_off_c, 10, 69, 127
1, 578082, Note_on_c, 2, 74, 127
1, 578195, Note_off_c, 6, 54, 127
1, 578198, Note_off_c, 2, 74, 127
1, 578201, Note_on_c, 10, 57, 127
1, 578201, Note_on_c, 6, 78, 127
1, 578317, Note_off_c, 6, 78, 127
1, 578321, Note_on_c, 4, 76, 127
1, 578437, Note_off_c, 4, 76, 127
1, 578441, Note_on_c, 2, 74, 127
1, 578557, Note_off_c, 2, 74, 127
1, 578560, Note_on_c, 1, 73, 127
1, 578672, Note_off_c, 10, 57, 127
1, 578676, Note_off_c, 1, 73, 127
1, 578680, Note_on_c, 6, 54, 127
1, 578680, Note_on_c, 2, 74, 127
1, 578914, Note_off_c, 2, 74, 127
1, 578918, Note_on_c, 10, 69, 127
1, 579034, Note_off_c, 10, 69, 127
1, 579038, Note_on_c, 2, 74, 127
1, 579151, Note_off_c, 6, 54, 127
1, 579154, Note_off_c, 2, 74, 127
1, 579158, Note_on_c, 2, 50, 127
1, 579158, Note_on_c, 6, 78, 127
1, 579274, Note_off_c, 6, 78, 127
1, 579277, Note_on_c, 4, 76, 127
1, 579393, Note_off_c, 4, 76, 127
1, 579397, Note_on_c, 2, 74, 127
1, 579513, Note_off_c, 2, 74, 127
1, 579516, Note_on_c, 1, 73, 127
1, 579629, Note_off_c, 2, 50, 127
1, 579632, Note_off_c, 1, 73, 127
1, 579635, Note_on_c, 12, 47, 127
1, 579635, Note_on_c, 2, 74, 127
1, 579751, Note_off_c, 2, 74, 127
1, 579755, Note_on_c, 6, 78, 127
1, 579869, Note_off_c, 12, 47, 127
1, 579871, Note_off_c, 6, 78, 127
1, 579876, Note_on_c, 8, 56, 127
1, 579876, Note_on_c, 4, 76, 127
1, 579992, Note_off_c, 4, 76, 127
1, 579994, Note_on_c, 2, 74, 127
1, 580110, Note_off_c, 2, 74, 127
1, 580110, Note_off_c, 8, 56, 127
1, 580114, Note_on_c, 10, 57, 127
1, 580114, Note_on_c, 1, 73, 127
1, 580230, Note_off_c, 1, 73, 127
1, 580233, Note_on_c, 12, 71, 127
1, 580348, Note_off_c, 10, 57, 127
1, 580349, Note_off_c, 12, 71, 127
1, 580353, Note_on_c, 4, 52, 127
1, 580353, Note_on_c, 1, 73, 127
1, 580469, Note_off_c, 1, 73, 127
1, 580472, Note_on_c, 4, 76, 127
1, 580587, Note_off_c, 4, 52, 127
1, 580588, Note_off_c, 4, 76, 127
1, 580592, Note_on_c, 1, 49, 127
1, 580592, Note_on_c, 10, 81, 127
1, 580826, Note_off_c, 10, 81, 127
1, 580826, Note_off_c, 1, 49, 127
1, 580831, Note_on_c, 12, 47, 127
1, 580831, Note_on_c, 8, 80, 127
1, 580947, Note_off_c, 8, 80, 127
1, 580950, Note_on_c, 6, 78, 127
1, 581065, Note_off_c, 12, 47, 127
1, 581066, Note_off_c, 6, 78, 127
1, 581070, Note_on_c, 1, 49, 127
1, 581070, Note_on_c, 4, 76, 127
1, 581186, Note_off_c, 4, 76, 127
1, 581189, Note_on_c, 2, 74, 127
1, 581304, Note_off_c, 1, 49, 127
1, 581305, Note_off_c, 2, 74, 127
1, 581309, Note_on_c, 2, 50, 127
1, 581309, Note_on_c, 1, 73, 127
1, 581425, Note_off_c, 1, 73, 127
1, 581428, Note_on_c, 12, 71, 127
1, 581543, Note_off_c, 2, 50, 127
1, 581544, Note_off_c, 12, 71, 127
1, 581548, Note_on_c, 4, 52, 127
1, 581548, Note_on_c, 1, 73, 127
1, 581786, Note_on_c, 10, 69, 127
1, 581792, Note_off_c, 1, 73, 127
1, 582012, Note_off_c, 10, 69, 127
1, 582019, Note_off_c, 4, 52, 127
1, 582025, Note_on_c, 4, 40, 127
1, 582025, Note_on_c, 4, 64, 127
1, 582265, Note_on_c, 8, 68, 127
1, 582269, Note_off_c, 4, 64, 127
1, 582491, Note_off_c, 8, 68, 127
1, 582496, Note_off_c, 4, 40, 127
1, 582503, Note_on_c, 10, 45, 127
1, 582503, Note_on_c, 10, 69, 127
1, 582737, Note_off_c, 10, 69, 127
1, 582742, Note_on_c, 4, 64, 127
1, 582976, Note_off_c, 4, 64, 127
1, 582982, Note_on_c, 2, 50, 127
1, 582982, Note_on_c, 6, 66, 127
1, 583220, Note_on_c, 2, 62, 127
1, 583450, Note_off_c, 6, 66, 127
1, 583453, Note_off_c, 2, 50, 127
1, 583454, Note_off_c, 2, 62, 127
1, 583460, Note_on_c, 4, 52, 127
1, 583460, Note_on_c, 1, 61, 127
1, 583699, Note_on_c, 10, 69, 127
1, 583928, Note_off_c, 1, 61, 127
1, 583931, Note_off_c, 4, 52, 127
1, 583937, Note_on_c, 5, 53, 127
1, 583937, Note_on_c, 2, 62, 127
1, 583937, Note_on_c, 12, 59, 127
1, 584167, Note_off_c, 10, 69, 127
1, 584176, Note_on_c, 8, 68, 127
1, 584405, Note_off_c, 12, 59, 127
1, 584405, Note_off_c, 2, 62, 127
1, 584408, Note_off_c, 5, 53, 127
1, 584410, Note_off_c, 8, 68, 127
1, 584416, Note_on_c, 4, 52, 127
1, 584416, Note_on_c, 10, 57, 127
1, 584416, Note_on_c, 1, 61, 127
1, 584416, Note_on_c, 10, 69, 127
1, 584416, Note_on_c, 4, 64, 127
1, 585346, Note_off_c, 10, 45, 127
1, 585362, Note_off_c, 4, 64, 127
1, 585362, Note_off_c, 10, 69, 127
1, 585362, Note_off_c, 1, 61, 127
1, 585362, Note_off_c, 10, 57, 127
1, 585362, Note_off_c, 4, 52, 127
1, 585610, Note_on_c, 4, 64, 127
1, 585610, Note_on_c, 10, 57, 127
1, 585610, Note_on_c, 1, 73, 127
1, 585726, Note_off_c, 1, 73, 127
1, 585729, Note_on_c, 12, 71, 127
1, 585845, Note_off_c, 12, 71, 127
1, 585849, Note_on_c, 10, 69, 127
1, 586556, Note_off_c, 10, 57, 127
1, 586556, Note_off_c, 4, 64, 127
1, 586566, Note_on_c, 12, 59, 127
1, 586566, Note_on_c, 2, 62, 127
1, 587509, Note_off_c, 10, 69, 127
1, 587512, Note_off_c, 2, 62, 127
1, 587512, Note_off_c, 12, 59, 127
1, 587522, Note_on_c, 4, 64, 127
1, 587522, Note_on_c, 1, 61, 127
1, 587522, Note_on_c, 10, 69, 127
1, 587638, Note_off_c, 10, 69, 127
1, 587642, Note_on_c, 7, 67, 127
1, 587758, Note_off_c, 7, 67, 127
1, 587761, Note_on_c, 10, 69, 127
1, 587877, Note_off_c, 10, 69, 127
1, 587881, Note_on_c, 7, 67, 127
1, 587997, Note_off_c, 7, 67, 127
1, 587999, Note_on_c, 10, 69, 127
1, 588115, Note_off_c, 10, 69, 127
1, 588119, Note_on_c, 7, 67, 127
1, 588235, Note_off_c, 7, 67, 127
1, 588239, Note_on_c, 6, 66, 127
1, 588355, Note_off_c, 6, 66, 127
1, 588358, Note_on_c, 7, 67, 127
1, 588468, Note_off_c, 1, 61, 127
1, 588468, Note_off_c, 4, 64, 127
1, 588474, Note_off_c, 7, 67, 127
1, 588478, Note_on_c, 11, 58, 127
1, 588632, Note_off_c, 11, 58, 127
1, 588637, Note_on_c, 12, 59, 127
1, 588791, Note_off_c, 12, 59, 127
1, 588796, Note_on_c, 1, 61, 127
1, 588929, Note_off_c, 1, 61, 127
1, 588955, Note_on_c, 2, 62, 127
1, 589088, Note_off_c, 2, 62, 127
1, 589115, Note_on_c, 4, 64, 127
1, 589248, Note_off_c, 4, 64, 127
1, 589274, Note_on_c, 6, 66, 127
1, 589428, Note_off_c, 6, 66, 127
1, 589434, Note_on_c, 4, 76, 127
1, 590854, Note_off_c, 4, 76, 127
1, 591106, Note_on_c, 2, 74, 127
1, 591106, Note_on_c, 12, 59, 127
1, 591340, Note_off_c, 2, 74, 127
1, 591346, Note_on_c, 1, 73, 127
1, 591577, Note_off_c, 12, 59, 127
1, 591580, Note_off_c, 1, 73, 127
1, 591584, Note_on_c, 12, 71, 127
1, 591584, Note_on_c, 7, 67, 127
1, 591660, Note_off_c, 12, 71, 127
1, 591664, Note_on_c, 10, 69, 127
1, 591740, Note_off_c, 10, 69, 127
1, 591744, Note_on_c, 12, 71, 127
1, 591820, Note_off_c, 12, 71, 127
1, 591823, Note_on_c, 7, 79, 127
1, 592055, Note_off_c, 7, 67, 127
1, 592063, Note_on_c, 1, 61, 127
1, 592167, Note_off_c, 7, 79, 127
1, 592222, Note_on_c, 6, 78, 127
1, 592376, Note_off_c, 6, 78, 127
1, 592381, Note_on_c, 4, 76, 127
1, 592534, Note_off_c, 1, 61, 127
1, 592535, Note_off_c, 4, 76, 127
1, 592539, Note_on_c, 6, 78, 127
1, 592539, Note_on_c, 3, 63, 127
1, 592773, Note_off_c, 6, 78, 127
1, 592779, Note_on_c, 0, 72, 127
1, 593010, Note_off_c, 3, 63, 127
1, 593018, Note_on_c, 7, 55, 127
1, 593123, Note_off_c, 0, 72, 127
1, 593177, Note_on_c, 12, 71, 127
1, 593331, Note_off_c, 12, 71, 127
1, 593337, Note_on_c, 11, 70, 127
1, 593489, Note_off_c, 7, 55, 127
1, 593491, Note_off_c, 11, 70, 127
1, 593496, Note_on_c, 12, 71, 127
1, 593496, Note_on_c, 4, 64, 127
1, 593730, Note_off_c, 12, 71, 127
1, 593735, Note_on_c, 4, 76, 127
1, 593967, Note_off_c, 4, 64, 127
1, 593974, Note_on_c, 6, 54, 127
1, 594153, Note_off_c, 4, 76, 127
1, 594214, Note_on_c, 11, 70, 127
1, 594445, Note_off_c, 6, 54, 127
1, 594448, Note_off_c, 11, 70, 127
1, 594452, Note_on_c, 12, 71, 127
1, 594452, Note_on_c, 7, 67, 127
1, 594686, Note_off_c, 12, 71, 127
1, 594691, Note_on_c, 1, 73, 127
1, 594923, Note_off_c, 7, 67, 127
1, 594925, Note_off_c, 1, 73, 127
1, 594930, Note_on_c, 12, 71, 127
1, 594930, Note_on_c, 6, 66, 127
1, 595164, Note_off_c, 12, 71, 127
1, 595169, Note_on_c, 11, 70, 127
1, 595401, Note_off_c, 6, 66, 127
1, 595403, Note_off_c, 11, 70, 127
1, 595408, Note_on_c, 8, 68, 127
1, 595408, Note_on_c, 4, 64, 127
1, 595642, Note_off_c, 8, 68, 127
1, 595647, Note_on_c, 11, 70, 127
1, 595879, Note_off_c, 4, 64, 127
1, 595881, Note_off_c, 11, 70, 127
1, 595886, Note_on_c, 8, 68, 127
1, 595886, Note_on_c, 2, 62, 127
1, 596120, Note_off_c, 8, 68, 127
1, 596124, Note_on_c, 6, 66, 127
1, 596357, Note_off_c, 2, 62, 127
1, 596363, Note_on_c, 1, 61, 127
1, 596468, Note_off_c, 6, 66, 127
1, 596603, Note_on_c, 11, 70, 127
1, 596719, Note_off_c, 11, 70, 127
1, 596721, Note_on_c, 1, 73, 127
1, 596834, Note_off_c, 1, 61, 127
1, 596837, Note_off_c, 1, 73, 127
1, 596841, Note_on_c, 2, 74, 127
1, 596841, Note_on_c, 12, 59, 127
1, 596969, Note_off_c, 2, 74, 127
1, 596973, Note_on_c, 1, 73, 127
1, 597101, Note_off_c, 1, 73, 127
1, 597105, Note_on_c, 12, 71, 127
1, 597312, Note_off_c, 12, 59, 127
1, 597320, Note_on_c, 10, 57, 127
1, 597523, Note_off_c, 12, 71, 127
1, 597558, Note_on_c, 1, 73, 127
1, 597674, Note_off_c, 1, 73, 127
1, 597679, Note_on_c, 3, 75, 127
1, 597791, Note_off_c, 10, 57, 127
1, 597795, Note_off_c, 3, 75, 127
1, 597799, Note_on_c, 4, 76, 127
1, 597799, Note_on_c, 7, 55, 127
1, 597927, Note_off_c, 4, 76, 127
1, 597930, Note_on_c, 3, 75, 127
1, 598058, Note_off_c, 3, 75, 127
1, 598061, Note_on_c, 1, 73, 127
1, 598270, Note_off_c, 7, 55, 127
1, 598275, Note_on_c, 10, 57, 127
1, 598479, Note_off_c, 1, 73, 127
1, 598515, Note_on_c, 3, 75, 127
1, 598631, Note_off_c, 3, 75, 127
1, 598633, Note_on_c, 4, 76, 127
1, 598746, Note_off_c, 10, 57, 127
1, 598749, Note_off_c, 4, 76, 127
1, 598753, Note_on_c, 6, 78, 127
1, 598753, Note_on_c, 7, 55, 127
1, 598881, Note_off_c, 6, 78, 127
1, 598885, Note_on_c, 4, 76, 127
1, 599013, Note_off_c, 4, 76, 127
1, 599018, Note_on_c, 3, 75, 127
1, 599224, Note_off_c, 7, 55, 127
1, 599232, Note_on_c, 6, 54, 127
1, 599436, Note_off_c, 3, 75, 127
1, 599470, Note_on_c, 4, 76, 127
1, 599586, Note_off_c, 4, 76, 127
1, 599590, Note_on_c, 6, 78, 127
1, 599703, Note_off_c, 6, 54, 127
1, 599706, Note_off_c, 6, 78, 127
1, 599709, Note_on_c, 7, 79, 127
1, 599709, Note_on_c, 4, 52, 127
1, 599837, Note_off_c, 7, 79, 127
1, 599842, Note_on_c, 6, 78, 127
1, 599970, Note_off_c, 6, 78, 127
1, 599972, Note_on_c, 4, 76, 127
1, 600180, Note_off_c, 4, 52, 127
1, 600187, Note_on_c, 2, 50, 127
1, 600205, Note_off_c, 4, 76, 127
1, 600306, Note_on_c, 12, 71, 127
1, 600422, Note_off_c, 12, 71, 127
1, 600426, Note_on_c, 4, 76, 127
1, 600542, Note_off_c, 4, 76, 127
1, 600546, Note_on_c, 6, 78, 127
1, 600658, Note_off_c, 2, 50, 127
1, 600662, Note_off_c, 6, 78, 127
1, 600666, Note_on_c, 7, 79, 127
1, 600666, Note_on_c, 1, 49, 127
1, 600782, Note_off_c, 7, 79, 127
1, 600785, Note_on_c, 6, 78, 127
1, 600901, Note_off_c, 6, 78, 127
1, 600904, Note_on_c, 4, 76, 127
1, 601020, Note_off_c, 4, 76, 127
1, 601024, Note_on_c, 2, 74, 127
1, 601137, Note_off_c, 1, 49, 127
1, 601140, Note_off_c, 2, 74, 127
1, 601143, Note_on_c, 1, 73, 127
1, 601143, Note_on_c, 2, 50, 127
1, 601259, Note_off_c, 1, 73, 127
1, 601264, Note_on_c, 12, 71, 127
1, 601380, Note_off_c, 12, 71, 127
1, 601382, Note_on_c, 11, 70, 127
1, 601498, Note_off_c, 11, 70, 127
1, 601501, Note_on_c, 8, 68, 127
1, 601614, Note_off_c, 2, 50, 127
1, 601617, Note_off_c, 8, 68, 127
1, 601622, Note_on_c, 11, 70, 127
1, 601622, Note_on_c, 1, 49, 127
1, 601753, Note_on_c, 1, 73, 127
1, 601884, Note_on_c, 4, 76, 127
1, 601991, Note_off_c, 11, 70, 127
1, 601998, Note_off_c, 1, 73, 127
1, 602093, Note_off_c, 1, 49, 127
1, 602099, Note_on_c, 12, 47, 127
1, 602331, Note_off_c, 4, 76, 127
1, 602338, Note_on_c, 7, 67, 127
1, 602570, Note_off_c, 12, 47, 127
1, 602572, Note_off_c, 7, 67, 127
1, 602577, Note_on_c, 6, 66, 127
1, 602577, Note_on_c, 11, 46, 127
1, 602693, Note_off_c, 6, 66, 127
1, 602697, Note_on_c, 7, 67, 127
1, 602813, Note_off_c, 7, 67, 127
1, 602816, Note_on_c, 6, 66, 127
1, 602932, Note_off_c, 6, 66, 127
1, 602934, Note_on_c, 4, 64, 127
1, 603048, Note_off_c, 11, 46, 127
1, 603050, Note_off_c, 4, 64, 127
1, 603055, Note_on_c, 4, 64, 127
1, 603055, Note_on_c, 12, 47, 127
1, 603171, Note_off_c, 4, 64, 127
1, 603174, Note_on_c, 6, 66, 127
1, 603290, Note_off_c, 6, 66, 127
1, 603293, Note_on_c, 4, 64, 127
1, 603409, Note_off_c, 4, 64, 127
1, 603414, Note_on_c, 2, 62, 127
1, 603526, Note_off_c, 12, 47, 127
1, 603530, Note_off_c, 2, 62, 127
1, 603532, Note_on_c, 2, 62, 127
1, 603532, Note_on_c, 4, 52, 127
1, 603648, Note_off_c, 2, 62, 127
1, 603651, Note_on_c, 4, 64, 127
1, 603767, Note_off_c, 4, 64, 127
1, 603772, Note_on_c, 2, 62, 127
1, 603888, Note_off_c, 2, 62, 127
1, 603891, Note_on_c, 1, 61, 127
1, 604003, Note_off_c, 4, 52, 127
1, 604007, Note_off_c, 1, 61, 127
1, 604010, Note_on_c, 1, 61, 127
1, 604010, Note_on_c, 7, 55, 127
1, 604126, Note_off_c, 1, 61, 127
1, 604131, Note_on_c, 2, 62, 127
1, 604247, Note_off_c, 2, 62, 127
1, 604250, Note_on_c, 1, 61, 127
1, 604366, Note_off_c, 1, 61, 127
1, 604369, Note_on_c, 12, 59, 127
1, 604481, Note_off_c, 7, 55, 127
1, 604485, Note_off_c, 12, 59, 127
1, 604489, Note_on_c, 12, 59, 127
1, 604489, Note_on_c, 6, 54, 127
1, 604605, Note_off_c, 12, 59, 127
1, 604609, Note_on_c, 1, 61, 127
1, 604725, Note_off_c, 1, 61, 127
1, 604727, Note_on_c, 12, 59, 127
1, 604843, Note_off_c, 12, 59, 127
1, 604848, Note_on_c, 11, 58, 127
1, 604960, Note_off_c, 6, 54, 127
1, 604964, Note_off_c, 11, 58, 127
1, 604967, Note_on_c, 4, 64, 127
1, 604967, Note_on_c, 6, 42, 127
1, 605200, Note_off_c, 4, 64, 127
1, 605284, Note_on_c, 2, 62, 127
1, 605438, Note_off_c, 2, 62, 127
1, 605438, Note_off_c, 6, 42, 127
1, 605445, Note_on_c, 1, 61, 127
1, 605445, Note_on_c, 12, 47, 127
1, 605679, Note_off_c, 1, 61, 127
1, 605683, Note_on_c, 12, 59, 127
1, 605904, Note_off_c, 12, 59, 127
1, 605916, Note_off_c, 12, 47, 127
1, 605922, Note_on_c, 1, 49, 127
1, 606042, Note_on_c, 1, 61, 127
1, 606158, Note_off_c, 1, 61, 127
1, 606162, Note_on_c, 2, 62, 127
1, 606278, Note_off_c, 2, 62, 127
1, 606281, Note_on_c, 4, 64, 127
1, 606393, Note_off_c, 1, 49, 127
1, 606397, Note_off_c, 4, 64, 127
1, 606400, Note_on_c, 6, 66, 127
1, 606400, Note_on_c, 2, 50, 127
1, 606528, Note_off_c, 6, 66, 127
1, 606532, Note_on_c, 4, 64, 127
1, 606660, Note_off_c, 4, 64, 127
1, 606665, Note_on_c, 2, 62, 127
1, 606871, Note_off_c, 2, 50, 127
1, 606878, Note_on_c, 4, 52, 127
1, 606959, Note_off_c, 2, 62, 127
1, 606998, Note_on_c, 4, 64, 127
1, 607114, Note_off_c, 4, 64, 127
1, 607116, Note_on_c, 6, 66, 127
1, 607232, Note_off_c, 6, 66, 127
1, 607236, Note_on_c, 7, 67, 127
1, 607349, Note_off_c, 4, 52, 127
1, 607352, Note_off_c, 7, 67, 127
1, 607356, Note_on_c, 10, 69, 127
1, 607356, Note_on_c, 6, 54, 127
1, 607484, Note_off_c, 10, 69, 127
1, 607488, Note_on_c, 7, 67, 127
1, 607616, Note_off_c, 7, 67, 127
1, 607620, Note_on_c, 6, 66, 127
1, 607827, Note_off_c, 6, 54, 127
1, 607834, Note_on_c, 7, 55, 127
1, 607914, Note_off_c, 6, 66, 127
1, 607954, Note_on_c, 7, 67, 127
1, 608070, Note_off_c, 7, 67, 127
1, 608074, Note_on_c, 10, 69, 127
1, 608190, Note_off_c, 10, 69, 127
1, 608193, Note_on_c, 12, 71, 127
1, 608305, Note_off_c, 7, 55, 127
1, 608309, Note_off_c, 12, 71, 127
1, 608312, Note_on_c, 0, 72, 127
1, 608312, Note_on_c, 10, 57, 127
1, 608440, Note_off_c, 0, 72, 127
1, 608444, Note_on_c, 12, 71, 127
1, 608572, Note_off_c, 12, 71, 127
1, 608576, Note_on_c, 10, 69, 127
1, 608783, Note_off_c, 10, 57, 127
1, 608791, Note_on_c, 6, 54, 127
1, 608970, Note_off_c, 10, 69, 127
1, 609029, Note_on_c, 3, 75, 127
1, 609262, Note_off_c, 6, 54, 127
1, 609263, Note_off_c, 3, 75, 127
1, 609267, Note_on_c, 4, 76, 127
1, 609267, Note_on_c, 7, 55, 127
1, 609486, Note_off_c, 4, 76, 127
1, 609492, Note_on_c, 12, 71, 127
1, 609614, Note_off_c, 12, 71, 127
1, 609619, Note_on_c, 10, 69, 127
1, 609738, Note_off_c, 7, 55, 127
1, 609741, Note_off_c, 10, 69, 127
1, 609746, Note_on_c, 12, 71, 127
1, 609746, Note_on_c, 4, 52, 127
1, 609980, Note_off_c, 12, 71, 127
1, 609985, Note_on_c, 7, 79, 127
1, 610217, Note_off_c, 4, 52, 127
1, 610224, Note_on_c, 4, 64, 127
1, 610428, Note_off_c, 7, 79, 127
1, 610463, Note_on_c, 10, 81, 127
1, 610695, Note_off_c, 4, 64, 127
1, 610697, Note_off_c, 10, 81, 127
1, 610701, Note_on_c, 0, 72, 127
1, 610701, Note_on_c, 2, 62, 127
1, 610935, Note_off_c, 0, 72, 127
1, 610941, Note_on_c, 12, 71, 127
1, 611172, Note_off_c, 2, 62, 127
1, 611175, Note_off_c, 12, 71, 127
1, 611180, Note_on_c, 10, 69, 127
1, 611180, Note_on_c, 0, 60, 127
1, 611296, Note_off_c, 10, 69, 127
1, 611299, Note_on_c, 7, 67, 127
1, 611415, Note_off_c, 7, 67, 127
1, 611419, Note_on_c, 10, 69, 127
1, 611651, Note_off_c, 0, 60, 127
1, 611658, Note_on_c, 10, 57, 127
1, 611881, Note_off_c, 10, 69, 127
1, 611897, Note_on_c, 7, 79, 127
1, 612129, Note_off_c, 10, 57, 127
1, 612131, Note_off_c, 7, 79, 127
1, 612136, Note_on_c, 6, 78, 127
1, 612136, Note_on_c, 12, 59, 127
1, 612264, Note_off_c, 6, 78, 127
1, 612267, Note_on_c, 4, 76, 127
1, 612395, Note_off_c, 4, 76, 127
1, 612399, Note_on_c, 3, 75, 127
1, 612607, Note_off_c, 12, 59, 127
1, 612614, Note_on_c, 7, 55, 127
1, 612817, Note_off_c, 3, 75, 127
1, 612852, Note_on_c, 4, 76, 127
1, 612968, Note_off_c, 4, 76, 127
1, 612972, Note_on_c, 7, 79, 127
1, 613085, Note_off_c, 7, 55, 127
1, 613088, Note_off_c, 7, 79, 127
1, 613091, Note_on_c, 0, 84, 127
1, 613091, Note_on_c, 10, 57, 127
1, 613219, Note_off_c, 0, 84, 127
1, 613223, Note_on_c, 12, 83, 127
1, 613351, Note_off_c, 12, 83, 127
1, 613356, Note_on_c, 10, 81, 127
1, 613562, Note_off_c, 10, 57, 127
1, 613569, Note_on_c, 6, 54, 127
1, 613774, Note_off_c, 10, 81, 127
1, 613809, Note_on_c, 8, 80, 127
1, 613925, Note_off_c, 8, 80, 127
1, 613928, Note_on_c, 10, 81, 127
1, 614040, Note_off_c, 6, 54, 127
1, 614044, Note_off_c, 10, 81, 127
1, 614048, Note_on_c, 12, 71, 127
1, 614048, Note_on_c, 3, 63, 127
1, 614164, Note_off_c, 12, 71, 127
1, 614167, Note_on_c, 10, 81, 127
1, 614283, Note_off_c, 10, 81, 127
1, 614285, Note_on_c, 7, 79, 127
1, 614401, Note_off_c, 7, 79, 127
1, 614406, Note_on_c, 6, 78, 127
1, 614519, Note_off_c, 3, 63, 127
1, 614522, Note_off_c, 6, 78, 127
1, 614526, Note_on_c, 7, 79, 127
1, 614526, Note_on_c, 4, 64, 127
1, 614760, Note_off_c, 7, 79, 127
1, 614765, Note_on_c, 4, 76, 127
1, 614997, Note_off_c, 4, 64, 127
1, 614999, Note_off_c, 4, 76, 127
1, 615003, Note_on_c, 0, 72, 127
1, 615003, Note_on_c, 10, 57, 127
1, 615237, Note_off_c, 0, 72, 127
1, 615243, Note_on_c, 5, 77, 127
1, 615474, Note_off_c, 10, 57, 127
1, 615477, Note_off_c, 5, 77, 127
1, 615482, Note_on_c, 3, 75, 127
1, 615482, Note_on_c, 0, 60, 127
1, 615690, Note_off_c, 3, 75, 127
1, 615730, Note_on_c, 4, 76, 127
1, 615953, Note_off_c, 0, 60, 127
1, 615960, Note_on_c, 6, 54, 127
1, 616192, Note_off_c, 4, 76, 127
1, 616199, Note_on_c, 3, 75, 127
1, 616315, Note_off_c, 3, 75, 127
1, 616318, Note_on_c, 1, 73, 127
1, 616431, Note_off_c, 6, 54, 127
1, 616434, Note_off_c, 1, 73, 127
1, 616437, Note_on_c, 3, 75, 127
1, 616437, Note_on_c, 12, 59, 127
1, 616565, Note_off_c, 3, 75, 127
1, 616569, Note_on_c, 6, 78, 127
1, 616697, Note_off_c, 6, 78, 127
1, 616700, Note_on_c, 10, 81, 127
1, 616908, Note_off_c, 12, 59, 127
1, 616916, Note_on_c, 4, 52, 127
1, 617069, Note_off_c, 10, 81, 127
1, 617140, Note_on_c, 7, 79, 127
1, 617262, Note_off_c, 7, 79, 127
1, 617266, Note_on_c, 6, 78, 127
1, 617387, Note_off_c, 4, 52, 127
1, 617388, Note_off_c, 6, 78, 127
1, 617393, Note_on_c, 7, 79, 127
1, 617393, Note_on_c, 12, 47, 127
1, 617861, Note_off_c, 7, 79, 127
1, 617864, Note_off_c, 12, 47, 127
1, 617870, Note_on_c, 4, 40, 127
1, 617991, Note_on_c, 6, 78, 127
1, 618107, Note_off_c, 6, 78, 127
1, 618110, Note_on_c, 4, 76, 127
1, 618226, Note_off_c, 4, 76, 127
1, 618230, Note_on_c, 6, 78, 127
1, 618341, Note_off_c, 4, 40, 127
1, 618346, Note_off_c, 6, 78, 127
1, 618349, Note_on_c, 7, 79, 127
1, 618349, Note_on_c, 12, 47, 127
1, 618465, Note_off_c, 7, 79, 127
1, 618468, Note_on_c, 6, 78, 127
1, 618584, Note_off_c, 6, 78, 127
1, 618588, Note_on_c, 4, 76, 127
1, 618704, Note_off_c, 4, 76, 127
1, 618708, Note_on_c, 2, 74, 127
1, 618820, Note_off_c, 12, 47, 127
1, 618824, Note_off_c, 2, 74, 127
1, 618827, Note_on_c, 1, 73, 127
1, 618827, Note_on_c, 4, 52, 127
1, 618943, Note_off_c, 1, 73, 127
1, 618947, Note_on_c, 12, 71, 127
1, 619063, Note_off_c, 12, 71, 127
1, 619066, Note_on_c, 10, 69, 127
1, 619182, Note_off_c, 10, 69, 127
1, 619185, Note_on_c, 12, 71, 127
1, 619298, Note_off_c, 4, 52, 127
1, 619301, Note_off_c, 12, 71, 127
1, 619305, Note_on_c, 1, 73, 127
1, 619305, Note_on_c, 2, 50, 127
1, 619421, Note_off_c, 1, 73, 127
1, 619425, Note_on_c, 2, 74, 127
1, 619541, Note_off_c, 2, 74, 127
1, 619544, Note_on_c, 4, 76, 127
1, 619660, Note_off_c, 4, 76, 127
1, 619663, Note_on_c, 6, 78, 127
1, 619776, Note_off_c, 2, 50, 127
1, 619779, Note_off_c, 6, 78, 127
1, 619783, Note_on_c, 7, 79, 127
1, 619783, Note_on_c, 1, 49, 127
1, 619899, Note_off_c, 7, 79, 127
1, 619902, Note_on_c, 10, 69, 127
1, 620018, Note_off_c, 10, 69, 127
1, 620021, Note_on_c, 8, 68, 127
1, 620137, Note_off_c, 8, 68, 127
1, 620142, Note_on_c, 10, 69, 127
1, 620254, Note_off_c, 1, 49, 127
1, 620258, Note_off_c, 10, 69, 127
1, 620261, Note_on_c, 12, 71, 127
1, 620261, Note_on_c, 10, 45, 127
1, 620377, Note_off_c, 12, 71, 127
1, 620380, Note_on_c, 1, 73, 127
1, 620496, Note_off_c, 1, 73, 127
1, 620500, Note_on_c, 2, 74, 127
1, 620616, Note_off_c, 2, 74, 127
1, 620619, Note_on_c, 4, 76, 127
1, 620732, Note_off_c, 10, 45, 127
1, 620735, Note_off_c, 4, 76, 127
1, 620738, Note_on_c, 6, 78, 127
1, 620738, Note_on_c, 2, 50, 127
1, 620934, Note_off_c, 6, 78, 127
1, 620963, Note_on_c, 0, 72, 127
1, 621090, Note_off_c, 0, 72, 127
1, 621090, Note_on_c, 12, 71, 127
1, 621209, Note_off_c, 2, 50, 127
1, 621212, Note_off_c, 12, 71, 127
1, 621216, Note_on_c, 0, 72, 127
1, 621216, Note_on_c, 4, 52, 127
1, 621454, Note_on_c, 7, 79, 127
1, 621489, Note_off_c, 0, 72, 127
1, 621687, Note_off_c, 4, 52, 127
1, 621688, Note_off_c, 7, 79, 127
1, 621695, Note_on_c, 10, 81, 127
1, 621695, Note_on_c, 6, 54, 127
1, 621934, Note_on_c, 0, 72, 127
1, 621967, Note_off_c, 10, 81, 127
1, 622160, Note_off_c, 0, 72, 127
1, 622166, Note_off_c, 6, 54, 127
1, 622173, Note_on_c, 12, 71, 127
1, 622173, Note_on_c, 2, 50, 127
1, 622407, Note_off_c, 12, 71, 127
1, 622412, Note_on_c, 10, 69, 127
1, 622644, Note_off_c, 2, 50, 127
1, 622646, Note_off_c, 10, 69, 127
1, 622650, Note_on_c, 12, 71, 127
1, 622650, Note_on_c, 7, 55, 127
1, 622766, Note_off_c, 12, 71, 127
1, 622770, Note_on_c, 7, 67, 127
1, 622886, Note_off_c, 7, 67, 127
1, 622890, Note_on_c, 6, 66, 127
1, 623006, Note_off_c, 6, 66, 127
1, 623009, Note_on_c, 7, 67, 127
1, 623121, Note_off_c, 7, 55, 127
1, 623125, Note_off_c, 7, 67, 127
1, 623129, Note_on_c, 10, 69, 127
1, 623129, Note_on_c, 4, 52, 127
1, 623245, Note_off_c, 10, 69, 127
1, 623248, Note_on_c, 12, 71, 127
1, 623364, Note_off_c, 12, 71, 127
1, 623367, Note_on_c, 1, 73, 127
1, 623483, Note_off_c, 1, 73, 127
1, 623487, Note_on_c, 2, 74, 127
1, 623600, Note_off_c, 4, 52, 127
1, 623603, Note_off_c, 2, 74, 127
1, 623606, Note_on_c, 1, 73, 127
1, 623606, Note_on_c, 10, 57, 127
1, 623840, Note_off_c, 1, 73, 127
1, 623845, Note_on_c, 7, 67, 127
1, 623961, Note_off_c, 7, 67, 127
1, 623965, Note_on_c, 6, 66, 127
1, 624077, Note_off_c, 10, 57, 127
1, 624081, Note_off_c, 6, 66, 127
1, 624084, Note_on_c, 7, 67, 127
1, 624084, Note_on_c, 12, 59, 127
1, 624318, Note_off_c, 7, 67, 127
1, 624323, Note_on_c, 2, 74, 127
1, 624555, Note_off_c, 12, 59, 127
1, 624557, Note_off_c, 2, 74, 127
1, 624562, Note_on_c, 4, 76, 127
1, 624562, Note_on_c, 1, 61, 127
1, 624758, Note_off_c, 4, 76, 127
1, 624801, Note_on_c, 7, 67, 127
1, 625033, Note_off_c, 1, 61, 127
1, 625035, Note_off_c, 7, 67, 127
1, 625039, Note_on_c, 6, 66, 127
1, 625039, Note_on_c, 10, 57, 127
1, 625273, Note_off_c, 6, 66, 127
1, 625280, Note_on_c, 4, 64, 127
1, 625510, Note_off_c, 10, 57, 127
1, 625514, Note_off_c, 4, 64, 127
1, 625519, Note_on_c, 6, 66, 127
1, 625519, Note_on_c, 2, 62, 127
1, 625635, Note_off_c, 6, 66, 127
1, 625637, Note_on_c, 10, 69, 127
1, 625753, Note_off_c, 10, 69, 127
1, 625757, Note_on_c, 12, 71, 127
1, 625873, Note_off_c, 12, 71, 127
1, 625878, Note_on_c, 1, 73, 127
1, 625990, Note_off_c, 2, 62, 127
1, 625994, Note_off_c, 1, 73, 127
1, 625996, Note_on_c, 2, 74, 127
1, 625996, Note_on_c, 12, 59, 127
1, 626124, Note_off_c, 2, 74, 127
1, 626128, Note_on_c, 1, 73, 127
1, 626256, Note_off_c, 1, 73, 127
1, 626259, Note_on_c, 2, 74, 127
1, 626467, Note_off_c, 12, 59, 127
1, 626474, Note_on_c, 4, 64, 127
1, 626579, Note_off_c, 2, 74, 127
1, 626594, Note_on_c, 8, 80, 127
1, 626710, Note_off_c, 8, 80, 127
1, 626714, Note_on_c, 10, 81, 127
1, 626830, Note_off_c, 10, 81, 127
1, 626832, Note_on_c, 12, 83, 127
1, 626945, Note_off_c, 4, 64, 127
1, 626948, Note_off_c, 12, 83, 127
1, 626952, Note_on_c, 10, 81, 127
1, 626952, Note_on_c, 6, 66, 127
1, 627068, Note_off_c, 10, 81, 127
1, 627072, Note_on_c, 8, 80, 127
1, 627188, Note_off_c, 8, 80, 127
1, 627190, Note_on_c, 6, 78, 127
1, 627306, Note_off_c, 6, 78, 127
1, 627311, Note_on_c, 4, 76, 127
1, 627423, Note_off_c, 6, 66, 127
1, 627427, Note_off_c, 4, 76, 127
1, 627430, Note_on_c, 2, 74, 127
1, 627430, Note_on_c, 8, 68, 127
1, 627584, Note_off_c, 2, 74, 127
1, 627589, Note_on_c, 1, 73, 127
1, 627743, Note_off_c, 1, 73, 127
1, 627749, Note_on_c, 2, 74, 127
1, 627901, Note_off_c, 8, 68, 127
1, 627903, Note_off_c, 2, 74, 127
1, 627907, Note_on_c, 12, 83, 127
1, 627907, Note_on_c, 4, 64, 127
1, 628141, Note_off_c, 12, 83, 127
1, 628147, Note_on_c, 2, 74, 127
1, 628378, Note_off_c, 4, 64, 127
1, 628381, Note_off_c, 2, 74, 127
1, 628385, Note_on_c, 2, 74, 127
1, 628385, Note_on_c, 10, 69, 127
1, 628636, Note_off_c, 2, 74, 127
1, 628642, Note_on_c, 1, 73, 127
1, 628876, Note_off_c, 10, 69, 127
1, 628883, Note_on_c, 12, 71, 127
1, 629110, Note_off_c, 1, 73, 127
1, 629335, Note_off_c, 12, 71, 127
1, 629342, Note_on_c, 10, 69, 127
1, 629462, Note_on_c, 2, 74, 127
1, 629578, Note_off_c, 2, 74, 127
1, 629581, Note_on_c, 4, 76, 127
1, 629697, Note_off_c, 4, 76, 127
1, 629700, Note_on_c, 2, 74, 127
1, 629813, Note_off_c, 10, 69, 127
1, 629816, Note_off_c, 2, 74, 127
1, 629819, Note_on_c, 1, 73, 127
1, 629819, Note_on_c, 7, 67, 127
1, 629935, Note_off_c, 1, 73, 127
1, 629939, Note_on_c, 2, 74, 127
1, 630055, Note_off_c, 2, 74, 127
1, 630059, Note_on_c, 1, 73, 127
1, 630175, Note_off_c, 1, 73, 127
1, 630178, Note_on_c, 12, 71, 127
1, 630290, Note_off_c, 7, 67, 127
1, 630294, Note_off_c, 12, 71, 127
1, 630298, Note_on_c, 12, 71, 127
1, 630298, Note_on_c, 6, 66, 127
1, 630557, Note_off_c, 12, 71, 127
1, 630562, Note_on_c, 10, 69, 127
1, 630769, Note_off_c, 6, 66, 127
1, 630775, Note_on_c, 4, 64, 127
1, 631030, Note_off_c, 10, 69, 127
1, 631341, Note_off_c, 4, 64, 127
1, 631372, Note_on_c, 6, 78, 127
1, 631372, Note_on_c, 2, 62, 127
1, 631372, Note_on_c, 10, 69, 127
1, 631488, Note_off_c, 6, 78, 127
1, 631492, Note_on_c, 4, 76, 127
1, 631608, Note_off_c, 4, 76, 127
1, 631612, Note_on_c, 2, 74, 127
1, 632318, Note_off_c, 10, 69, 127
1, 632318, Note_off_c, 2, 62, 127
1, 632321, Note_off_c, 2, 74, 127
1, 632330, Note_on_c, 2, 74, 127
1, 632330, Note_on_c, 7, 67, 127
1, 632330, Note_on_c, 4, 64, 127
1, 633276, Note_off_c, 2, 74, 127
1, 633284, Note_on_c, 1, 73, 127
1, 633985, Note_off_c, 4, 64, 127
1, 633985, Note_off_c, 7, 67, 127
1, 633993, Note_off_c, 1, 73, 127
1, 634000, Note_on_c, 2, 74, 127
1, 634233, Note_off_c, 2, 74, 127
1, 634241, Note_on_c, 6, 66, 127
1, 634475, Note_off_c, 6, 66, 127
1, 634480, Note_on_c, 7, 67, 127
1, 634714, Note_off_c, 7, 67, 127
1, 634718, Note_on_c, 10, 69, 127
1, 634952, Note_off_c, 10, 69, 127
1, 634957, Note_on_c, 12, 71, 127
1, 635073, Note_off_c, 12, 71, 127
1, 635077, Note_on_c, 0, 72, 127
1, 635193, Note_off_c, 0, 72, 127
1, 635196, Note_on_c, 10, 81, 127
1, 636616, Note_off_c, 10, 81, 127
1, 636989, Note_on_c, 7, 67, 127
1, 636989, Note_on_c, 12, 71, 127
1, 637117, Note_off_c, 12, 71, 127
1, 637120, Note_on_c, 1, 73, 127
1, 637248, Note_off_c, 1, 73, 127
1, 637252, Note_on_c, 2, 74, 127
1, 637460, Note_off_c, 7, 67, 127
1, 637466, Note_on_c, 4, 64, 127
1, 637670, Note_off_c, 2, 74, 127
1, 637706, Note_on_c, 1, 73, 127
1, 637937, Note_off_c, 4, 64, 127
1, 637940, Note_off_c, 1, 73, 127
1, 637944, Note_on_c, 6, 66, 127
1, 637944, Note_on_c, 2, 74, 127
1, 638178, Note_off_c, 2, 74, 127
1, 638182, Note_on_c, 10, 69, 127
1, 638298, Note_off_c, 10, 69, 127
1, 638302, Note_on_c, 7, 67, 127
1, 638415, Note_off_c, 6, 66, 127
1, 638418, Note_off_c, 7, 67, 127
1, 638423, Note_on_c, 2, 62, 127
1, 638423, Note_on_c, 10, 69, 127
1, 638657, Note_off_c, 10, 69, 127
1, 638661, Note_on_c, 6, 78, 127
1, 638894, Note_off_c, 2, 62, 127
1, 638900, Note_on_c, 4, 64, 127
1, 639117, Note_off_c, 6, 78, 127
1, 639139, Note_on_c, 7, 79, 127
1, 639371, Note_off_c, 4, 64, 127
1, 639373, Note_off_c, 7, 79, 127
1, 639378, Note_on_c, 1, 61, 127
1, 639378, Note_on_c, 10, 69, 127
1, 639612, Note_off_c, 10, 69, 127
1, 639618, Note_on_c, 7, 79, 127
1, 639849, Note_off_c, 1, 61, 127
1, 639852, Note_off_c, 7, 79, 127
1, 639857, Note_on_c, 2, 62, 127
1, 639857, Note_on_c, 6, 78, 127
1, 639985, Note_off_c, 6, 78, 127
1, 639988, Note_on_c, 7, 79, 127
1, 640116, Note_off_c, 7, 79, 127
1, 640120, Note_on_c, 10, 81, 127
1, 640328, Note_off_c, 2, 62, 127
1, 640334, Note_on_c, 12, 59, 127
1, 640538, Note_off_c, 10, 81, 127
1, 640573, Note_on_c, 7, 79, 127
1, 640689, Note_off_c, 7, 79, 127
1, 640693, Note_on_c, 6, 78, 127
1, 640805, Note_off_c, 12, 59, 127
1, 640809, Note_off_c, 6, 78, 127
1, 640812, Note_on_c, 1, 61, 127
1, 640812, Note_on_c, 4, 76, 127
1, 640940, Note_off_c, 4, 76, 127
1, 640944, Note_on_c, 6, 78, 127
1, 641072, Note_off_c, 6, 78, 127
1, 641076, Note_on_c, 7, 79, 127
1, 641283, Note_off_c, 1, 61, 127
1, 641290, Note_on_c, 10, 57, 127
1, 641494, Note_off_c, 7, 79, 127
1, 641529, Note_on_c, 6, 78, 127
1, 641645, Note_off_c, 6, 78, 127
1, 641649, Note_on_c, 4, 76, 127
1, 641761, Note_off_c, 10, 57, 127
1, 641765, Note_off_c, 4, 76, 127
1, 641767, Note_on_c, 12, 59, 127
1, 641767, Note_on_c, 2, 74, 127
1, 641895, Note_off_c, 2, 74, 127
1, 641900, Note_on_c, 4, 76, 127
1, 642028, Note_off_c, 4, 76, 127
1, 642032, Note_on_c, 6, 78, 127
1, 642238, Note_off_c, 12, 59, 127
1, 642246, Note_on_c, 8, 56, 127
1, 642450, Note_off_c, 6, 78, 127
1, 642484, Note_on_c, 4, 76, 127
1, 642600, Note_off_c, 4, 76, 127
1, 642604, Note_on_c, 2, 74, 127
1, 642717, Note_off_c, 8, 56, 127
1, 642720, Note_off_c, 2, 74, 127
1, 642724, Note_on_c, 10, 57, 127
1, 642724, Note_on_c, 1, 73, 127
1, 642840, Note_off_c, 1, 73, 127
1, 642844, Note_on_c, 4, 76, 127
1, 642960, Note_off_c, 4, 76, 127
1, 642963, Note_on_c, 2, 74, 127
1, 643079, Note_off_c, 2, 74, 127
1, 643083, Note_on_c, 1, 73, 127
1, 643195, Note_off_c, 10, 57, 127
1, 643199, Note_off_c, 1, 73, 127
1, 643202, Note_on_c, 4, 52, 127
1, 643202, Note_on_c, 2, 74, 127
1, 643318, Note_off_c, 2, 74, 127
1, 643321, Note_on_c, 1, 73, 127
1, 643437, Note_off_c, 1, 73, 127
1, 643442, Note_on_c, 12, 71, 127
1, 643558, Note_off_c, 12, 71, 127
1, 643560, Note_on_c, 10, 69, 127
1, 643673, Note_off_c, 4, 52, 127
1, 643680, Note_on_c, 7, 55, 127
1, 643693, Note_off_c, 10, 69, 127
1, 643800, Note_on_c, 6, 78, 127
1, 643916, Note_off_c, 6, 78, 127
1, 643918, Note_on_c, 4, 76, 127
1, 644034, Note_off_c, 4, 76, 127
1, 644038, Note_on_c, 2, 74, 127
1, 644151, Note_off_c, 7, 55, 127
1, 644154, Note_off_c, 2, 74, 127
1, 644158, Note_on_c, 1, 49, 127
1, 644158, Note_on_c, 4, 76, 127
1, 644274, Note_off_c, 4, 76, 127
1, 644277, Note_on_c, 1, 73, 127
1, 644393, Note_off_c, 1, 73, 127
1, 644397, Note_on_c, 12, 71, 127
1, 644513, Note_off_c, 12, 71, 127
1, 644516, Note_on_c, 10, 69, 127
1, 644629, Note_off_c, 1, 49, 127
1, 644635, Note_on_c, 4, 52, 127
1, 644662, Note_off_c, 10, 69, 127
1, 644755, Note_on_c, 7, 79, 127
1, 644871, Note_off_c, 7, 79, 127
1, 644875, Note_on_c, 6, 78, 127
1, 644991, Note_off_c, 6, 78, 127
1, 644994, Note_on_c, 4, 76, 127
1, 645106, Note_off_c, 4, 52, 127
1, 645110, Note_off_c, 4, 76, 127
1, 645114, Note_on_c, 10, 45, 127
1, 645114, Note_on_c, 6, 78, 127
1, 645230, Note_off_c, 6, 78, 127
1, 645233, Note_on_c, 1, 73, 127
1, 645349, Note_off_c, 1, 73, 127
1, 645352, Note_on_c, 12, 71, 127
1, 645468, Note_off_c, 12, 71, 127
1, 645472, Note_on_c, 10, 69, 127
1, 645585, Note_off_c, 10, 45, 127
1, 645592, Note_on_c, 1, 37, 127
1, 645655, Note_off_c, 10, 69, 127
1, 645711, Note_on_c, 10, 81, 127
1, 645827, Note_off_c, 10, 81, 127
1, 645831, Note_on_c, 7, 79, 127
1, 645947, Note_off_c, 7, 79, 127
1, 645949, Note_on_c, 6, 78, 127
1, 646065, Note_off_c, 6, 78, 127
1, 646069, Note_on_c, 7, 79, 127
1, 646185, Note_off_c, 7, 79, 127
1, 646189, Note_on_c, 6, 78, 127
1, 646305, Note_off_c, 6, 78, 127
1, 646309, Note_on_c, 4, 76, 127
1, 646425, Note_off_c, 4, 76, 127
1, 646429, Note_on_c, 2, 74, 127
1, 646538, Note_off_c, 1, 37, 127
1, 646545, Note_off_c, 2, 74, 127
1, 646548, Note_on_c, 1, 73, 127
1, 646664, Note_off_c, 1, 73, 127
1, 646667, Note_on_c, 4, 76, 127
1, 646783, Note_off_c, 4, 76, 127
1, 646787, Note_on_c, 2, 74, 127
1, 646903, Note_off_c, 2, 74, 127
1, 646906, Note_on_c, 1, 73, 127
1, 647022, Note_off_c, 1, 73, 127
1, 647026, Note_on_c, 2, 74, 127
1, 647142, Note_off_c, 2, 74, 127
1, 647145, Note_on_c, 1, 73, 127
1, 647261, Note_off_c, 1, 73, 127
1, 647265, Note_on_c, 12, 71, 127
1, 647381, Note_off_c, 12, 71, 127
1, 647384, Note_on_c, 10, 69, 127
1, 647500, Note_off_c, 10, 69, 127
1, 647503, Note_on_c, 7, 67, 127
1, 647619, Note_off_c, 7, 67, 127
1, 647623, Note_on_c, 12, 71, 127
1, 647739, Note_off_c, 12, 71, 127
1, 647742, Note_on_c, 10, 69, 127
1, 647858, Note_off_c, 10, 69, 127
1, 647862, Note_on_c, 7, 67, 127
1, 647978, Note_off_c, 7, 67, 127
1, 647982, Note_on_c, 1, 49, 127
1, 647982, Note_on_c, 10, 69, 127
1, 648098, Note_off_c, 10, 69, 127
1, 648100, Note_on_c, 7, 67, 127
1, 648216, Note_off_c, 7, 67, 127
1, 648220, Note_on_c, 6, 66, 127
1, 648336, Note_off_c, 6, 66, 127
1, 648340, Note_on_c, 4, 64, 127
1, 648453, Note_off_c, 1, 49, 127
1, 648456, Note_off_c, 4, 64, 127
1, 648459, Note_on_c, 2, 50, 127
1, 648459, Note_on_c, 6, 66, 127
1, 648575, Note_off_c, 6, 66, 127
1, 648579, Note_on_c, 10, 69, 127
1, 648695, Note_off_c, 10, 69, 127
1, 648699, Note_on_c, 2, 62, 127
1, 648930, Note_off_c, 2, 50, 127
1, 648936, Note_on_c, 4, 52, 127
1, 649170, Note_off_c, 2, 62, 127
1, 649176, Note_on_c, 1, 61, 127
1, 649407, Note_off_c, 4, 52, 127
1, 649410, Note_off_c, 1, 61, 127
1, 649416, Note_on_c, 6, 54, 127
1, 649416, Note_on_c, 2, 62, 127
1, 649650, Note_off_c, 2, 62, 127
1, 649653, Note_on_c, 10, 57, 127
1, 649769, Note_off_c, 10, 57, 127
1, 649774, Note_on_c, 2, 62, 127
1, 649887, Note_off_c, 6, 54, 127
1, 649890, Note_off_c, 2, 62, 127
1, 649894, Note_on_c, 10, 57, 127
1, 649894, Note_on_c, 6, 66, 127
1, 650010, Note_off_c, 6, 66, 127
1, 650013, Note_on_c, 4, 64, 127
1, 650129, Note_off_c, 4, 64, 127
1, 650132, Note_on_c, 2, 62, 127
1, 650248, Note_off_c, 2, 62, 127
1, 650252, Note_on_c, 1, 61, 127
1, 650365, Note_off_c, 10, 57, 127
1, 650368, Note_off_c, 1, 61, 127
1, 650371, Note_on_c, 6, 54, 127
1, 650371, Note_on_c, 2, 62, 127
1, 650605, Note_off_c, 2, 62, 127
1, 650611, Note_on_c, 10, 57, 127
1, 650727, Note_off_c, 10, 57, 127
1, 650729, Note_on_c, 2, 62, 127
1, 650842, Note_off_c, 6, 54, 127
1, 650845, Note_off_c, 2, 62, 127
1, 650849, Note_on_c, 2, 50, 127
1, 650849, Note_on_c, 6, 66, 127
1, 650965, Note_off_c, 6, 66, 127
1, 650969, Note_on_c, 4, 64, 127
1, 651085, Note_off_c, 4, 64, 127
1, 651087, Note_on_c, 2, 62, 127
1, 651203, Note_off_c, 2, 62, 127
1, 651208, Note_on_c, 1, 61, 127
1, 651320, Note_off_c, 2, 50, 127
1, 651324, Note_off_c, 1, 61, 127
1, 651327, Note_on_c, 12, 47, 127
1, 651327, Note_on_c, 2, 62, 127
1, 651455, Note_off_c, 2, 62, 127
1, 651459, Note_on_c, 6, 66, 127
1, 651587, Note_off_c, 6, 66, 127
1, 651592, Note_on_c, 7, 67, 127
1, 651798, Note_off_c, 12, 47, 127
1, 651805, Note_on_c, 10, 45, 127
1, 651986, Note_off_c, 7, 67, 127
1, 652044, Note_on_c, 6, 66, 127
1, 652276, Note_off_c, 10, 45, 127
1, 652278, Note_off_c, 6, 66, 127
1, 652282, Note_on_c, 12, 47, 127
1, 652282, Note_on_c, 7, 67, 127
1, 652516, Note_off_c, 7, 67, 127
1, 652521, Note_on_c, 2, 62, 127
1, 652637, Note_off_c, 2, 62, 127
1, 652641, Note_on_c, 7, 67, 127
1, 652753, Note_off_c, 12, 47, 127
1, 652757, Note_off_c, 7, 67, 127
1, 652761, Note_on_c, 2, 50, 127
1, 652761, Note_on_c, 12, 71, 127
1, 652877, Note_off_c, 12, 71, 127
1, 652880, Note_on_c, 10, 69, 127
1, 652996, Note_off_c, 10, 69, 127
1, 652999, Note_on_c, 7, 67, 127
1, 653115, Note_off_c, 7, 67, 127
1, 653118, Note_on_c, 6, 66, 127
1, 653232, Note_off_c, 2, 50, 127
1, 653234, Note_off_c, 6, 66, 127
1, 653238, Note_on_c, 12, 47, 127
1, 653238, Note_on_c, 7, 67, 127
1, 653472, Note_off_c, 7, 67, 127
1, 653478, Note_on_c, 2, 62, 127
1, 653594, Note_off_c, 2, 62, 127
1, 653598, Note_on_c, 7, 67, 127
1, 653709, Note_off_c, 12, 47, 127
1, 653714, Note_off_c, 7, 67, 127
1, 653717, Note_on_c, 7, 43, 127
1, 653717, Note_on_c, 12, 71, 127
1, 653833, Note_off_c, 12, 71, 127
1, 653836, Note_on_c, 10, 69, 127
1, 653952, Note_off_c, 10, 69, 127
1, 653956, Note_on_c, 7, 67, 127
1, 654072, Note_off_c, 7, 67, 127
1, 654076, Note_on_c, 6, 66, 127
1, 654188, Note_off_c, 7, 43, 127
1, 654192, Note_off_c, 6, 66, 127
1, 654195, Note_on_c, 4, 40, 127
1, 654195, Note_on_c, 7, 67, 127
1, 654311, Note_off_c, 7, 67, 127
1, 654314, Note_on_c, 12, 71, 127
1, 654429, Note_off_c, 4, 40, 127
1, 654430, Note_off_c, 12, 71, 127
1, 654434, Note_on_c, 1, 49, 127
1, 654434, Note_on_c, 10, 69, 127
1, 654550, Note_off_c, 10, 69, 127
1, 654553, Note_on_c, 7, 67, 127
1, 654668, Note_off_c, 1, 49, 127
1, 654669, Note_off_c, 7, 67, 127
1, 654672, Note_on_c, 2, 50, 127
1, 654672, Note_on_c, 6, 66, 127
1, 654788, Note_off_c, 6, 66, 127
1, 654793, Note_on_c, 4, 64, 127
1, 654906, Note_off_c, 2, 50, 127
1, 654909, Note_off_c, 4, 64, 127
1, 654911, Note_on_c, 10, 45, 127
1, 654911, Note_on_c, 6, 66, 127
1, 655027, Note_off_c, 6, 66, 127
1, 655031, Note_on_c, 10, 69, 127
1, 655145, Note_off_c, 10, 45, 127
1, 655147, Note_off_c, 10, 69, 127
1, 655151, Note_on_c, 6, 42, 127
1, 655151, Note_on_c, 2, 74, 127
1, 655385, Note_off_c, 2, 74, 127
1, 655385, Note_off_c, 6, 42, 127
1, 655389, Note_on_c, 4, 40, 127
1, 655389, Note_on_c, 1, 73, 127
1, 655505, Note_off_c, 1, 73, 127
1, 655509, Note_on_c, 12, 71, 127
1, 655623, Note_off_c, 4, 40, 127
1, 655625, Note_off_c, 12, 71, 127
1, 655629, Note_on_c, 6, 42, 127
1, 655629, Note_on_c, 10, 69, 127
1, 655745, Note_off_c, 10, 69, 127
1, 655748, Note_on_c, 7, 67, 127
1, 655863, Note_off_c, 6, 42, 127
1, 655864, Note_off_c, 7, 67, 127
1, 655867, Note_on_c, 7, 43, 127
1, 655867, Note_on_c, 6, 66, 127
1, 655983, Note_off_c, 6, 66, 127
1, 655987, Note_on_c, 4, 64, 127
1, 656101, Note_off_c, 7, 43, 127
1, 656103, Note_off_c, 4, 64, 127
1, 656105, Note_on_c, 10, 45, 127
1, 656105, Note_on_c, 6, 66, 127
1, 656339, Note_off_c, 6, 66, 127
1, 656346, Note_on_c, 2, 62, 127
1, 656576, Note_off_c, 10, 45, 127
1, 656580, Note_off_c, 2, 62, 127
1, 656584, Note_on_c, 10, 33, 127
1, 656584, Note_on_c, 10, 57, 127
1, 656818, Note_off_c, 10, 57, 127
1, 656823, Note_on_c, 1, 61, 127
1, 657055, Note_off_c, 10, 33, 127
1, 657057, Note_off_c, 1, 61, 127
1, 657063, Note_on_c, 2, 38, 127
1, 657063, Note_on_c, 2, 62, 127
1, 657301, Note_on_c, 6, 42, 127
1, 657535, Note_off_c, 6, 42, 127
1, 657540, Note_on_c, 10, 45, 127
1, 657774, Note_off_c, 10, 45, 127
1, 657780, Note_on_c, 2, 50, 127
1, 658018, Note_on_c, 6, 54, 127
1, 658252, Note_off_c, 6, 54, 127
1, 658257, Note_on_c, 10, 57, 127
1, 658485, Note_off_c, 2, 62, 127
1, 658496, Note_on_c, 2, 62, 127
1, 658728, Note_off_c, 10, 57, 127
1, 658730, Note_off_c, 2, 62, 127
1, 658735, Note_on_c, 4, 52, 127
1, 658735, Note_on_c, 7, 55, 127
1, 658735, Note_on_c, 1, 61, 127
1, 658969, Note_off_c, 1, 61, 127
1, 658969, Note_off_c, 7, 55, 127
1, 658969, Note_off_c, 4, 52, 127
1, 658974, Note_on_c, 10, 57, 127
1, 658974, Note_on_c, 6, 54, 127
1, 658974, Note_on_c, 2, 62, 127
1, 660742, Note_off_c, 2, 38, 127
1, 660865, Note_off_c, 2, 50, 127
1, 660867, Note_off_c, 2, 62, 127
1, 660867, Note_off_c, 6, 54, 127
1, 660867, Note_off_c, 10, 57, 127
1, 661418, Note_on_c, 2, 50, 127
1, 661418, Note_on_c, 7, 79, 127
1, 661529, Note_off_c, 7, 79, 127
1, 661532, Note_on_c, 6, 78, 127
1, 661643, Note_off_c, 6, 78, 127
1, 661647, Note_on_c, 7, 79, 127
1, 661758, Note_off_c, 7, 79, 127
1, 661761, Note_on_c, 6, 78, 127
1, 661872, Note_off_c, 6, 78, 127
1, 661875, Note_on_c, 2, 62, 127
1, 661875, Note_on_c, 7, 79, 127
1, 661986, Note_off_c, 7, 79, 127
1, 661989, Note_on_c, 6, 78, 127
1, 662099, Note_off_c, 2, 62, 127
1, 662100, Note_off_c, 6, 78, 127
1, 662104, Note_on_c, 1, 61, 127
1, 662104, Note_on_c, 4, 76, 127
1, 662215, Note_off_c, 4, 76, 127
1, 662217, Note_on_c, 6, 78, 127
1, 662322, Note_off_c, 2, 50, 127
1, 662328, Note_off_c, 6, 78, 127
1, 662328, Note_off_c, 1, 61, 127
1, 662331, Note_on_c, 12, 59, 127
1, 662331, Note_on_c, 2, 62, 127
1, 662331, Note_on_c, 7, 79, 127
1, 662782, Note_off_c, 7, 79, 127
1, 662782, Note_off_c, 12, 59, 127
1, 662789, Note_on_c, 7, 55, 127
1, 662789, Note_on_c, 4, 76, 127
1, 663178, Note_off_c, 4, 76, 127
1, 663235, Note_off_c, 2, 62, 127
1, 663245, Note_on_c, 1, 61, 127
1, 663245, Note_on_c, 10, 81, 127
1, 663318, Note_off_c, 10, 81, 127
1, 663322, Note_on_c, 7, 79, 127
1, 663395, Note_off_c, 7, 79, 127
1, 663398, Note_on_c, 10, 81, 127
1, 663469, Note_off_c, 1, 61, 127
1, 663473, Note_on_c, 12, 59, 127
1, 663697, Note_off_c, 12, 59, 127
1, 663701, Note_on_c, 1, 61, 127
1, 664147, Note_off_c, 7, 55, 127
1, 664152, Note_off_c, 1, 61, 127
1, 664152, Note_off_c, 10, 81, 127
1, 664158, Note_on_c, 6, 54, 127
1, 664158, Note_on_c, 10, 57, 127
1, 664158, Note_on_c, 2, 62, 127
1, 664158, Note_on_c, 2, 74, 127
1, 664306, Note_off_c, 2, 74, 127
1, 664311, Note_on_c, 4, 76, 127
1, 664459, Note_off_c, 4, 76, 127
1, 664463, Note_on_c, 6, 78, 127
1, 664609, Note_off_c, 2, 62, 127
1, 664609, Note_off_c, 10, 57, 127
1, 664609, Note_off_c, 6, 54, 127
1, 664611, Note_off_c, 6, 78, 127
1, 664616, Note_on_c, 4, 52, 127
1, 664616, Note_on_c, 7, 55, 127
1, 664616, Note_on_c, 10, 57, 127
1, 664616, Note_on_c, 1, 61, 127
1, 664616, Note_on_c, 7, 79, 127
1, 664764, Note_off_c, 7, 79, 127
1, 664767, Note_on_c, 6, 78, 127
1, 664915, Note_off_c, 6, 78, 127
1, 664920, Note_on_c, 4, 76, 127
1, 665067, Note_off_c, 1, 61, 127
1, 665067, Note_off_c, 10, 57, 127
1, 665067, Note_off_c, 7, 55, 127
1, 665067, Note_off_c, 4, 52, 127
1, 665068, Note_off_c, 4, 76, 127
1, 665073, Note_on_c, 2, 50, 127
1, 665073, Note_on_c, 10, 57, 127
1, 665073, Note_on_c, 6, 54, 127
1, 665073, Note_on_c, 2, 62, 127
1, 665073, Note_on_c, 10, 81, 127
1, 665221, Note_off_c, 10, 81, 127
1, 665224, Note_on_c, 7, 79, 127
1, 665372, Note_off_c, 7, 79, 127
1, 665376, Note_on_c, 6, 78, 127
1, 665524, Note_off_c, 6, 78, 127
1, 665524, Note_off_c, 6, 54, 127
1, 665524, Note_off_c, 10, 57, 127
1, 665524, Note_off_c, 2, 50, 127
1, 665529, Note_on_c, 10, 57, 127
1, 665529, Note_on_c, 6, 78, 127
1, 665640, Note_off_c, 6, 78, 127
1, 665644, Note_on_c, 4, 76, 127
1, 665755, Note_off_c, 4, 76, 127
1, 665758, Note_on_c, 6, 78, 127
1, 665869, Note_off_c, 6, 78, 127
1, 665872, Note_on_c, 4, 76, 127
1, 665977, Note_off_c, 2, 62, 127
1, 665983, Note_off_c, 4, 76, 127
1, 665986, Note_on_c, 1, 61, 127
1, 665986, Note_on_c, 6, 78, 127
1, 666097, Note_off_c, 6, 78, 127
1, 666100, Note_on_c, 4, 76, 127
1, 666211, Note_off_c, 4, 76, 127
1, 666214, Note_on_c, 2, 74, 127
1, 666325, Note_off_c, 2, 74, 127
1, 666328, Note_on_c, 4, 76, 127
1, 666433, Note_off_c, 10, 57, 127
1, 666437, Note_off_c, 1, 61, 127
1, 666439, Note_off_c, 4, 76, 127
1, 666443, Note_on_c, 2, 62, 127
1, 666443, Note_on_c, 2, 50, 127
1, 666443, Note_on_c, 2, 74, 127
1, 666667, Note_off_c, 2, 62, 127
1, 666671, Note_on_c, 10, 57, 127
1, 666855, Note_off_c, 2, 74, 127
1, 666891, Note_off_c, 2, 50, 127
1, 666895, Note_off_c, 10, 57, 127
1, 666899, Note_on_c, 2, 62, 127
1, 666899, Note_on_c, 6, 78, 127
1, 666953, Note_off_c, 6, 78, 127
1, 666957, Note_on_c, 4, 76, 127
1, 667011, Note_off_c, 4, 76, 127
1, 667013, Note_on_c, 6, 78, 127
1, 667350, Note_off_c, 2, 62, 127
1, 667356, Note_on_c, 2, 50, 127
1, 667356, Note_on_c, 10, 57, 127
1, 667502, Note_off_c, 6, 78, 127
1, 667508, Note_on_c, 7, 79, 127
1, 667581, Note_off_c, 7, 79, 127
1, 667585, Note_on_c, 6, 78, 127
1, 667658, Note_off_c, 6, 78, 127
1, 667661, Note_on_c, 4, 76, 127
1, 667734, Note_off_c, 4, 76, 127
1, 667737, Note_on_c, 6, 78, 127
1, 667807, Note_off_c, 10, 57, 127
1, 667810, Note_off_c, 6, 78, 127
1, 667813, Note_on_c, 12, 59, 127
1, 667813, Note_on_c, 7, 79, 127
1, 668264, Note_off_c, 7, 79, 127
1, 668264, Note_off_c, 12, 59, 127
1, 668270, Note_on_c, 7, 55, 127
1, 668270, Note_on_c, 4, 76, 127
1, 668670, Note_off_c, 4, 76, 127
1, 668714, Note_off_c, 2, 50, 127
1, 668721, Note_off_c, 7, 55, 127
1, 668727, Note_on_c, 1, 49, 127
1, 668727, Note_on_c, 4, 52, 127
1, 668727, Note_on_c, 10, 81, 127
1, 668800, Note_off_c, 10, 81, 127
1, 668803, Note_on_c, 7, 79, 127
1, 668876, Note_off_c, 7, 79, 127
1, 668880, Note_on_c, 10, 81, 127
1, 668951, Note_off_c, 1, 49, 127
1, 668955, Note_on_c, 12, 47, 127
1, 669179, Note_off_c, 12, 47, 127
1, 669183, Note_on_c, 10, 45, 127
1, 669407, Note_off_c, 10, 45, 127
1, 669412, Note_on_c, 7, 43, 127
1, 669631, Note_off_c, 4, 52, 127
1, 669634, Note_off_c, 10, 81, 127
1, 669636, Note_off_c, 7, 43, 127
1, 669640, Note_on_c, 6, 42, 127
1, 669640, Note_on_c, 2, 74, 127
1, 669788, Note_off_c, 2, 74, 127
1, 669792, Note_on_c, 4, 76, 127
1, 669940, Note_off_c, 4, 76, 127
1, 669945, Note_on_c, 2, 50, 127
1, 669945, Note_on_c, 6, 78, 127
1, 670064, Note_off_c, 6, 42, 127
1, 670093, Note_off_c, 6, 78, 127
1, 670093, Note_off_c, 2, 50, 127
1, 670097, Note_on_c, 4, 40, 127
1, 670097, Note_on_c, 7, 79, 127
1, 670245, Note_off_c, 7, 79, 127
1, 670249, Note_on_c, 6, 78, 127
1, 670397, Note_off_c, 6, 78, 127
1, 670400, Note_on_c, 1, 49, 127
1, 670402, Note_on_c, 4, 76, 127
1, 670521, Note_off_c, 4, 40, 127
1, 670548, Note_off_c, 1, 49, 127
1, 670550, Note_off_c, 4, 76, 127
1, 670554, Note_on_c, 2, 38, 127
1, 670554, Note_on_c, 10, 81, 127
1, 670702, Note_off_c, 10, 81, 127
1, 670706, Note_on_c, 7, 79, 127
1, 670854, Note_off_c, 7, 79, 127
1, 670857, Note_on_c, 2, 50, 127
1, 670858, Note_on_c, 6, 78, 127
1, 670978, Note_off_c, 2, 38, 127
1, 671006, Note_off_c, 6, 78, 127
1, 671011, Note_on_c, 10, 45, 127
1, 671011, Note_on_c, 4, 76, 127
1, 671186, Note_off_c, 2, 50, 127
1, 671240, Note_on_c, 12, 47, 127
1, 671464, Note_off_c, 12, 47, 127
1, 671467, Note_on_c, 1, 49, 127
1, 671696, Note_off_c, 1, 49, 127
1, 671700, Note_on_c, 4, 52, 127
1, 671919, Note_off_c, 4, 52, 127
1, 671925, Note_on_c, 10, 57, 127
1, 672168, Note_off_c, 4, 76, 127
1, 672369, Note_off_c, 10, 45, 127
1, 672373, Note_off_c, 10, 57, 127
1, 672381, Note_on_c, 10, 69, 127
1, 672529, Note_off_c, 10, 69, 127
1, 672534, Note_on_c, 12, 71, 127
1, 672682, Note_off_c, 12, 71, 127
1, 672686, Note_on_c, 1, 73, 127
1, 672834, Note_off_c, 1, 73, 127
1, 672837, Note_on_c, 2, 74, 127
1, 672985, Note_off_c, 2, 74, 127
1, 672990, Note_on_c, 1, 73, 127
1, 673138, Note_off_c, 1, 73, 127
1, 673142, Note_on_c, 12, 71, 127
1, 673290, Note_off_c, 12, 71, 127
1, 673295, Note_on_c, 1, 73, 127
1, 673443, Note_off_c, 1, 73, 127
1, 673447, Note_on_c, 12, 71, 127
1, 673595, Note_off_c, 12, 71, 127
1, 673599, Note_on_c, 10, 69, 127
1, 673747, Note_off_c, 10, 69, 127
1, 673751, Note_on_c, 10, 45, 127
1, 673751, Note_on_c, 10, 81, 127
1, 673975, Note_off_c, 10, 45, 127
1, 673979, Note_on_c, 12, 47, 127
1, 674202, Note_off_c, 10, 81, 127
1, 674203, Note_off_c, 12, 47, 127
1, 674208, Note_on_c, 1, 49, 127
1, 674208, Note_on_c, 4, 76, 127
1, 674432, Note_off_c, 4, 76, 127
1, 674432, Note_off_c, 1, 49, 127
1, 674437, Note_on_c, 2, 50, 127
1, 674437, Note_on_c, 2, 74, 127
1, 674661, Note_off_c, 2, 74, 127
1, 674661, Note_off_c, 2, 50, 127
1, 674665, Note_on_c, 4, 52, 127
1, 674665, Note_on_c, 1, 73, 127
1, 674889, Note_off_c, 1, 73, 127
1, 674889, Note_off_c, 4, 52, 127
1, 674894, Note_on_c, 6, 54, 127
1, 674894, Note_on_c, 12, 71, 127
1, 675118, Note_off_c, 12, 71, 127
1, 675118, Note_off_c, 6, 54, 127
1, 675122, Note_on_c, 7, 55, 127
1, 675122, Note_on_c, 10, 69, 127
1, 675270, Note_off_c, 10, 69, 127
1, 675273, Note_on_c, 12, 71, 127
1, 675421, Note_off_c, 12, 71, 127
1, 675426, Note_on_c, 1, 73, 127
1, 675570, Note_off_c, 7, 55, 127
1, 675574, Note_off_c, 1, 73, 127
1, 675579, Note_on_c, 2, 74, 127
1, 675727, Note_off_c, 2, 74, 127
1, 675731, Note_on_c, 1, 73, 127
1, 675879, Note_off_c, 1, 73, 127
1, 675882, Note_on_c, 12, 71, 127
1, 676030, Note_off_c, 12, 71, 127
1, 676035, Note_on_c, 1, 73, 127
1, 676183, Note_off_c, 1, 73, 127
1, 676188, Note_on_c, 12, 71, 127
1, 676336, Note_off_c, 12, 71, 127
1, 676340, Note_on_c, 10, 69, 127
1, 676488, Note_off_c, 10, 69, 127
1, 676492, Note_on_c, 11, 46, 127
1, 676492, Note_on_c, 7, 79, 127
1, 676716, Note_off_c, 11, 46, 127
1, 676721, Note_on_c, 12, 47, 127
1, 676945, Note_off_c, 12, 47, 127
1, 676949, Note_on_c, 1, 49, 127
1, 677173, Note_off_c, 1, 49, 127
1, 677176, Note_on_c, 2, 50, 127
1, 677400, Note_off_c, 2, 50, 127
1, 677405, Note_on_c, 4, 52, 127
1, 677629, Note_off_c, 4, 52, 127
1, 677634, Note_on_c, 1, 49, 127
1, 677851, Note_off_c, 7, 79, 127
1, 677858, Note_off_c, 1, 49, 127
1, 677863, Note_on_c, 2, 50, 127
1, 677863, Note_on_c, 6, 78, 127
1, 678011, Note_off_c, 6, 78, 127
1, 678015, Note_on_c, 4, 76, 127
1, 678163, Note_off_c, 4, 76, 127
1, 678167, Note_on_c, 2, 74, 127
1, 678314, Note_off_c, 2, 50, 127
1, 678315, Note_off_c, 2, 74, 127
1, 678319, Note_on_c, 12, 59, 127
1, 678319, Note_on_c, 7, 55, 127
1, 678319, Note_on_c, 4, 64, 127
1, 678319, Note_on_c, 1, 73, 127
1, 678467, Note_off_c, 1, 73, 127
1, 678471, Note_on_c, 2, 74, 127
1, 678619, Note_off_c, 2, 74, 127
1, 678624, Note_on_c, 4, 76, 127
1, 678770, Note_off_c, 4, 64, 127
1, 678770, Note_off_c, 7, 55, 127
1, 678770, Note_off_c, 12, 59, 127
1, 678772, Note_off_c, 4, 76, 127
1, 678776, Note_on_c, 4, 52, 127
1, 678776, Note_on_c, 7, 55, 127
1, 678776, Note_on_c, 12, 59, 127
1, 678776, Note_on_c, 2, 74, 127
1, 678924, Note_off_c, 2, 74, 127
1, 678928, Note_on_c, 1, 73, 127
1, 679076, Note_off_c, 1, 73, 127
1, 679080, Note_on_c, 12, 71, 127
1, 679227, Note_off_c, 12, 59, 127
1, 679227, Note_off_c, 7, 55, 127
1, 679227, Note_off_c, 4, 52, 127
1, 679228, Note_off_c, 12, 71, 127
1, 679233, Note_on_c, 6, 54, 127
1, 679233, Note_on_c, 11, 70, 127
1, 679381, Note_off_c, 11, 70, 127
1, 679386, Note_on_c, 12, 71, 127
1, 679534, Note_off_c, 12, 71, 127
1, 679537, Note_on_c, 1, 73, 127
1, 679685, Note_off_c, 1, 73, 127
1, 679689, Note_on_c, 1, 61, 127
1, 679689, Note_on_c, 12, 71, 127
1, 679837, Note_off_c, 12, 71, 127
1, 679842, Note_on_c, 11, 70, 127
1, 679911, Note_off_c, 6, 54, 127
1, 679990, Note_off_c, 11, 70, 127
1, 679993, Note_on_c, 2, 50, 127
1, 679995, Note_on_c, 8, 68, 127
1, 680141, Note_off_c, 2, 50, 127
1, 680143, Note_off_c, 8, 68, 127
1, 680146, Note_on_c, 4, 52, 127
1, 680146, Note_on_c, 6, 66, 127
1, 680446, Note_off_c, 4, 52, 127
1, 680450, Note_on_c, 1, 49, 127
1, 680598, Note_off_c, 1, 49, 127
1, 680603, Note_on_c, 2, 50, 127
1, 680749, Note_off_c, 6, 66, 127
1, 680755, Note_on_c, 8, 68, 127
1, 680903, Note_off_c, 8, 68, 127
1, 680908, Note_on_c, 11, 70, 127
1, 681047, Note_off_c, 1, 61, 127
1, 681056, Note_off_c, 11, 70, 127
1, 681060, Note_on_c, 6, 54, 127
1, 681060, Note_on_c, 12, 59, 127
1, 681060, Note_on_c, 12, 71, 127
1, 681208, Note_off_c, 12, 71, 127
1, 681212, Note_on_c, 1, 73, 127
1, 681360, Note_off_c, 1, 73, 127
1, 681364, Note_on_c, 2, 74, 127
1, 681507, Note_off_c, 2, 50, 127
1, 681511, Note_off_c, 12, 59, 127
1, 681511, Note_off_c, 6, 54, 127
1, 681512, Note_off_c, 2, 74, 127
1, 681517, Note_on_c, 1, 49, 127
1, 681517, Note_on_c, 11, 58, 127
1, 681517, Note_on_c, 6, 54, 127
1, 681517, Note_on_c, 4, 76, 127
1, 681665, Note_off_c, 4, 76, 127
1, 681669, Note_on_c, 2, 74, 127
1, 681817, Note_off_c, 2, 74, 127
1, 681822, Note_on_c, 1, 73, 127
1, 681968, Note_off_c, 6, 54, 127
1, 681968, Note_off_c, 11, 58, 127
1, 681968, Note_off_c, 1, 49, 127
1, 681970, Note_off_c, 1, 73, 127
1, 681973, Note_on_c, 12, 47, 127
1, 681973, Note_on_c, 6, 54, 127
1, 681973, Note_on_c, 12, 59, 127
1, 681973, Note_on_c, 2, 74, 127
1, 682121, Note_off_c, 2, 74, 127
1, 682126, Note_on_c, 4, 76, 127
1, 682274, Note_off_c, 4, 76, 127
1, 682278, Note_on_c, 6, 78, 127
1, 682424, Note_off_c, 12, 59, 127
1, 682424, Note_off_c, 6, 54, 127
1, 682424, Note_off_c, 12, 47, 127
1, 682426, Note_off_c, 6, 78, 127
1, 682431, Note_on_c, 1, 49, 127
1, 682431, Note_on_c, 4, 52, 127
1, 682431, Note_on_c, 7, 79, 127
1, 682579, Note_off_c, 7, 79, 127
1, 682583, Note_on_c, 6, 78, 127
1, 682731, Note_off_c, 6, 78, 127
1, 682734, Note_on_c, 4, 76, 127
1, 682882, Note_off_c, 4, 76, 127
1, 682882, Note_off_c, 4, 52, 127
1, 682882, Note_off_c, 1, 49, 127
1, 682887, Note_on_c, 3, 51, 127
1, 682887, Note_on_c, 12, 59, 127
1, 682887, Note_on_c, 6, 78, 127
1, 683035, Note_off_c, 6, 78, 127
1, 683040, Note_on_c, 7, 79, 127
1, 683188, Note_off_c, 7, 79, 127
1, 683191, Note_on_c, 10, 81, 127
1, 683338, Note_off_c, 3, 51, 127
1, 683339, Note_off_c, 10, 81, 127
1, 683344, Note_on_c, 4, 52, 127
1, 683344, Note_on_c, 7, 79, 127
1, 683492, Note_off_c, 7, 79, 127
1, 683496, Note_on_c, 6, 78, 127
1, 683644, Note_off_c, 6, 78, 127
1, 683649, Note_on_c, 7, 79, 127
1, 683791, Note_off_c, 12, 59, 127
1, 683795, Note_off_c, 4, 52, 127
1, 683797, Note_off_c, 7, 79, 127
1, 683800, Note_on_c, 4, 52, 127
1, 683800, Note_on_c, 1, 49, 127
1, 683800, Note_on_c, 10, 69, 127
1, 683948, Note_off_c, 10, 69, 127
1, 683953, Note_on_c, 1, 73, 127
1, 684101, Note_off_c, 1, 73, 127
1, 684106, Note_on_c, 4, 76, 127
1, 684251, Note_off_c, 1, 49, 127
1, 684251, Note_off_c, 4, 52, 127
1, 684254, Note_off_c, 4, 76, 127
1, 684257, Note_on_c, 1, 49, 127
1, 684257, Note_on_c, 10, 45, 127
1, 684257, Note_on_c, 4, 52, 127
1, 684257, Note_on_c, 7, 79, 127
1, 684405, Note_off_c, 7, 79, 127
1, 684409, Note_on_c, 6, 78, 127
1, 684557, Note_off_c, 6, 78, 127
1, 684562, Note_on_c, 4, 76, 127
1, 684708, Note_off_c, 4, 52, 127
1, 684708, Note_off_c, 10, 45, 127
1, 684708, Note_off_c, 1, 49, 127
1, 684710, Note_off_c, 4, 76, 127
1, 684715, Note_on_c, 2, 38, 127
1, 684715, Note_on_c, 2, 50, 127
1, 684715, Note_on_c, 6, 78, 127
1, 684863, Note_off_c, 6, 78, 127
1, 684867, Note_on_c, 4, 76, 127
1, 685015, Note_off_c, 4, 76, 127
1, 685018, Note_on_c, 6, 78, 127
1, 685166, Note_off_c, 6, 78, 127
1, 685166, Note_off_c, 2, 50, 127
1, 685166, Note_off_c, 2, 38, 127
1, 685171, Note_on_c, 1, 49, 127
1, 685171, Note_on_c, 4, 52, 127
1, 685171, Note_on_c, 7, 55, 127
1, 685171, Note_on_c, 11, 70, 127
1, 685319, Note_off_c, 11, 70, 127
1, 685323, Note_on_c, 1, 73, 127
1, 685471, Note_off_c, 1, 73, 127
1, 685476, Note_on_c, 2, 74, 127
1, 685622, Note_off_c, 7, 55, 127
1, 685622, Note_off_c, 4, 52, 127
1, 685622, Note_off_c, 1, 49, 127
1, 685624, Note_off_c, 2, 74, 127
1, 685628, Note_on_c, 11, 46, 127
1, 685628, Note_on_c, 1, 49, 127
1, 685628, Note_on_c, 6, 54, 127
1, 685628, Note_on_c, 4, 76, 127
1, 685776, Note_off_c, 4, 76, 127
1, 685780, Note_on_c, 2, 74, 127
1, 685928, Note_off_c, 2, 74, 127
1, 685932, Note_on_c, 1, 73, 127
1, 686079, Note_off_c, 1, 49, 127
1, 686079, Note_off_c, 11, 46, 127
1, 686080, Note_off_c, 1, 73, 127
1, 686085, Note_on_c, 12, 47, 127
1, 686085, Note_on_c, 2, 74, 127
1, 686233, Note_off_c, 2, 74, 127
1, 686237, Note_on_c, 1, 73, 127
1, 686385, Note_off_c, 1, 73, 127
1, 686389, Note_on_c, 12, 71, 127
1, 686532, Note_off_c, 6, 54, 127
1, 686536, Note_off_c, 12, 47, 127
1, 686537, Note_off_c, 12, 71, 127
1, 686541, Note_on_c, 4, 40, 127
1, 686541, Note_on_c, 4, 52, 127
1, 686541, Note_on_c, 1, 73, 127
1, 686992, Note_off_c, 1, 73, 127
1, 686992, Note_off_c, 4, 52, 127
1, 686992, Note_off_c, 4, 40, 127
1, 686998, Note_on_c, 1, 49, 127
1, 686998, Note_on_c, 6, 42, 127
1, 686998, Note_on_c, 11, 70, 127
1, 687449, Note_off_c, 11, 70, 127
1, 687449, Note_off_c, 6, 42, 127
1, 687449, Note_off_c, 1, 49, 127
1, 687454, Note_on_c, 12, 47, 127
1, 687454, Note_on_c, 12, 71, 127
1, 687607, Note_on_c, 6, 66, 127
1, 687755, Note_off_c, 6, 66, 127
1, 687760, Note_on_c, 2, 62, 127
1, 687908, Note_off_c, 2, 62, 127
1, 687913, Note_on_c, 12, 59, 127
1, 688057, Note_off_c, 12, 47, 127
1, 688061, Note_off_c, 12, 59, 127
1, 688063, Note_on_c, 6, 54, 127
1, 688211, Note_off_c, 6, 54, 127
1, 688216, Note_on_c, 2, 50, 127
1, 688364, Note_off_c, 2, 50, 127
1, 688369, Note_on_c, 12, 47, 127
1, 688517, Note_off_c, 12, 47, 127
1, 688521, Note_on_c, 2, 50, 127
1, 688669, Note_off_c, 2, 50, 127
1, 688673, Note_on_c, 6, 54, 127
1, 688812, Note_off_c, 12, 71, 127
1, 688821, Note_off_c, 6, 54, 127
1, 688825, Note_on_c, 12, 59, 127
1, 688825, Note_on_c, 6, 66, 127
1, 688825, Note_on_c, 2, 62, 127
1, 688898, Note_off_c, 6, 66, 127
1, 688901, Note_on_c, 4, 64, 127
1, 688974, Note_off_c, 4, 64, 127
1, 688978, Note_on_c, 6, 66, 127
1, 689276, Note_off_c, 12, 59, 127
1, 689282, Note_on_c, 10, 57, 127
1, 689505, Note_off_c, 6, 66, 127
1, 689506, Note_off_c, 10, 57, 127
1, 689510, Note_on_c, 7, 55, 127
1, 689510, Note_on_c, 7, 67, 127
1, 689583, Note_off_c, 7, 67, 127
1, 689586, Note_on_c, 6, 66, 127
1, 689659, Note_off_c, 6, 66, 127
1, 689663, Note_on_c, 4, 64, 127
1, 689734, Note_off_c, 7, 55, 127
1, 689736, Note_off_c, 4, 64, 127
1, 689739, Note_on_c, 6, 54, 127
1, 689739, Note_on_c, 6, 66, 127
1, 689812, Note_off_c, 6, 66, 127
1, 689815, Note_on_c, 7, 67, 127
1, 689963, Note_off_c, 6, 54, 127
1, 689967, Note_on_c, 4, 52, 127
1, 690191, Note_off_c, 4, 52, 127
1, 690192, Note_off_c, 7, 67, 127
1, 690195, Note_on_c, 6, 54, 127
1, 690195, Note_on_c, 10, 69, 127
1, 690343, Note_off_c, 6, 54, 127
1, 690348, Note_on_c, 7, 55, 127
1, 690496, Note_off_c, 7, 55, 127
1, 690500, Note_on_c, 10, 57, 127
1, 690646, Note_off_c, 10, 69, 127
1, 690648, Note_off_c, 10, 57, 127
1, 690652, Note_on_c, 7, 55, 127
1, 690652, Note_on_c, 10, 69, 127
1, 690652, Note_on_c, 0, 72, 127
1, 690876, Note_off_c, 7, 55, 127
1, 690881, Note_on_c, 6, 54, 127
1, 691105, Note_off_c, 6, 54, 127
1, 691109, Note_on_c, 4, 52, 127
1, 691333, Note_off_c, 4, 52, 127
1, 691338, Note_on_c, 2, 50, 127
1, 691502, Note_off_c, 0, 72, 127
1, 691502, Note_off_c, 10, 69, 127
1, 691543, Note_off_c, 2, 62, 127
1, 691562, Note_off_c, 2, 50, 127
1, 691567, Note_on_c, 7, 55, 127
1, 691567, Note_on_c, 12, 71, 127
1, 691715, Note_off_c, 12, 71, 127
1, 691718, Note_on_c, 1, 73, 127
1, 691866, Note_off_c, 1, 73, 127
1, 691867, Note_off_c, 7, 55, 127
1, 691869, Note_on_c, 6, 54, 127
1, 691870, Note_on_c, 2, 74, 127
1, 692017, Note_off_c, 6, 54, 127
1, 692018, Note_off_c, 2, 74, 127
1, 692022, Note_on_c, 7, 55, 127
1, 692022, Note_on_c, 1, 73, 127
1, 692170, Note_off_c, 1, 73, 127
1, 692175, Note_on_c, 2, 74, 127
1, 692322, Note_off_c, 7, 55, 127
1, 692323, Note_off_c, 2, 74, 127
1, 692326, Note_on_c, 4, 52, 127
1, 692327, Note_on_c, 4, 76, 127
1, 692474, Note_off_c, 4, 52, 127
1, 692475, Note_off_c, 4, 76, 127
1, 692480, Note_on_c, 6, 54, 127
1, 692480, Note_on_c, 2, 74, 127
1, 692628, Note_off_c, 2, 74, 127
1, 692631, Note_on_c, 4, 76, 127
1, 692779, Note_off_c, 4, 76, 127
1, 692780, Note_off_c, 6, 54, 127
1, 692783, Note_on_c, 2, 50, 127
1, 692784, Note_on_c, 6, 78, 127
1, 692931, Note_off_c, 2, 50, 127
1, 692932, Note_off_c, 6, 78, 127
1, 692936, Note_on_c, 10, 57, 127
1, 692936, Note_on_c, 4, 76, 127
1, 693084, Note_off_c, 4, 76, 127
1, 693089, Note_on_c, 2, 74, 127
1, 693236, Note_off_c, 10, 57, 127
1, 693237, Note_off_c, 2, 74, 127
1, 693240, Note_on_c, 4, 52, 127
1, 693240, Note_on_c, 1, 73, 127
1, 693388, Note_off_c, 1, 73, 127
1, 693388, Note_off_c, 4, 52, 127
1, 693393, Note_on_c, 10, 45, 127
1, 693393, Note_on_c, 2, 74, 127
1, 693541, Note_off_c, 2, 74, 127
1, 693545, Note_on_c, 1, 73, 127
1, 693693, Note_off_c, 1, 73, 127
1, 693693, Note_off_c, 10, 45, 127
1, 693696, Note_on_c, 1, 49, 127
1, 693698, Note_on_c, 12, 71, 127
1, 693844, Note_off_c, 1, 49, 127
1, 693846, Note_off_c, 12, 71, 127
1, 693849, Note_on_c, 4, 52, 127
1, 693849, Note_on_c, 10, 69, 127
1, 693997, Note_off_c, 10, 69, 127
1, 694003, Note_on_c, 1, 73, 127
1, 694149, Note_off_c, 4, 52, 127
1, 694151, Note_off_c, 1, 73, 127
1, 694154, Note_on_c, 7, 55, 127
1, 694154, Note_on_c, 4, 76, 127
1, 694302, Note_off_c, 4, 76, 127
1, 694302, Note_off_c, 7, 55, 127
1, 694306, Note_on_c, 6, 54, 127
1, 694306, Note_on_c, 10, 81, 127
1, 694757, Note_off_c, 6, 54, 127
1, 694764, Note_on_c, 2, 50, 127
1, 694764, Note_on_c, 10, 57, 127
1, 694764, Note_on_c, 6, 54, 127
1, 694764, Note_on_c, 2, 62, 127
1, 694909, Note_off_c, 10, 81, 127
1, 694915, Note_on_c, 12, 83, 127
1, 694988, Note_off_c, 12, 83, 127
1, 694992, Note_on_c, 10, 81, 127
1, 695065, Note_off_c, 10, 81, 127
1, 695067, Note_on_c, 7, 79, 127
1, 695140, Note_off_c, 7, 79, 127
1, 695145, Note_on_c, 10, 81, 127
1, 695215, Note_off_c, 2, 62, 127
1, 695215, Note_off_c, 6, 54, 127
1, 695215, Note_off_c, 10, 57, 127
1, 695215, Note_off_c, 2, 50, 127
1, 695218, Note_off_c, 10, 81, 127
1, 695221, Note_on_c, 2, 62, 127
1, 695221, Note_on_c, 7, 55, 127
1, 695221, Note_on_c, 12, 83, 127
1, 695669, Note_off_c, 2, 62, 127
1, 695672, Note_off_c, 12, 83, 127
1, 695676, Note_on_c, 4, 64, 127
1, 695676, Note_on_c, 10, 69, 127
1, 695676, Note_on_c, 1, 73, 127
1, 695824, Note_off_c, 7, 55, 127
1, 695830, Note_on_c, 6, 54, 127
1, 695978, Note_off_c, 6, 54, 127
1, 695981, Note_on_c, 4, 52, 127
1, 696127, Note_off_c, 1, 73, 127
1, 696127, Note_off_c, 10, 69, 127
1, 696127, Note_off_c, 4, 64, 127
1, 696129, Note_off_c, 4, 52, 127
1, 696134, Note_on_c, 2, 50, 127
1, 696134, Note_on_c, 7, 79, 127
1, 696134, Note_on_c, 4, 76, 127
1, 696134, Note_on_c, 10, 69, 127
1, 696282, Note_off_c, 2, 50, 127
1, 696286, Note_on_c, 1, 49, 127
1, 696434, Note_off_c, 1, 49, 127
1, 696438, Note_on_c, 12, 47, 127
1, 696586, Note_off_c, 12, 47, 127
1, 696590, Note_on_c, 1, 49, 127
1, 696738, Note_off_c, 1, 49, 127
1, 696743, Note_on_c, 12, 47, 127
1, 696891, Note_off_c, 12, 47, 127
1, 696895, Note_on_c, 10, 45, 127
1, 697007, Note_off_c, 10, 69, 127
1, 697007, Note_off_c, 4, 76, 127
1, 697007, Note_off_c, 7, 79, 127
1, 697043, Note_off_c, 10, 45, 127
1, 697048, Note_on_c, 2, 50, 127
1, 697048, Note_on_c, 6, 78, 127
1, 697196, Note_off_c, 6, 78, 127
1, 697199, Note_on_c, 4, 76, 127
1, 697347, Note_off_c, 4, 76, 127
1, 697352, Note_on_c, 2, 74, 127
1, 697499, Note_off_c, 2, 50, 127
1, 697500, Note_off_c, 2, 74, 127
1, 697504, Note_on_c, 7, 43, 127
1, 697504, Note_on_c, 12, 47, 127
1, 697504, Note_on_c, 7, 55, 127
1, 697504, Note_on_c, 4, 76, 127
1, 697652, Note_off_c, 4, 76, 127
1, 697657, Note_on_c, 6, 78, 127
1, 697805, Note_off_c, 6, 78, 127
1, 697809, Note_on_c, 7, 79, 127
1, 697955, Note_off_c, 7, 55, 127
1, 697955, Note_off_c, 12, 47, 127
1, 697955, Note_off_c, 7, 43, 127
1, 697957, Note_off_c, 7, 79, 127
1, 697961, Note_on_c, 10, 45, 127
1, 697961, Note_on_c, 7, 55, 127
1, 697961, Note_on_c, 4, 52, 127
1, 697961, Note_on_c, 10, 69, 127
1, 698109, Note_off_c, 10, 69, 127
1, 698113, Note_on_c, 12, 71, 127
1, 698261, Note_off_c, 12, 71, 127
1, 698266, Note_on_c, 1, 73, 127
1, 698412, Note_off_c, 4, 52, 127
1, 698412, Note_off_c, 10, 45, 127
1, 698414, Note_off_c, 1, 73, 127
1, 698418, Note_on_c, 2, 50, 127
1, 698418, Note_on_c, 2, 74, 127
1, 698639, Note_off_c, 7, 55, 127
1, 698646, Note_on_c, 4, 52, 127
1, 698870, Note_off_c, 4, 52, 127
1, 698875, Note_on_c, 6, 54, 127
1, 699096, Note_off_c, 2, 50, 127
1, 699099, Note_off_c, 6, 54, 127
1, 699103, Note_on_c, 2, 50, 127
1, 699331, Note_on_c, 2, 38, 127
1, 699781, Note_off_c, 2, 50, 127
1, 699894, Note_off_c, 2, 74, 127
1, 699897, Note_off_c, 2, 38, 127
1, 699901, Note_on_c, 2, 62, 127
1, 700348, Note_off_c, 2, 62, 127
1, 700354, Note_on_c, 6, 66, 127
1, 700480, Note_off_c, 6, 66, 127
1, 700486, Note_on_c, 10, 69, 127
1, 700612, Note_off_c, 10, 69, 127
1, 700619, Note_on_c, 2, 74, 127
1, 700745, Note_off_c, 2, 74, 127
1, 700752, Note_on_c, 10, 69, 127
1, 700878, Note_off_c, 10, 69, 127
1, 700884, Note_on_c, 6, 66, 127
1, 701010, Note_off_c, 6, 66, 127
1, 701016, Note_on_c, 2, 62, 127
1, 701142, Note_off_c, 2, 62, 127
1, 701149, Note_on_c, 6, 66, 127
1, 701275, Note_off_c, 6, 66, 127
1, 701282, Note_on_c, 10, 69, 127
1, 701408, Note_off_c, 10, 69, 127
1, 701414, Note_on_c, 0, 72, 127
1, 701800, Note_off_c, 0, 72, 127
1, 702161, Note_on_c, 12, 71, 127
1, 702287, Note_off_c, 12, 71, 127
1, 702293, Note_on_c, 10, 69, 127
1, 702419, Note_off_c, 10, 69, 127
1, 702425, Note_on_c, 12, 71, 127
1, 702551, Note_off_c, 12, 71, 127
1, 702558, Note_on_c, 4, 64, 127
1, 703076, Note_off_c, 4, 64, 127
1, 703088, Note_on_c, 6, 66, 127
1, 703214, Note_off_c, 6, 66, 127
1, 703222, Note_on_c, 7, 67, 127
1, 703348, Note_off_c, 7, 67, 127
1, 703353, Note_on_c, 10, 69, 127
1, 703479, Note_off_c, 10, 69, 127
1, 703486, Note_on_c, 7, 67, 127
1, 703612, Note_off_c, 7, 67, 127
1, 703619, Note_on_c, 10, 69, 127
1, 703745, Note_off_c, 10, 69, 127
1, 703751, Note_on_c, 2, 62, 127
1, 704269, Note_off_c, 2, 62, 127
1, 704281, Note_on_c, 4, 64, 127
1, 704407, Note_off_c, 4, 64, 127
1, 704414, Note_on_c, 6, 66, 127
1, 704540, Note_off_c, 6, 66, 127
1, 704547, Note_on_c, 7, 67, 127
1, 704673, Note_off_c, 7, 67, 127
1, 704679, Note_on_c, 4, 64, 127
1, 704805, Note_off_c, 4, 64, 127
1, 704811, Note_on_c, 1, 61, 127
1, 704937, Note_off_c, 1, 61, 127
1, 704944, Note_on_c, 10, 57, 127
1, 705070, Note_off_c, 10, 57, 127
1, 705077, Note_on_c, 1, 61, 127
1, 705203, Note_off_c, 1, 61, 127
1, 705208, Note_on_c, 4, 64, 127
1, 705334, Note_off_c, 4, 64, 127
1, 705341, Note_on_c, 7, 67, 127
1, 705467, Note_off_c, 7, 67, 127
1, 705474, Note_on_c, 6, 66, 127
1, 705600, Note_off_c, 6, 66, 127
1, 705606, Note_on_c, 4, 64, 127
1, 705732, Note_off_c, 4, 64, 127
1, 705738, Note_on_c, 6, 66, 127
1, 705864, Note_off_c, 6, 66, 127
1, 705871, Note_on_c, 2, 62, 127
1, 705997, Note_off_c, 2, 62, 127
1, 706005, Note_on_c, 4, 64, 127
1, 706131, Note_off_c, 4, 64, 127
1, 706136, Note_on_c, 6, 66, 127
1, 706262, Note_off_c, 6, 66, 127
1, 706268, Note_on_c, 8, 68, 127
1, 706394, Note_off_c, 8, 68, 127
1, 706401, Note_on_c, 10, 69, 127
1, 706527, Note_off_c, 10, 69, 127
1, 706534, Note_on_c, 12, 71, 127
1, 706660, Note_off_c, 12, 71, 127
1, 706666, Note_on_c, 1, 73, 127
1, 706792, Note_off_c, 1, 73, 127
1, 706799, Note_on_c, 2, 74, 127
1, 706925, Note_off_c, 2, 74, 127
1, 706932, Note_on_c, 1, 73, 127
1, 706932, Note_on_c, 10, 57, 127
1, 707058, Note_off_c, 1, 73, 127
1, 707065, Note_on_c, 12, 71, 127
1, 707191, Note_off_c, 12, 71, 127
1, 707197, Note_on_c, 10, 69, 127
1, 707323, Note_off_c, 10, 69, 127
1, 707330, Note_on_c, 2, 74, 127
1, 707450, Note_off_c, 10, 57, 127
1, 707456, Note_off_c, 2, 74, 127
1, 707461, Note_on_c, 1, 73, 127
1, 707461, Note_on_c, 1, 61, 127
1, 707587, Note_off_c, 1, 61, 127
1, 707587, Note_off_c, 1, 73, 127
1, 707594, Note_on_c, 12, 71, 127
1, 707594, Note_on_c, 4, 64, 127
1, 707720, Note_off_c, 4, 64, 127
1, 707720, Note_off_c, 12, 71, 127
1, 707727, Note_on_c, 1, 73, 127
1, 707727, Note_on_c, 10, 69, 127
1, 707853, Note_off_c, 10, 69, 127
1, 707853, Note_off_c, 1, 73, 127
1, 707860, Note_on_c, 12, 71, 127
1, 707860, Note_on_c, 4, 64, 127
1, 707986, Note_off_c, 4, 64, 127
1, 707986, Note_off_c, 12, 71, 127
1, 707992, Note_on_c, 10, 69, 127
1, 707992, Note_on_c, 1, 61, 127
1, 708118, Note_off_c, 1, 61, 127
1, 708118, Note_off_c, 10, 69, 127
1, 708124, Note_on_c, 4, 76, 127
1, 708124, Note_on_c, 10, 57, 127
1, 708250, Note_off_c, 10, 57, 127
1, 708257, Note_on_c, 1, 61, 127
1, 708383, Note_off_c, 1, 61, 127
1, 708389, Note_on_c, 4, 64, 127
1, 708515, Note_off_c, 4, 64, 127
1, 708522, Note_on_c, 7, 67, 127
1, 708642, Note_off_c, 4, 76, 127
1, 708655, Note_on_c, 1, 73, 127
1, 708781, Note_off_c, 1, 73, 127
1, 708787, Note_on_c, 2, 74, 127
1, 708913, Note_off_c, 2, 74, 127
1, 708919, Note_on_c, 4, 76, 127
1, 709041, Note_off_c, 7, 67, 127
1, 709045, Note_off_c, 4, 76, 127
1, 709051, Note_on_c, 6, 78, 127
1, 709177, Note_off_c, 6, 78, 127
1, 709185, Note_on_c, 7, 79, 127
1, 709311, Note_off_c, 7, 79, 127
1, 709317, Note_on_c, 10, 81, 127
1, 709317, Note_on_c, 6, 66, 127
1, 709443, Note_off_c, 6, 66, 127
1, 709450, Note_on_c, 4, 64, 127
1, 709576, Note_off_c, 4, 64, 127
1, 709582, Note_on_c, 6, 66, 127
1, 709708, Note_off_c, 6, 66, 127
1, 709715, Note_on_c, 12, 59, 127
1, 709835, Note_off_c, 10, 81, 127
1, 709847, Note_on_c, 12, 71, 127
1, 709973, Note_off_c, 12, 71, 127
1, 709979, Note_on_c, 1, 73, 127
1, 710105, Note_off_c, 1, 73, 127
1, 710112, Note_on_c, 2, 74, 127
1, 710233, Note_off_c, 12, 59, 127
1, 710238, Note_off_c, 2, 74, 127
1, 710245, Note_on_c, 4, 76, 127
1, 710245, Note_on_c, 1, 61, 127
1, 710371, Note_off_c, 1, 61, 127
1, 710371, Note_off_c, 4, 76, 127
1, 710378, Note_on_c, 6, 78, 127
1, 710378, Note_on_c, 2, 62, 127
1, 710504, Note_off_c, 2, 62, 127
1, 710504, Note_off_c, 6, 78, 127
1, 710510, Note_on_c, 7, 79, 127
1, 710510, Note_on_c, 4, 64, 127
1, 710636, Note_off_c, 4, 64, 127
1, 710642, Note_on_c, 2, 62, 127
1, 710768, Note_off_c, 2, 62, 127
1, 710775, Note_on_c, 4, 64, 127
1, 710901, Note_off_c, 4, 64, 127
1, 710908, Note_on_c, 10, 57, 127
1, 711028, Note_off_c, 7, 79, 127
1, 711040, Note_on_c, 10, 69, 127
1, 711166, Note_off_c, 10, 69, 127
1, 711172, Note_on_c, 12, 71, 127
1, 711298, Note_off_c, 12, 71, 127
1, 711306, Note_on_c, 1, 73, 127
1, 711426, Note_off_c, 10, 57, 127
1, 711432, Note_off_c, 1, 73, 127
1, 711437, Note_on_c, 2, 74, 127
1, 711437, Note_on_c, 12, 59, 127
1, 711563, Note_off_c, 12, 59, 127
1, 711563, Note_off_c, 2, 74, 127
1, 711569, Note_on_c, 4, 76, 127
1, 711569, Note_on_c, 1, 61, 127
1, 711695, Note_off_c, 1, 61, 127
1, 711695, Note_off_c, 4, 76, 127
1, 711702, Note_on_c, 6, 78, 127
1, 711702, Note_on_c, 2, 62, 127
1, 711828, Note_off_c, 2, 62, 127
1, 711836, Note_on_c, 12, 59, 127
1, 711962, Note_off_c, 12, 59, 127
1, 711968, Note_on_c, 8, 56, 127
1, 712089, Note_off_c, 6, 78, 127
1, 712094, Note_off_c, 8, 56, 127
1, 712099, Note_on_c, 8, 68, 127
1, 712099, Note_on_c, 4, 52, 127
1, 712225, Note_off_c, 4, 52, 127
1, 712232, Note_on_c, 8, 56, 127
1, 712358, Note_off_c, 8, 56, 127
1, 712365, Note_on_c, 12, 59, 127
1, 712486, Note_off_c, 8, 68, 127
1, 712491, Note_off_c, 12, 59, 127
1, 712497, Note_on_c, 12, 83, 127
1, 712497, Note_on_c, 2, 62, 127
1, 712623, Note_off_c, 2, 62, 127
1, 712630, Note_on_c, 1, 61, 127
1, 712756, Note_off_c, 1, 61, 127
1, 712763, Note_on_c, 12, 59, 127
1, 712889, Note_off_c, 12, 59, 127
1, 712895, Note_on_c, 1, 61, 127
1, 713015, Note_off_c, 12, 83, 127
1, 713021, Note_off_c, 1, 61, 127
1, 713028, Note_on_c, 1, 73, 127
1, 713028, Note_on_c, 10, 57, 127
1, 713154, Note_off_c, 10, 57, 127
1, 713154, Note_off_c, 1, 73, 127
1, 713161, Note_on_c, 4, 76, 127
1, 713161, Note_on_c, 12, 59, 127
1, 713287, Note_off_c, 12, 59, 127
1, 713287, Note_off_c, 4, 76, 127
1, 713293, Note_on_c, 10, 81, 127
1, 713293, Note_on_c, 1, 61, 127
1, 713419, Note_off_c, 1, 61, 127
1, 713425, Note_on_c, 3, 63, 127
1, 713551, Note_off_c, 3, 63, 127
1, 713558, Note_on_c, 4, 64, 127
1, 713680, Note_off_c, 10, 81, 127
1, 713684, Note_off_c, 4, 64, 127
1, 713691, Note_on_c, 3, 75, 127
1, 713691, Note_on_c, 6, 66, 127
1, 713817, Note_off_c, 6, 66, 127
1, 713823, Note_on_c, 7, 67, 127
1, 713949, Note_off_c, 7, 67, 127
1, 713956, Note_on_c, 10, 69, 127
1, 714078, Note_off_c, 3, 75, 127
1, 714082, Note_off_c, 10, 69, 127
1, 714088, Note_on_c, 4, 76, 127
1, 714088, Note_on_c, 7, 67, 127
1, 714214, Note_off_c, 4, 76, 127
1, 714221, Note_on_c, 4, 64, 127
1, 714347, Note_off_c, 4, 64, 127
1, 714352, Note_on_c, 6, 66, 127
1, 714475, Note_off_c, 7, 67, 127
1, 714478, Note_off_c, 6, 66, 127
1, 714486, Note_on_c, 7, 67, 127
1, 714486, Note_on_c, 4, 64, 127
1, 714612, Note_off_c, 7, 67, 127
1, 714619, Note_on_c, 10, 69, 127
1, 714745, Note_off_c, 10, 69, 127
1, 714750, Note_on_c, 12, 71, 127
1, 714873, Note_off_c, 4, 64, 127
1, 714876, Note_off_c, 12, 71, 127
1, 714882, Note_on_c, 1, 73, 127
1, 714882, Note_on_c, 11, 58, 127
1, 715008, Note_off_c, 1, 73, 127
1, 715016, Note_on_c, 2, 74, 127
1, 715142, Note_off_c, 2, 74, 127
1, 715149, Note_on_c, 4, 76, 127
1, 715269, Note_off_c, 11, 58, 127
1, 715275, Note_off_c, 4, 76, 127
1, 715280, Note_on_c, 2, 74, 127
1, 715280, Note_on_c, 12, 59, 127
1, 715406, Note_off_c, 12, 59, 127
1, 715412, Note_on_c, 1, 61, 127
1, 715538, Note_off_c, 1, 61, 127
1, 715546, Note_on_c, 2, 62, 127
1, 715667, Note_off_c, 2, 74, 127
1, 715672, Note_off_c, 2, 62, 127
1, 715679, Note_on_c, 0, 84, 127
1, 715679, Note_on_c, 4, 64, 127
1, 715805, Note_off_c, 4, 64, 127
1, 715810, Note_on_c, 6, 66, 127
1, 715936, Note_off_c, 6, 66, 127
1, 715943, Note_on_c, 7, 67, 127
1, 716066, Note_off_c, 0, 84, 127
1, 716069, Note_off_c, 7, 67, 127
1, 716076, Note_on_c, 6, 78, 127
1, 716076, Note_on_c, 10, 69, 127
1, 716202, Note_off_c, 10, 69, 127
1, 716208, Note_on_c, 12, 71, 127
1, 716334, Note_off_c, 12, 71, 127
1, 716341, Note_on_c, 0, 72, 127
1, 716463, Note_off_c, 6, 78, 127
1, 716467, Note_off_c, 0, 72, 127
1, 716474, Note_on_c, 7, 79, 127
1, 716474, Note_on_c, 12, 71, 127
1, 716600, Note_off_c, 7, 79, 127
1, 716607, Note_on_c, 7, 67, 127
1, 716733, Note_off_c, 7, 67, 127
1, 716738, Note_on_c, 10, 69, 127
1, 716861, Note_off_c, 12, 71, 127
1, 716864, Note_off_c, 10, 69, 127
1, 716871, Note_on_c, 12, 71, 127
1, 716871, Note_on_c, 7, 67, 127
1, 716997, Note_off_c, 12, 71, 127
1, 717004, Note_on_c, 1, 73, 127
1, 717130, Note_off_c, 1, 73, 127
1, 717136, Note_on_c, 2, 74, 127
1, 717258, Note_off_c, 7, 67, 127
1, 717262, Note_off_c, 2, 74, 127
1, 717269, Note_on_c, 4, 76, 127
1, 717269, Note_on_c, 1, 61, 127
1, 717395, Note_off_c, 4, 76, 127
1, 717401, Note_on_c, 6, 78, 127
1, 717527, Note_off_c, 6, 78, 127
1, 717534, Note_on_c, 7, 79, 127
1, 717656, Note_off_c, 1, 61, 127
1, 717660, Note_off_c, 7, 79, 127
1, 717666, Note_on_c, 6, 78, 127
1, 717666, Note_on_c, 2, 62, 127
1, 717666, Note_on_c, 2, 50, 127
1, 717792, Note_off_c, 6, 78, 127
1, 717799, Note_on_c, 4, 76, 127
1, 717925, Note_off_c, 4, 76, 127
1, 717932, Note_on_c, 2, 74, 127
1, 718058, Note_off_c, 2, 74, 127
1, 718063, Note_on_c, 10, 81, 127
1, 718184, Note_off_c, 2, 50, 127
1, 718184, Note_off_c, 2, 62, 127
1, 718196, Note_on_c, 6, 54, 127
1, 718322, Note_off_c, 6, 54, 127
1, 718329, Note_on_c, 10, 57, 127
1, 718450, Note_off_c, 10, 81, 127
1, 718455, Note_off_c, 10, 57, 127
1, 718461, Note_on_c, 1, 73, 127
1, 718461, Note_on_c, 4, 76, 127
1, 718461, Note_on_c, 7, 79, 127
1, 718461, Note_on_c, 2, 62, 127
1, 718587, Note_off_c, 2, 62, 127
1, 718593, Note_on_c, 10, 57, 127
1, 718719, Note_off_c, 10, 57, 127
1, 718726, Note_on_c, 6, 54, 127
1, 718852, Note_off_c, 6, 54, 127
1, 718859, Note_on_c, 2, 50, 127
1, 718985, Note_off_c, 2, 50, 127
1, 718991, Note_on_c, 6, 54, 127
1, 719117, Note_off_c, 6, 54, 127
1, 719123, Note_on_c, 10, 57, 127
1, 719239, Note_off_c, 7, 79, 127
1, 719239, Note_off_c, 4, 76, 127
1, 719239, Note_off_c, 1, 73, 127
1, 719249, Note_off_c, 10, 57, 127
1, 719256, Note_on_c, 2, 74, 127
1, 719256, Note_on_c, 6, 78, 127
1, 719256, Note_on_c, 0, 60, 127
1, 719382, Note_off_c, 2, 74, 127
1, 719389, Note_on_c, 6, 66, 127
1, 719515, Note_off_c, 6, 66, 127
1, 719522, Note_on_c, 7, 67, 127
1, 719642, Note_off_c, 0, 60, 127
1, 719642, Note_off_c, 6, 78, 127
1, 719648, Note_off_c, 7, 67, 127
1, 719654, Note_on_c, 10, 69, 127
1, 719780, Note_off_c, 10, 69, 127
1, 719787, Note_on_c, 12, 71, 127
1, 719913, Note_off_c, 12, 71, 127
1, 719920, Note_on_c, 0, 72, 127
1, 720046, Note_off_c, 0, 72, 127
1, 720051, Note_on_c, 2, 74, 127
1, 720051, Note_on_c, 6, 78, 127
1, 720051, Note_on_c, 12, 59, 127
1, 720177, Note_off_c, 12, 59, 127
1, 720184, Note_on_c, 10, 57, 127
1, 720310, Note_off_c, 10, 57, 127
1, 720316, Note_on_c, 12, 59, 127
1, 720438, Note_off_c, 6, 78, 127
1, 720442, Note_off_c, 12, 59, 127
1, 720450, Note_on_c, 7, 79, 127
1, 720450, Note_on_c, 4, 52, 127
1, 720570, Note_off_c, 2, 74, 127
1, 720582, Note_on_c, 4, 64, 127
1, 720708, Note_off_c, 4, 64, 127
1, 720708, Note_off_c, 7, 79, 127
1, 720714, Note_on_c, 6, 66, 127
1, 720840, Note_off_c, 6, 66, 127
1, 720846, Note_on_c, 7, 67, 127
1, 720968, Note_off_c, 4, 52, 127
1, 720972, Note_off_c, 7, 67, 127
1, 720979, Note_on_c, 10, 69, 127
1, 720979, Note_on_c, 6, 54, 127
1, 721105, Note_off_c, 6, 54, 127
1, 721105, Note_off_c, 10, 69, 127
1, 721112, Note_on_c, 12, 71, 127
1, 721112, Note_on_c, 7, 55, 127
1, 721238, Note_off_c, 7, 55, 127
1, 721238, Note_off_c, 12, 71, 127
1, 721244, Note_on_c, 1, 73, 127
1, 721244, Note_on_c, 7, 79, 127
1, 721244, Note_on_c, 10, 57, 127
1, 721370, Note_off_c, 10, 57, 127
1, 721376, Note_on_c, 7, 55, 127
1, 721502, Note_off_c, 7, 55, 127
1, 721509, Note_on_c, 10, 57, 127
1, 721631, Note_off_c, 7, 79, 127
1, 721635, Note_off_c, 10, 57, 127
1, 721642, Note_on_c, 6, 78, 127
1, 721642, Note_on_c, 2, 50, 127
1, 721763, Note_off_c, 1, 73, 127
1, 721774, Note_on_c, 2, 62, 127
1, 721900, Note_off_c, 2, 62, 127
1, 721900, Note_off_c, 6, 78, 127
1, 721907, Note_on_c, 4, 64, 127
1, 722033, Note_off_c, 4, 64, 127
1, 722039, Note_on_c, 6, 66, 127
1, 722160, Note_off_c, 2, 50, 127
1, 722165, Note_off_c, 6, 66, 127
1, 722172, Note_on_c, 7, 67, 127
1, 722172, Note_on_c, 4, 52, 127
1, 722298, Note_off_c, 4, 52, 127
1, 722298, Note_off_c, 7, 67, 127
1, 722305, Note_on_c, 10, 69, 127
1, 722305, Note_on_c, 6, 54, 127
1, 722431, Note_off_c, 6, 54, 127
1, 722431, Note_off_c, 10, 69, 127
1, 722436, Note_on_c, 12, 71, 127
1, 722436, Note_on_c, 2, 74, 127
1, 722436, Note_on_c, 7, 55, 127
1, 722562, Note_off_c, 7, 55, 127
1, 722570, Note_on_c, 4, 52, 127
1, 722696, Note_off_c, 4, 52, 127
1, 722702, Note_on_c, 1, 49, 127
1, 722823, Note_off_c, 2, 74, 127
1, 722823, Note_off_c, 12, 71, 127
1, 722828, Note_off_c, 1, 49, 127
1, 722835, Note_on_c, 1, 73, 127
1, 722835, Note_on_c, 10, 45, 127
1, 722961, Note_off_c, 10, 45, 127
1, 722967, Note_on_c, 1, 49, 127
1, 723093, Note_off_c, 1, 49, 127
1, 723100, Note_on_c, 4, 52, 127
1, 723222, Note_off_c, 1, 73, 127
1, 723226, Note_off_c, 4, 52, 127
1, 723233, Note_on_c, 1, 73, 127
1, 723233, Note_on_c, 4, 76, 127
1, 723233, Note_on_c, 7, 55, 127
1, 723359, Note_off_c, 7, 55, 127
1, 723365, Note_on_c, 6, 54, 127
1, 723491, Note_off_c, 6, 54, 127
1, 723497, Note_on_c, 4, 52, 127
1, 723620, Note_off_c, 1, 73, 127
1, 723623, Note_off_c, 4, 52, 127
1, 723630, Note_on_c, 10, 69, 127
1, 723630, Note_on_c, 6, 54, 127
1, 723756, Note_off_c, 6, 54, 127
1, 723763, Note_on_c, 2, 50, 127
1, 723889, Note_off_c, 2, 50, 127
1, 723895, Note_on_c, 4, 52, 127
1, 724012, Note_off_c, 4, 76, 127
1, 724017, Note_off_c, 10, 69, 127
1, 724021, Note_off_c, 4, 52, 127
1, 724026, Note_on_c, 2, 74, 127
1, 724026, Note_on_c, 6, 54, 127
1, 724152, Note_off_c, 6, 54, 127
1, 724160, Note_on_c, 7, 55, 127
1, 724286, Note_off_c, 7, 55, 127
1, 724293, Note_on_c, 10, 57, 127
1, 724413, Note_off_c, 2, 74, 127
1, 724419, Note_off_c, 10, 57, 127
1, 724425, Note_on_c, 8, 80, 127
1, 724425, Note_on_c, 2, 74, 127
1, 724425, Note_on_c, 12, 59, 127
1, 724551, Note_off_c, 12, 59, 127
1, 724557, Note_on_c, 1, 61, 127
1, 724683, Note_off_c, 1, 61, 127
1, 724690, Note_on_c, 2, 62, 127
1, 724812, Note_off_c, 2, 74, 127
1, 724812, Note_off_c, 8, 80, 127
1, 724816, Note_off_c, 2, 62, 127
1, 724822, Note_on_c, 4, 76, 127
1, 724822, Note_on_c, 10, 81, 127
1, 724822, Note_on_c, 1, 61, 127
1, 724948, Note_off_c, 1, 61, 127
1, 724954, Note_on_c, 12, 59, 127
1, 725080, Note_off_c, 12, 59, 127
1, 725087, Note_on_c, 10, 57, 127
1, 725209, Note_off_c, 10, 81, 127
1, 725209, Note_off_c, 4, 76, 127
1, 725213, Note_off_c, 10, 57, 127
1, 725221, Note_on_c, 4, 64, 127
1, 725221, Note_on_c, 1, 73, 127
1, 725221, Note_on_c, 12, 59, 127
1, 725347, Note_off_c, 12, 59, 127
1, 725352, Note_on_c, 10, 57, 127
1, 725478, Note_off_c, 10, 57, 127
1, 725485, Note_on_c, 7, 55, 127
1, 725608, Note_off_c, 1, 73, 127
1, 725608, Note_off_c, 4, 64, 127
1, 725611, Note_off_c, 7, 55, 127
1, 725618, Note_on_c, 6, 66, 127
1, 725618, Note_on_c, 3, 75, 127
1, 725618, Note_on_c, 10, 57, 127
1, 725744, Note_off_c, 10, 57, 127
1, 725750, Note_on_c, 7, 55, 127
1, 725876, Note_off_c, 7, 55, 127
1, 725883, Note_on_c, 6, 54, 127
1, 726005, Note_off_c, 6, 66, 127
1, 726009, Note_off_c, 6, 54, 127
1, 726015, Note_on_c, 12, 71, 127
1, 726015, Note_on_c, 7, 55, 127
1, 726141, Note_off_c, 7, 55, 127
1, 726148, Note_on_c, 4, 52, 127
1, 726274, Note_off_c, 4, 52, 127
1, 726280, Note_on_c, 6, 54, 127
1, 726397, Note_off_c, 3, 75, 127
1, 726402, Note_off_c, 12, 71, 127
1, 726406, Note_off_c, 6, 54, 127
1, 726413, Note_on_c, 4, 76, 127
1, 726413, Note_on_c, 7, 55, 127
1, 726539, Note_off_c, 7, 55, 127
1, 726546, Note_on_c, 10, 57, 127
1, 726672, Note_off_c, 10, 57, 127
1, 726678, Note_on_c, 12, 59, 127
1, 726800, Note_off_c, 4, 76, 127
1, 726804, Note_off_c, 12, 59, 127
1, 726810, Note_on_c, 4, 76, 127
1, 726810, Note_on_c, 11, 82, 127
1, 726810, Note_on_c, 1, 61, 127
1, 726936, Note_off_c, 1, 61, 127
1, 726943, Note_on_c, 2, 62, 127
1, 727069, Note_off_c, 2, 62, 127
1, 727076, Note_on_c, 4, 64, 127
1, 727197, Note_off_c, 11, 82, 127
1, 727197, Note_off_c, 4, 76, 127
1, 727202, Note_off_c, 4, 64, 127
1, 727208, Note_on_c, 12, 83, 127
1, 727208, Note_on_c, 6, 78, 127
1, 727208, Note_on_c, 2, 62, 127
1, 727334, Note_off_c, 2, 62, 127
1, 727340, Note_on_c, 1, 61, 127
1, 727466, Note_off_c, 1, 61, 127
1, 727473, Note_on_c, 12, 59, 127
1, 727595, Note_off_c, 6, 78, 127
1, 727595, Note_off_c, 12, 83, 127
1, 727599, Note_off_c, 12, 59, 127
1, 727606, Note_on_c, 6, 66, 127
1, 727606, Note_on_c, 3, 75, 127
1, 727606, Note_on_c, 1, 61, 127
1, 727732, Note_off_c, 1, 61, 127
1, 727737, Note_on_c, 12, 59, 127
1, 727863, Note_off_c, 12, 59, 127
1, 727871, Note_on_c, 10, 57, 127
1, 727993, Note_off_c, 3, 75, 127
1, 727993, Note_off_c, 6, 66, 127
1, 727997, Note_off_c, 10, 57, 127
1, 728003, Note_on_c, 8, 68, 127
1, 728003, Note_on_c, 5, 77, 127
1, 728003, Note_on_c, 12, 59, 127
1, 728129, Note_off_c, 12, 59, 127
1, 728135, Note_on_c, 10, 57, 127
1, 728261, Note_off_c, 10, 57, 127
1, 728267, Note_on_c, 8, 56, 127
1, 728390, Note_off_c, 5, 77, 127
1, 728390, Note_off_c, 8, 68, 127
1, 728393, Note_off_c, 8, 56, 127
1, 728401, Note_on_c, 1, 73, 127
1, 728401, Note_on_c, 6, 78, 127
1, 728401, Note_on_c, 10, 57, 127
1, 728527, Note_off_c, 10, 57, 127
1, 728534, Note_on_c, 8, 56, 127
1, 728660, Note_off_c, 8, 56, 127
1, 728665, Note_on_c, 6, 54, 127
1, 728788, Note_off_c, 6, 78, 127
1, 728788, Note_off_c, 1, 73, 127
1, 728798, Note_on_c, 10, 81, 127
1, 728798, Note_on_c, 6, 78, 127
1, 728921, Note_off_c, 6, 54, 127
1, 728931, Note_on_c, 10, 57, 127
1, 729057, Note_off_c, 10, 57, 127
1, 729064, Note_on_c, 1, 61, 127
1, 729185, Note_off_c, 6, 78, 127
1, 729185, Note_off_c, 10, 81, 127
1, 729190, Note_off_c, 1, 61, 127
1, 729196, Note_on_c, 6, 78, 127
1, 729196, Note_on_c, 10, 81, 127
1, 729196, Note_on_c, 4, 64, 127
1, 729322, Note_off_c, 4, 64, 127
1, 729328, Note_on_c, 3, 63, 127
1, 729454, Note_off_c, 3, 63, 127
1, 729462, Note_on_c, 1, 61, 127
1, 729583, Note_off_c, 10, 81, 127
1, 729583, Note_off_c, 6, 78, 127
1, 729588, Note_off_c, 1, 61, 127
1, 729593, Note_on_c, 10, 81, 127
1, 729593, Note_on_c, 6, 78, 127
1, 729593, Note_on_c, 3, 63, 127
1, 729719, Note_off_c, 3, 63, 127
1, 729726, Note_on_c, 6, 66, 127
1, 729852, Note_off_c, 6, 66, 127
1, 729859, Note_on_c, 7, 67, 127
1, 729985, Note_off_c, 7, 67, 127
1, 729991, Note_on_c, 10, 69, 127
1, 730080, Note_off_c, 6, 78, 127
1, 730080, Note_off_c, 10, 81, 127
1, 730117, Note_off_c, 10, 69, 127
1, 730123, Note_on_c, 12, 71, 127
1, 730249, Note_off_c, 12, 71, 127
1, 730256, Note_on_c, 1, 73, 127
1, 730382, Note_off_c, 1, 73, 127
1, 730389, Note_on_c, 3, 75, 127
1, 730515, Note_off_c, 3, 75, 127
1, 730522, Note_on_c, 4, 76, 127
1, 730648, Note_off_c, 4, 76, 127
1, 730653, Note_on_c, 6, 78, 127
1, 730779, Note_off_c, 6, 78, 127
1, 730786, Note_on_c, 7, 79, 127
1, 730786, Note_on_c, 4, 52, 127
1, 730912, Note_off_c, 7, 79, 127
1, 730918, Note_on_c, 6, 78, 127
1, 731044, Note_off_c, 6, 78, 127
1, 731051, Note_on_c, 4, 76, 127
1, 731177, Note_off_c, 4, 76, 127
1, 731184, Note_on_c, 4, 76, 127
1, 731184, Note_on_c, 7, 79, 127
1, 731304, Note_off_c, 4, 52, 127
1, 731316, Note_on_c, 7, 55, 127
1, 731442, Note_off_c, 7, 55, 127
1, 731448, Note_on_c, 12, 59, 127
1, 731571, Note_off_c, 7, 79, 127
1, 731571, Note_off_c, 4, 76, 127
1, 731574, Note_off_c, 12, 59, 127
1, 731581, Note_on_c, 7, 79, 127
1, 731581, Note_on_c, 4, 76, 127
1, 731581, Note_on_c, 2, 62, 127
1, 731707, Note_off_c, 2, 62, 127
1, 731714, Note_on_c, 1, 61, 127
1, 731840, Note_off_c, 1, 61, 127
1, 731846, Note_on_c, 12, 59, 127
1, 731968, Note_off_c, 4, 76, 127
1, 731968, Note_off_c, 7, 79, 127
1, 731972, Note_off_c, 12, 59, 127
1, 731979, Note_on_c, 4, 76, 127
1, 731979, Note_on_c, 7, 79, 127
1, 731979, Note_on_c, 1, 61, 127
1, 732105, Note_off_c, 1, 61, 127
1, 732111, Note_on_c, 4, 64, 127
1, 732237, Note_off_c, 4, 64, 127
1, 732244, Note_on_c, 6, 66, 127
1, 732370, Note_off_c, 6, 66, 127
1, 732377, Note_on_c, 7, 67, 127
1, 732466, Note_off_c, 7, 79, 127
1, 732466, Note_off_c, 4, 76, 127
1, 732503, Note_off_c, 7, 67, 127
1, 732509, Note_on_c, 10, 69, 127
1, 732635, Note_off_c, 10, 69, 127
1, 732642, Note_on_c, 12, 71, 127
1, 732768, Note_off_c, 12, 71, 127
1, 732774, Note_on_c, 1, 73, 127
1, 732900, Note_off_c, 1, 73, 127
1, 732907, Note_on_c, 2, 74, 127
1, 733033, Note_off_c, 2, 74, 127
1, 733039, Note_on_c, 4, 76, 127
1, 733165, Note_off_c, 4, 76, 127
1, 733172, Note_on_c, 6, 78, 127
1, 733172, Note_on_c, 2, 50, 127
1, 733298, Note_off_c, 6, 78, 127
1, 733304, Note_on_c, 2, 74, 127
1, 733430, Note_off_c, 2, 74, 127
1, 733436, Note_on_c, 12, 71, 127
1, 733559, Note_off_c, 2, 50, 127
1, 733569, Note_on_c, 6, 66, 127
1, 733569, Note_on_c, 2, 62, 127
1, 733692, Note_off_c, 12, 71, 127
1, 733701, Note_on_c, 11, 70, 127
1, 733827, Note_off_c, 11, 70, 127
1, 733835, Note_on_c, 12, 71, 127
1, 733956, Note_off_c, 2, 62, 127
1, 733956, Note_off_c, 6, 66, 127
1, 733961, Note_off_c, 12, 71, 127
1, 733966, Note_on_c, 1, 73, 127
1, 733966, Note_on_c, 11, 70, 127
1, 733966, Note_on_c, 1, 61, 127
1, 733966, Note_on_c, 4, 64, 127
1, 734092, Note_off_c, 1, 73, 127
1, 734099, Note_on_c, 2, 74, 127
1, 734225, Note_off_c, 2, 74, 127
1, 734231, Note_on_c, 4, 76, 127
1, 734352, Note_off_c, 11, 70, 127
1, 734353, Note_off_c, 4, 64, 127
1, 734353, Note_off_c, 1, 61, 127
1, 734357, Note_off_c, 4, 76, 127
1, 734365, Note_on_c, 2, 74, 127
1, 734365, Note_on_c, 12, 47, 127
1, 734491, Note_off_c, 2, 74, 127
1, 734497, Note_on_c, 12, 71, 127
1, 734623, Note_off_c, 12, 71, 127
1, 734629, Note_on_c, 7, 67, 127
1, 734752, Note_off_c, 12, 47, 127
1, 734762, Note_on_c, 12, 59, 127
1, 734762, Note_on_c, 2, 62, 127
1, 734885, Note_off_c, 7, 67, 127
1, 734894, Note_on_c, 6, 66, 127
1, 735020, Note_off_c, 6, 66, 127
1, 735026, Note_on_c, 7, 67, 127
1, 735149, Note_off_c, 2, 62, 127
1, 735149, Note_off_c, 12, 59, 127
1, 735152, Note_off_c, 7, 67, 127
1, 735159, Note_on_c, 10, 69, 127
1, 735159, Note_on_c, 6, 66, 127
1, 735159, Note_on_c, 0, 60, 127
1, 735159, Note_on_c, 10, 57, 127
1, 735285, Note_off_c, 10, 69, 127
1, 735292, Note_on_c, 12, 71, 127
1, 735418, Note_off_c, 12, 71, 127
1, 735424, Note_on_c, 0, 72, 127
1, 735546, Note_off_c, 10, 57, 127
1, 735546, Note_off_c, 0, 60, 127
1, 735546, Note_off_c, 6, 66, 127
1, 735550, Note_off_c, 0, 72, 127
1, 735557, Note_on_c, 12, 71, 127
1, 735557, Note_on_c, 7, 43, 127
1, 735683, Note_off_c, 12, 71, 127
1, 735690, Note_on_c, 7, 67, 127
1, 735816, Note_off_c, 7, 67, 127
1, 735822, Note_on_c, 4, 76, 127
1, 735944, Note_off_c, 7, 43, 127
1, 735954, Note_on_c, 4, 64, 127
1, 735954, Note_on_c, 12, 59, 127
1, 735954, Note_on_c, 7, 55, 127
1, 736078, Note_off_c, 4, 76, 127
1, 736087, Note_on_c, 3, 75, 127
1, 736213, Note_off_c, 3, 75, 127
1, 736220, Note_on_c, 4, 76, 127
1, 736341, Note_off_c, 7, 55, 127
1, 736341, Note_off_c, 12, 59, 127
1, 736341, Note_off_c, 4, 64, 127
1, 736346, Note_off_c, 4, 76, 127
1, 736352, Note_on_c, 6, 78, 127
1, 736352, Note_on_c, 3, 63, 127
1, 736352, Note_on_c, 10, 57, 127
1, 736352, Note_on_c, 6, 54, 127
1, 736478, Note_off_c, 6, 78, 127
1, 736485, Note_on_c, 7, 79, 127
1, 736611, Note_off_c, 7, 79, 127
1, 736617, Note_on_c, 10, 81, 127
1, 736739, Note_off_c, 6, 54, 127
1, 736739, Note_off_c, 10, 57, 127
1, 736739, Note_off_c, 3, 63, 127
1, 736743, Note_off_c, 10, 81, 127
1, 736750, Note_on_c, 7, 79, 127
1, 736750, Note_on_c, 4, 52, 127
1, 736881, Note_on_c, 4, 76, 127
1, 737007, Note_off_c, 4, 76, 127
1, 737015, Note_on_c, 1, 73, 127
1, 737137, Note_off_c, 4, 52, 127
1, 737148, Note_on_c, 4, 64, 127
1, 737148, Note_on_c, 7, 67, 127
1, 737271, Note_off_c, 1, 73, 127
1, 737279, Note_on_c, 12, 71, 127
1, 737405, Note_off_c, 12, 71, 127
1, 737411, Note_on_c, 1, 73, 127
1, 737535, Note_off_c, 7, 67, 127
1, 737535, Note_off_c, 4, 64, 127
1, 737537, Note_off_c, 1, 73, 127
1, 737545, Note_on_c, 2, 74, 127
1, 737545, Note_on_c, 2, 62, 127
1, 737545, Note_on_c, 6, 66, 127
1, 737671, Note_off_c, 2, 74, 127
1, 737678, Note_on_c, 1, 73, 127
1, 737804, Note_off_c, 1, 73, 127
1, 737809, Note_on_c, 12, 71, 127
1, 737932, Note_off_c, 6, 66, 127
1, 737932, Note_off_c, 2, 62, 127
1, 737935, Note_off_c, 12, 71, 127
1, 737942, Note_on_c, 10, 69, 127
1, 737942, Note_on_c, 1, 61, 127
1, 738033, Note_off_c, 7, 79, 127
1, 738068, Note_off_c, 10, 69, 127
1, 738075, Note_on_c, 1, 73, 127
1, 738201, Note_off_c, 1, 73, 127
1, 738208, Note_on_c, 4, 76, 127
1, 738334, Note_off_c, 4, 76, 127
1, 738340, Note_on_c, 7, 79, 127
1, 738429, Note_off_c, 1, 61, 127
1, 738466, Note_off_c, 7, 79, 127
1, 738473, Note_on_c, 4, 76, 127
1, 738599, Note_off_c, 4, 76, 127
1, 738605, Note_on_c, 1, 73, 127
1, 738731, Note_off_c, 1, 73, 127
1, 738737, Note_on_c, 10, 69, 127
1, 738863, Note_off_c, 10, 69, 127
1, 738870, Note_on_c, 4, 64, 127
1, 738996, Note_off_c, 4, 64, 127
1, 739003, Note_on_c, 1, 61, 127
1, 739128, Note_off_c, 1, 61, 127
1, 739136, Note_on_c, 10, 57, 127
1, 739267, Note_on_c, 2, 62, 127
1, 739393, Note_off_c, 2, 62, 127
1, 739400, Note_on_c, 6, 66, 127
1, 739526, Note_off_c, 6, 66, 127
1, 739533, Note_on_c, 10, 69, 127
1, 739623, Note_off_c, 10, 57, 127
1, 739659, Note_off_c, 10, 69, 127
1, 739665, Note_on_c, 2, 74, 127
1, 739791, Note_off_c, 2, 74, 127
1, 739798, Note_on_c, 6, 78, 127
1, 739924, Note_off_c, 6, 78, 127
1, 739930, Note_on_c, 2, 74, 127
1, 740056, Note_off_c, 2, 74, 127
1, 740063, Note_on_c, 10, 69, 127
1, 740189, Note_off_c, 10, 69, 127
1, 740195, Note_on_c, 6, 66, 127
1, 740321, Note_off_c, 6, 66, 127
1, 740328, Note_on_c, 2, 62, 127
1, 740454, Note_off_c, 2, 62, 127
1, 740461, Note_on_c, 12, 59, 127
1, 740587, Note_off_c, 12, 59, 127
1, 740592, Note_on_c, 2, 62, 127
1, 740718, Note_off_c, 2, 62, 127
1, 740725, Note_on_c, 8, 68, 127
1, 740851, Note_off_c, 8, 68, 127
1, 740858, Note_on_c, 12, 71, 127
1, 740984, Note_off_c, 12, 71, 127
1, 740991, Note_on_c, 2, 74, 127
1, 741117, Note_off_c, 2, 74, 127
1, 741122, Note_on_c, 8, 80, 127
1, 741248, Note_off_c, 8, 80, 127
1, 741255, Note_on_c, 12, 83, 127
1, 741381, Note_off_c, 12, 83, 127
1, 741388, Note_on_c, 8, 80, 127
1, 741514, Note_off_c, 8, 80, 127
1, 741521, Note_on_c, 10, 81, 127
1, 741653, Note_on_c, 4, 76, 127
1, 741779, Note_off_c, 4, 76, 127
1, 741786, Note_on_c, 1, 73, 127
1, 741907, Note_off_c, 10, 81, 127
1, 741912, Note_off_c, 1, 73, 127
1, 741919, Note_on_c, 10, 69, 127
1, 742050, Note_on_c, 4, 64, 127
1, 742176, Note_off_c, 4, 64, 127
1, 742183, Note_on_c, 1, 61, 127
1, 742305, Note_off_c, 10, 69, 127
1, 742309, Note_off_c, 1, 61, 127
1, 742316, Note_on_c, 10, 57, 127
1, 742449, Note_on_c, 1, 61, 127
1, 742575, Note_off_c, 1, 61, 127
1, 742580, Note_on_c, 4, 64, 127
1, 742702, Note_off_c, 10, 57, 127
1, 742706, Note_off_c, 4, 64, 127
1, 742713, Note_on_c, 10, 69, 127
1, 742839, Note_off_c, 10, 69, 127
1, 742846, Note_on_c, 1, 73, 127
1, 742972, Note_off_c, 1, 73, 127
1, 742979, Note_on_c, 4, 76, 127
1, 743105, Note_off_c, 4, 76, 127
1, 743111, Note_on_c, 7, 79, 127
1, 743243, Note_on_c, 10, 45, 127
1, 743369, Note_off_c, 10, 45, 127
1, 743376, Note_on_c, 1, 49, 127
1, 743497, Note_off_c, 7, 79, 127
1, 743502, Note_off_c, 1, 49, 127
1, 743508, Note_on_c, 4, 52, 127
1, 743634, Note_off_c, 4, 52, 127
1, 743641, Note_on_c, 10, 57, 127
1, 743767, Note_off_c, 10, 57, 127
1, 743773, Note_on_c, 1, 61, 127
1, 743899, Note_off_c, 1, 61, 127
1, 743906, Note_on_c, 6, 78, 127
1, 743906, Note_on_c, 2, 50, 127
1, 744032, Note_off_c, 6, 78, 127
1, 744038, Note_on_c, 4, 76, 127
1, 744164, Note_off_c, 4, 76, 127
1, 744171, Note_on_c, 6, 78, 127
1, 744292, Note_off_c, 2, 50, 127
1, 744297, Note_off_c, 6, 78, 127
1, 744303, Note_on_c, 12, 71, 127
1, 744436, Note_on_c, 8, 44, 127
1, 744562, Note_off_c, 8, 44, 127
1, 744568, Note_on_c, 12, 47, 127
1, 744694, Note_off_c, 12, 47, 127
1, 744701, Note_on_c, 2, 50, 127
1, 744821, Note_off_c, 12, 71, 127
1, 744827, Note_off_c, 2, 50, 127
1, 744834, Note_on_c, 1, 73, 127
1, 744834, Note_on_c, 6, 54, 127
1, 744960, Note_off_c, 6, 54, 127
1, 744960, Note_off_c, 1, 73, 127
1, 744966, Note_on_c, 2, 74, 127
1, 744966, Note_on_c, 12, 59, 127
1, 745092, Note_off_c, 12, 59, 127
1, 745092, Note_off_c, 2, 74, 127
1, 745099, Note_on_c, 4, 76, 127
1, 745099, Note_on_c, 1, 49, 127
1, 745225, Note_off_c, 4, 76, 127
1, 745231, Note_on_c, 2, 74, 127
1, 745357, Note_off_c, 2, 74, 127
1, 745364, Note_on_c, 4, 76, 127
1, 745485, Note_off_c, 1, 49, 127
1, 745490, Note_off_c, 4, 76, 127
1, 745497, Note_on_c, 10, 69, 127
1, 745629, Note_on_c, 6, 42, 127
1, 745755, Note_off_c, 6, 42, 127
1, 745762, Note_on_c, 10, 45, 127
1, 745888, Note_off_c, 10, 45, 127
1, 745893, Note_on_c, 1, 49, 127
1, 746015, Note_off_c, 10, 69, 127
1, 746019, Note_off_c, 1, 49, 127
1, 746027, Note_on_c, 12, 71, 127
1, 746027, Note_on_c, 4, 52, 127
1, 746153, Note_off_c, 4, 52, 127
1, 746153, Note_off_c, 12, 71, 127
1, 746159, Note_on_c, 1, 73, 127
1, 746159, Note_on_c, 10, 57, 127
1, 746285, Note_off_c, 10, 57, 127
1, 746285, Note_off_c, 1, 73, 127
1, 746292, Note_on_c, 2, 74, 127
1, 746292, Note_on_c, 12, 47, 127
1, 746418, Note_off_c, 2, 74, 127
1, 746424, Note_on_c, 12, 71, 127
1, 746550, Note_off_c, 12, 71, 127
1, 746556, Note_on_c, 8, 68, 127
1, 746678, Note_off_c, 12, 47, 127
1, 746682, Note_off_c, 8, 68, 127
1, 746689, Note_on_c, 4, 64, 127
1, 746815, Note_off_c, 4, 64, 127
1, 746822, Note_on_c, 8, 68, 127
1, 746822, Note_on_c, 4, 40, 127
1, 746948, Note_off_c, 4, 40, 127
1, 746948, Note_off_c, 8, 68, 127
1, 746954, Note_on_c, 12, 71, 127
1, 746954, Note_on_c, 8, 44, 127
1, 747080, Note_off_c, 8, 44, 127
1, 747080, Note_off_c, 12, 71, 127
1, 747086, Note_on_c, 2, 74, 127
1, 747086, Note_on_c, 12, 47, 127
1, 747212, Note_off_c, 12, 47, 127
1, 747212, Note_off_c, 2, 74, 127
1, 747219, Note_on_c, 1, 73, 127
1, 747219, Note_on_c, 4, 52, 127
1, 747345, Note_off_c, 4, 52, 127
1, 747345, Note_off_c, 1, 73, 127
1, 747351, Note_on_c, 12, 71, 127
1, 747351, Note_on_c, 8, 56, 127
1, 747477, Note_off_c, 8, 56, 127
1, 747477, Note_off_c, 12, 71, 127
1, 747483, Note_on_c, 1, 73, 127
1, 747483, Note_on_c, 10, 45, 127
1, 747616, Note_on_c, 8, 68, 127
1, 747742, Note_off_c, 8, 68, 127
1, 747750, Note_on_c, 10, 69, 127
1, 747881, Note_on_c, 4, 64, 127
1, 748001, Note_off_c, 10, 45, 127
1, 748008, Note_off_c, 10, 69, 127
1, 748014, Note_on_c, 1, 49, 127
1, 748140, Note_off_c, 1, 49, 127
1, 748147, Note_on_c, 4, 52, 127
1, 748262, Note_off_c, 1, 73, 127
1, 748267, Note_off_c, 4, 64, 127
1, 748273, Note_off_c, 4, 52, 127
1, 748279, Note_on_c, 10, 57, 127
1, 748405, Note_off_c, 10, 57, 127
1, 748412, Note_on_c, 4, 52, 127
1, 748538, Note_off_c, 4, 52, 127
1, 748544, Note_on_c, 1, 49, 127
1, 748670, Note_off_c, 1, 49, 127
1, 748677, Note_on_c, 1, 73, 127
1, 748677, Note_on_c, 8, 44, 127
1, 748810, Note_on_c, 8, 68, 127
1, 748936, Note_off_c, 8, 68, 127
1, 748942, Note_on_c, 10, 69, 127
1, 749075, Note_on_c, 4, 64, 127
1, 749195, Note_off_c, 10, 69, 127
1, 749195, Note_off_c, 8, 44, 127
1, 749207, Note_on_c, 1, 49, 127
1, 749333, Note_off_c, 1, 49, 127
1, 749339, Note_on_c, 4, 52, 127
1, 749456, Note_off_c, 1, 73, 127
1, 749461, Note_off_c, 4, 64, 127
1, 749465, Note_off_c, 4, 52, 127
1, 749472, Note_on_c, 10, 57, 127
1, 749598, Note_off_c, 10, 57, 127
1, 749605, Note_on_c, 4, 52, 127
1, 749731, Note_off_c, 4, 52, 127
1, 749737, Note_on_c, 1, 49, 127
1, 749863, Note_off_c, 1, 49, 127
1, 749869, Note_on_c, 0, 72, 127
1, 749869, Note_on_c, 6, 42, 127
1, 750002, Note_on_c, 8, 68, 127
1, 750128, Note_off_c, 8, 68, 127
1, 750135, Note_on_c, 10, 69, 127
1, 750266, Note_on_c, 3, 63, 127
1, 750387, Note_off_c, 6, 42, 127
1, 750388, Note_off_c, 10, 69, 127
1, 750400, Note_on_c, 10, 45, 127
1, 750526, Note_off_c, 10, 45, 127
1, 750532, Note_on_c, 12, 47, 127
1, 750648, Note_off_c, 0, 72, 127
1, 750652, Note_off_c, 3, 63, 127
1, 750658, Note_off_c, 12, 47, 127
1, 750665, Note_on_c, 0, 48, 127
1, 750791, Note_off_c, 0, 48, 127
1, 750797, Note_on_c, 12, 47, 127
1, 750923, Note_off_c, 12, 47, 127
1, 750930, Note_on_c, 10, 45, 127
1, 751056, Note_off_c, 10, 45, 127
1, 751063, Note_on_c, 0, 72, 127
1, 751063, Note_on_c, 4, 40, 127
1, 751194, Note_on_c, 8, 68, 127
1, 751320, Note_off_c, 8, 68, 127
1, 751327, Note_on_c, 10, 69, 127
1, 751460, Note_on_c, 4, 64, 127
1, 751580, Note_off_c, 10, 69, 127
1, 751581, Note_off_c, 4, 40, 127
1, 751593, Note_on_c, 10, 45, 127
1, 751719, Note_off_c, 10, 45, 127
1, 751725, Note_on_c, 12, 47, 127
1, 751842, Note_off_c, 0, 72, 127
1, 751846, Note_off_c, 4, 64, 127
1, 751851, Note_off_c, 12, 47, 127
1, 751857, Note_on_c, 0, 48, 127
1, 751983, Note_off_c, 0, 48, 127
1, 751991, Note_on_c, 12, 47, 127
1, 752117, Note_off_c, 12, 47, 127
1, 752122, Note_on_c, 10, 45, 127
1, 752248, Note_off_c, 10, 45, 127
1, 752255, Note_on_c, 3, 39, 127
1, 752388, Note_on_c, 6, 66, 127
1, 752514, Note_off_c, 6, 66, 127
1, 752520, Note_on_c, 8, 68, 127
1, 752642, Note_off_c, 3, 39, 127
1, 752646, Note_off_c, 8, 68, 127
1, 752652, Note_on_c, 10, 69, 127
1, 752652, Note_on_c, 3, 51, 127
1, 752778, Note_off_c, 10, 69, 127
1, 752785, Note_on_c, 12, 71, 127
1, 752911, Note_off_c, 12, 71, 127
1, 752918, Note_on_c, 0, 72, 127
1, 753039, Note_off_c, 3, 51, 127
1, 753050, Note_on_c, 3, 39, 127
1, 753174, Note_off_c, 0, 72, 127
1, 753182, Note_on_c, 12, 71, 127
1, 753308, Note_off_c, 12, 71, 127
1, 753315, Note_on_c, 10, 69, 127
1, 753437, Note_off_c, 3, 39, 127
1, 753441, Note_off_c, 10, 69, 127
1, 753447, Note_on_c, 8, 68, 127
1, 753447, Note_on_c, 2, 38, 127
1, 753573, Note_off_c, 8, 68, 127
1, 753580, Note_on_c, 10, 69, 127
1, 753706, Note_off_c, 10, 69, 127
1, 753713, Note_on_c, 12, 71, 127
1, 753839, Note_off_c, 12, 71, 127
1, 753845, Note_on_c, 4, 64, 127
1, 753965, Note_off_c, 2, 38, 127
1, 753978, Note_on_c, 8, 68, 127
1, 753978, Note_on_c, 4, 40, 127
1, 754104, Note_off_c, 4, 40, 127
1, 754110, Note_on_c, 12, 71, 127
1, 754110, Note_on_c, 6, 42, 127
1, 754236, Note_off_c, 6, 42, 127
1, 754243, Note_on_c, 4, 76, 127
1, 754243, Note_on_c, 8, 44, 127
1, 754369, Note_off_c, 8, 44, 127
1, 754376, Note_on_c, 10, 45, 127
1, 754485, Note_off_c, 4, 64, 127
1, 754486, Note_off_c, 8, 68, 127
1, 754489, Note_off_c, 12, 71, 127
1, 754502, Note_off_c, 10, 45, 127
1, 754508, Note_on_c, 12, 47, 127
1, 754634, Note_off_c, 12, 47, 127
1, 754641, Note_on_c, 1, 37, 127
1, 754761, Note_off_c, 4, 76, 127
1, 754773, Note_on_c, 2, 74, 127
1, 754899, Note_off_c, 2, 74, 127
1, 754906, Note_on_c, 1, 73, 127
1, 755028, Note_off_c, 1, 37, 127
1, 755032, Note_off_c, 1, 73, 127
1, 755038, Note_on_c, 12, 71, 127
1, 755038, Note_on_c, 2, 38, 127
1, 755164, Note_off_c, 12, 71, 127
1, 755171, Note_on_c, 1, 73, 127
1, 755297, Note_off_c, 1, 73, 127
1, 755303, Note_on_c, 10, 69, 127
1, 755425, Note_off_c, 2, 38, 127
1, 755429, Note_off_c, 10, 69, 127
1, 755436, Note_on_c, 4, 64, 127
1, 755436, Note_on_c, 4, 40, 127
1, 755562, Note_off_c, 4, 64, 127
1, 755568, Note_on_c, 10, 69, 127
1, 755694, Note_off_c, 10, 69, 127
1, 755702, Note_on_c, 8, 68, 127
1, 755823, Note_off_c, 4, 40, 127
1, 755828, Note_off_c, 8, 68, 127
1, 755833, Note_on_c, 10, 45, 127
1, 755965, Note_on_c, 1, 49, 127
1, 756091, Note_off_c, 1, 49, 127
1, 756098, Note_on_c, 4, 52, 127
1, 756224, Note_off_c, 4, 52, 127
1, 756231, Note_on_c, 10, 57, 127
1, 756357, Note_off_c, 10, 57, 127
1, 756364, Note_on_c, 1, 61, 127
1, 756490, Note_off_c, 1, 61, 127
1, 756495, Note_on_c, 4, 64, 127
1, 756612, Note_off_c, 10, 45, 127
1, 756621, Note_off_c, 4, 64, 127
1, 756628, Note_on_c, 10, 69, 127
1, 757014, Note_off_c, 10, 69, 127
1, 757026, Note_on_c, 1, 61, 127
1, 757152, Note_off_c, 1, 61, 127
1, 757158, Note_on_c, 2, 62, 127
1, 757284, Note_off_c, 2, 62, 127
1, 757291, Note_on_c, 4, 64, 127
1, 757417, Note_off_c, 4, 64, 127
1, 757423, Note_on_c, 6, 54, 127
1, 757549, Note_off_c, 6, 54, 127
1, 757556, Note_on_c, 4, 64, 127
1, 757682, Note_off_c, 4, 64, 127
1, 757689, Note_on_c, 2, 62, 127
1, 757815, Note_off_c, 2, 62, 127
1, 757822, Note_on_c, 1, 61, 127
1, 757948, Note_off_c, 1, 61, 127
1, 757954, Note_on_c, 2, 62, 127
1, 758080, Note_off_c, 2, 62, 127
1, 758086, Note_on_c, 4, 64, 127
1, 758212, Note_off_c, 4, 64, 127
1, 758219, Note_on_c, 7, 55, 127
1, 758345, Note_off_c, 7, 55, 127
1, 758351, Note_on_c, 4, 64, 127
1, 758477, Note_off_c, 4, 64, 127
1, 758484, Note_on_c, 2, 62, 127
1, 758610, Note_off_c, 2, 62, 127
1, 758616, Note_on_c, 1, 61, 127
1, 758742, Note_off_c, 1, 61, 127
1, 758749, Note_on_c, 2, 62, 127
1, 758875, Note_off_c, 2, 62, 127
1, 758882, Note_on_c, 4, 64, 127
1, 759008, Note_off_c, 4, 64, 127
1, 759014, Note_on_c, 10, 57, 127
1, 759140, Note_off_c, 10, 57, 127
1, 759146, Note_on_c, 12, 59, 127
1, 759272, Note_off_c, 12, 59, 127
1, 759279, Note_on_c, 1, 61, 127
1, 759405, Note_off_c, 1, 61, 127
1, 759411, Note_on_c, 2, 62, 127
1, 759536, Note_off_c, 2, 62, 127
1, 759544, Note_on_c, 6, 66, 127
1, 759670, Note_off_c, 6, 66, 127
1, 759677, Note_on_c, 10, 69, 127
1, 759803, Note_off_c, 10, 69, 127
1, 759808, Note_on_c, 8, 68, 127
1, 759934, Note_off_c, 8, 68, 127
1, 759941, Note_on_c, 6, 66, 127
1, 760067, Note_off_c, 6, 66, 127
1, 760074, Note_on_c, 4, 64, 127
1, 760200, Note_off_c, 4, 64, 127
1, 760207, Note_on_c, 2, 62, 127
1, 760333, Note_off_c, 2, 62, 127
1, 760338, Note_on_c, 1, 61, 127
1, 760464, Note_off_c, 1, 61, 127
1, 760471, Note_on_c, 12, 59, 127
1, 760597, Note_off_c, 12, 59, 127
1, 760604, Note_on_c, 1, 61, 127
1, 760730, Note_off_c, 1, 61, 127
1, 760736, Note_on_c, 4, 64, 127
1, 760862, Note_off_c, 4, 64, 127
1, 760869, Note_on_c, 7, 67, 127
1, 760995, Note_off_c, 7, 67, 127
1, 761002, Note_on_c, 6, 66, 127
1, 761128, Note_off_c, 6, 66, 127
1, 761135, Note_on_c, 4, 64, 127
1, 761261, Note_off_c, 4, 64, 127
1, 761266, Note_on_c, 2, 62, 127
1, 761392, Note_off_c, 2, 62, 127
1, 761399, Note_on_c, 1, 61, 127
1, 761525, Note_off_c, 1, 61, 127
1, 761532, Note_on_c, 12, 59, 127
1, 761658, Note_off_c, 12, 59, 127
1, 761665, Note_on_c, 10, 57, 127
1, 761791, Note_off_c, 10, 57, 127
1, 761796, Note_on_c, 12, 59, 127
1, 761922, Note_off_c, 12, 59, 127
1, 761929, Note_on_c, 1, 61, 127
1, 762055, Note_off_c, 1, 61, 127
1, 762062, Note_on_c, 2, 62, 127
1, 762188, Note_off_c, 2, 62, 127
1, 762194, Note_on_c, 1, 61, 127
1, 762320, Note_off_c, 1, 61, 127
1, 762327, Note_on_c, 12, 59, 127
1, 762453, Note_off_c, 12, 59, 127
1, 762459, Note_on_c, 10, 57, 127
1, 762585, Note_off_c, 10, 57, 127
1, 762592, Note_on_c, 12, 59, 127
1, 762718, Note_off_c, 12, 59, 127
1, 762724, Note_on_c, 10, 57, 127
1, 762850, Note_off_c, 10, 57, 127
1, 762857, Note_on_c, 8, 56, 127
1, 762983, Note_off_c, 8, 56, 127
1, 762990, Note_on_c, 10, 57, 127
1, 763116, Note_off_c, 10, 57, 127
1, 763122, Note_on_c, 4, 64, 127
1, 763248, Note_off_c, 4, 64, 127
1, 763254, Note_on_c, 2, 62, 127
1, 763380, Note_off_c, 2, 62, 127
1, 763387, Note_on_c, 1, 61, 127
1, 763513, Note_off_c, 1, 61, 127
1, 763520, Note_on_c, 12, 59, 127
1, 763646, Note_off_c, 12, 59, 127
1, 763651, Note_on_c, 10, 57, 127
1, 763777, Note_off_c, 10, 57, 127
1, 763784, Note_on_c, 7, 55, 127
1, 763910, Note_off_c, 7, 55, 127
1, 763917, Note_on_c, 6, 54, 127
1, 764043, Note_off_c, 6, 54, 127
1, 764050, Note_on_c, 4, 52, 127
1, 764176, Note_off_c, 4, 52, 127
1, 764182, Note_on_c, 6, 66, 127
1, 764182, Note_on_c, 2, 50, 127
1, 764308, Note_off_c, 6, 66, 127
1, 764315, Note_on_c, 7, 67, 127
1, 764441, Note_off_c, 7, 67, 127
1, 764448, Note_on_c, 10, 69, 127
1, 764574, Note_off_c, 10, 69, 127
1, 764579, Note_on_c, 12, 59, 127
1, 764700, Note_off_c, 2, 50, 127
1, 764705, Note_off_c, 12, 59, 127
1, 764712, Note_on_c, 10, 69, 127
1, 764712, Note_on_c, 6, 54, 127
1, 764838, Note_off_c, 6, 54, 127
1, 764838, Note_off_c, 10, 69, 127
1, 764846, Note_on_c, 7, 67, 127
1, 764846, Note_on_c, 10, 57, 127
1, 764972, Note_off_c, 10, 57, 127
1, 764972, Note_off_c, 7, 67, 127
1, 764978, Note_on_c, 6, 66, 127
1, 764978, Note_on_c, 2, 62, 127
1, 765104, Note_off_c, 2, 62, 127
1, 765104, Note_off_c, 6, 66, 127
1, 765109, Note_on_c, 7, 67, 127
1, 765109, Note_on_c, 10, 57, 127
1, 765235, Note_off_c, 10, 57, 127
1, 765235, Note_off_c, 7, 67, 127
1, 765242, Note_on_c, 10, 69, 127
1, 765242, Note_on_c, 6, 54, 127
1, 765368, Note_off_c, 6, 54, 127
1, 765368, Note_off_c, 10, 69, 127
1, 765376, Note_on_c, 0, 60, 127
1, 765376, Note_on_c, 2, 50, 127
1, 765502, Note_off_c, 2, 50, 127
1, 765502, Note_off_c, 0, 60, 127
1, 765508, Note_on_c, 10, 69, 127
1, 765508, Note_on_c, 6, 54, 127
1, 765634, Note_off_c, 6, 54, 127
1, 765634, Note_off_c, 10, 69, 127
1, 765640, Note_on_c, 7, 67, 127
1, 765640, Note_on_c, 10, 57, 127
1, 765766, Note_off_c, 10, 57, 127
1, 765766, Note_off_c, 7, 67, 127
1, 765772, Note_on_c, 6, 66, 127
1, 765772, Note_on_c, 0, 60, 127
1, 765898, Note_off_c, 6, 66, 127
1, 765905, Note_on_c, 7, 67, 127
1, 766031, Note_off_c, 7, 67, 127
1, 766037, Note_on_c, 10, 69, 127
1, 766158, Note_off_c, 0, 60, 127
1, 766163, Note_off_c, 10, 69, 127
1, 766170, Note_on_c, 2, 62, 127
1, 766296, Note_off_c, 2, 62, 127
1, 766303, Note_on_c, 4, 64, 127
1, 766429, Note_off_c, 4, 64, 127
1, 766435, Note_on_c, 6, 66, 127
1, 766561, Note_off_c, 6, 66, 127
1, 766567, Note_on_c, 7, 67, 127
1, 766567, Note_on_c, 12, 59, 127
1, 766693, Note_off_c, 12, 59, 127
1, 766693, Note_off_c, 7, 67, 127
1, 766700, Note_on_c, 12, 71, 127
1, 766700, Note_on_c, 10, 57, 127
1, 766826, Note_off_c, 10, 57, 127
1, 766826, Note_off_c, 12, 71, 127
1, 766833, Note_on_c, 2, 74, 127
1, 766833, Note_on_c, 12, 59, 127
1, 766959, Note_off_c, 12, 59, 127
1, 766959, Note_off_c, 2, 74, 127
1, 766965, Note_on_c, 1, 73, 127
1, 766965, Note_on_c, 4, 52, 127
1, 767091, Note_off_c, 1, 73, 127
1, 767098, Note_on_c, 12, 71, 127
1, 767224, Note_off_c, 12, 71, 127
1, 767230, Note_on_c, 10, 69, 127
1, 767356, Note_off_c, 10, 69, 127
1, 767363, Note_on_c, 7, 67, 127
1, 767483, Note_off_c, 4, 52, 127
1, 767489, Note_off_c, 7, 67, 127
1, 767495, Note_on_c, 6, 66, 127
1, 767495, Note_on_c, 6, 54, 127
1, 767621, Note_off_c, 6, 54, 127
1, 767621, Note_off_c, 6, 66, 127
1, 767628, Note_on_c, 4, 64, 127
1, 767628, Note_on_c, 7, 55, 127
1, 767754, Note_off_c, 7, 55, 127
1, 767754, Note_off_c, 4, 64, 127
1, 767760, Note_on_c, 6, 66, 127
1, 767760, Note_on_c, 10, 57, 127
1, 767886, Note_off_c, 10, 57, 127
1, 767886, Note_off_c, 6, 66, 127
1, 767893, Note_on_c, 10, 69, 127
1, 767893, Note_on_c, 7, 55, 127
1, 768019, Note_off_c, 7, 55, 127
1, 768019, Note_off_c, 10, 69, 127
1, 768026, Note_on_c, 0, 72, 127
1, 768026, Note_on_c, 10, 57, 127
1, 768152, Note_off_c, 10, 57, 127
1, 768152, Note_off_c, 0, 72, 127
1, 768158, Note_on_c, 12, 71, 127
1, 768158, Note_on_c, 2, 50, 127
1, 768284, Note_off_c, 12, 71, 127
1, 768291, Note_on_c, 10, 69, 127
1, 768417, Note_off_c, 10, 69, 127
1, 768422, Note_on_c, 7, 67, 127
1, 768548, Note_off_c, 7, 67, 127
1, 768556, Note_on_c, 6, 66, 127
1, 768676, Note_off_c, 2, 50, 127
1, 768682, Note_off_c, 6, 66, 127
1, 768688, Note_on_c, 4, 64, 127
1, 768688, Note_on_c, 4, 52, 127
1, 768814, Note_off_c, 4, 52, 127
1, 768814, Note_off_c, 4, 64, 127
1, 768821, Note_on_c, 2, 62, 127
1, 768821, Note_on_c, 6, 54, 127
1, 768947, Note_off_c, 6, 54, 127
1, 768947, Note_off_c, 2, 62, 127
1, 768953, Note_on_c, 4, 64, 127
1, 768953, Note_on_c, 7, 55, 127
1, 769079, Note_off_c, 7, 55, 127
1, 769079, Note_off_c, 4, 64, 127
1, 769085, Note_on_c, 6, 66, 127
1, 769085, Note_on_c, 4, 52, 127
1, 769211, Note_off_c, 4, 52, 127
1, 769211, Note_off_c, 6, 66, 127
1, 769218, Note_on_c, 7, 67, 127
1, 769218, Note_on_c, 1, 49, 127
1, 769344, Note_off_c, 1, 49, 127
1, 769344, Note_off_c, 7, 67, 127
1, 769350, Note_on_c, 6, 66, 127
1, 769350, Note_on_c, 10, 45, 127
1, 769476, Note_off_c, 10, 45, 127
1, 769476, Note_off_c, 6, 66, 127
1, 769483, Note_on_c, 4, 64, 127
1, 769483, Note_on_c, 1, 49, 127
1, 769609, Note_off_c, 1, 49, 127
1, 769609, Note_off_c, 4, 64, 127
1, 769616, Note_on_c, 2, 62, 127
1, 769616, Note_on_c, 4, 52, 127
1, 769742, Note_off_c, 4, 52, 127
1, 769742, Note_off_c, 2, 62, 127
1, 769748, Note_on_c, 4, 64, 127
1, 769748, Note_on_c, 7, 55, 127
1, 769874, Note_off_c, 7, 55, 127
1, 769874, Note_off_c, 4, 64, 127
1, 769880, Note_on_c, 2, 62, 127
1, 769880, Note_on_c, 6, 54, 127
1, 770006, Note_off_c, 6, 54, 127
1, 770006, Note_off_c, 2, 62, 127
1, 770013, Note_on_c, 1, 61, 127
1, 770013, Note_on_c, 4, 52, 127
1, 770139, Note_off_c, 4, 52, 127
1, 770139, Note_off_c, 1, 61, 127
1, 770146, Note_on_c, 2, 62, 127
1, 770146, Note_on_c, 6, 54, 127
1, 770272, Note_off_c, 2, 62, 127
1, 770279, Note_on_c, 10, 69, 127
1, 770405, Note_off_c, 10, 69, 127
1, 770411, Note_on_c, 7, 67, 127
1, 770533, Note_off_c, 6, 54, 127
1, 770537, Note_off_c, 7, 67, 127
1, 770543, Note_on_c, 6, 66, 127
1, 770543, Note_on_c, 10, 57, 127
1, 770669, Note_off_c, 6, 66, 127
1, 770677, Note_on_c, 4, 64, 127
1, 770803, Note_off_c, 4, 64, 127
1, 770809, Note_on_c, 2, 62, 127
1, 770930, Note_off_c, 10, 57, 127
1, 770935, Note_off_c, 2, 62, 127
1, 770941, Note_on_c, 0, 60, 127
1, 770941, Note_on_c, 2, 50, 127
1, 771067, Note_off_c, 0, 60, 127
1, 771073, Note_on_c, 12, 59, 127
1, 771199, Note_off_c, 12, 59, 127
1, 771207, Note_on_c, 10, 57, 127
1, 771328, Note_off_c, 2, 50, 127
1, 771333, Note_off_c, 10, 57, 127
1, 771339, Note_on_c, 12, 59, 127
1, 771339, Note_on_c, 7, 55, 127
1, 771465, Note_off_c, 7, 55, 127
1, 771471, Note_on_c, 2, 62, 127
1, 771597, Note_off_c, 2, 62, 127
1, 771604, Note_on_c, 0, 60, 127
1, 771726, Note_off_c, 12, 59, 127
1, 771730, Note_off_c, 0, 60, 127
1, 771736, Note_on_c, 3, 63, 127
1, 771736, Note_on_c, 12, 59, 127
1, 771862, Note_off_c, 12, 59, 127
1, 771868, Note_on_c, 10, 57, 127
1, 771994, Note_off_c, 10, 57, 127
1, 772001, Note_on_c, 7, 55, 127
1, 772123, Note_off_c, 3, 63, 127
1, 772127, Note_off_c, 7, 55, 127
1, 772134, Note_on_c, 10, 69, 127
1, 772134, Note_on_c, 6, 54, 127
1, 772260, Note_off_c, 6, 54, 127
1, 772267, Note_on_c, 4, 52, 127
1, 772393, Note_off_c, 4, 52, 127
1, 772398, Note_on_c, 3, 51, 127
1, 772524, Note_off_c, 3, 51, 127
1, 772531, Note_on_c, 4, 52, 127
1, 772652, Note_off_c, 10, 69, 127
1, 772664, Note_on_c, 12, 71, 127
1, 772790, Note_off_c, 12, 71, 127
1, 772796, Note_on_c, 10, 69, 127
1, 772918, Note_off_c, 4, 52, 127
1, 772922, Note_off_c, 10, 69, 127
1, 772929, Note_on_c, 8, 68, 127
1, 772929, Note_on_c, 12, 47, 127
1, 773055, Note_off_c, 8, 68, 127
1, 773061, Note_on_c, 6, 66, 127
1, 773187, Note_off_c, 6, 66, 127
1, 773193, Note_on_c, 4, 64, 127
1, 773316, Note_off_c, 12, 47, 127
1, 773319, Note_off_c, 4, 64, 127
1, 773326, Note_on_c, 2, 62, 127
1, 773326, Note_on_c, 8, 56, 127
1, 773452, Note_off_c, 2, 62, 127
1, 773459, Note_on_c, 1, 61, 127
1, 773585, Note_off_c, 1, 61, 127
1, 773592, Note_on_c, 12, 59, 127
1, 773713, Note_off_c, 8, 56, 127
1, 773718, Note_off_c, 12, 59, 127
1, 773723, Note_on_c, 1, 61, 127
1, 773723, Note_on_c, 10, 57, 127
1, 773849, Note_off_c, 10, 57, 127
1, 773857, Note_on_c, 4, 64, 127
1, 773983, Note_off_c, 4, 64, 127
1, 773990, Note_on_c, 2, 62, 127
1, 774110, Note_off_c, 1, 61, 127
1, 774116, Note_off_c, 2, 62, 127
1, 774122, Note_on_c, 5, 65, 127
1, 774122, Note_on_c, 1, 61, 127
1, 774248, Note_off_c, 1, 61, 127
1, 774254, Note_on_c, 12, 59, 127
1, 774380, Note_off_c, 12, 59, 127
1, 774387, Note_on_c, 10, 57, 127
1, 774509, Note_off_c, 5, 65, 127
1, 774513, Note_off_c, 10, 57, 127
1, 774520, Note_on_c, 12, 71, 127
1, 774520, Note_on_c, 8, 56, 127
1, 774646, Note_off_c, 8, 56, 127
1, 774651, Note_on_c, 6, 54, 127
1, 774777, Note_off_c, 6, 54, 127
1, 774784, Note_on_c, 5, 53, 127
1, 774910, Note_off_c, 5, 53, 127
1, 774917, Note_on_c, 1, 73, 127
1, 774917, Note_on_c, 6, 54, 127
1, 775043, Note_off_c, 1, 73, 127
1, 775050, Note_on_c, 2, 74, 127
1, 775176, Note_off_c, 2, 74, 127
1, 775181, Note_on_c, 4, 76, 127
1, 775299, Note_off_c, 12, 71, 127
1, 775303, Note_off_c, 6, 54, 127
1, 775307, Note_off_c, 4, 76, 127
1, 775314, Note_on_c, 11, 70, 127
1, 775314, Note_on_c, 6, 66, 127
1, 775440, Note_off_c, 11, 70, 127
1, 775447, Note_on_c, 4, 76, 127
1, 775573, Note_off_c, 4, 76, 127
1, 775579, Note_on_c, 2, 74, 127
1, 775705, Note_off_c, 2, 74, 127
1, 775711, Note_on_c, 1, 73, 127
1, 775711, Note_on_c, 11, 58, 127
1, 775837, Note_off_c, 1, 73, 127
1, 775844, Note_on_c, 2, 74, 127
1, 775970, Note_off_c, 2, 74, 127
1, 775977, Note_on_c, 4, 76, 127
1, 776093, Note_off_c, 6, 66, 127
1, 776098, Note_off_c, 11, 58, 127
1, 776103, Note_off_c, 4, 76, 127
1, 776109, Note_on_c, 2, 62, 127
1, 776109, Note_on_c, 8, 68, 127
1, 776109, Note_on_c, 12, 59, 127
1, 776235, Note_off_c, 8, 68, 127
1, 776242, Note_on_c, 4, 76, 127
1, 776368, Note_off_c, 4, 76, 127
1, 776374, Note_on_c, 2, 74, 127
1, 776495, Note_off_c, 2, 62, 127
1, 776496, Note_off_c, 12, 59, 127
1, 776500, Note_off_c, 2, 74, 127
1, 776507, Note_on_c, 4, 64, 127
1, 776507, Note_on_c, 1, 73, 127
1, 776507, Note_on_c, 4, 52, 127
1, 776633, Note_off_c, 1, 73, 127
1, 776639, Note_on_c, 2, 74, 127
1, 776765, Note_off_c, 2, 74, 127
1, 776772, Note_on_c, 4, 76, 127
1, 776893, Note_off_c, 4, 64, 127
1, 776894, Note_off_c, 4, 52, 127
1, 776898, Note_off_c, 4, 76, 127
1, 776905, Note_on_c, 11, 70, 127
1, 776905, Note_on_c, 1, 61, 127
1, 776905, Note_on_c, 6, 54, 127
1, 777031, Note_off_c, 11, 70, 127
1, 777036, Note_on_c, 12, 71, 127
1, 777162, Note_off_c, 12, 71, 127
1, 777170, Note_on_c, 1, 73, 127
1, 777292, Note_off_c, 6, 54, 127
1, 777292, Note_off_c, 1, 61, 127
1, 777296, Note_off_c, 1, 73, 127
1, 777303, Note_on_c, 2, 74, 127
1, 777303, Note_on_c, 12, 59, 127
1, 777303, Note_on_c, 12, 47, 127
1, 777429, Note_off_c, 2, 74, 127
1, 777435, Note_on_c, 6, 78, 127
1, 777561, Note_off_c, 6, 78, 127
1, 777567, Note_on_c, 10, 81, 127
1, 777690, Note_off_c, 12, 47, 127
1, 777693, Note_off_c, 10, 81, 127
1, 777700, Note_on_c, 8, 80, 127
1, 777700, Note_on_c, 4, 52, 127
1, 777822, Note_off_c, 12, 59, 127
1, 777826, Note_off_c, 8, 80, 127
1, 777832, Note_on_c, 6, 78, 127
1, 777832, Note_on_c, 1, 61, 127
1, 777958, Note_off_c, 1, 61, 127
1, 777958, Note_off_c, 6, 78, 127
1, 777965, Note_on_c, 4, 76, 127
1, 777965, Note_on_c, 2, 62, 127
1, 778086, Note_off_c, 4, 52, 127
1, 778091, Note_off_c, 2, 62, 127
1, 778091, Note_off_c, 4, 76, 127
1, 778097, Note_on_c, 2, 74, 127
1, 778097, Note_on_c, 4, 64, 127
1, 778223, Note_off_c, 4, 64, 127
1, 778223, Note_off_c, 2, 74, 127
1, 778231, Note_on_c, 1, 73, 127
1, 778231, Note_on_c, 6, 66, 127
1, 778357, Note_off_c, 6, 66, 127
1, 778357, Note_off_c, 1, 73, 127
1, 778362, Note_on_c, 12, 71, 127
1, 778362, Note_on_c, 8, 68, 127
1, 778488, Note_off_c, 8, 68, 127
1, 778488, Note_off_c, 12, 71, 127
1, 778494, Note_on_c, 1, 73, 127
1, 778494, Note_on_c, 10, 45, 127
1, 778494, Note_on_c, 10, 69, 127
1, 778620, Note_off_c, 1, 73, 127
1, 778627, Note_on_c, 4, 76, 127
1, 778753, Note_off_c, 4, 76, 127
1, 778760, Note_on_c, 7, 79, 127
1, 778881, Note_off_c, 10, 45, 127
1, 778886, Note_off_c, 7, 79, 127
1, 778893, Note_on_c, 6, 78, 127
1, 778893, Note_on_c, 2, 50, 127
1, 779013, Note_off_c, 10, 69, 127
1, 779019, Note_off_c, 6, 78, 127
1, 779024, Note_on_c, 4, 76, 127
1, 779024, Note_on_c, 12, 59, 127
1, 779150, Note_off_c, 12, 59, 127
1, 779150, Note_off_c, 4, 76, 127
1, 779157, Note_on_c, 2, 74, 127
1, 779157, Note_on_c, 1, 61, 127
1, 779279, Note_off_c, 2, 50, 127
1, 779283, Note_off_c, 1, 61, 127
1, 779283, Note_off_c, 2, 74, 127
1, 779290, Note_on_c, 0, 72, 127
1, 779290, Note_on_c, 2, 62, 127
1, 779416, Note_off_c, 2, 62, 127
1, 779416, Note_off_c, 0, 72, 127
1, 779422, Note_on_c, 12, 71, 127
1, 779422, Note_on_c, 4, 64, 127
1, 779548, Note_off_c, 4, 64, 127
1, 779548, Note_off_c, 12, 71, 127
1, 779555, Note_on_c, 10, 69, 127
1, 779555, Note_on_c, 6, 66, 127
1, 779681, Note_off_c, 6, 66, 127
1, 779681, Note_off_c, 10, 69, 127
1, 779687, Note_on_c, 7, 67, 127
1, 779687, Note_on_c, 12, 71, 127
1, 779687, Note_on_c, 7, 43, 127
1, 779813, Note_off_c, 12, 71, 127
1, 779820, Note_on_c, 0, 72, 127
1, 779946, Note_off_c, 0, 72, 127
1, 779952, Note_on_c, 2, 74, 127
1, 780073, Note_off_c, 7, 67, 127
1, 780074, Note_off_c, 7, 43, 127
1, 780078, Note_off_c, 2, 74, 127
1, 780085, Note_on_c, 0, 72, 127
1, 780085, Note_on_c, 7, 55, 127
1, 780085, Note_on_c, 4, 52, 127
1, 780211, Note_off_c, 0, 72, 127
1, 780218, Note_on_c, 12, 71, 127
1, 780344, Note_off_c, 12, 71, 127
1, 780350, Note_on_c, 10, 69, 127
1, 780472, Note_off_c, 4, 52, 127
1, 780476, Note_off_c, 10, 69, 127
1, 780483, Note_on_c, 12, 71, 127
1, 780483, Note_on_c, 2, 50, 127
1, 780609, Note_off_c, 12, 71, 127
1, 780615, Note_on_c, 10, 69, 127
1, 780741, Note_off_c, 10, 69, 127
1, 780748, Note_on_c, 7, 67, 127
1, 780870, Note_off_c, 2, 50, 127
1, 780874, Note_off_c, 7, 67, 127
1, 780881, Note_on_c, 10, 69, 127
1, 780881, Note_on_c, 1, 49, 127
1, 781007, Note_off_c, 10, 69, 127
1, 781013, Note_on_c, 12, 71, 127
1, 781139, Note_off_c, 12, 71, 127
1, 781145, Note_on_c, 0, 72, 127
1, 781255, Note_off_c, 7, 55, 127
1, 781268, Note_off_c, 1, 49, 127
1, 781271, Note_off_c, 0, 72, 127
1, 781278, Note_on_c, 12, 71, 127
1, 781278, Note_on_c, 3, 51, 127
1, 781278, Note_on_c, 6, 54, 127
1, 781404, Note_off_c, 12, 71, 127
1, 781411, Note_on_c, 10, 69, 127
1, 781537, Note_off_c, 10, 69, 127
1, 781543, Note_on_c, 7, 67, 127
1, 781665, Note_off_c, 6, 54, 127
1, 781665, Note_off_c, 3, 51, 127
1, 781669, Note_off_c, 7, 67, 127
1, 781675, Note_on_c, 10, 69, 127
1, 781675, Note_on_c, 12, 47, 127
1, 781675, Note_on_c, 3, 51, 127
1, 781801, Note_off_c, 10, 69, 127
1, 781808, Note_on_c, 7, 67, 127
1, 781934, Note_off_c, 7, 67, 127
1, 781941, Note_on_c, 6, 66, 127
1, 782062, Note_off_c, 3, 51, 127
1, 782062, Note_off_c, 12, 47, 127
1, 782067, Note_off_c, 6, 66, 127
1, 782073, Note_on_c, 7, 67, 127
1, 782073, Note_on_c, 4, 52, 127
1, 782073, Note_on_c, 4, 40, 127
1, 782199, Note_off_c, 7, 67, 127
1, 782206, Note_on_c, 12, 83, 127
1, 782332, Note_off_c, 12, 83, 127
1, 782337, Note_on_c, 10, 81, 127
1, 782460, Note_off_c, 4, 40, 127
1, 782460, Note_off_c, 4, 52, 127
1, 782463, Note_off_c, 10, 81, 127
1, 782470, Note_on_c, 7, 79, 127
1, 782470, Note_on_c, 12, 59, 127
1, 782596, Note_off_c, 7, 79, 127
1, 782603, Note_on_c, 6, 78, 127
1, 782729, Note_off_c, 6, 78, 127
1, 782736, Note_on_c, 4, 76, 127
1, 782857, Note_off_c, 12, 59, 127
1, 782862, Note_off_c, 4, 76, 127
1, 782868, Note_on_c, 2, 74, 127
1, 782868, Note_on_c, 7, 55, 127
1, 782868, Note_on_c, 4, 64, 127
1, 782994, Note_off_c, 2, 74, 127
1, 783001, Note_on_c, 1, 73, 127
1, 783127, Note_off_c, 1, 73, 127
1, 783134, Note_on_c, 12, 71, 127
1, 783255, Note_off_c, 4, 64, 127
1, 783260, Note_off_c, 12, 71, 127
1, 783266, Note_on_c, 1, 73, 127
1, 783266, Note_on_c, 10, 57, 127
1, 783392, Note_off_c, 1, 73, 127
1, 783398, Note_on_c, 2, 74, 127
1, 783524, Note_off_c, 2, 74, 127
1, 783531, Note_on_c, 4, 76, 127
1, 783647, Note_off_c, 7, 55, 127
1, 783657, Note_off_c, 4, 76, 127
1, 783664, Note_on_c, 2, 74, 127
1, 783664, Note_on_c, 6, 54, 127
1, 783790, Note_off_c, 2, 74, 127
1, 783796, Note_on_c, 4, 76, 127
1, 783922, Note_off_c, 4, 76, 127
1, 783928, Note_on_c, 6, 78, 127
1, 784051, Note_off_c, 6, 54, 127
1, 784054, Note_off_c, 6, 78, 127
1, 784062, Note_on_c, 4, 76, 127
1, 784062, Note_on_c, 1, 49, 127
1, 784188, Note_off_c, 4, 76, 127
1, 784194, Note_on_c, 6, 78, 127
1, 784320, Note_off_c, 6, 78, 127
1, 784325, Note_on_c, 7, 79, 127
1, 784449, Note_off_c, 1, 49, 127
1, 784451, Note_off_c, 7, 79, 127
1, 784458, Note_on_c, 6, 78, 127
1, 784458, Note_on_c, 2, 50, 127
1, 784584, Note_off_c, 6, 78, 127
1, 784592, Note_on_c, 10, 81, 127
1, 784718, Note_off_c, 10, 81, 127
1, 784723, Note_on_c, 7, 79, 127
1, 784824, Note_off_c, 10, 57, 127
1, 784845, Note_off_c, 2, 50, 127
1, 784849, Note_off_c, 7, 79, 127
1, 784856, Note_on_c, 6, 78, 127
1, 784856, Note_on_c, 10, 57, 127
1, 784982, Note_off_c, 6, 78, 127
1, 784988, Note_on_c, 4, 76, 127
1, 785114, Note_off_c, 4, 76, 127
1, 785122, Note_on_c, 2, 74, 127
1, 785243, Note_off_c, 10, 57, 127
1, 785248, Note_off_c, 2, 74, 127
1, 785253, Note_on_c, 0, 72, 127
1, 785253, Note_on_c, 6, 66, 127
1, 785253, Note_on_c, 2, 62, 127
1, 785379, Note_off_c, 0, 72, 127
1, 785386, Note_on_c, 12, 71, 127
1, 785512, Note_off_c, 12, 71, 127
1, 785519, Note_on_c, 11, 70, 127
1, 785640, Note_off_c, 2, 62, 127
1, 785645, Note_off_c, 11, 70, 127
1, 785650, Note_on_c, 12, 71, 127
1, 785650, Note_on_c, 7, 55, 127
1, 785776, Note_off_c, 12, 71, 127
1, 785783, Note_on_c, 1, 73, 127
1, 785909, Note_off_c, 1, 73, 127
1, 785916, Note_on_c, 2, 74, 127
1, 786032, Note_off_c, 6, 66, 127
1, 786037, Note_off_c, 7, 55, 127
1, 786042, Note_off_c, 2, 74, 127
1, 786049, Note_on_c, 1, 73, 127
1, 786049, Note_on_c, 4, 64, 127
1, 786175, Note_off_c, 1, 73, 127
1, 786181, Note_on_c, 2, 74, 127
1, 786307, Note_off_c, 2, 74, 127
1, 786314, Note_on_c, 4, 76, 127
1, 786436, Note_off_c, 4, 64, 127
1, 786440, Note_off_c, 4, 76, 127
1, 786447, Note_on_c, 12, 71, 127
1, 786447, Note_on_c, 2, 74, 127
1, 786447, Note_on_c, 7, 67, 127
1, 786573, Note_off_c, 2, 74, 127
1, 786579, Note_on_c, 4, 76, 127
1, 786705, Note_off_c, 4, 76, 127
1, 786712, Note_on_c, 6, 78, 127
1, 786834, Note_off_c, 7, 67, 127
1, 786838, Note_off_c, 6, 78, 127
1, 786845, Note_on_c, 4, 76, 127
1, 786845, Note_on_c, 1, 49, 127
1, 786971, Note_off_c, 1, 49, 127
1, 786977, Note_on_c, 2, 50, 127
1, 787103, Note_off_c, 2, 50, 127
1, 787108, Note_on_c, 4, 52, 127
1, 787226, Note_off_c, 12, 71, 127
1, 787232, Note_off_c, 4, 76, 127
1, 787234, Note_off_c, 4, 52, 127
1, 787242, Note_on_c, 11, 70, 127
1, 787242, Note_on_c, 1, 73, 127
1, 787242, Note_on_c, 6, 42, 127
1, 787368, Note_off_c, 6, 42, 127
1, 787375, Note_on_c, 4, 52, 127
1, 787501, Note_off_c, 4, 52, 127
1, 787507, Note_on_c, 2, 50, 127
1, 787629, Note_off_c, 1, 73, 127
1, 787629, Note_off_c, 11, 70, 127
1, 787633, Note_off_c, 2, 50, 127
1, 787638, Note_on_c, 7, 79, 127
1, 787638, Note_on_c, 4, 76, 127
1, 787638, Note_on_c, 1, 49, 127
1, 787764, Note_off_c, 1, 49, 127
1, 787772, Note_on_c, 2, 50, 127
1, 787898, Note_off_c, 2, 50, 127
1, 787905, Note_on_c, 4, 52, 127
1, 788025, Note_off_c, 4, 76, 127
1, 788025, Note_off_c, 7, 79, 127
1, 788031, Note_off_c, 4, 52, 127
1, 788036, Note_on_c, 6, 78, 127
1, 788036, Note_on_c, 2, 74, 127
1, 788036, Note_on_c, 8, 44, 127
1, 788162, Note_off_c, 8, 44, 127
1, 788169, Note_on_c, 4, 52, 127
1, 788295, Note_off_c, 4, 52, 127
1, 788302, Note_on_c, 2, 50, 127
1, 788423, Note_off_c, 2, 74, 127
1, 788423, Note_off_c, 6, 78, 127
1, 788428, Note_off_c, 2, 50, 127
1, 788434, Note_on_c, 4, 76, 127
1, 788434, Note_on_c, 1, 49, 127
1, 788560, Note_off_c, 1, 49, 127
1, 788566, Note_on_c, 2, 50, 127
1, 788692, Note_off_c, 2, 50, 127
1, 788699, Note_on_c, 4, 52, 127
1, 788825, Note_off_c, 4, 52, 127
1, 788832, Note_on_c, 1, 73, 127
1, 788832, Note_on_c, 11, 46, 127
1, 788958, Note_off_c, 11, 46, 127
1, 788964, Note_on_c, 12, 47, 127
1, 789090, Note_off_c, 12, 47, 127
1, 789096, Note_on_c, 1, 49, 127
1, 789213, Note_off_c, 4, 76, 127
1, 789219, Note_off_c, 1, 73, 127
1, 789222, Note_off_c, 1, 49, 127
1, 789229, Note_on_c, 12, 71, 127
1, 789229, Note_on_c, 6, 78, 127
1, 789229, Note_on_c, 12, 47, 127
1, 789355, Note_off_c, 12, 47, 127
1, 789362, Note_on_c, 2, 50, 127
1, 789488, Note_off_c, 2, 50, 127
1, 789494, Note_on_c, 6, 54, 127
1, 789616, Note_off_c, 6, 78, 127
1, 789620, Note_off_c, 6, 54, 127
1, 789627, Note_on_c, 12, 83, 127
1, 789627, Note_on_c, 8, 56, 127
1, 789753, Note_off_c, 8, 56, 127
1, 789760, Note_on_c, 6, 54, 127
1, 789886, Note_off_c, 6, 54, 127
1, 789892, Note_on_c, 4, 52, 127
1, 790008, Note_off_c, 12, 71, 127
1, 790018, Note_off_c, 4, 52, 127
1, 790025, Note_on_c, 8, 80, 127
1, 790025, Note_on_c, 2, 50, 127
1, 790151, Note_off_c, 2, 50, 127
1, 790158, Note_on_c, 1, 49, 127
1, 790284, Note_off_c, 1, 49, 127
1, 790289, Note_on_c, 12, 47, 127
1, 790412, Note_off_c, 8, 80, 127
1, 790415, Note_off_c, 12, 47, 127
1, 790422, Note_on_c, 4, 76, 127
1, 790422, Note_on_c, 1, 49, 127
1, 790548, Note_off_c, 1, 49, 127
1, 790555, Note_on_c, 4, 52, 127
1, 790681, Note_off_c, 4, 52, 127
1, 790688, Note_on_c, 7, 55, 127
1, 790797, Note_off_c, 12, 83, 127
1, 790809, Note_off_c, 4, 76, 127
1, 790814, Note_off_c, 7, 55, 127
1, 790820, Note_on_c, 10, 81, 127
1, 790820, Note_on_c, 6, 54, 127
1, 790946, Note_off_c, 6, 54, 127
1, 790951, Note_on_c, 4, 52, 127
1, 791077, Note_off_c, 4, 52, 127
1, 791085, Note_on_c, 2, 50, 127
1, 791207, Note_off_c, 10, 81, 127
1, 791211, Note_off_c, 2, 50, 127
1, 791217, Note_on_c, 7, 79, 127
1, 791217, Note_on_c, 4, 76, 127
1, 791217, Note_on_c, 1, 49, 127
1, 791343, Note_off_c, 1, 49, 127
1, 791350, Note_on_c, 12, 47, 127
1, 791476, Note_off_c, 12, 47, 127
1, 791482, Note_on_c, 10, 45, 127
1, 791604, Note_off_c, 7, 79, 127
1, 791608, Note_off_c, 10, 45, 127
1, 791615, Note_on_c, 6, 78, 127
1, 791615, Note_on_c, 2, 50, 127
1, 791736, Note_off_c, 4, 76, 127
1, 791747, Note_on_c, 6, 66, 127
1, 791873, Note_off_c, 6, 66, 127
1, 791879, Note_on_c, 7, 67, 127
1, 792001, Note_off_c, 6, 78, 127
1, 792002, Note_off_c, 2, 50, 127
1, 792005, Note_off_c, 7, 67, 127
1, 792012, Note_on_c, 10, 69, 127
1, 792012, Note_on_c, 2, 62, 127
1, 792138, Note_off_c, 10, 69, 127
1, 792145, Note_on_c, 12, 71, 127
1, 792271, Note_off_c, 12, 71, 127
1, 792277, Note_on_c, 1, 73, 127
1, 792399, Note_off_c, 2, 62, 127
1, 792403, Note_off_c, 1, 73, 127
1, 792409, Note_on_c, 2, 74, 127
1, 792409, Note_on_c, 12, 59, 127
1, 792535, Note_off_c, 2, 74, 127
1, 792542, Note_on_c, 4, 76, 127
1, 792668, Note_off_c, 4, 76, 127
1, 792675, Note_on_c, 6, 78, 127
1, 792796, Note_off_c, 12, 59, 127
1, 792808, Note_on_c, 12, 71, 127
1, 792808, Note_on_c, 8, 56, 127
1, 792934, Note_off_c, 8, 56, 127
1, 792934, Note_off_c, 12, 71, 127
1, 792940, Note_on_c, 1, 73, 127
1, 792940, Note_on_c, 10, 57, 127
1, 793066, Note_off_c, 10, 57, 127
1, 793066, Note_off_c, 1, 73, 127
1, 793072, Note_on_c, 2, 74, 127
1, 793072, Note_on_c, 12, 59, 127
1, 793198, Note_off_c, 2, 74, 127
1, 793206, Note_on_c, 8, 68, 127
1, 793320, Note_off_c, 6, 78, 127
1, 793328, Note_off_c, 12, 59, 127
1, 793338, Note_on_c, 6, 78, 127
1, 793338, Note_on_c, 10, 57, 127
1, 793464, Note_off_c, 10, 57, 127
1, 793464, Note_off_c, 6, 78, 127
1, 793470, Note_on_c, 4, 76, 127
1, 793470, Note_on_c, 8, 56, 127
1, 793596, Note_off_c, 8, 56, 127
1, 793596, Note_off_c, 4, 76, 127
1, 793602, Note_on_c, 2, 74, 127
1, 793602, Note_on_c, 6, 54, 127
1, 793728, Note_off_c, 6, 54, 127
1, 793728, Note_off_c, 2, 74, 127
1, 793736, Note_on_c, 1, 73, 127
1, 793736, Note_on_c, 4, 52, 127
1, 793862, Note_off_c, 4, 52, 127
1, 793862, Note_off_c, 1, 73, 127
1, 793868, Note_on_c, 12, 71, 127
1, 793868, Note_on_c, 2, 50, 127
1, 793994, Note_off_c, 2, 50, 127
1, 793994, Note_off_c, 12, 71, 127
1, 794000, Note_on_c, 4, 76, 127
1, 794000, Note_on_c, 1, 49, 127
1, 794111, Note_off_c, 8, 68, 127
1, 794133, Note_on_c, 4, 64, 127
1, 794259, Note_off_c, 4, 64, 127
1, 794265, Note_on_c, 6, 66, 127
1, 794387, Note_off_c, 1, 49, 127
1, 794391, Note_off_c, 6, 66, 127
1, 794397, Note_on_c, 8, 68, 127
1, 794397, Note_on_c, 1, 61, 127
1, 794523, Note_off_c, 8, 68, 127
1, 794530, Note_on_c, 10, 69, 127
1, 794656, Note_off_c, 10, 69, 127
1, 794663, Note_on_c, 12, 71, 127
1, 794784, Note_off_c, 1, 61, 127
1, 794789, Note_off_c, 12, 71, 127
1, 794796, Note_on_c, 1, 73, 127
1, 794796, Note_on_c, 10, 57, 127
1, 794922, Note_off_c, 1, 73, 127
1, 794927, Note_on_c, 2, 74, 127
1, 795036, Note_off_c, 4, 76, 127
1, 795053, Note_off_c, 2, 74, 127
1, 795060, Note_on_c, 4, 76, 127
1, 795183, Note_off_c, 10, 57, 127
1, 795193, Note_on_c, 10, 69, 127
1, 795193, Note_on_c, 6, 54, 127
1, 795319, Note_off_c, 6, 54, 127
1, 795319, Note_off_c, 10, 69, 127
1, 795325, Note_on_c, 12, 71, 127
1, 795325, Note_on_c, 8, 56, 127
1, 795451, Note_off_c, 8, 56, 127
1, 795451, Note_off_c, 12, 71, 127
1, 795458, Note_on_c, 1, 73, 127
1, 795458, Note_on_c, 10, 57, 127
1, 795584, Note_off_c, 1, 73, 127
1, 795591, Note_on_c, 6, 66, 127
1, 795702, Note_off_c, 4, 76, 127
1, 795714, Note_off_c, 10, 57, 127
1, 795723, Note_on_c, 4, 76, 127
1, 795723, Note_on_c, 8, 56, 127
1, 795849, Note_off_c, 8, 56, 127
1, 795849, Note_off_c, 4, 76, 127
1, 795856, Note_on_c, 2, 74, 127
1, 795856, Note_on_c, 6, 54, 127
1, 795982, Note_off_c, 6, 54, 127
1, 795982, Note_off_c, 2, 74, 127
1, 795988, Note_on_c, 1, 73, 127
1, 795988, Note_on_c, 4, 52, 127
1, 796114, Note_off_c, 4, 52, 127
1, 796114, Note_off_c, 1, 73, 127
1, 796121, Note_on_c, 12, 71, 127
1, 796121, Note_on_c, 2, 50, 127
1, 796247, Note_off_c, 2, 50, 127
1, 796247, Note_off_c, 12, 71, 127
1, 796252, Note_on_c, 10, 69, 127
1, 796252, Note_on_c, 1, 49, 127
1, 796378, Note_off_c, 1, 49, 127
1, 796378, Note_off_c, 10, 69, 127
1, 796386, Note_on_c, 2, 74, 127
1, 796386, Note_on_c, 12, 47, 127
1, 796496, Note_off_c, 6, 66, 127
1, 796519, Note_on_c, 2, 62, 127
1, 796645, Note_off_c, 2, 62, 127
1, 796651, Note_on_c, 4, 64, 127
1, 796773, Note_off_c, 12, 47, 127
1, 796777, Note_off_c, 4, 64, 127
1, 796783, Note_on_c, 6, 66, 127
1, 796783, Note_on_c, 12, 59, 127
1, 796909, Note_off_c, 6, 66, 127
1, 796916, Note_on_c, 8, 68, 127
1, 797042, Note_off_c, 8, 68, 127
1, 797049, Note_on_c, 10, 69, 127
1, 797170, Note_off_c, 12, 59, 127
1, 797175, Note_off_c, 10, 69, 127
1, 797180, Note_on_c, 12, 71, 127
1, 797180, Note_on_c, 8, 56, 127
1, 797306, Note_off_c, 12, 71, 127
1, 797313, Note_on_c, 1, 73, 127
1, 797422, Note_off_c, 2, 74, 127
1, 797439, Note_off_c, 1, 73, 127
1, 797447, Note_on_c, 2, 74, 127
1, 797567, Note_off_c, 8, 56, 127
1, 797579, Note_on_c, 8, 68, 127
1, 797579, Note_on_c, 4, 52, 127
1, 797705, Note_off_c, 4, 52, 127
1, 797705, Note_off_c, 8, 68, 127
1, 797710, Note_on_c, 10, 69, 127
1, 797710, Note_on_c, 6, 54, 127
1, 797836, Note_off_c, 6, 54, 127
1, 797836, Note_off_c, 10, 69, 127
1, 797843, Note_on_c, 12, 71, 127
1, 797843, Note_on_c, 8, 56, 127
1, 797969, Note_off_c, 12, 71, 127
1, 797977, Note_on_c, 4, 64, 127
1, 798089, Note_off_c, 2, 74, 127
1, 798099, Note_off_c, 8, 56, 127
1, 798108, Note_on_c, 2, 74, 127
1, 798108, Note_on_c, 6, 54, 127
1, 798234, Note_off_c, 6, 54, 127
1, 798234, Note_off_c, 2, 74, 127
1, 798240, Note_on_c, 1, 73, 127
1, 798240, Note_on_c, 4, 52, 127
1, 798366, Note_off_c, 4, 52, 127
1, 798366, Note_off_c, 1, 73, 127
1, 798373, Note_on_c, 12, 71, 127
1, 798373, Note_on_c, 2, 50, 127
1, 798499, Note_off_c, 2, 50, 127
1, 798499, Note_off_c, 12, 71, 127
1, 798507, Note_on_c, 10, 69, 127
1, 798507, Note_on_c, 1, 49, 127
1, 798633, Note_off_c, 1, 49, 127
1, 798633, Note_off_c, 10, 69, 127
1, 798638, Note_on_c, 8, 68, 127
1, 798638, Note_on_c, 12, 47, 127
1, 798764, Note_off_c, 12, 47, 127
1, 798764, Note_off_c, 8, 68, 127
1, 798771, Note_on_c, 1, 73, 127
1, 798771, Note_on_c, 10, 45, 127
1, 798897, Note_off_c, 10, 45, 127
1, 798897, Note_off_c, 1, 73, 127
1, 798904, Note_on_c, 12, 71, 127
1, 798904, Note_on_c, 12, 47, 127
1, 799030, Note_off_c, 12, 47, 127
1, 799030, Note_off_c, 12, 71, 127
1, 799036, Note_on_c, 10, 69, 127
1, 799036, Note_on_c, 1, 49, 127
1, 799147, Note_off_c, 4, 64, 127
1, 799162, Note_off_c, 1, 49, 127
1, 799162, Note_off_c, 10, 69, 127
1, 799169, Note_on_c, 2, 74, 127
1, 799169, Note_on_c, 12, 47, 127
1, 799295, Note_off_c, 12, 47, 127
1, 799302, Note_on_c, 1, 73, 127
1, 799302, Note_on_c, 10, 57, 127
1, 799428, Note_off_c, 10, 57, 127
1, 799428, Note_off_c, 1, 73, 127
1, 799435, Note_on_c, 12, 71, 127
1, 799435, Note_on_c, 7, 55, 127
1, 799561, Note_off_c, 7, 55, 127
1, 799561, Note_off_c, 12, 71, 127
1, 799566, Note_on_c, 10, 69, 127
1, 799566, Note_on_c, 6, 54, 127
1, 799692, Note_off_c, 6, 54, 127
1, 799692, Note_off_c, 10, 69, 127
1, 799699, Note_on_c, 12, 71, 127
1, 799699, Note_on_c, 7, 55, 127
1, 799825, Note_off_c, 7, 55, 127
1, 799825, Note_off_c, 12, 71, 127
1, 799832, Note_on_c, 7, 67, 127
1, 799832, Note_on_c, 10, 57, 127
1, 799948, Note_off_c, 2, 74, 127
1, 799958, Note_off_c, 10, 57, 127
1, 799964, Note_on_c, 4, 76, 127
1, 799964, Note_on_c, 1, 49, 127
1, 800090, Note_off_c, 1, 49, 127
1, 800090, Note_off_c, 4, 76, 127
1, 800097, Note_on_c, 6, 78, 127
1, 800097, Note_on_c, 10, 57, 127
1, 800223, Note_off_c, 10, 57, 127
1, 800223, Note_off_c, 6, 78, 127
1, 800229, Note_on_c, 4, 76, 127
1, 800229, Note_on_c, 7, 55, 127
1, 800355, Note_off_c, 7, 55, 127
1, 800355, Note_off_c, 4, 76, 127
1, 800362, Note_on_c, 2, 74, 127
1, 800362, Note_on_c, 6, 54, 127
1, 800488, Note_off_c, 6, 54, 127
1, 800488, Note_off_c, 2, 74, 127
1, 800493, Note_on_c, 12, 71, 127
1, 800493, Note_on_c, 7, 55, 127
1, 800619, Note_off_c, 7, 55, 127
1, 800619, Note_off_c, 12, 71, 127
1, 800627, Note_on_c, 0, 72, 127
1, 800627, Note_on_c, 10, 57, 127
1, 800737, Note_off_c, 7, 67, 127
1, 800753, Note_off_c, 10, 57, 127
1, 800760, Note_on_c, 6, 66, 127
1, 800760, Note_on_c, 2, 50, 127
1, 800886, Note_off_c, 2, 50, 127
1, 800891, Note_on_c, 4, 52, 127
1, 801013, Note_off_c, 0, 72, 127
1, 801016, Note_off_c, 6, 66, 127
1, 801017, Note_off_c, 4, 52, 127
1, 801023, Note_on_c, 10, 81, 127
1, 801023, Note_on_c, 6, 54, 127
1, 801149, Note_off_c, 6, 54, 127
1, 801149, Note_off_c, 10, 81, 127
1, 801157, Note_on_c, 12, 83, 127
1, 801157, Note_on_c, 7, 55, 127
1, 801283, Note_off_c, 7, 55, 127
1, 801283, Note_off_c, 12, 83, 127
1, 801289, Note_on_c, 10, 81, 127
1, 801289, Note_on_c, 12, 59, 127
1, 801415, Note_off_c, 12, 59, 127
1, 801415, Note_off_c, 10, 81, 127
1, 801422, Note_on_c, 12, 83, 127
1, 801422, Note_on_c, 2, 62, 127
1, 801548, Note_off_c, 2, 62, 127
1, 801548, Note_off_c, 12, 83, 127
1, 801553, Note_on_c, 4, 76, 127
1, 801553, Note_on_c, 1, 61, 127
1, 801679, Note_off_c, 1, 61, 127
1, 801687, Note_on_c, 12, 59, 127
1, 801813, Note_off_c, 12, 59, 127
1, 801819, Note_on_c, 10, 57, 127
1, 801945, Note_off_c, 10, 57, 127
1, 801951, Note_on_c, 7, 55, 127
1, 802071, Note_off_c, 4, 76, 127
1, 802077, Note_off_c, 7, 55, 127
1, 802084, Note_on_c, 6, 78, 127
1, 802084, Note_on_c, 6, 54, 127
1, 802210, Note_off_c, 6, 54, 127
1, 802210, Note_off_c, 6, 78, 127
1, 802217, Note_on_c, 7, 79, 127
1, 802217, Note_on_c, 4, 52, 127
1, 802343, Note_off_c, 4, 52, 127
1, 802343, Note_off_c, 7, 79, 127
1, 802350, Note_on_c, 10, 81, 127
1, 802350, Note_on_c, 6, 54, 127
1, 802476, Note_off_c, 6, 54, 127
1, 802476, Note_off_c, 10, 81, 127
1, 802482, Note_on_c, 7, 79, 127
1, 802482, Note_on_c, 10, 57, 127
1, 802608, Note_off_c, 10, 57, 127
1, 802608, Note_off_c, 7, 79, 127
1, 802615, Note_on_c, 10, 81, 127
1, 802615, Note_on_c, 0, 60, 127
1, 802741, Note_off_c, 0, 60, 127
1, 802741, Note_off_c, 10, 81, 127
1, 802747, Note_on_c, 2, 74, 127
1, 802747, Note_on_c, 12, 59, 127
1, 802873, Note_off_c, 12, 59, 127
1, 802879, Note_on_c, 10, 57, 127
1, 803005, Note_off_c, 10, 57, 127
1, 803012, Note_on_c, 7, 55, 127
1, 803138, Note_off_c, 7, 55, 127
1, 803144, Note_on_c, 6, 54, 127
1, 803265, Note_off_c, 2, 74, 127
1, 803270, Note_off_c, 6, 54, 127
1, 803277, Note_on_c, 4, 76, 127
1, 803277, Note_on_c, 4, 52, 127
1, 803403, Note_off_c, 4, 52, 127
1, 803403, Note_off_c, 4, 76, 127
1, 803410, Note_on_c, 6, 78, 127
1, 803410, Note_on_c, 2, 50, 127
1, 803536, Note_off_c, 2, 50, 127
1, 803536, Note_off_c, 6, 78, 127
1, 803542, Note_on_c, 7, 79, 127
1, 803542, Note_on_c, 4, 52, 127
1, 803668, Note_off_c, 4, 52, 127
1, 803668, Note_off_c, 7, 79, 127
1, 803674, Note_on_c, 4, 76, 127
1, 803674, Note_on_c, 6, 54, 127
1, 803800, Note_off_c, 6, 54, 127
1, 803800, Note_off_c, 4, 76, 127
1, 803807, Note_on_c, 1, 73, 127
1, 803807, Note_on_c, 7, 55, 127
1, 803933, Note_off_c, 7, 55, 127
1, 803933, Note_off_c, 1, 73, 127
1, 803940, Note_on_c, 10, 69, 127
1, 803940, Note_on_c, 6, 54, 127
1, 804066, Note_off_c, 6, 54, 127
1, 804066, Note_off_c, 10, 69, 127
1, 804072, Note_on_c, 1, 73, 127
1, 804072, Note_on_c, 4, 52, 127
1, 804198, Note_off_c, 4, 52, 127
1, 804198, Note_off_c, 1, 73, 127
1, 804204, Note_on_c, 4, 76, 127
1, 804204, Note_on_c, 2, 50, 127
1, 804330, Note_off_c, 2, 50, 127
1, 804330, Note_off_c, 4, 76, 127
1, 804336, Note_on_c, 7, 79, 127
1, 804336, Note_on_c, 4, 52, 127
1, 804462, Note_off_c, 4, 52, 127
1, 804462, Note_off_c, 7, 79, 127
1, 804470, Note_on_c, 6, 78, 127
1, 804470, Note_on_c, 2, 50, 127
1, 804596, Note_off_c, 2, 50, 127
1, 804596, Note_off_c, 6, 78, 127
1, 804602, Note_on_c, 4, 76, 127
1, 804602, Note_on_c, 1, 49, 127
1, 804728, Note_off_c, 1, 49, 127
1, 804728, Note_off_c, 4, 76, 127
1, 804735, Note_on_c, 6, 78, 127
1, 804735, Note_on_c, 2, 50, 127
1, 804866, Note_on_c, 1, 73, 127
1, 804992, Note_off_c, 1, 73, 127
1, 804999, Note_on_c, 2, 74, 127
1, 805132, Note_on_c, 10, 69, 127
1, 805253, Note_off_c, 2, 50, 127
1, 805257, Note_off_c, 2, 74, 127
1, 805265, Note_on_c, 6, 54, 127
1, 805391, Note_off_c, 6, 54, 127
1, 805397, Note_on_c, 10, 57, 127
1, 805514, Note_off_c, 6, 78, 127
1, 805518, Note_off_c, 10, 69, 127
1, 805523, Note_off_c, 10, 57, 127
1, 805530, Note_on_c, 2, 62, 127
1, 805656, Note_off_c, 2, 62, 127
1, 805663, Note_on_c, 10, 57, 127
1, 805789, Note_off_c, 10, 57, 127
1, 805795, Note_on_c, 6, 54, 127
1, 805921, Note_off_c, 6, 54, 127
1, 805927, Note_on_c, 6, 78, 127
1, 805927, Note_on_c, 1, 49, 127
1, 806061, Note_on_c, 1, 73, 127
1, 806187, Note_off_c, 1, 73, 127
1, 806193, Note_on_c, 2, 74, 127
1, 806325, Note_on_c, 10, 69, 127
1, 806445, Note_off_c, 1, 49, 127
1, 806451, Note_off_c, 2, 74, 127
1, 806457, Note_on_c, 6, 54, 127
1, 806583, Note_off_c, 6, 54, 127
1, 806591, Note_on_c, 10, 57, 127
1, 806706, Note_off_c, 6, 78, 127
1, 806711, Note_off_c, 10, 69, 127
1, 806717, Note_off_c, 10, 57, 127
1, 806723, Note_on_c, 2, 62, 127
1, 806849, Note_off_c, 2, 62, 127
1, 806854, Note_on_c, 10, 57, 127
1, 806980, Note_off_c, 10, 57, 127
1, 806987, Note_on_c, 6, 54, 127
1, 807113, Note_off_c, 6, 54, 127
1, 807121, Note_on_c, 5, 77, 127
1, 807121, Note_on_c, 12, 47, 127
1, 807253, Note_on_c, 1, 73, 127
1, 807379, Note_off_c, 1, 73, 127
1, 807385, Note_on_c, 2, 74, 127
1, 807517, Note_on_c, 8, 68, 127
1, 807639, Note_off_c, 12, 47, 127
1, 807643, Note_off_c, 2, 74, 127
1, 807650, Note_on_c, 2, 50, 127
1, 807776, Note_off_c, 2, 50, 127
1, 807782, Note_on_c, 4, 52, 127
1, 807900, Note_off_c, 5, 77, 127
1, 807903, Note_off_c, 8, 68, 127
1, 807908, Note_off_c, 4, 52, 127
1, 807915, Note_on_c, 5, 53, 127
1, 808041, Note_off_c, 5, 53, 127
1, 808048, Note_on_c, 4, 52, 127
1, 808174, Note_off_c, 4, 52, 127
1, 808180, Note_on_c, 2, 50, 127
1, 808306, Note_off_c, 2, 50, 127
1, 808313, Note_on_c, 5, 77, 127
1, 808313, Note_on_c, 10, 45, 127
1, 808445, Note_on_c, 1, 73, 127
1, 808571, Note_off_c, 1, 73, 127
1, 808578, Note_on_c, 2, 74, 127
1, 808710, Note_on_c, 10, 69, 127
1, 808831, Note_off_c, 10, 45, 127
1, 808836, Note_off_c, 2, 74, 127
1, 808843, Note_on_c, 2, 50, 127
1, 808969, Note_off_c, 2, 50, 127
1, 808976, Note_on_c, 4, 52, 127
1, 809092, Note_off_c, 5, 77, 127
1, 809096, Note_off_c, 10, 69, 127
1, 809102, Note_off_c, 4, 52, 127
1, 809108, Note_on_c, 5, 53, 127
1, 809234, Note_off_c, 5, 53, 127
1, 809241, Note_on_c, 4, 52, 127
1, 809367, Note_off_c, 4, 52, 127
1, 809374, Note_on_c, 2, 50, 127
1, 809500, Note_off_c, 2, 50, 127
1, 809506, Note_on_c, 8, 44, 127
1, 809637, Note_on_c, 12, 71, 127
1, 809763, Note_off_c, 12, 71, 127
1, 809771, Note_on_c, 1, 73, 127
1, 809893, Note_off_c, 8, 44, 127
1, 809897, Note_off_c, 1, 73, 127
1, 809904, Note_on_c, 2, 74, 127
1, 809904, Note_on_c, 8, 56, 127
1, 810030, Note_off_c, 2, 74, 127
1, 810036, Note_on_c, 4, 76, 127
1, 810162, Note_off_c, 4, 76, 127
1, 810167, Note_on_c, 5, 77, 127
1, 810291, Note_off_c, 8, 56, 127
1, 810301, Note_on_c, 8, 44, 127
1, 810423, Note_off_c, 5, 77, 127
1, 810434, Note_on_c, 4, 76, 127
1, 810560, Note_off_c, 4, 76, 127
1, 810565, Note_on_c, 2, 74, 127
1, 810688, Note_off_c, 8, 44, 127
1, 810691, Note_off_c, 2, 74, 127
1, 810698, Note_on_c, 1, 73, 127
1, 810698, Note_on_c, 7, 43, 127
1, 810824, Note_off_c, 1, 73, 127
1, 810831, Note_on_c, 2, 74, 127
1, 810957, Note_off_c, 2, 74, 127
1, 810963, Note_on_c, 4, 76, 127
1, 811089, Note_off_c, 4, 76, 127
1, 811095, Note_on_c, 10, 69, 127
1, 811216, Note_off_c, 7, 43, 127
1, 811228, Note_on_c, 1, 73, 127
1, 811228, Note_on_c, 10, 45, 127
1, 811354, Note_off_c, 10, 45, 127
1, 811362, Note_on_c, 4, 76, 127
1, 811362, Note_on_c, 12, 47, 127
1, 811488, Note_off_c, 12, 47, 127
1, 811493, Note_on_c, 10, 81, 127
1, 811493, Note_on_c, 1, 49, 127
1, 811619, Note_off_c, 1, 49, 127
1, 811626, Note_on_c, 2, 50, 127
1, 811735, Note_off_c, 10, 69, 127
1, 811736, Note_off_c, 1, 73, 127
1, 811737, Note_off_c, 4, 76, 127
1, 811752, Note_off_c, 2, 50, 127
1, 811759, Note_on_c, 4, 52, 127
1, 811885, Note_off_c, 4, 52, 127
1, 811892, Note_on_c, 6, 42, 127
1, 812011, Note_off_c, 10, 81, 127
1, 812024, Note_on_c, 7, 79, 127
1, 812150, Note_off_c, 7, 79, 127
1, 812156, Note_on_c, 6, 78, 127
1, 812279, Note_off_c, 6, 42, 127
1, 812282, Note_off_c, 6, 78, 127
1, 812289, Note_on_c, 4, 76, 127
1, 812289, Note_on_c, 7, 43, 127
1, 812415, Note_off_c, 4, 76, 127
1, 812422, Note_on_c, 6, 78, 127
1, 812548, Note_off_c, 6, 78, 127
1, 812554, Note_on_c, 2, 74, 127
1, 812676, Note_off_c, 7, 43, 127
1, 812680, Note_off_c, 2, 74, 127
1, 812687, Note_on_c, 10, 69, 127
1, 812687, Note_on_c, 10, 45, 127
1, 812813, Note_off_c, 10, 69, 127
1, 812818, Note_on_c, 2, 74, 127
1, 812944, Note_off_c, 2, 74, 127
1, 812951, Note_on_c, 1, 73, 127
1, 813074, Note_off_c, 10, 45, 127
1, 813077, Note_off_c, 1, 73, 127
1, 813084, Note_on_c, 2, 74, 127
1, 813084, Note_on_c, 2, 38, 127
1, 813217, Note_on_c, 10, 69, 127
1, 813343, Note_off_c, 10, 69, 127
1, 813349, Note_on_c, 6, 66, 127
1, 813470, Note_off_c, 2, 74, 127
1, 813475, Note_off_c, 6, 66, 127
1, 813481, Note_on_c, 2, 62, 127
1, 813602, Note_off_c, 2, 38, 127
1, 813614, Note_on_c, 10, 57, 127
1, 813734, Note_off_c, 2, 62, 127
1, 813740, Note_off_c, 10, 57, 127
1, 813767, Note_on_c, 6, 54, 127
1, 813893, Note_off_c, 6, 54, 127
1, 813957, Note_on_c, 2, 50, 127
1, 815957, Note_off_c, 2, 50, 127
1, 820224, End_track
0, 0, End_of_file
