0, 0, Header, 1, 3, 384
1, 0, Start_track
1, 0, Time_signature, 4, 2, 24, 8
1, 0, Tempo, 500000
1, 172032, End_track
2, 0, Start_track
2, 0, Text_t, "harpsichord: John Sankey"
2, 0, Program_c, 0, 6
2, 0, Pitch_bend_c, 0, 8192
2, 0, Program_c, 1, 6
2, 0, Pitch_bend_c, 1, 7792
2, 0, Program_c, 2, 6
2, 0, Pitch_bend_c, 2, 7876
2, 0, Program_c, 3, 6
2, 0, Pitch_bend_c, 3, 7952
2, 0, Program_c, 4, 6
2, 0, Pitch_bend_c, 4, 7792
2, 0, Program_c, 5, 6
2, 0, Pitch_bend_c, 5, 8112
2, 0, Program_c, 6, 6
2, 0, Pitch_bend_c, 6, 7712
2, 0, Program_c, 7, 6
2, 0, Pitch_bend_c, 7, 8037
2, 0, Program_c, 8, 6
2, 0, Pitch_bend_c, 8, 7872
2, 0, Program_c, 10, 6
2, 0, Pitch_bend_c, 10, 7712
2, 0, Program_c, 11, 6
2, 0, Pitch_bend_c, 11, 8032
2, 0, Program_c, 12, 6
2, 0, Pitch_bend_c, 12, 7872
2, 0, Title_t, "Track 1"
2, 64, Note_on_c, 12, 59, 127
2, 64, Note_on_c, 3, 63, 127
2, 261, Note_on_c, 12, 71, 127
2, 456, Note_off_c, 12, 71, 127
2, 459, Note_on_c, 11, 70, 127
2, 654, Note_off_c, 11, 70, 127
2, 657, Note_on_c, 12, 71, 127
2, 852, Note_off_c, 12, 71, 127
2, 852, Note_off_c, 3, 63, 127
2, 855, Note_on_c, 1, 73, 127
2, 855, Note_on_c, 4, 64, 127
2, 1050, Note_off_c, 1, 73, 127
2, 1052, Note_on_c, 11, 70, 127
2, 1247, Note_off_c, 11, 70, 127
2, 1250, Note_on_c, 12, 71, 127
2, 1445, Note_off_c, 12, 71, 127
2, 1448, Note_on_c, 1, 73, 127
2, 1643, Note_off_c, 4, 64, 127
2, 1644, Note_off_c, 12, 59, 127
2, 1646, Note_on_c, 12, 59, 127
2, 1646, Note_on_c, 6, 66, 127
2, 1744, Note_off_c, 1, 73, 127
2, 1843, Note_on_c, 3, 75, 127
2, 2038, Note_off_c, 3, 75, 127
2, 2041, Note_on_c, 1, 73, 127
2, 2236, Note_off_c, 1, 73, 127
2, 2239, Note_on_c, 3, 75, 127
2, 2434, Note_off_c, 3, 75, 127
2, 2434, Note_off_c, 6, 66, 127
2, 2437, Note_on_c, 4, 76, 127
2, 2437, Note_on_c, 8, 68, 127
2, 2632, Note_off_c, 4, 76, 127
2, 2634, Note_on_c, 1, 73, 127
2, 2829, Note_off_c, 1, 73, 127
2, 2832, Note_on_c, 3, 75, 127
2, 3027, Note_off_c, 3, 75, 127
2, 3030, Note_on_c, 4, 76, 127
2, 3225, Note_off_c, 8, 68, 127
2, 3228, Note_on_c, 11, 70, 127
2, 3256, Note_off_c, 4, 76, 127
2, 3425, Note_on_c, 4, 76, 127
2, 3620, Note_off_c, 4, 76, 127
2, 3623, Note_on_c, 3, 75, 127
2, 3818, Note_off_c, 3, 75, 127
2, 3821, Note_on_c, 4, 76, 127
2, 4016, Note_off_c, 4, 76, 127
2, 4019, Note_on_c, 6, 78, 127
2, 4214, Note_off_c, 6, 78, 127
2, 4216, Note_on_c, 1, 73, 127
2, 4411, Note_off_c, 1, 73, 127
2, 4414, Note_on_c, 3, 75, 127
2, 4609, Note_off_c, 3, 75, 127
2, 4612, Note_on_c, 4, 76, 127
2, 4807, Note_off_c, 4, 76, 127
2, 4810, Note_on_c, 3, 75, 127
2, 4990, Note_off_c, 11, 70, 127
2, 5008, Note_on_c, 11, 70, 127
2, 5203, Note_off_c, 11, 70, 127
2, 5205, Note_on_c, 8, 68, 127
2, 5400, Note_off_c, 8, 68, 127
2, 5403, Note_on_c, 11, 70, 127
2, 5598, Note_off_c, 11, 70, 127
2, 5601, Note_on_c, 12, 71, 127
2, 5796, Note_off_c, 12, 71, 127
2, 5799, Note_on_c, 8, 68, 127
2, 5994, Note_off_c, 8, 68, 127
2, 5996, Note_on_c, 11, 70, 127
2, 6191, Note_off_c, 11, 70, 127
2, 6194, Note_on_c, 12, 71, 127
2, 6384, Note_off_c, 12, 59, 127
2, 6389, Note_off_c, 12, 71, 127
2, 6390, Note_off_c, 3, 75, 127
2, 6392, Note_on_c, 5, 65, 127
2, 6392, Note_on_c, 1, 73, 127
2, 6590, Note_on_c, 8, 56, 127
2, 6785, Note_off_c, 8, 56, 127
2, 6787, Note_on_c, 6, 54, 127
2, 6982, Note_off_c, 6, 54, 127
2, 6985, Note_on_c, 8, 56, 127
2, 7180, Note_off_c, 8, 56, 127
2, 7180, Note_off_c, 5, 65, 127
2, 7183, Note_on_c, 6, 66, 127
2, 7183, Note_on_c, 11, 58, 127
2, 7378, Note_off_c, 11, 58, 127
2, 7381, Note_on_c, 6, 54, 127
2, 7576, Note_off_c, 6, 54, 127
2, 7578, Note_on_c, 8, 56, 127
2, 7773, Note_off_c, 8, 56, 127
2, 7776, Note_on_c, 11, 58, 127
2, 7971, Note_off_c, 11, 58, 127
2, 7974, Note_on_c, 3, 51, 127
2, 8163, Note_off_c, 1, 73, 127
2, 8172, Note_on_c, 11, 70, 127
2, 8367, Note_off_c, 11, 70, 127
2, 8369, Note_on_c, 8, 68, 127
2, 8564, Note_off_c, 8, 68, 127
2, 8567, Note_on_c, 11, 70, 127
2, 8762, Note_off_c, 11, 70, 127
2, 8762, Note_off_c, 3, 51, 127
2, 8765, Note_on_c, 12, 71, 127
2, 8765, Note_on_c, 8, 56, 127
2, 8960, Note_off_c, 12, 71, 127
2, 8963, Note_on_c, 8, 68, 127
2, 9158, Note_off_c, 8, 68, 127
2, 9160, Note_on_c, 11, 70, 127
2, 9355, Note_off_c, 11, 70, 127
2, 9358, Note_on_c, 12, 71, 127
2, 9552, Note_off_c, 6, 66, 127
2, 9553, Note_off_c, 8, 56, 127
2, 9556, Note_on_c, 5, 65, 127
2, 9556, Note_on_c, 1, 49, 127
2, 9687, Note_off_c, 12, 71, 127
2, 9754, Note_on_c, 8, 68, 127
2, 9949, Note_off_c, 8, 68, 127
2, 9952, Note_on_c, 6, 66, 127
2, 10147, Note_off_c, 6, 66, 127
2, 10149, Note_on_c, 8, 68, 127
2, 10338, Note_off_c, 5, 65, 127
2, 10344, Note_off_c, 8, 68, 127
2, 10344, Note_off_c, 1, 49, 127
2, 10347, Note_on_c, 4, 64, 127
2, 10347, Note_on_c, 11, 70, 127
2, 10347, Note_on_c, 6, 54, 127
2, 10542, Note_off_c, 11, 70, 127
2, 10545, Note_on_c, 6, 66, 127
2, 10740, Note_off_c, 6, 66, 127
2, 10743, Note_on_c, 8, 68, 127
2, 10938, Note_off_c, 8, 68, 127
2, 10940, Note_on_c, 11, 70, 127
2, 11129, Note_off_c, 4, 64, 127
2, 11135, Note_off_c, 6, 54, 127
2, 11138, Note_on_c, 3, 63, 127
2, 11138, Note_on_c, 12, 47, 127
2, 11333, Note_off_c, 12, 47, 127
2, 11336, Note_on_c, 11, 58, 127
2, 11531, Note_off_c, 11, 58, 127
2, 11534, Note_on_c, 8, 56, 127
2, 11729, Note_off_c, 8, 56, 127
2, 11731, Note_on_c, 11, 58, 127
2, 11926, Note_off_c, 11, 58, 127
2, 11928, Note_off_c, 11, 70, 127
2, 11929, Note_on_c, 8, 68, 127
2, 11929, Note_on_c, 12, 59, 127
2, 12124, Note_off_c, 12, 59, 127
2, 12127, Note_on_c, 8, 56, 127
2, 12322, Note_off_c, 8, 56, 127
2, 12322, Note_off_c, 8, 68, 127
2, 12325, Note_on_c, 6, 66, 127
2, 12325, Note_on_c, 11, 58, 127
2, 12520, Note_off_c, 11, 58, 127
2, 12522, Note_on_c, 12, 59, 127
2, 12717, Note_off_c, 12, 59, 127
2, 12718, Note_off_c, 6, 66, 127
2, 12720, Note_on_c, 5, 65, 127
2, 12720, Note_on_c, 1, 49, 127
2, 12915, Note_off_c, 1, 49, 127
2, 12918, Note_on_c, 3, 51, 127
2, 12998, Note_off_c, 3, 63, 127
2, 13113, Note_off_c, 3, 51, 127
2, 13116, Note_on_c, 1, 61, 127
2, 13116, Note_on_c, 12, 47, 127
2, 13311, Note_off_c, 12, 47, 127
2, 13313, Note_on_c, 1, 49, 127
2, 13502, Note_off_c, 5, 65, 127
2, 13508, Note_off_c, 1, 49, 127
2, 13509, Note_off_c, 1, 61, 127
2, 13511, Note_on_c, 12, 59, 127
2, 13511, Note_on_c, 6, 66, 127
2, 13511, Note_on_c, 3, 51, 127
2, 13706, Note_off_c, 3, 51, 127
2, 13709, Note_on_c, 12, 47, 127
2, 13904, Note_off_c, 12, 47, 127
2, 13904, Note_off_c, 12, 59, 127
2, 13907, Note_on_c, 11, 58, 127
2, 13907, Note_on_c, 1, 49, 127
2, 14102, Note_off_c, 1, 49, 127
2, 14104, Note_on_c, 3, 51, 127
2, 14299, Note_off_c, 3, 51, 127
2, 14300, Note_off_c, 11, 58, 127
2, 14302, Note_on_c, 12, 59, 127
2, 14302, Note_on_c, 8, 44, 127
2, 14497, Note_off_c, 12, 59, 127
2, 14500, Note_on_c, 11, 58, 127
2, 14695, Note_off_c, 11, 58, 127
2, 14698, Note_on_c, 8, 56, 127
2, 14893, Note_off_c, 8, 56, 127
2, 14896, Note_on_c, 11, 58, 127
2, 15090, Note_off_c, 8, 44, 127
2, 15091, Note_off_c, 11, 58, 127
2, 15091, Note_off_c, 6, 66, 127
2, 15093, Note_on_c, 12, 59, 127
2, 15093, Note_on_c, 5, 65, 127
2, 15093, Note_on_c, 1, 49, 127
2, 15288, Note_off_c, 12, 59, 127
2, 15291, Note_on_c, 8, 56, 127
2, 15486, Note_off_c, 8, 56, 127
2, 15489, Note_on_c, 11, 58, 127
2, 15684, Note_off_c, 11, 58, 127
2, 15687, Note_on_c, 12, 59, 127
2, 15875, Note_off_c, 5, 65, 127
2, 15881, Note_off_c, 1, 49, 127
2, 15882, Note_off_c, 12, 59, 127
2, 15884, Note_on_c, 6, 66, 127
2, 15884, Note_on_c, 11, 58, 127
2, 15884, Note_on_c, 6, 42, 127
2, 16079, Note_off_c, 6, 42, 127
2, 16082, Note_on_c, 1, 49, 127
2, 16277, Note_off_c, 1, 49, 127
2, 16280, Note_on_c, 12, 47, 127
2, 16475, Note_off_c, 12, 47, 127
2, 16478, Note_on_c, 1, 49, 127
2, 16672, Note_off_c, 11, 58, 127
2, 16673, Note_off_c, 1, 49, 127
2, 16675, Note_on_c, 12, 59, 127
2, 16675, Note_on_c, 3, 51, 127
2, 16870, Note_off_c, 3, 51, 127
2, 16873, Note_on_c, 12, 47, 127
2, 17068, Note_off_c, 12, 47, 127
2, 17071, Note_on_c, 1, 49, 127
2, 17266, Note_off_c, 1, 49, 127
2, 17269, Note_on_c, 3, 51, 127
2, 17463, Note_off_c, 12, 59, 127
2, 17464, Note_off_c, 3, 51, 127
2, 17466, Note_on_c, 1, 61, 127
2, 17466, Note_on_c, 6, 42, 127
2, 17661, Note_off_c, 6, 42, 127
2, 17664, Note_on_c, 11, 46, 127
2, 17859, Note_off_c, 11, 46, 127
2, 17862, Note_on_c, 8, 44, 127
2, 18057, Note_off_c, 8, 44, 127
2, 18060, Note_on_c, 11, 46, 127
2, 18254, Note_off_c, 1, 61, 127
2, 18255, Note_off_c, 11, 46, 127
2, 18257, Note_on_c, 3, 63, 127
2, 18257, Note_on_c, 12, 47, 127
2, 18452, Note_off_c, 12, 47, 127
2, 18455, Note_on_c, 8, 44, 127
2, 18650, Note_off_c, 8, 44, 127
2, 18653, Note_on_c, 11, 46, 127
2, 18848, Note_off_c, 11, 46, 127
2, 18851, Note_on_c, 12, 47, 127
2, 19035, Note_off_c, 6, 66, 127
2, 19046, Note_off_c, 12, 47, 127
2, 19048, Note_on_c, 4, 40, 127
2, 19246, Note_on_c, 8, 68, 127
2, 19441, Note_off_c, 8, 68, 127
2, 19444, Note_on_c, 7, 67, 127
2, 19639, Note_off_c, 7, 67, 127
2, 19642, Note_on_c, 8, 68, 127
2, 19837, Note_off_c, 8, 68, 127
2, 19837, Note_off_c, 3, 63, 127
2, 19840, Note_on_c, 11, 70, 127
2, 19840, Note_on_c, 1, 61, 127
2, 19840, Note_on_c, 4, 52, 127
2, 19844, Note_off_c, 4, 40, 127
2, 20035, Note_off_c, 11, 70, 127
2, 20037, Note_on_c, 7, 67, 127
2, 20232, Note_off_c, 7, 67, 127
2, 20235, Note_on_c, 8, 68, 127
2, 20430, Note_off_c, 8, 68, 127
2, 20433, Note_on_c, 11, 70, 127
2, 20628, Note_off_c, 11, 70, 127
2, 20628, Note_off_c, 4, 52, 127
2, 20631, Note_on_c, 7, 67, 127
2, 20631, Note_on_c, 3, 51, 127
2, 20826, Note_off_c, 7, 67, 127
2, 20828, Note_on_c, 11, 70, 127
2, 21023, Note_off_c, 11, 70, 127
2, 21026, Note_on_c, 8, 68, 127
2, 21221, Note_off_c, 8, 68, 127
2, 21224, Note_on_c, 11, 70, 127
2, 21419, Note_off_c, 11, 70, 127
2, 21420, Note_off_c, 1, 61, 127
2, 21422, Note_on_c, 12, 71, 127
2, 21422, Note_on_c, 12, 59, 127
2, 21617, Note_off_c, 12, 71, 127
2, 21619, Note_on_c, 8, 68, 127
2, 21814, Note_off_c, 8, 68, 127
2, 21817, Note_on_c, 11, 70, 127
2, 22012, Note_off_c, 11, 70, 127
2, 22015, Note_on_c, 12, 71, 127
2, 22210, Note_off_c, 12, 71, 127
2, 22210, Note_off_c, 12, 59, 127
2, 22213, Note_on_c, 1, 73, 127
2, 22213, Note_on_c, 11, 58, 127
2, 22408, Note_off_c, 1, 73, 127
2, 22410, Note_on_c, 8, 80, 127
2, 22605, Note_off_c, 8, 80, 127
2, 22606, Note_off_c, 11, 58, 127
2, 22608, Note_on_c, 7, 79, 127
2, 22608, Note_on_c, 8, 56, 127
2, 22803, Note_off_c, 7, 79, 127
2, 22806, Note_on_c, 8, 80, 127
2, 23000, Note_off_c, 3, 51, 127
2, 23001, Note_off_c, 8, 80, 127
2, 23004, Note_on_c, 11, 82, 127
2, 23004, Note_on_c, 1, 49, 127
2, 23199, Note_off_c, 11, 82, 127
2, 23201, Note_on_c, 7, 79, 127
2, 23390, Note_off_c, 8, 56, 127
2, 23396, Note_off_c, 7, 79, 127
2, 23399, Note_on_c, 8, 80, 127
2, 23399, Note_on_c, 7, 55, 127
2, 23594, Note_off_c, 8, 80, 127
2, 23597, Note_on_c, 11, 82, 127
2, 23786, Note_off_c, 1, 49, 127
2, 23792, Note_off_c, 11, 82, 127
2, 23795, Note_on_c, 3, 75, 127
2, 23795, Note_on_c, 12, 47, 127
2, 23939, Note_off_c, 7, 55, 127
2, 23992, Note_on_c, 11, 70, 127
2, 24187, Note_off_c, 11, 70, 127
2, 24188, Note_off_c, 12, 47, 127
2, 24190, Note_on_c, 8, 68, 127
2, 24190, Note_on_c, 11, 46, 127
2, 24385, Note_off_c, 8, 68, 127
2, 24388, Note_on_c, 11, 70, 127
2, 24583, Note_off_c, 11, 70, 127
2, 24583, Note_off_c, 11, 46, 127
2, 24586, Note_on_c, 12, 71, 127
2, 24586, Note_on_c, 8, 44, 127
2, 24781, Note_off_c, 12, 71, 127
2, 24784, Note_on_c, 8, 68, 127
2, 24979, Note_off_c, 8, 68, 127
2, 24981, Note_on_c, 11, 70, 127
2, 25176, Note_off_c, 11, 70, 127
2, 25179, Note_on_c, 12, 71, 127
2, 25374, Note_off_c, 12, 71, 127
2, 25375, Note_off_c, 3, 75, 127
2, 25377, Note_on_c, 1, 73, 127
2, 25377, Note_on_c, 5, 65, 127
2, 25572, Note_off_c, 5, 65, 127
2, 25572, Note_off_c, 8, 44, 127
2, 25575, Note_on_c, 12, 71, 127
2, 25575, Note_on_c, 8, 56, 127
2, 25770, Note_off_c, 8, 56, 127
2, 25770, Note_off_c, 12, 71, 127
2, 25772, Note_on_c, 11, 70, 127
2, 25772, Note_on_c, 7, 55, 127
2, 25967, Note_off_c, 7, 55, 127
2, 25967, Note_off_c, 11, 70, 127
2, 25970, Note_on_c, 8, 68, 127
2, 25970, Note_on_c, 8, 56, 127
2, 26165, Note_off_c, 8, 56, 127
2, 26165, Note_off_c, 8, 68, 127
2, 26168, Note_on_c, 7, 67, 127
2, 26168, Note_on_c, 11, 58, 127
2, 26363, Note_off_c, 11, 58, 127
2, 26366, Note_on_c, 7, 55, 127
2, 26561, Note_off_c, 7, 55, 127
2, 26563, Note_on_c, 8, 56, 127
2, 26758, Note_off_c, 8, 56, 127
2, 26761, Note_on_c, 11, 58, 127
2, 26956, Note_off_c, 11, 58, 127
2, 26959, Note_on_c, 4, 52, 127
2, 27148, Note_off_c, 1, 73, 127
2, 27157, Note_on_c, 3, 75, 127
2, 27352, Note_off_c, 3, 75, 127
2, 27354, Note_on_c, 1, 73, 127
2, 27354, Note_on_c, 4, 64, 127
2, 27361, Note_off_c, 4, 52, 127
2, 27549, Note_off_c, 1, 73, 127
2, 27552, Note_on_c, 3, 75, 127
2, 27747, Note_off_c, 3, 75, 127
2, 27747, Note_off_c, 4, 64, 127
2, 27748, Note_off_c, 7, 67, 127
2, 27750, Note_on_c, 8, 68, 127
2, 27750, Note_on_c, 4, 76, 127
2, 27750, Note_on_c, 3, 63, 127
2, 27945, Note_off_c, 4, 76, 127
2, 27948, Note_on_c, 1, 73, 127
2, 28143, Note_off_c, 1, 73, 127
2, 28143, Note_off_c, 3, 63, 127
2, 28145, Note_on_c, 3, 75, 127
2, 28145, Note_on_c, 1, 61, 127
2, 28340, Note_off_c, 3, 75, 127
2, 28343, Note_on_c, 4, 76, 127
2, 28538, Note_off_c, 4, 76, 127
2, 28538, Note_off_c, 1, 61, 127
2, 28541, Note_on_c, 11, 70, 127
2, 28541, Note_on_c, 3, 63, 127
2, 28736, Note_off_c, 11, 70, 127
2, 28739, Note_on_c, 12, 71, 127
2, 28934, Note_off_c, 12, 71, 127
2, 28934, Note_off_c, 3, 63, 127
2, 28936, Note_on_c, 11, 70, 127
2, 28936, Note_on_c, 1, 61, 127
2, 29131, Note_off_c, 11, 70, 127
2, 29134, Note_on_c, 12, 71, 127
2, 29329, Note_off_c, 12, 71, 127
2, 29329, Note_off_c, 1, 61, 127
2, 29330, Note_off_c, 8, 68, 127
2, 29332, Note_on_c, 7, 67, 127
2, 29332, Note_on_c, 1, 73, 127
2, 29332, Note_on_c, 3, 63, 127
2, 29527, Note_off_c, 1, 73, 127
2, 29530, Note_on_c, 11, 70, 127
2, 29725, Note_off_c, 11, 70, 127
2, 29725, Note_off_c, 3, 63, 127
2, 29728, Note_on_c, 12, 71, 127
2, 29728, Note_on_c, 3, 51, 127
2, 29923, Note_off_c, 12, 71, 127
2, 29925, Note_on_c, 1, 73, 127
2, 30114, Note_off_c, 7, 67, 127
2, 30120, Note_off_c, 1, 73, 127
2, 30121, Note_off_c, 3, 51, 127
2, 30131, Note_on_c, 8, 68, 127
2, 30131, Note_on_c, 12, 71, 127
2, 30131, Note_on_c, 8, 56, 127
2, 30326, Note_off_c, 8, 56, 127
2, 30329, Note_on_c, 11, 58, 127
2, 30524, Note_off_c, 11, 58, 127
2, 30524, Note_off_c, 12, 71, 127
2, 30527, Note_on_c, 3, 75, 127
2, 30527, Note_on_c, 8, 56, 127
2, 30722, Note_off_c, 8, 56, 127
2, 30724, Note_on_c, 11, 58, 127
2, 30913, Note_off_c, 8, 68, 127
2, 30919, Note_off_c, 11, 58, 127
2, 30920, Note_off_c, 3, 75, 127
2, 30922, Note_on_c, 8, 80, 127
2, 30922, Note_on_c, 12, 59, 127
2, 31117, Note_off_c, 12, 59, 127
2, 31120, Note_on_c, 8, 56, 127
2, 31315, Note_off_c, 8, 56, 127
2, 31315, Note_off_c, 8, 80, 127
2, 31318, Note_on_c, 6, 78, 127
2, 31318, Note_on_c, 11, 58, 127
2, 31513, Note_off_c, 11, 58, 127
2, 31515, Note_on_c, 12, 59, 127
2, 31710, Note_off_c, 12, 59, 127
2, 31711, Note_off_c, 6, 78, 127
2, 31713, Note_on_c, 5, 77, 127
2, 31713, Note_on_c, 1, 49, 127
2, 31911, Note_on_c, 1, 73, 127
2, 32106, Note_off_c, 1, 73, 127
2, 32106, Note_off_c, 1, 49, 127
2, 32109, Note_on_c, 12, 71, 127
2, 32109, Note_on_c, 1, 61, 127
2, 32304, Note_off_c, 1, 61, 127
2, 32304, Note_off_c, 12, 71, 127
2, 32306, Note_on_c, 1, 73, 127
2, 32306, Note_on_c, 12, 59, 127
2, 32501, Note_off_c, 12, 59, 127
2, 32501, Note_off_c, 1, 73, 127
2, 32504, Note_on_c, 2, 74, 127
2, 32504, Note_on_c, 10, 57, 127
2, 32699, Note_off_c, 2, 74, 127
2, 32702, Note_on_c, 12, 71, 127
2, 32897, Note_off_c, 12, 71, 127
2, 32897, Note_off_c, 10, 57, 127
2, 32900, Note_on_c, 1, 73, 127
2, 32900, Note_on_c, 8, 56, 127
2, 33095, Note_off_c, 1, 73, 127
2, 33097, Note_on_c, 2, 74, 127
2, 33292, Note_off_c, 2, 74, 127
2, 33293, Note_off_c, 8, 56, 127
2, 33293, Note_off_c, 5, 77, 127
2, 33295, Note_on_c, 10, 69, 127
2, 33295, Note_on_c, 6, 54, 127
2, 33490, Note_off_c, 6, 54, 127
2, 33493, Note_on_c, 8, 56, 127
2, 33688, Note_off_c, 8, 56, 127
2, 33691, Note_on_c, 1, 73, 127
2, 33691, Note_on_c, 6, 54, 127
2, 33886, Note_off_c, 6, 54, 127
2, 33888, Note_on_c, 8, 56, 127
2, 34083, Note_off_c, 8, 56, 127
2, 34084, Note_off_c, 1, 73, 127
2, 34086, Note_on_c, 6, 78, 127
2, 34086, Note_on_c, 10, 57, 127
2, 34281, Note_off_c, 10, 57, 127
2, 34284, Note_on_c, 6, 54, 127
2, 34479, Note_off_c, 6, 54, 127
2, 34479, Note_off_c, 6, 78, 127
2, 34482, Note_on_c, 4, 76, 127
2, 34482, Note_on_c, 8, 56, 127
2, 34677, Note_off_c, 8, 56, 127
2, 34680, Note_on_c, 10, 57, 127
2, 34875, Note_off_c, 10, 57, 127
2, 34875, Note_off_c, 4, 76, 127
2, 34875, Note_off_c, 10, 69, 127
2, 34877, Note_on_c, 3, 75, 127
2, 34877, Note_on_c, 12, 47, 127
2, 35075, Note_on_c, 10, 69, 127
2, 35270, Note_off_c, 10, 69, 127
2, 35270, Note_off_c, 12, 47, 127
2, 35273, Note_on_c, 8, 68, 127
2, 35273, Note_on_c, 12, 59, 127
2, 35468, Note_off_c, 12, 59, 127
2, 35468, Note_off_c, 8, 68, 127
2, 35471, Note_on_c, 10, 69, 127
2, 35471, Note_on_c, 10, 57, 127
2, 35666, Note_off_c, 10, 57, 127
2, 35666, Note_off_c, 10, 69, 127
2, 35668, Note_on_c, 12, 71, 127
2, 35668, Note_on_c, 8, 56, 127
2, 35863, Note_off_c, 12, 71, 127
2, 35866, Note_on_c, 6, 66, 127
2, 36061, Note_off_c, 6, 66, 127
2, 36061, Note_off_c, 8, 56, 127
2, 36064, Note_on_c, 8, 68, 127
2, 36064, Note_on_c, 6, 54, 127
2, 36259, Note_off_c, 8, 68, 127
2, 36262, Note_on_c, 10, 69, 127
2, 36277, Note_off_c, 3, 75, 127
2, 36457, Note_off_c, 10, 69, 127
2, 36457, Note_off_c, 6, 54, 127
2, 36459, Note_on_c, 8, 68, 127
2, 36459, Note_on_c, 4, 76, 127
2, 36459, Note_on_c, 4, 52, 127
2, 36654, Note_off_c, 4, 52, 127
2, 36657, Note_on_c, 3, 51, 127
2, 36852, Note_off_c, 3, 51, 127
2, 36855, Note_on_c, 4, 52, 127
2, 37050, Note_off_c, 4, 52, 127
2, 37053, Note_on_c, 3, 51, 127
2, 37247, Note_off_c, 8, 68, 127
2, 37248, Note_off_c, 3, 51, 127
2, 37250, Note_on_c, 11, 70, 127
2, 37250, Note_on_c, 1, 49, 127
2, 37445, Note_off_c, 1, 49, 127
2, 37448, Note_on_c, 4, 52, 127
2, 37643, Note_off_c, 4, 52, 127
2, 37643, Note_off_c, 11, 70, 127
2, 37646, Note_on_c, 12, 71, 127
2, 37646, Note_on_c, 3, 51, 127
2, 37841, Note_off_c, 3, 51, 127
2, 37844, Note_on_c, 1, 49, 127
2, 38039, Note_off_c, 1, 49, 127
2, 38039, Note_off_c, 12, 71, 127
2, 38041, Note_on_c, 11, 70, 127
2, 38041, Note_on_c, 6, 54, 127
2, 38230, Note_off_c, 4, 76, 127
2, 38239, Note_on_c, 1, 73, 127
2, 38434, Note_off_c, 1, 73, 127
2, 38437, Note_on_c, 12, 71, 127
2, 38632, Note_off_c, 12, 71, 127
2, 38635, Note_on_c, 1, 73, 127
2, 38823, Note_off_c, 11, 70, 127
2, 38830, Note_off_c, 1, 73, 127
2, 38832, Note_on_c, 10, 69, 127
2, 38832, Note_on_c, 3, 75, 127
2, 38832, Note_on_c, 12, 47, 127
2, 38850, Note_off_c, 6, 54, 127
2, 39027, Note_off_c, 3, 75, 127
2, 39030, Note_on_c, 12, 71, 127
2, 39225, Note_off_c, 12, 71, 127
2, 39228, Note_on_c, 1, 73, 127
2, 39423, Note_off_c, 1, 73, 127
2, 39426, Note_on_c, 3, 75, 127
2, 39614, Note_off_c, 10, 69, 127
2, 39620, Note_off_c, 12, 47, 127
2, 39624, Note_on_c, 8, 68, 127
2, 39624, Note_on_c, 4, 52, 127
2, 39819, Note_off_c, 4, 52, 127
2, 39821, Note_on_c, 3, 63, 127
2, 40016, Note_off_c, 3, 63, 127
2, 40019, Note_on_c, 1, 61, 127
2, 40214, Note_off_c, 1, 61, 127
2, 40217, Note_on_c, 3, 63, 127
2, 40412, Note_off_c, 3, 63, 127
2, 40414, Note_off_c, 3, 75, 127
2, 40415, Note_on_c, 1, 73, 127
2, 40415, Note_on_c, 4, 64, 127
2, 40610, Note_off_c, 4, 64, 127
2, 40612, Note_on_c, 1, 61, 127
2, 40807, Note_off_c, 1, 61, 127
2, 40808, Note_off_c, 1, 73, 127
2, 40810, Note_on_c, 12, 71, 127
2, 40810, Note_on_c, 3, 63, 127
2, 41005, Note_off_c, 3, 63, 127
2, 41008, Note_on_c, 4, 64, 127
2, 41203, Note_off_c, 4, 64, 127
2, 41203, Note_off_c, 12, 71, 127
2, 41206, Note_on_c, 11, 70, 127
2, 41206, Note_on_c, 6, 54, 127
2, 41401, Note_off_c, 6, 54, 127
2, 41403, Note_on_c, 8, 56, 127
2, 41598, Note_off_c, 8, 56, 127
2, 41601, Note_off_c, 8, 68, 127
2, 41601, Note_on_c, 6, 66, 127
2, 41601, Note_on_c, 4, 52, 127
2, 41796, Note_off_c, 4, 52, 127
2, 41799, Note_on_c, 6, 54, 127
2, 41988, Note_off_c, 11, 70, 127
2, 41994, Note_off_c, 6, 54, 127
2, 41994, Note_off_c, 6, 66, 127
2, 41997, Note_on_c, 4, 64, 127
2, 41997, Note_on_c, 12, 71, 127
2, 41997, Note_on_c, 8, 56, 127
2, 42192, Note_off_c, 8, 56, 127
2, 42194, Note_on_c, 4, 52, 127
2, 42389, Note_off_c, 4, 52, 127
2, 42390, Note_off_c, 4, 64, 127
2, 42392, Note_on_c, 3, 63, 127
2, 42392, Note_on_c, 6, 54, 127
2, 42587, Note_off_c, 6, 54, 127
2, 42590, Note_on_c, 8, 56, 127
2, 42785, Note_off_c, 8, 56, 127
2, 42785, Note_off_c, 3, 63, 127
2, 42788, Note_on_c, 4, 64, 127
2, 42788, Note_on_c, 1, 49, 127
2, 42983, Note_off_c, 4, 64, 127
2, 42985, Note_on_c, 3, 63, 127
2, 43180, Note_off_c, 3, 63, 127
2, 43183, Note_on_c, 1, 61, 127
2, 43378, Note_off_c, 1, 61, 127
2, 43381, Note_on_c, 3, 63, 127
2, 43576, Note_off_c, 3, 63, 127
2, 43576, Note_off_c, 1, 49, 127
2, 43577, Note_off_c, 12, 71, 127
2, 43579, Note_on_c, 11, 70, 127
2, 43579, Note_on_c, 4, 64, 127
2, 43579, Note_on_c, 6, 54, 127
2, 43774, Note_off_c, 4, 64, 127
2, 43776, Note_on_c, 1, 61, 127
2, 43971, Note_off_c, 1, 61, 127
2, 43974, Note_on_c, 3, 63, 127
2, 44169, Note_off_c, 3, 63, 127
2, 44172, Note_on_c, 4, 64, 127
2, 44361, Note_off_c, 11, 70, 127
2, 44375, Note_off_c, 4, 64, 127
2, 44378, Note_on_c, 3, 63, 127
2, 44378, Note_on_c, 12, 47, 127
2, 44390, Note_off_c, 6, 54, 127
2, 44576, Note_on_c, 10, 69, 127
2, 44771, Note_off_c, 10, 69, 127
2, 44773, Note_on_c, 12, 71, 127
2, 44968, Note_off_c, 12, 71, 127
2, 44971, Note_on_c, 10, 69, 127
2, 45160, Note_off_c, 3, 63, 127
2, 45166, Note_off_c, 10, 69, 127
2, 45169, Note_on_c, 4, 64, 127
2, 45169, Note_on_c, 8, 68, 127
2, 45364, Note_off_c, 8, 68, 127
2, 45367, Note_on_c, 12, 71, 127
2, 45562, Note_off_c, 12, 71, 127
2, 45564, Note_on_c, 10, 69, 127
2, 45759, Note_off_c, 10, 69, 127
2, 45762, Note_on_c, 8, 68, 127
2, 45957, Note_off_c, 8, 68, 127
2, 45960, Note_on_c, 6, 66, 127
2, 46155, Note_off_c, 12, 47, 127
2, 46158, Note_on_c, 1, 49, 127
2, 46353, Note_off_c, 1, 49, 127
2, 46355, Note_on_c, 3, 51, 127
2, 46550, Note_off_c, 3, 51, 127
2, 46553, Note_on_c, 4, 52, 127
2, 46748, Note_off_c, 4, 52, 127
2, 46749, Note_off_c, 4, 64, 127
2, 46751, Note_on_c, 3, 63, 127
2, 46751, Note_on_c, 6, 54, 127
2, 46946, Note_off_c, 6, 54, 127
2, 46949, Note_on_c, 10, 57, 127
2, 47144, Note_off_c, 10, 57, 127
2, 47144, Note_off_c, 3, 63, 127
2, 47146, Note_on_c, 1, 61, 127
2, 47146, Note_on_c, 8, 56, 127
2, 47341, Note_off_c, 8, 56, 127
2, 47344, Note_on_c, 6, 54, 127
2, 47537, Note_off_c, 1, 61, 127
2, 47539, Note_off_c, 6, 54, 127
2, 47542, Note_on_c, 12, 59, 127
2, 47542, Note_on_c, 8, 56, 127
2, 47731, Note_off_c, 6, 66, 127
2, 47748, Note_on_c, 6, 66, 127
2, 47943, Note_off_c, 6, 66, 127
2, 47945, Note_on_c, 8, 68, 127
2, 48140, Note_off_c, 8, 68, 127
2, 48143, Note_on_c, 6, 66, 127
2, 48338, Note_off_c, 6, 66, 127
2, 48341, Note_on_c, 5, 65, 127
2, 48536, Note_off_c, 5, 65, 127
2, 48539, Note_on_c, 8, 68, 127
2, 48734, Note_off_c, 8, 68, 127
2, 48736, Note_on_c, 6, 66, 127
2, 48931, Note_off_c, 6, 66, 127
2, 48934, Note_on_c, 5, 65, 127
2, 49132, Note_on_c, 12, 71, 127
2, 49327, Note_off_c, 12, 71, 127
2, 49330, Note_on_c, 1, 73, 127
2, 49525, Note_off_c, 1, 73, 127
2, 49528, Note_on_c, 12, 71, 127
2, 49723, Note_off_c, 12, 71, 127
2, 49725, Note_on_c, 1, 73, 127
2, 49920, Note_off_c, 1, 73, 127
2, 49923, Note_on_c, 2, 74, 127
2, 50118, Note_off_c, 2, 74, 127
2, 50121, Note_on_c, 12, 71, 127
2, 50316, Note_off_c, 12, 71, 127
2, 50319, Note_on_c, 1, 73, 127
2, 50514, Note_off_c, 1, 73, 127
2, 50516, Note_on_c, 2, 74, 127
2, 50634, Note_off_c, 5, 65, 127
2, 50704, Note_off_c, 8, 56, 127
2, 50704, Note_off_c, 12, 59, 127
2, 50711, Note_off_c, 2, 74, 127
2, 50714, Note_on_c, 11, 70, 127
2, 50714, Note_on_c, 6, 66, 127
2, 50714, Note_on_c, 6, 54, 127
2, 50916, Note_on_c, 4, 64, 127
2, 51113, Note_off_c, 6, 66, 127
2, 51115, Note_off_c, 4, 64, 127
2, 51118, Note_on_c, 6, 66, 127
2, 51317, Note_off_c, 6, 66, 127
2, 51320, Note_on_c, 4, 64, 127
2, 51519, Note_off_c, 4, 64, 127
2, 51519, Note_off_c, 11, 70, 127
2, 51522, Note_on_c, 12, 71, 127
2, 51522, Note_on_c, 8, 68, 127
2, 51522, Note_on_c, 3, 63, 127
2, 51721, Note_off_c, 3, 63, 127
2, 51723, Note_on_c, 6, 66, 127
2, 51922, Note_off_c, 6, 66, 127
2, 51925, Note_on_c, 4, 64, 127
2, 52124, Note_off_c, 4, 64, 127
2, 52127, Note_on_c, 3, 63, 127
2, 52327, Note_off_c, 8, 68, 127
2, 52327, Note_off_c, 12, 71, 127
2, 52329, Note_on_c, 11, 70, 127
2, 52329, Note_on_c, 1, 73, 127
2, 52357, Note_off_c, 3, 63, 127
2, 52529, Note_on_c, 1, 61, 127
2, 52728, Note_off_c, 1, 61, 127
2, 52731, Note_on_c, 3, 63, 127
2, 52930, Note_off_c, 3, 63, 127
2, 52933, Note_on_c, 1, 61, 127
2, 53132, Note_off_c, 1, 61, 127
2, 53132, Note_off_c, 1, 73, 127
2, 53132, Note_off_c, 11, 70, 127
2, 53135, Note_on_c, 12, 71, 127
2, 53135, Note_on_c, 3, 75, 127
2, 53135, Note_on_c, 12, 59, 127
2, 53334, Note_off_c, 12, 59, 127
2, 53336, Note_on_c, 3, 63, 127
2, 53535, Note_off_c, 3, 63, 127
2, 53538, Note_on_c, 1, 61, 127
2, 53737, Note_off_c, 1, 61, 127
2, 53740, Note_on_c, 12, 59, 127
2, 53939, Note_off_c, 12, 59, 127
2, 53940, Note_off_c, 3, 75, 127
2, 53940, Note_off_c, 12, 71, 127
2, 53942, Note_on_c, 1, 73, 127
2, 53942, Note_on_c, 11, 58, 127
2, 54141, Note_off_c, 6, 54, 127
2, 54146, Note_on_c, 4, 76, 127
2, 54146, Note_on_c, 6, 54, 127
2, 54347, Note_off_c, 6, 54, 127
2, 54347, Note_off_c, 4, 76, 127
2, 54350, Note_on_c, 6, 78, 127
2, 54350, Note_on_c, 4, 52, 127
2, 54551, Note_off_c, 4, 52, 127
2, 54551, Note_off_c, 6, 78, 127
2, 54554, Note_on_c, 4, 76, 127
2, 54554, Note_on_c, 6, 54, 127
2, 54749, Note_off_c, 11, 58, 127
2, 54749, Note_off_c, 1, 73, 127
2, 54755, Note_off_c, 6, 54, 127
2, 54755, Note_off_c, 4, 76, 127
2, 54758, Note_on_c, 3, 75, 127
2, 54758, Note_on_c, 12, 71, 127
2, 54758, Note_on_c, 12, 59, 127
2, 54758, Note_on_c, 8, 56, 127
2, 54959, Note_off_c, 8, 56, 127
2, 54959, Note_off_c, 3, 75, 127
2, 54962, Note_on_c, 6, 78, 127
2, 54962, Note_on_c, 4, 52, 127
2, 55163, Note_off_c, 4, 52, 127
2, 55163, Note_off_c, 6, 78, 127
2, 55166, Note_on_c, 4, 76, 127
2, 55166, Note_on_c, 6, 54, 127
2, 55367, Note_off_c, 6, 54, 127
2, 55367, Note_off_c, 4, 76, 127
2, 55370, Note_on_c, 3, 75, 127
2, 55370, Note_on_c, 8, 56, 127
2, 55565, Note_off_c, 12, 59, 127
2, 55565, Note_off_c, 12, 71, 127
2, 55571, Note_off_c, 8, 56, 127
2, 55571, Note_off_c, 3, 75, 127
2, 55574, Note_on_c, 1, 73, 127
2, 55574, Note_on_c, 6, 54, 127
2, 55574, Note_on_c, 11, 46, 127
2, 55782, Note_on_c, 4, 64, 127
2, 55988, Note_off_c, 4, 64, 127
2, 55990, Note_on_c, 6, 66, 127
2, 56196, Note_off_c, 6, 66, 127
2, 56198, Note_on_c, 4, 64, 127
2, 56398, Note_off_c, 1, 73, 127
2, 56404, Note_off_c, 4, 64, 127
2, 56404, Note_off_c, 11, 46, 127
2, 56406, Note_on_c, 12, 71, 127
2, 56406, Note_on_c, 3, 63, 127
2, 56406, Note_on_c, 12, 47, 127
2, 56612, Note_off_c, 3, 63, 127
2, 56614, Note_on_c, 6, 66, 127
2, 56820, Note_off_c, 6, 66, 127
2, 56822, Note_on_c, 4, 64, 127
2, 57028, Note_off_c, 4, 64, 127
2, 57030, Note_on_c, 3, 63, 127
2, 57236, Note_off_c, 3, 63, 127
2, 57236, Note_off_c, 12, 47, 127
2, 57238, Note_on_c, 1, 61, 127
2, 57238, Note_on_c, 6, 42, 127
2, 57446, Note_off_c, 6, 54, 127
2, 57454, Note_on_c, 3, 51, 127
2, 57668, Note_off_c, 3, 51, 127
2, 57671, Note_on_c, 1, 49, 127
2, 57885, Note_off_c, 1, 49, 127
2, 57887, Note_on_c, 3, 51, 127
2, 58101, Note_off_c, 3, 51, 127
2, 58101, Note_off_c, 12, 71, 127
2, 58103, Note_on_c, 6, 66, 127
2, 58103, Note_on_c, 11, 70, 127
2, 58103, Note_on_c, 4, 52, 127
2, 58317, Note_off_c, 4, 52, 127
2, 58320, Note_on_c, 1, 49, 127
2, 58534, Note_off_c, 1, 49, 127
2, 58536, Note_on_c, 3, 51, 127
2, 58760, Note_off_c, 3, 51, 127
2, 58762, Note_on_c, 4, 52, 127
2, 58997, Note_off_c, 6, 42, 127
2, 58997, Note_off_c, 1, 61, 127
2, 59000, Note_off_c, 4, 52, 127
2, 59003, Note_off_c, 11, 70, 127
2, 59003, Note_off_c, 6, 66, 127
2, 59006, Note_on_c, 3, 51, 127
2, 59006, Note_on_c, 12, 47, 127
2, 59006, Note_on_c, 6, 66, 127
2, 59006, Note_on_c, 12, 59, 127
2, 59006, Note_on_c, 12, 71, 127
2, 61006, Note_off_c, 12, 71, 127
2, 61006, Note_off_c, 12, 59, 127
2, 61006, Note_off_c, 6, 66, 127
2, 61006, Note_off_c, 12, 47, 127
2, 61006, Note_off_c, 3, 51, 127
2, 61219, Note_on_c, 12, 59, 127
2, 61606, Note_off_c, 12, 59, 127
2, 61609, Note_on_c, 11, 58, 127
2, 61996, Note_off_c, 11, 58, 127
2, 61998, Note_on_c, 12, 59, 127
2, 62385, Note_off_c, 12, 59, 127
2, 62387, Note_on_c, 1, 61, 127
2, 63161, Note_off_c, 1, 61, 127
2, 63164, Note_on_c, 6, 54, 127
2, 63528, Note_off_c, 6, 54, 127
2, 63553, Note_on_c, 8, 56, 127
2, 63744, Note_off_c, 8, 56, 127
2, 63747, Note_on_c, 11, 58, 127
2, 63938, Note_off_c, 11, 58, 127
2, 63940, Note_on_c, 12, 59, 127
2, 64304, Note_off_c, 12, 59, 127
2, 64330, Note_on_c, 1, 61, 127
2, 64521, Note_off_c, 1, 61, 127
2, 64523, Note_on_c, 3, 63, 127
2, 64714, Note_off_c, 3, 63, 127
2, 64717, Note_on_c, 4, 64, 127
2, 65091, Note_off_c, 4, 64, 127
2, 65106, Note_on_c, 3, 63, 127
2, 65450, Note_off_c, 3, 63, 127
2, 65496, Note_on_c, 3, 63, 127
2, 65590, Note_off_c, 3, 63, 127
2, 65593, Note_on_c, 1, 61, 127
2, 65687, Note_off_c, 1, 61, 127
2, 65689, Note_on_c, 3, 63, 127
2, 65783, Note_off_c, 3, 63, 127
2, 65786, Note_on_c, 1, 61, 127
2, 65880, Note_off_c, 1, 61, 127
2, 65883, Note_on_c, 3, 63, 127
2, 65977, Note_off_c, 3, 63, 127
2, 65980, Note_on_c, 1, 61, 127
2, 66074, Note_off_c, 1, 61, 127
2, 66077, Note_on_c, 3, 63, 127
2, 66171, Note_off_c, 3, 63, 127
2, 66173, Note_on_c, 1, 61, 127
2, 66267, Note_off_c, 1, 61, 127
2, 66270, Note_on_c, 3, 63, 127
2, 66364, Note_off_c, 3, 63, 127
2, 66367, Note_on_c, 1, 61, 127
2, 66461, Note_off_c, 1, 61, 127
2, 66464, Note_on_c, 3, 63, 127
2, 66558, Note_off_c, 3, 63, 127
2, 66561, Note_on_c, 1, 61, 127
2, 66655, Note_off_c, 1, 61, 127
2, 66658, Note_on_c, 3, 63, 127
2, 66752, Note_off_c, 3, 63, 127
2, 66754, Note_on_c, 1, 61, 127
2, 66848, Note_off_c, 1, 61, 127
2, 66851, Note_on_c, 3, 63, 127
2, 66945, Note_off_c, 3, 63, 127
2, 66948, Note_on_c, 1, 61, 127
2, 67042, Note_off_c, 1, 61, 127
2, 67045, Note_on_c, 12, 59, 127
2, 67434, Note_on_c, 6, 66, 127
2, 67821, Note_off_c, 6, 66, 127
2, 67824, Note_on_c, 3, 63, 127
2, 68210, Note_off_c, 12, 59, 127
2, 68211, Note_off_c, 3, 63, 127
2, 68213, Note_on_c, 4, 64, 127
2, 68213, Note_on_c, 1, 61, 127
2, 68404, Note_off_c, 1, 61, 127
2, 68407, Note_on_c, 12, 59, 127
2, 68598, Note_off_c, 12, 59, 127
2, 68598, Note_off_c, 4, 64, 127
2, 68600, Note_on_c, 6, 66, 127
2, 68600, Note_on_c, 11, 58, 127
2, 68791, Note_off_c, 11, 58, 127
2, 68794, Note_on_c, 8, 56, 127
2, 68985, Note_off_c, 8, 56, 127
2, 68987, Note_on_c, 6, 54, 127
2, 69178, Note_off_c, 6, 54, 127
2, 69181, Note_on_c, 4, 52, 127
2, 69372, Note_off_c, 4, 52, 127
2, 69372, Note_off_c, 6, 66, 127
2, 69375, Note_on_c, 12, 59, 127
2, 69375, Note_on_c, 3, 51, 127
2, 69739, Note_off_c, 12, 59, 127
2, 69762, Note_off_c, 3, 51, 127
2, 69764, Note_on_c, 3, 63, 127
2, 69764, Note_on_c, 12, 59, 127
2, 69955, Note_off_c, 3, 63, 127
2, 69958, Note_on_c, 5, 65, 127
2, 70149, Note_off_c, 5, 65, 127
2, 70149, Note_off_c, 12, 59, 127
2, 70151, Note_on_c, 6, 66, 127
2, 70151, Note_on_c, 11, 58, 127
2, 70515, Note_off_c, 6, 66, 127
2, 70538, Note_off_c, 11, 58, 127
2, 70541, Note_on_c, 8, 68, 127
2, 70541, Note_on_c, 12, 59, 127
2, 70732, Note_off_c, 12, 59, 127
2, 70732, Note_off_c, 8, 68, 127
2, 70734, Note_on_c, 11, 70, 127
2, 70734, Note_on_c, 1, 61, 127
2, 70925, Note_off_c, 1, 61, 127
2, 70925, Note_off_c, 11, 70, 127
2, 70928, Note_on_c, 12, 71, 127
2, 70928, Note_on_c, 3, 63, 127
2, 71119, Note_off_c, 3, 63, 127
2, 71122, Note_on_c, 5, 65, 127
2, 71313, Note_off_c, 5, 65, 127
2, 71313, Note_off_c, 12, 71, 127
2, 71315, Note_on_c, 11, 70, 127
2, 71315, Note_on_c, 6, 66, 127
2, 71638, Note_off_c, 11, 70, 127
2, 71703, Note_on_c, 11, 70, 127
2, 71797, Note_off_c, 11, 70, 127
2, 71799, Note_on_c, 8, 68, 127
2, 71893, Note_off_c, 8, 68, 127
2, 71896, Note_on_c, 11, 70, 127
2, 71990, Note_off_c, 11, 70, 127
2, 71993, Note_on_c, 8, 68, 127
2, 72087, Note_off_c, 8, 68, 127
2, 72087, Note_off_c, 6, 66, 127
2, 72090, Note_on_c, 11, 70, 127
2, 72090, Note_on_c, 4, 64, 127
2, 72184, Note_off_c, 11, 70, 127
2, 72187, Note_on_c, 8, 68, 127
2, 72281, Note_off_c, 8, 68, 127
2, 72281, Note_off_c, 4, 64, 127
2, 72283, Note_on_c, 11, 70, 127
2, 72283, Note_on_c, 3, 63, 127
2, 72377, Note_off_c, 11, 70, 127
2, 72380, Note_on_c, 8, 68, 127
2, 72474, Note_off_c, 8, 68, 127
2, 72474, Note_off_c, 3, 63, 127
2, 72477, Note_on_c, 11, 70, 127
2, 72477, Note_on_c, 4, 64, 127
2, 72571, Note_off_c, 11, 70, 127
2, 72574, Note_on_c, 8, 68, 127
2, 72664, Note_off_c, 4, 64, 127
2, 72668, Note_off_c, 8, 68, 127
2, 72671, Note_on_c, 11, 70, 127
2, 72671, Note_on_c, 12, 59, 127
2, 72765, Note_off_c, 11, 70, 127
2, 72768, Note_on_c, 8, 68, 127
2, 72858, Note_off_c, 12, 59, 127
2, 72862, Note_off_c, 8, 68, 127
2, 72864, Note_on_c, 11, 70, 127
2, 72864, Note_on_c, 4, 64, 127
2, 72958, Note_off_c, 11, 70, 127
2, 72961, Note_on_c, 8, 68, 127
2, 73055, Note_off_c, 8, 68, 127
2, 73058, Note_on_c, 11, 70, 127
2, 73152, Note_off_c, 11, 70, 127
2, 73155, Note_on_c, 8, 68, 127
2, 73249, Note_off_c, 8, 68, 127
2, 73252, Note_on_c, 6, 66, 127
2, 73638, Note_off_c, 4, 64, 127
2, 73641, Note_on_c, 12, 71, 127
2, 73641, Note_on_c, 3, 63, 127
2, 74028, Note_off_c, 3, 63, 127
2, 74028, Note_off_c, 12, 71, 127
2, 74030, Note_on_c, 11, 70, 127
2, 74030, Note_on_c, 1, 61, 127
2, 74417, Note_off_c, 1, 61, 127
2, 74417, Note_off_c, 11, 70, 127
2, 74417, Note_off_c, 6, 66, 127
2, 74420, Note_on_c, 12, 71, 127
2, 74420, Note_on_c, 8, 68, 127
2, 74420, Note_on_c, 12, 59, 127
2, 74611, Note_off_c, 8, 68, 127
2, 74613, Note_on_c, 6, 66, 127
2, 74804, Note_off_c, 6, 66, 127
2, 74805, Note_off_c, 12, 71, 127
2, 74807, Note_on_c, 1, 73, 127
2, 74807, Note_on_c, 4, 64, 127
2, 74998, Note_off_c, 4, 64, 127
2, 75001, Note_on_c, 3, 63, 127
2, 75192, Note_off_c, 3, 63, 127
2, 75192, Note_off_c, 12, 59, 127
2, 75194, Note_on_c, 1, 61, 127
2, 75194, Note_on_c, 11, 58, 127
2, 75385, Note_off_c, 11, 58, 127
2, 75385, Note_off_c, 1, 61, 127
2, 75388, Note_on_c, 12, 59, 127
2, 75388, Note_on_c, 8, 56, 127
2, 75579, Note_off_c, 8, 56, 127
2, 75579, Note_off_c, 12, 59, 127
2, 75579, Note_off_c, 1, 73, 127
2, 75582, Note_on_c, 6, 66, 127
2, 75582, Note_on_c, 11, 58, 127
2, 75946, Note_off_c, 6, 66, 127
2, 75969, Note_off_c, 11, 58, 127
2, 75971, Note_on_c, 8, 68, 127
2, 75971, Note_on_c, 6, 66, 127
2, 75971, Note_on_c, 3, 63, 127
2, 76162, Note_off_c, 8, 68, 127
2, 76164, Note_on_c, 11, 70, 127
2, 76355, Note_off_c, 11, 70, 127
2, 76356, Note_off_c, 3, 63, 127
2, 76356, Note_off_c, 6, 66, 127
2, 76358, Note_on_c, 12, 71, 127
2, 76358, Note_on_c, 3, 63, 127
2, 76358, Note_on_c, 8, 56, 127
2, 76722, Note_off_c, 12, 71, 127
2, 76745, Note_off_c, 3, 63, 127
2, 76747, Note_on_c, 1, 73, 127
2, 76747, Note_on_c, 4, 64, 127
2, 76938, Note_off_c, 4, 64, 127
2, 76938, Note_off_c, 1, 73, 127
2, 76941, Note_on_c, 3, 75, 127
2, 76941, Note_on_c, 6, 66, 127
2, 77126, Note_off_c, 8, 56, 127
2, 77132, Note_off_c, 6, 66, 127
2, 77132, Note_off_c, 3, 75, 127
2, 77135, Note_on_c, 4, 76, 127
2, 77135, Note_on_c, 8, 68, 127
2, 77326, Note_off_c, 8, 68, 127
2, 77328, Note_on_c, 11, 70, 127
2, 77519, Note_off_c, 11, 70, 127
2, 77520, Note_off_c, 4, 76, 127
2, 77522, Note_on_c, 3, 75, 127
2, 77522, Note_on_c, 12, 71, 127
2, 77522, Note_on_c, 8, 68, 127
2, 77713, Note_off_c, 8, 68, 127
2, 77716, Note_on_c, 6, 66, 127
2, 77845, Note_off_c, 3, 75, 127
2, 77907, Note_off_c, 6, 66, 127
2, 77909, Note_on_c, 3, 75, 127
2, 77909, Note_on_c, 4, 64, 127
2, 78141, Note_off_c, 3, 75, 127
2, 78144, Note_on_c, 1, 73, 127
2, 78220, Note_on_c, 3, 75, 127
2, 78238, Note_off_c, 1, 73, 127
2, 78296, Note_off_c, 4, 64, 127
2, 78296, Note_off_c, 12, 71, 127
2, 78299, Note_on_c, 1, 73, 127
2, 78299, Note_on_c, 11, 70, 127
2, 78299, Note_on_c, 1, 61, 127
2, 78316, Note_off_c, 3, 75, 127
2, 78375, Note_on_c, 3, 75, 127
2, 78393, Note_off_c, 1, 73, 127
2, 78451, Note_on_c, 1, 73, 127
2, 78469, Note_off_c, 3, 75, 127
2, 78490, Note_off_c, 11, 70, 127
2, 78492, Note_on_c, 8, 68, 127
2, 78529, Note_on_c, 3, 75, 127
2, 78547, Note_off_c, 1, 73, 127
2, 78606, Note_on_c, 1, 73, 127
2, 78623, Note_off_c, 3, 75, 127
2, 78682, Note_on_c, 3, 75, 127
2, 78684, Note_off_c, 1, 61, 127
2, 78685, Note_off_c, 8, 68, 127
2, 78688, Note_on_c, 11, 70, 127
2, 78702, Note_off_c, 1, 73, 127
2, 78758, Note_on_c, 1, 73, 127
2, 78778, Note_off_c, 3, 75, 127
2, 78834, Note_on_c, 3, 75, 127
2, 78854, Note_off_c, 1, 73, 127
2, 78883, Note_off_c, 11, 70, 127
2, 78886, Note_on_c, 12, 71, 127
2, 78910, Note_on_c, 1, 73, 127
2, 78930, Note_off_c, 3, 75, 127
2, 79079, Note_off_c, 12, 71, 127
2, 79081, Note_on_c, 11, 70, 127
2, 79081, Note_on_c, 6, 66, 127
2, 79272, Note_off_c, 6, 66, 127
2, 79272, Note_off_c, 11, 70, 127
2, 79275, Note_on_c, 8, 68, 127
2, 79275, Note_on_c, 4, 64, 127
2, 79466, Note_off_c, 4, 64, 127
2, 79466, Note_off_c, 8, 68, 127
2, 79469, Note_on_c, 6, 66, 127
2, 79469, Note_on_c, 3, 63, 127
2, 79719, Note_off_c, 1, 73, 127
2, 79856, Note_off_c, 3, 63, 127
2, 79858, Note_on_c, 12, 71, 127
2, 79858, Note_on_c, 1, 61, 127
2, 79858, Note_on_c, 6, 54, 127
2, 80049, Note_off_c, 12, 71, 127
2, 80052, Note_on_c, 11, 70, 127
2, 80243, Note_off_c, 11, 70, 127
2, 80243, Note_off_c, 6, 54, 127
2, 80243, Note_off_c, 1, 61, 127
2, 80245, Note_on_c, 12, 71, 127
2, 80245, Note_on_c, 12, 59, 127
2, 80245, Note_on_c, 3, 51, 127
2, 80632, Note_off_c, 3, 51, 127
2, 80632, Note_off_c, 12, 59, 127
2, 80632, Note_off_c, 12, 71, 127
2, 80632, Note_off_c, 6, 66, 127
2, 80635, Note_on_c, 1, 73, 127
2, 80635, Note_on_c, 4, 64, 127
2, 80635, Note_on_c, 8, 56, 127
2, 80635, Note_on_c, 4, 52, 127
2, 80826, Note_off_c, 1, 73, 127
2, 80828, Note_on_c, 12, 71, 127
2, 81019, Note_off_c, 12, 71, 127
2, 81020, Note_off_c, 4, 52, 127
2, 81020, Note_off_c, 8, 56, 127
2, 81022, Note_on_c, 11, 70, 127
2, 81022, Note_on_c, 6, 54, 127
2, 81213, Note_off_c, 11, 70, 127
2, 81216, Note_on_c, 8, 68, 127
2, 81407, Note_off_c, 8, 68, 127
2, 81407, Note_off_c, 4, 64, 127
2, 81409, Note_on_c, 6, 66, 127
2, 81409, Note_on_c, 3, 63, 127
2, 81600, Note_off_c, 3, 63, 127
2, 81600, Note_off_c, 6, 66, 127
2, 81603, Note_on_c, 4, 64, 127
2, 81603, Note_on_c, 1, 61, 127
2, 81794, Note_off_c, 1, 61, 127
2, 81794, Note_off_c, 4, 64, 127
2, 81794, Note_off_c, 6, 54, 127
2, 81797, Note_on_c, 3, 63, 127
2, 81797, Note_on_c, 12, 47, 127
2, 81990, Note_on_c, 4, 64, 127
2, 82169, Note_off_c, 12, 47, 127
2, 82181, Note_off_c, 4, 64, 127
2, 82182, Note_off_c, 3, 63, 127
2, 82184, Note_on_c, 12, 71, 127
2, 82184, Note_on_c, 6, 66, 127
2, 82184, Note_on_c, 3, 51, 127
2, 82375, Note_off_c, 3, 51, 127
2, 82375, Note_off_c, 6, 66, 127
2, 82377, Note_on_c, 8, 68, 127
2, 82377, Note_on_c, 5, 53, 127
2, 82568, Note_off_c, 5, 53, 127
2, 82568, Note_off_c, 8, 68, 127
2, 82569, Note_off_c, 12, 71, 127
2, 82571, Note_on_c, 11, 70, 127
2, 82571, Note_on_c, 1, 61, 127
2, 82571, Note_on_c, 6, 54, 127
2, 82945, Note_off_c, 6, 54, 127
2, 82958, Note_off_c, 11, 70, 127
2, 82960, Note_on_c, 12, 71, 127
2, 82960, Note_on_c, 8, 56, 127
2, 83151, Note_off_c, 8, 56, 127
2, 83151, Note_off_c, 12, 71, 127
2, 83154, Note_on_c, 1, 73, 127
2, 83154, Note_on_c, 11, 58, 127
2, 83339, Note_off_c, 1, 61, 127
2, 83345, Note_off_c, 11, 58, 127
2, 83345, Note_off_c, 1, 73, 127
2, 83348, Note_on_c, 3, 75, 127
2, 83348, Note_on_c, 12, 59, 127
2, 83539, Note_off_c, 3, 75, 127
2, 83541, Note_on_c, 5, 77, 127
2, 83732, Note_off_c, 5, 77, 127
2, 83733, Note_off_c, 12, 59, 127
2, 83735, Note_on_c, 6, 78, 127
2, 83735, Note_on_c, 3, 75, 127
2, 83735, Note_on_c, 11, 58, 127
2, 83926, Note_off_c, 3, 75, 127
2, 83929, Note_on_c, 1, 73, 127
2, 84099, Note_off_c, 11, 58, 127
2, 84122, Note_off_c, 1, 73, 127
2, 84124, Note_on_c, 12, 71, 127
2, 84124, Note_on_c, 8, 56, 127
2, 84511, Note_off_c, 12, 71, 127
2, 84511, Note_off_c, 6, 78, 127
2, 84514, Note_on_c, 5, 77, 127
2, 84514, Note_on_c, 8, 68, 127
2, 84705, Note_off_c, 5, 77, 127
2, 84707, Note_on_c, 3, 75, 127
2, 84897, Note_off_c, 8, 68, 127
2, 84898, Note_off_c, 3, 75, 127
2, 84901, Note_on_c, 5, 77, 127
2, 85095, Note_on_c, 3, 75, 127
2, 85286, Note_off_c, 3, 75, 127
2, 85288, Note_on_c, 1, 73, 127
2, 85479, Note_off_c, 1, 73, 127
2, 85482, Note_on_c, 12, 71, 127
2, 85673, Note_off_c, 12, 71, 127
2, 85673, Note_off_c, 5, 77, 127
2, 85673, Note_off_c, 8, 56, 127
2, 85676, Note_on_c, 6, 54, 127
2, 85676, Note_on_c, 6, 78, 127
2, 85676, Note_on_c, 11, 70, 127
2, 86063, Note_off_c, 6, 78, 127
2, 86065, Note_on_c, 1, 73, 127
2, 86242, Note_off_c, 6, 54, 127
2, 86256, Note_off_c, 1, 73, 127
2, 86258, Note_on_c, 12, 71, 127
2, 86444, Note_off_c, 11, 70, 127
2, 86449, Note_off_c, 12, 71, 127
2, 86452, Note_on_c, 1, 73, 127
2, 86646, Note_on_c, 8, 68, 127
2, 86837, Note_off_c, 8, 68, 127
2, 86837, Note_off_c, 1, 73, 127
2, 86839, Note_on_c, 3, 75, 127
2, 86839, Note_on_c, 6, 66, 127
2, 87030, Note_off_c, 6, 66, 127
2, 87033, Note_on_c, 4, 64, 127
2, 87224, Note_off_c, 4, 64, 127
2, 87224, Note_off_c, 3, 75, 127
2, 87227, Note_on_c, 0, 72, 127
2, 87227, Note_on_c, 3, 63, 127
2, 87616, Note_on_c, 8, 56, 127
2, 87807, Note_off_c, 8, 56, 127
2, 87810, Note_on_c, 10, 57, 127
2, 88001, Note_off_c, 10, 57, 127
2, 88001, Note_off_c, 3, 63, 127
2, 88001, Note_off_c, 0, 72, 127
2, 88003, Note_on_c, 1, 73, 127
2, 88003, Note_on_c, 4, 64, 127
2, 88003, Note_on_c, 8, 56, 127
2, 88194, Note_off_c, 8, 56, 127
2, 88197, Note_on_c, 6, 54, 127
2, 88388, Note_off_c, 6, 54, 127
2, 88388, Note_off_c, 4, 64, 127
2, 88388, Note_off_c, 1, 73, 127
2, 88391, Note_on_c, 3, 75, 127
2, 88391, Note_on_c, 6, 66, 127
2, 88391, Note_on_c, 4, 52, 127
2, 88582, Note_off_c, 4, 52, 127
2, 88584, Note_on_c, 3, 51, 127
2, 88775, Note_off_c, 3, 51, 127
2, 88776, Note_off_c, 6, 66, 127
2, 88776, Note_off_c, 3, 75, 127
2, 88778, Note_on_c, 4, 76, 127
2, 88778, Note_on_c, 8, 68, 127
2, 88778, Note_on_c, 1, 49, 127
2, 88969, Note_off_c, 4, 76, 127
2, 88972, Note_on_c, 3, 75, 127
2, 89163, Note_off_c, 3, 75, 127
2, 89163, Note_off_c, 1, 49, 127
2, 89165, Note_on_c, 4, 76, 127
2, 89165, Note_on_c, 1, 61, 127
2, 89356, Note_off_c, 4, 76, 127
2, 89359, Note_on_c, 6, 78, 127
2, 89550, Note_off_c, 6, 78, 127
2, 89550, Note_off_c, 1, 61, 127
2, 89552, Note_on_c, 4, 76, 127
2, 89552, Note_on_c, 3, 63, 127
2, 89743, Note_off_c, 4, 76, 127
2, 89746, Note_on_c, 3, 75, 127
2, 89937, Note_off_c, 3, 75, 127
2, 89937, Note_off_c, 3, 63, 127
2, 89940, Note_on_c, 1, 73, 127
2, 89940, Note_on_c, 4, 64, 127
2, 90131, Note_off_c, 1, 73, 127
2, 90133, Note_on_c, 12, 71, 127
2, 90324, Note_off_c, 12, 71, 127
2, 90325, Note_off_c, 4, 64, 127
2, 90325, Note_off_c, 8, 68, 127
2, 90327, Note_on_c, 11, 70, 127
2, 90327, Note_on_c, 6, 66, 127
2, 90714, Note_off_c, 6, 66, 127
2, 90716, Note_on_c, 1, 61, 127
2, 90716, Note_on_c, 6, 54, 127
2, 90907, Note_off_c, 6, 54, 127
2, 90910, Note_on_c, 8, 56, 127
2, 91101, Note_off_c, 8, 56, 127
2, 91101, Note_off_c, 1, 61, 127
2, 91101, Note_off_c, 11, 70, 127
2, 91104, Note_on_c, 12, 71, 127
2, 91104, Note_on_c, 3, 63, 127
2, 91104, Note_on_c, 6, 54, 127
2, 91295, Note_off_c, 6, 54, 127
2, 91297, Note_on_c, 4, 52, 127
2, 91488, Note_off_c, 4, 52, 127
2, 91489, Note_off_c, 3, 63, 127
2, 91489, Note_off_c, 12, 71, 127
2, 91491, Note_on_c, 1, 73, 127
2, 91491, Note_on_c, 4, 64, 127
2, 91491, Note_on_c, 3, 51, 127
2, 91682, Note_off_c, 3, 51, 127
2, 91685, Note_on_c, 1, 49, 127
2, 91876, Note_off_c, 1, 49, 127
2, 91876, Note_off_c, 4, 64, 127
2, 91876, Note_off_c, 1, 73, 127
2, 91878, Note_on_c, 3, 75, 127
2, 91878, Note_on_c, 6, 66, 127
2, 91878, Note_on_c, 12, 47, 127
2, 92069, Note_off_c, 12, 47, 127
2, 92072, Note_on_c, 10, 45, 127
2, 92263, Note_off_c, 10, 45, 127
2, 92263, Note_off_c, 6, 66, 127
2, 92263, Note_off_c, 3, 75, 127
2, 92265, Note_on_c, 3, 75, 127
2, 92265, Note_on_c, 12, 71, 127
2, 92265, Note_on_c, 12, 47, 127
2, 92456, Note_off_c, 12, 47, 127
2, 92459, Note_on_c, 1, 49, 127
2, 92650, Note_off_c, 1, 49, 127
2, 92650, Note_off_c, 12, 71, 127
2, 92650, Note_off_c, 3, 75, 127
2, 92653, Note_on_c, 4, 76, 127
2, 92653, Note_on_c, 1, 73, 127
2, 92653, Note_on_c, 12, 47, 127
2, 92844, Note_off_c, 12, 47, 127
2, 92846, Note_on_c, 10, 45, 127
2, 93037, Note_off_c, 10, 45, 127
2, 93038, Note_off_c, 1, 73, 127
2, 93038, Note_off_c, 4, 76, 127
2, 93040, Note_on_c, 6, 78, 127
2, 93040, Note_on_c, 3, 75, 127
2, 93040, Note_on_c, 8, 44, 127
2, 93231, Note_off_c, 8, 44, 127
2, 93234, Note_on_c, 6, 42, 127
2, 93425, Note_off_c, 6, 42, 127
2, 93425, Note_off_c, 3, 75, 127
2, 93425, Note_off_c, 6, 78, 127
2, 93427, Note_on_c, 8, 80, 127
2, 93427, Note_on_c, 4, 76, 127
2, 93427, Note_on_c, 4, 40, 127
2, 93618, Note_off_c, 8, 80, 127
2, 93621, Note_on_c, 10, 81, 127
2, 93791, Note_off_c, 4, 40, 127
2, 93814, Note_off_c, 10, 81, 127
2, 93817, Note_on_c, 8, 80, 127
2, 93817, Note_on_c, 12, 59, 127
2, 93993, Note_off_c, 4, 76, 127
2, 94008, Note_off_c, 8, 80, 127
2, 94010, Note_on_c, 6, 78, 127
2, 94201, Note_off_c, 6, 78, 127
2, 94202, Note_off_c, 12, 59, 127
2, 94204, Note_on_c, 4, 76, 127
2, 94204, Note_on_c, 11, 58, 127
2, 94395, Note_off_c, 4, 76, 127
2, 94398, Note_on_c, 3, 75, 127
2, 94589, Note_off_c, 3, 75, 127
2, 94589, Note_off_c, 11, 58, 127
2, 94591, Note_on_c, 1, 73, 127
2, 94591, Note_on_c, 12, 59, 127
2, 94782, Note_off_c, 1, 73, 127
2, 94785, Note_on_c, 12, 71, 127
2, 94976, Note_off_c, 12, 71, 127
2, 94976, Note_off_c, 12, 59, 127
2, 94978, Note_on_c, 11, 70, 127
2, 94978, Note_on_c, 1, 61, 127
2, 95365, Note_off_c, 11, 70, 127
2, 95368, Note_on_c, 12, 71, 127
2, 95368, Note_on_c, 4, 52, 127
2, 95559, Note_off_c, 12, 71, 127
2, 95561, Note_on_c, 1, 73, 127
2, 95752, Note_off_c, 1, 73, 127
2, 95752, Note_off_c, 1, 61, 127
2, 95753, Note_off_c, 4, 52, 127
2, 95755, Note_on_c, 3, 75, 127
2, 95755, Note_on_c, 6, 54, 127
2, 95755, Note_on_c, 3, 51, 127
2, 96142, Note_off_c, 3, 51, 127
2, 96142, Note_off_c, 6, 54, 127
2, 96142, Note_off_c, 3, 75, 127
2, 96144, Note_on_c, 1, 73, 127
2, 96144, Note_on_c, 6, 66, 127
2, 96144, Note_on_c, 8, 56, 127
2, 96144, Note_on_c, 4, 52, 127
2, 96335, Note_off_c, 4, 52, 127
2, 96335, Note_off_c, 8, 56, 127
2, 96338, Note_on_c, 11, 58, 127
2, 96338, Note_on_c, 6, 54, 127
2, 96529, Note_off_c, 6, 54, 127
2, 96529, Note_off_c, 11, 58, 127
2, 96529, Note_off_c, 6, 66, 127
2, 96529, Note_off_c, 1, 73, 127
2, 96532, Note_on_c, 12, 71, 127
2, 96532, Note_on_c, 3, 63, 127
2, 96532, Note_on_c, 12, 59, 127
2, 96532, Note_on_c, 8, 56, 127
2, 96919, Note_off_c, 12, 59, 127
2, 96919, Note_off_c, 3, 63, 127
2, 96921, Note_on_c, 4, 64, 127
2, 96921, Note_on_c, 1, 61, 127
2, 97112, Note_off_c, 1, 61, 127
2, 97112, Note_off_c, 4, 64, 127
2, 97115, Note_on_c, 6, 66, 127
2, 97115, Note_on_c, 3, 63, 127
2, 97306, Note_off_c, 3, 63, 127
2, 97306, Note_off_c, 6, 66, 127
2, 97308, Note_on_c, 8, 68, 127
2, 97308, Note_on_c, 4, 64, 127
2, 97499, Note_off_c, 8, 68, 127
2, 97500, Note_off_c, 12, 71, 127
2, 97502, Note_on_c, 1, 73, 127
2, 97502, Note_on_c, 11, 70, 127
2, 97693, Note_off_c, 11, 70, 127
2, 97693, Note_off_c, 1, 73, 127
2, 97693, Note_off_c, 4, 64, 127
2, 97693, Note_off_c, 8, 56, 127
2, 97696, Note_on_c, 3, 75, 127
2, 97696, Note_on_c, 12, 71, 127
2, 97696, Note_on_c, 3, 63, 127
2, 97696, Note_on_c, 6, 54, 127
2, 98083, Note_off_c, 6, 54, 127
2, 98083, Note_off_c, 3, 63, 127
2, 98083, Note_off_c, 3, 75, 127
2, 98085, Note_on_c, 4, 76, 127
2, 98085, Note_on_c, 1, 61, 127
2, 98085, Note_on_c, 4, 52, 127
2, 98276, Note_off_c, 4, 76, 127
2, 98279, Note_on_c, 6, 78, 127
2, 98470, Note_off_c, 6, 78, 127
2, 98470, Note_off_c, 12, 71, 127
2, 98472, Note_on_c, 8, 80, 127
2, 98472, Note_on_c, 11, 70, 127
2, 98663, Note_off_c, 11, 70, 127
2, 98666, Note_on_c, 8, 68, 127
2, 98857, Note_off_c, 8, 68, 127
2, 98857, Note_off_c, 4, 52, 127
2, 98860, Note_on_c, 11, 70, 127
2, 98860, Note_on_c, 6, 54, 127
2, 99246, Note_off_c, 8, 80, 127
2, 99249, Note_on_c, 6, 78, 127
2, 99440, Note_off_c, 6, 78, 127
2, 99442, Note_on_c, 4, 76, 127
2, 99633, Note_off_c, 4, 76, 127
2, 99634, Note_off_c, 6, 54, 127
2, 99634, Note_off_c, 1, 61, 127
2, 99636, Note_on_c, 3, 75, 127
2, 99636, Note_on_c, 12, 59, 127
2, 100023, Note_off_c, 11, 70, 127
2, 100025, Note_on_c, 8, 68, 127
2, 100025, Note_on_c, 12, 47, 127
2, 100202, Note_off_c, 12, 59, 127
2, 100216, Note_off_c, 12, 47, 127
2, 100216, Note_off_c, 8, 68, 127
2, 100219, Note_on_c, 7, 67, 127
2, 100219, Note_on_c, 11, 46, 127
2, 100404, Note_off_c, 3, 75, 127
2, 100410, Note_off_c, 11, 46, 127
2, 100410, Note_off_c, 7, 67, 127
2, 100413, Note_on_c, 8, 68, 127
2, 100413, Note_on_c, 12, 47, 127
2, 100606, Note_on_c, 3, 75, 127
2, 100797, Note_off_c, 3, 75, 127
2, 100798, Note_off_c, 12, 47, 127
2, 100798, Note_off_c, 8, 68, 127
2, 100800, Note_on_c, 1, 73, 127
2, 100800, Note_on_c, 11, 70, 127
2, 100800, Note_on_c, 1, 49, 127
2, 100991, Note_off_c, 1, 73, 127
2, 100994, Note_on_c, 12, 71, 127
2, 101185, Note_off_c, 12, 71, 127
2, 101185, Note_off_c, 1, 49, 127
2, 101185, Note_off_c, 11, 70, 127
2, 101187, Note_on_c, 11, 70, 127
2, 101187, Note_on_c, 7, 67, 127
2, 101187, Note_on_c, 3, 51, 127
2, 101577, Note_on_c, 3, 63, 127
2, 101768, Note_off_c, 3, 63, 127
2, 101770, Note_on_c, 4, 64, 127
2, 101961, Note_off_c, 4, 64, 127
2, 101961, Note_off_c, 7, 67, 127
2, 101961, Note_off_c, 11, 70, 127
2, 101964, Note_on_c, 12, 71, 127
2, 101964, Note_on_c, 8, 68, 127
2, 101964, Note_on_c, 3, 63, 127
2, 102155, Note_off_c, 3, 63, 127
2, 102158, Note_on_c, 1, 61, 127
2, 102348, Note_off_c, 3, 51, 127
2, 102349, Note_off_c, 1, 61, 127
2, 102349, Note_off_c, 8, 68, 127
2, 102349, Note_off_c, 12, 71, 127
2, 102351, Note_on_c, 1, 73, 127
2, 102351, Note_on_c, 11, 70, 127
2, 102351, Note_on_c, 12, 59, 127
2, 102351, Note_on_c, 1, 49, 127
2, 102542, Note_off_c, 12, 59, 127
2, 102545, Note_on_c, 11, 58, 127
2, 102736, Note_off_c, 11, 58, 127
2, 102736, Note_off_c, 1, 49, 127
2, 102736, Note_off_c, 11, 70, 127
2, 102736, Note_off_c, 1, 73, 127
2, 102738, Note_on_c, 3, 75, 127
2, 102738, Note_on_c, 12, 71, 127
2, 102738, Note_on_c, 8, 56, 127
2, 102738, Note_on_c, 12, 47, 127
2, 102929, Note_off_c, 12, 71, 127
2, 102932, Note_on_c, 11, 70, 127
2, 103123, Note_off_c, 11, 70, 127
2, 103123, Note_off_c, 12, 47, 127
2, 103126, Note_on_c, 12, 71, 127
2, 103126, Note_on_c, 8, 44, 127
2, 103317, Note_off_c, 12, 71, 127
2, 103319, Note_on_c, 1, 73, 127
2, 103510, Note_off_c, 1, 73, 127
2, 103511, Note_off_c, 8, 44, 127
2, 103513, Note_on_c, 12, 71, 127
2, 103513, Note_on_c, 11, 46, 127
2, 103704, Note_off_c, 12, 71, 127
2, 103707, Note_on_c, 11, 70, 127
2, 103898, Note_off_c, 11, 70, 127
2, 103898, Note_off_c, 11, 46, 127
2, 103900, Note_on_c, 8, 68, 127
2, 103900, Note_on_c, 12, 47, 127
2, 104091, Note_off_c, 8, 68, 127
2, 104094, Note_on_c, 6, 66, 127
2, 104285, Note_off_c, 6, 66, 127
2, 104285, Note_off_c, 12, 47, 127
2, 104288, Note_on_c, 5, 65, 127
2, 104288, Note_on_c, 1, 49, 127
2, 104674, Note_off_c, 8, 56, 127
2, 104674, Note_off_c, 3, 75, 127
2, 104677, Note_on_c, 8, 68, 127
2, 104677, Note_on_c, 1, 61, 127
2, 104868, Note_off_c, 1, 61, 127
2, 104871, Note_on_c, 3, 63, 127
2, 105062, Note_off_c, 3, 63, 127
2, 105062, Note_off_c, 8, 68, 127
2, 105062, Note_off_c, 5, 65, 127
2, 105064, Note_on_c, 11, 70, 127
2, 105064, Note_on_c, 6, 66, 127
2, 105064, Note_on_c, 1, 61, 127
2, 105255, Note_off_c, 1, 61, 127
2, 105258, Note_on_c, 12, 59, 127
2, 105449, Note_off_c, 12, 59, 127
2, 105449, Note_off_c, 6, 66, 127
2, 105449, Note_off_c, 11, 70, 127
2, 105449, Note_off_c, 1, 49, 127
2, 105452, Note_on_c, 12, 71, 127
2, 105452, Note_on_c, 8, 68, 127
2, 105452, Note_on_c, 11, 58, 127
2, 105452, Note_on_c, 12, 47, 127
2, 105643, Note_off_c, 11, 58, 127
2, 105645, Note_on_c, 8, 56, 127
2, 105836, Note_off_c, 8, 56, 127
2, 105837, Note_off_c, 12, 47, 127
2, 105837, Note_off_c, 8, 68, 127
2, 105837, Note_off_c, 12, 71, 127
2, 105839, Note_on_c, 1, 73, 127
2, 105839, Note_on_c, 11, 70, 127
2, 105839, Note_on_c, 6, 54, 127
2, 105839, Note_on_c, 11, 46, 127
2, 106030, Note_off_c, 6, 54, 127
2, 106032, Note_on_c, 4, 52, 127
2, 106223, Note_off_c, 4, 52, 127
2, 106224, Note_off_c, 11, 70, 127
2, 106224, Note_off_c, 1, 73, 127
2, 106226, Note_on_c, 11, 70, 127
2, 106226, Note_on_c, 1, 61, 127
2, 106226, Note_on_c, 6, 54, 127
2, 106417, Note_off_c, 6, 54, 127
2, 106420, Note_on_c, 8, 56, 127
2, 106611, Note_off_c, 8, 56, 127
2, 106611, Note_off_c, 1, 61, 127
2, 106611, Note_off_c, 11, 70, 127
2, 106613, Note_on_c, 12, 71, 127
2, 106613, Note_on_c, 3, 63, 127
2, 106613, Note_on_c, 6, 54, 127
2, 106804, Note_off_c, 6, 54, 127
2, 106807, Note_on_c, 4, 52, 127
2, 106998, Note_off_c, 4, 52, 127
2, 106998, Note_off_c, 3, 63, 127
2, 106998, Note_off_c, 12, 71, 127
2, 107001, Note_on_c, 1, 73, 127
2, 107001, Note_on_c, 4, 64, 127
2, 107001, Note_on_c, 3, 51, 127
2, 107192, Note_off_c, 3, 51, 127
2, 107194, Note_on_c, 1, 49, 127
2, 107385, Note_off_c, 1, 49, 127
2, 107386, Note_off_c, 4, 64, 127
2, 107386, Note_off_c, 1, 73, 127
2, 107386, Note_off_c, 11, 46, 127
2, 107388, Note_on_c, 3, 75, 127
2, 107388, Note_on_c, 6, 66, 127
2, 107388, Note_on_c, 12, 47, 127
2, 107575, Note_off_c, 12, 47, 127
2, 107582, Note_on_c, 11, 46, 127
2, 107773, Note_off_c, 11, 46, 127
2, 107773, Note_off_c, 6, 66, 127
2, 107775, Note_on_c, 6, 66, 127
2, 107775, Note_on_c, 12, 47, 127
2, 107966, Note_off_c, 12, 47, 127
2, 107969, Note_on_c, 1, 49, 127
2, 108160, Note_off_c, 1, 49, 127
2, 108160, Note_off_c, 6, 66, 127
2, 108162, Note_on_c, 5, 65, 127
2, 108162, Note_on_c, 12, 47, 127
2, 108353, Note_off_c, 12, 47, 127
2, 108356, Note_on_c, 11, 46, 127
2, 108547, Note_off_c, 11, 46, 127
2, 108547, Note_off_c, 5, 65, 127
2, 108550, Note_on_c, 6, 66, 127
2, 108550, Note_on_c, 8, 44, 127
2, 108741, Note_off_c, 8, 44, 127
2, 108743, Note_on_c, 6, 42, 127
2, 108934, Note_off_c, 6, 42, 127
2, 108935, Note_off_c, 6, 66, 127
2, 108935, Note_off_c, 3, 75, 127
2, 108937, Note_on_c, 1, 73, 127
2, 108937, Note_on_c, 8, 68, 127
2, 108937, Note_on_c, 5, 41, 127
2, 109324, Note_off_c, 5, 41, 127
2, 109326, Note_on_c, 12, 59, 127
2, 109326, Note_on_c, 5, 53, 127
2, 109713, Note_off_c, 5, 53, 127
2, 109713, Note_off_c, 12, 59, 127
2, 109713, Note_off_c, 8, 68, 127
2, 109716, Note_on_c, 1, 61, 127
2, 109716, Note_on_c, 11, 58, 127
2, 109716, Note_on_c, 6, 54, 127
2, 110103, Note_off_c, 6, 54, 127
2, 110103, Note_off_c, 11, 58, 127
2, 110103, Note_off_c, 1, 61, 127
2, 110105, Note_on_c, 3, 63, 127
2, 110105, Note_on_c, 8, 56, 127
2, 110105, Note_on_c, 5, 53, 127
2, 110296, Note_off_c, 3, 63, 127
2, 110299, Note_on_c, 5, 65, 127
2, 110490, Note_off_c, 5, 65, 127
2, 110490, Note_off_c, 5, 53, 127
2, 110490, Note_off_c, 8, 56, 127
2, 110492, Note_on_c, 6, 66, 127
2, 110492, Note_on_c, 6, 54, 127
2, 110492, Note_on_c, 3, 51, 127
2, 110879, Note_off_c, 6, 66, 127
2, 110879, Note_off_c, 1, 73, 127
2, 110882, Note_on_c, 12, 71, 127
2, 110882, Note_on_c, 8, 68, 127
2, 111073, Note_off_c, 8, 68, 127
2, 111073, Note_off_c, 12, 71, 127
2, 111075, Note_on_c, 1, 73, 127
2, 111075, Note_on_c, 11, 70, 127
2, 111266, Note_off_c, 11, 70, 127
2, 111266, Note_off_c, 1, 73, 127
2, 111269, Note_on_c, 3, 75, 127
2, 111269, Note_on_c, 12, 71, 127
2, 111460, Note_off_c, 3, 75, 127
2, 111460, Note_off_c, 6, 54, 127
2, 111463, Note_on_c, 5, 77, 127
2, 111463, Note_on_c, 8, 56, 127
2, 111653, Note_off_c, 3, 51, 127
2, 111654, Note_off_c, 8, 56, 127
2, 111654, Note_off_c, 5, 77, 127
2, 111654, Note_off_c, 12, 71, 127
2, 111656, Note_on_c, 6, 78, 127
2, 111656, Note_on_c, 11, 70, 127
2, 111656, Note_on_c, 6, 54, 127
2, 111656, Note_on_c, 1, 49, 127
2, 111847, Note_off_c, 6, 54, 127
2, 111850, Note_on_c, 5, 53, 127
2, 112041, Note_off_c, 5, 53, 127
2, 112041, Note_off_c, 1, 49, 127
2, 112041, Note_off_c, 11, 70, 127
2, 112044, Note_on_c, 8, 68, 127
2, 112044, Note_on_c, 3, 51, 127
2, 112044, Note_on_c, 12, 47, 127
2, 112234, Note_off_c, 6, 78, 127
2, 112235, Note_off_c, 3, 51, 127
2, 112237, Note_on_c, 5, 77, 127
2, 112237, Note_on_c, 1, 49, 127
2, 112428, Note_off_c, 1, 49, 127
2, 112428, Note_off_c, 5, 77, 127
2, 112429, Note_off_c, 12, 47, 127
2, 112431, Note_on_c, 6, 78, 127
2, 112431, Note_on_c, 3, 51, 127
2, 112431, Note_on_c, 8, 44, 127
2, 112622, Note_off_c, 3, 51, 127
2, 112622, Note_off_c, 6, 78, 127
2, 112624, Note_on_c, 8, 80, 127
2, 112624, Note_on_c, 12, 47, 127
2, 112815, Note_off_c, 12, 47, 127
2, 112815, Note_off_c, 8, 80, 127
2, 112816, Note_off_c, 8, 44, 127
2, 112818, Note_on_c, 6, 78, 127
2, 112818, Note_on_c, 1, 49, 127
2, 112894, Note_on_c, 5, 77, 127
2, 112912, Note_off_c, 6, 78, 127
2, 112971, Note_on_c, 6, 78, 127
2, 112988, Note_off_c, 5, 77, 127
2, 113010, Note_off_c, 8, 68, 127
2, 113012, Note_on_c, 11, 70, 127
2, 113049, Note_on_c, 5, 77, 127
2, 113067, Note_off_c, 6, 78, 127
2, 113205, Note_off_c, 11, 70, 127
2, 113207, Note_on_c, 12, 71, 127
2, 113207, Note_on_c, 1, 37, 127
2, 113399, Note_off_c, 5, 77, 127
2, 113401, Note_on_c, 6, 78, 127
2, 113592, Note_off_c, 6, 78, 127
2, 113592, Note_off_c, 1, 37, 127
2, 113592, Note_off_c, 12, 71, 127
2, 113595, Note_on_c, 6, 78, 127
2, 113595, Note_on_c, 11, 70, 127
2, 113595, Note_on_c, 6, 42, 127
2, 113981, Note_off_c, 1, 49, 127
2, 113982, Note_off_c, 6, 78, 127
2, 113984, Note_on_c, 6, 78, 127
2, 113984, Note_on_c, 6, 54, 127
2, 114161, Note_off_c, 6, 42, 127
2, 114175, Note_off_c, 6, 54, 127
2, 114178, Note_on_c, 4, 52, 127
2, 114369, Note_off_c, 4, 52, 127
2, 114369, Note_off_c, 6, 78, 127
2, 114369, Note_off_c, 11, 70, 127
2, 114371, Note_on_c, 8, 80, 127
2, 114371, Note_on_c, 0, 72, 127
2, 114371, Note_on_c, 6, 54, 127
2, 114562, Note_off_c, 6, 54, 127
2, 114565, Note_on_c, 8, 56, 127
2, 114756, Note_off_c, 8, 56, 127
2, 114756, Note_off_c, 0, 72, 127
2, 114756, Note_off_c, 8, 80, 127
2, 114759, Note_on_c, 6, 78, 127
2, 114759, Note_on_c, 3, 75, 127
2, 114759, Note_on_c, 11, 58, 127
2, 114950, Note_off_c, 11, 58, 127
2, 114952, Note_on_c, 0, 60, 127
2, 115143, Note_off_c, 0, 60, 127
2, 115144, Note_off_c, 6, 78, 127
2, 115146, Note_on_c, 4, 76, 127
2, 115146, Note_on_c, 1, 61, 127
2, 115533, Note_off_c, 1, 61, 127
2, 115533, Note_off_c, 3, 75, 127
2, 115535, Note_on_c, 1, 73, 127
2, 115535, Note_on_c, 12, 59, 127
2, 115726, Note_off_c, 12, 59, 127
2, 115729, Note_on_c, 11, 58, 127
2, 115918, Note_off_c, 1, 73, 127
2, 115920, Note_off_c, 11, 58, 127
2, 115920, Note_off_c, 4, 76, 127
2, 115922, Note_on_c, 12, 83, 127
2, 115922, Note_on_c, 8, 56, 127
2, 116113, Note_off_c, 8, 56, 127
2, 116116, Note_on_c, 6, 54, 127
2, 116307, Note_off_c, 6, 54, 127
2, 116307, Note_off_c, 12, 83, 127
2, 116310, Note_on_c, 11, 82, 127
2, 116310, Note_on_c, 8, 56, 127
2, 116501, Note_off_c, 8, 56, 127
2, 116501, Note_off_c, 11, 82, 127
2, 116503, Note_on_c, 8, 80, 127
2, 116503, Note_on_c, 11, 58, 127
2, 116694, Note_off_c, 11, 58, 127
2, 116694, Note_off_c, 8, 80, 127
2, 116697, Note_on_c, 6, 78, 127
2, 116697, Note_on_c, 12, 59, 127
2, 116891, Note_on_c, 3, 63, 127
2, 117082, Note_off_c, 3, 63, 127
2, 117082, Note_off_c, 6, 78, 127
2, 117084, Note_on_c, 4, 76, 127
2, 117084, Note_on_c, 4, 64, 127
2, 117275, Note_off_c, 4, 64, 127
2, 117275, Note_off_c, 4, 76, 127
2, 117278, Note_on_c, 3, 75, 127
2, 117278, Note_on_c, 6, 66, 127
2, 117469, Note_off_c, 6, 66, 127
2, 117469, Note_off_c, 3, 75, 127
2, 117472, Note_on_c, 1, 73, 127
2, 117472, Note_on_c, 8, 68, 127
2, 117663, Note_off_c, 8, 68, 127
2, 117665, Note_on_c, 6, 66, 127
2, 117836, Note_off_c, 1, 73, 127
2, 117858, Note_off_c, 6, 66, 127
2, 117861, Note_on_c, 3, 75, 127
2, 117861, Note_on_c, 4, 64, 127
2, 118052, Note_off_c, 4, 64, 127
2, 118055, Note_on_c, 3, 63, 127
2, 118225, Note_off_c, 3, 75, 127
2, 118248, Note_off_c, 3, 63, 127
2, 118250, Note_on_c, 4, 76, 127
2, 118250, Note_on_c, 1, 61, 127
2, 118441, Note_off_c, 12, 59, 127
2, 118444, Note_on_c, 12, 59, 127
2, 118635, Note_off_c, 12, 59, 127
2, 118638, Note_on_c, 11, 58, 127
2, 118829, Note_off_c, 11, 58, 127
2, 118831, Note_on_c, 8, 56, 127
2, 119022, Note_off_c, 8, 56, 127
2, 119022, Note_off_c, 1, 61, 127
2, 119025, Note_on_c, 1, 73, 127
2, 119025, Note_on_c, 6, 54, 127
2, 119216, Note_off_c, 6, 54, 127
2, 119218, Note_on_c, 4, 52, 127
2, 119409, Note_off_c, 4, 52, 127
2, 119412, Note_on_c, 3, 51, 127
2, 119603, Note_off_c, 3, 51, 127
2, 119606, Note_on_c, 1, 49, 127
2, 119797, Note_off_c, 1, 49, 127
2, 119797, Note_off_c, 4, 76, 127
2, 119799, Note_on_c, 3, 75, 127
2, 119799, Note_on_c, 12, 47, 127
2, 119990, Note_off_c, 12, 47, 127
2, 119993, Note_on_c, 1, 49, 127
2, 120184, Note_off_c, 1, 49, 127
2, 120184, Note_off_c, 1, 73, 127
2, 120187, Note_on_c, 12, 71, 127
2, 120187, Note_on_c, 3, 51, 127
2, 120378, Note_off_c, 3, 51, 127
2, 120380, Note_on_c, 4, 52, 127
2, 120565, Note_off_c, 3, 75, 127
2, 120571, Note_off_c, 4, 52, 127
2, 120572, Note_off_c, 12, 71, 127
2, 120574, Note_on_c, 3, 75, 127
2, 120574, Note_on_c, 6, 54, 127
2, 120765, Note_off_c, 6, 54, 127
2, 120768, Note_on_c, 8, 56, 127
2, 120959, Note_off_c, 8, 56, 127
2, 120959, Note_off_c, 3, 75, 127
2, 120961, Note_on_c, 6, 78, 127
2, 120961, Note_on_c, 1, 73, 127
2, 120961, Note_on_c, 11, 58, 127
2, 121152, Note_off_c, 11, 58, 127
2, 121155, Note_on_c, 6, 54, 127
2, 121346, Note_off_c, 6, 54, 127
2, 121346, Note_off_c, 1, 73, 127
2, 121349, Note_on_c, 12, 71, 127
2, 121349, Note_on_c, 8, 56, 127
2, 121539, Note_off_c, 6, 78, 127
2, 121540, Note_off_c, 8, 56, 127
2, 121542, Note_on_c, 5, 77, 127
2, 121542, Note_on_c, 1, 49, 127
2, 121733, Note_off_c, 1, 49, 127
2, 121733, Note_off_c, 5, 77, 127
2, 121736, Note_on_c, 6, 78, 127
2, 121736, Note_on_c, 3, 51, 127
2, 121927, Note_off_c, 3, 51, 127
2, 121927, Note_off_c, 6, 78, 127
2, 121929, Note_on_c, 8, 80, 127
2, 121929, Note_on_c, 5, 53, 127
2, 122120, Note_off_c, 5, 53, 127
2, 122120, Note_off_c, 8, 80, 127
2, 122121, Note_off_c, 12, 71, 127
2, 122123, Note_on_c, 11, 82, 127
2, 122123, Note_on_c, 6, 78, 127
2, 122123, Note_on_c, 6, 54, 127
2, 122314, Note_off_c, 6, 54, 127
2, 122314, Note_off_c, 11, 82, 127
2, 122317, Note_on_c, 8, 80, 127
2, 122317, Note_on_c, 12, 47, 127
2, 122508, Note_off_c, 12, 47, 127
2, 122508, Note_off_c, 8, 80, 127
2, 122508, Note_off_c, 6, 78, 127
2, 122510, Note_on_c, 11, 82, 127
2, 122510, Note_on_c, 5, 77, 127
2, 122510, Note_on_c, 12, 59, 127
2, 122701, Note_off_c, 5, 77, 127
2, 122701, Note_off_c, 11, 82, 127
2, 122704, Note_on_c, 12, 83, 127
2, 122704, Note_on_c, 3, 75, 127
2, 122895, Note_off_c, 3, 75, 127
2, 122895, Note_off_c, 12, 83, 127
2, 122898, Note_on_c, 5, 77, 127
2, 122898, Note_on_c, 1, 73, 127
2, 123088, Note_off_c, 12, 59, 127
2, 123091, Note_on_c, 11, 58, 127
2, 123282, Note_off_c, 11, 58, 127
2, 123283, Note_off_c, 1, 73, 127
2, 123285, Note_on_c, 12, 71, 127
2, 123285, Note_on_c, 12, 59, 127
2, 123476, Note_off_c, 12, 59, 127
2, 123476, Note_off_c, 12, 71, 127
2, 123479, Note_on_c, 11, 70, 127
2, 123479, Note_on_c, 1, 61, 127
2, 123670, Note_off_c, 1, 61, 127
2, 123670, Note_off_c, 11, 70, 127
2, 123670, Note_off_c, 5, 77, 127
2, 123672, Note_on_c, 6, 78, 127
2, 123672, Note_on_c, 8, 68, 127
2, 123672, Note_on_c, 3, 63, 127
2, 123863, Note_off_c, 3, 63, 127
2, 123866, Note_on_c, 1, 61, 127
2, 124057, Note_off_c, 1, 61, 127
2, 124057, Note_off_c, 8, 68, 127
2, 124059, Note_on_c, 11, 70, 127
2, 124059, Note_on_c, 12, 59, 127
2, 124250, Note_off_c, 12, 59, 127
2, 124253, Note_on_c, 11, 58, 127
2, 124444, Note_off_c, 11, 58, 127
2, 124444, Note_off_c, 11, 70, 127
2, 124447, Note_on_c, 12, 71, 127
2, 124447, Note_on_c, 8, 56, 127
2, 124833, Note_off_c, 6, 78, 127
2, 124836, Note_on_c, 4, 76, 127
2, 124836, Note_on_c, 12, 47, 127
2, 125027, Note_off_c, 4, 76, 127
2, 125030, Note_on_c, 3, 75, 127
2, 125215, Note_off_c, 12, 71, 127
2, 125221, Note_off_c, 3, 75, 127
2, 125221, Note_off_c, 12, 47, 127
2, 125223, Note_on_c, 1, 73, 127
2, 125223, Note_on_c, 11, 46, 127
2, 125414, Note_off_c, 1, 73, 127
2, 125417, Note_on_c, 12, 71, 127
2, 125608, Note_off_c, 11, 46, 127
2, 125611, Note_on_c, 1, 73, 127
2, 125611, Note_on_c, 12, 47, 127
2, 125802, Note_off_c, 1, 73, 127
2, 125804, Note_on_c, 3, 75, 127
2, 125995, Note_off_c, 3, 75, 127
2, 125996, Note_off_c, 12, 47, 127
2, 125998, Note_on_c, 4, 76, 127
2, 125998, Note_on_c, 1, 49, 127
2, 126189, Note_off_c, 4, 76, 127
2, 126192, Note_on_c, 6, 78, 127
2, 126383, Note_off_c, 6, 78, 127
2, 126383, Note_off_c, 8, 56, 127
2, 126385, Note_on_c, 8, 80, 127
2, 126385, Note_on_c, 6, 54, 127
2, 126576, Note_off_c, 6, 54, 127
2, 126579, Note_on_c, 4, 52, 127
2, 126770, Note_off_c, 4, 52, 127
2, 126770, Note_off_c, 1, 49, 127
2, 126772, Note_off_c, 12, 71, 127
2, 126773, Note_on_c, 11, 70, 127
2, 126773, Note_on_c, 6, 54, 127
2, 126773, Note_on_c, 6, 42, 127
2, 126963, Note_off_c, 8, 80, 127
2, 126966, Note_on_c, 8, 80, 127
2, 127157, Note_off_c, 8, 80, 127
2, 127158, Note_off_c, 6, 42, 127
2, 127158, Note_off_c, 11, 70, 127
2, 127160, Note_on_c, 6, 78, 127
2, 127160, Note_on_c, 1, 73, 127
2, 127160, Note_on_c, 8, 44, 127
2, 127351, Note_off_c, 8, 44, 127
2, 127351, Note_off_c, 6, 78, 127
2, 127353, Note_on_c, 4, 76, 127
2, 127353, Note_on_c, 11, 46, 127
2, 127544, Note_off_c, 11, 46, 127
2, 127544, Note_off_c, 4, 76, 127
2, 127547, Note_on_c, 3, 75, 127
2, 127547, Note_on_c, 12, 47, 127
2, 127738, Note_off_c, 1, 73, 127
2, 127741, Note_on_c, 1, 73, 127
2, 127932, Note_off_c, 1, 73, 127
2, 127932, Note_off_c, 12, 47, 127
2, 127934, Note_on_c, 12, 71, 127
2, 127934, Note_on_c, 1, 49, 127
2, 128125, Note_off_c, 1, 49, 127
2, 128125, Note_off_c, 12, 71, 127
2, 128128, Note_on_c, 11, 70, 127
2, 128128, Note_on_c, 3, 51, 127
2, 128319, Note_off_c, 3, 51, 127
2, 128319, Note_off_c, 11, 70, 127
2, 128320, Note_off_c, 6, 54, 127
2, 128322, Note_on_c, 8, 68, 127
2, 128322, Note_on_c, 4, 52, 127
2, 128513, Note_off_c, 3, 75, 127
2, 128515, Note_on_c, 1, 73, 127
2, 128707, Note_off_c, 4, 52, 127
2, 128707, Note_off_c, 8, 68, 127
2, 128709, Note_on_c, 6, 66, 127
2, 128709, Note_on_c, 3, 51, 127
2, 128900, Note_off_c, 1, 73, 127
2, 128903, Note_on_c, 12, 71, 127
2, 129094, Note_off_c, 3, 51, 127
2, 129094, Note_off_c, 6, 66, 127
2, 129096, Note_on_c, 4, 64, 127
2, 129096, Note_on_c, 1, 49, 127
2, 129389, Note_off_c, 12, 71, 127
2, 129486, Note_on_c, 11, 70, 127
2, 129677, Note_off_c, 11, 70, 127
2, 129679, Note_on_c, 12, 71, 127
2, 129870, Note_off_c, 12, 71, 127
2, 129873, Note_on_c, 1, 73, 127
2, 130064, Note_off_c, 1, 73, 127
2, 130066, Note_on_c, 3, 75, 127
2, 130257, Note_off_c, 3, 75, 127
2, 130260, Note_on_c, 4, 76, 127
2, 130451, Note_off_c, 4, 64, 127
2, 130454, Note_on_c, 6, 66, 127
2, 130645, Note_off_c, 6, 66, 127
2, 130645, Note_off_c, 1, 49, 127
2, 130647, Note_on_c, 8, 68, 127
2, 130647, Note_on_c, 12, 47, 127
2, 130838, Note_off_c, 8, 68, 127
2, 130841, Note_on_c, 11, 70, 127
2, 131032, Note_off_c, 11, 70, 127
2, 131032, Note_off_c, 12, 47, 127
2, 131032, Note_off_c, 4, 76, 127
2, 131035, Note_on_c, 3, 75, 127
2, 131035, Note_on_c, 12, 71, 127
2, 131035, Note_on_c, 12, 59, 127
2, 131226, Note_off_c, 12, 59, 127
2, 131226, Note_off_c, 3, 75, 127
2, 131228, Note_on_c, 4, 76, 127
2, 131228, Note_on_c, 1, 61, 127
2, 131419, Note_off_c, 1, 61, 127
2, 131419, Note_off_c, 4, 76, 127
2, 131422, Note_on_c, 6, 78, 127
2, 131422, Note_on_c, 12, 59, 127
2, 131613, Note_off_c, 12, 59, 127
2, 131613, Note_off_c, 6, 78, 127
2, 131616, Note_on_c, 8, 80, 127
2, 131616, Note_on_c, 10, 57, 127
2, 131807, Note_off_c, 10, 57, 127
2, 131807, Note_off_c, 8, 80, 127
2, 131807, Note_off_c, 12, 71, 127
2, 131809, Note_on_c, 10, 81, 127
2, 131809, Note_on_c, 1, 73, 127
2, 131809, Note_on_c, 8, 56, 127
2, 132000, Note_off_c, 8, 56, 127
2, 132000, Note_off_c, 1, 73, 127
2, 132003, Note_on_c, 3, 75, 127
2, 132003, Note_on_c, 6, 54, 127
2, 132194, Note_off_c, 6, 54, 127
2, 132194, Note_off_c, 3, 75, 127
2, 132196, Note_on_c, 4, 76, 127
2, 132196, Note_on_c, 4, 52, 127
2, 132387, Note_off_c, 10, 81, 127
2, 132390, Note_on_c, 8, 80, 127
2, 132581, Note_off_c, 8, 80, 127
2, 132584, Note_on_c, 10, 81, 127
2, 132584, Note_on_c, 4, 64, 127
2, 132775, Note_off_c, 10, 81, 127
2, 132777, Note_on_c, 8, 80, 127
2, 132962, Note_off_c, 4, 76, 127
2, 132968, Note_off_c, 8, 80, 127
2, 132968, Note_off_c, 4, 52, 127
2, 132969, Note_off_c, 4, 64, 127
2, 132971, Note_on_c, 6, 78, 127
2, 132971, Note_on_c, 3, 63, 127
2, 132971, Note_on_c, 10, 57, 127
2, 133162, Note_off_c, 6, 78, 127
2, 133165, Note_on_c, 4, 76, 127
2, 133356, Note_off_c, 4, 76, 127
2, 133356, Note_off_c, 3, 63, 127
2, 133358, Note_on_c, 3, 75, 127
2, 133358, Note_on_c, 4, 64, 127
2, 133549, Note_off_c, 3, 75, 127
2, 133552, Note_on_c, 1, 73, 127
2, 133743, Note_off_c, 1, 73, 127
2, 133743, Note_off_c, 4, 64, 127
2, 133743, Note_off_c, 10, 57, 127
2, 133746, Note_on_c, 0, 72, 127
2, 133746, Note_on_c, 6, 66, 127
2, 133746, Note_on_c, 3, 51, 127
2, 133937, Note_off_c, 3, 51, 127
2, 133939, Note_on_c, 1, 61, 127
2, 134130, Note_off_c, 1, 61, 127
2, 134131, Note_off_c, 0, 72, 127
2, 134133, Note_on_c, 1, 73, 127
2, 134133, Note_on_c, 0, 60, 127
2, 134324, Note_off_c, 0, 60, 127
2, 134327, Note_on_c, 11, 58, 127
2, 134518, Note_off_c, 11, 58, 127
2, 134518, Note_off_c, 1, 73, 127
2, 134518, Note_off_c, 6, 66, 127
2, 134520, Note_on_c, 3, 75, 127
2, 134520, Note_on_c, 0, 60, 127
2, 134520, Note_on_c, 8, 56, 127
2, 134711, Note_off_c, 8, 56, 127
2, 134714, Note_on_c, 6, 54, 127
2, 134905, Note_off_c, 6, 54, 127
2, 134905, Note_off_c, 0, 60, 127
2, 134907, Note_on_c, 1, 61, 127
2, 134907, Note_on_c, 4, 52, 127
2, 135098, Note_off_c, 4, 52, 127
2, 135098, Note_off_c, 1, 61, 127
2, 135101, Note_on_c, 3, 63, 127
2, 135101, Note_on_c, 3, 51, 127
2, 135292, Note_off_c, 3, 51, 127
2, 135292, Note_off_c, 3, 63, 127
2, 135295, Note_on_c, 4, 64, 127
2, 135295, Note_on_c, 1, 49, 127
2, 135486, Note_off_c, 1, 49, 127
2, 135488, Note_on_c, 12, 47, 127
2, 135679, Note_off_c, 12, 47, 127
2, 135679, Note_off_c, 3, 75, 127
2, 135680, Note_off_c, 4, 64, 127
2, 135682, Note_on_c, 1, 73, 127
2, 135682, Note_on_c, 6, 66, 127
2, 135682, Note_on_c, 10, 45, 127
2, 135873, Note_off_c, 10, 45, 127
2, 135873, Note_off_c, 6, 66, 127
2, 135873, Note_off_c, 1, 73, 127
2, 135876, Note_on_c, 0, 72, 127
2, 135876, Note_on_c, 8, 68, 127
2, 135876, Note_on_c, 8, 44, 127
2, 136067, Note_off_c, 8, 44, 127
2, 136067, Note_off_c, 8, 68, 127
2, 136067, Note_off_c, 0, 72, 127
2, 136069, Note_on_c, 1, 73, 127
2, 136069, Note_on_c, 10, 69, 127
2, 136069, Note_on_c, 6, 42, 127
2, 136260, Note_off_c, 6, 42, 127
2, 136263, Note_on_c, 4, 40, 127
2, 136454, Note_off_c, 4, 40, 127
2, 136454, Note_off_c, 10, 69, 127
2, 136457, Note_on_c, 8, 68, 127
2, 136457, Note_on_c, 3, 39, 127
2, 136648, Note_off_c, 3, 39, 127
2, 136650, Note_on_c, 1, 37, 127
2, 136841, Note_off_c, 1, 37, 127
2, 136842, Note_off_c, 8, 68, 127
2, 136844, Note_on_c, 6, 66, 127
2, 136844, Note_on_c, 3, 39, 127
2, 137035, Note_off_c, 1, 73, 127
2, 137037, Note_on_c, 4, 76, 127
2, 137228, Note_off_c, 4, 76, 127
2, 137229, Note_off_c, 3, 39, 127
2, 137231, Note_on_c, 3, 75, 127
2, 137231, Note_on_c, 4, 40, 127
2, 137422, Note_off_c, 4, 40, 127
2, 137422, Note_off_c, 3, 75, 127
2, 137425, Note_on_c, 1, 73, 127
2, 137425, Note_on_c, 6, 42, 127
2, 137616, Note_off_c, 6, 42, 127
2, 137616, Note_off_c, 1, 73, 127
2, 137618, Note_on_c, 0, 72, 127
2, 137618, Note_on_c, 8, 44, 127
2, 137810, Note_off_c, 6, 66, 127
2, 137812, Note_on_c, 10, 69, 127
2, 138003, Note_off_c, 10, 69, 127
2, 138003, Note_off_c, 8, 44, 127
2, 138006, Note_on_c, 8, 68, 127
2, 138006, Note_on_c, 8, 44, 127
2, 138197, Note_off_c, 8, 68, 127
2, 138199, Note_on_c, 6, 66, 127
2, 138390, Note_off_c, 6, 66, 127
2, 138390, Note_off_c, 0, 72, 127
2, 138391, Note_off_c, 8, 44, 127
2, 138393, Note_on_c, 1, 73, 127
2, 138393, Note_on_c, 4, 64, 127
2, 138393, Note_on_c, 1, 37, 127
2, 138780, Note_off_c, 1, 73, 127
2, 138798, Note_on_c, 8, 68, 127
2, 138989, Note_off_c, 8, 68, 127
2, 138992, Note_on_c, 6, 66, 127
2, 139161, Note_off_c, 1, 37, 127
2, 139161, Note_off_c, 4, 64, 127
2, 139183, Note_off_c, 6, 66, 127
2, 139186, Note_on_c, 8, 68, 127
2, 139379, Note_on_c, 1, 61, 127
2, 139570, Note_off_c, 1, 61, 127
2, 139571, Note_off_c, 8, 68, 127
2, 139573, Note_on_c, 12, 59, 127
2, 139573, Note_on_c, 10, 69, 127
2, 139764, Note_off_c, 12, 59, 127
2, 139767, Note_on_c, 10, 57, 127
2, 139958, Note_off_c, 10, 57, 127
2, 139958, Note_off_c, 10, 69, 127
2, 139960, Note_on_c, 8, 56, 127
2, 139960, Note_on_c, 5, 65, 127
2, 140349, Note_on_c, 1, 49, 127
2, 140540, Note_off_c, 1, 49, 127
2, 140543, Note_on_c, 2, 50, 127
2, 140734, Note_off_c, 2, 50, 127
2, 140734, Note_off_c, 5, 65, 127
2, 140734, Note_off_c, 8, 56, 127
2, 140737, Note_on_c, 1, 49, 127
2, 140737, Note_on_c, 10, 57, 127
2, 140737, Note_on_c, 6, 66, 127
2, 140928, Note_off_c, 1, 49, 127
2, 140930, Note_on_c, 12, 47, 127
2, 141121, Note_off_c, 12, 47, 127
2, 141122, Note_off_c, 6, 66, 127
2, 141122, Note_off_c, 10, 57, 127
2, 141124, Note_on_c, 10, 45, 127
2, 141124, Note_on_c, 12, 59, 127
2, 141124, Note_on_c, 8, 68, 127
2, 141315, Note_off_c, 10, 45, 127
2, 141318, Note_on_c, 8, 44, 127
2, 141509, Note_off_c, 8, 44, 127
2, 141509, Note_off_c, 8, 68, 127
2, 141509, Note_off_c, 12, 59, 127
2, 141511, Note_on_c, 6, 42, 127
2, 141511, Note_on_c, 1, 61, 127
2, 141511, Note_on_c, 10, 69, 127
2, 141702, Note_off_c, 10, 69, 127
2, 141705, Note_on_c, 8, 68, 127
2, 141896, Note_off_c, 8, 68, 127
2, 141896, Note_off_c, 6, 42, 127
2, 141899, Note_on_c, 6, 54, 127
2, 141899, Note_on_c, 10, 69, 127
2, 142090, Note_off_c, 10, 69, 127
2, 142092, Note_on_c, 12, 71, 127
2, 142283, Note_off_c, 12, 71, 127
2, 142284, Note_off_c, 6, 54, 127
2, 142286, Note_on_c, 8, 56, 127
2, 142286, Note_on_c, 10, 69, 127
2, 142477, Note_off_c, 10, 69, 127
2, 142480, Note_on_c, 8, 68, 127
2, 142671, Note_off_c, 8, 68, 127
2, 142671, Note_off_c, 8, 56, 127
2, 142673, Note_on_c, 10, 57, 127
2, 142673, Note_on_c, 6, 66, 127
2, 142864, Note_off_c, 6, 66, 127
2, 142867, Note_on_c, 4, 64, 127
2, 143058, Note_off_c, 4, 64, 127
2, 143058, Note_off_c, 10, 57, 127
2, 143060, Note_on_c, 12, 59, 127
2, 143060, Note_on_c, 3, 63, 127
2, 143447, Note_off_c, 12, 59, 127
2, 143447, Note_off_c, 1, 61, 127
2, 143450, Note_on_c, 12, 47, 127
2, 143450, Note_on_c, 6, 54, 127
2, 143641, Note_off_c, 12, 47, 127
2, 143643, Note_on_c, 1, 49, 127
2, 143834, Note_off_c, 1, 49, 127
2, 143834, Note_off_c, 3, 63, 127
2, 143835, Note_off_c, 6, 54, 127
2, 143837, Note_on_c, 12, 47, 127
2, 143837, Note_on_c, 8, 56, 127
2, 143837, Note_on_c, 4, 64, 127
2, 144028, Note_off_c, 12, 47, 127
2, 144031, Note_on_c, 10, 45, 127
2, 144222, Note_off_c, 10, 45, 127
2, 144222, Note_off_c, 4, 64, 127
2, 144222, Note_off_c, 8, 56, 127
2, 144224, Note_on_c, 8, 44, 127
2, 144224, Note_on_c, 10, 57, 127
2, 144224, Note_on_c, 6, 66, 127
2, 144415, Note_off_c, 8, 44, 127
2, 144418, Note_on_c, 6, 42, 127
2, 144609, Note_off_c, 6, 42, 127
2, 144609, Note_off_c, 6, 66, 127
2, 144609, Note_off_c, 10, 57, 127
2, 144612, Note_on_c, 4, 40, 127
2, 144612, Note_on_c, 12, 59, 127
2, 144612, Note_on_c, 8, 68, 127
2, 144803, Note_off_c, 4, 40, 127
2, 144805, Note_on_c, 12, 47, 127
2, 144996, Note_off_c, 12, 47, 127
2, 144997, Note_off_c, 8, 68, 127
2, 144997, Note_off_c, 12, 59, 127
2, 144999, Note_on_c, 4, 52, 127
2, 144999, Note_on_c, 12, 59, 127
2, 144999, Note_on_c, 8, 68, 127
2, 145190, Note_off_c, 4, 52, 127
2, 145193, Note_on_c, 6, 54, 127
2, 145384, Note_off_c, 6, 54, 127
2, 145384, Note_off_c, 8, 68, 127
2, 145384, Note_off_c, 12, 59, 127
2, 145386, Note_on_c, 4, 52, 127
2, 145386, Note_on_c, 1, 61, 127
2, 145386, Note_on_c, 11, 70, 127
2, 145577, Note_off_c, 4, 52, 127
2, 145580, Note_on_c, 3, 51, 127
2, 145771, Note_off_c, 3, 51, 127
2, 145771, Note_off_c, 11, 70, 127
2, 145771, Note_off_c, 1, 61, 127
2, 145773, Note_on_c, 1, 49, 127
2, 145773, Note_on_c, 3, 63, 127
2, 145773, Note_on_c, 12, 71, 127
2, 145964, Note_off_c, 1, 49, 127
2, 145967, Note_on_c, 12, 47, 127
2, 146158, Note_off_c, 12, 47, 127
2, 146158, Note_off_c, 12, 71, 127
2, 146158, Note_off_c, 3, 63, 127
2, 146161, Note_on_c, 11, 46, 127
2, 146161, Note_on_c, 4, 64, 127
2, 146161, Note_on_c, 1, 73, 127
2, 146352, Note_off_c, 4, 64, 127
2, 146354, Note_on_c, 12, 71, 127
2, 146545, Note_off_c, 12, 71, 127
2, 146546, Note_off_c, 11, 46, 127
2, 146548, Note_on_c, 6, 42, 127
2, 146548, Note_on_c, 11, 70, 127
2, 146739, Note_off_c, 11, 70, 127
2, 146742, Note_on_c, 8, 68, 127
2, 146933, Note_off_c, 8, 68, 127
2, 146933, Note_off_c, 6, 42, 127
2, 146935, Note_on_c, 8, 44, 127
2, 146935, Note_on_c, 6, 66, 127
2, 147126, Note_off_c, 6, 66, 127
2, 147129, Note_on_c, 4, 64, 127
2, 147320, Note_off_c, 4, 64, 127
2, 147320, Note_off_c, 8, 44, 127
2, 147323, Note_on_c, 11, 46, 127
2, 147323, Note_on_c, 3, 63, 127
2, 147514, Note_off_c, 3, 63, 127
2, 147516, Note_on_c, 1, 61, 127
2, 147707, Note_off_c, 1, 61, 127
2, 147708, Note_off_c, 11, 46, 127
2, 147710, Note_on_c, 12, 47, 127
2, 147710, Note_on_c, 3, 63, 127
2, 147901, Note_off_c, 12, 47, 127
2, 147904, Note_on_c, 1, 49, 127
2, 148095, Note_off_c, 1, 49, 127
2, 148095, Note_off_c, 3, 63, 127
2, 148097, Note_off_c, 1, 73, 127
2, 148097, Note_on_c, 3, 51, 127
2, 148097, Note_on_c, 12, 71, 127
2, 148288, Note_off_c, 3, 51, 127
2, 148291, Note_on_c, 4, 52, 127
2, 148482, Note_off_c, 4, 52, 127
2, 148482, Note_off_c, 12, 71, 127
2, 148484, Note_on_c, 6, 54, 127
2, 148484, Note_on_c, 11, 70, 127
2, 148675, Note_off_c, 6, 54, 127
2, 148678, Note_on_c, 8, 56, 127
2, 148869, Note_off_c, 8, 56, 127
2, 148869, Note_off_c, 11, 70, 127
2, 148872, Note_on_c, 11, 58, 127
2, 148872, Note_on_c, 12, 71, 127
2, 149063, Note_off_c, 11, 58, 127
2, 149065, Note_on_c, 12, 59, 127
2, 149256, Note_off_c, 12, 59, 127
2, 149257, Note_off_c, 12, 71, 127
2, 149259, Note_on_c, 4, 52, 127
2, 149259, Note_on_c, 1, 73, 127
2, 149453, Note_on_c, 3, 63, 127
2, 149644, Note_off_c, 3, 63, 127
2, 149646, Note_on_c, 1, 61, 127
2, 149837, Note_off_c, 1, 61, 127
2, 149840, Note_on_c, 12, 59, 127
2, 150031, Note_off_c, 12, 59, 127
2, 150031, Note_off_c, 1, 73, 127
2, 150034, Note_on_c, 11, 58, 127
2, 150034, Note_on_c, 6, 66, 127
2, 150225, Note_off_c, 11, 58, 127
2, 150227, Note_on_c, 8, 56, 127
2, 150418, Note_off_c, 8, 56, 127
2, 150419, Note_off_c, 6, 66, 127
2, 150421, Note_on_c, 6, 54, 127
2, 150421, Note_on_c, 8, 68, 127
2, 150610, Note_off_c, 4, 52, 127
2, 150612, Note_off_c, 8, 68, 127
2, 150612, Note_off_c, 6, 54, 127
2, 150614, Note_on_c, 4, 52, 127
2, 150614, Note_on_c, 11, 70, 127
2, 150805, Note_off_c, 11, 70, 127
2, 150805, Note_off_c, 4, 52, 127
2, 150808, Note_on_c, 6, 54, 127
2, 150808, Note_on_c, 3, 51, 127
2, 150808, Note_on_c, 12, 71, 127
2, 150999, Note_off_c, 3, 51, 127
2, 150999, Note_off_c, 6, 54, 127
2, 151002, Note_on_c, 3, 51, 127
2, 151193, Note_off_c, 12, 71, 127
2, 151195, Note_on_c, 4, 52, 127
2, 151195, Note_on_c, 1, 73, 127
2, 151386, Note_off_c, 1, 73, 127
2, 151386, Note_off_c, 4, 52, 127
2, 151389, Note_on_c, 6, 54, 127
2, 151389, Note_on_c, 3, 75, 127
2, 151566, Note_off_c, 3, 51, 127
2, 151580, Note_off_c, 3, 75, 127
2, 151580, Note_off_c, 6, 54, 127
2, 151583, Note_on_c, 1, 49, 127
2, 151583, Note_on_c, 8, 56, 127
2, 151583, Note_on_c, 4, 76, 127
2, 151774, Note_off_c, 8, 56, 127
2, 151776, Note_on_c, 11, 58, 127
2, 151967, Note_off_c, 11, 58, 127
2, 151968, Note_off_c, 4, 76, 127
2, 151968, Note_off_c, 1, 49, 127
2, 151970, Note_on_c, 8, 56, 127
2, 151970, Note_on_c, 12, 59, 127
2, 151970, Note_on_c, 3, 75, 127
2, 152161, Note_off_c, 8, 56, 127
2, 152164, Note_on_c, 6, 54, 127
2, 152355, Note_off_c, 6, 54, 127
2, 152355, Note_off_c, 3, 75, 127
2, 152357, Note_on_c, 4, 52, 127
2, 152357, Note_on_c, 3, 75, 127
2, 152541, Note_on_c, 1, 73, 127
2, 152548, Note_off_c, 4, 52, 127
2, 152551, Note_on_c, 3, 51, 127
2, 152556, Note_off_c, 3, 75, 127
2, 152631, Note_on_c, 3, 75, 127
2, 152635, Note_off_c, 1, 73, 127
2, 152722, Note_on_c, 1, 73, 127
2, 152725, Note_off_c, 3, 75, 127
2, 152742, Note_off_c, 3, 51, 127
2, 152745, Note_on_c, 1, 49, 127
2, 152812, Note_on_c, 3, 75, 127
2, 152816, Note_off_c, 1, 73, 127
2, 152903, Note_on_c, 1, 73, 127
2, 152906, Note_off_c, 3, 75, 127
2, 152936, Note_off_c, 1, 49, 127
2, 152938, Note_on_c, 3, 51, 127
2, 152996, Note_on_c, 3, 75, 127
2, 152999, Note_off_c, 1, 73, 127
2, 153086, Note_on_c, 1, 73, 127
2, 153090, Note_off_c, 3, 75, 127
2, 153131, Note_off_c, 3, 51, 127
2, 153131, Note_off_c, 12, 59, 127
2, 153134, Note_on_c, 4, 52, 127
2, 153134, Note_on_c, 11, 58, 127
2, 153179, Note_on_c, 3, 75, 127
2, 153182, Note_off_c, 1, 73, 127
2, 153270, Note_on_c, 1, 73, 127
2, 153273, Note_off_c, 3, 75, 127
2, 153327, Note_off_c, 4, 52, 127
2, 153330, Note_on_c, 8, 56, 127
2, 153363, Note_on_c, 3, 75, 127
2, 153366, Note_off_c, 1, 73, 127
2, 153453, Note_on_c, 1, 73, 127
2, 153457, Note_off_c, 3, 75, 127
2, 153521, Note_off_c, 8, 56, 127
2, 153523, Note_on_c, 6, 54, 127
2, 153544, Note_on_c, 3, 75, 127
2, 153547, Note_off_c, 1, 73, 127
2, 153634, Note_on_c, 1, 73, 127
2, 153638, Note_off_c, 3, 75, 127
2, 153714, Note_off_c, 6, 54, 127
2, 153714, Note_off_c, 11, 58, 127
2, 153717, Note_on_c, 4, 52, 127
2, 153717, Note_on_c, 8, 56, 127
2, 153725, Note_on_c, 3, 75, 127
2, 153728, Note_off_c, 1, 73, 127
2, 153816, Note_on_c, 1, 73, 127
2, 153819, Note_off_c, 3, 75, 127
2, 153908, Note_off_c, 8, 56, 127
2, 153908, Note_off_c, 4, 52, 127
2, 153910, Note_on_c, 3, 51, 127
2, 153910, Note_on_c, 6, 54, 127
2, 154300, Note_off_c, 1, 73, 127
2, 154300, Note_on_c, 12, 71, 127
2, 154300, Note_on_c, 6, 78, 127
2, 154491, Note_off_c, 12, 71, 127
2, 154493, Note_on_c, 11, 70, 127
2, 154684, Note_off_c, 11, 70, 127
2, 154684, Note_off_c, 3, 51, 127
2, 154685, Note_off_c, 6, 78, 127
2, 154687, Note_on_c, 8, 44, 127
2, 154687, Note_on_c, 12, 71, 127
2, 154687, Note_on_c, 3, 75, 127
2, 155073, Note_off_c, 6, 54, 127
2, 155074, Note_off_c, 3, 75, 127
2, 155074, Note_off_c, 12, 71, 127
2, 155076, Note_on_c, 4, 52, 127
2, 155076, Note_on_c, 1, 73, 127
2, 155076, Note_on_c, 4, 76, 127
2, 155267, Note_off_c, 1, 73, 127
2, 155270, Note_on_c, 12, 71, 127
2, 155461, Note_off_c, 12, 71, 127
2, 155461, Note_off_c, 4, 76, 127
2, 155461, Note_off_c, 8, 44, 127
2, 155464, Note_on_c, 6, 42, 127
2, 155464, Note_on_c, 11, 70, 127
2, 155464, Note_on_c, 6, 78, 127
2, 155655, Note_off_c, 11, 70, 127
2, 155657, Note_on_c, 8, 68, 127
2, 155848, Note_off_c, 8, 68, 127
2, 155848, Note_off_c, 4, 52, 127
2, 155851, Note_on_c, 3, 51, 127
2, 155851, Note_on_c, 6, 66, 127
2, 156042, Note_off_c, 6, 66, 127
2, 156042, Note_off_c, 3, 51, 127
2, 156045, Note_on_c, 1, 49, 127
2, 156045, Note_on_c, 4, 64, 127
2, 156236, Note_off_c, 4, 64, 127
2, 156236, Note_off_c, 1, 49, 127
2, 156236, Note_off_c, 6, 78, 127
2, 156238, Note_on_c, 3, 51, 127
2, 156238, Note_on_c, 3, 63, 127
2, 156238, Note_on_c, 12, 71, 127
2, 156625, Note_off_c, 12, 71, 127
2, 156625, Note_off_c, 3, 63, 127
2, 156625, Note_off_c, 3, 51, 127
2, 156628, Note_on_c, 8, 56, 127
2, 156628, Note_on_c, 12, 71, 127
2, 156628, Note_on_c, 3, 75, 127
2, 156819, Note_off_c, 3, 75, 127
2, 156821, Note_on_c, 5, 77, 127
2, 157012, Note_off_c, 5, 77, 127
2, 157013, Note_off_c, 12, 71, 127
2, 157013, Note_off_c, 8, 56, 127
2, 157015, Note_on_c, 1, 49, 127
2, 157015, Note_on_c, 11, 70, 127
2, 157015, Note_on_c, 6, 78, 127
2, 157402, Note_off_c, 6, 78, 127
2, 157402, Note_off_c, 11, 70, 127
2, 157404, Note_on_c, 12, 71, 127
2, 157404, Note_on_c, 8, 80, 127
2, 157595, Note_off_c, 8, 80, 127
2, 157595, Note_off_c, 12, 71, 127
2, 157598, Note_on_c, 1, 73, 127
2, 157598, Note_on_c, 11, 82, 127
2, 157783, Note_off_c, 1, 49, 127
2, 157789, Note_off_c, 11, 82, 127
2, 157789, Note_off_c, 1, 73, 127
2, 157792, Note_on_c, 3, 75, 127
2, 157792, Note_on_c, 12, 83, 127
2, 157983, Note_off_c, 3, 75, 127
2, 157983, Note_off_c, 6, 42, 127
2, 157985, Note_on_c, 8, 44, 127
2, 157985, Note_on_c, 5, 77, 127
2, 158176, Note_off_c, 5, 77, 127
2, 158176, Note_off_c, 8, 44, 127
2, 158177, Note_off_c, 12, 83, 127
2, 158179, Note_on_c, 11, 46, 127
2, 158179, Note_on_c, 6, 78, 127
2, 158179, Note_on_c, 11, 82, 127
2, 158370, Note_off_c, 11, 46, 127
2, 158372, Note_on_c, 12, 47, 127
2, 158529, Note_off_c, 11, 82, 127
2, 158565, Note_off_c, 12, 47, 127
2, 158568, Note_on_c, 1, 49, 127
2, 158568, Note_on_c, 11, 82, 127
2, 158761, Note_off_c, 1, 49, 127
2, 158764, Note_on_c, 3, 51, 127
2, 158780, Note_on_c, 8, 80, 127
2, 158807, Note_off_c, 6, 78, 127
2, 158839, Note_off_c, 11, 82, 127
2, 158883, Note_on_c, 6, 78, 127
2, 158903, Note_off_c, 8, 80, 127
2, 158957, Note_off_c, 3, 51, 127
2, 158960, Note_on_c, 4, 52, 127
2, 158960, Note_on_c, 4, 76, 127
2, 158984, Note_on_c, 8, 80, 127
2, 159004, Note_off_c, 6, 78, 127
2, 159087, Note_on_c, 11, 82, 127
2, 159097, Note_off_c, 8, 80, 127
2, 159153, Note_off_c, 4, 76, 127
2, 159153, Note_off_c, 4, 52, 127
2, 159155, Note_on_c, 6, 54, 127
2, 159155, Note_on_c, 3, 75, 127
2, 159165, Note_on_c, 8, 80, 127
2, 159181, Note_off_c, 11, 82, 127
2, 159240, Note_on_c, 11, 82, 127
2, 159261, Note_off_c, 8, 80, 127
2, 159313, Note_on_c, 8, 80, 127
2, 159334, Note_off_c, 11, 82, 127
2, 159346, Note_off_c, 3, 75, 127
2, 159346, Note_off_c, 6, 54, 127
2, 159349, Note_on_c, 8, 56, 127
2, 159349, Note_on_c, 4, 76, 127
2, 159387, Note_on_c, 11, 82, 127
2, 159407, Note_off_c, 8, 80, 127
2, 159460, Note_on_c, 8, 80, 127
2, 159481, Note_off_c, 11, 82, 127
2, 159533, Note_on_c, 11, 82, 127
2, 159540, Note_off_c, 8, 56, 127
2, 159543, Note_on_c, 11, 58, 127
2, 159554, Note_off_c, 8, 80, 127
2, 159608, Note_on_c, 8, 80, 127
2, 159629, Note_off_c, 11, 82, 127
2, 159682, Note_on_c, 11, 82, 127
2, 159702, Note_off_c, 8, 80, 127
2, 159734, Note_off_c, 11, 58, 127
2, 159736, Note_on_c, 12, 59, 127
2, 159760, Note_on_c, 8, 80, 127
2, 159776, Note_off_c, 11, 82, 127
2, 159828, Note_on_c, 11, 82, 127
2, 159854, Note_off_c, 8, 80, 127
2, 159902, Note_on_c, 8, 80, 127
2, 159922, Note_off_c, 11, 82, 127
2, 159927, Note_off_c, 12, 59, 127
2, 159930, Note_on_c, 8, 56, 127
2, 159977, Note_on_c, 11, 82, 127
2, 159998, Note_off_c, 8, 80, 127
2, 160050, Note_on_c, 8, 80, 127
2, 160071, Note_off_c, 11, 82, 127
2, 160121, Note_off_c, 8, 56, 127
2, 160123, Note_on_c, 11, 58, 127
2, 160123, Note_on_c, 6, 78, 127
2, 160144, Note_off_c, 8, 80, 127
2, 160318, Note_off_c, 11, 58, 127
2, 160321, Note_on_c, 8, 56, 127
2, 160516, Note_off_c, 8, 56, 127
2, 160517, Note_off_c, 4, 76, 127
2, 160519, Note_on_c, 6, 54, 127
2, 160519, Note_on_c, 3, 75, 127
2, 160714, Note_off_c, 3, 75, 127
2, 160714, Note_off_c, 6, 54, 127
2, 160717, Note_on_c, 4, 52, 127
2, 160717, Note_on_c, 1, 73, 127
2, 160912, Note_off_c, 1, 73, 127
2, 160912, Note_off_c, 4, 52, 127
2, 160914, Note_on_c, 3, 51, 127
2, 160914, Note_on_c, 12, 71, 127
2, 161113, Note_off_c, 3, 51, 127
2, 161116, Note_on_c, 1, 49, 127
2, 161315, Note_off_c, 1, 49, 127
2, 161315, Note_off_c, 6, 78, 127
2, 161318, Note_on_c, 3, 51, 127
2, 161318, Note_on_c, 4, 76, 127
2, 161517, Note_off_c, 4, 76, 127
2, 161517, Note_off_c, 3, 51, 127
2, 161520, Note_on_c, 4, 52, 127
2, 161520, Note_on_c, 3, 75, 127
2, 161719, Note_off_c, 3, 75, 127
2, 161719, Note_off_c, 4, 52, 127
2, 161722, Note_on_c, 6, 54, 127
2, 161722, Note_on_c, 1, 73, 127
2, 161932, Note_off_c, 1, 73, 127
2, 161934, Note_on_c, 3, 75, 127
2, 162144, Note_off_c, 3, 75, 127
2, 162146, Note_on_c, 1, 61, 127
2, 162146, Note_on_c, 4, 76, 127
2, 162368, Note_off_c, 1, 61, 127
2, 162371, Note_on_c, 3, 63, 127
2, 162592, Note_off_c, 12, 71, 127
2, 162593, Note_off_c, 3, 63, 127
2, 162595, Note_on_c, 1, 61, 127
2, 162595, Note_on_c, 11, 70, 127
2, 162842, Note_off_c, 1, 61, 127
2, 162842, Note_off_c, 4, 76, 127
2, 162845, Note_on_c, 12, 59, 127
2, 162845, Note_on_c, 8, 80, 127
2, 163092, Note_off_c, 8, 80, 127
2, 163092, Note_off_c, 12, 59, 127
2, 163094, Note_on_c, 11, 58, 127
2, 163094, Note_on_c, 6, 78, 127
2, 163386, Note_off_c, 6, 78, 127
2, 163386, Note_off_c, 11, 58, 127
2, 163389, Note_on_c, 8, 56, 127
2, 163389, Note_on_c, 4, 76, 127
2, 163760, Note_off_c, 11, 70, 127
2, 163761, Note_off_c, 4, 76, 127
2, 163761, Note_off_c, 8, 56, 127
2, 163761, Note_off_c, 6, 54, 127
2, 163766, Note_on_c, 12, 47, 127
2, 163766, Note_on_c, 6, 54, 127
2, 163766, Note_on_c, 12, 71, 127
2, 163766, Note_on_c, 3, 75, 127
2, 166808, Note_off_c, 3, 75, 127
2, 166808, Note_off_c, 12, 71, 127
2, 166808, Note_off_c, 6, 54, 127
2, 166808, Note_off_c, 12, 47, 127
2, 172032, End_track
3, 0, Start_track
3, 0, Title_t, "MIDI"
3, 1536, End_track
0, 0, End_of_file
