0, 0, Header, 1, 3, 384
1, 0, Start_track
1, 0, Time_signature, 4, 2, 24, 8
1, 0, Tempo, 500000
1, 245760, End_track
2, 0, Start_track
2, 0, Text_t, "harpsichord: John Sankey"
2, 0, Program_c, 0, 6
2, 0, Pitch_bend_c, 0, 8192
2, 0, Program_c, 1, 6
2, 0, Pitch_bend_c, 1, 7792
2, 0, Program_c, 2, 6
2, 0, Pitch_bend_c, 2, 7876
2, 0, Program_c, 3, 6
2, 0, Pitch_bend_c, 3, 7952
2, 0, Program_c, 4, 6
2, 0, Pitch_bend_c, 4, 7792
2, 0, Program_c, 5, 6
2, 0, Pitch_bend_c, 5, 8112
2, 0, Program_c, 6, 6
2, 0, Pitch_bend_c, 6, 7712
2, 0, Program_c, 7, 6
2, 0, Pitch_bend_c, 7, 8037
2, 0, Program_c, 8, 6
2, 0, Pitch_bend_c, 8, 7872
2, 0, Program_c, 10, 6
2, 0, Pitch_bend_c, 10, 7712
2, 0, Program_c, 11, 6
2, 0, Pitch_bend_c, 11, 8032
2, 0, Program_c, 12, 6
2, 0, Pitch_bend_c, 12, 7872
2, 0, Title_t, "Track 1"
2, 65, Note_on_c, 3, 51, 127
2, 133, Note_on_c, 2, 50, 127
2, 137, Note_off_c, 3, 51, 127
2, 201, Note_on_c, 3, 51, 127
2, 246, Note_off_c, 2, 50, 127
2, 430, Note_on_c, 7, 67, 127
2, 510, Note_on_c, 8, 68, 127
2, 540, Note_off_c, 7, 67, 127
2, 590, Note_on_c, 11, 70, 127
2, 620, Note_off_c, 8, 68, 127
2, 670, Note_on_c, 8, 68, 127
2, 700, Note_off_c, 11, 70, 127
2, 750, Note_on_c, 7, 67, 127
2, 780, Note_off_c, 8, 68, 127
2, 831, Note_on_c, 5, 65, 127
2, 860, Note_off_c, 7, 67, 127
2, 911, Note_on_c, 3, 63, 127
2, 941, Note_off_c, 5, 65, 127
2, 991, Note_on_c, 1, 73, 127
2, 1283, Note_on_c, 7, 55, 127
2, 1368, Note_on_c, 8, 56, 127
2, 1404, Note_off_c, 7, 55, 127
2, 1455, Note_on_c, 11, 58, 127
2, 1478, Note_off_c, 8, 56, 127
2, 1541, Note_on_c, 8, 56, 127
2, 1565, Note_off_c, 11, 58, 127
2, 1627, Note_on_c, 7, 55, 127
2, 1651, Note_off_c, 8, 56, 127
2, 1712, Note_off_c, 3, 51, 127
2, 1713, Note_on_c, 5, 53, 127
2, 1737, Note_off_c, 7, 55, 127
2, 1800, Note_on_c, 3, 51, 127
2, 1823, Note_off_c, 5, 53, 127
2, 1885, Note_on_c, 8, 56, 127
2, 2097, Note_off_c, 3, 63, 127
2, 2113, Note_off_c, 1, 73, 127
2, 2207, Note_on_c, 0, 72, 127
2, 2294, Note_on_c, 1, 73, 127
2, 2317, Note_off_c, 0, 72, 127
2, 2378, Note_on_c, 3, 75, 127
2, 2404, Note_off_c, 1, 73, 127
2, 2458, Note_on_c, 1, 73, 127
2, 2488, Note_off_c, 3, 75, 127
2, 2538, Note_on_c, 0, 72, 127
2, 2568, Note_off_c, 1, 73, 127
2, 2619, Note_on_c, 11, 70, 127
2, 2648, Note_off_c, 0, 72, 127
2, 2699, Note_on_c, 8, 68, 127
2, 2729, Note_off_c, 11, 70, 127
2, 2779, Note_on_c, 5, 77, 127
2, 3007, Note_off_c, 8, 56, 127
2, 3071, Note_on_c, 8, 56, 127
2, 3156, Note_on_c, 11, 58, 127
2, 3192, Note_off_c, 8, 56, 127
2, 3243, Note_on_c, 0, 60, 127
2, 3266, Note_off_c, 11, 58, 127
2, 3328, Note_on_c, 11, 58, 127
2, 3353, Note_off_c, 0, 60, 127
2, 3415, Note_on_c, 8, 56, 127
2, 3438, Note_off_c, 11, 58, 127
2, 3502, Note_on_c, 7, 55, 127
2, 3525, Note_off_c, 8, 56, 127
2, 3587, Note_on_c, 5, 53, 127
2, 3612, Note_off_c, 7, 55, 127
2, 3674, Note_on_c, 2, 62, 127
2, 3697, Note_off_c, 5, 53, 127
2, 3885, Note_off_c, 8, 68, 127
2, 3901, Note_off_c, 5, 77, 127
2, 3995, Note_on_c, 2, 74, 127
2, 4082, Note_on_c, 3, 75, 127
2, 4105, Note_off_c, 2, 74, 127
2, 4166, Note_on_c, 5, 77, 127
2, 4192, Note_off_c, 3, 75, 127
2, 4246, Note_on_c, 3, 75, 127
2, 4276, Note_off_c, 5, 77, 127
2, 4327, Note_on_c, 2, 74, 127
2, 4356, Note_off_c, 3, 75, 127
2, 4407, Note_on_c, 0, 72, 127
2, 4437, Note_off_c, 2, 74, 127
2, 4487, Note_on_c, 11, 70, 127
2, 4517, Note_off_c, 0, 72, 127
2, 4568, Note_on_c, 8, 80, 127
2, 4796, Note_off_c, 2, 62, 127
2, 4848, Note_on_c, 2, 62, 127
2, 4941, Note_on_c, 3, 63, 127
2, 4969, Note_off_c, 2, 62, 127
2, 5030, Note_on_c, 5, 65, 127
2, 5051, Note_off_c, 3, 63, 127
2, 5117, Note_on_c, 3, 63, 127
2, 5140, Note_off_c, 5, 65, 127
2, 5203, Note_on_c, 2, 62, 127
2, 5227, Note_off_c, 3, 63, 127
2, 5289, Note_on_c, 0, 60, 127
2, 5291, Note_off_c, 3, 51, 127
2, 5313, Note_off_c, 2, 62, 127
2, 5375, Note_on_c, 11, 58, 127
2, 5399, Note_off_c, 0, 60, 127
2, 5462, Note_on_c, 3, 63, 127
2, 5485, Note_off_c, 11, 58, 127
2, 5650, Note_off_c, 11, 70, 127
2, 5690, Note_off_c, 8, 80, 127
2, 5787, Note_on_c, 5, 77, 127
2, 5874, Note_on_c, 7, 79, 127
2, 5897, Note_off_c, 5, 77, 127
2, 5954, Note_on_c, 8, 80, 127
2, 5984, Note_off_c, 7, 79, 127
2, 6034, Note_on_c, 7, 79, 127
2, 6064, Note_off_c, 8, 80, 127
2, 6114, Note_on_c, 5, 77, 127
2, 6144, Note_off_c, 7, 79, 127
2, 6194, Note_on_c, 3, 75, 127
2, 6224, Note_off_c, 5, 77, 127
2, 6274, Note_on_c, 2, 74, 127
2, 6304, Note_off_c, 3, 75, 127
2, 6355, Note_on_c, 3, 75, 127
2, 6355, Note_on_c, 7, 79, 127
2, 6384, Note_off_c, 2, 74, 127
2, 6584, Note_off_c, 3, 63, 127
2, 6605, Note_on_c, 3, 63, 127
2, 6698, Note_on_c, 5, 65, 127
2, 6726, Note_off_c, 3, 63, 127
2, 6783, Note_on_c, 7, 67, 127
2, 6808, Note_off_c, 5, 65, 127
2, 6881, Note_on_c, 5, 65, 127
2, 6893, Note_off_c, 7, 67, 127
2, 6973, Note_on_c, 3, 63, 127
2, 6991, Note_off_c, 5, 65, 127
2, 7065, Note_on_c, 2, 62, 127
2, 7083, Note_off_c, 3, 63, 127
2, 7157, Note_on_c, 0, 60, 127
2, 7175, Note_off_c, 2, 62, 127
2, 7249, Note_on_c, 11, 58, 127
2, 7267, Note_off_c, 0, 60, 127
2, 7359, Note_off_c, 3, 75, 127
2, 7466, Note_on_c, 3, 75, 127
2, 7466, Note_on_c, 0, 60, 127
2, 7477, Note_off_c, 7, 79, 127
2, 7567, Note_on_c, 5, 77, 127
2, 7567, Note_on_c, 2, 62, 127
2, 7575, Note_off_c, 11, 58, 127
2, 7576, Note_off_c, 0, 60, 127
2, 7587, Note_off_c, 3, 75, 127
2, 7657, Note_on_c, 7, 79, 127
2, 7657, Note_on_c, 3, 63, 127
2, 7677, Note_off_c, 2, 62, 127
2, 7677, Note_off_c, 5, 77, 127
2, 7759, Note_on_c, 5, 77, 127
2, 7759, Note_on_c, 2, 62, 127
2, 7767, Note_off_c, 3, 63, 127
2, 7767, Note_off_c, 7, 79, 127
2, 7855, Note_on_c, 0, 60, 127
2, 7855, Note_on_c, 3, 75, 127
2, 7869, Note_off_c, 2, 62, 127
2, 7869, Note_off_c, 5, 77, 127
2, 7951, Note_on_c, 11, 58, 127
2, 7951, Note_on_c, 2, 74, 127
2, 7965, Note_off_c, 3, 75, 127
2, 7965, Note_off_c, 0, 60, 127
2, 8047, Note_on_c, 0, 72, 127
2, 8047, Note_on_c, 8, 56, 127
2, 8061, Note_off_c, 2, 74, 127
2, 8061, Note_off_c, 11, 58, 127
2, 8143, Note_on_c, 7, 55, 127
2, 8143, Note_on_c, 0, 84, 127
2, 8157, Note_off_c, 8, 56, 127
2, 8393, Note_on_c, 3, 51, 127
2, 8469, Note_off_c, 7, 55, 127
2, 8485, Note_on_c, 5, 53, 127
2, 8503, Note_off_c, 3, 51, 127
2, 8571, Note_on_c, 7, 55, 127
2, 8595, Note_off_c, 5, 53, 127
2, 8669, Note_on_c, 5, 53, 127
2, 8681, Note_off_c, 7, 55, 127
2, 8761, Note_on_c, 3, 51, 127
2, 8779, Note_off_c, 5, 53, 127
2, 8852, Note_on_c, 2, 50, 127
2, 8871, Note_off_c, 3, 51, 127
2, 8945, Note_on_c, 0, 48, 127
2, 8962, Note_off_c, 2, 50, 127
2, 9037, Note_on_c, 5, 53, 127
2, 9037, Note_on_c, 2, 74, 127
2, 9047, Note_off_c, 0, 72, 127
2, 9055, Note_off_c, 0, 48, 127
2, 9147, Note_off_c, 0, 84, 127
2, 9316, Note_on_c, 0, 48, 127
2, 9316, Note_on_c, 10, 81, 127
2, 9386, Note_off_c, 5, 53, 127
2, 9414, Note_on_c, 2, 50, 127
2, 9414, Note_on_c, 11, 82, 127
2, 9426, Note_off_c, 10, 81, 127
2, 9426, Note_off_c, 0, 48, 127
2, 9500, Note_on_c, 3, 51, 127
2, 9500, Note_on_c, 0, 84, 127
2, 9524, Note_off_c, 11, 82, 127
2, 9524, Note_off_c, 2, 50, 127
2, 9586, Note_on_c, 11, 82, 127
2, 9586, Note_on_c, 2, 50, 127
2, 9610, Note_off_c, 0, 84, 127
2, 9610, Note_off_c, 3, 51, 127
2, 9672, Note_on_c, 0, 48, 127
2, 9672, Note_on_c, 10, 81, 127
2, 9696, Note_off_c, 2, 50, 127
2, 9696, Note_off_c, 11, 82, 127
2, 9759, Note_on_c, 11, 46, 127
2, 9759, Note_on_c, 7, 79, 127
2, 9782, Note_off_c, 10, 81, 127
2, 9782, Note_off_c, 0, 48, 127
2, 9844, Note_on_c, 10, 45, 127
2, 9844, Note_on_c, 5, 77, 127
2, 9869, Note_off_c, 7, 79, 127
2, 9869, Note_off_c, 11, 46, 127
2, 9928, Note_off_c, 2, 74, 127
2, 9931, Note_on_c, 2, 50, 127
2, 9931, Note_on_c, 11, 82, 127
2, 9954, Note_off_c, 5, 77, 127
2, 9954, Note_off_c, 10, 45, 127
2, 10134, Note_on_c, 11, 46, 127
2, 10134, Note_on_c, 10, 81, 127
2, 10234, Note_on_c, 0, 48, 127
2, 10234, Note_on_c, 7, 79, 127
2, 10244, Note_off_c, 10, 81, 127
2, 10244, Note_off_c, 11, 46, 127
2, 10256, Note_off_c, 11, 82, 127
2, 10256, Note_off_c, 2, 50, 127
2, 10329, Note_on_c, 2, 50, 127
2, 10329, Note_on_c, 5, 77, 127
2, 10344, Note_off_c, 7, 79, 127
2, 10344, Note_off_c, 0, 48, 127
2, 10433, Note_on_c, 0, 48, 127
2, 10433, Note_on_c, 3, 75, 127
2, 10439, Note_off_c, 5, 77, 127
2, 10439, Note_off_c, 2, 50, 127
2, 10531, Note_on_c, 11, 46, 127
2, 10531, Note_on_c, 2, 74, 127
2, 10543, Note_off_c, 3, 75, 127
2, 10543, Note_off_c, 0, 48, 127
2, 10629, Note_on_c, 10, 45, 127
2, 10629, Note_on_c, 0, 72, 127
2, 10641, Note_off_c, 2, 74, 127
2, 10641, Note_off_c, 11, 46, 127
2, 10727, Note_on_c, 7, 43, 127
2, 10727, Note_on_c, 11, 70, 127
2, 10739, Note_off_c, 0, 72, 127
2, 10739, Note_off_c, 10, 45, 127
2, 10825, Note_on_c, 0, 48, 127
2, 10825, Note_on_c, 3, 75, 127
2, 10837, Note_off_c, 11, 70, 127
2, 10837, Note_off_c, 7, 43, 127
2, 10935, Note_off_c, 3, 75, 127
2, 10936, Note_on_c, 2, 74, 127
2, 11046, Note_off_c, 2, 74, 127
2, 11048, Note_on_c, 3, 75, 127
2, 11144, Note_on_c, 3, 51, 127
2, 11237, Note_on_c, 5, 53, 127
2, 11254, Note_off_c, 3, 51, 127
2, 11317, Note_on_c, 7, 55, 127
2, 11347, Note_off_c, 5, 53, 127
2, 11397, Note_on_c, 5, 53, 127
2, 11427, Note_off_c, 7, 55, 127
2, 11478, Note_on_c, 3, 51, 127
2, 11507, Note_off_c, 5, 53, 127
2, 11557, Note_on_c, 2, 50, 127
2, 11588, Note_off_c, 3, 51, 127
2, 11604, Note_off_c, 0, 48, 127
2, 11637, Note_on_c, 0, 48, 127
2, 11667, Note_off_c, 2, 50, 127
2, 11718, Note_on_c, 10, 57, 127
2, 11828, Note_off_c, 3, 75, 127
2, 12082, Note_on_c, 3, 75, 127
2, 12159, Note_on_c, 5, 77, 127
2, 12192, Note_off_c, 3, 75, 127
2, 12234, Note_on_c, 7, 79, 127
2, 12269, Note_off_c, 5, 77, 127
2, 12309, Note_on_c, 5, 77, 127
2, 12344, Note_off_c, 7, 79, 127
2, 12385, Note_on_c, 3, 75, 127
2, 12419, Note_off_c, 5, 77, 127
2, 12460, Note_on_c, 2, 74, 127
2, 12495, Note_off_c, 3, 75, 127
2, 12537, Note_on_c, 0, 72, 127
2, 12570, Note_off_c, 2, 74, 127
2, 12609, Note_off_c, 10, 57, 127
2, 12612, Note_on_c, 11, 46, 127
2, 12612, Note_on_c, 11, 58, 127
2, 12612, Note_on_c, 2, 74, 127
2, 12637, Note_off_c, 0, 48, 127
2, 12647, Note_off_c, 0, 72, 127
2, 12685, Note_off_c, 2, 74, 127
2, 12687, Note_on_c, 0, 72, 127
2, 12760, Note_off_c, 0, 72, 127
2, 12761, Note_on_c, 2, 74, 127
2, 12834, Note_off_c, 2, 74, 127
2, 12835, Note_on_c, 3, 75, 127
2, 12908, Note_off_c, 3, 75, 127
2, 12911, Note_on_c, 2, 74, 127
2, 12984, Note_off_c, 2, 74, 127
2, 12985, Note_on_c, 0, 72, 127
2, 13058, Note_off_c, 0, 72, 127
2, 13059, Note_on_c, 11, 70, 127
2, 13132, Note_off_c, 11, 70, 127
2, 13134, Note_on_c, 10, 69, 127
2, 13207, Note_off_c, 10, 69, 127
2, 13208, Note_on_c, 11, 70, 127
2, 13281, Note_off_c, 11, 70, 127
2, 13282, Note_on_c, 10, 69, 127
2, 13355, Note_off_c, 10, 69, 127
2, 13357, Note_on_c, 11, 70, 127
2, 13430, Note_off_c, 11, 70, 127
2, 13432, Note_on_c, 0, 72, 127
2, 13505, Note_off_c, 0, 72, 127
2, 13506, Note_on_c, 11, 70, 127
2, 13579, Note_off_c, 11, 70, 127
2, 13580, Note_on_c, 8, 68, 127
2, 13653, Note_off_c, 8, 68, 127
2, 13655, Note_on_c, 7, 67, 127
2, 13728, Note_off_c, 7, 67, 127
2, 13729, Note_on_c, 5, 65, 127
2, 13802, Note_off_c, 5, 65, 127
2, 13804, Note_on_c, 7, 67, 127
2, 13877, Note_off_c, 7, 67, 127
2, 13879, Note_on_c, 5, 65, 127
2, 13952, Note_off_c, 5, 65, 127
2, 13953, Note_on_c, 7, 67, 127
2, 14026, Note_off_c, 7, 67, 127
2, 14027, Note_on_c, 8, 68, 127
2, 14100, Note_off_c, 8, 68, 127
2, 14102, Note_on_c, 7, 67, 127
2, 14175, Note_off_c, 7, 67, 127
2, 14176, Note_on_c, 5, 65, 127
2, 14249, Note_off_c, 5, 65, 127
2, 14251, Note_on_c, 3, 63, 127
2, 14324, Note_off_c, 3, 63, 127
2, 14326, Note_on_c, 2, 62, 127
2, 14399, Note_off_c, 2, 62, 127
2, 14400, Note_on_c, 3, 63, 127
2, 14473, Note_off_c, 3, 63, 127
2, 14474, Note_on_c, 2, 62, 127
2, 14547, Note_off_c, 2, 62, 127
2, 14549, Note_on_c, 3, 63, 127
2, 14622, Note_off_c, 3, 63, 127
2, 14623, Note_on_c, 5, 65, 127
2, 14696, Note_off_c, 5, 65, 127
2, 14698, Note_on_c, 3, 63, 127
2, 14771, Note_off_c, 3, 63, 127
2, 14773, Note_on_c, 2, 62, 127
2, 14846, Note_off_c, 2, 62, 127
2, 14847, Note_on_c, 0, 60, 127
2, 14848, Note_off_c, 11, 58, 127
2, 14920, Note_off_c, 0, 60, 127
2, 14921, Note_on_c, 11, 58, 127
2, 14994, Note_off_c, 11, 58, 127
2, 14996, Note_on_c, 10, 57, 127
2, 15182, Note_on_c, 0, 60, 127
2, 15255, Note_off_c, 0, 60, 127
2, 15257, Note_on_c, 2, 62, 127
2, 15330, Note_off_c, 2, 62, 127
2, 15331, Note_on_c, 3, 63, 127
2, 15404, Note_off_c, 3, 63, 127
2, 15405, Note_on_c, 5, 65, 127
2, 15478, Note_off_c, 5, 65, 127
2, 15480, Note_on_c, 7, 67, 127
2, 15553, Note_off_c, 7, 67, 127
2, 15555, Note_on_c, 10, 69, 127
2, 15628, Note_off_c, 10, 69, 127
2, 15629, Note_on_c, 11, 70, 127
2, 15702, Note_off_c, 11, 70, 127
2, 15704, Note_on_c, 0, 72, 127
2, 15777, Note_off_c, 0, 72, 127
2, 15778, Note_on_c, 10, 69, 127
2, 15851, Note_off_c, 10, 69, 127
2, 15852, Note_on_c, 5, 65, 127
2, 15925, Note_off_c, 5, 65, 127
2, 15927, Note_on_c, 7, 67, 127
2, 16000, Note_off_c, 7, 67, 127
2, 16002, Note_on_c, 10, 69, 127
2, 16075, Note_off_c, 10, 69, 127
2, 16076, Note_on_c, 11, 70, 127
2, 16149, Note_off_c, 11, 70, 127
2, 16150, Note_on_c, 0, 72, 127
2, 16223, Note_off_c, 0, 72, 127
2, 16225, Note_on_c, 2, 74, 127
2, 16298, Note_off_c, 2, 74, 127
2, 16299, Note_on_c, 0, 72, 127
2, 16299, Note_on_c, 3, 75, 127
2, 16520, Note_off_c, 3, 75, 127
2, 16523, Note_on_c, 5, 77, 127
2, 16596, Note_off_c, 5, 77, 127
2, 16597, Note_on_c, 3, 75, 127
2, 16670, Note_off_c, 3, 75, 127
2, 16672, Note_on_c, 2, 74, 127
2, 16745, Note_off_c, 2, 74, 127
2, 16746, Note_on_c, 3, 75, 127
2, 17190, Note_off_c, 0, 72, 127
2, 17414, Note_off_c, 3, 75, 127
2, 17417, Note_on_c, 2, 74, 127
2, 17418, Note_off_c, 10, 57, 127
2, 17527, Note_off_c, 2, 74, 127
2, 17528, Note_on_c, 2, 74, 127
2, 17528, Note_on_c, 5, 65, 127
2, 17528, Note_on_c, 11, 58, 127
2, 17968, Note_off_c, 11, 58, 127
2, 17969, Note_off_c, 11, 46, 127
2, 17971, Note_on_c, 3, 63, 127
2, 18189, Note_off_c, 5, 65, 127
2, 18189, Note_off_c, 2, 74, 127
2, 18413, Note_on_c, 5, 53, 127
2, 18853, Note_off_c, 5, 53, 127
2, 18853, Note_off_c, 3, 63, 127
2, 18856, Note_on_c, 2, 62, 127
2, 18856, Note_on_c, 11, 58, 127
2, 19296, Note_off_c, 2, 62, 127
2, 19298, Note_on_c, 0, 60, 127
2, 19738, Note_off_c, 11, 58, 127
2, 19739, Note_on_c, 8, 56, 127
2, 20179, Note_off_c, 8, 56, 127
2, 20180, Note_off_c, 0, 60, 127
2, 20182, Note_on_c, 3, 63, 127
2, 20182, Note_on_c, 11, 58, 127
2, 20182, Note_on_c, 7, 55, 127
2, 20622, Note_off_c, 11, 58, 127
2, 20622, Note_off_c, 3, 63, 127
2, 20624, Note_on_c, 8, 68, 127
2, 20624, Note_on_c, 0, 60, 127
2, 21064, Note_off_c, 0, 60, 127
2, 21064, Note_off_c, 7, 55, 127
2, 21067, Note_on_c, 2, 62, 127
2, 21067, Note_on_c, 5, 53, 127
2, 21506, Note_off_c, 8, 68, 127
2, 21507, Note_off_c, 5, 53, 127
2, 21507, Note_off_c, 2, 62, 127
2, 21509, Note_on_c, 11, 70, 127
2, 21509, Note_on_c, 7, 67, 127
2, 21509, Note_on_c, 3, 63, 127
2, 21509, Note_on_c, 3, 51, 127
2, 21949, Note_off_c, 3, 63, 127
2, 21949, Note_off_c, 11, 70, 127
2, 21951, Note_on_c, 3, 75, 127
2, 21951, Note_on_c, 1, 61, 127
2, 22391, Note_off_c, 1, 61, 127
2, 22391, Note_off_c, 3, 51, 127
2, 22391, Note_off_c, 7, 67, 127
2, 22394, Note_on_c, 5, 65, 127
2, 22394, Note_on_c, 0, 60, 127
2, 22394, Note_on_c, 8, 56, 127
2, 22833, Note_off_c, 3, 75, 127
2, 22834, Note_off_c, 0, 60, 127
2, 22836, Note_on_c, 2, 74, 127
2, 22836, Note_on_c, 11, 58, 127
2, 23276, Note_off_c, 2, 74, 127
2, 23276, Note_off_c, 8, 56, 127
2, 23276, Note_off_c, 5, 65, 127
2, 23279, Note_on_c, 3, 75, 127
2, 23279, Note_on_c, 7, 67, 127
2, 23279, Note_on_c, 7, 55, 127
2, 23715, Note_off_c, 3, 75, 127
2, 23718, Note_off_c, 11, 58, 127
2, 23719, Note_off_c, 7, 55, 127
2, 23720, Note_on_c, 3, 63, 127
2, 23720, Note_on_c, 0, 60, 127
2, 24161, Note_off_c, 7, 67, 127
2, 24162, Note_on_c, 8, 80, 127
2, 24162, Note_on_c, 0, 72, 127
2, 24602, Note_off_c, 0, 72, 127
2, 24602, Note_off_c, 0, 60, 127
2, 24602, Note_off_c, 3, 63, 127
2, 24605, Note_on_c, 11, 70, 127
2, 24605, Note_on_c, 5, 65, 127
2, 24605, Note_on_c, 2, 62, 127
2, 25041, Note_off_c, 5, 65, 127
2, 25044, Note_off_c, 8, 80, 127
2, 25045, Note_off_c, 2, 62, 127
2, 25047, Note_on_c, 7, 79, 127
2, 25047, Note_on_c, 3, 63, 127
2, 25487, Note_off_c, 3, 63, 127
2, 25487, Note_off_c, 11, 70, 127
2, 25490, Note_on_c, 0, 72, 127
2, 25490, Note_on_c, 8, 56, 127
2, 25929, Note_off_c, 7, 79, 127
2, 25932, Note_on_c, 5, 77, 127
2, 25932, Note_on_c, 8, 68, 127
2, 26151, Note_off_c, 5, 77, 127
2, 26153, Note_on_c, 3, 75, 127
2, 26372, Note_off_c, 3, 75, 127
2, 26372, Note_off_c, 8, 56, 127
2, 26372, Note_off_c, 0, 72, 127
2, 26374, Note_on_c, 2, 74, 127
2, 26374, Note_on_c, 11, 70, 127
2, 26374, Note_on_c, 11, 58, 127
2, 26814, Note_off_c, 2, 74, 127
2, 26814, Note_off_c, 8, 68, 127
2, 26817, Note_on_c, 3, 75, 127
2, 26817, Note_on_c, 7, 67, 127
2, 27257, Note_off_c, 7, 67, 127
2, 27258, Note_on_c, 5, 65, 127
2, 27699, Note_off_c, 3, 75, 127
2, 27701, Note_on_c, 2, 74, 127
2, 27920, Note_off_c, 11, 70, 127
2, 27922, Note_on_c, 8, 68, 127
2, 28140, Note_off_c, 5, 65, 127
2, 28141, Note_off_c, 8, 68, 127
2, 28141, Note_off_c, 2, 74, 127
2, 28143, Note_on_c, 4, 76, 127
2, 28143, Note_on_c, 7, 67, 127
2, 28143, Note_on_c, 0, 60, 127
2, 28583, Note_off_c, 7, 67, 127
2, 28583, Note_off_c, 4, 76, 127
2, 28583, Note_off_c, 11, 58, 127
2, 28585, Note_on_c, 5, 77, 127
2, 28585, Note_on_c, 0, 72, 127
2, 28585, Note_on_c, 8, 56, 127
2, 29025, Note_off_c, 8, 56, 127
2, 29025, Note_off_c, 0, 72, 127
2, 29025, Note_off_c, 0, 60, 127
2, 29028, Note_on_c, 12, 71, 127
2, 29028, Note_on_c, 2, 62, 127
2, 29028, Note_on_c, 7, 55, 127
2, 29467, Note_off_c, 5, 77, 127
2, 29468, Note_off_c, 7, 55, 127
2, 29468, Note_off_c, 2, 62, 127
2, 29468, Note_off_c, 12, 71, 127
2, 29470, Note_on_c, 3, 75, 127
2, 29470, Note_on_c, 0, 72, 127
2, 29470, Note_on_c, 3, 63, 127
2, 29470, Note_on_c, 0, 60, 127
2, 29689, Note_off_c, 0, 72, 127
2, 29691, Note_on_c, 11, 70, 127
2, 29910, Note_off_c, 11, 70, 127
2, 29910, Note_off_c, 3, 63, 127
2, 29910, Note_off_c, 3, 75, 127
2, 29913, Note_on_c, 2, 74, 127
2, 29913, Note_on_c, 8, 68, 127
2, 29913, Note_on_c, 5, 65, 127
2, 30132, Note_off_c, 5, 65, 127
2, 30133, Note_on_c, 3, 63, 127
2, 30352, Note_off_c, 3, 63, 127
2, 30352, Note_off_c, 0, 60, 127
2, 30353, Note_off_c, 8, 68, 127
2, 30353, Note_off_c, 2, 74, 127
2, 30355, Note_on_c, 7, 79, 127
2, 30355, Note_on_c, 11, 70, 127
2, 30355, Note_on_c, 2, 62, 127
2, 30355, Note_on_c, 11, 58, 127
2, 30795, Note_off_c, 11, 58, 127
2, 30795, Note_off_c, 2, 62, 127
2, 30795, Note_off_c, 11, 70, 127
2, 30797, Note_on_c, 8, 68, 127
2, 30797, Note_on_c, 3, 63, 127
2, 30797, Note_on_c, 0, 60, 127
2, 31237, Note_off_c, 0, 60, 127
2, 31237, Note_off_c, 3, 63, 127
2, 31237, Note_off_c, 7, 79, 127
2, 31239, Note_on_c, 5, 77, 127
2, 31239, Note_on_c, 5, 65, 127
2, 31239, Note_on_c, 2, 62, 127
2, 31679, Note_off_c, 2, 62, 127
2, 31679, Note_off_c, 5, 65, 127
2, 31681, Note_on_c, 11, 58, 127
2, 31681, Note_on_c, 7, 55, 127
2, 32121, Note_off_c, 5, 77, 127
2, 32122, Note_off_c, 8, 68, 127
2, 32124, Note_on_c, 3, 75, 127
2, 32124, Note_on_c, 7, 67, 127
2, 32342, Note_off_c, 7, 55, 127
2, 32345, Note_on_c, 8, 56, 127
2, 32563, Note_off_c, 11, 58, 127
2, 32564, Note_off_c, 8, 56, 127
2, 32564, Note_off_c, 7, 67, 127
2, 32566, Note_on_c, 5, 65, 127
2, 32566, Note_on_c, 11, 58, 127
2, 33006, Note_off_c, 5, 65, 127
2, 33006, Note_off_c, 3, 75, 127
2, 33008, Note_on_c, 2, 74, 127
2, 33008, Note_on_c, 7, 67, 127
2, 33008, Note_on_c, 11, 46, 127
2, 33227, Note_off_c, 7, 67, 127
2, 33229, Note_on_c, 8, 68, 127
2, 33448, Note_off_c, 8, 68, 127
2, 33448, Note_off_c, 11, 46, 127
2, 33448, Note_off_c, 11, 58, 127
2, 33451, Note_on_c, 7, 67, 127
2, 33451, Note_on_c, 3, 51, 127
2, 33890, Note_off_c, 2, 74, 127
2, 33893, Note_on_c, 0, 72, 127
2, 33893, Note_on_c, 3, 63, 127
2, 34112, Note_off_c, 3, 63, 127
2, 34112, Note_off_c, 0, 72, 127
2, 34114, Note_on_c, 11, 70, 127
2, 34114, Note_on_c, 2, 62, 127
2, 34333, Note_off_c, 2, 62, 127
2, 34333, Note_off_c, 11, 70, 127
2, 34333, Note_off_c, 7, 67, 127
2, 34336, Note_on_c, 10, 69, 127
2, 34336, Note_on_c, 5, 65, 127
2, 34336, Note_on_c, 0, 60, 127
2, 34776, Note_off_c, 0, 60, 127
2, 34776, Note_off_c, 10, 69, 127
2, 34776, Note_off_c, 3, 51, 127
2, 34777, Note_on_c, 11, 70, 127
2, 34777, Note_on_c, 2, 62, 127
2, 34777, Note_on_c, 2, 50, 127
2, 34996, Note_off_c, 2, 62, 127
2, 34999, Note_on_c, 0, 60, 127
2, 35217, Note_off_c, 2, 50, 127
2, 35218, Note_off_c, 0, 60, 127
2, 35218, Note_off_c, 5, 65, 127
2, 35219, Note_on_c, 11, 58, 127
2, 35219, Note_on_c, 7, 55, 127
2, 35438, Note_off_c, 11, 58, 127
2, 35441, Note_on_c, 8, 56, 127
2, 35659, Note_off_c, 11, 70, 127
2, 35660, Note_off_c, 8, 56, 127
2, 35662, Note_on_c, 3, 75, 127
2, 35662, Note_on_c, 3, 63, 127
2, 35662, Note_on_c, 11, 58, 127
2, 35772, Note_on_c, 2, 74, 127
2, 35880, Note_off_c, 3, 63, 127
2, 35881, Note_off_c, 2, 74, 127
2, 35883, Note_on_c, 0, 72, 127
2, 35992, Note_off_c, 0, 72, 127
2, 35994, Note_on_c, 11, 70, 127
2, 36101, Note_off_c, 7, 55, 127
2, 36102, Note_off_c, 11, 58, 127
2, 36103, Note_off_c, 11, 70, 127
2, 36104, Note_on_c, 10, 69, 127
2, 36104, Note_on_c, 0, 60, 127
2, 36104, Note_on_c, 5, 53, 127
2, 36544, Note_off_c, 0, 60, 127
2, 36544, Note_off_c, 10, 69, 127
2, 36544, Note_off_c, 3, 75, 127
2, 36547, Note_on_c, 2, 74, 127
2, 36547, Note_on_c, 11, 70, 127
2, 36547, Note_on_c, 2, 62, 127
2, 36766, Note_off_c, 2, 62, 127
2, 36767, Note_on_c, 3, 63, 127
2, 36986, Note_off_c, 3, 63, 127
2, 36987, Note_off_c, 2, 74, 127
2, 36989, Note_on_c, 0, 72, 127
2, 36989, Note_on_c, 5, 65, 127
2, 37429, Note_off_c, 11, 70, 127
2, 37431, Note_on_c, 8, 68, 127
2, 37650, Note_off_c, 5, 65, 127
2, 37652, Note_on_c, 3, 63, 127
2, 37867, Note_off_c, 8, 68, 127
2, 37871, Note_off_c, 3, 63, 127
2, 37871, Note_off_c, 0, 72, 127
2, 37871, Note_off_c, 5, 53, 127
2, 37874, Note_on_c, 11, 70, 127
2, 37874, Note_on_c, 2, 62, 127
2, 37874, Note_on_c, 7, 55, 127
2, 38093, Note_off_c, 2, 62, 127
2, 38094, Note_on_c, 11, 58, 127
2, 38312, Note_off_c, 11, 58, 127
2, 38316, Note_on_c, 3, 63, 127
2, 38316, Note_on_c, 7, 67, 127
2, 38425, Note_off_c, 7, 55, 127
2, 38427, Note_on_c, 5, 53, 127
2, 38536, Note_off_c, 5, 53, 127
2, 38537, Note_on_c, 3, 51, 127
2, 38646, Note_off_c, 3, 51, 127
2, 38647, Note_on_c, 2, 50, 127
2, 38756, Note_off_c, 2, 50, 127
2, 38756, Note_off_c, 11, 70, 127
2, 38758, Note_on_c, 8, 68, 127
2, 38758, Note_on_c, 0, 48, 127
2, 39198, Note_off_c, 0, 48, 127
2, 39198, Note_off_c, 7, 67, 127
2, 39198, Note_off_c, 3, 63, 127
2, 39200, Note_on_c, 5, 65, 127
2, 39200, Note_on_c, 11, 58, 127
2, 39200, Note_on_c, 2, 50, 127
2, 39640, Note_off_c, 2, 50, 127
2, 39640, Note_off_c, 8, 68, 127
2, 39642, Note_on_c, 7, 67, 127
2, 39642, Note_on_c, 3, 51, 127
2, 40082, Note_off_c, 5, 65, 127
2, 40085, Note_on_c, 3, 63, 127
2, 40193, Note_off_c, 3, 51, 127
2, 40195, Note_on_c, 1, 49, 127
2, 40304, Note_off_c, 1, 49, 127
2, 40304, Note_off_c, 3, 63, 127
2, 40305, Note_on_c, 1, 61, 127
2, 40305, Note_on_c, 0, 48, 127
2, 40414, Note_off_c, 0, 48, 127
2, 40417, Note_on_c, 11, 46, 127
2, 40523, Note_off_c, 11, 58, 127
2, 40524, Note_off_c, 1, 61, 127
2, 40526, Note_off_c, 11, 46, 127
2, 40527, Note_on_c, 0, 60, 127
2, 40527, Note_on_c, 8, 44, 127
2, 40967, Note_off_c, 7, 67, 127
2, 40970, Note_on_c, 5, 65, 127
2, 40970, Note_on_c, 8, 56, 127
2, 41189, Note_off_c, 8, 56, 127
2, 41189, Note_off_c, 5, 65, 127
2, 41190, Note_on_c, 3, 63, 127
2, 41190, Note_on_c, 7, 55, 127
2, 41409, Note_off_c, 7, 55, 127
2, 41409, Note_off_c, 3, 63, 127
2, 41409, Note_off_c, 8, 44, 127
2, 41409, Note_off_c, 0, 60, 127
2, 41412, Note_on_c, 2, 62, 127
2, 41412, Note_on_c, 5, 53, 127
2, 41412, Note_on_c, 11, 46, 127
2, 41852, Note_off_c, 5, 53, 127
2, 41854, Note_on_c, 11, 58, 127
2, 41854, Note_on_c, 7, 55, 127
2, 42073, Note_off_c, 7, 55, 127
2, 42075, Note_on_c, 5, 53, 127
2, 42294, Note_off_c, 5, 53, 127
2, 42294, Note_off_c, 11, 46, 127
2, 42294, Note_off_c, 2, 62, 127
2, 42296, Note_on_c, 3, 63, 127
2, 42296, Note_on_c, 3, 51, 127
2, 42296, Note_on_c, 0, 48, 127
2, 42750, Note_off_c, 11, 58, 127
2, 42752, Note_on_c, 10, 57, 127
2, 42977, Note_off_c, 3, 51, 127
2, 42979, Note_on_c, 5, 53, 127
2, 43205, Note_off_c, 5, 53, 127
2, 43205, Note_off_c, 0, 48, 127
2, 43206, Note_off_c, 10, 57, 127
2, 43208, Note_on_c, 11, 58, 127
2, 43208, Note_on_c, 7, 55, 127
2, 43208, Note_on_c, 11, 46, 127
2, 43670, Note_off_c, 7, 55, 127
2, 43670, Note_off_c, 3, 63, 127
2, 43672, Note_on_c, 2, 62, 127
2, 43672, Note_on_c, 5, 53, 127
2, 43909, Note_off_c, 5, 53, 127
2, 43909, Note_off_c, 2, 62, 127
2, 43917, Note_on_c, 0, 60, 127
2, 43917, Note_on_c, 3, 51, 127
2, 44154, Note_off_c, 3, 51, 127
2, 44154, Note_off_c, 0, 60, 127
2, 44162, Note_on_c, 2, 62, 127
2, 44162, Note_on_c, 5, 53, 127
2, 44280, Note_off_c, 2, 62, 127
2, 44287, Note_on_c, 11, 70, 127
2, 44391, Note_off_c, 11, 58, 127
2, 44405, Note_off_c, 11, 70, 127
2, 44408, Note_on_c, 0, 72, 127
2, 44526, Note_off_c, 0, 72, 127
2, 44527, Note_on_c, 2, 74, 127
2, 44629, Note_off_c, 11, 46, 127
2, 44636, Note_off_c, 5, 53, 127
2, 44645, Note_off_c, 2, 74, 127
2, 44648, Note_on_c, 3, 51, 127
2, 44648, Note_on_c, 0, 72, 127
2, 44766, Note_off_c, 0, 72, 127
2, 44767, Note_on_c, 11, 70, 127
2, 44885, Note_off_c, 11, 70, 127
2, 44887, Note_on_c, 10, 69, 127
2, 45005, Note_off_c, 10, 69, 127
2, 45007, Note_on_c, 7, 67, 127
2, 45125, Note_off_c, 7, 67, 127
2, 45127, Note_on_c, 5, 65, 127
2, 45364, Note_off_c, 5, 65, 127
2, 45367, Note_on_c, 7, 67, 127
2, 45485, Note_off_c, 7, 67, 127
2, 45486, Note_on_c, 10, 69, 127
2, 45604, Note_off_c, 10, 69, 127
2, 45604, Note_off_c, 3, 51, 127
2, 45607, Note_on_c, 2, 50, 127
2, 45607, Note_on_c, 11, 70, 127
2, 45725, Note_off_c, 11, 70, 127
2, 45726, Note_on_c, 10, 69, 127
2, 45844, Note_off_c, 10, 69, 127
2, 45846, Note_on_c, 7, 67, 127
2, 45964, Note_off_c, 7, 67, 127
2, 45966, Note_on_c, 5, 65, 127
2, 46084, Note_off_c, 5, 65, 127
2, 46084, Note_off_c, 2, 50, 127
2, 46086, Note_on_c, 7, 55, 127
2, 46086, Note_on_c, 3, 63, 127
2, 46204, Note_off_c, 3, 63, 127
2, 46206, Note_on_c, 2, 62, 127
2, 46324, Note_off_c, 2, 62, 127
2, 46326, Note_on_c, 0, 60, 127
2, 46444, Note_off_c, 0, 60, 127
2, 46445, Note_on_c, 11, 58, 127
2, 46563, Note_off_c, 11, 58, 127
2, 46566, Note_on_c, 3, 63, 127
2, 46803, Note_off_c, 3, 63, 127
2, 46806, Note_on_c, 3, 63, 127
2, 47042, Note_off_c, 7, 55, 127
2, 47043, Note_off_c, 3, 63, 127
2, 47045, Note_on_c, 5, 53, 127
2, 47045, Note_on_c, 3, 63, 127
2, 47165, Note_on_c, 8, 68, 127
2, 47283, Note_off_c, 8, 68, 127
2, 47285, Note_on_c, 11, 70, 127
2, 47403, Note_off_c, 11, 70, 127
2, 47405, Note_on_c, 0, 72, 127
2, 47522, Note_off_c, 3, 63, 127
2, 47523, Note_off_c, 0, 72, 127
2, 47525, Note_on_c, 2, 62, 127
2, 47525, Note_on_c, 11, 70, 127
2, 47643, Note_off_c, 11, 70, 127
2, 47644, Note_on_c, 8, 68, 127
2, 47762, Note_off_c, 8, 68, 127
2, 47765, Note_on_c, 7, 67, 127
2, 47883, Note_off_c, 7, 67, 127
2, 47884, Note_on_c, 5, 65, 127
2, 48001, Note_off_c, 5, 53, 127
2, 48002, Note_off_c, 5, 65, 127
2, 48002, Note_off_c, 2, 62, 127
2, 48004, Note_on_c, 3, 51, 127
2, 48004, Note_on_c, 3, 63, 127
2, 48004, Note_on_c, 7, 67, 127
2, 48124, Note_off_c, 7, 67, 127
2, 48126, Note_on_c, 3, 75, 127
2, 48246, Note_off_c, 3, 75, 127
2, 48249, Note_on_c, 5, 77, 127
2, 48369, Note_off_c, 5, 77, 127
2, 48370, Note_on_c, 7, 79, 127
2, 48488, Note_off_c, 3, 63, 127
2, 48490, Note_off_c, 7, 79, 127
2, 48493, Note_on_c, 8, 56, 127
2, 48493, Note_on_c, 5, 77, 127
2, 48613, Note_off_c, 5, 77, 127
2, 48616, Note_on_c, 3, 75, 127
2, 48735, Note_off_c, 3, 51, 127
2, 48736, Note_off_c, 3, 75, 127
2, 48737, Note_on_c, 5, 53, 127
2, 48737, Note_on_c, 2, 74, 127
2, 48857, Note_off_c, 2, 74, 127
2, 48860, Note_on_c, 0, 72, 127
2, 48980, Note_off_c, 0, 72, 127
2, 48980, Note_off_c, 5, 53, 127
2, 48982, Note_on_c, 7, 55, 127
2, 48982, Note_on_c, 11, 70, 127
2, 49225, Note_off_c, 11, 70, 127
2, 49225, Note_off_c, 7, 55, 127
2, 49226, Note_on_c, 5, 53, 127
2, 49226, Note_on_c, 0, 72, 127
2, 49346, Note_off_c, 0, 72, 127
2, 49349, Note_on_c, 2, 74, 127
2, 49469, Note_off_c, 2, 74, 127
2, 49469, Note_off_c, 5, 53, 127
2, 49469, Note_off_c, 8, 56, 127
2, 49470, Note_on_c, 3, 51, 127
2, 49470, Note_on_c, 7, 55, 127
2, 49470, Note_on_c, 3, 75, 127
2, 49590, Note_off_c, 3, 75, 127
2, 49593, Note_on_c, 2, 74, 127
2, 49713, Note_off_c, 2, 74, 127
2, 49713, Note_off_c, 3, 51, 127
2, 49716, Note_on_c, 2, 50, 127
2, 49716, Note_on_c, 0, 72, 127
2, 49836, Note_off_c, 0, 72, 127
2, 49837, Note_on_c, 11, 70, 127
2, 49954, Note_off_c, 7, 55, 127
2, 49957, Note_off_c, 11, 70, 127
2, 49959, Note_off_c, 2, 50, 127
2, 49960, Note_on_c, 0, 48, 127
2, 49960, Note_on_c, 0, 60, 127
2, 49960, Note_on_c, 8, 68, 127
2, 50080, Note_off_c, 8, 68, 127
2, 50080, Note_off_c, 0, 48, 127
2, 50082, Note_on_c, 3, 51, 127
2, 50082, Note_on_c, 7, 67, 127
2, 50202, Note_off_c, 7, 67, 127
2, 50202, Note_off_c, 3, 51, 127
2, 50204, Note_on_c, 5, 53, 127
2, 50204, Note_on_c, 5, 65, 127
2, 50324, Note_off_c, 5, 65, 127
2, 50324, Note_off_c, 5, 53, 127
2, 50326, Note_on_c, 7, 55, 127
2, 50326, Note_on_c, 3, 63, 127
2, 50446, Note_off_c, 3, 63, 127
2, 50446, Note_off_c, 7, 55, 127
2, 50448, Note_on_c, 5, 53, 127
2, 50448, Note_on_c, 8, 68, 127
2, 50568, Note_off_c, 5, 53, 127
2, 50570, Note_on_c, 3, 51, 127
2, 50690, Note_off_c, 3, 51, 127
2, 50691, Note_off_c, 8, 68, 127
2, 50693, Note_on_c, 2, 50, 127
2, 50693, Note_on_c, 8, 68, 127
2, 50813, Note_off_c, 2, 50, 127
2, 50815, Note_on_c, 0, 48, 127
2, 50935, Note_off_c, 0, 48, 127
2, 50936, Note_off_c, 8, 68, 127
2, 50936, Note_off_c, 0, 60, 127
2, 50937, Note_on_c, 3, 51, 127
2, 50937, Note_on_c, 11, 58, 127
2, 50937, Note_on_c, 8, 68, 127
2, 51057, Note_off_c, 3, 51, 127
2, 51060, Note_on_c, 2, 50, 127
2, 51180, Note_off_c, 2, 50, 127
2, 51181, Note_on_c, 0, 48, 127
2, 51301, Note_off_c, 0, 48, 127
2, 51304, Note_on_c, 11, 46, 127
2, 51424, Note_off_c, 11, 46, 127
2, 51424, Note_off_c, 8, 68, 127
2, 51426, Note_on_c, 3, 51, 127
2, 51426, Note_on_c, 7, 67, 127
2, 51546, Note_off_c, 11, 58, 127
2, 51548, Note_on_c, 2, 62, 127
2, 51668, Note_off_c, 2, 62, 127
2, 51669, Note_off_c, 3, 51, 127
2, 51670, Note_on_c, 2, 50, 127
2, 51670, Note_on_c, 3, 63, 127
2, 51790, Note_off_c, 3, 63, 127
2, 51793, Note_on_c, 5, 65, 127
2, 51913, Note_off_c, 5, 65, 127
2, 51913, Note_off_c, 2, 50, 127
2, 51915, Note_on_c, 0, 48, 127
2, 51915, Note_on_c, 3, 63, 127
2, 52035, Note_off_c, 3, 63, 127
2, 52037, Note_on_c, 2, 62, 127
2, 52157, Note_off_c, 2, 62, 127
2, 52160, Note_on_c, 0, 60, 127
2, 52280, Note_off_c, 0, 60, 127
2, 52281, Note_on_c, 11, 58, 127
2, 52401, Note_off_c, 11, 58, 127
2, 52402, Note_off_c, 7, 67, 127
2, 52404, Note_on_c, 3, 63, 127
2, 52404, Note_on_c, 10, 69, 127
2, 52524, Note_off_c, 0, 48, 127
2, 52526, Note_on_c, 0, 48, 127
2, 52646, Note_off_c, 0, 48, 127
2, 52647, Note_off_c, 3, 63, 127
2, 52648, Note_on_c, 2, 50, 127
2, 52648, Note_on_c, 0, 60, 127
2, 52768, Note_off_c, 2, 50, 127
2, 52771, Note_on_c, 3, 51, 127
2, 52891, Note_off_c, 3, 51, 127
2, 52891, Note_off_c, 0, 60, 127
2, 52891, Note_off_c, 10, 69, 127
2, 52892, Note_on_c, 2, 50, 127
2, 52892, Note_on_c, 5, 65, 127
2, 52892, Note_on_c, 11, 70, 127
2, 53012, Note_off_c, 2, 50, 127
2, 53015, Note_on_c, 0, 48, 127
2, 53135, Note_off_c, 0, 48, 127
2, 53135, Note_off_c, 11, 70, 127
2, 53137, Note_on_c, 11, 46, 127
2, 53137, Note_on_c, 0, 72, 127
2, 53257, Note_off_c, 11, 46, 127
2, 53259, Note_on_c, 10, 45, 127
2, 53379, Note_off_c, 10, 45, 127
2, 53380, Note_off_c, 0, 72, 127
2, 53381, Note_on_c, 11, 46, 127
2, 53381, Note_on_c, 2, 74, 127
2, 53501, Note_off_c, 5, 65, 127
2, 53504, Note_on_c, 5, 65, 127
2, 53624, Note_off_c, 5, 65, 127
2, 53625, Note_on_c, 11, 58, 127
2, 53625, Note_on_c, 7, 67, 127
2, 53745, Note_off_c, 7, 67, 127
2, 53748, Note_on_c, 8, 68, 127
2, 53865, Note_off_c, 11, 46, 127
2, 53868, Note_off_c, 8, 68, 127
2, 53868, Note_off_c, 11, 58, 127
2, 53871, Note_on_c, 3, 51, 127
2, 53871, Note_on_c, 11, 58, 127
2, 53871, Note_on_c, 7, 67, 127
2, 53994, Note_off_c, 7, 67, 127
2, 53996, Note_on_c, 5, 65, 127
2, 54119, Note_off_c, 5, 65, 127
2, 54122, Note_on_c, 3, 63, 127
2, 54245, Note_off_c, 3, 63, 127
2, 54248, Note_on_c, 2, 62, 127
2, 54371, Note_off_c, 2, 62, 127
2, 54372, Note_off_c, 11, 58, 127
2, 54373, Note_on_c, 3, 63, 127
2, 54373, Note_on_c, 7, 67, 127
2, 54496, Note_off_c, 2, 74, 127
2, 54499, Note_on_c, 2, 74, 127
2, 54622, Note_off_c, 2, 74, 127
2, 54625, Note_on_c, 0, 72, 127
2, 54748, Note_off_c, 0, 72, 127
2, 54750, Note_on_c, 11, 70, 127
2, 54870, Note_off_c, 3, 63, 127
2, 54873, Note_off_c, 11, 70, 127
2, 54874, Note_off_c, 7, 67, 127
2, 54875, Note_off_c, 3, 51, 127
2, 54876, Note_on_c, 5, 65, 127
2, 54876, Note_on_c, 10, 69, 127
2, 55002, Note_on_c, 5, 53, 127
2, 55125, Note_off_c, 5, 53, 127
2, 55125, Note_off_c, 10, 69, 127
2, 55127, Note_on_c, 7, 55, 127
2, 55127, Note_on_c, 11, 70, 127
2, 55250, Note_off_c, 11, 70, 127
2, 55250, Note_off_c, 7, 55, 127
2, 55253, Note_on_c, 10, 57, 127
2, 55253, Note_on_c, 0, 72, 127
2, 55376, Note_off_c, 0, 72, 127
2, 55376, Note_off_c, 10, 57, 127
2, 55378, Note_on_c, 11, 58, 127
2, 55378, Note_on_c, 2, 62, 127
2, 55378, Note_on_c, 2, 74, 127
2, 55501, Note_off_c, 11, 58, 127
2, 55504, Note_on_c, 10, 57, 127
2, 55627, Note_off_c, 10, 57, 127
2, 55630, Note_on_c, 7, 55, 127
2, 55753, Note_off_c, 7, 55, 127
2, 55755, Note_on_c, 5, 53, 127
2, 55878, Note_off_c, 5, 53, 127
2, 55880, Note_off_c, 5, 65, 127
2, 55881, Note_on_c, 3, 51, 127
2, 55881, Note_on_c, 7, 67, 127
2, 56004, Note_off_c, 3, 51, 127
2, 56007, Note_on_c, 2, 50, 127
2, 56130, Note_off_c, 2, 50, 127
2, 56132, Note_on_c, 0, 48, 127
2, 56255, Note_off_c, 0, 48, 127
2, 56258, Note_on_c, 11, 46, 127
2, 56381, Note_off_c, 11, 46, 127
2, 56382, Note_off_c, 2, 62, 127
2, 56384, Note_on_c, 3, 51, 127
2, 56384, Note_on_c, 3, 63, 127
2, 56507, Note_off_c, 2, 74, 127
2, 56510, Note_on_c, 0, 72, 127
2, 56633, Note_off_c, 0, 72, 127
2, 56633, Note_off_c, 3, 63, 127
2, 56633, Note_off_c, 3, 51, 127
2, 56636, Note_on_c, 3, 51, 127
2, 56636, Note_on_c, 2, 62, 127
2, 56636, Note_on_c, 2, 74, 127
2, 56759, Note_off_c, 2, 74, 127
2, 56762, Note_on_c, 3, 75, 127
2, 56885, Note_off_c, 3, 75, 127
2, 56885, Note_off_c, 2, 62, 127
2, 56885, Note_off_c, 3, 51, 127
2, 56885, Note_off_c, 7, 67, 127
2, 56887, Note_on_c, 3, 51, 127
2, 56887, Note_on_c, 0, 60, 127
2, 56887, Note_on_c, 5, 77, 127
2, 57013, Note_on_c, 10, 69, 127
2, 57136, Note_off_c, 10, 69, 127
2, 57139, Note_on_c, 11, 70, 127
2, 57262, Note_off_c, 11, 70, 127
2, 57264, Note_on_c, 0, 72, 127
2, 57387, Note_off_c, 0, 72, 127
2, 57388, Note_off_c, 0, 60, 127
2, 57388, Note_off_c, 3, 51, 127
2, 57390, Note_on_c, 2, 50, 127
2, 57390, Note_on_c, 2, 62, 127
2, 57390, Note_on_c, 11, 70, 127
2, 57513, Note_off_c, 11, 70, 127
2, 57516, Note_on_c, 8, 68, 127
2, 57639, Note_off_c, 8, 68, 127
2, 57641, Note_on_c, 7, 67, 127
2, 57764, Note_off_c, 7, 67, 127
2, 57767, Note_on_c, 5, 65, 127
2, 57890, Note_off_c, 5, 65, 127
2, 57891, Note_off_c, 2, 50, 127
2, 57891, Note_off_c, 5, 77, 127
2, 57893, Note_on_c, 7, 55, 127
2, 57893, Note_on_c, 11, 70, 127
2, 58017, Note_off_c, 2, 62, 127
2, 58018, Note_on_c, 2, 62, 127
2, 58018, Note_on_c, 5, 77, 127
2, 58141, Note_off_c, 5, 77, 127
2, 58141, Note_off_c, 2, 62, 127
2, 58144, Note_on_c, 3, 63, 127
2, 58144, Note_on_c, 7, 79, 127
2, 58267, Note_off_c, 7, 79, 127
2, 58267, Note_off_c, 3, 63, 127
2, 58270, Note_on_c, 5, 65, 127
2, 58270, Note_on_c, 8, 80, 127
2, 58393, Note_off_c, 8, 80, 127
2, 58393, Note_off_c, 5, 65, 127
2, 58395, Note_on_c, 3, 63, 127
2, 58395, Note_on_c, 7, 79, 127
2, 58518, Note_off_c, 7, 79, 127
2, 58518, Note_off_c, 3, 63, 127
2, 58521, Note_on_c, 2, 62, 127
2, 58521, Note_on_c, 5, 77, 127
2, 58644, Note_off_c, 5, 77, 127
2, 58644, Note_off_c, 2, 62, 127
2, 58647, Note_on_c, 0, 60, 127
2, 58647, Note_on_c, 3, 75, 127
2, 58770, Note_off_c, 3, 75, 127
2, 58770, Note_off_c, 0, 60, 127
2, 58772, Note_on_c, 11, 58, 127
2, 58772, Note_on_c, 2, 74, 127
2, 58895, Note_off_c, 2, 74, 127
2, 58895, Note_off_c, 11, 58, 127
2, 58897, Note_off_c, 11, 70, 127
2, 58897, Note_off_c, 7, 55, 127
2, 58898, Note_on_c, 0, 60, 127
2, 58898, Note_on_c, 3, 75, 127
2, 59024, Note_on_c, 7, 55, 127
2, 59024, Note_on_c, 11, 70, 127
2, 59147, Note_off_c, 11, 70, 127
2, 59147, Note_off_c, 7, 55, 127
2, 59149, Note_on_c, 10, 57, 127
2, 59149, Note_on_c, 0, 72, 127
2, 59272, Note_off_c, 0, 72, 127
2, 59272, Note_off_c, 10, 57, 127
2, 59275, Note_on_c, 11, 58, 127
2, 59275, Note_on_c, 2, 74, 127
2, 59398, Note_off_c, 2, 74, 127
2, 59398, Note_off_c, 11, 58, 127
2, 59401, Note_on_c, 10, 57, 127
2, 59401, Note_on_c, 0, 72, 127
2, 59524, Note_off_c, 0, 72, 127
2, 59524, Note_off_c, 10, 57, 127
2, 59526, Note_on_c, 7, 55, 127
2, 59526, Note_on_c, 11, 70, 127
2, 59649, Note_off_c, 11, 70, 127
2, 59649, Note_off_c, 7, 55, 127
2, 59653, Note_on_c, 5, 53, 127
2, 59653, Note_on_c, 10, 69, 127
2, 59776, Note_off_c, 10, 69, 127
2, 59776, Note_off_c, 5, 53, 127
2, 59779, Note_on_c, 3, 51, 127
2, 59779, Note_on_c, 7, 67, 127
2, 59902, Note_off_c, 7, 67, 127
2, 59902, Note_off_c, 3, 51, 127
2, 59904, Note_on_c, 5, 53, 127
2, 59904, Note_on_c, 10, 69, 127
2, 60027, Note_off_c, 3, 75, 127
2, 60030, Note_on_c, 3, 75, 127
2, 60153, Note_off_c, 3, 75, 127
2, 60156, Note_on_c, 5, 77, 127
2, 60279, Note_off_c, 5, 77, 127
2, 60281, Note_on_c, 7, 79, 127
2, 60404, Note_off_c, 7, 79, 127
2, 60407, Note_on_c, 5, 77, 127
2, 60530, Note_off_c, 5, 77, 127
2, 60533, Note_on_c, 3, 75, 127
2, 60656, Note_off_c, 3, 75, 127
2, 60658, Note_on_c, 2, 74, 127
2, 60781, Note_off_c, 2, 74, 127
2, 60784, Note_on_c, 0, 72, 127
2, 60907, Note_off_c, 0, 72, 127
2, 60910, Note_on_c, 2, 74, 127
2, 61033, Note_off_c, 5, 53, 127
2, 61035, Note_on_c, 6, 54, 127
2, 61158, Note_off_c, 6, 54, 127
2, 61159, Note_off_c, 10, 69, 127
2, 61161, Note_on_c, 7, 55, 127
2, 61161, Note_on_c, 2, 62, 127
2, 61284, Note_off_c, 7, 55, 127
2, 61287, Note_on_c, 10, 57, 127
2, 61410, Note_off_c, 10, 57, 127
2, 61410, Note_off_c, 2, 62, 127
2, 61410, Note_off_c, 0, 60, 127
2, 61412, Note_on_c, 7, 55, 127
2, 61412, Note_on_c, 11, 58, 127
2, 61412, Note_on_c, 7, 67, 127
2, 61535, Note_off_c, 7, 55, 127
2, 61538, Note_on_c, 5, 53, 127
2, 61661, Note_off_c, 5, 53, 127
2, 61661, Note_off_c, 7, 67, 127
2, 61664, Note_on_c, 3, 51, 127
2, 61664, Note_on_c, 5, 65, 127
2, 61787, Note_off_c, 3, 51, 127
2, 61789, Note_on_c, 2, 50, 127
2, 61912, Note_off_c, 2, 50, 127
2, 61913, Note_off_c, 5, 65, 127
2, 61915, Note_on_c, 0, 48, 127
2, 61915, Note_on_c, 3, 63, 127
2, 62039, Note_off_c, 11, 58, 127
2, 62041, Note_on_c, 7, 55, 127
2, 62164, Note_off_c, 7, 55, 127
2, 62166, Note_on_c, 10, 57, 127
2, 62289, Note_off_c, 10, 57, 127
2, 62292, Note_on_c, 11, 58, 127
2, 62415, Note_off_c, 11, 58, 127
2, 62416, Note_off_c, 2, 74, 127
2, 62418, Note_on_c, 10, 57, 127
2, 62418, Note_on_c, 0, 72, 127
2, 62541, Note_off_c, 10, 57, 127
2, 62543, Note_on_c, 7, 55, 127
2, 62666, Note_off_c, 7, 55, 127
2, 62669, Note_on_c, 6, 54, 127
2, 62792, Note_off_c, 6, 54, 127
2, 62796, Note_on_c, 4, 52, 127
2, 62919, Note_off_c, 4, 52, 127
2, 62919, Note_off_c, 3, 63, 127
2, 62919, Note_off_c, 0, 48, 127
2, 62921, Note_on_c, 2, 50, 127
2, 62921, Note_on_c, 6, 54, 127
2, 62921, Note_on_c, 2, 62, 127
2, 63171, Note_off_c, 0, 72, 127
2, 63172, Note_off_c, 6, 54, 127
2, 63174, Note_on_c, 7, 55, 127
2, 63174, Note_on_c, 11, 70, 127
2, 63424, Note_off_c, 2, 62, 127
2, 63425, Note_off_c, 11, 70, 127
2, 63426, Note_on_c, 0, 60, 127
2, 63426, Note_on_c, 10, 69, 127
2, 63677, Note_off_c, 7, 55, 127
2, 63678, Note_on_c, 6, 54, 127
2, 63927, Note_off_c, 6, 54, 127
2, 63929, Note_off_c, 10, 69, 127
2, 63929, Note_off_c, 0, 60, 127
2, 63929, Note_off_c, 2, 50, 127
2, 63931, Note_on_c, 7, 43, 127
2, 63931, Note_on_c, 11, 58, 127
2, 63931, Note_on_c, 7, 67, 127
2, 64059, Note_on_c, 7, 55, 127
2, 64183, Note_off_c, 7, 43, 127
2, 64184, Note_off_c, 7, 55, 127
2, 64186, Note_on_c, 8, 56, 127
2, 64310, Note_off_c, 11, 58, 127
2, 64311, Note_off_c, 8, 56, 127
2, 64313, Note_on_c, 11, 58, 127
2, 64434, Note_off_c, 7, 67, 127
2, 64438, Note_off_c, 11, 58, 127
2, 64439, Note_on_c, 8, 56, 127
2, 64439, Note_on_c, 3, 63, 127
2, 64564, Note_off_c, 8, 56, 127
2, 64566, Note_on_c, 7, 55, 127
2, 64691, Note_off_c, 7, 55, 127
2, 64694, Note_on_c, 5, 53, 127
2, 64819, Note_off_c, 5, 53, 127
2, 64820, Note_on_c, 3, 51, 127
2, 64948, Note_on_c, 11, 58, 127
2, 64948, Note_on_c, 5, 65, 127
2, 65058, Note_off_c, 3, 51, 127
2, 65076, Note_on_c, 2, 50, 127
2, 65201, Note_off_c, 2, 50, 127
2, 65203, Note_on_c, 3, 51, 127
2, 65328, Note_off_c, 3, 51, 127
2, 65330, Note_on_c, 5, 53, 127
2, 65451, Note_off_c, 11, 58, 127
2, 65454, Note_off_c, 5, 65, 127
2, 65454, Note_off_c, 3, 63, 127
2, 65455, Note_off_c, 5, 53, 127
2, 65457, Note_on_c, 3, 51, 127
2, 65457, Note_on_c, 2, 62, 127
2, 65457, Note_on_c, 11, 70, 127
2, 65582, Note_off_c, 3, 51, 127
2, 65584, Note_on_c, 2, 50, 127
2, 65709, Note_off_c, 2, 50, 127
2, 65710, Note_on_c, 0, 48, 127
2, 65835, Note_off_c, 0, 48, 127
2, 65837, Note_on_c, 11, 46, 127
2, 65962, Note_off_c, 11, 46, 127
2, 65962, Note_off_c, 2, 62, 127
2, 65965, Note_on_c, 4, 52, 127
2, 65965, Note_on_c, 7, 67, 127
2, 66093, Note_on_c, 11, 58, 127
2, 66218, Note_off_c, 11, 58, 127
2, 66219, Note_on_c, 0, 60, 127
2, 66344, Note_off_c, 0, 60, 127
2, 66346, Note_on_c, 1, 61, 127
2, 66471, Note_off_c, 1, 61, 127
2, 66471, Note_off_c, 7, 67, 127
2, 66471, Note_off_c, 4, 52, 127
2, 66471, Note_off_c, 11, 70, 127
2, 66473, Note_on_c, 5, 53, 127
2, 66473, Note_on_c, 0, 60, 127
2, 66473, Note_on_c, 5, 65, 127
2, 66473, Note_on_c, 8, 68, 127
2, 66598, Note_off_c, 0, 60, 127
2, 66599, Note_on_c, 11, 58, 127
2, 66724, Note_off_c, 11, 58, 127
2, 66727, Note_on_c, 8, 56, 127
2, 66852, Note_off_c, 8, 56, 127
2, 66854, Note_on_c, 7, 55, 127
2, 66978, Note_off_c, 8, 68, 127
2, 66979, Note_off_c, 7, 55, 127
2, 66980, Note_on_c, 8, 56, 127
2, 66980, Note_on_c, 1, 73, 127
2, 67105, Note_off_c, 5, 65, 127
2, 67107, Note_on_c, 5, 65, 127
2, 67232, Note_off_c, 5, 65, 127
2, 67232, Note_off_c, 8, 56, 127
2, 67234, Note_on_c, 11, 58, 127
2, 67234, Note_on_c, 7, 67, 127
2, 67359, Note_off_c, 7, 67, 127
2, 67359, Note_off_c, 11, 58, 127
2, 67362, Note_on_c, 0, 60, 127
2, 67362, Note_on_c, 8, 68, 127
2, 67486, Note_off_c, 5, 53, 127
2, 67487, Note_off_c, 8, 68, 127
2, 67487, Note_off_c, 0, 60, 127
2, 67488, Note_on_c, 11, 46, 127
2, 67488, Note_on_c, 11, 58, 127
2, 67488, Note_on_c, 7, 67, 127
2, 67613, Note_off_c, 7, 67, 127
2, 67615, Note_on_c, 5, 65, 127
2, 67740, Note_off_c, 5, 65, 127
2, 67740, Note_off_c, 11, 58, 127
2, 67742, Note_on_c, 8, 56, 127
2, 67742, Note_on_c, 4, 64, 127
2, 67867, Note_off_c, 4, 64, 127
2, 67868, Note_on_c, 5, 65, 127
2, 67993, Note_off_c, 5, 65, 127
2, 67993, Note_off_c, 11, 46, 127
2, 67994, Note_off_c, 8, 56, 127
2, 67995, Note_on_c, 0, 48, 127
2, 67995, Note_on_c, 7, 55, 127
2, 67995, Note_on_c, 4, 64, 127
2, 68120, Note_off_c, 1, 73, 127
2, 68123, Note_on_c, 11, 70, 127
2, 68248, Note_off_c, 11, 70, 127
2, 68249, Note_on_c, 0, 72, 127
2, 68374, Note_off_c, 0, 72, 127
2, 68376, Note_on_c, 1, 73, 127
2, 68500, Note_off_c, 7, 55, 127
2, 68501, Note_off_c, 1, 73, 127
2, 68503, Note_on_c, 8, 56, 127
2, 68503, Note_on_c, 0, 72, 127
2, 68628, Note_off_c, 0, 72, 127
2, 68629, Note_on_c, 11, 70, 127
2, 68754, Note_off_c, 11, 70, 127
2, 68756, Note_on_c, 8, 68, 127
2, 68881, Note_off_c, 8, 68, 127
2, 68884, Note_on_c, 7, 67, 127
2, 69008, Note_off_c, 0, 48, 127
2, 69009, Note_off_c, 7, 67, 127
2, 69011, Note_on_c, 1, 49, 127
2, 69011, Note_on_c, 5, 65, 127
2, 69135, Note_off_c, 4, 64, 127
2, 69137, Note_on_c, 3, 63, 127
2, 69262, Note_off_c, 3, 63, 127
2, 69264, Note_on_c, 1, 61, 127
2, 69389, Note_off_c, 1, 61, 127
2, 69391, Note_on_c, 0, 60, 127
2, 69516, Note_off_c, 0, 60, 127
2, 69517, Note_on_c, 11, 58, 127
2, 69643, Note_off_c, 8, 56, 127
2, 69645, Note_on_c, 8, 56, 127
2, 69770, Note_off_c, 8, 56, 127
2, 69772, Note_on_c, 7, 55, 127
2, 69897, Note_off_c, 7, 55, 127
2, 69898, Note_on_c, 5, 53, 127
2, 70023, Note_off_c, 5, 53, 127
2, 70024, Note_off_c, 1, 49, 127
2, 70025, Note_on_c, 0, 48, 127
2, 70025, Note_on_c, 7, 55, 127
2, 70149, Note_off_c, 11, 58, 127
2, 70152, Note_on_c, 11, 58, 127
2, 70277, Note_off_c, 11, 58, 127
2, 70278, Note_on_c, 0, 60, 127
2, 70403, Note_off_c, 0, 60, 127
2, 70406, Note_on_c, 1, 61, 127
2, 70531, Note_off_c, 1, 61, 127
2, 70531, Note_off_c, 5, 65, 127
2, 70533, Note_on_c, 0, 60, 127
2, 70533, Note_on_c, 4, 64, 127
2, 70658, Note_off_c, 0, 60, 127
2, 70660, Note_on_c, 11, 58, 127
2, 70785, Note_off_c, 11, 58, 127
2, 70786, Note_on_c, 8, 56, 127
2, 70908, Note_off_c, 7, 55, 127
2, 70911, Note_off_c, 8, 56, 127
2, 70913, Note_on_c, 7, 55, 127
2, 71038, Note_off_c, 7, 55, 127
2, 71038, Note_off_c, 4, 64, 127
2, 71038, Note_off_c, 0, 48, 127
2, 71040, Note_on_c, 5, 53, 127
2, 71040, Note_on_c, 8, 56, 127
2, 71040, Note_on_c, 5, 65, 127
2, 71168, Note_on_c, 5, 41, 127
2, 71293, Note_off_c, 5, 41, 127
2, 71295, Note_on_c, 7, 43, 127
2, 71420, Note_off_c, 7, 43, 127
2, 71422, Note_on_c, 8, 44, 127
2, 71543, Note_off_c, 8, 56, 127
2, 71546, Note_off_c, 5, 65, 127
2, 71547, Note_off_c, 8, 44, 127
2, 71548, Note_on_c, 7, 43, 127
2, 71548, Note_on_c, 0, 72, 127
2, 71673, Note_off_c, 7, 43, 127
2, 71675, Note_on_c, 5, 41, 127
2, 71800, Note_off_c, 5, 41, 127
2, 71803, Note_on_c, 3, 39, 127
2, 71928, Note_off_c, 3, 39, 127
2, 71930, Note_on_c, 2, 38, 127
2, 72054, Note_off_c, 5, 53, 127
2, 72055, Note_off_c, 2, 38, 127
2, 72056, Note_on_c, 7, 43, 127
2, 72056, Note_on_c, 2, 50, 127
2, 72184, Note_on_c, 5, 65, 127
2, 72309, Note_off_c, 5, 65, 127
2, 72311, Note_on_c, 7, 67, 127
2, 72436, Note_off_c, 7, 67, 127
2, 72438, Note_on_c, 8, 68, 127
2, 72562, Note_off_c, 2, 50, 127
2, 72562, Note_off_c, 0, 72, 127
2, 72563, Note_off_c, 8, 68, 127
2, 72565, Note_on_c, 7, 55, 127
2, 72565, Note_on_c, 7, 67, 127
2, 72565, Note_on_c, 12, 71, 127
2, 72690, Note_off_c, 7, 67, 127
2, 72692, Note_on_c, 5, 65, 127
2, 72817, Note_off_c, 5, 65, 127
2, 72818, Note_on_c, 3, 63, 127
2, 72943, Note_off_c, 3, 63, 127
2, 72945, Note_on_c, 2, 62, 127
2, 73070, Note_off_c, 2, 62, 127
2, 73070, Note_off_c, 12, 71, 127
2, 73070, Note_off_c, 7, 55, 127
2, 73070, Note_off_c, 7, 43, 127
2, 73072, Note_on_c, 0, 48, 127
2, 73072, Note_on_c, 0, 60, 127
2, 73072, Note_on_c, 3, 75, 127
2, 73201, Note_on_c, 7, 67, 127
2, 73326, Note_off_c, 7, 67, 127
2, 73327, Note_on_c, 8, 68, 127
2, 73452, Note_off_c, 8, 68, 127
2, 73454, Note_on_c, 11, 70, 127
2, 73578, Note_off_c, 0, 60, 127
2, 73579, Note_off_c, 11, 70, 127
2, 73581, Note_on_c, 3, 51, 127
2, 73581, Note_on_c, 8, 68, 127
2, 73706, Note_off_c, 8, 68, 127
2, 73707, Note_on_c, 7, 67, 127
2, 73832, Note_off_c, 7, 67, 127
2, 73835, Note_on_c, 5, 65, 127
2, 73960, Note_off_c, 5, 65, 127
2, 73962, Note_on_c, 3, 63, 127
2, 74086, Note_off_c, 3, 51, 127
2, 74086, Note_off_c, 0, 48, 127
2, 74087, Note_off_c, 3, 63, 127
2, 74088, Note_on_c, 5, 53, 127
2, 74088, Note_on_c, 8, 56, 127
2, 74088, Note_on_c, 5, 65, 127
2, 74213, Note_off_c, 3, 75, 127
2, 74215, Note_on_c, 3, 75, 127
2, 74340, Note_off_c, 3, 75, 127
2, 74342, Note_on_c, 5, 77, 127
2, 74467, Note_off_c, 5, 77, 127
2, 74469, Note_on_c, 7, 79, 127
2, 74594, Note_off_c, 7, 79, 127
2, 74596, Note_on_c, 5, 77, 127
2, 74721, Note_off_c, 5, 77, 127
2, 74723, Note_on_c, 3, 75, 127
2, 74848, Note_off_c, 3, 75, 127
2, 74850, Note_on_c, 2, 74, 127
2, 74975, Note_off_c, 2, 74, 127
2, 74976, Note_on_c, 0, 72, 127
2, 75101, Note_off_c, 0, 72, 127
2, 75101, Note_off_c, 5, 65, 127
2, 75101, Note_off_c, 8, 56, 127
2, 75103, Note_on_c, 7, 55, 127
2, 75103, Note_on_c, 2, 62, 127
2, 75103, Note_on_c, 12, 71, 127
2, 75228, Note_off_c, 12, 71, 127
2, 75230, Note_on_c, 5, 77, 127
2, 75355, Note_off_c, 5, 77, 127
2, 75357, Note_on_c, 7, 79, 127
2, 75482, Note_off_c, 7, 79, 127
2, 75484, Note_on_c, 8, 80, 127
2, 75608, Note_off_c, 2, 62, 127
2, 75608, Note_off_c, 7, 55, 127
2, 75608, Note_off_c, 5, 53, 127
2, 75609, Note_off_c, 8, 80, 127
2, 75611, Note_on_c, 3, 51, 127
2, 75611, Note_on_c, 0, 60, 127
2, 75611, Note_on_c, 3, 63, 127
2, 75611, Note_on_c, 7, 79, 127
2, 75736, Note_off_c, 7, 79, 127
2, 75737, Note_on_c, 5, 77, 127
2, 75862, Note_off_c, 5, 77, 127
2, 75864, Note_on_c, 3, 75, 127
2, 75989, Note_off_c, 3, 75, 127
2, 75991, Note_on_c, 2, 74, 127
2, 76116, Note_off_c, 2, 74, 127
2, 76116, Note_off_c, 3, 51, 127
2, 76119, Note_on_c, 8, 56, 127
2, 76119, Note_on_c, 0, 72, 127
2, 76244, Note_off_c, 0, 72, 127
2, 76245, Note_on_c, 12, 71, 127
2, 76370, Note_off_c, 12, 71, 127
2, 76370, Note_off_c, 3, 63, 127
2, 76371, Note_off_c, 8, 56, 127
2, 76372, Note_on_c, 5, 53, 127
2, 76372, Note_on_c, 8, 68, 127
2, 76372, Note_on_c, 0, 72, 127
2, 76497, Note_off_c, 0, 72, 127
2, 76499, Note_on_c, 2, 74, 127
2, 76624, Note_off_c, 2, 74, 127
2, 76624, Note_off_c, 8, 68, 127
2, 76624, Note_off_c, 5, 53, 127
2, 76625, Note_on_c, 7, 55, 127
2, 76625, Note_on_c, 7, 67, 127
2, 76625, Note_on_c, 3, 75, 127
2, 76708, Note_off_c, 3, 75, 127
2, 76711, Note_on_c, 2, 74, 127
2, 76794, Note_off_c, 2, 74, 127
2, 76795, Note_on_c, 3, 75, 127
2, 76878, Note_off_c, 3, 75, 127
2, 76878, Note_off_c, 7, 67, 127
2, 76878, Note_off_c, 0, 60, 127
2, 76881, Note_on_c, 12, 59, 127
2, 76881, Note_on_c, 5, 65, 127
2, 76881, Note_on_c, 2, 74, 127
2, 77006, Note_off_c, 2, 74, 127
2, 77007, Note_on_c, 0, 72, 127
2, 77128, Note_off_c, 7, 55, 127
2, 77132, Note_off_c, 0, 72, 127
2, 77133, Note_off_c, 5, 65, 127
2, 77133, Note_off_c, 12, 59, 127
2, 77140, Note_on_c, 0, 72, 127
2, 77140, Note_on_c, 0, 60, 127
2, 77140, Note_on_c, 3, 63, 127
2, 77280, Note_on_c, 0, 48, 127
2, 77407, Note_off_c, 0, 48, 127
2, 77409, Note_on_c, 1, 49, 127
2, 77536, Note_off_c, 1, 49, 127
2, 77538, Note_on_c, 3, 51, 127
2, 77650, Note_off_c, 0, 60, 127
2, 77650, Note_off_c, 0, 72, 127
2, 77653, Note_off_c, 3, 63, 127
2, 77664, Note_off_c, 3, 51, 127
2, 77667, Note_on_c, 8, 68, 127
2, 77667, Note_on_c, 1, 49, 127
2, 77794, Note_off_c, 1, 49, 127
2, 77795, Note_on_c, 0, 48, 127
2, 77922, Note_off_c, 0, 48, 127
2, 77925, Note_on_c, 11, 46, 127
2, 78052, Note_off_c, 11, 46, 127
2, 78054, Note_on_c, 8, 44, 127
2, 78181, Note_off_c, 8, 44, 127
2, 78183, Note_on_c, 11, 58, 127
2, 78183, Note_on_c, 3, 51, 127
2, 78312, Note_on_c, 11, 70, 127
2, 78439, Note_off_c, 11, 70, 127
2, 78441, Note_on_c, 0, 72, 127
2, 78568, Note_off_c, 0, 72, 127
2, 78571, Note_on_c, 1, 73, 127
2, 78698, Note_off_c, 1, 73, 127
2, 78698, Note_off_c, 11, 58, 127
2, 78699, Note_off_c, 8, 68, 127
2, 78700, Note_on_c, 0, 72, 127
2, 78700, Note_on_c, 7, 67, 127
2, 78700, Note_on_c, 3, 63, 127
2, 78827, Note_off_c, 0, 72, 127
2, 78830, Note_on_c, 11, 70, 127
2, 78957, Note_off_c, 11, 70, 127
2, 78958, Note_on_c, 8, 68, 127
2, 79083, Note_off_c, 7, 67, 127
2, 79084, Note_off_c, 8, 68, 127
2, 79086, Note_on_c, 7, 67, 127
2, 79213, Note_off_c, 7, 67, 127
2, 79214, Note_off_c, 3, 51, 127
2, 79216, Note_on_c, 0, 72, 127
2, 79216, Note_on_c, 5, 65, 127
2, 79216, Note_on_c, 8, 56, 127
2, 79471, Note_off_c, 5, 65, 127
2, 79472, Note_on_c, 7, 67, 127
2, 79599, Note_off_c, 7, 67, 127
2, 79602, Note_on_c, 8, 68, 127
2, 79724, Note_off_c, 0, 72, 127
2, 79727, Note_off_c, 3, 63, 127
2, 79728, Note_off_c, 8, 68, 127
2, 79730, Note_on_c, 11, 70, 127
2, 79730, Note_on_c, 2, 62, 127
2, 79860, Note_on_c, 8, 68, 127
2, 79987, Note_off_c, 8, 68, 127
2, 79988, Note_on_c, 7, 67, 127
2, 80115, Note_off_c, 7, 67, 127
2, 80117, Note_on_c, 5, 65, 127
2, 80244, Note_off_c, 5, 65, 127
2, 80245, Note_off_c, 2, 62, 127
2, 80245, Note_off_c, 11, 70, 127
2, 80246, Note_off_c, 8, 56, 127
2, 80247, Note_on_c, 11, 70, 127
2, 80247, Note_on_c, 7, 67, 127
2, 80247, Note_on_c, 3, 63, 127
2, 80247, Note_on_c, 7, 55, 127
2, 80374, Note_off_c, 3, 63, 127
2, 80376, Note_on_c, 2, 62, 127
2, 80503, Note_off_c, 2, 62, 127
2, 80505, Note_on_c, 0, 60, 127
2, 80632, Note_off_c, 0, 60, 127
2, 80634, Note_on_c, 11, 58, 127
2, 80761, Note_off_c, 11, 58, 127
2, 80764, Note_on_c, 3, 75, 127
2, 80891, Note_off_c, 7, 55, 127
2, 80893, Note_on_c, 5, 53, 127
2, 81015, Note_off_c, 3, 75, 127
2, 81020, Note_off_c, 5, 53, 127
2, 81022, Note_on_c, 3, 75, 127
2, 81022, Note_on_c, 7, 55, 127
2, 81149, Note_off_c, 7, 55, 127
2, 81151, Note_on_c, 8, 56, 127
2, 81244, Note_off_c, 11, 70, 127
2, 81277, Note_off_c, 8, 56, 127
2, 81277, Note_off_c, 3, 75, 127
2, 81279, Note_on_c, 3, 75, 127
2, 81279, Note_on_c, 5, 65, 127
2, 81279, Note_on_c, 11, 58, 127
2, 81279, Note_on_c, 11, 70, 127
2, 81283, Note_off_c, 7, 67, 127
2, 81406, Note_off_c, 11, 58, 127
2, 81409, Note_on_c, 8, 56, 127
2, 81536, Note_off_c, 8, 56, 127
2, 81537, Note_on_c, 11, 58, 127
2, 81664, Note_off_c, 11, 58, 127
2, 81667, Note_on_c, 0, 60, 127
2, 81794, Note_off_c, 0, 60, 127
2, 81794, Note_off_c, 3, 75, 127
2, 81796, Note_on_c, 2, 74, 127
2, 81796, Note_on_c, 11, 58, 127
2, 81923, Note_off_c, 11, 58, 127
2, 81925, Note_on_c, 8, 56, 127
2, 82052, Note_off_c, 8, 56, 127
2, 82054, Note_on_c, 7, 55, 127
2, 82181, Note_off_c, 7, 55, 127
2, 82183, Note_on_c, 5, 53, 127
2, 82310, Note_off_c, 5, 53, 127
2, 82311, Note_off_c, 2, 74, 127
2, 82311, Note_off_c, 11, 70, 127
2, 82313, Note_on_c, 7, 79, 127
2, 82313, Note_on_c, 4, 52, 127
2, 82439, Note_off_c, 5, 65, 127
2, 82442, Note_on_c, 11, 58, 127
2, 82569, Note_off_c, 11, 58, 127
2, 82572, Note_on_c, 0, 60, 127
2, 82699, Note_off_c, 0, 60, 127
2, 82700, Note_on_c, 1, 61, 127
2, 82827, Note_off_c, 1, 61, 127
2, 82829, Note_on_c, 0, 60, 127
2, 82956, Note_off_c, 0, 60, 127
2, 82959, Note_on_c, 11, 58, 127
2, 83086, Note_off_c, 11, 58, 127
2, 83088, Note_on_c, 8, 56, 127
2, 83215, Note_off_c, 8, 56, 127
2, 83217, Note_on_c, 7, 55, 127
2, 83344, Note_off_c, 7, 55, 127
2, 83345, Note_off_c, 4, 52, 127
2, 83346, Note_on_c, 0, 60, 127
2, 83346, Note_on_c, 8, 56, 127
2, 83476, Note_on_c, 11, 70, 127
2, 83603, Note_off_c, 11, 70, 127
2, 83605, Note_on_c, 0, 72, 127
2, 83732, Note_off_c, 0, 72, 127
2, 83733, Note_on_c, 1, 73, 127
2, 83860, Note_off_c, 1, 73, 127
2, 83862, Note_off_c, 7, 79, 127
2, 83863, Note_on_c, 5, 77, 127
2, 83863, Note_on_c, 0, 72, 127
2, 83990, Note_off_c, 0, 72, 127
2, 83992, Note_on_c, 11, 70, 127
2, 84119, Note_off_c, 11, 70, 127
2, 84122, Note_on_c, 8, 68, 127
2, 84249, Note_off_c, 8, 68, 127
2, 84250, Note_on_c, 7, 67, 127
2, 84377, Note_off_c, 7, 67, 127
2, 84378, Note_off_c, 5, 77, 127
2, 84378, Note_off_c, 8, 56, 127
2, 84378, Note_off_c, 0, 60, 127
2, 84380, Note_on_c, 12, 71, 127
2, 84380, Note_on_c, 5, 65, 127
2, 84380, Note_on_c, 2, 62, 127
2, 84509, Note_on_c, 5, 53, 127
2, 84636, Note_off_c, 5, 53, 127
2, 84638, Note_on_c, 7, 55, 127
2, 84765, Note_off_c, 7, 55, 127
2, 84767, Note_on_c, 8, 56, 127
2, 84874, Note_off_c, 2, 62, 127
2, 84874, Note_off_c, 5, 65, 127
2, 84874, Note_off_c, 12, 71, 127
2, 84893, Note_off_c, 8, 56, 127
2, 84895, Note_on_c, 0, 72, 127
2, 84895, Note_on_c, 3, 63, 127
2, 84895, Note_on_c, 7, 67, 127
2, 84895, Note_on_c, 7, 55, 127
2, 85023, Note_off_c, 7, 55, 127
2, 85026, Note_on_c, 5, 53, 127
2, 85142, Note_off_c, 7, 67, 127
2, 85142, Note_off_c, 3, 63, 127
2, 85142, Note_off_c, 0, 72, 127
2, 85154, Note_off_c, 5, 53, 127
2, 85156, Note_on_c, 2, 74, 127
2, 85156, Note_on_c, 12, 71, 127
2, 85156, Note_on_c, 5, 65, 127
2, 85156, Note_on_c, 3, 51, 127
2, 85284, Note_off_c, 3, 51, 127
2, 85287, Note_on_c, 2, 50, 127
2, 85403, Note_off_c, 5, 65, 127
2, 85403, Note_off_c, 12, 71, 127
2, 85403, Note_off_c, 2, 74, 127
2, 85415, Note_off_c, 2, 50, 127
2, 85416, Note_on_c, 3, 75, 127
2, 85416, Note_on_c, 7, 67, 127
2, 85416, Note_on_c, 0, 72, 127
2, 85416, Note_on_c, 0, 48, 127
2, 85544, Note_off_c, 0, 48, 127
2, 85547, Note_on_c, 12, 47, 127
2, 85663, Note_off_c, 7, 67, 127
2, 85663, Note_off_c, 3, 75, 127
2, 85675, Note_off_c, 12, 47, 127
2, 85678, Note_on_c, 4, 76, 127
2, 85678, Note_on_c, 7, 67, 127
2, 85678, Note_on_c, 0, 48, 127
2, 85806, Note_off_c, 0, 48, 127
2, 85808, Note_on_c, 1, 49, 127
2, 85910, Note_off_c, 0, 72, 127
2, 85925, Note_off_c, 7, 67, 127
2, 85925, Note_off_c, 4, 76, 127
2, 85936, Note_off_c, 1, 49, 127
2, 85939, Note_on_c, 5, 77, 127
2, 85939, Note_on_c, 2, 74, 127
2, 85939, Note_on_c, 8, 68, 127
2, 85939, Note_on_c, 0, 48, 127
2, 86067, Note_off_c, 0, 48, 127
2, 86068, Note_on_c, 11, 46, 127
2, 86186, Note_off_c, 8, 68, 127
2, 86186, Note_off_c, 2, 74, 127
2, 86186, Note_off_c, 5, 77, 127
2, 86196, Note_off_c, 11, 46, 127
2, 86199, Note_on_c, 7, 79, 127
2, 86199, Note_on_c, 11, 70, 127
2, 86199, Note_on_c, 4, 76, 127
2, 86199, Note_on_c, 8, 44, 127
2, 86327, Note_off_c, 8, 44, 127
2, 86329, Note_on_c, 7, 43, 127
2, 86446, Note_off_c, 4, 76, 127
2, 86446, Note_off_c, 11, 70, 127
2, 86446, Note_off_c, 7, 79, 127
2, 86457, Note_off_c, 7, 43, 127
2, 86460, Note_on_c, 8, 80, 127
2, 86460, Note_on_c, 5, 77, 127
2, 86460, Note_on_c, 0, 72, 127
2, 86460, Note_on_c, 5, 41, 127
2, 86588, Note_off_c, 0, 72, 127
2, 86588, Note_off_c, 5, 77, 127
2, 86590, Note_on_c, 3, 75, 127
2, 86718, Note_off_c, 3, 75, 127
2, 86720, Note_on_c, 5, 77, 127
2, 86848, Note_off_c, 5, 77, 127
2, 86851, Note_on_c, 7, 79, 127
2, 86979, Note_off_c, 7, 79, 127
2, 86980, Note_off_c, 5, 41, 127
2, 86981, Note_on_c, 5, 77, 127
2, 86981, Note_on_c, 11, 46, 127
2, 87109, Note_off_c, 5, 77, 127
2, 87112, Note_on_c, 3, 75, 127
2, 87240, Note_off_c, 3, 75, 127
2, 87242, Note_on_c, 2, 74, 127
2, 87370, Note_off_c, 2, 74, 127
2, 87372, Note_on_c, 0, 72, 127
2, 87500, Note_off_c, 0, 72, 127
2, 87502, Note_on_c, 2, 74, 127
2, 87631, Note_off_c, 8, 80, 127
2, 87633, Note_on_c, 8, 80, 127
2, 87761, Note_off_c, 8, 80, 127
2, 87763, Note_on_c, 11, 82, 127
2, 87891, Note_off_c, 11, 82, 127
2, 87894, Note_on_c, 0, 84, 127
2, 88022, Note_off_c, 0, 84, 127
2, 88022, Note_off_c, 11, 46, 127
2, 88024, Note_on_c, 11, 82, 127
2, 88024, Note_on_c, 7, 43, 127
2, 88152, Note_off_c, 11, 82, 127
2, 88154, Note_on_c, 8, 80, 127
2, 88282, Note_off_c, 8, 80, 127
2, 88285, Note_on_c, 7, 79, 127
2, 88413, Note_off_c, 7, 79, 127
2, 88415, Note_on_c, 5, 77, 127
2, 88543, Note_off_c, 5, 77, 127
2, 88544, Note_off_c, 7, 43, 127
2, 88546, Note_on_c, 3, 75, 127
2, 88546, Note_on_c, 3, 51, 127
2, 88546, Note_on_c, 0, 48, 127
2, 88673, Note_off_c, 2, 74, 127
2, 88675, Note_on_c, 11, 70, 127
2, 88803, Note_off_c, 11, 70, 127
2, 88806, Note_on_c, 0, 72, 127
2, 88934, Note_off_c, 0, 72, 127
2, 88937, Note_on_c, 1, 73, 127
2, 89065, Note_off_c, 1, 73, 127
2, 89066, Note_off_c, 3, 51, 127
2, 89067, Note_on_c, 0, 72, 127
2, 89067, Note_on_c, 8, 56, 127
2, 89195, Note_off_c, 0, 72, 127
2, 89198, Note_on_c, 11, 70, 127
2, 89326, Note_off_c, 11, 70, 127
2, 89327, Note_on_c, 8, 68, 127
2, 89455, Note_off_c, 8, 68, 127
2, 89458, Note_on_c, 7, 67, 127
2, 89586, Note_off_c, 7, 67, 127
2, 89587, Note_off_c, 0, 48, 127
2, 89587, Note_off_c, 3, 75, 127
2, 89588, Note_on_c, 11, 70, 127
2, 89588, Note_on_c, 5, 65, 127
2, 89588, Note_on_c, 2, 50, 127
2, 89846, Note_off_c, 2, 50, 127
2, 89846, Note_off_c, 5, 65, 127
2, 89848, Note_on_c, 7, 67, 127
2, 89848, Note_on_c, 11, 46, 127
2, 89976, Note_off_c, 7, 67, 127
2, 89979, Note_on_c, 8, 68, 127
2, 90103, Note_off_c, 11, 70, 127
2, 90106, Note_off_c, 11, 46, 127
2, 90107, Note_off_c, 8, 68, 127
2, 90108, Note_off_c, 8, 56, 127
2, 90110, Note_on_c, 11, 70, 127
2, 90110, Note_on_c, 7, 55, 127
2, 90110, Note_on_c, 3, 51, 127
2, 90240, Note_on_c, 8, 68, 127
2, 90368, Note_off_c, 8, 68, 127
2, 90368, Note_off_c, 3, 51, 127
2, 90371, Note_on_c, 7, 67, 127
2, 90371, Note_on_c, 2, 50, 127
2, 90499, Note_off_c, 7, 67, 127
2, 90500, Note_on_c, 5, 65, 127
2, 90625, Note_off_c, 11, 70, 127
2, 90628, Note_off_c, 5, 65, 127
2, 90629, Note_off_c, 2, 50, 127
2, 90630, Note_off_c, 7, 55, 127
2, 90631, Note_on_c, 3, 63, 127
2, 90631, Note_on_c, 0, 60, 127
2, 90631, Note_on_c, 0, 48, 127
2, 90759, Note_off_c, 3, 63, 127
2, 90761, Note_on_c, 2, 62, 127
2, 90888, Note_off_c, 0, 60, 127
2, 90889, Note_off_c, 2, 62, 127
2, 90892, Note_on_c, 0, 60, 127
2, 91022, Note_on_c, 11, 58, 127
2, 91149, Note_off_c, 0, 60, 127
2, 91150, Note_off_c, 11, 58, 127
2, 91152, Note_on_c, 3, 63, 127
2, 91283, Note_on_c, 10, 69, 127
2, 91410, Note_off_c, 3, 63, 127
2, 91411, Note_off_c, 10, 69, 127
2, 91411, Note_off_c, 0, 48, 127
2, 91413, Note_on_c, 11, 70, 127
2, 91413, Note_on_c, 3, 63, 127
2, 91413, Note_on_c, 11, 46, 127
2, 91541, Note_off_c, 11, 70, 127
2, 91544, Note_on_c, 0, 72, 127
2, 91671, Note_off_c, 11, 46, 127
2, 91671, Note_off_c, 3, 63, 127
2, 91672, Note_off_c, 0, 72, 127
2, 91674, Note_on_c, 5, 65, 127
2, 91674, Note_on_c, 3, 63, 127
2, 91674, Note_on_c, 10, 45, 127
2, 91805, Note_on_c, 10, 57, 127
2, 91934, Note_off_c, 10, 57, 127
2, 91937, Note_on_c, 11, 58, 127
2, 92066, Note_off_c, 11, 58, 127
2, 92068, Note_on_c, 0, 60, 127
2, 92197, Note_off_c, 0, 60, 127
2, 92198, Note_off_c, 10, 45, 127
2, 92198, Note_off_c, 3, 63, 127
2, 92198, Note_off_c, 5, 65, 127
2, 92200, Note_on_c, 5, 65, 127
2, 92200, Note_on_c, 2, 62, 127
2, 92200, Note_on_c, 11, 58, 127
2, 92200, Note_on_c, 11, 46, 127
2, 92329, Note_off_c, 11, 58, 127
2, 92332, Note_on_c, 8, 56, 127
2, 92461, Note_off_c, 8, 56, 127
2, 92463, Note_on_c, 7, 55, 127
2, 92592, Note_off_c, 7, 55, 127
2, 92594, Note_on_c, 5, 53, 127
2, 92721, Note_off_c, 11, 46, 127
2, 92724, Note_off_c, 5, 53, 127
2, 92725, Note_off_c, 2, 62, 127
2, 92725, Note_off_c, 5, 65, 127
2, 92727, Note_on_c, 3, 63, 127
2, 92727, Note_on_c, 6, 54, 127
2, 92727, Note_on_c, 0, 60, 127
2, 92859, Note_on_c, 10, 45, 127
2, 92988, Note_off_c, 10, 45, 127
2, 92990, Note_on_c, 11, 46, 127
2, 93119, Note_off_c, 11, 46, 127
2, 93122, Note_on_c, 0, 48, 127
2, 93251, Note_off_c, 0, 48, 127
2, 93251, Note_off_c, 6, 54, 127
2, 93254, Note_on_c, 5, 53, 127
2, 93254, Note_on_c, 11, 46, 127
2, 93383, Note_off_c, 11, 46, 127
2, 93384, Note_on_c, 10, 45, 127
2, 93513, Note_off_c, 10, 45, 127
2, 93516, Note_on_c, 7, 43, 127
2, 93645, Note_off_c, 7, 43, 127
2, 93648, Note_on_c, 5, 41, 127
2, 93777, Note_off_c, 5, 41, 127
2, 93777, Note_off_c, 0, 60, 127
2, 93777, Note_off_c, 3, 63, 127
2, 93778, Note_off_c, 5, 53, 127
2, 93779, Note_on_c, 2, 62, 127
2, 93779, Note_on_c, 5, 53, 127
2, 93779, Note_on_c, 11, 46, 127
2, 93913, Note_on_c, 5, 65, 127
2, 94043, Note_off_c, 5, 65, 127
2, 94046, Note_on_c, 7, 67, 127
2, 94176, Note_off_c, 7, 67, 127
2, 94179, Note_on_c, 8, 68, 127
2, 94305, Note_off_c, 5, 53, 127
2, 94305, Note_off_c, 2, 62, 127
2, 94310, Note_off_c, 8, 68, 127
2, 94310, Note_off_c, 11, 46, 127
2, 94312, Note_on_c, 7, 67, 127
2, 94312, Note_on_c, 3, 51, 127
2, 94446, Note_on_c, 5, 65, 127
2, 94576, Note_off_c, 5, 65, 127
2, 94579, Note_on_c, 3, 63, 127
2, 94709, Note_off_c, 3, 63, 127
2, 94712, Note_on_c, 2, 62, 127
2, 94838, Note_off_c, 7, 67, 127
2, 94843, Note_off_c, 2, 62, 127
2, 94846, Note_on_c, 8, 68, 127
2, 94846, Note_on_c, 0, 60, 127
2, 95110, Note_off_c, 0, 60, 127
2, 95112, Note_on_c, 2, 62, 127
2, 95242, Note_off_c, 2, 62, 127
2, 95245, Note_on_c, 3, 63, 127
2, 95374, Note_off_c, 3, 51, 127
2, 95375, Note_off_c, 3, 63, 127
2, 95378, Note_on_c, 5, 65, 127
2, 95378, Note_on_c, 2, 50, 127
2, 95508, Note_off_c, 5, 65, 127
2, 95510, Note_on_c, 3, 63, 127
2, 95640, Note_off_c, 3, 63, 127
2, 95643, Note_on_c, 2, 62, 127
2, 95773, Note_off_c, 2, 62, 127
2, 95775, Note_on_c, 0, 60, 127
2, 95905, Note_off_c, 0, 60, 127
2, 95907, Note_off_c, 2, 50, 127
2, 95908, Note_on_c, 11, 58, 127
2, 95908, Note_on_c, 7, 55, 127
2, 96038, Note_off_c, 11, 58, 127
2, 96039, Note_off_c, 8, 68, 127
2, 96041, Note_on_c, 5, 65, 127
2, 96041, Note_on_c, 8, 56, 127
2, 96170, Note_off_c, 7, 55, 127
2, 96171, Note_off_c, 8, 56, 127
2, 96171, Note_off_c, 5, 65, 127
2, 96174, Note_on_c, 7, 67, 127
2, 96174, Note_on_c, 7, 55, 127
2, 96304, Note_off_c, 7, 67, 127
2, 96307, Note_on_c, 8, 68, 127
2, 96307, Note_on_c, 5, 53, 127
2, 96436, Note_off_c, 7, 55, 127
2, 96437, Note_off_c, 5, 53, 127
2, 96437, Note_off_c, 8, 68, 127
2, 96438, Note_on_c, 7, 67, 127
2, 96438, Note_on_c, 11, 58, 127
2, 96438, Note_on_c, 7, 55, 127
2, 96568, Note_off_c, 7, 67, 127
2, 96571, Note_on_c, 5, 65, 127
2, 96700, Note_off_c, 7, 55, 127
2, 96701, Note_off_c, 5, 65, 127
2, 96701, Note_off_c, 11, 58, 127
2, 96704, Note_on_c, 3, 63, 127
2, 96704, Note_on_c, 11, 58, 127
2, 96704, Note_on_c, 5, 53, 127
2, 96834, Note_off_c, 3, 63, 127
2, 96837, Note_on_c, 2, 62, 127
2, 96967, Note_off_c, 2, 62, 127
2, 96967, Note_off_c, 5, 53, 127
2, 96967, Note_off_c, 11, 58, 127
2, 96970, Note_on_c, 0, 60, 127
2, 96970, Note_on_c, 11, 58, 127
2, 96970, Note_on_c, 4, 52, 127
2, 97100, Note_off_c, 11, 58, 127
2, 97103, Note_on_c, 7, 55, 127
2, 97233, Note_off_c, 7, 55, 127
2, 97235, Note_on_c, 10, 57, 127
2, 97365, Note_off_c, 10, 57, 127
2, 97367, Note_on_c, 11, 58, 127
2, 97497, Note_off_c, 11, 58, 127
2, 97499, Note_off_c, 4, 52, 127
2, 97500, Note_on_c, 10, 57, 127
2, 97500, Note_on_c, 5, 53, 127
2, 97631, Note_off_c, 0, 60, 127
2, 97633, Note_on_c, 0, 60, 127
2, 97763, Note_off_c, 0, 60, 127
2, 97763, Note_off_c, 5, 53, 127
2, 97766, Note_on_c, 2, 62, 127
2, 97766, Note_on_c, 3, 51, 127
2, 97896, Note_off_c, 2, 62, 127
2, 97899, Note_on_c, 3, 63, 127
2, 98029, Note_off_c, 3, 63, 127
2, 98029, Note_off_c, 3, 51, 127
2, 98031, Note_on_c, 5, 65, 127
2, 98031, Note_on_c, 2, 50, 127
2, 98157, Note_off_c, 10, 57, 127
2, 98165, Note_on_c, 10, 57, 127
2, 98295, Note_off_c, 10, 57, 127
2, 98298, Note_on_c, 12, 59, 127
2, 98428, Note_off_c, 12, 59, 127
2, 98430, Note_on_c, 0, 60, 127
2, 98560, Note_off_c, 0, 60, 127
2, 98563, Note_on_c, 12, 59, 127
2, 98694, Note_off_c, 5, 65, 127
2, 98696, Note_on_c, 3, 63, 127
2, 98826, Note_off_c, 3, 63, 127
2, 98828, Note_on_c, 5, 65, 127
2, 98958, Note_off_c, 5, 65, 127
2, 98961, Note_on_c, 7, 67, 127
2, 99088, Note_off_c, 12, 59, 127
2, 99092, Note_off_c, 7, 67, 127
2, 99095, Note_on_c, 8, 68, 127
2, 99225, Note_off_c, 2, 50, 127
2, 99228, Note_on_c, 2, 50, 127
2, 99358, Note_off_c, 2, 50, 127
2, 99361, Note_on_c, 12, 59, 127
2, 99361, Note_on_c, 3, 51, 127
2, 99491, Note_off_c, 3, 51, 127
2, 99493, Note_on_c, 5, 53, 127
2, 99623, Note_off_c, 5, 53, 127
2, 99624, Note_off_c, 12, 59, 127
2, 99625, Note_on_c, 0, 60, 127
2, 99625, Note_on_c, 3, 51, 127
2, 99755, Note_off_c, 3, 51, 127
2, 99758, Note_on_c, 2, 50, 127
2, 99888, Note_off_c, 2, 50, 127
2, 99888, Note_off_c, 0, 60, 127
2, 99891, Note_on_c, 2, 62, 127
2, 99891, Note_on_c, 0, 48, 127
2, 100021, Note_off_c, 0, 48, 127
2, 100024, Note_on_c, 12, 47, 127
2, 100154, Note_off_c, 12, 47, 127
2, 100154, Note_off_c, 2, 62, 127
2, 100157, Note_on_c, 3, 63, 127
2, 100157, Note_on_c, 0, 48, 127
2, 100287, Note_off_c, 0, 48, 127
2, 100290, Note_on_c, 12, 47, 127
2, 100420, Note_off_c, 12, 47, 127
2, 100420, Note_off_c, 8, 68, 127
2, 100421, Note_on_c, 7, 67, 127
2, 100421, Note_on_c, 0, 48, 127
2, 100551, Note_off_c, 0, 48, 127
2, 100554, Note_on_c, 2, 50, 127
2, 100684, Note_off_c, 2, 50, 127
2, 100684, Note_off_c, 7, 67, 127
2, 100687, Note_on_c, 8, 68, 127
2, 100687, Note_on_c, 0, 48, 127
2, 100817, Note_off_c, 0, 48, 127
2, 100820, Note_on_c, 11, 46, 127
2, 100950, Note_off_c, 11, 46, 127
2, 100950, Note_off_c, 8, 68, 127
2, 100953, Note_on_c, 11, 70, 127
2, 100953, Note_on_c, 8, 44, 127
2, 101083, Note_off_c, 8, 44, 127
2, 101085, Note_on_c, 7, 43, 127
2, 101215, Note_off_c, 7, 43, 127
2, 101216, Note_off_c, 11, 70, 127
2, 101218, Note_on_c, 0, 72, 127
2, 101218, Note_on_c, 0, 48, 127
2, 101218, Note_on_c, 8, 44, 127
2, 101351, Note_off_c, 3, 63, 127
2, 101353, Note_on_c, 3, 63, 127
2, 101485, Note_off_c, 3, 63, 127
2, 101487, Note_on_c, 5, 65, 127
2, 101619, Note_off_c, 5, 65, 127
2, 101623, Note_on_c, 7, 67, 127
2, 101755, Note_off_c, 7, 67, 127
2, 101756, Note_off_c, 0, 48, 127
2, 101758, Note_on_c, 5, 65, 127
2, 101758, Note_on_c, 5, 53, 127
2, 101891, Note_off_c, 0, 72, 127
2, 101893, Note_on_c, 3, 75, 127
2, 102025, Note_off_c, 3, 75, 127
2, 102028, Note_on_c, 2, 74, 127
2, 102160, Note_off_c, 2, 74, 127
2, 102163, Note_on_c, 0, 72, 127
2, 102295, Note_off_c, 0, 72, 127
2, 102296, Note_off_c, 5, 65, 127
2, 102296, Note_off_c, 8, 44, 127
2, 102298, Note_on_c, 12, 71, 127
2, 102298, Note_on_c, 7, 67, 127
2, 102433, Note_on_c, 7, 43, 127
2, 102565, Note_off_c, 7, 43, 127
2, 102566, Note_off_c, 12, 71, 127
2, 102568, Note_on_c, 0, 72, 127
2, 102568, Note_on_c, 10, 45, 127
2, 102700, Note_off_c, 10, 45, 127
2, 102700, Note_off_c, 0, 72, 127
2, 102703, Note_on_c, 2, 74, 127
2, 102703, Note_on_c, 12, 47, 127
2, 102835, Note_off_c, 12, 47, 127
2, 102835, Note_off_c, 2, 74, 127
2, 102836, Note_off_c, 5, 53, 127
2, 102838, Note_on_c, 3, 75, 127
2, 102838, Note_on_c, 3, 51, 127
2, 102838, Note_on_c, 0, 48, 127
2, 102970, Note_off_c, 3, 75, 127
2, 102973, Note_on_c, 2, 74, 127
2, 103105, Note_off_c, 2, 74, 127
2, 103108, Note_on_c, 0, 72, 127
2, 103240, Note_off_c, 0, 72, 127
2, 103243, Note_on_c, 11, 70, 127
2, 103375, Note_off_c, 11, 70, 127
2, 103376, Note_off_c, 3, 51, 127
2, 103376, Note_off_c, 7, 67, 127
2, 103379, Note_on_c, 8, 68, 127
2, 103379, Note_on_c, 8, 56, 127
2, 103511, Note_off_c, 8, 68, 127
2, 103511, Note_off_c, 0, 48, 127
2, 103513, Note_on_c, 7, 67, 127
2, 103513, Note_on_c, 0, 48, 127
2, 103645, Note_off_c, 0, 48, 127
2, 103645, Note_off_c, 7, 67, 127
2, 103648, Note_on_c, 5, 65, 127
2, 103648, Note_on_c, 2, 50, 127
2, 103780, Note_off_c, 2, 50, 127
2, 103780, Note_off_c, 5, 65, 127
2, 103783, Note_on_c, 3, 63, 127
2, 103783, Note_on_c, 3, 51, 127
2, 103915, Note_off_c, 3, 51, 127
2, 103915, Note_off_c, 3, 63, 127
2, 103918, Note_on_c, 2, 62, 127
2, 103918, Note_on_c, 5, 53, 127
2, 104050, Note_off_c, 2, 62, 127
2, 104053, Note_on_c, 2, 74, 127
2, 104185, Note_off_c, 2, 74, 127
2, 104186, Note_off_c, 5, 53, 127
2, 104188, Note_on_c, 3, 75, 127
2, 104188, Note_on_c, 5, 53, 127
2, 104320, Note_off_c, 3, 75, 127
2, 104323, Note_on_c, 5, 77, 127
2, 104455, Note_off_c, 5, 77, 127
2, 104456, Note_off_c, 5, 53, 127
2, 104457, Note_off_c, 8, 56, 127
2, 104458, Note_on_c, 12, 71, 127
2, 104458, Note_on_c, 2, 62, 127
2, 104458, Note_on_c, 7, 55, 127
2, 104458, Note_on_c, 5, 53, 127
2, 104726, Note_off_c, 12, 71, 127
2, 104728, Note_on_c, 0, 72, 127
2, 104860, Note_off_c, 0, 72, 127
2, 104863, Note_on_c, 2, 74, 127
2, 104995, Note_off_c, 2, 74, 127
2, 104996, Note_off_c, 5, 53, 127
2, 104996, Note_off_c, 2, 62, 127
2, 104999, Note_on_c, 0, 72, 127
2, 104999, Note_on_c, 7, 67, 127
2, 104999, Note_on_c, 3, 51, 127
2, 105131, Note_off_c, 0, 72, 127
2, 105134, Note_on_c, 11, 70, 127
2, 105266, Note_off_c, 11, 70, 127
2, 105269, Note_on_c, 8, 68, 127
2, 105399, Note_off_c, 7, 67, 127
2, 105400, Note_off_c, 8, 68, 127
2, 105402, Note_on_c, 7, 67, 127
2, 105535, Note_off_c, 7, 55, 127
2, 105536, Note_off_c, 3, 51, 127
2, 105537, Note_on_c, 0, 72, 127
2, 105537, Note_on_c, 8, 56, 127
2, 105672, Note_on_c, 0, 60, 127
2, 105804, Note_off_c, 0, 60, 127
2, 105807, Note_on_c, 1, 61, 127
2, 105939, Note_off_c, 1, 61, 127
2, 105942, Note_on_c, 3, 63, 127
2, 106074, Note_off_c, 3, 63, 127
2, 106076, Note_off_c, 7, 67, 127
2, 106077, Note_on_c, 5, 65, 127
2, 106077, Note_on_c, 1, 61, 127
2, 106209, Note_off_c, 1, 61, 127
2, 106212, Note_on_c, 0, 60, 127
2, 106344, Note_off_c, 0, 60, 127
2, 106347, Note_on_c, 11, 58, 127
2, 106474, Note_off_c, 8, 56, 127
2, 106479, Note_off_c, 11, 58, 127
2, 106482, Note_on_c, 8, 56, 127
2, 106614, Note_off_c, 8, 56, 127
2, 106615, Note_off_c, 5, 65, 127
2, 106617, Note_on_c, 11, 70, 127
2, 106617, Note_on_c, 7, 55, 127
2, 106752, Note_on_c, 4, 52, 127
2, 106884, Note_off_c, 4, 52, 127
2, 106885, Note_off_c, 0, 72, 127
2, 106887, Note_on_c, 2, 74, 127
2, 106887, Note_on_c, 5, 53, 127
2, 107009, Note_off_c, 7, 55, 127
2, 107018, Note_off_c, 5, 53, 127
2, 107021, Note_on_c, 7, 55, 127
2, 107153, Note_off_c, 2, 74, 127
2, 107157, Note_on_c, 4, 76, 127
2, 107157, Note_on_c, 5, 53, 127
2, 107289, Note_off_c, 5, 53, 127
2, 107292, Note_on_c, 4, 52, 127
2, 107424, Note_off_c, 4, 52, 127
2, 107426, Note_on_c, 2, 50, 127
2, 107558, Note_off_c, 2, 50, 127
2, 107561, Note_on_c, 0, 48, 127
2, 107692, Note_off_c, 0, 48, 127
2, 107692, Note_off_c, 7, 55, 127
2, 107694, Note_off_c, 4, 76, 127
2, 107695, Note_on_c, 5, 77, 127
2, 107695, Note_on_c, 5, 53, 127
2, 107827, Note_off_c, 5, 77, 127
2, 107830, Note_on_c, 0, 72, 127
2, 107962, Note_off_c, 0, 72, 127
2, 107963, Note_off_c, 11, 70, 127
2, 107965, Note_on_c, 1, 73, 127
2, 107965, Note_on_c, 8, 68, 127
2, 108097, Note_off_c, 1, 73, 127
2, 108100, Note_on_c, 3, 75, 127
2, 108232, Note_off_c, 3, 75, 127
2, 108235, Note_on_c, 1, 73, 127
2, 108368, Note_off_c, 8, 68, 127
2, 108370, Note_on_c, 0, 72, 127
2, 108370, Note_on_c, 8, 56, 127
2, 108502, Note_off_c, 8, 56, 127
2, 108502, Note_off_c, 0, 72, 127
2, 108505, Note_on_c, 11, 70, 127
2, 108505, Note_on_c, 11, 58, 127
2, 108637, Note_off_c, 11, 58, 127
2, 108637, Note_off_c, 11, 70, 127
2, 108640, Note_on_c, 8, 68, 127
2, 108640, Note_on_c, 0, 60, 127
2, 108772, Note_off_c, 0, 60, 127
2, 108772, Note_off_c, 8, 68, 127
2, 108773, Note_off_c, 1, 73, 127
2, 108775, Note_on_c, 1, 73, 127
2, 108775, Note_on_c, 7, 67, 127
2, 108775, Note_on_c, 11, 58, 127
2, 108907, Note_off_c, 11, 58, 127
2, 108910, Note_on_c, 8, 56, 127
2, 109042, Note_off_c, 8, 56, 127
2, 109046, Note_on_c, 7, 55, 127
2, 109173, Note_off_c, 5, 53, 127
2, 109178, Note_off_c, 7, 55, 127
2, 109181, Note_on_c, 5, 53, 127
2, 109313, Note_off_c, 5, 53, 127
2, 109313, Note_off_c, 7, 67, 127
2, 109313, Note_off_c, 1, 73, 127
2, 109315, Note_on_c, 0, 72, 127
2, 109315, Note_on_c, 7, 55, 127
2, 109315, Note_on_c, 3, 51, 127
2, 109447, Note_off_c, 3, 51, 127
2, 109450, Note_on_c, 0, 48, 127
2, 109582, Note_off_c, 0, 48, 127
2, 109585, Note_on_c, 1, 49, 127
2, 109717, Note_off_c, 1, 49, 127
2, 109720, Note_on_c, 3, 51, 127
2, 109848, Note_off_c, 7, 55, 127
2, 109852, Note_off_c, 3, 51, 127
2, 109855, Note_on_c, 5, 77, 127
2, 109855, Note_on_c, 1, 49, 127
2, 109989, Note_off_c, 1, 49, 127
2, 109989, Note_off_c, 0, 72, 127
2, 109991, Note_on_c, 8, 80, 127
2, 109991, Note_on_c, 0, 48, 127
2, 110125, Note_off_c, 0, 48, 127
2, 110125, Note_off_c, 8, 80, 127
2, 110127, Note_on_c, 11, 82, 127
2, 110127, Note_on_c, 11, 46, 127
2, 110261, Note_off_c, 11, 46, 127
2, 110261, Note_off_c, 11, 82, 127
2, 110264, Note_on_c, 0, 84, 127
2, 110264, Note_on_c, 8, 44, 127
2, 110398, Note_off_c, 8, 44, 127
2, 110398, Note_off_c, 0, 84, 127
2, 110400, Note_on_c, 11, 82, 127
2, 110400, Note_on_c, 1, 49, 127
2, 110534, Note_off_c, 11, 82, 127
2, 110536, Note_on_c, 8, 80, 127
2, 110670, Note_off_c, 8, 80, 127
2, 110670, Note_off_c, 1, 49, 127
2, 110672, Note_on_c, 7, 79, 127
2, 110672, Note_on_c, 1, 49, 127
2, 110778, Note_off_c, 5, 77, 127
2, 110806, Note_off_c, 7, 79, 127
2, 110808, Note_on_c, 5, 77, 127
2, 110942, Note_off_c, 5, 77, 127
2, 110942, Note_off_c, 1, 49, 127
2, 110945, Note_on_c, 8, 80, 127
2, 110945, Note_on_c, 3, 75, 127
2, 110945, Note_on_c, 1, 49, 127
2, 111079, Note_off_c, 8, 80, 127
2, 111081, Note_on_c, 7, 79, 127
2, 111215, Note_off_c, 7, 79, 127
2, 111217, Note_on_c, 5, 77, 127
2, 111350, Note_off_c, 3, 75, 127
2, 111351, Note_off_c, 5, 77, 127
2, 111353, Note_on_c, 3, 75, 127
2, 111487, Note_off_c, 1, 49, 127
2, 111490, Note_on_c, 8, 80, 127
2, 111490, Note_on_c, 0, 48, 127
2, 111622, Note_off_c, 3, 75, 127
2, 111626, Note_on_c, 3, 75, 127
2, 111760, Note_off_c, 3, 75, 127
2, 111762, Note_on_c, 5, 77, 127
2, 111896, Note_off_c, 5, 77, 127
2, 111898, Note_on_c, 6, 78, 127
2, 112032, Note_off_c, 6, 78, 127
2, 112032, Note_off_c, 0, 48, 127
2, 112034, Note_on_c, 5, 77, 127
2, 112034, Note_on_c, 1, 49, 127
2, 112168, Note_off_c, 5, 77, 127
2, 112171, Note_on_c, 3, 75, 127
2, 112305, Note_off_c, 3, 75, 127
2, 112307, Note_on_c, 1, 73, 127
2, 112441, Note_off_c, 1, 73, 127
2, 112443, Note_on_c, 0, 72, 127
2, 112576, Note_off_c, 1, 49, 127
2, 112577, Note_off_c, 0, 72, 127
2, 112577, Note_off_c, 8, 80, 127
2, 112579, Note_on_c, 7, 79, 127
2, 112579, Note_on_c, 11, 70, 127
2, 112579, Note_on_c, 3, 51, 127
2, 112714, Note_on_c, 11, 58, 127
2, 112848, Note_off_c, 11, 58, 127
2, 112851, Note_on_c, 0, 60, 127
2, 112985, Note_off_c, 0, 60, 127
2, 112987, Note_on_c, 1, 61, 127
2, 113117, Note_off_c, 11, 70, 127
2, 113121, Note_off_c, 1, 61, 127
2, 113121, Note_off_c, 3, 51, 127
2, 113121, Note_off_c, 7, 79, 127
2, 113123, Note_on_c, 8, 80, 127
2, 113123, Note_on_c, 0, 60, 127
2, 113123, Note_on_c, 8, 56, 127
2, 113259, Note_on_c, 11, 70, 127
2, 113393, Note_off_c, 11, 70, 127
2, 113393, Note_off_c, 8, 80, 127
2, 113395, Note_on_c, 3, 75, 127
2, 113395, Note_on_c, 0, 72, 127
2, 113529, Note_off_c, 0, 72, 127
2, 113532, Note_on_c, 1, 73, 127
2, 113661, Note_off_c, 0, 60, 127
2, 113665, Note_off_c, 3, 75, 127
2, 113665, Note_off_c, 8, 56, 127
2, 113666, Note_off_c, 1, 73, 127
2, 113668, Note_on_c, 8, 80, 127
2, 113668, Note_on_c, 0, 72, 127
2, 113668, Note_on_c, 5, 53, 127
2, 113802, Note_off_c, 0, 72, 127
2, 113804, Note_on_c, 11, 70, 127
2, 113938, Note_off_c, 11, 70, 127
2, 113940, Note_on_c, 8, 68, 127
2, 114074, Note_off_c, 8, 68, 127
2, 114077, Note_on_c, 7, 67, 127
2, 114210, Note_off_c, 5, 53, 127
2, 114211, Note_off_c, 7, 67, 127
2, 114213, Note_on_c, 5, 65, 127
2, 114213, Note_on_c, 11, 58, 127
2, 114349, Note_on_c, 2, 62, 127
2, 114483, Note_off_c, 2, 62, 127
2, 114483, Note_off_c, 5, 65, 127
2, 114485, Note_on_c, 7, 67, 127
2, 114485, Note_on_c, 3, 63, 127
2, 114619, Note_off_c, 3, 63, 127
2, 114619, Note_off_c, 7, 67, 127
2, 114621, Note_on_c, 8, 68, 127
2, 114621, Note_on_c, 5, 65, 127
2, 114751, Note_off_c, 11, 58, 127
2, 114755, Note_off_c, 5, 65, 127
2, 114755, Note_off_c, 8, 68, 127
2, 114755, Note_off_c, 8, 80, 127
2, 114758, Note_on_c, 7, 79, 127
2, 114758, Note_on_c, 11, 70, 127
2, 114758, Note_on_c, 3, 63, 127
2, 114892, Note_off_c, 11, 70, 127
2, 114894, Note_on_c, 8, 68, 127
2, 115028, Note_off_c, 8, 68, 127
2, 115030, Note_on_c, 7, 67, 127
2, 115164, Note_off_c, 7, 67, 127
2, 115166, Note_on_c, 5, 65, 127
2, 115296, Note_off_c, 3, 63, 127
2, 115300, Note_off_c, 5, 65, 127
2, 115300, Note_off_c, 7, 79, 127
2, 115302, Note_on_c, 0, 84, 127
2, 115302, Note_on_c, 3, 63, 127
2, 115439, Note_on_c, 0, 60, 127
2, 115572, Note_off_c, 3, 63, 127
2, 115573, Note_off_c, 0, 60, 127
2, 115575, Note_on_c, 5, 65, 127
2, 115575, Note_on_c, 1, 61, 127
2, 115709, Note_off_c, 1, 61, 127
2, 115709, Note_off_c, 5, 65, 127
2, 115711, Note_on_c, 7, 67, 127
2, 115711, Note_on_c, 3, 63, 127
2, 115845, Note_off_c, 3, 63, 127
2, 115845, Note_off_c, 7, 67, 127
2, 115847, Note_on_c, 8, 68, 127
2, 115847, Note_on_c, 1, 61, 127
2, 115981, Note_off_c, 1, 61, 127
2, 115983, Note_on_c, 0, 60, 127
2, 116117, Note_off_c, 0, 60, 127
2, 116117, Note_off_c, 8, 68, 127
2, 116120, Note_on_c, 8, 68, 127
2, 116120, Note_on_c, 11, 58, 127
2, 116254, Note_off_c, 11, 58, 127
2, 116256, Note_on_c, 8, 56, 127
2, 116389, Note_off_c, 0, 84, 127
2, 116390, Note_off_c, 8, 56, 127
2, 116390, Note_off_c, 8, 68, 127
2, 116392, Note_on_c, 11, 82, 127
2, 116392, Note_on_c, 8, 68, 127
2, 116392, Note_on_c, 3, 63, 127
2, 116526, Note_off_c, 8, 68, 127
2, 116528, Note_on_c, 7, 67, 127
2, 116662, Note_off_c, 7, 67, 127
2, 116663, Note_on_c, 8, 68, 127
2, 116797, Note_off_c, 8, 68, 127
2, 116800, Note_on_c, 11, 70, 127
2, 116934, Note_off_c, 11, 70, 127
2, 116936, Note_on_c, 0, 72, 127
2, 117070, Note_off_c, 11, 82, 127
2, 117072, Note_on_c, 11, 82, 127
2, 117206, Note_off_c, 11, 82, 127
2, 117208, Note_on_c, 8, 80, 127
2, 117342, Note_off_c, 8, 80, 127
2, 117345, Note_on_c, 7, 79, 127
2, 117479, Note_off_c, 7, 79, 127
2, 117479, Note_off_c, 3, 63, 127
2, 117481, Note_on_c, 5, 77, 127
2, 117481, Note_on_c, 2, 62, 127
2, 117751, Note_off_c, 5, 77, 127
2, 117753, Note_on_c, 7, 79, 127
2, 117887, Note_off_c, 7, 79, 127
2, 117889, Note_on_c, 8, 80, 127
2, 118023, Note_off_c, 8, 80, 127
2, 118023, Note_off_c, 0, 72, 127
2, 118026, Note_on_c, 7, 79, 127
2, 118026, Note_on_c, 11, 70, 127
2, 118160, Note_off_c, 7, 79, 127
2, 118162, Note_on_c, 5, 77, 127
2, 118296, Note_off_c, 5, 77, 127
2, 118298, Note_on_c, 3, 75, 127
2, 118432, Note_off_c, 3, 75, 127
2, 118434, Note_on_c, 2, 74, 127
2, 118564, Note_off_c, 11, 70, 127
2, 118568, Note_off_c, 2, 74, 127
2, 118568, Note_off_c, 2, 62, 127
2, 118570, Note_on_c, 3, 75, 127
2, 118709, Note_on_c, 0, 60, 127
2, 118844, Note_off_c, 0, 60, 127
2, 118846, Note_on_c, 5, 77, 127
2, 118846, Note_on_c, 1, 61, 127
2, 118981, Note_off_c, 1, 61, 127
2, 118981, Note_off_c, 5, 77, 127
2, 118984, Note_on_c, 7, 79, 127
2, 118984, Note_on_c, 3, 63, 127
2, 119119, Note_off_c, 3, 63, 127
2, 119119, Note_off_c, 7, 79, 127
2, 119121, Note_on_c, 8, 80, 127
2, 119121, Note_on_c, 1, 61, 127
2, 119256, Note_off_c, 1, 61, 127
2, 119258, Note_on_c, 0, 60, 127
2, 119393, Note_off_c, 0, 60, 127
2, 119393, Note_off_c, 8, 80, 127
2, 119396, Note_on_c, 8, 80, 127
2, 119396, Note_on_c, 11, 58, 127
2, 119531, Note_off_c, 11, 58, 127
2, 119533, Note_on_c, 8, 56, 127
2, 119667, Note_off_c, 3, 75, 127
2, 119668, Note_off_c, 8, 56, 127
2, 119670, Note_on_c, 2, 74, 127
2, 119670, Note_on_c, 11, 58, 127
2, 119670, Note_on_c, 11, 46, 127
2, 119805, Note_off_c, 8, 80, 127
2, 119808, Note_on_c, 7, 79, 127
2, 119943, Note_off_c, 7, 79, 127
2, 119945, Note_on_c, 8, 80, 127
2, 120080, Note_off_c, 8, 80, 127
2, 120082, Note_on_c, 11, 82, 127
2, 120217, Note_off_c, 11, 82, 127
2, 120217, Note_off_c, 11, 46, 127
2, 120217, Note_off_c, 2, 74, 127
2, 120220, Note_on_c, 8, 80, 127
2, 120220, Note_on_c, 3, 75, 127
2, 120220, Note_on_c, 3, 51, 127
2, 120355, Note_off_c, 8, 80, 127
2, 120357, Note_on_c, 7, 79, 127
2, 120492, Note_off_c, 7, 79, 127
2, 120494, Note_on_c, 5, 77, 127
2, 120628, Note_off_c, 3, 75, 127
2, 120629, Note_off_c, 5, 77, 127
2, 120632, Note_on_c, 3, 75, 127
2, 120766, Note_off_c, 11, 58, 127
2, 120767, Note_off_c, 3, 75, 127
2, 120769, Note_on_c, 5, 77, 127
2, 120769, Note_on_c, 0, 72, 127
2, 120769, Note_on_c, 8, 56, 127
2, 121042, Note_off_c, 5, 77, 127
2, 121045, Note_on_c, 7, 79, 127
2, 121180, Note_off_c, 7, 79, 127
2, 121182, Note_on_c, 8, 80, 127
2, 121313, Note_off_c, 8, 56, 127
2, 121313, Note_off_c, 0, 72, 127
2, 121318, Note_off_c, 8, 80, 127
2, 121319, Note_off_c, 3, 51, 127
2, 121321, Note_on_c, 11, 82, 127
2, 121321, Note_on_c, 2, 50, 127
2, 121456, Note_off_c, 11, 82, 127
2, 121458, Note_on_c, 8, 80, 127
2, 121458, Note_on_c, 5, 53, 127
2, 121593, Note_off_c, 5, 53, 127
2, 121593, Note_off_c, 8, 80, 127
2, 121595, Note_on_c, 7, 79, 127
2, 121595, Note_on_c, 7, 55, 127
2, 121730, Note_off_c, 7, 55, 127
2, 121730, Note_off_c, 7, 79, 127
2, 121733, Note_on_c, 5, 77, 127
2, 121733, Note_on_c, 8, 56, 127
2, 121868, Note_off_c, 8, 56, 127
2, 121868, Note_off_c, 5, 77, 127
2, 121868, Note_off_c, 2, 50, 127
2, 121870, Note_on_c, 3, 75, 127
2, 121870, Note_on_c, 11, 58, 127
2, 121870, Note_on_c, 7, 55, 127
2, 122005, Note_off_c, 3, 75, 127
2, 122007, Note_on_c, 2, 74, 127
2, 122142, Note_off_c, 2, 74, 127
2, 122145, Note_on_c, 0, 72, 127
2, 122280, Note_off_c, 0, 72, 127
2, 122282, Note_on_c, 11, 70, 127
2, 122413, Note_off_c, 11, 58, 127
2, 122418, Note_off_c, 11, 70, 127
2, 122420, Note_on_c, 3, 75, 127
2, 122559, Note_on_c, 7, 67, 127
2, 122559, Note_on_c, 11, 58, 127
2, 122693, Note_off_c, 3, 75, 127
2, 122694, Note_off_c, 11, 58, 127
2, 122694, Note_off_c, 7, 67, 127
2, 122696, Note_on_c, 3, 75, 127
2, 122696, Note_on_c, 8, 68, 127
2, 122696, Note_on_c, 0, 60, 127
2, 122831, Note_off_c, 0, 60, 127
2, 122831, Note_off_c, 8, 68, 127
2, 122834, Note_on_c, 11, 70, 127
2, 122834, Note_on_c, 1, 61, 127
2, 122968, Note_off_c, 3, 75, 127
2, 122969, Note_off_c, 1, 61, 127
2, 122969, Note_off_c, 11, 70, 127
2, 122971, Note_on_c, 3, 75, 127
2, 122971, Note_on_c, 8, 68, 127
2, 122971, Note_on_c, 0, 60, 127
2, 123106, Note_off_c, 0, 60, 127
2, 123106, Note_off_c, 8, 68, 127
2, 123108, Note_on_c, 7, 67, 127
2, 123108, Note_on_c, 11, 58, 127
2, 123243, Note_off_c, 11, 58, 127
2, 123243, Note_off_c, 7, 67, 127
2, 123245, Note_off_c, 7, 55, 127
2, 123246, Note_on_c, 5, 65, 127
2, 123246, Note_on_c, 8, 56, 127
2, 123381, Note_off_c, 8, 56, 127
2, 123381, Note_off_c, 5, 65, 127
2, 123383, Note_on_c, 3, 63, 127
2, 123383, Note_on_c, 7, 55, 127
2, 123518, Note_off_c, 7, 55, 127
2, 123518, Note_off_c, 3, 63, 127
2, 123520, Note_on_c, 5, 65, 127
2, 123520, Note_on_c, 8, 56, 127
2, 123655, Note_off_c, 3, 75, 127
2, 123658, Note_on_c, 2, 74, 127
2, 123658, Note_on_c, 7, 55, 127
2, 123793, Note_off_c, 7, 55, 127
2, 123793, Note_off_c, 2, 74, 127
2, 123795, Note_on_c, 3, 75, 127
2, 123795, Note_on_c, 5, 53, 127
2, 123930, Note_off_c, 5, 53, 127
2, 123930, Note_off_c, 3, 75, 127
2, 123932, Note_on_c, 5, 77, 127
2, 123932, Note_on_c, 3, 51, 127
2, 124067, Note_off_c, 3, 51, 127
2, 124067, Note_off_c, 5, 77, 127
2, 124070, Note_on_c, 11, 70, 127
2, 124070, Note_on_c, 2, 50, 127
2, 124204, Note_off_c, 5, 65, 127
2, 124207, Note_on_c, 5, 65, 127
2, 124341, Note_off_c, 8, 56, 127
2, 124342, Note_off_c, 5, 65, 127
2, 124342, Note_off_c, 2, 50, 127
2, 124344, Note_on_c, 7, 67, 127
2, 124344, Note_on_c, 7, 55, 127
2, 124344, Note_on_c, 3, 51, 127
2, 124479, Note_off_c, 3, 51, 127
2, 124479, Note_off_c, 7, 55, 127
2, 124479, Note_off_c, 7, 67, 127
2, 124482, Note_on_c, 8, 68, 127
2, 124482, Note_on_c, 5, 53, 127
2, 124617, Note_off_c, 5, 53, 127
2, 124617, Note_off_c, 8, 68, 127
2, 124619, Note_on_c, 7, 67, 127
2, 124619, Note_on_c, 7, 55, 127
2, 124619, Note_on_c, 3, 51, 127
2, 124754, Note_off_c, 3, 51, 127
2, 124754, Note_off_c, 7, 67, 127
2, 124756, Note_on_c, 5, 65, 127
2, 124756, Note_on_c, 2, 50, 127
2, 124891, Note_off_c, 2, 50, 127
2, 124891, Note_off_c, 5, 65, 127
2, 124894, Note_on_c, 3, 63, 127
2, 124894, Note_on_c, 0, 48, 127
2, 125029, Note_off_c, 0, 48, 127
2, 125029, Note_off_c, 3, 63, 127
2, 125031, Note_on_c, 1, 61, 127
2, 125031, Note_on_c, 11, 46, 127
2, 125166, Note_off_c, 11, 46, 127
2, 125166, Note_off_c, 1, 61, 127
2, 125168, Note_on_c, 0, 60, 127
2, 125168, Note_on_c, 8, 44, 127
2, 125303, Note_off_c, 7, 55, 127
2, 125306, Note_on_c, 3, 51, 127
2, 125441, Note_off_c, 3, 51, 127
2, 125443, Note_on_c, 5, 53, 127
2, 125578, Note_off_c, 5, 53, 127
2, 125580, Note_on_c, 7, 55, 127
2, 125715, Note_off_c, 7, 55, 127
2, 125715, Note_off_c, 0, 60, 127
2, 125715, Note_off_c, 11, 70, 127
2, 125718, Note_on_c, 8, 68, 127
2, 125718, Note_on_c, 5, 65, 127
2, 125718, Note_on_c, 5, 53, 127
2, 125853, Note_off_c, 5, 53, 127
2, 125855, Note_on_c, 3, 51, 127
2, 125990, Note_off_c, 3, 51, 127
2, 125992, Note_on_c, 2, 50, 127
2, 126127, Note_off_c, 2, 50, 127
2, 126130, Note_on_c, 0, 48, 127
2, 126264, Note_off_c, 8, 44, 127
2, 126265, Note_off_c, 0, 48, 127
2, 126267, Note_on_c, 11, 46, 127
2, 126267, Note_on_c, 2, 38, 127
2, 126402, Note_off_c, 2, 38, 127
2, 126402, Note_off_c, 11, 46, 127
2, 126404, Note_on_c, 8, 56, 127
2, 126539, Note_off_c, 8, 56, 127
2, 126542, Note_on_c, 11, 58, 127
2, 126677, Note_off_c, 11, 58, 127
2, 126679, Note_on_c, 0, 60, 127
2, 126814, Note_off_c, 0, 60, 127
2, 126814, Note_off_c, 5, 65, 127
2, 126814, Note_off_c, 8, 68, 127
2, 126816, Note_on_c, 7, 67, 127
2, 126816, Note_on_c, 3, 63, 127
2, 126816, Note_on_c, 11, 58, 127
2, 126816, Note_on_c, 3, 51, 127
2, 126951, Note_off_c, 11, 58, 127
2, 126954, Note_on_c, 8, 56, 127
2, 127089, Note_off_c, 8, 56, 127
2, 127091, Note_on_c, 7, 55, 127
2, 127226, Note_off_c, 7, 55, 127
2, 127229, Note_on_c, 5, 53, 127
2, 127359, Note_off_c, 3, 51, 127
2, 127364, Note_off_c, 3, 63, 127
2, 127364, Note_off_c, 7, 67, 127
2, 127365, Note_off_c, 5, 53, 127
2, 127367, Note_on_c, 0, 72, 127
2, 127367, Note_on_c, 8, 68, 127
2, 127367, Note_on_c, 3, 51, 127
2, 127505, Note_on_c, 0, 48, 127
2, 127640, Note_off_c, 0, 48, 127
2, 127643, Note_on_c, 1, 49, 127
2, 127768, Note_off_c, 3, 51, 127
2, 127779, Note_off_c, 1, 49, 127
2, 127781, Note_on_c, 3, 51, 127
2, 127916, Note_off_c, 3, 51, 127
2, 127919, Note_on_c, 1, 49, 127
2, 128054, Note_off_c, 1, 49, 127
2, 128056, Note_on_c, 0, 48, 127
2, 128191, Note_off_c, 0, 48, 127
2, 128193, Note_on_c, 11, 46, 127
2, 128328, Note_off_c, 11, 46, 127
2, 128331, Note_on_c, 8, 44, 127
2, 128466, Note_off_c, 8, 44, 127
2, 128466, Note_off_c, 0, 72, 127
2, 128468, Note_on_c, 11, 70, 127
2, 128468, Note_on_c, 3, 51, 127
2, 128603, Note_off_c, 3, 51, 127
2, 128605, Note_on_c, 2, 50, 127
2, 128740, Note_off_c, 2, 50, 127
2, 128743, Note_on_c, 0, 48, 127
2, 128878, Note_off_c, 0, 48, 127
2, 128880, Note_on_c, 11, 46, 127
2, 129009, Note_off_c, 8, 68, 127
2, 129015, Note_off_c, 11, 46, 127
2, 129015, Note_off_c, 11, 70, 127
2, 129017, Note_on_c, 3, 75, 127
2, 129017, Note_on_c, 7, 67, 127
2, 129017, Note_on_c, 8, 56, 127
2, 129152, Note_off_c, 8, 56, 127
2, 129155, Note_on_c, 7, 55, 127
2, 129290, Note_off_c, 7, 55, 127
2, 129292, Note_on_c, 5, 53, 127
2, 129427, Note_off_c, 5, 53, 127
2, 129429, Note_on_c, 3, 51, 127
2, 129560, Note_off_c, 3, 75, 127
2, 129565, Note_off_c, 3, 51, 127
2, 129565, Note_off_c, 7, 67, 127
2, 129568, Note_on_c, 5, 65, 127
2, 129568, Note_on_c, 11, 58, 127
2, 129568, Note_on_c, 3, 75, 127
2, 129707, Note_on_c, 0, 60, 127
2, 129845, Note_off_c, 0, 60, 127
2, 129847, Note_on_c, 2, 62, 127
2, 129985, Note_off_c, 2, 62, 127
2, 129988, Note_on_c, 3, 63, 127
2, 130120, Note_off_c, 3, 75, 127
2, 130125, Note_off_c, 5, 65, 127
2, 130126, Note_off_c, 3, 63, 127
2, 130127, Note_on_c, 2, 74, 127
2, 130127, Note_on_c, 11, 70, 127
2, 130127, Note_on_c, 5, 65, 127
2, 130265, Note_off_c, 5, 65, 127
2, 130267, Note_on_c, 8, 68, 127
2, 130405, Note_off_c, 8, 68, 127
2, 130406, Note_on_c, 7, 67, 127
2, 130544, Note_off_c, 7, 67, 127
2, 130546, Note_on_c, 5, 65, 127
2, 130684, Note_off_c, 5, 65, 127
2, 130684, Note_off_c, 2, 74, 127
2, 130686, Note_on_c, 6, 78, 127
2, 130686, Note_on_c, 3, 63, 127
2, 130824, Note_off_c, 3, 63, 127
2, 130825, Note_on_c, 5, 65, 127
2, 130963, Note_off_c, 5, 65, 127
2, 130965, Note_on_c, 3, 63, 127
2, 131103, Note_off_c, 3, 63, 127
2, 131104, Note_on_c, 2, 62, 127
2, 131242, Note_off_c, 2, 62, 127
2, 131242, Note_off_c, 11, 70, 127
2, 131244, Note_on_c, 10, 69, 127
2, 131244, Note_on_c, 0, 60, 127
2, 131382, Note_off_c, 0, 60, 127
2, 131384, Note_on_c, 3, 63, 127
2, 131522, Note_off_c, 3, 63, 127
2, 131523, Note_on_c, 2, 62, 127
2, 131661, Note_off_c, 2, 62, 127
2, 131663, Note_on_c, 0, 60, 127
2, 131793, Note_off_c, 11, 58, 127
2, 131801, Note_off_c, 0, 60, 127
2, 131801, Note_off_c, 10, 69, 127
2, 131801, Note_off_c, 6, 78, 127
2, 131802, Note_on_c, 5, 77, 127
2, 131802, Note_on_c, 2, 74, 127
2, 131802, Note_on_c, 8, 68, 127
2, 131802, Note_on_c, 11, 58, 127
2, 131941, Note_off_c, 11, 58, 127
2, 131944, Note_on_c, 5, 53, 127
2, 132083, Note_off_c, 5, 53, 127
2, 132085, Note_on_c, 3, 51, 127
2, 132224, Note_off_c, 3, 51, 127
2, 132226, Note_on_c, 2, 50, 127
2, 132363, Note_off_c, 8, 68, 127
2, 132363, Note_off_c, 2, 74, 127
2, 132363, Note_off_c, 5, 77, 127
2, 132365, Note_off_c, 2, 50, 127
2, 132366, Note_on_c, 3, 75, 127
2, 132366, Note_on_c, 11, 70, 127
2, 132366, Note_on_c, 7, 67, 127
2, 132366, Note_on_c, 3, 51, 127
2, 132505, Note_off_c, 3, 51, 127
2, 132507, Note_on_c, 5, 53, 127
2, 132646, Note_off_c, 5, 53, 127
2, 132648, Note_on_c, 7, 55, 127
2, 132787, Note_off_c, 7, 55, 127
2, 132789, Note_on_c, 8, 56, 127
2, 132927, Note_off_c, 7, 67, 127
2, 132927, Note_off_c, 11, 70, 127
2, 132928, Note_off_c, 8, 56, 127
2, 132929, Note_on_c, 5, 65, 127
2, 132929, Note_on_c, 11, 70, 127
2, 132929, Note_on_c, 11, 46, 127
2, 133492, Note_off_c, 3, 75, 127
2, 133495, Note_on_c, 2, 74, 127
2, 133775, Note_off_c, 11, 70, 127
2, 133775, Note_off_c, 5, 65, 127
2, 133778, Note_on_c, 8, 68, 127
2, 134058, Note_off_c, 11, 46, 127
2, 134059, Note_off_c, 8, 68, 127
2, 134059, Note_off_c, 2, 74, 127
2, 134061, Note_on_c, 3, 75, 127
2, 134061, Note_on_c, 7, 67, 127
2, 134061, Note_on_c, 3, 51, 127
2, 134202, Note_off_c, 7, 67, 127
2, 134204, Note_on_c, 11, 70, 127
2, 134345, Note_off_c, 11, 70, 127
2, 134348, Note_on_c, 0, 72, 127
2, 134489, Note_off_c, 0, 72, 127
2, 134491, Note_on_c, 1, 73, 127
2, 134632, Note_off_c, 1, 73, 127
2, 134634, Note_on_c, 0, 72, 127
2, 134634, Note_on_c, 8, 56, 127
2, 134775, Note_off_c, 0, 72, 127
2, 134777, Note_on_c, 11, 70, 127
2, 134918, Note_off_c, 11, 70, 127
2, 134920, Note_on_c, 8, 68, 127
2, 135061, Note_off_c, 8, 68, 127
2, 135063, Note_on_c, 7, 67, 127
2, 135204, Note_off_c, 7, 67, 127
2, 135204, Note_off_c, 3, 51, 127
2, 135204, Note_off_c, 3, 75, 127
2, 135207, Note_on_c, 2, 74, 127
2, 135207, Note_on_c, 5, 65, 127
2, 135207, Note_on_c, 3, 51, 127
2, 135491, Note_off_c, 5, 65, 127
2, 135493, Note_on_c, 7, 67, 127
2, 135634, Note_off_c, 7, 67, 127
2, 135635, Note_on_c, 8, 68, 127
2, 135776, Note_off_c, 8, 68, 127
2, 135777, Note_off_c, 2, 74, 127
2, 135777, Note_off_c, 8, 56, 127
2, 135778, Note_on_c, 1, 73, 127
2, 135778, Note_on_c, 11, 70, 127
2, 135778, Note_on_c, 7, 55, 127
2, 135919, Note_off_c, 11, 70, 127
2, 135921, Note_on_c, 8, 68, 127
2, 136062, Note_off_c, 8, 68, 127
2, 136065, Note_on_c, 7, 67, 127
2, 136206, Note_off_c, 7, 67, 127
2, 136208, Note_on_c, 5, 65, 127
2, 136348, Note_off_c, 7, 55, 127
2, 136349, Note_off_c, 5, 65, 127
2, 136351, Note_on_c, 3, 63, 127
2, 136351, Note_on_c, 0, 60, 127
2, 136499, Note_off_c, 1, 73, 127
2, 136501, Note_on_c, 11, 70, 127
2, 136649, Note_off_c, 11, 70, 127
2, 136652, Note_on_c, 0, 72, 127
2, 136800, Note_off_c, 0, 72, 127
2, 136802, Note_on_c, 1, 73, 127
2, 136949, Note_off_c, 3, 63, 127
2, 136950, Note_off_c, 1, 73, 127
2, 136950, Note_off_c, 3, 51, 127
2, 136952, Note_on_c, 0, 72, 127
2, 136952, Note_on_c, 8, 68, 127
2, 136952, Note_on_c, 3, 51, 127
2, 137100, Note_off_c, 0, 72, 127
2, 137102, Note_on_c, 11, 70, 127
2, 137250, Note_off_c, 11, 70, 127
2, 137252, Note_on_c, 0, 72, 127
2, 137400, Note_off_c, 0, 72, 127
2, 137400, Note_off_c, 8, 68, 127
2, 137403, Note_on_c, 8, 68, 127
2, 137550, Note_off_c, 0, 60, 127
2, 137553, Note_on_c, 2, 74, 127
2, 137553, Note_on_c, 12, 59, 127
2, 137714, Note_off_c, 8, 68, 127
2, 137718, Note_on_c, 8, 68, 127
2, 137880, Note_off_c, 8, 68, 127
2, 137881, Note_on_c, 11, 70, 127
2, 138043, Note_off_c, 11, 70, 127
2, 138046, Note_on_c, 12, 71, 127
2, 138208, Note_off_c, 12, 71, 127
2, 138210, Note_on_c, 11, 70, 127
2, 138372, Note_off_c, 11, 70, 127
2, 138374, Note_on_c, 8, 68, 127
2, 138536, Note_off_c, 8, 68, 127
2, 138539, Note_on_c, 7, 67, 127
2, 138647, Note_off_c, 7, 67, 127
2, 138652, Note_on_c, 8, 68, 127
2, 138760, Note_off_c, 8, 68, 127
2, 138765, Note_on_c, 5, 65, 127
2, 138865, Note_off_c, 12, 59, 127
2, 138865, Note_off_c, 2, 74, 127
2, 138873, Note_off_c, 5, 65, 127
2, 138883, Note_on_c, 11, 58, 127
2, 138883, Note_on_c, 7, 67, 127
2, 138883, Note_on_c, 3, 75, 127
2, 141486, Note_off_c, 3, 51, 127
2, 141490, Note_off_c, 11, 58, 127
2, 141521, Note_off_c, 3, 75, 127
2, 141521, Note_off_c, 7, 67, 127
2, 142187, Note_on_c, 11, 70, 127
2, 142345, Note_off_c, 11, 70, 127
2, 142348, Note_on_c, 7, 67, 127
2, 142506, Note_off_c, 7, 67, 127
2, 142508, Note_on_c, 5, 65, 127
2, 142666, Note_off_c, 5, 65, 127
2, 142669, Note_on_c, 7, 67, 127
2, 142827, Note_off_c, 7, 67, 127
2, 142830, Note_on_c, 3, 63, 127
2, 142988, Note_off_c, 3, 63, 127
2, 142990, Note_on_c, 8, 68, 127
2, 143148, Note_off_c, 8, 68, 127
2, 143151, Note_on_c, 7, 67, 127
2, 143309, Note_off_c, 7, 67, 127
2, 143312, Note_on_c, 8, 68, 127
2, 143470, Note_off_c, 8, 68, 127
2, 143472, Note_on_c, 0, 72, 127
2, 143764, Note_off_c, 0, 72, 127
2, 143794, Note_on_c, 11, 70, 127
2, 144086, Note_off_c, 11, 70, 127
2, 144437, Note_on_c, 10, 69, 127
2, 144595, Note_off_c, 10, 69, 127
2, 144598, Note_on_c, 5, 65, 127
2, 144756, Note_off_c, 5, 65, 127
2, 144759, Note_on_c, 3, 75, 127
2, 145051, Note_off_c, 3, 75, 127
2, 145079, Note_on_c, 2, 74, 127
2, 145371, Note_off_c, 2, 74, 127
2, 145400, Note_on_c, 2, 74, 127
2, 145505, Note_off_c, 2, 74, 127
2, 145508, Note_on_c, 0, 72, 127
2, 145613, Note_off_c, 0, 72, 127
2, 145615, Note_on_c, 2, 74, 127
2, 145720, Note_off_c, 2, 74, 127
2, 145722, Note_on_c, 0, 72, 127
2, 145827, Note_off_c, 0, 72, 127
2, 145829, Note_on_c, 11, 70, 127
2, 145934, Note_off_c, 11, 70, 127
2, 145936, Note_on_c, 0, 72, 127
2, 146041, Note_off_c, 0, 72, 127
2, 146043, Note_on_c, 11, 70, 127
2, 146201, Note_off_c, 11, 70, 127
2, 146204, Note_on_c, 5, 77, 127
2, 146362, Note_off_c, 5, 77, 127
2, 146365, Note_on_c, 2, 74, 127
2, 146523, Note_off_c, 2, 74, 127
2, 146525, Note_on_c, 11, 70, 127
2, 146683, Note_off_c, 11, 70, 127
2, 146686, Note_on_c, 8, 68, 127
2, 146844, Note_off_c, 8, 68, 127
2, 146847, Note_on_c, 5, 77, 127
2, 147005, Note_off_c, 5, 77, 127
2, 147007, Note_on_c, 2, 74, 127
2, 147165, Note_off_c, 2, 74, 127
2, 147168, Note_on_c, 8, 68, 127
2, 147326, Note_off_c, 8, 68, 127
2, 147329, Note_on_c, 7, 67, 127
2, 147329, Note_on_c, 3, 63, 127
2, 147487, Note_off_c, 3, 63, 127
2, 147489, Note_on_c, 2, 62, 127
2, 147647, Note_off_c, 2, 62, 127
2, 147648, Note_off_c, 7, 67, 127
2, 147650, Note_on_c, 8, 80, 127
2, 147650, Note_on_c, 0, 60, 127
2, 147808, Note_off_c, 0, 60, 127
2, 147810, Note_on_c, 2, 62, 127
2, 147968, Note_off_c, 2, 62, 127
2, 147969, Note_off_c, 8, 80, 127
2, 147970, Note_on_c, 7, 79, 127
2, 147970, Note_on_c, 11, 58, 127
2, 148128, Note_off_c, 11, 58, 127
2, 148131, Note_on_c, 3, 63, 127
2, 148289, Note_off_c, 3, 63, 127
2, 148289, Note_off_c, 7, 79, 127
2, 148292, Note_on_c, 5, 77, 127
2, 148292, Note_on_c, 2, 62, 127
2, 148450, Note_off_c, 2, 62, 127
2, 148452, Note_on_c, 3, 63, 127
2, 148610, Note_off_c, 3, 63, 127
2, 148611, Note_off_c, 5, 77, 127
2, 148613, Note_on_c, 3, 75, 127
2, 148613, Note_on_c, 7, 67, 127
2, 148771, Note_off_c, 3, 75, 127
2, 148774, Note_on_c, 0, 72, 127
2, 148905, Note_off_c, 7, 67, 127
2, 148932, Note_off_c, 0, 72, 127
2, 148934, Note_on_c, 2, 74, 127
2, 148934, Note_on_c, 5, 65, 127
2, 149092, Note_off_c, 2, 74, 127
2, 149095, Note_on_c, 3, 75, 127
2, 149226, Note_off_c, 5, 65, 127
2, 149253, Note_off_c, 3, 75, 127
2, 149256, Note_on_c, 5, 77, 127
2, 149577, Note_on_c, 2, 62, 127
2, 149735, Note_off_c, 2, 62, 127
2, 149738, Note_on_c, 11, 58, 127
2, 149896, Note_off_c, 11, 58, 127
2, 149898, Note_on_c, 8, 68, 127
2, 150057, Note_off_c, 5, 77, 127
2, 150059, Note_on_c, 3, 75, 127
2, 150190, Note_off_c, 8, 68, 127
2, 150217, Note_off_c, 3, 75, 127
2, 150220, Note_on_c, 5, 77, 127
2, 150220, Note_on_c, 7, 67, 127
2, 150378, Note_off_c, 5, 77, 127
2, 150381, Note_on_c, 7, 79, 127
2, 150512, Note_off_c, 7, 67, 127
2, 150539, Note_off_c, 7, 79, 127
2, 150540, Note_on_c, 8, 80, 127
2, 150540, Note_on_c, 7, 67, 127
2, 150645, Note_off_c, 7, 67, 127
2, 150647, Note_on_c, 5, 65, 127
2, 150698, Note_off_c, 8, 80, 127
2, 150701, Note_on_c, 5, 77, 127
2, 150752, Note_off_c, 5, 65, 127
2, 150754, Note_on_c, 7, 67, 127
2, 150859, Note_off_c, 7, 67, 127
2, 150859, Note_off_c, 5, 77, 127
2, 150862, Note_on_c, 11, 70, 127
2, 150862, Note_on_c, 5, 65, 127
2, 150967, Note_off_c, 5, 65, 127
2, 150969, Note_on_c, 3, 63, 127
2, 151020, Note_off_c, 11, 70, 127
2, 151022, Note_on_c, 8, 80, 127
2, 151074, Note_off_c, 3, 63, 127
2, 151076, Note_on_c, 5, 65, 127
2, 151180, Note_off_c, 8, 80, 127
2, 151181, Note_off_c, 5, 65, 127
2, 151183, Note_on_c, 7, 79, 127
2, 151183, Note_on_c, 3, 63, 127
2, 151341, Note_off_c, 3, 63, 127
2, 151344, Note_on_c, 11, 70, 127
2, 151502, Note_off_c, 11, 70, 127
2, 151502, Note_off_c, 7, 79, 127
2, 151504, Note_on_c, 3, 75, 127
2, 151504, Note_on_c, 7, 67, 127
2, 151662, Note_off_c, 7, 67, 127
2, 151662, Note_off_c, 3, 75, 127
2, 151665, Note_on_c, 7, 79, 127
2, 151665, Note_on_c, 5, 65, 127
2, 151823, Note_off_c, 5, 65, 127
2, 151823, Note_off_c, 7, 79, 127
2, 151826, Note_on_c, 0, 84, 127
2, 151826, Note_on_c, 3, 63, 127
2, 151984, Note_off_c, 3, 63, 127
2, 151986, Note_on_c, 0, 72, 127
2, 152144, Note_off_c, 0, 72, 127
2, 152147, Note_on_c, 10, 69, 127
2, 152305, Note_off_c, 10, 69, 127
2, 152308, Note_on_c, 5, 65, 127
2, 152466, Note_off_c, 5, 65, 127
2, 152468, Note_on_c, 2, 62, 127
2, 152626, Note_off_c, 2, 62, 127
2, 152628, Note_off_c, 0, 84, 127
2, 152629, Note_on_c, 10, 69, 127
2, 152787, Note_off_c, 10, 69, 127
2, 152790, Note_on_c, 2, 74, 127
2, 152790, Note_on_c, 5, 65, 127
2, 152948, Note_off_c, 5, 65, 127
2, 152948, Note_off_c, 2, 74, 127
2, 152950, Note_on_c, 5, 77, 127
2, 152950, Note_on_c, 3, 63, 127
2, 153108, Note_off_c, 3, 63, 127
2, 153108, Note_off_c, 5, 77, 127
2, 153110, Note_on_c, 11, 82, 127
2, 153110, Note_on_c, 1, 61, 127
2, 153268, Note_off_c, 1, 61, 127
2, 153271, Note_on_c, 11, 70, 127
2, 153429, Note_off_c, 11, 70, 127
2, 153431, Note_on_c, 7, 67, 127
2, 153589, Note_off_c, 7, 67, 127
2, 153592, Note_on_c, 1, 61, 127
2, 153750, Note_off_c, 1, 61, 127
2, 153753, Note_on_c, 0, 60, 127
2, 153911, Note_off_c, 0, 60, 127
2, 153912, Note_off_c, 11, 82, 127
2, 153913, Note_on_c, 7, 67, 127
2, 154071, Note_off_c, 7, 67, 127
2, 154074, Note_on_c, 0, 72, 127
2, 154074, Note_on_c, 3, 63, 127
2, 154232, Note_off_c, 3, 63, 127
2, 154232, Note_off_c, 0, 72, 127
2, 154235, Note_on_c, 3, 75, 127
2, 154235, Note_on_c, 0, 60, 127
2, 154393, Note_off_c, 0, 60, 127
2, 154393, Note_off_c, 3, 75, 127
2, 154395, Note_on_c, 8, 80, 127
2, 154395, Note_on_c, 2, 62, 127
2, 154553, Note_off_c, 2, 62, 127
2, 154556, Note_on_c, 11, 70, 127
2, 154714, Note_off_c, 11, 70, 127
2, 154714, Note_off_c, 8, 80, 127
2, 154717, Note_on_c, 7, 79, 127
2, 154717, Note_on_c, 3, 63, 127
2, 154875, Note_off_c, 3, 63, 127
2, 154878, Note_on_c, 0, 72, 127
2, 155036, Note_off_c, 0, 72, 127
2, 155036, Note_off_c, 7, 79, 127
2, 155038, Note_on_c, 5, 77, 127
2, 155038, Note_on_c, 2, 74, 127
2, 155038, Note_on_c, 11, 58, 127
2, 155196, Note_off_c, 11, 58, 127
2, 155199, Note_on_c, 7, 55, 127
2, 155357, Note_off_c, 7, 55, 127
2, 155357, Note_off_c, 2, 74, 127
2, 155360, Note_on_c, 1, 73, 127
2, 155360, Note_on_c, 5, 53, 127
2, 155518, Note_off_c, 5, 53, 127
2, 155520, Note_on_c, 7, 55, 127
2, 155678, Note_off_c, 7, 55, 127
2, 155678, Note_off_c, 5, 77, 127
2, 155679, Note_off_c, 1, 73, 127
2, 155681, Note_on_c, 7, 79, 127
2, 155681, Note_on_c, 0, 72, 127
2, 155681, Note_on_c, 3, 51, 127
2, 155839, Note_off_c, 3, 51, 127
2, 155841, Note_on_c, 8, 56, 127
2, 155999, Note_off_c, 8, 56, 127
2, 156000, Note_off_c, 0, 72, 127
2, 156000, Note_off_c, 7, 79, 127
2, 156001, Note_on_c, 2, 74, 127
2, 156001, Note_on_c, 11, 70, 127
2, 156001, Note_on_c, 7, 55, 127
2, 156159, Note_off_c, 7, 55, 127
2, 156162, Note_on_c, 8, 56, 127
2, 156320, Note_off_c, 8, 56, 127
2, 156320, Note_off_c, 11, 70, 127
2, 156320, Note_off_c, 2, 74, 127
2, 156323, Note_on_c, 3, 75, 127
2, 156323, Note_on_c, 8, 68, 127
2, 156323, Note_on_c, 0, 60, 127
2, 156481, Note_off_c, 8, 68, 127
2, 156483, Note_on_c, 7, 67, 127
2, 156615, Note_off_c, 0, 60, 127
2, 156641, Note_off_c, 7, 67, 127
2, 156644, Note_on_c, 8, 68, 127
2, 156644, Note_on_c, 11, 58, 127
2, 156802, Note_off_c, 8, 68, 127
2, 156805, Note_on_c, 11, 70, 127
2, 156936, Note_off_c, 11, 58, 127
2, 156963, Note_off_c, 11, 70, 127
2, 156965, Note_on_c, 0, 72, 127
2, 157125, Note_off_c, 3, 75, 127
2, 157287, Note_on_c, 5, 77, 127
2, 157287, Note_on_c, 10, 57, 127
2, 157445, Note_off_c, 10, 57, 127
2, 157447, Note_on_c, 5, 53, 127
2, 157605, Note_off_c, 5, 53, 127
2, 157606, Note_off_c, 5, 77, 127
2, 157608, Note_on_c, 7, 79, 127
2, 157608, Note_on_c, 3, 63, 127
2, 157766, Note_off_c, 0, 72, 127
2, 157769, Note_on_c, 11, 70, 127
2, 157927, Note_off_c, 11, 70, 127
2, 157927, Note_off_c, 3, 63, 127
2, 157929, Note_on_c, 0, 72, 127
2, 157929, Note_on_c, 2, 62, 127
2, 158087, Note_off_c, 0, 72, 127
2, 158090, Note_on_c, 2, 74, 127
2, 158248, Note_off_c, 2, 74, 127
2, 158248, Note_off_c, 2, 62, 127
2, 158251, Note_on_c, 3, 75, 127
2, 158251, Note_on_c, 2, 62, 127
2, 158356, Note_off_c, 2, 62, 127
2, 158358, Note_on_c, 0, 60, 127
2, 158409, Note_off_c, 3, 75, 127
2, 158411, Note_on_c, 0, 72, 127
2, 158463, Note_off_c, 0, 60, 127
2, 158464, Note_on_c, 2, 62, 127
2, 158569, Note_off_c, 2, 62, 127
2, 158569, Note_off_c, 0, 72, 127
2, 158570, Note_off_c, 7, 79, 127
2, 158571, Note_on_c, 10, 81, 127
2, 158571, Note_on_c, 5, 65, 127
2, 158571, Note_on_c, 0, 60, 127
2, 158676, Note_off_c, 0, 60, 127
2, 158678, Note_on_c, 11, 58, 127
2, 158729, Note_off_c, 5, 65, 127
2, 158732, Note_on_c, 3, 75, 127
2, 158783, Note_off_c, 11, 58, 127
2, 158785, Note_on_c, 0, 60, 127
2, 158890, Note_off_c, 0, 60, 127
2, 158890, Note_off_c, 3, 75, 127
2, 158890, Note_off_c, 10, 81, 127
2, 158892, Note_on_c, 11, 82, 127
2, 158892, Note_on_c, 2, 74, 127
2, 158892, Note_on_c, 11, 58, 127
2, 159050, Note_off_c, 11, 58, 127
2, 159053, Note_on_c, 5, 65, 127
2, 159211, Note_off_c, 5, 65, 127
2, 159211, Note_off_c, 2, 74, 127
2, 159214, Note_on_c, 5, 77, 127
2, 159214, Note_on_c, 2, 62, 127
2, 159372, Note_off_c, 2, 62, 127
2, 159374, Note_on_c, 11, 58, 127
2, 159532, Note_off_c, 11, 58, 127
2, 159533, Note_off_c, 5, 77, 127
2, 159535, Note_on_c, 2, 74, 127
2, 159535, Note_on_c, 8, 56, 127
2, 159693, Note_off_c, 8, 56, 127
2, 159696, Note_on_c, 5, 65, 127
2, 159854, Note_off_c, 5, 65, 127
2, 159854, Note_off_c, 2, 74, 127
2, 159857, Note_on_c, 11, 70, 127
2, 159857, Note_on_c, 2, 62, 127
2, 160015, Note_off_c, 2, 62, 127
2, 160017, Note_on_c, 8, 56, 127
2, 160175, Note_off_c, 8, 56, 127
2, 160176, Note_off_c, 11, 70, 127
2, 160178, Note_on_c, 3, 75, 127
2, 160178, Note_on_c, 7, 55, 127
2, 160336, Note_off_c, 11, 82, 127
2, 160339, Note_on_c, 11, 82, 127
2, 160470, Note_off_c, 7, 55, 127
2, 160497, Note_off_c, 11, 82, 127
2, 160499, Note_on_c, 7, 79, 127
2, 160499, Note_on_c, 3, 63, 127
2, 160646, Note_off_c, 3, 75, 127
2, 160657, Note_off_c, 7, 79, 127
2, 160660, Note_on_c, 3, 75, 127
2, 160791, Note_off_c, 3, 63, 127
2, 160818, Note_off_c, 3, 75, 127
2, 160821, Note_on_c, 1, 73, 127
2, 160981, Note_on_c, 11, 82, 127
2, 161139, Note_off_c, 11, 82, 127
2, 161141, Note_on_c, 7, 79, 127
2, 161141, Note_on_c, 3, 51, 127
2, 161298, Note_off_c, 7, 79, 127
2, 161298, Note_off_c, 1, 73, 127
2, 161301, Note_on_c, 1, 73, 127
2, 161459, Note_off_c, 1, 73, 127
2, 161459, Note_off_c, 3, 51, 127
2, 161461, Note_on_c, 0, 72, 127
2, 161461, Note_on_c, 8, 56, 127
2, 161619, Note_off_c, 8, 56, 127
2, 161622, Note_on_c, 3, 63, 127
2, 161780, Note_off_c, 3, 63, 127
2, 161780, Note_off_c, 0, 72, 127
2, 161783, Note_on_c, 3, 75, 127
2, 161783, Note_on_c, 0, 60, 127
2, 161941, Note_off_c, 0, 60, 127
2, 161943, Note_on_c, 8, 56, 127
2, 162101, Note_off_c, 8, 56, 127
2, 162102, Note_off_c, 3, 75, 127
2, 162104, Note_on_c, 8, 80, 127
2, 162104, Note_on_c, 0, 72, 127
2, 162104, Note_on_c, 7, 55, 127
2, 162262, Note_off_c, 7, 55, 127
2, 162265, Note_on_c, 3, 63, 127
2, 162423, Note_off_c, 3, 63, 127
2, 162423, Note_off_c, 0, 72, 127
2, 162425, Note_on_c, 8, 68, 127
2, 162425, Note_on_c, 0, 60, 127
2, 162583, Note_off_c, 0, 60, 127
2, 162586, Note_on_c, 7, 55, 127
2, 162744, Note_off_c, 7, 55, 127
2, 162744, Note_off_c, 8, 68, 127
2, 162747, Note_on_c, 2, 74, 127
2, 162747, Note_on_c, 5, 53, 127
2, 162905, Note_off_c, 8, 80, 127
2, 162907, Note_on_c, 8, 80, 127
2, 163039, Note_off_c, 5, 53, 127
2, 163065, Note_off_c, 8, 80, 127
2, 163068, Note_on_c, 5, 77, 127
2, 163068, Note_on_c, 2, 62, 127
2, 163215, Note_off_c, 2, 74, 127
2, 163226, Note_off_c, 5, 77, 127
2, 163229, Note_on_c, 2, 74, 127
2, 163360, Note_off_c, 2, 62, 127
2, 163387, Note_off_c, 2, 74, 127
2, 163389, Note_on_c, 0, 72, 127
2, 163549, Note_on_c, 8, 80, 127
2, 163707, Note_off_c, 8, 80, 127
2, 163710, Note_on_c, 5, 77, 127
2, 163710, Note_on_c, 2, 50, 127
2, 163857, Note_off_c, 0, 72, 127
2, 163868, Note_off_c, 5, 77, 127
2, 163870, Note_on_c, 0, 72, 127
2, 164028, Note_off_c, 0, 72, 127
2, 164029, Note_off_c, 2, 50, 127
2, 164031, Note_on_c, 11, 70, 127
2, 164031, Note_on_c, 7, 55, 127
2, 164189, Note_off_c, 7, 55, 127
2, 164192, Note_on_c, 2, 62, 127
2, 164350, Note_off_c, 2, 62, 127
2, 164350, Note_off_c, 11, 70, 127
2, 164352, Note_on_c, 2, 74, 127
2, 164352, Note_on_c, 11, 58, 127
2, 164510, Note_off_c, 11, 58, 127
2, 164513, Note_on_c, 7, 55, 127
2, 164671, Note_off_c, 7, 55, 127
2, 164671, Note_off_c, 2, 74, 127
2, 164674, Note_on_c, 7, 79, 127
2, 164674, Note_on_c, 11, 70, 127
2, 164674, Note_on_c, 5, 53, 127
2, 164832, Note_off_c, 5, 53, 127
2, 164835, Note_on_c, 1, 61, 127
2, 164993, Note_off_c, 1, 61, 127
2, 164993, Note_off_c, 11, 70, 127
2, 164995, Note_on_c, 7, 67, 127
2, 164995, Note_on_c, 11, 58, 127
2, 165153, Note_off_c, 11, 58, 127
2, 165156, Note_on_c, 5, 53, 127
2, 165314, Note_off_c, 5, 53, 127
2, 165314, Note_off_c, 7, 67, 127
2, 165317, Note_on_c, 0, 72, 127
2, 165317, Note_on_c, 4, 52, 127
2, 165475, Note_off_c, 4, 52, 127
2, 165477, Note_on_c, 0, 60, 127
2, 165635, Note_off_c, 0, 60, 127
2, 165636, Note_off_c, 0, 72, 127
2, 165638, Note_on_c, 11, 70, 127
2, 165638, Note_on_c, 7, 55, 127
2, 165796, Note_off_c, 7, 55, 127
2, 165799, Note_on_c, 4, 52, 127
2, 165957, Note_off_c, 4, 52, 127
2, 165957, Note_off_c, 11, 70, 127
2, 165959, Note_on_c, 8, 68, 127
2, 165959, Note_on_c, 5, 53, 127
2, 166117, Note_off_c, 5, 53, 127
2, 166118, Note_off_c, 7, 79, 127
2, 166120, Note_on_c, 0, 72, 127
2, 166120, Note_on_c, 0, 60, 127
2, 166278, Note_off_c, 0, 60, 127
2, 166278, Note_off_c, 0, 72, 127
2, 166280, Note_on_c, 2, 74, 127
2, 166280, Note_on_c, 8, 56, 127
2, 166438, Note_off_c, 8, 56, 127
2, 166438, Note_off_c, 2, 74, 127
2, 166440, Note_on_c, 3, 75, 127
2, 166440, Note_on_c, 5, 53, 127
2, 166598, Note_off_c, 5, 53, 127
2, 166598, Note_off_c, 3, 75, 127
2, 166601, Note_on_c, 5, 77, 127
2, 166601, Note_on_c, 2, 50, 127
2, 166759, Note_off_c, 2, 50, 127
2, 166760, Note_off_c, 8, 68, 127
2, 166762, Note_on_c, 0, 72, 127
2, 166762, Note_on_c, 11, 58, 127
2, 166920, Note_off_c, 11, 58, 127
2, 166920, Note_off_c, 0, 72, 127
2, 166922, Note_on_c, 11, 70, 127
2, 166922, Note_on_c, 5, 53, 127
2, 167080, Note_off_c, 5, 53, 127
2, 167080, Note_off_c, 11, 70, 127
2, 167083, Note_on_c, 8, 68, 127
2, 167083, Note_on_c, 2, 50, 127
2, 167241, Note_off_c, 2, 50, 127
2, 167241, Note_off_c, 8, 68, 127
2, 167244, Note_on_c, 7, 67, 127
2, 167244, Note_on_c, 3, 51, 127
2, 167402, Note_off_c, 3, 51, 127
2, 167404, Note_on_c, 11, 58, 127
2, 167562, Note_off_c, 11, 58, 127
2, 167563, Note_off_c, 5, 77, 127
2, 167565, Note_on_c, 3, 75, 127
2, 167565, Note_on_c, 7, 55, 127
2, 167723, Note_off_c, 7, 55, 127
2, 167726, Note_on_c, 3, 51, 127
2, 167884, Note_off_c, 3, 51, 127
2, 167884, Note_off_c, 7, 67, 127
2, 167886, Note_on_c, 5, 65, 127
2, 167886, Note_on_c, 11, 46, 127
2, 168044, Note_off_c, 3, 75, 127
2, 168047, Note_on_c, 2, 74, 127
2, 168205, Note_off_c, 2, 74, 127
2, 168205, Note_off_c, 11, 46, 127
2, 168208, Note_on_c, 0, 72, 127
2, 168208, Note_on_c, 8, 56, 127
2, 168366, Note_off_c, 0, 72, 127
2, 168368, Note_on_c, 2, 74, 127
2, 168520, Note_off_c, 5, 65, 127
2, 168525, Note_off_c, 2, 74, 127
2, 168526, Note_off_c, 8, 56, 127
2, 168527, Note_on_c, 11, 70, 127
2, 168527, Note_on_c, 7, 55, 127
2, 168688, Note_on_c, 3, 75, 127
2, 168846, Note_off_c, 3, 75, 127
2, 168846, Note_off_c, 7, 55, 127
2, 168848, Note_on_c, 2, 74, 127
2, 168848, Note_on_c, 5, 53, 127
2, 169006, Note_off_c, 2, 74, 127
2, 169009, Note_on_c, 3, 75, 127
2, 169161, Note_off_c, 11, 70, 127
2, 169166, Note_off_c, 3, 75, 127
2, 169166, Note_off_c, 5, 53, 127
2, 169169, Note_on_c, 7, 79, 127
2, 169169, Note_on_c, 3, 51, 127
2, 169327, Note_off_c, 3, 51, 127
2, 169329, Note_on_c, 0, 48, 127
2, 169461, Note_off_c, 7, 79, 127
2, 169487, Note_off_c, 0, 48, 127
2, 169490, Note_on_c, 5, 77, 127
2, 169490, Note_on_c, 8, 68, 127
2, 169490, Note_on_c, 2, 50, 127
2, 169648, Note_off_c, 2, 50, 127
2, 169648, Note_off_c, 8, 68, 127
2, 169651, Note_on_c, 7, 67, 127
2, 169651, Note_on_c, 3, 51, 127
2, 169782, Note_off_c, 5, 77, 127
2, 169809, Note_off_c, 3, 51, 127
2, 169809, Note_off_c, 7, 67, 127
2, 169811, Note_on_c, 8, 68, 127
2, 169811, Note_on_c, 5, 53, 127
2, 170130, Note_off_c, 8, 68, 127
2, 170133, Note_on_c, 2, 74, 127
2, 170133, Note_on_c, 5, 65, 127
2, 170291, Note_off_c, 2, 74, 127
2, 170294, Note_on_c, 11, 70, 127
2, 170452, Note_off_c, 11, 70, 127
2, 170452, Note_off_c, 5, 65, 127
2, 170454, Note_on_c, 8, 80, 127
2, 170454, Note_on_c, 2, 62, 127
2, 170612, Note_off_c, 5, 53, 127
2, 170615, Note_on_c, 3, 51, 127
2, 170746, Note_off_c, 8, 80, 127
2, 170773, Note_off_c, 3, 51, 127
2, 170773, Note_off_c, 2, 62, 127
2, 170776, Note_on_c, 7, 79, 127
2, 170776, Note_on_c, 3, 75, 127
2, 170776, Note_on_c, 5, 53, 127
2, 170934, Note_off_c, 5, 53, 127
2, 170935, Note_on_c, 7, 55, 127
2, 171068, Note_off_c, 7, 79, 127
2, 171093, Note_off_c, 7, 55, 127
2, 171096, Note_on_c, 7, 79, 127
2, 171096, Note_on_c, 8, 56, 127
2, 171201, Note_off_c, 7, 79, 127
2, 171203, Note_on_c, 5, 77, 127
2, 171254, Note_off_c, 8, 56, 127
2, 171257, Note_on_c, 5, 53, 127
2, 171308, Note_off_c, 5, 77, 127
2, 171310, Note_on_c, 7, 79, 127
2, 171415, Note_off_c, 7, 79, 127
2, 171415, Note_off_c, 5, 53, 127
2, 171416, Note_off_c, 3, 75, 127
2, 171417, Note_on_c, 5, 77, 127
2, 171417, Note_on_c, 2, 74, 127
2, 171417, Note_on_c, 11, 46, 127
2, 171522, Note_off_c, 5, 77, 127
2, 171524, Note_on_c, 7, 79, 127
2, 171575, Note_off_c, 11, 46, 127
2, 171578, Note_on_c, 8, 56, 127
2, 171629, Note_off_c, 7, 79, 127
2, 171631, Note_on_c, 5, 77, 127
2, 171734, Note_off_c, 2, 74, 127
2, 171735, Note_off_c, 5, 77, 127
2, 171735, Note_off_c, 8, 56, 127
2, 171738, Note_on_c, 3, 75, 127
2, 171738, Note_on_c, 7, 55, 127
2, 171898, Note_on_c, 11, 82, 127
2, 172056, Note_off_c, 11, 82, 127
2, 172057, Note_off_c, 7, 55, 127
2, 172059, Note_on_c, 7, 79, 127
2, 172059, Note_on_c, 11, 58, 127
2, 172215, Note_off_c, 3, 75, 127
2, 172216, Note_off_c, 7, 79, 127
2, 172219, Note_on_c, 3, 75, 127
2, 172377, Note_off_c, 3, 75, 127
2, 172377, Note_off_c, 11, 58, 127
2, 172379, Note_on_c, 1, 73, 127
2, 172379, Note_on_c, 3, 63, 127
2, 172379, Note_on_c, 7, 55, 127
2, 172537, Note_off_c, 1, 73, 127
2, 172540, Note_on_c, 11, 82, 127
2, 172698, Note_off_c, 11, 82, 127
2, 172698, Note_off_c, 7, 55, 127
2, 172701, Note_on_c, 7, 79, 127
2, 172701, Note_on_c, 3, 51, 127
2, 172859, Note_off_c, 7, 79, 127
2, 172860, Note_on_c, 1, 73, 127
2, 173018, Note_off_c, 1, 73, 127
2, 173020, Note_off_c, 3, 51, 127
2, 173021, Note_on_c, 0, 72, 127
2, 173021, Note_on_c, 8, 56, 127
2, 173180, Note_off_c, 3, 63, 127
2, 173182, Note_on_c, 3, 63, 127
2, 173313, Note_off_c, 0, 72, 127
2, 173339, Note_off_c, 8, 56, 127
2, 173340, Note_off_c, 3, 63, 127
2, 173342, Note_on_c, 8, 80, 127
2, 173342, Note_on_c, 0, 60, 127
2, 173500, Note_off_c, 0, 60, 127
2, 173503, Note_on_c, 8, 56, 127
2, 173634, Note_off_c, 8, 80, 127
2, 173661, Note_off_c, 8, 56, 127
2, 173664, Note_on_c, 7, 55, 127
2, 173822, Note_off_c, 7, 55, 127
2, 173824, Note_on_c, 3, 63, 127
2, 173982, Note_off_c, 3, 63, 127
2, 173985, Note_on_c, 8, 68, 127
2, 173985, Note_on_c, 0, 60, 127
2, 174143, Note_off_c, 0, 60, 127
2, 174146, Note_on_c, 7, 55, 127
2, 174304, Note_off_c, 7, 55, 127
2, 174304, Note_off_c, 8, 68, 127
2, 174306, Note_on_c, 2, 74, 127
2, 174306, Note_on_c, 5, 53, 127
2, 174467, Note_on_c, 8, 80, 127
2, 174625, Note_off_c, 8, 80, 127
2, 174625, Note_off_c, 5, 53, 127
2, 174628, Note_on_c, 5, 77, 127
2, 174628, Note_on_c, 8, 56, 127
2, 174783, Note_off_c, 2, 74, 127
2, 174785, Note_off_c, 5, 77, 127
2, 174787, Note_on_c, 2, 74, 127
2, 174945, Note_off_c, 2, 74, 127
2, 174946, Note_off_c, 8, 56, 127
2, 174948, Note_on_c, 0, 72, 127
2, 174948, Note_on_c, 2, 62, 127
2, 174948, Note_on_c, 5, 53, 127
2, 175106, Note_off_c, 0, 72, 127
2, 175108, Note_on_c, 8, 80, 127
2, 175266, Note_off_c, 8, 80, 127
2, 175267, Note_off_c, 5, 53, 127
2, 175268, Note_on_c, 5, 77, 127
2, 175268, Note_on_c, 2, 50, 127
2, 175426, Note_off_c, 5, 77, 127
2, 175429, Note_on_c, 0, 72, 127
2, 175587, Note_off_c, 0, 72, 127
2, 175587, Note_off_c, 2, 50, 127
2, 175590, Note_on_c, 12, 71, 127
2, 175590, Note_on_c, 7, 55, 127
2, 175749, Note_off_c, 2, 62, 127
2, 175750, Note_on_c, 2, 62, 127
2, 175882, Note_off_c, 12, 71, 127
2, 175908, Note_off_c, 2, 62, 127
2, 175908, Note_off_c, 7, 55, 127
2, 175911, Note_on_c, 7, 79, 127
2, 175911, Note_on_c, 12, 59, 127
2, 176069, Note_off_c, 12, 59, 127
2, 176072, Note_on_c, 7, 55, 127
2, 176203, Note_off_c, 7, 79, 127
2, 176230, Note_off_c, 7, 55, 127
2, 176233, Note_on_c, 5, 53, 127
2, 176391, Note_off_c, 5, 53, 127
2, 176393, Note_on_c, 2, 62, 127
2, 176551, Note_off_c, 2, 62, 127
2, 176554, Note_on_c, 7, 67, 127
2, 176554, Note_on_c, 12, 59, 127
2, 176712, Note_off_c, 12, 59, 127
2, 176715, Note_on_c, 5, 53, 127
2, 176873, Note_off_c, 5, 53, 127
2, 176873, Note_off_c, 7, 67, 127
2, 176875, Note_on_c, 0, 72, 127
2, 176875, Note_on_c, 4, 52, 127
2, 177036, Note_on_c, 7, 79, 127
2, 177194, Note_off_c, 7, 79, 127
2, 177194, Note_off_c, 4, 52, 127
2, 177197, Note_on_c, 4, 76, 127
2, 177197, Note_on_c, 7, 55, 127
2, 177352, Note_off_c, 0, 72, 127
2, 177354, Note_off_c, 4, 76, 127
2, 177356, Note_on_c, 0, 72, 127
2, 177514, Note_off_c, 0, 72, 127
2, 177515, Note_off_c, 7, 55, 127
2, 177516, Note_on_c, 11, 70, 127
2, 177516, Note_on_c, 0, 60, 127
2, 177516, Note_on_c, 4, 52, 127
2, 177674, Note_off_c, 11, 70, 127
2, 177677, Note_on_c, 7, 79, 127
2, 177835, Note_off_c, 7, 79, 127
2, 177835, Note_off_c, 4, 52, 127
2, 177837, Note_on_c, 4, 76, 127
2, 177837, Note_on_c, 0, 48, 127
2, 177995, Note_off_c, 4, 76, 127
2, 177998, Note_on_c, 11, 70, 127
2, 178156, Note_off_c, 11, 70, 127
2, 178156, Note_off_c, 0, 48, 127
2, 178159, Note_on_c, 10, 69, 127
2, 178159, Note_on_c, 5, 53, 127
2, 178317, Note_off_c, 10, 69, 127
2, 178319, Note_on_c, 7, 79, 127
2, 178477, Note_off_c, 7, 79, 127
2, 178478, Note_off_c, 5, 53, 127
2, 178480, Note_on_c, 0, 72, 127
2, 178480, Note_on_c, 3, 51, 127
2, 178638, Note_off_c, 0, 72, 127
2, 178641, Note_on_c, 7, 67, 127
2, 178799, Note_off_c, 7, 67, 127
2, 178799, Note_off_c, 3, 51, 127
2, 178799, Note_off_c, 0, 60, 127
2, 178801, Note_on_c, 8, 68, 127
2, 178801, Note_on_c, 12, 59, 127
2, 178801, Note_on_c, 2, 50, 127
2, 178959, Note_off_c, 8, 68, 127
2, 178962, Note_on_c, 5, 77, 127
2, 179120, Note_off_c, 5, 77, 127
2, 179120, Note_off_c, 2, 50, 127
2, 179120, Note_off_c, 12, 59, 127
2, 179123, Note_on_c, 2, 74, 127
2, 179123, Note_on_c, 0, 60, 127
2, 179123, Note_on_c, 0, 48, 127
2, 179281, Note_off_c, 2, 74, 127
2, 179283, Note_on_c, 8, 68, 127
2, 179441, Note_off_c, 8, 68, 127
2, 179442, Note_off_c, 0, 48, 127
2, 179442, Note_off_c, 0, 60, 127
2, 179444, Note_on_c, 7, 67, 127
2, 179444, Note_on_c, 2, 62, 127
2, 179444, Note_on_c, 12, 47, 127
2, 179602, Note_off_c, 2, 62, 127
2, 179605, Note_on_c, 5, 77, 127
2, 179763, Note_off_c, 5, 77, 127
2, 179763, Note_off_c, 12, 47, 127
2, 179765, Note_on_c, 2, 74, 127
2, 179765, Note_on_c, 7, 43, 127
2, 179923, Note_off_c, 2, 74, 127
2, 179926, Note_on_c, 12, 71, 127
2, 180078, Note_off_c, 7, 67, 127
2, 180083, Note_off_c, 12, 71, 127
2, 180083, Note_off_c, 7, 43, 127
2, 180085, Note_on_c, 7, 67, 127
2, 180085, Note_on_c, 0, 48, 127
2, 180245, Note_on_c, 3, 75, 127
2, 180403, Note_off_c, 3, 75, 127
2, 180404, Note_off_c, 0, 48, 127
2, 180406, Note_on_c, 0, 72, 127
2, 180406, Note_on_c, 11, 46, 127
2, 180562, Note_off_c, 7, 67, 127
2, 180563, Note_off_c, 0, 72, 127
2, 180566, Note_on_c, 7, 67, 127
2, 180724, Note_off_c, 7, 67, 127
2, 180724, Note_off_c, 11, 46, 127
2, 180726, Note_on_c, 6, 66, 127
2, 180726, Note_on_c, 10, 45, 127
2, 180887, Note_on_c, 3, 75, 127
2, 181043, Note_off_c, 6, 66, 127
2, 181044, Note_off_c, 3, 75, 127
2, 181044, Note_off_c, 10, 45, 127
2, 181047, Note_on_c, 0, 72, 127
2, 181047, Note_on_c, 10, 57, 127
2, 181205, Note_off_c, 0, 72, 127
2, 181207, Note_on_c, 10, 69, 127
2, 181365, Note_off_c, 10, 69, 127
2, 181366, Note_off_c, 10, 57, 127
2, 181368, Note_on_c, 5, 65, 127
2, 181368, Note_on_c, 12, 59, 127
2, 181529, Note_on_c, 2, 74, 127
2, 181687, Note_off_c, 2, 74, 127
2, 181687, Note_off_c, 12, 59, 127
2, 181689, Note_on_c, 12, 71, 127
2, 181689, Note_on_c, 7, 55, 127
2, 181836, Note_off_c, 5, 65, 127
2, 181847, Note_off_c, 12, 71, 127
2, 181849, Note_on_c, 5, 65, 127
2, 182007, Note_off_c, 5, 65, 127
2, 182008, Note_off_c, 7, 55, 127
2, 182010, Note_on_c, 4, 64, 127
2, 182010, Note_on_c, 0, 60, 127
2, 182170, Note_on_c, 2, 74, 127
2, 182327, Note_off_c, 2, 74, 127
2, 182327, Note_off_c, 4, 64, 127
2, 182328, Note_off_c, 0, 60, 127
2, 182330, Note_on_c, 12, 71, 127
2, 182330, Note_on_c, 7, 55, 127
2, 182488, Note_off_c, 12, 71, 127
2, 182491, Note_on_c, 7, 67, 127
2, 182649, Note_off_c, 7, 67, 127
2, 182649, Note_off_c, 7, 55, 127
2, 182651, Note_on_c, 3, 63, 127
2, 182651, Note_on_c, 8, 56, 127
2, 182812, Note_on_c, 0, 72, 127
2, 182970, Note_off_c, 0, 72, 127
2, 182970, Note_off_c, 8, 56, 127
2, 182973, Note_on_c, 7, 67, 127
2, 182973, Note_on_c, 3, 51, 127
2, 183119, Note_off_c, 3, 63, 127
2, 183131, Note_off_c, 7, 67, 127
2, 183134, Note_on_c, 3, 63, 127
2, 183292, Note_off_c, 3, 63, 127
2, 183292, Note_off_c, 3, 51, 127
2, 183294, Note_on_c, 2, 62, 127
2, 183294, Note_on_c, 5, 53, 127
2, 183455, Note_on_c, 0, 72, 127
2, 183611, Note_off_c, 2, 62, 127
2, 183612, Note_off_c, 0, 72, 127
2, 183612, Note_off_c, 5, 53, 127
2, 183615, Note_on_c, 8, 68, 127
2, 183615, Note_on_c, 3, 51, 127
2, 183773, Note_off_c, 3, 51, 127
2, 183773, Note_off_c, 8, 68, 127
2, 183774, Note_on_c, 5, 65, 127
2, 183774, Note_on_c, 5, 53, 127
2, 183932, Note_off_c, 5, 53, 127
2, 183932, Note_off_c, 5, 65, 127
2, 183935, Note_on_c, 2, 62, 127
2, 183935, Note_on_c, 7, 55, 127
2, 184093, Note_off_c, 2, 62, 127
2, 184096, Note_on_c, 12, 71, 127
2, 184254, Note_off_c, 12, 71, 127
2, 184254, Note_off_c, 7, 55, 127
2, 184256, Note_on_c, 10, 69, 127
2, 184256, Note_on_c, 7, 43, 127
2, 184414, Note_off_c, 10, 69, 127
2, 184417, Note_on_c, 12, 71, 127
2, 184575, Note_off_c, 12, 71, 127
2, 184575, Note_off_c, 7, 43, 127
2, 184578, Note_on_c, 0, 72, 127
2, 184578, Note_on_c, 0, 60, 127
2, 184578, Note_on_c, 0, 48, 127
2, 184736, Note_off_c, 0, 60, 127
2, 184738, Note_on_c, 11, 58, 127
2, 184896, Note_off_c, 11, 58, 127
2, 184897, Note_off_c, 0, 72, 127
2, 184899, Note_on_c, 5, 77, 127
2, 184899, Note_on_c, 8, 56, 127
2, 185046, Note_off_c, 0, 48, 127
2, 185057, Note_off_c, 8, 56, 127
2, 185060, Note_on_c, 11, 58, 127
2, 185218, Note_off_c, 11, 58, 127
2, 185218, Note_off_c, 5, 77, 127
2, 185220, Note_on_c, 3, 75, 127
2, 185220, Note_on_c, 7, 55, 127
2, 185378, Note_off_c, 7, 55, 127
2, 185381, Note_on_c, 0, 60, 127
2, 185539, Note_off_c, 0, 60, 127
2, 185539, Note_off_c, 3, 75, 127
2, 185542, Note_on_c, 2, 74, 127
2, 185542, Note_on_c, 12, 59, 127
2, 185700, Note_off_c, 12, 59, 127
2, 185702, Note_on_c, 0, 60, 127
2, 185860, Note_off_c, 0, 60, 127
2, 185861, Note_off_c, 2, 74, 127
2, 185863, Note_on_c, 0, 72, 127
2, 185863, Note_on_c, 3, 63, 127
2, 186021, Note_off_c, 0, 72, 127
2, 186024, Note_on_c, 10, 69, 127
2, 186155, Note_off_c, 3, 63, 127
2, 186182, Note_off_c, 10, 69, 127
2, 186184, Note_on_c, 12, 71, 127
2, 186184, Note_on_c, 2, 62, 127
2, 186342, Note_off_c, 12, 71, 127
2, 186345, Note_on_c, 0, 72, 127
2, 186476, Note_off_c, 2, 62, 127
2, 186503, Note_off_c, 0, 72, 127
2, 186505, Note_on_c, 2, 74, 127
2, 186826, Note_on_c, 12, 59, 127
2, 186984, Note_off_c, 12, 59, 127
2, 186987, Note_on_c, 7, 55, 127
2, 187145, Note_off_c, 7, 55, 127
2, 187147, Note_on_c, 5, 65, 127
2, 187306, Note_off_c, 2, 74, 127
2, 187308, Note_on_c, 0, 72, 127
2, 187439, Note_off_c, 5, 65, 127
2, 187466, Note_off_c, 0, 72, 127
2, 187469, Note_on_c, 2, 74, 127
2, 187469, Note_on_c, 3, 63, 127
2, 187627, Note_off_c, 2, 74, 127
2, 187629, Note_on_c, 3, 75, 127
2, 187761, Note_off_c, 3, 63, 127
2, 187787, Note_off_c, 3, 75, 127
2, 187790, Note_on_c, 5, 77, 127
2, 187790, Note_on_c, 3, 63, 127
2, 187895, Note_off_c, 3, 63, 127
2, 187897, Note_on_c, 2, 62, 127
2, 187948, Note_off_c, 5, 77, 127
2, 187951, Note_on_c, 2, 74, 127
2, 188002, Note_off_c, 2, 62, 127
2, 188004, Note_on_c, 3, 63, 127
2, 188109, Note_off_c, 3, 63, 127
2, 188109, Note_off_c, 2, 74, 127
2, 188111, Note_on_c, 7, 67, 127
2, 188111, Note_on_c, 2, 62, 127
2, 188216, Note_off_c, 2, 62, 127
2, 188219, Note_on_c, 0, 60, 127
2, 188269, Note_off_c, 7, 67, 127
2, 188272, Note_on_c, 5, 77, 127
2, 188324, Note_off_c, 0, 60, 127
2, 188326, Note_on_c, 2, 62, 127
2, 188430, Note_off_c, 5, 77, 127
2, 188431, Note_off_c, 2, 62, 127
2, 188433, Note_on_c, 3, 75, 127
2, 188433, Note_on_c, 0, 60, 127
2, 188591, Note_off_c, 0, 60, 127
2, 188591, Note_off_c, 3, 75, 127
2, 188594, Note_on_c, 7, 79, 127
2, 188594, Note_on_c, 12, 59, 127
2, 188752, Note_off_c, 12, 59, 127
2, 188752, Note_off_c, 7, 79, 127
2, 188754, Note_on_c, 3, 75, 127
2, 188754, Note_on_c, 0, 60, 127
2, 188912, Note_off_c, 0, 60, 127
2, 188912, Note_off_c, 3, 75, 127
2, 188915, Note_on_c, 2, 74, 127
2, 188915, Note_on_c, 3, 63, 127
2, 189073, Note_off_c, 3, 63, 127
2, 189073, Note_off_c, 2, 74, 127
2, 189075, Note_on_c, 0, 72, 127
2, 189075, Note_on_c, 8, 68, 127
2, 189233, Note_off_c, 0, 72, 127
2, 189235, Note_on_c, 0, 84, 127
2, 189393, Note_off_c, 0, 84, 127
2, 189396, Note_on_c, 8, 80, 127
2, 189554, Note_off_c, 8, 80, 127
2, 189557, Note_on_c, 5, 77, 127
2, 189715, Note_off_c, 5, 77, 127
2, 189717, Note_on_c, 2, 74, 127
2, 189875, Note_off_c, 2, 74, 127
2, 189877, Note_off_c, 8, 68, 127
2, 189878, Note_on_c, 5, 77, 127
2, 190036, Note_off_c, 5, 77, 127
2, 190039, Note_on_c, 2, 74, 127
2, 190039, Note_on_c, 11, 58, 127
2, 190197, Note_off_c, 11, 58, 127
2, 190197, Note_off_c, 2, 74, 127
2, 190199, Note_on_c, 0, 72, 127
2, 190199, Note_on_c, 2, 62, 127
2, 190357, Note_off_c, 2, 62, 127
2, 190357, Note_off_c, 0, 72, 127
2, 190360, Note_on_c, 11, 70, 127
2, 190360, Note_on_c, 7, 67, 127
2, 190518, Note_off_c, 11, 70, 127
2, 190521, Note_on_c, 11, 82, 127
2, 190679, Note_off_c, 11, 82, 127
2, 190681, Note_on_c, 7, 79, 127
2, 190839, Note_off_c, 7, 79, 127
2, 190842, Note_on_c, 3, 75, 127
2, 191000, Note_off_c, 3, 75, 127
2, 191003, Note_on_c, 0, 72, 127
2, 191161, Note_off_c, 0, 72, 127
2, 191162, Note_off_c, 7, 67, 127
2, 191163, Note_on_c, 3, 75, 127
2, 191321, Note_off_c, 3, 75, 127
2, 191324, Note_on_c, 0, 72, 127
2, 191324, Note_on_c, 8, 56, 127
2, 191482, Note_off_c, 8, 56, 127
2, 191482, Note_off_c, 0, 72, 127
2, 191485, Note_on_c, 11, 70, 127
2, 191485, Note_on_c, 0, 60, 127
2, 191643, Note_off_c, 0, 60, 127
2, 191643, Note_off_c, 11, 70, 127
2, 191645, Note_on_c, 8, 68, 127
2, 191645, Note_on_c, 5, 65, 127
2, 191803, Note_off_c, 8, 68, 127
2, 191805, Note_on_c, 8, 80, 127
2, 191963, Note_off_c, 8, 80, 127
2, 191966, Note_on_c, 5, 77, 127
2, 192124, Note_off_c, 5, 77, 127
2, 192126, Note_on_c, 2, 74, 127
2, 192284, Note_off_c, 2, 74, 127
2, 192287, Note_on_c, 12, 71, 127
2, 192287, Note_on_c, 7, 55, 127
2, 192445, Note_off_c, 7, 55, 127
2, 192446, Note_off_c, 5, 65, 127
2, 192448, Note_on_c, 7, 67, 127
2, 192448, Note_on_c, 3, 51, 127
2, 192606, Note_off_c, 3, 51, 127
2, 192606, Note_off_c, 7, 67, 127
2, 192608, Note_on_c, 8, 68, 127
2, 192608, Note_on_c, 2, 50, 127
2, 192766, Note_off_c, 2, 50, 127
2, 192769, Note_on_c, 3, 51, 127
2, 192927, Note_off_c, 3, 51, 127
2, 192927, Note_off_c, 12, 71, 127
2, 192930, Note_on_c, 0, 72, 127
2, 192930, Note_on_c, 0, 48, 127
2, 193088, Note_off_c, 0, 48, 127
2, 193091, Note_on_c, 5, 53, 127
2, 193248, Note_off_c, 8, 68, 127
2, 193249, Note_off_c, 5, 53, 127
2, 193251, Note_on_c, 7, 67, 127
2, 193251, Note_on_c, 3, 51, 127
2, 193409, Note_off_c, 3, 51, 127
2, 193412, Note_on_c, 5, 53, 127
2, 193570, Note_off_c, 5, 53, 127
2, 193570, Note_off_c, 7, 67, 127
2, 193573, Note_on_c, 5, 65, 127
2, 193573, Note_on_c, 8, 56, 127
2, 193731, Note_off_c, 5, 65, 127
2, 193733, Note_on_c, 3, 63, 127
2, 193865, Note_off_c, 8, 56, 127
2, 193891, Note_off_c, 3, 63, 127
2, 193892, Note_off_c, 0, 72, 127
2, 193894, Note_on_c, 12, 71, 127
2, 193894, Note_on_c, 5, 65, 127
2, 193894, Note_on_c, 7, 55, 127
2, 194052, Note_off_c, 5, 65, 127
2, 194055, Note_on_c, 7, 67, 127
2, 194186, Note_off_c, 7, 55, 127
2, 194213, Note_off_c, 7, 67, 127
2, 194213, Note_off_c, 12, 71, 127
2, 194215, Note_on_c, 0, 72, 127
2, 194215, Note_on_c, 10, 69, 127
2, 194373, Note_off_c, 0, 72, 127
2, 194376, Note_on_c, 12, 71, 127
2, 194534, Note_off_c, 12, 71, 127
2, 194536, Note_on_c, 0, 72, 127
2, 194536, Note_on_c, 6, 54, 127
2, 194694, Note_off_c, 6, 54, 127
2, 194694, Note_off_c, 0, 72, 127
2, 194696, Note_on_c, 2, 74, 127
2, 194696, Note_on_c, 2, 50, 127
2, 194854, Note_off_c, 2, 50, 127
2, 194854, Note_off_c, 2, 74, 127
2, 194857, Note_on_c, 3, 75, 127
2, 194857, Note_on_c, 0, 60, 127
2, 195016, Note_off_c, 10, 69, 127
2, 195018, Note_on_c, 7, 67, 127
2, 195149, Note_off_c, 0, 60, 127
2, 195176, Note_off_c, 7, 67, 127
2, 195176, Note_off_c, 3, 75, 127
2, 195178, Note_on_c, 2, 74, 127
2, 195178, Note_on_c, 10, 69, 127
2, 195178, Note_on_c, 11, 58, 127
2, 195336, Note_off_c, 10, 69, 127
2, 195339, Note_on_c, 11, 70, 127
2, 195470, Note_off_c, 11, 58, 127
2, 195497, Note_off_c, 11, 70, 127
2, 195497, Note_off_c, 2, 74, 127
2, 195500, Note_on_c, 4, 76, 127
2, 195500, Note_on_c, 0, 72, 127
2, 195500, Note_on_c, 11, 58, 127
2, 195605, Note_off_c, 11, 58, 127
2, 195607, Note_on_c, 10, 57, 127
2, 195658, Note_off_c, 0, 72, 127
2, 195660, Note_on_c, 10, 69, 127
2, 195712, Note_off_c, 10, 57, 127
2, 195714, Note_on_c, 11, 58, 127
2, 195818, Note_off_c, 10, 69, 127
2, 195819, Note_off_c, 11, 58, 127
2, 195819, Note_off_c, 4, 76, 127
2, 195821, Note_on_c, 6, 78, 127
2, 195821, Note_on_c, 2, 62, 127
2, 195821, Note_on_c, 10, 57, 127
2, 195926, Note_off_c, 10, 57, 127
2, 195928, Note_on_c, 7, 55, 127
2, 195979, Note_off_c, 2, 62, 127
2, 195982, Note_on_c, 0, 72, 127
2, 196033, Note_off_c, 7, 55, 127
2, 196035, Note_on_c, 10, 57, 127
2, 196140, Note_off_c, 10, 57, 127
2, 196140, Note_off_c, 0, 72, 127
2, 196140, Note_off_c, 6, 78, 127
2, 196142, Note_on_c, 7, 79, 127
2, 196142, Note_on_c, 11, 70, 127
2, 196142, Note_on_c, 7, 55, 127
2, 196300, Note_off_c, 7, 55, 127
2, 196300, Note_off_c, 7, 79, 127
2, 196303, Note_on_c, 2, 74, 127
2, 196303, Note_on_c, 11, 58, 127
2, 196461, Note_off_c, 11, 58, 127
2, 196461, Note_off_c, 2, 74, 127
2, 196464, Note_on_c, 0, 72, 127
2, 196464, Note_on_c, 8, 56, 127
2, 196622, Note_off_c, 8, 56, 127
2, 196622, Note_off_c, 0, 72, 127
2, 196624, Note_on_c, 2, 74, 127
2, 196624, Note_on_c, 11, 58, 127
2, 196776, Note_off_c, 11, 70, 127
2, 196781, Note_off_c, 11, 58, 127
2, 196781, Note_off_c, 2, 74, 127
2, 196783, Note_on_c, 11, 70, 127
2, 196783, Note_on_c, 7, 55, 127
2, 196941, Note_off_c, 7, 55, 127
2, 196944, Note_on_c, 4, 76, 127
2, 196944, Note_on_c, 8, 56, 127
2, 197102, Note_off_c, 8, 56, 127
2, 197102, Note_off_c, 4, 76, 127
2, 197104, Note_on_c, 2, 74, 127
2, 197104, Note_on_c, 5, 53, 127
2, 197262, Note_off_c, 5, 53, 127
2, 197262, Note_off_c, 2, 74, 127
2, 197265, Note_on_c, 4, 76, 127
2, 197265, Note_on_c, 7, 55, 127
2, 197417, Note_off_c, 11, 70, 127
2, 197422, Note_off_c, 7, 55, 127
2, 197422, Note_off_c, 4, 76, 127
2, 197425, Note_on_c, 7, 79, 127
2, 197425, Note_on_c, 4, 52, 127
2, 197583, Note_off_c, 4, 52, 127
2, 197585, Note_on_c, 1, 73, 127
2, 197585, Note_on_c, 0, 60, 127
2, 197743, Note_off_c, 0, 60, 127
2, 197743, Note_off_c, 1, 73, 127
2, 197744, Note_off_c, 7, 79, 127
2, 197746, Note_on_c, 5, 77, 127
2, 197746, Note_on_c, 0, 72, 127
2, 197746, Note_on_c, 8, 56, 127
2, 197904, Note_off_c, 8, 56, 127
2, 197904, Note_off_c, 0, 72, 127
2, 197907, Note_on_c, 11, 70, 127
2, 197907, Note_on_c, 5, 53, 127
2, 198065, Note_off_c, 5, 53, 127
2, 198065, Note_off_c, 11, 70, 127
2, 198067, Note_on_c, 8, 68, 127
2, 198067, Note_on_c, 0, 48, 127
2, 198225, Note_off_c, 0, 48, 127
2, 198225, Note_off_c, 8, 68, 127
2, 198228, Note_on_c, 7, 67, 127
2, 198228, Note_on_c, 5, 53, 127
2, 198386, Note_off_c, 5, 53, 127
2, 198386, Note_off_c, 7, 67, 127
2, 198389, Note_on_c, 5, 65, 127
2, 198389, Note_on_c, 0, 48, 127
2, 198547, Note_off_c, 0, 48, 127
2, 198547, Note_off_c, 5, 65, 127
2, 198550, Note_on_c, 7, 67, 127
2, 198550, Note_on_c, 8, 44, 127
2, 198708, Note_off_c, 8, 44, 127
2, 198708, Note_off_c, 7, 67, 127
2, 198708, Note_off_c, 5, 77, 127
2, 198710, Note_on_c, 5, 77, 127
2, 198710, Note_on_c, 8, 68, 127
2, 198710, Note_on_c, 5, 41, 127
2, 198868, Note_off_c, 5, 41, 127
2, 198868, Note_off_c, 5, 77, 127
2, 198871, Note_on_c, 0, 72, 127
2, 198871, Note_on_c, 8, 56, 127
2, 199029, Note_off_c, 8, 56, 127
2, 199029, Note_off_c, 0, 72, 127
2, 199032, Note_on_c, 11, 70, 127
2, 199032, Note_on_c, 7, 55, 127
2, 199190, Note_off_c, 7, 55, 127
2, 199190, Note_off_c, 11, 70, 127
2, 199191, Note_on_c, 0, 72, 127
2, 199191, Note_on_c, 8, 56, 127
2, 199344, Note_off_c, 8, 68, 127
2, 199348, Note_off_c, 8, 56, 127
2, 199348, Note_off_c, 0, 72, 127
2, 199351, Note_on_c, 8, 68, 127
2, 199351, Note_on_c, 5, 53, 127
2, 199509, Note_off_c, 5, 53, 127
2, 199512, Note_on_c, 2, 74, 127
2, 199512, Note_on_c, 7, 55, 127
2, 199670, Note_off_c, 7, 55, 127
2, 199670, Note_off_c, 2, 74, 127
2, 199672, Note_on_c, 0, 72, 127
2, 199672, Note_on_c, 3, 51, 127
2, 199830, Note_off_c, 3, 51, 127
2, 199830, Note_off_c, 0, 72, 127
2, 199833, Note_on_c, 2, 74, 127
2, 199833, Note_on_c, 5, 53, 127
2, 199985, Note_off_c, 8, 68, 127
2, 199990, Note_off_c, 5, 53, 127
2, 199990, Note_off_c, 2, 74, 127
2, 199993, Note_on_c, 5, 77, 127
2, 199993, Note_on_c, 2, 50, 127
2, 200151, Note_off_c, 2, 50, 127
2, 200153, Note_on_c, 0, 72, 127
2, 200153, Note_on_c, 11, 58, 127
2, 200311, Note_off_c, 11, 58, 127
2, 200311, Note_off_c, 0, 72, 127
2, 200312, Note_off_c, 5, 77, 127
2, 200314, Note_on_c, 3, 75, 127
2, 200314, Note_on_c, 11, 70, 127
2, 200314, Note_on_c, 7, 55, 127
2, 200472, Note_off_c, 7, 55, 127
2, 200472, Note_off_c, 11, 70, 127
2, 200475, Note_on_c, 8, 68, 127
2, 200475, Note_on_c, 3, 51, 127
2, 200633, Note_off_c, 3, 51, 127
2, 200633, Note_off_c, 8, 68, 127
2, 200635, Note_on_c, 7, 67, 127
2, 200635, Note_on_c, 11, 46, 127
2, 200782, Note_off_c, 3, 75, 127
2, 200793, Note_off_c, 11, 46, 127
2, 200793, Note_off_c, 7, 67, 127
2, 200796, Note_on_c, 5, 65, 127
2, 200796, Note_on_c, 3, 51, 127
2, 200954, Note_off_c, 3, 51, 127
2, 200954, Note_off_c, 5, 65, 127
2, 200957, Note_on_c, 3, 63, 127
2, 200957, Note_on_c, 11, 46, 127
2, 201115, Note_off_c, 11, 46, 127
2, 201115, Note_off_c, 3, 63, 127
2, 201116, Note_on_c, 5, 65, 127
2, 201116, Note_on_c, 7, 43, 127
2, 201274, Note_off_c, 7, 43, 127
2, 201274, Note_off_c, 5, 65, 127
2, 201277, Note_on_c, 7, 67, 127
2, 201277, Note_on_c, 3, 39, 127
2, 201438, Note_on_c, 11, 70, 127
2, 201596, Note_off_c, 11, 70, 127
2, 201596, Note_off_c, 3, 39, 127
2, 201598, Note_on_c, 3, 75, 127
2, 201598, Note_on_c, 3, 51, 127
2, 201756, Note_off_c, 3, 75, 127
2, 201759, Note_on_c, 0, 72, 127
2, 201911, Note_off_c, 7, 67, 127
2, 201916, Note_off_c, 0, 72, 127
2, 201916, Note_off_c, 3, 51, 127
2, 201919, Note_on_c, 1, 73, 127
2, 201919, Note_on_c, 5, 53, 127
2, 202079, Note_on_c, 11, 70, 127
2, 202237, Note_off_c, 11, 70, 127
2, 202238, Note_off_c, 5, 53, 127
2, 202240, Note_on_c, 7, 67, 127
2, 202240, Note_on_c, 7, 55, 127
2, 202398, Note_off_c, 7, 67, 127
2, 202401, Note_on_c, 3, 63, 127
2, 202553, Note_off_c, 1, 73, 127
2, 202558, Note_off_c, 7, 55, 127
2, 202560, Note_on_c, 8, 56, 127
2, 202717, Note_off_c, 3, 63, 127
2, 202721, Note_on_c, 0, 72, 127
2, 202879, Note_off_c, 0, 72, 127
2, 202879, Note_off_c, 8, 56, 127
2, 202882, Note_on_c, 5, 77, 127
2, 202882, Note_on_c, 5, 53, 127
2, 203040, Note_off_c, 5, 77, 127
2, 203041, Note_on_c, 2, 74, 127
2, 203199, Note_off_c, 2, 74, 127
2, 203201, Note_off_c, 5, 53, 127
2, 203202, Note_on_c, 3, 75, 127
2, 203202, Note_on_c, 7, 55, 127
2, 203363, Note_on_c, 0, 72, 127
2, 203521, Note_off_c, 0, 72, 127
2, 203521, Note_off_c, 7, 55, 127
2, 203523, Note_on_c, 10, 69, 127
2, 203523, Note_on_c, 10, 57, 127
2, 203681, Note_off_c, 10, 69, 127
2, 203684, Note_on_c, 5, 65, 127
2, 203836, Note_off_c, 3, 75, 127
2, 203841, Note_off_c, 10, 57, 127
2, 203844, Note_on_c, 11, 58, 127
2, 204000, Note_off_c, 5, 65, 127
2, 204004, Note_on_c, 2, 74, 127
2, 204162, Note_off_c, 2, 74, 127
2, 204163, Note_off_c, 11, 58, 127
2, 204165, Note_on_c, 7, 79, 127
2, 204165, Note_on_c, 7, 55, 127
2, 204323, Note_off_c, 7, 79, 127
2, 204326, Note_on_c, 3, 75, 127
2, 204484, Note_off_c, 3, 75, 127
2, 204484, Note_off_c, 7, 55, 127
2, 204486, Note_on_c, 5, 77, 127
2, 204486, Note_on_c, 10, 57, 127
2, 204647, Note_on_c, 2, 74, 127
2, 204805, Note_off_c, 2, 74, 127
2, 204805, Note_off_c, 10, 57, 127
2, 204808, Note_on_c, 12, 71, 127
2, 204808, Note_on_c, 12, 59, 127
2, 204966, Note_off_c, 12, 71, 127
2, 204968, Note_on_c, 7, 67, 127
2, 205127, Note_off_c, 12, 59, 127
2, 205129, Note_on_c, 0, 60, 127
2, 205285, Note_off_c, 7, 67, 127
2, 205286, Note_off_c, 5, 77, 127
2, 205288, Note_on_c, 3, 75, 127
2, 205446, Note_off_c, 3, 75, 127
2, 205447, Note_off_c, 0, 60, 127
2, 205448, Note_on_c, 7, 79, 127
2, 205448, Note_on_c, 0, 48, 127
2, 205606, Note_off_c, 7, 79, 127
2, 205609, Note_on_c, 11, 82, 127
2, 205767, Note_off_c, 11, 82, 127
2, 205767, Note_off_c, 0, 48, 127
2, 205770, Note_on_c, 8, 80, 127
2, 205770, Note_on_c, 2, 50, 127
2, 205930, Note_on_c, 5, 77, 127
2, 206088, Note_off_c, 5, 77, 127
2, 206089, Note_off_c, 2, 50, 127
2, 206091, Note_on_c, 11, 70, 127
2, 206091, Note_on_c, 3, 51, 127
2, 206238, Note_off_c, 8, 80, 127
2, 206253, Note_on_c, 7, 79, 127
2, 206409, Note_off_c, 11, 70, 127
2, 206410, Note_off_c, 7, 79, 127
2, 206413, Note_on_c, 5, 77, 127
2, 206570, Note_off_c, 3, 51, 127
2, 206573, Note_on_c, 2, 50, 127
2, 206731, Note_off_c, 2, 50, 127
2, 206732, Note_off_c, 5, 77, 127
2, 206734, Note_on_c, 8, 80, 127
2, 206734, Note_on_c, 5, 77, 127
2, 206734, Note_on_c, 0, 48, 127
2, 206892, Note_off_c, 0, 48, 127
2, 206895, Note_on_c, 2, 50, 127
2, 207053, Note_off_c, 2, 50, 127
2, 207053, Note_off_c, 5, 77, 127
2, 207053, Note_off_c, 8, 80, 127
2, 207055, Note_on_c, 7, 79, 127
2, 207055, Note_on_c, 3, 75, 127
2, 207055, Note_on_c, 11, 46, 127
2, 207213, Note_off_c, 11, 46, 127
2, 207216, Note_on_c, 3, 51, 127
2, 207374, Note_off_c, 3, 51, 127
2, 207374, Note_off_c, 3, 75, 127
2, 207374, Note_off_c, 7, 79, 127
2, 207377, Note_on_c, 5, 77, 127
2, 207377, Note_on_c, 8, 68, 127
2, 207377, Note_on_c, 2, 50, 127
2, 207535, Note_off_c, 2, 50, 127
2, 207537, Note_on_c, 3, 51, 127
2, 207695, Note_off_c, 3, 51, 127
2, 207696, Note_off_c, 8, 68, 127
2, 207696, Note_off_c, 5, 77, 127
2, 207697, Note_on_c, 3, 75, 127
2, 207697, Note_on_c, 11, 70, 127
2, 207697, Note_on_c, 7, 55, 127
2, 207855, Note_off_c, 3, 75, 127
2, 207858, Note_on_c, 0, 72, 127
2, 207989, Note_off_c, 7, 55, 127
2, 208016, Note_off_c, 0, 72, 127
2, 208016, Note_off_c, 11, 70, 127
2, 208018, Note_on_c, 2, 74, 127
2, 208018, Note_on_c, 8, 68, 127
2, 208018, Note_on_c, 5, 53, 127
2, 208176, Note_off_c, 8, 68, 127
2, 208176, Note_off_c, 2, 74, 127
2, 208179, Note_on_c, 3, 75, 127
2, 208179, Note_on_c, 7, 67, 127
2, 208310, Note_off_c, 5, 53, 127
2, 208337, Note_off_c, 7, 67, 127
2, 208337, Note_off_c, 3, 75, 127
2, 208340, Note_on_c, 5, 77, 127
2, 208340, Note_on_c, 8, 68, 127
2, 208498, Note_off_c, 8, 68, 127
2, 208500, Note_on_c, 2, 74, 127
2, 208658, Note_off_c, 2, 74, 127
2, 208661, Note_on_c, 11, 70, 127
2, 208661, Note_on_c, 2, 50, 127
2, 208819, Note_off_c, 2, 50, 127
2, 208819, Note_off_c, 11, 70, 127
2, 208822, Note_on_c, 5, 65, 127
2, 208822, Note_on_c, 11, 46, 127
2, 208980, Note_off_c, 11, 46, 127
2, 208980, Note_off_c, 5, 65, 127
2, 208982, Note_on_c, 2, 62, 127
2, 208982, Note_on_c, 8, 56, 127
2, 209141, Note_off_c, 5, 77, 127
2, 209143, Note_on_c, 3, 75, 127
2, 209274, Note_off_c, 8, 56, 127
2, 209301, Note_off_c, 3, 75, 127
2, 209301, Note_off_c, 2, 62, 127
2, 209304, Note_on_c, 5, 77, 127
2, 209304, Note_on_c, 3, 63, 127
2, 209304, Note_on_c, 7, 55, 127
2, 209462, Note_off_c, 5, 77, 127
2, 209464, Note_on_c, 7, 79, 127
2, 209596, Note_off_c, 7, 55, 127
2, 209622, Note_off_c, 7, 79, 127
2, 209625, Note_on_c, 8, 80, 127
2, 209625, Note_on_c, 5, 53, 127
2, 209783, Note_off_c, 8, 80, 127
2, 209786, Note_on_c, 5, 77, 127
2, 209944, Note_off_c, 5, 77, 127
2, 209944, Note_off_c, 3, 63, 127
2, 209946, Note_on_c, 11, 70, 127
2, 209946, Note_on_c, 2, 62, 127
2, 210104, Note_off_c, 11, 70, 127
2, 210107, Note_on_c, 8, 80, 127
2, 210265, Note_off_c, 8, 80, 127
2, 210265, Note_off_c, 2, 62, 127
2, 210265, Note_off_c, 5, 53, 127
2, 210268, Note_on_c, 7, 79, 127
2, 210268, Note_on_c, 3, 63, 127
2, 210268, Note_on_c, 3, 51, 127
2, 210426, Note_off_c, 7, 79, 127
2, 210427, Note_on_c, 11, 82, 127
2, 210568, Note_off_c, 3, 63, 127
2, 210585, Note_off_c, 11, 82, 127
2, 210588, Note_on_c, 7, 79, 127
2, 210588, Note_on_c, 3, 39, 127
2, 210746, Note_off_c, 7, 79, 127
2, 210749, Note_on_c, 3, 75, 127
2, 210902, Note_off_c, 3, 51, 127
2, 210906, Note_off_c, 3, 75, 127
2, 210906, Note_off_c, 3, 39, 127
2, 210908, Note_on_c, 1, 73, 127
2, 210908, Note_on_c, 5, 41, 127
2, 211069, Note_on_c, 11, 70, 127
2, 211227, Note_off_c, 11, 70, 127
2, 211227, Note_off_c, 5, 41, 127
2, 211230, Note_on_c, 7, 67, 127
2, 211230, Note_on_c, 7, 43, 127
2, 211388, Note_off_c, 7, 67, 127
2, 211391, Note_on_c, 3, 63, 127
2, 211548, Note_off_c, 1, 73, 127
2, 211549, Note_off_c, 3, 63, 127
2, 211549, Note_off_c, 7, 43, 127
2, 211551, Note_on_c, 0, 72, 127
2, 211551, Note_on_c, 8, 56, 127
2, 211551, Note_on_c, 8, 44, 127
2, 211712, Note_on_c, 0, 84, 127
2, 211868, Note_off_c, 8, 56, 127
2, 211868, Note_off_c, 0, 72, 127
2, 211869, Note_off_c, 0, 84, 127
2, 211869, Note_off_c, 8, 44, 127
2, 211872, Note_on_c, 8, 80, 127
2, 211872, Note_on_c, 5, 41, 127
2, 212030, Note_off_c, 8, 80, 127
2, 212032, Note_on_c, 5, 77, 127
2, 212190, Note_off_c, 5, 77, 127
2, 212191, Note_off_c, 5, 41, 127
2, 212193, Note_on_c, 3, 75, 127
2, 212193, Note_on_c, 7, 43, 127
2, 212353, Note_on_c, 0, 72, 127
2, 212511, Note_off_c, 0, 72, 127
2, 212512, Note_off_c, 7, 43, 127
2, 212513, Note_on_c, 10, 69, 127
2, 212513, Note_on_c, 10, 45, 127
2, 212671, Note_off_c, 10, 69, 127
2, 212674, Note_on_c, 5, 65, 127
2, 212832, Note_off_c, 5, 65, 127
2, 212832, Note_off_c, 10, 45, 127
2, 212833, Note_off_c, 3, 75, 127
2, 212835, Note_on_c, 2, 74, 127
2, 212835, Note_on_c, 11, 58, 127
2, 212835, Note_on_c, 11, 46, 127
2, 212993, Note_off_c, 2, 74, 127
2, 212995, Note_on_c, 5, 77, 127
2, 213153, Note_off_c, 5, 77, 127
2, 213154, Note_off_c, 11, 46, 127
2, 213156, Note_on_c, 2, 74, 127
2, 213156, Note_on_c, 11, 46, 127
2, 213314, Note_off_c, 2, 74, 127
2, 213317, Note_on_c, 11, 70, 127
2, 213469, Note_off_c, 11, 58, 127
2, 213474, Note_off_c, 11, 70, 127
2, 213474, Note_off_c, 11, 46, 127
2, 213476, Note_on_c, 8, 68, 127
2, 213476, Note_on_c, 0, 48, 127
2, 213637, Note_on_c, 5, 65, 127
2, 213795, Note_off_c, 5, 65, 127
2, 213795, Note_off_c, 0, 48, 127
2, 213798, Note_on_c, 2, 62, 127
2, 213798, Note_on_c, 2, 50, 127
2, 213956, Note_off_c, 2, 62, 127
2, 213958, Note_on_c, 11, 58, 127
2, 214116, Note_off_c, 11, 58, 127
2, 214117, Note_off_c, 2, 50, 127
2, 214119, Note_on_c, 3, 51, 127
2, 214277, Note_off_c, 8, 68, 127
2, 214280, Note_on_c, 7, 67, 127
2, 214438, Note_off_c, 7, 67, 127
2, 214440, Note_on_c, 5, 65, 127
2, 214440, Note_on_c, 1, 61, 127
2, 214598, Note_off_c, 5, 65, 127
2, 214601, Note_on_c, 7, 67, 127
2, 214759, Note_off_c, 7, 67, 127
2, 214759, Note_off_c, 1, 61, 127
2, 214761, Note_on_c, 3, 63, 127
2, 214761, Note_on_c, 0, 60, 127
2, 214919, Note_off_c, 3, 63, 127
2, 214921, Note_on_c, 8, 68, 127
2, 215079, Note_off_c, 8, 68, 127
2, 215080, Note_off_c, 0, 60, 127
2, 215082, Note_on_c, 7, 67, 127
2, 215082, Note_on_c, 11, 58, 127
2, 215240, Note_off_c, 7, 67, 127
2, 215243, Note_on_c, 8, 68, 127
2, 215401, Note_off_c, 8, 68, 127
2, 215401, Note_off_c, 11, 58, 127
2, 215403, Note_on_c, 0, 72, 127
2, 215403, Note_on_c, 8, 56, 127
2, 215561, Note_off_c, 8, 56, 127
2, 215564, Note_on_c, 7, 55, 127
2, 215722, Note_off_c, 7, 55, 127
2, 215722, Note_off_c, 0, 72, 127
2, 215725, Note_on_c, 11, 70, 127
2, 215725, Note_on_c, 8, 56, 127
2, 215883, Note_off_c, 8, 56, 127
2, 215885, Note_on_c, 11, 58, 127
2, 216043, Note_off_c, 11, 58, 127
2, 216046, Note_on_c, 0, 60, 127
2, 216205, Note_off_c, 3, 51, 127
2, 216207, Note_on_c, 2, 50, 127
2, 216365, Note_off_c, 2, 50, 127
2, 216365, Note_off_c, 11, 70, 127
2, 216367, Note_on_c, 10, 69, 127
2, 216367, Note_on_c, 3, 51, 127
2, 216525, Note_off_c, 3, 51, 127
2, 216525, Note_off_c, 10, 69, 127
2, 216528, Note_on_c, 5, 65, 127
2, 216528, Note_on_c, 5, 53, 127
2, 216686, Note_off_c, 5, 53, 127
2, 216686, Note_off_c, 5, 65, 127
2, 216689, Note_on_c, 3, 75, 127
2, 216689, Note_on_c, 7, 55, 127
2, 216847, Note_off_c, 0, 60, 127
2, 216850, Note_on_c, 11, 58, 127
2, 217008, Note_off_c, 11, 58, 127
2, 217008, Note_off_c, 3, 75, 127
2, 217010, Note_on_c, 2, 74, 127
2, 217010, Note_on_c, 0, 60, 127
2, 217168, Note_off_c, 0, 60, 127
2, 217168, Note_off_c, 7, 55, 127
2, 217171, Note_on_c, 2, 62, 127
2, 217171, Note_on_c, 5, 53, 127
2, 217329, Note_off_c, 5, 53, 127
2, 217329, Note_off_c, 2, 62, 127
2, 217329, Note_off_c, 2, 74, 127
2, 217332, Note_on_c, 2, 74, 127
2, 217332, Note_on_c, 3, 63, 127
2, 217332, Note_on_c, 3, 51, 127
2, 217437, Note_off_c, 2, 74, 127
2, 217438, Note_on_c, 0, 72, 127
2, 217490, Note_off_c, 3, 63, 127
2, 217491, Note_on_c, 0, 60, 127
2, 217543, Note_off_c, 0, 72, 127
2, 217545, Note_on_c, 2, 74, 127
2, 217650, Note_off_c, 2, 74, 127
2, 217651, Note_off_c, 3, 51, 127
2, 217652, Note_on_c, 0, 72, 127
2, 217652, Note_on_c, 5, 53, 127
2, 217757, Note_off_c, 0, 72, 127
2, 217759, Note_on_c, 11, 70, 127
2, 217810, Note_off_c, 0, 60, 127
2, 217813, Note_on_c, 3, 63, 127
2, 217864, Note_off_c, 11, 70, 127
2, 217866, Note_on_c, 0, 72, 127
2, 217971, Note_off_c, 0, 72, 127
2, 217971, Note_off_c, 3, 63, 127
2, 217971, Note_off_c, 5, 53, 127
2, 217973, Note_on_c, 11, 70, 127
2, 217973, Note_on_c, 2, 62, 127
2, 217973, Note_on_c, 11, 46, 127
2, 218131, Note_off_c, 11, 46, 127
2, 218134, Note_on_c, 5, 53, 127
2, 218273, Note_off_c, 2, 62, 127
2, 218292, Note_off_c, 5, 53, 127
2, 218292, Note_off_c, 11, 70, 127
2, 218295, Note_on_c, 5, 77, 127
2, 218295, Note_on_c, 2, 50, 127
2, 218453, Note_off_c, 2, 50, 127
2, 218455, Note_on_c, 11, 46, 127
2, 218613, Note_off_c, 11, 46, 127
2, 218614, Note_off_c, 5, 77, 127
2, 218616, Note_on_c, 2, 74, 127
2, 218616, Note_on_c, 8, 44, 127
2, 218774, Note_off_c, 8, 44, 127
2, 218777, Note_on_c, 5, 53, 127
2, 218935, Note_off_c, 5, 53, 127
2, 218935, Note_off_c, 2, 74, 127
2, 218937, Note_on_c, 11, 70, 127
2, 218937, Note_on_c, 2, 50, 127
2, 219095, Note_off_c, 2, 50, 127
2, 219098, Note_on_c, 8, 44, 127
2, 219256, Note_off_c, 8, 44, 127
2, 219256, Note_off_c, 11, 70, 127
2, 219259, Note_on_c, 11, 82, 127
2, 219259, Note_on_c, 7, 43, 127
2, 219419, Note_on_c, 11, 70, 127
2, 219551, Note_off_c, 7, 43, 127
2, 219577, Note_off_c, 11, 70, 127
2, 219580, Note_on_c, 3, 75, 127
2, 219580, Note_on_c, 7, 55, 127
2, 219738, Note_off_c, 3, 75, 127
2, 219741, Note_on_c, 7, 79, 127
2, 219872, Note_off_c, 7, 55, 127
2, 219899, Note_off_c, 7, 79, 127
2, 219901, Note_on_c, 1, 73, 127
2, 220059, Note_off_c, 1, 73, 127
2, 220061, Note_on_c, 11, 70, 127
2, 220219, Note_off_c, 11, 70, 127
2, 220222, Note_on_c, 1, 73, 127
2, 220222, Note_on_c, 3, 39, 127
2, 220380, Note_off_c, 1, 73, 127
2, 220382, Note_on_c, 7, 79, 127
2, 220540, Note_off_c, 7, 79, 127
2, 220541, Note_off_c, 3, 39, 127
2, 220543, Note_on_c, 0, 72, 127
2, 220543, Note_on_c, 8, 44, 127
2, 220701, Note_off_c, 8, 44, 127
2, 220704, Note_on_c, 3, 51, 127
2, 220862, Note_off_c, 3, 51, 127
2, 220863, Note_off_c, 11, 82, 127
2, 220864, Note_on_c, 3, 75, 127
2, 220864, Note_on_c, 0, 48, 127
2, 221022, Note_off_c, 0, 48, 127
2, 221025, Note_on_c, 8, 44, 127
2, 221177, Note_off_c, 0, 72, 127
2, 221182, Note_off_c, 8, 44, 127
2, 221182, Note_off_c, 3, 75, 127
2, 221185, Note_on_c, 0, 72, 127
2, 221185, Note_on_c, 7, 43, 127
2, 221343, Note_off_c, 7, 43, 127
2, 221345, Note_on_c, 3, 51, 127
2, 221503, Note_off_c, 3, 51, 127
2, 221506, Note_on_c, 8, 68, 127
2, 221506, Note_on_c, 0, 48, 127
2, 221664, Note_off_c, 0, 48, 127
2, 221667, Note_on_c, 7, 43, 127
2, 221819, Note_off_c, 0, 72, 127
2, 221824, Note_off_c, 7, 43, 127
2, 221824, Note_off_c, 8, 68, 127
2, 221826, Note_on_c, 8, 80, 127
2, 221826, Note_on_c, 5, 41, 127
2, 221987, Note_on_c, 8, 68, 127
2, 222118, Note_off_c, 5, 41, 127
2, 222145, Note_off_c, 8, 68, 127
2, 222147, Note_on_c, 2, 74, 127
2, 222147, Note_on_c, 5, 53, 127
2, 222305, Note_off_c, 2, 74, 127
2, 222307, Note_on_c, 5, 77, 127
2, 222439, Note_off_c, 5, 53, 127
2, 222465, Note_off_c, 5, 77, 127
2, 222468, Note_on_c, 0, 72, 127
2, 222626, Note_off_c, 0, 72, 127
2, 222629, Note_on_c, 8, 68, 127
2, 222787, Note_off_c, 8, 68, 127
2, 222790, Note_on_c, 0, 72, 127
2, 222790, Note_on_c, 2, 38, 127
2, 222948, Note_off_c, 0, 72, 127
2, 222950, Note_on_c, 5, 77, 127
2, 223108, Note_off_c, 5, 77, 127
2, 223109, Note_off_c, 2, 38, 127
2, 223111, Note_on_c, 11, 70, 127
2, 223111, Note_on_c, 7, 43, 127
2, 223269, Note_off_c, 7, 43, 127
2, 223272, Note_on_c, 2, 50, 127
2, 223430, Note_off_c, 2, 50, 127
2, 223430, Note_off_c, 8, 80, 127
2, 223432, Note_on_c, 2, 74, 127
2, 223432, Note_on_c, 11, 46, 127
2, 223590, Note_off_c, 11, 46, 127
2, 223593, Note_on_c, 7, 43, 127
2, 223745, Note_off_c, 11, 70, 127
2, 223750, Note_off_c, 7, 43, 127
2, 223750, Note_off_c, 2, 74, 127
2, 223753, Note_on_c, 11, 70, 127
2, 223753, Note_on_c, 5, 41, 127
2, 223911, Note_off_c, 5, 41, 127
2, 223913, Note_on_c, 1, 49, 127
2, 224071, Note_off_c, 1, 49, 127
2, 224074, Note_on_c, 7, 67, 127
2, 224074, Note_on_c, 11, 46, 127
2, 224232, Note_off_c, 11, 46, 127
2, 224235, Note_on_c, 5, 41, 127
2, 224387, Note_off_c, 11, 70, 127
2, 224392, Note_off_c, 5, 41, 127
2, 224393, Note_on_c, 7, 79, 127
2, 224393, Note_on_c, 4, 40, 127
2, 224551, Note_off_c, 4, 40, 127
2, 224554, Note_on_c, 0, 48, 127
2, 224707, Note_off_c, 7, 67, 127
2, 224711, Note_off_c, 0, 48, 127
2, 224714, Note_on_c, 11, 70, 127
2, 224714, Note_on_c, 7, 43, 127
2, 224872, Note_off_c, 7, 43, 127
2, 224874, Note_on_c, 4, 40, 127
2, 225032, Note_off_c, 4, 40, 127
2, 225033, Note_off_c, 11, 70, 127
2, 225035, Note_on_c, 8, 68, 127
2, 225035, Note_on_c, 5, 41, 127
2, 225193, Note_off_c, 5, 41, 127
2, 225193, Note_off_c, 7, 79, 127
2, 225196, Note_on_c, 0, 72, 127
2, 225196, Note_on_c, 0, 48, 127
2, 225354, Note_off_c, 0, 48, 127
2, 225354, Note_off_c, 0, 72, 127
2, 225356, Note_on_c, 2, 74, 127
2, 225356, Note_on_c, 8, 44, 127
2, 225514, Note_off_c, 8, 44, 127
2, 225514, Note_off_c, 2, 74, 127
2, 225517, Note_on_c, 3, 75, 127
2, 225517, Note_on_c, 5, 41, 127
2, 225675, Note_off_c, 5, 41, 127
2, 225675, Note_off_c, 3, 75, 127
2, 225678, Note_on_c, 5, 77, 127
2, 225678, Note_on_c, 2, 38, 127
2, 225836, Note_off_c, 2, 38, 127
2, 225836, Note_off_c, 5, 77, 127
2, 225838, Note_on_c, 3, 75, 127
2, 225838, Note_on_c, 11, 46, 127
2, 225996, Note_off_c, 11, 46, 127
2, 225996, Note_off_c, 3, 75, 127
2, 225999, Note_on_c, 2, 74, 127
2, 225999, Note_on_c, 5, 41, 127
2, 226157, Note_off_c, 5, 41, 127
2, 226157, Note_off_c, 2, 74, 127
2, 226160, Note_on_c, 0, 72, 127
2, 226160, Note_on_c, 2, 38, 127
2, 226318, Note_off_c, 2, 38, 127
2, 226318, Note_off_c, 0, 72, 127
2, 226318, Note_off_c, 8, 68, 127
2, 226319, Note_on_c, 11, 70, 127
2, 226319, Note_on_c, 7, 67, 127
2, 226319, Note_on_c, 3, 39, 127
2, 226477, Note_off_c, 3, 39, 127
2, 226477, Note_off_c, 11, 70, 127
2, 226480, Note_on_c, 8, 68, 127
2, 226480, Note_on_c, 11, 46, 127
2, 226638, Note_off_c, 11, 46, 127
2, 226638, Note_off_c, 8, 68, 127
2, 226638, Note_off_c, 7, 67, 127
2, 226641, Note_on_c, 11, 70, 127
2, 226641, Note_on_c, 3, 63, 127
2, 226641, Note_on_c, 7, 43, 127
2, 226799, Note_off_c, 7, 43, 127
2, 226799, Note_off_c, 11, 70, 127
2, 226801, Note_on_c, 0, 72, 127
2, 226801, Note_on_c, 3, 39, 127
2, 226959, Note_off_c, 3, 39, 127
2, 226959, Note_off_c, 0, 72, 127
2, 226962, Note_on_c, 5, 65, 127
2, 226962, Note_on_c, 11, 46, 127
2, 227120, Note_off_c, 3, 63, 127
2, 227123, Note_on_c, 2, 62, 127
2, 227281, Note_off_c, 2, 62, 127
2, 227281, Note_off_c, 11, 46, 127
2, 227283, Note_on_c, 0, 60, 127
2, 227283, Note_on_c, 5, 53, 127
2, 227441, Note_off_c, 0, 60, 127
2, 227444, Note_on_c, 2, 62, 127
2, 227602, Note_off_c, 2, 62, 127
2, 227602, Note_off_c, 5, 53, 127
2, 227605, Note_on_c, 11, 58, 127
2, 227605, Note_on_c, 2, 50, 127
2, 227763, Note_off_c, 11, 58, 127
2, 227765, Note_on_c, 3, 63, 127
2, 227923, Note_off_c, 3, 63, 127
2, 227924, Note_off_c, 2, 50, 127
2, 227924, Note_off_c, 5, 65, 127
2, 227926, Note_on_c, 5, 65, 127
2, 227926, Note_on_c, 2, 62, 127
2, 227926, Note_on_c, 11, 46, 127
2, 228084, Note_off_c, 2, 62, 127
2, 228087, Note_on_c, 3, 63, 127
2, 228245, Note_off_c, 3, 63, 127
2, 228245, Note_off_c, 11, 46, 127
2, 228245, Note_off_c, 5, 65, 127
2, 228248, Note_on_c, 3, 75, 127
2, 228248, Note_on_c, 6, 66, 127
2, 228248, Note_on_c, 10, 57, 127
2, 228540, Note_off_c, 6, 66, 127
2, 228540, Note_off_c, 3, 75, 127
2, 228548, Note_off_c, 10, 57, 127
2, 228569, Note_on_c, 2, 74, 127
2, 228569, Note_on_c, 5, 65, 127
2, 228569, Note_on_c, 8, 56, 127
2, 228861, Note_off_c, 5, 65, 127
2, 228861, Note_off_c, 2, 74, 127
2, 228869, Note_off_c, 8, 56, 127
2, 229050, Note_on_c, 8, 56, 127
2, 229208, Note_off_c, 8, 56, 127
2, 229211, Note_on_c, 2, 62, 127
2, 229211, Note_on_c, 5, 53, 127
2, 229369, Note_off_c, 5, 53, 127
2, 229369, Note_off_c, 2, 62, 127
2, 229371, Note_on_c, 11, 58, 127
2, 229371, Note_on_c, 2, 50, 127
2, 229529, Note_off_c, 2, 50, 127
2, 229529, Note_off_c, 11, 58, 127
2, 229532, Note_on_c, 5, 77, 127
2, 229532, Note_on_c, 8, 68, 127
2, 229532, Note_on_c, 11, 46, 127
2, 229851, Note_off_c, 11, 46, 127
2, 229851, Note_off_c, 8, 68, 127
2, 229851, Note_off_c, 5, 77, 127
2, 229853, Note_on_c, 3, 75, 127
2, 229853, Note_on_c, 7, 67, 127
2, 229853, Note_on_c, 3, 51, 127
2, 230172, Note_off_c, 3, 51, 127
2, 230172, Note_off_c, 7, 67, 127
2, 230175, Note_on_c, 5, 65, 127
2, 230175, Note_on_c, 11, 58, 127
2, 230493, Note_off_c, 3, 75, 127
2, 230494, Note_off_c, 11, 58, 127
2, 230496, Note_on_c, 2, 74, 127
2, 230496, Note_on_c, 12, 59, 127
2, 230815, Note_off_c, 12, 59, 127
2, 230815, Note_off_c, 2, 74, 127
2, 230815, Note_off_c, 5, 65, 127
2, 230817, Note_on_c, 3, 75, 127
2, 230817, Note_on_c, 3, 63, 127
2, 230817, Note_on_c, 0, 60, 127
2, 230982, Note_off_c, 3, 75, 127
2, 230986, Note_on_c, 7, 79, 127
2, 231151, Note_off_c, 7, 79, 127
2, 231155, Note_on_c, 3, 75, 127
2, 231320, Note_off_c, 3, 75, 127
2, 231323, Note_on_c, 0, 72, 127
2, 231488, Note_off_c, 0, 72, 127
2, 231492, Note_on_c, 8, 68, 127
2, 231657, Note_off_c, 0, 60, 127
2, 231661, Note_on_c, 0, 60, 127
2, 231826, Note_off_c, 0, 60, 127
2, 231826, Note_off_c, 3, 63, 127
2, 231830, Note_on_c, 5, 65, 127
2, 231830, Note_on_c, 8, 56, 127
2, 231995, Note_off_c, 8, 56, 127
2, 231999, Note_on_c, 5, 53, 127
2, 232164, Note_off_c, 5, 53, 127
2, 232164, Note_off_c, 5, 65, 127
2, 232168, Note_on_c, 11, 58, 127
2, 232168, Note_on_c, 2, 50, 127
2, 232337, Note_off_c, 8, 68, 127
2, 232341, Note_on_c, 5, 77, 127
2, 232511, Note_off_c, 5, 77, 127
2, 232512, Note_off_c, 2, 50, 127
2, 232514, Note_on_c, 2, 74, 127
2, 232514, Note_on_c, 11, 46, 127
2, 232684, Note_off_c, 2, 74, 127
2, 232688, Note_on_c, 11, 70, 127
2, 232858, Note_off_c, 11, 70, 127
2, 232861, Note_on_c, 7, 67, 127
2, 233031, Note_off_c, 11, 46, 127
2, 233034, Note_on_c, 3, 51, 127
2, 233204, Note_off_c, 3, 51, 127
2, 233205, Note_off_c, 7, 67, 127
2, 233205, Note_off_c, 11, 58, 127
2, 233208, Note_on_c, 3, 75, 127
2, 233208, Note_on_c, 5, 65, 127
2, 233208, Note_on_c, 0, 48, 127
2, 233378, Note_off_c, 0, 48, 127
2, 233381, Note_on_c, 8, 44, 127
2, 233551, Note_off_c, 8, 44, 127
2, 233552, Note_off_c, 3, 75, 127
2, 233555, Note_on_c, 7, 67, 127
2, 233555, Note_on_c, 11, 46, 127
2, 233732, Note_off_c, 5, 65, 127
2, 233735, Note_on_c, 2, 62, 127
2, 233912, Note_off_c, 2, 62, 127
2, 233916, Note_on_c, 3, 63, 127
2, 234093, Note_off_c, 3, 63, 127
2, 234096, Note_on_c, 11, 58, 127
2, 234273, Note_off_c, 7, 67, 127
2, 234276, Note_on_c, 5, 65, 127
2, 234454, Note_off_c, 11, 58, 127
2, 234456, Note_on_c, 0, 60, 127
2, 234633, Note_off_c, 0, 60, 127
2, 234637, Note_on_c, 2, 62, 127
2, 234814, Note_off_c, 2, 62, 127
2, 234818, Note_on_c, 8, 56, 127
2, 234994, Note_off_c, 5, 65, 127
2, 234994, Note_off_c, 11, 46, 127
2, 234998, Note_on_c, 3, 63, 127
2, 234998, Note_on_c, 3, 39, 127
2, 235190, Note_off_c, 8, 56, 127
2, 235194, Note_on_c, 1, 61, 127
2, 235386, Note_off_c, 1, 61, 127
2, 235388, Note_on_c, 11, 58, 127
2, 235580, Note_off_c, 11, 58, 127
2, 235584, Note_on_c, 7, 55, 127
2, 235780, Note_on_c, 0, 60, 127
2, 235971, Note_off_c, 7, 55, 127
2, 235977, Note_on_c, 8, 56, 127
2, 236169, Note_off_c, 8, 56, 127
2, 236172, Note_on_c, 5, 53, 127
2, 236350, Note_off_c, 0, 60, 127
2, 236368, Note_on_c, 12, 59, 127
2, 236559, Note_off_c, 5, 53, 127
2, 236561, Note_off_c, 12, 59, 127
2, 236565, Note_on_c, 7, 55, 127
2, 236565, Note_on_c, 11, 58, 127
2, 240755, Note_off_c, 3, 39, 127
2, 240755, Note_off_c, 3, 63, 127
2, 240756, Note_off_c, 11, 58, 127
2, 240756, Note_off_c, 7, 55, 127
2, 245760, End_track
3, 0, Start_track
3, 0, Title_t, "MIDI"
3, 1536, End_track
0, 0, End_of_file
