0, 0, Header, 1, 4, 240
1, 0, Start_track
1, 0, Title_t, "untitled"
1, 0, SMPTE_offset, 96, 0, 3, 0, 0
1, 0, Time_signature, 1, 3, 12, 8
1, 0, Key_signature, 0, "major"
1, 0, Tempo, 365854
1, 120, Time_signature, 3, 1, 48, 8
1, 120, Tempo, 312500
1, 15960, Time_signature, 11, 3, 12, 8
1, 17280, Time_signature, 1, 3, 12, 8
1, 17280, Tempo, 365854
1, 17400, Time_signature, 3, 1, 48, 8
1, 17400, Tempo, 312500
1, 33240, Time_signature, 11, 3, 12, 8
1, 34560, Time_signature, 1, 3, 12, 8
1, 34560, Tempo, 365854
1, 34680, Time_signature, 3, 1, 48, 8
1, 34680, Tempo, 312500
1, 50520, Time_signature, 11, 3, 12, 8
1, 51840, Time_signature, 1, 3, 12, 8
1, 51840, Tempo, 365854
1, 51960, Time_signature, 3, 1, 48, 8
1, 51960, Tempo, 312500
1, 67800, Time_signature, 11, 3, 12, 8
1, 67800, End_track
2, 0, Start_track
2, 0, MIDI_port, 0
2, 0, Title_t, "English Suite 2, 3. Courante"
2, 0, Program_c, 0, 0
2, 0, Control_c, 0, 7, 100
2, 0, Control_c, 0, 10, 64
2, 0, Note_on_c, 0, 69, 107
2, 96, Note_on_c, 0, 69, 0
2, 120, Note_on_c, 0, 69, 107
2, 120, Note_on_c, 0, 60, 107
2, 120, Note_on_c, 0, 64, 107
2, 408, Note_on_c, 0, 64, 0
2, 408, Note_on_c, 0, 60, 0
2, 408, Note_on_c, 0, 69, 0
2, 480, Note_on_c, 0, 71, 107
2, 576, Note_on_c, 0, 71, 0
2, 600, Note_on_c, 0, 72, 107
2, 696, Note_on_c, 0, 72, 0
2, 720, Note_on_c, 0, 74, 107
2, 816, Note_on_c, 0, 74, 0
2, 840, Note_on_c, 0, 76, 107
2, 936, Note_on_c, 0, 76, 0
2, 960, Note_on_c, 0, 77, 107
2, 1056, Note_on_c, 0, 77, 0
2, 1080, Note_on_c, 0, 76, 107
2, 1176, Note_on_c, 0, 76, 0
2, 1200, Note_on_c, 0, 74, 107
2, 1296, Note_on_c, 0, 74, 0
2, 1320, Note_on_c, 0, 72, 107
2, 1416, Note_on_c, 0, 72, 0
2, 1440, Note_on_c, 0, 71, 107
2, 1536, Note_on_c, 0, 71, 0
2, 1560, Note_on_c, 0, 72, 107
2, 1584, Note_on_c, 0, 72, 0
2, 1590, Note_on_c, 0, 74, 107
2, 1614, Note_on_c, 0, 74, 0
2, 1620, Note_on_c, 0, 72, 107
2, 1872, Note_on_c, 0, 72, 0
2, 1920, Note_on_c, 0, 71, 107
2, 2016, Note_on_c, 0, 71, 0
2, 2040, Note_on_c, 0, 69, 107
2, 2232, Note_on_c, 0, 69, 0
2, 2280, Note_on_c, 0, 81, 107
2, 2472, Note_on_c, 0, 81, 0
2, 2520, Note_on_c, 0, 80, 107
2, 2544, Note_on_c, 0, 80, 0
2, 2550, Note_on_c, 0, 78, 107
2, 2574, Note_on_c, 0, 78, 0
2, 2580, Note_on_c, 0, 80, 107
2, 2865, Note_on_c, 0, 80, 0
2, 2880, Note_on_c, 0, 81, 107
2, 2976, Note_on_c, 0, 81, 0
2, 3000, Note_on_c, 0, 76, 107
2, 3120, Note_on_c, 0, 64, 107
2, 3216, Note_on_c, 0, 64, 0
2, 3240, Note_on_c, 0, 69, 107
2, 3288, Note_on_c, 0, 76, 0
2, 3360, Note_on_c, 0, 79, 107
2, 3456, Note_on_c, 0, 79, 0
2, 3480, Note_on_c, 0, 77, 107
2, 3576, Note_on_c, 0, 77, 0
2, 3600, Note_on_c, 0, 76, 107
2, 3624, Note_on_c, 0, 69, 0
2, 3696, Note_on_c, 0, 76, 0
2, 3720, Note_on_c, 0, 68, 107
2, 3720, Note_on_c, 0, 74, 107
2, 3816, Note_on_c, 0, 74, 0
2, 3840, Note_on_c, 0, 77, 107
2, 3912, Note_on_c, 0, 68, 0
2, 3936, Note_on_c, 0, 77, 0
2, 3960, Note_on_c, 0, 69, 107
2, 3960, Note_on_c, 0, 76, 107
2, 4056, Note_on_c, 0, 76, 0
2, 4080, Note_on_c, 0, 74, 107
2, 4176, Note_on_c, 0, 74, 0
2, 4200, Note_on_c, 0, 76, 107
2, 4296, Note_on_c, 0, 76, 0
2, 4320, Note_on_c, 0, 77, 107
2, 4344, Note_on_c, 0, 69, 0
2, 4416, Note_on_c, 0, 77, 0
2, 4440, Note_on_c, 0, 72, 107
2, 4488, Note_on_c, 0, 72, 0
2, 4500, Note_on_c, 0, 71, 107
2, 4560, Note_on_c, 0, 69, 107
2, 4656, Note_on_c, 0, 69, 0
2, 4680, Note_on_c, 0, 68, 107
2, 4872, Note_on_c, 0, 68, 0
2, 4872, Note_on_c, 0, 71, 0
2, 5160, Note_on_c, 0, 68, 107
2, 5256, Note_on_c, 0, 68, 0
2, 5280, Note_on_c, 0, 69, 107
2, 5376, Note_on_c, 0, 69, 0
2, 5400, Note_on_c, 0, 71, 107
2, 5424, Note_on_c, 0, 71, 0
2, 5430, Note_on_c, 0, 69, 107
2, 5454, Note_on_c, 0, 69, 0
2, 5460, Note_on_c, 0, 71, 107
2, 5489, Note_on_c, 0, 71, 0
2, 5490, Note_on_c, 0, 69, 107
2, 5514, Note_on_c, 0, 69, 0
2, 5520, Note_on_c, 0, 71, 107
2, 5544, Note_on_c, 0, 71, 0
2, 5550, Note_on_c, 0, 69, 107
2, 5574, Note_on_c, 0, 69, 0
2, 5580, Note_on_c, 0, 71, 107
2, 5604, Note_on_c, 0, 71, 0
2, 5610, Note_on_c, 0, 69, 107
2, 5634, Note_on_c, 0, 69, 0
2, 5640, Note_on_c, 0, 71, 107
2, 5664, Note_on_c, 0, 71, 0
2, 5670, Note_on_c, 0, 69, 107
2, 5694, Note_on_c, 0, 69, 0
2, 5700, Note_on_c, 0, 71, 107
2, 5724, Note_on_c, 0, 71, 0
2, 5730, Note_on_c, 0, 69, 107
2, 5754, Note_on_c, 0, 69, 0
2, 5760, Note_on_c, 0, 68, 107
2, 5808, Note_on_c, 0, 68, 0
2, 5820, Note_on_c, 0, 69, 107
2, 5868, Note_on_c, 0, 69, 0
2, 5880, Note_on_c, 0, 71, 107
2, 6168, Note_on_c, 0, 71, 0
2, 6240, Note_on_c, 0, 72, 107
2, 6336, Note_on_c, 0, 72, 0
2, 6360, Note_on_c, 0, 74, 107
2, 6456, Note_on_c, 0, 74, 0
2, 6480, Note_on_c, 0, 71, 107
2, 6576, Note_on_c, 0, 71, 0
2, 6600, Note_on_c, 0, 72, 107
2, 6696, Note_on_c, 0, 72, 0
2, 6720, Note_on_c, 0, 74, 107
2, 6816, Note_on_c, 0, 74, 0
2, 6840, Note_on_c, 0, 76, 107
2, 6869, Note_on_c, 0, 76, 0
2, 6870, Note_on_c, 0, 74, 107
2, 6899, Note_on_c, 0, 74, 0
2, 6900, Note_on_c, 0, 76, 107
2, 6929, Note_on_c, 0, 76, 0
2, 6930, Note_on_c, 0, 74, 107
2, 6959, Note_on_c, 0, 74, 0
2, 6960, Note_on_c, 0, 76, 107
2, 6984, Note_on_c, 0, 76, 0
2, 6990, Note_on_c, 0, 74, 107
2, 7014, Note_on_c, 0, 74, 0
2, 7020, Note_on_c, 0, 76, 107
2, 7044, Note_on_c, 0, 76, 0
2, 7050, Note_on_c, 0, 74, 107
2, 7074, Note_on_c, 0, 74, 0
2, 7080, Note_on_c, 0, 76, 107
2, 7104, Note_on_c, 0, 76, 0
2, 7110, Note_on_c, 0, 74, 107
2, 7134, Note_on_c, 0, 74, 0
2, 7140, Note_on_c, 0, 76, 107
2, 7164, Note_on_c, 0, 76, 0
2, 7170, Note_on_c, 0, 74, 107
2, 7194, Note_on_c, 0, 74, 0
2, 7200, Note_on_c, 0, 72, 107
2, 7248, Note_on_c, 0, 72, 0
2, 7260, Note_on_c, 0, 74, 107
2, 7308, Note_on_c, 0, 74, 0
2, 7320, Note_on_c, 0, 76, 107
2, 7608, Note_on_c, 0, 76, 0
2, 7680, Note_on_c, 0, 77, 107
2, 7776, Note_on_c, 0, 77, 0
2, 7800, Note_on_c, 0, 79, 107
2, 7896, Note_on_c, 0, 79, 0
2, 7920, Note_on_c, 0, 76, 107
2, 8016, Note_on_c, 0, 76, 0
2, 8040, Note_on_c, 0, 77, 107
2, 8136, Note_on_c, 0, 77, 0
2, 8160, Note_on_c, 0, 79, 107
2, 8256, Note_on_c, 0, 79, 0
2, 8280, Note_on_c, 0, 81, 107
2, 8309, Note_on_c, 0, 81, 0
2, 8310, Note_on_c, 0, 79, 107
2, 8339, Note_on_c, 0, 79, 0
2, 8340, Note_on_c, 0, 81, 107
2, 8369, Note_on_c, 0, 81, 0
2, 8370, Note_on_c, 0, 79, 107
2, 8399, Note_on_c, 0, 79, 0
2, 8400, Note_on_c, 0, 81, 107
2, 8424, Note_on_c, 0, 81, 0
2, 8430, Note_on_c, 0, 79, 107
2, 8454, Note_on_c, 0, 79, 0
2, 8460, Note_on_c, 0, 81, 107
2, 8484, Note_on_c, 0, 81, 0
2, 8490, Note_on_c, 0, 79, 107
2, 8514, Note_on_c, 0, 79, 0
2, 8520, Note_on_c, 0, 81, 107
2, 8544, Note_on_c, 0, 81, 0
2, 8550, Note_on_c, 0, 79, 107
2, 8574, Note_on_c, 0, 79, 0
2, 8580, Note_on_c, 0, 81, 107
2, 8604, Note_on_c, 0, 81, 0
2, 8610, Note_on_c, 0, 79, 107
2, 8634, Note_on_c, 0, 79, 0
2, 8640, Note_on_c, 0, 77, 107
2, 8688, Note_on_c, 0, 77, 0
2, 8700, Note_on_c, 0, 79, 107
2, 8748, Note_on_c, 0, 79, 0
2, 8760, Note_on_c, 0, 81, 107
2, 8856, Note_on_c, 0, 81, 0
2, 8880, Note_on_c, 0, 82, 107
2, 8976, Note_on_c, 0, 82, 0
2, 9000, Note_on_c, 0, 81, 107
2, 9096, Note_on_c, 0, 81, 0
2, 9120, Note_on_c, 0, 79, 107
2, 9216, Note_on_c, 0, 79, 0
2, 9240, Note_on_c, 0, 77, 107
2, 9336, Note_on_c, 0, 77, 0
2, 9360, Note_on_c, 0, 76, 107
2, 9456, Note_on_c, 0, 76, 0
2, 9480, Note_on_c, 0, 74, 107
2, 9576, Note_on_c, 0, 74, 0
2, 9600, Note_on_c, 0, 72, 107
2, 9696, Note_on_c, 0, 72, 0
2, 9720, Note_on_c, 0, 77, 107
2, 9744, Note_on_c, 0, 77, 0
2, 9750, Note_on_c, 0, 76, 107
2, 9774, Note_on_c, 0, 76, 0
2, 9780, Note_on_c, 0, 77, 107
2, 10032, Note_on_c, 0, 77, 0
2, 10080, Note_on_c, 0, 77, 107
2, 10176, Note_on_c, 0, 77, 0
2, 10200, Note_on_c, 0, 67, 107
2, 10230, Note_on_c, 0, 74, 107
2, 10260, Note_on_c, 0, 77, 107
2, 10488, Note_on_c, 0, 67, 0
2, 10512, Note_on_c, 0, 77, 0
2, 10512, Note_on_c, 0, 74, 0
2, 10560, Note_on_c, 0, 74, 107
2, 10656, Note_on_c, 0, 74, 0
2, 10680, Note_on_c, 0, 76, 107
2, 10776, Note_on_c, 0, 76, 0
2, 10800, Note_on_c, 0, 77, 107
2, 10896, Note_on_c, 0, 77, 0
2, 10920, Note_on_c, 0, 79, 107
2, 11016, Note_on_c, 0, 79, 0
2, 11040, Note_on_c, 0, 81, 107
2, 11136, Note_on_c, 0, 81, 0
2, 11160, Note_on_c, 0, 79, 107
2, 11256, Note_on_c, 0, 79, 0
2, 11280, Note_on_c, 0, 77, 107
2, 11376, Note_on_c, 0, 77, 0
2, 11400, Note_on_c, 0, 76, 107
2, 11496, Note_on_c, 0, 76, 0
2, 11520, Note_on_c, 0, 74, 107
2, 11616, Note_on_c, 0, 74, 0
2, 11640, Note_on_c, 0, 76, 107
2, 11664, Note_on_c, 0, 76, 0
2, 11670, Note_on_c, 0, 77, 107
2, 11694, Note_on_c, 0, 77, 0
2, 11700, Note_on_c, 0, 76, 107
2, 11952, Note_on_c, 0, 76, 0
2, 12000, Note_on_c, 0, 74, 107
2, 12096, Note_on_c, 0, 74, 0
2, 12120, Note_on_c, 0, 72, 107
2, 12216, Note_on_c, 0, 72, 0
2, 12240, Note_on_c, 0, 76, 107
2, 12336, Note_on_c, 0, 76, 0
2, 12360, Note_on_c, 0, 74, 107
2, 12456, Note_on_c, 0, 74, 0
2, 12480, Note_on_c, 0, 72, 107
2, 12576, Note_on_c, 0, 72, 0
2, 12600, Note_on_c, 0, 71, 107
2, 12696, Note_on_c, 0, 71, 0
2, 12720, Note_on_c, 0, 69, 107
2, 12816, Note_on_c, 0, 69, 0
2, 12840, Note_on_c, 0, 71, 107
2, 12936, Note_on_c, 0, 71, 0
2, 12960, Note_on_c, 0, 72, 107
2, 13056, Note_on_c, 0, 72, 0
2, 13080, Note_on_c, 0, 65, 107
2, 13368, Note_on_c, 0, 65, 0
2, 13440, Note_on_c, 0, 64, 107
2, 13536, Note_on_c, 0, 64, 0
2, 13560, Note_on_c, 0, 65, 107
2, 13656, Note_on_c, 0, 65, 0
2, 13680, Note_on_c, 0, 62, 107
2, 13776, Note_on_c, 0, 62, 0
2, 13800, Note_on_c, 0, 64, 107
2, 13896, Note_on_c, 0, 64, 0
2, 13920, Note_on_c, 0, 65, 107
2, 14016, Note_on_c, 0, 65, 0
2, 14040, Note_on_c, 0, 67, 107
2, 14136, Note_on_c, 0, 67, 0
2, 14160, Note_on_c, 0, 69, 107
2, 14256, Note_on_c, 0, 69, 0
2, 14280, Note_on_c, 0, 70, 107
2, 14376, Note_on_c, 0, 70, 0
2, 14400, Note_on_c, 0, 67, 107
2, 14496, Note_on_c, 0, 67, 0
2, 14520, Note_on_c, 0, 69, 107
2, 14808, Note_on_c, 0, 69, 0
2, 14880, Note_on_c, 0, 67, 107
2, 14976, Note_on_c, 0, 67, 0
2, 15000, Note_on_c, 0, 65, 107
2, 15096, Note_on_c, 0, 65, 0
2, 15120, Note_on_c, 0, 64, 107
2, 15216, Note_on_c, 0, 64, 0
2, 15240, Note_on_c, 0, 62, 107
2, 15336, Note_on_c, 0, 62, 0
2, 15360, Note_on_c, 0, 74, 107
2, 15456, Note_on_c, 0, 74, 0
2, 15480, Note_on_c, 0, 72, 107
2, 15504, Note_on_c, 0, 72, 0
2, 15510, Note_on_c, 0, 71, 107
2, 15534, Note_on_c, 0, 71, 0
2, 15540, Note_on_c, 0, 69, 107
2, 15564, Note_on_c, 0, 69, 0
2, 15570, Note_on_c, 0, 71, 107
2, 15594, Note_on_c, 0, 71, 0
2, 15600, Note_on_c, 0, 72, 107
2, 15624, Note_on_c, 0, 72, 0
2, 15630, Note_on_c, 0, 71, 107
2, 15654, Note_on_c, 0, 71, 0
2, 15660, Note_on_c, 0, 72, 107
2, 15684, Note_on_c, 0, 72, 0
2, 15690, Note_on_c, 0, 71, 107
2, 15714, Note_on_c, 0, 71, 0
2, 15720, Note_on_c, 0, 72, 107
2, 15744, Note_on_c, 0, 72, 0
2, 15750, Note_on_c, 0, 71, 107
2, 15774, Note_on_c, 0, 71, 0
2, 15780, Note_on_c, 0, 69, 107
2, 15804, Note_on_c, 0, 69, 0
2, 15810, Note_on_c, 0, 71, 107
2, 15834, Note_on_c, 0, 71, 0
2, 15840, Note_on_c, 0, 72, 107
2, 15936, Note_on_c, 0, 72, 0
2, 15960, Note_on_c, 0, 72, 107
2, 16680, Note_on_c, 0, 64, 107
2, 16680, Note_on_c, 0, 67, 107
2, 17064, Note_on_c, 0, 67, 0
2, 17064, Note_on_c, 0, 64, 0
2, 17064, Note_on_c, 0, 72, 0
2, 17280, Note_on_c, 0, 69, 107
2, 17376, Note_on_c, 0, 69, 0
2, 17400, Note_on_c, 0, 69, 107
2, 17400, Note_on_c, 0, 60, 107
2, 17400, Note_on_c, 0, 64, 107
2, 17688, Note_on_c, 0, 64, 0
2, 17688, Note_on_c, 0, 60, 0
2, 17688, Note_on_c, 0, 69, 0
2, 17760, Note_on_c, 0, 71, 107
2, 17856, Note_on_c, 0, 71, 0
2, 17880, Note_on_c, 0, 72, 107
2, 17976, Note_on_c, 0, 72, 0
2, 18000, Note_on_c, 0, 74, 107
2, 18096, Note_on_c, 0, 74, 0
2, 18120, Note_on_c, 0, 76, 107
2, 18216, Note_on_c, 0, 76, 0
2, 18240, Note_on_c, 0, 77, 107
2, 18336, Note_on_c, 0, 77, 0
2, 18360, Note_on_c, 0, 76, 107
2, 18456, Note_on_c, 0, 76, 0
2, 18480, Note_on_c, 0, 74, 107
2, 18576, Note_on_c, 0, 74, 0
2, 18600, Note_on_c, 0, 72, 107
2, 18696, Note_on_c, 0, 72, 0
2, 18720, Note_on_c, 0, 71, 107
2, 18816, Note_on_c, 0, 71, 0
2, 18840, Note_on_c, 0, 72, 107
2, 18864, Note_on_c, 0, 72, 0
2, 18870, Note_on_c, 0, 74, 107
2, 18894, Note_on_c, 0, 74, 0
2, 18900, Note_on_c, 0, 72, 107
2, 19152, Note_on_c, 0, 72, 0
2, 19200, Note_on_c, 0, 71, 107
2, 19296, Note_on_c, 0, 71, 0
2, 19320, Note_on_c, 0, 69, 107
2, 19512, Note_on_c, 0, 69, 0
2, 19560, Note_on_c, 0, 81, 107
2, 19752, Note_on_c, 0, 81, 0
2, 19800, Note_on_c, 0, 80, 107
2, 19824, Note_on_c, 0, 80, 0
2, 19830, Note_on_c, 0, 78, 107
2, 19854, Note_on_c, 0, 78, 0
2, 19860, Note_on_c, 0, 80, 107
2, 20145, Note_on_c, 0, 80, 0
2, 20160, Note_on_c, 0, 81, 107
2, 20256, Note_on_c, 0, 81, 0
2, 20280, Note_on_c, 0, 76, 107
2, 20400, Note_on_c, 0, 64, 107
2, 20496, Note_on_c, 0, 64, 0
2, 20520, Note_on_c, 0, 69, 107
2, 20568, Note_on_c, 0, 76, 0
2, 20640, Note_on_c, 0, 79, 107
2, 20736, Note_on_c, 0, 79, 0
2, 20760, Note_on_c, 0, 77, 107
2, 20856, Note_on_c, 0, 77, 0
2, 20880, Note_on_c, 0, 76, 107
2, 20904, Note_on_c, 0, 69, 0
2, 20976, Note_on_c, 0, 76, 0
2, 21000, Note_on_c, 0, 68, 107
2, 21000, Note_on_c, 0, 74, 107
2, 21096, Note_on_c, 0, 74, 0
2, 21120, Note_on_c, 0, 77, 107
2, 21192, Note_on_c, 0, 68, 0
2, 21216, Note_on_c, 0, 77, 0
2, 21240, Note_on_c, 0, 69, 107
2, 21240, Note_on_c, 0, 76, 107
2, 21336, Note_on_c, 0, 76, 0
2, 21360, Note_on_c, 0, 74, 107
2, 21456, Note_on_c, 0, 74, 0
2, 21480, Note_on_c, 0, 76, 107
2, 21576, Note_on_c, 0, 76, 0
2, 21600, Note_on_c, 0, 77, 107
2, 21624, Note_on_c, 0, 69, 0
2, 21696, Note_on_c, 0, 77, 0
2, 21720, Note_on_c, 0, 72, 107
2, 21768, Note_on_c, 0, 72, 0
2, 21780, Note_on_c, 0, 71, 107
2, 21840, Note_on_c, 0, 69, 107
2, 21936, Note_on_c, 0, 69, 0
2, 21960, Note_on_c, 0, 68, 107
2, 22152, Note_on_c, 0, 68, 0
2, 22152, Note_on_c, 0, 71, 0
2, 22440, Note_on_c, 0, 68, 107
2, 22536, Note_on_c, 0, 68, 0
2, 22560, Note_on_c, 0, 69, 107
2, 22656, Note_on_c, 0, 69, 0
2, 22680, Note_on_c, 0, 71, 107
2, 22704, Note_on_c, 0, 71, 0
2, 22710, Note_on_c, 0, 69, 107
2, 22734, Note_on_c, 0, 69, 0
2, 22740, Note_on_c, 0, 71, 107
2, 22769, Note_on_c, 0, 71, 0
2, 22770, Note_on_c, 0, 69, 107
2, 22794, Note_on_c, 0, 69, 0
2, 22800, Note_on_c, 0, 71, 107
2, 22824, Note_on_c, 0, 71, 0
2, 22830, Note_on_c, 0, 69, 107
2, 22854, Note_on_c, 0, 69, 0
2, 22860, Note_on_c, 0, 71, 107
2, 22884, Note_on_c, 0, 71, 0
2, 22890, Note_on_c, 0, 69, 107
2, 22914, Note_on_c, 0, 69, 0
2, 22920, Note_on_c, 0, 71, 107
2, 22944, Note_on_c, 0, 71, 0
2, 22950, Note_on_c, 0, 69, 107
2, 22974, Note_on_c, 0, 69, 0
2, 22980, Note_on_c, 0, 71, 107
2, 23004, Note_on_c, 0, 71, 0
2, 23010, Note_on_c, 0, 69, 107
2, 23034, Note_on_c, 0, 69, 0
2, 23040, Note_on_c, 0, 68, 107
2, 23088, Note_on_c, 0, 68, 0
2, 23100, Note_on_c, 0, 69, 107
2, 23148, Note_on_c, 0, 69, 0
2, 23160, Note_on_c, 0, 71, 107
2, 23448, Note_on_c, 0, 71, 0
2, 23520, Note_on_c, 0, 72, 107
2, 23616, Note_on_c, 0, 72, 0
2, 23640, Note_on_c, 0, 74, 107
2, 23736, Note_on_c, 0, 74, 0
2, 23760, Note_on_c, 0, 71, 107
2, 23856, Note_on_c, 0, 71, 0
2, 23880, Note_on_c, 0, 72, 107
2, 23976, Note_on_c, 0, 72, 0
2, 24000, Note_on_c, 0, 74, 107
2, 24096, Note_on_c, 0, 74, 0
2, 24120, Note_on_c, 0, 76, 107
2, 24149, Note_on_c, 0, 76, 0
2, 24150, Note_on_c, 0, 74, 107
2, 24179, Note_on_c, 0, 74, 0
2, 24180, Note_on_c, 0, 76, 107
2, 24209, Note_on_c, 0, 76, 0
2, 24210, Note_on_c, 0, 74, 107
2, 24239, Note_on_c, 0, 74, 0
2, 24240, Note_on_c, 0, 76, 107
2, 24264, Note_on_c, 0, 76, 0
2, 24270, Note_on_c, 0, 74, 107
2, 24294, Note_on_c, 0, 74, 0
2, 24300, Note_on_c, 0, 76, 107
2, 24324, Note_on_c, 0, 76, 0
2, 24330, Note_on_c, 0, 74, 107
2, 24354, Note_on_c, 0, 74, 0
2, 24360, Note_on_c, 0, 76, 107
2, 24384, Note_on_c, 0, 76, 0
2, 24390, Note_on_c, 0, 74, 107
2, 24414, Note_on_c, 0, 74, 0
2, 24420, Note_on_c, 0, 76, 107
2, 24444, Note_on_c, 0, 76, 0
2, 24450, Note_on_c, 0, 74, 107
2, 24474, Note_on_c, 0, 74, 0
2, 24480, Note_on_c, 0, 72, 107
2, 24528, Note_on_c, 0, 72, 0
2, 24540, Note_on_c, 0, 74, 107
2, 24588, Note_on_c, 0, 74, 0
2, 24600, Note_on_c, 0, 76, 107
2, 24888, Note_on_c, 0, 76, 0
2, 24960, Note_on_c, 0, 77, 107
2, 25056, Note_on_c, 0, 77, 0
2, 25080, Note_on_c, 0, 79, 107
2, 25176, Note_on_c, 0, 79, 0
2, 25200, Note_on_c, 0, 76, 107
2, 25296, Note_on_c, 0, 76, 0
2, 25320, Note_on_c, 0, 77, 107
2, 25416, Note_on_c, 0, 77, 0
2, 25440, Note_on_c, 0, 79, 107
2, 25536, Note_on_c, 0, 79, 0
2, 25560, Note_on_c, 0, 81, 107
2, 25589, Note_on_c, 0, 81, 0
2, 25590, Note_on_c, 0, 79, 107
2, 25619, Note_on_c, 0, 79, 0
2, 25620, Note_on_c, 0, 81, 107
2, 25649, Note_on_c, 0, 81, 0
2, 25650, Note_on_c, 0, 79, 107
2, 25679, Note_on_c, 0, 79, 0
2, 25680, Note_on_c, 0, 81, 107
2, 25704, Note_on_c, 0, 81, 0
2, 25710, Note_on_c, 0, 79, 107
2, 25734, Note_on_c, 0, 79, 0
2, 25740, Note_on_c, 0, 81, 107
2, 25764, Note_on_c, 0, 81, 0
2, 25770, Note_on_c, 0, 79, 107
2, 25794, Note_on_c, 0, 79, 0
2, 25800, Note_on_c, 0, 81, 107
2, 25824, Note_on_c, 0, 81, 0
2, 25830, Note_on_c, 0, 79, 107
2, 25854, Note_on_c, 0, 79, 0
2, 25860, Note_on_c, 0, 81, 107
2, 25884, Note_on_c, 0, 81, 0
2, 25890, Note_on_c, 0, 79, 107
2, 25914, Note_on_c, 0, 79, 0
2, 25920, Note_on_c, 0, 77, 107
2, 25968, Note_on_c, 0, 77, 0
2, 25980, Note_on_c, 0, 79, 107
2, 26028, Note_on_c, 0, 79, 0
2, 26040, Note_on_c, 0, 81, 107
2, 26136, Note_on_c, 0, 81, 0
2, 26160, Note_on_c, 0, 82, 107
2, 26256, Note_on_c, 0, 82, 0
2, 26280, Note_on_c, 0, 81, 107
2, 26376, Note_on_c, 0, 81, 0
2, 26400, Note_on_c, 0, 79, 107
2, 26496, Note_on_c, 0, 79, 0
2, 26520, Note_on_c, 0, 77, 107
2, 26616, Note_on_c, 0, 77, 0
2, 26640, Note_on_c, 0, 76, 107
2, 26736, Note_on_c, 0, 76, 0
2, 26760, Note_on_c, 0, 74, 107
2, 26856, Note_on_c, 0, 74, 0
2, 26880, Note_on_c, 0, 72, 107
2, 26976, Note_on_c, 0, 72, 0
2, 27000, Note_on_c, 0, 77, 107
2, 27024, Note_on_c, 0, 77, 0
2, 27030, Note_on_c, 0, 76, 107
2, 27054, Note_on_c, 0, 76, 0
2, 27060, Note_on_c, 0, 77, 107
2, 27312, Note_on_c, 0, 77, 0
2, 27360, Note_on_c, 0, 77, 107
2, 27456, Note_on_c, 0, 77, 0
2, 27480, Note_on_c, 0, 67, 107
2, 27510, Note_on_c, 0, 74, 107
2, 27540, Note_on_c, 0, 77, 107
2, 27768, Note_on_c, 0, 67, 0
2, 27792, Note_on_c, 0, 77, 0
2, 27792, Note_on_c, 0, 74, 0
2, 27840, Note_on_c, 0, 74, 107
2, 27936, Note_on_c, 0, 74, 0
2, 27960, Note_on_c, 0, 76, 107
2, 28056, Note_on_c, 0, 76, 0
2, 28080, Note_on_c, 0, 77, 107
2, 28176, Note_on_c, 0, 77, 0
2, 28200, Note_on_c, 0, 79, 107
2, 28296, Note_on_c, 0, 79, 0
2, 28320, Note_on_c, 0, 81, 107
2, 28416, Note_on_c, 0, 81, 0
2, 28440, Note_on_c, 0, 79, 107
2, 28536, Note_on_c, 0, 79, 0
2, 28560, Note_on_c, 0, 77, 107
2, 28656, Note_on_c, 0, 77, 0
2, 28680, Note_on_c, 0, 76, 107
2, 28776, Note_on_c, 0, 76, 0
2, 28800, Note_on_c, 0, 74, 107
2, 28896, Note_on_c, 0, 74, 0
2, 28920, Note_on_c, 0, 76, 107
2, 28944, Note_on_c, 0, 76, 0
2, 28950, Note_on_c, 0, 77, 107
2, 28974, Note_on_c, 0, 77, 0
2, 28980, Note_on_c, 0, 76, 107
2, 29232, Note_on_c, 0, 76, 0
2, 29280, Note_on_c, 0, 74, 107
2, 29376, Note_on_c, 0, 74, 0
2, 29400, Note_on_c, 0, 72, 107
2, 29496, Note_on_c, 0, 72, 0
2, 29520, Note_on_c, 0, 76, 107
2, 29616, Note_on_c, 0, 76, 0
2, 29640, Note_on_c, 0, 74, 107
2, 29736, Note_on_c, 0, 74, 0
2, 29760, Note_on_c, 0, 72, 107
2, 29856, Note_on_c, 0, 72, 0
2, 29880, Note_on_c, 0, 71, 107
2, 29976, Note_on_c, 0, 71, 0
2, 30000, Note_on_c, 0, 69, 107
2, 30096, Note_on_c, 0, 69, 0
2, 30120, Note_on_c, 0, 71, 107
2, 30216, Note_on_c, 0, 71, 0
2, 30240, Note_on_c, 0, 72, 107
2, 30336, Note_on_c, 0, 72, 0
2, 30360, Note_on_c, 0, 65, 107
2, 30648, Note_on_c, 0, 65, 0
2, 30720, Note_on_c, 0, 64, 107
2, 30816, Note_on_c, 0, 64, 0
2, 30840, Note_on_c, 0, 65, 107
2, 30936, Note_on_c, 0, 65, 0
2, 30960, Note_on_c, 0, 62, 107
2, 31056, Note_on_c, 0, 62, 0
2, 31080, Note_on_c, 0, 64, 107
2, 31176, Note_on_c, 0, 64, 0
2, 31200, Note_on_c, 0, 65, 107
2, 31296, Note_on_c, 0, 65, 0
2, 31320, Note_on_c, 0, 67, 107
2, 31416, Note_on_c, 0, 67, 0
2, 31440, Note_on_c, 0, 69, 107
2, 31536, Note_on_c, 0, 69, 0
2, 31560, Note_on_c, 0, 70, 107
2, 31656, Note_on_c, 0, 70, 0
2, 31680, Note_on_c, 0, 67, 107
2, 31776, Note_on_c, 0, 67, 0
2, 31800, Note_on_c, 0, 69, 107
2, 32088, Note_on_c, 0, 69, 0
2, 32160, Note_on_c, 0, 67, 107
2, 32256, Note_on_c, 0, 67, 0
2, 32280, Note_on_c, 0, 65, 107
2, 32376, Note_on_c, 0, 65, 0
2, 32400, Note_on_c, 0, 64, 107
2, 32496, Note_on_c, 0, 64, 0
2, 32520, Note_on_c, 0, 62, 107
2, 32616, Note_on_c, 0, 62, 0
2, 32640, Note_on_c, 0, 74, 107
2, 32736, Note_on_c, 0, 74, 0
2, 32760, Note_on_c, 0, 72, 107
2, 32784, Note_on_c, 0, 72, 0
2, 32790, Note_on_c, 0, 71, 107
2, 32814, Note_on_c, 0, 71, 0
2, 32820, Note_on_c, 0, 69, 107
2, 32844, Note_on_c, 0, 69, 0
2, 32850, Note_on_c, 0, 71, 107
2, 32874, Note_on_c, 0, 71, 0
2, 32880, Note_on_c, 0, 72, 107
2, 32904, Note_on_c, 0, 72, 0
2, 32910, Note_on_c, 0, 71, 107
2, 32934, Note_on_c, 0, 71, 0
2, 32940, Note_on_c, 0, 72, 107
2, 32964, Note_on_c, 0, 72, 0
2, 32970, Note_on_c, 0, 71, 107
2, 32994, Note_on_c, 0, 71, 0
2, 33000, Note_on_c, 0, 72, 107
2, 33024, Note_on_c, 0, 72, 0
2, 33030, Note_on_c, 0, 71, 107
2, 33054, Note_on_c, 0, 71, 0
2, 33060, Note_on_c, 0, 69, 107
2, 33084, Note_on_c, 0, 69, 0
2, 33090, Note_on_c, 0, 71, 107
2, 33114, Note_on_c, 0, 71, 0
2, 33120, Note_on_c, 0, 72, 107
2, 33216, Note_on_c, 0, 72, 0
2, 33240, Note_on_c, 0, 72, 107
2, 33960, Note_on_c, 0, 64, 107
2, 33960, Note_on_c, 0, 67, 107
2, 34344, Note_on_c, 0, 67, 0
2, 34344, Note_on_c, 0, 64, 0
2, 34344, Note_on_c, 0, 72, 0
2, 34560, Note_on_c, 0, 76, 107
2, 34656, Note_on_c, 0, 76, 0
2, 34680, Note_on_c, 0, 72, 107
2, 34680, Note_on_c, 0, 76, 107
2, 34680, Note_on_c, 0, 67, 107
2, 34968, Note_on_c, 0, 67, 0
2, 34968, Note_on_c, 0, 76, 0
2, 34968, Note_on_c, 0, 72, 0
2, 35040, Note_on_c, 0, 74, 107
2, 35136, Note_on_c, 0, 74, 0
2, 35160, Note_on_c, 0, 72, 107
2, 35256, Note_on_c, 0, 72, 0
2, 35280, Note_on_c, 0, 71, 107
2, 35376, Note_on_c, 0, 71, 0
2, 35400, Note_on_c, 0, 69, 107
2, 35496, Note_on_c, 0, 69, 0
2, 35520, Note_on_c, 0, 67, 107
2, 35616, Note_on_c, 0, 67, 0
2, 35640, Note_on_c, 0, 66, 107
2, 35736, Note_on_c, 0, 66, 0
2, 35760, Note_on_c, 0, 68, 107
2, 35856, Note_on_c, 0, 68, 0
2, 35880, Note_on_c, 0, 69, 107
2, 35976, Note_on_c, 0, 69, 0
2, 36000, Note_on_c, 0, 71, 107
2, 36096, Note_on_c, 0, 71, 0
2, 36120, Note_on_c, 0, 68, 107
2, 36144, Note_on_c, 0, 68, 0
2, 36150, Note_on_c, 0, 69, 107
2, 36174, Note_on_c, 0, 69, 0
2, 36180, Note_on_c, 0, 68, 107
2, 36432, Note_on_c, 0, 68, 0
2, 36480, Note_on_c, 0, 69, 107
2, 36576, Note_on_c, 0, 69, 0
2, 36600, Note_on_c, 0, 71, 107
2, 36792, Note_on_c, 0, 71, 0
2, 36840, Note_on_c, 0, 64, 107
2, 37032, Note_on_c, 0, 64, 0
2, 37080, Note_on_c, 0, 74, 107
2, 37272, Note_on_c, 0, 74, 0
2, 37320, Note_on_c, 0, 72, 107
2, 37416, Note_on_c, 0, 72, 0
2, 37440, Note_on_c, 0, 71, 107
2, 37536, Note_on_c, 0, 71, 0
2, 37560, Note_on_c, 0, 72, 107
2, 37848, Note_on_c, 0, 72, 0
2, 37920, Note_on_c, 0, 71, 107
2, 38016, Note_on_c, 0, 71, 0
2, 38040, Note_on_c, 0, 69, 107
2, 38136, Note_on_c, 0, 69, 0
2, 38160, Note_on_c, 0, 71, 107
2, 38256, Note_on_c, 0, 71, 0
2, 38280, Note_on_c, 0, 72, 107
2, 38376, Note_on_c, 0, 72, 0
2, 38400, Note_on_c, 0, 74, 107
2, 38496, Note_on_c, 0, 74, 0
2, 38520, Note_on_c, 0, 76, 107
2, 38616, Note_on_c, 0, 76, 0
2, 38640, Note_on_c, 0, 77, 107
2, 38736, Note_on_c, 0, 77, 0
2, 38760, Note_on_c, 0, 79, 107
2, 38856, Note_on_c, 0, 79, 0
2, 38880, Note_on_c, 0, 76, 107
2, 38976, Note_on_c, 0, 76, 0
2, 39000, Note_on_c, 0, 73, 107
2, 39024, Note_on_c, 0, 73, 0
2, 39030, Note_on_c, 0, 74, 107
2, 39054, Note_on_c, 0, 74, 0
2, 39060, Note_on_c, 0, 73, 107
2, 39312, Note_on_c, 0, 73, 0
2, 39360, Note_on_c, 0, 74, 107
2, 39456, Note_on_c, 0, 74, 0
2, 39480, Note_on_c, 0, 76, 107
2, 39672, Note_on_c, 0, 76, 0
2, 39720, Note_on_c, 0, 81, 107
2, 39912, Note_on_c, 0, 81, 0
2, 39960, Note_on_c, 0, 81, 107
2, 40056, Note_on_c, 0, 81, 0
2, 40080, Note_on_c, 0, 79, 107
2, 40176, Note_on_c, 0, 79, 0
2, 40200, Note_on_c, 0, 77, 107
2, 40296, Note_on_c, 0, 77, 0
2, 40320, Note_on_c, 0, 76, 107
2, 40416, Note_on_c, 0, 76, 0
2, 40440, Note_on_c, 0, 77, 107
2, 40464, Note_on_c, 0, 77, 0
2, 40470, Note_on_c, 0, 76, 107
2, 40494, Note_on_c, 0, 76, 0
2, 40500, Note_on_c, 0, 74, 107
2, 40524, Note_on_c, 0, 74, 0
2, 40530, Note_on_c, 0, 76, 107
2, 40554, Note_on_c, 0, 76, 0
2, 40560, Note_on_c, 0, 77, 107
2, 40752, Note_on_c, 0, 77, 0
2, 40800, Note_on_c, 0, 79, 107
2, 40896, Note_on_c, 0, 79, 0
2, 40920, Note_on_c, 0, 81, 107
2, 41112, Note_on_c, 0, 81, 0
2, 41160, Note_on_c, 0, 74, 107
2, 41256, Note_on_c, 0, 74, 0
2, 41280, Note_on_c, 0, 76, 107
2, 41376, Note_on_c, 0, 76, 0
2, 41400, Note_on_c, 0, 79, 107
2, 41496, Note_on_c, 0, 79, 0
2, 41520, Note_on_c, 0, 77, 107
2, 41616, Note_on_c, 0, 77, 0
2, 41640, Note_on_c, 0, 76, 107
2, 41736, Note_on_c, 0, 76, 0
2, 41760, Note_on_c, 0, 74, 107
2, 41856, Note_on_c, 0, 74, 0
2, 41880, Note_on_c, 0, 74, 107
2, 41904, Note_on_c, 0, 74, 0
2, 41910, Note_on_c, 0, 73, 107
2, 41934, Note_on_c, 0, 73, 0
2, 41940, Note_on_c, 0, 74, 107
2, 42570, Note_on_c, 0, 74, 0
2, 42600, Note_on_c, 0, 77, 107
2, 42696, Note_on_c, 0, 77, 0
2, 42720, Note_on_c, 0, 76, 107
2, 42816, Note_on_c, 0, 76, 0
2, 42840, Note_on_c, 0, 74, 107
2, 42936, Note_on_c, 0, 74, 0
2, 42960, Note_on_c, 0, 72, 107
2, 43056, Note_on_c, 0, 72, 0
2, 43080, Note_on_c, 0, 74, 107
2, 43176, Note_on_c, 0, 74, 0
2, 43200, Note_on_c, 0, 71, 107
2, 43296, Note_on_c, 0, 71, 0
2, 43320, Note_on_c, 0, 79, 107
2, 43608, Note_on_c, 0, 79, 0
2, 43680, Note_on_c, 0, 77, 107
2, 43776, Note_on_c, 0, 77, 0
2, 43800, Note_on_c, 0, 76, 107
2, 43896, Note_on_c, 0, 76, 0
2, 43920, Note_on_c, 0, 74, 107
2, 44016, Note_on_c, 0, 74, 0
2, 44040, Note_on_c, 0, 72, 107
2, 44136, Note_on_c, 0, 72, 0
2, 44160, Note_on_c, 0, 71, 107
2, 44256, Note_on_c, 0, 71, 0
2, 44280, Note_on_c, 0, 72, 107
2, 44376, Note_on_c, 0, 72, 0
2, 44400, Note_on_c, 0, 69, 107
2, 44496, Note_on_c, 0, 69, 0
2, 44520, Note_on_c, 0, 74, 107
2, 44712, Note_on_c, 0, 74, 0
2, 44760, Note_on_c, 0, 72, 107
2, 44784, Note_on_c, 0, 72, 0
2, 44790, Note_on_c, 0, 74, 107
2, 44814, Note_on_c, 0, 74, 0
2, 44820, Note_on_c, 0, 72, 107
2, 44868, Note_on_c, 0, 72, 0
2, 44880, Note_on_c, 0, 71, 107
2, 44976, Note_on_c, 0, 71, 0
2, 45000, Note_on_c, 0, 69, 107
2, 45096, Note_on_c, 0, 69, 0
2, 45120, Note_on_c, 0, 67, 107
2, 45216, Note_on_c, 0, 67, 0
2, 45240, Note_on_c, 0, 69, 107
2, 45336, Note_on_c, 0, 69, 0
2, 45360, Note_on_c, 0, 71, 107
2, 45456, Note_on_c, 0, 71, 0
2, 45480, Note_on_c, 0, 72, 107
2, 45576, Note_on_c, 0, 72, 0
2, 45600, Note_on_c, 0, 74, 107
2, 45696, Note_on_c, 0, 74, 0
2, 45720, Note_on_c, 0, 76, 107
2, 45816, Note_on_c, 0, 76, 0
2, 45840, Note_on_c, 0, 71, 107
2, 45936, Note_on_c, 0, 71, 0
2, 45960, Note_on_c, 0, 72, 107
2, 46056, Note_on_c, 0, 72, 0
2, 46080, Note_on_c, 0, 69, 107
2, 46176, Note_on_c, 0, 69, 0
2, 46200, Note_on_c, 0, 66, 107
2, 46224, Note_on_c, 0, 66, 0
2, 46230, Note_on_c, 0, 67, 107
2, 46254, Note_on_c, 0, 67, 0
2, 46260, Note_on_c, 0, 66, 107
2, 46308, Note_on_c, 0, 66, 0
2, 46320, Note_on_c, 0, 64, 107
2, 46416, Note_on_c, 0, 64, 0
2, 46440, Note_on_c, 0, 66, 107
2, 46536, Note_on_c, 0, 66, 0
2, 46560, Note_on_c, 0, 69, 107
2, 46656, Note_on_c, 0, 69, 0
2, 46680, Note_on_c, 0, 71, 107
2, 46776, Note_on_c, 0, 71, 0
2, 46800, Note_on_c, 0, 72, 107
2, 46896, Note_on_c, 0, 72, 0
2, 46920, Note_on_c, 0, 74, 107
2, 47016, Note_on_c, 0, 74, 0
2, 47040, Note_on_c, 0, 76, 107
2, 47136, Note_on_c, 0, 76, 0
2, 47160, Note_on_c, 0, 77, 107
2, 47256, Note_on_c, 0, 77, 0
2, 47280, Note_on_c, 0, 76, 107
2, 47376, Note_on_c, 0, 76, 0
2, 47400, Note_on_c, 0, 81, 107
2, 47592, Note_on_c, 0, 81, 0
2, 47640, Note_on_c, 0, 80, 107
2, 47664, Note_on_c, 0, 80, 0
2, 47670, Note_on_c, 0, 78, 107
2, 47694, Note_on_c, 0, 78, 0
2, 47700, Note_on_c, 0, 80, 107
2, 47952, Note_on_c, 0, 80, 0
2, 48000, Note_on_c, 0, 81, 107
2, 48096, Note_on_c, 0, 81, 0
2, 48120, Note_on_c, 0, 83, 107
2, 48216, Note_on_c, 0, 83, 0
2, 48240, Note_on_c, 0, 76, 107
2, 48336, Note_on_c, 0, 76, 0
2, 48360, Note_on_c, 0, 84, 107
2, 48552, Note_on_c, 0, 84, 0
2, 48600, Note_on_c, 0, 84, 107
2, 48696, Note_on_c, 0, 84, 0
2, 48720, Note_on_c, 0, 83, 107
2, 48816, Note_on_c, 0, 83, 0
2, 48840, Note_on_c, 0, 81, 107
2, 48936, Note_on_c, 0, 81, 0
2, 48960, Note_on_c, 0, 80, 107
2, 49056, Note_on_c, 0, 80, 0
2, 49080, Note_on_c, 0, 81, 107
2, 49176, Note_on_c, 0, 81, 0
2, 49200, Note_on_c, 0, 76, 107
2, 49296, Note_on_c, 0, 76, 0
2, 49320, Note_on_c, 0, 77, 107
2, 49416, Note_on_c, 0, 77, 0
2, 49440, Note_on_c, 0, 74, 107
2, 49536, Note_on_c, 0, 74, 0
2, 49560, Note_on_c, 0, 76, 107
2, 49584, Note_on_c, 0, 76, 0
2, 49590, Note_on_c, 0, 74, 107
2, 49614, Note_on_c, 0, 74, 0
2, 49620, Note_on_c, 0, 76, 107
2, 49872, Note_on_c, 0, 76, 0
2, 49920, Note_on_c, 0, 77, 107
2, 50016, Note_on_c, 0, 77, 0
2, 50040, Note_on_c, 0, 71, 107
2, 50040, Note_on_c, 0, 68, 107
2, 50064, Note_on_c, 0, 71, 0
2, 50070, Note_on_c, 0, 72, 107
2, 50094, Note_on_c, 0, 72, 0
2, 50100, Note_on_c, 0, 71, 107
2, 50352, Note_on_c, 0, 71, 0
2, 50400, Note_on_c, 0, 69, 107
2, 50424, Note_on_c, 0, 68, 0
2, 50496, Note_on_c, 0, 69, 0
2, 50520, Note_on_c, 0, 69, 107
2, 51000, Note_on_c, 0, 60, 107
2, 51000, Note_on_c, 0, 64, 107
2, 51384, Note_on_c, 0, 64, 0
2, 51384, Note_on_c, 0, 60, 0
2, 51624, Note_on_c, 0, 69, 0
2, 51840, Note_on_c, 0, 76, 107
2, 51936, Note_on_c, 0, 76, 0
2, 51960, Note_on_c, 0, 72, 107
2, 51960, Note_on_c, 0, 76, 107
2, 51960, Note_on_c, 0, 67, 107
2, 52248, Note_on_c, 0, 67, 0
2, 52248, Note_on_c, 0, 76, 0
2, 52248, Note_on_c, 0, 72, 0
2, 52320, Note_on_c, 0, 74, 107
2, 52416, Note_on_c, 0, 74, 0
2, 52440, Note_on_c, 0, 72, 107
2, 52536, Note_on_c, 0, 72, 0
2, 52560, Note_on_c, 0, 71, 107
2, 52656, Note_on_c, 0, 71, 0
2, 52680, Note_on_c, 0, 69, 107
2, 52776, Note_on_c, 0, 69, 0
2, 52800, Note_on_c, 0, 67, 107
2, 52896, Note_on_c, 0, 67, 0
2, 52920, Note_on_c, 0, 66, 107
2, 53016, Note_on_c, 0, 66, 0
2, 53040, Note_on_c, 0, 68, 107
2, 53136, Note_on_c, 0, 68, 0
2, 53160, Note_on_c, 0, 69, 107
2, 53256, Note_on_c, 0, 69, 0
2, 53280, Note_on_c, 0, 71, 107
2, 53376, Note_on_c, 0, 71, 0
2, 53400, Note_on_c, 0, 68, 107
2, 53424, Note_on_c, 0, 68, 0
2, 53430, Note_on_c, 0, 69, 107
2, 53454, Note_on_c, 0, 69, 0
2, 53460, Note_on_c, 0, 68, 107
2, 53712, Note_on_c, 0, 68, 0
2, 53760, Note_on_c, 0, 69, 107
2, 53856, Note_on_c, 0, 69, 0
2, 53880, Note_on_c, 0, 71, 107
2, 54072, Note_on_c, 0, 71, 0
2, 54120, Note_on_c, 0, 64, 107
2, 54312, Note_on_c, 0, 64, 0
2, 54360, Note_on_c, 0, 74, 107
2, 54552, Note_on_c, 0, 74, 0
2, 54600, Note_on_c, 0, 72, 107
2, 54696, Note_on_c, 0, 72, 0
2, 54720, Note_on_c, 0, 71, 107
2, 54816, Note_on_c, 0, 71, 0
2, 54840, Note_on_c, 0, 72, 107
2, 55128, Note_on_c, 0, 72, 0
2, 55200, Note_on_c, 0, 71, 107
2, 55296, Note_on_c, 0, 71, 0
2, 55320, Note_on_c, 0, 69, 107
2, 55416, Note_on_c, 0, 69, 0
2, 55440, Note_on_c, 0, 71, 107
2, 55536, Note_on_c, 0, 71, 0
2, 55560, Note_on_c, 0, 72, 107
2, 55656, Note_on_c, 0, 72, 0
2, 55680, Note_on_c, 0, 74, 107
2, 55776, Note_on_c, 0, 74, 0
2, 55800, Note_on_c, 0, 76, 107
2, 55896, Note_on_c, 0, 76, 0
2, 55920, Note_on_c, 0, 77, 107
2, 56016, Note_on_c, 0, 77, 0
2, 56040, Note_on_c, 0, 79, 107
2, 56136, Note_on_c, 0, 79, 0
2, 56160, Note_on_c, 0, 76, 107
2, 56256, Note_on_c, 0, 76, 0
2, 56280, Note_on_c, 0, 73, 107
2, 56304, Note_on_c, 0, 73, 0
2, 56310, Note_on_c, 0, 74, 107
2, 56334, Note_on_c, 0, 74, 0
2, 56340, Note_on_c, 0, 73, 107
2, 56592, Note_on_c, 0, 73, 0
2, 56640, Note_on_c, 0, 74, 107
2, 56736, Note_on_c, 0, 74, 0
2, 56760, Note_on_c, 0, 76, 107
2, 56952, Note_on_c, 0, 76, 0
2, 57000, Note_on_c, 0, 81, 107
2, 57192, Note_on_c, 0, 81, 0
2, 57240, Note_on_c, 0, 81, 107
2, 57336, Note_on_c, 0, 81, 0
2, 57360, Note_on_c, 0, 79, 107
2, 57456, Note_on_c, 0, 79, 0
2, 57480, Note_on_c, 0, 77, 107
2, 57576, Note_on_c, 0, 77, 0
2, 57600, Note_on_c, 0, 76, 107
2, 57696, Note_on_c, 0, 76, 0
2, 57720, Note_on_c, 0, 77, 107
2, 57744, Note_on_c, 0, 77, 0
2, 57750, Note_on_c, 0, 76, 107
2, 57774, Note_on_c, 0, 76, 0
2, 57780, Note_on_c, 0, 74, 107
2, 57804, Note_on_c, 0, 74, 0
2, 57810, Note_on_c, 0, 76, 107
2, 57834, Note_on_c, 0, 76, 0
2, 57840, Note_on_c, 0, 77, 107
2, 58032, Note_on_c, 0, 77, 0
2, 58080, Note_on_c, 0, 79, 107
2, 58176, Note_on_c, 0, 79, 0
2, 58200, Note_on_c, 0, 81, 107
2, 58392, Note_on_c, 0, 81, 0
2, 58440, Note_on_c, 0, 74, 107
2, 58536, Note_on_c, 0, 74, 0
2, 58560, Note_on_c, 0, 76, 107
2, 58656, Note_on_c, 0, 76, 0
2, 58680, Note_on_c, 0, 79, 107
2, 58776, Note_on_c, 0, 79, 0
2, 58800, Note_on_c, 0, 77, 107
2, 58896, Note_on_c, 0, 77, 0
2, 58920, Note_on_c, 0, 76, 107
2, 59016, Note_on_c, 0, 76, 0
2, 59040, Note_on_c, 0, 74, 107
2, 59136, Note_on_c, 0, 74, 0
2, 59160, Note_on_c, 0, 74, 107
2, 59184, Note_on_c, 0, 74, 0
2, 59190, Note_on_c, 0, 73, 107
2, 59214, Note_on_c, 0, 73, 0
2, 59220, Note_on_c, 0, 74, 107
2, 59850, Note_on_c, 0, 74, 0
2, 59880, Note_on_c, 0, 77, 107
2, 59976, Note_on_c, 0, 77, 0
2, 60000, Note_on_c, 0, 76, 107
2, 60096, Note_on_c, 0, 76, 0
2, 60120, Note_on_c, 0, 74, 107
2, 60216, Note_on_c, 0, 74, 0
2, 60240, Note_on_c, 0, 72, 107
2, 60336, Note_on_c, 0, 72, 0
2, 60360, Note_on_c, 0, 74, 107
2, 60456, Note_on_c, 0, 74, 0
2, 60480, Note_on_c, 0, 71, 107
2, 60576, Note_on_c, 0, 71, 0
2, 60600, Note_on_c, 0, 79, 107
2, 60888, Note_on_c, 0, 79, 0
2, 60960, Note_on_c, 0, 77, 107
2, 61056, Note_on_c, 0, 77, 0
2, 61080, Note_on_c, 0, 76, 107
2, 61176, Note_on_c, 0, 76, 0
2, 61200, Note_on_c, 0, 74, 107
2, 61296, Note_on_c, 0, 74, 0
2, 61320, Note_on_c, 0, 72, 107
2, 61416, Note_on_c, 0, 72, 0
2, 61440, Note_on_c, 0, 71, 107
2, 61536, Note_on_c, 0, 71, 0
2, 61560, Note_on_c, 0, 72, 107
2, 61656, Note_on_c, 0, 72, 0
2, 61680, Note_on_c, 0, 69, 107
2, 61776, Note_on_c, 0, 69, 0
2, 61800, Note_on_c, 0, 74, 107
2, 61992, Note_on_c, 0, 74, 0
2, 62040, Note_on_c, 0, 72, 107
2, 62064, Note_on_c, 0, 72, 0
2, 62070, Note_on_c, 0, 74, 107
2, 62094, Note_on_c, 0, 74, 0
2, 62100, Note_on_c, 0, 72, 107
2, 62148, Note_on_c, 0, 72, 0
2, 62160, Note_on_c, 0, 71, 107
2, 62256, Note_on_c, 0, 71, 0
2, 62280, Note_on_c, 0, 69, 107
2, 62376, Note_on_c, 0, 69, 0
2, 62400, Note_on_c, 0, 67, 107
2, 62496, Note_on_c, 0, 67, 0
2, 62520, Note_on_c, 0, 69, 107
2, 62616, Note_on_c, 0, 69, 0
2, 62640, Note_on_c, 0, 71, 107
2, 62736, Note_on_c, 0, 71, 0
2, 62760, Note_on_c, 0, 72, 107
2, 62856, Note_on_c, 0, 72, 0
2, 62880, Note_on_c, 0, 74, 107
2, 62976, Note_on_c, 0, 74, 0
2, 63000, Note_on_c, 0, 76, 107
2, 63096, Note_on_c, 0, 76, 0
2, 63120, Note_on_c, 0, 71, 107
2, 63216, Note_on_c, 0, 71, 0
2, 63240, Note_on_c, 0, 72, 107
2, 63336, Note_on_c, 0, 72, 0
2, 63360, Note_on_c, 0, 69, 107
2, 63456, Note_on_c, 0, 69, 0
2, 63480, Note_on_c, 0, 66, 107
2, 63504, Note_on_c, 0, 66, 0
2, 63510, Note_on_c, 0, 67, 107
2, 63534, Note_on_c, 0, 67, 0
2, 63540, Note_on_c, 0, 66, 107
2, 63588, Note_on_c, 0, 66, 0
2, 63600, Note_on_c, 0, 64, 107
2, 63696, Note_on_c, 0, 64, 0
2, 63720, Note_on_c, 0, 66, 107
2, 63816, Note_on_c, 0, 66, 0
2, 63840, Note_on_c, 0, 69, 107
2, 63936, Note_on_c, 0, 69, 0
2, 63960, Note_on_c, 0, 71, 107
2, 64056, Note_on_c, 0, 71, 0
2, 64080, Note_on_c, 0, 72, 107
2, 64176, Note_on_c, 0, 72, 0
2, 64200, Note_on_c, 0, 74, 107
2, 64296, Note_on_c, 0, 74, 0
2, 64320, Note_on_c, 0, 76, 107
2, 64416, Note_on_c, 0, 76, 0
2, 64440, Note_on_c, 0, 77, 107
2, 64536, Note_on_c, 0, 77, 0
2, 64560, Note_on_c, 0, 76, 107
2, 64656, Note_on_c, 0, 76, 0
2, 64680, Note_on_c, 0, 81, 107
2, 64872, Note_on_c, 0, 81, 0
2, 64920, Note_on_c, 0, 80, 107
2, 64944, Note_on_c, 0, 80, 0
2, 64950, Note_on_c, 0, 78, 107
2, 64974, Note_on_c, 0, 78, 0
2, 64980, Note_on_c, 0, 80, 107
2, 65232, Note_on_c, 0, 80, 0
2, 65280, Note_on_c, 0, 81, 107
2, 65376, Note_on_c, 0, 81, 0
2, 65400, Note_on_c, 0, 83, 107
2, 65496, Note_on_c, 0, 83, 0
2, 65520, Note_on_c, 0, 76, 107
2, 65616, Note_on_c, 0, 76, 0
2, 65640, Note_on_c, 0, 84, 107
2, 65832, Note_on_c, 0, 84, 0
2, 65880, Note_on_c, 0, 84, 107
2, 65976, Note_on_c, 0, 84, 0
2, 66000, Note_on_c, 0, 83, 107
2, 66096, Note_on_c, 0, 83, 0
2, 66120, Note_on_c, 0, 81, 107
2, 66216, Note_on_c, 0, 81, 0
2, 66240, Note_on_c, 0, 80, 107
2, 66336, Note_on_c, 0, 80, 0
2, 66360, Note_on_c, 0, 81, 107
2, 66456, Note_on_c, 0, 81, 0
2, 66480, Note_on_c, 0, 76, 107
2, 66576, Note_on_c, 0, 76, 0
2, 66600, Note_on_c, 0, 77, 107
2, 66696, Note_on_c, 0, 77, 0
2, 66720, Note_on_c, 0, 74, 107
2, 66816, Note_on_c, 0, 74, 0
2, 66840, Note_on_c, 0, 76, 107
2, 66864, Note_on_c, 0, 76, 0
2, 66870, Note_on_c, 0, 74, 107
2, 66894, Note_on_c, 0, 74, 0
2, 66900, Note_on_c, 0, 76, 107
2, 67152, Note_on_c, 0, 76, 0
2, 67200, Note_on_c, 0, 77, 107
2, 67296, Note_on_c, 0, 77, 0
2, 67320, Note_on_c, 0, 71, 107
2, 67320, Note_on_c, 0, 68, 107
2, 67344, Note_on_c, 0, 71, 0
2, 67350, Note_on_c, 0, 72, 107
2, 67374, Note_on_c, 0, 72, 0
2, 67380, Note_on_c, 0, 71, 107
2, 67632, Note_on_c, 0, 71, 0
2, 67680, Note_on_c, 0, 69, 107
2, 67704, Note_on_c, 0, 68, 0
2, 67776, Note_on_c, 0, 69, 0
2, 67800, Note_on_c, 0, 69, 107
2, 68280, Note_on_c, 0, 60, 107
2, 68280, Note_on_c, 0, 64, 107
2, 68664, Note_on_c, 0, 64, 0
2, 68664, Note_on_c, 0, 60, 0
2, 68904, Note_on_c, 0, 69, 0
2, 68904, End_track
3, 0, Start_track
3, 0, MIDI_port, 0
3, 0, Title_t, "J.S. Bach, Edition Wood"
3, 0, Program_c, 1, 0
3, 0, Control_c, 1, 7, 100
3, 0, Control_c, 1, 10, 64
3, 120, Note_on_c, 1, 57, 107
3, 312, Note_on_c, 1, 57, 0
3, 360, Note_on_c, 1, 52, 107
3, 552, Note_on_c, 1, 52, 0
3, 600, Note_on_c, 1, 45, 107
3, 792, Note_on_c, 1, 45, 0
3, 840, Note_on_c, 1, 57, 107
3, 1032, Note_on_c, 1, 57, 0
3, 1080, Note_on_c, 1, 56, 107
3, 1272, Note_on_c, 1, 56, 0
3, 1320, Note_on_c, 1, 52, 107
3, 1512, Note_on_c, 1, 52, 0
3, 1560, Note_on_c, 1, 57, 107
3, 1656, Note_on_c, 1, 57, 0
3, 1680, Note_on_c, 1, 45, 107
3, 1776, Note_on_c, 1, 45, 0
3, 1800, Note_on_c, 1, 57, 107
3, 1896, Note_on_c, 1, 57, 0
3, 1920, Note_on_c, 1, 59, 107
3, 2016, Note_on_c, 1, 59, 0
3, 2040, Note_on_c, 1, 60, 107
3, 2136, Note_on_c, 1, 60, 0
3, 2160, Note_on_c, 1, 62, 107
3, 2256, Note_on_c, 1, 62, 0
3, 2280, Note_on_c, 1, 64, 107
3, 2376, Note_on_c, 1, 64, 0
3, 2400, Note_on_c, 1, 65, 107
3, 2496, Note_on_c, 1, 65, 0
3, 2520, Note_on_c, 1, 64, 107
3, 2616, Note_on_c, 1, 64, 0
3, 2640, Note_on_c, 1, 62, 107
3, 2736, Note_on_c, 1, 62, 0
3, 2760, Note_on_c, 1, 60, 107
3, 2856, Note_on_c, 1, 60, 0
3, 2880, Note_on_c, 1, 59, 107
3, 2976, Note_on_c, 1, 59, 0
3, 3000, Note_on_c, 1, 60, 107
3, 3288, Note_on_c, 1, 60, 0
3, 3360, Note_on_c, 1, 61, 107
3, 3456, Note_on_c, 1, 61, 0
3, 3480, Note_on_c, 1, 62, 107
3, 3672, Note_on_c, 1, 62, 0
3, 3720, Note_on_c, 1, 59, 107
3, 3900, Note_on_c, 1, 59, 0
3, 3960, Note_on_c, 1, 60, 107
3, 4140, Note_on_c, 1, 60, 0
3, 4200, Note_on_c, 1, 62, 107
3, 4380, Note_on_c, 1, 62, 0
3, 4440, Note_on_c, 1, 64, 107
3, 4728, Note_on_c, 1, 64, 0
3, 4800, Note_on_c, 1, 64, 107
3, 4896, Note_on_c, 1, 64, 0
3, 4920, Note_on_c, 1, 62, 107
3, 5016, Note_on_c, 1, 62, 0
3, 5040, Note_on_c, 1, 60, 107
3, 5136, Note_on_c, 1, 60, 0
3, 5160, Note_on_c, 1, 59, 107
3, 5256, Note_on_c, 1, 59, 0
3, 5280, Note_on_c, 1, 62, 107
3, 5376, Note_on_c, 1, 62, 0
3, 5400, Note_on_c, 1, 60, 107
3, 5496, Note_on_c, 1, 60, 0
3, 5520, Note_on_c, 1, 59, 107
3, 5616, Note_on_c, 1, 59, 0
3, 5640, Note_on_c, 1, 60, 107
3, 5736, Note_on_c, 1, 60, 0
3, 5760, Note_on_c, 1, 62, 107
3, 5856, Note_on_c, 1, 62, 0
3, 5880, Note_on_c, 1, 56, 107
3, 5976, Note_on_c, 1, 56, 0
3, 6000, Note_on_c, 1, 59, 107
3, 6096, Note_on_c, 1, 59, 0
3, 6120, Note_on_c, 1, 57, 107
3, 6216, Note_on_c, 1, 57, 0
3, 6240, Note_on_c, 1, 56, 107
3, 6336, Note_on_c, 1, 56, 0
3, 6360, Note_on_c, 1, 54, 107
3, 6456, Note_on_c, 1, 54, 0
3, 6480, Note_on_c, 1, 52, 107
3, 6576, Note_on_c, 1, 52, 0
3, 6600, Note_on_c, 1, 57, 107
3, 6696, Note_on_c, 1, 57, 0
3, 6720, Note_on_c, 1, 55, 107
3, 6816, Note_on_c, 1, 55, 0
3, 6840, Note_on_c, 1, 53, 107
3, 6936, Note_on_c, 1, 53, 0
3, 6960, Note_on_c, 1, 52, 107
3, 7056, Note_on_c, 1, 52, 0
3, 7080, Note_on_c, 1, 53, 107
3, 7176, Note_on_c, 1, 53, 0
3, 7200, Note_on_c, 1, 55, 107
3, 7296, Note_on_c, 1, 55, 0
3, 7320, Note_on_c, 1, 48, 107
3, 7416, Note_on_c, 1, 48, 0
3, 7440, Note_on_c, 1, 53, 107
3, 7536, Note_on_c, 1, 53, 0
3, 7560, Note_on_c, 1, 52, 107
3, 7656, Note_on_c, 1, 52, 0
3, 7680, Note_on_c, 1, 50, 107
3, 7776, Note_on_c, 1, 50, 0
3, 7800, Note_on_c, 1, 48, 107
3, 7896, Note_on_c, 1, 48, 0
3, 7920, Note_on_c, 1, 46, 107
3, 8016, Note_on_c, 1, 46, 0
3, 8040, Note_on_c, 1, 45, 107
3, 8136, Note_on_c, 1, 45, 0
3, 8160, Note_on_c, 1, 48, 107
3, 8256, Note_on_c, 1, 48, 0
3, 8280, Note_on_c, 1, 46, 107
3, 8376, Note_on_c, 1, 46, 0
3, 8400, Note_on_c, 1, 45, 107
3, 8496, Note_on_c, 1, 45, 0
3, 8520, Note_on_c, 1, 46, 107
3, 8616, Note_on_c, 1, 46, 0
3, 8640, Note_on_c, 1, 48, 107
3, 8736, Note_on_c, 1, 48, 0
3, 8760, Note_on_c, 1, 41, 107
3, 8952, Note_on_c, 1, 41, 0
3, 9000, Note_on_c, 1, 53, 107
3, 9096, Note_on_c, 1, 53, 0
3, 9120, Note_on_c, 1, 55, 107
3, 9216, Note_on_c, 1, 55, 0
3, 9240, Note_on_c, 1, 57, 107
3, 9336, Note_on_c, 1, 57, 0
3, 9360, Note_on_c, 1, 55, 107
3, 9456, Note_on_c, 1, 55, 0
3, 9480, Note_on_c, 1, 53, 107
3, 9576, Note_on_c, 1, 53, 0
3, 9600, Note_on_c, 1, 52, 107
3, 9696, Note_on_c, 1, 52, 0
3, 9720, Note_on_c, 1, 50, 107
3, 9816, Note_on_c, 1, 50, 0
3, 9840, Note_on_c, 1, 48, 107
3, 9936, Note_on_c, 1, 48, 0
3, 9960, Note_on_c, 1, 47, 107
3, 10056, Note_on_c, 1, 47, 0
3, 10080, Note_on_c, 1, 45, 107
3, 10176, Note_on_c, 1, 45, 0
3, 10200, Note_on_c, 1, 47, 107
3, 10296, Note_on_c, 1, 47, 0
3, 10320, Note_on_c, 1, 43, 107
3, 10416, Note_on_c, 1, 43, 0
3, 10440, Note_on_c, 1, 45, 107
3, 10536, Note_on_c, 1, 45, 0
3, 10560, Note_on_c, 1, 47, 107
3, 10656, Note_on_c, 1, 47, 0
3, 10680, Note_on_c, 1, 48, 107
3, 10776, Note_on_c, 1, 48, 0
3, 10800, Note_on_c, 1, 50, 107
3, 10896, Note_on_c, 1, 50, 0
3, 10920, Note_on_c, 1, 52, 107
3, 11016, Note_on_c, 1, 52, 0
3, 11040, Note_on_c, 1, 53, 107
3, 11136, Note_on_c, 1, 53, 0
3, 11160, Note_on_c, 1, 55, 107
3, 11340, Note_on_c, 1, 55, 0
3, 11400, Note_on_c, 1, 43, 107
3, 11580, Note_on_c, 1, 43, 0
3, 11640, Note_on_c, 1, 48, 107
3, 11760, Note_on_c, 1, 55, 107
3, 11856, Note_on_c, 1, 55, 0
3, 11880, Note_on_c, 1, 60, 107
3, 12000, Note_on_c, 1, 48, 0
3, 12000, Note_on_c, 1, 50, 107
3, 12072, Note_on_c, 1, 60, 0
3, 12120, Note_on_c, 1, 50, 0
3, 12120, Note_on_c, 1, 52, 107
3, 12360, Note_on_c, 1, 52, 0
3, 12360, Note_on_c, 1, 53, 107
3, 12540, Note_on_c, 1, 53, 0
3, 12600, Note_on_c, 1, 55, 107
3, 12780, Note_on_c, 1, 55, 0
3, 12840, Note_on_c, 1, 57, 107
3, 13020, Note_on_c, 1, 57, 0
3, 13080, Note_on_c, 1, 59, 107
3, 13176, Note_on_c, 1, 59, 0
3, 13200, Note_on_c, 1, 60, 107
3, 13296, Note_on_c, 1, 60, 0
3, 13320, Note_on_c, 1, 62, 107
3, 13416, Note_on_c, 1, 62, 0
3, 13440, Note_on_c, 1, 60, 107
3, 13536, Note_on_c, 1, 60, 0
3, 13560, Note_on_c, 1, 59, 107
3, 13656, Note_on_c, 1, 59, 0
3, 13680, Note_on_c, 1, 57, 107
3, 13776, Note_on_c, 1, 57, 0
3, 13800, Note_on_c, 1, 55, 107
3, 13896, Note_on_c, 1, 55, 0
3, 13920, Note_on_c, 1, 53, 107
3, 14016, Note_on_c, 1, 53, 0
3, 14040, Note_on_c, 1, 52, 107
3, 14136, Note_on_c, 1, 52, 0
3, 14160, Note_on_c, 1, 48, 107
3, 14256, Note_on_c, 1, 48, 0
3, 14280, Note_on_c, 1, 50, 107
3, 14376, Note_on_c, 1, 50, 0
3, 14400, Note_on_c, 1, 52, 107
3, 14496, Note_on_c, 1, 52, 0
3, 14520, Note_on_c, 1, 53, 107
3, 14616, Note_on_c, 1, 53, 0
3, 14640, Note_on_c, 1, 52, 107
3, 14736, Note_on_c, 1, 52, 0
3, 14760, Note_on_c, 1, 53, 107
3, 14856, Note_on_c, 1, 53, 0
3, 14880, Note_on_c, 1, 55, 107
3, 14976, Note_on_c, 1, 55, 0
3, 15000, Note_on_c, 1, 57, 107
3, 15192, Note_on_c, 1, 57, 0
3, 15240, Note_on_c, 1, 53, 107
3, 15420, Note_on_c, 1, 53, 0
3, 15480, Note_on_c, 1, 55, 107
3, 15660, Note_on_c, 1, 55, 0
3, 15720, Note_on_c, 1, 43, 107
3, 15900, Note_on_c, 1, 43, 0
3, 15960, Note_on_c, 1, 48, 107
3, 16200, Note_on_c, 1, 36, 107
3, 16344, Note_on_c, 1, 48, 0
3, 16440, Note_on_c, 1, 43, 107
3, 16632, Note_on_c, 1, 43, 0
3, 16680, Note_on_c, 1, 48, 107
3, 17064, Note_on_c, 1, 48, 0
3, 17064, Note_on_c, 1, 36, 0
3, 17400, Note_on_c, 1, 57, 107
3, 17592, Note_on_c, 1, 57, 0
3, 17640, Note_on_c, 1, 52, 107
3, 17832, Note_on_c, 1, 52, 0
3, 17880, Note_on_c, 1, 45, 107
3, 18072, Note_on_c, 1, 45, 0
3, 18120, Note_on_c, 1, 57, 107
3, 18312, Note_on_c, 1, 57, 0
3, 18360, Note_on_c, 1, 56, 107
3, 18552, Note_on_c, 1, 56, 0
3, 18600, Note_on_c, 1, 52, 107
3, 18792, Note_on_c, 1, 52, 0
3, 18840, Note_on_c, 1, 57, 107
3, 18936, Note_on_c, 1, 57, 0
3, 18960, Note_on_c, 1, 45, 107
3, 19056, Note_on_c, 1, 45, 0
3, 19080, Note_on_c, 1, 57, 107
3, 19176, Note_on_c, 1, 57, 0
3, 19200, Note_on_c, 1, 59, 107
3, 19296, Note_on_c, 1, 59, 0
3, 19320, Note_on_c, 1, 60, 107
3, 19416, Note_on_c, 1, 60, 0
3, 19440, Note_on_c, 1, 62, 107
3, 19536, Note_on_c, 1, 62, 0
3, 19560, Note_on_c, 1, 64, 107
3, 19656, Note_on_c, 1, 64, 0
3, 19680, Note_on_c, 1, 65, 107
3, 19776, Note_on_c, 1, 65, 0
3, 19800, Note_on_c, 1, 64, 107
3, 19896, Note_on_c, 1, 64, 0
3, 19920, Note_on_c, 1, 62, 107
3, 20016, Note_on_c, 1, 62, 0
3, 20040, Note_on_c, 1, 60, 107
3, 20136, Note_on_c, 1, 60, 0
3, 20160, Note_on_c, 1, 59, 107
3, 20256, Note_on_c, 1, 59, 0
3, 20280, Note_on_c, 1, 60, 107
3, 20568, Note_on_c, 1, 60, 0
3, 20640, Note_on_c, 1, 61, 107
3, 20736, Note_on_c, 1, 61, 0
3, 20760, Note_on_c, 1, 62, 107
3, 20952, Note_on_c, 1, 62, 0
3, 21000, Note_on_c, 1, 59, 107
3, 21180, Note_on_c, 1, 59, 0
3, 21240, Note_on_c, 1, 60, 107
3, 21420, Note_on_c, 1, 60, 0
3, 21480, Note_on_c, 1, 62, 107
3, 21660, Note_on_c, 1, 62, 0
3, 21720, Note_on_c, 1, 64, 107
3, 22008, Note_on_c, 1, 64, 0
3, 22080, Note_on_c, 1, 64, 107
3, 22176, Note_on_c, 1, 64, 0
3, 22200, Note_on_c, 1, 62, 107
3, 22296, Note_on_c, 1, 62, 0
3, 22320, Note_on_c, 1, 60, 107
3, 22416, Note_on_c, 1, 60, 0
3, 22440, Note_on_c, 1, 59, 107
3, 22536, Note_on_c, 1, 59, 0
3, 22560, Note_on_c, 1, 62, 107
3, 22656, Note_on_c, 1, 62, 0
3, 22680, Note_on_c, 1, 60, 107
3, 22776, Note_on_c, 1, 60, 0
3, 22800, Note_on_c, 1, 59, 107
3, 22896, Note_on_c, 1, 59, 0
3, 22920, Note_on_c, 1, 60, 107
3, 23016, Note_on_c, 1, 60, 0
3, 23040, Note_on_c, 1, 62, 107
3, 23136, Note_on_c, 1, 62, 0
3, 23160, Note_on_c, 1, 56, 107
3, 23256, Note_on_c, 1, 56, 0
3, 23280, Note_on_c, 1, 59, 107
3, 23376, Note_on_c, 1, 59, 0
3, 23400, Note_on_c, 1, 57, 107
3, 23496, Note_on_c, 1, 57, 0
3, 23520, Note_on_c, 1, 56, 107
3, 23616, Note_on_c, 1, 56, 0
3, 23640, Note_on_c, 1, 54, 107
3, 23736, Note_on_c, 1, 54, 0
3, 23760, Note_on_c, 1, 52, 107
3, 23856, Note_on_c, 1, 52, 0
3, 23880, Note_on_c, 1, 57, 107
3, 23976, Note_on_c, 1, 57, 0
3, 24000, Note_on_c, 1, 55, 107
3, 24096, Note_on_c, 1, 55, 0
3, 24120, Note_on_c, 1, 53, 107
3, 24216, Note_on_c, 1, 53, 0
3, 24240, Note_on_c, 1, 52, 107
3, 24336, Note_on_c, 1, 52, 0
3, 24360, Note_on_c, 1, 53, 107
3, 24456, Note_on_c, 1, 53, 0
3, 24480, Note_on_c, 1, 55, 107
3, 24576, Note_on_c, 1, 55, 0
3, 24600, Note_on_c, 1, 48, 107
3, 24696, Note_on_c, 1, 48, 0
3, 24720, Note_on_c, 1, 53, 107
3, 24816, Note_on_c, 1, 53, 0
3, 24840, Note_on_c, 1, 52, 107
3, 24936, Note_on_c, 1, 52, 0
3, 24960, Note_on_c, 1, 50, 107
3, 25056, Note_on_c, 1, 50, 0
3, 25080, Note_on_c, 1, 48, 107
3, 25176, Note_on_c, 1, 48, 0
3, 25200, Note_on_c, 1, 46, 107
3, 25296, Note_on_c, 1, 46, 0
3, 25320, Note_on_c, 1, 45, 107
3, 25416, Note_on_c, 1, 45, 0
3, 25440, Note_on_c, 1, 48, 107
3, 25536, Note_on_c, 1, 48, 0
3, 25560, Note_on_c, 1, 46, 107
3, 25656, Note_on_c, 1, 46, 0
3, 25680, Note_on_c, 1, 45, 107
3, 25776, Note_on_c, 1, 45, 0
3, 25800, Note_on_c, 1, 46, 107
3, 25896, Note_on_c, 1, 46, 0
3, 25920, Note_on_c, 1, 48, 107
3, 26016, Note_on_c, 1, 48, 0
3, 26040, Note_on_c, 1, 41, 107
3, 26232, Note_on_c, 1, 41, 0
3, 26280, Note_on_c, 1, 53, 107
3, 26376, Note_on_c, 1, 53, 0
3, 26400, Note_on_c, 1, 55, 107
3, 26496, Note_on_c, 1, 55, 0
3, 26520, Note_on_c, 1, 57, 107
3, 26616, Note_on_c, 1, 57, 0
3, 26640, Note_on_c, 1, 55, 107
3, 26736, Note_on_c, 1, 55, 0
3, 26760, Note_on_c, 1, 53, 107
3, 26856, Note_on_c, 1, 53, 0
3, 26880, Note_on_c, 1, 52, 107
3, 26976, Note_on_c, 1, 52, 0
3, 27000, Note_on_c, 1, 50, 107
3, 27096, Note_on_c, 1, 50, 0
3, 27120, Note_on_c, 1, 48, 107
3, 27216, Note_on_c, 1, 48, 0
3, 27240, Note_on_c, 1, 47, 107
3, 27336, Note_on_c, 1, 47, 0
3, 27360, Note_on_c, 1, 45, 107
3, 27456, Note_on_c, 1, 45, 0
3, 27480, Note_on_c, 1, 47, 107
3, 27576, Note_on_c, 1, 47, 0
3, 27600, Note_on_c, 1, 43, 107
3, 27696, Note_on_c, 1, 43, 0
3, 27720, Note_on_c, 1, 45, 107
3, 27816, Note_on_c, 1, 45, 0
3, 27840, Note_on_c, 1, 47, 107
3, 27936, Note_on_c, 1, 47, 0
3, 27960, Note_on_c, 1, 48, 107
3, 28056, Note_on_c, 1, 48, 0
3, 28080, Note_on_c, 1, 50, 107
3, 28176, Note_on_c, 1, 50, 0
3, 28200, Note_on_c, 1, 52, 107
3, 28296, Note_on_c, 1, 52, 0
3, 28320, Note_on_c, 1, 53, 107
3, 28416, Note_on_c, 1, 53, 0
3, 28440, Note_on_c, 1, 55, 107
3, 28620, Note_on_c, 1, 55, 0
3, 28680, Note_on_c, 1, 43, 107
3, 28860, Note_on_c, 1, 43, 0
3, 28920, Note_on_c, 1, 48, 107
3, 29040, Note_on_c, 1, 55, 107
3, 29136, Note_on_c, 1, 55, 0
3, 29160, Note_on_c, 1, 60, 107
3, 29280, Note_on_c, 1, 48, 0
3, 29280, Note_on_c, 1, 50, 107
3, 29352, Note_on_c, 1, 60, 0
3, 29400, Note_on_c, 1, 50, 0
3, 29400, Note_on_c, 1, 52, 107
3, 29640, Note_on_c, 1, 52, 0
3, 29640, Note_on_c, 1, 53, 107
3, 29820, Note_on_c, 1, 53, 0
3, 29880, Note_on_c, 1, 55, 107
3, 30060, Note_on_c, 1, 55, 0
3, 30120, Note_on_c, 1, 57, 107
3, 30300, Note_on_c, 1, 57, 0
3, 30360, Note_on_c, 1, 59, 107
3, 30456, Note_on_c, 1, 59, 0
3, 30480, Note_on_c, 1, 60, 107
3, 30576, Note_on_c, 1, 60, 0
3, 30600, Note_on_c, 1, 62, 107
3, 30696, Note_on_c, 1, 62, 0
3, 30720, Note_on_c, 1, 60, 107
3, 30816, Note_on_c, 1, 60, 0
3, 30840, Note_on_c, 1, 59, 107
3, 30936, Note_on_c, 1, 59, 0
3, 30960, Note_on_c, 1, 57, 107
3, 31056, Note_on_c, 1, 57, 0
3, 31080, Note_on_c, 1, 55, 107
3, 31176, Note_on_c, 1, 55, 0
3, 31200, Note_on_c, 1, 53, 107
3, 31296, Note_on_c, 1, 53, 0
3, 31320, Note_on_c, 1, 52, 107
3, 31416, Note_on_c, 1, 52, 0
3, 31440, Note_on_c, 1, 48, 107
3, 31536, Note_on_c, 1, 48, 0
3, 31560, Note_on_c, 1, 50, 107
3, 31656, Note_on_c, 1, 50, 0
3, 31680, Note_on_c, 1, 52, 107
3, 31776, Note_on_c, 1, 52, 0
3, 31800, Note_on_c, 1, 53, 107
3, 31896, Note_on_c, 1, 53, 0
3, 31920, Note_on_c, 1, 52, 107
3, 32016, Note_on_c, 1, 52, 0
3, 32040, Note_on_c, 1, 53, 107
3, 32136, Note_on_c, 1, 53, 0
3, 32160, Note_on_c, 1, 55, 107
3, 32256, Note_on_c, 1, 55, 0
3, 32280, Note_on_c, 1, 57, 107
3, 32472, Note_on_c, 1, 57, 0
3, 32520, Note_on_c, 1, 53, 107
3, 32700, Note_on_c, 1, 53, 0
3, 32760, Note_on_c, 1, 55, 107
3, 32940, Note_on_c, 1, 55, 0
3, 33000, Note_on_c, 1, 43, 107
3, 33180, Note_on_c, 1, 43, 0
3, 33240, Note_on_c, 1, 48, 107
3, 33480, Note_on_c, 1, 36, 107
3, 33624, Note_on_c, 1, 48, 0
3, 33720, Note_on_c, 1, 43, 107
3, 33912, Note_on_c, 1, 43, 0
3, 33960, Note_on_c, 1, 48, 107
3, 34344, Note_on_c, 1, 48, 0
3, 34344, Note_on_c, 1, 36, 0
3, 34680, Note_on_c, 1, 48, 107
3, 34872, Note_on_c, 1, 48, 0
3, 34920, Note_on_c, 1, 50, 107
3, 35112, Note_on_c, 1, 50, 0
3, 35160, Note_on_c, 1, 52, 107
3, 35352, Note_on_c, 1, 52, 0
3, 35400, Note_on_c, 1, 48, 107
3, 35592, Note_on_c, 1, 48, 0
3, 35640, Note_on_c, 1, 50, 107
3, 35832, Note_on_c, 1, 50, 0
3, 35880, Note_on_c, 1, 47, 107
3, 36072, Note_on_c, 1, 47, 0
3, 36120, Note_on_c, 1, 52, 107
3, 36216, Note_on_c, 1, 52, 0
3, 36240, Note_on_c, 1, 50, 107
3, 36336, Note_on_c, 1, 50, 0
3, 36360, Note_on_c, 1, 53, 107
3, 36456, Note_on_c, 1, 53, 0
3, 36480, Note_on_c, 1, 52, 107
3, 36576, Note_on_c, 1, 52, 0
3, 36600, Note_on_c, 1, 50, 107
3, 36696, Note_on_c, 1, 50, 0
3, 36720, Note_on_c, 1, 48, 107
3, 36816, Note_on_c, 1, 48, 0
3, 36840, Note_on_c, 1, 47, 107
3, 36936, Note_on_c, 1, 47, 0
3, 36960, Note_on_c, 1, 45, 107
3, 37056, Note_on_c, 1, 45, 0
3, 37080, Note_on_c, 1, 44, 107
3, 37176, Note_on_c, 1, 44, 0
3, 37200, Note_on_c, 1, 42, 107
3, 37296, Note_on_c, 1, 42, 0
3, 37320, Note_on_c, 1, 44, 107
3, 37416, Note_on_c, 1, 44, 0
3, 37440, Note_on_c, 1, 40, 107
3, 37536, Note_on_c, 1, 40, 0
3, 37560, Note_on_c, 1, 45, 107
3, 37656, Note_on_c, 1, 45, 0
3, 37680, Note_on_c, 1, 44, 107
3, 37776, Note_on_c, 1, 44, 0
3, 37800, Note_on_c, 1, 45, 107
3, 37896, Note_on_c, 1, 45, 0
3, 37920, Note_on_c, 1, 47, 107
3, 38016, Note_on_c, 1, 47, 0
3, 38040, Note_on_c, 1, 48, 107
3, 38136, Note_on_c, 1, 48, 0
3, 38160, Note_on_c, 1, 50, 107
3, 38256, Note_on_c, 1, 50, 0
3, 38280, Note_on_c, 1, 52, 107
3, 38376, Note_on_c, 1, 52, 0
3, 38400, Note_on_c, 1, 53, 107
3, 38496, Note_on_c, 1, 53, 0
3, 38520, Note_on_c, 1, 55, 107
3, 38616, Note_on_c, 1, 55, 0
3, 38640, Note_on_c, 1, 57, 107
3, 38736, Note_on_c, 1, 57, 0
3, 38760, Note_on_c, 1, 58, 107
3, 38856, Note_on_c, 1, 58, 0
3, 38880, Note_on_c, 1, 55, 107
3, 38976, Note_on_c, 1, 55, 0
3, 39000, Note_on_c, 1, 57, 107
3, 39096, Note_on_c, 1, 57, 0
3, 39120, Note_on_c, 1, 55, 107
3, 39216, Note_on_c, 1, 55, 0
3, 39240, Note_on_c, 1, 58, 107
3, 39336, Note_on_c, 1, 58, 0
3, 39360, Note_on_c, 1, 57, 107
3, 39456, Note_on_c, 1, 57, 0
3, 39480, Note_on_c, 1, 55, 107
3, 39576, Note_on_c, 1, 55, 0
3, 39600, Note_on_c, 1, 53, 107
3, 39696, Note_on_c, 1, 53, 0
3, 39720, Note_on_c, 1, 52, 107
3, 39816, Note_on_c, 1, 52, 0
3, 39840, Note_on_c, 1, 50, 107
3, 39936, Note_on_c, 1, 50, 0
3, 39960, Note_on_c, 1, 49, 107
3, 40056, Note_on_c, 1, 49, 0
3, 40080, Note_on_c, 1, 47, 107
3, 40176, Note_on_c, 1, 47, 0
3, 40200, Note_on_c, 1, 49, 107
3, 40296, Note_on_c, 1, 49, 0
3, 40320, Note_on_c, 1, 45, 107
3, 40416, Note_on_c, 1, 45, 0
3, 40440, Note_on_c, 1, 50, 107
3, 40632, Note_on_c, 1, 50, 0
3, 40680, Note_on_c, 1, 58, 107
3, 40872, Note_on_c, 1, 58, 0
3, 40920, Note_on_c, 1, 53, 107
3, 41112, Note_on_c, 1, 53, 0
3, 41160, Note_on_c, 1, 55, 107
3, 41352, Note_on_c, 1, 55, 0
3, 41400, Note_on_c, 1, 57, 107
3, 41592, Note_on_c, 1, 57, 0
3, 41640, Note_on_c, 1, 45, 107
3, 41832, Note_on_c, 1, 45, 0
3, 41880, Note_on_c, 1, 38, 107
3, 42072, Note_on_c, 1, 38, 0
3, 42120, Note_on_c, 1, 57, 107
3, 42216, Note_on_c, 1, 57, 0
3, 42240, Note_on_c, 1, 55, 107
3, 42336, Note_on_c, 1, 55, 0
3, 42360, Note_on_c, 1, 53, 107
3, 42456, Note_on_c, 1, 53, 0
3, 42480, Note_on_c, 1, 52, 107
3, 42576, Note_on_c, 1, 52, 0
3, 42600, Note_on_c, 1, 50, 107
3, 42696, Note_on_c, 1, 50, 0
3, 42720, Note_on_c, 1, 48, 107
3, 42816, Note_on_c, 1, 48, 0
3, 42840, Note_on_c, 1, 47, 107
3, 42936, Note_on_c, 1, 47, 0
3, 42960, Note_on_c, 1, 45, 107
3, 43056, Note_on_c, 1, 45, 0
3, 43080, Note_on_c, 1, 43, 107
3, 43176, Note_on_c, 1, 43, 0
3, 43200, Note_on_c, 1, 41, 107
3, 43296, Note_on_c, 1, 41, 0
3, 43320, Note_on_c, 1, 40, 107
3, 43416, Note_on_c, 1, 40, 0
3, 43440, Note_on_c, 1, 43, 107
3, 43536, Note_on_c, 1, 43, 0
3, 43560, Note_on_c, 1, 45, 107
3, 43656, Note_on_c, 1, 45, 0
3, 43680, Note_on_c, 1, 47, 107
3, 43776, Note_on_c, 1, 47, 0
3, 43800, Note_on_c, 1, 48, 107
3, 43896, Note_on_c, 1, 48, 0
3, 43920, Note_on_c, 1, 50, 107
3, 44016, Note_on_c, 1, 50, 0
3, 44040, Note_on_c, 1, 52, 107
3, 44136, Note_on_c, 1, 52, 0
3, 44160, Note_on_c, 1, 54, 107
3, 44256, Note_on_c, 1, 54, 0
3, 44280, Note_on_c, 1, 55, 107
3, 44376, Note_on_c, 1, 55, 0
3, 44400, Note_on_c, 1, 54, 107
3, 44496, Note_on_c, 1, 54, 0
3, 44520, Note_on_c, 1, 52, 107
3, 44616, Note_on_c, 1, 52, 0
3, 44640, Note_on_c, 1, 50, 107
3, 44736, Note_on_c, 1, 50, 0
3, 44760, Note_on_c, 1, 55, 107
3, 44952, Note_on_c, 1, 55, 0
3, 45000, Note_on_c, 1, 53, 107
3, 45192, Note_on_c, 1, 53, 0
3, 45240, Note_on_c, 1, 52, 107
3, 45432, Note_on_c, 1, 52, 0
3, 45480, Note_on_c, 1, 50, 107
3, 45672, Note_on_c, 1, 50, 0
3, 45720, Note_on_c, 1, 48, 107
3, 45912, Note_on_c, 1, 48, 0
3, 45960, Note_on_c, 1, 45, 107
3, 46152, Note_on_c, 1, 45, 0
3, 46200, Note_on_c, 1, 50, 107
3, 46392, Note_on_c, 1, 50, 0
3, 46440, Note_on_c, 1, 52, 107
3, 46632, Note_on_c, 1, 52, 0
3, 46680, Note_on_c, 1, 50, 107
3, 46872, Note_on_c, 1, 50, 0
3, 46920, Note_on_c, 1, 48, 107
3, 47112, Note_on_c, 1, 48, 0
3, 47160, Note_on_c, 1, 47, 107
3, 47352, Note_on_c, 1, 47, 0
3, 47400, Note_on_c, 1, 48, 107
3, 47496, Note_on_c, 1, 48, 0
3, 47520, Note_on_c, 1, 50, 107
3, 47616, Note_on_c, 1, 50, 0
3, 47640, Note_on_c, 1, 52, 107
3, 47736, Note_on_c, 1, 52, 0
3, 47760, Note_on_c, 1, 50, 107
3, 47856, Note_on_c, 1, 50, 0
3, 47880, Note_on_c, 1, 53, 107
3, 47976, Note_on_c, 1, 53, 0
3, 48000, Note_on_c, 1, 52, 107
3, 48096, Note_on_c, 1, 52, 0
3, 48120, Note_on_c, 1, 50, 107
3, 48216, Note_on_c, 1, 50, 0
3, 48240, Note_on_c, 1, 48, 107
3, 48336, Note_on_c, 1, 48, 0
3, 48360, Note_on_c, 1, 47, 107
3, 48456, Note_on_c, 1, 47, 0
3, 48480, Note_on_c, 1, 45, 107
3, 48576, Note_on_c, 1, 45, 0
3, 48600, Note_on_c, 1, 50, 107
3, 48792, Note_on_c, 1, 50, 0
3, 48840, Note_on_c, 1, 52, 107
3, 49032, Note_on_c, 1, 52, 0
3, 49080, Note_on_c, 1, 53, 107
3, 49176, Note_on_c, 1, 53, 0
3, 49200, Note_on_c, 1, 49, 107
3, 49296, Note_on_c, 1, 49, 0
3, 49320, Note_on_c, 1, 50, 107
3, 49416, Note_on_c, 1, 50, 0
3, 49440, Note_on_c, 1, 57, 107
3, 49536, Note_on_c, 1, 57, 0
3, 49560, Note_on_c, 1, 56, 107
3, 49656, Note_on_c, 1, 56, 0
3, 49680, Note_on_c, 1, 52, 107
3, 49776, Note_on_c, 1, 52, 0
3, 49800, Note_on_c, 1, 57, 107
3, 49896, Note_on_c, 1, 57, 0
3, 49920, Note_on_c, 1, 50, 107
3, 50016, Note_on_c, 1, 50, 0
3, 50040, Note_on_c, 1, 52, 107
3, 50232, Note_on_c, 1, 52, 0
3, 50280, Note_on_c, 1, 40, 107
3, 50472, Note_on_c, 1, 40, 0
3, 50520, Note_on_c, 1, 45, 107
3, 50760, Note_on_c, 1, 48, 107
3, 50952, Note_on_c, 1, 48, 0
3, 51000, Note_on_c, 1, 52, 107
3, 51192, Note_on_c, 1, 52, 0
3, 51240, Note_on_c, 1, 57, 107
3, 51624, Note_on_c, 1, 57, 0
3, 51624, Note_on_c, 1, 45, 0
3, 51960, Note_on_c, 1, 48, 107
3, 52152, Note_on_c, 1, 48, 0
3, 52200, Note_on_c, 1, 50, 107
3, 52392, Note_on_c, 1, 50, 0
3, 52440, Note_on_c, 1, 52, 107
3, 52632, Note_on_c, 1, 52, 0
3, 52680, Note_on_c, 1, 48, 107
3, 52872, Note_on_c, 1, 48, 0
3, 52920, Note_on_c, 1, 50, 107
3, 53112, Note_on_c, 1, 50, 0
3, 53160, Note_on_c, 1, 47, 107
3, 53352, Note_on_c, 1, 47, 0
3, 53400, Note_on_c, 1, 52, 107
3, 53496, Note_on_c, 1, 52, 0
3, 53520, Note_on_c, 1, 50, 107
3, 53616, Note_on_c, 1, 50, 0
3, 53640, Note_on_c, 1, 53, 107
3, 53736, Note_on_c, 1, 53, 0
3, 53760, Note_on_c, 1, 52, 107
3, 53856, Note_on_c, 1, 52, 0
3, 53880, Note_on_c, 1, 50, 107
3, 53976, Note_on_c, 1, 50, 0
3, 54000, Note_on_c, 1, 48, 107
3, 54096, Note_on_c, 1, 48, 0
3, 54120, Note_on_c, 1, 47, 107
3, 54216, Note_on_c, 1, 47, 0
3, 54240, Note_on_c, 1, 45, 107
3, 54336, Note_on_c, 1, 45, 0
3, 54360, Note_on_c, 1, 44, 107
3, 54456, Note_on_c, 1, 44, 0
3, 54480, Note_on_c, 1, 42, 107
3, 54576, Note_on_c, 1, 42, 0
3, 54600, Note_on_c, 1, 44, 107
3, 54696, Note_on_c, 1, 44, 0
3, 54720, Note_on_c, 1, 40, 107
3, 54816, Note_on_c, 1, 40, 0
3, 54840, Note_on_c, 1, 45, 107
3, 54936, Note_on_c, 1, 45, 0
3, 54960, Note_on_c, 1, 44, 107
3, 55056, Note_on_c, 1, 44, 0
3, 55080, Note_on_c, 1, 45, 107
3, 55176, Note_on_c, 1, 45, 0
3, 55200, Note_on_c, 1, 47, 107
3, 55296, Note_on_c, 1, 47, 0
3, 55320, Note_on_c, 1, 48, 107
3, 55416, Note_on_c, 1, 48, 0
3, 55440, Note_on_c, 1, 50, 107
3, 55536, Note_on_c, 1, 50, 0
3, 55560, Note_on_c, 1, 52, 107
3, 55656, Note_on_c, 1, 52, 0
3, 55680, Note_on_c, 1, 53, 107
3, 55776, Note_on_c, 1, 53, 0
3, 55800, Note_on_c, 1, 55, 107
3, 55896, Note_on_c, 1, 55, 0
3, 55920, Note_on_c, 1, 57, 107
3, 56016, Note_on_c, 1, 57, 0
3, 56040, Note_on_c, 1, 58, 107
3, 56136, Note_on_c, 1, 58, 0
3, 56160, Note_on_c, 1, 55, 107
3, 56256, Note_on_c, 1, 55, 0
3, 56280, Note_on_c, 1, 57, 107
3, 56376, Note_on_c, 1, 57, 0
3, 56400, Note_on_c, 1, 55, 107
3, 56496, Note_on_c, 1, 55, 0
3, 56520, Note_on_c, 1, 58, 107
3, 56616, Note_on_c, 1, 58, 0
3, 56640, Note_on_c, 1, 57, 107
3, 56736, Note_on_c, 1, 57, 0
3, 56760, Note_on_c, 1, 55, 107
3, 56856, Note_on_c, 1, 55, 0
3, 56880, Note_on_c, 1, 53, 107
3, 56976, Note_on_c, 1, 53, 0
3, 57000, Note_on_c, 1, 52, 107
3, 57096, Note_on_c, 1, 52, 0
3, 57120, Note_on_c, 1, 50, 107
3, 57216, Note_on_c, 1, 50, 0
3, 57240, Note_on_c, 1, 49, 107
3, 57336, Note_on_c, 1, 49, 0
3, 57360, Note_on_c, 1, 47, 107
3, 57456, Note_on_c, 1, 47, 0
3, 57480, Note_on_c, 1, 49, 107
3, 57576, Note_on_c, 1, 49, 0
3, 57600, Note_on_c, 1, 45, 107
3, 57696, Note_on_c, 1, 45, 0
3, 57720, Note_on_c, 1, 50, 107
3, 57912, Note_on_c, 1, 50, 0
3, 57960, Note_on_c, 1, 58, 107
3, 58152, Note_on_c, 1, 58, 0
3, 58200, Note_on_c, 1, 53, 107
3, 58392, Note_on_c, 1, 53, 0
3, 58440, Note_on_c, 1, 55, 107
3, 58632, Note_on_c, 1, 55, 0
3, 58680, Note_on_c, 1, 57, 107
3, 58872, Note_on_c, 1, 57, 0
3, 58920, Note_on_c, 1, 45, 107
3, 59112, Note_on_c, 1, 45, 0
3, 59160, Note_on_c, 1, 38, 107
3, 59352, Note_on_c, 1, 38, 0
3, 59400, Note_on_c, 1, 57, 107
3, 59496, Note_on_c, 1, 57, 0
3, 59520, Note_on_c, 1, 55, 107
3, 59616, Note_on_c, 1, 55, 0
3, 59640, Note_on_c, 1, 53, 107
3, 59736, Note_on_c, 1, 53, 0
3, 59760, Note_on_c, 1, 52, 107
3, 59856, Note_on_c, 1, 52, 0
3, 59880, Note_on_c, 1, 50, 107
3, 59976, Note_on_c, 1, 50, 0
3, 60000, Note_on_c, 1, 48, 107
3, 60096, Note_on_c, 1, 48, 0
3, 60120, Note_on_c, 1, 47, 107
3, 60216, Note_on_c, 1, 47, 0
3, 60240, Note_on_c, 1, 45, 107
3, 60336, Note_on_c, 1, 45, 0
3, 60360, Note_on_c, 1, 43, 107
3, 60456, Note_on_c, 1, 43, 0
3, 60480, Note_on_c, 1, 41, 107
3, 60576, Note_on_c, 1, 41, 0
3, 60600, Note_on_c, 1, 40, 107
3, 60696, Note_on_c, 1, 40, 0
3, 60720, Note_on_c, 1, 43, 107
3, 60816, Note_on_c, 1, 43, 0
3, 60840, Note_on_c, 1, 45, 107
3, 60936, Note_on_c, 1, 45, 0
3, 60960, Note_on_c, 1, 47, 107
3, 61056, Note_on_c, 1, 47, 0
3, 61080, Note_on_c, 1, 48, 107
3, 61176, Note_on_c, 1, 48, 0
3, 61200, Note_on_c, 1, 50, 107
3, 61296, Note_on_c, 1, 50, 0
3, 61320, Note_on_c, 1, 52, 107
3, 61416, Note_on_c, 1, 52, 0
3, 61440, Note_on_c, 1, 54, 107
3, 61536, Note_on_c, 1, 54, 0
3, 61560, Note_on_c, 1, 55, 107
3, 61656, Note_on_c, 1, 55, 0
3, 61680, Note_on_c, 1, 54, 107
3, 61776, Note_on_c, 1, 54, 0
3, 61800, Note_on_c, 1, 52, 107
3, 61896, Note_on_c, 1, 52, 0
3, 61920, Note_on_c, 1, 50, 107
3, 62016, Note_on_c, 1, 50, 0
3, 62040, Note_on_c, 1, 55, 107
3, 62232, Note_on_c, 1, 55, 0
3, 62280, Note_on_c, 1, 53, 107
3, 62472, Note_on_c, 1, 53, 0
3, 62520, Note_on_c, 1, 52, 107
3, 62712, Note_on_c, 1, 52, 0
3, 62760, Note_on_c, 1, 50, 107
3, 62952, Note_on_c, 1, 50, 0
3, 63000, Note_on_c, 1, 48, 107
3, 63192, Note_on_c, 1, 48, 0
3, 63240, Note_on_c, 1, 45, 107
3, 63432, Note_on_c, 1, 45, 0
3, 63480, Note_on_c, 1, 50, 107
3, 63672, Note_on_c, 1, 50, 0
3, 63720, Note_on_c, 1, 52, 107
3, 63912, Note_on_c, 1, 52, 0
3, 63960, Note_on_c, 1, 50, 107
3, 64152, Note_on_c, 1, 50, 0
3, 64200, Note_on_c, 1, 48, 107
3, 64392, Note_on_c, 1, 48, 0
3, 64440, Note_on_c, 1, 47, 107
3, 64632, Note_on_c, 1, 47, 0
3, 64680, Note_on_c, 1, 48, 107
3, 64776, Note_on_c, 1, 48, 0
3, 64800, Note_on_c, 1, 50, 107
3, 64896, Note_on_c, 1, 50, 0
3, 64920, Note_on_c, 1, 52, 107
3, 65016, Note_on_c, 1, 52, 0
3, 65040, Note_on_c, 1, 50, 107
3, 65136, Note_on_c, 1, 50, 0
3, 65160, Note_on_c, 1, 53, 107
3, 65256, Note_on_c, 1, 53, 0
3, 65280, Note_on_c, 1, 52, 107
3, 65376, Note_on_c, 1, 52, 0
3, 65400, Note_on_c, 1, 50, 107
3, 65496, Note_on_c, 1, 50, 0
3, 65520, Note_on_c, 1, 48, 107
3, 65616, Note_on_c, 1, 48, 0
3, 65640, Note_on_c, 1, 47, 107
3, 65736, Note_on_c, 1, 47, 0
3, 65760, Note_on_c, 1, 45, 107
3, 65856, Note_on_c, 1, 45, 0
3, 65880, Note_on_c, 1, 50, 107
3, 66072, Note_on_c, 1, 50, 0
3, 66120, Note_on_c, 1, 52, 107
3, 66312, Note_on_c, 1, 52, 0
3, 66360, Note_on_c, 1, 53, 107
3, 66456, Note_on_c, 1, 53, 0
3, 66480, Note_on_c, 1, 49, 107
3, 66576, Note_on_c, 1, 49, 0
3, 66600, Note_on_c, 1, 50, 107
3, 66696, Note_on_c, 1, 50, 0
3, 66720, Note_on_c, 1, 57, 107
3, 66816, Note_on_c, 1, 57, 0
3, 66840, Note_on_c, 1, 56, 107
3, 66936, Note_on_c, 1, 56, 0
3, 66960, Note_on_c, 1, 52, 107
3, 67056, Note_on_c, 1, 52, 0
3, 67080, Note_on_c, 1, 57, 107
3, 67176, Note_on_c, 1, 57, 0
3, 67200, Note_on_c, 1, 50, 107
3, 67296, Note_on_c, 1, 50, 0
3, 67320, Note_on_c, 1, 52, 107
3, 67512, Note_on_c, 1, 52, 0
3, 67560, Note_on_c, 1, 40, 107
3, 67752, Note_on_c, 1, 40, 0
3, 67800, Note_on_c, 1, 45, 107
3, 68040, Note_on_c, 1, 48, 107
3, 68232, Note_on_c, 1, 48, 0
3, 68280, Note_on_c, 1, 52, 107
3, 68472, Note_on_c, 1, 52, 0
3, 68520, Note_on_c, 1, 57, 107
3, 68904, Note_on_c, 1, 57, 0
3, 68904, Note_on_c, 1, 45, 0
3, 68904, End_track
4, 0, Start_track
4, 0, MIDI_port, 0
4, 0, Title_t, "Arr. Gary Bricault, (c) 1997"
4, 0, End_track
0, 0, End_of_file
