0, 0, Header, 1, 3, 384
1, 0, Start_track
1, 0, Tempo, 500000
1, 0, Time_signature, 4, 2, 24, 8
1, 213504, End_track
2, 0, Start_track
2, 0, Text_t, "harpsichord: John Sankey"
2, 0, Program_c, 0, 6
2, 0, Pitch_bend_c, 0, 8192
2, 0, Program_c, 1, 6
2, 0, Pitch_bend_c, 1, 7792
2, 0, Program_c, 2, 6
2, 0, Pitch_bend_c, 2, 7876
2, 0, Program_c, 3, 6
2, 0, Pitch_bend_c, 3, 7952
2, 0, Program_c, 4, 6
2, 0, Pitch_bend_c, 4, 7792
2, 0, Program_c, 5, 6
2, 0, Pitch_bend_c, 5, 8112
2, 0, Program_c, 6, 6
2, 0, Pitch_bend_c, 6, 7712
2, 0, Program_c, 7, 6
2, 0, Pitch_bend_c, 7, 8037
2, 0, Program_c, 8, 6
2, 0, Pitch_bend_c, 8, 7872
2, 0, Program_c, 10, 6
2, 0, Pitch_bend_c, 10, 7712
2, 0, Program_c, 11, 6
2, 0, Pitch_bend_c, 11, 8032
2, 0, Program_c, 12, 6
2, 0, Pitch_bend_c, 12, 7872
2, 0, Title_t, "Track 1"
2, 96, Note_on_c, 0, 72, 127
2, 580, Note_off_c, 0, 72, 127
2, 602, Note_on_c, 5, 77, 127
2, 692, Note_on_c, 4, 76, 127
2, 697, Note_off_c, 5, 77, 127
2, 781, Note_on_c, 5, 77, 127
2, 788, Note_off_c, 4, 76, 127
2, 1101, Note_off_c, 5, 77, 127
2, 1109, Note_on_c, 0, 72, 127
2, 1614, Note_off_c, 0, 72, 127
2, 1615, Note_on_c, 5, 53, 127
2, 1615, Note_on_c, 0, 72, 127
2, 1899, Note_off_c, 0, 72, 127
2, 1908, Note_on_c, 2, 74, 127
2, 1981, Note_on_c, 0, 72, 127
2, 1983, Note_off_c, 2, 74, 127
2, 2043, Note_off_c, 0, 72, 127
2, 2059, Note_on_c, 2, 74, 127
2, 2121, Note_off_c, 5, 53, 127
2, 2122, Note_on_c, 11, 58, 127
2, 2362, Note_off_c, 2, 74, 127
2, 2375, Note_on_c, 0, 72, 127
2, 2627, Note_off_c, 0, 72, 127
2, 2627, Note_off_c, 11, 58, 127
2, 2628, Note_on_c, 5, 53, 127
2, 2628, Note_on_c, 2, 74, 127
2, 2740, Note_off_c, 2, 74, 127
2, 2741, Note_on_c, 0, 72, 127
2, 2853, Note_off_c, 0, 72, 127
2, 2854, Note_on_c, 2, 74, 127
2, 2992, Note_off_c, 2, 74, 127
2, 2997, Note_on_c, 3, 75, 127
2, 3124, Note_off_c, 3, 75, 127
2, 3132, Note_off_c, 5, 53, 127
2, 3133, Note_on_c, 10, 57, 127
2, 3133, Note_on_c, 2, 74, 127
2, 3133, Note_on_c, 0, 60, 127
2, 3195, Note_off_c, 2, 74, 127
2, 3196, Note_on_c, 0, 72, 127
2, 3258, Note_off_c, 0, 72, 127
2, 3259, Note_on_c, 2, 74, 127
2, 3321, Note_off_c, 2, 74, 127
2, 3322, Note_on_c, 0, 72, 127
2, 3384, Note_off_c, 0, 72, 127
2, 3385, Note_on_c, 2, 74, 127
2, 3447, Note_off_c, 2, 74, 127
2, 3448, Note_on_c, 0, 72, 127
2, 3510, Note_off_c, 0, 72, 127
2, 3511, Note_on_c, 2, 74, 127
2, 3573, Note_off_c, 2, 74, 127
2, 3574, Note_on_c, 0, 72, 127
2, 3632, Note_off_c, 0, 60, 127
2, 3636, Note_off_c, 0, 72, 127
2, 3637, Note_on_c, 5, 65, 127
2, 3637, Note_on_c, 2, 74, 127
2, 3699, Note_off_c, 2, 74, 127
2, 3700, Note_on_c, 0, 72, 127
2, 3889, Note_off_c, 0, 72, 127
2, 3890, Note_on_c, 11, 70, 127
2, 4138, Note_off_c, 5, 65, 127
2, 4142, Note_off_c, 11, 70, 127
2, 4142, Note_off_c, 10, 57, 127
2, 4143, Note_on_c, 10, 57, 127
2, 4143, Note_on_c, 0, 60, 127
2, 4143, Note_on_c, 0, 72, 127
2, 4211, Note_on_c, 11, 70, 127
2, 4212, Note_off_c, 0, 72, 127
2, 4280, Note_off_c, 11, 70, 127
2, 4280, Note_on_c, 0, 72, 127
2, 4424, Note_off_c, 0, 72, 127
2, 4424, Note_on_c, 2, 74, 127
2, 4644, Note_off_c, 0, 60, 127
2, 4645, Note_off_c, 2, 74, 127
2, 4648, Note_off_c, 10, 57, 127
2, 4649, Note_on_c, 7, 55, 127
2, 4649, Note_on_c, 0, 72, 127
2, 4649, Note_on_c, 2, 62, 127
2, 4774, Note_off_c, 0, 72, 127
2, 4775, Note_on_c, 11, 70, 127
2, 4837, Note_off_c, 11, 70, 127
2, 4838, Note_on_c, 0, 72, 127
2, 4900, Note_off_c, 0, 72, 127
2, 4901, Note_on_c, 11, 70, 127
2, 4963, Note_off_c, 11, 70, 127
2, 4964, Note_on_c, 0, 72, 127
2, 5026, Note_off_c, 0, 72, 127
2, 5027, Note_on_c, 11, 70, 127
2, 5089, Note_off_c, 11, 70, 127
2, 5090, Note_on_c, 0, 72, 127
2, 5148, Note_off_c, 2, 62, 127
2, 5152, Note_off_c, 0, 72, 127
2, 5152, Note_off_c, 7, 55, 127
2, 5153, Note_on_c, 0, 60, 127
2, 5153, Note_on_c, 4, 64, 127
2, 5153, Note_on_c, 11, 70, 127
2, 5404, Note_off_c, 11, 70, 127
2, 5407, Note_on_c, 10, 69, 127
2, 5659, Note_off_c, 10, 69, 127
2, 5659, Note_off_c, 0, 60, 127
2, 5660, Note_on_c, 0, 48, 127
2, 5660, Note_on_c, 11, 70, 127
2, 5722, Note_off_c, 11, 70, 127
2, 5723, Note_on_c, 10, 69, 127
2, 5785, Note_off_c, 10, 69, 127
2, 5786, Note_on_c, 11, 70, 127
2, 5911, Note_off_c, 11, 70, 127
2, 5912, Note_on_c, 0, 72, 127
2, 6164, Note_off_c, 0, 72, 127
2, 6164, Note_off_c, 0, 48, 127
2, 6164, Note_off_c, 4, 64, 127
2, 6165, Note_on_c, 5, 53, 127
2, 6165, Note_on_c, 0, 60, 127
2, 6165, Note_on_c, 11, 70, 127
2, 6218, Note_off_c, 11, 70, 127
2, 6218, Note_on_c, 10, 69, 127
2, 6271, Note_off_c, 10, 69, 127
2, 6271, Note_on_c, 11, 70, 127
2, 6324, Note_off_c, 11, 70, 127
2, 6324, Note_on_c, 10, 69, 127
2, 6377, Note_off_c, 10, 69, 127
2, 6377, Note_on_c, 11, 70, 127
2, 6430, Note_off_c, 11, 70, 127
2, 6433, Note_on_c, 10, 69, 127
2, 6655, Note_off_c, 10, 69, 127
2, 6668, Note_off_c, 0, 60, 127
2, 6673, Note_on_c, 5, 65, 127
2, 7178, Note_off_c, 5, 65, 127
2, 7179, Note_on_c, 10, 57, 127
2, 7179, Note_on_c, 5, 65, 127
2, 7684, Note_off_c, 5, 65, 127
2, 7684, Note_off_c, 10, 57, 127
2, 7685, Note_on_c, 0, 60, 127
2, 7685, Note_on_c, 2, 74, 127
2, 7685, Note_on_c, 7, 67, 127
2, 7747, Note_off_c, 0, 60, 127
2, 7748, Note_on_c, 12, 59, 127
2, 7810, Note_off_c, 12, 59, 127
2, 7811, Note_on_c, 0, 60, 127
2, 7873, Note_off_c, 0, 60, 127
2, 7874, Note_on_c, 12, 59, 127
2, 7936, Note_off_c, 12, 59, 127
2, 7937, Note_on_c, 0, 60, 127
2, 7999, Note_off_c, 0, 60, 127
2, 8000, Note_on_c, 12, 59, 127
2, 8062, Note_off_c, 12, 59, 127
2, 8063, Note_on_c, 0, 60, 127
2, 8125, Note_off_c, 0, 60, 127
2, 8126, Note_on_c, 12, 59, 127
2, 8188, Note_off_c, 12, 59, 127
2, 8188, Note_off_c, 2, 74, 127
2, 8189, Note_on_c, 0, 60, 127
2, 8189, Note_on_c, 7, 79, 127
2, 8251, Note_off_c, 0, 60, 127
2, 8252, Note_on_c, 12, 59, 127
2, 8314, Note_off_c, 12, 59, 127
2, 8315, Note_on_c, 0, 60, 127
2, 8377, Note_off_c, 0, 60, 127
2, 8378, Note_on_c, 12, 59, 127
2, 8440, Note_off_c, 12, 59, 127
2, 8441, Note_on_c, 0, 60, 127
2, 8503, Note_off_c, 0, 60, 127
2, 8504, Note_on_c, 12, 59, 127
2, 8566, Note_off_c, 12, 59, 127
2, 8567, Note_on_c, 0, 60, 127
2, 8629, Note_off_c, 0, 60, 127
2, 8630, Note_on_c, 12, 59, 127
2, 8692, Note_off_c, 12, 59, 127
2, 8692, Note_off_c, 7, 79, 127
2, 8692, Note_off_c, 7, 67, 127
2, 8693, Note_off_c, 5, 53, 127
2, 8693, Note_on_c, 0, 60, 127
2, 8693, Note_on_c, 4, 52, 127
2, 8693, Note_on_c, 7, 67, 127
2, 8755, Note_off_c, 7, 67, 127
2, 8756, Note_on_c, 5, 65, 127
2, 8818, Note_off_c, 5, 65, 127
2, 8819, Note_on_c, 7, 67, 127
2, 9197, Note_off_c, 7, 67, 127
2, 9197, Note_off_c, 4, 52, 127
2, 9197, Note_off_c, 0, 60, 127
2, 9198, Note_on_c, 5, 53, 127
2, 9198, Note_on_c, 7, 67, 127
2, 9451, Note_on_c, 10, 57, 127
2, 9451, Note_on_c, 10, 69, 127
2, 9699, Note_off_c, 7, 67, 127
2, 9703, Note_off_c, 10, 57, 127
2, 9704, Note_on_c, 2, 62, 127
2, 9704, Note_on_c, 5, 65, 127
2, 9952, Note_off_c, 10, 69, 127
2, 9957, Note_on_c, 2, 74, 127
2, 10209, Note_off_c, 2, 74, 127
2, 10210, Note_on_c, 10, 69, 127
2, 10462, Note_off_c, 10, 69, 127
2, 10463, Note_on_c, 12, 71, 127
2, 10714, Note_off_c, 5, 53, 127
2, 10715, Note_off_c, 12, 71, 127
2, 10715, Note_off_c, 5, 65, 127
2, 10715, Note_off_c, 2, 62, 127
2, 10716, Note_on_c, 0, 60, 127
2, 10716, Note_on_c, 10, 57, 127
2, 10716, Note_on_c, 6, 66, 127
2, 10716, Note_on_c, 0, 72, 127
2, 11221, Note_off_c, 0, 72, 127
2, 11221, Note_off_c, 6, 66, 127
2, 11221, Note_off_c, 10, 57, 127
2, 11221, Note_off_c, 0, 60, 127
2, 11222, Note_on_c, 7, 55, 127
2, 11222, Note_on_c, 2, 62, 127
2, 11222, Note_on_c, 7, 67, 127
2, 11222, Note_on_c, 2, 74, 127
2, 11347, Note_off_c, 2, 74, 127
2, 11348, Note_on_c, 0, 72, 127
2, 11410, Note_off_c, 0, 72, 127
2, 11411, Note_on_c, 2, 74, 127
2, 11473, Note_off_c, 2, 74, 127
2, 11474, Note_on_c, 0, 72, 127
2, 11536, Note_off_c, 0, 72, 127
2, 11537, Note_on_c, 2, 74, 127
2, 11599, Note_off_c, 2, 74, 127
2, 11600, Note_on_c, 0, 72, 127
2, 11662, Note_off_c, 0, 72, 127
2, 11663, Note_on_c, 2, 74, 127
2, 11725, Note_off_c, 2, 74, 127
2, 11725, Note_off_c, 2, 62, 127
2, 11725, Note_off_c, 7, 55, 127
2, 11726, Note_on_c, 7, 43, 127
2, 11726, Note_on_c, 0, 72, 127
2, 11979, Note_on_c, 12, 71, 127
2, 11983, Note_off_c, 0, 72, 127
2, 12231, Note_off_c, 12, 71, 127
2, 12231, Note_off_c, 7, 43, 127
2, 12231, Note_off_c, 7, 67, 127
2, 12232, Note_on_c, 0, 48, 127
2, 12232, Note_on_c, 7, 55, 127
2, 12232, Note_on_c, 0, 72, 127
2, 12232, Note_on_c, 4, 64, 127
2, 12294, Note_off_c, 0, 72, 127
2, 12295, Note_on_c, 12, 71, 127
2, 12357, Note_off_c, 12, 71, 127
2, 12358, Note_on_c, 0, 72, 127
2, 12736, Note_off_c, 7, 55, 127
2, 12737, Note_on_c, 0, 60, 127
2, 12989, Note_off_c, 0, 48, 127
2, 12990, Note_on_c, 2, 50, 127
2, 13238, Note_off_c, 0, 60, 127
2, 13241, Note_off_c, 0, 72, 127
2, 13242, Note_off_c, 2, 50, 127
2, 13242, Note_off_c, 4, 64, 127
2, 13243, Note_on_c, 4, 52, 127
2, 13243, Note_on_c, 7, 55, 127
2, 13495, Note_off_c, 4, 52, 127
2, 13496, Note_on_c, 2, 50, 127
2, 13744, Note_off_c, 7, 55, 127
2, 13748, Note_off_c, 2, 50, 127
2, 13749, Note_on_c, 0, 48, 127
2, 13749, Note_on_c, 10, 57, 127
2, 13848, Note_on_c, 7, 55, 127
2, 13855, Note_off_c, 10, 57, 127
2, 13947, Note_on_c, 10, 57, 127
2, 13951, Note_off_c, 7, 55, 127
2, 14250, Note_off_c, 0, 48, 127
2, 14255, Note_on_c, 5, 53, 127
2, 14508, Note_on_c, 7, 55, 127
2, 14515, Note_off_c, 10, 57, 127
2, 14756, Note_off_c, 5, 53, 127
2, 14760, Note_off_c, 7, 55, 127
2, 14761, Note_on_c, 10, 45, 127
2, 14761, Note_on_c, 10, 57, 127
2, 14866, Note_off_c, 10, 57, 127
2, 14866, Note_on_c, 7, 55, 127
2, 14971, Note_off_c, 7, 55, 127
2, 14971, Note_on_c, 10, 57, 127
2, 15094, Note_off_c, 10, 57, 127
2, 15107, Note_on_c, 11, 58, 127
2, 15261, Note_off_c, 10, 45, 127
2, 15266, Note_on_c, 10, 57, 127
2, 15266, Note_on_c, 12, 47, 127
2, 15269, Note_off_c, 11, 58, 127
2, 15328, Note_off_c, 10, 57, 127
2, 15329, Note_on_c, 7, 55, 127
2, 15391, Note_off_c, 7, 55, 127
2, 15392, Note_on_c, 10, 57, 127
2, 15454, Note_off_c, 10, 57, 127
2, 15455, Note_on_c, 7, 55, 127
2, 15517, Note_off_c, 7, 55, 127
2, 15518, Note_on_c, 10, 57, 127
2, 15580, Note_off_c, 10, 57, 127
2, 15581, Note_on_c, 7, 55, 127
2, 15643, Note_off_c, 7, 55, 127
2, 15644, Note_on_c, 10, 57, 127
2, 15706, Note_off_c, 10, 57, 127
2, 15707, Note_on_c, 7, 55, 127
2, 15765, Note_off_c, 12, 47, 127
2, 15770, Note_on_c, 1, 49, 127
2, 16019, Note_off_c, 7, 55, 127
2, 16023, Note_on_c, 5, 53, 127
2, 16271, Note_off_c, 1, 49, 127
2, 16275, Note_off_c, 5, 53, 127
2, 16276, Note_on_c, 10, 45, 127
2, 16276, Note_on_c, 7, 55, 127
2, 16381, Note_off_c, 7, 55, 127
2, 16381, Note_on_c, 5, 53, 127
2, 16486, Note_off_c, 5, 53, 127
2, 16486, Note_on_c, 7, 55, 127
2, 16611, Note_off_c, 7, 55, 127
2, 16612, Note_on_c, 10, 57, 127
2, 16770, Note_off_c, 10, 57, 127
2, 16775, Note_off_c, 10, 45, 127
2, 16780, Note_on_c, 2, 50, 127
2, 16780, Note_on_c, 5, 53, 127
2, 16780, Note_on_c, 10, 57, 127
2, 17281, Note_off_c, 2, 50, 127
2, 17285, Note_off_c, 10, 57, 127
2, 17286, Note_on_c, 2, 62, 127
2, 17538, Note_off_c, 5, 53, 127
2, 17539, Note_on_c, 4, 52, 127
2, 17791, Note_off_c, 4, 52, 127
2, 17791, Note_off_c, 2, 62, 127
2, 17792, Note_on_c, 5, 53, 127
2, 17792, Note_on_c, 2, 50, 127
2, 17792, Note_on_c, 10, 57, 127
2, 18044, Note_off_c, 5, 53, 127
2, 18045, Note_on_c, 7, 55, 127
2, 18293, Note_off_c, 2, 50, 127
2, 18297, Note_off_c, 7, 55, 127
2, 18297, Note_off_c, 10, 57, 127
2, 18298, Note_on_c, 10, 45, 127
2, 18298, Note_on_c, 4, 52, 127
2, 18298, Note_on_c, 0, 60, 127
2, 18403, Note_off_c, 0, 60, 127
2, 18403, Note_on_c, 12, 59, 127
2, 18508, Note_off_c, 12, 59, 127
2, 18508, Note_on_c, 0, 60, 127
2, 18802, Note_off_c, 4, 52, 127
2, 18802, Note_off_c, 10, 45, 127
2, 18803, Note_on_c, 6, 54, 127
2, 18803, Note_on_c, 2, 50, 127
2, 19056, Note_on_c, 12, 59, 127
2, 19061, Note_off_c, 0, 60, 127
2, 19308, Note_off_c, 12, 59, 127
2, 19308, Note_off_c, 2, 50, 127
2, 19309, Note_on_c, 2, 38, 127
2, 19309, Note_on_c, 0, 60, 127
2, 19401, Note_off_c, 0, 60, 127
2, 19408, Note_on_c, 12, 59, 127
2, 19500, Note_off_c, 12, 59, 127
2, 19507, Note_on_c, 0, 60, 127
2, 19647, Note_off_c, 0, 60, 127
2, 19648, Note_on_c, 2, 62, 127
2, 19797, Note_off_c, 2, 62, 127
2, 19814, Note_off_c, 2, 38, 127
2, 19814, Note_off_c, 6, 54, 127
2, 19815, Note_on_c, 7, 43, 127
2, 19815, Note_on_c, 7, 55, 127
2, 19815, Note_on_c, 0, 60, 127
2, 19877, Note_off_c, 0, 60, 127
2, 19878, Note_on_c, 12, 59, 127
2, 19940, Note_off_c, 12, 59, 127
2, 19941, Note_on_c, 0, 60, 127
2, 20003, Note_off_c, 0, 60, 127
2, 20004, Note_on_c, 12, 59, 127
2, 20066, Note_off_c, 12, 59, 127
2, 20066, Note_off_c, 7, 55, 127
2, 20067, Note_on_c, 5, 53, 127
2, 20067, Note_on_c, 0, 60, 127
2, 20129, Note_off_c, 0, 60, 127
2, 20130, Note_on_c, 12, 59, 127
2, 20192, Note_off_c, 12, 59, 127
2, 20193, Note_on_c, 0, 60, 127
2, 20255, Note_off_c, 0, 60, 127
2, 20256, Note_on_c, 12, 59, 127
2, 20314, Note_off_c, 7, 43, 127
2, 20318, Note_off_c, 12, 59, 127
2, 20318, Note_off_c, 5, 53, 127
2, 20319, Note_on_c, 4, 52, 127
2, 20319, Note_on_c, 7, 67, 127
2, 20571, Note_off_c, 4, 52, 127
2, 20572, Note_on_c, 2, 50, 127
2, 20824, Note_off_c, 2, 50, 127
2, 20824, Note_off_c, 7, 67, 127
2, 20825, Note_on_c, 2, 50, 127
2, 20825, Note_on_c, 2, 62, 127
2, 20887, Note_off_c, 2, 50, 127
2, 20888, Note_on_c, 0, 48, 127
2, 20950, Note_off_c, 0, 48, 127
2, 20951, Note_on_c, 2, 50, 127
2, 21013, Note_off_c, 2, 50, 127
2, 21014, Note_on_c, 0, 48, 127
2, 21076, Note_off_c, 0, 48, 127
2, 21077, Note_on_c, 12, 47, 127
2, 21329, Note_off_c, 12, 47, 127
2, 21329, Note_off_c, 2, 62, 127
2, 21330, Note_on_c, 0, 48, 127
2, 21330, Note_on_c, 4, 64, 127
2, 21582, Note_off_c, 4, 64, 127
2, 21582, Note_off_c, 0, 48, 127
2, 21583, Note_on_c, 12, 47, 127
2, 21583, Note_on_c, 2, 62, 127
2, 21835, Note_off_c, 2, 62, 127
2, 21835, Note_off_c, 12, 47, 127
2, 21836, Note_on_c, 0, 48, 127
2, 21836, Note_on_c, 4, 64, 127
2, 21898, Note_off_c, 4, 64, 127
2, 21898, Note_off_c, 0, 48, 127
2, 21899, Note_on_c, 12, 47, 127
2, 21899, Note_on_c, 2, 62, 127
2, 21961, Note_off_c, 2, 62, 127
2, 21961, Note_off_c, 12, 47, 127
2, 21962, Note_on_c, 0, 48, 127
2, 21962, Note_on_c, 4, 64, 127
2, 22087, Note_off_c, 4, 64, 127
2, 22087, Note_off_c, 0, 48, 127
2, 22088, Note_on_c, 2, 50, 127
2, 22088, Note_on_c, 5, 65, 127
2, 22340, Note_off_c, 5, 65, 127
2, 22340, Note_off_c, 2, 50, 127
2, 22341, Note_on_c, 4, 52, 127
2, 22341, Note_on_c, 7, 67, 127
2, 22593, Note_off_c, 7, 67, 127
2, 22593, Note_off_c, 4, 52, 127
2, 22594, Note_on_c, 5, 53, 127
2, 22594, Note_on_c, 10, 69, 127
2, 22846, Note_off_c, 10, 69, 127
2, 22846, Note_off_c, 5, 53, 127
2, 22847, Note_on_c, 7, 55, 127
2, 22847, Note_on_c, 12, 71, 127
2, 22847, Note_on_c, 2, 62, 127
2, 23099, Note_off_c, 12, 71, 127
2, 23100, Note_on_c, 10, 69, 127
2, 23348, Note_off_c, 2, 62, 127
2, 23352, Note_off_c, 10, 69, 127
2, 23352, Note_off_c, 7, 55, 127
2, 23353, Note_on_c, 12, 59, 127
2, 23353, Note_on_c, 12, 71, 127
2, 23353, Note_on_c, 7, 67, 127
2, 23432, Note_off_c, 12, 71, 127
2, 23432, Note_on_c, 10, 69, 127
2, 23511, Note_off_c, 10, 69, 127
2, 23511, Note_on_c, 12, 71, 127
2, 23606, Note_on_c, 2, 74, 127
2, 23611, Note_off_c, 12, 71, 127
2, 23854, Note_off_c, 7, 67, 127
2, 23858, Note_off_c, 2, 74, 127
2, 23858, Note_off_c, 12, 59, 127
2, 23859, Note_on_c, 0, 60, 127
2, 23859, Note_on_c, 0, 72, 127
2, 23859, Note_on_c, 4, 64, 127
2, 23921, Note_off_c, 0, 72, 127
2, 23922, Note_on_c, 12, 71, 127
2, 23984, Note_off_c, 12, 71, 127
2, 23985, Note_on_c, 0, 72, 127
2, 24110, Note_off_c, 0, 72, 127
2, 24111, Note_on_c, 12, 71, 127
2, 24359, Note_off_c, 4, 64, 127
2, 24363, Note_off_c, 12, 71, 127
2, 24363, Note_off_c, 0, 60, 127
2, 24364, Note_on_c, 2, 62, 127
2, 24364, Note_on_c, 10, 69, 127
2, 24364, Note_on_c, 5, 65, 127
2, 24616, Note_off_c, 10, 69, 127
2, 24617, Note_on_c, 7, 67, 127
2, 24869, Note_off_c, 7, 67, 127
2, 24869, Note_off_c, 2, 62, 127
2, 24870, Note_on_c, 10, 57, 127
2, 24870, Note_on_c, 10, 69, 127
2, 25122, Note_off_c, 10, 69, 127
2, 25123, Note_on_c, 0, 72, 127
2, 25375, Note_off_c, 0, 72, 127
2, 25375, Note_off_c, 10, 57, 127
2, 25376, Note_on_c, 2, 62, 127
2, 25376, Note_on_c, 12, 71, 127
2, 25438, Note_off_c, 12, 71, 127
2, 25439, Note_on_c, 10, 69, 127
2, 25501, Note_off_c, 10, 69, 127
2, 25502, Note_on_c, 12, 71, 127
2, 25627, Note_off_c, 12, 71, 127
2, 25628, Note_on_c, 10, 69, 127
2, 25879, Note_off_c, 5, 65, 127
2, 25880, Note_off_c, 10, 69, 127
2, 25881, Note_on_c, 7, 67, 127
2, 25881, Note_on_c, 4, 64, 127
2, 26133, Note_off_c, 7, 67, 127
2, 26134, Note_on_c, 5, 65, 127
2, 26386, Note_off_c, 5, 65, 127
2, 26386, Note_off_c, 2, 62, 127
2, 26387, Note_on_c, 1, 61, 127
2, 26387, Note_on_c, 7, 67, 127
2, 26639, Note_off_c, 7, 67, 127
2, 26640, Note_on_c, 11, 70, 127
2, 26892, Note_off_c, 11, 70, 127
2, 26892, Note_off_c, 1, 61, 127
2, 26893, Note_on_c, 10, 57, 127
2, 26893, Note_on_c, 11, 70, 127
2, 26969, Note_on_c, 10, 69, 127
2, 26972, Note_off_c, 11, 70, 127
2, 27046, Note_on_c, 11, 70, 127
2, 27049, Note_off_c, 10, 69, 127
2, 27123, Note_on_c, 10, 69, 127
2, 27126, Note_off_c, 11, 70, 127
2, 27202, Note_off_c, 10, 69, 127
2, 27203, Note_on_c, 7, 67, 127
2, 27392, Note_off_c, 7, 67, 127
2, 27397, Note_off_c, 4, 64, 127
2, 27398, Note_off_c, 10, 57, 127
2, 27399, Note_on_c, 2, 62, 127
2, 27399, Note_on_c, 10, 69, 127
2, 27399, Note_on_c, 5, 65, 127
2, 27651, Note_off_c, 2, 62, 127
2, 27652, Note_on_c, 1, 61, 127
2, 27904, Note_off_c, 1, 61, 127
2, 27904, Note_off_c, 5, 65, 127
2, 27904, Note_off_c, 10, 69, 127
2, 27905, Note_on_c, 2, 62, 127
2, 27905, Note_on_c, 2, 74, 127
2, 28157, Note_off_c, 2, 62, 127
2, 28158, Note_on_c, 4, 64, 127
2, 28410, Note_off_c, 4, 64, 127
2, 28410, Note_off_c, 2, 74, 127
2, 28411, Note_on_c, 6, 66, 127
2, 28411, Note_on_c, 10, 69, 127
2, 28663, Note_off_c, 6, 66, 127
2, 28664, Note_on_c, 2, 62, 127
2, 28916, Note_off_c, 2, 62, 127
2, 28916, Note_off_c, 10, 69, 127
2, 28917, Note_on_c, 7, 67, 127
2, 28917, Note_on_c, 11, 70, 127
2, 28917, Note_on_c, 2, 74, 127
2, 29169, Note_off_c, 11, 70, 127
2, 29170, Note_on_c, 10, 69, 127
2, 29418, Note_off_c, 2, 74, 127
2, 29422, Note_off_c, 10, 69, 127
2, 29422, Note_off_c, 7, 67, 127
2, 29423, Note_on_c, 3, 63, 127
2, 29423, Note_on_c, 11, 70, 127
2, 29423, Note_on_c, 7, 79, 127
2, 29502, Note_on_c, 5, 77, 127
2, 29503, Note_off_c, 7, 79, 127
2, 29581, Note_off_c, 5, 77, 127
2, 29581, Note_on_c, 7, 79, 127
2, 29673, Note_off_c, 11, 70, 127
2, 29676, Note_on_c, 7, 67, 127
2, 29904, Note_off_c, 7, 79, 127
2, 29926, Note_off_c, 7, 67, 127
2, 29927, Note_off_c, 3, 63, 127
2, 29928, Note_on_c, 5, 65, 127
2, 29928, Note_on_c, 10, 69, 127
2, 29928, Note_on_c, 3, 75, 127
2, 29990, Note_off_c, 3, 75, 127
2, 29991, Note_on_c, 2, 74, 127
2, 30053, Note_off_c, 2, 74, 127
2, 30054, Note_on_c, 3, 75, 127
2, 30116, Note_off_c, 3, 75, 127
2, 30117, Note_on_c, 2, 74, 127
2, 30178, Note_off_c, 10, 69, 127
2, 30179, Note_off_c, 2, 74, 127
2, 30180, Note_on_c, 12, 71, 127
2, 30180, Note_on_c, 3, 75, 127
2, 30242, Note_off_c, 3, 75, 127
2, 30243, Note_on_c, 2, 74, 127
2, 30305, Note_off_c, 2, 74, 127
2, 30306, Note_on_c, 0, 72, 127
2, 30368, Note_off_c, 0, 72, 127
2, 30369, Note_on_c, 2, 74, 127
2, 30430, Note_off_c, 12, 71, 127
2, 30431, Note_off_c, 2, 74, 127
2, 30431, Note_off_c, 5, 65, 127
2, 30432, Note_on_c, 0, 60, 127
2, 30432, Note_on_c, 0, 72, 127
2, 30432, Note_on_c, 3, 75, 127
2, 30494, Note_off_c, 3, 75, 127
2, 30495, Note_on_c, 2, 74, 127
2, 30557, Note_off_c, 2, 74, 127
2, 30558, Note_on_c, 3, 75, 127
2, 30683, Note_off_c, 0, 60, 127
2, 30684, Note_on_c, 2, 62, 127
2, 30932, Note_off_c, 0, 72, 127
2, 30936, Note_off_c, 2, 62, 127
2, 30937, Note_on_c, 3, 63, 127
2, 30937, Note_on_c, 7, 67, 127
2, 31189, Note_off_c, 3, 63, 127
2, 31190, Note_off_c, 3, 75, 127
2, 31190, Note_on_c, 0, 60, 127
2, 31190, Note_on_c, 2, 74, 127
2, 31438, Note_off_c, 7, 67, 127
2, 31442, Note_off_c, 2, 74, 127
2, 31442, Note_off_c, 0, 60, 127
2, 31443, Note_on_c, 3, 63, 127
2, 31443, Note_on_c, 0, 72, 127
2, 31695, Note_off_c, 3, 63, 127
2, 31696, Note_on_c, 5, 65, 127
2, 31948, Note_off_c, 5, 65, 127
2, 31949, Note_on_c, 7, 67, 127
2, 32128, Note_off_c, 0, 72, 127
2, 32202, Note_on_c, 2, 74, 127
2, 32450, Note_off_c, 7, 67, 127
2, 32454, Note_off_c, 2, 74, 127
2, 32455, Note_on_c, 2, 62, 127
2, 32455, Note_on_c, 0, 72, 127
2, 32517, Note_off_c, 0, 72, 127
2, 32518, Note_on_c, 12, 71, 127
2, 32580, Note_off_c, 12, 71, 127
2, 32581, Note_on_c, 0, 72, 127
2, 32643, Note_off_c, 0, 72, 127
2, 32644, Note_on_c, 12, 71, 127
2, 32706, Note_off_c, 12, 71, 127
2, 32707, Note_on_c, 10, 69, 127
2, 32955, Note_off_c, 2, 62, 127
2, 32959, Note_off_c, 10, 69, 127
2, 32960, Note_on_c, 11, 70, 127
2, 32960, Note_on_c, 7, 67, 127
2, 33022, Note_off_c, 11, 70, 127
2, 33023, Note_on_c, 10, 69, 127
2, 33085, Note_off_c, 10, 69, 127
2, 33086, Note_on_c, 11, 70, 127
2, 33211, Note_off_c, 11, 70, 127
2, 33212, Note_on_c, 0, 72, 127
2, 33460, Note_off_c, 7, 67, 127
2, 33464, Note_off_c, 0, 72, 127
2, 33465, Note_on_c, 10, 57, 127
2, 33465, Note_on_c, 11, 70, 127
2, 33527, Note_off_c, 11, 70, 127
2, 33528, Note_on_c, 10, 69, 127
2, 33590, Note_off_c, 10, 69, 127
2, 33591, Note_on_c, 11, 70, 127
2, 33653, Note_off_c, 11, 70, 127
2, 33654, Note_on_c, 10, 69, 127
2, 33716, Note_off_c, 10, 69, 127
2, 33717, Note_on_c, 7, 67, 127
2, 33969, Note_off_c, 7, 67, 127
2, 33969, Note_off_c, 10, 57, 127
2, 33970, Note_on_c, 2, 62, 127
2, 33970, Note_on_c, 7, 67, 127
2, 34032, Note_off_c, 7, 67, 127
2, 34043, Note_on_c, 6, 66, 127
2, 34105, Note_off_c, 6, 66, 127
2, 34116, Note_on_c, 7, 67, 127
2, 34178, Note_off_c, 7, 67, 127
2, 34189, Note_on_c, 6, 66, 127
2, 34251, Note_off_c, 6, 66, 127
2, 34252, Note_on_c, 4, 64, 127
2, 34476, Note_off_c, 4, 64, 127
2, 34476, Note_off_c, 2, 62, 127
2, 34477, Note_on_c, 11, 58, 127
2, 34477, Note_on_c, 2, 74, 127
2, 34477, Note_on_c, 5, 65, 127
2, 34729, Note_off_c, 5, 65, 127
2, 34730, Note_on_c, 7, 67, 127
2, 34982, Note_off_c, 7, 67, 127
2, 34982, Note_off_c, 11, 58, 127
2, 34983, Note_on_c, 7, 55, 127
2, 34983, Note_on_c, 4, 64, 127
2, 35235, Note_off_c, 2, 74, 127
2, 35236, Note_on_c, 4, 76, 127
2, 35484, Note_off_c, 4, 64, 127
2, 35488, Note_off_c, 4, 76, 127
2, 35488, Note_off_c, 7, 55, 127
2, 35489, Note_on_c, 10, 57, 127
2, 35489, Note_on_c, 2, 74, 127
2, 35489, Note_on_c, 4, 64, 127
2, 35551, Note_off_c, 2, 74, 127
2, 35552, Note_on_c, 1, 73, 127
2, 35614, Note_off_c, 1, 73, 127
2, 35615, Note_on_c, 2, 74, 127
2, 35677, Note_off_c, 2, 74, 127
2, 35678, Note_on_c, 1, 73, 127
2, 35740, Note_off_c, 1, 73, 127
2, 35741, Note_on_c, 12, 71, 127
2, 35989, Note_off_c, 4, 64, 127
2, 35993, Note_off_c, 12, 71, 127
2, 35993, Note_off_c, 10, 57, 127
2, 35994, Note_on_c, 0, 48, 127
2, 35994, Note_on_c, 0, 72, 127
2, 35994, Note_on_c, 10, 69, 127
2, 36056, Note_off_c, 0, 72, 127
2, 36057, Note_on_c, 12, 71, 127
2, 36119, Note_off_c, 12, 71, 127
2, 36120, Note_on_c, 0, 72, 127
2, 36245, Note_off_c, 0, 72, 127
2, 36246, Note_on_c, 2, 74, 127
2, 36498, Note_off_c, 2, 74, 127
2, 36498, Note_off_c, 0, 48, 127
2, 36499, Note_on_c, 2, 50, 127
2, 36499, Note_on_c, 0, 72, 127
2, 36561, Note_off_c, 0, 72, 127
2, 36562, Note_on_c, 11, 70, 127
2, 36624, Note_off_c, 11, 70, 127
2, 36625, Note_on_c, 0, 72, 127
2, 36687, Note_off_c, 0, 72, 127
2, 36688, Note_on_c, 11, 70, 127
2, 36750, Note_off_c, 10, 69, 127
2, 36751, Note_on_c, 10, 69, 127
2, 37003, Note_off_c, 10, 69, 127
2, 37003, Note_off_c, 2, 50, 127
2, 37004, Note_on_c, 4, 52, 127
2, 37004, Note_on_c, 7, 67, 127
2, 37256, Note_off_c, 7, 67, 127
2, 37257, Note_on_c, 5, 65, 127
2, 37506, Note_off_c, 11, 70, 127
2, 37509, Note_off_c, 5, 65, 127
2, 37509, Note_off_c, 4, 52, 127
2, 37510, Note_on_c, 0, 48, 127
2, 37510, Note_on_c, 7, 67, 127
2, 37763, Note_on_c, 0, 72, 127
2, 38011, Note_off_c, 7, 67, 127
2, 38015, Note_off_c, 0, 72, 127
2, 38015, Note_off_c, 0, 48, 127
2, 38016, Note_on_c, 5, 53, 127
2, 38016, Note_on_c, 0, 60, 127
2, 38016, Note_on_c, 10, 69, 127
2, 38016, Note_on_c, 0, 72, 127
2, 38521, Note_off_c, 0, 72, 127
2, 38521, Note_off_c, 0, 60, 127
2, 38522, Note_on_c, 10, 57, 127
2, 38522, Note_on_c, 5, 77, 127
2, 38627, Note_on_c, 4, 76, 127
2, 38640, Note_off_c, 5, 77, 127
2, 38732, Note_on_c, 5, 77, 127
2, 38745, Note_off_c, 4, 76, 127
2, 39026, Note_off_c, 10, 57, 127
2, 39026, Note_off_c, 10, 69, 127
2, 39026, Note_off_c, 5, 53, 127
2, 39027, Note_on_c, 3, 63, 127
2, 39027, Note_on_c, 5, 53, 127
2, 39027, Note_on_c, 5, 65, 127
2, 39027, Note_on_c, 10, 69, 127
2, 39074, Note_off_c, 5, 77, 127
2, 39532, Note_off_c, 10, 69, 127
2, 39532, Note_off_c, 5, 53, 127
2, 39532, Note_off_c, 3, 63, 127
2, 39533, Note_on_c, 7, 55, 127
2, 39533, Note_on_c, 2, 62, 127
2, 39533, Note_on_c, 11, 70, 127
2, 40038, Note_off_c, 11, 70, 127
2, 40038, Note_off_c, 2, 62, 127
2, 40038, Note_off_c, 7, 55, 127
2, 40038, Note_off_c, 5, 65, 127
2, 40039, Note_on_c, 10, 57, 127
2, 40039, Note_on_c, 0, 60, 127
2, 40039, Note_on_c, 0, 72, 127
2, 40039, Note_on_c, 5, 65, 127
2, 40101, Note_off_c, 5, 65, 127
2, 40102, Note_on_c, 3, 63, 127
2, 40164, Note_off_c, 3, 63, 127
2, 40165, Note_on_c, 5, 65, 127
2, 40227, Note_off_c, 5, 65, 127
2, 40228, Note_on_c, 3, 63, 127
2, 40290, Note_off_c, 3, 63, 127
2, 40291, Note_on_c, 2, 62, 127
2, 40543, Note_off_c, 2, 62, 127
2, 40543, Note_off_c, 0, 60, 127
2, 40543, Note_off_c, 10, 57, 127
2, 40544, Note_on_c, 10, 57, 127
2, 40544, Note_on_c, 5, 53, 127
2, 40544, Note_on_c, 3, 63, 127
2, 40796, Note_off_c, 3, 63, 127
2, 40797, Note_on_c, 5, 65, 127
2, 41049, Note_off_c, 5, 65, 127
2, 41049, Note_off_c, 5, 53, 127
2, 41049, Note_off_c, 10, 57, 127
2, 41050, Note_on_c, 11, 46, 127
2, 41050, Note_on_c, 11, 58, 127
2, 41050, Note_on_c, 2, 62, 127
2, 41554, Note_off_c, 0, 72, 127
2, 41555, Note_off_c, 11, 58, 127
2, 41556, Note_on_c, 5, 53, 127
2, 41556, Note_on_c, 11, 70, 127
2, 41808, Note_off_c, 11, 70, 127
2, 41809, Note_on_c, 0, 72, 127
2, 42061, Note_off_c, 0, 72, 127
2, 42061, Note_off_c, 5, 53, 127
2, 42062, Note_on_c, 11, 58, 127
2, 42062, Note_on_c, 0, 72, 127
2, 42124, Note_off_c, 0, 72, 127
2, 42125, Note_on_c, 11, 70, 127
2, 42187, Note_off_c, 11, 70, 127
2, 42188, Note_on_c, 0, 72, 127
2, 42250, Note_off_c, 0, 72, 127
2, 42251, Note_on_c, 11, 70, 127
2, 42313, Note_off_c, 11, 70, 127
2, 42314, Note_on_c, 8, 68, 127
2, 42565, Note_off_c, 2, 62, 127
2, 42565, Note_off_c, 11, 46, 127
2, 42566, Note_off_c, 8, 68, 127
2, 42566, Note_off_c, 11, 58, 127
2, 42567, Note_on_c, 3, 51, 127
2, 42567, Note_on_c, 11, 58, 127
2, 42567, Note_on_c, 3, 63, 127
2, 42567, Note_on_c, 7, 67, 127
2, 43072, Note_off_c, 7, 67, 127
2, 43072, Note_off_c, 11, 58, 127
2, 43072, Note_off_c, 3, 51, 127
2, 43073, Note_on_c, 0, 48, 127
2, 43073, Note_on_c, 0, 60, 127
2, 43073, Note_on_c, 8, 68, 127
2, 43325, Note_off_c, 8, 68, 127
2, 43326, Note_on_c, 11, 70, 127
2, 43578, Note_off_c, 11, 70, 127
2, 43578, Note_off_c, 0, 60, 127
2, 43579, Note_on_c, 11, 58, 127
2, 43579, Note_on_c, 11, 70, 127
2, 43641, Note_off_c, 11, 70, 127
2, 43642, Note_on_c, 8, 68, 127
2, 43704, Note_off_c, 8, 68, 127
2, 43705, Note_on_c, 11, 70, 127
2, 43767, Note_off_c, 11, 70, 127
2, 43768, Note_on_c, 8, 68, 127
2, 43830, Note_off_c, 8, 68, 127
2, 43831, Note_on_c, 7, 67, 127
2, 44082, Note_off_c, 3, 63, 127
2, 44083, Note_off_c, 7, 67, 127
2, 44083, Note_off_c, 11, 58, 127
2, 44083, Note_off_c, 0, 48, 127
2, 44084, Note_on_c, 0, 48, 127
2, 44084, Note_on_c, 8, 56, 127
2, 44084, Note_on_c, 2, 62, 127
2, 44084, Note_on_c, 5, 65, 127
2, 44589, Note_off_c, 8, 56, 127
2, 44589, Note_off_c, 0, 48, 127
2, 44590, Note_on_c, 12, 47, 127
2, 44590, Note_on_c, 7, 55, 127
2, 44842, Note_off_c, 5, 65, 127
2, 44843, Note_on_c, 4, 64, 127
2, 45095, Note_off_c, 4, 64, 127
2, 45095, Note_off_c, 12, 47, 127
2, 45096, Note_on_c, 7, 43, 127
2, 45096, Note_on_c, 5, 65, 127
2, 45348, Note_off_c, 5, 65, 127
2, 45349, Note_on_c, 7, 67, 127
2, 45600, Note_off_c, 2, 62, 127
2, 45601, Note_off_c, 7, 67, 127
2, 45601, Note_off_c, 7, 43, 127
2, 45601, Note_off_c, 7, 55, 127
2, 45602, Note_on_c, 0, 48, 127
2, 45602, Note_on_c, 7, 55, 127
2, 45602, Note_on_c, 4, 64, 127
2, 45602, Note_on_c, 0, 60, 127
2, 45854, Note_off_c, 4, 64, 127
2, 45855, Note_on_c, 5, 65, 127
2, 46103, Note_off_c, 0, 60, 127
2, 46107, Note_off_c, 5, 65, 127
2, 46108, Note_on_c, 7, 67, 127
2, 46170, Note_off_c, 7, 67, 127
2, 46171, Note_on_c, 5, 65, 127
2, 46233, Note_off_c, 5, 65, 127
2, 46234, Note_on_c, 7, 67, 127
2, 46359, Note_off_c, 7, 67, 127
2, 46360, Note_on_c, 10, 69, 127
2, 46612, Note_off_c, 10, 69, 127
2, 46612, Note_off_c, 7, 55, 127
2, 46612, Note_off_c, 0, 48, 127
2, 46613, Note_on_c, 4, 52, 127
2, 46613, Note_on_c, 7, 55, 127
2, 46613, Note_on_c, 11, 70, 127
2, 46613, Note_on_c, 0, 60, 127
2, 46675, Note_off_c, 11, 70, 127
2, 46676, Note_on_c, 10, 69, 127
2, 46738, Note_off_c, 10, 69, 127
2, 46739, Note_on_c, 11, 70, 127
2, 46864, Note_off_c, 11, 70, 127
2, 46865, Note_on_c, 0, 72, 127
2, 47113, Note_off_c, 0, 60, 127
2, 47117, Note_off_c, 0, 72, 127
2, 47117, Note_off_c, 7, 55, 127
2, 47117, Note_off_c, 4, 52, 127
2, 47118, Note_on_c, 5, 53, 127
2, 47118, Note_on_c, 11, 70, 127
2, 47118, Note_on_c, 0, 60, 127
2, 47226, Note_on_c, 10, 69, 127
2, 47229, Note_off_c, 11, 70, 127
2, 47296, Note_off_c, 10, 69, 127
2, 47297, Note_on_c, 11, 70, 127
2, 47367, Note_off_c, 11, 70, 127
2, 47368, Note_on_c, 10, 69, 127
2, 47438, Note_off_c, 10, 69, 127
2, 47439, Note_on_c, 7, 67, 127
2, 47509, Note_off_c, 7, 67, 127
2, 47510, Note_on_c, 10, 69, 127
2, 47580, Note_off_c, 10, 69, 127
2, 47581, Note_on_c, 11, 70, 127
2, 47651, Note_off_c, 11, 70, 127
2, 47653, Note_off_c, 5, 53, 127
2, 47654, Note_on_c, 10, 45, 127
2, 47654, Note_on_c, 5, 53, 127
2, 47654, Note_on_c, 0, 72, 127
2, 47737, Note_off_c, 0, 72, 127
2, 47739, Note_on_c, 11, 70, 127
2, 47822, Note_off_c, 11, 70, 127
2, 47824, Note_on_c, 0, 72, 127
2, 48161, Note_off_c, 0, 72, 127
2, 48163, Note_on_c, 11, 70, 127
2, 48313, Note_off_c, 11, 70, 127
2, 48331, Note_off_c, 10, 45, 127
2, 48333, Note_on_c, 0, 48, 127
2, 48333, Note_on_c, 11, 70, 127
2, 48446, Note_on_c, 10, 69, 127
2, 48455, Note_off_c, 11, 70, 127
2, 48559, Note_on_c, 11, 70, 127
2, 48568, Note_off_c, 10, 69, 127
2, 48670, Note_off_c, 5, 53, 127
2, 48672, Note_on_c, 4, 52, 127
2, 48672, Note_on_c, 10, 69, 127
2, 48681, Note_off_c, 11, 70, 127
2, 48785, Note_off_c, 10, 69, 127
2, 48785, Note_on_c, 7, 67, 127
2, 48898, Note_off_c, 7, 67, 127
2, 48898, Note_on_c, 5, 65, 127
2, 48981, Note_off_c, 5, 65, 127
2, 49008, Note_off_c, 0, 60, 127
2, 49019, Note_off_c, 4, 52, 127
2, 49028, Note_on_c, 5, 65, 127
2, 49028, Note_on_c, 10, 57, 127
2, 49028, Note_on_c, 0, 60, 127
2, 49028, Note_on_c, 5, 53, 127
2, 49028, Note_on_c, 5, 41, 127
2, 49032, Note_off_c, 0, 48, 127
2, 51428, Note_off_c, 5, 65, 127
2, 51528, Note_off_c, 0, 60, 127
2, 51625, Note_on_c, 5, 65, 127
2, 51628, Note_off_c, 5, 41, 127
2, 51628, Note_off_c, 10, 57, 127
2, 51728, Note_off_c, 5, 53, 127
2, 51865, Note_off_c, 5, 65, 127
2, 51894, Note_on_c, 5, 53, 127
2, 51894, Note_on_c, 10, 57, 127
2, 51953, Note_off_c, 5, 53, 127
2, 51955, Note_on_c, 4, 52, 127
2, 51985, Note_on_c, 0, 60, 127
2, 52014, Note_off_c, 4, 52, 127
2, 52016, Note_on_c, 5, 53, 127
2, 52077, Note_on_c, 0, 48, 127
2, 52077, Note_on_c, 5, 65, 127
2, 52258, Note_off_c, 0, 48, 127
2, 52260, Note_on_c, 10, 45, 127
2, 52443, Note_on_c, 0, 48, 127
2, 52611, Note_off_c, 5, 65, 127
2, 52619, Note_off_c, 10, 57, 127
2, 52627, Note_on_c, 5, 41, 127
2, 52635, Note_off_c, 0, 60, 127
2, 52810, Note_on_c, 0, 60, 127
2, 52991, Note_off_c, 0, 60, 127
2, 52993, Note_on_c, 0, 60, 127
2, 53113, Note_off_c, 5, 53, 127
2, 53174, Note_off_c, 0, 60, 127
2, 53176, Note_on_c, 0, 60, 127
2, 53351, Note_off_c, 5, 41, 127
2, 53357, Note_off_c, 0, 60, 127
2, 53357, Note_off_c, 10, 45, 127
2, 53359, Note_off_c, 0, 48, 127
2, 53359, Note_on_c, 0, 60, 127
2, 53418, Note_off_c, 0, 60, 127
2, 53420, Note_on_c, 11, 58, 127
2, 53479, Note_off_c, 11, 58, 127
2, 53481, Note_on_c, 0, 60, 127
2, 53542, Note_on_c, 5, 53, 127
2, 53723, Note_off_c, 5, 53, 127
2, 53725, Note_on_c, 0, 48, 127
2, 53908, Note_on_c, 5, 53, 127
2, 54091, Note_on_c, 10, 45, 127
2, 54177, Note_off_c, 0, 60, 127
2, 54274, Note_on_c, 5, 65, 127
2, 54455, Note_off_c, 5, 65, 127
2, 54457, Note_on_c, 5, 65, 127
2, 54638, Note_off_c, 5, 65, 127
2, 54640, Note_on_c, 5, 65, 127
2, 54815, Note_off_c, 10, 45, 127
2, 54821, Note_off_c, 5, 65, 127
2, 54821, Note_off_c, 0, 48, 127
2, 54823, Note_off_c, 5, 53, 127
2, 54823, Note_on_c, 2, 62, 127
2, 54823, Note_on_c, 5, 65, 127
2, 54882, Note_off_c, 5, 65, 127
2, 54884, Note_on_c, 4, 64, 127
2, 54943, Note_off_c, 4, 64, 127
2, 54945, Note_on_c, 5, 65, 127
2, 55006, Note_on_c, 5, 53, 127
2, 55187, Note_off_c, 5, 53, 127
2, 55189, Note_on_c, 2, 50, 127
2, 55372, Note_on_c, 5, 53, 127
2, 55547, Note_off_c, 2, 62, 127
2, 55555, Note_on_c, 11, 46, 127
2, 55641, Note_off_c, 5, 65, 127
2, 55738, Note_on_c, 2, 74, 127
2, 55919, Note_off_c, 2, 74, 127
2, 55921, Note_on_c, 2, 74, 127
2, 56102, Note_off_c, 2, 74, 127
2, 56104, Note_on_c, 2, 74, 127
2, 56285, Note_off_c, 2, 74, 127
2, 56285, Note_off_c, 11, 46, 127
2, 56285, Note_off_c, 2, 50, 127
2, 56287, Note_off_c, 5, 53, 127
2, 56287, Note_on_c, 7, 55, 127
2, 56287, Note_on_c, 2, 50, 127
2, 56287, Note_on_c, 12, 47, 127
2, 56287, Note_on_c, 7, 67, 127
2, 56468, Note_off_c, 7, 67, 127
2, 56470, Note_on_c, 2, 74, 127
2, 56651, Note_off_c, 2, 74, 127
2, 56653, Note_on_c, 12, 71, 127
2, 56834, Note_off_c, 12, 71, 127
2, 56836, Note_on_c, 2, 74, 127
2, 57017, Note_off_c, 2, 74, 127
2, 57019, Note_on_c, 7, 67, 127
2, 57200, Note_off_c, 7, 67, 127
2, 57202, Note_on_c, 12, 71, 127
2, 57383, Note_off_c, 12, 71, 127
2, 57385, Note_on_c, 2, 62, 127
2, 57566, Note_off_c, 2, 62, 127
2, 57568, Note_on_c, 7, 67, 127
2, 57749, Note_off_c, 7, 67, 127
2, 57749, Note_off_c, 12, 47, 127
2, 57749, Note_off_c, 2, 50, 127
2, 57749, Note_off_c, 7, 55, 127
2, 57751, Note_on_c, 0, 48, 127
2, 57751, Note_on_c, 7, 55, 127
2, 57751, Note_on_c, 4, 64, 127
2, 57934, Note_on_c, 0, 72, 127
2, 58115, Note_off_c, 0, 72, 127
2, 58117, Note_on_c, 0, 72, 127
2, 58298, Note_off_c, 0, 72, 127
2, 58300, Note_on_c, 0, 72, 127
2, 58475, Note_off_c, 4, 64, 127
2, 58481, Note_off_c, 0, 72, 127
2, 58481, Note_off_c, 7, 55, 127
2, 58483, Note_on_c, 10, 57, 127
2, 58483, Note_on_c, 10, 69, 127
2, 58483, Note_on_c, 5, 65, 127
2, 58664, Note_off_c, 10, 69, 127
2, 58666, Note_on_c, 0, 72, 127
2, 58845, Note_off_c, 5, 65, 127
2, 58847, Note_off_c, 0, 72, 127
2, 58849, Note_on_c, 5, 65, 127
2, 59030, Note_off_c, 5, 65, 127
2, 59032, Note_on_c, 10, 69, 127
2, 59213, Note_off_c, 10, 69, 127
2, 59213, Note_off_c, 10, 57, 127
2, 59215, Note_on_c, 10, 57, 127
2, 59215, Note_on_c, 0, 60, 127
2, 59398, Note_on_c, 10, 69, 127
2, 59577, Note_off_c, 0, 60, 127
2, 59579, Note_off_c, 10, 69, 127
2, 59579, Note_off_c, 10, 57, 127
2, 59581, Note_off_c, 0, 48, 127
2, 59581, Note_on_c, 11, 46, 127
2, 59581, Note_on_c, 11, 58, 127
2, 59581, Note_on_c, 2, 62, 127
2, 59581, Note_on_c, 7, 67, 127
2, 59762, Note_off_c, 7, 67, 127
2, 59762, Note_off_c, 11, 58, 127
2, 59764, Note_on_c, 10, 57, 127
2, 59764, Note_on_c, 5, 65, 127
2, 59943, Note_off_c, 2, 62, 127
2, 59943, Note_off_c, 11, 46, 127
2, 59945, Note_off_c, 5, 65, 127
2, 59945, Note_off_c, 10, 57, 127
2, 59947, Note_on_c, 7, 55, 127
2, 59947, Note_on_c, 0, 48, 127
2, 59947, Note_on_c, 0, 60, 127
2, 59947, Note_on_c, 5, 65, 127
2, 60069, Note_off_c, 5, 65, 127
2, 60069, Note_on_c, 4, 64, 127
2, 60126, Note_off_c, 4, 64, 127
2, 60130, Note_on_c, 5, 65, 127
2, 60187, Note_off_c, 5, 65, 127
2, 60191, Note_on_c, 4, 64, 127
2, 60248, Note_off_c, 4, 64, 127
2, 60252, Note_on_c, 5, 65, 127
2, 60309, Note_off_c, 5, 65, 127
2, 60311, Note_off_c, 7, 55, 127
2, 60313, Note_on_c, 11, 58, 127
2, 60313, Note_on_c, 4, 64, 127
2, 60494, Note_off_c, 4, 64, 127
2, 60496, Note_on_c, 5, 65, 127
2, 60671, Note_off_c, 0, 60, 127
2, 60671, Note_off_c, 0, 48, 127
2, 60677, Note_off_c, 5, 65, 127
2, 60677, Note_off_c, 11, 58, 127
2, 60679, Note_on_c, 5, 53, 127
2, 60679, Note_on_c, 5, 65, 127
2, 60862, Note_on_c, 0, 60, 127
2, 61045, Note_on_c, 10, 57, 127
2, 61228, Note_on_c, 0, 48, 127
2, 61411, Note_on_c, 5, 41, 127
2, 61579, Note_off_c, 10, 57, 127
2, 61594, Note_off_c, 5, 65, 127
2, 61594, Note_on_c, 10, 69, 127
2, 61746, Note_off_c, 5, 53, 127
2, 61754, Note_off_c, 5, 41, 127
2, 61762, Note_off_c, 0, 48, 127
2, 61775, Note_off_c, 10, 69, 127
2, 61777, Note_off_c, 0, 60, 127
2, 61777, Note_on_c, 7, 67, 127
2, 61836, Note_off_c, 7, 67, 127
2, 61838, Note_on_c, 10, 69, 127
2, 61897, Note_off_c, 10, 69, 127
2, 61899, Note_on_c, 7, 67, 127
2, 61960, Note_on_c, 5, 65, 127
2, 61962, Note_off_c, 7, 67, 127
2, 62141, Note_off_c, 5, 65, 127
2, 62143, Note_on_c, 7, 67, 127
2, 62326, Note_on_c, 7, 55, 127
2, 62507, Note_off_c, 7, 55, 127
2, 62509, Note_on_c, 2, 50, 127
2, 62692, Note_on_c, 7, 55, 127
2, 62867, Note_off_c, 7, 67, 127
2, 62875, Note_on_c, 11, 46, 127
2, 63058, Note_on_c, 2, 74, 127
2, 63239, Note_off_c, 2, 74, 127
2, 63241, Note_on_c, 2, 74, 127
2, 63405, Note_off_c, 2, 50, 127
2, 63409, Note_off_c, 11, 46, 127
2, 63417, Note_off_c, 7, 55, 127
2, 63423, Note_off_c, 2, 74, 127
2, 63425, Note_on_c, 2, 74, 127
2, 63606, Note_off_c, 2, 74, 127
2, 63608, Note_on_c, 4, 76, 127
2, 63667, Note_off_c, 4, 76, 127
2, 63669, Note_on_c, 2, 74, 127
2, 63728, Note_off_c, 2, 74, 127
2, 63730, Note_on_c, 4, 76, 127
2, 63791, Note_on_c, 0, 60, 127
2, 63972, Note_off_c, 0, 60, 127
2, 63974, Note_on_c, 7, 55, 127
2, 64157, Note_on_c, 0, 60, 127
2, 64340, Note_on_c, 0, 48, 127
2, 64426, Note_off_c, 4, 76, 127
2, 64523, Note_on_c, 4, 76, 127
2, 64704, Note_off_c, 4, 76, 127
2, 64704, Note_off_c, 0, 48, 127
2, 64706, Note_on_c, 2, 50, 127
2, 64706, Note_on_c, 5, 77, 127
2, 64765, Note_off_c, 5, 77, 127
2, 64767, Note_on_c, 4, 76, 127
2, 64826, Note_off_c, 4, 76, 127
2, 64828, Note_on_c, 5, 77, 127
2, 64887, Note_off_c, 5, 77, 127
2, 64887, Note_off_c, 2, 50, 127
2, 64889, Note_on_c, 4, 52, 127
2, 64889, Note_on_c, 7, 79, 127
2, 65070, Note_off_c, 7, 79, 127
2, 65070, Note_off_c, 4, 52, 127
2, 65070, Note_off_c, 7, 55, 127
2, 65072, Note_off_c, 0, 60, 127
2, 65072, Note_on_c, 5, 53, 127
2, 65072, Note_on_c, 10, 81, 127
2, 65131, Note_off_c, 5, 53, 127
2, 65133, Note_on_c, 4, 52, 127
2, 65192, Note_off_c, 4, 52, 127
2, 65194, Note_on_c, 5, 53, 127
2, 65255, Note_on_c, 10, 69, 127
2, 65434, Note_off_c, 10, 81, 127
2, 65438, Note_on_c, 5, 41, 127
2, 65438, Note_on_c, 0, 72, 127
2, 65617, Note_off_c, 10, 69, 127
2, 65621, Note_on_c, 10, 69, 127
2, 65705, Note_off_c, 5, 41, 127
2, 65800, Note_off_c, 0, 72, 127
2, 65802, Note_off_c, 10, 69, 127
2, 65804, Note_on_c, 4, 76, 127
2, 65880, Note_off_c, 5, 53, 127
2, 65893, Note_off_c, 4, 76, 127
2, 65908, Note_on_c, 2, 74, 127
2, 65998, Note_off_c, 2, 74, 127
2, 66013, Note_on_c, 4, 76, 127
2, 66146, Note_off_c, 4, 76, 127
2, 66169, Note_on_c, 10, 57, 127
2, 66169, Note_on_c, 5, 53, 127
2, 66169, Note_on_c, 2, 62, 127
2, 66169, Note_on_c, 5, 77, 127
2, 66350, Note_off_c, 5, 77, 127
2, 66352, Note_on_c, 2, 74, 127
2, 66533, Note_off_c, 2, 74, 127
2, 66533, Note_off_c, 2, 62, 127
2, 66533, Note_off_c, 5, 53, 127
2, 66533, Note_off_c, 10, 57, 127
2, 66535, Note_on_c, 5, 53, 127
2, 66535, Note_on_c, 7, 55, 127
2, 66535, Note_on_c, 2, 62, 127
2, 66535, Note_on_c, 7, 79, 127
2, 66716, Note_off_c, 7, 79, 127
2, 66718, Note_on_c, 7, 67, 127
2, 66899, Note_off_c, 7, 67, 127
2, 66901, Note_on_c, 12, 71, 127
2, 67082, Note_off_c, 12, 71, 127
2, 67084, Note_on_c, 7, 67, 127
2, 67265, Note_off_c, 7, 67, 127
2, 67265, Note_off_c, 2, 62, 127
2, 67265, Note_off_c, 7, 55, 127
2, 67265, Note_off_c, 5, 53, 127
2, 67267, Note_on_c, 7, 55, 127
2, 67267, Note_on_c, 4, 52, 127
2, 67267, Note_on_c, 0, 60, 127
2, 67267, Note_on_c, 0, 72, 127
2, 67448, Note_off_c, 0, 72, 127
2, 67450, Note_on_c, 4, 64, 127
2, 67631, Note_off_c, 4, 64, 127
2, 67633, Note_on_c, 7, 67, 127
2, 67814, Note_off_c, 7, 67, 127
2, 67816, Note_on_c, 4, 64, 127
2, 67997, Note_off_c, 4, 64, 127
2, 67997, Note_off_c, 4, 52, 127
2, 67997, Note_off_c, 7, 55, 127
2, 67999, Note_on_c, 5, 53, 127
2, 67999, Note_on_c, 10, 69, 127
2, 68180, Note_off_c, 10, 69, 127
2, 68182, Note_on_c, 12, 59, 127
2, 68363, Note_off_c, 12, 59, 127
2, 68363, Note_off_c, 5, 53, 127
2, 68363, Note_off_c, 0, 60, 127
2, 68365, Note_on_c, 4, 52, 127
2, 68365, Note_on_c, 0, 60, 127
2, 68424, Note_off_c, 0, 60, 127
2, 68426, Note_on_c, 12, 59, 127
2, 68485, Note_off_c, 12, 59, 127
2, 68487, Note_on_c, 0, 60, 127
2, 68546, Note_off_c, 0, 60, 127
2, 68546, Note_off_c, 4, 52, 127
2, 68548, Note_on_c, 5, 53, 127
2, 68548, Note_on_c, 2, 62, 127
2, 68729, Note_off_c, 2, 62, 127
2, 68729, Note_off_c, 5, 53, 127
2, 68731, Note_on_c, 7, 55, 127
2, 68731, Note_on_c, 4, 64, 127
2, 68853, Note_on_c, 2, 62, 127
2, 68861, Note_off_c, 4, 64, 127
2, 68911, Note_off_c, 2, 62, 127
2, 68915, Note_on_c, 4, 64, 127
2, 68972, Note_off_c, 4, 64, 127
2, 68976, Note_on_c, 2, 62, 127
2, 69033, Note_off_c, 2, 62, 127
2, 69037, Note_on_c, 4, 64, 127
2, 69094, Note_off_c, 4, 64, 127
2, 69098, Note_on_c, 7, 43, 127
2, 69098, Note_on_c, 2, 62, 127
2, 69279, Note_off_c, 2, 62, 127
2, 69281, Note_on_c, 0, 60, 127
2, 69456, Note_off_c, 7, 55, 127
2, 69460, Note_off_c, 7, 43, 127
2, 69462, Note_off_c, 0, 60, 127
2, 69464, Note_on_c, 0, 60, 127
2, 69647, Note_on_c, 0, 48, 127
2, 69828, Note_off_c, 0, 48, 127
2, 69830, Note_on_c, 7, 43, 127
2, 70013, Note_on_c, 0, 48, 127
2, 70188, Note_off_c, 0, 60, 127
2, 70196, Note_on_c, 4, 40, 127
2, 70381, Note_on_c, 7, 67, 127
2, 70562, Note_off_c, 7, 67, 127
2, 70578, Note_on_c, 7, 67, 127
2, 70759, Note_off_c, 7, 67, 127
2, 70761, Note_on_c, 7, 67, 127
2, 70924, Note_off_c, 4, 40, 127
2, 70926, Note_off_c, 7, 43, 127
2, 70942, Note_off_c, 7, 67, 127
2, 70944, Note_on_c, 8, 68, 127
2, 70944, Note_on_c, 5, 41, 127
2, 71003, Note_off_c, 8, 68, 127
2, 71005, Note_on_c, 7, 67, 127
2, 71064, Note_off_c, 7, 67, 127
2, 71066, Note_on_c, 8, 68, 127
2, 71125, Note_off_c, 8, 68, 127
2, 71127, Note_on_c, 11, 70, 127
2, 71281, Note_off_c, 0, 48, 127
2, 71308, Note_off_c, 11, 70, 127
2, 71310, Note_on_c, 7, 67, 127
2, 71310, Note_on_c, 4, 52, 127
2, 71491, Note_off_c, 7, 67, 127
2, 71493, Note_on_c, 11, 70, 127
2, 71674, Note_off_c, 11, 70, 127
2, 71674, Note_off_c, 4, 52, 127
2, 71676, Note_on_c, 8, 68, 127
2, 71676, Note_on_c, 5, 53, 127
2, 71857, Note_off_c, 8, 68, 127
2, 71859, Note_on_c, 7, 67, 127
2, 72040, Note_off_c, 7, 67, 127
2, 72042, Note_on_c, 8, 68, 127
2, 72042, Note_on_c, 2, 50, 127
2, 72223, Note_off_c, 8, 68, 127
2, 72225, Note_on_c, 11, 70, 127
2, 72400, Note_off_c, 5, 53, 127
2, 72406, Note_off_c, 11, 70, 127
2, 72406, Note_off_c, 2, 50, 127
2, 72406, Note_off_c, 5, 41, 127
2, 72408, Note_on_c, 7, 67, 127
2, 72408, Note_on_c, 0, 48, 127
2, 72408, Note_on_c, 4, 52, 127
2, 72589, Note_off_c, 7, 67, 127
2, 72591, Note_on_c, 0, 72, 127
2, 72772, Note_off_c, 0, 72, 127
2, 72774, Note_on_c, 0, 72, 127
2, 72955, Note_off_c, 0, 72, 127
2, 72957, Note_on_c, 0, 72, 127
2, 73132, Note_off_c, 4, 52, 127
2, 73132, Note_off_c, 0, 48, 127
2, 73138, Note_off_c, 0, 72, 127
2, 73140, Note_on_c, 0, 72, 127
2, 73199, Note_off_c, 0, 72, 127
2, 73201, Note_on_c, 12, 71, 127
2, 73260, Note_off_c, 12, 71, 127
2, 73262, Note_on_c, 0, 72, 127
2, 73321, Note_off_c, 0, 72, 127
2, 73323, Note_on_c, 0, 60, 127
2, 73504, Note_off_c, 0, 60, 127
2, 73506, Note_on_c, 7, 67, 127
2, 73506, Note_on_c, 5, 53, 127
2, 73506, Note_on_c, 12, 47, 127
2, 73506, Note_on_c, 2, 50, 127
2, 73506, Note_on_c, 7, 43, 127
2, 73565, Note_off_c, 7, 67, 127
2, 73567, Note_on_c, 5, 65, 127
2, 73626, Note_off_c, 5, 65, 127
2, 73628, Note_on_c, 7, 67, 127
2, 73687, Note_off_c, 7, 67, 127
2, 73689, Note_on_c, 7, 67, 127
2, 73870, Note_off_c, 7, 67, 127
2, 73870, Note_off_c, 7, 43, 127
2, 73870, Note_off_c, 2, 50, 127
2, 73870, Note_off_c, 12, 47, 127
2, 73870, Note_off_c, 5, 53, 127
2, 73872, Note_on_c, 7, 67, 127
2, 73872, Note_on_c, 0, 48, 127
2, 73931, Note_off_c, 0, 48, 127
2, 73933, Note_on_c, 12, 47, 127
2, 73992, Note_off_c, 12, 47, 127
2, 73994, Note_on_c, 0, 48, 127
2, 74055, Note_on_c, 4, 64, 127
2, 74238, Note_on_c, 0, 60, 127
2, 74604, Note_on_c, 0, 36, 127
2, 74968, Note_off_c, 7, 67, 127
2, 74970, Note_off_c, 4, 64, 127
2, 75151, Note_off_c, 0, 60, 127
2, 75169, Note_on_c, 4, 76, 127
2, 75324, Note_off_c, 0, 48, 127
2, 75334, Note_off_c, 0, 36, 127
2, 75350, Note_off_c, 4, 76, 127
2, 75352, Note_on_c, 0, 60, 127
2, 75352, Note_on_c, 7, 67, 127
2, 75443, Note_on_c, 0, 72, 127
2, 75534, Note_on_c, 7, 55, 127
2, 75534, Note_on_c, 4, 76, 127
2, 75715, Note_off_c, 7, 55, 127
2, 75717, Note_on_c, 4, 52, 127
2, 75900, Note_on_c, 7, 55, 127
2, 76068, Note_off_c, 4, 76, 127
2, 76076, Note_off_c, 7, 67, 127
2, 76082, Note_off_c, 0, 72, 127
2, 76084, Note_on_c, 0, 48, 127
2, 76267, Note_on_c, 4, 76, 127
2, 76448, Note_off_c, 4, 76, 127
2, 76450, Note_on_c, 2, 74, 127
2, 76509, Note_off_c, 2, 74, 127
2, 76511, Note_on_c, 4, 76, 127
2, 76570, Note_off_c, 4, 76, 127
2, 76572, Note_on_c, 2, 74, 127
2, 76618, Note_off_c, 0, 48, 127
2, 76624, Note_off_c, 4, 52, 127
2, 76626, Note_off_c, 7, 55, 127
2, 76632, Note_off_c, 2, 74, 127
2, 76634, Note_on_c, 0, 72, 127
2, 76815, Note_off_c, 0, 72, 127
2, 76815, Note_off_c, 0, 60, 127
2, 76817, Note_on_c, 5, 77, 127
2, 76876, Note_off_c, 5, 77, 127
2, 76878, Note_on_c, 4, 76, 127
2, 76937, Note_off_c, 4, 76, 127
2, 76939, Note_on_c, 5, 77, 127
2, 77000, Note_on_c, 10, 57, 127
2, 77183, Note_on_c, 5, 53, 127
2, 77366, Note_on_c, 0, 48, 127
2, 77549, Note_on_c, 10, 45, 127
2, 77635, Note_off_c, 5, 77, 127
2, 77732, Note_on_c, 0, 72, 127
2, 77900, Note_off_c, 0, 48, 127
2, 77908, Note_off_c, 5, 53, 127
2, 77914, Note_off_c, 0, 72, 127
2, 77916, Note_off_c, 10, 57, 127
2, 77916, Note_on_c, 5, 53, 127
2, 77916, Note_on_c, 2, 74, 127
2, 77975, Note_off_c, 2, 74, 127
2, 77977, Note_on_c, 0, 72, 127
2, 78036, Note_off_c, 0, 72, 127
2, 78038, Note_on_c, 2, 74, 127
2, 78097, Note_off_c, 2, 74, 127
2, 78099, Note_on_c, 3, 75, 127
2, 78274, Note_off_c, 10, 45, 127
2, 78280, Note_off_c, 3, 75, 127
2, 78282, Note_on_c, 11, 46, 127
2, 78282, Note_on_c, 2, 74, 127
2, 78463, Note_off_c, 2, 74, 127
2, 78465, Note_on_c, 5, 65, 127
2, 78640, Note_off_c, 5, 53, 127
2, 78646, Note_off_c, 5, 65, 127
2, 78646, Note_off_c, 11, 46, 127
2, 78648, Note_on_c, 11, 58, 127
2, 78648, Note_on_c, 2, 50, 127
2, 78648, Note_on_c, 5, 65, 127
2, 78829, Note_off_c, 5, 65, 127
2, 78831, Note_on_c, 5, 65, 127
2, 79012, Note_off_c, 5, 65, 127
2, 79012, Note_off_c, 2, 50, 127
2, 79014, Note_on_c, 3, 51, 127
2, 79014, Note_on_c, 7, 67, 127
2, 79195, Note_off_c, 7, 67, 127
2, 79197, Note_on_c, 11, 70, 127
2, 79372, Note_off_c, 11, 58, 127
2, 79378, Note_off_c, 11, 70, 127
2, 79380, Note_on_c, 0, 60, 127
2, 79380, Note_on_c, 10, 69, 127
2, 79439, Note_off_c, 10, 69, 127
2, 79441, Note_on_c, 11, 70, 127
2, 79500, Note_off_c, 11, 70, 127
2, 79502, Note_on_c, 10, 69, 127
2, 79561, Note_off_c, 10, 69, 127
2, 79563, Note_on_c, 7, 67, 127
2, 79738, Note_off_c, 3, 51, 127
2, 79744, Note_off_c, 7, 67, 127
2, 79744, Note_off_c, 0, 60, 127
2, 79746, Note_on_c, 2, 50, 127
2, 79746, Note_on_c, 6, 54, 127
2, 79746, Note_on_c, 10, 57, 127
2, 79746, Note_on_c, 2, 74, 127
2, 79927, Note_off_c, 2, 74, 127
2, 79929, Note_on_c, 6, 66, 127
2, 80110, Note_off_c, 6, 66, 127
2, 80112, Note_on_c, 6, 66, 127
2, 80280, Note_off_c, 10, 57, 127
2, 80280, Note_off_c, 6, 54, 127
2, 80280, Note_off_c, 2, 50, 127
2, 80293, Note_off_c, 6, 66, 127
2, 80295, Note_on_c, 6, 66, 127
2, 80476, Note_off_c, 6, 66, 127
2, 80478, Note_on_c, 10, 69, 127
2, 80537, Note_off_c, 10, 69, 127
2, 80539, Note_on_c, 7, 67, 127
2, 80598, Note_off_c, 7, 67, 127
2, 80600, Note_on_c, 10, 69, 127
2, 80661, Note_on_c, 4, 52, 127
2, 80842, Note_off_c, 4, 52, 127
2, 80842, Note_off_c, 10, 69, 127
2, 80844, Note_on_c, 2, 50, 127
2, 80844, Note_on_c, 2, 62, 127
2, 80903, Note_off_c, 2, 50, 127
2, 80905, Note_on_c, 4, 52, 127
2, 80964, Note_off_c, 4, 52, 127
2, 80966, Note_on_c, 2, 50, 127
2, 81025, Note_off_c, 2, 50, 127
2, 81027, Note_on_c, 0, 48, 127
2, 81208, Note_off_c, 0, 48, 127
2, 81210, Note_on_c, 7, 55, 127
2, 81210, Note_on_c, 2, 50, 127
2, 81210, Note_on_c, 12, 47, 127
2, 81391, Note_off_c, 2, 62, 127
2, 81393, Note_on_c, 12, 71, 127
2, 81574, Note_off_c, 12, 71, 127
2, 81576, Note_on_c, 2, 74, 127
2, 81759, Note_on_c, 12, 71, 127
2, 81934, Note_off_c, 12, 47, 127
2, 81934, Note_off_c, 2, 50, 127
2, 81934, Note_off_c, 7, 55, 127
2, 81942, Note_on_c, 7, 67, 127
2, 82125, Note_on_c, 7, 55, 127
2, 82306, Note_off_c, 7, 55, 127
2, 82308, Note_on_c, 10, 57, 127
2, 82476, Note_off_c, 7, 67, 127
2, 82484, Note_off_c, 12, 71, 127
2, 82490, Note_off_c, 10, 57, 127
2, 82492, Note_off_c, 2, 74, 127
2, 82492, Note_on_c, 12, 59, 127
2, 82673, Note_off_c, 12, 59, 127
2, 82675, Note_on_c, 0, 60, 127
2, 82734, Note_off_c, 0, 60, 127
2, 82736, Note_on_c, 12, 59, 127
2, 82795, Note_off_c, 12, 59, 127
2, 82797, Note_on_c, 0, 60, 127
2, 82858, Note_on_c, 7, 67, 127
2, 83039, Note_off_c, 7, 67, 127
2, 83041, Note_on_c, 7, 67, 127
2, 83222, Note_off_c, 7, 67, 127
2, 83224, Note_on_c, 7, 67, 127
2, 83405, Note_off_c, 7, 67, 127
2, 83407, Note_on_c, 0, 72, 127
2, 83466, Note_off_c, 0, 72, 127
2, 83468, Note_on_c, 12, 71, 127
2, 83521, Note_off_c, 0, 60, 127
2, 83527, Note_off_c, 12, 71, 127
2, 83529, Note_on_c, 0, 72, 127
2, 83590, Note_on_c, 2, 50, 127
2, 83771, Note_off_c, 2, 50, 127
2, 83773, Note_on_c, 0, 48, 127
2, 83832, Note_off_c, 0, 48, 127
2, 83834, Note_on_c, 2, 50, 127
2, 83893, Note_off_c, 2, 50, 127
2, 83895, Note_on_c, 0, 48, 127
2, 83954, Note_off_c, 0, 48, 127
2, 83956, Note_on_c, 11, 46, 127
2, 84137, Note_off_c, 11, 46, 127
2, 84139, Note_on_c, 10, 45, 127
2, 84139, Note_on_c, 5, 53, 127
2, 84139, Note_on_c, 0, 48, 127
2, 84225, Note_off_c, 0, 72, 127
2, 84322, Note_on_c, 0, 72, 127
2, 84503, Note_off_c, 0, 72, 127
2, 84505, Note_on_c, 0, 72, 127
2, 84686, Note_off_c, 0, 72, 127
2, 84688, Note_on_c, 0, 72, 127
2, 84825, Note_off_c, 0, 48, 127
2, 84825, Note_off_c, 5, 53, 127
2, 84825, Note_off_c, 10, 45, 127
2, 84869, Note_off_c, 0, 72, 127
2, 84871, Note_on_c, 5, 77, 127
2, 84930, Note_off_c, 5, 77, 127
2, 84932, Note_on_c, 4, 76, 127
2, 84991, Note_off_c, 4, 76, 127
2, 84993, Note_on_c, 5, 77, 127
2, 85054, Note_on_c, 10, 57, 127
2, 85235, Note_off_c, 10, 57, 127
2, 85237, Note_on_c, 7, 55, 127
2, 85296, Note_off_c, 7, 55, 127
2, 85298, Note_on_c, 10, 57, 127
2, 85357, Note_off_c, 10, 57, 127
2, 85359, Note_on_c, 7, 55, 127
2, 85418, Note_off_c, 7, 55, 127
2, 85420, Note_on_c, 5, 53, 127
2, 85527, Note_off_c, 5, 77, 127
2, 85601, Note_off_c, 5, 53, 127
2, 85603, Note_on_c, 11, 58, 127
2, 85786, Note_on_c, 5, 65, 127
2, 85967, Note_off_c, 5, 65, 127
2, 85969, Note_on_c, 7, 67, 127
2, 86028, Note_off_c, 7, 67, 127
2, 86030, Note_on_c, 5, 65, 127
2, 86089, Note_off_c, 5, 65, 127
2, 86091, Note_on_c, 7, 67, 127
2, 86150, Note_off_c, 7, 67, 127
2, 86152, Note_on_c, 10, 69, 127
2, 86327, Note_off_c, 11, 58, 127
2, 86333, Note_off_c, 10, 69, 127
2, 86335, Note_on_c, 11, 70, 127
2, 86516, Note_off_c, 11, 70, 127
2, 86518, Note_on_c, 0, 72, 127
2, 86699, Note_off_c, 0, 72, 127
2, 86701, Note_on_c, 5, 53, 127
2, 86701, Note_on_c, 2, 50, 127
2, 86701, Note_on_c, 11, 46, 127
2, 86701, Note_on_c, 11, 70, 127
2, 86760, Note_off_c, 11, 70, 127
2, 86762, Note_on_c, 0, 72, 127
2, 86821, Note_off_c, 0, 72, 127
2, 86823, Note_on_c, 11, 70, 127
2, 86882, Note_off_c, 11, 70, 127
2, 86884, Note_on_c, 10, 69, 127
2, 87065, Note_off_c, 10, 69, 127
2, 87065, Note_off_c, 11, 46, 127
2, 87065, Note_off_c, 2, 50, 127
2, 87065, Note_off_c, 5, 53, 127
2, 87067, Note_on_c, 12, 47, 127
2, 87067, Note_on_c, 2, 50, 127
2, 87067, Note_on_c, 7, 55, 127
2, 87067, Note_on_c, 7, 67, 127
2, 87248, Note_off_c, 7, 67, 127
2, 87250, Note_on_c, 2, 74, 127
2, 87431, Note_off_c, 2, 74, 127
2, 87433, Note_on_c, 2, 74, 127
2, 87614, Note_off_c, 2, 74, 127
2, 87616, Note_on_c, 2, 74, 127
2, 87791, Note_off_c, 7, 55, 127
2, 87791, Note_off_c, 2, 50, 127
2, 87791, Note_off_c, 12, 47, 127
2, 87797, Note_off_c, 2, 74, 127
2, 87799, Note_on_c, 7, 79, 127
2, 87858, Note_off_c, 7, 79, 127
2, 87860, Note_on_c, 5, 77, 127
2, 87919, Note_off_c, 5, 77, 127
2, 87921, Note_on_c, 7, 79, 127
2, 87982, Note_on_c, 7, 55, 127
2, 88163, Note_off_c, 7, 55, 127
2, 88165, Note_on_c, 10, 57, 127
2, 88346, Note_off_c, 10, 57, 127
2, 88348, Note_on_c, 12, 59, 127
2, 88455, Note_off_c, 7, 79, 127
2, 88529, Note_off_c, 12, 59, 127
2, 88531, Note_on_c, 0, 60, 127
2, 88714, Note_on_c, 7, 67, 127
2, 88895, Note_off_c, 7, 67, 127
2, 88895, Note_off_c, 0, 60, 127
2, 88897, Note_on_c, 0, 48, 127
2, 88897, Note_on_c, 4, 64, 127
2, 89078, Note_off_c, 4, 64, 127
2, 89080, Note_on_c, 7, 67, 127
2, 89259, Note_off_c, 0, 48, 127
2, 89261, Note_off_c, 7, 67, 127
2, 89263, Note_on_c, 0, 60, 127
2, 89446, Note_on_c, 11, 58, 127
2, 89627, Note_off_c, 11, 58, 127
2, 89629, Note_on_c, 10, 57, 127
2, 89688, Note_off_c, 10, 57, 127
2, 89690, Note_on_c, 11, 58, 127
2, 89749, Note_off_c, 11, 58, 127
2, 89751, Note_on_c, 10, 57, 127
2, 89810, Note_off_c, 10, 57, 127
2, 89812, Note_on_c, 7, 55, 127
2, 89987, Note_off_c, 0, 60, 127
2, 89993, Note_off_c, 7, 55, 127
2, 89995, Note_on_c, 6, 54, 127
2, 90178, Note_on_c, 10, 69, 127
2, 90357, Note_off_c, 6, 54, 127
2, 90359, Note_off_c, 10, 69, 127
2, 90361, Note_on_c, 10, 69, 127
2, 90542, Note_off_c, 10, 69, 127
2, 90544, Note_on_c, 10, 69, 127
2, 90725, Note_off_c, 10, 69, 127
2, 90727, Note_on_c, 2, 74, 127
2, 90786, Note_off_c, 2, 74, 127
2, 90788, Note_on_c, 0, 72, 127
2, 90847, Note_off_c, 0, 72, 127
2, 90849, Note_on_c, 2, 74, 127
2, 90910, Note_on_c, 2, 50, 127
2, 91091, Note_off_c, 2, 50, 127
2, 91093, Note_on_c, 4, 52, 127
2, 91274, Note_off_c, 4, 52, 127
2, 91276, Note_on_c, 6, 54, 127
2, 91457, Note_off_c, 6, 54, 127
2, 91459, Note_on_c, 7, 55, 127
2, 91573, Note_off_c, 2, 74, 127
2, 91642, Note_on_c, 6, 66, 127
2, 91823, Note_off_c, 6, 66, 127
2, 91825, Note_on_c, 7, 67, 127
2, 91884, Note_off_c, 7, 67, 127
2, 91886, Note_on_c, 6, 66, 127
2, 91945, Note_off_c, 6, 66, 127
2, 91947, Note_on_c, 7, 67, 127
2, 92006, Note_off_c, 7, 67, 127
2, 92008, Note_on_c, 10, 69, 127
2, 92183, Note_off_c, 7, 55, 127
2, 92189, Note_off_c, 10, 69, 127
2, 92191, Note_on_c, 11, 70, 127
2, 92250, Note_off_c, 11, 70, 127
2, 92252, Note_on_c, 10, 69, 127
2, 92311, Note_off_c, 10, 69, 127
2, 92313, Note_on_c, 11, 70, 127
2, 92374, Note_on_c, 10, 57, 127
2, 92555, Note_off_c, 10, 57, 127
2, 92557, Note_on_c, 7, 55, 127
2, 92616, Note_off_c, 7, 55, 127
2, 92618, Note_on_c, 10, 57, 127
2, 92677, Note_off_c, 10, 57, 127
2, 92679, Note_on_c, 7, 55, 127
2, 92738, Note_off_c, 7, 55, 127
2, 92740, Note_on_c, 5, 53, 127
2, 92921, Note_off_c, 5, 53, 127
2, 92923, Note_on_c, 4, 52, 127
2, 93009, Note_off_c, 11, 70, 127
2, 93106, Note_on_c, 7, 67, 127
2, 93287, Note_off_c, 7, 67, 127
2, 93289, Note_on_c, 7, 67, 127
2, 93470, Note_off_c, 7, 67, 127
2, 93472, Note_on_c, 7, 67, 127
2, 93647, Note_off_c, 4, 52, 127
2, 93653, Note_off_c, 7, 67, 127
2, 93655, Note_on_c, 0, 72, 127
2, 93714, Note_off_c, 0, 72, 127
2, 93716, Note_on_c, 11, 70, 127
2, 93775, Note_off_c, 11, 70, 127
2, 93777, Note_on_c, 0, 72, 127
2, 93838, Note_on_c, 0, 48, 127
2, 94019, Note_off_c, 0, 48, 127
2, 94021, Note_on_c, 2, 50, 127
2, 94202, Note_off_c, 2, 50, 127
2, 94204, Note_on_c, 4, 52, 127
2, 94385, Note_off_c, 4, 52, 127
2, 94387, Note_on_c, 5, 53, 127
2, 94568, Note_off_c, 0, 72, 127
2, 94570, Note_on_c, 0, 72, 127
2, 94751, Note_off_c, 0, 72, 127
2, 94751, Note_off_c, 5, 53, 127
2, 94753, Note_on_c, 3, 51, 127
2, 94753, Note_on_c, 2, 74, 127
2, 94934, Note_off_c, 2, 74, 127
2, 94936, Note_on_c, 3, 75, 127
2, 95117, Note_off_c, 3, 75, 127
2, 95117, Note_off_c, 3, 51, 127
2, 95119, Note_on_c, 2, 50, 127
2, 95119, Note_on_c, 5, 77, 127
2, 95302, Note_on_c, 5, 65, 127
2, 95483, Note_off_c, 5, 65, 127
2, 95483, Note_off_c, 2, 50, 127
2, 95485, Note_on_c, 0, 48, 127
2, 95485, Note_on_c, 5, 65, 127
2, 95666, Note_off_c, 5, 65, 127
2, 95668, Note_on_c, 5, 65, 127
2, 95843, Note_off_c, 5, 77, 127
2, 95849, Note_off_c, 5, 65, 127
2, 95849, Note_off_c, 0, 48, 127
2, 95851, Note_on_c, 11, 46, 127
2, 95851, Note_on_c, 2, 74, 127
2, 96034, Note_on_c, 5, 65, 127
2, 96215, Note_off_c, 5, 65, 127
2, 96215, Note_off_c, 11, 46, 127
2, 96217, Note_on_c, 11, 58, 127
2, 96217, Note_on_c, 5, 65, 127
2, 96398, Note_off_c, 5, 65, 127
2, 96400, Note_on_c, 5, 65, 127
2, 96575, Note_off_c, 2, 74, 127
2, 96581, Note_off_c, 5, 65, 127
2, 96581, Note_off_c, 11, 58, 127
2, 96583, Note_on_c, 10, 57, 127
2, 96583, Note_on_c, 0, 72, 127
2, 96766, Note_on_c, 5, 65, 127
2, 96947, Note_off_c, 5, 65, 127
2, 96947, Note_off_c, 10, 57, 127
2, 96949, Note_on_c, 5, 53, 127
2, 96949, Note_on_c, 5, 65, 127
2, 97130, Note_off_c, 5, 65, 127
2, 97132, Note_on_c, 5, 65, 127
2, 97307, Note_off_c, 0, 72, 127
2, 97313, Note_off_c, 5, 65, 127
2, 97313, Note_off_c, 5, 53, 127
2, 97315, Note_on_c, 11, 58, 127
2, 97315, Note_on_c, 2, 74, 127
2, 97498, Note_on_c, 5, 65, 127
2, 97677, Note_off_c, 2, 74, 127
2, 97679, Note_off_c, 5, 65, 127
2, 97679, Note_off_c, 11, 58, 127
2, 97681, Note_on_c, 11, 46, 127
2, 97681, Note_on_c, 4, 76, 127
2, 97864, Note_on_c, 7, 67, 127
2, 98043, Note_off_c, 4, 76, 127
2, 98045, Note_off_c, 7, 67, 127
2, 98045, Note_off_c, 11, 46, 127
2, 98047, Note_on_c, 10, 45, 127
2, 98047, Note_on_c, 5, 77, 127
2, 98230, Note_on_c, 10, 69, 127
2, 98409, Note_off_c, 5, 77, 127
2, 98411, Note_off_c, 10, 69, 127
2, 98411, Note_off_c, 10, 45, 127
2, 98413, Note_on_c, 7, 43, 127
2, 98413, Note_on_c, 7, 79, 127
2, 98596, Note_on_c, 12, 71, 127
2, 98775, Note_off_c, 7, 79, 127
2, 98777, Note_off_c, 12, 71, 127
2, 98777, Note_off_c, 7, 43, 127
2, 98779, Note_on_c, 0, 48, 127
2, 98779, Note_on_c, 4, 76, 127
2, 98962, Note_on_c, 7, 67, 127
2, 99143, Note_off_c, 7, 67, 127
2, 99145, Note_on_c, 7, 67, 127
2, 99326, Note_off_c, 7, 67, 127
2, 99328, Note_on_c, 7, 67, 127
2, 99503, Note_off_c, 0, 48, 127
2, 99509, Note_off_c, 7, 67, 127
2, 99511, Note_on_c, 0, 72, 127
2, 99570, Note_off_c, 0, 72, 127
2, 99572, Note_on_c, 11, 70, 127
2, 99631, Note_off_c, 11, 70, 127
2, 99633, Note_on_c, 0, 72, 127
2, 99694, Note_on_c, 0, 60, 127
2, 99875, Note_off_c, 0, 60, 127
2, 99877, Note_on_c, 0, 60, 127
2, 100058, Note_off_c, 0, 60, 127
2, 100060, Note_on_c, 0, 60, 127
2, 100241, Note_off_c, 0, 60, 127
2, 100241, Note_off_c, 4, 76, 127
2, 100243, Note_on_c, 10, 57, 127
2, 100329, Note_off_c, 0, 72, 127
2, 100426, Note_on_c, 5, 77, 127
2, 100607, Note_off_c, 5, 77, 127
2, 100609, Note_on_c, 5, 77, 127
2, 100790, Note_off_c, 5, 77, 127
2, 100792, Note_on_c, 5, 77, 127
2, 100967, Note_off_c, 10, 57, 127
2, 100973, Note_off_c, 5, 77, 127
2, 100975, Note_on_c, 0, 72, 127
2, 101034, Note_off_c, 0, 72, 127
2, 101036, Note_on_c, 11, 70, 127
2, 101095, Note_off_c, 11, 70, 127
2, 101097, Note_on_c, 0, 72, 127
2, 101158, Note_on_c, 10, 57, 127
2, 101339, Note_off_c, 10, 57, 127
2, 101341, Note_on_c, 7, 55, 127
2, 101400, Note_off_c, 7, 55, 127
2, 101402, Note_on_c, 10, 57, 127
2, 101461, Note_off_c, 10, 57, 127
2, 101463, Note_on_c, 7, 55, 127
2, 101522, Note_off_c, 7, 55, 127
2, 101524, Note_on_c, 5, 53, 127
2, 101705, Note_off_c, 5, 53, 127
2, 101707, Note_on_c, 4, 52, 127
2, 101707, Note_on_c, 0, 60, 127
2, 101707, Note_on_c, 7, 55, 127
2, 101793, Note_off_c, 0, 72, 127
2, 101890, Note_on_c, 0, 72, 127
2, 102071, Note_off_c, 0, 72, 127
2, 102073, Note_on_c, 0, 72, 127
2, 102254, Note_off_c, 0, 72, 127
2, 102256, Note_on_c, 0, 72, 127
2, 102437, Note_off_c, 0, 72, 127
2, 102437, Note_off_c, 7, 55, 127
2, 102437, Note_off_c, 0, 60, 127
2, 102437, Note_off_c, 4, 52, 127
2, 102439, Note_on_c, 5, 53, 127
2, 102439, Note_on_c, 10, 69, 127
2, 102620, Note_off_c, 10, 69, 127
2, 102622, Note_on_c, 0, 72, 127
2, 102803, Note_off_c, 0, 72, 127
2, 102805, Note_on_c, 10, 45, 127
2, 102805, Note_on_c, 0, 72, 127
2, 102986, Note_off_c, 0, 72, 127
2, 102988, Note_on_c, 0, 72, 127
2, 103169, Note_off_c, 0, 72, 127
2, 103169, Note_off_c, 10, 45, 127
2, 103171, Note_on_c, 11, 46, 127
2, 103171, Note_on_c, 2, 74, 127
2, 103247, Note_off_c, 2, 74, 127
2, 103247, Note_on_c, 0, 72, 127
2, 103323, Note_off_c, 0, 72, 127
2, 103323, Note_on_c, 2, 74, 127
2, 103399, Note_off_c, 2, 74, 127
2, 103399, Note_on_c, 4, 76, 127
2, 103494, Note_off_c, 4, 76, 127
2, 103534, Note_off_c, 11, 46, 127
2, 103536, Note_on_c, 2, 50, 127
2, 103536, Note_on_c, 5, 77, 127
2, 103717, Note_off_c, 5, 77, 127
2, 103719, Note_on_c, 11, 70, 127
2, 103900, Note_off_c, 11, 70, 127
2, 103900, Note_off_c, 2, 50, 127
2, 103902, Note_on_c, 0, 48, 127
2, 103902, Note_on_c, 10, 69, 127
2, 104083, Note_off_c, 10, 69, 127
2, 104085, Note_on_c, 11, 70, 127
2, 104266, Note_off_c, 11, 70, 127
2, 104268, Note_off_c, 5, 53, 127
2, 104268, Note_on_c, 4, 52, 127
2, 104268, Note_on_c, 7, 67, 127
2, 104449, Note_off_c, 7, 67, 127
2, 104451, Note_on_c, 10, 69, 127
2, 104626, Note_off_c, 0, 48, 127
2, 104630, Note_off_c, 4, 52, 127
2, 104632, Note_off_c, 10, 69, 127
2, 104634, Note_on_c, 5, 65, 127
2, 104693, Note_off_c, 5, 65, 127
2, 104695, Note_on_c, 4, 64, 127
2, 104754, Note_off_c, 4, 64, 127
2, 104756, Note_on_c, 5, 65, 127
2, 104817, Note_on_c, 5, 53, 127
2, 104998, Note_off_c, 5, 53, 127
2, 105000, Note_on_c, 5, 53, 127
2, 105181, Note_off_c, 5, 53, 127
2, 105183, Note_on_c, 5, 53, 127
2, 105366, Note_on_c, 5, 41, 127
2, 105480, Note_off_c, 5, 65, 127
2, 105547, Note_off_c, 5, 41, 127
2, 105549, Note_on_c, 10, 45, 127
2, 105730, Note_off_c, 10, 45, 127
2, 105732, Note_on_c, 0, 48, 127
2, 105913, Note_off_c, 0, 48, 127
2, 105915, Note_on_c, 10, 45, 127
2, 106096, Note_off_c, 10, 45, 127
2, 106114, Note_on_c, 5, 41, 127
2, 106289, Note_off_c, 5, 53, 127
2, 106297, Note_on_c, 10, 69, 127
2, 106480, Note_on_c, 0, 60, 127
2, 106659, Note_off_c, 10, 69, 127
2, 106663, Note_on_c, 10, 69, 127
2, 106842, Note_off_c, 0, 60, 127
2, 106844, Note_off_c, 10, 69, 127
2, 106846, Note_on_c, 2, 62, 127
2, 107029, Note_off_c, 5, 41, 127
2, 107029, Note_on_c, 11, 70, 127
2, 107208, Note_off_c, 2, 62, 127
2, 107212, Note_on_c, 4, 64, 127
2, 107212, Note_on_c, 4, 52, 127
2, 107212, Note_on_c, 11, 46, 127
2, 107212, Note_on_c, 5, 41, 127
2, 107391, Note_off_c, 11, 70, 127
2, 107395, Note_on_c, 0, 72, 127
2, 107574, Note_off_c, 4, 64, 127
2, 107576, Note_off_c, 0, 72, 127
2, 107576, Note_off_c, 5, 41, 127
2, 107576, Note_off_c, 11, 46, 127
2, 107576, Note_off_c, 4, 52, 127
2, 107578, Note_on_c, 5, 65, 127
2, 107578, Note_on_c, 10, 69, 127
2, 107578, Note_on_c, 5, 53, 127
2, 107578, Note_on_c, 0, 48, 127
2, 107578, Note_on_c, 10, 45, 127
2, 107578, Note_on_c, 5, 41, 127
2, 107785, Note_off_c, 10, 69, 127
2, 107785, Note_off_c, 5, 65, 127
2, 107787, Note_on_c, 5, 77, 127
2, 107994, Note_off_c, 5, 77, 127
2, 107996, Note_on_c, 5, 77, 127
2, 108203, Note_off_c, 5, 77, 127
2, 108205, Note_on_c, 5, 77, 127
2, 108412, Note_off_c, 5, 77, 127
2, 108414, Note_on_c, 5, 77, 127
2, 108482, Note_off_c, 5, 77, 127
2, 108484, Note_on_c, 4, 76, 127
2, 108552, Note_off_c, 4, 76, 127
2, 108554, Note_on_c, 5, 77, 127
2, 108622, Note_off_c, 5, 77, 127
2, 108624, Note_on_c, 5, 65, 127
2, 108831, Note_off_c, 5, 65, 127
2, 108831, Note_off_c, 5, 41, 127
2, 108831, Note_off_c, 10, 45, 127
2, 108831, Note_off_c, 0, 48, 127
2, 108831, Note_off_c, 5, 53, 127
2, 108833, Note_on_c, 0, 72, 127
2, 108833, Note_on_c, 4, 64, 127
2, 108833, Note_on_c, 7, 67, 127
2, 108833, Note_on_c, 11, 70, 127
2, 109040, Note_off_c, 11, 70, 127
2, 109040, Note_off_c, 7, 67, 127
2, 109040, Note_off_c, 4, 64, 127
2, 109040, Note_off_c, 0, 72, 127
2, 109042, Note_on_c, 0, 72, 127
2, 109042, Note_on_c, 11, 70, 127
2, 109042, Note_on_c, 7, 67, 127
2, 109042, Note_on_c, 4, 64, 127
2, 109249, Note_off_c, 4, 64, 127
2, 109249, Note_off_c, 7, 67, 127
2, 109249, Note_off_c, 11, 70, 127
2, 109249, Note_off_c, 0, 72, 127
2, 109251, Note_on_c, 0, 72, 127
2, 109251, Note_on_c, 10, 69, 127
2, 109251, Note_on_c, 5, 65, 127
2, 109460, Note_on_c, 0, 60, 127
2, 109460, Note_on_c, 5, 41, 127
2, 109669, Note_on_c, 10, 45, 127
2, 109878, Note_on_c, 0, 48, 127
2, 110087, Note_on_c, 5, 53, 127
2, 111551, Note_off_c, 0, 48, 127
2, 111673, Note_off_c, 0, 60, 127
2, 111758, Note_off_c, 5, 65, 127
2, 111758, Note_off_c, 10, 69, 127
2, 111758, Note_off_c, 0, 72, 127
2, 111762, Note_off_c, 10, 45, 127
2, 111967, Note_off_c, 5, 41, 127
2, 112091, Note_off_c, 5, 53, 127
2, 113856, Note_on_c, 5, 77, 127
2, 114273, Note_off_c, 5, 77, 127
2, 114275, Note_on_c, 10, 69, 127
2, 114275, Note_on_c, 0, 72, 127
2, 114275, Note_on_c, 5, 77, 127
2, 114275, Note_on_c, 5, 53, 127
2, 114760, Note_on_c, 10, 57, 127
2, 115001, Note_off_c, 5, 77, 127
2, 115001, Note_off_c, 0, 72, 127
2, 115001, Note_off_c, 10, 69, 127
2, 115002, Note_on_c, 5, 77, 127
2, 115243, Note_off_c, 5, 77, 127
2, 115243, Note_off_c, 10, 57, 127
2, 115244, Note_on_c, 5, 77, 127
2, 115244, Note_on_c, 0, 60, 127
2, 115487, Note_on_c, 5, 65, 127
2, 115724, Note_off_c, 5, 77, 127
2, 115728, Note_off_c, 5, 65, 127
2, 115728, Note_off_c, 0, 60, 127
2, 115729, Note_on_c, 2, 74, 127
2, 115729, Note_on_c, 11, 58, 127
2, 115810, Note_off_c, 2, 74, 127
2, 115811, Note_on_c, 0, 72, 127
2, 115892, Note_off_c, 0, 72, 127
2, 115893, Note_on_c, 2, 74, 127
2, 115970, Note_off_c, 11, 58, 127
2, 115971, Note_on_c, 10, 57, 127
2, 115974, Note_off_c, 2, 74, 127
2, 115974, Note_on_c, 0, 72, 127
2, 116195, Note_off_c, 0, 72, 127
2, 116206, Note_off_c, 5, 53, 127
2, 116212, Note_off_c, 10, 57, 127
2, 116213, Note_on_c, 0, 72, 127
2, 116213, Note_on_c, 7, 55, 127
2, 116380, Note_on_c, 11, 70, 127
2, 116394, Note_off_c, 0, 72, 127
2, 116439, Note_off_c, 11, 70, 127
2, 116445, Note_on_c, 0, 72, 127
2, 116504, Note_off_c, 0, 72, 127
2, 116510, Note_on_c, 11, 70, 127
2, 116569, Note_off_c, 11, 70, 127
2, 116575, Note_on_c, 0, 72, 127
2, 116634, Note_off_c, 0, 72, 127
2, 116640, Note_on_c, 11, 70, 127
2, 116696, Note_on_c, 4, 52, 127
2, 116939, Note_on_c, 10, 69, 127
2, 116943, Note_off_c, 11, 70, 127
2, 117180, Note_off_c, 10, 69, 127
2, 117180, Note_off_c, 4, 52, 127
2, 117180, Note_off_c, 7, 55, 127
2, 117181, Note_on_c, 11, 70, 127
2, 117181, Note_on_c, 5, 53, 127
2, 117422, Note_off_c, 5, 53, 127
2, 117423, Note_on_c, 7, 55, 127
2, 117660, Note_off_c, 11, 70, 127
2, 117664, Note_off_c, 7, 55, 127
2, 117664, Note_on_c, 10, 69, 127
2, 117665, Note_on_c, 10, 57, 127
2, 117841, Note_off_c, 10, 69, 127
2, 117908, Note_on_c, 0, 72, 127
2, 118149, Note_off_c, 0, 72, 127
2, 118149, Note_off_c, 10, 57, 127
2, 118150, Note_on_c, 11, 70, 127
2, 118150, Note_on_c, 5, 53, 127
2, 118231, Note_on_c, 0, 72, 127
2, 118234, Note_off_c, 11, 70, 127
2, 118312, Note_on_c, 11, 70, 127
2, 118316, Note_off_c, 0, 72, 127
2, 118393, Note_off_c, 11, 70, 127
2, 118393, Note_on_c, 10, 69, 127
2, 118634, Note_off_c, 10, 69, 127
2, 118634, Note_off_c, 5, 53, 127
2, 118635, Note_on_c, 2, 74, 127
2, 118635, Note_on_c, 11, 58, 127
2, 118694, Note_off_c, 2, 74, 127
2, 118695, Note_on_c, 0, 72, 127
2, 118754, Note_off_c, 0, 72, 127
2, 118755, Note_on_c, 2, 74, 127
2, 118875, Note_off_c, 2, 74, 127
2, 118876, Note_on_c, 3, 75, 127
2, 119117, Note_off_c, 3, 75, 127
2, 119118, Note_on_c, 2, 74, 127
2, 119118, Note_on_c, 11, 46, 127
2, 119359, Note_off_c, 2, 74, 127
2, 119359, Note_off_c, 11, 58, 127
2, 119360, Note_on_c, 0, 72, 127
2, 119360, Note_on_c, 10, 57, 127
2, 119601, Note_off_c, 10, 57, 127
2, 119601, Note_off_c, 0, 72, 127
2, 119602, Note_on_c, 0, 72, 127
2, 119602, Note_on_c, 10, 57, 127
2, 119661, Note_off_c, 10, 57, 127
2, 119661, Note_off_c, 0, 72, 127
2, 119662, Note_on_c, 11, 70, 127
2, 119662, Note_on_c, 7, 55, 127
2, 119721, Note_off_c, 7, 55, 127
2, 119721, Note_off_c, 11, 70, 127
2, 119722, Note_on_c, 0, 72, 127
2, 119722, Note_on_c, 10, 57, 127
2, 119781, Note_off_c, 10, 57, 127
2, 119781, Note_off_c, 0, 72, 127
2, 119782, Note_on_c, 11, 70, 127
2, 119782, Note_on_c, 7, 55, 127
2, 119841, Note_off_c, 7, 55, 127
2, 119841, Note_off_c, 11, 70, 127
2, 119842, Note_on_c, 10, 69, 127
2, 119842, Note_on_c, 5, 53, 127
2, 120083, Note_off_c, 5, 53, 127
2, 120083, Note_off_c, 10, 69, 127
2, 120083, Note_off_c, 11, 46, 127
2, 120084, Note_on_c, 10, 69, 127
2, 120084, Note_on_c, 11, 46, 127
2, 120084, Note_on_c, 4, 52, 127
2, 120228, Note_on_c, 7, 67, 127
2, 120256, Note_off_c, 10, 69, 127
2, 120288, Note_off_c, 7, 67, 127
2, 120307, Note_on_c, 10, 69, 127
2, 120366, Note_off_c, 10, 69, 127
2, 120372, Note_on_c, 7, 67, 127
2, 120431, Note_off_c, 7, 67, 127
2, 120437, Note_on_c, 5, 65, 127
2, 120496, Note_off_c, 5, 65, 127
2, 120502, Note_on_c, 7, 67, 127
2, 120561, Note_off_c, 7, 67, 127
2, 120566, Note_off_c, 4, 52, 127
2, 120566, Note_off_c, 11, 46, 127
2, 120567, Note_on_c, 10, 69, 127
2, 120567, Note_on_c, 5, 53, 127
2, 120567, Note_on_c, 10, 45, 127
2, 121051, Note_off_c, 10, 45, 127
2, 121051, Note_off_c, 5, 53, 127
2, 121051, Note_off_c, 10, 69, 127
2, 121052, Note_on_c, 0, 72, 127
2, 121052, Note_on_c, 4, 52, 127
2, 121052, Note_on_c, 7, 43, 127
2, 121132, Note_off_c, 0, 72, 127
2, 121133, Note_on_c, 11, 70, 127
2, 121213, Note_off_c, 11, 70, 127
2, 121214, Note_on_c, 0, 72, 127
2, 121294, Note_off_c, 0, 72, 127
2, 121295, Note_on_c, 11, 70, 127
2, 121409, Note_off_c, 11, 70, 127
2, 121417, Note_on_c, 0, 72, 127
2, 121531, Note_off_c, 0, 72, 127
2, 121537, Note_off_c, 7, 43, 127
2, 121537, Note_off_c, 4, 52, 127
2, 121538, Note_on_c, 10, 69, 127
2, 121538, Note_on_c, 5, 53, 127
2, 121538, Note_on_c, 5, 41, 127
2, 121779, Note_off_c, 10, 69, 127
2, 121780, Note_on_c, 11, 70, 127
2, 121900, Note_off_c, 11, 70, 127
2, 121901, Note_on_c, 0, 72, 127
2, 122021, Note_off_c, 0, 72, 127
2, 122021, Note_off_c, 5, 41, 127
2, 122022, Note_on_c, 11, 70, 127
2, 122022, Note_on_c, 0, 48, 127
2, 122143, Note_on_c, 10, 69, 127
2, 122149, Note_off_c, 11, 70, 127
2, 122216, Note_on_c, 11, 70, 127
2, 122219, Note_off_c, 10, 69, 127
2, 122290, Note_on_c, 10, 69, 127
2, 122293, Note_off_c, 11, 70, 127
2, 122364, Note_on_c, 11, 70, 127
2, 122367, Note_off_c, 10, 69, 127
2, 122438, Note_on_c, 10, 69, 127
2, 122441, Note_off_c, 11, 70, 127
2, 122508, Note_off_c, 5, 53, 127
2, 122509, Note_on_c, 4, 52, 127
2, 122514, Note_off_c, 10, 69, 127
2, 122519, Note_on_c, 11, 70, 127
2, 122624, Note_off_c, 11, 70, 127
2, 122630, Note_on_c, 10, 69, 127
2, 122750, Note_off_c, 10, 69, 127
2, 122751, Note_on_c, 7, 67, 127
2, 122871, Note_off_c, 7, 67, 127
2, 122872, Note_on_c, 5, 65, 127
2, 122992, Note_off_c, 5, 65, 127
2, 122992, Note_off_c, 4, 52, 127
2, 122992, Note_off_c, 0, 48, 127
2, 122993, Note_on_c, 5, 65, 127
2, 122993, Note_on_c, 5, 53, 127
2, 123236, Note_on_c, 0, 60, 127
2, 123479, Note_on_c, 10, 57, 127
2, 123479, Note_on_c, 5, 41, 127
2, 123719, Note_off_c, 10, 57, 127
2, 123720, Note_off_c, 0, 60, 127
2, 123720, Note_off_c, 5, 65, 127
2, 123737, Note_on_c, 10, 69, 127
2, 123962, Note_off_c, 5, 41, 127
2, 123962, Note_off_c, 5, 53, 127
2, 123978, Note_off_c, 10, 69, 127
2, 123979, Note_on_c, 5, 53, 127
2, 123979, Note_on_c, 10, 69, 127
2, 124038, Note_off_c, 10, 69, 127
2, 124039, Note_on_c, 7, 67, 127
2, 124098, Note_off_c, 7, 67, 127
2, 124099, Note_on_c, 10, 69, 127
2, 124158, Note_off_c, 10, 69, 127
2, 124159, Note_on_c, 7, 67, 127
2, 124218, Note_off_c, 7, 67, 127
2, 124219, Note_on_c, 5, 65, 127
2, 124460, Note_off_c, 5, 65, 127
2, 124460, Note_off_c, 5, 53, 127
2, 124461, Note_on_c, 4, 52, 127
2, 124461, Note_on_c, 7, 67, 127
2, 124520, Note_off_c, 7, 67, 127
2, 124534, Note_on_c, 5, 65, 127
2, 124593, Note_off_c, 5, 65, 127
2, 124607, Note_on_c, 7, 67, 127
2, 124703, Note_on_c, 7, 55, 127
2, 124944, Note_off_c, 7, 55, 127
2, 124945, Note_on_c, 0, 60, 127
2, 124960, Note_off_c, 7, 67, 127
2, 125187, Note_on_c, 2, 74, 127
2, 125428, Note_off_c, 2, 74, 127
2, 125428, Note_off_c, 0, 60, 127
2, 125428, Note_off_c, 4, 52, 127
2, 125429, Note_on_c, 2, 50, 127
2, 125429, Note_on_c, 12, 59, 127
2, 125429, Note_on_c, 2, 74, 127
2, 125670, Note_off_c, 2, 74, 127
2, 125671, Note_on_c, 2, 74, 127
2, 125912, Note_off_c, 2, 74, 127
2, 125912, Note_off_c, 12, 59, 127
2, 125912, Note_off_c, 2, 50, 127
2, 125913, Note_on_c, 0, 60, 127
2, 125913, Note_on_c, 4, 76, 127
2, 125972, Note_off_c, 4, 76, 127
2, 125973, Note_on_c, 2, 74, 127
2, 126032, Note_off_c, 2, 74, 127
2, 126033, Note_on_c, 4, 76, 127
2, 126153, Note_off_c, 4, 76, 127
2, 126154, Note_on_c, 7, 67, 127
2, 126395, Note_off_c, 7, 67, 127
2, 126396, Note_on_c, 0, 48, 127
2, 126396, Note_on_c, 10, 69, 127
2, 126637, Note_off_c, 10, 69, 127
2, 126638, Note_on_c, 12, 71, 127
2, 126879, Note_off_c, 12, 71, 127
2, 126879, Note_off_c, 0, 48, 127
2, 126880, Note_on_c, 4, 52, 127
2, 126880, Note_on_c, 0, 72, 127
2, 127121, Note_off_c, 0, 72, 127
2, 127122, Note_on_c, 7, 67, 127
2, 127363, Note_off_c, 7, 67, 127
2, 127363, Note_off_c, 4, 52, 127
2, 127364, Note_on_c, 5, 53, 127
2, 127364, Note_on_c, 10, 69, 127
2, 127431, Note_off_c, 10, 69, 127
2, 127434, Note_on_c, 7, 67, 127
2, 127501, Note_off_c, 7, 67, 127
2, 127504, Note_on_c, 10, 69, 127
2, 127604, Note_off_c, 10, 69, 127
2, 127608, Note_on_c, 0, 72, 127
2, 127843, Note_off_c, 0, 60, 127
2, 127849, Note_off_c, 0, 72, 127
2, 127850, Note_on_c, 10, 57, 127
2, 127850, Note_on_c, 2, 74, 127
2, 128091, Note_off_c, 2, 74, 127
2, 128092, Note_on_c, 4, 76, 127
2, 128333, Note_off_c, 4, 76, 127
2, 128333, Note_off_c, 10, 57, 127
2, 128334, Note_on_c, 2, 62, 127
2, 128334, Note_on_c, 5, 77, 127
2, 128575, Note_off_c, 5, 77, 127
2, 128576, Note_on_c, 10, 69, 127
2, 128816, Note_off_c, 5, 53, 127
2, 128817, Note_off_c, 10, 69, 127
2, 128818, Note_on_c, 7, 55, 127
2, 128818, Note_on_c, 12, 71, 127
2, 129059, Note_off_c, 12, 71, 127
2, 129060, Note_on_c, 2, 74, 127
2, 129301, Note_off_c, 2, 74, 127
2, 129301, Note_off_c, 2, 62, 127
2, 129302, Note_on_c, 12, 59, 127
2, 129302, Note_on_c, 4, 76, 127
2, 129361, Note_off_c, 4, 76, 127
2, 129362, Note_on_c, 2, 74, 127
2, 129421, Note_off_c, 2, 74, 127
2, 129422, Note_on_c, 4, 76, 127
2, 129542, Note_off_c, 4, 76, 127
2, 129543, Note_on_c, 5, 77, 127
2, 129784, Note_off_c, 5, 77, 127
2, 129784, Note_off_c, 12, 59, 127
2, 129785, Note_on_c, 5, 65, 127
2, 129785, Note_on_c, 7, 79, 127
2, 130026, Note_off_c, 7, 79, 127
2, 130027, Note_on_c, 12, 71, 127
2, 130268, Note_off_c, 12, 71, 127
2, 130268, Note_off_c, 5, 65, 127
2, 130269, Note_on_c, 4, 64, 127
2, 130269, Note_on_c, 0, 72, 127
2, 130364, Note_on_c, 12, 71, 127
2, 130368, Note_off_c, 0, 72, 127
2, 130463, Note_off_c, 12, 71, 127
2, 130466, Note_on_c, 0, 72, 127
2, 130566, Note_off_c, 0, 72, 127
2, 130571, Note_on_c, 2, 74, 127
2, 130750, Note_off_c, 2, 74, 127
2, 130754, Note_off_c, 4, 64, 127
2, 130755, Note_on_c, 2, 62, 127
2, 130755, Note_on_c, 0, 72, 127
2, 130917, Note_off_c, 0, 72, 127
2, 130937, Note_on_c, 12, 71, 127
2, 130996, Note_off_c, 12, 71, 127
2, 130997, Note_on_c, 0, 72, 127
2, 131056, Note_off_c, 0, 72, 127
2, 131057, Note_on_c, 12, 71, 127
2, 131116, Note_off_c, 12, 71, 127
2, 131117, Note_on_c, 0, 72, 127
2, 131176, Note_off_c, 0, 72, 127
2, 131177, Note_on_c, 12, 71, 127
2, 131238, Note_on_c, 5, 65, 127
2, 131481, Note_on_c, 0, 72, 127
2, 131482, Note_off_c, 12, 71, 127
2, 131718, Note_off_c, 5, 65, 127
2, 131718, Note_off_c, 7, 55, 127
2, 131722, Note_off_c, 0, 72, 127
2, 131722, Note_off_c, 2, 62, 127
2, 131723, Note_on_c, 0, 72, 127
2, 131782, Note_off_c, 0, 72, 127
2, 131783, Note_on_c, 12, 71, 127
2, 131842, Note_off_c, 12, 71, 127
2, 131843, Note_on_c, 0, 72, 127
2, 131964, Note_on_c, 0, 48, 127
2, 132207, Note_on_c, 4, 52, 127
2, 132448, Note_off_c, 0, 72, 127
2, 132449, Note_on_c, 7, 55, 127
2, 132449, Note_on_c, 7, 67, 127
2, 132690, Note_off_c, 7, 67, 127
2, 132690, Note_off_c, 7, 55, 127
2, 132707, Note_on_c, 7, 67, 127
2, 132707, Note_on_c, 0, 60, 127
2, 132948, Note_off_c, 7, 67, 127
2, 132949, Note_on_c, 7, 67, 127
2, 133165, Note_off_c, 4, 52, 127
2, 133175, Note_off_c, 0, 48, 127
2, 133186, Note_off_c, 0, 60, 127
2, 133190, Note_off_c, 7, 67, 127
2, 133191, Note_on_c, 8, 68, 127
2, 133250, Note_off_c, 8, 68, 127
2, 133251, Note_on_c, 7, 67, 127
2, 133310, Note_off_c, 7, 67, 127
2, 133311, Note_on_c, 8, 68, 127
2, 133432, Note_on_c, 5, 65, 127
2, 133664, Note_off_c, 8, 68, 127
2, 133674, Note_on_c, 0, 72, 127
2, 133911, Note_off_c, 5, 65, 127
2, 133916, Note_on_c, 5, 65, 127
2, 134153, Note_off_c, 0, 72, 127
2, 134157, Note_off_c, 5, 65, 127
2, 134158, Note_on_c, 5, 65, 127
2, 134158, Note_on_c, 12, 59, 127
2, 134158, Note_on_c, 2, 50, 127
2, 134158, Note_on_c, 5, 53, 127
2, 134217, Note_off_c, 5, 65, 127
2, 134218, Note_on_c, 4, 64, 127
2, 134277, Note_off_c, 4, 64, 127
2, 134278, Note_on_c, 5, 65, 127
2, 134337, Note_off_c, 5, 65, 127
2, 134338, Note_on_c, 4, 64, 127
2, 134397, Note_off_c, 4, 64, 127
2, 134398, Note_on_c, 5, 65, 127
2, 134639, Note_off_c, 5, 65, 127
2, 134639, Note_off_c, 5, 53, 127
2, 134639, Note_off_c, 2, 50, 127
2, 134639, Note_off_c, 12, 59, 127
2, 134640, Note_on_c, 8, 68, 127
2, 134640, Note_on_c, 0, 60, 127
2, 134640, Note_on_c, 0, 48, 127
2, 134640, Note_on_c, 5, 53, 127
2, 134699, Note_off_c, 5, 53, 127
2, 134699, Note_off_c, 8, 68, 127
2, 134700, Note_on_c, 7, 67, 127
2, 134700, Note_on_c, 4, 52, 127
2, 134759, Note_off_c, 4, 52, 127
2, 134759, Note_off_c, 7, 67, 127
2, 134760, Note_on_c, 8, 68, 127
2, 134760, Note_on_c, 5, 53, 127
2, 134819, Note_off_c, 5, 53, 127
2, 134819, Note_off_c, 8, 68, 127
2, 134820, Note_on_c, 7, 67, 127
2, 134820, Note_on_c, 4, 52, 127
2, 134879, Note_off_c, 4, 52, 127
2, 134880, Note_on_c, 2, 50, 127
2, 135121, Note_off_c, 2, 50, 127
2, 135122, Note_on_c, 4, 52, 127
2, 135363, Note_off_c, 0, 60, 127
2, 135364, Note_on_c, 7, 55, 127
2, 135367, Note_off_c, 7, 67, 127
2, 135606, Note_off_c, 7, 55, 127
2, 135606, Note_off_c, 0, 48, 127
2, 135607, Note_on_c, 7, 43, 127
2, 135607, Note_on_c, 0, 60, 127
2, 135666, Note_off_c, 0, 60, 127
2, 135667, Note_on_c, 12, 59, 127
2, 135726, Note_off_c, 12, 59, 127
2, 135727, Note_on_c, 0, 60, 127
2, 135847, Note_off_c, 0, 60, 127
2, 135848, Note_on_c, 0, 60, 127
2, 136085, Note_off_c, 7, 43, 127
2, 136089, Note_off_c, 0, 60, 127
2, 136089, Note_off_c, 4, 52, 127
2, 136090, Note_on_c, 0, 60, 127
2, 136090, Note_on_c, 4, 52, 127
2, 136090, Note_on_c, 7, 55, 127
2, 136090, Note_on_c, 0, 48, 127
2, 137303, Note_on_c, 7, 67, 127
2, 137544, Note_off_c, 7, 67, 127
2, 137544, Note_off_c, 0, 48, 127
2, 137544, Note_off_c, 7, 55, 127
2, 137544, Note_off_c, 4, 52, 127
2, 137544, Note_off_c, 0, 60, 127
2, 137545, Note_on_c, 4, 64, 127
2, 137545, Note_on_c, 7, 67, 127
2, 137545, Note_on_c, 0, 60, 127
2, 137604, Note_off_c, 0, 60, 127
2, 137605, Note_on_c, 12, 59, 127
2, 137664, Note_off_c, 12, 59, 127
2, 137665, Note_on_c, 0, 60, 127
2, 138028, Note_off_c, 0, 60, 127
2, 138029, Note_on_c, 0, 48, 127
2, 138270, Note_off_c, 7, 67, 127
2, 138270, Note_off_c, 4, 64, 127
2, 138271, Note_on_c, 7, 67, 127
2, 138512, Note_off_c, 7, 67, 127
2, 138512, Note_off_c, 0, 48, 127
2, 138513, Note_on_c, 10, 69, 127
2, 138513, Note_on_c, 11, 46, 127
2, 138584, Note_off_c, 10, 69, 127
2, 138589, Note_on_c, 7, 67, 127
2, 138660, Note_off_c, 7, 67, 127
2, 138665, Note_on_c, 10, 69, 127
2, 138752, Note_off_c, 10, 69, 127
2, 138756, Note_on_c, 11, 70, 127
2, 138997, Note_off_c, 11, 70, 127
2, 138997, Note_off_c, 11, 46, 127
2, 138998, Note_on_c, 0, 72, 127
2, 138998, Note_on_c, 10, 45, 127
2, 139239, Note_off_c, 0, 72, 127
2, 139240, Note_on_c, 5, 65, 127
2, 139481, Note_off_c, 5, 65, 127
2, 139482, Note_on_c, 7, 67, 127
2, 139482, Note_on_c, 0, 48, 127
2, 139602, Note_off_c, 7, 67, 127
2, 139603, Note_on_c, 5, 65, 127
2, 139669, Note_off_c, 5, 65, 127
2, 139672, Note_on_c, 7, 67, 127
2, 139738, Note_off_c, 7, 67, 127
2, 139738, Note_on_c, 5, 65, 127
2, 139967, Note_off_c, 0, 48, 127
2, 139968, Note_on_c, 5, 53, 127
2, 140168, Note_off_c, 5, 65, 127
2, 140211, Note_on_c, 3, 63, 127
2, 140451, Note_off_c, 10, 45, 127
2, 140452, Note_off_c, 3, 63, 127
2, 140453, Note_on_c, 3, 63, 127
2, 140453, Note_on_c, 11, 46, 127
2, 140694, Note_off_c, 3, 63, 127
2, 140694, Note_off_c, 5, 53, 127
2, 140695, Note_on_c, 2, 62, 127
2, 140695, Note_on_c, 2, 50, 127
2, 140936, Note_off_c, 2, 50, 127
2, 140937, Note_on_c, 7, 55, 127
2, 141178, Note_off_c, 2, 62, 127
2, 141179, Note_on_c, 11, 70, 127
2, 141420, Note_off_c, 11, 70, 127
2, 141420, Note_off_c, 7, 55, 127
2, 141420, Note_off_c, 11, 46, 127
2, 141421, Note_on_c, 11, 70, 127
2, 141421, Note_on_c, 0, 48, 127
2, 141421, Note_on_c, 0, 60, 127
2, 141480, Note_off_c, 11, 70, 127
2, 141481, Note_on_c, 10, 69, 127
2, 141540, Note_off_c, 10, 69, 127
2, 141541, Note_on_c, 11, 70, 127
2, 141600, Note_off_c, 11, 70, 127
2, 141601, Note_on_c, 10, 69, 127
2, 141660, Note_off_c, 10, 69, 127
2, 141660, Note_off_c, 0, 60, 127
2, 141661, Note_on_c, 7, 67, 127
2, 141661, Note_on_c, 11, 58, 127
2, 141898, Note_off_c, 0, 48, 127
2, 141902, Note_off_c, 11, 58, 127
2, 141902, Note_off_c, 7, 67, 127
2, 141903, Note_on_c, 7, 67, 127
2, 141903, Note_on_c, 2, 50, 127
2, 141903, Note_on_c, 10, 57, 127
2, 141962, Note_off_c, 7, 67, 127
2, 141963, Note_on_c, 6, 66, 127
2, 142022, Note_off_c, 6, 66, 127
2, 142023, Note_on_c, 7, 67, 127
2, 142082, Note_off_c, 7, 67, 127
2, 142083, Note_on_c, 6, 66, 127
2, 142142, Note_off_c, 6, 66, 127
2, 142143, Note_on_c, 2, 62, 127
2, 142380, Note_off_c, 10, 57, 127
2, 142384, Note_off_c, 2, 62, 127
2, 142385, Note_on_c, 2, 74, 127
2, 142444, Note_off_c, 2, 74, 127
2, 142445, Note_on_c, 0, 72, 127
2, 142504, Note_off_c, 0, 72, 127
2, 142505, Note_on_c, 2, 74, 127
2, 142625, Note_off_c, 2, 50, 127
2, 142626, Note_on_c, 3, 51, 127
2, 142867, Note_off_c, 3, 51, 127
2, 142868, Note_on_c, 2, 50, 127
2, 143109, Note_off_c, 2, 50, 127
2, 143109, Note_off_c, 2, 74, 127
2, 143110, Note_on_c, 2, 74, 127
2, 143110, Note_on_c, 0, 48, 127
2, 143351, Note_off_c, 0, 48, 127
2, 143351, Note_off_c, 2, 74, 127
2, 143352, Note_on_c, 2, 74, 127
2, 143352, Note_on_c, 11, 46, 127
2, 143595, Note_on_c, 2, 50, 127
2, 143836, Note_off_c, 2, 50, 127
2, 143837, Note_on_c, 7, 55, 127
2, 144078, Note_off_c, 2, 74, 127
2, 144079, Note_on_c, 3, 75, 127
2, 144320, Note_off_c, 3, 75, 127
2, 144320, Note_off_c, 7, 55, 127
2, 144320, Note_off_c, 11, 46, 127
2, 144321, Note_on_c, 3, 75, 127
2, 144321, Note_on_c, 6, 54, 127
2, 144321, Note_on_c, 10, 45, 127
2, 144380, Note_off_c, 3, 75, 127
2, 144381, Note_on_c, 2, 74, 127
2, 144440, Note_off_c, 2, 74, 127
2, 144441, Note_on_c, 3, 75, 127
2, 144500, Note_off_c, 3, 75, 127
2, 144501, Note_on_c, 2, 74, 127
2, 144560, Note_off_c, 2, 74, 127
2, 144561, Note_on_c, 0, 72, 127
2, 144802, Note_off_c, 0, 72, 127
2, 144802, Note_off_c, 10, 45, 127
2, 144802, Note_off_c, 6, 54, 127
2, 144803, Note_on_c, 12, 71, 127
2, 144803, Note_on_c, 7, 43, 127
2, 144803, Note_on_c, 7, 55, 127
2, 145044, Note_off_c, 7, 55, 127
2, 145044, Note_off_c, 7, 43, 127
2, 145045, Note_on_c, 8, 56, 127
2, 145286, Note_off_c, 8, 56, 127
2, 145287, Note_on_c, 7, 55, 127
2, 145483, Note_off_c, 12, 71, 127
2, 145528, Note_off_c, 7, 55, 127
2, 145529, Note_on_c, 2, 74, 127
2, 145529, Note_on_c, 5, 53, 127
2, 145770, Note_off_c, 5, 53, 127
2, 145770, Note_off_c, 2, 74, 127
2, 145771, Note_on_c, 2, 74, 127
2, 145771, Note_on_c, 3, 51, 127
2, 146012, Note_off_c, 3, 51, 127
2, 146012, Note_off_c, 2, 74, 127
2, 146013, Note_on_c, 2, 74, 127
2, 146013, Note_on_c, 2, 50, 127
2, 146254, Note_off_c, 2, 50, 127
2, 146254, Note_off_c, 2, 74, 127
2, 146255, Note_on_c, 3, 75, 127
2, 146255, Note_on_c, 0, 48, 127
2, 146314, Note_off_c, 3, 75, 127
2, 146315, Note_on_c, 2, 74, 127
2, 146374, Note_off_c, 2, 74, 127
2, 146375, Note_on_c, 3, 75, 127
2, 146495, Note_off_c, 0, 48, 127
2, 146496, Note_on_c, 12, 47, 127
2, 146737, Note_off_c, 12, 47, 127
2, 146738, Note_on_c, 0, 48, 127
2, 146979, Note_off_c, 0, 48, 127
2, 146979, Note_off_c, 3, 75, 127
2, 146980, Note_on_c, 2, 74, 127
2, 146980, Note_on_c, 2, 50, 127
2, 147221, Note_off_c, 2, 50, 127
2, 147221, Note_off_c, 2, 74, 127
2, 147222, Note_on_c, 0, 72, 127
2, 147222, Note_on_c, 3, 51, 127
2, 147463, Note_off_c, 3, 51, 127
2, 147463, Note_off_c, 0, 72, 127
2, 147464, Note_on_c, 2, 74, 127
2, 147464, Note_on_c, 5, 53, 127
2, 147705, Note_off_c, 5, 53, 127
2, 147705, Note_off_c, 2, 74, 127
2, 147706, Note_on_c, 12, 71, 127
2, 147706, Note_on_c, 7, 55, 127
2, 147786, Note_off_c, 12, 71, 127
2, 147787, Note_on_c, 10, 69, 127
2, 147867, Note_off_c, 10, 69, 127
2, 147868, Note_on_c, 12, 71, 127
2, 147948, Note_off_c, 12, 71, 127
2, 147949, Note_on_c, 0, 72, 127
2, 147949, Note_on_c, 0, 48, 127
2, 148190, Note_off_c, 0, 48, 127
2, 148190, Note_off_c, 0, 72, 127
2, 148191, Note_on_c, 11, 70, 127
2, 148191, Note_on_c, 2, 50, 127
2, 148250, Note_off_c, 11, 70, 127
2, 148251, Note_on_c, 10, 69, 127
2, 148310, Note_off_c, 10, 69, 127
2, 148311, Note_on_c, 11, 70, 127
2, 148370, Note_off_c, 11, 70, 127
2, 148371, Note_on_c, 10, 69, 127
2, 148673, Note_off_c, 7, 55, 127
2, 148674, Note_on_c, 6, 54, 127
2, 148851, Note_off_c, 10, 69, 127
2, 148917, Note_on_c, 7, 67, 127
2, 149158, Note_off_c, 7, 67, 127
2, 149158, Note_off_c, 6, 54, 127
2, 149158, Note_off_c, 2, 50, 127
2, 149159, Note_on_c, 7, 67, 127
2, 149159, Note_on_c, 7, 55, 127
2, 149218, Note_off_c, 7, 67, 127
2, 149219, Note_on_c, 5, 65, 127
2, 149278, Note_off_c, 5, 65, 127
2, 149279, Note_on_c, 7, 67, 127
2, 149399, Note_off_c, 7, 55, 127
2, 149400, Note_on_c, 6, 54, 127
2, 149641, Note_off_c, 6, 54, 127
2, 149642, Note_on_c, 7, 55, 127
2, 149759, Note_off_c, 7, 67, 127
2, 149883, Note_off_c, 7, 55, 127
2, 149884, Note_on_c, 12, 71, 127
2, 149884, Note_on_c, 10, 57, 127
2, 150125, Note_off_c, 10, 57, 127
2, 150125, Note_off_c, 12, 71, 127
2, 150126, Note_on_c, 12, 71, 127
2, 150126, Note_on_c, 10, 57, 127
2, 150185, Note_off_c, 10, 57, 127
2, 150186, Note_on_c, 7, 55, 127
2, 150245, Note_off_c, 7, 55, 127
2, 150246, Note_on_c, 10, 57, 127
2, 150305, Note_off_c, 10, 57, 127
2, 150306, Note_on_c, 7, 55, 127
2, 150365, Note_off_c, 7, 55, 127
2, 150365, Note_off_c, 12, 71, 127
2, 150366, Note_on_c, 12, 71, 127
2, 150366, Note_on_c, 5, 53, 127
2, 150607, Note_off_c, 5, 53, 127
2, 150607, Note_off_c, 12, 71, 127
2, 150608, Note_on_c, 0, 72, 127
2, 150608, Note_on_c, 4, 52, 127
2, 150667, Note_off_c, 0, 72, 127
2, 150668, Note_on_c, 12, 71, 127
2, 150727, Note_off_c, 12, 71, 127
2, 150728, Note_on_c, 0, 72, 127
2, 150848, Note_off_c, 0, 72, 127
2, 150849, Note_on_c, 7, 67, 127
2, 151090, Note_off_c, 7, 67, 127
2, 151091, Note_on_c, 7, 79, 127
2, 151150, Note_off_c, 7, 79, 127
2, 151151, Note_on_c, 5, 77, 127
2, 151210, Note_off_c, 5, 77, 127
2, 151211, Note_on_c, 7, 79, 127
2, 151331, Note_off_c, 4, 52, 127
2, 151332, Note_on_c, 2, 50, 127
2, 151573, Note_off_c, 2, 50, 127
2, 151574, Note_on_c, 2, 50, 127
2, 151633, Note_off_c, 2, 50, 127
2, 151634, Note_on_c, 0, 48, 127
2, 151693, Note_off_c, 0, 48, 127
2, 151694, Note_on_c, 2, 50, 127
2, 151753, Note_off_c, 2, 50, 127
2, 151754, Note_on_c, 0, 48, 127
2, 151813, Note_off_c, 0, 48, 127
2, 151813, Note_off_c, 7, 79, 127
2, 151814, Note_on_c, 7, 79, 127
2, 151814, Note_on_c, 12, 47, 127
2, 152055, Note_off_c, 12, 47, 127
2, 152055, Note_off_c, 7, 79, 127
2, 152056, Note_on_c, 4, 76, 127
2, 152056, Note_on_c, 0, 48, 127
2, 152297, Note_off_c, 0, 48, 127
2, 152297, Note_off_c, 4, 76, 127
2, 152298, Note_on_c, 5, 77, 127
2, 152298, Note_on_c, 12, 47, 127
2, 152539, Note_off_c, 12, 47, 127
2, 152539, Note_off_c, 5, 77, 127
2, 152540, Note_on_c, 4, 76, 127
2, 152540, Note_on_c, 0, 48, 127
2, 152781, Note_off_c, 0, 48, 127
2, 152781, Note_off_c, 4, 76, 127
2, 152782, Note_on_c, 2, 74, 127
2, 152782, Note_on_c, 2, 50, 127
2, 153023, Note_off_c, 2, 50, 127
2, 153023, Note_off_c, 2, 74, 127
2, 153024, Note_on_c, 2, 74, 127
2, 153024, Note_on_c, 4, 52, 127
2, 153083, Note_off_c, 2, 74, 127
2, 153084, Note_on_c, 0, 72, 127
2, 153143, Note_off_c, 0, 72, 127
2, 153144, Note_on_c, 2, 74, 127
2, 153203, Note_off_c, 2, 74, 127
2, 153204, Note_on_c, 0, 72, 127
2, 153263, Note_off_c, 0, 72, 127
2, 153263, Note_off_c, 4, 52, 127
2, 153264, Note_on_c, 11, 70, 127
2, 153264, Note_on_c, 0, 48, 127
2, 153505, Note_off_c, 0, 48, 127
2, 153505, Note_off_c, 11, 70, 127
2, 153506, Note_on_c, 10, 69, 127
2, 153506, Note_on_c, 5, 53, 127
2, 153747, Note_off_c, 10, 69, 127
2, 153748, Note_on_c, 5, 65, 127
2, 153989, Note_off_c, 5, 65, 127
2, 153990, Note_on_c, 7, 79, 127
2, 154049, Note_off_c, 7, 79, 127
2, 154050, Note_on_c, 5, 77, 127
2, 154109, Note_off_c, 5, 77, 127
2, 154110, Note_on_c, 7, 79, 127
2, 154169, Note_off_c, 7, 79, 127
2, 154170, Note_on_c, 5, 77, 127
2, 154229, Note_off_c, 5, 53, 127
2, 154230, Note_on_c, 2, 50, 127
2, 154471, Note_off_c, 2, 50, 127
2, 154472, Note_on_c, 4, 52, 127
2, 154649, Note_off_c, 5, 77, 127
2, 154713, Note_off_c, 4, 52, 127
2, 154714, Note_on_c, 2, 74, 127
2, 154714, Note_on_c, 5, 53, 127
2, 154955, Note_off_c, 5, 53, 127
2, 154955, Note_off_c, 2, 74, 127
2, 154956, Note_on_c, 0, 72, 127
2, 154956, Note_on_c, 7, 55, 127
2, 155015, Note_off_c, 0, 72, 127
2, 155016, Note_on_c, 11, 70, 127
2, 155075, Note_off_c, 11, 70, 127
2, 155076, Note_on_c, 0, 72, 127
2, 155135, Note_off_c, 0, 72, 127
2, 155136, Note_on_c, 11, 70, 127
2, 155195, Note_off_c, 11, 70, 127
2, 155196, Note_on_c, 7, 67, 127
2, 155437, Note_off_c, 7, 67, 127
2, 155438, Note_on_c, 7, 79, 127
2, 155497, Note_off_c, 7, 79, 127
2, 155498, Note_on_c, 5, 77, 127
2, 155557, Note_off_c, 5, 77, 127
2, 155558, Note_on_c, 7, 79, 127
2, 155678, Note_off_c, 7, 55, 127
2, 155679, Note_on_c, 4, 52, 127
2, 155920, Note_off_c, 4, 52, 127
2, 155921, Note_on_c, 5, 53, 127
2, 156162, Note_off_c, 5, 53, 127
2, 156162, Note_off_c, 7, 79, 127
2, 156163, Note_on_c, 4, 76, 127
2, 156163, Note_on_c, 7, 55, 127
2, 156404, Note_off_c, 7, 55, 127
2, 156404, Note_off_c, 4, 76, 127
2, 156405, Note_on_c, 2, 74, 127
2, 156405, Note_on_c, 10, 57, 127
2, 156464, Note_off_c, 2, 74, 127
2, 156465, Note_on_c, 0, 72, 127
2, 156524, Note_off_c, 0, 72, 127
2, 156525, Note_on_c, 2, 74, 127
2, 156584, Note_off_c, 2, 74, 127
2, 156585, Note_on_c, 0, 72, 127
2, 156644, Note_off_c, 0, 72, 127
2, 156645, Note_on_c, 10, 69, 127
2, 156886, Note_off_c, 10, 69, 127
2, 156887, Note_on_c, 5, 77, 127
2, 157008, Note_off_c, 5, 77, 127
2, 157008, Note_on_c, 4, 76, 127
2, 157128, Note_off_c, 10, 57, 127
2, 157129, Note_off_c, 4, 76, 127
2, 157129, Note_on_c, 5, 77, 127
2, 157129, Note_on_c, 7, 55, 127
2, 157370, Note_off_c, 7, 55, 127
2, 157371, Note_on_c, 10, 57, 127
2, 157608, Note_off_c, 5, 77, 127
2, 157612, Note_off_c, 10, 57, 127
2, 157613, Note_on_c, 3, 75, 127
2, 157613, Note_on_c, 5, 53, 127
2, 157854, Note_off_c, 5, 53, 127
2, 157854, Note_off_c, 3, 75, 127
2, 157855, Note_on_c, 2, 74, 127
2, 157855, Note_on_c, 11, 58, 127
2, 158096, Note_off_c, 2, 74, 127
2, 158097, Note_on_c, 3, 75, 127
2, 158338, Note_off_c, 3, 75, 127
2, 158338, Note_off_c, 11, 58, 127
2, 158339, Note_on_c, 2, 74, 127
2, 158339, Note_on_c, 11, 46, 127
2, 158580, Note_off_c, 2, 74, 127
2, 158581, Note_on_c, 0, 72, 127
2, 158822, Note_off_c, 0, 72, 127
2, 158823, Note_on_c, 11, 70, 127
2, 158823, Note_on_c, 5, 53, 127
2, 158903, Note_off_c, 11, 70, 127
2, 158904, Note_on_c, 0, 72, 127
2, 158984, Note_off_c, 0, 72, 127
2, 158985, Note_on_c, 11, 70, 127
2, 159065, Note_off_c, 11, 70, 127
2, 159066, Note_on_c, 10, 69, 127
2, 159307, Note_off_c, 10, 69, 127
2, 159307, Note_off_c, 5, 53, 127
2, 159307, Note_off_c, 11, 46, 127
2, 159308, Note_on_c, 7, 67, 127
2, 159308, Note_on_c, 2, 50, 127
2, 159308, Note_on_c, 7, 55, 127
2, 159308, Note_on_c, 12, 47, 127
2, 159549, Note_off_c, 7, 67, 127
2, 159550, Note_on_c, 10, 69, 127
2, 159791, Note_off_c, 10, 69, 127
2, 159792, Note_on_c, 2, 62, 127
2, 160033, Note_off_c, 2, 62, 127
2, 160034, Note_on_c, 4, 64, 127
2, 160275, Note_off_c, 4, 64, 127
2, 160276, Note_on_c, 5, 65, 127
2, 160335, Note_off_c, 5, 65, 127
2, 160336, Note_on_c, 4, 64, 127
2, 160395, Note_off_c, 4, 64, 127
2, 160396, Note_on_c, 5, 65, 127
2, 160516, Note_off_c, 5, 65, 127
2, 160517, Note_on_c, 7, 67, 127
2, 160758, Note_off_c, 7, 67, 127
2, 160758, Note_off_c, 12, 47, 127
2, 160758, Note_off_c, 2, 50, 127
2, 160759, Note_on_c, 5, 65, 127
2, 160759, Note_on_c, 0, 48, 127
2, 160879, Note_off_c, 5, 65, 127
2, 160880, Note_on_c, 4, 64, 127
2, 160939, Note_off_c, 4, 64, 127
2, 160940, Note_on_c, 5, 65, 127
2, 160999, Note_off_c, 5, 65, 127
2, 160999, Note_off_c, 0, 48, 127
2, 161000, Note_on_c, 4, 64, 127
2, 161000, Note_on_c, 2, 50, 127
2, 161059, Note_off_c, 4, 64, 127
2, 161060, Note_on_c, 5, 65, 127
2, 161119, Note_off_c, 5, 65, 127
2, 161120, Note_on_c, 4, 64, 127
2, 161179, Note_off_c, 4, 64, 127
2, 161180, Note_on_c, 5, 65, 127
2, 161233, Note_off_c, 7, 55, 127
2, 161239, Note_off_c, 5, 65, 127
2, 161239, Note_off_c, 2, 50, 127
2, 161240, Note_on_c, 4, 64, 127
2, 161240, Note_on_c, 4, 52, 127
2, 161481, Note_off_c, 4, 52, 127
2, 161481, Note_off_c, 4, 64, 127
2, 161498, Note_on_c, 2, 50, 127
2, 161498, Note_on_c, 7, 67, 127
2, 161739, Note_off_c, 7, 67, 127
2, 161739, Note_off_c, 2, 50, 127
2, 161740, Note_on_c, 0, 48, 127
2, 161740, Note_on_c, 11, 70, 127
2, 161816, Note_off_c, 11, 70, 127
2, 161821, Note_on_c, 10, 69, 127
2, 161897, Note_off_c, 10, 69, 127
2, 161902, Note_on_c, 11, 70, 127
2, 161982, Note_off_c, 0, 48, 127
2, 161983, Note_on_c, 11, 46, 127
2, 162204, Note_off_c, 11, 70, 127
2, 162224, Note_off_c, 11, 46, 127
2, 162225, Note_on_c, 10, 45, 127
2, 162225, Note_on_c, 0, 72, 127
2, 162466, Note_off_c, 0, 72, 127
2, 162467, Note_on_c, 2, 74, 127
2, 162708, Note_off_c, 2, 74, 127
2, 162709, Note_on_c, 0, 48, 127
2, 162709, Note_on_c, 3, 75, 127
2, 162950, Note_off_c, 3, 75, 127
2, 162951, Note_on_c, 0, 72, 127
2, 163192, Note_off_c, 0, 72, 127
2, 163192, Note_off_c, 0, 48, 127
2, 163193, Note_on_c, 5, 53, 127
2, 163193, Note_on_c, 5, 77, 127
2, 163434, Note_off_c, 5, 77, 127
2, 163435, Note_on_c, 3, 75, 127
2, 163675, Note_off_c, 10, 45, 127
2, 163676, Note_off_c, 3, 75, 127
2, 163677, Note_on_c, 11, 46, 127
2, 163677, Note_on_c, 2, 74, 127
2, 163918, Note_off_c, 5, 53, 127
2, 163919, Note_on_c, 3, 51, 127
2, 164160, Note_off_c, 3, 51, 127
2, 164161, Note_on_c, 2, 50, 127
2, 164402, Note_off_c, 2, 50, 127
2, 164402, Note_off_c, 2, 74, 127
2, 164403, Note_on_c, 3, 51, 127
2, 164403, Note_on_c, 2, 74, 127
2, 164644, Note_off_c, 2, 74, 127
2, 164644, Note_off_c, 3, 51, 127
2, 164645, Note_on_c, 2, 50, 127
2, 164645, Note_on_c, 5, 77, 127
2, 164704, Note_off_c, 5, 77, 127
2, 164705, Note_on_c, 3, 75, 127
2, 164764, Note_off_c, 3, 75, 127
2, 164765, Note_on_c, 5, 77, 127
2, 164824, Note_off_c, 5, 77, 127
2, 164825, Note_on_c, 3, 75, 127
2, 164884, Note_off_c, 3, 75, 127
2, 164884, Note_off_c, 2, 50, 127
2, 164885, Note_on_c, 0, 48, 127
2, 164885, Note_on_c, 5, 77, 127
2, 165125, Note_off_c, 11, 46, 127
2, 165126, Note_off_c, 5, 77, 127
2, 165126, Note_off_c, 0, 48, 127
2, 165127, Note_on_c, 11, 46, 127
2, 165127, Note_on_c, 7, 79, 127
2, 165203, Note_off_c, 7, 79, 127
2, 165203, Note_on_c, 5, 77, 127
2, 165279, Note_off_c, 5, 77, 127
2, 165279, Note_on_c, 7, 79, 127
2, 165355, Note_off_c, 7, 79, 127
2, 165370, Note_on_c, 10, 81, 127
2, 165611, Note_off_c, 10, 81, 127
2, 165612, Note_on_c, 2, 50, 127
2, 165612, Note_on_c, 11, 82, 127
2, 165853, Note_off_c, 11, 82, 127
2, 165854, Note_on_c, 2, 74, 127
2, 166095, Note_off_c, 2, 74, 127
2, 166095, Note_off_c, 2, 50, 127
2, 166096, Note_on_c, 7, 55, 127
2, 166096, Note_on_c, 4, 76, 127
2, 166155, Note_off_c, 4, 76, 127
2, 166156, Note_on_c, 2, 74, 127
2, 166215, Note_off_c, 2, 74, 127
2, 166216, Note_on_c, 4, 76, 127
2, 166336, Note_off_c, 4, 76, 127
2, 166337, Note_on_c, 5, 77, 127
2, 166577, Note_off_c, 11, 46, 127
2, 166578, Note_off_c, 5, 77, 127
2, 166579, Note_on_c, 0, 48, 127
2, 166579, Note_on_c, 4, 76, 127
2, 166820, Note_off_c, 4, 76, 127
2, 166821, Note_on_c, 5, 77, 127
2, 167062, Note_off_c, 5, 77, 127
2, 167062, Note_off_c, 0, 48, 127
2, 167063, Note_on_c, 2, 50, 127
2, 167063, Note_on_c, 4, 76, 127
2, 167304, Note_off_c, 4, 76, 127
2, 167305, Note_on_c, 2, 74, 127
2, 167546, Note_off_c, 2, 74, 127
2, 167546, Note_off_c, 2, 50, 127
2, 167547, Note_on_c, 4, 52, 127
2, 167547, Note_on_c, 0, 72, 127
2, 167628, Note_off_c, 0, 72, 127
2, 167628, Note_on_c, 2, 74, 127
2, 167709, Note_off_c, 2, 74, 127
2, 167709, Note_on_c, 0, 72, 127
2, 167790, Note_off_c, 0, 72, 127
2, 167790, Note_on_c, 11, 70, 127
2, 168025, Note_off_c, 7, 55, 127
2, 168031, Note_off_c, 11, 70, 127
2, 168031, Note_off_c, 4, 52, 127
2, 168032, Note_on_c, 5, 53, 127
2, 168032, Note_on_c, 10, 69, 127
2, 168273, Note_off_c, 10, 69, 127
2, 168274, Note_on_c, 11, 46, 127
2, 168274, Note_on_c, 11, 70, 127
2, 168515, Note_off_c, 11, 70, 127
2, 168515, Note_off_c, 11, 46, 127
2, 168516, Note_on_c, 0, 48, 127
2, 168516, Note_on_c, 10, 69, 127
2, 168636, Note_off_c, 10, 69, 127
2, 168637, Note_on_c, 7, 67, 127
2, 168696, Note_off_c, 7, 67, 127
2, 168697, Note_on_c, 10, 69, 127
2, 168756, Note_off_c, 10, 69, 127
2, 168757, Note_on_c, 7, 67, 127
2, 168816, Note_off_c, 7, 67, 127
2, 168817, Note_on_c, 10, 69, 127
2, 168876, Note_off_c, 10, 69, 127
2, 168877, Note_on_c, 7, 67, 127
2, 168936, Note_off_c, 7, 67, 127
2, 168937, Note_on_c, 10, 69, 127
2, 168996, Note_off_c, 10, 69, 127
2, 168996, Note_off_c, 5, 53, 127
2, 168997, Note_on_c, 4, 52, 127
2, 168997, Note_on_c, 7, 67, 127
2, 169238, Note_off_c, 7, 67, 127
2, 169239, Note_on_c, 5, 65, 127
2, 169480, Note_off_c, 5, 65, 127
2, 169480, Note_off_c, 4, 52, 127
2, 169480, Note_off_c, 0, 48, 127
2, 169481, Note_on_c, 5, 53, 127
2, 169481, Note_on_c, 5, 65, 127
2, 169540, Note_off_c, 5, 65, 127
2, 169541, Note_on_c, 4, 64, 127
2, 169600, Note_off_c, 4, 64, 127
2, 169601, Note_on_c, 5, 65, 127
2, 169964, Note_off_c, 5, 53, 127
2, 169965, Note_on_c, 5, 41, 127
2, 170206, Note_off_c, 5, 65, 127
2, 170207, Note_on_c, 0, 72, 127
2, 170448, Note_off_c, 0, 72, 127
2, 170449, Note_on_c, 0, 48, 127
2, 170449, Note_on_c, 10, 69, 127
2, 170690, Note_off_c, 10, 69, 127
2, 170691, Note_on_c, 10, 69, 127
2, 170932, Note_off_c, 10, 69, 127
2, 170933, Note_on_c, 5, 53, 127
2, 170933, Note_on_c, 5, 65, 127
2, 170933, Note_on_c, 11, 70, 127
2, 170994, Note_on_c, 10, 69, 127
2, 170995, Note_off_c, 11, 70, 127
2, 171053, Note_off_c, 10, 69, 127
2, 171054, Note_on_c, 11, 70, 127
2, 171113, Note_off_c, 11, 70, 127
2, 171114, Note_on_c, 10, 69, 127
2, 173184, Note_off_c, 5, 65, 127
2, 173184, Note_off_c, 5, 53, 127
2, 173184, Note_off_c, 0, 48, 127
2, 173184, Note_off_c, 5, 41, 127
2, 173280, Note_off_c, 10, 69, 127
2, 174611, Note_on_c, 0, 60, 127
2, 174611, Note_on_c, 5, 53, 127
2, 174611, Note_on_c, 10, 81, 127
2, 174840, Note_off_c, 10, 81, 127
2, 174840, Note_off_c, 0, 60, 127
2, 174841, Note_on_c, 11, 58, 127
2, 174841, Note_on_c, 7, 79, 127
2, 175070, Note_off_c, 7, 79, 127
2, 175070, Note_off_c, 11, 58, 127
2, 175071, Note_on_c, 10, 57, 127
2, 175071, Note_on_c, 5, 77, 127
2, 175300, Note_off_c, 5, 77, 127
2, 175300, Note_off_c, 10, 57, 127
2, 175301, Note_on_c, 7, 55, 127
2, 175301, Note_on_c, 4, 76, 127
2, 175530, Note_off_c, 4, 76, 127
2, 175530, Note_off_c, 7, 55, 127
2, 175531, Note_on_c, 10, 57, 127
2, 175531, Note_on_c, 5, 77, 127
2, 175784, Note_off_c, 5, 77, 127
2, 175789, Note_on_c, 0, 72, 127
2, 175988, Note_off_c, 0, 72, 127
2, 175990, Note_off_c, 10, 57, 127
2, 175991, Note_on_c, 7, 55, 127
2, 175991, Note_on_c, 0, 72, 127
2, 176067, Note_off_c, 0, 72, 127
2, 176075, Note_on_c, 11, 70, 127
2, 176159, Note_off_c, 11, 70, 127
2, 176159, Note_on_c, 0, 72, 127
2, 176243, Note_off_c, 0, 72, 127
2, 176243, Note_on_c, 11, 70, 127
2, 176327, Note_off_c, 11, 70, 127
2, 176327, Note_on_c, 0, 72, 127
2, 176411, Note_off_c, 0, 72, 127
2, 176411, Note_on_c, 11, 70, 127
2, 176445, Note_off_c, 5, 53, 127
2, 176452, Note_on_c, 4, 52, 127
2, 176495, Note_off_c, 11, 70, 127
2, 176495, Note_on_c, 0, 72, 127
2, 176579, Note_off_c, 0, 72, 127
2, 176579, Note_on_c, 11, 70, 127
2, 176663, Note_off_c, 11, 70, 127
2, 176663, Note_on_c, 10, 69, 127
2, 176747, Note_off_c, 10, 69, 127
2, 176747, Note_on_c, 11, 70, 127
2, 176831, Note_off_c, 11, 70, 127
2, 176831, Note_on_c, 0, 72, 127
2, 176911, Note_off_c, 4, 52, 127
2, 176911, Note_off_c, 7, 55, 127
2, 176912, Note_on_c, 5, 41, 127
2, 176912, Note_on_c, 5, 53, 127
2, 176912, Note_on_c, 11, 70, 127
2, 176914, Note_off_c, 0, 72, 127
2, 176968, Note_off_c, 11, 70, 127
2, 176969, Note_on_c, 10, 69, 127
2, 177025, Note_off_c, 10, 69, 127
2, 177026, Note_on_c, 11, 70, 127
2, 177082, Note_off_c, 11, 70, 127
2, 177083, Note_on_c, 10, 69, 127
2, 177139, Note_off_c, 10, 69, 127
2, 177140, Note_on_c, 5, 65, 127
2, 177369, Note_off_c, 5, 65, 127
2, 177369, Note_off_c, 5, 53, 127
2, 177369, Note_off_c, 5, 41, 127
2, 177370, Note_on_c, 5, 53, 127
2, 177370, Note_on_c, 5, 65, 127
2, 177370, Note_on_c, 10, 81, 127
2, 177599, Note_off_c, 10, 81, 127
2, 177599, Note_off_c, 5, 65, 127
2, 177600, Note_on_c, 4, 64, 127
2, 177600, Note_on_c, 7, 79, 127
2, 177829, Note_off_c, 7, 79, 127
2, 177829, Note_off_c, 4, 64, 127
2, 177830, Note_on_c, 2, 62, 127
2, 177830, Note_on_c, 5, 77, 127
2, 178059, Note_off_c, 5, 77, 127
2, 178059, Note_off_c, 2, 62, 127
2, 178060, Note_on_c, 0, 60, 127
2, 178060, Note_on_c, 4, 76, 127
2, 178289, Note_off_c, 4, 76, 127
2, 178289, Note_off_c, 0, 60, 127
2, 178290, Note_on_c, 5, 65, 127
2, 178290, Note_on_c, 2, 74, 127
2, 178519, Note_off_c, 5, 65, 127
2, 178520, Note_on_c, 4, 64, 127
2, 178520, Note_on_c, 0, 72, 127
2, 178531, Note_off_c, 2, 74, 127
2, 178736, Note_off_c, 0, 72, 127
2, 178748, Note_off_c, 5, 53, 127
2, 178749, Note_off_c, 4, 64, 127
2, 178750, Note_on_c, 2, 62, 127
2, 178750, Note_on_c, 7, 55, 127
2, 178750, Note_on_c, 0, 72, 127
2, 178846, Note_on_c, 12, 71, 127
2, 178847, Note_off_c, 0, 72, 127
2, 178918, Note_on_c, 0, 72, 127
2, 178922, Note_off_c, 12, 71, 127
2, 178990, Note_on_c, 12, 71, 127
2, 178994, Note_off_c, 0, 72, 127
2, 179062, Note_on_c, 0, 72, 127
2, 179066, Note_off_c, 12, 71, 127
2, 179134, Note_on_c, 12, 71, 127
2, 179138, Note_off_c, 0, 72, 127
2, 179440, Note_off_c, 12, 71, 127
2, 179441, Note_on_c, 0, 72, 127
2, 179670, Note_off_c, 0, 72, 127
2, 179670, Note_off_c, 7, 55, 127
2, 179670, Note_off_c, 2, 62, 127
2, 179671, Note_on_c, 0, 48, 127
2, 179671, Note_on_c, 0, 60, 127
2, 179671, Note_on_c, 0, 72, 127
2, 180131, Note_off_c, 0, 72, 127
2, 180131, Note_off_c, 0, 60, 127
2, 180131, Note_off_c, 0, 48, 127
2, 180132, Note_on_c, 0, 60, 127
2, 180132, Note_on_c, 4, 64, 127
2, 180132, Note_on_c, 7, 79, 127
2, 180361, Note_off_c, 7, 79, 127
2, 180362, Note_on_c, 5, 77, 127
2, 180591, Note_off_c, 5, 77, 127
2, 180592, Note_on_c, 7, 79, 127
2, 180821, Note_off_c, 7, 79, 127
2, 180822, Note_on_c, 11, 82, 127
2, 181051, Note_off_c, 11, 82, 127
2, 181051, Note_off_c, 4, 64, 127
2, 181051, Note_off_c, 0, 60, 127
2, 181052, Note_on_c, 5, 53, 127
2, 181052, Note_on_c, 5, 65, 127
2, 181052, Note_on_c, 10, 81, 127
2, 181166, Note_off_c, 10, 81, 127
2, 181167, Note_on_c, 7, 79, 127
2, 181281, Note_off_c, 7, 79, 127
2, 181282, Note_on_c, 10, 81, 127
2, 181396, Note_off_c, 10, 81, 127
2, 181397, Note_on_c, 11, 82, 127
2, 181511, Note_off_c, 11, 82, 127
2, 181511, Note_off_c, 5, 65, 127
2, 181511, Note_off_c, 5, 53, 127
2, 181512, Note_on_c, 4, 64, 127
2, 181512, Note_on_c, 0, 60, 127
2, 181512, Note_on_c, 7, 79, 127
2, 181741, Note_off_c, 7, 79, 127
2, 181742, Note_on_c, 5, 77, 127
2, 181971, Note_off_c, 5, 77, 127
2, 181972, Note_on_c, 4, 76, 127
2, 182201, Note_off_c, 4, 76, 127
2, 182202, Note_on_c, 5, 77, 127
2, 182431, Note_off_c, 5, 77, 127
2, 182432, Note_on_c, 7, 79, 127
2, 182490, Note_on_c, 5, 77, 127
2, 182492, Note_off_c, 7, 79, 127
2, 182547, Note_on_c, 7, 79, 127
2, 182549, Note_off_c, 5, 77, 127
2, 182883, Note_off_c, 7, 79, 127
2, 182891, Note_off_c, 0, 60, 127
2, 182891, Note_off_c, 4, 64, 127
2, 182892, Note_on_c, 1, 61, 127
2, 182892, Note_on_c, 4, 64, 127
2, 182892, Note_on_c, 10, 81, 127
2, 183121, Note_off_c, 10, 81, 127
2, 183122, Note_on_c, 7, 79, 127
2, 183351, Note_off_c, 7, 79, 127
2, 183351, Note_off_c, 4, 64, 127
2, 183351, Note_off_c, 1, 61, 127
2, 183352, Note_on_c, 2, 62, 127
2, 183352, Note_on_c, 5, 77, 127
2, 183581, Note_off_c, 5, 77, 127
2, 183581, Note_off_c, 2, 62, 127
2, 183582, Note_on_c, 0, 60, 127
2, 183582, Note_on_c, 4, 76, 127
2, 183811, Note_off_c, 4, 76, 127
2, 183811, Note_off_c, 0, 60, 127
2, 183812, Note_on_c, 11, 58, 127
2, 183812, Note_on_c, 2, 74, 127
2, 184041, Note_off_c, 2, 74, 127
2, 184041, Note_off_c, 11, 58, 127
2, 184042, Note_on_c, 10, 57, 127
2, 184042, Note_on_c, 4, 76, 127
2, 184271, Note_off_c, 4, 76, 127
2, 184271, Note_off_c, 10, 57, 127
2, 184272, Note_on_c, 10, 57, 127
2, 184272, Note_on_c, 2, 74, 127
2, 184445, Note_off_c, 2, 74, 127
2, 184445, Note_on_c, 1, 73, 127
2, 184509, Note_on_c, 2, 74, 127
2, 184522, Note_off_c, 1, 73, 127
2, 184572, Note_on_c, 1, 73, 127
2, 184585, Note_off_c, 2, 74, 127
2, 184635, Note_on_c, 2, 74, 127
2, 184648, Note_off_c, 1, 73, 127
2, 184698, Note_on_c, 1, 73, 127
2, 184711, Note_off_c, 2, 74, 127
2, 184730, Note_off_c, 10, 57, 127
2, 184731, Note_on_c, 10, 45, 127
2, 184942, Note_off_c, 1, 73, 127
2, 184961, Note_on_c, 2, 74, 127
2, 185190, Note_off_c, 2, 74, 127
2, 185190, Note_off_c, 10, 45, 127
2, 185191, Note_on_c, 2, 50, 127
2, 185191, Note_on_c, 2, 74, 127
2, 185651, Note_off_c, 2, 74, 127
2, 185651, Note_off_c, 2, 50, 127
2, 185652, Note_on_c, 10, 57, 127
2, 185652, Note_on_c, 2, 50, 127
2, 185652, Note_on_c, 5, 77, 127
2, 185881, Note_off_c, 5, 77, 127
2, 185881, Note_off_c, 10, 57, 127
2, 185882, Note_on_c, 7, 55, 127
2, 185882, Note_on_c, 4, 76, 127
2, 186111, Note_off_c, 4, 76, 127
2, 186111, Note_off_c, 7, 55, 127
2, 186112, Note_on_c, 5, 53, 127
2, 186112, Note_on_c, 2, 74, 127
2, 186341, Note_off_c, 2, 74, 127
2, 186342, Note_on_c, 4, 76, 127
2, 186571, Note_off_c, 4, 76, 127
2, 186571, Note_off_c, 5, 53, 127
2, 186571, Note_off_c, 2, 50, 127
2, 186572, Note_on_c, 7, 55, 127
2, 186572, Note_on_c, 4, 52, 127
2, 186572, Note_on_c, 0, 72, 127
2, 186801, Note_off_c, 0, 72, 127
2, 186802, Note_on_c, 11, 70, 127
2, 187031, Note_off_c, 11, 70, 127
2, 187031, Note_off_c, 4, 52, 127
2, 187031, Note_off_c, 7, 55, 127
2, 187032, Note_on_c, 5, 53, 127
2, 187032, Note_on_c, 10, 69, 127
2, 187261, Note_off_c, 10, 69, 127
2, 187262, Note_on_c, 11, 70, 127
2, 187491, Note_off_c, 11, 70, 127
2, 187492, Note_on_c, 5, 41, 127
2, 187492, Note_on_c, 10, 69, 127
2, 187721, Note_off_c, 10, 69, 127
2, 187721, Note_off_c, 5, 53, 127
2, 187722, Note_on_c, 4, 52, 127
2, 187722, Note_on_c, 7, 67, 127
2, 187948, Note_off_c, 5, 41, 127
2, 187952, Note_off_c, 7, 67, 127
2, 187952, Note_off_c, 4, 52, 127
2, 187953, Note_on_c, 2, 50, 127
2, 187953, Note_on_c, 5, 65, 127
2, 188182, Note_off_c, 2, 50, 127
2, 188183, Note_on_c, 0, 48, 127
2, 188412, Note_off_c, 0, 48, 127
2, 188412, Note_off_c, 5, 65, 127
2, 188413, Note_on_c, 11, 46, 127
2, 188413, Note_on_c, 7, 67, 127
2, 188642, Note_off_c, 7, 67, 127
2, 188642, Note_off_c, 11, 46, 127
2, 188643, Note_on_c, 10, 45, 127
2, 188643, Note_on_c, 10, 69, 127
2, 188872, Note_off_c, 10, 69, 127
2, 188872, Note_off_c, 10, 45, 127
2, 188873, Note_on_c, 7, 43, 127
2, 188873, Note_on_c, 2, 50, 127
2, 188873, Note_on_c, 11, 70, 127
2, 189102, Note_off_c, 11, 70, 127
2, 189102, Note_off_c, 2, 50, 127
2, 189103, Note_on_c, 4, 52, 127
2, 189103, Note_on_c, 0, 72, 127
2, 189329, Note_off_c, 7, 43, 127
2, 189333, Note_off_c, 0, 72, 127
2, 189333, Note_off_c, 4, 52, 127
2, 189334, Note_on_c, 5, 41, 127
2, 189334, Note_on_c, 5, 53, 127
2, 189334, Note_on_c, 10, 69, 127
2, 189563, Note_off_c, 10, 69, 127
2, 189563, Note_off_c, 5, 41, 127
2, 189564, Note_on_c, 11, 46, 127
2, 189564, Note_on_c, 11, 70, 127
2, 189793, Note_off_c, 11, 70, 127
2, 189793, Note_off_c, 11, 46, 127
2, 189794, Note_on_c, 0, 48, 127
2, 189794, Note_on_c, 10, 69, 127
2, 189946, Note_off_c, 10, 69, 127
2, 189947, Note_on_c, 7, 67, 127
2, 190023, Note_off_c, 7, 67, 127
2, 190024, Note_on_c, 10, 69, 127
2, 190100, Note_off_c, 10, 69, 127
2, 190101, Note_on_c, 7, 67, 127
2, 190177, Note_off_c, 7, 67, 127
2, 190178, Note_on_c, 10, 69, 127
2, 190254, Note_off_c, 10, 69, 127
2, 190254, Note_off_c, 5, 53, 127
2, 190255, Note_on_c, 4, 52, 127
2, 190255, Note_on_c, 7, 67, 127
2, 190484, Note_off_c, 7, 67, 127
2, 190485, Note_on_c, 5, 65, 127
2, 190714, Note_off_c, 5, 65, 127
2, 190714, Note_off_c, 4, 52, 127
2, 190714, Note_off_c, 0, 48, 127
2, 190715, Note_on_c, 5, 41, 127
2, 190715, Note_on_c, 5, 53, 127
2, 190715, Note_on_c, 5, 65, 127
2, 191175, Note_off_c, 5, 65, 127
2, 191175, Note_off_c, 5, 53, 127
2, 191175, Note_off_c, 5, 41, 127
2, 191176, Note_on_c, 5, 53, 127
2, 191176, Note_on_c, 5, 65, 127
2, 191176, Note_on_c, 10, 81, 127
2, 191290, Note_off_c, 10, 81, 127
2, 191291, Note_on_c, 11, 82, 127
2, 191405, Note_off_c, 11, 82, 127
2, 191405, Note_off_c, 5, 65, 127
2, 191406, Note_on_c, 4, 64, 127
2, 191406, Note_on_c, 10, 81, 127
2, 191520, Note_off_c, 10, 81, 127
2, 191521, Note_on_c, 7, 79, 127
2, 191635, Note_off_c, 7, 79, 127
2, 191635, Note_off_c, 4, 64, 127
2, 191636, Note_on_c, 2, 62, 127
2, 191636, Note_on_c, 5, 77, 127
2, 191750, Note_off_c, 5, 77, 127
2, 191750, Note_off_c, 2, 62, 127
2, 191751, Note_on_c, 4, 64, 127
2, 191751, Note_on_c, 7, 79, 127
2, 191865, Note_off_c, 7, 79, 127
2, 191865, Note_off_c, 4, 64, 127
2, 191866, Note_on_c, 2, 62, 127
2, 191866, Note_on_c, 5, 77, 127
2, 191980, Note_off_c, 5, 77, 127
2, 191980, Note_off_c, 2, 62, 127
2, 191981, Note_on_c, 0, 60, 127
2, 191981, Note_on_c, 4, 76, 127
2, 192095, Note_off_c, 4, 76, 127
2, 192095, Note_off_c, 0, 60, 127
2, 192095, Note_off_c, 5, 53, 127
2, 192096, Note_on_c, 11, 58, 127
2, 192096, Note_on_c, 2, 74, 127
2, 192210, Note_off_c, 2, 74, 127
2, 192210, Note_off_c, 11, 58, 127
2, 192211, Note_on_c, 0, 60, 127
2, 192211, Note_on_c, 4, 76, 127
2, 192325, Note_off_c, 4, 76, 127
2, 192325, Note_off_c, 0, 60, 127
2, 192326, Note_on_c, 11, 58, 127
2, 192326, Note_on_c, 2, 74, 127
2, 192440, Note_off_c, 2, 74, 127
2, 192440, Note_off_c, 11, 58, 127
2, 192441, Note_on_c, 10, 57, 127
2, 192441, Note_on_c, 0, 72, 127
2, 192555, Note_off_c, 0, 72, 127
2, 192555, Note_off_c, 10, 57, 127
2, 192556, Note_on_c, 7, 55, 127
2, 192556, Note_on_c, 11, 70, 127
2, 192670, Note_off_c, 11, 70, 127
2, 192671, Note_on_c, 10, 69, 127
2, 192785, Note_off_c, 10, 69, 127
2, 192785, Note_off_c, 7, 55, 127
2, 192786, Note_on_c, 5, 53, 127
2, 192786, Note_on_c, 11, 70, 127
2, 192900, Note_off_c, 11, 70, 127
2, 192901, Note_on_c, 0, 72, 127
2, 193015, Note_off_c, 0, 72, 127
2, 193015, Note_off_c, 5, 53, 127
2, 193016, Note_on_c, 4, 52, 127
2, 193016, Note_on_c, 11, 70, 127
2, 193130, Note_off_c, 11, 70, 127
2, 193130, Note_off_c, 4, 52, 127
2, 193131, Note_on_c, 0, 48, 127
2, 193131, Note_on_c, 2, 74, 127
2, 193245, Note_off_c, 2, 74, 127
2, 193245, Note_off_c, 0, 48, 127
2, 193246, Note_on_c, 2, 50, 127
2, 193246, Note_on_c, 0, 72, 127
2, 193360, Note_off_c, 0, 72, 127
2, 193360, Note_off_c, 2, 50, 127
2, 193361, Note_on_c, 4, 52, 127
2, 193361, Note_on_c, 11, 70, 127
2, 193475, Note_off_c, 11, 70, 127
2, 193475, Note_off_c, 4, 52, 127
2, 193476, Note_on_c, 5, 53, 127
2, 193476, Note_on_c, 10, 69, 127
2, 193553, Note_off_c, 10, 69, 127
2, 193553, Note_on_c, 11, 70, 127
2, 193590, Note_off_c, 5, 53, 127
2, 193591, Note_on_c, 0, 48, 127
2, 193629, Note_off_c, 11, 70, 127
2, 193629, Note_on_c, 10, 69, 127
2, 193705, Note_off_c, 0, 48, 127
2, 193706, Note_off_c, 10, 69, 127
2, 193706, Note_on_c, 10, 45, 127
2, 193706, Note_on_c, 5, 65, 127
2, 193820, Note_off_c, 10, 45, 127
2, 193821, Note_on_c, 0, 48, 127
2, 193935, Note_off_c, 0, 48, 127
2, 193935, Note_off_c, 5, 65, 127
2, 193936, Note_on_c, 5, 41, 127
2, 193936, Note_on_c, 10, 81, 127
2, 194050, Note_off_c, 10, 81, 127
2, 194051, Note_on_c, 11, 82, 127
2, 194165, Note_off_c, 11, 82, 127
2, 194166, Note_on_c, 10, 81, 127
2, 194280, Note_off_c, 10, 81, 127
2, 194281, Note_on_c, 7, 79, 127
2, 194395, Note_off_c, 7, 79, 127
2, 194395, Note_off_c, 5, 41, 127
2, 194396, Note_on_c, 5, 53, 127
2, 194396, Note_on_c, 2, 62, 127
2, 194396, Note_on_c, 5, 77, 127
2, 194510, Note_off_c, 5, 77, 127
2, 194510, Note_off_c, 2, 62, 127
2, 194511, Note_on_c, 4, 64, 127
2, 194511, Note_on_c, 7, 79, 127
2, 194625, Note_off_c, 7, 79, 127
2, 194625, Note_off_c, 4, 64, 127
2, 194626, Note_on_c, 2, 62, 127
2, 194626, Note_on_c, 5, 77, 127
2, 194740, Note_off_c, 5, 77, 127
2, 194740, Note_off_c, 2, 62, 127
2, 194741, Note_on_c, 0, 60, 127
2, 194741, Note_on_c, 4, 76, 127
2, 194855, Note_off_c, 4, 76, 127
2, 194855, Note_off_c, 0, 60, 127
2, 194856, Note_on_c, 12, 59, 127
2, 194856, Note_on_c, 2, 74, 127
2, 194970, Note_off_c, 2, 74, 127
2, 194970, Note_off_c, 12, 59, 127
2, 194971, Note_on_c, 0, 60, 127
2, 194971, Note_on_c, 4, 76, 127
2, 195085, Note_off_c, 4, 76, 127
2, 195085, Note_off_c, 0, 60, 127
2, 195086, Note_on_c, 12, 59, 127
2, 195086, Note_on_c, 2, 74, 127
2, 195200, Note_off_c, 2, 74, 127
2, 195200, Note_off_c, 12, 59, 127
2, 195201, Note_on_c, 10, 57, 127
2, 195201, Note_on_c, 0, 72, 127
2, 195315, Note_off_c, 0, 72, 127
2, 195315, Note_off_c, 10, 57, 127
2, 195315, Note_off_c, 5, 53, 127
2, 195316, Note_on_c, 7, 55, 127
2, 195316, Note_on_c, 12, 71, 127
2, 195430, Note_off_c, 12, 71, 127
2, 195431, Note_on_c, 2, 74, 127
2, 195545, Note_off_c, 2, 74, 127
2, 195545, Note_off_c, 7, 55, 127
2, 195546, Note_on_c, 5, 53, 127
2, 195546, Note_on_c, 4, 76, 127
2, 195660, Note_off_c, 4, 76, 127
2, 195661, Note_on_c, 5, 77, 127
2, 195775, Note_off_c, 5, 77, 127
2, 195775, Note_off_c, 5, 53, 127
2, 195776, Note_on_c, 4, 52, 127
2, 195776, Note_on_c, 7, 79, 127
2, 195890, Note_off_c, 7, 79, 127
2, 195890, Note_off_c, 4, 52, 127
2, 195891, Note_on_c, 5, 53, 127
2, 195891, Note_on_c, 10, 81, 127
2, 196005, Note_off_c, 10, 81, 127
2, 196005, Note_off_c, 5, 53, 127
2, 196006, Note_on_c, 4, 52, 127
2, 196006, Note_on_c, 7, 79, 127
2, 196120, Note_off_c, 7, 79, 127
2, 196120, Note_off_c, 4, 52, 127
2, 196121, Note_on_c, 2, 50, 127
2, 196121, Note_on_c, 5, 77, 127
2, 196235, Note_off_c, 5, 77, 127
2, 196235, Note_off_c, 2, 50, 127
2, 196236, Note_on_c, 0, 48, 127
2, 196236, Note_on_c, 5, 77, 127
2, 196292, Note_off_c, 5, 77, 127
2, 196293, Note_on_c, 4, 76, 127
2, 196349, Note_off_c, 4, 76, 127
2, 196349, Note_off_c, 0, 48, 127
2, 196350, Note_on_c, 2, 50, 127
2, 196350, Note_on_c, 5, 77, 127
2, 196406, Note_off_c, 5, 77, 127
2, 196407, Note_on_c, 4, 76, 127
2, 196463, Note_off_c, 4, 76, 127
2, 196463, Note_off_c, 2, 50, 127
2, 196464, Note_on_c, 4, 52, 127
2, 196464, Note_on_c, 0, 72, 127
2, 196578, Note_off_c, 4, 52, 127
2, 196579, Note_on_c, 0, 48, 127
2, 196693, Note_off_c, 0, 48, 127
2, 196693, Note_off_c, 0, 72, 127
2, 196694, Note_on_c, 0, 60, 127
2, 196694, Note_on_c, 4, 64, 127
2, 196694, Note_on_c, 7, 79, 127
2, 196808, Note_off_c, 7, 79, 127
2, 196809, Note_on_c, 5, 77, 127
2, 196923, Note_off_c, 5, 77, 127
2, 196923, Note_off_c, 0, 60, 127
2, 196924, Note_on_c, 12, 59, 127
2, 196924, Note_on_c, 4, 76, 127
2, 197038, Note_off_c, 4, 76, 127
2, 197039, Note_on_c, 2, 74, 127
2, 197149, Note_off_c, 4, 64, 127
2, 197153, Note_off_c, 2, 74, 127
2, 197153, Note_off_c, 12, 59, 127
2, 197154, Note_on_c, 10, 57, 127
2, 197154, Note_on_c, 0, 72, 127
2, 197268, Note_off_c, 0, 72, 127
2, 197269, Note_on_c, 7, 79, 127
2, 197383, Note_off_c, 7, 79, 127
2, 197383, Note_off_c, 10, 57, 127
2, 197384, Note_on_c, 7, 55, 127
2, 197384, Note_on_c, 10, 81, 127
2, 197498, Note_off_c, 10, 81, 127
2, 197499, Note_on_c, 11, 82, 127
2, 197613, Note_off_c, 11, 82, 127
2, 197613, Note_off_c, 7, 55, 127
2, 197614, Note_on_c, 5, 53, 127
2, 197614, Note_on_c, 10, 81, 127
2, 197728, Note_off_c, 10, 81, 127
2, 197728, Note_off_c, 5, 53, 127
2, 197729, Note_on_c, 7, 55, 127
2, 197729, Note_on_c, 7, 79, 127
2, 197843, Note_off_c, 7, 79, 127
2, 197843, Note_off_c, 7, 55, 127
2, 197844, Note_on_c, 10, 57, 127
2, 197844, Note_on_c, 5, 77, 127
2, 197958, Note_off_c, 5, 77, 127
2, 197958, Note_off_c, 10, 57, 127
2, 197959, Note_on_c, 5, 53, 127
2, 197959, Note_on_c, 7, 79, 127
2, 198073, Note_off_c, 7, 79, 127
2, 198073, Note_off_c, 5, 53, 127
2, 198074, Note_on_c, 7, 55, 127
2, 198074, Note_on_c, 4, 76, 127
2, 198188, Note_off_c, 4, 76, 127
2, 198189, Note_on_c, 7, 67, 127
2, 198303, Note_off_c, 7, 67, 127
2, 198303, Note_off_c, 7, 55, 127
2, 198304, Note_on_c, 5, 53, 127
2, 198304, Note_on_c, 10, 69, 127
2, 198418, Note_off_c, 10, 69, 127
2, 198419, Note_on_c, 12, 71, 127
2, 198533, Note_off_c, 12, 71, 127
2, 198533, Note_off_c, 5, 53, 127
2, 198534, Note_on_c, 4, 52, 127
2, 198534, Note_on_c, 0, 72, 127
2, 198648, Note_off_c, 0, 72, 127
2, 198649, Note_on_c, 2, 74, 127
2, 198763, Note_off_c, 2, 74, 127
2, 198763, Note_off_c, 4, 52, 127
2, 198764, Note_on_c, 2, 50, 127
2, 198764, Note_on_c, 4, 76, 127
2, 198878, Note_off_c, 4, 76, 127
2, 198879, Note_on_c, 5, 77, 127
2, 198993, Note_off_c, 5, 77, 127
2, 198993, Note_off_c, 2, 50, 127
2, 198994, Note_on_c, 0, 48, 127
2, 198994, Note_on_c, 7, 79, 127
2, 199108, Note_off_c, 0, 48, 127
2, 199109, Note_on_c, 2, 50, 127
2, 199223, Note_off_c, 2, 50, 127
2, 199223, Note_off_c, 7, 79, 127
2, 199224, Note_on_c, 4, 52, 127
2, 199224, Note_on_c, 0, 72, 127
2, 199338, Note_off_c, 4, 52, 127
2, 199339, Note_on_c, 2, 50, 127
2, 199453, Note_off_c, 2, 50, 127
2, 199453, Note_off_c, 0, 72, 127
2, 199454, Note_on_c, 1, 49, 127
2, 199454, Note_on_c, 4, 52, 127
2, 199454, Note_on_c, 10, 81, 127
2, 199568, Note_off_c, 10, 81, 127
2, 199569, Note_on_c, 4, 76, 127
2, 199683, Note_off_c, 4, 76, 127
2, 199684, Note_on_c, 10, 69, 127
2, 199798, Note_off_c, 10, 69, 127
2, 199799, Note_on_c, 7, 79, 127
2, 199913, Note_off_c, 7, 79, 127
2, 199913, Note_off_c, 4, 52, 127
2, 199913, Note_off_c, 1, 49, 127
2, 199914, Note_on_c, 2, 50, 127
2, 199914, Note_on_c, 5, 77, 127
2, 200028, Note_off_c, 5, 77, 127
2, 200029, Note_on_c, 10, 69, 127
2, 200143, Note_off_c, 10, 69, 127
2, 200143, Note_off_c, 2, 50, 127
2, 200144, Note_on_c, 5, 53, 127
2, 200144, Note_on_c, 2, 74, 127
2, 200258, Note_off_c, 2, 74, 127
2, 200259, Note_on_c, 0, 72, 127
2, 200373, Note_off_c, 0, 72, 127
2, 200373, Note_off_c, 5, 53, 127
2, 200374, Note_on_c, 7, 55, 127
2, 200374, Note_on_c, 12, 71, 127
2, 200488, Note_off_c, 12, 71, 127
2, 200489, Note_on_c, 2, 74, 127
2, 200603, Note_off_c, 2, 74, 127
2, 200603, Note_off_c, 7, 55, 127
2, 200604, Note_on_c, 4, 52, 127
2, 200604, Note_on_c, 7, 79, 127
2, 200718, Note_off_c, 7, 79, 127
2, 200719, Note_on_c, 12, 71, 127
2, 200833, Note_off_c, 12, 71, 127
2, 200833, Note_off_c, 4, 52, 127
2, 200834, Note_on_c, 10, 57, 127
2, 200834, Note_on_c, 1, 73, 127
2, 200948, Note_off_c, 1, 73, 127
2, 200949, Note_on_c, 10, 69, 127
2, 201063, Note_off_c, 10, 69, 127
2, 201063, Note_off_c, 10, 57, 127
2, 201064, Note_on_c, 5, 53, 127
2, 201064, Note_on_c, 2, 74, 127
2, 201178, Note_off_c, 2, 74, 127
2, 201178, Note_off_c, 5, 53, 127
2, 201179, Note_on_c, 7, 55, 127
2, 201179, Note_on_c, 4, 76, 127
2, 201293, Note_off_c, 4, 76, 127
2, 201293, Note_off_c, 7, 55, 127
2, 201294, Note_on_c, 10, 57, 127
2, 201294, Note_on_c, 1, 73, 127
2, 201408, Note_off_c, 1, 73, 127
2, 201409, Note_on_c, 4, 76, 127
2, 201523, Note_off_c, 4, 76, 127
2, 201523, Note_off_c, 10, 57, 127
2, 201524, Note_on_c, 10, 45, 127
2, 201524, Note_on_c, 10, 81, 127
2, 201638, Note_off_c, 10, 81, 127
2, 201639, Note_on_c, 7, 79, 127
2, 201753, Note_off_c, 7, 79, 127
2, 201753, Note_off_c, 10, 45, 127
2, 201754, Note_on_c, 2, 50, 127
2, 201754, Note_on_c, 5, 77, 127
2, 201868, Note_off_c, 2, 50, 127
2, 201869, Note_on_c, 4, 52, 127
2, 201983, Note_off_c, 4, 52, 127
2, 201983, Note_off_c, 5, 77, 127
2, 201984, Note_on_c, 0, 48, 127
2, 201984, Note_on_c, 2, 74, 127
2, 202098, Note_off_c, 0, 48, 127
2, 202099, Note_on_c, 11, 46, 127
2, 202213, Note_off_c, 11, 46, 127
2, 202213, Note_off_c, 2, 74, 127
2, 202214, Note_on_c, 10, 45, 127
2, 202214, Note_on_c, 0, 48, 127
2, 202214, Note_on_c, 5, 53, 127
2, 202214, Note_on_c, 5, 77, 127
2, 202328, Note_off_c, 5, 77, 127
2, 202329, Note_on_c, 7, 79, 127
2, 202443, Note_off_c, 7, 79, 127
2, 202444, Note_on_c, 5, 77, 127
2, 202558, Note_off_c, 5, 77, 127
2, 202559, Note_on_c, 3, 75, 127
2, 202673, Note_off_c, 3, 75, 127
2, 202673, Note_off_c, 5, 53, 127
2, 202673, Note_off_c, 0, 48, 127
2, 202673, Note_off_c, 10, 45, 127
2, 202674, Note_on_c, 11, 46, 127
2, 202674, Note_on_c, 2, 74, 127
2, 202788, Note_off_c, 2, 74, 127
2, 202789, Note_on_c, 0, 72, 127
2, 202903, Note_off_c, 0, 72, 127
2, 202903, Note_off_c, 11, 46, 127
2, 202904, Note_on_c, 11, 58, 127
2, 202904, Note_on_c, 2, 74, 127
2, 203018, Note_off_c, 2, 74, 127
2, 203019, Note_on_c, 3, 75, 127
2, 203133, Note_off_c, 3, 75, 127
2, 203133, Note_off_c, 11, 58, 127
2, 203134, Note_on_c, 4, 52, 127
2, 203134, Note_on_c, 0, 72, 127
2, 203248, Note_off_c, 0, 72, 127
2, 203249, Note_on_c, 2, 74, 127
2, 203363, Note_off_c, 2, 74, 127
2, 203363, Note_off_c, 4, 52, 127
2, 203364, Note_on_c, 0, 48, 127
2, 203364, Note_on_c, 0, 72, 127
2, 203478, Note_off_c, 0, 72, 127
2, 203479, Note_on_c, 11, 70, 127
2, 203593, Note_off_c, 11, 70, 127
2, 203593, Note_off_c, 0, 48, 127
2, 203594, Note_on_c, 5, 53, 127
2, 203594, Note_on_c, 10, 69, 127
2, 203708, Note_off_c, 10, 69, 127
2, 203709, Note_on_c, 7, 67, 127
2, 203823, Note_off_c, 7, 67, 127
2, 203823, Note_off_c, 5, 53, 127
2, 203824, Note_on_c, 7, 55, 127
2, 203824, Note_on_c, 10, 69, 127
2, 203938, Note_off_c, 10, 69, 127
2, 203939, Note_on_c, 11, 70, 127
2, 204053, Note_off_c, 11, 70, 127
2, 204053, Note_off_c, 7, 55, 127
2, 204054, Note_on_c, 10, 57, 127
2, 204054, Note_on_c, 0, 72, 127
2, 204168, Note_off_c, 0, 72, 127
2, 204169, Note_on_c, 2, 74, 127
2, 204283, Note_off_c, 2, 74, 127
2, 204283, Note_off_c, 10, 57, 127
2, 204284, Note_on_c, 4, 52, 127
2, 204284, Note_on_c, 7, 67, 127
2, 204398, Note_off_c, 7, 67, 127
2, 204399, Note_on_c, 11, 70, 127
2, 204513, Note_off_c, 11, 70, 127
2, 204513, Note_off_c, 4, 52, 127
2, 204514, Note_on_c, 5, 53, 127
2, 204514, Note_on_c, 11, 70, 127
2, 204572, Note_on_c, 10, 69, 127
2, 204573, Note_off_c, 11, 70, 127
2, 204628, Note_off_c, 10, 69, 127
2, 204628, Note_off_c, 5, 53, 127
2, 204629, Note_on_c, 7, 55, 127
2, 204629, Note_on_c, 11, 70, 127
2, 204687, Note_off_c, 11, 70, 127
2, 204687, Note_on_c, 10, 69, 127
2, 204743, Note_off_c, 7, 55, 127
2, 204744, Note_off_c, 10, 69, 127
2, 204744, Note_on_c, 10, 57, 127
2, 204744, Note_on_c, 5, 65, 127
2, 204858, Note_off_c, 10, 57, 127
2, 204859, Note_on_c, 5, 53, 127
2, 204973, Note_off_c, 5, 53, 127
2, 204973, Note_off_c, 5, 65, 127
2, 204974, Note_on_c, 11, 58, 127
2, 204974, Note_on_c, 7, 67, 127
2, 205088, Note_off_c, 7, 67, 127
2, 205089, Note_on_c, 10, 69, 127
2, 205203, Note_off_c, 10, 69, 127
2, 205203, Note_off_c, 11, 58, 127
2, 205204, Note_on_c, 6, 54, 127
2, 205204, Note_on_c, 11, 70, 127
2, 205318, Note_off_c, 11, 70, 127
2, 205319, Note_on_c, 0, 72, 127
2, 205433, Note_off_c, 0, 72, 127
2, 205433, Note_off_c, 6, 54, 127
2, 205434, Note_on_c, 7, 55, 127
2, 205434, Note_on_c, 11, 70, 127
2, 205548, Note_off_c, 11, 70, 127
2, 205549, Note_on_c, 2, 74, 127
2, 205663, Note_off_c, 2, 74, 127
2, 205663, Note_off_c, 7, 55, 127
2, 205664, Note_on_c, 4, 52, 127
2, 205664, Note_on_c, 0, 72, 127
2, 205778, Note_off_c, 0, 72, 127
2, 205779, Note_on_c, 11, 70, 127
2, 205893, Note_off_c, 11, 70, 127
2, 205893, Note_off_c, 4, 52, 127
2, 205894, Note_on_c, 5, 53, 127
2, 205894, Note_on_c, 10, 69, 127
2, 206008, Note_off_c, 10, 69, 127
2, 206009, Note_on_c, 5, 77, 127
2, 206123, Note_off_c, 5, 77, 127
2, 206123, Note_off_c, 5, 53, 127
2, 206124, Note_on_c, 11, 46, 127
2, 206124, Note_on_c, 4, 76, 127
2, 206238, Note_off_c, 4, 76, 127
2, 206239, Note_on_c, 2, 74, 127
2, 206353, Note_off_c, 2, 74, 127
2, 206353, Note_off_c, 11, 46, 127
2, 206354, Note_on_c, 0, 48, 127
2, 206354, Note_on_c, 0, 72, 127
2, 206468, Note_off_c, 0, 72, 127
2, 206469, Note_on_c, 5, 77, 127
2, 206583, Note_off_c, 5, 77, 127
2, 206584, Note_on_c, 10, 69, 127
2, 206698, Note_off_c, 10, 69, 127
2, 206699, Note_on_c, 11, 70, 127
2, 206813, Note_off_c, 11, 70, 127
2, 206813, Note_off_c, 0, 48, 127
2, 206814, Note_on_c, 0, 36, 127
2, 206814, Note_on_c, 0, 72, 127
2, 206928, Note_off_c, 0, 72, 127
2, 206929, Note_on_c, 11, 70, 127
2, 207050, Note_off_c, 11, 70, 127
2, 207054, Note_on_c, 10, 69, 127
2, 207175, Note_off_c, 10, 69, 127
2, 207190, Note_on_c, 7, 67, 127
2, 207307, Note_off_c, 0, 36, 127
2, 207328, Note_on_c, 5, 41, 127
2, 207328, Note_on_c, 5, 65, 127
2, 207333, Note_off_c, 7, 67, 127
2, 207735, Note_on_c, 0, 48, 127
2, 207865, Note_off_c, 0, 48, 127
2, 208018, Note_off_c, 5, 41, 127
2, 208195, Note_on_c, 5, 53, 127
2, 208528, Note_off_c, 5, 65, 127
2, 208675, Note_off_c, 5, 53, 127
2, 213504, End_track
3, 0, Start_track
3, 0, Title_t, "MIDI"
3, 1536, End_track
0, 0, End_of_file
