0, 0, Header, 1, 3, 384
1, 0, Start_track
1, 0, Time_signature, 4, 2, 24, 8
1, 0, Tempo, 500000
1, 809472, End_track
2, 0, Start_track
2, 0, Text_t, "harpsichord: John Sankey"
2, 0, Program_c, 0, 6
2, 0, Pitch_bend_c, 0, 8192
2, 0, Program_c, 1, 6
2, 0, Pitch_bend_c, 1, 7792
2, 0, Program_c, 2, 6
2, 0, Pitch_bend_c, 2, 7876
2, 0, Program_c, 3, 6
2, 0, Pitch_bend_c, 3, 7952
2, 0, Program_c, 4, 6
2, 0, Pitch_bend_c, 4, 7792
2, 0, Program_c, 5, 6
2, 0, Pitch_bend_c, 5, 8112
2, 0, Program_c, 6, 6
2, 0, Pitch_bend_c, 6, 7712
2, 0, Program_c, 7, 6
2, 0, Pitch_bend_c, 7, 8037
2, 0, Program_c, 8, 6
2, 0, Pitch_bend_c, 8, 7872
2, 0, Program_c, 10, 6
2, 0, Pitch_bend_c, 10, 7712
2, 0, Program_c, 11, 6
2, 0, Pitch_bend_c, 11, 8032
2, 0, Program_c, 12, 6
2, 0, Pitch_bend_c, 12, 7872
2, 0, Title_t, "Track 1"
2, 32, Note_on_c, 2, 50, 127
2, 230, Note_on_c, 5, 53, 127
2, 428, Note_on_c, 10, 57, 127
2, 626, Note_on_c, 2, 62, 127
2, 824, Note_on_c, 5, 65, 127
2, 1021, Note_on_c, 10, 69, 127
2, 1215, Note_off_c, 5, 65, 127
2, 1217, Note_off_c, 10, 69, 127
2, 1218, Note_off_c, 2, 62, 127
2, 1218, Note_off_c, 10, 57, 127
2, 1218, Note_off_c, 5, 53, 127
2, 1219, Note_on_c, 1, 61, 127
2, 1219, Note_on_c, 7, 55, 127
2, 1219, Note_on_c, 4, 52, 127
2, 1417, Note_on_c, 7, 67, 127
2, 1615, Note_on_c, 11, 70, 127
2, 1808, Note_off_c, 7, 67, 127
2, 1811, Note_off_c, 11, 70, 127
2, 1811, Note_off_c, 4, 52, 127
2, 1811, Note_off_c, 7, 55, 127
2, 1811, Note_off_c, 1, 61, 127
2, 1812, Note_on_c, 2, 62, 127
2, 1812, Note_on_c, 10, 69, 127
2, 1812, Note_on_c, 5, 53, 127
2, 2010, Note_on_c, 10, 57, 127
2, 2206, Note_off_c, 10, 69, 127
2, 2206, Note_off_c, 2, 62, 127
2, 2208, Note_on_c, 2, 62, 127
2, 2404, Note_off_c, 5, 53, 127
2, 2406, Note_on_c, 5, 65, 127
2, 2602, Note_off_c, 5, 65, 127
2, 2603, Note_on_c, 10, 69, 127
2, 2799, Note_off_c, 10, 69, 127
2, 2801, Note_on_c, 2, 74, 127
2, 2997, Note_off_c, 10, 57, 127
2, 2998, Note_off_c, 2, 62, 127
2, 2999, Note_on_c, 4, 64, 127
2, 2999, Note_on_c, 7, 55, 127
2, 2999, Note_on_c, 11, 58, 127
2, 3192, Note_off_c, 2, 74, 127
2, 3197, Note_on_c, 4, 76, 127
2, 3393, Note_off_c, 4, 76, 127
2, 3394, Note_on_c, 1, 73, 127
2, 3590, Note_off_c, 1, 73, 127
2, 3591, Note_off_c, 11, 58, 127
2, 3591, Note_off_c, 7, 55, 127
2, 3591, Note_off_c, 4, 64, 127
2, 3592, Note_on_c, 2, 74, 127
2, 3592, Note_on_c, 5, 65, 127
2, 3592, Note_on_c, 10, 57, 127
2, 3788, Note_off_c, 2, 74, 127
2, 3790, Note_on_c, 10, 69, 127
2, 3986, Note_off_c, 10, 69, 127
2, 3988, Note_on_c, 0, 72, 127
2, 4184, Note_off_c, 5, 65, 127
2, 4185, Note_on_c, 6, 66, 127
2, 4383, Note_on_c, 10, 69, 127
2, 4581, Note_on_c, 2, 62, 127
2, 4777, Note_off_c, 2, 62, 127
2, 4777, Note_off_c, 10, 57, 127
2, 4779, Note_on_c, 0, 60, 127
2, 4975, Note_off_c, 0, 60, 127
2, 4976, Note_on_c, 11, 58, 127
2, 5172, Note_off_c, 11, 58, 127
2, 5174, Note_on_c, 10, 57, 127
2, 5370, Note_off_c, 10, 57, 127
2, 5372, Note_on_c, 11, 58, 127
2, 5570, Note_on_c, 2, 62, 127
2, 5760, Note_off_c, 6, 66, 127
2, 5761, Note_off_c, 10, 69, 127
2, 5765, Note_off_c, 0, 72, 127
2, 5768, Note_on_c, 6, 66, 127
2, 5961, Note_off_c, 2, 62, 127
2, 5964, Note_off_c, 6, 66, 127
2, 5965, Note_on_c, 10, 69, 127
2, 6163, Note_on_c, 0, 72, 127
2, 6361, Note_on_c, 6, 66, 127
2, 6554, Note_off_c, 0, 72, 127
2, 6557, Note_off_c, 6, 66, 127
2, 6557, Note_off_c, 10, 69, 127
2, 6559, Note_on_c, 7, 67, 127
2, 6756, Note_on_c, 11, 70, 127
2, 6954, Note_on_c, 2, 62, 127
2, 7147, Note_off_c, 11, 70, 127
2, 7150, Note_off_c, 2, 62, 127
2, 7150, Note_off_c, 11, 58, 127
2, 7151, Note_off_c, 7, 67, 127
2, 7152, Note_on_c, 4, 64, 127
2, 7152, Note_on_c, 7, 55, 127
2, 7350, Note_on_c, 7, 67, 127
2, 7547, Note_on_c, 2, 62, 127
2, 7741, Note_off_c, 7, 67, 127
2, 7743, Note_off_c, 2, 62, 127
2, 7744, Note_off_c, 4, 64, 127
2, 7745, Note_on_c, 1, 61, 127
2, 7745, Note_on_c, 4, 52, 127
2, 7943, Note_on_c, 4, 64, 127
2, 8139, Note_off_c, 4, 64, 127
2, 8141, Note_on_c, 7, 67, 127
2, 8337, Note_off_c, 7, 67, 127
2, 8338, Note_on_c, 11, 70, 127
2, 8534, Note_off_c, 11, 70, 127
2, 8536, Note_on_c, 10, 69, 127
2, 8732, Note_off_c, 10, 69, 127
2, 8734, Note_on_c, 7, 67, 127
2, 8923, Note_off_c, 2, 50, 127
2, 8929, Note_off_c, 1, 61, 127
2, 8930, Note_off_c, 7, 67, 127
2, 8930, Note_off_c, 4, 52, 127
2, 8930, Note_off_c, 7, 55, 127
2, 8932, Note_on_c, 2, 62, 127
2, 8932, Note_on_c, 5, 65, 127
2, 8932, Note_on_c, 2, 50, 127
2, 8932, Note_on_c, 10, 57, 127
2, 9128, Note_off_c, 5, 65, 127
2, 9129, Note_on_c, 4, 64, 127
2, 9323, Note_off_c, 2, 62, 127
2, 9325, Note_off_c, 4, 64, 127
2, 9327, Note_on_c, 2, 62, 127
2, 9523, Note_off_c, 2, 62, 127
2, 9525, Note_on_c, 5, 77, 127
2, 9622, Note_off_c, 5, 77, 127
2, 9623, Note_off_c, 10, 57, 127
2, 9623, Note_off_c, 2, 50, 127
2, 9624, Note_on_c, 4, 76, 127
2, 9624, Note_on_c, 4, 52, 127
2, 9721, Note_off_c, 4, 52, 127
2, 9721, Note_off_c, 4, 76, 127
2, 9723, Note_on_c, 5, 77, 127
2, 9723, Note_on_c, 5, 53, 127
2, 9820, Note_off_c, 5, 53, 127
2, 9822, Note_on_c, 7, 55, 127
2, 9919, Note_off_c, 7, 55, 127
2, 9920, Note_on_c, 10, 57, 127
2, 10114, Note_off_c, 5, 77, 127
2, 10116, Note_off_c, 10, 57, 127
2, 10118, Note_on_c, 5, 77, 127
2, 10118, Note_on_c, 0, 48, 127
2, 10314, Note_off_c, 0, 48, 127
2, 10316, Note_on_c, 4, 52, 127
2, 10512, Note_off_c, 4, 52, 127
2, 10514, Note_on_c, 10, 57, 127
2, 10710, Note_off_c, 10, 57, 127
2, 10710, Note_off_c, 5, 77, 127
2, 10712, Note_on_c, 7, 79, 127
2, 10712, Note_on_c, 12, 47, 127
2, 10776, Note_off_c, 7, 79, 127
2, 10777, Note_on_c, 5, 77, 127
2, 10841, Note_off_c, 5, 77, 127
2, 10843, Note_on_c, 4, 76, 127
2, 10907, Note_off_c, 4, 76, 127
2, 10908, Note_off_c, 12, 47, 127
2, 10909, Note_on_c, 5, 77, 127
2, 10909, Note_on_c, 2, 50, 127
2, 10973, Note_off_c, 5, 77, 127
2, 10975, Note_on_c, 7, 79, 127
2, 11039, Note_off_c, 7, 79, 127
2, 11041, Note_on_c, 5, 77, 127
2, 11105, Note_off_c, 5, 77, 127
2, 11105, Note_off_c, 2, 50, 127
2, 11107, Note_on_c, 7, 79, 127
2, 11107, Note_on_c, 5, 53, 127
2, 11171, Note_off_c, 7, 79, 127
2, 11173, Note_on_c, 5, 77, 127
2, 11237, Note_off_c, 5, 77, 127
2, 11239, Note_on_c, 7, 79, 127
2, 11303, Note_off_c, 7, 79, 127
2, 11303, Note_off_c, 5, 53, 127
2, 11305, Note_on_c, 5, 77, 127
2, 11305, Note_on_c, 10, 57, 127
2, 11369, Note_off_c, 5, 77, 127
2, 11371, Note_on_c, 7, 79, 127
2, 11435, Note_off_c, 7, 79, 127
2, 11437, Note_on_c, 5, 77, 127
2, 11501, Note_off_c, 5, 77, 127
2, 11501, Note_off_c, 10, 57, 127
2, 11503, Note_on_c, 7, 79, 127
2, 11503, Note_on_c, 12, 59, 127
2, 11567, Note_off_c, 7, 79, 127
2, 11568, Note_on_c, 5, 77, 127
2, 11632, Note_off_c, 5, 77, 127
2, 11634, Note_on_c, 7, 79, 127
2, 11698, Note_off_c, 7, 79, 127
2, 11699, Note_off_c, 12, 59, 127
2, 11700, Note_on_c, 5, 77, 127
2, 11700, Note_on_c, 0, 60, 127
2, 11764, Note_off_c, 5, 77, 127
2, 11766, Note_on_c, 7, 79, 127
2, 11830, Note_off_c, 7, 79, 127
2, 11832, Note_on_c, 5, 77, 127
2, 11896, Note_off_c, 5, 77, 127
2, 11896, Note_off_c, 0, 60, 127
2, 11898, Note_on_c, 7, 79, 127
2, 11898, Note_on_c, 12, 59, 127
2, 11962, Note_off_c, 7, 79, 127
2, 11964, Note_on_c, 5, 77, 127
2, 12028, Note_off_c, 5, 77, 127
2, 12030, Note_on_c, 7, 79, 127
2, 12094, Note_off_c, 7, 79, 127
2, 12094, Note_off_c, 12, 59, 127
2, 12096, Note_on_c, 5, 77, 127
2, 12096, Note_on_c, 8, 56, 127
2, 12160, Note_off_c, 5, 77, 127
2, 12162, Note_on_c, 7, 79, 127
2, 12226, Note_off_c, 7, 79, 127
2, 12228, Note_on_c, 5, 77, 127
2, 12292, Note_off_c, 5, 77, 127
2, 12292, Note_off_c, 8, 56, 127
2, 12294, Note_on_c, 7, 79, 127
2, 12294, Note_on_c, 10, 57, 127
2, 12358, Note_off_c, 7, 79, 127
2, 12360, Note_on_c, 5, 77, 127
2, 12424, Note_off_c, 5, 77, 127
2, 12425, Note_on_c, 7, 79, 127
2, 12489, Note_off_c, 7, 79, 127
2, 12490, Note_off_c, 10, 57, 127
2, 12491, Note_on_c, 5, 77, 127
2, 12491, Note_on_c, 8, 56, 127
2, 12555, Note_off_c, 5, 77, 127
2, 12557, Note_on_c, 7, 79, 127
2, 12621, Note_off_c, 7, 79, 127
2, 12623, Note_on_c, 5, 77, 127
2, 12687, Note_off_c, 5, 77, 127
2, 12689, Note_on_c, 7, 79, 127
2, 12689, Note_on_c, 12, 59, 127
2, 12753, Note_off_c, 7, 79, 127
2, 12755, Note_on_c, 5, 77, 127
2, 12819, Note_off_c, 5, 77, 127
2, 12821, Note_on_c, 7, 79, 127
2, 12885, Note_off_c, 7, 79, 127
2, 12885, Note_off_c, 12, 59, 127
2, 12887, Note_on_c, 5, 77, 127
2, 12887, Note_on_c, 2, 62, 127
2, 12951, Note_off_c, 5, 77, 127
2, 12953, Note_on_c, 7, 79, 127
2, 13017, Note_off_c, 7, 79, 127
2, 13019, Note_on_c, 5, 77, 127
2, 13083, Note_off_c, 5, 77, 127
2, 13083, Note_off_c, 2, 62, 127
2, 13085, Note_on_c, 7, 79, 127
2, 13085, Note_on_c, 5, 65, 127
2, 13149, Note_off_c, 7, 79, 127
2, 13151, Note_on_c, 5, 77, 127
2, 13215, Note_off_c, 5, 77, 127
2, 13216, Note_on_c, 7, 79, 127
2, 13280, Note_off_c, 7, 79, 127
2, 13281, Note_off_c, 5, 65, 127
2, 13282, Note_on_c, 5, 77, 127
2, 13282, Note_on_c, 4, 64, 127
2, 13346, Note_off_c, 5, 77, 127
2, 13348, Note_on_c, 7, 79, 127
2, 13412, Note_off_c, 7, 79, 127
2, 13414, Note_on_c, 5, 77, 127
2, 13478, Note_off_c, 5, 77, 127
2, 13478, Note_off_c, 4, 64, 127
2, 13480, Note_on_c, 7, 79, 127
2, 13480, Note_on_c, 2, 62, 127
2, 13544, Note_off_c, 7, 79, 127
2, 13546, Note_on_c, 5, 77, 127
2, 13610, Note_off_c, 5, 77, 127
2, 13612, Note_on_c, 7, 79, 127
2, 13676, Note_off_c, 7, 79, 127
2, 13676, Note_off_c, 2, 62, 127
2, 13678, Note_on_c, 5, 77, 127
2, 13678, Note_on_c, 0, 60, 127
2, 13742, Note_off_c, 5, 77, 127
2, 13744, Note_on_c, 7, 79, 127
2, 13808, Note_off_c, 7, 79, 127
2, 13810, Note_on_c, 5, 77, 127
2, 13874, Note_off_c, 5, 77, 127
2, 13874, Note_off_c, 0, 60, 127
2, 13876, Note_on_c, 7, 79, 127
2, 13876, Note_on_c, 2, 62, 127
2, 13940, Note_off_c, 7, 79, 127
2, 13942, Note_on_c, 5, 77, 127
2, 14006, Note_off_c, 5, 77, 127
2, 14008, Note_on_c, 7, 79, 127
2, 14072, Note_off_c, 7, 79, 127
2, 14072, Note_off_c, 2, 62, 127
2, 14073, Note_on_c, 5, 77, 127
2, 14073, Note_on_c, 12, 59, 127
2, 14137, Note_off_c, 5, 77, 127
2, 14139, Note_on_c, 7, 79, 127
2, 14203, Note_off_c, 7, 79, 127
2, 14205, Note_on_c, 5, 77, 127
2, 14269, Note_off_c, 12, 59, 127
2, 14269, Note_off_c, 8, 56, 127
2, 14271, Note_on_c, 10, 57, 127
2, 14271, Note_on_c, 0, 60, 127
2, 14462, Note_off_c, 5, 77, 127
2, 14469, Note_on_c, 4, 76, 127
2, 14665, Note_off_c, 4, 76, 127
2, 14667, Note_on_c, 2, 74, 127
2, 14863, Note_off_c, 2, 74, 127
2, 14864, Note_on_c, 4, 76, 127
2, 15060, Note_off_c, 4, 76, 127
2, 15062, Note_on_c, 10, 81, 127
2, 15258, Note_off_c, 10, 81, 127
2, 15260, Note_on_c, 8, 80, 127
2, 15456, Note_off_c, 8, 80, 127
2, 15458, Note_on_c, 10, 81, 127
2, 15654, Note_off_c, 10, 81, 127
2, 15656, Note_on_c, 12, 83, 127
2, 15852, Note_off_c, 12, 83, 127
2, 15853, Note_on_c, 0, 84, 127
2, 16049, Note_off_c, 0, 84, 127
2, 16049, Note_off_c, 0, 60, 127
2, 16051, Note_on_c, 2, 74, 127
2, 16051, Note_on_c, 12, 59, 127
2, 16247, Note_off_c, 2, 74, 127
2, 16249, Note_on_c, 4, 76, 127
2, 16445, Note_off_c, 4, 76, 127
2, 16447, Note_on_c, 5, 77, 127
2, 16640, Note_off_c, 10, 57, 127
2, 16644, Note_on_c, 8, 56, 127
2, 16841, Note_off_c, 5, 77, 127
2, 16842, Note_on_c, 4, 76, 127
2, 17038, Note_off_c, 4, 76, 127
2, 17040, Note_on_c, 2, 74, 127
2, 17235, Note_off_c, 12, 59, 127
2, 17236, Note_off_c, 2, 74, 127
2, 17236, Note_off_c, 8, 56, 127
2, 17238, Note_on_c, 0, 72, 127
2, 17238, Note_on_c, 4, 52, 127
2, 17238, Note_on_c, 8, 56, 127
2, 17434, Note_off_c, 0, 72, 127
2, 17435, Note_on_c, 2, 74, 127
2, 17631, Note_off_c, 2, 74, 127
2, 17633, Note_on_c, 12, 71, 127
2, 17829, Note_off_c, 12, 71, 127
2, 17830, Note_off_c, 8, 56, 127
2, 17830, Note_off_c, 4, 52, 127
2, 17831, Note_on_c, 0, 72, 127
2, 17831, Note_on_c, 10, 57, 127
2, 18029, Note_on_c, 10, 69, 127
2, 18226, Note_on_c, 4, 64, 127
2, 18422, Note_off_c, 4, 64, 127
2, 18424, Note_on_c, 0, 60, 127
2, 18620, Note_off_c, 0, 60, 127
2, 18622, Note_on_c, 4, 64, 127
2, 18818, Note_off_c, 10, 57, 127
2, 18819, Note_off_c, 10, 69, 127
2, 18820, Note_on_c, 10, 57, 127
2, 19016, Note_off_c, 10, 57, 127
2, 19017, Note_on_c, 7, 55, 127
2, 19213, Note_off_c, 7, 55, 127
2, 19215, Note_on_c, 5, 53, 127
2, 19411, Note_off_c, 5, 53, 127
2, 19413, Note_on_c, 4, 52, 127
2, 19609, Note_off_c, 4, 52, 127
2, 19610, Note_off_c, 4, 64, 127
2, 19611, Note_on_c, 5, 53, 127
2, 19808, Note_on_c, 10, 57, 127
2, 20006, Note_on_c, 0, 60, 127
2, 20199, Note_off_c, 10, 57, 127
2, 20204, Note_on_c, 4, 64, 127
2, 20397, Note_off_c, 0, 60, 127
2, 20400, Note_off_c, 4, 64, 127
2, 20402, Note_on_c, 12, 71, 127
2, 20402, Note_on_c, 2, 62, 127
2, 20406, Note_off_c, 0, 72, 127
2, 20598, Note_off_c, 2, 62, 127
2, 20598, Note_off_c, 12, 71, 127
2, 20600, Note_on_c, 10, 69, 127
2, 20600, Note_on_c, 0, 60, 127
2, 20796, Note_off_c, 0, 60, 127
2, 20796, Note_off_c, 10, 69, 127
2, 20797, Note_on_c, 2, 74, 127
2, 20797, Note_on_c, 12, 59, 127
2, 20993, Note_off_c, 12, 59, 127
2, 20993, Note_off_c, 2, 74, 127
2, 20995, Note_on_c, 4, 76, 127
2, 20995, Note_on_c, 0, 60, 127
2, 21191, Note_off_c, 0, 60, 127
2, 21191, Note_off_c, 4, 76, 127
2, 21193, Note_on_c, 5, 77, 127
2, 21193, Note_on_c, 2, 62, 127
2, 21389, Note_off_c, 5, 77, 127
2, 21389, Note_off_c, 5, 53, 127
2, 21391, Note_on_c, 8, 68, 127
2, 21391, Note_on_c, 4, 52, 127
2, 21587, Note_off_c, 8, 68, 127
2, 21588, Note_on_c, 12, 71, 127
2, 21785, Note_off_c, 2, 62, 127
2, 21786, Note_on_c, 4, 64, 127
2, 21982, Note_off_c, 4, 64, 127
2, 21984, Note_on_c, 5, 65, 127
2, 22180, Note_off_c, 5, 65, 127
2, 22182, Note_on_c, 4, 64, 127
2, 22379, Note_on_c, 2, 62, 127
2, 22575, Note_off_c, 2, 62, 127
2, 22577, Note_on_c, 0, 60, 127
2, 22773, Note_off_c, 0, 60, 127
2, 22775, Note_on_c, 2, 62, 127
2, 22971, Note_off_c, 2, 62, 127
2, 22973, Note_on_c, 12, 59, 127
2, 23169, Note_off_c, 12, 59, 127
2, 23170, Note_on_c, 0, 60, 127
2, 23367, Note_off_c, 4, 64, 127
2, 23368, Note_on_c, 4, 64, 127
2, 23566, Note_on_c, 8, 68, 127
2, 23568, Note_off_c, 12, 71, 127
2, 23762, Note_off_c, 8, 68, 127
2, 23764, Note_on_c, 10, 69, 127
2, 23960, Note_off_c, 10, 69, 127
2, 23960, Note_off_c, 0, 60, 127
2, 23961, Note_on_c, 12, 71, 127
2, 23961, Note_on_c, 12, 59, 127
2, 24157, Note_off_c, 12, 59, 127
2, 24157, Note_off_c, 12, 71, 127
2, 24159, Note_on_c, 0, 72, 127
2, 24159, Note_on_c, 10, 57, 127
2, 24355, Note_off_c, 10, 57, 127
2, 24355, Note_off_c, 0, 72, 127
2, 24356, Note_off_c, 4, 64, 127
2, 24357, Note_on_c, 4, 64, 127
2, 24357, Note_on_c, 12, 59, 127
2, 24553, Note_off_c, 12, 59, 127
2, 24555, Note_on_c, 10, 69, 127
2, 24555, Note_on_c, 0, 60, 127
2, 24751, Note_off_c, 0, 60, 127
2, 24751, Note_off_c, 10, 69, 127
2, 24752, Note_on_c, 8, 68, 127
2, 24752, Note_on_c, 2, 62, 127
2, 24944, Note_off_c, 4, 52, 127
2, 24948, Note_off_c, 2, 62, 127
2, 24948, Note_off_c, 8, 68, 127
2, 24950, Note_on_c, 10, 69, 127
2, 24950, Note_on_c, 10, 57, 127
2, 25148, Note_on_c, 0, 60, 127
2, 25344, Note_off_c, 0, 60, 127
2, 25346, Note_on_c, 12, 59, 127
2, 25541, Note_off_c, 4, 64, 127
2, 25542, Note_off_c, 12, 59, 127
2, 25542, Note_off_c, 10, 69, 127
2, 25544, Note_on_c, 0, 60, 127
2, 25740, Note_off_c, 0, 60, 127
2, 25740, Note_off_c, 10, 57, 127
2, 25741, Note_on_c, 10, 57, 127
2, 25939, Note_on_c, 0, 60, 127
2, 26132, Note_off_c, 10, 57, 127
2, 26135, Note_off_c, 0, 60, 127
2, 26137, Note_on_c, 4, 64, 127
2, 26333, Note_off_c, 4, 64, 127
2, 26335, Note_on_c, 10, 69, 127
2, 26531, Note_off_c, 10, 69, 127
2, 26532, Note_on_c, 0, 72, 127
2, 26728, Note_off_c, 0, 72, 127
2, 26730, Note_on_c, 4, 76, 127
2, 26926, Note_off_c, 4, 76, 127
2, 26928, Note_on_c, 10, 69, 127
2, 27124, Note_off_c, 10, 69, 127
2, 27126, Note_on_c, 0, 72, 127
2, 27322, Note_off_c, 0, 72, 127
2, 27323, Note_on_c, 4, 76, 127
2, 27519, Note_off_c, 4, 76, 127
2, 27521, Note_on_c, 10, 81, 127
2, 27717, Note_off_c, 10, 81, 127
2, 27719, Note_on_c, 4, 76, 127
2, 27915, Note_off_c, 4, 76, 127
2, 27917, Note_on_c, 0, 72, 127
2, 28113, Note_off_c, 0, 72, 127
2, 28114, Note_on_c, 4, 76, 127
2, 28310, Note_off_c, 4, 76, 127
2, 28312, Note_on_c, 0, 72, 127
2, 28508, Note_off_c, 0, 72, 127
2, 28510, Note_on_c, 10, 69, 127
2, 28706, Note_off_c, 10, 69, 127
2, 28708, Note_on_c, 0, 72, 127
2, 28805, Note_off_c, 0, 72, 127
2, 28807, Note_on_c, 12, 71, 127
2, 28904, Note_off_c, 12, 71, 127
2, 28905, Note_on_c, 10, 69, 127
2, 29002, Note_off_c, 10, 69, 127
2, 29004, Note_on_c, 8, 68, 127
2, 29101, Note_off_c, 8, 68, 127
2, 29103, Note_on_c, 10, 69, 127
2, 29299, Note_off_c, 10, 69, 127
2, 29301, Note_on_c, 0, 72, 127
2, 29497, Note_off_c, 0, 72, 127
2, 29499, Note_on_c, 10, 69, 127
2, 29695, Note_off_c, 10, 69, 127
2, 29696, Note_on_c, 4, 64, 127
2, 29892, Note_off_c, 4, 64, 127
2, 29894, Note_on_c, 10, 69, 127
2, 30090, Note_off_c, 10, 69, 127
2, 30092, Note_on_c, 4, 64, 127
2, 30288, Note_off_c, 4, 64, 127
2, 30290, Note_on_c, 0, 60, 127
2, 30486, Note_off_c, 0, 60, 127
2, 30488, Note_on_c, 4, 64, 127
2, 30684, Note_off_c, 4, 64, 127
2, 30685, Note_on_c, 0, 60, 127
2, 30881, Note_off_c, 0, 60, 127
2, 30883, Note_on_c, 10, 57, 127
2, 31079, Note_off_c, 10, 57, 127
2, 31081, Note_on_c, 0, 60, 127
2, 31178, Note_off_c, 0, 60, 127
2, 31180, Note_on_c, 12, 59, 127
2, 31277, Note_off_c, 12, 59, 127
2, 31279, Note_on_c, 10, 57, 127
2, 31376, Note_off_c, 10, 57, 127
2, 31377, Note_on_c, 8, 56, 127
2, 31474, Note_off_c, 8, 56, 127
2, 31476, Note_on_c, 10, 57, 127
2, 31679, Note_on_c, 4, 52, 127
2, 31702, Note_off_c, 10, 57, 127
2, 31880, Note_off_c, 4, 52, 127
2, 31882, Note_on_c, 0, 48, 127
2, 32083, Note_off_c, 0, 48, 127
2, 32103, Note_on_c, 10, 45, 127
2, 32300, Note_on_c, 0, 48, 127
2, 32498, Note_on_c, 4, 52, 127
2, 32696, Note_on_c, 10, 57, 127
2, 32894, Note_on_c, 0, 60, 127
2, 33091, Note_on_c, 4, 64, 127
2, 33285, Note_off_c, 0, 60, 127
2, 33287, Note_off_c, 4, 64, 127
2, 33288, Note_off_c, 10, 57, 127
2, 33288, Note_off_c, 4, 52, 127
2, 33288, Note_off_c, 0, 48, 127
2, 33289, Note_on_c, 8, 56, 127
2, 33289, Note_on_c, 2, 50, 127
2, 33289, Note_on_c, 12, 47, 127
2, 33487, Note_on_c, 2, 62, 127
2, 33685, Note_on_c, 5, 65, 127
2, 33878, Note_off_c, 2, 62, 127
2, 33881, Note_off_c, 5, 65, 127
2, 33881, Note_off_c, 12, 47, 127
2, 33881, Note_off_c, 2, 50, 127
2, 33881, Note_off_c, 8, 56, 127
2, 33882, Note_on_c, 4, 64, 127
2, 33882, Note_on_c, 10, 57, 127
2, 33882, Note_on_c, 0, 48, 127
2, 34080, Note_on_c, 4, 52, 127
2, 34276, Note_off_c, 10, 57, 127
2, 34276, Note_off_c, 4, 64, 127
2, 34278, Note_on_c, 10, 57, 127
2, 34474, Note_off_c, 10, 57, 127
2, 34476, Note_on_c, 0, 60, 127
2, 34673, Note_on_c, 4, 64, 127
2, 34871, Note_on_c, 10, 69, 127
2, 35064, Note_off_c, 4, 64, 127
2, 35066, Note_off_c, 0, 48, 127
2, 35067, Note_off_c, 4, 52, 127
2, 35068, Note_off_c, 0, 60, 127
2, 35069, Note_on_c, 12, 59, 127
2, 35069, Note_on_c, 2, 50, 127
2, 35069, Note_on_c, 5, 53, 127
2, 35262, Note_off_c, 10, 69, 127
2, 35267, Note_on_c, 12, 71, 127
2, 35463, Note_off_c, 12, 71, 127
2, 35464, Note_on_c, 8, 68, 127
2, 35660, Note_off_c, 8, 68, 127
2, 35661, Note_off_c, 5, 53, 127
2, 35661, Note_off_c, 2, 50, 127
2, 35661, Note_off_c, 12, 59, 127
2, 35662, Note_on_c, 10, 69, 127
2, 35662, Note_on_c, 0, 60, 127
2, 35662, Note_on_c, 4, 52, 127
2, 35858, Note_off_c, 10, 69, 127
2, 35860, Note_on_c, 4, 64, 127
2, 36056, Note_off_c, 4, 64, 127
2, 36058, Note_on_c, 7, 67, 127
2, 36254, Note_off_c, 0, 60, 127
2, 36256, Note_on_c, 1, 61, 127
2, 36453, Note_on_c, 4, 64, 127
2, 36651, Note_on_c, 10, 57, 127
2, 36847, Note_off_c, 10, 57, 127
2, 36847, Note_off_c, 4, 52, 127
2, 36849, Note_on_c, 7, 55, 127
2, 37045, Note_off_c, 7, 55, 127
2, 37047, Note_on_c, 5, 53, 127
2, 37243, Note_off_c, 5, 53, 127
2, 37244, Note_on_c, 4, 52, 127
2, 37440, Note_off_c, 4, 52, 127
2, 37442, Note_on_c, 5, 53, 127
2, 37640, Note_on_c, 10, 57, 127
2, 37831, Note_off_c, 1, 61, 127
2, 37833, Note_off_c, 4, 64, 127
2, 37836, Note_off_c, 7, 67, 127
2, 37838, Note_on_c, 1, 61, 127
2, 38031, Note_off_c, 10, 57, 127
2, 38034, Note_off_c, 1, 61, 127
2, 38035, Note_on_c, 4, 64, 127
2, 38233, Note_on_c, 7, 67, 127
2, 38431, Note_on_c, 1, 61, 127
2, 38624, Note_off_c, 7, 67, 127
2, 38627, Note_off_c, 1, 61, 127
2, 38627, Note_off_c, 4, 64, 127
2, 38629, Note_on_c, 2, 62, 127
2, 38826, Note_on_c, 5, 65, 127
2, 39024, Note_on_c, 10, 57, 127
2, 39217, Note_off_c, 5, 65, 127
2, 39220, Note_off_c, 10, 57, 127
2, 39220, Note_off_c, 5, 53, 127
2, 39221, Note_off_c, 2, 62, 127
2, 39222, Note_on_c, 11, 58, 127
2, 39222, Note_on_c, 2, 50, 127
2, 39420, Note_on_c, 2, 62, 127
2, 39613, Note_off_c, 11, 58, 127
2, 39617, Note_on_c, 10, 57, 127
2, 39811, Note_off_c, 2, 62, 127
2, 39813, Note_off_c, 10, 57, 127
2, 39815, Note_on_c, 8, 56, 127
2, 39815, Note_on_c, 12, 47, 127
2, 40013, Note_on_c, 12, 59, 127
2, 40209, Note_off_c, 12, 59, 127
2, 40211, Note_on_c, 2, 62, 127
2, 40407, Note_off_c, 2, 62, 127
2, 40408, Note_on_c, 5, 65, 127
2, 40604, Note_off_c, 5, 65, 127
2, 40606, Note_on_c, 4, 64, 127
2, 40802, Note_off_c, 4, 64, 127
2, 40804, Note_on_c, 2, 62, 127
2, 40993, Note_off_c, 10, 45, 127
2, 40999, Note_off_c, 8, 56, 127
2, 41000, Note_off_c, 2, 62, 127
2, 41000, Note_off_c, 12, 47, 127
2, 41000, Note_off_c, 2, 50, 127
2, 41002, Note_on_c, 10, 57, 127
2, 41002, Note_on_c, 0, 60, 127
2, 41002, Note_on_c, 10, 45, 127
2, 41002, Note_on_c, 4, 52, 127
2, 41198, Note_off_c, 0, 60, 127
2, 41200, Note_on_c, 12, 59, 127
2, 41393, Note_off_c, 10, 57, 127
2, 41396, Note_off_c, 12, 59, 127
2, 41397, Note_on_c, 10, 57, 127
2, 41593, Note_off_c, 10, 57, 127
2, 41594, Note_off_c, 4, 52, 127
2, 41595, Note_on_c, 0, 72, 127
2, 41692, Note_off_c, 0, 72, 127
2, 41694, Note_on_c, 12, 71, 127
2, 41791, Note_off_c, 12, 71, 127
2, 41792, Note_off_c, 10, 45, 127
2, 41793, Note_on_c, 0, 72, 127
2, 41793, Note_on_c, 10, 45, 127
2, 41890, Note_off_c, 10, 45, 127
2, 41892, Note_on_c, 11, 46, 127
2, 41989, Note_off_c, 11, 46, 127
2, 41991, Note_on_c, 0, 48, 127
2, 42088, Note_off_c, 0, 48, 127
2, 42089, Note_on_c, 2, 50, 127
2, 42186, Note_off_c, 2, 50, 127
2, 42187, Note_off_c, 0, 72, 127
2, 42188, Note_on_c, 0, 72, 127
2, 42188, Note_on_c, 3, 51, 127
2, 42384, Note_off_c, 3, 51, 127
2, 42386, Note_on_c, 0, 48, 127
2, 42582, Note_off_c, 0, 48, 127
2, 42584, Note_on_c, 10, 45, 127
2, 42780, Note_off_c, 10, 45, 127
2, 42780, Note_off_c, 0, 72, 127
2, 42782, Note_on_c, 2, 74, 127
2, 42782, Note_on_c, 6, 42, 127
2, 42846, Note_off_c, 2, 74, 127
2, 42848, Note_on_c, 0, 72, 127
2, 42912, Note_off_c, 0, 72, 127
2, 42913, Note_on_c, 2, 74, 127
2, 42977, Note_off_c, 2, 74, 127
2, 42978, Note_off_c, 6, 42, 127
2, 42979, Note_on_c, 0, 72, 127
2, 42979, Note_on_c, 10, 45, 127
2, 43043, Note_off_c, 0, 72, 127
2, 43045, Note_on_c, 2, 74, 127
2, 43109, Note_off_c, 2, 74, 127
2, 43111, Note_on_c, 0, 72, 127
2, 43175, Note_off_c, 0, 72, 127
2, 43175, Note_off_c, 10, 45, 127
2, 43177, Note_on_c, 2, 74, 127
2, 43177, Note_on_c, 2, 50, 127
2, 43241, Note_off_c, 2, 74, 127
2, 43243, Note_on_c, 0, 72, 127
2, 43307, Note_off_c, 0, 72, 127
2, 43309, Note_on_c, 2, 74, 127
2, 43373, Note_off_c, 2, 74, 127
2, 43373, Note_off_c, 2, 50, 127
2, 43375, Note_on_c, 0, 72, 127
2, 43375, Note_on_c, 6, 54, 127
2, 43439, Note_off_c, 0, 72, 127
2, 43441, Note_on_c, 2, 74, 127
2, 43505, Note_off_c, 2, 74, 127
2, 43507, Note_on_c, 0, 72, 127
2, 43571, Note_off_c, 0, 72, 127
2, 43571, Note_off_c, 6, 54, 127
2, 43573, Note_on_c, 2, 74, 127
2, 43573, Note_on_c, 10, 57, 127
2, 43637, Note_off_c, 2, 74, 127
2, 43639, Note_on_c, 0, 72, 127
2, 43703, Note_off_c, 0, 72, 127
2, 43704, Note_on_c, 2, 74, 127
2, 43768, Note_off_c, 2, 74, 127
2, 43769, Note_off_c, 10, 57, 127
2, 43770, Note_on_c, 0, 72, 127
2, 43770, Note_on_c, 0, 60, 127
2, 43834, Note_off_c, 0, 72, 127
2, 43836, Note_on_c, 2, 74, 127
2, 43900, Note_off_c, 2, 74, 127
2, 43902, Note_on_c, 0, 72, 127
2, 43966, Note_off_c, 0, 72, 127
2, 43966, Note_off_c, 0, 60, 127
2, 43968, Note_on_c, 2, 74, 127
2, 43968, Note_on_c, 3, 63, 127
2, 44032, Note_off_c, 2, 74, 127
2, 44034, Note_on_c, 0, 72, 127
2, 44098, Note_off_c, 0, 72, 127
2, 44100, Note_on_c, 2, 74, 127
2, 44164, Note_off_c, 2, 74, 127
2, 44164, Note_off_c, 3, 63, 127
2, 44166, Note_on_c, 0, 72, 127
2, 44166, Note_on_c, 2, 62, 127
2, 44230, Note_off_c, 0, 72, 127
2, 44232, Note_on_c, 2, 74, 127
2, 44296, Note_off_c, 2, 74, 127
2, 44298, Note_on_c, 0, 72, 127
2, 44362, Note_off_c, 2, 62, 127
2, 44364, Note_on_c, 0, 60, 127
2, 44560, Note_off_c, 0, 60, 127
2, 44561, Note_on_c, 11, 58, 127
2, 44759, Note_on_c, 2, 62, 127
2, 44957, Note_on_c, 6, 66, 127
2, 45150, Note_off_c, 2, 62, 127
2, 45155, Note_on_c, 10, 69, 127
2, 45346, Note_off_c, 0, 72, 127
2, 45348, Note_off_c, 6, 66, 127
2, 45351, Note_off_c, 11, 58, 127
2, 45352, Note_on_c, 0, 72, 127
2, 45352, Note_on_c, 10, 57, 127
2, 45548, Note_off_c, 10, 57, 127
2, 45548, Note_off_c, 0, 72, 127
2, 45550, Note_on_c, 3, 75, 127
2, 45550, Note_on_c, 7, 55, 127
2, 45746, Note_off_c, 7, 55, 127
2, 45746, Note_off_c, 3, 75, 127
2, 45747, Note_off_c, 10, 69, 127
2, 45748, Note_on_c, 6, 78, 127
2, 45748, Note_on_c, 10, 57, 127
2, 45944, Note_off_c, 10, 57, 127
2, 45944, Note_off_c, 6, 78, 127
2, 45946, Note_on_c, 10, 81, 127
2, 45946, Note_on_c, 7, 55, 127
2, 46142, Note_off_c, 7, 55, 127
2, 46142, Note_off_c, 10, 81, 127
2, 46144, Note_on_c, 0, 72, 127
2, 46144, Note_on_c, 6, 54, 127
2, 46340, Note_off_c, 6, 54, 127
2, 46340, Note_off_c, 0, 72, 127
2, 46341, Note_on_c, 11, 70, 127
2, 46341, Note_on_c, 7, 55, 127
2, 46537, Note_off_c, 11, 70, 127
2, 46539, Note_on_c, 10, 69, 127
2, 46735, Note_off_c, 10, 69, 127
2, 46737, Note_on_c, 7, 67, 127
2, 46933, Note_off_c, 7, 67, 127
2, 46935, Note_on_c, 11, 82, 127
2, 47032, Note_off_c, 11, 82, 127
2, 47032, Note_off_c, 7, 55, 127
2, 47033, Note_on_c, 10, 81, 127
2, 47033, Note_on_c, 7, 55, 127
2, 47130, Note_off_c, 7, 55, 127
2, 47130, Note_off_c, 10, 81, 127
2, 47132, Note_on_c, 11, 82, 127
2, 47132, Note_on_c, 10, 57, 127
2, 47229, Note_off_c, 10, 57, 127
2, 47231, Note_on_c, 11, 58, 127
2, 47328, Note_off_c, 11, 58, 127
2, 47330, Note_on_c, 0, 60, 127
2, 47427, Note_off_c, 0, 60, 127
2, 47429, Note_on_c, 2, 62, 127
2, 47526, Note_off_c, 2, 62, 127
2, 47526, Note_off_c, 11, 82, 127
2, 47528, Note_on_c, 11, 82, 127
2, 47528, Note_on_c, 4, 64, 127
2, 47625, Note_off_c, 4, 64, 127
2, 47627, Note_on_c, 5, 65, 127
2, 47724, Note_off_c, 5, 65, 127
2, 47726, Note_on_c, 7, 67, 127
2, 47823, Note_off_c, 7, 67, 127
2, 47824, Note_on_c, 4, 64, 127
2, 47921, Note_off_c, 4, 64, 127
2, 47923, Note_on_c, 5, 65, 127
2, 48020, Note_off_c, 5, 65, 127
2, 48022, Note_on_c, 7, 67, 127
2, 48119, Note_off_c, 7, 67, 127
2, 48120, Note_off_c, 11, 82, 127
2, 48121, Note_on_c, 0, 84, 127
2, 48121, Note_on_c, 1, 61, 127
2, 48182, Note_on_c, 11, 82, 127
2, 48185, Note_off_c, 0, 84, 127
2, 48218, Note_off_c, 1, 61, 127
2, 48220, Note_on_c, 2, 62, 127
2, 48243, Note_on_c, 0, 84, 127
2, 48246, Note_off_c, 11, 82, 127
2, 48303, Note_on_c, 11, 82, 127
2, 48307, Note_off_c, 0, 84, 127
2, 48317, Note_off_c, 2, 62, 127
2, 48319, Note_on_c, 4, 64, 127
2, 48364, Note_on_c, 0, 84, 127
2, 48367, Note_off_c, 11, 82, 127
2, 48416, Note_off_c, 4, 64, 127
2, 48418, Note_on_c, 1, 61, 127
2, 48425, Note_on_c, 11, 82, 127
2, 48428, Note_off_c, 0, 84, 127
2, 48486, Note_on_c, 0, 84, 127
2, 48489, Note_off_c, 11, 82, 127
2, 48515, Note_off_c, 1, 61, 127
2, 48517, Note_on_c, 2, 62, 127
2, 48546, Note_on_c, 11, 82, 127
2, 48550, Note_off_c, 0, 84, 127
2, 48607, Note_on_c, 0, 84, 127
2, 48610, Note_off_c, 11, 82, 127
2, 48614, Note_off_c, 2, 62, 127
2, 48616, Note_on_c, 4, 64, 127
2, 48668, Note_on_c, 11, 82, 127
2, 48671, Note_off_c, 0, 84, 127
2, 48713, Note_off_c, 4, 64, 127
2, 48714, Note_on_c, 7, 55, 127
2, 48729, Note_on_c, 0, 84, 127
2, 48732, Note_off_c, 11, 82, 127
2, 48790, Note_on_c, 11, 82, 127
2, 48793, Note_off_c, 0, 84, 127
2, 48811, Note_off_c, 7, 55, 127
2, 48813, Note_on_c, 10, 57, 127
2, 48850, Note_on_c, 0, 84, 127
2, 48854, Note_off_c, 11, 82, 127
2, 48910, Note_off_c, 10, 57, 127
2, 48911, Note_on_c, 11, 82, 127
2, 48912, Note_on_c, 11, 58, 127
2, 48914, Note_off_c, 0, 84, 127
2, 48972, Note_on_c, 0, 84, 127
2, 48975, Note_off_c, 11, 82, 127
2, 49009, Note_off_c, 11, 58, 127
2, 49011, Note_on_c, 7, 55, 127
2, 49033, Note_on_c, 11, 82, 127
2, 49036, Note_off_c, 0, 84, 127
2, 49093, Note_on_c, 0, 84, 127
2, 49097, Note_off_c, 11, 82, 127
2, 49108, Note_off_c, 7, 55, 127
2, 49110, Note_on_c, 10, 57, 127
2, 49154, Note_on_c, 11, 82, 127
2, 49157, Note_off_c, 0, 84, 127
2, 49207, Note_off_c, 10, 57, 127
2, 49209, Note_on_c, 11, 58, 127
2, 49215, Note_on_c, 0, 84, 127
2, 49218, Note_off_c, 11, 82, 127
2, 49276, Note_on_c, 11, 82, 127
2, 49279, Note_off_c, 0, 84, 127
2, 49306, Note_off_c, 11, 58, 127
2, 49308, Note_on_c, 4, 52, 127
2, 49332, Note_on_c, 0, 84, 127
2, 49340, Note_off_c, 11, 82, 127
2, 49393, Note_on_c, 11, 82, 127
2, 49396, Note_off_c, 0, 84, 127
2, 49405, Note_off_c, 4, 52, 127
2, 49407, Note_on_c, 5, 53, 127
2, 49454, Note_on_c, 0, 84, 127
2, 49457, Note_off_c, 11, 82, 127
2, 49504, Note_off_c, 5, 53, 127
2, 49505, Note_on_c, 7, 55, 127
2, 49515, Note_on_c, 11, 82, 127
2, 49518, Note_off_c, 0, 84, 127
2, 49575, Note_on_c, 0, 84, 127
2, 49579, Note_off_c, 11, 82, 127
2, 49602, Note_off_c, 7, 55, 127
2, 49604, Note_on_c, 4, 52, 127
2, 49636, Note_on_c, 11, 82, 127
2, 49639, Note_off_c, 0, 84, 127
2, 49697, Note_on_c, 0, 84, 127
2, 49700, Note_off_c, 11, 82, 127
2, 49701, Note_off_c, 4, 52, 127
2, 49703, Note_on_c, 5, 53, 127
2, 49758, Note_on_c, 11, 82, 127
2, 49761, Note_off_c, 0, 84, 127
2, 49800, Note_off_c, 5, 53, 127
2, 49802, Note_on_c, 7, 55, 127
2, 49899, Note_off_c, 7, 55, 127
2, 49901, Note_on_c, 10, 45, 127
2, 50097, Note_off_c, 10, 45, 127
2, 50099, Note_on_c, 10, 81, 127
2, 50099, Note_on_c, 12, 47, 127
2, 50106, Note_off_c, 11, 82, 127
2, 50295, Note_off_c, 12, 47, 127
2, 50295, Note_off_c, 10, 81, 127
2, 50296, Note_on_c, 7, 79, 127
2, 50296, Note_on_c, 1, 49, 127
2, 50492, Note_off_c, 1, 49, 127
2, 50492, Note_off_c, 7, 79, 127
2, 50494, Note_on_c, 5, 77, 127
2, 50494, Note_on_c, 2, 50, 127
2, 50690, Note_off_c, 2, 50, 127
2, 50690, Note_off_c, 5, 77, 127
2, 50692, Note_on_c, 4, 76, 127
2, 50692, Note_on_c, 4, 52, 127
2, 50888, Note_off_c, 4, 52, 127
2, 50888, Note_off_c, 4, 76, 127
2, 50890, Note_on_c, 2, 74, 127
2, 50890, Note_on_c, 5, 53, 127
2, 51086, Note_off_c, 5, 53, 127
2, 51086, Note_off_c, 2, 74, 127
2, 51088, Note_on_c, 1, 73, 127
2, 51088, Note_on_c, 7, 55, 127
2, 51284, Note_off_c, 7, 55, 127
2, 51284, Note_off_c, 1, 73, 127
2, 51285, Note_on_c, 10, 81, 127
2, 51285, Note_on_c, 10, 57, 127
2, 51481, Note_off_c, 10, 57, 127
2, 51481, Note_off_c, 10, 81, 127
2, 51483, Note_on_c, 7, 79, 127
2, 51483, Note_on_c, 10, 45, 127
2, 51679, Note_off_c, 10, 45, 127
2, 51679, Note_off_c, 7, 79, 127
2, 51681, Note_on_c, 5, 77, 127
2, 51681, Note_on_c, 2, 50, 127
2, 51877, Note_off_c, 5, 77, 127
2, 51879, Note_on_c, 4, 76, 127
2, 52075, Note_off_c, 4, 76, 127
2, 52076, Note_on_c, 2, 74, 127
2, 52272, Note_off_c, 2, 74, 127
2, 52274, Note_on_c, 0, 72, 127
2, 52402, Note_off_c, 2, 50, 127
2, 52470, Note_off_c, 0, 72, 127
2, 52472, Note_on_c, 11, 70, 127
2, 52472, Note_on_c, 2, 62, 127
2, 52668, Note_off_c, 2, 62, 127
2, 52668, Note_off_c, 11, 70, 127
2, 52670, Note_on_c, 10, 69, 127
2, 52670, Note_on_c, 0, 60, 127
2, 52866, Note_off_c, 0, 60, 127
2, 52866, Note_off_c, 10, 69, 127
2, 52867, Note_on_c, 7, 67, 127
2, 52867, Note_on_c, 11, 58, 127
2, 53063, Note_off_c, 11, 58, 127
2, 53063, Note_off_c, 7, 67, 127
2, 53065, Note_on_c, 7, 79, 127
2, 53065, Note_on_c, 10, 57, 127
2, 53261, Note_off_c, 10, 57, 127
2, 53261, Note_off_c, 7, 79, 127
2, 53263, Note_on_c, 5, 77, 127
2, 53263, Note_on_c, 11, 58, 127
2, 53459, Note_off_c, 11, 58, 127
2, 53459, Note_off_c, 5, 77, 127
2, 53461, Note_on_c, 4, 76, 127
2, 53461, Note_on_c, 0, 48, 127
2, 53657, Note_off_c, 4, 76, 127
2, 53658, Note_on_c, 2, 74, 127
2, 53854, Note_off_c, 2, 74, 127
2, 53856, Note_on_c, 0, 72, 127
2, 54052, Note_off_c, 0, 72, 127
2, 54054, Note_on_c, 11, 70, 127
2, 54182, Note_off_c, 0, 48, 127
2, 54250, Note_off_c, 11, 70, 127
2, 54252, Note_on_c, 10, 69, 127
2, 54252, Note_on_c, 0, 60, 127
2, 54448, Note_off_c, 0, 60, 127
2, 54448, Note_off_c, 10, 69, 127
2, 54449, Note_on_c, 7, 67, 127
2, 54449, Note_on_c, 11, 58, 127
2, 54645, Note_off_c, 11, 58, 127
2, 54645, Note_off_c, 7, 67, 127
2, 54647, Note_on_c, 5, 65, 127
2, 54647, Note_on_c, 10, 57, 127
2, 54843, Note_off_c, 10, 57, 127
2, 54843, Note_off_c, 5, 65, 127
2, 54845, Note_on_c, 5, 77, 127
2, 54845, Note_on_c, 7, 55, 127
2, 55041, Note_off_c, 7, 55, 127
2, 55041, Note_off_c, 5, 77, 127
2, 55043, Note_on_c, 4, 76, 127
2, 55043, Note_on_c, 10, 57, 127
2, 55239, Note_off_c, 10, 57, 127
2, 55239, Note_off_c, 4, 76, 127
2, 55240, Note_on_c, 2, 74, 127
2, 55240, Note_on_c, 11, 46, 127
2, 55436, Note_off_c, 2, 74, 127
2, 55438, Note_on_c, 11, 82, 127
2, 55634, Note_off_c, 11, 82, 127
2, 55636, Note_on_c, 10, 81, 127
2, 55832, Note_off_c, 10, 81, 127
2, 55832, Note_off_c, 11, 46, 127
2, 55834, Note_on_c, 8, 80, 127
2, 56030, Note_off_c, 8, 80, 127
2, 56032, Note_on_c, 10, 81, 127
2, 56228, Note_off_c, 10, 81, 127
2, 56229, Note_on_c, 4, 76, 127
2, 56425, Note_off_c, 4, 76, 127
2, 56427, Note_on_c, 5, 77, 127
2, 56623, Note_off_c, 5, 77, 127
2, 56625, Note_on_c, 1, 73, 127
2, 56821, Note_off_c, 1, 73, 127
2, 56823, Note_on_c, 2, 74, 127
2, 57020, Note_on_c, 8, 68, 127
2, 57020, Note_on_c, 12, 47, 127
2, 57111, Note_off_c, 2, 74, 127
2, 57216, Note_off_c, 8, 68, 127
2, 57218, Note_on_c, 12, 71, 127
2, 57414, Note_off_c, 12, 71, 127
2, 57416, Note_on_c, 2, 74, 127
2, 57612, Note_off_c, 2, 74, 127
2, 57612, Note_off_c, 12, 47, 127
2, 57614, Note_on_c, 5, 77, 127
2, 57810, Note_off_c, 5, 77, 127
2, 57811, Note_on_c, 4, 76, 127
2, 58007, Note_off_c, 4, 76, 127
2, 58009, Note_on_c, 2, 74, 127
2, 58205, Note_off_c, 2, 74, 127
2, 58207, Note_on_c, 1, 73, 127
2, 58405, Note_on_c, 2, 74, 127
2, 58433, Note_off_c, 1, 73, 127
2, 58601, Note_off_c, 2, 74, 127
2, 58602, Note_on_c, 12, 71, 127
2, 58798, Note_off_c, 12, 71, 127
2, 58800, Note_on_c, 1, 73, 127
2, 58800, Note_on_c, 10, 45, 127
2, 58998, Note_on_c, 11, 70, 127
2, 59191, Note_off_c, 10, 45, 127
2, 59194, Note_off_c, 11, 70, 127
2, 59196, Note_on_c, 10, 69, 127
2, 59392, Note_off_c, 10, 69, 127
2, 59393, Note_on_c, 8, 68, 127
2, 59589, Note_off_c, 8, 68, 127
2, 59591, Note_on_c, 10, 69, 127
2, 59787, Note_off_c, 10, 69, 127
2, 59789, Note_on_c, 4, 64, 127
2, 59984, Note_off_c, 1, 73, 127
2, 59985, Note_off_c, 4, 64, 127
2, 59987, Note_on_c, 5, 65, 127
2, 59987, Note_on_c, 2, 74, 127
2, 60183, Note_off_c, 5, 65, 127
2, 60184, Note_on_c, 1, 61, 127
2, 60380, Note_off_c, 1, 61, 127
2, 60382, Note_on_c, 2, 62, 127
2, 60578, Note_off_c, 2, 62, 127
2, 60580, Note_on_c, 8, 56, 127
2, 60677, Note_off_c, 2, 74, 127
2, 60679, Note_on_c, 5, 77, 127
2, 60776, Note_off_c, 5, 77, 127
2, 60776, Note_off_c, 8, 56, 127
2, 60778, Note_on_c, 4, 76, 127
2, 60778, Note_on_c, 12, 59, 127
2, 60875, Note_off_c, 4, 76, 127
2, 60877, Note_on_c, 2, 74, 127
2, 60974, Note_off_c, 2, 74, 127
2, 60974, Note_off_c, 12, 59, 127
2, 60976, Note_on_c, 0, 72, 127
2, 60976, Note_on_c, 2, 62, 127
2, 61073, Note_off_c, 0, 72, 127
2, 61074, Note_on_c, 12, 71, 127
2, 61171, Note_off_c, 12, 71, 127
2, 61172, Note_off_c, 2, 62, 127
2, 61173, Note_on_c, 10, 81, 127
2, 61173, Note_on_c, 5, 65, 127
2, 61237, Note_off_c, 10, 81, 127
2, 61239, Note_on_c, 8, 80, 127
2, 61303, Note_off_c, 8, 80, 127
2, 61305, Note_on_c, 6, 78, 127
2, 61369, Note_off_c, 6, 78, 127
2, 61369, Note_off_c, 5, 65, 127
2, 61371, Note_on_c, 8, 80, 127
2, 61371, Note_on_c, 4, 64, 127
2, 61435, Note_off_c, 8, 80, 127
2, 61437, Note_on_c, 10, 81, 127
2, 61501, Note_off_c, 10, 81, 127
2, 61503, Note_on_c, 8, 80, 127
2, 61567, Note_off_c, 8, 80, 127
2, 61567, Note_off_c, 4, 64, 127
2, 61569, Note_on_c, 10, 81, 127
2, 61569, Note_on_c, 2, 62, 127
2, 61633, Note_off_c, 10, 81, 127
2, 61635, Note_on_c, 8, 80, 127
2, 61699, Note_off_c, 8, 80, 127
2, 61701, Note_on_c, 10, 81, 127
2, 61765, Note_off_c, 10, 81, 127
2, 61765, Note_off_c, 2, 62, 127
2, 61767, Note_on_c, 8, 80, 127
2, 61767, Note_on_c, 1, 61, 127
2, 61831, Note_off_c, 8, 80, 127
2, 61832, Note_on_c, 10, 81, 127
2, 61896, Note_off_c, 10, 81, 127
2, 61898, Note_on_c, 8, 80, 127
2, 61962, Note_off_c, 8, 80, 127
2, 61963, Note_off_c, 1, 61, 127
2, 61964, Note_on_c, 10, 81, 127
2, 61964, Note_on_c, 2, 62, 127
2, 62028, Note_off_c, 10, 81, 127
2, 62030, Note_on_c, 8, 80, 127
2, 62094, Note_off_c, 8, 80, 127
2, 62096, Note_on_c, 10, 81, 127
2, 62160, Note_off_c, 10, 81, 127
2, 62160, Note_off_c, 2, 62, 127
2, 62162, Note_on_c, 8, 80, 127
2, 62162, Note_on_c, 12, 59, 127
2, 62226, Note_off_c, 8, 80, 127
2, 62228, Note_on_c, 6, 78, 127
2, 62292, Note_off_c, 6, 78, 127
2, 62294, Note_on_c, 8, 80, 127
2, 62358, Note_off_c, 8, 80, 127
2, 62358, Note_off_c, 12, 59, 127
2, 62360, Note_on_c, 10, 81, 127
2, 62360, Note_on_c, 1, 61, 127
2, 62567, Note_off_c, 1, 61, 127
2, 62574, Note_on_c, 11, 58, 127
2, 62770, Note_off_c, 11, 58, 127
2, 62772, Note_on_c, 10, 57, 127
2, 62952, Note_off_c, 10, 81, 127
2, 62968, Note_off_c, 10, 57, 127
2, 62970, Note_on_c, 8, 56, 127
2, 63166, Note_off_c, 8, 56, 127
2, 63167, Note_on_c, 10, 57, 127
2, 63363, Note_off_c, 10, 57, 127
2, 63365, Note_on_c, 4, 52, 127
2, 63561, Note_off_c, 4, 52, 127
2, 63563, Note_on_c, 5, 53, 127
2, 63766, Note_off_c, 5, 53, 127
2, 63777, Note_on_c, 1, 49, 127
2, 63988, Note_off_c, 1, 49, 127
2, 64008, Note_on_c, 2, 50, 127
2, 64234, Note_off_c, 2, 50, 127
2, 64255, Note_on_c, 8, 44, 127
2, 64347, Note_on_c, 5, 65, 127
2, 64438, Note_on_c, 12, 71, 127
2, 64530, Note_on_c, 2, 74, 127
2, 64799, Note_off_c, 12, 71, 127
2, 64917, Note_on_c, 4, 76, 127
2, 64920, Note_off_c, 2, 74, 127
2, 64982, Note_off_c, 4, 76, 127
2, 64983, Note_on_c, 2, 74, 127
2, 65049, Note_on_c, 1, 73, 127
2, 65052, Note_off_c, 2, 74, 127
2, 65075, Note_off_c, 5, 65, 127
2, 65114, Note_off_c, 1, 73, 127
2, 65115, Note_on_c, 2, 74, 127
2, 65174, Note_off_c, 8, 44, 127
2, 65180, Note_off_c, 2, 74, 127
2, 65181, Note_on_c, 12, 71, 127
2, 65181, Note_on_c, 4, 76, 127
2, 65181, Note_on_c, 5, 53, 127
2, 65181, Note_on_c, 8, 44, 127
2, 65306, Note_off_c, 4, 76, 127
2, 65308, Note_on_c, 2, 74, 127
2, 65373, Note_off_c, 2, 74, 127
2, 65374, Note_on_c, 4, 76, 127
2, 65439, Note_off_c, 4, 76, 127
2, 65440, Note_on_c, 2, 74, 127
2, 65505, Note_off_c, 2, 74, 127
2, 65506, Note_on_c, 4, 76, 127
2, 65571, Note_off_c, 4, 76, 127
2, 65572, Note_on_c, 2, 74, 127
2, 65637, Note_off_c, 2, 74, 127
2, 65638, Note_on_c, 4, 76, 127
2, 65703, Note_off_c, 4, 76, 127
2, 65704, Note_on_c, 2, 74, 127
2, 65769, Note_off_c, 2, 74, 127
2, 65770, Note_on_c, 4, 76, 127
2, 65835, Note_off_c, 4, 76, 127
2, 65836, Note_on_c, 2, 74, 127
2, 66035, Note_off_c, 2, 74, 127
2, 66038, Note_on_c, 1, 73, 127
2, 66474, Note_on_c, 2, 74, 127
2, 66485, Note_off_c, 1, 73, 127
2, 66754, Note_off_c, 2, 74, 127
2, 66767, Note_on_c, 10, 69, 127
2, 66767, Note_on_c, 1, 73, 127
2, 66767, Note_on_c, 10, 45, 127
2, 66767, Note_on_c, 4, 52, 127
2, 66772, Note_off_c, 12, 71, 127
2, 66773, Note_off_c, 8, 44, 127
2, 66773, Note_off_c, 5, 53, 127
2, 66866, Note_off_c, 4, 52, 127
2, 66889, Note_on_c, 10, 57, 127
2, 66967, Note_off_c, 10, 45, 127
2, 66988, Note_off_c, 10, 57, 127
2, 66998, Note_on_c, 12, 59, 127
2, 67097, Note_off_c, 12, 59, 127
2, 67101, Note_on_c, 1, 61, 127
2, 67168, Note_off_c, 1, 73, 127
2, 67168, Note_off_c, 10, 69, 127
2, 67200, Note_off_c, 1, 61, 127
2, 67202, Note_on_c, 2, 62, 127
2, 67301, Note_off_c, 2, 62, 127
2, 67303, Note_on_c, 4, 64, 127
2, 67402, Note_off_c, 4, 64, 127
2, 67404, Note_on_c, 5, 65, 127
2, 67604, Note_off_c, 5, 65, 127
2, 67606, Note_on_c, 4, 64, 127
2, 67806, Note_off_c, 4, 64, 127
2, 67808, Note_on_c, 2, 62, 127
2, 68008, Note_off_c, 2, 62, 127
2, 68010, Note_on_c, 4, 64, 127
2, 68210, Note_off_c, 4, 64, 127
2, 68211, Note_on_c, 2, 62, 127
2, 68411, Note_off_c, 2, 62, 127
2, 68413, Note_on_c, 1, 61, 127
2, 68613, Note_off_c, 1, 61, 127
2, 68615, Note_on_c, 2, 62, 127
2, 68715, Note_on_c, 2, 50, 127
2, 68817, Note_off_c, 2, 50, 127
2, 68819, Note_on_c, 4, 52, 127
2, 68921, Note_off_c, 4, 52, 127
2, 68923, Note_on_c, 6, 54, 127
2, 69025, Note_off_c, 6, 54, 127
2, 69027, Note_on_c, 7, 55, 127
2, 69129, Note_off_c, 7, 55, 127
2, 69131, Note_on_c, 10, 57, 127
2, 69233, Note_off_c, 10, 57, 127
2, 69235, Note_on_c, 11, 58, 127
2, 69441, Note_off_c, 11, 58, 127
2, 69443, Note_on_c, 10, 57, 127
2, 69622, Note_off_c, 2, 62, 127
2, 69649, Note_off_c, 10, 57, 127
2, 69651, Note_on_c, 7, 55, 127
2, 69651, Note_on_c, 11, 70, 127
2, 69857, Note_off_c, 11, 70, 127
2, 69857, Note_off_c, 7, 55, 127
2, 69859, Note_on_c, 10, 57, 127
2, 69859, Note_on_c, 0, 60, 127
2, 70065, Note_off_c, 10, 57, 127
2, 70066, Note_on_c, 7, 55, 127
2, 70272, Note_off_c, 7, 55, 127
2, 70273, Note_off_c, 0, 60, 127
2, 70274, Note_on_c, 6, 54, 127
2, 70274, Note_on_c, 10, 69, 127
2, 70480, Note_off_c, 10, 69, 127
2, 70480, Note_off_c, 6, 54, 127
2, 70482, Note_on_c, 7, 55, 127
2, 70482, Note_on_c, 11, 58, 127
2, 70584, Note_off_c, 11, 58, 127
2, 70595, Note_on_c, 2, 62, 127
2, 70699, Note_off_c, 2, 62, 127
2, 70700, Note_on_c, 4, 64, 127
2, 70804, Note_off_c, 4, 64, 127
2, 70805, Note_on_c, 5, 65, 127
2, 70909, Note_off_c, 5, 65, 127
2, 70910, Note_on_c, 4, 64, 127
2, 71014, Note_off_c, 4, 64, 127
2, 71015, Note_on_c, 2, 62, 127
2, 71119, Note_off_c, 2, 62, 127
2, 71120, Note_on_c, 7, 67, 127
2, 71208, Note_off_c, 7, 55, 127
2, 71225, Note_on_c, 4, 52, 127
2, 71329, Note_off_c, 4, 52, 127
2, 71330, Note_on_c, 2, 50, 127
2, 71434, Note_off_c, 2, 50, 127
2, 71435, Note_on_c, 1, 49, 127
2, 71539, Note_off_c, 1, 49, 127
2, 71540, Note_on_c, 2, 50, 127
2, 71644, Note_off_c, 2, 50, 127
2, 71645, Note_on_c, 4, 52, 127
2, 71749, Note_off_c, 4, 52, 127
2, 71750, Note_on_c, 5, 53, 127
2, 71854, Note_off_c, 7, 67, 127
2, 71855, Note_on_c, 10, 57, 127
2, 71959, Note_off_c, 10, 57, 127
2, 71960, Note_on_c, 12, 59, 127
2, 72064, Note_off_c, 12, 59, 127
2, 72065, Note_on_c, 1, 61, 127
2, 72169, Note_off_c, 1, 61, 127
2, 72170, Note_on_c, 12, 59, 127
2, 72274, Note_off_c, 12, 59, 127
2, 72275, Note_on_c, 10, 57, 127
2, 72379, Note_off_c, 10, 57, 127
2, 72380, Note_on_c, 2, 62, 127
2, 72485, Note_on_c, 10, 69, 127
2, 72589, Note_off_c, 10, 69, 127
2, 72590, Note_on_c, 12, 71, 127
2, 72694, Note_off_c, 12, 71, 127
2, 72695, Note_on_c, 1, 73, 127
2, 72799, Note_off_c, 1, 73, 127
2, 72800, Note_on_c, 2, 74, 127
2, 72904, Note_off_c, 2, 74, 127
2, 72905, Note_on_c, 4, 76, 127
2, 73009, Note_off_c, 4, 76, 127
2, 73010, Note_on_c, 5, 77, 127
2, 73219, Note_off_c, 5, 77, 127
2, 73219, Note_off_c, 2, 62, 127
2, 73220, Note_on_c, 4, 64, 127
2, 73220, Note_on_c, 4, 76, 127
2, 73429, Note_off_c, 4, 76, 127
2, 73429, Note_off_c, 4, 64, 127
2, 73429, Note_off_c, 5, 53, 127
2, 73430, Note_on_c, 2, 74, 127
2, 73430, Note_on_c, 5, 65, 127
2, 73430, Note_on_c, 11, 58, 127
2, 73639, Note_off_c, 11, 58, 127
2, 73639, Note_off_c, 5, 65, 127
2, 73639, Note_off_c, 2, 74, 127
2, 73640, Note_on_c, 4, 76, 127
2, 73640, Note_on_c, 7, 67, 127
2, 73640, Note_on_c, 7, 55, 127
2, 73849, Note_off_c, 7, 67, 127
2, 73849, Note_off_c, 4, 76, 127
2, 73850, Note_on_c, 2, 74, 127
2, 73850, Note_on_c, 5, 65, 127
2, 74059, Note_off_c, 5, 65, 127
2, 74059, Note_off_c, 2, 74, 127
2, 74059, Note_off_c, 7, 55, 127
2, 74060, Note_on_c, 1, 73, 127
2, 74060, Note_on_c, 4, 64, 127
2, 74060, Note_on_c, 10, 57, 127
2, 74269, Note_off_c, 10, 57, 127
2, 74269, Note_off_c, 4, 64, 127
2, 74269, Note_off_c, 1, 73, 127
2, 74270, Note_on_c, 2, 74, 127
2, 74270, Note_on_c, 2, 62, 127
2, 74270, Note_on_c, 11, 58, 127
2, 74374, Note_off_c, 2, 74, 127
2, 74375, Note_on_c, 0, 72, 127
2, 74479, Note_off_c, 0, 72, 127
2, 74480, Note_on_c, 11, 70, 127
2, 74584, Note_off_c, 11, 70, 127
2, 74585, Note_on_c, 10, 69, 127
2, 74689, Note_off_c, 10, 69, 127
2, 74690, Note_on_c, 7, 67, 127
2, 74794, Note_off_c, 7, 67, 127
2, 74795, Note_on_c, 5, 65, 127
2, 74899, Note_off_c, 5, 65, 127
2, 74899, Note_off_c, 2, 62, 127
2, 74900, Note_on_c, 4, 64, 127
2, 74900, Note_on_c, 0, 60, 127
2, 75004, Note_off_c, 4, 64, 127
2, 75005, Note_on_c, 7, 67, 127
2, 75109, Note_off_c, 7, 67, 127
2, 75110, Note_on_c, 10, 69, 127
2, 75214, Note_off_c, 10, 69, 127
2, 75215, Note_on_c, 11, 70, 127
2, 75319, Note_off_c, 11, 70, 127
2, 75320, Note_on_c, 10, 69, 127
2, 75424, Note_off_c, 10, 69, 127
2, 75425, Note_on_c, 7, 67, 127
2, 75528, Note_off_c, 11, 58, 127
2, 75529, Note_off_c, 7, 67, 127
2, 75530, Note_on_c, 0, 72, 127
2, 75530, Note_on_c, 10, 57, 127
2, 75634, Note_off_c, 0, 72, 127
2, 75635, Note_on_c, 11, 70, 127
2, 75739, Note_off_c, 11, 70, 127
2, 75740, Note_on_c, 10, 69, 127
2, 75844, Note_off_c, 10, 69, 127
2, 75845, Note_on_c, 7, 67, 127
2, 75949, Note_off_c, 7, 67, 127
2, 75950, Note_on_c, 5, 65, 127
2, 76054, Note_off_c, 5, 65, 127
2, 76055, Note_on_c, 4, 64, 127
2, 76158, Note_off_c, 0, 60, 127
2, 76159, Note_off_c, 4, 64, 127
2, 76160, Note_on_c, 2, 62, 127
2, 76160, Note_on_c, 11, 58, 127
2, 76264, Note_off_c, 2, 62, 127
2, 76265, Note_on_c, 5, 65, 127
2, 76369, Note_off_c, 5, 65, 127
2, 76370, Note_on_c, 7, 67, 127
2, 76474, Note_off_c, 7, 67, 127
2, 76475, Note_on_c, 10, 69, 127
2, 76579, Note_off_c, 10, 69, 127
2, 76580, Note_on_c, 7, 67, 127
2, 76684, Note_off_c, 7, 67, 127
2, 76685, Note_on_c, 5, 65, 127
2, 76788, Note_off_c, 10, 57, 127
2, 76789, Note_off_c, 5, 65, 127
2, 76790, Note_on_c, 11, 70, 127
2, 76790, Note_on_c, 7, 55, 127
2, 76894, Note_off_c, 11, 70, 127
2, 76895, Note_on_c, 10, 69, 127
2, 76999, Note_off_c, 10, 69, 127
2, 77000, Note_on_c, 7, 67, 127
2, 77104, Note_off_c, 7, 67, 127
2, 77105, Note_on_c, 5, 65, 127
2, 77209, Note_off_c, 5, 65, 127
2, 77209, Note_off_c, 7, 55, 127
2, 77210, Note_on_c, 4, 64, 127
2, 77210, Note_on_c, 5, 53, 127
2, 77314, Note_off_c, 4, 64, 127
2, 77315, Note_on_c, 2, 62, 127
2, 77419, Note_off_c, 2, 62, 127
2, 77419, Note_off_c, 5, 53, 127
2, 77420, Note_on_c, 0, 60, 127
2, 77420, Note_on_c, 4, 52, 127
2, 77516, Note_off_c, 11, 58, 127
2, 77525, Note_on_c, 11, 58, 127
2, 77629, Note_off_c, 11, 58, 127
2, 77630, Note_on_c, 10, 57, 127
2, 77734, Note_off_c, 10, 57, 127
2, 77735, Note_on_c, 7, 55, 127
2, 77839, Note_off_c, 7, 55, 127
2, 77840, Note_on_c, 5, 53, 127
2, 77944, Note_off_c, 5, 53, 127
2, 77945, Note_on_c, 7, 55, 127
2, 78049, Note_off_c, 7, 55, 127
2, 78049, Note_off_c, 4, 52, 127
2, 78050, Note_on_c, 10, 57, 127
2, 78050, Note_on_c, 5, 53, 127
2, 78154, Note_off_c, 0, 60, 127
2, 78155, Note_on_c, 4, 64, 127
2, 78259, Note_off_c, 4, 64, 127
2, 78260, Note_on_c, 5, 65, 127
2, 78364, Note_off_c, 5, 65, 127
2, 78365, Note_on_c, 10, 69, 127
2, 78469, Note_off_c, 10, 69, 127
2, 78470, Note_on_c, 4, 64, 127
2, 78574, Note_off_c, 4, 64, 127
2, 78575, Note_on_c, 5, 65, 127
2, 78679, Note_off_c, 5, 65, 127
2, 78679, Note_off_c, 5, 53, 127
2, 78680, Note_on_c, 0, 60, 127
2, 78680, Note_on_c, 4, 52, 127
2, 78784, Note_off_c, 0, 60, 127
2, 78785, Note_on_c, 4, 64, 127
2, 78889, Note_off_c, 4, 64, 127
2, 78890, Note_on_c, 5, 65, 127
2, 78994, Note_off_c, 5, 65, 127
2, 78995, Note_on_c, 10, 69, 127
2, 79099, Note_off_c, 10, 69, 127
2, 79100, Note_on_c, 4, 64, 127
2, 79204, Note_off_c, 4, 64, 127
2, 79205, Note_on_c, 5, 65, 127
2, 79309, Note_off_c, 5, 65, 127
2, 79309, Note_off_c, 4, 52, 127
2, 79310, Note_on_c, 0, 60, 127
2, 79310, Note_on_c, 2, 50, 127
2, 79414, Note_off_c, 0, 60, 127
2, 79415, Note_on_c, 4, 64, 127
2, 79519, Note_off_c, 4, 64, 127
2, 79520, Note_on_c, 5, 65, 127
2, 79624, Note_off_c, 5, 65, 127
2, 79625, Note_on_c, 10, 69, 127
2, 79729, Note_off_c, 10, 69, 127
2, 79730, Note_on_c, 4, 64, 127
2, 79834, Note_off_c, 4, 64, 127
2, 79835, Note_on_c, 5, 65, 127
2, 79939, Note_off_c, 5, 65, 127
2, 79939, Note_off_c, 2, 50, 127
2, 79940, Note_on_c, 0, 60, 127
2, 79940, Note_on_c, 0, 48, 127
2, 80044, Note_off_c, 0, 60, 127
2, 80045, Note_on_c, 4, 64, 127
2, 80149, Note_off_c, 4, 64, 127
2, 80150, Note_on_c, 5, 65, 127
2, 80254, Note_off_c, 5, 65, 127
2, 80255, Note_on_c, 10, 69, 127
2, 80359, Note_off_c, 10, 69, 127
2, 80360, Note_on_c, 4, 64, 127
2, 80464, Note_off_c, 4, 64, 127
2, 80465, Note_on_c, 5, 65, 127
2, 80566, Note_off_c, 10, 57, 127
2, 80569, Note_off_c, 5, 65, 127
2, 80569, Note_off_c, 0, 48, 127
2, 80570, Note_on_c, 0, 60, 127
2, 80570, Note_on_c, 7, 55, 127
2, 80570, Note_on_c, 11, 46, 127
2, 80674, Note_off_c, 0, 60, 127
2, 80675, Note_on_c, 4, 64, 127
2, 80779, Note_off_c, 4, 64, 127
2, 80780, Note_on_c, 5, 65, 127
2, 80884, Note_off_c, 5, 65, 127
2, 80885, Note_on_c, 10, 69, 127
2, 80989, Note_off_c, 10, 69, 127
2, 80990, Note_on_c, 4, 64, 127
2, 81094, Note_off_c, 4, 64, 127
2, 81095, Note_on_c, 5, 65, 127
2, 81199, Note_off_c, 5, 65, 127
2, 81199, Note_off_c, 11, 46, 127
2, 81199, Note_off_c, 7, 55, 127
2, 81200, Note_on_c, 0, 60, 127
2, 81200, Note_on_c, 5, 53, 127
2, 81200, Note_on_c, 10, 45, 127
2, 81304, Note_off_c, 0, 60, 127
2, 81305, Note_on_c, 4, 64, 127
2, 81409, Note_off_c, 4, 64, 127
2, 81410, Note_on_c, 5, 65, 127
2, 81514, Note_off_c, 5, 65, 127
2, 81515, Note_on_c, 10, 69, 127
2, 81619, Note_off_c, 10, 69, 127
2, 81620, Note_on_c, 4, 64, 127
2, 81724, Note_off_c, 4, 64, 127
2, 81725, Note_on_c, 5, 65, 127
2, 81829, Note_off_c, 5, 65, 127
2, 81829, Note_off_c, 10, 45, 127
2, 81830, Note_on_c, 2, 62, 127
2, 81830, Note_on_c, 11, 46, 127
2, 81933, Note_off_c, 5, 53, 127
2, 81935, Note_on_c, 5, 53, 127
2, 82039, Note_off_c, 5, 53, 127
2, 82039, Note_off_c, 2, 62, 127
2, 82040, Note_on_c, 4, 64, 127
2, 82040, Note_on_c, 7, 55, 127
2, 82144, Note_off_c, 7, 55, 127
2, 82144, Note_off_c, 4, 64, 127
2, 82145, Note_on_c, 5, 65, 127
2, 82145, Note_on_c, 10, 57, 127
2, 82246, Note_off_c, 11, 46, 127
2, 82249, Note_off_c, 10, 57, 127
2, 82249, Note_off_c, 5, 65, 127
2, 82250, Note_on_c, 7, 67, 127
2, 82250, Note_on_c, 11, 58, 127
2, 82354, Note_off_c, 11, 58, 127
2, 82354, Note_off_c, 7, 67, 127
2, 82355, Note_on_c, 10, 69, 127
2, 82355, Note_on_c, 0, 60, 127
2, 82459, Note_off_c, 0, 60, 127
2, 82459, Note_off_c, 10, 69, 127
2, 82460, Note_on_c, 11, 70, 127
2, 82460, Note_on_c, 2, 62, 127
2, 82669, Note_off_c, 2, 62, 127
2, 82669, Note_off_c, 11, 70, 127
2, 82670, Note_on_c, 10, 69, 127
2, 82670, Note_on_c, 0, 60, 127
2, 82879, Note_off_c, 0, 60, 127
2, 82879, Note_off_c, 10, 69, 127
2, 82880, Note_on_c, 7, 67, 127
2, 82880, Note_on_c, 11, 58, 127
2, 83089, Note_off_c, 11, 58, 127
2, 83089, Note_off_c, 7, 67, 127
2, 83090, Note_on_c, 10, 69, 127
2, 83090, Note_on_c, 0, 60, 127
2, 83299, Note_off_c, 0, 60, 127
2, 83299, Note_off_c, 10, 69, 127
2, 83300, Note_on_c, 7, 67, 127
2, 83300, Note_on_c, 11, 58, 127
2, 83509, Note_off_c, 11, 58, 127
2, 83509, Note_off_c, 7, 67, 127
2, 83510, Note_on_c, 5, 65, 127
2, 83510, Note_on_c, 10, 57, 127
2, 83719, Note_off_c, 10, 57, 127
2, 83719, Note_off_c, 5, 65, 127
2, 83720, Note_on_c, 0, 72, 127
2, 83720, Note_on_c, 4, 64, 127
2, 83720, Note_on_c, 7, 55, 127
2, 83825, Note_on_c, 11, 46, 127
2, 83929, Note_off_c, 11, 46, 127
2, 83930, Note_on_c, 0, 48, 127
2, 84034, Note_off_c, 0, 48, 127
2, 84035, Note_on_c, 2, 50, 127
2, 84136, Note_off_c, 7, 55, 127
2, 84139, Note_off_c, 2, 50, 127
2, 84139, Note_off_c, 4, 64, 127
2, 84139, Note_off_c, 0, 72, 127
2, 84140, Note_on_c, 4, 64, 127
2, 84140, Note_on_c, 0, 60, 127
2, 84140, Note_on_c, 7, 55, 127
2, 84140, Note_on_c, 0, 48, 127
2, 84244, Note_off_c, 0, 48, 127
2, 84245, Note_on_c, 11, 46, 127
2, 84348, Note_off_c, 7, 55, 127
2, 84349, Note_off_c, 11, 46, 127
2, 84349, Note_off_c, 0, 60, 127
2, 84349, Note_off_c, 4, 64, 127
2, 84350, Note_on_c, 0, 60, 127
2, 84350, Note_on_c, 5, 65, 127
2, 84350, Note_on_c, 5, 53, 127
2, 84350, Note_on_c, 10, 45, 127
2, 84559, Note_off_c, 10, 45, 127
2, 84560, Note_on_c, 0, 48, 127
2, 84769, Note_off_c, 0, 48, 127
2, 84769, Note_off_c, 5, 65, 127
2, 84769, Note_off_c, 0, 60, 127
2, 84770, Note_on_c, 7, 67, 127
2, 84770, Note_on_c, 2, 62, 127
2, 84770, Note_on_c, 11, 46, 127
2, 84979, Note_off_c, 11, 46, 127
2, 84979, Note_off_c, 2, 62, 127
2, 84979, Note_off_c, 7, 67, 127
2, 84980, Note_on_c, 0, 60, 127
2, 84980, Note_on_c, 10, 69, 127
2, 84980, Note_on_c, 0, 48, 127
2, 85049, Note_off_c, 10, 69, 127
2, 85050, Note_on_c, 7, 67, 127
2, 85119, Note_off_c, 7, 67, 127
2, 85120, Note_on_c, 10, 69, 127
2, 85189, Note_off_c, 10, 69, 127
2, 85189, Note_off_c, 5, 53, 127
2, 85190, Note_on_c, 7, 67, 127
2, 85190, Note_on_c, 5, 53, 127
2, 85259, Note_off_c, 7, 67, 127
2, 85260, Note_on_c, 10, 69, 127
2, 85329, Note_off_c, 10, 69, 127
2, 85330, Note_on_c, 7, 67, 127
2, 85399, Note_off_c, 7, 67, 127
2, 85399, Note_off_c, 5, 53, 127
2, 85400, Note_on_c, 5, 65, 127
2, 85400, Note_on_c, 4, 52, 127
2, 85469, Note_off_c, 5, 65, 127
2, 85470, Note_on_c, 7, 67, 127
2, 85539, Note_off_c, 7, 67, 127
2, 85540, Note_on_c, 10, 69, 127
2, 85609, Note_off_c, 10, 69, 127
2, 85609, Note_off_c, 4, 52, 127
2, 85609, Note_off_c, 0, 48, 127
2, 85609, Note_off_c, 0, 60, 127
2, 85610, Note_on_c, 10, 57, 127
2, 85610, Note_on_c, 0, 60, 127
2, 85610, Note_on_c, 5, 65, 127
2, 85610, Note_on_c, 5, 53, 127
2, 85610, Note_on_c, 5, 41, 127
2, 85714, Note_off_c, 5, 53, 127
2, 85715, Note_on_c, 0, 48, 127
2, 85818, Note_off_c, 5, 41, 127
2, 85819, Note_off_c, 0, 48, 127
2, 85820, Note_on_c, 2, 50, 127
2, 85924, Note_off_c, 2, 50, 127
2, 85925, Note_on_c, 4, 52, 127
2, 86026, Note_off_c, 0, 60, 127
2, 86026, Note_off_c, 10, 57, 127
2, 86029, Note_off_c, 4, 52, 127
2, 86030, Note_on_c, 5, 53, 127
2, 86134, Note_off_c, 5, 53, 127
2, 86135, Note_on_c, 7, 55, 127
2, 86239, Note_off_c, 7, 55, 127
2, 86240, Note_on_c, 10, 57, 127
2, 86344, Note_off_c, 5, 65, 127
2, 86345, Note_on_c, 2, 62, 127
2, 86449, Note_off_c, 2, 62, 127
2, 86449, Note_off_c, 10, 57, 127
2, 86450, Note_on_c, 4, 64, 127
2, 86450, Note_on_c, 7, 55, 127
2, 86554, Note_off_c, 4, 64, 127
2, 86555, Note_on_c, 5, 65, 127
2, 86659, Note_off_c, 5, 65, 127
2, 86659, Note_off_c, 7, 55, 127
2, 86660, Note_on_c, 7, 67, 127
2, 86660, Note_on_c, 5, 53, 127
2, 86764, Note_off_c, 7, 67, 127
2, 86765, Note_on_c, 10, 69, 127
2, 86869, Note_off_c, 10, 69, 127
2, 86869, Note_off_c, 5, 53, 127
2, 86870, Note_on_c, 11, 58, 127
2, 86870, Note_on_c, 7, 55, 127
2, 86974, Note_off_c, 11, 58, 127
2, 86975, Note_on_c, 0, 60, 127
2, 87079, Note_off_c, 0, 60, 127
2, 87079, Note_off_c, 7, 55, 127
2, 87080, Note_on_c, 2, 62, 127
2, 87080, Note_on_c, 5, 53, 127
2, 87184, Note_off_c, 2, 62, 127
2, 87185, Note_on_c, 4, 64, 127
2, 87289, Note_off_c, 4, 64, 127
2, 87289, Note_off_c, 5, 53, 127
2, 87290, Note_on_c, 5, 65, 127
2, 87290, Note_on_c, 4, 52, 127
2, 87394, Note_off_c, 5, 65, 127
2, 87395, Note_on_c, 7, 67, 127
2, 87499, Note_off_c, 4, 52, 127
2, 87500, Note_on_c, 10, 57, 127
2, 87500, Note_on_c, 5, 53, 127
2, 87604, Note_off_c, 7, 67, 127
2, 87605, Note_on_c, 5, 77, 127
2, 87709, Note_off_c, 5, 77, 127
2, 87710, Note_on_c, 4, 76, 127
2, 87814, Note_off_c, 4, 76, 127
2, 87815, Note_on_c, 2, 74, 127
2, 87919, Note_off_c, 2, 74, 127
2, 87920, Note_on_c, 0, 72, 127
2, 88024, Note_off_c, 0, 72, 127
2, 88025, Note_on_c, 11, 70, 127
2, 88129, Note_off_c, 11, 70, 127
2, 88130, Note_on_c, 10, 69, 127
2, 88234, Note_off_c, 5, 53, 127
2, 88235, Note_on_c, 4, 52, 127
2, 88339, Note_off_c, 4, 52, 127
2, 88339, Note_off_c, 10, 69, 127
2, 88340, Note_on_c, 12, 71, 127
2, 88340, Note_on_c, 5, 53, 127
2, 88445, Note_on_c, 7, 55, 127
2, 88452, Note_off_c, 10, 57, 127
2, 88548, Note_off_c, 5, 53, 127
2, 88549, Note_off_c, 7, 55, 127
2, 88549, Note_off_c, 12, 71, 127
2, 88550, Note_on_c, 0, 72, 127
2, 88550, Note_on_c, 5, 53, 127
2, 88655, Note_on_c, 4, 52, 127
2, 88759, Note_off_c, 4, 52, 127
2, 88759, Note_off_c, 0, 72, 127
2, 88760, Note_on_c, 12, 71, 127
2, 88760, Note_on_c, 2, 50, 127
2, 88965, Note_off_c, 5, 53, 127
2, 88968, Note_off_c, 2, 50, 127
2, 88968, Note_off_c, 12, 71, 127
2, 88969, Note_on_c, 0, 72, 127
2, 88969, Note_on_c, 7, 55, 127
2, 88969, Note_on_c, 4, 52, 127
2, 89178, Note_off_c, 4, 52, 127
2, 89178, Note_off_c, 7, 55, 127
2, 89178, Note_off_c, 0, 72, 127
2, 89179, Note_on_c, 2, 74, 127
2, 89179, Note_on_c, 10, 57, 127
2, 89179, Note_on_c, 5, 53, 127
2, 89388, Note_off_c, 5, 53, 127
2, 89388, Note_off_c, 10, 57, 127
2, 89388, Note_off_c, 2, 74, 127
2, 89389, Note_on_c, 0, 72, 127
2, 89389, Note_on_c, 7, 55, 127
2, 89389, Note_on_c, 4, 52, 127
2, 89494, Note_on_c, 10, 69, 127
2, 89598, Note_off_c, 10, 69, 127
2, 89599, Note_on_c, 7, 67, 127
2, 89703, Note_off_c, 7, 67, 127
2, 89704, Note_on_c, 5, 65, 127
2, 89808, Note_off_c, 5, 65, 127
2, 89809, Note_on_c, 4, 64, 127
2, 89913, Note_off_c, 4, 64, 127
2, 89914, Note_on_c, 2, 62, 127
2, 90018, Note_off_c, 2, 62, 127
2, 90018, Note_off_c, 7, 55, 127
2, 90019, Note_on_c, 0, 60, 127
2, 90123, Note_off_c, 4, 52, 127
2, 90124, Note_on_c, 7, 55, 127
2, 90228, Note_off_c, 0, 60, 127
2, 90229, Note_on_c, 2, 62, 127
2, 90229, Note_on_c, 5, 53, 127
2, 90277, Note_off_c, 7, 55, 127
2, 90334, Note_on_c, 10, 57, 127
2, 90437, Note_off_c, 5, 53, 127
2, 90438, Note_off_c, 2, 62, 127
2, 90439, Note_on_c, 4, 64, 127
2, 90439, Note_on_c, 7, 55, 127
2, 90487, Note_off_c, 10, 57, 127
2, 90544, Note_on_c, 11, 58, 127
2, 90647, Note_off_c, 7, 55, 127
2, 90648, Note_off_c, 11, 58, 127
2, 90648, Note_off_c, 4, 64, 127
2, 90649, Note_on_c, 2, 62, 127
2, 90649, Note_on_c, 5, 53, 127
2, 90754, Note_on_c, 10, 57, 127
2, 90857, Note_off_c, 5, 53, 127
2, 90858, Note_off_c, 2, 62, 127
2, 90859, Note_on_c, 4, 64, 127
2, 90859, Note_on_c, 7, 55, 127
2, 90907, Note_off_c, 10, 57, 127
2, 90964, Note_on_c, 11, 58, 127
2, 91067, Note_off_c, 7, 55, 127
2, 91068, Note_off_c, 4, 64, 127
2, 91069, Note_on_c, 5, 65, 127
2, 91069, Note_on_c, 10, 57, 127
2, 91117, Note_off_c, 11, 58, 127
2, 91174, Note_on_c, 0, 60, 127
2, 91277, Note_off_c, 10, 57, 127
2, 91278, Note_off_c, 0, 60, 127
2, 91278, Note_off_c, 5, 65, 127
2, 91279, Note_on_c, 4, 64, 127
2, 91279, Note_on_c, 7, 55, 127
2, 91384, Note_on_c, 11, 58, 127
2, 91487, Note_off_c, 7, 55, 127
2, 91488, Note_off_c, 4, 64, 127
2, 91489, Note_on_c, 5, 65, 127
2, 91489, Note_on_c, 10, 57, 127
2, 91537, Note_off_c, 11, 58, 127
2, 91594, Note_on_c, 0, 60, 127
2, 91697, Note_off_c, 10, 57, 127
2, 91698, Note_off_c, 5, 65, 127
2, 91699, Note_on_c, 7, 67, 127
2, 91699, Note_on_c, 11, 58, 127
2, 91747, Note_off_c, 0, 60, 127
2, 91804, Note_on_c, 2, 62, 127
2, 91907, Note_off_c, 11, 58, 127
2, 91908, Note_off_c, 2, 62, 127
2, 91908, Note_off_c, 7, 67, 127
2, 91909, Note_on_c, 7, 67, 127
2, 91909, Note_on_c, 0, 60, 127
2, 91909, Note_on_c, 10, 57, 127
2, 92118, Note_off_c, 7, 67, 127
2, 92119, Note_on_c, 5, 65, 127
2, 92328, Note_off_c, 5, 65, 127
2, 92328, Note_off_c, 10, 57, 127
2, 92328, Note_off_c, 0, 60, 127
2, 92329, Note_on_c, 3, 63, 127
2, 92329, Note_on_c, 11, 58, 127
2, 92329, Note_on_c, 7, 55, 127
2, 92538, Note_off_c, 7, 55, 127
2, 92538, Note_off_c, 11, 58, 127
2, 92538, Note_off_c, 3, 63, 127
2, 92539, Note_on_c, 3, 63, 127
2, 92539, Note_on_c, 6, 54, 127
2, 92539, Note_on_c, 10, 57, 127
2, 92748, Note_off_c, 3, 63, 127
2, 92749, Note_on_c, 2, 62, 127
2, 92950, Note_off_c, 0, 72, 127
2, 92959, Note_on_c, 0, 72, 127
2, 93168, Note_off_c, 0, 72, 127
2, 93168, Note_off_c, 10, 57, 127
2, 93168, Note_off_c, 6, 54, 127
2, 93169, Note_on_c, 12, 71, 127
2, 93169, Note_on_c, 7, 55, 127
2, 93273, Note_off_c, 12, 71, 127
2, 93274, Note_on_c, 10, 69, 127
2, 93378, Note_off_c, 10, 69, 127
2, 93379, Note_on_c, 12, 71, 127
2, 93483, Note_off_c, 12, 71, 127
2, 93484, Note_on_c, 0, 72, 127
2, 93588, Note_off_c, 0, 72, 127
2, 93589, Note_on_c, 2, 74, 127
2, 93693, Note_off_c, 2, 74, 127
2, 93694, Note_on_c, 4, 76, 127
2, 93798, Note_off_c, 4, 76, 127
2, 93799, Note_off_c, 2, 62, 127
2, 93799, Note_on_c, 5, 77, 127
2, 93903, Note_off_c, 7, 55, 127
2, 93904, Note_on_c, 12, 59, 127
2, 94008, Note_off_c, 12, 59, 127
2, 94008, Note_off_c, 5, 77, 127
2, 94009, Note_on_c, 4, 76, 127
2, 94009, Note_on_c, 0, 60, 127
2, 94113, Note_off_c, 0, 60, 127
2, 94114, Note_on_c, 2, 62, 127
2, 94218, Note_off_c, 2, 62, 127
2, 94218, Note_off_c, 4, 76, 127
2, 94219, Note_on_c, 2, 74, 127
2, 94219, Note_on_c, 4, 64, 127
2, 94323, Note_off_c, 4, 64, 127
2, 94324, Note_on_c, 5, 65, 127
2, 94428, Note_off_c, 5, 65, 127
2, 94428, Note_off_c, 2, 74, 127
2, 94429, Note_on_c, 4, 76, 127
2, 94429, Note_on_c, 7, 67, 127
2, 94533, Note_off_c, 4, 76, 127
2, 94534, Note_on_c, 0, 72, 127
2, 94638, Note_off_c, 0, 72, 127
2, 94638, Note_off_c, 7, 67, 127
2, 94639, Note_on_c, 2, 74, 127
2, 94639, Note_on_c, 5, 65, 127
2, 94743, Note_off_c, 2, 74, 127
2, 94744, Note_on_c, 4, 76, 127
2, 94848, Note_off_c, 4, 76, 127
2, 94848, Note_off_c, 5, 65, 127
2, 94849, Note_on_c, 5, 77, 127
2, 94849, Note_on_c, 4, 64, 127
2, 94953, Note_off_c, 5, 77, 127
2, 94954, Note_on_c, 7, 79, 127
2, 95058, Note_off_c, 7, 79, 127
2, 95058, Note_off_c, 4, 64, 127
2, 95059, Note_on_c, 10, 81, 127
2, 95059, Note_on_c, 5, 65, 127
2, 95163, Note_off_c, 10, 81, 127
2, 95164, Note_on_c, 5, 77, 127
2, 95268, Note_off_c, 5, 77, 127
2, 95269, Note_on_c, 4, 76, 127
2, 95269, Note_on_c, 7, 55, 127
2, 95373, Note_off_c, 4, 76, 127
2, 95374, Note_on_c, 2, 74, 127
2, 95475, Note_off_c, 5, 65, 127
2, 95478, Note_off_c, 2, 74, 127
2, 95479, Note_on_c, 4, 76, 127
2, 95479, Note_on_c, 5, 65, 127
2, 95583, Note_off_c, 4, 76, 127
2, 95584, Note_on_c, 5, 77, 127
2, 95685, Note_off_c, 7, 55, 127
2, 95688, Note_off_c, 5, 77, 127
2, 95688, Note_off_c, 5, 65, 127
2, 95689, Note_on_c, 7, 79, 127
2, 95689, Note_on_c, 4, 64, 127
2, 95793, Note_off_c, 7, 79, 127
2, 95794, Note_on_c, 4, 76, 127
2, 95898, Note_off_c, 4, 76, 127
2, 95899, Note_on_c, 2, 74, 127
2, 95899, Note_on_c, 7, 55, 127
2, 96003, Note_off_c, 2, 74, 127
2, 96004, Note_on_c, 0, 72, 127
2, 96105, Note_off_c, 4, 64, 127
2, 96108, Note_off_c, 0, 72, 127
2, 96109, Note_on_c, 2, 74, 127
2, 96109, Note_on_c, 4, 64, 127
2, 96213, Note_off_c, 2, 74, 127
2, 96214, Note_on_c, 4, 76, 127
2, 96315, Note_off_c, 7, 55, 127
2, 96318, Note_off_c, 4, 76, 127
2, 96318, Note_off_c, 4, 64, 127
2, 96319, Note_on_c, 5, 77, 127
2, 96319, Note_on_c, 2, 62, 127
2, 96423, Note_off_c, 5, 77, 127
2, 96424, Note_on_c, 2, 74, 127
2, 96528, Note_off_c, 2, 74, 127
2, 96529, Note_on_c, 0, 72, 127
2, 96529, Note_on_c, 7, 55, 127
2, 96633, Note_off_c, 0, 72, 127
2, 96634, Note_on_c, 12, 71, 127
2, 96735, Note_off_c, 2, 62, 127
2, 96738, Note_off_c, 12, 71, 127
2, 96739, Note_on_c, 0, 72, 127
2, 96739, Note_on_c, 2, 62, 127
2, 96843, Note_off_c, 0, 72, 127
2, 96844, Note_on_c, 2, 74, 127
2, 96945, Note_off_c, 7, 55, 127
2, 96948, Note_off_c, 2, 74, 127
2, 96948, Note_off_c, 2, 62, 127
2, 96949, Note_on_c, 4, 76, 127
2, 96949, Note_on_c, 0, 60, 127
2, 97053, Note_off_c, 4, 76, 127
2, 97054, Note_on_c, 12, 71, 127
2, 97158, Note_off_c, 12, 71, 127
2, 97159, Note_on_c, 0, 72, 127
2, 97159, Note_on_c, 0, 48, 127
2, 97263, Note_off_c, 0, 72, 127
2, 97264, Note_on_c, 4, 76, 127
2, 97365, Note_off_c, 0, 60, 127
2, 97368, Note_off_c, 4, 76, 127
2, 97369, Note_on_c, 12, 71, 127
2, 97369, Note_on_c, 0, 60, 127
2, 97473, Note_off_c, 12, 71, 127
2, 97474, Note_on_c, 0, 72, 127
2, 97575, Note_off_c, 0, 48, 127
2, 97578, Note_off_c, 0, 72, 127
2, 97578, Note_off_c, 0, 60, 127
2, 97579, Note_on_c, 5, 65, 127
2, 97579, Note_on_c, 0, 60, 127
2, 97683, Note_off_c, 5, 65, 127
2, 97684, Note_on_c, 12, 71, 127
2, 97788, Note_off_c, 12, 71, 127
2, 97789, Note_on_c, 0, 72, 127
2, 97789, Note_on_c, 2, 50, 127
2, 97893, Note_off_c, 0, 72, 127
2, 97894, Note_on_c, 4, 76, 127
2, 97995, Note_off_c, 0, 60, 127
2, 97998, Note_off_c, 4, 76, 127
2, 97999, Note_on_c, 12, 71, 127
2, 97999, Note_on_c, 0, 60, 127
2, 98103, Note_off_c, 12, 71, 127
2, 98104, Note_on_c, 0, 72, 127
2, 98205, Note_off_c, 2, 50, 127
2, 98208, Note_off_c, 0, 72, 127
2, 98208, Note_off_c, 0, 60, 127
2, 98209, Note_on_c, 7, 67, 127
2, 98209, Note_on_c, 0, 60, 127
2, 98313, Note_off_c, 7, 67, 127
2, 98314, Note_on_c, 12, 71, 127
2, 98418, Note_off_c, 12, 71, 127
2, 98419, Note_on_c, 0, 72, 127
2, 98419, Note_on_c, 4, 52, 127
2, 98523, Note_off_c, 0, 72, 127
2, 98524, Note_on_c, 4, 76, 127
2, 98625, Note_off_c, 0, 60, 127
2, 98628, Note_off_c, 4, 76, 127
2, 98629, Note_on_c, 12, 71, 127
2, 98629, Note_on_c, 0, 60, 127
2, 98733, Note_off_c, 12, 71, 127
2, 98734, Note_on_c, 0, 72, 127
2, 98835, Note_off_c, 4, 52, 127
2, 98838, Note_off_c, 0, 72, 127
2, 98838, Note_off_c, 0, 60, 127
2, 98839, Note_on_c, 10, 69, 127
2, 98839, Note_on_c, 0, 60, 127
2, 98943, Note_off_c, 10, 69, 127
2, 98944, Note_on_c, 12, 71, 127
2, 99048, Note_off_c, 12, 71, 127
2, 99049, Note_on_c, 0, 72, 127
2, 99049, Note_on_c, 5, 53, 127
2, 99153, Note_off_c, 0, 72, 127
2, 99154, Note_on_c, 4, 76, 127
2, 99255, Note_off_c, 0, 60, 127
2, 99258, Note_off_c, 4, 76, 127
2, 99259, Note_on_c, 12, 71, 127
2, 99259, Note_on_c, 0, 60, 127
2, 99363, Note_off_c, 12, 71, 127
2, 99364, Note_on_c, 0, 72, 127
2, 99465, Note_off_c, 5, 53, 127
2, 99468, Note_off_c, 0, 72, 127
2, 99468, Note_off_c, 0, 60, 127
2, 99469, Note_on_c, 7, 67, 127
2, 99469, Note_on_c, 0, 60, 127
2, 99573, Note_off_c, 7, 67, 127
2, 99574, Note_on_c, 12, 71, 127
2, 99678, Note_off_c, 12, 71, 127
2, 99679, Note_on_c, 0, 72, 127
2, 99679, Note_on_c, 7, 55, 127
2, 99783, Note_off_c, 0, 72, 127
2, 99784, Note_on_c, 4, 76, 127
2, 99885, Note_off_c, 0, 60, 127
2, 99888, Note_off_c, 4, 76, 127
2, 99889, Note_on_c, 12, 71, 127
2, 99889, Note_on_c, 0, 60, 127
2, 99993, Note_off_c, 12, 71, 127
2, 99994, Note_on_c, 0, 72, 127
2, 100095, Note_off_c, 7, 55, 127
2, 100098, Note_off_c, 0, 72, 127
2, 100098, Note_off_c, 0, 60, 127
2, 100099, Note_on_c, 6, 66, 127
2, 100099, Note_on_c, 0, 60, 127
2, 100203, Note_off_c, 6, 66, 127
2, 100204, Note_on_c, 12, 71, 127
2, 100308, Note_off_c, 12, 71, 127
2, 100309, Note_on_c, 0, 72, 127
2, 100309, Note_on_c, 10, 57, 127
2, 100413, Note_off_c, 0, 72, 127
2, 100414, Note_on_c, 4, 76, 127
2, 100515, Note_off_c, 0, 60, 127
2, 100518, Note_off_c, 4, 76, 127
2, 100519, Note_on_c, 12, 71, 127
2, 100519, Note_on_c, 0, 60, 127
2, 100623, Note_off_c, 12, 71, 127
2, 100624, Note_on_c, 0, 72, 127
2, 100725, Note_off_c, 10, 57, 127
2, 100728, Note_off_c, 0, 72, 127
2, 100728, Note_off_c, 0, 60, 127
2, 100729, Note_on_c, 5, 65, 127
2, 100729, Note_on_c, 2, 62, 127
2, 100729, Note_on_c, 12, 59, 127
2, 100835, Note_off_c, 5, 65, 127
2, 100836, Note_on_c, 10, 69, 127
2, 100942, Note_off_c, 10, 69, 127
2, 100942, Note_off_c, 12, 59, 127
2, 100943, Note_on_c, 12, 71, 127
2, 100943, Note_on_c, 10, 57, 127
2, 101049, Note_off_c, 12, 71, 127
2, 101050, Note_on_c, 2, 74, 127
2, 101156, Note_off_c, 2, 74, 127
2, 101156, Note_off_c, 10, 57, 127
2, 101157, Note_on_c, 10, 69, 127
2, 101157, Note_on_c, 7, 55, 127
2, 101263, Note_off_c, 10, 69, 127
2, 101264, Note_on_c, 12, 71, 127
2, 101370, Note_off_c, 12, 71, 127
2, 101370, Note_off_c, 7, 55, 127
2, 101370, Note_off_c, 2, 62, 127
2, 101371, Note_on_c, 3, 63, 127
2, 101371, Note_on_c, 0, 60, 127
2, 101477, Note_off_c, 3, 63, 127
2, 101478, Note_on_c, 7, 67, 127
2, 101584, Note_off_c, 7, 67, 127
2, 101585, Note_on_c, 10, 69, 127
2, 101585, Note_on_c, 6, 54, 127
2, 101691, Note_off_c, 10, 69, 127
2, 101692, Note_on_c, 0, 72, 127
2, 101798, Note_off_c, 0, 72, 127
2, 101798, Note_off_c, 6, 54, 127
2, 101799, Note_on_c, 6, 66, 127
2, 101799, Note_on_c, 10, 57, 127
2, 101905, Note_off_c, 6, 66, 127
2, 101906, Note_on_c, 7, 67, 127
2, 102012, Note_off_c, 7, 67, 127
2, 102012, Note_off_c, 10, 57, 127
2, 102012, Note_off_c, 0, 60, 127
2, 102013, Note_on_c, 2, 62, 127
2, 102013, Note_on_c, 7, 55, 127
2, 102119, Note_off_c, 2, 62, 127
2, 102120, Note_on_c, 5, 65, 127
2, 102226, Note_off_c, 5, 65, 127
2, 102227, Note_on_c, 7, 67, 127
2, 102333, Note_off_c, 7, 67, 127
2, 102334, Note_on_c, 12, 71, 127
2, 102440, Note_off_c, 12, 71, 127
2, 102441, Note_on_c, 5, 65, 127
2, 102441, Note_on_c, 7, 43, 127
2, 102547, Note_off_c, 5, 65, 127
2, 102548, Note_on_c, 7, 67, 127
2, 102654, Note_off_c, 7, 67, 127
2, 102654, Note_off_c, 7, 43, 127
2, 102654, Note_off_c, 7, 55, 127
2, 102661, Note_on_c, 0, 48, 127
2, 102661, Note_on_c, 4, 64, 127
2, 102661, Note_on_c, 0, 72, 127
2, 102776, Note_on_c, 0, 60, 127
2, 102861, Note_off_c, 0, 48, 127
2, 102880, Note_off_c, 0, 60, 127
2, 102881, Note_on_c, 11, 58, 127
2, 102985, Note_off_c, 11, 58, 127
2, 102986, Note_on_c, 10, 57, 127
2, 103090, Note_off_c, 10, 57, 127
2, 103091, Note_on_c, 7, 55, 127
2, 103195, Note_off_c, 7, 55, 127
2, 103196, Note_on_c, 5, 53, 127
2, 103300, Note_off_c, 5, 53, 127
2, 103301, Note_on_c, 4, 52, 127
2, 103395, Note_off_c, 0, 72, 127
2, 103395, Note_off_c, 4, 64, 127
2, 103406, Note_on_c, 7, 67, 127
2, 103510, Note_off_c, 7, 67, 127
2, 103510, Note_off_c, 4, 52, 127
2, 103511, Note_on_c, 6, 54, 127
2, 103511, Note_on_c, 10, 69, 127
2, 103615, Note_off_c, 10, 69, 127
2, 103616, Note_on_c, 12, 71, 127
2, 103720, Note_off_c, 12, 71, 127
2, 103720, Note_off_c, 6, 54, 127
2, 103721, Note_on_c, 7, 55, 127
2, 103721, Note_on_c, 0, 72, 127
2, 103825, Note_off_c, 0, 72, 127
2, 103826, Note_on_c, 2, 74, 127
2, 103930, Note_off_c, 2, 74, 127
2, 103930, Note_off_c, 7, 55, 127
2, 103931, Note_on_c, 6, 54, 127
2, 103931, Note_on_c, 3, 75, 127
2, 104140, Note_off_c, 3, 75, 127
2, 104140, Note_off_c, 6, 54, 127
2, 104141, Note_on_c, 7, 55, 127
2, 104141, Note_on_c, 2, 74, 127
2, 104350, Note_off_c, 2, 74, 127
2, 104350, Note_off_c, 7, 55, 127
2, 104351, Note_on_c, 10, 57, 127
2, 104351, Note_on_c, 0, 72, 127
2, 104560, Note_off_c, 0, 72, 127
2, 104560, Note_off_c, 10, 57, 127
2, 104561, Note_on_c, 7, 55, 127
2, 104561, Note_on_c, 11, 70, 127
2, 104666, Note_on_c, 7, 67, 127
2, 104770, Note_off_c, 7, 67, 127
2, 104771, Note_on_c, 6, 66, 127
2, 104875, Note_off_c, 6, 66, 127
2, 104876, Note_on_c, 4, 64, 127
2, 104980, Note_off_c, 4, 64, 127
2, 104981, Note_on_c, 2, 62, 127
2, 105085, Note_off_c, 2, 62, 127
2, 105085, Note_off_c, 7, 55, 127
2, 105086, Note_on_c, 0, 60, 127
2, 105190, Note_off_c, 0, 60, 127
2, 105191, Note_on_c, 11, 58, 127
2, 105295, Note_off_c, 11, 58, 127
2, 105296, Note_on_c, 10, 57, 127
2, 105400, Note_off_c, 10, 57, 127
2, 105401, Note_on_c, 7, 55, 127
2, 105505, Note_off_c, 7, 55, 127
2, 105506, Note_on_c, 5, 53, 127
2, 105610, Note_off_c, 5, 53, 127
2, 105611, Note_off_c, 11, 70, 127
2, 105611, Note_on_c, 4, 52, 127
2, 105611, Note_on_c, 5, 65, 127
2, 105611, Note_on_c, 7, 67, 127
2, 105611, Note_on_c, 11, 70, 127
2, 105715, Note_off_c, 4, 52, 127
2, 105716, Note_on_c, 2, 50, 127
2, 105820, Note_off_c, 2, 50, 127
2, 105820, Note_off_c, 11, 70, 127
2, 105820, Note_off_c, 7, 67, 127
2, 105820, Note_off_c, 5, 65, 127
2, 105821, Note_on_c, 0, 48, 127
2, 105821, Note_on_c, 4, 64, 127
2, 105821, Note_on_c, 11, 70, 127
2, 105821, Note_on_c, 2, 74, 127
2, 106030, Note_off_c, 2, 74, 127
2, 106030, Note_off_c, 11, 70, 127
2, 106031, Note_on_c, 0, 72, 127
2, 106031, Note_on_c, 10, 69, 127
2, 106240, Note_off_c, 10, 69, 127
2, 106240, Note_off_c, 0, 72, 127
2, 106241, Note_on_c, 11, 70, 127
2, 106241, Note_on_c, 7, 67, 127
2, 106450, Note_off_c, 7, 67, 127
2, 106450, Note_off_c, 11, 70, 127
2, 106450, Note_off_c, 4, 64, 127
2, 106450, Note_off_c, 0, 48, 127
2, 106451, Note_on_c, 5, 53, 127
2, 106451, Note_on_c, 10, 69, 127
2, 106556, Note_on_c, 5, 65, 127
2, 106660, Note_off_c, 5, 65, 127
2, 106661, Note_on_c, 4, 64, 127
2, 106765, Note_off_c, 4, 64, 127
2, 106766, Note_on_c, 2, 62, 127
2, 106870, Note_off_c, 2, 62, 127
2, 106871, Note_on_c, 0, 60, 127
2, 106975, Note_off_c, 0, 60, 127
2, 106975, Note_off_c, 5, 53, 127
2, 106976, Note_on_c, 11, 58, 127
2, 107080, Note_off_c, 11, 58, 127
2, 107081, Note_on_c, 10, 57, 127
2, 107185, Note_off_c, 10, 57, 127
2, 107186, Note_on_c, 7, 55, 127
2, 107290, Note_off_c, 7, 55, 127
2, 107291, Note_on_c, 5, 53, 127
2, 107395, Note_off_c, 5, 53, 127
2, 107396, Note_on_c, 4, 52, 127
2, 107500, Note_off_c, 4, 52, 127
2, 107501, Note_off_c, 10, 69, 127
2, 107501, Note_on_c, 2, 50, 127
2, 107501, Note_on_c, 10, 69, 127
2, 107605, Note_off_c, 2, 50, 127
2, 107606, Note_on_c, 0, 48, 127
2, 107710, Note_off_c, 0, 48, 127
2, 107711, Note_on_c, 12, 47, 127
2, 107711, Note_on_c, 2, 74, 127
2, 107815, Note_off_c, 2, 74, 127
2, 107816, Note_on_c, 4, 76, 127
2, 107920, Note_off_c, 4, 76, 127
2, 107921, Note_on_c, 2, 74, 127
2, 108025, Note_off_c, 2, 74, 127
2, 108026, Note_on_c, 4, 76, 127
2, 108130, Note_off_c, 4, 76, 127
2, 108131, Note_on_c, 5, 77, 127
2, 108340, Note_off_c, 5, 77, 127
2, 108340, Note_off_c, 12, 47, 127
2, 108340, Note_off_c, 10, 69, 127
2, 108341, Note_on_c, 7, 67, 127
2, 108446, Note_on_c, 4, 52, 127
2, 108550, Note_off_c, 4, 52, 127
2, 108551, Note_on_c, 5, 53, 127
2, 108655, Note_off_c, 5, 53, 127
2, 108656, Note_on_c, 7, 55, 127
2, 108760, Note_off_c, 7, 55, 127
2, 108761, Note_on_c, 10, 57, 127
2, 108865, Note_off_c, 10, 57, 127
2, 108866, Note_on_c, 12, 59, 127
2, 108970, Note_off_c, 12, 59, 127
2, 108970, Note_off_c, 7, 67, 127
2, 108971, Note_on_c, 1, 61, 127
2, 109075, Note_off_c, 1, 61, 127
2, 109076, Note_on_c, 2, 62, 127
2, 109180, Note_off_c, 2, 62, 127
2, 109181, Note_on_c, 4, 64, 127
2, 109285, Note_off_c, 4, 64, 127
2, 109286, Note_on_c, 5, 65, 127
2, 109390, Note_off_c, 5, 65, 127
2, 109391, Note_on_c, 4, 52, 127
2, 109391, Note_on_c, 7, 67, 127
2, 109496, Note_on_c, 10, 69, 127
2, 109600, Note_off_c, 10, 69, 127
2, 109600, Note_off_c, 4, 52, 127
2, 109601, Note_on_c, 10, 57, 127
2, 109601, Note_on_c, 11, 70, 127
2, 109601, Note_on_c, 1, 61, 127
2, 109806, Note_off_c, 7, 67, 127
2, 109809, Note_off_c, 11, 70, 127
2, 109810, Note_on_c, 5, 65, 127
2, 109810, Note_on_c, 10, 69, 127
2, 110019, Note_off_c, 10, 69, 127
2, 110019, Note_off_c, 5, 65, 127
2, 110019, Note_off_c, 10, 57, 127
2, 110020, Note_on_c, 10, 45, 127
2, 110020, Note_on_c, 4, 64, 127
2, 110020, Note_on_c, 7, 67, 127
2, 110229, Note_off_c, 7, 67, 127
2, 110229, Note_off_c, 4, 64, 127
2, 110229, Note_off_c, 10, 45, 127
2, 110229, Note_off_c, 1, 61, 127
2, 110230, Note_on_c, 2, 50, 127
2, 110230, Note_on_c, 5, 65, 127
2, 110335, Note_on_c, 2, 62, 127
2, 110430, Note_off_c, 5, 65, 127
2, 110439, Note_off_c, 2, 62, 127
2, 110439, Note_off_c, 2, 50, 127
2, 110440, Note_on_c, 5, 53, 127
2, 110440, Note_on_c, 1, 61, 127
2, 110544, Note_off_c, 1, 61, 127
2, 110545, Note_on_c, 12, 59, 127
2, 110649, Note_off_c, 12, 59, 127
2, 110649, Note_off_c, 5, 53, 127
2, 110650, Note_on_c, 10, 45, 127
2, 110650, Note_on_c, 1, 61, 127
2, 110754, Note_off_c, 1, 61, 127
2, 110755, Note_on_c, 2, 62, 127
2, 110859, Note_off_c, 2, 62, 127
2, 110859, Note_off_c, 10, 45, 127
2, 110860, Note_on_c, 4, 52, 127
2, 110860, Note_on_c, 7, 67, 127
2, 110965, Note_on_c, 4, 64, 127
2, 111060, Note_off_c, 7, 67, 127
2, 111069, Note_off_c, 4, 64, 127
2, 111069, Note_off_c, 4, 52, 127
2, 111070, Note_on_c, 7, 55, 127
2, 111070, Note_on_c, 2, 62, 127
2, 111174, Note_off_c, 2, 62, 127
2, 111175, Note_on_c, 1, 61, 127
2, 111279, Note_off_c, 1, 61, 127
2, 111279, Note_off_c, 7, 55, 127
2, 111280, Note_on_c, 10, 45, 127
2, 111280, Note_on_c, 2, 62, 127
2, 111384, Note_off_c, 2, 62, 127
2, 111385, Note_on_c, 4, 64, 127
2, 111489, Note_off_c, 4, 64, 127
2, 111489, Note_off_c, 10, 45, 127
2, 111490, Note_on_c, 5, 53, 127
2, 111490, Note_on_c, 10, 69, 127
2, 111595, Note_on_c, 5, 65, 127
2, 111690, Note_off_c, 10, 69, 127
2, 111699, Note_off_c, 5, 65, 127
2, 111699, Note_off_c, 5, 53, 127
2, 111700, Note_on_c, 10, 57, 127
2, 111700, Note_on_c, 4, 64, 127
2, 111804, Note_off_c, 4, 64, 127
2, 111805, Note_on_c, 2, 62, 127
2, 111909, Note_off_c, 2, 62, 127
2, 111909, Note_off_c, 10, 57, 127
2, 111910, Note_on_c, 2, 50, 127
2, 111910, Note_on_c, 4, 64, 127
2, 112014, Note_off_c, 4, 64, 127
2, 112015, Note_on_c, 5, 65, 127
2, 112119, Note_off_c, 5, 65, 127
2, 112119, Note_off_c, 2, 50, 127
2, 112120, Note_on_c, 7, 55, 127
2, 112120, Note_on_c, 12, 71, 127
2, 112225, Note_on_c, 7, 67, 127
2, 112290, Note_off_c, 12, 71, 127
2, 112329, Note_off_c, 7, 67, 127
2, 112329, Note_off_c, 7, 55, 127
2, 112330, Note_on_c, 7, 43, 127
2, 112330, Note_on_c, 5, 65, 127
2, 112434, Note_off_c, 5, 65, 127
2, 112435, Note_on_c, 4, 64, 127
2, 112539, Note_off_c, 4, 64, 127
2, 112539, Note_off_c, 7, 43, 127
2, 112540, Note_on_c, 7, 55, 127
2, 112540, Note_on_c, 5, 65, 127
2, 112644, Note_off_c, 5, 65, 127
2, 112645, Note_on_c, 7, 67, 127
2, 112749, Note_off_c, 7, 67, 127
2, 112749, Note_off_c, 7, 55, 127
2, 112750, Note_on_c, 7, 55, 127
2, 112750, Note_on_c, 1, 73, 127
2, 112855, Note_on_c, 10, 69, 127
2, 112900, Note_off_c, 1, 73, 127
2, 112959, Note_off_c, 10, 69, 127
2, 112959, Note_off_c, 7, 55, 127
2, 112960, Note_on_c, 10, 45, 127
2, 112960, Note_on_c, 7, 67, 127
2, 113064, Note_off_c, 7, 67, 127
2, 113065, Note_on_c, 5, 65, 127
2, 113169, Note_off_c, 5, 65, 127
2, 113169, Note_off_c, 10, 45, 127
2, 113170, Note_on_c, 7, 55, 127
2, 113170, Note_on_c, 7, 67, 127
2, 113274, Note_off_c, 7, 67, 127
2, 113275, Note_on_c, 10, 69, 127
2, 113379, Note_off_c, 10, 69, 127
2, 113379, Note_off_c, 7, 55, 127
2, 113380, Note_on_c, 7, 55, 127
2, 113380, Note_on_c, 2, 74, 127
2, 113485, Note_on_c, 11, 70, 127
2, 113510, Note_off_c, 2, 74, 127
2, 113589, Note_off_c, 11, 70, 127
2, 113589, Note_off_c, 7, 55, 127
2, 113590, Note_on_c, 11, 46, 127
2, 113590, Note_on_c, 10, 69, 127
2, 113694, Note_off_c, 10, 69, 127
2, 113695, Note_on_c, 7, 67, 127
2, 113799, Note_off_c, 7, 67, 127
2, 113799, Note_off_c, 11, 46, 127
2, 113800, Note_on_c, 7, 55, 127
2, 113800, Note_on_c, 10, 69, 127
2, 113904, Note_off_c, 10, 69, 127
2, 113905, Note_on_c, 11, 70, 127
2, 114009, Note_off_c, 11, 70, 127
2, 114009, Note_off_c, 7, 55, 127
2, 114010, Note_on_c, 1, 49, 127
2, 114010, Note_on_c, 4, 76, 127
2, 114115, Note_on_c, 11, 70, 127
2, 114210, Note_off_c, 4, 76, 127
2, 114219, Note_off_c, 11, 70, 127
2, 114219, Note_off_c, 1, 49, 127
2, 114220, Note_on_c, 4, 52, 127
2, 114220, Note_on_c, 10, 69, 127
2, 114324, Note_off_c, 10, 69, 127
2, 114325, Note_on_c, 7, 67, 127
2, 114429, Note_off_c, 7, 67, 127
2, 114429, Note_off_c, 4, 52, 127
2, 114430, Note_on_c, 10, 57, 127
2, 114430, Note_on_c, 5, 65, 127
2, 114534, Note_off_c, 5, 65, 127
2, 114535, Note_on_c, 4, 64, 127
2, 114639, Note_off_c, 4, 64, 127
2, 114639, Note_off_c, 10, 57, 127
2, 114640, Note_on_c, 2, 50, 127
2, 114640, Note_on_c, 5, 65, 127
2, 114745, Note_on_c, 10, 69, 127
2, 114780, Note_off_c, 5, 65, 127
2, 114849, Note_off_c, 10, 69, 127
2, 114849, Note_off_c, 2, 50, 127
2, 114850, Note_on_c, 5, 53, 127
2, 114850, Note_on_c, 11, 70, 127
2, 114954, Note_off_c, 11, 70, 127
2, 114955, Note_on_c, 0, 72, 127
2, 115059, Note_off_c, 0, 72, 127
2, 115059, Note_off_c, 5, 53, 127
2, 115060, Note_on_c, 10, 57, 127
2, 115060, Note_on_c, 11, 70, 127
2, 115164, Note_off_c, 11, 70, 127
2, 115165, Note_on_c, 10, 69, 127
2, 115269, Note_off_c, 10, 69, 127
2, 115269, Note_off_c, 10, 57, 127
2, 115270, Note_on_c, 11, 46, 127
2, 115270, Note_on_c, 7, 67, 127
2, 115374, Note_off_c, 7, 67, 127
2, 115375, Note_on_c, 2, 74, 127
2, 115479, Note_off_c, 2, 74, 127
2, 115479, Note_off_c, 11, 46, 127
2, 115480, Note_on_c, 2, 50, 127
2, 115480, Note_on_c, 4, 76, 127
2, 115584, Note_off_c, 4, 76, 127
2, 115585, Note_on_c, 5, 77, 127
2, 115689, Note_off_c, 5, 77, 127
2, 115689, Note_off_c, 2, 50, 127
2, 115690, Note_on_c, 7, 55, 127
2, 115690, Note_on_c, 4, 76, 127
2, 115794, Note_off_c, 4, 76, 127
2, 115795, Note_on_c, 2, 74, 127
2, 115899, Note_off_c, 2, 74, 127
2, 115899, Note_off_c, 7, 55, 127
2, 115900, Note_on_c, 10, 57, 127
2, 115900, Note_on_c, 1, 73, 127
2, 116004, Note_off_c, 10, 57, 127
2, 116005, Note_on_c, 10, 45, 127
2, 116109, Note_off_c, 10, 45, 127
2, 116110, Note_on_c, 12, 47, 127
2, 116214, Note_off_c, 12, 47, 127
2, 116215, Note_on_c, 1, 49, 127
2, 116319, Note_off_c, 1, 49, 127
2, 116320, Note_on_c, 2, 50, 127
2, 116424, Note_off_c, 2, 50, 127
2, 116425, Note_off_c, 1, 73, 127
2, 116425, Note_on_c, 4, 52, 127
2, 116529, Note_off_c, 4, 52, 127
2, 116530, Note_on_c, 5, 53, 127
2, 116635, Note_on_c, 12, 71, 127
2, 116739, Note_off_c, 12, 71, 127
2, 116739, Note_off_c, 5, 53, 127
2, 116740, Note_on_c, 4, 52, 127
2, 116740, Note_on_c, 1, 73, 127
2, 116844, Note_off_c, 1, 73, 127
2, 116845, Note_on_c, 2, 74, 127
2, 116949, Note_off_c, 2, 74, 127
2, 116949, Note_off_c, 4, 52, 127
2, 116950, Note_on_c, 2, 50, 127
2, 116950, Note_on_c, 4, 76, 127
2, 117054, Note_off_c, 4, 76, 127
2, 117055, Note_on_c, 5, 77, 127
2, 117159, Note_off_c, 5, 77, 127
2, 117159, Note_off_c, 2, 50, 127
2, 117160, Note_on_c, 4, 52, 127
2, 117160, Note_on_c, 7, 79, 127
2, 117264, Note_off_c, 7, 79, 127
2, 117265, Note_on_c, 5, 77, 127
2, 117369, Note_off_c, 5, 77, 127
2, 117369, Note_off_c, 4, 52, 127
2, 117370, Note_on_c, 2, 50, 127
2, 117370, Note_on_c, 4, 76, 127
2, 117474, Note_off_c, 4, 76, 127
2, 117475, Note_on_c, 5, 77, 127
2, 117579, Note_off_c, 5, 77, 127
2, 117579, Note_off_c, 2, 50, 127
2, 117580, Note_on_c, 1, 49, 127
2, 117580, Note_on_c, 7, 79, 127
2, 117684, Note_off_c, 7, 79, 127
2, 117685, Note_on_c, 4, 76, 127
2, 117789, Note_off_c, 4, 76, 127
2, 117789, Note_off_c, 1, 49, 127
2, 117790, Note_on_c, 2, 50, 127
2, 117790, Note_on_c, 5, 77, 127
2, 117894, Note_off_c, 5, 77, 127
2, 117895, Note_on_c, 2, 74, 127
2, 117999, Note_off_c, 2, 74, 127
2, 118000, Note_on_c, 4, 76, 127
2, 118104, Note_off_c, 4, 76, 127
2, 118105, Note_on_c, 6, 78, 127
2, 118209, Note_off_c, 6, 78, 127
2, 118210, Note_on_c, 7, 79, 127
2, 118314, Note_off_c, 7, 79, 127
2, 118315, Note_on_c, 10, 81, 127
2, 118419, Note_off_c, 10, 81, 127
2, 118420, Note_on_c, 11, 82, 127
2, 118491, Note_off_c, 2, 50, 127
2, 118525, Note_on_c, 4, 52, 127
2, 118629, Note_off_c, 4, 52, 127
2, 118629, Note_off_c, 11, 82, 127
2, 118630, Note_on_c, 6, 54, 127
2, 118630, Note_on_c, 10, 81, 127
2, 118734, Note_off_c, 6, 54, 127
2, 118735, Note_on_c, 7, 55, 127
2, 118839, Note_off_c, 7, 55, 127
2, 118839, Note_off_c, 10, 81, 127
2, 118840, Note_on_c, 10, 57, 127
2, 118840, Note_on_c, 7, 79, 127
2, 118944, Note_off_c, 10, 57, 127
2, 118945, Note_on_c, 11, 58, 127
2, 119049, Note_off_c, 11, 58, 127
2, 119049, Note_off_c, 7, 79, 127
2, 119050, Note_on_c, 0, 60, 127
2, 119050, Note_on_c, 10, 81, 127
2, 119154, Note_off_c, 0, 60, 127
2, 119155, Note_on_c, 11, 58, 127
2, 119259, Note_off_c, 11, 58, 127
2, 119259, Note_off_c, 10, 81, 127
2, 119260, Note_on_c, 10, 57, 127
2, 119260, Note_on_c, 7, 79, 127
2, 119364, Note_off_c, 10, 57, 127
2, 119365, Note_on_c, 11, 58, 127
2, 119469, Note_off_c, 11, 58, 127
2, 119469, Note_off_c, 7, 79, 127
2, 119470, Note_on_c, 0, 60, 127
2, 119470, Note_on_c, 6, 78, 127
2, 119574, Note_off_c, 0, 60, 127
2, 119575, Note_on_c, 10, 57, 127
2, 119679, Note_off_c, 10, 57, 127
2, 119679, Note_off_c, 6, 78, 127
2, 119680, Note_on_c, 12, 59, 127
2, 119680, Note_on_c, 7, 79, 127
2, 119784, Note_off_c, 12, 59, 127
2, 119785, Note_on_c, 7, 55, 127
2, 119889, Note_off_c, 7, 55, 127
2, 119890, Note_on_c, 10, 57, 127
2, 119994, Note_off_c, 10, 57, 127
2, 119995, Note_on_c, 12, 59, 127
2, 120099, Note_off_c, 12, 59, 127
2, 120100, Note_on_c, 0, 60, 127
2, 120204, Note_off_c, 0, 60, 127
2, 120205, Note_on_c, 2, 62, 127
2, 120309, Note_off_c, 2, 62, 127
2, 120310, Note_on_c, 4, 64, 127
2, 120414, Note_off_c, 7, 79, 127
2, 120415, Note_on_c, 10, 69, 127
2, 120519, Note_off_c, 10, 69, 127
2, 120519, Note_off_c, 4, 64, 127
2, 120520, Note_on_c, 2, 62, 127
2, 120520, Note_on_c, 12, 71, 127
2, 120624, Note_off_c, 12, 71, 127
2, 120625, Note_on_c, 0, 72, 127
2, 120729, Note_off_c, 0, 72, 127
2, 120729, Note_off_c, 2, 62, 127
2, 120730, Note_on_c, 0, 60, 127
2, 120730, Note_on_c, 2, 74, 127
2, 120834, Note_off_c, 2, 74, 127
2, 120835, Note_on_c, 4, 76, 127
2, 120939, Note_off_c, 4, 76, 127
2, 120939, Note_off_c, 0, 60, 127
2, 120940, Note_on_c, 2, 62, 127
2, 120940, Note_on_c, 5, 77, 127
2, 121044, Note_off_c, 5, 77, 127
2, 121045, Note_on_c, 4, 76, 127
2, 121149, Note_off_c, 4, 76, 127
2, 121149, Note_off_c, 2, 62, 127
2, 121150, Note_on_c, 0, 60, 127
2, 121150, Note_on_c, 2, 74, 127
2, 121254, Note_off_c, 2, 74, 127
2, 121255, Note_on_c, 4, 76, 127
2, 121359, Note_off_c, 4, 76, 127
2, 121359, Note_off_c, 0, 60, 127
2, 121360, Note_on_c, 12, 59, 127
2, 121360, Note_on_c, 5, 77, 127
2, 121464, Note_off_c, 5, 77, 127
2, 121465, Note_on_c, 2, 74, 127
2, 121569, Note_off_c, 2, 74, 127
2, 121569, Note_off_c, 12, 59, 127
2, 121570, Note_on_c, 0, 60, 127
2, 121570, Note_on_c, 4, 76, 127
2, 121674, Note_off_c, 4, 76, 127
2, 121675, Note_on_c, 0, 72, 127
2, 121779, Note_off_c, 0, 72, 127
2, 121780, Note_on_c, 2, 74, 127
2, 121884, Note_off_c, 2, 74, 127
2, 121885, Note_on_c, 4, 76, 127
2, 121989, Note_off_c, 4, 76, 127
2, 121990, Note_on_c, 5, 77, 127
2, 122094, Note_off_c, 5, 77, 127
2, 122095, Note_on_c, 7, 79, 127
2, 122199, Note_off_c, 7, 79, 127
2, 122200, Note_on_c, 10, 81, 127
2, 122275, Note_off_c, 0, 60, 127
2, 122305, Note_on_c, 2, 62, 127
2, 122409, Note_off_c, 2, 62, 127
2, 122409, Note_off_c, 10, 81, 127
2, 122410, Note_on_c, 4, 64, 127
2, 122410, Note_on_c, 7, 79, 127
2, 122514, Note_off_c, 4, 64, 127
2, 122515, Note_on_c, 5, 65, 127
2, 122619, Note_off_c, 5, 65, 127
2, 122619, Note_off_c, 7, 79, 127
2, 122620, Note_on_c, 7, 67, 127
2, 122620, Note_on_c, 5, 77, 127
2, 122724, Note_off_c, 7, 67, 127
2, 122725, Note_on_c, 10, 69, 127
2, 122829, Note_off_c, 10, 69, 127
2, 122829, Note_off_c, 5, 77, 127
2, 122830, Note_on_c, 11, 70, 127
2, 122830, Note_on_c, 7, 79, 127
2, 122934, Note_off_c, 11, 70, 127
2, 122935, Note_on_c, 10, 69, 127
2, 123039, Note_off_c, 10, 69, 127
2, 123039, Note_off_c, 7, 79, 127
2, 123040, Note_on_c, 7, 67, 127
2, 123040, Note_on_c, 5, 77, 127
2, 123144, Note_off_c, 7, 67, 127
2, 123145, Note_on_c, 10, 69, 127
2, 123249, Note_off_c, 10, 69, 127
2, 123249, Note_off_c, 5, 77, 127
2, 123250, Note_on_c, 11, 70, 127
2, 123250, Note_on_c, 4, 76, 127
2, 123354, Note_off_c, 11, 70, 127
2, 123355, Note_on_c, 7, 67, 127
2, 123459, Note_off_c, 7, 67, 127
2, 123459, Note_off_c, 4, 76, 127
2, 123460, Note_on_c, 10, 69, 127
2, 123460, Note_on_c, 5, 77, 127
2, 123564, Note_off_c, 10, 69, 127
2, 123565, Note_on_c, 5, 65, 127
2, 123669, Note_off_c, 5, 65, 127
2, 123670, Note_on_c, 4, 64, 127
2, 123670, Note_on_c, 11, 82, 127
2, 123760, Note_off_c, 5, 77, 127
2, 123774, Note_off_c, 4, 64, 127
2, 123775, Note_on_c, 2, 62, 127
2, 123879, Note_off_c, 2, 62, 127
2, 123879, Note_off_c, 11, 82, 127
2, 123880, Note_on_c, 4, 64, 127
2, 123880, Note_on_c, 2, 74, 127
2, 123984, Note_off_c, 4, 64, 127
2, 123985, Note_on_c, 5, 65, 127
2, 124089, Note_off_c, 5, 65, 127
2, 124089, Note_off_c, 2, 74, 127
2, 124090, Note_on_c, 7, 67, 127
2, 124090, Note_on_c, 4, 76, 127
2, 124194, Note_off_c, 7, 67, 127
2, 124195, Note_on_c, 4, 64, 127
2, 124299, Note_off_c, 4, 64, 127
2, 124300, Note_on_c, 2, 62, 127
2, 124300, Note_on_c, 10, 81, 127
2, 124390, Note_off_c, 4, 76, 127
2, 124404, Note_off_c, 2, 62, 127
2, 124405, Note_on_c, 0, 60, 127
2, 124509, Note_off_c, 0, 60, 127
2, 124509, Note_off_c, 10, 81, 127
2, 124510, Note_on_c, 2, 62, 127
2, 124510, Note_on_c, 0, 72, 127
2, 124614, Note_off_c, 2, 62, 127
2, 124615, Note_on_c, 4, 64, 127
2, 124719, Note_off_c, 4, 64, 127
2, 124719, Note_off_c, 0, 72, 127
2, 124720, Note_on_c, 5, 65, 127
2, 124720, Note_on_c, 2, 74, 127
2, 124824, Note_off_c, 5, 65, 127
2, 124825, Note_on_c, 2, 62, 127
2, 124929, Note_off_c, 2, 62, 127
2, 124930, Note_on_c, 0, 60, 127
2, 124930, Note_on_c, 7, 79, 127
2, 125000, Note_off_c, 2, 74, 127
2, 125034, Note_off_c, 0, 60, 127
2, 125035, Note_on_c, 11, 58, 127
2, 125139, Note_off_c, 11, 58, 127
2, 125139, Note_off_c, 7, 79, 127
2, 125140, Note_on_c, 0, 60, 127
2, 125140, Note_on_c, 11, 70, 127
2, 125244, Note_off_c, 0, 60, 127
2, 125245, Note_on_c, 2, 62, 127
2, 125349, Note_off_c, 2, 62, 127
2, 125349, Note_off_c, 11, 70, 127
2, 125350, Note_on_c, 4, 64, 127
2, 125350, Note_on_c, 0, 72, 127
2, 125454, Note_off_c, 4, 64, 127
2, 125455, Note_on_c, 0, 60, 127
2, 125559, Note_off_c, 0, 60, 127
2, 125560, Note_on_c, 11, 58, 127
2, 125560, Note_on_c, 5, 77, 127
2, 125610, Note_off_c, 0, 72, 127
2, 125664, Note_off_c, 11, 58, 127
2, 125665, Note_on_c, 10, 57, 127
2, 125769, Note_off_c, 10, 57, 127
2, 125769, Note_off_c, 5, 77, 127
2, 125770, Note_on_c, 11, 58, 127
2, 125770, Note_on_c, 10, 69, 127
2, 125874, Note_off_c, 11, 58, 127
2, 125875, Note_on_c, 0, 60, 127
2, 125979, Note_off_c, 0, 60, 127
2, 125979, Note_off_c, 10, 69, 127
2, 125980, Note_on_c, 2, 62, 127
2, 125980, Note_on_c, 11, 70, 127
2, 126084, Note_off_c, 2, 62, 127
2, 126085, Note_on_c, 11, 58, 127
2, 126189, Note_off_c, 11, 58, 127
2, 126190, Note_on_c, 10, 57, 127
2, 126190, Note_on_c, 4, 76, 127
2, 126220, Note_off_c, 11, 70, 127
2, 126294, Note_off_c, 10, 57, 127
2, 126295, Note_on_c, 7, 55, 127
2, 126399, Note_off_c, 7, 55, 127
2, 126399, Note_off_c, 4, 76, 127
2, 126400, Note_on_c, 10, 57, 127
2, 126400, Note_on_c, 7, 67, 127
2, 126504, Note_off_c, 10, 57, 127
2, 126505, Note_on_c, 11, 58, 127
2, 126609, Note_off_c, 11, 58, 127
2, 126609, Note_off_c, 7, 67, 127
2, 126610, Note_on_c, 0, 60, 127
2, 126610, Note_on_c, 10, 69, 127
2, 126714, Note_off_c, 0, 60, 127
2, 126715, Note_on_c, 10, 57, 127
2, 126819, Note_off_c, 10, 57, 127
2, 126820, Note_on_c, 7, 55, 127
2, 126820, Note_on_c, 2, 74, 127
2, 126830, Note_off_c, 10, 69, 127
2, 126924, Note_off_c, 7, 55, 127
2, 126925, Note_on_c, 5, 53, 127
2, 127029, Note_off_c, 5, 53, 127
2, 127029, Note_off_c, 2, 74, 127
2, 127030, Note_on_c, 7, 55, 127
2, 127030, Note_on_c, 5, 65, 127
2, 127134, Note_off_c, 7, 55, 127
2, 127135, Note_on_c, 10, 57, 127
2, 127239, Note_off_c, 10, 57, 127
2, 127239, Note_off_c, 5, 65, 127
2, 127240, Note_on_c, 11, 58, 127
2, 127240, Note_on_c, 7, 67, 127
2, 127344, Note_off_c, 7, 67, 127
2, 127345, Note_on_c, 10, 69, 127
2, 127449, Note_off_c, 10, 69, 127
2, 127450, Note_on_c, 11, 70, 127
2, 127554, Note_off_c, 11, 70, 127
2, 127555, Note_on_c, 2, 74, 127
2, 127659, Note_off_c, 2, 74, 127
2, 127660, Note_on_c, 11, 70, 127
2, 127764, Note_off_c, 11, 70, 127
2, 127765, Note_on_c, 10, 69, 127
2, 127869, Note_off_c, 10, 69, 127
2, 127869, Note_off_c, 11, 58, 127
2, 127870, Note_on_c, 7, 67, 127
2, 127974, Note_off_c, 7, 67, 127
2, 127975, Note_on_c, 10, 69, 127
2, 128079, Note_off_c, 10, 69, 127
2, 128080, Note_on_c, 11, 70, 127
2, 128184, Note_off_c, 11, 70, 127
2, 128185, Note_on_c, 2, 74, 127
2, 128289, Note_off_c, 2, 74, 127
2, 128290, Note_on_c, 10, 69, 127
2, 128394, Note_off_c, 10, 69, 127
2, 128395, Note_on_c, 7, 67, 127
2, 128499, Note_off_c, 7, 67, 127
2, 128500, Note_on_c, 10, 57, 127
2, 128500, Note_on_c, 5, 65, 127
2, 128604, Note_off_c, 5, 65, 127
2, 128605, Note_on_c, 7, 67, 127
2, 128709, Note_off_c, 7, 67, 127
2, 128710, Note_on_c, 10, 69, 127
2, 128814, Note_off_c, 10, 69, 127
2, 128815, Note_on_c, 2, 74, 127
2, 128919, Note_off_c, 2, 74, 127
2, 128920, Note_on_c, 7, 67, 127
2, 129024, Note_off_c, 7, 67, 127
2, 129025, Note_on_c, 5, 65, 127
2, 129129, Note_off_c, 5, 65, 127
2, 129129, Note_off_c, 10, 57, 127
2, 129130, Note_on_c, 7, 55, 127
2, 129130, Note_on_c, 4, 64, 127
2, 129234, Note_off_c, 4, 64, 127
2, 129235, Note_on_c, 5, 65, 127
2, 129339, Note_off_c, 5, 65, 127
2, 129340, Note_on_c, 7, 67, 127
2, 129444, Note_off_c, 7, 67, 127
2, 129445, Note_on_c, 11, 70, 127
2, 129549, Note_off_c, 11, 70, 127
2, 129550, Note_on_c, 7, 67, 127
2, 129654, Note_off_c, 7, 67, 127
2, 129655, Note_on_c, 5, 65, 127
2, 129759, Note_off_c, 5, 65, 127
2, 129759, Note_off_c, 7, 55, 127
2, 129760, Note_on_c, 4, 64, 127
2, 129864, Note_off_c, 4, 64, 127
2, 129865, Note_on_c, 5, 65, 127
2, 129969, Note_off_c, 5, 65, 127
2, 129970, Note_on_c, 7, 67, 127
2, 130074, Note_off_c, 7, 67, 127
2, 130075, Note_on_c, 11, 70, 127
2, 130179, Note_off_c, 11, 70, 127
2, 130180, Note_on_c, 5, 65, 127
2, 130284, Note_off_c, 5, 65, 127
2, 130285, Note_on_c, 4, 64, 127
2, 130389, Note_off_c, 4, 64, 127
2, 130390, Note_on_c, 8, 56, 127
2, 130390, Note_on_c, 2, 62, 127
2, 130494, Note_off_c, 2, 62, 127
2, 130495, Note_on_c, 4, 64, 127
2, 130599, Note_off_c, 4, 64, 127
2, 130600, Note_on_c, 5, 65, 127
2, 130704, Note_off_c, 5, 65, 127
2, 130705, Note_on_c, 12, 71, 127
2, 130809, Note_off_c, 12, 71, 127
2, 130810, Note_on_c, 4, 64, 127
2, 130914, Note_off_c, 4, 64, 127
2, 130915, Note_on_c, 2, 62, 127
2, 131019, Note_off_c, 2, 62, 127
2, 131019, Note_off_c, 8, 56, 127
2, 131020, Note_on_c, 10, 57, 127
2, 131020, Note_on_c, 1, 61, 127
2, 131124, Note_off_c, 10, 57, 127
2, 131125, Note_on_c, 10, 45, 127
2, 131229, Note_off_c, 10, 45, 127
2, 131229, Note_off_c, 1, 61, 127
2, 131230, Note_on_c, 12, 47, 127
2, 131230, Note_on_c, 2, 62, 127
2, 131334, Note_off_c, 2, 62, 127
2, 131334, Note_off_c, 12, 47, 127
2, 131335, Note_on_c, 1, 49, 127
2, 131335, Note_on_c, 4, 64, 127
2, 131439, Note_off_c, 4, 64, 127
2, 131439, Note_off_c, 1, 49, 127
2, 131440, Note_on_c, 2, 50, 127
2, 131440, Note_on_c, 5, 65, 127
2, 131544, Note_off_c, 5, 65, 127
2, 131544, Note_off_c, 2, 50, 127
2, 131545, Note_on_c, 4, 52, 127
2, 131545, Note_on_c, 7, 67, 127
2, 131649, Note_off_c, 7, 67, 127
2, 131649, Note_off_c, 4, 52, 127
2, 131650, Note_on_c, 5, 53, 127
2, 131650, Note_on_c, 10, 69, 127
2, 131754, Note_off_c, 10, 69, 127
2, 131755, Note_on_c, 12, 71, 127
2, 131859, Note_off_c, 12, 71, 127
2, 131859, Note_off_c, 5, 53, 127
2, 131860, Note_on_c, 4, 52, 127
2, 131860, Note_on_c, 1, 73, 127
2, 131964, Note_off_c, 1, 73, 127
2, 131965, Note_on_c, 2, 74, 127
2, 132069, Note_off_c, 2, 74, 127
2, 132069, Note_off_c, 4, 52, 127
2, 132070, Note_on_c, 2, 50, 127
2, 132070, Note_on_c, 4, 76, 127
2, 132174, Note_off_c, 4, 76, 127
2, 132175, Note_on_c, 5, 77, 127
2, 132279, Note_off_c, 5, 77, 127
2, 132279, Note_off_c, 2, 50, 127
2, 132280, Note_on_c, 4, 52, 127
2, 132280, Note_on_c, 7, 79, 127
2, 132384, Note_off_c, 7, 79, 127
2, 132385, Note_on_c, 5, 77, 127
2, 132489, Note_off_c, 5, 77, 127
2, 132489, Note_off_c, 4, 52, 127
2, 132490, Note_on_c, 2, 50, 127
2, 132490, Note_on_c, 4, 76, 127
2, 132594, Note_off_c, 4, 76, 127
2, 132595, Note_on_c, 5, 77, 127
2, 132699, Note_off_c, 5, 77, 127
2, 132699, Note_off_c, 2, 50, 127
2, 132700, Note_on_c, 1, 49, 127
2, 132700, Note_on_c, 7, 79, 127
2, 132804, Note_off_c, 7, 79, 127
2, 132805, Note_on_c, 4, 76, 127
2, 132909, Note_off_c, 4, 76, 127
2, 132909, Note_off_c, 1, 49, 127
2, 132910, Note_on_c, 2, 50, 127
2, 132910, Note_on_c, 5, 77, 127
2, 133014, Note_off_c, 5, 77, 127
2, 133015, Note_on_c, 2, 74, 127
2, 133119, Note_off_c, 2, 74, 127
2, 133119, Note_off_c, 2, 50, 127
2, 133120, Note_on_c, 7, 55, 127
2, 133120, Note_on_c, 0, 72, 127
2, 133224, Note_off_c, 0, 72, 127
2, 133225, Note_on_c, 11, 70, 127
2, 133329, Note_off_c, 11, 70, 127
2, 133329, Note_off_c, 7, 55, 127
2, 133330, Note_on_c, 11, 46, 127
2, 133330, Note_on_c, 0, 72, 127
2, 133434, Note_off_c, 0, 72, 127
2, 133435, Note_on_c, 2, 74, 127
2, 133539, Note_off_c, 2, 74, 127
2, 133539, Note_off_c, 11, 46, 127
2, 133540, Note_on_c, 0, 48, 127
2, 133540, Note_on_c, 4, 76, 127
2, 133644, Note_off_c, 4, 76, 127
2, 133645, Note_on_c, 0, 72, 127
2, 133749, Note_off_c, 0, 72, 127
2, 133749, Note_off_c, 0, 48, 127
2, 133750, Note_on_c, 5, 53, 127
2, 133750, Note_on_c, 11, 70, 127
2, 133854, Note_off_c, 11, 70, 127
2, 133855, Note_on_c, 10, 69, 127
2, 133959, Note_off_c, 10, 69, 127
2, 133959, Note_off_c, 5, 53, 127
2, 133960, Note_on_c, 10, 45, 127
2, 133960, Note_on_c, 11, 70, 127
2, 134064, Note_off_c, 11, 70, 127
2, 134065, Note_on_c, 0, 72, 127
2, 134169, Note_off_c, 0, 72, 127
2, 134169, Note_off_c, 10, 45, 127
2, 134170, Note_on_c, 11, 46, 127
2, 134170, Note_on_c, 2, 74, 127
2, 134274, Note_off_c, 2, 74, 127
2, 134275, Note_on_c, 11, 70, 127
2, 134379, Note_off_c, 11, 70, 127
2, 134379, Note_off_c, 11, 46, 127
2, 134380, Note_on_c, 4, 52, 127
2, 134380, Note_on_c, 10, 69, 127
2, 134484, Note_off_c, 10, 69, 127
2, 134485, Note_on_c, 7, 67, 127
2, 134589, Note_off_c, 7, 67, 127
2, 134589, Note_off_c, 4, 52, 127
2, 134590, Note_on_c, 7, 43, 127
2, 134590, Note_on_c, 10, 69, 127
2, 134694, Note_off_c, 10, 69, 127
2, 134695, Note_on_c, 11, 70, 127
2, 134799, Note_off_c, 11, 70, 127
2, 134799, Note_off_c, 7, 43, 127
2, 134800, Note_on_c, 10, 45, 127
2, 134800, Note_on_c, 0, 72, 127
2, 134904, Note_off_c, 0, 72, 127
2, 134905, Note_on_c, 10, 69, 127
2, 135009, Note_off_c, 10, 69, 127
2, 135009, Note_off_c, 10, 45, 127
2, 135010, Note_on_c, 2, 50, 127
2, 135010, Note_on_c, 7, 67, 127
2, 135114, Note_off_c, 7, 67, 127
2, 135115, Note_on_c, 5, 65, 127
2, 135219, Note_off_c, 5, 65, 127
2, 135219, Note_off_c, 2, 50, 127
2, 135220, Note_on_c, 5, 41, 127
2, 135220, Note_on_c, 7, 67, 127
2, 135324, Note_off_c, 7, 67, 127
2, 135325, Note_on_c, 10, 69, 127
2, 135429, Note_off_c, 10, 69, 127
2, 135429, Note_off_c, 5, 41, 127
2, 135430, Note_on_c, 7, 43, 127
2, 135430, Note_on_c, 11, 70, 127
2, 135534, Note_off_c, 11, 70, 127
2, 135535, Note_on_c, 7, 67, 127
2, 135639, Note_off_c, 7, 67, 127
2, 135639, Note_off_c, 7, 43, 127
2, 135640, Note_on_c, 0, 48, 127
2, 135640, Note_on_c, 5, 65, 127
2, 135744, Note_off_c, 5, 65, 127
2, 135745, Note_on_c, 4, 64, 127
2, 135849, Note_off_c, 4, 64, 127
2, 135849, Note_off_c, 0, 48, 127
2, 135850, Note_on_c, 4, 40, 127
2, 135850, Note_on_c, 5, 65, 127
2, 135954, Note_off_c, 5, 65, 127
2, 135955, Note_on_c, 7, 67, 127
2, 136059, Note_off_c, 7, 67, 127
2, 136059, Note_off_c, 4, 40, 127
2, 136060, Note_on_c, 5, 41, 127
2, 136060, Note_on_c, 10, 69, 127
2, 136164, Note_off_c, 10, 69, 127
2, 136165, Note_on_c, 5, 65, 127
2, 136269, Note_off_c, 5, 65, 127
2, 136269, Note_off_c, 5, 41, 127
2, 136270, Note_on_c, 11, 46, 127
2, 136270, Note_on_c, 4, 64, 127
2, 136374, Note_off_c, 4, 64, 127
2, 136375, Note_on_c, 2, 62, 127
2, 136479, Note_off_c, 2, 62, 127
2, 136479, Note_off_c, 11, 46, 127
2, 136480, Note_on_c, 2, 38, 127
2, 136480, Note_on_c, 4, 64, 127
2, 136584, Note_off_c, 4, 64, 127
2, 136585, Note_on_c, 5, 65, 127
2, 136689, Note_off_c, 5, 65, 127
2, 136689, Note_off_c, 2, 38, 127
2, 136690, Note_on_c, 4, 40, 127
2, 136690, Note_on_c, 7, 67, 127
2, 136794, Note_off_c, 4, 40, 127
2, 136795, Note_on_c, 10, 45, 127
2, 136899, Note_off_c, 10, 45, 127
2, 136900, Note_on_c, 7, 43, 127
2, 137004, Note_off_c, 7, 43, 127
2, 137005, Note_on_c, 5, 41, 127
2, 137109, Note_off_c, 5, 41, 127
2, 137110, Note_on_c, 4, 40, 127
2, 137214, Note_off_c, 4, 40, 127
2, 137215, Note_on_c, 2, 38, 127
2, 137319, Note_off_c, 2, 38, 127
2, 137319, Note_off_c, 7, 67, 127
2, 137320, Note_on_c, 1, 37, 127
2, 137425, Note_on_c, 11, 70, 127
2, 137529, Note_off_c, 11, 70, 127
2, 137529, Note_off_c, 1, 37, 127
2, 137530, Note_on_c, 2, 38, 127
2, 137530, Note_on_c, 10, 69, 127
2, 137634, Note_off_c, 10, 69, 127
2, 137635, Note_on_c, 7, 67, 127
2, 137739, Note_off_c, 7, 67, 127
2, 137739, Note_off_c, 2, 38, 127
2, 137740, Note_on_c, 4, 40, 127
2, 137740, Note_on_c, 5, 65, 127
2, 137844, Note_off_c, 5, 65, 127
2, 137845, Note_on_c, 4, 64, 127
2, 137949, Note_off_c, 4, 64, 127
2, 137949, Note_off_c, 4, 40, 127
2, 137950, Note_on_c, 2, 38, 127
2, 137950, Note_on_c, 5, 65, 127
2, 138054, Note_off_c, 5, 65, 127
2, 138055, Note_on_c, 10, 69, 127
2, 138159, Note_off_c, 10, 69, 127
2, 138159, Note_off_c, 2, 38, 127
2, 138160, Note_on_c, 4, 40, 127
2, 138160, Note_on_c, 7, 67, 127
2, 138264, Note_off_c, 7, 67, 127
2, 138265, Note_on_c, 5, 65, 127
2, 138369, Note_off_c, 5, 65, 127
2, 138369, Note_off_c, 4, 40, 127
2, 138370, Note_on_c, 5, 41, 127
2, 138370, Note_on_c, 4, 64, 127
2, 138474, Note_off_c, 4, 64, 127
2, 138475, Note_on_c, 2, 62, 127
2, 138579, Note_off_c, 2, 62, 127
2, 138579, Note_off_c, 5, 41, 127
2, 138580, Note_on_c, 4, 40, 127
2, 138580, Note_on_c, 1, 61, 127
2, 138685, Note_on_c, 2, 62, 127
2, 138700, Note_off_c, 1, 61, 127
2, 138789, Note_off_c, 2, 62, 127
2, 138789, Note_off_c, 4, 40, 127
2, 138790, Note_on_c, 5, 41, 127
2, 138790, Note_on_c, 4, 64, 127
2, 138894, Note_off_c, 4, 64, 127
2, 138895, Note_on_c, 10, 69, 127
2, 138999, Note_off_c, 10, 69, 127
2, 138999, Note_off_c, 5, 41, 127
2, 139000, Note_on_c, 7, 43, 127
2, 139000, Note_on_c, 1, 61, 127
2, 139104, Note_off_c, 1, 61, 127
2, 139105, Note_on_c, 4, 64, 127
2, 139209, Note_off_c, 4, 64, 127
2, 139209, Note_off_c, 7, 43, 127
2, 139210, Note_on_c, 5, 41, 127
2, 139210, Note_on_c, 2, 62, 127
2, 139315, Note_on_c, 4, 64, 127
2, 139330, Note_off_c, 2, 62, 127
2, 139419, Note_off_c, 4, 64, 127
2, 139419, Note_off_c, 5, 41, 127
2, 139420, Note_on_c, 7, 43, 127
2, 139420, Note_on_c, 5, 65, 127
2, 139524, Note_off_c, 5, 65, 127
2, 139525, Note_on_c, 11, 70, 127
2, 139629, Note_off_c, 11, 70, 127
2, 139629, Note_off_c, 7, 43, 127
2, 139630, Note_on_c, 10, 45, 127
2, 139630, Note_on_c, 2, 62, 127
2, 139734, Note_off_c, 2, 62, 127
2, 139735, Note_on_c, 5, 65, 127
2, 139839, Note_off_c, 5, 65, 127
2, 139839, Note_off_c, 10, 45, 127
2, 139840, Note_on_c, 7, 43, 127
2, 139840, Note_on_c, 4, 64, 127
2, 139945, Note_on_c, 5, 65, 127
2, 139960, Note_off_c, 4, 64, 127
2, 140049, Note_off_c, 5, 65, 127
2, 140049, Note_off_c, 7, 43, 127
2, 140050, Note_on_c, 10, 45, 127
2, 140050, Note_on_c, 7, 67, 127
2, 140154, Note_off_c, 7, 67, 127
2, 140155, Note_on_c, 0, 72, 127
2, 140259, Note_off_c, 0, 72, 127
2, 140259, Note_off_c, 10, 45, 127
2, 140260, Note_on_c, 11, 46, 127
2, 140260, Note_on_c, 4, 64, 127
2, 140364, Note_off_c, 4, 64, 127
2, 140365, Note_on_c, 7, 67, 127
2, 140469, Note_off_c, 7, 67, 127
2, 140469, Note_off_c, 11, 46, 127
2, 140470, Note_on_c, 10, 45, 127
2, 140470, Note_on_c, 5, 65, 127
2, 140575, Note_on_c, 7, 67, 127
2, 140590, Note_off_c, 5, 65, 127
2, 140679, Note_off_c, 7, 67, 127
2, 140679, Note_off_c, 10, 45, 127
2, 140680, Note_on_c, 12, 47, 127
2, 140680, Note_on_c, 10, 69, 127
2, 140784, Note_off_c, 10, 69, 127
2, 140785, Note_on_c, 2, 74, 127
2, 140889, Note_off_c, 2, 74, 127
2, 140889, Note_off_c, 12, 47, 127
2, 140890, Note_on_c, 0, 48, 127
2, 140890, Note_on_c, 6, 66, 127
2, 140994, Note_off_c, 6, 66, 127
2, 140995, Note_on_c, 10, 69, 127
2, 141099, Note_off_c, 10, 69, 127
2, 141099, Note_off_c, 0, 48, 127
2, 141100, Note_on_c, 12, 47, 127
2, 141100, Note_on_c, 7, 67, 127
2, 141205, Note_on_c, 10, 69, 127
2, 141220, Note_off_c, 7, 67, 127
2, 141309, Note_off_c, 10, 69, 127
2, 141309, Note_off_c, 12, 47, 127
2, 141310, Note_on_c, 1, 49, 127
2, 141310, Note_on_c, 12, 71, 127
2, 141414, Note_off_c, 12, 71, 127
2, 141415, Note_on_c, 4, 76, 127
2, 141519, Note_off_c, 4, 76, 127
2, 141519, Note_off_c, 1, 49, 127
2, 141520, Note_on_c, 2, 50, 127
2, 141520, Note_on_c, 8, 68, 127
2, 141624, Note_off_c, 8, 68, 127
2, 141625, Note_on_c, 12, 71, 127
2, 141729, Note_off_c, 12, 71, 127
2, 141729, Note_off_c, 2, 50, 127
2, 141730, Note_on_c, 1, 49, 127
2, 141730, Note_on_c, 10, 69, 127
2, 141834, Note_off_c, 10, 69, 127
2, 141834, Note_off_c, 1, 49, 127
2, 141835, Note_on_c, 5, 53, 127
2, 141835, Note_on_c, 12, 71, 127
2, 141939, Note_off_c, 12, 71, 127
2, 141939, Note_off_c, 5, 53, 127
2, 141940, Note_on_c, 4, 52, 127
2, 141940, Note_on_c, 1, 73, 127
2, 142044, Note_off_c, 1, 73, 127
2, 142044, Note_off_c, 4, 52, 127
2, 142045, Note_on_c, 2, 50, 127
2, 142045, Note_on_c, 2, 74, 127
2, 142149, Note_off_c, 2, 74, 127
2, 142149, Note_off_c, 2, 50, 127
2, 142150, Note_on_c, 1, 49, 127
2, 142150, Note_on_c, 4, 76, 127
2, 142254, Note_off_c, 4, 76, 127
2, 142254, Note_off_c, 1, 49, 127
2, 142255, Note_on_c, 12, 47, 127
2, 142255, Note_on_c, 5, 77, 127
2, 142359, Note_off_c, 5, 77, 127
2, 142359, Note_off_c, 12, 47, 127
2, 142360, Note_on_c, 10, 45, 127
2, 142360, Note_on_c, 7, 79, 127
2, 142466, Note_on_c, 4, 76, 127
2, 142571, Note_off_c, 4, 76, 127
2, 142571, Note_off_c, 10, 45, 127
2, 142572, Note_on_c, 10, 57, 127
2, 142572, Note_on_c, 1, 73, 127
2, 142660, Note_off_c, 7, 79, 127
2, 142677, Note_off_c, 1, 73, 127
2, 142678, Note_on_c, 10, 69, 127
2, 142783, Note_off_c, 10, 69, 127
2, 142783, Note_off_c, 10, 57, 127
2, 142784, Note_on_c, 10, 45, 127
2, 142784, Note_on_c, 1, 73, 127
2, 142889, Note_off_c, 1, 73, 127
2, 142890, Note_on_c, 4, 76, 127
2, 142995, Note_off_c, 4, 76, 127
2, 142995, Note_off_c, 10, 45, 127
2, 142996, Note_on_c, 10, 45, 127
2, 142996, Note_on_c, 5, 77, 127
2, 143102, Note_on_c, 2, 74, 127
2, 143207, Note_off_c, 2, 74, 127
2, 143207, Note_off_c, 10, 45, 127
2, 143208, Note_on_c, 10, 57, 127
2, 143208, Note_on_c, 12, 71, 127
2, 143296, Note_off_c, 5, 77, 127
2, 143313, Note_off_c, 12, 71, 127
2, 143314, Note_on_c, 8, 68, 127
2, 143419, Note_off_c, 8, 68, 127
2, 143419, Note_off_c, 10, 57, 127
2, 143420, Note_on_c, 10, 45, 127
2, 143420, Note_on_c, 12, 71, 127
2, 143525, Note_off_c, 12, 71, 127
2, 143526, Note_on_c, 2, 74, 127
2, 143631, Note_off_c, 2, 74, 127
2, 143631, Note_off_c, 10, 45, 127
2, 143632, Note_on_c, 10, 45, 127
2, 143632, Note_on_c, 4, 76, 127
2, 143738, Note_on_c, 1, 73, 127
2, 143832, Note_off_c, 4, 76, 127
2, 143843, Note_off_c, 1, 73, 127
2, 143843, Note_off_c, 10, 45, 127
2, 143844, Note_on_c, 10, 57, 127
2, 143844, Note_on_c, 11, 70, 127
2, 143949, Note_off_c, 11, 70, 127
2, 143950, Note_on_c, 7, 67, 127
2, 144055, Note_off_c, 7, 67, 127
2, 144055, Note_off_c, 10, 57, 127
2, 144056, Note_on_c, 10, 45, 127
2, 144056, Note_on_c, 11, 70, 127
2, 144161, Note_off_c, 11, 70, 127
2, 144162, Note_on_c, 1, 73, 127
2, 144267, Note_off_c, 1, 73, 127
2, 144267, Note_off_c, 10, 45, 127
2, 144268, Note_on_c, 10, 45, 127
2, 144268, Note_on_c, 2, 74, 127
2, 144373, Note_off_c, 2, 74, 127
2, 144374, Note_on_c, 12, 71, 127
2, 144479, Note_off_c, 12, 71, 127
2, 144479, Note_off_c, 10, 45, 127
2, 144480, Note_on_c, 10, 57, 127
2, 144480, Note_on_c, 8, 68, 127
2, 144585, Note_off_c, 8, 68, 127
2, 144586, Note_on_c, 5, 65, 127
2, 144691, Note_off_c, 5, 65, 127
2, 144691, Note_off_c, 10, 57, 127
2, 144692, Note_on_c, 10, 45, 127
2, 144692, Note_on_c, 8, 68, 127
2, 144797, Note_off_c, 8, 68, 127
2, 144798, Note_on_c, 12, 71, 127
2, 144903, Note_off_c, 12, 71, 127
2, 144903, Note_off_c, 10, 45, 127
2, 144904, Note_on_c, 10, 45, 127
2, 144904, Note_on_c, 1, 73, 127
2, 145010, Note_on_c, 11, 70, 127
2, 145054, Note_off_c, 1, 73, 127
2, 145115, Note_off_c, 11, 70, 127
2, 145115, Note_off_c, 10, 45, 127
2, 145116, Note_on_c, 10, 57, 127
2, 145116, Note_on_c, 7, 67, 127
2, 145221, Note_off_c, 7, 67, 127
2, 145222, Note_on_c, 4, 64, 127
2, 145327, Note_off_c, 4, 64, 127
2, 145327, Note_off_c, 10, 57, 127
2, 145328, Note_on_c, 10, 45, 127
2, 145328, Note_on_c, 7, 67, 127
2, 145433, Note_off_c, 7, 67, 127
2, 145434, Note_on_c, 11, 70, 127
2, 145539, Note_off_c, 11, 70, 127
2, 145539, Note_off_c, 10, 45, 127
2, 145540, Note_on_c, 7, 43, 127
2, 145540, Note_on_c, 1, 73, 127
2, 145645, Note_off_c, 1, 73, 127
2, 145646, Note_on_c, 4, 76, 127
2, 145751, Note_off_c, 4, 76, 127
2, 145751, Note_off_c, 7, 43, 127
2, 145752, Note_on_c, 7, 55, 127
2, 145752, Note_on_c, 2, 74, 127
2, 145857, Note_off_c, 2, 74, 127
2, 145858, Note_on_c, 1, 73, 127
2, 145963, Note_off_c, 1, 73, 127
2, 145963, Note_off_c, 7, 55, 127
2, 145964, Note_on_c, 7, 43, 127
2, 145964, Note_on_c, 12, 71, 127
2, 146069, Note_off_c, 12, 71, 127
2, 146070, Note_on_c, 10, 69, 127
2, 146175, Note_off_c, 10, 69, 127
2, 146175, Note_off_c, 7, 43, 127
2, 146176, Note_on_c, 5, 41, 127
2, 146176, Note_on_c, 2, 74, 127
2, 146282, Note_off_c, 5, 41, 127
2, 146283, Note_on_c, 1, 49, 127
2, 146389, Note_off_c, 1, 49, 127
2, 146390, Note_on_c, 2, 50, 127
2, 146390, Note_on_c, 10, 69, 127
2, 146496, Note_off_c, 2, 50, 127
2, 146497, Note_on_c, 5, 53, 127
2, 146576, Note_off_c, 2, 74, 127
2, 146603, Note_off_c, 5, 53, 127
2, 146603, Note_off_c, 10, 69, 127
2, 146604, Note_on_c, 1, 49, 127
2, 146604, Note_on_c, 5, 65, 127
2, 146710, Note_off_c, 1, 49, 127
2, 146711, Note_on_c, 2, 50, 127
2, 146817, Note_off_c, 2, 50, 127
2, 146817, Note_off_c, 5, 65, 127
2, 146818, Note_on_c, 7, 43, 127
2, 146818, Note_on_c, 2, 62, 127
2, 146924, Note_off_c, 7, 43, 127
2, 146925, Note_on_c, 1, 49, 127
2, 147031, Note_off_c, 1, 49, 127
2, 147032, Note_on_c, 2, 50, 127
2, 147032, Note_on_c, 10, 69, 127
2, 147138, Note_off_c, 2, 50, 127
2, 147139, Note_on_c, 5, 53, 127
2, 147218, Note_off_c, 2, 62, 127
2, 147245, Note_off_c, 5, 53, 127
2, 147245, Note_off_c, 10, 69, 127
2, 147246, Note_on_c, 1, 49, 127
2, 147246, Note_on_c, 5, 65, 127
2, 147352, Note_off_c, 1, 49, 127
2, 147353, Note_on_c, 2, 50, 127
2, 147459, Note_off_c, 2, 50, 127
2, 147459, Note_off_c, 5, 65, 127
2, 147460, Note_on_c, 10, 45, 127
2, 147460, Note_on_c, 2, 62, 127
2, 147566, Note_off_c, 10, 45, 127
2, 147567, Note_on_c, 1, 49, 127
2, 147673, Note_off_c, 1, 49, 127
2, 147674, Note_on_c, 2, 50, 127
2, 147674, Note_on_c, 10, 69, 127
2, 147780, Note_off_c, 2, 50, 127
2, 147781, Note_on_c, 5, 53, 127
2, 147860, Note_off_c, 2, 62, 127
2, 147887, Note_off_c, 5, 53, 127
2, 147887, Note_off_c, 10, 69, 127
2, 147888, Note_on_c, 1, 49, 127
2, 147888, Note_on_c, 5, 65, 127
2, 147994, Note_off_c, 1, 49, 127
2, 147995, Note_on_c, 2, 50, 127
2, 148101, Note_off_c, 2, 50, 127
2, 148101, Note_off_c, 5, 65, 127
2, 148102, Note_on_c, 11, 46, 127
2, 148102, Note_on_c, 2, 62, 127
2, 148208, Note_off_c, 11, 46, 127
2, 148209, Note_on_c, 1, 49, 127
2, 148315, Note_off_c, 1, 49, 127
2, 148316, Note_on_c, 2, 50, 127
2, 148316, Note_on_c, 10, 69, 127
2, 148422, Note_off_c, 2, 50, 127
2, 148423, Note_on_c, 5, 53, 127
2, 148502, Note_off_c, 2, 62, 127
2, 148529, Note_off_c, 5, 53, 127
2, 148529, Note_off_c, 10, 69, 127
2, 148530, Note_on_c, 1, 49, 127
2, 148530, Note_on_c, 5, 65, 127
2, 148636, Note_off_c, 1, 49, 127
2, 148637, Note_on_c, 2, 50, 127
2, 148743, Note_off_c, 2, 50, 127
2, 148743, Note_off_c, 5, 65, 127
2, 148744, Note_on_c, 12, 47, 127
2, 148744, Note_on_c, 2, 62, 127
2, 148850, Note_off_c, 12, 47, 127
2, 148851, Note_on_c, 1, 49, 127
2, 148957, Note_off_c, 1, 49, 127
2, 148958, Note_on_c, 2, 50, 127
2, 148958, Note_on_c, 8, 68, 127
2, 149064, Note_off_c, 2, 50, 127
2, 149065, Note_on_c, 5, 53, 127
2, 149144, Note_off_c, 2, 62, 127
2, 149171, Note_off_c, 5, 53, 127
2, 149171, Note_off_c, 8, 68, 127
2, 149172, Note_on_c, 1, 49, 127
2, 149172, Note_on_c, 5, 65, 127
2, 149278, Note_off_c, 1, 49, 127
2, 149279, Note_on_c, 2, 50, 127
2, 149385, Note_off_c, 2, 50, 127
2, 149385, Note_off_c, 5, 65, 127
2, 149386, Note_on_c, 10, 45, 127
2, 149386, Note_on_c, 2, 62, 127
2, 149492, Note_off_c, 10, 45, 127
2, 149493, Note_on_c, 1, 49, 127
2, 149599, Note_off_c, 1, 49, 127
2, 149599, Note_off_c, 2, 62, 127
2, 149600, Note_on_c, 2, 50, 127
2, 149600, Note_on_c, 10, 69, 127
2, 149706, Note_off_c, 2, 50, 127
2, 149707, Note_on_c, 5, 53, 127
2, 149813, Note_off_c, 5, 53, 127
2, 149813, Note_off_c, 10, 69, 127
2, 149814, Note_on_c, 1, 49, 127
2, 149814, Note_on_c, 5, 65, 127
2, 149920, Note_off_c, 1, 49, 127
2, 149921, Note_on_c, 2, 50, 127
2, 150027, Note_off_c, 2, 50, 127
2, 150027, Note_off_c, 5, 65, 127
2, 150028, Note_on_c, 8, 44, 127
2, 150028, Note_on_c, 2, 62, 127
2, 150134, Note_off_c, 2, 62, 127
2, 150135, Note_on_c, 4, 64, 127
2, 150241, Note_off_c, 4, 64, 127
2, 150242, Note_on_c, 5, 65, 127
2, 150348, Note_off_c, 5, 65, 127
2, 150349, Note_on_c, 12, 71, 127
2, 150455, Note_off_c, 12, 71, 127
2, 150456, Note_on_c, 5, 65, 127
2, 150562, Note_off_c, 5, 65, 127
2, 150563, Note_on_c, 4, 64, 127
2, 150669, Note_off_c, 4, 64, 127
2, 150669, Note_off_c, 8, 44, 127
2, 150670, Note_on_c, 2, 62, 127
2, 150776, Note_off_c, 2, 62, 127
2, 150777, Note_on_c, 4, 64, 127
2, 150883, Note_off_c, 4, 64, 127
2, 150884, Note_on_c, 5, 65, 127
2, 150990, Note_off_c, 5, 65, 127
2, 150991, Note_on_c, 12, 71, 127
2, 151097, Note_off_c, 12, 71, 127
2, 151098, Note_on_c, 4, 64, 127
2, 151204, Note_off_c, 4, 64, 127
2, 151205, Note_on_c, 2, 62, 127
2, 151311, Note_off_c, 2, 62, 127
2, 151312, Note_on_c, 7, 43, 127
2, 151312, Note_on_c, 1, 61, 127
2, 151418, Note_off_c, 1, 61, 127
2, 151419, Note_on_c, 4, 64, 127
2, 151525, Note_off_c, 4, 64, 127
2, 151526, Note_on_c, 7, 67, 127
2, 151632, Note_off_c, 7, 67, 127
2, 151633, Note_on_c, 11, 70, 127
2, 151739, Note_off_c, 11, 70, 127
2, 151740, Note_on_c, 10, 69, 127
2, 151812, Note_off_c, 7, 43, 127
2, 151846, Note_off_c, 10, 69, 127
2, 151847, Note_on_c, 7, 67, 127
2, 151953, Note_off_c, 7, 67, 127
2, 151954, Note_on_c, 5, 41, 127
2, 151954, Note_on_c, 10, 69, 127
2, 152060, Note_off_c, 10, 69, 127
2, 152060, Note_off_c, 5, 41, 127
2, 152061, Note_on_c, 10, 45, 127
2, 152061, Note_on_c, 7, 67, 127
2, 152167, Note_off_c, 7, 67, 127
2, 152167, Note_off_c, 10, 45, 127
2, 152168, Note_on_c, 12, 47, 127
2, 152168, Note_on_c, 5, 65, 127
2, 152274, Note_off_c, 5, 65, 127
2, 152274, Note_off_c, 12, 47, 127
2, 152275, Note_on_c, 1, 49, 127
2, 152275, Note_on_c, 4, 64, 127
2, 152381, Note_off_c, 4, 64, 127
2, 152381, Note_off_c, 1, 49, 127
2, 152382, Note_on_c, 2, 50, 127
2, 152382, Note_on_c, 2, 62, 127
2, 152488, Note_off_c, 2, 62, 127
2, 152488, Note_off_c, 2, 50, 127
2, 152489, Note_on_c, 4, 52, 127
2, 152489, Note_on_c, 0, 60, 127
2, 152595, Note_off_c, 0, 60, 127
2, 152595, Note_off_c, 4, 52, 127
2, 152596, Note_on_c, 5, 53, 127
2, 152596, Note_on_c, 12, 59, 127
2, 152702, Note_off_c, 12, 59, 127
2, 152703, Note_on_c, 10, 57, 127
2, 152809, Note_off_c, 10, 57, 127
2, 152809, Note_off_c, 5, 53, 127
2, 152810, Note_on_c, 4, 52, 127
2, 152810, Note_on_c, 12, 59, 127
2, 152916, Note_off_c, 12, 59, 127
2, 152917, Note_on_c, 1, 61, 127
2, 153023, Note_off_c, 1, 61, 127
2, 153023, Note_off_c, 4, 52, 127
2, 153024, Note_on_c, 2, 50, 127
2, 153024, Note_on_c, 2, 62, 127
2, 153130, Note_off_c, 2, 62, 127
2, 153131, Note_on_c, 4, 64, 127
2, 153237, Note_off_c, 4, 64, 127
2, 153237, Note_off_c, 2, 50, 127
2, 153238, Note_on_c, 4, 52, 127
2, 153238, Note_on_c, 1, 61, 127
2, 153344, Note_off_c, 1, 61, 127
2, 153345, Note_on_c, 12, 59, 127
2, 153451, Note_off_c, 12, 59, 127
2, 153451, Note_off_c, 4, 52, 127
2, 153452, Note_on_c, 2, 50, 127
2, 153452, Note_on_c, 1, 61, 127
2, 153558, Note_off_c, 1, 61, 127
2, 153559, Note_on_c, 2, 62, 127
2, 153665, Note_off_c, 2, 62, 127
2, 153665, Note_off_c, 2, 50, 127
2, 153666, Note_on_c, 1, 49, 127
2, 153666, Note_on_c, 4, 64, 127
2, 153772, Note_off_c, 4, 64, 127
2, 153773, Note_on_c, 7, 55, 127
2, 153879, Note_off_c, 7, 55, 127
2, 153879, Note_off_c, 1, 49, 127
2, 153880, Note_on_c, 2, 50, 127
2, 153880, Note_on_c, 5, 53, 127
2, 153986, Note_on_c, 10, 69, 127
2, 154091, Note_off_c, 10, 69, 127
2, 154092, Note_on_c, 12, 71, 127
2, 154197, Note_off_c, 12, 71, 127
2, 154198, Note_on_c, 1, 73, 127
2, 154303, Note_off_c, 1, 73, 127
2, 154303, Note_off_c, 5, 53, 127
2, 154303, Note_off_c, 2, 50, 127
2, 154304, Note_on_c, 0, 48, 127
2, 154304, Note_on_c, 4, 52, 127
2, 154304, Note_on_c, 2, 74, 127
2, 154409, Note_off_c, 2, 74, 127
2, 154410, Note_on_c, 4, 76, 127
2, 154515, Note_off_c, 4, 76, 127
2, 154515, Note_off_c, 4, 52, 127
2, 154515, Note_off_c, 0, 48, 127
2, 154516, Note_on_c, 2, 50, 127
2, 154516, Note_on_c, 11, 46, 127
2, 154516, Note_on_c, 5, 77, 127
2, 154727, Note_off_c, 5, 77, 127
2, 154727, Note_off_c, 2, 50, 127
2, 154728, Note_on_c, 4, 52, 127
2, 154728, Note_on_c, 4, 76, 127
2, 154935, Note_off_c, 11, 46, 127
2, 154938, Note_off_c, 4, 76, 127
2, 154938, Note_off_c, 4, 52, 127
2, 154939, Note_on_c, 5, 53, 127
2, 154939, Note_on_c, 10, 45, 127
2, 154939, Note_on_c, 2, 74, 127
2, 155150, Note_off_c, 2, 74, 127
2, 155150, Note_off_c, 10, 45, 127
2, 155150, Note_off_c, 5, 53, 127
2, 155151, Note_on_c, 7, 55, 127
2, 155151, Note_on_c, 7, 43, 127
2, 155151, Note_on_c, 4, 76, 127
2, 155362, Note_off_c, 4, 76, 127
2, 155362, Note_off_c, 7, 55, 127
2, 155363, Note_on_c, 5, 53, 127
2, 155363, Note_on_c, 5, 77, 127
2, 155468, Note_off_c, 5, 77, 127
2, 155469, Note_on_c, 4, 76, 127
2, 155570, Note_off_c, 7, 43, 127
2, 155573, Note_off_c, 4, 76, 127
2, 155573, Note_off_c, 5, 53, 127
2, 155574, Note_on_c, 4, 52, 127
2, 155574, Note_on_c, 10, 45, 127
2, 155574, Note_on_c, 2, 74, 127
2, 155679, Note_off_c, 2, 74, 127
2, 155680, Note_on_c, 1, 73, 127
2, 155785, Note_off_c, 1, 73, 127
2, 155785, Note_off_c, 10, 45, 127
2, 155785, Note_off_c, 4, 52, 127
2, 155786, Note_on_c, 5, 41, 127
2, 155786, Note_on_c, 2, 50, 127
2, 155786, Note_on_c, 10, 81, 127
2, 155891, Note_off_c, 10, 81, 127
2, 155892, Note_on_c, 7, 79, 127
2, 155997, Note_off_c, 7, 79, 127
2, 155998, Note_on_c, 5, 77, 127
2, 156103, Note_off_c, 5, 77, 127
2, 156104, Note_on_c, 4, 76, 127
2, 156209, Note_off_c, 4, 76, 127
2, 156210, Note_on_c, 2, 74, 127
2, 156315, Note_off_c, 2, 74, 127
2, 156316, Note_on_c, 1, 73, 127
2, 156421, Note_off_c, 1, 73, 127
2, 156421, Note_off_c, 2, 50, 127
2, 156421, Note_off_c, 5, 41, 127
2, 156422, Note_on_c, 2, 74, 127
2, 156527, Note_off_c, 2, 74, 127
2, 156528, Note_on_c, 4, 76, 127
2, 156633, Note_off_c, 4, 76, 127
2, 156634, Note_on_c, 2, 74, 127
2, 156739, Note_off_c, 2, 74, 127
2, 156740, Note_on_c, 4, 76, 127
2, 156845, Note_off_c, 4, 76, 127
2, 156846, Note_on_c, 2, 50, 127
2, 156846, Note_on_c, 7, 43, 127
2, 156846, Note_on_c, 5, 77, 127
2, 156846, Note_on_c, 11, 70, 127
2, 156951, Note_off_c, 2, 50, 127
2, 156952, Note_on_c, 4, 52, 127
2, 157056, Note_off_c, 7, 43, 127
2, 157057, Note_off_c, 4, 52, 127
2, 157057, Note_off_c, 11, 70, 127
2, 157057, Note_off_c, 5, 77, 127
2, 157058, Note_on_c, 5, 53, 127
2, 157058, Note_on_c, 10, 45, 127
2, 157058, Note_on_c, 10, 69, 127
2, 157270, Note_on_c, 2, 74, 127
2, 157477, Note_off_c, 10, 69, 127
2, 157480, Note_off_c, 2, 74, 127
2, 157480, Note_off_c, 10, 45, 127
2, 157480, Note_off_c, 5, 53, 127
2, 157481, Note_on_c, 4, 52, 127
2, 157481, Note_on_c, 10, 45, 127
2, 157481, Note_on_c, 7, 67, 127
2, 157481, Note_on_c, 1, 73, 127
2, 157692, Note_off_c, 1, 73, 127
2, 157692, Note_off_c, 7, 67, 127
2, 157692, Note_off_c, 10, 45, 127
2, 157692, Note_off_c, 4, 52, 127
2, 157693, Note_on_c, 2, 38, 127
2, 157693, Note_on_c, 2, 50, 127
2, 157693, Note_on_c, 2, 74, 127
2, 157693, Note_on_c, 5, 65, 127
2, 157904, Note_off_c, 2, 74, 127
2, 157905, Note_on_c, 10, 69, 127
2, 158112, Note_off_c, 5, 65, 127
2, 158115, Note_off_c, 10, 69, 127
2, 158116, Note_on_c, 10, 69, 127
2, 158327, Note_off_c, 10, 69, 127
2, 158327, Note_off_c, 2, 50, 127
2, 158327, Note_off_c, 2, 38, 127
2, 158328, Note_on_c, 10, 69, 127
2, 158539, Note_off_c, 10, 69, 127
2, 158540, Note_on_c, 10, 69, 127
2, 158751, Note_off_c, 10, 69, 127
2, 158752, Note_on_c, 2, 62, 127
2, 158752, Note_on_c, 5, 65, 127
2, 158752, Note_on_c, 10, 69, 127
2, 158963, Note_off_c, 10, 69, 127
2, 158963, Note_off_c, 5, 65, 127
2, 158963, Note_off_c, 2, 62, 127
2, 158964, Note_on_c, 11, 58, 127
2, 158964, Note_on_c, 11, 70, 127
2, 158964, Note_on_c, 7, 67, 127
2, 159069, Note_off_c, 11, 70, 127
2, 159070, Note_on_c, 0, 72, 127
2, 159175, Note_off_c, 0, 72, 127
2, 159175, Note_off_c, 11, 58, 127
2, 159176, Note_on_c, 10, 57, 127
2, 159176, Note_on_c, 2, 74, 127
2, 159281, Note_off_c, 2, 74, 127
2, 159282, Note_on_c, 11, 70, 127
2, 159383, Note_off_c, 7, 67, 127
2, 159386, Note_off_c, 11, 70, 127
2, 159386, Note_off_c, 10, 57, 127
2, 159387, Note_on_c, 7, 55, 127
2, 159387, Note_on_c, 5, 65, 127
2, 159387, Note_on_c, 0, 72, 127
2, 159492, Note_off_c, 0, 72, 127
2, 159493, Note_on_c, 2, 74, 127
2, 159597, Note_off_c, 5, 65, 127
2, 159598, Note_off_c, 2, 74, 127
2, 159598, Note_off_c, 7, 55, 127
2, 159599, Note_on_c, 0, 60, 127
2, 159599, Note_on_c, 4, 64, 127
2, 159599, Note_on_c, 7, 67, 127
2, 159810, Note_off_c, 7, 67, 127
2, 159811, Note_on_c, 7, 67, 127
2, 160022, Note_off_c, 7, 67, 127
2, 160023, Note_on_c, 7, 67, 127
2, 160234, Note_off_c, 7, 67, 127
2, 160234, Note_off_c, 4, 64, 127
2, 160234, Note_off_c, 0, 60, 127
2, 160235, Note_on_c, 7, 67, 127
2, 160446, Note_off_c, 7, 67, 127
2, 160447, Note_on_c, 7, 67, 127
2, 160658, Note_off_c, 7, 67, 127
2, 160659, Note_on_c, 11, 58, 127
2, 160659, Note_on_c, 7, 67, 127
2, 160659, Note_on_c, 4, 64, 127
2, 160870, Note_off_c, 4, 64, 127
2, 160870, Note_off_c, 7, 67, 127
2, 160870, Note_off_c, 11, 58, 127
2, 160871, Note_on_c, 10, 57, 127
2, 160871, Note_on_c, 5, 65, 127
2, 160871, Note_on_c, 10, 69, 127
2, 160976, Note_off_c, 10, 69, 127
2, 160977, Note_on_c, 11, 70, 127
2, 161082, Note_off_c, 11, 70, 127
2, 161082, Note_off_c, 10, 57, 127
2, 161083, Note_on_c, 7, 55, 127
2, 161083, Note_on_c, 0, 72, 127
2, 161188, Note_off_c, 0, 72, 127
2, 161189, Note_on_c, 10, 69, 127
2, 161290, Note_off_c, 5, 65, 127
2, 161293, Note_off_c, 10, 69, 127
2, 161293, Note_off_c, 7, 55, 127
2, 161294, Note_on_c, 5, 53, 127
2, 161294, Note_on_c, 4, 64, 127
2, 161294, Note_on_c, 11, 70, 127
2, 161399, Note_off_c, 11, 70, 127
2, 161400, Note_on_c, 0, 72, 127
2, 161504, Note_off_c, 4, 64, 127
2, 161505, Note_off_c, 0, 72, 127
2, 161505, Note_off_c, 5, 53, 127
2, 161506, Note_on_c, 11, 58, 127
2, 161506, Note_on_c, 2, 62, 127
2, 161506, Note_on_c, 5, 65, 127
2, 161611, Note_off_c, 5, 65, 127
2, 161612, Note_on_c, 7, 67, 127
2, 161717, Note_off_c, 7, 67, 127
2, 161718, Note_on_c, 10, 69, 127
2, 161823, Note_off_c, 10, 69, 127
2, 161824, Note_on_c, 5, 65, 127
2, 161929, Note_off_c, 5, 65, 127
2, 161929, Note_off_c, 11, 58, 127
2, 161930, Note_on_c, 10, 57, 127
2, 161930, Note_on_c, 7, 67, 127
2, 162035, Note_off_c, 7, 67, 127
2, 162036, Note_on_c, 10, 69, 127
2, 162141, Note_off_c, 10, 69, 127
2, 162141, Note_off_c, 10, 57, 127
2, 162142, Note_on_c, 7, 55, 127
2, 162142, Note_on_c, 11, 70, 127
2, 162247, Note_off_c, 11, 70, 127
2, 162248, Note_on_c, 0, 72, 127
2, 162353, Note_off_c, 0, 72, 127
2, 162354, Note_on_c, 2, 74, 127
2, 162459, Note_off_c, 2, 74, 127
2, 162460, Note_on_c, 11, 70, 127
2, 162565, Note_off_c, 11, 70, 127
2, 162565, Note_off_c, 7, 55, 127
2, 162566, Note_off_c, 2, 62, 127
2, 162566, Note_on_c, 10, 57, 127
2, 162566, Note_on_c, 0, 60, 127
2, 162566, Note_on_c, 0, 72, 127
2, 162671, Note_off_c, 0, 72, 127
2, 162672, Note_on_c, 2, 74, 127
2, 162777, Note_off_c, 2, 74, 127
2, 162777, Note_off_c, 0, 60, 127
2, 162777, Note_off_c, 10, 57, 127
2, 162778, Note_on_c, 11, 58, 127
2, 162778, Note_on_c, 7, 55, 127
2, 162778, Note_on_c, 4, 76, 127
2, 162883, Note_off_c, 4, 76, 127
2, 162884, Note_on_c, 5, 77, 127
2, 162989, Note_off_c, 5, 77, 127
2, 162990, Note_on_c, 7, 79, 127
2, 163095, Note_off_c, 7, 79, 127
2, 163096, Note_on_c, 4, 76, 127
2, 163201, Note_off_c, 4, 76, 127
2, 163201, Note_off_c, 7, 55, 127
2, 163202, Note_on_c, 5, 53, 127
2, 163202, Note_on_c, 5, 77, 127
2, 163307, Note_off_c, 5, 77, 127
2, 163308, Note_on_c, 7, 79, 127
2, 163413, Note_off_c, 7, 79, 127
2, 163413, Note_off_c, 5, 53, 127
2, 163414, Note_on_c, 4, 52, 127
2, 163414, Note_on_c, 0, 72, 127
2, 163518, Note_off_c, 11, 58, 127
2, 163520, Note_on_c, 11, 58, 127
2, 163625, Note_off_c, 11, 58, 127
2, 163626, Note_on_c, 10, 57, 127
2, 163731, Note_off_c, 10, 57, 127
2, 163732, Note_on_c, 7, 55, 127
2, 163837, Note_off_c, 7, 55, 127
2, 163838, Note_on_c, 5, 53, 127
2, 163943, Note_off_c, 5, 53, 127
2, 163944, Note_on_c, 7, 55, 127
2, 164049, Note_off_c, 7, 55, 127
2, 164049, Note_off_c, 4, 52, 127
2, 164050, Note_on_c, 5, 53, 127
2, 164050, Note_on_c, 10, 57, 127
2, 164155, Note_off_c, 0, 72, 127
2, 164156, Note_on_c, 0, 72, 127
2, 164261, Note_off_c, 0, 72, 127
2, 164262, Note_on_c, 2, 74, 127
2, 164367, Note_off_c, 2, 74, 127
2, 164368, Note_on_c, 4, 76, 127
2, 164473, Note_off_c, 4, 76, 127
2, 164473, Note_off_c, 5, 53, 127
2, 164474, Note_on_c, 4, 52, 127
2, 164474, Note_on_c, 2, 74, 127
2, 164579, Note_off_c, 2, 74, 127
2, 164580, Note_on_c, 0, 72, 127
2, 164685, Note_off_c, 0, 72, 127
2, 164685, Note_off_c, 4, 52, 127
2, 164686, Note_on_c, 2, 50, 127
2, 164686, Note_on_c, 12, 71, 127
2, 164791, Note_off_c, 12, 71, 127
2, 164792, Note_on_c, 0, 72, 127
2, 164897, Note_off_c, 0, 72, 127
2, 164897, Note_off_c, 10, 57, 127
2, 164898, Note_on_c, 7, 55, 127
2, 164898, Note_on_c, 2, 74, 127
2, 165003, Note_off_c, 2, 74, 127
2, 165004, Note_on_c, 4, 76, 127
2, 165109, Note_off_c, 4, 76, 127
2, 165109, Note_off_c, 7, 55, 127
2, 165110, Note_on_c, 5, 53, 127
2, 165110, Note_on_c, 5, 77, 127
2, 165216, Note_on_c, 12, 71, 127
2, 165320, Note_off_c, 5, 77, 127
2, 165321, Note_off_c, 12, 71, 127
2, 165321, Note_off_c, 5, 53, 127
2, 165321, Note_off_c, 2, 50, 127
2, 165322, Note_on_c, 0, 48, 127
2, 165322, Note_on_c, 7, 55, 127
2, 165322, Note_on_c, 4, 76, 127
2, 165322, Note_on_c, 0, 72, 127
2, 165533, Note_off_c, 7, 55, 127
2, 165533, Note_off_c, 0, 48, 127
2, 165534, Note_on_c, 0, 60, 127
2, 165745, Note_off_c, 0, 60, 127
2, 165746, Note_on_c, 0, 60, 127
2, 165957, Note_off_c, 0, 60, 127
2, 165957, Note_off_c, 0, 72, 127
2, 165957, Note_off_c, 4, 76, 127
2, 165958, Note_on_c, 0, 60, 127
2, 166169, Note_off_c, 0, 60, 127
2, 166170, Note_on_c, 0, 60, 127
2, 166381, Note_off_c, 0, 60, 127
2, 166382, Note_on_c, 0, 60, 127
2, 166382, Note_on_c, 10, 69, 127
2, 166382, Note_on_c, 6, 78, 127
2, 166593, Note_off_c, 6, 78, 127
2, 166593, Note_off_c, 10, 69, 127
2, 166593, Note_off_c, 0, 60, 127
2, 166594, Note_on_c, 11, 58, 127
2, 166594, Note_on_c, 7, 79, 127
2, 166594, Note_on_c, 11, 70, 127
2, 166699, Note_off_c, 11, 58, 127
2, 166700, Note_on_c, 10, 57, 127
2, 166805, Note_off_c, 10, 57, 127
2, 166805, Note_off_c, 11, 70, 127
2, 166805, Note_off_c, 7, 79, 127
2, 166806, Note_on_c, 7, 55, 127
2, 166806, Note_on_c, 0, 72, 127
2, 166806, Note_on_c, 10, 81, 127
2, 166911, Note_off_c, 7, 55, 127
2, 166912, Note_on_c, 11, 58, 127
2, 167017, Note_off_c, 11, 58, 127
2, 167017, Note_off_c, 10, 81, 127
2, 167017, Note_off_c, 0, 72, 127
2, 167018, Note_on_c, 10, 57, 127
2, 167018, Note_on_c, 11, 82, 127
2, 167018, Note_on_c, 2, 74, 127
2, 167123, Note_off_c, 10, 57, 127
2, 167124, Note_on_c, 7, 55, 127
2, 167229, Note_off_c, 7, 55, 127
2, 167229, Note_off_c, 2, 74, 127
2, 167229, Note_off_c, 11, 82, 127
2, 167230, Note_on_c, 2, 62, 127
2, 167230, Note_on_c, 10, 69, 127
2, 167230, Note_on_c, 6, 78, 127
2, 167441, Note_off_c, 2, 62, 127
2, 167442, Note_on_c, 2, 62, 127
2, 167653, Note_off_c, 2, 62, 127
2, 167654, Note_on_c, 2, 62, 127
2, 167865, Note_off_c, 2, 62, 127
2, 167865, Note_off_c, 6, 78, 127
2, 167865, Note_off_c, 10, 69, 127
2, 167866, Note_on_c, 2, 62, 127
2, 168077, Note_off_c, 2, 62, 127
2, 168078, Note_on_c, 2, 62, 127
2, 168289, Note_off_c, 2, 62, 127
2, 168290, Note_on_c, 2, 62, 127
2, 168290, Note_on_c, 12, 71, 127
2, 168290, Note_on_c, 8, 80, 127
2, 168501, Note_off_c, 8, 80, 127
2, 168501, Note_off_c, 12, 71, 127
2, 168501, Note_off_c, 2, 62, 127
2, 168502, Note_on_c, 0, 60, 127
2, 168502, Note_on_c, 0, 72, 127
2, 168502, Note_on_c, 10, 81, 127
2, 168607, Note_off_c, 0, 60, 127
2, 168608, Note_on_c, 12, 59, 127
2, 168713, Note_off_c, 12, 59, 127
2, 168713, Note_off_c, 10, 81, 127
2, 168713, Note_off_c, 0, 72, 127
2, 168714, Note_on_c, 10, 57, 127
2, 168714, Note_on_c, 2, 74, 127
2, 168714, Note_on_c, 12, 83, 127
2, 168819, Note_off_c, 10, 57, 127
2, 168820, Note_on_c, 0, 60, 127
2, 168925, Note_off_c, 0, 60, 127
2, 168925, Note_off_c, 12, 83, 127
2, 168925, Note_off_c, 2, 74, 127
2, 168926, Note_on_c, 12, 59, 127
2, 168926, Note_on_c, 0, 84, 127
2, 168926, Note_on_c, 4, 76, 127
2, 169031, Note_off_c, 12, 59, 127
2, 169032, Note_on_c, 10, 57, 127
2, 169137, Note_off_c, 10, 57, 127
2, 169137, Note_off_c, 4, 76, 127
2, 169137, Note_off_c, 0, 84, 127
2, 169138, Note_on_c, 4, 64, 127
2, 169138, Note_on_c, 12, 71, 127
2, 169138, Note_on_c, 8, 80, 127
2, 169243, Note_off_c, 8, 80, 127
2, 169243, Note_off_c, 4, 64, 127
2, 169244, Note_on_c, 2, 62, 127
2, 169244, Note_on_c, 12, 83, 127
2, 169348, Note_off_c, 12, 71, 127
2, 169349, Note_off_c, 12, 83, 127
2, 169349, Note_off_c, 2, 62, 127
2, 169350, Note_on_c, 0, 60, 127
2, 169350, Note_on_c, 10, 81, 127
2, 169455, Note_off_c, 10, 81, 127
2, 169455, Note_off_c, 0, 60, 127
2, 169456, Note_on_c, 4, 64, 127
2, 169456, Note_on_c, 7, 79, 127
2, 169561, Note_off_c, 7, 79, 127
2, 169561, Note_off_c, 4, 64, 127
2, 169562, Note_on_c, 2, 62, 127
2, 169562, Note_on_c, 5, 77, 127
2, 169667, Note_off_c, 5, 77, 127
2, 169667, Note_off_c, 2, 62, 127
2, 169668, Note_on_c, 0, 60, 127
2, 169668, Note_on_c, 4, 76, 127
2, 169773, Note_off_c, 4, 76, 127
2, 169773, Note_off_c, 0, 60, 127
2, 169774, Note_on_c, 12, 59, 127
2, 169774, Note_on_c, 2, 74, 127
2, 169879, Note_off_c, 2, 74, 127
2, 169879, Note_off_c, 12, 59, 127
2, 169880, Note_on_c, 10, 57, 127
2, 169880, Note_on_c, 5, 77, 127
2, 169985, Note_off_c, 5, 77, 127
2, 169985, Note_off_c, 10, 57, 127
2, 169986, Note_on_c, 8, 56, 127
2, 169986, Note_on_c, 4, 76, 127
2, 170091, Note_off_c, 4, 76, 127
2, 170091, Note_off_c, 8, 56, 127
2, 170092, Note_on_c, 12, 59, 127
2, 170092, Note_on_c, 2, 74, 127
2, 170197, Note_off_c, 2, 74, 127
2, 170197, Note_off_c, 12, 59, 127
2, 170198, Note_on_c, 10, 57, 127
2, 170198, Note_on_c, 0, 72, 127
2, 170303, Note_off_c, 0, 72, 127
2, 170303, Note_off_c, 10, 57, 127
2, 170304, Note_on_c, 7, 55, 127
2, 170304, Note_on_c, 12, 71, 127
2, 170409, Note_off_c, 12, 71, 127
2, 170409, Note_off_c, 7, 55, 127
2, 170410, Note_on_c, 5, 53, 127
2, 170410, Note_on_c, 10, 69, 127
2, 170515, Note_off_c, 10, 69, 127
2, 170515, Note_off_c, 5, 53, 127
2, 170516, Note_on_c, 4, 52, 127
2, 170516, Note_on_c, 0, 72, 127
2, 170621, Note_off_c, 0, 72, 127
2, 170621, Note_off_c, 4, 52, 127
2, 170622, Note_on_c, 2, 50, 127
2, 170622, Note_on_c, 12, 71, 127
2, 170727, Note_off_c, 12, 71, 127
2, 170727, Note_off_c, 2, 50, 127
2, 170728, Note_on_c, 5, 53, 127
2, 170728, Note_on_c, 10, 69, 127
2, 170833, Note_off_c, 10, 69, 127
2, 170833, Note_off_c, 5, 53, 127
2, 170834, Note_on_c, 4, 52, 127
2, 170834, Note_on_c, 8, 68, 127
2, 170939, Note_off_c, 8, 68, 127
2, 170939, Note_off_c, 4, 52, 127
2, 170940, Note_on_c, 2, 50, 127
2, 170940, Note_on_c, 10, 69, 127
2, 171045, Note_off_c, 10, 69, 127
2, 171045, Note_off_c, 2, 50, 127
2, 171046, Note_on_c, 4, 52, 127
2, 171046, Note_on_c, 8, 68, 127
2, 171151, Note_off_c, 4, 52, 127
2, 171152, Note_on_c, 4, 40, 127
2, 171257, Note_off_c, 4, 40, 127
2, 171258, Note_on_c, 6, 42, 127
2, 171258, Note_on_c, 4, 64, 127
2, 171363, Note_off_c, 6, 42, 127
2, 171364, Note_on_c, 8, 44, 127
2, 171446, Note_off_c, 8, 68, 127
2, 171469, Note_off_c, 8, 44, 127
2, 171469, Note_off_c, 4, 64, 127
2, 171470, Note_on_c, 10, 45, 127
2, 171470, Note_on_c, 4, 64, 127
2, 171575, Note_off_c, 10, 45, 127
2, 171576, Note_on_c, 12, 47, 127
2, 171681, Note_off_c, 12, 47, 127
2, 171681, Note_off_c, 4, 64, 127
2, 171682, Note_on_c, 0, 48, 127
2, 171682, Note_on_c, 4, 64, 127
2, 171682, Note_on_c, 10, 69, 127
2, 171787, Note_off_c, 10, 69, 127
2, 171788, Note_on_c, 12, 71, 127
2, 171893, Note_off_c, 12, 71, 127
2, 171893, Note_off_c, 0, 48, 127
2, 171894, Note_on_c, 12, 47, 127
2, 171894, Note_on_c, 0, 72, 127
2, 171999, Note_off_c, 0, 72, 127
2, 172000, Note_on_c, 10, 69, 127
2, 172105, Note_off_c, 10, 69, 127
2, 172105, Note_off_c, 12, 47, 127
2, 172106, Note_on_c, 10, 45, 127
2, 172106, Note_on_c, 12, 71, 127
2, 172211, Note_off_c, 12, 71, 127
2, 172212, Note_on_c, 0, 72, 127
2, 172317, Note_off_c, 0, 72, 127
2, 172317, Note_off_c, 10, 45, 127
2, 172318, Note_on_c, 12, 47, 127
2, 172318, Note_on_c, 12, 71, 127
2, 172423, Note_off_c, 12, 71, 127
2, 172424, Note_on_c, 0, 72, 127
2, 172529, Note_off_c, 0, 72, 127
2, 172529, Note_off_c, 12, 47, 127
2, 172530, Note_on_c, 10, 45, 127
2, 172530, Note_on_c, 2, 74, 127
2, 172635, Note_off_c, 2, 74, 127
2, 172636, Note_on_c, 12, 71, 127
2, 172741, Note_off_c, 12, 71, 127
2, 172741, Note_off_c, 10, 45, 127
2, 172742, Note_on_c, 8, 44, 127
2, 172742, Note_on_c, 0, 72, 127
2, 172847, Note_off_c, 0, 72, 127
2, 172848, Note_on_c, 2, 74, 127
2, 172953, Note_off_c, 2, 74, 127
2, 172953, Note_off_c, 8, 44, 127
2, 172954, Note_on_c, 10, 45, 127
2, 172954, Note_on_c, 0, 72, 127
2, 173057, Note_off_c, 4, 64, 127
2, 173060, Note_on_c, 6, 66, 127
2, 173165, Note_off_c, 6, 66, 127
2, 173166, Note_on_c, 7, 67, 127
2, 173271, Note_off_c, 7, 67, 127
2, 173272, Note_on_c, 4, 64, 127
2, 173377, Note_off_c, 4, 64, 127
2, 173378, Note_on_c, 6, 66, 127
2, 173483, Note_off_c, 6, 66, 127
2, 173484, Note_on_c, 7, 67, 127
2, 173589, Note_off_c, 7, 67, 127
2, 173590, Note_on_c, 6, 66, 127
2, 173654, Note_off_c, 10, 45, 127
2, 173694, Note_off_c, 0, 72, 127
2, 173696, Note_on_c, 12, 47, 127
2, 173696, Note_on_c, 2, 74, 127
2, 173801, Note_off_c, 2, 74, 127
2, 173801, Note_off_c, 12, 47, 127
2, 173802, Note_on_c, 0, 48, 127
2, 173802, Note_on_c, 4, 76, 127
2, 173907, Note_off_c, 4, 76, 127
2, 173907, Note_off_c, 0, 48, 127
2, 173908, Note_on_c, 10, 45, 127
2, 173908, Note_on_c, 0, 72, 127
2, 174013, Note_off_c, 0, 72, 127
2, 174013, Note_off_c, 10, 45, 127
2, 174014, Note_on_c, 12, 47, 127
2, 174014, Note_on_c, 2, 74, 127
2, 174119, Note_off_c, 2, 74, 127
2, 174119, Note_off_c, 12, 47, 127
2, 174120, Note_on_c, 0, 48, 127
2, 174120, Note_on_c, 4, 76, 127
2, 174225, Note_off_c, 4, 76, 127
2, 174225, Note_off_c, 0, 48, 127
2, 174226, Note_on_c, 12, 47, 127
2, 174226, Note_on_c, 2, 74, 127
2, 174330, Note_off_c, 6, 66, 127
2, 174332, Note_on_c, 7, 67, 127
2, 174437, Note_off_c, 7, 67, 127
2, 174438, Note_on_c, 10, 69, 127
2, 174543, Note_off_c, 10, 69, 127
2, 174544, Note_on_c, 6, 66, 127
2, 174649, Note_off_c, 6, 66, 127
2, 174650, Note_on_c, 7, 67, 127
2, 174755, Note_off_c, 7, 67, 127
2, 174756, Note_on_c, 10, 69, 127
2, 174861, Note_off_c, 10, 69, 127
2, 174861, Note_off_c, 2, 74, 127
2, 174862, Note_on_c, 7, 67, 127
2, 174926, Note_off_c, 12, 47, 127
2, 174968, Note_on_c, 0, 48, 127
2, 174968, Note_on_c, 4, 76, 127
2, 175073, Note_off_c, 4, 76, 127
2, 175073, Note_off_c, 0, 48, 127
2, 175074, Note_on_c, 2, 50, 127
2, 175074, Note_on_c, 5, 77, 127
2, 175179, Note_off_c, 5, 77, 127
2, 175179, Note_off_c, 2, 50, 127
2, 175180, Note_on_c, 12, 47, 127
2, 175180, Note_on_c, 2, 74, 127
2, 175285, Note_off_c, 2, 74, 127
2, 175285, Note_off_c, 12, 47, 127
2, 175286, Note_on_c, 0, 48, 127
2, 175286, Note_on_c, 4, 76, 127
2, 175391, Note_off_c, 4, 76, 127
2, 175391, Note_off_c, 0, 48, 127
2, 175392, Note_on_c, 2, 50, 127
2, 175392, Note_on_c, 5, 77, 127
2, 175497, Note_off_c, 5, 77, 127
2, 175497, Note_off_c, 2, 50, 127
2, 175498, Note_on_c, 0, 48, 127
2, 175498, Note_on_c, 4, 76, 127
2, 175602, Note_off_c, 7, 67, 127
2, 175604, Note_on_c, 10, 69, 127
2, 175709, Note_off_c, 10, 69, 127
2, 175710, Note_on_c, 12, 71, 127
2, 175815, Note_off_c, 12, 71, 127
2, 175816, Note_on_c, 8, 68, 127
2, 175921, Note_off_c, 8, 68, 127
2, 175922, Note_on_c, 10, 69, 127
2, 176027, Note_off_c, 10, 69, 127
2, 176028, Note_on_c, 12, 71, 127
2, 176133, Note_off_c, 12, 71, 127
2, 176134, Note_on_c, 10, 69, 127
2, 176198, Note_off_c, 0, 48, 127
2, 176238, Note_off_c, 4, 76, 127
2, 176240, Note_on_c, 2, 50, 127
2, 176240, Note_on_c, 5, 77, 127
2, 176345, Note_off_c, 5, 77, 127
2, 176345, Note_off_c, 2, 50, 127
2, 176346, Note_on_c, 4, 52, 127
2, 176346, Note_on_c, 7, 79, 127
2, 176451, Note_off_c, 7, 79, 127
2, 176451, Note_off_c, 4, 52, 127
2, 176452, Note_on_c, 1, 49, 127
2, 176452, Note_on_c, 4, 76, 127
2, 176557, Note_off_c, 4, 76, 127
2, 176557, Note_off_c, 1, 49, 127
2, 176558, Note_on_c, 2, 50, 127
2, 176558, Note_on_c, 5, 77, 127
2, 176663, Note_off_c, 5, 77, 127
2, 176663, Note_off_c, 2, 50, 127
2, 176664, Note_on_c, 4, 52, 127
2, 176664, Note_on_c, 7, 79, 127
2, 176769, Note_off_c, 7, 79, 127
2, 176769, Note_off_c, 4, 52, 127
2, 176770, Note_on_c, 2, 50, 127
2, 176770, Note_on_c, 5, 77, 127
2, 176874, Note_off_c, 10, 69, 127
2, 176876, Note_on_c, 11, 70, 127
2, 176981, Note_off_c, 11, 70, 127
2, 176982, Note_on_c, 0, 72, 127
2, 177087, Note_off_c, 0, 72, 127
2, 177088, Note_on_c, 10, 69, 127
2, 177193, Note_off_c, 10, 69, 127
2, 177194, Note_on_c, 5, 53, 127
2, 177194, Note_on_c, 11, 70, 127
2, 177299, Note_off_c, 11, 70, 127
2, 177300, Note_on_c, 0, 72, 127
2, 177405, Note_off_c, 0, 72, 127
2, 177405, Note_off_c, 5, 53, 127
2, 177405, Note_off_c, 5, 77, 127
2, 177406, Note_on_c, 11, 58, 127
2, 177406, Note_on_c, 2, 74, 127
2, 177511, Note_off_c, 2, 74, 127
2, 177512, Note_on_c, 4, 76, 127
2, 177617, Note_off_c, 4, 76, 127
2, 177618, Note_on_c, 5, 77, 127
2, 177724, Note_on_c, 2, 74, 127
2, 177829, Note_off_c, 2, 74, 127
2, 177829, Note_off_c, 11, 58, 127
2, 177830, Note_on_c, 0, 60, 127
2, 177830, Note_on_c, 4, 76, 127
2, 177927, Note_off_c, 5, 77, 127
2, 177935, Note_off_c, 4, 76, 127
2, 177936, Note_on_c, 5, 77, 127
2, 178041, Note_off_c, 0, 60, 127
2, 178042, Note_on_c, 2, 62, 127
2, 178042, Note_on_c, 11, 70, 127
2, 178147, Note_off_c, 11, 70, 127
2, 178148, Note_on_c, 0, 72, 127
2, 178253, Note_off_c, 0, 72, 127
2, 178254, Note_on_c, 2, 74, 127
2, 178359, Note_off_c, 2, 74, 127
2, 178360, Note_on_c, 11, 70, 127
2, 178465, Note_off_c, 11, 70, 127
2, 178465, Note_off_c, 2, 62, 127
2, 178466, Note_on_c, 0, 60, 127
2, 178466, Note_on_c, 0, 72, 127
2, 178571, Note_off_c, 0, 72, 127
2, 178572, Note_on_c, 2, 74, 127
2, 178677, Note_off_c, 2, 74, 127
2, 178677, Note_off_c, 0, 60, 127
2, 178677, Note_off_c, 2, 50, 127
2, 178678, Note_on_c, 4, 52, 127
2, 178678, Note_on_c, 12, 59, 127
2, 178678, Note_on_c, 8, 68, 127
2, 178783, Note_off_c, 5, 77, 127
2, 178784, Note_on_c, 4, 76, 127
2, 178889, Note_off_c, 4, 76, 127
2, 178890, Note_on_c, 2, 74, 127
2, 178995, Note_off_c, 2, 74, 127
2, 178996, Note_on_c, 5, 77, 127
2, 179101, Note_off_c, 5, 77, 127
2, 179102, Note_on_c, 4, 76, 127
2, 179207, Note_off_c, 4, 76, 127
2, 179208, Note_on_c, 2, 74, 127
2, 179313, Note_off_c, 2, 74, 127
2, 179313, Note_off_c, 8, 68, 127
2, 179313, Note_off_c, 12, 59, 127
2, 179314, Note_on_c, 10, 57, 127
2, 179314, Note_on_c, 10, 69, 127
2, 179314, Note_on_c, 0, 72, 127
2, 179419, Note_off_c, 0, 72, 127
2, 179420, Note_on_c, 12, 71, 127
2, 179524, Note_off_c, 10, 69, 127
2, 179525, Note_off_c, 12, 71, 127
2, 179526, Note_on_c, 10, 69, 127
2, 179631, Note_off_c, 10, 69, 127
2, 179632, Note_on_c, 0, 72, 127
2, 179737, Note_off_c, 0, 72, 127
2, 179738, Note_on_c, 12, 71, 127
2, 179843, Note_off_c, 12, 71, 127
2, 179844, Note_on_c, 10, 69, 127
2, 179950, Note_on_c, 6, 54, 127
2, 179950, Note_on_c, 0, 60, 127
2, 179950, Note_on_c, 3, 75, 127
2, 180055, Note_off_c, 3, 75, 127
2, 180056, Note_on_c, 4, 76, 127
2, 180161, Note_off_c, 4, 76, 127
2, 180162, Note_on_c, 6, 78, 127
2, 180267, Note_off_c, 6, 78, 127
2, 180268, Note_on_c, 3, 75, 127
2, 180373, Note_off_c, 3, 75, 127
2, 180374, Note_on_c, 4, 76, 127
2, 180479, Note_off_c, 4, 76, 127
2, 180480, Note_on_c, 6, 78, 127
2, 180584, Note_off_c, 10, 69, 127
2, 180584, Note_off_c, 10, 57, 127
2, 180585, Note_off_c, 6, 78, 127
2, 180585, Note_off_c, 0, 60, 127
2, 180585, Note_off_c, 6, 54, 127
2, 180585, Note_off_c, 4, 52, 127
2, 180586, Note_on_c, 12, 59, 127
2, 180586, Note_on_c, 8, 68, 127
2, 180586, Note_on_c, 4, 64, 127
2, 180692, Note_on_c, 4, 52, 127
2, 180797, Note_off_c, 4, 52, 127
2, 180798, Note_on_c, 6, 54, 127
2, 180903, Note_off_c, 6, 54, 127
2, 180904, Note_on_c, 8, 56, 127
2, 181005, Note_off_c, 12, 59, 127
2, 181008, Note_off_c, 8, 56, 127
2, 181009, Note_on_c, 10, 57, 127
2, 181114, Note_off_c, 10, 57, 127
2, 181115, Note_on_c, 12, 59, 127
2, 181220, Note_off_c, 12, 59, 127
2, 181220, Note_off_c, 4, 64, 127
2, 181221, Note_on_c, 0, 60, 127
2, 181326, Note_off_c, 8, 68, 127
2, 181327, Note_on_c, 6, 66, 127
2, 181432, Note_off_c, 6, 66, 127
2, 181432, Note_off_c, 0, 60, 127
2, 181433, Note_on_c, 12, 59, 127
2, 181433, Note_on_c, 8, 68, 127
2, 181538, Note_off_c, 8, 68, 127
2, 181539, Note_on_c, 10, 69, 127
2, 181644, Note_off_c, 10, 69, 127
2, 181644, Note_off_c, 12, 59, 127
2, 181645, Note_on_c, 10, 57, 127
2, 181645, Note_on_c, 12, 71, 127
2, 181750, Note_off_c, 12, 71, 127
2, 181751, Note_on_c, 0, 72, 127
2, 181856, Note_off_c, 0, 72, 127
2, 181856, Note_off_c, 10, 57, 127
2, 181857, Note_on_c, 12, 59, 127
2, 181857, Note_on_c, 2, 74, 127
2, 181962, Note_off_c, 2, 74, 127
2, 181963, Note_on_c, 0, 72, 127
2, 182068, Note_off_c, 0, 72, 127
2, 182068, Note_off_c, 12, 59, 127
2, 182069, Note_on_c, 10, 57, 127
2, 182069, Note_on_c, 4, 76, 127
2, 182174, Note_off_c, 4, 76, 127
2, 182175, Note_on_c, 2, 74, 127
2, 182280, Note_off_c, 2, 74, 127
2, 182280, Note_off_c, 10, 57, 127
2, 182281, Note_on_c, 8, 56, 127
2, 182281, Note_on_c, 0, 72, 127
2, 182386, Note_off_c, 0, 72, 127
2, 182387, Note_on_c, 12, 71, 127
2, 182492, Note_off_c, 12, 71, 127
2, 182492, Note_off_c, 8, 56, 127
2, 182493, Note_on_c, 10, 57, 127
2, 182493, Note_on_c, 0, 72, 127
2, 182598, Note_off_c, 0, 72, 127
2, 182599, Note_on_c, 10, 69, 127
2, 182704, Note_off_c, 10, 69, 127
2, 182705, Note_on_c, 12, 71, 127
2, 182810, Note_off_c, 12, 71, 127
2, 182811, Note_on_c, 1, 73, 127
2, 182916, Note_off_c, 1, 73, 127
2, 182917, Note_on_c, 2, 74, 127
2, 183022, Note_off_c, 2, 74, 127
2, 183023, Note_on_c, 4, 76, 127
2, 183128, Note_off_c, 4, 76, 127
2, 183129, Note_on_c, 5, 77, 127
2, 183222, Note_off_c, 10, 57, 127
2, 183235, Note_on_c, 12, 59, 127
2, 183340, Note_off_c, 12, 59, 127
2, 183340, Note_off_c, 5, 77, 127
2, 183341, Note_on_c, 1, 61, 127
2, 183341, Note_on_c, 4, 76, 127
2, 183446, Note_off_c, 1, 61, 127
2, 183447, Note_on_c, 2, 62, 127
2, 183552, Note_off_c, 2, 62, 127
2, 183552, Note_off_c, 4, 76, 127
2, 183553, Note_on_c, 4, 64, 127
2, 183553, Note_on_c, 2, 74, 127
2, 183658, Note_off_c, 4, 64, 127
2, 183659, Note_on_c, 5, 65, 127
2, 183764, Note_off_c, 5, 65, 127
2, 183764, Note_off_c, 2, 74, 127
2, 183765, Note_on_c, 7, 67, 127
2, 183765, Note_on_c, 4, 76, 127
2, 183870, Note_off_c, 7, 67, 127
2, 183871, Note_on_c, 5, 65, 127
2, 183976, Note_off_c, 5, 65, 127
2, 183976, Note_off_c, 4, 76, 127
2, 183977, Note_on_c, 10, 69, 127
2, 183977, Note_on_c, 2, 74, 127
2, 184082, Note_off_c, 10, 69, 127
2, 184083, Note_on_c, 7, 67, 127
2, 184188, Note_off_c, 7, 67, 127
2, 184188, Note_off_c, 2, 74, 127
2, 184189, Note_on_c, 5, 65, 127
2, 184189, Note_on_c, 1, 73, 127
2, 184294, Note_off_c, 5, 65, 127
2, 184295, Note_on_c, 4, 64, 127
2, 184400, Note_off_c, 4, 64, 127
2, 184400, Note_off_c, 1, 73, 127
2, 184401, Note_on_c, 5, 65, 127
2, 184401, Note_on_c, 2, 74, 127
2, 184506, Note_off_c, 5, 65, 127
2, 184507, Note_on_c, 10, 57, 127
2, 184612, Note_off_c, 10, 57, 127
2, 184613, Note_on_c, 12, 59, 127
2, 184718, Note_off_c, 12, 59, 127
2, 184719, Note_on_c, 0, 60, 127
2, 184824, Note_off_c, 0, 60, 127
2, 184825, Note_on_c, 12, 59, 127
2, 184930, Note_off_c, 12, 59, 127
2, 184931, Note_on_c, 10, 57, 127
2, 185036, Note_off_c, 10, 57, 127
2, 185036, Note_off_c, 2, 74, 127
2, 185037, Note_on_c, 2, 62, 127
2, 185143, Note_on_c, 12, 71, 127
2, 185248, Note_off_c, 12, 71, 127
2, 185249, Note_on_c, 10, 69, 127
2, 185354, Note_off_c, 10, 69, 127
2, 185355, Note_on_c, 8, 68, 127
2, 185460, Note_off_c, 8, 68, 127
2, 185461, Note_on_c, 10, 69, 127
2, 185566, Note_off_c, 10, 69, 127
2, 185567, Note_on_c, 12, 71, 127
2, 185672, Note_off_c, 12, 71, 127
2, 185673, Note_on_c, 4, 64, 127
2, 185778, Note_off_c, 2, 62, 127
2, 185779, Note_on_c, 8, 56, 127
2, 185884, Note_off_c, 8, 56, 127
2, 185885, Note_on_c, 10, 57, 127
2, 185990, Note_off_c, 10, 57, 127
2, 185991, Note_on_c, 12, 59, 127
2, 186096, Note_off_c, 12, 59, 127
2, 186097, Note_on_c, 10, 57, 127
2, 186202, Note_off_c, 10, 57, 127
2, 186203, Note_on_c, 8, 56, 127
2, 186308, Note_off_c, 8, 56, 127
2, 186309, Note_on_c, 0, 60, 127
2, 186415, Note_on_c, 4, 40, 127
2, 186520, Note_off_c, 4, 40, 127
2, 186521, Note_on_c, 6, 42, 127
2, 186626, Note_off_c, 6, 42, 127
2, 186627, Note_on_c, 8, 44, 127
2, 186732, Note_off_c, 8, 44, 127
2, 186733, Note_on_c, 10, 45, 127
2, 186838, Note_off_c, 10, 45, 127
2, 186839, Note_on_c, 12, 47, 127
2, 186944, Note_off_c, 12, 47, 127
2, 186944, Note_off_c, 0, 60, 127
2, 186945, Note_on_c, 0, 48, 127
2, 187050, Note_off_c, 4, 64, 127
2, 187051, Note_on_c, 6, 66, 127
2, 187156, Note_off_c, 6, 66, 127
2, 187156, Note_off_c, 0, 48, 127
2, 187157, Note_on_c, 12, 47, 127
2, 187157, Note_on_c, 8, 68, 127
2, 187262, Note_off_c, 8, 68, 127
2, 187263, Note_on_c, 10, 69, 127
2, 187368, Note_off_c, 10, 69, 127
2, 187368, Note_off_c, 12, 47, 127
2, 187369, Note_on_c, 10, 45, 127
2, 187369, Note_on_c, 12, 71, 127
2, 187474, Note_off_c, 12, 71, 127
2, 187475, Note_on_c, 0, 72, 127
2, 187580, Note_off_c, 0, 72, 127
2, 187580, Note_off_c, 10, 45, 127
2, 187581, Note_on_c, 12, 47, 127
2, 187581, Note_on_c, 2, 62, 127
2, 187687, Note_on_c, 4, 64, 127
2, 187792, Note_off_c, 4, 64, 127
2, 187792, Note_off_c, 12, 47, 127
2, 187793, Note_on_c, 10, 45, 127
2, 187793, Note_on_c, 6, 66, 127
2, 187898, Note_off_c, 6, 66, 127
2, 187899, Note_on_c, 8, 68, 127
2, 188004, Note_off_c, 8, 68, 127
2, 188004, Note_off_c, 10, 45, 127
2, 188005, Note_on_c, 8, 44, 127
2, 188005, Note_on_c, 10, 69, 127
2, 188110, Note_off_c, 10, 69, 127
2, 188111, Note_on_c, 12, 71, 127
2, 188216, Note_off_c, 8, 44, 127
2, 188216, Note_off_c, 2, 62, 127
2, 188217, Note_on_c, 10, 45, 127
2, 188217, Note_on_c, 0, 60, 127
2, 188322, Note_off_c, 10, 45, 127
2, 188323, Note_on_c, 12, 47, 127
2, 188420, Note_off_c, 12, 71, 127
2, 188428, Note_off_c, 12, 47, 127
2, 188429, Note_on_c, 0, 48, 127
2, 188429, Note_on_c, 4, 64, 127
2, 188534, Note_off_c, 0, 48, 127
2, 188535, Note_on_c, 2, 50, 127
2, 188640, Note_off_c, 2, 50, 127
2, 188640, Note_off_c, 4, 64, 127
2, 188641, Note_on_c, 4, 52, 127
2, 188641, Note_on_c, 10, 69, 127
2, 188746, Note_off_c, 4, 52, 127
2, 188747, Note_on_c, 5, 53, 127
2, 188852, Note_off_c, 5, 53, 127
2, 188852, Note_off_c, 0, 60, 127
2, 188853, Note_on_c, 7, 55, 127
2, 188853, Note_on_c, 12, 59, 127
2, 188958, Note_off_c, 7, 55, 127
2, 188959, Note_on_c, 4, 52, 127
2, 189060, Note_off_c, 10, 69, 127
2, 189063, Note_off_c, 4, 52, 127
2, 189064, Note_on_c, 2, 50, 127
2, 189064, Note_on_c, 7, 67, 127
2, 189169, Note_off_c, 2, 50, 127
2, 189170, Note_on_c, 0, 48, 127
2, 189271, Note_off_c, 12, 59, 127
2, 189274, Note_off_c, 0, 48, 127
2, 189275, Note_on_c, 2, 50, 127
2, 189275, Note_on_c, 12, 59, 127
2, 189380, Note_off_c, 2, 50, 127
2, 189381, Note_on_c, 4, 52, 127
2, 189486, Note_off_c, 4, 52, 127
2, 189486, Note_off_c, 12, 59, 127
2, 189487, Note_on_c, 5, 41, 127
2, 189487, Note_on_c, 10, 57, 127
2, 189592, Note_off_c, 5, 41, 127
2, 189593, Note_on_c, 7, 43, 127
2, 189698, Note_off_c, 7, 43, 127
2, 189698, Note_off_c, 7, 67, 127
2, 189699, Note_on_c, 10, 45, 127
2, 189699, Note_on_c, 0, 60, 127
2, 189804, Note_off_c, 10, 45, 127
2, 189805, Note_on_c, 12, 47, 127
2, 189910, Note_off_c, 12, 47, 127
2, 189910, Note_off_c, 0, 60, 127
2, 189911, Note_on_c, 0, 48, 127
2, 189911, Note_on_c, 5, 65, 127
2, 190016, Note_off_c, 0, 48, 127
2, 190017, Note_on_c, 2, 50, 127
2, 190122, Note_off_c, 2, 50, 127
2, 190122, Note_off_c, 10, 57, 127
2, 190123, Note_on_c, 7, 55, 127
2, 190123, Note_on_c, 4, 52, 127
2, 190228, Note_off_c, 4, 52, 127
2, 190229, Note_on_c, 0, 48, 127
2, 190330, Note_off_c, 5, 65, 127
2, 190333, Note_off_c, 0, 48, 127
2, 190334, Note_on_c, 12, 47, 127
2, 190334, Note_on_c, 4, 64, 127
2, 190439, Note_off_c, 12, 47, 127
2, 190440, Note_on_c, 10, 45, 127
2, 190541, Note_off_c, 7, 55, 127
2, 190544, Note_off_c, 10, 45, 127
2, 190545, Note_on_c, 12, 47, 127
2, 190545, Note_on_c, 7, 55, 127
2, 190650, Note_off_c, 12, 47, 127
2, 190651, Note_on_c, 0, 48, 127
2, 190755, Note_off_c, 7, 55, 127
2, 190756, Note_off_c, 0, 48, 127
2, 190757, Note_on_c, 2, 38, 127
2, 190757, Note_on_c, 5, 53, 127
2, 190862, Note_off_c, 2, 38, 127
2, 190863, Note_on_c, 4, 40, 127
2, 190968, Note_off_c, 4, 40, 127
2, 190968, Note_off_c, 4, 64, 127
2, 190969, Note_on_c, 5, 41, 127
2, 190969, Note_on_c, 10, 57, 127
2, 191074, Note_off_c, 5, 41, 127
2, 191075, Note_on_c, 7, 43, 127
2, 191180, Note_off_c, 7, 43, 127
2, 191180, Note_off_c, 10, 57, 127
2, 191181, Note_on_c, 10, 45, 127
2, 191181, Note_on_c, 2, 62, 127
2, 191286, Note_off_c, 10, 45, 127
2, 191287, Note_on_c, 12, 47, 127
2, 191392, Note_off_c, 12, 47, 127
2, 191392, Note_off_c, 5, 53, 127
2, 191393, Note_on_c, 0, 48, 127
2, 191393, Note_on_c, 4, 52, 127
2, 191498, Note_off_c, 0, 48, 127
2, 191499, Note_on_c, 10, 45, 127
2, 191604, Note_off_c, 10, 45, 127
2, 191604, Note_off_c, 2, 62, 127
2, 191605, Note_on_c, 8, 44, 127
2, 191605, Note_on_c, 0, 60, 127
2, 191710, Note_off_c, 8, 44, 127
2, 191711, Note_on_c, 6, 42, 127
2, 191812, Note_off_c, 4, 52, 127
2, 191815, Note_off_c, 6, 42, 127
2, 191816, Note_on_c, 8, 44, 127
2, 191816, Note_on_c, 4, 52, 127
2, 191921, Note_off_c, 8, 44, 127
2, 191922, Note_on_c, 10, 45, 127
2, 192026, Note_off_c, 4, 52, 127
2, 192027, Note_off_c, 10, 45, 127
2, 192028, Note_on_c, 6, 54, 127
2, 192028, Note_on_c, 3, 39, 127
2, 192134, Note_off_c, 6, 54, 127
2, 192135, Note_off_c, 0, 60, 127
2, 192135, Note_on_c, 8, 56, 127
2, 192241, Note_off_c, 8, 56, 127
2, 192242, Note_on_c, 10, 57, 127
2, 192348, Note_off_c, 10, 57, 127
2, 192349, Note_on_c, 0, 60, 127
2, 192455, Note_off_c, 0, 60, 127
2, 192456, Note_on_c, 6, 54, 127
2, 192562, Note_off_c, 6, 54, 127
2, 192563, Note_on_c, 10, 57, 127
2, 192669, Note_off_c, 10, 57, 127
2, 192670, Note_on_c, 3, 51, 127
2, 192776, Note_off_c, 3, 51, 127
2, 192777, Note_on_c, 4, 52, 127
2, 192883, Note_off_c, 4, 52, 127
2, 192884, Note_on_c, 6, 54, 127
2, 192990, Note_off_c, 6, 54, 127
2, 192991, Note_on_c, 10, 57, 127
2, 193097, Note_off_c, 10, 57, 127
2, 193098, Note_on_c, 3, 51, 127
2, 193204, Note_off_c, 3, 51, 127
2, 193205, Note_on_c, 6, 54, 127
2, 193311, Note_off_c, 6, 54, 127
2, 193312, Note_on_c, 12, 47, 127
2, 193419, Note_on_c, 10, 57, 127
2, 193525, Note_off_c, 10, 57, 127
2, 193526, Note_on_c, 6, 54, 127
2, 193632, Note_off_c, 6, 54, 127
2, 193633, Note_on_c, 3, 51, 127
2, 193735, Note_off_c, 12, 47, 127
2, 193738, Note_off_c, 3, 51, 127
2, 193739, Note_on_c, 12, 47, 127
2, 193845, Note_off_c, 12, 47, 127
2, 193846, Note_on_c, 3, 51, 127
2, 193952, Note_off_c, 3, 51, 127
2, 193952, Note_off_c, 3, 39, 127
2, 193961, Note_on_c, 4, 40, 127
2, 194077, Note_on_c, 4, 52, 127
2, 194184, Note_off_c, 4, 52, 127
2, 194185, Note_on_c, 6, 54, 127
2, 194292, Note_off_c, 6, 54, 127
2, 194293, Note_on_c, 8, 56, 127
2, 194400, Note_off_c, 8, 56, 127
2, 194401, Note_on_c, 10, 57, 127
2, 194508, Note_off_c, 10, 57, 127
2, 194509, Note_on_c, 12, 59, 127
2, 194616, Note_off_c, 12, 59, 127
2, 194617, Note_on_c, 0, 60, 127
2, 194710, Note_off_c, 4, 40, 127
2, 194725, Note_on_c, 6, 42, 127
2, 194831, Note_off_c, 0, 60, 127
2, 194832, Note_off_c, 6, 42, 127
2, 194833, Note_on_c, 8, 44, 127
2, 194833, Note_on_c, 12, 59, 127
2, 194940, Note_off_c, 8, 44, 127
2, 194941, Note_on_c, 10, 45, 127
2, 195047, Note_off_c, 12, 59, 127
2, 195048, Note_off_c, 10, 45, 127
2, 195049, Note_on_c, 10, 57, 127
2, 195049, Note_on_c, 12, 47, 127
2, 195156, Note_off_c, 12, 47, 127
2, 195157, Note_on_c, 0, 48, 127
2, 195263, Note_off_c, 10, 57, 127
2, 195264, Note_off_c, 0, 48, 127
2, 195265, Note_on_c, 12, 59, 127
2, 195265, Note_on_c, 2, 50, 127
2, 195372, Note_off_c, 2, 50, 127
2, 195373, Note_on_c, 0, 48, 127
2, 195479, Note_off_c, 12, 59, 127
2, 195480, Note_off_c, 0, 48, 127
2, 195481, Note_on_c, 10, 57, 127
2, 195481, Note_on_c, 4, 52, 127
2, 195588, Note_off_c, 4, 52, 127
2, 195589, Note_on_c, 2, 50, 127
2, 195695, Note_off_c, 10, 57, 127
2, 195696, Note_off_c, 2, 50, 127
2, 195697, Note_on_c, 0, 48, 127
2, 195697, Note_on_c, 8, 56, 127
2, 195804, Note_off_c, 0, 48, 127
2, 195805, Note_on_c, 12, 47, 127
2, 195911, Note_off_c, 8, 56, 127
2, 195912, Note_off_c, 12, 47, 127
2, 195913, Note_on_c, 10, 57, 127
2, 195913, Note_on_c, 0, 48, 127
2, 196020, Note_off_c, 0, 48, 127
2, 196020, Note_off_c, 10, 57, 127
2, 196021, Note_on_c, 12, 59, 127
2, 196021, Note_on_c, 12, 47, 127
2, 196128, Note_off_c, 12, 47, 127
2, 196128, Note_off_c, 12, 59, 127
2, 196129, Note_on_c, 0, 60, 127
2, 196129, Note_on_c, 10, 45, 127
2, 196236, Note_off_c, 10, 45, 127
2, 196236, Note_off_c, 0, 60, 127
2, 196237, Note_on_c, 2, 62, 127
2, 196237, Note_on_c, 12, 47, 127
2, 196344, Note_off_c, 12, 47, 127
2, 196344, Note_off_c, 2, 62, 127
2, 196345, Note_on_c, 4, 64, 127
2, 196345, Note_on_c, 0, 48, 127
2, 196452, Note_off_c, 0, 48, 127
2, 196452, Note_off_c, 4, 64, 127
2, 196453, Note_on_c, 5, 65, 127
2, 196453, Note_on_c, 2, 50, 127
2, 196560, Note_off_c, 2, 50, 127
2, 196560, Note_off_c, 5, 65, 127
2, 196561, Note_on_c, 7, 67, 127
2, 196561, Note_on_c, 4, 52, 127
2, 196668, Note_off_c, 4, 52, 127
2, 196668, Note_off_c, 7, 67, 127
2, 196669, Note_on_c, 5, 65, 127
2, 196669, Note_on_c, 2, 50, 127
2, 196776, Note_off_c, 2, 50, 127
2, 196776, Note_off_c, 5, 65, 127
2, 196777, Note_on_c, 4, 64, 127
2, 196777, Note_on_c, 1, 49, 127
2, 196884, Note_off_c, 1, 49, 127
2, 196884, Note_off_c, 4, 64, 127
2, 196885, Note_on_c, 5, 65, 127
2, 196885, Note_on_c, 2, 50, 127
2, 196992, Note_off_c, 2, 50, 127
2, 196992, Note_off_c, 5, 65, 127
2, 196993, Note_on_c, 7, 67, 127
2, 196993, Note_on_c, 4, 52, 127
2, 197100, Note_off_c, 4, 52, 127
2, 197100, Note_off_c, 7, 67, 127
2, 197101, Note_on_c, 10, 69, 127
2, 197101, Note_on_c, 5, 53, 127
2, 197208, Note_off_c, 5, 53, 127
2, 197208, Note_off_c, 10, 69, 127
2, 197209, Note_on_c, 7, 67, 127
2, 197209, Note_on_c, 11, 70, 127
2, 197209, Note_on_c, 1, 61, 127
2, 197209, Note_on_c, 4, 64, 127
2, 197209, Note_on_c, 7, 55, 127
2, 197316, Note_off_c, 7, 55, 127
2, 197317, Note_on_c, 5, 53, 127
2, 197389, Note_off_c, 4, 64, 127
2, 197389, Note_off_c, 1, 61, 127
2, 197389, Note_off_c, 11, 70, 127
2, 197389, Note_off_c, 7, 67, 127
2, 197424, Note_off_c, 5, 53, 127
2, 197425, Note_on_c, 2, 62, 127
2, 197425, Note_on_c, 10, 69, 127
2, 197425, Note_on_c, 5, 65, 127
2, 197425, Note_on_c, 4, 52, 127
2, 197532, Note_off_c, 4, 52, 127
2, 197533, Note_on_c, 5, 53, 127
2, 197605, Note_off_c, 5, 65, 127
2, 197605, Note_off_c, 10, 69, 127
2, 197605, Note_off_c, 2, 62, 127
2, 197640, Note_off_c, 5, 53, 127
2, 197641, Note_on_c, 7, 67, 127
2, 197641, Note_on_c, 1, 61, 127
2, 197641, Note_on_c, 4, 64, 127
2, 197641, Note_on_c, 7, 55, 127
2, 197748, Note_off_c, 7, 55, 127
2, 197749, Note_on_c, 10, 57, 127
2, 197821, Note_off_c, 4, 64, 127
2, 197821, Note_off_c, 1, 61, 127
2, 197821, Note_off_c, 7, 67, 127
2, 197856, Note_off_c, 10, 57, 127
2, 197857, Note_on_c, 5, 65, 127
2, 197857, Note_on_c, 2, 50, 127
2, 197965, Note_on_c, 2, 62, 127
2, 198072, Note_off_c, 2, 62, 127
2, 198073, Note_on_c, 0, 60, 127
2, 198180, Note_off_c, 0, 60, 127
2, 198181, Note_on_c, 11, 58, 127
2, 198288, Note_off_c, 11, 58, 127
2, 198289, Note_on_c, 10, 57, 127
2, 198396, Note_off_c, 10, 57, 127
2, 198397, Note_on_c, 7, 55, 127
2, 198504, Note_off_c, 7, 55, 127
2, 198504, Note_off_c, 2, 50, 127
2, 198505, Note_on_c, 5, 53, 127
2, 198612, Note_off_c, 5, 53, 127
2, 198613, Note_on_c, 4, 52, 127
2, 198720, Note_off_c, 4, 52, 127
2, 198721, Note_on_c, 2, 50, 127
2, 198828, Note_off_c, 2, 50, 127
2, 198829, Note_on_c, 0, 48, 127
2, 198936, Note_off_c, 0, 48, 127
2, 198936, Note_off_c, 5, 65, 127
2, 198937, Note_on_c, 0, 60, 127
2, 198937, Note_on_c, 2, 62, 127
2, 198937, Note_on_c, 5, 65, 127
2, 198937, Note_on_c, 12, 47, 127
2, 199044, Note_off_c, 12, 47, 127
2, 199045, Note_on_c, 10, 45, 127
2, 199152, Note_off_c, 10, 45, 127
2, 199152, Note_off_c, 5, 65, 127
2, 199152, Note_off_c, 2, 62, 127
2, 199152, Note_off_c, 0, 60, 127
2, 199153, Note_on_c, 5, 65, 127
2, 199153, Note_on_c, 10, 69, 127
2, 199153, Note_on_c, 12, 59, 127
2, 199153, Note_on_c, 7, 43, 127
2, 199368, Note_off_c, 10, 69, 127
2, 199368, Note_off_c, 5, 65, 127
2, 199369, Note_on_c, 7, 67, 127
2, 199369, Note_on_c, 4, 64, 127
2, 199584, Note_off_c, 4, 64, 127
2, 199584, Note_off_c, 7, 67, 127
2, 199585, Note_on_c, 5, 65, 127
2, 199585, Note_on_c, 2, 62, 127
2, 199800, Note_off_c, 2, 62, 127
2, 199800, Note_off_c, 5, 65, 127
2, 199800, Note_off_c, 7, 43, 127
2, 199800, Note_off_c, 12, 59, 127
2, 199801, Note_on_c, 4, 64, 127
2, 199801, Note_on_c, 0, 48, 127
2, 199909, Note_on_c, 0, 60, 127
2, 200016, Note_off_c, 0, 60, 127
2, 200017, Note_on_c, 12, 59, 127
2, 200124, Note_off_c, 12, 59, 127
2, 200125, Note_on_c, 10, 57, 127
2, 200232, Note_off_c, 10, 57, 127
2, 200233, Note_on_c, 7, 55, 127
2, 200340, Note_off_c, 7, 55, 127
2, 200341, Note_on_c, 5, 53, 127
2, 200448, Note_off_c, 5, 53, 127
2, 200448, Note_off_c, 0, 48, 127
2, 200449, Note_on_c, 4, 52, 127
2, 200556, Note_off_c, 4, 52, 127
2, 200557, Note_on_c, 2, 50, 127
2, 200664, Note_off_c, 2, 50, 127
2, 200665, Note_on_c, 0, 48, 127
2, 200772, Note_off_c, 0, 48, 127
2, 200773, Note_on_c, 12, 47, 127
2, 200880, Note_off_c, 12, 47, 127
2, 200880, Note_off_c, 4, 64, 127
2, 200881, Note_on_c, 4, 64, 127
2, 200881, Note_on_c, 10, 45, 127
2, 200988, Note_off_c, 10, 45, 127
2, 200989, Note_on_c, 7, 43, 127
2, 201096, Note_off_c, 7, 43, 127
2, 201097, Note_on_c, 10, 69, 127
2, 201097, Note_on_c, 6, 42, 127
2, 201204, Note_off_c, 10, 69, 127
2, 201205, Note_on_c, 12, 71, 127
2, 201312, Note_off_c, 12, 71, 127
2, 201313, Note_on_c, 10, 69, 127
2, 201420, Note_off_c, 10, 69, 127
2, 201421, Note_on_c, 12, 71, 127
2, 201528, Note_off_c, 12, 71, 127
2, 201529, Note_on_c, 0, 72, 127
2, 201744, Note_off_c, 0, 72, 127
2, 201744, Note_off_c, 6, 42, 127
2, 201744, Note_off_c, 4, 64, 127
2, 201745, Note_on_c, 2, 62, 127
2, 201853, Note_on_c, 12, 47, 127
2, 201960, Note_off_c, 12, 47, 127
2, 201961, Note_on_c, 0, 48, 127
2, 202068, Note_off_c, 0, 48, 127
2, 202069, Note_on_c, 2, 50, 127
2, 202176, Note_off_c, 2, 50, 127
2, 202177, Note_on_c, 4, 52, 127
2, 202284, Note_off_c, 4, 52, 127
2, 202285, Note_on_c, 6, 54, 127
2, 202392, Note_off_c, 6, 54, 127
2, 202393, Note_on_c, 8, 56, 127
2, 202500, Note_off_c, 8, 56, 127
2, 202501, Note_on_c, 10, 57, 127
2, 202608, Note_off_c, 10, 57, 127
2, 202608, Note_off_c, 2, 62, 127
2, 202609, Note_on_c, 12, 59, 127
2, 202716, Note_off_c, 12, 59, 127
2, 202717, Note_on_c, 0, 60, 127
2, 202824, Note_off_c, 0, 60, 127
2, 202825, Note_on_c, 10, 57, 127
2, 202825, Note_on_c, 2, 62, 127
2, 202825, Note_on_c, 12, 47, 127
2, 202932, Note_off_c, 2, 62, 127
2, 202933, Note_on_c, 4, 64, 127
2, 203039, Note_off_c, 10, 57, 127
2, 203040, Note_off_c, 4, 64, 127
2, 203040, Note_off_c, 12, 47, 127
2, 203041, Note_on_c, 8, 56, 127
2, 203041, Note_on_c, 5, 65, 127
2, 203041, Note_on_c, 2, 62, 127
2, 203041, Note_on_c, 4, 52, 127
2, 203256, Note_off_c, 2, 62, 127
2, 203256, Note_off_c, 5, 65, 127
2, 203257, Note_on_c, 0, 60, 127
2, 203257, Note_on_c, 4, 64, 127
2, 203472, Note_off_c, 4, 64, 127
2, 203472, Note_off_c, 0, 60, 127
2, 203472, Note_off_c, 4, 52, 127
2, 203473, Note_on_c, 12, 59, 127
2, 203473, Note_on_c, 2, 62, 127
2, 203473, Note_on_c, 4, 40, 127
2, 203688, Note_off_c, 4, 40, 127
2, 203688, Note_off_c, 2, 62, 127
2, 203688, Note_off_c, 12, 59, 127
2, 203688, Note_off_c, 8, 56, 127
2, 203689, Note_on_c, 10, 57, 127
2, 203689, Note_on_c, 0, 60, 127
2, 203689, Note_on_c, 10, 45, 127
2, 203795, Note_off_c, 0, 60, 127
2, 203796, Note_on_c, 2, 62, 127
2, 203901, Note_off_c, 10, 57, 127
2, 203902, Note_off_c, 2, 62, 127
2, 203903, Note_on_c, 4, 64, 127
2, 204009, Note_off_c, 4, 64, 127
2, 204009, Note_off_c, 10, 45, 127
2, 204010, Note_on_c, 0, 60, 127
2, 204010, Note_on_c, 10, 45, 127
2, 204116, Note_off_c, 10, 45, 127
2, 204116, Note_off_c, 0, 60, 127
2, 204117, Note_on_c, 2, 62, 127
2, 204117, Note_on_c, 12, 47, 127
2, 204223, Note_off_c, 12, 47, 127
2, 204223, Note_off_c, 2, 62, 127
2, 204224, Note_on_c, 4, 64, 127
2, 204224, Note_on_c, 0, 48, 127
2, 204330, Note_off_c, 0, 48, 127
2, 204330, Note_off_c, 4, 64, 127
2, 204331, Note_on_c, 5, 65, 127
2, 204331, Note_on_c, 2, 50, 127
2, 204437, Note_off_c, 2, 50, 127
2, 204437, Note_off_c, 5, 65, 127
2, 204438, Note_on_c, 7, 67, 127
2, 204438, Note_on_c, 4, 52, 127
2, 204544, Note_off_c, 4, 52, 127
2, 204544, Note_off_c, 7, 67, 127
2, 204545, Note_on_c, 10, 69, 127
2, 204545, Note_on_c, 5, 53, 127
2, 204651, Note_off_c, 5, 53, 127
2, 204651, Note_off_c, 10, 69, 127
2, 204652, Note_on_c, 5, 65, 127
2, 204652, Note_on_c, 2, 50, 127
2, 204758, Note_off_c, 2, 50, 127
2, 204758, Note_off_c, 5, 65, 127
2, 204759, Note_on_c, 7, 67, 127
2, 204759, Note_on_c, 4, 52, 127
2, 204865, Note_off_c, 4, 52, 127
2, 204865, Note_off_c, 7, 67, 127
2, 204866, Note_on_c, 10, 69, 127
2, 204866, Note_on_c, 5, 53, 127
2, 204972, Note_off_c, 5, 53, 127
2, 204972, Note_off_c, 10, 69, 127
2, 204973, Note_on_c, 12, 71, 127
2, 204973, Note_on_c, 2, 50, 127
2, 205079, Note_off_c, 2, 50, 127
2, 205079, Note_off_c, 12, 71, 127
2, 205080, Note_on_c, 0, 72, 127
2, 205080, Note_on_c, 4, 52, 127
2, 205186, Note_off_c, 4, 52, 127
2, 205186, Note_off_c, 0, 72, 127
2, 205187, Note_on_c, 2, 74, 127
2, 205187, Note_on_c, 5, 53, 127
2, 205293, Note_off_c, 5, 53, 127
2, 205293, Note_off_c, 2, 74, 127
2, 205294, Note_on_c, 12, 71, 127
2, 205294, Note_on_c, 2, 50, 127
2, 205400, Note_off_c, 2, 50, 127
2, 205400, Note_off_c, 12, 71, 127
2, 205401, Note_on_c, 0, 72, 127
2, 205401, Note_on_c, 4, 52, 127
2, 205507, Note_off_c, 4, 52, 127
2, 205507, Note_off_c, 0, 72, 127
2, 205508, Note_on_c, 2, 74, 127
2, 205508, Note_on_c, 5, 53, 127
2, 205614, Note_off_c, 5, 53, 127
2, 205614, Note_off_c, 2, 74, 127
2, 205615, Note_on_c, 4, 64, 127
2, 205615, Note_on_c, 8, 44, 127
2, 205721, Note_off_c, 8, 44, 127
2, 205722, Note_on_c, 5, 53, 127
2, 205828, Note_off_c, 5, 53, 127
2, 205828, Note_off_c, 4, 64, 127
2, 205829, Note_on_c, 6, 66, 127
2, 205829, Note_on_c, 4, 52, 127
2, 205935, Note_off_c, 4, 52, 127
2, 205935, Note_off_c, 6, 66, 127
2, 205936, Note_on_c, 8, 68, 127
2, 205936, Note_on_c, 2, 50, 127
2, 206042, Note_off_c, 2, 50, 127
2, 206042, Note_off_c, 8, 68, 127
2, 206043, Note_on_c, 10, 69, 127
2, 206043, Note_on_c, 0, 48, 127
2, 206149, Note_off_c, 0, 48, 127
2, 206149, Note_off_c, 10, 69, 127
2, 206150, Note_on_c, 12, 71, 127
2, 206150, Note_on_c, 12, 47, 127
2, 206256, Note_off_c, 12, 47, 127
2, 206256, Note_off_c, 12, 71, 127
2, 206257, Note_on_c, 0, 72, 127
2, 206257, Note_on_c, 10, 45, 127
2, 206363, Note_off_c, 10, 45, 127
2, 206364, Note_on_c, 12, 47, 127
2, 206470, Note_off_c, 12, 47, 127
2, 206470, Note_off_c, 0, 72, 127
2, 206471, Note_on_c, 12, 71, 127
2, 206471, Note_on_c, 10, 45, 127
2, 206577, Note_off_c, 10, 45, 127
2, 206578, Note_on_c, 7, 43, 127
2, 206684, Note_off_c, 7, 43, 127
2, 206684, Note_off_c, 12, 71, 127
2, 206685, Note_on_c, 10, 69, 127
2, 206685, Note_on_c, 5, 41, 127
2, 206791, Note_off_c, 5, 41, 127
2, 206792, Note_on_c, 4, 40, 127
2, 206898, Note_off_c, 4, 40, 127
2, 206898, Note_off_c, 10, 69, 127
2, 206899, Note_on_c, 12, 71, 127
2, 206899, Note_on_c, 2, 38, 127
2, 207112, Note_off_c, 2, 38, 127
2, 207112, Note_off_c, 12, 71, 127
2, 207113, Note_on_c, 0, 72, 127
2, 207113, Note_on_c, 2, 50, 127
2, 207219, Note_off_c, 0, 72, 127
2, 207220, Note_on_c, 12, 71, 127
2, 207326, Note_off_c, 12, 71, 127
2, 207326, Note_off_c, 2, 50, 127
2, 207327, Note_on_c, 10, 69, 127
2, 207327, Note_on_c, 4, 52, 127
2, 207433, Note_off_c, 10, 69, 127
2, 207434, Note_on_c, 8, 68, 127
2, 207540, Note_off_c, 8, 68, 127
2, 207540, Note_off_c, 4, 52, 127
2, 207541, Note_on_c, 4, 76, 127
2, 207541, Note_on_c, 0, 48, 127
2, 207647, Note_off_c, 4, 76, 127
2, 207648, Note_on_c, 2, 74, 127
2, 207754, Note_off_c, 2, 74, 127
2, 207755, Note_on_c, 0, 72, 127
2, 207861, Note_off_c, 0, 72, 127
2, 207861, Note_off_c, 0, 48, 127
2, 207862, Note_on_c, 12, 71, 127
2, 207862, Note_on_c, 0, 48, 127
2, 207968, Note_off_c, 0, 48, 127
2, 207968, Note_off_c, 12, 71, 127
2, 207969, Note_on_c, 10, 69, 127
2, 207969, Note_on_c, 2, 50, 127
2, 208075, Note_off_c, 2, 50, 127
2, 208075, Note_off_c, 10, 69, 127
2, 208076, Note_on_c, 8, 68, 127
2, 208076, Note_on_c, 4, 52, 127
2, 208182, Note_off_c, 4, 52, 127
2, 208182, Note_off_c, 8, 68, 127
2, 208183, Note_on_c, 10, 69, 127
2, 208183, Note_on_c, 5, 53, 127
2, 208289, Note_off_c, 10, 69, 127
2, 208290, Note_on_c, 12, 71, 127
2, 208396, Note_off_c, 12, 71, 127
2, 208396, Note_off_c, 5, 53, 127
2, 208397, Note_on_c, 10, 69, 127
2, 208397, Note_on_c, 4, 52, 127
2, 208503, Note_off_c, 10, 69, 127
2, 208504, Note_on_c, 12, 71, 127
2, 208610, Note_off_c, 12, 71, 127
2, 208610, Note_off_c, 4, 52, 127
2, 208611, Note_on_c, 0, 72, 127
2, 208611, Note_on_c, 5, 65, 127
2, 208611, Note_on_c, 2, 50, 127
2, 208824, Note_off_c, 2, 50, 127
2, 208824, Note_off_c, 5, 65, 127
2, 208824, Note_off_c, 0, 72, 127
2, 208825, Note_on_c, 4, 64, 127
2, 208825, Note_on_c, 4, 52, 127
2, 209039, Note_on_c, 10, 69, 127
2, 209248, Note_off_c, 4, 64, 127
2, 209251, Note_off_c, 10, 69, 127
2, 209252, Note_on_c, 2, 62, 127
2, 209252, Note_on_c, 8, 68, 127
2, 209252, Note_on_c, 4, 40, 127
2, 209465, Note_off_c, 4, 40, 127
2, 209465, Note_off_c, 8, 68, 127
2, 209465, Note_off_c, 2, 62, 127
2, 209465, Note_off_c, 4, 52, 127
2, 209466, Note_on_c, 1, 61, 127
2, 209466, Note_on_c, 10, 69, 127
2, 209466, Note_on_c, 4, 52, 127
2, 209466, Note_on_c, 10, 45, 127
2, 209574, Note_off_c, 1, 61, 127
2, 209575, Note_on_c, 10, 57, 127
2, 209682, Note_off_c, 10, 69, 127
2, 209683, Note_off_c, 10, 57, 127
2, 209683, Note_off_c, 10, 45, 127
2, 209683, Note_off_c, 4, 52, 127
2, 209684, Note_on_c, 12, 59, 127
2, 209684, Note_on_c, 10, 45, 127
2, 209792, Note_off_c, 12, 59, 127
2, 209793, Note_on_c, 1, 61, 127
2, 209901, Note_off_c, 1, 61, 127
2, 209901, Note_off_c, 10, 45, 127
2, 209902, Note_on_c, 2, 62, 127
2, 209902, Note_on_c, 10, 45, 127
2, 210010, Note_off_c, 2, 62, 127
2, 210011, Note_on_c, 4, 64, 127
2, 210119, Note_off_c, 4, 64, 127
2, 210119, Note_off_c, 10, 45, 127
2, 210120, Note_on_c, 5, 65, 127
2, 210120, Note_on_c, 10, 45, 127
2, 210229, Note_on_c, 10, 57, 127
2, 210336, Note_off_c, 10, 45, 127
2, 210337, Note_off_c, 5, 65, 127
2, 210338, Note_on_c, 4, 64, 127
2, 210338, Note_on_c, 10, 45, 127
2, 210445, Note_off_c, 10, 57, 127
2, 210447, Note_on_c, 7, 55, 127
2, 210554, Note_off_c, 10, 45, 127
2, 210555, Note_off_c, 4, 64, 127
2, 210556, Note_on_c, 2, 62, 127
2, 210556, Note_on_c, 10, 57, 127
2, 210556, Note_on_c, 10, 45, 127
2, 210663, Note_off_c, 7, 55, 127
2, 210665, Note_on_c, 5, 53, 127
2, 210772, Note_off_c, 10, 45, 127
2, 210773, Note_off_c, 5, 53, 127
2, 210773, Note_off_c, 10, 57, 127
2, 210773, Note_off_c, 2, 62, 127
2, 210774, Note_on_c, 11, 58, 127
2, 210774, Note_on_c, 4, 64, 127
2, 210774, Note_on_c, 10, 45, 127
2, 210883, Note_on_c, 7, 55, 127
2, 210990, Note_off_c, 10, 45, 127
2, 210991, Note_off_c, 4, 64, 127
2, 210991, Note_off_c, 11, 58, 127
2, 210992, Note_on_c, 10, 57, 127
2, 210992, Note_on_c, 2, 62, 127
2, 210992, Note_on_c, 10, 45, 127
2, 211099, Note_off_c, 7, 55, 127
2, 211101, Note_on_c, 5, 53, 127
2, 211208, Note_off_c, 10, 45, 127
2, 211209, Note_off_c, 2, 62, 127
2, 211209, Note_off_c, 10, 57, 127
2, 211210, Note_on_c, 7, 55, 127
2, 211210, Note_on_c, 1, 61, 127
2, 211210, Note_on_c, 10, 45, 127
2, 211317, Note_off_c, 5, 53, 127
2, 211319, Note_on_c, 4, 52, 127
2, 211426, Note_off_c, 10, 45, 127
2, 211427, Note_off_c, 4, 52, 127
2, 211427, Note_off_c, 1, 61, 127
2, 211427, Note_off_c, 7, 55, 127
2, 211428, Note_on_c, 2, 62, 127
2, 211428, Note_on_c, 10, 57, 127
2, 211428, Note_on_c, 5, 53, 127
2, 211536, Note_off_c, 5, 53, 127
2, 211537, Note_on_c, 10, 45, 127
2, 211645, Note_off_c, 10, 45, 127
2, 211645, Note_off_c, 10, 57, 127
2, 211645, Note_off_c, 2, 62, 127
2, 211646, Note_on_c, 10, 57, 127
2, 211646, Note_on_c, 12, 47, 127
2, 211754, Note_off_c, 12, 47, 127
2, 211755, Note_on_c, 1, 49, 127
2, 211863, Note_off_c, 1, 49, 127
2, 211863, Note_off_c, 10, 57, 127
2, 211864, Note_on_c, 10, 57, 127
2, 211864, Note_on_c, 2, 50, 127
2, 211972, Note_off_c, 2, 50, 127
2, 211973, Note_on_c, 4, 52, 127
2, 212081, Note_off_c, 4, 52, 127
2, 212081, Note_off_c, 10, 57, 127
2, 212082, Note_on_c, 10, 57, 127
2, 212082, Note_on_c, 5, 53, 127
2, 212191, Note_on_c, 10, 69, 127
2, 212298, Note_off_c, 10, 57, 127
2, 212299, Note_off_c, 5, 53, 127
2, 212300, Note_on_c, 10, 57, 127
2, 212300, Note_on_c, 4, 52, 127
2, 212407, Note_off_c, 10, 69, 127
2, 212409, Note_on_c, 7, 67, 127
2, 212516, Note_off_c, 10, 57, 127
2, 212517, Note_off_c, 4, 52, 127
2, 212518, Note_on_c, 10, 57, 127
2, 212518, Note_on_c, 2, 50, 127
2, 212625, Note_off_c, 7, 67, 127
2, 212627, Note_on_c, 5, 65, 127
2, 212734, Note_off_c, 10, 57, 127
2, 212735, Note_off_c, 5, 65, 127
2, 212735, Note_off_c, 2, 50, 127
2, 212736, Note_on_c, 10, 57, 127
2, 212736, Note_on_c, 4, 52, 127
2, 212845, Note_on_c, 7, 67, 127
2, 212952, Note_off_c, 10, 57, 127
2, 212953, Note_off_c, 4, 52, 127
2, 212954, Note_on_c, 10, 57, 127
2, 212954, Note_on_c, 2, 50, 127
2, 213061, Note_off_c, 7, 67, 127
2, 213063, Note_on_c, 5, 65, 127
2, 213170, Note_off_c, 10, 57, 127
2, 213171, Note_off_c, 2, 50, 127
2, 213172, Note_on_c, 10, 57, 127
2, 213172, Note_on_c, 1, 49, 127
2, 213279, Note_off_c, 5, 65, 127
2, 213281, Note_on_c, 4, 64, 127
2, 213388, Note_off_c, 10, 57, 127
2, 213389, Note_off_c, 4, 64, 127
2, 213389, Note_off_c, 1, 49, 127
2, 213390, Note_on_c, 5, 65, 127
2, 213390, Note_on_c, 10, 57, 127
2, 213390, Note_on_c, 2, 50, 127
2, 213498, Note_off_c, 5, 65, 127
2, 213499, Note_on_c, 2, 62, 127
2, 213606, Note_off_c, 10, 57, 127
2, 213607, Note_off_c, 2, 62, 127
2, 213607, Note_off_c, 2, 50, 127
2, 213608, Note_on_c, 4, 64, 127
2, 213608, Note_on_c, 2, 50, 127
2, 213716, Note_off_c, 4, 64, 127
2, 213717, Note_on_c, 6, 66, 127
2, 213825, Note_off_c, 6, 66, 127
2, 213825, Note_off_c, 2, 50, 127
2, 213826, Note_on_c, 7, 67, 127
2, 213826, Note_on_c, 2, 50, 127
2, 213934, Note_off_c, 7, 67, 127
2, 213935, Note_on_c, 10, 69, 127
2, 214043, Note_off_c, 10, 69, 127
2, 214043, Note_off_c, 2, 50, 127
2, 214044, Note_on_c, 11, 70, 127
2, 214044, Note_on_c, 2, 50, 127
2, 214153, Note_on_c, 2, 62, 127
2, 214260, Note_off_c, 2, 50, 127
2, 214261, Note_off_c, 11, 70, 127
2, 214262, Note_on_c, 10, 69, 127
2, 214262, Note_on_c, 2, 50, 127
2, 214369, Note_off_c, 2, 62, 127
2, 214371, Note_on_c, 0, 60, 127
2, 214478, Note_off_c, 2, 50, 127
2, 214479, Note_off_c, 10, 69, 127
2, 214480, Note_on_c, 7, 67, 127
2, 214480, Note_on_c, 2, 62, 127
2, 214480, Note_on_c, 2, 50, 127
2, 214587, Note_off_c, 0, 60, 127
2, 214589, Note_on_c, 11, 58, 127
2, 214696, Note_off_c, 2, 50, 127
2, 214697, Note_off_c, 11, 58, 127
2, 214697, Note_off_c, 2, 62, 127
2, 214697, Note_off_c, 7, 67, 127
2, 214698, Note_on_c, 3, 63, 127
2, 214698, Note_on_c, 10, 69, 127
2, 214698, Note_on_c, 2, 50, 127
2, 214807, Note_on_c, 0, 60, 127
2, 214914, Note_off_c, 2, 50, 127
2, 214915, Note_off_c, 10, 69, 127
2, 214915, Note_off_c, 3, 63, 127
2, 214916, Note_on_c, 7, 67, 127
2, 214916, Note_on_c, 2, 62, 127
2, 214916, Note_on_c, 2, 50, 127
2, 215023, Note_off_c, 0, 60, 127
2, 215025, Note_on_c, 11, 58, 127
2, 215132, Note_off_c, 2, 50, 127
2, 215133, Note_off_c, 2, 62, 127
2, 215133, Note_off_c, 7, 67, 127
2, 215134, Note_on_c, 6, 66, 127
2, 215134, Note_on_c, 0, 60, 127
2, 215134, Note_on_c, 2, 50, 127
2, 215241, Note_off_c, 11, 58, 127
2, 215243, Note_on_c, 10, 57, 127
2, 215350, Note_off_c, 2, 50, 127
2, 215351, Note_off_c, 10, 57, 127
2, 215351, Note_off_c, 0, 60, 127
2, 215351, Note_off_c, 6, 66, 127
2, 215352, Note_on_c, 2, 62, 127
2, 215352, Note_on_c, 7, 67, 127
2, 215352, Note_on_c, 11, 58, 127
2, 215460, Note_off_c, 11, 58, 127
2, 215461, Note_on_c, 2, 50, 127
2, 215569, Note_off_c, 2, 50, 127
2, 215569, Note_off_c, 7, 67, 127
2, 215569, Note_off_c, 2, 62, 127
2, 215570, Note_on_c, 2, 62, 127
2, 215570, Note_on_c, 4, 52, 127
2, 215678, Note_off_c, 4, 52, 127
2, 215679, Note_on_c, 6, 54, 127
2, 215787, Note_off_c, 6, 54, 127
2, 215787, Note_off_c, 2, 62, 127
2, 215788, Note_on_c, 2, 62, 127
2, 215788, Note_on_c, 7, 55, 127
2, 215896, Note_off_c, 7, 55, 127
2, 215897, Note_on_c, 10, 57, 127
2, 216005, Note_off_c, 10, 57, 127
2, 216005, Note_off_c, 2, 62, 127
2, 216006, Note_on_c, 2, 62, 127
2, 216006, Note_on_c, 11, 58, 127
2, 216115, Note_on_c, 2, 74, 127
2, 216222, Note_off_c, 2, 62, 127
2, 216223, Note_off_c, 11, 58, 127
2, 216224, Note_on_c, 2, 62, 127
2, 216224, Note_on_c, 10, 57, 127
2, 216331, Note_off_c, 2, 74, 127
2, 216333, Note_on_c, 0, 72, 127
2, 216440, Note_off_c, 2, 62, 127
2, 216441, Note_off_c, 10, 57, 127
2, 216442, Note_on_c, 2, 62, 127
2, 216442, Note_on_c, 7, 55, 127
2, 216549, Note_off_c, 0, 72, 127
2, 216551, Note_on_c, 11, 70, 127
2, 216658, Note_off_c, 2, 62, 127
2, 216659, Note_off_c, 11, 70, 127
2, 216659, Note_off_c, 7, 55, 127
2, 216660, Note_on_c, 2, 62, 127
2, 216660, Note_on_c, 10, 57, 127
2, 216769, Note_on_c, 0, 72, 127
2, 216876, Note_off_c, 2, 62, 127
2, 216877, Note_off_c, 10, 57, 127
2, 216878, Note_on_c, 2, 62, 127
2, 216878, Note_on_c, 7, 55, 127
2, 216985, Note_off_c, 0, 72, 127
2, 216987, Note_on_c, 11, 70, 127
2, 217094, Note_off_c, 2, 62, 127
2, 217095, Note_off_c, 7, 55, 127
2, 217096, Note_on_c, 2, 62, 127
2, 217096, Note_on_c, 6, 54, 127
2, 217203, Note_off_c, 11, 70, 127
2, 217205, Note_on_c, 10, 69, 127
2, 217312, Note_off_c, 2, 62, 127
2, 217313, Note_off_c, 10, 69, 127
2, 217313, Note_off_c, 6, 54, 127
2, 217314, Note_on_c, 2, 62, 127
2, 217314, Note_on_c, 11, 70, 127
2, 217314, Note_on_c, 7, 55, 127
2, 217528, Note_off_c, 7, 55, 127
2, 217529, Note_off_c, 11, 70, 127
2, 217529, Note_off_c, 2, 62, 127
2, 217546, Note_on_c, 2, 74, 127
2, 217761, Note_off_c, 2, 74, 127
2, 217762, Note_on_c, 2, 74, 127
2, 217977, Note_off_c, 2, 74, 127
2, 217978, Note_on_c, 2, 74, 127
2, 218193, Note_off_c, 2, 74, 127
2, 218194, Note_on_c, 2, 74, 127
2, 218409, Note_off_c, 2, 74, 127
2, 218410, Note_on_c, 7, 67, 127
2, 218410, Note_on_c, 2, 74, 127
2, 218410, Note_on_c, 11, 70, 127
2, 218625, Note_off_c, 11, 70, 127
2, 218625, Note_off_c, 2, 74, 127
2, 218625, Note_off_c, 7, 67, 127
2, 218626, Note_on_c, 3, 63, 127
2, 218626, Note_on_c, 3, 75, 127
2, 218626, Note_on_c, 0, 72, 127
2, 218733, Note_off_c, 3, 75, 127
2, 218734, Note_on_c, 5, 77, 127
2, 218841, Note_off_c, 5, 77, 127
2, 218841, Note_off_c, 3, 63, 127
2, 218842, Note_on_c, 2, 62, 127
2, 218842, Note_on_c, 7, 79, 127
2, 218949, Note_off_c, 7, 79, 127
2, 218950, Note_on_c, 3, 75, 127
2, 219053, Note_off_c, 0, 72, 127
2, 219056, Note_off_c, 3, 75, 127
2, 219056, Note_off_c, 2, 62, 127
2, 219057, Note_on_c, 0, 60, 127
2, 219057, Note_on_c, 11, 70, 127
2, 219057, Note_on_c, 5, 77, 127
2, 219164, Note_off_c, 5, 77, 127
2, 219165, Note_on_c, 7, 79, 127
2, 219271, Note_off_c, 11, 70, 127
2, 219272, Note_off_c, 7, 79, 127
2, 219272, Note_off_c, 0, 60, 127
2, 219273, Note_on_c, 5, 65, 127
2, 219273, Note_on_c, 0, 72, 127
2, 219273, Note_on_c, 10, 69, 127
2, 219488, Note_off_c, 0, 72, 127
2, 219489, Note_on_c, 0, 72, 127
2, 219704, Note_off_c, 0, 72, 127
2, 219705, Note_on_c, 0, 72, 127
2, 219920, Note_off_c, 0, 72, 127
2, 219920, Note_off_c, 10, 69, 127
2, 219920, Note_off_c, 5, 65, 127
2, 219921, Note_on_c, 0, 72, 127
2, 220136, Note_off_c, 0, 72, 127
2, 220137, Note_on_c, 0, 72, 127
2, 220352, Note_off_c, 0, 72, 127
2, 220353, Note_on_c, 3, 63, 127
2, 220353, Note_on_c, 0, 72, 127
2, 220353, Note_on_c, 10, 69, 127
2, 220568, Note_off_c, 10, 69, 127
2, 220568, Note_off_c, 0, 72, 127
2, 220568, Note_off_c, 3, 63, 127
2, 220569, Note_on_c, 2, 62, 127
2, 220569, Note_on_c, 2, 74, 127
2, 220569, Note_on_c, 11, 70, 127
2, 220676, Note_off_c, 2, 74, 127
2, 220677, Note_on_c, 3, 75, 127
2, 220784, Note_off_c, 3, 75, 127
2, 220784, Note_off_c, 2, 62, 127
2, 220785, Note_on_c, 0, 60, 127
2, 220785, Note_on_c, 5, 77, 127
2, 220892, Note_off_c, 5, 77, 127
2, 220893, Note_on_c, 2, 74, 127
2, 220996, Note_off_c, 11, 70, 127
2, 220999, Note_off_c, 2, 74, 127
2, 220999, Note_off_c, 0, 60, 127
2, 221000, Note_on_c, 11, 58, 127
2, 221000, Note_on_c, 8, 68, 127
2, 221000, Note_on_c, 3, 75, 127
2, 221107, Note_off_c, 3, 75, 127
2, 221108, Note_on_c, 5, 77, 127
2, 221214, Note_off_c, 8, 68, 127
2, 221215, Note_off_c, 5, 77, 127
2, 221215, Note_off_c, 11, 58, 127
2, 221216, Note_on_c, 3, 63, 127
2, 221216, Note_on_c, 7, 67, 127
2, 221216, Note_on_c, 11, 70, 127
2, 221323, Note_off_c, 11, 70, 127
2, 221324, Note_on_c, 0, 72, 127
2, 221431, Note_off_c, 0, 72, 127
2, 221432, Note_on_c, 2, 74, 127
2, 221539, Note_off_c, 2, 74, 127
2, 221540, Note_on_c, 11, 70, 127
2, 221647, Note_off_c, 11, 70, 127
2, 221647, Note_off_c, 3, 63, 127
2, 221648, Note_on_c, 2, 62, 127
2, 221648, Note_on_c, 0, 72, 127
2, 221755, Note_off_c, 0, 72, 127
2, 221756, Note_on_c, 2, 74, 127
2, 221863, Note_off_c, 2, 74, 127
2, 221863, Note_off_c, 2, 62, 127
2, 221864, Note_on_c, 0, 60, 127
2, 221864, Note_on_c, 3, 75, 127
2, 221971, Note_off_c, 3, 75, 127
2, 221972, Note_on_c, 5, 77, 127
2, 222079, Note_off_c, 5, 77, 127
2, 222080, Note_on_c, 7, 79, 127
2, 222187, Note_off_c, 7, 79, 127
2, 222188, Note_on_c, 3, 75, 127
2, 222295, Note_off_c, 3, 75, 127
2, 222295, Note_off_c, 0, 60, 127
2, 222296, Note_off_c, 7, 67, 127
2, 222296, Note_on_c, 2, 62, 127
2, 222296, Note_on_c, 5, 65, 127
2, 222296, Note_on_c, 5, 77, 127
2, 222403, Note_off_c, 5, 77, 127
2, 222404, Note_on_c, 7, 79, 127
2, 222511, Note_off_c, 7, 79, 127
2, 222511, Note_off_c, 5, 65, 127
2, 222511, Note_off_c, 2, 62, 127
2, 222512, Note_on_c, 0, 60, 127
2, 222512, Note_on_c, 3, 63, 127
2, 222512, Note_on_c, 10, 81, 127
2, 222619, Note_off_c, 10, 81, 127
2, 222620, Note_on_c, 11, 82, 127
2, 222727, Note_off_c, 11, 82, 127
2, 222727, Note_off_c, 3, 63, 127
2, 222727, Note_off_c, 0, 60, 127
2, 222728, Note_on_c, 2, 62, 127
2, 222728, Note_on_c, 11, 58, 127
2, 222728, Note_on_c, 0, 84, 127
2, 222835, Note_off_c, 0, 84, 127
2, 222836, Note_on_c, 10, 81, 127
2, 222943, Note_off_c, 10, 81, 127
2, 222943, Note_off_c, 11, 58, 127
2, 222943, Note_off_c, 2, 62, 127
2, 222944, Note_on_c, 10, 57, 127
2, 222944, Note_on_c, 0, 60, 127
2, 222944, Note_on_c, 11, 82, 127
2, 223051, Note_off_c, 11, 82, 127
2, 223052, Note_on_c, 0, 84, 127
2, 223159, Note_off_c, 0, 84, 127
2, 223159, Note_off_c, 0, 60, 127
2, 223159, Note_off_c, 10, 57, 127
2, 223160, Note_on_c, 2, 62, 127
2, 223160, Note_on_c, 6, 78, 127
2, 223376, Note_on_c, 10, 69, 127
2, 223591, Note_off_c, 10, 69, 127
2, 223592, Note_on_c, 10, 69, 127
2, 223807, Note_off_c, 10, 69, 127
2, 223807, Note_off_c, 6, 78, 127
2, 223807, Note_off_c, 2, 62, 127
2, 223808, Note_on_c, 10, 69, 127
2, 223916, Note_on_c, 3, 63, 127
2, 224023, Note_off_c, 3, 63, 127
2, 224023, Note_off_c, 10, 69, 127
2, 224024, Note_on_c, 2, 62, 127
2, 224024, Note_on_c, 10, 69, 127
2, 224131, Note_off_c, 2, 62, 127
2, 224132, Note_on_c, 0, 60, 127
2, 224239, Note_off_c, 0, 60, 127
2, 224239, Note_off_c, 10, 69, 127
2, 224240, Note_on_c, 11, 58, 127
2, 224240, Note_on_c, 10, 69, 127
2, 224347, Note_off_c, 11, 58, 127
2, 224348, Note_on_c, 10, 57, 127
2, 224455, Note_off_c, 10, 57, 127
2, 224455, Note_off_c, 10, 69, 127
2, 224456, Note_on_c, 7, 55, 127
2, 224456, Note_on_c, 5, 77, 127
2, 224456, Note_on_c, 12, 71, 127
2, 224563, Note_off_c, 12, 71, 127
2, 224563, Note_off_c, 7, 55, 127
2, 224564, Note_on_c, 10, 57, 127
2, 224564, Note_on_c, 0, 72, 127
2, 224671, Note_off_c, 0, 72, 127
2, 224671, Note_off_c, 10, 57, 127
2, 224672, Note_on_c, 12, 59, 127
2, 224672, Note_on_c, 2, 74, 127
2, 224779, Note_off_c, 2, 74, 127
2, 224779, Note_off_c, 12, 59, 127
2, 224780, Note_on_c, 7, 55, 127
2, 224780, Note_on_c, 12, 71, 127
2, 224887, Note_off_c, 12, 71, 127
2, 224887, Note_off_c, 7, 55, 127
2, 224888, Note_on_c, 10, 57, 127
2, 224888, Note_on_c, 0, 72, 127
2, 224995, Note_off_c, 0, 72, 127
2, 224995, Note_off_c, 10, 57, 127
2, 224996, Note_on_c, 12, 59, 127
2, 224996, Note_on_c, 2, 74, 127
2, 225103, Note_off_c, 2, 74, 127
2, 225103, Note_off_c, 12, 59, 127
2, 225103, Note_off_c, 5, 77, 127
2, 225104, Note_on_c, 0, 60, 127
2, 225104, Note_on_c, 7, 67, 127
2, 225104, Note_on_c, 4, 76, 127
2, 225319, Note_off_c, 7, 67, 127
2, 225320, Note_on_c, 7, 67, 127
2, 225535, Note_off_c, 7, 67, 127
2, 225536, Note_on_c, 7, 67, 127
2, 225751, Note_off_c, 7, 67, 127
2, 225751, Note_off_c, 4, 76, 127
2, 225752, Note_on_c, 7, 67, 127
2, 225859, Note_off_c, 0, 60, 127
2, 225860, Note_on_c, 2, 62, 127
2, 225967, Note_off_c, 2, 62, 127
2, 225967, Note_off_c, 7, 67, 127
2, 225968, Note_on_c, 0, 60, 127
2, 225968, Note_on_c, 7, 67, 127
2, 226075, Note_off_c, 0, 60, 127
2, 226076, Note_on_c, 11, 58, 127
2, 226183, Note_off_c, 11, 58, 127
2, 226183, Note_off_c, 7, 67, 127
2, 226184, Note_on_c, 10, 57, 127
2, 226184, Note_on_c, 7, 67, 127
2, 226291, Note_off_c, 10, 57, 127
2, 226292, Note_on_c, 7, 55, 127
2, 226399, Note_off_c, 7, 55, 127
2, 226399, Note_off_c, 7, 67, 127
2, 226400, Note_on_c, 5, 53, 127
2, 226400, Note_on_c, 10, 69, 127
2, 226400, Note_on_c, 3, 75, 127
2, 226507, Note_off_c, 10, 69, 127
2, 226507, Note_off_c, 5, 53, 127
2, 226508, Note_on_c, 7, 55, 127
2, 226508, Note_on_c, 11, 70, 127
2, 226615, Note_off_c, 11, 70, 127
2, 226615, Note_off_c, 7, 55, 127
2, 226616, Note_on_c, 10, 57, 127
2, 226616, Note_on_c, 0, 72, 127
2, 226723, Note_off_c, 0, 72, 127
2, 226723, Note_off_c, 10, 57, 127
2, 226724, Note_on_c, 5, 53, 127
2, 226724, Note_on_c, 10, 69, 127
2, 226831, Note_off_c, 10, 69, 127
2, 226831, Note_off_c, 5, 53, 127
2, 226832, Note_on_c, 7, 55, 127
2, 226832, Note_on_c, 11, 70, 127
2, 226939, Note_off_c, 11, 70, 127
2, 226939, Note_off_c, 7, 55, 127
2, 226940, Note_on_c, 10, 57, 127
2, 226940, Note_on_c, 0, 72, 127
2, 227047, Note_off_c, 0, 72, 127
2, 227047, Note_off_c, 10, 57, 127
2, 227047, Note_off_c, 3, 75, 127
2, 227048, Note_on_c, 11, 58, 127
2, 227048, Note_on_c, 2, 74, 127
2, 227155, Note_off_c, 11, 58, 127
2, 227156, Note_on_c, 10, 57, 127
2, 227263, Note_off_c, 10, 57, 127
2, 227264, Note_on_c, 11, 58, 127
2, 227264, Note_on_c, 5, 77, 127
2, 227371, Note_off_c, 11, 58, 127
2, 227372, Note_on_c, 2, 62, 127
2, 227479, Note_off_c, 2, 62, 127
2, 227479, Note_off_c, 5, 77, 127
2, 227480, Note_on_c, 10, 57, 127
2, 227480, Note_on_c, 11, 82, 127
2, 227587, Note_off_c, 10, 57, 127
2, 227588, Note_on_c, 11, 58, 127
2, 227695, Note_off_c, 11, 58, 127
2, 227695, Note_off_c, 11, 82, 127
2, 227695, Note_off_c, 2, 74, 127
2, 227696, Note_on_c, 7, 55, 127
2, 227696, Note_on_c, 3, 75, 127
2, 227803, Note_off_c, 7, 55, 127
2, 227804, Note_on_c, 10, 57, 127
2, 227911, Note_off_c, 10, 57, 127
2, 227912, Note_on_c, 11, 58, 127
2, 227912, Note_on_c, 7, 79, 127
2, 228019, Note_off_c, 11, 58, 127
2, 228020, Note_on_c, 2, 62, 127
2, 228127, Note_off_c, 2, 62, 127
2, 228127, Note_off_c, 7, 79, 127
2, 228128, Note_on_c, 10, 57, 127
2, 228128, Note_on_c, 11, 82, 127
2, 228235, Note_off_c, 10, 57, 127
2, 228236, Note_on_c, 11, 58, 127
2, 228343, Note_off_c, 11, 58, 127
2, 228343, Note_off_c, 11, 82, 127
2, 228343, Note_off_c, 3, 75, 127
2, 228344, Note_on_c, 5, 53, 127
2, 228344, Note_on_c, 2, 74, 127
2, 228451, Note_off_c, 5, 53, 127
2, 228452, Note_on_c, 10, 57, 127
2, 228559, Note_off_c, 10, 57, 127
2, 228560, Note_on_c, 11, 58, 127
2, 228560, Note_on_c, 5, 77, 127
2, 228667, Note_off_c, 11, 58, 127
2, 228668, Note_on_c, 2, 62, 127
2, 228775, Note_off_c, 2, 62, 127
2, 228775, Note_off_c, 5, 77, 127
2, 228776, Note_on_c, 10, 57, 127
2, 228776, Note_on_c, 11, 82, 127
2, 228883, Note_off_c, 10, 57, 127
2, 228884, Note_on_c, 11, 58, 127
2, 228991, Note_off_c, 11, 58, 127
2, 228991, Note_off_c, 11, 82, 127
2, 228991, Note_off_c, 2, 74, 127
2, 228992, Note_on_c, 3, 51, 127
2, 228992, Note_on_c, 0, 72, 127
2, 229099, Note_off_c, 3, 51, 127
2, 229100, Note_on_c, 10, 57, 127
2, 229207, Note_off_c, 10, 57, 127
2, 229208, Note_on_c, 11, 58, 127
2, 229208, Note_on_c, 7, 79, 127
2, 229315, Note_off_c, 11, 58, 127
2, 229316, Note_on_c, 2, 62, 127
2, 229423, Note_off_c, 2, 62, 127
2, 229423, Note_off_c, 7, 79, 127
2, 229424, Note_on_c, 10, 57, 127
2, 229424, Note_on_c, 11, 82, 127
2, 229531, Note_off_c, 10, 57, 127
2, 229532, Note_on_c, 11, 58, 127
2, 229639, Note_off_c, 11, 58, 127
2, 229639, Note_off_c, 11, 82, 127
2, 229639, Note_off_c, 0, 72, 127
2, 229640, Note_on_c, 2, 50, 127
2, 229640, Note_on_c, 11, 70, 127
2, 229747, Note_off_c, 2, 50, 127
2, 229748, Note_on_c, 10, 57, 127
2, 229855, Note_off_c, 10, 57, 127
2, 229856, Note_on_c, 11, 58, 127
2, 229856, Note_on_c, 5, 77, 127
2, 229963, Note_off_c, 11, 58, 127
2, 229964, Note_on_c, 2, 62, 127
2, 230071, Note_off_c, 2, 62, 127
2, 230071, Note_off_c, 5, 77, 127
2, 230072, Note_on_c, 10, 57, 127
2, 230072, Note_on_c, 11, 82, 127
2, 230179, Note_off_c, 10, 57, 127
2, 230180, Note_on_c, 11, 58, 127
2, 230287, Note_off_c, 11, 58, 127
2, 230287, Note_off_c, 11, 82, 127
2, 230287, Note_off_c, 11, 70, 127
2, 230288, Note_on_c, 3, 51, 127
2, 230288, Note_on_c, 11, 70, 127
2, 230395, Note_off_c, 3, 51, 127
2, 230396, Note_on_c, 10, 57, 127
2, 230503, Note_off_c, 10, 57, 127
2, 230504, Note_on_c, 11, 58, 127
2, 230504, Note_on_c, 3, 75, 127
2, 230611, Note_off_c, 11, 58, 127
2, 230612, Note_on_c, 2, 62, 127
2, 230719, Note_off_c, 2, 62, 127
2, 230719, Note_off_c, 3, 75, 127
2, 230720, Note_on_c, 10, 57, 127
2, 230720, Note_on_c, 7, 79, 127
2, 230827, Note_off_c, 10, 57, 127
2, 230828, Note_on_c, 11, 58, 127
2, 230935, Note_off_c, 11, 58, 127
2, 230935, Note_off_c, 7, 79, 127
2, 230935, Note_off_c, 11, 70, 127
2, 230936, Note_on_c, 10, 45, 127
2, 230936, Note_on_c, 0, 72, 127
2, 231043, Note_off_c, 0, 72, 127
2, 231044, Note_on_c, 2, 74, 127
2, 231151, Note_off_c, 2, 74, 127
2, 231152, Note_on_c, 3, 75, 127
2, 231259, Note_off_c, 3, 75, 127
2, 231260, Note_on_c, 7, 79, 127
2, 231367, Note_off_c, 7, 79, 127
2, 231368, Note_on_c, 2, 74, 127
2, 231475, Note_off_c, 2, 74, 127
2, 231476, Note_on_c, 3, 75, 127
2, 231583, Note_off_c, 3, 75, 127
2, 231584, Note_on_c, 0, 72, 127
2, 231691, Note_off_c, 0, 72, 127
2, 231691, Note_off_c, 10, 45, 127
2, 231692, Note_on_c, 11, 46, 127
2, 231692, Note_on_c, 2, 74, 127
2, 231799, Note_off_c, 2, 74, 127
2, 231799, Note_off_c, 11, 46, 127
2, 231800, Note_on_c, 0, 48, 127
2, 231800, Note_on_c, 3, 75, 127
2, 231907, Note_off_c, 3, 75, 127
2, 231907, Note_off_c, 0, 48, 127
2, 231908, Note_on_c, 10, 45, 127
2, 231908, Note_on_c, 5, 77, 127
2, 232015, Note_off_c, 5, 77, 127
2, 232015, Note_off_c, 10, 45, 127
2, 232016, Note_on_c, 11, 46, 127
2, 232016, Note_on_c, 7, 79, 127
2, 232123, Note_off_c, 7, 79, 127
2, 232123, Note_off_c, 11, 46, 127
2, 232124, Note_on_c, 0, 48, 127
2, 232124, Note_on_c, 10, 81, 127
2, 232231, Note_off_c, 10, 81, 127
2, 232231, Note_off_c, 0, 48, 127
2, 232232, Note_on_c, 5, 41, 127
2, 232232, Note_on_c, 11, 82, 127
2, 232339, Note_off_c, 11, 82, 127
2, 232340, Note_on_c, 10, 81, 127
2, 232447, Note_off_c, 10, 81, 127
2, 232447, Note_off_c, 5, 41, 127
2, 232448, Note_on_c, 5, 53, 127
2, 232448, Note_on_c, 0, 84, 127
2, 232555, Note_off_c, 0, 84, 127
2, 232556, Note_on_c, 11, 82, 127
2, 232663, Note_off_c, 11, 82, 127
2, 232663, Note_off_c, 5, 53, 127
2, 232664, Note_on_c, 3, 51, 127
2, 232664, Note_on_c, 10, 81, 127
2, 232771, Note_off_c, 10, 81, 127
2, 232772, Note_on_c, 7, 79, 127
2, 232879, Note_off_c, 7, 79, 127
2, 232879, Note_off_c, 3, 51, 127
2, 232880, Note_on_c, 2, 50, 127
2, 232880, Note_on_c, 5, 77, 127
2, 232987, Note_off_c, 5, 77, 127
2, 232988, Note_on_c, 11, 82, 127
2, 233095, Note_off_c, 11, 82, 127
2, 233096, Note_on_c, 10, 81, 127
2, 233203, Note_off_c, 10, 81, 127
2, 233204, Note_on_c, 7, 79, 127
2, 233311, Note_off_c, 7, 79, 127
2, 233311, Note_off_c, 2, 50, 127
2, 233312, Note_on_c, 0, 48, 127
2, 233312, Note_on_c, 5, 77, 127
2, 233419, Note_off_c, 5, 77, 127
2, 233420, Note_on_c, 3, 75, 127
2, 233527, Note_off_c, 3, 75, 127
2, 233527, Note_off_c, 0, 48, 127
2, 233528, Note_on_c, 11, 46, 127
2, 233528, Note_on_c, 2, 74, 127
2, 233635, Note_off_c, 2, 74, 127
2, 233636, Note_on_c, 3, 75, 127
2, 233743, Note_off_c, 3, 75, 127
2, 233743, Note_off_c, 11, 46, 127
2, 233744, Note_on_c, 11, 58, 127
2, 233744, Note_on_c, 5, 77, 127
2, 233851, Note_off_c, 5, 77, 127
2, 233852, Note_on_c, 0, 72, 127
2, 233959, Note_off_c, 0, 72, 127
2, 233959, Note_off_c, 11, 58, 127
2, 233960, Note_on_c, 8, 56, 127
2, 233960, Note_on_c, 2, 74, 127
2, 234067, Note_off_c, 2, 74, 127
2, 234068, Note_on_c, 11, 70, 127
2, 234175, Note_off_c, 11, 70, 127
2, 234175, Note_off_c, 8, 56, 127
2, 234176, Note_on_c, 7, 55, 127
2, 234176, Note_on_c, 3, 75, 127
2, 234283, Note_off_c, 3, 75, 127
2, 234284, Note_on_c, 5, 77, 127
2, 234391, Note_off_c, 5, 77, 127
2, 234391, Note_off_c, 7, 55, 127
2, 234392, Note_on_c, 5, 53, 127
2, 234392, Note_on_c, 7, 79, 127
2, 234499, Note_off_c, 7, 79, 127
2, 234500, Note_on_c, 2, 74, 127
2, 234607, Note_off_c, 2, 74, 127
2, 234607, Note_off_c, 5, 53, 127
2, 234608, Note_on_c, 3, 51, 127
2, 234608, Note_on_c, 3, 75, 127
2, 234715, Note_off_c, 3, 75, 127
2, 234716, Note_on_c, 0, 72, 127
2, 234823, Note_off_c, 0, 72, 127
2, 234823, Note_off_c, 3, 51, 127
2, 234824, Note_on_c, 3, 63, 127
2, 234824, Note_on_c, 5, 77, 127
2, 234931, Note_off_c, 5, 77, 127
2, 234931, Note_off_c, 3, 63, 127
2, 234932, Note_on_c, 2, 62, 127
2, 234932, Note_on_c, 7, 79, 127
2, 235039, Note_off_c, 7, 79, 127
2, 235039, Note_off_c, 2, 62, 127
2, 235040, Note_on_c, 0, 60, 127
2, 235040, Note_on_c, 10, 81, 127
2, 235147, Note_off_c, 10, 81, 127
2, 235147, Note_off_c, 0, 60, 127
2, 235148, Note_on_c, 11, 58, 127
2, 235148, Note_on_c, 2, 74, 127
2, 235255, Note_off_c, 2, 74, 127
2, 235255, Note_off_c, 11, 58, 127
2, 235256, Note_on_c, 0, 60, 127
2, 235256, Note_on_c, 3, 75, 127
2, 235363, Note_off_c, 3, 75, 127
2, 235363, Note_off_c, 0, 60, 127
2, 235364, Note_on_c, 10, 57, 127
2, 235364, Note_on_c, 0, 72, 127
2, 235471, Note_off_c, 0, 72, 127
2, 235471, Note_off_c, 10, 57, 127
2, 235472, Note_on_c, 11, 58, 127
2, 235472, Note_on_c, 2, 74, 127
2, 235579, Note_off_c, 2, 74, 127
2, 235580, Note_on_c, 10, 81, 127
2, 235687, Note_off_c, 10, 81, 127
2, 235687, Note_off_c, 11, 58, 127
2, 235688, Note_on_c, 2, 50, 127
2, 235688, Note_on_c, 11, 82, 127
2, 235795, Note_off_c, 11, 82, 127
2, 235796, Note_on_c, 5, 77, 127
2, 235903, Note_off_c, 5, 77, 127
2, 235903, Note_off_c, 2, 50, 127
2, 235904, Note_on_c, 3, 51, 127
2, 235904, Note_on_c, 7, 79, 127
2, 236011, Note_off_c, 7, 79, 127
2, 236012, Note_on_c, 3, 75, 127
2, 236119, Note_off_c, 3, 75, 127
2, 236119, Note_off_c, 3, 51, 127
2, 236120, Note_on_c, 5, 53, 127
2, 236120, Note_on_c, 2, 74, 127
2, 236227, Note_off_c, 2, 74, 127
2, 236228, Note_on_c, 0, 72, 127
2, 236335, Note_off_c, 0, 72, 127
2, 236335, Note_off_c, 5, 53, 127
2, 236336, Note_on_c, 3, 51, 127
2, 236336, Note_on_c, 3, 75, 127
2, 236443, Note_off_c, 3, 75, 127
2, 236444, Note_on_c, 2, 74, 127
2, 236551, Note_off_c, 2, 74, 127
2, 236551, Note_off_c, 3, 51, 127
2, 236552, Note_on_c, 5, 53, 127
2, 236552, Note_on_c, 0, 72, 127
2, 236659, Note_off_c, 0, 72, 127
2, 236660, Note_on_c, 2, 74, 127
2, 236767, Note_off_c, 2, 74, 127
2, 236767, Note_off_c, 5, 53, 127
2, 236774, Note_on_c, 11, 46, 127
2, 236774, Note_on_c, 11, 70, 127
2, 236892, Note_on_c, 2, 74, 127
2, 236999, Note_off_c, 2, 74, 127
2, 237000, Note_on_c, 5, 77, 127
2, 237074, Note_off_c, 11, 70, 127
2, 237107, Note_off_c, 5, 77, 127
2, 237108, Note_on_c, 11, 70, 127
2, 237215, Note_off_c, 11, 70, 127
2, 237216, Note_on_c, 2, 74, 127
2, 237323, Note_off_c, 2, 74, 127
2, 237324, Note_on_c, 5, 77, 127
2, 237431, Note_off_c, 5, 77, 127
2, 237432, Note_on_c, 11, 82, 127
2, 237529, Note_off_c, 11, 46, 127
2, 237540, Note_on_c, 2, 50, 127
2, 237647, Note_off_c, 2, 50, 127
2, 237647, Note_off_c, 11, 82, 127
2, 237648, Note_on_c, 2, 74, 127
2, 237648, Note_on_c, 11, 82, 127
2, 237648, Note_on_c, 5, 53, 127
2, 237755, Note_off_c, 5, 53, 127
2, 237756, Note_on_c, 11, 46, 127
2, 237863, Note_off_c, 11, 46, 127
2, 237863, Note_off_c, 11, 82, 127
2, 237863, Note_off_c, 2, 74, 127
2, 237864, Note_on_c, 2, 74, 127
2, 237864, Note_on_c, 11, 82, 127
2, 237864, Note_on_c, 2, 50, 127
2, 237971, Note_off_c, 2, 50, 127
2, 237972, Note_on_c, 5, 53, 127
2, 238079, Note_off_c, 5, 53, 127
2, 238079, Note_off_c, 11, 82, 127
2, 238079, Note_off_c, 2, 74, 127
2, 238080, Note_on_c, 11, 82, 127
2, 238080, Note_on_c, 2, 74, 127
2, 238080, Note_on_c, 11, 58, 127
2, 238187, Note_off_c, 11, 58, 127
2, 238188, Note_on_c, 2, 62, 127
2, 238295, Note_off_c, 2, 62, 127
2, 238295, Note_off_c, 2, 74, 127
2, 238295, Note_off_c, 11, 82, 127
2, 238296, Note_on_c, 2, 74, 127
2, 238296, Note_on_c, 11, 82, 127
2, 238296, Note_on_c, 5, 65, 127
2, 238403, Note_off_c, 5, 65, 127
2, 238404, Note_on_c, 11, 58, 127
2, 238511, Note_off_c, 11, 58, 127
2, 238511, Note_off_c, 11, 82, 127
2, 238511, Note_off_c, 2, 74, 127
2, 238512, Note_on_c, 11, 82, 127
2, 238512, Note_on_c, 2, 74, 127
2, 238512, Note_on_c, 2, 62, 127
2, 238619, Note_off_c, 2, 62, 127
2, 238620, Note_on_c, 5, 65, 127
2, 238727, Note_off_c, 5, 65, 127
2, 238727, Note_off_c, 2, 74, 127
2, 238727, Note_off_c, 11, 82, 127
2, 238728, Note_on_c, 0, 72, 127
2, 238728, Note_on_c, 11, 82, 127
2, 238728, Note_on_c, 3, 51, 127
2, 238835, Note_off_c, 0, 72, 127
2, 238836, Note_on_c, 7, 79, 127
2, 238928, Note_off_c, 11, 82, 127
2, 238943, Note_off_c, 7, 79, 127
2, 238944, Note_on_c, 3, 75, 127
2, 239043, Note_off_c, 3, 51, 127
2, 239052, Note_on_c, 7, 79, 127
2, 239094, Note_off_c, 3, 75, 127
2, 239159, Note_off_c, 7, 79, 127
2, 239160, Note_on_c, 3, 75, 127
2, 239268, Note_on_c, 0, 72, 127
2, 239310, Note_off_c, 3, 75, 127
2, 239375, Note_off_c, 0, 72, 127
2, 239376, Note_on_c, 10, 81, 127
2, 239376, Note_on_c, 5, 41, 127
2, 239483, Note_off_c, 5, 41, 127
2, 239484, Note_on_c, 10, 45, 127
2, 239591, Note_off_c, 10, 45, 127
2, 239591, Note_off_c, 10, 81, 127
2, 239592, Note_on_c, 0, 72, 127
2, 239592, Note_on_c, 10, 81, 127
2, 239592, Note_on_c, 0, 48, 127
2, 239699, Note_off_c, 0, 48, 127
2, 239700, Note_on_c, 5, 41, 127
2, 239807, Note_off_c, 5, 41, 127
2, 239807, Note_off_c, 10, 81, 127
2, 239807, Note_off_c, 0, 72, 127
2, 239808, Note_on_c, 0, 72, 127
2, 239808, Note_on_c, 10, 81, 127
2, 239808, Note_on_c, 10, 45, 127
2, 239915, Note_off_c, 10, 45, 127
2, 239916, Note_on_c, 0, 48, 127
2, 240023, Note_off_c, 0, 48, 127
2, 240023, Note_off_c, 10, 81, 127
2, 240023, Note_off_c, 0, 72, 127
2, 240024, Note_on_c, 10, 81, 127
2, 240024, Note_on_c, 0, 72, 127
2, 240024, Note_on_c, 5, 53, 127
2, 240131, Note_off_c, 5, 53, 127
2, 240132, Note_on_c, 10, 57, 127
2, 240239, Note_off_c, 10, 57, 127
2, 240239, Note_off_c, 0, 72, 127
2, 240239, Note_off_c, 10, 81, 127
2, 240240, Note_on_c, 0, 72, 127
2, 240240, Note_on_c, 10, 81, 127
2, 240240, Note_on_c, 0, 60, 127
2, 240347, Note_off_c, 0, 60, 127
2, 240348, Note_on_c, 5, 53, 127
2, 240455, Note_off_c, 5, 53, 127
2, 240455, Note_off_c, 10, 81, 127
2, 240455, Note_off_c, 0, 72, 127
2, 240456, Note_on_c, 0, 72, 127
2, 240456, Note_on_c, 10, 81, 127
2, 240456, Note_on_c, 10, 57, 127
2, 240563, Note_off_c, 10, 57, 127
2, 240564, Note_on_c, 0, 60, 127
2, 240671, Note_off_c, 0, 60, 127
2, 240671, Note_off_c, 10, 81, 127
2, 240671, Note_off_c, 0, 72, 127
2, 240672, Note_on_c, 11, 70, 127
2, 240672, Note_on_c, 8, 80, 127
2, 240672, Note_on_c, 2, 50, 127
2, 240779, Note_off_c, 11, 70, 127
2, 240780, Note_on_c, 5, 77, 127
2, 240872, Note_off_c, 8, 80, 127
2, 240887, Note_off_c, 5, 77, 127
2, 240888, Note_on_c, 2, 74, 127
2, 240987, Note_off_c, 2, 50, 127
2, 240996, Note_on_c, 5, 77, 127
2, 241038, Note_off_c, 2, 74, 127
2, 241103, Note_off_c, 5, 77, 127
2, 241104, Note_on_c, 2, 74, 127
2, 241212, Note_on_c, 11, 70, 127
2, 241254, Note_off_c, 2, 74, 127
2, 241319, Note_off_c, 11, 70, 127
2, 241320, Note_on_c, 7, 79, 127
2, 241320, Note_on_c, 3, 39, 127
2, 241427, Note_off_c, 3, 39, 127
2, 241428, Note_on_c, 7, 43, 127
2, 241535, Note_off_c, 7, 43, 127
2, 241535, Note_off_c, 7, 79, 127
2, 241536, Note_on_c, 11, 70, 127
2, 241536, Note_on_c, 7, 79, 127
2, 241536, Note_on_c, 11, 46, 127
2, 241643, Note_off_c, 11, 46, 127
2, 241644, Note_on_c, 3, 39, 127
2, 241751, Note_off_c, 3, 39, 127
2, 241751, Note_off_c, 7, 79, 127
2, 241751, Note_off_c, 11, 70, 127
2, 241752, Note_on_c, 11, 70, 127
2, 241752, Note_on_c, 7, 79, 127
2, 241752, Note_on_c, 7, 43, 127
2, 241859, Note_off_c, 7, 43, 127
2, 241860, Note_on_c, 11, 46, 127
2, 241967, Note_off_c, 11, 46, 127
2, 241967, Note_off_c, 7, 79, 127
2, 241967, Note_off_c, 11, 70, 127
2, 241968, Note_on_c, 7, 79, 127
2, 241968, Note_on_c, 11, 70, 127
2, 241968, Note_on_c, 3, 51, 127
2, 242075, Note_off_c, 3, 51, 127
2, 242076, Note_on_c, 7, 55, 127
2, 242183, Note_off_c, 7, 55, 127
2, 242183, Note_off_c, 11, 70, 127
2, 242183, Note_off_c, 7, 79, 127
2, 242184, Note_on_c, 11, 70, 127
2, 242184, Note_on_c, 7, 79, 127
2, 242184, Note_on_c, 11, 58, 127
2, 242291, Note_off_c, 11, 58, 127
2, 242292, Note_on_c, 3, 51, 127
2, 242399, Note_off_c, 3, 51, 127
2, 242399, Note_off_c, 7, 79, 127
2, 242399, Note_off_c, 11, 70, 127
2, 242400, Note_on_c, 7, 79, 127
2, 242400, Note_on_c, 11, 70, 127
2, 242400, Note_on_c, 7, 55, 127
2, 242507, Note_off_c, 7, 55, 127
2, 242508, Note_on_c, 11, 58, 127
2, 242615, Note_off_c, 11, 58, 127
2, 242615, Note_off_c, 11, 70, 127
2, 242615, Note_off_c, 7, 79, 127
2, 242616, Note_on_c, 7, 79, 127
2, 242616, Note_on_c, 3, 75, 127
2, 242616, Note_on_c, 0, 48, 127
2, 242723, Note_off_c, 0, 48, 127
2, 242724, Note_on_c, 3, 51, 127
2, 242831, Note_off_c, 3, 51, 127
2, 242831, Note_off_c, 3, 75, 127
2, 242832, Note_on_c, 2, 74, 127
2, 242832, Note_on_c, 7, 55, 127
2, 242939, Note_off_c, 7, 55, 127
2, 242940, Note_on_c, 0, 48, 127
2, 243047, Note_off_c, 0, 48, 127
2, 243047, Note_off_c, 2, 74, 127
2, 243048, Note_on_c, 0, 72, 127
2, 243048, Note_on_c, 3, 51, 127
2, 243155, Note_off_c, 3, 51, 127
2, 243156, Note_on_c, 7, 55, 127
2, 243263, Note_off_c, 7, 55, 127
2, 243263, Note_off_c, 0, 72, 127
2, 243263, Note_off_c, 7, 79, 127
2, 243264, Note_on_c, 0, 72, 127
2, 243264, Note_on_c, 0, 84, 127
2, 243264, Note_on_c, 10, 45, 127
2, 243371, Note_off_c, 10, 45, 127
2, 243372, Note_on_c, 0, 48, 127
2, 243479, Note_off_c, 0, 48, 127
2, 243479, Note_off_c, 0, 84, 127
2, 243480, Note_on_c, 11, 82, 127
2, 243480, Note_on_c, 3, 51, 127
2, 243587, Note_off_c, 3, 51, 127
2, 243588, Note_on_c, 10, 45, 127
2, 243695, Note_off_c, 10, 45, 127
2, 243695, Note_off_c, 11, 82, 127
2, 243696, Note_on_c, 10, 81, 127
2, 243696, Note_on_c, 0, 48, 127
2, 243803, Note_off_c, 0, 48, 127
2, 243804, Note_on_c, 3, 51, 127
2, 243911, Note_off_c, 3, 51, 127
2, 243911, Note_off_c, 10, 81, 127
2, 243912, Note_on_c, 10, 81, 127
2, 243912, Note_on_c, 6, 42, 127
2, 244019, Note_off_c, 6, 42, 127
2, 244020, Note_on_c, 10, 45, 127
2, 244127, Note_off_c, 10, 45, 127
2, 244127, Note_off_c, 10, 81, 127
2, 244128, Note_on_c, 7, 79, 127
2, 244128, Note_on_c, 0, 48, 127
2, 244235, Note_off_c, 0, 48, 127
2, 244236, Note_on_c, 6, 42, 127
2, 244343, Note_off_c, 6, 42, 127
2, 244343, Note_off_c, 7, 79, 127
2, 244344, Note_on_c, 6, 78, 127
2, 244344, Note_on_c, 10, 45, 127
2, 244451, Note_off_c, 10, 45, 127
2, 244452, Note_on_c, 0, 48, 127
2, 244559, Note_off_c, 0, 48, 127
2, 244559, Note_off_c, 6, 78, 127
2, 244560, Note_on_c, 6, 78, 127
2, 244560, Note_on_c, 2, 38, 127
2, 244659, Note_off_c, 0, 72, 127
2, 244668, Note_on_c, 0, 72, 127
2, 244774, Note_off_c, 6, 78, 127
2, 244775, Note_off_c, 0, 72, 127
2, 244775, Note_off_c, 2, 38, 127
2, 244776, Note_on_c, 2, 74, 127
2, 244776, Note_on_c, 2, 50, 127
2, 244883, Note_off_c, 2, 74, 127
2, 244884, Note_on_c, 6, 78, 127
2, 244991, Note_off_c, 6, 78, 127
2, 244992, Note_on_c, 0, 72, 127
2, 244992, Note_on_c, 2, 38, 127
2, 245099, Note_off_c, 0, 72, 127
2, 245100, Note_on_c, 2, 74, 127
2, 245203, Note_off_c, 2, 50, 127
2, 245206, Note_off_c, 2, 74, 127
2, 245206, Note_off_c, 2, 38, 127
2, 245207, Note_on_c, 11, 70, 127
2, 245207, Note_on_c, 2, 38, 127
2, 245315, Note_on_c, 2, 74, 127
2, 245422, Note_off_c, 2, 74, 127
2, 245422, Note_off_c, 2, 38, 127
2, 245423, Note_on_c, 3, 75, 127
2, 245423, Note_on_c, 2, 50, 127
2, 245530, Note_off_c, 3, 75, 127
2, 245531, Note_on_c, 7, 79, 127
2, 245634, Note_off_c, 11, 70, 127
2, 245637, Note_off_c, 7, 79, 127
2, 245637, Note_off_c, 2, 50, 127
2, 245638, Note_on_c, 2, 74, 127
2, 245638, Note_on_c, 2, 38, 127
2, 245745, Note_off_c, 2, 74, 127
2, 245746, Note_on_c, 3, 75, 127
2, 245853, Note_off_c, 3, 75, 127
2, 245853, Note_off_c, 2, 38, 127
2, 245854, Note_on_c, 0, 72, 127
2, 245854, Note_on_c, 2, 38, 127
2, 245962, Note_on_c, 4, 76, 127
2, 246069, Note_off_c, 4, 76, 127
2, 246069, Note_off_c, 2, 38, 127
2, 246070, Note_on_c, 6, 78, 127
2, 246070, Note_on_c, 2, 50, 127
2, 246177, Note_off_c, 6, 78, 127
2, 246178, Note_on_c, 10, 81, 127
2, 246281, Note_off_c, 0, 72, 127
2, 246284, Note_off_c, 10, 81, 127
2, 246284, Note_off_c, 2, 50, 127
2, 246285, Note_on_c, 4, 76, 127
2, 246285, Note_on_c, 2, 38, 127
2, 246392, Note_off_c, 4, 76, 127
2, 246393, Note_on_c, 6, 78, 127
2, 246500, Note_off_c, 6, 78, 127
2, 246500, Note_off_c, 2, 38, 127
2, 246501, Note_on_c, 2, 74, 127
2, 246501, Note_on_c, 2, 38, 127
2, 246609, Note_on_c, 6, 78, 127
2, 246716, Note_off_c, 6, 78, 127
2, 246716, Note_off_c, 2, 38, 127
2, 246717, Note_on_c, 7, 79, 127
2, 246717, Note_on_c, 2, 50, 127
2, 246824, Note_off_c, 7, 79, 127
2, 246825, Note_on_c, 11, 82, 127
2, 246928, Note_off_c, 2, 74, 127
2, 246931, Note_off_c, 11, 82, 127
2, 246931, Note_off_c, 2, 50, 127
2, 246932, Note_on_c, 6, 78, 127
2, 246932, Note_on_c, 2, 38, 127
2, 247039, Note_off_c, 6, 78, 127
2, 247040, Note_on_c, 7, 79, 127
2, 247147, Note_off_c, 7, 79, 127
2, 247147, Note_off_c, 2, 38, 127
2, 247148, Note_on_c, 4, 76, 127
2, 247148, Note_on_c, 2, 38, 127
2, 247256, Note_on_c, 7, 79, 127
2, 247363, Note_off_c, 7, 79, 127
2, 247363, Note_off_c, 2, 38, 127
2, 247364, Note_on_c, 10, 81, 127
2, 247364, Note_on_c, 2, 50, 127
2, 247471, Note_off_c, 10, 81, 127
2, 247472, Note_on_c, 0, 84, 127
2, 247575, Note_off_c, 4, 76, 127
2, 247578, Note_off_c, 0, 84, 127
2, 247578, Note_off_c, 2, 50, 127
2, 247579, Note_on_c, 7, 79, 127
2, 247579, Note_on_c, 2, 38, 127
2, 247686, Note_off_c, 7, 79, 127
2, 247687, Note_on_c, 10, 81, 127
2, 247794, Note_off_c, 10, 81, 127
2, 247794, Note_off_c, 2, 38, 127
2, 247795, Note_on_c, 6, 78, 127
2, 247795, Note_on_c, 2, 38, 127
2, 247903, Note_on_c, 7, 79, 127
2, 248010, Note_off_c, 7, 79, 127
2, 248010, Note_off_c, 2, 38, 127
2, 248011, Note_on_c, 10, 81, 127
2, 248011, Note_on_c, 2, 50, 127
2, 248118, Note_off_c, 10, 81, 127
2, 248119, Note_on_c, 0, 84, 127
2, 248222, Note_off_c, 6, 78, 127
2, 248225, Note_off_c, 0, 84, 127
2, 248225, Note_off_c, 2, 50, 127
2, 248226, Note_on_c, 6, 78, 127
2, 248226, Note_on_c, 2, 38, 127
2, 248333, Note_off_c, 6, 78, 127
2, 248334, Note_on_c, 10, 81, 127
2, 248441, Note_off_c, 10, 81, 127
2, 248441, Note_off_c, 2, 38, 127
2, 248442, Note_on_c, 11, 82, 127
2, 248442, Note_on_c, 7, 43, 127
2, 248549, Note_off_c, 7, 43, 127
2, 248549, Note_off_c, 11, 82, 127
2, 248550, Note_on_c, 10, 81, 127
2, 248550, Note_on_c, 10, 45, 127
2, 248657, Note_off_c, 10, 45, 127
2, 248657, Note_off_c, 10, 81, 127
2, 248658, Note_on_c, 7, 79, 127
2, 248658, Note_on_c, 11, 46, 127
2, 248765, Note_off_c, 11, 46, 127
2, 248765, Note_off_c, 7, 79, 127
2, 248766, Note_on_c, 5, 77, 127
2, 248766, Note_on_c, 7, 43, 127
2, 248873, Note_off_c, 7, 43, 127
2, 248873, Note_off_c, 5, 77, 127
2, 248874, Note_on_c, 3, 75, 127
2, 248874, Note_on_c, 10, 45, 127
2, 248981, Note_off_c, 10, 45, 127
2, 248981, Note_off_c, 3, 75, 127
2, 248982, Note_on_c, 2, 74, 127
2, 248982, Note_on_c, 11, 46, 127
2, 249089, Note_off_c, 11, 46, 127
2, 249089, Note_off_c, 2, 74, 127
2, 249090, Note_on_c, 3, 75, 127
2, 249090, Note_on_c, 0, 48, 127
2, 249197, Note_off_c, 3, 75, 127
2, 249198, Note_on_c, 0, 72, 127
2, 249305, Note_off_c, 0, 72, 127
2, 249305, Note_off_c, 0, 48, 127
2, 249306, Note_on_c, 10, 81, 127
2, 249306, Note_on_c, 11, 46, 127
2, 249413, Note_off_c, 10, 81, 127
2, 249414, Note_on_c, 2, 74, 127
2, 249521, Note_off_c, 2, 74, 127
2, 249521, Note_off_c, 11, 46, 127
2, 249522, Note_on_c, 3, 75, 127
2, 249522, Note_on_c, 10, 45, 127
2, 249629, Note_off_c, 3, 75, 127
2, 249630, Note_on_c, 0, 72, 127
2, 249737, Note_off_c, 0, 72, 127
2, 249737, Note_off_c, 10, 45, 127
2, 249738, Note_on_c, 2, 74, 127
2, 249738, Note_on_c, 11, 46, 127
2, 249845, Note_off_c, 2, 74, 127
2, 249846, Note_on_c, 11, 70, 127
2, 249953, Note_off_c, 11, 70, 127
2, 249953, Note_off_c, 11, 46, 127
2, 249954, Note_on_c, 7, 79, 127
2, 249954, Note_on_c, 10, 45, 127
2, 250061, Note_off_c, 7, 79, 127
2, 250062, Note_on_c, 0, 72, 127
2, 250169, Note_off_c, 0, 72, 127
2, 250169, Note_off_c, 10, 45, 127
2, 250170, Note_on_c, 2, 74, 127
2, 250170, Note_on_c, 7, 43, 127
2, 250277, Note_off_c, 2, 74, 127
2, 250278, Note_on_c, 11, 70, 127
2, 250385, Note_off_c, 11, 70, 127
2, 250385, Note_off_c, 7, 43, 127
2, 250386, Note_on_c, 0, 72, 127
2, 250386, Note_on_c, 2, 50, 127
2, 250493, Note_off_c, 2, 50, 127
2, 250494, Note_on_c, 2, 62, 127
2, 250601, Note_off_c, 2, 62, 127
2, 250602, Note_on_c, 0, 60, 127
2, 250709, Note_off_c, 0, 60, 127
2, 250710, Note_on_c, 11, 58, 127
2, 250817, Note_off_c, 11, 58, 127
2, 250818, Note_on_c, 10, 57, 127
2, 250925, Note_off_c, 10, 57, 127
2, 250926, Note_on_c, 7, 55, 127
2, 251033, Note_off_c, 7, 55, 127
2, 251034, Note_on_c, 6, 54, 127
2, 251066, Note_off_c, 0, 72, 127
2, 251142, Note_on_c, 3, 75, 127
2, 251249, Note_off_c, 3, 75, 127
2, 251249, Note_off_c, 6, 54, 127
2, 251250, Note_on_c, 2, 74, 127
2, 251250, Note_on_c, 7, 55, 127
2, 251357, Note_off_c, 2, 74, 127
2, 251358, Note_on_c, 0, 72, 127
2, 251465, Note_off_c, 0, 72, 127
2, 251465, Note_off_c, 7, 55, 127
2, 251466, Note_on_c, 11, 70, 127
2, 251466, Note_on_c, 10, 57, 127
2, 251573, Note_off_c, 11, 70, 127
2, 251574, Note_on_c, 10, 69, 127
2, 251681, Note_off_c, 10, 69, 127
2, 251681, Note_off_c, 10, 57, 127
2, 251682, Note_on_c, 11, 70, 127
2, 251682, Note_on_c, 7, 55, 127
2, 251789, Note_off_c, 11, 70, 127
2, 251790, Note_on_c, 2, 74, 127
2, 251897, Note_off_c, 2, 74, 127
2, 251897, Note_off_c, 7, 55, 127
2, 251898, Note_on_c, 0, 72, 127
2, 251898, Note_on_c, 10, 57, 127
2, 252005, Note_off_c, 0, 72, 127
2, 252006, Note_on_c, 11, 70, 127
2, 252113, Note_off_c, 11, 70, 127
2, 252113, Note_off_c, 10, 57, 127
2, 252114, Note_on_c, 10, 69, 127
2, 252114, Note_on_c, 11, 58, 127
2, 252221, Note_off_c, 10, 69, 127
2, 252222, Note_on_c, 7, 67, 127
2, 252329, Note_off_c, 7, 67, 127
2, 252329, Note_off_c, 11, 58, 127
2, 252330, Note_on_c, 6, 66, 127
2, 252330, Note_on_c, 0, 60, 127
2, 252437, Note_off_c, 0, 60, 127
2, 252438, Note_on_c, 10, 57, 127
2, 252545, Note_off_c, 10, 57, 127
2, 252546, Note_on_c, 2, 62, 127
2, 252546, Note_on_c, 6, 54, 127
2, 252653, Note_off_c, 6, 54, 127
2, 252654, Note_on_c, 2, 50, 127
2, 252757, Note_off_c, 6, 66, 127
2, 252760, Note_off_c, 2, 50, 127
2, 252761, Note_on_c, 2, 74, 127
2, 252761, Note_on_c, 6, 54, 127
2, 252868, Note_off_c, 6, 54, 127
2, 252869, Note_on_c, 10, 57, 127
2, 252972, Note_off_c, 2, 62, 127
2, 252975, Note_off_c, 10, 57, 127
2, 252975, Note_off_c, 2, 74, 127
2, 252976, Note_on_c, 2, 74, 127
2, 252976, Note_on_c, 11, 58, 127
2, 253083, Note_off_c, 11, 58, 127
2, 253084, Note_on_c, 7, 55, 127
2, 253191, Note_off_c, 7, 55, 127
2, 253192, Note_on_c, 4, 64, 127
2, 253192, Note_on_c, 4, 52, 127
2, 253299, Note_off_c, 4, 52, 127
2, 253300, Note_on_c, 1, 49, 127
2, 253403, Note_off_c, 2, 74, 127
2, 253406, Note_off_c, 1, 49, 127
2, 253407, Note_on_c, 2, 74, 127
2, 253407, Note_on_c, 4, 52, 127
2, 253514, Note_off_c, 4, 52, 127
2, 253515, Note_on_c, 7, 55, 127
2, 253618, Note_off_c, 4, 64, 127
2, 253621, Note_off_c, 7, 55, 127
2, 253621, Note_off_c, 2, 74, 127
2, 253622, Note_on_c, 2, 74, 127
2, 253622, Note_on_c, 10, 57, 127
2, 253729, Note_off_c, 10, 57, 127
2, 253730, Note_on_c, 6, 54, 127
2, 253837, Note_off_c, 6, 54, 127
2, 253838, Note_on_c, 6, 66, 127
2, 253838, Note_on_c, 3, 51, 127
2, 253945, Note_off_c, 3, 51, 127
2, 253946, Note_on_c, 0, 48, 127
2, 254049, Note_off_c, 2, 74, 127
2, 254052, Note_off_c, 0, 48, 127
2, 254053, Note_on_c, 2, 74, 127
2, 254053, Note_on_c, 3, 51, 127
2, 254160, Note_off_c, 3, 51, 127
2, 254161, Note_on_c, 6, 54, 127
2, 254264, Note_off_c, 6, 66, 127
2, 254267, Note_off_c, 6, 54, 127
2, 254267, Note_off_c, 2, 74, 127
2, 254268, Note_on_c, 2, 74, 127
2, 254268, Note_on_c, 7, 55, 127
2, 254375, Note_off_c, 7, 55, 127
2, 254376, Note_on_c, 4, 52, 127
2, 254483, Note_off_c, 4, 52, 127
2, 254484, Note_on_c, 7, 67, 127
2, 254484, Note_on_c, 1, 49, 127
2, 254591, Note_off_c, 1, 49, 127
2, 254592, Note_on_c, 11, 46, 127
2, 254695, Note_off_c, 2, 74, 127
2, 254698, Note_off_c, 11, 46, 127
2, 254699, Note_on_c, 2, 74, 127
2, 254699, Note_on_c, 1, 49, 127
2, 254806, Note_off_c, 1, 49, 127
2, 254807, Note_on_c, 4, 52, 127
2, 254910, Note_off_c, 7, 67, 127
2, 254913, Note_off_c, 4, 52, 127
2, 254913, Note_off_c, 2, 74, 127
2, 254914, Note_on_c, 2, 74, 127
2, 254914, Note_on_c, 6, 54, 127
2, 255021, Note_off_c, 6, 54, 127
2, 255022, Note_on_c, 3, 51, 127
2, 255129, Note_off_c, 3, 51, 127
2, 255130, Note_on_c, 10, 69, 127
2, 255130, Note_on_c, 0, 48, 127
2, 255237, Note_off_c, 0, 48, 127
2, 255238, Note_on_c, 10, 45, 127
2, 255341, Note_off_c, 2, 74, 127
2, 255344, Note_off_c, 10, 45, 127
2, 255344, Note_off_c, 10, 69, 127
2, 255345, Note_on_c, 11, 70, 127
2, 255345, Note_on_c, 0, 48, 127
2, 255452, Note_off_c, 0, 48, 127
2, 255453, Note_on_c, 3, 51, 127
2, 255560, Note_off_c, 3, 51, 127
2, 255560, Note_off_c, 11, 70, 127
2, 255561, Note_on_c, 0, 72, 127
2, 255561, Note_on_c, 6, 54, 127
2, 255668, Note_off_c, 6, 54, 127
2, 255668, Note_off_c, 0, 72, 127
2, 255669, Note_on_c, 11, 70, 127
2, 255669, Note_on_c, 2, 50, 127
2, 255776, Note_off_c, 2, 50, 127
2, 255776, Note_off_c, 11, 70, 127
2, 255777, Note_on_c, 2, 74, 127
2, 255777, Note_on_c, 6, 54, 127
2, 255884, Note_off_c, 6, 54, 127
2, 255884, Note_off_c, 2, 74, 127
2, 255885, Note_on_c, 0, 72, 127
2, 255885, Note_on_c, 10, 57, 127
2, 255992, Note_off_c, 10, 57, 127
2, 255992, Note_off_c, 0, 72, 127
2, 255993, Note_on_c, 11, 70, 127
2, 255993, Note_on_c, 7, 55, 127
2, 256100, Note_off_c, 7, 55, 127
2, 256100, Note_off_c, 11, 70, 127
2, 256101, Note_on_c, 10, 69, 127
2, 256101, Note_on_c, 6, 54, 127
2, 256208, Note_off_c, 6, 54, 127
2, 256208, Note_off_c, 10, 69, 127
2, 256209, Note_on_c, 11, 70, 127
2, 256209, Note_on_c, 7, 55, 127
2, 256316, Note_off_c, 7, 55, 127
2, 256317, Note_on_c, 6, 54, 127
2, 256424, Note_off_c, 6, 54, 127
2, 256425, Note_on_c, 2, 74, 127
2, 256425, Note_on_c, 7, 55, 127
2, 256532, Note_off_c, 7, 55, 127
2, 256533, Note_on_c, 11, 58, 127
2, 256636, Note_off_c, 11, 70, 127
2, 256639, Note_off_c, 11, 58, 127
2, 256640, Note_on_c, 11, 70, 127
2, 256640, Note_on_c, 6, 54, 127
2, 256747, Note_off_c, 6, 54, 127
2, 256748, Note_on_c, 7, 55, 127
2, 256855, Note_off_c, 7, 55, 127
2, 256856, Note_on_c, 7, 67, 127
2, 256856, Note_on_c, 11, 46, 127
2, 256963, Note_off_c, 11, 46, 127
2, 256964, Note_on_c, 6, 54, 127
2, 257071, Note_off_c, 6, 54, 127
2, 257071, Note_off_c, 2, 74, 127
2, 257072, Note_on_c, 2, 74, 127
2, 257072, Note_on_c, 7, 55, 127
2, 257179, Note_off_c, 7, 55, 127
2, 257180, Note_on_c, 11, 58, 127
2, 257287, Note_off_c, 11, 58, 127
2, 257287, Note_off_c, 11, 70, 127
2, 257288, Note_on_c, 11, 70, 127
2, 257288, Note_on_c, 6, 54, 127
2, 257395, Note_off_c, 6, 54, 127
2, 257396, Note_on_c, 7, 55, 127
2, 257503, Note_off_c, 7, 55, 127
2, 257503, Note_off_c, 7, 67, 127
2, 257504, Note_on_c, 7, 67, 127
2, 257504, Note_on_c, 0, 48, 127
2, 257611, Note_off_c, 0, 48, 127
2, 257612, Note_on_c, 6, 54, 127
2, 257719, Note_off_c, 6, 54, 127
2, 257719, Note_off_c, 2, 74, 127
2, 257720, Note_on_c, 2, 74, 127
2, 257720, Note_on_c, 7, 55, 127
2, 257827, Note_off_c, 7, 55, 127
2, 257828, Note_on_c, 11, 58, 127
2, 257935, Note_off_c, 11, 58, 127
2, 257935, Note_off_c, 11, 70, 127
2, 257936, Note_on_c, 11, 70, 127
2, 257936, Note_on_c, 6, 54, 127
2, 258043, Note_off_c, 6, 54, 127
2, 258044, Note_on_c, 7, 55, 127
2, 258151, Note_off_c, 7, 55, 127
2, 258151, Note_off_c, 7, 67, 127
2, 258152, Note_on_c, 7, 67, 127
2, 258152, Note_on_c, 2, 50, 127
2, 258259, Note_off_c, 2, 50, 127
2, 258260, Note_on_c, 6, 54, 127
2, 258367, Note_off_c, 6, 54, 127
2, 258367, Note_off_c, 2, 74, 127
2, 258368, Note_on_c, 2, 74, 127
2, 258368, Note_on_c, 7, 55, 127
2, 258475, Note_off_c, 7, 55, 127
2, 258476, Note_on_c, 11, 58, 127
2, 258583, Note_off_c, 11, 58, 127
2, 258583, Note_off_c, 11, 70, 127
2, 258584, Note_on_c, 11, 70, 127
2, 258584, Note_on_c, 6, 54, 127
2, 258691, Note_off_c, 6, 54, 127
2, 258692, Note_on_c, 7, 55, 127
2, 258799, Note_off_c, 7, 55, 127
2, 258799, Note_off_c, 7, 67, 127
2, 258800, Note_on_c, 7, 67, 127
2, 258800, Note_on_c, 3, 51, 127
2, 258907, Note_off_c, 3, 51, 127
2, 258908, Note_on_c, 6, 54, 127
2, 259015, Note_off_c, 6, 54, 127
2, 259015, Note_off_c, 2, 74, 127
2, 259016, Note_on_c, 2, 74, 127
2, 259016, Note_on_c, 7, 55, 127
2, 259123, Note_off_c, 7, 55, 127
2, 259124, Note_on_c, 11, 58, 127
2, 259231, Note_off_c, 11, 58, 127
2, 259231, Note_off_c, 11, 70, 127
2, 259232, Note_on_c, 11, 70, 127
2, 259232, Note_on_c, 6, 54, 127
2, 259339, Note_off_c, 6, 54, 127
2, 259340, Note_on_c, 7, 55, 127
2, 259447, Note_off_c, 7, 55, 127
2, 259447, Note_off_c, 7, 67, 127
2, 259448, Note_on_c, 7, 67, 127
2, 259448, Note_on_c, 2, 50, 127
2, 259555, Note_off_c, 2, 50, 127
2, 259556, Note_on_c, 6, 54, 127
2, 259663, Note_off_c, 6, 54, 127
2, 259663, Note_off_c, 2, 74, 127
2, 259664, Note_on_c, 2, 74, 127
2, 259664, Note_on_c, 7, 55, 127
2, 259771, Note_off_c, 7, 55, 127
2, 259772, Note_on_c, 11, 58, 127
2, 259875, Note_off_c, 7, 67, 127
2, 259878, Note_off_c, 11, 58, 127
2, 259878, Note_off_c, 2, 74, 127
2, 259878, Note_off_c, 11, 70, 127
2, 259879, Note_on_c, 11, 70, 127
2, 259879, Note_on_c, 6, 54, 127
2, 259986, Note_off_c, 6, 54, 127
2, 259987, Note_on_c, 7, 55, 127
2, 260094, Note_off_c, 7, 55, 127
2, 260094, Note_off_c, 11, 70, 127
2, 260095, Note_on_c, 7, 67, 127
2, 260095, Note_on_c, 1, 49, 127
2, 260202, Note_off_c, 7, 67, 127
2, 260203, Note_on_c, 10, 69, 127
2, 260310, Note_off_c, 10, 69, 127
2, 260311, Note_on_c, 11, 70, 127
2, 260418, Note_off_c, 11, 70, 127
2, 260419, Note_on_c, 4, 76, 127
2, 260526, Note_off_c, 4, 76, 127
2, 260527, Note_on_c, 11, 70, 127
2, 260634, Note_off_c, 11, 70, 127
2, 260635, Note_on_c, 10, 69, 127
2, 260742, Note_off_c, 10, 69, 127
2, 260742, Note_off_c, 1, 49, 127
2, 260743, Note_on_c, 7, 67, 127
2, 260850, Note_off_c, 7, 67, 127
2, 260851, Note_on_c, 10, 69, 127
2, 260958, Note_off_c, 10, 69, 127
2, 260959, Note_on_c, 11, 70, 127
2, 261066, Note_off_c, 11, 70, 127
2, 261067, Note_on_c, 4, 76, 127
2, 261174, Note_off_c, 4, 76, 127
2, 261175, Note_on_c, 10, 69, 127
2, 261282, Note_off_c, 10, 69, 127
2, 261283, Note_on_c, 7, 67, 127
2, 261390, Note_off_c, 7, 67, 127
2, 261391, Note_on_c, 6, 66, 127
2, 261391, Note_on_c, 0, 48, 127
2, 261498, Note_off_c, 6, 66, 127
2, 261499, Note_on_c, 10, 69, 127
2, 261606, Note_off_c, 10, 69, 127
2, 261607, Note_on_c, 0, 72, 127
2, 261714, Note_off_c, 0, 72, 127
2, 261715, Note_on_c, 3, 75, 127
2, 261822, Note_off_c, 3, 75, 127
2, 261823, Note_on_c, 2, 74, 127
2, 261930, Note_off_c, 2, 74, 127
2, 261931, Note_on_c, 0, 72, 127
2, 262038, Note_off_c, 0, 72, 127
2, 262038, Note_off_c, 0, 48, 127
2, 262053, Note_on_c, 11, 46, 127
2, 262053, Note_on_c, 2, 74, 127
2, 262159, Note_off_c, 2, 74, 127
2, 262159, Note_off_c, 11, 46, 127
2, 262160, Note_on_c, 2, 50, 127
2, 262160, Note_on_c, 0, 72, 127
2, 262265, Note_off_c, 0, 72, 127
2, 262265, Note_off_c, 2, 50, 127
2, 262266, Note_on_c, 4, 52, 127
2, 262266, Note_on_c, 11, 70, 127
2, 262374, Note_off_c, 11, 70, 127
2, 262374, Note_off_c, 4, 52, 127
2, 262375, Note_on_c, 6, 54, 127
2, 262375, Note_on_c, 10, 69, 127
2, 262482, Note_off_c, 10, 69, 127
2, 262482, Note_off_c, 6, 54, 127
2, 262483, Note_on_c, 7, 55, 127
2, 262483, Note_on_c, 7, 67, 127
2, 262590, Note_off_c, 7, 67, 127
2, 262590, Note_off_c, 7, 55, 127
2, 262591, Note_on_c, 10, 57, 127
2, 262591, Note_on_c, 5, 65, 127
2, 262698, Note_off_c, 5, 65, 127
2, 262698, Note_off_c, 10, 57, 127
2, 262699, Note_on_c, 11, 58, 127
2, 262699, Note_on_c, 4, 64, 127
2, 262806, Note_off_c, 4, 64, 127
2, 262807, Note_on_c, 2, 62, 127
2, 262914, Note_off_c, 2, 62, 127
2, 262914, Note_off_c, 11, 58, 127
2, 262915, Note_on_c, 10, 57, 127
2, 262915, Note_on_c, 4, 64, 127
2, 263022, Note_off_c, 4, 64, 127
2, 263023, Note_on_c, 6, 66, 127
2, 263130, Note_off_c, 6, 66, 127
2, 263130, Note_off_c, 10, 57, 127
2, 263131, Note_on_c, 7, 55, 127
2, 263131, Note_on_c, 7, 67, 127
2, 263238, Note_off_c, 7, 67, 127
2, 263239, Note_on_c, 10, 69, 127
2, 263346, Note_off_c, 10, 69, 127
2, 263346, Note_off_c, 7, 55, 127
2, 263347, Note_on_c, 10, 57, 127
2, 263347, Note_on_c, 6, 66, 127
2, 263454, Note_off_c, 6, 66, 127
2, 263455, Note_on_c, 4, 64, 127
2, 263562, Note_off_c, 4, 64, 127
2, 263562, Note_off_c, 10, 57, 127
2, 263563, Note_on_c, 7, 55, 127
2, 263563, Note_on_c, 6, 66, 127
2, 263670, Note_off_c, 6, 66, 127
2, 263671, Note_on_c, 7, 67, 127
2, 263778, Note_off_c, 7, 67, 127
2, 263778, Note_off_c, 7, 55, 127
2, 263779, Note_on_c, 6, 54, 127
2, 263779, Note_on_c, 10, 69, 127
2, 263886, Note_off_c, 10, 69, 127
2, 263887, Note_on_c, 0, 60, 127
2, 263994, Note_off_c, 0, 60, 127
2, 263994, Note_off_c, 6, 54, 127
2, 263995, Note_on_c, 7, 55, 127
2, 263995, Note_on_c, 11, 58, 127
2, 264103, Note_on_c, 2, 74, 127
2, 264210, Note_off_c, 2, 74, 127
2, 264211, Note_on_c, 4, 76, 127
2, 264318, Note_off_c, 4, 76, 127
2, 264319, Note_on_c, 6, 78, 127
2, 264426, Note_off_c, 6, 78, 127
2, 264426, Note_off_c, 11, 58, 127
2, 264426, Note_off_c, 7, 55, 127
2, 264427, Note_on_c, 10, 57, 127
2, 264427, Note_on_c, 5, 53, 127
2, 264427, Note_on_c, 7, 79, 127
2, 264534, Note_off_c, 7, 79, 127
2, 264535, Note_on_c, 10, 81, 127
2, 264642, Note_off_c, 10, 81, 127
2, 264642, Note_off_c, 5, 53, 127
2, 264642, Note_off_c, 10, 57, 127
2, 264643, Note_on_c, 7, 55, 127
2, 264643, Note_on_c, 3, 51, 127
2, 264643, Note_on_c, 11, 82, 127
2, 264858, Note_off_c, 11, 82, 127
2, 264858, Note_off_c, 7, 55, 127
2, 264859, Note_on_c, 10, 57, 127
2, 264859, Note_on_c, 10, 81, 127
2, 265070, Note_off_c, 3, 51, 127
2, 265073, Note_off_c, 10, 81, 127
2, 265073, Note_off_c, 10, 57, 127
2, 265074, Note_on_c, 2, 50, 127
2, 265074, Note_on_c, 11, 58, 127
2, 265074, Note_on_c, 7, 79, 127
2, 265289, Note_off_c, 7, 79, 127
2, 265289, Note_off_c, 11, 58, 127
2, 265289, Note_off_c, 2, 50, 127
2, 265290, Note_on_c, 0, 48, 127
2, 265290, Note_on_c, 0, 60, 127
2, 265290, Note_on_c, 10, 81, 127
2, 265505, Note_off_c, 10, 81, 127
2, 265505, Note_off_c, 0, 60, 127
2, 265506, Note_on_c, 11, 58, 127
2, 265506, Note_on_c, 11, 82, 127
2, 265613, Note_off_c, 11, 82, 127
2, 265614, Note_on_c, 10, 81, 127
2, 265717, Note_off_c, 0, 48, 127
2, 265720, Note_off_c, 10, 81, 127
2, 265720, Note_off_c, 11, 58, 127
2, 265721, Note_on_c, 10, 57, 127
2, 265721, Note_on_c, 2, 50, 127
2, 265721, Note_on_c, 7, 79, 127
2, 265828, Note_off_c, 7, 79, 127
2, 265829, Note_on_c, 6, 78, 127
2, 265936, Note_off_c, 6, 78, 127
2, 265936, Note_off_c, 2, 50, 127
2, 265936, Note_off_c, 10, 57, 127
2, 265937, Note_on_c, 7, 55, 127
2, 265937, Note_on_c, 3, 51, 127
2, 265937, Note_on_c, 7, 79, 127
2, 266044, Note_off_c, 7, 79, 127
2, 266045, Note_on_c, 5, 77, 127
2, 266152, Note_off_c, 5, 77, 127
2, 266153, Note_on_c, 3, 75, 127
2, 266260, Note_off_c, 3, 75, 127
2, 266261, Note_on_c, 2, 74, 127
2, 266368, Note_off_c, 2, 74, 127
2, 266369, Note_on_c, 0, 72, 127
2, 266476, Note_off_c, 0, 72, 127
2, 266477, Note_on_c, 12, 71, 127
2, 266584, Note_off_c, 12, 71, 127
2, 266585, Note_on_c, 0, 72, 127
2, 266692, Note_off_c, 0, 72, 127
2, 266693, Note_on_c, 12, 71, 127
2, 266800, Note_off_c, 12, 71, 127
2, 266800, Note_off_c, 3, 51, 127
2, 266801, Note_on_c, 2, 50, 127
2, 266801, Note_on_c, 0, 72, 127
2, 266908, Note_off_c, 0, 72, 127
2, 266909, Note_on_c, 2, 74, 127
2, 267016, Note_off_c, 2, 74, 127
2, 267016, Note_off_c, 2, 50, 127
2, 267017, Note_on_c, 0, 48, 127
2, 267017, Note_on_c, 3, 75, 127
2, 267232, Note_off_c, 3, 75, 127
2, 267232, Note_off_c, 0, 48, 127
2, 267233, Note_on_c, 2, 50, 127
2, 267233, Note_on_c, 11, 70, 127
2, 267448, Note_off_c, 11, 70, 127
2, 267448, Note_off_c, 2, 50, 127
2, 267449, Note_on_c, 0, 48, 127
2, 267449, Note_on_c, 0, 72, 127
2, 267556, Note_off_c, 0, 72, 127
2, 267557, Note_on_c, 11, 70, 127
2, 267658, Note_off_c, 7, 55, 127
2, 267664, Note_off_c, 11, 70, 127
2, 267664, Note_off_c, 0, 48, 127
2, 267665, Note_on_c, 6, 54, 127
2, 267665, Note_on_c, 2, 50, 127
2, 267665, Note_on_c, 10, 69, 127
2, 267772, Note_off_c, 10, 69, 127
2, 267773, Note_on_c, 11, 70, 127
2, 267880, Note_off_c, 11, 70, 127
2, 267880, Note_off_c, 2, 50, 127
2, 267880, Note_off_c, 6, 54, 127
2, 267881, Note_on_c, 7, 43, 127
2, 267881, Note_on_c, 7, 55, 127
2, 267881, Note_on_c, 7, 67, 127
2, 268096, Note_off_c, 7, 67, 127
2, 268113, Note_on_c, 11, 70, 127
2, 268328, Note_off_c, 11, 70, 127
2, 268329, Note_on_c, 11, 70, 127
2, 268528, Note_off_c, 7, 55, 127
2, 268528, Note_off_c, 7, 43, 127
2, 268544, Note_off_c, 11, 70, 127
2, 268545, Note_on_c, 11, 70, 127
2, 268760, Note_off_c, 11, 70, 127
2, 268761, Note_on_c, 11, 70, 127
2, 268976, Note_off_c, 11, 70, 127
2, 268977, Note_on_c, 11, 70, 127
2, 268977, Note_on_c, 2, 62, 127
2, 268977, Note_on_c, 7, 55, 127
2, 269192, Note_off_c, 7, 55, 127
2, 269192, Note_off_c, 2, 62, 127
2, 269192, Note_off_c, 11, 70, 127
2, 269193, Note_on_c, 4, 76, 127
2, 269193, Note_on_c, 11, 58, 127
2, 269193, Note_on_c, 0, 60, 127
2, 269300, Note_off_c, 4, 76, 127
2, 269301, Note_on_c, 5, 77, 127
2, 269408, Note_off_c, 5, 77, 127
2, 269408, Note_off_c, 0, 60, 127
2, 269408, Note_off_c, 11, 58, 127
2, 269409, Note_on_c, 7, 79, 127
2, 269409, Note_on_c, 2, 62, 127
2, 269409, Note_on_c, 10, 57, 127
2, 269516, Note_off_c, 7, 79, 127
2, 269517, Note_on_c, 4, 76, 127
2, 269624, Note_off_c, 4, 76, 127
2, 269624, Note_off_c, 10, 57, 127
2, 269624, Note_off_c, 2, 62, 127
2, 269625, Note_on_c, 5, 77, 127
2, 269625, Note_on_c, 7, 55, 127
2, 269625, Note_on_c, 4, 64, 127
2, 269625, Note_on_c, 11, 58, 127
2, 269732, Note_off_c, 5, 77, 127
2, 269733, Note_on_c, 7, 79, 127
2, 269840, Note_off_c, 7, 79, 127
2, 269840, Note_off_c, 11, 58, 127
2, 269840, Note_off_c, 4, 64, 127
2, 269840, Note_off_c, 7, 55, 127
2, 269841, Note_on_c, 10, 69, 127
2, 269841, Note_on_c, 0, 60, 127
2, 269841, Note_on_c, 5, 65, 127
2, 269841, Note_on_c, 5, 53, 127
2, 270056, Note_off_c, 10, 69, 127
2, 270057, Note_on_c, 10, 69, 127
2, 270272, Note_off_c, 10, 69, 127
2, 270273, Note_on_c, 10, 69, 127
2, 270488, Note_off_c, 10, 69, 127
2, 270488, Note_off_c, 5, 53, 127
2, 270488, Note_off_c, 5, 65, 127
2, 270488, Note_off_c, 0, 60, 127
2, 270489, Note_on_c, 10, 69, 127
2, 270704, Note_off_c, 10, 69, 127
2, 270705, Note_on_c, 10, 69, 127
2, 270920, Note_off_c, 10, 69, 127
2, 270921, Note_on_c, 10, 69, 127
2, 270921, Note_on_c, 7, 67, 127
2, 270921, Note_on_c, 10, 57, 127
2, 270921, Note_on_c, 4, 64, 127
2, 270921, Note_on_c, 1, 61, 127
2, 271136, Note_off_c, 1, 61, 127
2, 271136, Note_off_c, 4, 64, 127
2, 271136, Note_off_c, 10, 57, 127
2, 271136, Note_off_c, 7, 67, 127
2, 271136, Note_off_c, 10, 69, 127
2, 271137, Note_on_c, 5, 65, 127
2, 271137, Note_on_c, 2, 74, 127
2, 271137, Note_on_c, 2, 62, 127
2, 271137, Note_on_c, 11, 58, 127
2, 271244, Note_off_c, 2, 74, 127
2, 271245, Note_on_c, 4, 76, 127
2, 271352, Note_off_c, 4, 76, 127
2, 271353, Note_on_c, 5, 77, 127
2, 271460, Note_off_c, 5, 77, 127
2, 271461, Note_on_c, 2, 74, 127
2, 271564, Note_off_c, 5, 65, 127
2, 271567, Note_off_c, 2, 74, 127
2, 271567, Note_off_c, 11, 58, 127
2, 271568, Note_on_c, 4, 76, 127
2, 271568, Note_on_c, 0, 60, 127
2, 271675, Note_off_c, 4, 76, 127
2, 271676, Note_on_c, 5, 77, 127
2, 271783, Note_off_c, 5, 77, 127
2, 271783, Note_off_c, 0, 60, 127
2, 271784, Note_on_c, 7, 79, 127
2, 271784, Note_on_c, 11, 58, 127
2, 271891, Note_off_c, 7, 79, 127
2, 271892, Note_on_c, 10, 81, 127
2, 271999, Note_off_c, 10, 81, 127
2, 272000, Note_on_c, 11, 82, 127
2, 272107, Note_off_c, 11, 82, 127
2, 272108, Note_on_c, 7, 79, 127
2, 272215, Note_off_c, 7, 79, 127
2, 272215, Note_off_c, 11, 58, 127
2, 272216, Note_off_c, 2, 62, 127
2, 272216, Note_on_c, 10, 81, 127
2, 272216, Note_on_c, 10, 57, 127
2, 272216, Note_on_c, 0, 60, 127
2, 272323, Note_off_c, 10, 81, 127
2, 272324, Note_on_c, 11, 82, 127
2, 272431, Note_off_c, 11, 82, 127
2, 272431, Note_off_c, 0, 60, 127
2, 272431, Note_off_c, 10, 57, 127
2, 272432, Note_on_c, 4, 76, 127
2, 272432, Note_on_c, 11, 58, 127
2, 272432, Note_on_c, 7, 55, 127
2, 272539, Note_off_c, 4, 76, 127
2, 272540, Note_on_c, 5, 77, 127
2, 272647, Note_off_c, 5, 77, 127
2, 272648, Note_on_c, 7, 79, 127
2, 272755, Note_off_c, 7, 79, 127
2, 272756, Note_on_c, 4, 76, 127
2, 272863, Note_off_c, 4, 76, 127
2, 272863, Note_off_c, 7, 55, 127
2, 272863, Note_off_c, 11, 58, 127
2, 272864, Note_on_c, 5, 77, 127
2, 272864, Note_on_c, 5, 53, 127
2, 272864, Note_on_c, 10, 57, 127
2, 272971, Note_off_c, 5, 77, 127
2, 272972, Note_on_c, 7, 79, 127
2, 273079, Note_off_c, 7, 79, 127
2, 273079, Note_off_c, 10, 57, 127
2, 273079, Note_off_c, 5, 53, 127
2, 273080, Note_on_c, 1, 73, 127
2, 273080, Note_on_c, 4, 52, 127
2, 273080, Note_on_c, 7, 55, 127
2, 273187, Note_off_c, 1, 73, 127
2, 273188, Note_on_c, 2, 74, 127
2, 273295, Note_off_c, 2, 74, 127
2, 273296, Note_on_c, 4, 76, 127
2, 273403, Note_off_c, 4, 76, 127
2, 273404, Note_on_c, 1, 73, 127
2, 273511, Note_off_c, 1, 73, 127
2, 273511, Note_off_c, 4, 52, 127
2, 273512, Note_on_c, 2, 74, 127
2, 273512, Note_on_c, 2, 50, 127
2, 273619, Note_off_c, 2, 74, 127
2, 273620, Note_on_c, 4, 76, 127
2, 273727, Note_off_c, 4, 76, 127
2, 273727, Note_off_c, 2, 50, 127
2, 273728, Note_on_c, 10, 69, 127
2, 273728, Note_on_c, 1, 49, 127
2, 273834, Note_off_c, 7, 55, 127
2, 273836, Note_on_c, 7, 55, 127
2, 273943, Note_off_c, 7, 55, 127
2, 273944, Note_on_c, 5, 53, 127
2, 274051, Note_off_c, 5, 53, 127
2, 274052, Note_on_c, 4, 52, 127
2, 274159, Note_off_c, 4, 52, 127
2, 274160, Note_on_c, 2, 50, 127
2, 274267, Note_off_c, 2, 50, 127
2, 274268, Note_on_c, 4, 52, 127
2, 274375, Note_off_c, 4, 52, 127
2, 274375, Note_off_c, 1, 49, 127
2, 274376, Note_on_c, 5, 53, 127
2, 274376, Note_on_c, 2, 50, 127
2, 274483, Note_off_c, 10, 69, 127
2, 274484, Note_on_c, 10, 69, 127
2, 274591, Note_off_c, 10, 69, 127
2, 274592, Note_on_c, 12, 71, 127
2, 274699, Note_off_c, 12, 71, 127
2, 274700, Note_on_c, 1, 73, 127
2, 274807, Note_off_c, 1, 73, 127
2, 274807, Note_off_c, 2, 50, 127
2, 274808, Note_on_c, 2, 74, 127
2, 274808, Note_on_c, 0, 48, 127
2, 274915, Note_off_c, 2, 74, 127
2, 274916, Note_on_c, 4, 76, 127
2, 275023, Note_off_c, 4, 76, 127
2, 275023, Note_off_c, 0, 48, 127
2, 275024, Note_on_c, 5, 77, 127
2, 275024, Note_on_c, 11, 46, 127
2, 275131, Note_off_c, 5, 77, 127
2, 275132, Note_on_c, 4, 76, 127
2, 275239, Note_off_c, 4, 76, 127
2, 275239, Note_off_c, 5, 53, 127
2, 275240, Note_on_c, 7, 79, 127
2, 275240, Note_on_c, 2, 50, 127
2, 275347, Note_off_c, 7, 79, 127
2, 275348, Note_on_c, 5, 77, 127
2, 275455, Note_off_c, 5, 77, 127
2, 275455, Note_off_c, 2, 50, 127
2, 275456, Note_on_c, 4, 76, 127
2, 275456, Note_on_c, 7, 55, 127
2, 275563, Note_off_c, 4, 76, 127
2, 275564, Note_on_c, 2, 74, 127
2, 275671, Note_off_c, 2, 74, 127
2, 275671, Note_off_c, 7, 55, 127
2, 275671, Note_off_c, 11, 46, 127
2, 275672, Note_on_c, 1, 73, 127
2, 275672, Note_on_c, 10, 45, 127
2, 275779, Note_on_c, 10, 57, 127
2, 275884, Note_off_c, 10, 45, 127
2, 275885, Note_off_c, 10, 57, 127
2, 275886, Note_on_c, 12, 59, 127
2, 275992, Note_off_c, 12, 59, 127
2, 275993, Note_on_c, 1, 61, 127
2, 276095, Note_off_c, 1, 73, 127
2, 276098, Note_off_c, 1, 61, 127
2, 276099, Note_on_c, 2, 62, 127
2, 276205, Note_off_c, 2, 62, 127
2, 276206, Note_on_c, 4, 64, 127
2, 276312, Note_off_c, 4, 64, 127
2, 276313, Note_on_c, 5, 65, 127
2, 276526, Note_off_c, 5, 65, 127
2, 276527, Note_on_c, 4, 64, 127
2, 276740, Note_off_c, 4, 64, 127
2, 276741, Note_on_c, 2, 62, 127
2, 276954, Note_off_c, 2, 62, 127
2, 276955, Note_on_c, 4, 64, 127
2, 277168, Note_off_c, 4, 64, 127
2, 277169, Note_on_c, 2, 62, 127
2, 277382, Note_off_c, 2, 62, 127
2, 277383, Note_on_c, 1, 61, 127
2, 277596, Note_off_c, 1, 61, 127
2, 277597, Note_on_c, 2, 62, 127
2, 277704, Note_on_c, 2, 50, 127
2, 277810, Note_off_c, 2, 50, 127
2, 277811, Note_on_c, 4, 52, 127
2, 277917, Note_off_c, 4, 52, 127
2, 277918, Note_on_c, 6, 54, 127
2, 278024, Note_off_c, 6, 54, 127
2, 278025, Note_on_c, 7, 55, 127
2, 278131, Note_off_c, 7, 55, 127
2, 278132, Note_on_c, 10, 57, 127
2, 278238, Note_off_c, 10, 57, 127
2, 278239, Note_on_c, 11, 58, 127
2, 278452, Note_off_c, 11, 58, 127
2, 278453, Note_on_c, 10, 57, 127
2, 278666, Note_off_c, 10, 57, 127
2, 278666, Note_off_c, 2, 62, 127
2, 278667, Note_on_c, 11, 70, 127
2, 278667, Note_on_c, 7, 55, 127
2, 278880, Note_off_c, 7, 55, 127
2, 278880, Note_off_c, 11, 70, 127
2, 278881, Note_on_c, 0, 60, 127
2, 278881, Note_on_c, 10, 57, 127
2, 279094, Note_off_c, 10, 57, 127
2, 279095, Note_on_c, 7, 55, 127
2, 279308, Note_off_c, 7, 55, 127
2, 279308, Note_off_c, 0, 60, 127
2, 279309, Note_on_c, 10, 69, 127
2, 279309, Note_on_c, 6, 54, 127
2, 279522, Note_off_c, 6, 54, 127
2, 279522, Note_off_c, 10, 69, 127
2, 279523, Note_on_c, 11, 58, 127
2, 279523, Note_on_c, 7, 55, 127
2, 279629, Note_off_c, 11, 58, 127
2, 279630, Note_on_c, 2, 62, 127
2, 279736, Note_off_c, 2, 62, 127
2, 279737, Note_on_c, 4, 64, 127
2, 279843, Note_off_c, 4, 64, 127
2, 279844, Note_on_c, 5, 65, 127
2, 279950, Note_off_c, 5, 65, 127
2, 279951, Note_on_c, 4, 64, 127
2, 280057, Note_off_c, 4, 64, 127
2, 280058, Note_on_c, 2, 62, 127
2, 280164, Note_off_c, 2, 62, 127
2, 280165, Note_on_c, 7, 67, 127
2, 280271, Note_off_c, 7, 55, 127
2, 280272, Note_on_c, 4, 52, 127
2, 280378, Note_off_c, 4, 52, 127
2, 280379, Note_on_c, 2, 50, 127
2, 280485, Note_off_c, 2, 50, 127
2, 280486, Note_on_c, 1, 49, 127
2, 280592, Note_off_c, 1, 49, 127
2, 280593, Note_on_c, 2, 50, 127
2, 280699, Note_off_c, 2, 50, 127
2, 280700, Note_on_c, 4, 52, 127
2, 280806, Note_off_c, 4, 52, 127
2, 280807, Note_on_c, 5, 53, 127
2, 280913, Note_off_c, 7, 67, 127
2, 280914, Note_on_c, 10, 57, 127
2, 281020, Note_off_c, 10, 57, 127
2, 281021, Note_on_c, 12, 59, 127
2, 281127, Note_off_c, 12, 59, 127
2, 281128, Note_on_c, 1, 61, 127
2, 281234, Note_off_c, 1, 61, 127
2, 281235, Note_on_c, 12, 59, 127
2, 281341, Note_off_c, 12, 59, 127
2, 281342, Note_on_c, 10, 57, 127
2, 281448, Note_off_c, 10, 57, 127
2, 281449, Note_on_c, 2, 62, 127
2, 281556, Note_on_c, 10, 69, 127
2, 281662, Note_off_c, 10, 69, 127
2, 281663, Note_on_c, 12, 71, 127
2, 281769, Note_off_c, 12, 71, 127
2, 281770, Note_on_c, 1, 73, 127
2, 281876, Note_off_c, 1, 73, 127
2, 281877, Note_on_c, 2, 74, 127
2, 281983, Note_off_c, 2, 74, 127
2, 281984, Note_on_c, 4, 76, 127
2, 282090, Note_off_c, 4, 76, 127
2, 282091, Note_on_c, 5, 77, 127
2, 282304, Note_off_c, 5, 77, 127
2, 282304, Note_off_c, 2, 62, 127
2, 282305, Note_on_c, 4, 76, 127
2, 282305, Note_on_c, 4, 64, 127
2, 282518, Note_off_c, 4, 64, 127
2, 282518, Note_off_c, 4, 76, 127
2, 282518, Note_off_c, 5, 53, 127
2, 282519, Note_on_c, 2, 74, 127
2, 282519, Note_on_c, 5, 65, 127
2, 282519, Note_on_c, 11, 58, 127
2, 282732, Note_off_c, 11, 58, 127
2, 282732, Note_off_c, 5, 65, 127
2, 282732, Note_off_c, 2, 74, 127
2, 282733, Note_on_c, 4, 76, 127
2, 282733, Note_on_c, 7, 67, 127
2, 282733, Note_on_c, 7, 55, 127
2, 282946, Note_off_c, 7, 67, 127
2, 282946, Note_off_c, 4, 76, 127
2, 282947, Note_on_c, 2, 74, 127
2, 282947, Note_on_c, 5, 65, 127
2, 283160, Note_off_c, 5, 65, 127
2, 283160, Note_off_c, 2, 74, 127
2, 283160, Note_off_c, 7, 55, 127
2, 283161, Note_on_c, 1, 73, 127
2, 283161, Note_on_c, 4, 64, 127
2, 283161, Note_on_c, 10, 57, 127
2, 283374, Note_off_c, 10, 57, 127
2, 283374, Note_off_c, 4, 64, 127
2, 283374, Note_off_c, 1, 73, 127
2, 283375, Note_on_c, 2, 74, 127
2, 283375, Note_on_c, 2, 62, 127
2, 283375, Note_on_c, 11, 58, 127
2, 283481, Note_off_c, 2, 74, 127
2, 283482, Note_on_c, 0, 72, 127
2, 283588, Note_off_c, 0, 72, 127
2, 283589, Note_on_c, 11, 70, 127
2, 283695, Note_off_c, 11, 70, 127
2, 283696, Note_on_c, 10, 69, 127
2, 283802, Note_off_c, 10, 69, 127
2, 283803, Note_on_c, 7, 67, 127
2, 283909, Note_off_c, 7, 67, 127
2, 283910, Note_on_c, 5, 65, 127
2, 284016, Note_off_c, 5, 65, 127
2, 284016, Note_off_c, 2, 62, 127
2, 284017, Note_on_c, 4, 64, 127
2, 284017, Note_on_c, 0, 60, 127
2, 284123, Note_off_c, 4, 64, 127
2, 284124, Note_on_c, 7, 67, 127
2, 284230, Note_off_c, 7, 67, 127
2, 284231, Note_on_c, 10, 69, 127
2, 284337, Note_off_c, 10, 69, 127
2, 284338, Note_on_c, 11, 70, 127
2, 284444, Note_off_c, 11, 70, 127
2, 284445, Note_on_c, 10, 69, 127
2, 284551, Note_off_c, 10, 69, 127
2, 284552, Note_on_c, 7, 67, 127
2, 284657, Note_off_c, 11, 58, 127
2, 284658, Note_off_c, 7, 67, 127
2, 284659, Note_on_c, 0, 72, 127
2, 284659, Note_on_c, 10, 57, 127
2, 284765, Note_off_c, 0, 72, 127
2, 284766, Note_on_c, 11, 70, 127
2, 284872, Note_off_c, 11, 70, 127
2, 284873, Note_on_c, 10, 69, 127
2, 284979, Note_off_c, 10, 69, 127
2, 284980, Note_on_c, 7, 67, 127
2, 285086, Note_off_c, 7, 67, 127
2, 285087, Note_on_c, 5, 65, 127
2, 285193, Note_off_c, 5, 65, 127
2, 285194, Note_on_c, 4, 64, 127
2, 285299, Note_off_c, 0, 60, 127
2, 285300, Note_off_c, 4, 64, 127
2, 285301, Note_on_c, 2, 62, 127
2, 285301, Note_on_c, 11, 58, 127
2, 285407, Note_off_c, 2, 62, 127
2, 285408, Note_on_c, 5, 65, 127
2, 285514, Note_off_c, 5, 65, 127
2, 285515, Note_on_c, 7, 67, 127
2, 285621, Note_off_c, 7, 67, 127
2, 285622, Note_on_c, 10, 69, 127
2, 285728, Note_off_c, 10, 69, 127
2, 285729, Note_on_c, 7, 67, 127
2, 285835, Note_off_c, 7, 67, 127
2, 285836, Note_on_c, 5, 65, 127
2, 285941, Note_off_c, 10, 57, 127
2, 285942, Note_off_c, 5, 65, 127
2, 285943, Note_on_c, 11, 70, 127
2, 285943, Note_on_c, 7, 55, 127
2, 286049, Note_off_c, 11, 70, 127
2, 286050, Note_on_c, 10, 69, 127
2, 286156, Note_off_c, 10, 69, 127
2, 286157, Note_on_c, 7, 67, 127
2, 286263, Note_off_c, 7, 67, 127
2, 286264, Note_on_c, 5, 65, 127
2, 286370, Note_off_c, 5, 65, 127
2, 286370, Note_off_c, 7, 55, 127
2, 286371, Note_on_c, 4, 64, 127
2, 286371, Note_on_c, 5, 53, 127
2, 286477, Note_off_c, 4, 64, 127
2, 286478, Note_on_c, 2, 62, 127
2, 286584, Note_off_c, 2, 62, 127
2, 286584, Note_off_c, 5, 53, 127
2, 286585, Note_on_c, 0, 60, 127
2, 286585, Note_on_c, 4, 52, 127
2, 286689, Note_off_c, 11, 58, 127
2, 286692, Note_on_c, 11, 58, 127
2, 286798, Note_off_c, 11, 58, 127
2, 286799, Note_on_c, 10, 57, 127
2, 286905, Note_off_c, 10, 57, 127
2, 286906, Note_on_c, 7, 55, 127
2, 287012, Note_off_c, 7, 55, 127
2, 287013, Note_on_c, 5, 53, 127
2, 287119, Note_off_c, 5, 53, 127
2, 287120, Note_on_c, 7, 55, 127
2, 287226, Note_off_c, 7, 55, 127
2, 287226, Note_off_c, 4, 52, 127
2, 287227, Note_on_c, 5, 53, 127
2, 287227, Note_on_c, 10, 57, 127
2, 287333, Note_off_c, 0, 60, 127
2, 287334, Note_on_c, 4, 64, 127
2, 287440, Note_off_c, 4, 64, 127
2, 287441, Note_on_c, 5, 65, 127
2, 287547, Note_off_c, 5, 65, 127
2, 287548, Note_on_c, 10, 69, 127
2, 287654, Note_off_c, 10, 69, 127
2, 287655, Note_on_c, 4, 64, 127
2, 287761, Note_off_c, 4, 64, 127
2, 287762, Note_on_c, 5, 65, 127
2, 287868, Note_off_c, 5, 65, 127
2, 287868, Note_off_c, 5, 53, 127
2, 287869, Note_on_c, 0, 60, 127
2, 287869, Note_on_c, 4, 52, 127
2, 287975, Note_off_c, 0, 60, 127
2, 287976, Note_on_c, 4, 64, 127
2, 288082, Note_off_c, 4, 64, 127
2, 288083, Note_on_c, 5, 65, 127
2, 288189, Note_off_c, 5, 65, 127
2, 288190, Note_on_c, 10, 69, 127
2, 288296, Note_off_c, 10, 69, 127
2, 288297, Note_on_c, 4, 64, 127
2, 288403, Note_off_c, 4, 64, 127
2, 288404, Note_on_c, 5, 65, 127
2, 288510, Note_off_c, 5, 65, 127
2, 288510, Note_off_c, 4, 52, 127
2, 288511, Note_on_c, 0, 60, 127
2, 288511, Note_on_c, 2, 50, 127
2, 288617, Note_off_c, 0, 60, 127
2, 288618, Note_on_c, 4, 64, 127
2, 288724, Note_off_c, 4, 64, 127
2, 288725, Note_on_c, 5, 65, 127
2, 288831, Note_off_c, 5, 65, 127
2, 288832, Note_on_c, 10, 69, 127
2, 288938, Note_off_c, 10, 69, 127
2, 288939, Note_on_c, 4, 64, 127
2, 289045, Note_off_c, 4, 64, 127
2, 289046, Note_on_c, 5, 65, 127
2, 289152, Note_off_c, 5, 65, 127
2, 289152, Note_off_c, 2, 50, 127
2, 289153, Note_on_c, 0, 60, 127
2, 289153, Note_on_c, 0, 48, 127
2, 289259, Note_off_c, 0, 60, 127
2, 289260, Note_on_c, 4, 64, 127
2, 289366, Note_off_c, 4, 64, 127
2, 289367, Note_on_c, 5, 65, 127
2, 289473, Note_off_c, 5, 65, 127
2, 289474, Note_on_c, 10, 69, 127
2, 289580, Note_off_c, 10, 69, 127
2, 289581, Note_on_c, 4, 64, 127
2, 289687, Note_off_c, 4, 64, 127
2, 289688, Note_on_c, 5, 65, 127
2, 289790, Note_off_c, 10, 57, 127
2, 289793, Note_off_c, 5, 65, 127
2, 289793, Note_off_c, 0, 48, 127
2, 289794, Note_on_c, 0, 60, 127
2, 289794, Note_on_c, 11, 46, 127
2, 289794, Note_on_c, 7, 55, 127
2, 289900, Note_off_c, 0, 60, 127
2, 289901, Note_on_c, 4, 64, 127
2, 290007, Note_off_c, 4, 64, 127
2, 290008, Note_on_c, 5, 65, 127
2, 290114, Note_off_c, 5, 65, 127
2, 290115, Note_on_c, 10, 69, 127
2, 290221, Note_off_c, 10, 69, 127
2, 290222, Note_on_c, 4, 64, 127
2, 290328, Note_off_c, 4, 64, 127
2, 290329, Note_on_c, 5, 65, 127
2, 290435, Note_off_c, 5, 65, 127
2, 290435, Note_off_c, 7, 55, 127
2, 290435, Note_off_c, 11, 46, 127
2, 290436, Note_on_c, 0, 60, 127
2, 290436, Note_on_c, 5, 53, 127
2, 290436, Note_on_c, 10, 45, 127
2, 290542, Note_off_c, 0, 60, 127
2, 290543, Note_on_c, 4, 64, 127
2, 290649, Note_off_c, 4, 64, 127
2, 290650, Note_on_c, 5, 65, 127
2, 290756, Note_off_c, 5, 65, 127
2, 290757, Note_on_c, 10, 69, 127
2, 290863, Note_off_c, 10, 69, 127
2, 290864, Note_on_c, 4, 64, 127
2, 290970, Note_off_c, 4, 64, 127
2, 290971, Note_on_c, 5, 65, 127
2, 291077, Note_off_c, 5, 65, 127
2, 291077, Note_off_c, 10, 45, 127
2, 291078, Note_on_c, 2, 62, 127
2, 291078, Note_on_c, 11, 46, 127
2, 291183, Note_off_c, 5, 53, 127
2, 291185, Note_on_c, 5, 53, 127
2, 291291, Note_off_c, 5, 53, 127
2, 291291, Note_off_c, 2, 62, 127
2, 291292, Note_on_c, 4, 64, 127
2, 291292, Note_on_c, 7, 55, 127
2, 291398, Note_off_c, 7, 55, 127
2, 291398, Note_off_c, 4, 64, 127
2, 291399, Note_on_c, 5, 65, 127
2, 291399, Note_on_c, 10, 57, 127
2, 291501, Note_off_c, 11, 46, 127
2, 291504, Note_off_c, 10, 57, 127
2, 291504, Note_off_c, 5, 65, 127
2, 291505, Note_on_c, 7, 67, 127
2, 291505, Note_on_c, 11, 58, 127
2, 291611, Note_off_c, 11, 58, 127
2, 291611, Note_off_c, 7, 67, 127
2, 291612, Note_on_c, 10, 69, 127
2, 291612, Note_on_c, 0, 60, 127
2, 291718, Note_off_c, 0, 60, 127
2, 291718, Note_off_c, 10, 69, 127
2, 291719, Note_on_c, 11, 70, 127
2, 291719, Note_on_c, 2, 62, 127
2, 291932, Note_off_c, 2, 62, 127
2, 291932, Note_off_c, 11, 70, 127
2, 291933, Note_on_c, 10, 69, 127
2, 291933, Note_on_c, 0, 60, 127
2, 292146, Note_off_c, 0, 60, 127
2, 292146, Note_off_c, 10, 69, 127
2, 292147, Note_on_c, 7, 67, 127
2, 292147, Note_on_c, 11, 58, 127
2, 292360, Note_off_c, 11, 58, 127
2, 292360, Note_off_c, 7, 67, 127
2, 292361, Note_on_c, 10, 69, 127
2, 292361, Note_on_c, 0, 60, 127
2, 292574, Note_off_c, 0, 60, 127
2, 292574, Note_off_c, 10, 69, 127
2, 292575, Note_on_c, 7, 67, 127
2, 292575, Note_on_c, 11, 58, 127
2, 292788, Note_off_c, 11, 58, 127
2, 292788, Note_off_c, 7, 67, 127
2, 292789, Note_on_c, 5, 65, 127
2, 292789, Note_on_c, 10, 57, 127
2, 293002, Note_off_c, 10, 57, 127
2, 293002, Note_off_c, 5, 65, 127
2, 293003, Note_on_c, 4, 64, 127
2, 293003, Note_on_c, 0, 72, 127
2, 293003, Note_on_c, 7, 55, 127
2, 293110, Note_on_c, 11, 46, 127
2, 293216, Note_off_c, 11, 46, 127
2, 293217, Note_on_c, 0, 48, 127
2, 293323, Note_off_c, 0, 48, 127
2, 293324, Note_on_c, 2, 50, 127
2, 293426, Note_off_c, 7, 55, 127
2, 293429, Note_off_c, 2, 50, 127
2, 293429, Note_off_c, 0, 72, 127
2, 293429, Note_off_c, 4, 64, 127
2, 293430, Note_on_c, 0, 60, 127
2, 293430, Note_on_c, 4, 64, 127
2, 293430, Note_on_c, 7, 55, 127
2, 293430, Note_on_c, 0, 48, 127
2, 293536, Note_off_c, 0, 48, 127
2, 293537, Note_on_c, 11, 46, 127
2, 293642, Note_off_c, 7, 55, 127
2, 293643, Note_off_c, 11, 46, 127
2, 293643, Note_off_c, 4, 64, 127
2, 293643, Note_off_c, 0, 60, 127
2, 293644, Note_on_c, 5, 65, 127
2, 293644, Note_on_c, 0, 60, 127
2, 293644, Note_on_c, 5, 53, 127
2, 293644, Note_on_c, 10, 45, 127
2, 293857, Note_off_c, 10, 45, 127
2, 293858, Note_on_c, 0, 48, 127
2, 294071, Note_off_c, 0, 48, 127
2, 294071, Note_off_c, 0, 60, 127
2, 294071, Note_off_c, 5, 65, 127
2, 294072, Note_on_c, 7, 67, 127
2, 294072, Note_on_c, 2, 62, 127
2, 294072, Note_on_c, 11, 46, 127
2, 294285, Note_off_c, 11, 46, 127
2, 294285, Note_off_c, 2, 62, 127
2, 294285, Note_off_c, 7, 67, 127
2, 294286, Note_on_c, 10, 69, 127
2, 294286, Note_on_c, 0, 60, 127
2, 294286, Note_on_c, 0, 48, 127
2, 294356, Note_off_c, 10, 69, 127
2, 294357, Note_on_c, 7, 67, 127
2, 294427, Note_off_c, 7, 67, 127
2, 294428, Note_on_c, 10, 69, 127
2, 294498, Note_off_c, 10, 69, 127
2, 294498, Note_off_c, 5, 53, 127
2, 294499, Note_on_c, 7, 67, 127
2, 294499, Note_on_c, 5, 53, 127
2, 294569, Note_off_c, 7, 67, 127
2, 294570, Note_on_c, 10, 69, 127
2, 294640, Note_off_c, 10, 69, 127
2, 294641, Note_on_c, 7, 67, 127
2, 294711, Note_off_c, 7, 67, 127
2, 294711, Note_off_c, 5, 53, 127
2, 294712, Note_on_c, 5, 65, 127
2, 294712, Note_on_c, 4, 52, 127
2, 294782, Note_off_c, 5, 65, 127
2, 294783, Note_on_c, 7, 67, 127
2, 294853, Note_off_c, 7, 67, 127
2, 294854, Note_on_c, 10, 69, 127
2, 294924, Note_off_c, 10, 69, 127
2, 294924, Note_off_c, 4, 52, 127
2, 294924, Note_off_c, 0, 48, 127
2, 294924, Note_off_c, 0, 60, 127
2, 294925, Note_on_c, 10, 57, 127
2, 294925, Note_on_c, 0, 60, 127
2, 294925, Note_on_c, 5, 65, 127
2, 294925, Note_on_c, 5, 53, 127
2, 294925, Note_on_c, 5, 41, 127
2, 295031, Note_off_c, 5, 53, 127
2, 295032, Note_on_c, 0, 48, 127
2, 295137, Note_off_c, 5, 41, 127
2, 295138, Note_off_c, 0, 48, 127
2, 295139, Note_on_c, 2, 50, 127
2, 295245, Note_off_c, 2, 50, 127
2, 295246, Note_on_c, 4, 52, 127
2, 295352, Note_off_c, 4, 52, 127
2, 295353, Note_on_c, 5, 53, 127
2, 295459, Note_off_c, 5, 53, 127
2, 295460, Note_on_c, 7, 55, 127
2, 295566, Note_off_c, 7, 55, 127
2, 295566, Note_off_c, 5, 65, 127
2, 295566, Note_off_c, 0, 60, 127
2, 295566, Note_off_c, 10, 57, 127
2, 295567, Note_on_c, 10, 57, 127
2, 295674, Note_on_c, 2, 62, 127
2, 295780, Note_off_c, 2, 62, 127
2, 295780, Note_off_c, 10, 57, 127
2, 295781, Note_on_c, 4, 64, 127
2, 295781, Note_on_c, 7, 55, 127
2, 295887, Note_off_c, 4, 64, 127
2, 295888, Note_on_c, 5, 65, 127
2, 295994, Note_off_c, 5, 65, 127
2, 295994, Note_off_c, 7, 55, 127
2, 295995, Note_on_c, 7, 67, 127
2, 295995, Note_on_c, 5, 53, 127
2, 296101, Note_off_c, 7, 67, 127
2, 296102, Note_on_c, 10, 69, 127
2, 296208, Note_off_c, 10, 69, 127
2, 296208, Note_off_c, 5, 53, 127
2, 296209, Note_on_c, 11, 58, 127
2, 296209, Note_on_c, 7, 55, 127
2, 296315, Note_off_c, 11, 58, 127
2, 296316, Note_on_c, 0, 60, 127
2, 296422, Note_off_c, 0, 60, 127
2, 296422, Note_off_c, 7, 55, 127
2, 296423, Note_on_c, 2, 62, 127
2, 296423, Note_on_c, 5, 53, 127
2, 296529, Note_off_c, 2, 62, 127
2, 296530, Note_on_c, 4, 64, 127
2, 296636, Note_off_c, 4, 64, 127
2, 296636, Note_off_c, 5, 53, 127
2, 296637, Note_on_c, 5, 65, 127
2, 296637, Note_on_c, 4, 52, 127
2, 296743, Note_off_c, 5, 65, 127
2, 296744, Note_on_c, 7, 67, 127
2, 296850, Note_off_c, 7, 67, 127
2, 296850, Note_off_c, 4, 52, 127
2, 296851, Note_on_c, 5, 53, 127
2, 296851, Note_on_c, 10, 57, 127
2, 296958, Note_on_c, 5, 77, 127
2, 297064, Note_off_c, 5, 77, 127
2, 297065, Note_on_c, 4, 76, 127
2, 297171, Note_off_c, 4, 76, 127
2, 297172, Note_on_c, 2, 74, 127
2, 297278, Note_off_c, 2, 74, 127
2, 297279, Note_on_c, 0, 72, 127
2, 297385, Note_off_c, 0, 72, 127
2, 297386, Note_on_c, 11, 70, 127
2, 297492, Note_off_c, 11, 70, 127
2, 297493, Note_on_c, 10, 69, 127
2, 297599, Note_off_c, 5, 53, 127
2, 297600, Note_on_c, 4, 52, 127
2, 297706, Note_off_c, 4, 52, 127
2, 297706, Note_off_c, 10, 69, 127
2, 297707, Note_on_c, 12, 71, 127
2, 297707, Note_on_c, 5, 53, 127
2, 297809, Note_off_c, 10, 57, 127
2, 297813, Note_on_c, 7, 55, 127
2, 297918, Note_off_c, 5, 53, 127
2, 297919, Note_off_c, 7, 55, 127
2, 297919, Note_off_c, 12, 71, 127
2, 297920, Note_on_c, 0, 72, 127
2, 297920, Note_on_c, 5, 53, 127
2, 298027, Note_on_c, 4, 52, 127
2, 298133, Note_off_c, 4, 52, 127
2, 298133, Note_off_c, 0, 72, 127
2, 298134, Note_on_c, 12, 71, 127
2, 298134, Note_on_c, 2, 50, 127
2, 298343, Note_off_c, 5, 53, 127
2, 298346, Note_off_c, 2, 50, 127
2, 298346, Note_off_c, 12, 71, 127
2, 298347, Note_on_c, 0, 72, 127
2, 298347, Note_on_c, 7, 55, 127
2, 298347, Note_on_c, 4, 52, 127
2, 298560, Note_off_c, 4, 52, 127
2, 298560, Note_off_c, 7, 55, 127
2, 298560, Note_off_c, 0, 72, 127
2, 298561, Note_on_c, 2, 74, 127
2, 298561, Note_on_c, 5, 53, 127
2, 298561, Note_on_c, 10, 57, 127
2, 298774, Note_off_c, 10, 57, 127
2, 298774, Note_off_c, 5, 53, 127
2, 298774, Note_off_c, 2, 74, 127
2, 298775, Note_on_c, 0, 72, 127
2, 298775, Note_on_c, 4, 52, 127
2, 298775, Note_on_c, 7, 55, 127
2, 298882, Note_on_c, 10, 69, 127
2, 298988, Note_off_c, 10, 69, 127
2, 298989, Note_on_c, 7, 67, 127
2, 299095, Note_off_c, 7, 67, 127
2, 299096, Note_on_c, 5, 65, 127
2, 299202, Note_off_c, 5, 65, 127
2, 299203, Note_on_c, 4, 64, 127
2, 299309, Note_off_c, 4, 64, 127
2, 299310, Note_on_c, 2, 62, 127
2, 299416, Note_off_c, 2, 62, 127
2, 299416, Note_off_c, 7, 55, 127
2, 299417, Note_on_c, 0, 60, 127
2, 299524, Note_on_c, 7, 55, 127
2, 299630, Note_off_c, 0, 60, 127
2, 299630, Note_off_c, 4, 52, 127
2, 299631, Note_on_c, 2, 62, 127
2, 299631, Note_on_c, 5, 53, 127
2, 299680, Note_off_c, 7, 55, 127
2, 299738, Note_on_c, 10, 57, 127
2, 299843, Note_off_c, 5, 53, 127
2, 299844, Note_off_c, 2, 62, 127
2, 299845, Note_on_c, 4, 64, 127
2, 299845, Note_on_c, 7, 55, 127
2, 299894, Note_off_c, 10, 57, 127
2, 299952, Note_on_c, 11, 58, 127
2, 300057, Note_off_c, 7, 55, 127
2, 300058, Note_off_c, 11, 58, 127
2, 300058, Note_off_c, 4, 64, 127
2, 300059, Note_on_c, 2, 62, 127
2, 300059, Note_on_c, 5, 53, 127
2, 300166, Note_on_c, 10, 57, 127
2, 300271, Note_off_c, 5, 53, 127
2, 300272, Note_off_c, 2, 62, 127
2, 300273, Note_on_c, 4, 64, 127
2, 300273, Note_on_c, 7, 55, 127
2, 300322, Note_off_c, 10, 57, 127
2, 300380, Note_on_c, 11, 58, 127
2, 300485, Note_off_c, 7, 55, 127
2, 300486, Note_off_c, 4, 64, 127
2, 300487, Note_on_c, 5, 65, 127
2, 300487, Note_on_c, 10, 57, 127
2, 300536, Note_off_c, 11, 58, 127
2, 300594, Note_on_c, 0, 60, 127
2, 300699, Note_off_c, 10, 57, 127
2, 300700, Note_off_c, 0, 60, 127
2, 300700, Note_off_c, 5, 65, 127
2, 300701, Note_on_c, 4, 64, 127
2, 300701, Note_on_c, 7, 55, 127
2, 300808, Note_on_c, 11, 58, 127
2, 300913, Note_off_c, 7, 55, 127
2, 300914, Note_off_c, 4, 64, 127
2, 300915, Note_on_c, 5, 65, 127
2, 300915, Note_on_c, 10, 57, 127
2, 300964, Note_off_c, 11, 58, 127
2, 301022, Note_on_c, 0, 60, 127
2, 301127, Note_off_c, 10, 57, 127
2, 301128, Note_off_c, 5, 65, 127
2, 301129, Note_on_c, 7, 67, 127
2, 301129, Note_on_c, 11, 58, 127
2, 301178, Note_off_c, 0, 60, 127
2, 301236, Note_on_c, 2, 62, 127
2, 301341, Note_off_c, 11, 58, 127
2, 301342, Note_off_c, 2, 62, 127
2, 301342, Note_off_c, 7, 67, 127
2, 301343, Note_on_c, 7, 67, 127
2, 301343, Note_on_c, 10, 57, 127
2, 301343, Note_on_c, 0, 60, 127
2, 301556, Note_off_c, 7, 67, 127
2, 301557, Note_on_c, 5, 65, 127
2, 301770, Note_off_c, 5, 65, 127
2, 301770, Note_off_c, 0, 60, 127
2, 301770, Note_off_c, 10, 57, 127
2, 301771, Note_on_c, 3, 63, 127
2, 301771, Note_on_c, 11, 58, 127
2, 301771, Note_on_c, 7, 55, 127
2, 301984, Note_off_c, 7, 55, 127
2, 301984, Note_off_c, 11, 58, 127
2, 301984, Note_off_c, 3, 63, 127
2, 301985, Note_on_c, 3, 63, 127
2, 301985, Note_on_c, 6, 54, 127
2, 301985, Note_on_c, 10, 57, 127
2, 302198, Note_off_c, 3, 63, 127
2, 302199, Note_on_c, 2, 62, 127
2, 302404, Note_off_c, 0, 72, 127
2, 302413, Note_on_c, 0, 72, 127
2, 302626, Note_off_c, 0, 72, 127
2, 302626, Note_off_c, 10, 57, 127
2, 302626, Note_off_c, 6, 54, 127
2, 302627, Note_on_c, 12, 71, 127
2, 302627, Note_on_c, 7, 55, 127
2, 302733, Note_off_c, 12, 71, 127
2, 302734, Note_on_c, 10, 69, 127
2, 302840, Note_off_c, 10, 69, 127
2, 302841, Note_on_c, 12, 71, 127
2, 302947, Note_off_c, 12, 71, 127
2, 302948, Note_on_c, 0, 72, 127
2, 303054, Note_off_c, 0, 72, 127
2, 303055, Note_on_c, 2, 74, 127
2, 303161, Note_off_c, 2, 74, 127
2, 303162, Note_on_c, 4, 76, 127
2, 303268, Note_off_c, 4, 76, 127
2, 303269, Note_off_c, 2, 62, 127
2, 303269, Note_on_c, 5, 77, 127
2, 303375, Note_off_c, 7, 55, 127
2, 303376, Note_on_c, 12, 59, 127
2, 303482, Note_off_c, 12, 59, 127
2, 303482, Note_off_c, 5, 77, 127
2, 303483, Note_on_c, 4, 76, 127
2, 303483, Note_on_c, 0, 60, 127
2, 303589, Note_off_c, 0, 60, 127
2, 303590, Note_on_c, 2, 62, 127
2, 303696, Note_off_c, 2, 62, 127
2, 303696, Note_off_c, 4, 76, 127
2, 303697, Note_on_c, 2, 74, 127
2, 303697, Note_on_c, 4, 64, 127
2, 303803, Note_off_c, 4, 64, 127
2, 303804, Note_on_c, 5, 65, 127
2, 303910, Note_off_c, 5, 65, 127
2, 303910, Note_off_c, 2, 74, 127
2, 303911, Note_on_c, 4, 76, 127
2, 303911, Note_on_c, 7, 67, 127
2, 304017, Note_off_c, 4, 76, 127
2, 304018, Note_on_c, 0, 72, 127
2, 304124, Note_off_c, 0, 72, 127
2, 304124, Note_off_c, 7, 67, 127
2, 304125, Note_on_c, 2, 74, 127
2, 304125, Note_on_c, 5, 65, 127
2, 304231, Note_off_c, 2, 74, 127
2, 304232, Note_on_c, 4, 76, 127
2, 304338, Note_off_c, 4, 76, 127
2, 304338, Note_off_c, 5, 65, 127
2, 304339, Note_on_c, 5, 77, 127
2, 304339, Note_on_c, 4, 64, 127
2, 304445, Note_off_c, 5, 77, 127
2, 304446, Note_on_c, 7, 79, 127
2, 304552, Note_off_c, 7, 79, 127
2, 304552, Note_off_c, 4, 64, 127
2, 304553, Note_on_c, 10, 81, 127
2, 304553, Note_on_c, 5, 65, 127
2, 304659, Note_off_c, 10, 81, 127
2, 304660, Note_on_c, 5, 77, 127
2, 304766, Note_off_c, 5, 77, 127
2, 304767, Note_on_c, 4, 76, 127
2, 304767, Note_on_c, 7, 55, 127
2, 304873, Note_off_c, 4, 76, 127
2, 304874, Note_on_c, 2, 74, 127
2, 304976, Note_off_c, 5, 65, 127
2, 304979, Note_off_c, 2, 74, 127
2, 304980, Note_on_c, 4, 76, 127
2, 304980, Note_on_c, 5, 65, 127
2, 305086, Note_off_c, 4, 76, 127
2, 305087, Note_on_c, 5, 77, 127
2, 305189, Note_off_c, 7, 55, 127
2, 305192, Note_off_c, 5, 77, 127
2, 305192, Note_off_c, 5, 65, 127
2, 305193, Note_on_c, 7, 79, 127
2, 305193, Note_on_c, 4, 64, 127
2, 305299, Note_off_c, 7, 79, 127
2, 305300, Note_on_c, 4, 76, 127
2, 305406, Note_off_c, 4, 76, 127
2, 305407, Note_on_c, 2, 74, 127
2, 305407, Note_on_c, 7, 55, 127
2, 305513, Note_off_c, 2, 74, 127
2, 305514, Note_on_c, 0, 72, 127
2, 305616, Note_off_c, 4, 64, 127
2, 305619, Note_off_c, 0, 72, 127
2, 305620, Note_on_c, 2, 74, 127
2, 305620, Note_on_c, 4, 64, 127
2, 305726, Note_off_c, 2, 74, 127
2, 305727, Note_on_c, 4, 76, 127
2, 305829, Note_off_c, 7, 55, 127
2, 305832, Note_off_c, 4, 76, 127
2, 305832, Note_off_c, 4, 64, 127
2, 305833, Note_on_c, 5, 77, 127
2, 305833, Note_on_c, 2, 62, 127
2, 305939, Note_off_c, 5, 77, 127
2, 305940, Note_on_c, 2, 74, 127
2, 306046, Note_off_c, 2, 74, 127
2, 306047, Note_on_c, 0, 72, 127
2, 306047, Note_on_c, 7, 55, 127
2, 306153, Note_off_c, 0, 72, 127
2, 306154, Note_on_c, 12, 71, 127
2, 306256, Note_off_c, 2, 62, 127
2, 306259, Note_off_c, 12, 71, 127
2, 306260, Note_on_c, 0, 72, 127
2, 306260, Note_on_c, 2, 62, 127
2, 306366, Note_off_c, 0, 72, 127
2, 306367, Note_on_c, 2, 74, 127
2, 306469, Note_off_c, 7, 55, 127
2, 306472, Note_off_c, 2, 74, 127
2, 306472, Note_off_c, 2, 62, 127
2, 306473, Note_on_c, 4, 76, 127
2, 306473, Note_on_c, 0, 60, 127
2, 306579, Note_off_c, 4, 76, 127
2, 306580, Note_on_c, 12, 71, 127
2, 306686, Note_off_c, 12, 71, 127
2, 306687, Note_on_c, 0, 72, 127
2, 306687, Note_on_c, 0, 48, 127
2, 306793, Note_off_c, 0, 72, 127
2, 306794, Note_on_c, 4, 76, 127
2, 306896, Note_off_c, 0, 60, 127
2, 306899, Note_off_c, 4, 76, 127
2, 306900, Note_on_c, 12, 71, 127
2, 306900, Note_on_c, 0, 60, 127
2, 307006, Note_off_c, 12, 71, 127
2, 307007, Note_on_c, 0, 72, 127
2, 307109, Note_off_c, 0, 48, 127
2, 307112, Note_off_c, 0, 72, 127
2, 307112, Note_off_c, 0, 60, 127
2, 307113, Note_on_c, 5, 65, 127
2, 307113, Note_on_c, 0, 60, 127
2, 307219, Note_off_c, 5, 65, 127
2, 307220, Note_on_c, 12, 71, 127
2, 307326, Note_off_c, 12, 71, 127
2, 307327, Note_on_c, 0, 72, 127
2, 307327, Note_on_c, 2, 50, 127
2, 307433, Note_off_c, 0, 72, 127
2, 307434, Note_on_c, 4, 76, 127
2, 307536, Note_off_c, 0, 60, 127
2, 307539, Note_off_c, 4, 76, 127
2, 307540, Note_on_c, 12, 71, 127
2, 307540, Note_on_c, 0, 60, 127
2, 307646, Note_off_c, 12, 71, 127
2, 307647, Note_on_c, 0, 72, 127
2, 307749, Note_off_c, 2, 50, 127
2, 307752, Note_off_c, 0, 72, 127
2, 307752, Note_off_c, 0, 60, 127
2, 307753, Note_on_c, 7, 67, 127
2, 307753, Note_on_c, 0, 60, 127
2, 307859, Note_off_c, 7, 67, 127
2, 307860, Note_on_c, 12, 71, 127
2, 307966, Note_off_c, 12, 71, 127
2, 307967, Note_on_c, 0, 72, 127
2, 307967, Note_on_c, 4, 52, 127
2, 308073, Note_off_c, 0, 72, 127
2, 308074, Note_on_c, 4, 76, 127
2, 308176, Note_off_c, 0, 60, 127
2, 308179, Note_off_c, 4, 76, 127
2, 308180, Note_on_c, 12, 71, 127
2, 308180, Note_on_c, 0, 60, 127
2, 308286, Note_off_c, 12, 71, 127
2, 308287, Note_on_c, 0, 72, 127
2, 308389, Note_off_c, 4, 52, 127
2, 308392, Note_off_c, 0, 72, 127
2, 308392, Note_off_c, 0, 60, 127
2, 308393, Note_on_c, 10, 69, 127
2, 308393, Note_on_c, 0, 60, 127
2, 308499, Note_off_c, 10, 69, 127
2, 308500, Note_on_c, 12, 71, 127
2, 308606, Note_off_c, 12, 71, 127
2, 308607, Note_on_c, 0, 72, 127
2, 308607, Note_on_c, 5, 53, 127
2, 308713, Note_off_c, 0, 72, 127
2, 308714, Note_on_c, 4, 76, 127
2, 308816, Note_off_c, 0, 60, 127
2, 308819, Note_off_c, 4, 76, 127
2, 308820, Note_on_c, 12, 71, 127
2, 308820, Note_on_c, 0, 60, 127
2, 308926, Note_off_c, 12, 71, 127
2, 308927, Note_on_c, 0, 72, 127
2, 309029, Note_off_c, 5, 53, 127
2, 309032, Note_off_c, 0, 72, 127
2, 309032, Note_off_c, 0, 60, 127
2, 309033, Note_on_c, 7, 67, 127
2, 309033, Note_on_c, 0, 60, 127
2, 309139, Note_off_c, 7, 67, 127
2, 309140, Note_on_c, 12, 71, 127
2, 309246, Note_off_c, 12, 71, 127
2, 309247, Note_on_c, 0, 72, 127
2, 309247, Note_on_c, 7, 55, 127
2, 309353, Note_off_c, 0, 72, 127
2, 309354, Note_on_c, 4, 76, 127
2, 309456, Note_off_c, 0, 60, 127
2, 309459, Note_off_c, 4, 76, 127
2, 309460, Note_on_c, 12, 71, 127
2, 309460, Note_on_c, 0, 60, 127
2, 309566, Note_off_c, 12, 71, 127
2, 309567, Note_on_c, 0, 72, 127
2, 309669, Note_off_c, 7, 55, 127
2, 309672, Note_off_c, 0, 72, 127
2, 309672, Note_off_c, 0, 60, 127
2, 309673, Note_on_c, 6, 66, 127
2, 309673, Note_on_c, 0, 60, 127
2, 309779, Note_off_c, 6, 66, 127
2, 309780, Note_on_c, 12, 71, 127
2, 309886, Note_off_c, 12, 71, 127
2, 309887, Note_on_c, 0, 72, 127
2, 309887, Note_on_c, 10, 57, 127
2, 309993, Note_off_c, 0, 72, 127
2, 309994, Note_on_c, 4, 76, 127
2, 310096, Note_off_c, 0, 60, 127
2, 310099, Note_off_c, 4, 76, 127
2, 310100, Note_on_c, 12, 71, 127
2, 310100, Note_on_c, 0, 60, 127
2, 310206, Note_off_c, 12, 71, 127
2, 310207, Note_on_c, 0, 72, 127
2, 310309, Note_off_c, 10, 57, 127
2, 310312, Note_off_c, 0, 72, 127
2, 310312, Note_off_c, 0, 60, 127
2, 310313, Note_on_c, 5, 65, 127
2, 310313, Note_on_c, 12, 59, 127
2, 310313, Note_on_c, 2, 62, 127
2, 310419, Note_off_c, 5, 65, 127
2, 310420, Note_on_c, 10, 69, 127
2, 310526, Note_off_c, 10, 69, 127
2, 310526, Note_off_c, 12, 59, 127
2, 310527, Note_on_c, 12, 71, 127
2, 310527, Note_on_c, 10, 57, 127
2, 310633, Note_off_c, 12, 71, 127
2, 310634, Note_on_c, 2, 74, 127
2, 310740, Note_off_c, 2, 74, 127
2, 310740, Note_off_c, 10, 57, 127
2, 310741, Note_on_c, 10, 69, 127
2, 310741, Note_on_c, 7, 55, 127
2, 310847, Note_off_c, 10, 69, 127
2, 310848, Note_on_c, 12, 71, 127
2, 310954, Note_off_c, 12, 71, 127
2, 310954, Note_off_c, 7, 55, 127
2, 310954, Note_off_c, 2, 62, 127
2, 310955, Note_on_c, 3, 63, 127
2, 310955, Note_on_c, 0, 60, 127
2, 311061, Note_off_c, 3, 63, 127
2, 311062, Note_on_c, 7, 67, 127
2, 311168, Note_off_c, 7, 67, 127
2, 311169, Note_on_c, 10, 69, 127
2, 311169, Note_on_c, 6, 54, 127
2, 311275, Note_off_c, 10, 69, 127
2, 311276, Note_on_c, 0, 72, 127
2, 311382, Note_off_c, 0, 72, 127
2, 311382, Note_off_c, 6, 54, 127
2, 311383, Note_on_c, 6, 66, 127
2, 311383, Note_on_c, 10, 57, 127
2, 311489, Note_off_c, 6, 66, 127
2, 311490, Note_on_c, 7, 67, 127
2, 311596, Note_off_c, 7, 67, 127
2, 311596, Note_off_c, 10, 57, 127
2, 311596, Note_off_c, 0, 60, 127
2, 311597, Note_on_c, 2, 62, 127
2, 311597, Note_on_c, 7, 55, 127
2, 311703, Note_off_c, 2, 62, 127
2, 311704, Note_on_c, 5, 65, 127
2, 311810, Note_off_c, 5, 65, 127
2, 311811, Note_on_c, 7, 67, 127
2, 311917, Note_off_c, 7, 67, 127
2, 311918, Note_on_c, 12, 71, 127
2, 312024, Note_off_c, 12, 71, 127
2, 312025, Note_on_c, 5, 65, 127
2, 312025, Note_on_c, 7, 43, 127
2, 312131, Note_off_c, 5, 65, 127
2, 312132, Note_on_c, 7, 67, 127
2, 312238, Note_off_c, 7, 67, 127
2, 312238, Note_off_c, 7, 43, 127
2, 312238, Note_off_c, 7, 55, 127
2, 312245, Note_on_c, 0, 72, 127
2, 312245, Note_on_c, 0, 48, 127
2, 312245, Note_on_c, 4, 64, 127
2, 312363, Note_on_c, 0, 60, 127
2, 312445, Note_off_c, 0, 48, 127
2, 312470, Note_off_c, 0, 60, 127
2, 312471, Note_on_c, 11, 58, 127
2, 312578, Note_off_c, 11, 58, 127
2, 312579, Note_on_c, 10, 57, 127
2, 312686, Note_off_c, 10, 57, 127
2, 312687, Note_on_c, 7, 55, 127
2, 312794, Note_off_c, 7, 55, 127
2, 312795, Note_on_c, 5, 53, 127
2, 312892, Note_off_c, 4, 64, 127
2, 312902, Note_off_c, 5, 53, 127
2, 312903, Note_on_c, 4, 52, 127
2, 313000, Note_off_c, 0, 72, 127
2, 313011, Note_on_c, 7, 67, 127
2, 313118, Note_off_c, 7, 67, 127
2, 313118, Note_off_c, 4, 52, 127
2, 313119, Note_on_c, 6, 54, 127
2, 313119, Note_on_c, 10, 69, 127
2, 313226, Note_off_c, 10, 69, 127
2, 313227, Note_on_c, 12, 71, 127
2, 313334, Note_off_c, 12, 71, 127
2, 313334, Note_off_c, 6, 54, 127
2, 313335, Note_on_c, 7, 55, 127
2, 313335, Note_on_c, 0, 72, 127
2, 313442, Note_off_c, 0, 72, 127
2, 313443, Note_on_c, 2, 74, 127
2, 313550, Note_off_c, 2, 74, 127
2, 313550, Note_off_c, 7, 55, 127
2, 313551, Note_on_c, 6, 54, 127
2, 313551, Note_on_c, 3, 75, 127
2, 313766, Note_off_c, 3, 75, 127
2, 313766, Note_off_c, 6, 54, 127
2, 313767, Note_on_c, 7, 55, 127
2, 313767, Note_on_c, 2, 74, 127
2, 313982, Note_off_c, 2, 74, 127
2, 313982, Note_off_c, 7, 55, 127
2, 313983, Note_on_c, 10, 57, 127
2, 313983, Note_on_c, 0, 72, 127
2, 314198, Note_off_c, 0, 72, 127
2, 314198, Note_off_c, 10, 57, 127
2, 314199, Note_on_c, 7, 55, 127
2, 314199, Note_on_c, 11, 70, 127
2, 314307, Note_on_c, 7, 67, 127
2, 314414, Note_off_c, 7, 67, 127
2, 314415, Note_on_c, 6, 66, 127
2, 314522, Note_off_c, 6, 66, 127
2, 314523, Note_on_c, 4, 64, 127
2, 314630, Note_off_c, 4, 64, 127
2, 314631, Note_on_c, 2, 62, 127
2, 314738, Note_off_c, 2, 62, 127
2, 314738, Note_off_c, 7, 55, 127
2, 314739, Note_on_c, 0, 60, 127
2, 314846, Note_off_c, 0, 60, 127
2, 314847, Note_on_c, 11, 58, 127
2, 314954, Note_off_c, 11, 58, 127
2, 314955, Note_on_c, 10, 57, 127
2, 315062, Note_off_c, 10, 57, 127
2, 315063, Note_on_c, 7, 55, 127
2, 315170, Note_off_c, 7, 55, 127
2, 315171, Note_on_c, 5, 53, 127
2, 315278, Note_off_c, 5, 53, 127
2, 315279, Note_off_c, 11, 70, 127
2, 315279, Note_on_c, 4, 52, 127
2, 315279, Note_on_c, 11, 70, 127
2, 315279, Note_on_c, 7, 67, 127
2, 315279, Note_on_c, 5, 65, 127
2, 315386, Note_off_c, 4, 52, 127
2, 315387, Note_on_c, 2, 50, 127
2, 315494, Note_off_c, 2, 50, 127
2, 315494, Note_off_c, 5, 65, 127
2, 315494, Note_off_c, 7, 67, 127
2, 315494, Note_off_c, 11, 70, 127
2, 315495, Note_on_c, 0, 48, 127
2, 315495, Note_on_c, 2, 74, 127
2, 315495, Note_on_c, 11, 70, 127
2, 315495, Note_on_c, 4, 64, 127
2, 315710, Note_off_c, 11, 70, 127
2, 315710, Note_off_c, 2, 74, 127
2, 315711, Note_on_c, 0, 72, 127
2, 315711, Note_on_c, 10, 69, 127
2, 315926, Note_off_c, 10, 69, 127
2, 315926, Note_off_c, 0, 72, 127
2, 315927, Note_on_c, 11, 70, 127
2, 315927, Note_on_c, 7, 67, 127
2, 316142, Note_off_c, 7, 67, 127
2, 316142, Note_off_c, 11, 70, 127
2, 316142, Note_off_c, 4, 64, 127
2, 316142, Note_off_c, 0, 48, 127
2, 316143, Note_on_c, 5, 53, 127
2, 316143, Note_on_c, 10, 69, 127
2, 316251, Note_on_c, 5, 65, 127
2, 316358, Note_off_c, 5, 65, 127
2, 316359, Note_on_c, 4, 64, 127
2, 316466, Note_off_c, 4, 64, 127
2, 316467, Note_on_c, 2, 62, 127
2, 316574, Note_off_c, 2, 62, 127
2, 316575, Note_on_c, 0, 60, 127
2, 316682, Note_off_c, 0, 60, 127
2, 316682, Note_off_c, 5, 53, 127
2, 316683, Note_on_c, 11, 58, 127
2, 316790, Note_off_c, 11, 58, 127
2, 316791, Note_on_c, 10, 57, 127
2, 316898, Note_off_c, 10, 57, 127
2, 316899, Note_on_c, 7, 55, 127
2, 317006, Note_off_c, 7, 55, 127
2, 317007, Note_on_c, 5, 53, 127
2, 317114, Note_off_c, 5, 53, 127
2, 317115, Note_on_c, 4, 52, 127
2, 317222, Note_off_c, 4, 52, 127
2, 317223, Note_off_c, 10, 69, 127
2, 317223, Note_on_c, 2, 50, 127
2, 317223, Note_on_c, 10, 69, 127
2, 317330, Note_off_c, 2, 50, 127
2, 317331, Note_on_c, 0, 48, 127
2, 317438, Note_off_c, 0, 48, 127
2, 317439, Note_on_c, 12, 47, 127
2, 317439, Note_on_c, 2, 74, 127
2, 317546, Note_off_c, 2, 74, 127
2, 317547, Note_on_c, 4, 76, 127
2, 317654, Note_off_c, 4, 76, 127
2, 317655, Note_on_c, 2, 74, 127
2, 317762, Note_off_c, 2, 74, 127
2, 317763, Note_on_c, 4, 76, 127
2, 317870, Note_off_c, 4, 76, 127
2, 317871, Note_on_c, 5, 77, 127
2, 318086, Note_off_c, 5, 77, 127
2, 318086, Note_off_c, 12, 47, 127
2, 318086, Note_off_c, 10, 69, 127
2, 318087, Note_on_c, 7, 67, 127
2, 318195, Note_on_c, 4, 52, 127
2, 318302, Note_off_c, 4, 52, 127
2, 318303, Note_on_c, 5, 53, 127
2, 318410, Note_off_c, 5, 53, 127
2, 318411, Note_on_c, 7, 55, 127
2, 318518, Note_off_c, 7, 55, 127
2, 318519, Note_on_c, 10, 57, 127
2, 318626, Note_off_c, 10, 57, 127
2, 318627, Note_on_c, 12, 59, 127
2, 318734, Note_off_c, 12, 59, 127
2, 318734, Note_off_c, 7, 67, 127
2, 318735, Note_on_c, 1, 61, 127
2, 318842, Note_off_c, 1, 61, 127
2, 318843, Note_on_c, 2, 62, 127
2, 318950, Note_off_c, 2, 62, 127
2, 318951, Note_on_c, 4, 64, 127
2, 319058, Note_off_c, 4, 64, 127
2, 319059, Note_on_c, 5, 65, 127
2, 319166, Note_off_c, 5, 65, 127
2, 319167, Note_on_c, 4, 52, 127
2, 319167, Note_on_c, 7, 67, 127
2, 319275, Note_on_c, 10, 69, 127
2, 319382, Note_off_c, 10, 69, 127
2, 319382, Note_off_c, 4, 52, 127
2, 319383, Note_on_c, 10, 57, 127
2, 319383, Note_on_c, 11, 70, 127
2, 319383, Note_on_c, 1, 61, 127
2, 319594, Note_off_c, 7, 67, 127
2, 319597, Note_off_c, 11, 70, 127
2, 319598, Note_on_c, 10, 69, 127
2, 319598, Note_on_c, 5, 65, 127
2, 319813, Note_off_c, 5, 65, 127
2, 319813, Note_off_c, 10, 69, 127
2, 319813, Note_off_c, 10, 57, 127
2, 319814, Note_on_c, 10, 45, 127
2, 319814, Note_on_c, 7, 67, 127
2, 319814, Note_on_c, 4, 64, 127
2, 320029, Note_off_c, 4, 64, 127
2, 320029, Note_off_c, 7, 67, 127
2, 320029, Note_off_c, 10, 45, 127
2, 320029, Note_off_c, 1, 61, 127
2, 320030, Note_on_c, 2, 50, 127
2, 320030, Note_on_c, 5, 65, 127
2, 320137, Note_on_c, 2, 62, 127
2, 320243, Note_off_c, 2, 62, 127
2, 320243, Note_off_c, 2, 50, 127
2, 320244, Note_on_c, 5, 53, 127
2, 320244, Note_on_c, 1, 61, 127
2, 320350, Note_off_c, 1, 61, 127
2, 320351, Note_on_c, 12, 59, 127
2, 320453, Note_off_c, 5, 65, 127
2, 320456, Note_off_c, 12, 59, 127
2, 320456, Note_off_c, 5, 53, 127
2, 320457, Note_on_c, 10, 45, 127
2, 320457, Note_on_c, 1, 61, 127
2, 320563, Note_off_c, 1, 61, 127
2, 320564, Note_on_c, 2, 62, 127
2, 320670, Note_off_c, 2, 62, 127
2, 320670, Note_off_c, 10, 45, 127
2, 320671, Note_on_c, 4, 52, 127
2, 320671, Note_on_c, 7, 67, 127
2, 320778, Note_on_c, 4, 64, 127
2, 320884, Note_off_c, 4, 64, 127
2, 320884, Note_off_c, 4, 52, 127
2, 320885, Note_on_c, 7, 55, 127
2, 320885, Note_on_c, 2, 62, 127
2, 320991, Note_off_c, 2, 62, 127
2, 320992, Note_on_c, 1, 61, 127
2, 321094, Note_off_c, 7, 67, 127
2, 321097, Note_off_c, 1, 61, 127
2, 321097, Note_off_c, 7, 55, 127
2, 321098, Note_on_c, 10, 45, 127
2, 321098, Note_on_c, 2, 62, 127
2, 321204, Note_off_c, 2, 62, 127
2, 321205, Note_on_c, 4, 64, 127
2, 321311, Note_off_c, 4, 64, 127
2, 321311, Note_off_c, 10, 45, 127
2, 321312, Note_on_c, 5, 53, 127
2, 321312, Note_on_c, 10, 69, 127
2, 321419, Note_on_c, 5, 65, 127
2, 321525, Note_off_c, 5, 65, 127
2, 321525, Note_off_c, 5, 53, 127
2, 321526, Note_on_c, 10, 57, 127
2, 321526, Note_on_c, 4, 64, 127
2, 321632, Note_off_c, 4, 64, 127
2, 321633, Note_on_c, 2, 62, 127
2, 321735, Note_off_c, 10, 69, 127
2, 321738, Note_off_c, 2, 62, 127
2, 321738, Note_off_c, 10, 57, 127
2, 321739, Note_on_c, 2, 50, 127
2, 321739, Note_on_c, 4, 64, 127
2, 321845, Note_off_c, 4, 64, 127
2, 321846, Note_on_c, 5, 65, 127
2, 321952, Note_off_c, 5, 65, 127
2, 321952, Note_off_c, 2, 50, 127
2, 321953, Note_on_c, 7, 55, 127
2, 321953, Note_on_c, 12, 71, 127
2, 322060, Note_on_c, 7, 67, 127
2, 322166, Note_off_c, 7, 67, 127
2, 322166, Note_off_c, 7, 55, 127
2, 322167, Note_on_c, 7, 43, 127
2, 322167, Note_on_c, 5, 65, 127
2, 322273, Note_off_c, 5, 65, 127
2, 322274, Note_on_c, 4, 64, 127
2, 322376, Note_off_c, 12, 71, 127
2, 322379, Note_off_c, 4, 64, 127
2, 322379, Note_off_c, 7, 43, 127
2, 322380, Note_on_c, 7, 55, 127
2, 322380, Note_on_c, 5, 65, 127
2, 322486, Note_off_c, 5, 65, 127
2, 322487, Note_on_c, 7, 67, 127
2, 322593, Note_off_c, 7, 67, 127
2, 322593, Note_off_c, 7, 55, 127
2, 322594, Note_on_c, 7, 55, 127
2, 322594, Note_on_c, 1, 73, 127
2, 322701, Note_on_c, 10, 69, 127
2, 322807, Note_off_c, 10, 69, 127
2, 322807, Note_off_c, 7, 55, 127
2, 322808, Note_on_c, 10, 45, 127
2, 322808, Note_on_c, 7, 67, 127
2, 322914, Note_off_c, 7, 67, 127
2, 322915, Note_on_c, 5, 65, 127
2, 323017, Note_off_c, 1, 73, 127
2, 323020, Note_off_c, 5, 65, 127
2, 323020, Note_off_c, 10, 45, 127
2, 323021, Note_on_c, 7, 55, 127
2, 323021, Note_on_c, 7, 67, 127
2, 323127, Note_off_c, 7, 67, 127
2, 323128, Note_on_c, 10, 69, 127
2, 323234, Note_off_c, 10, 69, 127
2, 323234, Note_off_c, 7, 55, 127
2, 323235, Note_on_c, 7, 55, 127
2, 323235, Note_on_c, 2, 74, 127
2, 323342, Note_on_c, 11, 70, 127
2, 323448, Note_off_c, 11, 70, 127
2, 323448, Note_off_c, 7, 55, 127
2, 323449, Note_on_c, 11, 46, 127
2, 323449, Note_on_c, 10, 69, 127
2, 323555, Note_off_c, 10, 69, 127
2, 323556, Note_on_c, 7, 67, 127
2, 323658, Note_off_c, 2, 74, 127
2, 323661, Note_off_c, 7, 67, 127
2, 323661, Note_off_c, 11, 46, 127
2, 323662, Note_on_c, 7, 55, 127
2, 323662, Note_on_c, 10, 69, 127
2, 323768, Note_off_c, 10, 69, 127
2, 323769, Note_on_c, 11, 70, 127
2, 323875, Note_off_c, 11, 70, 127
2, 323875, Note_off_c, 7, 55, 127
2, 323876, Note_on_c, 1, 49, 127
2, 323876, Note_on_c, 4, 76, 127
2, 323983, Note_on_c, 11, 70, 127
2, 324089, Note_off_c, 11, 70, 127
2, 324089, Note_off_c, 1, 49, 127
2, 324090, Note_on_c, 4, 52, 127
2, 324090, Note_on_c, 10, 69, 127
2, 324188, Note_off_c, 4, 76, 127
2, 324196, Note_off_c, 10, 69, 127
2, 324197, Note_on_c, 7, 67, 127
2, 324303, Note_off_c, 7, 67, 127
2, 324303, Note_off_c, 4, 52, 127
2, 324304, Note_on_c, 10, 57, 127
2, 324304, Note_on_c, 5, 65, 127
2, 324410, Note_off_c, 5, 65, 127
2, 324411, Note_on_c, 4, 64, 127
2, 324517, Note_off_c, 4, 64, 127
2, 324517, Note_off_c, 10, 57, 127
2, 324518, Note_on_c, 2, 50, 127
2, 324518, Note_on_c, 5, 65, 127
2, 324624, Note_off_c, 5, 65, 127
2, 324625, Note_on_c, 10, 69, 127
2, 324731, Note_off_c, 10, 69, 127
2, 324731, Note_off_c, 2, 50, 127
2, 324732, Note_on_c, 5, 53, 127
2, 324732, Note_on_c, 11, 70, 127
2, 324838, Note_off_c, 11, 70, 127
2, 324839, Note_on_c, 0, 72, 127
2, 324945, Note_off_c, 0, 72, 127
2, 324945, Note_off_c, 5, 53, 127
2, 324946, Note_on_c, 10, 57, 127
2, 324946, Note_on_c, 11, 70, 127
2, 325052, Note_off_c, 11, 70, 127
2, 325053, Note_on_c, 10, 69, 127
2, 325159, Note_off_c, 10, 69, 127
2, 325159, Note_off_c, 10, 57, 127
2, 325160, Note_on_c, 11, 46, 127
2, 325160, Note_on_c, 7, 67, 127
2, 325266, Note_off_c, 7, 67, 127
2, 325267, Note_on_c, 2, 74, 127
2, 325373, Note_off_c, 2, 74, 127
2, 325373, Note_off_c, 11, 46, 127
2, 325374, Note_on_c, 2, 50, 127
2, 325374, Note_on_c, 4, 76, 127
2, 325480, Note_off_c, 4, 76, 127
2, 325481, Note_on_c, 5, 77, 127
2, 325587, Note_off_c, 5, 77, 127
2, 325587, Note_off_c, 2, 50, 127
2, 325588, Note_on_c, 7, 55, 127
2, 325588, Note_on_c, 4, 76, 127
2, 325694, Note_off_c, 4, 76, 127
2, 325695, Note_on_c, 2, 74, 127
2, 325801, Note_off_c, 2, 74, 127
2, 325801, Note_off_c, 7, 55, 127
2, 325802, Note_on_c, 10, 57, 127
2, 325802, Note_on_c, 1, 73, 127
2, 325908, Note_off_c, 10, 57, 127
2, 325909, Note_on_c, 10, 45, 127
2, 326015, Note_off_c, 10, 45, 127
2, 326016, Note_on_c, 12, 47, 127
2, 326122, Note_off_c, 12, 47, 127
2, 326123, Note_on_c, 1, 49, 127
2, 326229, Note_off_c, 1, 49, 127
2, 326230, Note_on_c, 2, 50, 127
2, 326336, Note_off_c, 2, 50, 127
2, 326337, Note_on_c, 4, 52, 127
2, 326443, Note_off_c, 4, 52, 127
2, 326443, Note_off_c, 1, 73, 127
2, 326444, Note_on_c, 5, 53, 127
2, 326551, Note_on_c, 12, 71, 127
2, 326657, Note_off_c, 12, 71, 127
2, 326657, Note_off_c, 5, 53, 127
2, 326658, Note_on_c, 4, 52, 127
2, 326658, Note_on_c, 1, 73, 127
2, 326764, Note_off_c, 1, 73, 127
2, 326765, Note_on_c, 2, 74, 127
2, 326871, Note_off_c, 2, 74, 127
2, 326871, Note_off_c, 4, 52, 127
2, 326872, Note_on_c, 2, 50, 127
2, 326872, Note_on_c, 4, 76, 127
2, 326978, Note_off_c, 4, 76, 127
2, 326979, Note_on_c, 5, 77, 127
2, 327085, Note_off_c, 5, 77, 127
2, 327085, Note_off_c, 2, 50, 127
2, 327086, Note_on_c, 4, 52, 127
2, 327086, Note_on_c, 7, 79, 127
2, 327192, Note_off_c, 7, 79, 127
2, 327193, Note_on_c, 5, 77, 127
2, 327299, Note_off_c, 5, 77, 127
2, 327299, Note_off_c, 4, 52, 127
2, 327300, Note_on_c, 2, 50, 127
2, 327300, Note_on_c, 4, 76, 127
2, 327406, Note_off_c, 4, 76, 127
2, 327407, Note_on_c, 5, 77, 127
2, 327513, Note_off_c, 5, 77, 127
2, 327513, Note_off_c, 2, 50, 127
2, 327514, Note_on_c, 1, 49, 127
2, 327514, Note_on_c, 7, 79, 127
2, 327620, Note_off_c, 7, 79, 127
2, 327621, Note_on_c, 4, 76, 127
2, 327727, Note_off_c, 4, 76, 127
2, 327727, Note_off_c, 1, 49, 127
2, 327728, Note_on_c, 2, 50, 127
2, 327728, Note_on_c, 5, 77, 127
2, 327834, Note_off_c, 5, 77, 127
2, 327835, Note_on_c, 2, 74, 127
2, 327941, Note_off_c, 2, 74, 127
2, 327942, Note_on_c, 4, 76, 127
2, 328048, Note_off_c, 4, 76, 127
2, 328049, Note_on_c, 6, 78, 127
2, 328155, Note_off_c, 6, 78, 127
2, 328156, Note_on_c, 7, 79, 127
2, 328262, Note_off_c, 7, 79, 127
2, 328263, Note_on_c, 10, 81, 127
2, 328369, Note_off_c, 10, 81, 127
2, 328370, Note_on_c, 11, 82, 127
2, 328428, Note_off_c, 2, 50, 127
2, 328477, Note_on_c, 4, 52, 127
2, 328583, Note_off_c, 4, 52, 127
2, 328583, Note_off_c, 11, 82, 127
2, 328584, Note_on_c, 6, 54, 127
2, 328584, Note_on_c, 10, 81, 127
2, 328690, Note_off_c, 6, 54, 127
2, 328691, Note_on_c, 7, 55, 127
2, 328797, Note_off_c, 7, 55, 127
2, 328797, Note_off_c, 10, 81, 127
2, 328798, Note_on_c, 10, 57, 127
2, 328798, Note_on_c, 7, 79, 127
2, 328904, Note_off_c, 10, 57, 127
2, 328905, Note_on_c, 11, 58, 127
2, 329011, Note_off_c, 11, 58, 127
2, 329011, Note_off_c, 7, 79, 127
2, 329012, Note_on_c, 0, 60, 127
2, 329012, Note_on_c, 10, 81, 127
2, 329118, Note_off_c, 0, 60, 127
2, 329119, Note_on_c, 11, 58, 127
2, 329225, Note_off_c, 11, 58, 127
2, 329225, Note_off_c, 10, 81, 127
2, 329226, Note_on_c, 10, 57, 127
2, 329226, Note_on_c, 7, 79, 127
2, 329332, Note_off_c, 10, 57, 127
2, 329333, Note_on_c, 11, 58, 127
2, 329439, Note_off_c, 11, 58, 127
2, 329439, Note_off_c, 7, 79, 127
2, 329440, Note_on_c, 0, 60, 127
2, 329440, Note_on_c, 6, 78, 127
2, 329546, Note_off_c, 0, 60, 127
2, 329547, Note_on_c, 10, 57, 127
2, 329653, Note_off_c, 10, 57, 127
2, 329653, Note_off_c, 6, 78, 127
2, 329654, Note_on_c, 12, 59, 127
2, 329654, Note_on_c, 7, 79, 127
2, 329760, Note_off_c, 12, 59, 127
2, 329761, Note_on_c, 7, 55, 127
2, 329867, Note_off_c, 7, 55, 127
2, 329868, Note_on_c, 10, 57, 127
2, 329974, Note_off_c, 10, 57, 127
2, 329975, Note_on_c, 12, 59, 127
2, 330081, Note_off_c, 12, 59, 127
2, 330082, Note_on_c, 0, 60, 127
2, 330188, Note_off_c, 0, 60, 127
2, 330189, Note_on_c, 2, 62, 127
2, 330295, Note_off_c, 2, 62, 127
2, 330295, Note_off_c, 7, 79, 127
2, 330296, Note_on_c, 4, 64, 127
2, 330403, Note_on_c, 10, 69, 127
2, 330509, Note_off_c, 10, 69, 127
2, 330509, Note_off_c, 4, 64, 127
2, 330510, Note_on_c, 2, 62, 127
2, 330510, Note_on_c, 12, 71, 127
2, 330616, Note_off_c, 12, 71, 127
2, 330617, Note_on_c, 0, 72, 127
2, 330723, Note_off_c, 0, 72, 127
2, 330723, Note_off_c, 2, 62, 127
2, 330724, Note_on_c, 0, 60, 127
2, 330724, Note_on_c, 2, 74, 127
2, 330830, Note_off_c, 2, 74, 127
2, 330831, Note_on_c, 4, 76, 127
2, 330937, Note_off_c, 4, 76, 127
2, 330937, Note_off_c, 0, 60, 127
2, 330938, Note_on_c, 2, 62, 127
2, 330938, Note_on_c, 5, 77, 127
2, 331044, Note_off_c, 5, 77, 127
2, 331045, Note_on_c, 4, 76, 127
2, 331151, Note_off_c, 4, 76, 127
2, 331151, Note_off_c, 2, 62, 127
2, 331152, Note_on_c, 0, 60, 127
2, 331152, Note_on_c, 2, 74, 127
2, 331258, Note_off_c, 2, 74, 127
2, 331259, Note_on_c, 4, 76, 127
2, 331365, Note_off_c, 4, 76, 127
2, 331365, Note_off_c, 0, 60, 127
2, 331366, Note_on_c, 12, 59, 127
2, 331366, Note_on_c, 5, 77, 127
2, 331472, Note_off_c, 5, 77, 127
2, 331473, Note_on_c, 2, 74, 127
2, 331579, Note_off_c, 2, 74, 127
2, 331579, Note_off_c, 12, 59, 127
2, 331580, Note_on_c, 0, 60, 127
2, 331580, Note_on_c, 4, 76, 127
2, 331686, Note_off_c, 4, 76, 127
2, 331687, Note_on_c, 0, 72, 127
2, 331793, Note_off_c, 0, 72, 127
2, 331794, Note_on_c, 2, 74, 127
2, 331900, Note_off_c, 2, 74, 127
2, 331901, Note_on_c, 4, 76, 127
2, 332007, Note_off_c, 4, 76, 127
2, 332008, Note_on_c, 5, 77, 127
2, 332114, Note_off_c, 5, 77, 127
2, 332115, Note_on_c, 7, 79, 127
2, 332221, Note_off_c, 7, 79, 127
2, 332222, Note_on_c, 10, 81, 127
2, 332316, Note_off_c, 0, 60, 127
2, 332329, Note_on_c, 2, 62, 127
2, 332435, Note_off_c, 2, 62, 127
2, 332435, Note_off_c, 10, 81, 127
2, 332436, Note_on_c, 4, 64, 127
2, 332436, Note_on_c, 7, 79, 127
2, 332542, Note_off_c, 4, 64, 127
2, 332543, Note_on_c, 5, 65, 127
2, 332649, Note_off_c, 5, 65, 127
2, 332649, Note_off_c, 7, 79, 127
2, 332650, Note_on_c, 7, 67, 127
2, 332650, Note_on_c, 5, 77, 127
2, 332756, Note_off_c, 7, 67, 127
2, 332757, Note_on_c, 10, 69, 127
2, 332863, Note_off_c, 10, 69, 127
2, 332863, Note_off_c, 5, 77, 127
2, 332864, Note_on_c, 11, 70, 127
2, 332864, Note_on_c, 7, 79, 127
2, 332970, Note_off_c, 11, 70, 127
2, 332971, Note_on_c, 10, 69, 127
2, 333077, Note_off_c, 10, 69, 127
2, 333077, Note_off_c, 7, 79, 127
2, 333078, Note_on_c, 7, 67, 127
2, 333078, Note_on_c, 5, 77, 127
2, 333184, Note_off_c, 7, 67, 127
2, 333185, Note_on_c, 10, 69, 127
2, 333291, Note_off_c, 10, 69, 127
2, 333291, Note_off_c, 5, 77, 127
2, 333292, Note_on_c, 11, 70, 127
2, 333292, Note_on_c, 4, 76, 127
2, 333398, Note_off_c, 11, 70, 127
2, 333399, Note_on_c, 7, 67, 127
2, 333505, Note_off_c, 7, 67, 127
2, 333505, Note_off_c, 4, 76, 127
2, 333506, Note_on_c, 10, 69, 127
2, 333506, Note_on_c, 5, 77, 127
2, 333612, Note_off_c, 10, 69, 127
2, 333613, Note_on_c, 5, 65, 127
2, 333719, Note_off_c, 5, 65, 127
2, 333720, Note_on_c, 4, 64, 127
2, 333720, Note_on_c, 11, 82, 127
2, 333826, Note_off_c, 4, 64, 127
2, 333827, Note_on_c, 2, 62, 127
2, 333906, Note_off_c, 5, 77, 127
2, 333933, Note_off_c, 2, 62, 127
2, 333933, Note_off_c, 11, 82, 127
2, 333934, Note_on_c, 4, 64, 127
2, 333934, Note_on_c, 2, 74, 127
2, 334040, Note_off_c, 4, 64, 127
2, 334041, Note_on_c, 5, 65, 127
2, 334147, Note_off_c, 5, 65, 127
2, 334147, Note_off_c, 2, 74, 127
2, 334148, Note_on_c, 7, 67, 127
2, 334148, Note_on_c, 4, 76, 127
2, 334254, Note_off_c, 7, 67, 127
2, 334255, Note_on_c, 4, 64, 127
2, 334361, Note_off_c, 4, 64, 127
2, 334362, Note_on_c, 2, 62, 127
2, 334362, Note_on_c, 10, 81, 127
2, 334468, Note_off_c, 2, 62, 127
2, 334469, Note_on_c, 0, 60, 127
2, 334548, Note_off_c, 4, 76, 127
2, 334575, Note_off_c, 0, 60, 127
2, 334575, Note_off_c, 10, 81, 127
2, 334576, Note_on_c, 2, 62, 127
2, 334576, Note_on_c, 0, 72, 127
2, 334682, Note_off_c, 2, 62, 127
2, 334683, Note_on_c, 4, 64, 127
2, 334789, Note_off_c, 4, 64, 127
2, 334789, Note_off_c, 0, 72, 127
2, 334790, Note_on_c, 5, 65, 127
2, 334790, Note_on_c, 2, 74, 127
2, 334896, Note_off_c, 5, 65, 127
2, 334897, Note_on_c, 2, 62, 127
2, 335003, Note_off_c, 2, 62, 127
2, 335004, Note_on_c, 0, 60, 127
2, 335004, Note_on_c, 7, 79, 127
2, 335110, Note_off_c, 0, 60, 127
2, 335111, Note_on_c, 11, 58, 127
2, 335190, Note_off_c, 2, 74, 127
2, 335217, Note_off_c, 11, 58, 127
2, 335217, Note_off_c, 7, 79, 127
2, 335218, Note_on_c, 0, 60, 127
2, 335218, Note_on_c, 11, 70, 127
2, 335324, Note_off_c, 0, 60, 127
2, 335325, Note_on_c, 2, 62, 127
2, 335431, Note_off_c, 2, 62, 127
2, 335431, Note_off_c, 11, 70, 127
2, 335432, Note_on_c, 4, 64, 127
2, 335432, Note_on_c, 0, 72, 127
2, 335538, Note_off_c, 4, 64, 127
2, 335539, Note_on_c, 0, 60, 127
2, 335645, Note_off_c, 0, 60, 127
2, 335646, Note_on_c, 11, 58, 127
2, 335646, Note_on_c, 5, 77, 127
2, 335752, Note_off_c, 11, 58, 127
2, 335753, Note_on_c, 10, 57, 127
2, 335832, Note_off_c, 0, 72, 127
2, 335859, Note_off_c, 10, 57, 127
2, 335859, Note_off_c, 5, 77, 127
2, 335860, Note_on_c, 11, 58, 127
2, 335860, Note_on_c, 10, 69, 127
2, 335966, Note_off_c, 11, 58, 127
2, 335967, Note_on_c, 0, 60, 127
2, 336073, Note_off_c, 0, 60, 127
2, 336073, Note_off_c, 10, 69, 127
2, 336074, Note_on_c, 2, 62, 127
2, 336074, Note_on_c, 11, 70, 127
2, 336180, Note_off_c, 2, 62, 127
2, 336181, Note_on_c, 11, 58, 127
2, 336287, Note_off_c, 11, 58, 127
2, 336288, Note_on_c, 10, 57, 127
2, 336288, Note_on_c, 4, 76, 127
2, 336394, Note_off_c, 10, 57, 127
2, 336395, Note_on_c, 7, 55, 127
2, 336474, Note_off_c, 11, 70, 127
2, 336501, Note_off_c, 7, 55, 127
2, 336501, Note_off_c, 4, 76, 127
2, 336502, Note_on_c, 10, 57, 127
2, 336502, Note_on_c, 7, 67, 127
2, 336608, Note_off_c, 10, 57, 127
2, 336609, Note_on_c, 11, 58, 127
2, 336715, Note_off_c, 11, 58, 127
2, 336715, Note_off_c, 7, 67, 127
2, 336716, Note_on_c, 0, 60, 127
2, 336716, Note_on_c, 10, 69, 127
2, 336822, Note_off_c, 0, 60, 127
2, 336823, Note_on_c, 10, 57, 127
2, 336929, Note_off_c, 10, 57, 127
2, 336929, Note_off_c, 10, 69, 127
2, 336930, Note_on_c, 7, 55, 127
2, 336930, Note_on_c, 2, 74, 127
2, 337036, Note_off_c, 7, 55, 127
2, 337037, Note_on_c, 5, 53, 127
2, 337143, Note_off_c, 5, 53, 127
2, 337143, Note_off_c, 2, 74, 127
2, 337144, Note_on_c, 7, 55, 127
2, 337144, Note_on_c, 5, 65, 127
2, 337250, Note_off_c, 7, 55, 127
2, 337251, Note_on_c, 10, 57, 127
2, 337357, Note_off_c, 10, 57, 127
2, 337357, Note_off_c, 5, 65, 127
2, 337358, Note_on_c, 11, 58, 127
2, 337358, Note_on_c, 7, 67, 127
2, 337465, Note_on_c, 10, 69, 127
2, 337558, Note_off_c, 7, 67, 127
2, 337571, Note_off_c, 10, 69, 127
2, 337572, Note_on_c, 11, 70, 127
2, 337678, Note_off_c, 11, 70, 127
2, 337679, Note_on_c, 2, 74, 127
2, 337785, Note_off_c, 2, 74, 127
2, 337786, Note_on_c, 11, 70, 127
2, 337892, Note_off_c, 11, 70, 127
2, 337893, Note_on_c, 10, 69, 127
2, 337999, Note_off_c, 10, 69, 127
2, 337999, Note_off_c, 11, 58, 127
2, 338000, Note_on_c, 7, 67, 127
2, 338106, Note_off_c, 7, 67, 127
2, 338107, Note_on_c, 10, 69, 127
2, 338213, Note_off_c, 10, 69, 127
2, 338214, Note_on_c, 11, 70, 127
2, 338320, Note_off_c, 11, 70, 127
2, 338321, Note_on_c, 2, 74, 127
2, 338427, Note_off_c, 2, 74, 127
2, 338428, Note_on_c, 10, 69, 127
2, 338534, Note_off_c, 10, 69, 127
2, 338535, Note_on_c, 7, 67, 127
2, 338641, Note_off_c, 7, 67, 127
2, 338642, Note_on_c, 10, 57, 127
2, 338642, Note_on_c, 5, 65, 127
2, 338749, Note_on_c, 7, 67, 127
2, 338792, Note_off_c, 5, 65, 127
2, 338855, Note_off_c, 7, 67, 127
2, 338856, Note_on_c, 10, 69, 127
2, 338962, Note_off_c, 10, 69, 127
2, 338963, Note_on_c, 2, 74, 127
2, 339069, Note_off_c, 2, 74, 127
2, 339070, Note_on_c, 7, 67, 127
2, 339176, Note_off_c, 7, 67, 127
2, 339177, Note_on_c, 5, 65, 127
2, 339283, Note_off_c, 5, 65, 127
2, 339283, Note_off_c, 10, 57, 127
2, 339284, Note_on_c, 7, 55, 127
2, 339284, Note_on_c, 4, 64, 127
2, 339391, Note_on_c, 5, 65, 127
2, 339484, Note_off_c, 4, 64, 127
2, 339497, Note_off_c, 5, 65, 127
2, 339498, Note_on_c, 7, 67, 127
2, 339604, Note_off_c, 7, 67, 127
2, 339605, Note_on_c, 11, 70, 127
2, 339711, Note_off_c, 11, 70, 127
2, 339712, Note_on_c, 7, 67, 127
2, 339818, Note_off_c, 7, 67, 127
2, 339819, Note_on_c, 5, 65, 127
2, 339925, Note_off_c, 5, 65, 127
2, 339925, Note_off_c, 7, 55, 127
2, 339926, Note_on_c, 4, 64, 127
2, 340032, Note_off_c, 4, 64, 127
2, 340033, Note_on_c, 5, 65, 127
2, 340139, Note_off_c, 5, 65, 127
2, 340140, Note_on_c, 7, 67, 127
2, 340246, Note_off_c, 7, 67, 127
2, 340247, Note_on_c, 11, 70, 127
2, 340353, Note_off_c, 11, 70, 127
2, 340354, Note_on_c, 5, 65, 127
2, 340460, Note_off_c, 5, 65, 127
2, 340461, Note_on_c, 4, 64, 127
2, 340567, Note_off_c, 4, 64, 127
2, 340568, Note_on_c, 8, 56, 127
2, 340568, Note_on_c, 2, 62, 127
2, 340675, Note_on_c, 4, 64, 127
2, 340718, Note_off_c, 2, 62, 127
2, 340781, Note_off_c, 4, 64, 127
2, 340782, Note_on_c, 5, 65, 127
2, 340888, Note_off_c, 5, 65, 127
2, 340889, Note_on_c, 12, 71, 127
2, 340995, Note_off_c, 12, 71, 127
2, 340996, Note_on_c, 4, 64, 127
2, 341102, Note_off_c, 4, 64, 127
2, 341103, Note_on_c, 2, 62, 127
2, 341209, Note_off_c, 2, 62, 127
2, 341209, Note_off_c, 8, 56, 127
2, 341210, Note_on_c, 10, 57, 127
2, 341210, Note_on_c, 1, 61, 127
2, 341316, Note_off_c, 10, 57, 127
2, 341317, Note_on_c, 10, 45, 127
2, 341423, Note_off_c, 10, 45, 127
2, 341423, Note_off_c, 1, 61, 127
2, 341424, Note_on_c, 12, 47, 127
2, 341424, Note_on_c, 2, 62, 127
2, 341530, Note_off_c, 2, 62, 127
2, 341530, Note_off_c, 12, 47, 127
2, 341531, Note_on_c, 1, 49, 127
2, 341531, Note_on_c, 4, 64, 127
2, 341637, Note_off_c, 4, 64, 127
2, 341637, Note_off_c, 1, 49, 127
2, 341638, Note_on_c, 2, 50, 127
2, 341638, Note_on_c, 5, 65, 127
2, 341744, Note_off_c, 5, 65, 127
2, 341744, Note_off_c, 2, 50, 127
2, 341745, Note_on_c, 4, 52, 127
2, 341745, Note_on_c, 7, 67, 127
2, 341851, Note_off_c, 7, 67, 127
2, 341851, Note_off_c, 4, 52, 127
2, 341852, Note_on_c, 5, 53, 127
2, 341852, Note_on_c, 10, 69, 127
2, 341958, Note_off_c, 10, 69, 127
2, 341959, Note_on_c, 12, 71, 127
2, 342065, Note_off_c, 12, 71, 127
2, 342065, Note_off_c, 5, 53, 127
2, 342066, Note_on_c, 4, 52, 127
2, 342066, Note_on_c, 1, 73, 127
2, 342172, Note_off_c, 1, 73, 127
2, 342173, Note_on_c, 2, 74, 127
2, 342279, Note_off_c, 2, 74, 127
2, 342279, Note_off_c, 4, 52, 127
2, 342280, Note_on_c, 2, 50, 127
2, 342280, Note_on_c, 4, 76, 127
2, 342386, Note_off_c, 4, 76, 127
2, 342387, Note_on_c, 5, 77, 127
2, 342493, Note_off_c, 5, 77, 127
2, 342493, Note_off_c, 2, 50, 127
2, 342494, Note_on_c, 4, 52, 127
2, 342494, Note_on_c, 7, 79, 127
2, 342600, Note_off_c, 7, 79, 127
2, 342601, Note_on_c, 5, 77, 127
2, 342707, Note_off_c, 5, 77, 127
2, 342707, Note_off_c, 4, 52, 127
2, 342708, Note_on_c, 2, 50, 127
2, 342708, Note_on_c, 4, 76, 127
2, 342814, Note_off_c, 4, 76, 127
2, 342815, Note_on_c, 5, 77, 127
2, 342921, Note_off_c, 5, 77, 127
2, 342921, Note_off_c, 2, 50, 127
2, 342922, Note_on_c, 1, 49, 127
2, 342922, Note_on_c, 7, 79, 127
2, 343028, Note_off_c, 7, 79, 127
2, 343029, Note_on_c, 4, 76, 127
2, 343135, Note_off_c, 4, 76, 127
2, 343135, Note_off_c, 1, 49, 127
2, 343136, Note_on_c, 2, 50, 127
2, 343136, Note_on_c, 5, 77, 127
2, 343242, Note_off_c, 5, 77, 127
2, 343243, Note_on_c, 2, 74, 127
2, 343349, Note_off_c, 2, 74, 127
2, 343349, Note_off_c, 2, 50, 127
2, 343350, Note_on_c, 7, 55, 127
2, 343350, Note_on_c, 0, 72, 127
2, 343456, Note_off_c, 0, 72, 127
2, 343457, Note_on_c, 11, 70, 127
2, 343563, Note_off_c, 11, 70, 127
2, 343563, Note_off_c, 7, 55, 127
2, 343564, Note_on_c, 11, 46, 127
2, 343564, Note_on_c, 0, 72, 127
2, 343670, Note_off_c, 0, 72, 127
2, 343671, Note_on_c, 2, 74, 127
2, 343777, Note_off_c, 2, 74, 127
2, 343777, Note_off_c, 11, 46, 127
2, 343778, Note_on_c, 0, 48, 127
2, 343778, Note_on_c, 4, 76, 127
2, 343884, Note_off_c, 4, 76, 127
2, 343885, Note_on_c, 0, 72, 127
2, 343991, Note_off_c, 0, 72, 127
2, 343991, Note_off_c, 0, 48, 127
2, 343992, Note_on_c, 5, 53, 127
2, 343992, Note_on_c, 11, 70, 127
2, 344098, Note_off_c, 11, 70, 127
2, 344099, Note_on_c, 10, 69, 127
2, 344205, Note_off_c, 10, 69, 127
2, 344205, Note_off_c, 5, 53, 127
2, 344206, Note_on_c, 10, 45, 127
2, 344206, Note_on_c, 11, 70, 127
2, 344312, Note_off_c, 11, 70, 127
2, 344313, Note_on_c, 0, 72, 127
2, 344419, Note_off_c, 0, 72, 127
2, 344419, Note_off_c, 10, 45, 127
2, 344420, Note_on_c, 11, 46, 127
2, 344420, Note_on_c, 2, 74, 127
2, 344526, Note_off_c, 2, 74, 127
2, 344527, Note_on_c, 11, 70, 127
2, 344633, Note_off_c, 11, 70, 127
2, 344633, Note_off_c, 11, 46, 127
2, 344634, Note_on_c, 4, 52, 127
2, 344634, Note_on_c, 10, 69, 127
2, 344740, Note_off_c, 10, 69, 127
2, 344741, Note_on_c, 7, 67, 127
2, 344847, Note_off_c, 7, 67, 127
2, 344847, Note_off_c, 4, 52, 127
2, 344848, Note_on_c, 7, 43, 127
2, 344848, Note_on_c, 10, 69, 127
2, 344954, Note_off_c, 10, 69, 127
2, 344955, Note_on_c, 11, 70, 127
2, 345061, Note_off_c, 11, 70, 127
2, 345061, Note_off_c, 7, 43, 127
2, 345062, Note_on_c, 10, 45, 127
2, 345062, Note_on_c, 0, 72, 127
2, 345168, Note_off_c, 0, 72, 127
2, 345169, Note_on_c, 10, 69, 127
2, 345275, Note_off_c, 10, 69, 127
2, 345275, Note_off_c, 10, 45, 127
2, 345276, Note_on_c, 2, 50, 127
2, 345276, Note_on_c, 7, 67, 127
2, 345382, Note_off_c, 7, 67, 127
2, 345383, Note_on_c, 5, 65, 127
2, 345489, Note_off_c, 5, 65, 127
2, 345489, Note_off_c, 2, 50, 127
2, 345490, Note_on_c, 5, 41, 127
2, 345490, Note_on_c, 7, 67, 127
2, 345596, Note_off_c, 7, 67, 127
2, 345597, Note_on_c, 10, 69, 127
2, 345703, Note_off_c, 10, 69, 127
2, 345703, Note_off_c, 5, 41, 127
2, 345704, Note_on_c, 7, 43, 127
2, 345704, Note_on_c, 11, 70, 127
2, 345810, Note_off_c, 11, 70, 127
2, 345811, Note_on_c, 7, 67, 127
2, 345917, Note_off_c, 7, 67, 127
2, 345917, Note_off_c, 7, 43, 127
2, 345918, Note_on_c, 0, 48, 127
2, 345918, Note_on_c, 5, 65, 127
2, 346024, Note_off_c, 5, 65, 127
2, 346025, Note_on_c, 4, 64, 127
2, 346131, Note_off_c, 4, 64, 127
2, 346131, Note_off_c, 0, 48, 127
2, 346132, Note_on_c, 4, 40, 127
2, 346132, Note_on_c, 5, 65, 127
2, 346238, Note_off_c, 5, 65, 127
2, 346239, Note_on_c, 7, 67, 127
2, 346345, Note_off_c, 7, 67, 127
2, 346345, Note_off_c, 4, 40, 127
2, 346346, Note_on_c, 5, 41, 127
2, 346346, Note_on_c, 10, 69, 127
2, 346452, Note_off_c, 10, 69, 127
2, 346453, Note_on_c, 5, 65, 127
2, 346559, Note_off_c, 5, 65, 127
2, 346559, Note_off_c, 5, 41, 127
2, 346560, Note_on_c, 11, 46, 127
2, 346560, Note_on_c, 4, 64, 127
2, 346666, Note_off_c, 4, 64, 127
2, 346667, Note_on_c, 2, 62, 127
2, 346773, Note_off_c, 2, 62, 127
2, 346773, Note_off_c, 11, 46, 127
2, 346774, Note_on_c, 2, 38, 127
2, 346774, Note_on_c, 4, 64, 127
2, 346880, Note_off_c, 4, 64, 127
2, 346881, Note_on_c, 5, 65, 127
2, 346987, Note_off_c, 5, 65, 127
2, 346987, Note_off_c, 2, 38, 127
2, 346988, Note_on_c, 4, 40, 127
2, 346988, Note_on_c, 7, 67, 127
2, 347094, Note_off_c, 4, 40, 127
2, 347095, Note_on_c, 10, 45, 127
2, 347201, Note_off_c, 10, 45, 127
2, 347202, Note_on_c, 7, 43, 127
2, 347308, Note_off_c, 7, 43, 127
2, 347309, Note_on_c, 5, 41, 127
2, 347415, Note_off_c, 5, 41, 127
2, 347416, Note_on_c, 4, 40, 127
2, 347522, Note_off_c, 4, 40, 127
2, 347523, Note_on_c, 2, 38, 127
2, 347629, Note_off_c, 2, 38, 127
2, 347629, Note_off_c, 7, 67, 127
2, 347630, Note_on_c, 1, 37, 127
2, 347737, Note_on_c, 11, 70, 127
2, 347843, Note_off_c, 11, 70, 127
2, 347843, Note_off_c, 1, 37, 127
2, 347844, Note_on_c, 2, 38, 127
2, 347844, Note_on_c, 10, 69, 127
2, 347950, Note_off_c, 10, 69, 127
2, 347951, Note_on_c, 7, 67, 127
2, 348057, Note_off_c, 7, 67, 127
2, 348057, Note_off_c, 2, 38, 127
2, 348058, Note_on_c, 4, 40, 127
2, 348058, Note_on_c, 5, 65, 127
2, 348164, Note_off_c, 5, 65, 127
2, 348165, Note_on_c, 4, 64, 127
2, 348271, Note_off_c, 4, 64, 127
2, 348271, Note_off_c, 4, 40, 127
2, 348272, Note_on_c, 2, 38, 127
2, 348272, Note_on_c, 5, 65, 127
2, 348378, Note_off_c, 5, 65, 127
2, 348379, Note_on_c, 10, 69, 127
2, 348485, Note_off_c, 10, 69, 127
2, 348485, Note_off_c, 2, 38, 127
2, 348486, Note_on_c, 4, 40, 127
2, 348486, Note_on_c, 7, 67, 127
2, 348592, Note_off_c, 7, 67, 127
2, 348593, Note_on_c, 5, 65, 127
2, 348699, Note_off_c, 5, 65, 127
2, 348699, Note_off_c, 4, 40, 127
2, 348700, Note_on_c, 5, 41, 127
2, 348700, Note_on_c, 4, 64, 127
2, 348806, Note_off_c, 4, 64, 127
2, 348807, Note_on_c, 2, 62, 127
2, 348913, Note_off_c, 2, 62, 127
2, 348913, Note_off_c, 5, 41, 127
2, 348914, Note_on_c, 4, 40, 127
2, 348914, Note_on_c, 1, 61, 127
2, 349020, Note_off_c, 1, 61, 127
2, 349021, Note_on_c, 2, 62, 127
2, 349127, Note_off_c, 2, 62, 127
2, 349127, Note_off_c, 4, 40, 127
2, 349128, Note_on_c, 5, 41, 127
2, 349128, Note_on_c, 4, 64, 127
2, 349235, Note_on_c, 10, 69, 127
2, 349328, Note_off_c, 4, 64, 127
2, 349341, Note_off_c, 10, 69, 127
2, 349341, Note_off_c, 5, 41, 127
2, 349342, Note_on_c, 7, 43, 127
2, 349342, Note_on_c, 1, 61, 127
2, 349448, Note_off_c, 1, 61, 127
2, 349449, Note_on_c, 4, 64, 127
2, 349555, Note_off_c, 4, 64, 127
2, 349555, Note_off_c, 7, 43, 127
2, 349556, Note_on_c, 5, 41, 127
2, 349556, Note_on_c, 2, 62, 127
2, 349662, Note_off_c, 2, 62, 127
2, 349663, Note_on_c, 4, 64, 127
2, 349769, Note_off_c, 4, 64, 127
2, 349769, Note_off_c, 5, 41, 127
2, 349770, Note_on_c, 7, 43, 127
2, 349770, Note_on_c, 5, 65, 127
2, 349877, Note_on_c, 11, 70, 127
2, 349970, Note_off_c, 5, 65, 127
2, 349983, Note_off_c, 11, 70, 127
2, 349983, Note_off_c, 7, 43, 127
2, 349984, Note_on_c, 10, 45, 127
2, 349984, Note_on_c, 2, 62, 127
2, 350090, Note_off_c, 2, 62, 127
2, 350091, Note_on_c, 5, 65, 127
2, 350197, Note_off_c, 5, 65, 127
2, 350197, Note_off_c, 10, 45, 127
2, 350198, Note_on_c, 7, 43, 127
2, 350198, Note_on_c, 4, 64, 127
2, 350304, Note_off_c, 4, 64, 127
2, 350305, Note_on_c, 5, 65, 127
2, 350411, Note_off_c, 5, 65, 127
2, 350411, Note_off_c, 7, 43, 127
2, 350412, Note_on_c, 10, 45, 127
2, 350412, Note_on_c, 7, 67, 127
2, 350519, Note_on_c, 0, 72, 127
2, 350612, Note_off_c, 7, 67, 127
2, 350625, Note_off_c, 0, 72, 127
2, 350625, Note_off_c, 10, 45, 127
2, 350626, Note_on_c, 11, 46, 127
2, 350626, Note_on_c, 4, 64, 127
2, 350732, Note_off_c, 4, 64, 127
2, 350733, Note_on_c, 7, 67, 127
2, 350839, Note_off_c, 7, 67, 127
2, 350839, Note_off_c, 11, 46, 127
2, 350840, Note_on_c, 10, 45, 127
2, 350840, Note_on_c, 5, 65, 127
2, 350946, Note_off_c, 5, 65, 127
2, 350947, Note_on_c, 7, 67, 127
2, 351053, Note_off_c, 7, 67, 127
2, 351053, Note_off_c, 10, 45, 127
2, 351054, Note_on_c, 12, 47, 127
2, 351054, Note_on_c, 10, 69, 127
2, 351161, Note_on_c, 2, 74, 127
2, 351254, Note_off_c, 10, 69, 127
2, 351267, Note_off_c, 2, 74, 127
2, 351267, Note_off_c, 12, 47, 127
2, 351268, Note_on_c, 0, 48, 127
2, 351268, Note_on_c, 6, 66, 127
2, 351374, Note_off_c, 6, 66, 127
2, 351375, Note_on_c, 10, 69, 127
2, 351481, Note_off_c, 10, 69, 127
2, 351481, Note_off_c, 0, 48, 127
2, 351482, Note_on_c, 12, 47, 127
2, 351482, Note_on_c, 7, 67, 127
2, 351588, Note_off_c, 7, 67, 127
2, 351589, Note_on_c, 10, 69, 127
2, 351695, Note_off_c, 10, 69, 127
2, 351695, Note_off_c, 12, 47, 127
2, 351696, Note_on_c, 1, 49, 127
2, 351696, Note_on_c, 12, 71, 127
2, 351803, Note_on_c, 4, 76, 127
2, 351896, Note_off_c, 12, 71, 127
2, 351909, Note_off_c, 4, 76, 127
2, 351909, Note_off_c, 1, 49, 127
2, 351910, Note_on_c, 2, 50, 127
2, 351910, Note_on_c, 8, 68, 127
2, 352016, Note_off_c, 8, 68, 127
2, 352017, Note_on_c, 12, 71, 127
2, 352123, Note_off_c, 12, 71, 127
2, 352123, Note_off_c, 2, 50, 127
2, 352124, Note_on_c, 1, 49, 127
2, 352124, Note_on_c, 10, 69, 127
2, 352230, Note_off_c, 10, 69, 127
2, 352230, Note_off_c, 1, 49, 127
2, 352231, Note_on_c, 5, 53, 127
2, 352231, Note_on_c, 12, 71, 127
2, 352337, Note_off_c, 12, 71, 127
2, 352337, Note_off_c, 5, 53, 127
2, 352338, Note_on_c, 4, 52, 127
2, 352338, Note_on_c, 1, 73, 127
2, 352444, Note_off_c, 1, 73, 127
2, 352444, Note_off_c, 4, 52, 127
2, 352445, Note_on_c, 2, 50, 127
2, 352445, Note_on_c, 2, 74, 127
2, 352551, Note_off_c, 2, 74, 127
2, 352551, Note_off_c, 2, 50, 127
2, 352552, Note_on_c, 1, 49, 127
2, 352552, Note_on_c, 4, 76, 127
2, 352658, Note_off_c, 4, 76, 127
2, 352658, Note_off_c, 1, 49, 127
2, 352659, Note_on_c, 12, 47, 127
2, 352659, Note_on_c, 5, 77, 127
2, 352765, Note_off_c, 5, 77, 127
2, 352765, Note_off_c, 12, 47, 127
2, 352766, Note_on_c, 10, 45, 127
2, 352766, Note_on_c, 7, 79, 127
2, 352872, Note_off_c, 7, 79, 127
2, 352873, Note_on_c, 4, 76, 127
2, 352979, Note_off_c, 4, 76, 127
2, 352979, Note_off_c, 10, 45, 127
2, 352980, Note_on_c, 10, 57, 127
2, 352980, Note_on_c, 1, 73, 127
2, 353087, Note_on_c, 10, 69, 127
2, 353180, Note_off_c, 1, 73, 127
2, 353193, Note_off_c, 10, 69, 127
2, 353194, Note_on_c, 10, 45, 127
2, 353194, Note_on_c, 1, 73, 127
2, 353300, Note_off_c, 1, 73, 127
2, 353301, Note_on_c, 4, 76, 127
2, 353403, Note_off_c, 10, 57, 127
2, 353406, Note_off_c, 4, 76, 127
2, 353406, Note_off_c, 10, 45, 127
2, 353407, Note_on_c, 10, 45, 127
2, 353407, Note_on_c, 5, 77, 127
2, 353513, Note_off_c, 5, 77, 127
2, 353514, Note_on_c, 2, 74, 127
2, 353620, Note_off_c, 2, 74, 127
2, 353620, Note_off_c, 10, 45, 127
2, 353621, Note_on_c, 10, 57, 127
2, 353621, Note_on_c, 12, 71, 127
2, 353728, Note_on_c, 8, 68, 127
2, 353821, Note_off_c, 12, 71, 127
2, 353834, Note_off_c, 8, 68, 127
2, 353835, Note_on_c, 10, 45, 127
2, 353835, Note_on_c, 12, 71, 127
2, 353941, Note_off_c, 12, 71, 127
2, 353942, Note_on_c, 2, 74, 127
2, 354044, Note_off_c, 10, 57, 127
2, 354047, Note_off_c, 2, 74, 127
2, 354047, Note_off_c, 10, 45, 127
2, 354048, Note_on_c, 10, 45, 127
2, 354048, Note_on_c, 4, 76, 127
2, 354154, Note_off_c, 4, 76, 127
2, 354155, Note_on_c, 1, 73, 127
2, 354261, Note_off_c, 1, 73, 127
2, 354261, Note_off_c, 10, 45, 127
2, 354262, Note_on_c, 10, 57, 127
2, 354262, Note_on_c, 11, 70, 127
2, 354369, Note_on_c, 7, 67, 127
2, 354462, Note_off_c, 11, 70, 127
2, 354475, Note_off_c, 7, 67, 127
2, 354476, Note_on_c, 10, 45, 127
2, 354476, Note_on_c, 11, 70, 127
2, 354582, Note_off_c, 11, 70, 127
2, 354583, Note_on_c, 1, 73, 127
2, 354685, Note_off_c, 10, 57, 127
2, 354688, Note_off_c, 1, 73, 127
2, 354688, Note_off_c, 10, 45, 127
2, 354689, Note_on_c, 10, 45, 127
2, 354689, Note_on_c, 2, 74, 127
2, 354795, Note_off_c, 2, 74, 127
2, 354796, Note_on_c, 12, 71, 127
2, 354902, Note_off_c, 12, 71, 127
2, 354902, Note_off_c, 10, 45, 127
2, 354903, Note_on_c, 10, 57, 127
2, 354903, Note_on_c, 8, 68, 127
2, 355010, Note_on_c, 5, 65, 127
2, 355103, Note_off_c, 8, 68, 127
2, 355116, Note_off_c, 5, 65, 127
2, 355117, Note_on_c, 10, 45, 127
2, 355117, Note_on_c, 8, 68, 127
2, 355223, Note_off_c, 8, 68, 127
2, 355224, Note_on_c, 12, 71, 127
2, 355326, Note_off_c, 10, 57, 127
2, 355329, Note_off_c, 12, 71, 127
2, 355329, Note_off_c, 10, 45, 127
2, 355330, Note_on_c, 10, 45, 127
2, 355330, Note_on_c, 1, 73, 127
2, 355437, Note_on_c, 11, 70, 127
2, 355543, Note_off_c, 11, 70, 127
2, 355543, Note_off_c, 10, 45, 127
2, 355544, Note_on_c, 10, 57, 127
2, 355544, Note_on_c, 7, 67, 127
2, 355650, Note_off_c, 7, 67, 127
2, 355651, Note_on_c, 4, 64, 127
2, 355757, Note_off_c, 4, 64, 127
2, 355757, Note_off_c, 10, 57, 127
2, 355758, Note_on_c, 10, 45, 127
2, 355758, Note_on_c, 7, 67, 127
2, 355864, Note_off_c, 7, 67, 127
2, 355865, Note_on_c, 11, 70, 127
2, 355971, Note_off_c, 11, 70, 127
2, 355971, Note_off_c, 10, 45, 127
2, 355971, Note_off_c, 1, 73, 127
2, 355972, Note_on_c, 7, 43, 127
2, 355972, Note_on_c, 1, 73, 127
2, 356078, Note_off_c, 1, 73, 127
2, 356079, Note_on_c, 4, 76, 127
2, 356185, Note_off_c, 4, 76, 127
2, 356185, Note_off_c, 7, 43, 127
2, 356186, Note_on_c, 7, 55, 127
2, 356186, Note_on_c, 2, 74, 127
2, 356292, Note_off_c, 2, 74, 127
2, 356293, Note_on_c, 1, 73, 127
2, 356399, Note_off_c, 1, 73, 127
2, 356400, Note_on_c, 7, 43, 127
2, 356400, Note_on_c, 12, 71, 127
2, 356506, Note_off_c, 12, 71, 127
2, 356507, Note_on_c, 10, 69, 127
2, 356609, Note_off_c, 7, 55, 127
2, 356612, Note_off_c, 10, 69, 127
2, 356612, Note_off_c, 7, 43, 127
2, 356613, Note_on_c, 5, 41, 127
2, 356613, Note_on_c, 2, 74, 127
2, 356719, Note_off_c, 5, 41, 127
2, 356720, Note_on_c, 1, 49, 127
2, 356826, Note_off_c, 1, 49, 127
2, 356826, Note_off_c, 2, 74, 127
2, 356827, Note_on_c, 2, 50, 127
2, 356827, Note_on_c, 10, 69, 127
2, 356933, Note_off_c, 2, 50, 127
2, 356934, Note_on_c, 5, 53, 127
2, 357040, Note_off_c, 5, 53, 127
2, 357040, Note_off_c, 10, 69, 127
2, 357041, Note_on_c, 1, 49, 127
2, 357041, Note_on_c, 5, 65, 127
2, 357147, Note_off_c, 1, 49, 127
2, 357148, Note_on_c, 2, 50, 127
2, 357254, Note_off_c, 2, 50, 127
2, 357254, Note_off_c, 5, 65, 127
2, 357255, Note_on_c, 7, 43, 127
2, 357255, Note_on_c, 2, 62, 127
2, 357361, Note_off_c, 7, 43, 127
2, 357362, Note_on_c, 1, 49, 127
2, 357468, Note_off_c, 1, 49, 127
2, 357468, Note_off_c, 2, 62, 127
2, 357469, Note_on_c, 2, 50, 127
2, 357469, Note_on_c, 10, 69, 127
2, 357575, Note_off_c, 2, 50, 127
2, 357576, Note_on_c, 5, 53, 127
2, 357682, Note_off_c, 5, 53, 127
2, 357682, Note_off_c, 10, 69, 127
2, 357683, Note_on_c, 1, 49, 127
2, 357683, Note_on_c, 5, 65, 127
2, 357789, Note_off_c, 1, 49, 127
2, 357790, Note_on_c, 2, 50, 127
2, 357896, Note_off_c, 2, 50, 127
2, 357896, Note_off_c, 5, 65, 127
2, 357897, Note_on_c, 10, 45, 127
2, 357897, Note_on_c, 2, 62, 127
2, 358003, Note_off_c, 10, 45, 127
2, 358004, Note_on_c, 1, 49, 127
2, 358110, Note_off_c, 1, 49, 127
2, 358110, Note_off_c, 2, 62, 127
2, 358111, Note_on_c, 2, 50, 127
2, 358111, Note_on_c, 10, 69, 127
2, 358217, Note_off_c, 2, 50, 127
2, 358218, Note_on_c, 5, 53, 127
2, 358324, Note_off_c, 5, 53, 127
2, 358324, Note_off_c, 10, 69, 127
2, 358325, Note_on_c, 1, 49, 127
2, 358325, Note_on_c, 5, 65, 127
2, 358431, Note_off_c, 1, 49, 127
2, 358432, Note_on_c, 2, 50, 127
2, 358538, Note_off_c, 2, 50, 127
2, 358538, Note_off_c, 5, 65, 127
2, 358539, Note_on_c, 11, 46, 127
2, 358539, Note_on_c, 2, 62, 127
2, 358645, Note_off_c, 11, 46, 127
2, 358646, Note_on_c, 1, 49, 127
2, 358752, Note_off_c, 1, 49, 127
2, 358752, Note_off_c, 2, 62, 127
2, 358753, Note_on_c, 2, 50, 127
2, 358753, Note_on_c, 10, 69, 127
2, 358859, Note_off_c, 2, 50, 127
2, 358860, Note_on_c, 5, 53, 127
2, 358966, Note_off_c, 5, 53, 127
2, 358966, Note_off_c, 10, 69, 127
2, 358967, Note_on_c, 1, 49, 127
2, 358967, Note_on_c, 5, 65, 127
2, 359073, Note_off_c, 1, 49, 127
2, 359074, Note_on_c, 2, 50, 127
2, 359180, Note_off_c, 2, 50, 127
2, 359180, Note_off_c, 5, 65, 127
2, 359181, Note_on_c, 12, 47, 127
2, 359181, Note_on_c, 2, 62, 127
2, 359287, Note_off_c, 12, 47, 127
2, 359288, Note_on_c, 1, 49, 127
2, 359394, Note_off_c, 1, 49, 127
2, 359394, Note_off_c, 2, 62, 127
2, 359395, Note_on_c, 2, 50, 127
2, 359395, Note_on_c, 8, 68, 127
2, 359501, Note_off_c, 2, 50, 127
2, 359502, Note_on_c, 5, 53, 127
2, 359608, Note_off_c, 5, 53, 127
2, 359608, Note_off_c, 8, 68, 127
2, 359609, Note_on_c, 1, 49, 127
2, 359609, Note_on_c, 5, 65, 127
2, 359715, Note_off_c, 1, 49, 127
2, 359716, Note_on_c, 2, 50, 127
2, 359822, Note_off_c, 2, 50, 127
2, 359822, Note_off_c, 5, 65, 127
2, 359823, Note_on_c, 10, 45, 127
2, 359823, Note_on_c, 2, 62, 127
2, 359929, Note_off_c, 10, 45, 127
2, 359930, Note_on_c, 1, 49, 127
2, 360036, Note_off_c, 1, 49, 127
2, 360036, Note_off_c, 2, 62, 127
2, 360037, Note_on_c, 2, 50, 127
2, 360037, Note_on_c, 10, 69, 127
2, 360143, Note_off_c, 2, 50, 127
2, 360144, Note_on_c, 5, 53, 127
2, 360234, Note_off_c, 10, 69, 127
2, 360250, Note_off_c, 5, 53, 127
2, 360251, Note_on_c, 1, 49, 127
2, 360251, Note_on_c, 5, 65, 127
2, 360357, Note_off_c, 1, 49, 127
2, 360358, Note_on_c, 2, 50, 127
2, 360421, Note_off_c, 5, 65, 127
2, 360464, Note_off_c, 2, 50, 127
2, 360465, Note_on_c, 8, 44, 127
2, 360465, Note_on_c, 2, 62, 127
2, 360571, Note_off_c, 2, 62, 127
2, 360572, Note_on_c, 4, 64, 127
2, 360678, Note_off_c, 4, 64, 127
2, 360679, Note_on_c, 5, 65, 127
2, 360785, Note_off_c, 5, 65, 127
2, 360786, Note_on_c, 12, 71, 127
2, 360892, Note_off_c, 12, 71, 127
2, 360893, Note_on_c, 5, 65, 127
2, 360999, Note_off_c, 5, 65, 127
2, 361000, Note_on_c, 4, 64, 127
2, 361106, Note_off_c, 4, 64, 127
2, 361106, Note_off_c, 8, 44, 127
2, 361107, Note_on_c, 2, 62, 127
2, 361213, Note_off_c, 2, 62, 127
2, 361214, Note_on_c, 4, 64, 127
2, 361320, Note_off_c, 4, 64, 127
2, 361321, Note_on_c, 5, 65, 127
2, 361427, Note_off_c, 5, 65, 127
2, 361428, Note_on_c, 12, 71, 127
2, 361534, Note_off_c, 12, 71, 127
2, 361535, Note_on_c, 4, 64, 127
2, 361641, Note_off_c, 4, 64, 127
2, 361642, Note_on_c, 2, 62, 127
2, 361748, Note_off_c, 2, 62, 127
2, 361749, Note_on_c, 7, 43, 127
2, 361749, Note_on_c, 1, 61, 127
2, 361855, Note_off_c, 1, 61, 127
2, 361856, Note_on_c, 4, 64, 127
2, 361962, Note_off_c, 4, 64, 127
2, 361963, Note_on_c, 7, 67, 127
2, 362069, Note_off_c, 7, 67, 127
2, 362070, Note_on_c, 11, 70, 127
2, 362176, Note_off_c, 11, 70, 127
2, 362177, Note_on_c, 10, 69, 127
2, 362283, Note_off_c, 10, 69, 127
2, 362284, Note_on_c, 7, 67, 127
2, 362390, Note_off_c, 7, 67, 127
2, 362390, Note_off_c, 7, 43, 127
2, 362391, Note_on_c, 5, 41, 127
2, 362391, Note_on_c, 10, 69, 127
2, 362497, Note_off_c, 10, 69, 127
2, 362497, Note_off_c, 5, 41, 127
2, 362498, Note_on_c, 10, 45, 127
2, 362498, Note_on_c, 7, 67, 127
2, 362604, Note_off_c, 7, 67, 127
2, 362604, Note_off_c, 10, 45, 127
2, 362605, Note_on_c, 12, 47, 127
2, 362605, Note_on_c, 5, 65, 127
2, 362711, Note_off_c, 5, 65, 127
2, 362711, Note_off_c, 12, 47, 127
2, 362712, Note_on_c, 1, 49, 127
2, 362712, Note_on_c, 4, 64, 127
2, 362818, Note_off_c, 4, 64, 127
2, 362818, Note_off_c, 1, 49, 127
2, 362819, Note_on_c, 2, 50, 127
2, 362819, Note_on_c, 2, 62, 127
2, 362925, Note_off_c, 2, 62, 127
2, 362925, Note_off_c, 2, 50, 127
2, 362926, Note_on_c, 4, 52, 127
2, 362926, Note_on_c, 0, 60, 127
2, 363032, Note_off_c, 0, 60, 127
2, 363032, Note_off_c, 4, 52, 127
2, 363033, Note_on_c, 5, 53, 127
2, 363033, Note_on_c, 12, 59, 127
2, 363139, Note_off_c, 12, 59, 127
2, 363140, Note_on_c, 10, 57, 127
2, 363246, Note_off_c, 10, 57, 127
2, 363246, Note_off_c, 5, 53, 127
2, 363247, Note_on_c, 4, 52, 127
2, 363247, Note_on_c, 12, 59, 127
2, 363353, Note_off_c, 12, 59, 127
2, 363354, Note_on_c, 1, 61, 127
2, 363460, Note_off_c, 1, 61, 127
2, 363460, Note_off_c, 4, 52, 127
2, 363461, Note_on_c, 2, 50, 127
2, 363461, Note_on_c, 2, 62, 127
2, 363567, Note_off_c, 2, 62, 127
2, 363568, Note_on_c, 4, 64, 127
2, 363674, Note_off_c, 4, 64, 127
2, 363674, Note_off_c, 2, 50, 127
2, 363675, Note_on_c, 4, 52, 127
2, 363675, Note_on_c, 1, 61, 127
2, 363781, Note_off_c, 1, 61, 127
2, 363782, Note_on_c, 12, 59, 127
2, 363888, Note_off_c, 12, 59, 127
2, 363888, Note_off_c, 4, 52, 127
2, 363889, Note_on_c, 2, 50, 127
2, 363889, Note_on_c, 1, 61, 127
2, 363995, Note_off_c, 1, 61, 127
2, 363996, Note_on_c, 2, 62, 127
2, 364102, Note_off_c, 2, 62, 127
2, 364102, Note_off_c, 2, 50, 127
2, 364103, Note_on_c, 1, 49, 127
2, 364103, Note_on_c, 4, 64, 127
2, 364209, Note_off_c, 4, 64, 127
2, 364210, Note_on_c, 7, 55, 127
2, 364316, Note_off_c, 7, 55, 127
2, 364316, Note_off_c, 1, 49, 127
2, 364317, Note_on_c, 2, 50, 127
2, 364317, Note_on_c, 5, 53, 127
2, 364426, Note_on_c, 10, 69, 127
2, 364534, Note_off_c, 10, 69, 127
2, 364535, Note_on_c, 12, 71, 127
2, 364643, Note_off_c, 12, 71, 127
2, 364644, Note_on_c, 1, 73, 127
2, 364752, Note_off_c, 1, 73, 127
2, 364752, Note_off_c, 5, 53, 127
2, 364752, Note_off_c, 2, 50, 127
2, 364753, Note_on_c, 0, 48, 127
2, 364753, Note_on_c, 4, 52, 127
2, 364753, Note_on_c, 2, 74, 127
2, 364861, Note_off_c, 2, 74, 127
2, 364862, Note_on_c, 4, 76, 127
2, 364970, Note_off_c, 4, 76, 127
2, 364970, Note_off_c, 4, 52, 127
2, 364970, Note_off_c, 0, 48, 127
2, 364971, Note_on_c, 11, 46, 127
2, 364971, Note_on_c, 2, 50, 127
2, 364971, Note_on_c, 5, 77, 127
2, 365188, Note_off_c, 5, 77, 127
2, 365188, Note_off_c, 2, 50, 127
2, 365189, Note_on_c, 4, 52, 127
2, 365189, Note_on_c, 4, 76, 127
2, 365402, Note_off_c, 11, 46, 127
2, 365405, Note_off_c, 4, 76, 127
2, 365405, Note_off_c, 4, 52, 127
2, 365406, Note_on_c, 10, 45, 127
2, 365406, Note_on_c, 5, 53, 127
2, 365406, Note_on_c, 2, 74, 127
2, 365623, Note_off_c, 2, 74, 127
2, 365623, Note_off_c, 5, 53, 127
2, 365623, Note_off_c, 10, 45, 127
2, 365624, Note_on_c, 7, 43, 127
2, 365624, Note_on_c, 7, 55, 127
2, 365624, Note_on_c, 4, 76, 127
2, 365841, Note_off_c, 4, 76, 127
2, 365841, Note_off_c, 7, 55, 127
2, 365842, Note_on_c, 5, 53, 127
2, 365842, Note_on_c, 5, 77, 127
2, 365950, Note_off_c, 5, 77, 127
2, 365951, Note_on_c, 4, 76, 127
2, 366055, Note_off_c, 7, 43, 127
2, 366058, Note_off_c, 4, 76, 127
2, 366058, Note_off_c, 5, 53, 127
2, 366059, Note_on_c, 4, 52, 127
2, 366059, Note_on_c, 10, 45, 127
2, 366059, Note_on_c, 2, 74, 127
2, 366167, Note_off_c, 2, 74, 127
2, 366168, Note_on_c, 1, 73, 127
2, 366276, Note_off_c, 1, 73, 127
2, 366276, Note_off_c, 10, 45, 127
2, 366276, Note_off_c, 4, 52, 127
2, 366277, Note_on_c, 2, 50, 127
2, 366277, Note_on_c, 5, 41, 127
2, 366277, Note_on_c, 10, 81, 127
2, 366387, Note_off_c, 10, 81, 127
2, 366388, Note_on_c, 7, 79, 127
2, 366498, Note_off_c, 7, 79, 127
2, 366499, Note_on_c, 5, 77, 127
2, 366609, Note_off_c, 5, 77, 127
2, 366610, Note_on_c, 4, 76, 127
2, 366720, Note_off_c, 4, 76, 127
2, 366721, Note_on_c, 2, 74, 127
2, 366831, Note_off_c, 2, 74, 127
2, 366832, Note_on_c, 1, 73, 127
2, 366942, Note_off_c, 1, 73, 127
2, 366942, Note_off_c, 5, 41, 127
2, 366942, Note_off_c, 2, 50, 127
2, 366943, Note_on_c, 2, 74, 127
2, 367055, Note_off_c, 2, 74, 127
2, 367056, Note_on_c, 4, 76, 127
2, 367168, Note_off_c, 4, 76, 127
2, 367169, Note_on_c, 2, 74, 127
2, 367281, Note_off_c, 2, 74, 127
2, 367282, Note_on_c, 4, 76, 127
2, 367394, Note_off_c, 4, 76, 127
2, 367395, Note_on_c, 7, 43, 127
2, 367395, Note_on_c, 2, 50, 127
2, 367395, Note_on_c, 11, 70, 127
2, 367395, Note_on_c, 5, 77, 127
2, 367507, Note_off_c, 2, 50, 127
2, 367508, Note_on_c, 4, 52, 127
2, 367619, Note_off_c, 7, 43, 127
2, 367620, Note_off_c, 4, 52, 127
2, 367620, Note_off_c, 5, 77, 127
2, 367620, Note_off_c, 11, 70, 127
2, 367621, Note_on_c, 10, 45, 127
2, 367621, Note_on_c, 5, 53, 127
2, 367621, Note_on_c, 10, 69, 127
2, 367873, Note_on_c, 2, 74, 127
2, 368119, Note_off_c, 10, 69, 127
2, 368123, Note_off_c, 2, 74, 127
2, 368123, Note_off_c, 5, 53, 127
2, 368123, Note_off_c, 10, 45, 127
2, 368124, Note_on_c, 10, 45, 127
2, 368124, Note_on_c, 4, 52, 127
2, 368124, Note_on_c, 1, 73, 127
2, 368124, Note_on_c, 7, 67, 127
2, 368444, Note_off_c, 7, 67, 127
2, 368444, Note_off_c, 1, 73, 127
2, 368444, Note_off_c, 4, 52, 127
2, 368444, Note_off_c, 10, 45, 127
2, 368463, Note_on_c, 2, 74, 127
2, 368463, Note_on_c, 5, 65, 127
2, 368463, Note_on_c, 2, 50, 127
2, 368463, Note_on_c, 2, 38, 127
2, 371263, Note_off_c, 2, 38, 127
2, 371263, Note_off_c, 2, 50, 127
2, 371263, Note_off_c, 5, 65, 127
2, 371263, Note_off_c, 2, 74, 127
2, 372889, Note_on_c, 2, 74, 127
2, 373089, Note_off_c, 2, 74, 127
2, 373091, Note_on_c, 2, 62, 127
2, 373091, Note_on_c, 5, 65, 127
2, 373091, Note_on_c, 10, 69, 127
2, 373091, Note_on_c, 2, 74, 127
2, 373293, Note_on_c, 10, 57, 127
2, 373392, Note_off_c, 10, 57, 127
2, 373394, Note_on_c, 7, 55, 127
2, 373493, Note_off_c, 7, 55, 127
2, 373495, Note_on_c, 5, 53, 127
2, 373594, Note_off_c, 5, 53, 127
2, 373596, Note_on_c, 7, 55, 127
2, 373695, Note_off_c, 7, 55, 127
2, 373697, Note_on_c, 10, 57, 127
2, 373891, Note_off_c, 10, 69, 127
2, 373891, Note_off_c, 5, 65, 127
2, 373891, Note_off_c, 2, 62, 127
2, 373897, Note_off_c, 10, 57, 127
2, 373899, Note_on_c, 2, 50, 127
2, 374101, Note_off_c, 2, 74, 127
2, 374101, Note_on_c, 5, 77, 127
2, 374301, Note_off_c, 5, 77, 127
2, 374303, Note_on_c, 4, 76, 127
2, 374503, Note_off_c, 4, 76, 127
2, 374505, Note_on_c, 5, 53, 127
2, 374505, Note_on_c, 2, 74, 127
2, 374705, Note_off_c, 2, 74, 127
2, 374705, Note_off_c, 5, 53, 127
2, 374707, Note_on_c, 4, 52, 127
2, 374707, Note_on_c, 1, 73, 127
2, 374907, Note_off_c, 1, 73, 127
2, 374907, Note_off_c, 4, 52, 127
2, 374909, Note_on_c, 5, 53, 127
2, 374909, Note_on_c, 2, 74, 127
2, 375109, Note_off_c, 2, 74, 127
2, 375109, Note_off_c, 5, 53, 127
2, 375111, Note_on_c, 7, 55, 127
2, 375111, Note_on_c, 4, 76, 127
2, 375311, Note_off_c, 4, 76, 127
2, 375313, Note_on_c, 10, 69, 127
2, 375515, Note_on_c, 0, 72, 127
2, 375614, Note_off_c, 0, 72, 127
2, 375616, Note_on_c, 12, 71, 127
2, 375715, Note_off_c, 12, 71, 127
2, 375715, Note_off_c, 7, 55, 127
2, 375717, Note_on_c, 11, 58, 127
2, 375717, Note_on_c, 0, 72, 127
2, 375917, Note_off_c, 11, 58, 127
2, 375919, Note_on_c, 10, 57, 127
2, 376113, Note_off_c, 10, 69, 127
2, 376119, Note_off_c, 10, 57, 127
2, 376119, Note_off_c, 0, 72, 127
2, 376121, Note_on_c, 7, 55, 127
2, 376121, Note_on_c, 0, 72, 127
2, 376321, Note_off_c, 7, 55, 127
2, 376323, Note_on_c, 6, 54, 127
2, 376323, Note_on_c, 10, 81, 127
2, 376523, Note_off_c, 6, 54, 127
2, 376525, Note_on_c, 7, 55, 127
2, 376725, Note_off_c, 7, 55, 127
2, 376727, Note_on_c, 10, 57, 127
2, 376927, Note_off_c, 10, 81, 127
2, 376929, Note_on_c, 3, 75, 127
2, 377129, Note_off_c, 3, 75, 127
2, 377131, Note_off_c, 0, 72, 127
2, 377131, Note_on_c, 2, 74, 127
2, 377331, Note_off_c, 2, 74, 127
2, 377331, Note_off_c, 10, 57, 127
2, 377333, Note_on_c, 10, 57, 127
2, 377333, Note_on_c, 0, 72, 127
2, 377533, Note_off_c, 0, 72, 127
2, 377533, Note_off_c, 10, 57, 127
2, 377535, Note_on_c, 7, 55, 127
2, 377535, Note_on_c, 11, 70, 127
2, 377735, Note_off_c, 11, 70, 127
2, 377735, Note_off_c, 7, 55, 127
2, 377737, Note_on_c, 6, 54, 127
2, 377737, Note_on_c, 10, 69, 127
2, 377927, Note_off_c, 2, 50, 127
2, 377938, Note_off_c, 10, 69, 127
2, 377938, Note_off_c, 6, 54, 127
2, 377940, Note_on_c, 7, 55, 127
2, 377940, Note_on_c, 0, 72, 127
2, 378140, Note_off_c, 0, 72, 127
2, 378140, Note_off_c, 7, 55, 127
2, 378142, Note_on_c, 10, 57, 127
2, 378142, Note_on_c, 11, 70, 127
2, 378342, Note_off_c, 11, 70, 127
2, 378342, Note_off_c, 10, 57, 127
2, 378344, Note_on_c, 11, 58, 127
2, 378344, Note_on_c, 10, 69, 127
2, 378544, Note_off_c, 10, 69, 127
2, 378546, Note_on_c, 7, 67, 127
2, 378748, Note_on_c, 11, 70, 127
2, 378849, Note_on_c, 2, 74, 127
2, 378948, Note_off_c, 11, 58, 127
2, 378950, Note_on_c, 10, 57, 127
2, 378950, Note_on_c, 7, 79, 127
2, 379150, Note_off_c, 10, 57, 127
2, 379152, Note_on_c, 7, 55, 127
2, 379350, Note_off_c, 7, 79, 127
2, 379352, Note_off_c, 7, 55, 127
2, 379354, Note_on_c, 5, 53, 127
2, 379354, Note_on_c, 7, 79, 127
2, 379438, Note_off_c, 2, 74, 127
2, 379548, Note_off_c, 11, 70, 127
2, 379554, Note_off_c, 7, 79, 127
2, 379554, Note_off_c, 5, 53, 127
2, 379556, Note_on_c, 4, 52, 127
2, 379556, Note_on_c, 2, 74, 127
2, 379756, Note_off_c, 4, 52, 127
2, 379758, Note_on_c, 5, 53, 127
2, 379851, Note_off_c, 2, 74, 127
2, 379859, Note_on_c, 1, 73, 127
2, 379958, Note_off_c, 1, 73, 127
2, 379958, Note_off_c, 5, 53, 127
2, 379960, Note_on_c, 7, 55, 127
2, 379960, Note_on_c, 2, 74, 127
2, 380059, Note_off_c, 2, 74, 127
2, 380061, Note_on_c, 1, 73, 127
2, 380160, Note_off_c, 1, 73, 127
2, 380160, Note_off_c, 7, 55, 127
2, 380162, Note_on_c, 11, 58, 127
2, 380162, Note_on_c, 2, 74, 127
2, 380261, Note_off_c, 2, 74, 127
2, 380263, Note_on_c, 4, 76, 127
2, 380360, Note_off_c, 7, 67, 127
2, 380362, Note_off_c, 4, 76, 127
2, 380362, Note_off_c, 11, 58, 127
2, 380364, Note_on_c, 1, 61, 127
2, 380364, Note_on_c, 7, 67, 127
2, 380566, Note_on_c, 11, 70, 127
2, 380764, Note_off_c, 7, 67, 127
2, 380766, Note_off_c, 11, 70, 127
2, 380768, Note_on_c, 10, 69, 127
2, 380968, Note_off_c, 10, 69, 127
2, 380968, Note_off_c, 1, 61, 127
2, 380970, Note_on_c, 1, 61, 127
2, 380970, Note_on_c, 7, 67, 127
2, 381170, Note_off_c, 7, 67, 127
2, 381170, Note_off_c, 1, 61, 127
2, 381172, Note_on_c, 2, 62, 127
2, 381172, Note_on_c, 5, 65, 127
2, 381372, Note_off_c, 5, 65, 127
2, 381374, Note_on_c, 10, 69, 127
2, 381473, Note_off_c, 10, 69, 127
2, 381475, Note_on_c, 7, 67, 127
2, 381574, Note_off_c, 7, 67, 127
2, 381576, Note_on_c, 5, 65, 127
2, 381675, Note_off_c, 5, 65, 127
2, 381677, Note_on_c, 7, 67, 127
2, 381776, Note_off_c, 7, 67, 127
2, 381776, Note_off_c, 2, 62, 127
2, 381778, Note_on_c, 0, 60, 127
2, 381778, Note_on_c, 10, 69, 127
2, 381978, Note_off_c, 10, 69, 127
2, 381978, Note_off_c, 0, 60, 127
2, 381980, Note_on_c, 11, 58, 127
2, 381980, Note_on_c, 2, 62, 127
2, 382180, Note_off_c, 11, 58, 127
2, 382182, Note_on_c, 10, 57, 127
2, 382382, Note_off_c, 10, 57, 127
2, 382384, Note_on_c, 7, 55, 127
2, 382584, Note_off_c, 7, 55, 127
2, 382586, Note_on_c, 5, 53, 127
2, 382586, Note_on_c, 11, 70, 127
2, 382780, Note_off_c, 2, 62, 127
2, 382786, Note_off_c, 11, 70, 127
2, 382786, Note_off_c, 5, 53, 127
2, 382788, Note_on_c, 4, 52, 127
2, 382788, Note_on_c, 0, 60, 127
2, 382988, Note_off_c, 4, 52, 127
2, 382990, Note_on_c, 7, 55, 127
2, 382990, Note_on_c, 4, 64, 127
2, 383089, Note_off_c, 7, 55, 127
2, 383091, Note_on_c, 5, 53, 127
2, 383190, Note_off_c, 5, 53, 127
2, 383190, Note_off_c, 4, 64, 127
2, 383192, Note_on_c, 4, 52, 127
2, 383192, Note_on_c, 7, 67, 127
2, 383291, Note_off_c, 4, 52, 127
2, 383293, Note_on_c, 5, 53, 127
2, 383392, Note_off_c, 5, 53, 127
2, 383392, Note_off_c, 7, 67, 127
2, 383394, Note_on_c, 7, 55, 127
2, 383394, Note_on_c, 11, 70, 127
2, 383588, Note_off_c, 0, 60, 127
2, 383594, Note_off_c, 11, 70, 127
2, 383594, Note_off_c, 7, 55, 127
2, 383596, Note_on_c, 0, 48, 127
2, 383596, Note_on_c, 4, 64, 127
2, 383798, Note_on_c, 11, 70, 127
2, 383998, Note_off_c, 11, 70, 127
2, 383998, Note_off_c, 0, 48, 127
2, 384000, Note_on_c, 0, 60, 127
2, 384000, Note_on_c, 10, 69, 127
2, 384200, Note_off_c, 10, 69, 127
2, 384202, Note_on_c, 7, 67, 127
2, 384396, Note_off_c, 4, 64, 127
2, 384400, Note_off_c, 0, 60, 127
2, 384402, Note_off_c, 7, 67, 127
2, 384404, Note_on_c, 5, 53, 127
2, 384404, Note_on_c, 5, 65, 127
2, 384404, Note_on_c, 10, 69, 127
2, 384604, Note_off_c, 10, 69, 127
2, 384606, Note_on_c, 0, 72, 127
2, 384705, Note_off_c, 0, 72, 127
2, 384707, Note_on_c, 11, 70, 127
2, 384806, Note_off_c, 11, 70, 127
2, 384808, Note_on_c, 10, 69, 127
2, 384907, Note_off_c, 10, 69, 127
2, 384909, Note_on_c, 11, 70, 127
2, 385008, Note_off_c, 11, 70, 127
2, 385008, Note_off_c, 5, 53, 127
2, 385010, Note_on_c, 4, 52, 127
2, 385010, Note_on_c, 0, 72, 127
2, 385204, Note_off_c, 5, 65, 127
2, 385210, Note_off_c, 0, 72, 127
2, 385210, Note_off_c, 4, 52, 127
2, 385212, Note_on_c, 2, 50, 127
2, 385212, Note_on_c, 5, 65, 127
2, 385412, Note_off_c, 2, 50, 127
2, 385414, Note_on_c, 0, 48, 127
2, 385614, Note_off_c, 0, 48, 127
2, 385616, Note_on_c, 11, 46, 127
2, 385816, Note_off_c, 11, 46, 127
2, 385818, Note_on_c, 10, 45, 127
2, 385818, Note_on_c, 5, 77, 127
2, 386012, Note_off_c, 5, 65, 127
2, 386018, Note_off_c, 5, 77, 127
2, 386018, Note_off_c, 10, 45, 127
2, 386020, Note_on_c, 11, 46, 127
2, 386020, Note_on_c, 7, 67, 127
2, 386220, Note_off_c, 11, 46, 127
2, 386222, Note_on_c, 2, 50, 127
2, 386222, Note_on_c, 11, 70, 127
2, 386321, Note_off_c, 2, 50, 127
2, 386323, Note_on_c, 0, 48, 127
2, 386422, Note_off_c, 0, 48, 127
2, 386422, Note_off_c, 11, 70, 127
2, 386424, Note_on_c, 11, 46, 127
2, 386424, Note_on_c, 2, 74, 127
2, 386523, Note_off_c, 11, 46, 127
2, 386525, Note_on_c, 0, 48, 127
2, 386624, Note_off_c, 0, 48, 127
2, 386624, Note_off_c, 2, 74, 127
2, 386626, Note_on_c, 2, 50, 127
2, 386626, Note_on_c, 5, 77, 127
2, 386820, Note_off_c, 7, 67, 127
2, 386826, Note_off_c, 5, 77, 127
2, 386826, Note_off_c, 2, 50, 127
2, 386828, Note_on_c, 7, 43, 127
2, 386828, Note_on_c, 11, 70, 127
2, 387030, Note_on_c, 5, 77, 127
2, 387230, Note_off_c, 5, 77, 127
2, 387230, Note_off_c, 7, 43, 127
2, 387232, Note_on_c, 7, 55, 127
2, 387232, Note_on_c, 4, 76, 127
2, 387432, Note_off_c, 4, 76, 127
2, 387434, Note_on_c, 2, 74, 127
2, 387628, Note_off_c, 11, 70, 127
2, 387634, Note_off_c, 2, 74, 127
2, 387634, Note_off_c, 7, 55, 127
2, 387636, Note_on_c, 10, 57, 127
2, 387636, Note_on_c, 1, 73, 127
2, 387836, Note_off_c, 1, 73, 127
2, 387838, Note_on_c, 12, 71, 127
2, 388038, Note_off_c, 12, 71, 127
2, 388040, Note_on_c, 1, 61, 127
2, 388040, Note_on_c, 10, 69, 127
2, 388240, Note_off_c, 10, 69, 127
2, 388242, Note_on_c, 12, 71, 127
2, 388440, Note_off_c, 1, 61, 127
2, 388442, Note_off_c, 12, 71, 127
2, 388444, Note_on_c, 5, 65, 127
2, 388444, Note_on_c, 0, 72, 127
2, 388543, Note_off_c, 0, 72, 127
2, 388545, Note_on_c, 12, 71, 127
2, 388644, Note_off_c, 12, 71, 127
2, 388644, Note_off_c, 10, 57, 127
2, 388646, Note_on_c, 0, 60, 127
2, 388646, Note_on_c, 0, 72, 127
2, 388846, Note_off_c, 0, 60, 127
2, 388848, Note_on_c, 12, 59, 127
2, 389048, Note_off_c, 12, 59, 127
2, 389048, Note_off_c, 0, 72, 127
2, 389050, Note_on_c, 10, 57, 127
2, 389050, Note_on_c, 0, 72, 127
2, 389250, Note_off_c, 0, 72, 127
2, 389250, Note_off_c, 10, 57, 127
2, 389252, Note_on_c, 8, 56, 127
2, 389252, Note_on_c, 12, 71, 127
2, 389452, Note_off_c, 8, 56, 127
2, 389454, Note_on_c, 10, 57, 127
2, 389454, Note_on_c, 0, 72, 127
2, 389654, Note_off_c, 0, 72, 127
2, 389654, Note_off_c, 10, 57, 127
2, 389654, Note_off_c, 5, 65, 127
2, 389656, Note_on_c, 12, 59, 127
2, 389656, Note_on_c, 2, 74, 127
2, 389858, Note_on_c, 4, 52, 127
2, 390052, Note_off_c, 12, 71, 127
2, 390056, Note_off_c, 12, 59, 127
2, 390058, Note_off_c, 4, 52, 127
2, 390060, Note_on_c, 7, 55, 127
2, 390060, Note_on_c, 12, 71, 127
2, 390060, Note_on_c, 4, 64, 127
2, 390245, Note_off_c, 2, 74, 127
2, 390262, Note_on_c, 5, 77, 127
2, 390462, Note_off_c, 5, 77, 127
2, 390464, Note_on_c, 4, 76, 127
2, 390649, Note_off_c, 12, 71, 127
2, 390664, Note_off_c, 4, 76, 127
2, 390664, Note_off_c, 7, 55, 127
2, 390666, Note_on_c, 7, 55, 127
2, 390666, Note_on_c, 2, 74, 127
2, 390860, Note_off_c, 4, 64, 127
2, 390866, Note_off_c, 2, 74, 127
2, 390866, Note_off_c, 7, 55, 127
2, 390868, Note_on_c, 4, 64, 127
2, 390868, Note_on_c, 7, 67, 127
2, 390868, Note_on_c, 10, 69, 127
2, 390868, Note_on_c, 1, 73, 127
2, 391068, Note_off_c, 1, 73, 127
2, 391070, Note_on_c, 2, 74, 127
2, 391270, Note_off_c, 2, 74, 127
2, 391272, Note_on_c, 4, 76, 127
2, 391457, Note_off_c, 10, 69, 127
2, 391457, Note_off_c, 7, 67, 127
2, 391474, Note_on_c, 11, 58, 127
2, 391674, Note_off_c, 11, 58, 127
2, 391676, Note_on_c, 10, 57, 127
2, 391876, Note_off_c, 10, 57, 127
2, 391876, Note_off_c, 4, 76, 127
2, 391878, Note_off_c, 4, 64, 127
2, 391878, Note_on_c, 7, 55, 127
2, 391878, Note_on_c, 4, 76, 127
2, 392078, Note_off_c, 4, 76, 127
2, 392078, Note_off_c, 7, 55, 127
2, 392080, Note_on_c, 5, 53, 127
2, 392080, Note_on_c, 2, 74, 127
2, 392280, Note_off_c, 2, 74, 127
2, 392280, Note_off_c, 5, 53, 127
2, 392282, Note_on_c, 4, 52, 127
2, 392282, Note_on_c, 1, 73, 127
2, 392482, Note_off_c, 1, 73, 127
2, 392482, Note_off_c, 4, 52, 127
2, 392484, Note_on_c, 5, 53, 127
2, 392484, Note_on_c, 10, 69, 127
2, 392484, Note_on_c, 2, 74, 127
2, 392684, Note_off_c, 2, 74, 127
2, 392686, Note_on_c, 4, 76, 127
2, 392886, Note_off_c, 4, 76, 127
2, 392886, Note_off_c, 5, 53, 127
2, 392888, Note_on_c, 4, 52, 127
2, 392888, Note_on_c, 5, 77, 127
2, 393088, Note_off_c, 4, 52, 127
2, 393090, Note_on_c, 2, 50, 127
2, 393290, Note_off_c, 2, 50, 127
2, 393292, Note_on_c, 2, 62, 127
2, 393492, Note_off_c, 5, 77, 127
2, 393494, Note_on_c, 5, 77, 127
2, 393694, Note_off_c, 5, 77, 127
2, 393694, Note_off_c, 10, 69, 127
2, 393696, Note_on_c, 4, 76, 127
2, 393896, Note_off_c, 4, 76, 127
2, 393896, Note_off_c, 2, 62, 127
2, 393898, Note_on_c, 2, 62, 127
2, 393898, Note_on_c, 2, 74, 127
2, 394098, Note_off_c, 2, 62, 127
2, 394100, Note_on_c, 8, 56, 127
2, 394100, Note_on_c, 4, 64, 127
2, 394100, Note_on_c, 12, 59, 127
2, 394100, Note_on_c, 12, 83, 127
2, 394298, Note_off_c, 2, 74, 127
2, 394302, Note_on_c, 4, 76, 127
2, 394395, Note_off_c, 12, 83, 127
2, 394502, Note_off_c, 4, 76, 127
2, 394504, Note_on_c, 5, 77, 127
2, 394704, Note_off_c, 5, 77, 127
2, 394704, Note_off_c, 12, 59, 127
2, 394704, Note_off_c, 8, 56, 127
2, 394706, Note_on_c, 10, 57, 127
2, 394706, Note_on_c, 2, 74, 127
2, 394805, Note_off_c, 10, 57, 127
2, 394807, Note_on_c, 12, 59, 127
2, 394900, Note_off_c, 4, 64, 127
2, 394906, Note_off_c, 12, 59, 127
2, 394906, Note_off_c, 2, 74, 127
2, 394908, Note_on_c, 2, 50, 127
2, 394908, Note_on_c, 2, 74, 127
2, 394908, Note_on_c, 10, 69, 127
2, 395041, Note_off_c, 2, 74, 127
2, 395043, Note_on_c, 0, 72, 127
2, 395108, Note_off_c, 2, 50, 127
2, 395110, Note_on_c, 5, 53, 127
2, 395110, Note_on_c, 2, 74, 127
2, 395116, Note_off_c, 0, 72, 127
2, 395177, Note_on_c, 0, 72, 127
2, 395183, Note_off_c, 2, 74, 127
2, 395244, Note_on_c, 2, 74, 127
2, 395250, Note_off_c, 0, 72, 127
2, 395309, Note_off_c, 5, 53, 127
2, 395311, Note_on_c, 4, 52, 127
2, 395311, Note_on_c, 0, 72, 127
2, 395317, Note_off_c, 2, 74, 127
2, 395496, Note_off_c, 10, 69, 127
2, 395511, Note_off_c, 0, 72, 127
2, 395511, Note_off_c, 4, 52, 127
2, 395513, Note_on_c, 2, 50, 127
2, 395513, Note_on_c, 12, 71, 127
2, 395513, Note_on_c, 8, 68, 127
2, 395713, Note_off_c, 8, 68, 127
2, 395713, Note_off_c, 12, 71, 127
2, 395713, Note_off_c, 2, 50, 127
2, 395715, Note_on_c, 1, 49, 127
2, 395715, Note_on_c, 10, 69, 127
2, 395715, Note_on_c, 4, 76, 127
2, 395915, Note_off_c, 1, 49, 127
2, 395917, Note_on_c, 2, 50, 127
2, 396117, Note_off_c, 2, 50, 127
2, 396119, Note_on_c, 4, 52, 127
2, 396319, Note_off_c, 10, 69, 127
2, 396321, Note_on_c, 11, 70, 127
2, 396521, Note_off_c, 11, 70, 127
2, 396523, Note_on_c, 10, 69, 127
2, 396723, Note_off_c, 10, 69, 127
2, 396723, Note_off_c, 4, 52, 127
2, 396725, Note_on_c, 4, 52, 127
2, 396725, Note_on_c, 7, 67, 127
2, 396925, Note_off_c, 7, 67, 127
2, 396925, Note_off_c, 4, 52, 127
2, 396927, Note_on_c, 2, 50, 127
2, 396927, Note_on_c, 5, 65, 127
2, 397127, Note_off_c, 5, 65, 127
2, 397127, Note_off_c, 2, 50, 127
2, 397129, Note_on_c, 1, 49, 127
2, 397129, Note_on_c, 4, 64, 127
2, 397329, Note_off_c, 4, 64, 127
2, 397329, Note_off_c, 1, 49, 127
2, 397329, Note_off_c, 4, 76, 127
2, 397331, Note_on_c, 2, 50, 127
2, 397331, Note_on_c, 5, 65, 127
2, 397531, Note_off_c, 2, 50, 127
2, 397533, Note_on_c, 4, 52, 127
2, 397733, Note_off_c, 4, 52, 127
2, 397733, Note_off_c, 5, 65, 127
2, 397735, Note_on_c, 5, 53, 127
2, 397735, Note_on_c, 4, 64, 127
2, 397935, Note_off_c, 4, 64, 127
2, 397937, Note_on_c, 2, 62, 127
2, 398139, Note_on_c, 5, 65, 127
2, 398240, Note_on_c, 10, 69, 127
2, 398339, Note_off_c, 5, 53, 127
2, 398341, Note_on_c, 5, 53, 127
2, 398341, Note_on_c, 2, 74, 127
2, 398541, Note_off_c, 5, 53, 127
2, 398543, Note_on_c, 4, 52, 127
2, 398741, Note_off_c, 2, 74, 127
2, 398743, Note_off_c, 4, 52, 127
2, 398745, Note_on_c, 2, 50, 127
2, 398745, Note_on_c, 2, 74, 127
2, 398829, Note_off_c, 10, 69, 127
2, 398939, Note_off_c, 5, 65, 127
2, 398945, Note_off_c, 2, 74, 127
2, 398945, Note_off_c, 2, 50, 127
2, 398947, Note_on_c, 12, 59, 127
2, 398947, Note_on_c, 10, 69, 127
2, 399147, Note_off_c, 12, 59, 127
2, 399149, Note_on_c, 4, 52, 127
2, 399250, Note_off_c, 10, 69, 127
2, 399250, Note_on_c, 8, 68, 127
2, 399349, Note_off_c, 8, 68, 127
2, 399349, Note_off_c, 4, 52, 127
2, 399351, Note_on_c, 5, 53, 127
2, 399351, Note_on_c, 10, 69, 127
2, 399450, Note_off_c, 10, 69, 127
2, 399452, Note_on_c, 8, 68, 127
2, 399551, Note_off_c, 8, 68, 127
2, 399551, Note_off_c, 5, 53, 127
2, 399551, Note_off_c, 2, 62, 127
2, 399553, Note_on_c, 2, 50, 127
2, 399553, Note_on_c, 10, 69, 127
2, 399652, Note_off_c, 10, 69, 127
2, 399654, Note_on_c, 12, 71, 127
2, 399753, Note_off_c, 12, 71, 127
2, 399753, Note_off_c, 2, 50, 127
2, 399755, Note_on_c, 8, 56, 127
2, 399755, Note_on_c, 2, 62, 127
2, 399957, Note_on_c, 5, 65, 127
2, 400155, Note_off_c, 2, 62, 127
2, 400157, Note_off_c, 5, 65, 127
2, 400159, Note_on_c, 4, 64, 127
2, 400359, Note_off_c, 4, 64, 127
2, 400359, Note_off_c, 8, 56, 127
2, 400361, Note_on_c, 8, 56, 127
2, 400361, Note_on_c, 2, 62, 127
2, 400561, Note_off_c, 2, 62, 127
2, 400561, Note_off_c, 8, 56, 127
2, 400563, Note_on_c, 10, 57, 127
2, 400563, Note_on_c, 2, 62, 127
2, 400763, Note_off_c, 2, 62, 127
2, 400765, Note_on_c, 12, 59, 127
2, 400965, Note_off_c, 12, 59, 127
2, 400967, Note_on_c, 0, 60, 127
2, 401167, Note_off_c, 0, 60, 127
2, 401167, Note_off_c, 10, 57, 127
2, 401169, Note_on_c, 7, 55, 127
2, 401169, Note_on_c, 4, 64, 127
2, 401369, Note_off_c, 4, 64, 127
2, 401369, Note_off_c, 7, 55, 127
2, 401371, Note_on_c, 5, 53, 127
2, 401371, Note_on_c, 1, 61, 127
2, 401472, Note_on_c, 4, 64, 127
2, 401571, Note_off_c, 5, 53, 127
2, 401573, Note_on_c, 4, 52, 127
2, 401573, Note_on_c, 7, 67, 127
2, 401773, Note_off_c, 4, 52, 127
2, 401775, Note_on_c, 2, 50, 127
2, 401975, Note_off_c, 2, 50, 127
2, 401975, Note_off_c, 7, 67, 127
2, 401977, Note_on_c, 1, 49, 127
2, 401977, Note_on_c, 7, 67, 127
2, 402171, Note_off_c, 1, 61, 127
2, 402177, Note_off_c, 7, 67, 127
2, 402177, Note_off_c, 1, 49, 127
2, 402179, Note_on_c, 2, 50, 127
2, 402179, Note_on_c, 10, 57, 127
2, 402179, Note_on_c, 7, 67, 127
2, 402179, Note_on_c, 2, 62, 127
2, 402187, Note_off_c, 4, 64, 127
2, 402379, Note_off_c, 2, 62, 127
2, 402379, Note_off_c, 7, 67, 127
2, 402381, Note_on_c, 4, 64, 127
2, 402579, Note_off_c, 10, 57, 127
2, 402581, Note_off_c, 4, 64, 127
2, 402583, Note_on_c, 5, 65, 127
2, 402783, Note_off_c, 5, 65, 127
2, 402783, Note_off_c, 2, 50, 127
2, 402785, Note_on_c, 4, 52, 127
2, 402785, Note_on_c, 10, 69, 127
2, 402985, Note_off_c, 10, 69, 127
2, 402985, Note_off_c, 4, 52, 127
2, 402987, Note_on_c, 2, 50, 127
2, 402987, Note_on_c, 12, 71, 127
2, 403187, Note_off_c, 12, 71, 127
2, 403187, Note_off_c, 2, 50, 127
2, 403189, Note_on_c, 0, 48, 127
2, 403189, Note_on_c, 0, 72, 127
2, 403389, Note_off_c, 0, 72, 127
2, 403389, Note_off_c, 0, 48, 127
2, 403391, Note_on_c, 12, 47, 127
2, 403391, Note_on_c, 2, 74, 127
2, 403591, Note_off_c, 2, 74, 127
2, 403591, Note_off_c, 12, 47, 127
2, 403593, Note_on_c, 10, 45, 127
2, 403593, Note_on_c, 2, 74, 127
2, 403793, Note_off_c, 2, 74, 127
2, 403793, Note_off_c, 10, 45, 127
2, 403795, Note_on_c, 8, 44, 127
2, 403795, Note_on_c, 2, 74, 127
2, 403995, Note_off_c, 2, 74, 127
2, 403997, Note_on_c, 12, 71, 127
2, 403997, Note_on_c, 12, 47, 127
2, 404197, Note_off_c, 12, 71, 127
2, 404199, Note_on_c, 8, 68, 127
2, 404199, Note_on_c, 4, 52, 127
2, 404399, Note_off_c, 8, 68, 127
2, 404401, Note_on_c, 12, 71, 127
2, 404601, Note_off_c, 12, 71, 127
2, 404603, Note_on_c, 2, 74, 127
2, 404797, Note_off_c, 12, 47, 127
2, 404803, Note_off_c, 2, 74, 127
2, 404803, Note_off_c, 8, 44, 127
2, 404805, Note_on_c, 10, 45, 127
2, 404805, Note_on_c, 4, 76, 127
2, 404904, Note_off_c, 4, 76, 127
2, 404906, Note_on_c, 5, 77, 127
2, 404999, Note_off_c, 4, 52, 127
2, 405005, Note_off_c, 5, 77, 127
2, 405005, Note_off_c, 10, 45, 127
2, 405007, Note_on_c, 12, 47, 127
2, 405007, Note_on_c, 4, 76, 127
2, 405207, Note_off_c, 12, 47, 127
2, 405209, Note_on_c, 0, 48, 127
2, 405307, Note_off_c, 4, 76, 127
2, 405308, Note_on_c, 2, 74, 127
2, 405408, Note_off_c, 2, 74, 127
2, 405409, Note_off_c, 0, 48, 127
2, 405411, Note_on_c, 2, 50, 127
2, 405411, Note_on_c, 10, 81, 127
2, 405411, Note_on_c, 4, 76, 127
2, 405575, Note_on_c, 8, 80, 127
2, 405577, Note_off_c, 10, 81, 127
2, 405611, Note_off_c, 2, 50, 127
2, 405613, Note_on_c, 4, 52, 127
2, 405655, Note_on_c, 10, 81, 127
2, 405674, Note_off_c, 8, 80, 127
2, 405712, Note_off_c, 4, 52, 127
2, 405714, Note_on_c, 5, 53, 127
2, 405735, Note_on_c, 8, 80, 127
2, 405754, Note_off_c, 10, 81, 127
2, 405813, Note_off_c, 5, 53, 127
2, 405815, Note_on_c, 4, 52, 127
2, 405815, Note_on_c, 10, 81, 127
2, 405834, Note_off_c, 8, 80, 127
2, 405914, Note_off_c, 10, 81, 127
2, 405916, Note_on_c, 8, 80, 127
2, 406015, Note_off_c, 8, 80, 127
2, 406015, Note_off_c, 4, 52, 127
2, 406017, Note_on_c, 2, 50, 127
2, 406017, Note_on_c, 6, 78, 127
2, 406116, Note_off_c, 6, 78, 127
2, 406118, Note_on_c, 8, 80, 127
2, 406211, Note_off_c, 4, 76, 127
2, 406217, Note_off_c, 8, 80, 127
2, 406217, Note_off_c, 2, 50, 127
2, 406219, Note_on_c, 0, 48, 127
2, 406219, Note_on_c, 10, 81, 127
2, 406419, Note_off_c, 10, 81, 127
2, 406419, Note_off_c, 0, 48, 127
2, 406421, Note_on_c, 12, 47, 127
2, 406421, Note_on_c, 12, 83, 127
2, 406520, Note_off_c, 12, 83, 127
2, 406522, Note_on_c, 0, 84, 127
2, 406621, Note_off_c, 0, 84, 127
2, 406621, Note_off_c, 12, 47, 127
2, 406623, Note_on_c, 10, 45, 127
2, 406623, Note_on_c, 12, 83, 127
2, 406823, Note_off_c, 12, 83, 127
2, 406823, Note_off_c, 10, 45, 127
2, 406825, Note_on_c, 8, 44, 127
2, 406825, Note_on_c, 2, 74, 127
2, 406825, Note_on_c, 12, 71, 127
2, 407025, Note_off_c, 2, 74, 127
2, 407025, Note_off_c, 8, 44, 127
2, 407027, Note_on_c, 10, 45, 127
2, 407027, Note_on_c, 2, 74, 127
2, 407138, Note_off_c, 2, 74, 127
2, 407142, Note_on_c, 0, 72, 127
2, 407214, Note_on_c, 2, 74, 127
2, 407215, Note_off_c, 0, 72, 127
2, 407286, Note_on_c, 0, 72, 127
2, 407287, Note_off_c, 2, 74, 127
2, 407358, Note_on_c, 2, 74, 127
2, 407359, Note_off_c, 0, 72, 127
2, 407413, Note_off_c, 12, 71, 127
2, 407428, Note_off_c, 10, 45, 127
2, 407430, Note_on_c, 2, 50, 127
2, 407430, Note_on_c, 10, 69, 127
2, 407430, Note_on_c, 0, 72, 127
2, 407431, Note_off_c, 2, 74, 127
2, 407630, Note_off_c, 0, 72, 127
2, 407632, Note_on_c, 12, 71, 127
2, 407832, Note_off_c, 12, 71, 127
2, 407832, Note_off_c, 2, 50, 127
2, 407834, Note_on_c, 4, 52, 127
2, 407834, Note_on_c, 0, 72, 127
2, 408137, Note_off_c, 0, 72, 127
2, 408137, Note_on_c, 12, 71, 127
2, 408230, Note_off_c, 10, 69, 127
2, 408236, Note_off_c, 12, 71, 127
2, 408236, Note_off_c, 4, 52, 127
2, 408238, Note_on_c, 4, 40, 127
2, 408238, Note_on_c, 8, 68, 127
2, 408238, Note_on_c, 0, 72, 127
2, 408337, Note_off_c, 0, 72, 127
2, 408339, Note_on_c, 12, 71, 127
2, 408438, Note_off_c, 12, 71, 127
2, 408438, Note_off_c, 8, 68, 127
2, 408440, Note_on_c, 10, 69, 127
2, 408640, Note_off_c, 10, 69, 127
2, 408640, Note_off_c, 4, 40, 127
2, 408642, Note_on_c, 10, 45, 127
2, 408642, Note_on_c, 10, 69, 127
2, 408844, Note_on_c, 4, 52, 127
2, 408943, Note_off_c, 4, 52, 127
2, 408945, Note_on_c, 2, 50, 127
2, 409044, Note_off_c, 2, 50, 127
2, 409046, Note_on_c, 1, 49, 127
2, 409145, Note_off_c, 1, 49, 127
2, 409147, Note_on_c, 2, 50, 127
2, 409246, Note_off_c, 2, 50, 127
2, 409248, Note_on_c, 4, 52, 127
2, 409448, Note_off_c, 4, 52, 127
2, 409450, Note_on_c, 5, 53, 127
2, 409650, Note_off_c, 10, 69, 127
2, 409652, Note_on_c, 12, 59, 127
2, 409854, Note_on_c, 2, 62, 127
2, 410056, Note_on_c, 8, 68, 127
2, 410241, Note_off_c, 12, 59, 127
2, 410254, Note_off_c, 2, 62, 127
2, 410256, Note_off_c, 8, 68, 127
2, 410256, Note_off_c, 5, 53, 127
2, 410258, Note_on_c, 4, 52, 127
2, 410258, Note_on_c, 1, 61, 127
2, 410258, Note_on_c, 10, 69, 127
2, 410258, Note_on_c, 4, 64, 127
2, 411661, Note_off_c, 10, 45, 127
2, 411662, Note_on_c, 4, 76, 127
2, 411662, Note_on_c, 10, 57, 127
2, 411672, Note_off_c, 4, 64, 127
2, 411672, Note_off_c, 10, 69, 127
2, 411672, Note_off_c, 1, 61, 127
2, 411672, Note_off_c, 4, 52, 127
2, 411862, Note_off_c, 10, 57, 127
2, 411862, Note_off_c, 4, 76, 127
2, 411876, Note_on_c, 10, 57, 127
2, 411876, Note_on_c, 4, 76, 127
2, 411876, Note_on_c, 1, 73, 127
2, 411876, Note_on_c, 10, 69, 127
2, 412076, Note_off_c, 10, 69, 127
2, 412076, Note_off_c, 1, 73, 127
2, 412076, Note_off_c, 4, 76, 127
2, 412078, Note_on_c, 7, 79, 127
2, 412177, Note_off_c, 7, 79, 127
2, 412179, Note_on_c, 5, 77, 127
2, 412278, Note_off_c, 5, 77, 127
2, 412280, Note_on_c, 4, 76, 127
2, 412379, Note_off_c, 4, 76, 127
2, 412381, Note_on_c, 5, 77, 127
2, 412480, Note_off_c, 5, 77, 127
2, 412482, Note_on_c, 7, 79, 127
2, 412682, Note_off_c, 7, 79, 127
2, 412684, Note_on_c, 1, 73, 127
2, 412884, Note_off_c, 1, 73, 127
2, 412884, Note_off_c, 10, 57, 127
2, 412886, Note_on_c, 8, 56, 127
2, 412886, Note_on_c, 4, 76, 127
2, 412985, Note_off_c, 4, 76, 127
2, 412987, Note_on_c, 2, 74, 127
2, 413086, Note_off_c, 2, 74, 127
2, 413086, Note_off_c, 8, 56, 127
2, 413088, Note_on_c, 10, 57, 127
2, 413088, Note_on_c, 1, 73, 127
2, 413187, Note_off_c, 1, 73, 127
2, 413189, Note_on_c, 2, 74, 127
2, 413288, Note_off_c, 2, 74, 127
2, 413288, Note_off_c, 10, 57, 127
2, 413290, Note_on_c, 12, 59, 127
2, 413290, Note_on_c, 4, 76, 127
2, 413490, Note_off_c, 4, 76, 127
2, 413490, Note_off_c, 12, 59, 127
2, 413492, Note_on_c, 1, 61, 127
2, 413492, Note_on_c, 10, 69, 127
2, 413692, Note_off_c, 1, 61, 127
2, 413694, Note_on_c, 12, 59, 127
2, 413894, Note_off_c, 12, 59, 127
2, 413896, Note_on_c, 10, 57, 127
2, 414096, Note_off_c, 10, 57, 127
2, 414096, Note_off_c, 10, 69, 127
2, 414098, Note_on_c, 4, 64, 127
2, 414098, Note_on_c, 12, 71, 127
2, 414278, Note_off_c, 4, 64, 127
2, 414298, Note_off_c, 12, 71, 127
2, 414300, Note_on_c, 11, 58, 127
2, 414300, Note_on_c, 1, 73, 127
2, 414500, Note_off_c, 1, 73, 127
2, 414502, Note_on_c, 2, 74, 127
2, 414702, Note_off_c, 2, 74, 127
2, 414704, Note_on_c, 4, 76, 127
2, 414904, Note_off_c, 4, 76, 127
2, 414904, Note_off_c, 11, 58, 127
2, 414906, Note_on_c, 11, 58, 127
2, 414906, Note_on_c, 5, 77, 127
2, 415106, Note_off_c, 5, 77, 127
2, 415108, Note_on_c, 1, 49, 127
2, 415108, Note_on_c, 7, 79, 127
2, 415159, Note_off_c, 11, 58, 127
2, 415309, Note_off_c, 7, 79, 127
2, 415311, Note_on_c, 10, 81, 127
2, 415511, Note_off_c, 10, 81, 127
2, 415513, Note_on_c, 11, 82, 127
2, 415713, Note_off_c, 11, 82, 127
2, 415713, Note_off_c, 1, 49, 127
2, 415715, Note_on_c, 10, 57, 127
2, 415715, Note_on_c, 7, 79, 127
2, 415915, Note_off_c, 7, 79, 127
2, 415915, Note_off_c, 10, 57, 127
2, 415917, Note_on_c, 12, 59, 127
2, 415917, Note_on_c, 7, 79, 127
2, 416050, Note_off_c, 7, 79, 127
2, 416052, Note_on_c, 5, 77, 127
2, 416117, Note_off_c, 12, 59, 127
2, 416119, Note_on_c, 1, 61, 127
2, 416119, Note_on_c, 7, 79, 127
2, 416125, Note_off_c, 5, 77, 127
2, 416186, Note_on_c, 5, 77, 127
2, 416192, Note_off_c, 7, 79, 127
2, 416253, Note_on_c, 7, 79, 127
2, 416259, Note_off_c, 5, 77, 127
2, 416318, Note_off_c, 1, 61, 127
2, 416320, Note_on_c, 2, 62, 127
2, 416320, Note_on_c, 5, 77, 127
2, 416326, Note_off_c, 7, 79, 127
2, 416520, Note_off_c, 5, 77, 127
2, 416520, Note_off_c, 2, 62, 127
2, 416522, Note_on_c, 4, 64, 127
2, 416522, Note_on_c, 4, 76, 127
2, 416722, Note_off_c, 4, 76, 127
2, 416722, Note_off_c, 4, 64, 127
2, 416724, Note_on_c, 5, 65, 127
2, 416724, Note_on_c, 10, 81, 127
2, 416924, Note_off_c, 10, 81, 127
2, 416924, Note_off_c, 5, 65, 127
2, 416926, Note_on_c, 11, 70, 127
2, 416926, Note_on_c, 7, 79, 127
2, 417126, Note_off_c, 7, 79, 127
2, 417126, Note_off_c, 11, 70, 127
2, 417128, Note_on_c, 10, 69, 127
2, 417128, Note_on_c, 5, 77, 127
2, 417328, Note_off_c, 5, 77, 127
2, 417328, Note_off_c, 10, 69, 127
2, 417330, Note_on_c, 7, 67, 127
2, 417330, Note_on_c, 7, 79, 127
2, 417429, Note_off_c, 7, 79, 127
2, 417431, Note_on_c, 10, 81, 127
2, 417530, Note_off_c, 10, 81, 127
2, 417530, Note_off_c, 7, 67, 127
2, 417532, Note_on_c, 5, 65, 127
2, 417532, Note_on_c, 2, 74, 127
2, 417732, Note_off_c, 2, 74, 127
2, 417732, Note_off_c, 5, 65, 127
2, 417734, Note_on_c, 4, 64, 127
2, 417734, Note_on_c, 4, 76, 127
2, 417833, Note_off_c, 4, 76, 127
2, 417835, Note_on_c, 5, 77, 127
2, 417934, Note_off_c, 5, 77, 127
2, 417934, Note_off_c, 4, 64, 127
2, 417936, Note_on_c, 2, 62, 127
2, 417936, Note_on_c, 4, 76, 127
2, 418136, Note_off_c, 4, 76, 127
2, 418136, Note_off_c, 2, 62, 127
2, 418138, Note_on_c, 1, 61, 127
2, 418138, Note_on_c, 5, 77, 127
2, 418237, Note_off_c, 5, 77, 127
2, 418239, Note_on_c, 7, 79, 127
2, 418338, Note_off_c, 7, 79, 127
2, 418338, Note_off_c, 1, 61, 127
2, 418340, Note_on_c, 2, 62, 127
2, 418340, Note_on_c, 5, 77, 127
2, 418540, Note_off_c, 5, 77, 127
2, 418542, Note_on_c, 4, 76, 127
2, 418742, Note_off_c, 4, 76, 127
2, 418742, Note_off_c, 2, 62, 127
2, 418744, Note_on_c, 2, 50, 127
2, 418744, Note_on_c, 2, 74, 127
2, 418944, Note_off_c, 2, 74, 127
2, 418944, Note_off_c, 2, 50, 127
2, 418946, Note_on_c, 4, 52, 127
2, 418946, Note_on_c, 10, 81, 127
2, 419146, Note_off_c, 10, 81, 127
2, 419146, Note_off_c, 4, 52, 127
2, 419148, Note_on_c, 6, 54, 127
2, 419148, Note_on_c, 3, 75, 127
2, 419148, Note_on_c, 0, 72, 127
2, 419229, Note_on_c, 2, 74, 127
2, 419233, Note_off_c, 3, 75, 127
2, 419310, Note_on_c, 3, 75, 127
2, 419314, Note_off_c, 2, 74, 127
2, 419348, Note_off_c, 6, 54, 127
2, 419350, Note_on_c, 7, 55, 127
2, 419550, Note_off_c, 7, 55, 127
2, 419552, Note_on_c, 10, 57, 127
2, 419740, Note_off_c, 3, 75, 127
2, 419752, Note_off_c, 10, 57, 127
2, 419754, Note_on_c, 11, 58, 127
2, 419754, Note_on_c, 3, 75, 127
2, 419948, Note_off_c, 0, 72, 127
2, 419954, Note_off_c, 3, 75, 127
2, 419954, Note_off_c, 11, 58, 127
2, 419956, Note_on_c, 0, 60, 127
2, 419956, Note_on_c, 7, 67, 127
2, 420081, Note_on_c, 6, 66, 127
2, 420089, Note_off_c, 7, 67, 127
2, 420154, Note_off_c, 6, 66, 127
2, 420158, Note_on_c, 10, 57, 127
2, 420158, Note_on_c, 7, 67, 127
2, 420231, Note_off_c, 7, 67, 127
2, 420245, Note_on_c, 6, 66, 127
2, 420256, Note_off_c, 10, 57, 127
2, 420258, Note_on_c, 7, 55, 127
2, 420357, Note_off_c, 7, 55, 127
2, 420359, Note_on_c, 6, 54, 127
2, 420458, Note_off_c, 6, 54, 127
2, 420460, Note_on_c, 7, 55, 127
2, 420554, Note_off_c, 6, 66, 127
2, 420559, Note_off_c, 7, 55, 127
2, 420561, Note_on_c, 10, 57, 127
2, 420561, Note_on_c, 2, 62, 127
2, 420761, Note_off_c, 2, 62, 127
2, 420761, Note_off_c, 10, 57, 127
2, 420763, Note_on_c, 2, 50, 127
2, 420763, Note_on_c, 4, 64, 127
2, 420963, Note_off_c, 4, 64, 127
2, 420965, Note_off_c, 0, 60, 127
2, 420965, Note_on_c, 0, 60, 127
2, 420965, Note_on_c, 6, 66, 127
2, 421165, Note_off_c, 6, 66, 127
2, 421165, Note_off_c, 0, 60, 127
2, 421167, Note_on_c, 11, 58, 127
2, 421167, Note_on_c, 7, 67, 127
2, 421367, Note_off_c, 7, 67, 127
2, 421367, Note_off_c, 11, 58, 127
2, 421369, Note_on_c, 10, 57, 127
2, 421369, Note_on_c, 10, 69, 127
2, 421563, Note_off_c, 2, 50, 127
2, 421569, Note_off_c, 10, 69, 127
2, 421569, Note_off_c, 10, 57, 127
2, 421571, Note_on_c, 7, 55, 127
2, 421571, Note_on_c, 11, 70, 127
2, 421771, Note_off_c, 11, 70, 127
2, 421771, Note_off_c, 7, 55, 127
2, 421773, Note_on_c, 5, 53, 127
2, 421773, Note_on_c, 7, 67, 127
2, 421872, Note_off_c, 7, 67, 127
2, 421874, Note_on_c, 10, 69, 127
2, 421973, Note_off_c, 10, 69, 127
2, 421973, Note_off_c, 5, 53, 127
2, 421975, Note_on_c, 3, 51, 127
2, 421975, Note_on_c, 11, 70, 127
2, 422074, Note_off_c, 11, 70, 127
2, 422076, Note_on_c, 10, 69, 127
2, 422175, Note_off_c, 10, 69, 127
2, 422175, Note_off_c, 3, 51, 127
2, 422177, Note_on_c, 2, 50, 127
2, 422177, Note_on_c, 7, 67, 127
2, 422377, Note_off_c, 7, 67, 127
2, 422377, Note_off_c, 2, 50, 127
2, 422379, Note_on_c, 0, 48, 127
2, 422379, Note_on_c, 3, 75, 127
2, 422579, Note_off_c, 0, 48, 127
2, 422581, Note_on_c, 11, 46, 127
2, 422581, Note_on_c, 7, 67, 127
2, 422781, Note_off_c, 7, 67, 127
2, 422781, Note_off_c, 11, 46, 127
2, 422783, Note_on_c, 10, 45, 127
2, 422783, Note_on_c, 0, 72, 127
2, 422968, Note_off_c, 3, 75, 127
2, 422983, Note_off_c, 0, 72, 127
2, 422983, Note_off_c, 10, 45, 127
2, 422985, Note_on_c, 7, 43, 127
2, 422985, Note_on_c, 11, 70, 127
2, 422985, Note_on_c, 3, 75, 127
2, 423185, Note_off_c, 3, 75, 127
2, 423185, Note_off_c, 11, 70, 127
2, 423185, Note_off_c, 7, 43, 127
2, 423187, Note_on_c, 5, 41, 127
2, 423187, Note_on_c, 3, 75, 127
2, 423187, Note_on_c, 10, 69, 127
2, 423387, Note_off_c, 10, 69, 127
2, 423387, Note_off_c, 3, 75, 127
2, 423387, Note_off_c, 5, 41, 127
2, 423389, Note_on_c, 3, 51, 127
2, 423389, Note_on_c, 5, 65, 127
2, 423488, Note_off_c, 5, 65, 127
2, 423490, Note_on_c, 7, 67, 127
2, 423589, Note_off_c, 7, 67, 127
2, 423589, Note_off_c, 3, 51, 127
2, 423591, Note_on_c, 2, 50, 127
2, 423591, Note_on_c, 10, 69, 127
2, 423690, Note_off_c, 10, 69, 127
2, 423692, Note_on_c, 7, 67, 127
2, 423791, Note_off_c, 7, 67, 127
2, 423791, Note_off_c, 2, 50, 127
2, 423793, Note_on_c, 0, 48, 127
2, 423793, Note_on_c, 5, 65, 127
2, 423993, Note_off_c, 5, 65, 127
2, 423993, Note_off_c, 0, 48, 127
2, 423995, Note_on_c, 11, 46, 127
2, 423995, Note_on_c, 2, 74, 127
2, 424195, Note_off_c, 11, 46, 127
2, 424197, Note_on_c, 10, 45, 127
2, 424197, Note_on_c, 5, 65, 127
2, 424397, Note_off_c, 5, 65, 127
2, 424397, Note_off_c, 10, 45, 127
2, 424399, Note_on_c, 7, 43, 127
2, 424399, Note_on_c, 11, 70, 127
2, 424584, Note_off_c, 2, 74, 127
2, 424599, Note_off_c, 11, 70, 127
2, 424599, Note_off_c, 7, 43, 127
2, 424601, Note_on_c, 5, 41, 127
2, 424601, Note_on_c, 10, 69, 127
2, 424601, Note_on_c, 2, 74, 127
2, 424801, Note_off_c, 2, 74, 127
2, 424801, Note_off_c, 10, 69, 127
2, 424801, Note_off_c, 5, 41, 127
2, 424803, Note_on_c, 3, 39, 127
2, 424803, Note_on_c, 2, 74, 127
2, 424803, Note_on_c, 7, 67, 127
2, 425003, Note_off_c, 2, 74, 127
2, 425005, Note_on_c, 7, 79, 127
2, 425104, Note_off_c, 7, 79, 127
2, 425106, Note_on_c, 5, 77, 127
2, 425203, Note_off_c, 7, 67, 127
2, 425205, Note_off_c, 5, 77, 127
2, 425207, Note_on_c, 3, 75, 127
2, 425306, Note_off_c, 3, 75, 127
2, 425308, Note_on_c, 5, 77, 127
2, 425407, Note_off_c, 5, 77, 127
2, 425409, Note_on_c, 7, 79, 127
2, 425609, Note_off_c, 7, 79, 127
2, 425611, Note_on_c, 0, 72, 127
2, 425811, Note_off_c, 3, 39, 127
2, 425813, Note_on_c, 3, 51, 127
2, 425813, Note_on_c, 6, 78, 127
2, 425912, Note_off_c, 3, 51, 127
2, 425914, Note_on_c, 2, 50, 127
2, 426013, Note_off_c, 2, 50, 127
2, 426013, Note_off_c, 6, 78, 127
2, 426015, Note_on_c, 0, 48, 127
2, 426015, Note_on_c, 7, 79, 127
2, 426114, Note_off_c, 0, 48, 127
2, 426116, Note_on_c, 2, 50, 127
2, 426200, Note_off_c, 0, 72, 127
2, 426215, Note_off_c, 2, 50, 127
2, 426215, Note_off_c, 7, 79, 127
2, 426217, Note_on_c, 3, 51, 127
2, 426217, Note_on_c, 10, 81, 127
2, 426217, Note_on_c, 0, 72, 127
2, 426417, Note_off_c, 10, 81, 127
2, 426417, Note_off_c, 3, 51, 127
2, 426419, Note_on_c, 6, 42, 127
2, 426419, Note_on_c, 2, 74, 127
2, 426617, Note_off_c, 0, 72, 127
2, 426621, Note_on_c, 11, 70, 127
2, 426720, Note_off_c, 11, 70, 127
2, 426722, Note_on_c, 10, 69, 127
2, 426821, Note_off_c, 10, 69, 127
2, 426821, Note_off_c, 6, 42, 127
2, 426823, Note_on_c, 7, 43, 127
2, 426823, Note_on_c, 11, 70, 127
2, 427008, Note_off_c, 2, 74, 127
2, 427023, Note_off_c, 11, 70, 127
2, 427023, Note_off_c, 7, 43, 127
2, 427025, Note_on_c, 0, 48, 127
2, 427025, Note_on_c, 3, 75, 127
2, 427025, Note_on_c, 7, 67, 127
2, 427225, Note_off_c, 7, 67, 127
2, 427225, Note_off_c, 3, 75, 127
2, 427225, Note_off_c, 0, 48, 127
2, 427227, Note_on_c, 2, 50, 127
2, 427227, Note_on_c, 6, 66, 127
2, 427227, Note_on_c, 11, 70, 127
2, 427360, Note_off_c, 11, 70, 127
2, 427362, Note_on_c, 10, 69, 127
2, 427429, Note_on_c, 11, 70, 127
2, 427435, Note_off_c, 10, 69, 127
2, 427496, Note_on_c, 10, 69, 127
2, 427502, Note_off_c, 11, 70, 127
2, 427563, Note_on_c, 11, 70, 127
2, 427569, Note_off_c, 10, 69, 127
2, 427628, Note_off_c, 2, 50, 127
2, 427630, Note_on_c, 0, 48, 127
2, 427630, Note_on_c, 10, 69, 127
2, 427636, Note_off_c, 11, 70, 127
2, 427830, Note_off_c, 10, 69, 127
2, 427832, Note_on_c, 7, 67, 127
2, 428025, Note_off_c, 7, 67, 127
2, 428026, Note_off_c, 6, 66, 127
2, 428032, Note_off_c, 0, 48, 127
2, 428034, Note_on_c, 12, 47, 127
2, 428034, Note_on_c, 7, 67, 127
2, 428236, Note_on_c, 2, 50, 127
2, 428436, Note_off_c, 2, 50, 127
2, 428438, Note_on_c, 4, 52, 127
2, 428638, Note_off_c, 4, 52, 127
2, 428640, Note_on_c, 6, 54, 127
2, 428840, Note_off_c, 6, 54, 127
2, 428842, Note_on_c, 7, 55, 127
2, 428934, Note_off_c, 7, 67, 127
2, 429044, Note_off_c, 12, 47, 127
2, 429044, Note_on_c, 0, 48, 127
2, 429044, Note_on_c, 6, 66, 127
2, 429242, Note_off_c, 7, 55, 127
2, 429244, Note_off_c, 6, 66, 127
2, 429244, Note_off_c, 0, 48, 127
2, 429246, Note_on_c, 12, 47, 127
2, 429246, Note_on_c, 7, 67, 127
2, 429446, Note_off_c, 7, 67, 127
2, 429446, Note_off_c, 12, 47, 127
2, 429448, Note_on_c, 10, 45, 127
2, 429448, Note_on_c, 10, 69, 127
2, 429648, Note_off_c, 10, 69, 127
2, 429648, Note_off_c, 10, 45, 127
2, 429650, Note_on_c, 7, 43, 127
2, 429650, Note_on_c, 12, 71, 127
2, 429850, Note_off_c, 12, 71, 127
2, 429850, Note_off_c, 7, 43, 127
2, 429852, Note_on_c, 10, 45, 127
2, 429852, Note_on_c, 10, 69, 127
2, 430052, Note_off_c, 10, 69, 127
2, 430052, Note_off_c, 10, 45, 127
2, 430054, Note_on_c, 12, 47, 127
2, 430054, Note_on_c, 7, 67, 127
2, 430254, Note_off_c, 7, 67, 127
2, 430254, Note_off_c, 12, 47, 127
2, 430256, Note_on_c, 0, 48, 127
2, 430256, Note_on_c, 2, 74, 127
2, 430436, Note_off_c, 2, 74, 127
2, 430456, Note_off_c, 0, 48, 127
2, 430458, Note_on_c, 2, 50, 127
2, 430458, Note_on_c, 5, 65, 127
2, 430543, Note_off_c, 5, 65, 127
2, 430543, Note_on_c, 4, 64, 127
2, 430628, Note_off_c, 4, 64, 127
2, 430628, Note_on_c, 5, 65, 127
2, 430658, Note_off_c, 2, 50, 127
2, 430660, Note_on_c, 4, 52, 127
2, 430759, Note_off_c, 4, 52, 127
2, 430761, Note_on_c, 5, 53, 127
2, 430860, Note_off_c, 5, 53, 127
2, 430862, Note_on_c, 4, 52, 127
2, 431045, Note_off_c, 5, 65, 127
2, 431062, Note_off_c, 4, 52, 127
2, 431064, Note_on_c, 2, 50, 127
2, 431064, Note_on_c, 5, 65, 127
2, 431264, Note_off_c, 5, 65, 127
2, 431264, Note_off_c, 2, 50, 127
2, 431266, Note_on_c, 7, 55, 127
2, 431266, Note_on_c, 12, 59, 127
2, 431466, Note_off_c, 7, 55, 127
2, 431468, Note_on_c, 10, 57, 127
2, 431668, Note_off_c, 10, 57, 127
2, 431670, Note_on_c, 7, 55, 127
2, 431870, Note_off_c, 7, 55, 127
2, 431870, Note_off_c, 12, 59, 127
2, 431872, Note_on_c, 5, 53, 127
2, 431872, Note_on_c, 7, 67, 127
2, 432072, Note_off_c, 7, 67, 127
2, 432072, Note_off_c, 5, 53, 127
2, 432074, Note_on_c, 4, 52, 127
2, 432074, Note_on_c, 10, 69, 127
2, 432274, Note_off_c, 10, 69, 127
2, 432276, Note_on_c, 7, 55, 127
2, 432276, Note_on_c, 12, 71, 127
2, 432474, Note_off_c, 4, 52, 127
2, 432476, Note_off_c, 12, 71, 127
2, 432476, Note_off_c, 7, 55, 127
2, 432478, Note_on_c, 2, 50, 127
2, 432478, Note_on_c, 10, 57, 127
2, 432478, Note_on_c, 0, 72, 127
2, 432678, Note_off_c, 0, 72, 127
2, 432678, Note_off_c, 10, 57, 127
2, 432680, Note_on_c, 12, 59, 127
2, 432680, Note_on_c, 2, 74, 127
2, 432878, Note_off_c, 2, 50, 127
2, 432880, Note_off_c, 2, 74, 127
2, 432880, Note_off_c, 12, 59, 127
2, 432882, Note_on_c, 0, 60, 127
2, 432882, Note_on_c, 0, 48, 127
2, 432882, Note_on_c, 4, 76, 127
2, 433082, Note_off_c, 4, 76, 127
2, 433084, Note_on_c, 0, 72, 127
2, 433183, Note_off_c, 0, 72, 127
2, 433185, Note_on_c, 2, 74, 127
2, 433284, Note_off_c, 2, 74, 127
2, 433284, Note_off_c, 0, 60, 127
2, 433286, Note_on_c, 7, 55, 127
2, 433286, Note_on_c, 4, 76, 127
2, 433385, Note_off_c, 4, 76, 127
2, 433387, Note_on_c, 2, 74, 127
2, 433486, Note_off_c, 2, 74, 127
2, 433486, Note_off_c, 7, 55, 127
2, 433488, Note_on_c, 10, 57, 127
2, 433488, Note_on_c, 0, 72, 127
2, 433688, Note_off_c, 0, 72, 127
2, 433688, Note_off_c, 10, 57, 127
2, 433690, Note_on_c, 11, 58, 127
2, 433690, Note_on_c, 7, 79, 127
2, 433892, Note_off_c, 0, 48, 127
2, 433892, Note_on_c, 5, 53, 127
2, 434092, Note_off_c, 5, 53, 127
2, 434094, Note_on_c, 4, 52, 127
2, 434294, Note_off_c, 4, 52, 127
2, 434294, Note_off_c, 7, 79, 127
2, 434296, Note_on_c, 2, 50, 127
2, 434296, Note_on_c, 7, 79, 127
2, 434490, Note_off_c, 11, 58, 127
2, 434496, Note_off_c, 7, 79, 127
2, 434496, Note_off_c, 2, 50, 127
2, 434498, Note_on_c, 1, 49, 127
2, 434498, Note_on_c, 10, 57, 127
2, 434498, Note_on_c, 7, 79, 127
2, 434698, Note_off_c, 7, 79, 127
2, 434698, Note_off_c, 1, 49, 127
2, 434700, Note_on_c, 12, 47, 127
2, 434700, Note_on_c, 4, 76, 127
2, 434799, Note_off_c, 4, 76, 127
2, 434801, Note_on_c, 2, 74, 127
2, 434900, Note_off_c, 2, 74, 127
2, 434900, Note_off_c, 12, 47, 127
2, 434902, Note_on_c, 10, 45, 127
2, 434902, Note_on_c, 1, 73, 127
2, 435001, Note_off_c, 1, 73, 127
2, 435003, Note_on_c, 2, 74, 127
2, 435102, Note_off_c, 2, 74, 127
2, 435102, Note_off_c, 10, 45, 127
2, 435104, Note_on_c, 4, 52, 127
2, 435104, Note_on_c, 4, 76, 127
2, 435298, Note_off_c, 10, 57, 127
2, 435304, Note_off_c, 4, 76, 127
2, 435304, Note_off_c, 4, 52, 127
2, 435306, Note_on_c, 11, 46, 127
2, 435306, Note_on_c, 7, 67, 127
2, 435506, Note_off_c, 7, 67, 127
2, 435508, Note_on_c, 11, 70, 127
2, 435708, Note_off_c, 11, 70, 127
2, 435710, Note_on_c, 10, 69, 127
2, 435896, Note_off_c, 11, 46, 127
2, 435910, Note_off_c, 10, 69, 127
2, 435912, Note_on_c, 11, 46, 127
2, 435912, Note_on_c, 7, 67, 127
2, 436112, Note_off_c, 7, 67, 127
2, 436112, Note_off_c, 11, 46, 127
2, 436114, Note_on_c, 1, 37, 127
2, 436114, Note_on_c, 4, 76, 127
2, 436316, Note_on_c, 11, 70, 127
2, 436516, Note_off_c, 11, 70, 127
2, 436518, Note_on_c, 10, 69, 127
2, 436718, Note_off_c, 10, 69, 127
2, 436718, Note_off_c, 1, 37, 127
2, 436720, Note_on_c, 10, 45, 127
2, 436720, Note_on_c, 7, 67, 127
2, 436920, Note_off_c, 7, 67, 127
2, 436920, Note_off_c, 10, 45, 127
2, 436922, Note_on_c, 12, 47, 127
2, 436922, Note_on_c, 7, 67, 127
2, 437055, Note_off_c, 7, 67, 127
2, 437057, Note_on_c, 5, 65, 127
2, 437122, Note_off_c, 12, 47, 127
2, 437124, Note_on_c, 1, 49, 127
2, 437124, Note_on_c, 7, 67, 127
2, 437130, Note_off_c, 5, 65, 127
2, 437191, Note_on_c, 5, 65, 127
2, 437197, Note_off_c, 7, 67, 127
2, 437258, Note_on_c, 7, 67, 127
2, 437264, Note_off_c, 5, 65, 127
2, 437323, Note_off_c, 1, 49, 127
2, 437325, Note_on_c, 2, 50, 127
2, 437325, Note_on_c, 5, 65, 127
2, 437331, Note_off_c, 7, 67, 127
2, 437525, Note_off_c, 5, 65, 127
2, 437525, Note_off_c, 2, 50, 127
2, 437527, Note_on_c, 4, 52, 127
2, 437527, Note_on_c, 4, 64, 127
2, 437727, Note_off_c, 4, 64, 127
2, 437727, Note_off_c, 4, 52, 127
2, 437729, Note_on_c, 5, 53, 127
2, 437729, Note_on_c, 10, 69, 127
2, 437931, Note_on_c, 10, 57, 127
2, 438131, Note_off_c, 10, 57, 127
2, 438133, Note_on_c, 12, 59, 127
2, 438327, Note_off_c, 4, 76, 127
2, 438333, Note_off_c, 12, 59, 127
2, 438335, Note_on_c, 1, 61, 127
2, 438335, Note_on_c, 7, 79, 127
2, 438535, Note_off_c, 7, 79, 127
2, 438535, Note_off_c, 1, 61, 127
2, 438537, Note_on_c, 2, 62, 127
2, 438537, Note_on_c, 5, 77, 127
2, 438737, Note_off_c, 5, 77, 127
2, 438737, Note_off_c, 2, 62, 127
2, 438739, Note_on_c, 4, 64, 127
2, 438739, Note_on_c, 4, 76, 127
2, 438939, Note_off_c, 4, 76, 127
2, 438939, Note_off_c, 4, 64, 127
2, 438941, Note_on_c, 5, 65, 127
2, 438941, Note_on_c, 2, 74, 127
2, 439141, Note_off_c, 2, 74, 127
2, 439143, Note_on_c, 0, 72, 127
2, 439343, Note_off_c, 0, 72, 127
2, 439343, Note_off_c, 10, 69, 127
2, 439343, Note_off_c, 5, 53, 127
2, 439345, Note_on_c, 7, 55, 127
2, 439345, Note_on_c, 11, 70, 127
2, 439530, Note_off_c, 5, 65, 127
2, 439545, Note_off_c, 11, 70, 127
2, 439547, Note_on_c, 5, 65, 127
2, 439547, Note_on_c, 10, 69, 127
2, 439747, Note_off_c, 10, 69, 127
2, 439747, Note_off_c, 5, 65, 127
2, 439749, Note_on_c, 4, 64, 127
2, 439749, Note_on_c, 7, 67, 127
2, 439949, Note_off_c, 4, 64, 127
2, 439951, Note_on_c, 2, 62, 127
2, 439951, Note_on_c, 10, 81, 127
2, 440149, Note_off_c, 7, 67, 127
2, 440151, Note_off_c, 10, 81, 127
2, 440151, Note_off_c, 2, 62, 127
2, 440153, Note_on_c, 4, 64, 127
2, 440153, Note_on_c, 7, 79, 127
2, 440153, Note_on_c, 11, 70, 127
2, 440353, Note_off_c, 7, 79, 127
2, 440353, Note_off_c, 4, 64, 127
2, 440355, Note_on_c, 5, 65, 127
2, 440355, Note_on_c, 5, 77, 127
2, 440555, Note_off_c, 5, 77, 127
2, 440555, Note_off_c, 5, 65, 127
2, 440557, Note_on_c, 7, 67, 127
2, 440557, Note_on_c, 4, 76, 127
2, 440757, Note_off_c, 4, 76, 127
2, 440759, Note_on_c, 2, 74, 127
2, 440953, Note_off_c, 11, 70, 127
2, 440959, Note_off_c, 2, 74, 127
2, 440959, Note_off_c, 7, 55, 127
2, 440961, Note_on_c, 10, 57, 127
2, 440961, Note_on_c, 1, 73, 127
2, 441146, Note_off_c, 7, 67, 127
2, 441163, Note_on_c, 4, 64, 127
2, 441363, Note_off_c, 4, 64, 127
2, 441365, Note_on_c, 1, 61, 127
2, 441565, Note_off_c, 1, 61, 127
2, 441567, Note_on_c, 4, 64, 127
2, 441767, Note_off_c, 4, 64, 127
2, 441769, Note_on_c, 7, 67, 127
2, 441969, Note_off_c, 1, 73, 127
2, 441971, Note_on_c, 11, 70, 127
2, 442171, Note_off_c, 11, 70, 127
2, 442173, Note_on_c, 10, 69, 127
2, 442373, Note_off_c, 7, 67, 127
2, 442375, Note_on_c, 7, 67, 127
2, 442375, Note_on_c, 1, 73, 127
2, 442573, Note_off_c, 10, 69, 127
2, 442575, Note_off_c, 1, 73, 127
2, 442575, Note_off_c, 7, 67, 127
2, 442575, Note_off_c, 10, 57, 127
2, 442577, Note_on_c, 5, 65, 127
2, 442577, Note_on_c, 11, 58, 127
2, 442577, Note_on_c, 2, 74, 127
2, 442777, Note_off_c, 2, 74, 127
2, 442779, Note_on_c, 0, 72, 127
2, 442979, Note_off_c, 0, 72, 127
2, 442981, Note_on_c, 11, 70, 127
2, 443181, Note_off_c, 11, 70, 127
2, 443183, Note_on_c, 10, 69, 127
2, 443383, Note_off_c, 10, 69, 127
2, 443385, Note_on_c, 7, 67, 127
2, 443585, Note_off_c, 5, 65, 127
2, 443587, Note_on_c, 5, 65, 127
2, 443787, Note_off_c, 5, 65, 127
2, 443789, Note_on_c, 4, 64, 127
2, 443989, Note_off_c, 4, 64, 127
2, 443989, Note_off_c, 7, 67, 127
2, 443991, Note_on_c, 2, 62, 127
2, 443991, Note_on_c, 7, 67, 127
2, 444191, Note_off_c, 2, 62, 127
2, 444191, Note_off_c, 11, 58, 127
2, 444193, Note_on_c, 1, 61, 127
2, 444193, Note_on_c, 4, 76, 127
2, 444395, Note_on_c, 11, 58, 127
2, 444580, Note_off_c, 7, 67, 127
2, 444593, Note_off_c, 1, 61, 127
2, 444595, Note_off_c, 11, 58, 127
2, 444597, Note_on_c, 10, 57, 127
2, 444797, Note_off_c, 10, 57, 127
2, 444797, Note_off_c, 4, 76, 127
2, 444799, Note_on_c, 7, 55, 127
2, 444799, Note_on_c, 11, 70, 127
2, 444999, Note_off_c, 11, 70, 127
2, 444999, Note_off_c, 7, 55, 127
2, 445001, Note_on_c, 5, 53, 127
2, 445001, Note_on_c, 10, 69, 127
2, 445201, Note_off_c, 10, 69, 127
2, 445201, Note_off_c, 5, 53, 127
2, 445203, Note_on_c, 4, 52, 127
2, 445203, Note_on_c, 7, 67, 127
2, 445403, Note_off_c, 7, 67, 127
2, 445403, Note_off_c, 4, 52, 127
2, 445405, Note_on_c, 2, 50, 127
2, 445405, Note_on_c, 5, 65, 127
2, 445605, Note_off_c, 5, 65, 127
2, 445605, Note_off_c, 2, 50, 127
2, 445607, Note_on_c, 1, 49, 127
2, 445607, Note_on_c, 4, 64, 127
2, 445807, Note_off_c, 4, 64, 127
2, 445807, Note_off_c, 1, 49, 127
2, 445809, Note_on_c, 2, 50, 127
2, 445809, Note_on_c, 5, 65, 127
2, 446011, Note_on_c, 10, 69, 127
2, 446211, Note_off_c, 10, 69, 127
2, 446211, Note_off_c, 2, 50, 127
2, 446213, Note_on_c, 7, 55, 127
2, 446213, Note_on_c, 11, 70, 127
2, 446213, Note_on_c, 1, 73, 127
2, 446413, Note_off_c, 1, 73, 127
2, 446415, Note_on_c, 2, 74, 127
2, 446609, Note_off_c, 5, 65, 127
2, 446613, Note_off_c, 11, 70, 127
2, 446615, Note_off_c, 2, 74, 127
2, 446615, Note_off_c, 7, 55, 127
2, 446617, Note_on_c, 10, 57, 127
2, 446617, Note_on_c, 1, 61, 127
2, 446617, Note_on_c, 5, 65, 127
2, 446750, Note_off_c, 5, 65, 127
2, 446752, Note_on_c, 4, 64, 127
2, 446819, Note_on_c, 5, 65, 127
2, 446825, Note_off_c, 4, 64, 127
2, 446886, Note_on_c, 4, 64, 127
2, 446892, Note_off_c, 5, 65, 127
2, 446953, Note_on_c, 5, 65, 127
2, 446959, Note_off_c, 4, 64, 127
2, 447018, Note_off_c, 10, 57, 127
2, 447020, Note_on_c, 10, 45, 127
2, 447020, Note_on_c, 4, 64, 127
2, 447026, Note_off_c, 5, 65, 127
2, 447220, Note_off_c, 4, 64, 127
2, 447222, Note_on_c, 2, 62, 127
2, 447405, Note_off_c, 1, 61, 127
2, 447422, Note_off_c, 2, 62, 127
2, 447422, Note_off_c, 10, 45, 127
2, 447424, Note_on_c, 2, 50, 127
2, 447424, Note_on_c, 2, 62, 127
2, 447632, Note_off_c, 2, 62, 127
2, 447634, Note_on_c, 10, 57, 127
2, 447634, Note_on_c, 6, 66, 127
2, 447737, Note_off_c, 6, 66, 127
2, 447737, Note_off_c, 10, 57, 127
2, 447739, Note_on_c, 11, 58, 127
2, 447739, Note_on_c, 7, 67, 127
2, 447842, Note_off_c, 7, 67, 127
2, 447842, Note_off_c, 11, 58, 127
2, 447844, Note_on_c, 0, 60, 127
2, 447844, Note_on_c, 10, 69, 127
2, 447947, Note_off_c, 10, 69, 127
2, 447947, Note_off_c, 0, 60, 127
2, 447949, Note_on_c, 11, 58, 127
2, 447949, Note_on_c, 7, 67, 127
2, 448052, Note_off_c, 7, 67, 127
2, 448052, Note_off_c, 11, 58, 127
2, 448054, Note_on_c, 10, 57, 127
2, 448054, Note_on_c, 6, 66, 127
2, 448262, Note_off_c, 6, 66, 127
2, 448262, Note_off_c, 10, 57, 127
2, 448264, Note_on_c, 11, 58, 127
2, 448264, Note_on_c, 7, 67, 127
2, 448480, Note_off_c, 11, 58, 127
2, 448482, Note_on_c, 7, 55, 127
2, 448482, Note_on_c, 4, 64, 127
2, 448589, Note_off_c, 7, 55, 127
2, 448591, Note_on_c, 10, 57, 127
2, 448695, Note_off_c, 7, 67, 127
2, 448697, Note_off_c, 10, 57, 127
2, 448699, Note_on_c, 11, 58, 127
2, 448699, Note_on_c, 7, 67, 127
2, 448806, Note_off_c, 11, 58, 127
2, 448808, Note_on_c, 10, 57, 127
2, 448915, Note_off_c, 10, 57, 127
2, 448917, Note_on_c, 7, 55, 127
2, 448917, Note_on_c, 1, 73, 127
2, 449117, Note_off_c, 4, 64, 127
2, 449131, Note_off_c, 7, 67, 127
2, 449133, Note_off_c, 1, 73, 127
2, 449133, Note_off_c, 7, 55, 127
2, 449151, Note_on_c, 2, 74, 127
2, 449151, Note_on_c, 6, 66, 127
2, 449151, Note_on_c, 10, 69, 127
2, 449151, Note_on_c, 10, 57, 127
2, 450093, Note_off_c, 10, 57, 127
2, 450095, Note_on_c, 2, 38, 127
2, 450905, Note_off_c, 2, 50, 127
2, 451751, Note_off_c, 10, 69, 127
2, 451751, Note_off_c, 6, 66, 127
2, 451751, Note_off_c, 2, 74, 127
2, 451931, Note_off_c, 2, 38, 127
2, 452650, Note_on_c, 2, 74, 127
2, 452856, Note_off_c, 2, 74, 127
2, 452895, Note_on_c, 5, 65, 127
2, 452895, Note_on_c, 10, 69, 127
2, 452895, Note_on_c, 2, 74, 127
2, 452895, Note_on_c, 2, 62, 127
2, 453080, Note_on_c, 2, 50, 127
2, 453254, Note_off_c, 2, 62, 127
2, 453258, Note_off_c, 2, 50, 127
2, 453265, Note_on_c, 4, 52, 127
2, 453426, Note_off_c, 10, 69, 127
2, 453426, Note_off_c, 5, 65, 127
2, 453443, Note_off_c, 4, 52, 127
2, 453450, Note_on_c, 0, 72, 127
2, 453450, Note_on_c, 5, 53, 127
2, 453465, Note_off_c, 2, 74, 127
2, 453628, Note_off_c, 5, 53, 127
2, 453628, Note_off_c, 0, 72, 127
2, 453635, Note_on_c, 11, 70, 127
2, 453635, Note_on_c, 7, 55, 127
2, 453813, Note_off_c, 7, 55, 127
2, 453813, Note_off_c, 11, 70, 127
2, 453820, Note_on_c, 10, 69, 127
2, 453820, Note_on_c, 6, 54, 127
2, 453998, Note_off_c, 6, 54, 127
2, 453998, Note_off_c, 10, 69, 127
2, 454006, Note_on_c, 7, 55, 127
2, 454006, Note_on_c, 11, 70, 127
2, 454184, Note_off_c, 7, 55, 127
2, 454191, Note_on_c, 10, 57, 127
2, 454369, Note_off_c, 10, 57, 127
2, 454369, Note_off_c, 11, 70, 127
2, 454375, Note_on_c, 11, 58, 127
2, 454375, Note_on_c, 10, 69, 127
2, 454437, Note_on_c, 7, 67, 127
2, 454438, Note_off_c, 10, 69, 127
2, 454499, Note_on_c, 10, 69, 127
2, 454500, Note_off_c, 7, 67, 127
2, 454553, Note_off_c, 11, 58, 127
2, 454560, Note_on_c, 7, 55, 127
2, 454560, Note_on_c, 7, 67, 127
2, 454562, Note_off_c, 10, 69, 127
2, 454738, Note_off_c, 7, 55, 127
2, 454745, Note_on_c, 10, 57, 127
2, 454904, Note_off_c, 7, 67, 127
2, 454923, Note_off_c, 10, 57, 127
2, 454930, Note_on_c, 11, 58, 127
2, 454930, Note_on_c, 7, 67, 127
2, 455108, Note_off_c, 7, 67, 127
2, 455108, Note_off_c, 11, 58, 127
2, 455115, Note_on_c, 1, 49, 127
2, 455115, Note_on_c, 4, 76, 127
2, 455293, Note_off_c, 1, 49, 127
2, 455300, Note_on_c, 10, 57, 127
2, 455478, Note_off_c, 10, 57, 127
2, 455484, Note_on_c, 5, 53, 127
2, 455662, Note_off_c, 5, 53, 127
2, 455663, Note_off_c, 4, 76, 127
2, 455669, Note_on_c, 2, 50, 127
2, 455669, Note_on_c, 5, 77, 127
2, 455847, Note_off_c, 5, 77, 127
2, 455847, Note_off_c, 2, 50, 127
2, 455854, Note_on_c, 7, 55, 127
2, 455854, Note_on_c, 5, 77, 127
2, 456032, Note_off_c, 5, 77, 127
2, 456039, Note_on_c, 4, 76, 127
2, 456217, Note_off_c, 4, 76, 127
2, 456217, Note_off_c, 7, 55, 127
2, 456224, Note_on_c, 7, 43, 127
2, 456224, Note_on_c, 2, 74, 127
2, 456402, Note_off_c, 2, 74, 127
2, 456402, Note_off_c, 7, 43, 127
2, 456409, Note_on_c, 10, 45, 127
2, 456409, Note_on_c, 1, 73, 127
2, 456587, Note_off_c, 1, 73, 127
2, 456587, Note_off_c, 10, 45, 127
2, 456593, Note_on_c, 11, 46, 127
2, 456593, Note_on_c, 2, 74, 127
2, 456680, Note_off_c, 2, 74, 127
2, 456685, Note_on_c, 1, 73, 127
2, 456770, Note_off_c, 11, 46, 127
2, 456772, Note_off_c, 1, 73, 127
2, 456777, Note_on_c, 10, 45, 127
2, 456777, Note_on_c, 2, 74, 127
2, 456955, Note_off_c, 10, 45, 127
2, 456962, Note_on_c, 11, 46, 127
2, 457138, Note_off_c, 2, 74, 127
2, 457140, Note_off_c, 11, 46, 127
2, 457147, Note_on_c, 7, 43, 127
2, 457147, Note_on_c, 4, 76, 127
2, 457325, Note_off_c, 4, 76, 127
2, 457325, Note_off_c, 7, 43, 127
2, 457332, Note_on_c, 10, 45, 127
2, 457332, Note_on_c, 2, 74, 127
2, 457510, Note_off_c, 2, 74, 127
2, 457510, Note_off_c, 10, 45, 127
2, 457517, Note_on_c, 10, 57, 127
2, 457517, Note_on_c, 1, 73, 127
2, 457695, Note_off_c, 1, 73, 127
2, 457695, Note_off_c, 10, 57, 127
2, 457701, Note_on_c, 7, 55, 127
2, 457701, Note_on_c, 12, 71, 127
2, 457879, Note_off_c, 12, 71, 127
2, 457879, Note_off_c, 7, 55, 127
2, 457886, Note_on_c, 4, 52, 127
2, 457886, Note_on_c, 10, 69, 127
2, 458064, Note_off_c, 10, 69, 127
2, 458064, Note_off_c, 4, 52, 127
2, 458071, Note_on_c, 5, 53, 127
2, 458071, Note_on_c, 12, 71, 127
2, 458249, Note_off_c, 12, 71, 127
2, 458249, Note_off_c, 5, 53, 127
2, 458256, Note_on_c, 4, 52, 127
2, 458256, Note_on_c, 1, 73, 127
2, 458434, Note_off_c, 1, 73, 127
2, 458434, Note_off_c, 4, 52, 127
2, 458441, Note_on_c, 5, 53, 127
2, 458441, Note_on_c, 2, 74, 127
2, 458619, Note_off_c, 2, 74, 127
2, 458619, Note_off_c, 5, 53, 127
2, 458626, Note_on_c, 2, 50, 127
2, 458626, Note_on_c, 4, 76, 127
2, 458804, Note_off_c, 4, 76, 127
2, 458804, Note_off_c, 2, 50, 127
2, 458810, Note_on_c, 1, 49, 127
2, 458810, Note_on_c, 5, 77, 127
2, 458957, Note_off_c, 5, 77, 127
2, 458960, Note_on_c, 4, 76, 127
2, 458987, Note_off_c, 1, 49, 127
2, 458994, Note_on_c, 4, 52, 127
2, 459033, Note_on_c, 5, 77, 127
2, 459045, Note_off_c, 4, 76, 127
2, 459105, Note_on_c, 4, 76, 127
2, 459118, Note_off_c, 5, 77, 127
2, 459171, Note_off_c, 4, 52, 127
2, 459178, Note_on_c, 10, 45, 127
2, 459178, Note_on_c, 5, 77, 127
2, 459190, Note_off_c, 4, 76, 127
2, 459263, Note_off_c, 5, 77, 127
2, 459270, Note_on_c, 4, 76, 127
2, 459355, Note_off_c, 4, 76, 127
2, 459355, Note_off_c, 10, 45, 127
2, 459362, Note_on_c, 1, 49, 127
2, 459362, Note_on_c, 2, 74, 127
2, 459447, Note_off_c, 2, 74, 127
2, 459454, Note_on_c, 4, 76, 127
2, 459539, Note_off_c, 4, 76, 127
2, 459539, Note_off_c, 1, 49, 127
2, 459546, Note_on_c, 2, 50, 127
2, 459546, Note_on_c, 5, 77, 127
2, 459724, Note_off_c, 2, 50, 127
2, 459730, Note_on_c, 1, 49, 127
2, 459908, Note_off_c, 1, 49, 127
2, 459915, Note_on_c, 2, 50, 127
2, 460093, Note_off_c, 2, 50, 127
2, 460094, Note_off_c, 5, 77, 127
2, 460100, Note_on_c, 4, 52, 127
2, 460100, Note_on_c, 4, 76, 127
2, 460278, Note_off_c, 4, 76, 127
2, 460278, Note_off_c, 4, 52, 127
2, 460285, Note_on_c, 5, 53, 127
2, 460285, Note_on_c, 2, 74, 127
2, 460463, Note_off_c, 5, 53, 127
2, 460470, Note_on_c, 7, 55, 127
2, 460648, Note_off_c, 7, 55, 127
2, 460648, Note_off_c, 2, 74, 127
2, 460655, Note_on_c, 4, 52, 127
2, 460655, Note_on_c, 0, 72, 127
2, 460833, Note_off_c, 4, 52, 127
2, 460839, Note_on_c, 7, 55, 127
2, 461017, Note_off_c, 7, 55, 127
2, 461018, Note_off_c, 0, 72, 127
2, 461024, Note_on_c, 6, 54, 127
2, 461024, Note_on_c, 0, 72, 127
2, 461202, Note_off_c, 0, 72, 127
2, 461202, Note_off_c, 6, 54, 127
2, 461209, Note_on_c, 2, 50, 127
2, 461209, Note_on_c, 11, 70, 127
2, 461387, Note_off_c, 11, 70, 127
2, 461387, Note_off_c, 2, 50, 127
2, 461394, Note_on_c, 4, 52, 127
2, 461394, Note_on_c, 0, 72, 127
2, 461572, Note_off_c, 0, 72, 127
2, 461572, Note_off_c, 4, 52, 127
2, 461579, Note_on_c, 6, 54, 127
2, 461579, Note_on_c, 10, 69, 127
2, 461757, Note_off_c, 10, 69, 127
2, 461757, Note_off_c, 6, 54, 127
2, 461764, Note_on_c, 7, 55, 127
2, 461764, Note_on_c, 11, 70, 127
2, 461849, Note_off_c, 11, 70, 127
2, 461856, Note_on_c, 10, 69, 127
2, 461941, Note_off_c, 10, 69, 127
2, 461941, Note_off_c, 7, 55, 127
2, 461947, Note_on_c, 6, 54, 127
2, 461947, Note_on_c, 11, 70, 127
2, 462125, Note_off_c, 6, 54, 127
2, 462132, Note_on_c, 7, 55, 127
2, 462308, Note_off_c, 11, 70, 127
2, 462310, Note_off_c, 7, 55, 127
2, 462317, Note_on_c, 10, 57, 127
2, 462317, Note_on_c, 10, 69, 127
2, 462495, Note_off_c, 10, 69, 127
2, 462495, Note_off_c, 10, 57, 127
2, 462502, Note_on_c, 11, 58, 127
2, 462502, Note_on_c, 7, 67, 127
2, 462680, Note_off_c, 11, 58, 127
2, 462687, Note_on_c, 0, 60, 127
2, 462865, Note_off_c, 0, 60, 127
2, 462865, Note_off_c, 7, 67, 127
2, 462872, Note_on_c, 2, 62, 127
2, 462872, Note_on_c, 5, 65, 127
2, 463050, Note_off_c, 5, 65, 127
2, 463050, Note_off_c, 2, 62, 127
2, 463056, Note_on_c, 0, 60, 127
2, 463056, Note_on_c, 4, 64, 127
2, 463234, Note_off_c, 4, 64, 127
2, 463234, Note_off_c, 0, 60, 127
2, 463241, Note_on_c, 12, 59, 127
2, 463241, Note_on_c, 5, 65, 127
2, 463419, Note_off_c, 5, 65, 127
2, 463419, Note_off_c, 12, 59, 127
2, 463426, Note_on_c, 10, 57, 127
2, 463426, Note_on_c, 10, 69, 127
2, 463604, Note_off_c, 10, 69, 127
2, 463604, Note_off_c, 10, 57, 127
2, 463611, Note_on_c, 12, 59, 127
2, 463611, Note_on_c, 7, 67, 127
2, 463789, Note_off_c, 7, 67, 127
2, 463789, Note_off_c, 12, 59, 127
2, 463796, Note_on_c, 7, 55, 127
2, 463796, Note_on_c, 5, 65, 127
2, 463974, Note_off_c, 5, 65, 127
2, 463974, Note_off_c, 7, 55, 127
2, 463981, Note_on_c, 0, 60, 127
2, 463981, Note_on_c, 4, 64, 127
2, 464159, Note_off_c, 0, 60, 127
2, 464165, Note_on_c, 2, 62, 127
2, 464343, Note_off_c, 2, 62, 127
2, 464350, Note_on_c, 0, 60, 127
2, 464528, Note_off_c, 0, 60, 127
2, 464529, Note_off_c, 4, 64, 127
2, 464535, Note_on_c, 11, 58, 127
2, 464535, Note_on_c, 2, 62, 127
2, 464713, Note_off_c, 2, 62, 127
2, 464713, Note_off_c, 11, 58, 127
2, 464720, Note_on_c, 10, 57, 127
2, 464720, Note_on_c, 0, 60, 127
2, 464898, Note_off_c, 10, 57, 127
2, 464905, Note_on_c, 7, 55, 127
2, 465050, Note_off_c, 0, 60, 127
2, 465083, Note_off_c, 7, 55, 127
2, 465090, Note_on_c, 5, 53, 127
2, 465090, Note_on_c, 0, 72, 127
2, 465268, Note_off_c, 5, 53, 127
2, 465274, Note_on_c, 4, 52, 127
2, 465452, Note_off_c, 4, 52, 127
2, 465453, Note_off_c, 0, 72, 127
2, 465459, Note_on_c, 5, 53, 127
2, 465459, Note_on_c, 11, 70, 127
2, 465637, Note_off_c, 11, 70, 127
2, 465644, Note_on_c, 10, 69, 127
2, 465822, Note_off_c, 10, 69, 127
2, 465822, Note_off_c, 5, 53, 127
2, 465829, Note_on_c, 7, 55, 127
2, 465829, Note_on_c, 7, 67, 127
2, 466007, Note_off_c, 7, 67, 127
2, 466007, Note_off_c, 7, 55, 127
2, 466014, Note_on_c, 10, 57, 127
2, 466014, Note_on_c, 5, 65, 127
2, 466192, Note_off_c, 5, 65, 127
2, 466192, Note_off_c, 10, 57, 127
2, 466199, Note_on_c, 11, 58, 127
2, 466199, Note_on_c, 2, 74, 127
2, 466284, Note_off_c, 2, 74, 127
2, 466290, Note_on_c, 0, 72, 127
2, 466375, Note_off_c, 0, 72, 127
2, 466376, Note_off_c, 11, 58, 127
2, 466382, Note_on_c, 5, 53, 127
2, 466382, Note_on_c, 2, 74, 127
2, 466560, Note_off_c, 5, 53, 127
2, 466567, Note_on_c, 2, 50, 127
2, 466743, Note_off_c, 2, 74, 127
2, 466745, Note_off_c, 2, 50, 127
2, 466752, Note_on_c, 5, 53, 127
2, 466752, Note_on_c, 3, 75, 127
2, 466930, Note_off_c, 3, 75, 127
2, 466930, Note_off_c, 5, 53, 127
2, 466937, Note_on_c, 11, 46, 127
2, 466937, Note_on_c, 2, 74, 127
2, 467115, Note_off_c, 11, 46, 127
2, 467122, Note_on_c, 0, 48, 127
2, 467300, Note_off_c, 0, 48, 127
2, 467300, Note_off_c, 2, 74, 127
2, 467307, Note_on_c, 2, 50, 127
2, 467307, Note_on_c, 0, 72, 127
2, 467485, Note_off_c, 0, 72, 127
2, 467485, Note_off_c, 2, 50, 127
2, 467491, Note_on_c, 4, 52, 127
2, 467491, Note_on_c, 11, 70, 127
2, 467669, Note_off_c, 11, 70, 127
2, 467669, Note_off_c, 4, 52, 127
2, 467676, Note_on_c, 5, 53, 127
2, 467676, Note_on_c, 10, 69, 127
2, 467854, Note_off_c, 10, 69, 127
2, 467854, Note_off_c, 5, 53, 127
2, 467861, Note_on_c, 7, 55, 127
2, 467861, Note_on_c, 7, 67, 127
2, 468039, Note_off_c, 7, 67, 127
2, 468039, Note_off_c, 7, 55, 127
2, 468046, Note_on_c, 10, 57, 127
2, 468046, Note_on_c, 5, 77, 127
2, 468224, Note_off_c, 10, 57, 127
2, 468231, Note_on_c, 11, 58, 127
2, 468363, Note_off_c, 5, 77, 127
2, 468409, Note_off_c, 11, 58, 127
2, 468415, Note_on_c, 0, 60, 127
2, 468415, Note_on_c, 5, 77, 127
2, 468477, Note_on_c, 4, 76, 127
2, 468478, Note_off_c, 5, 77, 127
2, 468539, Note_on_c, 5, 77, 127
2, 468540, Note_off_c, 4, 76, 127
2, 468593, Note_off_c, 0, 60, 127
2, 468600, Note_on_c, 7, 55, 127
2, 468600, Note_on_c, 4, 76, 127
2, 468602, Note_off_c, 5, 77, 127
2, 468778, Note_off_c, 7, 55, 127
2, 468785, Note_on_c, 0, 48, 127
2, 468961, Note_off_c, 4, 76, 127
2, 468963, Note_off_c, 0, 48, 127
2, 468970, Note_on_c, 2, 50, 127
2, 468970, Note_on_c, 2, 74, 127
2, 469148, Note_off_c, 2, 74, 127
2, 469148, Note_off_c, 2, 50, 127
2, 469155, Note_on_c, 4, 52, 127
2, 469155, Note_on_c, 0, 72, 127
2, 469333, Note_off_c, 0, 72, 127
2, 469333, Note_off_c, 4, 52, 127
2, 469340, Note_on_c, 7, 55, 127
2, 469340, Note_on_c, 11, 70, 127
2, 469518, Note_off_c, 11, 70, 127
2, 469518, Note_off_c, 7, 55, 127
2, 469524, Note_on_c, 5, 53, 127
2, 469524, Note_on_c, 10, 69, 127
2, 469702, Note_off_c, 5, 53, 127
2, 469709, Note_on_c, 3, 51, 127
2, 469887, Note_off_c, 3, 51, 127
2, 469887, Note_off_c, 10, 69, 127
2, 469894, Note_on_c, 2, 50, 127
2, 469894, Note_on_c, 11, 70, 127
2, 469979, Note_off_c, 11, 70, 127
2, 469986, Note_on_c, 10, 69, 127
2, 470071, Note_off_c, 10, 69, 127
2, 470071, Note_off_c, 2, 50, 127
2, 470078, Note_on_c, 0, 48, 127
2, 470078, Note_on_c, 11, 70, 127
2, 470256, Note_off_c, 0, 48, 127
2, 470263, Note_on_c, 11, 46, 127
2, 470441, Note_off_c, 11, 46, 127
2, 470441, Note_off_c, 11, 70, 127
2, 470448, Note_on_c, 10, 45, 127
2, 470448, Note_on_c, 0, 72, 127
2, 470626, Note_off_c, 0, 72, 127
2, 470626, Note_off_c, 10, 45, 127
2, 470632, Note_on_c, 7, 43, 127
2, 470632, Note_on_c, 5, 65, 127
2, 470749, Note_off_c, 5, 65, 127
2, 470756, Note_on_c, 4, 64, 127
2, 470810, Note_off_c, 7, 43, 127
2, 470817, Note_on_c, 5, 41, 127
2, 470817, Note_on_c, 5, 65, 127
2, 470819, Note_off_c, 4, 64, 127
2, 470879, Note_on_c, 4, 64, 127
2, 470880, Note_off_c, 5, 65, 127
2, 470940, Note_on_c, 5, 65, 127
2, 470942, Note_off_c, 4, 64, 127
2, 470995, Note_off_c, 5, 41, 127
2, 471002, Note_on_c, 4, 40, 127
2, 471002, Note_on_c, 4, 64, 127
2, 471003, Note_off_c, 5, 65, 127
2, 471180, Note_off_c, 4, 64, 127
2, 471180, Note_off_c, 4, 40, 127
2, 471187, Note_on_c, 2, 38, 127
2, 471187, Note_on_c, 5, 65, 127
2, 471365, Note_off_c, 5, 65, 127
2, 471365, Note_off_c, 2, 38, 127
2, 471372, Note_on_c, 0, 36, 127
2, 471372, Note_on_c, 7, 67, 127
2, 471550, Note_off_c, 7, 67, 127
2, 471557, Note_on_c, 11, 70, 127
2, 471735, Note_off_c, 11, 70, 127
2, 471735, Note_off_c, 0, 36, 127
2, 471741, Note_on_c, 5, 41, 127
2, 471741, Note_on_c, 10, 69, 127
2, 471919, Note_off_c, 10, 69, 127
2, 471926, Note_on_c, 7, 67, 127
2, 472104, Note_off_c, 7, 67, 127
2, 472104, Note_off_c, 5, 41, 127
2, 472111, Note_on_c, 0, 48, 127
2, 472111, Note_on_c, 4, 64, 127
2, 472111, Note_on_c, 10, 69, 127
2, 472228, Note_off_c, 10, 69, 127
2, 472234, Note_on_c, 7, 67, 127
2, 472296, Note_on_c, 10, 69, 127
2, 472297, Note_off_c, 7, 67, 127
2, 472358, Note_on_c, 7, 67, 127
2, 472359, Note_off_c, 10, 69, 127
2, 472419, Note_on_c, 10, 69, 127
2, 472421, Note_off_c, 7, 67, 127
2, 472474, Note_off_c, 0, 48, 127
2, 472481, Note_on_c, 0, 36, 127
2, 472481, Note_on_c, 7, 67, 127
2, 472482, Note_off_c, 10, 69, 127
2, 472659, Note_off_c, 7, 67, 127
2, 472666, Note_on_c, 5, 65, 127
2, 472838, Note_off_c, 4, 64, 127
2, 472844, Note_off_c, 5, 65, 127
2, 472844, Note_off_c, 0, 36, 127
2, 472850, Note_on_c, 5, 41, 127
2, 472850, Note_on_c, 10, 57, 127
2, 472850, Note_on_c, 5, 65, 127
2, 472850, Note_on_c, 0, 60, 127
2, 473211, Note_off_c, 10, 57, 127
2, 473213, Note_off_c, 5, 41, 127
2, 473220, Note_on_c, 10, 57, 127
2, 473398, Note_off_c, 10, 57, 127
2, 473405, Note_on_c, 7, 55, 127
2, 473583, Note_off_c, 7, 55, 127
2, 473590, Note_on_c, 5, 53, 127
2, 473768, Note_off_c, 5, 53, 127
2, 473775, Note_on_c, 4, 52, 127
2, 473952, Note_off_c, 0, 60, 127
2, 473952, Note_off_c, 5, 65, 127
2, 473953, Note_off_c, 4, 52, 127
2, 473959, Note_on_c, 2, 50, 127
2, 473959, Note_on_c, 5, 77, 127
2, 474137, Note_off_c, 2, 50, 127
2, 474144, Note_on_c, 2, 62, 127
2, 474322, Note_off_c, 2, 62, 127
2, 474322, Note_off_c, 5, 77, 127
2, 474329, Note_on_c, 7, 55, 127
2, 474329, Note_on_c, 5, 77, 127
2, 474507, Note_off_c, 5, 77, 127
2, 474507, Note_off_c, 7, 55, 127
2, 474514, Note_on_c, 10, 57, 127
2, 474514, Note_on_c, 4, 76, 127
2, 474692, Note_off_c, 4, 76, 127
2, 474692, Note_off_c, 10, 57, 127
2, 474699, Note_on_c, 11, 58, 127
2, 474699, Note_on_c, 2, 74, 127
2, 474877, Note_off_c, 2, 74, 127
2, 474877, Note_off_c, 11, 58, 127
2, 474884, Note_on_c, 10, 57, 127
2, 474884, Note_on_c, 1, 73, 127
2, 475062, Note_off_c, 1, 73, 127
2, 475062, Note_off_c, 10, 57, 127
2, 475068, Note_on_c, 7, 55, 127
2, 475068, Note_on_c, 2, 74, 127
2, 475153, Note_off_c, 2, 74, 127
2, 475160, Note_on_c, 1, 73, 127
2, 475245, Note_off_c, 1, 73, 127
2, 475245, Note_off_c, 7, 55, 127
2, 475252, Note_on_c, 6, 54, 127
2, 475252, Note_on_c, 2, 74, 127
2, 475430, Note_off_c, 6, 54, 127
2, 475437, Note_on_c, 4, 52, 127
2, 475615, Note_off_c, 4, 52, 127
2, 475615, Note_off_c, 2, 74, 127
2, 475622, Note_on_c, 2, 50, 127
2, 475622, Note_on_c, 4, 76, 127
2, 475800, Note_off_c, 4, 76, 127
2, 475800, Note_off_c, 2, 50, 127
2, 475807, Note_on_c, 0, 48, 127
2, 475807, Note_on_c, 2, 74, 127
2, 475985, Note_off_c, 0, 48, 127
2, 475991, Note_on_c, 12, 47, 127
2, 476169, Note_off_c, 12, 47, 127
2, 476170, Note_off_c, 2, 74, 127
2, 476176, Note_on_c, 10, 45, 127
2, 476176, Note_on_c, 0, 72, 127
2, 476354, Note_off_c, 0, 72, 127
2, 476354, Note_off_c, 10, 45, 127
2, 476361, Note_on_c, 7, 43, 127
2, 476361, Note_on_c, 12, 71, 127
2, 476539, Note_off_c, 12, 71, 127
2, 476539, Note_off_c, 7, 43, 127
2, 476546, Note_on_c, 10, 45, 127
2, 476546, Note_on_c, 0, 72, 127
2, 476724, Note_off_c, 0, 72, 127
2, 476724, Note_off_c, 10, 45, 127
2, 476731, Note_on_c, 0, 48, 127
2, 476731, Note_on_c, 4, 76, 127
2, 476909, Note_off_c, 4, 76, 127
2, 476909, Note_off_c, 0, 48, 127
2, 476916, Note_on_c, 12, 47, 127
2, 476916, Note_on_c, 2, 74, 127
2, 477094, Note_off_c, 12, 47, 127
2, 477100, Note_on_c, 2, 50, 127
2, 477239, Note_off_c, 2, 74, 127
2, 477278, Note_off_c, 2, 50, 127
2, 477285, Note_on_c, 0, 48, 127
2, 477285, Note_on_c, 4, 76, 127
2, 477370, Note_off_c, 4, 76, 127
2, 477377, Note_on_c, 2, 74, 127
2, 477462, Note_off_c, 2, 74, 127
2, 477462, Note_off_c, 0, 48, 127
2, 477469, Note_on_c, 4, 52, 127
2, 477469, Note_on_c, 4, 76, 127
2, 477647, Note_off_c, 4, 52, 127
2, 477654, Note_on_c, 2, 50, 127
2, 477832, Note_off_c, 2, 50, 127
2, 477832, Note_off_c, 4, 76, 127
2, 477839, Note_on_c, 0, 48, 127
2, 477839, Note_on_c, 4, 64, 127
2, 478017, Note_off_c, 4, 64, 127
2, 478017, Note_off_c, 0, 48, 127
2, 478024, Note_on_c, 12, 47, 127
2, 478024, Note_on_c, 7, 67, 127
2, 478202, Note_off_c, 7, 67, 127
2, 478202, Note_off_c, 12, 47, 127
2, 478208, Note_on_c, 10, 45, 127
2, 478208, Note_on_c, 6, 66, 127
2, 478386, Note_off_c, 6, 66, 127
2, 478386, Note_off_c, 10, 45, 127
2, 478393, Note_on_c, 12, 47, 127
2, 478393, Note_on_c, 10, 69, 127
2, 478571, Note_off_c, 12, 47, 127
2, 478578, Note_on_c, 0, 48, 127
2, 478756, Note_off_c, 0, 48, 127
2, 478756, Note_off_c, 10, 69, 127
2, 478763, Note_on_c, 2, 50, 127
2, 478763, Note_on_c, 10, 69, 127
2, 478848, Note_off_c, 10, 69, 127
2, 478855, Note_on_c, 8, 68, 127
2, 478940, Note_off_c, 8, 68, 127
2, 478940, Note_off_c, 2, 50, 127
2, 478947, Note_on_c, 4, 52, 127
2, 478947, Note_on_c, 10, 69, 127
2, 479032, Note_off_c, 10, 69, 127
2, 479039, Note_on_c, 8, 68, 127
2, 479124, Note_off_c, 8, 68, 127
2, 479124, Note_off_c, 4, 52, 127
2, 479131, Note_on_c, 5, 53, 127
2, 479131, Note_on_c, 10, 69, 127
2, 479216, Note_off_c, 10, 69, 127
2, 479222, Note_on_c, 8, 68, 127
2, 479307, Note_off_c, 8, 68, 127
2, 479308, Note_off_c, 5, 53, 127
2, 479314, Note_on_c, 4, 52, 127
2, 479314, Note_on_c, 10, 69, 127
2, 479399, Note_off_c, 10, 69, 127
2, 479406, Note_on_c, 12, 71, 127
2, 479491, Note_off_c, 12, 71, 127
2, 479491, Note_off_c, 4, 52, 127
2, 479498, Note_on_c, 2, 50, 127
2, 479498, Note_on_c, 0, 72, 127
2, 479583, Note_off_c, 0, 72, 127
2, 479590, Note_on_c, 12, 71, 127
2, 479675, Note_off_c, 12, 71, 127
2, 479675, Note_off_c, 2, 50, 127
2, 479682, Note_on_c, 0, 48, 127
2, 479682, Note_on_c, 0, 72, 127
2, 479767, Note_off_c, 0, 72, 127
2, 479774, Note_on_c, 12, 71, 127
2, 479859, Note_off_c, 12, 71, 127
2, 479859, Note_off_c, 0, 48, 127
2, 479866, Note_on_c, 2, 50, 127
2, 479866, Note_on_c, 0, 72, 127
2, 479951, Note_off_c, 0, 72, 127
2, 479958, Note_on_c, 12, 71, 127
2, 480043, Note_off_c, 12, 71, 127
2, 480043, Note_off_c, 2, 50, 127
2, 480050, Note_on_c, 4, 52, 127
2, 480050, Note_on_c, 10, 69, 127
2, 480135, Note_off_c, 10, 69, 127
2, 480142, Note_on_c, 12, 71, 127
2, 480227, Note_off_c, 12, 71, 127
2, 480227, Note_off_c, 4, 52, 127
2, 480233, Note_on_c, 10, 45, 127
2, 480233, Note_on_c, 0, 72, 127
2, 480411, Note_off_c, 0, 72, 127
2, 480411, Note_off_c, 10, 45, 127
2, 480418, Note_on_c, 4, 52, 127
2, 480418, Note_on_c, 12, 71, 127
2, 480596, Note_off_c, 12, 71, 127
2, 480596, Note_off_c, 4, 52, 127
2, 480603, Note_on_c, 5, 53, 127
2, 480603, Note_on_c, 2, 74, 127
2, 480781, Note_off_c, 5, 53, 127
2, 480788, Note_on_c, 7, 55, 127
2, 480875, Note_off_c, 2, 74, 127
2, 480965, Note_off_c, 7, 55, 127
2, 480972, Note_on_c, 10, 57, 127
2, 480972, Note_on_c, 2, 74, 127
2, 481057, Note_off_c, 2, 74, 127
2, 481064, Note_on_c, 1, 73, 127
2, 481149, Note_off_c, 1, 73, 127
2, 481149, Note_off_c, 10, 57, 127
2, 481156, Note_on_c, 7, 55, 127
2, 481156, Note_on_c, 2, 74, 127
2, 481241, Note_off_c, 2, 74, 127
2, 481248, Note_on_c, 1, 73, 127
2, 481333, Note_off_c, 1, 73, 127
2, 481333, Note_off_c, 7, 55, 127
2, 481339, Note_on_c, 11, 58, 127
2, 481339, Note_on_c, 2, 74, 127
2, 481424, Note_off_c, 2, 74, 127
2, 481431, Note_on_c, 1, 73, 127
2, 481516, Note_off_c, 1, 73, 127
2, 481516, Note_off_c, 11, 58, 127
2, 481523, Note_on_c, 10, 57, 127
2, 481523, Note_on_c, 2, 74, 127
2, 481608, Note_off_c, 2, 74, 127
2, 481615, Note_on_c, 4, 76, 127
2, 481700, Note_off_c, 4, 76, 127
2, 481700, Note_off_c, 10, 57, 127
2, 481707, Note_on_c, 7, 55, 127
2, 481707, Note_on_c, 5, 77, 127
2, 481792, Note_off_c, 5, 77, 127
2, 481799, Note_on_c, 4, 76, 127
2, 481884, Note_off_c, 4, 76, 127
2, 481884, Note_off_c, 7, 55, 127
2, 481891, Note_on_c, 5, 53, 127
2, 481891, Note_on_c, 5, 77, 127
2, 481976, Note_off_c, 5, 77, 127
2, 481983, Note_on_c, 4, 76, 127
2, 482068, Note_off_c, 4, 76, 127
2, 482068, Note_off_c, 5, 53, 127
2, 482075, Note_on_c, 7, 55, 127
2, 482075, Note_on_c, 5, 77, 127
2, 482160, Note_off_c, 5, 77, 127
2, 482167, Note_on_c, 4, 76, 127
2, 482252, Note_off_c, 4, 76, 127
2, 482252, Note_off_c, 7, 55, 127
2, 482259, Note_on_c, 10, 57, 127
2, 482259, Note_on_c, 2, 74, 127
2, 482344, Note_off_c, 2, 74, 127
2, 482350, Note_on_c, 4, 76, 127
2, 482435, Note_off_c, 4, 76, 127
2, 482436, Note_off_c, 10, 57, 127
2, 482442, Note_on_c, 2, 50, 127
2, 482442, Note_on_c, 5, 77, 127
2, 482620, Note_off_c, 5, 77, 127
2, 482620, Note_off_c, 2, 50, 127
2, 482627, Note_on_c, 10, 57, 127
2, 482627, Note_on_c, 4, 76, 127
2, 482805, Note_off_c, 4, 76, 127
2, 482805, Note_off_c, 10, 57, 127
2, 482812, Note_on_c, 12, 59, 127
2, 482812, Note_on_c, 7, 79, 127
2, 482990, Note_off_c, 12, 59, 127
2, 482997, Note_on_c, 0, 60, 127
2, 483084, Note_off_c, 7, 79, 127
2, 483174, Note_off_c, 0, 60, 127
2, 483181, Note_on_c, 2, 62, 127
2, 483181, Note_on_c, 7, 79, 127
2, 483266, Note_off_c, 7, 79, 127
2, 483273, Note_on_c, 6, 78, 127
2, 483358, Note_off_c, 6, 78, 127
2, 483358, Note_off_c, 2, 62, 127
2, 483364, Note_on_c, 4, 64, 127
2, 483364, Note_on_c, 7, 79, 127
2, 483449, Note_off_c, 7, 79, 127
2, 483456, Note_on_c, 6, 78, 127
2, 483541, Note_off_c, 6, 78, 127
2, 483541, Note_off_c, 4, 64, 127
2, 483548, Note_on_c, 0, 60, 127
2, 483548, Note_on_c, 7, 79, 127
2, 483633, Note_off_c, 7, 79, 127
2, 483640, Note_on_c, 6, 78, 127
2, 483725, Note_off_c, 6, 78, 127
2, 483725, Note_off_c, 0, 60, 127
2, 483732, Note_on_c, 4, 64, 127
2, 483732, Note_on_c, 8, 80, 127
2, 483817, Note_off_c, 8, 80, 127
2, 483824, Note_on_c, 10, 81, 127
2, 483909, Note_off_c, 10, 81, 127
2, 483909, Note_off_c, 4, 64, 127
2, 483916, Note_on_c, 2, 62, 127
2, 483916, Note_on_c, 10, 81, 127
2, 484001, Note_off_c, 10, 81, 127
2, 484008, Note_on_c, 8, 80, 127
2, 484093, Note_off_c, 8, 80, 127
2, 484093, Note_off_c, 2, 62, 127
2, 484100, Note_on_c, 5, 65, 127
2, 484100, Note_on_c, 10, 81, 127
2, 484185, Note_off_c, 10, 81, 127
2, 484192, Note_on_c, 8, 80, 127
2, 484277, Note_off_c, 8, 80, 127
2, 484277, Note_off_c, 5, 65, 127
2, 484284, Note_on_c, 4, 64, 127
2, 484284, Note_on_c, 10, 81, 127
2, 484369, Note_off_c, 10, 81, 127
2, 484376, Note_on_c, 8, 80, 127
2, 484461, Note_off_c, 8, 80, 127
2, 484461, Note_off_c, 4, 64, 127
2, 484467, Note_on_c, 2, 62, 127
2, 484467, Note_on_c, 6, 78, 127
2, 484552, Note_off_c, 6, 78, 127
2, 484559, Note_on_c, 8, 80, 127
2, 484644, Note_off_c, 8, 80, 127
2, 484644, Note_off_c, 2, 62, 127
2, 484651, Note_on_c, 0, 60, 127
2, 484651, Note_on_c, 10, 81, 127
2, 484829, Note_off_c, 10, 81, 127
2, 484829, Note_off_c, 0, 60, 127
2, 484836, Note_on_c, 12, 59, 127
2, 484836, Note_on_c, 2, 74, 127
2, 485014, Note_off_c, 2, 74, 127
2, 485014, Note_off_c, 12, 59, 127
2, 485021, Note_on_c, 0, 60, 127
2, 485021, Note_on_c, 4, 76, 127
2, 485199, Note_off_c, 4, 76, 127
2, 485199, Note_off_c, 0, 60, 127
2, 485206, Note_on_c, 2, 62, 127
2, 485206, Note_on_c, 5, 77, 127
2, 485384, Note_off_c, 5, 77, 127
2, 485384, Note_off_c, 2, 62, 127
2, 485391, Note_on_c, 4, 64, 127
2, 485391, Note_on_c, 0, 72, 127
2, 485391, Note_on_c, 8, 68, 127
2, 485508, Note_off_c, 0, 72, 127
2, 485514, Note_on_c, 12, 71, 127
2, 485575, Note_on_c, 0, 72, 127
2, 485577, Note_off_c, 12, 71, 127
2, 485637, Note_on_c, 12, 71, 127
2, 485638, Note_off_c, 0, 72, 127
2, 485699, Note_on_c, 0, 72, 127
2, 485700, Note_off_c, 12, 71, 127
2, 485754, Note_off_c, 4, 64, 127
2, 485760, Note_on_c, 4, 52, 127
2, 485760, Note_on_c, 12, 71, 127
2, 485762, Note_off_c, 0, 72, 127
2, 485938, Note_off_c, 12, 71, 127
2, 485945, Note_on_c, 10, 69, 127
2, 486118, Note_off_c, 8, 68, 127
2, 486123, Note_off_c, 10, 69, 127
2, 486123, Note_off_c, 4, 52, 127
2, 486130, Note_on_c, 10, 57, 127
2, 486130, Note_on_c, 10, 69, 127
2, 486499, Note_on_c, 10, 45, 127
2, 486867, Note_on_c, 4, 52, 127
2, 487230, Note_off_c, 4, 52, 127
2, 487230, Note_off_c, 10, 57, 127
2, 487237, Note_on_c, 10, 57, 127
2, 487237, Note_on_c, 1, 61, 127
2, 487237, Note_on_c, 4, 64, 127
2, 487969, Note_off_c, 10, 45, 127
2, 487988, Note_on_c, 4, 76, 127
2, 488143, Note_off_c, 10, 69, 127
2, 488154, Note_off_c, 4, 64, 127
2, 488154, Note_off_c, 1, 61, 127
2, 488338, Note_off_c, 4, 76, 127
2, 488338, Note_off_c, 10, 57, 127
2, 488345, Note_on_c, 10, 45, 127
2, 488345, Note_on_c, 4, 76, 127
2, 488345, Note_on_c, 1, 73, 127
2, 488345, Note_on_c, 10, 69, 127
2, 488523, Note_off_c, 10, 45, 127
2, 488530, Note_on_c, 10, 57, 127
2, 488708, Note_off_c, 10, 57, 127
2, 488714, Note_on_c, 7, 55, 127
2, 488892, Note_off_c, 7, 55, 127
2, 488893, Note_off_c, 10, 69, 127
2, 488893, Note_off_c, 1, 73, 127
2, 488893, Note_off_c, 4, 76, 127
2, 488899, Note_on_c, 5, 53, 127
2, 488899, Note_on_c, 5, 77, 127
2, 489077, Note_off_c, 5, 77, 127
2, 489077, Note_off_c, 5, 53, 127
2, 489084, Note_on_c, 4, 52, 127
2, 489084, Note_on_c, 7, 79, 127
2, 489262, Note_off_c, 4, 52, 127
2, 489269, Note_on_c, 1, 49, 127
2, 489447, Note_off_c, 1, 49, 127
2, 489447, Note_off_c, 7, 79, 127
2, 489454, Note_on_c, 2, 50, 127
2, 489454, Note_on_c, 5, 77, 127
2, 489632, Note_off_c, 5, 77, 127
2, 489632, Note_off_c, 2, 50, 127
2, 489639, Note_on_c, 4, 52, 127
2, 489639, Note_on_c, 4, 76, 127
2, 489817, Note_off_c, 4, 76, 127
2, 489817, Note_off_c, 4, 52, 127
2, 489823, Note_on_c, 10, 45, 127
2, 489823, Note_on_c, 2, 74, 127
2, 490001, Note_off_c, 2, 74, 127
2, 490001, Note_off_c, 10, 45, 127
2, 490008, Note_on_c, 7, 55, 127
2, 490008, Note_on_c, 1, 73, 127
2, 490186, Note_off_c, 1, 73, 127
2, 490186, Note_off_c, 7, 55, 127
2, 490193, Note_on_c, 5, 53, 127
2, 490193, Note_on_c, 2, 74, 127
2, 490371, Note_off_c, 2, 74, 127
2, 490371, Note_off_c, 5, 53, 127
2, 490378, Note_on_c, 4, 52, 127
2, 490378, Note_on_c, 4, 76, 127
2, 490556, Note_off_c, 4, 76, 127
2, 490556, Note_off_c, 4, 52, 127
2, 490563, Note_on_c, 2, 50, 127
2, 490563, Note_on_c, 5, 77, 127
2, 490648, Note_off_c, 5, 77, 127
2, 490655, Note_on_c, 4, 76, 127
2, 490740, Note_off_c, 4, 76, 127
2, 490740, Note_off_c, 2, 50, 127
2, 490747, Note_on_c, 10, 57, 127
2, 490747, Note_on_c, 5, 77, 127
2, 490925, Note_off_c, 10, 57, 127
2, 490931, Note_on_c, 2, 62, 127
2, 491109, Note_off_c, 2, 62, 127
2, 491110, Note_off_c, 5, 77, 127
2, 491116, Note_on_c, 0, 60, 127
2, 491116, Note_on_c, 4, 76, 127
2, 491294, Note_off_c, 4, 76, 127
2, 491294, Note_off_c, 0, 60, 127
2, 491301, Note_on_c, 11, 58, 127
2, 491301, Note_on_c, 2, 74, 127
2, 491479, Note_off_c, 11, 58, 127
2, 491486, Note_on_c, 10, 57, 127
2, 491641, Note_off_c, 2, 74, 127
2, 491664, Note_off_c, 10, 57, 127
2, 491671, Note_on_c, 7, 55, 127
2, 491671, Note_on_c, 11, 82, 127
2, 491849, Note_off_c, 7, 55, 127
2, 491856, Note_on_c, 11, 58, 127
2, 492009, Note_off_c, 11, 82, 127
2, 492034, Note_off_c, 11, 58, 127
2, 492040, Note_on_c, 0, 60, 127
2, 492040, Note_on_c, 11, 82, 127
2, 492218, Note_off_c, 11, 82, 127
2, 492218, Note_off_c, 0, 60, 127
2, 492225, Note_on_c, 11, 58, 127
2, 492225, Note_on_c, 10, 81, 127
2, 492403, Note_off_c, 10, 81, 127
2, 492403, Note_off_c, 11, 58, 127
2, 492410, Note_on_c, 0, 60, 127
2, 492410, Note_on_c, 7, 79, 127
2, 492588, Note_off_c, 7, 79, 127
2, 492588, Note_off_c, 0, 60, 127
2, 492595, Note_on_c, 2, 62, 127
2, 492595, Note_on_c, 6, 78, 127
2, 492773, Note_off_c, 6, 78, 127
2, 492773, Note_off_c, 2, 62, 127
2, 492780, Note_on_c, 3, 63, 127
2, 492780, Note_on_c, 7, 79, 127
2, 492865, Note_off_c, 7, 79, 127
2, 492872, Note_on_c, 6, 78, 127
2, 492957, Note_off_c, 6, 78, 127
2, 492957, Note_off_c, 3, 63, 127
2, 492964, Note_on_c, 2, 62, 127
2, 492964, Note_on_c, 7, 79, 127
2, 493142, Note_off_c, 2, 62, 127
2, 493148, Note_on_c, 4, 64, 127
2, 493326, Note_off_c, 4, 64, 127
2, 493327, Note_off_c, 7, 79, 127
2, 493333, Note_on_c, 6, 66, 127
2, 493333, Note_on_c, 10, 81, 127
2, 493511, Note_off_c, 10, 81, 127
2, 493511, Note_off_c, 6, 66, 127
2, 493518, Note_on_c, 7, 67, 127
2, 493518, Note_on_c, 11, 82, 127
2, 493696, Note_off_c, 11, 82, 127
2, 493696, Note_off_c, 7, 67, 127
2, 493703, Note_on_c, 6, 66, 127
2, 493703, Note_on_c, 10, 81, 127
2, 493881, Note_off_c, 10, 81, 127
2, 493881, Note_off_c, 6, 66, 127
2, 493888, Note_on_c, 7, 67, 127
2, 493888, Note_on_c, 0, 84, 127
2, 494066, Note_off_c, 7, 67, 127
2, 494073, Note_on_c, 10, 69, 127
2, 494160, Note_off_c, 0, 84, 127
2, 494250, Note_off_c, 10, 69, 127
2, 494256, Note_on_c, 7, 67, 127
2, 494256, Note_on_c, 11, 82, 127
2, 494401, Note_on_c, 10, 81, 127
2, 494403, Note_off_c, 11, 82, 127
2, 494433, Note_off_c, 7, 67, 127
2, 494440, Note_on_c, 6, 66, 127
2, 494479, Note_on_c, 11, 82, 127
2, 494486, Note_off_c, 10, 81, 127
2, 494551, Note_on_c, 10, 81, 127
2, 494564, Note_off_c, 11, 82, 127
2, 494617, Note_off_c, 6, 66, 127
2, 494624, Note_on_c, 4, 64, 127
2, 494624, Note_on_c, 11, 82, 127
2, 494636, Note_off_c, 10, 81, 127
2, 494709, Note_off_c, 11, 82, 127
2, 494716, Note_on_c, 10, 81, 127
2, 494801, Note_off_c, 10, 81, 127
2, 494801, Note_off_c, 4, 64, 127
2, 494808, Note_on_c, 2, 62, 127
2, 494808, Note_on_c, 7, 79, 127
2, 494893, Note_off_c, 7, 79, 127
2, 494900, Note_on_c, 10, 81, 127
2, 494985, Note_off_c, 10, 81, 127
2, 494985, Note_off_c, 2, 62, 127
2, 494992, Note_on_c, 7, 67, 127
2, 494992, Note_on_c, 11, 82, 127
2, 495077, Note_off_c, 11, 82, 127
2, 495084, Note_on_c, 10, 81, 127
2, 495169, Note_off_c, 10, 81, 127
2, 495169, Note_off_c, 7, 67, 127
2, 495175, Note_on_c, 7, 55, 127
2, 495175, Note_on_c, 11, 82, 127
2, 495353, Note_off_c, 7, 55, 127
2, 495360, Note_on_c, 10, 57, 127
2, 495538, Note_off_c, 10, 57, 127
2, 495538, Note_off_c, 11, 82, 127
2, 495545, Note_on_c, 11, 58, 127
2, 495545, Note_on_c, 10, 81, 127
2, 495723, Note_off_c, 10, 81, 127
2, 495723, Note_off_c, 11, 58, 127
2, 495730, Note_on_c, 0, 60, 127
2, 495730, Note_on_c, 7, 79, 127
2, 495908, Note_off_c, 7, 79, 127
2, 495908, Note_off_c, 0, 60, 127
2, 495915, Note_on_c, 2, 62, 127
2, 495915, Note_on_c, 6, 78, 127
2, 496093, Note_off_c, 6, 78, 127
2, 496093, Note_off_c, 2, 62, 127
2, 496100, Note_on_c, 3, 63, 127
2, 496100, Note_on_c, 7, 79, 127
2, 496278, Note_off_c, 7, 79, 127
2, 496278, Note_off_c, 3, 63, 127
2, 496284, Note_on_c, 0, 60, 127
2, 496284, Note_on_c, 10, 81, 127
2, 496462, Note_off_c, 10, 81, 127
2, 496462, Note_off_c, 0, 60, 127
2, 496469, Note_on_c, 2, 62, 127
2, 496469, Note_on_c, 11, 82, 127
2, 496469, Note_on_c, 6, 78, 127
2, 496586, Note_off_c, 11, 82, 127
2, 496592, Note_on_c, 10, 81, 127
2, 496654, Note_on_c, 11, 82, 127
2, 496655, Note_off_c, 10, 81, 127
2, 496716, Note_on_c, 10, 81, 127
2, 496717, Note_off_c, 11, 82, 127
2, 496777, Note_on_c, 11, 82, 127
2, 496779, Note_off_c, 10, 81, 127
2, 496832, Note_off_c, 2, 62, 127
2, 496839, Note_on_c, 2, 50, 127
2, 496839, Note_on_c, 10, 81, 127
2, 496840, Note_off_c, 11, 82, 127
2, 497017, Note_off_c, 10, 81, 127
2, 497024, Note_on_c, 7, 79, 127
2, 497196, Note_off_c, 6, 78, 127
2, 497202, Note_off_c, 7, 79, 127
2, 497202, Note_off_c, 2, 50, 127
2, 497209, Note_on_c, 7, 55, 127
2, 497209, Note_on_c, 2, 74, 127
2, 497209, Note_on_c, 11, 70, 127
2, 497209, Note_on_c, 7, 79, 127
2, 497387, Note_off_c, 7, 55, 127
2, 497393, Note_on_c, 10, 57, 127
2, 497571, Note_off_c, 10, 57, 127
2, 497578, Note_on_c, 11, 58, 127
2, 497756, Note_off_c, 11, 58, 127
2, 497763, Note_on_c, 10, 57, 127
2, 497941, Note_off_c, 10, 57, 127
2, 497948, Note_on_c, 7, 55, 127
2, 498126, Note_off_c, 7, 55, 127
2, 498127, Note_off_c, 7, 79, 127
2, 498127, Note_off_c, 11, 70, 127
2, 498127, Note_off_c, 2, 74, 127
2, 498133, Note_on_c, 5, 53, 127
2, 498133, Note_on_c, 10, 81, 127
2, 498311, Note_off_c, 10, 81, 127
2, 498311, Note_off_c, 5, 53, 127
2, 498318, Note_on_c, 4, 52, 127
2, 498318, Note_on_c, 11, 82, 127
2, 498496, Note_off_c, 11, 82, 127
2, 498496, Note_off_c, 4, 52, 127
2, 498502, Note_on_c, 5, 53, 127
2, 498502, Note_on_c, 10, 81, 127
2, 498680, Note_off_c, 10, 81, 127
2, 498680, Note_off_c, 5, 53, 127
2, 498687, Note_on_c, 11, 46, 127
2, 498687, Note_on_c, 7, 79, 127
2, 498865, Note_off_c, 7, 79, 127
2, 498872, Note_on_c, 5, 77, 127
2, 499050, Note_off_c, 5, 77, 127
2, 499050, Note_off_c, 11, 46, 127
2, 499057, Note_on_c, 2, 50, 127
2, 499057, Note_on_c, 4, 76, 127
2, 499235, Note_off_c, 4, 76, 127
2, 499242, Note_on_c, 5, 77, 127
2, 499420, Note_off_c, 5, 77, 127
2, 499420, Note_off_c, 2, 50, 127
2, 499427, Note_on_c, 0, 48, 127
2, 499427, Note_on_c, 5, 77, 127
2, 499488, Note_on_c, 4, 76, 127
2, 499490, Note_off_c, 5, 77, 127
2, 499550, Note_on_c, 5, 77, 127
2, 499551, Note_off_c, 4, 76, 127
2, 499605, Note_off_c, 0, 48, 127
2, 499611, Note_on_c, 7, 55, 127
2, 499611, Note_on_c, 4, 76, 127
2, 499613, Note_off_c, 5, 77, 127
2, 499789, Note_off_c, 7, 55, 127
2, 499796, Note_on_c, 0, 60, 127
2, 499915, Note_off_c, 4, 76, 127
2, 499974, Note_off_c, 0, 60, 127
2, 499981, Note_on_c, 11, 58, 127
2, 499981, Note_on_c, 2, 74, 127
2, 500159, Note_off_c, 2, 74, 127
2, 500159, Note_off_c, 11, 58, 127
2, 500166, Note_on_c, 10, 57, 127
2, 500166, Note_on_c, 0, 72, 127
2, 500344, Note_off_c, 10, 57, 127
2, 500351, Note_on_c, 0, 60, 127
2, 500529, Note_off_c, 0, 60, 127
2, 500529, Note_off_c, 0, 72, 127
2, 500536, Note_on_c, 11, 58, 127
2, 500536, Note_on_c, 0, 84, 127
2, 500714, Note_off_c, 11, 58, 127
2, 500720, Note_on_c, 10, 57, 127
2, 500898, Note_off_c, 10, 57, 127
2, 500899, Note_off_c, 0, 84, 127
2, 500905, Note_on_c, 7, 55, 127
2, 500905, Note_on_c, 11, 82, 127
2, 501083, Note_off_c, 11, 82, 127
2, 501083, Note_off_c, 7, 55, 127
2, 501090, Note_on_c, 5, 53, 127
2, 501090, Note_on_c, 10, 81, 127
2, 501268, Note_off_c, 10, 81, 127
2, 501268, Note_off_c, 5, 53, 127
2, 501275, Note_on_c, 7, 55, 127
2, 501275, Note_on_c, 7, 79, 127
2, 501453, Note_off_c, 7, 79, 127
2, 501453, Note_off_c, 7, 55, 127
2, 501460, Note_on_c, 10, 57, 127
2, 501460, Note_on_c, 5, 77, 127
2, 501638, Note_off_c, 5, 77, 127
2, 501638, Note_off_c, 10, 57, 127
2, 501644, Note_on_c, 11, 58, 127
2, 501644, Note_on_c, 3, 75, 127
2, 501822, Note_off_c, 3, 75, 127
2, 501822, Note_off_c, 11, 58, 127
2, 501829, Note_on_c, 5, 53, 127
2, 501829, Note_on_c, 2, 74, 127
2, 502007, Note_off_c, 5, 53, 127
2, 502014, Note_on_c, 11, 46, 127
2, 502190, Note_off_c, 2, 74, 127
2, 502192, Note_off_c, 11, 46, 127
2, 502199, Note_on_c, 0, 48, 127
2, 502199, Note_on_c, 3, 75, 127
2, 502377, Note_off_c, 3, 75, 127
2, 502377, Note_off_c, 0, 48, 127
2, 502384, Note_on_c, 2, 50, 127
2, 502384, Note_on_c, 5, 77, 127
2, 502562, Note_off_c, 5, 77, 127
2, 502569, Note_on_c, 3, 75, 127
2, 502747, Note_off_c, 3, 75, 127
2, 502747, Note_off_c, 2, 50, 127
2, 502753, Note_on_c, 3, 51, 127
2, 502753, Note_on_c, 7, 79, 127
2, 502931, Note_off_c, 7, 79, 127
2, 502931, Note_off_c, 3, 51, 127
2, 502938, Note_on_c, 5, 53, 127
2, 502938, Note_on_c, 5, 77, 127
2, 503116, Note_off_c, 5, 77, 127
2, 503116, Note_off_c, 5, 53, 127
2, 503123, Note_on_c, 7, 55, 127
2, 503123, Note_on_c, 3, 75, 127
2, 503301, Note_off_c, 3, 75, 127
2, 503308, Note_on_c, 2, 74, 127
2, 503486, Note_off_c, 2, 74, 127
2, 503486, Note_off_c, 7, 55, 127
2, 503493, Note_on_c, 3, 51, 127
2, 503493, Note_on_c, 0, 72, 127
2, 503671, Note_off_c, 0, 72, 127
2, 503678, Note_on_c, 11, 70, 127
2, 503856, Note_off_c, 11, 70, 127
2, 503856, Note_off_c, 3, 51, 127
2, 503862, Note_on_c, 5, 53, 127
2, 503862, Note_on_c, 11, 70, 127
2, 504040, Note_off_c, 11, 70, 127
2, 504047, Note_on_c, 10, 69, 127
2, 504225, Note_off_c, 10, 69, 127
2, 504232, Note_on_c, 7, 67, 127
2, 504410, Note_off_c, 7, 67, 127
2, 504417, Note_on_c, 5, 65, 127
2, 504595, Note_off_c, 5, 65, 127
2, 504602, Note_on_c, 7, 67, 127
2, 504705, Note_off_c, 5, 53, 127
2, 504780, Note_off_c, 7, 67, 127
2, 504787, Note_on_c, 3, 51, 127
2, 504787, Note_on_c, 10, 69, 127
2, 504965, Note_off_c, 10, 69, 127
2, 504965, Note_off_c, 3, 51, 127
2, 504971, Note_on_c, 2, 50, 127
2, 504971, Note_on_c, 11, 70, 127
2, 505149, Note_off_c, 11, 70, 127
2, 505149, Note_off_c, 2, 50, 127
2, 505156, Note_on_c, 0, 48, 127
2, 505156, Note_on_c, 0, 72, 127
2, 505334, Note_off_c, 0, 72, 127
2, 505334, Note_off_c, 0, 48, 127
2, 505341, Note_on_c, 11, 46, 127
2, 505341, Note_on_c, 2, 74, 127
2, 505519, Note_off_c, 2, 74, 127
2, 505519, Note_off_c, 11, 46, 127
2, 505526, Note_on_c, 8, 44, 127
2, 505526, Note_on_c, 3, 75, 127
2, 505704, Note_off_c, 3, 75, 127
2, 505704, Note_off_c, 8, 44, 127
2, 505711, Note_on_c, 7, 43, 127
2, 505711, Note_on_c, 5, 77, 127
2, 505889, Note_off_c, 5, 77, 127
2, 505889, Note_off_c, 7, 43, 127
2, 505896, Note_on_c, 5, 41, 127
2, 505896, Note_on_c, 2, 74, 127
2, 506074, Note_off_c, 2, 74, 127
2, 506074, Note_off_c, 5, 41, 127
2, 506080, Note_on_c, 3, 39, 127
2, 506080, Note_on_c, 7, 79, 127
2, 506258, Note_off_c, 7, 79, 127
2, 506258, Note_off_c, 3, 39, 127
2, 506265, Note_on_c, 3, 51, 127
2, 506265, Note_on_c, 5, 77, 127
2, 506443, Note_off_c, 5, 77, 127
2, 506443, Note_off_c, 3, 51, 127
2, 506450, Note_on_c, 2, 50, 127
2, 506450, Note_on_c, 11, 82, 127
2, 506628, Note_off_c, 2, 50, 127
2, 506635, Note_on_c, 0, 48, 127
2, 506813, Note_off_c, 0, 48, 127
2, 506813, Note_off_c, 11, 82, 127
2, 506820, Note_on_c, 11, 46, 127
2, 506820, Note_on_c, 3, 75, 127
2, 506933, Note_on_c, 2, 74, 127
2, 506937, Note_off_c, 3, 75, 127
2, 506996, Note_off_c, 2, 74, 127
2, 506998, Note_off_c, 11, 46, 127
2, 507005, Note_on_c, 2, 50, 127
2, 507005, Note_on_c, 3, 75, 127
2, 507068, Note_off_c, 3, 75, 127
2, 507076, Note_on_c, 2, 74, 127
2, 507183, Note_off_c, 2, 50, 127
2, 507189, Note_on_c, 7, 55, 127
2, 507367, Note_off_c, 7, 55, 127
2, 507374, Note_on_c, 3, 51, 127
2, 507374, Note_on_c, 0, 72, 127
2, 507380, Note_off_c, 2, 74, 127
2, 507552, Note_off_c, 0, 72, 127
2, 507552, Note_off_c, 3, 51, 127
2, 507559, Note_on_c, 5, 53, 127
2, 507559, Note_on_c, 10, 69, 127
2, 507559, Note_on_c, 2, 74, 127
2, 507676, Note_off_c, 2, 74, 127
2, 507682, Note_on_c, 0, 72, 127
2, 507744, Note_on_c, 2, 74, 127
2, 507745, Note_off_c, 0, 72, 127
2, 507805, Note_on_c, 0, 72, 127
2, 507807, Note_off_c, 2, 74, 127
2, 507867, Note_on_c, 2, 74, 127
2, 507868, Note_off_c, 0, 72, 127
2, 507922, Note_off_c, 5, 53, 127
2, 507929, Note_on_c, 5, 41, 127
2, 507929, Note_on_c, 0, 72, 127
2, 507930, Note_off_c, 2, 74, 127
2, 508107, Note_off_c, 0, 72, 127
2, 508114, Note_on_c, 11, 70, 127
2, 508286, Note_off_c, 10, 69, 127
2, 508292, Note_off_c, 11, 70, 127
2, 508292, Note_off_c, 5, 41, 127
2, 508298, Note_on_c, 11, 46, 127
2, 508298, Note_on_c, 5, 65, 127
2, 508298, Note_on_c, 2, 62, 127
2, 508298, Note_on_c, 11, 70, 127
2, 508476, Note_off_c, 11, 46, 127
2, 508483, Note_on_c, 2, 50, 127
2, 508661, Note_off_c, 2, 50, 127
2, 508668, Note_on_c, 0, 48, 127
2, 508846, Note_off_c, 0, 48, 127
2, 508853, Note_on_c, 11, 46, 127
2, 509025, Note_off_c, 2, 62, 127
2, 509025, Note_off_c, 5, 65, 127
2, 509031, Note_off_c, 11, 46, 127
2, 509038, Note_on_c, 10, 45, 127
2, 509202, Note_off_c, 11, 70, 127
2, 509216, Note_off_c, 10, 45, 127
2, 509223, Note_on_c, 7, 43, 127
2, 509401, Note_off_c, 7, 43, 127
2, 509407, Note_on_c, 6, 42, 127
2, 509407, Note_on_c, 2, 74, 127
2, 509585, Note_off_c, 6, 42, 127
2, 509592, Note_on_c, 4, 40, 127
2, 509770, Note_off_c, 4, 40, 127
2, 509770, Note_off_c, 2, 74, 127
2, 509777, Note_on_c, 6, 42, 127
2, 509777, Note_on_c, 0, 72, 127
2, 509955, Note_off_c, 0, 72, 127
2, 509962, Note_on_c, 11, 70, 127
2, 510140, Note_off_c, 11, 70, 127
2, 510140, Note_off_c, 6, 42, 127
2, 510147, Note_on_c, 2, 50, 127
2, 510147, Note_on_c, 10, 69, 127
2, 510325, Note_off_c, 10, 69, 127
2, 510331, Note_on_c, 11, 70, 127
2, 510509, Note_off_c, 11, 70, 127
2, 510510, Note_off_c, 2, 50, 127
2, 510516, Note_on_c, 7, 55, 127
2, 510516, Note_on_c, 0, 72, 127
2, 510694, Note_off_c, 0, 72, 127
2, 510701, Note_on_c, 11, 70, 127
2, 510879, Note_off_c, 11, 70, 127
2, 510886, Note_on_c, 10, 69, 127
2, 511064, Note_off_c, 10, 69, 127
2, 511064, Note_off_c, 7, 55, 127
2, 511071, Note_on_c, 10, 57, 127
2, 511071, Note_on_c, 7, 67, 127
2, 511249, Note_off_c, 7, 67, 127
2, 511249, Note_off_c, 10, 57, 127
2, 511256, Note_on_c, 11, 58, 127
2, 511256, Note_on_c, 7, 79, 127
2, 511341, Note_off_c, 7, 79, 127
2, 511348, Note_on_c, 5, 77, 127
2, 511433, Note_off_c, 5, 77, 127
2, 511433, Note_off_c, 11, 58, 127
2, 511439, Note_on_c, 0, 60, 127
2, 511439, Note_on_c, 7, 79, 127
2, 511617, Note_off_c, 0, 60, 127
2, 511624, Note_on_c, 11, 58, 127
2, 511802, Note_off_c, 11, 58, 127
2, 511802, Note_off_c, 7, 79, 127
2, 511809, Note_on_c, 10, 57, 127
2, 511809, Note_on_c, 5, 77, 127
2, 511987, Note_off_c, 5, 77, 127
2, 511987, Note_off_c, 10, 57, 127
2, 511994, Note_on_c, 7, 55, 127
2, 511994, Note_on_c, 4, 76, 127
2, 512172, Note_off_c, 4, 76, 127
2, 512172, Note_off_c, 7, 55, 127
2, 512179, Note_on_c, 5, 53, 127
2, 512179, Note_on_c, 2, 74, 127
2, 512357, Note_off_c, 2, 74, 127
2, 512357, Note_off_c, 5, 53, 127
2, 512364, Note_on_c, 7, 55, 127
2, 512364, Note_on_c, 1, 73, 127
2, 512542, Note_off_c, 1, 73, 127
2, 512542, Note_off_c, 7, 55, 127
2, 512548, Note_on_c, 4, 52, 127
2, 512548, Note_on_c, 2, 74, 127
2, 512726, Note_off_c, 2, 74, 127
2, 512726, Note_off_c, 4, 52, 127
2, 512733, Note_on_c, 10, 57, 127
2, 512733, Note_on_c, 1, 73, 127
2, 512911, Note_off_c, 1, 73, 127
2, 512918, Note_on_c, 4, 76, 127
2, 513096, Note_off_c, 4, 76, 127
2, 513103, Note_on_c, 10, 69, 127
2, 513281, Note_off_c, 10, 69, 127
2, 513281, Note_off_c, 10, 57, 127
2, 513288, Note_on_c, 7, 55, 127
2, 513288, Note_on_c, 12, 71, 127
2, 513466, Note_off_c, 12, 71, 127
2, 513466, Note_off_c, 7, 55, 127
2, 513473, Note_on_c, 6, 54, 127
2, 513473, Note_on_c, 0, 72, 127
2, 513651, Note_off_c, 0, 72, 127
2, 513651, Note_off_c, 6, 54, 127
2, 513657, Note_on_c, 2, 50, 127
2, 513657, Note_on_c, 12, 71, 127
2, 513835, Note_off_c, 12, 71, 127
2, 513835, Note_off_c, 2, 50, 127
2, 513842, Note_on_c, 4, 52, 127
2, 513842, Note_on_c, 2, 74, 127
2, 514020, Note_off_c, 4, 52, 127
2, 514027, Note_on_c, 5, 53, 127
2, 514205, Note_off_c, 5, 53, 127
2, 514205, Note_off_c, 2, 74, 127
2, 514212, Note_on_c, 7, 55, 127
2, 514212, Note_on_c, 2, 74, 127
2, 514297, Note_off_c, 2, 74, 127
2, 514304, Note_on_c, 1, 73, 127
2, 514389, Note_off_c, 1, 73, 127
2, 514389, Note_off_c, 7, 55, 127
2, 514396, Note_on_c, 10, 57, 127
2, 514396, Note_on_c, 2, 74, 127
2, 514481, Note_off_c, 2, 74, 127
2, 514488, Note_on_c, 1, 73, 127
2, 514573, Note_off_c, 1, 73, 127
2, 514573, Note_off_c, 10, 57, 127
2, 514580, Note_on_c, 11, 58, 127
2, 514580, Note_on_c, 2, 74, 127
2, 514665, Note_off_c, 2, 74, 127
2, 514671, Note_on_c, 1, 73, 127
2, 514756, Note_off_c, 1, 73, 127
2, 514757, Note_off_c, 11, 58, 127
2, 514763, Note_on_c, 10, 57, 127
2, 514763, Note_on_c, 2, 74, 127
2, 514848, Note_off_c, 2, 74, 127
2, 514855, Note_on_c, 4, 76, 127
2, 514940, Note_off_c, 4, 76, 127
2, 514940, Note_off_c, 10, 57, 127
2, 514947, Note_on_c, 7, 55, 127
2, 514947, Note_on_c, 5, 77, 127
2, 515032, Note_off_c, 5, 77, 127
2, 515039, Note_on_c, 4, 76, 127
2, 515124, Note_off_c, 4, 76, 127
2, 515124, Note_off_c, 7, 55, 127
2, 515131, Note_on_c, 5, 53, 127
2, 515131, Note_on_c, 5, 77, 127
2, 515216, Note_off_c, 5, 77, 127
2, 515223, Note_on_c, 4, 76, 127
2, 515308, Note_off_c, 4, 76, 127
2, 515308, Note_off_c, 5, 53, 127
2, 515315, Note_on_c, 7, 55, 127
2, 515315, Note_on_c, 5, 77, 127
2, 515400, Note_off_c, 5, 77, 127
2, 515407, Note_on_c, 4, 76, 127
2, 515492, Note_off_c, 4, 76, 127
2, 515492, Note_off_c, 7, 55, 127
2, 515499, Note_on_c, 10, 57, 127
2, 515499, Note_on_c, 2, 74, 127
2, 515584, Note_off_c, 2, 74, 127
2, 515591, Note_on_c, 4, 76, 127
2, 515676, Note_off_c, 4, 76, 127
2, 515676, Note_off_c, 10, 57, 127
2, 515682, Note_on_c, 2, 50, 127
2, 515682, Note_on_c, 5, 77, 127
2, 515860, Note_off_c, 5, 77, 127
2, 515860, Note_off_c, 2, 50, 127
2, 515867, Note_on_c, 10, 57, 127
2, 515867, Note_on_c, 4, 76, 127
2, 516045, Note_off_c, 4, 76, 127
2, 516045, Note_off_c, 10, 57, 127
2, 516052, Note_on_c, 11, 58, 127
2, 516052, Note_on_c, 7, 79, 127
2, 516230, Note_off_c, 11, 58, 127
2, 516237, Note_on_c, 0, 60, 127
2, 516317, Note_off_c, 7, 79, 127
2, 516415, Note_off_c, 0, 60, 127
2, 516422, Note_on_c, 2, 62, 127
2, 516422, Note_on_c, 7, 79, 127
2, 516507, Note_off_c, 7, 79, 127
2, 516514, Note_on_c, 6, 78, 127
2, 516599, Note_off_c, 6, 78, 127
2, 516599, Note_off_c, 2, 62, 127
2, 516606, Note_on_c, 0, 60, 127
2, 516606, Note_on_c, 7, 79, 127
2, 516691, Note_off_c, 7, 79, 127
2, 516698, Note_on_c, 6, 78, 127
2, 516783, Note_off_c, 6, 78, 127
2, 516783, Note_off_c, 0, 60, 127
2, 516789, Note_on_c, 3, 63, 127
2, 516789, Note_on_c, 7, 79, 127
2, 516874, Note_off_c, 7, 79, 127
2, 516881, Note_on_c, 6, 78, 127
2, 516966, Note_off_c, 6, 78, 127
2, 516966, Note_off_c, 3, 63, 127
2, 516973, Note_on_c, 2, 62, 127
2, 516973, Note_on_c, 7, 79, 127
2, 517058, Note_off_c, 7, 79, 127
2, 517065, Note_on_c, 10, 81, 127
2, 517150, Note_off_c, 10, 81, 127
2, 517150, Note_off_c, 2, 62, 127
2, 517157, Note_on_c, 0, 60, 127
2, 517157, Note_on_c, 11, 82, 127
2, 517242, Note_off_c, 11, 82, 127
2, 517249, Note_on_c, 10, 81, 127
2, 517334, Note_off_c, 10, 81, 127
2, 517334, Note_off_c, 0, 60, 127
2, 517341, Note_on_c, 11, 58, 127
2, 517341, Note_on_c, 11, 82, 127
2, 517426, Note_off_c, 11, 82, 127
2, 517433, Note_on_c, 10, 81, 127
2, 517518, Note_off_c, 10, 81, 127
2, 517518, Note_off_c, 11, 58, 127
2, 517525, Note_on_c, 0, 60, 127
2, 517525, Note_on_c, 11, 82, 127
2, 517610, Note_off_c, 11, 82, 127
2, 517617, Note_on_c, 10, 81, 127
2, 517702, Note_off_c, 10, 81, 127
2, 517702, Note_off_c, 0, 60, 127
2, 517709, Note_on_c, 2, 62, 127
2, 517709, Note_on_c, 7, 79, 127
2, 517794, Note_off_c, 7, 79, 127
2, 517800, Note_on_c, 10, 81, 127
2, 517885, Note_off_c, 10, 81, 127
2, 517886, Note_off_c, 2, 62, 127
2, 517892, Note_on_c, 7, 55, 127
2, 517892, Note_on_c, 11, 82, 127
2, 518070, Note_off_c, 11, 82, 127
2, 518070, Note_off_c, 7, 55, 127
2, 518077, Note_on_c, 10, 57, 127
2, 518077, Note_on_c, 10, 81, 127
2, 518255, Note_off_c, 10, 81, 127
2, 518255, Note_off_c, 10, 57, 127
2, 518262, Note_on_c, 11, 58, 127
2, 518262, Note_on_c, 7, 79, 127
2, 518440, Note_off_c, 7, 79, 127
2, 518440, Note_off_c, 11, 58, 127
2, 518447, Note_on_c, 10, 57, 127
2, 518447, Note_on_c, 5, 77, 127
2, 518625, Note_off_c, 5, 77, 127
2, 518625, Note_off_c, 10, 57, 127
2, 518632, Note_on_c, 7, 55, 127
2, 518632, Note_on_c, 4, 76, 127
2, 518810, Note_off_c, 4, 76, 127
2, 518810, Note_off_c, 7, 55, 127
2, 518817, Note_on_c, 5, 53, 127
2, 518817, Note_on_c, 2, 74, 127
2, 518995, Note_off_c, 2, 74, 127
2, 518995, Note_off_c, 5, 53, 127
2, 519001, Note_on_c, 4, 52, 127
2, 519001, Note_on_c, 1, 73, 127
2, 519179, Note_off_c, 1, 73, 127
2, 519179, Note_off_c, 4, 52, 127
2, 519186, Note_on_c, 2, 50, 127
2, 519186, Note_on_c, 2, 74, 127
2, 519364, Note_off_c, 2, 74, 127
2, 519364, Note_off_c, 2, 50, 127
2, 519371, Note_on_c, 1, 49, 127
2, 519371, Note_on_c, 7, 67, 127
2, 519549, Note_off_c, 7, 67, 127
2, 519556, Note_on_c, 11, 70, 127
2, 519734, Note_off_c, 11, 70, 127
2, 519734, Note_off_c, 1, 49, 127
2, 519741, Note_on_c, 2, 50, 127
2, 519741, Note_on_c, 10, 69, 127
2, 519919, Note_off_c, 10, 69, 127
2, 519919, Note_off_c, 2, 50, 127
2, 519925, Note_on_c, 4, 52, 127
2, 519925, Note_on_c, 1, 73, 127
2, 520103, Note_off_c, 1, 73, 127
2, 520103, Note_off_c, 4, 52, 127
2, 520110, Note_on_c, 5, 53, 127
2, 520110, Note_on_c, 2, 74, 127
2, 520288, Note_off_c, 5, 53, 127
2, 520295, Note_on_c, 4, 52, 127
2, 520380, Note_off_c, 2, 74, 127
2, 520387, Note_on_c, 4, 76, 127
2, 520472, Note_off_c, 4, 76, 127
2, 520472, Note_off_c, 4, 52, 127
2, 520479, Note_on_c, 5, 53, 127
2, 520479, Note_on_c, 2, 74, 127
2, 520564, Note_off_c, 2, 74, 127
2, 520571, Note_on_c, 1, 73, 127
2, 520656, Note_off_c, 1, 73, 127
2, 520656, Note_off_c, 5, 53, 127
2, 520663, Note_on_c, 7, 55, 127
2, 520663, Note_on_c, 2, 74, 127
2, 520748, Note_off_c, 2, 74, 127
2, 520755, Note_on_c, 4, 76, 127
2, 520840, Note_off_c, 4, 76, 127
2, 520840, Note_off_c, 7, 55, 127
2, 520847, Note_on_c, 10, 57, 127
2, 520847, Note_on_c, 1, 73, 127
2, 520847, Note_on_c, 5, 77, 127
2, 520968, Note_off_c, 5, 77, 127
2, 520974, Note_on_c, 4, 76, 127
2, 521037, Note_on_c, 5, 77, 127
2, 521039, Note_off_c, 4, 76, 127
2, 521101, Note_on_c, 4, 76, 127
2, 521102, Note_off_c, 5, 77, 127
2, 521165, Note_on_c, 5, 77, 127
2, 521166, Note_off_c, 4, 76, 127
2, 521222, Note_off_c, 10, 57, 127
2, 521228, Note_on_c, 10, 45, 127
2, 521228, Note_on_c, 4, 76, 127
2, 521230, Note_off_c, 5, 77, 127
2, 521412, Note_off_c, 4, 76, 127
2, 521419, Note_on_c, 2, 74, 127
2, 521598, Note_off_c, 1, 73, 127
2, 521603, Note_off_c, 2, 74, 127
2, 521603, Note_off_c, 10, 45, 127
2, 521610, Note_on_c, 2, 50, 127
2, 521610, Note_on_c, 2, 74, 127
2, 522034, Note_on_c, 2, 38, 127
2, 522459, Note_on_c, 10, 45, 127
2, 522875, Note_off_c, 2, 50, 127
2, 522876, Note_off_c, 10, 45, 127
2, 522906, Note_on_c, 6, 66, 127
2, 522906, Note_on_c, 10, 69, 127
2, 522906, Note_on_c, 2, 50, 127
2, 524976, Note_off_c, 2, 50, 127
2, 524976, Note_off_c, 10, 69, 127
2, 524976, Note_off_c, 6, 66, 127
2, 524976, Note_off_c, 2, 38, 127
2, 524976, Note_off_c, 2, 74, 127
2, 526911, Note_on_c, 5, 77, 127
2, 526911, Note_on_c, 10, 69, 127
2, 526911, Note_on_c, 2, 74, 127
2, 526911, Note_on_c, 2, 62, 127
2, 526911, Note_on_c, 2, 50, 127
2, 527576, Note_off_c, 2, 50, 127
2, 527576, Note_off_c, 2, 62, 127
2, 527576, Note_off_c, 2, 74, 127
2, 527576, Note_off_c, 10, 69, 127
2, 527576, Note_off_c, 5, 77, 127
2, 527578, Note_on_c, 7, 67, 127
2, 527578, Note_on_c, 11, 70, 127
2, 527578, Note_on_c, 2, 62, 127
2, 527578, Note_on_c, 5, 77, 127
2, 527734, Note_off_c, 5, 77, 127
2, 527734, Note_on_c, 4, 76, 127
2, 527802, Note_on_c, 5, 77, 127
2, 527805, Note_off_c, 4, 76, 127
2, 527869, Note_on_c, 4, 76, 127
2, 527872, Note_off_c, 5, 77, 127
2, 527936, Note_on_c, 5, 77, 127
2, 527939, Note_off_c, 4, 76, 127
2, 528003, Note_on_c, 4, 76, 127
2, 528006, Note_off_c, 5, 77, 127
2, 528575, Note_on_c, 5, 77, 127
2, 528592, Note_off_c, 4, 76, 127
2, 528906, Note_off_c, 5, 77, 127
2, 528906, Note_off_c, 2, 62, 127
2, 528906, Note_off_c, 11, 70, 127
2, 528906, Note_off_c, 7, 67, 127
2, 528908, Note_on_c, 7, 79, 127
2, 528908, Note_on_c, 10, 69, 127
2, 528908, Note_on_c, 4, 64, 127
2, 528908, Note_on_c, 1, 61, 127
2, 529324, Note_off_c, 7, 79, 127
2, 529324, Note_on_c, 5, 77, 127
2, 529406, Note_off_c, 5, 77, 127
2, 529408, Note_on_c, 7, 79, 127
2, 529490, Note_off_c, 7, 79, 127
2, 529492, Note_on_c, 10, 81, 127
2, 529568, Note_off_c, 10, 69, 127
2, 529573, Note_off_c, 10, 81, 127
2, 529573, Note_off_c, 1, 61, 127
2, 529573, Note_off_c, 4, 64, 127
2, 529575, Note_on_c, 7, 79, 127
2, 529575, Note_on_c, 10, 69, 127
2, 529575, Note_on_c, 0, 60, 127
2, 529575, Note_on_c, 2, 62, 127
2, 529684, Note_off_c, 7, 79, 127
2, 529686, Note_on_c, 6, 78, 127
2, 529750, Note_on_c, 7, 79, 127
2, 529757, Note_off_c, 6, 78, 127
2, 529814, Note_on_c, 6, 78, 127
2, 529821, Note_off_c, 7, 79, 127
2, 529878, Note_on_c, 7, 79, 127
2, 529885, Note_off_c, 6, 78, 127
2, 529942, Note_on_c, 6, 78, 127
2, 529949, Note_off_c, 7, 79, 127
2, 530565, Note_off_c, 6, 78, 127
2, 530574, Note_on_c, 6, 78, 127
2, 530905, Note_off_c, 6, 78, 127
2, 530905, Note_off_c, 2, 62, 127
2, 530905, Note_off_c, 0, 60, 127
2, 530905, Note_off_c, 10, 69, 127
2, 530907, Note_on_c, 7, 79, 127
2, 530907, Note_on_c, 7, 67, 127
2, 530907, Note_on_c, 2, 74, 127
2, 530907, Note_on_c, 2, 62, 127
2, 530907, Note_on_c, 11, 58, 127
2, 531572, Note_off_c, 11, 58, 127
2, 531572, Note_off_c, 2, 62, 127
2, 531572, Note_off_c, 2, 74, 127
2, 531572, Note_off_c, 7, 67, 127
2, 531572, Note_off_c, 7, 79, 127
2, 531574, Note_on_c, 7, 67, 127
2, 531574, Note_on_c, 11, 70, 127
2, 531574, Note_on_c, 4, 76, 127
2, 531574, Note_on_c, 7, 55, 127
2, 532239, Note_off_c, 7, 55, 127
2, 532239, Note_off_c, 4, 76, 127
2, 532239, Note_off_c, 11, 70, 127
2, 532239, Note_off_c, 7, 67, 127
2, 532241, Note_on_c, 2, 74, 127
2, 532241, Note_on_c, 5, 65, 127
2, 532241, Note_on_c, 12, 71, 127
2, 532241, Note_on_c, 8, 56, 127
2, 532406, Note_off_c, 2, 74, 127
2, 532408, Note_on_c, 1, 73, 127
2, 532573, Note_off_c, 1, 73, 127
2, 532575, Note_on_c, 2, 74, 127
2, 532901, Note_off_c, 12, 71, 127
2, 532901, Note_off_c, 5, 65, 127
2, 532906, Note_off_c, 2, 74, 127
2, 532906, Note_off_c, 8, 56, 127
2, 532908, Note_on_c, 10, 69, 127
2, 532908, Note_on_c, 1, 73, 127
2, 532908, Note_on_c, 4, 64, 127
2, 532908, Note_on_c, 10, 57, 127
2, 533573, Note_off_c, 4, 64, 127
2, 533575, Note_on_c, 2, 62, 127
2, 533906, Note_off_c, 1, 73, 127
2, 533908, Note_on_c, 12, 71, 127
2, 534239, Note_off_c, 12, 71, 127
2, 534239, Note_off_c, 2, 62, 127
2, 534239, Note_off_c, 10, 57, 127
2, 534239, Note_off_c, 10, 69, 127
2, 534241, Note_on_c, 4, 64, 127
2, 534241, Note_on_c, 10, 69, 127
2, 534241, Note_on_c, 7, 55, 127
2, 534241, Note_on_c, 1, 61, 127
2, 534841, Note_off_c, 1, 61, 127
2, 534841, Note_off_c, 10, 69, 127
2, 534841, Note_off_c, 4, 64, 127
2, 534906, Note_off_c, 7, 55, 127
2, 534908, Note_on_c, 0, 72, 127
2, 534908, Note_on_c, 10, 69, 127
2, 534908, Note_on_c, 2, 62, 127
2, 534908, Note_on_c, 6, 54, 127
2, 535573, Note_off_c, 6, 54, 127
2, 535573, Note_off_c, 2, 62, 127
2, 535573, Note_off_c, 10, 69, 127
2, 535573, Note_off_c, 0, 72, 127
2, 535575, Note_on_c, 7, 67, 127
2, 535575, Note_on_c, 5, 53, 127
2, 535575, Note_on_c, 2, 62, 127
2, 535575, Note_on_c, 0, 72, 127
2, 535731, Note_off_c, 0, 72, 127
2, 535736, Note_on_c, 12, 71, 127
2, 535804, Note_on_c, 0, 72, 127
2, 535807, Note_off_c, 12, 71, 127
2, 535871, Note_on_c, 12, 71, 127
2, 535874, Note_off_c, 0, 72, 127
2, 535938, Note_on_c, 0, 72, 127
2, 535941, Note_off_c, 12, 71, 127
2, 536005, Note_on_c, 12, 71, 127
2, 536008, Note_off_c, 0, 72, 127
2, 536572, Note_off_c, 12, 71, 127
2, 536572, Note_on_c, 1, 73, 127
2, 536903, Note_off_c, 1, 73, 127
2, 536903, Note_off_c, 2, 62, 127
2, 536903, Note_off_c, 5, 53, 127
2, 536903, Note_off_c, 7, 67, 127
2, 536905, Note_on_c, 2, 74, 127
2, 536905, Note_on_c, 8, 68, 127
2, 536905, Note_on_c, 4, 64, 127
2, 536905, Note_on_c, 4, 52, 127
2, 537236, Note_off_c, 2, 74, 127
2, 537238, Note_on_c, 4, 76, 127
2, 537564, Note_off_c, 8, 68, 127
2, 537569, Note_off_c, 4, 76, 127
2, 537569, Note_off_c, 4, 52, 127
2, 537571, Note_on_c, 2, 74, 127
2, 537571, Note_on_c, 10, 69, 127
2, 537571, Note_on_c, 7, 55, 127
2, 537736, Note_off_c, 2, 74, 127
2, 537738, Note_on_c, 1, 73, 127
2, 537820, Note_off_c, 1, 73, 127
2, 537822, Note_on_c, 2, 74, 127
2, 537904, Note_off_c, 2, 74, 127
2, 537906, Note_on_c, 1, 73, 127
2, 537988, Note_off_c, 1, 73, 127
2, 537990, Note_on_c, 2, 74, 127
2, 538072, Note_off_c, 2, 74, 127
2, 538074, Note_on_c, 1, 73, 127
2, 538239, Note_off_c, 7, 55, 127
2, 538239, Note_off_c, 10, 69, 127
2, 538239, Note_off_c, 4, 64, 127
2, 538241, Note_on_c, 7, 67, 127
2, 538241, Note_on_c, 2, 62, 127
2, 538241, Note_on_c, 11, 58, 127
2, 538560, Note_off_c, 1, 73, 127
2, 538574, Note_on_c, 2, 74, 127
2, 538900, Note_off_c, 7, 67, 127
2, 538905, Note_off_c, 2, 74, 127
2, 538905, Note_off_c, 11, 58, 127
2, 538905, Note_off_c, 2, 62, 127
2, 538907, Note_on_c, 4, 76, 127
2, 538907, Note_on_c, 11, 70, 127
2, 538907, Note_on_c, 7, 55, 127
2, 538907, Note_on_c, 1, 49, 127
2, 539072, Note_off_c, 4, 76, 127
2, 539074, Note_on_c, 5, 77, 127
2, 539239, Note_off_c, 5, 77, 127
2, 539241, Note_on_c, 4, 76, 127
2, 539406, Note_off_c, 4, 76, 127
2, 539408, Note_on_c, 5, 77, 127
2, 539568, Note_off_c, 11, 70, 127
2, 539573, Note_off_c, 5, 77, 127
2, 539573, Note_off_c, 1, 49, 127
2, 539573, Note_off_c, 7, 55, 127
2, 539575, Note_on_c, 7, 79, 127
2, 539575, Note_on_c, 10, 69, 127
2, 539575, Note_on_c, 2, 50, 127
2, 539575, Note_on_c, 2, 62, 127
2, 539740, Note_off_c, 7, 79, 127
2, 539742, Note_on_c, 5, 77, 127
2, 539824, Note_off_c, 5, 77, 127
2, 539826, Note_on_c, 7, 79, 127
2, 539908, Note_off_c, 7, 79, 127
2, 539910, Note_on_c, 5, 77, 127
2, 539992, Note_off_c, 5, 77, 127
2, 539994, Note_on_c, 7, 79, 127
2, 540076, Note_off_c, 7, 79, 127
2, 540078, Note_on_c, 5, 77, 127
2, 540160, Note_off_c, 5, 77, 127
2, 540162, Note_on_c, 7, 79, 127
2, 540244, Note_off_c, 7, 79, 127
2, 540244, Note_off_c, 2, 62, 127
2, 540244, Note_off_c, 10, 69, 127
2, 540246, Note_on_c, 5, 77, 127
2, 540246, Note_on_c, 8, 68, 127
2, 540246, Note_on_c, 12, 59, 127
2, 540328, Note_off_c, 5, 77, 127
2, 540330, Note_on_c, 7, 79, 127
2, 540412, Note_off_c, 7, 79, 127
2, 540414, Note_on_c, 5, 77, 127
2, 540579, Note_off_c, 5, 77, 127
2, 540581, Note_on_c, 4, 76, 127
2, 540912, Note_off_c, 4, 76, 127
2, 540912, Note_off_c, 2, 50, 127
2, 540914, Note_on_c, 4, 76, 127
2, 540914, Note_on_c, 10, 57, 127
2, 541245, Note_off_c, 12, 59, 127
2, 541245, Note_off_c, 8, 68, 127
2, 541247, Note_on_c, 8, 68, 127
2, 541247, Note_on_c, 12, 59, 127
2, 541578, Note_off_c, 12, 59, 127
2, 541578, Note_off_c, 8, 68, 127
2, 541580, Note_on_c, 10, 69, 127
2, 541580, Note_on_c, 1, 61, 127
2, 542814, Note_off_c, 4, 76, 127
2, 542880, Note_off_c, 1, 61, 127
2, 542880, Note_off_c, 10, 69, 127
2, 542909, Note_off_c, 10, 57, 127
2, 542913, Note_on_c, 4, 76, 127
2, 542913, Note_on_c, 10, 69, 127
2, 542913, Note_on_c, 1, 61, 127
2, 542913, Note_on_c, 10, 57, 127
2, 543578, Note_off_c, 10, 57, 127
2, 543578, Note_off_c, 1, 61, 127
2, 543578, Note_off_c, 10, 69, 127
2, 543578, Note_off_c, 4, 76, 127
2, 543580, Note_on_c, 11, 70, 127
2, 543580, Note_on_c, 4, 76, 127
2, 543580, Note_on_c, 1, 61, 127
2, 543580, Note_on_c, 10, 57, 127
2, 543736, Note_off_c, 10, 57, 127
2, 543743, Note_on_c, 7, 55, 127
2, 543814, Note_off_c, 7, 55, 127
2, 543814, Note_on_c, 10, 57, 127
2, 543885, Note_off_c, 10, 57, 127
2, 543885, Note_on_c, 7, 55, 127
2, 543956, Note_off_c, 7, 55, 127
2, 543956, Note_on_c, 10, 57, 127
2, 544027, Note_off_c, 10, 57, 127
2, 544027, Note_on_c, 7, 55, 127
2, 544098, Note_off_c, 7, 55, 127
2, 544098, Note_on_c, 10, 57, 127
2, 544169, Note_off_c, 10, 57, 127
2, 544169, Note_on_c, 7, 55, 127
2, 544569, Note_off_c, 7, 55, 127
2, 544577, Note_off_c, 11, 70, 127
2, 544579, Note_on_c, 10, 69, 127
2, 544579, Note_on_c, 10, 57, 127
2, 544910, Note_off_c, 10, 57, 127
2, 544910, Note_off_c, 10, 69, 127
2, 544912, Note_on_c, 7, 67, 127
2, 544912, Note_on_c, 11, 58, 127
2, 545077, Note_off_c, 11, 58, 127
2, 545079, Note_on_c, 7, 55, 127
2, 545244, Note_off_c, 7, 55, 127
2, 545246, Note_on_c, 10, 57, 127
2, 545576, Note_off_c, 1, 61, 127
2, 545576, Note_off_c, 4, 76, 127
2, 545578, Note_off_c, 10, 57, 127
2, 545578, Note_off_c, 7, 67, 127
2, 545580, Note_on_c, 3, 75, 127
2, 545580, Note_on_c, 5, 65, 127
2, 545580, Note_on_c, 11, 58, 127
2, 545580, Note_on_c, 0, 60, 127
2, 545745, Note_off_c, 11, 58, 127
2, 545747, Note_on_c, 10, 57, 127
2, 545829, Note_off_c, 10, 57, 127
2, 545831, Note_on_c, 11, 58, 127
2, 545913, Note_off_c, 11, 58, 127
2, 545915, Note_on_c, 10, 57, 127
2, 545997, Note_off_c, 10, 57, 127
2, 545999, Note_on_c, 11, 58, 127
2, 546081, Note_off_c, 11, 58, 127
2, 546083, Note_on_c, 10, 57, 127
2, 546165, Note_off_c, 10, 57, 127
2, 546167, Note_on_c, 11, 58, 127
2, 546249, Note_off_c, 11, 58, 127
2, 546251, Note_on_c, 10, 57, 127
2, 546581, Note_off_c, 10, 57, 127
2, 546584, Note_on_c, 10, 57, 127
2, 546915, Note_off_c, 10, 57, 127
2, 546915, Note_off_c, 0, 60, 127
2, 546915, Note_off_c, 3, 75, 127
2, 546917, Note_on_c, 2, 74, 127
2, 546917, Note_on_c, 11, 58, 127
2, 547248, Note_off_c, 11, 58, 127
2, 547250, Note_on_c, 10, 57, 127
2, 547580, Note_off_c, 5, 65, 127
2, 547582, Note_off_c, 10, 57, 127
2, 547582, Note_off_c, 2, 74, 127
2, 547584, Note_on_c, 7, 67, 127
2, 547584, Note_on_c, 4, 76, 127
2, 547584, Note_on_c, 7, 55, 127
2, 547584, Note_on_c, 11, 58, 127
2, 548249, Note_off_c, 11, 58, 127
2, 548249, Note_off_c, 7, 55, 127
2, 548249, Note_off_c, 7, 67, 127
2, 548251, Note_on_c, 10, 69, 127
2, 548251, Note_on_c, 0, 60, 127
2, 548251, Note_on_c, 5, 53, 127
2, 548582, Note_off_c, 4, 76, 127
2, 548584, Note_on_c, 5, 77, 127
2, 548910, Note_off_c, 10, 69, 127
2, 548915, Note_off_c, 5, 77, 127
2, 548915, Note_off_c, 5, 53, 127
2, 548915, Note_off_c, 0, 60, 127
2, 548917, Note_on_c, 7, 67, 127
2, 548917, Note_on_c, 0, 60, 127
2, 548917, Note_on_c, 5, 77, 127
2, 549104, Note_off_c, 5, 77, 127
2, 549114, Note_on_c, 4, 76, 127
2, 549185, Note_off_c, 4, 76, 127
2, 549188, Note_on_c, 5, 77, 127
2, 549259, Note_off_c, 5, 77, 127
2, 549262, Note_on_c, 4, 76, 127
2, 549333, Note_off_c, 4, 76, 127
2, 549336, Note_on_c, 5, 77, 127
2, 549407, Note_off_c, 5, 77, 127
2, 549410, Note_on_c, 4, 76, 127
2, 549580, Note_on_c, 2, 62, 127
2, 549913, Note_on_c, 2, 74, 127
2, 549916, Note_off_c, 4, 76, 127
2, 550244, Note_off_c, 2, 74, 127
2, 550244, Note_off_c, 2, 62, 127
2, 550244, Note_off_c, 0, 60, 127
2, 550244, Note_off_c, 7, 67, 127
2, 550246, Note_on_c, 7, 67, 127
2, 550246, Note_on_c, 0, 72, 127
2, 550246, Note_on_c, 4, 64, 127
2, 550246, Note_on_c, 11, 58, 127
2, 550893, Note_off_c, 4, 64, 127
2, 550893, Note_off_c, 0, 72, 127
2, 550893, Note_off_c, 7, 67, 127
2, 550911, Note_off_c, 11, 58, 127
2, 550913, Note_on_c, 0, 72, 127
2, 550913, Note_on_c, 5, 77, 127
2, 550913, Note_on_c, 5, 65, 127
2, 550913, Note_on_c, 10, 57, 127
2, 551578, Note_off_c, 10, 57, 127
2, 551578, Note_off_c, 5, 77, 127
2, 551580, Note_on_c, 7, 79, 127
2, 551580, Note_on_c, 7, 55, 127
2, 552245, Note_off_c, 7, 55, 127
2, 552247, Note_on_c, 5, 53, 127
2, 552578, Note_off_c, 7, 79, 127
2, 552580, Note_on_c, 10, 81, 127
2, 552910, Note_off_c, 0, 72, 127
2, 552912, Note_off_c, 10, 81, 127
2, 552912, Note_off_c, 5, 53, 127
2, 552914, Note_on_c, 2, 74, 127
2, 552914, Note_on_c, 10, 81, 127
2, 552914, Note_on_c, 11, 58, 127
2, 553245, Note_off_c, 10, 81, 127
2, 553247, Note_on_c, 7, 79, 127
2, 553573, Note_off_c, 2, 74, 127
2, 553578, Note_off_c, 7, 79, 127
2, 553578, Note_off_c, 11, 58, 127
2, 553580, Note_on_c, 0, 72, 127
2, 553580, Note_on_c, 7, 79, 127
2, 553580, Note_on_c, 10, 57, 127
2, 553911, Note_off_c, 7, 79, 127
2, 553913, Note_on_c, 10, 81, 127
2, 554239, Note_off_c, 0, 72, 127
2, 554244, Note_off_c, 10, 81, 127
2, 554244, Note_off_c, 10, 57, 127
2, 554246, Note_off_c, 5, 65, 127
2, 554246, Note_on_c, 10, 81, 127
2, 554246, Note_on_c, 11, 70, 127
2, 554246, Note_on_c, 7, 67, 127
2, 554246, Note_on_c, 7, 55, 127
2, 554411, Note_off_c, 10, 81, 127
2, 554413, Note_on_c, 11, 82, 127
2, 554578, Note_off_c, 11, 82, 127
2, 554580, Note_on_c, 4, 76, 127
2, 554906, Note_off_c, 11, 70, 127
2, 554911, Note_off_c, 4, 76, 127
2, 554911, Note_off_c, 7, 55, 127
2, 554911, Note_off_c, 7, 67, 127
2, 554913, Note_on_c, 10, 69, 127
2, 554913, Note_on_c, 5, 77, 127
2, 554913, Note_on_c, 10, 57, 127
2, 554913, Note_on_c, 0, 60, 127
2, 555244, Note_off_c, 0, 60, 127
2, 555244, Note_off_c, 10, 57, 127
2, 555244, Note_off_c, 5, 77, 127
2, 555246, Note_on_c, 2, 74, 127
2, 555246, Note_on_c, 11, 58, 127
2, 555572, Note_off_c, 10, 69, 127
2, 555577, Note_off_c, 11, 58, 127
2, 555577, Note_off_c, 2, 74, 127
2, 555579, Note_on_c, 2, 74, 127
2, 555579, Note_on_c, 7, 67, 127
2, 555579, Note_on_c, 0, 60, 127
2, 555718, Note_off_c, 2, 74, 127
2, 555718, Note_on_c, 4, 76, 127
2, 555791, Note_on_c, 5, 77, 127
2, 555796, Note_off_c, 4, 76, 127
2, 555864, Note_on_c, 4, 76, 127
2, 555869, Note_off_c, 5, 77, 127
2, 555911, Note_off_c, 7, 67, 127
2, 555913, Note_on_c, 10, 69, 127
2, 555937, Note_on_c, 5, 77, 127
2, 555942, Note_off_c, 4, 76, 127
2, 556010, Note_on_c, 4, 76, 127
2, 556015, Note_off_c, 5, 77, 127
2, 556083, Note_on_c, 5, 77, 127
2, 556088, Note_off_c, 4, 76, 127
2, 556156, Note_on_c, 4, 76, 127
2, 556161, Note_off_c, 5, 77, 127
2, 556244, Note_off_c, 10, 69, 127
2, 556246, Note_on_c, 11, 70, 127
2, 556246, Note_on_c, 0, 48, 127
2, 556579, Note_on_c, 5, 77, 127
2, 556582, Note_off_c, 4, 76, 127
2, 556910, Note_off_c, 5, 77, 127
2, 556910, Note_off_c, 0, 48, 127
2, 556912, Note_on_c, 5, 77, 127
2, 556912, Note_on_c, 5, 53, 127
2, 557243, Note_off_c, 11, 70, 127
2, 557245, Note_off_c, 0, 60, 127
2, 557245, Note_on_c, 7, 67, 127
2, 557245, Note_on_c, 11, 58, 127
2, 557576, Note_off_c, 11, 58, 127
2, 557576, Note_off_c, 7, 67, 127
2, 557578, Note_on_c, 10, 69, 127
2, 557578, Note_on_c, 0, 60, 127
2, 558812, Note_off_c, 5, 77, 127
2, 558878, Note_off_c, 0, 60, 127
2, 558878, Note_off_c, 10, 69, 127
2, 558907, Note_off_c, 5, 53, 127
2, 558911, Note_on_c, 2, 74, 127
2, 558911, Note_on_c, 10, 81, 127
2, 558911, Note_on_c, 2, 62, 127
2, 558911, Note_on_c, 6, 54, 127
2, 559576, Note_off_c, 6, 54, 127
2, 559576, Note_off_c, 10, 81, 127
2, 559578, Note_on_c, 7, 79, 127
2, 559578, Note_on_c, 4, 52, 127
2, 559909, Note_off_c, 7, 79, 127
2, 559911, Note_on_c, 6, 78, 127
2, 560242, Note_off_c, 6, 78, 127
2, 560242, Note_off_c, 4, 52, 127
2, 560242, Note_off_c, 2, 74, 127
2, 560244, Note_on_c, 4, 76, 127
2, 560244, Note_on_c, 0, 72, 127
2, 560244, Note_on_c, 6, 54, 127
2, 560575, Note_off_c, 4, 76, 127
2, 560577, Note_on_c, 2, 74, 127
2, 560903, Note_off_c, 0, 72, 127
2, 560908, Note_off_c, 2, 74, 127
2, 560908, Note_off_c, 6, 54, 127
2, 560910, Note_on_c, 11, 82, 127
2, 560910, Note_on_c, 11, 70, 127
2, 560910, Note_on_c, 7, 55, 127
2, 561241, Note_off_c, 11, 82, 127
2, 561243, Note_on_c, 7, 79, 127
2, 561574, Note_off_c, 7, 79, 127
2, 561574, Note_off_c, 7, 55, 127
2, 561576, Note_on_c, 4, 76, 127
2, 561576, Note_on_c, 10, 57, 127
2, 561907, Note_off_c, 11, 70, 127
2, 561909, Note_on_c, 10, 69, 127
2, 562240, Note_off_c, 10, 69, 127
2, 562240, Note_off_c, 10, 57, 127
2, 562242, Note_on_c, 7, 67, 127
2, 562242, Note_on_c, 11, 58, 127
2, 562573, Note_off_c, 4, 76, 127
2, 562575, Note_on_c, 5, 77, 127
2, 562901, Note_off_c, 7, 67, 127
2, 562901, Note_off_c, 2, 62, 127
2, 562906, Note_off_c, 5, 77, 127
2, 562906, Note_off_c, 11, 58, 127
2, 562908, Note_on_c, 10, 69, 127
2, 562908, Note_on_c, 7, 79, 127
2, 562908, Note_on_c, 10, 57, 127
2, 562908, Note_on_c, 1, 61, 127
2, 563239, Note_off_c, 7, 79, 127
2, 563241, Note_on_c, 4, 76, 127
2, 563567, Note_off_c, 10, 69, 127
2, 563572, Note_off_c, 4, 76, 127
2, 563572, Note_off_c, 1, 61, 127
2, 563572, Note_off_c, 10, 57, 127
2, 563574, Note_on_c, 10, 69, 127
2, 563574, Note_on_c, 2, 74, 127
2, 563574, Note_on_c, 4, 64, 127
2, 563574, Note_on_c, 7, 55, 127
2, 563701, Note_off_c, 2, 74, 127
2, 563703, Note_on_c, 1, 73, 127
2, 563776, Note_on_c, 2, 74, 127
2, 563781, Note_off_c, 1, 73, 127
2, 563849, Note_on_c, 1, 73, 127
2, 563854, Note_off_c, 2, 74, 127
2, 563906, Note_off_c, 7, 55, 127
2, 563908, Note_on_c, 5, 53, 127
2, 564234, Note_off_c, 4, 64, 127
2, 564239, Note_off_c, 5, 53, 127
2, 564239, Note_off_c, 10, 69, 127
2, 564241, Note_on_c, 5, 65, 127
2, 564241, Note_on_c, 4, 52, 127
2, 564241, Note_on_c, 10, 57, 127
2, 564572, Note_off_c, 4, 52, 127
2, 564572, Note_off_c, 1, 73, 127
2, 564574, Note_on_c, 2, 74, 127
2, 564574, Note_on_c, 2, 50, 127
2, 564900, Note_off_c, 5, 65, 127
2, 564905, Note_off_c, 2, 50, 127
2, 564905, Note_off_c, 2, 74, 127
2, 564907, Note_on_c, 4, 64, 127
2, 564907, Note_on_c, 4, 76, 127
2, 564907, Note_on_c, 1, 49, 127
2, 565238, Note_off_c, 4, 76, 127
2, 565240, Note_on_c, 1, 73, 127
2, 565571, Note_off_c, 1, 73, 127
2, 565573, Note_on_c, 10, 69, 127
2, 565906, Note_off_c, 10, 57, 127
2, 565906, Note_on_c, 11, 58, 127
2, 566237, Note_off_c, 11, 58, 127
2, 566239, Note_on_c, 10, 57, 127
2, 566570, Note_off_c, 10, 57, 127
2, 566572, Note_on_c, 7, 55, 127
2, 566902, Note_off_c, 1, 49, 127
2, 566902, Note_off_c, 4, 64, 127
2, 566904, Note_off_c, 7, 55, 127
2, 566906, Note_on_c, 2, 62, 127
2, 566906, Note_on_c, 0, 48, 127
2, 566906, Note_on_c, 6, 54, 127
2, 567239, Note_off_c, 10, 69, 127
2, 567239, Note_on_c, 12, 71, 127
2, 567570, Note_off_c, 12, 71, 127
2, 567572, Note_on_c, 0, 72, 127
2, 567903, Note_off_c, 0, 72, 127
2, 567905, Note_on_c, 10, 69, 127
2, 568236, Note_off_c, 10, 69, 127
2, 568236, Note_off_c, 6, 54, 127
2, 568236, Note_off_c, 0, 48, 127
2, 568238, Note_on_c, 12, 71, 127
2, 568238, Note_on_c, 7, 55, 127
2, 568238, Note_on_c, 12, 47, 127
2, 568569, Note_off_c, 12, 71, 127
2, 568571, Note_off_c, 2, 62, 127
2, 568571, Note_on_c, 1, 73, 127
2, 568571, Note_on_c, 4, 64, 127
2, 568902, Note_off_c, 4, 64, 127
2, 568902, Note_off_c, 1, 73, 127
2, 568902, Note_off_c, 7, 55, 127
2, 568904, Note_on_c, 5, 65, 127
2, 568904, Note_on_c, 2, 74, 127
2, 568904, Note_on_c, 8, 56, 127
2, 569235, Note_off_c, 2, 74, 127
2, 569235, Note_off_c, 5, 65, 127
2, 569237, Note_on_c, 2, 62, 127
2, 569237, Note_on_c, 12, 71, 127
2, 569568, Note_off_c, 12, 71, 127
2, 569568, Note_off_c, 2, 62, 127
2, 569568, Note_off_c, 8, 56, 127
2, 569568, Note_off_c, 12, 47, 127
2, 569570, Note_on_c, 1, 73, 127
2, 569570, Note_on_c, 4, 64, 127
2, 569570, Note_on_c, 7, 55, 127
2, 569570, Note_on_c, 11, 46, 127
2, 569901, Note_off_c, 4, 64, 127
2, 569901, Note_off_c, 1, 73, 127
2, 569903, Note_on_c, 5, 65, 127
2, 569903, Note_on_c, 2, 74, 127
2, 570234, Note_off_c, 2, 74, 127
2, 570234, Note_off_c, 5, 65, 127
2, 570236, Note_on_c, 4, 76, 127
2, 570236, Note_on_c, 7, 67, 127
2, 570567, Note_off_c, 7, 67, 127
2, 570567, Note_off_c, 4, 76, 127
2, 570569, Note_on_c, 1, 73, 127
2, 570569, Note_on_c, 4, 64, 127
2, 570900, Note_off_c, 4, 64, 127
2, 570900, Note_off_c, 1, 73, 127
2, 570900, Note_off_c, 11, 46, 127
2, 570900, Note_off_c, 7, 55, 127
2, 570902, Note_on_c, 5, 65, 127
2, 570902, Note_on_c, 2, 74, 127
2, 570902, Note_on_c, 10, 57, 127
2, 570902, Note_on_c, 10, 45, 127
2, 571267, Note_on_c, 2, 50, 127
2, 571267, Note_on_c, 7, 43, 127
2, 571270, Note_off_c, 10, 57, 127
2, 571273, Note_off_c, 10, 45, 127
2, 571566, Note_off_c, 5, 65, 127
2, 571632, Note_off_c, 7, 43, 127
2, 571632, Note_on_c, 11, 70, 127
2, 571632, Note_on_c, 10, 45, 127
2, 571737, Note_off_c, 2, 74, 127
2, 571853, Note_on_c, 4, 76, 127
2, 571943, Note_off_c, 4, 76, 127
2, 571947, Note_on_c, 2, 74, 127
2, 572037, Note_off_c, 2, 74, 127
2, 572041, Note_on_c, 1, 73, 127
2, 572131, Note_off_c, 1, 73, 127
2, 572135, Note_on_c, 2, 74, 127
2, 572225, Note_off_c, 2, 74, 127
2, 572229, Note_on_c, 4, 76, 127
2, 572316, Note_off_c, 2, 50, 127
2, 572324, Note_off_c, 11, 70, 127
2, 572325, Note_off_c, 4, 76, 127
2, 572327, Note_on_c, 10, 69, 127
2, 572327, Note_on_c, 5, 77, 127
2, 572327, Note_on_c, 12, 47, 127
2, 572448, Note_on_c, 4, 76, 127
2, 572457, Note_off_c, 5, 77, 127
2, 572578, Note_off_c, 4, 76, 127
2, 572590, Note_on_c, 5, 77, 127
2, 572714, Note_on_c, 4, 76, 127
2, 572714, Note_on_c, 7, 67, 127
2, 572714, Note_on_c, 1, 49, 127
2, 572720, Note_off_c, 5, 77, 127
2, 572727, Note_off_c, 12, 47, 127
2, 572727, Note_off_c, 10, 69, 127
2, 572984, Note_on_c, 2, 74, 127
2, 572990, Note_off_c, 4, 76, 127
2, 573184, Note_off_c, 2, 74, 127
2, 573194, Note_off_c, 1, 49, 127
2, 573198, Note_off_c, 10, 45, 127
2, 573198, Note_on_c, 2, 38, 127
2, 573198, Note_on_c, 2, 50, 127
2, 573198, Note_on_c, 2, 74, 127
2, 573608, Note_off_c, 7, 67, 127
2, 573621, Note_on_c, 4, 64, 127
2, 574037, Note_off_c, 4, 64, 127
2, 574076, Note_on_c, 5, 65, 127
2, 575538, Note_off_c, 2, 74, 127
2, 575540, Note_off_c, 2, 50, 127
2, 575540, Note_off_c, 2, 38, 127
2, 575636, Note_off_c, 5, 65, 127
2, 575638, Note_on_c, 2, 50, 127
2, 575638, Note_on_c, 2, 62, 127
2, 575638, Note_on_c, 5, 77, 127
2, 575638, Note_on_c, 10, 69, 127
2, 575783, Note_on_c, 1, 73, 127
2, 575927, Note_off_c, 1, 73, 127
2, 575929, Note_on_c, 2, 74, 127
2, 576062, Note_off_c, 10, 69, 127
2, 576074, Note_on_c, 10, 69, 127
2, 576213, Note_off_c, 5, 77, 127
2, 576216, Note_off_c, 2, 74, 127
2, 576218, Note_off_c, 10, 69, 127
2, 576218, Note_off_c, 2, 62, 127
2, 576218, Note_off_c, 2, 50, 127
2, 576220, Note_on_c, 2, 62, 127
2, 576220, Note_on_c, 4, 76, 127
2, 576220, Note_on_c, 11, 70, 127
2, 576365, Note_on_c, 5, 65, 127
2, 576509, Note_off_c, 5, 65, 127
2, 576511, Note_on_c, 7, 67, 127
2, 576644, Note_off_c, 2, 62, 127
2, 576656, Note_on_c, 2, 62, 127
2, 576801, Note_on_c, 4, 64, 127
2, 576946, Note_off_c, 4, 76, 127
2, 576946, Note_on_c, 7, 79, 127
2, 577090, Note_off_c, 7, 79, 127
2, 577092, Note_on_c, 5, 77, 127
2, 577236, Note_off_c, 5, 77, 127
2, 577238, Note_on_c, 10, 81, 127
2, 577382, Note_off_c, 10, 81, 127
2, 577382, Note_off_c, 4, 64, 127
2, 577382, Note_off_c, 7, 67, 127
2, 577382, Note_off_c, 11, 70, 127
2, 577384, Note_off_c, 2, 62, 127
2, 577384, Note_on_c, 4, 64, 127
2, 577384, Note_on_c, 1, 61, 127
2, 577384, Note_on_c, 7, 79, 127
2, 577384, Note_on_c, 10, 69, 127
2, 577528, Note_off_c, 7, 79, 127
2, 577530, Note_on_c, 11, 82, 127
2, 577674, Note_off_c, 11, 82, 127
2, 577676, Note_on_c, 10, 81, 127
2, 577820, Note_off_c, 10, 81, 127
2, 577822, Note_on_c, 7, 79, 127
2, 577961, Note_off_c, 10, 69, 127
2, 577966, Note_off_c, 7, 79, 127
2, 577966, Note_off_c, 1, 61, 127
2, 577966, Note_off_c, 4, 64, 127
2, 577968, Note_on_c, 0, 60, 127
2, 577968, Note_on_c, 6, 78, 127
2, 578113, Note_on_c, 2, 62, 127
2, 578258, Note_on_c, 6, 66, 127
2, 578403, Note_on_c, 7, 67, 127
2, 578547, Note_off_c, 7, 67, 127
2, 578547, Note_off_c, 6, 78, 127
2, 578549, Note_on_c, 10, 69, 127
2, 578694, Note_on_c, 0, 72, 127
2, 578838, Note_off_c, 0, 72, 127
2, 578840, Note_on_c, 2, 74, 127
2, 578985, Note_on_c, 6, 78, 127
2, 579124, Note_off_c, 10, 69, 127
2, 579127, Note_off_c, 2, 74, 127
2, 579129, Note_off_c, 6, 78, 127
2, 579129, Note_off_c, 6, 66, 127
2, 579129, Note_off_c, 0, 60, 127
2, 579131, Note_on_c, 11, 58, 127
2, 579131, Note_on_c, 7, 79, 127
2, 579276, Note_on_c, 1, 73, 127
2, 579420, Note_off_c, 1, 73, 127
2, 579422, Note_on_c, 2, 74, 127
2, 579566, Note_off_c, 2, 74, 127
2, 579568, Note_off_c, 2, 62, 127
2, 579568, Note_on_c, 10, 69, 127
2, 579707, Note_off_c, 7, 79, 127
2, 579712, Note_off_c, 10, 69, 127
2, 579712, Note_off_c, 11, 58, 127
2, 579714, Note_on_c, 7, 55, 127
2, 579714, Note_on_c, 4, 76, 127
2, 579714, Note_on_c, 11, 70, 127
2, 579859, Note_on_c, 6, 66, 127
2, 580003, Note_off_c, 6, 66, 127
2, 580005, Note_on_c, 7, 67, 127
2, 580149, Note_off_c, 7, 67, 127
2, 580151, Note_on_c, 2, 62, 127
2, 580290, Note_off_c, 7, 55, 127
2, 580295, Note_off_c, 2, 62, 127
2, 580295, Note_off_c, 11, 70, 127
2, 580297, Note_on_c, 8, 56, 127
2, 580297, Note_on_c, 4, 64, 127
2, 580297, Note_on_c, 12, 71, 127
2, 580442, Note_off_c, 4, 76, 127
2, 580442, Note_on_c, 2, 74, 127
2, 580586, Note_off_c, 2, 74, 127
2, 580588, Note_on_c, 1, 73, 127
2, 580732, Note_off_c, 1, 73, 127
2, 580734, Note_on_c, 2, 74, 127
2, 580873, Note_off_c, 12, 71, 127
2, 580878, Note_off_c, 2, 74, 127
2, 580878, Note_off_c, 4, 64, 127
2, 580878, Note_off_c, 8, 56, 127
2, 580880, Note_on_c, 10, 57, 127
2, 580880, Note_on_c, 4, 64, 127
2, 580880, Note_on_c, 1, 73, 127
2, 580880, Note_on_c, 10, 69, 127
2, 581024, Note_off_c, 1, 73, 127
2, 581026, Note_on_c, 4, 76, 127
2, 581170, Note_off_c, 4, 76, 127
2, 581172, Note_on_c, 2, 74, 127
2, 581316, Note_off_c, 2, 74, 127
2, 581318, Note_on_c, 12, 71, 127
2, 581462, Note_off_c, 12, 71, 127
2, 581464, Note_on_c, 1, 73, 127
2, 581608, Note_off_c, 1, 73, 127
2, 581610, Note_off_c, 10, 69, 127
2, 581610, Note_on_c, 10, 69, 127
2, 581754, Note_off_c, 10, 69, 127
2, 581754, Note_off_c, 4, 64, 127
2, 581756, Note_on_c, 2, 62, 127
2, 581756, Note_on_c, 8, 68, 127
2, 581900, Note_off_c, 8, 68, 127
2, 581902, Note_on_c, 12, 71, 127
2, 582046, Note_off_c, 12, 71, 127
2, 582046, Note_off_c, 2, 62, 127
2, 582046, Note_off_c, 10, 57, 127
2, 582048, Note_on_c, 1, 61, 127
2, 582048, Note_on_c, 7, 55, 127
2, 582048, Note_on_c, 4, 64, 127
2, 582048, Note_on_c, 10, 69, 127
2, 582192, Note_off_c, 10, 69, 127
2, 582194, Note_on_c, 1, 73, 127
2, 582338, Note_off_c, 1, 73, 127
2, 582340, Note_on_c, 12, 71, 127
2, 582484, Note_off_c, 12, 71, 127
2, 582486, Note_on_c, 2, 74, 127
2, 582557, Note_off_c, 2, 74, 127
2, 582559, Note_on_c, 1, 73, 127
2, 582626, Note_off_c, 4, 64, 127
2, 582631, Note_off_c, 1, 73, 127
2, 582631, Note_off_c, 7, 55, 127
2, 582631, Note_off_c, 1, 61, 127
2, 582633, Note_on_c, 10, 57, 127
2, 582633, Note_on_c, 6, 54, 127
2, 582633, Note_on_c, 0, 72, 127
2, 582633, Note_on_c, 2, 62, 127
2, 582777, Note_off_c, 0, 72, 127
2, 582779, Note_on_c, 3, 75, 127
2, 582923, Note_off_c, 3, 75, 127
2, 582925, Note_on_c, 2, 74, 127
2, 583069, Note_off_c, 2, 74, 127
2, 583071, Note_on_c, 0, 72, 127
2, 583210, Note_off_c, 2, 62, 127
2, 583215, Note_off_c, 0, 72, 127
2, 583215, Note_off_c, 6, 54, 127
2, 583215, Note_off_c, 10, 57, 127
2, 583217, Note_on_c, 5, 53, 127
2, 583217, Note_on_c, 12, 71, 127
2, 583362, Note_on_c, 7, 55, 127
2, 583507, Note_on_c, 12, 59, 127
2, 583652, Note_on_c, 2, 62, 127
2, 583785, Note_off_c, 7, 55, 127
2, 583797, Note_on_c, 7, 67, 127
2, 583942, Note_off_c, 12, 71, 127
2, 583942, Note_on_c, 10, 69, 127
2, 584086, Note_off_c, 10, 69, 127
2, 584088, Note_on_c, 12, 71, 127
2, 584232, Note_off_c, 12, 71, 127
2, 584234, Note_on_c, 1, 73, 127
2, 584373, Note_off_c, 7, 67, 127
2, 584378, Note_off_c, 1, 73, 127
2, 584378, Note_off_c, 2, 62, 127
2, 584378, Note_off_c, 12, 59, 127
2, 584378, Note_off_c, 5, 53, 127
2, 584380, Note_on_c, 4, 52, 127
2, 584380, Note_on_c, 12, 59, 127
2, 584380, Note_on_c, 4, 64, 127
2, 584380, Note_on_c, 2, 74, 127
2, 584380, Note_on_c, 8, 68, 127
2, 584524, Note_off_c, 2, 74, 127
2, 584526, Note_on_c, 5, 77, 127
2, 584670, Note_off_c, 5, 77, 127
2, 584672, Note_on_c, 4, 76, 127
2, 584816, Note_off_c, 4, 76, 127
2, 584818, Note_on_c, 2, 74, 127
2, 584957, Note_off_c, 8, 68, 127
2, 584962, Note_off_c, 2, 74, 127
2, 584962, Note_off_c, 4, 64, 127
2, 584962, Note_off_c, 12, 59, 127
2, 584962, Note_off_c, 4, 52, 127
2, 584964, Note_on_c, 7, 55, 127
2, 584964, Note_on_c, 1, 73, 127
2, 585109, Note_on_c, 11, 70, 127
2, 585254, Note_on_c, 7, 67, 127
2, 585399, Note_on_c, 4, 64, 127
2, 585532, Note_off_c, 11, 70, 127
2, 585541, Note_off_c, 7, 67, 127
2, 585543, Note_off_c, 7, 55, 127
2, 585545, Note_on_c, 1, 61, 127
2, 585689, Note_off_c, 1, 61, 127
2, 585689, Note_off_c, 4, 64, 127
2, 585691, Note_off_c, 1, 73, 127
2, 585691, Note_on_c, 11, 58, 127
2, 585691, Note_on_c, 2, 74, 127
2, 585835, Note_off_c, 2, 74, 127
2, 585835, Note_off_c, 11, 58, 127
2, 585837, Note_on_c, 7, 55, 127
2, 585837, Note_on_c, 1, 73, 127
2, 585981, Note_off_c, 1, 73, 127
2, 585981, Note_off_c, 7, 55, 127
2, 585983, Note_on_c, 4, 52, 127
2, 585983, Note_on_c, 2, 74, 127
2, 586127, Note_off_c, 2, 74, 127
2, 586127, Note_off_c, 4, 52, 127
2, 586129, Note_on_c, 1, 49, 127
2, 586129, Note_on_c, 4, 76, 127
2, 586273, Note_off_c, 4, 76, 127
2, 586273, Note_off_c, 1, 49, 127
2, 586275, Note_on_c, 4, 52, 127
2, 586275, Note_on_c, 5, 77, 127
2, 586419, Note_off_c, 5, 77, 127
2, 586419, Note_off_c, 4, 52, 127
2, 586421, Note_on_c, 1, 49, 127
2, 586421, Note_on_c, 4, 76, 127
2, 586565, Note_off_c, 4, 76, 127
2, 586565, Note_off_c, 1, 49, 127
2, 586567, Note_on_c, 10, 45, 127
2, 586567, Note_on_c, 5, 77, 127
2, 586711, Note_off_c, 5, 77, 127
2, 586711, Note_off_c, 10, 45, 127
2, 586713, Note_on_c, 2, 50, 127
2, 586713, Note_on_c, 7, 79, 127
2, 586857, Note_off_c, 7, 79, 127
2, 586859, Note_on_c, 5, 53, 127
2, 586859, Note_on_c, 5, 77, 127
2, 586930, Note_off_c, 5, 77, 127
2, 586932, Note_on_c, 7, 79, 127
2, 587003, Note_off_c, 7, 79, 127
2, 587005, Note_on_c, 10, 57, 127
2, 587005, Note_on_c, 5, 77, 127
2, 587076, Note_off_c, 5, 77, 127
2, 587078, Note_on_c, 7, 79, 127
2, 587149, Note_off_c, 7, 79, 127
2, 587151, Note_on_c, 2, 62, 127
2, 587151, Note_on_c, 5, 77, 127
2, 587222, Note_off_c, 5, 77, 127
2, 587224, Note_on_c, 7, 79, 127
2, 587285, Note_off_c, 5, 53, 127
2, 587294, Note_off_c, 10, 57, 127
2, 587296, Note_off_c, 7, 79, 127
2, 587298, Note_on_c, 5, 65, 127
2, 587298, Note_on_c, 5, 77, 127
2, 587369, Note_off_c, 5, 77, 127
2, 587371, Note_on_c, 7, 79, 127
2, 587442, Note_off_c, 7, 79, 127
2, 587442, Note_off_c, 5, 65, 127
2, 587444, Note_on_c, 10, 69, 127
2, 587444, Note_on_c, 5, 77, 127
2, 587515, Note_off_c, 5, 77, 127
2, 587517, Note_on_c, 4, 76, 127
2, 587578, Note_off_c, 2, 62, 127
2, 587589, Note_off_c, 4, 76, 127
2, 587589, Note_off_c, 10, 69, 127
2, 587591, Note_on_c, 12, 59, 127
2, 587591, Note_on_c, 5, 77, 127
2, 587591, Note_on_c, 2, 74, 127
2, 587735, Note_off_c, 2, 74, 127
2, 587737, Note_on_c, 8, 68, 127
2, 587879, Note_off_c, 5, 77, 127
2, 587881, Note_off_c, 8, 68, 127
2, 587881, Note_off_c, 12, 59, 127
2, 587881, Note_off_c, 2, 50, 127
2, 587883, Note_on_c, 10, 57, 127
2, 587883, Note_on_c, 4, 76, 127
2, 588028, Note_on_c, 12, 59, 127
2, 588028, Note_on_c, 8, 68, 127
2, 588172, Note_off_c, 8, 68, 127
2, 588172, Note_off_c, 12, 59, 127
2, 588174, Note_on_c, 1, 61, 127
2, 588174, Note_on_c, 10, 69, 127
2, 588318, Note_off_c, 10, 69, 127
2, 588318, Note_off_c, 1, 61, 127
2, 588320, Note_on_c, 2, 62, 127
2, 588320, Note_on_c, 12, 71, 127
2, 588459, Note_off_c, 4, 76, 127
2, 588464, Note_off_c, 12, 71, 127
2, 588464, Note_off_c, 2, 62, 127
2, 588466, Note_on_c, 4, 64, 127
2, 588466, Note_on_c, 1, 73, 127
2, 588611, Note_on_c, 4, 76, 127
2, 588755, Note_off_c, 4, 76, 127
2, 588757, Note_on_c, 10, 81, 127
2, 588901, Note_off_c, 10, 81, 127
2, 588903, Note_on_c, 8, 80, 127
2, 589047, Note_off_c, 8, 80, 127
2, 589049, Note_on_c, 10, 81, 127
2, 589193, Note_on_c, 12, 71, 127
2, 589199, Note_off_c, 1, 73, 127
2, 589337, Note_off_c, 12, 71, 127
2, 589339, Note_on_c, 1, 73, 127
2, 589483, Note_off_c, 1, 73, 127
2, 589485, Note_on_c, 2, 74, 127
2, 589627, Note_off_c, 10, 57, 127
2, 589629, Note_off_c, 2, 74, 127
2, 589629, Note_off_c, 10, 81, 127
2, 589629, Note_off_c, 4, 64, 127
2, 589631, Note_on_c, 10, 57, 127
2, 589631, Note_on_c, 4, 76, 127
2, 589776, Note_on_c, 2, 62, 127
2, 589920, Note_off_c, 2, 62, 127
2, 589922, Note_on_c, 1, 61, 127
2, 590067, Note_on_c, 5, 65, 127
2, 590206, Note_off_c, 4, 76, 127
2, 590206, Note_off_c, 10, 57, 127
2, 590211, Note_off_c, 5, 65, 127
2, 590213, Note_on_c, 7, 55, 127
2, 590213, Note_on_c, 4, 64, 127
2, 590213, Note_on_c, 4, 76, 127
2, 590357, Note_off_c, 4, 64, 127
2, 590359, Note_on_c, 10, 69, 127
2, 590503, Note_off_c, 10, 69, 127
2, 590505, Note_on_c, 7, 67, 127
2, 590649, Note_off_c, 7, 67, 127
2, 590651, Note_on_c, 11, 70, 127
2, 590795, Note_off_c, 11, 70, 127
2, 590797, Note_on_c, 10, 69, 127
2, 590941, Note_off_c, 7, 55, 127
2, 590943, Note_on_c, 11, 58, 127
2, 591087, Note_off_c, 11, 58, 127
2, 591089, Note_on_c, 10, 57, 127
2, 591228, Note_off_c, 1, 61, 127
2, 591233, Note_off_c, 10, 57, 127
2, 591235, Note_on_c, 0, 60, 127
2, 591379, Note_off_c, 0, 60, 127
2, 591379, Note_off_c, 10, 69, 127
2, 591381, Note_on_c, 11, 58, 127
2, 591381, Note_on_c, 7, 67, 127
2, 591526, Note_on_c, 7, 55, 127
2, 591670, Note_off_c, 7, 55, 127
2, 591672, Note_on_c, 10, 57, 127
2, 591805, Note_off_c, 11, 58, 127
2, 591816, Note_off_c, 10, 57, 127
2, 591818, Note_on_c, 11, 58, 127
2, 591960, Note_off_c, 4, 76, 127
2, 591962, Note_off_c, 11, 58, 127
2, 591962, Note_off_c, 7, 67, 127
2, 591964, Note_on_c, 0, 60, 127
2, 591964, Note_on_c, 10, 57, 127
2, 591964, Note_on_c, 3, 75, 127
2, 592109, Note_on_c, 0, 72, 127
2, 592254, Note_on_c, 10, 69, 127
2, 592398, Note_off_c, 10, 69, 127
2, 592400, Note_on_c, 7, 67, 127
2, 592539, Note_off_c, 0, 60, 127
2, 592544, Note_off_c, 7, 67, 127
2, 592546, Note_on_c, 5, 65, 127
2, 592691, Note_on_c, 3, 63, 127
2, 592835, Note_off_c, 3, 63, 127
2, 592837, Note_on_c, 2, 62, 127
2, 592981, Note_off_c, 2, 62, 127
2, 592983, Note_on_c, 0, 60, 127
2, 593125, Note_off_c, 0, 72, 127
2, 593127, Note_off_c, 0, 60, 127
2, 593127, Note_off_c, 3, 75, 127
2, 593127, Note_off_c, 10, 57, 127
2, 593129, Note_on_c, 11, 58, 127
2, 593129, Note_on_c, 2, 74, 127
2, 593274, Note_off_c, 5, 65, 127
2, 593274, Note_on_c, 10, 69, 127
2, 593418, Note_off_c, 10, 69, 127
2, 593420, Note_on_c, 10, 57, 127
2, 593420, Note_on_c, 11, 70, 127
2, 593564, Note_off_c, 11, 70, 127
2, 593566, Note_on_c, 5, 65, 127
2, 593705, Note_off_c, 11, 58, 127
2, 593710, Note_off_c, 5, 65, 127
2, 593710, Note_off_c, 10, 57, 127
2, 593712, Note_on_c, 11, 58, 127
2, 593712, Note_on_c, 7, 55, 127
2, 593712, Note_on_c, 7, 67, 127
2, 593857, Note_off_c, 2, 74, 127
2, 593857, Note_on_c, 11, 70, 127
2, 594001, Note_off_c, 11, 70, 127
2, 594003, Note_on_c, 2, 74, 127
2, 594147, Note_off_c, 2, 74, 127
2, 594149, Note_on_c, 4, 76, 127
2, 594288, Note_off_c, 7, 67, 127
2, 594293, Note_off_c, 4, 76, 127
2, 594293, Note_off_c, 7, 55, 127
2, 594293, Note_off_c, 11, 58, 127
2, 594295, Note_on_c, 5, 53, 127
2, 594295, Note_on_c, 5, 77, 127
2, 594295, Note_on_c, 10, 69, 127
2, 594439, Note_off_c, 5, 77, 127
2, 594441, Note_on_c, 0, 60, 127
2, 594441, Note_on_c, 4, 76, 127
2, 594585, Note_off_c, 4, 76, 127
2, 594585, Note_off_c, 0, 60, 127
2, 594587, Note_on_c, 2, 62, 127
2, 594587, Note_on_c, 5, 77, 127
2, 594731, Note_off_c, 5, 77, 127
2, 594731, Note_off_c, 2, 62, 127
2, 594733, Note_on_c, 12, 59, 127
2, 594733, Note_on_c, 2, 74, 127
2, 594872, Note_off_c, 10, 69, 127
2, 594872, Note_off_c, 5, 53, 127
2, 594877, Note_off_c, 2, 74, 127
2, 594877, Note_off_c, 12, 59, 127
2, 594879, Note_on_c, 0, 60, 127
2, 594879, Note_on_c, 4, 76, 127
2, 594879, Note_on_c, 7, 67, 127
2, 595023, Note_off_c, 4, 76, 127
2, 595025, Note_on_c, 7, 79, 127
2, 595169, Note_off_c, 7, 79, 127
2, 595171, Note_on_c, 7, 55, 127
2, 595171, Note_on_c, 5, 77, 127
2, 595315, Note_off_c, 5, 77, 127
2, 595317, Note_on_c, 2, 74, 127
2, 595461, Note_off_c, 2, 74, 127
2, 595461, Note_off_c, 7, 55, 127
2, 595463, Note_on_c, 0, 48, 127
2, 595463, Note_on_c, 4, 76, 127
2, 595607, Note_off_c, 4, 76, 127
2, 595609, Note_on_c, 0, 72, 127
2, 595753, Note_off_c, 0, 72, 127
2, 595753, Note_off_c, 0, 48, 127
2, 595753, Note_off_c, 7, 67, 127
2, 595755, Note_on_c, 7, 55, 127
2, 595755, Note_on_c, 12, 71, 127
2, 595755, Note_on_c, 5, 65, 127
2, 595899, Note_off_c, 12, 71, 127
2, 595901, Note_on_c, 2, 74, 127
2, 596043, Note_off_c, 5, 65, 127
2, 596045, Note_off_c, 2, 74, 127
2, 596045, Note_off_c, 7, 55, 127
2, 596045, Note_off_c, 0, 60, 127
2, 596047, Note_on_c, 11, 58, 127
2, 596047, Note_on_c, 0, 60, 127
2, 596047, Note_on_c, 4, 64, 127
2, 596047, Note_on_c, 0, 72, 127
2, 596191, Note_off_c, 0, 72, 127
2, 596193, Note_on_c, 4, 76, 127
2, 596337, Note_off_c, 4, 76, 127
2, 596339, Note_on_c, 2, 74, 127
2, 596483, Note_off_c, 2, 74, 127
2, 596485, Note_on_c, 5, 77, 127
2, 596556, Note_off_c, 5, 77, 127
2, 596558, Note_on_c, 4, 76, 127
2, 596625, Note_off_c, 4, 64, 127
2, 596630, Note_off_c, 4, 76, 127
2, 596630, Note_off_c, 0, 60, 127
2, 596630, Note_off_c, 11, 58, 127
2, 596632, Note_on_c, 10, 57, 127
2, 596632, Note_on_c, 5, 77, 127
2, 596777, Note_on_c, 0, 60, 127
2, 596921, Note_off_c, 0, 60, 127
2, 596923, Note_on_c, 5, 65, 127
2, 597067, Note_off_c, 5, 65, 127
2, 597069, Note_on_c, 7, 67, 127
2, 597213, Note_off_c, 7, 67, 127
2, 597213, Note_off_c, 5, 77, 127
2, 597215, Note_on_c, 10, 69, 127
2, 597360, Note_on_c, 0, 72, 127
2, 597504, Note_off_c, 0, 72, 127
2, 597504, Note_off_c, 10, 57, 127
2, 597506, Note_on_c, 7, 55, 127
2, 597506, Note_on_c, 5, 77, 127
2, 597650, Note_off_c, 5, 77, 127
2, 597652, Note_on_c, 7, 79, 127
2, 597791, Note_off_c, 10, 69, 127
2, 597796, Note_off_c, 7, 79, 127
2, 597796, Note_off_c, 7, 55, 127
2, 597798, Note_on_c, 5, 53, 127
2, 597798, Note_on_c, 10, 81, 127
2, 597943, Note_on_c, 4, 76, 127
2, 598087, Note_off_c, 4, 76, 127
2, 598087, Note_off_c, 5, 53, 127
2, 598089, Note_on_c, 10, 57, 127
2, 598089, Note_on_c, 5, 77, 127
2, 598233, Note_off_c, 5, 77, 127
2, 598235, Note_on_c, 0, 72, 127
2, 598379, Note_off_c, 0, 72, 127
2, 598379, Note_off_c, 10, 57, 127
2, 598381, Note_on_c, 11, 58, 127
2, 598381, Note_on_c, 2, 74, 127
2, 598526, Note_on_c, 2, 62, 127
2, 598670, Note_off_c, 2, 62, 127
2, 598670, Note_off_c, 10, 81, 127
2, 598672, Note_on_c, 7, 67, 127
2, 598672, Note_on_c, 7, 79, 127
2, 598816, Note_off_c, 7, 67, 127
2, 598818, Note_on_c, 10, 69, 127
2, 598957, Note_off_c, 2, 74, 127
2, 598962, Note_off_c, 10, 69, 127
2, 598962, Note_off_c, 7, 79, 127
2, 598964, Note_on_c, 11, 70, 127
2, 599109, Note_on_c, 2, 74, 127
2, 599253, Note_off_c, 2, 74, 127
2, 599253, Note_off_c, 11, 58, 127
2, 599255, Note_on_c, 10, 57, 127
2, 599255, Note_on_c, 7, 79, 127
2, 599399, Note_off_c, 7, 79, 127
2, 599401, Note_on_c, 10, 81, 127
2, 599540, Note_off_c, 11, 70, 127
2, 599545, Note_off_c, 10, 81, 127
2, 599545, Note_off_c, 10, 57, 127
2, 599547, Note_on_c, 7, 55, 127
2, 599547, Note_on_c, 11, 82, 127
2, 599691, Note_off_c, 11, 82, 127
2, 599693, Note_on_c, 5, 77, 127
2, 599837, Note_off_c, 5, 77, 127
2, 599837, Note_off_c, 7, 55, 127
2, 599839, Note_on_c, 0, 60, 127
2, 599839, Note_on_c, 11, 58, 127
2, 599839, Note_on_c, 7, 79, 127
2, 599839, Note_on_c, 7, 67, 127
2, 599983, Note_off_c, 7, 79, 127
2, 599985, Note_on_c, 4, 76, 127
2, 600127, Note_off_c, 7, 67, 127
2, 600129, Note_off_c, 4, 76, 127
2, 600129, Note_off_c, 11, 58, 127
2, 600131, Note_on_c, 10, 57, 127
2, 600131, Note_on_c, 5, 77, 127
2, 600276, Note_on_c, 0, 72, 127
2, 600415, Note_off_c, 0, 60, 127
2, 600420, Note_off_c, 0, 72, 127
2, 600420, Note_off_c, 10, 57, 127
2, 600422, Note_on_c, 11, 58, 127
2, 600422, Note_on_c, 5, 65, 127
2, 600422, Note_on_c, 2, 74, 127
2, 600566, Note_off_c, 2, 74, 127
2, 600568, Note_on_c, 11, 70, 127
2, 600707, Note_off_c, 5, 77, 127
2, 600712, Note_off_c, 11, 70, 127
2, 600712, Note_off_c, 11, 58, 127
2, 600714, Note_on_c, 0, 60, 127
2, 600714, Note_on_c, 10, 69, 127
2, 600859, Note_on_c, 0, 72, 127
2, 600998, Note_off_c, 5, 65, 127
2, 601003, Note_off_c, 0, 72, 127
2, 601005, Note_on_c, 4, 64, 127
2, 601005, Note_on_c, 4, 76, 127
2, 601149, Note_off_c, 4, 76, 127
2, 601149, Note_off_c, 4, 64, 127
2, 601151, Note_on_c, 2, 62, 127
2, 601151, Note_on_c, 5, 77, 127
2, 601290, Note_off_c, 10, 69, 127
2, 601290, Note_off_c, 0, 60, 127
2, 601295, Note_off_c, 5, 77, 127
2, 601295, Note_off_c, 2, 62, 127
2, 601297, Note_on_c, 0, 60, 127
2, 601297, Note_on_c, 7, 79, 127
2, 601441, Note_off_c, 7, 79, 127
2, 601443, Note_on_c, 2, 74, 127
2, 601587, Note_off_c, 2, 74, 127
2, 601589, Note_on_c, 0, 48, 127
2, 601589, Note_on_c, 4, 76, 127
2, 601734, Note_on_c, 11, 70, 127
2, 601873, Note_off_c, 0, 60, 127
2, 601876, Note_off_c, 4, 76, 127
2, 601878, Note_off_c, 11, 70, 127
2, 601878, Note_off_c, 0, 48, 127
2, 601880, Note_on_c, 5, 53, 127
2, 601880, Note_on_c, 10, 69, 127
2, 602024, Note_off_c, 10, 69, 127
2, 602026, Note_on_c, 7, 67, 127
2, 602170, Note_off_c, 7, 67, 127
2, 602172, Note_on_c, 10, 69, 127
2, 602316, Note_off_c, 10, 69, 127
2, 602318, Note_on_c, 0, 72, 127
2, 602462, Note_off_c, 0, 72, 127
2, 602464, Note_on_c, 5, 77, 127
2, 602609, Note_on_c, 0, 72, 127
2, 602754, Note_on_c, 10, 69, 127
2, 602899, Note_on_c, 5, 65, 127
2, 603043, Note_off_c, 5, 53, 127
2, 603045, Note_on_c, 0, 60, 127
2, 603190, Note_on_c, 11, 58, 127
2, 603334, Note_off_c, 11, 58, 127
2, 603336, Note_on_c, 10, 57, 127
2, 603480, Note_off_c, 10, 57, 127
2, 603482, Note_on_c, 7, 55, 127
2, 603621, Note_off_c, 0, 60, 127
2, 603624, Note_off_c, 0, 72, 127
2, 603626, Note_off_c, 7, 55, 127
2, 603626, Note_off_c, 10, 69, 127
2, 603626, Note_off_c, 5, 77, 127
2, 603628, Note_off_c, 5, 65, 127
2, 603628, Note_on_c, 6, 54, 127
2, 603773, Note_on_c, 10, 57, 127
2, 603918, Note_on_c, 2, 62, 127
2, 604063, Note_on_c, 6, 66, 127
2, 604196, Note_off_c, 10, 57, 127
2, 604205, Note_off_c, 2, 62, 127
2, 604207, Note_off_c, 6, 66, 127
2, 604209, Note_on_c, 10, 69, 127
2, 604354, Note_off_c, 6, 54, 127
2, 604354, Note_on_c, 7, 55, 127
2, 604354, Note_on_c, 2, 74, 127
2, 604498, Note_off_c, 7, 55, 127
2, 604500, Note_on_c, 10, 57, 127
2, 604500, Note_on_c, 6, 78, 127
2, 604644, Note_off_c, 10, 57, 127
2, 604646, Note_on_c, 11, 58, 127
2, 604646, Note_on_c, 7, 79, 127
2, 604779, Note_off_c, 2, 74, 127
2, 604785, Note_off_c, 10, 69, 127
2, 604788, Note_off_c, 6, 78, 127
2, 604790, Note_off_c, 7, 79, 127
2, 604790, Note_off_c, 11, 58, 127
2, 604792, Note_on_c, 0, 60, 127
2, 604792, Note_on_c, 10, 81, 127
2, 604936, Note_off_c, 10, 81, 127
2, 604936, Note_off_c, 0, 60, 127
2, 604938, Note_on_c, 2, 62, 127
2, 604938, Note_on_c, 11, 82, 127
2, 605082, Note_off_c, 11, 82, 127
2, 605082, Note_off_c, 2, 62, 127
2, 605084, Note_on_c, 4, 64, 127
2, 605084, Note_on_c, 0, 84, 127
2, 605228, Note_off_c, 0, 84, 127
2, 605228, Note_off_c, 4, 64, 127
2, 605230, Note_on_c, 6, 66, 127
2, 605230, Note_on_c, 10, 81, 127
2, 605374, Note_off_c, 10, 81, 127
2, 605374, Note_off_c, 6, 66, 127
2, 605376, Note_on_c, 7, 67, 127
2, 605376, Note_on_c, 11, 82, 127
2, 605520, Note_off_c, 11, 82, 127
2, 605522, Note_on_c, 7, 79, 127
2, 605666, Note_off_c, 7, 79, 127
2, 605668, Note_on_c, 7, 55, 127
2, 605668, Note_on_c, 4, 76, 127
2, 605812, Note_off_c, 4, 76, 127
2, 605814, Note_on_c, 7, 79, 127
2, 605958, Note_off_c, 7, 79, 127
2, 605958, Note_off_c, 7, 55, 127
2, 605960, Note_on_c, 10, 57, 127
2, 605960, Note_on_c, 1, 73, 127
2, 606104, Note_off_c, 1, 73, 127
2, 606106, Note_on_c, 5, 77, 127
2, 606250, Note_off_c, 5, 77, 127
2, 606250, Note_off_c, 7, 67, 127
2, 606252, Note_on_c, 1, 61, 127
2, 606252, Note_on_c, 4, 76, 127
2, 606396, Note_off_c, 4, 76, 127
2, 606398, Note_on_c, 10, 81, 127
2, 606537, Note_off_c, 10, 57, 127
2, 606542, Note_off_c, 10, 81, 127
2, 606542, Note_off_c, 1, 61, 127
2, 606544, Note_on_c, 11, 58, 127
2, 606544, Note_on_c, 7, 79, 127
2, 606688, Note_off_c, 7, 79, 127
2, 606690, Note_on_c, 5, 77, 127
2, 606834, Note_off_c, 5, 77, 127
2, 606836, Note_on_c, 2, 62, 127
2, 606836, Note_on_c, 4, 76, 127
2, 606980, Note_off_c, 4, 76, 127
2, 606982, Note_on_c, 5, 77, 127
2, 607121, Note_off_c, 11, 58, 127
2, 607126, Note_off_c, 5, 77, 127
2, 607126, Note_off_c, 2, 62, 127
2, 607128, Note_on_c, 4, 52, 127
2, 607128, Note_on_c, 7, 79, 127
2, 607272, Note_off_c, 7, 79, 127
2, 607274, Note_on_c, 4, 76, 127
2, 607418, Note_off_c, 4, 76, 127
2, 607420, Note_on_c, 7, 55, 127
2, 607420, Note_on_c, 1, 73, 127
2, 607564, Note_off_c, 1, 73, 127
2, 607566, Note_on_c, 4, 76, 127
2, 607705, Note_off_c, 4, 52, 127
2, 607710, Note_off_c, 4, 76, 127
2, 607710, Note_off_c, 7, 55, 127
2, 607712, Note_on_c, 5, 53, 127
2, 607712, Note_on_c, 10, 69, 127
2, 607856, Note_off_c, 10, 69, 127
2, 607858, Note_on_c, 2, 74, 127
2, 608002, Note_off_c, 2, 74, 127
2, 608004, Note_on_c, 10, 57, 127
2, 608004, Note_on_c, 1, 73, 127
2, 608148, Note_off_c, 1, 73, 127
2, 608150, Note_on_c, 5, 77, 127
2, 608289, Note_off_c, 5, 53, 127
2, 608294, Note_off_c, 5, 77, 127
2, 608294, Note_off_c, 10, 57, 127
2, 608296, Note_on_c, 7, 55, 127
2, 608296, Note_on_c, 4, 76, 127
2, 608440, Note_off_c, 4, 76, 127
2, 608442, Note_on_c, 2, 74, 127
2, 608586, Note_off_c, 2, 74, 127
2, 608588, Note_on_c, 11, 58, 127
2, 608588, Note_on_c, 1, 73, 127
2, 608732, Note_off_c, 1, 73, 127
2, 608734, Note_on_c, 2, 74, 127
2, 608873, Note_off_c, 7, 55, 127
2, 608878, Note_off_c, 2, 74, 127
2, 608878, Note_off_c, 11, 58, 127
2, 608880, Note_on_c, 1, 49, 127
2, 608880, Note_on_c, 4, 76, 127
2, 609024, Note_off_c, 4, 76, 127
2, 609026, Note_on_c, 1, 73, 127
2, 609170, Note_off_c, 1, 73, 127
2, 609172, Note_on_c, 4, 52, 127
2, 609172, Note_on_c, 10, 69, 127
2, 609316, Note_off_c, 10, 69, 127
2, 609318, Note_on_c, 1, 73, 127
2, 609462, Note_off_c, 1, 73, 127
2, 609462, Note_off_c, 4, 52, 127
2, 609464, Note_on_c, 10, 57, 127
2, 609464, Note_on_c, 4, 64, 127
2, 609608, Note_off_c, 4, 64, 127
2, 609610, Note_on_c, 10, 69, 127
2, 609754, Note_off_c, 10, 69, 127
2, 609754, Note_off_c, 10, 57, 127
2, 609756, Note_on_c, 4, 52, 127
2, 609756, Note_on_c, 7, 67, 127
2, 609900, Note_off_c, 7, 67, 127
2, 609902, Note_on_c, 11, 70, 127
2, 610046, Note_off_c, 11, 70, 127
2, 610046, Note_off_c, 4, 52, 127
2, 610046, Note_off_c, 1, 49, 127
2, 610048, Note_on_c, 1, 49, 127
2, 610048, Note_on_c, 10, 69, 127
2, 610192, Note_off_c, 10, 69, 127
2, 610194, Note_on_c, 7, 67, 127
2, 610338, Note_off_c, 7, 67, 127
2, 610338, Note_off_c, 1, 49, 127
2, 610340, Note_on_c, 10, 45, 127
2, 610340, Note_on_c, 6, 66, 127
2, 610484, Note_off_c, 6, 66, 127
2, 610486, Note_on_c, 7, 67, 127
2, 610630, Note_off_c, 7, 67, 127
2, 610630, Note_off_c, 10, 45, 127
2, 610632, Note_on_c, 0, 48, 127
2, 610632, Note_on_c, 10, 69, 127
2, 610777, Note_on_c, 2, 50, 127
2, 610922, Note_on_c, 6, 54, 127
2, 611067, Note_on_c, 10, 57, 127
2, 611211, Note_off_c, 10, 69, 127
2, 611213, Note_on_c, 2, 62, 127
2, 611358, Note_on_c, 6, 66, 127
2, 611502, Note_off_c, 6, 66, 127
2, 611504, Note_on_c, 7, 67, 127
2, 611648, Note_off_c, 7, 67, 127
2, 611650, Note_on_c, 10, 69, 127
2, 611789, Note_off_c, 2, 62, 127
2, 611792, Note_off_c, 2, 50, 127
2, 611794, Note_off_c, 10, 69, 127
2, 611794, Note_off_c, 10, 57, 127
2, 611794, Note_off_c, 6, 54, 127
2, 611794, Note_off_c, 0, 48, 127
2, 611812, Note_on_c, 12, 47, 127
2, 611957, Note_on_c, 2, 50, 127
2, 612102, Note_on_c, 7, 55, 127
2, 612247, Note_on_c, 12, 59, 127
2, 612392, Note_on_c, 2, 62, 127
2, 612537, Note_on_c, 7, 67, 127
2, 612681, Note_off_c, 7, 67, 127
2, 612683, Note_on_c, 10, 69, 127
2, 612827, Note_off_c, 10, 69, 127
2, 612829, Note_on_c, 12, 71, 127
2, 612968, Note_off_c, 2, 62, 127
2, 612971, Note_off_c, 2, 50, 127
2, 612973, Note_off_c, 12, 71, 127
2, 612973, Note_off_c, 12, 59, 127
2, 612973, Note_off_c, 7, 55, 127
2, 612973, Note_off_c, 12, 47, 127
2, 612991, Note_on_c, 11, 46, 127
2, 613136, Note_on_c, 4, 52, 127
2, 613281, Note_on_c, 7, 55, 127
2, 613426, Note_on_c, 1, 61, 127
2, 613570, Note_off_c, 1, 61, 127
2, 613572, Note_on_c, 4, 64, 127
2, 613717, Note_on_c, 7, 67, 127
2, 613862, Note_on_c, 11, 70, 127
2, 614007, Note_on_c, 1, 73, 127
2, 614140, Note_off_c, 7, 67, 127
2, 614146, Note_off_c, 4, 64, 127
2, 614149, Note_off_c, 11, 70, 127
2, 614149, Note_off_c, 4, 52, 127
2, 614151, Note_off_c, 1, 73, 127
2, 614151, Note_off_c, 7, 55, 127
2, 614151, Note_off_c, 11, 46, 127
2, 614153, Note_on_c, 5, 53, 127
2, 614153, Note_on_c, 10, 45, 127
2, 614153, Note_on_c, 2, 74, 127
2, 614298, Note_on_c, 10, 69, 127
2, 614442, Note_off_c, 10, 69, 127
2, 614442, Note_off_c, 10, 45, 127
2, 614442, Note_off_c, 5, 53, 127
2, 614444, Note_on_c, 4, 52, 127
2, 614444, Note_on_c, 7, 43, 127
2, 614444, Note_on_c, 11, 70, 127
2, 614589, Note_on_c, 4, 64, 127
2, 614728, Note_off_c, 2, 74, 127
2, 614731, Note_off_c, 11, 70, 127
2, 614733, Note_off_c, 4, 64, 127
2, 614733, Note_off_c, 7, 43, 127
2, 614733, Note_off_c, 4, 52, 127
2, 614735, Note_on_c, 10, 45, 127
2, 614735, Note_on_c, 5, 65, 127
2, 614735, Note_on_c, 2, 74, 127
2, 614879, Note_off_c, 10, 45, 127
2, 614881, Note_on_c, 1, 61, 127
2, 615025, Note_off_c, 1, 61, 127
2, 615027, Note_on_c, 2, 62, 127
2, 615172, Note_on_c, 8, 56, 127
2, 615314, Note_off_c, 2, 62, 127
2, 615316, Note_off_c, 8, 56, 127
2, 615318, Note_on_c, 10, 57, 127
2, 615462, Note_off_c, 2, 74, 127
2, 615464, Note_off_c, 5, 65, 127
2, 615464, Note_on_c, 4, 64, 127
2, 615609, Note_on_c, 10, 45, 127
2, 615609, Note_on_c, 7, 67, 127
2, 615754, Note_on_c, 1, 73, 127
2, 615887, Note_off_c, 4, 64, 127
2, 615893, Note_off_c, 10, 57, 127
2, 615896, Note_off_c, 7, 67, 127
2, 615898, Note_off_c, 1, 73, 127
2, 615898, Note_off_c, 10, 45, 127
2, 615900, Note_on_c, 2, 50, 127
2, 615900, Note_on_c, 2, 74, 127
2, 616061, Note_on_c, 7, 67, 127
2, 616061, Note_on_c, 11, 58, 127
2, 616205, Note_off_c, 11, 58, 127
2, 616205, Note_off_c, 7, 67, 127
2, 616207, Note_on_c, 6, 66, 127
2, 616207, Note_on_c, 10, 57, 127
2, 616351, Note_off_c, 10, 57, 127
2, 616351, Note_off_c, 6, 66, 127
2, 616353, Note_on_c, 4, 64, 127
2, 616353, Note_on_c, 7, 55, 127
2, 616476, Note_off_c, 2, 74, 127
2, 616497, Note_off_c, 7, 55, 127
2, 616497, Note_off_c, 4, 64, 127
2, 616499, Note_on_c, 6, 66, 127
2, 616499, Note_on_c, 10, 57, 127
2, 616644, Note_on_c, 10, 69, 127
2, 616788, Note_off_c, 10, 69, 127
2, 616790, Note_on_c, 2, 74, 127
2, 616952, Note_on_c, 1, 73, 127
2, 616969, Note_off_c, 2, 74, 127
2, 617129, Note_off_c, 1, 73, 127
2, 617146, Note_on_c, 2, 74, 127
2, 619630, Note_off_c, 2, 50, 127
2, 619646, Note_off_c, 2, 74, 127
2, 619652, Note_off_c, 10, 57, 127
2, 619652, Note_off_c, 6, 66, 127
2, 621183, Note_on_c, 2, 50, 127
2, 621183, Note_on_c, 10, 81, 127
2, 621183, Note_on_c, 5, 77, 127
2, 621371, Note_off_c, 2, 50, 127
2, 621375, Note_on_c, 2, 62, 127
2, 621554, Note_off_c, 5, 77, 127
2, 621554, Note_off_c, 10, 81, 127
2, 621563, Note_off_c, 2, 62, 127
2, 621567, Note_on_c, 1, 61, 127
2, 621567, Note_on_c, 10, 81, 127
2, 621567, Note_on_c, 4, 76, 127
2, 621755, Note_off_c, 1, 61, 127
2, 621759, Note_on_c, 10, 57, 127
2, 621938, Note_off_c, 4, 76, 127
2, 621938, Note_off_c, 10, 81, 127
2, 621947, Note_off_c, 10, 57, 127
2, 621951, Note_on_c, 2, 62, 127
2, 621951, Note_on_c, 5, 77, 127
2, 621951, Note_on_c, 11, 82, 127
2, 622043, Note_off_c, 11, 82, 127
2, 622047, Note_on_c, 10, 81, 127
2, 622139, Note_off_c, 10, 81, 127
2, 622139, Note_off_c, 2, 62, 127
2, 622143, Note_on_c, 10, 57, 127
2, 622143, Note_on_c, 11, 82, 127
2, 622235, Note_off_c, 11, 82, 127
2, 622239, Note_on_c, 10, 81, 127
2, 622331, Note_off_c, 10, 81, 127
2, 622331, Note_off_c, 10, 57, 127
2, 622335, Note_on_c, 2, 50, 127
2, 622335, Note_on_c, 11, 82, 127
2, 622427, Note_off_c, 11, 82, 127
2, 622431, Note_on_c, 10, 81, 127
2, 622523, Note_off_c, 10, 81, 127
2, 622523, Note_off_c, 2, 50, 127
2, 622527, Note_on_c, 0, 60, 127
2, 622527, Note_on_c, 7, 79, 127
2, 622619, Note_off_c, 7, 79, 127
2, 622623, Note_on_c, 10, 81, 127
2, 622715, Note_off_c, 10, 81, 127
2, 622715, Note_off_c, 0, 60, 127
2, 622715, Note_off_c, 5, 77, 127
2, 622719, Note_on_c, 11, 58, 127
2, 622719, Note_on_c, 11, 82, 127
2, 622719, Note_on_c, 7, 79, 127
2, 622907, Note_off_c, 11, 58, 127
2, 622911, Note_on_c, 10, 57, 127
2, 623090, Note_off_c, 7, 79, 127
2, 623090, Note_off_c, 11, 82, 127
2, 623099, Note_off_c, 10, 57, 127
2, 623103, Note_on_c, 11, 58, 127
2, 623103, Note_on_c, 10, 81, 127
2, 623103, Note_on_c, 5, 77, 127
2, 623291, Note_off_c, 11, 58, 127
2, 623295, Note_on_c, 7, 55, 127
2, 623474, Note_off_c, 5, 77, 127
2, 623474, Note_off_c, 10, 81, 127
2, 623483, Note_off_c, 7, 55, 127
2, 623487, Note_on_c, 0, 60, 127
2, 623487, Note_on_c, 4, 76, 127
2, 623487, Note_on_c, 7, 79, 127
2, 623675, Note_off_c, 0, 60, 127
2, 623679, Note_on_c, 7, 55, 127
2, 623867, Note_off_c, 7, 55, 127
2, 623871, Note_on_c, 0, 48, 127
2, 624059, Note_off_c, 0, 48, 127
2, 624063, Note_on_c, 7, 55, 127
2, 624251, Note_off_c, 7, 55, 127
2, 624251, Note_off_c, 7, 79, 127
2, 624251, Note_off_c, 4, 76, 127
2, 624255, Note_on_c, 0, 60, 127
2, 624255, Note_on_c, 4, 76, 127
2, 624255, Note_on_c, 7, 79, 127
2, 624443, Note_off_c, 0, 60, 127
2, 624447, Note_on_c, 2, 62, 127
2, 624626, Note_off_c, 7, 79, 127
2, 624626, Note_off_c, 4, 76, 127
2, 624635, Note_off_c, 2, 62, 127
2, 624639, Note_on_c, 4, 64, 127
2, 624639, Note_on_c, 4, 76, 127
2, 624639, Note_on_c, 7, 79, 127
2, 624827, Note_off_c, 4, 64, 127
2, 624831, Note_on_c, 2, 62, 127
2, 625010, Note_off_c, 7, 79, 127
2, 625010, Note_off_c, 4, 76, 127
2, 625019, Note_off_c, 2, 62, 127
2, 625023, Note_on_c, 1, 61, 127
2, 625023, Note_on_c, 4, 76, 127
2, 625023, Note_on_c, 7, 79, 127
2, 625211, Note_off_c, 7, 79, 127
2, 625211, Note_off_c, 1, 61, 127
2, 625215, Note_on_c, 10, 57, 127
2, 625215, Note_on_c, 5, 77, 127
2, 625403, Note_off_c, 5, 77, 127
2, 625403, Note_off_c, 10, 57, 127
2, 625407, Note_on_c, 12, 59, 127
2, 625407, Note_on_c, 7, 79, 127
2, 625595, Note_off_c, 7, 79, 127
2, 625595, Note_off_c, 12, 59, 127
2, 625599, Note_on_c, 1, 61, 127
2, 625599, Note_on_c, 10, 81, 127
2, 625787, Note_off_c, 10, 81, 127
2, 625787, Note_off_c, 1, 61, 127
2, 625787, Note_off_c, 4, 76, 127
2, 625791, Note_on_c, 2, 62, 127
2, 625791, Note_on_c, 2, 74, 127
2, 625791, Note_on_c, 5, 77, 127
2, 625979, Note_off_c, 5, 77, 127
2, 625979, Note_off_c, 2, 62, 127
2, 625983, Note_on_c, 1, 61, 127
2, 625983, Note_on_c, 4, 76, 127
2, 626171, Note_off_c, 4, 76, 127
2, 626171, Note_off_c, 1, 61, 127
2, 626175, Note_on_c, 2, 62, 127
2, 626175, Note_on_c, 5, 77, 127
2, 626363, Note_off_c, 5, 77, 127
2, 626363, Note_off_c, 2, 62, 127
2, 626367, Note_on_c, 7, 55, 127
2, 626367, Note_on_c, 7, 79, 127
2, 626555, Note_off_c, 7, 79, 127
2, 626555, Note_off_c, 7, 55, 127
2, 626555, Note_off_c, 2, 74, 127
2, 626559, Note_on_c, 10, 57, 127
2, 626559, Note_on_c, 5, 77, 127
2, 626559, Note_on_c, 1, 73, 127
2, 626747, Note_off_c, 5, 77, 127
2, 626747, Note_off_c, 10, 57, 127
2, 626751, Note_on_c, 10, 45, 127
2, 626751, Note_on_c, 4, 76, 127
2, 626930, Note_off_c, 1, 73, 127
2, 626939, Note_off_c, 4, 76, 127
2, 626939, Note_off_c, 10, 45, 127
2, 626943, Note_on_c, 2, 50, 127
2, 626943, Note_on_c, 2, 74, 127
2, 627131, Note_off_c, 2, 74, 127
2, 627131, Note_off_c, 2, 50, 127
2, 627135, Note_on_c, 4, 52, 127
2, 627135, Note_on_c, 1, 73, 127
2, 627323, Note_off_c, 1, 73, 127
2, 627323, Note_off_c, 4, 52, 127
2, 627327, Note_on_c, 5, 53, 127
2, 627327, Note_on_c, 2, 74, 127
2, 627327, Note_on_c, 10, 81, 127
2, 627515, Note_off_c, 2, 74, 127
2, 627515, Note_off_c, 5, 53, 127
2, 627519, Note_on_c, 2, 50, 127
2, 627519, Note_on_c, 5, 77, 127
2, 627698, Note_off_c, 10, 81, 127
2, 627707, Note_off_c, 5, 77, 127
2, 627707, Note_off_c, 2, 50, 127
2, 627711, Note_on_c, 1, 49, 127
2, 627711, Note_on_c, 4, 76, 127
2, 627711, Note_on_c, 10, 81, 127
2, 627899, Note_off_c, 4, 76, 127
2, 627899, Note_off_c, 1, 49, 127
2, 627903, Note_on_c, 10, 45, 127
2, 627903, Note_on_c, 7, 79, 127
2, 628082, Note_off_c, 10, 81, 127
2, 628091, Note_off_c, 7, 79, 127
2, 628091, Note_off_c, 10, 45, 127
2, 628095, Note_on_c, 2, 50, 127
2, 628095, Note_on_c, 5, 77, 127
2, 628095, Note_on_c, 11, 82, 127
2, 628187, Note_off_c, 11, 82, 127
2, 628191, Note_on_c, 10, 81, 127
2, 628283, Note_off_c, 10, 81, 127
2, 628283, Note_off_c, 2, 50, 127
2, 628287, Note_on_c, 10, 45, 127
2, 628287, Note_on_c, 11, 82, 127
2, 628379, Note_off_c, 11, 82, 127
2, 628383, Note_on_c, 10, 81, 127
2, 628475, Note_off_c, 10, 81, 127
2, 628475, Note_off_c, 10, 45, 127
2, 628479, Note_on_c, 2, 38, 127
2, 628479, Note_on_c, 11, 82, 127
2, 628571, Note_off_c, 11, 82, 127
2, 628575, Note_on_c, 10, 81, 127
2, 628667, Note_off_c, 10, 81, 127
2, 628667, Note_off_c, 2, 38, 127
2, 628671, Note_on_c, 0, 48, 127
2, 628671, Note_on_c, 7, 79, 127
2, 628763, Note_off_c, 7, 79, 127
2, 628767, Note_on_c, 10, 81, 127
2, 628859, Note_off_c, 10, 81, 127
2, 628859, Note_off_c, 0, 48, 127
2, 628859, Note_off_c, 5, 77, 127
2, 628863, Note_on_c, 11, 46, 127
2, 628863, Note_on_c, 11, 82, 127
2, 628863, Note_on_c, 7, 79, 127
2, 629051, Note_off_c, 11, 46, 127
2, 629055, Note_on_c, 10, 45, 127
2, 629234, Note_off_c, 7, 79, 127
2, 629234, Note_off_c, 11, 82, 127
2, 629243, Note_off_c, 10, 45, 127
2, 629247, Note_on_c, 11, 46, 127
2, 629247, Note_on_c, 10, 81, 127
2, 629247, Note_on_c, 5, 77, 127
2, 629435, Note_off_c, 11, 46, 127
2, 629439, Note_on_c, 7, 43, 127
2, 629618, Note_off_c, 5, 77, 127
2, 629618, Note_off_c, 10, 81, 127
2, 629627, Note_off_c, 7, 43, 127
2, 629631, Note_on_c, 0, 48, 127
2, 629631, Note_on_c, 4, 76, 127
2, 629631, Note_on_c, 10, 81, 127
2, 629819, Note_off_c, 0, 48, 127
2, 629823, Note_on_c, 7, 43, 127
2, 630002, Note_off_c, 10, 81, 127
2, 630011, Note_off_c, 7, 43, 127
2, 630015, Note_on_c, 0, 36, 127
2, 630015, Note_on_c, 7, 79, 127
2, 630203, Note_off_c, 7, 79, 127
2, 630203, Note_off_c, 0, 36, 127
2, 630207, Note_on_c, 11, 46, 127
2, 630207, Note_on_c, 10, 81, 127
2, 630299, Note_off_c, 10, 81, 127
2, 630303, Note_on_c, 11, 82, 127
2, 630395, Note_off_c, 11, 82, 127
2, 630395, Note_off_c, 11, 46, 127
2, 630395, Note_off_c, 4, 76, 127
2, 630399, Note_on_c, 10, 45, 127
2, 630399, Note_on_c, 0, 84, 127
2, 630399, Note_on_c, 4, 76, 127
2, 630587, Note_off_c, 0, 84, 127
2, 630587, Note_off_c, 10, 45, 127
2, 630591, Note_on_c, 11, 46, 127
2, 630591, Note_on_c, 11, 82, 127
2, 630779, Note_off_c, 11, 82, 127
2, 630779, Note_off_c, 11, 46, 127
2, 630783, Note_on_c, 0, 48, 127
2, 630783, Note_on_c, 10, 81, 127
2, 630971, Note_off_c, 10, 81, 127
2, 630971, Note_off_c, 0, 48, 127
2, 630975, Note_on_c, 10, 45, 127
2, 630975, Note_on_c, 7, 79, 127
2, 631163, Note_off_c, 7, 79, 127
2, 631163, Note_off_c, 10, 45, 127
2, 631163, Note_off_c, 4, 76, 127
2, 631167, Note_on_c, 2, 50, 127
2, 631167, Note_on_c, 2, 74, 127
2, 631167, Note_on_c, 5, 77, 127
2, 631355, Note_off_c, 5, 77, 127
2, 631355, Note_off_c, 2, 50, 127
2, 631359, Note_on_c, 4, 52, 127
2, 631359, Note_on_c, 4, 76, 127
2, 631538, Note_off_c, 2, 74, 127
2, 631547, Note_off_c, 4, 76, 127
2, 631547, Note_off_c, 4, 52, 127
2, 631551, Note_on_c, 5, 53, 127
2, 631551, Note_on_c, 2, 74, 127
2, 631739, Note_off_c, 5, 53, 127
2, 631743, Note_on_c, 2, 50, 127
2, 631743, Note_on_c, 11, 82, 127
2, 631931, Note_off_c, 11, 82, 127
2, 631931, Note_off_c, 2, 50, 127
2, 631935, Note_on_c, 11, 58, 127
2, 631935, Note_on_c, 10, 81, 127
2, 632027, Note_off_c, 10, 81, 127
2, 632031, Note_on_c, 7, 79, 127
2, 632123, Note_off_c, 7, 79, 127
2, 632123, Note_off_c, 11, 58, 127
2, 632127, Note_on_c, 10, 57, 127
2, 632127, Note_on_c, 10, 81, 127
2, 632219, Note_off_c, 10, 81, 127
2, 632223, Note_on_c, 7, 79, 127
2, 632315, Note_off_c, 7, 79, 127
2, 632315, Note_off_c, 10, 57, 127
2, 632319, Note_on_c, 11, 58, 127
2, 632319, Note_on_c, 10, 81, 127
2, 632411, Note_off_c, 10, 81, 127
2, 632415, Note_on_c, 7, 79, 127
2, 632507, Note_off_c, 7, 79, 127
2, 632507, Note_off_c, 11, 58, 127
2, 632511, Note_on_c, 11, 46, 127
2, 632511, Note_on_c, 5, 77, 127
2, 632603, Note_off_c, 5, 77, 127
2, 632607, Note_on_c, 7, 79, 127
2, 632698, Note_off_c, 2, 74, 127
2, 632699, Note_off_c, 7, 79, 127
2, 632699, Note_off_c, 11, 46, 127
2, 632703, Note_on_c, 10, 45, 127
2, 632703, Note_on_c, 1, 73, 127
2, 632703, Note_on_c, 10, 81, 127
2, 632891, Note_off_c, 10, 45, 127
2, 632895, Note_on_c, 4, 52, 127
2, 633083, Note_off_c, 4, 52, 127
2, 633087, Note_on_c, 5, 53, 127
2, 633275, Note_off_c, 5, 53, 127
2, 633279, Note_on_c, 7, 55, 127
2, 633467, Note_off_c, 7, 55, 127
2, 633467, Note_off_c, 10, 81, 127
2, 633467, Note_off_c, 1, 73, 127
2, 633471, Note_on_c, 10, 57, 127
2, 633471, Note_on_c, 0, 72, 127
2, 633471, Note_on_c, 4, 76, 127
2, 633659, Note_off_c, 10, 57, 127
2, 633663, Note_on_c, 10, 45, 127
2, 633842, Note_off_c, 4, 76, 127
2, 633842, Note_off_c, 0, 72, 127
2, 633851, Note_off_c, 10, 45, 127
2, 633855, Note_on_c, 8, 56, 127
2, 633855, Note_on_c, 12, 71, 127
2, 633855, Note_on_c, 4, 76, 127
2, 634043, Note_off_c, 8, 56, 127
2, 634047, Note_on_c, 4, 52, 127
2, 634226, Note_off_c, 4, 76, 127
2, 634226, Note_off_c, 12, 71, 127
2, 634235, Note_off_c, 4, 52, 127
2, 634239, Note_on_c, 10, 57, 127
2, 634239, Note_on_c, 0, 72, 127
2, 634239, Note_on_c, 5, 77, 127
2, 634331, Note_off_c, 5, 77, 127
2, 634335, Note_on_c, 4, 76, 127
2, 634427, Note_off_c, 4, 76, 127
2, 634427, Note_off_c, 10, 57, 127
2, 634431, Note_on_c, 4, 52, 127
2, 634431, Note_on_c, 5, 77, 127
2, 634523, Note_off_c, 5, 77, 127
2, 634527, Note_on_c, 4, 76, 127
2, 634619, Note_off_c, 4, 76, 127
2, 634619, Note_off_c, 4, 52, 127
2, 634623, Note_on_c, 10, 45, 127
2, 634623, Note_on_c, 5, 77, 127
2, 634715, Note_off_c, 5, 77, 127
2, 634719, Note_on_c, 4, 76, 127
2, 634811, Note_off_c, 4, 76, 127
2, 634811, Note_off_c, 10, 45, 127
2, 634815, Note_on_c, 7, 55, 127
2, 634815, Note_on_c, 2, 74, 127
2, 634907, Note_off_c, 2, 74, 127
2, 634911, Note_on_c, 4, 76, 127
2, 635003, Note_off_c, 4, 76, 127
2, 635003, Note_off_c, 7, 55, 127
2, 635003, Note_off_c, 0, 72, 127
2, 635007, Note_on_c, 5, 53, 127
2, 635007, Note_on_c, 2, 74, 127
2, 635007, Note_on_c, 5, 77, 127
2, 635195, Note_off_c, 5, 53, 127
2, 635199, Note_on_c, 4, 52, 127
2, 635378, Note_off_c, 5, 77, 127
2, 635378, Note_off_c, 2, 74, 127
2, 635387, Note_off_c, 4, 52, 127
2, 635391, Note_on_c, 5, 53, 127
2, 635391, Note_on_c, 0, 72, 127
2, 635391, Note_on_c, 4, 76, 127
2, 635579, Note_off_c, 5, 53, 127
2, 635583, Note_on_c, 2, 50, 127
2, 635762, Note_off_c, 4, 76, 127
2, 635762, Note_off_c, 0, 72, 127
2, 635771, Note_off_c, 2, 50, 127
2, 635775, Note_on_c, 7, 55, 127
2, 635775, Note_on_c, 12, 71, 127
2, 635775, Note_on_c, 2, 74, 127
2, 635963, Note_off_c, 7, 55, 127
2, 635967, Note_on_c, 2, 50, 127
2, 636155, Note_off_c, 2, 50, 127
2, 636159, Note_on_c, 7, 43, 127
2, 636347, Note_off_c, 7, 43, 127
2, 636351, Note_on_c, 2, 50, 127
2, 636539, Note_off_c, 2, 50, 127
2, 636539, Note_off_c, 2, 74, 127
2, 636539, Note_off_c, 12, 71, 127
2, 636543, Note_on_c, 7, 55, 127
2, 636543, Note_on_c, 12, 71, 127
2, 636543, Note_on_c, 2, 74, 127
2, 636731, Note_off_c, 7, 55, 127
2, 636735, Note_on_c, 5, 53, 127
2, 636914, Note_off_c, 2, 74, 127
2, 636914, Note_off_c, 12, 71, 127
2, 636923, Note_off_c, 5, 53, 127
2, 636927, Note_on_c, 7, 55, 127
2, 636927, Note_on_c, 12, 71, 127
2, 636927, Note_on_c, 7, 79, 127
2, 637115, Note_off_c, 7, 55, 127
2, 637119, Note_on_c, 4, 52, 127
2, 637298, Note_off_c, 7, 79, 127
2, 637298, Note_off_c, 12, 71, 127
2, 637307, Note_off_c, 4, 52, 127
2, 637311, Note_on_c, 10, 57, 127
2, 637311, Note_on_c, 0, 72, 127
2, 637311, Note_on_c, 5, 77, 127
2, 637403, Note_off_c, 5, 77, 127
2, 637407, Note_on_c, 4, 76, 127
2, 637499, Note_off_c, 4, 76, 127
2, 637499, Note_off_c, 10, 57, 127
2, 637503, Note_on_c, 7, 55, 127
2, 637503, Note_on_c, 5, 77, 127
2, 637595, Note_off_c, 5, 77, 127
2, 637599, Note_on_c, 4, 76, 127
2, 637691, Note_off_c, 4, 76, 127
2, 637691, Note_off_c, 7, 55, 127
2, 637695, Note_on_c, 5, 53, 127
2, 637695, Note_on_c, 5, 77, 127
2, 637787, Note_off_c, 5, 77, 127
2, 637791, Note_on_c, 4, 76, 127
2, 637883, Note_off_c, 4, 76, 127
2, 637883, Note_off_c, 5, 53, 127
2, 637887, Note_on_c, 4, 52, 127
2, 637887, Note_on_c, 2, 74, 127
2, 637979, Note_off_c, 2, 74, 127
2, 637983, Note_on_c, 4, 76, 127
2, 638075, Note_off_c, 4, 76, 127
2, 638075, Note_off_c, 4, 52, 127
2, 638075, Note_off_c, 0, 72, 127
2, 638079, Note_on_c, 2, 50, 127
2, 638079, Note_on_c, 5, 77, 127
2, 638079, Note_on_c, 2, 74, 127
2, 638267, Note_off_c, 5, 77, 127
2, 638267, Note_off_c, 2, 50, 127
2, 638271, Note_on_c, 12, 59, 127
2, 638271, Note_on_c, 7, 79, 127
2, 638450, Note_off_c, 2, 74, 127
2, 638459, Note_off_c, 7, 79, 127
2, 638459, Note_off_c, 12, 59, 127
2, 638463, Note_on_c, 0, 60, 127
2, 638463, Note_on_c, 0, 72, 127
2, 638463, Note_on_c, 4, 76, 127
2, 638651, Note_off_c, 4, 76, 127
2, 638651, Note_off_c, 0, 60, 127
2, 638655, Note_on_c, 5, 53, 127
2, 638655, Note_on_c, 5, 77, 127
2, 638834, Note_off_c, 0, 72, 127
2, 638843, Note_off_c, 5, 77, 127
2, 638843, Note_off_c, 5, 53, 127
2, 638847, Note_on_c, 7, 55, 127
2, 638847, Note_on_c, 12, 71, 127
2, 638847, Note_on_c, 4, 76, 127
2, 639035, Note_off_c, 4, 76, 127
2, 639035, Note_off_c, 7, 55, 127
2, 639039, Note_on_c, 7, 43, 127
2, 639039, Note_on_c, 2, 74, 127
2, 639218, Note_off_c, 12, 71, 127
2, 639227, Note_off_c, 2, 74, 127
2, 639227, Note_off_c, 7, 43, 127
2, 639231, Note_on_c, 0, 48, 127
2, 639231, Note_on_c, 0, 72, 127
2, 639419, Note_off_c, 0, 48, 127
2, 639423, Note_on_c, 11, 46, 127
2, 639602, Note_off_c, 0, 72, 127
2, 639611, Note_off_c, 11, 46, 127
2, 639615, Note_on_c, 10, 45, 127
2, 639615, Note_on_c, 4, 76, 127
2, 639615, Note_on_c, 0, 72, 127
2, 639803, Note_off_c, 10, 45, 127
2, 639807, Note_on_c, 11, 46, 127
2, 639986, Note_off_c, 0, 72, 127
2, 639986, Note_off_c, 4, 76, 127
2, 639995, Note_off_c, 11, 46, 127
2, 639999, Note_on_c, 0, 48, 127
2, 639999, Note_on_c, 0, 72, 127
2, 639999, Note_on_c, 6, 78, 127
2, 640187, Note_off_c, 6, 78, 127
2, 640187, Note_off_c, 0, 48, 127
2, 640191, Note_on_c, 10, 45, 127
2, 640191, Note_on_c, 7, 79, 127
2, 640283, Note_off_c, 7, 79, 127
2, 640287, Note_on_c, 10, 81, 127
2, 640370, Note_off_c, 0, 72, 127
2, 640379, Note_off_c, 10, 81, 127
2, 640379, Note_off_c, 10, 45, 127
2, 640383, Note_on_c, 2, 50, 127
2, 640383, Note_on_c, 10, 69, 127
2, 640383, Note_on_c, 7, 79, 127
2, 640475, Note_off_c, 7, 79, 127
2, 640479, Note_on_c, 6, 78, 127
2, 640571, Note_off_c, 6, 78, 127
2, 640571, Note_off_c, 2, 50, 127
2, 640575, Note_on_c, 10, 45, 127
2, 640575, Note_on_c, 7, 79, 127
2, 640667, Note_off_c, 7, 79, 127
2, 640671, Note_on_c, 6, 78, 127
2, 640763, Note_off_c, 6, 78, 127
2, 640763, Note_off_c, 10, 45, 127
2, 640767, Note_on_c, 2, 38, 127
2, 640767, Note_on_c, 7, 79, 127
2, 640859, Note_off_c, 7, 79, 127
2, 640863, Note_on_c, 6, 78, 127
2, 640955, Note_off_c, 6, 78, 127
2, 640955, Note_off_c, 2, 38, 127
2, 640959, Note_on_c, 0, 48, 127
2, 640959, Note_on_c, 4, 76, 127
2, 641051, Note_off_c, 4, 76, 127
2, 641055, Note_on_c, 6, 78, 127
2, 641147, Note_off_c, 6, 78, 127
2, 641147, Note_off_c, 0, 48, 127
2, 641147, Note_off_c, 10, 69, 127
2, 641151, Note_on_c, 11, 46, 127
2, 641151, Note_on_c, 7, 79, 127
2, 641151, Note_on_c, 2, 74, 127
2, 641339, Note_off_c, 11, 46, 127
2, 641343, Note_on_c, 10, 45, 127
2, 641522, Note_off_c, 2, 74, 127
2, 641522, Note_off_c, 7, 79, 127
2, 641531, Note_off_c, 10, 45, 127
2, 641535, Note_on_c, 7, 43, 127
2, 641535, Note_on_c, 2, 74, 127
2, 641535, Note_on_c, 10, 81, 127
2, 641723, Note_off_c, 7, 43, 127
2, 641727, Note_on_c, 6, 42, 127
2, 641906, Note_off_c, 10, 81, 127
2, 641906, Note_off_c, 2, 74, 127
2, 641915, Note_off_c, 6, 42, 127
2, 641919, Note_on_c, 7, 43, 127
2, 641919, Note_on_c, 2, 74, 127
2, 641919, Note_on_c, 11, 82, 127
2, 642107, Note_off_c, 7, 43, 127
2, 642111, Note_on_c, 11, 46, 127
2, 642299, Note_off_c, 11, 46, 127
2, 642303, Note_on_c, 2, 50, 127
2, 642491, Note_off_c, 2, 50, 127
2, 642491, Note_off_c, 11, 82, 127
2, 642495, Note_on_c, 7, 55, 127
2, 642495, Note_on_c, 10, 81, 127
2, 642587, Note_off_c, 10, 81, 127
2, 642591, Note_on_c, 11, 82, 127
2, 642683, Note_off_c, 11, 82, 127
2, 642683, Note_off_c, 7, 55, 127
2, 642687, Note_on_c, 6, 54, 127
2, 642687, Note_on_c, 0, 84, 127
2, 642875, Note_off_c, 0, 84, 127
2, 642879, Note_on_c, 11, 82, 127
2, 643058, Note_off_c, 6, 54, 127
2, 643067, Note_off_c, 11, 82, 127
2, 643071, Note_on_c, 2, 50, 127
2, 643071, Note_on_c, 10, 81, 127
2, 643259, Note_off_c, 10, 81, 127
2, 643263, Note_on_c, 11, 82, 127
2, 643442, Note_off_c, 2, 50, 127
2, 643451, Note_off_c, 11, 82, 127
2, 643455, Note_on_c, 7, 55, 127
2, 643455, Note_on_c, 0, 84, 127
2, 643643, Note_off_c, 0, 84, 127
2, 643647, Note_on_c, 11, 82, 127
2, 643826, Note_off_c, 7, 55, 127
2, 643835, Note_off_c, 11, 82, 127
2, 643839, Note_on_c, 11, 46, 127
2, 643839, Note_on_c, 10, 81, 127
2, 644027, Note_off_c, 10, 81, 127
2, 644031, Note_on_c, 7, 79, 127
2, 644210, Note_off_c, 11, 46, 127
2, 644219, Note_off_c, 7, 79, 127
2, 644223, Note_on_c, 0, 48, 127
2, 644223, Note_on_c, 11, 82, 127
2, 644411, Note_off_c, 11, 82, 127
2, 644415, Note_on_c, 10, 81, 127
2, 644594, Note_off_c, 0, 48, 127
2, 644603, Note_off_c, 10, 81, 127
2, 644607, Note_on_c, 2, 50, 127
2, 644607, Note_on_c, 7, 79, 127
2, 644795, Note_off_c, 7, 79, 127
2, 644799, Note_on_c, 6, 78, 127
2, 644978, Note_off_c, 2, 50, 127
2, 644987, Note_off_c, 6, 78, 127
2, 644991, Note_on_c, 12, 47, 127
2, 644991, Note_on_c, 7, 79, 127
2, 645183, Note_off_c, 2, 74, 127
2, 645183, Note_on_c, 3, 75, 127
2, 645362, Note_off_c, 12, 47, 127
2, 645371, Note_off_c, 3, 75, 127
2, 645375, Note_on_c, 7, 55, 127
2, 645375, Note_on_c, 5, 77, 127
2, 645563, Note_off_c, 5, 77, 127
2, 645567, Note_on_c, 2, 74, 127
2, 645746, Note_off_c, 7, 55, 127
2, 645755, Note_off_c, 2, 74, 127
2, 645759, Note_on_c, 10, 57, 127
2, 645759, Note_on_c, 5, 77, 127
2, 645947, Note_off_c, 5, 77, 127
2, 645951, Note_on_c, 3, 75, 127
2, 646130, Note_off_c, 10, 57, 127
2, 646139, Note_off_c, 3, 75, 127
2, 646143, Note_on_c, 12, 59, 127
2, 646143, Note_on_c, 2, 74, 127
2, 646331, Note_off_c, 2, 74, 127
2, 646335, Note_on_c, 0, 72, 127
2, 646514, Note_off_c, 12, 59, 127
2, 646523, Note_off_c, 0, 72, 127
2, 646527, Note_on_c, 0, 60, 127
2, 646527, Note_on_c, 3, 75, 127
2, 646715, Note_off_c, 3, 75, 127
2, 646719, Note_on_c, 2, 74, 127
2, 646898, Note_off_c, 0, 60, 127
2, 646907, Note_off_c, 2, 74, 127
2, 646911, Note_on_c, 2, 62, 127
2, 646911, Note_on_c, 0, 72, 127
2, 647099, Note_off_c, 0, 72, 127
2, 647103, Note_on_c, 12, 71, 127
2, 647282, Note_off_c, 2, 62, 127
2, 647291, Note_off_c, 12, 71, 127
2, 647295, Note_on_c, 3, 63, 127
2, 647295, Note_on_c, 0, 72, 127
2, 647483, Note_off_c, 0, 72, 127
2, 647487, Note_on_c, 2, 74, 127
2, 647666, Note_off_c, 3, 63, 127
2, 647675, Note_off_c, 2, 74, 127
2, 647679, Note_on_c, 0, 60, 127
2, 647679, Note_on_c, 3, 75, 127
2, 647867, Note_off_c, 3, 75, 127
2, 647871, Note_on_c, 0, 72, 127
2, 648050, Note_off_c, 0, 60, 127
2, 648059, Note_off_c, 0, 72, 127
2, 648063, Note_on_c, 7, 67, 127
2, 648063, Note_on_c, 3, 75, 127
2, 648251, Note_off_c, 3, 75, 127
2, 648255, Note_on_c, 2, 74, 127
2, 648434, Note_off_c, 7, 67, 127
2, 648443, Note_off_c, 2, 74, 127
2, 648447, Note_on_c, 10, 69, 127
2, 648447, Note_on_c, 0, 72, 127
2, 648635, Note_off_c, 0, 72, 127
2, 648639, Note_on_c, 11, 70, 127
2, 648818, Note_off_c, 10, 69, 127
2, 648827, Note_off_c, 11, 70, 127
2, 648831, Note_on_c, 11, 70, 127
2, 648831, Note_on_c, 2, 74, 127
2, 649019, Note_off_c, 2, 74, 127
2, 649023, Note_on_c, 0, 72, 127
2, 649202, Note_off_c, 11, 70, 127
2, 649211, Note_off_c, 0, 72, 127
2, 649215, Note_on_c, 7, 67, 127
2, 649215, Note_on_c, 11, 70, 127
2, 649403, Note_off_c, 11, 70, 127
2, 649407, Note_on_c, 10, 69, 127
2, 649586, Note_off_c, 7, 67, 127
2, 649595, Note_off_c, 10, 69, 127
2, 649599, Note_on_c, 2, 62, 127
2, 649599, Note_on_c, 11, 70, 127
2, 649787, Note_off_c, 11, 70, 127
2, 649791, Note_on_c, 10, 81, 127
2, 649791, Note_on_c, 0, 72, 127
2, 649794, Note_off_c, 7, 79, 127
2, 649979, Note_off_c, 0, 72, 127
2, 649979, Note_off_c, 10, 81, 127
2, 649983, Note_on_c, 2, 74, 127
2, 649983, Note_on_c, 11, 82, 127
2, 650171, Note_off_c, 11, 82, 127
2, 650171, Note_off_c, 2, 74, 127
2, 650175, Note_on_c, 7, 79, 127
2, 650175, Note_on_c, 11, 70, 127
2, 650363, Note_off_c, 11, 70, 127
2, 650363, Note_off_c, 7, 79, 127
2, 650367, Note_on_c, 11, 82, 127
2, 650367, Note_on_c, 2, 74, 127
2, 650555, Note_off_c, 2, 74, 127
2, 650555, Note_off_c, 11, 82, 127
2, 650559, Note_on_c, 0, 72, 127
2, 650559, Note_on_c, 10, 81, 127
2, 650747, Note_off_c, 10, 81, 127
2, 650747, Note_off_c, 0, 72, 127
2, 650751, Note_on_c, 11, 70, 127
2, 650751, Note_on_c, 7, 79, 127
2, 650939, Note_off_c, 7, 79, 127
2, 650939, Note_off_c, 11, 70, 127
2, 650943, Note_on_c, 6, 78, 127
2, 650943, Note_on_c, 10, 69, 127
2, 651131, Note_off_c, 10, 69, 127
2, 651131, Note_off_c, 6, 78, 127
2, 651131, Note_off_c, 2, 62, 127
2, 651135, Note_on_c, 7, 55, 127
2, 651135, Note_on_c, 7, 79, 127
2, 651135, Note_on_c, 11, 70, 127
2, 651323, Note_off_c, 7, 55, 127
2, 651327, Note_on_c, 2, 50, 127
2, 651515, Note_off_c, 2, 50, 127
2, 651519, Note_on_c, 11, 46, 127
2, 651707, Note_off_c, 11, 46, 127
2, 651711, Note_on_c, 2, 50, 127
2, 651899, Note_off_c, 2, 50, 127
2, 651899, Note_off_c, 11, 70, 127
2, 651899, Note_off_c, 7, 79, 127
2, 651903, Note_on_c, 7, 43, 127
2, 651903, Note_on_c, 2, 74, 127
2, 651903, Note_on_c, 11, 70, 127
2, 652091, Note_off_c, 7, 43, 127
2, 652095, Note_on_c, 2, 50, 127
2, 652274, Note_off_c, 11, 70, 127
2, 652274, Note_off_c, 2, 74, 127
2, 652283, Note_off_c, 2, 50, 127
2, 652287, Note_on_c, 7, 55, 127
2, 652287, Note_on_c, 2, 74, 127
2, 652287, Note_on_c, 10, 69, 127
2, 652475, Note_off_c, 7, 55, 127
2, 652479, Note_on_c, 5, 53, 127
2, 652658, Note_off_c, 10, 69, 127
2, 652658, Note_off_c, 2, 74, 127
2, 652667, Note_off_c, 5, 53, 127
2, 652671, Note_on_c, 4, 52, 127
2, 652671, Note_on_c, 7, 67, 127
2, 652671, Note_on_c, 2, 74, 127
2, 652859, Note_off_c, 4, 52, 127
2, 652863, Note_on_c, 5, 53, 127
2, 653042, Note_off_c, 7, 67, 127
2, 653051, Note_off_c, 5, 53, 127
2, 653055, Note_on_c, 7, 55, 127
2, 653055, Note_on_c, 11, 70, 127
2, 653243, Note_off_c, 2, 74, 127
2, 653247, Note_on_c, 4, 76, 127
2, 653339, Note_off_c, 4, 76, 127
2, 653343, Note_on_c, 2, 74, 127
2, 653426, Note_off_c, 11, 70, 127
2, 653426, Note_off_c, 7, 55, 127
2, 653435, Note_off_c, 2, 74, 127
2, 653439, Note_on_c, 10, 57, 127
2, 653439, Note_on_c, 1, 73, 127
2, 653439, Note_on_c, 10, 69, 127
2, 653627, Note_off_c, 1, 73, 127
2, 653627, Note_off_c, 10, 57, 127
2, 653631, Note_on_c, 12, 59, 127
2, 653631, Note_on_c, 2, 74, 127
2, 653819, Note_off_c, 2, 74, 127
2, 653819, Note_off_c, 12, 59, 127
2, 653823, Note_on_c, 10, 57, 127
2, 653823, Note_on_c, 4, 76, 127
2, 654011, Note_off_c, 4, 76, 127
2, 654011, Note_off_c, 10, 57, 127
2, 654015, Note_on_c, 7, 55, 127
2, 654015, Note_on_c, 1, 73, 127
2, 654203, Note_off_c, 1, 73, 127
2, 654203, Note_off_c, 7, 55, 127
2, 654207, Note_on_c, 5, 53, 127
2, 654207, Note_on_c, 2, 74, 127
2, 654395, Note_off_c, 2, 74, 127
2, 654399, Note_on_c, 4, 76, 127
2, 654578, Note_off_c, 5, 53, 127
2, 654587, Note_off_c, 4, 76, 127
2, 654591, Note_on_c, 2, 50, 127
2, 654591, Note_on_c, 5, 77, 127
2, 654779, Note_off_c, 5, 77, 127
2, 654783, Note_on_c, 2, 74, 127
2, 654962, Note_off_c, 2, 50, 127
2, 654971, Note_off_c, 2, 74, 127
2, 654975, Note_on_c, 1, 49, 127
2, 654975, Note_on_c, 4, 76, 127
2, 655163, Note_off_c, 4, 76, 127
2, 655167, Note_on_c, 5, 77, 127
2, 655346, Note_off_c, 1, 49, 127
2, 655355, Note_off_c, 5, 77, 127
2, 655359, Note_on_c, 10, 45, 127
2, 655359, Note_on_c, 7, 79, 127
2, 655547, Note_off_c, 7, 79, 127
2, 655551, Note_on_c, 4, 76, 127
2, 655730, Note_off_c, 10, 45, 127
2, 655739, Note_off_c, 4, 76, 127
2, 655743, Note_on_c, 2, 50, 127
2, 655743, Note_on_c, 5, 77, 127
2, 655931, Note_off_c, 5, 77, 127
2, 655935, Note_on_c, 4, 76, 127
2, 656114, Note_off_c, 2, 50, 127
2, 656123, Note_off_c, 4, 76, 127
2, 656127, Note_on_c, 0, 48, 127
2, 656127, Note_on_c, 5, 77, 127
2, 656315, Note_off_c, 5, 77, 127
2, 656319, Note_on_c, 10, 81, 127
2, 656498, Note_off_c, 0, 48, 127
2, 656500, Note_off_c, 10, 69, 127
2, 656507, Note_off_c, 10, 81, 127
2, 656511, Note_on_c, 11, 46, 127
2, 656511, Note_on_c, 7, 79, 127
2, 656699, Note_off_c, 7, 79, 127
2, 656703, Note_on_c, 5, 77, 127
2, 656882, Note_off_c, 11, 46, 127
2, 656891, Note_off_c, 5, 77, 127
2, 656895, Note_on_c, 7, 43, 127
2, 656895, Note_on_c, 4, 76, 127
2, 657083, Note_off_c, 4, 76, 127
2, 657087, Note_on_c, 2, 74, 127
2, 657266, Note_off_c, 7, 43, 127
2, 657275, Note_off_c, 2, 74, 127
2, 657279, Note_on_c, 10, 45, 127
2, 657279, Note_on_c, 1, 73, 127
2, 657467, Note_off_c, 1, 73, 127
2, 657471, Note_on_c, 10, 69, 127
2, 657650, Note_off_c, 10, 45, 127
2, 657659, Note_off_c, 10, 69, 127
2, 657663, Note_on_c, 10, 57, 127
2, 657663, Note_on_c, 12, 71, 127
2, 657851, Note_off_c, 12, 71, 127
2, 657851, Note_off_c, 10, 57, 127
2, 657855, Note_on_c, 7, 55, 127
2, 657855, Note_on_c, 1, 73, 127
2, 658043, Note_off_c, 1, 73, 127
2, 658043, Note_off_c, 7, 55, 127
2, 658047, Note_on_c, 5, 53, 127
2, 658047, Note_on_c, 10, 69, 127
2, 658047, Note_on_c, 2, 74, 127
2, 658235, Note_off_c, 2, 74, 127
2, 658235, Note_off_c, 5, 53, 127
2, 658239, Note_on_c, 4, 52, 127
2, 658239, Note_on_c, 4, 76, 127
2, 658418, Note_off_c, 10, 69, 127
2, 658427, Note_off_c, 4, 76, 127
2, 658427, Note_off_c, 4, 52, 127
2, 658431, Note_on_c, 2, 50, 127
2, 658431, Note_on_c, 10, 69, 127
2, 658431, Note_on_c, 5, 77, 127
2, 658619, Note_off_c, 2, 50, 127
2, 658623, Note_on_c, 0, 48, 127
2, 658802, Note_off_c, 10, 69, 127
2, 658811, Note_off_c, 0, 48, 127
2, 658815, Note_on_c, 11, 46, 127
2, 658815, Note_on_c, 11, 70, 127
2, 658907, Note_off_c, 11, 70, 127
2, 658911, Note_on_c, 10, 69, 127
2, 659003, Note_off_c, 10, 69, 127
2, 659003, Note_off_c, 11, 46, 127
2, 659007, Note_on_c, 0, 48, 127
2, 659007, Note_on_c, 11, 70, 127
2, 659099, Note_off_c, 11, 70, 127
2, 659103, Note_on_c, 10, 69, 127
2, 659195, Note_off_c, 10, 69, 127
2, 659195, Note_off_c, 0, 48, 127
2, 659199, Note_on_c, 11, 46, 127
2, 659199, Note_on_c, 11, 70, 127
2, 659291, Note_off_c, 11, 70, 127
2, 659295, Note_on_c, 10, 69, 127
2, 659387, Note_off_c, 10, 69, 127
2, 659387, Note_off_c, 11, 46, 127
2, 659391, Note_on_c, 10, 45, 127
2, 659391, Note_on_c, 7, 67, 127
2, 659483, Note_off_c, 7, 67, 127
2, 659487, Note_on_c, 10, 69, 127
2, 659579, Note_off_c, 10, 69, 127
2, 659579, Note_off_c, 10, 45, 127
2, 659583, Note_on_c, 7, 43, 127
2, 659583, Note_on_c, 11, 70, 127
2, 659771, Note_off_c, 7, 43, 127
2, 659775, Note_on_c, 10, 45, 127
2, 659954, Note_off_c, 11, 70, 127
2, 659963, Note_off_c, 10, 45, 127
2, 659967, Note_on_c, 11, 46, 127
2, 659967, Note_on_c, 10, 69, 127
2, 660155, Note_off_c, 11, 46, 127
2, 660159, Note_on_c, 7, 43, 127
2, 660338, Note_off_c, 10, 69, 127
2, 660347, Note_off_c, 7, 43, 127
2, 660351, Note_on_c, 0, 48, 127
2, 660351, Note_on_c, 7, 67, 127
2, 660539, Note_off_c, 0, 48, 127
2, 660543, Note_on_c, 7, 43, 127
2, 660731, Note_off_c, 7, 43, 127
2, 660735, Note_on_c, 0, 36, 127
2, 660923, Note_off_c, 0, 36, 127
2, 660927, Note_on_c, 7, 43, 127
2, 661115, Note_off_c, 7, 43, 127
2, 661115, Note_off_c, 7, 67, 127
2, 661118, Note_off_c, 5, 77, 127
2, 661119, Note_on_c, 0, 48, 127
2, 661119, Note_on_c, 4, 76, 127
2, 661119, Note_on_c, 7, 67, 127
2, 661307, Note_off_c, 0, 48, 127
2, 661311, Note_on_c, 2, 50, 127
2, 661490, Note_off_c, 7, 67, 127
2, 661499, Note_off_c, 2, 50, 127
2, 661503, Note_on_c, 4, 52, 127
2, 661503, Note_on_c, 7, 67, 127
2, 661691, Note_off_c, 4, 52, 127
2, 661695, Note_on_c, 2, 50, 127
2, 661874, Note_off_c, 7, 67, 127
2, 661883, Note_off_c, 2, 50, 127
2, 661887, Note_on_c, 1, 49, 127
2, 661887, Note_on_c, 7, 67, 127
2, 662075, Note_off_c, 7, 67, 127
2, 662079, Note_on_c, 11, 70, 127
2, 662267, Note_off_c, 11, 70, 127
2, 662271, Note_on_c, 10, 69, 127
2, 662459, Note_off_c, 10, 69, 127
2, 662459, Note_off_c, 1, 49, 127
2, 662463, Note_on_c, 1, 49, 127
2, 662463, Note_on_c, 7, 67, 127
2, 662646, Note_off_c, 4, 76, 127
2, 662651, Note_off_c, 7, 67, 127
2, 662651, Note_off_c, 1, 49, 127
2, 662655, Note_on_c, 2, 50, 127
2, 662655, Note_on_c, 2, 74, 127
2, 662655, Note_on_c, 5, 65, 127
2, 662843, Note_off_c, 5, 65, 127
2, 662843, Note_off_c, 2, 50, 127
2, 662847, Note_on_c, 0, 48, 127
2, 662847, Note_on_c, 10, 69, 127
2, 663035, Note_off_c, 10, 69, 127
2, 663035, Note_off_c, 0, 48, 127
2, 663039, Note_on_c, 11, 46, 127
2, 663039, Note_on_c, 7, 67, 127
2, 663227, Note_off_c, 7, 67, 127
2, 663227, Note_off_c, 11, 46, 127
2, 663231, Note_on_c, 7, 43, 127
2, 663231, Note_on_c, 5, 65, 127
2, 663419, Note_off_c, 5, 65, 127
2, 663419, Note_off_c, 7, 43, 127
2, 663419, Note_off_c, 2, 74, 127
2, 663423, Note_on_c, 10, 45, 127
2, 663423, Note_on_c, 4, 64, 127
2, 663423, Note_on_c, 1, 73, 127
2, 663794, Note_off_c, 1, 73, 127
2, 663794, Note_off_c, 4, 64, 127
2, 663794, Note_off_c, 10, 45, 127
2, 663807, Note_on_c, 2, 38, 127
2, 663807, Note_on_c, 2, 62, 127
2, 663807, Note_on_c, 2, 74, 127
2, 663995, Note_off_c, 2, 74, 127
2, 663995, Note_off_c, 2, 62, 127
2, 663995, Note_off_c, 2, 38, 127
2, 663999, Note_on_c, 10, 45, 127
2, 663999, Note_on_c, 4, 76, 127
2, 664187, Note_off_c, 4, 76, 127
2, 664187, Note_off_c, 10, 45, 127
2, 664191, Note_on_c, 2, 50, 127
2, 664191, Note_on_c, 5, 77, 127
2, 664379, Note_off_c, 5, 77, 127
2, 664379, Note_off_c, 2, 50, 127
2, 664383, Note_on_c, 4, 52, 127
2, 664383, Note_on_c, 7, 79, 127
2, 664571, Note_off_c, 7, 79, 127
2, 664571, Note_off_c, 4, 52, 127
2, 664575, Note_on_c, 5, 53, 127
2, 664575, Note_on_c, 2, 74, 127
2, 664575, Note_on_c, 10, 81, 127
2, 664763, Note_off_c, 2, 74, 127
2, 664763, Note_off_c, 5, 53, 127
2, 664767, Note_on_c, 1, 49, 127
2, 664767, Note_on_c, 4, 76, 127
2, 664946, Note_off_c, 10, 81, 127
2, 664955, Note_off_c, 4, 76, 127
2, 664955, Note_off_c, 1, 49, 127
2, 664959, Note_on_c, 2, 50, 127
2, 664959, Note_on_c, 5, 77, 127
2, 664959, Note_on_c, 11, 82, 127
2, 665051, Note_off_c, 11, 82, 127
2, 665055, Note_on_c, 10, 81, 127
2, 665147, Note_off_c, 10, 81, 127
2, 665147, Note_off_c, 2, 50, 127
2, 665151, Note_on_c, 10, 45, 127
2, 665151, Note_on_c, 11, 82, 127
2, 665243, Note_off_c, 11, 82, 127
2, 665247, Note_on_c, 10, 81, 127
2, 665339, Note_off_c, 10, 81, 127
2, 665339, Note_off_c, 10, 45, 127
2, 665343, Note_on_c, 2, 38, 127
2, 665343, Note_on_c, 11, 82, 127
2, 665435, Note_off_c, 11, 82, 127
2, 665439, Note_on_c, 10, 81, 127
2, 665531, Note_off_c, 10, 81, 127
2, 665531, Note_off_c, 2, 38, 127
2, 665535, Note_on_c, 0, 48, 127
2, 665535, Note_on_c, 7, 79, 127
2, 665627, Note_off_c, 7, 79, 127
2, 665631, Note_on_c, 10, 81, 127
2, 665723, Note_off_c, 10, 81, 127
2, 665723, Note_off_c, 0, 48, 127
2, 665723, Note_off_c, 5, 77, 127
2, 665727, Note_on_c, 11, 46, 127
2, 665727, Note_on_c, 11, 82, 127
2, 665727, Note_on_c, 7, 79, 127
2, 665915, Note_off_c, 11, 46, 127
2, 665919, Note_on_c, 10, 45, 127
2, 666098, Note_off_c, 7, 79, 127
2, 666098, Note_off_c, 11, 82, 127
2, 666107, Note_off_c, 10, 45, 127
2, 666111, Note_on_c, 11, 46, 127
2, 666111, Note_on_c, 10, 81, 127
2, 666111, Note_on_c, 5, 77, 127
2, 666299, Note_off_c, 11, 46, 127
2, 666303, Note_on_c, 7, 43, 127
2, 666482, Note_off_c, 5, 77, 127
2, 666482, Note_off_c, 10, 81, 127
2, 666491, Note_off_c, 7, 43, 127
2, 666495, Note_on_c, 0, 48, 127
2, 666495, Note_on_c, 4, 76, 127
2, 666495, Note_on_c, 7, 79, 127
2, 666683, Note_off_c, 7, 79, 127
2, 666687, Note_on_c, 11, 82, 127
2, 666875, Note_off_c, 11, 82, 127
2, 666879, Note_on_c, 10, 81, 127
2, 667067, Note_off_c, 10, 81, 127
2, 667067, Note_off_c, 0, 48, 127
2, 667071, Note_on_c, 1, 49, 127
2, 667071, Note_on_c, 7, 79, 127
2, 667259, Note_off_c, 7, 79, 127
2, 667259, Note_off_c, 1, 49, 127
2, 667259, Note_off_c, 4, 76, 127
2, 667263, Note_on_c, 2, 50, 127
2, 667263, Note_on_c, 5, 77, 127
2, 667451, Note_off_c, 5, 77, 127
2, 667451, Note_off_c, 2, 50, 127
2, 667455, Note_on_c, 4, 52, 127
2, 667455, Note_on_c, 4, 76, 127
2, 667643, Note_off_c, 4, 76, 127
2, 667643, Note_off_c, 4, 52, 127
2, 667647, Note_on_c, 5, 53, 127
2, 667647, Note_on_c, 2, 74, 127
2, 667835, Note_off_c, 2, 74, 127
2, 667835, Note_off_c, 5, 53, 127
2, 667839, Note_on_c, 7, 55, 127
2, 667839, Note_on_c, 1, 73, 127
2, 668027, Note_off_c, 1, 73, 127
2, 668027, Note_off_c, 7, 55, 127
2, 668031, Note_on_c, 5, 41, 127
2, 668031, Note_on_c, 2, 74, 127
2, 668031, Note_on_c, 10, 81, 127
2, 668402, Note_off_c, 10, 81, 127
2, 668402, Note_off_c, 2, 74, 127
2, 668402, Note_off_c, 5, 41, 127
2, 668799, Note_on_c, 10, 45, 127
2, 668799, Note_on_c, 1, 73, 127
2, 668799, Note_on_c, 4, 76, 127
2, 669170, Note_off_c, 4, 76, 127
2, 669170, Note_off_c, 1, 73, 127
2, 669170, Note_off_c, 10, 45, 127
2, 669567, Note_on_c, 2, 38, 127
2, 669567, Note_on_c, 2, 74, 127
2, 670139, Note_off_c, 2, 38, 127
2, 670331, Note_off_c, 2, 74, 127
2, 670375, Note_on_c, 10, 69, 127
2, 670375, Note_on_c, 6, 78, 127
2, 670553, Note_off_c, 10, 69, 127
2, 670567, Note_on_c, 2, 62, 127
2, 670745, Note_off_c, 2, 62, 127
2, 670750, Note_off_c, 6, 78, 127
2, 670759, Note_on_c, 6, 66, 127
2, 670759, Note_on_c, 6, 78, 127
2, 670937, Note_off_c, 6, 66, 127
2, 670951, Note_on_c, 10, 69, 127
2, 671129, Note_off_c, 10, 69, 127
2, 671134, Note_off_c, 6, 78, 127
2, 671143, Note_on_c, 2, 74, 127
2, 671143, Note_on_c, 7, 79, 127
2, 671235, Note_off_c, 7, 79, 127
2, 671239, Note_on_c, 6, 78, 127
2, 671321, Note_off_c, 2, 74, 127
2, 671331, Note_off_c, 6, 78, 127
2, 671335, Note_on_c, 2, 62, 127
2, 671335, Note_on_c, 7, 79, 127
2, 671427, Note_off_c, 7, 79, 127
2, 671431, Note_on_c, 6, 78, 127
2, 671513, Note_off_c, 2, 62, 127
2, 671523, Note_off_c, 6, 78, 127
2, 671527, Note_on_c, 0, 72, 127
2, 671527, Note_on_c, 7, 79, 127
2, 671619, Note_off_c, 7, 79, 127
2, 671623, Note_on_c, 6, 78, 127
2, 671705, Note_off_c, 0, 72, 127
2, 671715, Note_off_c, 6, 78, 127
2, 671719, Note_on_c, 2, 62, 127
2, 671719, Note_on_c, 4, 76, 127
2, 671811, Note_off_c, 4, 76, 127
2, 671815, Note_on_c, 6, 78, 127
2, 671897, Note_off_c, 2, 62, 127
2, 671907, Note_off_c, 6, 78, 127
2, 671911, Note_on_c, 12, 71, 127
2, 671911, Note_on_c, 7, 79, 127
2, 672089, Note_off_c, 12, 71, 127
2, 672103, Note_on_c, 2, 62, 127
2, 672281, Note_off_c, 2, 62, 127
2, 672286, Note_off_c, 7, 79, 127
2, 672295, Note_on_c, 10, 69, 127
2, 672295, Note_on_c, 6, 78, 127
2, 672473, Note_off_c, 10, 69, 127
2, 672487, Note_on_c, 2, 62, 127
2, 672665, Note_off_c, 2, 62, 127
2, 672670, Note_off_c, 6, 78, 127
2, 672679, Note_on_c, 7, 67, 127
2, 672679, Note_on_c, 4, 76, 127
2, 672857, Note_off_c, 7, 67, 127
2, 672871, Note_on_c, 2, 62, 127
2, 673049, Note_off_c, 2, 62, 127
2, 673063, Note_on_c, 6, 66, 127
2, 673241, Note_off_c, 6, 66, 127
2, 673255, Note_on_c, 2, 62, 127
2, 673433, Note_off_c, 2, 62, 127
2, 673443, Note_off_c, 4, 76, 127
2, 673447, Note_on_c, 7, 67, 127
2, 673447, Note_on_c, 4, 76, 127
2, 673625, Note_off_c, 7, 67, 127
2, 673639, Note_on_c, 2, 62, 127
2, 673817, Note_off_c, 2, 62, 127
2, 673822, Note_off_c, 4, 76, 127
2, 673831, Note_on_c, 4, 64, 127
2, 673831, Note_on_c, 4, 76, 127
2, 674009, Note_off_c, 4, 64, 127
2, 674023, Note_on_c, 7, 67, 127
2, 674201, Note_off_c, 7, 67, 127
2, 674206, Note_off_c, 4, 76, 127
2, 674215, Note_on_c, 1, 73, 127
2, 674215, Note_on_c, 6, 78, 127
2, 674307, Note_off_c, 6, 78, 127
2, 674311, Note_on_c, 4, 76, 127
2, 674393, Note_off_c, 1, 73, 127
2, 674403, Note_off_c, 4, 76, 127
2, 674407, Note_on_c, 2, 62, 127
2, 674407, Note_on_c, 6, 78, 127
2, 674499, Note_off_c, 6, 78, 127
2, 674503, Note_on_c, 4, 76, 127
2, 674585, Note_off_c, 2, 62, 127
2, 674595, Note_off_c, 4, 76, 127
2, 674599, Note_on_c, 12, 71, 127
2, 674599, Note_on_c, 6, 78, 127
2, 674691, Note_off_c, 6, 78, 127
2, 674695, Note_on_c, 4, 76, 127
2, 674777, Note_off_c, 12, 71, 127
2, 674787, Note_off_c, 4, 76, 127
2, 674791, Note_on_c, 2, 62, 127
2, 674791, Note_on_c, 2, 74, 127
2, 674883, Note_off_c, 2, 74, 127
2, 674887, Note_on_c, 4, 76, 127
2, 674969, Note_off_c, 2, 62, 127
2, 674979, Note_off_c, 4, 76, 127
2, 674983, Note_on_c, 10, 69, 127
2, 674983, Note_on_c, 6, 78, 127
2, 675161, Note_off_c, 6, 78, 127
2, 675161, Note_off_c, 10, 69, 127
2, 675175, Note_on_c, 2, 62, 127
2, 675175, Note_on_c, 2, 74, 127
2, 675353, Note_off_c, 2, 74, 127
2, 675353, Note_off_c, 2, 62, 127
2, 675367, Note_on_c, 7, 67, 127
2, 675367, Note_on_c, 4, 76, 127
2, 675545, Note_off_c, 4, 76, 127
2, 675545, Note_off_c, 7, 67, 127
2, 675559, Note_on_c, 2, 62, 127
2, 675559, Note_on_c, 1, 73, 127
2, 675737, Note_off_c, 1, 73, 127
2, 675737, Note_off_c, 2, 62, 127
2, 675751, Note_on_c, 6, 66, 127
2, 675751, Note_on_c, 2, 74, 127
2, 675929, Note_off_c, 6, 66, 127
2, 675943, Note_on_c, 2, 62, 127
2, 676121, Note_off_c, 2, 62, 127
2, 676126, Note_off_c, 2, 74, 127
2, 676135, Note_on_c, 6, 66, 127
2, 676135, Note_on_c, 10, 69, 127
2, 676313, Note_off_c, 6, 66, 127
2, 676327, Note_on_c, 7, 67, 127
2, 676505, Note_off_c, 7, 67, 127
2, 676510, Note_off_c, 10, 69, 127
2, 676519, Note_on_c, 10, 69, 127
2, 676519, Note_on_c, 6, 78, 127
2, 676697, Note_off_c, 10, 69, 127
2, 676711, Note_on_c, 2, 62, 127
2, 676889, Note_off_c, 2, 62, 127
2, 676894, Note_off_c, 6, 78, 127
2, 676903, Note_on_c, 6, 66, 127
2, 676903, Note_on_c, 6, 78, 127
2, 677081, Note_off_c, 6, 66, 127
2, 677095, Note_on_c, 10, 69, 127
2, 677273, Note_off_c, 10, 69, 127
2, 677278, Note_off_c, 6, 78, 127
2, 677287, Note_on_c, 2, 74, 127
2, 677287, Note_on_c, 7, 79, 127
2, 677379, Note_off_c, 7, 79, 127
2, 677383, Note_on_c, 6, 78, 127
2, 677465, Note_off_c, 2, 74, 127
2, 677475, Note_off_c, 6, 78, 127
2, 677479, Note_on_c, 2, 62, 127
2, 677479, Note_on_c, 7, 79, 127
2, 677571, Note_off_c, 7, 79, 127
2, 677575, Note_on_c, 6, 78, 127
2, 677657, Note_off_c, 2, 62, 127
2, 677667, Note_off_c, 6, 78, 127
2, 677671, Note_on_c, 0, 72, 127
2, 677671, Note_on_c, 7, 79, 127
2, 677763, Note_off_c, 7, 79, 127
2, 677767, Note_on_c, 6, 78, 127
2, 677849, Note_off_c, 0, 72, 127
2, 677859, Note_off_c, 6, 78, 127
2, 677863, Note_on_c, 2, 62, 127
2, 677863, Note_on_c, 4, 76, 127
2, 677955, Note_off_c, 4, 76, 127
2, 677959, Note_on_c, 6, 78, 127
2, 678041, Note_off_c, 2, 62, 127
2, 678051, Note_off_c, 6, 78, 127
2, 678055, Note_on_c, 12, 71, 127
2, 678055, Note_on_c, 7, 79, 127
2, 678233, Note_off_c, 12, 71, 127
2, 678247, Note_on_c, 2, 62, 127
2, 678425, Note_off_c, 2, 62, 127
2, 678430, Note_off_c, 7, 79, 127
2, 678439, Note_on_c, 10, 69, 127
2, 678439, Note_on_c, 6, 78, 127
2, 678617, Note_off_c, 10, 69, 127
2, 678631, Note_on_c, 2, 62, 127
2, 678809, Note_off_c, 2, 62, 127
2, 678814, Note_off_c, 6, 78, 127
2, 678823, Note_on_c, 7, 67, 127
2, 678823, Note_on_c, 4, 76, 127
2, 679001, Note_off_c, 7, 67, 127
2, 679015, Note_on_c, 2, 62, 127
2, 679193, Note_off_c, 2, 62, 127
2, 679198, Note_off_c, 4, 76, 127
2, 679207, Note_on_c, 6, 66, 127
2, 679207, Note_on_c, 12, 83, 127
2, 679385, Note_off_c, 12, 83, 127
2, 679385, Note_off_c, 6, 66, 127
2, 679399, Note_on_c, 2, 62, 127
2, 679399, Note_on_c, 10, 81, 127
2, 679577, Note_off_c, 10, 81, 127
2, 679577, Note_off_c, 2, 62, 127
2, 679591, Note_on_c, 4, 64, 127
2, 679591, Note_on_c, 7, 79, 127
2, 679769, Note_off_c, 7, 79, 127
2, 679769, Note_off_c, 4, 64, 127
2, 679783, Note_on_c, 2, 62, 127
2, 679783, Note_on_c, 6, 78, 127
2, 679961, Note_off_c, 6, 78, 127
2, 679961, Note_off_c, 2, 62, 127
2, 679975, Note_on_c, 6, 66, 127
2, 679975, Note_on_c, 4, 76, 127
2, 680153, Note_off_c, 4, 76, 127
2, 680153, Note_off_c, 6, 66, 127
2, 680167, Note_on_c, 2, 62, 127
2, 680167, Note_on_c, 2, 74, 127
2, 680345, Note_off_c, 2, 74, 127
2, 680345, Note_off_c, 2, 62, 127
2, 680359, Note_on_c, 7, 67, 127
2, 680359, Note_on_c, 1, 73, 127
2, 680537, Note_off_c, 1, 73, 127
2, 680537, Note_off_c, 7, 67, 127
2, 680551, Note_on_c, 2, 62, 127
2, 680551, Note_on_c, 12, 71, 127
2, 680729, Note_off_c, 12, 71, 127
2, 680729, Note_off_c, 2, 62, 127
2, 680743, Note_on_c, 6, 66, 127
2, 680743, Note_on_c, 10, 69, 127
2, 680921, Note_off_c, 10, 69, 127
2, 680921, Note_off_c, 6, 66, 127
2, 680935, Note_on_c, 2, 62, 127
2, 680935, Note_on_c, 12, 71, 127
2, 681113, Note_off_c, 12, 71, 127
2, 681113, Note_off_c, 2, 62, 127
2, 681127, Note_on_c, 4, 64, 127
2, 681127, Note_on_c, 1, 73, 127
2, 681305, Note_off_c, 1, 73, 127
2, 681305, Note_off_c, 4, 64, 127
2, 681319, Note_on_c, 2, 62, 127
2, 681319, Note_on_c, 2, 74, 127
2, 681497, Note_off_c, 2, 74, 127
2, 681497, Note_off_c, 2, 62, 127
2, 681511, Note_on_c, 7, 67, 127
2, 681511, Note_on_c, 4, 76, 127
2, 681689, Note_off_c, 4, 76, 127
2, 681689, Note_off_c, 7, 67, 127
2, 681703, Note_on_c, 2, 62, 127
2, 681703, Note_on_c, 1, 73, 127
2, 681881, Note_off_c, 1, 73, 127
2, 681881, Note_off_c, 2, 62, 127
2, 681895, Note_on_c, 6, 66, 127
2, 681895, Note_on_c, 2, 74, 127
2, 682073, Note_off_c, 6, 66, 127
2, 682087, Note_on_c, 2, 62, 127
2, 682265, Note_off_c, 2, 62, 127
2, 682279, Note_on_c, 4, 64, 127
2, 682457, Note_off_c, 4, 64, 127
2, 682471, Note_on_c, 2, 62, 127
2, 682649, Note_off_c, 2, 62, 127
2, 682659, Note_off_c, 2, 74, 127
2, 682663, Note_on_c, 6, 66, 127
2, 682663, Note_on_c, 10, 81, 127
2, 682841, Note_off_c, 6, 66, 127
2, 682855, Note_on_c, 2, 62, 127
2, 683033, Note_off_c, 2, 62, 127
2, 683038, Note_off_c, 10, 81, 127
2, 683047, Note_on_c, 6, 66, 127
2, 683047, Note_on_c, 10, 81, 127
2, 683225, Note_off_c, 6, 66, 127
2, 683239, Note_on_c, 10, 69, 127
2, 683417, Note_off_c, 10, 69, 127
2, 683422, Note_off_c, 10, 81, 127
2, 683431, Note_on_c, 2, 74, 127
2, 683431, Note_on_c, 12, 83, 127
2, 683523, Note_off_c, 12, 83, 127
2, 683527, Note_on_c, 10, 81, 127
2, 683609, Note_off_c, 2, 74, 127
2, 683619, Note_off_c, 10, 81, 127
2, 683623, Note_on_c, 10, 69, 127
2, 683623, Note_on_c, 12, 83, 127
2, 683715, Note_off_c, 12, 83, 127
2, 683719, Note_on_c, 10, 81, 127
2, 683801, Note_off_c, 10, 69, 127
2, 683811, Note_off_c, 10, 81, 127
2, 683815, Note_on_c, 6, 66, 127
2, 683815, Note_on_c, 12, 83, 127
2, 683907, Note_off_c, 12, 83, 127
2, 683911, Note_on_c, 10, 81, 127
2, 683993, Note_off_c, 6, 66, 127
2, 684003, Note_off_c, 10, 81, 127
2, 684007, Note_on_c, 2, 62, 127
2, 684007, Note_on_c, 7, 79, 127
2, 684099, Note_off_c, 7, 79, 127
2, 684103, Note_on_c, 10, 81, 127
2, 684185, Note_off_c, 2, 62, 127
2, 684195, Note_off_c, 10, 81, 127
2, 684199, Note_on_c, 7, 67, 127
2, 684199, Note_on_c, 12, 83, 127
2, 684377, Note_off_c, 12, 83, 127
2, 684377, Note_off_c, 7, 67, 127
2, 684391, Note_on_c, 2, 62, 127
2, 684391, Note_on_c, 10, 81, 127
2, 684569, Note_off_c, 10, 81, 127
2, 684569, Note_off_c, 2, 62, 127
2, 684583, Note_on_c, 10, 69, 127
2, 684583, Note_on_c, 7, 79, 127
2, 684761, Note_off_c, 7, 79, 127
2, 684761, Note_off_c, 10, 69, 127
2, 684775, Note_on_c, 2, 62, 127
2, 684775, Note_on_c, 6, 78, 127
2, 684953, Note_off_c, 6, 78, 127
2, 684953, Note_off_c, 2, 62, 127
2, 684967, Note_on_c, 12, 71, 127
2, 684967, Note_on_c, 7, 79, 127
2, 685145, Note_off_c, 12, 71, 127
2, 685159, Note_on_c, 2, 62, 127
2, 685337, Note_off_c, 2, 62, 127
2, 685342, Note_off_c, 7, 79, 127
2, 685351, Note_on_c, 0, 72, 127
2, 685351, Note_on_c, 2, 74, 127
2, 685529, Note_off_c, 0, 72, 127
2, 685543, Note_on_c, 2, 62, 127
2, 685721, Note_off_c, 2, 62, 127
2, 685726, Note_off_c, 2, 74, 127
2, 685735, Note_on_c, 12, 71, 127
2, 685735, Note_on_c, 7, 79, 127
2, 685913, Note_off_c, 12, 71, 127
2, 685927, Note_on_c, 2, 62, 127
2, 686105, Note_off_c, 2, 62, 127
2, 686110, Note_off_c, 7, 79, 127
2, 686119, Note_on_c, 10, 69, 127
2, 686119, Note_on_c, 10, 81, 127
2, 686297, Note_off_c, 10, 69, 127
2, 686311, Note_on_c, 2, 62, 127
2, 686489, Note_off_c, 2, 62, 127
2, 686494, Note_off_c, 10, 81, 127
2, 686503, Note_on_c, 7, 67, 127
2, 686503, Note_on_c, 12, 83, 127
2, 686681, Note_off_c, 12, 83, 127
2, 686681, Note_off_c, 7, 67, 127
2, 686695, Note_on_c, 2, 62, 127
2, 686695, Note_on_c, 0, 84, 127
2, 686873, Note_off_c, 0, 84, 127
2, 686873, Note_off_c, 2, 62, 127
2, 686887, Note_on_c, 10, 69, 127
2, 686887, Note_on_c, 12, 83, 127
2, 687065, Note_off_c, 12, 83, 127
2, 687065, Note_off_c, 10, 69, 127
2, 687079, Note_on_c, 2, 62, 127
2, 687079, Note_on_c, 10, 81, 127
2, 687257, Note_off_c, 10, 81, 127
2, 687257, Note_off_c, 2, 62, 127
2, 687271, Note_on_c, 12, 71, 127
2, 687271, Note_on_c, 7, 79, 127
2, 687449, Note_off_c, 7, 79, 127
2, 687449, Note_off_c, 12, 71, 127
2, 687463, Note_on_c, 2, 62, 127
2, 687463, Note_on_c, 6, 78, 127
2, 687641, Note_off_c, 6, 78, 127
2, 687641, Note_off_c, 2, 62, 127
2, 687655, Note_on_c, 0, 72, 127
2, 687655, Note_on_c, 4, 76, 127
2, 687833, Note_off_c, 4, 76, 127
2, 687833, Note_off_c, 0, 72, 127
2, 687847, Note_on_c, 2, 62, 127
2, 687847, Note_on_c, 2, 74, 127
2, 688025, Note_off_c, 2, 74, 127
2, 688025, Note_off_c, 2, 62, 127
2, 688039, Note_on_c, 12, 71, 127
2, 688039, Note_on_c, 7, 79, 127
2, 688217, Note_off_c, 12, 71, 127
2, 688231, Note_on_c, 2, 62, 127
2, 688409, Note_off_c, 2, 62, 127
2, 688423, Note_on_c, 10, 69, 127
2, 688601, Note_off_c, 10, 69, 127
2, 688615, Note_on_c, 2, 62, 127
2, 688793, Note_off_c, 2, 62, 127
2, 688803, Note_off_c, 7, 79, 127
2, 688807, Note_on_c, 7, 67, 127
2, 688807, Note_on_c, 4, 76, 127
2, 688985, Note_off_c, 7, 67, 127
2, 688999, Note_on_c, 2, 62, 127
2, 689177, Note_off_c, 2, 62, 127
2, 689182, Note_off_c, 4, 76, 127
2, 689191, Note_on_c, 6, 66, 127
2, 689191, Note_on_c, 4, 76, 127
2, 689369, Note_off_c, 6, 66, 127
2, 689383, Note_on_c, 2, 62, 127
2, 689561, Note_off_c, 2, 62, 127
2, 689566, Note_off_c, 4, 76, 127
2, 689575, Note_on_c, 7, 67, 127
2, 689575, Note_on_c, 4, 76, 127
2, 689667, Note_off_c, 4, 76, 127
2, 689671, Note_on_c, 2, 74, 127
2, 689753, Note_off_c, 7, 67, 127
2, 689763, Note_off_c, 2, 74, 127
2, 689767, Note_on_c, 2, 62, 127
2, 689767, Note_on_c, 4, 76, 127
2, 689945, Note_off_c, 2, 62, 127
2, 689959, Note_on_c, 10, 69, 127
2, 690137, Note_off_c, 10, 69, 127
2, 690142, Note_off_c, 4, 76, 127
2, 690151, Note_on_c, 2, 62, 127
2, 690151, Note_on_c, 6, 78, 127
2, 690329, Note_off_c, 6, 78, 127
2, 690329, Note_off_c, 2, 62, 127
2, 690343, Note_on_c, 12, 71, 127
2, 690343, Note_on_c, 7, 79, 127
2, 690521, Note_off_c, 7, 79, 127
2, 690521, Note_off_c, 12, 71, 127
2, 690535, Note_on_c, 2, 62, 127
2, 690535, Note_on_c, 10, 81, 127
2, 690713, Note_off_c, 10, 81, 127
2, 690713, Note_off_c, 2, 62, 127
2, 690727, Note_on_c, 10, 69, 127
2, 690727, Note_on_c, 7, 79, 127
2, 690905, Note_off_c, 7, 79, 127
2, 690905, Note_off_c, 10, 69, 127
2, 690919, Note_on_c, 2, 62, 127
2, 690919, Note_on_c, 6, 78, 127
2, 691097, Note_off_c, 6, 78, 127
2, 691097, Note_off_c, 2, 62, 127
2, 691111, Note_on_c, 7, 67, 127
2, 691111, Note_on_c, 4, 76, 127
2, 691289, Note_off_c, 4, 76, 127
2, 691289, Note_off_c, 7, 67, 127
2, 691303, Note_on_c, 2, 62, 127
2, 691303, Note_on_c, 2, 74, 127
2, 691481, Note_off_c, 2, 74, 127
2, 691481, Note_off_c, 2, 62, 127
2, 691495, Note_on_c, 12, 71, 127
2, 691495, Note_on_c, 1, 73, 127
2, 691673, Note_off_c, 1, 73, 127
2, 691673, Note_off_c, 12, 71, 127
2, 691687, Note_on_c, 2, 62, 127
2, 691687, Note_on_c, 2, 74, 127
2, 691865, Note_off_c, 2, 74, 127
2, 691865, Note_off_c, 2, 62, 127
2, 691879, Note_on_c, 10, 69, 127
2, 691879, Note_on_c, 4, 76, 127
2, 692057, Note_off_c, 4, 76, 127
2, 692057, Note_off_c, 10, 69, 127
2, 692071, Note_on_c, 2, 62, 127
2, 692071, Note_on_c, 6, 78, 127
2, 692249, Note_off_c, 6, 78, 127
2, 692249, Note_off_c, 2, 62, 127
2, 692263, Note_on_c, 7, 67, 127
2, 692263, Note_on_c, 7, 79, 127
2, 692441, Note_off_c, 7, 79, 127
2, 692441, Note_off_c, 7, 67, 127
2, 692455, Note_on_c, 2, 62, 127
2, 692455, Note_on_c, 12, 83, 127
2, 692633, Note_off_c, 12, 83, 127
2, 692633, Note_off_c, 2, 62, 127
2, 692647, Note_on_c, 6, 66, 127
2, 692647, Note_on_c, 10, 81, 127
2, 692825, Note_off_c, 10, 81, 127
2, 692825, Note_off_c, 6, 66, 127
2, 692839, Note_on_c, 2, 62, 127
2, 692839, Note_on_c, 7, 79, 127
2, 693017, Note_off_c, 7, 79, 127
2, 693017, Note_off_c, 2, 62, 127
2, 693031, Note_on_c, 7, 67, 127
2, 693031, Note_on_c, 6, 78, 127
2, 693209, Note_off_c, 6, 78, 127
2, 693209, Note_off_c, 7, 67, 127
2, 693223, Note_on_c, 2, 62, 127
2, 693223, Note_on_c, 4, 76, 127
2, 693401, Note_off_c, 4, 76, 127
2, 693401, Note_off_c, 2, 62, 127
2, 693415, Note_on_c, 10, 69, 127
2, 693415, Note_on_c, 6, 78, 127
2, 693593, Note_off_c, 6, 78, 127
2, 693593, Note_off_c, 10, 69, 127
2, 693607, Note_on_c, 2, 62, 127
2, 693607, Note_on_c, 10, 81, 127
2, 693785, Note_off_c, 10, 81, 127
2, 693785, Note_off_c, 2, 62, 127
2, 693799, Note_on_c, 12, 71, 127
2, 693799, Note_on_c, 6, 78, 127
2, 693977, Note_off_c, 6, 78, 127
2, 693977, Note_off_c, 12, 71, 127
2, 693991, Note_on_c, 2, 62, 127
2, 693991, Note_on_c, 10, 81, 127
2, 694169, Note_off_c, 10, 81, 127
2, 694169, Note_off_c, 2, 62, 127
2, 694183, Note_on_c, 1, 73, 127
2, 694183, Note_on_c, 4, 76, 127
2, 694361, Note_off_c, 1, 73, 127
2, 694375, Note_on_c, 2, 62, 127
2, 694553, Note_off_c, 2, 62, 127
2, 694567, Note_on_c, 7, 67, 127
2, 694745, Note_off_c, 7, 67, 127
2, 694759, Note_on_c, 1, 73, 127
2, 694937, Note_off_c, 1, 73, 127
2, 694947, Note_off_c, 4, 76, 127
2, 694951, Note_on_c, 2, 74, 127
2, 694951, Note_on_c, 6, 78, 127
2, 695129, Note_off_c, 2, 74, 127
2, 695143, Note_on_c, 10, 69, 127
2, 695321, Note_off_c, 10, 69, 127
2, 695326, Note_off_c, 6, 78, 127
2, 695335, Note_on_c, 2, 62, 127
2, 695335, Note_on_c, 6, 78, 127
2, 695513, Note_off_c, 2, 62, 127
2, 695527, Note_on_c, 10, 69, 127
2, 695705, Note_off_c, 10, 69, 127
2, 695710, Note_off_c, 6, 78, 127
2, 695719, Note_on_c, 2, 74, 127
2, 695719, Note_on_c, 7, 79, 127
2, 695811, Note_off_c, 7, 79, 127
2, 695815, Note_on_c, 6, 78, 127
2, 695897, Note_off_c, 2, 74, 127
2, 695907, Note_off_c, 6, 78, 127
2, 695911, Note_on_c, 2, 62, 127
2, 695911, Note_on_c, 7, 79, 127
2, 696003, Note_off_c, 7, 79, 127
2, 696007, Note_on_c, 6, 78, 127
2, 696089, Note_off_c, 2, 62, 127
2, 696099, Note_off_c, 6, 78, 127
2, 696103, Note_on_c, 0, 72, 127
2, 696103, Note_on_c, 7, 79, 127
2, 696195, Note_off_c, 7, 79, 127
2, 696199, Note_on_c, 6, 78, 127
2, 696281, Note_off_c, 0, 72, 127
2, 696291, Note_off_c, 6, 78, 127
2, 696295, Note_on_c, 2, 62, 127
2, 696295, Note_on_c, 4, 76, 127
2, 696387, Note_off_c, 4, 76, 127
2, 696391, Note_on_c, 6, 78, 127
2, 696473, Note_off_c, 2, 62, 127
2, 696483, Note_off_c, 6, 78, 127
2, 696487, Note_on_c, 12, 71, 127
2, 696487, Note_on_c, 7, 79, 127
2, 696665, Note_off_c, 12, 71, 127
2, 696679, Note_on_c, 2, 62, 127
2, 696857, Note_off_c, 2, 62, 127
2, 696862, Note_off_c, 7, 79, 127
2, 696871, Note_on_c, 10, 69, 127
2, 696871, Note_on_c, 6, 78, 127
2, 697049, Note_off_c, 10, 69, 127
2, 697063, Note_on_c, 2, 62, 127
2, 697241, Note_off_c, 2, 62, 127
2, 697246, Note_off_c, 6, 78, 127
2, 697255, Note_on_c, 7, 67, 127
2, 697255, Note_on_c, 4, 76, 127
2, 697433, Note_off_c, 7, 67, 127
2, 697447, Note_on_c, 2, 62, 127
2, 697625, Note_off_c, 2, 62, 127
2, 697639, Note_on_c, 6, 66, 127
2, 697817, Note_off_c, 6, 66, 127
2, 697831, Note_on_c, 2, 62, 127
2, 698009, Note_off_c, 2, 62, 127
2, 698019, Note_off_c, 4, 76, 127
2, 698023, Note_on_c, 7, 67, 127
2, 698023, Note_on_c, 4, 76, 127
2, 698201, Note_off_c, 7, 67, 127
2, 698215, Note_on_c, 2, 62, 127
2, 698393, Note_off_c, 2, 62, 127
2, 698398, Note_off_c, 4, 76, 127
2, 698407, Note_on_c, 4, 64, 127
2, 698407, Note_on_c, 4, 76, 127
2, 698585, Note_off_c, 4, 64, 127
2, 698599, Note_on_c, 7, 67, 127
2, 698777, Note_off_c, 7, 67, 127
2, 698782, Note_off_c, 4, 76, 127
2, 698791, Note_on_c, 1, 73, 127
2, 698791, Note_on_c, 6, 78, 127
2, 698883, Note_off_c, 6, 78, 127
2, 698887, Note_on_c, 4, 76, 127
2, 698969, Note_off_c, 1, 73, 127
2, 698979, Note_off_c, 4, 76, 127
2, 698983, Note_on_c, 2, 62, 127
2, 698983, Note_on_c, 6, 78, 127
2, 699075, Note_off_c, 6, 78, 127
2, 699079, Note_on_c, 4, 76, 127
2, 699161, Note_off_c, 2, 62, 127
2, 699171, Note_off_c, 4, 76, 127
2, 699175, Note_on_c, 12, 71, 127
2, 699175, Note_on_c, 6, 78, 127
2, 699267, Note_off_c, 6, 78, 127
2, 699271, Note_on_c, 4, 76, 127
2, 699353, Note_off_c, 12, 71, 127
2, 699363, Note_off_c, 4, 76, 127
2, 699367, Note_on_c, 2, 62, 127
2, 699367, Note_on_c, 2, 74, 127
2, 699459, Note_off_c, 2, 74, 127
2, 699463, Note_on_c, 4, 76, 127
2, 699545, Note_off_c, 2, 62, 127
2, 699555, Note_off_c, 4, 76, 127
2, 699559, Note_on_c, 10, 69, 127
2, 699559, Note_on_c, 6, 78, 127
2, 699737, Note_off_c, 6, 78, 127
2, 699737, Note_off_c, 10, 69, 127
2, 699751, Note_on_c, 2, 62, 127
2, 699751, Note_on_c, 2, 74, 127
2, 699929, Note_off_c, 2, 74, 127
2, 699929, Note_off_c, 2, 62, 127
2, 699943, Note_on_c, 7, 67, 127
2, 699943, Note_on_c, 4, 76, 127
2, 700121, Note_off_c, 4, 76, 127
2, 700121, Note_off_c, 7, 67, 127
2, 700135, Note_on_c, 2, 62, 127
2, 700135, Note_on_c, 1, 73, 127
2, 700313, Note_off_c, 1, 73, 127
2, 700313, Note_off_c, 2, 62, 127
2, 700327, Note_on_c, 6, 66, 127
2, 700327, Note_on_c, 2, 74, 127
2, 700505, Note_off_c, 2, 74, 127
2, 700505, Note_off_c, 6, 66, 127
2, 700519, Note_on_c, 2, 62, 127
2, 700519, Note_on_c, 10, 69, 127
2, 700697, Note_off_c, 10, 69, 127
2, 700697, Note_off_c, 2, 62, 127
2, 700711, Note_on_c, 6, 66, 127
2, 700711, Note_on_c, 2, 74, 127
2, 700889, Note_off_c, 2, 74, 127
2, 700889, Note_off_c, 6, 66, 127
2, 700903, Note_on_c, 7, 67, 127
2, 700903, Note_on_c, 4, 76, 127
2, 701081, Note_off_c, 4, 76, 127
2, 701081, Note_off_c, 7, 67, 127
2, 701095, Note_on_c, 10, 69, 127
2, 701095, Note_on_c, 6, 78, 127
2, 701273, Note_off_c, 10, 69, 127
2, 701287, Note_on_c, 2, 62, 127
2, 701465, Note_off_c, 2, 62, 127
2, 701470, Note_off_c, 6, 78, 127
2, 701479, Note_on_c, 6, 66, 127
2, 701479, Note_on_c, 6, 78, 127
2, 701657, Note_off_c, 6, 66, 127
2, 701671, Note_on_c, 10, 69, 127
2, 701849, Note_off_c, 10, 69, 127
2, 701854, Note_off_c, 6, 78, 127
2, 701863, Note_on_c, 2, 74, 127
2, 701863, Note_on_c, 7, 79, 127
2, 701955, Note_off_c, 7, 79, 127
2, 701959, Note_on_c, 6, 78, 127
2, 702041, Note_off_c, 2, 74, 127
2, 702051, Note_off_c, 6, 78, 127
2, 702055, Note_on_c, 2, 62, 127
2, 702055, Note_on_c, 7, 79, 127
2, 702147, Note_off_c, 7, 79, 127
2, 702151, Note_on_c, 6, 78, 127
2, 702233, Note_off_c, 2, 62, 127
2, 702243, Note_off_c, 6, 78, 127
2, 702247, Note_on_c, 10, 69, 127
2, 702247, Note_on_c, 7, 79, 127
2, 702339, Note_off_c, 7, 79, 127
2, 702343, Note_on_c, 6, 78, 127
2, 702425, Note_off_c, 10, 69, 127
2, 702435, Note_off_c, 6, 78, 127
2, 702439, Note_on_c, 2, 62, 127
2, 702439, Note_on_c, 4, 76, 127
2, 702531, Note_off_c, 4, 76, 127
2, 702535, Note_on_c, 6, 78, 127
2, 702617, Note_off_c, 2, 62, 127
2, 702627, Note_off_c, 6, 78, 127
2, 702631, Note_on_c, 12, 71, 127
2, 702631, Note_on_c, 7, 79, 127
2, 702809, Note_off_c, 7, 79, 127
2, 702809, Note_off_c, 12, 71, 127
2, 702823, Note_on_c, 2, 62, 127
2, 702823, Note_on_c, 6, 78, 127
2, 703001, Note_off_c, 6, 78, 127
2, 703001, Note_off_c, 2, 62, 127
2, 703015, Note_on_c, 6, 66, 127
2, 703015, Note_on_c, 4, 76, 127
2, 703193, Note_off_c, 4, 76, 127
2, 703193, Note_off_c, 6, 66, 127
2, 703207, Note_on_c, 2, 62, 127
2, 703207, Note_on_c, 2, 74, 127
2, 703385, Note_off_c, 2, 74, 127
2, 703385, Note_off_c, 2, 62, 127
2, 703399, Note_on_c, 8, 68, 127
2, 703399, Note_on_c, 12, 83, 127
2, 703577, Note_off_c, 12, 83, 127
2, 703577, Note_off_c, 8, 68, 127
2, 703591, Note_on_c, 2, 62, 127
2, 703591, Note_on_c, 10, 81, 127
2, 703769, Note_off_c, 10, 81, 127
2, 703769, Note_off_c, 2, 62, 127
2, 703783, Note_on_c, 10, 69, 127
2, 703783, Note_on_c, 8, 80, 127
2, 703961, Note_off_c, 8, 80, 127
2, 703961, Note_off_c, 10, 69, 127
2, 703975, Note_on_c, 2, 62, 127
2, 703975, Note_on_c, 6, 78, 127
2, 704153, Note_off_c, 6, 78, 127
2, 704153, Note_off_c, 2, 62, 127
2, 704167, Note_on_c, 12, 71, 127
2, 704167, Note_on_c, 8, 80, 127
2, 704345, Note_off_c, 8, 80, 127
2, 704345, Note_off_c, 12, 71, 127
2, 704359, Note_on_c, 2, 62, 127
2, 704359, Note_on_c, 10, 81, 127
2, 704537, Note_off_c, 10, 81, 127
2, 704537, Note_off_c, 2, 62, 127
2, 704551, Note_on_c, 2, 74, 127
2, 704551, Note_on_c, 12, 83, 127
2, 704729, Note_off_c, 12, 83, 127
2, 704729, Note_off_c, 2, 74, 127
2, 704743, Note_on_c, 2, 62, 127
2, 704743, Note_on_c, 8, 80, 127
2, 704921, Note_off_c, 8, 80, 127
2, 704921, Note_off_c, 2, 62, 127
2, 704935, Note_on_c, 1, 73, 127
2, 704935, Note_on_c, 10, 81, 127
2, 705126, Note_off_c, 10, 81, 127
2, 705126, Note_off_c, 1, 73, 127
2, 705130, Note_on_c, 2, 62, 127
2, 705130, Note_on_c, 6, 78, 127
2, 705321, Note_off_c, 6, 78, 127
2, 705321, Note_off_c, 2, 62, 127
2, 705325, Note_on_c, 12, 71, 127
2, 705325, Note_on_c, 4, 76, 127
2, 705516, Note_off_c, 4, 76, 127
2, 705516, Note_off_c, 12, 71, 127
2, 705520, Note_on_c, 2, 62, 127
2, 705520, Note_on_c, 2, 74, 127
2, 705711, Note_off_c, 2, 74, 127
2, 705711, Note_off_c, 2, 62, 127
2, 705715, Note_on_c, 10, 69, 127
2, 705715, Note_on_c, 1, 73, 127
2, 705917, Note_off_c, 1, 73, 127
2, 705917, Note_off_c, 10, 69, 127
2, 705921, Note_on_c, 2, 62, 127
2, 705921, Note_on_c, 12, 71, 127
2, 706123, Note_off_c, 12, 71, 127
2, 706123, Note_off_c, 2, 62, 127
2, 706127, Note_on_c, 7, 67, 127
2, 706127, Note_on_c, 1, 73, 127
2, 706344, Note_off_c, 1, 73, 127
2, 706344, Note_off_c, 7, 67, 127
2, 706365, Note_on_c, 2, 62, 127
2, 706365, Note_on_c, 10, 69, 127
2, 706590, Note_off_c, 10, 69, 127
2, 706590, Note_off_c, 2, 62, 127
2, 706627, Note_on_c, 2, 74, 127
2, 706627, Note_on_c, 2, 62, 127
2, 706627, Note_on_c, 6, 66, 127
2, 708724, Note_off_c, 6, 66, 127
2, 708724, Note_off_c, 2, 62, 127
2, 708724, Note_off_c, 2, 74, 127
2, 710579, Note_on_c, 2, 62, 127
2, 710715, Note_off_c, 2, 62, 127
2, 710716, Note_on_c, 1, 61, 127
2, 710852, Note_off_c, 1, 61, 127
2, 710853, Note_on_c, 2, 62, 127
2, 710989, Note_off_c, 2, 62, 127
2, 710990, Note_on_c, 4, 64, 127
2, 711126, Note_off_c, 4, 64, 127
2, 711127, Note_on_c, 1, 61, 127
2, 711263, Note_off_c, 1, 61, 127
2, 711264, Note_on_c, 2, 62, 127
2, 711400, Note_off_c, 2, 62, 127
2, 711401, Note_on_c, 5, 65, 127
2, 711537, Note_off_c, 5, 65, 127
2, 711538, Note_on_c, 1, 61, 127
2, 711674, Note_off_c, 1, 61, 127
2, 711675, Note_on_c, 2, 62, 127
2, 711811, Note_off_c, 2, 62, 127
2, 711812, Note_on_c, 7, 67, 127
2, 711948, Note_off_c, 7, 67, 127
2, 711949, Note_on_c, 1, 61, 127
2, 712085, Note_off_c, 1, 61, 127
2, 712086, Note_on_c, 2, 62, 127
2, 712222, Note_off_c, 2, 62, 127
2, 712223, Note_on_c, 10, 69, 127
2, 712359, Note_off_c, 10, 69, 127
2, 712360, Note_on_c, 1, 61, 127
2, 712496, Note_off_c, 1, 61, 127
2, 712497, Note_on_c, 2, 62, 127
2, 712633, Note_off_c, 2, 62, 127
2, 712634, Note_on_c, 11, 70, 127
2, 712770, Note_off_c, 11, 70, 127
2, 712771, Note_on_c, 10, 69, 127
2, 712907, Note_off_c, 10, 69, 127
2, 712908, Note_on_c, 7, 67, 127
2, 713044, Note_off_c, 7, 67, 127
2, 713045, Note_on_c, 5, 65, 127
2, 713181, Note_off_c, 5, 65, 127
2, 713182, Note_on_c, 4, 64, 127
2, 713318, Note_off_c, 4, 64, 127
2, 713319, Note_on_c, 2, 62, 127
2, 713455, Note_off_c, 2, 62, 127
2, 713456, Note_on_c, 8, 68, 127
2, 713592, Note_off_c, 8, 68, 127
2, 713593, Note_on_c, 10, 69, 127
2, 713729, Note_off_c, 10, 69, 127
2, 713730, Note_on_c, 12, 71, 127
2, 713866, Note_off_c, 12, 71, 127
2, 713867, Note_on_c, 0, 72, 127
2, 713867, Note_on_c, 10, 57, 127
2, 714003, Note_off_c, 10, 57, 127
2, 714004, Note_on_c, 8, 56, 127
2, 714140, Note_off_c, 8, 56, 127
2, 714141, Note_on_c, 10, 57, 127
2, 714231, Note_off_c, 0, 72, 127
2, 714277, Note_off_c, 10, 57, 127
2, 714278, Note_on_c, 8, 68, 127
2, 714278, Note_on_c, 12, 59, 127
2, 714414, Note_off_c, 12, 59, 127
2, 714415, Note_on_c, 8, 56, 127
2, 714551, Note_off_c, 8, 56, 127
2, 714552, Note_on_c, 10, 57, 127
2, 714642, Note_off_c, 8, 68, 127
2, 714688, Note_off_c, 10, 57, 127
2, 714689, Note_on_c, 10, 69, 127
2, 714689, Note_on_c, 0, 60, 127
2, 714825, Note_off_c, 0, 60, 127
2, 714826, Note_on_c, 8, 56, 127
2, 714962, Note_off_c, 8, 56, 127
2, 714963, Note_on_c, 10, 57, 127
2, 715053, Note_off_c, 10, 69, 127
2, 715099, Note_off_c, 10, 57, 127
2, 715100, Note_on_c, 12, 71, 127
2, 715100, Note_on_c, 2, 62, 127
2, 715236, Note_off_c, 2, 62, 127
2, 715237, Note_on_c, 8, 56, 127
2, 715373, Note_off_c, 8, 56, 127
2, 715374, Note_on_c, 10, 57, 127
2, 715464, Note_off_c, 12, 71, 127
2, 715510, Note_off_c, 10, 57, 127
2, 715511, Note_on_c, 0, 72, 127
2, 715511, Note_on_c, 4, 64, 127
2, 715647, Note_off_c, 4, 64, 127
2, 715648, Note_on_c, 8, 56, 127
2, 715784, Note_off_c, 8, 56, 127
2, 715785, Note_on_c, 10, 57, 127
2, 715875, Note_off_c, 0, 72, 127
2, 715921, Note_off_c, 10, 57, 127
2, 715922, Note_on_c, 2, 74, 127
2, 715922, Note_on_c, 5, 65, 127
2, 716058, Note_off_c, 5, 65, 127
2, 716058, Note_off_c, 2, 74, 127
2, 716059, Note_on_c, 4, 76, 127
2, 716059, Note_on_c, 4, 64, 127
2, 716195, Note_off_c, 4, 64, 127
2, 716195, Note_off_c, 4, 76, 127
2, 716196, Note_on_c, 5, 77, 127
2, 716196, Note_on_c, 2, 62, 127
2, 716332, Note_off_c, 2, 62, 127
2, 716332, Note_off_c, 5, 77, 127
2, 716333, Note_on_c, 4, 76, 127
2, 716333, Note_on_c, 0, 60, 127
2, 716469, Note_off_c, 0, 60, 127
2, 716469, Note_off_c, 4, 76, 127
2, 716470, Note_on_c, 2, 74, 127
2, 716470, Note_on_c, 12, 59, 127
2, 716606, Note_off_c, 12, 59, 127
2, 716606, Note_off_c, 2, 74, 127
2, 716607, Note_on_c, 0, 72, 127
2, 716607, Note_on_c, 10, 57, 127
2, 716743, Note_off_c, 10, 57, 127
2, 716743, Note_off_c, 0, 72, 127
2, 716744, Note_on_c, 0, 72, 127
2, 716744, Note_on_c, 3, 63, 127
2, 716880, Note_off_c, 3, 63, 127
2, 716880, Note_off_c, 0, 72, 127
2, 716881, Note_on_c, 12, 71, 127
2, 716881, Note_on_c, 4, 64, 127
2, 717017, Note_off_c, 4, 64, 127
2, 717017, Note_off_c, 12, 71, 127
2, 717018, Note_on_c, 10, 69, 127
2, 717018, Note_on_c, 6, 66, 127
2, 717154, Note_off_c, 6, 66, 127
2, 717154, Note_off_c, 10, 69, 127
2, 717155, Note_on_c, 10, 69, 127
2, 717155, Note_on_c, 4, 64, 127
2, 717291, Note_off_c, 10, 69, 127
2, 717292, Note_on_c, 7, 67, 127
2, 717428, Note_off_c, 7, 67, 127
2, 717429, Note_on_c, 6, 66, 127
2, 717519, Note_off_c, 4, 64, 127
2, 717565, Note_off_c, 6, 66, 127
2, 717566, Note_on_c, 7, 67, 127
2, 717566, Note_on_c, 3, 63, 127
2, 717634, Note_off_c, 7, 67, 127
2, 717635, Note_on_c, 6, 66, 127
2, 717703, Note_off_c, 6, 66, 127
2, 717703, Note_off_c, 3, 63, 127
2, 717704, Note_on_c, 7, 67, 127
2, 717704, Note_on_c, 2, 62, 127
2, 717772, Note_off_c, 7, 67, 127
2, 717773, Note_on_c, 6, 66, 127
2, 717841, Note_off_c, 6, 66, 127
2, 717841, Note_off_c, 2, 62, 127
2, 717842, Note_on_c, 4, 64, 127
2, 717842, Note_on_c, 0, 60, 127
2, 717910, Note_off_c, 4, 64, 127
2, 717911, Note_on_c, 6, 66, 127
2, 717979, Note_off_c, 6, 66, 127
2, 717979, Note_off_c, 0, 60, 127
2, 717980, Note_on_c, 7, 67, 127
2, 717980, Note_on_c, 11, 58, 127
2, 718116, Note_off_c, 11, 58, 127
2, 718116, Note_off_c, 7, 67, 127
2, 718117, Note_on_c, 10, 69, 127
2, 718117, Note_on_c, 10, 57, 127
2, 718253, Note_off_c, 10, 57, 127
2, 718253, Note_off_c, 10, 69, 127
2, 718254, Note_on_c, 11, 70, 127
2, 718254, Note_on_c, 7, 55, 127
2, 718390, Note_off_c, 7, 55, 127
2, 718390, Note_off_c, 11, 70, 127
2, 718391, Note_on_c, 11, 70, 127
2, 718391, Note_on_c, 1, 61, 127
2, 718527, Note_off_c, 1, 61, 127
2, 718527, Note_off_c, 11, 70, 127
2, 718528, Note_on_c, 10, 69, 127
2, 718528, Note_on_c, 2, 62, 127
2, 718664, Note_off_c, 2, 62, 127
2, 718664, Note_off_c, 10, 69, 127
2, 718665, Note_on_c, 7, 67, 127
2, 718665, Note_on_c, 4, 64, 127
2, 718801, Note_off_c, 4, 64, 127
2, 718801, Note_off_c, 7, 67, 127
2, 718802, Note_on_c, 10, 69, 127
2, 718802, Note_on_c, 5, 65, 127
2, 718802, Note_on_c, 2, 50, 127
2, 718938, Note_off_c, 2, 50, 127
2, 718939, Note_on_c, 1, 49, 127
2, 719075, Note_off_c, 1, 49, 127
2, 719076, Note_on_c, 2, 50, 127
2, 719166, Note_off_c, 5, 65, 127
2, 719212, Note_off_c, 2, 50, 127
2, 719213, Note_on_c, 1, 61, 127
2, 719213, Note_on_c, 4, 52, 127
2, 719349, Note_off_c, 4, 52, 127
2, 719350, Note_on_c, 1, 49, 127
2, 719486, Note_off_c, 1, 49, 127
2, 719487, Note_on_c, 2, 50, 127
2, 719577, Note_off_c, 1, 61, 127
2, 719623, Note_off_c, 2, 50, 127
2, 719624, Note_on_c, 2, 62, 127
2, 719624, Note_on_c, 5, 53, 127
2, 719760, Note_off_c, 5, 53, 127
2, 719761, Note_on_c, 1, 49, 127
2, 719897, Note_off_c, 1, 49, 127
2, 719898, Note_on_c, 2, 50, 127
2, 719988, Note_off_c, 2, 62, 127
2, 720034, Note_off_c, 2, 50, 127
2, 720035, Note_on_c, 4, 64, 127
2, 720035, Note_on_c, 7, 55, 127
2, 720171, Note_off_c, 7, 55, 127
2, 720172, Note_on_c, 1, 49, 127
2, 720308, Note_off_c, 1, 49, 127
2, 720309, Note_on_c, 2, 50, 127
2, 720399, Note_off_c, 4, 64, 127
2, 720445, Note_off_c, 2, 50, 127
2, 720446, Note_on_c, 5, 65, 127
2, 720446, Note_on_c, 10, 57, 127
2, 720582, Note_off_c, 10, 57, 127
2, 720583, Note_on_c, 1, 49, 127
2, 720719, Note_off_c, 1, 49, 127
2, 720720, Note_on_c, 2, 50, 127
2, 720810, Note_off_c, 5, 65, 127
2, 720856, Note_off_c, 2, 50, 127
2, 720856, Note_off_c, 10, 69, 127
2, 720857, Note_on_c, 7, 67, 127
2, 720857, Note_on_c, 11, 58, 127
2, 720993, Note_off_c, 11, 58, 127
2, 720993, Note_off_c, 7, 67, 127
2, 720994, Note_on_c, 10, 69, 127
2, 720994, Note_on_c, 10, 57, 127
2, 721130, Note_off_c, 10, 57, 127
2, 721130, Note_off_c, 10, 69, 127
2, 721131, Note_on_c, 11, 70, 127
2, 721131, Note_on_c, 7, 55, 127
2, 721267, Note_off_c, 7, 55, 127
2, 721267, Note_off_c, 11, 70, 127
2, 721268, Note_on_c, 10, 69, 127
2, 721268, Note_on_c, 5, 53, 127
2, 721404, Note_off_c, 5, 53, 127
2, 721404, Note_off_c, 10, 69, 127
2, 721405, Note_on_c, 7, 67, 127
2, 721405, Note_on_c, 4, 52, 127
2, 721541, Note_off_c, 4, 52, 127
2, 721541, Note_off_c, 7, 67, 127
2, 721542, Note_on_c, 5, 65, 127
2, 721542, Note_on_c, 2, 50, 127
2, 721678, Note_off_c, 2, 50, 127
2, 721678, Note_off_c, 5, 65, 127
2, 721679, Note_on_c, 5, 65, 127
2, 721679, Note_on_c, 8, 56, 127
2, 721815, Note_off_c, 8, 56, 127
2, 721815, Note_off_c, 5, 65, 127
2, 721816, Note_on_c, 4, 64, 127
2, 721816, Note_on_c, 10, 57, 127
2, 721952, Note_off_c, 10, 57, 127
2, 721952, Note_off_c, 4, 64, 127
2, 721953, Note_on_c, 2, 62, 127
2, 721953, Note_on_c, 12, 59, 127
2, 722089, Note_off_c, 12, 59, 127
2, 722089, Note_off_c, 2, 62, 127
2, 722090, Note_on_c, 10, 69, 127
2, 722090, Note_on_c, 4, 64, 127
2, 722090, Note_on_c, 0, 60, 127
2, 722226, Note_off_c, 10, 69, 127
2, 722227, Note_on_c, 8, 68, 127
2, 722363, Note_off_c, 8, 68, 127
2, 722364, Note_on_c, 10, 69, 127
2, 722454, Note_off_c, 0, 60, 127
2, 722500, Note_off_c, 10, 69, 127
2, 722501, Note_on_c, 12, 71, 127
2, 722501, Note_on_c, 8, 56, 127
2, 722637, Note_off_c, 12, 71, 127
2, 722638, Note_on_c, 8, 68, 127
2, 722774, Note_off_c, 8, 68, 127
2, 722775, Note_on_c, 10, 69, 127
2, 722865, Note_off_c, 8, 56, 127
2, 722911, Note_off_c, 10, 69, 127
2, 722912, Note_on_c, 0, 72, 127
2, 722912, Note_on_c, 10, 57, 127
2, 723048, Note_off_c, 0, 72, 127
2, 723049, Note_on_c, 8, 68, 127
2, 723185, Note_off_c, 8, 68, 127
2, 723186, Note_on_c, 10, 69, 127
2, 723276, Note_off_c, 10, 57, 127
2, 723322, Note_off_c, 10, 69, 127
2, 723323, Note_on_c, 2, 74, 127
2, 723323, Note_on_c, 12, 59, 127
2, 723459, Note_off_c, 2, 74, 127
2, 723460, Note_on_c, 8, 68, 127
2, 723596, Note_off_c, 8, 68, 127
2, 723597, Note_on_c, 10, 69, 127
2, 723687, Note_off_c, 12, 59, 127
2, 723733, Note_off_c, 10, 69, 127
2, 723734, Note_on_c, 4, 76, 127
2, 723734, Note_on_c, 0, 60, 127
2, 723870, Note_off_c, 4, 76, 127
2, 723871, Note_on_c, 8, 68, 127
2, 724007, Note_off_c, 8, 68, 127
2, 724008, Note_on_c, 10, 69, 127
2, 724098, Note_off_c, 0, 60, 127
2, 724144, Note_off_c, 10, 69, 127
2, 724144, Note_off_c, 4, 64, 127
2, 724145, Note_on_c, 5, 77, 127
2, 724145, Note_on_c, 8, 68, 127
2, 724145, Note_on_c, 12, 59, 127
2, 724281, Note_off_c, 5, 77, 127
2, 724282, Note_on_c, 4, 76, 127
2, 724418, Note_off_c, 4, 76, 127
2, 724419, Note_on_c, 2, 74, 127
2, 724509, Note_off_c, 12, 59, 127
2, 724509, Note_off_c, 8, 68, 127
2, 724555, Note_off_c, 2, 74, 127
2, 724556, Note_on_c, 1, 73, 127
2, 724556, Note_on_c, 7, 67, 127
2, 724556, Note_on_c, 10, 57, 127
2, 724692, Note_off_c, 1, 73, 127
2, 724693, Note_on_c, 12, 71, 127
2, 724829, Note_off_c, 12, 71, 127
2, 724830, Note_on_c, 10, 69, 127
2, 724920, Note_off_c, 10, 57, 127
2, 724920, Note_off_c, 7, 67, 127
2, 724966, Note_off_c, 10, 69, 127
2, 724967, Note_on_c, 3, 75, 127
2, 724967, Note_on_c, 6, 66, 127
2, 724967, Note_on_c, 0, 60, 127
2, 725103, Note_off_c, 3, 75, 127
2, 725104, Note_on_c, 4, 76, 127
2, 725240, Note_off_c, 4, 76, 127
2, 725241, Note_on_c, 6, 78, 127
2, 725331, Note_off_c, 0, 60, 127
2, 725331, Note_off_c, 6, 66, 127
2, 725377, Note_off_c, 6, 78, 127
2, 725378, Note_on_c, 7, 79, 127
2, 725378, Note_on_c, 4, 64, 127
2, 725378, Note_on_c, 11, 58, 127
2, 725514, Note_off_c, 7, 79, 127
2, 725515, Note_on_c, 10, 81, 127
2, 725651, Note_off_c, 10, 81, 127
2, 725652, Note_on_c, 11, 82, 127
2, 725742, Note_off_c, 11, 58, 127
2, 725742, Note_off_c, 4, 64, 127
2, 725788, Note_off_c, 11, 82, 127
2, 725789, Note_on_c, 3, 75, 127
2, 725789, Note_on_c, 6, 66, 127
2, 725789, Note_on_c, 10, 57, 127
2, 725925, Note_off_c, 3, 75, 127
2, 725926, Note_on_c, 2, 74, 127
2, 726062, Note_off_c, 2, 74, 127
2, 726063, Note_on_c, 0, 72, 127
2, 726153, Note_off_c, 10, 57, 127
2, 726153, Note_off_c, 6, 66, 127
2, 726199, Note_off_c, 0, 72, 127
2, 726200, Note_on_c, 12, 71, 127
2, 726200, Note_on_c, 5, 65, 127
2, 726200, Note_on_c, 7, 55, 127
2, 726336, Note_off_c, 12, 71, 127
2, 726337, Note_on_c, 10, 69, 127
2, 726473, Note_off_c, 10, 69, 127
2, 726474, Note_on_c, 7, 67, 127
2, 726564, Note_off_c, 7, 55, 127
2, 726564, Note_off_c, 5, 65, 127
2, 726610, Note_off_c, 7, 67, 127
2, 726611, Note_on_c, 1, 73, 127
2, 726611, Note_on_c, 4, 64, 127
2, 726611, Note_on_c, 10, 57, 127
2, 726747, Note_off_c, 1, 73, 127
2, 726748, Note_on_c, 2, 74, 127
2, 726884, Note_off_c, 2, 74, 127
2, 726885, Note_on_c, 4, 76, 127
2, 726975, Note_off_c, 10, 57, 127
2, 726975, Note_off_c, 4, 64, 127
2, 727021, Note_off_c, 4, 76, 127
2, 727022, Note_on_c, 5, 77, 127
2, 727022, Note_on_c, 2, 62, 127
2, 727022, Note_on_c, 2, 50, 127
2, 727158, Note_off_c, 5, 77, 127
2, 727159, Note_on_c, 7, 79, 127
2, 727295, Note_off_c, 7, 79, 127
2, 727296, Note_on_c, 10, 81, 127
2, 727386, Note_off_c, 2, 62, 127
2, 727433, Note_on_c, 11, 70, 127
2, 727548, Note_off_c, 10, 81, 127
2, 727571, Note_on_c, 6, 78, 127
2, 727707, Note_off_c, 6, 78, 127
2, 727708, Note_on_c, 7, 79, 127
2, 727798, Note_off_c, 11, 70, 127
2, 727845, Note_on_c, 10, 69, 127
2, 727960, Note_off_c, 7, 79, 127
2, 727983, Note_on_c, 4, 76, 127
2, 728119, Note_off_c, 4, 76, 127
2, 728120, Note_on_c, 5, 77, 127
2, 728210, Note_off_c, 10, 69, 127
2, 728257, Note_on_c, 7, 67, 127
2, 728372, Note_off_c, 5, 77, 127
2, 728395, Note_on_c, 2, 74, 127
2, 728531, Note_off_c, 2, 74, 127
2, 728532, Note_on_c, 4, 76, 127
2, 728622, Note_off_c, 7, 67, 127
2, 728669, Note_on_c, 5, 65, 127
2, 728784, Note_off_c, 4, 76, 127
2, 728807, Note_on_c, 1, 73, 127
2, 728943, Note_off_c, 1, 73, 127
2, 728944, Note_on_c, 2, 74, 127
2, 729034, Note_off_c, 5, 65, 127
2, 729081, Note_on_c, 6, 66, 127
2, 729196, Note_off_c, 2, 74, 127
2, 729219, Note_on_c, 12, 71, 127
2, 729355, Note_off_c, 12, 71, 127
2, 729356, Note_on_c, 0, 72, 127
2, 729446, Note_off_c, 6, 66, 127
2, 729493, Note_on_c, 7, 67, 127
2, 729608, Note_off_c, 0, 72, 127
2, 729631, Note_on_c, 10, 69, 127
2, 729767, Note_off_c, 10, 69, 127
2, 729768, Note_on_c, 11, 70, 127
2, 729858, Note_off_c, 7, 67, 127
2, 729905, Note_on_c, 1, 61, 127
2, 730020, Note_off_c, 11, 70, 127
2, 730043, Note_on_c, 10, 69, 127
2, 730179, Note_off_c, 10, 69, 127
2, 730180, Note_on_c, 7, 67, 127
2, 730270, Note_off_c, 1, 61, 127
2, 730316, Note_off_c, 7, 67, 127
2, 730316, Note_off_c, 2, 50, 127
2, 730317, Note_on_c, 5, 65, 127
2, 730317, Note_on_c, 10, 57, 127
2, 730317, Note_on_c, 2, 38, 127
2, 730453, Note_off_c, 2, 38, 127
2, 730454, Note_on_c, 1, 37, 127
2, 730590, Note_off_c, 1, 37, 127
2, 730591, Note_on_c, 2, 38, 127
2, 730681, Note_off_c, 5, 65, 127
2, 730727, Note_off_c, 2, 38, 127
2, 730728, Note_on_c, 1, 61, 127
2, 730728, Note_on_c, 4, 40, 127
2, 730864, Note_off_c, 4, 40, 127
2, 730865, Note_on_c, 1, 37, 127
2, 731001, Note_off_c, 1, 37, 127
2, 731002, Note_on_c, 2, 38, 127
2, 731092, Note_off_c, 1, 61, 127
2, 731138, Note_off_c, 2, 38, 127
2, 731139, Note_on_c, 2, 62, 127
2, 731139, Note_on_c, 5, 41, 127
2, 731275, Note_off_c, 5, 41, 127
2, 731276, Note_on_c, 1, 37, 127
2, 731412, Note_off_c, 1, 37, 127
2, 731413, Note_on_c, 2, 38, 127
2, 731503, Note_off_c, 2, 62, 127
2, 731549, Note_off_c, 2, 38, 127
2, 731550, Note_on_c, 4, 64, 127
2, 731550, Note_on_c, 7, 43, 127
2, 731686, Note_off_c, 7, 43, 127
2, 731687, Note_on_c, 1, 37, 127
2, 731823, Note_off_c, 1, 37, 127
2, 731824, Note_on_c, 2, 38, 127
2, 731914, Note_off_c, 4, 64, 127
2, 731960, Note_off_c, 2, 38, 127
2, 731961, Note_on_c, 5, 65, 127
2, 731961, Note_on_c, 10, 45, 127
2, 732097, Note_off_c, 10, 45, 127
2, 732098, Note_on_c, 1, 37, 127
2, 732234, Note_off_c, 1, 37, 127
2, 732235, Note_on_c, 2, 38, 127
2, 732325, Note_off_c, 5, 65, 127
2, 732371, Note_off_c, 2, 38, 127
2, 732371, Note_off_c, 10, 57, 127
2, 732372, Note_on_c, 1, 73, 127
2, 732372, Note_on_c, 4, 64, 127
2, 732372, Note_on_c, 11, 46, 127
2, 732508, Note_off_c, 11, 46, 127
2, 732509, Note_on_c, 10, 45, 127
2, 732645, Note_off_c, 10, 45, 127
2, 732646, Note_on_c, 7, 43, 127
2, 732736, Note_off_c, 4, 64, 127
2, 732736, Note_off_c, 1, 73, 127
2, 732782, Note_off_c, 7, 43, 127
2, 732783, Note_on_c, 0, 72, 127
2, 732783, Note_on_c, 2, 62, 127
2, 732783, Note_on_c, 6, 42, 127
2, 732919, Note_off_c, 6, 42, 127
2, 732920, Note_on_c, 4, 40, 127
2, 733056, Note_off_c, 4, 40, 127
2, 733057, Note_on_c, 2, 38, 127
2, 733147, Note_off_c, 2, 62, 127
2, 733147, Note_off_c, 0, 72, 127
2, 733193, Note_off_c, 2, 38, 127
2, 733194, Note_on_c, 12, 71, 127
2, 733194, Note_on_c, 5, 65, 127
2, 733194, Note_on_c, 8, 44, 127
2, 733330, Note_off_c, 8, 44, 127
2, 733331, Note_on_c, 10, 45, 127
2, 733467, Note_off_c, 10, 45, 127
2, 733468, Note_on_c, 12, 47, 127
2, 733558, Note_off_c, 5, 65, 127
2, 733558, Note_off_c, 12, 71, 127
2, 733604, Note_off_c, 12, 47, 127
2, 733605, Note_on_c, 10, 69, 127
2, 733605, Note_on_c, 3, 63, 127
2, 733605, Note_on_c, 0, 48, 127
2, 733741, Note_off_c, 0, 48, 127
2, 733742, Note_on_c, 2, 50, 127
2, 733878, Note_off_c, 2, 50, 127
2, 733879, Note_on_c, 3, 51, 127
2, 733969, Note_off_c, 3, 63, 127
2, 733969, Note_off_c, 10, 69, 127
2, 734015, Note_off_c, 3, 51, 127
2, 734016, Note_on_c, 12, 71, 127
2, 734016, Note_on_c, 2, 62, 127
2, 734016, Note_on_c, 8, 44, 127
2, 734152, Note_off_c, 8, 44, 127
2, 734153, Note_on_c, 7, 43, 127
2, 734289, Note_off_c, 7, 43, 127
2, 734290, Note_on_c, 5, 41, 127
2, 734380, Note_off_c, 2, 62, 127
2, 734380, Note_off_c, 12, 71, 127
2, 734426, Note_off_c, 5, 41, 127
2, 734427, Note_on_c, 11, 70, 127
2, 734427, Note_on_c, 0, 60, 127
2, 734427, Note_on_c, 4, 40, 127
2, 734563, Note_off_c, 4, 40, 127
2, 734564, Note_on_c, 2, 38, 127
2, 734700, Note_off_c, 2, 38, 127
2, 734701, Note_on_c, 0, 36, 127
2, 734791, Note_off_c, 0, 60, 127
2, 734791, Note_off_c, 11, 70, 127
2, 734837, Note_off_c, 0, 36, 127
2, 734838, Note_on_c, 10, 69, 127
2, 734838, Note_on_c, 3, 63, 127
2, 734838, Note_on_c, 6, 42, 127
2, 734974, Note_off_c, 6, 42, 127
2, 734975, Note_on_c, 7, 43, 127
2, 735111, Note_off_c, 7, 43, 127
2, 735112, Note_on_c, 10, 45, 127
2, 735202, Note_off_c, 3, 63, 127
2, 735202, Note_off_c, 10, 69, 127
2, 735248, Note_off_c, 10, 45, 127
2, 735249, Note_on_c, 7, 67, 127
2, 735249, Note_on_c, 2, 62, 127
2, 735249, Note_on_c, 11, 46, 127
2, 735385, Note_off_c, 11, 46, 127
2, 735386, Note_on_c, 10, 45, 127
2, 735522, Note_off_c, 10, 45, 127
2, 735523, Note_on_c, 7, 43, 127
2, 735613, Note_off_c, 7, 67, 127
2, 735659, Note_off_c, 7, 43, 127
2, 735660, Note_on_c, 10, 69, 127
2, 735660, Note_on_c, 1, 49, 127
2, 735796, Note_off_c, 1, 49, 127
2, 735796, Note_off_c, 10, 69, 127
2, 735797, Note_on_c, 12, 71, 127
2, 735797, Note_on_c, 2, 50, 127
2, 735933, Note_off_c, 2, 50, 127
2, 735933, Note_off_c, 12, 71, 127
2, 735934, Note_on_c, 1, 73, 127
2, 735934, Note_on_c, 4, 52, 127
2, 736070, Note_off_c, 4, 52, 127
2, 736070, Note_off_c, 1, 73, 127
2, 736071, Note_on_c, 2, 74, 127
2, 736071, Note_on_c, 5, 53, 127
2, 736207, Note_off_c, 5, 53, 127
2, 736207, Note_off_c, 2, 74, 127
2, 736208, Note_on_c, 4, 76, 127
2, 736208, Note_on_c, 4, 52, 127
2, 736344, Note_off_c, 4, 52, 127
2, 736344, Note_off_c, 4, 76, 127
2, 736345, Note_on_c, 5, 77, 127
2, 736345, Note_on_c, 2, 50, 127
2, 736481, Note_off_c, 2, 50, 127
2, 736481, Note_off_c, 5, 77, 127
2, 736482, Note_on_c, 12, 71, 127
2, 736482, Note_on_c, 8, 56, 127
2, 736618, Note_off_c, 8, 56, 127
2, 736619, Note_on_c, 10, 57, 127
2, 736755, Note_off_c, 10, 57, 127
2, 736756, Note_on_c, 12, 59, 127
2, 736846, Note_off_c, 12, 71, 127
2, 736892, Note_off_c, 12, 59, 127
2, 736893, Note_on_c, 4, 76, 127
2, 736893, Note_on_c, 0, 60, 127
2, 737029, Note_off_c, 4, 76, 127
2, 737030, Note_on_c, 3, 75, 127
2, 737166, Note_off_c, 3, 75, 127
2, 737167, Note_on_c, 4, 76, 127
2, 737303, Note_off_c, 4, 76, 127
2, 737303, Note_off_c, 2, 62, 127
2, 737304, Note_on_c, 6, 78, 127
2, 737304, Note_on_c, 10, 69, 127
2, 737440, Note_off_c, 6, 78, 127
2, 737441, Note_on_c, 3, 75, 127
2, 737577, Note_off_c, 3, 75, 127
2, 737578, Note_on_c, 4, 76, 127
2, 737668, Note_off_c, 10, 69, 127
2, 737714, Note_off_c, 4, 76, 127
2, 737714, Note_off_c, 0, 60, 127
2, 737715, Note_on_c, 8, 80, 127
2, 737715, Note_on_c, 2, 62, 127
2, 737715, Note_on_c, 12, 59, 127
2, 737851, Note_off_c, 8, 80, 127
2, 737852, Note_on_c, 3, 75, 127
2, 737988, Note_off_c, 3, 75, 127
2, 737989, Note_on_c, 4, 76, 127
2, 738079, Note_off_c, 12, 59, 127
2, 738079, Note_off_c, 2, 62, 127
2, 738125, Note_off_c, 4, 76, 127
2, 738126, Note_on_c, 10, 81, 127
2, 738126, Note_on_c, 0, 60, 127
2, 738126, Note_on_c, 10, 57, 127
2, 738262, Note_off_c, 10, 81, 127
2, 738263, Note_on_c, 3, 75, 127
2, 738399, Note_off_c, 3, 75, 127
2, 738400, Note_on_c, 4, 76, 127
2, 738490, Note_off_c, 10, 57, 127
2, 738490, Note_off_c, 0, 60, 127
2, 738536, Note_off_c, 4, 76, 127
2, 738537, Note_on_c, 12, 83, 127
2, 738537, Note_on_c, 12, 59, 127
2, 738537, Note_on_c, 8, 56, 127
2, 738673, Note_off_c, 12, 83, 127
2, 738674, Note_on_c, 3, 75, 127
2, 738810, Note_off_c, 3, 75, 127
2, 738811, Note_on_c, 4, 76, 127
2, 738901, Note_off_c, 8, 56, 127
2, 738901, Note_off_c, 12, 59, 127
2, 738947, Note_off_c, 4, 76, 127
2, 738948, Note_on_c, 0, 84, 127
2, 738948, Note_on_c, 3, 63, 127
2, 738948, Note_on_c, 6, 54, 127
2, 739084, Note_off_c, 0, 84, 127
2, 739085, Note_on_c, 12, 83, 127
2, 739221, Note_off_c, 12, 83, 127
2, 739222, Note_on_c, 10, 81, 127
2, 739312, Note_off_c, 6, 54, 127
2, 739312, Note_off_c, 3, 63, 127
2, 739358, Note_off_c, 10, 81, 127
2, 739359, Note_on_c, 8, 80, 127
2, 739359, Note_on_c, 2, 62, 127
2, 739359, Note_on_c, 4, 52, 127
2, 739495, Note_off_c, 8, 80, 127
2, 739496, Note_on_c, 6, 78, 127
2, 739632, Note_off_c, 6, 78, 127
2, 739633, Note_on_c, 4, 76, 127
2, 739723, Note_off_c, 4, 52, 127
2, 739723, Note_off_c, 2, 62, 127
2, 739769, Note_off_c, 4, 76, 127
2, 739770, Note_on_c, 11, 82, 127
2, 739770, Note_on_c, 1, 61, 127
2, 739770, Note_on_c, 10, 57, 127
2, 739906, Note_off_c, 11, 82, 127
2, 739907, Note_on_c, 10, 81, 127
2, 740043, Note_off_c, 10, 81, 127
2, 740044, Note_on_c, 7, 79, 127
2, 740134, Note_off_c, 10, 57, 127
2, 740134, Note_off_c, 1, 61, 127
2, 740180, Note_off_c, 7, 79, 127
2, 740181, Note_on_c, 6, 78, 127
2, 740181, Note_on_c, 0, 60, 127
2, 740181, Note_on_c, 2, 50, 127
2, 740317, Note_off_c, 6, 78, 127
2, 740318, Note_on_c, 4, 76, 127
2, 740454, Note_off_c, 4, 76, 127
2, 740455, Note_on_c, 2, 74, 127
2, 740545, Note_off_c, 2, 50, 127
2, 740545, Note_off_c, 0, 60, 127
2, 740591, Note_off_c, 2, 74, 127
2, 740592, Note_on_c, 5, 77, 127
2, 740592, Note_on_c, 12, 59, 127
2, 740592, Note_on_c, 8, 56, 127
2, 740728, Note_off_c, 5, 77, 127
2, 740729, Note_on_c, 4, 76, 127
2, 740865, Note_off_c, 4, 76, 127
2, 740866, Note_on_c, 2, 74, 127
2, 740956, Note_off_c, 8, 56, 127
2, 740999, Note_off_c, 12, 59, 127
2, 741002, Note_off_c, 2, 74, 127
2, 741003, Note_on_c, 0, 72, 127
2, 741003, Note_on_c, 10, 57, 127
2, 741139, Note_off_c, 0, 72, 127
2, 741140, Note_on_c, 12, 71, 127
2, 741276, Note_off_c, 12, 71, 127
2, 741277, Note_on_c, 10, 69, 127
2, 741367, Note_off_c, 10, 57, 127
2, 741414, Note_on_c, 3, 75, 127
2, 741414, Note_on_c, 6, 54, 127
2, 741550, Note_off_c, 3, 75, 127
2, 741551, Note_on_c, 4, 76, 127
2, 741687, Note_off_c, 4, 76, 127
2, 741688, Note_on_c, 6, 78, 127
2, 741778, Note_off_c, 6, 54, 127
2, 741824, Note_off_c, 10, 69, 127
2, 741825, Note_on_c, 8, 68, 127
2, 741825, Note_on_c, 4, 52, 127
2, 741940, Note_off_c, 6, 78, 127
2, 741963, Note_on_c, 4, 76, 127
2, 742099, Note_off_c, 4, 76, 127
2, 742100, Note_on_c, 5, 77, 127
2, 742190, Note_off_c, 8, 68, 127
2, 742237, Note_on_c, 7, 67, 127
2, 742352, Note_off_c, 5, 77, 127
2, 742375, Note_on_c, 3, 75, 127
2, 742511, Note_off_c, 3, 75, 127
2, 742512, Note_on_c, 4, 76, 127
2, 742602, Note_off_c, 7, 67, 127
2, 742649, Note_on_c, 6, 66, 127
2, 742764, Note_off_c, 4, 76, 127
2, 742787, Note_on_c, 3, 75, 127
2, 742923, Note_off_c, 3, 75, 127
2, 742924, Note_on_c, 4, 76, 127
2, 743014, Note_off_c, 6, 66, 127
2, 743061, Note_on_c, 5, 65, 127
2, 743176, Note_off_c, 4, 76, 127
2, 743199, Note_on_c, 1, 73, 127
2, 743335, Note_off_c, 1, 73, 127
2, 743336, Note_on_c, 2, 74, 127
2, 743426, Note_off_c, 5, 65, 127
2, 743473, Note_on_c, 4, 64, 127
2, 743588, Note_off_c, 2, 74, 127
2, 743611, Note_on_c, 1, 73, 127
2, 743747, Note_off_c, 1, 73, 127
2, 743748, Note_on_c, 2, 74, 127
2, 743838, Note_off_c, 4, 64, 127
2, 743885, Note_on_c, 10, 69, 127
2, 744000, Note_off_c, 2, 74, 127
2, 744023, Note_on_c, 12, 71, 127
2, 744159, Note_off_c, 12, 71, 127
2, 744160, Note_on_c, 0, 72, 127
2, 744250, Note_off_c, 10, 69, 127
2, 744297, Note_on_c, 3, 63, 127
2, 744412, Note_off_c, 0, 72, 127
2, 744435, Note_on_c, 12, 71, 127
2, 744571, Note_off_c, 12, 71, 127
2, 744572, Note_on_c, 0, 72, 127
2, 744662, Note_off_c, 3, 63, 127
2, 744709, Note_on_c, 2, 62, 127
2, 744824, Note_off_c, 0, 72, 127
2, 744847, Note_on_c, 10, 69, 127
2, 744983, Note_off_c, 10, 69, 127
2, 744984, Note_on_c, 11, 70, 127
2, 745074, Note_off_c, 2, 62, 127
2, 745121, Note_on_c, 1, 61, 127
2, 745236, Note_off_c, 11, 70, 127
2, 745259, Note_on_c, 10, 69, 127
2, 745395, Note_off_c, 10, 69, 127
2, 745396, Note_on_c, 11, 70, 127
2, 745486, Note_off_c, 1, 61, 127
2, 745533, Note_on_c, 0, 60, 127
2, 745648, Note_off_c, 11, 70, 127
2, 745671, Note_on_c, 8, 68, 127
2, 745807, Note_off_c, 8, 68, 127
2, 745808, Note_on_c, 10, 69, 127
2, 745898, Note_off_c, 0, 60, 127
2, 745945, Note_on_c, 12, 59, 127
2, 746060, Note_off_c, 10, 69, 127
2, 746083, Note_on_c, 8, 68, 127
2, 746219, Note_off_c, 8, 68, 127
2, 746220, Note_on_c, 10, 69, 127
2, 746310, Note_off_c, 12, 59, 127
2, 746357, Note_on_c, 2, 62, 127
2, 746472, Note_off_c, 10, 69, 127
2, 746495, Note_on_c, 6, 66, 127
2, 746631, Note_off_c, 6, 66, 127
2, 746632, Note_on_c, 8, 68, 127
2, 746722, Note_off_c, 2, 62, 127
2, 746768, Note_off_c, 8, 68, 127
2, 746768, Note_off_c, 4, 52, 127
2, 746769, Note_on_c, 10, 69, 127
2, 746769, Note_on_c, 1, 61, 127
2, 746769, Note_on_c, 10, 57, 127
2, 746905, Note_off_c, 1, 61, 127
2, 746905, Note_off_c, 10, 69, 127
2, 746906, Note_on_c, 8, 68, 127
2, 746906, Note_on_c, 12, 59, 127
2, 747042, Note_off_c, 12, 59, 127
2, 747042, Note_off_c, 8, 68, 127
2, 747043, Note_on_c, 10, 69, 127
2, 747043, Note_on_c, 1, 61, 127
2, 747179, Note_off_c, 1, 61, 127
2, 747179, Note_off_c, 10, 69, 127
2, 747180, Note_on_c, 12, 71, 127
2, 747180, Note_on_c, 2, 62, 127
2, 747316, Note_off_c, 2, 62, 127
2, 747316, Note_off_c, 12, 71, 127
2, 747317, Note_on_c, 8, 68, 127
2, 747317, Note_on_c, 12, 59, 127
2, 747453, Note_off_c, 12, 59, 127
2, 747453, Note_off_c, 8, 68, 127
2, 747454, Note_on_c, 10, 69, 127
2, 747454, Note_on_c, 1, 61, 127
2, 747590, Note_off_c, 1, 61, 127
2, 747590, Note_off_c, 10, 69, 127
2, 747591, Note_on_c, 1, 73, 127
2, 747591, Note_on_c, 4, 64, 127
2, 747727, Note_off_c, 4, 64, 127
2, 747727, Note_off_c, 1, 73, 127
2, 747728, Note_on_c, 8, 68, 127
2, 747728, Note_on_c, 12, 59, 127
2, 747864, Note_off_c, 12, 59, 127
2, 747864, Note_off_c, 8, 68, 127
2, 747865, Note_on_c, 10, 69, 127
2, 747865, Note_on_c, 1, 61, 127
2, 748001, Note_off_c, 1, 61, 127
2, 748001, Note_off_c, 10, 69, 127
2, 748002, Note_on_c, 2, 74, 127
2, 748002, Note_on_c, 5, 65, 127
2, 748138, Note_off_c, 5, 65, 127
2, 748138, Note_off_c, 2, 74, 127
2, 748139, Note_on_c, 8, 68, 127
2, 748139, Note_on_c, 4, 64, 127
2, 748275, Note_off_c, 4, 64, 127
2, 748275, Note_off_c, 8, 68, 127
2, 748276, Note_on_c, 10, 69, 127
2, 748276, Note_on_c, 2, 62, 127
2, 748412, Note_off_c, 2, 62, 127
2, 748412, Note_off_c, 10, 69, 127
2, 748413, Note_on_c, 4, 76, 127
2, 748413, Note_on_c, 1, 61, 127
2, 748549, Note_off_c, 1, 61, 127
2, 748549, Note_off_c, 4, 76, 127
2, 748550, Note_on_c, 8, 68, 127
2, 748550, Note_on_c, 12, 59, 127
2, 748686, Note_off_c, 12, 59, 127
2, 748686, Note_off_c, 8, 68, 127
2, 748687, Note_on_c, 10, 69, 127
2, 748687, Note_on_c, 1, 61, 127
2, 748823, Note_off_c, 1, 61, 127
2, 748823, Note_off_c, 10, 69, 127
2, 748824, Note_on_c, 5, 77, 127
2, 748824, Note_on_c, 2, 62, 127
2, 748960, Note_off_c, 2, 62, 127
2, 748960, Note_off_c, 5, 77, 127
2, 748961, Note_on_c, 4, 76, 127
2, 748961, Note_on_c, 5, 65, 127
2, 749097, Note_off_c, 5, 65, 127
2, 749097, Note_off_c, 4, 76, 127
2, 749098, Note_on_c, 2, 74, 127
2, 749098, Note_on_c, 8, 68, 127
2, 749234, Note_off_c, 8, 68, 127
2, 749234, Note_off_c, 2, 74, 127
2, 749235, Note_on_c, 1, 73, 127
2, 749235, Note_on_c, 10, 69, 127
2, 749371, Note_off_c, 1, 73, 127
2, 749372, Note_on_c, 4, 76, 127
2, 749508, Note_off_c, 4, 76, 127
2, 749509, Note_on_c, 8, 80, 127
2, 749645, Note_off_c, 8, 80, 127
2, 749646, Note_on_c, 10, 81, 127
2, 750054, Note_off_c, 10, 81, 127
2, 750057, Note_off_c, 10, 69, 127
2, 750057, Note_off_c, 10, 57, 127
2, 750058, Note_on_c, 4, 64, 127
2, 750194, Note_off_c, 4, 64, 127
2, 750195, Note_on_c, 5, 65, 127
2, 750331, Note_off_c, 5, 65, 127
2, 750332, Note_on_c, 4, 64, 127
2, 750468, Note_off_c, 4, 64, 127
2, 750469, Note_on_c, 2, 62, 127
2, 750605, Note_off_c, 2, 62, 127
2, 750606, Note_on_c, 5, 65, 127
2, 750742, Note_off_c, 5, 65, 127
2, 750743, Note_on_c, 4, 64, 127
2, 750879, Note_off_c, 4, 64, 127
2, 750880, Note_on_c, 0, 60, 127
2, 751016, Note_off_c, 0, 60, 127
2, 751017, Note_on_c, 5, 65, 127
2, 751153, Note_off_c, 5, 65, 127
2, 751154, Note_on_c, 4, 64, 127
2, 751290, Note_off_c, 4, 64, 127
2, 751291, Note_on_c, 12, 59, 127
2, 751427, Note_off_c, 12, 59, 127
2, 751428, Note_on_c, 5, 65, 127
2, 751564, Note_off_c, 5, 65, 127
2, 751565, Note_on_c, 4, 64, 127
2, 751701, Note_off_c, 4, 64, 127
2, 751702, Note_on_c, 10, 57, 127
2, 751838, Note_off_c, 10, 57, 127
2, 751839, Note_on_c, 5, 65, 127
2, 751975, Note_off_c, 5, 65, 127
2, 751976, Note_on_c, 4, 64, 127
2, 752112, Note_off_c, 4, 64, 127
2, 752113, Note_on_c, 8, 56, 127
2, 752249, Note_off_c, 8, 56, 127
2, 752250, Note_on_c, 10, 57, 127
2, 752386, Note_off_c, 10, 57, 127
2, 752387, Note_on_c, 12, 59, 127
2, 752523, Note_off_c, 12, 59, 127
2, 752524, Note_on_c, 1, 61, 127
2, 752660, Note_off_c, 1, 61, 127
2, 752661, Note_on_c, 2, 62, 127
2, 752797, Note_off_c, 2, 62, 127
2, 752798, Note_on_c, 4, 64, 127
2, 752934, Note_off_c, 4, 64, 127
2, 752935, Note_on_c, 11, 58, 127
2, 753071, Note_off_c, 11, 58, 127
2, 753072, Note_on_c, 10, 57, 127
2, 753208, Note_off_c, 10, 57, 127
2, 753209, Note_on_c, 7, 55, 127
2, 753345, Note_off_c, 7, 55, 127
2, 753346, Note_on_c, 10, 69, 127
2, 753346, Note_on_c, 5, 53, 127
2, 753482, Note_off_c, 10, 69, 127
2, 753483, Note_on_c, 11, 70, 127
2, 753619, Note_off_c, 11, 70, 127
2, 753620, Note_on_c, 10, 69, 127
2, 753710, Note_off_c, 5, 53, 127
2, 753756, Note_off_c, 10, 69, 127
2, 753757, Note_on_c, 7, 67, 127
2, 753757, Note_on_c, 11, 58, 127
2, 753893, Note_off_c, 7, 67, 127
2, 753894, Note_on_c, 11, 70, 127
2, 754030, Note_off_c, 11, 70, 127
2, 754031, Note_on_c, 10, 69, 127
2, 754121, Note_off_c, 11, 58, 127
2, 754167, Note_off_c, 10, 69, 127
2, 754168, Note_on_c, 5, 65, 127
2, 754168, Note_on_c, 10, 57, 127
2, 754304, Note_off_c, 5, 65, 127
2, 754305, Note_on_c, 11, 70, 127
2, 754441, Note_off_c, 11, 70, 127
2, 754442, Note_on_c, 10, 69, 127
2, 754532, Note_off_c, 10, 57, 127
2, 754578, Note_off_c, 10, 69, 127
2, 754579, Note_on_c, 4, 64, 127
2, 754579, Note_on_c, 7, 55, 127
2, 754715, Note_off_c, 4, 64, 127
2, 754716, Note_on_c, 11, 70, 127
2, 754852, Note_off_c, 11, 70, 127
2, 754853, Note_on_c, 10, 69, 127
2, 754943, Note_off_c, 7, 55, 127
2, 754989, Note_off_c, 10, 69, 127
2, 754990, Note_on_c, 2, 62, 127
2, 754990, Note_on_c, 5, 53, 127
2, 755126, Note_off_c, 2, 62, 127
2, 755127, Note_on_c, 11, 70, 127
2, 755263, Note_off_c, 11, 70, 127
2, 755264, Note_on_c, 10, 69, 127
2, 755354, Note_off_c, 5, 53, 127
2, 755400, Note_off_c, 10, 69, 127
2, 755401, Note_on_c, 1, 61, 127
2, 755401, Note_on_c, 4, 52, 127
2, 755537, Note_off_c, 4, 52, 127
2, 755537, Note_off_c, 1, 61, 127
2, 755538, Note_on_c, 2, 62, 127
2, 755538, Note_on_c, 2, 50, 127
2, 755674, Note_off_c, 2, 50, 127
2, 755674, Note_off_c, 2, 62, 127
2, 755675, Note_on_c, 4, 64, 127
2, 755675, Note_on_c, 1, 49, 127
2, 755811, Note_off_c, 1, 49, 127
2, 755811, Note_off_c, 4, 64, 127
2, 755812, Note_on_c, 6, 66, 127
2, 755812, Note_on_c, 2, 50, 127
2, 755948, Note_off_c, 2, 50, 127
2, 755948, Note_off_c, 6, 66, 127
2, 755949, Note_on_c, 7, 67, 127
2, 755949, Note_on_c, 4, 52, 127
2, 756085, Note_off_c, 4, 52, 127
2, 756085, Note_off_c, 7, 67, 127
2, 756086, Note_on_c, 10, 69, 127
2, 756086, Note_on_c, 6, 54, 127
2, 756222, Note_off_c, 6, 54, 127
2, 756222, Note_off_c, 10, 69, 127
2, 756223, Note_on_c, 3, 63, 127
2, 756223, Note_on_c, 6, 54, 127
2, 756359, Note_off_c, 6, 54, 127
2, 756359, Note_off_c, 3, 63, 127
2, 756360, Note_on_c, 2, 62, 127
2, 756360, Note_on_c, 7, 55, 127
2, 756496, Note_off_c, 7, 55, 127
2, 756496, Note_off_c, 2, 62, 127
2, 756497, Note_on_c, 0, 60, 127
2, 756497, Note_on_c, 10, 57, 127
2, 756633, Note_off_c, 10, 57, 127
2, 756633, Note_off_c, 0, 60, 127
2, 756634, Note_on_c, 2, 62, 127
2, 756634, Note_on_c, 10, 57, 127
2, 756770, Note_off_c, 10, 57, 127
2, 756771, Note_on_c, 12, 59, 127
2, 756907, Note_off_c, 12, 59, 127
2, 756908, Note_on_c, 0, 60, 127
2, 756998, Note_off_c, 2, 62, 127
2, 757044, Note_off_c, 0, 60, 127
2, 757045, Note_on_c, 3, 63, 127
2, 757045, Note_on_c, 0, 60, 127
2, 757181, Note_off_c, 3, 63, 127
2, 757182, Note_on_c, 4, 64, 127
2, 757318, Note_off_c, 4, 64, 127
2, 757319, Note_on_c, 6, 66, 127
2, 757409, Note_off_c, 0, 60, 127
2, 757455, Note_off_c, 6, 66, 127
2, 757456, Note_on_c, 8, 68, 127
2, 757456, Note_on_c, 12, 59, 127
2, 757592, Note_off_c, 12, 59, 127
2, 757592, Note_off_c, 8, 68, 127
2, 757593, Note_on_c, 10, 69, 127
2, 757593, Note_on_c, 10, 57, 127
2, 757729, Note_off_c, 10, 57, 127
2, 757729, Note_off_c, 10, 69, 127
2, 757730, Note_on_c, 12, 71, 127
2, 757730, Note_on_c, 8, 56, 127
2, 757866, Note_off_c, 8, 56, 127
2, 757866, Note_off_c, 12, 71, 127
2, 757867, Note_on_c, 5, 65, 127
2, 757867, Note_on_c, 8, 56, 127
2, 758003, Note_off_c, 8, 56, 127
2, 758003, Note_off_c, 5, 65, 127
2, 758004, Note_on_c, 4, 64, 127
2, 758004, Note_on_c, 10, 57, 127
2, 758140, Note_off_c, 10, 57, 127
2, 758140, Note_off_c, 4, 64, 127
2, 758141, Note_on_c, 2, 62, 127
2, 758141, Note_on_c, 12, 59, 127
2, 758277, Note_off_c, 12, 59, 127
2, 758277, Note_off_c, 2, 62, 127
2, 758278, Note_on_c, 4, 76, 127
2, 758278, Note_on_c, 0, 60, 127
2, 758278, Note_on_c, 10, 57, 127
2, 758414, Note_off_c, 4, 76, 127
2, 758415, Note_on_c, 5, 77, 127
2, 758551, Note_off_c, 5, 77, 127
2, 758552, Note_on_c, 4, 76, 127
2, 758642, Note_off_c, 0, 60, 127
2, 758688, Note_off_c, 4, 76, 127
2, 758689, Note_on_c, 2, 74, 127
2, 758689, Note_on_c, 5, 65, 127
2, 758825, Note_off_c, 2, 74, 127
2, 758826, Note_on_c, 5, 77, 127
2, 758962, Note_off_c, 5, 77, 127
2, 758963, Note_on_c, 4, 76, 127
2, 759053, Note_off_c, 5, 65, 127
2, 759099, Note_off_c, 4, 76, 127
2, 759100, Note_on_c, 0, 72, 127
2, 759100, Note_on_c, 4, 64, 127
2, 759236, Note_off_c, 0, 72, 127
2, 759237, Note_on_c, 5, 77, 127
2, 759373, Note_off_c, 5, 77, 127
2, 759374, Note_on_c, 4, 76, 127
2, 759464, Note_off_c, 4, 64, 127
2, 759510, Note_off_c, 4, 76, 127
2, 759511, Note_on_c, 12, 71, 127
2, 759511, Note_on_c, 2, 62, 127
2, 759647, Note_off_c, 12, 71, 127
2, 759648, Note_on_c, 5, 77, 127
2, 759784, Note_off_c, 5, 77, 127
2, 759785, Note_on_c, 4, 76, 127
2, 759875, Note_off_c, 2, 62, 127
2, 759921, Note_off_c, 4, 76, 127
2, 759922, Note_on_c, 10, 69, 127
2, 759922, Note_on_c, 0, 60, 127
2, 760058, Note_off_c, 10, 69, 127
2, 760059, Note_on_c, 5, 77, 127
2, 760195, Note_off_c, 5, 77, 127
2, 760196, Note_on_c, 4, 76, 127
2, 760286, Note_off_c, 0, 60, 127
2, 760332, Note_off_c, 4, 76, 127
2, 760332, Note_off_c, 10, 57, 127
2, 760333, Note_on_c, 8, 68, 127
2, 760333, Note_on_c, 12, 59, 127
2, 760469, Note_off_c, 12, 59, 127
2, 760469, Note_off_c, 8, 68, 127
2, 760470, Note_on_c, 10, 69, 127
2, 760470, Note_on_c, 10, 57, 127
2, 760606, Note_off_c, 10, 57, 127
2, 760606, Note_off_c, 10, 69, 127
2, 760607, Note_on_c, 12, 71, 127
2, 760607, Note_on_c, 8, 56, 127
2, 760743, Note_off_c, 8, 56, 127
2, 760743, Note_off_c, 12, 71, 127
2, 760744, Note_on_c, 1, 73, 127
2, 760744, Note_on_c, 10, 57, 127
2, 760880, Note_off_c, 10, 57, 127
2, 760880, Note_off_c, 1, 73, 127
2, 760881, Note_on_c, 2, 74, 127
2, 760881, Note_on_c, 12, 59, 127
2, 761017, Note_off_c, 12, 59, 127
2, 761017, Note_off_c, 2, 74, 127
2, 761018, Note_on_c, 4, 76, 127
2, 761018, Note_on_c, 1, 61, 127
2, 761154, Note_off_c, 1, 61, 127
2, 761154, Note_off_c, 4, 76, 127
2, 761155, Note_on_c, 11, 70, 127
2, 761155, Note_on_c, 1, 61, 127
2, 761291, Note_off_c, 1, 61, 127
2, 761291, Note_off_c, 11, 70, 127
2, 761292, Note_on_c, 10, 69, 127
2, 761292, Note_on_c, 2, 62, 127
2, 761428, Note_off_c, 2, 62, 127
2, 761428, Note_off_c, 10, 69, 127
2, 761429, Note_on_c, 7, 67, 127
2, 761429, Note_on_c, 4, 64, 127
2, 761565, Note_off_c, 4, 64, 127
2, 761565, Note_off_c, 7, 67, 127
2, 761566, Note_on_c, 5, 65, 127
2, 761566, Note_on_c, 2, 62, 127
2, 761566, Note_on_c, 2, 50, 127
2, 761702, Note_off_c, 2, 50, 127
2, 761703, Note_on_c, 3, 51, 127
2, 761839, Note_off_c, 3, 51, 127
2, 761840, Note_on_c, 2, 50, 127
2, 761930, Note_off_c, 5, 65, 127
2, 761976, Note_off_c, 2, 50, 127
2, 761977, Note_on_c, 6, 66, 127
2, 761977, Note_on_c, 0, 48, 127
2, 762113, Note_off_c, 0, 48, 127
2, 762114, Note_on_c, 3, 51, 127
2, 762250, Note_off_c, 3, 51, 127
2, 762251, Note_on_c, 2, 50, 127
2, 762341, Note_off_c, 6, 66, 127
2, 762387, Note_off_c, 2, 50, 127
2, 762388, Note_on_c, 7, 67, 127
2, 762388, Note_on_c, 11, 46, 127
2, 762524, Note_off_c, 11, 46, 127
2, 762525, Note_on_c, 3, 51, 127
2, 762661, Note_off_c, 3, 51, 127
2, 762662, Note_on_c, 2, 50, 127
2, 762752, Note_off_c, 7, 67, 127
2, 762798, Note_off_c, 2, 50, 127
2, 762799, Note_on_c, 10, 69, 127
2, 762799, Note_on_c, 10, 45, 127
2, 762935, Note_off_c, 10, 45, 127
2, 762936, Note_on_c, 3, 51, 127
2, 763072, Note_off_c, 3, 51, 127
2, 763073, Note_on_c, 2, 50, 127
2, 763163, Note_off_c, 10, 69, 127
2, 763209, Note_off_c, 2, 50, 127
2, 763210, Note_on_c, 11, 70, 127
2, 763210, Note_on_c, 7, 43, 127
2, 763346, Note_off_c, 7, 43, 127
2, 763347, Note_on_c, 3, 51, 127
2, 763483, Note_off_c, 3, 51, 127
2, 763484, Note_on_c, 2, 50, 127
2, 763574, Note_off_c, 11, 70, 127
2, 763620, Note_off_c, 2, 50, 127
2, 763620, Note_off_c, 2, 62, 127
2, 763621, Note_on_c, 0, 72, 127
2, 763621, Note_on_c, 3, 63, 127
2, 763621, Note_on_c, 6, 42, 127
2, 763757, Note_off_c, 6, 42, 127
2, 763758, Note_on_c, 7, 43, 127
2, 763894, Note_off_c, 7, 43, 127
2, 763895, Note_on_c, 10, 45, 127
2, 763985, Note_off_c, 3, 63, 127
2, 763985, Note_off_c, 0, 72, 127
2, 764031, Note_off_c, 10, 45, 127
2, 764032, Note_on_c, 2, 74, 127
2, 764032, Note_on_c, 5, 65, 127
2, 764032, Note_on_c, 12, 47, 127
2, 764168, Note_off_c, 12, 47, 127
2, 764169, Note_on_c, 0, 48, 127
2, 764305, Note_off_c, 0, 48, 127
2, 764306, Note_on_c, 2, 50, 127
2, 764396, Note_off_c, 5, 65, 127
2, 764396, Note_off_c, 2, 74, 127
2, 764442, Note_off_c, 2, 50, 127
2, 764443, Note_on_c, 12, 71, 127
2, 764443, Note_on_c, 2, 62, 127
2, 764443, Note_on_c, 8, 44, 127
2, 764579, Note_off_c, 8, 44, 127
2, 764580, Note_on_c, 7, 43, 127
2, 764716, Note_off_c, 7, 43, 127
2, 764717, Note_on_c, 5, 41, 127
2, 764807, Note_off_c, 2, 62, 127
2, 764807, Note_off_c, 12, 71, 127
2, 764853, Note_off_c, 5, 41, 127
2, 764854, Note_on_c, 1, 73, 127
2, 764854, Note_on_c, 7, 67, 127
2, 764854, Note_on_c, 4, 40, 127
2, 764990, Note_off_c, 4, 40, 127
2, 764991, Note_on_c, 2, 38, 127
2, 765127, Note_off_c, 2, 38, 127
2, 765128, Note_on_c, 1, 37, 127
2, 765218, Note_off_c, 7, 67, 127
2, 765218, Note_off_c, 1, 73, 127
2, 765264, Note_off_c, 1, 37, 127
2, 765265, Note_on_c, 2, 74, 127
2, 765265, Note_on_c, 5, 65, 127
2, 765265, Note_on_c, 8, 44, 127
2, 765401, Note_off_c, 8, 44, 127
2, 765402, Note_on_c, 10, 45, 127
2, 765538, Note_off_c, 10, 45, 127
2, 765539, Note_on_c, 12, 47, 127
2, 765629, Note_off_c, 5, 65, 127
2, 765629, Note_off_c, 2, 74, 127
2, 765675, Note_off_c, 12, 47, 127
2, 765676, Note_on_c, 4, 76, 127
2, 765676, Note_on_c, 7, 67, 127
2, 765676, Note_on_c, 1, 49, 127
2, 765812, Note_off_c, 1, 49, 127
2, 765813, Note_on_c, 2, 50, 127
2, 765949, Note_off_c, 2, 50, 127
2, 765950, Note_on_c, 4, 52, 127
2, 766040, Note_off_c, 7, 67, 127
2, 766040, Note_off_c, 4, 76, 127
2, 766086, Note_off_c, 4, 52, 127
2, 766087, Note_on_c, 1, 73, 127
2, 766087, Note_on_c, 4, 64, 127
2, 766087, Note_on_c, 11, 46, 127
2, 766223, Note_off_c, 11, 46, 127
2, 766224, Note_on_c, 10, 45, 127
2, 766360, Note_off_c, 10, 45, 127
2, 766361, Note_on_c, 7, 43, 127
2, 766451, Note_off_c, 4, 64, 127
2, 766451, Note_off_c, 1, 73, 127
2, 766497, Note_off_c, 7, 43, 127
2, 766498, Note_on_c, 2, 74, 127
2, 766498, Note_on_c, 10, 69, 127
2, 766498, Note_on_c, 6, 42, 127
2, 766634, Note_off_c, 6, 42, 127
2, 766635, Note_on_c, 4, 40, 127
2, 766771, Note_off_c, 4, 40, 127
2, 766772, Note_on_c, 2, 38, 127
2, 766862, Note_off_c, 10, 69, 127
2, 766909, Note_on_c, 0, 48, 127
2, 767024, Note_off_c, 2, 38, 127
2, 767047, Note_on_c, 6, 42, 127
2, 767183, Note_off_c, 6, 42, 127
2, 767184, Note_on_c, 4, 40, 127
2, 767274, Note_off_c, 0, 48, 127
2, 767321, Note_on_c, 2, 50, 127
2, 767436, Note_off_c, 4, 40, 127
2, 767459, Note_on_c, 7, 43, 127
2, 767595, Note_off_c, 7, 43, 127
2, 767596, Note_on_c, 6, 42, 127
2, 767686, Note_off_c, 2, 50, 127
2, 767733, Note_on_c, 4, 52, 127
2, 767848, Note_off_c, 6, 42, 127
2, 767871, Note_on_c, 10, 45, 127
2, 768007, Note_off_c, 10, 45, 127
2, 768008, Note_on_c, 7, 43, 127
2, 768098, Note_off_c, 4, 52, 127
2, 768145, Note_on_c, 6, 54, 127
2, 768260, Note_off_c, 7, 43, 127
2, 768283, Note_on_c, 11, 46, 127
2, 768419, Note_off_c, 11, 46, 127
2, 768420, Note_on_c, 10, 45, 127
2, 768510, Note_off_c, 6, 54, 127
2, 768557, Note_on_c, 5, 53, 127
2, 768672, Note_off_c, 10, 45, 127
2, 768695, Note_on_c, 0, 48, 127
2, 768831, Note_off_c, 0, 48, 127
2, 768832, Note_on_c, 12, 47, 127
2, 768922, Note_off_c, 5, 53, 127
2, 768969, Note_on_c, 4, 52, 127
2, 769084, Note_off_c, 12, 47, 127
2, 769107, Note_on_c, 2, 50, 127
2, 769243, Note_off_c, 2, 50, 127
2, 769244, Note_on_c, 1, 49, 127
2, 769334, Note_off_c, 4, 52, 127
2, 769381, Note_on_c, 11, 58, 127
2, 769496, Note_off_c, 1, 49, 127
2, 769519, Note_on_c, 2, 50, 127
2, 769655, Note_off_c, 2, 50, 127
2, 769656, Note_on_c, 4, 52, 127
2, 769746, Note_off_c, 11, 58, 127
2, 769792, Note_off_c, 4, 52, 127
2, 769792, Note_off_c, 2, 74, 127
2, 769793, Note_on_c, 10, 81, 127
2, 769793, Note_on_c, 10, 57, 127
2, 769793, Note_on_c, 5, 53, 127
2, 769929, Note_off_c, 10, 81, 127
2, 769930, Note_on_c, 11, 82, 127
2, 770066, Note_off_c, 11, 82, 127
2, 770067, Note_on_c, 10, 81, 127
2, 770157, Note_off_c, 5, 53, 127
2, 770157, Note_off_c, 10, 57, 127
2, 770203, Note_off_c, 10, 81, 127
2, 770204, Note_on_c, 7, 79, 127
2, 770204, Note_on_c, 2, 62, 127
2, 770204, Note_on_c, 11, 58, 127
2, 770340, Note_off_c, 7, 79, 127
2, 770341, Note_on_c, 11, 82, 127
2, 770477, Note_off_c, 11, 82, 127
2, 770478, Note_on_c, 10, 81, 127
2, 770568, Note_off_c, 11, 58, 127
2, 770614, Note_off_c, 10, 81, 127
2, 770615, Note_on_c, 5, 77, 127
2, 770615, Note_on_c, 10, 57, 127
2, 770751, Note_off_c, 5, 77, 127
2, 770752, Note_on_c, 11, 82, 127
2, 770888, Note_off_c, 11, 82, 127
2, 770889, Note_on_c, 10, 81, 127
2, 770979, Note_off_c, 10, 57, 127
2, 771025, Note_off_c, 10, 81, 127
2, 771026, Note_on_c, 4, 76, 127
2, 771026, Note_on_c, 7, 55, 127
2, 771162, Note_off_c, 4, 76, 127
2, 771163, Note_on_c, 11, 82, 127
2, 771299, Note_off_c, 11, 82, 127
2, 771300, Note_on_c, 10, 81, 127
2, 771390, Note_off_c, 7, 55, 127
2, 771436, Note_off_c, 10, 81, 127
2, 771437, Note_on_c, 2, 74, 127
2, 771437, Note_on_c, 5, 53, 127
2, 771573, Note_off_c, 2, 74, 127
2, 771574, Note_on_c, 11, 82, 127
2, 771710, Note_off_c, 11, 82, 127
2, 771711, Note_on_c, 10, 81, 127
2, 771801, Note_off_c, 5, 53, 127
2, 771847, Note_off_c, 10, 81, 127
2, 771847, Note_off_c, 2, 62, 127
2, 771848, Note_on_c, 1, 73, 127
2, 771848, Note_on_c, 11, 58, 127
2, 771848, Note_on_c, 7, 55, 127
2, 771984, Note_off_c, 1, 73, 127
2, 771985, Note_on_c, 2, 74, 127
2, 772121, Note_off_c, 2, 74, 127
2, 772122, Note_on_c, 4, 76, 127
2, 772212, Note_off_c, 7, 55, 127
2, 772212, Note_off_c, 11, 58, 127
2, 772258, Note_off_c, 4, 76, 127
2, 772259, Note_on_c, 6, 78, 127
2, 772259, Note_on_c, 0, 60, 127
2, 772259, Note_on_c, 10, 57, 127
2, 772395, Note_off_c, 6, 78, 127
2, 772396, Note_on_c, 7, 79, 127
2, 772532, Note_off_c, 7, 79, 127
2, 772533, Note_on_c, 10, 81, 127
2, 772623, Note_off_c, 10, 57, 127
2, 772623, Note_off_c, 0, 60, 127
2, 772669, Note_off_c, 10, 81, 127
2, 772670, Note_on_c, 3, 75, 127
2, 772670, Note_on_c, 10, 57, 127
2, 772670, Note_on_c, 6, 54, 127
2, 772806, Note_off_c, 3, 75, 127
2, 772807, Note_on_c, 2, 74, 127
2, 772943, Note_off_c, 2, 74, 127
2, 772944, Note_on_c, 0, 72, 127
2, 773034, Note_off_c, 6, 54, 127
2, 773034, Note_off_c, 10, 57, 127
2, 773080, Note_off_c, 0, 72, 127
2, 773081, Note_on_c, 12, 71, 127
2, 773081, Note_on_c, 2, 62, 127
2, 773081, Note_on_c, 8, 56, 127
2, 773217, Note_off_c, 12, 71, 127
2, 773218, Note_on_c, 10, 69, 127
2, 773354, Note_off_c, 10, 69, 127
2, 773355, Note_on_c, 8, 68, 127
2, 773445, Note_off_c, 8, 56, 127
2, 773445, Note_off_c, 2, 62, 127
2, 773491, Note_off_c, 8, 68, 127
2, 773492, Note_on_c, 3, 75, 127
2, 773492, Note_on_c, 0, 60, 127
2, 773492, Note_on_c, 10, 57, 127
2, 773628, Note_off_c, 3, 75, 127
2, 773629, Note_on_c, 4, 76, 127
2, 773765, Note_off_c, 4, 76, 127
2, 773766, Note_on_c, 6, 78, 127
2, 773856, Note_off_c, 10, 57, 127
2, 773856, Note_off_c, 0, 60, 127
2, 773902, Note_off_c, 6, 78, 127
2, 773903, Note_on_c, 8, 80, 127
2, 773903, Note_on_c, 2, 62, 127
2, 773903, Note_on_c, 12, 59, 127
2, 774039, Note_off_c, 8, 80, 127
2, 774040, Note_on_c, 10, 81, 127
2, 774176, Note_off_c, 10, 81, 127
2, 774177, Note_on_c, 12, 83, 127
2, 774267, Note_off_c, 12, 59, 127
2, 774267, Note_off_c, 2, 62, 127
2, 774313, Note_off_c, 12, 83, 127
2, 774314, Note_on_c, 5, 77, 127
2, 774314, Note_on_c, 12, 59, 127
2, 774314, Note_on_c, 8, 56, 127
2, 774450, Note_off_c, 5, 77, 127
2, 774451, Note_on_c, 4, 76, 127
2, 774587, Note_off_c, 4, 76, 127
2, 774588, Note_on_c, 2, 74, 127
2, 774678, Note_off_c, 8, 56, 127
2, 774678, Note_off_c, 12, 59, 127
2, 774724, Note_off_c, 2, 74, 127
2, 774725, Note_on_c, 1, 73, 127
2, 774725, Note_on_c, 4, 64, 127
2, 774725, Note_on_c, 10, 57, 127
2, 774861, Note_off_c, 1, 73, 127
2, 774862, Note_on_c, 2, 74, 127
2, 774998, Note_off_c, 2, 74, 127
2, 774999, Note_on_c, 4, 76, 127
2, 775089, Note_off_c, 10, 57, 127
2, 775089, Note_off_c, 4, 64, 127
2, 775135, Note_off_c, 4, 76, 127
2, 775136, Note_on_c, 11, 70, 127
2, 775136, Note_on_c, 10, 45, 127
2, 775272, Note_off_c, 10, 45, 127
2, 775272, Note_off_c, 11, 70, 127
2, 775273, Note_on_c, 10, 69, 127
2, 775273, Note_on_c, 12, 47, 127
2, 775409, Note_off_c, 12, 47, 127
2, 775409, Note_off_c, 10, 69, 127
2, 775410, Note_on_c, 7, 67, 127
2, 775410, Note_on_c, 1, 49, 127
2, 775546, Note_off_c, 1, 49, 127
2, 775546, Note_off_c, 7, 67, 127
2, 775547, Note_on_c, 6, 66, 127
2, 775547, Note_on_c, 2, 50, 127
2, 775683, Note_off_c, 2, 50, 127
2, 775683, Note_off_c, 6, 66, 127
2, 775684, Note_on_c, 7, 67, 127
2, 775684, Note_on_c, 4, 52, 127
2, 775820, Note_off_c, 4, 52, 127
2, 775820, Note_off_c, 7, 67, 127
2, 775821, Note_on_c, 10, 69, 127
2, 775821, Note_on_c, 6, 54, 127
2, 775957, Note_off_c, 6, 54, 127
2, 775957, Note_off_c, 10, 69, 127
2, 775958, Note_on_c, 5, 65, 127
2, 775958, Note_on_c, 8, 56, 127
2, 776094, Note_off_c, 8, 56, 127
2, 776094, Note_off_c, 5, 65, 127
2, 776095, Note_on_c, 4, 64, 127
2, 776095, Note_on_c, 10, 57, 127
2, 776231, Note_off_c, 10, 57, 127
2, 776231, Note_off_c, 4, 64, 127
2, 776232, Note_on_c, 2, 62, 127
2, 776232, Note_on_c, 12, 59, 127
2, 776368, Note_off_c, 12, 59, 127
2, 776368, Note_off_c, 2, 62, 127
2, 776369, Note_on_c, 1, 61, 127
2, 776369, Note_on_c, 10, 57, 127
2, 776369, Note_on_c, 10, 45, 127
2, 776505, Note_off_c, 10, 45, 127
2, 776506, Note_on_c, 11, 46, 127
2, 776642, Note_off_c, 11, 46, 127
2, 776643, Note_on_c, 10, 45, 127
2, 776779, Note_off_c, 10, 45, 127
2, 776780, Note_on_c, 7, 43, 127
2, 776916, Note_off_c, 7, 43, 127
2, 776917, Note_on_c, 11, 46, 127
2, 777053, Note_off_c, 11, 46, 127
2, 777054, Note_on_c, 10, 45, 127
2, 777190, Note_off_c, 10, 45, 127
2, 777190, Note_off_c, 1, 61, 127
2, 777191, Note_on_c, 2, 62, 127
2, 777191, Note_on_c, 5, 41, 127
2, 777327, Note_off_c, 5, 41, 127
2, 777328, Note_on_c, 11, 46, 127
2, 777464, Note_off_c, 11, 46, 127
2, 777465, Note_on_c, 10, 45, 127
2, 777555, Note_off_c, 2, 62, 127
2, 777601, Note_off_c, 10, 45, 127
2, 777602, Note_on_c, 4, 64, 127
2, 777602, Note_on_c, 4, 40, 127
2, 777738, Note_off_c, 4, 40, 127
2, 777739, Note_on_c, 11, 46, 127
2, 777875, Note_off_c, 11, 46, 127
2, 777876, Note_on_c, 10, 45, 127
2, 777966, Note_off_c, 4, 64, 127
2, 778012, Note_off_c, 10, 45, 127
2, 778013, Note_on_c, 5, 65, 127
2, 778013, Note_on_c, 2, 38, 127
2, 778149, Note_off_c, 2, 38, 127
2, 778150, Note_on_c, 11, 46, 127
2, 778286, Note_off_c, 11, 46, 127
2, 778287, Note_on_c, 10, 45, 127
2, 778377, Note_off_c, 5, 65, 127
2, 778423, Note_off_c, 10, 45, 127
2, 778423, Note_off_c, 10, 57, 127
2, 778424, Note_on_c, 11, 70, 127
2, 778424, Note_on_c, 7, 67, 127
2, 778424, Note_on_c, 1, 37, 127
2, 778560, Note_off_c, 1, 37, 127
2, 778561, Note_on_c, 2, 38, 127
2, 778697, Note_off_c, 2, 38, 127
2, 778698, Note_on_c, 4, 40, 127
2, 778788, Note_off_c, 7, 67, 127
2, 778788, Note_off_c, 11, 70, 127
2, 778834, Note_off_c, 4, 40, 127
2, 778835, Note_on_c, 10, 69, 127
2, 778835, Note_on_c, 2, 62, 127
2, 778835, Note_on_c, 6, 42, 127
2, 778971, Note_off_c, 6, 42, 127
2, 778972, Note_on_c, 7, 43, 127
2, 779108, Note_off_c, 7, 43, 127
2, 779109, Note_on_c, 10, 45, 127
2, 779199, Note_off_c, 2, 62, 127
2, 779199, Note_off_c, 10, 69, 127
2, 779245, Note_off_c, 10, 45, 127
2, 779246, Note_on_c, 0, 72, 127
2, 779246, Note_on_c, 10, 69, 127
2, 779246, Note_on_c, 3, 39, 127
2, 779382, Note_off_c, 3, 39, 127
2, 779383, Note_on_c, 4, 40, 127
2, 779519, Note_off_c, 4, 40, 127
2, 779520, Note_on_c, 6, 42, 127
2, 779610, Note_off_c, 10, 69, 127
2, 779610, Note_off_c, 0, 72, 127
2, 779656, Note_off_c, 6, 42, 127
2, 779657, Note_on_c, 12, 71, 127
2, 779657, Note_on_c, 4, 64, 127
2, 779657, Note_on_c, 7, 43, 127
2, 779793, Note_off_c, 7, 43, 127
2, 779794, Note_on_c, 10, 45, 127
2, 779930, Note_off_c, 10, 45, 127
2, 779931, Note_on_c, 12, 47, 127
2, 780021, Note_off_c, 4, 64, 127
2, 780021, Note_off_c, 12, 71, 127
2, 780067, Note_off_c, 12, 47, 127
2, 780068, Note_on_c, 5, 77, 127
2, 780068, Note_on_c, 2, 74, 127
2, 780068, Note_on_c, 8, 44, 127
2, 780204, Note_off_c, 8, 44, 127
2, 780204, Note_off_c, 5, 77, 127
2, 780205, Note_on_c, 4, 76, 127
2, 780205, Note_on_c, 10, 45, 127
2, 780307, Note_off_c, 2, 74, 127
2, 780341, Note_off_c, 10, 45, 127
2, 780341, Note_off_c, 4, 76, 127
2, 780342, Note_on_c, 2, 74, 127
2, 780342, Note_on_c, 12, 47, 127
2, 780478, Note_off_c, 12, 47, 127
2, 780478, Note_off_c, 2, 74, 127
2, 780479, Note_on_c, 4, 76, 127
2, 780479, Note_on_c, 10, 69, 127
2, 780479, Note_on_c, 1, 49, 127
2, 780615, Note_off_c, 1, 49, 127
2, 780615, Note_off_c, 4, 76, 127
2, 780616, Note_on_c, 5, 77, 127
2, 780616, Note_on_c, 2, 50, 127
2, 780752, Note_off_c, 2, 50, 127
2, 780752, Note_off_c, 5, 77, 127
2, 780753, Note_on_c, 7, 79, 127
2, 780753, Note_on_c, 4, 52, 127
2, 780843, Note_off_c, 10, 69, 127
2, 780889, Note_off_c, 4, 52, 127
2, 780889, Note_off_c, 7, 79, 127
2, 780890, Note_on_c, 7, 79, 127
2, 780890, Note_on_c, 1, 73, 127
2, 780890, Note_on_c, 11, 46, 127
2, 781026, Note_off_c, 11, 46, 127
2, 781026, Note_off_c, 7, 79, 127
2, 781027, Note_on_c, 10, 81, 127
2, 781027, Note_on_c, 10, 45, 127
2, 781163, Note_off_c, 10, 45, 127
2, 781163, Note_off_c, 10, 81, 127
2, 781164, Note_on_c, 11, 82, 127
2, 781164, Note_on_c, 7, 43, 127
2, 781254, Note_off_c, 1, 73, 127
2, 781300, Note_off_c, 7, 43, 127
2, 781300, Note_off_c, 11, 82, 127
2, 781301, Note_on_c, 2, 74, 127
2, 781301, Note_on_c, 10, 81, 127
2, 781301, Note_on_c, 5, 53, 127
2, 781438, Note_on_c, 10, 45, 127
2, 781574, Note_off_c, 10, 45, 127
2, 781575, Note_on_c, 8, 44, 127
2, 781665, Note_off_c, 5, 53, 127
2, 781665, Note_off_c, 2, 74, 127
2, 781712, Note_on_c, 6, 54, 127
2, 781827, Note_off_c, 8, 44, 127
2, 781850, Note_on_c, 11, 46, 127
2, 781986, Note_off_c, 11, 46, 127
2, 781987, Note_on_c, 10, 45, 127
2, 782077, Note_off_c, 6, 54, 127
2, 782124, Note_on_c, 7, 55, 127
2, 782239, Note_off_c, 10, 45, 127
2, 782262, Note_on_c, 11, 46, 127
2, 782398, Note_off_c, 11, 46, 127
2, 782399, Note_on_c, 10, 45, 127
2, 782489, Note_off_c, 7, 55, 127
2, 782536, Note_on_c, 8, 56, 127
2, 782651, Note_off_c, 10, 45, 127
2, 782674, Note_on_c, 0, 48, 127
2, 782810, Note_off_c, 0, 48, 127
2, 782811, Note_on_c, 12, 47, 127
2, 782901, Note_off_c, 8, 56, 127
2, 782948, Note_on_c, 10, 57, 127
2, 783063, Note_off_c, 12, 47, 127
2, 783086, Note_on_c, 0, 48, 127
2, 783222, Note_off_c, 0, 48, 127
2, 783223, Note_on_c, 12, 47, 127
2, 783313, Note_off_c, 10, 57, 127
2, 783360, Note_on_c, 4, 52, 127
2, 783475, Note_off_c, 12, 47, 127
2, 783498, Note_on_c, 2, 50, 127
2, 783634, Note_off_c, 2, 50, 127
2, 783635, Note_on_c, 1, 49, 127
2, 783725, Note_off_c, 4, 52, 127
2, 783772, Note_on_c, 11, 58, 127
2, 783887, Note_off_c, 1, 49, 127
2, 783910, Note_on_c, 2, 50, 127
2, 784046, Note_off_c, 2, 50, 127
2, 784047, Note_on_c, 1, 49, 127
2, 784137, Note_off_c, 11, 58, 127
2, 784184, Note_on_c, 12, 59, 127
2, 784299, Note_off_c, 1, 49, 127
2, 784322, Note_on_c, 4, 52, 127
2, 784458, Note_off_c, 4, 52, 127
2, 784459, Note_on_c, 3, 51, 127
2, 784549, Note_off_c, 12, 59, 127
2, 784596, Note_on_c, 0, 60, 127
2, 784711, Note_off_c, 3, 51, 127
2, 784734, Note_on_c, 4, 52, 127
2, 784870, Note_off_c, 4, 52, 127
2, 784871, Note_on_c, 3, 51, 127
2, 784961, Note_off_c, 0, 60, 127
2, 785008, Note_on_c, 1, 61, 127
2, 785123, Note_off_c, 3, 51, 127
2, 785146, Note_on_c, 5, 53, 127
2, 785282, Note_off_c, 5, 53, 127
2, 785283, Note_on_c, 4, 52, 127
2, 785373, Note_off_c, 1, 61, 127
2, 785420, Note_on_c, 2, 62, 127
2, 785535, Note_off_c, 4, 52, 127
2, 785558, Note_on_c, 5, 53, 127
2, 785694, Note_off_c, 5, 53, 127
2, 785695, Note_on_c, 4, 52, 127
2, 785785, Note_off_c, 2, 62, 127
2, 785832, Note_on_c, 10, 57, 127
2, 785947, Note_off_c, 4, 52, 127
2, 785970, Note_on_c, 7, 55, 127
2, 786106, Note_off_c, 7, 55, 127
2, 786107, Note_on_c, 6, 54, 127
2, 786197, Note_off_c, 10, 57, 127
2, 786243, Note_off_c, 6, 54, 127
2, 786244, Note_on_c, 11, 58, 127
2, 786244, Note_on_c, 7, 55, 127
2, 786380, Note_off_c, 11, 58, 127
2, 786380, Note_off_c, 10, 81, 127
2, 786381, Note_on_c, 11, 82, 127
2, 786381, Note_on_c, 1, 61, 127
2, 786517, Note_off_c, 1, 61, 127
2, 786517, Note_off_c, 11, 82, 127
2, 786518, Note_on_c, 10, 81, 127
2, 786518, Note_on_c, 2, 62, 127
2, 786608, Note_off_c, 7, 55, 127
2, 786654, Note_off_c, 10, 81, 127
2, 786655, Note_on_c, 7, 79, 127
2, 786655, Note_on_c, 11, 58, 127
2, 786770, Note_off_c, 2, 62, 127
2, 786791, Note_off_c, 7, 79, 127
2, 786792, Note_on_c, 11, 82, 127
2, 786792, Note_on_c, 1, 61, 127
2, 786928, Note_off_c, 1, 61, 127
2, 786928, Note_off_c, 11, 82, 127
2, 786929, Note_on_c, 10, 81, 127
2, 786929, Note_on_c, 2, 62, 127
2, 787019, Note_off_c, 11, 58, 127
2, 787065, Note_off_c, 10, 81, 127
2, 787066, Note_on_c, 5, 77, 127
2, 787066, Note_on_c, 10, 57, 127
2, 787181, Note_off_c, 2, 62, 127
2, 787202, Note_off_c, 5, 77, 127
2, 787203, Note_on_c, 11, 82, 127
2, 787203, Note_on_c, 1, 61, 127
2, 787339, Note_off_c, 1, 61, 127
2, 787339, Note_off_c, 11, 82, 127
2, 787340, Note_on_c, 10, 81, 127
2, 787340, Note_on_c, 2, 62, 127
2, 787430, Note_off_c, 10, 57, 127
2, 787476, Note_off_c, 10, 81, 127
2, 787477, Note_on_c, 4, 76, 127
2, 787477, Note_on_c, 7, 55, 127
2, 787592, Note_off_c, 2, 62, 127
2, 787613, Note_off_c, 4, 76, 127
2, 787614, Note_on_c, 11, 82, 127
2, 787614, Note_on_c, 1, 61, 127
2, 787750, Note_off_c, 1, 61, 127
2, 787750, Note_off_c, 11, 82, 127
2, 787751, Note_on_c, 10, 81, 127
2, 787751, Note_on_c, 2, 62, 127
2, 787841, Note_off_c, 7, 55, 127
2, 787887, Note_off_c, 2, 62, 127
2, 787887, Note_off_c, 10, 81, 127
2, 787888, Note_on_c, 2, 74, 127
2, 787888, Note_on_c, 5, 53, 127
2, 788024, Note_off_c, 5, 53, 127
2, 788024, Note_off_c, 2, 74, 127
2, 788025, Note_on_c, 11, 82, 127
2, 788025, Note_on_c, 1, 61, 127
2, 788161, Note_off_c, 1, 61, 127
2, 788161, Note_off_c, 11, 82, 127
2, 788162, Note_on_c, 10, 81, 127
2, 788162, Note_on_c, 2, 62, 127
2, 788298, Note_off_c, 2, 62, 127
2, 788298, Note_off_c, 10, 81, 127
2, 788299, Note_on_c, 1, 73, 127
2, 788299, Note_on_c, 11, 58, 127
2, 788435, Note_off_c, 11, 58, 127
2, 788435, Note_off_c, 1, 73, 127
2, 788436, Note_on_c, 2, 74, 127
2, 788436, Note_on_c, 10, 57, 127
2, 788572, Note_off_c, 10, 57, 127
2, 788572, Note_off_c, 2, 74, 127
2, 788573, Note_on_c, 4, 76, 127
2, 788573, Note_on_c, 7, 55, 127
2, 788709, Note_off_c, 7, 55, 127
2, 788709, Note_off_c, 4, 76, 127
2, 788710, Note_on_c, 5, 77, 127
2, 788710, Note_on_c, 5, 53, 127
2, 788846, Note_off_c, 5, 53, 127
2, 788846, Note_off_c, 5, 77, 127
2, 788847, Note_on_c, 7, 79, 127
2, 788847, Note_on_c, 4, 52, 127
2, 788983, Note_off_c, 4, 52, 127
2, 788983, Note_off_c, 7, 79, 127
2, 788984, Note_on_c, 10, 81, 127
2, 788984, Note_on_c, 2, 50, 127
2, 789120, Note_off_c, 2, 50, 127
2, 789120, Note_off_c, 10, 81, 127
2, 789121, Note_on_c, 3, 75, 127
2, 789121, Note_on_c, 7, 55, 127
2, 789257, Note_off_c, 7, 55, 127
2, 789257, Note_off_c, 3, 75, 127
2, 789258, Note_on_c, 2, 74, 127
2, 789258, Note_on_c, 10, 57, 127
2, 789394, Note_off_c, 10, 57, 127
2, 789394, Note_off_c, 2, 74, 127
2, 789395, Note_on_c, 1, 73, 127
2, 789395, Note_on_c, 11, 58, 127
2, 789531, Note_off_c, 11, 58, 127
2, 789531, Note_off_c, 1, 73, 127
2, 789532, Note_on_c, 2, 74, 127
2, 789532, Note_on_c, 10, 57, 127
2, 789668, Note_off_c, 10, 57, 127
2, 789668, Note_off_c, 2, 74, 127
2, 789669, Note_on_c, 1, 73, 127
2, 789669, Note_on_c, 11, 58, 127
2, 789805, Note_off_c, 11, 58, 127
2, 789805, Note_off_c, 1, 73, 127
2, 789806, Note_on_c, 2, 74, 127
2, 789806, Note_on_c, 10, 57, 127
2, 789942, Note_off_c, 10, 57, 127
2, 789942, Note_off_c, 2, 74, 127
2, 789943, Note_on_c, 4, 64, 127
2, 789943, Note_on_c, 7, 55, 127
2, 790079, Note_off_c, 7, 55, 127
2, 790079, Note_off_c, 4, 64, 127
2, 790080, Note_on_c, 1, 73, 127
2, 790080, Note_on_c, 11, 58, 127
2, 790216, Note_off_c, 11, 58, 127
2, 790216, Note_off_c, 1, 73, 127
2, 790217, Note_on_c, 2, 74, 127
2, 790217, Note_on_c, 10, 57, 127
2, 790353, Note_off_c, 10, 57, 127
2, 790353, Note_off_c, 2, 74, 127
2, 790354, Note_on_c, 5, 65, 127
2, 790354, Note_on_c, 5, 53, 127
2, 790490, Note_off_c, 5, 53, 127
2, 790490, Note_off_c, 5, 65, 127
2, 790491, Note_on_c, 1, 73, 127
2, 790491, Note_on_c, 11, 58, 127
2, 790627, Note_off_c, 11, 58, 127
2, 790627, Note_off_c, 1, 73, 127
2, 790628, Note_on_c, 2, 74, 127
2, 790628, Note_on_c, 10, 57, 127
2, 790764, Note_off_c, 10, 57, 127
2, 790764, Note_off_c, 2, 74, 127
2, 790765, Note_on_c, 7, 67, 127
2, 790765, Note_on_c, 4, 52, 127
2, 790901, Note_off_c, 4, 52, 127
2, 790901, Note_off_c, 7, 67, 127
2, 790902, Note_on_c, 1, 73, 127
2, 790902, Note_on_c, 11, 58, 127
2, 791038, Note_off_c, 11, 58, 127
2, 791038, Note_off_c, 1, 73, 127
2, 791039, Note_on_c, 2, 74, 127
2, 791039, Note_on_c, 10, 57, 127
2, 791175, Note_off_c, 10, 57, 127
2, 791175, Note_off_c, 2, 74, 127
2, 791176, Note_on_c, 10, 69, 127
2, 791176, Note_on_c, 2, 50, 127
2, 791312, Note_off_c, 2, 50, 127
2, 791312, Note_off_c, 10, 69, 127
2, 791313, Note_on_c, 1, 73, 127
2, 791313, Note_on_c, 11, 58, 127
2, 791449, Note_off_c, 11, 58, 127
2, 791449, Note_off_c, 1, 73, 127
2, 791450, Note_on_c, 2, 74, 127
2, 791450, Note_on_c, 10, 57, 127
2, 791586, Note_off_c, 10, 57, 127
2, 791586, Note_off_c, 2, 74, 127
2, 791587, Note_on_c, 11, 70, 127
2, 791587, Note_on_c, 1, 49, 127
2, 791723, Note_off_c, 1, 49, 127
2, 791723, Note_off_c, 11, 70, 127
2, 791724, Note_on_c, 10, 69, 127
2, 791724, Note_on_c, 2, 50, 127
2, 791860, Note_off_c, 2, 50, 127
2, 791860, Note_off_c, 10, 69, 127
2, 791861, Note_on_c, 7, 67, 127
2, 791861, Note_on_c, 4, 52, 127
2, 791997, Note_off_c, 4, 52, 127
2, 791997, Note_off_c, 7, 67, 127
2, 791998, Note_on_c, 5, 65, 127
2, 791998, Note_on_c, 5, 53, 127
2, 792134, Note_off_c, 5, 53, 127
2, 792134, Note_off_c, 5, 65, 127
2, 792135, Note_on_c, 4, 64, 127
2, 792135, Note_on_c, 7, 55, 127
2, 792271, Note_off_c, 7, 55, 127
2, 792271, Note_off_c, 4, 64, 127
2, 792272, Note_on_c, 2, 62, 127
2, 792272, Note_on_c, 10, 57, 127
2, 792408, Note_off_c, 10, 57, 127
2, 792408, Note_off_c, 2, 62, 127
2, 792409, Note_on_c, 5, 77, 127
2, 792409, Note_on_c, 12, 59, 127
2, 792545, Note_off_c, 12, 59, 127
2, 792545, Note_off_c, 5, 77, 127
2, 792546, Note_on_c, 4, 76, 127
2, 792546, Note_on_c, 1, 61, 127
2, 792682, Note_off_c, 1, 61, 127
2, 792682, Note_off_c, 4, 76, 127
2, 792683, Note_on_c, 2, 74, 127
2, 792683, Note_on_c, 2, 62, 127
2, 792819, Note_off_c, 2, 62, 127
2, 792819, Note_off_c, 2, 74, 127
2, 792820, Note_on_c, 1, 73, 127
2, 792820, Note_on_c, 4, 64, 127
2, 792956, Note_off_c, 4, 64, 127
2, 792956, Note_off_c, 1, 73, 127
2, 792957, Note_on_c, 12, 71, 127
2, 792957, Note_on_c, 5, 65, 127
2, 793093, Note_off_c, 5, 65, 127
2, 793093, Note_off_c, 12, 71, 127
2, 793094, Note_on_c, 10, 69, 127
2, 793094, Note_on_c, 7, 67, 127
2, 793230, Note_off_c, 7, 67, 127
2, 793230, Note_off_c, 10, 69, 127
2, 793231, Note_on_c, 11, 82, 127
2, 793231, Note_on_c, 10, 69, 127
2, 793367, Note_off_c, 10, 69, 127
2, 793367, Note_off_c, 11, 82, 127
2, 793368, Note_on_c, 10, 81, 127
2, 793368, Note_on_c, 12, 71, 127
2, 793504, Note_off_c, 12, 71, 127
2, 793504, Note_off_c, 10, 81, 127
2, 793505, Note_on_c, 7, 79, 127
2, 793505, Note_on_c, 1, 73, 127
2, 793641, Note_off_c, 1, 73, 127
2, 793641, Note_off_c, 7, 79, 127
2, 793642, Note_on_c, 5, 77, 127
2, 793642, Note_on_c, 2, 74, 127
2, 793778, Note_off_c, 5, 77, 127
2, 793779, Note_on_c, 4, 76, 127
2, 793894, Note_off_c, 2, 74, 127
2, 793915, Note_off_c, 4, 76, 127
2, 793916, Note_on_c, 2, 74, 127
2, 793916, Note_on_c, 0, 72, 127
2, 794052, Note_off_c, 0, 72, 127
2, 794052, Note_off_c, 2, 74, 127
2, 794053, Note_on_c, 7, 79, 127
2, 794053, Note_on_c, 11, 70, 127
2, 794189, Note_off_c, 11, 70, 127
2, 794189, Note_off_c, 7, 79, 127
2, 794190, Note_on_c, 10, 81, 127
2, 794190, Note_on_c, 10, 69, 127
2, 794326, Note_off_c, 10, 69, 127
2, 794326, Note_off_c, 10, 81, 127
2, 794327, Note_on_c, 11, 82, 127
2, 794327, Note_on_c, 7, 67, 127
2, 794463, Note_off_c, 7, 67, 127
2, 794464, Note_on_c, 1, 73, 127
2, 794464, Note_on_c, 10, 69, 127
2, 794579, Note_off_c, 11, 82, 127
2, 794602, Note_on_c, 10, 81, 127
2, 794738, Note_off_c, 10, 81, 127
2, 794739, Note_on_c, 11, 82, 127
2, 794829, Note_off_c, 1, 73, 127
2, 794876, Note_on_c, 0, 72, 127
2, 794991, Note_off_c, 11, 82, 127
2, 795014, Note_on_c, 8, 80, 127
2, 795150, Note_off_c, 8, 80, 127
2, 795151, Note_on_c, 10, 81, 127
2, 795241, Note_off_c, 0, 72, 127
2, 795287, Note_off_c, 10, 69, 127
2, 795288, Note_on_c, 12, 71, 127
2, 795288, Note_on_c, 10, 57, 127
2, 795403, Note_off_c, 10, 81, 127
2, 795426, Note_on_c, 8, 80, 127
2, 795562, Note_off_c, 8, 80, 127
2, 795563, Note_on_c, 10, 81, 127
2, 795653, Note_off_c, 12, 71, 127
2, 795700, Note_on_c, 11, 70, 127
2, 795815, Note_off_c, 10, 81, 127
2, 795838, Note_on_c, 6, 78, 127
2, 795974, Note_off_c, 6, 78, 127
2, 795975, Note_on_c, 7, 79, 127
2, 796065, Note_off_c, 11, 70, 127
2, 796111, Note_off_c, 10, 57, 127
2, 796112, Note_on_c, 10, 69, 127
2, 796112, Note_on_c, 10, 45, 127
2, 796227, Note_off_c, 7, 79, 127
2, 796250, Note_on_c, 6, 78, 127
2, 796386, Note_off_c, 6, 78, 127
2, 796387, Note_on_c, 7, 79, 127
2, 796477, Note_off_c, 10, 69, 127
2, 796524, Note_on_c, 2, 74, 127
2, 796639, Note_off_c, 7, 79, 127
2, 796662, Note_on_c, 4, 76, 127
2, 796798, Note_off_c, 4, 76, 127
2, 796799, Note_on_c, 5, 77, 127
2, 796889, Note_off_c, 2, 74, 127
2, 796936, Note_on_c, 8, 68, 127
2, 797051, Note_off_c, 5, 77, 127
2, 797074, Note_on_c, 4, 76, 127
2, 797210, Note_off_c, 4, 76, 127
2, 797211, Note_on_c, 5, 77, 127
2, 797301, Note_off_c, 8, 68, 127
2, 797348, Note_on_c, 7, 67, 127
2, 797463, Note_off_c, 5, 77, 127
2, 797486, Note_on_c, 2, 74, 127
2, 797622, Note_off_c, 2, 74, 127
2, 797623, Note_on_c, 3, 75, 127
2, 797713, Note_off_c, 7, 67, 127
2, 797760, Note_on_c, 6, 66, 127
2, 797875, Note_off_c, 3, 75, 127
2, 797898, Note_on_c, 2, 74, 127
2, 798034, Note_off_c, 2, 74, 127
2, 798035, Note_on_c, 3, 75, 127
2, 798125, Note_off_c, 6, 66, 127
2, 798172, Note_on_c, 5, 65, 127
2, 798287, Note_off_c, 3, 75, 127
2, 798310, Note_on_c, 1, 73, 127
2, 798446, Note_off_c, 1, 73, 127
2, 798447, Note_on_c, 2, 74, 127
2, 798537, Note_off_c, 5, 65, 127
2, 798584, Note_on_c, 4, 64, 127
2, 798699, Note_off_c, 2, 74, 127
2, 798722, Note_on_c, 1, 73, 127
2, 798858, Note_off_c, 1, 73, 127
2, 798859, Note_on_c, 2, 74, 127
2, 798949, Note_off_c, 4, 64, 127
2, 798996, Note_on_c, 7, 67, 127
2, 799111, Note_off_c, 2, 74, 127
2, 799134, Note_on_c, 12, 71, 127
2, 799270, Note_off_c, 12, 71, 127
2, 799271, Note_on_c, 1, 73, 127
2, 799407, Note_off_c, 1, 73, 127
2, 799407, Note_off_c, 10, 45, 127
2, 799408, Note_on_c, 2, 74, 127
2, 799408, Note_on_c, 2, 50, 127
2, 799548, Note_off_c, 2, 50, 127
2, 799548, Note_off_c, 7, 67, 127
2, 799549, Note_on_c, 6, 66, 127
2, 799549, Note_on_c, 3, 51, 127
2, 799689, Note_off_c, 3, 51, 127
2, 799689, Note_off_c, 6, 66, 127
2, 799690, Note_on_c, 7, 67, 127
2, 799690, Note_on_c, 2, 50, 127
2, 799830, Note_off_c, 2, 50, 127
2, 799830, Note_off_c, 7, 67, 127
2, 799831, Note_on_c, 10, 69, 127
2, 799831, Note_on_c, 0, 48, 127
2, 799971, Note_off_c, 0, 48, 127
2, 799971, Note_off_c, 10, 69, 127
2, 799972, Note_on_c, 6, 66, 127
2, 799972, Note_on_c, 3, 51, 127
2, 800112, Note_off_c, 3, 51, 127
2, 800112, Note_off_c, 6, 66, 127
2, 800113, Note_on_c, 7, 67, 127
2, 800113, Note_on_c, 2, 50, 127
2, 800253, Note_off_c, 2, 50, 127
2, 800253, Note_off_c, 7, 67, 127
2, 800254, Note_on_c, 11, 70, 127
2, 800254, Note_on_c, 11, 46, 127
2, 800394, Note_off_c, 11, 46, 127
2, 800394, Note_off_c, 11, 70, 127
2, 800395, Note_on_c, 6, 66, 127
2, 800395, Note_on_c, 3, 51, 127
2, 800535, Note_off_c, 3, 51, 127
2, 800535, Note_off_c, 6, 66, 127
2, 800536, Note_on_c, 7, 67, 127
2, 800536, Note_on_c, 2, 50, 127
2, 800676, Note_off_c, 2, 50, 127
2, 800676, Note_off_c, 7, 67, 127
2, 800677, Note_on_c, 0, 72, 127
2, 800677, Note_on_c, 10, 45, 127
2, 800817, Note_off_c, 10, 45, 127
2, 800817, Note_off_c, 0, 72, 127
2, 800818, Note_on_c, 6, 66, 127
2, 800818, Note_on_c, 3, 51, 127
2, 800958, Note_off_c, 3, 51, 127
2, 800958, Note_off_c, 6, 66, 127
2, 800959, Note_on_c, 7, 67, 127
2, 800959, Note_on_c, 2, 50, 127
2, 801098, Note_off_c, 2, 74, 127
2, 801099, Note_off_c, 2, 50, 127
2, 801099, Note_off_c, 7, 67, 127
2, 801100, Note_on_c, 2, 74, 127
2, 801100, Note_on_c, 7, 43, 127
2, 801244, Note_off_c, 7, 43, 127
2, 801244, Note_off_c, 2, 74, 127
2, 801245, Note_on_c, 10, 69, 127
2, 801245, Note_on_c, 3, 51, 127
2, 801389, Note_off_c, 3, 51, 127
2, 801389, Note_off_c, 10, 69, 127
2, 801390, Note_on_c, 11, 70, 127
2, 801390, Note_on_c, 2, 50, 127
2, 801534, Note_off_c, 2, 50, 127
2, 801534, Note_off_c, 11, 70, 127
2, 801535, Note_on_c, 0, 72, 127
2, 801535, Note_on_c, 6, 42, 127
2, 801679, Note_off_c, 6, 42, 127
2, 801679, Note_off_c, 0, 72, 127
2, 801680, Note_on_c, 11, 70, 127
2, 801680, Note_on_c, 7, 43, 127
2, 801824, Note_off_c, 7, 43, 127
2, 801824, Note_off_c, 11, 70, 127
2, 801825, Note_on_c, 10, 69, 127
2, 801825, Note_on_c, 10, 45, 127
2, 801969, Note_off_c, 10, 45, 127
2, 801969, Note_off_c, 10, 69, 127
2, 801970, Note_on_c, 7, 67, 127
2, 801970, Note_on_c, 11, 46, 127
2, 802137, Note_off_c, 11, 46, 127
2, 802137, Note_off_c, 7, 67, 127
2, 802154, Note_on_c, 7, 43, 127
2, 802154, Note_on_c, 11, 70, 127
2, 802321, Note_off_c, 11, 70, 127
2, 802321, Note_off_c, 7, 43, 127
2, 802351, Note_on_c, 4, 64, 127
2, 802351, Note_on_c, 1, 49, 127
2, 802542, Note_off_c, 1, 49, 127
2, 802543, Note_off_c, 4, 64, 127
2, 802617, Note_on_c, 2, 38, 127
2, 802617, Note_on_c, 6, 66, 127
2, 802617, Note_on_c, 2, 62, 127
2, 804817, Note_off_c, 2, 62, 127
2, 804817, Note_off_c, 6, 66, 127
2, 804817, Note_off_c, 2, 38, 127
2, 809472, End_track
3, 0, Start_track
3, 0, Title_t, "MIDI"
3, 1536, End_track
0, 0, End_of_file
