0, 0, Header, 1, 4, 240
1, 0, Start_track
1, 0, Title_t, "untitled"
1, 0, SMPTE_offset, 96, 0, 3, 0, 0
1, 0, Time_signature, 1, 3, 12, 8
1, 0, Key_signature, 0, "major"
1, 0, Tempo, 283019
1, 120, Time_signature, 6, 3, 12, 8
1, 120, Tempo, 277778
1, 105960, Time_signature, 5, 3, 12, 8
1, 105960, Tempo, 285714
1, 105960, End_track
2, 0, Start_track
2, 0, MIDI_port, 0
2, 0, Title_t, "English Suite 2, 7. Gigue"
2, 0, Program_c, 0, 0
2, 0, Control_c, 0, 7, 100
2, 0, Control_c, 0, 10, 64
2, 0, Note_on_c, 0, 64, 107
2, 96, Note_on_c, 0, 64, 0
2, 120, Note_on_c, 0, 69, 107
2, 312, Note_on_c, 0, 69, 0
2, 360, Note_on_c, 0, 69, 107
2, 456, Note_on_c, 0, 69, 0
2, 480, Note_on_c, 0, 69, 107
2, 576, Note_on_c, 0, 69, 0
2, 600, Note_on_c, 0, 71, 107
2, 696, Note_on_c, 0, 71, 0
2, 720, Note_on_c, 0, 72, 107
2, 816, Note_on_c, 0, 72, 0
2, 840, Note_on_c, 0, 71, 107
2, 936, Note_on_c, 0, 71, 0
2, 960, Note_on_c, 0, 62, 107
2, 1056, Note_on_c, 0, 62, 0
2, 1080, Note_on_c, 0, 71, 107
2, 1176, Note_on_c, 0, 71, 0
2, 1200, Note_on_c, 0, 64, 107
2, 1296, Note_on_c, 0, 64, 0
2, 1320, Note_on_c, 0, 65, 107
2, 1416, Note_on_c, 0, 65, 0
2, 1440, Note_on_c, 0, 62, 107
2, 1536, Note_on_c, 0, 62, 0
2, 1560, Note_on_c, 0, 60, 107
2, 1656, Note_on_c, 0, 60, 0
2, 1680, Note_on_c, 0, 64, 107
2, 1776, Note_on_c, 0, 64, 0
2, 1800, Note_on_c, 0, 69, 107
2, 1896, Note_on_c, 0, 69, 0
2, 1920, Note_on_c, 0, 62, 107
2, 2016, Note_on_c, 0, 62, 0
2, 2040, Note_on_c, 0, 71, 107
2, 2136, Note_on_c, 0, 71, 0
2, 2160, Note_on_c, 0, 69, 107
2, 2256, Note_on_c, 0, 69, 0
2, 2280, Note_on_c, 0, 68, 107
2, 2376, Note_on_c, 0, 68, 0
2, 2400, Note_on_c, 0, 69, 107
2, 2496, Note_on_c, 0, 69, 0
2, 2520, Note_on_c, 0, 71, 107
2, 2616, Note_on_c, 0, 71, 0
2, 2640, Note_on_c, 0, 64, 107
2, 2736, Note_on_c, 0, 64, 0
2, 2760, Note_on_c, 0, 76, 107
2, 2856, Note_on_c, 0, 76, 0
2, 2880, Note_on_c, 0, 74, 107
2, 2976, Note_on_c, 0, 74, 0
2, 3000, Note_on_c, 0, 72, 107
2, 3096, Note_on_c, 0, 72, 0
2, 3120, Note_on_c, 0, 74, 107
2, 3216, Note_on_c, 0, 74, 0
2, 3240, Note_on_c, 0, 76, 107
2, 3336, Note_on_c, 0, 76, 0
2, 3360, Note_on_c, 0, 69, 107
2, 3456, Note_on_c, 0, 69, 0
2, 3480, Note_on_c, 0, 77, 107
2, 3576, Note_on_c, 0, 77, 0
2, 3600, Note_on_c, 0, 76, 107
2, 3696, Note_on_c, 0, 76, 0
2, 3720, Note_on_c, 0, 74, 107
2, 3816, Note_on_c, 0, 74, 0
2, 3840, Note_on_c, 0, 76, 107
2, 3936, Note_on_c, 0, 76, 0
2, 3960, Note_on_c, 0, 77, 107
2, 4056, Note_on_c, 0, 77, 0
2, 4080, Note_on_c, 0, 71, 107
2, 4176, Note_on_c, 0, 71, 0
2, 4200, Note_on_c, 0, 79, 107
2, 4296, Note_on_c, 0, 79, 0
2, 4320, Note_on_c, 0, 77, 107
2, 4416, Note_on_c, 0, 77, 0
2, 4440, Note_on_c, 0, 76, 107
2, 4536, Note_on_c, 0, 76, 0
2, 4560, Note_on_c, 0, 77, 107
2, 4656, Note_on_c, 0, 77, 0
2, 4680, Note_on_c, 0, 79, 107
2, 4776, Note_on_c, 0, 79, 0
2, 4800, Note_on_c, 0, 79, 107
2, 4824, Note_on_c, 0, 79, 0
2, 4830, Note_on_c, 0, 81, 107
2, 4854, Note_on_c, 0, 81, 0
2, 4860, Note_on_c, 0, 79, 107
2, 4908, Note_on_c, 0, 79, 0
2, 4920, Note_on_c, 0, 78, 107
2, 5016, Note_on_c, 0, 78, 0
2, 5040, Note_on_c, 0, 79, 107
2, 5136, Note_on_c, 0, 79, 0
2, 5160, Note_on_c, 0, 81, 107
2, 5256, Note_on_c, 0, 81, 0
2, 5280, Note_on_c, 0, 69, 107
2, 5376, Note_on_c, 0, 69, 0
2, 5400, Note_on_c, 0, 71, 107
2, 5496, Note_on_c, 0, 71, 0
2, 5520, Note_on_c, 0, 72, 107
2, 5616, Note_on_c, 0, 72, 0
2, 5640, Note_on_c, 0, 74, 107
2, 5736, Note_on_c, 0, 74, 0
2, 5760, Note_on_c, 0, 76, 107
2, 5856, Note_on_c, 0, 76, 0
2, 5880, Note_on_c, 0, 77, 107
2, 5976, Note_on_c, 0, 77, 0
2, 6000, Note_on_c, 0, 79, 107
2, 6096, Note_on_c, 0, 79, 0
2, 6120, Note_on_c, 0, 81, 107
2, 6216, Note_on_c, 0, 81, 0
2, 6240, Note_on_c, 0, 81, 107
2, 6264, Note_on_c, 0, 81, 0
2, 6270, Note_on_c, 0, 83, 107
2, 6294, Note_on_c, 0, 83, 0
2, 6300, Note_on_c, 0, 81, 107
2, 6348, Note_on_c, 0, 81, 0
2, 6360, Note_on_c, 0, 79, 107
2, 6456, Note_on_c, 0, 79, 0
2, 6480, Note_on_c, 0, 81, 107
2, 6576, Note_on_c, 0, 81, 0
2, 6600, Note_on_c, 0, 83, 107
2, 6696, Note_on_c, 0, 83, 0
2, 6720, Note_on_c, 0, 71, 107
2, 6816, Note_on_c, 0, 71, 0
2, 6840, Note_on_c, 0, 72, 107
2, 6936, Note_on_c, 0, 72, 0
2, 6960, Note_on_c, 0, 74, 107
2, 7056, Note_on_c, 0, 74, 0
2, 7080, Note_on_c, 0, 76, 107
2, 7176, Note_on_c, 0, 76, 0
2, 7200, Note_on_c, 0, 77, 107
2, 7296, Note_on_c, 0, 77, 0
2, 7320, Note_on_c, 0, 79, 107
2, 7416, Note_on_c, 0, 79, 0
2, 7440, Note_on_c, 0, 81, 107
2, 7536, Note_on_c, 0, 81, 0
2, 7560, Note_on_c, 0, 83, 107
2, 7656, Note_on_c, 0, 83, 0
2, 7680, Note_on_c, 0, 83, 107
2, 7704, Note_on_c, 0, 83, 0
2, 7710, Note_on_c, 0, 84, 107
2, 7734, Note_on_c, 0, 84, 0
2, 7740, Note_on_c, 0, 83, 107
2, 7788, Note_on_c, 0, 83, 0
2, 7800, Note_on_c, 0, 81, 107
2, 7896, Note_on_c, 0, 81, 0
2, 7920, Note_on_c, 0, 83, 107
2, 8016, Note_on_c, 0, 83, 0
2, 8040, Note_on_c, 0, 84, 107
2, 8136, Note_on_c, 0, 84, 0
2, 8160, Note_on_c, 0, 72, 107
2, 8256, Note_on_c, 0, 72, 0
2, 8280, Note_on_c, 0, 74, 107
2, 8376, Note_on_c, 0, 74, 0
2, 8400, Note_on_c, 0, 76, 107
2, 8496, Note_on_c, 0, 76, 0
2, 8520, Note_on_c, 0, 77, 107
2, 8616, Note_on_c, 0, 77, 0
2, 8640, Note_on_c, 0, 79, 107
2, 8736, Note_on_c, 0, 79, 0
2, 8760, Note_on_c, 0, 81, 107
2, 8856, Note_on_c, 0, 81, 0
2, 8880, Note_on_c, 0, 71, 107
2, 8976, Note_on_c, 0, 71, 0
2, 9000, Note_on_c, 0, 72, 107
2, 9096, Note_on_c, 0, 72, 0
2, 9120, Note_on_c, 0, 74, 107
2, 9216, Note_on_c, 0, 74, 0
2, 9240, Note_on_c, 0, 76, 107
2, 9336, Note_on_c, 0, 76, 0
2, 9360, Note_on_c, 0, 77, 107
2, 9456, Note_on_c, 0, 77, 0
2, 9480, Note_on_c, 0, 79, 107
2, 9576, Note_on_c, 0, 79, 0
2, 9600, Note_on_c, 0, 69, 107
2, 9696, Note_on_c, 0, 69, 0
2, 9720, Note_on_c, 0, 71, 107
2, 9816, Note_on_c, 0, 71, 0
2, 9840, Note_on_c, 0, 72, 107
2, 9936, Note_on_c, 0, 72, 0
2, 9960, Note_on_c, 0, 74, 107
2, 10056, Note_on_c, 0, 74, 0
2, 10080, Note_on_c, 0, 76, 107
2, 10176, Note_on_c, 0, 76, 0
2, 10200, Note_on_c, 0, 77, 107
2, 10296, Note_on_c, 0, 77, 0
2, 10320, Note_on_c, 0, 79, 107
2, 10416, Note_on_c, 0, 79, 0
2, 10440, Note_on_c, 0, 81, 107
2, 10536, Note_on_c, 0, 81, 0
2, 10560, Note_on_c, 0, 74, 107
2, 10656, Note_on_c, 0, 74, 0
2, 10680, Note_on_c, 0, 76, 107
2, 10776, Note_on_c, 0, 76, 0
2, 10800, Note_on_c, 0, 77, 107
2, 10896, Note_on_c, 0, 77, 0
2, 10920, Note_on_c, 0, 71, 107
2, 11016, Note_on_c, 0, 71, 0
2, 11040, Note_on_c, 0, 72, 107
2, 11136, Note_on_c, 0, 72, 0
2, 11160, Note_on_c, 0, 74, 107
2, 11256, Note_on_c, 0, 74, 0
2, 11280, Note_on_c, 0, 67, 107
2, 11376, Note_on_c, 0, 67, 0
2, 11400, Note_on_c, 0, 69, 107
2, 11496, Note_on_c, 0, 69, 0
2, 11520, Note_on_c, 0, 71, 107
2, 11616, Note_on_c, 0, 71, 0
2, 11640, Note_on_c, 0, 72, 107
2, 11832, Note_on_c, 0, 72, 0
2, 11880, Note_on_c, 0, 72, 107
2, 11976, Note_on_c, 0, 72, 0
2, 12000, Note_on_c, 0, 72, 107
2, 12024, Note_on_c, 0, 72, 0
2, 12030, Note_on_c, 0, 74, 107
2, 12054, Note_on_c, 0, 74, 0
2, 12060, Note_on_c, 0, 72, 107
2, 12108, Note_on_c, 0, 72, 0
2, 12120, Note_on_c, 0, 71, 107
2, 12216, Note_on_c, 0, 71, 0
2, 12240, Note_on_c, 0, 72, 107
2, 12336, Note_on_c, 0, 72, 0
2, 12360, Note_on_c, 0, 74, 107
2, 12456, Note_on_c, 0, 74, 0
2, 12480, Note_on_c, 0, 65, 107
2, 12576, Note_on_c, 0, 65, 0
2, 12600, Note_on_c, 0, 74, 107
2, 12696, Note_on_c, 0, 74, 0
2, 12720, Note_on_c, 0, 64, 107
2, 12816, Note_on_c, 0, 64, 0
2, 12840, Note_on_c, 0, 65, 107
2, 12936, Note_on_c, 0, 65, 0
2, 12960, Note_on_c, 0, 62, 107
2, 13056, Note_on_c, 0, 62, 0
2, 13080, Note_on_c, 0, 60, 107
2, 13176, Note_on_c, 0, 60, 0
2, 13200, Note_on_c, 0, 64, 107
2, 13296, Note_on_c, 0, 64, 0
2, 13320, Note_on_c, 0, 67, 107
2, 13416, Note_on_c, 0, 67, 0
2, 13440, Note_on_c, 0, 64, 107
2, 13536, Note_on_c, 0, 64, 0
2, 13560, Note_on_c, 0, 67, 107
2, 13656, Note_on_c, 0, 67, 0
2, 13680, Note_on_c, 0, 72, 107
2, 13776, Note_on_c, 0, 72, 0
2, 13800, Note_on_c, 0, 67, 107
2, 13896, Note_on_c, 0, 67, 0
2, 13920, Note_on_c, 0, 71, 107
2, 14016, Note_on_c, 0, 71, 0
2, 14040, Note_on_c, 0, 74, 107
2, 14136, Note_on_c, 0, 74, 0
2, 14160, Note_on_c, 0, 71, 107
2, 14256, Note_on_c, 0, 71, 0
2, 14280, Note_on_c, 0, 74, 107
2, 14376, Note_on_c, 0, 74, 0
2, 14400, Note_on_c, 0, 79, 107
2, 14496, Note_on_c, 0, 79, 0
2, 14520, Note_on_c, 0, 79, 107
2, 14616, Note_on_c, 0, 79, 0
2, 14640, Note_on_c, 0, 76, 107
2, 14736, Note_on_c, 0, 76, 0
2, 14760, Note_on_c, 0, 72, 107
2, 14856, Note_on_c, 0, 72, 0
2, 14880, Note_on_c, 0, 70, 107
2, 14976, Note_on_c, 0, 70, 0
2, 15000, Note_on_c, 0, 69, 107
2, 15096, Note_on_c, 0, 69, 0
2, 15120, Note_on_c, 0, 67, 107
2, 15216, Note_on_c, 0, 67, 0
2, 15240, Note_on_c, 0, 69, 107
2, 15528, Note_on_c, 0, 69, 0
2, 15840, Note_on_c, 0, 69, 107
2, 15936, Note_on_c, 0, 69, 0
2, 15960, Note_on_c, 0, 77, 107
2, 16056, Note_on_c, 0, 77, 0
2, 16080, Note_on_c, 0, 74, 107
2, 16176, Note_on_c, 0, 74, 0
2, 16200, Note_on_c, 0, 71, 107
2, 16296, Note_on_c, 0, 71, 0
2, 16320, Note_on_c, 0, 69, 107
2, 16416, Note_on_c, 0, 69, 0
2, 16440, Note_on_c, 0, 67, 107
2, 16536, Note_on_c, 0, 67, 0
2, 16560, Note_on_c, 0, 65, 107
2, 16656, Note_on_c, 0, 65, 0
2, 16680, Note_on_c, 0, 67, 107
2, 16968, Note_on_c, 0, 67, 0
2, 17280, Note_on_c, 0, 67, 107
2, 17400, Note_on_c, 0, 67, 0
2, 17400, Note_on_c, 0, 76, 107
2, 17496, Note_on_c, 0, 76, 0
2, 17520, Note_on_c, 0, 72, 107
2, 17616, Note_on_c, 0, 72, 0
2, 17640, Note_on_c, 0, 69, 107
2, 17736, Note_on_c, 0, 69, 0
2, 17760, Note_on_c, 0, 67, 107
2, 17856, Note_on_c, 0, 67, 0
2, 17880, Note_on_c, 0, 65, 107
2, 17976, Note_on_c, 0, 65, 0
2, 18000, Note_on_c, 0, 64, 107
2, 18096, Note_on_c, 0, 64, 0
2, 18120, Note_on_c, 0, 74, 107
2, 18216, Note_on_c, 0, 74, 0
2, 18240, Note_on_c, 0, 71, 107
2, 18336, Note_on_c, 0, 71, 0
2, 18360, Note_on_c, 0, 67, 107
2, 18456, Note_on_c, 0, 67, 0
2, 18480, Note_on_c, 0, 65, 107
2, 18576, Note_on_c, 0, 65, 0
2, 18600, Note_on_c, 0, 64, 107
2, 18696, Note_on_c, 0, 64, 0
2, 18720, Note_on_c, 0, 62, 107
2, 18816, Note_on_c, 0, 62, 0
2, 18840, Note_on_c, 0, 64, 107
2, 18936, Note_on_c, 0, 64, 0
2, 18960, Note_on_c, 0, 67, 107
2, 19056, Note_on_c, 0, 67, 0
2, 19080, Note_on_c, 0, 72, 107
2, 19176, Note_on_c, 0, 72, 0
2, 19200, Note_on_c, 0, 66, 107
2, 19296, Note_on_c, 0, 66, 0
2, 19320, Note_on_c, 0, 74, 107
2, 19416, Note_on_c, 0, 74, 0
2, 19440, Note_on_c, 0, 72, 107
2, 19536, Note_on_c, 0, 72, 0
2, 19560, Note_on_c, 0, 71, 107
2, 19656, Note_on_c, 0, 71, 0
2, 19680, Note_on_c, 0, 72, 107
2, 19776, Note_on_c, 0, 72, 0
2, 19800, Note_on_c, 0, 74, 107
2, 19896, Note_on_c, 0, 74, 0
2, 19920, Note_on_c, 0, 67, 107
2, 20112, Note_on_c, 0, 67, 0
2, 20160, Note_on_c, 0, 74, 107
2, 20256, Note_on_c, 0, 74, 0
2, 20280, Note_on_c, 0, 76, 107
2, 20376, Note_on_c, 0, 76, 0
2, 20400, Note_on_c, 0, 77, 107
2, 20496, Note_on_c, 0, 77, 0
2, 20520, Note_on_c, 0, 79, 107
2, 20616, Note_on_c, 0, 79, 0
2, 20640, Note_on_c, 0, 67, 107
2, 20736, Note_on_c, 0, 67, 0
2, 20760, Note_on_c, 0, 69, 107
2, 20856, Note_on_c, 0, 69, 0
2, 20880, Note_on_c, 0, 71, 107
2, 20976, Note_on_c, 0, 71, 0
2, 21000, Note_on_c, 0, 72, 107
2, 21096, Note_on_c, 0, 72, 0
2, 21120, Note_on_c, 0, 74, 107
2, 21216, Note_on_c, 0, 74, 0
2, 21240, Note_on_c, 0, 76, 107
2, 21336, Note_on_c, 0, 76, 0
2, 21360, Note_on_c, 0, 71, 107
2, 21456, Note_on_c, 0, 71, 0
2, 21480, Note_on_c, 0, 72, 107
2, 21576, Note_on_c, 0, 72, 0
2, 21600, Note_on_c, 0, 74, 107
2, 21696, Note_on_c, 0, 74, 0
2, 21720, Note_on_c, 0, 76, 107
2, 21816, Note_on_c, 0, 76, 0
2, 21840, Note_on_c, 0, 77, 107
2, 21936, Note_on_c, 0, 77, 0
2, 21960, Note_on_c, 0, 79, 107
2, 22056, Note_on_c, 0, 79, 0
2, 22080, Note_on_c, 0, 67, 107
2, 22176, Note_on_c, 0, 67, 0
2, 22200, Note_on_c, 0, 69, 107
2, 22296, Note_on_c, 0, 69, 0
2, 22320, Note_on_c, 0, 71, 107
2, 22416, Note_on_c, 0, 71, 0
2, 22440, Note_on_c, 0, 64, 107
2, 22440, Note_on_c, 0, 72, 107
2, 22536, Note_on_c, 0, 72, 0
2, 22536, Note_on_c, 0, 64, 0
2, 22560, Note_on_c, 0, 65, 107
2, 22560, Note_on_c, 0, 74, 107
2, 22656, Note_on_c, 0, 74, 0
2, 22656, Note_on_c, 0, 65, 0
2, 22680, Note_on_c, 0, 67, 107
2, 22680, Note_on_c, 0, 76, 107
2, 22776, Note_on_c, 0, 76, 0
2, 22776, Note_on_c, 0, 67, 0
2, 22800, Note_on_c, 0, 71, 107
2, 22800, Note_on_c, 0, 67, 107
2, 22896, Note_on_c, 0, 67, 0
2, 22896, Note_on_c, 0, 71, 0
2, 22920, Note_on_c, 0, 72, 107
2, 22920, Note_on_c, 0, 69, 107
2, 23016, Note_on_c, 0, 69, 0
2, 23016, Note_on_c, 0, 72, 0
2, 23040, Note_on_c, 0, 74, 107
2, 23040, Note_on_c, 0, 71, 107
2, 23136, Note_on_c, 0, 71, 0
2, 23136, Note_on_c, 0, 74, 0
2, 23160, Note_on_c, 0, 72, 107
2, 23160, Note_on_c, 0, 76, 107
2, 23256, Note_on_c, 0, 76, 0
2, 23280, Note_on_c, 0, 77, 107
2, 23352, Note_on_c, 0, 72, 0
2, 23376, Note_on_c, 0, 77, 0
2, 23400, Note_on_c, 0, 65, 107
2, 23400, Note_on_c, 0, 79, 107
2, 23496, Note_on_c, 0, 79, 0
2, 23496, Note_on_c, 0, 65, 0
2, 23520, Note_on_c, 0, 76, 107
2, 23520, Note_on_c, 0, 67, 107
2, 23544, Note_on_c, 0, 76, 0
2, 23550, Note_on_c, 0, 77, 107
2, 23574, Note_on_c, 0, 77, 0
2, 23580, Note_on_c, 0, 76, 107
2, 23628, Note_on_c, 0, 76, 0
2, 23640, Note_on_c, 0, 74, 107
2, 23712, Note_on_c, 0, 67, 0
2, 23736, Note_on_c, 0, 74, 0
2, 23760, Note_on_c, 0, 72, 107
2, 23760, Note_on_c, 0, 55, 107
2, 23856, Note_on_c, 0, 55, 0
2, 23856, Note_on_c, 0, 72, 0
2, 23880, Note_on_c, 0, 72, 107
2, 23976, Note_on_c, 0, 72, 0
2, 24000, Note_on_c, 0, 67, 107
2, 24096, Note_on_c, 0, 67, 0
2, 24120, Note_on_c, 0, 64, 107
2, 24216, Note_on_c, 0, 64, 0
2, 24240, Note_on_c, 0, 60, 107
2, 24432, Note_on_c, 0, 60, 0
2, 24480, Note_on_c, 0, 64, 107
2, 24576, Note_on_c, 0, 64, 0
2, 24600, Note_on_c, 0, 69, 107
2, 24792, Note_on_c, 0, 69, 0
2, 24840, Note_on_c, 0, 69, 107
2, 24936, Note_on_c, 0, 69, 0
2, 24960, Note_on_c, 0, 69, 107
2, 25056, Note_on_c, 0, 69, 0
2, 25080, Note_on_c, 0, 71, 107
2, 25176, Note_on_c, 0, 71, 0
2, 25200, Note_on_c, 0, 72, 107
2, 25296, Note_on_c, 0, 72, 0
2, 25320, Note_on_c, 0, 71, 107
2, 25416, Note_on_c, 0, 71, 0
2, 25440, Note_on_c, 0, 62, 107
2, 25536, Note_on_c, 0, 62, 0
2, 25560, Note_on_c, 0, 71, 107
2, 25656, Note_on_c, 0, 71, 0
2, 25680, Note_on_c, 0, 64, 107
2, 25776, Note_on_c, 0, 64, 0
2, 25800, Note_on_c, 0, 65, 107
2, 25896, Note_on_c, 0, 65, 0
2, 25920, Note_on_c, 0, 62, 107
2, 26016, Note_on_c, 0, 62, 0
2, 26040, Note_on_c, 0, 60, 107
2, 26136, Note_on_c, 0, 60, 0
2, 26160, Note_on_c, 0, 64, 107
2, 26256, Note_on_c, 0, 64, 0
2, 26280, Note_on_c, 0, 69, 107
2, 26376, Note_on_c, 0, 69, 0
2, 26400, Note_on_c, 0, 62, 107
2, 26496, Note_on_c, 0, 62, 0
2, 26520, Note_on_c, 0, 71, 107
2, 26616, Note_on_c, 0, 71, 0
2, 26640, Note_on_c, 0, 69, 107
2, 26736, Note_on_c, 0, 69, 0
2, 26760, Note_on_c, 0, 68, 107
2, 26856, Note_on_c, 0, 68, 0
2, 26880, Note_on_c, 0, 69, 107
2, 26976, Note_on_c, 0, 69, 0
2, 27000, Note_on_c, 0, 71, 107
2, 27096, Note_on_c, 0, 71, 0
2, 27120, Note_on_c, 0, 64, 107
2, 27216, Note_on_c, 0, 64, 0
2, 27240, Note_on_c, 0, 76, 107
2, 27336, Note_on_c, 0, 76, 0
2, 27360, Note_on_c, 0, 74, 107
2, 27456, Note_on_c, 0, 74, 0
2, 27480, Note_on_c, 0, 72, 107
2, 27576, Note_on_c, 0, 72, 0
2, 27600, Note_on_c, 0, 74, 107
2, 27696, Note_on_c, 0, 74, 0
2, 27720, Note_on_c, 0, 76, 107
2, 27816, Note_on_c, 0, 76, 0
2, 27840, Note_on_c, 0, 69, 107
2, 27936, Note_on_c, 0, 69, 0
2, 27960, Note_on_c, 0, 77, 107
2, 28056, Note_on_c, 0, 77, 0
2, 28080, Note_on_c, 0, 76, 107
2, 28176, Note_on_c, 0, 76, 0
2, 28200, Note_on_c, 0, 74, 107
2, 28296, Note_on_c, 0, 74, 0
2, 28320, Note_on_c, 0, 76, 107
2, 28416, Note_on_c, 0, 76, 0
2, 28440, Note_on_c, 0, 77, 107
2, 28536, Note_on_c, 0, 77, 0
2, 28560, Note_on_c, 0, 71, 107
2, 28656, Note_on_c, 0, 71, 0
2, 28680, Note_on_c, 0, 79, 107
2, 28776, Note_on_c, 0, 79, 0
2, 28800, Note_on_c, 0, 77, 107
2, 28896, Note_on_c, 0, 77, 0
2, 28920, Note_on_c, 0, 76, 107
2, 29016, Note_on_c, 0, 76, 0
2, 29040, Note_on_c, 0, 77, 107
2, 29136, Note_on_c, 0, 77, 0
2, 29160, Note_on_c, 0, 79, 107
2, 29256, Note_on_c, 0, 79, 0
2, 29280, Note_on_c, 0, 79, 107
2, 29304, Note_on_c, 0, 79, 0
2, 29310, Note_on_c, 0, 81, 107
2, 29334, Note_on_c, 0, 81, 0
2, 29340, Note_on_c, 0, 79, 107
2, 29388, Note_on_c, 0, 79, 0
2, 29400, Note_on_c, 0, 78, 107
2, 29496, Note_on_c, 0, 78, 0
2, 29520, Note_on_c, 0, 79, 107
2, 29616, Note_on_c, 0, 79, 0
2, 29640, Note_on_c, 0, 81, 107
2, 29736, Note_on_c, 0, 81, 0
2, 29760, Note_on_c, 0, 69, 107
2, 29856, Note_on_c, 0, 69, 0
2, 29880, Note_on_c, 0, 71, 107
2, 29976, Note_on_c, 0, 71, 0
2, 30000, Note_on_c, 0, 72, 107
2, 30096, Note_on_c, 0, 72, 0
2, 30120, Note_on_c, 0, 74, 107
2, 30216, Note_on_c, 0, 74, 0
2, 30240, Note_on_c, 0, 76, 107
2, 30336, Note_on_c, 0, 76, 0
2, 30360, Note_on_c, 0, 77, 107
2, 30456, Note_on_c, 0, 77, 0
2, 30480, Note_on_c, 0, 79, 107
2, 30576, Note_on_c, 0, 79, 0
2, 30600, Note_on_c, 0, 81, 107
2, 30696, Note_on_c, 0, 81, 0
2, 30720, Note_on_c, 0, 81, 107
2, 30744, Note_on_c, 0, 81, 0
2, 30750, Note_on_c, 0, 83, 107
2, 30774, Note_on_c, 0, 83, 0
2, 30780, Note_on_c, 0, 81, 107
2, 30828, Note_on_c, 0, 81, 0
2, 30840, Note_on_c, 0, 79, 107
2, 30936, Note_on_c, 0, 79, 0
2, 30960, Note_on_c, 0, 81, 107
2, 31056, Note_on_c, 0, 81, 0
2, 31080, Note_on_c, 0, 83, 107
2, 31176, Note_on_c, 0, 83, 0
2, 31200, Note_on_c, 0, 71, 107
2, 31296, Note_on_c, 0, 71, 0
2, 31320, Note_on_c, 0, 72, 107
2, 31416, Note_on_c, 0, 72, 0
2, 31440, Note_on_c, 0, 74, 107
2, 31536, Note_on_c, 0, 74, 0
2, 31560, Note_on_c, 0, 76, 107
2, 31656, Note_on_c, 0, 76, 0
2, 31680, Note_on_c, 0, 77, 107
2, 31776, Note_on_c, 0, 77, 0
2, 31800, Note_on_c, 0, 79, 107
2, 31896, Note_on_c, 0, 79, 0
2, 31920, Note_on_c, 0, 81, 107
2, 32016, Note_on_c, 0, 81, 0
2, 32040, Note_on_c, 0, 83, 107
2, 32136, Note_on_c, 0, 83, 0
2, 32160, Note_on_c, 0, 83, 107
2, 32184, Note_on_c, 0, 83, 0
2, 32190, Note_on_c, 0, 84, 107
2, 32214, Note_on_c, 0, 84, 0
2, 32220, Note_on_c, 0, 83, 107
2, 32268, Note_on_c, 0, 83, 0
2, 32280, Note_on_c, 0, 81, 107
2, 32376, Note_on_c, 0, 81, 0
2, 32400, Note_on_c, 0, 83, 107
2, 32496, Note_on_c, 0, 83, 0
2, 32520, Note_on_c, 0, 84, 107
2, 32616, Note_on_c, 0, 84, 0
2, 32640, Note_on_c, 0, 72, 107
2, 32736, Note_on_c, 0, 72, 0
2, 32760, Note_on_c, 0, 74, 107
2, 32856, Note_on_c, 0, 74, 0
2, 32880, Note_on_c, 0, 76, 107
2, 32976, Note_on_c, 0, 76, 0
2, 33000, Note_on_c, 0, 77, 107
2, 33096, Note_on_c, 0, 77, 0
2, 33120, Note_on_c, 0, 79, 107
2, 33216, Note_on_c, 0, 79, 0
2, 33240, Note_on_c, 0, 81, 107
2, 33336, Note_on_c, 0, 81, 0
2, 33360, Note_on_c, 0, 71, 107
2, 33456, Note_on_c, 0, 71, 0
2, 33480, Note_on_c, 0, 72, 107
2, 33576, Note_on_c, 0, 72, 0
2, 33600, Note_on_c, 0, 74, 107
2, 33696, Note_on_c, 0, 74, 0
2, 33720, Note_on_c, 0, 76, 107
2, 33816, Note_on_c, 0, 76, 0
2, 33840, Note_on_c, 0, 77, 107
2, 33936, Note_on_c, 0, 77, 0
2, 33960, Note_on_c, 0, 79, 107
2, 34056, Note_on_c, 0, 79, 0
2, 34080, Note_on_c, 0, 69, 107
2, 34176, Note_on_c, 0, 69, 0
2, 34200, Note_on_c, 0, 71, 107
2, 34296, Note_on_c, 0, 71, 0
2, 34320, Note_on_c, 0, 72, 107
2, 34416, Note_on_c, 0, 72, 0
2, 34440, Note_on_c, 0, 74, 107
2, 34536, Note_on_c, 0, 74, 0
2, 34560, Note_on_c, 0, 76, 107
2, 34656, Note_on_c, 0, 76, 0
2, 34680, Note_on_c, 0, 77, 107
2, 34776, Note_on_c, 0, 77, 0
2, 34800, Note_on_c, 0, 79, 107
2, 34896, Note_on_c, 0, 79, 0
2, 34920, Note_on_c, 0, 81, 107
2, 35016, Note_on_c, 0, 81, 0
2, 35040, Note_on_c, 0, 74, 107
2, 35136, Note_on_c, 0, 74, 0
2, 35160, Note_on_c, 0, 76, 107
2, 35256, Note_on_c, 0, 76, 0
2, 35280, Note_on_c, 0, 77, 107
2, 35376, Note_on_c, 0, 77, 0
2, 35400, Note_on_c, 0, 71, 107
2, 35496, Note_on_c, 0, 71, 0
2, 35520, Note_on_c, 0, 72, 107
2, 35616, Note_on_c, 0, 72, 0
2, 35640, Note_on_c, 0, 74, 107
2, 35736, Note_on_c, 0, 74, 0
2, 35760, Note_on_c, 0, 67, 107
2, 35856, Note_on_c, 0, 67, 0
2, 35880, Note_on_c, 0, 69, 107
2, 35976, Note_on_c, 0, 69, 0
2, 36000, Note_on_c, 0, 71, 107
2, 36096, Note_on_c, 0, 71, 0
2, 36120, Note_on_c, 0, 72, 107
2, 36312, Note_on_c, 0, 72, 0
2, 36360, Note_on_c, 0, 72, 107
2, 36456, Note_on_c, 0, 72, 0
2, 36480, Note_on_c, 0, 72, 107
2, 36504, Note_on_c, 0, 72, 0
2, 36510, Note_on_c, 0, 74, 107
2, 36534, Note_on_c, 0, 74, 0
2, 36540, Note_on_c, 0, 72, 107
2, 36588, Note_on_c, 0, 72, 0
2, 36600, Note_on_c, 0, 71, 107
2, 36696, Note_on_c, 0, 71, 0
2, 36720, Note_on_c, 0, 72, 107
2, 36816, Note_on_c, 0, 72, 0
2, 36840, Note_on_c, 0, 74, 107
2, 36936, Note_on_c, 0, 74, 0
2, 36960, Note_on_c, 0, 65, 107
2, 37056, Note_on_c, 0, 65, 0
2, 37080, Note_on_c, 0, 74, 107
2, 37176, Note_on_c, 0, 74, 0
2, 37200, Note_on_c, 0, 64, 107
2, 37296, Note_on_c, 0, 64, 0
2, 37320, Note_on_c, 0, 65, 107
2, 37416, Note_on_c, 0, 65, 0
2, 37440, Note_on_c, 0, 62, 107
2, 37536, Note_on_c, 0, 62, 0
2, 37560, Note_on_c, 0, 60, 107
2, 37656, Note_on_c, 0, 60, 0
2, 37680, Note_on_c, 0, 64, 107
2, 37776, Note_on_c, 0, 64, 0
2, 37800, Note_on_c, 0, 67, 107
2, 37896, Note_on_c, 0, 67, 0
2, 37920, Note_on_c, 0, 64, 107
2, 38016, Note_on_c, 0, 64, 0
2, 38040, Note_on_c, 0, 67, 107
2, 38136, Note_on_c, 0, 67, 0
2, 38160, Note_on_c, 0, 72, 107
2, 38256, Note_on_c, 0, 72, 0
2, 38280, Note_on_c, 0, 67, 107
2, 38376, Note_on_c, 0, 67, 0
2, 38400, Note_on_c, 0, 71, 107
2, 38496, Note_on_c, 0, 71, 0
2, 38520, Note_on_c, 0, 74, 107
2, 38616, Note_on_c, 0, 74, 0
2, 38640, Note_on_c, 0, 71, 107
2, 38736, Note_on_c, 0, 71, 0
2, 38760, Note_on_c, 0, 74, 107
2, 38856, Note_on_c, 0, 74, 0
2, 38880, Note_on_c, 0, 79, 107
2, 38976, Note_on_c, 0, 79, 0
2, 39000, Note_on_c, 0, 79, 107
2, 39096, Note_on_c, 0, 79, 0
2, 39120, Note_on_c, 0, 76, 107
2, 39216, Note_on_c, 0, 76, 0
2, 39240, Note_on_c, 0, 72, 107
2, 39336, Note_on_c, 0, 72, 0
2, 39360, Note_on_c, 0, 70, 107
2, 39456, Note_on_c, 0, 70, 0
2, 39480, Note_on_c, 0, 69, 107
2, 39576, Note_on_c, 0, 69, 0
2, 39600, Note_on_c, 0, 67, 107
2, 39696, Note_on_c, 0, 67, 0
2, 39720, Note_on_c, 0, 69, 107
2, 40008, Note_on_c, 0, 69, 0
2, 40320, Note_on_c, 0, 69, 107
2, 40416, Note_on_c, 0, 69, 0
2, 40440, Note_on_c, 0, 77, 107
2, 40536, Note_on_c, 0, 77, 0
2, 40560, Note_on_c, 0, 74, 107
2, 40656, Note_on_c, 0, 74, 0
2, 40680, Note_on_c, 0, 71, 107
2, 40776, Note_on_c, 0, 71, 0
2, 40800, Note_on_c, 0, 69, 107
2, 40896, Note_on_c, 0, 69, 0
2, 40920, Note_on_c, 0, 67, 107
2, 41016, Note_on_c, 0, 67, 0
2, 41040, Note_on_c, 0, 65, 107
2, 41136, Note_on_c, 0, 65, 0
2, 41160, Note_on_c, 0, 67, 107
2, 41448, Note_on_c, 0, 67, 0
2, 41760, Note_on_c, 0, 67, 107
2, 41880, Note_on_c, 0, 67, 0
2, 41880, Note_on_c, 0, 76, 107
2, 41976, Note_on_c, 0, 76, 0
2, 42000, Note_on_c, 0, 72, 107
2, 42096, Note_on_c, 0, 72, 0
2, 42120, Note_on_c, 0, 69, 107
2, 42216, Note_on_c, 0, 69, 0
2, 42240, Note_on_c, 0, 67, 107
2, 42336, Note_on_c, 0, 67, 0
2, 42360, Note_on_c, 0, 65, 107
2, 42456, Note_on_c, 0, 65, 0
2, 42480, Note_on_c, 0, 64, 107
2, 42576, Note_on_c, 0, 64, 0
2, 42600, Note_on_c, 0, 74, 107
2, 42696, Note_on_c, 0, 74, 0
2, 42720, Note_on_c, 0, 71, 107
2, 42816, Note_on_c, 0, 71, 0
2, 42840, Note_on_c, 0, 67, 107
2, 42936, Note_on_c, 0, 67, 0
2, 42960, Note_on_c, 0, 65, 107
2, 43056, Note_on_c, 0, 65, 0
2, 43080, Note_on_c, 0, 64, 107
2, 43176, Note_on_c, 0, 64, 0
2, 43200, Note_on_c, 0, 62, 107
2, 43296, Note_on_c, 0, 62, 0
2, 43320, Note_on_c, 0, 64, 107
2, 43416, Note_on_c, 0, 64, 0
2, 43440, Note_on_c, 0, 67, 107
2, 43536, Note_on_c, 0, 67, 0
2, 43560, Note_on_c, 0, 72, 107
2, 43656, Note_on_c, 0, 72, 0
2, 43680, Note_on_c, 0, 66, 107
2, 43776, Note_on_c, 0, 66, 0
2, 43800, Note_on_c, 0, 74, 107
2, 43896, Note_on_c, 0, 74, 0
2, 43920, Note_on_c, 0, 72, 107
2, 44016, Note_on_c, 0, 72, 0
2, 44040, Note_on_c, 0, 71, 107
2, 44136, Note_on_c, 0, 71, 0
2, 44160, Note_on_c, 0, 72, 107
2, 44256, Note_on_c, 0, 72, 0
2, 44280, Note_on_c, 0, 74, 107
2, 44376, Note_on_c, 0, 74, 0
2, 44400, Note_on_c, 0, 67, 107
2, 44592, Note_on_c, 0, 67, 0
2, 44640, Note_on_c, 0, 74, 107
2, 44736, Note_on_c, 0, 74, 0
2, 44760, Note_on_c, 0, 76, 107
2, 44856, Note_on_c, 0, 76, 0
2, 44880, Note_on_c, 0, 77, 107
2, 44976, Note_on_c, 0, 77, 0
2, 45000, Note_on_c, 0, 79, 107
2, 45096, Note_on_c, 0, 79, 0
2, 45120, Note_on_c, 0, 67, 107
2, 45216, Note_on_c, 0, 67, 0
2, 45240, Note_on_c, 0, 69, 107
2, 45336, Note_on_c, 0, 69, 0
2, 45360, Note_on_c, 0, 71, 107
2, 45456, Note_on_c, 0, 71, 0
2, 45480, Note_on_c, 0, 72, 107
2, 45576, Note_on_c, 0, 72, 0
2, 45600, Note_on_c, 0, 74, 107
2, 45696, Note_on_c, 0, 74, 0
2, 45720, Note_on_c, 0, 76, 107
2, 45816, Note_on_c, 0, 76, 0
2, 45840, Note_on_c, 0, 71, 107
2, 45936, Note_on_c, 0, 71, 0
2, 45960, Note_on_c, 0, 72, 107
2, 46056, Note_on_c, 0, 72, 0
2, 46080, Note_on_c, 0, 74, 107
2, 46176, Note_on_c, 0, 74, 0
2, 46200, Note_on_c, 0, 76, 107
2, 46296, Note_on_c, 0, 76, 0
2, 46320, Note_on_c, 0, 77, 107
2, 46416, Note_on_c, 0, 77, 0
2, 46440, Note_on_c, 0, 79, 107
2, 46536, Note_on_c, 0, 79, 0
2, 46560, Note_on_c, 0, 67, 107
2, 46656, Note_on_c, 0, 67, 0
2, 46680, Note_on_c, 0, 69, 107
2, 46776, Note_on_c, 0, 69, 0
2, 46800, Note_on_c, 0, 71, 107
2, 46896, Note_on_c, 0, 71, 0
2, 46920, Note_on_c, 0, 64, 107
2, 46920, Note_on_c, 0, 72, 107
2, 47016, Note_on_c, 0, 72, 0
2, 47016, Note_on_c, 0, 64, 0
2, 47040, Note_on_c, 0, 65, 107
2, 47040, Note_on_c, 0, 74, 107
2, 47136, Note_on_c, 0, 74, 0
2, 47136, Note_on_c, 0, 65, 0
2, 47160, Note_on_c, 0, 67, 107
2, 47160, Note_on_c, 0, 76, 107
2, 47256, Note_on_c, 0, 76, 0
2, 47256, Note_on_c, 0, 67, 0
2, 47280, Note_on_c, 0, 71, 107
2, 47280, Note_on_c, 0, 67, 107
2, 47376, Note_on_c, 0, 67, 0
2, 47376, Note_on_c, 0, 71, 0
2, 47400, Note_on_c, 0, 72, 107
2, 47400, Note_on_c, 0, 69, 107
2, 47496, Note_on_c, 0, 69, 0
2, 47496, Note_on_c, 0, 72, 0
2, 47520, Note_on_c, 0, 74, 107
2, 47520, Note_on_c, 0, 71, 107
2, 47616, Note_on_c, 0, 71, 0
2, 47616, Note_on_c, 0, 74, 0
2, 47640, Note_on_c, 0, 72, 107
2, 47640, Note_on_c, 0, 76, 107
2, 47736, Note_on_c, 0, 76, 0
2, 47760, Note_on_c, 0, 77, 107
2, 47832, Note_on_c, 0, 72, 0
2, 47856, Note_on_c, 0, 77, 0
2, 47880, Note_on_c, 0, 65, 107
2, 47880, Note_on_c, 0, 79, 107
2, 47976, Note_on_c, 0, 79, 0
2, 47976, Note_on_c, 0, 65, 0
2, 48000, Note_on_c, 0, 76, 107
2, 48000, Note_on_c, 0, 67, 107
2, 48024, Note_on_c, 0, 76, 0
2, 48030, Note_on_c, 0, 77, 107
2, 48054, Note_on_c, 0, 77, 0
2, 48060, Note_on_c, 0, 76, 107
2, 48108, Note_on_c, 0, 76, 0
2, 48120, Note_on_c, 0, 74, 107
2, 48192, Note_on_c, 0, 67, 0
2, 48216, Note_on_c, 0, 74, 0
2, 48240, Note_on_c, 0, 72, 107
2, 48240, Note_on_c, 0, 55, 107
2, 48336, Note_on_c, 0, 55, 0
2, 48336, Note_on_c, 0, 72, 0
2, 48360, Note_on_c, 0, 72, 107
2, 48456, Note_on_c, 0, 72, 0
2, 48480, Note_on_c, 0, 67, 107
2, 48576, Note_on_c, 0, 67, 0
2, 48600, Note_on_c, 0, 64, 107
2, 48696, Note_on_c, 0, 64, 0
2, 48720, Note_on_c, 0, 60, 107
2, 48912, Note_on_c, 0, 60, 0
2, 48960, Note_on_c, 0, 67, 107
2, 49056, Note_on_c, 0, 67, 0
2, 49080, Note_on_c, 0, 72, 107
2, 49272, Note_on_c, 0, 72, 0
2, 49320, Note_on_c, 0, 72, 107
2, 49416, Note_on_c, 0, 72, 0
2, 49440, Note_on_c, 0, 72, 107
2, 49536, Note_on_c, 0, 72, 0
2, 49560, Note_on_c, 0, 74, 107
2, 49656, Note_on_c, 0, 74, 0
2, 49680, Note_on_c, 0, 76, 107
2, 49776, Note_on_c, 0, 76, 0
2, 49800, Note_on_c, 0, 74, 107
2, 49896, Note_on_c, 0, 74, 0
2, 49920, Note_on_c, 0, 65, 107
2, 50016, Note_on_c, 0, 65, 0
2, 50040, Note_on_c, 0, 74, 107
2, 50136, Note_on_c, 0, 74, 0
2, 50160, Note_on_c, 0, 67, 107
2, 50256, Note_on_c, 0, 67, 0
2, 50280, Note_on_c, 0, 69, 107
2, 50376, Note_on_c, 0, 69, 0
2, 50400, Note_on_c, 0, 65, 107
2, 50496, Note_on_c, 0, 65, 0
2, 50520, Note_on_c, 0, 64, 107
2, 50616, Note_on_c, 0, 64, 0
2, 50640, Note_on_c, 0, 72, 107
2, 50736, Note_on_c, 0, 72, 0
2, 50760, Note_on_c, 0, 64, 107
2, 50856, Note_on_c, 0, 64, 0
2, 50880, Note_on_c, 0, 62, 107
2, 50976, Note_on_c, 0, 62, 0
2, 51000, Note_on_c, 0, 64, 107
2, 51096, Note_on_c, 0, 64, 0
2, 51120, Note_on_c, 0, 60, 107
2, 51216, Note_on_c, 0, 60, 0
2, 51240, Note_on_c, 0, 59, 107
2, 51336, Note_on_c, 0, 59, 0
2, 51360, Note_on_c, 0, 60, 107
2, 51456, Note_on_c, 0, 60, 0
2, 51480, Note_on_c, 0, 62, 107
2, 51576, Note_on_c, 0, 62, 0
2, 51600, Note_on_c, 0, 55, 107
2, 51792, Note_on_c, 0, 55, 0
2, 51840, Note_on_c, 0, 62, 107
2, 51936, Note_on_c, 0, 62, 0
2, 51960, Note_on_c, 0, 64, 107
2, 52056, Note_on_c, 0, 64, 0
2, 52080, Note_on_c, 0, 66, 107
2, 52176, Note_on_c, 0, 66, 0
2, 52200, Note_on_c, 0, 67, 107
2, 52296, Note_on_c, 0, 67, 0
2, 52320, Note_on_c, 0, 69, 107
2, 52416, Note_on_c, 0, 69, 0
2, 52440, Note_on_c, 0, 71, 107
2, 52536, Note_on_c, 0, 71, 0
2, 52560, Note_on_c, 0, 72, 107
2, 52656, Note_on_c, 0, 72, 0
2, 52680, Note_on_c, 0, 63, 107
2, 52872, Note_on_c, 0, 63, 0
2, 52920, Note_on_c, 0, 72, 107
2, 53016, Note_on_c, 0, 72, 0
2, 53040, Note_on_c, 0, 71, 107
2, 53328, Note_on_c, 0, 71, 0
2, 53400, Note_on_c, 0, 62, 107
2, 53496, Note_on_c, 0, 62, 0
2, 53520, Note_on_c, 0, 64, 107
2, 53616, Note_on_c, 0, 64, 0
2, 53640, Note_on_c, 0, 66, 107
2, 53736, Note_on_c, 0, 66, 0
2, 53760, Note_on_c, 0, 68, 107
2, 53856, Note_on_c, 0, 68, 0
2, 53880, Note_on_c, 0, 69, 107
2, 53976, Note_on_c, 0, 69, 0
2, 54000, Note_on_c, 0, 71, 107
2, 54096, Note_on_c, 0, 71, 0
2, 54120, Note_on_c, 0, 61, 107
2, 54312, Note_on_c, 0, 61, 0
2, 54360, Note_on_c, 0, 71, 107
2, 54456, Note_on_c, 0, 71, 0
2, 54480, Note_on_c, 0, 69, 107
2, 54768, Note_on_c, 0, 69, 0
2, 54840, Note_on_c, 0, 60, 107
2, 54936, Note_on_c, 0, 60, 0
2, 54960, Note_on_c, 0, 62, 107
2, 55056, Note_on_c, 0, 62, 0
2, 55080, Note_on_c, 0, 64, 107
2, 55176, Note_on_c, 0, 64, 0
2, 55200, Note_on_c, 0, 66, 107
2, 55296, Note_on_c, 0, 66, 0
2, 55320, Note_on_c, 0, 67, 107
2, 55416, Note_on_c, 0, 67, 0
2, 55440, Note_on_c, 0, 69, 107
2, 55536, Note_on_c, 0, 69, 0
2, 55560, Note_on_c, 0, 59, 107
2, 55752, Note_on_c, 0, 59, 0
2, 55800, Note_on_c, 0, 69, 107
2, 55896, Note_on_c, 0, 69, 0
2, 55920, Note_on_c, 0, 67, 107
2, 56208, Note_on_c, 0, 67, 0
2, 56280, Note_on_c, 0, 57, 107
2, 56472, Note_on_c, 0, 57, 0
2, 56520, Note_on_c, 0, 67, 107
2, 56616, Note_on_c, 0, 67, 0
2, 56640, Note_on_c, 0, 66, 107
2, 56928, Note_on_c, 0, 66, 0
2, 57000, Note_on_c, 0, 55, 107
2, 57192, Note_on_c, 0, 55, 0
2, 57240, Note_on_c, 0, 66, 107
2, 57336, Note_on_c, 0, 66, 0
2, 57360, Note_on_c, 0, 64, 107
2, 57456, Note_on_c, 0, 64, 0
2, 57480, Note_on_c, 0, 63, 107
2, 57576, Note_on_c, 0, 63, 0
2, 57600, Note_on_c, 0, 64, 107
2, 57696, Note_on_c, 0, 64, 0
2, 57720, Note_on_c, 0, 63, 107
2, 57816, Note_on_c, 0, 63, 0
2, 57840, Note_on_c, 0, 64, 107
2, 57936, Note_on_c, 0, 64, 0
2, 57960, Note_on_c, 0, 66, 107
2, 58056, Note_on_c, 0, 66, 0
2, 58080, Note_on_c, 0, 59, 107
2, 58176, Note_on_c, 0, 59, 0
2, 58200, Note_on_c, 0, 71, 107
2, 58296, Note_on_c, 0, 71, 0
2, 58320, Note_on_c, 0, 69, 107
2, 58416, Note_on_c, 0, 69, 0
2, 58440, Note_on_c, 0, 67, 107
2, 58536, Note_on_c, 0, 67, 0
2, 58560, Note_on_c, 0, 69, 107
2, 58656, Note_on_c, 0, 69, 0
2, 58680, Note_on_c, 0, 71, 107
2, 58776, Note_on_c, 0, 71, 0
2, 58800, Note_on_c, 0, 64, 107
2, 58896, Note_on_c, 0, 64, 0
2, 58920, Note_on_c, 0, 72, 107
2, 59016, Note_on_c, 0, 72, 0
2, 59040, Note_on_c, 0, 71, 107
2, 59136, Note_on_c, 0, 71, 0
2, 59160, Note_on_c, 0, 69, 107
2, 59256, Note_on_c, 0, 69, 0
2, 59280, Note_on_c, 0, 71, 107
2, 59376, Note_on_c, 0, 71, 0
2, 59400, Note_on_c, 0, 72, 107
2, 59496, Note_on_c, 0, 72, 0
2, 59520, Note_on_c, 0, 66, 107
2, 59616, Note_on_c, 0, 66, 0
2, 59640, Note_on_c, 0, 74, 107
2, 59736, Note_on_c, 0, 74, 0
2, 59760, Note_on_c, 0, 72, 107
2, 59856, Note_on_c, 0, 72, 0
2, 59880, Note_on_c, 0, 71, 107
2, 59976, Note_on_c, 0, 71, 0
2, 60000, Note_on_c, 0, 72, 107
2, 60096, Note_on_c, 0, 72, 0
2, 60120, Note_on_c, 0, 74, 107
2, 60216, Note_on_c, 0, 74, 0
2, 60240, Note_on_c, 0, 67, 107
2, 60336, Note_on_c, 0, 67, 0
2, 60360, Note_on_c, 0, 76, 107
2, 60456, Note_on_c, 0, 76, 0
2, 60480, Note_on_c, 0, 74, 107
2, 60576, Note_on_c, 0, 74, 0
2, 60600, Note_on_c, 0, 73, 107
2, 60696, Note_on_c, 0, 73, 0
2, 60720, Note_on_c, 0, 75, 107
2, 60816, Note_on_c, 0, 75, 0
2, 60840, Note_on_c, 0, 76, 107
2, 60936, Note_on_c, 0, 76, 0
2, 60960, Note_on_c, 0, 69, 107
2, 61056, Note_on_c, 0, 69, 0
2, 61080, Note_on_c, 0, 78, 107
2, 61176, Note_on_c, 0, 78, 0
2, 61200, Note_on_c, 0, 76, 107
2, 61296, Note_on_c, 0, 76, 0
2, 61320, Note_on_c, 0, 75, 107
2, 61416, Note_on_c, 0, 75, 0
2, 61440, Note_on_c, 0, 76, 107
2, 61536, Note_on_c, 0, 76, 0
2, 61560, Note_on_c, 0, 78, 107
2, 61656, Note_on_c, 0, 78, 0
2, 61680, Note_on_c, 0, 78, 107
2, 61704, Note_on_c, 0, 78, 0
2, 61710, Note_on_c, 0, 79, 107
2, 61734, Note_on_c, 0, 79, 0
2, 61740, Note_on_c, 0, 78, 107
2, 61797, Note_on_c, 0, 78, 0
2, 61800, Note_on_c, 0, 76, 107
2, 61896, Note_on_c, 0, 76, 0
2, 61920, Note_on_c, 0, 78, 107
2, 62016, Note_on_c, 0, 78, 0
2, 62040, Note_on_c, 0, 79, 107
2, 62136, Note_on_c, 0, 79, 0
2, 62160, Note_on_c, 0, 67, 107
2, 62256, Note_on_c, 0, 67, 0
2, 62280, Note_on_c, 0, 69, 107
2, 62376, Note_on_c, 0, 69, 0
2, 62400, Note_on_c, 0, 71, 107
2, 62496, Note_on_c, 0, 71, 0
2, 62520, Note_on_c, 0, 73, 107
2, 62616, Note_on_c, 0, 73, 0
2, 62640, Note_on_c, 0, 75, 107
2, 62736, Note_on_c, 0, 75, 0
2, 62760, Note_on_c, 0, 76, 107
2, 62856, Note_on_c, 0, 76, 0
2, 62880, Note_on_c, 0, 78, 107
2, 62976, Note_on_c, 0, 78, 0
2, 63000, Note_on_c, 0, 79, 107
2, 63096, Note_on_c, 0, 79, 0
2, 63120, Note_on_c, 0, 79, 107
2, 63144, Note_on_c, 0, 79, 0
2, 63150, Note_on_c, 0, 81, 107
2, 63179, Note_on_c, 0, 81, 0
2, 63180, Note_on_c, 0, 79, 107
2, 63228, Note_on_c, 0, 79, 0
2, 63240, Note_on_c, 0, 78, 107
2, 63336, Note_on_c, 0, 78, 0
2, 63360, Note_on_c, 0, 79, 107
2, 63456, Note_on_c, 0, 79, 0
2, 63480, Note_on_c, 0, 81, 107
2, 63576, Note_on_c, 0, 81, 0
2, 63600, Note_on_c, 0, 69, 107
2, 63696, Note_on_c, 0, 69, 0
2, 63720, Note_on_c, 0, 71, 107
2, 63816, Note_on_c, 0, 71, 0
2, 63840, Note_on_c, 0, 73, 107
2, 63936, Note_on_c, 0, 73, 0
2, 63960, Note_on_c, 0, 75, 107
2, 64056, Note_on_c, 0, 75, 0
2, 64080, Note_on_c, 0, 76, 107
2, 64176, Note_on_c, 0, 76, 0
2, 64200, Note_on_c, 0, 78, 107
2, 64296, Note_on_c, 0, 78, 0
2, 64320, Note_on_c, 0, 80, 107
2, 64416, Note_on_c, 0, 80, 0
2, 64440, Note_on_c, 0, 81, 107
2, 64536, Note_on_c, 0, 81, 0
2, 64560, Note_on_c, 0, 81, 107
2, 64584, Note_on_c, 0, 81, 0
2, 64590, Note_on_c, 0, 83, 107
2, 64614, Note_on_c, 0, 83, 0
2, 64620, Note_on_c, 0, 81, 107
2, 64668, Note_on_c, 0, 81, 0
2, 64680, Note_on_c, 0, 80, 107
2, 64776, Note_on_c, 0, 80, 0
2, 64800, Note_on_c, 0, 81, 107
2, 64896, Note_on_c, 0, 81, 0
2, 64920, Note_on_c, 0, 83, 107
2, 65016, Note_on_c, 0, 83, 0
2, 65040, Note_on_c, 0, 73, 107
2, 65136, Note_on_c, 0, 73, 0
2, 65160, Note_on_c, 0, 75, 107
2, 65256, Note_on_c, 0, 75, 0
2, 65280, Note_on_c, 0, 76, 107
2, 65376, Note_on_c, 0, 76, 0
2, 65400, Note_on_c, 0, 78, 107
2, 65496, Note_on_c, 0, 78, 0
2, 65520, Note_on_c, 0, 80, 107
2, 65616, Note_on_c, 0, 80, 0
2, 65640, Note_on_c, 0, 81, 107
2, 65736, Note_on_c, 0, 81, 0
2, 65760, Note_on_c, 0, 71, 107
2, 65856, Note_on_c, 0, 71, 0
2, 65880, Note_on_c, 0, 73, 107
2, 65976, Note_on_c, 0, 73, 0
2, 66000, Note_on_c, 0, 75, 107
2, 66096, Note_on_c, 0, 75, 0
2, 66120, Note_on_c, 0, 76, 107
2, 66216, Note_on_c, 0, 76, 0
2, 66240, Note_on_c, 0, 78, 107
2, 66336, Note_on_c, 0, 78, 0
2, 66360, Note_on_c, 0, 79, 107
2, 66456, Note_on_c, 0, 79, 0
2, 66480, Note_on_c, 0, 81, 107
2, 66576, Note_on_c, 0, 81, 0
2, 66600, Note_on_c, 0, 83, 107
2, 66696, Note_on_c, 0, 83, 0
2, 66720, Note_on_c, 0, 71, 107
2, 66816, Note_on_c, 0, 71, 0
2, 66840, Note_on_c, 0, 76, 107
2, 66936, Note_on_c, 0, 76, 0
2, 66960, Note_on_c, 0, 75, 107
2, 67056, Note_on_c, 0, 75, 0
2, 67080, Note_on_c, 0, 76, 107
2, 67368, Note_on_c, 0, 76, 0
2, 67680, Note_on_c, 0, 76, 107
2, 67776, Note_on_c, 0, 76, 0
2, 67800, Note_on_c, 0, 76, 107
2, 67896, Note_on_c, 0, 76, 0
2, 67920, Note_on_c, 0, 73, 107
2, 68016, Note_on_c, 0, 73, 0
2, 68040, Note_on_c, 0, 69, 107
2, 68136, Note_on_c, 0, 69, 0
2, 68160, Note_on_c, 0, 67, 107
2, 68256, Note_on_c, 0, 67, 0
2, 68280, Note_on_c, 0, 65, 107
2, 68376, Note_on_c, 0, 65, 0
2, 68400, Note_on_c, 0, 64, 107
2, 68496, Note_on_c, 0, 64, 0
2, 68520, Note_on_c, 0, 65, 107
2, 68616, Note_on_c, 0, 65, 0
2, 68640, Note_on_c, 0, 62, 107
2, 68736, Note_on_c, 0, 62, 0
2, 68760, Note_on_c, 0, 65, 107
2, 68856, Note_on_c, 0, 65, 0
2, 68880, Note_on_c, 0, 69, 107
2, 68976, Note_on_c, 0, 69, 0
2, 69000, Note_on_c, 0, 65, 107
2, 69096, Note_on_c, 0, 65, 0
2, 69120, Note_on_c, 0, 69, 107
2, 69216, Note_on_c, 0, 69, 0
2, 69240, Note_on_c, 0, 74, 107
2, 69336, Note_on_c, 0, 74, 0
2, 69360, Note_on_c, 0, 71, 107
2, 69456, Note_on_c, 0, 71, 0
2, 69480, Note_on_c, 0, 67, 107
2, 69576, Note_on_c, 0, 67, 0
2, 69600, Note_on_c, 0, 65, 107
2, 69696, Note_on_c, 0, 65, 0
2, 69720, Note_on_c, 0, 64, 107
2, 69816, Note_on_c, 0, 64, 0
2, 69840, Note_on_c, 0, 62, 107
2, 69936, Note_on_c, 0, 62, 0
2, 69960, Note_on_c, 0, 64, 107
2, 70056, Note_on_c, 0, 64, 0
2, 70080, Note_on_c, 0, 60, 107
2, 70176, Note_on_c, 0, 60, 0
2, 70200, Note_on_c, 0, 64, 107
2, 70296, Note_on_c, 0, 64, 0
2, 70320, Note_on_c, 0, 67, 107
2, 70416, Note_on_c, 0, 67, 0
2, 70440, Note_on_c, 0, 64, 107
2, 70536, Note_on_c, 0, 64, 0
2, 70560, Note_on_c, 0, 67, 107
2, 70656, Note_on_c, 0, 67, 0
2, 70680, Note_on_c, 0, 72, 107
2, 70776, Note_on_c, 0, 72, 0
2, 70800, Note_on_c, 0, 69, 107
2, 70896, Note_on_c, 0, 69, 0
2, 70920, Note_on_c, 0, 65, 107
2, 71016, Note_on_c, 0, 65, 0
2, 71040, Note_on_c, 0, 64, 107
2, 71136, Note_on_c, 0, 64, 0
2, 71160, Note_on_c, 0, 62, 107
2, 71256, Note_on_c, 0, 62, 0
2, 71280, Note_on_c, 0, 60, 107
2, 71376, Note_on_c, 0, 60, 0
2, 71400, Note_on_c, 0, 71, 107
2, 71496, Note_on_c, 0, 71, 0
2, 71520, Note_on_c, 0, 68, 107
2, 71616, Note_on_c, 0, 68, 0
2, 71640, Note_on_c, 0, 64, 107
2, 71736, Note_on_c, 0, 64, 0
2, 71760, Note_on_c, 0, 62, 107
2, 71856, Note_on_c, 0, 62, 0
2, 71880, Note_on_c, 0, 60, 107
2, 71976, Note_on_c, 0, 60, 0
2, 72000, Note_on_c, 0, 59, 107
2, 72096, Note_on_c, 0, 59, 0
2, 72120, Note_on_c, 0, 60, 107
2, 72216, Note_on_c, 0, 60, 0
2, 72240, Note_on_c, 0, 64, 107
2, 72336, Note_on_c, 0, 64, 0
2, 72360, Note_on_c, 0, 69, 107
2, 72456, Note_on_c, 0, 69, 0
2, 72480, Note_on_c, 0, 62, 107
2, 72576, Note_on_c, 0, 62, 0
2, 72600, Note_on_c, 0, 71, 107
2, 72696, Note_on_c, 0, 71, 0
2, 72720, Note_on_c, 0, 69, 107
2, 72816, Note_on_c, 0, 69, 0
2, 72840, Note_on_c, 0, 68, 107
2, 72936, Note_on_c, 0, 68, 0
2, 72960, Note_on_c, 0, 69, 107
2, 73056, Note_on_c, 0, 69, 0
2, 73080, Note_on_c, 0, 71, 107
2, 73176, Note_on_c, 0, 71, 0
2, 73200, Note_on_c, 0, 64, 107
2, 73392, Note_on_c, 0, 64, 0
2, 73440, Note_on_c, 0, 71, 107
2, 73536, Note_on_c, 0, 71, 0
2, 73560, Note_on_c, 0, 72, 107
2, 73656, Note_on_c, 0, 72, 0
2, 73680, Note_on_c, 0, 74, 107
2, 73776, Note_on_c, 0, 74, 0
2, 73800, Note_on_c, 0, 76, 107
2, 73896, Note_on_c, 0, 76, 0
2, 73920, Note_on_c, 0, 64, 107
2, 74016, Note_on_c, 0, 64, 0
2, 74040, Note_on_c, 0, 66, 107
2, 74136, Note_on_c, 0, 66, 0
2, 74160, Note_on_c, 0, 68, 107
2, 74256, Note_on_c, 0, 68, 0
2, 74280, Note_on_c, 0, 69, 107
2, 74376, Note_on_c, 0, 69, 0
2, 74400, Note_on_c, 0, 71, 107
2, 74496, Note_on_c, 0, 71, 0
2, 74520, Note_on_c, 0, 72, 107
2, 74616, Note_on_c, 0, 72, 0
2, 74640, Note_on_c, 0, 68, 107
2, 74736, Note_on_c, 0, 68, 0
2, 74760, Note_on_c, 0, 69, 107
2, 74856, Note_on_c, 0, 69, 0
2, 74880, Note_on_c, 0, 71, 107
2, 74976, Note_on_c, 0, 71, 0
2, 75000, Note_on_c, 0, 72, 107
2, 75096, Note_on_c, 0, 72, 0
2, 75120, Note_on_c, 0, 74, 107
2, 75216, Note_on_c, 0, 74, 0
2, 75240, Note_on_c, 0, 76, 107
2, 75336, Note_on_c, 0, 76, 0
2, 75360, Note_on_c, 0, 64, 107
2, 75456, Note_on_c, 0, 64, 0
2, 75480, Note_on_c, 0, 66, 107
2, 75576, Note_on_c, 0, 66, 0
2, 75600, Note_on_c, 0, 68, 107
2, 75696, Note_on_c, 0, 68, 0
2, 75720, Note_on_c, 0, 69, 107
2, 75816, Note_on_c, 0, 69, 0
2, 75840, Note_on_c, 0, 71, 107
2, 75936, Note_on_c, 0, 71, 0
2, 75960, Note_on_c, 0, 72, 107
2, 76056, Note_on_c, 0, 72, 0
2, 76080, Note_on_c, 0, 68, 107
2, 76176, Note_on_c, 0, 68, 0
2, 76200, Note_on_c, 0, 69, 107
2, 76296, Note_on_c, 0, 69, 0
2, 76320, Note_on_c, 0, 71, 107
2, 76416, Note_on_c, 0, 71, 0
2, 76440, Note_on_c, 0, 72, 107
2, 76536, Note_on_c, 0, 72, 0
2, 76560, Note_on_c, 0, 74, 107
2, 76656, Note_on_c, 0, 74, 0
2, 76680, Note_on_c, 0, 76, 107
2, 76776, Note_on_c, 0, 76, 0
2, 76800, Note_on_c, 0, 72, 107
2, 76824, Note_on_c, 0, 72, 0
2, 76830, Note_on_c, 0, 74, 107
2, 76854, Note_on_c, 0, 74, 0
2, 76860, Note_on_c, 0, 72, 107
2, 76908, Note_on_c, 0, 72, 0
2, 76920, Note_on_c, 0, 71, 107
2, 77016, Note_on_c, 0, 71, 0
2, 77040, Note_on_c, 0, 69, 107
2, 77136, Note_on_c, 0, 69, 0
2, 77160, Note_on_c, 0, 69, 107
2, 77256, Note_on_c, 0, 69, 0
2, 77280, Note_on_c, 0, 64, 107
2, 77376, Note_on_c, 0, 64, 0
2, 77400, Note_on_c, 0, 60, 107
2, 77496, Note_on_c, 0, 60, 0
2, 77520, Note_on_c, 0, 57, 107
2, 77712, Note_on_c, 0, 57, 0
2, 77760, Note_on_c, 0, 67, 107
2, 77856, Note_on_c, 0, 67, 0
2, 77880, Note_on_c, 0, 72, 107
2, 78072, Note_on_c, 0, 72, 0
2, 78120, Note_on_c, 0, 72, 107
2, 78216, Note_on_c, 0, 72, 0
2, 78240, Note_on_c, 0, 72, 107
2, 78336, Note_on_c, 0, 72, 0
2, 78360, Note_on_c, 0, 74, 107
2, 78456, Note_on_c, 0, 74, 0
2, 78480, Note_on_c, 0, 76, 107
2, 78576, Note_on_c, 0, 76, 0
2, 78600, Note_on_c, 0, 74, 107
2, 78696, Note_on_c, 0, 74, 0
2, 78720, Note_on_c, 0, 65, 107
2, 78816, Note_on_c, 0, 65, 0
2, 78840, Note_on_c, 0, 74, 107
2, 78936, Note_on_c, 0, 74, 0
2, 78960, Note_on_c, 0, 67, 107
2, 79056, Note_on_c, 0, 67, 0
2, 79080, Note_on_c, 0, 69, 107
2, 79176, Note_on_c, 0, 69, 0
2, 79200, Note_on_c, 0, 65, 107
2, 79296, Note_on_c, 0, 65, 0
2, 79320, Note_on_c, 0, 64, 107
2, 79416, Note_on_c, 0, 64, 0
2, 79440, Note_on_c, 0, 72, 107
2, 79536, Note_on_c, 0, 72, 0
2, 79560, Note_on_c, 0, 64, 107
2, 79656, Note_on_c, 0, 64, 0
2, 79680, Note_on_c, 0, 62, 107
2, 79776, Note_on_c, 0, 62, 0
2, 79800, Note_on_c, 0, 64, 107
2, 79896, Note_on_c, 0, 64, 0
2, 79920, Note_on_c, 0, 60, 107
2, 80016, Note_on_c, 0, 60, 0
2, 80040, Note_on_c, 0, 59, 107
2, 80136, Note_on_c, 0, 59, 0
2, 80160, Note_on_c, 0, 60, 107
2, 80256, Note_on_c, 0, 60, 0
2, 80280, Note_on_c, 0, 62, 107
2, 80376, Note_on_c, 0, 62, 0
2, 80400, Note_on_c, 0, 55, 107
2, 80592, Note_on_c, 0, 55, 0
2, 80640, Note_on_c, 0, 62, 107
2, 80736, Note_on_c, 0, 62, 0
2, 80760, Note_on_c, 0, 64, 107
2, 80856, Note_on_c, 0, 64, 0
2, 80880, Note_on_c, 0, 66, 107
2, 80976, Note_on_c, 0, 66, 0
2, 81000, Note_on_c, 0, 67, 107
2, 81096, Note_on_c, 0, 67, 0
2, 81120, Note_on_c, 0, 69, 107
2, 81216, Note_on_c, 0, 69, 0
2, 81240, Note_on_c, 0, 71, 107
2, 81336, Note_on_c, 0, 71, 0
2, 81360, Note_on_c, 0, 72, 107
2, 81456, Note_on_c, 0, 72, 0
2, 81480, Note_on_c, 0, 63, 107
2, 81672, Note_on_c, 0, 63, 0
2, 81720, Note_on_c, 0, 72, 107
2, 81816, Note_on_c, 0, 72, 0
2, 81840, Note_on_c, 0, 71, 107
2, 82128, Note_on_c, 0, 71, 0
2, 82200, Note_on_c, 0, 62, 107
2, 82296, Note_on_c, 0, 62, 0
2, 82320, Note_on_c, 0, 64, 107
2, 82416, Note_on_c, 0, 64, 0
2, 82440, Note_on_c, 0, 66, 107
2, 82536, Note_on_c, 0, 66, 0
2, 82560, Note_on_c, 0, 68, 107
2, 82656, Note_on_c, 0, 68, 0
2, 82680, Note_on_c, 0, 69, 107
2, 82776, Note_on_c, 0, 69, 0
2, 82800, Note_on_c, 0, 71, 107
2, 82896, Note_on_c, 0, 71, 0
2, 82920, Note_on_c, 0, 61, 107
2, 83112, Note_on_c, 0, 61, 0
2, 83160, Note_on_c, 0, 71, 107
2, 83256, Note_on_c, 0, 71, 0
2, 83280, Note_on_c, 0, 69, 107
2, 83568, Note_on_c, 0, 69, 0
2, 83640, Note_on_c, 0, 60, 107
2, 83736, Note_on_c, 0, 60, 0
2, 83760, Note_on_c, 0, 62, 107
2, 83856, Note_on_c, 0, 62, 0
2, 83880, Note_on_c, 0, 64, 107
2, 83976, Note_on_c, 0, 64, 0
2, 84000, Note_on_c, 0, 66, 107
2, 84096, Note_on_c, 0, 66, 0
2, 84120, Note_on_c, 0, 67, 107
2, 84216, Note_on_c, 0, 67, 0
2, 84240, Note_on_c, 0, 69, 107
2, 84336, Note_on_c, 0, 69, 0
2, 84360, Note_on_c, 0, 59, 107
2, 84552, Note_on_c, 0, 59, 0
2, 84600, Note_on_c, 0, 69, 107
2, 84696, Note_on_c, 0, 69, 0
2, 84720, Note_on_c, 0, 67, 107
2, 85008, Note_on_c, 0, 67, 0
2, 85080, Note_on_c, 0, 57, 107
2, 85272, Note_on_c, 0, 57, 0
2, 85320, Note_on_c, 0, 67, 107
2, 85416, Note_on_c, 0, 67, 0
2, 85440, Note_on_c, 0, 66, 107
2, 85728, Note_on_c, 0, 66, 0
2, 85800, Note_on_c, 0, 55, 107
2, 85992, Note_on_c, 0, 55, 0
2, 86040, Note_on_c, 0, 66, 107
2, 86136, Note_on_c, 0, 66, 0
2, 86160, Note_on_c, 0, 64, 107
2, 86256, Note_on_c, 0, 64, 0
2, 86280, Note_on_c, 0, 63, 107
2, 86376, Note_on_c, 0, 63, 0
2, 86400, Note_on_c, 0, 64, 107
2, 86496, Note_on_c, 0, 64, 0
2, 86520, Note_on_c, 0, 63, 107
2, 86616, Note_on_c, 0, 63, 0
2, 86640, Note_on_c, 0, 64, 107
2, 86736, Note_on_c, 0, 64, 0
2, 86760, Note_on_c, 0, 66, 107
2, 86856, Note_on_c, 0, 66, 0
2, 86880, Note_on_c, 0, 59, 107
2, 86976, Note_on_c, 0, 59, 0
2, 87000, Note_on_c, 0, 71, 107
2, 87096, Note_on_c, 0, 71, 0
2, 87120, Note_on_c, 0, 69, 107
2, 87216, Note_on_c, 0, 69, 0
2, 87240, Note_on_c, 0, 67, 107
2, 87336, Note_on_c, 0, 67, 0
2, 87360, Note_on_c, 0, 69, 107
2, 87456, Note_on_c, 0, 69, 0
2, 87480, Note_on_c, 0, 71, 107
2, 87576, Note_on_c, 0, 71, 0
2, 87600, Note_on_c, 0, 64, 107
2, 87696, Note_on_c, 0, 64, 0
2, 87720, Note_on_c, 0, 72, 107
2, 87816, Note_on_c, 0, 72, 0
2, 87840, Note_on_c, 0, 71, 107
2, 87936, Note_on_c, 0, 71, 0
2, 87960, Note_on_c, 0, 69, 107
2, 88056, Note_on_c, 0, 69, 0
2, 88080, Note_on_c, 0, 71, 107
2, 88176, Note_on_c, 0, 71, 0
2, 88200, Note_on_c, 0, 72, 107
2, 88296, Note_on_c, 0, 72, 0
2, 88320, Note_on_c, 0, 66, 107
2, 88416, Note_on_c, 0, 66, 0
2, 88440, Note_on_c, 0, 74, 107
2, 88536, Note_on_c, 0, 74, 0
2, 88560, Note_on_c, 0, 72, 107
2, 88656, Note_on_c, 0, 72, 0
2, 88680, Note_on_c, 0, 71, 107
2, 88776, Note_on_c, 0, 71, 0
2, 88800, Note_on_c, 0, 72, 107
2, 88896, Note_on_c, 0, 72, 0
2, 88920, Note_on_c, 0, 74, 107
2, 89016, Note_on_c, 0, 74, 0
2, 89040, Note_on_c, 0, 67, 107
2, 89136, Note_on_c, 0, 67, 0
2, 89160, Note_on_c, 0, 76, 107
2, 89256, Note_on_c, 0, 76, 0
2, 89280, Note_on_c, 0, 74, 107
2, 89376, Note_on_c, 0, 74, 0
2, 89400, Note_on_c, 0, 73, 107
2, 89496, Note_on_c, 0, 73, 0
2, 89520, Note_on_c, 0, 75, 107
2, 89616, Note_on_c, 0, 75, 0
2, 89640, Note_on_c, 0, 76, 107
2, 89736, Note_on_c, 0, 76, 0
2, 89760, Note_on_c, 0, 69, 107
2, 89856, Note_on_c, 0, 69, 0
2, 89880, Note_on_c, 0, 78, 107
2, 89976, Note_on_c, 0, 78, 0
2, 90000, Note_on_c, 0, 76, 107
2, 90096, Note_on_c, 0, 76, 0
2, 90120, Note_on_c, 0, 75, 107
2, 90216, Note_on_c, 0, 75, 0
2, 90240, Note_on_c, 0, 76, 107
2, 90336, Note_on_c, 0, 76, 0
2, 90360, Note_on_c, 0, 78, 107
2, 90456, Note_on_c, 0, 78, 0
2, 90480, Note_on_c, 0, 78, 107
2, 90504, Note_on_c, 0, 78, 0
2, 90510, Note_on_c, 0, 79, 107
2, 90534, Note_on_c, 0, 79, 0
2, 90540, Note_on_c, 0, 78, 107
2, 90597, Note_on_c, 0, 78, 0
2, 90600, Note_on_c, 0, 76, 107
2, 90696, Note_on_c, 0, 76, 0
2, 90720, Note_on_c, 0, 78, 107
2, 90816, Note_on_c, 0, 78, 0
2, 90840, Note_on_c, 0, 79, 107
2, 90936, Note_on_c, 0, 79, 0
2, 90960, Note_on_c, 0, 67, 107
2, 91056, Note_on_c, 0, 67, 0
2, 91080, Note_on_c, 0, 69, 107
2, 91176, Note_on_c, 0, 69, 0
2, 91200, Note_on_c, 0, 71, 107
2, 91296, Note_on_c, 0, 71, 0
2, 91320, Note_on_c, 0, 73, 107
2, 91416, Note_on_c, 0, 73, 0
2, 91440, Note_on_c, 0, 75, 107
2, 91536, Note_on_c, 0, 75, 0
2, 91560, Note_on_c, 0, 76, 107
2, 91656, Note_on_c, 0, 76, 0
2, 91680, Note_on_c, 0, 78, 107
2, 91776, Note_on_c, 0, 78, 0
2, 91800, Note_on_c, 0, 79, 107
2, 91896, Note_on_c, 0, 79, 0
2, 91920, Note_on_c, 0, 79, 107
2, 91944, Note_on_c, 0, 79, 0
2, 91950, Note_on_c, 0, 81, 107
2, 91979, Note_on_c, 0, 81, 0
2, 91980, Note_on_c, 0, 79, 107
2, 92028, Note_on_c, 0, 79, 0
2, 92040, Note_on_c, 0, 78, 107
2, 92136, Note_on_c, 0, 78, 0
2, 92160, Note_on_c, 0, 79, 107
2, 92256, Note_on_c, 0, 79, 0
2, 92280, Note_on_c, 0, 81, 107
2, 92376, Note_on_c, 0, 81, 0
2, 92400, Note_on_c, 0, 69, 107
2, 92496, Note_on_c, 0, 69, 0
2, 92520, Note_on_c, 0, 71, 107
2, 92616, Note_on_c, 0, 71, 0
2, 92640, Note_on_c, 0, 73, 107
2, 92736, Note_on_c, 0, 73, 0
2, 92760, Note_on_c, 0, 75, 107
2, 92856, Note_on_c, 0, 75, 0
2, 92880, Note_on_c, 0, 76, 107
2, 92976, Note_on_c, 0, 76, 0
2, 93000, Note_on_c, 0, 78, 107
2, 93096, Note_on_c, 0, 78, 0
2, 93120, Note_on_c, 0, 80, 107
2, 93216, Note_on_c, 0, 80, 0
2, 93240, Note_on_c, 0, 81, 107
2, 93336, Note_on_c, 0, 81, 0
2, 93360, Note_on_c, 0, 81, 107
2, 93384, Note_on_c, 0, 81, 0
2, 93390, Note_on_c, 0, 83, 107
2, 93414, Note_on_c, 0, 83, 0
2, 93420, Note_on_c, 0, 81, 107
2, 93468, Note_on_c, 0, 81, 0
2, 93480, Note_on_c, 0, 80, 107
2, 93576, Note_on_c, 0, 80, 0
2, 93600, Note_on_c, 0, 81, 107
2, 93696, Note_on_c, 0, 81, 0
2, 93720, Note_on_c, 0, 83, 107
2, 93816, Note_on_c, 0, 83, 0
2, 93840, Note_on_c, 0, 73, 107
2, 93936, Note_on_c, 0, 73, 0
2, 93960, Note_on_c, 0, 75, 107
2, 94056, Note_on_c, 0, 75, 0
2, 94080, Note_on_c, 0, 76, 107
2, 94176, Note_on_c, 0, 76, 0
2, 94200, Note_on_c, 0, 78, 107
2, 94296, Note_on_c, 0, 78, 0
2, 94320, Note_on_c, 0, 80, 107
2, 94416, Note_on_c, 0, 80, 0
2, 94440, Note_on_c, 0, 81, 107
2, 94536, Note_on_c, 0, 81, 0
2, 94560, Note_on_c, 0, 71, 107
2, 94656, Note_on_c, 0, 71, 0
2, 94680, Note_on_c, 0, 73, 107
2, 94776, Note_on_c, 0, 73, 0
2, 94800, Note_on_c, 0, 75, 107
2, 94896, Note_on_c, 0, 75, 0
2, 94920, Note_on_c, 0, 76, 107
2, 95016, Note_on_c, 0, 76, 0
2, 95040, Note_on_c, 0, 78, 107
2, 95136, Note_on_c, 0, 78, 0
2, 95160, Note_on_c, 0, 79, 107
2, 95256, Note_on_c, 0, 79, 0
2, 95280, Note_on_c, 0, 81, 107
2, 95376, Note_on_c, 0, 81, 0
2, 95400, Note_on_c, 0, 83, 107
2, 95496, Note_on_c, 0, 83, 0
2, 95520, Note_on_c, 0, 71, 107
2, 95616, Note_on_c, 0, 71, 0
2, 95640, Note_on_c, 0, 76, 107
2, 95736, Note_on_c, 0, 76, 0
2, 95760, Note_on_c, 0, 75, 107
2, 95856, Note_on_c, 0, 75, 0
2, 95880, Note_on_c, 0, 76, 107
2, 96168, Note_on_c, 0, 76, 0
2, 96480, Note_on_c, 0, 76, 107
2, 96576, Note_on_c, 0, 76, 0
2, 96600, Note_on_c, 0, 76, 107
2, 96696, Note_on_c, 0, 76, 0
2, 96720, Note_on_c, 0, 73, 107
2, 96816, Note_on_c, 0, 73, 0
2, 96840, Note_on_c, 0, 69, 107
2, 96936, Note_on_c, 0, 69, 0
2, 96960, Note_on_c, 0, 67, 107
2, 97056, Note_on_c, 0, 67, 0
2, 97080, Note_on_c, 0, 65, 107
2, 97176, Note_on_c, 0, 65, 0
2, 97200, Note_on_c, 0, 64, 107
2, 97296, Note_on_c, 0, 64, 0
2, 97320, Note_on_c, 0, 65, 107
2, 97416, Note_on_c, 0, 65, 0
2, 97440, Note_on_c, 0, 62, 107
2, 97536, Note_on_c, 0, 62, 0
2, 97560, Note_on_c, 0, 65, 107
2, 97656, Note_on_c, 0, 65, 0
2, 97680, Note_on_c, 0, 69, 107
2, 97776, Note_on_c, 0, 69, 0
2, 97800, Note_on_c, 0, 65, 107
2, 97896, Note_on_c, 0, 65, 0
2, 97920, Note_on_c, 0, 69, 107
2, 98016, Note_on_c, 0, 69, 0
2, 98040, Note_on_c, 0, 74, 107
2, 98136, Note_on_c, 0, 74, 0
2, 98160, Note_on_c, 0, 71, 107
2, 98256, Note_on_c, 0, 71, 0
2, 98280, Note_on_c, 0, 67, 107
2, 98376, Note_on_c, 0, 67, 0
2, 98400, Note_on_c, 0, 65, 107
2, 98496, Note_on_c, 0, 65, 0
2, 98520, Note_on_c, 0, 64, 107
2, 98616, Note_on_c, 0, 64, 0
2, 98640, Note_on_c, 0, 62, 107
2, 98736, Note_on_c, 0, 62, 0
2, 98760, Note_on_c, 0, 64, 107
2, 98856, Note_on_c, 0, 64, 0
2, 98880, Note_on_c, 0, 60, 107
2, 98976, Note_on_c, 0, 60, 0
2, 99000, Note_on_c, 0, 64, 107
2, 99096, Note_on_c, 0, 64, 0
2, 99120, Note_on_c, 0, 67, 107
2, 99216, Note_on_c, 0, 67, 0
2, 99240, Note_on_c, 0, 64, 107
2, 99336, Note_on_c, 0, 64, 0
2, 99360, Note_on_c, 0, 67, 107
2, 99456, Note_on_c, 0, 67, 0
2, 99480, Note_on_c, 0, 72, 107
2, 99576, Note_on_c, 0, 72, 0
2, 99600, Note_on_c, 0, 69, 107
2, 99696, Note_on_c, 0, 69, 0
2, 99720, Note_on_c, 0, 65, 107
2, 99816, Note_on_c, 0, 65, 0
2, 99840, Note_on_c, 0, 64, 107
2, 99936, Note_on_c, 0, 64, 0
2, 99960, Note_on_c, 0, 62, 107
2, 100056, Note_on_c, 0, 62, 0
2, 100080, Note_on_c, 0, 60, 107
2, 100176, Note_on_c, 0, 60, 0
2, 100200, Note_on_c, 0, 71, 107
2, 100296, Note_on_c, 0, 71, 0
2, 100320, Note_on_c, 0, 68, 107
2, 100416, Note_on_c, 0, 68, 0
2, 100440, Note_on_c, 0, 64, 107
2, 100536, Note_on_c, 0, 64, 0
2, 100560, Note_on_c, 0, 62, 107
2, 100656, Note_on_c, 0, 62, 0
2, 100680, Note_on_c, 0, 60, 107
2, 100776, Note_on_c, 0, 60, 0
2, 100800, Note_on_c, 0, 59, 107
2, 100896, Note_on_c, 0, 59, 0
2, 100920, Note_on_c, 0, 60, 107
2, 101016, Note_on_c, 0, 60, 0
2, 101040, Note_on_c, 0, 64, 107
2, 101136, Note_on_c, 0, 64, 0
2, 101160, Note_on_c, 0, 69, 107
2, 101256, Note_on_c, 0, 69, 0
2, 101280, Note_on_c, 0, 62, 107
2, 101376, Note_on_c, 0, 62, 0
2, 101400, Note_on_c, 0, 71, 107
2, 101496, Note_on_c, 0, 71, 0
2, 101520, Note_on_c, 0, 69, 107
2, 101616, Note_on_c, 0, 69, 0
2, 101640, Note_on_c, 0, 68, 107
2, 101736, Note_on_c, 0, 68, 0
2, 101760, Note_on_c, 0, 69, 107
2, 101856, Note_on_c, 0, 69, 0
2, 101880, Note_on_c, 0, 71, 107
2, 101976, Note_on_c, 0, 71, 0
2, 102000, Note_on_c, 0, 64, 107
2, 102192, Note_on_c, 0, 64, 0
2, 102240, Note_on_c, 0, 71, 107
2, 102336, Note_on_c, 0, 71, 0
2, 102360, Note_on_c, 0, 72, 107
2, 102456, Note_on_c, 0, 72, 0
2, 102480, Note_on_c, 0, 74, 107
2, 102576, Note_on_c, 0, 74, 0
2, 102600, Note_on_c, 0, 76, 107
2, 102696, Note_on_c, 0, 76, 0
2, 102720, Note_on_c, 0, 64, 107
2, 102816, Note_on_c, 0, 64, 0
2, 102840, Note_on_c, 0, 66, 107
2, 102936, Note_on_c, 0, 66, 0
2, 102960, Note_on_c, 0, 68, 107
2, 103056, Note_on_c, 0, 68, 0
2, 103080, Note_on_c, 0, 69, 107
2, 103176, Note_on_c, 0, 69, 0
2, 103200, Note_on_c, 0, 71, 107
2, 103296, Note_on_c, 0, 71, 0
2, 103320, Note_on_c, 0, 72, 107
2, 103416, Note_on_c, 0, 72, 0
2, 103440, Note_on_c, 0, 68, 107
2, 103536, Note_on_c, 0, 68, 0
2, 103560, Note_on_c, 0, 69, 107
2, 103656, Note_on_c, 0, 69, 0
2, 103680, Note_on_c, 0, 71, 107
2, 103776, Note_on_c, 0, 71, 0
2, 103800, Note_on_c, 0, 72, 107
2, 103896, Note_on_c, 0, 72, 0
2, 103920, Note_on_c, 0, 74, 107
2, 104016, Note_on_c, 0, 74, 0
2, 104040, Note_on_c, 0, 76, 107
2, 104136, Note_on_c, 0, 76, 0
2, 104160, Note_on_c, 0, 64, 107
2, 104256, Note_on_c, 0, 64, 0
2, 104280, Note_on_c, 0, 66, 107
2, 104376, Note_on_c, 0, 66, 0
2, 104400, Note_on_c, 0, 68, 107
2, 104496, Note_on_c, 0, 68, 0
2, 104520, Note_on_c, 0, 69, 107
2, 104616, Note_on_c, 0, 69, 0
2, 104640, Note_on_c, 0, 71, 107
2, 104736, Note_on_c, 0, 71, 0
2, 104760, Note_on_c, 0, 72, 107
2, 104856, Note_on_c, 0, 72, 0
2, 104880, Note_on_c, 0, 68, 107
2, 104976, Note_on_c, 0, 68, 0
2, 105000, Note_on_c, 0, 69, 107
2, 105096, Note_on_c, 0, 69, 0
2, 105120, Note_on_c, 0, 71, 107
2, 105216, Note_on_c, 0, 71, 0
2, 105240, Note_on_c, 0, 72, 107
2, 105336, Note_on_c, 0, 72, 0
2, 105360, Note_on_c, 0, 74, 107
2, 105456, Note_on_c, 0, 74, 0
2, 105480, Note_on_c, 0, 76, 107
2, 105576, Note_on_c, 0, 76, 0
2, 105600, Note_on_c, 0, 72, 107
2, 105624, Note_on_c, 0, 72, 0
2, 105630, Note_on_c, 0, 74, 107
2, 105654, Note_on_c, 0, 74, 0
2, 105660, Note_on_c, 0, 72, 107
2, 105708, Note_on_c, 0, 72, 0
2, 105720, Note_on_c, 0, 71, 107
2, 105816, Note_on_c, 0, 71, 0
2, 105840, Note_on_c, 0, 69, 107
2, 105936, Note_on_c, 0, 69, 0
2, 105960, Note_on_c, 0, 69, 107
2, 106056, Note_on_c, 0, 69, 0
2, 106080, Note_on_c, 0, 64, 107
2, 106176, Note_on_c, 0, 64, 0
2, 106200, Note_on_c, 0, 60, 107
2, 106296, Note_on_c, 0, 60, 0
2, 106320, Note_on_c, 0, 57, 107
2, 106512, Note_on_c, 0, 57, 0
2, 106512, End_track
3, 0, Start_track
3, 0, MIDI_port, 0
3, 0, Title_t, "J.S. Bach, Edition Wood"
3, 0, Program_c, 1, 0
3, 0, Control_c, 1, 7, 100
3, 0, Control_c, 1, 10, 64
3, 120, Note_on_c, 1, 45, 107
3, 408, Note_on_c, 1, 45, 0
3, 480, Note_on_c, 1, 57, 107
3, 768, Note_on_c, 1, 57, 0
3, 840, Note_on_c, 1, 57, 107
3, 1128, Note_on_c, 1, 57, 0
3, 1200, Note_on_c, 1, 56, 107
3, 1488, Note_on_c, 1, 56, 0
3, 1560, Note_on_c, 1, 57, 107
3, 1848, Note_on_c, 1, 57, 0
3, 1920, Note_on_c, 1, 53, 107
3, 2208, Note_on_c, 1, 53, 0
3, 2280, Note_on_c, 1, 52, 107
3, 2736, Note_on_c, 1, 52, 0
3, 2760, Note_on_c, 1, 54, 107
3, 2856, Note_on_c, 1, 54, 0
3, 2880, Note_on_c, 1, 56, 107
3, 2976, Note_on_c, 1, 56, 0
3, 3000, Note_on_c, 1, 57, 107
3, 3096, Note_on_c, 1, 57, 0
3, 3120, Note_on_c, 1, 59, 107
3, 3216, Note_on_c, 1, 59, 0
3, 3240, Note_on_c, 1, 60, 107
3, 3336, Note_on_c, 1, 60, 0
3, 3360, Note_on_c, 1, 53, 107
3, 3456, Note_on_c, 1, 53, 0
3, 3480, Note_on_c, 1, 55, 107
3, 3576, Note_on_c, 1, 55, 0
3, 3600, Note_on_c, 1, 57, 107
3, 3696, Note_on_c, 1, 57, 0
3, 3720, Note_on_c, 1, 59, 107
3, 3816, Note_on_c, 1, 59, 0
3, 3840, Note_on_c, 1, 60, 107
3, 3936, Note_on_c, 1, 60, 0
3, 3960, Note_on_c, 1, 62, 107
3, 4056, Note_on_c, 1, 62, 0
3, 4080, Note_on_c, 1, 55, 107
3, 4176, Note_on_c, 1, 55, 0
3, 4200, Note_on_c, 1, 57, 107
3, 4296, Note_on_c, 1, 57, 0
3, 4320, Note_on_c, 1, 59, 107
3, 4416, Note_on_c, 1, 59, 0
3, 4440, Note_on_c, 1, 60, 107
3, 4536, Note_on_c, 1, 60, 0
3, 4560, Note_on_c, 1, 62, 107
3, 4656, Note_on_c, 1, 62, 0
3, 4680, Note_on_c, 1, 64, 107
3, 4776, Note_on_c, 1, 64, 0
3, 4800, Note_on_c, 1, 64, 107
3, 4824, Note_on_c, 1, 64, 0
3, 4830, Note_on_c, 1, 65, 107
3, 4854, Note_on_c, 1, 65, 0
3, 4860, Note_on_c, 1, 64, 107
3, 4908, Note_on_c, 1, 64, 0
3, 4920, Note_on_c, 1, 62, 107
3, 5016, Note_on_c, 1, 62, 0
3, 5040, Note_on_c, 1, 64, 107
3, 5136, Note_on_c, 1, 64, 0
3, 5160, Note_on_c, 1, 65, 107
3, 5256, Note_on_c, 1, 65, 0
3, 5280, Note_on_c, 1, 53, 107
3, 5376, Note_on_c, 1, 53, 0
3, 5400, Note_on_c, 1, 55, 107
3, 5496, Note_on_c, 1, 55, 0
3, 5520, Note_on_c, 1, 57, 107
3, 5616, Note_on_c, 1, 57, 0
3, 5640, Note_on_c, 1, 59, 107
3, 5736, Note_on_c, 1, 59, 0
3, 5760, Note_on_c, 1, 60, 107
3, 5856, Note_on_c, 1, 60, 0
3, 5880, Note_on_c, 1, 62, 107
3, 5976, Note_on_c, 1, 62, 0
3, 6000, Note_on_c, 1, 64, 107
3, 6096, Note_on_c, 1, 64, 0
3, 6120, Note_on_c, 1, 65, 107
3, 6216, Note_on_c, 1, 65, 0
3, 6240, Note_on_c, 1, 65, 107
3, 6264, Note_on_c, 1, 65, 0
3, 6270, Note_on_c, 1, 67, 107
3, 6294, Note_on_c, 1, 67, 0
3, 6300, Note_on_c, 1, 65, 107
3, 6348, Note_on_c, 1, 65, 0
3, 6360, Note_on_c, 1, 64, 107
3, 6456, Note_on_c, 1, 64, 0
3, 6480, Note_on_c, 1, 65, 107
3, 6576, Note_on_c, 1, 65, 0
3, 6600, Note_on_c, 1, 67, 107
3, 6696, Note_on_c, 1, 67, 0
3, 6720, Note_on_c, 1, 55, 107
3, 6816, Note_on_c, 1, 55, 0
3, 6840, Note_on_c, 1, 57, 107
3, 6936, Note_on_c, 1, 57, 0
3, 6960, Note_on_c, 1, 59, 107
3, 7056, Note_on_c, 1, 59, 0
3, 7080, Note_on_c, 1, 60, 107
3, 7176, Note_on_c, 1, 60, 0
3, 7200, Note_on_c, 1, 62, 107
3, 7296, Note_on_c, 1, 62, 0
3, 7320, Note_on_c, 1, 64, 107
3, 7416, Note_on_c, 1, 64, 0
3, 7440, Note_on_c, 1, 65, 107
3, 7536, Note_on_c, 1, 65, 0
3, 7560, Note_on_c, 1, 67, 107
3, 7656, Note_on_c, 1, 67, 0
3, 7680, Note_on_c, 1, 67, 107
3, 7704, Note_on_c, 1, 67, 0
3, 7710, Note_on_c, 1, 69, 107
3, 7734, Note_on_c, 1, 69, 0
3, 7740, Note_on_c, 1, 67, 107
3, 7788, Note_on_c, 1, 67, 0
3, 7800, Note_on_c, 1, 65, 107
3, 7896, Note_on_c, 1, 65, 0
3, 7920, Note_on_c, 1, 67, 107
3, 8016, Note_on_c, 1, 67, 0
3, 8040, Note_on_c, 1, 69, 107
3, 8136, Note_on_c, 1, 69, 0
3, 8160, Note_on_c, 1, 57, 107
3, 8256, Note_on_c, 1, 57, 0
3, 8280, Note_on_c, 1, 59, 107
3, 8376, Note_on_c, 1, 59, 0
3, 8400, Note_on_c, 1, 60, 107
3, 8496, Note_on_c, 1, 60, 0
3, 8520, Note_on_c, 1, 62, 107
3, 8616, Note_on_c, 1, 62, 0
3, 8640, Note_on_c, 1, 64, 107
3, 8736, Note_on_c, 1, 64, 0
3, 8760, Note_on_c, 1, 65, 107
3, 8856, Note_on_c, 1, 65, 0
3, 8880, Note_on_c, 1, 55, 107
3, 8976, Note_on_c, 1, 55, 0
3, 9000, Note_on_c, 1, 57, 107
3, 9096, Note_on_c, 1, 57, 0
3, 9120, Note_on_c, 1, 59, 107
3, 9216, Note_on_c, 1, 59, 0
3, 9240, Note_on_c, 1, 60, 107
3, 9336, Note_on_c, 1, 60, 0
3, 9360, Note_on_c, 1, 62, 107
3, 9456, Note_on_c, 1, 62, 0
3, 9480, Note_on_c, 1, 64, 107
3, 9576, Note_on_c, 1, 64, 0
3, 9600, Note_on_c, 1, 53, 107
3, 9696, Note_on_c, 1, 53, 0
3, 9720, Note_on_c, 1, 55, 107
3, 9816, Note_on_c, 1, 55, 0
3, 9840, Note_on_c, 1, 57, 107
3, 9936, Note_on_c, 1, 57, 0
3, 9960, Note_on_c, 1, 59, 107
3, 10056, Note_on_c, 1, 59, 0
3, 10080, Note_on_c, 1, 60, 107
3, 10176, Note_on_c, 1, 60, 0
3, 10200, Note_on_c, 1, 62, 107
3, 10296, Note_on_c, 1, 62, 0
3, 10320, Note_on_c, 1, 64, 107
3, 10416, Note_on_c, 1, 64, 0
3, 10440, Note_on_c, 1, 65, 107
3, 10536, Note_on_c, 1, 65, 0
3, 10560, Note_on_c, 1, 59, 107
3, 10656, Note_on_c, 1, 59, 0
3, 10680, Note_on_c, 1, 60, 107
3, 10776, Note_on_c, 1, 60, 0
3, 10800, Note_on_c, 1, 62, 107
3, 10896, Note_on_c, 1, 62, 0
3, 10920, Note_on_c, 1, 55, 107
3, 11208, Note_on_c, 1, 55, 0
3, 11520, Note_on_c, 1, 65, 107
3, 11616, Note_on_c, 1, 65, 0
3, 11640, Note_on_c, 1, 64, 107
3, 11736, Note_on_c, 1, 64, 0
3, 11760, Note_on_c, 1, 65, 107
3, 11856, Note_on_c, 1, 65, 0
3, 11880, Note_on_c, 1, 67, 107
3, 11976, Note_on_c, 1, 67, 0
3, 12000, Note_on_c, 1, 60, 107
3, 12096, Note_on_c, 1, 60, 0
3, 12120, Note_on_c, 1, 62, 107
3, 12216, Note_on_c, 1, 62, 0
3, 12240, Note_on_c, 1, 64, 107
3, 12336, Note_on_c, 1, 64, 0
3, 12360, Note_on_c, 1, 59, 107
3, 12456, Note_on_c, 1, 59, 0
3, 12480, Note_on_c, 1, 60, 107
3, 12576, Note_on_c, 1, 60, 0
3, 12600, Note_on_c, 1, 62, 107
3, 12696, Note_on_c, 1, 62, 0
3, 12720, Note_on_c, 1, 55, 107
3, 12816, Note_on_c, 1, 55, 0
3, 12840, Note_on_c, 1, 57, 107
3, 12936, Note_on_c, 1, 57, 0
3, 12960, Note_on_c, 1, 59, 107
3, 13056, Note_on_c, 1, 59, 0
3, 13080, Note_on_c, 1, 52, 107
3, 13176, Note_on_c, 1, 52, 0
3, 13200, Note_on_c, 1, 53, 107
3, 13296, Note_on_c, 1, 53, 0
3, 13320, Note_on_c, 1, 55, 107
3, 13416, Note_on_c, 1, 55, 0
3, 13440, Note_on_c, 1, 48, 107
3, 13536, Note_on_c, 1, 48, 0
3, 13560, Note_on_c, 1, 50, 107
3, 13656, Note_on_c, 1, 50, 0
3, 13680, Note_on_c, 1, 52, 107
3, 13776, Note_on_c, 1, 52, 0
3, 13800, Note_on_c, 1, 47, 107
3, 13896, Note_on_c, 1, 47, 0
3, 13920, Note_on_c, 1, 48, 107
3, 14016, Note_on_c, 1, 48, 0
3, 14040, Note_on_c, 1, 50, 107
3, 14136, Note_on_c, 1, 50, 0
3, 14160, Note_on_c, 1, 43, 107
3, 14256, Note_on_c, 1, 43, 0
3, 14280, Note_on_c, 1, 45, 107
3, 14376, Note_on_c, 1, 45, 0
3, 14400, Note_on_c, 1, 47, 107
3, 14496, Note_on_c, 1, 47, 0
3, 14520, Note_on_c, 1, 40, 107
3, 14808, Note_on_c, 1, 40, 0
3, 15120, Note_on_c, 1, 52, 107
3, 15216, Note_on_c, 1, 52, 0
3, 15240, Note_on_c, 1, 53, 107
3, 15336, Note_on_c, 1, 53, 0
3, 15360, Note_on_c, 1, 55, 107
3, 15456, Note_on_c, 1, 55, 0
3, 15480, Note_on_c, 1, 57, 107
3, 15576, Note_on_c, 1, 57, 0
3, 15600, Note_on_c, 1, 57, 107
3, 15696, Note_on_c, 1, 57, 0
3, 15720, Note_on_c, 1, 59, 107
3, 15816, Note_on_c, 1, 59, 0
3, 15840, Note_on_c, 1, 60, 107
3, 15936, Note_on_c, 1, 60, 0
3, 15960, Note_on_c, 1, 38, 107
3, 16248, Note_on_c, 1, 38, 0
3, 16560, Note_on_c, 1, 50, 107
3, 16656, Note_on_c, 1, 50, 0
3, 16680, Note_on_c, 1, 52, 107
3, 16776, Note_on_c, 1, 52, 0
3, 16800, Note_on_c, 1, 53, 107
3, 16896, Note_on_c, 1, 53, 0
3, 16920, Note_on_c, 1, 55, 107
3, 17016, Note_on_c, 1, 55, 0
3, 17040, Note_on_c, 1, 55, 107
3, 17136, Note_on_c, 1, 55, 0
3, 17160, Note_on_c, 1, 57, 107
3, 17256, Note_on_c, 1, 57, 0
3, 17280, Note_on_c, 1, 59, 107
3, 17376, Note_on_c, 1, 59, 0
3, 17400, Note_on_c, 1, 36, 107
3, 17688, Note_on_c, 1, 36, 0
3, 17760, Note_on_c, 1, 48, 107
3, 18408, Note_on_c, 1, 48, 0
3, 18480, Note_on_c, 1, 47, 107
3, 18768, Note_on_c, 1, 47, 0
3, 18840, Note_on_c, 1, 48, 107
3, 19128, Note_on_c, 1, 48, 0
3, 19200, Note_on_c, 1, 45, 107
3, 19488, Note_on_c, 1, 45, 0
3, 19560, Note_on_c, 1, 43, 107
3, 20016, Note_on_c, 1, 43, 0
3, 20040, Note_on_c, 1, 45, 107
3, 20136, Note_on_c, 1, 45, 0
3, 20160, Note_on_c, 1, 47, 107
3, 20256, Note_on_c, 1, 47, 0
3, 20280, Note_on_c, 1, 48, 107
3, 20376, Note_on_c, 1, 48, 0
3, 20400, Note_on_c, 1, 50, 107
3, 20496, Note_on_c, 1, 50, 0
3, 20520, Note_on_c, 1, 52, 107
3, 20616, Note_on_c, 1, 52, 0
3, 20640, Note_on_c, 1, 47, 107
3, 20736, Note_on_c, 1, 47, 0
3, 20760, Note_on_c, 1, 48, 107
3, 20856, Note_on_c, 1, 48, 0
3, 20880, Note_on_c, 1, 50, 107
3, 20976, Note_on_c, 1, 50, 0
3, 21000, Note_on_c, 1, 52, 107
3, 21096, Note_on_c, 1, 52, 0
3, 21120, Note_on_c, 1, 53, 107
3, 21216, Note_on_c, 1, 53, 0
3, 21240, Note_on_c, 1, 55, 107
3, 21336, Note_on_c, 1, 55, 0
3, 21360, Note_on_c, 1, 55, 107
3, 21456, Note_on_c, 1, 55, 0
3, 21480, Note_on_c, 1, 57, 107
3, 21576, Note_on_c, 1, 57, 0
3, 21600, Note_on_c, 1, 59, 107
3, 21696, Note_on_c, 1, 59, 0
3, 21720, Note_on_c, 1, 60, 107
3, 21816, Note_on_c, 1, 60, 0
3, 21840, Note_on_c, 1, 62, 107
3, 21936, Note_on_c, 1, 62, 0
3, 21960, Note_on_c, 1, 64, 107
3, 22056, Note_on_c, 1, 64, 0
3, 22080, Note_on_c, 1, 59, 107
3, 22176, Note_on_c, 1, 59, 0
3, 22200, Note_on_c, 1, 60, 107
3, 22296, Note_on_c, 1, 60, 0
3, 22320, Note_on_c, 1, 62, 107
3, 22416, Note_on_c, 1, 62, 0
3, 23880, Note_on_c, 1, 48, 107
3, 24336, Note_on_c, 1, 48, 0
3, 24360, Note_on_c, 1, 52, 107
3, 24456, Note_on_c, 1, 52, 0
3, 24480, Note_on_c, 1, 48, 107
3, 24576, Note_on_c, 1, 48, 0
3, 24600, Note_on_c, 1, 45, 107
3, 24888, Note_on_c, 1, 45, 0
3, 24960, Note_on_c, 1, 57, 107
3, 25248, Note_on_c, 1, 57, 0
3, 25320, Note_on_c, 1, 57, 107
3, 25608, Note_on_c, 1, 57, 0
3, 25680, Note_on_c, 1, 56, 107
3, 25968, Note_on_c, 1, 56, 0
3, 26040, Note_on_c, 1, 57, 107
3, 26328, Note_on_c, 1, 57, 0
3, 26400, Note_on_c, 1, 53, 107
3, 26688, Note_on_c, 1, 53, 0
3, 26760, Note_on_c, 1, 52, 107
3, 27216, Note_on_c, 1, 52, 0
3, 27240, Note_on_c, 1, 54, 107
3, 27336, Note_on_c, 1, 54, 0
3, 27360, Note_on_c, 1, 56, 107
3, 27456, Note_on_c, 1, 56, 0
3, 27480, Note_on_c, 1, 57, 107
3, 27576, Note_on_c, 1, 57, 0
3, 27600, Note_on_c, 1, 59, 107
3, 27696, Note_on_c, 1, 59, 0
3, 27720, Note_on_c, 1, 60, 107
3, 27816, Note_on_c, 1, 60, 0
3, 27840, Note_on_c, 1, 53, 107
3, 27936, Note_on_c, 1, 53, 0
3, 27960, Note_on_c, 1, 55, 107
3, 28056, Note_on_c, 1, 55, 0
3, 28080, Note_on_c, 1, 57, 107
3, 28176, Note_on_c, 1, 57, 0
3, 28200, Note_on_c, 1, 59, 107
3, 28296, Note_on_c, 1, 59, 0
3, 28320, Note_on_c, 1, 60, 107
3, 28416, Note_on_c, 1, 60, 0
3, 28440, Note_on_c, 1, 62, 107
3, 28536, Note_on_c, 1, 62, 0
3, 28560, Note_on_c, 1, 55, 107
3, 28656, Note_on_c, 1, 55, 0
3, 28680, Note_on_c, 1, 57, 107
3, 28776, Note_on_c, 1, 57, 0
3, 28800, Note_on_c, 1, 59, 107
3, 28896, Note_on_c, 1, 59, 0
3, 28920, Note_on_c, 1, 60, 107
3, 29016, Note_on_c, 1, 60, 0
3, 29040, Note_on_c, 1, 62, 107
3, 29136, Note_on_c, 1, 62, 0
3, 29160, Note_on_c, 1, 64, 107
3, 29256, Note_on_c, 1, 64, 0
3, 29280, Note_on_c, 1, 64, 107
3, 29304, Note_on_c, 1, 64, 0
3, 29310, Note_on_c, 1, 65, 107
3, 29334, Note_on_c, 1, 65, 0
3, 29340, Note_on_c, 1, 64, 107
3, 29388, Note_on_c, 1, 64, 0
3, 29400, Note_on_c, 1, 62, 107
3, 29496, Note_on_c, 1, 62, 0
3, 29520, Note_on_c, 1, 64, 107
3, 29616, Note_on_c, 1, 64, 0
3, 29640, Note_on_c, 1, 65, 107
3, 29736, Note_on_c, 1, 65, 0
3, 29760, Note_on_c, 1, 53, 107
3, 29856, Note_on_c, 1, 53, 0
3, 29880, Note_on_c, 1, 55, 107
3, 29976, Note_on_c, 1, 55, 0
3, 30000, Note_on_c, 1, 57, 107
3, 30096, Note_on_c, 1, 57, 0
3, 30120, Note_on_c, 1, 59, 107
3, 30216, Note_on_c, 1, 59, 0
3, 30240, Note_on_c, 1, 60, 107
3, 30336, Note_on_c, 1, 60, 0
3, 30360, Note_on_c, 1, 62, 107
3, 30456, Note_on_c, 1, 62, 0
3, 30480, Note_on_c, 1, 64, 107
3, 30576, Note_on_c, 1, 64, 0
3, 30600, Note_on_c, 1, 65, 107
3, 30696, Note_on_c, 1, 65, 0
3, 30720, Note_on_c, 1, 65, 107
3, 30744, Note_on_c, 1, 65, 0
3, 30750, Note_on_c, 1, 67, 107
3, 30774, Note_on_c, 1, 67, 0
3, 30780, Note_on_c, 1, 65, 107
3, 30828, Note_on_c, 1, 65, 0
3, 30840, Note_on_c, 1, 64, 107
3, 30936, Note_on_c, 1, 64, 0
3, 30960, Note_on_c, 1, 65, 107
3, 31056, Note_on_c, 1, 65, 0
3, 31080, Note_on_c, 1, 67, 107
3, 31176, Note_on_c, 1, 67, 0
3, 31200, Note_on_c, 1, 55, 107
3, 31296, Note_on_c, 1, 55, 0
3, 31320, Note_on_c, 1, 57, 107
3, 31416, Note_on_c, 1, 57, 0
3, 31440, Note_on_c, 1, 59, 107
3, 31536, Note_on_c, 1, 59, 0
3, 31560, Note_on_c, 1, 60, 107
3, 31656, Note_on_c, 1, 60, 0
3, 31680, Note_on_c, 1, 62, 107
3, 31776, Note_on_c, 1, 62, 0
3, 31800, Note_on_c, 1, 64, 107
3, 31896, Note_on_c, 1, 64, 0
3, 31920, Note_on_c, 1, 65, 107
3, 32016, Note_on_c, 1, 65, 0
3, 32040, Note_on_c, 1, 67, 107
3, 32136, Note_on_c, 1, 67, 0
3, 32160, Note_on_c, 1, 67, 107
3, 32184, Note_on_c, 1, 67, 0
3, 32190, Note_on_c, 1, 69, 107
3, 32214, Note_on_c, 1, 69, 0
3, 32220, Note_on_c, 1, 67, 107
3, 32268, Note_on_c, 1, 67, 0
3, 32280, Note_on_c, 1, 65, 107
3, 32376, Note_on_c, 1, 65, 0
3, 32400, Note_on_c, 1, 67, 107
3, 32496, Note_on_c, 1, 67, 0
3, 32520, Note_on_c, 1, 69, 107
3, 32616, Note_on_c, 1, 69, 0
3, 32640, Note_on_c, 1, 57, 107
3, 32736, Note_on_c, 1, 57, 0
3, 32760, Note_on_c, 1, 59, 107
3, 32856, Note_on_c, 1, 59, 0
3, 32880, Note_on_c, 1, 60, 107
3, 32976, Note_on_c, 1, 60, 0
3, 33000, Note_on_c, 1, 62, 107
3, 33096, Note_on_c, 1, 62, 0
3, 33120, Note_on_c, 1, 64, 107
3, 33216, Note_on_c, 1, 64, 0
3, 33240, Note_on_c, 1, 65, 107
3, 33336, Note_on_c, 1, 65, 0
3, 33360, Note_on_c, 1, 55, 107
3, 33456, Note_on_c, 1, 55, 0
3, 33480, Note_on_c, 1, 57, 107
3, 33576, Note_on_c, 1, 57, 0
3, 33600, Note_on_c, 1, 59, 107
3, 33696, Note_on_c, 1, 59, 0
3, 33720, Note_on_c, 1, 60, 107
3, 33816, Note_on_c, 1, 60, 0
3, 33840, Note_on_c, 1, 62, 107
3, 33936, Note_on_c, 1, 62, 0
3, 33960, Note_on_c, 1, 64, 107
3, 34056, Note_on_c, 1, 64, 0
3, 34080, Note_on_c, 1, 53, 107
3, 34176, Note_on_c, 1, 53, 0
3, 34200, Note_on_c, 1, 55, 107
3, 34296, Note_on_c, 1, 55, 0
3, 34320, Note_on_c, 1, 57, 107
3, 34416, Note_on_c, 1, 57, 0
3, 34440, Note_on_c, 1, 59, 107
3, 34536, Note_on_c, 1, 59, 0
3, 34560, Note_on_c, 1, 60, 107
3, 34656, Note_on_c, 1, 60, 0
3, 34680, Note_on_c, 1, 62, 107
3, 34776, Note_on_c, 1, 62, 0
3, 34800, Note_on_c, 1, 64, 107
3, 34896, Note_on_c, 1, 64, 0
3, 34920, Note_on_c, 1, 65, 107
3, 35016, Note_on_c, 1, 65, 0
3, 35040, Note_on_c, 1, 59, 107
3, 35136, Note_on_c, 1, 59, 0
3, 35160, Note_on_c, 1, 60, 107
3, 35256, Note_on_c, 1, 60, 0
3, 35280, Note_on_c, 1, 62, 107
3, 35376, Note_on_c, 1, 62, 0
3, 35400, Note_on_c, 1, 55, 107
3, 35688, Note_on_c, 1, 55, 0
3, 36000, Note_on_c, 1, 65, 107
3, 36096, Note_on_c, 1, 65, 0
3, 36120, Note_on_c, 1, 64, 107
3, 36216, Note_on_c, 1, 64, 0
3, 36240, Note_on_c, 1, 65, 107
3, 36336, Note_on_c, 1, 65, 0
3, 36360, Note_on_c, 1, 67, 107
3, 36456, Note_on_c, 1, 67, 0
3, 36480, Note_on_c, 1, 60, 107
3, 36576, Note_on_c, 1, 60, 0
3, 36600, Note_on_c, 1, 62, 107
3, 36696, Note_on_c, 1, 62, 0
3, 36720, Note_on_c, 1, 64, 107
3, 36816, Note_on_c, 1, 64, 0
3, 36840, Note_on_c, 1, 59, 107
3, 36936, Note_on_c, 1, 59, 0
3, 36960, Note_on_c, 1, 60, 107
3, 37056, Note_on_c, 1, 60, 0
3, 37080, Note_on_c, 1, 62, 107
3, 37176, Note_on_c, 1, 62, 0
3, 37200, Note_on_c, 1, 55, 107
3, 37296, Note_on_c, 1, 55, 0
3, 37320, Note_on_c, 1, 57, 107
3, 37416, Note_on_c, 1, 57, 0
3, 37440, Note_on_c, 1, 59, 107
3, 37536, Note_on_c, 1, 59, 0
3, 37560, Note_on_c, 1, 52, 107
3, 37656, Note_on_c, 1, 52, 0
3, 37680, Note_on_c, 1, 53, 107
3, 37776, Note_on_c, 1, 53, 0
3, 37800, Note_on_c, 1, 55, 107
3, 37896, Note_on_c, 1, 55, 0
3, 37920, Note_on_c, 1, 48, 107
3, 38016, Note_on_c, 1, 48, 0
3, 38040, Note_on_c, 1, 50, 107
3, 38136, Note_on_c, 1, 50, 0
3, 38160, Note_on_c, 1, 52, 107
3, 38256, Note_on_c, 1, 52, 0
3, 38280, Note_on_c, 1, 47, 107
3, 38376, Note_on_c, 1, 47, 0
3, 38400, Note_on_c, 1, 48, 107
3, 38496, Note_on_c, 1, 48, 0
3, 38520, Note_on_c, 1, 50, 107
3, 38616, Note_on_c, 1, 50, 0
3, 38640, Note_on_c, 1, 43, 107
3, 38736, Note_on_c, 1, 43, 0
3, 38760, Note_on_c, 1, 45, 107
3, 38856, Note_on_c, 1, 45, 0
3, 38880, Note_on_c, 1, 47, 107
3, 38976, Note_on_c, 1, 47, 0
3, 39000, Note_on_c, 1, 40, 107
3, 39288, Note_on_c, 1, 40, 0
3, 39600, Note_on_c, 1, 52, 107
3, 39696, Note_on_c, 1, 52, 0
3, 39720, Note_on_c, 1, 53, 107
3, 39816, Note_on_c, 1, 53, 0
3, 39840, Note_on_c, 1, 55, 107
3, 39936, Note_on_c, 1, 55, 0
3, 39960, Note_on_c, 1, 57, 107
3, 40056, Note_on_c, 1, 57, 0
3, 40080, Note_on_c, 1, 57, 107
3, 40176, Note_on_c, 1, 57, 0
3, 40200, Note_on_c, 1, 59, 107
3, 40296, Note_on_c, 1, 59, 0
3, 40320, Note_on_c, 1, 60, 107
3, 40416, Note_on_c, 1, 60, 0
3, 40440, Note_on_c, 1, 38, 107
3, 40728, Note_on_c, 1, 38, 0
3, 41040, Note_on_c, 1, 50, 107
3, 41136, Note_on_c, 1, 50, 0
3, 41160, Note_on_c, 1, 52, 107
3, 41256, Note_on_c, 1, 52, 0
3, 41280, Note_on_c, 1, 53, 107
3, 41376, Note_on_c, 1, 53, 0
3, 41400, Note_on_c, 1, 55, 107
3, 41496, Note_on_c, 1, 55, 0
3, 41520, Note_on_c, 1, 55, 107
3, 41616, Note_on_c, 1, 55, 0
3, 41640, Note_on_c, 1, 57, 107
3, 41736, Note_on_c, 1, 57, 0
3, 41760, Note_on_c, 1, 59, 107
3, 41856, Note_on_c, 1, 59, 0
3, 41880, Note_on_c, 1, 36, 107
3, 42168, Note_on_c, 1, 36, 0
3, 42240, Note_on_c, 1, 48, 107
3, 42888, Note_on_c, 1, 48, 0
3, 42960, Note_on_c, 1, 47, 107
3, 43248, Note_on_c, 1, 47, 0
3, 43320, Note_on_c, 1, 48, 107
3, 43608, Note_on_c, 1, 48, 0
3, 43680, Note_on_c, 1, 45, 107
3, 43968, Note_on_c, 1, 45, 0
3, 44040, Note_on_c, 1, 43, 107
3, 44496, Note_on_c, 1, 43, 0
3, 44520, Note_on_c, 1, 45, 107
3, 44616, Note_on_c, 1, 45, 0
3, 44640, Note_on_c, 1, 47, 107
3, 44736, Note_on_c, 1, 47, 0
3, 44760, Note_on_c, 1, 48, 107
3, 44856, Note_on_c, 1, 48, 0
3, 44880, Note_on_c, 1, 50, 107
3, 44976, Note_on_c, 1, 50, 0
3, 45000, Note_on_c, 1, 52, 107
3, 45096, Note_on_c, 1, 52, 0
3, 45120, Note_on_c, 1, 47, 107
3, 45216, Note_on_c, 1, 47, 0
3, 45240, Note_on_c, 1, 48, 107
3, 45336, Note_on_c, 1, 48, 0
3, 45360, Note_on_c, 1, 50, 107
3, 45456, Note_on_c, 1, 50, 0
3, 45480, Note_on_c, 1, 52, 107
3, 45576, Note_on_c, 1, 52, 0
3, 45600, Note_on_c, 1, 53, 107
3, 45696, Note_on_c, 1, 53, 0
3, 45720, Note_on_c, 1, 55, 107
3, 45816, Note_on_c, 1, 55, 0
3, 45840, Note_on_c, 1, 55, 107
3, 45936, Note_on_c, 1, 55, 0
3, 45960, Note_on_c, 1, 57, 107
3, 46056, Note_on_c, 1, 57, 0
3, 46080, Note_on_c, 1, 59, 107
3, 46176, Note_on_c, 1, 59, 0
3, 46200, Note_on_c, 1, 60, 107
3, 46296, Note_on_c, 1, 60, 0
3, 46320, Note_on_c, 1, 62, 107
3, 46416, Note_on_c, 1, 62, 0
3, 46440, Note_on_c, 1, 64, 107
3, 46536, Note_on_c, 1, 64, 0
3, 46560, Note_on_c, 1, 59, 107
3, 46656, Note_on_c, 1, 59, 0
3, 46680, Note_on_c, 1, 60, 107
3, 46776, Note_on_c, 1, 60, 0
3, 46800, Note_on_c, 1, 62, 107
3, 46896, Note_on_c, 1, 62, 0
3, 48360, Note_on_c, 1, 48, 107
3, 48816, Note_on_c, 1, 48, 0
3, 48840, Note_on_c, 1, 43, 107
3, 48936, Note_on_c, 1, 43, 0
3, 48960, Note_on_c, 1, 40, 107
3, 49056, Note_on_c, 1, 40, 0
3, 49080, Note_on_c, 1, 36, 107
3, 49368, Note_on_c, 1, 36, 0
3, 49440, Note_on_c, 1, 48, 107
3, 50088, Note_on_c, 1, 48, 0
3, 50160, Note_on_c, 1, 47, 107
3, 50448, Note_on_c, 1, 47, 0
3, 50520, Note_on_c, 1, 48, 107
3, 50808, Note_on_c, 1, 48, 0
3, 50880, Note_on_c, 1, 41, 107
3, 51168, Note_on_c, 1, 41, 0
3, 51240, Note_on_c, 1, 43, 107
3, 51696, Note_on_c, 1, 43, 0
3, 51720, Note_on_c, 1, 45, 107
3, 51816, Note_on_c, 1, 45, 0
3, 51840, Note_on_c, 1, 47, 107
3, 51936, Note_on_c, 1, 47, 0
3, 51960, Note_on_c, 1, 48, 107
3, 52056, Note_on_c, 1, 48, 0
3, 52080, Note_on_c, 1, 50, 107
3, 52176, Note_on_c, 1, 50, 0
3, 52200, Note_on_c, 1, 52, 107
3, 52296, Note_on_c, 1, 52, 0
3, 52320, Note_on_c, 1, 54, 107
3, 52416, Note_on_c, 1, 54, 0
3, 52440, Note_on_c, 1, 55, 107
3, 52536, Note_on_c, 1, 55, 0
3, 52560, Note_on_c, 1, 57, 107
3, 52656, Note_on_c, 1, 57, 0
3, 52680, Note_on_c, 1, 47, 107
3, 52776, Note_on_c, 1, 47, 0
3, 52800, Note_on_c, 1, 59, 107
3, 52896, Note_on_c, 1, 59, 0
3, 52920, Note_on_c, 1, 57, 107
3, 53016, Note_on_c, 1, 57, 0
3, 53040, Note_on_c, 1, 56, 107
3, 53136, Note_on_c, 1, 56, 0
3, 53160, Note_on_c, 1, 57, 107
3, 53256, Note_on_c, 1, 57, 0
3, 53280, Note_on_c, 1, 54, 107
3, 53376, Note_on_c, 1, 54, 0
3, 53400, Note_on_c, 1, 56, 107
3, 53496, Note_on_c, 1, 56, 0
3, 53520, Note_on_c, 1, 54, 107
3, 53616, Note_on_c, 1, 54, 0
3, 53640, Note_on_c, 1, 52, 107
3, 53736, Note_on_c, 1, 52, 0
3, 53760, Note_on_c, 1, 50, 107
3, 53856, Note_on_c, 1, 50, 0
3, 53880, Note_on_c, 1, 48, 107
3, 53976, Note_on_c, 1, 48, 0
3, 54000, Note_on_c, 1, 47, 107
3, 54096, Note_on_c, 1, 47, 0
3, 54120, Note_on_c, 1, 45, 107
3, 54216, Note_on_c, 1, 45, 0
3, 54240, Note_on_c, 1, 57, 107
3, 54336, Note_on_c, 1, 57, 0
3, 54360, Note_on_c, 1, 55, 107
3, 54456, Note_on_c, 1, 55, 0
3, 54480, Note_on_c, 1, 54, 107
3, 54576, Note_on_c, 1, 54, 0
3, 54600, Note_on_c, 1, 55, 107
3, 54696, Note_on_c, 1, 55, 0
3, 54720, Note_on_c, 1, 52, 107
3, 54816, Note_on_c, 1, 52, 0
3, 54840, Note_on_c, 1, 54, 107
3, 54936, Note_on_c, 1, 54, 0
3, 54960, Note_on_c, 1, 52, 107
3, 55056, Note_on_c, 1, 52, 0
3, 55080, Note_on_c, 1, 50, 107
3, 55176, Note_on_c, 1, 50, 0
3, 55200, Note_on_c, 1, 48, 107
3, 55296, Note_on_c, 1, 48, 0
3, 55320, Note_on_c, 1, 47, 107
3, 55416, Note_on_c, 1, 47, 0
3, 55440, Note_on_c, 1, 45, 107
3, 55536, Note_on_c, 1, 45, 0
3, 55560, Note_on_c, 1, 43, 107
3, 55656, Note_on_c, 1, 43, 0
3, 55680, Note_on_c, 1, 55, 107
3, 55776, Note_on_c, 1, 55, 0
3, 55800, Note_on_c, 1, 54, 107
3, 55896, Note_on_c, 1, 54, 0
3, 55920, Note_on_c, 1, 52, 107
3, 56016, Note_on_c, 1, 52, 0
3, 56040, Note_on_c, 1, 51, 107
3, 56136, Note_on_c, 1, 51, 0
3, 56160, Note_on_c, 1, 52, 107
3, 56256, Note_on_c, 1, 52, 0
3, 56280, Note_on_c, 1, 42, 107
3, 56376, Note_on_c, 1, 42, 0
3, 56400, Note_on_c, 1, 54, 107
3, 56496, Note_on_c, 1, 54, 0
3, 56520, Note_on_c, 1, 52, 107
3, 56616, Note_on_c, 1, 52, 0
3, 56640, Note_on_c, 1, 51, 107
3, 56736, Note_on_c, 1, 51, 0
3, 56760, Note_on_c, 1, 49, 107
3, 56856, Note_on_c, 1, 49, 0
3, 56880, Note_on_c, 1, 51, 107
3, 56976, Note_on_c, 1, 51, 0
3, 57000, Note_on_c, 1, 40, 107
3, 57096, Note_on_c, 1, 40, 0
3, 57120, Note_on_c, 1, 52, 107
3, 57216, Note_on_c, 1, 52, 0
3, 57240, Note_on_c, 1, 50, 107
3, 57336, Note_on_c, 1, 50, 0
3, 57360, Note_on_c, 1, 48, 107
3, 57456, Note_on_c, 1, 48, 0
3, 57480, Note_on_c, 1, 47, 107
3, 57576, Note_on_c, 1, 47, 0
3, 57600, Note_on_c, 1, 45, 107
3, 57696, Note_on_c, 1, 45, 0
3, 57720, Note_on_c, 1, 47, 107
3, 58176, Note_on_c, 1, 47, 0
3, 58200, Note_on_c, 1, 49, 107
3, 58296, Note_on_c, 1, 49, 0
3, 58320, Note_on_c, 1, 51, 107
3, 58416, Note_on_c, 1, 51, 0
3, 58440, Note_on_c, 1, 52, 107
3, 58536, Note_on_c, 1, 52, 0
3, 58560, Note_on_c, 1, 54, 107
3, 58656, Note_on_c, 1, 54, 0
3, 58680, Note_on_c, 1, 55, 107
3, 58776, Note_on_c, 1, 55, 0
3, 58800, Note_on_c, 1, 48, 107
3, 58896, Note_on_c, 1, 48, 0
3, 58920, Note_on_c, 1, 50, 107
3, 59016, Note_on_c, 1, 50, 0
3, 59040, Note_on_c, 1, 52, 107
3, 59136, Note_on_c, 1, 52, 0
3, 59160, Note_on_c, 1, 54, 107
3, 59256, Note_on_c, 1, 54, 0
3, 59280, Note_on_c, 1, 55, 107
3, 59376, Note_on_c, 1, 55, 0
3, 59400, Note_on_c, 1, 57, 107
3, 59496, Note_on_c, 1, 57, 0
3, 59520, Note_on_c, 1, 50, 107
3, 59616, Note_on_c, 1, 50, 0
3, 59640, Note_on_c, 1, 52, 107
3, 59736, Note_on_c, 1, 52, 0
3, 59760, Note_on_c, 1, 54, 107
3, 59856, Note_on_c, 1, 54, 0
3, 59880, Note_on_c, 1, 55, 107
3, 59976, Note_on_c, 1, 55, 0
3, 60000, Note_on_c, 1, 57, 107
3, 60096, Note_on_c, 1, 57, 0
3, 60120, Note_on_c, 1, 59, 107
3, 60216, Note_on_c, 1, 59, 0
3, 60240, Note_on_c, 1, 52, 107
3, 60336, Note_on_c, 1, 52, 0
3, 60360, Note_on_c, 1, 54, 107
3, 60456, Note_on_c, 1, 54, 0
3, 60480, Note_on_c, 1, 55, 107
3, 60576, Note_on_c, 1, 55, 0
3, 60600, Note_on_c, 1, 57, 107
3, 60696, Note_on_c, 1, 57, 0
3, 60720, Note_on_c, 1, 59, 107
3, 60816, Note_on_c, 1, 59, 0
3, 60840, Note_on_c, 1, 60, 107
3, 60936, Note_on_c, 1, 60, 0
3, 60960, Note_on_c, 1, 54, 107
3, 61056, Note_on_c, 1, 54, 0
3, 61080, Note_on_c, 1, 55, 107
3, 61176, Note_on_c, 1, 55, 0
3, 61200, Note_on_c, 1, 57, 107
3, 61296, Note_on_c, 1, 57, 0
3, 61320, Note_on_c, 1, 59, 107
3, 61416, Note_on_c, 1, 59, 0
3, 61440, Note_on_c, 1, 61, 107
3, 61536, Note_on_c, 1, 61, 0
3, 61560, Note_on_c, 1, 63, 107
3, 61656, Note_on_c, 1, 63, 0
3, 61680, Note_on_c, 1, 63, 107
3, 61704, Note_on_c, 1, 63, 0
3, 61710, Note_on_c, 1, 64, 107
3, 61734, Note_on_c, 1, 64, 0
3, 61740, Note_on_c, 1, 63, 107
3, 61788, Note_on_c, 1, 63, 0
3, 61800, Note_on_c, 1, 61, 107
3, 61896, Note_on_c, 1, 61, 0
3, 61920, Note_on_c, 1, 63, 107
3, 62016, Note_on_c, 1, 63, 0
3, 62040, Note_on_c, 1, 64, 107
3, 62136, Note_on_c, 1, 64, 0
3, 62160, Note_on_c, 1, 52, 107
3, 62256, Note_on_c, 1, 52, 0
3, 62280, Note_on_c, 1, 54, 107
3, 62376, Note_on_c, 1, 54, 0
3, 62400, Note_on_c, 1, 56, 107
3, 62496, Note_on_c, 1, 56, 0
3, 62520, Note_on_c, 1, 57, 107
3, 62616, Note_on_c, 1, 57, 0
3, 62640, Note_on_c, 1, 59, 107
3, 62736, Note_on_c, 1, 59, 0
3, 62760, Note_on_c, 1, 61, 107
3, 62856, Note_on_c, 1, 61, 0
3, 62880, Note_on_c, 1, 63, 107
3, 62976, Note_on_c, 1, 63, 0
3, 63000, Note_on_c, 1, 64, 107
3, 63096, Note_on_c, 1, 64, 0
3, 63120, Note_on_c, 1, 64, 107
3, 63144, Note_on_c, 1, 64, 0
3, 63150, Note_on_c, 1, 65, 107
3, 63174, Note_on_c, 1, 65, 0
3, 63180, Note_on_c, 1, 64, 107
3, 63228, Note_on_c, 1, 64, 0
3, 63240, Note_on_c, 1, 62, 107
3, 63353, Note_on_c, 1, 62, 0
3, 63360, Note_on_c, 1, 64, 107
3, 63473, Note_on_c, 1, 64, 0
3, 63480, Note_on_c, 1, 66, 107
3, 63576, Note_on_c, 1, 66, 0
3, 63600, Note_on_c, 1, 54, 107
3, 63696, Note_on_c, 1, 54, 0
3, 63720, Note_on_c, 1, 56, 107
3, 63816, Note_on_c, 1, 56, 0
3, 63840, Note_on_c, 1, 57, 107
3, 63936, Note_on_c, 1, 57, 0
3, 63960, Note_on_c, 1, 59, 107
3, 64056, Note_on_c, 1, 59, 0
3, 64080, Note_on_c, 1, 61, 107
3, 64176, Note_on_c, 1, 61, 0
3, 64200, Note_on_c, 1, 63, 107
3, 64296, Note_on_c, 1, 63, 0
3, 64320, Note_on_c, 1, 64, 107
3, 64416, Note_on_c, 1, 64, 0
3, 64440, Note_on_c, 1, 66, 107
3, 64536, Note_on_c, 1, 66, 0
3, 64560, Note_on_c, 1, 66, 107
3, 64584, Note_on_c, 1, 66, 0
3, 64590, Note_on_c, 1, 67, 107
3, 64614, Note_on_c, 1, 67, 0
3, 64620, Note_on_c, 1, 66, 107
3, 64668, Note_on_c, 1, 66, 0
3, 64680, Note_on_c, 1, 64, 107
3, 64776, Note_on_c, 1, 64, 0
3, 64800, Note_on_c, 1, 66, 107
3, 64896, Note_on_c, 1, 66, 0
3, 64920, Note_on_c, 1, 67, 107
3, 65016, Note_on_c, 1, 67, 0
3, 65040, Note_on_c, 1, 57, 107
3, 65136, Note_on_c, 1, 57, 0
3, 65160, Note_on_c, 1, 59, 107
3, 65256, Note_on_c, 1, 59, 0
3, 65280, Note_on_c, 1, 61, 107
3, 65376, Note_on_c, 1, 61, 0
3, 65400, Note_on_c, 1, 63, 107
3, 65496, Note_on_c, 1, 63, 0
3, 65520, Note_on_c, 1, 64, 107
3, 65616, Note_on_c, 1, 64, 0
3, 65640, Note_on_c, 1, 66, 107
3, 65736, Note_on_c, 1, 66, 0
3, 65760, Note_on_c, 1, 55, 107
3, 65856, Note_on_c, 1, 55, 0
3, 65880, Note_on_c, 1, 57, 107
3, 65976, Note_on_c, 1, 57, 0
3, 66000, Note_on_c, 1, 59, 107
3, 66096, Note_on_c, 1, 59, 0
3, 66120, Note_on_c, 1, 61, 107
3, 66216, Note_on_c, 1, 61, 0
3, 66240, Note_on_c, 1, 63, 107
3, 66336, Note_on_c, 1, 63, 0
3, 66360, Note_on_c, 1, 64, 107
3, 66552, Note_on_c, 1, 64, 0
3, 66600, Note_on_c, 1, 57, 107
3, 66696, Note_on_c, 1, 57, 0
3, 66720, Note_on_c, 1, 59, 107
3, 66912, Note_on_c, 1, 59, 0
3, 66960, Note_on_c, 1, 47, 107
3, 67056, Note_on_c, 1, 47, 0
3, 67080, Note_on_c, 1, 52, 107
3, 67176, Note_on_c, 1, 52, 0
3, 67200, Note_on_c, 1, 54, 107
3, 67296, Note_on_c, 1, 54, 0
3, 67320, Note_on_c, 1, 55, 107
3, 67416, Note_on_c, 1, 55, 0
3, 67440, Note_on_c, 1, 55, 107
3, 67536, Note_on_c, 1, 55, 0
3, 67560, Note_on_c, 1, 57, 107
3, 67656, Note_on_c, 1, 57, 0
3, 67680, Note_on_c, 1, 58, 107
3, 67776, Note_on_c, 1, 58, 0
3, 67800, Note_on_c, 1, 49, 107
3, 68088, Note_on_c, 1, 49, 0
3, 68400, Note_on_c, 1, 45, 107
3, 68496, Note_on_c, 1, 45, 0
3, 68520, Note_on_c, 1, 50, 107
3, 68616, Note_on_c, 1, 50, 0
3, 68640, Note_on_c, 1, 53, 107
3, 68736, Note_on_c, 1, 53, 0
3, 68760, Note_on_c, 1, 57, 107
3, 68856, Note_on_c, 1, 57, 0
3, 68880, Note_on_c, 1, 62, 107
3, 69072, Note_on_c, 1, 62, 0
3, 69120, Note_on_c, 1, 48, 107
3, 69216, Note_on_c, 1, 48, 0
3, 69240, Note_on_c, 1, 47, 107
3, 69528, Note_on_c, 1, 47, 0
3, 69840, Note_on_c, 1, 43, 107
3, 69936, Note_on_c, 1, 43, 0
3, 69960, Note_on_c, 1, 48, 107
3, 70056, Note_on_c, 1, 48, 0
3, 70080, Note_on_c, 1, 52, 107
3, 70176, Note_on_c, 1, 52, 0
3, 70200, Note_on_c, 1, 55, 107
3, 70296, Note_on_c, 1, 55, 0
3, 70320, Note_on_c, 1, 60, 107
3, 70512, Note_on_c, 1, 60, 0
3, 70560, Note_on_c, 1, 47, 107
3, 70656, Note_on_c, 1, 47, 0
3, 70680, Note_on_c, 1, 45, 107
3, 70968, Note_on_c, 1, 45, 0
3, 71040, Note_on_c, 1, 57, 107
3, 71688, Note_on_c, 1, 57, 0
3, 71760, Note_on_c, 1, 56, 107
3, 72048, Note_on_c, 1, 56, 0
3, 72120, Note_on_c, 1, 57, 107
3, 72408, Note_on_c, 1, 57, 0
3, 72480, Note_on_c, 1, 53, 107
3, 72768, Note_on_c, 1, 53, 0
3, 72840, Note_on_c, 1, 52, 107
3, 73128, Note_on_c, 1, 52, 0
3, 73200, Note_on_c, 1, 40, 107
3, 73296, Note_on_c, 1, 40, 0
3, 73320, Note_on_c, 1, 42, 107
3, 73416, Note_on_c, 1, 42, 0
3, 73440, Note_on_c, 1, 44, 107
3, 73536, Note_on_c, 1, 44, 0
3, 73560, Note_on_c, 1, 45, 107
3, 73656, Note_on_c, 1, 45, 0
3, 73680, Note_on_c, 1, 47, 107
3, 73776, Note_on_c, 1, 47, 0
3, 73800, Note_on_c, 1, 48, 107
3, 73896, Note_on_c, 1, 48, 0
3, 73920, Note_on_c, 1, 44, 107
3, 74016, Note_on_c, 1, 44, 0
3, 74040, Note_on_c, 1, 45, 107
3, 74136, Note_on_c, 1, 45, 0
3, 74160, Note_on_c, 1, 47, 107
3, 74256, Note_on_c, 1, 47, 0
3, 74280, Note_on_c, 1, 48, 107
3, 74376, Note_on_c, 1, 48, 0
3, 74400, Note_on_c, 1, 50, 107
3, 74496, Note_on_c, 1, 50, 0
3, 74520, Note_on_c, 1, 52, 107
3, 74616, Note_on_c, 1, 52, 0
3, 74640, Note_on_c, 1, 52, 107
3, 74736, Note_on_c, 1, 52, 0
3, 74760, Note_on_c, 1, 54, 107
3, 74856, Note_on_c, 1, 54, 0
3, 74880, Note_on_c, 1, 56, 107
3, 74976, Note_on_c, 1, 56, 0
3, 75000, Note_on_c, 1, 57, 107
3, 75096, Note_on_c, 1, 57, 0
3, 75120, Note_on_c, 1, 59, 107
3, 75216, Note_on_c, 1, 59, 0
3, 75240, Note_on_c, 1, 60, 107
3, 75336, Note_on_c, 1, 60, 0
3, 75360, Note_on_c, 1, 56, 107
3, 75456, Note_on_c, 1, 56, 0
3, 75480, Note_on_c, 1, 57, 107
3, 75576, Note_on_c, 1, 57, 0
3, 75600, Note_on_c, 1, 59, 107
3, 75696, Note_on_c, 1, 59, 0
3, 75720, Note_on_c, 1, 60, 107
3, 75816, Note_on_c, 1, 60, 0
3, 75840, Note_on_c, 1, 62, 107
3, 75936, Note_on_c, 1, 62, 0
3, 75960, Note_on_c, 1, 64, 107
3, 76056, Note_on_c, 1, 64, 0
3, 76080, Note_on_c, 1, 64, 107
3, 76176, Note_on_c, 1, 64, 0
3, 76200, Note_on_c, 1, 66, 107
3, 76296, Note_on_c, 1, 66, 0
3, 76320, Note_on_c, 1, 68, 107
3, 76416, Note_on_c, 1, 68, 0
3, 76440, Note_on_c, 1, 69, 107
3, 76632, Note_on_c, 1, 69, 0
3, 76680, Note_on_c, 1, 62, 107
3, 76776, Note_on_c, 1, 62, 0
3, 76800, Note_on_c, 1, 64, 107
3, 76992, Note_on_c, 1, 64, 0
3, 77040, Note_on_c, 1, 52, 107
3, 77136, Note_on_c, 1, 52, 0
3, 77160, Note_on_c, 1, 57, 107
3, 77448, Note_on_c, 1, 57, 0
3, 77520, Note_on_c, 1, 57, 107
3, 77616, Note_on_c, 1, 57, 0
3, 77640, Note_on_c, 1, 55, 107
3, 77736, Note_on_c, 1, 55, 0
3, 77760, Note_on_c, 1, 53, 107
3, 77856, Note_on_c, 1, 53, 0
3, 77880, Note_on_c, 1, 52, 107
3, 77976, Note_on_c, 1, 52, 0
3, 78000, Note_on_c, 1, 53, 107
3, 78096, Note_on_c, 1, 53, 0
3, 78120, Note_on_c, 1, 55, 107
3, 78216, Note_on_c, 1, 55, 0
3, 78240, Note_on_c, 1, 48, 107
3, 78528, Note_on_c, 1, 48, 0
3, 78888, Note_on_c, 1, 48, 64
3, 78888, Note_on_c, 1, 48, 0
3, 78960, Note_on_c, 1, 47, 107
3, 79248, Note_on_c, 1, 47, 0
3, 79320, Note_on_c, 1, 48, 107
3, 79608, Note_on_c, 1, 48, 0
3, 79680, Note_on_c, 1, 41, 107
3, 79968, Note_on_c, 1, 41, 0
3, 80040, Note_on_c, 1, 43, 107
3, 80496, Note_on_c, 1, 43, 0
3, 80520, Note_on_c, 1, 45, 107
3, 80616, Note_on_c, 1, 45, 0
3, 80640, Note_on_c, 1, 47, 107
3, 80736, Note_on_c, 1, 47, 0
3, 80760, Note_on_c, 1, 48, 107
3, 80856, Note_on_c, 1, 48, 0
3, 80880, Note_on_c, 1, 50, 107
3, 80976, Note_on_c, 1, 50, 0
3, 81000, Note_on_c, 1, 52, 107
3, 81096, Note_on_c, 1, 52, 0
3, 81120, Note_on_c, 1, 54, 107
3, 81216, Note_on_c, 1, 54, 0
3, 81240, Note_on_c, 1, 55, 107
3, 81336, Note_on_c, 1, 55, 0
3, 81360, Note_on_c, 1, 57, 107
3, 81456, Note_on_c, 1, 57, 0
3, 81480, Note_on_c, 1, 47, 107
3, 81576, Note_on_c, 1, 47, 0
3, 81600, Note_on_c, 1, 59, 107
3, 81696, Note_on_c, 1, 59, 0
3, 81720, Note_on_c, 1, 57, 107
3, 81816, Note_on_c, 1, 57, 0
3, 81840, Note_on_c, 1, 56, 107
3, 81936, Note_on_c, 1, 56, 0
3, 81960, Note_on_c, 1, 57, 107
3, 82056, Note_on_c, 1, 57, 0
3, 82080, Note_on_c, 1, 54, 107
3, 82176, Note_on_c, 1, 54, 0
3, 82200, Note_on_c, 1, 56, 107
3, 82296, Note_on_c, 1, 56, 0
3, 82320, Note_on_c, 1, 54, 107
3, 82416, Note_on_c, 1, 54, 0
3, 82440, Note_on_c, 1, 52, 107
3, 82536, Note_on_c, 1, 52, 0
3, 82560, Note_on_c, 1, 50, 107
3, 82656, Note_on_c, 1, 50, 0
3, 82680, Note_on_c, 1, 48, 107
3, 82776, Note_on_c, 1, 48, 0
3, 82800, Note_on_c, 1, 47, 107
3, 82896, Note_on_c, 1, 47, 0
3, 82920, Note_on_c, 1, 45, 107
3, 83016, Note_on_c, 1, 45, 0
3, 83040, Note_on_c, 1, 57, 107
3, 83136, Note_on_c, 1, 57, 0
3, 83160, Note_on_c, 1, 55, 107
3, 83256, Note_on_c, 1, 55, 0
3, 83280, Note_on_c, 1, 54, 107
3, 83376, Note_on_c, 1, 54, 0
3, 83400, Note_on_c, 1, 55, 107
3, 83496, Note_on_c, 1, 55, 0
3, 83520, Note_on_c, 1, 52, 107
3, 83616, Note_on_c, 1, 52, 0
3, 83640, Note_on_c, 1, 54, 107
3, 83736, Note_on_c, 1, 54, 0
3, 83760, Note_on_c, 1, 52, 107
3, 83856, Note_on_c, 1, 52, 0
3, 83880, Note_on_c, 1, 50, 107
3, 83976, Note_on_c, 1, 50, 0
3, 84000, Note_on_c, 1, 48, 107
3, 84096, Note_on_c, 1, 48, 0
3, 84120, Note_on_c, 1, 47, 107
3, 84216, Note_on_c, 1, 47, 0
3, 84240, Note_on_c, 1, 45, 107
3, 84336, Note_on_c, 1, 45, 0
3, 84360, Note_on_c, 1, 43, 107
3, 84456, Note_on_c, 1, 43, 0
3, 84480, Note_on_c, 1, 55, 107
3, 84576, Note_on_c, 1, 55, 0
3, 84600, Note_on_c, 1, 54, 107
3, 84696, Note_on_c, 1, 54, 0
3, 84720, Note_on_c, 1, 52, 107
3, 84816, Note_on_c, 1, 52, 0
3, 84840, Note_on_c, 1, 51, 107
3, 84936, Note_on_c, 1, 51, 0
3, 84960, Note_on_c, 1, 52, 107
3, 85056, Note_on_c, 1, 52, 0
3, 85080, Note_on_c, 1, 42, 107
3, 85176, Note_on_c, 1, 42, 0
3, 85200, Note_on_c, 1, 54, 107
3, 85296, Note_on_c, 1, 54, 0
3, 85320, Note_on_c, 1, 52, 107
3, 85416, Note_on_c, 1, 52, 0
3, 85440, Note_on_c, 1, 51, 107
3, 85536, Note_on_c, 1, 51, 0
3, 85560, Note_on_c, 1, 49, 107
3, 85656, Note_on_c, 1, 49, 0
3, 85680, Note_on_c, 1, 51, 107
3, 85776, Note_on_c, 1, 51, 0
3, 85800, Note_on_c, 1, 40, 107
3, 85896, Note_on_c, 1, 40, 0
3, 85920, Note_on_c, 1, 52, 107
3, 86016, Note_on_c, 1, 52, 0
3, 86040, Note_on_c, 1, 50, 107
3, 86136, Note_on_c, 1, 50, 0
3, 86160, Note_on_c, 1, 48, 107
3, 86256, Note_on_c, 1, 48, 0
3, 86280, Note_on_c, 1, 47, 107
3, 86376, Note_on_c, 1, 47, 0
3, 86400, Note_on_c, 1, 45, 107
3, 86496, Note_on_c, 1, 45, 0
3, 86520, Note_on_c, 1, 47, 107
3, 86976, Note_on_c, 1, 47, 0
3, 87000, Note_on_c, 1, 49, 107
3, 87096, Note_on_c, 1, 49, 0
3, 87120, Note_on_c, 1, 51, 107
3, 87216, Note_on_c, 1, 51, 0
3, 87240, Note_on_c, 1, 52, 107
3, 87336, Note_on_c, 1, 52, 0
3, 87360, Note_on_c, 1, 54, 107
3, 87456, Note_on_c, 1, 54, 0
3, 87480, Note_on_c, 1, 55, 107
3, 87576, Note_on_c, 1, 55, 0
3, 87600, Note_on_c, 1, 48, 107
3, 87696, Note_on_c, 1, 48, 0
3, 87720, Note_on_c, 1, 50, 107
3, 87816, Note_on_c, 1, 50, 0
3, 87840, Note_on_c, 1, 52, 107
3, 87936, Note_on_c, 1, 52, 0
3, 87960, Note_on_c, 1, 54, 107
3, 88056, Note_on_c, 1, 54, 0
3, 88080, Note_on_c, 1, 55, 107
3, 88176, Note_on_c, 1, 55, 0
3, 88200, Note_on_c, 1, 57, 107
3, 88296, Note_on_c, 1, 57, 0
3, 88320, Note_on_c, 1, 50, 107
3, 88416, Note_on_c, 1, 50, 0
3, 88440, Note_on_c, 1, 52, 107
3, 88536, Note_on_c, 1, 52, 0
3, 88560, Note_on_c, 1, 54, 107
3, 88656, Note_on_c, 1, 54, 0
3, 88680, Note_on_c, 1, 55, 107
3, 88776, Note_on_c, 1, 55, 0
3, 88800, Note_on_c, 1, 57, 107
3, 88896, Note_on_c, 1, 57, 0
3, 88920, Note_on_c, 1, 59, 107
3, 89016, Note_on_c, 1, 59, 0
3, 89040, Note_on_c, 1, 52, 107
3, 89136, Note_on_c, 1, 52, 0
3, 89160, Note_on_c, 1, 54, 107
3, 89256, Note_on_c, 1, 54, 0
3, 89280, Note_on_c, 1, 55, 107
3, 89376, Note_on_c, 1, 55, 0
3, 89400, Note_on_c, 1, 57, 107
3, 89496, Note_on_c, 1, 57, 0
3, 89520, Note_on_c, 1, 59, 107
3, 89616, Note_on_c, 1, 59, 0
3, 89640, Note_on_c, 1, 60, 107
3, 89736, Note_on_c, 1, 60, 0
3, 89760, Note_on_c, 1, 54, 107
3, 89856, Note_on_c, 1, 54, 0
3, 89880, Note_on_c, 1, 55, 107
3, 89976, Note_on_c, 1, 55, 0
3, 90000, Note_on_c, 1, 57, 107
3, 90096, Note_on_c, 1, 57, 0
3, 90120, Note_on_c, 1, 59, 107
3, 90216, Note_on_c, 1, 59, 0
3, 90240, Note_on_c, 1, 61, 107
3, 90336, Note_on_c, 1, 61, 0
3, 90360, Note_on_c, 1, 63, 107
3, 90456, Note_on_c, 1, 63, 0
3, 90480, Note_on_c, 1, 63, 107
3, 90504, Note_on_c, 1, 63, 0
3, 90510, Note_on_c, 1, 64, 107
3, 90534, Note_on_c, 1, 64, 0
3, 90540, Note_on_c, 1, 63, 107
3, 90588, Note_on_c, 1, 63, 0
3, 90600, Note_on_c, 1, 61, 107
3, 90696, Note_on_c, 1, 61, 0
3, 90720, Note_on_c, 1, 63, 107
3, 90816, Note_on_c, 1, 63, 0
3, 90840, Note_on_c, 1, 64, 107
3, 90936, Note_on_c, 1, 64, 0
3, 90960, Note_on_c, 1, 52, 107
3, 91056, Note_on_c, 1, 52, 0
3, 91080, Note_on_c, 1, 54, 107
3, 91176, Note_on_c, 1, 54, 0
3, 91200, Note_on_c, 1, 56, 107
3, 91296, Note_on_c, 1, 56, 0
3, 91320, Note_on_c, 1, 57, 107
3, 91416, Note_on_c, 1, 57, 0
3, 91440, Note_on_c, 1, 59, 107
3, 91536, Note_on_c, 1, 59, 0
3, 91560, Note_on_c, 1, 61, 107
3, 91656, Note_on_c, 1, 61, 0
3, 91680, Note_on_c, 1, 63, 107
3, 91776, Note_on_c, 1, 63, 0
3, 91800, Note_on_c, 1, 64, 107
3, 91896, Note_on_c, 1, 64, 0
3, 91920, Note_on_c, 1, 64, 107
3, 91944, Note_on_c, 1, 64, 0
3, 91950, Note_on_c, 1, 65, 107
3, 91974, Note_on_c, 1, 65, 0
3, 91980, Note_on_c, 1, 64, 107
3, 92028, Note_on_c, 1, 64, 0
3, 92040, Note_on_c, 1, 62, 107
3, 92153, Note_on_c, 1, 62, 0
3, 92160, Note_on_c, 1, 64, 107
3, 92273, Note_on_c, 1, 64, 0
3, 92280, Note_on_c, 1, 66, 107
3, 92376, Note_on_c, 1, 66, 0
3, 92400, Note_on_c, 1, 54, 107
3, 92496, Note_on_c, 1, 54, 0
3, 92520, Note_on_c, 1, 56, 107
3, 92616, Note_on_c, 1, 56, 0
3, 92640, Note_on_c, 1, 57, 107
3, 92736, Note_on_c, 1, 57, 0
3, 92760, Note_on_c, 1, 59, 107
3, 92856, Note_on_c, 1, 59, 0
3, 92880, Note_on_c, 1, 61, 107
3, 92976, Note_on_c, 1, 61, 0
3, 93000, Note_on_c, 1, 63, 107
3, 93096, Note_on_c, 1, 63, 0
3, 93120, Note_on_c, 1, 64, 107
3, 93216, Note_on_c, 1, 64, 0
3, 93240, Note_on_c, 1, 66, 107
3, 93336, Note_on_c, 1, 66, 0
3, 93360, Note_on_c, 1, 66, 107
3, 93384, Note_on_c, 1, 66, 0
3, 93390, Note_on_c, 1, 67, 107
3, 93414, Note_on_c, 1, 67, 0
3, 93420, Note_on_c, 1, 66, 107
3, 93468, Note_on_c, 1, 66, 0
3, 93480, Note_on_c, 1, 64, 107
3, 93576, Note_on_c, 1, 64, 0
3, 93600, Note_on_c, 1, 66, 107
3, 93696, Note_on_c, 1, 66, 0
3, 93720, Note_on_c, 1, 67, 107
3, 93816, Note_on_c, 1, 67, 0
3, 93840, Note_on_c, 1, 57, 107
3, 93936, Note_on_c, 1, 57, 0
3, 93960, Note_on_c, 1, 59, 107
3, 94056, Note_on_c, 1, 59, 0
3, 94080, Note_on_c, 1, 61, 107
3, 94176, Note_on_c, 1, 61, 0
3, 94200, Note_on_c, 1, 63, 107
3, 94296, Note_on_c, 1, 63, 0
3, 94320, Note_on_c, 1, 64, 107
3, 94416, Note_on_c, 1, 64, 0
3, 94440, Note_on_c, 1, 66, 107
3, 94536, Note_on_c, 1, 66, 0
3, 94560, Note_on_c, 1, 55, 107
3, 94656, Note_on_c, 1, 55, 0
3, 94680, Note_on_c, 1, 57, 107
3, 94776, Note_on_c, 1, 57, 0
3, 94800, Note_on_c, 1, 59, 107
3, 94896, Note_on_c, 1, 59, 0
3, 94920, Note_on_c, 1, 61, 107
3, 95016, Note_on_c, 1, 61, 0
3, 95040, Note_on_c, 1, 63, 107
3, 95136, Note_on_c, 1, 63, 0
3, 95160, Note_on_c, 1, 64, 107
3, 95352, Note_on_c, 1, 64, 0
3, 95400, Note_on_c, 1, 57, 107
3, 95496, Note_on_c, 1, 57, 0
3, 95520, Note_on_c, 1, 59, 107
3, 95712, Note_on_c, 1, 59, 0
3, 95760, Note_on_c, 1, 47, 107
3, 95856, Note_on_c, 1, 47, 0
3, 95880, Note_on_c, 1, 52, 107
3, 95976, Note_on_c, 1, 52, 0
3, 96000, Note_on_c, 1, 54, 107
3, 96096, Note_on_c, 1, 54, 0
3, 96120, Note_on_c, 1, 55, 107
3, 96216, Note_on_c, 1, 55, 0
3, 96240, Note_on_c, 1, 55, 107
3, 96336, Note_on_c, 1, 55, 0
3, 96360, Note_on_c, 1, 57, 107
3, 96456, Note_on_c, 1, 57, 0
3, 96480, Note_on_c, 1, 58, 107
3, 96576, Note_on_c, 1, 58, 0
3, 96600, Note_on_c, 1, 49, 107
3, 96888, Note_on_c, 1, 49, 0
3, 97200, Note_on_c, 1, 45, 107
3, 97296, Note_on_c, 1, 45, 0
3, 97320, Note_on_c, 1, 50, 107
3, 97416, Note_on_c, 1, 50, 0
3, 97440, Note_on_c, 1, 53, 107
3, 97536, Note_on_c, 1, 53, 0
3, 97560, Note_on_c, 1, 57, 107
3, 97656, Note_on_c, 1, 57, 0
3, 97680, Note_on_c, 1, 62, 107
3, 97872, Note_on_c, 1, 62, 0
3, 97920, Note_on_c, 1, 48, 107
3, 98016, Note_on_c, 1, 48, 0
3, 98040, Note_on_c, 1, 47, 107
3, 98328, Note_on_c, 1, 47, 0
3, 98640, Note_on_c, 1, 43, 107
3, 98736, Note_on_c, 1, 43, 0
3, 98760, Note_on_c, 1, 48, 107
3, 98856, Note_on_c, 1, 48, 0
3, 98880, Note_on_c, 1, 52, 107
3, 98976, Note_on_c, 1, 52, 0
3, 99000, Note_on_c, 1, 55, 107
3, 99096, Note_on_c, 1, 55, 0
3, 99120, Note_on_c, 1, 60, 107
3, 99312, Note_on_c, 1, 60, 0
3, 99360, Note_on_c, 1, 47, 107
3, 99456, Note_on_c, 1, 47, 0
3, 99480, Note_on_c, 1, 45, 107
3, 99768, Note_on_c, 1, 45, 0
3, 99840, Note_on_c, 1, 57, 107
3, 100488, Note_on_c, 1, 57, 0
3, 100560, Note_on_c, 1, 56, 107
3, 100848, Note_on_c, 1, 56, 0
3, 100920, Note_on_c, 1, 57, 107
3, 101208, Note_on_c, 1, 57, 0
3, 101280, Note_on_c, 1, 53, 107
3, 101568, Note_on_c, 1, 53, 0
3, 101640, Note_on_c, 1, 52, 107
3, 101928, Note_on_c, 1, 52, 0
3, 102000, Note_on_c, 1, 40, 107
3, 102096, Note_on_c, 1, 40, 0
3, 102120, Note_on_c, 1, 42, 107
3, 102216, Note_on_c, 1, 42, 0
3, 102240, Note_on_c, 1, 44, 107
3, 102336, Note_on_c, 1, 44, 0
3, 102360, Note_on_c, 1, 45, 107
3, 102456, Note_on_c, 1, 45, 0
3, 102480, Note_on_c, 1, 47, 107
3, 102576, Note_on_c, 1, 47, 0
3, 102600, Note_on_c, 1, 48, 107
3, 102696, Note_on_c, 1, 48, 0
3, 102720, Note_on_c, 1, 44, 107
3, 102816, Note_on_c, 1, 44, 0
3, 102840, Note_on_c, 1, 45, 107
3, 102936, Note_on_c, 1, 45, 0
3, 102960, Note_on_c, 1, 47, 107
3, 103056, Note_on_c, 1, 47, 0
3, 103080, Note_on_c, 1, 48, 107
3, 103176, Note_on_c, 1, 48, 0
3, 103200, Note_on_c, 1, 50, 107
3, 103296, Note_on_c, 1, 50, 0
3, 103320, Note_on_c, 1, 52, 107
3, 103416, Note_on_c, 1, 52, 0
3, 103440, Note_on_c, 1, 52, 107
3, 103536, Note_on_c, 1, 52, 0
3, 103560, Note_on_c, 1, 54, 107
3, 103656, Note_on_c, 1, 54, 0
3, 103680, Note_on_c, 1, 56, 107
3, 103776, Note_on_c, 1, 56, 0
3, 103800, Note_on_c, 1, 57, 107
3, 103896, Note_on_c, 1, 57, 0
3, 103920, Note_on_c, 1, 59, 107
3, 104016, Note_on_c, 1, 59, 0
3, 104040, Note_on_c, 1, 60, 107
3, 104136, Note_on_c, 1, 60, 0
3, 104160, Note_on_c, 1, 56, 107
3, 104256, Note_on_c, 1, 56, 0
3, 104280, Note_on_c, 1, 57, 107
3, 104376, Note_on_c, 1, 57, 0
3, 104400, Note_on_c, 1, 59, 107
3, 104496, Note_on_c, 1, 59, 0
3, 104520, Note_on_c, 1, 60, 107
3, 104616, Note_on_c, 1, 60, 0
3, 104640, Note_on_c, 1, 62, 107
3, 104736, Note_on_c, 1, 62, 0
3, 104760, Note_on_c, 1, 64, 107
3, 104856, Note_on_c, 1, 64, 0
3, 104880, Note_on_c, 1, 64, 107
3, 104976, Note_on_c, 1, 64, 0
3, 105000, Note_on_c, 1, 66, 107
3, 105096, Note_on_c, 1, 66, 0
3, 105120, Note_on_c, 1, 68, 107
3, 105216, Note_on_c, 1, 68, 0
3, 105240, Note_on_c, 1, 69, 107
3, 105432, Note_on_c, 1, 69, 0
3, 105480, Note_on_c, 1, 62, 107
3, 105576, Note_on_c, 1, 62, 0
3, 105600, Note_on_c, 1, 64, 107
3, 105792, Note_on_c, 1, 64, 0
3, 105840, Note_on_c, 1, 52, 107
3, 105936, Note_on_c, 1, 52, 0
3, 105960, Note_on_c, 1, 45, 107
3, 106488, Note_on_c, 1, 45, 0
3, 106488, End_track
4, 0, Start_track
4, 0, MIDI_port, 0
4, 0, Title_t, "Arr. Gary Bricault, (c) 1997"
4, 0, End_track
0, 0, End_of_file
