0, 0, Header, 1, 4, 240
1, 0, Start_track
1, 0, Time_signature, 3, 3, 36, 8
1, 0, Tempo, 526316
1, 17280, Time_signature, 3, 3, 36, 8
1, 17280, End_track
2, 0, Start_track
2, 0, Title_t, "English Suite 5, 7. Gigue"
2, 0, Program_c, 0, 0
2, 0, Note_on_c, 0, 71, 107
2, 48, Note_off_c, 0, 71, 64
2, 60, Note_on_c, 0, 72, 107
2, 108, Note_off_c, 0, 72, 64
2, 120, Note_on_c, 0, 71, 107
2, 168, Note_off_c, 0, 71, 64
2, 180, Note_on_c, 0, 69, 107
2, 228, Note_off_c, 0, 69, 64
2, 240, Note_on_c, 0, 67, 107
2, 288, Note_off_c, 0, 67, 64
2, 300, Note_on_c, 0, 66, 107
2, 348, Note_off_c, 0, 66, 64
2, 360, Note_on_c, 0, 64, 107
2, 450, Note_off_c, 0, 64, 64
2, 480, Note_on_c, 0, 76, 107
2, 576, Note_off_c, 0, 76, 64
2, 600, Note_on_c, 0, 75, 107
2, 696, Note_off_c, 0, 75, 64
2, 720, Note_on_c, 0, 64, 107
2, 810, Note_off_c, 0, 64, 64
2, 840, Note_on_c, 0, 74, 107
2, 936, Note_off_c, 0, 74, 64
2, 960, Note_on_c, 0, 73, 107
2, 1056, Note_off_c, 0, 73, 64
2, 1080, Note_on_c, 0, 64, 107
2, 1170, Note_off_c, 0, 64, 64
2, 1200, Note_on_c, 0, 72, 107
2, 1296, Note_off_c, 0, 72, 64
2, 1320, Note_on_c, 0, 71, 107
2, 1416, Note_off_c, 0, 71, 64
2, 1440, Note_on_c, 0, 70, 107
2, 1440, Note_on_c, 0, 64, 107
2, 1488, Note_off_c, 0, 64, 64
2, 1500, Note_on_c, 0, 67, 107
2, 1536, Note_off_c, 0, 70, 64
2, 1548, Note_off_c, 0, 67, 64
2, 1560, Note_on_c, 0, 71, 107
2, 1560, Note_on_c, 0, 66, 107
2, 1608, Note_off_c, 0, 66, 64
2, 1620, Note_on_c, 0, 64, 107
2, 1656, Note_off_c, 0, 71, 64
2, 1668, Note_off_c, 0, 64, 64
2, 1680, Note_on_c, 0, 73, 107
2, 1680, Note_on_c, 0, 62, 107
2, 1728, Note_off_c, 0, 62, 64
2, 1740, Note_on_c, 0, 61, 107
2, 1776, Note_off_c, 0, 73, 64
2, 1788, Note_off_c, 0, 61, 64
2, 1800, Note_on_c, 0, 74, 107
2, 1800, Note_on_c, 0, 59, 107
2, 1848, Note_off_c, 0, 74, 64
2, 1860, Note_on_c, 0, 79, 107
2, 1896, Note_off_c, 0, 59, 64
2, 1908, Note_off_c, 0, 79, 64
2, 1920, Note_on_c, 0, 77, 107
2, 1920, Note_on_c, 0, 71, 107
2, 1968, Note_off_c, 0, 77, 64
2, 1980, Note_on_c, 0, 73, 107
2, 2016, Note_off_c, 0, 71, 64
2, 2028, Note_off_c, 0, 73, 64
2, 2040, Note_on_c, 0, 70, 107
2, 2040, Note_on_c, 0, 78, 107
2, 2088, Note_off_c, 0, 78, 64
2, 2100, Note_on_c, 0, 76, 107
2, 2136, Note_off_c, 0, 70, 64
2, 2148, Note_off_c, 0, 76, 64
2, 2160, Note_on_c, 0, 75, 107
2, 2160, Note_on_c, 0, 59, 107
2, 2208, Note_off_c, 0, 75, 64
2, 2220, Note_on_c, 0, 78, 107
2, 2256, Note_off_c, 0, 59, 64
2, 2268, Note_off_c, 0, 78, 64
2, 2280, Note_on_c, 0, 75, 107
2, 2280, Note_on_c, 0, 69, 107
2, 2328, Note_off_c, 0, 75, 64
2, 2340, Note_on_c, 0, 71, 107
2, 2376, Note_off_c, 0, 69, 64
2, 2388, Note_off_c, 0, 71, 64
2, 2400, Note_on_c, 0, 68, 107
2, 2400, Note_on_c, 0, 76, 107
2, 2448, Note_off_c, 0, 76, 64
2, 2460, Note_on_c, 0, 74, 107
2, 2496, Note_off_c, 0, 68, 64
2, 2508, Note_off_c, 0, 74, 64
2, 2520, Note_on_c, 0, 73, 107
2, 2520, Note_on_c, 0, 59, 107
2, 2568, Note_off_c, 0, 73, 64
2, 2580, Note_on_c, 0, 76, 107
2, 2616, Note_off_c, 0, 59, 64
2, 2628, Note_off_c, 0, 76, 64
2, 2640, Note_on_c, 0, 73, 107
2, 2640, Note_on_c, 0, 67, 107
2, 2688, Note_off_c, 0, 73, 64
2, 2700, Note_on_c, 0, 70, 107
2, 2736, Note_off_c, 0, 67, 64
2, 2748, Note_off_c, 0, 70, 64
2, 2760, Note_on_c, 0, 66, 107
2, 2760, Note_on_c, 0, 74, 107
2, 2808, Note_off_c, 0, 74, 64
2, 2820, Note_on_c, 0, 71, 107
2, 2856, Note_off_c, 0, 66, 64
2, 2868, Note_off_c, 0, 71, 64
2, 2880, Note_on_c, 0, 64, 107
2, 2880, Note_on_c, 0, 72, 107
2, 2928, Note_off_c, 0, 64, 64
2, 2940, Note_on_c, 0, 69, 107
2, 2976, Note_off_c, 0, 72, 64
2, 2988, Note_off_c, 0, 69, 64
2, 3000, Note_on_c, 0, 66, 107
2, 3000, Note_on_c, 0, 81, 107
2, 3048, Note_off_c, 0, 66, 64
2, 3060, Note_on_c, 0, 62, 107
2, 3096, Note_off_c, 0, 81, 64
2, 3108, Note_off_c, 0, 62, 64
2, 3120, Note_on_c, 0, 71, 107
2, 3120, Note_on_c, 0, 67, 107
2, 3168, Note_off_c, 0, 67, 64
2, 3180, Note_on_c, 0, 66, 107
2, 3228, Note_off_c, 0, 66, 64
2, 3240, Note_on_c, 0, 64, 107
2, 3288, Note_off_c, 0, 64, 64
2, 3300, Note_on_c, 0, 67, 107
2, 3336, Note_off_c, 0, 71, 64
2, 3348, Note_off_c, 0, 67, 64
2, 3360, Note_on_c, 0, 79, 107
2, 3360, Note_on_c, 0, 64, 107
2, 3408, Note_off_c, 0, 64, 64
2, 3420, Note_on_c, 0, 61, 107
2, 3456, Note_off_c, 0, 79, 64
2, 3468, Note_off_c, 0, 61, 64
2, 3480, Note_on_c, 0, 69, 107
2, 3480, Note_on_c, 0, 66, 107
2, 3528, Note_off_c, 0, 66, 64
2, 3540, Note_on_c, 0, 64, 107
2, 3588, Note_off_c, 0, 64, 64
2, 3600, Note_on_c, 0, 63, 107
2, 3648, Note_off_c, 0, 63, 64
2, 3660, Note_on_c, 0, 66, 107
2, 3696, Note_off_c, 0, 69, 64
2, 3708, Note_off_c, 0, 66, 64
2, 3720, Note_on_c, 0, 78, 107
2, 3720, Note_on_c, 0, 63, 107
2, 3768, Note_off_c, 0, 63, 64
2, 3780, Note_on_c, 0, 59, 107
2, 3816, Note_off_c, 0, 78, 64
2, 3828, Note_off_c, 0, 59, 64
2, 3840, Note_on_c, 0, 67, 107
2, 3840, Note_on_c, 0, 64, 107
2, 3888, Note_off_c, 0, 64, 64
2, 3900, Note_on_c, 0, 62, 107
2, 3948, Note_off_c, 0, 62, 64
2, 3960, Note_on_c, 0, 60, 107
2, 4008, Note_off_c, 0, 67, 64
2, 4020, Note_on_c, 0, 71, 107
2, 4056, Note_off_c, 0, 60, 64
2, 4068, Note_off_c, 0, 71, 64
2, 4080, Note_on_c, 0, 75, 107
2, 4080, Note_on_c, 0, 71, 107
2, 4128, Note_off_c, 0, 75, 64
2, 4140, Note_on_c, 0, 76, 107
2, 4176, Note_off_c, 0, 71, 64
2, 4200, Note_on_c, 0, 69, 107
2, 4248, Note_off_c, 0, 76, 64
2, 4260, Note_on_c, 0, 78, 107
2, 4296, Note_off_c, 0, 69, 64
2, 4308, Note_off_c, 0, 78, 64
2, 4320, Note_on_c, 0, 75, 107
2, 4320, Note_on_c, 0, 71, 107
2, 4416, Note_off_c, 0, 71, 64
2, 4416, Note_off_c, 0, 75, 64
2, 4440, Note_on_c, 0, 76, 107
2, 4440, Note_on_c, 0, 73, 107
2, 4536, Note_off_c, 0, 73, 64
2, 4536, Note_off_c, 0, 76, 64
2, 4560, Note_on_c, 0, 75, 107
2, 4560, Note_on_c, 0, 78, 107
2, 4656, Note_off_c, 0, 78, 64
2, 4656, Note_off_c, 0, 75, 64
2, 4680, Note_on_c, 0, 76, 107
2, 4680, Note_on_c, 0, 79, 107
2, 4728, Note_off_c, 0, 76, 64
2, 4740, Note_on_c, 0, 72, 107
2, 4776, Note_off_c, 0, 79, 64
2, 4788, Note_off_c, 0, 72, 64
2, 4800, Note_on_c, 0, 70, 107
2, 4800, Note_on_c, 0, 78, 107
2, 4848, Note_off_c, 0, 70, 64
2, 4860, Note_on_c, 0, 66, 107
2, 4896, Note_off_c, 0, 78, 64
2, 4908, Note_off_c, 0, 66, 64
2, 4920, Note_on_c, 0, 71, 107
2, 4968, Note_off_c, 0, 71, 64
2, 4980, Note_on_c, 0, 69, 107
2, 5028, Note_off_c, 0, 69, 64
2, 5040, Note_on_c, 0, 77, 107
2, 5040, Note_on_c, 0, 68, 107
2, 5088, Note_off_c, 0, 68, 64
2, 5100, Note_on_c, 0, 71, 107
2, 5136, Note_off_c, 0, 77, 64
2, 5148, Note_off_c, 0, 71, 64
2, 5160, Note_on_c, 0, 68, 107
2, 5160, Note_on_c, 0, 76, 107
2, 5208, Note_off_c, 0, 68, 64
2, 5220, Note_on_c, 0, 64, 107
2, 5256, Note_off_c, 0, 76, 64
2, 5268, Note_off_c, 0, 64, 64
2, 5280, Note_on_c, 0, 69, 107
2, 5328, Note_off_c, 0, 69, 64
2, 5340, Note_on_c, 0, 67, 107
2, 5388, Note_off_c, 0, 67, 64
2, 5400, Note_on_c, 0, 75, 107
2, 5400, Note_on_c, 0, 66, 107
2, 5448, Note_off_c, 0, 66, 64
2, 5460, Note_on_c, 0, 69, 107
2, 5496, Note_off_c, 0, 75, 64
2, 5508, Note_off_c, 0, 69, 64
2, 5520, Note_on_c, 0, 66, 107
2, 5568, Note_off_c, 0, 66, 64
2, 5580, Note_on_c, 0, 63, 107
2, 5628, Note_off_c, 0, 63, 64
2, 5640, Note_on_c, 0, 67, 107
2, 5640, Note_on_c, 0, 76, 107
2, 5688, Note_off_c, 0, 67, 64
2, 5700, Note_on_c, 0, 64, 107
2, 5748, Note_off_c, 0, 64, 64
2, 5760, Note_on_c, 0, 66, 107
2, 5856, Note_off_c, 0, 76, 64
2, 5856, Note_off_c, 0, 66, 64
2, 5880, Note_on_c, 0, 74, 107
2, 5880, Note_on_c, 0, 65, 107
2, 5976, Note_off_c, 0, 65, 64
2, 6000, Note_on_c, 0, 64, 107
2, 6072, Note_off_c, 0, 74, 64
2, 6120, Note_on_c, 0, 72, 107
2, 6216, Note_off_c, 0, 64, 64
2, 6240, Note_on_c, 0, 64, 107
2, 6336, Note_off_c, 0, 64, 64
2, 6360, Note_on_c, 0, 63, 107
2, 6408, Note_off_c, 0, 72, 64
2, 6480, Note_on_c, 0, 71, 107
2, 6576, Note_off_c, 0, 63, 64
2, 6600, Note_on_c, 0, 62, 107
2, 6696, Note_off_c, 0, 62, 64
2, 6720, Note_on_c, 0, 61, 107
2, 6768, Note_off_c, 0, 71, 64
2, 6816, Note_off_c, 0, 61, 64
2, 6840, Note_on_c, 0, 60, 107
2, 6840, Note_on_c, 0, 69, 107
2, 6888, Note_off_c, 0, 69, 64
2, 6900, Note_on_c, 0, 64, 107
2, 6948, Note_off_c, 0, 64, 64
2, 6960, Note_on_c, 0, 69, 107
2, 7008, Note_off_c, 0, 69, 64
2, 7020, Note_on_c, 0, 72, 107
2, 7032, Note_off_c, 0, 60, 64
2, 7080, Note_on_c, 0, 66, 107
2, 7128, Note_off_c, 0, 72, 64
2, 7140, Note_on_c, 0, 71, 107
2, 7176, Note_off_c, 0, 66, 64
2, 7188, Note_off_c, 0, 71, 64
2, 7200, Note_on_c, 0, 67, 107
2, 7248, Note_off_c, 0, 67, 64
2, 7260, Note_on_c, 0, 71, 107
2, 7308, Note_off_c, 0, 71, 64
2, 7320, Note_on_c, 0, 76, 107
2, 7368, Note_off_c, 0, 76, 64
2, 7380, Note_on_c, 0, 79, 107
2, 7428, Note_off_c, 0, 79, 64
2, 7440, Note_on_c, 0, 78, 107
2, 7488, Note_off_c, 0, 78, 64
2, 7500, Note_on_c, 0, 71, 107
2, 7548, Note_off_c, 0, 71, 64
2, 7560, Note_on_c, 0, 76, 107
2, 7608, Note_off_c, 0, 76, 64
2, 7620, Note_on_c, 0, 72, 107
2, 7668, Note_off_c, 0, 72, 64
2, 7680, Note_on_c, 0, 69, 107
2, 7728, Note_off_c, 0, 69, 64
2, 7740, Note_on_c, 0, 66, 107
2, 7788, Note_off_c, 0, 66, 64
2, 7800, Note_on_c, 0, 67, 107
2, 7848, Note_off_c, 0, 67, 64
2, 7860, Note_on_c, 0, 74, 107
2, 7908, Note_off_c, 0, 74, 64
2, 7920, Note_on_c, 0, 60, 107
2, 7968, Note_off_c, 0, 60, 64
2, 7980, Note_on_c, 0, 66, 107
2, 8028, Note_off_c, 0, 66, 64
2, 8040, Note_on_c, 0, 69, 107
2, 8088, Note_off_c, 0, 69, 64
2, 8100, Note_on_c, 0, 72, 107
2, 8148, Note_off_c, 0, 72, 64
2, 8160, Note_on_c, 0, 71, 107
2, 8208, Note_off_c, 0, 71, 64
2, 8220, Note_on_c, 0, 64, 107
2, 8268, Note_off_c, 0, 64, 64
2, 8280, Note_on_c, 0, 69, 107
2, 8328, Note_off_c, 0, 69, 64
2, 8340, Note_on_c, 0, 66, 107
2, 8388, Note_off_c, 0, 66, 64
2, 8400, Note_on_c, 0, 63, 107
2, 8448, Note_off_c, 0, 63, 64
2, 8460, Note_on_c, 0, 59, 107
2, 8508, Note_off_c, 0, 59, 64
2, 8520, Note_on_c, 0, 60, 107
2, 8568, Note_off_c, 0, 60, 64
2, 8580, Note_on_c, 0, 69, 107
2, 8628, Note_off_c, 0, 69, 64
2, 8640, Note_on_c, 0, 59, 107
2, 8688, Note_off_c, 0, 59, 64
2, 8700, Note_on_c, 0, 63, 107
2, 8748, Note_off_c, 0, 63, 64
2, 8760, Note_on_c, 0, 66, 107
2, 8808, Note_off_c, 0, 66, 64
2, 8820, Note_on_c, 0, 69, 107
2, 8868, Note_off_c, 0, 69, 64
2, 8880, Note_on_c, 0, 67, 107
2, 8928, Note_off_c, 0, 67, 64
2, 8940, Note_on_c, 0, 66, 107
2, 8988, Note_off_c, 0, 66, 64
2, 9000, Note_on_c, 0, 67, 107
2, 9144, Note_off_c, 0, 67, 64
2, 9180, Note_on_c, 0, 66, 107
2, 9228, Note_off_c, 0, 66, 64
2, 9240, Note_on_c, 0, 64, 107
2, 9288, Note_off_c, 0, 64, 64
2, 9300, Note_on_c, 0, 62, 107
2, 9348, Note_off_c, 0, 62, 64
2, 9360, Note_on_c, 0, 78, 107
2, 9408, Note_off_c, 0, 78, 64
2, 9420, Note_on_c, 0, 79, 107
2, 9468, Note_off_c, 0, 79, 64
2, 9480, Note_on_c, 0, 78, 107
2, 9528, Note_off_c, 0, 78, 64
2, 9540, Note_on_c, 0, 76, 107
2, 9588, Note_off_c, 0, 76, 64
2, 9600, Note_on_c, 0, 74, 107
2, 9648, Note_off_c, 0, 74, 64
2, 9660, Note_on_c, 0, 73, 107
2, 9708, Note_off_c, 0, 73, 64
2, 9720, Note_on_c, 0, 60, 107
2, 9720, Note_on_c, 0, 71, 107
2, 9768, Note_off_c, 0, 60, 64
2, 9780, Note_on_c, 0, 80, 107
2, 9816, Note_off_c, 0, 71, 64
2, 9828, Note_off_c, 0, 80, 64
2, 9840, Note_on_c, 0, 77, 107
2, 9840, Note_on_c, 0, 83, 107
2, 9888, Note_off_c, 0, 77, 64
2, 9900, Note_on_c, 0, 73, 107
2, 9936, Note_off_c, 0, 83, 64
2, 9948, Note_off_c, 0, 73, 64
2, 9960, Note_on_c, 0, 82, 107
2, 9960, Note_on_c, 0, 78, 107
2, 10008, Note_off_c, 0, 78, 64
2, 10020, Note_on_c, 0, 76, 107
2, 10056, Note_off_c, 0, 82, 64
2, 10068, Note_off_c, 0, 76, 64
2, 10080, Note_on_c, 0, 71, 107
2, 10080, Note_on_c, 0, 75, 107
2, 10128, Note_off_c, 0, 75, 64
2, 10140, Note_on_c, 0, 78, 107
2, 10176, Note_off_c, 0, 71, 64
2, 10188, Note_off_c, 0, 78, 64
2, 10200, Note_on_c, 0, 75, 107
2, 10200, Note_on_c, 0, 81, 107
2, 10248, Note_off_c, 0, 75, 64
2, 10260, Note_on_c, 0, 71, 107
2, 10296, Note_off_c, 0, 81, 64
2, 10308, Note_off_c, 0, 71, 64
2, 10320, Note_on_c, 0, 80, 107
2, 10320, Note_on_c, 0, 76, 107
2, 10368, Note_off_c, 0, 76, 64
2, 10380, Note_on_c, 0, 74, 107
2, 10416, Note_off_c, 0, 80, 64
2, 10428, Note_off_c, 0, 74, 64
2, 10440, Note_on_c, 0, 71, 107
2, 10440, Note_on_c, 0, 73, 107
2, 10488, Note_off_c, 0, 73, 64
2, 10500, Note_on_c, 0, 76, 107
2, 10536, Note_off_c, 0, 71, 64
2, 10548, Note_off_c, 0, 76, 64
2, 10560, Note_on_c, 0, 73, 107
2, 10560, Note_on_c, 0, 79, 107
2, 10608, Note_off_c, 0, 73, 64
2, 10620, Note_on_c, 0, 70, 107
2, 10656, Note_off_c, 0, 79, 64
2, 10668, Note_off_c, 0, 70, 64
2, 10680, Note_on_c, 0, 78, 107
2, 10680, Note_on_c, 0, 74, 107
2, 10728, Note_off_c, 0, 74, 64
2, 10740, Note_on_c, 0, 71, 107
2, 10776, Note_off_c, 0, 78, 64
2, 10788, Note_off_c, 0, 71, 64
2, 10800, Note_on_c, 0, 76, 107
2, 10800, Note_on_c, 0, 67, 107
2, 10896, Note_off_c, 0, 67, 64
2, 10920, Note_on_c, 0, 66, 107
2, 10992, Note_off_c, 0, 76, 64
2, 11040, Note_on_c, 0, 75, 107
2, 11112, Note_off_c, 0, 66, 64
2, 11136, Note_off_c, 0, 75, 64
2, 11160, Note_on_c, 0, 74, 107
2, 11160, Note_on_c, 0, 65, 107
2, 11256, Note_off_c, 0, 65, 64
2, 11280, Note_on_c, 0, 64, 107
2, 11352, Note_off_c, 0, 74, 64
2, 11400, Note_on_c, 0, 73, 107
2, 11472, Note_off_c, 0, 64, 64
2, 11496, Note_off_c, 0, 73, 64
2, 11520, Note_on_c, 0, 72, 107
2, 11520, Note_on_c, 0, 63, 107
2, 11616, Note_off_c, 0, 63, 64
2, 11640, Note_on_c, 0, 62, 107
2, 11712, Note_off_c, 0, 72, 64
2, 11760, Note_on_c, 0, 71, 107
2, 11832, Note_off_c, 0, 62, 64
2, 11880, Note_on_c, 0, 61, 107
2, 11976, Note_off_c, 0, 61, 64
2, 11976, Note_off_c, 0, 71, 64
2, 12000, Note_on_c, 0, 70, 107
2, 12000, Note_on_c, 0, 66, 107
2, 12096, Note_off_c, 0, 66, 64
2, 12096, Note_off_c, 0, 70, 64
2, 12120, Note_on_c, 0, 73, 107
2, 12120, Note_on_c, 0, 69, 107
2, 12216, Note_off_c, 0, 69, 64
2, 12216, Note_off_c, 0, 73, 64
2, 12240, Note_on_c, 0, 71, 107
2, 12240, Note_on_c, 0, 74, 107
2, 12288, Note_off_c, 0, 74, 64
2, 12300, Note_on_c, 0, 78, 107
2, 12348, Note_off_c, 0, 78, 64
2, 12360, Note_on_c, 0, 74, 107
2, 12408, Note_off_c, 0, 74, 64
2, 12420, Note_on_c, 0, 71, 107
2, 12432, Note_off_c, 0, 71, 64
2, 12468, Note_off_c, 0, 71, 64
2, 12480, Note_on_c, 0, 69, 107
2, 12480, Note_on_c, 0, 75, 107
2, 12528, Note_off_c, 0, 75, 64
2, 12540, Note_on_c, 0, 78, 107
2, 12576, Note_off_c, 0, 69, 64
2, 12588, Note_off_c, 0, 78, 64
2, 12600, Note_on_c, 0, 67, 107
2, 12600, Note_on_c, 0, 76, 107
2, 12648, Note_off_c, 0, 76, 64
2, 12660, Note_on_c, 0, 79, 107
2, 12708, Note_off_c, 0, 79, 64
2, 12720, Note_on_c, 0, 76, 107
2, 12744, Note_off_c, 0, 67, 64
2, 12768, Note_off_c, 0, 76, 64
2, 12780, Note_on_c, 0, 71, 107
2, 12780, Note_on_c, 0, 71, 107
2, 12828, Note_off_c, 0, 71, 64
2, 12828, Note_off_c, 0, 71, 64
2, 12840, Note_on_c, 0, 76, 107
2, 12840, Note_on_c, 0, 74, 107
2, 12888, Note_off_c, 0, 76, 64
2, 12900, Note_on_c, 0, 80, 107
2, 12948, Note_off_c, 0, 80, 64
2, 12953, Note_off_c, 0, 74, 64
2, 12960, Note_on_c, 0, 73, 107
2, 12960, Note_on_c, 0, 76, 107
2, 13008, Note_off_c, 0, 76, 64
2, 13020, Note_on_c, 0, 81, 107
2, 13068, Note_off_c, 0, 81, 64
2, 13080, Note_on_c, 0, 76, 107
2, 13128, Note_off_c, 0, 76, 64
2, 13140, Note_on_c, 0, 73, 107
2, 13152, Note_off_c, 0, 73, 64
2, 13188, Note_off_c, 0, 73, 64
2, 13200, Note_on_c, 0, 73, 107
2, 13200, Note_on_c, 0, 76, 107
2, 13248, Note_off_c, 0, 76, 64
2, 13260, Note_on_c, 0, 82, 107
2, 13296, Note_off_c, 0, 73, 64
2, 13308, Note_off_c, 0, 82, 64
2, 13320, Note_on_c, 0, 83, 107
2, 13320, Note_on_c, 0, 74, 107
2, 13416, Note_off_c, 0, 83, 64
2, 13440, Note_on_c, 0, 71, 107
2, 13512, Note_off_c, 0, 74, 64
2, 13536, Note_off_c, 0, 71, 64
2, 13560, Note_on_c, 0, 81, 107
2, 13560, Note_on_c, 0, 75, 107
2, 13656, Note_off_c, 0, 75, 64
2, 13656, Note_off_c, 0, 81, 64
2, 13680, Note_on_c, 0, 79, 107
2, 13728, Note_off_c, 0, 79, 64
2, 13740, Note_on_c, 0, 76, 107
2, 13788, Note_off_c, 0, 76, 64
2, 13800, Note_on_c, 0, 73, 107
2, 13848, Note_off_c, 0, 73, 64
2, 13860, Note_on_c, 0, 70, 107
2, 13908, Note_off_c, 0, 70, 64
2, 13920, Note_on_c, 0, 78, 107
2, 13968, Note_off_c, 0, 78, 64
2, 13980, Note_on_c, 0, 69, 107
2, 14028, Note_off_c, 0, 69, 64
2, 14040, Note_on_c, 0, 77, 107
2, 14088, Note_off_c, 0, 77, 64
2, 14100, Note_on_c, 0, 74, 107
2, 14148, Note_off_c, 0, 74, 64
2, 14160, Note_on_c, 0, 71, 107
2, 14208, Note_off_c, 0, 71, 64
2, 14220, Note_on_c, 0, 68, 107
2, 14268, Note_off_c, 0, 68, 64
2, 14280, Note_on_c, 0, 76, 107
2, 14328, Note_off_c, 0, 76, 64
2, 14340, Note_on_c, 0, 67, 107
2, 14388, Note_off_c, 0, 67, 64
2, 14400, Note_on_c, 0, 75, 107
2, 14448, Note_off_c, 0, 75, 64
2, 14460, Note_on_c, 0, 72, 107
2, 14508, Note_off_c, 0, 72, 64
2, 14520, Note_on_c, 0, 69, 107
2, 14568, Note_off_c, 0, 69, 64
2, 14580, Note_on_c, 0, 66, 107
2, 14628, Note_off_c, 0, 66, 64
2, 14640, Note_on_c, 0, 74, 107
2, 14688, Note_off_c, 0, 74, 64
2, 14700, Note_on_c, 0, 65, 107
2, 14748, Note_off_c, 0, 65, 64
2, 14760, Note_on_c, 0, 73, 107
2, 14760, Note_on_c, 0, 64, 107
2, 14904, Note_off_c, 0, 64, 64
2, 14904, Note_off_c, 0, 73, 64
2, 14940, Note_on_c, 0, 74, 107
2, 14940, Note_on_c, 0, 66, 107
2, 14988, Note_off_c, 0, 66, 64
2, 14988, Note_off_c, 0, 74, 64
2, 15000, Note_on_c, 0, 62, 107
2, 15000, Note_on_c, 0, 71, 107
2, 15168, Note_off_c, 0, 71, 64
2, 15168, Note_off_c, 0, 62, 64
2, 15180, Note_on_c, 0, 73, 107
2, 15180, Note_on_c, 0, 64, 107
2, 15228, Note_off_c, 0, 64, 64
2, 15228, Note_off_c, 0, 73, 64
2, 15240, Note_on_c, 0, 61, 107
2, 15240, Note_on_c, 0, 71, 107
2, 15264, Note_off_c, 0, 71, 64
2, 15270, Note_on_c, 0, 70, 107
2, 15294, Note_off_c, 0, 70, 64
2, 15300, Note_on_c, 0, 71, 107
2, 15324, Note_off_c, 0, 71, 64
2, 15330, Note_on_c, 0, 70, 107
2, 15354, Note_off_c, 0, 70, 64
2, 15360, Note_on_c, 0, 71, 107
2, 15384, Note_off_c, 0, 71, 64
2, 15390, Note_on_c, 0, 70, 107
2, 15414, Note_off_c, 0, 70, 64
2, 15420, Note_on_c, 0, 71, 107
2, 15432, Note_off_c, 0, 61, 64
2, 15468, Note_off_c, 0, 71, 64
2, 15480, Note_on_c, 0, 71, 107
2, 15528, Note_off_c, 0, 71, 64
2, 15540, Note_on_c, 0, 66, 107
2, 15588, Note_off_c, 0, 66, 64
2, 15600, Note_on_c, 0, 63, 107
2, 15648, Note_off_c, 0, 63, 64
2, 15660, Note_on_c, 0, 59, 107
2, 15708, Note_off_c, 0, 59, 64
2, 15720, Note_on_c, 0, 69, 107
2, 15768, Note_off_c, 0, 69, 64
2, 15780, Note_on_c, 0, 66, 107
2, 15828, Note_off_c, 0, 66, 64
2, 15840, Note_on_c, 0, 67, 107
2, 15888, Note_off_c, 0, 67, 64
2, 15900, Note_on_c, 0, 64, 107
2, 15948, Note_off_c, 0, 64, 64
2, 15960, Note_on_c, 0, 67, 107
2, 16008, Note_off_c, 0, 67, 64
2, 16020, Note_on_c, 0, 71, 107
2, 16068, Note_off_c, 0, 71, 64
2, 16080, Note_on_c, 0, 76, 107
2, 16128, Note_off_c, 0, 76, 64
2, 16140, Note_on_c, 0, 75, 107
2, 16188, Note_off_c, 0, 75, 64
2, 16200, Note_on_c, 0, 76, 107
2, 16248, Note_off_c, 0, 76, 64
2, 16260, Note_on_c, 0, 71, 107
2, 16308, Note_off_c, 0, 71, 64
2, 16320, Note_on_c, 0, 76, 107
2, 16368, Note_off_c, 0, 76, 64
2, 16380, Note_on_c, 0, 79, 107
2, 16428, Note_off_c, 0, 79, 64
2, 16440, Note_on_c, 0, 83, 107
2, 16488, Note_off_c, 0, 83, 64
2, 16500, Note_on_c, 0, 82, 107
2, 16548, Note_off_c, 0, 82, 64
2, 16560, Note_on_c, 0, 83, 107
2, 17112, Note_off_c, 0, 83, 64
2, 17280, Note_on_c, 0, 71, 107
2, 17328, Note_off_c, 0, 71, 64
2, 17340, Note_on_c, 0, 72, 107
2, 17388, Note_off_c, 0, 72, 64
2, 17400, Note_on_c, 0, 71, 107
2, 17448, Note_off_c, 0, 71, 64
2, 17460, Note_on_c, 0, 69, 107
2, 17508, Note_off_c, 0, 69, 64
2, 17520, Note_on_c, 0, 67, 107
2, 17568, Note_off_c, 0, 67, 64
2, 17580, Note_on_c, 0, 66, 107
2, 17628, Note_off_c, 0, 66, 64
2, 17640, Note_on_c, 0, 64, 107
2, 17730, Note_off_c, 0, 64, 64
2, 17760, Note_on_c, 0, 76, 107
2, 17856, Note_off_c, 0, 76, 64
2, 17880, Note_on_c, 0, 75, 107
2, 17976, Note_off_c, 0, 75, 64
2, 18000, Note_on_c, 0, 64, 107
2, 18090, Note_off_c, 0, 64, 64
2, 18120, Note_on_c, 0, 74, 107
2, 18216, Note_off_c, 0, 74, 64
2, 18240, Note_on_c, 0, 73, 107
2, 18336, Note_off_c, 0, 73, 64
2, 18360, Note_on_c, 0, 64, 107
2, 18450, Note_off_c, 0, 64, 64
2, 18480, Note_on_c, 0, 72, 107
2, 18576, Note_off_c, 0, 72, 64
2, 18600, Note_on_c, 0, 71, 107
2, 18696, Note_off_c, 0, 71, 64
2, 18720, Note_on_c, 0, 70, 107
2, 18720, Note_on_c, 0, 64, 107
2, 18768, Note_off_c, 0, 64, 64
2, 18780, Note_on_c, 0, 67, 107
2, 18816, Note_off_c, 0, 70, 64
2, 18828, Note_off_c, 0, 67, 64
2, 18840, Note_on_c, 0, 71, 107
2, 18840, Note_on_c, 0, 66, 107
2, 18888, Note_off_c, 0, 66, 64
2, 18900, Note_on_c, 0, 64, 107
2, 18936, Note_off_c, 0, 71, 64
2, 18948, Note_off_c, 0, 64, 64
2, 18960, Note_on_c, 0, 73, 107
2, 18960, Note_on_c, 0, 62, 107
2, 19008, Note_off_c, 0, 62, 64
2, 19020, Note_on_c, 0, 61, 107
2, 19056, Note_off_c, 0, 73, 64
2, 19068, Note_off_c, 0, 61, 64
2, 19080, Note_on_c, 0, 74, 107
2, 19080, Note_on_c, 0, 59, 107
2, 19128, Note_off_c, 0, 74, 64
2, 19140, Note_on_c, 0, 79, 107
2, 19176, Note_off_c, 0, 59, 64
2, 19188, Note_off_c, 0, 79, 64
2, 19200, Note_on_c, 0, 77, 107
2, 19200, Note_on_c, 0, 71, 107
2, 19248, Note_off_c, 0, 77, 64
2, 19260, Note_on_c, 0, 73, 107
2, 19296, Note_off_c, 0, 71, 64
2, 19308, Note_off_c, 0, 73, 64
2, 19320, Note_on_c, 0, 70, 107
2, 19320, Note_on_c, 0, 78, 107
2, 19368, Note_off_c, 0, 78, 64
2, 19380, Note_on_c, 0, 76, 107
2, 19416, Note_off_c, 0, 70, 64
2, 19428, Note_off_c, 0, 76, 64
2, 19440, Note_on_c, 0, 75, 107
2, 19440, Note_on_c, 0, 59, 107
2, 19488, Note_off_c, 0, 75, 64
2, 19500, Note_on_c, 0, 78, 107
2, 19536, Note_off_c, 0, 59, 64
2, 19548, Note_off_c, 0, 78, 64
2, 19560, Note_on_c, 0, 75, 107
2, 19560, Note_on_c, 0, 69, 107
2, 19608, Note_off_c, 0, 75, 64
2, 19620, Note_on_c, 0, 71, 107
2, 19656, Note_off_c, 0, 69, 64
2, 19668, Note_off_c, 0, 71, 64
2, 19680, Note_on_c, 0, 68, 107
2, 19680, Note_on_c, 0, 76, 107
2, 19728, Note_off_c, 0, 76, 64
2, 19740, Note_on_c, 0, 74, 107
2, 19776, Note_off_c, 0, 68, 64
2, 19788, Note_off_c, 0, 74, 64
2, 19800, Note_on_c, 0, 73, 107
2, 19800, Note_on_c, 0, 59, 107
2, 19848, Note_off_c, 0, 73, 64
2, 19860, Note_on_c, 0, 76, 107
2, 19896, Note_off_c, 0, 59, 64
2, 19908, Note_off_c, 0, 76, 64
2, 19920, Note_on_c, 0, 73, 107
2, 19920, Note_on_c, 0, 67, 107
2, 19968, Note_off_c, 0, 73, 64
2, 19980, Note_on_c, 0, 70, 107
2, 20016, Note_off_c, 0, 67, 64
2, 20028, Note_off_c, 0, 70, 64
2, 20040, Note_on_c, 0, 66, 107
2, 20040, Note_on_c, 0, 74, 107
2, 20088, Note_off_c, 0, 74, 64
2, 20100, Note_on_c, 0, 71, 107
2, 20136, Note_off_c, 0, 66, 64
2, 20148, Note_off_c, 0, 71, 64
2, 20160, Note_on_c, 0, 64, 107
2, 20160, Note_on_c, 0, 72, 107
2, 20208, Note_off_c, 0, 64, 64
2, 20220, Note_on_c, 0, 69, 107
2, 20256, Note_off_c, 0, 72, 64
2, 20268, Note_off_c, 0, 69, 64
2, 20280, Note_on_c, 0, 66, 107
2, 20280, Note_on_c, 0, 81, 107
2, 20328, Note_off_c, 0, 66, 64
2, 20340, Note_on_c, 0, 62, 107
2, 20376, Note_off_c, 0, 81, 64
2, 20388, Note_off_c, 0, 62, 64
2, 20400, Note_on_c, 0, 71, 107
2, 20400, Note_on_c, 0, 67, 107
2, 20448, Note_off_c, 0, 67, 64
2, 20460, Note_on_c, 0, 66, 107
2, 20508, Note_off_c, 0, 66, 64
2, 20520, Note_on_c, 0, 64, 107
2, 20568, Note_off_c, 0, 64, 64
2, 20580, Note_on_c, 0, 67, 107
2, 20616, Note_off_c, 0, 71, 64
2, 20628, Note_off_c, 0, 67, 64
2, 20640, Note_on_c, 0, 79, 107
2, 20640, Note_on_c, 0, 64, 107
2, 20688, Note_off_c, 0, 64, 64
2, 20700, Note_on_c, 0, 61, 107
2, 20736, Note_off_c, 0, 79, 64
2, 20748, Note_off_c, 0, 61, 64
2, 20760, Note_on_c, 0, 69, 107
2, 20760, Note_on_c, 0, 66, 107
2, 20808, Note_off_c, 0, 66, 64
2, 20820, Note_on_c, 0, 64, 107
2, 20868, Note_off_c, 0, 64, 64
2, 20880, Note_on_c, 0, 63, 107
2, 20928, Note_off_c, 0, 63, 64
2, 20940, Note_on_c, 0, 66, 107
2, 20976, Note_off_c, 0, 69, 64
2, 20988, Note_off_c, 0, 66, 64
2, 21000, Note_on_c, 0, 78, 107
2, 21000, Note_on_c, 0, 63, 107
2, 21048, Note_off_c, 0, 63, 64
2, 21060, Note_on_c, 0, 59, 107
2, 21096, Note_off_c, 0, 78, 64
2, 21108, Note_off_c, 0, 59, 64
2, 21120, Note_on_c, 0, 67, 107
2, 21120, Note_on_c, 0, 64, 107
2, 21168, Note_off_c, 0, 64, 64
2, 21180, Note_on_c, 0, 62, 107
2, 21228, Note_off_c, 0, 62, 64
2, 21240, Note_on_c, 0, 60, 107
2, 21288, Note_off_c, 0, 67, 64
2, 21300, Note_on_c, 0, 71, 107
2, 21336, Note_off_c, 0, 60, 64
2, 21348, Note_off_c, 0, 71, 64
2, 21360, Note_on_c, 0, 75, 107
2, 21360, Note_on_c, 0, 71, 107
2, 21408, Note_off_c, 0, 75, 64
2, 21420, Note_on_c, 0, 76, 107
2, 21456, Note_off_c, 0, 71, 64
2, 21480, Note_on_c, 0, 69, 107
2, 21528, Note_off_c, 0, 76, 64
2, 21540, Note_on_c, 0, 78, 107
2, 21576, Note_off_c, 0, 69, 64
2, 21588, Note_off_c, 0, 78, 64
2, 21600, Note_on_c, 0, 75, 107
2, 21600, Note_on_c, 0, 71, 107
2, 21696, Note_off_c, 0, 71, 64
2, 21696, Note_off_c, 0, 75, 64
2, 21720, Note_on_c, 0, 76, 107
2, 21720, Note_on_c, 0, 73, 107
2, 21816, Note_off_c, 0, 73, 64
2, 21816, Note_off_c, 0, 76, 64
2, 21840, Note_on_c, 0, 75, 107
2, 21840, Note_on_c, 0, 78, 107
2, 21936, Note_off_c, 0, 78, 64
2, 21936, Note_off_c, 0, 75, 64
2, 21960, Note_on_c, 0, 76, 107
2, 21960, Note_on_c, 0, 79, 107
2, 22008, Note_off_c, 0, 76, 64
2, 22020, Note_on_c, 0, 72, 107
2, 22056, Note_off_c, 0, 79, 64
2, 22068, Note_off_c, 0, 72, 64
2, 22080, Note_on_c, 0, 70, 107
2, 22080, Note_on_c, 0, 78, 107
2, 22128, Note_off_c, 0, 70, 64
2, 22140, Note_on_c, 0, 66, 107
2, 22176, Note_off_c, 0, 78, 64
2, 22188, Note_off_c, 0, 66, 64
2, 22200, Note_on_c, 0, 71, 107
2, 22248, Note_off_c, 0, 71, 64
2, 22260, Note_on_c, 0, 69, 107
2, 22308, Note_off_c, 0, 69, 64
2, 22320, Note_on_c, 0, 77, 107
2, 22320, Note_on_c, 0, 68, 107
2, 22368, Note_off_c, 0, 68, 64
2, 22380, Note_on_c, 0, 71, 107
2, 22416, Note_off_c, 0, 77, 64
2, 22428, Note_off_c, 0, 71, 64
2, 22440, Note_on_c, 0, 68, 107
2, 22440, Note_on_c, 0, 76, 107
2, 22488, Note_off_c, 0, 68, 64
2, 22500, Note_on_c, 0, 64, 107
2, 22536, Note_off_c, 0, 76, 64
2, 22548, Note_off_c, 0, 64, 64
2, 22560, Note_on_c, 0, 69, 107
2, 22608, Note_off_c, 0, 69, 64
2, 22620, Note_on_c, 0, 67, 107
2, 22668, Note_off_c, 0, 67, 64
2, 22680, Note_on_c, 0, 75, 107
2, 22680, Note_on_c, 0, 66, 107
2, 22728, Note_off_c, 0, 66, 64
2, 22740, Note_on_c, 0, 69, 107
2, 22776, Note_off_c, 0, 75, 64
2, 22788, Note_off_c, 0, 69, 64
2, 22800, Note_on_c, 0, 66, 107
2, 22848, Note_off_c, 0, 66, 64
2, 22860, Note_on_c, 0, 63, 107
2, 22908, Note_off_c, 0, 63, 64
2, 22920, Note_on_c, 0, 67, 107
2, 22920, Note_on_c, 0, 76, 107
2, 22968, Note_off_c, 0, 67, 64
2, 22980, Note_on_c, 0, 64, 107
2, 23028, Note_off_c, 0, 64, 64
2, 23040, Note_on_c, 0, 66, 107
2, 23136, Note_off_c, 0, 76, 64
2, 23136, Note_off_c, 0, 66, 64
2, 23160, Note_on_c, 0, 74, 107
2, 23160, Note_on_c, 0, 65, 107
2, 23256, Note_off_c, 0, 65, 64
2, 23280, Note_on_c, 0, 64, 107
2, 23352, Note_off_c, 0, 74, 64
2, 23400, Note_on_c, 0, 72, 107
2, 23496, Note_off_c, 0, 64, 64
2, 23520, Note_on_c, 0, 64, 107
2, 23616, Note_off_c, 0, 64, 64
2, 23640, Note_on_c, 0, 63, 107
2, 23688, Note_off_c, 0, 72, 64
2, 23760, Note_on_c, 0, 71, 107
2, 23856, Note_off_c, 0, 63, 64
2, 23880, Note_on_c, 0, 62, 107
2, 23976, Note_off_c, 0, 62, 64
2, 24000, Note_on_c, 0, 61, 107
2, 24048, Note_off_c, 0, 71, 64
2, 24096, Note_off_c, 0, 61, 64
2, 24120, Note_on_c, 0, 60, 107
2, 24120, Note_on_c, 0, 69, 107
2, 24168, Note_off_c, 0, 69, 64
2, 24180, Note_on_c, 0, 64, 107
2, 24228, Note_off_c, 0, 64, 64
2, 24240, Note_on_c, 0, 69, 107
2, 24288, Note_off_c, 0, 69, 64
2, 24300, Note_on_c, 0, 72, 107
2, 24312, Note_off_c, 0, 60, 64
2, 24360, Note_on_c, 0, 66, 107
2, 24408, Note_off_c, 0, 72, 64
2, 24420, Note_on_c, 0, 71, 107
2, 24456, Note_off_c, 0, 66, 64
2, 24468, Note_off_c, 0, 71, 64
2, 24480, Note_on_c, 0, 67, 107
2, 24528, Note_off_c, 0, 67, 64
2, 24540, Note_on_c, 0, 71, 107
2, 24588, Note_off_c, 0, 71, 64
2, 24600, Note_on_c, 0, 76, 107
2, 24648, Note_off_c, 0, 76, 64
2, 24660, Note_on_c, 0, 79, 107
2, 24708, Note_off_c, 0, 79, 64
2, 24720, Note_on_c, 0, 78, 107
2, 24768, Note_off_c, 0, 78, 64
2, 24780, Note_on_c, 0, 71, 107
2, 24828, Note_off_c, 0, 71, 64
2, 24840, Note_on_c, 0, 76, 107
2, 24888, Note_off_c, 0, 76, 64
2, 24900, Note_on_c, 0, 72, 107
2, 24948, Note_off_c, 0, 72, 64
2, 24960, Note_on_c, 0, 69, 107
2, 25008, Note_off_c, 0, 69, 64
2, 25020, Note_on_c, 0, 66, 107
2, 25068, Note_off_c, 0, 66, 64
2, 25080, Note_on_c, 0, 67, 107
2, 25128, Note_off_c, 0, 67, 64
2, 25140, Note_on_c, 0, 74, 107
2, 25188, Note_off_c, 0, 74, 64
2, 25200, Note_on_c, 0, 60, 107
2, 25248, Note_off_c, 0, 60, 64
2, 25260, Note_on_c, 0, 66, 107
2, 25308, Note_off_c, 0, 66, 64
2, 25320, Note_on_c, 0, 69, 107
2, 25368, Note_off_c, 0, 69, 64
2, 25380, Note_on_c, 0, 72, 107
2, 25428, Note_off_c, 0, 72, 64
2, 25440, Note_on_c, 0, 71, 107
2, 25488, Note_off_c, 0, 71, 64
2, 25500, Note_on_c, 0, 64, 107
2, 25548, Note_off_c, 0, 64, 64
2, 25560, Note_on_c, 0, 69, 107
2, 25608, Note_off_c, 0, 69, 64
2, 25620, Note_on_c, 0, 66, 107
2, 25668, Note_off_c, 0, 66, 64
2, 25680, Note_on_c, 0, 63, 107
2, 25728, Note_off_c, 0, 63, 64
2, 25740, Note_on_c, 0, 59, 107
2, 25788, Note_off_c, 0, 59, 64
2, 25800, Note_on_c, 0, 60, 107
2, 25848, Note_off_c, 0, 60, 64
2, 25860, Note_on_c, 0, 69, 107
2, 25908, Note_off_c, 0, 69, 64
2, 25920, Note_on_c, 0, 59, 107
2, 25968, Note_off_c, 0, 59, 64
2, 25980, Note_on_c, 0, 63, 107
2, 26028, Note_off_c, 0, 63, 64
2, 26040, Note_on_c, 0, 66, 107
2, 26088, Note_off_c, 0, 66, 64
2, 26100, Note_on_c, 0, 69, 107
2, 26148, Note_off_c, 0, 69, 64
2, 26160, Note_on_c, 0, 67, 107
2, 26208, Note_off_c, 0, 67, 64
2, 26220, Note_on_c, 0, 66, 107
2, 26268, Note_off_c, 0, 66, 64
2, 26280, Note_on_c, 0, 67, 107
2, 26424, Note_off_c, 0, 67, 64
2, 26460, Note_on_c, 0, 66, 107
2, 26508, Note_off_c, 0, 66, 64
2, 26520, Note_on_c, 0, 64, 107
2, 26568, Note_off_c, 0, 64, 64
2, 26580, Note_on_c, 0, 62, 107
2, 26628, Note_off_c, 0, 62, 64
2, 26640, Note_on_c, 0, 78, 107
2, 26688, Note_off_c, 0, 78, 64
2, 26700, Note_on_c, 0, 79, 107
2, 26748, Note_off_c, 0, 79, 64
2, 26760, Note_on_c, 0, 78, 107
2, 26808, Note_off_c, 0, 78, 64
2, 26820, Note_on_c, 0, 76, 107
2, 26868, Note_off_c, 0, 76, 64
2, 26880, Note_on_c, 0, 74, 107
2, 26928, Note_off_c, 0, 74, 64
2, 26940, Note_on_c, 0, 73, 107
2, 26988, Note_off_c, 0, 73, 64
2, 27000, Note_on_c, 0, 60, 107
2, 27000, Note_on_c, 0, 71, 107
2, 27048, Note_off_c, 0, 60, 64
2, 27060, Note_on_c, 0, 80, 107
2, 27096, Note_off_c, 0, 71, 64
2, 27108, Note_off_c, 0, 80, 64
2, 27120, Note_on_c, 0, 77, 107
2, 27120, Note_on_c, 0, 83, 107
2, 27168, Note_off_c, 0, 77, 64
2, 27180, Note_on_c, 0, 73, 107
2, 27216, Note_off_c, 0, 83, 64
2, 27228, Note_off_c, 0, 73, 64
2, 27240, Note_on_c, 0, 82, 107
2, 27240, Note_on_c, 0, 78, 107
2, 27288, Note_off_c, 0, 78, 64
2, 27300, Note_on_c, 0, 76, 107
2, 27336, Note_off_c, 0, 82, 64
2, 27348, Note_off_c, 0, 76, 64
2, 27360, Note_on_c, 0, 71, 107
2, 27360, Note_on_c, 0, 75, 107
2, 27408, Note_off_c, 0, 75, 64
2, 27420, Note_on_c, 0, 78, 107
2, 27456, Note_off_c, 0, 71, 64
2, 27468, Note_off_c, 0, 78, 64
2, 27480, Note_on_c, 0, 75, 107
2, 27480, Note_on_c, 0, 81, 107
2, 27528, Note_off_c, 0, 75, 64
2, 27540, Note_on_c, 0, 71, 107
2, 27576, Note_off_c, 0, 81, 64
2, 27588, Note_off_c, 0, 71, 64
2, 27600, Note_on_c, 0, 80, 107
2, 27600, Note_on_c, 0, 76, 107
2, 27648, Note_off_c, 0, 76, 64
2, 27660, Note_on_c, 0, 74, 107
2, 27696, Note_off_c, 0, 80, 64
2, 27708, Note_off_c, 0, 74, 64
2, 27720, Note_on_c, 0, 71, 107
2, 27720, Note_on_c, 0, 73, 107
2, 27768, Note_off_c, 0, 73, 64
2, 27780, Note_on_c, 0, 76, 107
2, 27816, Note_off_c, 0, 71, 64
2, 27828, Note_off_c, 0, 76, 64
2, 27840, Note_on_c, 0, 73, 107
2, 27840, Note_on_c, 0, 79, 107
2, 27888, Note_off_c, 0, 73, 64
2, 27900, Note_on_c, 0, 70, 107
2, 27936, Note_off_c, 0, 79, 64
2, 27948, Note_off_c, 0, 70, 64
2, 27960, Note_on_c, 0, 78, 107
2, 27960, Note_on_c, 0, 74, 107
2, 28008, Note_off_c, 0, 74, 64
2, 28020, Note_on_c, 0, 71, 107
2, 28056, Note_off_c, 0, 78, 64
2, 28068, Note_off_c, 0, 71, 64
2, 28080, Note_on_c, 0, 76, 107
2, 28080, Note_on_c, 0, 67, 107
2, 28176, Note_off_c, 0, 67, 64
2, 28200, Note_on_c, 0, 66, 107
2, 28272, Note_off_c, 0, 76, 64
2, 28320, Note_on_c, 0, 75, 107
2, 28392, Note_off_c, 0, 66, 64
2, 28416, Note_off_c, 0, 75, 64
2, 28440, Note_on_c, 0, 74, 107
2, 28440, Note_on_c, 0, 65, 107
2, 28536, Note_off_c, 0, 65, 64
2, 28560, Note_on_c, 0, 64, 107
2, 28632, Note_off_c, 0, 74, 64
2, 28680, Note_on_c, 0, 73, 107
2, 28752, Note_off_c, 0, 64, 64
2, 28776, Note_off_c, 0, 73, 64
2, 28800, Note_on_c, 0, 72, 107
2, 28800, Note_on_c, 0, 63, 107
2, 28896, Note_off_c, 0, 63, 64
2, 28920, Note_on_c, 0, 62, 107
2, 28992, Note_off_c, 0, 72, 64
2, 29040, Note_on_c, 0, 71, 107
2, 29112, Note_off_c, 0, 62, 64
2, 29160, Note_on_c, 0, 61, 107
2, 29256, Note_off_c, 0, 61, 64
2, 29256, Note_off_c, 0, 71, 64
2, 29280, Note_on_c, 0, 70, 107
2, 29280, Note_on_c, 0, 66, 107
2, 29376, Note_off_c, 0, 66, 64
2, 29376, Note_off_c, 0, 70, 64
2, 29400, Note_on_c, 0, 73, 107
2, 29400, Note_on_c, 0, 69, 107
2, 29496, Note_off_c, 0, 69, 64
2, 29496, Note_off_c, 0, 73, 64
2, 29520, Note_on_c, 0, 71, 107
2, 29520, Note_on_c, 0, 74, 107
2, 29568, Note_off_c, 0, 74, 64
2, 29580, Note_on_c, 0, 78, 107
2, 29628, Note_off_c, 0, 78, 64
2, 29640, Note_on_c, 0, 74, 107
2, 29688, Note_off_c, 0, 74, 64
2, 29700, Note_on_c, 0, 71, 107
2, 29712, Note_off_c, 0, 71, 64
2, 29748, Note_off_c, 0, 71, 64
2, 29760, Note_on_c, 0, 69, 107
2, 29760, Note_on_c, 0, 75, 107
2, 29808, Note_off_c, 0, 75, 64
2, 29820, Note_on_c, 0, 78, 107
2, 29856, Note_off_c, 0, 69, 64
2, 29868, Note_off_c, 0, 78, 64
2, 29880, Note_on_c, 0, 67, 107
2, 29880, Note_on_c, 0, 76, 107
2, 29928, Note_off_c, 0, 76, 64
2, 29940, Note_on_c, 0, 79, 107
2, 29988, Note_off_c, 0, 79, 64
2, 30000, Note_on_c, 0, 76, 107
2, 30024, Note_off_c, 0, 67, 64
2, 30048, Note_off_c, 0, 76, 64
2, 30060, Note_on_c, 0, 71, 107
2, 30060, Note_on_c, 0, 71, 107
2, 30108, Note_off_c, 0, 71, 64
2, 30108, Note_off_c, 0, 71, 64
2, 30120, Note_on_c, 0, 76, 107
2, 30120, Note_on_c, 0, 74, 107
2, 30168, Note_off_c, 0, 76, 64
2, 30180, Note_on_c, 0, 80, 107
2, 30228, Note_off_c, 0, 80, 64
2, 30233, Note_off_c, 0, 74, 64
2, 30240, Note_on_c, 0, 73, 107
2, 30240, Note_on_c, 0, 76, 107
2, 30288, Note_off_c, 0, 76, 64
2, 30300, Note_on_c, 0, 81, 107
2, 30348, Note_off_c, 0, 81, 64
2, 30360, Note_on_c, 0, 76, 107
2, 30408, Note_off_c, 0, 76, 64
2, 30420, Note_on_c, 0, 73, 107
2, 30432, Note_off_c, 0, 73, 64
2, 30468, Note_off_c, 0, 73, 64
2, 30480, Note_on_c, 0, 73, 107
2, 30480, Note_on_c, 0, 76, 107
2, 30528, Note_off_c, 0, 76, 64
2, 30540, Note_on_c, 0, 82, 107
2, 30576, Note_off_c, 0, 73, 64
2, 30588, Note_off_c, 0, 82, 64
2, 30600, Note_on_c, 0, 83, 107
2, 30600, Note_on_c, 0, 74, 107
2, 30696, Note_off_c, 0, 83, 64
2, 30720, Note_on_c, 0, 71, 107
2, 30792, Note_off_c, 0, 74, 64
2, 30816, Note_off_c, 0, 71, 64
2, 30840, Note_on_c, 0, 81, 107
2, 30840, Note_on_c, 0, 75, 107
2, 30936, Note_off_c, 0, 75, 64
2, 30936, Note_off_c, 0, 81, 64
2, 30960, Note_on_c, 0, 79, 107
2, 31008, Note_off_c, 0, 79, 64
2, 31020, Note_on_c, 0, 76, 107
2, 31068, Note_off_c, 0, 76, 64
2, 31080, Note_on_c, 0, 73, 107
2, 31128, Note_off_c, 0, 73, 64
2, 31140, Note_on_c, 0, 70, 107
2, 31188, Note_off_c, 0, 70, 64
2, 31200, Note_on_c, 0, 78, 107
2, 31248, Note_off_c, 0, 78, 64
2, 31260, Note_on_c, 0, 69, 107
2, 31308, Note_off_c, 0, 69, 64
2, 31320, Note_on_c, 0, 77, 107
2, 31368, Note_off_c, 0, 77, 64
2, 31380, Note_on_c, 0, 74, 107
2, 31428, Note_off_c, 0, 74, 64
2, 31440, Note_on_c, 0, 71, 107
2, 31488, Note_off_c, 0, 71, 64
2, 31500, Note_on_c, 0, 68, 107
2, 31548, Note_off_c, 0, 68, 64
2, 31560, Note_on_c, 0, 76, 107
2, 31608, Note_off_c, 0, 76, 64
2, 31620, Note_on_c, 0, 67, 107
2, 31668, Note_off_c, 0, 67, 64
2, 31680, Note_on_c, 0, 75, 107
2, 31728, Note_off_c, 0, 75, 64
2, 31740, Note_on_c, 0, 72, 107
2, 31788, Note_off_c, 0, 72, 64
2, 31800, Note_on_c, 0, 69, 107
2, 31848, Note_off_c, 0, 69, 64
2, 31860, Note_on_c, 0, 66, 107
2, 31908, Note_off_c, 0, 66, 64
2, 31920, Note_on_c, 0, 74, 107
2, 31968, Note_off_c, 0, 74, 64
2, 31980, Note_on_c, 0, 65, 107
2, 32028, Note_off_c, 0, 65, 64
2, 32040, Note_on_c, 0, 73, 107
2, 32040, Note_on_c, 0, 64, 107
2, 32184, Note_off_c, 0, 64, 64
2, 32184, Note_off_c, 0, 73, 64
2, 32220, Note_on_c, 0, 74, 107
2, 32220, Note_on_c, 0, 66, 107
2, 32268, Note_off_c, 0, 66, 64
2, 32268, Note_off_c, 0, 74, 64
2, 32280, Note_on_c, 0, 62, 107
2, 32280, Note_on_c, 0, 71, 107
2, 32448, Note_off_c, 0, 71, 64
2, 32448, Note_off_c, 0, 62, 64
2, 32460, Note_on_c, 0, 73, 107
2, 32460, Note_on_c, 0, 64, 107
2, 32508, Note_off_c, 0, 64, 64
2, 32508, Note_off_c, 0, 73, 64
2, 32520, Note_on_c, 0, 61, 107
2, 32520, Note_on_c, 0, 71, 107
2, 32544, Note_off_c, 0, 71, 64
2, 32550, Note_on_c, 0, 70, 107
2, 32574, Note_off_c, 0, 70, 64
2, 32580, Note_on_c, 0, 71, 107
2, 32604, Note_off_c, 0, 71, 64
2, 32610, Note_on_c, 0, 70, 107
2, 32634, Note_off_c, 0, 70, 64
2, 32640, Note_on_c, 0, 71, 107
2, 32664, Note_off_c, 0, 71, 64
2, 32670, Note_on_c, 0, 70, 107
2, 32694, Note_off_c, 0, 70, 64
2, 32700, Note_on_c, 0, 71, 107
2, 32712, Note_off_c, 0, 61, 64
2, 32748, Note_off_c, 0, 71, 64
2, 32760, Note_on_c, 0, 71, 107
2, 32808, Note_off_c, 0, 71, 64
2, 32820, Note_on_c, 0, 66, 107
2, 32868, Note_off_c, 0, 66, 64
2, 32880, Note_on_c, 0, 63, 107
2, 32928, Note_off_c, 0, 63, 64
2, 32940, Note_on_c, 0, 59, 107
2, 32988, Note_off_c, 0, 59, 64
2, 33000, Note_on_c, 0, 69, 107
2, 33048, Note_off_c, 0, 69, 64
2, 33060, Note_on_c, 0, 66, 107
2, 33108, Note_off_c, 0, 66, 64
2, 33120, Note_on_c, 0, 67, 107
2, 33168, Note_off_c, 0, 67, 64
2, 33180, Note_on_c, 0, 64, 107
2, 33228, Note_off_c, 0, 64, 64
2, 33240, Note_on_c, 0, 67, 107
2, 33288, Note_off_c, 0, 67, 64
2, 33300, Note_on_c, 0, 71, 107
2, 33348, Note_off_c, 0, 71, 64
2, 33360, Note_on_c, 0, 76, 107
2, 33408, Note_off_c, 0, 76, 64
2, 33420, Note_on_c, 0, 75, 107
2, 33468, Note_off_c, 0, 75, 64
2, 33480, Note_on_c, 0, 76, 107
2, 33528, Note_off_c, 0, 76, 64
2, 33540, Note_on_c, 0, 71, 107
2, 33588, Note_off_c, 0, 71, 64
2, 33600, Note_on_c, 0, 76, 107
2, 33648, Note_off_c, 0, 76, 64
2, 33660, Note_on_c, 0, 79, 107
2, 33708, Note_off_c, 0, 79, 64
2, 33720, Note_on_c, 0, 83, 107
2, 33768, Note_off_c, 0, 83, 64
2, 33780, Note_on_c, 0, 82, 107
2, 33828, Note_off_c, 0, 82, 64
2, 33840, Note_on_c, 0, 83, 107
2, 34392, Note_off_c, 0, 83, 64
2, 36000, Note_on_c, 0, 59, 107
2, 36048, Note_off_c, 0, 59, 64
2, 36060, Note_on_c, 0, 58, 107
2, 36108, Note_off_c, 0, 58, 64
2, 36120, Note_on_c, 0, 59, 107
2, 36168, Note_off_c, 0, 59, 64
2, 36180, Note_on_c, 0, 61, 107
2, 36228, Note_off_c, 0, 61, 64
2, 36240, Note_on_c, 0, 62, 107
2, 36288, Note_off_c, 0, 62, 64
2, 36300, Note_on_c, 0, 64, 107
2, 36348, Note_off_c, 0, 64, 64
2, 36360, Note_on_c, 0, 66, 107
2, 36450, Note_off_c, 0, 66, 64
2, 36480, Note_on_c, 0, 54, 107
2, 36576, Note_off_c, 0, 54, 64
2, 36600, Note_on_c, 0, 55, 107
2, 36696, Note_off_c, 0, 55, 64
2, 36720, Note_on_c, 0, 66, 107
2, 36810, Note_off_c, 0, 66, 64
2, 36840, Note_on_c, 0, 56, 107
2, 36936, Note_off_c, 0, 56, 64
2, 36960, Note_on_c, 0, 57, 107
2, 37056, Note_off_c, 0, 57, 64
2, 37080, Note_on_c, 0, 66, 107
2, 37170, Note_off_c, 0, 66, 64
2, 37200, Note_on_c, 0, 58, 107
2, 37296, Note_off_c, 0, 58, 64
2, 37320, Note_on_c, 0, 59, 107
2, 37416, Note_off_c, 0, 59, 64
2, 37440, Note_on_c, 0, 60, 107
2, 37488, Note_off_c, 0, 60, 64
2, 37500, Note_on_c, 0, 62, 107
2, 37548, Note_off_c, 0, 62, 64
2, 37560, Note_on_c, 0, 60, 107
2, 37608, Note_off_c, 0, 60, 64
2, 37620, Note_on_c, 0, 59, 107
2, 37668, Note_off_c, 0, 59, 64
2, 37680, Note_on_c, 0, 57, 107
2, 37728, Note_off_c, 0, 57, 64
2, 37740, Note_on_c, 0, 59, 107
2, 37788, Note_off_c, 0, 59, 64
2, 37800, Note_on_c, 0, 60, 107
2, 37848, Note_off_c, 0, 60, 64
2, 37860, Note_on_c, 0, 64, 107
2, 37908, Note_off_c, 0, 64, 64
2, 37920, Note_on_c, 0, 62, 107
2, 37968, Note_off_c, 0, 62, 64
2, 37980, Note_on_c, 0, 60, 107
2, 38028, Note_off_c, 0, 60, 64
2, 38040, Note_on_c, 0, 59, 107
2, 38088, Note_off_c, 0, 59, 64
2, 38100, Note_on_c, 0, 61, 107
2, 38148, Note_off_c, 0, 61, 64
2, 38160, Note_on_c, 0, 62, 107
2, 38208, Note_off_c, 0, 62, 64
2, 38220, Note_on_c, 0, 66, 107
2, 38268, Note_off_c, 0, 66, 64
2, 38280, Note_on_c, 0, 64, 107
2, 38328, Note_off_c, 0, 64, 64
2, 38340, Note_on_c, 0, 62, 107
2, 38388, Note_off_c, 0, 62, 64
2, 38400, Note_on_c, 0, 61, 107
2, 38448, Note_off_c, 0, 61, 64
2, 38460, Note_on_c, 0, 63, 107
2, 38508, Note_off_c, 0, 63, 64
2, 38520, Note_on_c, 0, 64, 107
2, 38568, Note_off_c, 0, 64, 64
2, 38580, Note_on_c, 0, 63, 107
2, 38628, Note_off_c, 0, 63, 64
2, 38640, Note_on_c, 0, 64, 107
2, 38688, Note_off_c, 0, 64, 64
2, 38700, Note_on_c, 0, 67, 107
2, 38748, Note_off_c, 0, 67, 64
2, 38760, Note_on_c, 0, 66, 107
2, 38808, Note_off_c, 0, 66, 64
2, 38820, Note_on_c, 0, 57, 107
2, 38868, Note_off_c, 0, 57, 64
2, 38880, Note_on_c, 0, 64, 107
2, 38928, Note_off_c, 0, 64, 64
2, 38940, Note_on_c, 0, 63, 107
2, 38988, Note_off_c, 0, 63, 64
2, 39000, Note_on_c, 0, 64, 107
2, 39048, Note_off_c, 0, 64, 64
2, 39060, Note_on_c, 0, 66, 107
2, 39108, Note_off_c, 0, 66, 64
2, 39120, Note_on_c, 0, 67, 107
2, 39168, Note_off_c, 0, 67, 64
2, 39180, Note_on_c, 0, 69, 107
2, 39228, Note_off_c, 0, 69, 64
2, 39240, Note_on_c, 0, 71, 107
2, 39330, Note_off_c, 0, 71, 64
2, 39360, Note_on_c, 0, 59, 107
2, 39456, Note_off_c, 0, 59, 64
2, 39480, Note_on_c, 0, 60, 107
2, 39576, Note_off_c, 0, 60, 64
2, 39600, Note_on_c, 0, 71, 107
2, 39690, Note_off_c, 0, 71, 64
2, 39720, Note_on_c, 0, 61, 107
2, 39816, Note_off_c, 0, 61, 64
2, 39840, Note_on_c, 0, 62, 107
2, 39936, Note_off_c, 0, 62, 64
2, 39960, Note_on_c, 0, 71, 107
2, 40050, Note_off_c, 0, 71, 64
2, 40080, Note_on_c, 0, 63, 107
2, 40176, Note_off_c, 0, 63, 64
2, 40200, Note_on_c, 0, 64, 107
2, 40368, Note_off_c, 0, 64, 64
2, 40380, Note_on_c, 0, 67, 107
2, 40428, Note_off_c, 0, 67, 64
2, 40440, Note_on_c, 0, 66, 107
2, 40488, Note_off_c, 0, 66, 64
2, 40500, Note_on_c, 0, 64, 107
2, 40548, Note_off_c, 0, 64, 64
2, 40560, Note_on_c, 0, 63, 107
2, 40608, Note_off_c, 0, 63, 64
2, 40620, Note_on_c, 0, 64, 107
2, 40668, Note_off_c, 0, 64, 64
2, 40680, Note_on_c, 0, 66, 107
2, 40728, Note_off_c, 0, 66, 64
2, 40740, Note_on_c, 0, 69, 107
2, 40788, Note_off_c, 0, 69, 64
2, 40800, Note_on_c, 0, 67, 107
2, 40848, Note_off_c, 0, 67, 64
2, 40860, Note_on_c, 0, 66, 107
2, 40908, Note_off_c, 0, 66, 64
2, 40920, Note_on_c, 0, 64, 107
2, 40968, Note_off_c, 0, 64, 64
2, 40980, Note_on_c, 0, 66, 107
2, 41028, Note_off_c, 0, 66, 64
2, 41040, Note_on_c, 0, 67, 107
2, 41088, Note_off_c, 0, 67, 64
2, 41100, Note_on_c, 0, 71, 107
2, 41148, Note_off_c, 0, 71, 64
2, 41160, Note_on_c, 0, 69, 107
2, 41208, Note_off_c, 0, 69, 64
2, 41220, Note_on_c, 0, 67, 107
2, 41268, Note_off_c, 0, 67, 64
2, 41280, Note_on_c, 0, 66, 107
2, 41328, Note_off_c, 0, 66, 64
2, 41340, Note_on_c, 0, 67, 107
2, 41388, Note_off_c, 0, 67, 64
2, 41400, Note_on_c, 0, 69, 107
2, 41448, Note_off_c, 0, 69, 64
2, 41460, Note_on_c, 0, 72, 107
2, 41508, Note_off_c, 0, 72, 64
2, 41520, Note_on_c, 0, 71, 107
2, 41568, Note_off_c, 0, 71, 64
2, 41580, Note_on_c, 0, 69, 107
2, 41628, Note_off_c, 0, 69, 64
2, 41640, Note_on_c, 0, 67, 107
2, 41688, Note_off_c, 0, 67, 64
2, 41700, Note_on_c, 0, 69, 107
2, 41748, Note_off_c, 0, 69, 64
2, 41760, Note_on_c, 0, 71, 107
2, 41850, Note_off_c, 0, 71, 64
2, 41880, Note_on_c, 0, 83, 107
2, 41976, Note_off_c, 0, 83, 64
2, 42000, Note_on_c, 0, 81, 107
2, 42096, Note_off_c, 0, 81, 64
2, 42120, Note_on_c, 0, 79, 107
2, 42210, Note_off_c, 0, 79, 64
2, 42240, Note_on_c, 0, 72, 107
2, 42336, Note_off_c, 0, 72, 64
2, 42360, Note_on_c, 0, 71, 107
2, 42456, Note_off_c, 0, 71, 64
2, 42480, Note_on_c, 0, 69, 107
2, 42570, Note_off_c, 0, 69, 64
2, 42600, Note_on_c, 0, 76, 107
2, 42696, Note_off_c, 0, 76, 64
2, 42720, Note_on_c, 0, 74, 107
2, 42816, Note_off_c, 0, 74, 64
2, 42840, Note_on_c, 0, 72, 107
2, 42936, Note_off_c, 0, 72, 64
2, 42960, Note_on_c, 0, 64, 107
2, 43056, Note_off_c, 0, 64, 64
2, 43080, Note_on_c, 0, 62, 107
2, 43248, Note_off_c, 0, 62, 64
2, 43260, Note_on_c, 0, 66, 107
2, 43308, Note_off_c, 0, 66, 64
2, 43320, Note_on_c, 0, 69, 107
2, 43368, Note_off_c, 0, 69, 64
2, 43380, Note_on_c, 0, 72, 107
2, 43428, Note_off_c, 0, 72, 64
2, 43440, Note_on_c, 0, 71, 107
2, 43488, Note_off_c, 0, 71, 64
2, 43500, Note_on_c, 0, 69, 107
2, 43548, Note_off_c, 0, 69, 64
2, 43560, Note_on_c, 0, 71, 107
2, 43560, Note_on_c, 0, 55, 107
2, 43608, Note_off_c, 0, 55, 64
2, 43620, Note_on_c, 0, 59, 107
2, 43668, Note_off_c, 0, 59, 64
2, 43680, Note_on_c, 0, 62, 107
2, 43728, Note_off_c, 0, 62, 64
2, 43740, Note_on_c, 0, 65, 107
2, 43788, Note_off_c, 0, 65, 64
2, 43800, Note_on_c, 0, 64, 107
2, 43848, Note_off_c, 0, 64, 64
2, 43860, Note_on_c, 0, 62, 107
2, 43908, Note_off_c, 0, 62, 64
2, 43920, Note_on_c, 0, 64, 107
2, 44064, Note_off_c, 0, 71, 64
2, 44100, Note_on_c, 0, 74, 107
2, 44148, Note_off_c, 0, 74, 64
2, 44160, Note_on_c, 0, 72, 107
2, 44208, Note_off_c, 0, 72, 64
2, 44220, Note_on_c, 0, 71, 107
2, 44268, Note_off_c, 0, 71, 64
2, 44280, Note_on_c, 0, 69, 107
2, 44328, Note_off_c, 0, 64, 64
2, 44340, Note_on_c, 0, 57, 107
2, 44388, Note_off_c, 0, 57, 64
2, 44400, Note_on_c, 0, 60, 107
2, 44448, Note_off_c, 0, 60, 64
2, 44460, Note_on_c, 0, 64, 107
2, 44508, Note_off_c, 0, 64, 64
2, 44520, Note_on_c, 0, 62, 107
2, 44568, Note_off_c, 0, 62, 64
2, 44580, Note_on_c, 0, 60, 107
2, 44628, Note_off_c, 0, 60, 64
2, 44640, Note_on_c, 0, 59, 107
2, 44688, Note_off_c, 0, 69, 64
2, 44700, Note_on_c, 0, 62, 107
2, 44748, Note_off_c, 0, 62, 64
2, 44760, Note_on_c, 0, 66, 107
2, 44808, Note_off_c, 0, 66, 64
2, 44820, Note_on_c, 0, 69, 107
2, 44868, Note_off_c, 0, 69, 64
2, 44880, Note_on_c, 0, 67, 107
2, 44928, Note_off_c, 0, 67, 64
2, 44940, Note_on_c, 0, 66, 107
2, 44988, Note_off_c, 0, 66, 64
2, 45000, Note_on_c, 0, 67, 107
2, 45048, Note_off_c, 0, 67, 64
2, 45060, Note_on_c, 0, 71, 107
2, 45096, Note_off_c, 0, 59, 64
2, 45108, Note_off_c, 0, 71, 64
2, 45120, Note_on_c, 0, 73, 107
2, 45120, Note_on_c, 0, 57, 107
2, 45168, Note_off_c, 0, 73, 64
2, 45180, Note_on_c, 0, 76, 107
2, 45216, Note_off_c, 0, 57, 64
2, 45228, Note_off_c, 0, 76, 64
2, 45240, Note_on_c, 0, 67, 107
2, 45240, Note_on_c, 0, 74, 107
2, 45288, Note_off_c, 0, 74, 64
2, 45300, Note_on_c, 0, 73, 107
2, 45348, Note_off_c, 0, 73, 64
2, 45360, Note_on_c, 0, 74, 107
2, 45456, Note_off_c, 0, 67, 64
2, 45456, Note_off_c, 0, 74, 64
2, 45480, Note_on_c, 0, 69, 107
2, 45480, Note_on_c, 0, 66, 107
2, 45576, Note_off_c, 0, 69, 64
2, 45600, Note_on_c, 0, 74, 107
2, 45672, Note_off_c, 0, 66, 64
2, 45696, Note_off_c, 0, 74, 64
2, 45720, Note_on_c, 0, 74, 107
2, 45720, Note_on_c, 0, 64, 107
2, 45816, Note_off_c, 0, 74, 64
2, 45840, Note_on_c, 0, 72, 107
2, 45888, Note_off_c, 0, 72, 64
2, 45900, Note_on_c, 0, 71, 107
2, 45912, Note_off_c, 0, 64, 64
2, 45948, Note_off_c, 0, 71, 64
2, 45960, Note_on_c, 0, 69, 107
2, 45960, Note_on_c, 0, 72, 107
2, 46056, Note_off_c, 0, 72, 64
2, 46080, Note_on_c, 0, 71, 107
2, 46176, Note_off_c, 0, 69, 64
2, 46200, Note_on_c, 0, 67, 107
2, 46248, Note_off_c, 0, 67, 64
2, 46260, Note_on_c, 0, 66, 107
2, 46308, Note_off_c, 0, 66, 64
2, 46320, Note_on_c, 0, 64, 107
2, 46368, Note_off_c, 0, 64, 64
2, 46380, Note_on_c, 0, 63, 107
2, 46428, Note_off_c, 0, 63, 64
2, 46440, Note_on_c, 0, 64, 107
2, 46536, Note_off_c, 0, 71, 64
2, 46560, Note_on_c, 0, 76, 107
2, 46656, Note_off_c, 0, 76, 64
2, 46680, Note_on_c, 0, 72, 107
2, 46776, Note_off_c, 0, 72, 64
2, 46800, Note_on_c, 0, 69, 107
2, 46896, Note_off_c, 0, 69, 64
2, 46920, Note_on_c, 0, 71, 107
2, 47016, Note_off_c, 0, 71, 64
2, 47040, Note_on_c, 0, 72, 107
2, 47088, Note_off_c, 0, 64, 64
2, 47160, Note_on_c, 0, 69, 107
2, 47256, Note_off_c, 0, 72, 64
2, 47280, Note_on_c, 0, 71, 107
2, 47352, Note_off_c, 0, 69, 64
2, 47376, Note_off_c, 0, 71, 64
2, 47400, Note_on_c, 0, 76, 107
2, 47400, Note_on_c, 0, 67, 107
2, 47496, Note_off_c, 0, 67, 64
2, 47496, Note_off_c, 0, 76, 64
2, 47520, Note_on_c, 0, 75, 107
2, 47520, Note_on_c, 0, 66, 107
2, 47568, Note_off_c, 0, 75, 64
2, 47580, Note_on_c, 0, 73, 107
2, 47616, Note_off_c, 0, 66, 64
2, 47628, Note_off_c, 0, 73, 64
2, 47640, Note_on_c, 0, 71, 107
2, 47688, Note_off_c, 0, 71, 64
2, 47700, Note_on_c, 0, 73, 107
2, 47748, Note_off_c, 0, 73, 64
2, 47760, Note_on_c, 0, 75, 107
2, 47808, Note_off_c, 0, 75, 64
2, 47820, Note_on_c, 0, 76, 107
2, 47868, Note_off_c, 0, 76, 64
2, 47880, Note_on_c, 0, 78, 107
2, 47970, Note_off_c, 0, 78, 64
2, 48000, Note_on_c, 0, 66, 107
2, 48096, Note_off_c, 0, 66, 64
2, 48120, Note_on_c, 0, 67, 107
2, 48216, Note_off_c, 0, 67, 64
2, 48240, Note_on_c, 0, 78, 107
2, 48330, Note_off_c, 0, 78, 64
2, 48360, Note_on_c, 0, 68, 107
2, 48456, Note_off_c, 0, 68, 64
2, 48480, Note_on_c, 0, 69, 107
2, 48576, Note_off_c, 0, 69, 64
2, 48600, Note_on_c, 0, 78, 107
2, 48690, Note_off_c, 0, 78, 64
2, 48720, Note_on_c, 0, 70, 107
2, 48816, Note_off_c, 0, 70, 64
2, 48840, Note_on_c, 0, 71, 107
2, 48936, Note_off_c, 0, 71, 64
2, 48960, Note_on_c, 0, 72, 107
2, 49056, Note_off_c, 0, 72, 64
2, 49080, Note_on_c, 0, 79, 107
2, 49176, Note_off_c, 0, 79, 64
2, 49200, Note_on_c, 0, 77, 107
2, 49296, Note_off_c, 0, 77, 64
2, 49320, Note_on_c, 0, 76, 107
2, 49440, Note_on_c, 0, 69, 107
2, 49536, Note_off_c, 0, 69, 64
2, 49560, Note_on_c, 0, 67, 107
2, 49656, Note_off_c, 0, 67, 64
2, 49680, Note_on_c, 0, 66, 107
2, 49776, Note_off_c, 0, 76, 64
2, 49800, Note_on_c, 0, 76, 107
2, 49872, Note_off_c, 0, 66, 64
2, 49896, Note_off_c, 0, 76, 64
2, 49920, Note_on_c, 0, 75, 107
2, 49920, Note_on_c, 0, 69, 107
2, 50016, Note_off_c, 0, 69, 64
2, 50016, Note_off_c, 0, 75, 64
2, 50040, Note_on_c, 0, 68, 107
2, 50040, Note_on_c, 0, 76, 107
2, 50136, Note_off_c, 0, 76, 64
2, 50136, Note_off_c, 0, 68, 64
2, 50160, Note_on_c, 0, 64, 107
2, 50160, Note_on_c, 0, 71, 107
2, 50160, Note_on_c, 0, 74, 107
2, 50256, Note_off_c, 0, 74, 64
2, 50256, Note_off_c, 0, 71, 64
2, 50256, Note_off_c, 0, 64, 64
2, 50520, Note_on_c, 0, 64, 107
2, 50520, Note_on_c, 0, 69, 107
2, 50520, Note_on_c, 0, 72, 107
2, 50616, Note_off_c, 0, 72, 64
2, 50616, Note_off_c, 0, 69, 64
2, 50616, Note_off_c, 0, 64, 64
2, 50640, Note_on_c, 0, 71, 107
2, 50640, Note_on_c, 0, 62, 107
2, 50640, Note_on_c, 0, 64, 107
2, 50736, Note_off_c, 0, 64, 64
2, 50736, Note_off_c, 0, 62, 64
2, 50736, Note_off_c, 0, 71, 64
2, 50880, Note_on_c, 0, 69, 107
2, 50880, Note_on_c, 0, 63, 107
2, 50880, Note_on_c, 0, 66, 107
2, 50928, Note_off_c, 0, 69, 64
2, 50940, Note_on_c, 0, 68, 107
2, 50976, Note_off_c, 0, 66, 64
2, 50976, Note_off_c, 0, 63, 64
2, 50988, Note_off_c, 0, 68, 64
2, 51000, Note_on_c, 0, 66, 107
2, 51000, Note_on_c, 0, 69, 107
2, 51096, Note_off_c, 0, 69, 64
2, 51096, Note_off_c, 0, 66, 64
2, 51180, Note_on_c, 0, 66, 107
2, 51228, Note_off_c, 0, 66, 64
2, 51240, Note_on_c, 0, 68, 107
2, 51288, Note_off_c, 0, 68, 64
2, 51300, Note_on_c, 0, 71, 107
2, 51348, Note_off_c, 0, 71, 64
2, 51360, Note_on_c, 0, 76, 107
2, 51408, Note_off_c, 0, 76, 64
2, 51420, Note_on_c, 0, 75, 107
2, 51468, Note_off_c, 0, 75, 64
2, 51480, Note_on_c, 0, 76, 107
2, 51528, Note_off_c, 0, 76, 64
2, 51540, Note_on_c, 0, 71, 107
2, 51588, Note_off_c, 0, 71, 64
2, 51600, Note_on_c, 0, 68, 107
2, 51648, Note_off_c, 0, 68, 64
2, 51660, Note_on_c, 0, 64, 107
2, 51708, Note_off_c, 0, 64, 64
2, 53280, Note_on_c, 0, 59, 107
2, 53328, Note_off_c, 0, 59, 64
2, 53340, Note_on_c, 0, 58, 107
2, 53388, Note_off_c, 0, 58, 64
2, 53400, Note_on_c, 0, 59, 107
2, 53448, Note_off_c, 0, 59, 64
2, 53460, Note_on_c, 0, 61, 107
2, 53508, Note_off_c, 0, 61, 64
2, 53520, Note_on_c, 0, 62, 107
2, 53568, Note_off_c, 0, 62, 64
2, 53580, Note_on_c, 0, 64, 107
2, 53628, Note_off_c, 0, 64, 64
2, 53640, Note_on_c, 0, 66, 107
2, 53730, Note_off_c, 0, 66, 64
2, 53760, Note_on_c, 0, 54, 107
2, 53856, Note_off_c, 0, 54, 64
2, 53880, Note_on_c, 0, 55, 107
2, 53976, Note_off_c, 0, 55, 64
2, 54000, Note_on_c, 0, 66, 107
2, 54090, Note_off_c, 0, 66, 64
2, 54120, Note_on_c, 0, 56, 107
2, 54216, Note_off_c, 0, 56, 64
2, 54240, Note_on_c, 0, 57, 107
2, 54336, Note_off_c, 0, 57, 64
2, 54360, Note_on_c, 0, 66, 107
2, 54450, Note_off_c, 0, 66, 64
2, 54480, Note_on_c, 0, 58, 107
2, 54576, Note_off_c, 0, 58, 64
2, 54600, Note_on_c, 0, 59, 107
2, 54696, Note_off_c, 0, 59, 64
2, 54720, Note_on_c, 0, 60, 107
2, 54768, Note_off_c, 0, 60, 64
2, 54780, Note_on_c, 0, 62, 107
2, 54828, Note_off_c, 0, 62, 64
2, 54840, Note_on_c, 0, 60, 107
2, 54888, Note_off_c, 0, 60, 64
2, 54900, Note_on_c, 0, 59, 107
2, 54948, Note_off_c, 0, 59, 64
2, 54960, Note_on_c, 0, 57, 107
2, 55008, Note_off_c, 0, 57, 64
2, 55020, Note_on_c, 0, 59, 107
2, 55068, Note_off_c, 0, 59, 64
2, 55080, Note_on_c, 0, 60, 107
2, 55128, Note_off_c, 0, 60, 64
2, 55140, Note_on_c, 0, 64, 107
2, 55188, Note_off_c, 0, 64, 64
2, 55200, Note_on_c, 0, 62, 107
2, 55248, Note_off_c, 0, 62, 64
2, 55260, Note_on_c, 0, 60, 107
2, 55308, Note_off_c, 0, 60, 64
2, 55320, Note_on_c, 0, 59, 107
2, 55368, Note_off_c, 0, 59, 64
2, 55380, Note_on_c, 0, 61, 107
2, 55428, Note_off_c, 0, 61, 64
2, 55440, Note_on_c, 0, 62, 107
2, 55488, Note_off_c, 0, 62, 64
2, 55500, Note_on_c, 0, 66, 107
2, 55548, Note_off_c, 0, 66, 64
2, 55560, Note_on_c, 0, 64, 107
2, 55608, Note_off_c, 0, 64, 64
2, 55620, Note_on_c, 0, 62, 107
2, 55668, Note_off_c, 0, 62, 64
2, 55680, Note_on_c, 0, 61, 107
2, 55728, Note_off_c, 0, 61, 64
2, 55740, Note_on_c, 0, 63, 107
2, 55788, Note_off_c, 0, 63, 64
2, 55800, Note_on_c, 0, 64, 107
2, 55848, Note_off_c, 0, 64, 64
2, 55860, Note_on_c, 0, 63, 107
2, 55908, Note_off_c, 0, 63, 64
2, 55920, Note_on_c, 0, 64, 107
2, 55968, Note_off_c, 0, 64, 64
2, 55980, Note_on_c, 0, 67, 107
2, 56028, Note_off_c, 0, 67, 64
2, 56040, Note_on_c, 0, 66, 107
2, 56088, Note_off_c, 0, 66, 64
2, 56100, Note_on_c, 0, 57, 107
2, 56148, Note_off_c, 0, 57, 64
2, 56160, Note_on_c, 0, 64, 107
2, 56208, Note_off_c, 0, 64, 64
2, 56220, Note_on_c, 0, 63, 107
2, 56268, Note_off_c, 0, 63, 64
2, 56280, Note_on_c, 0, 64, 107
2, 56328, Note_off_c, 0, 64, 64
2, 56340, Note_on_c, 0, 66, 107
2, 56388, Note_off_c, 0, 66, 64
2, 56400, Note_on_c, 0, 67, 107
2, 56448, Note_off_c, 0, 67, 64
2, 56460, Note_on_c, 0, 69, 107
2, 56508, Note_off_c, 0, 69, 64
2, 56520, Note_on_c, 0, 71, 107
2, 56610, Note_off_c, 0, 71, 64
2, 56640, Note_on_c, 0, 59, 107
2, 56736, Note_off_c, 0, 59, 64
2, 56760, Note_on_c, 0, 60, 107
2, 56856, Note_off_c, 0, 60, 64
2, 56880, Note_on_c, 0, 71, 107
2, 56970, Note_off_c, 0, 71, 64
2, 57000, Note_on_c, 0, 61, 107
2, 57096, Note_off_c, 0, 61, 64
2, 57120, Note_on_c, 0, 62, 107
2, 57216, Note_off_c, 0, 62, 64
2, 57240, Note_on_c, 0, 71, 107
2, 57330, Note_off_c, 0, 71, 64
2, 57360, Note_on_c, 0, 63, 107
2, 57456, Note_off_c, 0, 63, 64
2, 57480, Note_on_c, 0, 64, 107
2, 57648, Note_off_c, 0, 64, 64
2, 57660, Note_on_c, 0, 67, 107
2, 57708, Note_off_c, 0, 67, 64
2, 57720, Note_on_c, 0, 66, 107
2, 57768, Note_off_c, 0, 66, 64
2, 57780, Note_on_c, 0, 64, 107
2, 57828, Note_off_c, 0, 64, 64
2, 57840, Note_on_c, 0, 63, 107
2, 57888, Note_off_c, 0, 63, 64
2, 57900, Note_on_c, 0, 64, 107
2, 57948, Note_off_c, 0, 64, 64
2, 57960, Note_on_c, 0, 66, 107
2, 58008, Note_off_c, 0, 66, 64
2, 58020, Note_on_c, 0, 69, 107
2, 58068, Note_off_c, 0, 69, 64
2, 58080, Note_on_c, 0, 67, 107
2, 58128, Note_off_c, 0, 67, 64
2, 58140, Note_on_c, 0, 66, 107
2, 58188, Note_off_c, 0, 66, 64
2, 58200, Note_on_c, 0, 64, 107
2, 58248, Note_off_c, 0, 64, 64
2, 58260, Note_on_c, 0, 66, 107
2, 58308, Note_off_c, 0, 66, 64
2, 58320, Note_on_c, 0, 67, 107
2, 58368, Note_off_c, 0, 67, 64
2, 58380, Note_on_c, 0, 71, 107
2, 58428, Note_off_c, 0, 71, 64
2, 58440, Note_on_c, 0, 69, 107
2, 58488, Note_off_c, 0, 69, 64
2, 58500, Note_on_c, 0, 67, 107
2, 58548, Note_off_c, 0, 67, 64
2, 58560, Note_on_c, 0, 66, 107
2, 58608, Note_off_c, 0, 66, 64
2, 58620, Note_on_c, 0, 67, 107
2, 58668, Note_off_c, 0, 67, 64
2, 58680, Note_on_c, 0, 69, 107
2, 58728, Note_off_c, 0, 69, 64
2, 58740, Note_on_c, 0, 72, 107
2, 58788, Note_off_c, 0, 72, 64
2, 58800, Note_on_c, 0, 71, 107
2, 58848, Note_off_c, 0, 71, 64
2, 58860, Note_on_c, 0, 69, 107
2, 58908, Note_off_c, 0, 69, 64
2, 58920, Note_on_c, 0, 67, 107
2, 58968, Note_off_c, 0, 67, 64
2, 58980, Note_on_c, 0, 69, 107
2, 59028, Note_off_c, 0, 69, 64
2, 59040, Note_on_c, 0, 71, 107
2, 59130, Note_off_c, 0, 71, 64
2, 59160, Note_on_c, 0, 83, 107
2, 59256, Note_off_c, 0, 83, 64
2, 59280, Note_on_c, 0, 81, 107
2, 59376, Note_off_c, 0, 81, 64
2, 59400, Note_on_c, 0, 79, 107
2, 59490, Note_off_c, 0, 79, 64
2, 59520, Note_on_c, 0, 72, 107
2, 59616, Note_off_c, 0, 72, 64
2, 59640, Note_on_c, 0, 71, 107
2, 59736, Note_off_c, 0, 71, 64
2, 59760, Note_on_c, 0, 69, 107
2, 59850, Note_off_c, 0, 69, 64
2, 59880, Note_on_c, 0, 76, 107
2, 59976, Note_off_c, 0, 76, 64
2, 60000, Note_on_c, 0, 74, 107
2, 60096, Note_off_c, 0, 74, 64
2, 60120, Note_on_c, 0, 72, 107
2, 60216, Note_off_c, 0, 72, 64
2, 60240, Note_on_c, 0, 64, 107
2, 60336, Note_off_c, 0, 64, 64
2, 60360, Note_on_c, 0, 62, 107
2, 60528, Note_off_c, 0, 62, 64
2, 60540, Note_on_c, 0, 66, 107
2, 60588, Note_off_c, 0, 66, 64
2, 60600, Note_on_c, 0, 69, 107
2, 60648, Note_off_c, 0, 69, 64
2, 60660, Note_on_c, 0, 72, 107
2, 60708, Note_off_c, 0, 72, 64
2, 60720, Note_on_c, 0, 71, 107
2, 60768, Note_off_c, 0, 71, 64
2, 60780, Note_on_c, 0, 69, 107
2, 60828, Note_off_c, 0, 69, 64
2, 60840, Note_on_c, 0, 71, 107
2, 60840, Note_on_c, 0, 55, 107
2, 60888, Note_off_c, 0, 55, 64
2, 60900, Note_on_c, 0, 59, 107
2, 60948, Note_off_c, 0, 59, 64
2, 60960, Note_on_c, 0, 62, 107
2, 61008, Note_off_c, 0, 62, 64
2, 61020, Note_on_c, 0, 65, 107
2, 61068, Note_off_c, 0, 65, 64
2, 61080, Note_on_c, 0, 64, 107
2, 61128, Note_off_c, 0, 64, 64
2, 61140, Note_on_c, 0, 62, 107
2, 61188, Note_off_c, 0, 62, 64
2, 61200, Note_on_c, 0, 64, 107
2, 61344, Note_off_c, 0, 71, 64
2, 61380, Note_on_c, 0, 74, 107
2, 61428, Note_off_c, 0, 74, 64
2, 61440, Note_on_c, 0, 72, 107
2, 61488, Note_off_c, 0, 72, 64
2, 61500, Note_on_c, 0, 71, 107
2, 61548, Note_off_c, 0, 71, 64
2, 61560, Note_on_c, 0, 69, 107
2, 61608, Note_off_c, 0, 64, 64
2, 61620, Note_on_c, 0, 57, 107
2, 61668, Note_off_c, 0, 57, 64
2, 61680, Note_on_c, 0, 60, 107
2, 61728, Note_off_c, 0, 60, 64
2, 61740, Note_on_c, 0, 64, 107
2, 61788, Note_off_c, 0, 64, 64
2, 61800, Note_on_c, 0, 62, 107
2, 61848, Note_off_c, 0, 62, 64
2, 61860, Note_on_c, 0, 60, 107
2, 61908, Note_off_c, 0, 60, 64
2, 61920, Note_on_c, 0, 59, 107
2, 61968, Note_off_c, 0, 69, 64
2, 61980, Note_on_c, 0, 62, 107
2, 62028, Note_off_c, 0, 62, 64
2, 62040, Note_on_c, 0, 66, 107
2, 62088, Note_off_c, 0, 66, 64
2, 62100, Note_on_c, 0, 69, 107
2, 62148, Note_off_c, 0, 69, 64
2, 62160, Note_on_c, 0, 67, 107
2, 62208, Note_off_c, 0, 67, 64
2, 62220, Note_on_c, 0, 66, 107
2, 62268, Note_off_c, 0, 66, 64
2, 62280, Note_on_c, 0, 67, 107
2, 62328, Note_off_c, 0, 67, 64
2, 62340, Note_on_c, 0, 71, 107
2, 62376, Note_off_c, 0, 59, 64
2, 62388, Note_off_c, 0, 71, 64
2, 62400, Note_on_c, 0, 73, 107
2, 62400, Note_on_c, 0, 57, 107
2, 62448, Note_off_c, 0, 73, 64
2, 62460, Note_on_c, 0, 76, 107
2, 62496, Note_off_c, 0, 57, 64
2, 62508, Note_off_c, 0, 76, 64
2, 62520, Note_on_c, 0, 67, 107
2, 62520, Note_on_c, 0, 74, 107
2, 62568, Note_off_c, 0, 74, 64
2, 62580, Note_on_c, 0, 73, 107
2, 62628, Note_off_c, 0, 73, 64
2, 62640, Note_on_c, 0, 74, 107
2, 62736, Note_off_c, 0, 67, 64
2, 62736, Note_off_c, 0, 74, 64
2, 62760, Note_on_c, 0, 69, 107
2, 62760, Note_on_c, 0, 66, 107
2, 62856, Note_off_c, 0, 69, 64
2, 62880, Note_on_c, 0, 74, 107
2, 62952, Note_off_c, 0, 66, 64
2, 62976, Note_off_c, 0, 74, 64
2, 63000, Note_on_c, 0, 74, 107
2, 63000, Note_on_c, 0, 64, 107
2, 63096, Note_off_c, 0, 74, 64
2, 63120, Note_on_c, 0, 72, 107
2, 63168, Note_off_c, 0, 72, 64
2, 63180, Note_on_c, 0, 71, 107
2, 63192, Note_off_c, 0, 64, 64
2, 63228, Note_off_c, 0, 71, 64
2, 63240, Note_on_c, 0, 69, 107
2, 63240, Note_on_c, 0, 72, 107
2, 63336, Note_off_c, 0, 72, 64
2, 63360, Note_on_c, 0, 71, 107
2, 63456, Note_off_c, 0, 69, 64
2, 63480, Note_on_c, 0, 67, 107
2, 63528, Note_off_c, 0, 67, 64
2, 63540, Note_on_c, 0, 66, 107
2, 63588, Note_off_c, 0, 66, 64
2, 63600, Note_on_c, 0, 64, 107
2, 63648, Note_off_c, 0, 64, 64
2, 63660, Note_on_c, 0, 63, 107
2, 63708, Note_off_c, 0, 63, 64
2, 63720, Note_on_c, 0, 64, 107
2, 63816, Note_off_c, 0, 71, 64
2, 63840, Note_on_c, 0, 76, 107
2, 63936, Note_off_c, 0, 76, 64
2, 63960, Note_on_c, 0, 72, 107
2, 64056, Note_off_c, 0, 72, 64
2, 64080, Note_on_c, 0, 69, 107
2, 64176, Note_off_c, 0, 69, 64
2, 64200, Note_on_c, 0, 71, 107
2, 64296, Note_off_c, 0, 71, 64
2, 64320, Note_on_c, 0, 72, 107
2, 64368, Note_off_c, 0, 64, 64
2, 64440, Note_on_c, 0, 69, 107
2, 64536, Note_off_c, 0, 72, 64
2, 64560, Note_on_c, 0, 71, 107
2, 64632, Note_off_c, 0, 69, 64
2, 64656, Note_off_c, 0, 71, 64
2, 64680, Note_on_c, 0, 76, 107
2, 64680, Note_on_c, 0, 67, 107
2, 64776, Note_off_c, 0, 67, 64
2, 64776, Note_off_c, 0, 76, 64
2, 64800, Note_on_c, 0, 75, 107
2, 64800, Note_on_c, 0, 66, 107
2, 64848, Note_off_c, 0, 75, 64
2, 64860, Note_on_c, 0, 73, 107
2, 64896, Note_off_c, 0, 66, 64
2, 64908, Note_off_c, 0, 73, 64
2, 64920, Note_on_c, 0, 71, 107
2, 64968, Note_off_c, 0, 71, 64
2, 64980, Note_on_c, 0, 73, 107
2, 65028, Note_off_c, 0, 73, 64
2, 65040, Note_on_c, 0, 75, 107
2, 65088, Note_off_c, 0, 75, 64
2, 65100, Note_on_c, 0, 76, 107
2, 65148, Note_off_c, 0, 76, 64
2, 65160, Note_on_c, 0, 78, 107
2, 65250, Note_off_c, 0, 78, 64
2, 65280, Note_on_c, 0, 66, 107
2, 65376, Note_off_c, 0, 66, 64
2, 65400, Note_on_c, 0, 67, 107
2, 65496, Note_off_c, 0, 67, 64
2, 65520, Note_on_c, 0, 78, 107
2, 65610, Note_off_c, 0, 78, 64
2, 65640, Note_on_c, 0, 68, 107
2, 65736, Note_off_c, 0, 68, 64
2, 65760, Note_on_c, 0, 69, 107
2, 65856, Note_off_c, 0, 69, 64
2, 65880, Note_on_c, 0, 78, 107
2, 65970, Note_off_c, 0, 78, 64
2, 66000, Note_on_c, 0, 70, 107
2, 66096, Note_off_c, 0, 70, 64
2, 66120, Note_on_c, 0, 71, 107
2, 66216, Note_off_c, 0, 71, 64
2, 66240, Note_on_c, 0, 72, 107
2, 66336, Note_off_c, 0, 72, 64
2, 66360, Note_on_c, 0, 79, 107
2, 66456, Note_off_c, 0, 79, 64
2, 66480, Note_on_c, 0, 77, 107
2, 66576, Note_off_c, 0, 77, 64
2, 66600, Note_on_c, 0, 76, 107
2, 66720, Note_on_c, 0, 69, 107
2, 66816, Note_off_c, 0, 69, 64
2, 66840, Note_on_c, 0, 67, 107
2, 66936, Note_off_c, 0, 67, 64
2, 66960, Note_on_c, 0, 66, 107
2, 67056, Note_off_c, 0, 76, 64
2, 67080, Note_on_c, 0, 76, 107
2, 67152, Note_off_c, 0, 66, 64
2, 67176, Note_off_c, 0, 76, 64
2, 67200, Note_on_c, 0, 75, 107
2, 67200, Note_on_c, 0, 69, 107
2, 67296, Note_off_c, 0, 69, 64
2, 67296, Note_off_c, 0, 75, 64
2, 67320, Note_on_c, 0, 68, 107
2, 67320, Note_on_c, 0, 76, 107
2, 67416, Note_off_c, 0, 76, 64
2, 67416, Note_off_c, 0, 68, 64
2, 67440, Note_on_c, 0, 64, 107
2, 67440, Note_on_c, 0, 71, 107
2, 67440, Note_on_c, 0, 74, 107
2, 67536, Note_off_c, 0, 74, 64
2, 67536, Note_off_c, 0, 71, 64
2, 67536, Note_off_c, 0, 64, 64
2, 67800, Note_on_c, 0, 64, 107
2, 67800, Note_on_c, 0, 69, 107
2, 67800, Note_on_c, 0, 72, 107
2, 67896, Note_off_c, 0, 72, 64
2, 67896, Note_off_c, 0, 69, 64
2, 67896, Note_off_c, 0, 64, 64
2, 67920, Note_on_c, 0, 71, 107
2, 67920, Note_on_c, 0, 62, 107
2, 67920, Note_on_c, 0, 64, 107
2, 68016, Note_off_c, 0, 64, 64
2, 68016, Note_off_c, 0, 62, 64
2, 68016, Note_off_c, 0, 71, 64
2, 68160, Note_on_c, 0, 69, 107
2, 68160, Note_on_c, 0, 63, 107
2, 68160, Note_on_c, 0, 66, 107
2, 68208, Note_off_c, 0, 69, 64
2, 68220, Note_on_c, 0, 68, 107
2, 68256, Note_off_c, 0, 66, 64
2, 68256, Note_off_c, 0, 63, 64
2, 68268, Note_off_c, 0, 68, 64
2, 68280, Note_on_c, 0, 66, 107
2, 68280, Note_on_c, 0, 69, 107
2, 68376, Note_off_c, 0, 69, 64
2, 68376, Note_off_c, 0, 66, 64
2, 68460, Note_on_c, 0, 66, 107
2, 68508, Note_off_c, 0, 66, 64
2, 68520, Note_on_c, 0, 68, 107
2, 68568, Note_off_c, 0, 68, 64
2, 68580, Note_on_c, 0, 71, 107
2, 68628, Note_off_c, 0, 71, 64
2, 68640, Note_on_c, 0, 76, 107
2, 68688, Note_off_c, 0, 76, 64
2, 68700, Note_on_c, 0, 75, 107
2, 68748, Note_off_c, 0, 75, 64
2, 68760, Note_on_c, 0, 76, 107
2, 68808, Note_off_c, 0, 76, 64
2, 68820, Note_on_c, 0, 71, 107
2, 68868, Note_off_c, 0, 71, 64
2, 68880, Note_on_c, 0, 68, 107
2, 68928, Note_off_c, 0, 68, 64
2, 68940, Note_on_c, 0, 64, 107
2, 68988, Note_off_c, 0, 64, 64
2, 68988, End_track
3, 0, Start_track
3, 0, Title_t, "J.S. Bach, Edition Kalmus"
3, 0, Program_c, 1, 0
3, 4320, Note_on_c, 1, 59, 107
3, 4368, Note_off_c, 1, 59, 64
3, 4380, Note_on_c, 1, 60, 107
3, 4428, Note_off_c, 1, 60, 64
3, 4440, Note_on_c, 1, 59, 107
3, 4488, Note_off_c, 1, 59, 64
3, 4500, Note_on_c, 1, 57, 107
3, 4548, Note_off_c, 1, 57, 64
3, 4560, Note_on_c, 1, 55, 107
3, 4608, Note_off_c, 1, 55, 64
3, 4620, Note_on_c, 1, 54, 107
3, 4668, Note_off_c, 1, 54, 64
3, 4680, Note_on_c, 1, 52, 107
3, 4770, Note_off_c, 1, 52, 64
3, 4800, Note_on_c, 1, 64, 107
3, 4896, Note_off_c, 1, 64, 64
3, 4920, Note_on_c, 1, 63, 107
3, 5016, Note_off_c, 1, 63, 64
3, 5040, Note_on_c, 1, 52, 107
3, 5130, Note_off_c, 1, 52, 64
3, 5160, Note_on_c, 1, 62, 107
3, 5256, Note_off_c, 1, 62, 64
3, 5280, Note_on_c, 1, 61, 107
3, 5376, Note_off_c, 1, 61, 64
3, 5400, Note_on_c, 1, 52, 107
3, 5490, Note_off_c, 1, 52, 64
3, 5520, Note_on_c, 1, 60, 107
3, 5616, Note_off_c, 1, 60, 64
3, 5640, Note_on_c, 1, 59, 107
3, 5736, Note_off_c, 1, 59, 64
3, 5760, Note_on_c, 1, 57, 107
3, 5808, Note_off_c, 1, 57, 64
3, 5820, Note_on_c, 1, 62, 107
3, 5868, Note_off_c, 1, 62, 64
3, 5880, Note_on_c, 1, 59, 107
3, 5928, Note_off_c, 1, 59, 64
3, 5940, Note_on_c, 1, 55, 107
3, 5988, Note_off_c, 1, 55, 64
3, 6000, Note_on_c, 1, 60, 107
3, 6048, Note_off_c, 1, 60, 64
3, 6060, Note_on_c, 1, 59, 107
3, 6108, Note_off_c, 1, 59, 64
3, 6120, Note_on_c, 1, 57, 107
3, 6168, Note_off_c, 1, 57, 64
3, 6180, Note_on_c, 1, 60, 107
3, 6228, Note_off_c, 1, 60, 64
3, 6240, Note_on_c, 1, 57, 107
3, 6288, Note_off_c, 1, 57, 64
3, 6300, Note_on_c, 1, 54, 107
3, 6348, Note_off_c, 1, 54, 64
3, 6360, Note_on_c, 1, 59, 107
3, 6408, Note_off_c, 1, 59, 64
3, 6420, Note_on_c, 1, 57, 107
3, 6468, Note_off_c, 1, 57, 64
3, 6480, Note_on_c, 1, 56, 107
3, 6528, Note_off_c, 1, 56, 64
3, 6540, Note_on_c, 1, 59, 107
3, 6588, Note_off_c, 1, 59, 64
3, 6600, Note_on_c, 1, 56, 107
3, 6648, Note_off_c, 1, 56, 64
3, 6660, Note_on_c, 1, 52, 107
3, 6708, Note_off_c, 1, 52, 64
3, 6720, Note_on_c, 1, 57, 107
3, 6768, Note_off_c, 1, 57, 64
3, 6780, Note_on_c, 1, 55, 107
3, 6828, Note_off_c, 1, 55, 64
3, 6840, Note_on_c, 1, 54, 107
3, 6936, Note_off_c, 1, 54, 64
3, 6960, Note_on_c, 1, 64, 107
3, 7056, Note_off_c, 1, 64, 64
3, 7080, Note_on_c, 1, 63, 107
3, 7176, Note_off_c, 1, 63, 64
3, 7200, Note_on_c, 1, 64, 107
3, 7290, Note_off_c, 1, 64, 64
3, 7320, Note_on_c, 1, 52, 107
3, 7416, Note_off_c, 1, 52, 64
3, 7440, Note_on_c, 1, 50, 107
3, 7536, Note_off_c, 1, 50, 64
3, 7560, Note_on_c, 1, 48, 107
3, 7650, Note_off_c, 1, 48, 64
3, 7680, Note_on_c, 1, 60, 107
3, 7776, Note_off_c, 1, 60, 64
3, 7800, Note_on_c, 1, 59, 107
3, 7896, Note_off_c, 1, 59, 64
3, 7920, Note_on_c, 1, 57, 107
3, 8010, Note_off_c, 1, 57, 64
3, 8040, Note_on_c, 1, 45, 107
3, 8136, Note_off_c, 1, 45, 64
3, 8160, Note_on_c, 1, 43, 107
3, 8256, Note_off_c, 1, 43, 64
3, 8280, Note_on_c, 1, 42, 107
3, 8370, Note_off_c, 1, 42, 64
3, 8400, Note_on_c, 1, 54, 107
3, 8496, Note_off_c, 1, 54, 64
3, 8520, Note_on_c, 1, 52, 107
3, 8616, Note_off_c, 1, 52, 64
3, 8640, Note_on_c, 1, 51, 107
3, 8928, Note_off_c, 1, 51, 64
3, 9000, Note_on_c, 1, 52, 107
3, 9048, Note_off_c, 1, 52, 64
3, 9060, Note_on_c, 1, 55, 107
3, 9108, Note_off_c, 1, 55, 64
3, 9120, Note_on_c, 1, 59, 107
3, 9168, Note_off_c, 1, 59, 64
3, 9180, Note_on_c, 1, 62, 107
3, 9228, Note_off_c, 1, 62, 64
3, 9240, Note_on_c, 1, 61, 107
3, 9288, Note_off_c, 1, 61, 64
3, 9300, Note_on_c, 1, 59, 107
3, 9348, Note_off_c, 1, 59, 64
3, 9360, Note_on_c, 1, 61, 107
3, 9360, Note_on_c, 1, 58, 107
3, 9456, Note_off_c, 1, 61, 64
3, 9480, Note_on_c, 1, 62, 107
3, 9576, Note_off_c, 1, 62, 64
3, 9600, Note_on_c, 1, 64, 107
3, 9648, Note_off_c, 1, 58, 64
3, 9696, Note_off_c, 1, 64, 64
3, 9720, Note_on_c, 1, 57, 107
3, 9816, Note_off_c, 1, 57, 64
3, 9840, Note_on_c, 1, 56, 107
3, 9936, Note_off_c, 1, 56, 64
3, 9960, Note_on_c, 1, 54, 107
3, 10176, Note_off_c, 1, 54, 64
3, 10200, Note_on_c, 1, 47, 107
3, 10296, Note_off_c, 1, 47, 64
3, 10320, Note_on_c, 1, 49, 107
3, 10368, Note_off_c, 1, 49, 64
3, 10380, Note_on_c, 1, 51, 107
3, 10428, Note_off_c, 1, 51, 64
3, 10440, Note_on_c, 1, 52, 107
3, 10536, Note_off_c, 1, 52, 64
3, 10560, Note_on_c, 1, 54, 107
3, 10656, Note_off_c, 1, 54, 64
3, 10680, Note_on_c, 1, 56, 107
3, 10776, Note_off_c, 1, 56, 64
3, 10800, Note_on_c, 1, 58, 107
3, 10848, Note_off_c, 1, 58, 64
3, 10860, Note_on_c, 1, 61, 107
3, 10908, Note_off_c, 1, 61, 64
3, 10920, Note_on_c, 1, 58, 107
3, 10968, Note_off_c, 1, 58, 64
3, 10980, Note_on_c, 1, 54, 107
3, 11028, Note_off_c, 1, 54, 64
3, 11040, Note_on_c, 1, 59, 107
3, 11088, Note_off_c, 1, 59, 64
3, 11100, Note_on_c, 1, 57, 107
3, 11148, Note_off_c, 1, 57, 64
3, 11160, Note_on_c, 1, 56, 107
3, 11208, Note_off_c, 1, 56, 64
3, 11220, Note_on_c, 1, 59, 107
3, 11268, Note_off_c, 1, 59, 64
3, 11280, Note_on_c, 1, 56, 107
3, 11328, Note_off_c, 1, 56, 64
3, 11340, Note_on_c, 1, 52, 107
3, 11388, Note_off_c, 1, 52, 64
3, 11400, Note_on_c, 1, 57, 107
3, 11448, Note_off_c, 1, 57, 64
3, 11460, Note_on_c, 1, 55, 107
3, 11508, Note_off_c, 1, 55, 64
3, 11520, Note_on_c, 1, 54, 107
3, 11568, Note_off_c, 1, 54, 64
3, 11580, Note_on_c, 1, 57, 107
3, 11628, Note_off_c, 1, 57, 64
3, 11640, Note_on_c, 1, 54, 107
3, 11688, Note_off_c, 1, 54, 64
3, 11700, Note_on_c, 1, 50, 107
3, 11748, Note_off_c, 1, 50, 64
3, 11760, Note_on_c, 1, 55, 107
3, 11808, Note_off_c, 1, 55, 64
3, 11820, Note_on_c, 1, 54, 107
3, 11868, Note_off_c, 1, 54, 64
3, 11880, Note_on_c, 1, 52, 107
3, 11928, Note_off_c, 1, 52, 64
3, 11940, Note_on_c, 1, 55, 107
3, 11988, Note_off_c, 1, 55, 64
3, 12000, Note_on_c, 1, 52, 107
3, 12048, Note_off_c, 1, 52, 64
3, 12060, Note_on_c, 1, 49, 107
3, 12108, Note_off_c, 1, 49, 64
3, 12120, Note_on_c, 1, 54, 107
3, 12168, Note_off_c, 1, 54, 64
3, 12180, Note_on_c, 1, 52, 107
3, 12228, Note_off_c, 1, 52, 64
3, 12240, Note_on_c, 1, 50, 107
3, 12336, Note_off_c, 1, 50, 64
3, 12360, Note_on_c, 1, 47, 107
3, 12450, Note_off_c, 1, 47, 64
3, 12480, Note_on_c, 1, 59, 107
3, 12696, Note_off_c, 1, 59, 64
3, 12720, Note_on_c, 1, 47, 107
3, 12810, Note_off_c, 1, 47, 64
3, 12840, Note_on_c, 1, 59, 107
3, 13056, Note_off_c, 1, 59, 64
3, 13080, Note_on_c, 1, 47, 107
3, 13176, Note_off_c, 1, 47, 64
3, 13200, Note_on_c, 1, 59, 107
3, 13368, Note_off_c, 1, 59, 64
3, 13380, Note_on_c, 1, 60, 107
3, 13428, Note_off_c, 1, 60, 64
3, 13440, Note_on_c, 1, 59, 107
3, 13488, Note_off_c, 1, 59, 64
3, 13500, Note_on_c, 1, 57, 107
3, 13548, Note_off_c, 1, 57, 64
3, 13560, Note_on_c, 1, 55, 107
3, 13608, Note_off_c, 1, 55, 64
3, 13620, Note_on_c, 1, 54, 107
3, 13668, Note_off_c, 1, 54, 64
3, 13680, Note_on_c, 1, 52, 107
3, 13770, Note_off_c, 1, 52, 64
3, 13800, Note_on_c, 1, 64, 107
3, 13896, Note_off_c, 1, 64, 64
3, 13920, Note_on_c, 1, 63, 107
3, 14016, Note_off_c, 1, 63, 64
3, 14040, Note_on_c, 1, 52, 107
3, 14130, Note_off_c, 1, 52, 64
3, 14160, Note_on_c, 1, 62, 107
3, 14256, Note_off_c, 1, 62, 64
3, 14280, Note_on_c, 1, 61, 107
3, 14376, Note_off_c, 1, 61, 64
3, 14400, Note_on_c, 1, 52, 107
3, 14490, Note_off_c, 1, 52, 64
3, 14520, Note_on_c, 1, 60, 107
3, 14616, Note_off_c, 1, 60, 64
3, 14640, Note_on_c, 1, 59, 107
3, 14736, Note_off_c, 1, 59, 64
3, 14760, Note_on_c, 1, 58, 107
3, 14904, Note_off_c, 1, 58, 64
3, 14940, Note_on_c, 1, 54, 107
3, 14988, Note_off_c, 1, 54, 64
3, 15000, Note_on_c, 1, 59, 107
3, 15168, Note_off_c, 1, 59, 64
3, 15180, Note_on_c, 1, 52, 107
3, 15228, Note_off_c, 1, 52, 64
3, 15240, Note_on_c, 1, 54, 107
3, 15336, Note_off_c, 1, 54, 64
3, 15360, Note_on_c, 1, 42, 107
3, 15456, Note_off_c, 1, 42, 64
3, 15480, Note_on_c, 1, 59, 107
3, 15480, Note_on_c, 1, 47, 107
3, 15576, Note_off_c, 1, 47, 64
3, 15576, Note_off_c, 1, 59, 64
3, 15600, Note_on_c, 1, 57, 107
3, 15600, Note_on_c, 1, 54, 107
3, 15696, Note_off_c, 1, 54, 64
3, 15696, Note_off_c, 1, 57, 64
3, 15960, Note_on_c, 1, 47, 107
3, 15960, Note_on_c, 1, 52, 107
3, 15960, Note_on_c, 1, 55, 107
3, 16056, Note_off_c, 1, 55, 64
3, 16056, Note_off_c, 1, 52, 64
3, 16056, Note_off_c, 1, 47, 64
3, 16080, Note_on_c, 1, 54, 107
3, 16080, Note_on_c, 1, 45, 107
3, 16080, Note_on_c, 1, 47, 107
3, 16176, Note_off_c, 1, 47, 64
3, 16176, Note_off_c, 1, 45, 64
3, 16176, Note_off_c, 1, 54, 64
3, 16320, Note_on_c, 1, 52, 107
3, 16320, Note_on_c, 1, 43, 107
3, 16320, Note_on_c, 1, 47, 107
3, 16368, Note_off_c, 1, 52, 64
3, 16380, Note_on_c, 1, 51, 107
3, 16416, Note_off_c, 1, 47, 64
3, 16416, Note_off_c, 1, 43, 64
3, 16428, Note_off_c, 1, 51, 64
3, 16440, Note_on_c, 1, 49, 107
3, 16440, Note_on_c, 1, 52, 107
3, 16440, Note_on_c, 1, 40, 107
3, 16536, Note_off_c, 1, 40, 64
3, 16536, Note_off_c, 1, 52, 64
3, 16536, Note_off_c, 1, 49, 64
3, 16620, Note_on_c, 1, 47, 107
3, 16668, Note_off_c, 1, 47, 64
3, 16680, Note_on_c, 1, 51, 107
3, 16728, Note_off_c, 1, 51, 64
3, 16740, Note_on_c, 1, 54, 107
3, 16788, Note_off_c, 1, 54, 64
3, 16800, Note_on_c, 1, 59, 107
3, 16848, Note_off_c, 1, 59, 64
3, 16860, Note_on_c, 1, 58, 107
3, 16908, Note_off_c, 1, 58, 64
3, 16920, Note_on_c, 1, 59, 107
3, 16968, Note_off_c, 1, 59, 64
3, 16980, Note_on_c, 1, 54, 107
3, 17028, Note_off_c, 1, 54, 64
3, 17040, Note_on_c, 1, 51, 107
3, 17088, Note_off_c, 1, 51, 64
3, 17100, Note_on_c, 1, 47, 107
3, 17148, Note_off_c, 1, 47, 64
3, 17160, Note_on_c, 1, 59, 107
3, 17256, Note_off_c, 1, 59, 64
3, 21600, Note_on_c, 1, 59, 107
3, 21648, Note_off_c, 1, 59, 64
3, 21660, Note_on_c, 1, 60, 107
3, 21708, Note_off_c, 1, 60, 64
3, 21720, Note_on_c, 1, 59, 107
3, 21768, Note_off_c, 1, 59, 64
3, 21780, Note_on_c, 1, 57, 107
3, 21828, Note_off_c, 1, 57, 64
3, 21840, Note_on_c, 1, 55, 107
3, 21888, Note_off_c, 1, 55, 64
3, 21900, Note_on_c, 1, 54, 107
3, 21948, Note_off_c, 1, 54, 64
3, 21960, Note_on_c, 1, 52, 107
3, 22050, Note_off_c, 1, 52, 64
3, 22080, Note_on_c, 1, 64, 107
3, 22176, Note_off_c, 1, 64, 64
3, 22200, Note_on_c, 1, 63, 107
3, 22296, Note_off_c, 1, 63, 64
3, 22320, Note_on_c, 1, 52, 107
3, 22410, Note_off_c, 1, 52, 64
3, 22440, Note_on_c, 1, 62, 107
3, 22536, Note_off_c, 1, 62, 64
3, 22560, Note_on_c, 1, 61, 107
3, 22656, Note_off_c, 1, 61, 64
3, 22680, Note_on_c, 1, 52, 107
3, 22770, Note_off_c, 1, 52, 64
3, 22800, Note_on_c, 1, 60, 107
3, 22896, Note_off_c, 1, 60, 64
3, 22920, Note_on_c, 1, 59, 107
3, 23016, Note_off_c, 1, 59, 64
3, 23040, Note_on_c, 1, 57, 107
3, 23088, Note_off_c, 1, 57, 64
3, 23100, Note_on_c, 1, 62, 107
3, 23148, Note_off_c, 1, 62, 64
3, 23160, Note_on_c, 1, 59, 107
3, 23208, Note_off_c, 1, 59, 64
3, 23220, Note_on_c, 1, 55, 107
3, 23268, Note_off_c, 1, 55, 64
3, 23280, Note_on_c, 1, 60, 107
3, 23328, Note_off_c, 1, 60, 64
3, 23340, Note_on_c, 1, 59, 107
3, 23388, Note_off_c, 1, 59, 64
3, 23400, Note_on_c, 1, 57, 107
3, 23448, Note_off_c, 1, 57, 64
3, 23460, Note_on_c, 1, 60, 107
3, 23508, Note_off_c, 1, 60, 64
3, 23520, Note_on_c, 1, 57, 107
3, 23568, Note_off_c, 1, 57, 64
3, 23580, Note_on_c, 1, 54, 107
3, 23628, Note_off_c, 1, 54, 64
3, 23640, Note_on_c, 1, 59, 107
3, 23688, Note_off_c, 1, 59, 64
3, 23700, Note_on_c, 1, 57, 107
3, 23748, Note_off_c, 1, 57, 64
3, 23760, Note_on_c, 1, 56, 107
3, 23808, Note_off_c, 1, 56, 64
3, 23820, Note_on_c, 1, 59, 107
3, 23868, Note_off_c, 1, 59, 64
3, 23880, Note_on_c, 1, 56, 107
3, 23928, Note_off_c, 1, 56, 64
3, 23940, Note_on_c, 1, 52, 107
3, 23988, Note_off_c, 1, 52, 64
3, 24000, Note_on_c, 1, 57, 107
3, 24048, Note_off_c, 1, 57, 64
3, 24060, Note_on_c, 1, 55, 107
3, 24108, Note_off_c, 1, 55, 64
3, 24120, Note_on_c, 1, 54, 107
3, 24216, Note_off_c, 1, 54, 64
3, 24240, Note_on_c, 1, 64, 107
3, 24336, Note_off_c, 1, 64, 64
3, 24360, Note_on_c, 1, 63, 107
3, 24456, Note_off_c, 1, 63, 64
3, 24480, Note_on_c, 1, 64, 107
3, 24570, Note_off_c, 1, 64, 64
3, 24600, Note_on_c, 1, 52, 107
3, 24696, Note_off_c, 1, 52, 64
3, 24720, Note_on_c, 1, 50, 107
3, 24816, Note_off_c, 1, 50, 64
3, 24840, Note_on_c, 1, 48, 107
3, 24930, Note_off_c, 1, 48, 64
3, 24960, Note_on_c, 1, 60, 107
3, 25056, Note_off_c, 1, 60, 64
3, 25080, Note_on_c, 1, 59, 107
3, 25176, Note_off_c, 1, 59, 64
3, 25200, Note_on_c, 1, 57, 107
3, 25290, Note_off_c, 1, 57, 64
3, 25320, Note_on_c, 1, 45, 107
3, 25416, Note_off_c, 1, 45, 64
3, 25440, Note_on_c, 1, 43, 107
3, 25536, Note_off_c, 1, 43, 64
3, 25560, Note_on_c, 1, 42, 107
3, 25650, Note_off_c, 1, 42, 64
3, 25680, Note_on_c, 1, 54, 107
3, 25776, Note_off_c, 1, 54, 64
3, 25800, Note_on_c, 1, 52, 107
3, 25896, Note_off_c, 1, 52, 64
3, 25920, Note_on_c, 1, 51, 107
3, 26208, Note_off_c, 1, 51, 64
3, 26280, Note_on_c, 1, 52, 107
3, 26328, Note_off_c, 1, 52, 64
3, 26340, Note_on_c, 1, 55, 107
3, 26388, Note_off_c, 1, 55, 64
3, 26400, Note_on_c, 1, 59, 107
3, 26448, Note_off_c, 1, 59, 64
3, 26460, Note_on_c, 1, 62, 107
3, 26508, Note_off_c, 1, 62, 64
3, 26520, Note_on_c, 1, 61, 107
3, 26568, Note_off_c, 1, 61, 64
3, 26580, Note_on_c, 1, 59, 107
3, 26628, Note_off_c, 1, 59, 64
3, 26640, Note_on_c, 1, 61, 107
3, 26640, Note_on_c, 1, 58, 107
3, 26736, Note_off_c, 1, 61, 64
3, 26760, Note_on_c, 1, 62, 107
3, 26856, Note_off_c, 1, 62, 64
3, 26880, Note_on_c, 1, 64, 107
3, 26928, Note_off_c, 1, 58, 64
3, 26976, Note_off_c, 1, 64, 64
3, 27000, Note_on_c, 1, 57, 107
3, 27096, Note_off_c, 1, 57, 64
3, 27120, Note_on_c, 1, 56, 107
3, 27216, Note_off_c, 1, 56, 64
3, 27240, Note_on_c, 1, 54, 107
3, 27456, Note_off_c, 1, 54, 64
3, 27480, Note_on_c, 1, 47, 107
3, 27576, Note_off_c, 1, 47, 64
3, 27600, Note_on_c, 1, 49, 107
3, 27648, Note_off_c, 1, 49, 64
3, 27660, Note_on_c, 1, 51, 107
3, 27708, Note_off_c, 1, 51, 64
3, 27720, Note_on_c, 1, 52, 107
3, 27816, Note_off_c, 1, 52, 64
3, 27840, Note_on_c, 1, 54, 107
3, 27936, Note_off_c, 1, 54, 64
3, 27960, Note_on_c, 1, 56, 107
3, 28056, Note_off_c, 1, 56, 64
3, 28080, Note_on_c, 1, 58, 107
3, 28128, Note_off_c, 1, 58, 64
3, 28140, Note_on_c, 1, 61, 107
3, 28188, Note_off_c, 1, 61, 64
3, 28200, Note_on_c, 1, 58, 107
3, 28248, Note_off_c, 1, 58, 64
3, 28260, Note_on_c, 1, 54, 107
3, 28308, Note_off_c, 1, 54, 64
3, 28320, Note_on_c, 1, 59, 107
3, 28368, Note_off_c, 1, 59, 64
3, 28380, Note_on_c, 1, 57, 107
3, 28428, Note_off_c, 1, 57, 64
3, 28440, Note_on_c, 1, 56, 107
3, 28488, Note_off_c, 1, 56, 64
3, 28500, Note_on_c, 1, 59, 107
3, 28548, Note_off_c, 1, 59, 64
3, 28560, Note_on_c, 1, 56, 107
3, 28608, Note_off_c, 1, 56, 64
3, 28620, Note_on_c, 1, 52, 107
3, 28668, Note_off_c, 1, 52, 64
3, 28680, Note_on_c, 1, 57, 107
3, 28728, Note_off_c, 1, 57, 64
3, 28740, Note_on_c, 1, 55, 107
3, 28788, Note_off_c, 1, 55, 64
3, 28800, Note_on_c, 1, 54, 107
3, 28848, Note_off_c, 1, 54, 64
3, 28860, Note_on_c, 1, 57, 107
3, 28908, Note_off_c, 1, 57, 64
3, 28920, Note_on_c, 1, 54, 107
3, 28968, Note_off_c, 1, 54, 64
3, 28980, Note_on_c, 1, 50, 107
3, 29028, Note_off_c, 1, 50, 64
3, 29040, Note_on_c, 1, 55, 107
3, 29088, Note_off_c, 1, 55, 64
3, 29100, Note_on_c, 1, 54, 107
3, 29148, Note_off_c, 1, 54, 64
3, 29160, Note_on_c, 1, 52, 107
3, 29208, Note_off_c, 1, 52, 64
3, 29220, Note_on_c, 1, 55, 107
3, 29268, Note_off_c, 1, 55, 64
3, 29280, Note_on_c, 1, 52, 107
3, 29328, Note_off_c, 1, 52, 64
3, 29340, Note_on_c, 1, 49, 107
3, 29388, Note_off_c, 1, 49, 64
3, 29400, Note_on_c, 1, 54, 107
3, 29448, Note_off_c, 1, 54, 64
3, 29460, Note_on_c, 1, 52, 107
3, 29508, Note_off_c, 1, 52, 64
3, 29520, Note_on_c, 1, 50, 107
3, 29616, Note_off_c, 1, 50, 64
3, 29640, Note_on_c, 1, 47, 107
3, 29730, Note_off_c, 1, 47, 64
3, 29760, Note_on_c, 1, 59, 107
3, 29976, Note_off_c, 1, 59, 64
3, 30000, Note_on_c, 1, 47, 107
3, 30090, Note_off_c, 1, 47, 64
3, 30120, Note_on_c, 1, 59, 107
3, 30336, Note_off_c, 1, 59, 64
3, 30360, Note_on_c, 1, 47, 107
3, 30456, Note_off_c, 1, 47, 64
3, 30480, Note_on_c, 1, 59, 107
3, 30648, Note_off_c, 1, 59, 64
3, 30660, Note_on_c, 1, 60, 107
3, 30708, Note_off_c, 1, 60, 64
3, 30720, Note_on_c, 1, 59, 107
3, 30768, Note_off_c, 1, 59, 64
3, 30780, Note_on_c, 1, 57, 107
3, 30828, Note_off_c, 1, 57, 64
3, 30840, Note_on_c, 1, 55, 107
3, 30888, Note_off_c, 1, 55, 64
3, 30900, Note_on_c, 1, 54, 107
3, 30948, Note_off_c, 1, 54, 64
3, 30960, Note_on_c, 1, 52, 107
3, 31050, Note_off_c, 1, 52, 64
3, 31080, Note_on_c, 1, 64, 107
3, 31176, Note_off_c, 1, 64, 64
3, 31200, Note_on_c, 1, 63, 107
3, 31296, Note_off_c, 1, 63, 64
3, 31320, Note_on_c, 1, 52, 107
3, 31410, Note_off_c, 1, 52, 64
3, 31440, Note_on_c, 1, 62, 107
3, 31536, Note_off_c, 1, 62, 64
3, 31560, Note_on_c, 1, 61, 107
3, 31656, Note_off_c, 1, 61, 64
3, 31680, Note_on_c, 1, 52, 107
3, 31770, Note_off_c, 1, 52, 64
3, 31800, Note_on_c, 1, 60, 107
3, 31896, Note_off_c, 1, 60, 64
3, 31920, Note_on_c, 1, 59, 107
3, 32016, Note_off_c, 1, 59, 64
3, 32040, Note_on_c, 1, 58, 107
3, 32184, Note_off_c, 1, 58, 64
3, 32220, Note_on_c, 1, 54, 107
3, 32268, Note_off_c, 1, 54, 64
3, 32280, Note_on_c, 1, 59, 107
3, 32448, Note_off_c, 1, 59, 64
3, 32460, Note_on_c, 1, 52, 107
3, 32508, Note_off_c, 1, 52, 64
3, 32520, Note_on_c, 1, 54, 107
3, 32616, Note_off_c, 1, 54, 64
3, 32640, Note_on_c, 1, 42, 107
3, 32736, Note_off_c, 1, 42, 64
3, 32760, Note_on_c, 1, 59, 107
3, 32760, Note_on_c, 1, 47, 107
3, 32856, Note_off_c, 1, 47, 64
3, 32856, Note_off_c, 1, 59, 64
3, 32880, Note_on_c, 1, 57, 107
3, 32880, Note_on_c, 1, 54, 107
3, 32976, Note_off_c, 1, 54, 64
3, 32976, Note_off_c, 1, 57, 64
3, 33240, Note_on_c, 1, 47, 107
3, 33240, Note_on_c, 1, 52, 107
3, 33240, Note_on_c, 1, 55, 107
3, 33336, Note_off_c, 1, 55, 64
3, 33336, Note_off_c, 1, 52, 64
3, 33336, Note_off_c, 1, 47, 64
3, 33360, Note_on_c, 1, 54, 107
3, 33360, Note_on_c, 1, 45, 107
3, 33360, Note_on_c, 1, 47, 107
3, 33456, Note_off_c, 1, 47, 64
3, 33456, Note_off_c, 1, 45, 64
3, 33456, Note_off_c, 1, 54, 64
3, 33600, Note_on_c, 1, 52, 107
3, 33600, Note_on_c, 1, 43, 107
3, 33600, Note_on_c, 1, 47, 107
3, 33648, Note_off_c, 1, 52, 64
3, 33660, Note_on_c, 1, 51, 107
3, 33696, Note_off_c, 1, 47, 64
3, 33696, Note_off_c, 1, 43, 64
3, 33708, Note_off_c, 1, 51, 64
3, 33720, Note_on_c, 1, 49, 107
3, 33720, Note_on_c, 1, 52, 107
3, 33720, Note_on_c, 1, 40, 107
3, 33816, Note_off_c, 1, 40, 64
3, 33816, Note_off_c, 1, 52, 64
3, 33816, Note_off_c, 1, 49, 64
3, 33900, Note_on_c, 1, 47, 107
3, 33948, Note_off_c, 1, 47, 64
3, 33960, Note_on_c, 1, 51, 107
3, 34008, Note_off_c, 1, 51, 64
3, 34020, Note_on_c, 1, 54, 107
3, 34068, Note_off_c, 1, 54, 64
3, 34080, Note_on_c, 1, 59, 107
3, 34128, Note_off_c, 1, 59, 64
3, 34140, Note_on_c, 1, 58, 107
3, 34188, Note_off_c, 1, 58, 64
3, 34200, Note_on_c, 1, 59, 107
3, 34248, Note_off_c, 1, 59, 64
3, 34260, Note_on_c, 1, 54, 107
3, 34308, Note_off_c, 1, 54, 64
3, 34320, Note_on_c, 1, 51, 107
3, 34368, Note_off_c, 1, 51, 64
3, 34380, Note_on_c, 1, 47, 107
3, 34428, Note_off_c, 1, 47, 64
3, 34440, Note_on_c, 1, 59, 107
3, 34536, Note_off_c, 1, 59, 64
3, 34560, Note_on_c, 1, 54, 107
3, 34608, Note_off_c, 1, 54, 64
3, 34620, Note_on_c, 1, 51, 107
3, 34668, Note_off_c, 1, 51, 64
3, 34680, Note_on_c, 1, 52, 107
3, 34728, Note_off_c, 1, 52, 64
3, 34740, Note_on_c, 1, 54, 107
3, 34788, Note_off_c, 1, 54, 64
3, 34800, Note_on_c, 1, 55, 107
3, 34848, Note_off_c, 1, 55, 64
3, 34860, Note_on_c, 1, 57, 107
3, 34908, Note_off_c, 1, 57, 64
3, 34920, Note_on_c, 1, 59, 107
3, 35010, Note_off_c, 1, 59, 64
3, 35040, Note_on_c, 1, 47, 107
3, 35136, Note_off_c, 1, 47, 64
3, 35160, Note_on_c, 1, 48, 107
3, 35256, Note_off_c, 1, 48, 64
3, 35280, Note_on_c, 1, 59, 107
3, 35370, Note_off_c, 1, 59, 64
3, 35400, Note_on_c, 1, 49, 107
3, 35496, Note_off_c, 1, 49, 64
3, 35520, Note_on_c, 1, 50, 107
3, 35616, Note_off_c, 1, 50, 64
3, 35640, Note_on_c, 1, 59, 107
3, 35730, Note_off_c, 1, 59, 64
3, 35760, Note_on_c, 1, 51, 107
3, 35856, Note_off_c, 1, 51, 64
3, 35880, Note_on_c, 1, 52, 107
3, 35928, Note_off_c, 1, 52, 64
3, 35940, Note_on_c, 1, 54, 107
3, 35988, Note_off_c, 1, 54, 64
3, 36000, Note_on_c, 1, 55, 107
3, 36096, Note_off_c, 1, 55, 64
3, 36120, Note_on_c, 1, 54, 107
3, 36216, Note_off_c, 1, 54, 64
3, 36240, Note_on_c, 1, 52, 107
3, 36336, Note_off_c, 1, 52, 64
3, 36360, Note_on_c, 1, 50, 107
3, 36408, Note_off_c, 1, 50, 64
3, 36420, Note_on_c, 1, 52, 107
3, 36468, Note_off_c, 1, 52, 64
3, 36480, Note_on_c, 1, 50, 107
3, 36528, Note_off_c, 1, 50, 64
3, 36540, Note_on_c, 1, 49, 107
3, 36588, Note_off_c, 1, 49, 64
3, 36600, Note_on_c, 1, 47, 107
3, 36648, Note_off_c, 1, 47, 64
3, 36660, Note_on_c, 1, 49, 107
3, 36708, Note_off_c, 1, 49, 64
3, 36720, Note_on_c, 1, 50, 107
3, 36768, Note_off_c, 1, 50, 64
3, 36780, Note_on_c, 1, 54, 107
3, 36828, Note_off_c, 1, 54, 64
3, 36840, Note_on_c, 1, 52, 107
3, 36888, Note_off_c, 1, 52, 64
3, 36900, Note_on_c, 1, 50, 107
3, 36948, Note_off_c, 1, 50, 64
3, 36960, Note_on_c, 1, 49, 107
3, 37008, Note_off_c, 1, 49, 64
3, 37020, Note_on_c, 1, 50, 107
3, 37068, Note_off_c, 1, 50, 64
3, 37080, Note_on_c, 1, 52, 107
3, 37128, Note_off_c, 1, 52, 64
3, 37140, Note_on_c, 1, 55, 107
3, 37188, Note_off_c, 1, 55, 64
3, 37200, Note_on_c, 1, 54, 107
3, 37248, Note_off_c, 1, 54, 64
3, 37260, Note_on_c, 1, 52, 107
3, 37308, Note_off_c, 1, 52, 64
3, 37320, Note_on_c, 1, 50, 107
3, 37368, Note_off_c, 1, 50, 64
3, 37380, Note_on_c, 1, 54, 107
3, 37428, Note_off_c, 1, 54, 64
3, 37440, Note_on_c, 1, 52, 107
3, 37536, Note_off_c, 1, 52, 64
3, 37560, Note_on_c, 1, 43, 107
3, 37656, Note_off_c, 1, 43, 64
3, 37680, Note_on_c, 1, 54, 107
3, 37896, Note_off_c, 1, 54, 64
3, 37920, Note_on_c, 1, 45, 107
3, 38016, Note_off_c, 1, 45, 64
3, 38040, Note_on_c, 1, 55, 107
3, 38256, Note_off_c, 1, 55, 64
3, 38280, Note_on_c, 1, 47, 107
3, 38376, Note_off_c, 1, 47, 64
3, 38400, Note_on_c, 1, 57, 107
3, 38616, Note_off_c, 1, 57, 64
3, 38640, Note_on_c, 1, 49, 107
3, 38730, Note_off_c, 1, 49, 64
3, 38760, Note_on_c, 1, 51, 107
3, 38850, Note_off_c, 1, 51, 64
3, 38880, Note_on_c, 1, 55, 107
3, 38880, Note_on_c, 1, 52, 107
3, 38928, Note_off_c, 1, 55, 64
3, 38940, Note_on_c, 1, 60, 107
3, 38976, Note_off_c, 1, 52, 64
3, 38988, Note_off_c, 1, 60, 64
3, 39000, Note_on_c, 1, 59, 107
3, 39048, Note_off_c, 1, 59, 64
3, 39060, Note_on_c, 1, 57, 107
3, 39108, Note_off_c, 1, 57, 64
3, 39120, Note_on_c, 1, 55, 107
3, 39168, Note_off_c, 1, 55, 64
3, 39180, Note_on_c, 1, 54, 107
3, 39228, Note_off_c, 1, 54, 64
3, 39240, Note_on_c, 1, 52, 107
3, 39240, Note_on_c, 1, 43, 107
3, 39288, Note_off_c, 1, 52, 64
3, 39300, Note_on_c, 1, 57, 107
3, 39336, Note_off_c, 1, 43, 64
3, 39348, Note_off_c, 1, 57, 64
3, 39360, Note_on_c, 1, 55, 107
3, 39408, Note_off_c, 1, 55, 64
3, 39420, Note_on_c, 1, 54, 107
3, 39468, Note_off_c, 1, 54, 64
3, 39480, Note_on_c, 1, 45, 107
3, 39480, Note_on_c, 1, 52, 107
3, 39528, Note_off_c, 1, 52, 64
3, 39540, Note_on_c, 1, 54, 107
3, 39576, Note_off_c, 1, 45, 64
3, 39588, Note_off_c, 1, 54, 64
3, 39600, Note_on_c, 1, 55, 107
3, 39648, Note_off_c, 1, 55, 64
3, 39660, Note_on_c, 1, 59, 107
3, 39708, Note_off_c, 1, 59, 64
3, 39720, Note_on_c, 1, 57, 107
3, 39768, Note_off_c, 1, 57, 64
3, 39780, Note_on_c, 1, 55, 107
3, 39828, Note_off_c, 1, 55, 64
3, 39840, Note_on_c, 1, 47, 107
3, 39840, Note_on_c, 1, 54, 107
3, 39888, Note_off_c, 1, 54, 64
3, 39900, Note_on_c, 1, 55, 107
3, 39936, Note_off_c, 1, 47, 64
3, 39948, Note_off_c, 1, 55, 64
3, 39960, Note_on_c, 1, 57, 107
3, 40008, Note_off_c, 1, 57, 64
3, 40020, Note_on_c, 1, 60, 107
3, 40068, Note_off_c, 1, 60, 64
3, 40080, Note_on_c, 1, 59, 107
3, 40128, Note_off_c, 1, 59, 64
3, 40140, Note_on_c, 1, 57, 107
3, 40188, Note_off_c, 1, 57, 64
3, 40200, Note_on_c, 1, 48, 107
3, 40200, Note_on_c, 1, 55, 107
3, 40248, Note_off_c, 1, 55, 64
3, 40260, Note_on_c, 1, 57, 107
3, 40296, Note_off_c, 1, 48, 64
3, 40308, Note_off_c, 1, 57, 64
3, 40320, Note_on_c, 1, 54, 107
3, 40320, Note_on_c, 1, 45, 107
3, 40416, Note_off_c, 1, 45, 64
3, 40440, Note_on_c, 1, 42, 107
3, 40536, Note_off_c, 1, 42, 64
3, 40560, Note_on_c, 1, 47, 107
3, 40608, Note_off_c, 1, 54, 64
3, 40680, Note_on_c, 1, 55, 107
3, 40776, Note_off_c, 1, 47, 64
3, 40800, Note_on_c, 1, 43, 107
3, 40896, Note_off_c, 1, 43, 64
3, 40920, Note_on_c, 1, 48, 107
3, 40968, Note_off_c, 1, 55, 64
3, 41040, Note_on_c, 1, 57, 107
3, 41136, Note_off_c, 1, 48, 64
3, 41160, Note_on_c, 1, 45, 107
3, 41256, Note_off_c, 1, 45, 64
3, 41280, Note_on_c, 1, 50, 107
3, 41328, Note_off_c, 1, 57, 64
3, 41400, Note_on_c, 1, 59, 107
3, 41496, Note_off_c, 1, 50, 64
3, 41496, Note_off_c, 1, 59, 64
3, 41520, Note_on_c, 1, 60, 107
3, 41520, Note_on_c, 1, 52, 107
3, 41616, Note_off_c, 1, 52, 64
3, 41616, Note_off_c, 1, 60, 64
3, 41640, Note_on_c, 1, 54, 107
3, 41640, Note_on_c, 1, 62, 107
3, 41736, Note_off_c, 1, 54, 64
3, 41760, Note_on_c, 1, 55, 107
3, 41808, Note_off_c, 1, 55, 64
3, 41820, Note_on_c, 1, 59, 107
3, 41856, Note_off_c, 1, 62, 64
3, 41868, Note_off_c, 1, 59, 64
3, 41880, Note_on_c, 1, 62, 107
3, 41928, Note_off_c, 1, 62, 64
3, 41940, Note_on_c, 1, 67, 107
3, 41988, Note_off_c, 1, 67, 64
3, 42000, Note_on_c, 1, 66, 107
3, 42048, Note_off_c, 1, 66, 64
3, 42060, Note_on_c, 1, 59, 107
3, 42108, Note_off_c, 1, 59, 64
3, 42120, Note_on_c, 1, 64, 107
3, 42168, Note_off_c, 1, 64, 64
3, 42180, Note_on_c, 1, 60, 107
3, 42228, Note_off_c, 1, 60, 64
3, 42240, Note_on_c, 1, 57, 107
3, 42288, Note_off_c, 1, 57, 64
3, 42300, Note_on_c, 1, 54, 107
3, 42348, Note_off_c, 1, 54, 64
3, 42360, Note_on_c, 1, 55, 107
3, 42408, Note_off_c, 1, 55, 64
3, 42420, Note_on_c, 1, 59, 107
3, 42468, Note_off_c, 1, 59, 64
3, 42480, Note_on_c, 1, 48, 107
3, 42528, Note_off_c, 1, 48, 64
3, 42540, Note_on_c, 1, 52, 107
3, 42588, Note_off_c, 1, 52, 64
3, 42600, Note_on_c, 1, 57, 107
3, 42648, Note_off_c, 1, 57, 64
3, 42660, Note_on_c, 1, 60, 107
3, 42708, Note_off_c, 1, 60, 64
3, 42720, Note_on_c, 1, 59, 107
3, 42768, Note_off_c, 1, 59, 64
3, 42780, Note_on_c, 1, 52, 107
3, 42828, Note_off_c, 1, 52, 64
3, 42840, Note_on_c, 1, 57, 107
3, 42888, Note_off_c, 1, 57, 64
3, 42900, Note_on_c, 1, 52, 107
3, 42948, Note_off_c, 1, 52, 64
3, 42960, Note_on_c, 1, 48, 107
3, 43008, Note_off_c, 1, 48, 64
3, 43020, Note_on_c, 1, 45, 107
3, 43068, Note_off_c, 1, 45, 64
3, 43080, Note_on_c, 1, 47, 107
3, 43128, Note_off_c, 1, 47, 64
3, 43140, Note_on_c, 1, 50, 107
3, 43188, Note_off_c, 1, 50, 64
3, 43200, Note_on_c, 1, 42, 107
3, 43488, Note_off_c, 1, 42, 64
3, 43560, Note_on_c, 1, 43, 107
3, 43848, Note_off_c, 1, 43, 64
3, 43920, Note_on_c, 1, 48, 107
3, 43968, Note_off_c, 1, 48, 64
3, 43980, Note_on_c, 1, 52, 107
3, 44028, Note_off_c, 1, 52, 64
3, 44040, Note_on_c, 1, 55, 107
3, 44088, Note_off_c, 1, 55, 64
3, 44100, Note_on_c, 1, 59, 107
3, 44148, Note_off_c, 1, 59, 64
3, 44160, Note_on_c, 1, 57, 107
3, 44208, Note_off_c, 1, 57, 64
3, 44220, Note_on_c, 1, 55, 107
3, 44268, Note_off_c, 1, 55, 64
3, 44280, Note_on_c, 1, 54, 107
3, 44568, Note_off_c, 1, 54, 64
3, 44640, Note_on_c, 1, 55, 107
3, 44928, Note_off_c, 1, 55, 64
3, 45000, Note_on_c, 1, 52, 107
3, 45288, Note_off_c, 1, 52, 64
3, 45360, Note_on_c, 1, 50, 107
3, 45408, Note_off_c, 1, 50, 64
3, 45420, Note_on_c, 1, 49, 107
3, 45468, Note_off_c, 1, 49, 64
3, 45480, Note_on_c, 1, 50, 107
3, 45528, Note_off_c, 1, 50, 64
3, 45540, Note_on_c, 1, 52, 107
3, 45588, Note_off_c, 1, 52, 64
3, 45600, Note_on_c, 1, 54, 107
3, 45648, Note_off_c, 1, 54, 64
3, 45660, Note_on_c, 1, 55, 107
3, 45708, Note_off_c, 1, 55, 64
3, 45720, Note_on_c, 1, 57, 107
3, 45768, Note_off_c, 1, 57, 64
3, 45780, Note_on_c, 1, 59, 107
3, 45828, Note_off_c, 1, 59, 64
3, 45840, Note_on_c, 1, 57, 107
3, 45888, Note_off_c, 1, 57, 64
3, 45900, Note_on_c, 1, 55, 107
3, 45948, Note_off_c, 1, 55, 64
3, 45960, Note_on_c, 1, 54, 107
3, 46008, Note_off_c, 1, 54, 64
3, 46020, Note_on_c, 1, 52, 107
3, 46068, Note_off_c, 1, 52, 64
3, 46080, Note_on_c, 1, 51, 107
3, 46128, Note_off_c, 1, 51, 64
3, 46140, Note_on_c, 1, 47, 107
3, 46188, Note_off_c, 1, 47, 64
3, 46200, Note_on_c, 1, 49, 107
3, 46248, Note_off_c, 1, 49, 64
3, 46260, Note_on_c, 1, 51, 107
3, 46308, Note_off_c, 1, 51, 64
3, 46320, Note_on_c, 1, 52, 107
3, 46368, Note_off_c, 1, 52, 64
3, 46380, Note_on_c, 1, 54, 107
3, 46428, Note_off_c, 1, 54, 64
3, 46440, Note_on_c, 1, 55, 107
3, 46488, Note_off_c, 1, 55, 64
3, 46500, Note_on_c, 1, 57, 107
3, 46548, Note_off_c, 1, 57, 64
3, 46560, Note_on_c, 1, 55, 107
3, 46608, Note_off_c, 1, 55, 64
3, 46620, Note_on_c, 1, 54, 107
3, 46668, Note_off_c, 1, 54, 64
3, 46680, Note_on_c, 1, 52, 107
3, 46728, Note_off_c, 1, 52, 64
3, 46740, Note_on_c, 1, 50, 107
3, 46788, Note_off_c, 1, 50, 64
3, 46800, Note_on_c, 1, 48, 107
3, 46848, Note_off_c, 1, 48, 64
3, 46860, Note_on_c, 1, 50, 107
3, 46908, Note_off_c, 1, 50, 64
3, 46920, Note_on_c, 1, 48, 107
3, 46968, Note_off_c, 1, 48, 64
3, 46980, Note_on_c, 1, 47, 107
3, 47028, Note_off_c, 1, 47, 64
3, 47040, Note_on_c, 1, 45, 107
3, 47088, Note_off_c, 1, 45, 64
3, 47100, Note_on_c, 1, 43, 107
3, 47148, Note_off_c, 1, 43, 64
3, 47160, Note_on_c, 1, 42, 107
3, 47208, Note_off_c, 1, 42, 64
3, 47220, Note_on_c, 1, 39, 107
3, 47268, Note_off_c, 1, 39, 64
3, 47280, Note_on_c, 1, 40, 107
3, 47328, Note_off_c, 1, 40, 64
3, 47340, Note_on_c, 1, 42, 107
3, 47388, Note_off_c, 1, 42, 64
3, 47400, Note_on_c, 1, 43, 107
3, 47448, Note_off_c, 1, 43, 64
3, 47460, Note_on_c, 1, 45, 107
3, 47508, Note_off_c, 1, 45, 64
3, 47520, Note_on_c, 1, 47, 107
3, 47568, Note_off_c, 1, 47, 64
3, 47580, Note_on_c, 1, 42, 107
3, 47628, Note_off_c, 1, 42, 64
3, 47640, Note_on_c, 1, 44, 107
3, 47688, Note_off_c, 1, 44, 64
3, 47700, Note_on_c, 1, 46, 107
3, 47748, Note_off_c, 1, 46, 64
3, 47760, Note_on_c, 1, 47, 107
3, 47808, Note_off_c, 1, 47, 64
3, 47820, Note_on_c, 1, 49, 107
3, 47868, Note_off_c, 1, 49, 64
3, 47880, Note_on_c, 1, 51, 107
3, 47928, Note_off_c, 1, 51, 64
3, 47940, Note_on_c, 1, 52, 107
3, 47988, Note_off_c, 1, 52, 64
3, 48000, Note_on_c, 1, 51, 107
3, 48048, Note_off_c, 1, 51, 64
3, 48060, Note_on_c, 1, 49, 107
3, 48108, Note_off_c, 1, 49, 64
3, 48120, Note_on_c, 1, 47, 107
3, 48168, Note_off_c, 1, 47, 64
3, 48180, Note_on_c, 1, 49, 107
3, 48228, Note_off_c, 1, 49, 64
3, 48240, Note_on_c, 1, 50, 107
3, 48288, Note_off_c, 1, 50, 64
3, 48300, Note_on_c, 1, 54, 107
3, 48348, Note_off_c, 1, 54, 64
3, 48360, Note_on_c, 1, 52, 107
3, 48408, Note_off_c, 1, 52, 64
3, 48420, Note_on_c, 1, 50, 107
3, 48468, Note_off_c, 1, 50, 64
3, 48480, Note_on_c, 1, 49, 107
3, 48528, Note_off_c, 1, 49, 64
3, 48540, Note_on_c, 1, 51, 107
3, 48588, Note_off_c, 1, 51, 64
3, 48600, Note_on_c, 1, 52, 107
3, 48648, Note_off_c, 1, 52, 64
3, 48660, Note_on_c, 1, 55, 107
3, 48708, Note_off_c, 1, 55, 64
3, 48720, Note_on_c, 1, 54, 107
3, 48768, Note_off_c, 1, 54, 64
3, 48780, Note_on_c, 1, 52, 107
3, 48828, Note_off_c, 1, 52, 64
3, 48840, Note_on_c, 1, 51, 107
3, 48888, Note_off_c, 1, 51, 64
3, 48900, Note_on_c, 1, 54, 107
3, 48948, Note_off_c, 1, 54, 64
3, 48960, Note_on_c, 1, 52, 107
3, 49008, Note_off_c, 1, 52, 64
3, 49020, Note_on_c, 1, 55, 107
3, 49068, Note_off_c, 1, 55, 64
3, 49080, Note_on_c, 1, 54, 107
3, 49128, Note_off_c, 1, 54, 64
3, 49140, Note_on_c, 1, 52, 107
3, 49188, Note_off_c, 1, 52, 64
3, 49200, Note_on_c, 1, 50, 107
3, 49248, Note_off_c, 1, 50, 64
3, 49260, Note_on_c, 1, 55, 107
3, 49308, Note_off_c, 1, 55, 64
3, 49320, Note_on_c, 1, 48, 107
3, 49368, Note_off_c, 1, 48, 64
3, 49380, Note_on_c, 1, 52, 107
3, 49428, Note_off_c, 1, 52, 64
3, 49440, Note_on_c, 1, 50, 107
3, 49488, Note_off_c, 1, 50, 64
3, 49500, Note_on_c, 1, 48, 107
3, 49548, Note_off_c, 1, 48, 64
3, 49560, Note_on_c, 1, 47, 107
3, 49608, Note_off_c, 1, 47, 64
3, 49620, Note_on_c, 1, 55, 107
3, 49668, Note_off_c, 1, 55, 64
3, 49680, Note_on_c, 1, 45, 107
3, 49728, Note_off_c, 1, 45, 64
3, 49740, Note_on_c, 1, 57, 107
3, 49788, Note_off_c, 1, 57, 64
3, 49800, Note_on_c, 1, 55, 107
3, 49848, Note_off_c, 1, 55, 64
3, 49860, Note_on_c, 1, 54, 107
3, 49908, Note_off_c, 1, 54, 64
3, 49920, Note_on_c, 1, 59, 107
3, 49968, Note_off_c, 1, 59, 64
3, 49980, Note_on_c, 1, 47, 107
3, 50028, Note_off_c, 1, 47, 64
3, 50040, Note_on_c, 1, 52, 107
3, 50088, Note_off_c, 1, 52, 64
3, 50100, Note_on_c, 1, 47, 107
3, 50148, Note_off_c, 1, 47, 64
3, 50160, Note_on_c, 1, 44, 107
3, 50208, Note_off_c, 1, 44, 64
3, 50220, Note_on_c, 1, 40, 107
3, 50268, Note_off_c, 1, 40, 64
3, 50280, Note_on_c, 1, 50, 107
3, 50328, Note_off_c, 1, 50, 64
3, 50340, Note_on_c, 1, 47, 107
3, 50388, Note_off_c, 1, 47, 64
3, 50400, Note_on_c, 1, 48, 107
3, 50448, Note_off_c, 1, 48, 64
3, 50460, Note_on_c, 1, 45, 107
3, 50508, Note_off_c, 1, 45, 64
3, 50520, Note_on_c, 1, 48, 107
3, 50568, Note_off_c, 1, 48, 64
3, 50580, Note_on_c, 1, 52, 107
3, 50628, Note_off_c, 1, 52, 64
3, 50640, Note_on_c, 1, 57, 107
3, 50688, Note_off_c, 1, 57, 64
3, 50700, Note_on_c, 1, 56, 107
3, 50748, Note_off_c, 1, 56, 64
3, 50760, Note_on_c, 1, 57, 107
3, 50808, Note_off_c, 1, 57, 64
3, 50820, Note_on_c, 1, 52, 107
3, 50868, Note_off_c, 1, 52, 64
3, 50880, Note_on_c, 1, 57, 107
3, 50928, Note_off_c, 1, 57, 64
3, 50940, Note_on_c, 1, 60, 107
3, 50988, Note_off_c, 1, 60, 64
3, 51000, Note_on_c, 1, 64, 107
3, 51048, Note_off_c, 1, 64, 64
3, 51060, Note_on_c, 1, 63, 107
3, 51108, Note_off_c, 1, 63, 64
3, 51120, Note_on_c, 1, 64, 107
3, 51408, Note_off_c, 1, 64, 64
3, 51720, Note_on_c, 1, 40, 107
3, 51816, Note_off_c, 1, 40, 64
3, 51840, Note_on_c, 1, 54, 107
3, 51888, Note_off_c, 1, 54, 64
3, 51900, Note_on_c, 1, 51, 107
3, 51948, Note_off_c, 1, 51, 64
3, 51960, Note_on_c, 1, 52, 107
3, 52008, Note_off_c, 1, 52, 64
3, 52020, Note_on_c, 1, 54, 107
3, 52068, Note_off_c, 1, 54, 64
3, 52080, Note_on_c, 1, 55, 107
3, 52128, Note_off_c, 1, 55, 64
3, 52140, Note_on_c, 1, 57, 107
3, 52188, Note_off_c, 1, 57, 64
3, 52200, Note_on_c, 1, 59, 107
3, 52290, Note_off_c, 1, 59, 64
3, 52320, Note_on_c, 1, 47, 107
3, 52416, Note_off_c, 1, 47, 64
3, 52440, Note_on_c, 1, 48, 107
3, 52536, Note_off_c, 1, 48, 64
3, 52560, Note_on_c, 1, 59, 107
3, 52650, Note_off_c, 1, 59, 64
3, 52680, Note_on_c, 1, 49, 107
3, 52776, Note_off_c, 1, 49, 64
3, 52800, Note_on_c, 1, 50, 107
3, 52896, Note_off_c, 1, 50, 64
3, 52920, Note_on_c, 1, 59, 107
3, 53010, Note_off_c, 1, 59, 64
3, 53040, Note_on_c, 1, 51, 107
3, 53136, Note_off_c, 1, 51, 64
3, 53160, Note_on_c, 1, 52, 107
3, 53208, Note_off_c, 1, 52, 64
3, 53220, Note_on_c, 1, 54, 107
3, 53268, Note_off_c, 1, 54, 64
3, 53280, Note_on_c, 1, 55, 107
3, 53376, Note_off_c, 1, 55, 64
3, 53400, Note_on_c, 1, 54, 107
3, 53496, Note_off_c, 1, 54, 64
3, 53520, Note_on_c, 1, 52, 107
3, 53616, Note_off_c, 1, 52, 64
3, 53640, Note_on_c, 1, 50, 107
3, 53688, Note_off_c, 1, 50, 64
3, 53700, Note_on_c, 1, 52, 107
3, 53748, Note_off_c, 1, 52, 64
3, 53760, Note_on_c, 1, 50, 107
3, 53808, Note_off_c, 1, 50, 64
3, 53820, Note_on_c, 1, 49, 107
3, 53868, Note_off_c, 1, 49, 64
3, 53880, Note_on_c, 1, 47, 107
3, 53928, Note_off_c, 1, 47, 64
3, 53940, Note_on_c, 1, 49, 107
3, 53988, Note_off_c, 1, 49, 64
3, 54000, Note_on_c, 1, 50, 107
3, 54048, Note_off_c, 1, 50, 64
3, 54060, Note_on_c, 1, 54, 107
3, 54108, Note_off_c, 1, 54, 64
3, 54120, Note_on_c, 1, 52, 107
3, 54168, Note_off_c, 1, 52, 64
3, 54180, Note_on_c, 1, 50, 107
3, 54228, Note_off_c, 1, 50, 64
3, 54240, Note_on_c, 1, 49, 107
3, 54288, Note_off_c, 1, 49, 64
3, 54300, Note_on_c, 1, 50, 107
3, 54348, Note_off_c, 1, 50, 64
3, 54360, Note_on_c, 1, 52, 107
3, 54408, Note_off_c, 1, 52, 64
3, 54420, Note_on_c, 1, 55, 107
3, 54468, Note_off_c, 1, 55, 64
3, 54480, Note_on_c, 1, 54, 107
3, 54528, Note_off_c, 1, 54, 64
3, 54540, Note_on_c, 1, 52, 107
3, 54588, Note_off_c, 1, 52, 64
3, 54600, Note_on_c, 1, 50, 107
3, 54648, Note_off_c, 1, 50, 64
3, 54660, Note_on_c, 1, 54, 107
3, 54708, Note_off_c, 1, 54, 64
3, 54720, Note_on_c, 1, 52, 107
3, 54816, Note_off_c, 1, 52, 64
3, 54840, Note_on_c, 1, 43, 107
3, 54936, Note_off_c, 1, 43, 64
3, 54960, Note_on_c, 1, 54, 107
3, 55176, Note_off_c, 1, 54, 64
3, 55200, Note_on_c, 1, 45, 107
3, 55296, Note_off_c, 1, 45, 64
3, 55320, Note_on_c, 1, 55, 107
3, 55536, Note_off_c, 1, 55, 64
3, 55560, Note_on_c, 1, 47, 107
3, 55656, Note_off_c, 1, 47, 64
3, 55680, Note_on_c, 1, 57, 107
3, 55896, Note_off_c, 1, 57, 64
3, 55920, Note_on_c, 1, 49, 107
3, 56010, Note_off_c, 1, 49, 64
3, 56040, Note_on_c, 1, 51, 107
3, 56130, Note_off_c, 1, 51, 64
3, 56160, Note_on_c, 1, 55, 107
3, 56160, Note_on_c, 1, 52, 107
3, 56208, Note_off_c, 1, 55, 64
3, 56220, Note_on_c, 1, 60, 107
3, 56256, Note_off_c, 1, 52, 64
3, 56268, Note_off_c, 1, 60, 64
3, 56280, Note_on_c, 1, 59, 107
3, 56328, Note_off_c, 1, 59, 64
3, 56340, Note_on_c, 1, 57, 107
3, 56388, Note_off_c, 1, 57, 64
3, 56400, Note_on_c, 1, 55, 107
3, 56448, Note_off_c, 1, 55, 64
3, 56460, Note_on_c, 1, 54, 107
3, 56508, Note_off_c, 1, 54, 64
3, 56520, Note_on_c, 1, 52, 107
3, 56520, Note_on_c, 1, 43, 107
3, 56568, Note_off_c, 1, 52, 64
3, 56580, Note_on_c, 1, 57, 107
3, 56616, Note_off_c, 1, 43, 64
3, 56628, Note_off_c, 1, 57, 64
3, 56640, Note_on_c, 1, 55, 107
3, 56688, Note_off_c, 1, 55, 64
3, 56700, Note_on_c, 1, 54, 107
3, 56748, Note_off_c, 1, 54, 64
3, 56760, Note_on_c, 1, 45, 107
3, 56760, Note_on_c, 1, 52, 107
3, 56808, Note_off_c, 1, 52, 64
3, 56820, Note_on_c, 1, 54, 107
3, 56856, Note_off_c, 1, 45, 64
3, 56868, Note_off_c, 1, 54, 64
3, 56880, Note_on_c, 1, 55, 107
3, 56928, Note_off_c, 1, 55, 64
3, 56940, Note_on_c, 1, 59, 107
3, 56988, Note_off_c, 1, 59, 64
3, 57000, Note_on_c, 1, 57, 107
3, 57048, Note_off_c, 1, 57, 64
3, 57060, Note_on_c, 1, 55, 107
3, 57108, Note_off_c, 1, 55, 64
3, 57120, Note_on_c, 1, 47, 107
3, 57120, Note_on_c, 1, 54, 107
3, 57168, Note_off_c, 1, 54, 64
3, 57180, Note_on_c, 1, 55, 107
3, 57216, Note_off_c, 1, 47, 64
3, 57228, Note_off_c, 1, 55, 64
3, 57240, Note_on_c, 1, 57, 107
3, 57288, Note_off_c, 1, 57, 64
3, 57300, Note_on_c, 1, 60, 107
3, 57348, Note_off_c, 1, 60, 64
3, 57360, Note_on_c, 1, 59, 107
3, 57408, Note_off_c, 1, 59, 64
3, 57420, Note_on_c, 1, 57, 107
3, 57468, Note_off_c, 1, 57, 64
3, 57480, Note_on_c, 1, 48, 107
3, 57480, Note_on_c, 1, 55, 107
3, 57528, Note_off_c, 1, 55, 64
3, 57540, Note_on_c, 1, 57, 107
3, 57576, Note_off_c, 1, 48, 64
3, 57588, Note_off_c, 1, 57, 64
3, 57600, Note_on_c, 1, 54, 107
3, 57600, Note_on_c, 1, 45, 107
3, 57696, Note_off_c, 1, 45, 64
3, 57720, Note_on_c, 1, 42, 107
3, 57816, Note_off_c, 1, 42, 64
3, 57840, Note_on_c, 1, 47, 107
3, 57888, Note_off_c, 1, 54, 64
3, 57960, Note_on_c, 1, 55, 107
3, 58056, Note_off_c, 1, 47, 64
3, 58080, Note_on_c, 1, 43, 107
3, 58176, Note_off_c, 1, 43, 64
3, 58200, Note_on_c, 1, 48, 107
3, 58248, Note_off_c, 1, 55, 64
3, 58320, Note_on_c, 1, 57, 107
3, 58416, Note_off_c, 1, 48, 64
3, 58440, Note_on_c, 1, 45, 107
3, 58536, Note_off_c, 1, 45, 64
3, 58560, Note_on_c, 1, 50, 107
3, 58608, Note_off_c, 1, 57, 64
3, 58680, Note_on_c, 1, 59, 107
3, 58776, Note_off_c, 1, 50, 64
3, 58776, Note_off_c, 1, 59, 64
3, 58800, Note_on_c, 1, 60, 107
3, 58800, Note_on_c, 1, 52, 107
3, 58896, Note_off_c, 1, 52, 64
3, 58896, Note_off_c, 1, 60, 64
3, 58920, Note_on_c, 1, 54, 107
3, 58920, Note_on_c, 1, 62, 107
3, 59016, Note_off_c, 1, 54, 64
3, 59040, Note_on_c, 1, 55, 107
3, 59088, Note_off_c, 1, 55, 64
3, 59100, Note_on_c, 1, 59, 107
3, 59136, Note_off_c, 1, 62, 64
3, 59148, Note_off_c, 1, 59, 64
3, 59160, Note_on_c, 1, 62, 107
3, 59208, Note_off_c, 1, 62, 64
3, 59220, Note_on_c, 1, 67, 107
3, 59268, Note_off_c, 1, 67, 64
3, 59280, Note_on_c, 1, 66, 107
3, 59328, Note_off_c, 1, 66, 64
3, 59340, Note_on_c, 1, 59, 107
3, 59388, Note_off_c, 1, 59, 64
3, 59400, Note_on_c, 1, 64, 107
3, 59448, Note_off_c, 1, 64, 64
3, 59460, Note_on_c, 1, 60, 107
3, 59508, Note_off_c, 1, 60, 64
3, 59520, Note_on_c, 1, 57, 107
3, 59568, Note_off_c, 1, 57, 64
3, 59580, Note_on_c, 1, 54, 107
3, 59628, Note_off_c, 1, 54, 64
3, 59640, Note_on_c, 1, 55, 107
3, 59688, Note_off_c, 1, 55, 64
3, 59700, Note_on_c, 1, 59, 107
3, 59748, Note_off_c, 1, 59, 64
3, 59760, Note_on_c, 1, 48, 107
3, 59808, Note_off_c, 1, 48, 64
3, 59820, Note_on_c, 1, 52, 107
3, 59868, Note_off_c, 1, 52, 64
3, 59880, Note_on_c, 1, 57, 107
3, 59928, Note_off_c, 1, 57, 64
3, 59940, Note_on_c, 1, 60, 107
3, 59988, Note_off_c, 1, 60, 64
3, 60000, Note_on_c, 1, 59, 107
3, 60048, Note_off_c, 1, 59, 64
3, 60060, Note_on_c, 1, 52, 107
3, 60108, Note_off_c, 1, 52, 64
3, 60120, Note_on_c, 1, 57, 107
3, 60168, Note_off_c, 1, 57, 64
3, 60180, Note_on_c, 1, 52, 107
3, 60228, Note_off_c, 1, 52, 64
3, 60240, Note_on_c, 1, 48, 107
3, 60288, Note_off_c, 1, 48, 64
3, 60300, Note_on_c, 1, 45, 107
3, 60348, Note_off_c, 1, 45, 64
3, 60360, Note_on_c, 1, 47, 107
3, 60408, Note_off_c, 1, 47, 64
3, 60420, Note_on_c, 1, 50, 107
3, 60468, Note_off_c, 1, 50, 64
3, 60480, Note_on_c, 1, 42, 107
3, 60768, Note_off_c, 1, 42, 64
3, 60840, Note_on_c, 1, 43, 107
3, 61128, Note_off_c, 1, 43, 64
3, 61200, Note_on_c, 1, 48, 107
3, 61248, Note_off_c, 1, 48, 64
3, 61260, Note_on_c, 1, 52, 107
3, 61308, Note_off_c, 1, 52, 64
3, 61320, Note_on_c, 1, 55, 107
3, 61368, Note_off_c, 1, 55, 64
3, 61380, Note_on_c, 1, 59, 107
3, 61428, Note_off_c, 1, 59, 64
3, 61440, Note_on_c, 1, 57, 107
3, 61488, Note_off_c, 1, 57, 64
3, 61500, Note_on_c, 1, 55, 107
3, 61548, Note_off_c, 1, 55, 64
3, 61560, Note_on_c, 1, 54, 107
3, 61848, Note_off_c, 1, 54, 64
3, 61920, Note_on_c, 1, 55, 107
3, 62208, Note_off_c, 1, 55, 64
3, 62280, Note_on_c, 1, 52, 107
3, 62568, Note_off_c, 1, 52, 64
3, 62640, Note_on_c, 1, 50, 107
3, 62688, Note_off_c, 1, 50, 64
3, 62700, Note_on_c, 1, 49, 107
3, 62748, Note_off_c, 1, 49, 64
3, 62760, Note_on_c, 1, 50, 107
3, 62808, Note_off_c, 1, 50, 64
3, 62820, Note_on_c, 1, 52, 107
3, 62868, Note_off_c, 1, 52, 64
3, 62880, Note_on_c, 1, 54, 107
3, 62928, Note_off_c, 1, 54, 64
3, 62940, Note_on_c, 1, 55, 107
3, 62988, Note_off_c, 1, 55, 64
3, 63000, Note_on_c, 1, 57, 107
3, 63048, Note_off_c, 1, 57, 64
3, 63060, Note_on_c, 1, 59, 107
3, 63108, Note_off_c, 1, 59, 64
3, 63120, Note_on_c, 1, 57, 107
3, 63168, Note_off_c, 1, 57, 64
3, 63180, Note_on_c, 1, 55, 107
3, 63228, Note_off_c, 1, 55, 64
3, 63240, Note_on_c, 1, 54, 107
3, 63288, Note_off_c, 1, 54, 64
3, 63300, Note_on_c, 1, 52, 107
3, 63348, Note_off_c, 1, 52, 64
3, 63360, Note_on_c, 1, 51, 107
3, 63408, Note_off_c, 1, 51, 64
3, 63420, Note_on_c, 1, 47, 107
3, 63468, Note_off_c, 1, 47, 64
3, 63480, Note_on_c, 1, 49, 107
3, 63528, Note_off_c, 1, 49, 64
3, 63540, Note_on_c, 1, 51, 107
3, 63588, Note_off_c, 1, 51, 64
3, 63600, Note_on_c, 1, 52, 107
3, 63648, Note_off_c, 1, 52, 64
3, 63660, Note_on_c, 1, 54, 107
3, 63708, Note_off_c, 1, 54, 64
3, 63720, Note_on_c, 1, 55, 107
3, 63768, Note_off_c, 1, 55, 64
3, 63780, Note_on_c, 1, 57, 107
3, 63828, Note_off_c, 1, 57, 64
3, 63840, Note_on_c, 1, 55, 107
3, 63888, Note_off_c, 1, 55, 64
3, 63900, Note_on_c, 1, 54, 107
3, 63948, Note_off_c, 1, 54, 64
3, 63960, Note_on_c, 1, 52, 107
3, 64008, Note_off_c, 1, 52, 64
3, 64020, Note_on_c, 1, 50, 107
3, 64068, Note_off_c, 1, 50, 64
3, 64080, Note_on_c, 1, 48, 107
3, 64128, Note_off_c, 1, 48, 64
3, 64140, Note_on_c, 1, 50, 107
3, 64188, Note_off_c, 1, 50, 64
3, 64200, Note_on_c, 1, 48, 107
3, 64248, Note_off_c, 1, 48, 64
3, 64260, Note_on_c, 1, 47, 107
3, 64308, Note_off_c, 1, 47, 64
3, 64320, Note_on_c, 1, 45, 107
3, 64368, Note_off_c, 1, 45, 64
3, 64380, Note_on_c, 1, 43, 107
3, 64428, Note_off_c, 1, 43, 64
3, 64440, Note_on_c, 1, 42, 107
3, 64488, Note_off_c, 1, 42, 64
3, 64500, Note_on_c, 1, 39, 107
3, 64548, Note_off_c, 1, 39, 64
3, 64560, Note_on_c, 1, 40, 107
3, 64608, Note_off_c, 1, 40, 64
3, 64620, Note_on_c, 1, 42, 107
3, 64668, Note_off_c, 1, 42, 64
3, 64680, Note_on_c, 1, 43, 107
3, 64728, Note_off_c, 1, 43, 64
3, 64740, Note_on_c, 1, 45, 107
3, 64788, Note_off_c, 1, 45, 64
3, 64800, Note_on_c, 1, 47, 107
3, 64848, Note_off_c, 1, 47, 64
3, 64860, Note_on_c, 1, 42, 107
3, 64908, Note_off_c, 1, 42, 64
3, 64920, Note_on_c, 1, 44, 107
3, 64968, Note_off_c, 1, 44, 64
3, 64980, Note_on_c, 1, 46, 107
3, 65028, Note_off_c, 1, 46, 64
3, 65040, Note_on_c, 1, 47, 107
3, 65088, Note_off_c, 1, 47, 64
3, 65100, Note_on_c, 1, 49, 107
3, 65148, Note_off_c, 1, 49, 64
3, 65160, Note_on_c, 1, 51, 107
3, 65208, Note_off_c, 1, 51, 64
3, 65220, Note_on_c, 1, 52, 107
3, 65268, Note_off_c, 1, 52, 64
3, 65280, Note_on_c, 1, 51, 107
3, 65328, Note_off_c, 1, 51, 64
3, 65340, Note_on_c, 1, 49, 107
3, 65388, Note_off_c, 1, 49, 64
3, 65400, Note_on_c, 1, 47, 107
3, 65448, Note_off_c, 1, 47, 64
3, 65460, Note_on_c, 1, 49, 107
3, 65508, Note_off_c, 1, 49, 64
3, 65520, Note_on_c, 1, 50, 107
3, 65568, Note_off_c, 1, 50, 64
3, 65580, Note_on_c, 1, 54, 107
3, 65628, Note_off_c, 1, 54, 64
3, 65640, Note_on_c, 1, 52, 107
3, 65688, Note_off_c, 1, 52, 64
3, 65700, Note_on_c, 1, 50, 107
3, 65748, Note_off_c, 1, 50, 64
3, 65760, Note_on_c, 1, 49, 107
3, 65808, Note_off_c, 1, 49, 64
3, 65820, Note_on_c, 1, 51, 107
3, 65868, Note_off_c, 1, 51, 64
3, 65880, Note_on_c, 1, 52, 107
3, 65928, Note_off_c, 1, 52, 64
3, 65940, Note_on_c, 1, 55, 107
3, 65988, Note_off_c, 1, 55, 64
3, 66000, Note_on_c, 1, 54, 107
3, 66048, Note_off_c, 1, 54, 64
3, 66060, Note_on_c, 1, 52, 107
3, 66108, Note_off_c, 1, 52, 64
3, 66120, Note_on_c, 1, 51, 107
3, 66168, Note_off_c, 1, 51, 64
3, 66180, Note_on_c, 1, 54, 107
3, 66228, Note_off_c, 1, 54, 64
3, 66240, Note_on_c, 1, 52, 107
3, 66288, Note_off_c, 1, 52, 64
3, 66300, Note_on_c, 1, 55, 107
3, 66348, Note_off_c, 1, 55, 64
3, 66360, Note_on_c, 1, 54, 107
3, 66408, Note_off_c, 1, 54, 64
3, 66420, Note_on_c, 1, 52, 107
3, 66468, Note_off_c, 1, 52, 64
3, 66480, Note_on_c, 1, 50, 107
3, 66528, Note_off_c, 1, 50, 64
3, 66540, Note_on_c, 1, 55, 107
3, 66588, Note_off_c, 1, 55, 64
3, 66600, Note_on_c, 1, 48, 107
3, 66648, Note_off_c, 1, 48, 64
3, 66660, Note_on_c, 1, 52, 107
3, 66708, Note_off_c, 1, 52, 64
3, 66720, Note_on_c, 1, 50, 107
3, 66768, Note_off_c, 1, 50, 64
3, 66780, Note_on_c, 1, 48, 107
3, 66828, Note_off_c, 1, 48, 64
3, 66840, Note_on_c, 1, 47, 107
3, 66888, Note_off_c, 1, 47, 64
3, 66900, Note_on_c, 1, 55, 107
3, 66948, Note_off_c, 1, 55, 64
3, 66960, Note_on_c, 1, 45, 107
3, 67008, Note_off_c, 1, 45, 64
3, 67020, Note_on_c, 1, 57, 107
3, 67068, Note_off_c, 1, 57, 64
3, 67080, Note_on_c, 1, 55, 107
3, 67128, Note_off_c, 1, 55, 64
3, 67140, Note_on_c, 1, 54, 107
3, 67188, Note_off_c, 1, 54, 64
3, 67200, Note_on_c, 1, 59, 107
3, 67248, Note_off_c, 1, 59, 64
3, 67260, Note_on_c, 1, 47, 107
3, 67308, Note_off_c, 1, 47, 64
3, 67320, Note_on_c, 1, 52, 107
3, 67368, Note_off_c, 1, 52, 64
3, 67380, Note_on_c, 1, 47, 107
3, 67428, Note_off_c, 1, 47, 64
3, 67440, Note_on_c, 1, 44, 107
3, 67488, Note_off_c, 1, 44, 64
3, 67500, Note_on_c, 1, 40, 107
3, 67548, Note_off_c, 1, 40, 64
3, 67560, Note_on_c, 1, 50, 107
3, 67608, Note_off_c, 1, 50, 64
3, 67620, Note_on_c, 1, 47, 107
3, 67668, Note_off_c, 1, 47, 64
3, 67680, Note_on_c, 1, 48, 107
3, 67728, Note_off_c, 1, 48, 64
3, 67740, Note_on_c, 1, 45, 107
3, 67788, Note_off_c, 1, 45, 64
3, 67800, Note_on_c, 1, 48, 107
3, 67848, Note_off_c, 1, 48, 64
3, 67860, Note_on_c, 1, 52, 107
3, 67908, Note_off_c, 1, 52, 64
3, 67920, Note_on_c, 1, 57, 107
3, 67968, Note_off_c, 1, 57, 64
3, 67980, Note_on_c, 1, 56, 107
3, 68028, Note_off_c, 1, 56, 64
3, 68040, Note_on_c, 1, 57, 107
3, 68088, Note_off_c, 1, 57, 64
3, 68100, Note_on_c, 1, 52, 107
3, 68148, Note_off_c, 1, 52, 64
3, 68160, Note_on_c, 1, 57, 107
3, 68208, Note_off_c, 1, 57, 64
3, 68220, Note_on_c, 1, 60, 107
3, 68268, Note_off_c, 1, 60, 64
3, 68280, Note_on_c, 1, 64, 107
3, 68328, Note_off_c, 1, 64, 64
3, 68340, Note_on_c, 1, 63, 107
3, 68388, Note_off_c, 1, 63, 64
3, 68400, Note_on_c, 1, 64, 107
3, 68688, Note_off_c, 1, 64, 64
3, 69000, Note_on_c, 1, 40, 107
3, 69096, Note_off_c, 1, 40, 64
3, 69096, End_track
4, 0, Start_track
4, 0, Title_t, "Arr. Gary Bricault, (c) 1997"
4, 0, End_track
0, 0, End_of_file
