0, 0, Header, 1, 3, 384
1, 0, Start_track
1, 0, Time_signature, 4, 2, 24, 8
1, 0, Tempo, 500000
1, 241152, End_track
2, 0, Start_track
2, 0, Text_t, "harpsichord: John Sankey"
2, 0, Program_c, 0, 6
2, 0, Pitch_bend_c, 0, 8192
2, 0, Program_c, 1, 6
2, 0, Pitch_bend_c, 1, 7792
2, 0, Program_c, 2, 6
2, 0, Pitch_bend_c, 2, 7876
2, 0, Program_c, 3, 6
2, 0, Pitch_bend_c, 3, 7952
2, 0, Program_c, 4, 6
2, 0, Pitch_bend_c, 4, 7792
2, 0, Program_c, 5, 6
2, 0, Pitch_bend_c, 5, 8112
2, 0, Program_c, 6, 6
2, 0, Pitch_bend_c, 6, 7712
2, 0, Program_c, 7, 6
2, 0, Pitch_bend_c, 7, 8037
2, 0, Program_c, 8, 6
2, 0, Pitch_bend_c, 8, 7872
2, 0, Program_c, 10, 6
2, 0, Pitch_bend_c, 10, 7712
2, 0, Program_c, 11, 6
2, 0, Pitch_bend_c, 11, 8032
2, 0, Program_c, 12, 6
2, 0, Pitch_bend_c, 12, 7872
2, 0, Title_t, "Track 1"
2, 64, Note_on_c, 7, 67, 127
2, 64, Note_on_c, 11, 70, 127
2, 268, Note_on_c, 3, 63, 127
2, 471, Note_off_c, 3, 63, 127
2, 473, Note_on_c, 2, 62, 127
2, 676, Note_off_c, 2, 62, 127
2, 678, Note_on_c, 3, 63, 127
2, 881, Note_off_c, 3, 63, 127
2, 883, Note_on_c, 11, 58, 127
2, 1086, Note_off_c, 11, 58, 127
2, 1088, Note_on_c, 7, 55, 127
2, 1291, Note_off_c, 7, 55, 127
2, 1291, Note_off_c, 11, 70, 127
2, 1292, Note_on_c, 3, 51, 127
2, 1496, Note_off_c, 7, 67, 127
2, 1497, Note_on_c, 7, 67, 127
2, 1702, Note_on_c, 3, 75, 127
2, 1900, Note_off_c, 3, 51, 127
2, 1905, Note_off_c, 3, 75, 127
2, 1905, Note_off_c, 7, 67, 127
2, 1907, Note_on_c, 5, 65, 127
2, 1907, Note_on_c, 3, 75, 127
2, 2112, Note_on_c, 11, 58, 127
2, 2315, Note_off_c, 11, 58, 127
2, 2316, Note_on_c, 10, 57, 127
2, 2519, Note_off_c, 10, 57, 127
2, 2519, Note_off_c, 3, 75, 127
2, 2521, Note_on_c, 2, 74, 127
2, 2521, Note_on_c, 11, 58, 127
2, 2724, Note_off_c, 11, 58, 127
2, 2726, Note_on_c, 5, 53, 127
2, 2929, Note_off_c, 5, 53, 127
2, 2931, Note_on_c, 2, 50, 127
2, 3134, Note_off_c, 2, 50, 127
2, 3134, Note_off_c, 5, 65, 127
2, 3136, Note_on_c, 11, 46, 127
2, 3338, Note_off_c, 2, 74, 127
2, 3340, Note_on_c, 5, 65, 127
2, 3543, Note_off_c, 5, 65, 127
2, 3545, Note_on_c, 7, 67, 127
2, 3648, Note_off_c, 11, 46, 127
2, 3748, Note_off_c, 7, 67, 127
2, 3750, Note_on_c, 8, 68, 127
2, 3750, Note_on_c, 5, 53, 127
2, 3955, Note_on_c, 0, 60, 127
2, 4158, Note_off_c, 0, 60, 127
2, 4160, Note_on_c, 3, 63, 127
2, 4358, Note_off_c, 8, 68, 127
2, 4362, Note_off_c, 5, 53, 127
2, 4363, Note_off_c, 3, 63, 127
2, 4364, Note_on_c, 2, 62, 127
2, 4364, Note_on_c, 11, 58, 127
2, 4569, Note_on_c, 5, 65, 127
2, 4772, Note_off_c, 5, 65, 127
2, 4774, Note_on_c, 11, 70, 127
2, 4972, Note_off_c, 11, 58, 127
2, 4972, Note_off_c, 2, 62, 127
2, 4979, Note_on_c, 11, 58, 127
2, 4979, Note_on_c, 11, 46, 127
2, 5182, Note_off_c, 11, 70, 127
2, 5184, Note_on_c, 5, 65, 127
2, 5387, Note_off_c, 5, 65, 127
2, 5388, Note_on_c, 8, 68, 127
2, 5587, Note_off_c, 11, 46, 127
2, 5587, Note_off_c, 11, 58, 127
2, 5593, Note_on_c, 11, 58, 127
2, 5672, Note_on_c, 3, 63, 127
2, 5718, Note_off_c, 8, 68, 127
2, 5753, Note_on_c, 8, 68, 127
2, 5798, Note_on_c, 3, 51, 127
2, 6001, Note_off_c, 3, 51, 127
2, 6003, Note_on_c, 2, 50, 127
2, 6206, Note_off_c, 2, 50, 127
2, 6206, Note_off_c, 8, 68, 127
2, 6208, Note_on_c, 7, 67, 127
2, 6208, Note_on_c, 3, 51, 127
2, 6411, Note_off_c, 3, 51, 127
2, 6412, Note_on_c, 11, 46, 127
2, 6615, Note_off_c, 11, 46, 127
2, 6617, Note_on_c, 7, 43, 127
2, 6820, Note_off_c, 7, 43, 127
2, 6820, Note_off_c, 11, 58, 127
2, 6822, Note_off_c, 3, 63, 127
2, 6822, Note_on_c, 3, 39, 127
2, 6908, Note_off_c, 7, 67, 127
2, 7038, Note_on_c, 3, 51, 127
2, 7241, Note_off_c, 3, 51, 127
2, 7248, Note_on_c, 2, 50, 127
2, 7451, Note_off_c, 2, 50, 127
2, 7452, Note_on_c, 3, 51, 127
2, 7655, Note_off_c, 3, 51, 127
2, 7657, Note_on_c, 7, 55, 127
2, 7860, Note_off_c, 7, 55, 127
2, 7862, Note_on_c, 5, 53, 127
2, 8065, Note_off_c, 5, 53, 127
2, 8067, Note_on_c, 7, 55, 127
2, 8270, Note_off_c, 7, 55, 127
2, 8272, Note_on_c, 11, 58, 127
2, 8475, Note_off_c, 11, 58, 127
2, 8476, Note_on_c, 8, 56, 127
2, 8497, Note_off_c, 3, 39, 127
2, 8547, Note_on_c, 3, 39, 127
2, 8679, Note_off_c, 3, 39, 127
2, 8679, Note_off_c, 8, 56, 127
2, 8681, Note_on_c, 3, 39, 127
2, 8681, Note_on_c, 3, 51, 127
2, 8681, Note_on_c, 11, 58, 127
2, 8884, Note_off_c, 11, 58, 127
2, 8886, Note_on_c, 3, 63, 127
2, 9089, Note_off_c, 3, 63, 127
2, 9091, Note_on_c, 7, 55, 127
2, 9143, Note_off_c, 3, 51, 127
2, 9143, Note_off_c, 3, 39, 127
2, 9145, Note_on_c, 1, 49, 127
2, 9145, Note_on_c, 3, 39, 127
2, 9293, Note_off_c, 3, 39, 127
2, 9293, Note_off_c, 1, 49, 127
2, 9294, Note_off_c, 7, 55, 127
2, 9296, Note_on_c, 0, 48, 127
2, 9296, Note_on_c, 3, 39, 127
2, 9296, Note_on_c, 8, 56, 127
2, 9499, Note_off_c, 8, 56, 127
2, 9500, Note_on_c, 0, 60, 127
2, 9703, Note_off_c, 0, 60, 127
2, 9704, Note_off_c, 0, 48, 127
2, 9705, Note_on_c, 3, 51, 127
2, 9705, Note_on_c, 11, 58, 127
2, 9908, Note_off_c, 11, 58, 127
2, 9908, Note_off_c, 3, 51, 127
2, 9910, Note_on_c, 8, 44, 127
2, 9910, Note_on_c, 0, 60, 127
2, 10113, Note_off_c, 0, 60, 127
2, 10115, Note_on_c, 3, 63, 127
2, 10318, Note_off_c, 3, 63, 127
2, 10320, Note_on_c, 1, 61, 127
2, 10352, Note_off_c, 3, 39, 127
2, 10372, Note_off_c, 8, 44, 127
2, 10374, Note_on_c, 11, 46, 127
2, 10374, Note_on_c, 3, 39, 127
2, 10522, Note_off_c, 3, 39, 127
2, 10522, Note_off_c, 11, 46, 127
2, 10523, Note_off_c, 1, 61, 127
2, 10524, Note_on_c, 3, 39, 127
2, 10524, Note_on_c, 0, 48, 127
2, 10524, Note_on_c, 3, 63, 127
2, 10727, Note_off_c, 3, 63, 127
2, 10729, Note_on_c, 8, 68, 127
2, 10932, Note_off_c, 8, 68, 127
2, 10934, Note_on_c, 0, 60, 127
2, 10986, Note_off_c, 0, 48, 127
2, 10986, Note_off_c, 3, 39, 127
2, 10988, Note_on_c, 8, 44, 127
2, 10988, Note_on_c, 3, 39, 127
2, 11136, Note_off_c, 3, 39, 127
2, 11136, Note_off_c, 8, 44, 127
2, 11137, Note_off_c, 0, 60, 127
2, 11139, Note_on_c, 3, 51, 127
2, 11139, Note_on_c, 5, 53, 127
2, 11139, Note_on_c, 2, 62, 127
2, 11342, Note_off_c, 2, 62, 127
2, 11344, Note_on_c, 5, 65, 127
2, 11547, Note_off_c, 5, 65, 127
2, 11547, Note_off_c, 5, 53, 127
2, 11548, Note_on_c, 8, 56, 127
2, 11548, Note_on_c, 3, 63, 127
2, 11747, Note_off_c, 3, 51, 127
2, 11751, Note_off_c, 3, 63, 127
2, 11751, Note_off_c, 8, 56, 127
2, 11753, Note_on_c, 2, 50, 127
2, 11753, Note_on_c, 5, 65, 127
2, 11956, Note_off_c, 5, 65, 127
2, 11958, Note_on_c, 8, 68, 127
2, 12161, Note_off_c, 8, 68, 127
2, 12161, Note_off_c, 2, 50, 127
2, 12163, Note_on_c, 3, 51, 127
2, 12163, Note_on_c, 7, 67, 127
2, 12366, Note_off_c, 7, 67, 127
2, 12366, Note_off_c, 3, 51, 127
2, 12368, Note_on_c, 5, 53, 127
2, 12368, Note_on_c, 8, 68, 127
2, 12572, Note_on_c, 5, 77, 127
2, 12788, Note_off_c, 5, 77, 127
2, 12788, Note_off_c, 8, 68, 127
2, 12788, Note_off_c, 5, 53, 127
2, 12788, Note_on_c, 2, 50, 127
2, 12788, Note_on_c, 11, 46, 127
2, 12788, Note_on_c, 3, 39, 127
2, 12788, Note_on_c, 8, 68, 127
2, 12976, Note_off_c, 8, 68, 127
2, 12976, Note_off_c, 3, 39, 127
2, 12976, Note_off_c, 11, 46, 127
2, 12976, Note_off_c, 2, 50, 127
2, 12982, Note_on_c, 3, 39, 127
2, 12982, Note_on_c, 11, 46, 127
2, 12982, Note_on_c, 3, 51, 127
2, 12982, Note_on_c, 7, 67, 127
2, 13185, Note_off_c, 7, 67, 127
2, 13187, Note_on_c, 11, 70, 127
2, 13390, Note_off_c, 11, 70, 127
2, 13390, Note_off_c, 3, 51, 127
2, 13390, Note_off_c, 11, 46, 127
2, 13390, Note_off_c, 3, 39, 127
2, 13392, Note_on_c, 5, 53, 127
2, 13392, Note_on_c, 8, 68, 127
2, 13595, Note_off_c, 8, 68, 127
2, 13595, Note_off_c, 5, 53, 127
2, 13596, Note_on_c, 7, 55, 127
2, 13596, Note_on_c, 11, 70, 127
2, 13799, Note_off_c, 11, 70, 127
2, 13801, Note_on_c, 3, 75, 127
2, 14004, Note_off_c, 3, 75, 127
2, 14004, Note_off_c, 7, 55, 127
2, 14006, Note_on_c, 11, 58, 127
2, 14006, Note_on_c, 2, 74, 127
2, 14209, Note_off_c, 2, 74, 127
2, 14209, Note_off_c, 11, 58, 127
2, 14211, Note_on_c, 7, 55, 127
2, 14211, Note_on_c, 3, 75, 127
2, 14414, Note_off_c, 3, 75, 127
2, 14416, Note_on_c, 7, 79, 127
2, 14619, Note_off_c, 7, 79, 127
2, 14619, Note_off_c, 7, 55, 127
2, 14620, Note_on_c, 2, 50, 127
2, 14620, Note_on_c, 5, 77, 127
2, 14823, Note_off_c, 5, 77, 127
2, 14823, Note_off_c, 2, 50, 127
2, 14825, Note_on_c, 3, 51, 127
2, 14825, Note_on_c, 7, 79, 127
2, 15028, Note_off_c, 7, 79, 127
2, 15030, Note_on_c, 3, 75, 127
2, 15233, Note_off_c, 3, 75, 127
2, 15233, Note_off_c, 3, 51, 127
2, 15235, Note_on_c, 7, 55, 127
2, 15235, Note_on_c, 2, 74, 127
2, 15438, Note_off_c, 2, 74, 127
2, 15438, Note_off_c, 7, 55, 127
2, 15440, Note_on_c, 0, 48, 127
2, 15440, Note_on_c, 3, 75, 127
2, 15643, Note_off_c, 3, 75, 127
2, 15644, Note_on_c, 0, 72, 127
2, 15847, Note_off_c, 0, 72, 127
2, 15848, Note_off_c, 0, 48, 127
2, 15849, Note_on_c, 2, 50, 127
2, 15849, Note_on_c, 11, 70, 127
2, 16052, Note_off_c, 11, 70, 127
2, 16052, Note_off_c, 2, 50, 127
2, 16054, Note_on_c, 3, 51, 127
2, 16054, Note_on_c, 0, 72, 127
2, 16154, Note_off_c, 3, 51, 127
2, 16156, Note_on_c, 2, 50, 127
2, 16256, Note_off_c, 2, 50, 127
2, 16257, Note_off_c, 0, 72, 127
2, 16259, Note_on_c, 0, 48, 127
2, 16259, Note_on_c, 10, 69, 127
2, 16359, Note_off_c, 0, 48, 127
2, 16361, Note_on_c, 2, 50, 127
2, 16461, Note_off_c, 2, 50, 127
2, 16462, Note_off_c, 10, 69, 127
2, 16464, Note_on_c, 3, 51, 127
2, 16464, Note_on_c, 7, 67, 127
2, 16667, Note_off_c, 7, 67, 127
2, 16667, Note_off_c, 3, 51, 127
2, 16668, Note_on_c, 5, 41, 127
2, 16668, Note_on_c, 10, 69, 127
2, 16873, Note_on_c, 5, 65, 127
2, 17076, Note_off_c, 5, 65, 127
2, 17076, Note_off_c, 5, 41, 127
2, 17078, Note_on_c, 3, 63, 127
2, 17281, Note_off_c, 3, 63, 127
2, 17283, Note_on_c, 5, 65, 127
2, 17488, Note_on_c, 0, 60, 127
2, 17691, Note_off_c, 0, 60, 127
2, 17692, Note_on_c, 10, 57, 127
2, 17891, Note_off_c, 5, 65, 127
2, 17895, Note_off_c, 10, 57, 127
2, 17895, Note_off_c, 10, 69, 127
2, 17897, Note_on_c, 5, 53, 127
2, 18102, Note_on_c, 10, 69, 127
2, 18305, Note_off_c, 10, 69, 127
2, 18307, Note_on_c, 3, 75, 127
2, 18509, Note_off_c, 5, 53, 127
2, 18510, Note_off_c, 3, 75, 127
2, 18512, Note_on_c, 11, 58, 127
2, 18512, Note_on_c, 2, 74, 127
2, 18716, Note_on_c, 11, 70, 127
2, 18919, Note_off_c, 11, 70, 127
2, 18920, Note_off_c, 2, 74, 127
2, 18921, Note_on_c, 5, 65, 127
2, 19124, Note_off_c, 5, 65, 127
2, 19124, Note_off_c, 11, 58, 127
2, 19126, Note_on_c, 3, 51, 127
2, 19126, Note_on_c, 7, 67, 127
2, 19331, Note_on_c, 3, 63, 127
2, 19534, Note_off_c, 3, 63, 127
2, 19536, Note_on_c, 2, 62, 127
2, 19734, Note_off_c, 7, 67, 127
2, 19738, Note_off_c, 3, 51, 127
2, 19739, Note_off_c, 2, 62, 127
2, 19740, Note_on_c, 5, 53, 127
2, 19740, Note_on_c, 0, 60, 127
2, 19945, Note_on_c, 11, 70, 127
2, 20148, Note_off_c, 11, 70, 127
2, 20150, Note_on_c, 10, 69, 127
2, 20348, Note_off_c, 0, 60, 127
2, 20348, Note_off_c, 5, 53, 127
2, 20353, Note_off_c, 10, 69, 127
2, 20355, Note_on_c, 2, 62, 127
2, 20355, Note_on_c, 11, 70, 127
2, 20560, Note_on_c, 11, 58, 127
2, 20763, Note_off_c, 11, 58, 127
2, 20764, Note_on_c, 10, 57, 127
2, 20967, Note_off_c, 10, 57, 127
2, 20969, Note_on_c, 11, 58, 127
2, 21172, Note_off_c, 11, 58, 127
2, 21174, Note_on_c, 5, 53, 127
2, 21377, Note_off_c, 5, 53, 127
2, 21379, Note_on_c, 2, 50, 127
2, 21582, Note_off_c, 2, 50, 127
2, 21582, Note_off_c, 11, 70, 127
2, 21584, Note_on_c, 11, 46, 127
2, 21787, Note_off_c, 2, 62, 127
2, 21798, Note_on_c, 11, 58, 127
2, 22008, Note_off_c, 11, 58, 127
2, 22009, Note_on_c, 10, 57, 127
2, 22212, Note_off_c, 10, 57, 127
2, 22214, Note_on_c, 11, 58, 127
2, 22401, Note_off_c, 11, 46, 127
2, 22417, Note_off_c, 11, 58, 127
2, 22419, Note_on_c, 2, 62, 127
2, 22419, Note_on_c, 11, 46, 127
2, 22622, Note_off_c, 11, 46, 127
2, 22622, Note_off_c, 2, 62, 127
2, 22624, Note_on_c, 0, 60, 127
2, 22624, Note_on_c, 10, 45, 127
2, 22827, Note_off_c, 10, 45, 127
2, 22827, Note_off_c, 0, 60, 127
2, 22828, Note_on_c, 2, 62, 127
2, 22828, Note_on_c, 11, 46, 127
2, 23031, Note_off_c, 2, 62, 127
2, 23033, Note_on_c, 5, 65, 127
2, 23033, Note_on_c, 2, 50, 127
2, 23132, Note_off_c, 11, 46, 127
2, 23236, Note_off_c, 2, 50, 127
2, 23236, Note_off_c, 5, 65, 127
2, 23238, Note_on_c, 3, 63, 127
2, 23238, Note_on_c, 0, 48, 127
2, 23328, Note_on_c, 11, 46, 127
2, 23441, Note_off_c, 11, 46, 127
2, 23441, Note_off_c, 0, 48, 127
2, 23441, Note_off_c, 3, 63, 127
2, 23443, Note_on_c, 5, 65, 127
2, 23443, Note_on_c, 11, 46, 127
2, 23443, Note_on_c, 2, 50, 127
2, 23646, Note_off_c, 2, 50, 127
2, 23646, Note_off_c, 5, 65, 127
2, 23648, Note_on_c, 8, 68, 127
2, 23648, Note_on_c, 5, 53, 127
2, 23811, Note_off_c, 11, 46, 127
2, 23851, Note_off_c, 5, 53, 127
2, 23851, Note_off_c, 8, 68, 127
2, 23852, Note_on_c, 2, 62, 127
2, 23852, Note_on_c, 8, 56, 127
2, 23942, Note_on_c, 11, 46, 127
2, 24055, Note_off_c, 11, 46, 127
2, 24055, Note_off_c, 8, 56, 127
2, 24055, Note_off_c, 2, 62, 127
2, 24057, Note_on_c, 3, 63, 127
2, 24057, Note_on_c, 7, 55, 127
2, 24057, Note_on_c, 11, 46, 127
2, 24260, Note_off_c, 7, 55, 127
2, 24260, Note_off_c, 3, 63, 127
2, 24262, Note_on_c, 7, 67, 127
2, 24262, Note_on_c, 11, 58, 127
2, 24465, Note_off_c, 11, 58, 127
2, 24465, Note_off_c, 7, 67, 127
2, 24465, Note_off_c, 11, 46, 127
2, 24467, Note_on_c, 5, 65, 127
2, 24467, Note_on_c, 8, 56, 127
2, 24670, Note_off_c, 8, 56, 127
2, 24670, Note_off_c, 5, 65, 127
2, 24672, Note_on_c, 7, 67, 127
2, 24672, Note_on_c, 11, 58, 127
2, 24875, Note_off_c, 11, 58, 127
2, 24875, Note_off_c, 7, 67, 127
2, 24876, Note_on_c, 11, 70, 127
2, 24876, Note_on_c, 7, 55, 127
2, 25079, Note_off_c, 7, 55, 127
2, 25079, Note_off_c, 11, 70, 127
2, 25081, Note_on_c, 8, 68, 127
2, 25081, Note_on_c, 5, 53, 127
2, 25171, Note_on_c, 11, 46, 127
2, 25284, Note_off_c, 11, 46, 127
2, 25284, Note_off_c, 5, 53, 127
2, 25284, Note_off_c, 8, 68, 127
2, 25286, Note_on_c, 11, 70, 127
2, 25286, Note_on_c, 7, 55, 127
2, 25286, Note_on_c, 11, 46, 127
2, 25489, Note_off_c, 7, 55, 127
2, 25489, Note_off_c, 11, 70, 127
2, 25491, Note_on_c, 3, 75, 127
2, 25491, Note_on_c, 11, 58, 127
2, 25694, Note_off_c, 11, 58, 127
2, 25694, Note_off_c, 3, 75, 127
2, 25694, Note_off_c, 11, 46, 127
2, 25696, Note_on_c, 7, 67, 127
2, 25696, Note_on_c, 2, 62, 127
2, 25785, Note_on_c, 11, 58, 127
2, 25898, Note_off_c, 11, 58, 127
2, 25899, Note_off_c, 2, 62, 127
2, 25899, Note_off_c, 7, 67, 127
2, 25900, Note_on_c, 10, 69, 127
2, 25900, Note_on_c, 11, 58, 127
2, 25900, Note_on_c, 0, 60, 127
2, 26103, Note_off_c, 0, 60, 127
2, 26103, Note_off_c, 10, 69, 127
2, 26105, Note_on_c, 0, 72, 127
2, 26105, Note_on_c, 3, 63, 127
2, 26308, Note_off_c, 3, 63, 127
2, 26308, Note_off_c, 0, 72, 127
2, 26310, Note_on_c, 11, 70, 127
2, 26310, Note_on_c, 2, 62, 127
2, 26508, Note_off_c, 11, 58, 127
2, 26513, Note_off_c, 2, 62, 127
2, 26513, Note_off_c, 11, 70, 127
2, 26515, Note_on_c, 0, 72, 127
2, 26515, Note_on_c, 3, 63, 127
2, 26718, Note_off_c, 3, 63, 127
2, 26718, Note_off_c, 0, 72, 127
2, 26720, Note_on_c, 3, 75, 127
2, 26720, Note_on_c, 0, 60, 127
2, 26923, Note_off_c, 0, 60, 127
2, 26923, Note_off_c, 3, 75, 127
2, 26924, Note_on_c, 2, 74, 127
2, 26924, Note_on_c, 11, 58, 127
2, 27127, Note_off_c, 11, 58, 127
2, 27127, Note_off_c, 2, 74, 127
2, 27129, Note_on_c, 3, 75, 127
2, 27129, Note_on_c, 0, 60, 127
2, 27332, Note_off_c, 3, 75, 127
2, 27334, Note_on_c, 0, 84, 127
2, 27334, Note_on_c, 11, 58, 127
2, 27537, Note_off_c, 0, 60, 127
2, 27545, Note_off_c, 11, 58, 127
2, 27545, Note_on_c, 11, 46, 127
2, 27545, Note_on_c, 5, 53, 127
2, 27545, Note_on_c, 10, 57, 127
2, 27545, Note_on_c, 3, 75, 127
2, 27553, Note_off_c, 0, 84, 127
2, 27740, Note_off_c, 3, 75, 127
2, 27740, Note_off_c, 10, 57, 127
2, 27740, Note_off_c, 5, 53, 127
2, 27740, Note_off_c, 11, 46, 127
2, 27744, Note_on_c, 2, 74, 127
2, 27744, Note_on_c, 11, 46, 127
2, 27744, Note_on_c, 5, 53, 127
2, 27744, Note_on_c, 11, 58, 127
2, 27947, Note_off_c, 11, 58, 127
2, 27947, Note_off_c, 5, 53, 127
2, 27947, Note_off_c, 2, 74, 127
2, 27948, Note_on_c, 11, 70, 127
2, 27948, Note_on_c, 2, 62, 127
2, 28151, Note_off_c, 2, 62, 127
2, 28151, Note_off_c, 11, 70, 127
2, 28153, Note_on_c, 10, 69, 127
2, 28153, Note_on_c, 0, 60, 127
2, 28352, Note_off_c, 11, 46, 127
2, 28356, Note_off_c, 0, 60, 127
2, 28356, Note_off_c, 10, 69, 127
2, 28358, Note_on_c, 11, 70, 127
2, 28358, Note_on_c, 2, 62, 127
2, 28561, Note_off_c, 2, 62, 127
2, 28561, Note_off_c, 11, 70, 127
2, 28563, Note_on_c, 2, 74, 127
2, 28563, Note_on_c, 5, 65, 127
2, 28766, Note_off_c, 5, 65, 127
2, 28766, Note_off_c, 2, 74, 127
2, 28768, Note_on_c, 0, 72, 127
2, 28768, Note_on_c, 3, 63, 127
2, 28971, Note_off_c, 3, 63, 127
2, 28971, Note_off_c, 0, 72, 127
2, 28972, Note_on_c, 2, 74, 127
2, 28972, Note_on_c, 5, 65, 127
2, 29175, Note_off_c, 5, 65, 127
2, 29175, Note_off_c, 2, 74, 127
2, 29177, Note_on_c, 5, 77, 127
2, 29177, Note_on_c, 8, 68, 127
2, 29380, Note_off_c, 8, 68, 127
2, 29380, Note_off_c, 5, 77, 127
2, 29382, Note_on_c, 3, 75, 127
2, 29382, Note_on_c, 7, 67, 127
2, 29585, Note_off_c, 7, 67, 127
2, 29587, Note_on_c, 8, 68, 127
2, 29646, Note_off_c, 3, 75, 127
2, 29667, Note_on_c, 2, 74, 127
2, 29747, Note_on_c, 5, 77, 127
2, 29792, Note_on_c, 11, 58, 127
2, 29995, Note_off_c, 11, 58, 127
2, 29996, Note_on_c, 10, 57, 127
2, 30199, Note_off_c, 10, 57, 127
2, 30201, Note_on_c, 11, 58, 127
2, 30404, Note_off_c, 11, 58, 127
2, 30406, Note_on_c, 5, 53, 127
2, 30609, Note_off_c, 5, 53, 127
2, 30611, Note_on_c, 2, 50, 127
2, 30814, Note_off_c, 2, 50, 127
2, 30816, Note_on_c, 11, 46, 127
2, 31019, Note_off_c, 5, 77, 127
2, 31019, Note_off_c, 2, 74, 127
2, 31019, Note_off_c, 8, 68, 127
2, 31020, Note_on_c, 7, 67, 127
2, 31020, Note_on_c, 3, 63, 127
2, 31223, Note_off_c, 3, 63, 127
2, 31223, Note_off_c, 7, 67, 127
2, 31225, Note_on_c, 5, 65, 127
2, 31225, Note_on_c, 2, 62, 127
2, 31424, Note_off_c, 11, 46, 127
2, 31428, Note_off_c, 2, 62, 127
2, 31428, Note_off_c, 5, 65, 127
2, 31430, Note_on_c, 7, 67, 127
2, 31430, Note_on_c, 3, 63, 127
2, 31635, Note_on_c, 11, 58, 127
2, 31838, Note_off_c, 11, 58, 127
2, 31840, Note_on_c, 8, 56, 127
2, 32043, Note_off_c, 8, 56, 127
2, 32044, Note_on_c, 11, 58, 127
2, 32247, Note_off_c, 11, 58, 127
2, 32249, Note_on_c, 7, 55, 127
2, 32452, Note_off_c, 7, 55, 127
2, 32454, Note_on_c, 3, 51, 127
2, 32657, Note_off_c, 3, 51, 127
2, 32659, Note_on_c, 11, 46, 127
2, 32862, Note_off_c, 3, 63, 127
2, 32862, Note_off_c, 7, 67, 127
2, 32864, Note_on_c, 2, 74, 127
2, 32864, Note_on_c, 5, 65, 127
2, 33067, Note_off_c, 5, 65, 127
2, 33067, Note_off_c, 2, 74, 127
2, 33068, Note_on_c, 3, 75, 127
2, 33068, Note_on_c, 7, 67, 127
2, 33271, Note_off_c, 7, 67, 127
2, 33271, Note_off_c, 3, 75, 127
2, 33273, Note_on_c, 5, 77, 127
2, 33273, Note_on_c, 8, 68, 127
2, 33379, Note_off_c, 11, 46, 127
2, 33478, Note_on_c, 11, 46, 127
2, 33681, Note_off_c, 11, 46, 127
2, 33683, Note_on_c, 10, 45, 127
2, 33886, Note_off_c, 10, 45, 127
2, 33888, Note_on_c, 11, 46, 127
2, 34091, Note_off_c, 11, 46, 127
2, 34092, Note_on_c, 2, 50, 127
2, 34295, Note_off_c, 2, 50, 127
2, 34295, Note_on_c, 0, 48, 127
2, 34349, Note_off_c, 8, 68, 127
2, 34349, Note_off_c, 5, 77, 127
2, 34352, Note_on_c, 8, 68, 127
2, 34352, Note_on_c, 5, 77, 127
2, 34498, Note_off_c, 0, 48, 127
2, 34500, Note_off_c, 5, 77, 127
2, 34500, Note_off_c, 8, 68, 127
2, 34502, Note_on_c, 12, 71, 127
2, 34502, Note_on_c, 8, 68, 127
2, 34502, Note_on_c, 2, 50, 127
2, 34705, Note_off_c, 2, 50, 127
2, 34707, Note_on_c, 5, 53, 127
2, 34910, Note_off_c, 5, 53, 127
2, 34910, Note_on_c, 3, 51, 127
2, 34948, Note_off_c, 8, 68, 127
2, 34948, Note_off_c, 12, 71, 127
2, 34950, Note_on_c, 8, 68, 127
2, 34950, Note_on_c, 5, 65, 127
2, 34950, Note_on_c, 0, 72, 127
2, 35108, Note_off_c, 0, 72, 127
2, 35108, Note_off_c, 5, 65, 127
2, 35108, Note_off_c, 8, 68, 127
2, 35113, Note_off_c, 3, 51, 127
2, 35116, Note_on_c, 2, 62, 127
2, 35116, Note_on_c, 12, 71, 127
2, 35116, Note_on_c, 8, 68, 127
2, 35116, Note_on_c, 5, 53, 127
2, 35319, Note_off_c, 5, 53, 127
2, 35321, Note_on_c, 8, 56, 127
2, 35524, Note_off_c, 8, 56, 127
2, 35526, Note_on_c, 7, 55, 127
2, 35729, Note_off_c, 7, 55, 127
2, 35731, Note_on_c, 8, 56, 127
2, 35933, Note_off_c, 8, 68, 127
2, 35933, Note_off_c, 12, 71, 127
2, 35933, Note_off_c, 2, 62, 127
2, 35936, Note_on_c, 12, 59, 127
2, 36139, Note_off_c, 12, 59, 127
2, 36140, Note_on_c, 2, 62, 127
2, 36323, Note_off_c, 8, 56, 127
2, 36343, Note_off_c, 2, 62, 127
2, 36345, Note_on_c, 5, 65, 127
2, 36345, Note_on_c, 12, 47, 127
2, 36548, Note_off_c, 5, 65, 127
2, 36550, Note_on_c, 3, 63, 127
2, 36753, Note_off_c, 3, 63, 127
2, 36755, Note_on_c, 2, 62, 127
2, 36929, Note_off_c, 12, 47, 127
2, 36958, Note_off_c, 2, 62, 127
2, 36960, Note_on_c, 3, 63, 127
2, 36960, Note_on_c, 0, 48, 127
2, 37163, Note_off_c, 3, 63, 127
2, 37164, Note_on_c, 7, 67, 127
2, 37367, Note_off_c, 7, 67, 127
2, 37369, Note_on_c, 0, 72, 127
2, 37572, Note_off_c, 0, 72, 127
2, 37572, Note_off_c, 0, 48, 127
2, 37574, Note_on_c, 3, 75, 127
2, 37574, Note_on_c, 0, 60, 127
2, 37777, Note_off_c, 3, 75, 127
2, 37779, Note_on_c, 2, 74, 127
2, 37982, Note_off_c, 2, 74, 127
2, 37984, Note_on_c, 0, 72, 127
2, 38186, Note_off_c, 0, 60, 127
2, 38188, Note_on_c, 11, 58, 127
2, 38288, Note_off_c, 0, 72, 127
2, 38393, Note_on_c, 3, 63, 127
2, 38596, Note_off_c, 3, 63, 127
2, 38598, Note_on_c, 0, 72, 127
2, 38800, Note_off_c, 11, 58, 127
2, 38801, Note_off_c, 0, 72, 127
2, 38803, Note_on_c, 5, 65, 127
2, 38803, Note_on_c, 8, 56, 127
2, 39006, Note_off_c, 5, 65, 127
2, 39008, Note_on_c, 8, 68, 127
2, 39211, Note_off_c, 8, 68, 127
2, 39212, Note_on_c, 0, 72, 127
2, 39415, Note_off_c, 0, 72, 127
2, 39415, Note_off_c, 8, 56, 127
2, 39417, Note_on_c, 3, 75, 127
2, 39417, Note_on_c, 8, 44, 127
2, 39620, Note_off_c, 3, 75, 127
2, 39622, Note_on_c, 2, 74, 127
2, 39825, Note_off_c, 2, 74, 127
2, 39827, Note_on_c, 0, 72, 127
2, 40029, Note_off_c, 8, 44, 127
2, 40032, Note_on_c, 3, 51, 127
2, 40131, Note_off_c, 0, 72, 127
2, 40236, Note_on_c, 7, 67, 127
2, 40439, Note_off_c, 7, 67, 127
2, 40441, Note_on_c, 0, 72, 127
2, 40644, Note_off_c, 0, 72, 127
2, 40644, Note_off_c, 3, 51, 127
2, 40646, Note_on_c, 8, 68, 127
2, 40646, Note_on_c, 5, 53, 127
2, 40849, Note_off_c, 8, 68, 127
2, 40851, Note_on_c, 12, 71, 127
2, 41054, Note_off_c, 12, 71, 127
2, 41056, Note_on_c, 0, 72, 127
2, 41258, Note_off_c, 5, 53, 127
2, 41259, Note_off_c, 0, 72, 127
2, 41260, Note_on_c, 3, 75, 127
2, 41260, Note_on_c, 6, 54, 127
2, 41463, Note_off_c, 3, 75, 127
2, 41465, Note_on_c, 2, 74, 127
2, 41668, Note_off_c, 2, 74, 127
2, 41670, Note_on_c, 0, 72, 127
2, 41872, Note_off_c, 6, 54, 127
2, 41875, Note_on_c, 7, 55, 127
2, 41974, Note_off_c, 0, 72, 127
2, 42080, Note_on_c, 5, 65, 127
2, 42283, Note_off_c, 5, 65, 127
2, 42284, Note_on_c, 12, 71, 127
2, 42487, Note_off_c, 12, 71, 127
2, 42487, Note_off_c, 7, 55, 127
2, 42489, Note_on_c, 0, 72, 127
2, 42489, Note_on_c, 0, 48, 127
2, 42696, Note_on_c, 7, 67, 127
2, 42903, Note_on_c, 3, 63, 127
2, 43110, Note_on_c, 0, 60, 127
2, 43315, Note_off_c, 0, 48, 127
2, 43324, Note_on_c, 3, 51, 127
2, 43527, Note_off_c, 3, 51, 127
2, 43529, Note_on_c, 7, 55, 127
2, 43716, Note_off_c, 0, 72, 127
2, 43732, Note_off_c, 7, 55, 127
2, 43734, Note_on_c, 11, 58, 127
2, 43923, Note_off_c, 7, 67, 127
2, 43937, Note_off_c, 11, 58, 127
2, 43939, Note_on_c, 10, 57, 127
2, 44130, Note_off_c, 3, 63, 127
2, 44142, Note_off_c, 10, 57, 127
2, 44144, Note_on_c, 7, 55, 127
2, 44337, Note_off_c, 0, 60, 127
2, 44347, Note_off_c, 7, 55, 127
2, 44348, Note_on_c, 10, 57, 127
2, 44553, Note_on_c, 3, 75, 127
2, 44756, Note_off_c, 3, 75, 127
2, 44758, Note_on_c, 2, 74, 127
2, 44961, Note_off_c, 2, 74, 127
2, 44963, Note_on_c, 3, 75, 127
2, 45168, Note_on_c, 0, 72, 127
2, 45372, Note_on_c, 10, 69, 127
2, 45577, Note_on_c, 5, 65, 127
2, 45692, Note_off_c, 10, 57, 127
2, 45780, Note_off_c, 3, 75, 127
2, 45782, Note_on_c, 0, 60, 127
2, 45985, Note_off_c, 0, 60, 127
2, 45985, Note_off_c, 0, 72, 127
2, 45987, Note_on_c, 5, 53, 127
2, 46189, Note_off_c, 10, 69, 127
2, 46190, Note_off_c, 5, 53, 127
2, 46192, Note_on_c, 11, 58, 127
2, 46345, Note_off_c, 5, 65, 127
2, 46396, Note_on_c, 5, 65, 127
2, 46599, Note_off_c, 5, 65, 127
2, 46601, Note_on_c, 3, 63, 127
2, 46804, Note_off_c, 3, 63, 127
2, 46806, Note_on_c, 5, 65, 127
2, 47011, Note_on_c, 11, 70, 127
2, 47216, Note_on_c, 0, 72, 127
2, 47419, Note_off_c, 0, 72, 127
2, 47420, Note_on_c, 1, 73, 127
2, 47568, Note_off_c, 11, 58, 127
2, 47623, Note_off_c, 5, 65, 127
2, 47625, Note_on_c, 8, 56, 127
2, 47828, Note_off_c, 8, 56, 127
2, 47828, Note_off_c, 11, 70, 127
2, 47830, Note_on_c, 5, 53, 127
2, 48033, Note_off_c, 5, 53, 127
2, 48035, Note_on_c, 7, 55, 127
2, 48188, Note_off_c, 1, 73, 127
2, 48240, Note_on_c, 1, 73, 127
2, 48443, Note_off_c, 1, 73, 127
2, 48444, Note_on_c, 0, 72, 127
2, 48647, Note_off_c, 0, 72, 127
2, 48649, Note_on_c, 1, 73, 127
2, 48854, Note_on_c, 11, 70, 127
2, 49059, Note_on_c, 7, 67, 127
2, 49264, Note_on_c, 3, 63, 127
2, 49411, Note_off_c, 7, 55, 127
2, 49466, Note_off_c, 1, 73, 127
2, 49468, Note_on_c, 11, 58, 127
2, 49671, Note_off_c, 11, 58, 127
2, 49671, Note_off_c, 11, 70, 127
2, 49673, Note_on_c, 3, 51, 127
2, 49876, Note_off_c, 3, 51, 127
2, 49876, Note_off_c, 7, 67, 127
2, 49878, Note_on_c, 8, 56, 127
2, 50032, Note_off_c, 3, 63, 127
2, 50083, Note_on_c, 3, 63, 127
2, 50286, Note_off_c, 3, 63, 127
2, 50288, Note_on_c, 1, 61, 127
2, 50491, Note_off_c, 1, 61, 127
2, 50492, Note_on_c, 3, 63, 127
2, 50697, Note_on_c, 8, 68, 127
2, 50902, Note_on_c, 11, 70, 127
2, 51105, Note_off_c, 11, 70, 127
2, 51107, Note_on_c, 0, 72, 127
2, 51270, Note_off_c, 8, 56, 127
2, 51309, Note_off_c, 3, 63, 127
2, 51312, Note_on_c, 7, 55, 127
2, 51514, Note_off_c, 8, 68, 127
2, 51515, Note_off_c, 7, 55, 127
2, 51516, Note_on_c, 3, 51, 127
2, 51719, Note_off_c, 3, 51, 127
2, 51721, Note_on_c, 5, 53, 127
2, 51926, Note_on_c, 2, 62, 127
2, 52131, Note_on_c, 8, 68, 127
2, 52334, Note_off_c, 8, 68, 127
2, 52334, Note_off_c, 0, 72, 127
2, 52336, Note_on_c, 0, 72, 127
2, 52539, Note_off_c, 0, 72, 127
2, 52540, Note_on_c, 11, 70, 127
2, 52743, Note_off_c, 11, 70, 127
2, 52743, Note_off_c, 2, 62, 127
2, 52745, Note_on_c, 8, 68, 127
2, 52921, Note_off_c, 5, 53, 127
2, 52950, Note_on_c, 7, 55, 127
2, 53049, Note_off_c, 8, 68, 127
2, 53155, Note_on_c, 1, 61, 127
2, 53360, Note_on_c, 11, 70, 127
2, 53562, Note_off_c, 7, 55, 127
2, 53563, Note_off_c, 1, 61, 127
2, 53564, Note_on_c, 4, 52, 127
2, 53664, Note_off_c, 11, 70, 127
2, 53769, Note_on_c, 0, 60, 127
2, 53974, Note_on_c, 7, 67, 127
2, 54177, Note_off_c, 7, 67, 127
2, 54179, Note_on_c, 11, 70, 127
2, 54382, Note_off_c, 11, 70, 127
2, 54384, Note_on_c, 8, 68, 127
2, 54586, Note_off_c, 0, 60, 127
2, 54587, Note_off_c, 8, 68, 127
2, 54588, Note_on_c, 7, 67, 127
2, 54764, Note_off_c, 4, 52, 127
2, 54793, Note_on_c, 5, 53, 127
2, 54892, Note_off_c, 7, 67, 127
2, 54998, Note_on_c, 0, 60, 127
2, 55203, Note_on_c, 8, 68, 127
2, 55405, Note_off_c, 5, 53, 127
2, 55406, Note_off_c, 0, 60, 127
2, 55408, Note_on_c, 2, 50, 127
2, 55507, Note_off_c, 8, 68, 127
2, 55612, Note_on_c, 11, 58, 127
2, 55817, Note_on_c, 8, 68, 127
2, 56020, Note_off_c, 11, 58, 127
2, 56020, Note_off_c, 2, 50, 127
2, 56022, Note_on_c, 3, 51, 127
2, 56121, Note_off_c, 8, 68, 127
2, 56227, Note_on_c, 8, 68, 127
2, 56430, Note_off_c, 8, 68, 127
2, 56432, Note_on_c, 7, 67, 127
2, 56634, Note_off_c, 3, 51, 127
2, 56636, Note_on_c, 10, 45, 127
2, 56736, Note_off_c, 7, 67, 127
2, 56841, Note_on_c, 0, 72, 127
2, 57046, Note_on_c, 3, 63, 127
2, 57248, Note_off_c, 10, 45, 127
2, 57249, Note_off_c, 0, 72, 127
2, 57251, Note_on_c, 11, 46, 127
2, 57454, Note_off_c, 3, 63, 127
2, 57456, Note_on_c, 2, 62, 127
2, 57659, Note_off_c, 2, 62, 127
2, 57660, Note_on_c, 0, 60, 127
2, 57863, Note_off_c, 0, 60, 127
2, 57865, Note_on_c, 2, 62, 127
2, 58068, Note_off_c, 2, 62, 127
2, 58068, Note_off_c, 11, 46, 127
2, 58070, Note_on_c, 2, 50, 127
2, 58070, Note_on_c, 11, 58, 127
2, 58273, Note_off_c, 11, 58, 127
2, 58273, Note_off_c, 2, 50, 127
2, 58275, Note_on_c, 0, 48, 127
2, 58275, Note_on_c, 10, 57, 127
2, 58478, Note_off_c, 10, 57, 127
2, 58478, Note_off_c, 0, 48, 127
2, 58480, Note_on_c, 2, 50, 127
2, 58480, Note_on_c, 11, 58, 127
2, 58683, Note_off_c, 11, 58, 127
2, 58683, Note_off_c, 2, 50, 127
2, 58684, Note_on_c, 5, 53, 127
2, 58684, Note_on_c, 2, 62, 127
2, 58887, Note_off_c, 2, 62, 127
2, 58887, Note_off_c, 5, 53, 127
2, 58889, Note_on_c, 8, 56, 127
2, 58889, Note_on_c, 5, 65, 127
2, 59092, Note_off_c, 5, 65, 127
2, 59092, Note_off_c, 8, 56, 127
2, 59094, Note_on_c, 11, 46, 127
2, 59094, Note_on_c, 8, 68, 127
2, 59297, Note_off_c, 8, 68, 127
2, 59297, Note_off_c, 11, 46, 127
2, 59299, Note_on_c, 2, 50, 127
2, 59299, Note_on_c, 5, 65, 127
2, 59502, Note_off_c, 5, 65, 127
2, 59502, Note_off_c, 2, 50, 127
2, 59504, Note_on_c, 0, 48, 127
2, 59504, Note_on_c, 3, 63, 127
2, 59707, Note_off_c, 3, 63, 127
2, 59707, Note_off_c, 0, 48, 127
2, 59708, Note_on_c, 2, 50, 127
2, 59708, Note_on_c, 5, 65, 127
2, 59911, Note_off_c, 5, 65, 127
2, 59911, Note_off_c, 2, 50, 127
2, 59913, Note_on_c, 5, 53, 127
2, 59913, Note_on_c, 2, 62, 127
2, 60116, Note_off_c, 2, 62, 127
2, 60116, Note_off_c, 5, 53, 127
2, 60118, Note_on_c, 3, 51, 127
2, 60118, Note_on_c, 0, 60, 127
2, 60321, Note_off_c, 0, 60, 127
2, 60321, Note_off_c, 3, 51, 127
2, 60323, Note_on_c, 5, 53, 127
2, 60323, Note_on_c, 2, 62, 127
2, 60526, Note_off_c, 2, 62, 127
2, 60526, Note_off_c, 5, 53, 127
2, 60528, Note_on_c, 2, 50, 127
2, 60528, Note_on_c, 5, 65, 127
2, 60731, Note_off_c, 5, 65, 127
2, 60731, Note_off_c, 2, 50, 127
2, 60732, Note_on_c, 11, 46, 127
2, 60732, Note_on_c, 8, 68, 127
2, 60935, Note_off_c, 8, 68, 127
2, 60937, Note_on_c, 0, 72, 127
2, 61140, Note_off_c, 0, 72, 127
2, 61142, Note_on_c, 3, 63, 127
2, 61148, Note_off_c, 11, 46, 127
2, 61341, Note_on_c, 2, 62, 127
2, 61345, Note_off_c, 3, 63, 127
2, 61401, Note_on_c, 5, 53, 127
2, 61541, Note_off_c, 5, 53, 127
2, 61544, Note_off_c, 2, 62, 127
2, 61552, Note_on_c, 7, 43, 127
2, 61552, Note_on_c, 11, 70, 127
2, 61755, Note_off_c, 11, 70, 127
2, 61756, Note_on_c, 1, 61, 127
2, 61936, Note_off_c, 7, 43, 127
2, 61955, Note_on_c, 0, 60, 127
2, 61959, Note_off_c, 1, 61, 127
2, 62016, Note_on_c, 3, 51, 127
2, 62156, Note_off_c, 3, 51, 127
2, 62158, Note_off_c, 0, 60, 127
2, 62166, Note_on_c, 5, 41, 127
2, 62166, Note_on_c, 8, 68, 127
2, 62369, Note_off_c, 8, 68, 127
2, 62371, Note_on_c, 12, 59, 127
2, 62550, Note_off_c, 5, 41, 127
2, 62570, Note_on_c, 11, 58, 127
2, 62574, Note_off_c, 12, 59, 127
2, 62622, Note_on_c, 2, 50, 127
2, 62772, Note_off_c, 2, 50, 127
2, 62780, Note_on_c, 3, 39, 127
2, 62978, Note_off_c, 11, 58, 127
2, 62985, Note_on_c, 7, 67, 127
2, 63188, Note_off_c, 7, 67, 127
2, 63190, Note_on_c, 5, 65, 127
2, 63393, Note_off_c, 5, 65, 127
2, 63395, Note_on_c, 7, 67, 127
2, 63597, Note_off_c, 3, 39, 127
2, 63598, Note_off_c, 7, 67, 127
2, 63600, Note_on_c, 7, 55, 127
2, 63600, Note_on_c, 3, 63, 127
2, 63803, Note_off_c, 3, 63, 127
2, 63803, Note_off_c, 7, 55, 127
2, 63804, Note_on_c, 5, 53, 127
2, 63804, Note_on_c, 2, 62, 127
2, 64007, Note_off_c, 2, 62, 127
2, 64007, Note_off_c, 5, 53, 127
2, 64009, Note_on_c, 7, 55, 127
2, 64009, Note_on_c, 3, 63, 127
2, 64212, Note_off_c, 3, 63, 127
2, 64212, Note_off_c, 7, 55, 127
2, 64214, Note_on_c, 11, 58, 127
2, 64214, Note_on_c, 7, 67, 127
2, 64417, Note_off_c, 7, 67, 127
2, 64417, Note_off_c, 11, 58, 127
2, 64419, Note_on_c, 1, 61, 127
2, 64419, Note_on_c, 11, 70, 127
2, 64622, Note_off_c, 11, 70, 127
2, 64622, Note_off_c, 1, 61, 127
2, 64624, Note_on_c, 3, 51, 127
2, 64624, Note_on_c, 1, 73, 127
2, 64827, Note_off_c, 1, 73, 127
2, 64827, Note_off_c, 3, 51, 127
2, 64828, Note_on_c, 7, 55, 127
2, 64828, Note_on_c, 11, 70, 127
2, 65031, Note_off_c, 11, 70, 127
2, 65031, Note_off_c, 7, 55, 127
2, 65033, Note_on_c, 5, 53, 127
2, 65033, Note_on_c, 8, 68, 127
2, 65236, Note_off_c, 8, 68, 127
2, 65236, Note_off_c, 5, 53, 127
2, 65238, Note_on_c, 7, 55, 127
2, 65238, Note_on_c, 11, 70, 127
2, 65441, Note_off_c, 11, 70, 127
2, 65441, Note_off_c, 7, 55, 127
2, 65443, Note_on_c, 11, 58, 127
2, 65443, Note_on_c, 7, 67, 127
2, 65646, Note_off_c, 7, 67, 127
2, 65646, Note_off_c, 11, 58, 127
2, 65648, Note_on_c, 8, 56, 127
2, 65648, Note_on_c, 5, 65, 127
2, 65851, Note_off_c, 5, 65, 127
2, 65851, Note_off_c, 8, 56, 127
2, 65852, Note_on_c, 11, 58, 127
2, 65852, Note_on_c, 7, 67, 127
2, 66055, Note_off_c, 7, 67, 127
2, 66055, Note_off_c, 11, 58, 127
2, 66057, Note_on_c, 7, 55, 127
2, 66057, Note_on_c, 11, 70, 127
2, 66260, Note_off_c, 11, 70, 127
2, 66260, Note_off_c, 7, 55, 127
2, 66262, Note_on_c, 3, 51, 127
2, 66262, Note_on_c, 1, 73, 127
2, 66465, Note_off_c, 1, 73, 127
2, 66467, Note_on_c, 5, 77, 127
2, 66670, Note_off_c, 5, 77, 127
2, 66672, Note_on_c, 8, 68, 127
2, 66710, Note_off_c, 3, 51, 127
2, 66870, Note_on_c, 7, 67, 127
2, 66875, Note_off_c, 8, 68, 127
2, 66931, Note_on_c, 11, 58, 127
2, 67071, Note_off_c, 11, 58, 127
2, 67073, Note_off_c, 7, 67, 127
2, 67081, Note_on_c, 0, 48, 127
2, 67081, Note_on_c, 3, 75, 127
2, 67284, Note_off_c, 3, 75, 127
2, 67286, Note_on_c, 6, 66, 127
2, 67465, Note_off_c, 0, 48, 127
2, 67485, Note_on_c, 5, 65, 127
2, 67489, Note_off_c, 6, 66, 127
2, 67545, Note_on_c, 8, 56, 127
2, 67685, Note_off_c, 8, 56, 127
2, 67688, Note_off_c, 5, 65, 127
2, 67696, Note_on_c, 11, 46, 127
2, 67696, Note_on_c, 1, 73, 127
2, 67899, Note_off_c, 1, 73, 127
2, 67900, Note_on_c, 4, 64, 127
2, 68080, Note_off_c, 11, 46, 127
2, 68099, Note_on_c, 3, 63, 127
2, 68103, Note_off_c, 4, 64, 127
2, 68148, Note_on_c, 7, 55, 127
2, 68301, Note_off_c, 7, 55, 127
2, 68310, Note_on_c, 8, 44, 127
2, 68403, Note_off_c, 3, 63, 127
2, 68515, Note_on_c, 0, 72, 127
2, 68718, Note_off_c, 0, 72, 127
2, 68720, Note_on_c, 11, 70, 127
2, 68923, Note_off_c, 11, 70, 127
2, 68924, Note_on_c, 0, 72, 127
2, 69127, Note_off_c, 0, 72, 127
2, 69127, Note_off_c, 8, 44, 127
2, 69129, Note_on_c, 0, 60, 127
2, 69129, Note_on_c, 8, 68, 127
2, 69332, Note_off_c, 8, 68, 127
2, 69332, Note_off_c, 0, 60, 127
2, 69334, Note_on_c, 11, 58, 127
2, 69334, Note_on_c, 7, 67, 127
2, 69537, Note_off_c, 7, 67, 127
2, 69537, Note_off_c, 11, 58, 127
2, 69539, Note_on_c, 0, 60, 127
2, 69539, Note_on_c, 8, 68, 127
2, 69742, Note_off_c, 8, 68, 127
2, 69744, Note_on_c, 0, 72, 127
2, 69947, Note_off_c, 0, 72, 127
2, 69948, Note_on_c, 3, 75, 127
2, 70151, Note_off_c, 3, 75, 127
2, 70153, Note_on_c, 7, 79, 127
2, 70307, Note_off_c, 0, 60, 127
2, 70356, Note_off_c, 7, 79, 127
2, 70358, Note_on_c, 11, 70, 127
2, 70557, Note_on_c, 10, 69, 127
2, 70561, Note_off_c, 11, 70, 127
2, 70624, Note_on_c, 0, 48, 127
2, 70760, Note_off_c, 10, 69, 127
2, 70766, Note_off_c, 0, 48, 127
2, 70768, Note_on_c, 2, 62, 127
2, 70768, Note_on_c, 5, 77, 127
2, 70971, Note_off_c, 5, 77, 127
2, 70972, Note_on_c, 8, 68, 127
2, 71152, Note_off_c, 2, 62, 127
2, 71171, Note_on_c, 7, 67, 127
2, 71175, Note_off_c, 8, 68, 127
2, 71238, Note_on_c, 11, 46, 127
2, 71374, Note_off_c, 7, 67, 127
2, 71380, Note_off_c, 11, 46, 127
2, 71382, Note_on_c, 0, 60, 127
2, 71382, Note_on_c, 3, 75, 127
2, 71585, Note_off_c, 3, 75, 127
2, 71587, Note_on_c, 6, 66, 127
2, 71766, Note_off_c, 0, 60, 127
2, 71786, Note_on_c, 5, 65, 127
2, 71790, Note_off_c, 6, 66, 127
2, 71830, Note_on_c, 10, 45, 127
2, 71993, Note_off_c, 10, 45, 127
2, 71996, Note_on_c, 11, 46, 127
2, 72154, Note_off_c, 5, 65, 127
2, 72201, Note_on_c, 2, 74, 127
2, 72404, Note_off_c, 2, 74, 127
2, 72406, Note_on_c, 0, 72, 127
2, 72609, Note_off_c, 0, 72, 127
2, 72611, Note_on_c, 2, 74, 127
2, 72813, Note_off_c, 11, 46, 127
2, 72814, Note_off_c, 2, 74, 127
2, 72816, Note_on_c, 2, 62, 127
2, 72816, Note_on_c, 11, 70, 127
2, 73019, Note_off_c, 11, 70, 127
2, 73019, Note_off_c, 2, 62, 127
2, 73020, Note_on_c, 0, 60, 127
2, 73020, Note_on_c, 10, 69, 127
2, 73223, Note_off_c, 10, 69, 127
2, 73223, Note_off_c, 0, 60, 127
2, 73225, Note_on_c, 2, 62, 127
2, 73225, Note_on_c, 11, 70, 127
2, 73428, Note_off_c, 11, 70, 127
2, 73430, Note_on_c, 2, 74, 127
2, 73633, Note_off_c, 2, 74, 127
2, 73635, Note_on_c, 5, 77, 127
2, 73838, Note_off_c, 5, 77, 127
2, 73840, Note_on_c, 8, 80, 127
2, 73961, Note_off_c, 2, 62, 127
2, 74043, Note_off_c, 8, 80, 127
2, 74044, Note_on_c, 0, 72, 127
2, 74243, Note_on_c, 12, 71, 127
2, 74247, Note_off_c, 0, 72, 127
2, 74304, Note_on_c, 2, 50, 127
2, 74446, Note_off_c, 12, 71, 127
2, 74452, Note_off_c, 2, 50, 127
2, 74454, Note_on_c, 3, 63, 127
2, 74454, Note_on_c, 7, 79, 127
2, 74657, Note_off_c, 7, 79, 127
2, 74659, Note_on_c, 11, 70, 127
2, 74838, Note_off_c, 3, 63, 127
2, 74858, Note_on_c, 10, 69, 127
2, 74862, Note_off_c, 11, 70, 127
2, 74918, Note_on_c, 0, 48, 127
2, 75061, Note_off_c, 10, 69, 127
2, 75066, Note_off_c, 0, 48, 127
2, 75068, Note_on_c, 2, 62, 127
2, 75068, Note_on_c, 5, 77, 127
2, 75271, Note_off_c, 5, 77, 127
2, 75273, Note_on_c, 8, 68, 127
2, 75452, Note_off_c, 2, 62, 127
2, 75478, Note_on_c, 12, 47, 127
2, 75479, Note_on_c, 7, 67, 127
2, 75487, Note_off_c, 8, 68, 127
2, 75671, Note_off_c, 12, 47, 127
2, 75683, Note_on_c, 0, 48, 127
2, 75887, Note_off_c, 7, 67, 127
2, 75888, Note_on_c, 3, 75, 127
2, 76091, Note_off_c, 3, 75, 127
2, 76092, Note_on_c, 2, 74, 127
2, 76295, Note_off_c, 2, 74, 127
2, 76297, Note_on_c, 3, 75, 127
2, 76500, Note_off_c, 3, 75, 127
2, 76500, Note_off_c, 0, 48, 127
2, 76502, Note_on_c, 3, 63, 127
2, 76502, Note_on_c, 0, 72, 127
2, 76705, Note_off_c, 0, 72, 127
2, 76705, Note_off_c, 3, 63, 127
2, 76707, Note_on_c, 2, 62, 127
2, 76707, Note_on_c, 12, 71, 127
2, 76910, Note_off_c, 12, 71, 127
2, 76910, Note_off_c, 2, 62, 127
2, 76912, Note_on_c, 3, 63, 127
2, 76912, Note_on_c, 0, 72, 127
2, 77115, Note_off_c, 0, 72, 127
2, 77116, Note_on_c, 3, 75, 127
2, 77319, Note_off_c, 3, 75, 127
2, 77321, Note_on_c, 7, 79, 127
2, 77520, Note_off_c, 3, 63, 127
2, 77524, Note_off_c, 7, 79, 127
2, 77526, Note_on_c, 0, 84, 127
2, 77731, Note_on_c, 8, 68, 127
2, 77934, Note_off_c, 8, 68, 127
2, 77934, Note_off_c, 0, 84, 127
2, 77936, Note_on_c, 7, 67, 127
2, 77936, Note_on_c, 12, 83, 127
2, 78139, Note_off_c, 12, 83, 127
2, 78139, Note_off_c, 7, 67, 127
2, 78140, Note_on_c, 8, 68, 127
2, 78140, Note_on_c, 0, 84, 127
2, 78343, Note_off_c, 8, 68, 127
2, 78345, Note_on_c, 3, 63, 127
2, 78345, Note_on_c, 7, 79, 127
2, 78397, Note_off_c, 0, 84, 127
2, 78548, Note_off_c, 7, 79, 127
2, 78548, Note_off_c, 3, 63, 127
2, 78550, Note_on_c, 0, 60, 127
2, 78550, Note_on_c, 8, 80, 127
2, 78753, Note_off_c, 0, 60, 127
2, 78755, Note_on_c, 7, 67, 127
2, 78869, Note_off_c, 8, 80, 127
2, 78958, Note_off_c, 7, 67, 127
2, 78960, Note_on_c, 2, 62, 127
2, 78960, Note_on_c, 6, 78, 127
2, 79163, Note_off_c, 6, 78, 127
2, 79163, Note_off_c, 2, 62, 127
2, 79164, Note_on_c, 11, 58, 127
2, 79164, Note_on_c, 7, 79, 127
2, 79367, Note_off_c, 7, 79, 127
2, 79367, Note_off_c, 11, 58, 127
2, 79369, Note_on_c, 6, 66, 127
2, 79369, Note_on_c, 0, 84, 127
2, 79572, Note_off_c, 6, 66, 127
2, 79574, Note_on_c, 0, 60, 127
2, 79777, Note_off_c, 0, 60, 127
2, 79777, Note_off_c, 0, 84, 127
2, 79779, Note_on_c, 10, 57, 127
2, 79779, Note_on_c, 6, 78, 127
2, 79982, Note_off_c, 6, 78, 127
2, 79982, Note_off_c, 10, 57, 127
2, 79984, Note_on_c, 3, 63, 127
2, 79984, Note_on_c, 7, 79, 127
2, 80187, Note_off_c, 3, 63, 127
2, 80188, Note_on_c, 11, 58, 127
2, 80188, Note_on_c, 2, 74, 127
2, 80211, Note_off_c, 7, 79, 127
2, 80391, Note_off_c, 2, 74, 127
2, 80391, Note_off_c, 11, 58, 127
2, 80393, Note_on_c, 7, 55, 127
2, 80393, Note_on_c, 3, 75, 127
2, 80596, Note_off_c, 7, 55, 127
2, 80598, Note_on_c, 2, 62, 127
2, 80697, Note_off_c, 3, 75, 127
2, 80801, Note_off_c, 2, 62, 127
2, 80803, Note_on_c, 10, 57, 127
2, 80803, Note_on_c, 1, 73, 127
2, 81006, Note_off_c, 1, 73, 127
2, 81006, Note_off_c, 10, 57, 127
2, 81008, Note_on_c, 6, 54, 127
2, 81008, Note_on_c, 2, 74, 127
2, 81211, Note_off_c, 2, 74, 127
2, 81211, Note_off_c, 6, 54, 127
2, 81212, Note_on_c, 7, 55, 127
2, 81212, Note_on_c, 11, 82, 127
2, 81415, Note_off_c, 11, 82, 127
2, 81417, Note_on_c, 7, 79, 127
2, 81620, Note_off_c, 7, 79, 127
2, 81622, Note_on_c, 2, 74, 127
2, 81824, Note_off_c, 7, 55, 127
2, 81825, Note_off_c, 2, 74, 127
2, 81827, Note_on_c, 0, 48, 127
2, 81827, Note_on_c, 3, 75, 127
2, 82030, Note_off_c, 3, 75, 127
2, 82032, Note_on_c, 7, 79, 127
2, 82235, Note_off_c, 7, 79, 127
2, 82236, Note_on_c, 0, 84, 127
2, 82439, Note_off_c, 0, 84, 127
2, 82439, Note_off_c, 0, 48, 127
2, 82441, Note_on_c, 1, 49, 127
2, 82441, Note_on_c, 11, 82, 127
2, 82644, Note_off_c, 11, 82, 127
2, 82646, Note_on_c, 10, 81, 127
2, 82849, Note_off_c, 10, 81, 127
2, 82851, Note_on_c, 7, 79, 127
2, 83053, Note_off_c, 1, 49, 127
2, 83054, Note_off_c, 7, 79, 127
2, 83056, Note_on_c, 2, 50, 127
2, 83056, Note_on_c, 6, 78, 127
2, 83171, Note_on_c, 7, 79, 127
2, 83172, Note_off_c, 6, 78, 127
2, 83286, Note_on_c, 10, 81, 127
2, 83287, Note_off_c, 7, 79, 127
2, 83465, Note_on_c, 2, 74, 127
2, 83466, Note_off_c, 10, 81, 127
2, 83668, Note_off_c, 2, 74, 127
2, 83670, Note_on_c, 3, 75, 127
2, 83873, Note_off_c, 3, 75, 127
2, 83875, Note_on_c, 2, 74, 127
2, 84078, Note_off_c, 2, 74, 127
2, 84078, Note_off_c, 2, 50, 127
2, 84080, Note_on_c, 2, 38, 127
2, 84080, Note_on_c, 0, 72, 127
2, 84283, Note_off_c, 0, 72, 127
2, 84283, Note_off_c, 2, 38, 127
2, 84284, Note_on_c, 4, 40, 127
2, 84284, Note_on_c, 11, 70, 127
2, 84487, Note_off_c, 11, 70, 127
2, 84489, Note_on_c, 0, 72, 127
2, 84692, Note_off_c, 0, 72, 127
2, 84692, Note_off_c, 4, 40, 127
2, 84694, Note_on_c, 6, 42, 127
2, 84694, Note_on_c, 10, 69, 127
2, 84897, Note_off_c, 10, 69, 127
2, 84897, Note_off_c, 6, 42, 127
2, 84899, Note_on_c, 7, 43, 127
2, 84899, Note_on_c, 11, 70, 127
2, 85102, Note_off_c, 11, 70, 127
2, 85104, Note_on_c, 2, 74, 127
2, 85307, Note_off_c, 2, 74, 127
2, 85308, Note_on_c, 7, 79, 127
2, 85511, Note_off_c, 7, 79, 127
2, 85511, Note_off_c, 7, 43, 127
2, 85513, Note_on_c, 7, 55, 127
2, 85513, Note_on_c, 11, 82, 127
2, 85716, Note_off_c, 11, 82, 127
2, 85718, Note_on_c, 10, 81, 127
2, 85921, Note_off_c, 10, 81, 127
2, 85923, Note_on_c, 7, 79, 127
2, 86125, Note_off_c, 7, 55, 127
2, 86128, Note_on_c, 5, 53, 127
2, 86227, Note_off_c, 7, 79, 127
2, 86332, Note_on_c, 11, 70, 127
2, 86535, Note_off_c, 11, 70, 127
2, 86537, Note_on_c, 7, 79, 127
2, 86740, Note_off_c, 7, 79, 127
2, 86740, Note_off_c, 5, 53, 127
2, 86742, Note_on_c, 3, 51, 127
2, 86742, Note_on_c, 0, 72, 127
2, 86945, Note_off_c, 0, 72, 127
2, 86947, Note_on_c, 3, 75, 127
2, 87150, Note_off_c, 3, 75, 127
2, 87152, Note_on_c, 7, 79, 127
2, 87354, Note_off_c, 3, 51, 127
2, 87355, Note_off_c, 7, 79, 127
2, 87356, Note_on_c, 3, 39, 127
2, 87356, Note_on_c, 11, 82, 127
2, 87559, Note_off_c, 11, 82, 127
2, 87561, Note_on_c, 10, 81, 127
2, 87764, Note_off_c, 10, 81, 127
2, 87766, Note_on_c, 7, 79, 127
2, 87968, Note_off_c, 3, 39, 127
2, 87971, Note_on_c, 11, 46, 127
2, 88070, Note_off_c, 7, 79, 127
2, 88176, Note_on_c, 2, 74, 127
2, 88379, Note_off_c, 2, 74, 127
2, 88380, Note_on_c, 7, 79, 127
2, 88583, Note_off_c, 7, 79, 127
2, 88583, Note_off_c, 11, 46, 127
2, 88585, Note_on_c, 0, 48, 127
2, 88585, Note_on_c, 3, 75, 127
2, 88788, Note_off_c, 3, 75, 127
2, 88790, Note_on_c, 6, 78, 127
2, 88993, Note_off_c, 6, 78, 127
2, 88995, Note_on_c, 7, 79, 127
2, 89197, Note_off_c, 0, 48, 127
2, 89198, Note_off_c, 7, 79, 127
2, 89200, Note_on_c, 1, 49, 127
2, 89200, Note_on_c, 11, 70, 127
2, 89403, Note_off_c, 11, 70, 127
2, 89404, Note_on_c, 10, 69, 127
2, 89607, Note_off_c, 10, 69, 127
2, 89609, Note_on_c, 7, 67, 127
2, 89812, Note_off_c, 1, 49, 127
2, 89814, Note_on_c, 2, 50, 127
2, 89913, Note_off_c, 7, 67, 127
2, 90019, Note_on_c, 0, 72, 127
2, 90222, Note_off_c, 0, 72, 127
2, 90224, Note_on_c, 6, 66, 127
2, 90426, Note_off_c, 2, 50, 127
2, 90427, Note_off_c, 6, 66, 127
2, 90428, Note_on_c, 7, 43, 127
2, 90428, Note_on_c, 7, 67, 127
2, 90635, Note_on_c, 11, 70, 127
2, 90842, Note_on_c, 2, 74, 127
2, 91049, Note_on_c, 7, 79, 127
2, 91245, Note_off_c, 7, 67, 127
2, 91255, Note_off_c, 7, 43, 127
2, 91258, Note_on_c, 11, 46, 127
2, 91452, Note_off_c, 11, 70, 127
2, 91461, Note_off_c, 11, 46, 127
2, 91465, Note_on_c, 2, 50, 127
2, 91659, Note_off_c, 2, 74, 127
2, 91661, Note_off_c, 7, 79, 127
2, 91668, Note_off_c, 2, 50, 127
2, 91673, Note_on_c, 11, 70, 127
2, 91673, Note_on_c, 5, 53, 127
2, 91773, Note_off_c, 11, 70, 127
2, 91776, Note_on_c, 10, 69, 127
2, 91876, Note_off_c, 10, 69, 127
2, 91876, Note_off_c, 5, 53, 127
2, 91878, Note_on_c, 11, 70, 127
2, 91878, Note_on_c, 4, 52, 127
2, 92081, Note_off_c, 4, 52, 127
2, 92083, Note_on_c, 2, 50, 127
2, 92286, Note_off_c, 2, 50, 127
2, 92288, Note_on_c, 4, 52, 127
2, 92490, Note_off_c, 11, 70, 127
2, 92492, Note_on_c, 1, 73, 127
2, 92695, Note_off_c, 1, 73, 127
2, 92697, Note_on_c, 0, 72, 127
2, 92900, Note_off_c, 0, 72, 127
2, 92902, Note_on_c, 1, 73, 127
2, 93107, Note_on_c, 11, 70, 127
2, 93312, Note_on_c, 7, 67, 127
2, 93515, Note_off_c, 4, 52, 127
2, 93516, Note_on_c, 4, 64, 127
2, 93719, Note_off_c, 1, 73, 127
2, 93720, Note_off_c, 7, 67, 127
2, 93721, Note_on_c, 7, 55, 127
2, 93924, Note_off_c, 7, 55, 127
2, 93924, Note_off_c, 4, 64, 127
2, 93924, Note_off_c, 11, 70, 127
2, 93926, Note_on_c, 11, 70, 127
2, 93926, Note_on_c, 0, 48, 127
2, 94129, Note_off_c, 0, 48, 127
2, 94131, Note_on_c, 5, 53, 127
2, 94334, Note_off_c, 11, 70, 127
2, 94336, Note_on_c, 8, 68, 127
2, 94539, Note_off_c, 8, 68, 127
2, 94540, Note_on_c, 7, 67, 127
2, 94743, Note_off_c, 7, 67, 127
2, 94745, Note_on_c, 8, 68, 127
2, 94950, Note_on_c, 0, 72, 127
2, 95155, Note_on_c, 5, 77, 127
2, 95358, Note_off_c, 5, 53, 127
2, 95360, Note_on_c, 8, 80, 127
2, 95564, Note_on_c, 0, 48, 127
2, 95767, Note_off_c, 0, 48, 127
2, 95769, Note_on_c, 3, 51, 127
2, 95969, Note_off_c, 0, 72, 127
2, 95972, Note_off_c, 3, 51, 127
2, 95972, Note_off_c, 5, 77, 127
2, 95972, Note_off_c, 8, 68, 127
2, 95974, Note_on_c, 2, 50, 127
2, 96177, Note_off_c, 8, 80, 127
2, 96179, Note_on_c, 8, 80, 127
2, 96382, Note_off_c, 8, 80, 127
2, 96384, Note_on_c, 7, 79, 127
2, 96587, Note_off_c, 7, 79, 127
2, 96588, Note_on_c, 8, 80, 127
2, 96793, Note_on_c, 5, 77, 127
2, 96998, Note_on_c, 2, 74, 127
2, 97201, Note_off_c, 2, 50, 127
2, 97203, Note_on_c, 11, 70, 127
2, 97405, Note_off_c, 8, 80, 127
2, 97408, Note_on_c, 2, 62, 127
2, 97450, Note_off_c, 5, 77, 127
2, 97495, Note_off_c, 2, 74, 127
2, 97611, Note_off_c, 2, 62, 127
2, 97611, Note_off_c, 11, 70, 127
2, 97612, Note_on_c, 8, 80, 127
2, 97612, Note_on_c, 11, 58, 127
2, 97815, Note_off_c, 11, 58, 127
2, 97817, Note_on_c, 3, 63, 127
2, 98020, Note_off_c, 8, 80, 127
2, 98022, Note_on_c, 7, 79, 127
2, 98225, Note_off_c, 7, 79, 127
2, 98227, Note_on_c, 5, 77, 127
2, 98430, Note_off_c, 5, 77, 127
2, 98432, Note_on_c, 7, 79, 127
2, 98636, Note_on_c, 3, 75, 127
2, 98841, Note_on_c, 11, 70, 127
2, 99040, Note_off_c, 7, 79, 127
2, 99044, Note_off_c, 11, 70, 127
2, 99044, Note_off_c, 3, 75, 127
2, 99046, Note_on_c, 7, 67, 127
2, 99191, Note_off_c, 3, 63, 127
2, 99249, Note_off_c, 7, 67, 127
2, 99251, Note_on_c, 11, 70, 127
2, 99251, Note_on_c, 7, 55, 127
2, 99454, Note_off_c, 7, 55, 127
2, 99454, Note_off_c, 11, 70, 127
2, 99456, Note_on_c, 1, 73, 127
2, 99456, Note_on_c, 3, 51, 127
2, 99659, Note_off_c, 3, 51, 127
2, 99660, Note_on_c, 8, 56, 127
2, 99863, Note_off_c, 8, 56, 127
2, 99864, Note_off_c, 1, 73, 127
2, 99865, Note_on_c, 0, 72, 127
2, 99865, Note_on_c, 3, 51, 127
2, 100068, Note_off_c, 3, 51, 127
2, 100068, Note_off_c, 0, 72, 127
2, 100070, Note_on_c, 11, 70, 127
2, 100070, Note_on_c, 1, 49, 127
2, 100273, Note_off_c, 1, 49, 127
2, 100273, Note_off_c, 11, 70, 127
2, 100275, Note_on_c, 8, 68, 127
2, 100275, Note_on_c, 0, 48, 127
2, 100478, Note_off_c, 0, 48, 127
2, 100478, Note_off_c, 8, 68, 127
2, 100480, Note_on_c, 7, 67, 127
2, 100480, Note_on_c, 11, 46, 127
2, 100683, Note_off_c, 11, 46, 127
2, 100683, Note_off_c, 7, 67, 127
2, 100684, Note_on_c, 5, 65, 127
2, 100684, Note_on_c, 8, 44, 127
2, 100887, Note_off_c, 8, 44, 127
2, 100889, Note_on_c, 7, 43, 127
2, 101092, Note_off_c, 7, 43, 127
2, 101092, Note_off_c, 5, 65, 127
2, 101094, Note_on_c, 3, 63, 127
2, 101094, Note_on_c, 0, 48, 127
2, 101297, Note_off_c, 0, 48, 127
2, 101297, Note_off_c, 3, 63, 127
2, 101299, Note_on_c, 6, 66, 127
2, 101299, Note_on_c, 11, 46, 127
2, 101502, Note_off_c, 11, 46, 127
2, 101504, Note_on_c, 10, 45, 127
2, 101707, Note_off_c, 6, 66, 127
2, 101708, Note_on_c, 5, 65, 127
2, 101739, Note_off_c, 10, 45, 127
2, 101740, Note_on_c, 11, 46, 127
2, 101830, Note_off_c, 11, 46, 127
2, 101835, Note_on_c, 10, 45, 127
2, 101911, Note_off_c, 5, 65, 127
2, 101913, Note_on_c, 3, 63, 127
2, 101925, Note_off_c, 10, 45, 127
2, 101929, Note_on_c, 7, 43, 127
2, 102019, Note_off_c, 7, 43, 127
2, 102024, Note_on_c, 10, 45, 127
2, 102114, Note_off_c, 10, 45, 127
2, 102116, Note_off_c, 3, 63, 127
2, 102118, Note_on_c, 2, 62, 127
2, 102118, Note_on_c, 11, 46, 127
2, 102323, Note_on_c, 0, 60, 127
2, 102358, Note_off_c, 2, 62, 127
2, 102526, Note_off_c, 0, 60, 127
2, 102528, Note_on_c, 11, 58, 127
2, 102731, Note_off_c, 11, 58, 127
2, 102732, Note_on_c, 8, 56, 127
2, 102886, Note_off_c, 11, 46, 127
2, 102937, Note_on_c, 7, 55, 127
2, 102972, Note_off_c, 8, 56, 127
2, 103140, Note_off_c, 7, 55, 127
2, 103142, Note_on_c, 5, 53, 127
2, 103345, Note_off_c, 5, 53, 127
2, 103347, Note_on_c, 7, 55, 127
2, 103347, Note_on_c, 11, 46, 127
2, 103552, Note_on_c, 3, 63, 127
2, 103755, Note_off_c, 3, 63, 127
2, 103756, Note_on_c, 2, 62, 127
2, 103959, Note_off_c, 2, 62, 127
2, 103961, Note_on_c, 3, 63, 127
2, 104166, Note_on_c, 11, 58, 127
2, 104369, Note_off_c, 11, 58, 127
2, 104371, Note_on_c, 8, 56, 127
2, 104574, Note_off_c, 8, 56, 127
2, 104574, Note_off_c, 11, 46, 127
2, 104574, Note_off_c, 7, 55, 127
2, 104576, Note_on_c, 7, 55, 127
2, 104778, Note_off_c, 3, 63, 127
2, 104779, Note_off_c, 7, 55, 127
2, 104780, Note_on_c, 5, 53, 127
2, 104983, Note_off_c, 5, 53, 127
2, 104985, Note_on_c, 3, 51, 127
2, 105188, Note_off_c, 3, 51, 127
2, 105190, Note_on_c, 2, 50, 127
2, 105190, Note_on_c, 11, 46, 127
2, 105395, Note_on_c, 5, 65, 127
2, 105598, Note_off_c, 5, 65, 127
2, 105600, Note_on_c, 3, 63, 127
2, 105803, Note_off_c, 3, 63, 127
2, 105804, Note_on_c, 5, 65, 127
2, 106009, Note_on_c, 2, 62, 127
2, 106212, Note_off_c, 2, 62, 127
2, 106214, Note_on_c, 11, 58, 127
2, 106417, Note_off_c, 11, 58, 127
2, 106417, Note_off_c, 11, 46, 127
2, 106417, Note_off_c, 2, 50, 127
2, 106419, Note_on_c, 8, 56, 127
2, 106621, Note_off_c, 5, 65, 127
2, 106622, Note_off_c, 8, 56, 127
2, 106624, Note_on_c, 7, 55, 127
2, 106827, Note_off_c, 7, 55, 127
2, 106828, Note_on_c, 5, 53, 127
2, 107031, Note_off_c, 5, 53, 127
2, 107033, Note_on_c, 11, 46, 127
2, 107033, Note_on_c, 3, 51, 127
2, 107238, Note_on_c, 7, 67, 127
2, 107441, Note_off_c, 7, 67, 127
2, 107443, Note_on_c, 5, 65, 127
2, 107646, Note_off_c, 5, 65, 127
2, 107648, Note_on_c, 7, 67, 127
2, 107852, Note_on_c, 3, 63, 127
2, 108055, Note_off_c, 3, 63, 127
2, 108057, Note_on_c, 0, 60, 127
2, 108260, Note_off_c, 0, 60, 127
2, 108260, Note_off_c, 3, 51, 127
2, 108260, Note_off_c, 11, 46, 127
2, 108262, Note_on_c, 11, 58, 127
2, 108465, Note_off_c, 11, 58, 127
2, 108465, Note_off_c, 7, 67, 127
2, 108467, Note_on_c, 8, 56, 127
2, 108670, Note_off_c, 8, 56, 127
2, 108672, Note_on_c, 7, 55, 127
2, 108875, Note_off_c, 7, 55, 127
2, 108876, Note_on_c, 2, 50, 127
2, 108876, Note_on_c, 11, 46, 127
2, 108876, Note_on_c, 5, 53, 127
2, 109086, Note_on_c, 8, 68, 127
2, 109294, Note_off_c, 8, 68, 127
2, 109296, Note_on_c, 7, 67, 127
2, 109504, Note_off_c, 7, 67, 127
2, 109505, Note_on_c, 8, 68, 127
2, 109715, Note_on_c, 5, 65, 127
2, 109923, Note_off_c, 5, 65, 127
2, 109924, Note_on_c, 2, 62, 127
2, 110132, Note_off_c, 2, 62, 127
2, 110132, Note_off_c, 5, 53, 127
2, 110132, Note_off_c, 11, 46, 127
2, 110132, Note_off_c, 2, 50, 127
2, 110134, Note_on_c, 0, 60, 127
2, 110341, Note_off_c, 8, 68, 127
2, 110342, Note_off_c, 0, 60, 127
2, 110344, Note_on_c, 11, 58, 127
2, 110552, Note_off_c, 11, 58, 127
2, 110553, Note_on_c, 8, 56, 127
2, 110761, Note_off_c, 8, 56, 127
2, 110763, Note_on_c, 3, 63, 127
2, 110763, Note_on_c, 7, 55, 127
2, 110865, Note_on_c, 7, 67, 127
2, 110966, Note_off_c, 7, 55, 127
2, 110968, Note_on_c, 11, 70, 127
2, 110968, Note_on_c, 11, 58, 127
2, 111171, Note_off_c, 11, 58, 127
2, 111172, Note_on_c, 8, 56, 127
2, 111375, Note_off_c, 8, 56, 127
2, 111377, Note_on_c, 11, 58, 127
2, 111580, Note_off_c, 11, 58, 127
2, 111582, Note_on_c, 7, 55, 127
2, 111785, Note_off_c, 7, 55, 127
2, 111787, Note_on_c, 3, 51, 127
2, 111990, Note_off_c, 3, 51, 127
2, 111990, Note_off_c, 3, 63, 127
2, 111992, Note_on_c, 11, 46, 127
2, 112092, Note_off_c, 7, 67, 127
2, 112196, Note_on_c, 7, 67, 127
2, 112376, Note_off_c, 11, 70, 127
2, 112401, Note_on_c, 3, 75, 127
2, 112604, Note_off_c, 3, 75, 127
2, 112604, Note_off_c, 7, 67, 127
2, 112606, Note_on_c, 5, 65, 127
2, 112606, Note_on_c, 3, 75, 127
2, 112760, Note_off_c, 11, 46, 127
2, 112811, Note_on_c, 11, 58, 127
2, 113014, Note_off_c, 11, 58, 127
2, 113016, Note_on_c, 10, 57, 127
2, 113218, Note_off_c, 3, 75, 127
2, 113219, Note_off_c, 10, 57, 127
2, 113220, Note_on_c, 2, 74, 127
2, 113220, Note_on_c, 11, 58, 127
2, 113423, Note_off_c, 11, 58, 127
2, 113425, Note_on_c, 5, 53, 127
2, 113628, Note_off_c, 5, 53, 127
2, 113630, Note_on_c, 2, 50, 127
2, 113833, Note_off_c, 2, 50, 127
2, 113833, Note_off_c, 5, 65, 127
2, 113835, Note_on_c, 11, 46, 127
2, 114037, Note_off_c, 2, 74, 127
2, 114040, Note_on_c, 5, 65, 127
2, 114243, Note_off_c, 5, 65, 127
2, 114244, Note_on_c, 7, 67, 127
2, 114447, Note_off_c, 7, 67, 127
2, 114449, Note_on_c, 8, 68, 127
2, 114652, Note_off_c, 11, 46, 127
2, 114654, Note_on_c, 0, 60, 127
2, 114857, Note_off_c, 0, 60, 127
2, 114857, Note_off_c, 8, 68, 127
2, 114859, Note_on_c, 3, 63, 127
2, 114905, Note_on_c, 7, 55, 127
2, 115061, Note_off_c, 7, 55, 127
2, 115062, Note_off_c, 3, 63, 127
2, 115064, Note_on_c, 2, 62, 127
2, 115064, Note_on_c, 5, 53, 127
2, 115268, Note_on_c, 5, 65, 127
2, 115448, Note_off_c, 5, 53, 127
2, 115471, Note_off_c, 5, 65, 127
2, 115473, Note_on_c, 11, 70, 127
2, 115512, Note_off_c, 2, 62, 127
2, 115528, Note_on_c, 3, 51, 127
2, 115676, Note_off_c, 3, 51, 127
2, 115676, Note_off_c, 11, 70, 127
2, 115678, Note_on_c, 11, 58, 127
2, 115678, Note_on_c, 2, 50, 127
2, 115883, Note_on_c, 5, 65, 127
2, 116062, Note_off_c, 2, 50, 127
2, 116086, Note_off_c, 5, 65, 127
2, 116088, Note_on_c, 8, 68, 127
2, 116126, Note_off_c, 11, 58, 127
2, 116142, Note_on_c, 11, 46, 127
2, 116290, Note_off_c, 11, 46, 127
2, 116291, Note_off_c, 8, 68, 127
2, 116292, Note_on_c, 7, 67, 127
2, 116292, Note_on_c, 3, 39, 127
2, 116497, Note_on_c, 11, 58, 127
2, 116676, Note_off_c, 3, 39, 127
2, 116700, Note_off_c, 11, 58, 127
2, 116700, Note_off_c, 7, 67, 127
2, 116702, Note_on_c, 1, 61, 127
2, 116756, Note_on_c, 5, 53, 127
2, 116904, Note_off_c, 5, 53, 127
2, 116905, Note_off_c, 1, 61, 127
2, 116907, Note_on_c, 0, 60, 127
2, 116907, Note_on_c, 3, 51, 127
2, 117112, Note_on_c, 3, 63, 127
2, 117307, Note_off_c, 3, 51, 127
2, 117315, Note_off_c, 3, 63, 127
2, 117316, Note_on_c, 8, 68, 127
2, 117371, Note_on_c, 1, 49, 127
2, 117419, Note_off_c, 0, 60, 127
2, 117519, Note_off_c, 1, 49, 127
2, 117519, Note_off_c, 8, 68, 127
2, 117521, Note_on_c, 8, 56, 127
2, 117521, Note_on_c, 0, 48, 127
2, 117726, Note_on_c, 3, 63, 127
2, 117921, Note_off_c, 0, 48, 127
2, 117929, Note_off_c, 3, 63, 127
2, 117931, Note_on_c, 7, 67, 127
2, 117985, Note_on_c, 8, 44, 127
2, 118033, Note_off_c, 8, 56, 127
2, 118133, Note_off_c, 8, 44, 127
2, 118134, Note_off_c, 7, 67, 127
2, 118136, Note_on_c, 5, 65, 127
2, 118136, Note_on_c, 2, 38, 127
2, 118340, Note_on_c, 8, 56, 127
2, 118520, Note_off_c, 2, 38, 127
2, 118543, Note_off_c, 8, 56, 127
2, 118544, Note_off_c, 5, 65, 127
2, 118545, Note_on_c, 0, 60, 127
2, 118592, Note_on_c, 3, 51, 127
2, 118748, Note_off_c, 3, 51, 127
2, 118748, Note_off_c, 0, 60, 127
2, 118750, Note_on_c, 11, 58, 127
2, 118750, Note_on_c, 2, 50, 127
2, 118955, Note_on_c, 2, 62, 127
2, 119158, Note_off_c, 2, 62, 127
2, 119158, Note_off_c, 2, 50, 127
2, 119160, Note_on_c, 7, 67, 127
2, 119206, Note_on_c, 0, 48, 127
2, 119342, Note_off_c, 11, 58, 127
2, 119362, Note_off_c, 0, 48, 127
2, 119364, Note_on_c, 7, 55, 127
2, 119364, Note_on_c, 11, 46, 127
2, 119416, Note_off_c, 7, 67, 127
2, 119569, Note_on_c, 2, 62, 127
2, 119772, Note_off_c, 2, 62, 127
2, 119772, Note_off_c, 11, 46, 127
2, 119774, Note_on_c, 5, 65, 127
2, 119813, Note_on_c, 7, 43, 127
2, 119956, Note_off_c, 7, 55, 127
2, 119977, Note_off_c, 7, 43, 127
2, 119979, Note_on_c, 3, 63, 127
2, 119979, Note_on_c, 0, 36, 127
2, 120030, Note_off_c, 5, 65, 127
2, 120184, Note_on_c, 7, 55, 127
2, 120379, Note_off_c, 0, 36, 127
2, 120387, Note_off_c, 7, 55, 127
2, 120387, Note_off_c, 3, 63, 127
2, 120388, Note_on_c, 11, 58, 127
2, 120421, Note_on_c, 1, 49, 127
2, 120585, Note_off_c, 1, 49, 127
2, 120591, Note_off_c, 11, 58, 127
2, 120593, Note_on_c, 8, 56, 127
2, 120593, Note_on_c, 0, 48, 127
2, 120798, Note_on_c, 0, 60, 127
2, 121003, Note_on_c, 5, 65, 127
2, 121009, Note_off_c, 0, 48, 127
2, 121033, Note_on_c, 11, 46, 127
2, 121201, Note_off_c, 8, 56, 127
2, 121205, Note_off_c, 11, 46, 127
2, 121208, Note_on_c, 5, 53, 127
2, 121208, Note_on_c, 8, 44, 127
2, 121406, Note_off_c, 0, 60, 127
2, 121411, Note_off_c, 5, 65, 127
2, 121412, Note_on_c, 0, 60, 127
2, 121608, Note_off_c, 8, 44, 127
2, 121617, Note_on_c, 3, 63, 127
2, 121640, Note_on_c, 7, 43, 127
2, 121816, Note_off_c, 5, 53, 127
2, 121820, Note_off_c, 7, 43, 127
2, 121820, Note_off_c, 3, 63, 127
2, 121820, Note_off_c, 0, 60, 127
2, 121822, Note_on_c, 11, 58, 127
2, 121822, Note_on_c, 3, 63, 127
2, 121822, Note_on_c, 5, 53, 127
2, 121822, Note_on_c, 8, 44, 127
2, 122511, Note_off_c, 3, 63, 127
2, 122513, Note_on_c, 2, 62, 127
2, 123662, Note_off_c, 8, 44, 127
2, 123662, Note_off_c, 5, 53, 127
2, 123662, Note_off_c, 11, 58, 127
2, 123671, Note_off_c, 2, 62, 127
2, 123844, Note_on_c, 8, 80, 127
2, 123844, Note_on_c, 5, 77, 127
2, 123844, Note_on_c, 11, 70, 127
2, 123844, Note_on_c, 2, 50, 127
2, 124047, Note_off_c, 2, 50, 127
2, 124047, Note_off_c, 11, 70, 127
2, 124047, Note_off_c, 5, 77, 127
2, 124047, Note_off_c, 8, 80, 127
2, 124049, Note_on_c, 7, 79, 127
2, 124049, Note_on_c, 3, 75, 127
2, 124049, Note_on_c, 11, 70, 127
2, 124049, Note_on_c, 3, 51, 127
2, 124329, Note_off_c, 3, 51, 127
2, 124331, Note_on_c, 5, 53, 127
2, 124431, Note_off_c, 5, 53, 127
2, 124433, Note_on_c, 7, 55, 127
2, 124533, Note_off_c, 7, 55, 127
2, 124536, Note_on_c, 8, 56, 127
2, 124636, Note_off_c, 8, 56, 127
2, 124638, Note_on_c, 11, 58, 127
2, 124738, Note_off_c, 11, 58, 127
2, 124740, Note_on_c, 0, 60, 127
2, 124840, Note_off_c, 0, 60, 127
2, 124843, Note_on_c, 2, 62, 127
2, 124943, Note_off_c, 2, 62, 127
2, 124945, Note_on_c, 3, 63, 127
2, 125609, Note_off_c, 3, 63, 127
2, 125609, Note_off_c, 11, 70, 127
2, 125609, Note_off_c, 3, 75, 127
2, 125609, Note_off_c, 7, 79, 127
2, 125611, Note_on_c, 8, 68, 127
2, 125611, Note_on_c, 0, 72, 127
2, 125611, Note_on_c, 5, 77, 127
2, 125611, Note_on_c, 8, 56, 127
2, 125814, Note_off_c, 8, 56, 127
2, 125814, Note_off_c, 5, 77, 127
2, 125814, Note_off_c, 0, 72, 127
2, 125814, Note_off_c, 8, 68, 127
2, 125816, Note_on_c, 7, 67, 127
2, 125816, Note_on_c, 11, 70, 127
2, 125816, Note_on_c, 3, 75, 127
2, 125816, Note_on_c, 11, 58, 127
2, 126659, Note_off_c, 11, 58, 127
2, 126659, Note_off_c, 3, 75, 127
2, 126659, Note_off_c, 11, 70, 127
2, 126659, Note_off_c, 7, 67, 127
2, 126660, Note_on_c, 5, 65, 127
2, 126660, Note_on_c, 2, 74, 127
2, 126660, Note_on_c, 11, 46, 127
2, 127221, Note_off_c, 2, 74, 127
2, 127221, Note_off_c, 5, 65, 127
2, 127224, Note_on_c, 3, 75, 127
2, 127224, Note_on_c, 7, 67, 127
2, 127426, Note_off_c, 11, 46, 127
2, 127427, Note_off_c, 7, 67, 127
2, 127427, Note_off_c, 3, 75, 127
2, 127428, Note_on_c, 7, 67, 127
2, 127428, Note_on_c, 3, 75, 127
2, 127428, Note_on_c, 3, 51, 127
2, 127631, Note_off_c, 3, 75, 127
2, 127631, Note_off_c, 7, 67, 127
2, 127633, Note_on_c, 11, 70, 127
2, 127836, Note_off_c, 11, 70, 127
2, 127838, Note_on_c, 8, 68, 127
2, 128041, Note_off_c, 8, 68, 127
2, 128043, Note_on_c, 11, 70, 127
2, 128246, Note_off_c, 11, 70, 127
2, 128248, Note_on_c, 7, 67, 127
2, 128451, Note_off_c, 7, 67, 127
2, 128452, Note_on_c, 5, 65, 127
2, 128655, Note_off_c, 5, 65, 127
2, 128657, Note_on_c, 7, 67, 127
2, 128860, Note_off_c, 7, 67, 127
2, 128862, Note_on_c, 3, 63, 127
2, 129065, Note_off_c, 3, 63, 127
2, 129067, Note_on_c, 2, 62, 127
2, 129191, Note_off_c, 3, 51, 127
2, 129270, Note_off_c, 2, 62, 127
2, 129272, Note_on_c, 3, 63, 127
2, 129475, Note_off_c, 3, 63, 127
2, 129476, Note_on_c, 11, 58, 127
2, 129679, Note_off_c, 11, 58, 127
2, 129681, Note_on_c, 8, 56, 127
2, 129884, Note_off_c, 8, 56, 127
2, 129886, Note_on_c, 11, 58, 127
2, 130089, Note_off_c, 11, 58, 127
2, 130091, Note_on_c, 7, 55, 127
2, 130294, Note_off_c, 7, 55, 127
2, 130296, Note_on_c, 5, 53, 127
2, 130499, Note_off_c, 5, 53, 127
2, 130500, Note_on_c, 7, 55, 127
2, 130703, Note_off_c, 7, 55, 127
2, 130705, Note_on_c, 3, 51, 127
2, 130908, Note_off_c, 3, 51, 127
2, 130910, Note_on_c, 2, 50, 127
2, 131113, Note_off_c, 2, 50, 127
2, 131115, Note_on_c, 3, 51, 127
2, 131215, Note_off_c, 3, 51, 127
2, 131217, Note_on_c, 2, 50, 127
2, 131317, Note_off_c, 2, 50, 127
2, 131320, Note_on_c, 3, 51, 127
2, 132296, Note_on_c, 3, 39, 127
2, 134820, Note_off_c, 3, 51, 127
2, 134996, Note_off_c, 3, 39, 127
2, 136301, Note_on_c, 3, 51, 127
2, 137611, Note_off_c, 3, 51, 127
2, 137622, Note_on_c, 11, 58, 127
2, 138457, Note_off_c, 11, 58, 127
2, 138608, Note_on_c, 8, 56, 127
2, 138949, Note_off_c, 8, 56, 127
2, 138954, Note_on_c, 7, 55, 127
2, 139295, Note_off_c, 7, 55, 127
2, 139297, Note_on_c, 0, 60, 127
2, 139927, Note_off_c, 0, 60, 127
2, 139986, Note_on_c, 11, 58, 127
2, 140327, Note_off_c, 11, 58, 127
2, 140331, Note_on_c, 8, 56, 127
2, 140672, Note_off_c, 8, 56, 127
2, 140676, Note_on_c, 8, 56, 127
2, 140845, Note_off_c, 8, 56, 127
2, 140848, Note_on_c, 7, 55, 127
2, 141017, Note_off_c, 7, 55, 127
2, 141020, Note_on_c, 8, 56, 127
2, 141361, Note_off_c, 8, 56, 127
2, 141366, Note_on_c, 0, 60, 127
2, 141707, Note_off_c, 0, 60, 127
2, 141709, Note_on_c, 5, 53, 127
2, 142050, Note_off_c, 5, 53, 127
2, 142054, Note_on_c, 11, 58, 127
2, 142684, Note_off_c, 11, 58, 127
2, 142743, Note_on_c, 8, 56, 127
2, 143084, Note_off_c, 8, 56, 127
2, 143088, Note_on_c, 7, 55, 127
2, 143429, Note_off_c, 7, 55, 127
2, 143432, Note_on_c, 7, 55, 127
2, 143601, Note_off_c, 7, 55, 127
2, 143604, Note_on_c, 5, 53, 127
2, 143773, Note_off_c, 5, 53, 127
2, 143776, Note_on_c, 7, 55, 127
2, 144117, Note_off_c, 7, 55, 127
2, 144121, Note_on_c, 11, 58, 127
2, 144462, Note_off_c, 11, 58, 127
2, 144466, Note_on_c, 3, 51, 127
2, 144466, Note_on_c, 11, 58, 127
2, 144807, Note_off_c, 3, 51, 127
2, 144810, Note_on_c, 3, 51, 127
2, 144979, Note_off_c, 3, 51, 127
2, 144982, Note_on_c, 2, 50, 127
2, 145151, Note_off_c, 2, 50, 127
2, 145155, Note_on_c, 3, 51, 127
2, 145496, Note_off_c, 3, 51, 127
2, 145498, Note_on_c, 7, 55, 127
2, 145839, Note_off_c, 7, 55, 127
2, 145842, Note_off_c, 11, 58, 127
2, 145844, Note_on_c, 0, 48, 127
2, 145844, Note_on_c, 3, 63, 127
2, 146185, Note_off_c, 0, 48, 127
2, 146188, Note_on_c, 2, 50, 127
2, 146357, Note_off_c, 2, 50, 127
2, 146360, Note_on_c, 3, 51, 127
2, 146529, Note_off_c, 3, 51, 127
2, 146533, Note_on_c, 5, 53, 127
2, 146704, Note_off_c, 3, 63, 127
2, 146877, Note_on_c, 3, 63, 127
2, 147218, Note_off_c, 3, 63, 127
2, 147220, Note_off_c, 5, 53, 127
2, 147221, Note_on_c, 11, 46, 127
2, 147221, Note_on_c, 2, 62, 127
2, 147562, Note_off_c, 2, 62, 127
2, 147567, Note_on_c, 7, 67, 127
2, 147908, Note_off_c, 11, 46, 127
2, 147910, Note_on_c, 11, 58, 127
2, 148217, Note_off_c, 7, 67, 127
2, 148256, Note_on_c, 5, 65, 127
2, 148597, Note_off_c, 5, 65, 127
2, 148599, Note_on_c, 3, 63, 127
2, 148940, Note_off_c, 3, 63, 127
2, 148944, Note_on_c, 3, 63, 127
2, 149113, Note_off_c, 3, 63, 127
2, 149117, Note_on_c, 2, 62, 127
2, 149286, Note_off_c, 2, 62, 127
2, 149286, Note_off_c, 11, 58, 127
2, 149289, Note_on_c, 10, 57, 127
2, 149289, Note_on_c, 3, 63, 127
2, 149630, Note_off_c, 3, 63, 127
2, 149630, Note_off_c, 10, 57, 127
2, 149633, Note_on_c, 7, 55, 127
2, 149633, Note_on_c, 7, 67, 127
2, 149974, Note_off_c, 7, 67, 127
2, 149974, Note_off_c, 7, 55, 127
2, 149978, Note_on_c, 10, 57, 127
2, 149978, Note_on_c, 0, 60, 127
2, 150319, Note_off_c, 0, 60, 127
2, 150322, Note_on_c, 5, 65, 127
2, 150435, Note_off_c, 10, 57, 127
2, 150438, Note_on_c, 11, 58, 127
2, 150550, Note_off_c, 11, 58, 127
2, 150553, Note_on_c, 10, 57, 127
2, 150665, Note_off_c, 10, 57, 127
2, 150668, Note_on_c, 7, 55, 127
2, 150972, Note_off_c, 5, 65, 127
2, 151009, Note_off_c, 7, 55, 127
2, 151012, Note_on_c, 10, 57, 127
2, 151012, Note_on_c, 3, 63, 127
2, 151353, Note_off_c, 3, 63, 127
2, 151353, Note_off_c, 10, 57, 127
2, 151358, Note_on_c, 11, 58, 127
2, 151358, Note_on_c, 2, 62, 127
2, 151699, Note_off_c, 2, 62, 127
2, 151699, Note_off_c, 11, 58, 127
2, 151702, Note_on_c, 11, 46, 127
2, 151702, Note_on_c, 2, 62, 127
2, 151871, Note_off_c, 2, 62, 127
2, 151873, Note_on_c, 0, 60, 127
2, 152042, Note_off_c, 0, 60, 127
2, 152043, Note_off_c, 11, 46, 127
2, 152047, Note_on_c, 11, 58, 127
2, 152047, Note_on_c, 2, 62, 127
2, 152388, Note_off_c, 2, 62, 127
2, 152388, Note_off_c, 11, 58, 127
2, 152391, Note_on_c, 8, 56, 127
2, 152391, Note_on_c, 5, 65, 127
2, 152732, Note_off_c, 5, 65, 127
2, 152732, Note_off_c, 8, 56, 127
2, 152735, Note_on_c, 7, 55, 127
2, 152735, Note_on_c, 11, 58, 127
2, 153076, Note_off_c, 11, 58, 127
2, 153076, Note_off_c, 7, 55, 127
2, 153080, Note_on_c, 7, 43, 127
2, 153080, Note_on_c, 11, 58, 127
2, 153249, Note_off_c, 11, 58, 127
2, 153253, Note_on_c, 8, 56, 127
2, 153421, Note_off_c, 7, 43, 127
2, 153422, Note_off_c, 8, 56, 127
2, 153424, Note_on_c, 7, 55, 127
2, 153424, Note_on_c, 11, 58, 127
2, 153765, Note_off_c, 11, 58, 127
2, 153765, Note_off_c, 7, 55, 127
2, 153769, Note_on_c, 5, 53, 127
2, 153769, Note_on_c, 2, 62, 127
2, 154110, Note_off_c, 2, 62, 127
2, 154110, Note_off_c, 5, 53, 127
2, 154113, Note_on_c, 3, 51, 127
2, 154113, Note_on_c, 3, 63, 127
2, 154113, Note_on_c, 7, 55, 127
2, 154458, Note_off_c, 7, 55, 127
2, 154458, Note_off_c, 3, 51, 127
2, 154462, Note_on_c, 5, 53, 127
2, 154462, Note_on_c, 8, 56, 127
2, 154633, Note_off_c, 8, 56, 127
2, 154633, Note_off_c, 5, 53, 127
2, 154635, Note_on_c, 7, 55, 127
2, 154635, Note_on_c, 11, 58, 127
2, 154806, Note_off_c, 11, 58, 127
2, 154806, Note_off_c, 7, 55, 127
2, 154808, Note_on_c, 8, 56, 127
2, 154808, Note_on_c, 0, 60, 127
2, 155153, Note_off_c, 0, 60, 127
2, 155157, Note_on_c, 11, 58, 127
2, 155328, Note_off_c, 11, 58, 127
2, 155331, Note_on_c, 0, 60, 127
2, 155497, Note_off_c, 3, 63, 127
2, 155502, Note_off_c, 0, 60, 127
2, 155503, Note_on_c, 11, 70, 127
2, 155503, Note_on_c, 2, 62, 127
2, 155848, Note_off_c, 2, 62, 127
2, 155848, Note_off_c, 8, 56, 127
2, 155852, Note_on_c, 7, 55, 127
2, 155852, Note_on_c, 5, 65, 127
2, 156023, Note_off_c, 7, 55, 127
2, 156025, Note_on_c, 5, 53, 127
2, 156196, Note_off_c, 5, 53, 127
2, 156197, Note_off_c, 5, 65, 127
2, 156199, Note_on_c, 7, 55, 127
2, 156199, Note_on_c, 11, 58, 127
2, 156371, Note_off_c, 11, 70, 127
2, 156544, Note_off_c, 11, 58, 127
2, 156544, Note_off_c, 7, 55, 127
2, 156547, Note_on_c, 11, 58, 127
2, 156547, Note_on_c, 8, 68, 127
2, 156547, Note_on_c, 2, 62, 127
2, 156892, Note_off_c, 2, 62, 127
2, 156892, Note_off_c, 8, 68, 127
2, 156892, Note_off_c, 11, 58, 127
2, 156894, Note_on_c, 3, 51, 127
2, 156894, Note_on_c, 7, 67, 127
2, 156894, Note_on_c, 3, 63, 127
2, 157239, Note_off_c, 7, 67, 127
2, 157239, Note_off_c, 3, 51, 127
2, 157242, Note_on_c, 8, 56, 127
2, 157242, Note_on_c, 0, 72, 127
2, 157413, Note_off_c, 8, 56, 127
2, 157415, Note_on_c, 7, 55, 127
2, 157586, Note_off_c, 7, 55, 127
2, 157589, Note_on_c, 8, 56, 127
2, 157934, Note_off_c, 8, 56, 127
2, 157935, Note_off_c, 0, 72, 127
2, 157938, Note_on_c, 0, 60, 127
2, 157938, Note_on_c, 11, 70, 127
2, 158283, Note_off_c, 11, 70, 127
2, 158283, Note_off_c, 0, 60, 127
2, 158284, Note_on_c, 5, 53, 127
2, 158284, Note_on_c, 8, 68, 127
2, 158629, Note_off_c, 8, 68, 127
2, 158633, Note_on_c, 8, 68, 127
2, 158804, Note_off_c, 8, 68, 127
2, 158806, Note_on_c, 7, 67, 127
2, 158975, Note_off_c, 3, 63, 127
2, 158978, Note_off_c, 7, 67, 127
2, 158981, Note_on_c, 8, 68, 127
2, 158981, Note_on_c, 2, 62, 127
2, 159325, Note_off_c, 5, 53, 127
2, 159326, Note_off_c, 2, 62, 127
2, 159326, Note_off_c, 8, 68, 127
2, 159329, Note_on_c, 7, 55, 127
2, 159329, Note_on_c, 0, 60, 127
2, 159329, Note_on_c, 0, 72, 127
2, 159500, Note_off_c, 7, 55, 127
2, 159502, Note_on_c, 8, 56, 127
2, 159673, Note_off_c, 8, 56, 127
2, 159674, Note_off_c, 0, 72, 127
2, 159674, Note_off_c, 0, 60, 127
2, 159676, Note_on_c, 11, 58, 127
2, 159676, Note_on_c, 2, 62, 127
2, 159676, Note_on_c, 5, 65, 127
2, 160021, Note_off_c, 5, 65, 127
2, 160024, Note_on_c, 11, 70, 127
2, 160137, Note_off_c, 2, 62, 127
2, 160141, Note_on_c, 3, 63, 127
2, 160255, Note_off_c, 3, 63, 127
2, 160258, Note_on_c, 2, 62, 127
2, 160372, Note_off_c, 2, 62, 127
2, 160375, Note_on_c, 0, 60, 127
2, 160719, Note_off_c, 11, 70, 127
2, 160720, Note_off_c, 0, 60, 127
2, 160722, Note_on_c, 8, 68, 127
2, 160722, Note_on_c, 2, 62, 127
2, 161067, Note_off_c, 2, 62, 127
2, 161067, Note_off_c, 8, 68, 127
2, 161067, Note_off_c, 11, 58, 127
2, 161070, Note_on_c, 3, 51, 127
2, 161070, Note_on_c, 3, 63, 127
2, 161070, Note_on_c, 7, 67, 127
2, 161415, Note_off_c, 7, 67, 127
2, 161415, Note_off_c, 3, 63, 127
2, 161417, Note_on_c, 11, 58, 127
2, 161417, Note_on_c, 7, 67, 127
2, 161588, Note_off_c, 7, 67, 127
2, 161588, Note_off_c, 11, 58, 127
2, 161591, Note_on_c, 8, 56, 127
2, 161591, Note_on_c, 5, 65, 127
2, 161762, Note_off_c, 5, 65, 127
2, 161762, Note_off_c, 8, 56, 127
2, 161766, Note_on_c, 11, 58, 127
2, 161766, Note_on_c, 7, 67, 127
2, 162110, Note_off_c, 3, 51, 127
2, 162112, Note_off_c, 7, 67, 127
2, 162114, Note_on_c, 2, 50, 127
2, 162114, Note_on_c, 11, 70, 127
2, 162459, Note_off_c, 11, 70, 127
2, 162459, Note_off_c, 2, 50, 127
2, 162462, Note_on_c, 0, 48, 127
2, 162462, Note_on_c, 3, 63, 127
2, 162807, Note_off_c, 11, 58, 127
2, 162808, Note_off_c, 3, 63, 127
2, 162811, Note_on_c, 8, 56, 127
2, 162811, Note_on_c, 5, 65, 127
2, 162982, Note_off_c, 5, 65, 127
2, 162982, Note_off_c, 8, 56, 127
2, 162985, Note_on_c, 7, 55, 127
2, 162985, Note_on_c, 3, 63, 127
2, 163156, Note_off_c, 3, 63, 127
2, 163156, Note_off_c, 7, 55, 127
2, 163159, Note_on_c, 8, 56, 127
2, 163159, Note_on_c, 5, 65, 127
2, 163331, Note_off_c, 0, 48, 127
2, 163504, Note_off_c, 5, 65, 127
2, 163506, Note_on_c, 5, 53, 127
2, 163506, Note_on_c, 8, 68, 127
2, 163851, Note_off_c, 8, 68, 127
2, 163851, Note_off_c, 5, 53, 127
2, 163854, Note_on_c, 11, 46, 127
2, 163854, Note_on_c, 2, 62, 127
2, 163854, Note_on_c, 11, 70, 127
2, 164199, Note_off_c, 8, 56, 127
2, 164200, Note_off_c, 2, 62, 127
2, 164203, Note_on_c, 7, 55, 127
2, 164203, Note_on_c, 3, 63, 127
2, 164548, Note_off_c, 7, 55, 127
2, 164551, Note_on_c, 5, 53, 127
2, 164896, Note_off_c, 5, 53, 127
2, 164896, Note_off_c, 3, 63, 127
2, 164898, Note_on_c, 11, 58, 127
2, 164898, Note_on_c, 2, 62, 127
2, 165239, Note_off_c, 11, 70, 127
2, 165243, Note_off_c, 2, 62, 127
2, 165243, Note_off_c, 11, 58, 127
2, 165246, Note_on_c, 7, 55, 127
2, 165246, Note_on_c, 3, 75, 127
2, 165246, Note_on_c, 0, 60, 127
2, 165591, Note_off_c, 0, 60, 127
2, 165593, Note_on_c, 7, 67, 127
2, 165935, Note_off_c, 11, 46, 127
2, 165938, Note_off_c, 7, 67, 127
2, 165939, Note_off_c, 7, 55, 127
2, 165941, Note_on_c, 10, 45, 127
2, 165941, Note_on_c, 5, 53, 127
2, 165941, Note_on_c, 0, 72, 127
2, 166114, Note_off_c, 3, 75, 127
2, 166289, Note_on_c, 3, 75, 127
2, 166634, Note_off_c, 3, 75, 127
2, 166634, Note_off_c, 10, 45, 127
2, 166636, Note_on_c, 11, 46, 127
2, 166636, Note_on_c, 2, 74, 127
2, 166981, Note_off_c, 0, 72, 127
2, 166981, Note_off_c, 5, 53, 127
2, 166982, Note_off_c, 2, 74, 127
2, 166984, Note_on_c, 2, 50, 127
2, 166984, Note_on_c, 7, 79, 127
2, 166984, Note_on_c, 11, 70, 127
2, 167155, Note_off_c, 11, 70, 127
2, 167159, Note_on_c, 10, 69, 127
2, 167329, Note_off_c, 2, 50, 127
2, 167330, Note_off_c, 10, 69, 127
2, 167330, Note_off_c, 11, 46, 127
2, 167333, Note_on_c, 7, 55, 127
2, 167333, Note_on_c, 11, 70, 127
2, 167677, Note_off_c, 7, 79, 127
2, 167680, Note_on_c, 7, 43, 127
2, 167680, Note_on_c, 5, 77, 127
2, 168025, Note_off_c, 5, 77, 127
2, 168025, Note_off_c, 7, 43, 127
2, 168028, Note_on_c, 0, 48, 127
2, 168028, Note_on_c, 3, 75, 127
2, 168373, Note_off_c, 7, 55, 127
2, 168374, Note_off_c, 3, 75, 127
2, 168376, Note_on_c, 0, 60, 127
2, 168376, Note_on_c, 3, 75, 127
2, 168547, Note_off_c, 3, 75, 127
2, 168547, Note_off_c, 0, 60, 127
2, 168551, Note_on_c, 11, 58, 127
2, 168551, Note_on_c, 2, 74, 127
2, 168718, Note_off_c, 11, 70, 127
2, 168722, Note_off_c, 2, 74, 127
2, 168722, Note_off_c, 11, 58, 127
2, 168722, Note_off_c, 0, 48, 127
2, 168725, Note_on_c, 0, 60, 127
2, 168725, Note_on_c, 3, 75, 127
2, 168725, Note_on_c, 10, 69, 127
2, 169070, Note_off_c, 10, 69, 127
2, 169070, Note_off_c, 3, 75, 127
2, 169072, Note_on_c, 3, 51, 127
2, 169072, Note_on_c, 7, 67, 127
2, 169072, Note_on_c, 7, 79, 127
2, 169417, Note_off_c, 7, 79, 127
2, 169417, Note_off_c, 7, 67, 127
2, 169417, Note_off_c, 3, 51, 127
2, 169420, Note_on_c, 5, 53, 127
2, 169420, Note_on_c, 10, 69, 127
2, 169420, Note_on_c, 0, 72, 127
2, 169765, Note_off_c, 0, 72, 127
2, 169768, Note_on_c, 5, 77, 127
2, 169881, Note_off_c, 10, 69, 127
2, 169884, Note_on_c, 2, 62, 127
2, 169884, Note_on_c, 11, 70, 127
2, 169889, Note_off_c, 0, 60, 127
2, 169998, Note_off_c, 11, 70, 127
2, 169998, Note_off_c, 2, 62, 127
2, 170001, Note_on_c, 0, 60, 127
2, 170001, Note_on_c, 10, 69, 127
2, 170115, Note_off_c, 10, 69, 127
2, 170115, Note_off_c, 0, 60, 127
2, 170115, Note_off_c, 5, 53, 127
2, 170118, Note_on_c, 11, 58, 127
2, 170118, Note_on_c, 7, 67, 127
2, 170463, Note_off_c, 7, 67, 127
2, 170463, Note_off_c, 11, 58, 127
2, 170463, Note_off_c, 5, 77, 127
2, 170466, Note_on_c, 5, 53, 127
2, 170466, Note_on_c, 0, 60, 127
2, 170466, Note_on_c, 3, 75, 127
2, 170466, Note_on_c, 10, 69, 127
2, 170811, Note_off_c, 10, 69, 127
2, 170811, Note_off_c, 3, 75, 127
2, 170811, Note_off_c, 0, 60, 127
2, 170811, Note_off_c, 5, 53, 127
2, 170813, Note_on_c, 11, 58, 127
2, 170813, Note_on_c, 2, 62, 127
2, 170813, Note_on_c, 11, 70, 127
2, 170813, Note_on_c, 2, 74, 127
2, 171158, Note_off_c, 2, 74, 127
2, 171158, Note_off_c, 11, 58, 127
2, 171161, Note_on_c, 5, 53, 127
2, 171161, Note_on_c, 2, 74, 127
2, 171332, Note_off_c, 2, 74, 127
2, 171335, Note_on_c, 0, 72, 127
2, 171506, Note_off_c, 0, 72, 127
2, 171506, Note_off_c, 5, 53, 127
2, 171506, Note_off_c, 11, 70, 127
2, 171506, Note_off_c, 2, 62, 127
2, 171508, Note_on_c, 11, 58, 127
2, 171508, Note_on_c, 2, 74, 127
2, 171853, Note_off_c, 2, 74, 127
2, 171853, Note_off_c, 11, 58, 127
2, 171857, Note_on_c, 10, 57, 127
2, 171857, Note_on_c, 0, 60, 127
2, 171857, Note_on_c, 5, 77, 127
2, 171857, Note_on_c, 5, 65, 127
2, 172202, Note_off_c, 5, 65, 127
2, 172202, Note_off_c, 5, 77, 127
2, 172202, Note_off_c, 0, 60, 127
2, 172202, Note_off_c, 10, 57, 127
2, 172203, Note_on_c, 7, 55, 127
2, 172203, Note_on_c, 2, 62, 127
2, 172203, Note_on_c, 11, 70, 127
2, 172203, Note_on_c, 7, 67, 127
2, 172548, Note_off_c, 11, 70, 127
2, 172548, Note_off_c, 7, 55, 127
2, 172552, Note_on_c, 2, 50, 127
2, 172552, Note_on_c, 11, 70, 127
2, 172723, Note_off_c, 11, 70, 127
2, 172725, Note_on_c, 10, 69, 127
2, 172896, Note_off_c, 10, 69, 127
2, 172896, Note_off_c, 7, 67, 127
2, 172896, Note_off_c, 2, 62, 127
2, 172897, Note_off_c, 2, 50, 127
2, 172898, Note_on_c, 7, 55, 127
2, 172898, Note_on_c, 11, 70, 127
2, 173243, Note_off_c, 11, 70, 127
2, 173243, Note_off_c, 7, 55, 127
2, 173247, Note_on_c, 8, 56, 127
2, 173247, Note_on_c, 5, 53, 127
2, 173247, Note_on_c, 2, 74, 127
2, 173247, Note_on_c, 2, 62, 127
2, 173592, Note_off_c, 2, 62, 127
2, 173592, Note_off_c, 2, 74, 127
2, 173592, Note_off_c, 5, 53, 127
2, 173592, Note_off_c, 8, 56, 127
2, 173594, Note_on_c, 11, 58, 127
2, 173594, Note_on_c, 3, 51, 127
2, 173594, Note_on_c, 3, 63, 127
2, 173594, Note_on_c, 7, 67, 127
2, 173939, Note_off_c, 7, 67, 127
2, 173939, Note_off_c, 3, 63, 127
2, 173939, Note_off_c, 11, 58, 127
2, 173942, Note_on_c, 0, 60, 127
2, 173942, Note_on_c, 5, 65, 127
2, 173942, Note_on_c, 10, 69, 127
2, 174287, Note_off_c, 10, 69, 127
2, 174287, Note_off_c, 5, 65, 127
2, 174287, Note_off_c, 0, 60, 127
2, 174289, Note_on_c, 1, 61, 127
2, 174289, Note_on_c, 11, 70, 127
2, 174289, Note_on_c, 7, 67, 127
2, 174634, Note_off_c, 3, 51, 127
2, 174637, Note_on_c, 4, 52, 127
2, 174982, Note_off_c, 4, 52, 127
2, 174982, Note_off_c, 7, 67, 127
2, 174982, Note_off_c, 1, 61, 127
2, 174984, Note_on_c, 5, 53, 127
2, 174984, Note_on_c, 0, 60, 127
2, 174984, Note_on_c, 5, 65, 127
2, 175329, Note_off_c, 0, 60, 127
2, 175332, Note_on_c, 11, 58, 127
2, 175673, Note_off_c, 11, 70, 127
2, 175677, Note_off_c, 11, 58, 127
2, 175679, Note_on_c, 0, 60, 127
2, 175679, Note_on_c, 10, 69, 127
2, 176024, Note_off_c, 5, 65, 127
2, 176027, Note_on_c, 3, 63, 127
2, 176368, Note_off_c, 5, 53, 127
2, 176372, Note_off_c, 3, 63, 127
2, 176372, Note_off_c, 10, 69, 127
2, 176372, Note_off_c, 0, 60, 127
2, 176374, Note_on_c, 11, 46, 127
2, 176374, Note_on_c, 11, 58, 127
2, 176374, Note_on_c, 2, 62, 127
2, 176374, Note_on_c, 11, 70, 127
2, 176719, Note_off_c, 11, 70, 127
2, 176719, Note_off_c, 2, 62, 127
2, 176722, Note_on_c, 5, 65, 127
2, 176722, Note_on_c, 2, 74, 127
2, 176893, Note_off_c, 2, 74, 127
2, 176893, Note_off_c, 5, 65, 127
2, 176896, Note_on_c, 3, 75, 127
2, 176896, Note_on_c, 7, 67, 127
2, 177067, Note_off_c, 7, 67, 127
2, 177067, Note_off_c, 3, 75, 127
2, 177067, Note_off_c, 11, 58, 127
2, 177067, Note_off_c, 11, 46, 127
2, 177070, Note_on_c, 11, 58, 127
2, 177070, Note_on_c, 8, 68, 127
2, 177070, Note_on_c, 5, 77, 127
2, 177415, Note_off_c, 5, 77, 127
2, 177417, Note_on_c, 2, 74, 127
2, 177762, Note_off_c, 2, 74, 127
2, 177763, Note_off_c, 11, 58, 127
2, 177766, Note_on_c, 3, 63, 127
2, 177766, Note_on_c, 11, 70, 127
2, 178110, Note_off_c, 8, 68, 127
2, 178112, Note_off_c, 11, 70, 127
2, 178114, Note_on_c, 7, 67, 127
2, 178114, Note_on_c, 3, 75, 127
2, 178285, Note_off_c, 3, 75, 127
2, 178285, Note_off_c, 7, 67, 127
2, 178288, Note_on_c, 5, 77, 127
2, 178288, Note_on_c, 8, 68, 127
2, 178459, Note_off_c, 8, 68, 127
2, 178459, Note_off_c, 5, 77, 127
2, 178460, Note_off_c, 3, 63, 127
2, 178463, Note_on_c, 3, 51, 127
2, 178463, Note_on_c, 11, 70, 127
2, 178463, Note_on_c, 7, 79, 127
2, 178808, Note_off_c, 7, 79, 127
2, 178808, Note_off_c, 11, 70, 127
2, 178809, Note_on_c, 3, 63, 127
2, 178809, Note_on_c, 3, 75, 127
2, 178809, Note_on_c, 7, 67, 127
2, 179154, Note_off_c, 7, 67, 127
2, 179154, Note_off_c, 3, 75, 127
2, 179154, Note_off_c, 3, 63, 127
2, 179156, Note_off_c, 3, 51, 127
2, 179158, Note_on_c, 11, 58, 127
2, 179158, Note_on_c, 5, 77, 127
2, 179158, Note_on_c, 2, 62, 127
2, 179503, Note_off_c, 2, 62, 127
2, 179503, Note_off_c, 5, 77, 127
2, 179504, Note_on_c, 7, 67, 127
2, 179504, Note_on_c, 3, 75, 127
2, 179504, Note_on_c, 11, 70, 127
2, 179675, Note_off_c, 3, 75, 127
2, 179678, Note_on_c, 2, 74, 127
2, 179847, Note_off_c, 11, 70, 127
2, 179850, Note_off_c, 2, 74, 127
2, 179852, Note_off_c, 11, 58, 127
2, 179854, Note_on_c, 8, 68, 127
2, 179854, Note_on_c, 0, 72, 127
2, 180198, Note_off_c, 7, 67, 127
2, 180199, Note_off_c, 0, 72, 127
2, 180199, Note_off_c, 8, 68, 127
2, 180201, Note_on_c, 8, 56, 127
2, 180201, Note_on_c, 5, 65, 127
2, 180201, Note_on_c, 11, 70, 127
2, 180201, Note_on_c, 2, 74, 127
2, 180546, Note_off_c, 2, 74, 127
2, 180546, Note_off_c, 11, 70, 127
2, 180546, Note_off_c, 5, 65, 127
2, 180546, Note_off_c, 8, 56, 127
2, 180549, Note_on_c, 7, 55, 127
2, 180549, Note_on_c, 11, 58, 127
2, 180549, Note_on_c, 3, 75, 127
2, 180549, Note_on_c, 3, 63, 127
2, 180890, Note_off_c, 3, 63, 127
2, 180890, Note_off_c, 3, 75, 127
2, 180894, Note_off_c, 11, 58, 127
2, 180894, Note_off_c, 7, 55, 127
2, 180896, Note_on_c, 0, 60, 127
2, 180896, Note_on_c, 3, 63, 127
2, 181067, Note_off_c, 3, 63, 127
2, 181070, Note_on_c, 2, 62, 127
2, 181241, Note_off_c, 2, 62, 127
2, 181244, Note_on_c, 3, 63, 127
2, 181496, Note_off_c, 0, 60, 127
2, 181589, Note_off_c, 3, 63, 127
2, 181592, Note_on_c, 11, 58, 127
2, 181592, Note_on_c, 7, 67, 127
2, 181937, Note_off_c, 7, 67, 127
2, 181937, Note_off_c, 11, 58, 127
2, 181939, Note_on_c, 0, 60, 127
2, 181939, Note_on_c, 8, 56, 127
2, 182284, Note_off_c, 8, 56, 127
2, 182284, Note_off_c, 0, 60, 127
2, 182287, Note_on_c, 8, 56, 127
2, 182287, Note_on_c, 5, 65, 127
2, 182458, Note_off_c, 8, 56, 127
2, 182461, Note_on_c, 7, 55, 127
2, 182632, Note_off_c, 7, 55, 127
2, 182634, Note_on_c, 8, 56, 127
2, 182906, Note_off_c, 5, 65, 127
2, 182982, Note_on_c, 0, 60, 127
2, 182982, Note_on_c, 3, 63, 127
2, 182989, Note_off_c, 8, 56, 127
2, 183327, Note_off_c, 3, 63, 127
2, 183327, Note_off_c, 0, 60, 127
2, 183330, Note_on_c, 5, 53, 127
2, 183330, Note_on_c, 2, 62, 127
2, 183675, Note_off_c, 2, 62, 127
2, 183675, Note_off_c, 5, 53, 127
2, 183677, Note_on_c, 11, 58, 127
2, 183677, Note_on_c, 2, 62, 127
2, 183848, Note_off_c, 2, 62, 127
2, 183851, Note_on_c, 0, 60, 127
2, 184022, Note_off_c, 0, 60, 127
2, 184025, Note_on_c, 2, 62, 127
2, 184357, Note_off_c, 11, 58, 127
2, 184370, Note_off_c, 2, 62, 127
2, 184372, Note_on_c, 5, 65, 127
2, 184372, Note_on_c, 8, 56, 127
2, 184717, Note_off_c, 8, 56, 127
2, 184717, Note_off_c, 5, 65, 127
2, 184720, Note_on_c, 7, 55, 127
2, 184720, Note_on_c, 11, 58, 127
2, 185065, Note_off_c, 11, 58, 127
2, 185065, Note_off_c, 7, 55, 127
2, 185068, Note_on_c, 11, 58, 127
2, 185068, Note_on_c, 7, 55, 127
2, 185239, Note_off_c, 7, 55, 127
2, 185239, Note_off_c, 11, 58, 127
2, 185241, Note_on_c, 5, 53, 127
2, 185241, Note_on_c, 8, 56, 127
2, 185412, Note_off_c, 8, 56, 127
2, 185412, Note_off_c, 5, 53, 127
2, 185415, Note_on_c, 7, 55, 127
2, 185415, Note_on_c, 11, 58, 127
2, 185760, Note_off_c, 11, 58, 127
2, 185760, Note_off_c, 7, 55, 127
2, 185763, Note_on_c, 11, 58, 127
2, 185763, Note_on_c, 2, 62, 127
2, 186108, Note_off_c, 2, 62, 127
2, 186108, Note_off_c, 11, 58, 127
2, 186110, Note_on_c, 3, 51, 127
2, 186110, Note_on_c, 7, 55, 127
2, 186110, Note_on_c, 11, 70, 127
2, 186455, Note_off_c, 3, 51, 127
2, 186458, Note_on_c, 3, 51, 127
2, 186629, Note_off_c, 3, 51, 127
2, 186632, Note_on_c, 2, 50, 127
2, 186803, Note_off_c, 2, 50, 127
2, 186803, Note_off_c, 11, 70, 127
2, 186803, Note_off_c, 7, 55, 127
2, 186806, Note_on_c, 3, 51, 127
2, 186806, Note_on_c, 7, 67, 127
2, 187151, Note_off_c, 3, 51, 127
2, 187153, Note_on_c, 7, 55, 127
2, 187498, Note_off_c, 7, 55, 127
2, 187501, Note_on_c, 0, 48, 127
2, 187501, Note_on_c, 3, 75, 127
2, 187846, Note_off_c, 7, 67, 127
2, 187848, Note_on_c, 7, 67, 127
2, 188019, Note_off_c, 7, 67, 127
2, 188022, Note_on_c, 5, 65, 127
2, 188193, Note_off_c, 5, 65, 127
2, 188194, Note_off_c, 0, 48, 127
2, 188196, Note_on_c, 0, 60, 127
2, 188196, Note_on_c, 7, 67, 127
2, 188369, Note_off_c, 3, 75, 127
2, 188541, Note_off_c, 7, 67, 127
2, 188544, Note_on_c, 10, 69, 127
2, 188544, Note_on_c, 3, 75, 127
2, 188889, Note_off_c, 3, 75, 127
2, 188889, Note_off_c, 10, 69, 127
2, 188889, Note_off_c, 0, 60, 127
2, 188891, Note_on_c, 11, 58, 127
2, 188891, Note_on_c, 11, 82, 127
2, 188891, Note_on_c, 11, 70, 127
2, 188891, Note_on_c, 2, 74, 127
2, 189236, Note_off_c, 2, 74, 127
2, 189236, Note_off_c, 11, 70, 127
2, 189236, Note_off_c, 11, 58, 127
2, 189239, Note_on_c, 11, 58, 127
2, 189239, Note_on_c, 2, 62, 127
2, 189239, Note_on_c, 7, 79, 127
2, 189410, Note_off_c, 2, 62, 127
2, 189410, Note_off_c, 11, 58, 127
2, 189413, Note_on_c, 8, 56, 127
2, 189413, Note_on_c, 0, 60, 127
2, 189584, Note_off_c, 0, 60, 127
2, 189584, Note_off_c, 8, 56, 127
2, 189586, Note_on_c, 11, 58, 127
2, 189586, Note_on_c, 2, 62, 127
2, 189759, Note_off_c, 11, 82, 127
2, 189931, Note_off_c, 2, 62, 127
2, 189931, Note_off_c, 11, 58, 127
2, 189932, Note_off_c, 7, 79, 127
2, 189934, Note_on_c, 5, 65, 127
2, 189934, Note_on_c, 2, 62, 127
2, 189934, Note_on_c, 5, 77, 127
2, 189934, Note_on_c, 8, 80, 127
2, 190279, Note_off_c, 8, 80, 127
2, 190279, Note_off_c, 5, 77, 127
2, 190279, Note_off_c, 2, 62, 127
2, 190279, Note_off_c, 5, 65, 127
2, 190282, Note_on_c, 3, 63, 127
2, 190282, Note_on_c, 7, 67, 127
2, 190282, Note_on_c, 3, 75, 127
2, 190282, Note_on_c, 7, 79, 127
2, 190627, Note_off_c, 7, 79, 127
2, 190627, Note_off_c, 3, 75, 127
2, 190627, Note_off_c, 7, 67, 127
2, 190629, Note_on_c, 7, 67, 127
2, 190629, Note_on_c, 0, 84, 127
2, 190629, Note_on_c, 3, 75, 127
2, 190800, Note_off_c, 3, 75, 127
2, 190800, Note_off_c, 7, 67, 127
2, 190803, Note_on_c, 5, 65, 127
2, 190803, Note_on_c, 2, 74, 127
2, 190974, Note_off_c, 2, 74, 127
2, 190974, Note_off_c, 5, 65, 127
2, 190975, Note_off_c, 3, 63, 127
2, 190976, Note_on_c, 7, 67, 127
2, 190976, Note_on_c, 3, 75, 127
2, 191321, Note_off_c, 3, 75, 127
2, 191322, Note_off_c, 0, 84, 127
2, 191324, Note_on_c, 4, 64, 127
2, 191324, Note_on_c, 7, 79, 127
2, 191324, Note_on_c, 11, 82, 127
2, 191669, Note_off_c, 11, 82, 127
2, 191669, Note_off_c, 7, 79, 127
2, 191669, Note_off_c, 4, 64, 127
2, 191669, Note_off_c, 7, 67, 127
2, 191671, Note_on_c, 5, 65, 127
2, 191671, Note_on_c, 0, 72, 127
2, 191671, Note_on_c, 8, 80, 127
2, 192016, Note_off_c, 8, 80, 127
2, 192016, Note_off_c, 0, 72, 127
2, 192016, Note_off_c, 5, 65, 127
2, 192020, Note_on_c, 5, 53, 127
2, 192020, Note_on_c, 0, 60, 127
2, 192020, Note_on_c, 8, 80, 127
2, 192020, Note_on_c, 5, 77, 127
2, 192191, Note_off_c, 8, 80, 127
2, 192191, Note_off_c, 5, 53, 127
2, 192193, Note_on_c, 4, 52, 127
2, 192193, Note_on_c, 7, 79, 127
2, 192363, Note_off_c, 0, 60, 127
2, 192365, Note_off_c, 7, 79, 127
2, 192365, Note_off_c, 4, 52, 127
2, 192368, Note_on_c, 5, 53, 127
2, 192368, Note_on_c, 5, 65, 127
2, 192368, Note_on_c, 8, 80, 127
2, 192713, Note_off_c, 8, 80, 127
2, 192713, Note_off_c, 5, 53, 127
2, 192714, Note_off_c, 5, 77, 127
2, 192716, Note_on_c, 10, 57, 127
2, 192716, Note_on_c, 0, 84, 127
2, 192716, Note_on_c, 3, 75, 127
2, 193061, Note_off_c, 3, 75, 127
2, 193061, Note_off_c, 0, 84, 127
2, 193061, Note_off_c, 10, 57, 127
2, 193064, Note_on_c, 11, 58, 127
2, 193064, Note_on_c, 2, 74, 127
2, 193064, Note_on_c, 5, 77, 127
2, 193408, Note_off_c, 5, 65, 127
2, 193410, Note_off_c, 5, 77, 127
2, 193410, Note_off_c, 2, 74, 127
2, 193413, Note_on_c, 5, 65, 127
2, 193413, Note_on_c, 2, 74, 127
2, 193413, Note_on_c, 11, 82, 127
2, 193584, Note_off_c, 2, 74, 127
2, 193584, Note_off_c, 5, 65, 127
2, 193586, Note_on_c, 3, 63, 127
2, 193586, Note_on_c, 0, 72, 127
2, 193757, Note_off_c, 0, 72, 127
2, 193757, Note_off_c, 3, 63, 127
2, 193758, Note_off_c, 11, 58, 127
2, 193761, Note_on_c, 5, 65, 127
2, 193761, Note_on_c, 2, 74, 127
2, 194106, Note_off_c, 2, 74, 127
2, 194106, Note_off_c, 11, 82, 127
2, 194108, Note_on_c, 2, 62, 127
2, 194108, Note_on_c, 8, 80, 127
2, 194108, Note_on_c, 5, 77, 127
2, 194453, Note_off_c, 5, 77, 127
2, 194453, Note_off_c, 8, 80, 127
2, 194453, Note_off_c, 2, 62, 127
2, 194454, Note_off_c, 5, 65, 127
2, 194456, Note_on_c, 3, 63, 127
2, 194456, Note_on_c, 7, 79, 127
2, 194456, Note_on_c, 11, 70, 127
2, 194801, Note_off_c, 11, 70, 127
2, 194801, Note_off_c, 7, 79, 127
2, 194801, Note_off_c, 3, 63, 127
2, 194804, Note_on_c, 11, 58, 127
2, 194804, Note_on_c, 3, 51, 127
2, 194804, Note_on_c, 7, 79, 127
2, 194804, Note_on_c, 11, 70, 127
2, 194975, Note_off_c, 11, 70, 127
2, 194975, Note_off_c, 7, 79, 127
2, 194976, Note_on_c, 8, 68, 127
2, 194976, Note_on_c, 5, 77, 127
2, 195147, Note_off_c, 5, 77, 127
2, 195147, Note_off_c, 8, 68, 127
2, 195149, Note_off_c, 3, 51, 127
2, 195149, Note_off_c, 11, 58, 127
2, 195151, Note_on_c, 3, 63, 127
2, 195151, Note_on_c, 11, 70, 127
2, 195151, Note_on_c, 7, 79, 127
2, 195322, Note_off_c, 3, 63, 127
2, 195325, Note_on_c, 2, 62, 127
2, 195496, Note_off_c, 2, 62, 127
2, 195496, Note_off_c, 7, 79, 127
2, 195496, Note_off_c, 11, 70, 127
2, 195498, Note_on_c, 0, 60, 127
2, 195498, Note_on_c, 11, 82, 127
2, 195498, Note_on_c, 2, 74, 127
2, 195669, Note_off_c, 0, 60, 127
2, 195672, Note_on_c, 11, 58, 127
2, 195843, Note_off_c, 11, 58, 127
2, 195843, Note_off_c, 2, 74, 127
2, 195843, Note_off_c, 11, 82, 127
2, 195846, Note_on_c, 0, 60, 127
2, 195846, Note_on_c, 3, 75, 127
2, 195846, Note_on_c, 7, 67, 127
2, 196191, Note_off_c, 7, 67, 127
2, 196191, Note_off_c, 3, 75, 127
2, 196191, Note_off_c, 0, 60, 127
2, 196193, Note_on_c, 0, 48, 127
2, 196193, Note_on_c, 10, 69, 127
2, 196193, Note_on_c, 3, 75, 127
2, 196364, Note_off_c, 3, 75, 127
2, 196364, Note_off_c, 10, 69, 127
2, 196368, Note_on_c, 2, 74, 127
2, 196368, Note_on_c, 12, 71, 127
2, 196538, Note_off_c, 0, 48, 127
2, 196539, Note_off_c, 12, 71, 127
2, 196539, Note_off_c, 2, 74, 127
2, 196542, Note_on_c, 0, 60, 127
2, 196542, Note_on_c, 0, 72, 127
2, 196542, Note_on_c, 3, 75, 127
2, 196713, Note_off_c, 0, 60, 127
2, 196715, Note_on_c, 11, 58, 127
2, 196886, Note_off_c, 11, 58, 127
2, 196887, Note_off_c, 3, 75, 127
2, 196887, Note_off_c, 0, 72, 127
2, 196888, Note_on_c, 8, 56, 127
2, 196888, Note_on_c, 7, 79, 127
2, 196888, Note_on_c, 11, 70, 127
2, 197059, Note_off_c, 8, 56, 127
2, 197063, Note_on_c, 7, 55, 127
2, 197233, Note_off_c, 11, 70, 127
2, 197233, Note_off_c, 7, 79, 127
2, 197234, Note_off_c, 7, 55, 127
2, 197237, Note_on_c, 8, 56, 127
2, 197237, Note_on_c, 0, 72, 127
2, 197582, Note_off_c, 8, 56, 127
2, 197583, Note_on_c, 8, 44, 127
2, 197583, Note_on_c, 2, 74, 127
2, 197754, Note_off_c, 2, 74, 127
2, 197758, Note_on_c, 3, 75, 127
2, 197928, Note_off_c, 8, 44, 127
2, 197929, Note_off_c, 3, 75, 127
2, 197932, Note_on_c, 8, 56, 127
2, 197932, Note_on_c, 5, 77, 127
2, 198105, Note_off_c, 0, 72, 127
2, 198105, Note_on_c, 12, 71, 127
2, 198276, Note_off_c, 12, 71, 127
2, 198277, Note_off_c, 8, 56, 127
2, 198279, Note_on_c, 7, 55, 127
2, 198279, Note_on_c, 0, 72, 127
2, 198450, Note_off_c, 0, 72, 127
2, 198450, Note_off_c, 7, 55, 127
2, 198453, Note_on_c, 5, 53, 127
2, 198453, Note_on_c, 2, 74, 127
2, 198624, Note_off_c, 2, 74, 127
2, 198624, Note_off_c, 5, 53, 127
2, 198627, Note_on_c, 7, 55, 127
2, 198627, Note_on_c, 12, 71, 127
2, 198972, Note_off_c, 12, 71, 127
2, 198974, Note_on_c, 7, 67, 127
2, 199316, Note_off_c, 5, 77, 127
2, 199319, Note_off_c, 7, 67, 127
2, 199322, Note_on_c, 0, 72, 127
2, 199322, Note_on_c, 3, 75, 127
2, 199493, Note_off_c, 3, 75, 127
2, 199495, Note_on_c, 2, 74, 127
2, 199666, Note_off_c, 2, 74, 127
2, 199669, Note_on_c, 3, 75, 127
2, 199840, Note_off_c, 3, 75, 127
2, 199844, Note_on_c, 5, 77, 127
2, 200015, Note_off_c, 5, 77, 127
2, 200018, Note_on_c, 2, 74, 127
2, 200188, Note_off_c, 7, 55, 127
2, 200190, Note_on_c, 5, 53, 127
2, 200361, Note_off_c, 5, 53, 127
2, 200363, Note_off_c, 2, 74, 127
2, 200365, Note_on_c, 7, 55, 127
2, 200365, Note_on_c, 7, 79, 127
2, 200536, Note_off_c, 7, 55, 127
2, 200539, Note_on_c, 8, 56, 127
2, 200706, Note_off_c, 0, 72, 127
2, 200710, Note_off_c, 8, 56, 127
2, 200712, Note_on_c, 7, 55, 127
2, 200712, Note_on_c, 11, 70, 127
2, 200883, Note_off_c, 7, 55, 127
2, 200886, Note_on_c, 5, 53, 127
2, 201057, Note_off_c, 5, 53, 127
2, 201058, Note_off_c, 7, 79, 127
2, 201060, Note_on_c, 4, 52, 127
2, 201060, Note_on_c, 5, 77, 127
2, 201231, Note_off_c, 4, 52, 127
2, 201234, Note_on_c, 2, 50, 127
2, 201405, Note_off_c, 2, 50, 127
2, 201405, Note_off_c, 5, 77, 127
2, 201407, Note_on_c, 0, 48, 127
2, 201407, Note_on_c, 4, 76, 127
2, 201752, Note_off_c, 4, 76, 127
2, 201756, Note_on_c, 0, 72, 127
2, 202096, Note_off_c, 11, 70, 127
2, 202101, Note_off_c, 0, 72, 127
2, 202102, Note_on_c, 5, 77, 127
2, 202102, Note_on_c, 8, 68, 127
2, 202273, Note_off_c, 8, 68, 127
2, 202276, Note_on_c, 7, 67, 127
2, 202447, Note_off_c, 7, 67, 127
2, 202451, Note_on_c, 8, 68, 127
2, 202622, Note_off_c, 8, 68, 127
2, 202625, Note_on_c, 11, 70, 127
2, 202796, Note_off_c, 11, 70, 127
2, 202797, Note_on_c, 7, 67, 127
2, 202968, Note_off_c, 0, 48, 127
2, 202971, Note_on_c, 11, 46, 127
2, 203142, Note_off_c, 11, 46, 127
2, 203142, Note_off_c, 7, 67, 127
2, 203146, Note_on_c, 0, 48, 127
2, 203146, Note_on_c, 0, 72, 127
2, 203317, Note_off_c, 0, 48, 127
2, 203319, Note_on_c, 2, 50, 127
2, 203486, Note_off_c, 5, 77, 127
2, 203490, Note_off_c, 2, 50, 127
2, 203493, Note_on_c, 0, 48, 127
2, 203493, Note_on_c, 3, 75, 127
2, 203664, Note_off_c, 0, 48, 127
2, 203667, Note_on_c, 11, 46, 127
2, 203838, Note_off_c, 11, 46, 127
2, 203839, Note_off_c, 0, 72, 127
2, 203841, Note_on_c, 10, 45, 127
2, 203841, Note_on_c, 11, 70, 127
2, 204012, Note_off_c, 10, 45, 127
2, 204014, Note_on_c, 7, 43, 127
2, 204185, Note_off_c, 7, 43, 127
2, 204186, Note_off_c, 11, 70, 127
2, 204188, Note_on_c, 5, 41, 127
2, 204188, Note_on_c, 10, 69, 127
2, 204533, Note_off_c, 10, 69, 127
2, 204536, Note_on_c, 5, 65, 127
2, 204877, Note_off_c, 3, 75, 127
2, 204881, Note_off_c, 5, 65, 127
2, 204883, Note_on_c, 11, 70, 127
2, 204883, Note_on_c, 2, 74, 127
2, 205054, Note_off_c, 2, 74, 127
2, 205058, Note_on_c, 0, 72, 127
2, 205229, Note_off_c, 0, 72, 127
2, 205232, Note_on_c, 2, 74, 127
2, 205403, Note_off_c, 2, 74, 127
2, 205404, Note_on_c, 3, 75, 127
2, 205575, Note_off_c, 3, 75, 127
2, 205578, Note_on_c, 0, 72, 127
2, 205749, Note_off_c, 5, 41, 127
2, 205753, Note_on_c, 3, 51, 127
2, 205923, Note_off_c, 0, 72, 127
2, 205924, Note_off_c, 3, 51, 127
2, 205926, Note_on_c, 5, 53, 127
2, 205926, Note_on_c, 5, 77, 127
2, 206097, Note_off_c, 5, 53, 127
2, 206100, Note_on_c, 7, 55, 127
2, 206267, Note_off_c, 11, 70, 127
2, 206271, Note_off_c, 7, 55, 127
2, 206273, Note_on_c, 5, 53, 127
2, 206273, Note_on_c, 8, 68, 127
2, 206444, Note_off_c, 5, 53, 127
2, 206448, Note_on_c, 3, 51, 127
2, 206619, Note_off_c, 3, 51, 127
2, 206619, Note_off_c, 5, 77, 127
2, 206621, Note_on_c, 2, 50, 127
2, 206621, Note_on_c, 3, 75, 127
2, 206792, Note_off_c, 2, 50, 127
2, 206795, Note_on_c, 0, 48, 127
2, 206966, Note_off_c, 0, 48, 127
2, 206966, Note_off_c, 3, 75, 127
2, 206969, Note_on_c, 11, 46, 127
2, 206969, Note_on_c, 2, 74, 127
2, 207314, Note_off_c, 2, 74, 127
2, 207316, Note_on_c, 11, 70, 127
2, 207657, Note_off_c, 8, 68, 127
2, 207661, Note_off_c, 11, 70, 127
2, 207665, Note_on_c, 3, 75, 127
2, 207665, Note_on_c, 7, 67, 127
2, 207836, Note_off_c, 7, 67, 127
2, 207839, Note_on_c, 5, 65, 127
2, 208010, Note_off_c, 5, 65, 127
2, 208011, Note_on_c, 7, 67, 127
2, 208182, Note_off_c, 7, 67, 127
2, 208185, Note_on_c, 8, 68, 127
2, 208356, Note_off_c, 8, 68, 127
2, 208360, Note_on_c, 5, 65, 127
2, 208530, Note_off_c, 11, 46, 127
2, 208534, Note_on_c, 8, 56, 127
2, 208705, Note_off_c, 8, 56, 127
2, 208705, Note_off_c, 5, 65, 127
2, 208707, Note_on_c, 11, 58, 127
2, 208707, Note_on_c, 11, 70, 127
2, 208878, Note_off_c, 11, 58, 127
2, 208880, Note_on_c, 0, 60, 127
2, 209049, Note_off_c, 3, 75, 127
2, 209051, Note_off_c, 0, 60, 127
2, 209055, Note_on_c, 11, 58, 127
2, 209055, Note_on_c, 1, 73, 127
2, 209228, Note_on_c, 8, 56, 127
2, 209398, Note_off_c, 11, 58, 127
2, 209400, Note_off_c, 8, 56, 127
2, 209401, Note_off_c, 11, 70, 127
2, 209403, Note_on_c, 7, 55, 127
2, 209403, Note_on_c, 8, 68, 127
2, 209574, Note_off_c, 7, 55, 127
2, 209577, Note_on_c, 5, 53, 127
2, 209748, Note_off_c, 5, 53, 127
2, 209748, Note_off_c, 8, 68, 127
2, 209752, Note_on_c, 7, 55, 127
2, 209752, Note_on_c, 3, 63, 127
2, 209752, Note_on_c, 11, 70, 127
2, 210096, Note_off_c, 1, 73, 127
2, 210098, Note_off_c, 11, 70, 127
2, 210098, Note_off_c, 7, 55, 127
2, 210100, Note_on_c, 8, 56, 127
2, 210100, Note_on_c, 8, 68, 127
2, 210100, Note_on_c, 0, 72, 127
2, 210445, Note_off_c, 0, 72, 127
2, 210445, Note_off_c, 8, 56, 127
2, 210448, Note_on_c, 2, 50, 127
2, 210448, Note_on_c, 11, 70, 127
2, 210621, Note_off_c, 3, 63, 127
2, 210793, Note_off_c, 2, 50, 127
2, 210793, Note_off_c, 8, 68, 127
2, 210795, Note_on_c, 4, 52, 127
2, 210795, Note_on_c, 1, 61, 127
2, 210795, Note_on_c, 7, 67, 127
2, 211140, Note_off_c, 1, 61, 127
2, 211140, Note_off_c, 4, 52, 127
2, 211141, Note_off_c, 11, 70, 127
2, 211143, Note_on_c, 5, 53, 127
2, 211143, Note_on_c, 0, 60, 127
2, 211143, Note_on_c, 8, 68, 127
2, 211484, Note_off_c, 0, 60, 127
2, 211488, Note_off_c, 7, 67, 127
2, 211491, Note_on_c, 5, 65, 127
2, 211665, Note_on_c, 7, 67, 127
2, 211836, Note_off_c, 7, 67, 127
2, 211836, Note_off_c, 8, 68, 127
2, 211838, Note_on_c, 8, 68, 127
2, 212009, Note_off_c, 5, 53, 127
2, 212012, Note_on_c, 3, 51, 127
2, 212183, Note_off_c, 3, 51, 127
2, 212184, Note_off_c, 5, 65, 127
2, 212186, Note_on_c, 1, 49, 127
2, 212186, Note_on_c, 3, 63, 127
2, 212357, Note_off_c, 1, 49, 127
2, 212361, Note_on_c, 0, 48, 127
2, 212531, Note_off_c, 3, 63, 127
2, 212532, Note_off_c, 0, 48, 127
2, 212533, Note_on_c, 11, 46, 127
2, 212533, Note_on_c, 1, 61, 127
2, 212878, Note_off_c, 8, 68, 127
2, 212879, Note_off_c, 1, 61, 127
2, 212883, Note_on_c, 1, 61, 127
2, 212883, Note_on_c, 5, 65, 127
2, 213054, Note_off_c, 1, 61, 127
2, 213056, Note_on_c, 0, 60, 127
2, 213226, Note_off_c, 5, 65, 127
2, 213228, Note_off_c, 0, 60, 127
2, 213232, Note_on_c, 1, 61, 127
2, 213232, Note_on_c, 11, 70, 127
2, 213402, Note_off_c, 11, 46, 127
2, 213406, Note_on_c, 11, 46, 127
2, 213577, Note_off_c, 11, 46, 127
2, 213577, Note_off_c, 11, 70, 127
2, 213577, Note_off_c, 1, 61, 127
2, 213579, Note_on_c, 0, 48, 127
2, 213579, Note_on_c, 5, 65, 127
2, 213579, Note_on_c, 8, 68, 127
2, 213750, Note_off_c, 0, 48, 127
2, 213753, Note_on_c, 1, 49, 127
2, 213924, Note_off_c, 1, 49, 127
2, 213924, Note_off_c, 8, 68, 127
2, 213924, Note_off_c, 5, 65, 127
2, 213927, Note_on_c, 3, 51, 127
2, 213927, Note_on_c, 11, 58, 127
2, 213927, Note_on_c, 7, 67, 127
2, 214272, Note_off_c, 7, 67, 127
2, 214272, Note_off_c, 11, 58, 127
2, 214275, Note_on_c, 3, 63, 127
2, 214275, Note_on_c, 7, 67, 127
2, 214446, Note_off_c, 7, 67, 127
2, 214448, Note_on_c, 5, 65, 127
2, 214619, Note_off_c, 5, 65, 127
2, 214622, Note_on_c, 7, 67, 127
2, 214793, Note_off_c, 3, 51, 127
2, 214796, Note_on_c, 3, 39, 127
2, 214967, Note_off_c, 3, 39, 127
2, 214967, Note_off_c, 7, 67, 127
2, 214968, Note_off_c, 3, 63, 127
2, 214969, Note_on_c, 5, 41, 127
2, 214969, Note_on_c, 1, 61, 127
2, 214969, Note_on_c, 11, 70, 127
2, 215140, Note_off_c, 5, 41, 127
2, 215144, Note_on_c, 7, 43, 127
2, 215314, Note_off_c, 11, 70, 127
2, 215314, Note_off_c, 1, 61, 127
2, 215315, Note_off_c, 7, 43, 127
2, 215317, Note_on_c, 8, 44, 127
2, 215317, Note_on_c, 3, 63, 127
2, 215317, Note_on_c, 0, 60, 127
2, 215488, Note_off_c, 8, 44, 127
2, 215491, Note_on_c, 11, 46, 127
2, 215662, Note_off_c, 11, 46, 127
2, 215662, Note_off_c, 0, 60, 127
2, 215662, Note_off_c, 3, 63, 127
2, 215665, Note_on_c, 0, 48, 127
2, 215665, Note_on_c, 0, 60, 127
2, 215665, Note_on_c, 8, 68, 127
2, 215836, Note_off_c, 0, 60, 127
2, 215836, Note_off_c, 0, 48, 127
2, 215839, Note_on_c, 1, 49, 127
2, 215839, Note_on_c, 11, 58, 127
2, 216010, Note_off_c, 11, 58, 127
2, 216010, Note_off_c, 1, 49, 127
2, 216013, Note_on_c, 3, 51, 127
2, 216013, Note_on_c, 0, 60, 127
2, 216358, Note_off_c, 0, 60, 127
2, 216358, Note_off_c, 8, 68, 127
2, 216360, Note_on_c, 7, 67, 127
2, 216360, Note_on_c, 3, 63, 127
2, 216705, Note_off_c, 3, 63, 127
2, 216705, Note_off_c, 7, 67, 127
2, 216708, Note_on_c, 8, 56, 127
2, 216708, Note_on_c, 11, 70, 127
2, 216708, Note_on_c, 5, 65, 127
2, 217053, Note_off_c, 5, 65, 127
2, 217053, Note_off_c, 8, 56, 127
2, 217055, Note_on_c, 8, 56, 127
2, 217055, Note_on_c, 5, 65, 127
2, 217226, Note_off_c, 5, 65, 127
2, 217226, Note_off_c, 8, 56, 127
2, 217229, Note_on_c, 7, 55, 127
2, 217229, Note_on_c, 3, 63, 127
2, 217397, Note_off_c, 3, 51, 127
2, 217400, Note_off_c, 3, 63, 127
2, 217400, Note_off_c, 7, 55, 127
2, 217403, Note_on_c, 2, 50, 127
2, 217403, Note_on_c, 8, 56, 127
2, 217403, Note_on_c, 5, 65, 127
2, 217748, Note_off_c, 5, 65, 127
2, 217748, Note_off_c, 8, 56, 127
2, 217751, Note_on_c, 11, 58, 127
2, 217751, Note_on_c, 7, 67, 127
2, 217922, Note_off_c, 7, 67, 127
2, 217922, Note_off_c, 11, 58, 127
2, 217924, Note_on_c, 8, 56, 127
2, 217924, Note_on_c, 5, 65, 127
2, 218092, Note_off_c, 11, 70, 127
2, 218095, Note_off_c, 5, 65, 127
2, 218095, Note_off_c, 8, 56, 127
2, 218096, Note_off_c, 2, 50, 127
2, 218098, Note_on_c, 7, 55, 127
2, 218098, Note_on_c, 3, 51, 127
2, 218098, Note_on_c, 3, 63, 127
2, 218098, Note_on_c, 3, 75, 127
2, 218443, Note_off_c, 3, 63, 127
2, 218443, Note_off_c, 7, 55, 127
2, 218446, Note_on_c, 11, 58, 127
2, 218446, Note_on_c, 7, 67, 127
2, 218617, Note_off_c, 7, 67, 127
2, 218617, Note_off_c, 11, 58, 127
2, 218620, Note_on_c, 8, 56, 127
2, 218620, Note_on_c, 5, 65, 127
2, 218791, Note_off_c, 5, 65, 127
2, 218791, Note_off_c, 8, 56, 127
2, 218793, Note_on_c, 11, 58, 127
2, 218793, Note_on_c, 7, 67, 127
2, 218966, Note_off_c, 3, 75, 127
2, 219138, Note_off_c, 7, 67, 127
2, 219138, Note_off_c, 11, 58, 127
2, 219141, Note_on_c, 0, 60, 127
2, 219141, Note_on_c, 3, 75, 127
2, 219141, Note_on_c, 10, 69, 127
2, 219312, Note_off_c, 10, 69, 127
2, 219315, Note_on_c, 7, 67, 127
2, 219482, Note_off_c, 3, 75, 127
2, 219482, Note_off_c, 3, 51, 127
2, 219486, Note_off_c, 7, 67, 127
2, 219486, Note_off_c, 0, 60, 127
2, 219489, Note_on_c, 11, 58, 127
2, 219489, Note_on_c, 2, 62, 127
2, 219489, Note_on_c, 2, 74, 127
2, 219489, Note_on_c, 5, 65, 127
2, 219834, Note_off_c, 5, 65, 127
2, 219834, Note_off_c, 2, 74, 127
2, 219834, Note_off_c, 2, 62, 127
2, 219836, Note_on_c, 2, 62, 127
2, 219836, Note_on_c, 11, 70, 127
2, 219836, Note_on_c, 7, 79, 127
2, 220007, Note_off_c, 11, 70, 127
2, 220007, Note_off_c, 2, 62, 127
2, 220010, Note_on_c, 0, 60, 127
2, 220010, Note_on_c, 8, 68, 127
2, 220181, Note_off_c, 8, 68, 127
2, 220181, Note_off_c, 0, 60, 127
2, 220182, Note_off_c, 11, 58, 127
2, 220183, Note_on_c, 2, 62, 127
2, 220183, Note_on_c, 11, 70, 127
2, 220528, Note_off_c, 11, 70, 127
2, 220528, Note_off_c, 2, 62, 127
2, 220529, Note_off_c, 7, 79, 127
2, 220531, Note_on_c, 8, 56, 127
2, 220531, Note_on_c, 5, 77, 127
2, 220531, Note_on_c, 2, 74, 127
2, 220531, Note_on_c, 5, 65, 127
2, 220876, Note_off_c, 5, 65, 127
2, 220876, Note_off_c, 2, 74, 127
2, 220876, Note_off_c, 5, 77, 127
2, 220876, Note_off_c, 8, 56, 127
2, 220878, Note_on_c, 7, 55, 127
2, 220878, Note_on_c, 11, 70, 127
2, 220878, Note_on_c, 3, 75, 127
2, 221223, Note_off_c, 3, 75, 127
2, 221223, Note_off_c, 11, 70, 127
2, 221223, Note_off_c, 7, 55, 127
2, 221227, Note_on_c, 0, 60, 127
2, 221227, Note_on_c, 7, 67, 127
2, 221227, Note_on_c, 0, 72, 127
2, 221227, Note_on_c, 3, 75, 127
2, 221398, Note_off_c, 3, 75, 127
2, 221400, Note_on_c, 2, 74, 127
2, 221570, Note_off_c, 0, 72, 127
2, 221570, Note_off_c, 7, 67, 127
2, 221572, Note_off_c, 2, 74, 127
2, 221575, Note_on_c, 3, 63, 127
2, 221575, Note_on_c, 3, 75, 127
2, 221575, Note_on_c, 7, 67, 127
2, 221920, Note_off_c, 3, 75, 127
2, 221921, Note_off_c, 0, 60, 127
2, 221923, Note_on_c, 11, 58, 127
2, 221923, Note_on_c, 7, 79, 127
2, 222268, Note_off_c, 7, 79, 127
2, 222268, Note_off_c, 11, 58, 127
2, 222268, Note_off_c, 7, 67, 127
2, 222270, Note_on_c, 8, 56, 127
2, 222270, Note_on_c, 8, 68, 127
2, 222270, Note_on_c, 0, 72, 127
2, 222615, Note_off_c, 3, 63, 127
2, 222616, Note_off_c, 0, 72, 127
2, 222616, Note_off_c, 8, 68, 127
2, 222616, Note_off_c, 8, 56, 127
2, 222620, Note_on_c, 8, 56, 127
2, 222620, Note_on_c, 0, 60, 127
2, 222620, Note_on_c, 5, 77, 127
2, 222620, Note_on_c, 8, 68, 127
2, 222791, Note_off_c, 0, 60, 127
2, 222791, Note_off_c, 8, 56, 127
2, 222793, Note_on_c, 7, 55, 127
2, 222793, Note_on_c, 11, 58, 127
2, 222964, Note_off_c, 11, 58, 127
2, 222964, Note_off_c, 7, 55, 127
2, 222968, Note_on_c, 8, 56, 127
2, 222968, Note_on_c, 0, 60, 127
2, 223313, Note_off_c, 0, 60, 127
2, 223313, Note_off_c, 8, 56, 127
2, 223313, Note_off_c, 8, 68, 127
2, 223313, Note_off_c, 5, 77, 127
2, 223315, Note_on_c, 3, 63, 127
2, 223315, Note_on_c, 0, 60, 127
2, 223315, Note_on_c, 7, 67, 127
2, 223315, Note_on_c, 3, 75, 127
2, 223660, Note_off_c, 3, 75, 127
2, 223660, Note_off_c, 7, 67, 127
2, 223660, Note_off_c, 0, 60, 127
2, 223660, Note_off_c, 3, 63, 127
2, 223663, Note_on_c, 5, 53, 127
2, 223663, Note_on_c, 5, 65, 127
2, 223663, Note_on_c, 8, 68, 127
2, 223663, Note_on_c, 2, 74, 127
2, 224008, Note_off_c, 2, 74, 127
2, 224008, Note_off_c, 8, 68, 127
2, 224008, Note_off_c, 5, 65, 127
2, 224008, Note_off_c, 5, 53, 127
2, 224011, Note_on_c, 2, 62, 127
2, 224011, Note_on_c, 11, 58, 127
2, 224011, Note_on_c, 2, 74, 127
2, 224011, Note_on_c, 5, 65, 127
2, 224182, Note_off_c, 2, 74, 127
2, 224183, Note_on_c, 0, 72, 127
2, 224354, Note_off_c, 5, 65, 127
2, 224355, Note_off_c, 0, 72, 127
2, 224357, Note_off_c, 2, 62, 127
2, 224360, Note_on_c, 7, 67, 127
2, 224360, Note_on_c, 2, 74, 127
2, 224360, Note_on_c, 11, 70, 127
2, 224705, Note_off_c, 2, 74, 127
2, 224705, Note_off_c, 7, 67, 127
2, 224705, Note_off_c, 11, 58, 127
2, 224706, Note_on_c, 8, 56, 127
2, 224706, Note_on_c, 2, 62, 127
2, 224706, Note_on_c, 5, 77, 127
2, 225051, Note_off_c, 5, 77, 127
2, 225051, Note_off_c, 2, 62, 127
2, 225051, Note_off_c, 8, 56, 127
2, 225053, Note_off_c, 11, 70, 127
2, 225055, Note_on_c, 7, 55, 127
2, 225055, Note_on_c, 3, 63, 127
2, 225055, Note_on_c, 11, 70, 127
2, 225403, Note_off_c, 3, 63, 127
2, 225403, Note_off_c, 7, 55, 127
2, 225405, Note_on_c, 7, 55, 127
2, 225405, Note_on_c, 3, 75, 127
2, 225577, Note_off_c, 7, 55, 127
2, 225580, Note_on_c, 5, 53, 127
2, 225752, Note_off_c, 5, 53, 127
2, 225753, Note_off_c, 3, 75, 127
2, 225754, Note_off_c, 11, 70, 127
2, 225757, Note_on_c, 7, 55, 127
2, 225757, Note_on_c, 1, 73, 127
2, 226105, Note_off_c, 7, 55, 127
2, 226106, Note_on_c, 11, 58, 127
2, 226106, Note_on_c, 5, 65, 127
2, 226106, Note_on_c, 8, 68, 127
2, 226454, Note_off_c, 8, 68, 127
2, 226454, Note_off_c, 5, 65, 127
2, 226454, Note_off_c, 11, 58, 127
2, 226457, Note_on_c, 3, 51, 127
2, 226457, Note_on_c, 7, 67, 127
2, 226457, Note_on_c, 3, 63, 127
2, 226808, Note_off_c, 3, 51, 127
2, 226808, Note_off_c, 1, 73, 127
2, 226811, Note_on_c, 3, 51, 127
2, 226811, Note_on_c, 0, 72, 127
2, 226985, Note_off_c, 3, 51, 127
2, 226987, Note_on_c, 2, 50, 127
2, 227161, Note_off_c, 2, 50, 127
2, 227161, Note_off_c, 3, 63, 127
2, 227161, Note_off_c, 7, 67, 127
2, 227162, Note_off_c, 0, 72, 127
2, 227165, Note_on_c, 3, 51, 127
2, 227165, Note_on_c, 11, 70, 127
2, 227516, Note_off_c, 3, 51, 127
2, 227518, Note_on_c, 7, 55, 127
2, 227518, Note_on_c, 2, 62, 127
2, 227518, Note_on_c, 5, 65, 127
2, 227869, Note_off_c, 5, 65, 127
2, 227869, Note_off_c, 2, 62, 127
2, 227869, Note_off_c, 7, 55, 127
2, 227872, Note_on_c, 0, 48, 127
2, 227872, Note_on_c, 3, 63, 127
2, 227872, Note_on_c, 0, 60, 127
2, 228228, Note_off_c, 11, 70, 127
2, 228229, Note_off_c, 0, 48, 127
2, 228233, Note_on_c, 2, 50, 127
2, 228233, Note_on_c, 8, 68, 127
2, 228410, Note_off_c, 8, 68, 127
2, 228410, Note_off_c, 2, 50, 127
2, 228412, Note_on_c, 3, 51, 127
2, 228412, Note_on_c, 7, 67, 127
2, 228589, Note_off_c, 7, 67, 127
2, 228589, Note_off_c, 3, 51, 127
2, 228592, Note_on_c, 5, 53, 127
2, 228592, Note_on_c, 8, 68, 127
2, 228948, Note_off_c, 0, 60, 127
2, 228948, Note_off_c, 3, 63, 127
2, 228951, Note_on_c, 8, 56, 127
2, 228951, Note_on_c, 2, 62, 127
2, 229128, Note_off_c, 2, 62, 127
2, 229130, Note_on_c, 0, 60, 127
2, 229307, Note_off_c, 0, 60, 127
2, 229307, Note_off_c, 5, 53, 127
2, 229308, Note_off_c, 8, 56, 127
2, 229310, Note_on_c, 11, 46, 127
2, 229310, Note_on_c, 5, 53, 127
2, 229310, Note_on_c, 2, 62, 127
2, 229674, Note_off_c, 2, 62, 127
2, 229678, Note_on_c, 11, 58, 127
2, 230038, Note_off_c, 8, 68, 127
2, 230042, Note_off_c, 5, 53, 127
2, 230042, Note_off_c, 11, 46, 127
2, 230057, Note_off_c, 11, 58, 127
2, 230060, Note_on_c, 6, 66, 127
2, 230060, Note_on_c, 3, 63, 127
2, 230060, Note_on_c, 10, 45, 127
2, 230454, Note_on_c, 0, 60, 127
2, 230846, Note_off_c, 0, 60, 127
2, 230846, Note_off_c, 10, 45, 127
2, 230846, Note_off_c, 6, 66, 127
2, 230849, Note_on_c, 5, 65, 127
2, 230849, Note_on_c, 5, 53, 127
2, 230849, Note_on_c, 11, 46, 127
2, 231256, Note_off_c, 5, 53, 127
2, 231260, Note_on_c, 5, 53, 127
2, 231462, Note_off_c, 5, 53, 127
2, 231467, Note_on_c, 3, 51, 127
2, 231664, Note_off_c, 3, 63, 127
2, 231669, Note_off_c, 3, 51, 127
2, 231672, Note_on_c, 2, 62, 127
2, 231672, Note_on_c, 5, 53, 127
2, 232142, Note_off_c, 5, 53, 127
2, 232146, Note_on_c, 11, 58, 127
2, 232610, Note_off_c, 11, 46, 127
2, 232627, Note_off_c, 2, 62, 127
2, 232636, Note_off_c, 11, 58, 127
2, 232636, Note_on_c, 3, 39, 127
2, 232636, Note_on_c, 3, 63, 127
2, 232636, Note_on_c, 11, 58, 127
2, 232636, Note_on_c, 7, 55, 127
2, 232638, Note_off_c, 5, 65, 127
2, 235692, Note_off_c, 7, 55, 127
2, 235692, Note_off_c, 11, 58, 127
2, 235692, Note_off_c, 3, 63, 127
2, 235692, Note_off_c, 3, 39, 127
2, 241152, End_track
3, 0, Start_track
3, 0, Title_t, "MIDI"
3, 1536, End_track
0, 0, End_of_file
