0, 0, Header, 1, 4, 240
1, 0, Start_track
1, 0, Time_signature, 9, 3, 36, 8
1, 0, Tempo, 606061
1, 38880, Tempo, 722892
1, 39960, Tempo, 526316
1, 39960, End_track
2, 0, Start_track
2, 0, Title_t, "English Suite 6, 1. Prelude"
2, 0, Program_c, 0, 0
2, 360, Note_on_c, 0, 62, 107
2, 360, Note_on_c, 0, 62, 107
2, 456, Note_off_c, 0, 62, 64
2, 480, Note_on_c, 0, 65, 107
2, 480, Note_on_c, 0, 65, 107
2, 576, Note_off_c, 0, 65, 64
2, 600, Note_on_c, 0, 69, 107
2, 648, Note_off_c, 0, 62, 64
2, 672, Note_off_c, 0, 65, 64
2, 696, Note_off_c, 0, 69, 64
2, 720, Note_on_c, 0, 61, 107
2, 720, Note_on_c, 0, 61, 107
2, 816, Note_off_c, 0, 61, 64
2, 840, Note_on_c, 0, 67, 107
2, 840, Note_on_c, 0, 67, 107
2, 936, Note_off_c, 0, 67, 64
2, 960, Note_on_c, 0, 70, 107
2, 1008, Note_off_c, 0, 61, 64
2, 1032, Note_off_c, 0, 67, 64
2, 1056, Note_off_c, 0, 70, 64
2, 1080, Note_on_c, 0, 62, 107
2, 1080, Note_on_c, 0, 69, 107
2, 1272, Note_off_c, 0, 69, 64
2, 1272, Note_off_c, 0, 62, 64
2, 1320, Note_on_c, 0, 62, 107
2, 1440, Note_on_c, 0, 65, 107
2, 1440, Note_on_c, 0, 65, 107
2, 1536, Note_off_c, 0, 65, 64
2, 1553, Note_off_c, 0, 62, 64
2, 1560, Note_on_c, 0, 69, 107
2, 1560, Note_on_c, 0, 69, 110
2, 1632, Note_off_c, 0, 65, 64
2, 1656, Note_off_c, 0, 69, 64
2, 1680, Note_on_c, 0, 74, 107
2, 1752, Note_off_c, 0, 69, 64
2, 1800, Note_on_c, 0, 64, 107
2, 1896, Note_off_c, 0, 74, 64
2, 1920, Note_on_c, 0, 76, 107
2, 2016, Note_off_c, 0, 76, 64
2, 2040, Note_on_c, 0, 73, 107
2, 2088, Note_off_c, 0, 64, 64
2, 2136, Note_off_c, 0, 73, 64
2, 2160, Note_on_c, 0, 65, 107
2, 2160, Note_on_c, 0, 74, 107
2, 2256, Note_off_c, 0, 74, 64
2, 2280, Note_on_c, 0, 69, 107
2, 2376, Note_off_c, 0, 69, 64
2, 2400, Note_on_c, 0, 72, 107
2, 2448, Note_off_c, 0, 65, 64
2, 2520, Note_on_c, 0, 66, 107
2, 2520, Note_on_c, 0, 66, 107
2, 2616, Note_off_c, 0, 66, 64
2, 2640, Note_on_c, 0, 69, 107
2, 2736, Note_off_c, 0, 69, 64
2, 2760, Note_on_c, 0, 62, 107
2, 2856, Note_off_c, 0, 62, 64
2, 2880, Note_on_c, 0, 62, 107
2, 2880, Note_on_c, 0, 69, 107
2, 3336, Note_off_c, 0, 62, 64
2, 3360, Note_on_c, 0, 62, 107
2, 3432, Note_off_c, 0, 69, 64
2, 3432, Note_off_c, 0, 66, 64
2, 3432, Note_off_c, 0, 72, 64
2, 3456, Note_off_c, 0, 62, 64
2, 3480, Note_on_c, 0, 66, 107
2, 3576, Note_off_c, 0, 66, 64
2, 3600, Note_on_c, 0, 69, 107
2, 3600, Note_on_c, 0, 69, 107
2, 3696, Note_off_c, 0, 69, 64
2, 3720, Note_on_c, 0, 72, 107
2, 3720, Note_on_c, 0, 72, 107
2, 3816, Note_off_c, 0, 72, 64
2, 3840, Note_on_c, 0, 66, 107
2, 3888, Note_off_c, 0, 69, 64
2, 3912, Note_off_c, 0, 72, 64
2, 3936, Note_off_c, 0, 66, 64
2, 3960, Note_on_c, 0, 67, 107
2, 3960, Note_on_c, 0, 67, 107
2, 4056, Note_off_c, 0, 67, 64
2, 4080, Note_on_c, 0, 70, 107
2, 4080, Note_on_c, 0, 70, 107
2, 4176, Note_off_c, 0, 70, 64
2, 4200, Note_on_c, 0, 62, 107
2, 4248, Note_off_c, 0, 67, 64
2, 4272, Note_off_c, 0, 70, 64
2, 4296, Note_off_c, 0, 62, 64
2, 4320, Note_on_c, 0, 64, 107
2, 4320, Note_on_c, 0, 64, 107
2, 4416, Note_off_c, 0, 64, 64
2, 4440, Note_on_c, 0, 67, 107
2, 4440, Note_on_c, 0, 67, 107
2, 4536, Note_off_c, 0, 67, 64
2, 4560, Note_on_c, 0, 62, 107
2, 4608, Note_off_c, 0, 64, 64
2, 4632, Note_off_c, 0, 67, 64
2, 4656, Note_off_c, 0, 62, 64
2, 4680, Note_on_c, 0, 61, 107
2, 4680, Note_on_c, 0, 61, 107
2, 4776, Note_off_c, 0, 61, 64
2, 4800, Note_on_c, 0, 64, 107
2, 4896, Note_off_c, 0, 64, 64
2, 4920, Note_on_c, 0, 67, 107
2, 5016, Note_off_c, 0, 67, 64
2, 5040, Note_on_c, 0, 70, 107
2, 5136, Note_off_c, 0, 70, 64
2, 5160, Note_on_c, 0, 69, 107
2, 5256, Note_off_c, 0, 69, 64
2, 5280, Note_on_c, 0, 67, 107
2, 5328, Note_off_c, 0, 61, 64
2, 5376, Note_off_c, 0, 67, 64
2, 5400, Note_on_c, 0, 65, 107
2, 5496, Note_off_c, 0, 65, 64
2, 5520, Note_on_c, 0, 64, 107
2, 5616, Note_off_c, 0, 64, 64
2, 5640, Note_on_c, 0, 62, 107
2, 5736, Note_off_c, 0, 62, 64
2, 5760, Note_on_c, 0, 77, 107
2, 5784, Note_off_c, 0, 77, 64
2, 5790, Note_on_c, 0, 76, 107
2, 5814, Note_off_c, 0, 76, 64
2, 5820, Note_on_c, 0, 77, 107
2, 6072, Note_off_c, 0, 77, 64
2, 6120, Note_on_c, 0, 77, 107
2, 6408, Note_off_c, 0, 77, 64
2, 6480, Note_on_c, 0, 79, 107
2, 6504, Note_off_c, 0, 79, 64
2, 6510, Note_on_c, 0, 77, 107
2, 6534, Note_off_c, 0, 77, 64
2, 6540, Note_on_c, 0, 79, 107
2, 6564, Note_off_c, 0, 79, 64
2, 6570, Note_on_c, 0, 77, 107
2, 6594, Note_off_c, 0, 77, 64
2, 6600, Note_on_c, 0, 79, 107
2, 6624, Note_off_c, 0, 79, 64
2, 6630, Note_on_c, 0, 77, 107
2, 6654, Note_off_c, 0, 77, 64
2, 6660, Note_on_c, 0, 79, 107
2, 6684, Note_off_c, 0, 79, 64
2, 6690, Note_on_c, 0, 77, 107
2, 6714, Note_off_c, 0, 77, 64
2, 6720, Note_on_c, 0, 79, 107
2, 6744, Note_off_c, 0, 79, 64
2, 6750, Note_on_c, 0, 77, 107
2, 6774, Note_off_c, 0, 77, 64
2, 6780, Note_on_c, 0, 79, 107
2, 6804, Note_off_c, 0, 79, 64
2, 6810, Note_on_c, 0, 77, 107
2, 6834, Note_off_c, 0, 77, 64
2, 6840, Note_on_c, 0, 79, 107
2, 6864, Note_off_c, 0, 79, 64
2, 6870, Note_on_c, 0, 77, 107
2, 6894, Note_off_c, 0, 77, 64
2, 6900, Note_on_c, 0, 79, 107
2, 6924, Note_off_c, 0, 79, 64
2, 6930, Note_on_c, 0, 77, 107
2, 6954, Note_off_c, 0, 77, 64
2, 6960, Note_on_c, 0, 79, 107
2, 6984, Note_off_c, 0, 79, 64
2, 6990, Note_on_c, 0, 77, 107
2, 7014, Note_off_c, 0, 77, 64
2, 7020, Note_on_c, 0, 79, 107
2, 7044, Note_off_c, 0, 79, 64
2, 7050, Note_on_c, 0, 77, 107
2, 7074, Note_off_c, 0, 77, 64
2, 7080, Note_on_c, 0, 79, 107
2, 7104, Note_off_c, 0, 79, 64
2, 7110, Note_on_c, 0, 77, 107
2, 7134, Note_off_c, 0, 77, 64
2, 7140, Note_on_c, 0, 79, 107
2, 7164, Note_off_c, 0, 79, 64
2, 7170, Note_on_c, 0, 77, 107
2, 7194, Note_off_c, 0, 77, 64
2, 7200, Note_on_c, 0, 79, 107
2, 7224, Note_off_c, 0, 79, 64
2, 7230, Note_on_c, 0, 77, 107
2, 7254, Note_off_c, 0, 77, 64
2, 7260, Note_on_c, 0, 79, 107
2, 7284, Note_off_c, 0, 79, 64
2, 7290, Note_on_c, 0, 77, 107
2, 7314, Note_off_c, 0, 77, 64
2, 7320, Note_on_c, 0, 79, 107
2, 7344, Note_off_c, 0, 79, 64
2, 7350, Note_on_c, 0, 77, 107
2, 7374, Note_off_c, 0, 77, 64
2, 7380, Note_on_c, 0, 79, 107
2, 7404, Note_off_c, 0, 79, 64
2, 7410, Note_on_c, 0, 77, 107
2, 7434, Note_off_c, 0, 77, 64
2, 7440, Note_on_c, 0, 79, 107
2, 7464, Note_off_c, 0, 79, 64
2, 7470, Note_on_c, 0, 77, 107
2, 7494, Note_off_c, 0, 77, 64
2, 7500, Note_on_c, 0, 79, 107
2, 7524, Note_off_c, 0, 79, 64
2, 7530, Note_on_c, 0, 77, 107
2, 7554, Note_off_c, 0, 77, 64
2, 7560, Note_on_c, 0, 79, 107
2, 7584, Note_off_c, 0, 79, 64
2, 7590, Note_on_c, 0, 77, 107
2, 7614, Note_off_c, 0, 77, 64
2, 7620, Note_on_c, 0, 79, 107
2, 7644, Note_off_c, 0, 79, 64
2, 7650, Note_on_c, 0, 77, 107
2, 7674, Note_off_c, 0, 77, 64
2, 7680, Note_on_c, 0, 79, 107
2, 7704, Note_off_c, 0, 79, 64
2, 7710, Note_on_c, 0, 77, 107
2, 7734, Note_off_c, 0, 77, 64
2, 7740, Note_on_c, 0, 79, 107
2, 7764, Note_off_c, 0, 79, 64
2, 7770, Note_on_c, 0, 77, 107
2, 7794, Note_off_c, 0, 77, 64
2, 7800, Note_on_c, 0, 79, 107
2, 7824, Note_off_c, 0, 79, 64
2, 7830, Note_on_c, 0, 77, 107
2, 7854, Note_off_c, 0, 77, 64
2, 7860, Note_on_c, 0, 79, 107
2, 7884, Note_off_c, 0, 79, 64
2, 7890, Note_on_c, 0, 77, 107
2, 7914, Note_off_c, 0, 77, 64
2, 7920, Note_on_c, 0, 79, 107
2, 7944, Note_off_c, 0, 79, 64
2, 7950, Note_on_c, 0, 77, 107
2, 7974, Note_off_c, 0, 77, 64
2, 7980, Note_on_c, 0, 79, 107
2, 8004, Note_off_c, 0, 79, 64
2, 8010, Note_on_c, 0, 77, 107
2, 8034, Note_off_c, 0, 77, 64
2, 8040, Note_on_c, 0, 79, 107
2, 8064, Note_off_c, 0, 79, 64
2, 8070, Note_on_c, 0, 77, 107
2, 8094, Note_off_c, 0, 77, 64
2, 8100, Note_on_c, 0, 79, 107
2, 8124, Note_off_c, 0, 79, 64
2, 8130, Note_on_c, 0, 77, 107
2, 8154, Note_off_c, 0, 77, 64
2, 8160, Note_on_c, 0, 79, 107
2, 8184, Note_off_c, 0, 79, 64
2, 8190, Note_on_c, 0, 77, 107
2, 8214, Note_off_c, 0, 77, 64
2, 8220, Note_on_c, 0, 79, 107
2, 8244, Note_off_c, 0, 79, 64
2, 8250, Note_on_c, 0, 77, 107
2, 8274, Note_off_c, 0, 77, 64
2, 8280, Note_on_c, 0, 79, 107
2, 8304, Note_off_c, 0, 79, 64
2, 8310, Note_on_c, 0, 77, 107
2, 8334, Note_off_c, 0, 77, 64
2, 8340, Note_on_c, 0, 79, 107
2, 8364, Note_off_c, 0, 79, 64
2, 8370, Note_on_c, 0, 77, 107
2, 8394, Note_off_c, 0, 77, 64
2, 8400, Note_on_c, 0, 79, 107
2, 8424, Note_off_c, 0, 79, 64
2, 8430, Note_on_c, 0, 77, 107
2, 8454, Note_off_c, 0, 77, 64
2, 8460, Note_on_c, 0, 79, 107
2, 8484, Note_off_c, 0, 79, 64
2, 8490, Note_on_c, 0, 77, 107
2, 8514, Note_off_c, 0, 77, 64
2, 8520, Note_on_c, 0, 79, 107
2, 8544, Note_off_c, 0, 79, 64
2, 8550, Note_on_c, 0, 77, 107
2, 8574, Note_off_c, 0, 77, 64
2, 8580, Note_on_c, 0, 79, 107
2, 8604, Note_off_c, 0, 79, 64
2, 8610, Note_on_c, 0, 77, 107
2, 8736, Note_off_c, 0, 77, 64
2, 8760, Note_on_c, 0, 76, 107
2, 8856, Note_off_c, 0, 76, 64
2, 8880, Note_on_c, 0, 74, 107
2, 8976, Note_off_c, 0, 74, 64
2, 9000, Note_on_c, 0, 76, 107
2, 9096, Note_off_c, 0, 76, 64
2, 9120, Note_on_c, 0, 81, 107
2, 9216, Note_off_c, 0, 81, 64
2, 9240, Note_on_c, 0, 80, 107
2, 9336, Note_off_c, 0, 80, 64
2, 9360, Note_on_c, 0, 81, 107
2, 9456, Note_off_c, 0, 81, 64
2, 9480, Note_on_c, 0, 83, 107
2, 9576, Note_off_c, 0, 83, 64
2, 9600, Note_on_c, 0, 84, 107
2, 9696, Note_off_c, 0, 84, 64
2, 9720, Note_on_c, 0, 74, 107
2, 9816, Note_off_c, 0, 74, 64
2, 9840, Note_on_c, 0, 76, 107
2, 9936, Note_off_c, 0, 76, 64
2, 9960, Note_on_c, 0, 77, 107
2, 10176, Note_off_c, 0, 77, 64
2, 10200, Note_on_c, 0, 76, 107
2, 10296, Note_off_c, 0, 76, 64
2, 10320, Note_on_c, 0, 74, 107
2, 10416, Note_off_c, 0, 74, 64
2, 10440, Note_on_c, 0, 72, 107
2, 10536, Note_off_c, 0, 72, 64
2, 10560, Note_on_c, 0, 74, 107
2, 10656, Note_off_c, 0, 74, 64
2, 10680, Note_on_c, 0, 71, 107
2, 10776, Note_off_c, 0, 71, 64
2, 10800, Note_on_c, 0, 72, 107
2, 10920, Note_on_c, 0, 69, 107
2, 11016, Note_off_c, 0, 69, 64
2, 11040, Note_on_c, 0, 64, 107
2, 11136, Note_off_c, 0, 64, 64
2, 12336, Note_off_c, 0, 72, 64
2, 12360, Note_on_c, 0, 71, 107
2, 12456, Note_off_c, 0, 71, 64
2, 12480, Note_on_c, 0, 69, 107
2, 12576, Note_off_c, 0, 69, 64
2, 12600, Note_on_c, 0, 74, 107
2, 12696, Note_off_c, 0, 74, 64
2, 12720, Note_on_c, 0, 76, 107
2, 12816, Note_off_c, 0, 76, 64
2, 12840, Note_on_c, 0, 77, 107
2, 12936, Note_off_c, 0, 77, 64
2, 12960, Note_on_c, 0, 68, 107
2, 12960, Note_on_c, 0, 68, 107
2, 13056, Note_off_c, 0, 68, 64
2, 13056, Note_off_c, 0, 68, 64
2, 13080, Note_on_c, 0, 71, 107
2, 13080, Note_on_c, 0, 71, 107
2, 13176, Note_off_c, 0, 71, 64
2, 13200, Note_on_c, 0, 64, 107
2, 13296, Note_off_c, 0, 64, 64
2, 13320, Note_on_c, 0, 65, 107
2, 13416, Note_off_c, 0, 65, 64
2, 13440, Note_on_c, 0, 64, 107
2, 14136, Note_off_c, 0, 64, 64
2, 14160, Note_on_c, 0, 64, 107
2, 14232, Note_off_c, 0, 71, 64
2, 14280, Note_on_c, 0, 68, 107
2, 14376, Note_off_c, 0, 68, 64
2, 14400, Note_on_c, 0, 69, 107
2, 14496, Note_off_c, 0, 69, 64
2, 14520, Note_on_c, 0, 71, 107
2, 14616, Note_off_c, 0, 71, 64
2, 14640, Note_on_c, 0, 72, 107
2, 14688, Note_off_c, 0, 64, 64
2, 14736, Note_off_c, 0, 72, 64
2, 14760, Note_on_c, 0, 64, 107
2, 14760, Note_on_c, 0, 64, 107
2, 14856, Note_off_c, 0, 64, 64
2, 14880, Note_on_c, 0, 69, 107
2, 14976, Note_off_c, 0, 69, 64
2, 15000, Note_on_c, 0, 68, 107
2, 15096, Note_off_c, 0, 68, 64
2, 15120, Note_on_c, 0, 69, 107
2, 15408, Note_off_c, 0, 64, 64
2, 15408, Note_off_c, 0, 69, 64
2, 15840, Note_on_c, 0, 64, 107
2, 15936, Note_off_c, 0, 64, 64
2, 15960, Note_on_c, 0, 69, 107
2, 16056, Note_off_c, 0, 69, 64
2, 16080, Note_on_c, 0, 72, 107
2, 16176, Note_off_c, 0, 72, 64
2, 16200, Note_on_c, 0, 76, 107
2, 16296, Note_off_c, 0, 76, 64
2, 16320, Note_on_c, 0, 69, 107
2, 16416, Note_off_c, 0, 69, 64
2, 16440, Note_on_c, 0, 72, 107
2, 16536, Note_off_c, 0, 72, 64
2, 16560, Note_on_c, 0, 76, 107
2, 16656, Note_off_c, 0, 76, 64
2, 16680, Note_on_c, 0, 81, 107
2, 16776, Note_off_c, 0, 81, 64
2, 16800, Note_on_c, 0, 76, 107
2, 16896, Note_off_c, 0, 76, 64
2, 16920, Note_on_c, 0, 72, 107
2, 17016, Note_off_c, 0, 72, 64
2, 17040, Note_on_c, 0, 76, 107
2, 17136, Note_off_c, 0, 76, 64
2, 17160, Note_on_c, 0, 72, 107
2, 17256, Note_off_c, 0, 72, 64
2, 17280, Note_on_c, 0, 69, 107
2, 17376, Note_off_c, 0, 69, 64
2, 17400, Note_on_c, 0, 72, 107
2, 17448, Note_off_c, 0, 72, 64
2, 17460, Note_on_c, 0, 71, 107
2, 17508, Note_off_c, 0, 71, 64
2, 17520, Note_on_c, 0, 69, 107
2, 17568, Note_off_c, 0, 69, 64
2, 17580, Note_on_c, 0, 68, 107
2, 17628, Note_off_c, 0, 68, 64
2, 17640, Note_on_c, 0, 69, 107
2, 17736, Note_off_c, 0, 69, 64
2, 17760, Note_on_c, 0, 72, 107
2, 17856, Note_off_c, 0, 72, 64
2, 17880, Note_on_c, 0, 69, 107
2, 17976, Note_off_c, 0, 69, 64
2, 18000, Note_on_c, 0, 64, 107
2, 18096, Note_off_c, 0, 64, 64
2, 18120, Note_on_c, 0, 69, 107
2, 18216, Note_off_c, 0, 69, 64
2, 18240, Note_on_c, 0, 64, 107
2, 18336, Note_off_c, 0, 64, 64
2, 18360, Note_on_c, 0, 60, 107
2, 18456, Note_off_c, 0, 60, 64
2, 18480, Note_on_c, 0, 64, 107
2, 18576, Note_off_c, 0, 64, 64
2, 18600, Note_on_c, 0, 60, 107
2, 18696, Note_off_c, 0, 60, 64
2, 19800, Note_on_c, 0, 57, 107
2, 19800, Note_on_c, 0, 57, 107
2, 19896, Note_off_c, 0, 57, 64
2, 19920, Note_on_c, 0, 60, 107
2, 19920, Note_on_c, 0, 60, 107
2, 20016, Note_off_c, 0, 60, 64
2, 20040, Note_on_c, 0, 64, 107
2, 20088, Note_off_c, 0, 57, 64
2, 20112, Note_off_c, 0, 60, 64
2, 20136, Note_off_c, 0, 64, 64
2, 20160, Note_on_c, 0, 56, 107
2, 20160, Note_on_c, 0, 56, 107
2, 20256, Note_off_c, 0, 56, 64
2, 20280, Note_on_c, 0, 62, 107
2, 20280, Note_on_c, 0, 62, 107
2, 20376, Note_off_c, 0, 62, 64
2, 20400, Note_on_c, 0, 65, 107
2, 20448, Note_off_c, 0, 56, 64
2, 20472, Note_off_c, 0, 62, 64
2, 20496, Note_off_c, 0, 65, 64
2, 20520, Note_on_c, 0, 64, 107
2, 20520, Note_on_c, 0, 57, 107
2, 20712, Note_off_c, 0, 57, 64
2, 20712, Note_off_c, 0, 64, 64
2, 20760, Note_on_c, 0, 57, 107
2, 20856, Note_off_c, 0, 57, 64
2, 20880, Note_on_c, 0, 60, 107
2, 20880, Note_on_c, 0, 60, 107
2, 20976, Note_off_c, 0, 60, 64
2, 21000, Note_on_c, 0, 64, 110
2, 21000, Note_on_c, 0, 64, 107
2, 21072, Note_off_c, 0, 60, 64
2, 21096, Note_off_c, 0, 64, 64
2, 21120, Note_on_c, 0, 69, 107
2, 21192, Note_off_c, 0, 64, 64
2, 21240, Note_on_c, 0, 59, 107
2, 21336, Note_off_c, 0, 69, 64
2, 21360, Note_on_c, 0, 71, 107
2, 21456, Note_off_c, 0, 71, 64
2, 21480, Note_on_c, 0, 68, 107
2, 21528, Note_off_c, 0, 59, 64
2, 21576, Note_off_c, 0, 68, 64
2, 21600, Note_on_c, 0, 69, 107
2, 21600, Note_on_c, 0, 60, 107
2, 21696, Note_off_c, 0, 69, 64
2, 21720, Note_on_c, 0, 64, 107
2, 21816, Note_off_c, 0, 64, 64
2, 21840, Note_on_c, 0, 67, 107
2, 21888, Note_off_c, 0, 60, 64
2, 21960, Note_on_c, 0, 61, 107
2, 22080, Note_on_c, 0, 64, 107
2, 22248, Note_off_c, 0, 61, 64
2, 22272, Note_off_c, 0, 64, 64
2, 22320, Note_on_c, 0, 61, 107
2, 22320, Note_on_c, 0, 64, 107
2, 22872, Note_off_c, 0, 67, 64
2, 22872, Note_off_c, 0, 64, 64
2, 22872, Note_off_c, 0, 61, 64
2, 23040, Note_on_c, 0, 64, 107
2, 23040, Note_on_c, 0, 64, 107
2, 23136, Note_off_c, 0, 64, 64
2, 23160, Note_on_c, 0, 67, 107
2, 23160, Note_on_c, 0, 67, 107
2, 23256, Note_off_c, 0, 67, 64
2, 23280, Note_on_c, 0, 61, 107
2, 23328, Note_off_c, 0, 64, 64
2, 23352, Note_off_c, 0, 67, 64
2, 23376, Note_off_c, 0, 61, 64
2, 23400, Note_on_c, 0, 62, 107
2, 23400, Note_on_c, 0, 62, 107
2, 23496, Note_off_c, 0, 62, 64
2, 23520, Note_on_c, 0, 65, 107
2, 23520, Note_on_c, 0, 65, 107
2, 23616, Note_off_c, 0, 65, 64
2, 23640, Note_on_c, 0, 57, 107
2, 23688, Note_off_c, 0, 62, 64
2, 23736, Note_off_c, 0, 57, 64
2, 23760, Note_off_c, 0, 65, 64
2, 23760, Note_on_c, 0, 58, 110
2, 23760, Note_on_c, 0, 58, 107
2, 23856, Note_off_c, 0, 58, 64
2, 23880, Note_on_c, 0, 62, 110
2, 23880, Note_on_c, 0, 62, 107
2, 23952, Note_off_c, 0, 58, 64
2, 23976, Note_off_c, 0, 62, 64
2, 24000, Note_on_c, 0, 57, 107
2, 24072, Note_off_c, 0, 62, 64
2, 24096, Note_off_c, 0, 57, 64
2, 24120, Note_on_c, 0, 56, 110
2, 24120, Note_on_c, 0, 56, 107
2, 24216, Note_off_c, 0, 56, 64
2, 24240, Note_on_c, 0, 59, 107
2, 24240, Note_on_c, 0, 59, 110
2, 24336, Note_off_c, 0, 59, 64
2, 24360, Note_on_c, 0, 62, 107
2, 24432, Note_off_c, 0, 59, 64
2, 24456, Note_off_c, 0, 62, 64
2, 24480, Note_on_c, 0, 65, 107
2, 24576, Note_off_c, 0, 65, 64
2, 24600, Note_on_c, 0, 64, 107
2, 24696, Note_off_c, 0, 64, 64
2, 24720, Note_on_c, 0, 62, 107
2, 24768, Note_off_c, 0, 56, 64
2, 24816, Note_off_c, 0, 62, 64
2, 24840, Note_on_c, 0, 62, 107
2, 24864, Note_off_c, 0, 62, 64
2, 24870, Note_on_c, 0, 60, 107
2, 24894, Note_off_c, 0, 60, 64
2, 24900, Note_on_c, 0, 62, 107
2, 24924, Note_off_c, 0, 62, 64
2, 24930, Note_on_c, 0, 60, 107
2, 24954, Note_off_c, 0, 60, 64
2, 24960, Note_on_c, 0, 59, 107
2, 25056, Note_off_c, 0, 59, 64
2, 25080, Note_on_c, 0, 57, 107
2, 25176, Note_off_c, 0, 57, 64
2, 25200, Note_on_c, 0, 72, 107
2, 25224, Note_off_c, 0, 72, 64
2, 25230, Note_on_c, 0, 71, 107
2, 25254, Note_off_c, 0, 71, 64
2, 25260, Note_on_c, 0, 72, 107
2, 25512, Note_off_c, 0, 72, 64
2, 25560, Note_on_c, 0, 72, 107
2, 25848, Note_off_c, 0, 72, 64
2, 25920, Note_on_c, 0, 74, 107
2, 25944, Note_off_c, 0, 74, 64
2, 25950, Note_on_c, 0, 72, 107
2, 25974, Note_off_c, 0, 72, 64
2, 25980, Note_on_c, 0, 74, 107
2, 26004, Note_off_c, 0, 74, 64
2, 26010, Note_on_c, 0, 72, 107
2, 26034, Note_off_c, 0, 72, 64
2, 26040, Note_on_c, 0, 74, 107
2, 26064, Note_off_c, 0, 74, 64
2, 26070, Note_on_c, 0, 72, 107
2, 26094, Note_off_c, 0, 72, 64
2, 26100, Note_on_c, 0, 74, 107
2, 26124, Note_off_c, 0, 74, 64
2, 26130, Note_on_c, 0, 72, 107
2, 26154, Note_off_c, 0, 72, 64
2, 26160, Note_on_c, 0, 74, 107
2, 26184, Note_off_c, 0, 74, 64
2, 26190, Note_on_c, 0, 72, 107
2, 26214, Note_off_c, 0, 72, 64
2, 26220, Note_on_c, 0, 74, 107
2, 26244, Note_off_c, 0, 74, 64
2, 26250, Note_on_c, 0, 72, 107
2, 26274, Note_off_c, 0, 72, 64
2, 26280, Note_on_c, 0, 74, 107
2, 26304, Note_off_c, 0, 74, 64
2, 26310, Note_on_c, 0, 72, 107
2, 26334, Note_off_c, 0, 72, 64
2, 26340, Note_on_c, 0, 74, 107
2, 26364, Note_off_c, 0, 74, 64
2, 26370, Note_on_c, 0, 72, 107
2, 26394, Note_off_c, 0, 72, 64
2, 26400, Note_on_c, 0, 74, 107
2, 26424, Note_off_c, 0, 74, 64
2, 26430, Note_on_c, 0, 72, 107
2, 26454, Note_off_c, 0, 72, 64
2, 26460, Note_on_c, 0, 74, 107
2, 26484, Note_off_c, 0, 74, 64
2, 26490, Note_on_c, 0, 72, 107
2, 26514, Note_off_c, 0, 72, 64
2, 26520, Note_on_c, 0, 74, 107
2, 26544, Note_off_c, 0, 74, 64
2, 26550, Note_on_c, 0, 72, 107
2, 26574, Note_off_c, 0, 72, 64
2, 26580, Note_on_c, 0, 74, 107
2, 26604, Note_off_c, 0, 74, 64
2, 26610, Note_on_c, 0, 72, 107
2, 26634, Note_off_c, 0, 72, 64
2, 26640, Note_on_c, 0, 74, 107
2, 26664, Note_off_c, 0, 74, 64
2, 26670, Note_on_c, 0, 72, 107
2, 26694, Note_off_c, 0, 72, 64
2, 26700, Note_on_c, 0, 74, 107
2, 26724, Note_off_c, 0, 74, 64
2, 26730, Note_on_c, 0, 72, 107
2, 26754, Note_off_c, 0, 72, 64
2, 26760, Note_on_c, 0, 74, 107
2, 26784, Note_off_c, 0, 74, 64
2, 26790, Note_on_c, 0, 72, 107
2, 26814, Note_off_c, 0, 72, 64
2, 26820, Note_on_c, 0, 74, 107
2, 26844, Note_off_c, 0, 74, 64
2, 26850, Note_on_c, 0, 72, 107
2, 26874, Note_off_c, 0, 72, 64
2, 26880, Note_on_c, 0, 74, 107
2, 26904, Note_off_c, 0, 74, 64
2, 26910, Note_on_c, 0, 72, 107
2, 26934, Note_off_c, 0, 72, 64
2, 26940, Note_on_c, 0, 74, 107
2, 26964, Note_off_c, 0, 74, 64
2, 26970, Note_on_c, 0, 72, 107
2, 27288, Note_off_c, 0, 72, 64
2, 27360, Note_on_c, 0, 69, 107
2, 27360, Note_on_c, 0, 69, 107
2, 27456, Note_off_c, 0, 69, 64
2, 27480, Note_on_c, 0, 72, 107
2, 27576, Note_off_c, 0, 72, 64
2, 27600, Note_on_c, 0, 75, 107
2, 27648, Note_off_c, 0, 69, 64
2, 27696, Note_off_c, 0, 75, 64
2, 27720, Note_on_c, 0, 78, 107
2, 27816, Note_off_c, 0, 78, 64
2, 27840, Note_on_c, 0, 81, 107
2, 27936, Note_off_c, 0, 81, 64
2, 27960, Note_on_c, 0, 72, 107
2, 28056, Note_off_c, 0, 72, 64
2, 28080, Note_on_c, 0, 70, 107
2, 28176, Note_off_c, 0, 70, 64
2, 28200, Note_on_c, 0, 69, 107
2, 28296, Note_off_c, 0, 69, 64
2, 28320, Note_on_c, 0, 67, 107
2, 28416, Note_off_c, 0, 67, 64
2, 28440, Note_on_c, 0, 82, 107
2, 28464, Note_off_c, 0, 82, 64
2, 28470, Note_on_c, 0, 81, 107
2, 28494, Note_off_c, 0, 81, 64
2, 28500, Note_on_c, 0, 82, 107
2, 28752, Note_off_c, 0, 82, 64
2, 28800, Note_on_c, 0, 82, 107
2, 28800, Note_on_c, 0, 64, 107
2, 28848, Note_off_c, 0, 64, 64
2, 28860, Note_on_c, 0, 65, 107
2, 28908, Note_off_c, 0, 65, 64
2, 28920, Note_on_c, 0, 67, 107
2, 28968, Note_off_c, 0, 67, 64
2, 28980, Note_on_c, 0, 64, 107
2, 29028, Note_off_c, 0, 64, 64
2, 29040, Note_on_c, 0, 65, 107
2, 29088, Note_off_c, 0, 65, 64
2, 29088, Note_off_c, 0, 82, 64
2, 29100, Note_on_c, 0, 67, 107
2, 29148, Note_off_c, 0, 67, 64
2, 29160, Note_on_c, 0, 84, 107
2, 29160, Note_on_c, 0, 61, 107
2, 29184, Note_off_c, 0, 84, 64
2, 29190, Note_on_c, 0, 82, 107
2, 29208, Note_off_c, 0, 61, 64
2, 29214, Note_off_c, 0, 82, 64
2, 29220, Note_on_c, 0, 84, 107
2, 29220, Note_on_c, 0, 62, 107
2, 29244, Note_off_c, 0, 84, 64
2, 29250, Note_on_c, 0, 82, 107
2, 29268, Note_off_c, 0, 62, 64
2, 29274, Note_off_c, 0, 82, 64
2, 29280, Note_on_c, 0, 64, 107
2, 29280, Note_on_c, 0, 84, 107
2, 29304, Note_off_c, 0, 84, 64
2, 29310, Note_on_c, 0, 82, 107
2, 29328, Note_off_c, 0, 64, 64
2, 29334, Note_off_c, 0, 82, 64
2, 29340, Note_on_c, 0, 61, 107
2, 29340, Note_on_c, 0, 84, 107
2, 29364, Note_off_c, 0, 84, 64
2, 29370, Note_on_c, 0, 82, 107
2, 29388, Note_off_c, 0, 61, 64
2, 29394, Note_off_c, 0, 82, 64
2, 29400, Note_on_c, 0, 62, 107
2, 29400, Note_on_c, 0, 84, 107
2, 29424, Note_off_c, 0, 84, 64
2, 29430, Note_on_c, 0, 82, 107
2, 29448, Note_off_c, 0, 62, 64
2, 29454, Note_off_c, 0, 82, 64
2, 29460, Note_on_c, 0, 84, 107
2, 29460, Note_on_c, 0, 64, 107
2, 29484, Note_off_c, 0, 84, 64
2, 29490, Note_on_c, 0, 82, 107
2, 29508, Note_off_c, 0, 64, 64
2, 29514, Note_off_c, 0, 82, 64
2, 29520, Note_on_c, 0, 84, 107
2, 29544, Note_off_c, 0, 84, 64
2, 29550, Note_on_c, 0, 82, 107
2, 29574, Note_off_c, 0, 82, 64
2, 29580, Note_on_c, 0, 84, 107
2, 29604, Note_off_c, 0, 84, 64
2, 29610, Note_on_c, 0, 82, 107
2, 29634, Note_off_c, 0, 82, 64
2, 29640, Note_on_c, 0, 84, 107
2, 29664, Note_off_c, 0, 84, 64
2, 29670, Note_on_c, 0, 82, 107
2, 29694, Note_off_c, 0, 82, 64
2, 29700, Note_on_c, 0, 84, 107
2, 29724, Note_off_c, 0, 84, 64
2, 29730, Note_on_c, 0, 82, 107
2, 29754, Note_off_c, 0, 82, 64
2, 29760, Note_on_c, 0, 84, 107
2, 29784, Note_off_c, 0, 84, 64
2, 29790, Note_on_c, 0, 82, 107
2, 29814, Note_off_c, 0, 82, 64
2, 29820, Note_on_c, 0, 84, 107
2, 29844, Note_off_c, 0, 84, 64
2, 29850, Note_on_c, 0, 82, 107
2, 29874, Note_off_c, 0, 82, 64
2, 29880, Note_on_c, 0, 84, 107
2, 29904, Note_off_c, 0, 84, 64
2, 29910, Note_on_c, 0, 82, 107
2, 29934, Note_off_c, 0, 82, 64
2, 29940, Note_on_c, 0, 84, 107
2, 29964, Note_off_c, 0, 84, 64
2, 29970, Note_on_c, 0, 82, 107
2, 29994, Note_off_c, 0, 82, 64
2, 30000, Note_on_c, 0, 84, 107
2, 30024, Note_off_c, 0, 84, 64
2, 30030, Note_on_c, 0, 82, 107
2, 30054, Note_off_c, 0, 82, 64
2, 30060, Note_on_c, 0, 84, 107
2, 30084, Note_off_c, 0, 84, 64
2, 30090, Note_on_c, 0, 82, 107
2, 30114, Note_off_c, 0, 82, 64
2, 30120, Note_on_c, 0, 84, 107
2, 30144, Note_off_c, 0, 84, 64
2, 30150, Note_on_c, 0, 82, 107
2, 30174, Note_off_c, 0, 82, 64
2, 30180, Note_on_c, 0, 84, 107
2, 30204, Note_off_c, 0, 84, 64
2, 30210, Note_on_c, 0, 82, 107
2, 30336, Note_off_c, 0, 82, 64
2, 30360, Note_on_c, 0, 81, 107
2, 30456, Note_off_c, 0, 81, 64
2, 30480, Note_on_c, 0, 79, 107
2, 30576, Note_off_c, 0, 79, 64
2, 30600, Note_on_c, 0, 77, 107
2, 30696, Note_off_c, 0, 77, 64
2, 30720, Note_on_c, 0, 76, 107
2, 30816, Note_off_c, 0, 76, 64
2, 30840, Note_on_c, 0, 74, 107
2, 30936, Note_off_c, 0, 74, 64
2, 30960, Note_on_c, 0, 73, 107
2, 31056, Note_off_c, 0, 73, 64
2, 31080, Note_on_c, 0, 81, 107
2, 31176, Note_off_c, 0, 81, 64
2, 31200, Note_on_c, 0, 79, 107
2, 31296, Note_off_c, 0, 79, 64
2, 31320, Note_on_c, 0, 77, 107
2, 31416, Note_off_c, 0, 77, 64
2, 31440, Note_on_c, 0, 76, 107
2, 31536, Note_off_c, 0, 76, 64
2, 31560, Note_on_c, 0, 74, 107
2, 31656, Note_off_c, 0, 74, 64
2, 31680, Note_on_c, 0, 72, 107
2, 31776, Note_off_c, 0, 72, 64
2, 31800, Note_on_c, 0, 70, 107
2, 31896, Note_off_c, 0, 70, 64
2, 31920, Note_on_c, 0, 69, 107
2, 32016, Note_off_c, 0, 69, 64
2, 32040, Note_on_c, 0, 67, 107
2, 32136, Note_off_c, 0, 67, 64
2, 32160, Note_on_c, 0, 79, 107
2, 32256, Note_off_c, 0, 79, 64
2, 32280, Note_on_c, 0, 77, 107
2, 32376, Note_off_c, 0, 77, 64
2, 32400, Note_on_c, 0, 76, 107
2, 32496, Note_off_c, 0, 76, 64
2, 32520, Note_on_c, 0, 74, 107
2, 32616, Note_off_c, 0, 74, 64
2, 32640, Note_on_c, 0, 72, 107
2, 32736, Note_off_c, 0, 72, 64
2, 32760, Note_on_c, 0, 70, 107
2, 32856, Note_off_c, 0, 70, 64
2, 32880, Note_on_c, 0, 69, 107
2, 32976, Note_off_c, 0, 69, 64
2, 33000, Note_on_c, 0, 67, 107
2, 33096, Note_off_c, 0, 67, 64
2, 33120, Note_on_c, 0, 65, 107
2, 33216, Note_off_c, 0, 65, 64
2, 33240, Note_on_c, 0, 77, 107
2, 33336, Note_off_c, 0, 77, 64
2, 33360, Note_on_c, 0, 76, 107
2, 33456, Note_off_c, 0, 76, 64
2, 33480, Note_on_c, 0, 74, 107
2, 33576, Note_off_c, 0, 74, 64
2, 33600, Note_on_c, 0, 82, 107
2, 33696, Note_off_c, 0, 82, 64
2, 33720, Note_on_c, 0, 81, 107
2, 33816, Note_off_c, 0, 81, 64
2, 33840, Note_on_c, 0, 80, 107
2, 33936, Note_off_c, 0, 80, 64
2, 33960, Note_on_c, 0, 81, 107
2, 34056, Note_off_c, 0, 81, 64
2, 34080, Note_on_c, 0, 76, 107
2, 34176, Note_off_c, 0, 76, 64
2, 34200, Note_on_c, 0, 77, 107
2, 34296, Note_off_c, 0, 77, 64
2, 34320, Note_on_c, 0, 73, 107
2, 34416, Note_off_c, 0, 73, 64
2, 34440, Note_on_c, 0, 74, 107
2, 34536, Note_off_c, 0, 74, 64
2, 34560, Note_on_c, 0, 68, 107
2, 34656, Note_off_c, 0, 68, 64
2, 34680, Note_on_c, 0, 71, 107
2, 34776, Note_off_c, 0, 71, 64
2, 34800, Note_on_c, 0, 74, 107
2, 34896, Note_off_c, 0, 74, 64
2, 34920, Note_on_c, 0, 77, 107
2, 35016, Note_off_c, 0, 77, 64
2, 35040, Note_on_c, 0, 76, 107
2, 35136, Note_off_c, 0, 76, 64
2, 35160, Note_on_c, 0, 74, 107
2, 35256, Note_off_c, 0, 74, 64
2, 35280, Note_on_c, 0, 73, 107
2, 35376, Note_off_c, 0, 73, 64
2, 35400, Note_on_c, 0, 74, 107
2, 35496, Note_off_c, 0, 74, 64
2, 35520, Note_on_c, 0, 71, 107
2, 35616, Note_off_c, 0, 71, 64
2, 35640, Note_on_c, 0, 74, 107
2, 35664, Note_off_c, 0, 74, 64
2, 35670, Note_on_c, 0, 73, 107
2, 35694, Note_off_c, 0, 73, 64
2, 35700, Note_on_c, 0, 74, 107
2, 35724, Note_off_c, 0, 74, 64
2, 35730, Note_on_c, 0, 73, 107
2, 35760, Note_on_c, 0, 70, 107
2, 35856, Note_off_c, 0, 70, 64
2, 35880, Note_on_c, 0, 69, 107
2, 35976, Note_off_c, 0, 69, 64
2, 36000, Note_on_c, 0, 68, 107
2, 36096, Note_off_c, 0, 68, 64
2, 36120, Note_on_c, 0, 69, 107
2, 36216, Note_off_c, 0, 69, 64
2, 36240, Note_on_c, 0, 64, 107
2, 36288, Note_off_c, 0, 73, 64
2, 36336, Note_off_c, 0, 64, 64
2, 36360, Note_on_c, 0, 73, 107
2, 36360, Note_on_c, 0, 65, 107
2, 36384, Note_off_c, 0, 73, 64
2, 36390, Note_on_c, 0, 74, 107
2, 36414, Note_off_c, 0, 74, 64
2, 36420, Note_on_c, 0, 76, 107
2, 36444, Note_off_c, 0, 76, 64
2, 36450, Note_on_c, 0, 74, 107
2, 36456, Note_off_c, 0, 65, 64
2, 36474, Note_off_c, 0, 74, 64
2, 36480, Note_on_c, 0, 61, 107
2, 36480, Note_on_c, 0, 76, 107
2, 36504, Note_off_c, 0, 76, 64
2, 36510, Note_on_c, 0, 74, 107
2, 36534, Note_off_c, 0, 74, 64
2, 36540, Note_on_c, 0, 76, 107
2, 36564, Note_off_c, 0, 76, 64
2, 36570, Note_on_c, 0, 74, 107
2, 36576, Note_off_c, 0, 61, 64
2, 36594, Note_off_c, 0, 74, 64
2, 36600, Note_on_c, 0, 76, 107
2, 36600, Note_on_c, 0, 62, 107
2, 36624, Note_off_c, 0, 76, 64
2, 36630, Note_on_c, 0, 74, 107
2, 36654, Note_off_c, 0, 74, 64
2, 36660, Note_on_c, 0, 76, 107
2, 36684, Note_off_c, 0, 76, 64
2, 36690, Note_on_c, 0, 74, 107
2, 36696, Note_off_c, 0, 62, 64
2, 36768, Note_off_c, 0, 74, 64
2, 36780, Note_on_c, 0, 77, 107
2, 36828, Note_off_c, 0, 77, 64
2, 36840, Note_on_c, 0, 76, 107
2, 36888, Note_off_c, 0, 76, 64
2, 36900, Note_on_c, 0, 74, 107
2, 36948, Note_off_c, 0, 74, 64
2, 36960, Note_on_c, 0, 72, 107
2, 37008, Note_off_c, 0, 72, 64
2, 37020, Note_on_c, 0, 71, 107
2, 37068, Note_off_c, 0, 71, 64
2, 37080, Note_on_c, 0, 81, 107
2, 37104, Note_off_c, 0, 81, 64
2, 37110, Note_on_c, 0, 80, 107
2, 37134, Note_off_c, 0, 80, 64
2, 37140, Note_on_c, 0, 78, 107
2, 37164, Note_off_c, 0, 78, 64
2, 37170, Note_on_c, 0, 80, 107
2, 37194, Note_off_c, 0, 80, 64
2, 37200, Note_on_c, 0, 81, 107
2, 37224, Note_off_c, 0, 81, 64
2, 37230, Note_on_c, 0, 80, 107
2, 37254, Note_off_c, 0, 80, 64
2, 37260, Note_on_c, 0, 81, 107
2, 37284, Note_off_c, 0, 81, 64
2, 37290, Note_on_c, 0, 80, 107
2, 37314, Note_off_c, 0, 80, 64
2, 37320, Note_on_c, 0, 81, 107
2, 37344, Note_off_c, 0, 81, 64
2, 37350, Note_on_c, 0, 80, 107
2, 37374, Note_off_c, 0, 80, 64
2, 37380, Note_on_c, 0, 81, 107
2, 37404, Note_off_c, 0, 81, 64
2, 37410, Note_on_c, 0, 80, 107
2, 37434, Note_off_c, 0, 80, 64
2, 37440, Note_on_c, 0, 81, 107
2, 37464, Note_off_c, 0, 81, 64
2, 37470, Note_on_c, 0, 80, 107
2, 37494, Note_off_c, 0, 80, 64
2, 37500, Note_on_c, 0, 81, 107
2, 37524, Note_off_c, 0, 81, 64
2, 37530, Note_on_c, 0, 80, 107
2, 37554, Note_off_c, 0, 80, 64
2, 37560, Note_on_c, 0, 81, 107
2, 37584, Note_off_c, 0, 81, 64
2, 37590, Note_on_c, 0, 80, 107
2, 37614, Note_off_c, 0, 80, 64
2, 37620, Note_on_c, 0, 81, 107
2, 37644, Note_off_c, 0, 81, 64
2, 37650, Note_on_c, 0, 80, 107
2, 37674, Note_off_c, 0, 80, 64
2, 37680, Note_on_c, 0, 81, 107
2, 37704, Note_off_c, 0, 81, 64
2, 37710, Note_on_c, 0, 80, 107
2, 37734, Note_off_c, 0, 80, 64
2, 37740, Note_on_c, 0, 81, 107
2, 37764, Note_off_c, 0, 81, 64
2, 37770, Note_on_c, 0, 80, 107
2, 37794, Note_off_c, 0, 80, 64
2, 37800, Note_on_c, 0, 81, 107
2, 38088, Note_off_c, 0, 81, 64
2, 38880, Note_on_c, 0, 71, 107
2, 38880, Note_on_c, 0, 65, 107
2, 38880, Note_on_c, 0, 74, 107
2, 38993, Note_off_c, 0, 65, 64
2, 38993, Note_off_c, 0, 71, 64
2, 39072, Note_off_c, 0, 74, 64
2, 39120, Note_on_c, 0, 76, 107
2, 39144, Note_off_c, 0, 76, 64
2, 39150, Note_on_c, 0, 74, 107
2, 39174, Note_off_c, 0, 74, 64
2, 39180, Note_on_c, 0, 73, 107
2, 39204, Note_off_c, 0, 73, 64
2, 39210, Note_on_c, 0, 74, 107
2, 39234, Note_off_c, 0, 74, 64
2, 39240, Note_on_c, 0, 76, 107
2, 39240, Note_on_c, 0, 71, 107
2, 39264, Note_off_c, 0, 76, 64
2, 39270, Note_on_c, 0, 74, 107
2, 39294, Note_off_c, 0, 74, 64
2, 39300, Note_on_c, 0, 76, 107
2, 39324, Note_off_c, 0, 76, 64
2, 39330, Note_on_c, 0, 74, 107
2, 39354, Note_off_c, 0, 74, 64
2, 39360, Note_on_c, 0, 76, 107
2, 39384, Note_off_c, 0, 76, 64
2, 39390, Note_on_c, 0, 74, 107
2, 39414, Note_off_c, 0, 74, 64
2, 39420, Note_on_c, 0, 76, 107
2, 39444, Note_off_c, 0, 76, 64
2, 39450, Note_on_c, 0, 74, 107
2, 39474, Note_off_c, 0, 74, 64
2, 39480, Note_on_c, 0, 76, 107
2, 39504, Note_off_c, 0, 76, 64
2, 39510, Note_on_c, 0, 74, 107
2, 39534, Note_off_c, 0, 74, 64
2, 39540, Note_on_c, 0, 76, 107
2, 39564, Note_off_c, 0, 76, 64
2, 39570, Note_on_c, 0, 74, 107
2, 39594, Note_off_c, 0, 74, 64
2, 39600, Note_on_c, 0, 76, 107
2, 39624, Note_off_c, 0, 76, 64
2, 39630, Note_on_c, 0, 74, 107
2, 39654, Note_off_c, 0, 74, 64
2, 39660, Note_on_c, 0, 76, 107
2, 39684, Note_off_c, 0, 76, 64
2, 39690, Note_on_c, 0, 74, 107
2, 39714, Note_off_c, 0, 74, 64
2, 39720, Note_on_c, 0, 76, 107
2, 39744, Note_off_c, 0, 76, 64
2, 39750, Note_on_c, 0, 74, 107
2, 39774, Note_off_c, 0, 74, 64
2, 39780, Note_on_c, 0, 76, 107
2, 39804, Note_off_c, 0, 76, 64
2, 39810, Note_on_c, 0, 74, 107
2, 39816, Note_off_c, 0, 71, 64
2, 39834, Note_off_c, 0, 74, 64
2, 39840, Note_on_c, 0, 73, 107
2, 39888, Note_off_c, 0, 73, 64
2, 39900, Note_on_c, 0, 74, 107
2, 39948, Note_off_c, 0, 74, 64
2, 39960, Note_on_c, 0, 69, 107
2, 39960, Note_on_c, 0, 73, 107
2, 40056, Note_off_c, 0, 73, 64
2, 40056, Note_off_c, 0, 69, 64
2, 40320, Note_on_c, 0, 65, 107
2, 40410, Note_off_c, 0, 65, 64
2, 40440, Note_on_c, 0, 64, 107
2, 40530, Note_off_c, 0, 64, 64
2, 40560, Note_on_c, 0, 62, 107
2, 40650, Note_off_c, 0, 62, 64
2, 40680, Note_on_c, 0, 64, 107
2, 40770, Note_off_c, 0, 64, 64
2, 40800, Note_on_c, 0, 62, 107
2, 40890, Note_off_c, 0, 62, 64
2, 40920, Note_on_c, 0, 61, 107
2, 41010, Note_off_c, 0, 61, 64
2, 41040, Note_on_c, 0, 62, 107
2, 41592, Note_off_c, 0, 62, 64
2, 41640, Note_on_c, 0, 70, 107
2, 41736, Note_off_c, 0, 70, 64
2, 41760, Note_on_c, 0, 60, 107
2, 41952, Note_off_c, 0, 60, 64
2, 42000, Note_on_c, 0, 69, 107
2, 42096, Note_off_c, 0, 69, 64
2, 42120, Note_on_c, 0, 58, 107
2, 42168, Note_off_c, 0, 58, 64
2, 42180, Note_on_c, 0, 62, 107
2, 42228, Note_off_c, 0, 62, 64
2, 42240, Note_on_c, 0, 64, 107
2, 42288, Note_off_c, 0, 64, 64
2, 42300, Note_on_c, 0, 65, 107
2, 42348, Note_off_c, 0, 65, 64
2, 42360, Note_on_c, 0, 64, 107
2, 42408, Note_off_c, 0, 64, 64
2, 42420, Note_on_c, 0, 62, 107
2, 42468, Note_off_c, 0, 62, 64
2, 42480, Note_on_c, 0, 67, 107
2, 42888, Note_off_c, 0, 67, 64
2, 42900, Note_on_c, 0, 57, 107
2, 42948, Note_off_c, 0, 57, 64
2, 42960, Note_on_c, 0, 59, 107
2, 43008, Note_off_c, 0, 59, 64
2, 43020, Note_on_c, 0, 61, 107
2, 43068, Note_off_c, 0, 61, 64
2, 43080, Note_on_c, 0, 59, 107
2, 43128, Note_off_c, 0, 59, 64
2, 43140, Note_on_c, 0, 57, 107
2, 43188, Note_off_c, 0, 57, 64
2, 43200, Note_on_c, 0, 62, 107
2, 43260, Note_on_c, 0, 69, 107
2, 43308, Note_off_c, 0, 69, 64
2, 43320, Note_on_c, 0, 71, 107
2, 43368, Note_off_c, 0, 71, 64
2, 43380, Note_on_c, 0, 73, 107
2, 43428, Note_off_c, 0, 73, 64
2, 43440, Note_on_c, 0, 74, 107
2, 43488, Note_off_c, 0, 74, 64
2, 43500, Note_on_c, 0, 76, 107
2, 43548, Note_off_c, 0, 76, 64
2, 43560, Note_on_c, 0, 77, 107
2, 43650, Note_off_c, 0, 77, 64
2, 43656, Note_off_c, 0, 62, 64
2, 43680, Note_on_c, 0, 64, 107
2, 43680, Note_on_c, 0, 76, 107
2, 43770, Note_off_c, 0, 76, 64
2, 43776, Note_off_c, 0, 64, 64
2, 43800, Note_on_c, 0, 65, 107
2, 43800, Note_on_c, 0, 74, 107
2, 43890, Note_off_c, 0, 74, 64
2, 43896, Note_off_c, 0, 65, 64
2, 43920, Note_on_c, 0, 76, 107
2, 43920, Note_on_c, 0, 67, 107
2, 44010, Note_off_c, 0, 76, 64
2, 44016, Note_off_c, 0, 67, 64
2, 44040, Note_on_c, 0, 74, 107
2, 44040, Note_on_c, 0, 65, 107
2, 44130, Note_off_c, 0, 74, 64
2, 44136, Note_off_c, 0, 65, 64
2, 44160, Note_on_c, 0, 73, 107
2, 44160, Note_on_c, 0, 64, 107
2, 44250, Note_off_c, 0, 73, 64
2, 44256, Note_off_c, 0, 64, 64
2, 44280, Note_on_c, 0, 74, 107
2, 44328, Note_off_c, 0, 74, 64
2, 44340, Note_on_c, 0, 72, 107
2, 44388, Note_off_c, 0, 72, 64
2, 44400, Note_on_c, 0, 70, 107
2, 44448, Note_off_c, 0, 70, 64
2, 44460, Note_on_c, 0, 69, 107
2, 44508, Note_off_c, 0, 69, 64
2, 44520, Note_on_c, 0, 67, 107
2, 44568, Note_off_c, 0, 67, 64
2, 44580, Note_on_c, 0, 65, 107
2, 44628, Note_off_c, 0, 65, 64
2, 44640, Note_on_c, 0, 64, 107
2, 44688, Note_off_c, 0, 64, 64
2, 44700, Note_on_c, 0, 67, 107
2, 44748, Note_off_c, 0, 67, 64
2, 44760, Note_on_c, 0, 69, 107
2, 44808, Note_off_c, 0, 69, 64
2, 44820, Note_on_c, 0, 70, 107
2, 44868, Note_off_c, 0, 70, 64
2, 44880, Note_on_c, 0, 69, 107
2, 44928, Note_off_c, 0, 69, 64
2, 44940, Note_on_c, 0, 67, 107
2, 44988, Note_off_c, 0, 67, 64
2, 45000, Note_on_c, 0, 72, 107
2, 45048, Note_off_c, 0, 72, 64
2, 45060, Note_on_c, 0, 70, 107
2, 45108, Note_off_c, 0, 70, 64
2, 45120, Note_on_c, 0, 69, 107
2, 45168, Note_off_c, 0, 69, 64
2, 45180, Note_on_c, 0, 67, 107
2, 45228, Note_off_c, 0, 67, 64
2, 45240, Note_on_c, 0, 65, 107
2, 45288, Note_off_c, 0, 65, 64
2, 45300, Note_on_c, 0, 64, 107
2, 45348, Note_off_c, 0, 64, 64
2, 45360, Note_on_c, 0, 62, 107
2, 45408, Note_off_c, 0, 62, 64
2, 45420, Note_on_c, 0, 65, 107
2, 45468, Note_off_c, 0, 65, 64
2, 45480, Note_on_c, 0, 67, 107
2, 45528, Note_off_c, 0, 67, 64
2, 45540, Note_on_c, 0, 69, 107
2, 45588, Note_off_c, 0, 69, 64
2, 45600, Note_on_c, 0, 67, 107
2, 45648, Note_off_c, 0, 67, 64
2, 45660, Note_on_c, 0, 65, 107
2, 45708, Note_off_c, 0, 65, 64
2, 45720, Note_on_c, 0, 70, 107
2, 45768, Note_off_c, 0, 70, 64
2, 45780, Note_on_c, 0, 69, 107
2, 45828, Note_off_c, 0, 69, 64
2, 45840, Note_on_c, 0, 67, 107
2, 45888, Note_off_c, 0, 67, 64
2, 45900, Note_on_c, 0, 65, 107
2, 45948, Note_off_c, 0, 65, 64
2, 45960, Note_on_c, 0, 64, 107
2, 46008, Note_off_c, 0, 64, 64
2, 46020, Note_on_c, 0, 62, 107
2, 46068, Note_off_c, 0, 62, 64
2, 46080, Note_on_c, 0, 60, 107
2, 46488, Note_off_c, 0, 60, 64
2, 46500, Note_on_c, 0, 64, 107
2, 46548, Note_off_c, 0, 64, 64
2, 46560, Note_on_c, 0, 65, 107
2, 46608, Note_off_c, 0, 65, 64
2, 46620, Note_on_c, 0, 69, 107
2, 46668, Note_off_c, 0, 69, 64
2, 46680, Note_on_c, 0, 64, 107
2, 46728, Note_off_c, 0, 64, 64
2, 46740, Note_on_c, 0, 65, 107
2, 46788, Note_off_c, 0, 65, 64
2, 46800, Note_on_c, 0, 60, 107
2, 46848, Note_off_c, 0, 60, 64
2, 46860, Note_on_c, 0, 64, 107
2, 46908, Note_off_c, 0, 64, 64
2, 46920, Note_on_c, 0, 65, 107
2, 46968, Note_off_c, 0, 65, 64
2, 46980, Note_on_c, 0, 69, 107
2, 47028, Note_off_c, 0, 69, 64
2, 47040, Note_on_c, 0, 64, 107
2, 47088, Note_off_c, 0, 64, 64
2, 47100, Note_on_c, 0, 65, 107
2, 47148, Note_off_c, 0, 65, 64
2, 47160, Note_on_c, 0, 60, 107
2, 47208, Note_off_c, 0, 60, 64
2, 47220, Note_on_c, 0, 64, 107
2, 47268, Note_off_c, 0, 64, 64
2, 47280, Note_on_c, 0, 65, 107
2, 47328, Note_off_c, 0, 65, 64
2, 47340, Note_on_c, 0, 69, 107
2, 47388, Note_off_c, 0, 69, 64
2, 47400, Note_on_c, 0, 64, 107
2, 47448, Note_off_c, 0, 64, 64
2, 47460, Note_on_c, 0, 65, 107
2, 47508, Note_off_c, 0, 65, 64
2, 47520, Note_on_c, 0, 60, 107
2, 47568, Note_off_c, 0, 60, 64
2, 47580, Note_on_c, 0, 64, 107
2, 47628, Note_off_c, 0, 64, 64
2, 47640, Note_on_c, 0, 65, 107
2, 47688, Note_off_c, 0, 65, 64
2, 47700, Note_on_c, 0, 69, 107
2, 47748, Note_off_c, 0, 69, 64
2, 47760, Note_on_c, 0, 64, 107
2, 47808, Note_off_c, 0, 64, 64
2, 47820, Note_on_c, 0, 65, 107
2, 47868, Note_off_c, 0, 65, 64
2, 47880, Note_on_c, 0, 60, 107
2, 47928, Note_off_c, 0, 60, 64
2, 47940, Note_on_c, 0, 64, 107
2, 47988, Note_off_c, 0, 64, 64
2, 48000, Note_on_c, 0, 65, 107
2, 48048, Note_off_c, 0, 65, 64
2, 48060, Note_on_c, 0, 69, 107
2, 48108, Note_off_c, 0, 69, 64
2, 48120, Note_on_c, 0, 64, 107
2, 48168, Note_off_c, 0, 64, 64
2, 48180, Note_on_c, 0, 65, 107
2, 48228, Note_off_c, 0, 65, 64
2, 48240, Note_on_c, 0, 60, 107
2, 48288, Note_off_c, 0, 60, 64
2, 48300, Note_on_c, 0, 64, 107
2, 48348, Note_off_c, 0, 64, 64
2, 48360, Note_on_c, 0, 65, 107
2, 48408, Note_off_c, 0, 65, 64
2, 48420, Note_on_c, 0, 69, 107
2, 48468, Note_off_c, 0, 69, 64
2, 48480, Note_on_c, 0, 64, 107
2, 48528, Note_off_c, 0, 64, 64
2, 48540, Note_on_c, 0, 65, 107
2, 48588, Note_off_c, 0, 65, 64
2, 48600, Note_on_c, 0, 62, 107
2, 48696, Note_off_c, 0, 62, 64
2, 48720, Note_on_c, 0, 64, 107
2, 48768, Note_off_c, 0, 64, 64
2, 48780, Note_on_c, 0, 65, 107
2, 48828, Note_off_c, 0, 65, 64
2, 48840, Note_on_c, 0, 67, 107
2, 48888, Note_off_c, 0, 67, 64
2, 48900, Note_on_c, 0, 69, 107
2, 48948, Note_off_c, 0, 69, 64
2, 48960, Note_on_c, 0, 70, 107
2, 49050, Note_off_c, 0, 70, 64
2, 49080, Note_on_c, 0, 69, 107
2, 49170, Note_off_c, 0, 69, 64
2, 49200, Note_on_c, 0, 67, 107
2, 49290, Note_off_c, 0, 67, 64
2, 49320, Note_on_c, 0, 69, 107
2, 49410, Note_off_c, 0, 69, 64
2, 49440, Note_on_c, 0, 67, 107
2, 49530, Note_off_c, 0, 67, 64
2, 49560, Note_on_c, 0, 65, 107
2, 49650, Note_off_c, 0, 65, 64
2, 49680, Note_on_c, 0, 72, 107
2, 49872, Note_off_c, 0, 72, 64
2, 49920, Note_on_c, 0, 64, 107
2, 50016, Note_off_c, 0, 64, 64
2, 50040, Note_on_c, 0, 65, 107
2, 50232, Note_off_c, 0, 65, 64
2, 50280, Note_on_c, 0, 67, 107
2, 50376, Note_off_c, 0, 67, 64
2, 50400, Note_on_c, 0, 69, 107
2, 50424, Note_off_c, 0, 69, 64
2, 50430, Note_on_c, 0, 67, 107
2, 50454, Note_off_c, 0, 67, 64
2, 50460, Note_on_c, 0, 69, 107
2, 50484, Note_off_c, 0, 69, 64
2, 50490, Note_on_c, 0, 67, 107
2, 50664, Note_off_c, 0, 67, 64
2, 50670, Note_on_c, 0, 65, 107
2, 50694, Note_off_c, 0, 65, 64
2, 50700, Note_on_c, 0, 67, 107
2, 50724, Note_off_c, 0, 67, 64
2, 50730, Note_on_c, 0, 69, 107
2, 50754, Note_off_c, 0, 69, 64
2, 50760, Note_on_c, 0, 60, 107
2, 50760, Note_on_c, 0, 65, 107
2, 50760, Note_on_c, 0, 57, 107
2, 50952, Note_off_c, 0, 57, 64
2, 50952, Note_off_c, 0, 65, 64
2, 50952, Note_off_c, 0, 60, 64
2, 51180, Note_on_c, 0, 62, 107
2, 51228, Note_off_c, 0, 62, 64
2, 51240, Note_on_c, 0, 64, 107
2, 51288, Note_off_c, 0, 64, 64
2, 51300, Note_on_c, 0, 65, 107
2, 51348, Note_off_c, 0, 65, 64
2, 51360, Note_on_c, 0, 67, 107
2, 51408, Note_off_c, 0, 67, 64
2, 51420, Note_on_c, 0, 69, 107
2, 51468, Note_off_c, 0, 69, 64
2, 51480, Note_on_c, 0, 58, 107
2, 51528, Note_off_c, 0, 58, 64
2, 51540, Note_on_c, 0, 60, 107
2, 51588, Note_off_c, 0, 60, 64
2, 51600, Note_on_c, 0, 62, 107
2, 51648, Note_off_c, 0, 62, 64
2, 51660, Note_on_c, 0, 64, 107
2, 51708, Note_off_c, 0, 64, 64
2, 51720, Note_on_c, 0, 65, 107
2, 51768, Note_off_c, 0, 65, 64
2, 51780, Note_on_c, 0, 67, 107
2, 51828, Note_off_c, 0, 67, 64
2, 51900, Note_on_c, 0, 77, 107
2, 51948, Note_off_c, 0, 77, 64
2, 51960, Note_on_c, 0, 76, 107
2, 52008, Note_off_c, 0, 76, 64
2, 52020, Note_on_c, 0, 74, 107
2, 52068, Note_off_c, 0, 74, 64
2, 52080, Note_on_c, 0, 72, 107
2, 52128, Note_off_c, 0, 72, 64
2, 52140, Note_on_c, 0, 70, 107
2, 52188, Note_off_c, 0, 70, 64
2, 52200, Note_on_c, 0, 69, 107
2, 52290, Note_off_c, 0, 69, 64
2, 52320, Note_on_c, 0, 71, 107
2, 52410, Note_off_c, 0, 71, 64
2, 52440, Note_on_c, 0, 72, 107
2, 52530, Note_off_c, 0, 72, 64
2, 52560, Note_on_c, 0, 71, 107
2, 52650, Note_off_c, 0, 71, 64
2, 52680, Note_on_c, 0, 72, 107
2, 52770, Note_off_c, 0, 72, 64
2, 52800, Note_on_c, 0, 74, 107
2, 52890, Note_off_c, 0, 74, 64
2, 52920, Note_on_c, 0, 72, 107
2, 52980, Note_on_c, 0, 69, 107
2, 53028, Note_off_c, 0, 69, 64
2, 53040, Note_on_c, 0, 67, 107
2, 53088, Note_off_c, 0, 67, 64
2, 53100, Note_on_c, 0, 65, 107
2, 53148, Note_off_c, 0, 65, 64
2, 53160, Note_on_c, 0, 64, 107
2, 53208, Note_off_c, 0, 64, 64
2, 53220, Note_on_c, 0, 62, 107
2, 53268, Note_off_c, 0, 62, 64
2, 53280, Note_on_c, 0, 60, 107
2, 53370, Note_off_c, 0, 60, 64
2, 53400, Note_on_c, 0, 62, 107
2, 53490, Note_off_c, 0, 62, 64
2, 53520, Note_on_c, 0, 64, 107
2, 53610, Note_off_c, 0, 64, 64
2, 53640, Note_on_c, 0, 62, 107
2, 53730, Note_off_c, 0, 62, 64
2, 53760, Note_on_c, 0, 64, 107
2, 53850, Note_off_c, 0, 64, 64
2, 53880, Note_on_c, 0, 65, 107
2, 53970, Note_off_c, 0, 65, 64
2, 54000, Note_on_c, 0, 64, 107
2, 54090, Note_off_c, 0, 64, 64
2, 54120, Note_on_c, 0, 65, 107
2, 54210, Note_off_c, 0, 65, 64
2, 54240, Note_on_c, 0, 67, 107
2, 54330, Note_off_c, 0, 67, 64
2, 54360, Note_on_c, 0, 67, 107
2, 54456, Note_off_c, 0, 67, 64
2, 54480, Note_on_c, 0, 65, 107
2, 54576, Note_off_c, 0, 65, 64
2, 54600, Note_on_c, 0, 63, 107
2, 54696, Note_off_c, 0, 63, 64
2, 54720, Note_on_c, 0, 63, 107
2, 54816, Note_off_c, 0, 63, 64
2, 54840, Note_on_c, 0, 62, 107
2, 54912, Note_off_c, 0, 72, 64
2, 54960, Note_on_c, 0, 72, 107
2, 55056, Note_off_c, 0, 72, 64
2, 55080, Note_on_c, 0, 71, 107
2, 55128, Note_off_c, 0, 71, 64
2, 55140, Note_on_c, 0, 69, 107
2, 55188, Note_off_c, 0, 69, 64
2, 55200, Note_on_c, 0, 71, 107
2, 55248, Note_off_c, 0, 71, 64
2, 55260, Note_on_c, 0, 72, 107
2, 55308, Note_off_c, 0, 72, 64
2, 55320, Note_on_c, 0, 74, 107
2, 55368, Note_off_c, 0, 74, 64
2, 55368, Note_off_c, 0, 62, 64
2, 55380, Note_on_c, 0, 76, 107
2, 55428, Note_off_c, 0, 76, 64
2, 55440, Note_on_c, 0, 77, 107
2, 55530, Note_off_c, 0, 77, 64
2, 55560, Note_on_c, 0, 76, 107
2, 55650, Note_off_c, 0, 76, 64
2, 55680, Note_on_c, 0, 74, 107
2, 55770, Note_off_c, 0, 74, 64
2, 55800, Note_on_c, 0, 76, 107
2, 55848, Note_off_c, 0, 76, 64
2, 55860, Note_on_c, 0, 72, 107
2, 55908, Note_off_c, 0, 72, 64
2, 55920, Note_on_c, 0, 74, 107
2, 55968, Note_off_c, 0, 74, 64
2, 55980, Note_on_c, 0, 76, 107
2, 56028, Note_off_c, 0, 76, 64
2, 56040, Note_on_c, 0, 77, 107
2, 56088, Note_off_c, 0, 77, 64
2, 56100, Note_on_c, 0, 79, 107
2, 56148, Note_off_c, 0, 79, 64
2, 56160, Note_on_c, 0, 81, 107
2, 56208, Note_off_c, 0, 81, 64
2, 56220, Note_on_c, 0, 77, 107
2, 56268, Note_off_c, 0, 77, 64
2, 56280, Note_on_c, 0, 76, 107
2, 56328, Note_off_c, 0, 76, 64
2, 56340, Note_on_c, 0, 74, 107
2, 56388, Note_off_c, 0, 74, 64
2, 56400, Note_on_c, 0, 76, 107
2, 56448, Note_off_c, 0, 76, 64
2, 56460, Note_on_c, 0, 77, 107
2, 56508, Note_off_c, 0, 77, 64
2, 56520, Note_on_c, 0, 79, 107
2, 56568, Note_off_c, 0, 79, 64
2, 56580, Note_on_c, 0, 76, 107
2, 56628, Note_off_c, 0, 76, 64
2, 56640, Note_on_c, 0, 74, 107
2, 56688, Note_off_c, 0, 74, 64
2, 56700, Note_on_c, 0, 72, 107
2, 56748, Note_off_c, 0, 72, 64
2, 56760, Note_on_c, 0, 74, 107
2, 56808, Note_off_c, 0, 74, 64
2, 56820, Note_on_c, 0, 76, 107
2, 56868, Note_off_c, 0, 76, 64
2, 56880, Note_on_c, 0, 77, 107
2, 56928, Note_off_c, 0, 77, 64
2, 56940, Note_on_c, 0, 74, 107
2, 56988, Note_off_c, 0, 74, 64
2, 57000, Note_on_c, 0, 72, 107
2, 57048, Note_off_c, 0, 72, 64
2, 57060, Note_on_c, 0, 71, 107
2, 57108, Note_off_c, 0, 71, 64
2, 57120, Note_on_c, 0, 72, 107
2, 57168, Note_off_c, 0, 72, 64
2, 57180, Note_on_c, 0, 74, 107
2, 57228, Note_off_c, 0, 74, 64
2, 57240, Note_on_c, 0, 76, 107
2, 57288, Note_off_c, 0, 76, 64
2, 57300, Note_on_c, 0, 71, 107
2, 57348, Note_off_c, 0, 71, 64
2, 57360, Note_on_c, 0, 72, 107
2, 57408, Note_off_c, 0, 72, 64
2, 57420, Note_on_c, 0, 76, 107
2, 57468, Note_off_c, 0, 76, 64
2, 57480, Note_on_c, 0, 71, 107
2, 57528, Note_off_c, 0, 71, 64
2, 57540, Note_on_c, 0, 72, 107
2, 57588, Note_off_c, 0, 72, 64
2, 57600, Note_on_c, 0, 65, 107
2, 57648, Note_off_c, 0, 65, 64
2, 57660, Note_on_c, 0, 71, 107
2, 57708, Note_off_c, 0, 71, 64
2, 57720, Note_on_c, 0, 72, 107
2, 57768, Note_off_c, 0, 72, 64
2, 57780, Note_on_c, 0, 76, 107
2, 57828, Note_off_c, 0, 76, 64
2, 57840, Note_on_c, 0, 71, 107
2, 57888, Note_off_c, 0, 71, 64
2, 57900, Note_on_c, 0, 72, 107
2, 57948, Note_off_c, 0, 72, 64
2, 57960, Note_on_c, 0, 67, 107
2, 58008, Note_off_c, 0, 67, 64
2, 58020, Note_on_c, 0, 71, 107
2, 58068, Note_off_c, 0, 71, 64
2, 58080, Note_on_c, 0, 72, 107
2, 58128, Note_off_c, 0, 72, 64
2, 58140, Note_on_c, 0, 76, 107
2, 58188, Note_off_c, 0, 76, 64
2, 58200, Note_on_c, 0, 71, 107
2, 58248, Note_off_c, 0, 71, 64
2, 58260, Note_on_c, 0, 72, 107
2, 58308, Note_off_c, 0, 72, 64
2, 58320, Note_on_c, 0, 69, 107
2, 58368, Note_off_c, 0, 69, 64
2, 58380, Note_on_c, 0, 71, 107
2, 58428, Note_off_c, 0, 71, 64
2, 58440, Note_on_c, 0, 72, 107
2, 58488, Note_off_c, 0, 72, 64
2, 58500, Note_on_c, 0, 76, 107
2, 58548, Note_off_c, 0, 76, 64
2, 58560, Note_on_c, 0, 71, 107
2, 58608, Note_off_c, 0, 71, 64
2, 58620, Note_on_c, 0, 72, 107
2, 58668, Note_off_c, 0, 72, 64
2, 58680, Note_on_c, 0, 67, 107
2, 58728, Note_off_c, 0, 67, 64
2, 58740, Note_on_c, 0, 71, 107
2, 58788, Note_off_c, 0, 71, 64
2, 58800, Note_on_c, 0, 72, 107
2, 58848, Note_off_c, 0, 72, 64
2, 58860, Note_on_c, 0, 76, 107
2, 58908, Note_off_c, 0, 76, 64
2, 58920, Note_on_c, 0, 71, 107
2, 58968, Note_off_c, 0, 71, 64
2, 58980, Note_on_c, 0, 72, 107
2, 59028, Note_off_c, 0, 72, 64
2, 59040, Note_on_c, 0, 66, 107
2, 59088, Note_off_c, 0, 66, 64
2, 59100, Note_on_c, 0, 71, 107
2, 59148, Note_off_c, 0, 71, 64
2, 59160, Note_on_c, 0, 72, 107
2, 59208, Note_off_c, 0, 72, 64
2, 59220, Note_on_c, 0, 75, 107
2, 59268, Note_off_c, 0, 75, 64
2, 59280, Note_on_c, 0, 71, 107
2, 59328, Note_off_c, 0, 71, 64
2, 59340, Note_on_c, 0, 72, 107
2, 59388, Note_off_c, 0, 72, 64
2, 59400, Note_on_c, 0, 65, 107
2, 59448, Note_off_c, 0, 65, 64
2, 59460, Note_on_c, 0, 69, 107
2, 59508, Note_off_c, 0, 69, 64
2, 59520, Note_on_c, 0, 71, 107
2, 59568, Note_off_c, 0, 71, 64
2, 59580, Note_on_c, 0, 74, 107
2, 59628, Note_off_c, 0, 74, 64
2, 59640, Note_on_c, 0, 69, 107
2, 59688, Note_off_c, 0, 69, 64
2, 59700, Note_on_c, 0, 71, 107
2, 59748, Note_off_c, 0, 71, 64
2, 59760, Note_on_c, 0, 63, 107
2, 59808, Note_off_c, 0, 63, 64
2, 59820, Note_on_c, 0, 67, 107
2, 59868, Note_off_c, 0, 67, 64
2, 59880, Note_on_c, 0, 69, 107
2, 59928, Note_off_c, 0, 69, 64
2, 59940, Note_on_c, 0, 72, 107
2, 59988, Note_off_c, 0, 72, 64
2, 60000, Note_on_c, 0, 66, 107
2, 60048, Note_off_c, 0, 66, 64
2, 60060, Note_on_c, 0, 67, 107
2, 60108, Note_off_c, 0, 67, 64
2, 60120, Note_on_c, 0, 62, 107
2, 60168, Note_off_c, 0, 62, 64
2, 60180, Note_on_c, 0, 65, 107
2, 60228, Note_off_c, 0, 65, 64
2, 60240, Note_on_c, 0, 67, 107
2, 60288, Note_off_c, 0, 67, 64
2, 60300, Note_on_c, 0, 71, 107
2, 60348, Note_off_c, 0, 71, 64
2, 60360, Note_on_c, 0, 65, 107
2, 60408, Note_off_c, 0, 65, 64
2, 60420, Note_on_c, 0, 67, 107
2, 60468, Note_off_c, 0, 67, 64
2, 60480, Note_on_c, 0, 64, 107
2, 60480, Note_on_c, 0, 72, 107
2, 60768, Note_off_c, 0, 64, 64
2, 60888, Note_off_c, 0, 72, 64
2, 60900, Note_on_c, 0, 67, 107
2, 60948, Note_off_c, 0, 67, 64
2, 60960, Note_on_c, 0, 69, 107
2, 61008, Note_off_c, 0, 69, 64
2, 61020, Note_on_c, 0, 71, 107
2, 61068, Note_off_c, 0, 71, 64
2, 61080, Note_on_c, 0, 72, 107
2, 61128, Note_off_c, 0, 72, 64
2, 61140, Note_on_c, 0, 74, 107
2, 61188, Note_off_c, 0, 74, 64
2, 61200, Note_on_c, 0, 75, 107
2, 61296, Note_off_c, 0, 75, 64
2, 61320, Note_on_c, 0, 74, 107
2, 61416, Note_off_c, 0, 74, 64
2, 61440, Note_on_c, 0, 72, 107
2, 61530, Note_off_c, 0, 72, 64
2, 61560, Note_on_c, 0, 70, 107
2, 61620, Note_on_c, 0, 67, 107
2, 61668, Note_off_c, 0, 67, 64
2, 61680, Note_on_c, 0, 66, 107
2, 61728, Note_off_c, 0, 66, 64
2, 61740, Note_on_c, 0, 64, 107
2, 61788, Note_off_c, 0, 64, 64
2, 61800, Note_on_c, 0, 62, 107
2, 61848, Note_off_c, 0, 62, 64
2, 61860, Note_on_c, 0, 60, 107
2, 61908, Note_off_c, 0, 60, 64
2, 62112, Note_off_c, 0, 70, 64
2, 62160, Note_on_c, 0, 65, 107
2, 62160, Note_on_c, 0, 70, 107
2, 62160, Note_on_c, 0, 67, 107
2, 62250, Note_off_c, 0, 70, 64
2, 62256, Note_off_c, 0, 67, 64
2, 62256, Note_off_c, 0, 65, 64
2, 62280, Note_on_c, 0, 70, 107
2, 62280, Note_on_c, 0, 74, 107
2, 62280, Note_on_c, 0, 64, 107
2, 62376, Note_off_c, 0, 74, 64
2, 62376, Note_off_c, 0, 70, 64
2, 62400, Note_on_c, 0, 69, 107
2, 62400, Note_on_c, 0, 72, 107
2, 62496, Note_off_c, 0, 72, 64
2, 62496, Note_off_c, 0, 69, 64
2, 62520, Note_on_c, 0, 67, 107
2, 62520, Note_on_c, 0, 70, 107
2, 62568, Note_off_c, 0, 64, 64
2, 62616, Note_off_c, 0, 70, 64
2, 62616, Note_off_c, 0, 67, 64
2, 62640, Note_on_c, 0, 69, 107
2, 62700, Note_on_c, 0, 65, 107
2, 62748, Note_off_c, 0, 65, 64
2, 62760, Note_on_c, 0, 64, 107
2, 62808, Note_off_c, 0, 64, 64
2, 62820, Note_on_c, 0, 62, 107
2, 62868, Note_off_c, 0, 62, 64
2, 62880, Note_on_c, 0, 60, 107
2, 62928, Note_off_c, 0, 60, 64
2, 62940, Note_on_c, 0, 58, 107
2, 62988, Note_off_c, 0, 58, 64
2, 63192, Note_off_c, 0, 69, 64
2, 63240, Note_on_c, 0, 69, 107
2, 63240, Note_on_c, 0, 69, 107
2, 63336, Note_off_c, 0, 69, 64
2, 63360, Note_on_c, 0, 74, 107
2, 63408, Note_off_c, 0, 74, 64
2, 63420, Note_on_c, 0, 76, 107
2, 63468, Note_off_c, 0, 76, 64
2, 63480, Note_on_c, 0, 74, 107
2, 63528, Note_off_c, 0, 74, 64
2, 63540, Note_on_c, 0, 76, 107
2, 63588, Note_off_c, 0, 76, 64
2, 63600, Note_on_c, 0, 77, 107
2, 63648, Note_off_c, 0, 69, 64
2, 63696, Note_off_c, 0, 77, 64
2, 63720, Note_on_c, 0, 67, 107
2, 64008, Note_off_c, 0, 67, 64
2, 64080, Note_on_c, 0, 61, 107
2, 64128, Note_off_c, 0, 61, 64
2, 64140, Note_on_c, 0, 62, 107
2, 64188, Note_off_c, 0, 62, 64
2, 64200, Note_on_c, 0, 64, 107
2, 64248, Note_off_c, 0, 64, 64
2, 64260, Note_on_c, 0, 65, 107
2, 64308, Note_off_c, 0, 65, 64
2, 64320, Note_on_c, 0, 67, 107
2, 64320, Note_on_c, 0, 67, 107
2, 64368, Note_off_c, 0, 67, 64
2, 64380, Note_on_c, 0, 69, 107
2, 64416, Note_off_c, 0, 67, 64
2, 64428, Note_off_c, 0, 69, 64
2, 64440, Note_on_c, 0, 71, 107
2, 64440, Note_on_c, 0, 67, 107
2, 64440, Note_on_c, 0, 61, 107
2, 64536, Note_off_c, 0, 67, 64
2, 64536, Note_off_c, 0, 71, 64
2, 64560, Note_on_c, 0, 65, 107
2, 64560, Note_on_c, 0, 69, 107
2, 64656, Note_off_c, 0, 69, 64
2, 64656, Note_off_c, 0, 65, 64
2, 64680, Note_on_c, 0, 64, 107
2, 64680, Note_on_c, 0, 67, 107
2, 64728, Note_off_c, 0, 61, 64
2, 64776, Note_off_c, 0, 67, 64
2, 64776, Note_off_c, 0, 64, 64
2, 64800, Note_on_c, 0, 65, 107
2, 64848, Note_off_c, 0, 65, 64
2, 64860, Note_on_c, 0, 62, 107
2, 64908, Note_off_c, 0, 62, 64
2, 64920, Note_on_c, 0, 61, 107
2, 64968, Note_off_c, 0, 61, 64
2, 64980, Note_on_c, 0, 59, 107
2, 65028, Note_off_c, 0, 59, 64
2, 65040, Note_on_c, 0, 61, 107
2, 65088, Note_off_c, 0, 61, 64
2, 65100, Note_on_c, 0, 62, 107
2, 65148, Note_off_c, 0, 62, 64
2, 65160, Note_on_c, 0, 67, 107
2, 65208, Note_off_c, 0, 67, 64
2, 65220, Note_on_c, 0, 64, 107
2, 65268, Note_off_c, 0, 64, 64
2, 65280, Note_on_c, 0, 62, 107
2, 65328, Note_off_c, 0, 62, 64
2, 65340, Note_on_c, 0, 61, 107
2, 65388, Note_off_c, 0, 61, 64
2, 65400, Note_on_c, 0, 62, 107
2, 65448, Note_off_c, 0, 62, 64
2, 65460, Note_on_c, 0, 64, 107
2, 65508, Note_off_c, 0, 64, 64
2, 65520, Note_on_c, 0, 69, 107
2, 65568, Note_off_c, 0, 69, 64
2, 65580, Note_on_c, 0, 65, 107
2, 65628, Note_off_c, 0, 65, 64
2, 65640, Note_on_c, 0, 64, 107
2, 65688, Note_off_c, 0, 64, 64
2, 65700, Note_on_c, 0, 62, 107
2, 65748, Note_off_c, 0, 62, 64
2, 65760, Note_on_c, 0, 64, 107
2, 65808, Note_off_c, 0, 64, 64
2, 65820, Note_on_c, 0, 65, 107
2, 65868, Note_off_c, 0, 65, 64
2, 65880, Note_on_c, 0, 71, 107
2, 65928, Note_off_c, 0, 71, 64
2, 65940, Note_on_c, 0, 67, 107
2, 65988, Note_off_c, 0, 67, 64
2, 66000, Note_on_c, 0, 65, 107
2, 66048, Note_off_c, 0, 65, 64
2, 66060, Note_on_c, 0, 64, 107
2, 66108, Note_off_c, 0, 64, 64
2, 66120, Note_on_c, 0, 65, 107
2, 66168, Note_off_c, 0, 65, 64
2, 66180, Note_on_c, 0, 67, 107
2, 66228, Note_off_c, 0, 67, 64
2, 66240, Note_on_c, 0, 73, 107
2, 66288, Note_off_c, 0, 73, 64
2, 66300, Note_on_c, 0, 69, 107
2, 66348, Note_off_c, 0, 69, 64
2, 66360, Note_on_c, 0, 67, 107
2, 66408, Note_off_c, 0, 67, 64
2, 66420, Note_on_c, 0, 65, 107
2, 66468, Note_off_c, 0, 65, 64
2, 66480, Note_on_c, 0, 67, 107
2, 66528, Note_off_c, 0, 67, 64
2, 66540, Note_on_c, 0, 69, 107
2, 66588, Note_off_c, 0, 69, 64
2, 66600, Note_on_c, 0, 74, 107
2, 66648, Note_off_c, 0, 74, 64
2, 66660, Note_on_c, 0, 70, 107
2, 66708, Note_off_c, 0, 70, 64
2, 66720, Note_on_c, 0, 69, 107
2, 66768, Note_off_c, 0, 69, 64
2, 66780, Note_on_c, 0, 67, 107
2, 66828, Note_off_c, 0, 67, 64
2, 66840, Note_on_c, 0, 69, 107
2, 66888, Note_off_c, 0, 69, 64
2, 66900, Note_on_c, 0, 70, 107
2, 66948, Note_off_c, 0, 70, 64
2, 66960, Note_on_c, 0, 76, 107
2, 67008, Note_off_c, 0, 76, 64
2, 67020, Note_on_c, 0, 70, 107
2, 67068, Note_off_c, 0, 70, 64
2, 67080, Note_on_c, 0, 69, 107
2, 67128, Note_off_c, 0, 69, 64
2, 67140, Note_on_c, 0, 67, 107
2, 67188, Note_off_c, 0, 67, 64
2, 67200, Note_on_c, 0, 65, 107
2, 67248, Note_off_c, 0, 65, 64
2, 67260, Note_on_c, 0, 64, 107
2, 67308, Note_off_c, 0, 64, 64
2, 67320, Note_on_c, 0, 65, 107
2, 67368, Note_off_c, 0, 65, 64
2, 67380, Note_on_c, 0, 69, 107
2, 67428, Note_off_c, 0, 69, 64
2, 67440, Note_on_c, 0, 70, 107
2, 67488, Note_off_c, 0, 70, 64
2, 67500, Note_on_c, 0, 72, 107
2, 67548, Note_off_c, 0, 72, 64
2, 67560, Note_on_c, 0, 70, 107
2, 67608, Note_off_c, 0, 70, 64
2, 67620, Note_on_c, 0, 69, 107
2, 67668, Note_off_c, 0, 69, 64
2, 67680, Note_on_c, 0, 67, 107
2, 67728, Note_off_c, 0, 67, 64
2, 67740, Note_on_c, 0, 74, 107
2, 67788, Note_off_c, 0, 74, 64
2, 67800, Note_on_c, 0, 76, 107
2, 67848, Note_off_c, 0, 76, 64
2, 67860, Note_on_c, 0, 77, 107
2, 67908, Note_off_c, 0, 77, 64
2, 67920, Note_on_c, 0, 76, 107
2, 67968, Note_off_c, 0, 76, 64
2, 67980, Note_on_c, 0, 74, 107
2, 68028, Note_off_c, 0, 74, 64
2, 68040, Note_on_c, 0, 73, 107
2, 68448, Note_off_c, 0, 73, 64
2, 68460, Note_on_c, 0, 71, 107
2, 68508, Note_off_c, 0, 71, 64
2, 68520, Note_on_c, 0, 73, 107
2, 68568, Note_off_c, 0, 73, 64
2, 68580, Note_on_c, 0, 74, 107
2, 68628, Note_off_c, 0, 74, 64
2, 68640, Note_on_c, 0, 76, 107
2, 68688, Note_off_c, 0, 76, 64
2, 68700, Note_on_c, 0, 77, 107
2, 68748, Note_off_c, 0, 77, 64
2, 68760, Note_on_c, 0, 79, 107
2, 68808, Note_off_c, 0, 79, 64
2, 68820, Note_on_c, 0, 77, 107
2, 68868, Note_off_c, 0, 77, 64
2, 68880, Note_on_c, 0, 76, 107
2, 68928, Note_off_c, 0, 76, 64
2, 68940, Note_on_c, 0, 77, 107
2, 68988, Note_off_c, 0, 77, 64
2, 69000, Note_on_c, 0, 79, 107
2, 69048, Note_off_c, 0, 79, 64
2, 69060, Note_on_c, 0, 76, 107
2, 69108, Note_off_c, 0, 76, 64
2, 69120, Note_on_c, 0, 77, 107
2, 69168, Note_off_c, 0, 77, 64
2, 69180, Note_on_c, 0, 74, 107
2, 69228, Note_off_c, 0, 74, 64
2, 69240, Note_on_c, 0, 76, 107
2, 69288, Note_off_c, 0, 76, 64
2, 69300, Note_on_c, 0, 78, 107
2, 69348, Note_off_c, 0, 78, 64
2, 69360, Note_on_c, 0, 79, 107
2, 69408, Note_off_c, 0, 79, 64
2, 69420, Note_on_c, 0, 81, 107
2, 69468, Note_off_c, 0, 81, 64
2, 69480, Note_on_c, 0, 82, 107
2, 69570, Note_off_c, 0, 82, 64
2, 69600, Note_on_c, 0, 81, 107
2, 69690, Note_off_c, 0, 81, 64
2, 69720, Note_on_c, 0, 79, 107
2, 69810, Note_off_c, 0, 79, 64
2, 69840, Note_on_c, 0, 81, 107
2, 69930, Note_off_c, 0, 81, 64
2, 69960, Note_on_c, 0, 79, 107
2, 70050, Note_off_c, 0, 79, 64
2, 70080, Note_on_c, 0, 78, 107
2, 70170, Note_off_c, 0, 78, 64
2, 70200, Note_on_c, 0, 79, 107
2, 70608, Note_off_c, 0, 79, 64
2, 70620, Note_on_c, 0, 69, 107
2, 70668, Note_off_c, 0, 69, 64
2, 70680, Note_on_c, 0, 71, 107
2, 70728, Note_off_c, 0, 71, 64
2, 70740, Note_on_c, 0, 72, 107
2, 70788, Note_off_c, 0, 72, 64
2, 70800, Note_on_c, 0, 74, 107
2, 70848, Note_off_c, 0, 74, 64
2, 70860, Note_on_c, 0, 76, 107
2, 70908, Note_off_c, 0, 76, 64
2, 70920, Note_on_c, 0, 77, 107
2, 70968, Note_off_c, 0, 77, 64
2, 70980, Note_on_c, 0, 76, 107
2, 71028, Note_off_c, 0, 76, 64
2, 71040, Note_on_c, 0, 74, 107
2, 71088, Note_off_c, 0, 74, 64
2, 71100, Note_on_c, 0, 76, 107
2, 71148, Note_off_c, 0, 76, 64
2, 71160, Note_on_c, 0, 77, 107
2, 71208, Note_off_c, 0, 77, 64
2, 71220, Note_on_c, 0, 74, 107
2, 71268, Note_off_c, 0, 74, 64
2, 71280, Note_on_c, 0, 76, 107
2, 71280, Note_on_c, 0, 60, 107
2, 71328, Note_off_c, 0, 76, 64
2, 71340, Note_on_c, 0, 72, 107
2, 71388, Note_off_c, 0, 72, 64
2, 71400, Note_on_c, 0, 74, 107
2, 71448, Note_off_c, 0, 74, 64
2, 71460, Note_on_c, 0, 76, 107
2, 71508, Note_off_c, 0, 76, 64
2, 71520, Note_on_c, 0, 77, 107
2, 71568, Note_off_c, 0, 77, 64
2, 71580, Note_on_c, 0, 79, 107
2, 71628, Note_off_c, 0, 79, 64
2, 71640, Note_on_c, 0, 81, 107
2, 71688, Note_off_c, 0, 60, 64
2, 71700, Note_on_c, 0, 62, 107
2, 71730, Note_off_c, 0, 81, 64
2, 71748, Note_off_c, 0, 62, 64
2, 71760, Note_on_c, 0, 64, 107
2, 71760, Note_on_c, 0, 79, 107
2, 71808, Note_off_c, 0, 64, 64
2, 71820, Note_on_c, 0, 65, 107
2, 71850, Note_off_c, 0, 79, 64
2, 71868, Note_off_c, 0, 65, 64
2, 71880, Note_on_c, 0, 67, 107
2, 71880, Note_on_c, 0, 77, 107
2, 71928, Note_off_c, 0, 67, 64
2, 71940, Note_on_c, 0, 69, 107
2, 71970, Note_off_c, 0, 77, 64
2, 71988, Note_off_c, 0, 69, 64
2, 72000, Note_on_c, 0, 79, 107
2, 72000, Note_on_c, 0, 70, 107
2, 72048, Note_off_c, 0, 70, 64
2, 72060, Note_on_c, 0, 69, 107
2, 72090, Note_off_c, 0, 79, 64
2, 72108, Note_off_c, 0, 69, 64
2, 72120, Note_on_c, 0, 77, 107
2, 72120, Note_on_c, 0, 67, 107
2, 72168, Note_off_c, 0, 67, 64
2, 72180, Note_on_c, 0, 69, 107
2, 72210, Note_off_c, 0, 77, 64
2, 72228, Note_off_c, 0, 69, 64
2, 72240, Note_on_c, 0, 76, 107
2, 72240, Note_on_c, 0, 70, 107
2, 72288, Note_off_c, 0, 70, 64
2, 72300, Note_on_c, 0, 67, 107
2, 72330, Note_off_c, 0, 76, 64
2, 72348, Note_off_c, 0, 67, 64
2, 72360, Note_on_c, 0, 77, 107
2, 72360, Note_on_c, 0, 69, 107
2, 72408, Note_off_c, 0, 69, 64
2, 72420, Note_on_c, 0, 65, 107
2, 72456, Note_off_c, 0, 77, 64
2, 72468, Note_off_c, 0, 65, 64
2, 72480, Note_on_c, 0, 64, 107
2, 72480, Note_on_c, 0, 82, 107
2, 72528, Note_off_c, 0, 64, 64
2, 72540, Note_on_c, 0, 62, 107
2, 72570, Note_off_c, 0, 82, 64
2, 72588, Note_off_c, 0, 62, 64
2, 72600, Note_on_c, 0, 64, 107
2, 72600, Note_on_c, 0, 74, 107
2, 72648, Note_off_c, 0, 64, 64
2, 72660, Note_on_c, 0, 65, 107
2, 72690, Note_off_c, 0, 74, 64
2, 72708, Note_off_c, 0, 65, 64
2, 72720, Note_on_c, 0, 76, 107
2, 72720, Note_on_c, 0, 67, 107
2, 72768, Note_off_c, 0, 67, 64
2, 72780, Note_on_c, 0, 64, 107
2, 72816, Note_off_c, 0, 76, 64
2, 72828, Note_off_c, 0, 64, 64
2, 72840, Note_on_c, 0, 62, 107
2, 72840, Note_on_c, 0, 81, 107
2, 72888, Note_off_c, 0, 62, 64
2, 72900, Note_on_c, 0, 60, 107
2, 72930, Note_off_c, 0, 81, 64
2, 72948, Note_off_c, 0, 60, 64
2, 72960, Note_on_c, 0, 62, 107
2, 72960, Note_on_c, 0, 72, 107
2, 73008, Note_off_c, 0, 62, 64
2, 73020, Note_on_c, 0, 64, 107
2, 73050, Note_off_c, 0, 72, 64
2, 73068, Note_off_c, 0, 64, 64
2, 73080, Note_on_c, 0, 74, 107
2, 73080, Note_on_c, 0, 65, 107
2, 73128, Note_off_c, 0, 65, 64
2, 73140, Note_on_c, 0, 62, 107
2, 73176, Note_off_c, 0, 74, 64
2, 73188, Note_off_c, 0, 62, 64
2, 73200, Note_on_c, 0, 79, 107
2, 73200, Note_on_c, 0, 60, 107
2, 73248, Note_off_c, 0, 60, 64
2, 73260, Note_on_c, 0, 58, 107
2, 73290, Note_off_c, 0, 79, 64
2, 73308, Note_off_c, 0, 58, 64
2, 73320, Note_on_c, 0, 70, 107
2, 73320, Note_on_c, 0, 60, 107
2, 73368, Note_off_c, 0, 60, 64
2, 73380, Note_on_c, 0, 62, 107
2, 73410, Note_off_c, 0, 70, 64
2, 73428, Note_off_c, 0, 62, 64
2, 73440, Note_on_c, 0, 72, 107
2, 73536, Note_off_c, 0, 72, 64
2, 73560, Note_on_c, 0, 77, 107
2, 73656, Note_off_c, 0, 77, 64
2, 73680, Note_on_c, 0, 69, 107
2, 73770, Note_off_c, 0, 69, 64
2, 73800, Note_on_c, 0, 70, 107
2, 73896, Note_off_c, 0, 70, 64
2, 73920, Note_on_c, 0, 76, 107
2, 74016, Note_off_c, 0, 76, 64
2, 74040, Note_on_c, 0, 67, 107
2, 74130, Note_off_c, 0, 67, 64
2, 74160, Note_on_c, 0, 69, 107
2, 74256, Note_off_c, 0, 69, 64
2, 74280, Note_on_c, 0, 74, 107
2, 74376, Note_off_c, 0, 74, 64
2, 74400, Note_on_c, 0, 65, 107
2, 74490, Note_off_c, 0, 65, 64
2, 74520, Note_on_c, 0, 67, 107
2, 74568, Note_off_c, 0, 67, 64
2, 74580, Note_on_c, 0, 69, 107
2, 74628, Note_off_c, 0, 69, 64
2, 74640, Note_on_c, 0, 70, 107
2, 74688, Note_off_c, 0, 70, 64
2, 74700, Note_on_c, 0, 74, 107
2, 74748, Note_off_c, 0, 74, 64
2, 74760, Note_on_c, 0, 70, 107
2, 74808, Note_off_c, 0, 70, 64
2, 74820, Note_on_c, 0, 69, 107
2, 74868, Note_off_c, 0, 69, 64
2, 74880, Note_on_c, 0, 67, 107
2, 74928, Note_off_c, 0, 67, 64
2, 74940, Note_on_c, 0, 69, 107
2, 74988, Note_off_c, 0, 69, 64
2, 75000, Note_on_c, 0, 70, 107
2, 75048, Note_off_c, 0, 70, 64
2, 75060, Note_on_c, 0, 74, 107
2, 75108, Note_off_c, 0, 74, 64
2, 75120, Note_on_c, 0, 69, 107
2, 75168, Note_off_c, 0, 69, 64
2, 75180, Note_on_c, 0, 67, 107
2, 75228, Note_off_c, 0, 67, 64
2, 75240, Note_on_c, 0, 65, 107
2, 75288, Note_off_c, 0, 65, 64
2, 75300, Note_on_c, 0, 67, 107
2, 75348, Note_off_c, 0, 67, 64
2, 75360, Note_on_c, 0, 69, 107
2, 75408, Note_off_c, 0, 69, 64
2, 75420, Note_on_c, 0, 74, 107
2, 75468, Note_off_c, 0, 74, 64
2, 75480, Note_on_c, 0, 67, 107
2, 75528, Note_off_c, 0, 67, 64
2, 75540, Note_on_c, 0, 65, 107
2, 75588, Note_off_c, 0, 65, 64
2, 75600, Note_on_c, 0, 64, 107
2, 75648, Note_off_c, 0, 64, 64
2, 75660, Note_on_c, 0, 65, 107
2, 75708, Note_off_c, 0, 65, 64
2, 75720, Note_on_c, 0, 67, 107
2, 75768, Note_off_c, 0, 67, 64
2, 75780, Note_on_c, 0, 70, 107
2, 75828, Note_off_c, 0, 70, 64
2, 75840, Note_on_c, 0, 67, 107
2, 75888, Note_off_c, 0, 67, 64
2, 75900, Note_on_c, 0, 65, 107
2, 75948, Note_off_c, 0, 65, 64
2, 75960, Note_on_c, 0, 64, 107
2, 76008, Note_off_c, 0, 64, 64
2, 76020, Note_on_c, 0, 65, 107
2, 76068, Note_off_c, 0, 65, 64
2, 76080, Note_on_c, 0, 67, 107
2, 76128, Note_off_c, 0, 67, 64
2, 76140, Note_on_c, 0, 70, 107
2, 76188, Note_off_c, 0, 70, 64
2, 76200, Note_on_c, 0, 65, 107
2, 76248, Note_off_c, 0, 65, 64
2, 76260, Note_on_c, 0, 64, 107
2, 76308, Note_off_c, 0, 64, 64
2, 76320, Note_on_c, 0, 62, 107
2, 76368, Note_off_c, 0, 62, 64
2, 76380, Note_on_c, 0, 64, 107
2, 76428, Note_off_c, 0, 64, 64
2, 76440, Note_on_c, 0, 65, 107
2, 76488, Note_off_c, 0, 65, 64
2, 76500, Note_on_c, 0, 71, 107
2, 76548, Note_off_c, 0, 71, 64
2, 76560, Note_on_c, 0, 64, 107
2, 76608, Note_off_c, 0, 64, 64
2, 76620, Note_on_c, 0, 62, 107
2, 76668, Note_off_c, 0, 62, 64
2, 76680, Note_on_c, 0, 61, 107
2, 76776, Note_off_c, 0, 61, 64
2, 76800, Note_on_c, 0, 62, 107
2, 76848, Note_off_c, 0, 62, 64
2, 76860, Note_on_c, 0, 64, 107
2, 76908, Note_off_c, 0, 64, 64
2, 76920, Note_on_c, 0, 65, 107
2, 76968, Note_off_c, 0, 65, 64
2, 76980, Note_on_c, 0, 67, 107
2, 77028, Note_off_c, 0, 67, 64
2, 77040, Note_on_c, 0, 69, 107
2, 77088, Note_off_c, 0, 69, 64
2, 77100, Note_on_c, 0, 71, 107
2, 77148, Note_off_c, 0, 71, 64
2, 77160, Note_on_c, 0, 73, 107
2, 77208, Note_off_c, 0, 73, 64
2, 77220, Note_on_c, 0, 74, 107
2, 77268, Note_off_c, 0, 74, 64
2, 77280, Note_on_c, 0, 76, 107
2, 77328, Note_off_c, 0, 76, 64
2, 77340, Note_on_c, 0, 77, 107
2, 77388, Note_off_c, 0, 77, 64
2, 77400, Note_on_c, 0, 79, 107
2, 77448, Note_off_c, 0, 79, 64
2, 77460, Note_on_c, 0, 77, 107
2, 77508, Note_off_c, 0, 77, 64
2, 77520, Note_on_c, 0, 76, 107
2, 77568, Note_off_c, 0, 76, 64
2, 77580, Note_on_c, 0, 77, 107
2, 77628, Note_off_c, 0, 77, 64
2, 77640, Note_on_c, 0, 79, 107
2, 77688, Note_off_c, 0, 79, 64
2, 77700, Note_on_c, 0, 76, 107
2, 77748, Note_off_c, 0, 76, 64
2, 77760, Note_on_c, 0, 77, 107
2, 77808, Note_off_c, 0, 77, 64
2, 77820, Note_on_c, 0, 74, 107
2, 77868, Note_off_c, 0, 74, 64
2, 77880, Note_on_c, 0, 72, 107
2, 77928, Note_off_c, 0, 72, 64
2, 77940, Note_on_c, 0, 70, 107
2, 77988, Note_off_c, 0, 70, 64
2, 78000, Note_on_c, 0, 72, 107
2, 78048, Note_off_c, 0, 72, 64
2, 78060, Note_on_c, 0, 74, 107
2, 78108, Note_off_c, 0, 74, 64
2, 78120, Note_on_c, 0, 76, 107
2, 78168, Note_off_c, 0, 76, 64
2, 78180, Note_on_c, 0, 72, 107
2, 78228, Note_off_c, 0, 72, 64
2, 78240, Note_on_c, 0, 70, 107
2, 78288, Note_off_c, 0, 70, 64
2, 78300, Note_on_c, 0, 69, 107
2, 78348, Note_off_c, 0, 69, 64
2, 78360, Note_on_c, 0, 70, 107
2, 78408, Note_off_c, 0, 70, 64
2, 78420, Note_on_c, 0, 72, 107
2, 78468, Note_off_c, 0, 72, 64
2, 78480, Note_on_c, 0, 74, 107
2, 78528, Note_off_c, 0, 74, 64
2, 78540, Note_on_c, 0, 70, 107
2, 78588, Note_off_c, 0, 70, 64
2, 78600, Note_on_c, 0, 69, 107
2, 78648, Note_off_c, 0, 69, 64
2, 78660, Note_on_c, 0, 67, 107
2, 78708, Note_off_c, 0, 67, 64
2, 78720, Note_on_c, 0, 69, 107
2, 78768, Note_off_c, 0, 69, 64
2, 78780, Note_on_c, 0, 70, 107
2, 78828, Note_off_c, 0, 70, 64
2, 78840, Note_on_c, 0, 72, 107
2, 78888, Note_off_c, 0, 72, 64
2, 78900, Note_on_c, 0, 69, 107
2, 78948, Note_off_c, 0, 69, 64
2, 78960, Note_on_c, 0, 67, 107
2, 79008, Note_off_c, 0, 67, 64
2, 79020, Note_on_c, 0, 65, 107
2, 79068, Note_off_c, 0, 65, 64
2, 79080, Note_on_c, 0, 67, 107
2, 79128, Note_off_c, 0, 67, 64
2, 79140, Note_on_c, 0, 69, 107
2, 79188, Note_off_c, 0, 69, 64
2, 79200, Note_on_c, 0, 70, 107
2, 79248, Note_off_c, 0, 70, 64
2, 79260, Note_on_c, 0, 67, 107
2, 79308, Note_off_c, 0, 67, 64
2, 79320, Note_on_c, 0, 65, 107
2, 79368, Note_off_c, 0, 65, 64
2, 79380, Note_on_c, 0, 64, 107
2, 79428, Note_off_c, 0, 64, 64
2, 79440, Note_on_c, 0, 65, 107
2, 79488, Note_off_c, 0, 65, 64
2, 79500, Note_on_c, 0, 67, 107
2, 79548, Note_off_c, 0, 67, 64
2, 79560, Note_on_c, 0, 69, 107
2, 79608, Note_off_c, 0, 69, 64
2, 79620, Note_on_c, 0, 65, 107
2, 79668, Note_off_c, 0, 65, 64
2, 79680, Note_on_c, 0, 64, 107
2, 79728, Note_off_c, 0, 64, 64
2, 79740, Note_on_c, 0, 62, 107
2, 79788, Note_off_c, 0, 62, 64
2, 79800, Note_on_c, 0, 64, 107
2, 79848, Note_off_c, 0, 64, 64
2, 79860, Note_on_c, 0, 65, 107
2, 79908, Note_off_c, 0, 65, 64
2, 79920, Note_on_c, 0, 67, 107
2, 80328, Note_off_c, 0, 67, 64
2, 80340, Note_on_c, 0, 70, 107
2, 80388, Note_off_c, 0, 70, 64
2, 80400, Note_on_c, 0, 69, 107
2, 80448, Note_off_c, 0, 69, 64
2, 80460, Note_on_c, 0, 67, 107
2, 80508, Note_off_c, 0, 67, 64
2, 80520, Note_on_c, 0, 65, 107
2, 80568, Note_off_c, 0, 65, 64
2, 80580, Note_on_c, 0, 64, 107
2, 80628, Note_off_c, 0, 64, 64
2, 80640, Note_on_c, 0, 65, 107
2, 80688, Note_off_c, 0, 65, 64
2, 80700, Note_on_c, 0, 69, 107
2, 80748, Note_off_c, 0, 69, 64
2, 80760, Note_on_c, 0, 67, 107
2, 80808, Note_off_c, 0, 67, 64
2, 80820, Note_on_c, 0, 65, 107
2, 80868, Note_off_c, 0, 65, 64
2, 80880, Note_on_c, 0, 64, 107
2, 80928, Note_off_c, 0, 64, 64
2, 80940, Note_on_c, 0, 62, 107
2, 80988, Note_off_c, 0, 62, 64
2, 81000, Note_on_c, 0, 61, 107
2, 81048, Note_off_c, 0, 61, 64
2, 81060, Note_on_c, 0, 62, 107
2, 81108, Note_off_c, 0, 62, 64
2, 81120, Note_on_c, 0, 64, 107
2, 81168, Note_off_c, 0, 64, 64
2, 81180, Note_on_c, 0, 69, 107
2, 81228, Note_off_c, 0, 69, 64
2, 81240, Note_on_c, 0, 61, 107
2, 81288, Note_off_c, 0, 61, 64
2, 81300, Note_on_c, 0, 64, 107
2, 81348, Note_off_c, 0, 64, 64
2, 81360, Note_on_c, 0, 62, 107
2, 81408, Note_off_c, 0, 62, 64
2, 81420, Note_on_c, 0, 64, 107
2, 81468, Note_off_c, 0, 64, 64
2, 81480, Note_on_c, 0, 65, 107
2, 81528, Note_off_c, 0, 65, 64
2, 81540, Note_on_c, 0, 70, 107
2, 81588, Note_off_c, 0, 70, 64
2, 81600, Note_on_c, 0, 62, 107
2, 81648, Note_off_c, 0, 62, 64
2, 81660, Note_on_c, 0, 65, 107
2, 81708, Note_off_c, 0, 65, 64
2, 81720, Note_on_c, 0, 64, 107
2, 81768, Note_off_c, 0, 64, 64
2, 81780, Note_on_c, 0, 65, 107
2, 81828, Note_off_c, 0, 65, 64
2, 81840, Note_on_c, 0, 67, 107
2, 81888, Note_off_c, 0, 67, 64
2, 81900, Note_on_c, 0, 72, 107
2, 81948, Note_off_c, 0, 72, 64
2, 81960, Note_on_c, 0, 64, 107
2, 82008, Note_off_c, 0, 64, 64
2, 82020, Note_on_c, 0, 67, 107
2, 82068, Note_off_c, 0, 67, 64
2, 82080, Note_on_c, 0, 65, 107
2, 82128, Note_off_c, 0, 65, 64
2, 82140, Note_on_c, 0, 67, 107
2, 82188, Note_off_c, 0, 67, 64
2, 82200, Note_on_c, 0, 69, 107
2, 82248, Note_off_c, 0, 69, 64
2, 82260, Note_on_c, 0, 74, 107
2, 82308, Note_off_c, 0, 74, 64
2, 82320, Note_on_c, 0, 66, 107
2, 82368, Note_off_c, 0, 66, 64
2, 82380, Note_on_c, 0, 69, 107
2, 82428, Note_off_c, 0, 69, 64
2, 82440, Note_on_c, 0, 67, 107
2, 82488, Note_off_c, 0, 67, 64
2, 82500, Note_on_c, 0, 69, 107
2, 82548, Note_off_c, 0, 69, 64
2, 82560, Note_on_c, 0, 71, 107
2, 82608, Note_off_c, 0, 71, 64
2, 82620, Note_on_c, 0, 76, 107
2, 82668, Note_off_c, 0, 76, 64
2, 82680, Note_on_c, 0, 68, 107
2, 82728, Note_off_c, 0, 68, 64
2, 82740, Note_on_c, 0, 71, 107
2, 82788, Note_off_c, 0, 71, 64
2, 82800, Note_on_c, 0, 69, 107
2, 82848, Note_off_c, 0, 69, 64
2, 82860, Note_on_c, 0, 71, 107
2, 82908, Note_off_c, 0, 71, 64
2, 82920, Note_on_c, 0, 73, 107
2, 82968, Note_off_c, 0, 73, 64
2, 82980, Note_on_c, 0, 74, 107
2, 83028, Note_off_c, 0, 74, 64
2, 83040, Note_on_c, 0, 76, 107
2, 83088, Note_off_c, 0, 76, 64
2, 83100, Note_on_c, 0, 77, 107
2, 83148, Note_off_c, 0, 77, 64
2, 83160, Note_on_c, 0, 79, 107
2, 83208, Note_off_c, 0, 79, 64
2, 83220, Note_on_c, 0, 76, 107
2, 83268, Note_off_c, 0, 76, 64
2, 83280, Note_on_c, 0, 73, 107
2, 83328, Note_off_c, 0, 73, 64
2, 83340, Note_on_c, 0, 69, 107
2, 83388, Note_off_c, 0, 69, 64
2, 83400, Note_on_c, 0, 73, 107
2, 83448, Note_off_c, 0, 73, 64
2, 83460, Note_on_c, 0, 76, 107
2, 83508, Note_off_c, 0, 76, 64
2, 83520, Note_on_c, 0, 77, 107
2, 83568, Note_off_c, 0, 77, 64
2, 83580, Note_on_c, 0, 74, 107
2, 83628, Note_off_c, 0, 74, 64
2, 83640, Note_on_c, 0, 71, 107
2, 83688, Note_off_c, 0, 71, 64
2, 83700, Note_on_c, 0, 68, 107
2, 83748, Note_off_c, 0, 68, 64
2, 83760, Note_on_c, 0, 71, 107
2, 83808, Note_off_c, 0, 71, 64
2, 83820, Note_on_c, 0, 74, 107
2, 83868, Note_off_c, 0, 74, 64
2, 83880, Note_on_c, 0, 76, 107
2, 83928, Note_off_c, 0, 76, 64
2, 83940, Note_on_c, 0, 73, 107
2, 83988, Note_off_c, 0, 73, 64
2, 84000, Note_on_c, 0, 70, 107
2, 84048, Note_off_c, 0, 70, 64
2, 84060, Note_on_c, 0, 67, 107
2, 84108, Note_off_c, 0, 67, 64
2, 84120, Note_on_c, 0, 70, 107
2, 84168, Note_off_c, 0, 70, 64
2, 84180, Note_on_c, 0, 73, 107
2, 84228, Note_off_c, 0, 73, 64
2, 84240, Note_on_c, 0, 74, 107
2, 84288, Note_off_c, 0, 74, 64
2, 84300, Note_on_c, 0, 71, 107
2, 84348, Note_off_c, 0, 71, 64
2, 84360, Note_on_c, 0, 68, 107
2, 84408, Note_off_c, 0, 68, 64
2, 84420, Note_on_c, 0, 65, 107
2, 84468, Note_off_c, 0, 65, 64
2, 84480, Note_on_c, 0, 68, 107
2, 84528, Note_off_c, 0, 68, 64
2, 84540, Note_on_c, 0, 71, 107
2, 84588, Note_off_c, 0, 71, 64
2, 84600, Note_on_c, 0, 73, 107
2, 84648, Note_off_c, 0, 73, 64
2, 84660, Note_on_c, 0, 70, 107
2, 84708, Note_off_c, 0, 70, 64
2, 84720, Note_on_c, 0, 67, 107
2, 84768, Note_off_c, 0, 67, 64
2, 84780, Note_on_c, 0, 64, 107
2, 84828, Note_off_c, 0, 64, 64
2, 84840, Note_on_c, 0, 67, 107
2, 84888, Note_off_c, 0, 67, 64
2, 84900, Note_on_c, 0, 70, 107
2, 84948, Note_off_c, 0, 70, 64
2, 84960, Note_on_c, 0, 73, 107
2, 85008, Note_off_c, 0, 73, 64
2, 85020, Note_on_c, 0, 76, 107
2, 85068, Note_off_c, 0, 76, 64
2, 85080, Note_on_c, 0, 74, 107
2, 85128, Note_off_c, 0, 74, 64
2, 85140, Note_on_c, 0, 73, 107
2, 85188, Note_off_c, 0, 73, 64
2, 85200, Note_on_c, 0, 71, 107
2, 85248, Note_off_c, 0, 71, 64
2, 85260, Note_on_c, 0, 69, 107
2, 85308, Note_off_c, 0, 69, 64
2, 85320, Note_on_c, 0, 74, 107
2, 85416, Note_off_c, 0, 74, 64
2, 85440, Note_on_c, 0, 69, 107
2, 85536, Note_off_c, 0, 69, 64
2, 85560, Note_on_c, 0, 65, 107
2, 85650, Note_off_c, 0, 65, 64
2, 85680, Note_on_c, 0, 62, 107
2, 85776, Note_off_c, 0, 62, 64
2, 85800, Note_on_c, 0, 69, 107
2, 85896, Note_off_c, 0, 69, 64
2, 85920, Note_on_c, 0, 65, 107
2, 86010, Note_off_c, 0, 65, 64
2, 86040, Note_on_c, 0, 62, 107
2, 86136, Note_off_c, 0, 62, 64
2, 86160, Note_on_c, 0, 69, 107
2, 86256, Note_off_c, 0, 69, 64
2, 86280, Note_on_c, 0, 65, 107
2, 86370, Note_off_c, 0, 65, 64
2, 86400, Note_on_c, 0, 62, 107
2, 86496, Note_off_c, 0, 62, 64
2, 86520, Note_on_c, 0, 69, 107
2, 86616, Note_off_c, 0, 69, 64
2, 86640, Note_on_c, 0, 65, 107
2, 86730, Note_off_c, 0, 65, 64
2, 86760, Note_on_c, 0, 62, 107
2, 86856, Note_off_c, 0, 62, 64
2, 86880, Note_on_c, 0, 68, 107
2, 86976, Note_off_c, 0, 68, 64
2, 87000, Note_on_c, 0, 65, 107
2, 87090, Note_off_c, 0, 65, 64
2, 87120, Note_on_c, 0, 62, 107
2, 87216, Note_off_c, 0, 62, 64
2, 87240, Note_on_c, 0, 69, 107
2, 87336, Note_off_c, 0, 69, 64
2, 87360, Note_on_c, 0, 65, 107
2, 87450, Note_off_c, 0, 65, 64
2, 87480, Note_on_c, 0, 62, 107
2, 87528, Note_off_c, 0, 62, 64
2, 87540, Note_on_c, 0, 64, 107
2, 87588, Note_off_c, 0, 64, 64
2, 87600, Note_on_c, 0, 65, 107
2, 87648, Note_off_c, 0, 65, 64
2, 87660, Note_on_c, 0, 71, 107
2, 87708, Note_off_c, 0, 71, 64
2, 87720, Note_on_c, 0, 65, 107
2, 87768, Note_off_c, 0, 65, 64
2, 87780, Note_on_c, 0, 64, 107
2, 87828, Note_off_c, 0, 64, 64
2, 87840, Note_on_c, 0, 62, 107
2, 87888, Note_off_c, 0, 62, 64
2, 87900, Note_on_c, 0, 64, 107
2, 87948, Note_off_c, 0, 64, 64
2, 87960, Note_on_c, 0, 65, 107
2, 88008, Note_off_c, 0, 65, 64
2, 88020, Note_on_c, 0, 71, 107
2, 88068, Note_off_c, 0, 71, 64
2, 88080, Note_on_c, 0, 64, 107
2, 88128, Note_off_c, 0, 64, 64
2, 88140, Note_on_c, 0, 62, 107
2, 88188, Note_off_c, 0, 62, 64
2, 88200, Note_on_c, 0, 61, 107
2, 88248, Note_off_c, 0, 61, 64
2, 88260, Note_on_c, 0, 64, 107
2, 88308, Note_off_c, 0, 64, 64
2, 88320, Note_on_c, 0, 67, 107
2, 88368, Note_off_c, 0, 67, 64
2, 88380, Note_on_c, 0, 70, 107
2, 88428, Note_off_c, 0, 70, 64
2, 88440, Note_on_c, 0, 69, 107
2, 88488, Note_off_c, 0, 69, 64
2, 88500, Note_on_c, 0, 67, 107
2, 88548, Note_off_c, 0, 67, 64
2, 88560, Note_on_c, 0, 69, 107
2, 88608, Note_off_c, 0, 69, 64
2, 88620, Note_on_c, 0, 67, 107
2, 88668, Note_off_c, 0, 67, 64
2, 88680, Note_on_c, 0, 65, 107
2, 88728, Note_off_c, 0, 65, 64
2, 88740, Note_on_c, 0, 64, 107
2, 88788, Note_off_c, 0, 64, 64
2, 88800, Note_on_c, 0, 62, 107
2, 88848, Note_off_c, 0, 62, 64
2, 88860, Note_on_c, 0, 60, 107
2, 88908, Note_off_c, 0, 60, 64
2, 88920, Note_on_c, 0, 59, 107
2, 88968, Note_off_c, 0, 59, 64
2, 88980, Note_on_c, 0, 57, 107
2, 89028, Note_off_c, 0, 57, 64
2, 89040, Note_on_c, 0, 59, 107
2, 89088, Note_off_c, 0, 59, 64
2, 89100, Note_on_c, 0, 61, 107
2, 89148, Note_off_c, 0, 61, 64
2, 89160, Note_on_c, 0, 62, 107
2, 89208, Note_off_c, 0, 62, 64
2, 89220, Note_on_c, 0, 64, 107
2, 89268, Note_off_c, 0, 64, 64
2, 89280, Note_on_c, 0, 61, 107
2, 89328, Note_off_c, 0, 61, 64
2, 89340, Note_on_c, 0, 59, 107
2, 89388, Note_off_c, 0, 59, 64
2, 89400, Note_on_c, 0, 61, 107
2, 89448, Note_off_c, 0, 61, 64
2, 89460, Note_on_c, 0, 62, 107
2, 89508, Note_off_c, 0, 62, 64
2, 89520, Note_on_c, 0, 64, 107
2, 89568, Note_off_c, 0, 64, 64
2, 89580, Note_on_c, 0, 55, 107
2, 89628, Note_off_c, 0, 55, 64
2, 89700, Note_on_c, 0, 69, 107
2, 89748, Note_off_c, 0, 69, 64
2, 89760, Note_on_c, 0, 71, 107
2, 89808, Note_off_c, 0, 71, 64
2, 89820, Note_on_c, 0, 73, 107
2, 89868, Note_off_c, 0, 73, 64
2, 89880, Note_on_c, 0, 74, 107
2, 89928, Note_off_c, 0, 74, 64
2, 89940, Note_on_c, 0, 76, 107
2, 89988, Note_off_c, 0, 76, 64
2, 90000, Note_on_c, 0, 77, 107
2, 90090, Note_off_c, 0, 77, 64
2, 90120, Note_on_c, 0, 76, 107
2, 90210, Note_off_c, 0, 76, 64
2, 90240, Note_on_c, 0, 74, 107
2, 90330, Note_off_c, 0, 74, 64
2, 90360, Note_on_c, 0, 76, 107
2, 90456, Note_off_c, 0, 76, 64
2, 90480, Note_on_c, 0, 77, 107
2, 90528, Note_off_c, 0, 77, 64
2, 90540, Note_on_c, 0, 76, 107
2, 90588, Note_off_c, 0, 76, 64
2, 90600, Note_on_c, 0, 74, 107
2, 90648, Note_off_c, 0, 74, 64
2, 90660, Note_on_c, 0, 73, 107
2, 90708, Note_off_c, 0, 73, 64
2, 90720, Note_on_c, 0, 81, 107
2, 90768, Note_off_c, 0, 81, 64
2, 90780, Note_on_c, 0, 79, 107
2, 90828, Note_off_c, 0, 79, 64
2, 90840, Note_on_c, 0, 77, 107
2, 90888, Note_off_c, 0, 77, 64
2, 90900, Note_on_c, 0, 76, 107
2, 90948, Note_off_c, 0, 76, 64
2, 90960, Note_on_c, 0, 74, 107
2, 91008, Note_off_c, 0, 74, 64
2, 91020, Note_on_c, 0, 73, 107
2, 91068, Note_off_c, 0, 73, 64
2, 91080, Note_on_c, 0, 74, 107
2, 91128, Note_off_c, 0, 74, 64
2, 91140, Note_on_c, 0, 76, 107
2, 91188, Note_off_c, 0, 76, 64
2, 91200, Note_on_c, 0, 74, 107
2, 91248, Note_off_c, 0, 74, 64
2, 91260, Note_on_c, 0, 76, 107
2, 91308, Note_off_c, 0, 76, 64
2, 91320, Note_on_c, 0, 77, 107
2, 91320, Note_on_c, 0, 70, 107
2, 91410, Note_off_c, 0, 77, 64
2, 91416, Note_off_c, 0, 70, 64
2, 91440, Note_on_c, 0, 69, 107
2, 91440, Note_on_c, 0, 69, 107
2, 91536, Note_off_c, 0, 69, 64
2, 91560, Note_on_c, 0, 74, 107
2, 91632, Note_off_c, 0, 69, 64
2, 91656, Note_off_c, 0, 74, 64
2, 91680, Note_on_c, 0, 73, 107
2, 91680, Note_on_c, 0, 67, 107
2, 91770, Note_off_c, 0, 73, 64
2, 91776, Note_off_c, 0, 67, 64
2, 91800, Note_on_c, 0, 74, 107
2, 91800, Note_on_c, 0, 65, 107
2, 91896, Note_off_c, 0, 74, 64
2, 91920, Note_on_c, 0, 69, 107
2, 91992, Note_off_c, 0, 65, 64
2, 92016, Note_off_c, 0, 69, 64
2, 92040, Note_on_c, 0, 69, 107
2, 92130, Note_off_c, 0, 69, 64
2, 92160, Note_on_c, 0, 69, 107
2, 92250, Note_off_c, 0, 69, 64
2, 92280, Note_on_c, 0, 69, 107
2, 92370, Note_off_c, 0, 69, 64
2, 92400, Note_on_c, 0, 65, 107
2, 92400, Note_on_c, 0, 69, 107
2, 92490, Note_off_c, 0, 69, 64
2, 92496, Note_off_c, 0, 65, 64
2, 92520, Note_on_c, 0, 67, 107
2, 92520, Note_on_c, 0, 70, 107
2, 92568, Note_off_c, 0, 70, 64
2, 92580, Note_on_c, 0, 72, 107
2, 92628, Note_off_c, 0, 72, 64
2, 92640, Note_on_c, 0, 74, 107
2, 92688, Note_off_c, 0, 74, 64
2, 92700, Note_on_c, 0, 70, 107
2, 92712, Note_off_c, 0, 67, 64
2, 92748, Note_off_c, 0, 70, 64
2, 92760, Note_on_c, 0, 72, 107
2, 92760, Note_on_c, 0, 65, 107
2, 92808, Note_off_c, 0, 72, 64
2, 92820, Note_on_c, 0, 74, 107
2, 92856, Note_off_c, 0, 65, 64
2, 92868, Note_off_c, 0, 74, 64
2, 92880, Note_on_c, 0, 64, 107
2, 92880, Note_on_c, 0, 67, 107
2, 92970, Note_off_c, 0, 67, 64
2, 93000, Note_on_c, 0, 67, 107
2, 93090, Note_off_c, 0, 67, 64
2, 93120, Note_on_c, 0, 67, 107
2, 93168, Note_off_c, 0, 64, 64
2, 93210, Note_off_c, 0, 67, 64
2, 93240, Note_on_c, 0, 67, 107
2, 93330, Note_off_c, 0, 67, 64
2, 93360, Note_on_c, 0, 67, 107
2, 93450, Note_off_c, 0, 67, 64
2, 93480, Note_on_c, 0, 64, 107
2, 93480, Note_on_c, 0, 67, 107
2, 93570, Note_off_c, 0, 67, 64
2, 93576, Note_off_c, 0, 64, 64
2, 93600, Note_on_c, 0, 65, 107
2, 93600, Note_on_c, 0, 69, 107
2, 93648, Note_off_c, 0, 69, 64
2, 93660, Note_on_c, 0, 70, 107
2, 93708, Note_off_c, 0, 70, 64
2, 93720, Note_on_c, 0, 72, 107
2, 93768, Note_off_c, 0, 72, 64
2, 93780, Note_on_c, 0, 69, 107
2, 93792, Note_off_c, 0, 65, 64
2, 93828, Note_off_c, 0, 69, 64
2, 93840, Note_on_c, 0, 70, 107
2, 93840, Note_on_c, 0, 64, 107
2, 93888, Note_off_c, 0, 70, 64
2, 93900, Note_on_c, 0, 72, 107
2, 93936, Note_off_c, 0, 64, 64
2, 93948, Note_off_c, 0, 72, 64
2, 93960, Note_on_c, 0, 65, 107
2, 94008, Note_off_c, 0, 65, 64
2, 94020, Note_on_c, 0, 67, 107
2, 94068, Note_off_c, 0, 67, 64
2, 94080, Note_on_c, 0, 69, 107
2, 94128, Note_off_c, 0, 69, 64
2, 94140, Note_on_c, 0, 65, 107
2, 94188, Note_off_c, 0, 65, 64
2, 94200, Note_on_c, 0, 67, 107
2, 94248, Note_off_c, 0, 67, 64
2, 94260, Note_on_c, 0, 69, 107
2, 94308, Note_off_c, 0, 69, 64
2, 94320, Note_on_c, 0, 70, 107
2, 94368, Note_off_c, 0, 70, 64
2, 94380, Note_on_c, 0, 72, 107
2, 94428, Note_off_c, 0, 72, 64
2, 94440, Note_on_c, 0, 74, 107
2, 94488, Note_off_c, 0, 74, 64
2, 94500, Note_on_c, 0, 70, 107
2, 94548, Note_off_c, 0, 70, 64
2, 94560, Note_on_c, 0, 72, 107
2, 94608, Note_off_c, 0, 72, 64
2, 94620, Note_on_c, 0, 74, 107
2, 94668, Note_off_c, 0, 74, 64
2, 94680, Note_on_c, 0, 76, 107
2, 94728, Note_off_c, 0, 76, 64
2, 94740, Note_on_c, 0, 77, 107
2, 94788, Note_off_c, 0, 77, 64
2, 94800, Note_on_c, 0, 79, 107
2, 94848, Note_off_c, 0, 79, 64
2, 94860, Note_on_c, 0, 76, 107
2, 94908, Note_off_c, 0, 76, 64
2, 94920, Note_on_c, 0, 77, 107
2, 94968, Note_off_c, 0, 77, 64
2, 94980, Note_on_c, 0, 79, 107
2, 95028, Note_off_c, 0, 79, 64
2, 95040, Note_on_c, 0, 72, 107
2, 95448, Note_off_c, 0, 72, 64
2, 95460, Note_on_c, 0, 72, 107
2, 95508, Note_off_c, 0, 72, 64
2, 95520, Note_on_c, 0, 74, 107
2, 95568, Note_off_c, 0, 74, 64
2, 95580, Note_on_c, 0, 76, 107
2, 95628, Note_off_c, 0, 76, 64
2, 95640, Note_on_c, 0, 74, 107
2, 95688, Note_off_c, 0, 74, 64
2, 95700, Note_on_c, 0, 72, 107
2, 95748, Note_off_c, 0, 72, 64
2, 95760, Note_on_c, 0, 71, 107
2, 95808, Note_off_c, 0, 71, 64
2, 95820, Note_on_c, 0, 72, 107
2, 95868, Note_off_c, 0, 72, 64
2, 95880, Note_on_c, 0, 74, 107
2, 95928, Note_off_c, 0, 74, 64
2, 95940, Note_on_c, 0, 76, 107
2, 95988, Note_off_c, 0, 76, 64
2, 96000, Note_on_c, 0, 77, 107
2, 96048, Note_off_c, 0, 77, 64
2, 96060, Note_on_c, 0, 71, 107
2, 96108, Note_off_c, 0, 71, 64
2, 96120, Note_on_c, 0, 72, 107
2, 96120, Note_on_c, 0, 76, 107
2, 96408, Note_off_c, 0, 76, 64
2, 96408, Note_off_c, 0, 72, 64
2, 96720, Note_on_c, 0, 69, 107
2, 96720, Note_on_c, 0, 78, 107
2, 96810, Note_off_c, 0, 78, 64
2, 96816, Note_off_c, 0, 69, 64
2, 96840, Note_on_c, 0, 79, 107
2, 96840, Note_on_c, 0, 70, 107
2, 96930, Note_off_c, 0, 79, 64
2, 96936, Note_off_c, 0, 70, 64
2, 96960, Note_on_c, 0, 81, 107
2, 96960, Note_on_c, 0, 72, 107
2, 97050, Note_off_c, 0, 81, 64
2, 97056, Note_off_c, 0, 72, 64
2, 97080, Note_on_c, 0, 82, 107
2, 97080, Note_on_c, 0, 74, 107
2, 97170, Note_off_c, 0, 82, 64
2, 97176, Note_off_c, 0, 74, 64
2, 97200, Note_on_c, 0, 78, 107
2, 97200, Note_on_c, 0, 69, 107
2, 97488, Note_off_c, 0, 69, 64
2, 97488, Note_off_c, 0, 78, 64
2, 97800, Note_on_c, 0, 80, 107
2, 97800, Note_on_c, 0, 71, 107
2, 97896, Note_off_c, 0, 71, 64
2, 97896, Note_off_c, 0, 80, 64
2, 97920, Note_on_c, 0, 72, 107
2, 97920, Note_on_c, 0, 81, 107
2, 98016, Note_off_c, 0, 81, 64
2, 98016, Note_off_c, 0, 72, 64
2, 98040, Note_on_c, 0, 74, 107
2, 98040, Note_on_c, 0, 83, 107
2, 98136, Note_off_c, 0, 83, 64
2, 98136, Note_off_c, 0, 74, 64
2, 98160, Note_on_c, 0, 84, 107
2, 98160, Note_on_c, 0, 76, 107
2, 98256, Note_off_c, 0, 76, 64
2, 98256, Note_off_c, 0, 84, 64
2, 98280, Note_on_c, 0, 80, 107
2, 98280, Note_on_c, 0, 71, 107
2, 98328, Note_off_c, 0, 80, 64
2, 98340, Note_on_c, 0, 83, 107
2, 98376, Note_off_c, 0, 71, 64
2, 98388, Note_off_c, 0, 83, 64
2, 98400, Note_on_c, 0, 81, 107
2, 98448, Note_off_c, 0, 81, 64
2, 98460, Note_on_c, 0, 79, 107
2, 98508, Note_off_c, 0, 79, 64
2, 98520, Note_on_c, 0, 77, 107
2, 98568, Note_off_c, 0, 77, 64
2, 98580, Note_on_c, 0, 76, 107
2, 98628, Note_off_c, 0, 76, 64
2, 98640, Note_on_c, 0, 74, 107
2, 98688, Note_off_c, 0, 74, 64
2, 98700, Note_on_c, 0, 77, 107
2, 98748, Note_off_c, 0, 77, 64
2, 98760, Note_on_c, 0, 76, 107
2, 98808, Note_off_c, 0, 76, 64
2, 98820, Note_on_c, 0, 74, 107
2, 98868, Note_off_c, 0, 74, 64
2, 98880, Note_on_c, 0, 72, 107
2, 98928, Note_off_c, 0, 72, 64
2, 98940, Note_on_c, 0, 71, 107
2, 98988, Note_off_c, 0, 71, 64
2, 99000, Note_on_c, 0, 69, 107
2, 99048, Note_off_c, 0, 69, 64
2, 99060, Note_on_c, 0, 72, 107
2, 99108, Note_off_c, 0, 72, 64
2, 99120, Note_on_c, 0, 71, 107
2, 99168, Note_off_c, 0, 71, 64
2, 99180, Note_on_c, 0, 69, 107
2, 99228, Note_off_c, 0, 69, 64
2, 99240, Note_on_c, 0, 68, 107
2, 99288, Note_off_c, 0, 68, 64
2, 99300, Note_on_c, 0, 69, 107
2, 99348, Note_off_c, 0, 69, 64
2, 99360, Note_on_c, 0, 68, 107
2, 99456, Note_off_c, 0, 68, 64
2, 99480, Note_on_c, 0, 64, 107
2, 99480, Note_on_c, 0, 64, 107
2, 99576, Note_off_c, 0, 64, 64
2, 99576, Note_off_c, 0, 64, 64
2, 99600, Note_on_c, 0, 64, 107
2, 99600, Note_on_c, 0, 64, 107
2, 99696, Note_off_c, 0, 64, 64
2, 99696, Note_off_c, 0, 64, 64
2, 99720, Note_on_c, 0, 64, 107
2, 99720, Note_on_c, 0, 69, 107
2, 99768, Note_off_c, 0, 69, 64
2, 99780, Note_on_c, 0, 71, 107
2, 99828, Note_off_c, 0, 71, 64
2, 99840, Note_on_c, 0, 72, 107
2, 99888, Note_off_c, 0, 72, 64
2, 99900, Note_on_c, 0, 69, 107
2, 99948, Note_off_c, 0, 69, 64
2, 99960, Note_on_c, 0, 71, 107
2, 100008, Note_off_c, 0, 71, 64
2, 100020, Note_on_c, 0, 72, 107
2, 100068, Note_off_c, 0, 72, 64
2, 100080, Note_on_c, 0, 71, 107
2, 100128, Note_off_c, 0, 71, 64
2, 100140, Note_on_c, 0, 72, 107
2, 100188, Note_off_c, 0, 72, 64
2, 100200, Note_on_c, 0, 74, 107
2, 100248, Note_off_c, 0, 74, 64
2, 100260, Note_on_c, 0, 71, 107
2, 100308, Note_off_c, 0, 71, 64
2, 100320, Note_on_c, 0, 72, 107
2, 100368, Note_off_c, 0, 72, 64
2, 100380, Note_on_c, 0, 74, 107
2, 100428, Note_off_c, 0, 74, 64
2, 100440, Note_on_c, 0, 72, 107
2, 100488, Note_off_c, 0, 64, 64
2, 100500, Note_on_c, 0, 66, 107
2, 100548, Note_off_c, 0, 66, 64
2, 100560, Note_on_c, 0, 67, 107
2, 100608, Note_off_c, 0, 67, 64
2, 100620, Note_on_c, 0, 64, 107
2, 100668, Note_off_c, 0, 64, 64
2, 100680, Note_on_c, 0, 66, 107
2, 100728, Note_off_c, 0, 66, 64
2, 100740, Note_on_c, 0, 67, 107
2, 100788, Note_off_c, 0, 67, 64
2, 100800, Note_on_c, 0, 66, 107
2, 100848, Note_off_c, 0, 72, 64
2, 100860, Note_on_c, 0, 74, 107
2, 100908, Note_off_c, 0, 74, 64
2, 100920, Note_on_c, 0, 76, 107
2, 100968, Note_off_c, 0, 76, 64
2, 100980, Note_on_c, 0, 72, 107
2, 101028, Note_off_c, 0, 72, 64
2, 101040, Note_on_c, 0, 74, 107
2, 101088, Note_off_c, 0, 74, 64
2, 101100, Note_on_c, 0, 76, 107
2, 101148, Note_off_c, 0, 76, 64
2, 101160, Note_on_c, 0, 74, 107
2, 101208, Note_off_c, 0, 66, 64
2, 101220, Note_on_c, 0, 67, 107
2, 101268, Note_off_c, 0, 67, 64
2, 101280, Note_on_c, 0, 69, 107
2, 101328, Note_off_c, 0, 69, 64
2, 101340, Note_on_c, 0, 66, 107
2, 101388, Note_off_c, 0, 66, 64
2, 101400, Note_on_c, 0, 67, 107
2, 101448, Note_off_c, 0, 67, 64
2, 101460, Note_on_c, 0, 69, 107
2, 101508, Note_off_c, 0, 69, 64
2, 101520, Note_on_c, 0, 67, 107
2, 101568, Note_off_c, 0, 74, 64
2, 101580, Note_on_c, 0, 76, 107
2, 101628, Note_off_c, 0, 76, 64
2, 101640, Note_on_c, 0, 77, 107
2, 101688, Note_off_c, 0, 77, 64
2, 101700, Note_on_c, 0, 74, 107
2, 101748, Note_off_c, 0, 74, 64
2, 101760, Note_on_c, 0, 76, 107
2, 101808, Note_off_c, 0, 76, 64
2, 101820, Note_on_c, 0, 77, 107
2, 101868, Note_off_c, 0, 77, 64
2, 101880, Note_on_c, 0, 76, 107
2, 101928, Note_off_c, 0, 67, 64
2, 101940, Note_on_c, 0, 69, 107
2, 101988, Note_off_c, 0, 69, 64
2, 102000, Note_on_c, 0, 71, 107
2, 102048, Note_off_c, 0, 71, 64
2, 102060, Note_on_c, 0, 68, 107
2, 102108, Note_off_c, 0, 68, 64
2, 102120, Note_on_c, 0, 69, 107
2, 102168, Note_off_c, 0, 69, 64
2, 102180, Note_on_c, 0, 71, 107
2, 102228, Note_off_c, 0, 71, 64
2, 102240, Note_on_c, 0, 69, 107
2, 102288, Note_off_c, 0, 76, 64
2, 102300, Note_on_c, 0, 77, 107
2, 102348, Note_off_c, 0, 77, 64
2, 102360, Note_on_c, 0, 79, 107
2, 102408, Note_off_c, 0, 79, 64
2, 102420, Note_on_c, 0, 76, 107
2, 102468, Note_off_c, 0, 76, 64
2, 102480, Note_on_c, 0, 77, 107
2, 102528, Note_off_c, 0, 77, 64
2, 102540, Note_on_c, 0, 79, 107
2, 102588, Note_off_c, 0, 79, 64
2, 102600, Note_on_c, 0, 77, 107
2, 102648, Note_off_c, 0, 69, 64
2, 102660, Note_on_c, 0, 70, 107
2, 102708, Note_off_c, 0, 70, 64
2, 102720, Note_on_c, 0, 72, 107
2, 102768, Note_off_c, 0, 72, 64
2, 102780, Note_on_c, 0, 69, 107
2, 102828, Note_off_c, 0, 69, 64
2, 102840, Note_on_c, 0, 70, 107
2, 102888, Note_off_c, 0, 70, 64
2, 102900, Note_on_c, 0, 72, 107
2, 102948, Note_off_c, 0, 72, 64
2, 102960, Note_on_c, 0, 74, 107
2, 103008, Note_off_c, 0, 74, 64
2, 103020, Note_on_c, 0, 76, 107
2, 103068, Note_off_c, 0, 76, 64
2, 103080, Note_on_c, 0, 77, 107
2, 103128, Note_off_c, 0, 77, 64
2, 103140, Note_on_c, 0, 74, 107
2, 103188, Note_off_c, 0, 74, 64
2, 103200, Note_on_c, 0, 76, 107
2, 103248, Note_off_c, 0, 76, 64
2, 103260, Note_on_c, 0, 77, 107
2, 103308, Note_off_c, 0, 77, 64
2, 103320, Note_on_c, 0, 70, 107
2, 103368, Note_off_c, 0, 70, 64
2, 103380, Note_on_c, 0, 72, 107
2, 103428, Note_off_c, 0, 72, 64
2, 103440, Note_on_c, 0, 74, 107
2, 103488, Note_off_c, 0, 74, 64
2, 103500, Note_on_c, 0, 70, 107
2, 103548, Note_off_c, 0, 70, 64
2, 103560, Note_on_c, 0, 72, 107
2, 103608, Note_off_c, 0, 72, 64
2, 103620, Note_on_c, 0, 74, 107
2, 103668, Note_off_c, 0, 74, 64
2, 103680, Note_on_c, 0, 68, 107
2, 103728, Note_off_c, 0, 77, 64
2, 103740, Note_on_c, 0, 76, 107
2, 103788, Note_off_c, 0, 76, 64
2, 103800, Note_on_c, 0, 74, 107
2, 103848, Note_off_c, 0, 74, 64
2, 103860, Note_on_c, 0, 77, 107
2, 103908, Note_off_c, 0, 77, 64
2, 103920, Note_on_c, 0, 76, 107
2, 103968, Note_off_c, 0, 76, 64
2, 103968, Note_off_c, 0, 68, 64
2, 103980, Note_on_c, 0, 74, 107
2, 104028, Note_off_c, 0, 74, 64
2, 104040, Note_on_c, 0, 72, 107
2, 104040, Note_on_c, 0, 69, 107
2, 104088, Note_off_c, 0, 72, 64
2, 104100, Note_on_c, 0, 71, 107
2, 104136, Note_off_c, 0, 69, 64
2, 104148, Note_off_c, 0, 71, 64
2, 104160, Note_on_c, 0, 69, 107
2, 104208, Note_off_c, 0, 69, 64
2, 104220, Note_on_c, 0, 72, 107
2, 104268, Note_off_c, 0, 72, 64
2, 104280, Note_on_c, 0, 71, 107
2, 104328, Note_off_c, 0, 71, 64
2, 104340, Note_on_c, 0, 69, 107
2, 104388, Note_off_c, 0, 69, 64
2, 104400, Note_on_c, 0, 75, 107
2, 104400, Note_on_c, 0, 69, 107
2, 104448, Note_off_c, 0, 75, 64
2, 104460, Note_on_c, 0, 76, 107
2, 104508, Note_off_c, 0, 76, 64
2, 104520, Note_on_c, 0, 78, 107
2, 104568, Note_off_c, 0, 78, 64
2, 104580, Note_on_c, 0, 75, 107
2, 104628, Note_off_c, 0, 75, 64
2, 104640, Note_on_c, 0, 76, 107
2, 104688, Note_off_c, 0, 76, 64
2, 104700, Note_on_c, 0, 78, 107
2, 104748, Note_off_c, 0, 78, 64
2, 104760, Note_off_c, 0, 69, 64
2, 104760, Note_on_c, 0, 68, 107
2, 104760, Note_on_c, 0, 64, 107
2, 105048, Note_off_c, 0, 64, 64
2, 105048, Note_off_c, 0, 68, 64
2, 105180, Note_on_c, 0, 66, 107
2, 105228, Note_off_c, 0, 66, 64
2, 105240, Note_on_c, 0, 68, 107
2, 105288, Note_off_c, 0, 68, 64
2, 105300, Note_on_c, 0, 69, 107
2, 105348, Note_off_c, 0, 69, 64
2, 105360, Note_on_c, 0, 71, 107
2, 105408, Note_off_c, 0, 71, 64
2, 105420, Note_on_c, 0, 72, 107
2, 105468, Note_off_c, 0, 72, 64
2, 105480, Note_on_c, 0, 74, 107
2, 105528, Note_off_c, 0, 74, 64
2, 105540, Note_on_c, 0, 72, 107
2, 105588, Note_off_c, 0, 72, 64
2, 105600, Note_on_c, 0, 76, 107
2, 105648, Note_off_c, 0, 76, 64
2, 105660, Note_on_c, 0, 74, 107
2, 105708, Note_off_c, 0, 74, 64
2, 105720, Note_on_c, 0, 72, 107
2, 105768, Note_off_c, 0, 72, 64
2, 105780, Note_on_c, 0, 71, 107
2, 105828, Note_off_c, 0, 71, 64
2, 105840, Note_on_c, 0, 72, 107
2, 105888, Note_off_c, 0, 72, 64
2, 105900, Note_on_c, 0, 69, 107
2, 105948, Note_off_c, 0, 69, 64
2, 105960, Note_on_c, 0, 71, 107
2, 106008, Note_off_c, 0, 71, 64
2, 106020, Note_on_c, 0, 73, 107
2, 106068, Note_off_c, 0, 73, 64
2, 106080, Note_on_c, 0, 74, 107
2, 106128, Note_off_c, 0, 74, 64
2, 106140, Note_on_c, 0, 76, 107
2, 106188, Note_off_c, 0, 76, 64
2, 106200, Note_on_c, 0, 77, 107
2, 106290, Note_off_c, 0, 77, 64
2, 106320, Note_on_c, 0, 76, 107
2, 106410, Note_off_c, 0, 76, 64
2, 106440, Note_on_c, 0, 74, 107
2, 106530, Note_off_c, 0, 74, 64
2, 106560, Note_on_c, 0, 76, 107
2, 106650, Note_off_c, 0, 76, 64
2, 106680, Note_on_c, 0, 74, 107
2, 106770, Note_off_c, 0, 74, 64
2, 106800, Note_on_c, 0, 73, 107
2, 106890, Note_off_c, 0, 73, 64
2, 106920, Note_on_c, 0, 74, 107
2, 107328, Note_off_c, 0, 74, 64
2, 107340, Note_on_c, 0, 71, 107
2, 107388, Note_off_c, 0, 71, 64
2, 107400, Note_on_c, 0, 69, 107
2, 107448, Note_off_c, 0, 69, 64
2, 107460, Note_on_c, 0, 68, 107
2, 107508, Note_off_c, 0, 68, 64
2, 107520, Note_on_c, 0, 69, 107
2, 107568, Note_off_c, 0, 69, 64
2, 107580, Note_on_c, 0, 71, 107
2, 107628, Note_off_c, 0, 71, 64
2, 107640, Note_on_c, 0, 64, 107
2, 108000, Note_on_c, 0, 60, 107
2, 108288, Note_off_c, 0, 60, 64
2, 108408, Note_off_c, 0, 64, 64
2, 108420, Note_on_c, 0, 66, 107
2, 108468, Note_off_c, 0, 66, 64
2, 108480, Note_on_c, 0, 68, 107
2, 108528, Note_off_c, 0, 68, 64
2, 108540, Note_on_c, 0, 69, 107
2, 108588, Note_off_c, 0, 69, 64
2, 108600, Note_on_c, 0, 71, 107
2, 108648, Note_off_c, 0, 71, 64
2, 108660, Note_on_c, 0, 72, 107
2, 108708, Note_off_c, 0, 72, 64
2, 108720, Note_on_c, 0, 62, 107
2, 108720, Note_on_c, 0, 62, 107
2, 108768, Note_off_c, 0, 62, 64
2, 108780, Note_on_c, 0, 64, 107
2, 108828, Note_off_c, 0, 64, 64
2, 108840, Note_on_c, 0, 66, 107
2, 108888, Note_off_c, 0, 66, 64
2, 108900, Note_on_c, 0, 68, 107
2, 108948, Note_off_c, 0, 68, 64
2, 108960, Note_on_c, 0, 69, 107
2, 109008, Note_off_c, 0, 69, 64
2, 109008, Note_off_c, 0, 62, 64
2, 109020, Note_on_c, 0, 71, 107
2, 109080, Note_on_c, 0, 60, 107
2, 109176, Note_off_c, 0, 71, 64
2, 109200, Note_on_c, 0, 64, 107
2, 109296, Note_off_c, 0, 64, 64
2, 109320, Note_on_c, 0, 69, 107
2, 109368, Note_off_c, 0, 60, 64
2, 109416, Note_off_c, 0, 69, 64
2, 109440, Note_on_c, 0, 69, 107
2, 109440, Note_on_c, 0, 59, 107
2, 109536, Note_off_c, 0, 69, 64
2, 109560, Note_on_c, 0, 67, 107
2, 109632, Note_off_c, 0, 59, 64
2, 109680, Note_on_c, 0, 59, 107
2, 109776, Note_off_c, 0, 59, 64
2, 109800, Note_on_c, 0, 57, 107
2, 109896, Note_off_c, 0, 67, 64
2, 109920, Note_on_c, 0, 60, 107
2, 110016, Note_off_c, 0, 60, 64
2, 110040, Note_on_c, 0, 65, 107
2, 110088, Note_off_c, 0, 57, 64
2, 110256, Note_off_c, 0, 65, 64
2, 110280, Note_on_c, 0, 64, 107
2, 110616, Note_off_c, 0, 64, 64
2, 110640, Note_on_c, 0, 57, 107
2, 110736, Note_off_c, 0, 57, 64
2, 110760, Note_on_c, 0, 62, 107
2, 110856, Note_off_c, 0, 62, 64
2, 110880, Note_on_c, 0, 62, 107
2, 110976, Note_off_c, 0, 62, 64
2, 111000, Note_on_c, 0, 60, 107
2, 111288, Note_off_c, 0, 60, 64
2, 111300, Note_on_c, 0, 56, 107
2, 111348, Note_off_c, 0, 56, 64
2, 111360, Note_on_c, 0, 57, 107
2, 111408, Note_off_c, 0, 57, 64
2, 111420, Note_on_c, 0, 60, 107
2, 111468, Note_off_c, 0, 60, 64
2, 111480, Note_on_c, 0, 54, 107
2, 111528, Note_off_c, 0, 54, 64
2, 111540, Note_on_c, 0, 57, 107
2, 111588, Note_off_c, 0, 57, 64
2, 113400, Note_on_c, 0, 57, 107
2, 113448, Note_off_c, 0, 57, 64
2, 113460, Note_on_c, 0, 59, 107
2, 113508, Note_off_c, 0, 59, 64
2, 113520, Note_on_c, 0, 60, 107
2, 113568, Note_off_c, 0, 60, 64
2, 113580, Note_on_c, 0, 62, 107
2, 113628, Note_off_c, 0, 62, 64
2, 113640, Note_on_c, 0, 64, 107
2, 113688, Note_off_c, 0, 64, 64
2, 113700, Note_on_c, 0, 65, 107
2, 113748, Note_off_c, 0, 65, 64
2, 113760, Note_on_c, 0, 67, 107
2, 113808, Note_off_c, 0, 67, 64
2, 113820, Note_on_c, 0, 65, 107
2, 113868, Note_off_c, 0, 65, 64
2, 113880, Note_on_c, 0, 64, 107
2, 113928, Note_off_c, 0, 64, 64
2, 113940, Note_on_c, 0, 65, 107
2, 113988, Note_off_c, 0, 65, 64
2, 114000, Note_on_c, 0, 67, 107
2, 114048, Note_off_c, 0, 67, 64
2, 114060, Note_on_c, 0, 69, 107
2, 114108, Note_off_c, 0, 69, 64
2, 114120, Note_on_c, 0, 70, 107
2, 114120, Note_on_c, 0, 64, 107
2, 114120, Note_on_c, 0, 61, 107
2, 114120, Note_on_c, 0, 67, 107
2, 114216, Note_off_c, 0, 67, 64
2, 114216, Note_off_c, 0, 61, 64
2, 114216, Note_off_c, 0, 64, 64
2, 114216, Note_off_c, 0, 70, 64
2, 114240, Note_on_c, 0, 65, 107
2, 114240, Note_on_c, 0, 62, 107
2, 114240, Note_on_c, 0, 69, 107
2, 114336, Note_off_c, 0, 69, 64
2, 114336, Note_off_c, 0, 62, 64
2, 114336, Note_off_c, 0, 65, 64
2, 114360, Note_on_c, 0, 61, 107
2, 114360, Note_on_c, 0, 64, 107
2, 114360, Note_on_c, 0, 67, 107
2, 114450, Note_off_c, 0, 67, 64
2, 114456, Note_off_c, 0, 64, 64
2, 114456, Note_off_c, 0, 61, 64
2, 114480, Note_on_c, 0, 65, 107
2, 115032, Note_off_c, 0, 65, 64
2, 115080, Note_on_c, 0, 62, 107
2, 115080, Note_on_c, 0, 60, 107
2, 115080, Note_on_c, 0, 65, 107
2, 115176, Note_off_c, 0, 65, 64
2, 115176, Note_off_c, 0, 60, 64
2, 115176, Note_off_c, 0, 62, 64
2, 115200, Note_on_c, 0, 59, 107
2, 115200, Note_on_c, 0, 65, 107
2, 115200, Note_on_c, 0, 69, 107
2, 115296, Note_off_c, 0, 69, 64
2, 115296, Note_off_c, 0, 65, 64
2, 115320, Note_on_c, 0, 67, 107
2, 115320, Note_on_c, 0, 64, 107
2, 115416, Note_off_c, 0, 64, 64
2, 115416, Note_off_c, 0, 67, 64
2, 115440, Note_on_c, 0, 65, 107
2, 115440, Note_on_c, 0, 62, 107
2, 115488, Note_off_c, 0, 59, 64
2, 115530, Note_off_c, 0, 65, 64
2, 115536, Note_off_c, 0, 62, 64
2, 115560, Note_on_c, 0, 64, 107
2, 116112, Note_off_c, 0, 64, 64
2, 116160, Note_on_c, 0, 64, 107
2, 116160, Note_on_c, 0, 64, 107
2, 116256, Note_off_c, 0, 64, 64
2, 116280, Note_on_c, 0, 69, 107
2, 116328, Note_off_c, 0, 69, 64
2, 116340, Note_on_c, 0, 71, 107
2, 116388, Note_off_c, 0, 71, 64
2, 116400, Note_on_c, 0, 69, 107
2, 116448, Note_off_c, 0, 69, 64
2, 116460, Note_on_c, 0, 71, 107
2, 116508, Note_off_c, 0, 71, 64
2, 116520, Note_on_c, 0, 72, 107
2, 116568, Note_off_c, 0, 64, 64
2, 116616, Note_off_c, 0, 72, 64
2, 116640, Note_on_c, 0, 62, 107
2, 117096, Note_off_c, 0, 62, 64
2, 117120, Note_on_c, 0, 59, 107
2, 117168, Note_off_c, 0, 59, 64
2, 117180, Note_on_c, 0, 60, 107
2, 117228, Note_off_c, 0, 60, 64
2, 117240, Note_on_c, 0, 57, 107
2, 117240, Note_on_c, 0, 62, 107
2, 117288, Note_off_c, 0, 62, 64
2, 117300, Note_on_c, 0, 64, 107
2, 117336, Note_off_c, 0, 57, 64
2, 117348, Note_off_c, 0, 64, 64
2, 117360, Note_on_c, 0, 62, 107
2, 117360, Note_on_c, 0, 65, 107
2, 117456, Note_off_c, 0, 65, 64
2, 117456, Note_off_c, 0, 62, 64
2, 117480, Note_on_c, 0, 60, 107
2, 117480, Note_on_c, 0, 64, 107
2, 117576, Note_off_c, 0, 64, 64
2, 117576, Note_off_c, 0, 60, 64
2, 117600, Note_on_c, 0, 62, 107
2, 117600, Note_on_c, 0, 59, 107
2, 117696, Note_off_c, 0, 59, 64
2, 117696, Note_off_c, 0, 62, 64
2, 117720, Note_on_c, 0, 60, 107
2, 117720, Note_on_c, 0, 57, 107
2, 117768, Note_off_c, 0, 60, 64
2, 117780, Note_on_c, 0, 62, 107
2, 117816, Note_off_c, 0, 57, 64
2, 117828, Note_off_c, 0, 62, 64
2, 117840, Note_on_c, 0, 64, 107
2, 117888, Note_off_c, 0, 64, 64
2, 117900, Note_on_c, 0, 60, 107
2, 117948, Note_off_c, 0, 60, 64
2, 117960, Note_on_c, 0, 62, 107
2, 118008, Note_off_c, 0, 62, 64
2, 118020, Note_on_c, 0, 64, 107
2, 118068, Note_off_c, 0, 64, 64
2, 118080, Note_on_c, 0, 65, 107
2, 118128, Note_off_c, 0, 65, 64
2, 118140, Note_on_c, 0, 67, 107
2, 118188, Note_off_c, 0, 67, 64
2, 118200, Note_on_c, 0, 69, 107
2, 118248, Note_off_c, 0, 69, 64
2, 118260, Note_on_c, 0, 65, 107
2, 118308, Note_off_c, 0, 65, 64
2, 118320, Note_on_c, 0, 67, 107
2, 118368, Note_off_c, 0, 67, 64
2, 118380, Note_on_c, 0, 69, 107
2, 118428, Note_off_c, 0, 69, 64
2, 118440, Note_on_c, 0, 71, 107
2, 118488, Note_off_c, 0, 71, 64
2, 118500, Note_on_c, 0, 72, 107
2, 118548, Note_off_c, 0, 72, 64
2, 118560, Note_on_c, 0, 74, 107
2, 118608, Note_off_c, 0, 74, 64
2, 118620, Note_on_c, 0, 71, 107
2, 118668, Note_off_c, 0, 71, 64
2, 118680, Note_on_c, 0, 72, 107
2, 118728, Note_off_c, 0, 72, 64
2, 118740, Note_on_c, 0, 74, 107
2, 118788, Note_off_c, 0, 74, 64
2, 118800, Note_on_c, 0, 64, 107
2, 118896, Note_off_c, 0, 64, 64
2, 118920, Note_on_c, 0, 66, 107
2, 118968, Note_off_c, 0, 66, 64
2, 118980, Note_on_c, 0, 68, 107
2, 119028, Note_off_c, 0, 68, 64
2, 119040, Note_on_c, 0, 69, 107
2, 119088, Note_off_c, 0, 69, 64
2, 119100, Note_on_c, 0, 71, 107
2, 119148, Note_off_c, 0, 71, 64
2, 119160, Note_on_c, 0, 72, 107
2, 119250, Note_off_c, 0, 72, 64
2, 119280, Note_on_c, 0, 71, 107
2, 119370, Note_off_c, 0, 71, 64
2, 119400, Note_on_c, 0, 69, 107
2, 119490, Note_off_c, 0, 69, 64
2, 119520, Note_on_c, 0, 71, 107
2, 119616, Note_off_c, 0, 71, 64
2, 119640, Note_on_c, 0, 72, 107
2, 119688, Note_off_c, 0, 72, 64
2, 119700, Note_on_c, 0, 71, 107
2, 119748, Note_off_c, 0, 71, 64
2, 119760, Note_on_c, 0, 69, 107
2, 119808, Note_off_c, 0, 69, 64
2, 119820, Note_on_c, 0, 68, 107
2, 119868, Note_off_c, 0, 68, 64
2, 119880, Note_on_c, 0, 76, 107
2, 119928, Note_off_c, 0, 76, 64
2, 119940, Note_on_c, 0, 74, 107
2, 119988, Note_off_c, 0, 74, 64
2, 120000, Note_on_c, 0, 72, 107
2, 120048, Note_off_c, 0, 72, 64
2, 120060, Note_on_c, 0, 71, 107
2, 120108, Note_off_c, 0, 71, 64
2, 120120, Note_on_c, 0, 69, 107
2, 120168, Note_off_c, 0, 69, 64
2, 120180, Note_on_c, 0, 68, 107
2, 120228, Note_off_c, 0, 68, 64
2, 120240, Note_on_c, 0, 69, 107
2, 120288, Note_off_c, 0, 69, 64
2, 120300, Note_on_c, 0, 71, 107
2, 120348, Note_off_c, 0, 71, 64
2, 120360, Note_on_c, 0, 69, 107
2, 120408, Note_off_c, 0, 69, 64
2, 120420, Note_on_c, 0, 71, 107
2, 120468, Note_off_c, 0, 71, 64
2, 120480, Note_on_c, 0, 65, 107
2, 120480, Note_on_c, 0, 72, 107
2, 120576, Note_off_c, 0, 72, 64
2, 120576, Note_off_c, 0, 65, 64
2, 120600, Note_on_c, 0, 64, 107
2, 120600, Note_on_c, 0, 64, 107
2, 120696, Note_off_c, 0, 64, 64
2, 120720, Note_on_c, 0, 69, 107
2, 120792, Note_off_c, 0, 64, 64
2, 120816, Note_off_c, 0, 69, 64
2, 120840, Note_on_c, 0, 62, 107
2, 120840, Note_on_c, 0, 68, 107
2, 120936, Note_off_c, 0, 68, 64
2, 120936, Note_off_c, 0, 62, 64
2, 120960, Note_on_c, 0, 69, 107
2, 120960, Note_on_c, 0, 61, 107
2, 121008, Note_off_c, 0, 61, 64
2, 121020, Note_on_c, 0, 57, 107
2, 121056, Note_off_c, 0, 69, 64
2, 121068, Note_off_c, 0, 57, 64
2, 121080, Note_on_c, 0, 59, 107
2, 121128, Note_off_c, 0, 59, 64
2, 121140, Note_on_c, 0, 61, 107
2, 121188, Note_off_c, 0, 61, 64
2, 121200, Note_on_c, 0, 62, 107
2, 121248, Note_off_c, 0, 62, 64
2, 121260, Note_on_c, 0, 64, 107
2, 121308, Note_off_c, 0, 64, 64
2, 121320, Note_on_c, 0, 65, 107
2, 121410, Note_off_c, 0, 65, 64
2, 121440, Note_on_c, 0, 64, 107
2, 121530, Note_off_c, 0, 64, 64
2, 121560, Note_on_c, 0, 62, 107
2, 121560, Note_on_c, 0, 57, 107
2, 121650, Note_off_c, 0, 62, 64
2, 121656, Note_off_c, 0, 57, 64
2, 121680, Note_on_c, 0, 58, 107
2, 121680, Note_on_c, 0, 64, 107
2, 121770, Note_off_c, 0, 64, 64
2, 121776, Note_off_c, 0, 58, 64
2, 121800, Note_on_c, 0, 62, 107
2, 121800, Note_on_c, 0, 57, 107
2, 121890, Note_off_c, 0, 62, 64
2, 121896, Note_off_c, 0, 57, 64
2, 121920, Note_on_c, 0, 61, 107
2, 121920, Note_on_c, 0, 55, 107
2, 122010, Note_off_c, 0, 61, 64
2, 122016, Note_off_c, 0, 55, 64
2, 122040, Note_on_c, 0, 62, 107
2, 122040, Note_on_c, 0, 57, 107
2, 122136, Note_off_c, 0, 57, 64
2, 122136, Note_off_c, 0, 62, 64
2, 122160, Note_on_c, 0, 57, 107
2, 122256, Note_off_c, 0, 57, 64
2, 122280, Note_on_c, 0, 57, 107
2, 122376, Note_off_c, 0, 57, 64
2, 122400, Note_on_c, 0, 57, 107
2, 122460, Note_on_c, 0, 69, 107
2, 122496, Note_off_c, 0, 57, 64
2, 122520, Note_on_c, 0, 57, 107
2, 122556, Note_off_c, 0, 69, 64
2, 122580, Note_on_c, 0, 67, 107
2, 122616, Note_off_c, 0, 57, 64
2, 122640, Note_on_c, 0, 57, 107
2, 122676, Note_off_c, 0, 67, 64
2, 122700, Note_on_c, 0, 65, 107
2, 122736, Note_off_c, 0, 57, 64
2, 122748, Note_off_c, 0, 65, 64
2, 122760, Note_on_c, 0, 57, 107
2, 122820, Note_on_c, 0, 67, 107
2, 122856, Note_off_c, 0, 57, 64
2, 122880, Note_on_c, 0, 57, 107
2, 122916, Note_off_c, 0, 67, 64
2, 122940, Note_on_c, 0, 65, 107
2, 122976, Note_off_c, 0, 57, 64
2, 123000, Note_on_c, 0, 57, 107
2, 123036, Note_off_c, 0, 65, 64
2, 123060, Note_on_c, 0, 64, 107
2, 123096, Note_off_c, 0, 57, 64
2, 123108, Note_off_c, 0, 64, 64
2, 123120, Note_on_c, 0, 65, 107
2, 123168, Note_off_c, 0, 65, 64
2, 123180, Note_on_c, 0, 62, 107
2, 123228, Note_off_c, 0, 62, 64
2, 123240, Note_on_c, 0, 64, 107
2, 123288, Note_off_c, 0, 64, 64
2, 123300, Note_on_c, 0, 66, 107
2, 123348, Note_off_c, 0, 66, 64
2, 123360, Note_on_c, 0, 67, 107
2, 123408, Note_off_c, 0, 67, 64
2, 123420, Note_on_c, 0, 69, 107
2, 123468, Note_off_c, 0, 69, 64
2, 123480, Note_on_c, 0, 70, 107
2, 123570, Note_off_c, 0, 70, 64
2, 123600, Note_on_c, 0, 69, 107
2, 123690, Note_off_c, 0, 69, 64
2, 123720, Note_on_c, 0, 67, 107
2, 123720, Note_on_c, 0, 62, 107
2, 123810, Note_off_c, 0, 67, 64
2, 123816, Note_off_c, 0, 62, 64
2, 123840, Note_on_c, 0, 69, 107
2, 123840, Note_on_c, 0, 63, 107
2, 123930, Note_off_c, 0, 69, 64
2, 123936, Note_off_c, 0, 63, 64
2, 123960, Note_on_c, 0, 67, 107
2, 123960, Note_on_c, 0, 62, 107
2, 124050, Note_off_c, 0, 67, 64
2, 124056, Note_off_c, 0, 62, 64
2, 124080, Note_on_c, 0, 66, 107
2, 124080, Note_on_c, 0, 60, 107
2, 124170, Note_off_c, 0, 66, 64
2, 124176, Note_off_c, 0, 60, 64
2, 124200, Note_on_c, 0, 67, 107
2, 124200, Note_on_c, 0, 62, 107
2, 124296, Note_off_c, 0, 62, 64
2, 124296, Note_off_c, 0, 67, 64
2, 124320, Note_on_c, 0, 62, 107
2, 124416, Note_off_c, 0, 62, 64
2, 124440, Note_on_c, 0, 62, 107
2, 124536, Note_off_c, 0, 62, 64
2, 124560, Note_on_c, 0, 62, 107
2, 124620, Note_on_c, 0, 74, 107
2, 124656, Note_off_c, 0, 62, 64
2, 124680, Note_on_c, 0, 62, 107
2, 124716, Note_off_c, 0, 74, 64
2, 124740, Note_on_c, 0, 72, 107
2, 124776, Note_off_c, 0, 62, 64
2, 124800, Note_on_c, 0, 62, 107
2, 124836, Note_off_c, 0, 72, 64
2, 124860, Note_on_c, 0, 70, 107
2, 124896, Note_off_c, 0, 62, 64
2, 124908, Note_off_c, 0, 70, 64
2, 124920, Note_on_c, 0, 62, 107
2, 124980, Note_on_c, 0, 72, 107
2, 125016, Note_off_c, 0, 62, 64
2, 125040, Note_on_c, 0, 62, 107
2, 125076, Note_off_c, 0, 72, 64
2, 125100, Note_on_c, 0, 70, 107
2, 125136, Note_off_c, 0, 62, 64
2, 125160, Note_on_c, 0, 62, 107
2, 125196, Note_off_c, 0, 70, 64
2, 125220, Note_on_c, 0, 69, 107
2, 125256, Note_off_c, 0, 62, 64
2, 125268, Note_off_c, 0, 69, 64
2, 125280, Note_on_c, 0, 70, 107
2, 125280, Note_on_c, 0, 62, 107
2, 125370, Note_off_c, 0, 70, 64
2, 125376, Note_off_c, 0, 62, 64
2, 125400, Note_on_c, 0, 74, 107
2, 125490, Note_off_c, 0, 74, 64
2, 125520, Note_on_c, 0, 74, 107
2, 125610, Note_off_c, 0, 74, 64
2, 125640, Note_on_c, 0, 74, 107
2, 125730, Note_off_c, 0, 74, 64
2, 125760, Note_on_c, 0, 74, 107
2, 125850, Note_off_c, 0, 74, 64
2, 125880, Note_on_c, 0, 70, 107
2, 125880, Note_on_c, 0, 74, 107
2, 125970, Note_off_c, 0, 74, 64
2, 125976, Note_off_c, 0, 70, 64
2, 126000, Note_on_c, 0, 75, 107
2, 126000, Note_on_c, 0, 72, 107
2, 126048, Note_off_c, 0, 75, 64
2, 126060, Note_on_c, 0, 77, 107
2, 126108, Note_off_c, 0, 77, 64
2, 126120, Note_on_c, 0, 79, 107
2, 126168, Note_off_c, 0, 79, 64
2, 126180, Note_on_c, 0, 75, 107
2, 126192, Note_off_c, 0, 72, 64
2, 126228, Note_off_c, 0, 75, 64
2, 126240, Note_on_c, 0, 70, 107
2, 126240, Note_on_c, 0, 77, 107
2, 126288, Note_off_c, 0, 77, 64
2, 126300, Note_on_c, 0, 79, 107
2, 126336, Note_off_c, 0, 70, 64
2, 126348, Note_off_c, 0, 79, 64
2, 126360, Note_on_c, 0, 69, 107
2, 126360, Note_on_c, 0, 72, 107
2, 126450, Note_off_c, 0, 72, 64
2, 126480, Note_on_c, 0, 72, 107
2, 126570, Note_off_c, 0, 72, 64
2, 126600, Note_on_c, 0, 72, 107
2, 126648, Note_off_c, 0, 69, 64
2, 126690, Note_off_c, 0, 72, 64
2, 126720, Note_on_c, 0, 72, 107
2, 126810, Note_off_c, 0, 72, 64
2, 126840, Note_on_c, 0, 72, 107
2, 126930, Note_off_c, 0, 72, 64
2, 126960, Note_on_c, 0, 69, 107
2, 126960, Note_on_c, 0, 72, 107
2, 127050, Note_off_c, 0, 72, 64
2, 127056, Note_off_c, 0, 69, 64
2, 127080, Note_on_c, 0, 70, 107
2, 127080, Note_on_c, 0, 74, 107
2, 127128, Note_off_c, 0, 74, 64
2, 127140, Note_on_c, 0, 75, 107
2, 127188, Note_off_c, 0, 75, 64
2, 127200, Note_on_c, 0, 77, 107
2, 127248, Note_off_c, 0, 77, 64
2, 127260, Note_on_c, 0, 74, 107
2, 127272, Note_off_c, 0, 70, 64
2, 127308, Note_off_c, 0, 74, 64
2, 127320, Note_on_c, 0, 75, 107
2, 127320, Note_on_c, 0, 68, 107
2, 127368, Note_off_c, 0, 75, 64
2, 127380, Note_on_c, 0, 77, 107
2, 127416, Note_off_c, 0, 68, 64
2, 127428, Note_off_c, 0, 77, 64
2, 127440, Note_on_c, 0, 70, 107
2, 127488, Note_off_c, 0, 70, 64
2, 127500, Note_on_c, 0, 72, 107
2, 127548, Note_off_c, 0, 72, 64
2, 127560, Note_on_c, 0, 74, 107
2, 127608, Note_off_c, 0, 74, 64
2, 127620, Note_on_c, 0, 70, 107
2, 127668, Note_off_c, 0, 70, 64
2, 127680, Note_on_c, 0, 72, 107
2, 127728, Note_off_c, 0, 72, 64
2, 127740, Note_on_c, 0, 74, 107
2, 127788, Note_off_c, 0, 74, 64
2, 127800, Note_on_c, 0, 75, 107
2, 127848, Note_off_c, 0, 75, 64
2, 127860, Note_on_c, 0, 77, 107
2, 127908, Note_off_c, 0, 77, 64
2, 127920, Note_on_c, 0, 79, 107
2, 127968, Note_off_c, 0, 79, 64
2, 127980, Note_on_c, 0, 75, 107
2, 128028, Note_off_c, 0, 75, 64
2, 128040, Note_on_c, 0, 77, 107
2, 128088, Note_off_c, 0, 77, 64
2, 128100, Note_on_c, 0, 79, 107
2, 128148, Note_off_c, 0, 79, 64
2, 128160, Note_on_c, 0, 81, 107
2, 128208, Note_off_c, 0, 81, 64
2, 128220, Note_on_c, 0, 82, 107
2, 128268, Note_off_c, 0, 82, 64
2, 128280, Note_on_c, 0, 84, 107
2, 128328, Note_off_c, 0, 84, 64
2, 128340, Note_on_c, 0, 81, 107
2, 128388, Note_off_c, 0, 81, 64
2, 128400, Note_on_c, 0, 82, 107
2, 128448, Note_off_c, 0, 82, 64
2, 128460, Note_on_c, 0, 84, 107
2, 128508, Note_off_c, 0, 84, 64
2, 128520, Note_on_c, 0, 78, 107
2, 128640, Note_on_c, 0, 69, 107
2, 128736, Note_off_c, 0, 69, 64
2, 128760, Note_on_c, 0, 69, 107
2, 128808, Note_off_c, 0, 78, 64
2, 128856, Note_off_c, 0, 69, 64
2, 128880, Note_on_c, 0, 69, 107
2, 128976, Note_off_c, 0, 69, 64
2, 129000, Note_on_c, 0, 69, 107
2, 129096, Note_off_c, 0, 69, 64
2, 129120, Note_on_c, 0, 69, 107
2, 129216, Note_off_c, 0, 69, 64
2, 129240, Note_on_c, 0, 77, 107
2, 129240, Note_on_c, 0, 71, 107
2, 129288, Note_off_c, 0, 71, 64
2, 129300, Note_on_c, 0, 72, 107
2, 129348, Note_off_c, 0, 72, 64
2, 129360, Note_on_c, 0, 74, 107
2, 129408, Note_off_c, 0, 74, 64
2, 129420, Note_on_c, 0, 71, 107
2, 129468, Note_off_c, 0, 71, 64
2, 129480, Note_on_c, 0, 72, 107
2, 129528, Note_off_c, 0, 72, 64
2, 129528, Note_off_c, 0, 77, 64
2, 129540, Note_on_c, 0, 74, 107
2, 129588, Note_off_c, 0, 74, 64
2, 129600, Note_on_c, 0, 76, 107
2, 129600, Note_on_c, 0, 67, 107
2, 129696, Note_off_c, 0, 67, 64
2, 129720, Note_on_c, 0, 67, 107
2, 129816, Note_off_c, 0, 67, 64
2, 129840, Note_on_c, 0, 67, 107
2, 129888, Note_off_c, 0, 76, 64
2, 129936, Note_off_c, 0, 67, 64
2, 129960, Note_on_c, 0, 67, 107
2, 130056, Note_off_c, 0, 67, 64
2, 130080, Note_on_c, 0, 67, 107
2, 130176, Note_off_c, 0, 67, 64
2, 130200, Note_on_c, 0, 67, 107
2, 130296, Note_off_c, 0, 67, 64
2, 130320, Note_on_c, 0, 69, 107
2, 130320, Note_on_c, 0, 75, 107
2, 130368, Note_off_c, 0, 69, 64
2, 130380, Note_on_c, 0, 70, 107
2, 130428, Note_off_c, 0, 70, 64
2, 130440, Note_on_c, 0, 72, 107
2, 130488, Note_off_c, 0, 72, 64
2, 130500, Note_on_c, 0, 69, 107
2, 130548, Note_off_c, 0, 69, 64
2, 130560, Note_on_c, 0, 70, 107
2, 130608, Note_off_c, 0, 70, 64
2, 130608, Note_off_c, 0, 75, 64
2, 130620, Note_on_c, 0, 72, 107
2, 130668, Note_off_c, 0, 72, 64
2, 130680, Note_on_c, 0, 74, 107
2, 130680, Note_on_c, 0, 74, 107
2, 130776, Note_off_c, 0, 74, 64
2, 130800, Note_on_c, 0, 77, 107
2, 130896, Note_off_c, 0, 77, 64
2, 130920, Note_on_c, 0, 82, 107
2, 130968, Note_off_c, 0, 74, 64
2, 131016, Note_off_c, 0, 82, 64
2, 131040, Note_on_c, 0, 75, 107
2, 131040, Note_on_c, 0, 75, 107
2, 131136, Note_off_c, 0, 75, 64
2, 131160, Note_on_c, 0, 79, 107
2, 131256, Note_off_c, 0, 79, 64
2, 131280, Note_on_c, 0, 82, 107
2, 131328, Note_off_c, 0, 75, 64
2, 131376, Note_off_c, 0, 82, 64
2, 131400, Note_on_c, 0, 74, 107
2, 131400, Note_on_c, 0, 74, 107
2, 131496, Note_off_c, 0, 74, 64
2, 131520, Note_on_c, 0, 77, 107
2, 131616, Note_off_c, 0, 77, 64
2, 131640, Note_on_c, 0, 82, 107
2, 131688, Note_off_c, 0, 74, 64
2, 131736, Note_off_c, 0, 82, 64
2, 131760, Note_on_c, 0, 72, 107
2, 131760, Note_on_c, 0, 72, 107
2, 131856, Note_off_c, 0, 72, 64
2, 131880, Note_on_c, 0, 79, 107
2, 131976, Note_off_c, 0, 79, 64
2, 132000, Note_on_c, 0, 82, 107
2, 132048, Note_off_c, 0, 72, 64
2, 132096, Note_off_c, 0, 82, 64
2, 132120, Note_on_c, 0, 70, 107
2, 132120, Note_on_c, 0, 70, 107
2, 132216, Note_off_c, 0, 70, 64
2, 132240, Note_on_c, 0, 77, 107
2, 132336, Note_off_c, 0, 77, 64
2, 132360, Note_on_c, 0, 82, 107
2, 132408, Note_off_c, 0, 70, 64
2, 132456, Note_off_c, 0, 82, 64
2, 132480, Note_on_c, 0, 70, 107
2, 132480, Note_on_c, 0, 70, 107
2, 132576, Note_off_c, 0, 70, 64
2, 132600, Note_on_c, 0, 75, 107
2, 132696, Note_off_c, 0, 75, 64
2, 132720, Note_on_c, 0, 79, 107
2, 132768, Note_off_c, 0, 70, 64
2, 132816, Note_off_c, 0, 79, 64
2, 132840, Note_on_c, 0, 72, 107
2, 132888, Note_off_c, 0, 72, 64
2, 132900, Note_on_c, 0, 74, 107
2, 132948, Note_off_c, 0, 74, 64
2, 132960, Note_on_c, 0, 75, 107
2, 133008, Note_off_c, 0, 75, 64
2, 133020, Note_on_c, 0, 79, 107
2, 133068, Note_off_c, 0, 79, 64
2, 133080, Note_on_c, 0, 74, 107
2, 133128, Note_off_c, 0, 74, 64
2, 133140, Note_on_c, 0, 75, 107
2, 133188, Note_off_c, 0, 75, 64
2, 133200, Note_on_c, 0, 72, 107
2, 133248, Note_off_c, 0, 72, 64
2, 133260, Note_on_c, 0, 74, 107
2, 133308, Note_off_c, 0, 74, 64
2, 133320, Note_on_c, 0, 75, 107
2, 133368, Note_off_c, 0, 75, 64
2, 133380, Note_on_c, 0, 77, 107
2, 133428, Note_off_c, 0, 77, 64
2, 133440, Note_on_c, 0, 79, 107
2, 133488, Note_off_c, 0, 79, 64
2, 133500, Note_on_c, 0, 81, 107
2, 133548, Note_off_c, 0, 81, 64
2, 133560, Note_on_c, 0, 82, 107
2, 133608, Note_off_c, 0, 82, 64
2, 133620, Note_on_c, 0, 81, 107
2, 133668, Note_off_c, 0, 81, 64
2, 133680, Note_on_c, 0, 84, 107
2, 133728, Note_off_c, 0, 84, 64
2, 133740, Note_on_c, 0, 82, 107
2, 133788, Note_off_c, 0, 82, 64
2, 133800, Note_on_c, 0, 81, 107
2, 133848, Note_off_c, 0, 81, 64
2, 133860, Note_on_c, 0, 79, 107
2, 133908, Note_off_c, 0, 79, 64
2, 133920, Note_on_c, 0, 77, 107
2, 133968, Note_off_c, 0, 77, 64
2, 133980, Note_on_c, 0, 82, 107
2, 134028, Note_off_c, 0, 82, 64
2, 134040, Note_on_c, 0, 81, 107
2, 134088, Note_off_c, 0, 81, 64
2, 134100, Note_on_c, 0, 79, 107
2, 134148, Note_off_c, 0, 79, 64
2, 134160, Note_on_c, 0, 77, 107
2, 134208, Note_off_c, 0, 77, 64
2, 134220, Note_on_c, 0, 75, 107
2, 134268, Note_off_c, 0, 75, 64
2, 134280, Note_on_c, 0, 74, 107
2, 134328, Note_off_c, 0, 74, 64
2, 134340, Note_on_c, 0, 75, 107
2, 134388, Note_off_c, 0, 75, 64
2, 134400, Note_on_c, 0, 77, 107
2, 134448, Note_off_c, 0, 77, 64
2, 134460, Note_on_c, 0, 72, 107
2, 134508, Note_off_c, 0, 72, 64
2, 134520, Note_on_c, 0, 74, 107
2, 134568, Note_off_c, 0, 74, 64
2, 134580, Note_on_c, 0, 70, 107
2, 134628, Note_off_c, 0, 70, 64
2, 134640, Note_on_c, 0, 75, 107
2, 134688, Note_off_c, 0, 75, 64
2, 134700, Note_on_c, 0, 77, 107
2, 134748, Note_off_c, 0, 77, 64
2, 134760, Note_on_c, 0, 79, 107
2, 134808, Note_off_c, 0, 79, 64
2, 134820, Note_on_c, 0, 74, 107
2, 134868, Note_off_c, 0, 74, 64
2, 134880, Note_on_c, 0, 75, 107
2, 134928, Note_off_c, 0, 75, 64
2, 134940, Note_on_c, 0, 72, 107
2, 134988, Note_off_c, 0, 72, 64
2, 135000, Note_on_c, 0, 77, 107
2, 135048, Note_off_c, 0, 77, 64
2, 135060, Note_on_c, 0, 79, 107
2, 135108, Note_off_c, 0, 79, 64
2, 135120, Note_on_c, 0, 81, 107
2, 135168, Note_off_c, 0, 81, 64
2, 135180, Note_on_c, 0, 74, 107
2, 135228, Note_off_c, 0, 74, 64
2, 135240, Note_on_c, 0, 75, 107
2, 135288, Note_off_c, 0, 75, 64
2, 135300, Note_on_c, 0, 72, 107
2, 135348, Note_off_c, 0, 72, 64
2, 135360, Note_on_c, 0, 74, 107
2, 135408, Note_off_c, 0, 74, 64
2, 135420, Note_on_c, 0, 81, 107
2, 135468, Note_off_c, 0, 81, 64
2, 135480, Note_on_c, 0, 82, 107
2, 135528, Note_off_c, 0, 82, 64
2, 135540, Note_on_c, 0, 77, 107
2, 135588, Note_off_c, 0, 77, 64
2, 135600, Note_on_c, 0, 79, 107
2, 135648, Note_off_c, 0, 79, 64
2, 135660, Note_on_c, 0, 75, 107
2, 135708, Note_off_c, 0, 75, 64
2, 135720, Note_on_c, 0, 74, 107
2, 135768, Note_off_c, 0, 74, 64
2, 135780, Note_on_c, 0, 72, 107
2, 135828, Note_off_c, 0, 72, 64
2, 135840, Note_on_c, 0, 75, 107
2, 135888, Note_off_c, 0, 75, 64
2, 135900, Note_on_c, 0, 74, 107
2, 135948, Note_off_c, 0, 74, 64
2, 135960, Note_on_c, 0, 72, 107
2, 136008, Note_off_c, 0, 72, 64
2, 136020, Note_on_c, 0, 74, 107
2, 136068, Note_off_c, 0, 74, 64
2, 136080, Note_on_c, 0, 70, 107
2, 136128, Note_off_c, 0, 70, 64
2, 136140, Note_on_c, 0, 74, 107
2, 136188, Note_off_c, 0, 74, 64
2, 136200, Note_on_c, 0, 77, 107
2, 136248, Note_off_c, 0, 77, 64
2, 136260, Note_on_c, 0, 70, 107
2, 136308, Note_off_c, 0, 70, 64
2, 136320, Note_on_c, 0, 74, 107
2, 136368, Note_off_c, 0, 74, 64
2, 136380, Note_on_c, 0, 77, 107
2, 136428, Note_off_c, 0, 77, 64
2, 136440, Note_on_c, 0, 82, 107
2, 136536, Note_off_c, 0, 82, 64
2, 136560, Note_on_c, 0, 82, 107
2, 136560, Note_on_c, 0, 74, 107
2, 136656, Note_off_c, 0, 74, 64
2, 136656, Note_off_c, 0, 82, 64
2, 136680, Note_on_c, 0, 82, 107
2, 136680, Note_on_c, 0, 74, 107
2, 136776, Note_off_c, 0, 74, 64
2, 136776, Note_off_c, 0, 82, 64
2, 136800, Note_on_c, 0, 74, 107
2, 136800, Note_on_c, 0, 82, 107
2, 136896, Note_off_c, 0, 82, 64
2, 136896, Note_off_c, 0, 74, 64
2, 136920, Note_on_c, 0, 82, 107
2, 136920, Note_on_c, 0, 74, 107
2, 137016, Note_off_c, 0, 74, 64
2, 137016, Note_off_c, 0, 82, 64
2, 137040, Note_on_c, 0, 74, 107
2, 137040, Note_on_c, 0, 82, 107
2, 137136, Note_off_c, 0, 82, 64
2, 137136, Note_off_c, 0, 74, 64
2, 137160, Note_on_c, 0, 72, 107
2, 137160, Note_on_c, 0, 82, 107
2, 137208, Note_off_c, 0, 82, 64
2, 137220, Note_on_c, 0, 79, 107
2, 137256, Note_off_c, 0, 72, 64
2, 137268, Note_off_c, 0, 79, 64
2, 137280, Note_on_c, 0, 75, 107
2, 137328, Note_off_c, 0, 75, 64
2, 137340, Note_on_c, 0, 79, 107
2, 137388, Note_off_c, 0, 79, 64
2, 137400, Note_on_c, 0, 75, 107
2, 137448, Note_off_c, 0, 75, 64
2, 137460, Note_on_c, 0, 72, 107
2, 137508, Note_off_c, 0, 72, 64
2, 137520, Note_on_c, 0, 81, 107
2, 137616, Note_off_c, 0, 81, 64
2, 137640, Note_on_c, 0, 81, 107
2, 137640, Note_on_c, 0, 72, 107
2, 137736, Note_off_c, 0, 72, 64
2, 137736, Note_off_c, 0, 81, 64
2, 137760, Note_on_c, 0, 72, 107
2, 137760, Note_on_c, 0, 81, 107
2, 137856, Note_off_c, 0, 81, 64
2, 137856, Note_off_c, 0, 72, 64
2, 137880, Note_on_c, 0, 72, 107
2, 137880, Note_on_c, 0, 81, 107
2, 137976, Note_off_c, 0, 81, 64
2, 137976, Note_off_c, 0, 72, 64
2, 138000, Note_on_c, 0, 81, 107
2, 138000, Note_on_c, 0, 72, 107
2, 138096, Note_off_c, 0, 72, 64
2, 138096, Note_off_c, 0, 81, 64
2, 138120, Note_on_c, 0, 72, 107
2, 138120, Note_on_c, 0, 81, 107
2, 138216, Note_off_c, 0, 81, 64
2, 138216, Note_off_c, 0, 72, 64
2, 138240, Note_on_c, 0, 80, 107
2, 138240, Note_on_c, 0, 70, 107
2, 138288, Note_off_c, 0, 80, 64
2, 138300, Note_on_c, 0, 77, 107
2, 138336, Note_off_c, 0, 70, 64
2, 138348, Note_off_c, 0, 77, 64
2, 138360, Note_on_c, 0, 74, 107
2, 138408, Note_off_c, 0, 74, 64
2, 138420, Note_on_c, 0, 77, 107
2, 138468, Note_off_c, 0, 77, 64
2, 138480, Note_on_c, 0, 74, 107
2, 138528, Note_off_c, 0, 74, 64
2, 138540, Note_on_c, 0, 70, 107
2, 138588, Note_off_c, 0, 70, 64
2, 138600, Note_on_c, 0, 79, 107
2, 138696, Note_off_c, 0, 79, 64
2, 138720, Note_on_c, 0, 70, 107
2, 138720, Note_on_c, 0, 79, 107
2, 138816, Note_off_c, 0, 79, 64
2, 138816, Note_off_c, 0, 70, 64
2, 138840, Note_on_c, 0, 79, 107
2, 138840, Note_on_c, 0, 70, 107
2, 138936, Note_off_c, 0, 70, 64
2, 138936, Note_off_c, 0, 79, 64
2, 138960, Note_on_c, 0, 70, 107
2, 138960, Note_on_c, 0, 79, 107
2, 139056, Note_off_c, 0, 79, 64
2, 139056, Note_off_c, 0, 70, 64
2, 139080, Note_on_c, 0, 79, 107
2, 139080, Note_on_c, 0, 70, 107
2, 139176, Note_off_c, 0, 70, 64
2, 139176, Note_off_c, 0, 79, 64
2, 139200, Note_on_c, 0, 70, 107
2, 139200, Note_on_c, 0, 79, 107
2, 139296, Note_off_c, 0, 79, 64
2, 139296, Note_off_c, 0, 70, 64
2, 139320, Note_on_c, 0, 79, 107
2, 139320, Note_on_c, 0, 75, 107
2, 139416, Note_off_c, 0, 75, 64
2, 139440, Note_on_c, 0, 74, 107
2, 139536, Note_off_c, 0, 74, 64
2, 139560, Note_on_c, 0, 72, 107
2, 139608, Note_off_c, 0, 79, 64
2, 139656, Note_off_c, 0, 72, 64
2, 139680, Note_on_c, 0, 84, 107
2, 139680, Note_on_c, 0, 72, 107
2, 139776, Note_off_c, 0, 84, 64
2, 139800, Note_on_c, 0, 82, 107
2, 139896, Note_off_c, 0, 82, 64
2, 139920, Note_on_c, 0, 81, 107
2, 140016, Note_off_c, 0, 81, 64
2, 140040, Note_on_c, 0, 81, 107
2, 140136, Note_off_c, 0, 81, 64
2, 140160, Note_on_c, 0, 79, 107
2, 140256, Note_off_c, 0, 79, 64
2, 140280, Note_on_c, 0, 78, 107
2, 140376, Note_off_c, 0, 78, 64
2, 140400, Note_on_c, 0, 78, 107
2, 140448, Note_off_c, 0, 72, 64
2, 140460, Note_on_c, 0, 72, 107
2, 140496, Note_off_c, 0, 78, 64
2, 140508, Note_off_c, 0, 72, 64
2, 140520, Note_on_c, 0, 74, 107
2, 140568, Note_off_c, 0, 74, 64
2, 140580, Note_on_c, 0, 78, 107
2, 140628, Note_off_c, 0, 78, 64
2, 140640, Note_on_c, 0, 72, 107
2, 140688, Note_off_c, 0, 72, 64
2, 140700, Note_on_c, 0, 74, 107
2, 140748, Note_off_c, 0, 74, 64
2, 140760, Note_on_c, 0, 70, 107
2, 140808, Note_off_c, 0, 70, 64
2, 140820, Note_on_c, 0, 74, 107
2, 140868, Note_off_c, 0, 74, 64
2, 140880, Note_on_c, 0, 75, 107
2, 140928, Note_off_c, 0, 75, 64
2, 140940, Note_on_c, 0, 79, 107
2, 140988, Note_off_c, 0, 79, 64
2, 141000, Note_on_c, 0, 74, 107
2, 141048, Note_off_c, 0, 74, 64
2, 141060, Note_on_c, 0, 75, 107
2, 141108, Note_off_c, 0, 75, 64
2, 141120, Note_on_c, 0, 72, 107
2, 141168, Note_off_c, 0, 72, 64
2, 141180, Note_on_c, 0, 76, 107
2, 141228, Note_off_c, 0, 76, 64
2, 141240, Note_on_c, 0, 78, 107
2, 141288, Note_off_c, 0, 78, 64
2, 141300, Note_on_c, 0, 81, 107
2, 141348, Note_off_c, 0, 81, 64
2, 141360, Note_on_c, 0, 76, 107
2, 141408, Note_off_c, 0, 76, 64
2, 141420, Note_on_c, 0, 78, 107
2, 141468, Note_off_c, 0, 78, 64
2, 141480, Note_on_c, 0, 74, 107
2, 141528, Note_off_c, 0, 74, 64
2, 141540, Note_on_c, 0, 78, 107
2, 141588, Note_off_c, 0, 78, 64
2, 141600, Note_on_c, 0, 79, 107
2, 141648, Note_off_c, 0, 79, 64
2, 141660, Note_on_c, 0, 82, 107
2, 141708, Note_off_c, 0, 82, 64
2, 141720, Note_on_c, 0, 78, 107
2, 141768, Note_off_c, 0, 78, 64
2, 141780, Note_on_c, 0, 79, 107
2, 141828, Note_off_c, 0, 79, 64
2, 141840, Note_on_c, 0, 76, 107
2, 141888, Note_off_c, 0, 76, 64
2, 141900, Note_on_c, 0, 79, 107
2, 141948, Note_off_c, 0, 79, 64
2, 141960, Note_on_c, 0, 81, 107
2, 142008, Note_off_c, 0, 81, 64
2, 142020, Note_on_c, 0, 84, 107
2, 142068, Note_off_c, 0, 84, 64
2, 142080, Note_on_c, 0, 79, 107
2, 142128, Note_off_c, 0, 79, 64
2, 142140, Note_on_c, 0, 81, 107
2, 142188, Note_off_c, 0, 81, 64
2, 142200, Note_on_c, 0, 78, 107
2, 142248, Note_off_c, 0, 78, 64
2, 142260, Note_on_c, 0, 79, 107
2, 142308, Note_off_c, 0, 79, 64
2, 142320, Note_on_c, 0, 81, 107
2, 142368, Note_off_c, 0, 81, 64
2, 142380, Note_on_c, 0, 84, 107
2, 142428, Note_off_c, 0, 84, 64
2, 142440, Note_on_c, 0, 78, 107
2, 142488, Note_off_c, 0, 78, 64
2, 142500, Note_on_c, 0, 81, 107
2, 142548, Note_off_c, 0, 81, 64
2, 142560, Note_on_c, 0, 82, 107
2, 142608, Note_off_c, 0, 82, 64
2, 142620, Note_on_c, 0, 81, 107
2, 142668, Note_off_c, 0, 81, 64
2, 142680, Note_on_c, 0, 79, 107
2, 142728, Note_off_c, 0, 79, 64
2, 142740, Note_on_c, 0, 77, 107
2, 142788, Note_off_c, 0, 77, 64
2, 142800, Note_on_c, 0, 75, 107
2, 142848, Note_off_c, 0, 75, 64
2, 142860, Note_on_c, 0, 74, 107
2, 142908, Note_off_c, 0, 74, 64
2, 142920, Note_on_c, 0, 75, 107
2, 142968, Note_off_c, 0, 75, 64
2, 142980, Note_on_c, 0, 72, 107
2, 143028, Note_off_c, 0, 72, 64
2, 143040, Note_on_c, 0, 81, 107
2, 143088, Note_off_c, 0, 81, 64
2, 143100, Note_on_c, 0, 74, 107
2, 143148, Note_off_c, 0, 74, 64
2, 143160, Note_on_c, 0, 75, 107
2, 143208, Note_off_c, 0, 75, 64
2, 143220, Note_on_c, 0, 72, 107
2, 143268, Note_off_c, 0, 72, 64
2, 143280, Note_on_c, 0, 74, 107
2, 143328, Note_off_c, 0, 74, 64
2, 143340, Note_on_c, 0, 70, 107
2, 143388, Note_off_c, 0, 70, 64
2, 143400, Note_on_c, 0, 79, 107
2, 143448, Note_off_c, 0, 79, 64
2, 143460, Note_on_c, 0, 72, 107
2, 143508, Note_off_c, 0, 72, 64
2, 143520, Note_on_c, 0, 74, 107
2, 143568, Note_off_c, 0, 74, 64
2, 143580, Note_on_c, 0, 70, 107
2, 143628, Note_off_c, 0, 70, 64
2, 143640, Note_on_c, 0, 72, 107
2, 144048, Note_off_c, 0, 72, 64
2, 144060, Note_on_c, 0, 75, 107
2, 144108, Note_off_c, 0, 75, 64
2, 144120, Note_on_c, 0, 74, 107
2, 144168, Note_off_c, 0, 74, 64
2, 144180, Note_on_c, 0, 72, 107
2, 144228, Note_off_c, 0, 72, 64
2, 144240, Note_on_c, 0, 70, 107
2, 144288, Note_off_c, 0, 70, 64
2, 144300, Note_on_c, 0, 69, 107
2, 144348, Note_off_c, 0, 69, 64
2, 144360, Note_on_c, 0, 70, 107
2, 144408, Note_off_c, 0, 70, 64
2, 144420, Note_on_c, 0, 74, 107
2, 144468, Note_off_c, 0, 74, 64
2, 144480, Note_on_c, 0, 72, 107
2, 144528, Note_off_c, 0, 72, 64
2, 144540, Note_on_c, 0, 70, 107
2, 144588, Note_off_c, 0, 70, 64
2, 144600, Note_on_c, 0, 69, 107
2, 144648, Note_off_c, 0, 69, 64
2, 144660, Note_on_c, 0, 67, 107
2, 144708, Note_off_c, 0, 67, 64
2, 144720, Note_on_c, 0, 66, 107
2, 144816, Note_off_c, 0, 66, 64
2, 144840, Note_on_c, 0, 62, 107
2, 144936, Note_off_c, 0, 62, 64
2, 144960, Note_on_c, 0, 74, 107
2, 145050, Note_off_c, 0, 74, 64
2, 145080, Note_on_c, 0, 74, 107
2, 145176, Note_off_c, 0, 74, 64
2, 145200, Note_on_c, 0, 64, 107
2, 145296, Note_off_c, 0, 64, 64
2, 145320, Note_on_c, 0, 74, 107
2, 145410, Note_off_c, 0, 74, 64
2, 145440, Note_on_c, 0, 74, 107
2, 145536, Note_off_c, 0, 74, 64
2, 145560, Note_on_c, 0, 66, 107
2, 145656, Note_off_c, 0, 66, 64
2, 145680, Note_on_c, 0, 74, 107
2, 145770, Note_off_c, 0, 74, 64
2, 145800, Note_on_c, 0, 74, 107
2, 145896, Note_off_c, 0, 74, 64
2, 145920, Note_on_c, 0, 67, 107
2, 146016, Note_off_c, 0, 67, 64
2, 146040, Note_on_c, 0, 74, 107
2, 146130, Note_off_c, 0, 74, 64
2, 146160, Note_on_c, 0, 74, 107
2, 146256, Note_off_c, 0, 74, 64
2, 146280, Note_on_c, 0, 69, 107
2, 146376, Note_off_c, 0, 69, 64
2, 146400, Note_on_c, 0, 70, 107
2, 146490, Note_off_c, 0, 70, 64
2, 146520, Note_on_c, 0, 72, 107
2, 146568, Note_off_c, 0, 72, 64
2, 146580, Note_on_c, 0, 70, 107
2, 146628, Note_off_c, 0, 70, 64
2, 146640, Note_on_c, 0, 74, 107
2, 146688, Note_off_c, 0, 74, 64
2, 146700, Note_on_c, 0, 72, 107
2, 146748, Note_off_c, 0, 72, 64
2, 146760, Note_on_c, 0, 70, 107
2, 146808, Note_off_c, 0, 70, 64
2, 146820, Note_on_c, 0, 69, 107
2, 146868, Note_off_c, 0, 69, 64
2, 146880, Note_on_c, 0, 70, 107
2, 146976, Note_off_c, 0, 70, 64
2, 147000, Note_on_c, 0, 74, 107
2, 147096, Note_off_c, 0, 74, 64
2, 147120, Note_on_c, 0, 70, 107
2, 147210, Note_off_c, 0, 70, 64
2, 147240, Note_on_c, 0, 67, 107
2, 147336, Note_off_c, 0, 67, 64
2, 147360, Note_on_c, 0, 74, 107
2, 147456, Note_off_c, 0, 74, 64
2, 147480, Note_on_c, 0, 70, 107
2, 147570, Note_off_c, 0, 70, 64
2, 147600, Note_on_c, 0, 67, 107
2, 147696, Note_off_c, 0, 67, 64
2, 147720, Note_on_c, 0, 74, 107
2, 147816, Note_off_c, 0, 74, 64
2, 147840, Note_on_c, 0, 70, 107
2, 147930, Note_off_c, 0, 70, 64
2, 147960, Note_on_c, 0, 67, 107
2, 148056, Note_off_c, 0, 67, 64
2, 148080, Note_on_c, 0, 74, 107
2, 148176, Note_off_c, 0, 74, 64
2, 148200, Note_on_c, 0, 70, 107
2, 148290, Note_off_c, 0, 70, 64
2, 148320, Note_on_c, 0, 67, 107
2, 148416, Note_off_c, 0, 67, 64
2, 148440, Note_on_c, 0, 74, 107
2, 148536, Note_off_c, 0, 74, 64
2, 148560, Note_on_c, 0, 70, 107
2, 148650, Note_off_c, 0, 70, 64
2, 148680, Note_on_c, 0, 67, 107
2, 148776, Note_off_c, 0, 67, 64
2, 148800, Note_on_c, 0, 74, 107
2, 148896, Note_off_c, 0, 74, 64
2, 148920, Note_on_c, 0, 70, 107
2, 149010, Note_off_c, 0, 70, 64
2, 149040, Note_on_c, 0, 67, 107
2, 149088, Note_off_c, 0, 67, 64
2, 149100, Note_on_c, 0, 69, 107
2, 149148, Note_off_c, 0, 69, 64
2, 149160, Note_on_c, 0, 70, 107
2, 149208, Note_off_c, 0, 70, 64
2, 149220, Note_on_c, 0, 76, 107
2, 149268, Note_off_c, 0, 76, 64
2, 149280, Note_on_c, 0, 70, 107
2, 149328, Note_off_c, 0, 70, 64
2, 149340, Note_on_c, 0, 69, 107
2, 149388, Note_off_c, 0, 69, 64
2, 149400, Note_on_c, 0, 67, 107
2, 149448, Note_off_c, 0, 67, 64
2, 149460, Note_on_c, 0, 69, 107
2, 149508, Note_off_c, 0, 69, 64
2, 149520, Note_on_c, 0, 70, 107
2, 149568, Note_off_c, 0, 70, 64
2, 149580, Note_on_c, 0, 76, 107
2, 149628, Note_off_c, 0, 76, 64
2, 149640, Note_on_c, 0, 69, 107
2, 149688, Note_off_c, 0, 69, 64
2, 149700, Note_on_c, 0, 67, 107
2, 149748, Note_off_c, 0, 67, 64
2, 149760, Note_on_c, 0, 66, 107
2, 149808, Note_off_c, 0, 66, 64
2, 149820, Note_on_c, 0, 69, 107
2, 149868, Note_off_c, 0, 69, 64
2, 149880, Note_on_c, 0, 72, 107
2, 149928, Note_off_c, 0, 72, 64
2, 149940, Note_on_c, 0, 75, 107
2, 149988, Note_off_c, 0, 75, 64
2, 150000, Note_on_c, 0, 74, 107
2, 150048, Note_off_c, 0, 74, 64
2, 150060, Note_on_c, 0, 72, 107
2, 150108, Note_off_c, 0, 72, 64
2, 150120, Note_on_c, 0, 74, 107
2, 150168, Note_off_c, 0, 74, 64
2, 150180, Note_on_c, 0, 72, 107
2, 150228, Note_off_c, 0, 72, 64
2, 150240, Note_on_c, 0, 70, 107
2, 150288, Note_off_c, 0, 70, 64
2, 150300, Note_on_c, 0, 69, 107
2, 150348, Note_off_c, 0, 69, 64
2, 150360, Note_on_c, 0, 67, 107
2, 150408, Note_off_c, 0, 67, 64
2, 150420, Note_on_c, 0, 65, 107
2, 150468, Note_off_c, 0, 65, 64
2, 150480, Note_on_c, 0, 64, 107
2, 150528, Note_off_c, 0, 64, 64
2, 150540, Note_on_c, 0, 62, 107
2, 150588, Note_off_c, 0, 62, 64
2, 150600, Note_on_c, 0, 64, 107
2, 150648, Note_off_c, 0, 64, 64
2, 150660, Note_on_c, 0, 66, 107
2, 150708, Note_off_c, 0, 66, 64
2, 150720, Note_on_c, 0, 67, 107
2, 150768, Note_off_c, 0, 67, 64
2, 150780, Note_on_c, 0, 69, 107
2, 150828, Note_off_c, 0, 69, 64
2, 150840, Note_on_c, 0, 66, 107
2, 150888, Note_off_c, 0, 66, 64
2, 150900, Note_on_c, 0, 64, 107
2, 150948, Note_off_c, 0, 64, 64
2, 150960, Note_on_c, 0, 66, 107
2, 151008, Note_off_c, 0, 66, 64
2, 151020, Note_on_c, 0, 67, 107
2, 151068, Note_off_c, 0, 67, 64
2, 151080, Note_on_c, 0, 69, 107
2, 151128, Note_off_c, 0, 69, 64
2, 151140, Note_on_c, 0, 60, 107
2, 151188, Note_off_c, 0, 60, 64
2, 151260, Note_on_c, 0, 74, 107
2, 151308, Note_off_c, 0, 74, 64
2, 151320, Note_on_c, 0, 76, 107
2, 151368, Note_off_c, 0, 76, 64
2, 151380, Note_on_c, 0, 78, 107
2, 151428, Note_off_c, 0, 78, 64
2, 151440, Note_on_c, 0, 79, 107
2, 151488, Note_off_c, 0, 79, 64
2, 151500, Note_on_c, 0, 81, 107
2, 151548, Note_off_c, 0, 81, 64
2, 151560, Note_on_c, 0, 82, 107
2, 151650, Note_off_c, 0, 82, 64
2, 151680, Note_on_c, 0, 81, 107
2, 151770, Note_off_c, 0, 81, 64
2, 151800, Note_on_c, 0, 79, 107
2, 151890, Note_off_c, 0, 79, 64
2, 151920, Note_on_c, 0, 81, 107
2, 152010, Note_off_c, 0, 81, 64
2, 152040, Note_on_c, 0, 82, 107
2, 152088, Note_off_c, 0, 82, 64
2, 152100, Note_on_c, 0, 81, 107
2, 152148, Note_off_c, 0, 81, 64
2, 152160, Note_on_c, 0, 79, 107
2, 152208, Note_off_c, 0, 79, 64
2, 152220, Note_on_c, 0, 78, 107
2, 152268, Note_off_c, 0, 78, 64
2, 152280, Note_on_c, 0, 79, 107
2, 152328, Note_off_c, 0, 79, 64
2, 152340, Note_on_c, 0, 77, 107
2, 152388, Note_off_c, 0, 77, 64
2, 152400, Note_on_c, 0, 75, 107
2, 152448, Note_off_c, 0, 75, 64
2, 152460, Note_on_c, 0, 74, 107
2, 152508, Note_off_c, 0, 74, 64
2, 152520, Note_on_c, 0, 72, 107
2, 152568, Note_off_c, 0, 72, 64
2, 152580, Note_on_c, 0, 71, 107
2, 152628, Note_off_c, 0, 71, 64
2, 152640, Note_on_c, 0, 72, 107
2, 152688, Note_off_c, 0, 72, 64
2, 152700, Note_on_c, 0, 71, 107
2, 152748, Note_off_c, 0, 71, 64
2, 152760, Note_on_c, 0, 72, 107
2, 152808, Note_off_c, 0, 72, 64
2, 152820, Note_on_c, 0, 74, 107
2, 152868, Note_off_c, 0, 74, 64
2, 152880, Note_on_c, 0, 75, 107
2, 152976, Note_off_c, 0, 75, 64
2, 153000, Note_on_c, 0, 70, 107
2, 153096, Note_off_c, 0, 70, 64
2, 153120, Note_on_c, 0, 72, 107
2, 153168, Note_off_c, 0, 72, 64
2, 153180, Note_on_c, 0, 70, 107
2, 153228, Note_off_c, 0, 70, 64
2, 153240, Note_on_c, 0, 69, 107
2, 153288, Note_off_c, 0, 69, 64
2, 153300, Note_on_c, 0, 70, 107
2, 153348, Note_off_c, 0, 70, 64
2, 153360, Note_on_c, 0, 67, 107
2, 153456, Note_off_c, 0, 67, 64
2, 153480, Note_on_c, 0, 70, 107
2, 153576, Note_off_c, 0, 70, 64
2, 153600, Note_on_c, 0, 70, 107
2, 153696, Note_off_c, 0, 70, 64
2, 153720, Note_on_c, 0, 70, 107
2, 153816, Note_off_c, 0, 70, 64
2, 153840, Note_on_c, 0, 70, 107
2, 153936, Note_off_c, 0, 70, 64
2, 153960, Note_on_c, 0, 70, 107
2, 154056, Note_off_c, 0, 70, 64
2, 154080, Note_on_c, 0, 76, 107
2, 154128, Note_off_c, 0, 76, 64
2, 154140, Note_on_c, 0, 77, 107
2, 154188, Note_off_c, 0, 77, 64
2, 154200, Note_on_c, 0, 79, 107
2, 154248, Note_off_c, 0, 79, 64
2, 154260, Note_on_c, 0, 76, 107
2, 154308, Note_off_c, 0, 76, 64
2, 154320, Note_on_c, 0, 77, 107
2, 154368, Note_off_c, 0, 77, 64
2, 154380, Note_on_c, 0, 79, 107
2, 154428, Note_off_c, 0, 79, 64
2, 154440, Note_on_c, 0, 69, 107
2, 154536, Note_off_c, 0, 69, 64
2, 154560, Note_on_c, 0, 69, 107
2, 154656, Note_off_c, 0, 69, 64
2, 154680, Note_on_c, 0, 69, 107
2, 154776, Note_off_c, 0, 69, 64
2, 154800, Note_on_c, 0, 69, 107
2, 154896, Note_off_c, 0, 69, 64
2, 154920, Note_on_c, 0, 69, 107
2, 155016, Note_off_c, 0, 69, 64
2, 155040, Note_on_c, 0, 69, 107
2, 155136, Note_off_c, 0, 69, 64
2, 155160, Note_on_c, 0, 74, 107
2, 155208, Note_off_c, 0, 74, 64
2, 155220, Note_on_c, 0, 76, 107
2, 155268, Note_off_c, 0, 76, 64
2, 155280, Note_on_c, 0, 77, 107
2, 155328, Note_off_c, 0, 77, 64
2, 155340, Note_on_c, 0, 74, 107
2, 155388, Note_off_c, 0, 74, 64
2, 155400, Note_on_c, 0, 76, 107
2, 155448, Note_off_c, 0, 76, 64
2, 155460, Note_on_c, 0, 77, 107
2, 155508, Note_off_c, 0, 77, 64
2, 155520, Note_on_c, 0, 79, 107
2, 155568, Note_off_c, 0, 79, 64
2, 155580, Note_on_c, 0, 81, 107
2, 155628, Note_off_c, 0, 81, 64
2, 155640, Note_on_c, 0, 82, 107
2, 155688, Note_off_c, 0, 82, 64
2, 155700, Note_on_c, 0, 79, 107
2, 155748, Note_off_c, 0, 79, 64
2, 155760, Note_on_c, 0, 81, 107
2, 155808, Note_off_c, 0, 81, 64
2, 155820, Note_on_c, 0, 82, 107
2, 155868, Note_off_c, 0, 82, 64
2, 155880, Note_on_c, 0, 76, 107
2, 155928, Note_off_c, 0, 76, 64
2, 155940, Note_on_c, 0, 77, 107
2, 155988, Note_off_c, 0, 77, 64
2, 156000, Note_on_c, 0, 79, 107
2, 156048, Note_off_c, 0, 79, 64
2, 156060, Note_on_c, 0, 76, 107
2, 156108, Note_off_c, 0, 76, 64
2, 156120, Note_on_c, 0, 77, 107
2, 156168, Note_off_c, 0, 77, 64
2, 156180, Note_on_c, 0, 79, 107
2, 156228, Note_off_c, 0, 79, 64
2, 156240, Note_on_c, 0, 73, 107
2, 156288, Note_off_c, 0, 73, 64
2, 156300, Note_on_c, 0, 74, 107
2, 156348, Note_off_c, 0, 74, 64
2, 156360, Note_on_c, 0, 76, 107
2, 156408, Note_off_c, 0, 76, 64
2, 156420, Note_on_c, 0, 73, 107
2, 156468, Note_off_c, 0, 73, 64
2, 156480, Note_on_c, 0, 74, 107
2, 156528, Note_off_c, 0, 74, 64
2, 156540, Note_on_c, 0, 76, 107
2, 156588, Note_off_c, 0, 76, 64
2, 156600, Note_on_c, 0, 69, 107
2, 157008, Note_off_c, 0, 69, 64
2, 157020, Note_on_c, 0, 69, 107
2, 157068, Note_off_c, 0, 69, 64
2, 157080, Note_on_c, 0, 71, 107
2, 157128, Note_off_c, 0, 71, 64
2, 157140, Note_on_c, 0, 73, 107
2, 157188, Note_off_c, 0, 73, 64
2, 157200, Note_on_c, 0, 74, 107
2, 157248, Note_off_c, 0, 74, 64
2, 157260, Note_on_c, 0, 76, 107
2, 157308, Note_off_c, 0, 76, 64
2, 157320, Note_on_c, 0, 77, 107
2, 157368, Note_off_c, 0, 77, 64
2, 157380, Note_on_c, 0, 76, 107
2, 157428, Note_off_c, 0, 76, 64
2, 157440, Note_on_c, 0, 79, 107
2, 157488, Note_off_c, 0, 79, 64
2, 157500, Note_on_c, 0, 77, 107
2, 157548, Note_off_c, 0, 77, 64
2, 157560, Note_on_c, 0, 76, 107
2, 157608, Note_off_c, 0, 76, 64
2, 157620, Note_on_c, 0, 74, 107
2, 157668, Note_off_c, 0, 74, 64
2, 157680, Note_on_c, 0, 73, 107
2, 157740, Note_on_c, 0, 57, 107
2, 157776, Note_off_c, 0, 73, 64
2, 157788, Note_off_c, 0, 57, 64
2, 157800, Note_on_c, 0, 59, 107
2, 157848, Note_off_c, 0, 59, 64
2, 157860, Note_on_c, 0, 61, 107
2, 157908, Note_off_c, 0, 61, 64
2, 157920, Note_on_c, 0, 62, 107
2, 157968, Note_off_c, 0, 62, 64
2, 157980, Note_on_c, 0, 64, 107
2, 158028, Note_off_c, 0, 64, 64
2, 158040, Note_on_c, 0, 65, 107
2, 158130, Note_off_c, 0, 65, 64
2, 158160, Note_on_c, 0, 64, 107
2, 158250, Note_off_c, 0, 64, 64
2, 158280, Note_on_c, 0, 62, 107
2, 158370, Note_off_c, 0, 62, 64
2, 158400, Note_on_c, 0, 64, 107
2, 158490, Note_off_c, 0, 64, 64
2, 158520, Note_on_c, 0, 62, 107
2, 158610, Note_off_c, 0, 62, 64
2, 158640, Note_on_c, 0, 61, 107
2, 158730, Note_off_c, 0, 61, 64
2, 158760, Note_on_c, 0, 62, 107
2, 159312, Note_off_c, 0, 62, 64
2, 159360, Note_on_c, 0, 70, 107
2, 159456, Note_off_c, 0, 70, 64
2, 159480, Note_on_c, 0, 60, 107
2, 159672, Note_off_c, 0, 60, 64
2, 159720, Note_on_c, 0, 69, 107
2, 159816, Note_off_c, 0, 69, 64
2, 159840, Note_on_c, 0, 58, 107
2, 159888, Note_off_c, 0, 58, 64
2, 159900, Note_on_c, 0, 62, 107
2, 159948, Note_off_c, 0, 62, 64
2, 159960, Note_on_c, 0, 64, 107
2, 160008, Note_off_c, 0, 64, 64
2, 160020, Note_on_c, 0, 65, 107
2, 160068, Note_off_c, 0, 65, 64
2, 160080, Note_on_c, 0, 64, 107
2, 160128, Note_off_c, 0, 64, 64
2, 160140, Note_on_c, 0, 62, 107
2, 160188, Note_off_c, 0, 62, 64
2, 160200, Note_on_c, 0, 67, 107
2, 160608, Note_off_c, 0, 67, 64
2, 160620, Note_on_c, 0, 57, 107
2, 160668, Note_off_c, 0, 57, 64
2, 160680, Note_on_c, 0, 59, 107
2, 160728, Note_off_c, 0, 59, 64
2, 160740, Note_on_c, 0, 61, 107
2, 160788, Note_off_c, 0, 61, 64
2, 160800, Note_on_c, 0, 59, 107
2, 160848, Note_off_c, 0, 59, 64
2, 160860, Note_on_c, 0, 57, 107
2, 160908, Note_off_c, 0, 57, 64
2, 160980, Note_on_c, 0, 69, 107
2, 161028, Note_off_c, 0, 69, 64
2, 161040, Note_on_c, 0, 71, 107
2, 161088, Note_off_c, 0, 71, 64
2, 161100, Note_on_c, 0, 73, 107
2, 161148, Note_off_c, 0, 73, 64
2, 161160, Note_on_c, 0, 74, 107
2, 161208, Note_off_c, 0, 74, 64
2, 161220, Note_on_c, 0, 76, 107
2, 161268, Note_off_c, 0, 76, 64
2, 161280, Note_on_c, 0, 77, 107
2, 161370, Note_off_c, 0, 77, 64
2, 161400, Note_on_c, 0, 76, 107
2, 161490, Note_off_c, 0, 76, 64
2, 161520, Note_on_c, 0, 74, 107
2, 161610, Note_off_c, 0, 74, 64
2, 161640, Note_on_c, 0, 76, 107
2, 161730, Note_off_c, 0, 76, 64
2, 161760, Note_on_c, 0, 74, 107
2, 161850, Note_off_c, 0, 74, 64
2, 161880, Note_on_c, 0, 73, 107
2, 161970, Note_off_c, 0, 73, 64
2, 162000, Note_on_c, 0, 74, 107
2, 162048, Note_off_c, 0, 74, 64
2, 162060, Note_on_c, 0, 72, 107
2, 162108, Note_off_c, 0, 72, 64
2, 162120, Note_on_c, 0, 70, 107
2, 162168, Note_off_c, 0, 70, 64
2, 162180, Note_on_c, 0, 69, 107
2, 162228, Note_off_c, 0, 69, 64
2, 162240, Note_on_c, 0, 67, 107
2, 162288, Note_off_c, 0, 67, 64
2, 162300, Note_on_c, 0, 65, 107
2, 162348, Note_off_c, 0, 65, 64
2, 162360, Note_on_c, 0, 64, 107
2, 162408, Note_off_c, 0, 64, 64
2, 162420, Note_on_c, 0, 67, 107
2, 162468, Note_off_c, 0, 67, 64
2, 162480, Note_on_c, 0, 69, 107
2, 162528, Note_off_c, 0, 69, 64
2, 162540, Note_on_c, 0, 70, 107
2, 162588, Note_off_c, 0, 70, 64
2, 162600, Note_on_c, 0, 69, 107
2, 162648, Note_off_c, 0, 69, 64
2, 162660, Note_on_c, 0, 67, 107
2, 162708, Note_off_c, 0, 67, 64
2, 162720, Note_on_c, 0, 72, 107
2, 162768, Note_off_c, 0, 72, 64
2, 162780, Note_on_c, 0, 70, 107
2, 162828, Note_off_c, 0, 70, 64
2, 162840, Note_on_c, 0, 69, 107
2, 162888, Note_off_c, 0, 69, 64
2, 162900, Note_on_c, 0, 67, 107
2, 162948, Note_off_c, 0, 67, 64
2, 162960, Note_on_c, 0, 65, 107
2, 163008, Note_off_c, 0, 65, 64
2, 163020, Note_on_c, 0, 64, 107
2, 163068, Note_off_c, 0, 64, 64
2, 163080, Note_on_c, 0, 62, 107
2, 163128, Note_off_c, 0, 62, 64
2, 163140, Note_on_c, 0, 65, 107
2, 163188, Note_off_c, 0, 65, 64
2, 163200, Note_on_c, 0, 67, 107
2, 163248, Note_off_c, 0, 67, 64
2, 163260, Note_on_c, 0, 69, 107
2, 163308, Note_off_c, 0, 69, 64
2, 163320, Note_on_c, 0, 67, 107
2, 163368, Note_off_c, 0, 67, 64
2, 163380, Note_on_c, 0, 65, 107
2, 163428, Note_off_c, 0, 65, 64
2, 163440, Note_on_c, 0, 70, 107
2, 163488, Note_off_c, 0, 70, 64
2, 163500, Note_on_c, 0, 69, 107
2, 163548, Note_off_c, 0, 69, 64
2, 163560, Note_on_c, 0, 67, 107
2, 163608, Note_off_c, 0, 67, 64
2, 163620, Note_on_c, 0, 65, 107
2, 163668, Note_off_c, 0, 65, 64
2, 163680, Note_on_c, 0, 64, 107
2, 163728, Note_off_c, 0, 64, 64
2, 163740, Note_on_c, 0, 62, 107
2, 163788, Note_off_c, 0, 62, 64
2, 163800, Note_on_c, 0, 60, 107
2, 164208, Note_off_c, 0, 60, 64
2, 164220, Note_on_c, 0, 64, 107
2, 164268, Note_off_c, 0, 64, 64
2, 164280, Note_on_c, 0, 65, 107
2, 164328, Note_off_c, 0, 65, 64
2, 164340, Note_on_c, 0, 69, 107
2, 164388, Note_off_c, 0, 69, 64
2, 164400, Note_on_c, 0, 64, 107
2, 164448, Note_off_c, 0, 64, 64
2, 164460, Note_on_c, 0, 65, 107
2, 164508, Note_off_c, 0, 65, 64
2, 164520, Note_on_c, 0, 60, 107
2, 164568, Note_off_c, 0, 60, 64
2, 164580, Note_on_c, 0, 64, 107
2, 164628, Note_off_c, 0, 64, 64
2, 164640, Note_on_c, 0, 65, 107
2, 164688, Note_off_c, 0, 65, 64
2, 164700, Note_on_c, 0, 69, 107
2, 164748, Note_off_c, 0, 69, 64
2, 164760, Note_on_c, 0, 64, 107
2, 164808, Note_off_c, 0, 64, 64
2, 164820, Note_on_c, 0, 65, 107
2, 164868, Note_off_c, 0, 65, 64
2, 164880, Note_on_c, 0, 60, 107
2, 164928, Note_off_c, 0, 60, 64
2, 164940, Note_on_c, 0, 64, 107
2, 164988, Note_off_c, 0, 64, 64
2, 165000, Note_on_c, 0, 65, 107
2, 165048, Note_off_c, 0, 65, 64
2, 165060, Note_on_c, 0, 69, 107
2, 165108, Note_off_c, 0, 69, 64
2, 165120, Note_on_c, 0, 64, 107
2, 165168, Note_off_c, 0, 64, 64
2, 165180, Note_on_c, 0, 65, 107
2, 165228, Note_off_c, 0, 65, 64
2, 165240, Note_on_c, 0, 60, 107
2, 165288, Note_off_c, 0, 60, 64
2, 165300, Note_on_c, 0, 64, 107
2, 165348, Note_off_c, 0, 64, 64
2, 165360, Note_on_c, 0, 65, 107
2, 165408, Note_off_c, 0, 65, 64
2, 165420, Note_on_c, 0, 69, 107
2, 165468, Note_off_c, 0, 69, 64
2, 165480, Note_on_c, 0, 64, 107
2, 165528, Note_off_c, 0, 64, 64
2, 165540, Note_on_c, 0, 65, 107
2, 165588, Note_off_c, 0, 65, 64
2, 165600, Note_on_c, 0, 60, 107
2, 165648, Note_off_c, 0, 60, 64
2, 165660, Note_on_c, 0, 64, 107
2, 165708, Note_off_c, 0, 64, 64
2, 165720, Note_on_c, 0, 65, 107
2, 165768, Note_off_c, 0, 65, 64
2, 165780, Note_on_c, 0, 69, 107
2, 165828, Note_off_c, 0, 69, 64
2, 165840, Note_on_c, 0, 64, 107
2, 165888, Note_off_c, 0, 64, 64
2, 165900, Note_on_c, 0, 65, 107
2, 165948, Note_off_c, 0, 65, 64
2, 165960, Note_on_c, 0, 60, 107
2, 166008, Note_off_c, 0, 60, 64
2, 166020, Note_on_c, 0, 64, 107
2, 166068, Note_off_c, 0, 64, 64
2, 166080, Note_on_c, 0, 65, 107
2, 166128, Note_off_c, 0, 65, 64
2, 166140, Note_on_c, 0, 69, 107
2, 166188, Note_off_c, 0, 69, 64
2, 166200, Note_on_c, 0, 64, 107
2, 166248, Note_off_c, 0, 64, 64
2, 166260, Note_on_c, 0, 65, 107
2, 166308, Note_off_c, 0, 65, 64
2, 166320, Note_on_c, 0, 62, 107
2, 166416, Note_off_c, 0, 62, 64
2, 166440, Note_on_c, 0, 64, 107
2, 166488, Note_off_c, 0, 64, 64
2, 166500, Note_on_c, 0, 65, 107
2, 166548, Note_off_c, 0, 65, 64
2, 166560, Note_on_c, 0, 67, 107
2, 166608, Note_off_c, 0, 67, 64
2, 166620, Note_on_c, 0, 69, 107
2, 166668, Note_off_c, 0, 69, 64
2, 166680, Note_on_c, 0, 70, 107
2, 166770, Note_off_c, 0, 70, 64
2, 166800, Note_on_c, 0, 69, 107
2, 166890, Note_off_c, 0, 69, 64
2, 166920, Note_on_c, 0, 67, 107
2, 167010, Note_off_c, 0, 67, 64
2, 167040, Note_on_c, 0, 69, 107
2, 167130, Note_off_c, 0, 69, 64
2, 167160, Note_on_c, 0, 67, 107
2, 167250, Note_off_c, 0, 67, 64
2, 167280, Note_on_c, 0, 65, 107
2, 167370, Note_off_c, 0, 65, 64
2, 167400, Note_on_c, 0, 64, 107
2, 167400, Note_on_c, 0, 72, 107
2, 167592, Note_off_c, 0, 72, 64
2, 167592, Note_off_c, 0, 64, 64
2, 167640, Note_on_c, 0, 64, 107
2, 167640, Note_on_c, 0, 60, 107
2, 167736, Note_off_c, 0, 60, 64
2, 167736, Note_off_c, 0, 64, 64
2, 167760, Note_on_c, 0, 65, 107
2, 167760, Note_on_c, 0, 60, 107
2, 167952, Note_off_c, 0, 60, 64
2, 167952, Note_off_c, 0, 65, 64
2, 168000, Note_on_c, 0, 62, 107
2, 168000, Note_on_c, 0, 67, 107
2, 168096, Note_off_c, 0, 67, 64
2, 168096, Note_off_c, 0, 62, 64
2, 168120, Note_on_c, 0, 69, 107
2, 168120, Note_on_c, 0, 60, 107
2, 168144, Note_off_c, 0, 69, 64
2, 168150, Note_on_c, 0, 67, 107
2, 168174, Note_off_c, 0, 67, 64
2, 168180, Note_on_c, 0, 69, 107
2, 168204, Note_off_c, 0, 69, 64
2, 168210, Note_on_c, 0, 67, 107
2, 168384, Note_off_c, 0, 67, 64
2, 168390, Note_on_c, 0, 65, 107
2, 168408, Note_off_c, 0, 60, 64
2, 168414, Note_off_c, 0, 65, 64
2, 168420, Note_on_c, 0, 67, 107
2, 168444, Note_off_c, 0, 67, 64
2, 168450, Note_on_c, 0, 69, 107
2, 168474, Note_off_c, 0, 69, 64
2, 168480, Note_on_c, 0, 60, 107
2, 168480, Note_on_c, 0, 65, 107
2, 168480, Note_on_c, 0, 57, 107
2, 168672, Note_off_c, 0, 57, 64
2, 168672, Note_off_c, 0, 65, 64
2, 168672, Note_off_c, 0, 60, 64
2, 168900, Note_on_c, 0, 62, 107
2, 168948, Note_off_c, 0, 62, 64
2, 168960, Note_on_c, 0, 64, 107
2, 169008, Note_off_c, 0, 64, 64
2, 169020, Note_on_c, 0, 65, 107
2, 169068, Note_off_c, 0, 65, 64
2, 169080, Note_on_c, 0, 67, 107
2, 169128, Note_off_c, 0, 67, 64
2, 169140, Note_on_c, 0, 69, 107
2, 169188, Note_off_c, 0, 69, 64
2, 169200, Note_on_c, 0, 58, 107
2, 169248, Note_off_c, 0, 58, 64
2, 169260, Note_on_c, 0, 60, 107
2, 169308, Note_off_c, 0, 60, 64
2, 169320, Note_on_c, 0, 62, 107
2, 169368, Note_off_c, 0, 62, 64
2, 169380, Note_on_c, 0, 64, 107
2, 169428, Note_off_c, 0, 64, 64
2, 169440, Note_on_c, 0, 65, 107
2, 169488, Note_off_c, 0, 65, 64
2, 169500, Note_on_c, 0, 67, 107
2, 169548, Note_off_c, 0, 67, 64
2, 169620, Note_on_c, 0, 77, 107
2, 169668, Note_off_c, 0, 77, 64
2, 169680, Note_on_c, 0, 76, 107
2, 169728, Note_off_c, 0, 76, 64
2, 169740, Note_on_c, 0, 74, 107
2, 169788, Note_off_c, 0, 74, 64
2, 169800, Note_on_c, 0, 72, 107
2, 169848, Note_off_c, 0, 72, 64
2, 169860, Note_on_c, 0, 70, 107
2, 169908, Note_off_c, 0, 70, 64
2, 169920, Note_on_c, 0, 69, 107
2, 170010, Note_off_c, 0, 69, 64
2, 170040, Note_on_c, 0, 71, 107
2, 170130, Note_off_c, 0, 71, 64
2, 170160, Note_on_c, 0, 72, 107
2, 170250, Note_off_c, 0, 72, 64
2, 170280, Note_on_c, 0, 71, 107
2, 170370, Note_off_c, 0, 71, 64
2, 170400, Note_on_c, 0, 72, 107
2, 170490, Note_off_c, 0, 72, 64
2, 170520, Note_on_c, 0, 74, 107
2, 170610, Note_off_c, 0, 74, 64
2, 170640, Note_on_c, 0, 72, 107
2, 170700, Note_on_c, 0, 69, 107
2, 170748, Note_off_c, 0, 69, 64
2, 170760, Note_on_c, 0, 67, 107
2, 170808, Note_off_c, 0, 67, 64
2, 170820, Note_on_c, 0, 65, 107
2, 170868, Note_off_c, 0, 65, 64
2, 170880, Note_on_c, 0, 64, 107
2, 170928, Note_off_c, 0, 64, 64
2, 170940, Note_on_c, 0, 62, 107
2, 170988, Note_off_c, 0, 62, 64
2, 171000, Note_on_c, 0, 60, 107
2, 171096, Note_off_c, 0, 60, 64
2, 171120, Note_on_c, 0, 62, 107
2, 171210, Note_off_c, 0, 62, 64
2, 171240, Note_on_c, 0, 64, 107
2, 171330, Note_off_c, 0, 64, 64
2, 171360, Note_on_c, 0, 62, 107
2, 171450, Note_off_c, 0, 62, 64
2, 171480, Note_on_c, 0, 64, 107
2, 171570, Note_off_c, 0, 64, 64
2, 171600, Note_on_c, 0, 65, 107
2, 171696, Note_off_c, 0, 65, 64
2, 171720, Note_on_c, 0, 64, 107
2, 171810, Note_off_c, 0, 64, 64
2, 171840, Note_on_c, 0, 65, 107
2, 171930, Note_off_c, 0, 65, 64
2, 171960, Note_on_c, 0, 67, 107
2, 172050, Note_off_c, 0, 67, 64
2, 172080, Note_on_c, 0, 67, 107
2, 172176, Note_off_c, 0, 67, 64
2, 172200, Note_on_c, 0, 65, 107
2, 172296, Note_off_c, 0, 65, 64
2, 172320, Note_on_c, 0, 63, 107
2, 172410, Note_off_c, 0, 63, 64
2, 172440, Note_on_c, 0, 63, 107
2, 172536, Note_off_c, 0, 63, 64
2, 172560, Note_on_c, 0, 62, 107
2, 172632, Note_off_c, 0, 72, 64
2, 172680, Note_on_c, 0, 72, 107
2, 172776, Note_off_c, 0, 72, 64
2, 172800, Note_on_c, 0, 71, 107
2, 172848, Note_off_c, 0, 71, 64
2, 172860, Note_on_c, 0, 69, 107
2, 172908, Note_off_c, 0, 69, 64
2, 172920, Note_on_c, 0, 71, 107
2, 172968, Note_off_c, 0, 71, 64
2, 172980, Note_on_c, 0, 72, 107
2, 173028, Note_off_c, 0, 72, 64
2, 173040, Note_on_c, 0, 74, 107
2, 173088, Note_off_c, 0, 74, 64
2, 173088, Note_off_c, 0, 62, 64
2, 173100, Note_on_c, 0, 76, 107
2, 173148, Note_off_c, 0, 76, 64
2, 173160, Note_on_c, 0, 77, 107
2, 173250, Note_off_c, 0, 77, 64
2, 173280, Note_on_c, 0, 76, 107
2, 173370, Note_off_c, 0, 76, 64
2, 173400, Note_on_c, 0, 74, 107
2, 173490, Note_off_c, 0, 74, 64
2, 173520, Note_on_c, 0, 76, 107
2, 173568, Note_off_c, 0, 76, 64
2, 173580, Note_on_c, 0, 72, 107
2, 173628, Note_off_c, 0, 72, 64
2, 173640, Note_on_c, 0, 74, 107
2, 173688, Note_off_c, 0, 74, 64
2, 173700, Note_on_c, 0, 76, 107
2, 173748, Note_off_c, 0, 76, 64
2, 173760, Note_on_c, 0, 77, 107
2, 173808, Note_off_c, 0, 77, 64
2, 173820, Note_on_c, 0, 79, 107
2, 173868, Note_off_c, 0, 79, 64
2, 173880, Note_on_c, 0, 81, 107
2, 173928, Note_off_c, 0, 81, 64
2, 173940, Note_on_c, 0, 77, 107
2, 173988, Note_off_c, 0, 77, 64
2, 174000, Note_on_c, 0, 76, 107
2, 174048, Note_off_c, 0, 76, 64
2, 174060, Note_on_c, 0, 74, 107
2, 174108, Note_off_c, 0, 74, 64
2, 174120, Note_on_c, 0, 76, 107
2, 174168, Note_off_c, 0, 76, 64
2, 174180, Note_on_c, 0, 77, 107
2, 174228, Note_off_c, 0, 77, 64
2, 174240, Note_on_c, 0, 79, 107
2, 174288, Note_off_c, 0, 79, 64
2, 174300, Note_on_c, 0, 76, 107
2, 174348, Note_off_c, 0, 76, 64
2, 174360, Note_on_c, 0, 74, 107
2, 174408, Note_off_c, 0, 74, 64
2, 174420, Note_on_c, 0, 72, 107
2, 174468, Note_off_c, 0, 72, 64
2, 174480, Note_on_c, 0, 74, 107
2, 174528, Note_off_c, 0, 74, 64
2, 174540, Note_on_c, 0, 76, 107
2, 174588, Note_off_c, 0, 76, 64
2, 174600, Note_on_c, 0, 77, 107
2, 174648, Note_off_c, 0, 77, 64
2, 174660, Note_on_c, 0, 74, 107
2, 174708, Note_off_c, 0, 74, 64
2, 174720, Note_on_c, 0, 72, 107
2, 174768, Note_off_c, 0, 72, 64
2, 174780, Note_on_c, 0, 71, 107
2, 174828, Note_off_c, 0, 71, 64
2, 174840, Note_on_c, 0, 72, 107
2, 174888, Note_off_c, 0, 72, 64
2, 174900, Note_on_c, 0, 74, 107
2, 174948, Note_off_c, 0, 74, 64
2, 174960, Note_on_c, 0, 76, 107
2, 175008, Note_off_c, 0, 76, 64
2, 175020, Note_on_c, 0, 71, 107
2, 175068, Note_off_c, 0, 71, 64
2, 175080, Note_on_c, 0, 72, 107
2, 175128, Note_off_c, 0, 72, 64
2, 175140, Note_on_c, 0, 76, 107
2, 175188, Note_off_c, 0, 76, 64
2, 175200, Note_on_c, 0, 71, 107
2, 175248, Note_off_c, 0, 71, 64
2, 175260, Note_on_c, 0, 72, 107
2, 175308, Note_off_c, 0, 72, 64
2, 175320, Note_on_c, 0, 65, 107
2, 175368, Note_off_c, 0, 65, 64
2, 175380, Note_on_c, 0, 71, 107
2, 175428, Note_off_c, 0, 71, 64
2, 175440, Note_on_c, 0, 72, 107
2, 175488, Note_off_c, 0, 72, 64
2, 175500, Note_on_c, 0, 76, 107
2, 175548, Note_off_c, 0, 76, 64
2, 175560, Note_on_c, 0, 71, 107
2, 175608, Note_off_c, 0, 71, 64
2, 175620, Note_on_c, 0, 72, 107
2, 175668, Note_off_c, 0, 72, 64
2, 175680, Note_on_c, 0, 67, 107
2, 175728, Note_off_c, 0, 67, 64
2, 175740, Note_on_c, 0, 71, 107
2, 175788, Note_off_c, 0, 71, 64
2, 175800, Note_on_c, 0, 72, 107
2, 175848, Note_off_c, 0, 72, 64
2, 175860, Note_on_c, 0, 76, 107
2, 175908, Note_off_c, 0, 76, 64
2, 175920, Note_on_c, 0, 71, 107
2, 175968, Note_off_c, 0, 71, 64
2, 175980, Note_on_c, 0, 72, 107
2, 176028, Note_off_c, 0, 72, 64
2, 176040, Note_on_c, 0, 69, 107
2, 176088, Note_off_c, 0, 69, 64
2, 176100, Note_on_c, 0, 71, 107
2, 176148, Note_off_c, 0, 71, 64
2, 176160, Note_on_c, 0, 72, 107
2, 176208, Note_off_c, 0, 72, 64
2, 176220, Note_on_c, 0, 76, 107
2, 176268, Note_off_c, 0, 76, 64
2, 176280, Note_on_c, 0, 71, 107
2, 176328, Note_off_c, 0, 71, 64
2, 176340, Note_on_c, 0, 72, 107
2, 176388, Note_off_c, 0, 72, 64
2, 176400, Note_on_c, 0, 67, 107
2, 176448, Note_off_c, 0, 67, 64
2, 176460, Note_on_c, 0, 71, 107
2, 176508, Note_off_c, 0, 71, 64
2, 176520, Note_on_c, 0, 72, 107
2, 176568, Note_off_c, 0, 72, 64
2, 176580, Note_on_c, 0, 76, 107
2, 176628, Note_off_c, 0, 76, 64
2, 176640, Note_on_c, 0, 71, 107
2, 176688, Note_off_c, 0, 71, 64
2, 176700, Note_on_c, 0, 72, 107
2, 176748, Note_off_c, 0, 72, 64
2, 176760, Note_on_c, 0, 66, 107
2, 176808, Note_off_c, 0, 66, 64
2, 176820, Note_on_c, 0, 71, 107
2, 176868, Note_off_c, 0, 71, 64
2, 176880, Note_on_c, 0, 72, 107
2, 176928, Note_off_c, 0, 72, 64
2, 176940, Note_on_c, 0, 75, 107
2, 176988, Note_off_c, 0, 75, 64
2, 177000, Note_on_c, 0, 71, 107
2, 177048, Note_off_c, 0, 71, 64
2, 177060, Note_on_c, 0, 72, 107
2, 177108, Note_off_c, 0, 72, 64
2, 177120, Note_on_c, 0, 65, 107
2, 177168, Note_off_c, 0, 65, 64
2, 177180, Note_on_c, 0, 69, 107
2, 177228, Note_off_c, 0, 69, 64
2, 177240, Note_on_c, 0, 71, 107
2, 177288, Note_off_c, 0, 71, 64
2, 177300, Note_on_c, 0, 74, 107
2, 177348, Note_off_c, 0, 74, 64
2, 177360, Note_on_c, 0, 69, 107
2, 177408, Note_off_c, 0, 69, 64
2, 177420, Note_on_c, 0, 71, 107
2, 177468, Note_off_c, 0, 71, 64
2, 177480, Note_on_c, 0, 63, 107
2, 177528, Note_off_c, 0, 63, 64
2, 177540, Note_on_c, 0, 67, 107
2, 177588, Note_off_c, 0, 67, 64
2, 177600, Note_on_c, 0, 69, 107
2, 177648, Note_off_c, 0, 69, 64
2, 177660, Note_on_c, 0, 72, 107
2, 177708, Note_off_c, 0, 72, 64
2, 177720, Note_on_c, 0, 66, 107
2, 177768, Note_off_c, 0, 66, 64
2, 177780, Note_on_c, 0, 67, 107
2, 177828, Note_off_c, 0, 67, 64
2, 177840, Note_on_c, 0, 62, 107
2, 177888, Note_off_c, 0, 62, 64
2, 177900, Note_on_c, 0, 65, 107
2, 177948, Note_off_c, 0, 65, 64
2, 177960, Note_on_c, 0, 67, 107
2, 178008, Note_off_c, 0, 67, 64
2, 178020, Note_on_c, 0, 71, 107
2, 178068, Note_off_c, 0, 71, 64
2, 178080, Note_on_c, 0, 65, 107
2, 178128, Note_off_c, 0, 65, 64
2, 178140, Note_on_c, 0, 67, 107
2, 178188, Note_off_c, 0, 67, 64
2, 178200, Note_on_c, 0, 72, 107
2, 178200, Note_on_c, 0, 64, 107
2, 178488, Note_off_c, 0, 64, 64
2, 178608, Note_off_c, 0, 72, 64
2, 178620, Note_on_c, 0, 67, 107
2, 178668, Note_off_c, 0, 67, 64
2, 178680, Note_on_c, 0, 69, 107
2, 178728, Note_off_c, 0, 69, 64
2, 178740, Note_on_c, 0, 71, 107
2, 178788, Note_off_c, 0, 71, 64
2, 178800, Note_on_c, 0, 72, 107
2, 178848, Note_off_c, 0, 72, 64
2, 178860, Note_on_c, 0, 74, 107
2, 178908, Note_off_c, 0, 74, 64
2, 178920, Note_on_c, 0, 75, 107
2, 179016, Note_off_c, 0, 75, 64
2, 179040, Note_on_c, 0, 74, 107
2, 179136, Note_off_c, 0, 74, 64
2, 179160, Note_on_c, 0, 72, 107
2, 179250, Note_off_c, 0, 72, 64
2, 179280, Note_on_c, 0, 70, 107
2, 179340, Note_on_c, 0, 67, 107
2, 179388, Note_off_c, 0, 67, 64
2, 179400, Note_on_c, 0, 66, 107
2, 179448, Note_off_c, 0, 66, 64
2, 179460, Note_on_c, 0, 64, 107
2, 179508, Note_off_c, 0, 64, 64
2, 179520, Note_on_c, 0, 62, 107
2, 179568, Note_off_c, 0, 62, 64
2, 179580, Note_on_c, 0, 60, 107
2, 179628, Note_off_c, 0, 60, 64
2, 179832, Note_off_c, 0, 70, 64
2, 179880, Note_on_c, 0, 65, 107
2, 179880, Note_on_c, 0, 67, 107
2, 179880, Note_on_c, 0, 70, 107
2, 179976, Note_off_c, 0, 70, 64
2, 179976, Note_off_c, 0, 67, 64
2, 179976, Note_off_c, 0, 65, 64
2, 180000, Note_on_c, 0, 64, 107
2, 180000, Note_on_c, 0, 74, 107
2, 180000, Note_on_c, 0, 70, 107
2, 180096, Note_off_c, 0, 70, 64
2, 180096, Note_off_c, 0, 74, 64
2, 180120, Note_on_c, 0, 72, 107
2, 180120, Note_on_c, 0, 69, 107
2, 180216, Note_off_c, 0, 69, 64
2, 180216, Note_off_c, 0, 72, 64
2, 180240, Note_on_c, 0, 67, 107
2, 180240, Note_on_c, 0, 70, 107
2, 180288, Note_off_c, 0, 64, 64
2, 180330, Note_off_c, 0, 70, 64
2, 180336, Note_off_c, 0, 67, 64
2, 180360, Note_on_c, 0, 69, 107
2, 180420, Note_on_c, 0, 65, 107
2, 180468, Note_off_c, 0, 65, 64
2, 180480, Note_on_c, 0, 64, 107
2, 180528, Note_off_c, 0, 64, 64
2, 180540, Note_on_c, 0, 62, 107
2, 180588, Note_off_c, 0, 62, 64
2, 180600, Note_on_c, 0, 60, 107
2, 180648, Note_off_c, 0, 60, 64
2, 180660, Note_on_c, 0, 58, 107
2, 180708, Note_off_c, 0, 58, 64
2, 180912, Note_off_c, 0, 69, 64
2, 180960, Note_on_c, 0, 69, 107
2, 180960, Note_on_c, 0, 69, 107
2, 181056, Note_off_c, 0, 69, 64
2, 181080, Note_on_c, 0, 74, 107
2, 181128, Note_off_c, 0, 74, 64
2, 181140, Note_on_c, 0, 76, 107
2, 181188, Note_off_c, 0, 76, 64
2, 181200, Note_on_c, 0, 74, 107
2, 181248, Note_off_c, 0, 74, 64
2, 181260, Note_on_c, 0, 76, 107
2, 181308, Note_off_c, 0, 76, 64
2, 181320, Note_on_c, 0, 77, 107
2, 181368, Note_off_c, 0, 69, 64
2, 181416, Note_off_c, 0, 77, 64
2, 181440, Note_on_c, 0, 67, 107
2, 181728, Note_off_c, 0, 67, 64
2, 181800, Note_on_c, 0, 61, 107
2, 181848, Note_off_c, 0, 61, 64
2, 181860, Note_on_c, 0, 62, 107
2, 181908, Note_off_c, 0, 62, 64
2, 181920, Note_on_c, 0, 64, 107
2, 181968, Note_off_c, 0, 64, 64
2, 181980, Note_on_c, 0, 65, 107
2, 182028, Note_off_c, 0, 65, 64
2, 182040, Note_on_c, 0, 67, 107
2, 182040, Note_on_c, 0, 67, 107
2, 182088, Note_off_c, 0, 67, 64
2, 182100, Note_on_c, 0, 69, 107
2, 182148, Note_off_c, 0, 69, 64
2, 182160, Note_off_c, 0, 67, 64
2, 182160, Note_on_c, 0, 67, 107
2, 182160, Note_on_c, 0, 70, 107
2, 182160, Note_on_c, 0, 61, 107
2, 182256, Note_off_c, 0, 70, 64
2, 182256, Note_off_c, 0, 67, 64
2, 182280, Note_on_c, 0, 69, 107
2, 182280, Note_on_c, 0, 65, 107
2, 182376, Note_off_c, 0, 65, 64
2, 182376, Note_off_c, 0, 69, 64
2, 182400, Note_on_c, 0, 67, 107
2, 182400, Note_on_c, 0, 64, 107
2, 182496, Note_off_c, 0, 64, 64
2, 182496, Note_off_c, 0, 67, 64
2, 182520, Note_off_c, 0, 61, 64
2, 182520, Note_on_c, 0, 69, 107
2, 182568, Note_off_c, 0, 69, 64
2, 182580, Note_on_c, 0, 62, 107
2, 182628, Note_off_c, 0, 62, 64
2, 182640, Note_on_c, 0, 61, 107
2, 182688, Note_off_c, 0, 61, 64
2, 182700, Note_on_c, 0, 59, 107
2, 182748, Note_off_c, 0, 59, 64
2, 182760, Note_on_c, 0, 61, 107
2, 182808, Note_off_c, 0, 61, 64
2, 182820, Note_on_c, 0, 62, 107
2, 182868, Note_off_c, 0, 62, 64
2, 182880, Note_on_c, 0, 67, 107
2, 182928, Note_off_c, 0, 67, 64
2, 182940, Note_on_c, 0, 64, 107
2, 182988, Note_off_c, 0, 64, 64
2, 183000, Note_on_c, 0, 62, 107
2, 183048, Note_off_c, 0, 62, 64
2, 183060, Note_on_c, 0, 61, 107
2, 183108, Note_off_c, 0, 61, 64
2, 183120, Note_on_c, 0, 62, 107
2, 183168, Note_off_c, 0, 62, 64
2, 183180, Note_on_c, 0, 64, 107
2, 183228, Note_off_c, 0, 64, 64
2, 183240, Note_on_c, 0, 69, 107
2, 183288, Note_off_c, 0, 69, 64
2, 183300, Note_on_c, 0, 65, 107
2, 183348, Note_off_c, 0, 65, 64
2, 183360, Note_on_c, 0, 64, 107
2, 183408, Note_off_c, 0, 64, 64
2, 183420, Note_on_c, 0, 62, 107
2, 183468, Note_off_c, 0, 62, 64
2, 183480, Note_on_c, 0, 64, 107
2, 183528, Note_off_c, 0, 64, 64
2, 183540, Note_on_c, 0, 65, 107
2, 183588, Note_off_c, 0, 65, 64
2, 183600, Note_on_c, 0, 71, 107
2, 183648, Note_off_c, 0, 71, 64
2, 183660, Note_on_c, 0, 67, 107
2, 183708, Note_off_c, 0, 67, 64
2, 183720, Note_on_c, 0, 65, 107
2, 183768, Note_off_c, 0, 65, 64
2, 183780, Note_on_c, 0, 64, 107
2, 183828, Note_off_c, 0, 64, 64
2, 183840, Note_on_c, 0, 65, 107
2, 183888, Note_off_c, 0, 65, 64
2, 183900, Note_on_c, 0, 67, 107
2, 183948, Note_off_c, 0, 67, 64
2, 183960, Note_on_c, 0, 73, 107
2, 184008, Note_off_c, 0, 73, 64
2, 184020, Note_on_c, 0, 69, 107
2, 184068, Note_off_c, 0, 69, 64
2, 184080, Note_on_c, 0, 67, 107
2, 184128, Note_off_c, 0, 67, 64
2, 184140, Note_on_c, 0, 65, 107
2, 184188, Note_off_c, 0, 65, 64
2, 184200, Note_on_c, 0, 67, 107
2, 184248, Note_off_c, 0, 67, 64
2, 184260, Note_on_c, 0, 69, 107
2, 184308, Note_off_c, 0, 69, 64
2, 184320, Note_on_c, 0, 74, 107
2, 184368, Note_off_c, 0, 74, 64
2, 184380, Note_on_c, 0, 70, 107
2, 184428, Note_off_c, 0, 70, 64
2, 184440, Note_on_c, 0, 69, 107
2, 184488, Note_off_c, 0, 69, 64
2, 184500, Note_on_c, 0, 67, 107
2, 184548, Note_off_c, 0, 67, 64
2, 184560, Note_on_c, 0, 69, 107
2, 184608, Note_off_c, 0, 69, 64
2, 184620, Note_on_c, 0, 70, 107
2, 184668, Note_off_c, 0, 70, 64
2, 184680, Note_on_c, 0, 76, 107
2, 184728, Note_off_c, 0, 76, 64
2, 184740, Note_on_c, 0, 70, 107
2, 184788, Note_off_c, 0, 70, 64
2, 184800, Note_on_c, 0, 69, 107
2, 184848, Note_off_c, 0, 69, 64
2, 184860, Note_on_c, 0, 67, 107
2, 184908, Note_off_c, 0, 67, 64
2, 184920, Note_on_c, 0, 65, 107
2, 184968, Note_off_c, 0, 65, 64
2, 184980, Note_on_c, 0, 64, 107
2, 185028, Note_off_c, 0, 64, 64
2, 185040, Note_on_c, 0, 65, 107
2, 185088, Note_off_c, 0, 65, 64
2, 185100, Note_on_c, 0, 69, 107
2, 185148, Note_off_c, 0, 69, 64
2, 185160, Note_on_c, 0, 70, 107
2, 185208, Note_off_c, 0, 70, 64
2, 185220, Note_on_c, 0, 72, 107
2, 185268, Note_off_c, 0, 72, 64
2, 185280, Note_on_c, 0, 70, 107
2, 185328, Note_off_c, 0, 70, 64
2, 185340, Note_on_c, 0, 69, 107
2, 185388, Note_off_c, 0, 69, 64
2, 185400, Note_on_c, 0, 67, 107
2, 185448, Note_off_c, 0, 67, 64
2, 185460, Note_on_c, 0, 74, 107
2, 185508, Note_off_c, 0, 74, 64
2, 185520, Note_on_c, 0, 76, 107
2, 185568, Note_off_c, 0, 76, 64
2, 185580, Note_on_c, 0, 77, 107
2, 185628, Note_off_c, 0, 77, 64
2, 185640, Note_on_c, 0, 76, 107
2, 185688, Note_off_c, 0, 76, 64
2, 185700, Note_on_c, 0, 74, 107
2, 185748, Note_off_c, 0, 74, 64
2, 185760, Note_on_c, 0, 73, 107
2, 186168, Note_off_c, 0, 73, 64
2, 186180, Note_on_c, 0, 71, 107
2, 186228, Note_off_c, 0, 71, 64
2, 186240, Note_on_c, 0, 73, 107
2, 186288, Note_off_c, 0, 73, 64
2, 186300, Note_on_c, 0, 74, 107
2, 186348, Note_off_c, 0, 74, 64
2, 186360, Note_on_c, 0, 76, 107
2, 186408, Note_off_c, 0, 76, 64
2, 186420, Note_on_c, 0, 77, 107
2, 186468, Note_off_c, 0, 77, 64
2, 186480, Note_on_c, 0, 79, 107
2, 186528, Note_off_c, 0, 79, 64
2, 186540, Note_on_c, 0, 77, 107
2, 186588, Note_off_c, 0, 77, 64
2, 186600, Note_on_c, 0, 76, 107
2, 186648, Note_off_c, 0, 76, 64
2, 186660, Note_on_c, 0, 77, 107
2, 186708, Note_off_c, 0, 77, 64
2, 186720, Note_on_c, 0, 79, 107
2, 186768, Note_off_c, 0, 79, 64
2, 186780, Note_on_c, 0, 76, 107
2, 186828, Note_off_c, 0, 76, 64
2, 186840, Note_on_c, 0, 77, 107
2, 186888, Note_off_c, 0, 77, 64
2, 186900, Note_on_c, 0, 74, 107
2, 186948, Note_off_c, 0, 74, 64
2, 186960, Note_on_c, 0, 76, 107
2, 187008, Note_off_c, 0, 76, 64
2, 187020, Note_on_c, 0, 78, 107
2, 187068, Note_off_c, 0, 78, 64
2, 187080, Note_on_c, 0, 79, 107
2, 187128, Note_off_c, 0, 79, 64
2, 187140, Note_on_c, 0, 81, 107
2, 187188, Note_off_c, 0, 81, 64
2, 187200, Note_on_c, 0, 82, 107
2, 187290, Note_off_c, 0, 82, 64
2, 187320, Note_on_c, 0, 81, 107
2, 187410, Note_off_c, 0, 81, 64
2, 187440, Note_on_c, 0, 79, 107
2, 187530, Note_off_c, 0, 79, 64
2, 187560, Note_on_c, 0, 81, 107
2, 187650, Note_off_c, 0, 81, 64
2, 187680, Note_on_c, 0, 79, 107
2, 187770, Note_off_c, 0, 79, 64
2, 187800, Note_on_c, 0, 78, 107
2, 187890, Note_off_c, 0, 78, 64
2, 187920, Note_on_c, 0, 79, 107
2, 188328, Note_off_c, 0, 79, 64
2, 188340, Note_on_c, 0, 69, 107
2, 188388, Note_off_c, 0, 69, 64
2, 188400, Note_on_c, 0, 71, 107
2, 188448, Note_off_c, 0, 71, 64
2, 188460, Note_on_c, 0, 72, 107
2, 188508, Note_off_c, 0, 72, 64
2, 188520, Note_on_c, 0, 74, 107
2, 188568, Note_off_c, 0, 74, 64
2, 188580, Note_on_c, 0, 76, 107
2, 188628, Note_off_c, 0, 76, 64
2, 188640, Note_on_c, 0, 77, 107
2, 188688, Note_off_c, 0, 77, 64
2, 188700, Note_on_c, 0, 76, 107
2, 188748, Note_off_c, 0, 76, 64
2, 188760, Note_on_c, 0, 74, 107
2, 188808, Note_off_c, 0, 74, 64
2, 188820, Note_on_c, 0, 76, 107
2, 188868, Note_off_c, 0, 76, 64
2, 188880, Note_on_c, 0, 77, 107
2, 188928, Note_off_c, 0, 77, 64
2, 188940, Note_on_c, 0, 74, 107
2, 188988, Note_off_c, 0, 74, 64
2, 189000, Note_on_c, 0, 76, 107
2, 189000, Note_on_c, 0, 60, 107
2, 189048, Note_off_c, 0, 76, 64
2, 189060, Note_on_c, 0, 72, 107
2, 189108, Note_off_c, 0, 72, 64
2, 189120, Note_on_c, 0, 74, 107
2, 189168, Note_off_c, 0, 74, 64
2, 189180, Note_on_c, 0, 76, 107
2, 189228, Note_off_c, 0, 76, 64
2, 189240, Note_on_c, 0, 77, 107
2, 189288, Note_off_c, 0, 77, 64
2, 189300, Note_on_c, 0, 79, 107
2, 189348, Note_off_c, 0, 79, 64
2, 189360, Note_on_c, 0, 81, 107
2, 189408, Note_off_c, 0, 60, 64
2, 189420, Note_on_c, 0, 62, 107
2, 189450, Note_off_c, 0, 81, 64
2, 189468, Note_off_c, 0, 62, 64
2, 189480, Note_on_c, 0, 64, 107
2, 189480, Note_on_c, 0, 79, 107
2, 189528, Note_off_c, 0, 64, 64
2, 189540, Note_on_c, 0, 65, 107
2, 189570, Note_off_c, 0, 79, 64
2, 189588, Note_off_c, 0, 65, 64
2, 189600, Note_on_c, 0, 67, 107
2, 189600, Note_on_c, 0, 77, 107
2, 189648, Note_off_c, 0, 67, 64
2, 189660, Note_on_c, 0, 69, 107
2, 189690, Note_off_c, 0, 77, 64
2, 189708, Note_off_c, 0, 69, 64
2, 189720, Note_on_c, 0, 79, 107
2, 189720, Note_on_c, 0, 70, 107
2, 189768, Note_off_c, 0, 70, 64
2, 189780, Note_on_c, 0, 69, 107
2, 189810, Note_off_c, 0, 79, 64
2, 189828, Note_off_c, 0, 69, 64
2, 189840, Note_on_c, 0, 77, 107
2, 189840, Note_on_c, 0, 67, 107
2, 189888, Note_off_c, 0, 67, 64
2, 189900, Note_on_c, 0, 69, 107
2, 189930, Note_off_c, 0, 77, 64
2, 189948, Note_off_c, 0, 69, 64
2, 189960, Note_on_c, 0, 76, 107
2, 189960, Note_on_c, 0, 70, 107
2, 190008, Note_off_c, 0, 70, 64
2, 190020, Note_on_c, 0, 67, 107
2, 190050, Note_off_c, 0, 76, 64
2, 190068, Note_off_c, 0, 67, 64
2, 190080, Note_on_c, 0, 77, 107
2, 190080, Note_on_c, 0, 69, 107
2, 190128, Note_off_c, 0, 69, 64
2, 190140, Note_on_c, 0, 65, 107
2, 190176, Note_off_c, 0, 77, 64
2, 190188, Note_off_c, 0, 65, 64
2, 190200, Note_on_c, 0, 82, 107
2, 190200, Note_on_c, 0, 64, 107
2, 190248, Note_off_c, 0, 64, 64
2, 190260, Note_on_c, 0, 62, 107
2, 190296, Note_off_c, 0, 82, 64
2, 190308, Note_off_c, 0, 62, 64
2, 190320, Note_on_c, 0, 64, 107
2, 190320, Note_on_c, 0, 74, 107
2, 190368, Note_off_c, 0, 64, 64
2, 190380, Note_on_c, 0, 65, 107
2, 190410, Note_off_c, 0, 74, 64
2, 190428, Note_off_c, 0, 65, 64
2, 190440, Note_on_c, 0, 76, 107
2, 190440, Note_on_c, 0, 67, 107
2, 190488, Note_off_c, 0, 67, 64
2, 190500, Note_on_c, 0, 64, 107
2, 190536, Note_off_c, 0, 76, 64
2, 190548, Note_off_c, 0, 64, 64
2, 190560, Note_on_c, 0, 62, 107
2, 190560, Note_on_c, 0, 81, 107
2, 190608, Note_off_c, 0, 62, 64
2, 190620, Note_on_c, 0, 60, 107
2, 190656, Note_off_c, 0, 81, 64
2, 190668, Note_off_c, 0, 60, 64
2, 190680, Note_on_c, 0, 62, 107
2, 190680, Note_on_c, 0, 72, 107
2, 190728, Note_off_c, 0, 62, 64
2, 190740, Note_on_c, 0, 64, 107
2, 190770, Note_off_c, 0, 72, 64
2, 190788, Note_off_c, 0, 64, 64
2, 190800, Note_on_c, 0, 74, 107
2, 190800, Note_on_c, 0, 65, 107
2, 190848, Note_off_c, 0, 65, 64
2, 190860, Note_on_c, 0, 62, 107
2, 190896, Note_off_c, 0, 74, 64
2, 190908, Note_off_c, 0, 62, 64
2, 190920, Note_on_c, 0, 79, 107
2, 190920, Note_on_c, 0, 60, 107
2, 190968, Note_off_c, 0, 60, 64
2, 190980, Note_on_c, 0, 58, 107
2, 191016, Note_off_c, 0, 79, 64
2, 191028, Note_off_c, 0, 58, 64
2, 191040, Note_on_c, 0, 70, 107
2, 191040, Note_on_c, 0, 60, 107
2, 191088, Note_off_c, 0, 60, 64
2, 191100, Note_on_c, 0, 62, 107
2, 191130, Note_off_c, 0, 70, 64
2, 191148, Note_off_c, 0, 62, 64
2, 191160, Note_on_c, 0, 72, 107
2, 191256, Note_off_c, 0, 72, 64
2, 191280, Note_on_c, 0, 77, 107
2, 191376, Note_off_c, 0, 77, 64
2, 191400, Note_on_c, 0, 69, 107
2, 191490, Note_off_c, 0, 69, 64
2, 191520, Note_on_c, 0, 70, 107
2, 191616, Note_off_c, 0, 70, 64
2, 191640, Note_on_c, 0, 76, 107
2, 191736, Note_off_c, 0, 76, 64
2, 191760, Note_on_c, 0, 67, 107
2, 191850, Note_off_c, 0, 67, 64
2, 191880, Note_on_c, 0, 69, 107
2, 191976, Note_off_c, 0, 69, 64
2, 192000, Note_on_c, 0, 74, 107
2, 192096, Note_off_c, 0, 74, 64
2, 192120, Note_on_c, 0, 65, 107
2, 192210, Note_off_c, 0, 65, 64
2, 192240, Note_on_c, 0, 67, 107
2, 192288, Note_off_c, 0, 67, 64
2, 192300, Note_on_c, 0, 69, 107
2, 192348, Note_off_c, 0, 69, 64
2, 192360, Note_on_c, 0, 70, 107
2, 192408, Note_off_c, 0, 70, 64
2, 192420, Note_on_c, 0, 74, 107
2, 192468, Note_off_c, 0, 74, 64
2, 192480, Note_on_c, 0, 70, 107
2, 192528, Note_off_c, 0, 70, 64
2, 192540, Note_on_c, 0, 69, 107
2, 192588, Note_off_c, 0, 69, 64
2, 192600, Note_on_c, 0, 67, 107
2, 192648, Note_off_c, 0, 67, 64
2, 192660, Note_on_c, 0, 69, 107
2, 192708, Note_off_c, 0, 69, 64
2, 192720, Note_on_c, 0, 70, 107
2, 192768, Note_off_c, 0, 70, 64
2, 192780, Note_on_c, 0, 74, 107
2, 192828, Note_off_c, 0, 74, 64
2, 192840, Note_on_c, 0, 69, 107
2, 192888, Note_off_c, 0, 69, 64
2, 192900, Note_on_c, 0, 67, 107
2, 192948, Note_off_c, 0, 67, 64
2, 192960, Note_on_c, 0, 65, 107
2, 193008, Note_off_c, 0, 65, 64
2, 193020, Note_on_c, 0, 67, 107
2, 193068, Note_off_c, 0, 67, 64
2, 193080, Note_on_c, 0, 69, 107
2, 193128, Note_off_c, 0, 69, 64
2, 193140, Note_on_c, 0, 74, 107
2, 193188, Note_off_c, 0, 74, 64
2, 193200, Note_on_c, 0, 67, 107
2, 193248, Note_off_c, 0, 67, 64
2, 193260, Note_on_c, 0, 65, 107
2, 193308, Note_off_c, 0, 65, 64
2, 193320, Note_on_c, 0, 64, 107
2, 193368, Note_off_c, 0, 64, 64
2, 193380, Note_on_c, 0, 65, 107
2, 193428, Note_off_c, 0, 65, 64
2, 193440, Note_on_c, 0, 67, 107
2, 193488, Note_off_c, 0, 67, 64
2, 193500, Note_on_c, 0, 70, 107
2, 193548, Note_off_c, 0, 70, 64
2, 193560, Note_on_c, 0, 67, 107
2, 193608, Note_off_c, 0, 67, 64
2, 193620, Note_on_c, 0, 65, 107
2, 193668, Note_off_c, 0, 65, 64
2, 193680, Note_on_c, 0, 64, 107
2, 193728, Note_off_c, 0, 64, 64
2, 193740, Note_on_c, 0, 65, 107
2, 193788, Note_off_c, 0, 65, 64
2, 193800, Note_on_c, 0, 67, 107
2, 193848, Note_off_c, 0, 67, 64
2, 193860, Note_on_c, 0, 70, 107
2, 193908, Note_off_c, 0, 70, 64
2, 193920, Note_on_c, 0, 65, 107
2, 193968, Note_off_c, 0, 65, 64
2, 193980, Note_on_c, 0, 64, 107
2, 194028, Note_off_c, 0, 64, 64
2, 194040, Note_on_c, 0, 62, 107
2, 194088, Note_off_c, 0, 62, 64
2, 194100, Note_on_c, 0, 64, 107
2, 194148, Note_off_c, 0, 64, 64
2, 194160, Note_on_c, 0, 65, 107
2, 194208, Note_off_c, 0, 65, 64
2, 194220, Note_on_c, 0, 71, 107
2, 194268, Note_off_c, 0, 71, 64
2, 194280, Note_on_c, 0, 64, 107
2, 194328, Note_off_c, 0, 64, 64
2, 194340, Note_on_c, 0, 62, 107
2, 194388, Note_off_c, 0, 62, 64
2, 194400, Note_on_c, 0, 61, 107
2, 194496, Note_off_c, 0, 61, 64
2, 194520, Note_on_c, 0, 62, 107
2, 194568, Note_off_c, 0, 62, 64
2, 194580, Note_on_c, 0, 64, 107
2, 194628, Note_off_c, 0, 64, 64
2, 194640, Note_on_c, 0, 65, 107
2, 194688, Note_off_c, 0, 65, 64
2, 194700, Note_on_c, 0, 67, 107
2, 194748, Note_off_c, 0, 67, 64
2, 194760, Note_on_c, 0, 69, 107
2, 194808, Note_off_c, 0, 69, 64
2, 194820, Note_on_c, 0, 71, 107
2, 194868, Note_off_c, 0, 71, 64
2, 194880, Note_on_c, 0, 73, 107
2, 194928, Note_off_c, 0, 73, 64
2, 194940, Note_on_c, 0, 74, 107
2, 194988, Note_off_c, 0, 74, 64
2, 195000, Note_on_c, 0, 76, 107
2, 195048, Note_off_c, 0, 76, 64
2, 195060, Note_on_c, 0, 77, 107
2, 195108, Note_off_c, 0, 77, 64
2, 195120, Note_on_c, 0, 79, 107
2, 195168, Note_off_c, 0, 79, 64
2, 195180, Note_on_c, 0, 77, 107
2, 195228, Note_off_c, 0, 77, 64
2, 195240, Note_on_c, 0, 76, 107
2, 195288, Note_off_c, 0, 76, 64
2, 195300, Note_on_c, 0, 77, 107
2, 195348, Note_off_c, 0, 77, 64
2, 195360, Note_on_c, 0, 79, 107
2, 195408, Note_off_c, 0, 79, 64
2, 195420, Note_on_c, 0, 76, 107
2, 195468, Note_off_c, 0, 76, 64
2, 195480, Note_on_c, 0, 77, 107
2, 195528, Note_off_c, 0, 77, 64
2, 195540, Note_on_c, 0, 74, 107
2, 195588, Note_off_c, 0, 74, 64
2, 195600, Note_on_c, 0, 72, 107
2, 195648, Note_off_c, 0, 72, 64
2, 195660, Note_on_c, 0, 70, 107
2, 195708, Note_off_c, 0, 70, 64
2, 195720, Note_on_c, 0, 72, 107
2, 195768, Note_off_c, 0, 72, 64
2, 195780, Note_on_c, 0, 74, 107
2, 195828, Note_off_c, 0, 74, 64
2, 195840, Note_on_c, 0, 76, 107
2, 195888, Note_off_c, 0, 76, 64
2, 195900, Note_on_c, 0, 72, 107
2, 195948, Note_off_c, 0, 72, 64
2, 195960, Note_on_c, 0, 70, 107
2, 196008, Note_off_c, 0, 70, 64
2, 196020, Note_on_c, 0, 69, 107
2, 196068, Note_off_c, 0, 69, 64
2, 196080, Note_on_c, 0, 70, 107
2, 196128, Note_off_c, 0, 70, 64
2, 196140, Note_on_c, 0, 72, 107
2, 196188, Note_off_c, 0, 72, 64
2, 196200, Note_on_c, 0, 74, 107
2, 196248, Note_off_c, 0, 74, 64
2, 196260, Note_on_c, 0, 70, 107
2, 196308, Note_off_c, 0, 70, 64
2, 196320, Note_on_c, 0, 69, 107
2, 196368, Note_off_c, 0, 69, 64
2, 196380, Note_on_c, 0, 67, 107
2, 196428, Note_off_c, 0, 67, 64
2, 196440, Note_on_c, 0, 69, 107
2, 196488, Note_off_c, 0, 69, 64
2, 196500, Note_on_c, 0, 70, 107
2, 196548, Note_off_c, 0, 70, 64
2, 196560, Note_on_c, 0, 72, 107
2, 196608, Note_off_c, 0, 72, 64
2, 196620, Note_on_c, 0, 69, 107
2, 196668, Note_off_c, 0, 69, 64
2, 196680, Note_on_c, 0, 67, 107
2, 196728, Note_off_c, 0, 67, 64
2, 196740, Note_on_c, 0, 65, 107
2, 196788, Note_off_c, 0, 65, 64
2, 196800, Note_on_c, 0, 67, 107
2, 196848, Note_off_c, 0, 67, 64
2, 196860, Note_on_c, 0, 69, 107
2, 196908, Note_off_c, 0, 69, 64
2, 196920, Note_on_c, 0, 70, 107
2, 196968, Note_off_c, 0, 70, 64
2, 196980, Note_on_c, 0, 67, 107
2, 197028, Note_off_c, 0, 67, 64
2, 197040, Note_on_c, 0, 65, 107
2, 197088, Note_off_c, 0, 65, 64
2, 197100, Note_on_c, 0, 64, 107
2, 197148, Note_off_c, 0, 64, 64
2, 197160, Note_on_c, 0, 65, 107
2, 197208, Note_off_c, 0, 65, 64
2, 197220, Note_on_c, 0, 67, 107
2, 197268, Note_off_c, 0, 67, 64
2, 197280, Note_on_c, 0, 69, 107
2, 197328, Note_off_c, 0, 69, 64
2, 197340, Note_on_c, 0, 65, 107
2, 197388, Note_off_c, 0, 65, 64
2, 197400, Note_on_c, 0, 64, 107
2, 197448, Note_off_c, 0, 64, 64
2, 197460, Note_on_c, 0, 62, 107
2, 197508, Note_off_c, 0, 62, 64
2, 197520, Note_on_c, 0, 64, 107
2, 197568, Note_off_c, 0, 64, 64
2, 197580, Note_on_c, 0, 65, 107
2, 197628, Note_off_c, 0, 65, 64
2, 197640, Note_on_c, 0, 67, 107
2, 198048, Note_off_c, 0, 67, 64
2, 198060, Note_on_c, 0, 70, 107
2, 198108, Note_off_c, 0, 70, 64
2, 198120, Note_on_c, 0, 69, 107
2, 198168, Note_off_c, 0, 69, 64
2, 198180, Note_on_c, 0, 67, 107
2, 198228, Note_off_c, 0, 67, 64
2, 198240, Note_on_c, 0, 65, 107
2, 198288, Note_off_c, 0, 65, 64
2, 198300, Note_on_c, 0, 64, 107
2, 198348, Note_off_c, 0, 64, 64
2, 198360, Note_on_c, 0, 65, 107
2, 198408, Note_off_c, 0, 65, 64
2, 198420, Note_on_c, 0, 69, 107
2, 198468, Note_off_c, 0, 69, 64
2, 198480, Note_on_c, 0, 67, 107
2, 198528, Note_off_c, 0, 67, 64
2, 198540, Note_on_c, 0, 65, 107
2, 198588, Note_off_c, 0, 65, 64
2, 198600, Note_on_c, 0, 64, 107
2, 198648, Note_off_c, 0, 64, 64
2, 198660, Note_on_c, 0, 62, 107
2, 198708, Note_off_c, 0, 62, 64
2, 198720, Note_on_c, 0, 61, 107
2, 198768, Note_off_c, 0, 61, 64
2, 198780, Note_on_c, 0, 62, 107
2, 198828, Note_off_c, 0, 62, 64
2, 198840, Note_on_c, 0, 64, 107
2, 198888, Note_off_c, 0, 64, 64
2, 198900, Note_on_c, 0, 69, 107
2, 198948, Note_off_c, 0, 69, 64
2, 198960, Note_on_c, 0, 61, 107
2, 199008, Note_off_c, 0, 61, 64
2, 199020, Note_on_c, 0, 64, 107
2, 199068, Note_off_c, 0, 64, 64
2, 199080, Note_on_c, 0, 62, 107
2, 199128, Note_off_c, 0, 62, 64
2, 199140, Note_on_c, 0, 64, 107
2, 199188, Note_off_c, 0, 64, 64
2, 199200, Note_on_c, 0, 65, 107
2, 199248, Note_off_c, 0, 65, 64
2, 199260, Note_on_c, 0, 70, 107
2, 199308, Note_off_c, 0, 70, 64
2, 199320, Note_on_c, 0, 62, 107
2, 199368, Note_off_c, 0, 62, 64
2, 199380, Note_on_c, 0, 65, 107
2, 199428, Note_off_c, 0, 65, 64
2, 199440, Note_on_c, 0, 64, 107
2, 199488, Note_off_c, 0, 64, 64
2, 199500, Note_on_c, 0, 65, 107
2, 199548, Note_off_c, 0, 65, 64
2, 199560, Note_on_c, 0, 67, 107
2, 199608, Note_off_c, 0, 67, 64
2, 199620, Note_on_c, 0, 72, 107
2, 199668, Note_off_c, 0, 72, 64
2, 199680, Note_on_c, 0, 64, 107
2, 199728, Note_off_c, 0, 64, 64
2, 199740, Note_on_c, 0, 67, 107
2, 199788, Note_off_c, 0, 67, 64
2, 199800, Note_on_c, 0, 65, 107
2, 199848, Note_off_c, 0, 65, 64
2, 199860, Note_on_c, 0, 67, 107
2, 199908, Note_off_c, 0, 67, 64
2, 199920, Note_on_c, 0, 69, 107
2, 199968, Note_off_c, 0, 69, 64
2, 199980, Note_on_c, 0, 74, 107
2, 200028, Note_off_c, 0, 74, 64
2, 200040, Note_on_c, 0, 66, 107
2, 200088, Note_off_c, 0, 66, 64
2, 200100, Note_on_c, 0, 69, 107
2, 200148, Note_off_c, 0, 69, 64
2, 200160, Note_on_c, 0, 67, 107
2, 200208, Note_off_c, 0, 67, 64
2, 200220, Note_on_c, 0, 69, 107
2, 200268, Note_off_c, 0, 69, 64
2, 200280, Note_on_c, 0, 71, 107
2, 200328, Note_off_c, 0, 71, 64
2, 200340, Note_on_c, 0, 76, 107
2, 200388, Note_off_c, 0, 76, 64
2, 200400, Note_on_c, 0, 68, 107
2, 200448, Note_off_c, 0, 68, 64
2, 200460, Note_on_c, 0, 71, 107
2, 200508, Note_off_c, 0, 71, 64
2, 200520, Note_on_c, 0, 69, 107
2, 200568, Note_off_c, 0, 69, 64
2, 200580, Note_on_c, 0, 71, 107
2, 200628, Note_off_c, 0, 71, 64
2, 200640, Note_on_c, 0, 73, 107
2, 200688, Note_off_c, 0, 73, 64
2, 200700, Note_on_c, 0, 74, 107
2, 200748, Note_off_c, 0, 74, 64
2, 200760, Note_on_c, 0, 76, 107
2, 200808, Note_off_c, 0, 76, 64
2, 200820, Note_on_c, 0, 77, 107
2, 200868, Note_off_c, 0, 77, 64
2, 200880, Note_on_c, 0, 79, 107
2, 200928, Note_off_c, 0, 79, 64
2, 200940, Note_on_c, 0, 76, 107
2, 200988, Note_off_c, 0, 76, 64
2, 201000, Note_on_c, 0, 73, 107
2, 201048, Note_off_c, 0, 73, 64
2, 201060, Note_on_c, 0, 69, 107
2, 201108, Note_off_c, 0, 69, 64
2, 201120, Note_on_c, 0, 73, 107
2, 201168, Note_off_c, 0, 73, 64
2, 201180, Note_on_c, 0, 76, 107
2, 201228, Note_off_c, 0, 76, 64
2, 201240, Note_on_c, 0, 77, 107
2, 201288, Note_off_c, 0, 77, 64
2, 201300, Note_on_c, 0, 74, 107
2, 201348, Note_off_c, 0, 74, 64
2, 201360, Note_on_c, 0, 71, 107
2, 201408, Note_off_c, 0, 71, 64
2, 201420, Note_on_c, 0, 68, 107
2, 201468, Note_off_c, 0, 68, 64
2, 201480, Note_on_c, 0, 71, 107
2, 201528, Note_off_c, 0, 71, 64
2, 201540, Note_on_c, 0, 74, 107
2, 201588, Note_off_c, 0, 74, 64
2, 201600, Note_on_c, 0, 76, 107
2, 201648, Note_off_c, 0, 76, 64
2, 201660, Note_on_c, 0, 72, 107
2, 201708, Note_off_c, 0, 72, 64
2, 201720, Note_on_c, 0, 70, 107
2, 201768, Note_off_c, 0, 70, 64
2, 201780, Note_on_c, 0, 67, 107
2, 201828, Note_off_c, 0, 67, 64
2, 201840, Note_on_c, 0, 70, 107
2, 201888, Note_off_c, 0, 70, 64
2, 201900, Note_on_c, 0, 72, 107
2, 201948, Note_off_c, 0, 72, 64
2, 201960, Note_on_c, 0, 74, 107
2, 202008, Note_off_c, 0, 74, 64
2, 202020, Note_on_c, 0, 71, 107
2, 202068, Note_off_c, 0, 71, 64
2, 202080, Note_on_c, 0, 68, 107
2, 202128, Note_off_c, 0, 68, 64
2, 202140, Note_on_c, 0, 65, 107
2, 202188, Note_off_c, 0, 65, 64
2, 202200, Note_on_c, 0, 68, 107
2, 202248, Note_off_c, 0, 68, 64
2, 202260, Note_on_c, 0, 71, 107
2, 202308, Note_off_c, 0, 71, 64
2, 202320, Note_on_c, 0, 73, 107
2, 202368, Note_off_c, 0, 73, 64
2, 202380, Note_on_c, 0, 70, 107
2, 202428, Note_off_c, 0, 70, 64
2, 202440, Note_on_c, 0, 67, 107
2, 202488, Note_off_c, 0, 67, 64
2, 202500, Note_on_c, 0, 64, 107
2, 202548, Note_off_c, 0, 64, 64
2, 202560, Note_on_c, 0, 67, 107
2, 202608, Note_off_c, 0, 67, 64
2, 202620, Note_on_c, 0, 70, 107
2, 202668, Note_off_c, 0, 70, 64
2, 202680, Note_on_c, 0, 73, 107
2, 202728, Note_off_c, 0, 73, 64
2, 202740, Note_on_c, 0, 76, 107
2, 202788, Note_off_c, 0, 76, 64
2, 202800, Note_on_c, 0, 74, 107
2, 202848, Note_off_c, 0, 74, 64
2, 202860, Note_on_c, 0, 73, 107
2, 202908, Note_off_c, 0, 73, 64
2, 202920, Note_on_c, 0, 71, 107
2, 202968, Note_off_c, 0, 71, 64
2, 202980, Note_on_c, 0, 69, 107
2, 203028, Note_off_c, 0, 69, 64
2, 203040, Note_on_c, 0, 74, 107
2, 203136, Note_off_c, 0, 74, 64
2, 203160, Note_on_c, 0, 69, 107
2, 203256, Note_off_c, 0, 69, 64
2, 203280, Note_on_c, 0, 65, 107
2, 203370, Note_off_c, 0, 65, 64
2, 203400, Note_on_c, 0, 62, 107
2, 203496, Note_off_c, 0, 62, 64
2, 203520, Note_on_c, 0, 69, 107
2, 203616, Note_off_c, 0, 69, 64
2, 203640, Note_on_c, 0, 65, 107
2, 203730, Note_off_c, 0, 65, 64
2, 203760, Note_on_c, 0, 62, 107
2, 203856, Note_off_c, 0, 62, 64
2, 203880, Note_on_c, 0, 69, 107
2, 203976, Note_off_c, 0, 69, 64
2, 204000, Note_on_c, 0, 65, 107
2, 204090, Note_off_c, 0, 65, 64
2, 204120, Note_on_c, 0, 62, 107
2, 204216, Note_off_c, 0, 62, 64
2, 204240, Note_on_c, 0, 69, 107
2, 204336, Note_off_c, 0, 69, 64
2, 204360, Note_on_c, 0, 65, 107
2, 204450, Note_off_c, 0, 65, 64
2, 204480, Note_on_c, 0, 62, 107
2, 204576, Note_off_c, 0, 62, 64
2, 204600, Note_on_c, 0, 68, 107
2, 204696, Note_off_c, 0, 68, 64
2, 204720, Note_on_c, 0, 65, 107
2, 204810, Note_off_c, 0, 65, 64
2, 204840, Note_on_c, 0, 62, 107
2, 204936, Note_off_c, 0, 62, 64
2, 204960, Note_on_c, 0, 69, 107
2, 205056, Note_off_c, 0, 69, 64
2, 205080, Note_on_c, 0, 65, 107
2, 205170, Note_off_c, 0, 65, 64
2, 205200, Note_on_c, 0, 62, 107
2, 205248, Note_off_c, 0, 62, 64
2, 205260, Note_on_c, 0, 64, 107
2, 205308, Note_off_c, 0, 64, 64
2, 205320, Note_on_c, 0, 65, 107
2, 205368, Note_off_c, 0, 65, 64
2, 205380, Note_on_c, 0, 71, 107
2, 205428, Note_off_c, 0, 71, 64
2, 205440, Note_on_c, 0, 65, 107
2, 205488, Note_off_c, 0, 65, 64
2, 205500, Note_on_c, 0, 64, 107
2, 205548, Note_off_c, 0, 64, 64
2, 205560, Note_on_c, 0, 62, 107
2, 205608, Note_off_c, 0, 62, 64
2, 205620, Note_on_c, 0, 64, 107
2, 205668, Note_off_c, 0, 64, 64
2, 205680, Note_on_c, 0, 65, 107
2, 205728, Note_off_c, 0, 65, 64
2, 205740, Note_on_c, 0, 71, 107
2, 205788, Note_off_c, 0, 71, 64
2, 205800, Note_on_c, 0, 64, 107
2, 205848, Note_off_c, 0, 64, 64
2, 205860, Note_on_c, 0, 62, 107
2, 205908, Note_off_c, 0, 62, 64
2, 205920, Note_on_c, 0, 61, 107
2, 205968, Note_off_c, 0, 61, 64
2, 205980, Note_on_c, 0, 64, 107
2, 206028, Note_off_c, 0, 64, 64
2, 206040, Note_on_c, 0, 67, 107
2, 206088, Note_off_c, 0, 67, 64
2, 206100, Note_on_c, 0, 70, 107
2, 206148, Note_off_c, 0, 70, 64
2, 206160, Note_on_c, 0, 69, 107
2, 206208, Note_off_c, 0, 69, 64
2, 206220, Note_on_c, 0, 67, 107
2, 206268, Note_off_c, 0, 67, 64
2, 206280, Note_on_c, 0, 69, 107
2, 206328, Note_off_c, 0, 69, 64
2, 206340, Note_on_c, 0, 67, 107
2, 206388, Note_off_c, 0, 67, 64
2, 206400, Note_on_c, 0, 65, 107
2, 206448, Note_off_c, 0, 65, 64
2, 206460, Note_on_c, 0, 64, 107
2, 206508, Note_off_c, 0, 64, 64
2, 206520, Note_on_c, 0, 62, 107
2, 206568, Note_off_c, 0, 62, 64
2, 206580, Note_on_c, 0, 60, 107
2, 206628, Note_off_c, 0, 60, 64
2, 206640, Note_on_c, 0, 59, 107
2, 206688, Note_off_c, 0, 59, 64
2, 206700, Note_on_c, 0, 57, 107
2, 206748, Note_off_c, 0, 57, 64
2, 206760, Note_on_c, 0, 59, 107
2, 206808, Note_off_c, 0, 59, 64
2, 206820, Note_on_c, 0, 61, 107
2, 206868, Note_off_c, 0, 61, 64
2, 206880, Note_on_c, 0, 62, 107
2, 206928, Note_off_c, 0, 62, 64
2, 206940, Note_on_c, 0, 64, 107
2, 206988, Note_off_c, 0, 64, 64
2, 207000, Note_on_c, 0, 61, 107
2, 207048, Note_off_c, 0, 61, 64
2, 207060, Note_on_c, 0, 59, 107
2, 207108, Note_off_c, 0, 59, 64
2, 207120, Note_on_c, 0, 61, 107
2, 207168, Note_off_c, 0, 61, 64
2, 207180, Note_on_c, 0, 62, 107
2, 207228, Note_off_c, 0, 62, 64
2, 207240, Note_on_c, 0, 64, 107
2, 207288, Note_off_c, 0, 64, 64
2, 207300, Note_on_c, 0, 57, 107
2, 207348, Note_off_c, 0, 57, 64
2, 207420, Note_on_c, 0, 69, 107
2, 207468, Note_off_c, 0, 69, 64
2, 207480, Note_on_c, 0, 71, 107
2, 207528, Note_off_c, 0, 71, 64
2, 207540, Note_on_c, 0, 73, 107
2, 207588, Note_off_c, 0, 73, 64
2, 207600, Note_on_c, 0, 74, 107
2, 207648, Note_off_c, 0, 74, 64
2, 207660, Note_on_c, 0, 76, 107
2, 207708, Note_off_c, 0, 76, 64
2, 207720, Note_on_c, 0, 77, 107
2, 207810, Note_off_c, 0, 77, 64
2, 207840, Note_on_c, 0, 76, 107
2, 207930, Note_off_c, 0, 76, 64
2, 207960, Note_on_c, 0, 74, 107
2, 208056, Note_off_c, 0, 74, 64
2, 208080, Note_on_c, 0, 76, 107
2, 208176, Note_off_c, 0, 76, 64
2, 208200, Note_on_c, 0, 77, 107
2, 208248, Note_off_c, 0, 77, 64
2, 208260, Note_on_c, 0, 76, 107
2, 208308, Note_off_c, 0, 76, 64
2, 208320, Note_on_c, 0, 74, 107
2, 208368, Note_off_c, 0, 74, 64
2, 208380, Note_on_c, 0, 73, 107
2, 208428, Note_off_c, 0, 73, 64
2, 208440, Note_on_c, 0, 81, 107
2, 208488, Note_off_c, 0, 81, 64
2, 208500, Note_on_c, 0, 79, 107
2, 208548, Note_off_c, 0, 79, 64
2, 208560, Note_on_c, 0, 77, 107
2, 208608, Note_off_c, 0, 77, 64
2, 208620, Note_on_c, 0, 76, 107
2, 208668, Note_off_c, 0, 76, 64
2, 208680, Note_on_c, 0, 74, 107
2, 208728, Note_off_c, 0, 74, 64
2, 208740, Note_on_c, 0, 73, 107
2, 208788, Note_off_c, 0, 73, 64
2, 208800, Note_on_c, 0, 74, 107
2, 208848, Note_off_c, 0, 74, 64
2, 208860, Note_on_c, 0, 76, 107
2, 208908, Note_off_c, 0, 76, 64
2, 208920, Note_on_c, 0, 74, 107
2, 208968, Note_off_c, 0, 74, 64
2, 208980, Note_on_c, 0, 76, 107
2, 209028, Note_off_c, 0, 76, 64
2, 209040, Note_on_c, 0, 77, 107
2, 209040, Note_on_c, 0, 70, 107
2, 209136, Note_off_c, 0, 70, 64
2, 209136, Note_off_c, 0, 77, 64
2, 209160, Note_on_c, 0, 69, 107
2, 209160, Note_on_c, 0, 69, 107
2, 209256, Note_off_c, 0, 69, 64
2, 209280, Note_on_c, 0, 74, 107
2, 209352, Note_off_c, 0, 69, 64
2, 209376, Note_off_c, 0, 74, 64
2, 209400, Note_on_c, 0, 73, 107
2, 209400, Note_on_c, 0, 67, 107
2, 209490, Note_off_c, 0, 73, 64
2, 209496, Note_off_c, 0, 67, 64
2, 209520, Note_on_c, 0, 74, 107
2, 209520, Note_on_c, 0, 65, 107
2, 209808, Note_off_c, 0, 65, 64
2, 209808, Note_off_c, 0, 74, 64
2, 209808, End_track
3, 0, Start_track
3, 0, Title_t, "J.S. Bach, Edition Kalmus"
3, 0, Program_c, 1, 0
3, 0, Note_on_c, 1, 50, 107
3, 120, Note_on_c, 1, 53, 107
3, 216, Note_off_c, 1, 53, 64
3, 240, Note_on_c, 1, 57, 107
3, 360, Note_on_c, 1, 53, 107
3, 552, Note_off_c, 1, 53, 64
3, 648, Note_off_c, 1, 57, 64
3, 720, Note_on_c, 1, 52, 107
3, 720, Note_on_c, 1, 55, 107
3, 1008, Note_off_c, 1, 55, 64
3, 1008, Note_off_c, 1, 52, 64
3, 1080, Note_on_c, 1, 53, 107
3, 1200, Note_on_c, 1, 57, 107
3, 1272, Note_off_c, 1, 53, 64
3, 1392, Note_off_c, 1, 57, 64
3, 1800, Note_on_c, 1, 55, 107
3, 1800, Note_on_c, 1, 58, 107
3, 2088, Note_off_c, 1, 58, 64
3, 2088, Note_off_c, 1, 55, 64
3, 2160, Note_on_c, 1, 57, 107
3, 2736, Note_off_c, 1, 57, 64
3, 2880, Note_on_c, 1, 60, 107
3, 2976, Note_off_c, 1, 60, 64
3, 3000, Note_on_c, 1, 58, 107
3, 3096, Note_off_c, 1, 58, 64
3, 3120, Note_on_c, 1, 57, 107
3, 3216, Note_off_c, 1, 57, 64
3, 3240, Note_on_c, 1, 58, 107
3, 4248, Note_off_c, 1, 58, 64
3, 4320, Note_on_c, 1, 55, 107
3, 4680, Note_on_c, 1, 52, 107
3, 5064, Note_off_c, 1, 52, 64
3, 5328, Note_off_c, 1, 55, 64
3, 5328, Note_off_c, 1, 50, 64
3, 5400, Note_on_c, 1, 57, 107
3, 5400, Note_on_c, 1, 62, 107
3, 5400, Note_on_c, 1, 50, 107
3, 5688, Note_off_c, 1, 62, 64
3, 5688, Note_off_c, 1, 57, 64
3, 5808, Note_off_c, 1, 50, 64
3, 5820, Note_on_c, 1, 52, 107
3, 5868, Note_off_c, 1, 52, 64
3, 5880, Note_on_c, 1, 53, 107
3, 5928, Note_off_c, 1, 53, 64
3, 5940, Note_on_c, 1, 55, 107
3, 5988, Note_off_c, 1, 55, 64
3, 6000, Note_on_c, 1, 57, 107
3, 6096, Note_off_c, 1, 57, 64
3, 6120, Note_on_c, 1, 48, 107
3, 6216, Note_off_c, 1, 48, 64
3, 6240, Note_on_c, 1, 52, 107
3, 6336, Note_off_c, 1, 52, 64
3, 6360, Note_on_c, 1, 57, 107
3, 6456, Note_off_c, 1, 57, 64
3, 6480, Note_on_c, 1, 47, 107
3, 6576, Note_off_c, 1, 47, 64
3, 6600, Note_on_c, 1, 50, 107
3, 6696, Note_off_c, 1, 50, 64
3, 6720, Note_on_c, 1, 53, 107
3, 6816, Note_off_c, 1, 53, 64
3, 6840, Note_on_c, 1, 57, 107
3, 6936, Note_off_c, 1, 57, 64
3, 6960, Note_on_c, 1, 59, 107
3, 7056, Note_off_c, 1, 59, 64
3, 7080, Note_on_c, 1, 60, 107
3, 7176, Note_off_c, 1, 60, 64
3, 7200, Note_on_c, 1, 59, 107
3, 7296, Note_off_c, 1, 59, 64
3, 7320, Note_on_c, 1, 56, 107
3, 7416, Note_off_c, 1, 56, 64
3, 7440, Note_on_c, 1, 57, 107
3, 7536, Note_off_c, 1, 57, 64
3, 7560, Note_on_c, 1, 56, 107
3, 7680, Note_on_c, 1, 59, 107
3, 7776, Note_off_c, 1, 59, 64
3, 7800, Note_on_c, 1, 62, 107
3, 7896, Note_off_c, 1, 62, 64
3, 7920, Note_on_c, 1, 65, 107
3, 8016, Note_off_c, 1, 65, 64
3, 8040, Note_on_c, 1, 64, 107
3, 8136, Note_off_c, 1, 64, 64
3, 8160, Note_on_c, 1, 62, 107
3, 8256, Note_off_c, 1, 62, 64
3, 8280, Note_on_c, 1, 60, 107
3, 8376, Note_off_c, 1, 60, 64
3, 8400, Note_on_c, 1, 62, 107
3, 8496, Note_off_c, 1, 62, 64
3, 8520, Note_on_c, 1, 59, 107
3, 8568, Note_off_c, 1, 56, 64
3, 8616, Note_off_c, 1, 59, 64
3, 8640, Note_on_c, 1, 60, 107
3, 8640, Note_on_c, 1, 57, 107
3, 9648, Note_off_c, 1, 60, 64
3, 9720, Note_on_c, 1, 59, 107
3, 10008, Note_off_c, 1, 57, 64
3, 10080, Note_on_c, 1, 56, 107
3, 10296, Note_off_c, 1, 59, 64
3, 10368, Note_off_c, 1, 56, 64
3, 10440, Note_on_c, 1, 52, 107
3, 10440, Note_on_c, 1, 56, 107
3, 10728, Note_off_c, 1, 56, 64
3, 10728, Note_off_c, 1, 52, 64
3, 10800, Note_on_c, 1, 57, 107
3, 11160, Note_on_c, 1, 60, 107
3, 11256, Note_off_c, 1, 60, 64
3, 11280, Note_on_c, 1, 64, 107
3, 11376, Note_off_c, 1, 64, 64
3, 11376, Note_off_c, 1, 57, 64
3, 11400, Note_on_c, 1, 57, 107
3, 11496, Note_off_c, 1, 57, 64
3, 11520, Note_on_c, 1, 55, 107
3, 11616, Note_off_c, 1, 55, 64
3, 11640, Note_on_c, 1, 53, 107
3, 11736, Note_off_c, 1, 53, 64
3, 11760, Note_on_c, 1, 52, 107
3, 11856, Note_off_c, 1, 52, 64
3, 11880, Note_on_c, 1, 53, 107
3, 12000, Note_on_c, 1, 57, 107
3, 12096, Note_off_c, 1, 57, 64
3, 12120, Note_on_c, 1, 60, 107
3, 12216, Note_off_c, 1, 60, 64
3, 12240, Note_on_c, 1, 64, 107
3, 12336, Note_off_c, 1, 64, 64
3, 12360, Note_on_c, 1, 62, 107
3, 12456, Note_off_c, 1, 62, 64
3, 12480, Note_on_c, 1, 60, 107
3, 12576, Note_off_c, 1, 60, 64
3, 12600, Note_on_c, 1, 59, 107
3, 12696, Note_off_c, 1, 59, 64
3, 12720, Note_on_c, 1, 60, 107
3, 12816, Note_off_c, 1, 60, 64
3, 12840, Note_on_c, 1, 62, 107
3, 12888, Note_off_c, 1, 53, 64
3, 12960, Note_on_c, 1, 52, 107
3, 13512, Note_off_c, 1, 62, 64
3, 13560, Note_on_c, 1, 62, 107
3, 13656, Note_off_c, 1, 62, 64
3, 13680, Note_on_c, 1, 60, 107
3, 13776, Note_off_c, 1, 60, 64
3, 13800, Note_on_c, 1, 62, 107
3, 13896, Note_off_c, 1, 62, 64
3, 13920, Note_on_c, 1, 59, 107
3, 14016, Note_off_c, 1, 59, 64
3, 14040, Note_on_c, 1, 60, 107
3, 14496, Note_off_c, 1, 60, 64
3, 14520, Note_on_c, 1, 59, 107
3, 14616, Note_off_c, 1, 59, 64
3, 14640, Note_on_c, 1, 57, 107
3, 14736, Note_off_c, 1, 57, 64
3, 14760, Note_on_c, 1, 59, 107
3, 14856, Note_off_c, 1, 59, 64
3, 14880, Note_on_c, 1, 60, 107
3, 14976, Note_off_c, 1, 60, 64
3, 15000, Note_on_c, 1, 62, 107
3, 15048, Note_off_c, 1, 52, 64
3, 15120, Note_on_c, 1, 57, 107
3, 15216, Note_off_c, 1, 62, 64
3, 15240, Note_on_c, 1, 60, 107
3, 15336, Note_off_c, 1, 60, 64
3, 15360, Note_on_c, 1, 59, 107
3, 15408, Note_off_c, 1, 57, 64
3, 15456, Note_off_c, 1, 59, 64
3, 15480, Note_on_c, 1, 60, 107
3, 15576, Note_off_c, 1, 60, 64
3, 15600, Note_on_c, 1, 57, 107
3, 15696, Note_off_c, 1, 57, 64
3, 15720, Note_on_c, 1, 60, 107
3, 15816, Note_off_c, 1, 60, 64
3, 18720, Note_on_c, 1, 57, 107
3, 18816, Note_off_c, 1, 57, 64
3, 18840, Note_on_c, 1, 60, 107
3, 18888, Note_off_c, 1, 60, 64
3, 18900, Note_on_c, 1, 59, 107
3, 18948, Note_off_c, 1, 59, 64
3, 18960, Note_on_c, 1, 57, 107
3, 19008, Note_off_c, 1, 57, 64
3, 19020, Note_on_c, 1, 56, 107
3, 19068, Note_off_c, 1, 56, 64
3, 19080, Note_on_c, 1, 57, 107
3, 19176, Note_off_c, 1, 57, 64
3, 19200, Note_on_c, 1, 52, 107
3, 19296, Note_off_c, 1, 52, 64
3, 19320, Note_on_c, 1, 48, 107
3, 19416, Note_off_c, 1, 48, 64
3, 19440, Note_on_c, 1, 45, 107
3, 19560, Note_on_c, 1, 48, 107
3, 19560, Note_on_c, 1, 48, 107
3, 19656, Note_off_c, 1, 48, 64
3, 19680, Note_on_c, 1, 52, 107
3, 20088, Note_off_c, 1, 48, 64
3, 20088, Note_off_c, 1, 52, 64
3, 20160, Note_on_c, 1, 47, 107
3, 20160, Note_on_c, 1, 50, 107
3, 20448, Note_off_c, 1, 50, 64
3, 20448, Note_off_c, 1, 47, 64
3, 20520, Note_on_c, 1, 48, 107
3, 20640, Note_on_c, 1, 52, 107
3, 21168, Note_off_c, 1, 48, 64
3, 21168, Note_off_c, 1, 52, 64
3, 21240, Note_on_c, 1, 50, 107
3, 21240, Note_on_c, 1, 53, 107
3, 21528, Note_off_c, 1, 53, 64
3, 21528, Note_off_c, 1, 50, 64
3, 21600, Note_on_c, 1, 52, 107
3, 21960, Note_on_c, 1, 61, 107
3, 22056, Note_off_c, 1, 61, 64
3, 22080, Note_on_c, 1, 64, 107
3, 22176, Note_off_c, 1, 64, 64
3, 22176, Note_off_c, 1, 52, 64
3, 22200, Note_on_c, 1, 57, 107
3, 22320, Note_on_c, 1, 55, 107
3, 22416, Note_off_c, 1, 55, 64
3, 22440, Note_on_c, 1, 53, 107
3, 22536, Note_off_c, 1, 53, 64
3, 22560, Note_on_c, 1, 52, 107
3, 22656, Note_off_c, 1, 52, 64
3, 22680, Note_on_c, 1, 53, 107
3, 22776, Note_off_c, 1, 57, 64
3, 22800, Note_on_c, 1, 57, 110
3, 22800, Note_on_c, 1, 57, 107
3, 22800, Note_on_c, 1, 57, 107
3, 22913, Note_off_c, 1, 57, 64
3, 22913, Note_off_c, 1, 57, 64
3, 22920, Note_on_c, 1, 61, 107
3, 22992, Note_off_c, 1, 57, 64
3, 23016, Note_off_c, 1, 61, 64
3, 23688, Note_off_c, 1, 53, 64
3, 23760, Note_on_c, 1, 50, 107
3, 24120, Note_on_c, 1, 47, 107
3, 24696, Note_off_c, 1, 47, 64
3, 24768, Note_off_c, 1, 45, 64
3, 24768, Note_off_c, 1, 50, 64
3, 24840, Note_on_c, 1, 45, 107
3, 24840, Note_on_c, 1, 57, 107
3, 24840, Note_on_c, 1, 52, 107
3, 25128, Note_off_c, 1, 52, 64
3, 25128, Note_off_c, 1, 57, 64
3, 25128, Note_off_c, 1, 45, 64
3, 25320, Note_on_c, 1, 45, 107
3, 25368, Note_off_c, 1, 45, 64
3, 25380, Note_on_c, 1, 46, 107
3, 25428, Note_off_c, 1, 46, 64
3, 25440, Note_on_c, 1, 48, 107
3, 25488, Note_off_c, 1, 48, 64
3, 25500, Note_on_c, 1, 50, 107
3, 25548, Note_off_c, 1, 50, 64
3, 25560, Note_on_c, 1, 51, 107
3, 25656, Note_off_c, 1, 51, 64
3, 25680, Note_on_c, 1, 48, 107
3, 25776, Note_off_c, 1, 48, 64
3, 25800, Note_on_c, 1, 45, 107
3, 25896, Note_off_c, 1, 45, 64
3, 25920, Note_on_c, 1, 42, 107
3, 26016, Note_off_c, 1, 42, 64
3, 26040, Note_on_c, 1, 45, 107
3, 26136, Note_off_c, 1, 45, 64
3, 26160, Note_on_c, 1, 50, 107
3, 26256, Note_off_c, 1, 50, 64
3, 26280, Note_on_c, 1, 54, 107
3, 26376, Note_off_c, 1, 54, 64
3, 26400, Note_on_c, 1, 57, 107
3, 26496, Note_off_c, 1, 57, 64
3, 26520, Note_on_c, 1, 60, 107
3, 26616, Note_off_c, 1, 60, 64
3, 26640, Note_on_c, 1, 63, 107
3, 26736, Note_off_c, 1, 63, 64
3, 26760, Note_on_c, 1, 62, 107
3, 26856, Note_off_c, 1, 62, 64
3, 26880, Note_on_c, 1, 60, 107
3, 26976, Note_off_c, 1, 60, 64
3, 27000, Note_on_c, 1, 58, 107
3, 27120, Note_on_c, 1, 62, 107
3, 27216, Note_off_c, 1, 62, 64
3, 27240, Note_on_c, 1, 66, 107
3, 27336, Note_off_c, 1, 66, 64
3, 27456, Note_off_c, 1, 58, 64
3, 27480, Note_on_c, 1, 57, 107
3, 27576, Note_off_c, 1, 57, 64
3, 27600, Note_on_c, 1, 55, 107
3, 27696, Note_off_c, 1, 55, 64
3, 27720, Note_on_c, 1, 57, 107
3, 27816, Note_off_c, 1, 57, 64
3, 27840, Note_on_c, 1, 55, 107
3, 27936, Note_off_c, 1, 55, 64
3, 27960, Note_on_c, 1, 54, 107
3, 28056, Note_off_c, 1, 54, 64
3, 28080, Note_on_c, 1, 55, 107
3, 28488, Note_off_c, 1, 55, 64
3, 28500, Note_on_c, 1, 55, 107
3, 28548, Note_off_c, 1, 55, 64
3, 28560, Note_on_c, 1, 57, 107
3, 28608, Note_off_c, 1, 57, 64
3, 28620, Note_on_c, 1, 58, 107
3, 28668, Note_off_c, 1, 58, 64
3, 28680, Note_on_c, 1, 60, 107
3, 28728, Note_off_c, 1, 60, 64
3, 28740, Note_on_c, 1, 62, 107
3, 28788, Note_off_c, 1, 62, 64
3, 29520, Note_on_c, 1, 55, 107
3, 29568, Note_off_c, 1, 55, 64
3, 29580, Note_on_c, 1, 57, 107
3, 29628, Note_off_c, 1, 57, 64
3, 29640, Note_on_c, 1, 58, 107
3, 29688, Note_off_c, 1, 58, 64
3, 29700, Note_on_c, 1, 55, 107
3, 29748, Note_off_c, 1, 55, 64
3, 29760, Note_on_c, 1, 57, 107
3, 29808, Note_off_c, 1, 57, 64
3, 29820, Note_on_c, 1, 58, 107
3, 29868, Note_off_c, 1, 58, 64
3, 29880, Note_on_c, 1, 52, 107
3, 29928, Note_off_c, 1, 52, 64
3, 29940, Note_on_c, 1, 53, 107
3, 29988, Note_off_c, 1, 53, 64
3, 30000, Note_on_c, 1, 55, 107
3, 30048, Note_off_c, 1, 55, 64
3, 30060, Note_on_c, 1, 52, 107
3, 30108, Note_off_c, 1, 52, 64
3, 30120, Note_on_c, 1, 53, 107
3, 30168, Note_off_c, 1, 53, 64
3, 30180, Note_on_c, 1, 55, 107
3, 30228, Note_off_c, 1, 55, 64
3, 30240, Note_on_c, 1, 45, 107
3, 30336, Note_off_c, 1, 45, 64
3, 30360, Note_on_c, 1, 47, 107
3, 30456, Note_off_c, 1, 47, 64
3, 30480, Note_on_c, 1, 49, 107
3, 30576, Note_off_c, 1, 49, 64
3, 30600, Note_on_c, 1, 50, 107
3, 30696, Note_off_c, 1, 50, 64
3, 30720, Note_on_c, 1, 52, 107
3, 30816, Note_off_c, 1, 52, 64
3, 30840, Note_on_c, 1, 53, 107
3, 30936, Note_off_c, 1, 53, 64
3, 30960, Note_on_c, 1, 55, 107
3, 31056, Note_off_c, 1, 55, 64
3, 31080, Note_on_c, 1, 57, 107
3, 31176, Note_off_c, 1, 57, 64
3, 31200, Note_on_c, 1, 45, 107
3, 31296, Note_off_c, 1, 45, 64
3, 31320, Note_on_c, 1, 50, 107
3, 31776, Note_off_c, 1, 50, 64
3, 31800, Note_on_c, 1, 62, 107
3, 31896, Note_off_c, 1, 62, 64
3, 31920, Note_on_c, 1, 60, 107
3, 32016, Note_off_c, 1, 60, 64
3, 32040, Note_on_c, 1, 58, 107
3, 32136, Note_off_c, 1, 58, 64
3, 32160, Note_on_c, 1, 57, 107
3, 32256, Note_off_c, 1, 57, 64
3, 32280, Note_on_c, 1, 58, 107
3, 32376, Note_off_c, 1, 58, 64
3, 32400, Note_on_c, 1, 48, 107
3, 32856, Note_off_c, 1, 48, 64
3, 32880, Note_on_c, 1, 60, 107
3, 32976, Note_off_c, 1, 60, 64
3, 33000, Note_on_c, 1, 58, 107
3, 33096, Note_off_c, 1, 58, 64
3, 33120, Note_on_c, 1, 57, 107
3, 33216, Note_off_c, 1, 57, 64
3, 33240, Note_on_c, 1, 55, 107
3, 33336, Note_off_c, 1, 55, 64
3, 33360, Note_on_c, 1, 57, 107
3, 33456, Note_off_c, 1, 57, 64
3, 33480, Note_on_c, 1, 46, 107
3, 33768, Note_off_c, 1, 46, 64
3, 34560, Note_on_c, 1, 47, 107
3, 34848, Note_off_c, 1, 47, 64
3, 35640, Note_on_c, 1, 45, 107
3, 35832, Note_off_c, 1, 45, 64
3, 36720, Note_on_c, 1, 56, 107
3, 36816, Note_off_c, 1, 56, 64
3, 36840, Note_on_c, 1, 59, 107
3, 36936, Note_off_c, 1, 59, 64
3, 36960, Note_on_c, 1, 62, 107
3, 37056, Note_off_c, 1, 62, 64
3, 37080, Note_on_c, 1, 65, 107
3, 37176, Note_off_c, 1, 65, 64
3, 37200, Note_on_c, 1, 64, 107
3, 37296, Note_off_c, 1, 64, 64
3, 37320, Note_on_c, 1, 62, 107
3, 37416, Note_off_c, 1, 62, 64
3, 37440, Note_on_c, 1, 61, 107
3, 37536, Note_off_c, 1, 61, 64
3, 37560, Note_on_c, 1, 62, 107
3, 37656, Note_off_c, 1, 62, 64
3, 37680, Note_on_c, 1, 59, 107
3, 37776, Note_off_c, 1, 59, 64
3, 37800, Note_on_c, 1, 61, 107
3, 37896, Note_off_c, 1, 61, 64
3, 37920, Note_on_c, 1, 58, 107
3, 38016, Note_off_c, 1, 58, 64
3, 38040, Note_on_c, 1, 57, 107
3, 38136, Note_off_c, 1, 57, 64
3, 38160, Note_on_c, 1, 56, 107
3, 38256, Note_off_c, 1, 56, 64
3, 38280, Note_on_c, 1, 57, 107
3, 38376, Note_off_c, 1, 57, 64
3, 38400, Note_on_c, 1, 52, 107
3, 38496, Note_off_c, 1, 52, 64
3, 38520, Note_on_c, 1, 53, 107
3, 38616, Note_off_c, 1, 53, 64
3, 38640, Note_on_c, 1, 49, 107
3, 38736, Note_off_c, 1, 49, 64
3, 38760, Note_on_c, 1, 50, 107
3, 38856, Note_off_c, 1, 50, 64
3, 38880, Note_on_c, 1, 44, 107
3, 39168, Note_off_c, 1, 44, 64
3, 39240, Note_on_c, 1, 53, 107
3, 39240, Note_on_c, 1, 44, 107
3, 39816, Note_off_c, 1, 44, 64
3, 39816, Note_off_c, 1, 53, 64
3, 39960, Note_on_c, 1, 52, 107
3, 39960, Note_on_c, 1, 45, 107
3, 40008, Note_off_c, 1, 52, 64
3, 40020, Note_on_c, 1, 57, 107
3, 40056, Note_off_c, 1, 45, 64
3, 40068, Note_off_c, 1, 57, 64
3, 40080, Note_on_c, 1, 59, 107
3, 40128, Note_off_c, 1, 59, 64
3, 40140, Note_on_c, 1, 61, 107
3, 40188, Note_off_c, 1, 61, 64
3, 40200, Note_on_c, 1, 62, 107
3, 40248, Note_off_c, 1, 62, 64
3, 40260, Note_on_c, 1, 64, 107
3, 40308, Note_off_c, 1, 64, 64
3, 41100, Note_on_c, 1, 50, 107
3, 41148, Note_off_c, 1, 50, 64
3, 41160, Note_on_c, 1, 52, 107
3, 41208, Note_off_c, 1, 52, 64
3, 41220, Note_on_c, 1, 54, 107
3, 41268, Note_off_c, 1, 54, 64
3, 41280, Note_on_c, 1, 55, 107
3, 41328, Note_off_c, 1, 55, 64
3, 41340, Note_on_c, 1, 57, 107
3, 41388, Note_off_c, 1, 57, 64
3, 41400, Note_on_c, 1, 58, 107
3, 41490, Note_off_c, 1, 58, 64
3, 41520, Note_on_c, 1, 57, 107
3, 41610, Note_off_c, 1, 57, 64
3, 41640, Note_on_c, 1, 55, 107
3, 41730, Note_off_c, 1, 55, 64
3, 41760, Note_on_c, 1, 57, 107
3, 41850, Note_off_c, 1, 57, 64
3, 41880, Note_on_c, 1, 55, 107
3, 41970, Note_off_c, 1, 55, 64
3, 42000, Note_on_c, 1, 54, 107
3, 42090, Note_off_c, 1, 54, 64
3, 42120, Note_on_c, 1, 55, 107
3, 42528, Note_off_c, 1, 55, 64
3, 42540, Note_on_c, 1, 52, 107
3, 42588, Note_off_c, 1, 52, 64
3, 42600, Note_on_c, 1, 50, 107
3, 42648, Note_off_c, 1, 50, 64
3, 42660, Note_on_c, 1, 49, 107
3, 42708, Note_off_c, 1, 49, 64
3, 42720, Note_on_c, 1, 50, 107
3, 42768, Note_off_c, 1, 50, 64
3, 42780, Note_on_c, 1, 52, 107
3, 42828, Note_off_c, 1, 52, 64
3, 42840, Note_on_c, 1, 53, 107
3, 43752, Note_off_c, 1, 53, 64
3, 43800, Note_on_c, 1, 58, 107
3, 43890, Note_off_c, 1, 58, 64
3, 43920, Note_on_c, 1, 55, 107
3, 44112, Note_off_c, 1, 55, 64
3, 44160, Note_on_c, 1, 57, 107
3, 44256, Note_off_c, 1, 57, 64
3, 44280, Note_on_c, 1, 58, 107
3, 44280, Note_on_c, 1, 62, 107
3, 44568, Note_off_c, 1, 62, 64
3, 44640, Note_on_c, 1, 60, 107
3, 44856, Note_off_c, 1, 58, 64
3, 45000, Note_on_c, 1, 57, 107
3, 45216, Note_off_c, 1, 60, 64
3, 45360, Note_on_c, 1, 58, 107
3, 45648, Note_off_c, 1, 57, 64
3, 45720, Note_on_c, 1, 55, 107
3, 45912, Note_off_c, 1, 55, 64
3, 45960, Note_on_c, 1, 53, 107
3, 46056, Note_off_c, 1, 53, 64
3, 46080, Note_on_c, 1, 52, 107
3, 46128, Note_off_c, 1, 58, 64
3, 46140, Note_on_c, 1, 58, 107
3, 46188, Note_off_c, 1, 58, 64
3, 46200, Note_on_c, 1, 57, 107
3, 46248, Note_off_c, 1, 57, 64
3, 46260, Note_on_c, 1, 55, 107
3, 46308, Note_off_c, 1, 55, 64
3, 46320, Note_on_c, 1, 53, 107
3, 46368, Note_off_c, 1, 53, 64
3, 46368, Note_off_c, 1, 52, 64
3, 46380, Note_on_c, 1, 55, 107
3, 46428, Note_off_c, 1, 55, 64
3, 46440, Note_on_c, 1, 53, 107
3, 46440, Note_on_c, 1, 57, 107
3, 46728, Note_off_c, 1, 53, 64
3, 46800, Note_on_c, 1, 52, 107
3, 47088, Note_off_c, 1, 52, 64
3, 47160, Note_on_c, 1, 50, 107
3, 47448, Note_off_c, 1, 50, 64
3, 47520, Note_on_c, 1, 48, 107
3, 47808, Note_off_c, 1, 57, 64
3, 47808, Note_off_c, 1, 48, 64
3, 47880, Note_on_c, 1, 55, 107
3, 47880, Note_on_c, 1, 46, 107
3, 48168, Note_off_c, 1, 46, 64
3, 48168, Note_off_c, 1, 55, 64
3, 48240, Note_on_c, 1, 53, 107
3, 48240, Note_on_c, 1, 45, 107
3, 48528, Note_off_c, 1, 45, 64
3, 48528, Note_off_c, 1, 53, 64
3, 48600, Note_on_c, 1, 53, 107
3, 48600, Note_on_c, 1, 46, 107
3, 48648, Note_off_c, 1, 53, 64
3, 48660, Note_on_c, 1, 53, 107
3, 48708, Note_off_c, 1, 53, 64
3, 48720, Note_on_c, 1, 55, 107
3, 48768, Note_off_c, 1, 55, 64
3, 48780, Note_on_c, 1, 57, 107
3, 48792, Note_off_c, 1, 46, 64
3, 48828, Note_off_c, 1, 57, 64
3, 48840, Note_on_c, 1, 58, 107
3, 48888, Note_off_c, 1, 58, 64
3, 48900, Note_on_c, 1, 60, 107
3, 48948, Note_off_c, 1, 60, 64
3, 48960, Note_on_c, 1, 62, 107
3, 49050, Note_off_c, 1, 62, 64
3, 49080, Note_on_c, 1, 60, 107
3, 49170, Note_off_c, 1, 60, 64
3, 49200, Note_on_c, 1, 58, 107
3, 49290, Note_off_c, 1, 58, 64
3, 49320, Note_on_c, 1, 60, 107
3, 49410, Note_off_c, 1, 60, 64
3, 49440, Note_on_c, 1, 58, 107
3, 49530, Note_off_c, 1, 58, 64
3, 49560, Note_on_c, 1, 57, 107
3, 49650, Note_off_c, 1, 57, 64
3, 49680, Note_on_c, 1, 55, 107
3, 49740, Note_on_c, 1, 46, 107
3, 49788, Note_off_c, 1, 46, 64
3, 49800, Note_on_c, 1, 48, 107
3, 49848, Note_off_c, 1, 48, 64
3, 49860, Note_on_c, 1, 50, 107
3, 49872, Note_off_c, 1, 55, 64
3, 49908, Note_off_c, 1, 50, 64
3, 49920, Note_on_c, 1, 55, 107
3, 49920, Note_on_c, 1, 48, 107
3, 49968, Note_off_c, 1, 48, 64
3, 49980, Note_on_c, 1, 46, 107
3, 50016, Note_off_c, 1, 55, 64
3, 50028, Note_off_c, 1, 46, 64
3, 50040, Note_on_c, 1, 53, 107
3, 50040, Note_on_c, 1, 45, 107
3, 50130, Note_off_c, 1, 45, 64
3, 50160, Note_on_c, 1, 48, 107
3, 50250, Note_off_c, 1, 48, 64
3, 50280, Note_on_c, 1, 46, 107
3, 50370, Note_off_c, 1, 46, 64
3, 50400, Note_on_c, 1, 48, 107
3, 50496, Note_off_c, 1, 53, 64
3, 50520, Note_on_c, 1, 53, 107
3, 50616, Note_off_c, 1, 53, 64
3, 50640, Note_on_c, 1, 52, 107
3, 50688, Note_off_c, 1, 48, 64
3, 50736, Note_off_c, 1, 52, 64
3, 50760, Note_on_c, 1, 53, 107
3, 50760, Note_on_c, 1, 41, 107
3, 50808, Note_off_c, 1, 53, 64
3, 50820, Note_on_c, 1, 48, 107
3, 50856, Note_off_c, 1, 41, 64
3, 50868, Note_off_c, 1, 48, 64
3, 50880, Note_on_c, 1, 50, 107
3, 50928, Note_off_c, 1, 50, 64
3, 50940, Note_on_c, 1, 52, 107
3, 50988, Note_off_c, 1, 52, 64
3, 51000, Note_on_c, 1, 53, 107
3, 51048, Note_off_c, 1, 53, 64
3, 51060, Note_on_c, 1, 55, 107
3, 51108, Note_off_c, 1, 55, 64
3, 51120, Note_on_c, 1, 57, 107
3, 51210, Note_off_c, 1, 57, 64
3, 51240, Note_on_c, 1, 55, 107
3, 51330, Note_off_c, 1, 55, 64
3, 51360, Note_on_c, 1, 53, 107
3, 51450, Note_off_c, 1, 53, 64
3, 51480, Note_on_c, 1, 55, 107
3, 51570, Note_off_c, 1, 55, 64
3, 51600, Note_on_c, 1, 53, 107
3, 51690, Note_off_c, 1, 53, 64
3, 51720, Note_on_c, 1, 52, 107
3, 51810, Note_off_c, 1, 52, 64
3, 51840, Note_on_c, 1, 53, 107
3, 51840, Note_on_c, 1, 57, 107
3, 52248, Note_off_c, 1, 53, 64
3, 52260, Note_on_c, 1, 52, 107
3, 52308, Note_off_c, 1, 52, 64
3, 52320, Note_on_c, 1, 53, 107
3, 52344, Note_off_c, 1, 57, 64
3, 52380, Note_on_c, 1, 55, 107
3, 52428, Note_off_c, 1, 55, 64
3, 52440, Note_on_c, 1, 53, 107
3, 52464, Note_off_c, 1, 53, 64
3, 52500, Note_on_c, 1, 52, 107
3, 52548, Note_off_c, 1, 52, 64
3, 52560, Note_on_c, 1, 50, 107
3, 52656, Note_off_c, 1, 50, 64
3, 52656, Note_off_c, 1, 53, 64
3, 52680, Note_on_c, 1, 55, 107
3, 52680, Note_on_c, 1, 52, 107
3, 52776, Note_off_c, 1, 52, 64
3, 52776, Note_off_c, 1, 55, 64
3, 52800, Note_on_c, 1, 57, 107
3, 52800, Note_on_c, 1, 53, 107
3, 52896, Note_off_c, 1, 53, 64
3, 52896, Note_off_c, 1, 57, 64
3, 52920, Note_on_c, 1, 52, 107
3, 52920, Note_on_c, 1, 55, 107
3, 53208, Note_off_c, 1, 55, 64
3, 53340, Note_on_c, 1, 55, 107
3, 53376, Note_off_c, 1, 52, 64
3, 53400, Note_on_c, 1, 53, 107
3, 53436, Note_off_c, 1, 55, 64
3, 53460, Note_on_c, 1, 57, 107
3, 53496, Note_off_c, 1, 53, 64
3, 53520, Note_on_c, 1, 55, 107
3, 53556, Note_off_c, 1, 57, 64
3, 53580, Note_on_c, 1, 58, 107
3, 53616, Note_off_c, 1, 55, 64
3, 53628, Note_off_c, 1, 58, 64
3, 53640, Note_on_c, 1, 53, 107
3, 53700, Note_on_c, 1, 57, 107
3, 53736, Note_off_c, 1, 53, 64
3, 53760, Note_on_c, 1, 55, 107
3, 53796, Note_off_c, 1, 57, 64
3, 53820, Note_on_c, 1, 58, 107
3, 53856, Note_off_c, 1, 55, 64
3, 53880, Note_on_c, 1, 57, 107
3, 53916, Note_off_c, 1, 58, 64
3, 53940, Note_on_c, 1, 60, 107
3, 53976, Note_off_c, 1, 57, 64
3, 53988, Note_off_c, 1, 60, 64
3, 54000, Note_on_c, 1, 55, 107
3, 54060, Note_on_c, 1, 58, 107
3, 54096, Note_off_c, 1, 55, 64
3, 54120, Note_on_c, 1, 57, 107
3, 54156, Note_off_c, 1, 58, 64
3, 54180, Note_on_c, 1, 60, 107
3, 54216, Note_off_c, 1, 57, 64
3, 54240, Note_on_c, 1, 58, 107
3, 54276, Note_off_c, 1, 60, 64
3, 54300, Note_on_c, 1, 62, 107
3, 54336, Note_off_c, 1, 58, 64
3, 54348, Note_off_c, 1, 62, 64
3, 54360, Note_on_c, 1, 60, 107
3, 54360, Note_on_c, 1, 57, 107
3, 54552, Note_off_c, 1, 57, 64
3, 54552, Note_off_c, 1, 60, 64
3, 54600, Note_on_c, 1, 58, 107
3, 54600, Note_on_c, 1, 55, 107
3, 54696, Note_off_c, 1, 55, 64
3, 54696, Note_off_c, 1, 58, 64
3, 54720, Note_on_c, 1, 57, 107
3, 54720, Note_on_c, 1, 54, 107
3, 55008, Note_off_c, 1, 54, 64
3, 55008, Note_off_c, 1, 57, 64
3, 55080, Note_on_c, 1, 55, 107
3, 55368, Note_off_c, 1, 55, 64
3, 55500, Note_on_c, 1, 59, 107
3, 55548, Note_off_c, 1, 59, 64
3, 55560, Note_on_c, 1, 60, 107
3, 55608, Note_off_c, 1, 60, 64
3, 55620, Note_on_c, 1, 62, 107
3, 55668, Note_off_c, 1, 62, 64
3, 55680, Note_on_c, 1, 64, 107
3, 55728, Note_off_c, 1, 64, 64
3, 55740, Note_on_c, 1, 65, 107
3, 55788, Note_off_c, 1, 65, 64
3, 55800, Note_on_c, 1, 67, 107
3, 55890, Note_off_c, 1, 67, 64
3, 55920, Note_on_c, 1, 65, 107
3, 56010, Note_off_c, 1, 65, 64
3, 56040, Note_on_c, 1, 64, 107
3, 56130, Note_off_c, 1, 64, 64
3, 56160, Note_on_c, 1, 65, 107
3, 56280, Note_on_c, 1, 55, 107
3, 56352, Note_off_c, 1, 65, 64
3, 56400, Note_on_c, 1, 65, 107
3, 56472, Note_off_c, 1, 55, 64
3, 56496, Note_off_c, 1, 65, 64
3, 56520, Note_on_c, 1, 64, 107
3, 56640, Note_on_c, 1, 55, 107
3, 56712, Note_off_c, 1, 64, 64
3, 56760, Note_on_c, 1, 64, 107
3, 56832, Note_off_c, 1, 55, 64
3, 56856, Note_off_c, 1, 64, 64
3, 56880, Note_on_c, 1, 62, 107
3, 57000, Note_on_c, 1, 55, 107
3, 57072, Note_off_c, 1, 62, 64
3, 57120, Note_on_c, 1, 62, 107
3, 57192, Note_off_c, 1, 55, 64
3, 57216, Note_off_c, 1, 62, 64
3, 57240, Note_on_c, 1, 60, 107
3, 57360, Note_on_c, 1, 48, 107
3, 57432, Note_off_c, 1, 60, 64
3, 57480, Note_on_c, 1, 60, 107
3, 57552, Note_off_c, 1, 48, 64
3, 57576, Note_off_c, 1, 60, 64
3, 57600, Note_on_c, 1, 60, 107
3, 57720, Note_on_c, 1, 50, 107
3, 57792, Note_off_c, 1, 60, 64
3, 57840, Note_on_c, 1, 60, 107
3, 57912, Note_off_c, 1, 50, 64
3, 57936, Note_off_c, 1, 60, 64
3, 57960, Note_on_c, 1, 60, 107
3, 58080, Note_on_c, 1, 52, 107
3, 58152, Note_off_c, 1, 60, 64
3, 58200, Note_on_c, 1, 60, 107
3, 58272, Note_off_c, 1, 52, 64
3, 58296, Note_off_c, 1, 60, 64
3, 58320, Note_on_c, 1, 60, 107
3, 58440, Note_on_c, 1, 53, 107
3, 58512, Note_off_c, 1, 60, 64
3, 58560, Note_on_c, 1, 60, 107
3, 58632, Note_off_c, 1, 53, 64
3, 58656, Note_off_c, 1, 60, 64
3, 58680, Note_on_c, 1, 60, 107
3, 58800, Note_on_c, 1, 55, 107
3, 58872, Note_off_c, 1, 60, 64
3, 58920, Note_on_c, 1, 60, 107
3, 58992, Note_off_c, 1, 55, 64
3, 59016, Note_off_c, 1, 60, 64
3, 59040, Note_on_c, 1, 60, 107
3, 59160, Note_on_c, 1, 57, 107
3, 59232, Note_off_c, 1, 60, 64
3, 59280, Note_on_c, 1, 60, 107
3, 59352, Note_off_c, 1, 57, 64
3, 59376, Note_off_c, 1, 60, 64
3, 59400, Note_on_c, 1, 59, 107
3, 59400, Note_on_c, 1, 62, 107
3, 59496, Note_off_c, 1, 59, 64
3, 59520, Note_on_c, 1, 57, 107
3, 59616, Note_off_c, 1, 57, 64
3, 59640, Note_on_c, 1, 55, 107
3, 59688, Note_off_c, 1, 62, 64
3, 59736, Note_off_c, 1, 55, 64
3, 59760, Note_on_c, 1, 60, 107
3, 59760, Note_on_c, 1, 60, 107
3, 59856, Note_off_c, 1, 60, 64
3, 59880, Note_on_c, 1, 54, 107
3, 59976, Note_off_c, 1, 54, 64
3, 60000, Note_on_c, 1, 57, 107
3, 60048, Note_off_c, 1, 60, 64
3, 60096, Note_off_c, 1, 57, 64
3, 60120, Note_on_c, 1, 55, 107
3, 60120, Note_on_c, 1, 55, 107
3, 60312, Note_off_c, 1, 55, 64
3, 60360, Note_on_c, 1, 43, 107
3, 60408, Note_off_c, 1, 55, 64
3, 60456, Note_off_c, 1, 43, 64
3, 60480, Note_on_c, 1, 48, 107
3, 60528, Note_off_c, 1, 48, 64
3, 60540, Note_on_c, 1, 60, 107
3, 60588, Note_off_c, 1, 60, 64
3, 60600, Note_on_c, 1, 58, 107
3, 60648, Note_off_c, 1, 58, 64
3, 60660, Note_on_c, 1, 57, 107
3, 60708, Note_off_c, 1, 57, 64
3, 60720, Note_on_c, 1, 55, 107
3, 60768, Note_off_c, 1, 55, 64
3, 60780, Note_on_c, 1, 53, 107
3, 60828, Note_off_c, 1, 53, 64
3, 60840, Note_on_c, 1, 52, 107
3, 60930, Note_off_c, 1, 52, 64
3, 60960, Note_on_c, 1, 54, 107
3, 61050, Note_off_c, 1, 54, 64
3, 61080, Note_on_c, 1, 55, 107
3, 61170, Note_off_c, 1, 55, 64
3, 61200, Note_on_c, 1, 54, 107
3, 61290, Note_off_c, 1, 54, 64
3, 61320, Note_on_c, 1, 55, 107
3, 61410, Note_off_c, 1, 55, 64
3, 61440, Note_on_c, 1, 57, 107
3, 61530, Note_off_c, 1, 57, 64
3, 61560, Note_on_c, 1, 55, 107
3, 61752, Note_off_c, 1, 55, 64
3, 61920, Note_on_c, 1, 58, 107
3, 61968, Note_off_c, 1, 58, 64
3, 61980, Note_on_c, 1, 57, 107
3, 62028, Note_off_c, 1, 57, 64
3, 62040, Note_on_c, 1, 55, 107
3, 62088, Note_off_c, 1, 55, 64
3, 62100, Note_on_c, 1, 53, 107
3, 62148, Note_off_c, 1, 53, 64
3, 62160, Note_on_c, 1, 52, 107
3, 62208, Note_off_c, 1, 52, 64
3, 62220, Note_on_c, 1, 50, 107
3, 62268, Note_off_c, 1, 50, 64
3, 62280, Note_on_c, 1, 48, 107
3, 62568, Note_off_c, 1, 48, 64
3, 62640, Note_on_c, 1, 53, 107
3, 62832, Note_off_c, 1, 53, 64
3, 63000, Note_on_c, 1, 57, 107
3, 63048, Note_off_c, 1, 57, 64
3, 63060, Note_on_c, 1, 55, 107
3, 63108, Note_off_c, 1, 55, 64
3, 63120, Note_on_c, 1, 53, 107
3, 63168, Note_off_c, 1, 53, 64
3, 63180, Note_on_c, 1, 52, 107
3, 63228, Note_off_c, 1, 52, 64
3, 63240, Note_on_c, 1, 50, 107
3, 63288, Note_off_c, 1, 50, 64
3, 63300, Note_on_c, 1, 48, 107
3, 63348, Note_off_c, 1, 48, 64
3, 63360, Note_on_c, 1, 47, 107
3, 63648, Note_off_c, 1, 47, 64
3, 63780, Note_on_c, 1, 52, 107
3, 63828, Note_off_c, 1, 52, 64
3, 63840, Note_on_c, 1, 53, 107
3, 63888, Note_off_c, 1, 53, 64
3, 63900, Note_on_c, 1, 55, 107
3, 63948, Note_off_c, 1, 55, 64
3, 63960, Note_on_c, 1, 57, 107
3, 64008, Note_off_c, 1, 57, 64
3, 64020, Note_on_c, 1, 59, 107
3, 64068, Note_off_c, 1, 59, 64
3, 64320, Note_on_c, 1, 52, 107
3, 64416, Note_off_c, 1, 52, 64
3, 64440, Note_on_c, 1, 57, 107
3, 64632, Note_off_c, 1, 57, 64
3, 64680, Note_on_c, 1, 52, 107
3, 64776, Note_off_c, 1, 52, 64
3, 64800, Note_on_c, 1, 50, 107
3, 64896, Note_off_c, 1, 50, 64
3, 64920, Note_on_c, 1, 53, 107
3, 65016, Note_off_c, 1, 53, 64
3, 65040, Note_on_c, 1, 45, 107
3, 65130, Note_off_c, 1, 45, 64
3, 65160, Note_on_c, 1, 52, 107
3, 65256, Note_off_c, 1, 52, 64
3, 65280, Note_on_c, 1, 55, 107
3, 65376, Note_off_c, 1, 55, 64
3, 65400, Note_on_c, 1, 45, 107
3, 65490, Note_off_c, 1, 45, 64
3, 65520, Note_on_c, 1, 53, 107
3, 65616, Note_off_c, 1, 53, 64
3, 65640, Note_on_c, 1, 57, 107
3, 65736, Note_off_c, 1, 57, 64
3, 65760, Note_on_c, 1, 50, 107
3, 65850, Note_off_c, 1, 50, 64
3, 65880, Note_on_c, 1, 55, 107
3, 65976, Note_off_c, 1, 55, 64
3, 66000, Note_on_c, 1, 43, 107
3, 66096, Note_off_c, 1, 43, 64
3, 66120, Note_on_c, 1, 55, 107
3, 66210, Note_off_c, 1, 55, 64
3, 66240, Note_on_c, 1, 55, 107
3, 66336, Note_off_c, 1, 55, 64
3, 66360, Note_on_c, 1, 45, 107
3, 66456, Note_off_c, 1, 45, 64
3, 66480, Note_on_c, 1, 55, 107
3, 66570, Note_off_c, 1, 55, 64
3, 66600, Note_on_c, 1, 55, 107
3, 66696, Note_off_c, 1, 55, 64
3, 66720, Note_on_c, 1, 46, 107
3, 66816, Note_off_c, 1, 46, 64
3, 66840, Note_on_c, 1, 55, 107
3, 66930, Note_off_c, 1, 55, 64
3, 66960, Note_on_c, 1, 49, 107
3, 67056, Note_off_c, 1, 49, 64
3, 67080, Note_on_c, 1, 52, 107
3, 67176, Note_off_c, 1, 52, 64
3, 67200, Note_on_c, 1, 57, 107
3, 67296, Note_off_c, 1, 57, 64
3, 67320, Note_on_c, 1, 50, 107
3, 67416, Note_off_c, 1, 50, 64
3, 67440, Note_on_c, 1, 53, 107
3, 67536, Note_off_c, 1, 53, 64
3, 67560, Note_on_c, 1, 57, 107
3, 67656, Note_off_c, 1, 57, 64
3, 67680, Note_on_c, 1, 46, 107
3, 67776, Note_off_c, 1, 46, 64
3, 67800, Note_on_c, 1, 50, 107
3, 67896, Note_off_c, 1, 50, 64
3, 67920, Note_on_c, 1, 55, 107
3, 68016, Note_off_c, 1, 55, 64
3, 68040, Note_on_c, 1, 57, 107
3, 68088, Note_off_c, 1, 57, 64
3, 68100, Note_on_c, 1, 45, 107
3, 68148, Note_off_c, 1, 45, 64
3, 68160, Note_on_c, 1, 47, 107
3, 68208, Note_off_c, 1, 47, 64
3, 68220, Note_on_c, 1, 49, 107
3, 68268, Note_off_c, 1, 49, 64
3, 68280, Note_on_c, 1, 50, 107
3, 68328, Note_off_c, 1, 50, 64
3, 68340, Note_on_c, 1, 52, 107
3, 68388, Note_off_c, 1, 52, 64
3, 68400, Note_on_c, 1, 53, 107
3, 68490, Note_off_c, 1, 53, 64
3, 68520, Note_on_c, 1, 52, 107
3, 68610, Note_off_c, 1, 52, 64
3, 68640, Note_on_c, 1, 50, 107
3, 68730, Note_off_c, 1, 50, 64
3, 68760, Note_on_c, 1, 52, 107
3, 68850, Note_off_c, 1, 52, 64
3, 68880, Note_on_c, 1, 50, 107
3, 68970, Note_off_c, 1, 50, 64
3, 69000, Note_on_c, 1, 49, 107
3, 69090, Note_off_c, 1, 49, 64
3, 69120, Note_on_c, 1, 50, 107
3, 69528, Note_off_c, 1, 50, 64
3, 69540, Note_on_c, 1, 52, 107
3, 69588, Note_off_c, 1, 52, 64
3, 69600, Note_on_c, 1, 54, 107
3, 69648, Note_off_c, 1, 54, 64
3, 69660, Note_on_c, 1, 55, 107
3, 69708, Note_off_c, 1, 55, 64
3, 69720, Note_on_c, 1, 57, 107
3, 69768, Note_off_c, 1, 57, 64
3, 69780, Note_on_c, 1, 58, 107
3, 69828, Note_off_c, 1, 58, 64
3, 69840, Note_on_c, 1, 60, 107
3, 69888, Note_off_c, 1, 60, 64
3, 69900, Note_on_c, 1, 58, 107
3, 69948, Note_off_c, 1, 58, 64
3, 69960, Note_on_c, 1, 57, 107
3, 70008, Note_off_c, 1, 57, 64
3, 70020, Note_on_c, 1, 58, 107
3, 70068, Note_off_c, 1, 58, 64
3, 70080, Note_on_c, 1, 60, 107
3, 70128, Note_off_c, 1, 60, 64
3, 70140, Note_on_c, 1, 57, 107
3, 70188, Note_off_c, 1, 57, 64
3, 70200, Note_on_c, 1, 59, 107
3, 70248, Note_off_c, 1, 59, 64
3, 70260, Note_on_c, 1, 55, 107
3, 70308, Note_off_c, 1, 55, 64
3, 70320, Note_on_c, 1, 57, 107
3, 70368, Note_off_c, 1, 57, 64
3, 70380, Note_on_c, 1, 59, 107
3, 70428, Note_off_c, 1, 59, 64
3, 70440, Note_on_c, 1, 60, 107
3, 70488, Note_off_c, 1, 60, 64
3, 70500, Note_on_c, 1, 62, 107
3, 70548, Note_off_c, 1, 62, 64
3, 70560, Note_on_c, 1, 64, 107
3, 70650, Note_off_c, 1, 64, 64
3, 70680, Note_on_c, 1, 62, 107
3, 70770, Note_off_c, 1, 62, 64
3, 70800, Note_on_c, 1, 60, 107
3, 70890, Note_off_c, 1, 60, 64
3, 70920, Note_on_c, 1, 62, 107
3, 71010, Note_off_c, 1, 62, 64
3, 71040, Note_on_c, 1, 60, 107
3, 71130, Note_off_c, 1, 60, 64
3, 71160, Note_on_c, 1, 59, 107
3, 71250, Note_off_c, 1, 59, 64
3, 73440, Note_on_c, 1, 64, 107
3, 73488, Note_off_c, 1, 64, 64
3, 73500, Note_on_c, 1, 60, 107
3, 73548, Note_off_c, 1, 60, 64
3, 73560, Note_on_c, 1, 58, 107
3, 73608, Note_off_c, 1, 58, 64
3, 73620, Note_on_c, 1, 57, 107
3, 73668, Note_off_c, 1, 57, 64
3, 73680, Note_on_c, 1, 58, 107
3, 73728, Note_off_c, 1, 58, 64
3, 73740, Note_on_c, 1, 60, 107
3, 73788, Note_off_c, 1, 60, 64
3, 73800, Note_on_c, 1, 62, 107
3, 73848, Note_off_c, 1, 62, 64
3, 73860, Note_on_c, 1, 58, 107
3, 73908, Note_off_c, 1, 58, 64
3, 73920, Note_on_c, 1, 57, 107
3, 73968, Note_off_c, 1, 57, 64
3, 73980, Note_on_c, 1, 55, 107
3, 74028, Note_off_c, 1, 55, 64
3, 74040, Note_on_c, 1, 57, 107
3, 74088, Note_off_c, 1, 57, 64
3, 74100, Note_on_c, 1, 58, 107
3, 74148, Note_off_c, 1, 58, 64
3, 74160, Note_on_c, 1, 60, 107
3, 74208, Note_off_c, 1, 60, 64
3, 74220, Note_on_c, 1, 57, 107
3, 74268, Note_off_c, 1, 57, 64
3, 74280, Note_on_c, 1, 55, 107
3, 74328, Note_off_c, 1, 55, 64
3, 74340, Note_on_c, 1, 53, 107
3, 74388, Note_off_c, 1, 53, 64
3, 74400, Note_on_c, 1, 55, 107
3, 74448, Note_off_c, 1, 55, 64
3, 74460, Note_on_c, 1, 57, 107
3, 74508, Note_off_c, 1, 57, 64
3, 74520, Note_on_c, 1, 58, 107
3, 74808, Note_off_c, 1, 58, 64
3, 75240, Note_on_c, 1, 57, 107
3, 75528, Note_off_c, 1, 57, 64
3, 75600, Note_on_c, 1, 55, 107
3, 75888, Note_off_c, 1, 55, 64
3, 76320, Note_on_c, 1, 56, 107
3, 76608, Note_off_c, 1, 56, 64
3, 76680, Note_on_c, 1, 57, 107
3, 76728, Note_off_c, 1, 57, 64
3, 76740, Note_on_c, 1, 45, 107
3, 76788, Note_off_c, 1, 45, 64
3, 76800, Note_on_c, 1, 47, 107
3, 76848, Note_off_c, 1, 47, 64
3, 76860, Note_on_c, 1, 49, 107
3, 76908, Note_off_c, 1, 49, 64
3, 76920, Note_on_c, 1, 50, 107
3, 76968, Note_off_c, 1, 50, 64
3, 76980, Note_on_c, 1, 52, 107
3, 77028, Note_off_c, 1, 52, 64
3, 77040, Note_on_c, 1, 53, 107
3, 77130, Note_off_c, 1, 53, 64
3, 77160, Note_on_c, 1, 52, 107
3, 77250, Note_off_c, 1, 52, 64
3, 77280, Note_on_c, 1, 50, 107
3, 77370, Note_off_c, 1, 50, 64
3, 77400, Note_on_c, 1, 52, 107
3, 77490, Note_off_c, 1, 52, 64
3, 77520, Note_on_c, 1, 50, 107
3, 77610, Note_off_c, 1, 50, 64
3, 77640, Note_on_c, 1, 49, 107
3, 77730, Note_off_c, 1, 49, 64
3, 77760, Note_on_c, 1, 50, 107
3, 77856, Note_off_c, 1, 50, 64
3, 77880, Note_on_c, 1, 55, 107
3, 77976, Note_off_c, 1, 55, 64
3, 78000, Note_on_c, 1, 46, 107
3, 78090, Note_off_c, 1, 46, 64
3, 78120, Note_on_c, 1, 48, 107
3, 78216, Note_off_c, 1, 48, 64
3, 78240, Note_on_c, 1, 53, 107
3, 78336, Note_off_c, 1, 53, 64
3, 78360, Note_on_c, 1, 45, 107
3, 78450, Note_off_c, 1, 45, 64
3, 78480, Note_on_c, 1, 46, 107
3, 78576, Note_off_c, 1, 46, 64
3, 78600, Note_on_c, 1, 52, 107
3, 78696, Note_off_c, 1, 52, 64
3, 78720, Note_on_c, 1, 43, 107
3, 78810, Note_off_c, 1, 43, 64
3, 78840, Note_on_c, 1, 45, 107
3, 78936, Note_off_c, 1, 45, 64
3, 78960, Note_on_c, 1, 50, 107
3, 79056, Note_off_c, 1, 50, 64
3, 79080, Note_on_c, 1, 41, 107
3, 79170, Note_off_c, 1, 41, 64
3, 79200, Note_on_c, 1, 43, 107
3, 79296, Note_off_c, 1, 43, 64
3, 79320, Note_on_c, 1, 48, 107
3, 79416, Note_off_c, 1, 48, 64
3, 79440, Note_on_c, 1, 40, 107
3, 79530, Note_off_c, 1, 40, 64
3, 79560, Note_on_c, 1, 41, 107
3, 79656, Note_off_c, 1, 41, 64
3, 79680, Note_on_c, 1, 46, 107
3, 79776, Note_off_c, 1, 46, 64
3, 79800, Note_on_c, 1, 38, 107
3, 79890, Note_off_c, 1, 38, 64
3, 79920, Note_on_c, 1, 40, 107
3, 79968, Note_off_c, 1, 40, 64
3, 79980, Note_on_c, 1, 45, 107
3, 80028, Note_off_c, 1, 45, 64
3, 80040, Note_on_c, 1, 43, 107
3, 80088, Note_off_c, 1, 43, 64
3, 80100, Note_on_c, 1, 41, 107
3, 80148, Note_off_c, 1, 41, 64
3, 80160, Note_on_c, 1, 40, 107
3, 80208, Note_off_c, 1, 40, 64
3, 80220, Note_on_c, 1, 38, 107
3, 80268, Note_off_c, 1, 38, 64
3, 80280, Note_on_c, 1, 37, 107
3, 80370, Note_off_c, 1, 37, 64
3, 80400, Note_on_c, 1, 38, 107
3, 80490, Note_off_c, 1, 38, 64
3, 80520, Note_on_c, 1, 40, 107
3, 80610, Note_off_c, 1, 40, 64
3, 80640, Note_on_c, 1, 38, 107
3, 80730, Note_off_c, 1, 38, 64
3, 80760, Note_on_c, 1, 40, 107
3, 80850, Note_off_c, 1, 40, 64
3, 80880, Note_on_c, 1, 41, 107
3, 80970, Note_off_c, 1, 41, 64
3, 81000, Note_on_c, 1, 40, 107
3, 81090, Note_off_c, 1, 40, 64
3, 81120, Note_on_c, 1, 41, 107
3, 81210, Note_off_c, 1, 41, 64
3, 81240, Note_on_c, 1, 43, 107
3, 81330, Note_off_c, 1, 43, 64
3, 81360, Note_on_c, 1, 41, 107
3, 81450, Note_off_c, 1, 41, 64
3, 81480, Note_on_c, 1, 43, 107
3, 81570, Note_off_c, 1, 43, 64
3, 81600, Note_on_c, 1, 45, 107
3, 81690, Note_off_c, 1, 45, 64
3, 81720, Note_on_c, 1, 43, 107
3, 81810, Note_off_c, 1, 43, 64
3, 81840, Note_on_c, 1, 45, 107
3, 81930, Note_off_c, 1, 45, 64
3, 81960, Note_on_c, 1, 46, 107
3, 82050, Note_off_c, 1, 46, 64
3, 82080, Note_on_c, 1, 45, 107
3, 82170, Note_off_c, 1, 45, 64
3, 82200, Note_on_c, 1, 47, 107
3, 82290, Note_off_c, 1, 47, 64
3, 82320, Note_on_c, 1, 48, 107
3, 82410, Note_off_c, 1, 48, 64
3, 82440, Note_on_c, 1, 47, 107
3, 82530, Note_off_c, 1, 47, 64
3, 82560, Note_on_c, 1, 49, 107
3, 82650, Note_off_c, 1, 49, 64
3, 82680, Note_on_c, 1, 50, 107
3, 82770, Note_off_c, 1, 50, 64
3, 82800, Note_on_c, 1, 49, 107
3, 82848, Note_off_c, 1, 49, 64
3, 82860, Note_on_c, 1, 53, 107
3, 82908, Note_off_c, 1, 53, 64
3, 82920, Note_on_c, 1, 52, 107
3, 82968, Note_off_c, 1, 52, 64
3, 82980, Note_on_c, 1, 50, 107
3, 83028, Note_off_c, 1, 50, 64
3, 83040, Note_on_c, 1, 49, 107
3, 83088, Note_off_c, 1, 49, 64
3, 83100, Note_on_c, 1, 47, 107
3, 83148, Note_off_c, 1, 47, 64
3, 83160, Note_on_c, 1, 45, 107
3, 83256, Note_off_c, 1, 45, 64
3, 83280, Note_on_c, 1, 57, 107
3, 83376, Note_off_c, 1, 57, 64
3, 83400, Note_on_c, 1, 45, 107
3, 83490, Note_off_c, 1, 45, 64
3, 83520, Note_on_c, 1, 45, 107
3, 83616, Note_off_c, 1, 45, 64
3, 83640, Note_on_c, 1, 57, 107
3, 83736, Note_off_c, 1, 57, 64
3, 83760, Note_on_c, 1, 45, 107
3, 83850, Note_off_c, 1, 45, 64
3, 83880, Note_on_c, 1, 45, 107
3, 83976, Note_off_c, 1, 45, 64
3, 84000, Note_on_c, 1, 57, 107
3, 84096, Note_off_c, 1, 57, 64
3, 84120, Note_on_c, 1, 45, 107
3, 84210, Note_off_c, 1, 45, 64
3, 84240, Note_on_c, 1, 45, 107
3, 84336, Note_off_c, 1, 45, 64
3, 84360, Note_on_c, 1, 57, 107
3, 84456, Note_off_c, 1, 57, 64
3, 84480, Note_on_c, 1, 45, 107
3, 84570, Note_off_c, 1, 45, 64
3, 84600, Note_on_c, 1, 45, 107
3, 84696, Note_off_c, 1, 45, 64
3, 84720, Note_on_c, 1, 57, 107
3, 84816, Note_off_c, 1, 57, 64
3, 84840, Note_on_c, 1, 45, 107
3, 84930, Note_off_c, 1, 45, 64
3, 84960, Note_on_c, 1, 43, 107
3, 85056, Note_off_c, 1, 43, 64
3, 85080, Note_on_c, 1, 55, 107
3, 85176, Note_off_c, 1, 55, 64
3, 85200, Note_on_c, 1, 43, 107
3, 85290, Note_off_c, 1, 43, 64
3, 85320, Note_on_c, 1, 41, 107
3, 85320, Note_on_c, 1, 41, 107
3, 85368, Note_off_c, 1, 41, 64
3, 85380, Note_on_c, 1, 49, 107
3, 85428, Note_off_c, 1, 49, 64
3, 85440, Note_on_c, 1, 50, 107
3, 85488, Note_off_c, 1, 50, 64
3, 85500, Note_on_c, 1, 53, 107
3, 85512, Note_off_c, 1, 41, 64
3, 85548, Note_off_c, 1, 53, 64
3, 85560, Note_on_c, 1, 49, 107
3, 85608, Note_off_c, 1, 49, 64
3, 85620, Note_on_c, 1, 50, 107
3, 85668, Note_off_c, 1, 50, 64
3, 85680, Note_on_c, 1, 43, 107
3, 85680, Note_on_c, 1, 43, 107
3, 85728, Note_off_c, 1, 43, 64
3, 85740, Note_on_c, 1, 49, 107
3, 85788, Note_off_c, 1, 49, 64
3, 85800, Note_on_c, 1, 50, 107
3, 85848, Note_off_c, 1, 50, 64
3, 85860, Note_on_c, 1, 53, 107
3, 85872, Note_off_c, 1, 43, 64
3, 85908, Note_off_c, 1, 53, 64
3, 85920, Note_on_c, 1, 49, 107
3, 85968, Note_off_c, 1, 49, 64
3, 85980, Note_on_c, 1, 50, 107
3, 86028, Note_off_c, 1, 50, 64
3, 86040, Note_on_c, 1, 45, 107
3, 86040, Note_on_c, 1, 45, 107
3, 86088, Note_off_c, 1, 45, 64
3, 86100, Note_on_c, 1, 49, 107
3, 86148, Note_off_c, 1, 49, 64
3, 86160, Note_on_c, 1, 50, 107
3, 86208, Note_off_c, 1, 50, 64
3, 86220, Note_on_c, 1, 53, 107
3, 86232, Note_off_c, 1, 45, 64
3, 86268, Note_off_c, 1, 53, 64
3, 86280, Note_on_c, 1, 49, 107
3, 86328, Note_off_c, 1, 49, 64
3, 86340, Note_on_c, 1, 50, 107
3, 86388, Note_off_c, 1, 50, 64
3, 86400, Note_on_c, 1, 46, 107
3, 86400, Note_on_c, 1, 46, 107
3, 86448, Note_off_c, 1, 46, 64
3, 86460, Note_on_c, 1, 49, 107
3, 86508, Note_off_c, 1, 49, 64
3, 86520, Note_on_c, 1, 50, 107
3, 86568, Note_off_c, 1, 50, 64
3, 86580, Note_on_c, 1, 53, 107
3, 86592, Note_off_c, 1, 46, 64
3, 86628, Note_off_c, 1, 53, 64
3, 86640, Note_on_c, 1, 49, 107
3, 86688, Note_off_c, 1, 49, 64
3, 86700, Note_on_c, 1, 50, 107
3, 86748, Note_off_c, 1, 50, 64
3, 86760, Note_on_c, 1, 47, 107
3, 86760, Note_on_c, 1, 47, 107
3, 86808, Note_off_c, 1, 47, 64
3, 86820, Note_on_c, 1, 49, 107
3, 86868, Note_off_c, 1, 49, 64
3, 86880, Note_on_c, 1, 50, 107
3, 86928, Note_off_c, 1, 50, 64
3, 86940, Note_on_c, 1, 53, 107
3, 86952, Note_off_c, 1, 47, 64
3, 86988, Note_off_c, 1, 53, 64
3, 87000, Note_on_c, 1, 49, 107
3, 87048, Note_off_c, 1, 49, 64
3, 87060, Note_on_c, 1, 50, 107
3, 87108, Note_off_c, 1, 50, 64
3, 87120, Note_on_c, 1, 45, 107
3, 87120, Note_on_c, 1, 45, 107
3, 87168, Note_off_c, 1, 45, 64
3, 87180, Note_on_c, 1, 49, 107
3, 87228, Note_off_c, 1, 49, 64
3, 87240, Note_on_c, 1, 50, 107
3, 87288, Note_off_c, 1, 50, 64
3, 87300, Note_on_c, 1, 53, 107
3, 87312, Note_off_c, 1, 45, 64
3, 87348, Note_off_c, 1, 53, 64
3, 87360, Note_on_c, 1, 49, 107
3, 87408, Note_off_c, 1, 49, 64
3, 87420, Note_on_c, 1, 50, 107
3, 87468, Note_off_c, 1, 50, 64
3, 87480, Note_on_c, 1, 44, 107
3, 87768, Note_off_c, 1, 44, 64
3, 88200, Note_on_c, 1, 43, 107
3, 88488, Note_off_c, 1, 43, 64
3, 88560, Note_on_c, 1, 41, 107
3, 88608, Note_off_c, 1, 41, 64
3, 88620, Note_on_c, 1, 45, 107
3, 88668, Note_off_c, 1, 45, 64
3, 88680, Note_on_c, 1, 47, 107
3, 88728, Note_off_c, 1, 47, 64
3, 88740, Note_on_c, 1, 49, 107
3, 88788, Note_off_c, 1, 49, 64
3, 88800, Note_on_c, 1, 50, 107
3, 88848, Note_off_c, 1, 50, 64
3, 88860, Note_on_c, 1, 52, 107
3, 88908, Note_off_c, 1, 52, 64
3, 88920, Note_on_c, 1, 53, 107
3, 89010, Note_off_c, 1, 53, 64
3, 89040, Note_on_c, 1, 52, 107
3, 89130, Note_off_c, 1, 52, 64
3, 89160, Note_on_c, 1, 50, 107
3, 89250, Note_off_c, 1, 50, 64
3, 89280, Note_on_c, 1, 52, 107
3, 89370, Note_off_c, 1, 52, 64
3, 89400, Note_on_c, 1, 50, 107
3, 89490, Note_off_c, 1, 50, 64
3, 89520, Note_on_c, 1, 49, 107
3, 89610, Note_off_c, 1, 49, 64
3, 89640, Note_on_c, 1, 50, 107
3, 89640, Note_on_c, 1, 53, 107
3, 89832, Note_off_c, 1, 53, 64
3, 89832, Note_off_c, 1, 50, 64
3, 89880, Note_on_c, 1, 52, 107
3, 89880, Note_on_c, 1, 48, 107
3, 89976, Note_off_c, 1, 48, 64
3, 89976, Note_off_c, 1, 52, 64
3, 90000, Note_on_c, 1, 46, 107
3, 90000, Note_on_c, 1, 50, 107
3, 90090, Note_off_c, 1, 50, 64
3, 90120, Note_on_c, 1, 52, 107
3, 90192, Note_off_c, 1, 46, 64
3, 90210, Note_off_c, 1, 52, 64
3, 90240, Note_on_c, 1, 45, 107
3, 90240, Note_on_c, 1, 53, 107
3, 90330, Note_off_c, 1, 53, 64
3, 90336, Note_off_c, 1, 45, 64
3, 90360, Note_on_c, 1, 55, 107
3, 90360, Note_on_c, 1, 43, 107
3, 90450, Note_off_c, 1, 55, 64
3, 90480, Note_on_c, 1, 53, 107
3, 90552, Note_off_c, 1, 43, 64
3, 90570, Note_off_c, 1, 53, 64
3, 90600, Note_on_c, 1, 52, 107
3, 90600, Note_on_c, 1, 45, 107
3, 90690, Note_off_c, 1, 52, 64
3, 90696, Note_off_c, 1, 45, 64
3, 90720, Note_on_c, 1, 41, 107
3, 90720, Note_on_c, 1, 50, 107
3, 91008, Note_off_c, 1, 50, 64
3, 91008, Note_off_c, 1, 41, 64
3, 91320, Note_on_c, 1, 50, 107
3, 91320, Note_on_c, 1, 43, 107
3, 91368, Note_off_c, 1, 50, 64
3, 91380, Note_on_c, 1, 52, 107
3, 91416, Note_off_c, 1, 43, 64
3, 91428, Note_off_c, 1, 52, 64
3, 91440, Note_on_c, 1, 45, 107
3, 91440, Note_on_c, 1, 53, 107
3, 91632, Note_off_c, 1, 53, 64
3, 91632, Note_off_c, 1, 45, 64
3, 91680, Note_on_c, 1, 52, 107
3, 91680, Note_on_c, 1, 45, 107
3, 91776, Note_off_c, 1, 45, 64
3, 91776, Note_off_c, 1, 52, 64
3, 91800, Note_on_c, 1, 38, 107
3, 91800, Note_on_c, 1, 50, 107
3, 92088, Note_off_c, 1, 50, 64
3, 92088, Note_off_c, 1, 38, 64
3, 92400, Note_on_c, 1, 62, 107
3, 92490, Note_off_c, 1, 62, 64
3, 92520, Note_on_c, 1, 58, 107
3, 92610, Note_off_c, 1, 58, 64
3, 92640, Note_on_c, 1, 57, 107
3, 92730, Note_off_c, 1, 57, 64
3, 92760, Note_on_c, 1, 55, 107
3, 92850, Note_off_c, 1, 55, 64
3, 92880, Note_on_c, 1, 60, 107
3, 93168, Note_off_c, 1, 60, 64
3, 93480, Note_on_c, 1, 58, 107
3, 93570, Note_off_c, 1, 58, 64
3, 93600, Note_on_c, 1, 57, 107
3, 93690, Note_off_c, 1, 57, 64
3, 93720, Note_on_c, 1, 55, 107
3, 93810, Note_off_c, 1, 55, 64
3, 93840, Note_on_c, 1, 53, 107
3, 93930, Note_off_c, 1, 53, 64
3, 93960, Note_on_c, 1, 58, 107
3, 93960, Note_on_c, 1, 62, 107
3, 94152, Note_off_c, 1, 58, 64
3, 94200, Note_on_c, 1, 57, 107
3, 94296, Note_off_c, 1, 57, 64
3, 94320, Note_on_c, 1, 55, 107
3, 94512, Note_off_c, 1, 55, 64
3, 94512, Note_off_c, 1, 62, 64
3, 94560, Note_on_c, 1, 57, 107
3, 94560, Note_on_c, 1, 60, 107
3, 94656, Note_off_c, 1, 60, 64
3, 94656, Note_off_c, 1, 57, 64
3, 94680, Note_on_c, 1, 58, 107
3, 94680, Note_on_c, 1, 55, 107
3, 94872, Note_off_c, 1, 55, 64
3, 94920, Note_on_c, 1, 53, 107
3, 95016, Note_off_c, 1, 53, 64
3, 95040, Note_on_c, 1, 52, 107
3, 95088, Note_off_c, 1, 58, 64
3, 95100, Note_on_c, 1, 58, 107
3, 95148, Note_off_c, 1, 58, 64
3, 95160, Note_on_c, 1, 57, 107
3, 95208, Note_off_c, 1, 57, 64
3, 95220, Note_on_c, 1, 55, 107
3, 95268, Note_off_c, 1, 55, 64
3, 95280, Note_on_c, 1, 53, 107
3, 95328, Note_off_c, 1, 53, 64
3, 95328, Note_off_c, 1, 52, 64
3, 95340, Note_on_c, 1, 55, 107
3, 95388, Note_off_c, 1, 55, 64
3, 95400, Note_on_c, 1, 53, 107
3, 95400, Note_on_c, 1, 57, 107
3, 95592, Note_off_c, 1, 53, 64
3, 95640, Note_on_c, 1, 52, 107
3, 95736, Note_off_c, 1, 52, 64
3, 95760, Note_on_c, 1, 50, 107
3, 95856, Note_off_c, 1, 57, 64
3, 95880, Note_on_c, 1, 55, 107
3, 95976, Note_off_c, 1, 55, 64
3, 96000, Note_on_c, 1, 53, 107
3, 96048, Note_off_c, 1, 50, 64
3, 96096, Note_off_c, 1, 53, 64
3, 96120, Note_on_c, 1, 55, 107
3, 96120, Note_on_c, 1, 48, 107
3, 96216, Note_off_c, 1, 48, 64
3, 96216, Note_off_c, 1, 55, 64
3, 96240, Note_on_c, 1, 60, 107
3, 96336, Note_off_c, 1, 60, 64
3, 96360, Note_on_c, 1, 60, 107
3, 96456, Note_off_c, 1, 60, 64
3, 96480, Note_on_c, 1, 60, 107
3, 96576, Note_off_c, 1, 60, 64
3, 96600, Note_on_c, 1, 60, 107
3, 96696, Note_off_c, 1, 60, 64
3, 96720, Note_on_c, 1, 60, 107
3, 96816, Note_off_c, 1, 60, 64
3, 96840, Note_on_c, 1, 58, 107
3, 96888, Note_off_c, 1, 58, 64
3, 96900, Note_on_c, 1, 57, 107
3, 96948, Note_off_c, 1, 57, 64
3, 96960, Note_on_c, 1, 55, 107
3, 97008, Note_off_c, 1, 55, 64
3, 97020, Note_on_c, 1, 58, 107
3, 97068, Note_off_c, 1, 58, 64
3, 97080, Note_on_c, 1, 57, 107
3, 97128, Note_off_c, 1, 57, 64
3, 97140, Note_on_c, 1, 55, 107
3, 97188, Note_off_c, 1, 55, 64
3, 97200, Note_on_c, 1, 62, 107
3, 97290, Note_off_c, 1, 62, 64
3, 97320, Note_on_c, 1, 62, 107
3, 97410, Note_off_c, 1, 62, 64
3, 97440, Note_on_c, 1, 62, 107
3, 97530, Note_off_c, 1, 62, 64
3, 97560, Note_on_c, 1, 62, 107
3, 97650, Note_off_c, 1, 62, 64
3, 97680, Note_on_c, 1, 62, 107
3, 97770, Note_off_c, 1, 62, 64
3, 97800, Note_on_c, 1, 62, 107
3, 97890, Note_off_c, 1, 62, 64
3, 97920, Note_on_c, 1, 60, 107
3, 97968, Note_off_c, 1, 60, 64
3, 97980, Note_on_c, 1, 59, 107
3, 98028, Note_off_c, 1, 59, 64
3, 98040, Note_on_c, 1, 57, 107
3, 98088, Note_off_c, 1, 57, 64
3, 98100, Note_on_c, 1, 60, 107
3, 98148, Note_off_c, 1, 60, 64
3, 98160, Note_on_c, 1, 59, 107
3, 98208, Note_off_c, 1, 59, 64
3, 98220, Note_on_c, 1, 57, 107
3, 98268, Note_off_c, 1, 57, 64
3, 98280, Note_on_c, 1, 64, 107
3, 98328, Note_off_c, 1, 64, 64
3, 98340, Note_on_c, 1, 62, 107
3, 98388, Note_off_c, 1, 62, 64
3, 98400, Note_on_c, 1, 60, 107
3, 98448, Note_off_c, 1, 60, 64
3, 98460, Note_on_c, 1, 64, 107
3, 98508, Note_off_c, 1, 64, 64
3, 98520, Note_on_c, 1, 62, 107
3, 98568, Note_off_c, 1, 62, 64
3, 98580, Note_on_c, 1, 60, 107
3, 98628, Note_off_c, 1, 60, 64
3, 98640, Note_on_c, 1, 59, 107
3, 98688, Note_off_c, 1, 59, 64
3, 98700, Note_on_c, 1, 57, 107
3, 98748, Note_off_c, 1, 57, 64
3, 98760, Note_on_c, 1, 56, 107
3, 98808, Note_off_c, 1, 56, 64
3, 98820, Note_on_c, 1, 59, 107
3, 98868, Note_off_c, 1, 59, 64
3, 98880, Note_on_c, 1, 57, 107
3, 98928, Note_off_c, 1, 57, 64
3, 98940, Note_on_c, 1, 55, 107
3, 98988, Note_off_c, 1, 55, 64
3, 99000, Note_on_c, 1, 53, 107
3, 99048, Note_off_c, 1, 53, 64
3, 99060, Note_on_c, 1, 52, 107
3, 99108, Note_off_c, 1, 52, 64
3, 99120, Note_on_c, 1, 50, 107
3, 99168, Note_off_c, 1, 50, 64
3, 99180, Note_on_c, 1, 53, 107
3, 99228, Note_off_c, 1, 53, 64
3, 99240, Note_on_c, 1, 52, 107
3, 99288, Note_off_c, 1, 52, 64
3, 99300, Note_on_c, 1, 50, 107
3, 99348, Note_off_c, 1, 50, 64
3, 99360, Note_on_c, 1, 52, 107
3, 99408, Note_off_c, 1, 52, 64
3, 99420, Note_on_c, 1, 40, 107
3, 99468, Note_off_c, 1, 40, 64
3, 99480, Note_on_c, 1, 42, 107
3, 99528, Note_off_c, 1, 42, 64
3, 99540, Note_on_c, 1, 44, 107
3, 99588, Note_off_c, 1, 44, 64
3, 99600, Note_on_c, 1, 45, 107
3, 99648, Note_off_c, 1, 45, 64
3, 99660, Note_on_c, 1, 47, 107
3, 99708, Note_off_c, 1, 47, 64
3, 99720, Note_on_c, 1, 48, 107
3, 99810, Note_off_c, 1, 48, 64
3, 99840, Note_on_c, 1, 47, 107
3, 99930, Note_off_c, 1, 47, 64
3, 99960, Note_on_c, 1, 45, 107
3, 100050, Note_off_c, 1, 45, 64
3, 100080, Note_on_c, 1, 47, 107
3, 100170, Note_off_c, 1, 47, 64
3, 100200, Note_on_c, 1, 45, 107
3, 100290, Note_off_c, 1, 45, 64
3, 100320, Note_on_c, 1, 44, 107
3, 100410, Note_off_c, 1, 44, 64
3, 100440, Note_on_c, 1, 45, 107
3, 100848, Note_off_c, 1, 45, 64
3, 100860, Note_on_c, 1, 47, 107
3, 100908, Note_off_c, 1, 47, 64
3, 100920, Note_on_c, 1, 48, 107
3, 100968, Note_off_c, 1, 48, 64
3, 100980, Note_on_c, 1, 45, 107
3, 101028, Note_off_c, 1, 45, 64
3, 101040, Note_on_c, 1, 47, 107
3, 101088, Note_off_c, 1, 47, 64
3, 101100, Note_on_c, 1, 48, 107
3, 101148, Note_off_c, 1, 48, 64
3, 101160, Note_on_c, 1, 47, 107
3, 101568, Note_off_c, 1, 47, 64
3, 101580, Note_on_c, 1, 48, 107
3, 101628, Note_off_c, 1, 48, 64
3, 101640, Note_on_c, 1, 50, 107
3, 101688, Note_off_c, 1, 50, 64
3, 101700, Note_on_c, 1, 47, 107
3, 101748, Note_off_c, 1, 47, 64
3, 101760, Note_on_c, 1, 48, 107
3, 101808, Note_off_c, 1, 48, 64
3, 101820, Note_on_c, 1, 50, 107
3, 101868, Note_off_c, 1, 50, 64
3, 101880, Note_on_c, 1, 48, 107
3, 102288, Note_off_c, 1, 48, 64
3, 102300, Note_on_c, 1, 50, 107
3, 102348, Note_off_c, 1, 50, 64
3, 102360, Note_on_c, 1, 52, 107
3, 102408, Note_off_c, 1, 52, 64
3, 102420, Note_on_c, 1, 49, 107
3, 102468, Note_off_c, 1, 49, 64
3, 102480, Note_on_c, 1, 50, 107
3, 102528, Note_off_c, 1, 50, 64
3, 102540, Note_on_c, 1, 52, 107
3, 102588, Note_off_c, 1, 52, 64
3, 102600, Note_on_c, 1, 50, 107
3, 102840, Note_on_c, 1, 53, 107
3, 102936, Note_off_c, 1, 53, 64
3, 102960, Note_on_c, 1, 58, 107
3, 103152, Note_off_c, 1, 58, 64
3, 103200, Note_on_c, 1, 60, 107
3, 103296, Note_off_c, 1, 60, 64
3, 103320, Note_on_c, 1, 62, 107
3, 103512, Note_off_c, 1, 62, 64
3, 103560, Note_on_c, 1, 60, 107
3, 103608, Note_off_c, 1, 50, 64
3, 103656, Note_off_c, 1, 60, 64
3, 103680, Note_on_c, 1, 52, 107
3, 103680, Note_on_c, 1, 59, 107
3, 103968, Note_off_c, 1, 59, 64
3, 104400, Note_on_c, 1, 60, 107
3, 104400, Note_on_c, 1, 54, 107
3, 104688, Note_off_c, 1, 52, 64
3, 104688, Note_off_c, 1, 54, 64
3, 104688, Note_off_c, 1, 60, 64
3, 104760, Note_on_c, 1, 59, 107
3, 104820, Note_on_c, 1, 52, 107
3, 104868, Note_off_c, 1, 52, 64
3, 104880, Note_on_c, 1, 54, 107
3, 104928, Note_off_c, 1, 54, 64
3, 104940, Note_on_c, 1, 56, 107
3, 104988, Note_off_c, 1, 56, 64
3, 105000, Note_on_c, 1, 57, 107
3, 105048, Note_off_c, 1, 57, 64
3, 105048, Note_off_c, 1, 59, 64
3, 105060, Note_on_c, 1, 59, 107
3, 105108, Note_off_c, 1, 59, 64
3, 105120, Note_on_c, 1, 60, 107
3, 105210, Note_off_c, 1, 60, 64
3, 105240, Note_on_c, 1, 59, 107
3, 105330, Note_off_c, 1, 59, 64
3, 105360, Note_on_c, 1, 57, 107
3, 105450, Note_off_c, 1, 57, 64
3, 105480, Note_on_c, 1, 59, 107
3, 105570, Note_off_c, 1, 59, 64
3, 105600, Note_on_c, 1, 57, 107
3, 105690, Note_off_c, 1, 57, 64
3, 105720, Note_on_c, 1, 56, 107
3, 105810, Note_off_c, 1, 56, 64
3, 105840, Note_on_c, 1, 57, 107
3, 106248, Note_off_c, 1, 57, 64
3, 106260, Note_on_c, 1, 59, 107
3, 106308, Note_off_c, 1, 59, 64
3, 106320, Note_on_c, 1, 61, 107
3, 106368, Note_off_c, 1, 61, 64
3, 106380, Note_on_c, 1, 62, 107
3, 106428, Note_off_c, 1, 62, 64
3, 106440, Note_on_c, 1, 64, 107
3, 106488, Note_off_c, 1, 64, 64
3, 106500, Note_on_c, 1, 65, 107
3, 106548, Note_off_c, 1, 65, 64
3, 106560, Note_on_c, 1, 67, 107
3, 106608, Note_off_c, 1, 67, 64
3, 106620, Note_on_c, 1, 65, 107
3, 106668, Note_off_c, 1, 65, 64
3, 106680, Note_on_c, 1, 69, 107
3, 106728, Note_off_c, 1, 69, 64
3, 106740, Note_on_c, 1, 67, 107
3, 106788, Note_off_c, 1, 67, 64
3, 106800, Note_on_c, 1, 65, 107
3, 106848, Note_off_c, 1, 65, 64
3, 106860, Note_on_c, 1, 64, 107
3, 106908, Note_off_c, 1, 64, 64
3, 106920, Note_on_c, 1, 65, 107
3, 106968, Note_off_c, 1, 65, 64
3, 106980, Note_on_c, 1, 57, 107
3, 107028, Note_off_c, 1, 57, 64
3, 107040, Note_on_c, 1, 59, 107
3, 107088, Note_off_c, 1, 59, 64
3, 107100, Note_on_c, 1, 60, 107
3, 107148, Note_off_c, 1, 60, 64
3, 107160, Note_on_c, 1, 59, 107
3, 107208, Note_off_c, 1, 59, 64
3, 107220, Note_on_c, 1, 57, 107
3, 107268, Note_off_c, 1, 57, 64
3, 107280, Note_on_c, 1, 62, 107
3, 107688, Note_off_c, 1, 62, 64
3, 107700, Note_on_c, 1, 56, 107
3, 107748, Note_off_c, 1, 56, 64
3, 107760, Note_on_c, 1, 57, 107
3, 107808, Note_off_c, 1, 57, 64
3, 107820, Note_on_c, 1, 59, 107
3, 107868, Note_off_c, 1, 59, 64
3, 107880, Note_on_c, 1, 57, 107
3, 107928, Note_off_c, 1, 57, 64
3, 107940, Note_on_c, 1, 56, 107
3, 107988, Note_off_c, 1, 56, 64
3, 108060, Note_on_c, 1, 40, 107
3, 108108, Note_off_c, 1, 40, 64
3, 108120, Note_on_c, 1, 42, 107
3, 108168, Note_off_c, 1, 42, 64
3, 108180, Note_on_c, 1, 44, 107
3, 108228, Note_off_c, 1, 44, 64
3, 108240, Note_on_c, 1, 45, 107
3, 108288, Note_off_c, 1, 45, 64
3, 108300, Note_on_c, 1, 47, 107
3, 108348, Note_off_c, 1, 47, 64
3, 108360, Note_on_c, 1, 48, 107
3, 108450, Note_off_c, 1, 48, 64
3, 108480, Note_on_c, 1, 47, 107
3, 108570, Note_off_c, 1, 47, 64
3, 108600, Note_on_c, 1, 45, 107
3, 108690, Note_off_c, 1, 45, 64
3, 108720, Note_on_c, 1, 47, 107
3, 108810, Note_off_c, 1, 47, 64
3, 108840, Note_on_c, 1, 45, 107
3, 108930, Note_off_c, 1, 45, 64
3, 108960, Note_on_c, 1, 44, 107
3, 109050, Note_off_c, 1, 44, 64
3, 109080, Note_on_c, 1, 45, 107
3, 109128, Note_off_c, 1, 45, 64
3, 109140, Note_on_c, 1, 47, 107
3, 109188, Note_off_c, 1, 47, 64
3, 109200, Note_on_c, 1, 48, 107
3, 109248, Note_off_c, 1, 48, 64
3, 109260, Note_on_c, 1, 50, 107
3, 109308, Note_off_c, 1, 50, 64
3, 109320, Note_on_c, 1, 52, 107
3, 109368, Note_off_c, 1, 52, 64
3, 109380, Note_on_c, 1, 53, 107
3, 109428, Note_off_c, 1, 53, 64
3, 109440, Note_on_c, 1, 55, 107
3, 109488, Note_off_c, 1, 55, 64
3, 109500, Note_on_c, 1, 52, 107
3, 109548, Note_off_c, 1, 52, 64
3, 109560, Note_on_c, 1, 50, 107
3, 109608, Note_off_c, 1, 50, 64
3, 109620, Note_on_c, 1, 48, 107
3, 109668, Note_off_c, 1, 48, 64
3, 109680, Note_on_c, 1, 50, 107
3, 109728, Note_off_c, 1, 50, 64
3, 109740, Note_on_c, 1, 52, 107
3, 109788, Note_off_c, 1, 52, 64
3, 109800, Note_on_c, 1, 41, 107
3, 109848, Note_off_c, 1, 41, 64
3, 109860, Note_on_c, 1, 43, 107
3, 109908, Note_off_c, 1, 43, 64
3, 109920, Note_on_c, 1, 45, 107
3, 109968, Note_off_c, 1, 45, 64
3, 109980, Note_on_c, 1, 47, 107
3, 110028, Note_off_c, 1, 47, 64
3, 110040, Note_on_c, 1, 48, 107
3, 110088, Note_off_c, 1, 48, 64
3, 110100, Note_on_c, 1, 50, 107
3, 110148, Note_off_c, 1, 50, 64
3, 110160, Note_on_c, 1, 55, 107
3, 110160, Note_on_c, 1, 52, 107
3, 110208, Note_off_c, 1, 52, 64
3, 110220, Note_on_c, 1, 48, 107
3, 110268, Note_off_c, 1, 48, 64
3, 110280, Note_on_c, 1, 47, 107
3, 110328, Note_off_c, 1, 47, 64
3, 110340, Note_on_c, 1, 45, 107
3, 110352, Note_off_c, 1, 55, 64
3, 110388, Note_off_c, 1, 45, 64
3, 110400, Note_on_c, 1, 55, 107
3, 110400, Note_on_c, 1, 47, 107
3, 110448, Note_off_c, 1, 47, 64
3, 110460, Note_on_c, 1, 48, 107
3, 110496, Note_off_c, 1, 55, 64
3, 110508, Note_off_c, 1, 48, 64
3, 110520, Note_on_c, 1, 53, 107
3, 110520, Note_on_c, 1, 38, 107
3, 110568, Note_off_c, 1, 38, 64
3, 110580, Note_on_c, 1, 40, 107
3, 110628, Note_off_c, 1, 40, 64
3, 110640, Note_on_c, 1, 41, 107
3, 110688, Note_off_c, 1, 41, 64
3, 110700, Note_on_c, 1, 43, 107
3, 110748, Note_off_c, 1, 43, 64
3, 110760, Note_on_c, 1, 45, 107
3, 110808, Note_off_c, 1, 45, 64
3, 110808, Note_off_c, 1, 53, 64
3, 110820, Note_on_c, 1, 47, 107
3, 110868, Note_off_c, 1, 47, 64
3, 110880, Note_on_c, 1, 52, 107
3, 110880, Note_on_c, 1, 48, 107
3, 110928, Note_off_c, 1, 48, 64
3, 110940, Note_on_c, 1, 45, 107
3, 110988, Note_off_c, 1, 45, 64
3, 111000, Note_on_c, 1, 44, 107
3, 111048, Note_off_c, 1, 44, 64
3, 111060, Note_on_c, 1, 42, 107
3, 111072, Note_off_c, 1, 52, 64
3, 111108, Note_off_c, 1, 42, 64
3, 111120, Note_on_c, 1, 52, 107
3, 111120, Note_on_c, 1, 44, 107
3, 111168, Note_off_c, 1, 44, 64
3, 111180, Note_on_c, 1, 45, 107
3, 111216, Note_off_c, 1, 52, 64
3, 111228, Note_off_c, 1, 45, 64
3, 111240, Note_on_c, 1, 39, 107
3, 111240, Note_on_c, 1, 54, 107
3, 111336, Note_off_c, 1, 54, 64
3, 111600, Note_on_c, 1, 51, 107
3, 111648, Note_off_c, 1, 51, 64
3, 111660, Note_on_c, 1, 52, 107
3, 111708, Note_off_c, 1, 52, 64
3, 111720, Note_on_c, 1, 54, 107
3, 111768, Note_off_c, 1, 54, 64
3, 111780, Note_on_c, 1, 57, 107
3, 111828, Note_off_c, 1, 57, 64
3, 111840, Note_on_c, 1, 51, 107
3, 111888, Note_off_c, 1, 51, 64
3, 111900, Note_on_c, 1, 54, 107
3, 111948, Note_off_c, 1, 54, 64
3, 111960, Note_on_c, 1, 47, 107
3, 112020, Note_on_c, 1, 57, 107
3, 112068, Note_off_c, 1, 57, 64
3, 112080, Note_on_c, 1, 54, 107
3, 112128, Note_off_c, 1, 54, 64
3, 112140, Note_on_c, 1, 51, 107
3, 112152, Note_off_c, 1, 47, 64
3, 112188, Note_off_c, 1, 51, 64
3, 112200, Note_on_c, 1, 47, 107
3, 112248, Note_off_c, 1, 47, 64
3, 112248, Note_off_c, 1, 39, 64
3, 112260, Note_on_c, 1, 51, 107
3, 112308, Note_off_c, 1, 51, 64
3, 112320, Note_on_c, 1, 40, 107
3, 112380, Note_on_c, 1, 52, 107
3, 112428, Note_off_c, 1, 52, 64
3, 112440, Note_on_c, 1, 54, 107
3, 112488, Note_off_c, 1, 54, 64
3, 112500, Note_on_c, 1, 56, 107
3, 112548, Note_off_c, 1, 56, 64
3, 112560, Note_on_c, 1, 57, 107
3, 112608, Note_off_c, 1, 57, 64
3, 112620, Note_on_c, 1, 59, 107
3, 112668, Note_off_c, 1, 59, 64
3, 112680, Note_on_c, 1, 60, 107
3, 112728, Note_off_c, 1, 40, 64
3, 112740, Note_on_c, 1, 42, 107
3, 112770, Note_off_c, 1, 60, 64
3, 112788, Note_off_c, 1, 42, 64
3, 112800, Note_on_c, 1, 44, 107
3, 112800, Note_on_c, 1, 59, 107
3, 112848, Note_off_c, 1, 44, 64
3, 112860, Note_on_c, 1, 45, 107
3, 112890, Note_off_c, 1, 59, 64
3, 112908, Note_off_c, 1, 45, 64
3, 112920, Note_on_c, 1, 47, 107
3, 112920, Note_on_c, 1, 57, 107
3, 112968, Note_off_c, 1, 47, 64
3, 112980, Note_on_c, 1, 48, 107
3, 113010, Note_off_c, 1, 57, 64
3, 113028, Note_off_c, 1, 48, 64
3, 113040, Note_on_c, 1, 59, 107
3, 113040, Note_on_c, 1, 50, 107
3, 113088, Note_off_c, 1, 50, 64
3, 113100, Note_on_c, 1, 48, 107
3, 113130, Note_off_c, 1, 59, 64
3, 113148, Note_off_c, 1, 48, 64
3, 113160, Note_on_c, 1, 57, 107
3, 113160, Note_on_c, 1, 52, 107
3, 113208, Note_off_c, 1, 52, 64
3, 113220, Note_on_c, 1, 50, 107
3, 113250, Note_off_c, 1, 57, 64
3, 113268, Note_off_c, 1, 50, 64
3, 113280, Note_on_c, 1, 56, 107
3, 113280, Note_on_c, 1, 48, 107
3, 113328, Note_off_c, 1, 48, 64
3, 113340, Note_on_c, 1, 47, 107
3, 113370, Note_off_c, 1, 56, 64
3, 113388, Note_off_c, 1, 47, 64
3, 113400, Note_on_c, 1, 48, 107
3, 113448, Note_off_c, 1, 48, 64
3, 113460, Note_on_c, 1, 47, 107
3, 113508, Note_off_c, 1, 47, 64
3, 113520, Note_on_c, 1, 45, 107
3, 113568, Note_off_c, 1, 45, 64
3, 113580, Note_on_c, 1, 47, 107
3, 113628, Note_off_c, 1, 47, 64
3, 113640, Note_on_c, 1, 48, 107
3, 113688, Note_off_c, 1, 48, 64
3, 113700, Note_on_c, 1, 50, 107
3, 113748, Note_off_c, 1, 50, 64
3, 113760, Note_on_c, 1, 52, 107
3, 113808, Note_off_c, 1, 52, 64
3, 113820, Note_on_c, 1, 50, 107
3, 113868, Note_off_c, 1, 50, 64
3, 113880, Note_on_c, 1, 49, 107
3, 113928, Note_off_c, 1, 49, 64
3, 113940, Note_on_c, 1, 50, 107
3, 113988, Note_off_c, 1, 50, 64
3, 114000, Note_on_c, 1, 52, 107
3, 114048, Note_off_c, 1, 52, 64
3, 114060, Note_on_c, 1, 53, 107
3, 114108, Note_off_c, 1, 53, 64
3, 114120, Note_on_c, 1, 55, 107
3, 114168, Note_off_c, 1, 55, 64
3, 114180, Note_on_c, 1, 53, 107
3, 114228, Note_off_c, 1, 53, 64
3, 114240, Note_on_c, 1, 52, 107
3, 114288, Note_off_c, 1, 52, 64
3, 114300, Note_on_c, 1, 53, 107
3, 114348, Note_off_c, 1, 53, 64
3, 114360, Note_on_c, 1, 55, 107
3, 114408, Note_off_c, 1, 55, 64
3, 114420, Note_on_c, 1, 57, 107
3, 114468, Note_off_c, 1, 57, 64
3, 114480, Note_on_c, 1, 50, 107
3, 114540, Note_on_c, 1, 62, 107
3, 114588, Note_off_c, 1, 62, 64
3, 114600, Note_on_c, 1, 60, 107
3, 114648, Note_off_c, 1, 60, 64
3, 114660, Note_on_c, 1, 58, 107
3, 114708, Note_off_c, 1, 58, 64
3, 114720, Note_on_c, 1, 57, 107
3, 114768, Note_off_c, 1, 57, 64
3, 114768, Note_off_c, 1, 50, 64
3, 114780, Note_on_c, 1, 55, 107
3, 114828, Note_off_c, 1, 55, 64
3, 114840, Note_on_c, 1, 53, 107
3, 114888, Note_off_c, 1, 53, 64
3, 114900, Note_on_c, 1, 52, 107
3, 114948, Note_off_c, 1, 52, 64
3, 114960, Note_on_c, 1, 50, 107
3, 115008, Note_off_c, 1, 50, 64
3, 115020, Note_on_c, 1, 48, 107
3, 115068, Note_off_c, 1, 48, 64
3, 115080, Note_on_c, 1, 47, 107
3, 115128, Note_off_c, 1, 47, 64
3, 115140, Note_on_c, 1, 45, 107
3, 115188, Note_off_c, 1, 45, 64
3, 115200, Note_on_c, 1, 43, 107
3, 115488, Note_off_c, 1, 43, 64
3, 115560, Note_on_c, 1, 48, 107
3, 115620, Note_on_c, 1, 60, 107
3, 115668, Note_off_c, 1, 60, 64
3, 115680, Note_on_c, 1, 59, 107
3, 115728, Note_off_c, 1, 59, 64
3, 115740, Note_on_c, 1, 57, 107
3, 115788, Note_off_c, 1, 57, 64
3, 115800, Note_on_c, 1, 55, 107
3, 115848, Note_off_c, 1, 55, 64
3, 115848, Note_off_c, 1, 48, 64
3, 115860, Note_on_c, 1, 53, 107
3, 115908, Note_off_c, 1, 53, 64
3, 115920, Note_on_c, 1, 52, 107
3, 115968, Note_off_c, 1, 52, 64
3, 115980, Note_on_c, 1, 50, 107
3, 116028, Note_off_c, 1, 50, 64
3, 116040, Note_on_c, 1, 48, 107
3, 116088, Note_off_c, 1, 48, 64
3, 116100, Note_on_c, 1, 47, 107
3, 116148, Note_off_c, 1, 47, 64
3, 116160, Note_on_c, 1, 45, 107
3, 116208, Note_off_c, 1, 45, 64
3, 116220, Note_on_c, 1, 43, 107
3, 116268, Note_off_c, 1, 43, 64
3, 116280, Note_on_c, 1, 42, 107
3, 116568, Note_off_c, 1, 42, 64
3, 116700, Note_on_c, 1, 47, 107
3, 116748, Note_off_c, 1, 47, 64
3, 116760, Note_on_c, 1, 48, 107
3, 116808, Note_off_c, 1, 48, 64
3, 116820, Note_on_c, 1, 50, 107
3, 116868, Note_off_c, 1, 50, 64
3, 116880, Note_on_c, 1, 52, 107
3, 116928, Note_off_c, 1, 52, 64
3, 116940, Note_on_c, 1, 54, 107
3, 116988, Note_off_c, 1, 54, 64
3, 117000, Note_on_c, 1, 56, 107
3, 117048, Note_off_c, 1, 56, 64
3, 117060, Note_on_c, 1, 57, 107
3, 117108, Note_off_c, 1, 57, 64
3, 117240, Note_on_c, 1, 47, 107
3, 117336, Note_off_c, 1, 47, 64
3, 117360, Note_on_c, 1, 56, 107
3, 117360, Note_on_c, 1, 52, 107
3, 117552, Note_off_c, 1, 52, 64
3, 117600, Note_on_c, 1, 40, 107
3, 117648, Note_off_c, 1, 56, 64
3, 117696, Note_off_c, 1, 40, 64
3, 117720, Note_on_c, 1, 45, 107
3, 117816, Note_off_c, 1, 45, 64
3, 117900, Note_on_c, 1, 45, 107
3, 117948, Note_off_c, 1, 45, 64
3, 117960, Note_on_c, 1, 47, 107
3, 118008, Note_off_c, 1, 47, 64
3, 118020, Note_on_c, 1, 48, 107
3, 118068, Note_off_c, 1, 48, 64
3, 118080, Note_on_c, 1, 50, 107
3, 118128, Note_off_c, 1, 50, 64
3, 118140, Note_on_c, 1, 52, 107
3, 118188, Note_off_c, 1, 52, 64
3, 118200, Note_on_c, 1, 53, 107
3, 118248, Note_off_c, 1, 53, 64
3, 118260, Note_on_c, 1, 50, 107
3, 118308, Note_off_c, 1, 50, 64
3, 118320, Note_on_c, 1, 52, 107
3, 118368, Note_off_c, 1, 52, 64
3, 118380, Note_on_c, 1, 53, 107
3, 118428, Note_off_c, 1, 53, 64
3, 118440, Note_on_c, 1, 50, 107
3, 118488, Note_off_c, 1, 50, 64
3, 118500, Note_on_c, 1, 52, 107
3, 118548, Note_off_c, 1, 52, 64
3, 118560, Note_on_c, 1, 53, 107
3, 118608, Note_off_c, 1, 53, 64
3, 118620, Note_on_c, 1, 50, 107
3, 118668, Note_off_c, 1, 50, 64
3, 118680, Note_on_c, 1, 52, 107
3, 118728, Note_off_c, 1, 52, 64
3, 118740, Note_on_c, 1, 53, 107
3, 118788, Note_off_c, 1, 53, 64
3, 118800, Note_on_c, 1, 44, 107
3, 118848, Note_off_c, 1, 44, 64
3, 118860, Note_on_c, 1, 53, 107
3, 118908, Note_off_c, 1, 53, 64
3, 118920, Note_on_c, 1, 52, 107
3, 118968, Note_off_c, 1, 52, 64
3, 118980, Note_on_c, 1, 50, 107
3, 119028, Note_off_c, 1, 50, 64
3, 119040, Note_on_c, 1, 48, 107
3, 119088, Note_off_c, 1, 48, 64
3, 119100, Note_on_c, 1, 47, 107
3, 119148, Note_off_c, 1, 47, 64
3, 119160, Note_on_c, 1, 45, 107
3, 119208, Note_off_c, 1, 45, 64
3, 119220, Note_on_c, 1, 47, 107
3, 119268, Note_off_c, 1, 47, 64
3, 119280, Note_on_c, 1, 45, 107
3, 119328, Note_off_c, 1, 45, 64
3, 119340, Note_on_c, 1, 43, 107
3, 119388, Note_off_c, 1, 43, 64
3, 119400, Note_on_c, 1, 41, 107
3, 119448, Note_off_c, 1, 41, 64
3, 119460, Note_on_c, 1, 40, 107
3, 119508, Note_off_c, 1, 40, 64
3, 119520, Note_on_c, 1, 38, 107
3, 119610, Note_off_c, 1, 38, 64
3, 119640, Note_on_c, 1, 50, 107
3, 119730, Note_off_c, 1, 50, 64
3, 119760, Note_on_c, 1, 52, 107
3, 119850, Note_off_c, 1, 52, 64
3, 119880, Note_on_c, 1, 48, 107
3, 119976, Note_off_c, 1, 48, 64
3, 120060, Note_on_c, 1, 48, 107
3, 120108, Note_off_c, 1, 48, 64
3, 120120, Note_on_c, 1, 50, 107
3, 120168, Note_off_c, 1, 50, 64
3, 120180, Note_on_c, 1, 52, 107
3, 120228, Note_off_c, 1, 52, 64
3, 120240, Note_on_c, 1, 53, 107
3, 120330, Note_off_c, 1, 53, 64
3, 120360, Note_on_c, 1, 52, 107
3, 120450, Note_off_c, 1, 52, 64
3, 120480, Note_on_c, 1, 50, 107
3, 120570, Note_off_c, 1, 50, 64
3, 120600, Note_on_c, 1, 52, 107
3, 120600, Note_on_c, 1, 52, 107
3, 120792, Note_off_c, 1, 52, 64
3, 120840, Note_on_c, 1, 40, 107
3, 120888, Note_off_c, 1, 52, 64
3, 120936, Note_off_c, 1, 40, 64
3, 120960, Note_on_c, 1, 45, 107
3, 120960, Note_on_c, 1, 52, 107
3, 121056, Note_off_c, 1, 52, 64
3, 121056, Note_off_c, 1, 45, 64
3, 121080, Note_on_c, 1, 45, 107
3, 121176, Note_off_c, 1, 45, 64
3, 121200, Note_on_c, 1, 45, 107
3, 121296, Note_off_c, 1, 45, 64
3, 121320, Note_on_c, 1, 45, 107
3, 121380, Note_on_c, 1, 57, 107
3, 121416, Note_off_c, 1, 45, 64
3, 121440, Note_on_c, 1, 45, 107
3, 121476, Note_off_c, 1, 57, 64
3, 121500, Note_on_c, 1, 55, 107
3, 121536, Note_off_c, 1, 45, 64
3, 121560, Note_on_c, 1, 45, 107
3, 121596, Note_off_c, 1, 55, 64
3, 121620, Note_on_c, 1, 53, 107
3, 121656, Note_off_c, 1, 45, 64
3, 121668, Note_off_c, 1, 53, 64
3, 121680, Note_on_c, 1, 45, 107
3, 121740, Note_on_c, 1, 55, 107
3, 121776, Note_off_c, 1, 45, 64
3, 121800, Note_on_c, 1, 45, 107
3, 121836, Note_off_c, 1, 55, 64
3, 121860, Note_on_c, 1, 53, 107
3, 121896, Note_off_c, 1, 45, 64
3, 121920, Note_on_c, 1, 45, 107
3, 121956, Note_off_c, 1, 53, 64
3, 121980, Note_on_c, 1, 52, 107
3, 122016, Note_off_c, 1, 45, 64
3, 122028, Note_off_c, 1, 52, 64
3, 122040, Note_on_c, 1, 53, 107
3, 122088, Note_off_c, 1, 53, 64
3, 122100, Note_on_c, 1, 45, 107
3, 122148, Note_off_c, 1, 45, 64
3, 122160, Note_on_c, 1, 47, 107
3, 122208, Note_off_c, 1, 47, 64
3, 122220, Note_on_c, 1, 49, 107
3, 122268, Note_off_c, 1, 49, 64
3, 122280, Note_on_c, 1, 50, 107
3, 122328, Note_off_c, 1, 50, 64
3, 122340, Note_on_c, 1, 52, 107
3, 122388, Note_off_c, 1, 52, 64
3, 122400, Note_on_c, 1, 53, 107
3, 122490, Note_off_c, 1, 53, 64
3, 122520, Note_on_c, 1, 52, 107
3, 122610, Note_off_c, 1, 52, 64
3, 122640, Note_on_c, 1, 50, 107
3, 122730, Note_off_c, 1, 50, 64
3, 122760, Note_on_c, 1, 52, 107
3, 122850, Note_off_c, 1, 52, 64
3, 122880, Note_on_c, 1, 50, 107
3, 122970, Note_off_c, 1, 50, 64
3, 123000, Note_on_c, 1, 49, 107
3, 123090, Note_off_c, 1, 49, 64
3, 123120, Note_on_c, 1, 50, 107
3, 123120, Note_on_c, 1, 57, 107
3, 123216, Note_off_c, 1, 57, 64
3, 123216, Note_off_c, 1, 50, 64
3, 123240, Note_on_c, 1, 50, 107
3, 123336, Note_off_c, 1, 50, 64
3, 123360, Note_on_c, 1, 50, 107
3, 123456, Note_off_c, 1, 50, 64
3, 123480, Note_on_c, 1, 50, 107
3, 123540, Note_on_c, 1, 62, 107
3, 123576, Note_off_c, 1, 50, 64
3, 123600, Note_on_c, 1, 50, 107
3, 123636, Note_off_c, 1, 62, 64
3, 123660, Note_on_c, 1, 60, 107
3, 123696, Note_off_c, 1, 50, 64
3, 123720, Note_on_c, 1, 50, 107
3, 123756, Note_off_c, 1, 60, 64
3, 123780, Note_on_c, 1, 58, 107
3, 123816, Note_off_c, 1, 50, 64
3, 123828, Note_off_c, 1, 58, 64
3, 123840, Note_on_c, 1, 50, 107
3, 123900, Note_on_c, 1, 60, 107
3, 123936, Note_off_c, 1, 50, 64
3, 123960, Note_on_c, 1, 50, 107
3, 123996, Note_off_c, 1, 60, 64
3, 124020, Note_on_c, 1, 58, 107
3, 124056, Note_off_c, 1, 50, 64
3, 124080, Note_on_c, 1, 50, 107
3, 124116, Note_off_c, 1, 58, 64
3, 124140, Note_on_c, 1, 57, 107
3, 124176, Note_off_c, 1, 50, 64
3, 124188, Note_off_c, 1, 57, 64
3, 124200, Note_on_c, 1, 58, 107
3, 124248, Note_off_c, 1, 58, 64
3, 124260, Note_on_c, 1, 50, 107
3, 124308, Note_off_c, 1, 50, 64
3, 124320, Note_on_c, 1, 52, 107
3, 124368, Note_off_c, 1, 52, 64
3, 124380, Note_on_c, 1, 54, 107
3, 124428, Note_off_c, 1, 54, 64
3, 124440, Note_on_c, 1, 55, 107
3, 124488, Note_off_c, 1, 55, 64
3, 124500, Note_on_c, 1, 57, 107
3, 124548, Note_off_c, 1, 57, 64
3, 124560, Note_on_c, 1, 58, 107
3, 124650, Note_off_c, 1, 58, 64
3, 124680, Note_on_c, 1, 57, 107
3, 124770, Note_off_c, 1, 57, 64
3, 124800, Note_on_c, 1, 55, 107
3, 124890, Note_off_c, 1, 55, 64
3, 124920, Note_on_c, 1, 57, 107
3, 125010, Note_off_c, 1, 57, 64
3, 125040, Note_on_c, 1, 55, 107
3, 125130, Note_off_c, 1, 55, 64
3, 125160, Note_on_c, 1, 54, 107
3, 125250, Note_off_c, 1, 54, 64
3, 125280, Note_on_c, 1, 55, 107
3, 125376, Note_off_c, 1, 55, 64
3, 125880, Note_on_c, 1, 67, 107
3, 125976, Note_off_c, 1, 67, 64
3, 126000, Note_on_c, 1, 63, 107
3, 126096, Note_off_c, 1, 63, 64
3, 126120, Note_on_c, 1, 62, 107
3, 126216, Note_off_c, 1, 62, 64
3, 126240, Note_on_c, 1, 60, 107
3, 126336, Note_off_c, 1, 60, 64
3, 126360, Note_on_c, 1, 65, 107
3, 126648, Note_off_c, 1, 65, 64
3, 126960, Note_on_c, 1, 63, 107
3, 127056, Note_off_c, 1, 63, 64
3, 127080, Note_on_c, 1, 62, 107
3, 127176, Note_off_c, 1, 62, 64
3, 127200, Note_on_c, 1, 60, 107
3, 127296, Note_off_c, 1, 60, 64
3, 127320, Note_on_c, 1, 58, 107
3, 127416, Note_off_c, 1, 58, 64
3, 127440, Note_on_c, 1, 63, 107
3, 127440, Note_on_c, 1, 67, 107
3, 127632, Note_off_c, 1, 63, 64
3, 127680, Note_on_c, 1, 62, 107
3, 127776, Note_off_c, 1, 62, 64
3, 127800, Note_on_c, 1, 60, 107
3, 127992, Note_off_c, 1, 67, 64
3, 127992, Note_off_c, 1, 60, 64
3, 128040, Note_on_c, 1, 65, 107
3, 128040, Note_on_c, 1, 62, 107
3, 128136, Note_off_c, 1, 62, 64
3, 128136, Note_off_c, 1, 65, 64
3, 128160, Note_on_c, 1, 63, 107
3, 128160, Note_on_c, 1, 60, 107
3, 128256, Note_off_c, 1, 60, 64
3, 128256, Note_off_c, 1, 63, 64
3, 128280, Note_on_c, 1, 58, 107
3, 128280, Note_on_c, 1, 62, 107
3, 128376, Note_off_c, 1, 62, 64
3, 128376, Note_off_c, 1, 58, 64
3, 128400, Note_on_c, 1, 60, 107
3, 128400, Note_on_c, 1, 57, 107
3, 128496, Note_off_c, 1, 57, 64
3, 128496, Note_off_c, 1, 60, 64
3, 128520, Note_on_c, 1, 62, 107
3, 128808, Note_off_c, 1, 62, 64
3, 128940, Note_on_c, 1, 63, 107
3, 128988, Note_off_c, 1, 63, 64
3, 129000, Note_on_c, 1, 62, 107
3, 129048, Note_off_c, 1, 62, 64
3, 129060, Note_on_c, 1, 60, 107
3, 129108, Note_off_c, 1, 60, 64
3, 129120, Note_on_c, 1, 58, 107
3, 129168, Note_off_c, 1, 58, 64
3, 129180, Note_on_c, 1, 57, 107
3, 129228, Note_off_c, 1, 57, 64
3, 129240, Note_on_c, 1, 55, 107
3, 129288, Note_off_c, 1, 55, 64
3, 129300, Note_on_c, 1, 57, 107
3, 129348, Note_off_c, 1, 57, 64
3, 129360, Note_on_c, 1, 59, 107
3, 129408, Note_off_c, 1, 59, 64
3, 129420, Note_on_c, 1, 55, 107
3, 129468, Note_off_c, 1, 55, 64
3, 129480, Note_on_c, 1, 57, 107
3, 129528, Note_off_c, 1, 57, 64
3, 129540, Note_on_c, 1, 59, 107
3, 129588, Note_off_c, 1, 59, 64
3, 129600, Note_on_c, 1, 60, 107
3, 129888, Note_off_c, 1, 60, 64
3, 130020, Note_on_c, 1, 62, 107
3, 130068, Note_off_c, 1, 62, 64
3, 130080, Note_on_c, 1, 60, 107
3, 130128, Note_off_c, 1, 60, 64
3, 130140, Note_on_c, 1, 58, 107
3, 130188, Note_off_c, 1, 58, 64
3, 130200, Note_on_c, 1, 57, 107
3, 130248, Note_off_c, 1, 57, 64
3, 130260, Note_on_c, 1, 55, 107
3, 130308, Note_off_c, 1, 55, 64
3, 130320, Note_on_c, 1, 53, 107
3, 130368, Note_off_c, 1, 53, 64
3, 130380, Note_on_c, 1, 55, 107
3, 130428, Note_off_c, 1, 55, 64
3, 130440, Note_on_c, 1, 57, 107
3, 130488, Note_off_c, 1, 57, 64
3, 130500, Note_on_c, 1, 53, 107
3, 130548, Note_off_c, 1, 53, 64
3, 130560, Note_on_c, 1, 55, 107
3, 130608, Note_off_c, 1, 55, 64
3, 130620, Note_on_c, 1, 57, 107
3, 130668, Note_off_c, 1, 57, 64
3, 130680, Note_on_c, 1, 58, 107
3, 130728, Note_off_c, 1, 58, 64
3, 130740, Note_on_c, 1, 57, 107
3, 130788, Note_off_c, 1, 57, 64
3, 130800, Note_on_c, 1, 58, 107
3, 130848, Note_off_c, 1, 58, 64
3, 130860, Note_on_c, 1, 62, 107
3, 130908, Note_off_c, 1, 62, 64
3, 130920, Note_on_c, 1, 57, 107
3, 130968, Note_off_c, 1, 57, 64
3, 130980, Note_on_c, 1, 58, 107
3, 131028, Note_off_c, 1, 58, 64
3, 131040, Note_on_c, 1, 55, 107
3, 131088, Note_off_c, 1, 55, 64
3, 131100, Note_on_c, 1, 57, 107
3, 131148, Note_off_c, 1, 57, 64
3, 131160, Note_on_c, 1, 58, 107
3, 131208, Note_off_c, 1, 58, 64
3, 131220, Note_on_c, 1, 62, 107
3, 131268, Note_off_c, 1, 62, 64
3, 131280, Note_on_c, 1, 57, 107
3, 131328, Note_off_c, 1, 57, 64
3, 131340, Note_on_c, 1, 58, 107
3, 131388, Note_off_c, 1, 58, 64
3, 131400, Note_on_c, 1, 53, 107
3, 131448, Note_off_c, 1, 53, 64
3, 131460, Note_on_c, 1, 57, 107
3, 131508, Note_off_c, 1, 57, 64
3, 131520, Note_on_c, 1, 58, 107
3, 131568, Note_off_c, 1, 58, 64
3, 131580, Note_on_c, 1, 62, 107
3, 131628, Note_off_c, 1, 62, 64
3, 131640, Note_on_c, 1, 57, 107
3, 131688, Note_off_c, 1, 57, 64
3, 131700, Note_on_c, 1, 58, 107
3, 131748, Note_off_c, 1, 58, 64
3, 131760, Note_on_c, 1, 51, 107
3, 131808, Note_off_c, 1, 51, 64
3, 131820, Note_on_c, 1, 57, 107
3, 131868, Note_off_c, 1, 57, 64
3, 131880, Note_on_c, 1, 58, 107
3, 131928, Note_off_c, 1, 58, 64
3, 131940, Note_on_c, 1, 62, 107
3, 131988, Note_off_c, 1, 62, 64
3, 132000, Note_on_c, 1, 57, 107
3, 132048, Note_off_c, 1, 57, 64
3, 132060, Note_on_c, 1, 58, 107
3, 132108, Note_off_c, 1, 58, 64
3, 132120, Note_on_c, 1, 50, 107
3, 132168, Note_off_c, 1, 50, 64
3, 132180, Note_on_c, 1, 57, 107
3, 132228, Note_off_c, 1, 57, 64
3, 132240, Note_on_c, 1, 58, 107
3, 132288, Note_off_c, 1, 58, 64
3, 132300, Note_on_c, 1, 62, 107
3, 132348, Note_off_c, 1, 62, 64
3, 132360, Note_on_c, 1, 57, 107
3, 132408, Note_off_c, 1, 57, 64
3, 132420, Note_on_c, 1, 58, 107
3, 132468, Note_off_c, 1, 58, 64
3, 132480, Note_on_c, 1, 51, 107
3, 132528, Note_off_c, 1, 51, 64
3, 132540, Note_on_c, 1, 57, 107
3, 132588, Note_off_c, 1, 57, 64
3, 132600, Note_on_c, 1, 58, 107
3, 132648, Note_off_c, 1, 58, 64
3, 132660, Note_on_c, 1, 62, 107
3, 132708, Note_off_c, 1, 62, 64
3, 132720, Note_on_c, 1, 57, 107
3, 132768, Note_off_c, 1, 57, 64
3, 132780, Note_on_c, 1, 58, 107
3, 132828, Note_off_c, 1, 58, 64
3, 132840, Note_on_c, 1, 45, 107
3, 133248, Note_off_c, 1, 45, 64
3, 133260, Note_on_c, 1, 46, 107
3, 133308, Note_off_c, 1, 46, 64
3, 133320, Note_on_c, 1, 48, 107
3, 133368, Note_off_c, 1, 48, 64
3, 133380, Note_on_c, 1, 45, 107
3, 133428, Note_off_c, 1, 45, 64
3, 133440, Note_on_c, 1, 46, 107
3, 133488, Note_off_c, 1, 46, 64
3, 133500, Note_on_c, 1, 48, 107
3, 133548, Note_off_c, 1, 48, 64
3, 133560, Note_on_c, 1, 41, 107
3, 133656, Note_off_c, 1, 41, 64
3, 133680, Note_on_c, 1, 53, 107
3, 133776, Note_off_c, 1, 53, 64
3, 133800, Note_on_c, 1, 51, 107
3, 133896, Note_off_c, 1, 51, 64
3, 133920, Note_on_c, 1, 51, 107
3, 133944, Note_off_c, 1, 51, 64
3, 133950, Note_on_c, 1, 50, 107
3, 133974, Note_off_c, 1, 50, 64
3, 133980, Note_on_c, 1, 51, 107
3, 134004, Note_off_c, 1, 51, 64
3, 134010, Note_on_c, 1, 50, 107
3, 134136, Note_off_c, 1, 50, 64
3, 134160, Note_on_c, 1, 48, 107
3, 134256, Note_off_c, 1, 48, 64
3, 134280, Note_on_c, 1, 46, 107
3, 134376, Note_off_c, 1, 46, 64
3, 134400, Note_on_c, 1, 58, 107
3, 134496, Note_off_c, 1, 58, 64
3, 134520, Note_on_c, 1, 56, 107
3, 134616, Note_off_c, 1, 56, 64
3, 134640, Note_on_c, 1, 55, 107
3, 134736, Note_off_c, 1, 55, 64
3, 134760, Note_on_c, 1, 53, 107
3, 134856, Note_off_c, 1, 53, 64
3, 134880, Note_on_c, 1, 51, 107
3, 134976, Note_off_c, 1, 51, 64
3, 135000, Note_on_c, 1, 63, 107
3, 135048, Note_off_c, 1, 63, 64
3, 135060, Note_on_c, 1, 62, 107
3, 135108, Note_off_c, 1, 62, 64
3, 135120, Note_on_c, 1, 60, 107
3, 135168, Note_off_c, 1, 60, 64
3, 135180, Note_on_c, 1, 58, 107
3, 135228, Note_off_c, 1, 58, 64
3, 135240, Note_on_c, 1, 60, 107
3, 135288, Note_off_c, 1, 60, 64
3, 135300, Note_on_c, 1, 57, 107
3, 135348, Note_off_c, 1, 57, 64
3, 135360, Note_on_c, 1, 58, 107
3, 135450, Note_off_c, 1, 58, 64
3, 135480, Note_on_c, 1, 50, 107
3, 135570, Note_off_c, 1, 50, 64
3, 135600, Note_on_c, 1, 51, 107
3, 135690, Note_off_c, 1, 51, 64
3, 135720, Note_on_c, 1, 53, 107
3, 135810, Note_off_c, 1, 53, 64
3, 135840, Note_on_c, 1, 51, 107
3, 135930, Note_off_c, 1, 51, 64
3, 135960, Note_on_c, 1, 53, 107
3, 136050, Note_off_c, 1, 53, 64
3, 136080, Note_on_c, 1, 46, 107
3, 136488, Note_off_c, 1, 46, 64
3, 136500, Note_on_c, 1, 50, 107
3, 136548, Note_off_c, 1, 50, 64
3, 136560, Note_on_c, 1, 53, 107
3, 136608, Note_off_c, 1, 53, 64
3, 136620, Note_on_c, 1, 46, 107
3, 136668, Note_off_c, 1, 46, 64
3, 136680, Note_on_c, 1, 50, 107
3, 136728, Note_off_c, 1, 50, 64
3, 136740, Note_on_c, 1, 53, 107
3, 136788, Note_off_c, 1, 53, 64
3, 136800, Note_on_c, 1, 58, 107
3, 136848, Note_off_c, 1, 58, 64
3, 136860, Note_on_c, 1, 62, 107
3, 136908, Note_off_c, 1, 62, 64
3, 136920, Note_on_c, 1, 65, 107
3, 136968, Note_off_c, 1, 65, 64
3, 136980, Note_on_c, 1, 58, 107
3, 137028, Note_off_c, 1, 58, 64
3, 137040, Note_on_c, 1, 62, 107
3, 137088, Note_off_c, 1, 62, 64
3, 137100, Note_on_c, 1, 65, 107
3, 137148, Note_off_c, 1, 65, 64
3, 137160, Note_on_c, 1, 51, 107
3, 137256, Note_off_c, 1, 51, 64
3, 137520, Note_on_c, 1, 41, 107
3, 137568, Note_off_c, 1, 41, 64
3, 137580, Note_on_c, 1, 45, 107
3, 137628, Note_off_c, 1, 45, 64
3, 137640, Note_on_c, 1, 48, 107
3, 137688, Note_off_c, 1, 48, 64
3, 137700, Note_on_c, 1, 41, 107
3, 137748, Note_off_c, 1, 41, 64
3, 137760, Note_on_c, 1, 45, 107
3, 137808, Note_off_c, 1, 45, 64
3, 137820, Note_on_c, 1, 48, 107
3, 137868, Note_off_c, 1, 48, 64
3, 137880, Note_on_c, 1, 53, 107
3, 137928, Note_off_c, 1, 53, 64
3, 137940, Note_on_c, 1, 57, 107
3, 137988, Note_off_c, 1, 57, 64
3, 138000, Note_on_c, 1, 60, 107
3, 138048, Note_off_c, 1, 60, 64
3, 138060, Note_on_c, 1, 53, 107
3, 138108, Note_off_c, 1, 53, 64
3, 138120, Note_on_c, 1, 57, 107
3, 138168, Note_off_c, 1, 57, 64
3, 138180, Note_on_c, 1, 60, 107
3, 138228, Note_off_c, 1, 60, 64
3, 138240, Note_on_c, 1, 50, 107
3, 138336, Note_off_c, 1, 50, 64
3, 138600, Note_on_c, 1, 39, 107
3, 138648, Note_off_c, 1, 39, 64
3, 138660, Note_on_c, 1, 43, 107
3, 138708, Note_off_c, 1, 43, 64
3, 138720, Note_on_c, 1, 46, 107
3, 138768, Note_off_c, 1, 46, 64
3, 138780, Note_on_c, 1, 39, 107
3, 138828, Note_off_c, 1, 39, 64
3, 138840, Note_on_c, 1, 43, 107
3, 138888, Note_off_c, 1, 43, 64
3, 138900, Note_on_c, 1, 46, 107
3, 138948, Note_off_c, 1, 46, 64
3, 138960, Note_on_c, 1, 51, 107
3, 139008, Note_off_c, 1, 51, 64
3, 139020, Note_on_c, 1, 55, 107
3, 139068, Note_off_c, 1, 55, 64
3, 139080, Note_on_c, 1, 58, 107
3, 139128, Note_off_c, 1, 58, 64
3, 139140, Note_on_c, 1, 51, 107
3, 139188, Note_off_c, 1, 51, 64
3, 139200, Note_on_c, 1, 55, 107
3, 139248, Note_off_c, 1, 55, 64
3, 139260, Note_on_c, 1, 58, 107
3, 139308, Note_off_c, 1, 58, 64
3, 139320, Note_on_c, 1, 48, 107
3, 139368, Note_off_c, 1, 48, 64
3, 139380, Note_on_c, 1, 51, 107
3, 139428, Note_off_c, 1, 51, 64
3, 139440, Note_on_c, 1, 55, 107
3, 139488, Note_off_c, 1, 55, 64
3, 139500, Note_on_c, 1, 48, 107
3, 139548, Note_off_c, 1, 48, 64
3, 139560, Note_on_c, 1, 51, 107
3, 139608, Note_off_c, 1, 51, 64
3, 139620, Note_on_c, 1, 55, 107
3, 139668, Note_off_c, 1, 55, 64
3, 139680, Note_on_c, 1, 45, 107
3, 139728, Note_off_c, 1, 45, 64
3, 139740, Note_on_c, 1, 48, 107
3, 139788, Note_off_c, 1, 48, 64
3, 139800, Note_on_c, 1, 51, 107
3, 139848, Note_off_c, 1, 51, 64
3, 139860, Note_on_c, 1, 45, 107
3, 139908, Note_off_c, 1, 45, 64
3, 139920, Note_on_c, 1, 48, 107
3, 139968, Note_off_c, 1, 48, 64
3, 139980, Note_on_c, 1, 51, 107
3, 140028, Note_off_c, 1, 51, 64
3, 140040, Note_on_c, 1, 42, 107
3, 140088, Note_off_c, 1, 42, 64
3, 140100, Note_on_c, 1, 45, 107
3, 140148, Note_off_c, 1, 45, 64
3, 140160, Note_on_c, 1, 48, 107
3, 140208, Note_off_c, 1, 48, 64
3, 140220, Note_on_c, 1, 42, 107
3, 140268, Note_off_c, 1, 42, 64
3, 140280, Note_on_c, 1, 45, 107
3, 140328, Note_off_c, 1, 45, 64
3, 140340, Note_on_c, 1, 48, 107
3, 140388, Note_off_c, 1, 48, 64
3, 140400, Note_on_c, 1, 38, 107
3, 140496, Note_off_c, 1, 38, 64
3, 140520, Note_on_c, 1, 50, 107
3, 140616, Note_off_c, 1, 50, 64
3, 140640, Note_on_c, 1, 38, 107
3, 140730, Note_off_c, 1, 38, 64
3, 140760, Note_on_c, 1, 38, 107
3, 140856, Note_off_c, 1, 38, 64
3, 140880, Note_on_c, 1, 50, 107
3, 140976, Note_off_c, 1, 50, 64
3, 141000, Note_on_c, 1, 38, 107
3, 141090, Note_off_c, 1, 38, 64
3, 141120, Note_on_c, 1, 38, 107
3, 141216, Note_off_c, 1, 38, 64
3, 141240, Note_on_c, 1, 50, 107
3, 141336, Note_off_c, 1, 50, 64
3, 141360, Note_on_c, 1, 38, 107
3, 141450, Note_off_c, 1, 38, 64
3, 141480, Note_on_c, 1, 38, 107
3, 141576, Note_off_c, 1, 38, 64
3, 141600, Note_on_c, 1, 50, 107
3, 141696, Note_off_c, 1, 50, 64
3, 141720, Note_on_c, 1, 38, 107
3, 141810, Note_off_c, 1, 38, 64
3, 141840, Note_on_c, 1, 38, 107
3, 141936, Note_off_c, 1, 38, 64
3, 141960, Note_on_c, 1, 50, 107
3, 142056, Note_off_c, 1, 50, 64
3, 142080, Note_on_c, 1, 38, 107
3, 142170, Note_off_c, 1, 38, 64
3, 142200, Note_on_c, 1, 38, 107
3, 142296, Note_off_c, 1, 38, 64
3, 142320, Note_on_c, 1, 50, 107
3, 142416, Note_off_c, 1, 50, 64
3, 142440, Note_on_c, 1, 38, 107
3, 142530, Note_off_c, 1, 38, 64
3, 142560, Note_on_c, 1, 43, 107
3, 142608, Note_off_c, 1, 43, 64
3, 142620, Note_on_c, 1, 45, 107
3, 142668, Note_off_c, 1, 45, 64
3, 142680, Note_on_c, 1, 46, 107
3, 142728, Note_off_c, 1, 46, 64
3, 142740, Note_on_c, 1, 43, 107
3, 142788, Note_off_c, 1, 43, 64
3, 142800, Note_on_c, 1, 45, 107
3, 142848, Note_off_c, 1, 45, 64
3, 142860, Note_on_c, 1, 46, 107
3, 142908, Note_off_c, 1, 46, 64
3, 142920, Note_on_c, 1, 48, 107
3, 143010, Note_off_c, 1, 48, 64
3, 143040, Note_on_c, 1, 46, 107
3, 143130, Note_off_c, 1, 46, 64
3, 143160, Note_on_c, 1, 45, 107
3, 143250, Note_off_c, 1, 45, 64
3, 143280, Note_on_c, 1, 46, 107
3, 143370, Note_off_c, 1, 46, 64
3, 143400, Note_on_c, 1, 45, 107
3, 143490, Note_off_c, 1, 45, 64
3, 143520, Note_on_c, 1, 43, 107
3, 143610, Note_off_c, 1, 43, 64
3, 143640, Note_on_c, 1, 50, 107
3, 143688, Note_off_c, 1, 50, 64
3, 143700, Note_on_c, 1, 62, 107
3, 143748, Note_off_c, 1, 62, 64
3, 143760, Note_on_c, 1, 60, 107
3, 143808, Note_off_c, 1, 60, 64
3, 143820, Note_on_c, 1, 58, 107
3, 143868, Note_off_c, 1, 58, 64
3, 143880, Note_on_c, 1, 57, 107
3, 143928, Note_off_c, 1, 57, 64
3, 143940, Note_on_c, 1, 55, 107
3, 143988, Note_off_c, 1, 55, 64
3, 144000, Note_on_c, 1, 54, 107
3, 144090, Note_off_c, 1, 54, 64
3, 144120, Note_on_c, 1, 55, 107
3, 144210, Note_off_c, 1, 55, 64
3, 144240, Note_on_c, 1, 57, 107
3, 144330, Note_off_c, 1, 57, 64
3, 144360, Note_on_c, 1, 55, 107
3, 144450, Note_off_c, 1, 55, 64
3, 144480, Note_on_c, 1, 57, 107
3, 144570, Note_off_c, 1, 57, 64
3, 144600, Note_on_c, 1, 58, 107
3, 144690, Note_off_c, 1, 58, 64
3, 144720, Note_on_c, 1, 60, 107
3, 144768, Note_off_c, 1, 60, 64
3, 144780, Note_on_c, 1, 57, 107
3, 144828, Note_off_c, 1, 57, 64
3, 144840, Note_on_c, 1, 54, 107
3, 144888, Note_off_c, 1, 54, 64
3, 144900, Note_on_c, 1, 50, 107
3, 144948, Note_off_c, 1, 50, 64
3, 144960, Note_on_c, 1, 54, 107
3, 145008, Note_off_c, 1, 54, 64
3, 145020, Note_on_c, 1, 57, 107
3, 145068, Note_off_c, 1, 57, 64
3, 145080, Note_on_c, 1, 58, 107
3, 145128, Note_off_c, 1, 58, 64
3, 145140, Note_on_c, 1, 55, 107
3, 145188, Note_off_c, 1, 55, 64
3, 145200, Note_on_c, 1, 52, 107
3, 145248, Note_off_c, 1, 52, 64
3, 145260, Note_on_c, 1, 49, 107
3, 145308, Note_off_c, 1, 49, 64
3, 145320, Note_on_c, 1, 52, 107
3, 145368, Note_off_c, 1, 52, 64
3, 145380, Note_on_c, 1, 55, 107
3, 145428, Note_off_c, 1, 55, 64
3, 145440, Note_on_c, 1, 57, 107
3, 145488, Note_off_c, 1, 57, 64
3, 145500, Note_on_c, 1, 54, 107
3, 145548, Note_off_c, 1, 54, 64
3, 145560, Note_on_c, 1, 51, 107
3, 145608, Note_off_c, 1, 51, 64
3, 145620, Note_on_c, 1, 49, 107
3, 145668, Note_off_c, 1, 49, 64
3, 145680, Note_on_c, 1, 51, 107
3, 145728, Note_off_c, 1, 51, 64
3, 145740, Note_on_c, 1, 54, 107
3, 145788, Note_off_c, 1, 54, 64
3, 145800, Note_on_c, 1, 55, 107
3, 145848, Note_off_c, 1, 55, 64
3, 145860, Note_on_c, 1, 52, 107
3, 145908, Note_off_c, 1, 52, 64
3, 145920, Note_on_c, 1, 49, 107
3, 145968, Note_off_c, 1, 49, 64
3, 145980, Note_on_c, 1, 46, 107
3, 146028, Note_off_c, 1, 46, 64
3, 146040, Note_on_c, 1, 49, 107
3, 146088, Note_off_c, 1, 49, 64
3, 146100, Note_on_c, 1, 52, 107
3, 146148, Note_off_c, 1, 52, 64
3, 146160, Note_on_c, 1, 54, 107
3, 146208, Note_off_c, 1, 54, 64
3, 146220, Note_on_c, 1, 51, 107
3, 146268, Note_off_c, 1, 51, 64
3, 146280, Note_on_c, 1, 48, 107
3, 146328, Note_off_c, 1, 48, 64
3, 146340, Note_on_c, 1, 45, 107
3, 146388, Note_off_c, 1, 45, 64
3, 146400, Note_on_c, 1, 48, 107
3, 146448, Note_off_c, 1, 48, 64
3, 146460, Note_on_c, 1, 51, 107
3, 146508, Note_off_c, 1, 51, 64
3, 146520, Note_on_c, 1, 54, 107
3, 146568, Note_off_c, 1, 54, 64
3, 146580, Note_on_c, 1, 50, 107
3, 146628, Note_off_c, 1, 50, 64
3, 146640, Note_on_c, 1, 54, 107
3, 146688, Note_off_c, 1, 54, 64
3, 146700, Note_on_c, 1, 57, 107
3, 146748, Note_off_c, 1, 57, 64
3, 146760, Note_on_c, 1, 55, 107
3, 146808, Note_off_c, 1, 55, 64
3, 146820, Note_on_c, 1, 54, 107
3, 146868, Note_off_c, 1, 54, 64
3, 146880, Note_on_c, 1, 55, 107
3, 146928, Note_off_c, 1, 55, 64
3, 146940, Note_on_c, 1, 54, 107
3, 146988, Note_off_c, 1, 54, 64
3, 147000, Note_on_c, 1, 55, 107
3, 147048, Note_off_c, 1, 55, 64
3, 147060, Note_on_c, 1, 58, 107
3, 147108, Note_off_c, 1, 58, 64
3, 147120, Note_on_c, 1, 54, 107
3, 147168, Note_off_c, 1, 54, 64
3, 147180, Note_on_c, 1, 55, 107
3, 147228, Note_off_c, 1, 55, 64
3, 147240, Note_on_c, 1, 46, 107
3, 147288, Note_off_c, 1, 46, 64
3, 147300, Note_on_c, 1, 54, 107
3, 147348, Note_off_c, 1, 54, 64
3, 147360, Note_on_c, 1, 55, 107
3, 147408, Note_off_c, 1, 55, 64
3, 147420, Note_on_c, 1, 58, 107
3, 147468, Note_off_c, 1, 58, 64
3, 147480, Note_on_c, 1, 54, 107
3, 147528, Note_off_c, 1, 54, 64
3, 147540, Note_on_c, 1, 55, 107
3, 147588, Note_off_c, 1, 55, 64
3, 147600, Note_on_c, 1, 48, 107
3, 147648, Note_off_c, 1, 48, 64
3, 147660, Note_on_c, 1, 54, 107
3, 147708, Note_off_c, 1, 54, 64
3, 147720, Note_on_c, 1, 55, 107
3, 147768, Note_off_c, 1, 55, 64
3, 147780, Note_on_c, 1, 58, 107
3, 147828, Note_off_c, 1, 58, 64
3, 147840, Note_on_c, 1, 54, 107
3, 147888, Note_off_c, 1, 54, 64
3, 147900, Note_on_c, 1, 55, 107
3, 147948, Note_off_c, 1, 55, 64
3, 147960, Note_on_c, 1, 50, 107
3, 148008, Note_off_c, 1, 50, 64
3, 148020, Note_on_c, 1, 54, 107
3, 148068, Note_off_c, 1, 54, 64
3, 148080, Note_on_c, 1, 55, 107
3, 148128, Note_off_c, 1, 55, 64
3, 148140, Note_on_c, 1, 58, 107
3, 148188, Note_off_c, 1, 58, 64
3, 148200, Note_on_c, 1, 54, 107
3, 148248, Note_off_c, 1, 54, 64
3, 148260, Note_on_c, 1, 55, 107
3, 148308, Note_off_c, 1, 55, 64
3, 148320, Note_on_c, 1, 51, 107
3, 148368, Note_off_c, 1, 51, 64
3, 148380, Note_on_c, 1, 54, 107
3, 148428, Note_off_c, 1, 54, 64
3, 148440, Note_on_c, 1, 55, 107
3, 148488, Note_off_c, 1, 55, 64
3, 148500, Note_on_c, 1, 58, 107
3, 148548, Note_off_c, 1, 58, 64
3, 148560, Note_on_c, 1, 54, 107
3, 148608, Note_off_c, 1, 54, 64
3, 148620, Note_on_c, 1, 55, 107
3, 148668, Note_off_c, 1, 55, 64
3, 148680, Note_on_c, 1, 50, 107
3, 148728, Note_off_c, 1, 50, 64
3, 148740, Note_on_c, 1, 54, 107
3, 148788, Note_off_c, 1, 54, 64
3, 148800, Note_on_c, 1, 55, 107
3, 148848, Note_off_c, 1, 55, 64
3, 148860, Note_on_c, 1, 58, 107
3, 148908, Note_off_c, 1, 58, 64
3, 148920, Note_on_c, 1, 54, 107
3, 148968, Note_off_c, 1, 54, 64
3, 148980, Note_on_c, 1, 55, 107
3, 149028, Note_off_c, 1, 55, 64
3, 149040, Note_on_c, 1, 49, 107
3, 149328, Note_off_c, 1, 49, 64
3, 149760, Note_on_c, 1, 48, 107
3, 150048, Note_off_c, 1, 48, 64
3, 150120, Note_on_c, 1, 46, 107
3, 150168, Note_off_c, 1, 46, 64
3, 150180, Note_on_c, 1, 50, 107
3, 150228, Note_off_c, 1, 50, 64
3, 150240, Note_on_c, 1, 52, 107
3, 150288, Note_off_c, 1, 52, 64
3, 150300, Note_on_c, 1, 54, 107
3, 150348, Note_off_c, 1, 54, 64
3, 150360, Note_on_c, 1, 55, 107
3, 150408, Note_off_c, 1, 55, 64
3, 150420, Note_on_c, 1, 57, 107
3, 150468, Note_off_c, 1, 57, 64
3, 150480, Note_on_c, 1, 58, 107
3, 150570, Note_off_c, 1, 58, 64
3, 150600, Note_on_c, 1, 57, 107
3, 150690, Note_off_c, 1, 57, 64
3, 150720, Note_on_c, 1, 55, 107
3, 150810, Note_off_c, 1, 55, 64
3, 150840, Note_on_c, 1, 57, 107
3, 150930, Note_off_c, 1, 57, 64
3, 150960, Note_on_c, 1, 55, 107
3, 151050, Note_off_c, 1, 55, 64
3, 151080, Note_on_c, 1, 54, 107
3, 151170, Note_off_c, 1, 54, 64
3, 151200, Note_on_c, 1, 58, 107
3, 151200, Note_on_c, 1, 55, 107
3, 151392, Note_off_c, 1, 55, 64
3, 151392, Note_off_c, 1, 58, 64
3, 151440, Note_on_c, 1, 53, 107
3, 151440, Note_on_c, 1, 57, 107
3, 151536, Note_off_c, 1, 57, 64
3, 151536, Note_off_c, 1, 53, 64
3, 151560, Note_on_c, 1, 51, 107
3, 151560, Note_on_c, 1, 55, 107
3, 151650, Note_off_c, 1, 55, 64
3, 151680, Note_on_c, 1, 57, 107
3, 151752, Note_off_c, 1, 51, 64
3, 151770, Note_off_c, 1, 57, 64
3, 151800, Note_on_c, 1, 50, 107
3, 151800, Note_on_c, 1, 58, 107
3, 151890, Note_off_c, 1, 58, 64
3, 151896, Note_off_c, 1, 50, 64
3, 151920, Note_on_c, 1, 60, 107
3, 151920, Note_on_c, 1, 48, 107
3, 152010, Note_off_c, 1, 60, 64
3, 152040, Note_on_c, 1, 58, 107
3, 152112, Note_off_c, 1, 48, 64
3, 152130, Note_off_c, 1, 58, 64
3, 152160, Note_on_c, 1, 57, 107
3, 152160, Note_on_c, 1, 50, 107
3, 152250, Note_off_c, 1, 57, 64
3, 152256, Note_off_c, 1, 50, 64
3, 152280, Note_on_c, 1, 55, 107
3, 152280, Note_on_c, 1, 51, 107
3, 152736, Note_off_c, 1, 51, 64
3, 152760, Note_on_c, 1, 50, 107
3, 152856, Note_off_c, 1, 50, 64
3, 152880, Note_on_c, 1, 48, 107
3, 152976, Note_off_c, 1, 48, 64
3, 153000, Note_on_c, 1, 50, 107
3, 153096, Note_off_c, 1, 50, 64
3, 153120, Note_on_c, 1, 48, 107
3, 153192, Note_off_c, 1, 55, 64
3, 153216, Note_off_c, 1, 48, 64
3, 153240, Note_on_c, 1, 50, 107
3, 153240, Note_on_c, 1, 54, 107
3, 153336, Note_off_c, 1, 54, 64
3, 153336, Note_off_c, 1, 50, 64
3, 153360, Note_on_c, 1, 55, 107
3, 153360, Note_on_c, 1, 43, 107
3, 153648, Note_off_c, 1, 43, 64
3, 153648, Note_off_c, 1, 55, 64
3, 153960, Note_on_c, 1, 55, 107
3, 153960, Note_on_c, 1, 62, 107
3, 154056, Note_off_c, 1, 62, 64
3, 154056, Note_off_c, 1, 55, 64
3, 154080, Note_on_c, 1, 62, 107
3, 154080, Note_on_c, 1, 60, 107
3, 154176, Note_off_c, 1, 60, 64
3, 154176, Note_off_c, 1, 62, 64
3, 154200, Note_on_c, 1, 62, 107
3, 154200, Note_on_c, 1, 57, 107
3, 154296, Note_off_c, 1, 57, 64
3, 154296, Note_off_c, 1, 62, 64
3, 154320, Note_on_c, 1, 55, 107
3, 154320, Note_on_c, 1, 58, 107
3, 154320, Note_on_c, 1, 64, 107
3, 154416, Note_off_c, 1, 64, 64
3, 154416, Note_off_c, 1, 58, 64
3, 154416, Note_off_c, 1, 55, 64
3, 154440, Note_on_c, 1, 53, 107
3, 154440, Note_on_c, 1, 65, 107
3, 154440, Note_on_c, 1, 60, 107
3, 154728, Note_off_c, 1, 60, 64
3, 154728, Note_off_c, 1, 65, 64
3, 154728, Note_off_c, 1, 53, 64
3, 155040, Note_on_c, 1, 64, 107
3, 155040, Note_on_c, 1, 57, 107
3, 155040, Note_on_c, 1, 61, 107
3, 155040, Note_on_c, 1, 67, 107
3, 155136, Note_off_c, 1, 67, 64
3, 155136, Note_off_c, 1, 61, 64
3, 155136, Note_off_c, 1, 57, 64
3, 155136, Note_off_c, 1, 64, 64
3, 155160, Note_on_c, 1, 65, 107
3, 155160, Note_on_c, 1, 58, 107
3, 155160, Note_on_c, 1, 62, 107
3, 155352, Note_off_c, 1, 58, 64
3, 155352, Note_off_c, 1, 65, 64
3, 155400, Note_on_c, 1, 60, 107
3, 155496, Note_off_c, 1, 60, 64
3, 155520, Note_on_c, 1, 58, 107
3, 155712, Note_off_c, 1, 58, 64
3, 155712, Note_off_c, 1, 62, 64
3, 155760, Note_on_c, 1, 60, 107
3, 155760, Note_on_c, 1, 57, 107
3, 155856, Note_off_c, 1, 57, 64
3, 155856, Note_off_c, 1, 60, 64
3, 155880, Note_on_c, 1, 55, 107
3, 155880, Note_on_c, 1, 58, 107
3, 156072, Note_off_c, 1, 58, 64
3, 156072, Note_off_c, 1, 55, 64
3, 156120, Note_on_c, 1, 57, 107
3, 156120, Note_on_c, 1, 53, 107
3, 156216, Note_off_c, 1, 53, 64
3, 156216, Note_off_c, 1, 57, 64
3, 156240, Note_on_c, 1, 55, 107
3, 156240, Note_on_c, 1, 52, 107
3, 156432, Note_off_c, 1, 52, 64
3, 156480, Note_on_c, 1, 50, 107
3, 156576, Note_off_c, 1, 50, 64
3, 156600, Note_on_c, 1, 49, 107
3, 156648, Note_off_c, 1, 55, 64
3, 156660, Note_on_c, 1, 55, 107
3, 156708, Note_off_c, 1, 55, 64
3, 156720, Note_on_c, 1, 53, 107
3, 156768, Note_off_c, 1, 53, 64
3, 156780, Note_on_c, 1, 52, 107
3, 156828, Note_off_c, 1, 52, 64
3, 156840, Note_on_c, 1, 50, 107
3, 156888, Note_off_c, 1, 50, 64
3, 156888, Note_off_c, 1, 49, 64
3, 156900, Note_on_c, 1, 52, 107
3, 156948, Note_off_c, 1, 52, 64
3, 156960, Note_on_c, 1, 53, 107
3, 156960, Note_on_c, 1, 50, 107
3, 157152, Note_off_c, 1, 50, 64
3, 157200, Note_on_c, 1, 48, 107
3, 157296, Note_off_c, 1, 48, 64
3, 157320, Note_on_c, 1, 46, 107
3, 157416, Note_off_c, 1, 53, 64
3, 157440, Note_on_c, 1, 50, 107
3, 157536, Note_off_c, 1, 50, 64
3, 157560, Note_on_c, 1, 55, 107
3, 157608, Note_off_c, 1, 46, 64
3, 157656, Note_off_c, 1, 55, 64
3, 157680, Note_on_c, 1, 45, 107
3, 157776, Note_off_c, 1, 45, 64
3, 158820, Note_on_c, 1, 50, 107
3, 158868, Note_off_c, 1, 50, 64
3, 158880, Note_on_c, 1, 52, 107
3, 158928, Note_off_c, 1, 52, 64
3, 158940, Note_on_c, 1, 54, 107
3, 158988, Note_off_c, 1, 54, 64
3, 159000, Note_on_c, 1, 55, 107
3, 159048, Note_off_c, 1, 55, 64
3, 159060, Note_on_c, 1, 57, 107
3, 159108, Note_off_c, 1, 57, 64
3, 159120, Note_on_c, 1, 58, 107
3, 159210, Note_off_c, 1, 58, 64
3, 159240, Note_on_c, 1, 57, 107
3, 159330, Note_off_c, 1, 57, 64
3, 159360, Note_on_c, 1, 55, 107
3, 159450, Note_off_c, 1, 55, 64
3, 159480, Note_on_c, 1, 57, 107
3, 159570, Note_off_c, 1, 57, 64
3, 159600, Note_on_c, 1, 55, 107
3, 159690, Note_off_c, 1, 55, 64
3, 159720, Note_on_c, 1, 54, 107
3, 159810, Note_off_c, 1, 54, 64
3, 159840, Note_on_c, 1, 55, 107
3, 160248, Note_off_c, 1, 55, 64
3, 160260, Note_on_c, 1, 52, 107
3, 160308, Note_off_c, 1, 52, 64
3, 160320, Note_on_c, 1, 50, 107
3, 160368, Note_off_c, 1, 50, 64
3, 160380, Note_on_c, 1, 49, 107
3, 160428, Note_off_c, 1, 49, 64
3, 160440, Note_on_c, 1, 50, 107
3, 160488, Note_off_c, 1, 50, 64
3, 160500, Note_on_c, 1, 52, 107
3, 160548, Note_off_c, 1, 52, 64
3, 160560, Note_on_c, 1, 53, 107
3, 160920, Note_on_c, 1, 62, 107
3, 161376, Note_off_c, 1, 62, 64
3, 161400, Note_on_c, 1, 64, 107
3, 161472, Note_off_c, 1, 53, 64
3, 161496, Note_off_c, 1, 64, 64
3, 161520, Note_on_c, 1, 65, 107
3, 161520, Note_on_c, 1, 58, 107
3, 161616, Note_off_c, 1, 58, 64
3, 161616, Note_off_c, 1, 65, 64
3, 161640, Note_on_c, 1, 55, 107
3, 161640, Note_on_c, 1, 67, 107
3, 161736, Note_off_c, 1, 67, 64
3, 161760, Note_on_c, 1, 65, 107
3, 161832, Note_off_c, 1, 55, 64
3, 161856, Note_off_c, 1, 65, 64
3, 161880, Note_on_c, 1, 64, 107
3, 161880, Note_on_c, 1, 57, 107
3, 161976, Note_off_c, 1, 57, 64
3, 161976, Note_off_c, 1, 64, 64
3, 162000, Note_on_c, 1, 62, 107
3, 162000, Note_on_c, 1, 58, 107
3, 162288, Note_off_c, 1, 62, 64
3, 162360, Note_on_c, 1, 60, 107
3, 162576, Note_off_c, 1, 58, 64
3, 162720, Note_on_c, 1, 57, 107
3, 162936, Note_off_c, 1, 60, 64
3, 163080, Note_on_c, 1, 58, 107
3, 163368, Note_off_c, 1, 57, 64
3, 163440, Note_on_c, 1, 55, 107
3, 163632, Note_off_c, 1, 55, 64
3, 163680, Note_on_c, 1, 53, 107
3, 163776, Note_off_c, 1, 53, 64
3, 163800, Note_on_c, 1, 52, 107
3, 163848, Note_off_c, 1, 58, 64
3, 163860, Note_on_c, 1, 58, 107
3, 163908, Note_off_c, 1, 58, 64
3, 163920, Note_on_c, 1, 57, 107
3, 163968, Note_off_c, 1, 57, 64
3, 163980, Note_on_c, 1, 55, 107
3, 164028, Note_off_c, 1, 55, 64
3, 164040, Note_on_c, 1, 53, 107
3, 164088, Note_off_c, 1, 53, 64
3, 164088, Note_off_c, 1, 52, 64
3, 164100, Note_on_c, 1, 55, 107
3, 164148, Note_off_c, 1, 55, 64
3, 164160, Note_on_c, 1, 57, 107
3, 164160, Note_on_c, 1, 53, 107
3, 164448, Note_off_c, 1, 53, 64
3, 164520, Note_on_c, 1, 52, 107
3, 164808, Note_off_c, 1, 52, 64
3, 164880, Note_on_c, 1, 50, 107
3, 165168, Note_off_c, 1, 50, 64
3, 165240, Note_on_c, 1, 48, 107
3, 165528, Note_off_c, 1, 48, 64
3, 165528, Note_off_c, 1, 57, 64
3, 165600, Note_on_c, 1, 46, 107
3, 165600, Note_on_c, 1, 55, 107
3, 165888, Note_off_c, 1, 55, 64
3, 165888, Note_off_c, 1, 46, 64
3, 165960, Note_on_c, 1, 53, 107
3, 165960, Note_on_c, 1, 45, 107
3, 166248, Note_off_c, 1, 45, 64
3, 166248, Note_off_c, 1, 53, 64
3, 166320, Note_on_c, 1, 53, 107
3, 166320, Note_on_c, 1, 46, 107
3, 166368, Note_off_c, 1, 53, 64
3, 166380, Note_on_c, 1, 53, 107
3, 166428, Note_off_c, 1, 53, 64
3, 166440, Note_on_c, 1, 55, 107
3, 166488, Note_off_c, 1, 55, 64
3, 166500, Note_on_c, 1, 57, 107
3, 166512, Note_off_c, 1, 46, 64
3, 166548, Note_off_c, 1, 57, 64
3, 166560, Note_on_c, 1, 58, 107
3, 166608, Note_off_c, 1, 58, 64
3, 166620, Note_on_c, 1, 60, 107
3, 166668, Note_off_c, 1, 60, 64
3, 166680, Note_on_c, 1, 62, 107
3, 166770, Note_off_c, 1, 62, 64
3, 166800, Note_on_c, 1, 60, 107
3, 166890, Note_off_c, 1, 60, 64
3, 166920, Note_on_c, 1, 58, 107
3, 167010, Note_off_c, 1, 58, 64
3, 167040, Note_on_c, 1, 60, 107
3, 167130, Note_off_c, 1, 60, 64
3, 167160, Note_on_c, 1, 58, 107
3, 167250, Note_off_c, 1, 58, 64
3, 167280, Note_on_c, 1, 57, 107
3, 167370, Note_off_c, 1, 57, 64
3, 167400, Note_on_c, 1, 55, 107
3, 167460, Note_on_c, 1, 46, 107
3, 167508, Note_off_c, 1, 46, 64
3, 167520, Note_on_c, 1, 48, 107
3, 167568, Note_off_c, 1, 48, 64
3, 167580, Note_on_c, 1, 50, 107
3, 167592, Note_off_c, 1, 55, 64
3, 167628, Note_off_c, 1, 50, 64
3, 167640, Note_on_c, 1, 55, 107
3, 167640, Note_on_c, 1, 48, 107
3, 167688, Note_off_c, 1, 48, 64
3, 167700, Note_on_c, 1, 46, 107
3, 167736, Note_off_c, 1, 55, 64
3, 167748, Note_off_c, 1, 46, 64
3, 167760, Note_on_c, 1, 53, 107
3, 167760, Note_on_c, 1, 45, 107
3, 167856, Note_off_c, 1, 45, 64
3, 167880, Note_on_c, 1, 48, 107
3, 167976, Note_off_c, 1, 48, 64
3, 168000, Note_on_c, 1, 46, 107
3, 168096, Note_off_c, 1, 46, 64
3, 168120, Note_on_c, 1, 48, 107
3, 168233, Note_off_c, 1, 53, 64
3, 168240, Note_on_c, 1, 53, 107
3, 168353, Note_off_c, 1, 53, 64
3, 168360, Note_on_c, 1, 52, 107
3, 168408, Note_off_c, 1, 48, 64
3, 168473, Note_off_c, 1, 52, 64
3, 168480, Note_on_c, 1, 53, 107
3, 168480, Note_on_c, 1, 41, 107
3, 168528, Note_off_c, 1, 53, 64
3, 168540, Note_on_c, 1, 48, 107
3, 168576, Note_off_c, 1, 41, 64
3, 168588, Note_off_c, 1, 48, 64
3, 168600, Note_on_c, 1, 50, 107
3, 168648, Note_off_c, 1, 50, 64
3, 168660, Note_on_c, 1, 52, 107
3, 168708, Note_off_c, 1, 52, 64
3, 168720, Note_on_c, 1, 53, 107
3, 168768, Note_off_c, 1, 53, 64
3, 168780, Note_on_c, 1, 55, 107
3, 168828, Note_off_c, 1, 55, 64
3, 168840, Note_on_c, 1, 57, 107
3, 168930, Note_off_c, 1, 57, 64
3, 168960, Note_on_c, 1, 55, 107
3, 169050, Note_off_c, 1, 55, 64
3, 169080, Note_on_c, 1, 53, 107
3, 169170, Note_off_c, 1, 53, 64
3, 169200, Note_on_c, 1, 55, 107
3, 169290, Note_off_c, 1, 55, 64
3, 169320, Note_on_c, 1, 53, 107
3, 169410, Note_off_c, 1, 53, 64
3, 169440, Note_on_c, 1, 52, 107
3, 169530, Note_off_c, 1, 52, 64
3, 169560, Note_on_c, 1, 57, 107
3, 169560, Note_on_c, 1, 53, 107
3, 169968, Note_off_c, 1, 53, 64
3, 169980, Note_on_c, 1, 52, 107
3, 170028, Note_off_c, 1, 52, 64
3, 170040, Note_on_c, 1, 53, 107
3, 170064, Note_off_c, 1, 57, 64
3, 170100, Note_on_c, 1, 55, 107
3, 170148, Note_off_c, 1, 55, 64
3, 170160, Note_on_c, 1, 53, 107
3, 170184, Note_off_c, 1, 53, 64
3, 170220, Note_on_c, 1, 52, 107
3, 170256, Note_off_c, 1, 53, 64
3, 170268, Note_off_c, 1, 52, 64
3, 170280, Note_on_c, 1, 53, 107
3, 170280, Note_on_c, 1, 50, 107
3, 170376, Note_off_c, 1, 50, 64
3, 170376, Note_off_c, 1, 53, 64
3, 170400, Note_on_c, 1, 52, 107
3, 170400, Note_on_c, 1, 55, 107
3, 170496, Note_off_c, 1, 55, 64
3, 170496, Note_off_c, 1, 52, 64
3, 170520, Note_on_c, 1, 57, 107
3, 170520, Note_on_c, 1, 53, 107
3, 170616, Note_off_c, 1, 53, 64
3, 170616, Note_off_c, 1, 57, 64
3, 170640, Note_on_c, 1, 55, 107
3, 170640, Note_on_c, 1, 52, 107
3, 170928, Note_off_c, 1, 55, 64
3, 171060, Note_on_c, 1, 55, 107
3, 171096, Note_off_c, 1, 52, 64
3, 171120, Note_on_c, 1, 53, 107
3, 171156, Note_off_c, 1, 55, 64
3, 171180, Note_on_c, 1, 57, 107
3, 171216, Note_off_c, 1, 53, 64
3, 171240, Note_on_c, 1, 55, 107
3, 171276, Note_off_c, 1, 57, 64
3, 171300, Note_on_c, 1, 58, 107
3, 171336, Note_off_c, 1, 55, 64
3, 171348, Note_off_c, 1, 58, 64
3, 171360, Note_on_c, 1, 53, 107
3, 171420, Note_on_c, 1, 57, 107
3, 171456, Note_off_c, 1, 53, 64
3, 171480, Note_on_c, 1, 55, 107
3, 171516, Note_off_c, 1, 57, 64
3, 171540, Note_on_c, 1, 58, 107
3, 171576, Note_off_c, 1, 55, 64
3, 171600, Note_on_c, 1, 57, 107
3, 171636, Note_off_c, 1, 58, 64
3, 171660, Note_on_c, 1, 60, 107
3, 171696, Note_off_c, 1, 57, 64
3, 171708, Note_off_c, 1, 60, 64
3, 171720, Note_on_c, 1, 55, 107
3, 171780, Note_on_c, 1, 58, 107
3, 171816, Note_off_c, 1, 55, 64
3, 171840, Note_on_c, 1, 57, 107
3, 171876, Note_off_c, 1, 58, 64
3, 171900, Note_on_c, 1, 60, 107
3, 171936, Note_off_c, 1, 57, 64
3, 171960, Note_on_c, 1, 58, 107
3, 171996, Note_off_c, 1, 60, 64
3, 172020, Note_on_c, 1, 62, 107
3, 172056, Note_off_c, 1, 58, 64
3, 172068, Note_off_c, 1, 62, 64
3, 172080, Note_on_c, 1, 57, 107
3, 172080, Note_on_c, 1, 60, 107
3, 172272, Note_off_c, 1, 60, 64
3, 172272, Note_off_c, 1, 57, 64
3, 172320, Note_on_c, 1, 58, 107
3, 172320, Note_on_c, 1, 55, 107
3, 172416, Note_off_c, 1, 55, 64
3, 172416, Note_off_c, 1, 58, 64
3, 172440, Note_on_c, 1, 57, 107
3, 172440, Note_on_c, 1, 54, 107
3, 172728, Note_off_c, 1, 54, 64
3, 172728, Note_off_c, 1, 57, 64
3, 172800, Note_on_c, 1, 55, 107
3, 173088, Note_off_c, 1, 55, 64
3, 173220, Note_on_c, 1, 59, 107
3, 173268, Note_off_c, 1, 59, 64
3, 173280, Note_on_c, 1, 60, 107
3, 173328, Note_off_c, 1, 60, 64
3, 173340, Note_on_c, 1, 62, 107
3, 173388, Note_off_c, 1, 62, 64
3, 173400, Note_on_c, 1, 64, 107
3, 173448, Note_off_c, 1, 64, 64
3, 173460, Note_on_c, 1, 65, 107
3, 173508, Note_off_c, 1, 65, 64
3, 173520, Note_on_c, 1, 67, 107
3, 173610, Note_off_c, 1, 67, 64
3, 173640, Note_on_c, 1, 65, 107
3, 173730, Note_off_c, 1, 65, 64
3, 173760, Note_on_c, 1, 64, 107
3, 173850, Note_off_c, 1, 64, 64
3, 173880, Note_on_c, 1, 65, 107
3, 174000, Note_on_c, 1, 55, 107
3, 174072, Note_off_c, 1, 65, 64
3, 174120, Note_on_c, 1, 65, 107
3, 174192, Note_off_c, 1, 55, 64
3, 174216, Note_off_c, 1, 65, 64
3, 174240, Note_on_c, 1, 64, 107
3, 174360, Note_on_c, 1, 55, 107
3, 174432, Note_off_c, 1, 64, 64
3, 174480, Note_on_c, 1, 64, 107
3, 174552, Note_off_c, 1, 55, 64
3, 174576, Note_off_c, 1, 64, 64
3, 174600, Note_on_c, 1, 62, 107
3, 174720, Note_on_c, 1, 55, 107
3, 174792, Note_off_c, 1, 62, 64
3, 174840, Note_on_c, 1, 62, 107
3, 174912, Note_off_c, 1, 55, 64
3, 174936, Note_off_c, 1, 62, 64
3, 174960, Note_on_c, 1, 60, 107
3, 175080, Note_on_c, 1, 48, 107
3, 175152, Note_off_c, 1, 60, 64
3, 175200, Note_on_c, 1, 60, 107
3, 175272, Note_off_c, 1, 48, 64
3, 175296, Note_off_c, 1, 60, 64
3, 175320, Note_on_c, 1, 60, 107
3, 175440, Note_on_c, 1, 50, 107
3, 175512, Note_off_c, 1, 60, 64
3, 175560, Note_on_c, 1, 60, 107
3, 175632, Note_off_c, 1, 50, 64
3, 175656, Note_off_c, 1, 60, 64
3, 175680, Note_on_c, 1, 60, 107
3, 175800, Note_on_c, 1, 52, 107
3, 175872, Note_off_c, 1, 60, 64
3, 175920, Note_on_c, 1, 60, 107
3, 175992, Note_off_c, 1, 52, 64
3, 176016, Note_off_c, 1, 60, 64
3, 176040, Note_on_c, 1, 60, 107
3, 176160, Note_on_c, 1, 53, 107
3, 176232, Note_off_c, 1, 60, 64
3, 176280, Note_on_c, 1, 60, 107
3, 176352, Note_off_c, 1, 53, 64
3, 176376, Note_off_c, 1, 60, 64
3, 176400, Note_on_c, 1, 60, 107
3, 176520, Note_on_c, 1, 55, 107
3, 176592, Note_off_c, 1, 60, 64
3, 176640, Note_on_c, 1, 60, 107
3, 176712, Note_off_c, 1, 55, 64
3, 176736, Note_off_c, 1, 60, 64
3, 176760, Note_on_c, 1, 60, 107
3, 176880, Note_on_c, 1, 57, 107
3, 176952, Note_off_c, 1, 60, 64
3, 177000, Note_on_c, 1, 60, 107
3, 177072, Note_off_c, 1, 57, 64
3, 177096, Note_off_c, 1, 60, 64
3, 177120, Note_on_c, 1, 59, 107
3, 177120, Note_on_c, 1, 62, 107
3, 177216, Note_off_c, 1, 59, 64
3, 177240, Note_on_c, 1, 57, 107
3, 177336, Note_off_c, 1, 57, 64
3, 177360, Note_on_c, 1, 55, 107
3, 177408, Note_off_c, 1, 62, 64
3, 177456, Note_off_c, 1, 55, 64
3, 177480, Note_on_c, 1, 60, 107
3, 177480, Note_on_c, 1, 60, 107
3, 177576, Note_off_c, 1, 60, 64
3, 177600, Note_on_c, 1, 54, 107
3, 177696, Note_off_c, 1, 54, 64
3, 177720, Note_on_c, 1, 57, 107
3, 177768, Note_off_c, 1, 60, 64
3, 177816, Note_off_c, 1, 57, 64
3, 177840, Note_on_c, 1, 55, 107
3, 177840, Note_on_c, 1, 55, 107
3, 178032, Note_off_c, 1, 55, 64
3, 178080, Note_on_c, 1, 43, 107
3, 178128, Note_off_c, 1, 55, 64
3, 178176, Note_off_c, 1, 43, 64
3, 178200, Note_on_c, 1, 48, 107
3, 178248, Note_off_c, 1, 48, 64
3, 178260, Note_on_c, 1, 60, 107
3, 178308, Note_off_c, 1, 60, 64
3, 178320, Note_on_c, 1, 58, 107
3, 178368, Note_off_c, 1, 58, 64
3, 178380, Note_on_c, 1, 57, 107
3, 178428, Note_off_c, 1, 57, 64
3, 178440, Note_on_c, 1, 55, 107
3, 178488, Note_off_c, 1, 55, 64
3, 178500, Note_on_c, 1, 53, 107
3, 178548, Note_off_c, 1, 53, 64
3, 178560, Note_on_c, 1, 52, 107
3, 178650, Note_off_c, 1, 52, 64
3, 178680, Note_on_c, 1, 54, 107
3, 178770, Note_off_c, 1, 54, 64
3, 178800, Note_on_c, 1, 55, 107
3, 178890, Note_off_c, 1, 55, 64
3, 178920, Note_on_c, 1, 54, 107
3, 179010, Note_off_c, 1, 54, 64
3, 179040, Note_on_c, 1, 55, 107
3, 179130, Note_off_c, 1, 55, 64
3, 179160, Note_on_c, 1, 57, 107
3, 179250, Note_off_c, 1, 57, 64
3, 179280, Note_on_c, 1, 55, 107
3, 179472, Note_off_c, 1, 55, 64
3, 179640, Note_on_c, 1, 58, 107
3, 179688, Note_off_c, 1, 58, 64
3, 179700, Note_on_c, 1, 57, 107
3, 179748, Note_off_c, 1, 57, 64
3, 179760, Note_on_c, 1, 55, 107
3, 179808, Note_off_c, 1, 55, 64
3, 179820, Note_on_c, 1, 53, 107
3, 179868, Note_off_c, 1, 53, 64
3, 179880, Note_on_c, 1, 52, 107
3, 179928, Note_off_c, 1, 52, 64
3, 179940, Note_on_c, 1, 50, 107
3, 179988, Note_off_c, 1, 50, 64
3, 180000, Note_on_c, 1, 48, 107
3, 180288, Note_off_c, 1, 48, 64
3, 180360, Note_on_c, 1, 53, 107
3, 180552, Note_off_c, 1, 53, 64
3, 180720, Note_on_c, 1, 57, 107
3, 180768, Note_off_c, 1, 57, 64
3, 180780, Note_on_c, 1, 55, 107
3, 180828, Note_off_c, 1, 55, 64
3, 180840, Note_on_c, 1, 53, 107
3, 180888, Note_off_c, 1, 53, 64
3, 180900, Note_on_c, 1, 52, 107
3, 180948, Note_off_c, 1, 52, 64
3, 180960, Note_on_c, 1, 50, 107
3, 181008, Note_off_c, 1, 50, 64
3, 181020, Note_on_c, 1, 48, 107
3, 181068, Note_off_c, 1, 48, 64
3, 181080, Note_on_c, 1, 47, 107
3, 181368, Note_off_c, 1, 47, 64
3, 181500, Note_on_c, 1, 52, 107
3, 181548, Note_off_c, 1, 52, 64
3, 181560, Note_on_c, 1, 53, 107
3, 181608, Note_off_c, 1, 53, 64
3, 181620, Note_on_c, 1, 55, 107
3, 181668, Note_off_c, 1, 55, 64
3, 181680, Note_on_c, 1, 57, 107
3, 181728, Note_off_c, 1, 57, 64
3, 181740, Note_on_c, 1, 59, 107
3, 181788, Note_off_c, 1, 59, 64
3, 182040, Note_on_c, 1, 52, 107
3, 182136, Note_off_c, 1, 52, 64
3, 182160, Note_on_c, 1, 57, 107
3, 182352, Note_off_c, 1, 57, 64
3, 182400, Note_on_c, 1, 45, 107
3, 182496, Note_off_c, 1, 45, 64
3, 182520, Note_on_c, 1, 50, 107
3, 182616, Note_off_c, 1, 50, 64
3, 182640, Note_on_c, 1, 53, 107
3, 182736, Note_off_c, 1, 53, 64
3, 182760, Note_on_c, 1, 45, 107
3, 182850, Note_off_c, 1, 45, 64
3, 182880, Note_on_c, 1, 52, 107
3, 182976, Note_off_c, 1, 52, 64
3, 183000, Note_on_c, 1, 55, 107
3, 183096, Note_off_c, 1, 55, 64
3, 183120, Note_on_c, 1, 45, 107
3, 183210, Note_off_c, 1, 45, 64
3, 183240, Note_on_c, 1, 53, 107
3, 183336, Note_off_c, 1, 53, 64
3, 183360, Note_on_c, 1, 57, 107
3, 183456, Note_off_c, 1, 57, 64
3, 183480, Note_on_c, 1, 50, 107
3, 183570, Note_off_c, 1, 50, 64
3, 183600, Note_on_c, 1, 55, 107
3, 183696, Note_off_c, 1, 55, 64
3, 183720, Note_on_c, 1, 43, 107
3, 183816, Note_off_c, 1, 43, 64
3, 183840, Note_on_c, 1, 55, 107
3, 183930, Note_off_c, 1, 55, 64
3, 183960, Note_on_c, 1, 55, 107
3, 184056, Note_off_c, 1, 55, 64
3, 184080, Note_on_c, 1, 45, 107
3, 184176, Note_off_c, 1, 45, 64
3, 184200, Note_on_c, 1, 55, 107
3, 184290, Note_off_c, 1, 55, 64
3, 184320, Note_on_c, 1, 55, 107
3, 184416, Note_off_c, 1, 55, 64
3, 184440, Note_on_c, 1, 46, 107
3, 184536, Note_off_c, 1, 46, 64
3, 184560, Note_on_c, 1, 55, 107
3, 184650, Note_off_c, 1, 55, 64
3, 184680, Note_on_c, 1, 49, 107
3, 184776, Note_off_c, 1, 49, 64
3, 184800, Note_on_c, 1, 52, 107
3, 184896, Note_off_c, 1, 52, 64
3, 184920, Note_on_c, 1, 57, 107
3, 185016, Note_off_c, 1, 57, 64
3, 185040, Note_on_c, 1, 50, 107
3, 185136, Note_off_c, 1, 50, 64
3, 185160, Note_on_c, 1, 53, 107
3, 185256, Note_off_c, 1, 53, 64
3, 185280, Note_on_c, 1, 57, 107
3, 185376, Note_off_c, 1, 57, 64
3, 185400, Note_on_c, 1, 46, 107
3, 185496, Note_off_c, 1, 46, 64
3, 185520, Note_on_c, 1, 50, 107
3, 185616, Note_off_c, 1, 50, 64
3, 185640, Note_on_c, 1, 55, 107
3, 185736, Note_off_c, 1, 55, 64
3, 185760, Note_on_c, 1, 57, 107
3, 185808, Note_off_c, 1, 57, 64
3, 185820, Note_on_c, 1, 45, 107
3, 185868, Note_off_c, 1, 45, 64
3, 185880, Note_on_c, 1, 47, 107
3, 185928, Note_off_c, 1, 47, 64
3, 185940, Note_on_c, 1, 49, 107
3, 185988, Note_off_c, 1, 49, 64
3, 186000, Note_on_c, 1, 50, 107
3, 186048, Note_off_c, 1, 50, 64
3, 186060, Note_on_c, 1, 52, 107
3, 186108, Note_off_c, 1, 52, 64
3, 186120, Note_on_c, 1, 53, 107
3, 186210, Note_off_c, 1, 53, 64
3, 186240, Note_on_c, 1, 52, 107
3, 186330, Note_off_c, 1, 52, 64
3, 186360, Note_on_c, 1, 50, 107
3, 186450, Note_off_c, 1, 50, 64
3, 186480, Note_on_c, 1, 52, 107
3, 186570, Note_off_c, 1, 52, 64
3, 186600, Note_on_c, 1, 50, 107
3, 186690, Note_off_c, 1, 50, 64
3, 186720, Note_on_c, 1, 49, 107
3, 186810, Note_off_c, 1, 49, 64
3, 186840, Note_on_c, 1, 50, 107
3, 187248, Note_off_c, 1, 50, 64
3, 187260, Note_on_c, 1, 52, 107
3, 187308, Note_off_c, 1, 52, 64
3, 187320, Note_on_c, 1, 54, 107
3, 187368, Note_off_c, 1, 54, 64
3, 187380, Note_on_c, 1, 55, 107
3, 187428, Note_off_c, 1, 55, 64
3, 187440, Note_on_c, 1, 57, 107
3, 187488, Note_off_c, 1, 57, 64
3, 187500, Note_on_c, 1, 58, 107
3, 187548, Note_off_c, 1, 58, 64
3, 187560, Note_on_c, 1, 60, 107
3, 187608, Note_off_c, 1, 60, 64
3, 187620, Note_on_c, 1, 58, 107
3, 187668, Note_off_c, 1, 58, 64
3, 187680, Note_on_c, 1, 57, 107
3, 187728, Note_off_c, 1, 57, 64
3, 187740, Note_on_c, 1, 58, 107
3, 187788, Note_off_c, 1, 58, 64
3, 187800, Note_on_c, 1, 60, 107
3, 187848, Note_off_c, 1, 60, 64
3, 187860, Note_on_c, 1, 57, 107
3, 187908, Note_off_c, 1, 57, 64
3, 187920, Note_on_c, 1, 59, 107
3, 187968, Note_off_c, 1, 59, 64
3, 187980, Note_on_c, 1, 55, 107
3, 188028, Note_off_c, 1, 55, 64
3, 188040, Note_on_c, 1, 57, 107
3, 188088, Note_off_c, 1, 57, 64
3, 188100, Note_on_c, 1, 59, 107
3, 188148, Note_off_c, 1, 59, 64
3, 188160, Note_on_c, 1, 60, 107
3, 188208, Note_off_c, 1, 60, 64
3, 188220, Note_on_c, 1, 62, 107
3, 188268, Note_off_c, 1, 62, 64
3, 188280, Note_on_c, 1, 84, 107
3, 188370, Note_off_c, 1, 84, 64
3, 188400, Note_on_c, 1, 62, 107
3, 188490, Note_off_c, 1, 62, 64
3, 188520, Note_on_c, 1, 60, 107
3, 188610, Note_off_c, 1, 60, 64
3, 188640, Note_on_c, 1, 62, 107
3, 188730, Note_off_c, 1, 62, 64
3, 188760, Note_on_c, 1, 60, 107
3, 188850, Note_off_c, 1, 60, 64
3, 188880, Note_on_c, 1, 59, 107
3, 188970, Note_off_c, 1, 59, 64
3, 191160, Note_on_c, 1, 64, 107
3, 191208, Note_off_c, 1, 64, 64
3, 191220, Note_on_c, 1, 60, 107
3, 191268, Note_off_c, 1, 60, 64
3, 191280, Note_on_c, 1, 58, 107
3, 191328, Note_off_c, 1, 58, 64
3, 191340, Note_on_c, 1, 57, 107
3, 191388, Note_off_c, 1, 57, 64
3, 191400, Note_on_c, 1, 58, 107
3, 191448, Note_off_c, 1, 58, 64
3, 191460, Note_on_c, 1, 60, 107
3, 191508, Note_off_c, 1, 60, 64
3, 191520, Note_on_c, 1, 62, 107
3, 191568, Note_off_c, 1, 62, 64
3, 191580, Note_on_c, 1, 58, 107
3, 191628, Note_off_c, 1, 58, 64
3, 191640, Note_on_c, 1, 57, 107
3, 191688, Note_off_c, 1, 57, 64
3, 191700, Note_on_c, 1, 55, 107
3, 191748, Note_off_c, 1, 55, 64
3, 191760, Note_on_c, 1, 57, 107
3, 191808, Note_off_c, 1, 57, 64
3, 191820, Note_on_c, 1, 58, 107
3, 191868, Note_off_c, 1, 58, 64
3, 191880, Note_on_c, 1, 60, 107
3, 191928, Note_off_c, 1, 60, 64
3, 191940, Note_on_c, 1, 57, 107
3, 191988, Note_off_c, 1, 57, 64
3, 192000, Note_on_c, 1, 55, 107
3, 192048, Note_off_c, 1, 55, 64
3, 192060, Note_on_c, 1, 53, 107
3, 192108, Note_off_c, 1, 53, 64
3, 192120, Note_on_c, 1, 55, 107
3, 192168, Note_off_c, 1, 55, 64
3, 192180, Note_on_c, 1, 57, 107
3, 192228, Note_off_c, 1, 57, 64
3, 192240, Note_on_c, 1, 58, 107
3, 192528, Note_off_c, 1, 58, 64
3, 192960, Note_on_c, 1, 57, 107
3, 193248, Note_off_c, 1, 57, 64
3, 193320, Note_on_c, 1, 55, 107
3, 193608, Note_off_c, 1, 55, 64
3, 194040, Note_on_c, 1, 56, 107
3, 194328, Note_off_c, 1, 56, 64
3, 194400, Note_on_c, 1, 57, 107
3, 194448, Note_off_c, 1, 57, 64
3, 194460, Note_on_c, 1, 45, 107
3, 194508, Note_off_c, 1, 45, 64
3, 194520, Note_on_c, 1, 47, 107
3, 194568, Note_off_c, 1, 47, 64
3, 194580, Note_on_c, 1, 49, 107
3, 194628, Note_off_c, 1, 49, 64
3, 194640, Note_on_c, 1, 50, 107
3, 194688, Note_off_c, 1, 50, 64
3, 194700, Note_on_c, 1, 52, 107
3, 194748, Note_off_c, 1, 52, 64
3, 194760, Note_on_c, 1, 53, 107
3, 194850, Note_off_c, 1, 53, 64
3, 194880, Note_on_c, 1, 52, 107
3, 194970, Note_off_c, 1, 52, 64
3, 195000, Note_on_c, 1, 50, 107
3, 195090, Note_off_c, 1, 50, 64
3, 195120, Note_on_c, 1, 52, 107
3, 195210, Note_off_c, 1, 52, 64
3, 195240, Note_on_c, 1, 50, 107
3, 195330, Note_off_c, 1, 50, 64
3, 195360, Note_on_c, 1, 49, 107
3, 195450, Note_off_c, 1, 49, 64
3, 195480, Note_on_c, 1, 50, 107
3, 195576, Note_off_c, 1, 50, 64
3, 195600, Note_on_c, 1, 55, 107
3, 195696, Note_off_c, 1, 55, 64
3, 195720, Note_on_c, 1, 46, 107
3, 195810, Note_off_c, 1, 46, 64
3, 195840, Note_on_c, 1, 48, 107
3, 195936, Note_off_c, 1, 48, 64
3, 195960, Note_on_c, 1, 53, 107
3, 196056, Note_off_c, 1, 53, 64
3, 196080, Note_on_c, 1, 45, 107
3, 196170, Note_off_c, 1, 45, 64
3, 196200, Note_on_c, 1, 46, 107
3, 196296, Note_off_c, 1, 46, 64
3, 196320, Note_on_c, 1, 52, 107
3, 196416, Note_off_c, 1, 52, 64
3, 196440, Note_on_c, 1, 43, 107
3, 196530, Note_off_c, 1, 43, 64
3, 196560, Note_on_c, 1, 45, 107
3, 196656, Note_off_c, 1, 45, 64
3, 196680, Note_on_c, 1, 50, 107
3, 196776, Note_off_c, 1, 50, 64
3, 196800, Note_on_c, 1, 41, 107
3, 196890, Note_off_c, 1, 41, 64
3, 196920, Note_on_c, 1, 43, 107
3, 197016, Note_off_c, 1, 43, 64
3, 197040, Note_on_c, 1, 48, 107
3, 197136, Note_off_c, 1, 48, 64
3, 197160, Note_on_c, 1, 40, 107
3, 197250, Note_off_c, 1, 40, 64
3, 197280, Note_on_c, 1, 41, 107
3, 197376, Note_off_c, 1, 41, 64
3, 197400, Note_on_c, 1, 46, 107
3, 197496, Note_off_c, 1, 46, 64
3, 197520, Note_on_c, 1, 38, 107
3, 197610, Note_off_c, 1, 38, 64
3, 197640, Note_on_c, 1, 40, 107
3, 197688, Note_off_c, 1, 40, 64
3, 197700, Note_on_c, 1, 45, 107
3, 197748, Note_off_c, 1, 45, 64
3, 197760, Note_on_c, 1, 43, 107
3, 197808, Note_off_c, 1, 43, 64
3, 197820, Note_on_c, 1, 41, 107
3, 197868, Note_off_c, 1, 41, 64
3, 197880, Note_on_c, 1, 40, 107
3, 197928, Note_off_c, 1, 40, 64
3, 197940, Note_on_c, 1, 38, 107
3, 197988, Note_off_c, 1, 38, 64
3, 198000, Note_on_c, 1, 37, 107
3, 198090, Note_off_c, 1, 37, 64
3, 198120, Note_on_c, 1, 38, 107
3, 198210, Note_off_c, 1, 38, 64
3, 198240, Note_on_c, 1, 40, 107
3, 198330, Note_off_c, 1, 40, 64
3, 198360, Note_on_c, 1, 38, 107
3, 198450, Note_off_c, 1, 38, 64
3, 198480, Note_on_c, 1, 40, 107
3, 198570, Note_off_c, 1, 40, 64
3, 198600, Note_on_c, 1, 41, 107
3, 198690, Note_off_c, 1, 41, 64
3, 198720, Note_on_c, 1, 40, 107
3, 198810, Note_off_c, 1, 40, 64
3, 198840, Note_on_c, 1, 41, 107
3, 198930, Note_off_c, 1, 41, 64
3, 198960, Note_on_c, 1, 43, 107
3, 199050, Note_off_c, 1, 43, 64
3, 199080, Note_on_c, 1, 41, 107
3, 199170, Note_off_c, 1, 41, 64
3, 199200, Note_on_c, 1, 43, 107
3, 199290, Note_off_c, 1, 43, 64
3, 199320, Note_on_c, 1, 45, 107
3, 199410, Note_off_c, 1, 45, 64
3, 199440, Note_on_c, 1, 43, 107
3, 199530, Note_off_c, 1, 43, 64
3, 199560, Note_on_c, 1, 45, 107
3, 199650, Note_off_c, 1, 45, 64
3, 199680, Note_on_c, 1, 46, 107
3, 199770, Note_off_c, 1, 46, 64
3, 199800, Note_on_c, 1, 45, 107
3, 199890, Note_off_c, 1, 45, 64
3, 199920, Note_on_c, 1, 47, 107
3, 200010, Note_off_c, 1, 47, 64
3, 200040, Note_on_c, 1, 48, 107
3, 200130, Note_off_c, 1, 48, 64
3, 200160, Note_on_c, 1, 47, 107
3, 200250, Note_off_c, 1, 47, 64
3, 200280, Note_on_c, 1, 49, 107
3, 200370, Note_off_c, 1, 49, 64
3, 200400, Note_on_c, 1, 50, 107
3, 200490, Note_off_c, 1, 50, 64
3, 200520, Note_on_c, 1, 49, 107
3, 200568, Note_off_c, 1, 49, 64
3, 200580, Note_on_c, 1, 53, 107
3, 200628, Note_off_c, 1, 53, 64
3, 200640, Note_on_c, 1, 52, 107
3, 200688, Note_off_c, 1, 52, 64
3, 200700, Note_on_c, 1, 50, 107
3, 200748, Note_off_c, 1, 50, 64
3, 200760, Note_on_c, 1, 49, 107
3, 200808, Note_off_c, 1, 49, 64
3, 200820, Note_on_c, 1, 47, 107
3, 200868, Note_off_c, 1, 47, 64
3, 200880, Note_on_c, 1, 45, 107
3, 200976, Note_off_c, 1, 45, 64
3, 201000, Note_on_c, 1, 57, 107
3, 201096, Note_off_c, 1, 57, 64
3, 201120, Note_on_c, 1, 45, 107
3, 201210, Note_off_c, 1, 45, 64
3, 201240, Note_on_c, 1, 45, 107
3, 201336, Note_off_c, 1, 45, 64
3, 201360, Note_on_c, 1, 57, 107
3, 201456, Note_off_c, 1, 57, 64
3, 201480, Note_on_c, 1, 45, 107
3, 201570, Note_off_c, 1, 45, 64
3, 201600, Note_on_c, 1, 45, 107
3, 201696, Note_off_c, 1, 45, 64
3, 201720, Note_on_c, 1, 57, 107
3, 201816, Note_off_c, 1, 57, 64
3, 201840, Note_on_c, 1, 45, 107
3, 201930, Note_off_c, 1, 45, 64
3, 201960, Note_on_c, 1, 45, 107
3, 202056, Note_off_c, 1, 45, 64
3, 202080, Note_on_c, 1, 57, 107
3, 202176, Note_off_c, 1, 57, 64
3, 202200, Note_on_c, 1, 45, 107
3, 202290, Note_off_c, 1, 45, 64
3, 202320, Note_on_c, 1, 45, 107
3, 202416, Note_off_c, 1, 45, 64
3, 202440, Note_on_c, 1, 57, 107
3, 202536, Note_off_c, 1, 57, 64
3, 202560, Note_on_c, 1, 45, 107
3, 202650, Note_off_c, 1, 45, 64
3, 202680, Note_on_c, 1, 43, 107
3, 202776, Note_off_c, 1, 43, 64
3, 202800, Note_on_c, 1, 55, 107
3, 202896, Note_off_c, 1, 55, 64
3, 202920, Note_on_c, 1, 43, 107
3, 203010, Note_off_c, 1, 43, 64
3, 203040, Note_on_c, 1, 41, 107
3, 203040, Note_on_c, 1, 41, 110
3, 203088, Note_off_c, 1, 41, 64
3, 203100, Note_on_c, 1, 49, 107
3, 203148, Note_off_c, 1, 49, 64
3, 203160, Note_on_c, 1, 50, 107
3, 203208, Note_off_c, 1, 50, 64
3, 203220, Note_on_c, 1, 53, 107
3, 203232, Note_off_c, 1, 41, 64
3, 203268, Note_off_c, 1, 53, 64
3, 203280, Note_on_c, 1, 49, 107
3, 203328, Note_off_c, 1, 49, 64
3, 203340, Note_on_c, 1, 50, 107
3, 203388, Note_off_c, 1, 50, 64
3, 203400, Note_on_c, 1, 43, 110
3, 203400, Note_on_c, 1, 43, 107
3, 203448, Note_off_c, 1, 43, 64
3, 203460, Note_on_c, 1, 49, 107
3, 203508, Note_off_c, 1, 49, 64
3, 203520, Note_on_c, 1, 50, 107
3, 203568, Note_off_c, 1, 50, 64
3, 203580, Note_on_c, 1, 53, 107
3, 203592, Note_off_c, 1, 43, 64
3, 203628, Note_off_c, 1, 53, 64
3, 203640, Note_on_c, 1, 49, 107
3, 203688, Note_off_c, 1, 49, 64
3, 203700, Note_on_c, 1, 50, 107
3, 203748, Note_off_c, 1, 50, 64
3, 203760, Note_on_c, 1, 45, 107
3, 203760, Note_on_c, 1, 45, 110
3, 203808, Note_off_c, 1, 45, 64
3, 203820, Note_on_c, 1, 49, 107
3, 203868, Note_off_c, 1, 49, 64
3, 203880, Note_on_c, 1, 50, 107
3, 203928, Note_off_c, 1, 50, 64
3, 203940, Note_on_c, 1, 53, 107
3, 203952, Note_off_c, 1, 45, 64
3, 203988, Note_off_c, 1, 53, 64
3, 204000, Note_on_c, 1, 49, 107
3, 204048, Note_off_c, 1, 49, 64
3, 204060, Note_on_c, 1, 50, 107
3, 204108, Note_off_c, 1, 50, 64
3, 204120, Note_on_c, 1, 46, 107
3, 204120, Note_on_c, 1, 46, 110
3, 204168, Note_off_c, 1, 46, 64
3, 204180, Note_on_c, 1, 49, 107
3, 204228, Note_off_c, 1, 49, 64
3, 204240, Note_on_c, 1, 50, 107
3, 204288, Note_off_c, 1, 50, 64
3, 204300, Note_on_c, 1, 53, 107
3, 204312, Note_off_c, 1, 46, 64
3, 204348, Note_off_c, 1, 53, 64
3, 204360, Note_on_c, 1, 49, 107
3, 204408, Note_off_c, 1, 49, 64
3, 204420, Note_on_c, 1, 50, 107
3, 204468, Note_off_c, 1, 50, 64
3, 204480, Note_on_c, 1, 47, 107
3, 204480, Note_on_c, 1, 47, 105
3, 204528, Note_off_c, 1, 47, 64
3, 204540, Note_on_c, 1, 49, 107
3, 204588, Note_off_c, 1, 49, 64
3, 204600, Note_on_c, 1, 50, 107
3, 204648, Note_off_c, 1, 50, 64
3, 204660, Note_on_c, 1, 53, 107
3, 204708, Note_off_c, 1, 53, 64
3, 204720, Note_off_c, 1, 47, 64
3, 204720, Note_on_c, 1, 49, 107
3, 204768, Note_off_c, 1, 49, 64
3, 204780, Note_on_c, 1, 50, 107
3, 204828, Note_off_c, 1, 50, 64
3, 204840, Note_on_c, 1, 45, 107
3, 204840, Note_on_c, 1, 45, 110
3, 204888, Note_off_c, 1, 45, 64
3, 204900, Note_on_c, 1, 49, 107
3, 204948, Note_off_c, 1, 49, 64
3, 204960, Note_on_c, 1, 50, 107
3, 205008, Note_off_c, 1, 50, 64
3, 205020, Note_on_c, 1, 53, 107
3, 205065, Note_off_c, 1, 45, 64
3, 205068, Note_off_c, 1, 53, 64
3, 205080, Note_on_c, 1, 49, 107
3, 205128, Note_off_c, 1, 49, 64
3, 205140, Note_on_c, 1, 50, 107
3, 205188, Note_off_c, 1, 50, 64
3, 205200, Note_on_c, 1, 44, 107
3, 205488, Note_off_c, 1, 44, 64
3, 205920, Note_on_c, 1, 43, 107
3, 206208, Note_off_c, 1, 43, 64
3, 206280, Note_on_c, 1, 41, 107
3, 206328, Note_off_c, 1, 41, 64
3, 206340, Note_on_c, 1, 45, 107
3, 206388, Note_off_c, 1, 45, 64
3, 206400, Note_on_c, 1, 47, 107
3, 206448, Note_off_c, 1, 47, 64
3, 206460, Note_on_c, 1, 49, 107
3, 206508, Note_off_c, 1, 49, 64
3, 206520, Note_on_c, 1, 50, 107
3, 206568, Note_off_c, 1, 50, 64
3, 206580, Note_on_c, 1, 52, 107
3, 206628, Note_off_c, 1, 52, 64
3, 206640, Note_on_c, 1, 53, 107
3, 206730, Note_off_c, 1, 53, 64
3, 206760, Note_on_c, 1, 52, 107
3, 206850, Note_off_c, 1, 52, 64
3, 206880, Note_on_c, 1, 50, 107
3, 206970, Note_off_c, 1, 50, 64
3, 207000, Note_on_c, 1, 52, 107
3, 207090, Note_off_c, 1, 52, 64
3, 207120, Note_on_c, 1, 50, 107
3, 207210, Note_off_c, 1, 50, 64
3, 207240, Note_on_c, 1, 49, 107
3, 207330, Note_off_c, 1, 49, 64
3, 207360, Note_on_c, 1, 53, 107
3, 207360, Note_on_c, 1, 50, 107
3, 207552, Note_off_c, 1, 50, 64
3, 207552, Note_off_c, 1, 53, 64
3, 207600, Note_on_c, 1, 52, 107
3, 207600, Note_on_c, 1, 48, 107
3, 207696, Note_off_c, 1, 48, 64
3, 207696, Note_off_c, 1, 52, 64
3, 207720, Note_on_c, 1, 50, 107
3, 207720, Note_on_c, 1, 46, 107
3, 207810, Note_off_c, 1, 50, 64
3, 207840, Note_on_c, 1, 52, 107
3, 207912, Note_off_c, 1, 46, 64
3, 207930, Note_off_c, 1, 52, 64
3, 207960, Note_on_c, 1, 53, 107
3, 207960, Note_on_c, 1, 45, 107
3, 208050, Note_off_c, 1, 53, 64
3, 208056, Note_off_c, 1, 45, 64
3, 208080, Note_on_c, 1, 43, 107
3, 208080, Note_on_c, 1, 55, 107
3, 208170, Note_off_c, 1, 55, 64
3, 208200, Note_on_c, 1, 53, 107
3, 208272, Note_off_c, 1, 43, 64
3, 208290, Note_off_c, 1, 53, 64
3, 208320, Note_on_c, 1, 45, 107
3, 208320, Note_on_c, 1, 52, 107
3, 208410, Note_off_c, 1, 52, 64
3, 208416, Note_off_c, 1, 45, 64
3, 208440, Note_on_c, 1, 50, 107
3, 208440, Note_on_c, 1, 41, 107
3, 208728, Note_off_c, 1, 41, 64
3, 208728, Note_off_c, 1, 50, 64
3, 209040, Note_on_c, 1, 50, 107
3, 209040, Note_on_c, 1, 43, 107
3, 209088, Note_off_c, 1, 50, 64
3, 209100, Note_on_c, 1, 52, 107
3, 209136, Note_off_c, 1, 43, 64
3, 209148, Note_off_c, 1, 52, 64
3, 209160, Note_on_c, 1, 45, 107
3, 209160, Note_on_c, 1, 53, 107
3, 209352, Note_off_c, 1, 53, 64
3, 209352, Note_off_c, 1, 45, 64
3, 209400, Note_on_c, 1, 45, 107
3, 209400, Note_on_c, 1, 52, 107
3, 209496, Note_off_c, 1, 52, 64
3, 209513, Note_off_c, 1, 45, 64
3, 209520, Note_on_c, 1, 38, 107
3, 209520, Note_on_c, 1, 50, 107
3, 209808, Note_off_c, 1, 50, 64
3, 209880, Note_off_c, 1, 38, 64
3, 209880, End_track
4, 0, Start_track
4, 0, Title_t, "Arr. Gary Bricault, (c) 1997"
4, 0, End_track
0, 0, End_of_file
