0, 0, Header, 1, 3, 384
1, 0, Start_track
1, 0, Time_signature, 4, 2, 24, 8
1, 0, Tempo, 500000
1, 159744, End_track
2, 0, Start_track
2, 0, Text_t, "harpsichord: John Sankey"
2, 0, Program_c, 0, 6
2, 0, Pitch_bend_c, 0, 8192
2, 0, Program_c, 1, 6
2, 0, Pitch_bend_c, 1, 7792
2, 0, Program_c, 2, 6
2, 0, Pitch_bend_c, 2, 7876
2, 0, Program_c, 3, 6
2, 0, Pitch_bend_c, 3, 7952
2, 0, Program_c, 4, 6
2, 0, Pitch_bend_c, 4, 7792
2, 0, Program_c, 5, 6
2, 0, Pitch_bend_c, 5, 8112
2, 0, Program_c, 6, 6
2, 0, Pitch_bend_c, 6, 7712
2, 0, Program_c, 7, 6
2, 0, Pitch_bend_c, 7, 8037
2, 0, Program_c, 8, 6
2, 0, Pitch_bend_c, 8, 7872
2, 0, Program_c, 10, 6
2, 0, Pitch_bend_c, 10, 7712
2, 0, Program_c, 11, 6
2, 0, Pitch_bend_c, 11, 8032
2, 0, Program_c, 12, 6
2, 0, Pitch_bend_c, 12, 7872
2, 0, Title_t, "Track 1"
2, 64, Note_on_c, 11, 58, 127
2, 142, Note_on_c, 5, 65, 127
2, 220, Note_on_c, 2, 74, 127
2, 262, Note_off_c, 5, 65, 127
2, 298, Note_on_c, 5, 65, 127
2, 344, Note_off_c, 11, 58, 127
2, 376, Note_on_c, 10, 57, 127
2, 418, Note_off_c, 5, 65, 127
2, 455, Note_on_c, 5, 65, 127
2, 500, Note_off_c, 2, 74, 127
2, 533, Note_on_c, 0, 72, 127
2, 575, Note_off_c, 5, 65, 127
2, 611, Note_on_c, 5, 65, 127
2, 656, Note_off_c, 10, 57, 127
2, 689, Note_on_c, 11, 58, 127
2, 731, Note_off_c, 5, 65, 127
2, 768, Note_on_c, 5, 65, 127
2, 813, Note_off_c, 0, 72, 127
2, 846, Note_on_c, 2, 74, 127
2, 888, Note_off_c, 5, 65, 127
2, 924, Note_on_c, 5, 65, 127
2, 969, Note_off_c, 11, 58, 127
2, 1002, Note_on_c, 5, 53, 127
2, 1044, Note_off_c, 5, 65, 127
2, 1081, Note_on_c, 10, 69, 127
2, 1126, Note_off_c, 2, 74, 127
2, 1146, Note_off_c, 10, 69, 127
2, 1159, Note_on_c, 5, 77, 127
2, 1237, Note_on_c, 10, 69, 127
2, 1282, Note_off_c, 5, 53, 127
2, 1302, Note_off_c, 10, 69, 127
2, 1315, Note_on_c, 7, 55, 127
2, 1394, Note_on_c, 2, 62, 127
2, 1439, Note_off_c, 5, 77, 127
2, 1472, Note_on_c, 11, 70, 127
2, 1514, Note_off_c, 2, 62, 127
2, 1550, Note_on_c, 2, 62, 127
2, 1595, Note_off_c, 7, 55, 127
2, 1628, Note_on_c, 5, 53, 127
2, 1670, Note_off_c, 2, 62, 127
2, 1707, Note_on_c, 2, 62, 127
2, 1752, Note_off_c, 11, 70, 127
2, 1785, Note_on_c, 10, 69, 127
2, 1827, Note_off_c, 2, 62, 127
2, 1863, Note_on_c, 2, 62, 127
2, 1908, Note_off_c, 5, 53, 127
2, 1941, Note_on_c, 7, 55, 127
2, 1983, Note_off_c, 2, 62, 127
2, 2020, Note_on_c, 2, 62, 127
2, 2065, Note_off_c, 10, 69, 127
2, 2098, Note_on_c, 11, 70, 127
2, 2140, Note_off_c, 2, 62, 127
2, 2176, Note_on_c, 2, 62, 127
2, 2221, Note_off_c, 7, 55, 127
2, 2254, Note_on_c, 2, 50, 127
2, 2296, Note_off_c, 2, 62, 127
2, 2332, Note_on_c, 5, 65, 127
2, 2378, Note_off_c, 11, 70, 127
2, 2397, Note_off_c, 5, 65, 127
2, 2411, Note_on_c, 2, 74, 127
2, 2489, Note_on_c, 5, 65, 127
2, 2534, Note_off_c, 2, 50, 127
2, 2554, Note_off_c, 5, 65, 127
2, 2567, Note_on_c, 3, 51, 127
2, 2645, Note_on_c, 11, 58, 127
2, 2691, Note_off_c, 2, 74, 127
2, 2724, Note_on_c, 7, 67, 127
2, 2765, Note_off_c, 11, 58, 127
2, 2802, Note_on_c, 11, 58, 127
2, 2847, Note_off_c, 3, 51, 127
2, 2880, Note_on_c, 2, 50, 127
2, 2922, Note_off_c, 11, 58, 127
2, 2958, Note_on_c, 11, 58, 127
2, 3004, Note_off_c, 7, 67, 127
2, 3037, Note_on_c, 5, 65, 127
2, 3078, Note_off_c, 11, 58, 127
2, 3115, Note_on_c, 11, 58, 127
2, 3160, Note_off_c, 2, 50, 127
2, 3193, Note_on_c, 3, 51, 127
2, 3235, Note_off_c, 11, 58, 127
2, 3271, Note_on_c, 11, 58, 127
2, 3317, Note_off_c, 5, 65, 127
2, 3350, Note_on_c, 7, 67, 127
2, 3391, Note_off_c, 11, 58, 127
2, 3428, Note_on_c, 11, 58, 127
2, 3473, Note_off_c, 3, 51, 127
2, 3506, Note_on_c, 11, 46, 127
2, 3548, Note_off_c, 11, 58, 127
2, 3584, Note_on_c, 2, 62, 127
2, 3630, Note_off_c, 7, 67, 127
2, 3649, Note_off_c, 2, 62, 127
2, 3663, Note_on_c, 11, 70, 127
2, 3741, Note_on_c, 2, 62, 127
2, 3786, Note_off_c, 11, 46, 127
2, 3806, Note_off_c, 2, 62, 127
2, 3819, Note_on_c, 0, 48, 127
2, 3897, Note_on_c, 2, 62, 127
2, 3943, Note_off_c, 11, 70, 127
2, 3976, Note_on_c, 3, 63, 127
2, 3987, Note_off_c, 2, 62, 127
2, 4054, Note_on_c, 2, 62, 127
2, 4066, Note_off_c, 3, 63, 127
2, 4067, Note_off_c, 0, 48, 127
2, 4132, Note_on_c, 11, 46, 127
2, 4197, Note_off_c, 2, 62, 127
2, 4210, Note_on_c, 2, 62, 127
2, 4288, Note_on_c, 7, 67, 127
2, 4330, Note_off_c, 2, 62, 127
2, 4342, Note_off_c, 11, 46, 127
2, 4367, Note_on_c, 2, 62, 127
2, 4445, Note_on_c, 10, 45, 127
2, 4487, Note_off_c, 2, 62, 127
2, 4523, Note_on_c, 0, 60, 127
2, 4568, Note_off_c, 7, 67, 127
2, 4601, Note_on_c, 5, 65, 127
2, 4623, Note_off_c, 0, 60, 127
2, 4655, Note_off_c, 10, 45, 127
2, 4680, Note_on_c, 0, 60, 127
2, 4758, Note_on_c, 5, 41, 127
2, 4780, Note_off_c, 0, 60, 127
2, 4836, Note_on_c, 10, 57, 127
2, 4881, Note_off_c, 5, 65, 127
2, 4898, Note_off_c, 5, 41, 127
2, 4901, Note_off_c, 10, 57, 127
2, 4914, Note_on_c, 3, 63, 127
2, 4993, Note_on_c, 10, 57, 127
2, 5058, Note_off_c, 10, 57, 127
2, 5071, Note_on_c, 11, 46, 127
2, 5124, Note_off_c, 3, 63, 127
2, 5188, Note_on_c, 2, 62, 127
2, 5253, Note_off_c, 2, 62, 127
2, 5266, Note_on_c, 5, 65, 127
2, 5345, Note_on_c, 2, 62, 127
2, 5351, Note_off_c, 11, 46, 127
2, 5410, Note_off_c, 2, 62, 127
2, 5421, Note_on_c, 5, 53, 127
2, 5476, Note_off_c, 5, 65, 127
2, 5491, Note_off_c, 5, 53, 127
2, 5496, Note_on_c, 11, 58, 127
2, 5561, Note_off_c, 11, 58, 127
2, 5569, Note_on_c, 2, 62, 127
2, 5639, Note_off_c, 2, 62, 127
2, 5643, Note_on_c, 11, 58, 127
2, 5708, Note_off_c, 11, 58, 127
2, 5716, Note_on_c, 2, 50, 127
2, 5786, Note_off_c, 2, 50, 127
2, 5789, Note_on_c, 5, 53, 127
2, 5854, Note_off_c, 5, 53, 127
2, 5862, Note_on_c, 11, 58, 127
2, 5932, Note_off_c, 11, 58, 127
2, 5936, Note_on_c, 5, 53, 127
2, 6001, Note_off_c, 5, 53, 127
2, 6009, Note_on_c, 11, 46, 127
2, 6082, Note_on_c, 2, 50, 127
2, 6099, Note_off_c, 11, 46, 127
2, 6147, Note_off_c, 2, 50, 127
2, 6155, Note_on_c, 5, 53, 127
2, 6225, Note_off_c, 5, 53, 127
2, 6234, Note_on_c, 2, 50, 127
2, 6299, Note_off_c, 2, 50, 127
2, 6311, Note_on_c, 7, 43, 127
2, 6479, Note_on_c, 2, 50, 127
2, 6544, Note_off_c, 2, 50, 127
2, 6557, Note_on_c, 4, 52, 127
2, 6622, Note_off_c, 4, 52, 127
2, 6636, Note_on_c, 6, 54, 127
2, 6641, Note_off_c, 7, 43, 127
2, 6701, Note_off_c, 6, 54, 127
2, 6714, Note_on_c, 7, 55, 127
2, 6779, Note_off_c, 7, 55, 127
2, 6792, Note_on_c, 10, 57, 127
2, 6857, Note_off_c, 10, 57, 127
2, 6870, Note_on_c, 11, 58, 127
2, 6935, Note_off_c, 11, 58, 127
2, 6949, Note_on_c, 0, 60, 127
2, 7014, Note_off_c, 0, 60, 127
2, 7027, Note_on_c, 11, 58, 127
2, 7092, Note_off_c, 11, 58, 127
2, 7105, Note_on_c, 7, 55, 127
2, 7170, Note_off_c, 7, 55, 127
2, 7183, Note_on_c, 10, 57, 127
2, 7248, Note_off_c, 10, 57, 127
2, 7262, Note_on_c, 11, 58, 127
2, 7327, Note_off_c, 11, 58, 127
2, 7340, Note_on_c, 0, 60, 127
2, 7405, Note_off_c, 0, 60, 127
2, 7418, Note_on_c, 2, 62, 127
2, 7483, Note_off_c, 2, 62, 127
2, 7496, Note_on_c, 4, 64, 127
2, 7561, Note_off_c, 4, 64, 127
2, 7575, Note_on_c, 5, 65, 127
2, 7640, Note_off_c, 5, 65, 127
2, 7653, Note_on_c, 0, 60, 127
2, 7731, Note_on_c, 4, 64, 127
2, 7796, Note_off_c, 4, 64, 127
2, 7809, Note_on_c, 7, 67, 127
2, 7874, Note_off_c, 7, 67, 127
2, 7888, Note_on_c, 4, 64, 127
2, 7933, Note_off_c, 0, 60, 127
2, 7953, Note_off_c, 4, 64, 127
2, 7966, Note_on_c, 7, 55, 127
2, 8044, Note_on_c, 0, 60, 127
2, 8109, Note_off_c, 0, 60, 127
2, 8122, Note_on_c, 4, 64, 127
2, 8187, Note_off_c, 4, 64, 127
2, 8200, Note_on_c, 0, 60, 127
2, 8246, Note_off_c, 7, 55, 127
2, 8265, Note_off_c, 0, 60, 127
2, 8279, Note_on_c, 4, 52, 127
2, 8357, Note_on_c, 7, 55, 127
2, 8422, Note_off_c, 7, 55, 127
2, 8435, Note_on_c, 0, 60, 127
2, 8500, Note_off_c, 0, 60, 127
2, 8513, Note_on_c, 7, 55, 127
2, 8559, Note_off_c, 4, 52, 127
2, 8578, Note_off_c, 7, 55, 127
2, 8592, Note_on_c, 0, 48, 127
2, 8670, Note_on_c, 4, 52, 127
2, 8735, Note_off_c, 4, 52, 127
2, 8748, Note_on_c, 7, 55, 127
2, 8813, Note_off_c, 7, 55, 127
2, 8826, Note_on_c, 4, 52, 127
2, 8872, Note_off_c, 0, 48, 127
2, 8891, Note_off_c, 4, 52, 127
2, 8905, Note_on_c, 10, 45, 127
2, 9038, Note_on_c, 4, 52, 127
2, 9103, Note_off_c, 4, 52, 127
2, 9116, Note_on_c, 5, 53, 127
2, 9181, Note_off_c, 5, 53, 127
2, 9194, Note_on_c, 7, 55, 127
2, 9255, Note_off_c, 10, 45, 127
2, 9259, Note_off_c, 7, 55, 127
2, 9273, Note_on_c, 10, 57, 127
2, 9338, Note_off_c, 10, 57, 127
2, 9351, Note_on_c, 12, 59, 127
2, 9416, Note_off_c, 12, 59, 127
2, 9429, Note_on_c, 0, 60, 127
2, 9494, Note_off_c, 0, 60, 127
2, 9507, Note_on_c, 2, 62, 127
2, 9572, Note_off_c, 2, 62, 127
2, 9586, Note_on_c, 0, 60, 127
2, 9651, Note_off_c, 0, 60, 127
2, 9664, Note_on_c, 10, 57, 127
2, 9729, Note_off_c, 10, 57, 127
2, 9742, Note_on_c, 12, 59, 127
2, 9807, Note_off_c, 12, 59, 127
2, 9820, Note_on_c, 0, 60, 127
2, 9885, Note_off_c, 0, 60, 127
2, 9899, Note_on_c, 2, 62, 127
2, 9964, Note_off_c, 2, 62, 127
2, 9977, Note_on_c, 4, 64, 127
2, 10042, Note_off_c, 4, 64, 127
2, 10055, Note_on_c, 5, 65, 127
2, 10120, Note_off_c, 5, 65, 127
2, 10133, Note_on_c, 7, 67, 127
2, 10198, Note_off_c, 7, 67, 127
2, 10212, Note_on_c, 2, 62, 127
2, 10290, Note_on_c, 5, 65, 127
2, 10355, Note_off_c, 5, 65, 127
2, 10368, Note_on_c, 10, 69, 127
2, 10446, Note_on_c, 5, 65, 127
2, 10458, Note_off_c, 10, 69, 127
2, 10492, Note_off_c, 2, 62, 127
2, 10511, Note_off_c, 5, 65, 127
2, 10525, Note_on_c, 10, 57, 127
2, 10603, Note_on_c, 2, 62, 127
2, 10668, Note_off_c, 2, 62, 127
2, 10681, Note_on_c, 5, 65, 127
2, 10759, Note_on_c, 2, 62, 127
2, 10771, Note_off_c, 5, 65, 127
2, 10805, Note_off_c, 10, 57, 127
2, 10824, Note_off_c, 2, 62, 127
2, 10838, Note_on_c, 5, 53, 127
2, 10916, Note_on_c, 10, 57, 127
2, 10981, Note_off_c, 10, 57, 127
2, 10994, Note_on_c, 2, 62, 127
2, 11072, Note_on_c, 10, 57, 127
2, 11084, Note_off_c, 2, 62, 127
2, 11118, Note_off_c, 5, 53, 127
2, 11137, Note_off_c, 10, 57, 127
2, 11150, Note_on_c, 2, 50, 127
2, 11229, Note_on_c, 5, 53, 127
2, 11294, Note_off_c, 5, 53, 127
2, 11307, Note_on_c, 10, 57, 127
2, 11360, Note_off_c, 2, 50, 127
2, 11385, Note_on_c, 5, 53, 127
2, 11397, Note_off_c, 10, 57, 127
2, 11450, Note_off_c, 5, 53, 127
2, 11463, Note_on_c, 11, 46, 127
2, 11542, Note_on_c, 5, 53, 127
2, 11607, Note_off_c, 5, 53, 127
2, 11620, Note_on_c, 2, 62, 127
2, 11698, Note_on_c, 5, 53, 127
2, 11743, Note_off_c, 11, 46, 127
2, 11763, Note_off_c, 5, 53, 127
2, 11776, Note_on_c, 7, 43, 127
2, 11790, Note_off_c, 2, 62, 127
2, 11855, Note_on_c, 5, 53, 127
2, 11920, Note_off_c, 5, 53, 127
2, 11933, Note_on_c, 11, 58, 127
2, 12011, Note_on_c, 5, 53, 127
2, 12023, Note_off_c, 11, 58, 127
2, 12056, Note_off_c, 7, 43, 127
2, 12076, Note_off_c, 5, 53, 127
2, 12089, Note_on_c, 10, 45, 127
2, 12168, Note_on_c, 5, 53, 127
2, 12233, Note_off_c, 5, 53, 127
2, 12246, Note_on_c, 0, 60, 127
2, 12324, Note_on_c, 5, 53, 127
2, 12336, Note_off_c, 0, 60, 127
2, 12369, Note_off_c, 10, 45, 127
2, 12389, Note_off_c, 5, 53, 127
2, 12402, Note_on_c, 5, 41, 127
2, 12481, Note_on_c, 5, 53, 127
2, 12546, Note_off_c, 5, 53, 127
2, 12559, Note_on_c, 3, 63, 127
2, 12612, Note_off_c, 5, 41, 127
2, 12637, Note_on_c, 5, 53, 127
2, 12649, Note_off_c, 3, 63, 127
2, 12702, Note_off_c, 5, 53, 127
2, 12715, Note_on_c, 11, 46, 127
2, 12794, Note_on_c, 5, 53, 127
2, 12859, Note_off_c, 5, 53, 127
2, 12872, Note_on_c, 2, 62, 127
2, 12950, Note_on_c, 5, 53, 127
2, 12995, Note_off_c, 11, 46, 127
2, 13015, Note_off_c, 5, 53, 127
2, 13028, Note_on_c, 7, 43, 127
2, 13082, Note_off_c, 2, 62, 127
2, 13106, Note_on_c, 5, 53, 127
2, 13171, Note_off_c, 5, 53, 127
2, 13185, Note_on_c, 11, 58, 127
2, 13263, Note_on_c, 5, 53, 127
2, 13308, Note_off_c, 7, 43, 127
2, 13328, Note_off_c, 5, 53, 127
2, 13341, Note_on_c, 10, 45, 127
2, 13395, Note_off_c, 11, 58, 127
2, 13419, Note_on_c, 5, 53, 127
2, 13484, Note_off_c, 5, 53, 127
2, 13498, Note_on_c, 0, 60, 127
2, 13576, Note_on_c, 5, 53, 127
2, 13621, Note_off_c, 10, 45, 127
2, 13641, Note_off_c, 5, 53, 127
2, 13654, Note_on_c, 5, 41, 127
2, 13708, Note_off_c, 0, 60, 127
2, 13732, Note_on_c, 5, 53, 127
2, 13797, Note_off_c, 5, 53, 127
2, 13811, Note_on_c, 3, 63, 127
2, 13864, Note_off_c, 5, 41, 127
2, 13889, Note_on_c, 5, 53, 127
2, 13954, Note_off_c, 5, 53, 127
2, 13967, Note_on_c, 11, 46, 127
2, 14021, Note_off_c, 3, 63, 127
2, 14045, Note_on_c, 5, 53, 127
2, 14110, Note_off_c, 5, 53, 127
2, 14124, Note_on_c, 2, 62, 127
2, 14177, Note_off_c, 11, 46, 127
2, 14202, Note_on_c, 5, 53, 127
2, 14267, Note_off_c, 5, 53, 127
2, 14280, Note_on_c, 12, 47, 127
2, 14334, Note_off_c, 2, 62, 127
2, 14358, Note_on_c, 7, 55, 127
2, 14423, Note_off_c, 7, 55, 127
2, 14437, Note_on_c, 5, 65, 127
2, 14490, Note_off_c, 12, 47, 127
2, 14515, Note_on_c, 7, 55, 127
2, 14580, Note_off_c, 7, 55, 127
2, 14593, Note_on_c, 0, 48, 127
2, 14647, Note_off_c, 5, 65, 127
2, 14671, Note_on_c, 7, 55, 127
2, 14736, Note_off_c, 7, 55, 127
2, 14750, Note_on_c, 4, 64, 127
2, 14803, Note_off_c, 0, 48, 127
2, 14828, Note_on_c, 7, 55, 127
2, 14893, Note_off_c, 7, 55, 127
2, 14906, Note_on_c, 1, 49, 127
2, 14960, Note_off_c, 4, 64, 127
2, 14984, Note_on_c, 10, 57, 127
2, 15049, Note_off_c, 10, 57, 127
2, 15062, Note_on_c, 7, 67, 127
2, 15116, Note_off_c, 1, 49, 127
2, 15141, Note_on_c, 10, 57, 127
2, 15206, Note_off_c, 10, 57, 127
2, 15219, Note_on_c, 2, 50, 127
2, 15272, Note_off_c, 7, 67, 127
2, 15297, Note_on_c, 10, 57, 127
2, 15362, Note_off_c, 10, 57, 127
2, 15375, Note_on_c, 5, 65, 127
2, 15429, Note_off_c, 2, 50, 127
2, 15454, Note_on_c, 10, 57, 127
2, 15519, Note_off_c, 10, 57, 127
2, 15532, Note_on_c, 2, 38, 127
2, 15585, Note_off_c, 5, 65, 127
2, 15610, Note_on_c, 11, 58, 127
2, 15675, Note_off_c, 11, 58, 127
2, 15688, Note_on_c, 10, 69, 127
2, 15742, Note_off_c, 2, 38, 127
2, 15767, Note_on_c, 11, 58, 127
2, 15832, Note_off_c, 11, 58, 127
2, 15845, Note_on_c, 4, 40, 127
2, 15898, Note_off_c, 10, 69, 127
2, 15923, Note_on_c, 11, 58, 127
2, 15988, Note_off_c, 11, 58, 127
2, 16001, Note_on_c, 7, 67, 127
2, 16080, Note_on_c, 11, 58, 127
2, 16145, Note_off_c, 11, 58, 127
2, 16145, Note_off_c, 4, 40, 127
2, 16158, Note_on_c, 4, 52, 127
2, 16211, Note_off_c, 7, 67, 127
2, 16236, Note_on_c, 0, 60, 127
2, 16301, Note_off_c, 0, 60, 127
2, 16314, Note_on_c, 11, 70, 127
2, 16368, Note_off_c, 4, 52, 127
2, 16393, Note_on_c, 0, 60, 127
2, 16458, Note_off_c, 0, 60, 127
2, 16471, Note_on_c, 5, 53, 127
2, 16524, Note_off_c, 11, 70, 127
2, 16549, Note_on_c, 0, 60, 127
2, 16614, Note_off_c, 0, 60, 127
2, 16627, Note_on_c, 10, 69, 127
2, 16706, Note_on_c, 0, 60, 127
2, 16771, Note_off_c, 0, 60, 127
2, 16771, Note_off_c, 5, 53, 127
2, 16784, Note_on_c, 5, 41, 127
2, 16837, Note_off_c, 10, 69, 127
2, 16862, Note_on_c, 2, 62, 127
2, 16927, Note_off_c, 2, 62, 127
2, 16940, Note_on_c, 0, 72, 127
2, 16984, Note_off_c, 5, 41, 127
2, 17018, Note_on_c, 2, 62, 127
2, 17083, Note_off_c, 2, 62, 127
2, 17097, Note_on_c, 7, 43, 127
2, 17140, Note_off_c, 0, 72, 127
2, 17175, Note_on_c, 2, 62, 127
2, 17240, Note_off_c, 2, 62, 127
2, 17253, Note_on_c, 11, 70, 127
2, 17331, Note_on_c, 2, 62, 127
2, 17396, Note_off_c, 2, 62, 127
2, 17397, Note_off_c, 7, 43, 127
2, 17410, Note_on_c, 7, 55, 127
2, 17413, Note_off_c, 11, 70, 127
2, 17488, Note_on_c, 4, 64, 127
2, 17530, Note_off_c, 7, 55, 127
2, 17553, Note_off_c, 4, 64, 127
2, 17566, Note_on_c, 2, 74, 127
2, 17654, Note_on_c, 4, 64, 127
2, 17686, Note_off_c, 2, 74, 127
2, 17756, Note_off_c, 4, 64, 127
2, 17758, Note_on_c, 10, 57, 127
2, 17873, Note_on_c, 0, 60, 127
2, 17943, Note_off_c, 0, 60, 127
2, 17949, Note_on_c, 2, 62, 127
2, 18019, Note_off_c, 2, 62, 127
2, 18026, Note_on_c, 4, 64, 127
2, 18038, Note_off_c, 10, 57, 127
2, 18096, Note_off_c, 4, 64, 127
2, 18102, Note_on_c, 5, 65, 127
2, 18172, Note_off_c, 5, 65, 127
2, 18179, Note_on_c, 7, 67, 127
2, 18249, Note_off_c, 7, 67, 127
2, 18256, Note_on_c, 10, 69, 127
2, 18326, Note_off_c, 10, 69, 127
2, 18332, Note_on_c, 11, 70, 127
2, 18402, Note_off_c, 11, 70, 127
2, 18409, Note_on_c, 0, 72, 127
2, 18479, Note_off_c, 0, 72, 127
2, 18485, Note_on_c, 11, 70, 127
2, 18555, Note_off_c, 11, 70, 127
2, 18562, Note_on_c, 10, 69, 127
2, 18632, Note_off_c, 10, 69, 127
2, 18639, Note_on_c, 7, 67, 127
2, 18709, Note_off_c, 7, 67, 127
2, 18715, Note_on_c, 5, 65, 127
2, 18785, Note_off_c, 5, 65, 127
2, 18792, Note_on_c, 3, 63, 127
2, 18862, Note_off_c, 3, 63, 127
2, 18869, Note_on_c, 2, 62, 127
2, 18939, Note_off_c, 2, 62, 127
2, 18945, Note_on_c, 0, 60, 127
2, 19015, Note_off_c, 0, 60, 127
2, 19022, Note_on_c, 2, 62, 127
2, 19098, Note_on_c, 11, 58, 127
2, 19099, Note_off_c, 2, 62, 127
2, 19168, Note_off_c, 11, 58, 127
2, 19175, Note_on_c, 10, 57, 127
2, 19245, Note_off_c, 10, 57, 127
2, 19252, Note_on_c, 7, 55, 127
2, 19322, Note_off_c, 7, 55, 127
2, 19328, Note_on_c, 5, 53, 127
2, 19398, Note_off_c, 5, 53, 127
2, 19405, Note_on_c, 3, 51, 127
2, 19475, Note_off_c, 3, 51, 127
2, 19481, Note_on_c, 2, 50, 127
2, 19551, Note_off_c, 2, 50, 127
2, 19558, Note_on_c, 0, 48, 127
2, 19628, Note_off_c, 0, 48, 127
2, 19635, Note_on_c, 11, 46, 127
2, 19705, Note_off_c, 11, 46, 127
2, 19711, Note_on_c, 0, 48, 127
2, 19781, Note_off_c, 0, 48, 127
2, 19788, Note_on_c, 2, 50, 127
2, 19858, Note_off_c, 2, 50, 127
2, 19864, Note_on_c, 0, 48, 127
2, 19934, Note_off_c, 0, 48, 127
2, 19941, Note_on_c, 11, 46, 127
2, 20011, Note_off_c, 11, 46, 127
2, 20018, Note_on_c, 10, 45, 127
2, 20081, Note_off_c, 10, 45, 127
2, 20094, Note_on_c, 7, 43, 127
2, 20157, Note_off_c, 7, 43, 127
2, 20171, Note_on_c, 5, 41, 127
2, 20226, Note_off_c, 5, 41, 127
2, 20249, Note_on_c, 4, 40, 127
2, 20365, Note_on_c, 0, 60, 127
2, 20428, Note_off_c, 0, 60, 127
2, 20441, Note_on_c, 11, 70, 127
2, 20459, Note_off_c, 4, 40, 127
2, 20518, Note_on_c, 0, 60, 127
2, 20581, Note_off_c, 0, 60, 127
2, 20594, Note_on_c, 5, 41, 127
2, 20651, Note_off_c, 11, 70, 127
2, 20679, Note_on_c, 0, 60, 127
2, 20742, Note_off_c, 0, 60, 127
2, 20756, Note_on_c, 10, 69, 127
2, 20804, Note_off_c, 5, 41, 127
2, 20833, Note_on_c, 0, 60, 127
2, 20896, Note_off_c, 0, 60, 127
2, 20909, Note_on_c, 2, 38, 127
2, 20966, Note_off_c, 10, 69, 127
2, 20994, Note_on_c, 11, 58, 127
2, 21057, Note_off_c, 11, 58, 127
2, 21071, Note_on_c, 10, 69, 127
2, 21119, Note_off_c, 2, 38, 127
2, 21148, Note_on_c, 11, 58, 127
2, 21211, Note_off_c, 11, 58, 127
2, 21224, Note_on_c, 4, 40, 127
2, 21281, Note_off_c, 10, 69, 127
2, 21309, Note_on_c, 11, 58, 127
2, 21372, Note_off_c, 11, 58, 127
2, 21386, Note_on_c, 7, 67, 127
2, 21434, Note_off_c, 4, 40, 127
2, 21462, Note_on_c, 11, 58, 127
2, 21525, Note_off_c, 11, 58, 127
2, 21539, Note_on_c, 5, 41, 127
2, 21596, Note_off_c, 7, 67, 127
2, 21624, Note_on_c, 10, 57, 127
2, 21687, Note_off_c, 10, 57, 127
2, 21701, Note_on_c, 7, 67, 127
2, 21749, Note_off_c, 5, 41, 127
2, 21777, Note_on_c, 10, 57, 127
2, 21840, Note_off_c, 10, 57, 127
2, 21854, Note_on_c, 10, 45, 127
2, 21911, Note_off_c, 7, 67, 127
2, 21939, Note_on_c, 10, 57, 127
2, 22002, Note_off_c, 10, 57, 127
2, 22016, Note_on_c, 5, 65, 127
2, 22054, Note_off_c, 10, 45, 127
2, 22092, Note_on_c, 10, 57, 127
2, 22155, Note_off_c, 10, 57, 127
2, 22169, Note_on_c, 11, 46, 127
2, 22216, Note_off_c, 5, 65, 127
2, 22254, Note_on_c, 7, 55, 127
2, 22317, Note_off_c, 7, 55, 127
2, 22329, Note_off_c, 11, 46, 127
2, 22331, Note_on_c, 5, 65, 127
2, 22407, Note_on_c, 7, 55, 127
2, 22470, Note_off_c, 7, 55, 127
2, 22484, Note_on_c, 0, 48, 127
2, 22491, Note_off_c, 5, 65, 127
2, 22569, Note_on_c, 7, 55, 127
2, 22604, Note_off_c, 0, 48, 127
2, 22632, Note_off_c, 7, 55, 127
2, 22645, Note_on_c, 4, 64, 127
2, 22722, Note_on_c, 7, 55, 127
2, 22765, Note_off_c, 4, 64, 127
2, 22785, Note_off_c, 7, 55, 127
2, 22799, Note_on_c, 5, 41, 127
2, 22799, Note_on_c, 10, 57, 127
2, 22913, Note_on_c, 0, 60, 127
2, 22976, Note_off_c, 0, 60, 127
2, 22989, Note_on_c, 5, 65, 127
2, 23009, Note_off_c, 10, 57, 127
2, 23052, Note_off_c, 5, 65, 127
2, 23066, Note_on_c, 0, 60, 127
2, 23129, Note_off_c, 0, 60, 127
2, 23143, Note_on_c, 10, 57, 127
2, 23206, Note_off_c, 10, 57, 127
2, 23219, Note_on_c, 5, 65, 127
2, 23282, Note_off_c, 5, 65, 127
2, 23296, Note_on_c, 0, 60, 127
2, 23359, Note_off_c, 0, 60, 127
2, 23372, Note_on_c, 10, 57, 127
2, 23399, Note_off_c, 5, 41, 127
2, 23435, Note_off_c, 10, 57, 127
2, 23449, Note_on_c, 5, 53, 127
2, 23526, Note_on_c, 10, 57, 127
2, 23589, Note_off_c, 10, 57, 127
2, 23602, Note_on_c, 0, 60, 127
2, 23659, Note_off_c, 5, 53, 127
2, 23665, Note_off_c, 0, 60, 127
2, 23679, Note_on_c, 10, 57, 127
2, 23742, Note_off_c, 10, 57, 127
2, 23755, Note_on_c, 5, 53, 127
2, 23818, Note_off_c, 5, 53, 127
2, 23832, Note_on_c, 0, 60, 127
2, 23895, Note_off_c, 0, 60, 127
2, 23909, Note_on_c, 10, 57, 127
2, 23972, Note_off_c, 10, 57, 127
2, 23985, Note_on_c, 5, 53, 127
2, 24048, Note_off_c, 5, 53, 127
2, 24062, Note_on_c, 0, 48, 127
2, 24142, Note_on_c, 5, 53, 127
2, 24208, Note_off_c, 5, 53, 127
2, 24222, Note_on_c, 4, 52, 127
2, 24272, Note_off_c, 0, 48, 127
2, 24288, Note_off_c, 4, 52, 127
2, 24301, Note_on_c, 2, 50, 127
2, 24367, Note_off_c, 2, 50, 127
2, 24381, Note_on_c, 0, 48, 127
2, 24447, Note_off_c, 0, 48, 127
2, 24461, Note_on_c, 11, 46, 127
2, 24527, Note_off_c, 11, 46, 127
2, 24541, Note_on_c, 10, 45, 127
2, 24607, Note_off_c, 10, 45, 127
2, 24621, Note_on_c, 7, 43, 127
2, 24687, Note_off_c, 7, 43, 127
2, 24701, Note_on_c, 5, 41, 127
2, 24790, Note_on_c, 10, 45, 127
2, 24864, Note_off_c, 10, 45, 127
2, 24880, Note_on_c, 0, 48, 127
2, 24911, Note_off_c, 5, 41, 127
2, 24954, Note_off_c, 0, 48, 127
2, 24970, Note_on_c, 5, 53, 127
2, 25044, Note_off_c, 5, 53, 127
2, 25059, Note_on_c, 10, 57, 127
2, 25133, Note_off_c, 10, 57, 127
2, 25149, Note_on_c, 0, 60, 127
2, 25223, Note_off_c, 0, 60, 127
2, 25239, Note_on_c, 3, 63, 127
2, 25313, Note_off_c, 3, 63, 127
2, 25328, Note_on_c, 6, 66, 127
2, 25402, Note_off_c, 6, 66, 127
2, 25444, Note_on_c, 2, 38, 127
2, 26344, Note_off_c, 2, 38, 127
2, 26399, Note_on_c, 2, 50, 127
2, 26399, Note_on_c, 11, 58, 127
2, 26399, Note_on_c, 5, 53, 127
2, 26399, Note_on_c, 2, 74, 127
2, 26399, Note_on_c, 11, 70, 127
2, 26399, Note_on_c, 8, 68, 127
2, 26399, Note_on_c, 5, 77, 127
2, 26399, Note_on_c, 2, 62, 127
2, 27068, Note_off_c, 2, 62, 127
2, 27068, Note_off_c, 5, 77, 127
2, 27068, Note_off_c, 8, 68, 127
2, 27068, Note_off_c, 11, 70, 127
2, 27068, Note_off_c, 2, 74, 127
2, 27068, Note_off_c, 5, 53, 127
2, 27068, Note_off_c, 11, 58, 127
2, 27068, Note_off_c, 2, 50, 127
2, 27087, Note_on_c, 8, 68, 127
2, 27087, Note_on_c, 5, 77, 127
2, 27087, Note_on_c, 11, 70, 127
2, 27087, Note_on_c, 11, 58, 127
2, 27087, Note_on_c, 5, 53, 127
2, 27087, Note_on_c, 2, 74, 127
2, 27087, Note_on_c, 2, 50, 127
2, 27087, Note_on_c, 2, 62, 127
2, 27256, Note_off_c, 2, 62, 127
2, 27256, Note_off_c, 2, 50, 127
2, 27256, Note_off_c, 2, 74, 127
2, 27256, Note_off_c, 5, 53, 127
2, 27256, Note_off_c, 11, 58, 127
2, 27256, Note_off_c, 11, 70, 127
2, 27256, Note_off_c, 5, 77, 127
2, 27256, Note_off_c, 8, 68, 127
2, 27258, Note_on_c, 12, 47, 127
2, 27289, Note_on_c, 2, 50, 127
2, 27320, Note_on_c, 7, 55, 127
2, 27351, Note_on_c, 12, 59, 127
2, 27382, Note_on_c, 2, 62, 127
2, 27413, Note_on_c, 7, 67, 127
2, 27442, Note_off_c, 2, 62, 127
2, 27444, Note_on_c, 12, 71, 127
2, 27475, Note_on_c, 2, 74, 127
2, 27506, Note_on_c, 5, 77, 127
2, 28233, Note_off_c, 7, 67, 127
2, 28322, Note_off_c, 12, 47, 127
2, 28323, Note_off_c, 2, 50, 127
2, 28326, Note_off_c, 7, 55, 127
2, 28334, Note_off_c, 12, 71, 127
2, 28335, Note_off_c, 12, 59, 127
2, 28378, Note_off_c, 5, 77, 127
2, 28381, Note_on_c, 7, 79, 127
2, 28435, Note_off_c, 2, 74, 127
2, 28448, Note_off_c, 7, 79, 127
2, 28450, Note_on_c, 8, 80, 127
2, 28517, Note_off_c, 8, 80, 127
2, 28518, Note_on_c, 7, 79, 127
2, 28581, Note_off_c, 7, 79, 127
2, 28587, Note_on_c, 5, 77, 127
2, 28644, Note_off_c, 5, 77, 127
2, 28655, Note_on_c, 3, 75, 127
2, 28712, Note_off_c, 3, 75, 127
2, 28724, Note_on_c, 2, 74, 127
2, 28792, Note_on_c, 3, 75, 127
2, 28804, Note_off_c, 2, 74, 127
2, 28849, Note_off_c, 3, 75, 127
2, 28861, Note_on_c, 5, 77, 127
2, 28918, Note_off_c, 5, 77, 127
2, 28929, Note_on_c, 3, 75, 127
2, 28986, Note_off_c, 3, 75, 127
2, 28997, Note_on_c, 2, 74, 127
2, 29054, Note_off_c, 2, 74, 127
2, 29066, Note_on_c, 0, 72, 127
2, 29123, Note_off_c, 0, 72, 127
2, 29134, Note_on_c, 12, 71, 127
2, 29203, Note_on_c, 0, 72, 127
2, 29214, Note_off_c, 12, 71, 127
2, 29260, Note_off_c, 0, 72, 127
2, 29271, Note_on_c, 2, 74, 127
2, 29328, Note_off_c, 2, 74, 127
2, 29340, Note_on_c, 0, 72, 127
2, 29397, Note_off_c, 0, 72, 127
2, 29408, Note_on_c, 12, 71, 127
2, 29465, Note_off_c, 12, 71, 127
2, 29477, Note_on_c, 10, 69, 127
2, 29534, Note_off_c, 10, 69, 127
2, 29545, Note_on_c, 7, 67, 127
2, 29614, Note_on_c, 10, 69, 127
2, 29625, Note_off_c, 7, 67, 127
2, 29671, Note_off_c, 10, 69, 127
2, 29682, Note_on_c, 12, 71, 127
2, 29739, Note_off_c, 12, 71, 127
2, 29751, Note_on_c, 10, 69, 127
2, 29808, Note_off_c, 10, 69, 127
2, 29819, Note_on_c, 7, 67, 127
2, 29876, Note_off_c, 7, 67, 127
2, 29887, Note_on_c, 5, 65, 127
2, 29944, Note_off_c, 5, 65, 127
2, 29956, Note_on_c, 3, 63, 127
2, 30011, Note_off_c, 3, 63, 127
2, 30023, Note_on_c, 2, 62, 127
2, 30078, Note_off_c, 2, 62, 127
2, 30090, Note_on_c, 0, 60, 127
2, 30145, Note_off_c, 0, 60, 127
2, 30156, Note_on_c, 11, 58, 127
2, 30211, Note_off_c, 11, 58, 127
2, 30223, Note_on_c, 8, 56, 127
2, 30278, Note_off_c, 8, 56, 127
2, 30290, Note_on_c, 7, 55, 127
2, 30345, Note_off_c, 7, 55, 127
2, 30357, Note_on_c, 5, 53, 127
2, 30412, Note_off_c, 5, 53, 127
2, 30424, Note_on_c, 3, 51, 127
2, 30479, Note_off_c, 3, 51, 127
2, 30491, Note_on_c, 2, 50, 127
2, 30546, Note_off_c, 2, 50, 127
2, 30557, Note_on_c, 0, 48, 127
2, 30612, Note_off_c, 0, 48, 127
2, 30624, Note_on_c, 11, 46, 127
2, 30679, Note_off_c, 11, 46, 127
2, 30691, Note_on_c, 8, 44, 127
2, 30746, Note_off_c, 8, 44, 127
2, 30758, Note_on_c, 7, 43, 127
2, 30813, Note_off_c, 7, 43, 127
2, 30825, Note_on_c, 5, 41, 127
2, 30880, Note_off_c, 5, 41, 127
2, 30892, Note_on_c, 3, 39, 127
2, 30947, Note_off_c, 3, 39, 127
2, 30958, Note_on_c, 2, 38, 127
2, 31013, Note_off_c, 2, 38, 127
2, 31025, Note_on_c, 0, 36, 127
2, 32075, Note_off_c, 0, 36, 127
2, 32112, Note_on_c, 3, 75, 127
2, 32112, Note_on_c, 0, 72, 127
2, 32112, Note_on_c, 7, 67, 127
2, 32112, Note_on_c, 0, 60, 127
2, 32112, Note_on_c, 7, 55, 127
2, 32112, Note_on_c, 3, 51, 127
2, 32112, Note_on_c, 0, 48, 127
2, 32834, Note_off_c, 0, 48, 127
2, 32834, Note_off_c, 3, 51, 127
2, 32834, Note_off_c, 7, 55, 127
2, 32834, Note_off_c, 0, 60, 127
2, 32834, Note_off_c, 7, 67, 127
2, 32834, Note_off_c, 0, 72, 127
2, 32834, Note_off_c, 3, 75, 127
2, 32852, Note_on_c, 3, 75, 127
2, 32852, Note_on_c, 0, 72, 127
2, 32852, Note_on_c, 7, 67, 127
2, 32852, Note_on_c, 0, 60, 127
2, 32852, Note_on_c, 7, 55, 127
2, 32852, Note_on_c, 3, 51, 127
2, 32852, Note_on_c, 0, 48, 127
2, 33091, Note_off_c, 0, 48, 127
2, 33091, Note_off_c, 3, 51, 127
2, 33091, Note_off_c, 7, 55, 127
2, 33091, Note_off_c, 7, 67, 127
2, 33093, Note_on_c, 5, 53, 127
2, 33147, Note_on_c, 10, 57, 127
2, 33195, Note_off_c, 0, 60, 127
2, 33201, Note_on_c, 0, 60, 127
2, 33255, Note_on_c, 5, 65, 127
2, 33308, Note_on_c, 10, 69, 127
2, 33340, Note_off_c, 0, 72, 127
2, 33362, Note_on_c, 0, 72, 127
2, 33413, Note_off_c, 3, 75, 127
2, 33416, Note_on_c, 3, 75, 127
2, 33947, Note_off_c, 5, 53, 127
2, 33949, Note_off_c, 10, 57, 127
2, 33951, Note_off_c, 0, 60, 127
2, 34065, Note_on_c, 0, 48, 127
2, 34105, Note_off_c, 5, 65, 127
2, 34133, Note_off_c, 0, 48, 127
2, 34137, Note_on_c, 2, 50, 127
2, 34205, Note_off_c, 2, 50, 127
2, 34208, Note_off_c, 10, 69, 127
2, 34209, Note_on_c, 3, 51, 127
2, 34212, Note_off_c, 0, 72, 127
2, 34216, Note_off_c, 3, 75, 127
2, 34277, Note_off_c, 3, 51, 127
2, 34281, Note_on_c, 5, 53, 127
2, 34349, Note_off_c, 5, 53, 127
2, 34352, Note_on_c, 7, 55, 127
2, 34420, Note_off_c, 7, 55, 127
2, 34424, Note_on_c, 10, 57, 127
2, 34492, Note_off_c, 10, 57, 127
2, 34496, Note_on_c, 11, 58, 127
2, 34564, Note_off_c, 11, 58, 127
2, 34567, Note_on_c, 10, 57, 127
2, 34635, Note_off_c, 10, 57, 127
2, 34639, Note_on_c, 7, 55, 127
2, 34707, Note_off_c, 7, 55, 127
2, 34711, Note_on_c, 5, 53, 127
2, 34779, Note_off_c, 5, 53, 127
2, 34783, Note_on_c, 7, 55, 127
2, 34851, Note_off_c, 7, 55, 127
2, 34854, Note_on_c, 10, 57, 127
2, 34922, Note_off_c, 10, 57, 127
2, 34926, Note_on_c, 11, 58, 127
2, 34994, Note_off_c, 11, 58, 127
2, 34998, Note_on_c, 0, 60, 127
2, 35066, Note_off_c, 0, 60, 127
2, 35070, Note_on_c, 2, 62, 127
2, 35138, Note_off_c, 2, 62, 127
2, 35141, Note_on_c, 0, 60, 127
2, 35209, Note_off_c, 0, 60, 127
2, 35213, Note_on_c, 11, 58, 127
2, 35281, Note_off_c, 11, 58, 127
2, 35285, Note_on_c, 10, 57, 127
2, 35353, Note_off_c, 10, 57, 127
2, 35356, Note_on_c, 11, 58, 127
2, 35424, Note_off_c, 11, 58, 127
2, 35428, Note_on_c, 0, 60, 127
2, 35496, Note_off_c, 0, 60, 127
2, 35500, Note_on_c, 2, 62, 127
2, 35568, Note_off_c, 2, 62, 127
2, 35572, Note_on_c, 3, 63, 127
2, 35640, Note_off_c, 3, 63, 127
2, 35643, Note_on_c, 5, 65, 127
2, 35711, Note_off_c, 5, 65, 127
2, 35715, Note_on_c, 3, 63, 127
2, 35783, Note_off_c, 3, 63, 127
2, 35787, Note_on_c, 2, 62, 127
2, 35855, Note_off_c, 2, 62, 127
2, 35858, Note_on_c, 0, 60, 127
2, 35926, Note_off_c, 0, 60, 127
2, 35930, Note_on_c, 2, 62, 127
2, 35998, Note_off_c, 2, 62, 127
2, 36002, Note_on_c, 3, 63, 127
2, 36070, Note_off_c, 3, 63, 127
2, 36074, Note_on_c, 5, 65, 127
2, 36142, Note_off_c, 5, 65, 127
2, 36145, Note_on_c, 7, 67, 127
2, 36213, Note_off_c, 7, 67, 127
2, 36217, Note_on_c, 10, 69, 127
2, 36285, Note_off_c, 10, 69, 127
2, 36289, Note_on_c, 11, 70, 127
2, 36352, Note_off_c, 11, 70, 127
2, 36357, Note_on_c, 0, 72, 127
2, 36420, Note_off_c, 0, 72, 127
2, 36426, Note_on_c, 2, 74, 127
2, 36489, Note_off_c, 2, 74, 127
2, 36494, Note_on_c, 3, 75, 127
2, 36557, Note_off_c, 3, 75, 127
2, 36563, Note_on_c, 5, 77, 127
2, 36624, Note_off_c, 5, 77, 127
2, 36631, Note_on_c, 7, 79, 127
2, 36692, Note_off_c, 7, 79, 127
2, 36700, Note_on_c, 10, 81, 127
2, 36757, Note_off_c, 10, 81, 127
2, 36770, Note_on_c, 5, 77, 127
2, 36827, Note_off_c, 5, 77, 127
2, 36844, Note_on_c, 11, 82, 127
2, 37634, Note_off_c, 11, 82, 127
2, 37645, Note_on_c, 11, 70, 127
2, 37645, Note_on_c, 2, 74, 127
2, 37645, Note_on_c, 5, 65, 127
2, 37645, Note_on_c, 8, 68, 127
2, 37645, Note_on_c, 2, 50, 127
2, 37645, Note_on_c, 5, 53, 127
2, 37645, Note_on_c, 11, 58, 127
2, 37645, Note_on_c, 11, 46, 127
2, 38262, Note_off_c, 11, 46, 127
2, 38262, Note_off_c, 11, 58, 127
2, 38262, Note_off_c, 5, 53, 127
2, 38262, Note_off_c, 2, 50, 127
2, 38262, Note_off_c, 8, 68, 127
2, 38262, Note_off_c, 5, 65, 127
2, 38262, Note_off_c, 2, 74, 127
2, 38262, Note_off_c, 11, 70, 127
2, 38280, Note_on_c, 11, 70, 127
2, 38280, Note_on_c, 8, 68, 127
2, 38280, Note_on_c, 11, 46, 127
2, 38280, Note_on_c, 2, 74, 127
2, 38280, Note_on_c, 2, 50, 127
2, 38280, Note_on_c, 5, 65, 127
2, 38280, Note_on_c, 11, 58, 127
2, 38280, Note_on_c, 5, 53, 127
2, 38449, Note_off_c, 5, 53, 127
2, 38449, Note_off_c, 5, 65, 127
2, 38449, Note_off_c, 2, 50, 127
2, 38449, Note_off_c, 11, 46, 127
2, 38449, Note_off_c, 8, 68, 127
2, 38451, Note_on_c, 3, 51, 127
2, 38502, Note_on_c, 7, 55, 127
2, 38541, Note_off_c, 11, 58, 127
2, 38552, Note_on_c, 11, 58, 127
2, 38603, Note_on_c, 3, 63, 127
2, 38653, Note_on_c, 7, 67, 127
2, 38680, Note_off_c, 11, 70, 127
2, 38704, Note_on_c, 11, 70, 127
2, 38731, Note_off_c, 2, 74, 127
2, 38754, Note_on_c, 2, 74, 127
2, 39351, Note_off_c, 3, 51, 127
2, 39352, Note_off_c, 11, 58, 127
2, 39352, Note_off_c, 7, 55, 127
2, 39353, Note_off_c, 7, 67, 127
2, 39353, Note_off_c, 3, 63, 127
2, 39354, Note_off_c, 11, 70, 127
2, 39380, Note_off_c, 2, 74, 127
2, 39393, Note_on_c, 1, 73, 127
2, 39393, Note_on_c, 11, 70, 127
2, 39393, Note_on_c, 7, 67, 127
2, 39393, Note_on_c, 11, 58, 127
2, 39393, Note_on_c, 7, 55, 127
2, 39393, Note_on_c, 4, 52, 127
2, 40010, Note_off_c, 4, 52, 127
2, 40010, Note_off_c, 7, 55, 127
2, 40010, Note_off_c, 11, 58, 127
2, 40010, Note_off_c, 7, 67, 127
2, 40010, Note_off_c, 11, 70, 127
2, 40010, Note_off_c, 1, 73, 127
2, 40029, Note_on_c, 4, 52, 127
2, 40029, Note_on_c, 7, 55, 127
2, 40029, Note_on_c, 0, 60, 127
2, 40029, Note_on_c, 7, 67, 127
2, 40029, Note_on_c, 11, 70, 127
2, 40029, Note_on_c, 0, 72, 127
2, 40234, Note_off_c, 11, 70, 127
2, 40234, Note_off_c, 7, 67, 127
2, 40234, Note_off_c, 7, 55, 127
2, 40234, Note_off_c, 4, 52, 127
2, 40236, Note_on_c, 5, 53, 127
2, 40314, Note_on_c, 10, 57, 127
2, 40376, Note_off_c, 0, 60, 127
2, 40393, Note_on_c, 0, 60, 127
2, 40471, Note_on_c, 3, 63, 127
2, 40550, Note_on_c, 5, 65, 127
2, 40628, Note_on_c, 10, 69, 127
2, 40689, Note_off_c, 0, 72, 127
2, 40706, Note_on_c, 0, 72, 127
2, 41108, Note_off_c, 10, 57, 127
2, 41116, Note_off_c, 5, 53, 127
2, 41119, Note_off_c, 0, 60, 127
2, 41131, Note_off_c, 3, 63, 127
2, 41148, Note_off_c, 5, 65, 127
2, 41298, Note_off_c, 0, 72, 127
2, 41317, Note_on_c, 0, 72, 127
2, 41389, Note_off_c, 10, 69, 127
2, 41396, Note_off_c, 0, 72, 127
2, 41403, Note_on_c, 10, 69, 127
2, 41482, Note_off_c, 10, 69, 127
2, 41489, Note_on_c, 5, 65, 127
2, 41568, Note_off_c, 5, 65, 127
2, 41576, Note_on_c, 3, 63, 127
2, 41655, Note_off_c, 3, 63, 127
2, 41662, Note_on_c, 5, 65, 127
2, 41741, Note_off_c, 5, 65, 127
2, 41749, Note_on_c, 10, 69, 127
2, 41828, Note_off_c, 10, 69, 127
2, 41835, Note_on_c, 0, 72, 127
2, 41914, Note_off_c, 0, 72, 127
2, 41921, Note_on_c, 10, 69, 127
2, 42000, Note_off_c, 10, 69, 127
2, 42008, Note_on_c, 0, 72, 127
2, 42087, Note_off_c, 0, 72, 127
2, 42094, Note_on_c, 10, 69, 127
2, 42173, Note_off_c, 10, 69, 127
2, 42181, Note_on_c, 5, 65, 127
2, 42260, Note_off_c, 5, 65, 127
2, 42267, Note_on_c, 3, 63, 127
2, 42346, Note_off_c, 3, 63, 127
2, 42353, Note_on_c, 5, 65, 127
2, 42432, Note_off_c, 5, 65, 127
2, 42440, Note_on_c, 10, 69, 127
2, 42519, Note_off_c, 10, 69, 127
2, 42526, Note_on_c, 0, 72, 127
2, 42605, Note_off_c, 0, 72, 127
2, 42612, Note_on_c, 6, 78, 127
2, 42697, Note_on_c, 5, 77, 127
2, 42703, Note_off_c, 6, 78, 127
2, 42776, Note_off_c, 5, 77, 127
2, 42781, Note_on_c, 3, 75, 127
2, 42860, Note_off_c, 3, 75, 127
2, 42866, Note_on_c, 1, 73, 127
2, 42945, Note_off_c, 1, 73, 127
2, 42950, Note_on_c, 0, 72, 127
2, 43029, Note_off_c, 0, 72, 127
2, 43034, Note_on_c, 11, 70, 127
2, 43113, Note_off_c, 11, 70, 127
2, 43119, Note_on_c, 10, 69, 127
2, 43198, Note_off_c, 10, 69, 127
2, 43203, Note_on_c, 7, 67, 127
2, 43282, Note_off_c, 7, 67, 127
2, 43288, Note_on_c, 10, 69, 127
2, 43379, Note_off_c, 10, 69, 127
2, 43398, Note_on_c, 5, 65, 127
2, 43455, Note_off_c, 5, 65, 127
2, 43474, Note_on_c, 10, 69, 127
2, 43531, Note_off_c, 10, 69, 127
2, 43541, Note_on_c, 0, 72, 127
2, 43598, Note_off_c, 0, 72, 127
2, 43614, Note_on_c, 3, 75, 127
2, 43671, Note_off_c, 3, 75, 127
2, 43688, Note_on_c, 6, 78, 127
2, 43745, Note_off_c, 6, 78, 127
2, 43759, Note_on_c, 10, 81, 127
2, 43816, Note_off_c, 10, 81, 127
2, 43830, Note_on_c, 0, 84, 127
2, 43887, Note_off_c, 0, 84, 127
2, 43901, Note_on_c, 11, 82, 127
2, 44480, Note_on_c, 0, 72, 127
2, 44497, Note_off_c, 11, 82, 127
2, 44670, Note_off_c, 0, 72, 127
2, 44672, Note_on_c, 1, 73, 127
2, 44865, Note_on_c, 10, 69, 127
2, 44952, Note_off_c, 1, 73, 127
2, 45055, Note_off_c, 10, 69, 127
2, 45057, Note_on_c, 11, 70, 127
2, 45249, Note_on_c, 4, 64, 127
2, 45337, Note_off_c, 11, 70, 127
2, 45439, Note_off_c, 4, 64, 127
2, 45442, Note_on_c, 5, 53, 127
2, 45442, Note_on_c, 5, 41, 127
2, 45442, Note_on_c, 0, 48, 127
2, 45442, Note_on_c, 3, 51, 127
2, 45442, Note_on_c, 0, 60, 127
2, 45442, Note_on_c, 5, 65, 127
2, 45442, Note_on_c, 11, 70, 127
2, 45442, Note_on_c, 0, 72, 127
2, 45826, Note_off_c, 0, 60, 127
2, 45828, Note_on_c, 2, 62, 127
2, 46092, Note_off_c, 5, 41, 127
2, 46092, Note_off_c, 5, 53, 127
2, 46142, Note_off_c, 0, 72, 127
2, 46142, Note_off_c, 11, 70, 127
2, 46142, Note_off_c, 5, 65, 127
2, 46142, Note_off_c, 3, 51, 127
2, 46142, Note_off_c, 0, 48, 127
2, 46144, Note_on_c, 5, 53, 127
2, 46144, Note_on_c, 5, 41, 127
2, 46212, Note_off_c, 2, 62, 127
2, 46270, Note_on_c, 0, 72, 127
2, 46270, Note_on_c, 10, 69, 127
2, 46270, Note_on_c, 5, 65, 127
2, 46270, Note_on_c, 3, 63, 127
2, 46270, Note_on_c, 0, 48, 127
2, 46270, Note_on_c, 3, 51, 127
2, 46528, Note_off_c, 5, 53, 127
2, 46657, Note_on_c, 7, 55, 127
2, 46864, Note_off_c, 5, 41, 127
2, 46970, Note_off_c, 3, 51, 127
2, 46970, Note_off_c, 0, 48, 127
2, 46970, Note_off_c, 3, 63, 127
2, 46970, Note_off_c, 10, 69, 127
2, 46970, Note_off_c, 0, 72, 127
2, 47009, Note_off_c, 7, 55, 127
2, 47010, Note_on_c, 11, 46, 127
2, 47074, Note_on_c, 2, 50, 127
2, 47137, Note_on_c, 5, 53, 127
2, 47201, Note_on_c, 8, 56, 127
2, 47264, Note_on_c, 2, 62, 127
2, 47316, Note_off_c, 5, 65, 127
2, 47328, Note_on_c, 5, 65, 127
2, 47392, Note_on_c, 11, 70, 127
2, 48252, Note_off_c, 2, 62, 127
2, 48256, Note_off_c, 5, 65, 127
2, 48292, Note_off_c, 11, 70, 127
2, 48301, Note_off_c, 8, 56, 127
2, 48309, Note_on_c, 5, 65, 127
2, 48337, Note_off_c, 5, 53, 127
2, 48374, Note_off_c, 2, 50, 127
2, 48380, Note_off_c, 5, 65, 127
2, 48395, Note_on_c, 2, 62, 127
2, 48410, Note_off_c, 11, 46, 127
2, 48466, Note_off_c, 2, 62, 127
2, 48482, Note_on_c, 11, 58, 127
2, 48553, Note_off_c, 11, 58, 127
2, 48568, Note_on_c, 8, 56, 127
2, 48639, Note_off_c, 8, 56, 127
2, 48654, Note_on_c, 11, 58, 127
2, 48725, Note_off_c, 11, 58, 127
2, 48741, Note_on_c, 2, 62, 127
2, 48812, Note_off_c, 2, 62, 127
2, 48827, Note_on_c, 5, 65, 127
2, 48898, Note_off_c, 5, 65, 127
2, 48914, Note_on_c, 2, 62, 127
2, 48985, Note_off_c, 2, 62, 127
2, 49000, Note_on_c, 5, 65, 127
2, 49071, Note_off_c, 5, 65, 127
2, 49086, Note_on_c, 2, 62, 127
2, 49157, Note_off_c, 2, 62, 127
2, 49173, Note_on_c, 11, 58, 127
2, 49244, Note_off_c, 11, 58, 127
2, 49259, Note_on_c, 8, 56, 127
2, 49330, Note_off_c, 8, 56, 127
2, 49345, Note_on_c, 11, 58, 127
2, 49416, Note_off_c, 11, 58, 127
2, 49432, Note_on_c, 2, 62, 127
2, 49503, Note_off_c, 2, 62, 127
2, 49518, Note_on_c, 5, 65, 127
2, 49589, Note_off_c, 5, 65, 127
2, 49605, Note_on_c, 12, 71, 127
2, 49691, Note_on_c, 8, 68, 127
2, 49762, Note_off_c, 8, 68, 127
2, 49777, Note_on_c, 5, 65, 127
2, 49805, Note_off_c, 12, 71, 127
2, 49848, Note_off_c, 5, 65, 127
2, 49864, Note_on_c, 2, 62, 127
2, 49935, Note_off_c, 2, 62, 127
2, 49950, Note_on_c, 12, 59, 127
2, 50037, Note_on_c, 8, 56, 127
2, 50108, Note_off_c, 8, 56, 127
2, 50123, Note_on_c, 5, 53, 127
2, 50150, Note_off_c, 12, 59, 127
2, 50209, Note_on_c, 2, 62, 127
2, 50263, Note_off_c, 5, 53, 127
2, 50280, Note_off_c, 2, 62, 127
2, 50296, Note_on_c, 7, 55, 127
2, 50296, Note_on_c, 3, 63, 127
2, 50356, Note_on_c, 2, 62, 127
2, 50367, Note_off_c, 3, 63, 127
2, 50416, Note_on_c, 3, 63, 127
2, 50427, Note_off_c, 2, 62, 127
2, 50476, Note_on_c, 2, 62, 127
2, 50487, Note_off_c, 3, 63, 127
2, 50536, Note_on_c, 3, 63, 127
2, 50547, Note_off_c, 2, 62, 127
2, 50696, Note_off_c, 7, 55, 127
2, 50935, Note_on_c, 2, 62, 127
2, 50936, Note_off_c, 3, 63, 127
2, 51000, Note_off_c, 2, 62, 127
2, 51013, Note_on_c, 0, 60, 127
2, 51083, Note_off_c, 0, 60, 127
2, 51092, Note_on_c, 2, 62, 127
2, 51162, Note_off_c, 2, 62, 127
2, 51170, Note_on_c, 3, 63, 127
2, 51240, Note_off_c, 3, 63, 127
2, 51248, Note_on_c, 2, 62, 127
2, 51318, Note_off_c, 2, 62, 127
2, 51326, Note_on_c, 0, 60, 127
2, 51396, Note_off_c, 0, 60, 127
2, 51405, Note_on_c, 11, 58, 127
2, 51475, Note_off_c, 11, 58, 127
2, 51483, Note_on_c, 10, 57, 127
2, 51553, Note_off_c, 10, 57, 127
2, 51561, Note_on_c, 11, 58, 127
2, 51631, Note_off_c, 11, 58, 127
2, 51639, Note_on_c, 0, 60, 127
2, 51709, Note_off_c, 0, 60, 127
2, 51718, Note_on_c, 11, 58, 127
2, 51788, Note_off_c, 11, 58, 127
2, 51796, Note_on_c, 10, 57, 127
2, 51866, Note_off_c, 10, 57, 127
2, 51874, Note_on_c, 7, 55, 127
2, 51944, Note_off_c, 7, 55, 127
2, 51952, Note_on_c, 5, 53, 127
2, 52022, Note_off_c, 5, 53, 127
2, 52031, Note_on_c, 7, 55, 127
2, 52101, Note_off_c, 7, 55, 127
2, 52109, Note_on_c, 10, 57, 127
2, 52179, Note_off_c, 10, 57, 127
2, 52187, Note_on_c, 7, 55, 127
2, 52257, Note_off_c, 7, 55, 127
2, 52265, Note_on_c, 5, 53, 127
2, 52335, Note_off_c, 5, 53, 127
2, 52344, Note_on_c, 3, 51, 127
2, 52414, Note_off_c, 3, 51, 127
2, 52422, Note_on_c, 2, 50, 127
2, 52492, Note_off_c, 2, 50, 127
2, 52500, Note_on_c, 3, 51, 127
2, 52570, Note_off_c, 3, 51, 127
2, 52578, Note_on_c, 5, 53, 127
2, 52648, Note_off_c, 5, 53, 127
2, 52657, Note_on_c, 3, 51, 127
2, 52722, Note_off_c, 3, 51, 127
2, 52735, Note_on_c, 2, 50, 127
2, 52800, Note_off_c, 2, 50, 127
2, 52813, Note_on_c, 0, 48, 127
2, 52878, Note_off_c, 0, 48, 127
2, 52891, Note_on_c, 11, 46, 127
2, 52956, Note_off_c, 11, 46, 127
2, 52969, Note_on_c, 10, 45, 127
2, 53034, Note_off_c, 10, 45, 127
2, 53048, Note_on_c, 11, 46, 127
2, 53123, Note_on_c, 2, 50, 127
2, 53138, Note_off_c, 11, 46, 127
2, 53184, Note_off_c, 2, 50, 127
2, 53198, Note_on_c, 5, 53, 127
2, 53259, Note_off_c, 5, 53, 127
2, 53273, Note_on_c, 2, 50, 127
2, 53334, Note_off_c, 2, 50, 127
2, 53348, Note_on_c, 2, 50, 127
2, 53409, Note_off_c, 2, 50, 127
2, 53423, Note_on_c, 5, 53, 127
2, 53484, Note_off_c, 5, 53, 127
2, 53498, Note_on_c, 11, 58, 127
2, 53559, Note_off_c, 11, 58, 127
2, 53573, Note_on_c, 5, 53, 127
2, 53634, Note_off_c, 5, 53, 127
2, 53648, Note_on_c, 5, 53, 127
2, 53709, Note_off_c, 5, 53, 127
2, 53723, Note_on_c, 11, 58, 127
2, 53784, Note_off_c, 11, 58, 127
2, 53798, Note_on_c, 2, 62, 127
2, 53859, Note_off_c, 2, 62, 127
2, 53873, Note_on_c, 11, 58, 127
2, 53934, Note_off_c, 11, 58, 127
2, 53947, Note_on_c, 11, 58, 127
2, 54008, Note_off_c, 11, 58, 127
2, 54022, Note_on_c, 2, 62, 127
2, 54083, Note_off_c, 2, 62, 127
2, 54097, Note_on_c, 5, 65, 127
2, 54158, Note_off_c, 5, 65, 127
2, 54172, Note_on_c, 2, 62, 127
2, 54233, Note_off_c, 2, 62, 127
2, 54247, Note_on_c, 2, 62, 127
2, 54308, Note_off_c, 2, 62, 127
2, 54322, Note_on_c, 5, 65, 127
2, 54383, Note_off_c, 5, 65, 127
2, 54397, Note_on_c, 11, 70, 127
2, 54458, Note_off_c, 11, 70, 127
2, 54472, Note_on_c, 5, 65, 127
2, 54533, Note_off_c, 5, 65, 127
2, 54547, Note_on_c, 5, 65, 127
2, 54608, Note_off_c, 5, 65, 127
2, 54622, Note_on_c, 11, 70, 127
2, 54683, Note_off_c, 11, 70, 127
2, 54697, Note_on_c, 2, 74, 127
2, 54758, Note_off_c, 2, 74, 127
2, 54772, Note_on_c, 11, 70, 127
2, 54833, Note_off_c, 11, 70, 127
2, 54847, Note_on_c, 11, 70, 127
2, 54908, Note_off_c, 11, 70, 127
2, 54922, Note_on_c, 2, 74, 127
2, 54983, Note_off_c, 2, 74, 127
2, 54997, Note_on_c, 5, 77, 127
2, 55058, Note_off_c, 5, 77, 127
2, 55072, Note_on_c, 2, 74, 127
2, 55133, Note_off_c, 2, 74, 127
2, 55147, Note_on_c, 11, 82, 127
2, 57047, Note_off_c, 11, 82, 127
2, 57385, Note_on_c, 5, 65, 127
2, 57719, Note_off_c, 5, 65, 127
2, 57723, Note_on_c, 7, 67, 127
2, 58057, Note_off_c, 7, 67, 127
2, 58061, Note_on_c, 5, 65, 127
2, 58395, Note_off_c, 5, 65, 127
2, 58399, Note_on_c, 11, 70, 127
2, 58733, Note_off_c, 11, 70, 127
2, 58737, Note_on_c, 2, 62, 127
2, 59071, Note_off_c, 2, 62, 127
2, 59075, Note_on_c, 0, 60, 127
2, 59355, Note_off_c, 0, 60, 127
2, 59413, Note_on_c, 10, 69, 127
2, 59578, Note_off_c, 10, 69, 127
2, 59582, Note_on_c, 7, 67, 127
2, 59747, Note_off_c, 7, 67, 127
2, 59751, Note_on_c, 11, 70, 127
2, 59916, Note_off_c, 11, 70, 127
2, 59920, Note_on_c, 10, 69, 127
2, 60085, Note_off_c, 10, 69, 127
2, 60089, Note_on_c, 7, 67, 127
2, 60254, Note_off_c, 7, 67, 127
2, 60258, Note_on_c, 5, 65, 127
2, 60423, Note_off_c, 5, 65, 127
2, 60427, Note_on_c, 0, 72, 127
2, 60761, Note_off_c, 0, 72, 127
2, 60765, Note_on_c, 3, 63, 127
2, 61099, Note_off_c, 3, 63, 127
2, 61103, Note_on_c, 2, 62, 127
2, 61393, Note_off_c, 2, 62, 127
2, 61440, Note_on_c, 11, 70, 127
2, 61605, Note_off_c, 11, 70, 127
2, 61609, Note_on_c, 0, 72, 127
2, 61774, Note_off_c, 0, 72, 127
2, 61778, Note_on_c, 10, 69, 127
2, 61943, Note_off_c, 10, 69, 127
2, 61947, Note_on_c, 11, 70, 127
2, 62112, Note_off_c, 11, 70, 127
2, 62116, Note_on_c, 0, 72, 127
2, 62281, Note_off_c, 0, 72, 127
2, 62285, Note_on_c, 2, 74, 127
2, 62450, Note_off_c, 2, 74, 127
2, 62454, Note_on_c, 3, 75, 127
2, 62619, Note_off_c, 3, 75, 127
2, 62623, Note_on_c, 2, 74, 127
2, 62788, Note_off_c, 2, 74, 127
2, 62792, Note_on_c, 0, 72, 127
2, 62957, Note_off_c, 0, 72, 127
2, 62961, Note_on_c, 3, 75, 127
2, 63126, Note_off_c, 3, 75, 127
2, 63130, Note_on_c, 2, 74, 127
2, 63295, Note_off_c, 2, 74, 127
2, 63299, Note_on_c, 0, 72, 127
2, 63464, Note_off_c, 0, 72, 127
2, 63468, Note_on_c, 11, 70, 127
2, 63633, Note_off_c, 11, 70, 127
2, 63637, Note_on_c, 0, 72, 127
2, 63802, Note_off_c, 0, 72, 127
2, 63806, Note_on_c, 10, 69, 127
2, 63971, Note_off_c, 10, 69, 127
2, 63975, Note_on_c, 11, 70, 127
2, 64140, Note_off_c, 11, 70, 127
2, 64144, Note_on_c, 0, 72, 127
2, 64309, Note_off_c, 0, 72, 127
2, 64313, Note_on_c, 2, 74, 127
2, 64478, Note_off_c, 2, 74, 127
2, 64482, Note_on_c, 3, 75, 127
2, 64647, Note_off_c, 3, 75, 127
2, 64651, Note_on_c, 2, 74, 127
2, 64816, Note_off_c, 2, 74, 127
2, 64820, Note_on_c, 0, 72, 127
2, 64985, Note_off_c, 0, 72, 127
2, 64989, Note_on_c, 3, 75, 127
2, 65154, Note_off_c, 3, 75, 127
2, 65158, Note_on_c, 3, 75, 127
2, 65228, Note_on_c, 2, 74, 127
2, 65238, Note_off_c, 3, 75, 127
2, 65298, Note_on_c, 3, 75, 127
2, 65308, Note_off_c, 2, 74, 127
2, 65369, Note_on_c, 2, 74, 127
2, 65378, Note_off_c, 3, 75, 127
2, 65496, Note_on_c, 11, 58, 127
2, 65657, Note_off_c, 2, 74, 127
2, 65664, Note_on_c, 0, 72, 127
2, 65829, Note_off_c, 0, 72, 127
2, 65830, Note_off_c, 11, 58, 127
2, 65833, Note_on_c, 11, 70, 127
2, 65833, Note_on_c, 2, 62, 127
2, 65998, Note_off_c, 11, 70, 127
2, 66002, Note_on_c, 10, 69, 127
2, 66167, Note_off_c, 10, 69, 127
2, 66167, Note_off_c, 2, 62, 127
2, 66171, Note_on_c, 11, 70, 127
2, 66171, Note_on_c, 11, 58, 127
2, 66336, Note_off_c, 11, 70, 127
2, 66340, Note_on_c, 0, 72, 127
2, 66505, Note_off_c, 0, 72, 127
2, 66505, Note_off_c, 11, 58, 127
2, 66509, Note_on_c, 2, 74, 127
2, 66509, Note_on_c, 5, 65, 127
2, 66843, Note_off_c, 5, 65, 127
2, 66843, Note_off_c, 2, 74, 127
2, 66847, Note_on_c, 5, 77, 127
2, 66847, Note_on_c, 10, 57, 127
2, 67181, Note_off_c, 10, 57, 127
2, 67185, Note_on_c, 7, 55, 127
2, 67485, Note_off_c, 7, 55, 127
2, 67523, Note_on_c, 11, 70, 127
2, 67523, Note_on_c, 4, 64, 127
2, 67529, Note_off_c, 5, 77, 127
2, 67688, Note_off_c, 4, 64, 127
2, 67692, Note_on_c, 2, 62, 127
2, 67857, Note_off_c, 2, 62, 127
2, 67857, Note_off_c, 11, 70, 127
2, 67861, Note_on_c, 10, 69, 127
2, 67861, Note_on_c, 5, 65, 127
2, 68026, Note_off_c, 5, 65, 127
2, 68030, Note_on_c, 4, 64, 127
2, 68195, Note_off_c, 4, 64, 127
2, 68195, Note_off_c, 10, 69, 127
2, 68199, Note_on_c, 11, 70, 127
2, 68199, Note_on_c, 2, 62, 127
2, 68364, Note_off_c, 2, 62, 127
2, 68368, Note_on_c, 0, 60, 127
2, 68533, Note_off_c, 0, 60, 127
2, 68533, Note_off_c, 11, 70, 127
2, 68537, Note_on_c, 4, 76, 127
2, 68537, Note_on_c, 7, 67, 127
2, 68871, Note_off_c, 7, 67, 127
2, 68871, Note_off_c, 4, 76, 127
2, 68875, Note_on_c, 7, 79, 127
2, 68875, Note_on_c, 11, 58, 127
2, 69195, Note_off_c, 7, 79, 127
2, 69209, Note_off_c, 11, 58, 127
2, 69213, Note_on_c, 10, 57, 127
2, 69513, Note_off_c, 10, 57, 127
2, 69551, Note_on_c, 10, 69, 127
2, 69551, Note_on_c, 5, 65, 127
2, 69716, Note_off_c, 5, 65, 127
2, 69716, Note_off_c, 10, 69, 127
2, 69720, Note_on_c, 11, 70, 127
2, 69720, Note_on_c, 7, 67, 127
2, 69885, Note_off_c, 7, 67, 127
2, 69885, Note_off_c, 11, 70, 127
2, 69888, Note_on_c, 0, 72, 127
2, 69888, Note_on_c, 4, 64, 127
2, 70053, Note_off_c, 4, 64, 127
2, 70057, Note_on_c, 5, 65, 127
2, 70222, Note_off_c, 5, 65, 127
2, 70222, Note_off_c, 0, 72, 127
2, 70226, Note_on_c, 0, 72, 127
2, 70226, Note_on_c, 7, 67, 127
2, 70391, Note_off_c, 7, 67, 127
2, 70395, Note_on_c, 10, 69, 127
2, 70560, Note_off_c, 10, 69, 127
2, 70560, Note_off_c, 0, 72, 127
2, 70564, Note_on_c, 0, 72, 127
2, 70564, Note_on_c, 11, 70, 127
2, 70729, Note_off_c, 11, 70, 127
2, 70733, Note_on_c, 10, 69, 127
2, 70898, Note_off_c, 10, 69, 127
2, 70898, Note_off_c, 0, 72, 127
2, 70902, Note_on_c, 0, 72, 127
2, 70902, Note_on_c, 7, 67, 127
2, 71067, Note_off_c, 7, 67, 127
2, 71071, Note_on_c, 11, 70, 127
2, 71236, Note_off_c, 11, 70, 127
2, 71236, Note_off_c, 0, 72, 127
2, 71240, Note_on_c, 0, 72, 127
2, 71240, Note_on_c, 10, 69, 127
2, 71405, Note_off_c, 10, 69, 127
2, 71405, Note_off_c, 0, 72, 127
2, 71409, Note_on_c, 11, 70, 127
2, 71409, Note_on_c, 7, 67, 127
2, 71574, Note_off_c, 7, 67, 127
2, 71574, Note_off_c, 11, 70, 127
2, 71578, Note_on_c, 10, 69, 127
2, 71578, Note_on_c, 5, 65, 127
2, 71743, Note_off_c, 5, 65, 127
2, 71743, Note_off_c, 10, 69, 127
2, 71747, Note_on_c, 11, 70, 127
2, 71747, Note_on_c, 7, 67, 127
2, 71912, Note_off_c, 7, 67, 127
2, 71912, Note_off_c, 11, 70, 127
2, 71916, Note_on_c, 0, 72, 127
2, 71916, Note_on_c, 4, 64, 127
2, 72081, Note_off_c, 4, 64, 127
2, 72085, Note_on_c, 5, 65, 127
2, 72250, Note_off_c, 5, 65, 127
2, 72250, Note_off_c, 0, 72, 127
2, 72254, Note_on_c, 0, 72, 127
2, 72254, Note_on_c, 7, 67, 127
2, 72419, Note_off_c, 7, 67, 127
2, 72423, Note_on_c, 10, 69, 127
2, 72588, Note_off_c, 10, 69, 127
2, 72588, Note_off_c, 0, 72, 127
2, 72592, Note_on_c, 0, 72, 127
2, 72592, Note_on_c, 11, 70, 127
2, 72757, Note_off_c, 11, 70, 127
2, 72761, Note_on_c, 10, 69, 127
2, 72926, Note_off_c, 10, 69, 127
2, 72926, Note_off_c, 0, 72, 127
2, 72930, Note_on_c, 0, 72, 127
2, 72930, Note_on_c, 7, 67, 127
2, 73095, Note_off_c, 7, 67, 127
2, 73099, Note_on_c, 11, 70, 127
2, 73264, Note_off_c, 11, 70, 127
2, 73264, Note_off_c, 0, 72, 127
2, 73268, Note_on_c, 0, 72, 127
2, 73268, Note_on_c, 11, 70, 127
2, 73348, Note_off_c, 11, 70, 127
2, 73349, Note_on_c, 10, 69, 127
2, 73429, Note_off_c, 10, 69, 127
2, 73430, Note_on_c, 11, 70, 127
2, 73510, Note_off_c, 11, 70, 127
2, 73511, Note_on_c, 10, 69, 127
2, 73606, Note_on_c, 5, 53, 127
2, 73769, Note_off_c, 10, 69, 127
2, 73775, Note_on_c, 7, 67, 127
2, 73940, Note_off_c, 7, 67, 127
2, 73940, Note_off_c, 5, 53, 127
2, 73944, Note_on_c, 5, 65, 127
2, 73944, Note_on_c, 7, 55, 127
2, 74109, Note_off_c, 5, 65, 127
2, 74112, Note_on_c, 3, 63, 127
2, 74277, Note_off_c, 3, 63, 127
2, 74278, Note_off_c, 7, 55, 127
2, 74281, Note_on_c, 2, 62, 127
2, 74281, Note_on_c, 5, 53, 127
2, 74446, Note_off_c, 2, 62, 127
2, 74450, Note_on_c, 3, 63, 127
2, 74615, Note_off_c, 3, 63, 127
2, 74615, Note_off_c, 5, 53, 127
2, 74617, Note_off_c, 0, 72, 127
2, 74619, Note_on_c, 5, 65, 127
2, 74619, Note_on_c, 11, 58, 127
2, 74788, Note_on_c, 2, 74, 127
2, 74953, Note_off_c, 2, 74, 127
2, 74953, Note_off_c, 11, 58, 127
2, 74953, Note_off_c, 5, 65, 127
2, 74957, Note_on_c, 11, 70, 127
2, 74957, Note_on_c, 2, 50, 127
2, 75126, Note_on_c, 2, 74, 127
2, 75291, Note_off_c, 2, 74, 127
2, 75291, Note_off_c, 2, 50, 127
2, 75295, Note_on_c, 3, 75, 127
2, 75295, Note_on_c, 0, 48, 127
2, 75595, Note_off_c, 0, 48, 127
2, 75633, Note_on_c, 3, 63, 127
2, 75633, Note_on_c, 10, 57, 127
2, 75641, Note_off_c, 11, 70, 127
2, 75798, Note_off_c, 10, 57, 127
2, 75802, Note_on_c, 7, 55, 127
2, 75967, Note_off_c, 7, 55, 127
2, 75967, Note_off_c, 3, 63, 127
2, 75971, Note_on_c, 2, 62, 127
2, 75971, Note_on_c, 11, 58, 127
2, 76136, Note_off_c, 11, 58, 127
2, 76140, Note_on_c, 10, 57, 127
2, 76305, Note_off_c, 10, 57, 127
2, 76305, Note_off_c, 2, 62, 127
2, 76309, Note_on_c, 3, 63, 127
2, 76309, Note_on_c, 7, 55, 127
2, 76474, Note_off_c, 7, 55, 127
2, 76478, Note_on_c, 5, 53, 127
2, 76643, Note_off_c, 5, 53, 127
2, 76643, Note_off_c, 3, 63, 127
2, 76644, Note_off_c, 3, 75, 127
2, 76647, Note_on_c, 10, 69, 127
2, 76647, Note_on_c, 0, 60, 127
2, 76816, Note_on_c, 3, 75, 127
2, 76981, Note_off_c, 3, 75, 127
2, 76981, Note_off_c, 0, 60, 127
2, 76981, Note_off_c, 10, 69, 127
2, 76985, Note_on_c, 0, 72, 127
2, 76985, Note_on_c, 3, 51, 127
2, 77154, Note_on_c, 3, 75, 127
2, 77319, Note_off_c, 3, 75, 127
2, 77319, Note_off_c, 3, 51, 127
2, 77323, Note_on_c, 5, 77, 127
2, 77323, Note_on_c, 2, 50, 127
2, 77623, Note_off_c, 2, 50, 127
2, 77661, Note_on_c, 2, 62, 127
2, 77661, Note_on_c, 11, 58, 127
2, 77667, Note_off_c, 0, 72, 127
2, 77826, Note_off_c, 11, 58, 127
2, 77826, Note_off_c, 2, 62, 127
2, 77830, Note_on_c, 3, 63, 127
2, 77830, Note_on_c, 0, 60, 127
2, 77995, Note_off_c, 0, 60, 127
2, 77995, Note_off_c, 3, 63, 127
2, 77999, Note_on_c, 5, 65, 127
2, 77999, Note_on_c, 10, 57, 127
2, 78164, Note_off_c, 10, 57, 127
2, 78168, Note_on_c, 11, 58, 127
2, 78333, Note_off_c, 11, 58, 127
2, 78333, Note_off_c, 5, 65, 127
2, 78333, Note_off_c, 5, 77, 127
2, 78336, Note_on_c, 10, 69, 127
2, 78336, Note_on_c, 5, 65, 127
2, 78336, Note_on_c, 0, 60, 127
2, 78501, Note_off_c, 0, 60, 127
2, 78501, Note_off_c, 10, 69, 127
2, 78505, Note_on_c, 11, 70, 127
2, 78505, Note_on_c, 2, 62, 127
2, 78670, Note_off_c, 2, 62, 127
2, 78670, Note_off_c, 11, 70, 127
2, 78670, Note_off_c, 5, 65, 127
2, 78674, Note_on_c, 0, 72, 127
2, 78674, Note_on_c, 5, 65, 127
2, 78674, Note_on_c, 3, 63, 127
2, 78839, Note_off_c, 3, 63, 127
2, 78839, Note_off_c, 0, 72, 127
2, 78843, Note_on_c, 11, 70, 127
2, 78843, Note_on_c, 2, 62, 127
2, 79008, Note_off_c, 2, 62, 127
2, 79008, Note_off_c, 11, 70, 127
2, 79008, Note_off_c, 5, 65, 127
2, 79012, Note_on_c, 10, 69, 127
2, 79012, Note_on_c, 5, 65, 127
2, 79012, Note_on_c, 0, 60, 127
2, 79177, Note_off_c, 0, 60, 127
2, 79177, Note_off_c, 10, 69, 127
2, 79181, Note_on_c, 0, 72, 127
2, 79181, Note_on_c, 3, 63, 127
2, 79346, Note_off_c, 3, 63, 127
2, 79346, Note_off_c, 0, 72, 127
2, 79346, Note_off_c, 5, 65, 127
2, 79350, Note_on_c, 11, 70, 127
2, 79350, Note_on_c, 5, 65, 127
2, 79350, Note_on_c, 2, 62, 127
2, 79515, Note_off_c, 2, 62, 127
2, 79515, Note_off_c, 5, 65, 127
2, 79519, Note_on_c, 3, 63, 127
2, 79519, Note_on_c, 0, 60, 127
2, 79684, Note_off_c, 0, 60, 127
2, 79684, Note_off_c, 3, 63, 127
2, 79688, Note_on_c, 2, 62, 127
2, 79688, Note_on_c, 11, 58, 127
2, 79853, Note_off_c, 11, 58, 127
2, 79853, Note_off_c, 2, 62, 127
2, 79857, Note_on_c, 3, 63, 127
2, 79857, Note_on_c, 0, 60, 127
2, 80018, Note_off_c, 11, 70, 127
2, 80022, Note_off_c, 0, 60, 127
2, 80022, Note_off_c, 3, 63, 127
2, 80026, Note_on_c, 5, 65, 127
2, 80026, Note_on_c, 10, 57, 127
2, 80191, Note_off_c, 10, 57, 127
2, 80195, Note_on_c, 11, 58, 127
2, 80360, Note_off_c, 11, 58, 127
2, 80360, Note_off_c, 5, 65, 127
2, 80364, Note_on_c, 10, 69, 127
2, 80364, Note_on_c, 5, 65, 127
2, 80364, Note_on_c, 0, 60, 127
2, 80529, Note_off_c, 0, 60, 127
2, 80529, Note_off_c, 10, 69, 127
2, 80533, Note_on_c, 11, 70, 127
2, 80533, Note_on_c, 2, 62, 127
2, 80698, Note_off_c, 2, 62, 127
2, 80698, Note_off_c, 11, 70, 127
2, 80698, Note_off_c, 5, 65, 127
2, 80702, Note_on_c, 0, 72, 127
2, 80702, Note_on_c, 5, 65, 127
2, 80702, Note_on_c, 3, 63, 127
2, 80867, Note_off_c, 3, 63, 127
2, 80867, Note_off_c, 0, 72, 127
2, 80871, Note_on_c, 11, 70, 127
2, 80871, Note_on_c, 2, 62, 127
2, 81036, Note_off_c, 2, 62, 127
2, 81036, Note_off_c, 11, 70, 127
2, 81036, Note_off_c, 5, 65, 127
2, 81040, Note_on_c, 10, 69, 127
2, 81040, Note_on_c, 5, 65, 127
2, 81040, Note_on_c, 0, 60, 127
2, 81205, Note_off_c, 0, 60, 127
2, 81205, Note_off_c, 10, 69, 127
2, 81209, Note_on_c, 0, 72, 127
2, 81209, Note_on_c, 3, 63, 127
2, 81374, Note_off_c, 3, 63, 127
2, 81374, Note_off_c, 0, 72, 127
2, 81374, Note_off_c, 5, 65, 127
2, 81378, Note_on_c, 11, 70, 127
2, 81378, Note_on_c, 5, 65, 127
2, 81378, Note_on_c, 3, 63, 127
2, 81543, Note_off_c, 3, 63, 127
2, 81547, Note_on_c, 2, 62, 127
2, 81712, Note_off_c, 2, 62, 127
2, 81712, Note_off_c, 11, 70, 127
2, 81716, Note_on_c, 11, 70, 127
2, 81716, Note_on_c, 2, 50, 127
2, 81881, Note_off_c, 2, 50, 127
2, 81885, Note_on_c, 0, 48, 127
2, 82050, Note_off_c, 0, 48, 127
2, 82050, Note_off_c, 11, 70, 127
2, 82054, Note_on_c, 2, 74, 127
2, 82054, Note_on_c, 11, 46, 127
2, 82219, Note_off_c, 11, 46, 127
2, 82223, Note_on_c, 10, 45, 127
2, 82388, Note_off_c, 10, 45, 127
2, 82388, Note_off_c, 2, 74, 127
2, 82392, Note_on_c, 11, 70, 127
2, 82392, Note_on_c, 11, 46, 127
2, 82557, Note_off_c, 11, 46, 127
2, 82560, Note_on_c, 0, 48, 127
2, 82725, Note_off_c, 0, 48, 127
2, 82726, Note_off_c, 11, 70, 127
2, 82727, Note_off_c, 5, 65, 127
2, 82729, Note_on_c, 5, 77, 127
2, 82729, Note_on_c, 2, 50, 127
2, 82898, Note_on_c, 10, 57, 127
2, 83063, Note_off_c, 10, 57, 127
2, 83063, Note_off_c, 2, 50, 127
2, 83063, Note_off_c, 5, 77, 127
2, 83067, Note_on_c, 10, 69, 127
2, 83067, Note_on_c, 5, 53, 127
2, 83236, Note_on_c, 10, 57, 127
2, 83401, Note_off_c, 10, 57, 127
2, 83401, Note_off_c, 5, 53, 127
2, 83401, Note_off_c, 10, 69, 127
2, 83405, Note_on_c, 7, 67, 127
2, 83405, Note_on_c, 11, 58, 127
2, 83739, Note_off_c, 7, 67, 127
2, 83743, Note_on_c, 4, 76, 127
2, 83743, Note_on_c, 11, 46, 127
2, 83908, Note_off_c, 4, 76, 127
2, 83912, Note_on_c, 2, 74, 127
2, 84073, Note_off_c, 11, 58, 127
2, 84077, Note_off_c, 2, 74, 127
2, 84077, Note_off_c, 11, 46, 127
2, 84081, Note_on_c, 5, 77, 127
2, 84081, Note_on_c, 10, 45, 127
2, 84246, Note_off_c, 5, 77, 127
2, 84250, Note_on_c, 4, 76, 127
2, 84415, Note_off_c, 4, 76, 127
2, 84415, Note_off_c, 10, 45, 127
2, 84419, Note_on_c, 2, 74, 127
2, 84419, Note_on_c, 11, 46, 127
2, 84584, Note_off_c, 2, 74, 127
2, 84588, Note_on_c, 0, 72, 127
2, 84753, Note_off_c, 0, 72, 127
2, 84753, Note_off_c, 11, 46, 127
2, 84757, Note_on_c, 7, 79, 127
2, 84757, Note_on_c, 4, 52, 127
2, 84926, Note_on_c, 11, 58, 127
2, 85091, Note_off_c, 11, 58, 127
2, 85091, Note_off_c, 4, 52, 127
2, 85091, Note_off_c, 7, 79, 127
2, 85095, Note_on_c, 11, 70, 127
2, 85095, Note_on_c, 7, 55, 127
2, 85264, Note_on_c, 11, 58, 127
2, 85429, Note_off_c, 11, 58, 127
2, 85429, Note_off_c, 7, 55, 127
2, 85429, Note_off_c, 11, 70, 127
2, 85433, Note_on_c, 10, 69, 127
2, 85433, Note_on_c, 0, 60, 127
2, 85767, Note_off_c, 0, 60, 127
2, 85767, Note_off_c, 10, 69, 127
2, 85771, Note_on_c, 5, 77, 127
2, 85771, Note_on_c, 10, 45, 127
2, 85936, Note_off_c, 10, 45, 127
2, 85936, Note_off_c, 5, 77, 127
2, 85940, Note_on_c, 7, 79, 127
2, 85940, Note_on_c, 11, 46, 127
2, 86105, Note_off_c, 11, 46, 127
2, 86105, Note_off_c, 7, 79, 127
2, 86109, Note_on_c, 4, 76, 127
2, 86109, Note_on_c, 0, 48, 127
2, 86274, Note_off_c, 4, 76, 127
2, 86278, Note_on_c, 5, 77, 127
2, 86443, Note_off_c, 5, 77, 127
2, 86443, Note_off_c, 0, 48, 127
2, 86447, Note_on_c, 7, 79, 127
2, 86447, Note_on_c, 4, 52, 127
2, 86447, Note_on_c, 0, 48, 127
2, 86612, Note_off_c, 4, 52, 127
2, 86612, Note_off_c, 7, 79, 127
2, 86616, Note_on_c, 10, 81, 127
2, 86616, Note_on_c, 5, 53, 127
2, 86781, Note_off_c, 5, 53, 127
2, 86781, Note_off_c, 10, 81, 127
2, 86781, Note_off_c, 0, 48, 127
2, 86784, Note_on_c, 11, 82, 127
2, 86784, Note_on_c, 7, 55, 127
2, 86784, Note_on_c, 0, 48, 127
2, 86949, Note_off_c, 7, 55, 127
2, 86949, Note_off_c, 11, 82, 127
2, 86953, Note_on_c, 10, 81, 127
2, 86953, Note_on_c, 5, 53, 127
2, 87118, Note_off_c, 5, 53, 127
2, 87118, Note_off_c, 10, 81, 127
2, 87118, Note_off_c, 0, 48, 127
2, 87122, Note_on_c, 7, 79, 127
2, 87122, Note_on_c, 4, 52, 127
2, 87122, Note_on_c, 0, 48, 127
2, 87287, Note_off_c, 4, 52, 127
2, 87287, Note_off_c, 7, 79, 127
2, 87291, Note_on_c, 11, 82, 127
2, 87291, Note_on_c, 7, 55, 127
2, 87456, Note_off_c, 7, 55, 127
2, 87456, Note_off_c, 11, 82, 127
2, 87456, Note_off_c, 0, 48, 127
2, 87460, Note_on_c, 10, 81, 127
2, 87460, Note_on_c, 5, 53, 127
2, 87460, Note_on_c, 0, 48, 127
2, 87625, Note_off_c, 0, 48, 127
2, 87625, Note_off_c, 10, 81, 127
2, 87629, Note_on_c, 7, 79, 127
2, 87629, Note_on_c, 11, 46, 127
2, 87794, Note_off_c, 11, 46, 127
2, 87794, Note_off_c, 7, 79, 127
2, 87798, Note_on_c, 5, 77, 127
2, 87798, Note_on_c, 10, 45, 127
2, 87963, Note_off_c, 10, 45, 127
2, 87963, Note_off_c, 5, 77, 127
2, 87967, Note_on_c, 7, 79, 127
2, 87967, Note_on_c, 11, 46, 127
2, 88128, Note_off_c, 5, 53, 127
2, 88132, Note_off_c, 11, 46, 127
2, 88132, Note_off_c, 7, 79, 127
2, 88136, Note_on_c, 4, 76, 127
2, 88136, Note_on_c, 0, 48, 127
2, 88301, Note_off_c, 4, 76, 127
2, 88305, Note_on_c, 5, 77, 127
2, 88470, Note_off_c, 5, 77, 127
2, 88470, Note_off_c, 0, 48, 127
2, 88474, Note_on_c, 7, 79, 127
2, 88474, Note_on_c, 4, 52, 127
2, 88474, Note_on_c, 0, 48, 127
2, 88639, Note_off_c, 4, 52, 127
2, 88639, Note_off_c, 7, 79, 127
2, 88643, Note_on_c, 10, 81, 127
2, 88643, Note_on_c, 5, 53, 127
2, 88808, Note_off_c, 5, 53, 127
2, 88808, Note_off_c, 10, 81, 127
2, 88808, Note_off_c, 0, 48, 127
2, 88812, Note_on_c, 11, 82, 127
2, 88812, Note_on_c, 7, 55, 127
2, 88812, Note_on_c, 0, 48, 127
2, 88977, Note_off_c, 7, 55, 127
2, 88977, Note_off_c, 11, 82, 127
2, 88981, Note_on_c, 10, 81, 127
2, 88981, Note_on_c, 5, 53, 127
2, 89146, Note_off_c, 5, 53, 127
2, 89146, Note_off_c, 10, 81, 127
2, 89146, Note_off_c, 0, 48, 127
2, 89150, Note_on_c, 7, 79, 127
2, 89150, Note_on_c, 4, 52, 127
2, 89150, Note_on_c, 0, 48, 127
2, 89315, Note_off_c, 4, 52, 127
2, 89315, Note_off_c, 7, 79, 127
2, 89319, Note_on_c, 11, 82, 127
2, 89319, Note_on_c, 7, 55, 127
2, 89484, Note_off_c, 7, 55, 127
2, 89484, Note_off_c, 11, 82, 127
2, 89484, Note_off_c, 0, 48, 127
2, 89488, Note_on_c, 10, 81, 127
2, 89488, Note_on_c, 5, 53, 127
2, 89488, Note_on_c, 5, 41, 127
2, 89653, Note_off_c, 5, 41, 127
2, 89653, Note_off_c, 5, 53, 127
2, 89653, Note_off_c, 10, 81, 127
2, 89657, Note_on_c, 11, 82, 127
2, 89657, Note_on_c, 10, 57, 127
2, 89822, Note_off_c, 10, 57, 127
2, 89822, Note_off_c, 11, 82, 127
2, 89826, Note_on_c, 10, 81, 127
2, 89826, Note_on_c, 11, 58, 127
2, 89991, Note_off_c, 11, 58, 127
2, 89991, Note_off_c, 10, 81, 127
2, 89995, Note_on_c, 7, 79, 127
2, 89995, Note_on_c, 0, 60, 127
2, 90160, Note_off_c, 0, 60, 127
2, 90160, Note_off_c, 7, 79, 127
2, 90164, Note_on_c, 6, 78, 127
2, 90164, Note_on_c, 2, 62, 127
2, 90329, Note_off_c, 6, 78, 127
2, 90333, Note_on_c, 7, 79, 127
2, 90498, Note_off_c, 7, 79, 127
2, 90498, Note_off_c, 2, 62, 127
2, 90502, Note_on_c, 10, 81, 127
2, 90502, Note_on_c, 2, 62, 127
2, 90502, Note_on_c, 6, 54, 127
2, 90667, Note_off_c, 6, 54, 127
2, 90667, Note_off_c, 10, 81, 127
2, 90671, Note_on_c, 11, 82, 127
2, 90671, Note_on_c, 7, 55, 127
2, 90836, Note_off_c, 7, 55, 127
2, 90836, Note_off_c, 11, 82, 127
2, 90836, Note_off_c, 2, 62, 127
2, 90840, Note_on_c, 0, 84, 127
2, 90840, Note_on_c, 2, 62, 127
2, 90840, Note_on_c, 10, 57, 127
2, 91005, Note_off_c, 10, 57, 127
2, 91005, Note_off_c, 0, 84, 127
2, 91008, Note_on_c, 11, 82, 127
2, 91008, Note_on_c, 7, 55, 127
2, 91173, Note_off_c, 7, 55, 127
2, 91173, Note_off_c, 11, 82, 127
2, 91174, Note_off_c, 2, 62, 127
2, 91177, Note_on_c, 10, 81, 127
2, 91177, Note_on_c, 2, 62, 127
2, 91177, Note_on_c, 6, 54, 127
2, 91342, Note_off_c, 6, 54, 127
2, 91342, Note_off_c, 10, 81, 127
2, 91346, Note_on_c, 0, 84, 127
2, 91346, Note_on_c, 10, 57, 127
2, 91511, Note_off_c, 10, 57, 127
2, 91511, Note_off_c, 0, 84, 127
2, 91511, Note_off_c, 2, 62, 127
2, 91515, Note_on_c, 11, 82, 127
2, 91515, Note_on_c, 2, 62, 127
2, 91515, Note_on_c, 7, 55, 127
2, 91680, Note_off_c, 2, 62, 127
2, 91680, Note_off_c, 11, 82, 127
2, 91684, Note_on_c, 10, 81, 127
2, 91684, Note_on_c, 0, 60, 127
2, 91849, Note_off_c, 0, 60, 127
2, 91849, Note_off_c, 10, 81, 127
2, 91853, Note_on_c, 7, 79, 127
2, 91853, Note_on_c, 11, 58, 127
2, 92018, Note_off_c, 11, 58, 127
2, 92018, Note_off_c, 7, 79, 127
2, 92022, Note_on_c, 10, 81, 127
2, 92022, Note_on_c, 0, 60, 127
2, 92183, Note_off_c, 7, 55, 127
2, 92187, Note_off_c, 0, 60, 127
2, 92187, Note_off_c, 10, 81, 127
2, 92191, Note_on_c, 6, 78, 127
2, 92191, Note_on_c, 2, 62, 127
2, 92356, Note_off_c, 6, 78, 127
2, 92360, Note_on_c, 7, 79, 127
2, 92525, Note_off_c, 7, 79, 127
2, 92525, Note_off_c, 2, 62, 127
2, 92529, Note_on_c, 10, 81, 127
2, 92529, Note_on_c, 2, 62, 127
2, 92529, Note_on_c, 6, 54, 127
2, 92694, Note_off_c, 6, 54, 127
2, 92694, Note_off_c, 10, 81, 127
2, 92698, Note_on_c, 11, 82, 127
2, 92698, Note_on_c, 7, 55, 127
2, 92863, Note_off_c, 7, 55, 127
2, 92863, Note_off_c, 11, 82, 127
2, 92863, Note_off_c, 2, 62, 127
2, 92867, Note_on_c, 0, 84, 127
2, 92867, Note_on_c, 2, 62, 127
2, 92867, Note_on_c, 10, 57, 127
2, 93032, Note_off_c, 10, 57, 127
2, 93032, Note_off_c, 0, 84, 127
2, 93036, Note_on_c, 11, 82, 127
2, 93036, Note_on_c, 7, 55, 127
2, 93201, Note_off_c, 7, 55, 127
2, 93201, Note_off_c, 11, 82, 127
2, 93201, Note_off_c, 2, 62, 127
2, 93205, Note_on_c, 10, 81, 127
2, 93205, Note_on_c, 2, 62, 127
2, 93205, Note_on_c, 6, 54, 127
2, 93370, Note_off_c, 6, 54, 127
2, 93370, Note_off_c, 10, 81, 127
2, 93374, Note_on_c, 0, 84, 127
2, 93374, Note_on_c, 10, 57, 127
2, 93539, Note_off_c, 10, 57, 127
2, 93539, Note_off_c, 0, 84, 127
2, 93539, Note_off_c, 2, 62, 127
2, 93543, Note_on_c, 11, 82, 127
2, 93543, Note_on_c, 2, 62, 127
2, 93543, Note_on_c, 7, 55, 127
2, 93708, Note_off_c, 11, 82, 127
2, 93712, Note_on_c, 10, 81, 127
2, 93877, Note_off_c, 10, 81, 127
2, 93877, Note_off_c, 7, 55, 127
2, 93881, Note_on_c, 7, 79, 127
2, 93881, Note_on_c, 2, 50, 127
2, 94046, Note_off_c, 7, 79, 127
2, 94050, Note_on_c, 5, 77, 127
2, 94211, Note_off_c, 2, 62, 127
2, 94215, Note_off_c, 5, 77, 127
2, 94215, Note_off_c, 2, 50, 127
2, 94219, Note_on_c, 3, 75, 127
2, 94219, Note_on_c, 0, 48, 127
2, 94384, Note_off_c, 3, 75, 127
2, 94388, Note_on_c, 5, 77, 127
2, 94553, Note_off_c, 5, 77, 127
2, 94553, Note_off_c, 0, 48, 127
2, 94557, Note_on_c, 7, 79, 127
2, 94557, Note_on_c, 2, 50, 127
2, 94722, Note_off_c, 7, 79, 127
2, 94726, Note_on_c, 10, 81, 127
2, 94891, Note_off_c, 10, 81, 127
2, 94891, Note_off_c, 2, 50, 127
2, 94895, Note_on_c, 11, 82, 127
2, 94895, Note_on_c, 7, 43, 127
2, 95060, Note_off_c, 11, 82, 127
2, 95064, Note_on_c, 10, 81, 127
2, 95229, Note_off_c, 10, 81, 127
2, 95229, Note_off_c, 7, 43, 127
2, 95232, Note_on_c, 7, 79, 127
2, 95232, Note_on_c, 3, 51, 127
2, 95397, Note_off_c, 7, 79, 127
2, 95401, Note_on_c, 11, 82, 127
2, 95566, Note_off_c, 11, 82, 127
2, 95566, Note_off_c, 3, 51, 127
2, 95570, Note_on_c, 10, 81, 127
2, 95570, Note_on_c, 5, 53, 127
2, 95735, Note_off_c, 10, 81, 127
2, 95739, Note_on_c, 7, 79, 127
2, 95904, Note_off_c, 7, 79, 127
2, 95904, Note_off_c, 5, 53, 127
2, 95908, Note_on_c, 5, 77, 127
2, 95908, Note_on_c, 0, 48, 127
2, 96073, Note_off_c, 5, 77, 127
2, 96077, Note_on_c, 3, 75, 127
2, 96242, Note_off_c, 3, 75, 127
2, 96242, Note_off_c, 0, 48, 127
2, 96246, Note_on_c, 2, 74, 127
2, 96246, Note_on_c, 11, 46, 127
2, 96411, Note_off_c, 2, 74, 127
2, 96415, Note_on_c, 3, 75, 127
2, 96580, Note_off_c, 3, 75, 127
2, 96580, Note_off_c, 11, 46, 127
2, 96584, Note_on_c, 5, 77, 127
2, 96584, Note_on_c, 0, 48, 127
2, 96749, Note_off_c, 5, 77, 127
2, 96753, Note_on_c, 7, 79, 127
2, 96918, Note_off_c, 7, 79, 127
2, 96918, Note_off_c, 0, 48, 127
2, 96922, Note_on_c, 10, 81, 127
2, 96922, Note_on_c, 5, 41, 127
2, 97087, Note_off_c, 10, 81, 127
2, 97091, Note_on_c, 7, 79, 127
2, 97256, Note_off_c, 7, 79, 127
2, 97256, Note_off_c, 5, 41, 127
2, 97260, Note_on_c, 5, 77, 127
2, 97260, Note_on_c, 2, 50, 127
2, 97425, Note_off_c, 5, 77, 127
2, 97429, Note_on_c, 10, 81, 127
2, 97594, Note_off_c, 10, 81, 127
2, 97594, Note_off_c, 2, 50, 127
2, 97598, Note_on_c, 7, 79, 127
2, 97598, Note_on_c, 3, 51, 127
2, 97763, Note_off_c, 7, 79, 127
2, 97767, Note_on_c, 5, 77, 127
2, 97932, Note_off_c, 5, 77, 127
2, 97932, Note_off_c, 3, 51, 127
2, 97936, Note_on_c, 3, 75, 127
2, 97936, Note_on_c, 11, 46, 127
2, 98101, Note_off_c, 3, 75, 127
2, 98105, Note_on_c, 2, 74, 127
2, 98270, Note_off_c, 2, 74, 127
2, 98270, Note_off_c, 11, 46, 127
2, 98274, Note_on_c, 0, 72, 127
2, 98274, Note_on_c, 10, 45, 127
2, 98439, Note_off_c, 0, 72, 127
2, 98443, Note_on_c, 2, 74, 127
2, 98608, Note_off_c, 2, 74, 127
2, 98608, Note_off_c, 10, 45, 127
2, 98612, Note_on_c, 3, 75, 127
2, 98612, Note_on_c, 11, 46, 127
2, 98777, Note_off_c, 3, 75, 127
2, 98781, Note_on_c, 5, 77, 127
2, 98946, Note_off_c, 5, 77, 127
2, 98946, Note_off_c, 11, 46, 127
2, 98950, Note_on_c, 7, 79, 127
2, 98950, Note_on_c, 3, 39, 127
2, 99115, Note_off_c, 7, 79, 127
2, 99119, Note_on_c, 6, 78, 127
2, 99284, Note_off_c, 6, 78, 127
2, 99284, Note_off_c, 3, 39, 127
2, 99288, Note_on_c, 4, 76, 127
2, 99288, Note_on_c, 0, 48, 127
2, 99453, Note_off_c, 4, 76, 127
2, 99456, Note_on_c, 7, 79, 127
2, 99621, Note_off_c, 7, 79, 127
2, 99622, Note_off_c, 0, 48, 127
2, 99625, Note_on_c, 6, 78, 127
2, 99625, Note_on_c, 2, 50, 127
2, 99790, Note_off_c, 6, 78, 127
2, 99794, Note_on_c, 4, 76, 127
2, 99959, Note_off_c, 4, 76, 127
2, 99963, Note_on_c, 2, 74, 127
2, 99963, Note_on_c, 2, 62, 127
2, 100117, Note_off_c, 2, 50, 127
2, 100128, Note_off_c, 2, 74, 127
2, 100132, Note_on_c, 0, 72, 127
2, 100297, Note_off_c, 0, 72, 127
2, 100297, Note_off_c, 2, 62, 127
2, 100301, Note_on_c, 11, 70, 127
2, 100301, Note_on_c, 3, 63, 127
2, 100466, Note_off_c, 11, 70, 127
2, 100470, Note_on_c, 10, 69, 127
2, 100635, Note_off_c, 10, 69, 127
2, 100635, Note_off_c, 3, 63, 127
2, 100639, Note_on_c, 11, 70, 127
2, 100639, Note_on_c, 2, 62, 127
2, 100804, Note_off_c, 11, 70, 127
2, 100808, Note_on_c, 0, 72, 127
2, 100973, Note_off_c, 0, 72, 127
2, 100973, Note_off_c, 2, 62, 127
2, 100977, Note_on_c, 2, 74, 127
2, 100977, Note_on_c, 7, 67, 127
2, 101146, Note_on_c, 7, 55, 127
2, 101311, Note_off_c, 7, 55, 127
2, 101311, Note_off_c, 7, 67, 127
2, 101311, Note_off_c, 2, 74, 127
2, 101315, Note_on_c, 7, 79, 127
2, 101315, Note_on_c, 11, 58, 127
2, 101315, Note_on_c, 3, 51, 127
2, 101480, Note_off_c, 3, 51, 127
2, 101484, Note_on_c, 7, 55, 127
2, 101649, Note_off_c, 7, 55, 127
2, 101649, Note_off_c, 11, 58, 127
2, 101653, Note_on_c, 10, 57, 127
2, 101653, Note_on_c, 0, 48, 127
2, 101987, Note_off_c, 10, 57, 127
2, 101987, Note_off_c, 7, 79, 127
2, 101991, Note_on_c, 0, 72, 127
2, 101991, Note_on_c, 6, 66, 127
2, 102005, Note_off_c, 0, 48, 127
2, 102156, Note_off_c, 6, 66, 127
2, 102160, Note_on_c, 4, 64, 127
2, 102325, Note_off_c, 4, 64, 127
2, 102325, Note_off_c, 0, 72, 127
2, 102329, Note_on_c, 11, 70, 127
2, 102329, Note_on_c, 7, 67, 127
2, 102494, Note_off_c, 7, 67, 127
2, 102498, Note_on_c, 6, 66, 127
2, 102663, Note_off_c, 6, 66, 127
2, 102663, Note_off_c, 11, 70, 127
2, 102667, Note_on_c, 0, 72, 127
2, 102667, Note_on_c, 4, 64, 127
2, 102832, Note_off_c, 4, 64, 127
2, 102836, Note_on_c, 2, 62, 127
2, 103001, Note_off_c, 2, 62, 127
2, 103001, Note_off_c, 0, 72, 127
2, 103005, Note_on_c, 6, 78, 127
2, 103005, Note_on_c, 10, 69, 127
2, 103174, Note_on_c, 10, 57, 127
2, 103339, Note_off_c, 10, 57, 127
2, 103339, Note_off_c, 10, 69, 127
2, 103339, Note_off_c, 6, 78, 127
2, 103343, Note_on_c, 10, 81, 127
2, 103343, Note_on_c, 0, 60, 127
2, 103343, Note_on_c, 6, 54, 127
2, 103508, Note_off_c, 6, 54, 127
2, 103512, Note_on_c, 10, 57, 127
2, 103677, Note_off_c, 10, 57, 127
2, 103677, Note_off_c, 0, 60, 127
2, 103677, Note_off_c, 10, 81, 127
2, 103680, Note_on_c, 11, 58, 127
2, 103680, Note_on_c, 2, 50, 127
2, 104014, Note_off_c, 11, 58, 127
2, 104018, Note_on_c, 11, 70, 127
2, 104018, Note_on_c, 7, 67, 127
2, 104183, Note_off_c, 7, 67, 127
2, 104183, Note_off_c, 11, 70, 127
2, 104187, Note_on_c, 0, 72, 127
2, 104187, Note_on_c, 10, 69, 127
2, 104348, Note_off_c, 2, 50, 127
2, 104352, Note_off_c, 10, 69, 127
2, 104352, Note_off_c, 0, 72, 127
2, 104356, Note_on_c, 2, 74, 127
2, 104356, Note_on_c, 6, 66, 127
2, 104521, Note_off_c, 6, 66, 127
2, 104525, Note_on_c, 7, 67, 127
2, 104690, Note_off_c, 7, 67, 127
2, 104690, Note_off_c, 2, 74, 127
2, 104694, Note_on_c, 2, 74, 127
2, 104694, Note_on_c, 10, 69, 127
2, 104694, Note_on_c, 6, 42, 127
2, 104859, Note_off_c, 6, 42, 127
2, 104859, Note_off_c, 10, 69, 127
2, 104863, Note_on_c, 11, 70, 127
2, 104863, Note_on_c, 7, 43, 127
2, 105028, Note_off_c, 7, 43, 127
2, 105028, Note_off_c, 11, 70, 127
2, 105028, Note_off_c, 2, 74, 127
2, 105032, Note_on_c, 2, 74, 127
2, 105032, Note_on_c, 0, 72, 127
2, 105032, Note_on_c, 10, 45, 127
2, 105197, Note_off_c, 10, 45, 127
2, 105197, Note_off_c, 0, 72, 127
2, 105201, Note_on_c, 11, 70, 127
2, 105201, Note_on_c, 7, 43, 127
2, 105366, Note_off_c, 7, 43, 127
2, 105366, Note_off_c, 11, 70, 127
2, 105366, Note_off_c, 2, 74, 127
2, 105370, Note_on_c, 2, 74, 127
2, 105370, Note_on_c, 10, 69, 127
2, 105370, Note_on_c, 6, 42, 127
2, 105535, Note_off_c, 6, 42, 127
2, 105535, Note_off_c, 10, 69, 127
2, 105539, Note_on_c, 0, 72, 127
2, 105539, Note_on_c, 10, 45, 127
2, 105704, Note_off_c, 10, 45, 127
2, 105704, Note_off_c, 0, 72, 127
2, 105704, Note_off_c, 2, 74, 127
2, 105708, Note_on_c, 2, 74, 127
2, 105708, Note_on_c, 11, 70, 127
2, 105708, Note_on_c, 7, 43, 127
2, 105873, Note_off_c, 11, 70, 127
2, 105873, Note_off_c, 2, 74, 127
2, 105877, Note_on_c, 0, 72, 127
2, 105877, Note_on_c, 10, 69, 127
2, 106042, Note_off_c, 10, 69, 127
2, 106042, Note_off_c, 0, 72, 127
2, 106046, Note_on_c, 11, 70, 127
2, 106046, Note_on_c, 7, 67, 127
2, 106211, Note_off_c, 7, 67, 127
2, 106211, Note_off_c, 11, 70, 127
2, 106215, Note_on_c, 0, 72, 127
2, 106215, Note_on_c, 10, 69, 127
2, 106376, Note_off_c, 7, 43, 127
2, 106380, Note_off_c, 10, 69, 127
2, 106380, Note_off_c, 0, 72, 127
2, 106384, Note_on_c, 2, 74, 127
2, 106384, Note_on_c, 6, 66, 127
2, 106549, Note_off_c, 6, 66, 127
2, 106553, Note_on_c, 7, 67, 127
2, 106718, Note_off_c, 7, 67, 127
2, 106718, Note_off_c, 2, 74, 127
2, 106722, Note_on_c, 2, 74, 127
2, 106722, Note_on_c, 10, 69, 127
2, 106722, Note_on_c, 6, 42, 127
2, 106887, Note_off_c, 6, 42, 127
2, 106887, Note_off_c, 10, 69, 127
2, 106891, Note_on_c, 11, 70, 127
2, 106891, Note_on_c, 7, 43, 127
2, 107056, Note_off_c, 7, 43, 127
2, 107056, Note_off_c, 11, 70, 127
2, 107056, Note_off_c, 2, 74, 127
2, 107060, Note_on_c, 2, 74, 127
2, 107060, Note_on_c, 0, 72, 127
2, 107060, Note_on_c, 10, 45, 127
2, 107225, Note_off_c, 10, 45, 127
2, 107225, Note_off_c, 0, 72, 127
2, 107229, Note_on_c, 11, 70, 127
2, 107229, Note_on_c, 7, 43, 127
2, 107394, Note_off_c, 7, 43, 127
2, 107394, Note_off_c, 11, 70, 127
2, 107394, Note_off_c, 2, 74, 127
2, 107398, Note_on_c, 2, 74, 127
2, 107398, Note_on_c, 10, 69, 127
2, 107398, Note_on_c, 6, 42, 127
2, 107563, Note_off_c, 6, 42, 127
2, 107563, Note_off_c, 10, 69, 127
2, 107567, Note_on_c, 0, 72, 127
2, 107567, Note_on_c, 10, 45, 127
2, 107732, Note_off_c, 10, 45, 127
2, 107732, Note_off_c, 0, 72, 127
2, 107732, Note_off_c, 2, 74, 127
2, 107736, Note_on_c, 2, 74, 127
2, 107736, Note_on_c, 11, 70, 127
2, 107736, Note_on_c, 7, 43, 127
2, 107901, Note_off_c, 11, 70, 127
2, 107920, Note_on_c, 0, 72, 127
2, 108070, Note_off_c, 7, 43, 127
2, 108070, Note_off_c, 2, 74, 127
2, 108085, Note_off_c, 0, 72, 127
2, 108089, Note_on_c, 7, 55, 127
2, 108089, Note_on_c, 2, 74, 127
2, 108254, Note_off_c, 2, 74, 127
2, 108258, Note_on_c, 3, 75, 127
2, 108423, Note_off_c, 3, 75, 127
2, 108423, Note_off_c, 7, 55, 127
2, 108427, Note_on_c, 11, 58, 127
2, 108427, Note_on_c, 2, 74, 127
2, 108596, Note_on_c, 0, 72, 127
2, 108761, Note_off_c, 0, 72, 127
2, 108761, Note_off_c, 11, 58, 127
2, 108765, Note_on_c, 7, 55, 127
2, 108765, Note_on_c, 11, 70, 127
2, 108919, Note_off_c, 2, 74, 127
2, 108930, Note_off_c, 11, 70, 127
2, 108934, Note_on_c, 8, 68, 127
2, 109099, Note_off_c, 8, 68, 127
2, 109099, Note_off_c, 7, 55, 127
2, 109103, Note_on_c, 0, 60, 127
2, 109103, Note_on_c, 7, 67, 127
2, 109272, Note_on_c, 3, 75, 127
2, 109437, Note_off_c, 3, 75, 127
2, 109437, Note_off_c, 7, 67, 127
2, 109437, Note_off_c, 0, 60, 127
2, 109441, Note_on_c, 3, 51, 127
2, 109441, Note_on_c, 0, 72, 127
2, 109610, Note_on_c, 3, 75, 127
2, 109775, Note_off_c, 3, 75, 127
2, 109775, Note_off_c, 3, 51, 127
2, 109779, Note_on_c, 2, 50, 127
2, 109779, Note_on_c, 5, 77, 127
2, 110113, Note_off_c, 2, 50, 127
2, 110113, Note_off_c, 0, 72, 127
2, 110117, Note_on_c, 12, 59, 127
2, 110117, Note_on_c, 5, 65, 127
2, 110282, Note_off_c, 12, 59, 127
2, 110286, Note_on_c, 10, 57, 127
2, 110447, Note_off_c, 5, 77, 127
2, 110451, Note_off_c, 10, 57, 127
2, 110451, Note_off_c, 5, 65, 127
2, 110455, Note_on_c, 0, 60, 127
2, 110455, Note_on_c, 3, 63, 127
2, 110620, Note_off_c, 0, 60, 127
2, 110624, Note_on_c, 12, 59, 127
2, 110789, Note_off_c, 12, 59, 127
2, 110789, Note_off_c, 3, 63, 127
2, 110793, Note_on_c, 10, 57, 127
2, 110793, Note_on_c, 5, 65, 127
2, 110958, Note_off_c, 10, 57, 127
2, 110962, Note_on_c, 7, 55, 127
2, 111127, Note_off_c, 7, 55, 127
2, 111127, Note_off_c, 5, 65, 127
2, 111131, Note_on_c, 2, 62, 127
2, 111131, Note_on_c, 12, 71, 127
2, 111300, Note_on_c, 5, 77, 127
2, 111465, Note_off_c, 5, 77, 127
2, 111465, Note_off_c, 12, 71, 127
2, 111465, Note_off_c, 2, 62, 127
2, 111469, Note_on_c, 5, 53, 127
2, 111469, Note_on_c, 2, 74, 127
2, 111638, Note_on_c, 5, 77, 127
2, 111803, Note_off_c, 5, 77, 127
2, 111803, Note_off_c, 2, 74, 127
2, 111803, Note_off_c, 5, 53, 127
2, 111807, Note_on_c, 3, 51, 127
2, 111807, Note_on_c, 7, 79, 127
2, 112141, Note_off_c, 3, 51, 127
2, 112144, Note_on_c, 0, 60, 127
2, 112144, Note_on_c, 3, 63, 127
2, 112309, Note_off_c, 3, 63, 127
2, 112309, Note_off_c, 0, 60, 127
2, 112313, Note_on_c, 2, 62, 127
2, 112313, Note_on_c, 5, 65, 127
2, 112478, Note_off_c, 5, 65, 127
2, 112478, Note_off_c, 2, 62, 127
2, 112482, Note_on_c, 12, 59, 127
2, 112482, Note_on_c, 7, 67, 127
2, 112647, Note_off_c, 12, 59, 127
2, 112651, Note_on_c, 0, 60, 127
2, 112816, Note_off_c, 0, 60, 127
2, 112816, Note_off_c, 7, 67, 127
2, 112817, Note_off_c, 7, 79, 127
2, 112820, Note_on_c, 2, 62, 127
2, 112820, Note_on_c, 7, 67, 127
2, 112820, Note_on_c, 12, 71, 127
2, 112985, Note_off_c, 12, 71, 127
2, 112985, Note_off_c, 2, 62, 127
2, 112989, Note_on_c, 3, 63, 127
2, 112989, Note_on_c, 0, 72, 127
2, 113154, Note_off_c, 0, 72, 127
2, 113154, Note_off_c, 3, 63, 127
2, 113154, Note_off_c, 7, 67, 127
2, 113158, Note_on_c, 5, 65, 127
2, 113158, Note_on_c, 7, 67, 127
2, 113158, Note_on_c, 2, 74, 127
2, 113323, Note_off_c, 2, 74, 127
2, 113323, Note_off_c, 5, 65, 127
2, 113327, Note_on_c, 3, 63, 127
2, 113327, Note_on_c, 0, 72, 127
2, 113492, Note_off_c, 0, 72, 127
2, 113492, Note_off_c, 3, 63, 127
2, 113492, Note_off_c, 7, 67, 127
2, 113496, Note_on_c, 2, 62, 127
2, 113496, Note_on_c, 7, 67, 127
2, 113496, Note_on_c, 12, 71, 127
2, 113661, Note_off_c, 12, 71, 127
2, 113661, Note_off_c, 2, 62, 127
2, 113665, Note_on_c, 5, 65, 127
2, 113665, Note_on_c, 2, 74, 127
2, 113830, Note_off_c, 2, 74, 127
2, 113830, Note_off_c, 5, 65, 127
2, 113830, Note_off_c, 7, 67, 127
2, 113834, Note_on_c, 3, 63, 127
2, 113834, Note_on_c, 7, 67, 127
2, 113834, Note_on_c, 0, 72, 127
2, 113999, Note_off_c, 7, 67, 127
2, 113999, Note_off_c, 3, 63, 127
2, 114003, Note_on_c, 2, 62, 127
2, 114003, Note_on_c, 5, 65, 127
2, 114168, Note_off_c, 5, 65, 127
2, 114168, Note_off_c, 2, 62, 127
2, 114172, Note_on_c, 0, 60, 127
2, 114172, Note_on_c, 3, 63, 127
2, 114337, Note_off_c, 3, 63, 127
2, 114337, Note_off_c, 0, 60, 127
2, 114341, Note_on_c, 2, 62, 127
2, 114341, Note_on_c, 5, 65, 127
2, 114502, Note_off_c, 0, 72, 127
2, 114506, Note_off_c, 5, 65, 127
2, 114506, Note_off_c, 2, 62, 127
2, 114510, Note_on_c, 12, 59, 127
2, 114510, Note_on_c, 7, 67, 127
2, 114675, Note_off_c, 12, 59, 127
2, 114679, Note_on_c, 0, 60, 127
2, 114844, Note_off_c, 0, 60, 127
2, 114844, Note_off_c, 7, 67, 127
2, 114848, Note_on_c, 2, 62, 127
2, 114848, Note_on_c, 7, 67, 127
2, 114848, Note_on_c, 12, 71, 127
2, 115013, Note_off_c, 12, 71, 127
2, 115013, Note_off_c, 2, 62, 127
2, 115017, Note_on_c, 3, 63, 127
2, 115017, Note_on_c, 0, 72, 127
2, 115182, Note_off_c, 0, 72, 127
2, 115182, Note_off_c, 3, 63, 127
2, 115182, Note_off_c, 7, 67, 127
2, 115186, Note_on_c, 5, 65, 127
2, 115186, Note_on_c, 7, 67, 127
2, 115186, Note_on_c, 2, 74, 127
2, 115351, Note_off_c, 2, 74, 127
2, 115351, Note_off_c, 5, 65, 127
2, 115355, Note_on_c, 3, 63, 127
2, 115355, Note_on_c, 0, 72, 127
2, 115520, Note_off_c, 0, 72, 127
2, 115520, Note_off_c, 3, 63, 127
2, 115520, Note_off_c, 7, 67, 127
2, 115524, Note_on_c, 2, 62, 127
2, 115524, Note_on_c, 7, 67, 127
2, 115524, Note_on_c, 12, 71, 127
2, 115689, Note_off_c, 12, 71, 127
2, 115689, Note_off_c, 2, 62, 127
2, 115693, Note_on_c, 5, 65, 127
2, 115693, Note_on_c, 2, 74, 127
2, 115858, Note_off_c, 2, 74, 127
2, 115858, Note_off_c, 5, 65, 127
2, 115858, Note_off_c, 7, 67, 127
2, 115862, Note_on_c, 3, 63, 127
2, 115862, Note_on_c, 7, 67, 127
2, 115862, Note_on_c, 0, 72, 127
2, 116027, Note_off_c, 3, 63, 127
2, 116031, Note_on_c, 2, 62, 127
2, 116196, Note_off_c, 2, 62, 127
2, 116196, Note_off_c, 0, 72, 127
2, 116200, Note_on_c, 0, 60, 127
2, 116200, Note_on_c, 3, 75, 127
2, 116365, Note_off_c, 0, 60, 127
2, 116368, Note_on_c, 11, 58, 127
2, 116533, Note_off_c, 11, 58, 127
2, 116534, Note_off_c, 3, 75, 127
2, 116537, Note_on_c, 10, 57, 127
2, 116537, Note_on_c, 2, 74, 127
2, 116702, Note_off_c, 10, 57, 127
2, 116706, Note_on_c, 11, 58, 127
2, 116871, Note_off_c, 11, 58, 127
2, 116871, Note_off_c, 2, 74, 127
2, 116875, Note_on_c, 0, 60, 127
2, 116875, Note_on_c, 3, 75, 127
2, 117040, Note_off_c, 0, 60, 127
2, 117044, Note_on_c, 2, 62, 127
2, 117209, Note_off_c, 2, 62, 127
2, 117209, Note_off_c, 3, 75, 127
2, 117211, Note_off_c, 7, 67, 127
2, 117213, Note_on_c, 3, 63, 127
2, 117213, Note_on_c, 0, 72, 127
2, 117378, Note_off_c, 3, 63, 127
2, 117382, Note_on_c, 2, 62, 127
2, 117547, Note_off_c, 2, 62, 127
2, 117547, Note_off_c, 0, 72, 127
2, 117551, Note_on_c, 0, 60, 127
2, 117551, Note_on_c, 3, 75, 127
2, 117551, Note_on_c, 10, 81, 127
2, 117716, Note_off_c, 0, 60, 127
2, 117720, Note_on_c, 3, 63, 127
2, 117885, Note_off_c, 3, 63, 127
2, 117885, Note_off_c, 10, 81, 127
2, 117885, Note_off_c, 3, 75, 127
2, 117889, Note_on_c, 2, 62, 127
2, 117889, Note_on_c, 5, 77, 127
2, 117889, Note_on_c, 11, 82, 127
2, 118054, Note_off_c, 2, 62, 127
2, 118058, Note_on_c, 0, 60, 127
2, 118223, Note_off_c, 0, 60, 127
2, 118223, Note_off_c, 11, 82, 127
2, 118227, Note_on_c, 11, 58, 127
2, 118227, Note_on_c, 2, 74, 127
2, 118392, Note_off_c, 11, 58, 127
2, 118396, Note_on_c, 10, 57, 127
2, 118561, Note_off_c, 10, 57, 127
2, 118561, Note_off_c, 2, 74, 127
2, 118565, Note_on_c, 7, 55, 127
2, 118565, Note_on_c, 0, 72, 127
2, 118730, Note_off_c, 7, 55, 127
2, 118734, Note_on_c, 10, 57, 127
2, 118899, Note_off_c, 10, 57, 127
2, 118899, Note_off_c, 0, 72, 127
2, 118903, Note_on_c, 11, 58, 127
2, 118903, Note_on_c, 2, 74, 127
2, 119068, Note_off_c, 11, 58, 127
2, 119072, Note_on_c, 0, 60, 127
2, 119237, Note_off_c, 0, 60, 127
2, 119237, Note_off_c, 2, 74, 127
2, 119238, Note_off_c, 5, 77, 127
2, 119241, Note_on_c, 2, 62, 127
2, 119241, Note_on_c, 11, 70, 127
2, 119406, Note_off_c, 2, 62, 127
2, 119410, Note_on_c, 0, 60, 127
2, 119575, Note_off_c, 0, 60, 127
2, 119575, Note_off_c, 11, 70, 127
2, 119579, Note_on_c, 11, 58, 127
2, 119579, Note_on_c, 2, 74, 127
2, 119579, Note_on_c, 7, 79, 127
2, 119744, Note_off_c, 11, 58, 127
2, 119748, Note_on_c, 2, 62, 127
2, 119913, Note_off_c, 2, 62, 127
2, 119913, Note_off_c, 7, 79, 127
2, 119913, Note_off_c, 2, 74, 127
2, 119917, Note_on_c, 0, 60, 127
2, 119917, Note_on_c, 3, 75, 127
2, 119917, Note_on_c, 10, 81, 127
2, 120082, Note_off_c, 0, 60, 127
2, 120086, Note_on_c, 11, 58, 127
2, 120251, Note_off_c, 11, 58, 127
2, 120251, Note_off_c, 10, 81, 127
2, 120255, Note_on_c, 10, 57, 127
2, 120255, Note_on_c, 0, 72, 127
2, 120420, Note_off_c, 10, 57, 127
2, 120424, Note_on_c, 7, 55, 127
2, 120589, Note_off_c, 7, 55, 127
2, 120589, Note_off_c, 0, 72, 127
2, 120592, Note_on_c, 6, 54, 127
2, 120592, Note_on_c, 11, 70, 127
2, 120757, Note_off_c, 6, 54, 127
2, 120761, Note_on_c, 7, 55, 127
2, 120926, Note_off_c, 7, 55, 127
2, 120926, Note_off_c, 11, 70, 127
2, 120930, Note_on_c, 10, 57, 127
2, 120930, Note_on_c, 0, 72, 127
2, 121095, Note_off_c, 10, 57, 127
2, 121099, Note_on_c, 11, 58, 127
2, 121264, Note_off_c, 11, 58, 127
2, 121264, Note_off_c, 0, 72, 127
2, 121266, Note_off_c, 3, 75, 127
2, 121268, Note_on_c, 0, 60, 127
2, 121268, Note_on_c, 10, 69, 127
2, 121433, Note_off_c, 0, 60, 127
2, 121437, Note_on_c, 11, 58, 127
2, 121602, Note_off_c, 11, 58, 127
2, 121602, Note_off_c, 10, 69, 127
2, 121606, Note_on_c, 10, 57, 127
2, 121606, Note_on_c, 0, 72, 127
2, 121606, Note_on_c, 6, 78, 127
2, 121771, Note_off_c, 10, 57, 127
2, 121775, Note_on_c, 0, 60, 127
2, 121940, Note_off_c, 0, 60, 127
2, 121940, Note_off_c, 6, 78, 127
2, 121940, Note_off_c, 0, 72, 127
2, 121944, Note_on_c, 11, 58, 127
2, 121944, Note_on_c, 2, 74, 127
2, 121944, Note_on_c, 7, 79, 127
2, 122109, Note_off_c, 7, 79, 127
2, 122113, Note_on_c, 5, 77, 127
2, 122278, Note_off_c, 5, 77, 127
2, 122278, Note_off_c, 2, 74, 127
2, 122278, Note_off_c, 11, 58, 127
2, 122282, Note_on_c, 7, 55, 127
2, 122282, Note_on_c, 11, 58, 127
2, 122282, Note_on_c, 4, 76, 127
2, 122447, Note_off_c, 4, 76, 127
2, 122451, Note_on_c, 2, 74, 127
2, 122616, Note_off_c, 2, 74, 127
2, 122616, Note_off_c, 11, 58, 127
2, 122616, Note_off_c, 7, 55, 127
2, 122620, Note_on_c, 5, 53, 127
2, 122620, Note_on_c, 10, 57, 127
2, 122620, Note_on_c, 1, 73, 127
2, 122785, Note_off_c, 1, 73, 127
2, 122789, Note_on_c, 2, 74, 127
2, 122954, Note_off_c, 2, 74, 127
2, 122954, Note_off_c, 10, 57, 127
2, 122954, Note_off_c, 5, 53, 127
2, 122958, Note_on_c, 7, 55, 127
2, 122958, Note_on_c, 11, 58, 127
2, 122958, Note_on_c, 4, 76, 127
2, 123123, Note_off_c, 4, 76, 127
2, 123127, Note_on_c, 5, 77, 127
2, 123292, Note_off_c, 5, 77, 127
2, 123292, Note_off_c, 11, 58, 127
2, 123292, Note_off_c, 7, 55, 127
2, 123296, Note_on_c, 4, 52, 127
2, 123296, Note_on_c, 7, 55, 127
2, 123296, Note_on_c, 7, 79, 127
2, 123461, Note_off_c, 7, 79, 127
2, 123465, Note_on_c, 5, 77, 127
2, 123630, Note_off_c, 5, 77, 127
2, 123630, Note_off_c, 7, 55, 127
2, 123634, Note_on_c, 1, 61, 127
2, 123634, Note_on_c, 4, 76, 127
2, 123799, Note_off_c, 4, 76, 127
2, 123803, Note_on_c, 7, 79, 127
2, 123968, Note_off_c, 7, 79, 127
2, 123968, Note_off_c, 1, 61, 127
2, 123968, Note_off_c, 4, 52, 127
2, 123972, Note_on_c, 2, 50, 127
2, 123972, Note_on_c, 2, 62, 127
2, 123972, Note_on_c, 5, 77, 127
2, 124137, Note_off_c, 5, 77, 127
2, 124141, Note_on_c, 3, 75, 127
2, 124306, Note_off_c, 3, 75, 127
2, 124306, Note_off_c, 2, 62, 127
2, 124306, Note_off_c, 2, 50, 127
2, 124310, Note_on_c, 5, 53, 127
2, 124310, Note_on_c, 8, 56, 127
2, 124310, Note_on_c, 2, 74, 127
2, 124475, Note_off_c, 2, 74, 127
2, 124479, Note_on_c, 0, 72, 127
2, 124644, Note_off_c, 0, 72, 127
2, 124644, Note_off_c, 8, 56, 127
2, 124644, Note_off_c, 5, 53, 127
2, 124648, Note_on_c, 3, 51, 127
2, 124648, Note_on_c, 7, 55, 127
2, 124648, Note_on_c, 12, 71, 127
2, 124813, Note_off_c, 12, 71, 127
2, 124816, Note_on_c, 0, 72, 127
2, 124981, Note_off_c, 0, 72, 127
2, 124982, Note_off_c, 7, 55, 127
2, 124982, Note_off_c, 3, 51, 127
2, 124985, Note_on_c, 5, 53, 127
2, 124985, Note_on_c, 8, 56, 127
2, 124985, Note_on_c, 2, 74, 127
2, 125150, Note_off_c, 2, 74, 127
2, 125154, Note_on_c, 3, 75, 127
2, 125319, Note_off_c, 3, 75, 127
2, 125319, Note_off_c, 8, 56, 127
2, 125319, Note_off_c, 5, 53, 127
2, 125323, Note_on_c, 2, 50, 127
2, 125323, Note_on_c, 5, 53, 127
2, 125323, Note_on_c, 5, 77, 127
2, 125488, Note_off_c, 5, 77, 127
2, 125492, Note_on_c, 3, 75, 127
2, 125657, Note_off_c, 3, 75, 127
2, 125657, Note_off_c, 5, 53, 127
2, 125661, Note_on_c, 12, 59, 127
2, 125661, Note_on_c, 2, 74, 127
2, 125826, Note_off_c, 2, 74, 127
2, 125830, Note_on_c, 5, 77, 127
2, 125995, Note_off_c, 5, 77, 127
2, 125995, Note_off_c, 12, 59, 127
2, 125995, Note_off_c, 2, 50, 127
2, 125999, Note_on_c, 0, 48, 127
2, 125999, Note_on_c, 0, 60, 127
2, 125999, Note_on_c, 3, 75, 127
2, 126164, Note_off_c, 3, 75, 127
2, 126168, Note_on_c, 0, 72, 127
2, 126333, Note_off_c, 0, 72, 127
2, 126333, Note_off_c, 0, 60, 127
2, 126337, Note_on_c, 0, 60, 127
2, 126337, Note_on_c, 12, 71, 127
2, 126502, Note_off_c, 12, 71, 127
2, 126506, Note_on_c, 10, 69, 127
2, 126671, Note_off_c, 10, 69, 127
2, 126671, Note_off_c, 0, 60, 127
2, 126675, Note_on_c, 3, 63, 127
2, 126675, Note_on_c, 7, 67, 127
2, 126840, Note_off_c, 7, 67, 127
2, 126844, Note_on_c, 5, 65, 127
2, 127009, Note_off_c, 5, 65, 127
2, 127009, Note_off_c, 3, 63, 127
2, 127013, Note_on_c, 0, 60, 127
2, 127013, Note_on_c, 7, 67, 127
2, 127178, Note_off_c, 7, 67, 127
2, 127182, Note_on_c, 0, 72, 127
2, 127347, Note_off_c, 0, 72, 127
2, 127347, Note_off_c, 0, 60, 127
2, 127348, Note_off_c, 0, 48, 127
2, 127351, Note_on_c, 7, 67, 127
2, 127351, Note_on_c, 3, 75, 127
2, 127520, Note_on_c, 0, 48, 127
2, 127685, Note_off_c, 0, 48, 127
2, 127685, Note_off_c, 7, 67, 127
2, 127689, Note_on_c, 3, 51, 127
2, 127689, Note_on_c, 11, 58, 127
2, 127854, Note_off_c, 3, 51, 127
2, 127858, Note_on_c, 0, 48, 127
2, 128023, Note_off_c, 0, 48, 127
2, 128023, Note_off_c, 11, 58, 127
2, 128027, Note_on_c, 5, 53, 127
2, 128027, Note_on_c, 8, 56, 127
2, 128361, Note_off_c, 8, 56, 127
2, 128361, Note_off_c, 5, 53, 127
2, 128361, Note_off_c, 3, 75, 127
2, 128365, Note_on_c, 2, 62, 127
2, 128365, Note_on_c, 8, 68, 127
2, 128530, Note_off_c, 2, 62, 127
2, 128534, Note_on_c, 0, 60, 127
2, 128699, Note_off_c, 0, 60, 127
2, 128699, Note_off_c, 8, 68, 127
2, 128703, Note_on_c, 3, 63, 127
2, 128703, Note_on_c, 7, 67, 127
2, 128868, Note_off_c, 3, 63, 127
2, 128872, Note_on_c, 2, 62, 127
2, 129037, Note_off_c, 2, 62, 127
2, 129037, Note_off_c, 7, 67, 127
2, 129040, Note_on_c, 0, 60, 127
2, 129040, Note_on_c, 8, 68, 127
2, 129205, Note_off_c, 0, 60, 127
2, 129209, Note_on_c, 11, 58, 127
2, 129374, Note_off_c, 11, 58, 127
2, 129374, Note_off_c, 8, 68, 127
2, 129378, Note_on_c, 5, 65, 127
2, 129378, Note_on_c, 2, 74, 127
2, 129547, Note_on_c, 11, 46, 127
2, 129712, Note_off_c, 11, 46, 127
2, 129712, Note_off_c, 2, 74, 127
2, 129712, Note_off_c, 5, 65, 127
2, 129716, Note_on_c, 2, 50, 127
2, 129716, Note_on_c, 8, 56, 127
2, 129716, Note_on_c, 5, 77, 127
2, 129881, Note_off_c, 2, 50, 127
2, 129885, Note_on_c, 11, 46, 127
2, 130050, Note_off_c, 11, 46, 127
2, 130050, Note_off_c, 5, 77, 127
2, 130050, Note_off_c, 8, 56, 127
2, 130054, Note_on_c, 3, 51, 127
2, 130054, Note_on_c, 7, 55, 127
2, 130219, Note_off_c, 7, 55, 127
2, 130223, Note_on_c, 11, 58, 127
2, 130388, Note_off_c, 11, 58, 127
2, 130392, Note_on_c, 0, 60, 127
2, 130392, Note_on_c, 11, 70, 127
2, 130557, Note_off_c, 0, 60, 127
2, 130561, Note_on_c, 2, 62, 127
2, 130726, Note_off_c, 2, 62, 127
2, 130726, Note_off_c, 11, 70, 127
2, 130730, Note_on_c, 3, 63, 127
2, 130730, Note_on_c, 0, 72, 127
2, 130895, Note_off_c, 3, 63, 127
2, 130899, Note_on_c, 2, 62, 127
2, 131064, Note_off_c, 2, 62, 127
2, 131064, Note_off_c, 0, 72, 127
2, 131068, Note_on_c, 3, 63, 127
2, 131068, Note_on_c, 11, 70, 127
2, 131233, Note_off_c, 3, 63, 127
2, 131237, Note_on_c, 5, 65, 127
2, 131402, Note_off_c, 5, 65, 127
2, 131402, Note_off_c, 11, 70, 127
2, 131403, Note_off_c, 3, 51, 127
2, 131406, Note_on_c, 7, 67, 127
2, 131406, Note_on_c, 3, 75, 127
2, 131575, Note_on_c, 3, 51, 127
2, 131740, Note_off_c, 3, 51, 127
2, 131740, Note_off_c, 3, 75, 127
2, 131740, Note_off_c, 7, 67, 127
2, 131744, Note_on_c, 7, 55, 127
2, 131744, Note_on_c, 3, 63, 127
2, 131744, Note_on_c, 7, 67, 127
2, 131909, Note_off_c, 7, 55, 127
2, 131913, Note_on_c, 3, 51, 127
2, 132078, Note_off_c, 3, 51, 127
2, 132078, Note_off_c, 7, 67, 127
2, 132082, Note_on_c, 11, 58, 127
2, 132082, Note_on_c, 5, 65, 127
2, 132416, Note_off_c, 5, 65, 127
2, 132416, Note_off_c, 11, 58, 127
2, 132416, Note_off_c, 3, 63, 127
2, 132420, Note_on_c, 8, 56, 127
2, 132420, Note_on_c, 2, 74, 127
2, 132585, Note_off_c, 2, 74, 127
2, 132589, Note_on_c, 0, 72, 127
2, 132754, Note_off_c, 0, 72, 127
2, 132754, Note_off_c, 8, 56, 127
2, 132758, Note_on_c, 7, 55, 127
2, 132758, Note_on_c, 3, 75, 127
2, 132923, Note_off_c, 3, 75, 127
2, 132927, Note_on_c, 2, 74, 127
2, 133092, Note_off_c, 2, 74, 127
2, 133092, Note_off_c, 7, 55, 127
2, 133096, Note_on_c, 8, 56, 127
2, 133096, Note_on_c, 0, 72, 127
2, 133261, Note_off_c, 0, 72, 127
2, 133264, Note_on_c, 11, 70, 127
2, 133429, Note_off_c, 11, 70, 127
2, 133430, Note_off_c, 8, 56, 127
2, 133433, Note_on_c, 2, 62, 127
2, 133433, Note_on_c, 5, 77, 127
2, 133602, Note_on_c, 11, 58, 127
2, 133767, Note_off_c, 11, 58, 127
2, 133767, Note_off_c, 5, 77, 127
2, 133767, Note_off_c, 2, 62, 127
2, 133771, Note_on_c, 2, 62, 127
2, 133771, Note_on_c, 5, 65, 127
2, 133771, Note_on_c, 8, 68, 127
2, 133936, Note_off_c, 2, 62, 127
2, 133940, Note_on_c, 11, 58, 127
2, 134105, Note_off_c, 11, 58, 127
2, 134105, Note_off_c, 8, 68, 127
2, 134105, Note_off_c, 5, 65, 127
2, 134109, Note_on_c, 3, 63, 127
2, 134109, Note_on_c, 7, 67, 127
2, 134443, Note_off_c, 7, 67, 127
2, 134447, Note_on_c, 7, 55, 127
2, 134447, Note_on_c, 3, 75, 127
2, 134601, Note_off_c, 3, 63, 127
2, 134612, Note_off_c, 3, 75, 127
2, 134612, Note_off_c, 7, 55, 127
2, 134616, Note_on_c, 8, 56, 127
2, 134616, Note_on_c, 5, 77, 127
2, 134781, Note_off_c, 5, 77, 127
2, 134781, Note_off_c, 8, 56, 127
2, 134785, Note_on_c, 11, 58, 127
2, 134785, Note_on_c, 2, 74, 127
2, 134950, Note_off_c, 2, 74, 127
2, 134954, Note_on_c, 3, 75, 127
2, 135119, Note_off_c, 3, 75, 127
2, 135119, Note_off_c, 11, 58, 127
2, 135123, Note_on_c, 2, 50, 127
2, 135123, Note_on_c, 11, 58, 127
2, 135123, Note_on_c, 5, 77, 127
2, 135288, Note_off_c, 5, 77, 127
2, 135288, Note_off_c, 2, 50, 127
2, 135292, Note_on_c, 3, 51, 127
2, 135292, Note_on_c, 7, 79, 127
2, 135457, Note_off_c, 7, 79, 127
2, 135457, Note_off_c, 3, 51, 127
2, 135457, Note_off_c, 11, 58, 127
2, 135461, Note_on_c, 5, 53, 127
2, 135461, Note_on_c, 11, 58, 127
2, 135461, Note_on_c, 8, 80, 127
2, 135626, Note_off_c, 8, 80, 127
2, 135626, Note_off_c, 5, 53, 127
2, 135630, Note_on_c, 3, 51, 127
2, 135630, Note_on_c, 7, 79, 127
2, 135795, Note_off_c, 7, 79, 127
2, 135795, Note_off_c, 3, 51, 127
2, 135795, Note_off_c, 11, 58, 127
2, 135799, Note_on_c, 2, 50, 127
2, 135799, Note_on_c, 11, 58, 127
2, 135799, Note_on_c, 5, 77, 127
2, 135964, Note_off_c, 5, 77, 127
2, 135964, Note_off_c, 2, 50, 127
2, 135968, Note_on_c, 5, 53, 127
2, 135968, Note_on_c, 8, 80, 127
2, 136133, Note_off_c, 8, 80, 127
2, 136133, Note_off_c, 5, 53, 127
2, 136133, Note_off_c, 11, 58, 127
2, 136137, Note_on_c, 3, 51, 127
2, 136137, Note_on_c, 11, 58, 127
2, 136137, Note_on_c, 7, 79, 127
2, 136302, Note_off_c, 7, 79, 127
2, 136302, Note_off_c, 11, 58, 127
2, 136306, Note_on_c, 8, 56, 127
2, 136306, Note_on_c, 5, 77, 127
2, 136471, Note_off_c, 5, 77, 127
2, 136471, Note_off_c, 8, 56, 127
2, 136475, Note_on_c, 7, 55, 127
2, 136475, Note_on_c, 3, 75, 127
2, 136640, Note_off_c, 3, 75, 127
2, 136640, Note_off_c, 7, 55, 127
2, 136644, Note_on_c, 8, 56, 127
2, 136644, Note_on_c, 5, 77, 127
2, 136805, Note_off_c, 3, 51, 127
2, 136809, Note_off_c, 5, 77, 127
2, 136809, Note_off_c, 8, 56, 127
2, 136813, Note_on_c, 11, 58, 127
2, 136813, Note_on_c, 2, 74, 127
2, 136978, Note_off_c, 2, 74, 127
2, 136982, Note_on_c, 3, 75, 127
2, 137147, Note_off_c, 3, 75, 127
2, 137147, Note_off_c, 11, 58, 127
2, 137151, Note_on_c, 2, 50, 127
2, 137151, Note_on_c, 11, 58, 127
2, 137151, Note_on_c, 5, 77, 127
2, 137316, Note_off_c, 5, 77, 127
2, 137316, Note_off_c, 2, 50, 127
2, 137320, Note_on_c, 3, 51, 127
2, 137320, Note_on_c, 7, 79, 127
2, 137485, Note_off_c, 7, 79, 127
2, 137485, Note_off_c, 3, 51, 127
2, 137485, Note_off_c, 11, 58, 127
2, 137488, Note_on_c, 5, 53, 127
2, 137488, Note_on_c, 11, 58, 127
2, 137488, Note_on_c, 8, 80, 127
2, 137653, Note_off_c, 8, 80, 127
2, 137653, Note_off_c, 5, 53, 127
2, 137657, Note_on_c, 3, 51, 127
2, 137657, Note_on_c, 7, 79, 127
2, 137822, Note_off_c, 7, 79, 127
2, 137822, Note_off_c, 3, 51, 127
2, 137822, Note_off_c, 11, 58, 127
2, 137826, Note_on_c, 2, 50, 127
2, 137826, Note_on_c, 11, 58, 127
2, 137826, Note_on_c, 5, 77, 127
2, 137991, Note_off_c, 5, 77, 127
2, 137991, Note_off_c, 2, 50, 127
2, 137995, Note_on_c, 5, 53, 127
2, 137995, Note_on_c, 8, 80, 127
2, 138160, Note_off_c, 8, 80, 127
2, 138160, Note_off_c, 5, 53, 127
2, 138160, Note_off_c, 11, 58, 127
2, 138164, Note_on_c, 3, 51, 127
2, 138164, Note_on_c, 11, 58, 127
2, 138164, Note_on_c, 8, 80, 127
2, 138235, Note_on_c, 7, 79, 127
2, 138244, Note_off_c, 8, 80, 127
2, 138305, Note_on_c, 8, 80, 127
2, 138315, Note_off_c, 7, 79, 127
2, 138376, Note_on_c, 7, 79, 127
2, 138385, Note_off_c, 8, 80, 127
2, 138498, Note_off_c, 11, 58, 127
2, 138502, Note_on_c, 3, 63, 127
2, 138666, Note_off_c, 7, 79, 127
2, 138671, Note_on_c, 5, 77, 127
2, 138832, Note_off_c, 3, 51, 127
2, 138836, Note_off_c, 5, 77, 127
2, 138836, Note_off_c, 3, 63, 127
2, 138840, Note_on_c, 7, 67, 127
2, 138840, Note_on_c, 3, 75, 127
2, 139005, Note_off_c, 3, 75, 127
2, 139009, Note_on_c, 2, 74, 127
2, 139174, Note_off_c, 2, 74, 127
2, 139174, Note_off_c, 7, 67, 127
2, 139178, Note_on_c, 3, 63, 127
2, 139178, Note_on_c, 3, 75, 127
2, 139343, Note_off_c, 3, 75, 127
2, 139347, Note_on_c, 5, 77, 127
2, 139512, Note_off_c, 5, 77, 127
2, 139512, Note_off_c, 3, 63, 127
2, 139516, Note_on_c, 11, 70, 127
2, 139516, Note_on_c, 7, 79, 127
2, 139685, Note_on_c, 3, 51, 127
2, 139850, Note_off_c, 3, 51, 127
2, 139850, Note_off_c, 7, 79, 127
2, 139850, Note_off_c, 11, 70, 127
2, 139854, Note_on_c, 7, 55, 127
2, 139854, Note_on_c, 2, 62, 127
2, 139854, Note_on_c, 11, 82, 127
2, 140019, Note_off_c, 7, 55, 127
2, 140023, Note_on_c, 3, 51, 127
2, 140188, Note_off_c, 3, 51, 127
2, 140188, Note_off_c, 2, 62, 127
2, 140192, Note_on_c, 5, 53, 127
2, 140192, Note_on_c, 0, 60, 127
2, 140526, Note_off_c, 0, 60, 127
2, 140526, Note_off_c, 11, 82, 127
2, 140530, Note_on_c, 10, 69, 127
2, 140530, Note_on_c, 3, 75, 127
2, 140695, Note_off_c, 10, 69, 127
2, 140699, Note_on_c, 7, 67, 127
2, 140860, Note_off_c, 5, 53, 127
2, 140864, Note_off_c, 7, 67, 127
2, 140864, Note_off_c, 3, 75, 127
2, 140868, Note_on_c, 11, 70, 127
2, 140868, Note_on_c, 2, 74, 127
2, 141033, Note_off_c, 11, 70, 127
2, 141037, Note_on_c, 10, 69, 127
2, 141202, Note_off_c, 10, 69, 127
2, 141202, Note_off_c, 2, 74, 127
2, 141206, Note_on_c, 7, 67, 127
2, 141206, Note_on_c, 3, 75, 127
2, 141371, Note_off_c, 7, 67, 127
2, 141375, Note_on_c, 5, 65, 127
2, 141540, Note_off_c, 5, 65, 127
2, 141540, Note_off_c, 3, 75, 127
2, 141544, Note_on_c, 0, 72, 127
2, 141544, Note_on_c, 10, 81, 127
2, 141712, Note_on_c, 5, 53, 127
2, 141877, Note_off_c, 5, 53, 127
2, 141878, Note_off_c, 10, 81, 127
2, 141878, Note_off_c, 0, 72, 127
2, 141881, Note_on_c, 10, 57, 127
2, 141881, Note_on_c, 3, 63, 127
2, 141881, Note_on_c, 0, 84, 127
2, 142046, Note_off_c, 10, 57, 127
2, 142050, Note_on_c, 5, 53, 127
2, 142215, Note_off_c, 5, 53, 127
2, 142215, Note_off_c, 0, 84, 127
2, 142215, Note_off_c, 3, 63, 127
2, 142219, Note_on_c, 11, 58, 127
2, 142219, Note_on_c, 2, 62, 127
2, 142553, Note_off_c, 2, 62, 127
2, 142557, Note_on_c, 11, 70, 127
2, 142557, Note_on_c, 2, 74, 127
2, 142722, Note_off_c, 2, 74, 127
2, 142722, Note_off_c, 11, 70, 127
2, 142726, Note_on_c, 0, 72, 127
2, 142726, Note_on_c, 3, 75, 127
2, 142887, Note_off_c, 11, 58, 127
2, 142891, Note_off_c, 3, 75, 127
2, 142891, Note_off_c, 0, 72, 127
2, 142895, Note_on_c, 10, 69, 127
2, 142895, Note_on_c, 5, 77, 127
2, 143060, Note_off_c, 10, 69, 127
2, 143064, Note_on_c, 11, 70, 127
2, 143229, Note_off_c, 11, 70, 127
2, 143229, Note_off_c, 5, 77, 127
2, 143233, Note_on_c, 10, 57, 127
2, 143233, Note_on_c, 0, 72, 127
2, 143233, Note_on_c, 5, 77, 127
2, 143398, Note_off_c, 0, 72, 127
2, 143398, Note_off_c, 10, 57, 127
2, 143402, Note_on_c, 11, 58, 127
2, 143402, Note_on_c, 2, 74, 127
2, 143567, Note_off_c, 2, 74, 127
2, 143567, Note_off_c, 11, 58, 127
2, 143567, Note_off_c, 5, 77, 127
2, 143571, Note_on_c, 0, 60, 127
2, 143571, Note_on_c, 3, 75, 127
2, 143571, Note_on_c, 5, 77, 127
2, 143736, Note_off_c, 3, 75, 127
2, 143736, Note_off_c, 0, 60, 127
2, 143740, Note_on_c, 11, 58, 127
2, 143740, Note_on_c, 2, 74, 127
2, 143905, Note_off_c, 2, 74, 127
2, 143905, Note_off_c, 11, 58, 127
2, 143905, Note_off_c, 5, 77, 127
2, 143909, Note_on_c, 10, 57, 127
2, 143909, Note_on_c, 0, 72, 127
2, 143909, Note_on_c, 5, 77, 127
2, 144074, Note_off_c, 0, 72, 127
2, 144074, Note_off_c, 10, 57, 127
2, 144078, Note_on_c, 0, 60, 127
2, 144078, Note_on_c, 3, 75, 127
2, 144243, Note_off_c, 3, 75, 127
2, 144243, Note_off_c, 0, 60, 127
2, 144243, Note_off_c, 5, 77, 127
2, 144247, Note_on_c, 11, 58, 127
2, 144247, Note_on_c, 2, 74, 127
2, 144247, Note_on_c, 5, 77, 127
2, 144412, Note_off_c, 5, 77, 127
2, 144412, Note_off_c, 2, 74, 127
2, 144416, Note_on_c, 0, 72, 127
2, 144416, Note_on_c, 3, 75, 127
2, 144581, Note_off_c, 3, 75, 127
2, 144581, Note_off_c, 0, 72, 127
2, 144585, Note_on_c, 11, 70, 127
2, 144585, Note_on_c, 2, 74, 127
2, 144750, Note_off_c, 2, 74, 127
2, 144750, Note_off_c, 11, 70, 127
2, 144754, Note_on_c, 0, 72, 127
2, 144754, Note_on_c, 3, 75, 127
2, 144915, Note_off_c, 11, 58, 127
2, 144919, Note_off_c, 3, 75, 127
2, 144919, Note_off_c, 0, 72, 127
2, 144923, Note_on_c, 10, 69, 127
2, 144923, Note_on_c, 5, 77, 127
2, 145088, Note_off_c, 10, 69, 127
2, 145092, Note_on_c, 11, 70, 127
2, 145257, Note_off_c, 11, 70, 127
2, 145257, Note_off_c, 5, 77, 127
2, 145261, Note_on_c, 10, 57, 127
2, 145261, Note_on_c, 0, 72, 127
2, 145261, Note_on_c, 5, 77, 127
2, 145426, Note_off_c, 0, 72, 127
2, 145426, Note_off_c, 10, 57, 127
2, 145430, Note_on_c, 11, 58, 127
2, 145430, Note_on_c, 2, 74, 127
2, 145595, Note_off_c, 2, 74, 127
2, 145595, Note_off_c, 11, 58, 127
2, 145595, Note_off_c, 5, 77, 127
2, 145599, Note_on_c, 0, 60, 127
2, 145599, Note_on_c, 3, 75, 127
2, 145599, Note_on_c, 5, 77, 127
2, 145764, Note_off_c, 3, 75, 127
2, 145764, Note_off_c, 0, 60, 127
2, 145768, Note_on_c, 11, 58, 127
2, 145768, Note_on_c, 2, 74, 127
2, 145933, Note_off_c, 2, 74, 127
2, 145933, Note_off_c, 11, 58, 127
2, 145933, Note_off_c, 5, 77, 127
2, 145936, Note_on_c, 10, 57, 127
2, 145936, Note_on_c, 0, 72, 127
2, 145936, Note_on_c, 5, 77, 127
2, 146101, Note_off_c, 0, 72, 127
2, 146101, Note_off_c, 10, 57, 127
2, 146105, Note_on_c, 0, 60, 127
2, 146105, Note_on_c, 3, 75, 127
2, 146270, Note_off_c, 3, 75, 127
2, 146270, Note_off_c, 0, 60, 127
2, 146270, Note_off_c, 5, 77, 127
2, 146274, Note_on_c, 11, 58, 127
2, 146274, Note_on_c, 2, 74, 127
2, 146274, Note_on_c, 5, 77, 127
2, 146439, Note_off_c, 11, 58, 127
2, 146443, Note_on_c, 5, 53, 127
2, 146608, Note_off_c, 5, 53, 127
2, 146608, Note_off_c, 2, 74, 127
2, 146612, Note_on_c, 2, 50, 127
2, 146612, Note_on_c, 5, 53, 127
2, 146777, Note_off_c, 5, 53, 127
2, 146777, Note_off_c, 2, 50, 127
2, 146781, Note_on_c, 3, 51, 127
2, 146781, Note_on_c, 7, 55, 127
2, 146946, Note_off_c, 7, 55, 127
2, 146946, Note_off_c, 3, 51, 127
2, 146950, Note_on_c, 5, 53, 127
2, 146950, Note_on_c, 10, 57, 127
2, 147115, Note_off_c, 10, 57, 127
2, 147119, Note_on_c, 11, 58, 127
2, 147284, Note_off_c, 11, 58, 127
2, 147284, Note_off_c, 5, 53, 127
2, 147284, Note_off_c, 5, 77, 127
2, 147288, Note_on_c, 5, 53, 127
2, 147288, Note_on_c, 0, 60, 127
2, 147288, Note_on_c, 10, 69, 127
2, 147453, Note_off_c, 10, 69, 127
2, 147453, Note_off_c, 0, 60, 127
2, 147457, Note_on_c, 2, 62, 127
2, 147457, Note_on_c, 11, 70, 127
2, 147622, Note_off_c, 11, 70, 127
2, 147622, Note_off_c, 2, 62, 127
2, 147622, Note_off_c, 5, 53, 127
2, 147626, Note_on_c, 5, 53, 127
2, 147626, Note_on_c, 3, 63, 127
2, 147626, Note_on_c, 0, 72, 127
2, 147791, Note_off_c, 0, 72, 127
2, 147791, Note_off_c, 3, 63, 127
2, 147795, Note_on_c, 2, 62, 127
2, 147795, Note_on_c, 11, 70, 127
2, 147960, Note_off_c, 11, 70, 127
2, 147960, Note_off_c, 2, 62, 127
2, 147960, Note_off_c, 5, 53, 127
2, 147964, Note_on_c, 5, 53, 127
2, 147964, Note_on_c, 0, 60, 127
2, 147964, Note_on_c, 10, 69, 127
2, 148129, Note_off_c, 10, 69, 127
2, 148129, Note_off_c, 0, 60, 127
2, 148133, Note_on_c, 3, 63, 127
2, 148133, Note_on_c, 0, 72, 127
2, 148298, Note_off_c, 0, 72, 127
2, 148298, Note_off_c, 3, 63, 127
2, 148298, Note_off_c, 5, 53, 127
2, 148302, Note_on_c, 5, 53, 127
2, 148302, Note_on_c, 2, 62, 127
2, 148302, Note_on_c, 11, 70, 127
2, 148467, Note_off_c, 2, 62, 127
2, 148467, Note_off_c, 5, 53, 127
2, 148471, Note_on_c, 3, 51, 127
2, 148471, Note_on_c, 0, 60, 127
2, 148636, Note_off_c, 0, 60, 127
2, 148636, Note_off_c, 3, 51, 127
2, 148640, Note_on_c, 2, 50, 127
2, 148640, Note_on_c, 11, 58, 127
2, 148805, Note_off_c, 11, 58, 127
2, 148805, Note_off_c, 2, 50, 127
2, 148809, Note_on_c, 3, 51, 127
2, 148809, Note_on_c, 0, 60, 127
2, 148970, Note_off_c, 11, 70, 127
2, 148974, Note_off_c, 0, 60, 127
2, 148974, Note_off_c, 3, 51, 127
2, 148978, Note_on_c, 5, 53, 127
2, 148978, Note_on_c, 10, 57, 127
2, 149143, Note_off_c, 10, 57, 127
2, 149147, Note_on_c, 11, 58, 127
2, 149312, Note_off_c, 11, 58, 127
2, 149312, Note_off_c, 5, 53, 127
2, 149316, Note_on_c, 5, 53, 127
2, 149316, Note_on_c, 0, 60, 127
2, 149316, Note_on_c, 10, 69, 127
2, 149481, Note_off_c, 10, 69, 127
2, 149481, Note_off_c, 0, 60, 127
2, 149485, Note_on_c, 2, 62, 127
2, 149485, Note_on_c, 11, 70, 127
2, 149650, Note_off_c, 11, 70, 127
2, 149650, Note_off_c, 2, 62, 127
2, 149650, Note_off_c, 5, 53, 127
2, 149654, Note_on_c, 5, 53, 127
2, 149654, Note_on_c, 3, 63, 127
2, 149654, Note_on_c, 0, 72, 127
2, 149819, Note_off_c, 0, 72, 127
2, 149819, Note_off_c, 3, 63, 127
2, 149823, Note_on_c, 2, 62, 127
2, 149823, Note_on_c, 11, 70, 127
2, 149988, Note_off_c, 11, 70, 127
2, 149988, Note_off_c, 2, 62, 127
2, 149988, Note_off_c, 5, 53, 127
2, 149992, Note_on_c, 5, 53, 127
2, 149992, Note_on_c, 0, 60, 127
2, 149992, Note_on_c, 10, 69, 127
2, 150157, Note_off_c, 10, 69, 127
2, 150157, Note_off_c, 0, 60, 127
2, 150160, Note_on_c, 3, 63, 127
2, 150160, Note_on_c, 0, 72, 127
2, 150325, Note_off_c, 0, 72, 127
2, 150325, Note_off_c, 3, 63, 127
2, 150326, Note_off_c, 5, 53, 127
2, 150329, Note_on_c, 5, 53, 127
2, 150329, Note_on_c, 2, 62, 127
2, 150329, Note_on_c, 11, 70, 127
2, 150494, Note_off_c, 5, 53, 127
2, 150498, Note_on_c, 3, 51, 127
2, 150663, Note_off_c, 3, 51, 127
2, 150663, Note_off_c, 11, 70, 127
2, 150663, Note_off_c, 2, 62, 127
2, 150667, Note_on_c, 2, 50, 127
2, 150667, Note_on_c, 11, 70, 127
2, 150667, Note_on_c, 7, 79, 127
2, 150832, Note_off_c, 2, 50, 127
2, 150836, Note_on_c, 3, 51, 127
2, 151001, Note_off_c, 3, 51, 127
2, 151001, Note_off_c, 7, 79, 127
2, 151001, Note_off_c, 11, 70, 127
2, 151005, Note_on_c, 5, 53, 127
2, 151005, Note_on_c, 11, 70, 127
2, 151005, Note_on_c, 2, 74, 127
2, 151339, Note_off_c, 5, 53, 127
2, 151343, Note_on_c, 3, 51, 127
2, 151423, Note_off_c, 2, 74, 127
2, 151428, Note_on_c, 0, 72, 127
2, 151497, Note_off_c, 11, 70, 127
2, 151508, Note_off_c, 0, 72, 127
2, 151512, Note_on_c, 11, 70, 127
2, 151597, Note_on_c, 0, 72, 127
2, 151677, Note_off_c, 0, 72, 127
2, 151677, Note_off_c, 3, 51, 127
2, 151680, Note_off_c, 11, 70, 127
2, 151681, Note_on_c, 5, 53, 127
2, 151681, Note_on_c, 10, 69, 127
2, 151681, Note_on_c, 2, 74, 127
2, 151832, Note_off_c, 2, 74, 127
2, 151836, Note_on_c, 0, 72, 127
2, 151903, Note_on_c, 2, 74, 127
2, 151916, Note_off_c, 0, 72, 127
2, 151970, Note_on_c, 0, 72, 127
2, 151983, Note_off_c, 2, 74, 127
2, 152037, Note_on_c, 2, 74, 127
2, 152050, Note_off_c, 0, 72, 127
2, 152104, Note_on_c, 3, 63, 127
2, 152104, Note_on_c, 0, 72, 127
2, 152104, Note_on_c, 5, 41, 127
2, 152117, Note_off_c, 2, 74, 127
2, 152265, Note_off_c, 10, 69, 127
2, 152278, Note_on_c, 11, 70, 127
2, 152280, Note_off_c, 0, 72, 127
2, 152509, Note_off_c, 5, 53, 127
2, 152538, Note_off_c, 11, 70, 127
2, 152542, Note_off_c, 5, 41, 127
2, 152561, Note_off_c, 3, 63, 127
2, 152568, Note_on_c, 11, 70, 127
2, 152568, Note_on_c, 2, 62, 127
2, 152568, Note_on_c, 5, 53, 127
2, 152568, Note_on_c, 11, 46, 127
2, 155384, Note_off_c, 11, 46, 127
2, 155384, Note_off_c, 5, 53, 127
2, 155384, Note_off_c, 2, 62, 127
2, 155384, Note_off_c, 11, 70, 127
2, 159744, End_track
3, 0, Start_track
3, 0, Title_t, "MIDI"
3, 1536, End_track
0, 0, End_of_file
